{"title":"Sonate D960, 4. Satz","artist":"Schubert","durationMs":480650,"midiSha256":"5207cc6397b92e3d6699263ecc60e93d65f6aa7c221b94049bad642fb120efc0","midiObject":[{"NoteNumber":67,"Velocity":94,"Duration":1768134,"SoundDuration":1768134,"Delta":0},{"NoteNumber":55,"Velocity":78,"Duration":1768134,"SoundDuration":1768134,"Delta":0},{"NoteNumber":74,"Velocity":52,"Duration":113156,"SoundDuration":113156,"Delta":1541821},{"NoteNumber":72,"Velocity":63,"Duration":216029,"SoundDuration":216029,"Delta":1768134},{"NoteNumber":55,"Velocity":42,"Duration":216029,"SoundDuration":216029,"Delta":1768134},{"NoteNumber":71,"Velocity":37,"Duration":108014,"SoundDuration":108014,"Delta":1984163},{"NoteNumber":67,"Velocity":31,"Duration":108014,"SoundDuration":108014,"Delta":1984163},{"NoteNumber":71,"Velocity":43,"Duration":109681,"SoundDuration":109681,"Delta":2200193},{"NoteNumber":62,"Velocity":26,"Duration":109681,"SoundDuration":109681,"Delta":2200193},{"NoteNumber":65,"Velocity":31,"Duration":109681,"SoundDuration":109681,"Delta":2200193},{"NoteNumber":71,"Velocity":37,"Duration":111391,"SoundDuration":111391,"Delta":2419555},{"NoteNumber":67,"Velocity":32,"Duration":111391,"SoundDuration":111391,"Delta":2419555},{"NoteNumber":71,"Velocity":55,"Duration":219362,"SoundDuration":219362,"Delta":2642339},{"NoteNumber":55,"Velocity":44,"Duration":219362,"SoundDuration":219362,"Delta":2642339},{"NoteNumber":72,"Velocity":40,"Duration":109681,"SoundDuration":109681,"Delta":2861701},{"NoteNumber":67,"Velocity":28,"Duration":109681,"SoundDuration":109681,"Delta":2861701},{"NoteNumber":60,"Velocity":29,"Duration":109681,"SoundDuration":109681,"Delta":3081064},{"NoteNumber":63,"Velocity":35,"Duration":109681,"SoundDuration":109681,"Delta":3081064},{"NoteNumber":75,"Velocity":51,"Duration":112267,"SoundDuration":112267,"Delta":3300426},{"NoteNumber":67,"Velocity":32,"Duration":112267,"SoundDuration":112267,"Delta":3300426},{"NoteNumber":72,"Velocity":63,"Duration":216029,"SoundDuration":216029,"Delta":3524960},{"NoteNumber":55,"Velocity":42,"Duration":216029,"SoundDuration":216029,"Delta":3524960},{"NoteNumber":71,"Velocity":37,"Duration":108014,"SoundDuration":108014,"Delta":3740990},{"NoteNumber":67,"Velocity":31,"Duration":108014,"SoundDuration":108014,"Delta":3740990},{"NoteNumber":71,"Velocity":44,"Duration":109257,"SoundDuration":109257,"Delta":3957019},{"NoteNumber":62,"Velocity":26,"Duration":109257,"SoundDuration":109257,"Delta":3957019},{"NoteNumber":65,"Velocity":31,"Duration":109257,"SoundDuration":109257,"Delta":3957019},{"NoteNumber":71,"Velocity":37,"Duration":112267,"SoundDuration":112267,"Delta":4175535},{"NoteNumber":67,"Velocity":29,"Duration":112267,"SoundDuration":112267,"Delta":4175535},{"NoteNumber":71,"Velocity":57,"Duration":219362,"SoundDuration":219362,"Delta":4400069},{"NoteNumber":55,"Velocity":44,"Duration":219362,"SoundDuration":219362,"Delta":4400069},{"NoteNumber":72,"Velocity":47,"Duration":109681,"SoundDuration":109681,"Delta":4619431},{"NoteNumber":67,"Velocity":32,"Duration":109681,"SoundDuration":109681,"Delta":4619431},{"NoteNumber":60,"Velocity":29,"Duration":164521,"SoundDuration":164521,"Delta":4838794},{"NoteNumber":63,"Velocity":35,"Duration":164521,"SoundDuration":164521,"Delta":4838794},{"NoteNumber":54,"Velocity":29,"Duration":164521,"SoundDuration":164521,"Delta":4838794},{"NoteNumber":75,"Velocity":54,"Duration":223663,"SoundDuration":223663,"Delta":5058156},{"NoteNumber":66,"Velocity":35,"Duration":167747,"SoundDuration":167747,"Delta":5058156},{"NoteNumber":72,"Velocity":63,"Duration":215223,"SoundDuration":215223,"Delta":5281820},{"NoteNumber":53,"Velocity":42,"Duration":215223,"SoundDuration":215223,"Delta":5281820},{"NoteNumber":70,"Velocity":52,"Duration":107611,"SoundDuration":107611,"Delta":5497043},{"NoteNumber":65,"Velocity":35,"Duration":107611,"SoundDuration":107611,"Delta":5497043},{"NoteNumber":70,"Velocity":54,"Duration":109681,"SoundDuration":109681,"Delta":5712267},{"NoteNumber":62,"Velocity":35,"Duration":109681,"SoundDuration":109681,"Delta":5712267},{"NoteNumber":70,"Velocity":54,"Duration":109681,"SoundDuration":109681,"Delta":5931629},{"NoteNumber":65,"Velocity":36,"Duration":109681,"SoundDuration":109681,"Delta":5931629},{"NoteNumber":72,"Velocity":63,"Duration":216029,"SoundDuration":216029,"Delta":6150992},{"NoteNumber":55,"Velocity":42,"Duration":216029,"SoundDuration":216029,"Delta":6150992},{"NoteNumber":70,"Velocity":53,"Duration":108014,"SoundDuration":108014,"Delta":6367021},{"NoteNumber":64,"Velocity":36,"Duration":108014,"SoundDuration":108014,"Delta":6367021},{"NoteNumber":70,"Velocity":55,"Duration":109681,"SoundDuration":109681,"Delta":6583051},{"NoteNumber":60,"Velocity":36,"Duration":109681,"SoundDuration":109681,"Delta":6583051},{"NoteNumber":70,"Velocity":55,"Duration":109681,"SoundDuration":109681,"Delta":6802413},{"NoteNumber":64,"Velocity":36,"Duration":109681,"SoundDuration":109681,"Delta":6802413},{"NoteNumber":72,"Velocity":63,"Duration":107611,"SoundDuration":107611,"Delta":7021776},{"NoteNumber":62,"Velocity":42,"Duration":215223,"SoundDuration":215223,"Delta":7021776},{"NoteNumber":53,"Velocity":35,"Duration":215223,"SoundDuration":215223,"Delta":7021776},{"NoteNumber":70,"Velocity":52,"Duration":107611,"SoundDuration":107611,"Delta":7129387},{"NoteNumber":69,"Velocity":53,"Duration":107611,"SoundDuration":107611,"Delta":7236999},{"NoteNumber":65,"Velocity":33,"Duration":215223,"SoundDuration":215223,"Delta":7236999},{"NoteNumber":70,"Velocity":53,"Duration":107611,"SoundDuration":107611,"Delta":7344611},{"NoteNumber":72,"Velocity":58,"Duration":110954,"SoundDuration":110954,"Delta":7452223},{"NoteNumber":63,"Velocity":35,"Duration":110954,"SoundDuration":110954,"Delta":7452223},{"NoteNumber":53,"Velocity":29,"Duration":110954,"SoundDuration":110954,"Delta":7452223},{"NoteNumber":74,"Velocity":54,"Duration":114068,"SoundDuration":114068,"Delta":7674133},{"NoteNumber":65,"Velocity":34,"Duration":114068,"SoundDuration":114068,"Delta":7674133},{"NoteNumber":70,"Velocity":58,"Duration":225646,"SoundDuration":225646,"Delta":7902270},{"NoteNumber":62,"Velocity":42,"Duration":225646,"SoundDuration":225646,"Delta":7902270},{"NoteNumber":58,"Velocity":42,"Duration":225646,"SoundDuration":225646,"Delta":7902270},{"NoteNumber":55,"Velocity":78,"Duration":1323125,"SoundDuration":1323125,"Delta":8347279},{"NoteNumber":67,"Velocity":94,"Duration":1323125,"SoundDuration":1323125,"Delta":8347279},{"NoteNumber":86,"Velocity":52,"Duration":113156,"SoundDuration":113156,"Delta":9444091},{"NoteNumber":84,"Velocity":64,"Duration":216029,"SoundDuration":216029,"Delta":9670404},{"NoteNumber":55,"Velocity":42,"Duration":216029,"SoundDuration":216029,"Delta":9670404},{"NoteNumber":83,"Velocity":37,"Duration":108014,"SoundDuration":108014,"Delta":9886433},{"NoteNumber":67,"Velocity":31,"Duration":108014,"SoundDuration":108014,"Delta":9886433},{"NoteNumber":83,"Velocity":43,"Duration":109681,"SoundDuration":109681,"Delta":10102463},{"NoteNumber":65,"Velocity":31,"Duration":109681,"SoundDuration":109681,"Delta":10102463},{"NoteNumber":62,"Velocity":26,"Duration":109681,"SoundDuration":109681,"Delta":10102463},{"NoteNumber":83,"Velocity":37,"Duration":111391,"SoundDuration":111391,"Delta":10321825},{"NoteNumber":67,"Velocity":32,"Duration":111391,"SoundDuration":111391,"Delta":10321825},{"NoteNumber":83,"Velocity":55,"Duration":219362,"SoundDuration":219362,"Delta":10544609},{"NoteNumber":55,"Velocity":44,"Duration":219362,"SoundDuration":219362,"Delta":10544609},{"NoteNumber":84,"Velocity":42,"Duration":109681,"SoundDuration":109681,"Delta":10763971},{"NoteNumber":67,"Velocity":31,"Duration":109681,"SoundDuration":109681,"Delta":10763971},{"NoteNumber":60,"Velocity":29,"Duration":109681,"SoundDuration":109681,"Delta":10983334},{"NoteNumber":63,"Velocity":35,"Duration":109681,"SoundDuration":109681,"Delta":10983334},{"NoteNumber":87,"Velocity":51,"Duration":112266,"SoundDuration":112266,"Delta":11202696},{"NoteNumber":67,"Velocity":32,"Duration":112266,"SoundDuration":112266,"Delta":11202696},{"NoteNumber":84,"Velocity":64,"Duration":216029,"SoundDuration":216029,"Delta":11427230},{"NoteNumber":55,"Velocity":42,"Duration":216029,"SoundDuration":216029,"Delta":11427230},{"NoteNumber":83,"Velocity":37,"Duration":108014,"SoundDuration":108014,"Delta":11643260},{"NoteNumber":67,"Velocity":31,"Duration":108014,"SoundDuration":108014,"Delta":11643260},{"NoteNumber":83,"Velocity":44,"Duration":109257,"SoundDuration":109257,"Delta":11859289},{"NoteNumber":62,"Velocity":26,"Duration":109257,"SoundDuration":109257,"Delta":11859289},{"NoteNumber":65,"Velocity":31,"Duration":109257,"SoundDuration":109257,"Delta":11859289},{"NoteNumber":83,"Velocity":37,"Duration":112266,"SoundDuration":112266,"Delta":12077805},{"NoteNumber":67,"Velocity":29,"Duration":112266,"SoundDuration":112266,"Delta":12077805},{"NoteNumber":83,"Velocity":57,"Duration":219362,"SoundDuration":219362,"Delta":12302339},{"NoteNumber":55,"Velocity":44,"Duration":219362,"SoundDuration":219362,"Delta":12302339},{"NoteNumber":84,"Velocity":47,"Duration":109681,"SoundDuration":109681,"Delta":12521701},{"NoteNumber":67,"Velocity":32,"Duration":109681,"SoundDuration":109681,"Delta":12521701},{"NoteNumber":54,"Velocity":29,"Duration":109681,"SoundDuration":109681,"Delta":12741064},{"NoteNumber":60,"Velocity":29,"Duration":109681,"SoundDuration":109681,"Delta":12741064},{"NoteNumber":63,"Velocity":35,"Duration":109681,"SoundDuration":109681,"Delta":12741064},{"NoteNumber":87,"Velocity":54,"Duration":223663,"SoundDuration":223663,"Delta":12960426},{"NoteNumber":66,"Velocity":35,"Duration":111831,"SoundDuration":111831,"Delta":12960426},{"NoteNumber":84,"Velocity":64,"Duration":215223,"SoundDuration":215223,"Delta":13184090},{"NoteNumber":53,"Velocity":42,"Duration":215223,"SoundDuration":215223,"Delta":13184090},{"NoteNumber":82,"Velocity":52,"Duration":107611,"SoundDuration":107611,"Delta":13399313},{"NoteNumber":65,"Velocity":35,"Duration":107611,"SoundDuration":107611,"Delta":13399313},{"NoteNumber":82,"Velocity":54,"Duration":109681,"SoundDuration":109681,"Delta":13614537},{"NoteNumber":62,"Velocity":35,"Duration":109681,"SoundDuration":109681,"Delta":13614537},{"NoteNumber":82,"Velocity":54,"Duration":109681,"SoundDuration":109681,"Delta":13833899},{"NoteNumber":65,"Velocity":36,"Duration":109681,"SoundDuration":109681,"Delta":13833899},{"NoteNumber":84,"Velocity":64,"Duration":216029,"SoundDuration":216029,"Delta":14053262},{"NoteNumber":55,"Velocity":42,"Duration":216029,"SoundDuration":216029,"Delta":14053262},{"NoteNumber":82,"Velocity":53,"Duration":108014,"SoundDuration":108014,"Delta":14269291},{"NoteNumber":64,"Velocity":36,"Duration":108014,"SoundDuration":108014,"Delta":14269291},{"NoteNumber":82,"Velocity":55,"Duration":109681,"SoundDuration":109681,"Delta":14485321},{"NoteNumber":60,"Velocity":36,"Duration":109681,"SoundDuration":109681,"Delta":14485321},{"NoteNumber":82,"Velocity":55,"Duration":109681,"SoundDuration":109681,"Delta":14704683},{"NoteNumber":64,"Velocity":36,"Duration":109681,"SoundDuration":109681,"Delta":14704683},{"NoteNumber":84,"Velocity":64,"Duration":107611,"SoundDuration":107611,"Delta":14924046},{"NoteNumber":53,"Velocity":35,"Duration":215223,"SoundDuration":215223,"Delta":14924046},{"NoteNumber":62,"Velocity":42,"Duration":215223,"SoundDuration":215223,"Delta":14924046},{"NoteNumber":82,"Velocity":52,"Duration":107611,"SoundDuration":107611,"Delta":15031658},{"NoteNumber":81,"Velocity":53,"Duration":107611,"SoundDuration":107611,"Delta":15139269},{"NoteNumber":65,"Velocity":33,"Duration":215223,"SoundDuration":215223,"Delta":15139269},{"NoteNumber":82,"Velocity":53,"Duration":107611,"SoundDuration":107611,"Delta":15246881},{"NoteNumber":84,"Velocity":58,"Duration":110955,"SoundDuration":110955,"Delta":15354493},{"NoteNumber":63,"Velocity":35,"Duration":110955,"SoundDuration":110955,"Delta":15354493},{"NoteNumber":53,"Velocity":29,"Duration":110955,"SoundDuration":110955,"Delta":15354493},{"NoteNumber":86,"Velocity":54,"Duration":114068,"SoundDuration":114068,"Delta":15576403},{"NoteNumber":65,"Velocity":34,"Duration":114068,"SoundDuration":114068,"Delta":15576403},{"NoteNumber":82,"Velocity":58,"Duration":443025,"SoundDuration":443025,"Delta":15804540},{"NoteNumber":58,"Velocity":42,"Duration":109681,"SoundDuration":109681,"Delta":15804540},{"NoteNumber":62,"Velocity":42,"Duration":109681,"SoundDuration":109681,"Delta":15804540},{"NoteNumber":57,"Velocity":38,"Duration":111831,"SoundDuration":111831,"Delta":16023902},{"NoteNumber":55,"Velocity":37,"Duration":111831,"SoundDuration":111831,"Delta":16247566},{"NoteNumber":74,"Velocity":57,"Duration":112714,"SoundDuration":112714,"Delta":16471229},{"NoteNumber":53,"Velocity":36,"Duration":112714,"SoundDuration":112714,"Delta":16471229},{"NoteNumber":79,"Velocity":60,"Duration":445567,"SoundDuration":445567,"Delta":16696658},{"NoteNumber":51,"Velocity":42,"Duration":111391,"SoundDuration":111391,"Delta":16696658},{"NoteNumber":55,"Velocity":36,"Duration":111391,"SoundDuration":111391,"Delta":16919441},{"NoteNumber":58,"Velocity":36,"Duration":111391,"SoundDuration":111391,"Delta":16919441},{"NoteNumber":75,"Velocity":60,"Duration":445567,"SoundDuration":445567,"Delta":17142225},{"NoteNumber":48,"Velocity":36,"Duration":111391,"SoundDuration":111391,"Delta":17142225},{"NoteNumber":60,"Velocity":36,"Duration":111391,"SoundDuration":111391,"Delta":17365008},{"NoteNumber":55,"Velocity":36,"Duration":111391,"SoundDuration":111391,"Delta":17365008},{"NoteNumber":72,"Velocity":60,"Duration":438725,"SoundDuration":438725,"Delta":17587792},{"NoteNumber":53,"Velocity":42,"Duration":109681,"SoundDuration":109681,"Delta":17587792},{"NoteNumber":57,"Velocity":35,"Duration":109681,"SoundDuration":109681,"Delta":17807154},{"NoteNumber":60,"Velocity":35,"Duration":109681,"SoundDuration":109681,"Delta":17807154},{"NoteNumber":74,"Velocity":60,"Duration":109681,"SoundDuration":109681,"Delta":18026517},{"NoteNumber":51,"Velocity":36,"Duration":109681,"SoundDuration":109681,"Delta":18026517},{"NoteNumber":75,"Velocity":58,"Duration":109681,"SoundDuration":109681,"Delta":18245879},{"NoteNumber":57,"Velocity":36,"Duration":109681,"SoundDuration":109681,"Delta":18245879},{"NoteNumber":60,"Velocity":36,"Duration":109681,"SoundDuration":109681,"Delta":18245879},{"NoteNumber":77,"Velocity":57,"Duration":108014,"SoundDuration":108014,"Delta":18465242},{"NoteNumber":50,"Velocity":39,"Duration":216029,"SoundDuration":216029,"Delta":18465242},{"NoteNumber":79,"Velocity":53,"Duration":108014,"SoundDuration":108014,"Delta":18573257},{"NoteNumber":77,"Velocity":53,"Duration":108014,"SoundDuration":108014,"Delta":18681271},{"NoteNumber":58,"Velocity":34,"Duration":216029,"SoundDuration":216029,"Delta":18681271},{"NoteNumber":53,"Velocity":29,"Duration":216029,"SoundDuration":216029,"Delta":18681271},{"NoteNumber":75,"Velocity":53,"Duration":108014,"SoundDuration":108014,"Delta":18789286},{"NoteNumber":74,"Velocity":59,"Duration":110099,"SoundDuration":110099,"Delta":18897301},{"NoteNumber":46,"Velocity":34,"Duration":220199,"SoundDuration":220199,"Delta":18897301},{"NoteNumber":75,"Velocity":52,"Duration":110099,"SoundDuration":110099,"Delta":19007401},{"NoteNumber":74,"Velocity":52,"Duration":114068,"SoundDuration":114068,"Delta":19117500},{"NoteNumber":58,"Velocity":34,"Duration":228137,"SoundDuration":228137,"Delta":19117500},{"NoteNumber":53,"Velocity":29,"Duration":228137,"SoundDuration":228137,"Delta":19117500},{"NoteNumber":72,"Velocity":53,"Duration":114068,"SoundDuration":114068,"Delta":19231569},{"NoteNumber":70,"Velocity":60,"Duration":670990,"SoundDuration":670990,"Delta":19345637},{"NoteNumber":51,"Velocity":40,"Duration":223663,"SoundDuration":223663,"Delta":19345637},{"NoteNumber":55,"Velocity":29,"Duration":223663,"SoundDuration":223663,"Delta":19569301},{"NoteNumber":58,"Velocity":34,"Duration":223663,"SoundDuration":223663,"Delta":19569301},{"NoteNumber":50,"Velocity":34,"Duration":223663,"SoundDuration":223663,"Delta":19792964},{"NoteNumber":70,"Velocity":57,"Duration":112714,"SoundDuration":112714,"Delta":20016628},{"NoteNumber":55,"Velocity":29,"Duration":225428,"SoundDuration":225428,"Delta":20016628},{"NoteNumber":58,"Velocity":34,"Duration":225428,"SoundDuration":225428,"Delta":20016628},{"NoteNumber":75,"Velocity":60,"Duration":445567,"SoundDuration":445567,"Delta":20242056},{"NoteNumber":48,"Velocity":42,"Duration":222783,"SoundDuration":222783,"Delta":20242056},{"NoteNumber":51,"Velocity":30,"Duration":222783,"SoundDuration":222783,"Delta":20464840},{"NoteNumber":57,"Velocity":36,"Duration":222783,"SoundDuration":222783,"Delta":20464840},{"NoteNumber":72,"Velocity":60,"Duration":445567,"SoundDuration":445567,"Delta":20687623},{"NoteNumber":45,"Velocity":36,"Duration":222783,"SoundDuration":222783,"Delta":20687623},{"NoteNumber":51,"Velocity":30,"Duration":222783,"SoundDuration":222783,"Delta":20910407},{"NoteNumber":57,"Velocity":36,"Duration":222783,"SoundDuration":222783,"Delta":20910407},{"NoteNumber":69,"Velocity":60,"Duration":450856,"SoundDuration":450856,"Delta":21133190},{"NoteNumber":50,"Velocity":42,"Duration":225428,"SoundDuration":225428,"Delta":21133190},{"NoteNumber":57,"Velocity":35,"Duration":225428,"SoundDuration":225428,"Delta":21358619},{"NoteNumber":54,"Velocity":29,"Duration":225428,"SoundDuration":225428,"Delta":21358619},{"NoteNumber":74,"Velocity":65,"Duration":109681,"SoundDuration":109681,"Delta":21584047},{"NoteNumber":62,"Velocity":54,"Duration":109681,"SoundDuration":109681,"Delta":21584047},{"NoteNumber":42,"Velocity":42,"Duration":109681,"SoundDuration":109681,"Delta":21584047},{"NoteNumber":60,"Velocity":49,"Duration":109681,"SoundDuration":109681,"Delta":21803410},{"NoteNumber":72,"Velocity":58,"Duration":109681,"SoundDuration":109681,"Delta":21803410},{"NoteNumber":50,"Velocity":30,"Duration":109681,"SoundDuration":109681,"Delta":21803410},{"NoteNumber":54,"Velocity":36,"Duration":109681,"SoundDuration":109681,"Delta":21803410},{"NoteNumber":60,"Velocity":55,"Duration":213598,"SoundDuration":213598,"Delta":22022772},{"NoteNumber":72,"Velocity":66,"Duration":213598,"SoundDuration":213598,"Delta":22022772},{"NoteNumber":43,"Velocity":47,"Duration":106799,"SoundDuration":106799,"Delta":22022772},{"NoteNumber":58,"Velocity":51,"Duration":106799,"SoundDuration":106799,"Delta":22236371},{"NoteNumber":70,"Velocity":60,"Duration":106799,"SoundDuration":106799,"Delta":22236371},{"NoteNumber":55,"Velocity":39,"Duration":106799,"SoundDuration":106799,"Delta":22236371},{"NoteNumber":69,"Velocity":67,"Duration":109681,"SoundDuration":109681,"Delta":22449970},{"NoteNumber":57,"Velocity":56,"Duration":109681,"SoundDuration":109681,"Delta":22449970},{"NoteNumber":39,"Velocity":49,"Duration":109681,"SoundDuration":109681,"Delta":22449970},{"NoteNumber":55,"Velocity":52,"Duration":109681,"SoundDuration":109681,"Delta":22669333},{"NoteNumber":67,"Velocity":61,"Duration":109681,"SoundDuration":109681,"Delta":22669333},{"NoteNumber":51,"Velocity":44,"Duration":109681,"SoundDuration":109681,"Delta":22669333},{"NoteNumber":70,"Velocity":73,"Duration":219362,"SoundDuration":219362,"Delta":22888695},{"NoteNumber":58,"Velocity":61,"Duration":219362,"SoundDuration":219362,"Delta":22888695},{"NoteNumber":36,"Velocity":51,"Duration":109681,"SoundDuration":109681,"Delta":22888695},{"NoteNumber":69,"Velocity":66,"Duration":109681,"SoundDuration":109681,"Delta":23108058},{"NoteNumber":57,"Velocity":55,"Duration":109681,"SoundDuration":109681,"Delta":23108058},{"NoteNumber":48,"Velocity":46,"Duration":109681,"SoundDuration":109681,"Delta":23108058},{"NoteNumber":55,"Velocity":59,"Duration":107611,"SoundDuration":107611,"Delta":23327420},{"NoteNumber":67,"Velocity":71,"Duration":107611,"SoundDuration":107611,"Delta":23327420},{"NoteNumber":38,"Velocity":54,"Duration":107611,"SoundDuration":107611,"Delta":23327420},{"NoteNumber":66,"Velocity":66,"Duration":107611,"SoundDuration":107611,"Delta":23542644},{"NoteNumber":54,"Velocity":55,"Duration":107611,"SoundDuration":107611,"Delta":23542644},{"NoteNumber":50,"Velocity":45,"Duration":107611,"SoundDuration":107611,"Delta":23542644},{"NoteNumber":55,"Velocity":60,"Duration":229973,"SoundDuration":229973,"Delta":23757867},{"NoteNumber":67,"Velocity":72,"Duration":229973,"SoundDuration":229973,"Delta":23757867},{"NoteNumber":36,"Velocity":44,"Duration":229973,"SoundDuration":229973,"Delta":23757867},{"NoteNumber":51,"Velocity":52,"Duration":229973,"SoundDuration":229973,"Delta":23757867},{"NoteNumber":74,"Velocity":81,"Duration":679308,"SoundDuration":679308,"Delta":24217813},{"NoteNumber":62,"Velocity":69,"Duration":679308,"SoundDuration":679308,"Delta":24217813},{"NoteNumber":69,"Velocity":69,"Duration":679308,"SoundDuration":679308,"Delta":24217813},{"NoteNumber":50,"Velocity":51,"Duration":1344306,"SoundDuration":1344306,"Delta":24217813},{"NoteNumber":54,"Velocity":60,"Duration":1344306,"SoundDuration":1344306,"Delta":24217813},{"NoteNumber":42,"Velocity":51,"Duration":1344306,"SoundDuration":1344306,"Delta":24217813},{"NoteNumber":63,"Velocity":53,"Duration":112714,"SoundDuration":112714,"Delta":24897122},{"NoteNumber":75,"Velocity":64,"Duration":112714,"SoundDuration":112714,"Delta":24897122},{"NoteNumber":74,"Velocity":68,"Duration":110099,"SoundDuration":110099,"Delta":25122550},{"NoteNumber":62,"Velocity":57,"Duration":110099,"SoundDuration":110099,"Delta":25122550},{"NoteNumber":72,"Velocity":64,"Duration":110099,"SoundDuration":110099,"Delta":25342750},{"NoteNumber":60,"Velocity":53,"Duration":110099,"SoundDuration":110099,"Delta":25342750},{"NoteNumber":60,"Velocity":58,"Duration":215223,"SoundDuration":215223,"Delta":25562120},{"NoteNumber":72,"Velocity":69,"Duration":215223,"SoundDuration":215223,"Delta":25562120},{"NoteNumber":43,"Velocity":50,"Duration":215223,"SoundDuration":215223,"Delta":25562120},{"NoteNumber":70,"Velocity":64,"Duration":107611,"SoundDuration":107611,"Delta":25777344},{"NoteNumber":58,"Velocity":53,"Duration":107611,"SoundDuration":107611,"Delta":25777344},{"NoteNumber":55,"Velocity":45,"Duration":107611,"SoundDuration":107611,"Delta":25777344},{"NoteNumber":57,"Velocity":58,"Duration":109681,"SoundDuration":109681,"Delta":25992567},{"NoteNumber":69,"Velocity":69,"Duration":109681,"SoundDuration":109681,"Delta":25992567},{"NoteNumber":39,"Velocity":45,"Duration":219362,"SoundDuration":219362,"Delta":25992567},{"NoteNumber":55,"Velocity":53,"Duration":115919,"SoundDuration":115919,"Delta":26211930},{"NoteNumber":67,"Velocity":64,"Duration":115919,"SoundDuration":115919,"Delta":26211930},{"NoteNumber":51,"Velocity":45,"Duration":231839,"SoundDuration":231839,"Delta":26211930},{"NoteNumber":68,"Velocity":72,"Duration":447327,"SoundDuration":447327,"Delta":26443769},{"NoteNumber":56,"Velocity":60,"Duration":447327,"SoundDuration":447327,"Delta":26443769},{"NoteNumber":36,"Velocity":50,"Duration":223663,"SoundDuration":223663,"Delta":26443769},{"NoteNumber":48,"Velocity":45,"Duration":223663,"SoundDuration":223663,"Delta":26667433},{"NoteNumber":54,"Velocity":55,"Duration":464863,"SoundDuration":464863,"Delta":26891096},{"NoteNumber":66,"Velocity":66,"Duration":464863,"SoundDuration":464863,"Delta":26891096},{"NoteNumber":38,"Velocity":45,"Duration":227221,"SoundDuration":227221,"Delta":26891096},{"NoteNumber":50,"Velocity":45,"Duration":237642,"SoundDuration":237642,"Delta":27118317},{"NoteNumber":55,"Velocity":59,"Duration":237642,"SoundDuration":237642,"Delta":27355960},{"NoteNumber":67,"Velocity":71,"Duration":237642,"SoundDuration":237642,"Delta":27355960},{"NoteNumber":43,"Velocity":50,"Duration":237642,"SoundDuration":237642,"Delta":27355960},{"NoteNumber":31,"Velocity":42,"Duration":237642,"SoundDuration":237642,"Delta":27355960},{"NoteNumber":55,"Velocity":78,"Duration":1323124,"SoundDuration":1323124,"Delta":27831245},{"NoteNumber":67,"Velocity":94,"Duration":1323124,"SoundDuration":1323124,"Delta":27831245},{"NoteNumber":74,"Velocity":52,"Duration":113156,"SoundDuration":113156,"Delta":28928057},{"NoteNumber":72,"Velocity":63,"Duration":216029,"SoundDuration":216029,"Delta":29154370},{"NoteNumber":55,"Velocity":42,"Duration":216029,"SoundDuration":216029,"Delta":29154370},{"NoteNumber":71,"Velocity":37,"Duration":108014,"SoundDuration":108014,"Delta":29370399},{"NoteNumber":67,"Velocity":31,"Duration":108014,"SoundDuration":108014,"Delta":29370399},{"NoteNumber":71,"Velocity":43,"Duration":109681,"SoundDuration":109681,"Delta":29586429},{"NoteNumber":65,"Velocity":31,"Duration":109681,"SoundDuration":109681,"Delta":29586429},{"NoteNumber":62,"Velocity":26,"Duration":109681,"SoundDuration":109681,"Delta":29586429},{"NoteNumber":71,"Velocity":37,"Duration":111391,"SoundDuration":111391,"Delta":29805791},{"NoteNumber":67,"Velocity":32,"Duration":111391,"SoundDuration":111391,"Delta":29805791},{"NoteNumber":71,"Velocity":55,"Duration":105619,"SoundDuration":105619,"Delta":30028575},{"NoteNumber":55,"Velocity":44,"Duration":220605,"SoundDuration":220605,"Delta":30028575},{"NoteNumber":72,"Velocity":49,"Duration":114986,"SoundDuration":114986,"Delta":30134194},{"NoteNumber":79,"Velocity":59,"Duration":215223,"SoundDuration":215223,"Delta":30249180},{"NoteNumber":67,"Velocity":31,"Duration":215223,"SoundDuration":215223,"Delta":30249180},{"NoteNumber":77,"Velocity":50,"Duration":108428,"SoundDuration":108428,"Delta":30464404},{"NoteNumber":63,"Velocity":35,"Duration":216857,"SoundDuration":216857,"Delta":30464404},{"NoteNumber":60,"Velocity":29,"Duration":216857,"SoundDuration":216857,"Delta":30464404},{"NoteNumber":75,"Velocity":45,"Duration":108428,"SoundDuration":108428,"Delta":30572832},{"NoteNumber":74,"Velocity":45,"Duration":112266,"SoundDuration":112266,"Delta":30681261},{"NoteNumber":67,"Velocity":32,"Duration":224533,"SoundDuration":224533,"Delta":30681261},{"NoteNumber":72,"Velocity":45,"Duration":112266,"SoundDuration":112266,"Delta":30793528},{"NoteNumber":72,"Velocity":63,"Duration":216029,"SoundDuration":216029,"Delta":30905795},{"NoteNumber":55,"Velocity":42,"Duration":216029,"SoundDuration":216029,"Delta":30905795},{"NoteNumber":71,"Velocity":37,"Duration":108014,"SoundDuration":108014,"Delta":31121824},{"NoteNumber":67,"Velocity":31,"Duration":108014,"SoundDuration":108014,"Delta":31121824},{"NoteNumber":71,"Velocity":44,"Duration":109257,"SoundDuration":109257,"Delta":31337854},{"NoteNumber":65,"Velocity":31,"Duration":109257,"SoundDuration":109257,"Delta":31337854},{"NoteNumber":62,"Velocity":26,"Duration":109257,"SoundDuration":109257,"Delta":31337854},{"NoteNumber":71,"Velocity":37,"Duration":112266,"SoundDuration":112266,"Delta":31556369},{"NoteNumber":67,"Velocity":29,"Duration":112266,"SoundDuration":112266,"Delta":31556369},{"NoteNumber":71,"Velocity":57,"Duration":219362,"SoundDuration":219362,"Delta":31780903},{"NoteNumber":55,"Velocity":44,"Duration":219362,"SoundDuration":219362,"Delta":31780903},{"NoteNumber":72,"Velocity":47,"Duration":109681,"SoundDuration":109681,"Delta":32000266},{"NoteNumber":67,"Velocity":32,"Duration":109681,"SoundDuration":109681,"Delta":32000266},{"NoteNumber":54,"Velocity":29,"Duration":109681,"SoundDuration":109681,"Delta":32219628},{"NoteNumber":63,"Velocity":35,"Duration":109681,"SoundDuration":109681,"Delta":32219628},{"NoteNumber":60,"Velocity":29,"Duration":109681,"SoundDuration":109681,"Delta":32219628},{"NoteNumber":75,"Velocity":54,"Duration":223663,"SoundDuration":223663,"Delta":32438991},{"NoteNumber":66,"Velocity":35,"Duration":223663,"SoundDuration":223663,"Delta":32438991},{"NoteNumber":72,"Velocity":63,"Duration":215223,"SoundDuration":215223,"Delta":32662654},{"NoteNumber":53,"Velocity":42,"Duration":215223,"SoundDuration":215223,"Delta":32662654},{"NoteNumber":70,"Velocity":52,"Duration":107611,"SoundDuration":107611,"Delta":32877878},{"NoteNumber":65,"Velocity":35,"Duration":107611,"SoundDuration":107611,"Delta":32877878},{"NoteNumber":70,"Velocity":54,"Duration":109681,"SoundDuration":109681,"Delta":33093101},{"NoteNumber":62,"Velocity":35,"Duration":109681,"SoundDuration":109681,"Delta":33093101},{"NoteNumber":70,"Velocity":54,"Duration":109681,"SoundDuration":109681,"Delta":33312464},{"NoteNumber":65,"Velocity":36,"Duration":109681,"SoundDuration":109681,"Delta":33312464},{"NoteNumber":72,"Velocity":63,"Duration":216029,"SoundDuration":216029,"Delta":33531826},{"NoteNumber":55,"Velocity":42,"Duration":216029,"SoundDuration":216029,"Delta":33531826},{"NoteNumber":70,"Velocity":53,"Duration":108014,"SoundDuration":108014,"Delta":33747856},{"NoteNumber":64,"Velocity":36,"Duration":108014,"SoundDuration":108014,"Delta":33747856},{"NoteNumber":70,"Velocity":55,"Duration":109681,"SoundDuration":109681,"Delta":33963885},{"NoteNumber":60,"Velocity":36,"Duration":109681,"SoundDuration":109681,"Delta":33963885},{"NoteNumber":70,"Velocity":55,"Duration":109681,"SoundDuration":109681,"Delta":34183248},{"NoteNumber":64,"Velocity":36,"Duration":109681,"SoundDuration":109681,"Delta":34183248},{"NoteNumber":72,"Velocity":63,"Duration":107611,"SoundDuration":107611,"Delta":34402610},{"NoteNumber":62,"Velocity":42,"Duration":215223,"SoundDuration":215223,"Delta":34402610},{"NoteNumber":53,"Velocity":35,"Duration":215223,"SoundDuration":215223,"Delta":34402610},{"NoteNumber":70,"Velocity":52,"Duration":107611,"SoundDuration":107611,"Delta":34510222},{"NoteNumber":69,"Velocity":53,"Duration":107611,"SoundDuration":107611,"Delta":34617834},{"NoteNumber":65,"Velocity":33,"Duration":215223,"SoundDuration":215223,"Delta":34617834},{"NoteNumber":70,"Velocity":53,"Duration":107611,"SoundDuration":107611,"Delta":34725445},{"NoteNumber":72,"Velocity":58,"Duration":110954,"SoundDuration":110954,"Delta":34833057},{"NoteNumber":63,"Velocity":35,"Duration":110954,"SoundDuration":110954,"Delta":34833057},{"NoteNumber":53,"Velocity":29,"Duration":110954,"SoundDuration":110954,"Delta":34833057},{"NoteNumber":74,"Velocity":54,"Duration":114068,"SoundDuration":114068,"Delta":35054967},{"NoteNumber":65,"Velocity":34,"Duration":114068,"SoundDuration":114068,"Delta":35054967},{"NoteNumber":70,"Velocity":58,"Duration":443233,"SoundDuration":443233,"Delta":35283104},{"NoteNumber":58,"Velocity":42,"Duration":109888,"SoundDuration":109888,"Delta":35283104},{"NoteNumber":62,"Velocity":42,"Duration":109888,"SoundDuration":109888,"Delta":35283104},{"NoteNumber":57,"Velocity":38,"Duration":111831,"SoundDuration":111831,"Delta":35502674},{"NoteNumber":55,"Velocity":37,"Duration":111831,"SoundDuration":111831,"Delta":35726337},{"NoteNumber":74,"Velocity":57,"Duration":112714,"SoundDuration":112714,"Delta":35950001},{"NoteNumber":53,"Velocity":36,"Duration":112714,"SoundDuration":112714,"Delta":35950001},{"NoteNumber":79,"Velocity":60,"Duration":445566,"SoundDuration":445566,"Delta":36175429},{"NoteNumber":51,"Velocity":42,"Duration":111391,"SoundDuration":111391,"Delta":36175429},{"NoteNumber":58,"Velocity":36,"Duration":111391,"SoundDuration":111391,"Delta":36398213},{"NoteNumber":55,"Velocity":36,"Duration":111391,"SoundDuration":111391,"Delta":36398213},{"NoteNumber":75,"Velocity":60,"Duration":445567,"SoundDuration":445567,"Delta":36620996},{"NoteNumber":48,"Velocity":36,"Duration":111391,"SoundDuration":111391,"Delta":36620996},{"NoteNumber":55,"Velocity":36,"Duration":111391,"SoundDuration":111391,"Delta":36843780},{"NoteNumber":60,"Velocity":36,"Duration":111391,"SoundDuration":111391,"Delta":36843780},{"NoteNumber":72,"Velocity":60,"Duration":438724,"SoundDuration":438724,"Delta":37066563},{"NoteNumber":53,"Velocity":42,"Duration":109681,"SoundDuration":109681,"Delta":37066563},{"NoteNumber":60,"Velocity":35,"Duration":109681,"SoundDuration":109681,"Delta":37285926},{"NoteNumber":57,"Velocity":35,"Duration":109681,"SoundDuration":109681,"Delta":37285926},{"NoteNumber":74,"Velocity":60,"Duration":109681,"SoundDuration":109681,"Delta":37505288},{"NoteNumber":51,"Velocity":36,"Duration":109681,"SoundDuration":109681,"Delta":37505288},{"NoteNumber":75,"Velocity":58,"Duration":109681,"SoundDuration":109681,"Delta":37724651},{"NoteNumber":57,"Velocity":36,"Duration":109681,"SoundDuration":109681,"Delta":37724651},{"NoteNumber":60,"Velocity":36,"Duration":109681,"SoundDuration":109681,"Delta":37724651},{"NoteNumber":77,"Velocity":57,"Duration":108014,"SoundDuration":108014,"Delta":37944013},{"NoteNumber":50,"Velocity":39,"Duration":216029,"SoundDuration":216029,"Delta":37944013},{"NoteNumber":79,"Velocity":53,"Duration":108014,"SoundDuration":108014,"Delta":38052028},{"NoteNumber":77,"Velocity":53,"Duration":108014,"SoundDuration":108014,"Delta":38160043},{"NoteNumber":58,"Velocity":34,"Duration":216029,"SoundDuration":216029,"Delta":38160043},{"NoteNumber":53,"Velocity":29,"Duration":216029,"SoundDuration":216029,"Delta":38160043},{"NoteNumber":75,"Velocity":53,"Duration":108014,"SoundDuration":108014,"Delta":38268057},{"NoteNumber":74,"Velocity":59,"Duration":110099,"SoundDuration":110099,"Delta":38376072},{"NoteNumber":46,"Velocity":34,"Duration":220199,"SoundDuration":220199,"Delta":38376072},{"NoteNumber":75,"Velocity":52,"Duration":110099,"SoundDuration":110099,"Delta":38486172},{"NoteNumber":74,"Velocity":52,"Duration":114068,"SoundDuration":114068,"Delta":38596272},{"NoteNumber":53,"Velocity":29,"Duration":228136,"SoundDuration":228136,"Delta":38596272},{"NoteNumber":58,"Velocity":34,"Duration":228136,"SoundDuration":228136,"Delta":38596272},{"NoteNumber":72,"Velocity":53,"Duration":114068,"SoundDuration":114068,"Delta":38710340},{"NoteNumber":70,"Velocity":60,"Duration":678220,"SoundDuration":678220,"Delta":38824409},{"NoteNumber":51,"Velocity":40,"Duration":223663,"SoundDuration":223663,"Delta":38824409},{"NoteNumber":58,"Velocity":34,"Duration":223663,"SoundDuration":223663,"Delta":39048072},{"NoteNumber":55,"Velocity":29,"Duration":223663,"SoundDuration":223663,"Delta":39048072},{"NoteNumber":50,"Velocity":34,"Duration":230893,"SoundDuration":230893,"Delta":39271736},{"NoteNumber":70,"Velocity":46,"Duration":114068,"SoundDuration":114068,"Delta":39502629},{"NoteNumber":58,"Velocity":29,"Duration":228136,"SoundDuration":228136,"Delta":39502629},{"NoteNumber":55,"Velocity":29,"Duration":228136,"SoundDuration":228136,"Delta":39502629},{"NoteNumber":75,"Velocity":48,"Duration":445566,"SoundDuration":445566,"Delta":39730766},{"NoteNumber":48,"Velocity":33,"Duration":222783,"SoundDuration":222783,"Delta":39730766},{"NoteNumber":60,"Velocity":29,"Duration":222783,"SoundDuration":222783,"Delta":39953550},{"NoteNumber":56,"Velocity":29,"Duration":222783,"SoundDuration":222783,"Delta":39953550},{"NoteNumber":72,"Velocity":48,"Duration":445567,"SoundDuration":445567,"Delta":40176333},{"NoteNumber":51,"Velocity":29,"Duration":222783,"SoundDuration":222783,"Delta":40176333},{"NoteNumber":60,"Velocity":29,"Duration":222783,"SoundDuration":222783,"Delta":40399117},{"NoteNumber":56,"Velocity":29,"Duration":222783,"SoundDuration":222783,"Delta":40399117},{"NoteNumber":68,"Velocity":48,"Duration":438724,"SoundDuration":438724,"Delta":40621900},{"NoteNumber":48,"Velocity":33,"Duration":219362,"SoundDuration":219362,"Delta":40621900},{"NoteNumber":60,"Velocity":28,"Duration":219362,"SoundDuration":219362,"Delta":40841263},{"NoteNumber":56,"Velocity":28,"Duration":219362,"SoundDuration":219362,"Delta":40841263},{"NoteNumber":70,"Velocity":48,"Duration":219362,"SoundDuration":219362,"Delta":41060625},{"NoteNumber":51,"Velocity":29,"Duration":219362,"SoundDuration":219362,"Delta":41060625},{"NoteNumber":72,"Velocity":46,"Duration":219362,"SoundDuration":219362,"Delta":41279988},{"NoteNumber":56,"Velocity":29,"Duration":219362,"SoundDuration":219362,"Delta":41279988},{"NoteNumber":60,"Velocity":29,"Duration":219362,"SoundDuration":219362,"Delta":41279988},{"NoteNumber":75,"Velocity":48,"Duration":445566,"SoundDuration":445566,"Delta":41499350},{"NoteNumber":49,"Velocity":33,"Duration":222783,"SoundDuration":222783,"Delta":41499350},{"NoteNumber":55,"Velocity":29,"Duration":222783,"SoundDuration":222783,"Delta":41722134},{"NoteNumber":58,"Velocity":29,"Duration":222783,"SoundDuration":222783,"Delta":41722134},{"NoteNumber":73,"Velocity":48,"Duration":222783,"SoundDuration":222783,"Delta":41944917},{"NoteNumber":51,"Velocity":29,"Duration":222783,"SoundDuration":222783,"Delta":41944917},{"NoteNumber":72,"Velocity":48,"Duration":222783,"SoundDuration":222783,"Delta":42167701},{"NoteNumber":58,"Velocity":29,"Duration":222783,"SoundDuration":222783,"Delta":42167701},{"NoteNumber":55,"Velocity":29,"Duration":222783,"SoundDuration":222783,"Delta":42167701},{"NoteNumber":70,"Velocity":48,"Duration":438724,"SoundDuration":438724,"Delta":42390484},{"NoteNumber":49,"Velocity":33,"Duration":219362,"SoundDuration":219362,"Delta":42390484},{"NoteNumber":58,"Velocity":28,"Duration":219362,"SoundDuration":219362,"Delta":42609847},{"NoteNumber":55,"Velocity":28,"Duration":219362,"SoundDuration":219362,"Delta":42609847},{"NoteNumber":72,"Velocity":48,"Duration":109681,"SoundDuration":109681,"Delta":42829209},{"NoteNumber":51,"Velocity":29,"Duration":109681,"SoundDuration":109681,"Delta":42829209},{"NoteNumber":73,"Velocity":46,"Duration":109681,"SoundDuration":109681,"Delta":43048572},{"NoteNumber":55,"Velocity":29,"Duration":109681,"SoundDuration":109681,"Delta":43048572},{"NoteNumber":58,"Velocity":29,"Duration":109681,"SoundDuration":109681,"Delta":43048572},{"NoteNumber":75,"Velocity":46,"Duration":109681,"SoundDuration":109681,"Delta":43267934},{"NoteNumber":48,"Velocity":31,"Duration":109681,"SoundDuration":109681,"Delta":43267934},{"NoteNumber":77,"Velocity":42,"Duration":109681,"SoundDuration":109681,"Delta":43377615},{"NoteNumber":75,"Velocity":42,"Duration":109681,"SoundDuration":109681,"Delta":43487297},{"NoteNumber":60,"Velocity":27,"Duration":109681,"SoundDuration":109681,"Delta":43487297},{"NoteNumber":56,"Velocity":23,"Duration":109681,"SoundDuration":109681,"Delta":43487297},{"NoteNumber":73,"Velocity":42,"Duration":109681,"SoundDuration":109681,"Delta":43596978},{"NoteNumber":72,"Velocity":47,"Duration":110099,"SoundDuration":110099,"Delta":43706659},{"NoteNumber":51,"Velocity":27,"Duration":110099,"SoundDuration":110099,"Delta":43706659},{"NoteNumber":73,"Velocity":42,"Duration":110099,"SoundDuration":110099,"Delta":43816759},{"NoteNumber":72,"Velocity":42,"Duration":112267,"SoundDuration":112267,"Delta":43926859},{"NoteNumber":60,"Velocity":27,"Duration":112267,"SoundDuration":112267,"Delta":43926859},{"NoteNumber":56,"Velocity":23,"Duration":112267,"SoundDuration":112267,"Delta":43926859},{"NoteNumber":70,"Velocity":42,"Duration":112266,"SoundDuration":112266,"Delta":44039126},{"NoteNumber":68,"Velocity":48,"Duration":450884,"SoundDuration":450884,"Delta":44151393},{"NoteNumber":48,"Velocity":32,"Duration":111831,"SoundDuration":111831,"Delta":44151393},{"NoteNumber":56,"Velocity":23,"Duration":113610,"SoundDuration":113610,"Delta":44375056},{"NoteNumber":60,"Velocity":27,"Duration":113610,"SoundDuration":113610,"Delta":44375056},{"NoteNumber":70,"Velocity":48,"Duration":111831,"SoundDuration":111831,"Delta":44602277},{"NoteNumber":51,"Velocity":32,"Duration":111831,"SoundDuration":111831,"Delta":44602277},{"NoteNumber":72,"Velocity":44,"Duration":111831,"SoundDuration":111831,"Delta":44825941},{"NoteNumber":56,"Velocity":23,"Duration":111831,"SoundDuration":111831,"Delta":44825941},{"NoteNumber":60,"Velocity":27,"Duration":111831,"SoundDuration":111831,"Delta":44825941},{"NoteNumber":75,"Velocity":48,"Duration":223663,"SoundDuration":223663,"Delta":45049604},{"NoteNumber":49,"Velocity":32,"Duration":223663,"SoundDuration":223663,"Delta":45049604},{"NoteNumber":73,"Velocity":48,"Duration":111831,"SoundDuration":111831,"Delta":45273268},{"NoteNumber":55,"Velocity":29,"Duration":111831,"SoundDuration":111831,"Delta":45273268},{"NoteNumber":58,"Velocity":29,"Duration":111831,"SoundDuration":111831,"Delta":45273268},{"NoteNumber":73,"Velocity":48,"Duration":109257,"SoundDuration":109257,"Delta":45496931},{"NoteNumber":51,"Velocity":32,"Duration":218515,"SoundDuration":218515,"Delta":45496931},{"NoteNumber":75,"Velocity":44,"Duration":109257,"SoundDuration":109257,"Delta":45606189},{"NoteNumber":73,"Velocity":44,"Duration":109257,"SoundDuration":109257,"Delta":45715447},{"NoteNumber":58,"Velocity":29,"Duration":218515,"SoundDuration":218515,"Delta":45715447},{"NoteNumber":55,"Velocity":29,"Duration":218515,"SoundDuration":218515,"Delta":45715447},{"NoteNumber":72,"Velocity":44,"Duration":109257,"SoundDuration":109257,"Delta":45824704},{"NoteNumber":70,"Velocity":48,"Duration":218515,"SoundDuration":218515,"Delta":45933962},{"NoteNumber":49,"Velocity":34,"Duration":218515,"SoundDuration":218515,"Delta":45933962},{"NoteNumber":75,"Velocity":49,"Duration":111831,"SoundDuration":111831,"Delta":46152478},{"NoteNumber":58,"Velocity":29,"Duration":111831,"SoundDuration":111831,"Delta":46152478},{"NoteNumber":55,"Velocity":29,"Duration":111831,"SoundDuration":111831,"Delta":46152478},{"NoteNumber":77,"Velocity":53,"Duration":111831,"SoundDuration":111831,"Delta":46376141},{"NoteNumber":51,"Velocity":31,"Duration":111831,"SoundDuration":111831,"Delta":46376141},{"NoteNumber":79,"Velocity":56,"Duration":111831,"SoundDuration":111831,"Delta":46599805},{"NoteNumber":58,"Velocity":34,"Duration":111831,"SoundDuration":111831,"Delta":46599805},{"NoteNumber":55,"Velocity":34,"Duration":111831,"SoundDuration":111831,"Delta":46599805},{"NoteNumber":80,"Velocity":59,"Duration":884357,"SoundDuration":884357,"Delta":46823468},{"NoteNumber":68,"Velocity":50,"Duration":884357,"SoundDuration":884357,"Delta":46823468},{"NoteNumber":48,"Velocity":37,"Duration":218515,"SoundDuration":218515,"Delta":46823468},{"NoteNumber":56,"Velocity":27,"Duration":218515,"SoundDuration":218515,"Delta":47041984},{"NoteNumber":60,"Velocity":32,"Duration":218515,"SoundDuration":218515,"Delta":47041984},{"NoteNumber":51,"Velocity":32,"Duration":223663,"SoundDuration":223663,"Delta":47260499},{"NoteNumber":56,"Velocity":27,"Duration":223663,"SoundDuration":223663,"Delta":47484163},{"NoteNumber":60,"Velocity":32,"Duration":223663,"SoundDuration":223663,"Delta":47484163},{"NoteNumber":84,"Velocity":60,"Duration":663539,"SoundDuration":663539,"Delta":47707826},{"NoteNumber":72,"Velocity":51,"Duration":663539,"SoundDuration":663539,"Delta":47707826},{"NoteNumber":48,"Velocity":37,"Duration":218515,"SoundDuration":218515,"Delta":47707826},{"NoteNumber":60,"Velocity":32,"Duration":221360,"SoundDuration":221360,"Delta":47926342},{"NoteNumber":56,"Velocity":27,"Duration":221360,"SoundDuration":221360,"Delta":47926342},{"NoteNumber":51,"Velocity":32,"Duration":223663,"SoundDuration":223663,"Delta":48147702},{"NoteNumber":80,"Velocity":55,"Duration":223663,"SoundDuration":223663,"Delta":48371366},{"NoteNumber":68,"Velocity":47,"Duration":223663,"SoundDuration":223663,"Delta":48371366},{"NoteNumber":60,"Velocity":32,"Duration":223663,"SoundDuration":223663,"Delta":48371366},{"NoteNumber":56,"Velocity":27,"Duration":223663,"SoundDuration":223663,"Delta":48371366},{"NoteNumber":80,"Velocity":59,"Duration":442285,"SoundDuration":442285,"Delta":48595029},{"NoteNumber":68,"Velocity":50,"Duration":442285,"SoundDuration":442285,"Delta":48595029},{"NoteNumber":49,"Velocity":37,"Duration":222643,"SoundDuration":222643,"Delta":48595029},{"NoteNumber":58,"Velocity":32,"Duration":219642,"SoundDuration":219642,"Delta":48817673},{"NoteNumber":55,"Velocity":27,"Duration":219642,"SoundDuration":219642,"Delta":48817673},{"NoteNumber":67,"Velocity":47,"Duration":889230,"SoundDuration":889230,"Delta":49037315},{"NoteNumber":79,"Velocity":55,"Duration":889230,"SoundDuration":889230,"Delta":49037315},{"NoteNumber":52,"Velocity":32,"Duration":219078,"SoundDuration":219078,"Delta":49037315},{"NoteNumber":55,"Velocity":27,"Duration":221056,"SoundDuration":221056,"Delta":49256394},{"NoteNumber":58,"Velocity":32,"Duration":221056,"SoundDuration":221056,"Delta":49256394},{"NoteNumber":49,"Velocity":37,"Duration":222783,"SoundDuration":222783,"Delta":49477450},{"NoteNumber":58,"Velocity":32,"Duration":226312,"SoundDuration":226312,"Delta":49700234},{"NoteNumber":55,"Velocity":27,"Duration":226312,"SoundDuration":226312,"Delta":49700234},{"NoteNumber":67,"Velocity":48,"Duration":443820,"SoundDuration":443820,"Delta":49926546},{"NoteNumber":79,"Velocity":57,"Duration":443820,"SoundDuration":443820,"Delta":49926546},{"NoteNumber":52,"Velocity":36,"Duration":221910,"SoundDuration":221910,"Delta":49926546},{"NoteNumber":58,"Velocity":39,"Duration":221910,"SoundDuration":221910,"Delta":50148456},{"NoteNumber":55,"Velocity":32,"Duration":221910,"SoundDuration":221910,"Delta":50148456},{"NoteNumber":67,"Velocity":52,"Duration":437030,"SoundDuration":437030,"Delta":50370366},{"NoteNumber":79,"Velocity":63,"Duration":437030,"SoundDuration":437030,"Delta":50370366},{"NoteNumber":50,"Velocity":44,"Duration":218515,"SoundDuration":218515,"Delta":50370366},{"NoteNumber":58,"Velocity":31,"Duration":218515,"SoundDuration":218515,"Delta":50588882},{"NoteNumber":62,"Velocity":38,"Duration":218515,"SoundDuration":218515,"Delta":50588882},{"NoteNumber":77,"Velocity":58,"Duration":443820,"SoundDuration":443820,"Delta":50807397},{"NoteNumber":65,"Velocity":49,"Duration":443820,"SoundDuration":443820,"Delta":50807397},{"NoteNumber":53,"Velocity":38,"Duration":221910,"SoundDuration":221910,"Delta":50807397},{"NoteNumber":58,"Velocity":31,"Duration":221910,"SoundDuration":221910,"Delta":51029307},{"NoteNumber":62,"Velocity":38,"Duration":221910,"SoundDuration":221910,"Delta":51029307},{"NoteNumber":70,"Velocity":57,"Duration":667483,"SoundDuration":667483,"Delta":51251217},{"NoteNumber":82,"Velocity":67,"Duration":667483,"SoundDuration":667483,"Delta":51251217},{"NoteNumber":50,"Velocity":48,"Duration":221910,"SoundDuration":221910,"Delta":51251217},{"NoteNumber":62,"Velocity":37,"Duration":221909,"SoundDuration":221909,"Delta":51473127},{"NoteNumber":58,"Velocity":31,"Duration":221909,"SoundDuration":221909,"Delta":51473127},{"NoteNumber":53,"Velocity":37,"Duration":223663,"SoundDuration":223663,"Delta":51695037},{"NoteNumber":81,"Velocity":61,"Duration":223663,"SoundDuration":223663,"Delta":51918701},{"NoteNumber":69,"Velocity":51,"Duration":223663,"SoundDuration":223663,"Delta":51918701},{"NoteNumber":62,"Velocity":37,"Duration":223663,"SoundDuration":223663,"Delta":51918701},{"NoteNumber":58,"Velocity":31,"Duration":223663,"SoundDuration":223663,"Delta":51918701},{"NoteNumber":69,"Velocity":51,"Duration":218515,"SoundDuration":218515,"Delta":52142364},{"NoteNumber":81,"Velocity":61,"Duration":218515,"SoundDuration":218515,"Delta":52142364},{"NoteNumber":51,"Velocity":50,"Duration":218515,"SoundDuration":218515,"Delta":52142364},{"NoteNumber":79,"Velocity":54,"Duration":218515,"SoundDuration":218515,"Delta":52360880},{"NoteNumber":67,"Velocity":46,"Duration":218515,"SoundDuration":218515,"Delta":52360880},{"NoteNumber":60,"Velocity":34,"Duration":218515,"SoundDuration":218515,"Delta":52360880},{"NoteNumber":63,"Velocity":40,"Duration":218515,"SoundDuration":218515,"Delta":52360880},{"NoteNumber":75,"Velocity":59,"Duration":447327,"SoundDuration":447327,"Delta":52579395},{"NoteNumber":87,"Velocity":71,"Duration":447327,"SoundDuration":447327,"Delta":52579395},{"NoteNumber":55,"Velocity":37,"Duration":223663,"SoundDuration":223663,"Delta":52579395},{"NoteNumber":60,"Velocity":31,"Duration":223663,"SoundDuration":223663,"Delta":52803059},{"NoteNumber":63,"Velocity":37,"Duration":223663,"SoundDuration":223663,"Delta":52803059},{"NoteNumber":86,"Velocity":63,"Duration":447327,"SoundDuration":447327,"Delta":53026722},{"NoteNumber":74,"Velocity":52,"Duration":447327,"SoundDuration":447327,"Delta":53026722},{"NoteNumber":53,"Velocity":44,"Duration":223663,"SoundDuration":223663,"Delta":53026722},{"NoteNumber":62,"Velocity":34,"Duration":223663,"SoundDuration":223663,"Delta":53250386},{"NoteNumber":58,"Velocity":28,"Duration":223663,"SoundDuration":223663,"Delta":53250386},{"NoteNumber":72,"Velocity":45,"Duration":447326,"SoundDuration":447326,"Delta":53474049},{"NoteNumber":84,"Velocity":53,"Duration":447326,"SoundDuration":447326,"Delta":53474049},{"NoteNumber":53,"Velocity":34,"Duration":223663,"SoundDuration":223663,"Delta":53474049},{"NoteNumber":57,"Velocity":28,"Duration":223663,"SoundDuration":223663,"Delta":53697713},{"NoteNumber":60,"Velocity":34,"Duration":223663,"SoundDuration":223663,"Delta":53697713},{"NoteNumber":82,"Velocity":53,"Duration":223663,"SoundDuration":223663,"Delta":53921376},{"NoteNumber":70,"Velocity":44,"Duration":223663,"SoundDuration":223663,"Delta":53921376},{"NoteNumber":46,"Velocity":38,"Duration":223663,"SoundDuration":223663,"Delta":53921376},{"NoteNumber":62,"Velocity":30,"Duration":223663,"SoundDuration":223663,"Delta":54145040},{"NoteNumber":58,"Velocity":25,"Duration":223663,"SoundDuration":223663,"Delta":54145040},{"NoteNumber":74,"Velocity":46,"Duration":109257,"SoundDuration":109257,"Delta":54368703},{"NoteNumber":50,"Velocity":30,"Duration":218515,"SoundDuration":218515,"Delta":54368703},{"NoteNumber":74,"Velocity":48,"Duration":109257,"SoundDuration":109257,"Delta":54514380},{"NoteNumber":58,"Velocity":25,"Duration":218515,"SoundDuration":218515,"Delta":54587219},{"NoteNumber":62,"Velocity":30,"Duration":218515,"SoundDuration":218515,"Delta":54587219},{"NoteNumber":74,"Velocity":50,"Duration":109257,"SoundDuration":109257,"Delta":54660057},{"NoteNumber":74,"Velocity":51,"Duration":109257,"SoundDuration":109257,"Delta":54805734},{"NoteNumber":53,"Velocity":36,"Duration":218515,"SoundDuration":218515,"Delta":54805734},{"NoteNumber":74,"Velocity":49,"Duration":109257,"SoundDuration":109257,"Delta":54951411},{"NoteNumber":62,"Velocity":30,"Duration":218515,"SoundDuration":218515,"Delta":55024250},{"NoteNumber":58,"Velocity":25,"Duration":218515,"SoundDuration":218515,"Delta":55024250},{"NoteNumber":74,"Velocity":47,"Duration":109257,"SoundDuration":109257,"Delta":55097088},{"NoteNumber":74,"Velocity":51,"Duration":112267,"SoundDuration":112267,"Delta":55242765},{"NoteNumber":54,"Velocity":30,"Duration":224533,"SoundDuration":224533,"Delta":55242765},{"NoteNumber":72,"Velocity":46,"Duration":112266,"SoundDuration":112266,"Delta":55355032},{"NoteNumber":74,"Velocity":47,"Duration":112267,"SoundDuration":112267,"Delta":55467299},{"NoteNumber":60,"Velocity":26,"Duration":224533,"SoundDuration":224533,"Delta":55467299},{"NoteNumber":62,"Velocity":31,"Duration":224533,"SoundDuration":224533,"Delta":55467299},{"NoteNumber":75,"Velocity":47,"Duration":112266,"SoundDuration":112266,"Delta":55579566},{"NoteNumber":74,"Velocity":53,"Duration":238625,"SoundDuration":238625,"Delta":55691833},{"NoteNumber":62,"Velocity":34,"Duration":238625,"SoundDuration":238625,"Delta":55691833},{"NoteNumber":55,"Velocity":29,"Duration":238625,"SoundDuration":238625,"Delta":55691833},{"NoteNumber":59,"Velocity":29,"Duration":238625,"SoundDuration":238625,"Delta":55691833},{"NoteNumber":55,"Velocity":78,"Duration":1323124,"SoundDuration":1323124,"Delta":56169084},{"NoteNumber":67,"Velocity":94,"Duration":1323124,"SoundDuration":1323124,"Delta":56169084},{"NoteNumber":86,"Velocity":52,"Duration":113156,"SoundDuration":113156,"Delta":57265897},{"NoteNumber":84,"Velocity":63,"Duration":216029,"SoundDuration":216029,"Delta":57492209},{"NoteNumber":55,"Velocity":42,"Duration":216029,"SoundDuration":216029,"Delta":57492209},{"NoteNumber":83,"Velocity":37,"Duration":108014,"SoundDuration":108014,"Delta":57708239},{"NoteNumber":67,"Velocity":31,"Duration":108014,"SoundDuration":108014,"Delta":57708239},{"NoteNumber":83,"Velocity":43,"Duration":109681,"SoundDuration":109681,"Delta":57924268},{"NoteNumber":65,"Velocity":31,"Duration":109681,"SoundDuration":109681,"Delta":57924268},{"NoteNumber":62,"Velocity":26,"Duration":109681,"SoundDuration":109681,"Delta":57924268},{"NoteNumber":83,"Velocity":37,"Duration":111391,"SoundDuration":111391,"Delta":58143631},{"NoteNumber":67,"Velocity":32,"Duration":111391,"SoundDuration":111391,"Delta":58143631},{"NoteNumber":83,"Velocity":55,"Duration":105618,"SoundDuration":105618,"Delta":58366414},{"NoteNumber":55,"Velocity":44,"Duration":220605,"SoundDuration":220605,"Delta":58366414},{"NoteNumber":84,"Velocity":49,"Duration":114986,"SoundDuration":114986,"Delta":58472033},{"NoteNumber":91,"Velocity":59,"Duration":215223,"SoundDuration":215223,"Delta":58587020},{"NoteNumber":67,"Velocity":31,"Duration":215223,"SoundDuration":215223,"Delta":58587020},{"NoteNumber":89,"Velocity":50,"Duration":108428,"SoundDuration":108428,"Delta":58802243},{"NoteNumber":63,"Velocity":35,"Duration":216856,"SoundDuration":216856,"Delta":58802243},{"NoteNumber":60,"Velocity":29,"Duration":216856,"SoundDuration":216856,"Delta":58802243},{"NoteNumber":87,"Velocity":45,"Duration":108428,"SoundDuration":108428,"Delta":58910672},{"NoteNumber":86,"Velocity":45,"Duration":112267,"SoundDuration":112267,"Delta":59019100},{"NoteNumber":67,"Velocity":32,"Duration":224533,"SoundDuration":224533,"Delta":59019100},{"NoteNumber":84,"Velocity":45,"Duration":112266,"SoundDuration":112266,"Delta":59131367},{"NoteNumber":84,"Velocity":63,"Duration":216029,"SoundDuration":216029,"Delta":59243634},{"NoteNumber":55,"Velocity":42,"Duration":216029,"SoundDuration":216029,"Delta":59243634},{"NoteNumber":83,"Velocity":37,"Duration":108014,"SoundDuration":108014,"Delta":59459664},{"NoteNumber":67,"Velocity":31,"Duration":108014,"SoundDuration":108014,"Delta":59459664},{"NoteNumber":83,"Velocity":44,"Duration":109257,"SoundDuration":109257,"Delta":59675693},{"NoteNumber":65,"Velocity":31,"Duration":109257,"SoundDuration":109257,"Delta":59675693},{"NoteNumber":62,"Velocity":26,"Duration":109257,"SoundDuration":109257,"Delta":59675693},{"NoteNumber":83,"Velocity":37,"Duration":112267,"SoundDuration":112267,"Delta":59894209},{"NoteNumber":67,"Velocity":29,"Duration":112267,"SoundDuration":112267,"Delta":59894209},{"NoteNumber":83,"Velocity":57,"Duration":219362,"SoundDuration":219362,"Delta":60118743},{"NoteNumber":55,"Velocity":44,"Duration":219362,"SoundDuration":219362,"Delta":60118743},{"NoteNumber":84,"Velocity":47,"Duration":109681,"SoundDuration":109681,"Delta":60338105},{"NoteNumber":67,"Velocity":32,"Duration":109681,"SoundDuration":109681,"Delta":60338105},{"NoteNumber":54,"Velocity":29,"Duration":109681,"SoundDuration":109681,"Delta":60557468},{"NoteNumber":63,"Velocity":35,"Duration":109681,"SoundDuration":109681,"Delta":60557468},{"NoteNumber":60,"Velocity":29,"Duration":109681,"SoundDuration":109681,"Delta":60557468},{"NoteNumber":87,"Velocity":54,"Duration":223663,"SoundDuration":223663,"Delta":60776830},{"NoteNumber":66,"Velocity":35,"Duration":223663,"SoundDuration":223663,"Delta":60776830},{"NoteNumber":84,"Velocity":63,"Duration":215223,"SoundDuration":215223,"Delta":61000494},{"NoteNumber":53,"Velocity":42,"Duration":215223,"SoundDuration":215223,"Delta":61000494},{"NoteNumber":82,"Velocity":52,"Duration":107611,"SoundDuration":107611,"Delta":61215717},{"NoteNumber":65,"Velocity":35,"Duration":107611,"SoundDuration":107611,"Delta":61215717},{"NoteNumber":82,"Velocity":54,"Duration":109681,"SoundDuration":109681,"Delta":61430941},{"NoteNumber":62,"Velocity":35,"Duration":109681,"SoundDuration":109681,"Delta":61430941},{"NoteNumber":82,"Velocity":54,"Duration":109681,"SoundDuration":109681,"Delta":61650303},{"NoteNumber":65,"Velocity":36,"Duration":109681,"SoundDuration":109681,"Delta":61650303},{"NoteNumber":84,"Velocity":63,"Duration":216029,"SoundDuration":216029,"Delta":61869666},{"NoteNumber":55,"Velocity":42,"Duration":216029,"SoundDuration":216029,"Delta":61869666},{"NoteNumber":82,"Velocity":53,"Duration":108014,"SoundDuration":108014,"Delta":62085695},{"NoteNumber":64,"Velocity":36,"Duration":108014,"SoundDuration":108014,"Delta":62085695},{"NoteNumber":82,"Velocity":55,"Duration":109681,"SoundDuration":109681,"Delta":62301725},{"NoteNumber":60,"Velocity":36,"Duration":109681,"SoundDuration":109681,"Delta":62301725},{"NoteNumber":82,"Velocity":55,"Duration":109681,"SoundDuration":109681,"Delta":62521087},{"NoteNumber":64,"Velocity":36,"Duration":109681,"SoundDuration":109681,"Delta":62521087},{"NoteNumber":79,"Velocity":63,"Duration":107611,"SoundDuration":107611,"Delta":62740450},{"NoteNumber":53,"Velocity":35,"Duration":215223,"SoundDuration":215223,"Delta":62740450},{"NoteNumber":62,"Velocity":42,"Duration":215223,"SoundDuration":215223,"Delta":62740450},{"NoteNumber":77,"Velocity":52,"Duration":107611,"SoundDuration":107611,"Delta":62848061},{"NoteNumber":76,"Velocity":53,"Duration":107611,"SoundDuration":107611,"Delta":62955673},{"NoteNumber":65,"Velocity":33,"Duration":215223,"SoundDuration":215223,"Delta":62955673},{"NoteNumber":77,"Velocity":53,"Duration":107611,"SoundDuration":107611,"Delta":63063285},{"NoteNumber":75,"Velocity":58,"Duration":110954,"SoundDuration":110954,"Delta":63170897},{"NoteNumber":53,"Velocity":29,"Duration":110954,"SoundDuration":110954,"Delta":63170897},{"NoteNumber":57,"Velocity":35,"Duration":110954,"SoundDuration":110954,"Delta":63170897},{"NoteNumber":72,"Velocity":54,"Duration":114068,"SoundDuration":114068,"Delta":63392807},{"NoteNumber":63,"Velocity":34,"Duration":114068,"SoundDuration":114068,"Delta":63392807},{"NoteNumber":70,"Velocity":58,"Duration":110529,"SoundDuration":110529,"Delta":63620944},{"NoteNumber":58,"Velocity":42,"Duration":221059,"SoundDuration":221059,"Delta":63620944},{"NoteNumber":62,"Velocity":42,"Duration":221059,"SoundDuration":221059,"Delta":63620944},{"NoteNumber":74,"Velocity":55,"Duration":107611,"SoundDuration":107611,"Delta":63842003},{"NoteNumber":65,"Velocity":38,"Duration":215223,"SoundDuration":215223,"Delta":63842003},{"NoteNumber":77,"Velocity":55,"Duration":109681,"SoundDuration":109681,"Delta":64057227},{"NoteNumber":62,"Velocity":38,"Duration":219362,"SoundDuration":219362,"Delta":64057227},{"NoteNumber":82,"Velocity":55,"Duration":112267,"SoundDuration":112267,"Delta":64276589},{"NoteNumber":58,"Velocity":38,"Duration":224534,"SoundDuration":224534,"Delta":64276589},{"NoteNumber":86,"Velocity":60,"Duration":224534,"SoundDuration":224534,"Delta":64501123},{"NoteNumber":55,"Velocity":43,"Duration":224534,"SoundDuration":224534,"Delta":64501123},{"NoteNumber":84,"Velocity":58,"Duration":110955,"SoundDuration":110955,"Delta":64725657},{"NoteNumber":64,"Velocity":37,"Duration":110955,"SoundDuration":110955,"Delta":64725657},{"NoteNumber":84,"Velocity":61,"Duration":110955,"SoundDuration":110955,"Delta":64947567},{"NoteNumber":58,"Velocity":39,"Duration":110955,"SoundDuration":110955,"Delta":64947567},{"NoteNumber":84,"Velocity":58,"Duration":110955,"SoundDuration":110955,"Delta":65169477},{"NoteNumber":64,"Velocity":42,"Duration":110955,"SoundDuration":110955,"Delta":65169477},{"NoteNumber":79,"Velocity":63,"Duration":107611,"SoundDuration":107611,"Delta":65391387},{"NoteNumber":53,"Velocity":35,"Duration":215223,"SoundDuration":215223,"Delta":65391387},{"NoteNumber":77,"Velocity":52,"Duration":107611,"SoundDuration":107611,"Delta":65498999},{"NoteNumber":76,"Velocity":53,"Duration":107611,"SoundDuration":107611,"Delta":65606611},{"NoteNumber":65,"Velocity":33,"Duration":215223,"SoundDuration":215223,"Delta":65606611},{"NoteNumber":77,"Velocity":53,"Duration":107611,"SoundDuration":107611,"Delta":65714222},{"NoteNumber":72,"Velocity":58,"Duration":110955,"SoundDuration":110955,"Delta":65821834},{"NoteNumber":57,"Velocity":35,"Duration":110955,"SoundDuration":110955,"Delta":65821834},{"NoteNumber":69,"Velocity":54,"Duration":113156,"SoundDuration":113156,"Delta":66043744},{"NoteNumber":65,"Velocity":34,"Duration":113156,"SoundDuration":113156,"Delta":66043744},{"NoteNumber":86,"Velocity":65,"Duration":218515,"SoundDuration":218515,"Delta":66270057},{"NoteNumber":55,"Velocity":43,"Duration":218515,"SoundDuration":218515,"Delta":66270057},{"NoteNumber":84,"Velocity":58,"Duration":111831,"SoundDuration":111831,"Delta":66488572},{"NoteNumber":64,"Velocity":35,"Duration":111831,"SoundDuration":111831,"Delta":66488572},{"NoteNumber":84,"Velocity":61,"Duration":111831,"SoundDuration":111831,"Delta":66712236},{"NoteNumber":58,"Velocity":35,"Duration":111831,"SoundDuration":111831,"Delta":66712236},{"NoteNumber":84,"Velocity":58,"Duration":111831,"SoundDuration":111831,"Delta":66935899},{"NoteNumber":64,"Velocity":36,"Duration":111831,"SoundDuration":111831,"Delta":66935899},{"NoteNumber":79,"Velocity":63,"Duration":107611,"SoundDuration":107611,"Delta":67159563},{"NoteNumber":53,"Velocity":35,"Duration":215223,"SoundDuration":215223,"Delta":67159563},{"NoteNumber":77,"Velocity":52,"Duration":107611,"SoundDuration":107611,"Delta":67267174},{"NoteNumber":76,"Velocity":53,"Duration":107611,"SoundDuration":107611,"Delta":67374786},{"NoteNumber":65,"Velocity":33,"Duration":215223,"SoundDuration":215223,"Delta":67374786},{"NoteNumber":77,"Velocity":53,"Duration":107611,"SoundDuration":107611,"Delta":67482398},{"NoteNumber":72,"Velocity":58,"Duration":110955,"SoundDuration":110955,"Delta":67590010},{"NoteNumber":57,"Velocity":35,"Duration":110955,"SoundDuration":110955,"Delta":67590010},{"NoteNumber":69,"Velocity":54,"Duration":114068,"SoundDuration":114068,"Delta":67811920},{"NoteNumber":65,"Velocity":34,"Duration":114068,"SoundDuration":114068,"Delta":67811920},{"NoteNumber":81,"Velocity":54,"Duration":218515,"SoundDuration":218515,"Delta":68040057},{"NoteNumber":50,"Velocity":35,"Duration":218515,"SoundDuration":218515,"Delta":68040057},{"NoteNumber":79,"Velocity":49,"Duration":111831,"SoundDuration":111831,"Delta":68258572},{"NoteNumber":59,"Velocity":29,"Duration":111831,"SoundDuration":111831,"Delta":68258572},{"NoteNumber":79,"Velocity":52,"Duration":111831,"SoundDuration":111831,"Delta":68482236},{"NoteNumber":53,"Velocity":29,"Duration":111831,"SoundDuration":111831,"Delta":68482236},{"NoteNumber":79,"Velocity":49,"Duration":111831,"SoundDuration":111831,"Delta":68705899},{"NoteNumber":59,"Velocity":30,"Duration":111831,"SoundDuration":111831,"Delta":68705899},{"NoteNumber":86,"Velocity":53,"Duration":107611,"SoundDuration":107611,"Delta":68929563},{"NoteNumber":48,"Velocity":29,"Duration":215223,"SoundDuration":215223,"Delta":68929563},{"NoteNumber":84,"Velocity":44,"Duration":107611,"SoundDuration":107611,"Delta":69037174},{"NoteNumber":83,"Velocity":45,"Duration":107611,"SoundDuration":107611,"Delta":69144786},{"NoteNumber":60,"Velocity":28,"Duration":215223,"SoundDuration":215223,"Delta":69144786},{"NoteNumber":84,"Velocity":45,"Duration":107611,"SoundDuration":107611,"Delta":69252398},{"NoteNumber":79,"Velocity":49,"Duration":110955,"SoundDuration":110955,"Delta":69360010},{"NoteNumber":52,"Velocity":29,"Duration":110955,"SoundDuration":110955,"Delta":69360010},{"NoteNumber":76,"Velocity":46,"Duration":114068,"SoundDuration":114068,"Delta":69581920},{"NoteNumber":60,"Velocity":29,"Duration":114068,"SoundDuration":114068,"Delta":69581920},{"NoteNumber":81,"Velocity":54,"Duration":218515,"SoundDuration":218515,"Delta":69810057},{"NoteNumber":50,"Velocity":35,"Duration":218515,"SoundDuration":218515,"Delta":69810057},{"NoteNumber":79,"Velocity":49,"Duration":111831,"SoundDuration":111831,"Delta":70028572},{"NoteNumber":59,"Velocity":29,"Duration":111831,"SoundDuration":111831,"Delta":70028572},{"NoteNumber":79,"Velocity":52,"Duration":111831,"SoundDuration":111831,"Delta":70252236},{"NoteNumber":53,"Velocity":29,"Duration":111831,"SoundDuration":111831,"Delta":70252236},{"NoteNumber":79,"Velocity":49,"Duration":111831,"SoundDuration":111831,"Delta":70475899},{"NoteNumber":59,"Velocity":30,"Duration":111831,"SoundDuration":111831,"Delta":70475899},{"NoteNumber":86,"Velocity":53,"Duration":107611,"SoundDuration":107611,"Delta":70699563},{"NoteNumber":52,"Velocity":29,"Duration":430447,"SoundDuration":430447,"Delta":70699563},{"NoteNumber":48,"Velocity":29,"Duration":430447,"SoundDuration":430447,"Delta":70699563},{"NoteNumber":60,"Velocity":29,"Duration":430447,"SoundDuration":430447,"Delta":70699563},{"NoteNumber":84,"Velocity":44,"Duration":107611,"SoundDuration":107611,"Delta":70807174},{"NoteNumber":83,"Velocity":45,"Duration":107611,"SoundDuration":107611,"Delta":70914786},{"NoteNumber":84,"Velocity":45,"Duration":107611,"SoundDuration":107611,"Delta":71022398},{"NoteNumber":79,"Velocity":49,"Duration":110955,"SoundDuration":110955,"Delta":71130010},{"NoteNumber":76,"Velocity":46,"Duration":114068,"SoundDuration":114068,"Delta":71351920},{"NoteNumber":74,"Velocity":53,"Duration":107611,"SoundDuration":107611,"Delta":71580057},{"NoteNumber":72,"Velocity":44,"Duration":107611,"SoundDuration":107611,"Delta":71687668},{"NoteNumber":71,"Velocity":45,"Duration":107611,"SoundDuration":107611,"Delta":71795280},{"NoteNumber":72,"Velocity":45,"Duration":107611,"SoundDuration":107611,"Delta":71902892},{"NoteNumber":67,"Velocity":49,"Duration":110955,"SoundDuration":110955,"Delta":72010504},{"NoteNumber":64,"Velocity":46,"Duration":114068,"SoundDuration":114068,"Delta":72232414},{"NoteNumber":62,"Velocity":53,"Duration":107611,"SoundDuration":107611,"Delta":72460551},{"NoteNumber":60,"Velocity":44,"Duration":107611,"SoundDuration":107611,"Delta":72568162},{"NoteNumber":59,"Velocity":45,"Duration":107611,"SoundDuration":107611,"Delta":72675774},{"NoteNumber":60,"Velocity":45,"Duration":107611,"SoundDuration":107611,"Delta":72783386},{"NoteNumber":55,"Velocity":49,"Duration":110955,"SoundDuration":110955,"Delta":72890998},{"NoteNumber":52,"Velocity":46,"Duration":117187,"SoundDuration":117187,"Delta":73112908},{"NoteNumber":48,"Velocity":46,"Duration":117187,"SoundDuration":117187,"Delta":73347283},{"NoteNumber":43,"Velocity":39,"Duration":117187,"SoundDuration":117187,"Delta":73581658},{"NoteNumber":40,"Velocity":43,"Duration":117493,"SoundDuration":117493,"Delta":73816033},{"NoteNumber":38,"Velocity":47,"Duration":118890,"SoundDuration":118890,"Delta":74051792},{"NoteNumber":36,"Velocity":50,"Duration":117647,"SoundDuration":117647,"Delta":74290364},{"NoteNumber":67,"Velocity":52,"Duration":124654,"SoundDuration":124654,"Delta":74525658},{"NoteNumber":64,"Velocity":52,"Duration":124654,"SoundDuration":124654,"Delta":74525658},{"NoteNumber":72,"Velocity":52,"Duration":124654,"SoundDuration":124654,"Delta":74525658},{"NoteNumber":34,"Velocity":46,"Duration":124654,"SoundDuration":124654,"Delta":74525658},{"NoteNumber":64,"Velocity":52,"Duration":127120,"SoundDuration":127120,"Delta":74776364},{"NoteNumber":72,"Velocity":52,"Duration":127120,"SoundDuration":127120,"Delta":74776364},{"NoteNumber":69,"Velocity":52,"Duration":127120,"SoundDuration":127120,"Delta":74776364},{"NoteNumber":33,"Velocity":43,"Duration":127120,"SoundDuration":127120,"Delta":74776364},{"NoteNumber":64,"Velocity":52,"Duration":129871,"SoundDuration":129871,"Delta":75032241},{"NoteNumber":70,"Velocity":52,"Duration":129871,"SoundDuration":129871,"Delta":75032241},{"NoteNumber":72,"Velocity":52,"Duration":129871,"SoundDuration":129871,"Delta":75032241},{"NoteNumber":31,"Velocity":39,"Duration":129871,"SoundDuration":129871,"Delta":75032241},{"NoteNumber":72,"Velocity":52,"Duration":506528,"SoundDuration":506528,"Delta":75293694},{"NoteNumber":69,"Velocity":34,"Duration":128398,"SoundDuration":128398,"Delta":75425859},{"NoteNumber":65,"Velocity":33,"Duration":124662,"SoundDuration":124662,"Delta":75554257},{"NoteNumber":29,"Velocity":33,"Duration":124662,"SoundDuration":124662,"Delta":75554257},{"NoteNumber":69,"Velocity":33,"Duration":121302,"SoundDuration":121302,"Delta":75678920},{"NoteNumber":77,"Velocity":53,"Duration":465533,"SoundDuration":465533,"Delta":75800222},{"NoteNumber":69,"Velocity":39,"Duration":115551,"SoundDuration":115551,"Delta":75918185},{"NoteNumber":65,"Velocity":39,"Duration":116009,"SoundDuration":116009,"Delta":76033737},{"NoteNumber":41,"Velocity":33,"Duration":116009,"SoundDuration":116009,"Delta":76033737},{"NoteNumber":69,"Velocity":39,"Duration":116009,"SoundDuration":116009,"Delta":76149746},{"NoteNumber":72,"Velocity":52,"Duration":116792,"SoundDuration":116792,"Delta":76265756},{"NoteNumber":76,"Velocity":52,"Duration":462085,"SoundDuration":462085,"Delta":76265756},{"NoteNumber":69,"Velocity":38,"Duration":116013,"SoundDuration":116013,"Delta":76382548},{"NoteNumber":64,"Velocity":38,"Duration":115093,"SoundDuration":115093,"Delta":76498562},{"NoteNumber":45,"Velocity":33,"Duration":115093,"SoundDuration":115093,"Delta":76498562},{"NoteNumber":69,"Velocity":38,"Duration":114185,"SoundDuration":114185,"Delta":76613655},{"NoteNumber":70,"Velocity":51,"Duration":114034,"SoundDuration":114034,"Delta":76727841},{"NoteNumber":74,"Velocity":51,"Duration":459619,"SoundDuration":459619,"Delta":76727841},{"NoteNumber":65,"Velocity":34,"Duration":114787,"SoundDuration":114787,"Delta":76841875},{"NoteNumber":62,"Velocity":34,"Duration":115399,"SoundDuration":115399,"Delta":76956662},{"NoteNumber":46,"Velocity":33,"Duration":115399,"SoundDuration":115399,"Delta":76956662},{"NoteNumber":65,"Velocity":34,"Duration":115398,"SoundDuration":115398,"Delta":77072062},{"NoteNumber":69,"Velocity":51,"Duration":115553,"SoundDuration":115553,"Delta":77187460},{"NoteNumber":74,"Velocity":51,"Duration":459163,"SoundDuration":459163,"Delta":77187460},{"NoteNumber":65,"Velocity":35,"Duration":115092,"SoundDuration":115092,"Delta":77303014},{"NoteNumber":62,"Velocity":35,"Duration":114483,"SoundDuration":114483,"Delta":77418106},{"NoteNumber":50,"Velocity":33,"Duration":228517,"SoundDuration":228517,"Delta":77418106},{"NoteNumber":65,"Velocity":35,"Duration":114034,"SoundDuration":114034,"Delta":77532590},{"NoteNumber":69,"Velocity":49,"Duration":113441,"SoundDuration":113441,"Delta":77646624},{"NoteNumber":72,"Velocity":49,"Duration":456001,"SoundDuration":456001,"Delta":77646624},{"NoteNumber":65,"Velocity":35,"Duration":113590,"SoundDuration":113590,"Delta":77760066},{"NoteNumber":60,"Velocity":35,"Duration":114181,"SoundDuration":114181,"Delta":77873657},{"NoteNumber":53,"Velocity":33,"Duration":228968,"SoundDuration":228968,"Delta":77873657},{"NoteNumber":65,"Velocity":35,"Duration":114787,"SoundDuration":114787,"Delta":77987838},{"NoteNumber":69,"Velocity":50,"Duration":113739,"SoundDuration":113739,"Delta":78102625},{"NoteNumber":72,"Velocity":50,"Duration":452735,"SoundDuration":452735,"Delta":78102625},{"NoteNumber":64,"Velocity":36,"Duration":113441,"SoundDuration":113441,"Delta":78216365},{"NoteNumber":60,"Velocity":36,"Duration":112997,"SoundDuration":112997,"Delta":78329807},{"NoteNumber":57,"Velocity":33,"Duration":225554,"SoundDuration":225554,"Delta":78329807},{"NoteNumber":64,"Velocity":36,"Duration":112556,"SoundDuration":112556,"Delta":78442805},{"NoteNumber":67,"Velocity":49,"Duration":115553,"SoundDuration":115553,"Delta":78555361},{"NoteNumber":70,"Velocity":49,"Duration":460559,"SoundDuration":460559,"Delta":78555361},{"NoteNumber":64,"Velocity":34,"Duration":115553,"SoundDuration":115553,"Delta":78670915},{"NoteNumber":58,"Velocity":34,"Duration":115553,"SoundDuration":115553,"Delta":78786468},{"NoteNumber":36,"Velocity":33,"Duration":229452,"SoundDuration":229452,"Delta":78786468},{"NoteNumber":64,"Velocity":34,"Duration":113898,"SoundDuration":113898,"Delta":78902022},{"NoteNumber":67,"Velocity":50,"Duration":112849,"SoundDuration":112849,"Delta":79015920},{"NoteNumber":70,"Velocity":50,"Duration":453620,"SoundDuration":453620,"Delta":79015920},{"NoteNumber":62,"Velocity":35,"Duration":113292,"SoundDuration":113292,"Delta":79128770},{"NoteNumber":58,"Velocity":35,"Duration":113590,"SoundDuration":113590,"Delta":79242063},{"NoteNumber":38,"Velocity":33,"Duration":227477,"SoundDuration":227477,"Delta":79242063},{"NoteNumber":62,"Velocity":35,"Duration":113886,"SoundDuration":113886,"Delta":79355654},{"NoteNumber":65,"Velocity":49,"Duration":114181,"SoundDuration":114181,"Delta":79469541},{"NoteNumber":69,"Velocity":49,"Duration":459002,"SoundDuration":459002,"Delta":79469541},{"NoteNumber":62,"Velocity":35,"Duration":114635,"SoundDuration":114635,"Delta":79583722},{"NoteNumber":57,"Velocity":35,"Duration":114940,"SoundDuration":114940,"Delta":79698357},{"NoteNumber":41,"Velocity":33,"Duration":230186,"SoundDuration":230186,"Delta":79698357},{"NoteNumber":62,"Velocity":35,"Duration":115246,"SoundDuration":115246,"Delta":79813297},{"NoteNumber":64,"Velocity":48,"Duration":116009,"SoundDuration":116009,"Delta":79928543},{"NoteNumber":69,"Velocity":48,"Duration":463125,"SoundDuration":463125,"Delta":79928543},{"NoteNumber":61,"Velocity":36,"Duration":116009,"SoundDuration":116009,"Delta":80044553},{"NoteNumber":57,"Velocity":36,"Duration":115553,"SoundDuration":115553,"Delta":80160562},{"NoteNumber":45,"Velocity":33,"Duration":231106,"SoundDuration":231106,"Delta":80160562},{"NoteNumber":61,"Velocity":36,"Duration":115553,"SoundDuration":115553,"Delta":80276115},{"NoteNumber":67,"Velocity":47,"Duration":460374,"SoundDuration":460374,"Delta":80391669},{"NoteNumber":64,"Velocity":35,"Duration":114940,"SoundDuration":114940,"Delta":80506304},{"NoteNumber":57,"Velocity":35,"Duration":115246,"SoundDuration":115246,"Delta":80621244},{"NoteNumber":49,"Velocity":33,"Duration":230799,"SoundDuration":230799,"Delta":80621244},{"NoteNumber":64,"Velocity":35,"Duration":115553,"SoundDuration":115553,"Delta":80736490},{"NoteNumber":67,"Velocity":48,"Duration":457632,"SoundDuration":457632,"Delta":80852044},{"NoteNumber":64,"Velocity":38,"Duration":114634,"SoundDuration":114634,"Delta":80966679},{"NoteNumber":57,"Velocity":42,"Duration":114181,"SoundDuration":114181,"Delta":81081314},{"NoteNumber":50,"Velocity":33,"Duration":114181,"SoundDuration":114181,"Delta":81081314},{"NoteNumber":64,"Velocity":45,"Duration":114181,"SoundDuration":114181,"Delta":81195495},{"NoteNumber":65,"Velocity":52,"Duration":453917,"SoundDuration":453917,"Delta":81309676},{"NoteNumber":52,"Velocity":33,"Duration":113739,"SoundDuration":113739,"Delta":81309676},{"NoteNumber":62,"Velocity":39,"Duration":113739,"SoundDuration":113739,"Delta":81423416},{"NoteNumber":57,"Velocity":39,"Duration":113292,"SoundDuration":113292,"Delta":81537156},{"NoteNumber":53,"Velocity":33,"Duration":113292,"SoundDuration":113292,"Delta":81537156},{"NoteNumber":62,"Velocity":39,"Duration":113145,"SoundDuration":113145,"Delta":81650449},{"NoteNumber":64,"Velocity":49,"Duration":453171,"SoundDuration":453171,"Delta":81763594},{"NoteNumber":55,"Velocity":33,"Duration":226585,"SoundDuration":226585,"Delta":81763594},{"NoteNumber":60,"Velocity":35,"Duration":113292,"SoundDuration":113292,"Delta":81876887},{"NoteNumber":55,"Velocity":35,"Duration":113292,"SoundDuration":113292,"Delta":81990180},{"NoteNumber":60,"Velocity":35,"Duration":113292,"SoundDuration":113292,"Delta":82103473},{"NoteNumber":62,"Velocity":47,"Duration":453172,"SoundDuration":453172,"Delta":82216766},{"NoteNumber":43,"Velocity":33,"Duration":226586,"SoundDuration":226586,"Delta":82216766},{"NoteNumber":59,"Velocity":33,"Duration":113293,"SoundDuration":113293,"Delta":82330059},{"NoteNumber":53,"Velocity":33,"Duration":113292,"SoundDuration":113292,"Delta":82443352},{"NoteNumber":59,"Velocity":33,"Duration":113292,"SoundDuration":113292,"Delta":82556645},{"NoteNumber":52,"Velocity":33,"Duration":114635,"SoundDuration":114635,"Delta":82669938},{"NoteNumber":36,"Velocity":33,"Duration":114635,"SoundDuration":114635,"Delta":82669938},{"NoteNumber":48,"Velocity":33,"Duration":114635,"SoundDuration":114635,"Delta":82669938},{"NoteNumber":60,"Velocity":46,"Duration":114635,"SoundDuration":114635,"Delta":82669938},{"NoteNumber":55,"Velocity":39,"Duration":115246,"SoundDuration":115246,"Delta":82899513},{"NoteNumber":52,"Velocity":43,"Duration":115705,"SoundDuration":115705,"Delta":83130312},{"NoteNumber":50,"Velocity":47,"Duration":116635,"SoundDuration":116635,"Delta":83361875},{"NoteNumber":48,"Velocity":50,"Duration":114181,"SoundDuration":114181,"Delta":83595772},{"NoteNumber":64,"Velocity":52,"Duration":120969,"SoundDuration":120969,"Delta":83824134},{"NoteNumber":67,"Velocity":52,"Duration":120969,"SoundDuration":120969,"Delta":83824134},{"NoteNumber":72,"Velocity":52,"Duration":120969,"SoundDuration":120969,"Delta":83824134},{"NoteNumber":46,"Velocity":46,"Duration":120969,"SoundDuration":120969,"Delta":83824134},{"NoteNumber":64,"Velocity":52,"Duration":123968,"SoundDuration":123968,"Delta":84067553},{"NoteNumber":69,"Velocity":52,"Duration":123968,"SoundDuration":123968,"Delta":84067553},{"NoteNumber":72,"Velocity":52,"Duration":123968,"SoundDuration":123968,"Delta":84067553},{"NoteNumber":45,"Velocity":43,"Duration":123968,"SoundDuration":123968,"Delta":84067553},{"NoteNumber":64,"Velocity":52,"Duration":127120,"SoundDuration":127120,"Delta":84317046},{"NoteNumber":70,"Velocity":52,"Duration":127120,"SoundDuration":127120,"Delta":84317046},{"NoteNumber":72,"Velocity":52,"Duration":127120,"SoundDuration":127120,"Delta":84317046},{"NoteNumber":43,"Velocity":39,"Duration":127120,"SoundDuration":127120,"Delta":84317046},{"NoteNumber":72,"Velocity":52,"Duration":496271,"SoundDuration":496271,"Delta":84573110},{"NoteNumber":69,"Velocity":37,"Duration":125528,"SoundDuration":125528,"Delta":84701872},{"NoteNumber":65,"Velocity":37,"Duration":122454,"SoundDuration":122454,"Delta":84827401},{"NoteNumber":29,"Velocity":33,"Duration":122454,"SoundDuration":122454,"Delta":84827401},{"NoteNumber":69,"Velocity":37,"Duration":119527,"SoundDuration":119527,"Delta":84949855},{"NoteNumber":77,"Velocity":53,"Duration":463980,"SoundDuration":463980,"Delta":85069382},{"NoteNumber":69,"Velocity":40,"Duration":115551,"SoundDuration":115551,"Delta":85185793},{"NoteNumber":65,"Velocity":40,"Duration":116009,"SoundDuration":116009,"Delta":85301344},{"NoteNumber":41,"Velocity":33,"Duration":116009,"SoundDuration":116009,"Delta":85301344},{"NoteNumber":69,"Velocity":42,"Duration":116009,"SoundDuration":116009,"Delta":85417354},{"NoteNumber":72,"Velocity":52,"Duration":116792,"SoundDuration":116792,"Delta":85533363},{"NoteNumber":76,"Velocity":52,"Duration":462085,"SoundDuration":462085,"Delta":85533363},{"NoteNumber":69,"Velocity":38,"Duration":116013,"SoundDuration":116013,"Delta":85650155},{"NoteNumber":64,"Velocity":38,"Duration":115093,"SoundDuration":115093,"Delta":85766169},{"NoteNumber":45,"Velocity":33,"Duration":115093,"SoundDuration":115093,"Delta":85766169},{"NoteNumber":69,"Velocity":38,"Duration":114185,"SoundDuration":114185,"Delta":85881263},{"NoteNumber":70,"Velocity":51,"Duration":114034,"SoundDuration":114034,"Delta":85995448},{"NoteNumber":74,"Velocity":51,"Duration":459619,"SoundDuration":459619,"Delta":85995448},{"NoteNumber":65,"Velocity":34,"Duration":114787,"SoundDuration":114787,"Delta":86109482},{"NoteNumber":62,"Velocity":34,"Duration":115399,"SoundDuration":115399,"Delta":86224270},{"NoteNumber":46,"Velocity":33,"Duration":115399,"SoundDuration":115399,"Delta":86224270},{"NoteNumber":65,"Velocity":34,"Duration":115398,"SoundDuration":115398,"Delta":86339669},{"NoteNumber":69,"Velocity":48,"Duration":115553,"SoundDuration":115553,"Delta":86455067},{"NoteNumber":74,"Velocity":48,"Duration":459163,"SoundDuration":459163,"Delta":86455067},{"NoteNumber":65,"Velocity":37,"Duration":115092,"SoundDuration":115092,"Delta":86570621},{"NoteNumber":62,"Velocity":37,"Duration":114483,"SoundDuration":114483,"Delta":86685713},{"NoteNumber":50,"Velocity":33,"Duration":228517,"SoundDuration":228517,"Delta":86685713},{"NoteNumber":65,"Velocity":37,"Duration":114034,"SoundDuration":114034,"Delta":86800197},{"NoteNumber":69,"Velocity":49,"Duration":113441,"SoundDuration":113441,"Delta":86914231},{"NoteNumber":72,"Velocity":49,"Duration":456001,"SoundDuration":456001,"Delta":86914231},{"NoteNumber":65,"Velocity":35,"Duration":113590,"SoundDuration":113590,"Delta":87027673},{"NoteNumber":60,"Velocity":35,"Duration":114181,"SoundDuration":114181,"Delta":87141264},{"NoteNumber":53,"Velocity":33,"Duration":228968,"SoundDuration":228968,"Delta":87141264},{"NoteNumber":65,"Velocity":35,"Duration":114787,"SoundDuration":114787,"Delta":87255445},{"NoteNumber":69,"Velocity":49,"Duration":113739,"SoundDuration":113739,"Delta":87370233},{"NoteNumber":72,"Velocity":49,"Duration":452735,"SoundDuration":452735,"Delta":87370233},{"NoteNumber":64,"Velocity":36,"Duration":113441,"SoundDuration":113441,"Delta":87483973},{"NoteNumber":60,"Velocity":36,"Duration":112997,"SoundDuration":112997,"Delta":87597414},{"NoteNumber":57,"Velocity":33,"Duration":225554,"SoundDuration":225554,"Delta":87597414},{"NoteNumber":64,"Velocity":37,"Duration":112556,"SoundDuration":112556,"Delta":87710412},{"NoteNumber":67,"Velocity":49,"Duration":116950,"SoundDuration":116950,"Delta":87822969},{"NoteNumber":70,"Velocity":49,"Duration":465214,"SoundDuration":465214,"Delta":87822969},{"NoteNumber":64,"Velocity":35,"Duration":116950,"SoundDuration":116950,"Delta":87939919},{"NoteNumber":58,"Velocity":35,"Duration":116949,"SoundDuration":116949,"Delta":88056869},{"NoteNumber":36,"Velocity":33,"Duration":231314,"SoundDuration":231314,"Delta":88056869},{"NoteNumber":64,"Velocity":35,"Duration":114364,"SoundDuration":114364,"Delta":88173819},{"NoteNumber":67,"Velocity":50,"Duration":112849,"SoundDuration":112849,"Delta":88288183},{"NoteNumber":70,"Velocity":50,"Duration":453620,"SoundDuration":453620,"Delta":88288183},{"NoteNumber":62,"Velocity":36,"Duration":113292,"SoundDuration":113292,"Delta":88401033},{"NoteNumber":58,"Velocity":36,"Duration":113590,"SoundDuration":113590,"Delta":88514326},{"NoteNumber":38,"Velocity":33,"Duration":227477,"SoundDuration":227477,"Delta":88514326},{"NoteNumber":62,"Velocity":36,"Duration":113886,"SoundDuration":113886,"Delta":88627916},{"NoteNumber":65,"Velocity":49,"Duration":114181,"SoundDuration":114181,"Delta":88741803},{"NoteNumber":69,"Velocity":49,"Duration":459002,"SoundDuration":459002,"Delta":88741803},{"NoteNumber":62,"Velocity":36,"Duration":114635,"SoundDuration":114635,"Delta":88855985},{"NoteNumber":57,"Velocity":36,"Duration":114940,"SoundDuration":114940,"Delta":88970620},{"NoteNumber":41,"Velocity":33,"Duration":230186,"SoundDuration":230186,"Delta":88970620},{"NoteNumber":62,"Velocity":36,"Duration":115246,"SoundDuration":115246,"Delta":89085560},{"NoteNumber":64,"Velocity":48,"Duration":116009,"SoundDuration":116009,"Delta":89200806},{"NoteNumber":69,"Velocity":48,"Duration":463125,"SoundDuration":463125,"Delta":89200806},{"NoteNumber":61,"Velocity":36,"Duration":116009,"SoundDuration":116009,"Delta":89316815},{"NoteNumber":57,"Velocity":36,"Duration":115553,"SoundDuration":115553,"Delta":89432824},{"NoteNumber":45,"Velocity":33,"Duration":231106,"SoundDuration":231106,"Delta":89432824},{"NoteNumber":61,"Velocity":36,"Duration":115553,"SoundDuration":115553,"Delta":89548378},{"NoteNumber":67,"Velocity":47,"Duration":466336,"SoundDuration":466336,"Delta":89663931},{"NoteNumber":64,"Velocity":37,"Duration":114940,"SoundDuration":114940,"Delta":89778566},{"NoteNumber":57,"Velocity":37,"Duration":118380,"SoundDuration":118380,"Delta":89893506},{"NoteNumber":49,"Velocity":33,"Duration":236761,"SoundDuration":236761,"Delta":89893506},{"NoteNumber":64,"Velocity":37,"Duration":118380,"SoundDuration":118380,"Delta":90011887},{"NoteNumber":67,"Velocity":48,"Duration":457632,"SoundDuration":457632,"Delta":90130267},{"NoteNumber":64,"Velocity":38,"Duration":114634,"SoundDuration":114634,"Delta":90244902},{"NoteNumber":57,"Velocity":42,"Duration":114181,"SoundDuration":114181,"Delta":90359537},{"NoteNumber":50,"Velocity":33,"Duration":114181,"SoundDuration":114181,"Delta":90359537},{"NoteNumber":64,"Velocity":45,"Duration":114181,"SoundDuration":114181,"Delta":90473718},{"NoteNumber":66,"Velocity":52,"Duration":453917,"SoundDuration":453917,"Delta":90587900},{"NoteNumber":52,"Velocity":33,"Duration":113739,"SoundDuration":113739,"Delta":90587900},{"NoteNumber":62,"Velocity":43,"Duration":113739,"SoundDuration":113739,"Delta":90701639},{"NoteNumber":57,"Velocity":44,"Duration":113292,"SoundDuration":113292,"Delta":90815379},{"NoteNumber":54,"Velocity":33,"Duration":113292,"SoundDuration":113292,"Delta":90815379},{"NoteNumber":62,"Velocity":44,"Duration":113145,"SoundDuration":113145,"Delta":90928672},{"NoteNumber":64,"Velocity":49,"Duration":453767,"SoundDuration":453767,"Delta":91041817},{"NoteNumber":43,"Velocity":33,"Duration":226142,"SoundDuration":226142,"Delta":91041817},{"NoteNumber":62,"Velocity":40,"Duration":113145,"SoundDuration":113145,"Delta":91154815},{"NoteNumber":59,"Velocity":38,"Duration":113590,"SoundDuration":113590,"Delta":91267960},{"NoteNumber":62,"Velocity":36,"Duration":114034,"SoundDuration":114034,"Delta":91381551},{"NoteNumber":66,"Velocity":45,"Duration":469100,"SoundDuration":469100,"Delta":91495585},{"NoteNumber":45,"Velocity":33,"Duration":230825,"SoundDuration":230825,"Delta":91495585},{"NoteNumber":61,"Velocity":33,"Duration":116131,"SoundDuration":116131,"Delta":91610279},{"NoteNumber":57,"Velocity":33,"Duration":118111,"SoundDuration":118111,"Delta":91726411},{"NoteNumber":61,"Velocity":33,"Duration":120163,"SoundDuration":120163,"Delta":91844522},{"NoteNumber":62,"Velocity":43,"Duration":476844,"SoundDuration":476844,"Delta":91964685},{"NoteNumber":57,"Velocity":35,"Duration":117187,"SoundDuration":117187,"Delta":92091332},{"NoteNumber":54,"Velocity":35,"Duration":116731,"SoundDuration":116731,"Delta":92208519},{"NoteNumber":50,"Velocity":33,"Duration":233010,"SoundDuration":233010,"Delta":92208519},{"NoteNumber":57,"Velocity":35,"Duration":116279,"SoundDuration":116279,"Delta":92325251},{"NoteNumber":64,"Velocity":49,"Duration":460660,"SoundDuration":460660,"Delta":92441530},{"NoteNumber":59,"Velocity":35,"Duration":115384,"SoundDuration":115384,"Delta":92557360},{"NoteNumber":55,"Velocity":35,"Duration":114942,"SoundDuration":114942,"Delta":92672744},{"NoteNumber":43,"Velocity":33,"Duration":229446,"SoundDuration":229446,"Delta":92672744},{"NoteNumber":59,"Velocity":35,"Duration":114503,"SoundDuration":114503,"Delta":92787687},{"NoteNumber":66,"Velocity":49,"Duration":450337,"SoundDuration":450337,"Delta":92902190},{"NoteNumber":60,"Velocity":35,"Duration":112698,"SoundDuration":112698,"Delta":93014131},{"NoteNumber":57,"Velocity":36,"Duration":112849,"SoundDuration":112849,"Delta":93126829},{"NoteNumber":38,"Velocity":33,"Duration":225699,"SoundDuration":225699,"Delta":93126829},{"NoteNumber":60,"Velocity":36,"Duration":112849,"SoundDuration":112849,"Delta":93239679},{"NoteNumber":66,"Velocity":52,"Duration":458015,"SoundDuration":458015,"Delta":93352528},{"NoteNumber":60,"Velocity":38,"Duration":114503,"SoundDuration":114503,"Delta":93467032},{"NoteNumber":57,"Velocity":38,"Duration":114503,"SoundDuration":114503,"Delta":93581536},{"NoteNumber":38,"Velocity":36,"Duration":229007,"SoundDuration":229007,"Delta":93581536},{"NoteNumber":60,"Velocity":39,"Duration":114503,"SoundDuration":114503,"Delta":93696040},{"NoteNumber":66,"Velocity":56,"Duration":447760,"SoundDuration":447760,"Delta":93810543},{"NoteNumber":60,"Velocity":39,"Duration":111940,"SoundDuration":111940,"Delta":93922484},{"NoteNumber":57,"Velocity":39,"Duration":111940,"SoundDuration":111940,"Delta":94034424},{"NoteNumber":31,"Velocity":36,"Duration":223880,"SoundDuration":223880,"Delta":94034424},{"NoteNumber":60,"Velocity":38,"Duration":111940,"SoundDuration":111940,"Delta":94146364},{"NoteNumber":67,"Velocity":52,"Duration":451127,"SoundDuration":451127,"Delta":94258304},{"NoteNumber":62,"Velocity":37,"Duration":112782,"SoundDuration":112782,"Delta":94371086},{"NoteNumber":59,"Velocity":36,"Duration":112781,"SoundDuration":112781,"Delta":94483868},{"NoteNumber":31,"Velocity":34,"Duration":225563,"SoundDuration":225563,"Delta":94483868},{"NoteNumber":62,"Velocity":35,"Duration":112781,"SoundDuration":112781,"Delta":94596650},{"NoteNumber":66,"Velocity":49,"Duration":451127,"SoundDuration":451127,"Delta":94709432},{"NoteNumber":62,"Velocity":35,"Duration":112782,"SoundDuration":112782,"Delta":94822214},{"NoteNumber":57,"Velocity":35,"Duration":112781,"SoundDuration":112781,"Delta":94934996},{"NoteNumber":33,"Velocity":33,"Duration":225563,"SoundDuration":225563,"Delta":94934996},{"NoteNumber":62,"Velocity":35,"Duration":112781,"SoundDuration":112781,"Delta":95047778},{"NoteNumber":64,"Velocity":49,"Duration":455695,"SoundDuration":455695,"Delta":95160560},{"NoteNumber":61,"Velocity":35,"Duration":113441,"SoundDuration":113441,"Delta":95273388},{"NoteNumber":57,"Velocity":35,"Duration":114332,"SoundDuration":114332,"Delta":95386829},{"NoteNumber":33,"Velocity":33,"Duration":229426,"SoundDuration":229426,"Delta":95386829},{"NoteNumber":61,"Velocity":35,"Duration":115093,"SoundDuration":115093,"Delta":95501162},{"NoteNumber":66,"Velocity":47,"Duration":470231,"SoundDuration":470231,"Delta":95616256},{"NoteNumber":62,"Velocity":35,"Duration":115553,"SoundDuration":115553,"Delta":95741053},{"NoteNumber":60,"Velocity":35,"Duration":115169,"SoundDuration":115169,"Delta":95856607},{"NoteNumber":38,"Velocity":33,"Duration":229880,"SoundDuration":229880,"Delta":95856607},{"NoteNumber":62,"Velocity":35,"Duration":114711,"SoundDuration":114711,"Delta":95971776},{"NoteNumber":67,"Velocity":49,"Duration":455253,"SoundDuration":455253,"Delta":96086487},{"NoteNumber":64,"Velocity":35,"Duration":113960,"SoundDuration":113960,"Delta":96200896},{"NoteNumber":60,"Velocity":35,"Duration":113665,"SoundDuration":113665,"Delta":96314856},{"NoteNumber":50,"Velocity":33,"Duration":226884,"SoundDuration":226884,"Delta":96314856},{"NoteNumber":64,"Velocity":35,"Duration":113219,"SoundDuration":113219,"Delta":96428521},{"NoteNumber":69,"Velocity":49,"Duration":449298,"SoundDuration":449298,"Delta":96541740},{"NoteNumber":66,"Velocity":35,"Duration":112483,"SoundDuration":112483,"Delta":96654590},{"NoteNumber":60,"Velocity":36,"Duration":112053,"SoundDuration":112053,"Delta":96767073},{"NoteNumber":50,"Velocity":33,"Duration":223965,"SoundDuration":223965,"Delta":96767073},{"NoteNumber":66,"Velocity":36,"Duration":111911,"SoundDuration":111911,"Delta":96879127},{"NoteNumber":69,"Velocity":52,"Duration":460369,"SoundDuration":460369,"Delta":96991039},{"NoteNumber":66,"Velocity":38,"Duration":115092,"SoundDuration":115092,"Delta":97106131},{"NoteNumber":60,"Velocity":38,"Duration":115092,"SoundDuration":115092,"Delta":97221224},{"NoteNumber":50,"Velocity":36,"Duration":230184,"SoundDuration":230184,"Delta":97221224},{"NoteNumber":66,"Velocity":39,"Duration":115092,"SoundDuration":115092,"Delta":97336316},{"NoteNumber":69,"Velocity":56,"Duration":456725,"SoundDuration":456725,"Delta":97451409},{"NoteNumber":66,"Velocity":39,"Duration":114181,"SoundDuration":114181,"Delta":97565590},{"NoteNumber":60,"Velocity":39,"Duration":114181,"SoundDuration":114181,"Delta":97679771},{"NoteNumber":43,"Velocity":36,"Duration":228362,"SoundDuration":228362,"Delta":97679771},{"NoteNumber":66,"Velocity":38,"Duration":114181,"SoundDuration":114181,"Delta":97793952},{"NoteNumber":71,"Velocity":52,"Duration":453468,"SoundDuration":453468,"Delta":97908134},{"NoteNumber":67,"Velocity":37,"Duration":113292,"SoundDuration":113292,"Delta":98021723},{"NoteNumber":59,"Velocity":36,"Duration":113292,"SoundDuration":113292,"Delta":98135016},{"NoteNumber":43,"Velocity":34,"Duration":226585,"SoundDuration":226585,"Delta":98135016},{"NoteNumber":67,"Velocity":35,"Duration":113292,"SoundDuration":113292,"Delta":98248309},{"NoteNumber":69,"Velocity":49,"Duration":453171,"SoundDuration":453171,"Delta":98361602},{"NoteNumber":66,"Velocity":35,"Duration":113292,"SoundDuration":113292,"Delta":98474895},{"NoteNumber":62,"Velocity":35,"Duration":113292,"SoundDuration":113292,"Delta":98588188},{"NoteNumber":45,"Velocity":33,"Duration":226585,"SoundDuration":226585,"Delta":98588188},{"NoteNumber":66,"Velocity":35,"Duration":113292,"SoundDuration":113292,"Delta":98701481},{"NoteNumber":69,"Velocity":49,"Duration":463200,"SoundDuration":463200,"Delta":98814774},{"NoteNumber":64,"Velocity":35,"Duration":113441,"SoundDuration":113441,"Delta":98927771},{"NoteNumber":61,"Velocity":35,"Duration":118380,"SoundDuration":118380,"Delta":99041213},{"NoteNumber":45,"Velocity":33,"Duration":236761,"SoundDuration":236761,"Delta":99041213},{"NoteNumber":64,"Velocity":35,"Duration":118380,"SoundDuration":118380,"Delta":99159594},{"NoteNumber":69,"Velocity":42,"Duration":480176,"SoundDuration":480176,"Delta":99277974},{"NoteNumber":50,"Velocity":29,"Duration":2316521,"SoundDuration":2316521,"Delta":99277974},{"NoteNumber":66,"Velocity":31,"Duration":117896,"SoundDuration":117896,"Delta":99404621},{"NoteNumber":62,"Velocity":31,"Duration":117896,"SoundDuration":117896,"Delta":99522517},{"NoteNumber":66,"Velocity":31,"Duration":117736,"SoundDuration":117736,"Delta":99640414},{"NoteNumber":74,"Velocity":39,"Duration":459912,"SoundDuration":459912,"Delta":99758151},{"NoteNumber":54,"Velocity":29,"Duration":459912,"SoundDuration":459912,"Delta":99758151},{"NoteNumber":69,"Velocity":31,"Duration":115092,"SoundDuration":115092,"Delta":99873243},{"NoteNumber":62,"Velocity":31,"Duration":115092,"SoundDuration":115092,"Delta":99988336},{"NoteNumber":69,"Velocity":31,"Duration":114635,"SoundDuration":114635,"Delta":100103428},{"NoteNumber":73,"Velocity":44,"Duration":457481,"SoundDuration":457481,"Delta":100218063},{"NoteNumber":57,"Velocity":29,"Duration":457481,"SoundDuration":457481,"Delta":100218063},{"NoteNumber":69,"Velocity":31,"Duration":114483,"SoundDuration":114483,"Delta":100332698},{"NoteNumber":64,"Velocity":32,"Duration":114181,"SoundDuration":114181,"Delta":100447182},{"NoteNumber":69,"Velocity":32,"Duration":114181,"SoundDuration":114181,"Delta":100561363},{"NoteNumber":76,"Velocity":40,"Duration":462226,"SoundDuration":462226,"Delta":100675545},{"NoteNumber":55,"Velocity":32,"Duration":462226,"SoundDuration":462226,"Delta":100675545},{"NoteNumber":69,"Velocity":34,"Duration":116009,"SoundDuration":116009,"Delta":100791554},{"NoteNumber":64,"Velocity":33,"Duration":116009,"SoundDuration":116009,"Delta":100907563},{"NoteNumber":69,"Velocity":33,"Duration":114198,"SoundDuration":114198,"Delta":101023572},{"NoteNumber":69,"Velocity":39,"Duration":456725,"SoundDuration":456725,"Delta":101137771},{"NoteNumber":54,"Velocity":32,"Duration":456725,"SoundDuration":456725,"Delta":101137771},{"NoteNumber":66,"Velocity":32,"Duration":114181,"SoundDuration":114181,"Delta":101251952},{"NoteNumber":62,"Velocity":32,"Duration":114181,"SoundDuration":114181,"Delta":101366133},{"NoteNumber":66,"Velocity":32,"Duration":114181,"SoundDuration":114181,"Delta":101480315},{"NoteNumber":71,"Velocity":39,"Duration":462818,"SoundDuration":462818,"Delta":101594496},{"NoteNumber":43,"Velocity":30,"Duration":462818,"SoundDuration":462818,"Delta":101594496},{"NoteNumber":50,"Velocity":30,"Duration":462818,"SoundDuration":462818,"Delta":101594496},{"NoteNumber":67,"Velocity":31,"Duration":116009,"SoundDuration":116009,"Delta":101710505},{"NoteNumber":62,"Velocity":31,"Duration":116009,"SoundDuration":116009,"Delta":101826514},{"NoteNumber":67,"Velocity":31,"Duration":114790,"SoundDuration":114790,"Delta":101942524},{"NoteNumber":69,"Velocity":40,"Duration":458388,"SoundDuration":458388,"Delta":102057314},{"NoteNumber":49,"Velocity":29,"Duration":458388,"SoundDuration":458388,"Delta":102057314},{"NoteNumber":45,"Velocity":29,"Duration":917544,"SoundDuration":917544,"Delta":102057314},{"NoteNumber":67,"Velocity":31,"Duration":114634,"SoundDuration":114634,"Delta":102171798},{"NoteNumber":64,"Velocity":31,"Duration":114635,"SoundDuration":114635,"Delta":102286433},{"NoteNumber":67,"Velocity":31,"Duration":114634,"SoundDuration":114634,"Delta":102401068},{"NoteNumber":69,"Velocity":38,"Duration":459156,"SoundDuration":459156,"Delta":102515703},{"NoteNumber":52,"Velocity":29,"Duration":459156,"SoundDuration":459156,"Delta":102515703},{"NoteNumber":67,"Velocity":31,"Duration":114483,"SoundDuration":114483,"Delta":102630035},{"NoteNumber":61,"Velocity":31,"Duration":114940,"SoundDuration":114940,"Delta":102744519},{"NoteNumber":67,"Velocity":31,"Duration":115399,"SoundDuration":115399,"Delta":102859459},{"NoteNumber":69,"Velocity":42,"Duration":478951,"SoundDuration":478951,"Delta":102974859},{"NoteNumber":50,"Velocity":29,"Duration":2308469,"SoundDuration":2308469,"Delta":102974859},{"NoteNumber":66,"Velocity":31,"Duration":117896,"SoundDuration":117896,"Delta":103101505},{"NoteNumber":62,"Velocity":31,"Duration":117896,"SoundDuration":117896,"Delta":103219402},{"NoteNumber":66,"Velocity":31,"Duration":116511,"SoundDuration":116511,"Delta":103337299},{"NoteNumber":74,"Velocity":39,"Duration":454959,"SoundDuration":454959,"Delta":103453810},{"NoteNumber":54,"Velocity":29,"Duration":454959,"SoundDuration":454959,"Delta":103453810},{"NoteNumber":69,"Velocity":31,"Duration":113739,"SoundDuration":113739,"Delta":103567550},{"NoteNumber":62,"Velocity":31,"Duration":113739,"SoundDuration":113739,"Delta":103681290},{"NoteNumber":69,"Velocity":31,"Duration":113739,"SoundDuration":113739,"Delta":103795029},{"NoteNumber":73,"Velocity":44,"Duration":453767,"SoundDuration":453767,"Delta":103908769},{"NoteNumber":57,"Velocity":29,"Duration":227181,"SoundDuration":227181,"Delta":103908769},{"NoteNumber":69,"Velocity":31,"Duration":113441,"SoundDuration":113441,"Delta":104022509},{"NoteNumber":64,"Velocity":32,"Duration":113292,"SoundDuration":113292,"Delta":104135951},{"NoteNumber":58,"Velocity":26,"Duration":226585,"SoundDuration":226585,"Delta":104135951},{"NoteNumber":69,"Velocity":32,"Duration":113292,"SoundDuration":113292,"Delta":104249244},{"NoteNumber":76,"Velocity":40,"Duration":456754,"SoundDuration":456754,"Delta":104362537},{"NoteNumber":57,"Velocity":29,"Duration":229269,"SoundDuration":229269,"Delta":104362537},{"NoteNumber":69,"Velocity":34,"Duration":114634,"SoundDuration":114634,"Delta":104477172},{"NoteNumber":64,"Velocity":33,"Duration":114635,"SoundDuration":114635,"Delta":104591807},{"NoteNumber":55,"Velocity":27,"Duration":227484,"SoundDuration":227484,"Delta":104591807},{"NoteNumber":69,"Velocity":33,"Duration":112849,"SoundDuration":112849,"Delta":104706442},{"NoteNumber":69,"Velocity":40,"Duration":464037,"SoundDuration":464037,"Delta":104819291},{"NoteNumber":54,"Velocity":32,"Duration":464037,"SoundDuration":464037,"Delta":104819291},{"NoteNumber":66,"Velocity":32,"Duration":116009,"SoundDuration":116009,"Delta":104935301},{"NoteNumber":62,"Velocity":32,"Duration":116009,"SoundDuration":116009,"Delta":105051310},{"NoteNumber":66,"Velocity":32,"Duration":116009,"SoundDuration":116009,"Delta":105167319},{"NoteNumber":70,"Velocity":39,"Duration":461538,"SoundDuration":461538,"Delta":105283328},{"NoteNumber":43,"Velocity":30,"Duration":461538,"SoundDuration":461538,"Delta":105283328},{"NoteNumber":50,"Velocity":30,"Duration":461538,"SoundDuration":461538,"Delta":105283328},{"NoteNumber":67,"Velocity":31,"Duration":115384,"SoundDuration":115384,"Delta":105398713},{"NoteNumber":62,"Velocity":31,"Duration":115384,"SoundDuration":115384,"Delta":105514097},{"NoteNumber":67,"Velocity":31,"Duration":115384,"SoundDuration":115384,"Delta":105629482},{"NoteNumber":69,"Velocity":39,"Duration":458789,"SoundDuration":458789,"Delta":105744866},{"NoteNumber":49,"Velocity":29,"Duration":458789,"SoundDuration":458789,"Delta":105744866},{"NoteNumber":45,"Velocity":29,"Duration":917945,"SoundDuration":917945,"Delta":105744866},{"NoteNumber":67,"Velocity":31,"Duration":114634,"SoundDuration":114634,"Delta":105859751},{"NoteNumber":64,"Velocity":31,"Duration":114635,"SoundDuration":114635,"Delta":105974386},{"NoteNumber":67,"Velocity":31,"Duration":114634,"SoundDuration":114634,"Delta":106089021},{"NoteNumber":69,"Velocity":38,"Duration":459156,"SoundDuration":459156,"Delta":106203656},{"NoteNumber":52,"Velocity":29,"Duration":459156,"SoundDuration":459156,"Delta":106203656},{"NoteNumber":67,"Velocity":31,"Duration":114483,"SoundDuration":114483,"Delta":106317989},{"NoteNumber":61,"Velocity":31,"Duration":114940,"SoundDuration":114940,"Delta":106432473},{"NoteNumber":67,"Velocity":31,"Duration":115399,"SoundDuration":115399,"Delta":106547413},{"NoteNumber":69,"Velocity":44,"Duration":464037,"SoundDuration":464037,"Delta":106662812},{"NoteNumber":50,"Velocity":32,"Duration":927357,"SoundDuration":927357,"Delta":106662812},{"NoteNumber":66,"Velocity":31,"Duration":116009,"SoundDuration":116009,"Delta":106778822},{"NoteNumber":62,"Velocity":31,"Duration":116009,"SoundDuration":116009,"Delta":106894831},{"NoteNumber":66,"Velocity":31,"Duration":116009,"SoundDuration":116009,"Delta":107010840},{"NoteNumber":70,"Velocity":37,"Duration":463319,"SoundDuration":463319,"Delta":107126849},{"NoteNumber":43,"Velocity":28,"Duration":463319,"SoundDuration":463319,"Delta":107126849},{"NoteNumber":67,"Velocity":29,"Duration":115830,"SoundDuration":115830,"Delta":107242679},{"NoteNumber":62,"Velocity":28,"Duration":115829,"SoundDuration":115829,"Delta":107358509},{"NoteNumber":67,"Velocity":28,"Duration":115830,"SoundDuration":115830,"Delta":107474339},{"NoteNumber":69,"Velocity":36,"Duration":458938,"SoundDuration":458938,"Delta":107590169},{"NoteNumber":49,"Velocity":26,"Duration":458938,"SoundDuration":458938,"Delta":107590169},{"NoteNumber":45,"Velocity":26,"Duration":920100,"SoundDuration":920100,"Delta":107590169},{"NoteNumber":67,"Velocity":28,"Duration":114634,"SoundDuration":114634,"Delta":107705203},{"NoteNumber":64,"Velocity":28,"Duration":114635,"SoundDuration":114635,"Delta":107819838},{"NoteNumber":67,"Velocity":28,"Duration":114634,"SoundDuration":114634,"Delta":107934473},{"NoteNumber":69,"Velocity":34,"Duration":461161,"SoundDuration":461161,"Delta":108049108},{"NoteNumber":52,"Velocity":26,"Duration":461161,"SoundDuration":461161,"Delta":108049108},{"NoteNumber":67,"Velocity":28,"Duration":114483,"SoundDuration":114483,"Delta":108163440},{"NoteNumber":61,"Velocity":28,"Duration":115460,"SoundDuration":115460,"Delta":108277924},{"NoteNumber":67,"Velocity":28,"Duration":116885,"SoundDuration":116885,"Delta":108393384},{"NoteNumber":69,"Velocity":36,"Duration":461032,"SoundDuration":461032,"Delta":108510270},{"NoteNumber":38,"Velocity":26,"Duration":461032,"SoundDuration":461032,"Delta":108510270},{"NoteNumber":65,"Velocity":28,"Duration":115612,"SoundDuration":115612,"Delta":108626811},{"NoteNumber":62,"Velocity":28,"Duration":114697,"SoundDuration":114697,"Delta":108742424},{"NoteNumber":65,"Velocity":28,"Duration":114181,"SoundDuration":114181,"Delta":108857121},{"NoteNumber":69,"Velocity":34,"Duration":457935,"SoundDuration":457935,"Delta":108971302},{"NoteNumber":41,"Velocity":26,"Duration":457935,"SoundDuration":457935,"Delta":108971302},{"NoteNumber":65,"Velocity":28,"Duration":114483,"SoundDuration":114483,"Delta":109085484},{"NoteNumber":60,"Velocity":28,"Duration":114634,"SoundDuration":114634,"Delta":109199967},{"NoteNumber":65,"Velocity":28,"Duration":114634,"SoundDuration":114634,"Delta":109314602},{"NoteNumber":69,"Velocity":36,"Duration":449438,"SoundDuration":449438,"Delta":109429237},{"NoteNumber":45,"Velocity":26,"Duration":449438,"SoundDuration":449438,"Delta":109429237},{"NoteNumber":64,"Velocity":28,"Duration":112359,"SoundDuration":112359,"Delta":109541597},{"NoteNumber":60,"Velocity":28,"Duration":112359,"SoundDuration":112359,"Delta":109653956},{"NoteNumber":64,"Velocity":28,"Duration":112359,"SoundDuration":112359,"Delta":109766316},{"NoteNumber":67,"Velocity":34,"Duration":458397,"SoundDuration":458397,"Delta":109878675},{"NoteNumber":48,"Velocity":26,"Duration":458397,"SoundDuration":458397,"Delta":109878675},{"NoteNumber":64,"Velocity":28,"Duration":114483,"SoundDuration":114483,"Delta":109992249},{"NoteNumber":60,"Velocity":28,"Duration":114940,"SoundDuration":114940,"Delta":110106733},{"NoteNumber":64,"Velocity":28,"Duration":115399,"SoundDuration":115399,"Delta":110221673},{"NoteNumber":67,"Velocity":36,"Duration":456162,"SoundDuration":456162,"Delta":110337073},{"NoteNumber":36,"Velocity":26,"Duration":456162,"SoundDuration":456162,"Delta":110337073},{"NoteNumber":63,"Velocity":28,"Duration":114504,"SoundDuration":114504,"Delta":110452310},{"NoteNumber":60,"Velocity":28,"Duration":113637,"SoundDuration":113637,"Delta":110566815},{"NoteNumber":63,"Velocity":28,"Duration":112782,"SoundDuration":112782,"Delta":110680452},{"NoteNumber":67,"Velocity":34,"Duration":458397,"SoundDuration":458397,"Delta":110793235},{"NoteNumber":39,"Velocity":26,"Duration":458397,"SoundDuration":458397,"Delta":110793235},{"NoteNumber":63,"Velocity":28,"Duration":114483,"SoundDuration":114483,"Delta":110906809},{"NoteNumber":58,"Velocity":28,"Duration":114940,"SoundDuration":114940,"Delta":111021293},{"NoteNumber":63,"Velocity":28,"Duration":115399,"SoundDuration":115399,"Delta":111136233},{"NoteNumber":67,"Velocity":36,"Duration":458539,"SoundDuration":458539,"Delta":111251633},{"NoteNumber":43,"Velocity":26,"Duration":458539,"SoundDuration":458539,"Delta":111251633},{"NoteNumber":62,"Velocity":28,"Duration":114634,"SoundDuration":114634,"Delta":111366268},{"NoteNumber":58,"Velocity":28,"Duration":114635,"SoundDuration":114635,"Delta":111480903},{"NoteNumber":62,"Velocity":28,"Duration":114634,"SoundDuration":114634,"Delta":111595538},{"NoteNumber":65,"Velocity":34,"Duration":458848,"SoundDuration":458848,"Delta":111710173},{"NoteNumber":46,"Velocity":26,"Duration":458848,"SoundDuration":458848,"Delta":111710173},{"NoteNumber":62,"Velocity":28,"Duration":114483,"SoundDuration":114483,"Delta":111824506},{"NoteNumber":58,"Velocity":28,"Duration":114940,"SoundDuration":114940,"Delta":111938989},{"NoteNumber":62,"Velocity":28,"Duration":115092,"SoundDuration":115092,"Delta":112053929},{"NoteNumber":65,"Velocity":42,"Duration":460289,"SoundDuration":460289,"Delta":112169022},{"NoteNumber":34,"Velocity":29,"Duration":460289,"SoundDuration":460289,"Delta":112169022},{"NoteNumber":62,"Velocity":32,"Duration":115612,"SoundDuration":115612,"Delta":112284821},{"NoteNumber":58,"Velocity":32,"Duration":114697,"SoundDuration":114697,"Delta":112400433},{"NoteNumber":62,"Velocity":32,"Duration":114181,"SoundDuration":114181,"Delta":112515130},{"NoteNumber":65,"Velocity":39,"Duration":459004,"SoundDuration":459004,"Delta":112629312},{"NoteNumber":38,"Velocity":30,"Duration":459004,"SoundDuration":459004,"Delta":112629312},{"NoteNumber":62,"Velocity":33,"Duration":114483,"SoundDuration":114483,"Delta":112743493},{"NoteNumber":57,"Velocity":33,"Duration":114940,"SoundDuration":114940,"Delta":112857977},{"NoteNumber":62,"Velocity":33,"Duration":115399,"SoundDuration":115399,"Delta":112972917},{"NoteNumber":65,"Velocity":44,"Duration":458539,"SoundDuration":458539,"Delta":113088316},{"NoteNumber":41,"Velocity":31,"Duration":458539,"SoundDuration":458539,"Delta":113088316},{"NoteNumber":60,"Velocity":34,"Duration":114634,"SoundDuration":114634,"Delta":113202951},{"NoteNumber":57,"Velocity":34,"Duration":114635,"SoundDuration":114635,"Delta":113317586},{"NoteNumber":60,"Velocity":34,"Duration":114634,"SoundDuration":114634,"Delta":113432221},{"NoteNumber":64,"Velocity":43,"Duration":459156,"SoundDuration":459156,"Delta":113546856},{"NoteNumber":45,"Velocity":32,"Duration":459156,"SoundDuration":459156,"Delta":113546856},{"NoteNumber":60,"Velocity":35,"Duration":114483,"SoundDuration":114483,"Delta":113661189},{"NoteNumber":57,"Velocity":35,"Duration":114940,"SoundDuration":114940,"Delta":113775673},{"NoteNumber":60,"Velocity":35,"Duration":115399,"SoundDuration":115399,"Delta":113890613},{"NoteNumber":64,"Velocity":46,"Duration":461411,"SoundDuration":461411,"Delta":114006013},{"NoteNumber":33,"Velocity":29,"Duration":461411,"SoundDuration":461411,"Delta":114006013},{"NoteNumber":60,"Velocity":34,"Duration":115612,"SoundDuration":115612,"Delta":114122933},{"NoteNumber":57,"Velocity":36,"Duration":114697,"SoundDuration":114697,"Delta":114238546},{"NoteNumber":60,"Velocity":38,"Duration":114181,"SoundDuration":114181,"Delta":114353243},{"NoteNumber":72,"Velocity":50,"Duration":459004,"SoundDuration":459004,"Delta":114467424},{"NoteNumber":34,"Velocity":32,"Duration":459004,"SoundDuration":459004,"Delta":114467424},{"NoteNumber":67,"Velocity":38,"Duration":114483,"SoundDuration":114483,"Delta":114581605},{"NoteNumber":64,"Velocity":38,"Duration":114940,"SoundDuration":114940,"Delta":114696089},{"NoteNumber":67,"Velocity":38,"Duration":115399,"SoundDuration":115399,"Delta":114811029},{"NoteNumber":72,"Velocity":51,"Duration":464830,"SoundDuration":464830,"Delta":114926429},{"NoteNumber":33,"Velocity":36,"Duration":464830,"SoundDuration":464830,"Delta":114926429},{"NoteNumber":69,"Velocity":38,"Duration":116009,"SoundDuration":116009,"Delta":115041980},{"NoteNumber":65,"Velocity":37,"Duration":116477,"SoundDuration":116477,"Delta":115157989},{"NoteNumber":69,"Velocity":34,"Duration":116792,"SoundDuration":116792,"Delta":115274467},{"NoteNumber":72,"Velocity":43,"Duration":493385,"SoundDuration":493385,"Delta":115391260},{"NoteNumber":31,"Velocity":32,"Duration":493385,"SoundDuration":493385,"Delta":115391260},{"NoteNumber":70,"Velocity":35,"Duration":121358,"SoundDuration":121358,"Delta":115509165},{"NoteNumber":64,"Velocity":35,"Duration":125020,"SoundDuration":125020,"Delta":115630523},{"NoteNumber":70,"Velocity":35,"Duration":129102,"SoundDuration":129102,"Delta":115755543},{"NoteNumber":72,"Velocity":52,"Duration":490968,"SoundDuration":490968,"Delta":115884645},{"NoteNumber":69,"Velocity":38,"Duration":124130,"SoundDuration":124130,"Delta":116012417},{"NoteNumber":65,"Velocity":38,"Duration":120684,"SoundDuration":120684,"Delta":116136547},{"NoteNumber":29,"Velocity":33,"Duration":120684,"SoundDuration":120684,"Delta":116136547},{"NoteNumber":69,"Velocity":38,"Duration":118381,"SoundDuration":118381,"Delta":116257232},{"NoteNumber":77,"Velocity":53,"Duration":463904,"SoundDuration":463904,"Delta":116375614},{"NoteNumber":69,"Velocity":43,"Duration":115551,"SoundDuration":115551,"Delta":116491948},{"NoteNumber":65,"Velocity":44,"Duration":116009,"SoundDuration":116009,"Delta":116607499},{"NoteNumber":41,"Velocity":33,"Duration":116009,"SoundDuration":116009,"Delta":116607499},{"NoteNumber":69,"Velocity":44,"Duration":116009,"SoundDuration":116009,"Delta":116723509},{"NoteNumber":72,"Velocity":52,"Duration":116792,"SoundDuration":116792,"Delta":116839518},{"NoteNumber":76,"Velocity":52,"Duration":462085,"SoundDuration":462085,"Delta":116839518},{"NoteNumber":69,"Velocity":38,"Duration":116013,"SoundDuration":116013,"Delta":116956310},{"NoteNumber":64,"Velocity":38,"Duration":115093,"SoundDuration":115093,"Delta":117072324},{"NoteNumber":45,"Velocity":33,"Duration":115093,"SoundDuration":115093,"Delta":117072324},{"NoteNumber":69,"Velocity":38,"Duration":114185,"SoundDuration":114185,"Delta":117187418},{"NoteNumber":70,"Velocity":51,"Duration":114034,"SoundDuration":114034,"Delta":117301603},{"NoteNumber":74,"Velocity":51,"Duration":459619,"SoundDuration":459619,"Delta":117301603},{"NoteNumber":65,"Velocity":34,"Duration":114787,"SoundDuration":114787,"Delta":117415637},{"NoteNumber":62,"Velocity":34,"Duration":115399,"SoundDuration":115399,"Delta":117530425},{"NoteNumber":46,"Velocity":33,"Duration":115399,"SoundDuration":115399,"Delta":117530425},{"NoteNumber":65,"Velocity":34,"Duration":115398,"SoundDuration":115398,"Delta":117645824},{"NoteNumber":69,"Velocity":50,"Duration":115553,"SoundDuration":115553,"Delta":117761222},{"NoteNumber":74,"Velocity":50,"Duration":459163,"SoundDuration":459163,"Delta":117761222},{"NoteNumber":65,"Velocity":36,"Duration":115092,"SoundDuration":115092,"Delta":117876776},{"NoteNumber":62,"Velocity":36,"Duration":114483,"SoundDuration":114483,"Delta":117991868},{"NoteNumber":50,"Velocity":33,"Duration":228517,"SoundDuration":228517,"Delta":117991868},{"NoteNumber":65,"Velocity":36,"Duration":114034,"SoundDuration":114034,"Delta":118106352},{"NoteNumber":69,"Velocity":49,"Duration":113441,"SoundDuration":113441,"Delta":118220386},{"NoteNumber":72,"Velocity":49,"Duration":456001,"SoundDuration":456001,"Delta":118220386},{"NoteNumber":65,"Velocity":35,"Duration":113590,"SoundDuration":113590,"Delta":118333828},{"NoteNumber":60,"Velocity":35,"Duration":114181,"SoundDuration":114181,"Delta":118447419},{"NoteNumber":53,"Velocity":33,"Duration":228968,"SoundDuration":228968,"Delta":118447419},{"NoteNumber":65,"Velocity":35,"Duration":114787,"SoundDuration":114787,"Delta":118561600},{"NoteNumber":69,"Velocity":50,"Duration":113739,"SoundDuration":113739,"Delta":118676388},{"NoteNumber":72,"Velocity":50,"Duration":452735,"SoundDuration":452735,"Delta":118676388},{"NoteNumber":64,"Velocity":36,"Duration":113441,"SoundDuration":113441,"Delta":118790128},{"NoteNumber":60,"Velocity":36,"Duration":112997,"SoundDuration":112997,"Delta":118903569},{"NoteNumber":57,"Velocity":33,"Duration":225554,"SoundDuration":225554,"Delta":118903569},{"NoteNumber":64,"Velocity":36,"Duration":112556,"SoundDuration":112556,"Delta":119016567},{"NoteNumber":67,"Velocity":49,"Duration":112124,"SoundDuration":112124,"Delta":119129124},{"NoteNumber":70,"Velocity":49,"Duration":450092,"SoundDuration":450092,"Delta":119129124},{"NoteNumber":64,"Velocity":35,"Duration":112267,"SoundDuration":112267,"Delta":119241248},{"NoteNumber":58,"Velocity":35,"Duration":112703,"SoundDuration":112703,"Delta":119353516},{"NoteNumber":36,"Velocity":33,"Duration":225700,"SoundDuration":225700,"Delta":119353516},{"NoteNumber":64,"Velocity":35,"Duration":112997,"SoundDuration":112997,"Delta":119466219},{"NoteNumber":67,"Velocity":50,"Duration":112849,"SoundDuration":112849,"Delta":119579216},{"NoteNumber":70,"Velocity":50,"Duration":453620,"SoundDuration":453620,"Delta":119579216},{"NoteNumber":62,"Velocity":36,"Duration":113292,"SoundDuration":113292,"Delta":119692066},{"NoteNumber":58,"Velocity":36,"Duration":113590,"SoundDuration":113590,"Delta":119805359},{"NoteNumber":38,"Velocity":33,"Duration":227477,"SoundDuration":227477,"Delta":119805359},{"NoteNumber":62,"Velocity":36,"Duration":113886,"SoundDuration":113886,"Delta":119918950},{"NoteNumber":65,"Velocity":49,"Duration":114181,"SoundDuration":114181,"Delta":120032837},{"NoteNumber":69,"Velocity":49,"Duration":459002,"SoundDuration":459002,"Delta":120032837},{"NoteNumber":62,"Velocity":36,"Duration":114635,"SoundDuration":114635,"Delta":120147018},{"NoteNumber":57,"Velocity":36,"Duration":114939,"SoundDuration":114939,"Delta":120261653},{"NoteNumber":41,"Velocity":33,"Duration":230186,"SoundDuration":230186,"Delta":120261653},{"NoteNumber":62,"Velocity":36,"Duration":115246,"SoundDuration":115246,"Delta":120376593},{"NoteNumber":64,"Velocity":48,"Duration":116009,"SoundDuration":116009,"Delta":120491839},{"NoteNumber":69,"Velocity":48,"Duration":463125,"SoundDuration":463125,"Delta":120491839},{"NoteNumber":61,"Velocity":36,"Duration":116009,"SoundDuration":116009,"Delta":120607848},{"NoteNumber":57,"Velocity":36,"Duration":115553,"SoundDuration":115553,"Delta":120723858},{"NoteNumber":45,"Velocity":33,"Duration":231106,"SoundDuration":231106,"Delta":120723858},{"NoteNumber":61,"Velocity":36,"Duration":115553,"SoundDuration":115553,"Delta":120839411},{"NoteNumber":67,"Velocity":47,"Duration":460374,"SoundDuration":460374,"Delta":120954965},{"NoteNumber":64,"Velocity":37,"Duration":114939,"SoundDuration":114939,"Delta":121069600},{"NoteNumber":57,"Velocity":37,"Duration":115246,"SoundDuration":115246,"Delta":121184540},{"NoteNumber":49,"Velocity":33,"Duration":230799,"SoundDuration":230799,"Delta":121184540},{"NoteNumber":64,"Velocity":37,"Duration":115553,"SoundDuration":115553,"Delta":121299786},{"NoteNumber":67,"Velocity":48,"Duration":457632,"SoundDuration":457632,"Delta":121415339},{"NoteNumber":64,"Velocity":38,"Duration":114634,"SoundDuration":114634,"Delta":121529974},{"NoteNumber":57,"Velocity":42,"Duration":114181,"SoundDuration":114181,"Delta":121644609},{"NoteNumber":50,"Velocity":33,"Duration":114181,"SoundDuration":114181,"Delta":121644609},{"NoteNumber":64,"Velocity":45,"Duration":114181,"SoundDuration":114181,"Delta":121758791},{"NoteNumber":65,"Velocity":52,"Duration":453917,"SoundDuration":453917,"Delta":121872972},{"NoteNumber":52,"Velocity":33,"Duration":113739,"SoundDuration":113739,"Delta":121872972},{"NoteNumber":62,"Velocity":43,"Duration":113739,"SoundDuration":113739,"Delta":121986712},{"NoteNumber":57,"Velocity":44,"Duration":113292,"SoundDuration":113292,"Delta":122100451},{"NoteNumber":53,"Velocity":33,"Duration":113292,"SoundDuration":113292,"Delta":122100451},{"NoteNumber":62,"Velocity":44,"Duration":113145,"SoundDuration":113145,"Delta":122213744},{"NoteNumber":67,"Velocity":49,"Duration":453767,"SoundDuration":453767,"Delta":122326890},{"NoteNumber":46,"Velocity":33,"Duration":226142,"SoundDuration":226142,"Delta":122326890},{"NoteNumber":65,"Velocity":35,"Duration":113145,"SoundDuration":113145,"Delta":122439887},{"NoteNumber":62,"Velocity":35,"Duration":113590,"SoundDuration":113590,"Delta":122553032},{"NoteNumber":65,"Velocity":35,"Duration":114034,"SoundDuration":114034,"Delta":122666623},{"NoteNumber":69,"Velocity":45,"Duration":461446,"SoundDuration":461446,"Delta":122780657},{"NoteNumber":48,"Velocity":33,"Duration":229727,"SoundDuration":229727,"Delta":122780657},{"NoteNumber":64,"Velocity":33,"Duration":115092,"SoundDuration":115092,"Delta":122895292},{"NoteNumber":60,"Velocity":33,"Duration":115553,"SoundDuration":115553,"Delta":123010385},{"NoteNumber":64,"Velocity":33,"Duration":116165,"SoundDuration":116165,"Delta":123125938},{"NoteNumber":65,"Velocity":47,"Duration":479402,"SoundDuration":479402,"Delta":123242104},{"NoteNumber":60,"Velocity":35,"Duration":117896,"SoundDuration":117896,"Delta":123368750},{"NoteNumber":57,"Velocity":35,"Duration":117896,"SoundDuration":117896,"Delta":123486647},{"NoteNumber":53,"Velocity":33,"Duration":234858,"SoundDuration":234858,"Delta":123486647},{"NoteNumber":60,"Velocity":35,"Duration":116962,"SoundDuration":116962,"Delta":123604544},{"NoteNumber":67,"Velocity":49,"Duration":459759,"SoundDuration":459759,"Delta":123721506},{"NoteNumber":62,"Velocity":35,"Duration":115092,"SoundDuration":115092,"Delta":123836598},{"NoteNumber":58,"Velocity":35,"Duration":114939,"SoundDuration":114939,"Delta":123951691},{"NoteNumber":46,"Velocity":33,"Duration":229574,"SoundDuration":229574,"Delta":123951691},{"NoteNumber":62,"Velocity":35,"Duration":114634,"SoundDuration":114634,"Delta":124066631},{"NoteNumber":69,"Velocity":49,"Duration":456277,"SoundDuration":456277,"Delta":124181266},{"NoteNumber":63,"Velocity":35,"Duration":114213,"SoundDuration":114213,"Delta":124295769},{"NoteNumber":60,"Velocity":36,"Duration":113924,"SoundDuration":113924,"Delta":124409983},{"NoteNumber":41,"Velocity":33,"Duration":227560,"SoundDuration":227560,"Delta":124409983},{"NoteNumber":63,"Velocity":36,"Duration":113636,"SoundDuration":113636,"Delta":124523907},{"NoteNumber":69,"Velocity":52,"Duration":450992,"SoundDuration":450992,"Delta":124637544},{"NoteNumber":63,"Velocity":38,"Duration":112923,"SoundDuration":112923,"Delta":124750751},{"NoteNumber":60,"Velocity":38,"Duration":112641,"SoundDuration":112641,"Delta":124863675},{"NoteNumber":41,"Velocity":36,"Duration":224860,"SoundDuration":224860,"Delta":124863675},{"NoteNumber":63,"Velocity":39,"Duration":112219,"SoundDuration":112219,"Delta":124976316},{"NoteNumber":69,"Velocity":53,"Duration":456725,"SoundDuration":456725,"Delta":125088536},{"NoteNumber":63,"Velocity":37,"Duration":114181,"SoundDuration":114181,"Delta":125202717},{"NoteNumber":60,"Velocity":36,"Duration":114181,"SoundDuration":114181,"Delta":125316898},{"NoteNumber":34,"Velocity":36,"Duration":228362,"SoundDuration":228362,"Delta":125316898},{"NoteNumber":63,"Velocity":36,"Duration":114181,"SoundDuration":114181,"Delta":125431080},{"NoteNumber":70,"Velocity":49,"Duration":447760,"SoundDuration":447760,"Delta":125545261},{"NoteNumber":65,"Velocity":37,"Duration":111940,"SoundDuration":111940,"Delta":125657201},{"NoteNumber":62,"Velocity":36,"Duration":111940,"SoundDuration":111940,"Delta":125769141},{"NoteNumber":34,"Velocity":34,"Duration":223880,"SoundDuration":223880,"Delta":125769141},{"NoteNumber":65,"Velocity":35,"Duration":111940,"SoundDuration":111940,"Delta":125881082},{"NoteNumber":69,"Velocity":49,"Duration":452830,"SoundDuration":452830,"Delta":125993022},{"NoteNumber":65,"Velocity":35,"Duration":113207,"SoundDuration":113207,"Delta":126106229},{"NoteNumber":60,"Velocity":35,"Duration":113207,"SoundDuration":113207,"Delta":126219437},{"NoteNumber":36,"Velocity":33,"Duration":226415,"SoundDuration":226415,"Delta":126219437},{"NoteNumber":65,"Velocity":35,"Duration":113207,"SoundDuration":113207,"Delta":126332644},{"NoteNumber":67,"Velocity":49,"Duration":455837,"SoundDuration":455837,"Delta":126445852},{"NoteNumber":64,"Velocity":35,"Duration":113441,"SoundDuration":113441,"Delta":126558821},{"NoteNumber":60,"Velocity":35,"Duration":114332,"SoundDuration":114332,"Delta":126672263},{"NoteNumber":36,"Velocity":33,"Duration":229426,"SoundDuration":229426,"Delta":126672263},{"NoteNumber":64,"Velocity":35,"Duration":115093,"SoundDuration":115093,"Delta":126786595},{"NoteNumber":69,"Velocity":47,"Duration":473307,"SoundDuration":473307,"Delta":126901689},{"NoteNumber":65,"Velocity":35,"Duration":115553,"SoundDuration":115553,"Delta":127028335},{"NoteNumber":63,"Velocity":35,"Duration":115553,"SoundDuration":115553,"Delta":127143889},{"NoteNumber":41,"Velocity":33,"Duration":231106,"SoundDuration":231106,"Delta":127143889},{"NoteNumber":65,"Velocity":35,"Duration":115553,"SoundDuration":115553,"Delta":127259442},{"NoteNumber":70,"Velocity":49,"Duration":459912,"SoundDuration":459912,"Delta":127374996},{"NoteNumber":67,"Velocity":35,"Duration":115092,"SoundDuration":115092,"Delta":127490088},{"NoteNumber":63,"Velocity":35,"Duration":115092,"SoundDuration":115092,"Delta":127605181},{"NoteNumber":53,"Velocity":33,"Duration":229727,"SoundDuration":229727,"Delta":127605181},{"NoteNumber":67,"Velocity":35,"Duration":114635,"SoundDuration":114635,"Delta":127720273},{"NoteNumber":72,"Velocity":49,"Duration":457632,"SoundDuration":457632,"Delta":127834908},{"NoteNumber":69,"Velocity":35,"Duration":114634,"SoundDuration":114634,"Delta":127949543},{"NoteNumber":63,"Velocity":36,"Duration":114181,"SoundDuration":114181,"Delta":128064178},{"NoteNumber":53,"Velocity":33,"Duration":228362,"SoundDuration":228362,"Delta":128064178},{"NoteNumber":69,"Velocity":36,"Duration":114181,"SoundDuration":114181,"Delta":128178360},{"NoteNumber":72,"Velocity":52,"Duration":461460,"SoundDuration":461460,"Delta":128292541},{"NoteNumber":69,"Velocity":38,"Duration":115553,"SoundDuration":115553,"Delta":128408094},{"NoteNumber":63,"Velocity":38,"Duration":115553,"SoundDuration":115553,"Delta":128523648},{"NoteNumber":53,"Velocity":36,"Duration":230353,"SoundDuration":230353,"Delta":128523648},{"NoteNumber":69,"Velocity":39,"Duration":114799,"SoundDuration":114799,"Delta":128639201},{"NoteNumber":72,"Velocity":56,"Duration":456725,"SoundDuration":456725,"Delta":128754001},{"NoteNumber":69,"Velocity":39,"Duration":114181,"SoundDuration":114181,"Delta":128868183},{"NoteNumber":63,"Velocity":39,"Duration":114181,"SoundDuration":114181,"Delta":128982364},{"NoteNumber":46,"Velocity":36,"Duration":228362,"SoundDuration":228362,"Delta":128982364},{"NoteNumber":69,"Velocity":38,"Duration":114181,"SoundDuration":114181,"Delta":129096545},{"NoteNumber":74,"Velocity":52,"Duration":453468,"SoundDuration":453468,"Delta":129210726},{"NoteNumber":70,"Velocity":37,"Duration":113292,"SoundDuration":113292,"Delta":129324316},{"NoteNumber":62,"Velocity":36,"Duration":113292,"SoundDuration":113292,"Delta":129437609},{"NoteNumber":46,"Velocity":32,"Duration":226585,"SoundDuration":226585,"Delta":129437609},{"NoteNumber":70,"Velocity":35,"Duration":113292,"SoundDuration":113292,"Delta":129550902},{"NoteNumber":72,"Velocity":49,"Duration":453172,"SoundDuration":453172,"Delta":129664195},{"NoteNumber":69,"Velocity":34,"Duration":113292,"SoundDuration":113292,"Delta":129777488},{"NoteNumber":65,"Velocity":34,"Duration":113292,"SoundDuration":113292,"Delta":129890781},{"NoteNumber":48,"Velocity":33,"Duration":226585,"SoundDuration":226585,"Delta":129890781},{"NoteNumber":69,"Velocity":34,"Duration":113292,"SoundDuration":113292,"Delta":130004074},{"NoteNumber":72,"Velocity":47,"Duration":463200,"SoundDuration":463200,"Delta":130117367},{"NoteNumber":67,"Velocity":34,"Duration":113441,"SoundDuration":113441,"Delta":130230364},{"NoteNumber":64,"Velocity":33,"Duration":118380,"SoundDuration":118380,"Delta":130343806},{"NoteNumber":48,"Velocity":33,"Duration":236761,"SoundDuration":236761,"Delta":130343806},{"NoteNumber":67,"Velocity":32,"Duration":118380,"SoundDuration":118380,"Delta":130462186},{"NoteNumber":72,"Velocity":42,"Duration":480176,"SoundDuration":480176,"Delta":130580567},{"NoteNumber":53,"Velocity":29,"Duration":2319403,"SoundDuration":2319403,"Delta":130580567},{"NoteNumber":69,"Velocity":31,"Duration":117896,"SoundDuration":117896,"Delta":130707213},{"NoteNumber":65,"Velocity":31,"Duration":117896,"SoundDuration":117896,"Delta":130825110},{"NoteNumber":69,"Velocity":31,"Duration":117736,"SoundDuration":117736,"Delta":130943007},{"NoteNumber":77,"Velocity":39,"Duration":460370,"SoundDuration":460370,"Delta":131060744},{"NoteNumber":57,"Velocity":29,"Duration":460370,"SoundDuration":460370,"Delta":131060744},{"NoteNumber":72,"Velocity":31,"Duration":115092,"SoundDuration":115092,"Delta":131175836},{"NoteNumber":65,"Velocity":31,"Duration":115092,"SoundDuration":115092,"Delta":131290929},{"NoteNumber":72,"Velocity":31,"Duration":115092,"SoundDuration":115092,"Delta":131406021},{"NoteNumber":76,"Velocity":44,"Duration":458388,"SoundDuration":458388,"Delta":131521114},{"NoteNumber":60,"Velocity":29,"Duration":458388,"SoundDuration":458388,"Delta":131521114},{"NoteNumber":72,"Velocity":31,"Duration":114635,"SoundDuration":114635,"Delta":131635749},{"NoteNumber":67,"Velocity":32,"Duration":114634,"SoundDuration":114634,"Delta":131750384},{"NoteNumber":72,"Velocity":32,"Duration":114483,"SoundDuration":114483,"Delta":131865019},{"NoteNumber":79,"Velocity":40,"Duration":456430,"SoundDuration":456430,"Delta":131979502},{"NoteNumber":58,"Velocity":32,"Duration":456430,"SoundDuration":456430,"Delta":131979502},{"NoteNumber":72,"Velocity":34,"Duration":114181,"SoundDuration":114181,"Delta":132093684},{"NoteNumber":67,"Velocity":33,"Duration":114181,"SoundDuration":114181,"Delta":132207865},{"NoteNumber":72,"Velocity":33,"Duration":113886,"SoundDuration":113886,"Delta":132322046},{"NoteNumber":72,"Velocity":44,"Duration":464036,"SoundDuration":464036,"Delta":132435933},{"NoteNumber":57,"Velocity":32,"Duration":464036,"SoundDuration":464036,"Delta":132435933},{"NoteNumber":69,"Velocity":32,"Duration":116009,"SoundDuration":116009,"Delta":132551942},{"NoteNumber":65,"Velocity":32,"Duration":116009,"SoundDuration":116009,"Delta":132667952},{"NoteNumber":69,"Velocity":32,"Duration":116009,"SoundDuration":116009,"Delta":132783961},{"NoteNumber":74,"Velocity":39,"Duration":455116,"SoundDuration":455116,"Delta":132899970},{"NoteNumber":46,"Velocity":30,"Duration":455116,"SoundDuration":455116,"Delta":132899970},{"NoteNumber":53,"Velocity":30,"Duration":455116,"SoundDuration":455116,"Delta":132899970},{"NoteNumber":70,"Velocity":31,"Duration":113292,"SoundDuration":113292,"Delta":133014169},{"NoteNumber":65,"Velocity":31,"Duration":113590,"SoundDuration":113590,"Delta":133127462},{"NoteNumber":70,"Velocity":31,"Duration":114034,"SoundDuration":114034,"Delta":133241052},{"NoteNumber":72,"Velocity":40,"Duration":458388,"SoundDuration":458388,"Delta":133355086},{"NoteNumber":52,"Velocity":29,"Duration":458388,"SoundDuration":458388,"Delta":133355086},{"NoteNumber":48,"Velocity":29,"Duration":922860,"SoundDuration":922860,"Delta":133355086},{"NoteNumber":70,"Velocity":31,"Duration":114634,"SoundDuration":114634,"Delta":133469570},{"NoteNumber":67,"Velocity":31,"Duration":114634,"SoundDuration":114634,"Delta":133584205},{"NoteNumber":70,"Velocity":31,"Duration":114635,"SoundDuration":114635,"Delta":133698840},{"NoteNumber":72,"Velocity":38,"Duration":464471,"SoundDuration":464471,"Delta":133813475},{"NoteNumber":55,"Velocity":29,"Duration":464471,"SoundDuration":464471,"Delta":133813475},{"NoteNumber":70,"Velocity":31,"Duration":114483,"SoundDuration":114483,"Delta":133927808},{"NoteNumber":64,"Velocity":31,"Duration":116291,"SoundDuration":116291,"Delta":134042291},{"NoteNumber":70,"Velocity":31,"Duration":119363,"SoundDuration":119363,"Delta":134158583},{"NoteNumber":72,"Velocity":42,"Duration":485334,"SoundDuration":485334,"Delta":134277947},{"NoteNumber":53,"Velocity":29,"Duration":2329819,"SoundDuration":2329819,"Delta":134277947},{"NoteNumber":69,"Velocity":31,"Duration":118110,"SoundDuration":118110,"Delta":134408951},{"NoteNumber":65,"Velocity":31,"Duration":118110,"SoundDuration":118110,"Delta":134527061},{"NoteNumber":69,"Velocity":31,"Duration":118110,"SoundDuration":118110,"Delta":134645171},{"NoteNumber":77,"Velocity":39,"Duration":463320,"SoundDuration":463320,"Delta":134763282},{"NoteNumber":57,"Velocity":29,"Duration":463320,"SoundDuration":463320,"Delta":134763282},{"NoteNumber":72,"Velocity":31,"Duration":115830,"SoundDuration":115830,"Delta":134879112},{"NoteNumber":65,"Velocity":31,"Duration":115830,"SoundDuration":115830,"Delta":134994942},{"NoteNumber":72,"Velocity":31,"Duration":115829,"SoundDuration":115829,"Delta":135110772},{"NoteNumber":76,"Velocity":44,"Duration":459774,"SoundDuration":459774,"Delta":135226602},{"NoteNumber":60,"Velocity":29,"Duration":230474,"SoundDuration":230474,"Delta":135226602},{"NoteNumber":72,"Velocity":31,"Duration":115089,"SoundDuration":115089,"Delta":135341986},{"NoteNumber":67,"Velocity":32,"Duration":114796,"SoundDuration":114796,"Delta":135457076},{"NoteNumber":61,"Velocity":26,"Duration":229300,"SoundDuration":229300,"Delta":135457076},{"NoteNumber":72,"Velocity":32,"Duration":114503,"SoundDuration":114503,"Delta":135571872},{"NoteNumber":79,"Velocity":40,"Duration":456274,"SoundDuration":456274,"Delta":135686376},{"NoteNumber":60,"Velocity":29,"Duration":228137,"SoundDuration":228137,"Delta":135686376},{"NoteNumber":72,"Velocity":34,"Duration":114068,"SoundDuration":114068,"Delta":135800444},{"NoteNumber":67,"Velocity":33,"Duration":114068,"SoundDuration":114068,"Delta":135914513},{"NoteNumber":58,"Velocity":27,"Duration":228137,"SoundDuration":228137,"Delta":135914513},{"NoteNumber":72,"Velocity":33,"Duration":114068,"SoundDuration":114068,"Delta":136028581},{"NoteNumber":72,"Velocity":44,"Duration":465115,"SoundDuration":465115,"Delta":136142650},{"NoteNumber":57,"Velocity":32,"Duration":465115,"SoundDuration":465115,"Delta":136142650},{"NoteNumber":69,"Velocity":32,"Duration":116279,"SoundDuration":116279,"Delta":136258929},{"NoteNumber":65,"Velocity":32,"Duration":116278,"SoundDuration":116278,"Delta":136375208},{"NoteNumber":69,"Velocity":32,"Duration":116278,"SoundDuration":116278,"Delta":136491487},{"NoteNumber":73,"Velocity":39,"Duration":468750,"SoundDuration":468750,"Delta":136607766},{"NoteNumber":46,"Velocity":30,"Duration":468750,"SoundDuration":468750,"Delta":136607766},{"NoteNumber":53,"Velocity":30,"Duration":468750,"SoundDuration":468750,"Delta":136607766},{"NoteNumber":70,"Velocity":31,"Duration":117187,"SoundDuration":117187,"Delta":136724953},{"NoteNumber":65,"Velocity":31,"Duration":117187,"SoundDuration":117187,"Delta":136842141},{"NoteNumber":70,"Velocity":31,"Duration":117187,"SoundDuration":117187,"Delta":136959328},{"NoteNumber":72,"Velocity":39,"Duration":473844,"SoundDuration":473844,"Delta":137076516},{"NoteNumber":52,"Velocity":29,"Duration":473844,"SoundDuration":473844,"Delta":137076516},{"NoteNumber":48,"Velocity":29,"Duration":948786,"SoundDuration":948786,"Delta":137076516},{"NoteNumber":70,"Velocity":31,"Duration":118577,"SoundDuration":118577,"Delta":137194630},{"NoteNumber":67,"Velocity":31,"Duration":118576,"SoundDuration":118576,"Delta":137313207},{"NoteNumber":70,"Velocity":31,"Duration":118577,"SoundDuration":118577,"Delta":137431784},{"NoteNumber":72,"Velocity":38,"Duration":474941,"SoundDuration":474941,"Delta":137550361},{"NoteNumber":55,"Velocity":29,"Duration":474941,"SoundDuration":474941,"Delta":137550361},{"NoteNumber":70,"Velocity":31,"Duration":118421,"SoundDuration":118421,"Delta":137668627},{"NoteNumber":64,"Velocity":31,"Duration":118890,"SoundDuration":118890,"Delta":137787048},{"NoteNumber":70,"Velocity":31,"Duration":119363,"SoundDuration":119363,"Delta":137905939},{"NoteNumber":68,"Velocity":89,"Duration":836654,"SoundDuration":836654,"Delta":139937654},{"NoteNumber":72,"Velocity":89,"Duration":836654,"SoundDuration":836654,"Delta":139937654},{"NoteNumber":77,"Velocity":106,"Duration":836654,"SoundDuration":836654,"Delta":139937654},{"NoteNumber":41,"Velocity":76,"Duration":836654,"SoundDuration":836654,"Delta":139937654},{"NoteNumber":48,"Velocity":76,"Duration":836654,"SoundDuration":836654,"Delta":139937654},{"NoteNumber":53,"Velocity":92,"Duration":836654,"SoundDuration":836654,"Delta":139937654},{"NoteNumber":68,"Velocity":77,"Duration":113545,"SoundDuration":113545,"Delta":140774308},{"NoteNumber":72,"Velocity":77,"Duration":113545,"SoundDuration":113545,"Delta":140774308},{"NoteNumber":77,"Velocity":92,"Duration":113545,"SoundDuration":113545,"Delta":140774308},{"NoteNumber":41,"Velocity":66,"Duration":113545,"SoundDuration":113545,"Delta":140774308},{"NoteNumber":48,"Velocity":66,"Duration":113545,"SoundDuration":113545,"Delta":140774308},{"NoteNumber":53,"Velocity":77,"Duration":113545,"SoundDuration":113545,"Delta":140774308},{"NoteNumber":68,"Velocity":81,"Duration":343077,"SoundDuration":343077,"Delta":140893830},{"NoteNumber":72,"Velocity":81,"Duration":343077,"SoundDuration":343077,"Delta":140893830},{"NoteNumber":80,"Velocity":96,"Duration":343077,"SoundDuration":343077,"Delta":140893830},{"NoteNumber":41,"Velocity":70,"Duration":343077,"SoundDuration":343077,"Delta":140893830},{"NoteNumber":53,"Velocity":84,"Duration":343077,"SoundDuration":343077,"Delta":140893830},{"NoteNumber":68,"Velocity":76,"Duration":107954,"SoundDuration":107954,"Delta":141236908},{"NoteNumber":72,"Velocity":76,"Duration":107954,"SoundDuration":107954,"Delta":141236908},{"NoteNumber":80,"Velocity":91,"Duration":107954,"SoundDuration":107954,"Delta":141236908},{"NoteNumber":41,"Velocity":67,"Duration":107954,"SoundDuration":107954,"Delta":141236908},{"NoteNumber":53,"Velocity":80,"Duration":107954,"SoundDuration":107954,"Delta":141236908},{"NoteNumber":68,"Velocity":81,"Duration":338772,"SoundDuration":338772,"Delta":141350544},{"NoteNumber":72,"Velocity":81,"Duration":338772,"SoundDuration":338772,"Delta":141350544},{"NoteNumber":77,"Velocity":96,"Duration":338772,"SoundDuration":338772,"Delta":141350544},{"NoteNumber":44,"Velocity":70,"Duration":338772,"SoundDuration":338772,"Delta":141350544},{"NoteNumber":56,"Velocity":84,"Duration":338772,"SoundDuration":338772,"Delta":141350544},{"NoteNumber":68,"Velocity":77,"Duration":106622,"SoundDuration":106622,"Delta":141689316},{"NoteNumber":72,"Velocity":77,"Duration":106622,"SoundDuration":106622,"Delta":141689316},{"NoteNumber":77,"Velocity":92,"Duration":106622,"SoundDuration":106622,"Delta":141689316},{"NoteNumber":44,"Velocity":66,"Duration":106622,"SoundDuration":106622,"Delta":141689316},{"NoteNumber":56,"Velocity":77,"Duration":106622,"SoundDuration":106622,"Delta":141689316},{"NoteNumber":65,"Velocity":81,"Duration":335820,"SoundDuration":335820,"Delta":141801536},{"NoteNumber":68,"Velocity":81,"Duration":335820,"SoundDuration":335820,"Delta":141801536},{"NoteNumber":72,"Velocity":96,"Duration":335820,"SoundDuration":335820,"Delta":141801536},{"NoteNumber":29,"Velocity":70,"Duration":335820,"SoundDuration":335820,"Delta":141801536},{"NoteNumber":41,"Velocity":84,"Duration":335820,"SoundDuration":335820,"Delta":141801536},{"NoteNumber":65,"Velocity":77,"Duration":106343,"SoundDuration":106343,"Delta":142137357},{"NoteNumber":68,"Velocity":77,"Duration":106343,"SoundDuration":106343,"Delta":142137357},{"NoteNumber":72,"Velocity":92,"Duration":106343,"SoundDuration":106343,"Delta":142137357},{"NoteNumber":29,"Velocity":66,"Duration":106343,"SoundDuration":106343,"Delta":142137357},{"NoteNumber":41,"Velocity":77,"Duration":106343,"SoundDuration":106343,"Delta":142137357},{"NoteNumber":60,"Velocity":77,"Duration":335820,"SoundDuration":335820,"Delta":142249297},{"NoteNumber":65,"Velocity":77,"Duration":335820,"SoundDuration":335820,"Delta":142249297},{"NoteNumber":68,"Velocity":91,"Duration":335820,"SoundDuration":335820,"Delta":142249297},{"NoteNumber":32,"Velocity":66,"Duration":335820,"SoundDuration":335820,"Delta":142249297},{"NoteNumber":44,"Velocity":79,"Duration":335820,"SoundDuration":335820,"Delta":142249297},{"NoteNumber":60,"Velocity":72,"Duration":106343,"SoundDuration":106343,"Delta":142585118},{"NoteNumber":65,"Velocity":72,"Duration":106343,"SoundDuration":106343,"Delta":142585118},{"NoteNumber":68,"Velocity":86,"Duration":106343,"SoundDuration":106343,"Delta":142585118},{"NoteNumber":32,"Velocity":61,"Duration":106343,"SoundDuration":106343,"Delta":142585118},{"NoteNumber":44,"Velocity":73,"Duration":106343,"SoundDuration":106343,"Delta":142585118},{"NoteNumber":56,"Velocity":77,"Duration":338346,"SoundDuration":338346,"Delta":142697058},{"NoteNumber":60,"Velocity":77,"Duration":338346,"SoundDuration":338346,"Delta":142697058},{"NoteNumber":65,"Velocity":91,"Duration":338346,"SoundDuration":338346,"Delta":142697058},{"NoteNumber":36,"Velocity":66,"Duration":338346,"SoundDuration":338346,"Delta":142697058},{"NoteNumber":48,"Velocity":79,"Duration":338346,"SoundDuration":338346,"Delta":142697058},{"NoteNumber":56,"Velocity":72,"Duration":107142,"SoundDuration":107142,"Delta":143035404},{"NoteNumber":60,"Velocity":72,"Duration":107142,"SoundDuration":107142,"Delta":143035404},{"NoteNumber":65,"Velocity":86,"Duration":107142,"SoundDuration":107142,"Delta":143035404},{"NoteNumber":36,"Velocity":61,"Duration":107142,"SoundDuration":107142,"Delta":143035404},{"NoteNumber":48,"Velocity":73,"Duration":107142,"SoundDuration":107142,"Delta":143035404},{"NoteNumber":56,"Velocity":77,"Duration":338346,"SoundDuration":338346,"Delta":143148186},{"NoteNumber":60,"Velocity":91,"Duration":338346,"SoundDuration":338346,"Delta":143148186},{"NoteNumber":41,"Velocity":66,"Duration":338346,"SoundDuration":338346,"Delta":143148186},{"NoteNumber":53,"Velocity":79,"Duration":338346,"SoundDuration":338346,"Delta":143148186},{"NoteNumber":56,"Velocity":71,"Duration":112781,"SoundDuration":112781,"Delta":143486532},{"NoteNumber":60,"Velocity":71,"Duration":112781,"SoundDuration":112781,"Delta":143486532},{"NoteNumber":65,"Velocity":85,"Duration":112781,"SoundDuration":112781,"Delta":143486532},{"NoteNumber":41,"Velocity":59,"Duration":112781,"SoundDuration":112781,"Delta":143486532},{"NoteNumber":53,"Velocity":71,"Duration":112781,"SoundDuration":112781,"Delta":143486532},{"NoteNumber":58,"Velocity":81,"Duration":111524,"SoundDuration":111524,"Delta":143599314},{"NoteNumber":61,"Velocity":81,"Duration":111524,"SoundDuration":111524,"Delta":143599314},{"NoteNumber":66,"Velocity":96,"Duration":111524,"SoundDuration":111524,"Delta":143599314},{"NoteNumber":46,"Velocity":70,"Duration":111524,"SoundDuration":111524,"Delta":143599314},{"NoteNumber":49,"Velocity":70,"Duration":111524,"SoundDuration":111524,"Delta":143599314},{"NoteNumber":54,"Velocity":84,"Duration":111524,"SoundDuration":111524,"Delta":143599314},{"NoteNumber":78,"Velocity":61,"Duration":130111,"SoundDuration":130111,"Delta":143822363},{"NoteNumber":82,"Velocity":65,"Duration":130111,"SoundDuration":130111,"Delta":143933887},{"NoteNumber":85,"Velocity":68,"Duration":130111,"SoundDuration":130111,"Delta":144045411},{"NoteNumber":83,"Velocity":68,"Duration":130111,"SoundDuration":130111,"Delta":144156935},{"NoteNumber":82,"Velocity":67,"Duration":130111,"SoundDuration":130111,"Delta":144268460},{"NoteNumber":80,"Velocity":67,"Duration":130111,"SoundDuration":130111,"Delta":144379984},{"NoteNumber":78,"Velocity":68,"Duration":130111,"SoundDuration":130111,"Delta":144491508},{"NoteNumber":77,"Velocity":68,"Duration":130111,"SoundDuration":130111,"Delta":144603032},{"NoteNumber":75,"Velocity":67,"Duration":130111,"SoundDuration":130111,"Delta":144714557},{"NoteNumber":73,"Velocity":67,"Duration":130111,"SoundDuration":130111,"Delta":144826081},{"NoteNumber":71,"Velocity":67,"Duration":130111,"SoundDuration":130111,"Delta":144937605},{"NoteNumber":70,"Velocity":67,"Duration":130111,"SoundDuration":130111,"Delta":145049129},{"NoteNumber":68,"Velocity":67,"Duration":130111,"SoundDuration":130111,"Delta":145160654},{"NoteNumber":66,"Velocity":67,"Duration":130392,"SoundDuration":130392,"Delta":145272178},{"NoteNumber":68,"Velocity":67,"Duration":132075,"SoundDuration":132075,"Delta":145383702},{"NoteNumber":65,"Velocity":68,"Duration":132075,"SoundDuration":132075,"Delta":145496910},{"NoteNumber":66,"Velocity":72,"Duration":132075,"SoundDuration":132075,"Delta":145610117},{"NoteNumber":54,"Velocity":63,"Duration":132075,"SoundDuration":132075,"Delta":145610117},{"NoteNumber":70,"Velocity":75,"Duration":131934,"SoundDuration":131934,"Delta":145723325},{"NoteNumber":58,"Velocity":65,"Duration":131934,"SoundDuration":131934,"Delta":145723325},{"NoteNumber":73,"Velocity":74,"Duration":130045,"SoundDuration":130045,"Delta":145836532},{"NoteNumber":61,"Velocity":68,"Duration":130045,"SoundDuration":130045,"Delta":145836532},{"NoteNumber":71,"Velocity":73,"Duration":129561,"SoundDuration":129561,"Delta":145948059},{"NoteNumber":59,"Velocity":66,"Duration":129561,"SoundDuration":129561,"Delta":145948059},{"NoteNumber":70,"Velocity":73,"Duration":129151,"SoundDuration":129151,"Delta":146059170},{"NoteNumber":58,"Velocity":64,"Duration":129151,"SoundDuration":129151,"Delta":146059170},{"NoteNumber":68,"Velocity":72,"Duration":128947,"SoundDuration":128947,"Delta":146169871},{"NoteNumber":56,"Velocity":63,"Duration":128947,"SoundDuration":128947,"Delta":146169871},{"NoteNumber":66,"Velocity":71,"Duration":128676,"SoundDuration":128676,"Delta":146280437},{"NoteNumber":54,"Velocity":61,"Duration":128676,"SoundDuration":128676,"Delta":146280437},{"NoteNumber":65,"Velocity":71,"Duration":128339,"SoundDuration":128339,"Delta":146390731},{"NoteNumber":53,"Velocity":61,"Duration":128339,"SoundDuration":128339,"Delta":146390731},{"NoteNumber":63,"Velocity":72,"Duration":128138,"SoundDuration":128138,"Delta":146500755},{"NoteNumber":51,"Velocity":63,"Duration":128138,"SoundDuration":128138,"Delta":146500755},{"NoteNumber":61,"Velocity":73,"Duration":127737,"SoundDuration":127737,"Delta":146610645},{"NoteNumber":49,"Velocity":64,"Duration":127737,"SoundDuration":127737,"Delta":146610645},{"NoteNumber":59,"Velocity":74,"Duration":127538,"SoundDuration":127538,"Delta":146720134},{"NoteNumber":47,"Velocity":64,"Duration":127538,"SoundDuration":127538,"Delta":146720134},{"NoteNumber":58,"Velocity":75,"Duration":127272,"SoundDuration":127272,"Delta":146829491},{"NoteNumber":46,"Velocity":65,"Duration":127272,"SoundDuration":127272,"Delta":146829491},{"NoteNumber":56,"Velocity":76,"Duration":126943,"SoundDuration":126943,"Delta":146938582},{"NoteNumber":44,"Velocity":66,"Duration":126943,"SoundDuration":126943,"Delta":146938582},{"NoteNumber":54,"Velocity":79,"Duration":108564,"SoundDuration":108564,"Delta":147047409},{"NoteNumber":42,"Velocity":66,"Duration":108564,"SoundDuration":108564,"Delta":147047409},{"NoteNumber":49,"Velocity":86,"Duration":220799,"SoundDuration":220799,"Delta":147155974},{"NoteNumber":54,"Velocity":86,"Duration":220799,"SoundDuration":220799,"Delta":147155974},{"NoteNumber":34,"Velocity":61,"Duration":220799,"SoundDuration":220799,"Delta":147155974},{"NoteNumber":46,"Velocity":73,"Duration":220799,"SoundDuration":220799,"Delta":147155974},{"NoteNumber":58,"Velocity":74,"Duration":439076,"SoundDuration":439076,"Delta":147376774},{"NoteNumber":61,"Velocity":74,"Duration":439076,"SoundDuration":439076,"Delta":147376774},{"NoteNumber":66,"Velocity":88,"Duration":439076,"SoundDuration":439076,"Delta":147376774},{"NoteNumber":34,"Velocity":65,"Duration":218277,"SoundDuration":218277,"Delta":147597573},{"NoteNumber":46,"Velocity":77,"Duration":218277,"SoundDuration":218277,"Delta":147597573},{"NoteNumber":61,"Velocity":73,"Duration":436554,"SoundDuration":436554,"Delta":147815850},{"NoteNumber":66,"Velocity":73,"Duration":436554,"SoundDuration":436554,"Delta":147815850},{"NoteNumber":70,"Velocity":87,"Duration":436554,"SoundDuration":436554,"Delta":147815850},{"NoteNumber":34,"Velocity":64,"Duration":218277,"SoundDuration":218277,"Delta":148034127},{"NoteNumber":46,"Velocity":76,"Duration":218277,"SoundDuration":218277,"Delta":148034127},{"NoteNumber":66,"Velocity":69,"Duration":107906,"SoundDuration":107906,"Delta":148252404},{"NoteNumber":70,"Velocity":69,"Duration":107906,"SoundDuration":107906,"Delta":148252404},{"NoteNumber":73,"Velocity":81,"Duration":107906,"SoundDuration":107906,"Delta":148252404},{"NoteNumber":34,"Velocity":52,"Duration":107906,"SoundDuration":107906,"Delta":148252404},{"NoteNumber":46,"Velocity":63,"Duration":107906,"SoundDuration":107906,"Delta":148252404},{"NoteNumber":70,"Velocity":71,"Duration":107906,"SoundDuration":107906,"Delta":148468216},{"NoteNumber":73,"Velocity":71,"Duration":107906,"SoundDuration":107906,"Delta":148468216},{"NoteNumber":78,"Velocity":85,"Duration":107906,"SoundDuration":107906,"Delta":148468216},{"NoteNumber":34,"Velocity":57,"Duration":107906,"SoundDuration":107906,"Delta":148468216},{"NoteNumber":46,"Velocity":67,"Duration":107906,"SoundDuration":107906,"Delta":148468216},{"NoteNumber":73,"Velocity":74,"Duration":114381,"SoundDuration":114381,"Delta":148684028},{"NoteNumber":78,"Velocity":74,"Duration":114381,"SoundDuration":114381,"Delta":148684028},{"NoteNumber":82,"Velocity":88,"Duration":114381,"SoundDuration":114381,"Delta":148684028},{"NoteNumber":34,"Velocity":60,"Duration":114381,"SoundDuration":114381,"Delta":148684028},{"NoteNumber":46,"Velocity":72,"Duration":114381,"SoundDuration":114381,"Delta":148684028},{"NoteNumber":58,"Velocity":75,"Duration":220799,"SoundDuration":220799,"Delta":148912791},{"NoteNumber":64,"Velocity":75,"Duration":220799,"SoundDuration":220799,"Delta":148912791},{"NoteNumber":67,"Velocity":86,"Duration":220799,"SoundDuration":220799,"Delta":148912791},{"NoteNumber":36,"Velocity":61,"Duration":220799,"SoundDuration":220799,"Delta":148912791},{"NoteNumber":48,"Velocity":73,"Duration":220799,"SoundDuration":220799,"Delta":148912791},{"NoteNumber":64,"Velocity":74,"Duration":439076,"SoundDuration":439076,"Delta":149133591},{"NoteNumber":67,"Velocity":74,"Duration":439076,"SoundDuration":439076,"Delta":149133591},{"NoteNumber":70,"Velocity":88,"Duration":439076,"SoundDuration":439076,"Delta":149133591},{"NoteNumber":36,"Velocity":65,"Duration":218277,"SoundDuration":218277,"Delta":149354390},{"NoteNumber":48,"Velocity":77,"Duration":218277,"SoundDuration":218277,"Delta":149354390},{"NoteNumber":67,"Velocity":73,"Duration":436554,"SoundDuration":436554,"Delta":149572667},{"NoteNumber":70,"Velocity":73,"Duration":436554,"SoundDuration":436554,"Delta":149572667},{"NoteNumber":76,"Velocity":87,"Duration":436554,"SoundDuration":436554,"Delta":149572667},{"NoteNumber":36,"Velocity":64,"Duration":218277,"SoundDuration":218277,"Delta":149790944},{"NoteNumber":48,"Velocity":76,"Duration":218277,"SoundDuration":218277,"Delta":149790944},{"NoteNumber":70,"Velocity":69,"Duration":107906,"SoundDuration":107906,"Delta":150009221},{"NoteNumber":76,"Velocity":69,"Duration":107906,"SoundDuration":107906,"Delta":150009221},{"NoteNumber":79,"Velocity":81,"Duration":107906,"SoundDuration":107906,"Delta":150009221},{"NoteNumber":36,"Velocity":52,"Duration":107906,"SoundDuration":107906,"Delta":150009221},{"NoteNumber":48,"Velocity":63,"Duration":107906,"SoundDuration":107906,"Delta":150009221},{"NoteNumber":76,"Velocity":71,"Duration":107906,"SoundDuration":107906,"Delta":150225033},{"NoteNumber":79,"Velocity":71,"Duration":107906,"SoundDuration":107906,"Delta":150225033},{"NoteNumber":82,"Velocity":85,"Duration":107906,"SoundDuration":107906,"Delta":150225033},{"NoteNumber":36,"Velocity":57,"Duration":107906,"SoundDuration":107906,"Delta":150225033},{"NoteNumber":48,"Velocity":67,"Duration":107906,"SoundDuration":107906,"Delta":150225033},{"NoteNumber":79,"Velocity":74,"Duration":113472,"SoundDuration":113472,"Delta":150440845},{"NoteNumber":82,"Velocity":74,"Duration":113472,"SoundDuration":113472,"Delta":150440845},{"NoteNumber":88,"Velocity":88,"Duration":113472,"SoundDuration":113472,"Delta":150440845},{"NoteNumber":36,"Velocity":60,"Duration":113472,"SoundDuration":113472,"Delta":150440845},{"NoteNumber":48,"Velocity":72,"Duration":113472,"SoundDuration":113472,"Delta":150440845},{"NoteNumber":77,"Velocity":89,"Duration":806765,"SoundDuration":806765,"Delta":150667791},{"NoteNumber":80,"Velocity":89,"Duration":806765,"SoundDuration":806765,"Delta":150667791},{"NoteNumber":84,"Velocity":89,"Duration":806765,"SoundDuration":806765,"Delta":150667791},{"NoteNumber":89,"Velocity":106,"Duration":806765,"SoundDuration":806765,"Delta":150667791},{"NoteNumber":41,"Velocity":67,"Duration":117519,"SoundDuration":117519,"Delta":150667791},{"NoteNumber":44,"Velocity":57,"Duration":115979,"SoundDuration":115979,"Delta":150785310},{"NoteNumber":48,"Velocity":57,"Duration":115532,"SoundDuration":115532,"Delta":150901290},{"NoteNumber":53,"Velocity":57,"Duration":115089,"SoundDuration":115089,"Delta":151016823},{"NoteNumber":41,"Velocity":67,"Duration":114650,"SoundDuration":114650,"Delta":151131913},{"NoteNumber":44,"Velocity":57,"Duration":114213,"SoundDuration":114213,"Delta":151246563},{"NoteNumber":48,"Velocity":57,"Duration":113780,"SoundDuration":113780,"Delta":151360776},{"NoteNumber":77,"Velocity":77,"Duration":113350,"SoundDuration":113350,"Delta":151474557},{"NoteNumber":89,"Velocity":92,"Duration":113350,"SoundDuration":113350,"Delta":151474557},{"NoteNumber":53,"Velocity":57,"Duration":113350,"SoundDuration":113350,"Delta":151474557},{"NoteNumber":80,"Velocity":81,"Duration":336938,"SoundDuration":336938,"Delta":151587907},{"NoteNumber":92,"Velocity":96,"Duration":336938,"SoundDuration":336938,"Delta":151587907},{"NoteNumber":41,"Velocity":67,"Duration":112359,"SoundDuration":112359,"Delta":151587907},{"NoteNumber":44,"Velocity":56,"Duration":112359,"SoundDuration":112359,"Delta":151700267},{"NoteNumber":48,"Velocity":57,"Duration":112219,"SoundDuration":112219,"Delta":151812626},{"NoteNumber":80,"Velocity":76,"Duration":111940,"SoundDuration":111940,"Delta":151924846},{"NoteNumber":92,"Velocity":91,"Duration":111940,"SoundDuration":111940,"Delta":151924846},{"NoteNumber":53,"Velocity":57,"Duration":111940,"SoundDuration":111940,"Delta":151924846},{"NoteNumber":77,"Velocity":81,"Duration":335127,"SoundDuration":335127,"Delta":152036786},{"NoteNumber":89,"Velocity":96,"Duration":335127,"SoundDuration":335127,"Delta":152036786},{"NoteNumber":41,"Velocity":67,"Duration":111940,"SoundDuration":111940,"Delta":152036786},{"NoteNumber":44,"Velocity":59,"Duration":111662,"SoundDuration":111662,"Delta":152148726},{"NoteNumber":48,"Velocity":59,"Duration":111524,"SoundDuration":111524,"Delta":152260389},{"NoteNumber":77,"Velocity":77,"Duration":111524,"SoundDuration":111524,"Delta":152371914},{"NoteNumber":89,"Velocity":92,"Duration":111524,"SoundDuration":111524,"Delta":152371914},{"NoteNumber":53,"Velocity":60,"Duration":111524,"SoundDuration":111524,"Delta":152371914},{"NoteNumber":73,"Velocity":81,"Duration":332924,"SoundDuration":332924,"Delta":152483438},{"NoteNumber":85,"Velocity":96,"Duration":332924,"SoundDuration":332924,"Delta":152483438},{"NoteNumber":41,"Velocity":67,"Duration":110701,"SoundDuration":110701,"Delta":152483438},{"NoteNumber":44,"Velocity":58,"Duration":110974,"SoundDuration":110974,"Delta":152594139},{"NoteNumber":49,"Velocity":58,"Duration":111248,"SoundDuration":111248,"Delta":152705113},{"NoteNumber":73,"Velocity":77,"Duration":111524,"SoundDuration":111524,"Delta":152816362},{"NoteNumber":85,"Velocity":92,"Duration":111524,"SoundDuration":111524,"Delta":152816362},{"NoteNumber":53,"Velocity":58,"Duration":111524,"SoundDuration":111524,"Delta":152816362},{"NoteNumber":68,"Velocity":77,"Duration":336243,"SoundDuration":336243,"Delta":152927886},{"NoteNumber":80,"Velocity":91,"Duration":336243,"SoundDuration":336243,"Delta":152927886},{"NoteNumber":41,"Velocity":67,"Duration":111940,"SoundDuration":111940,"Delta":152927886},{"NoteNumber":44,"Velocity":60,"Duration":111940,"SoundDuration":111940,"Delta":153039826},{"NoteNumber":49,"Velocity":60,"Duration":112362,"SoundDuration":112362,"Delta":153151767},{"NoteNumber":68,"Velocity":72,"Duration":113350,"SoundDuration":113350,"Delta":153264129},{"NoteNumber":80,"Velocity":86,"Duration":113350,"SoundDuration":113350,"Delta":153264129},{"NoteNumber":53,"Velocity":60,"Duration":113350,"SoundDuration":113350,"Delta":153264129},{"NoteNumber":69,"Velocity":77,"Duration":342643,"SoundDuration":342643,"Delta":153377480},{"NoteNumber":81,"Velocity":91,"Duration":342643,"SoundDuration":342643,"Delta":153377480},{"NoteNumber":41,"Velocity":67,"Duration":113780,"SoundDuration":113780,"Delta":153377480},{"NoteNumber":48,"Velocity":58,"Duration":114213,"SoundDuration":114213,"Delta":153491260},{"NoteNumber":51,"Velocity":58,"Duration":114650,"SoundDuration":114650,"Delta":153605474},{"NoteNumber":69,"Velocity":72,"Duration":115089,"SoundDuration":115089,"Delta":153720124},{"NoteNumber":81,"Velocity":86,"Duration":115089,"SoundDuration":115089,"Delta":153720124},{"NoteNumber":53,"Velocity":58,"Duration":115089,"SoundDuration":115089,"Delta":153720124},{"NoteNumber":65,"Velocity":77,"Duration":346153,"SoundDuration":346153,"Delta":153835214},{"NoteNumber":77,"Velocity":91,"Duration":346153,"SoundDuration":346153,"Delta":153835214},{"NoteNumber":41,"Velocity":67,"Duration":115384,"SoundDuration":115384,"Delta":153835214},{"NoteNumber":48,"Velocity":57,"Duration":115384,"SoundDuration":115384,"Delta":153950598},{"NoteNumber":51,"Velocity":57,"Duration":115384,"SoundDuration":115384,"Delta":154065983},{"NoteNumber":65,"Velocity":71,"Duration":115384,"SoundDuration":115384,"Delta":154181367},{"NoteNumber":77,"Velocity":85,"Duration":115384,"SoundDuration":115384,"Delta":154181367},{"NoteNumber":53,"Velocity":57,"Duration":115384,"SoundDuration":115384,"Delta":154181367},{"NoteNumber":70,"Velocity":79,"Duration":806765,"SoundDuration":806765,"Delta":154296752},{"NoteNumber":73,"Velocity":79,"Duration":806765,"SoundDuration":806765,"Delta":154296752},{"NoteNumber":77,"Velocity":79,"Duration":806765,"SoundDuration":806765,"Delta":154296752},{"NoteNumber":82,"Velocity":94,"Duration":806765,"SoundDuration":806765,"Delta":154296752},{"NoteNumber":41,"Velocity":67,"Duration":117519,"SoundDuration":117519,"Delta":154296752},{"NoteNumber":46,"Velocity":57,"Duration":115979,"SoundDuration":115979,"Delta":154414271},{"NoteNumber":49,"Velocity":57,"Duration":115532,"SoundDuration":115532,"Delta":154530251},{"NoteNumber":53,"Velocity":57,"Duration":115089,"SoundDuration":115089,"Delta":154645784},{"NoteNumber":41,"Velocity":67,"Duration":114650,"SoundDuration":114650,"Delta":154760873},{"NoteNumber":46,"Velocity":55,"Duration":114213,"SoundDuration":114213,"Delta":154875523},{"NoteNumber":49,"Velocity":55,"Duration":113780,"SoundDuration":113780,"Delta":154989737},{"NoteNumber":82,"Velocity":73,"Duration":113350,"SoundDuration":113350,"Delta":155103517},{"NoteNumber":94,"Velocity":87,"Duration":113350,"SoundDuration":113350,"Delta":155103517},{"NoteNumber":53,"Velocity":54,"Duration":113350,"SoundDuration":113350,"Delta":155103517},{"NoteNumber":85,"Velocity":77,"Duration":336938,"SoundDuration":336938,"Delta":155216868},{"NoteNumber":97,"Velocity":91,"Duration":336938,"SoundDuration":336938,"Delta":155216868},{"NoteNumber":41,"Velocity":63,"Duration":112359,"SoundDuration":112359,"Delta":155216868},{"NoteNumber":46,"Velocity":53,"Duration":112359,"SoundDuration":112359,"Delta":155329227},{"NoteNumber":49,"Velocity":54,"Duration":112219,"SoundDuration":112219,"Delta":155441587},{"NoteNumber":85,"Velocity":72,"Duration":111940,"SoundDuration":111940,"Delta":155553806},{"NoteNumber":97,"Velocity":86,"Duration":111940,"SoundDuration":111940,"Delta":155553806},{"NoteNumber":53,"Velocity":54,"Duration":111940,"SoundDuration":111940,"Delta":155553806},{"NoteNumber":82,"Velocity":77,"Duration":335127,"SoundDuration":335127,"Delta":155665747},{"NoteNumber":94,"Velocity":91,"Duration":335127,"SoundDuration":335127,"Delta":155665747},{"NoteNumber":41,"Velocity":63,"Duration":111940,"SoundDuration":111940,"Delta":155665747},{"NoteNumber":46,"Velocity":56,"Duration":111662,"SoundDuration":111662,"Delta":155777687},{"NoteNumber":49,"Velocity":56,"Duration":111524,"SoundDuration":111524,"Delta":155889350},{"NoteNumber":82,"Velocity":73,"Duration":111524,"SoundDuration":111524,"Delta":156000874},{"NoteNumber":94,"Velocity":87,"Duration":111524,"SoundDuration":111524,"Delta":156000874},{"NoteNumber":53,"Velocity":57,"Duration":111524,"SoundDuration":111524,"Delta":156000874},{"NoteNumber":78,"Velocity":77,"Duration":332924,"SoundDuration":332924,"Delta":156112398},{"NoteNumber":90,"Velocity":91,"Duration":332924,"SoundDuration":332924,"Delta":156112398},{"NoteNumber":42,"Velocity":63,"Duration":110701,"SoundDuration":110701,"Delta":156112398},{"NoteNumber":46,"Velocity":55,"Duration":110974,"SoundDuration":110974,"Delta":156223099},{"NoteNumber":49,"Velocity":55,"Duration":111248,"SoundDuration":111248,"Delta":156334074},{"NoteNumber":78,"Velocity":73,"Duration":111524,"SoundDuration":111524,"Delta":156445322},{"NoteNumber":90,"Velocity":87,"Duration":111524,"SoundDuration":111524,"Delta":156445322},{"NoteNumber":54,"Velocity":55,"Duration":111524,"SoundDuration":111524,"Delta":156445322},{"NoteNumber":77,"Velocity":73,"Duration":336243,"SoundDuration":336243,"Delta":156556847},{"NoteNumber":89,"Velocity":86,"Duration":336243,"SoundDuration":336243,"Delta":156556847},{"NoteNumber":42,"Velocity":63,"Duration":111940,"SoundDuration":111940,"Delta":156556847},{"NoteNumber":46,"Velocity":57,"Duration":111940,"SoundDuration":111940,"Delta":156668787},{"NoteNumber":49,"Velocity":57,"Duration":112362,"SoundDuration":112362,"Delta":156780727},{"NoteNumber":77,"Velocity":68,"Duration":113350,"SoundDuration":113350,"Delta":156893090},{"NoteNumber":89,"Velocity":80,"Duration":113350,"SoundDuration":113350,"Delta":156893090},{"NoteNumber":54,"Velocity":57,"Duration":113350,"SoundDuration":113350,"Delta":156893090},{"NoteNumber":76,"Velocity":73,"Duration":342643,"SoundDuration":342643,"Delta":157006440},{"NoteNumber":88,"Velocity":86,"Duration":342643,"SoundDuration":342643,"Delta":157006440},{"NoteNumber":43,"Velocity":63,"Duration":113780,"SoundDuration":113780,"Delta":157006440},{"NoteNumber":46,"Velocity":55,"Duration":114213,"SoundDuration":114213,"Delta":157120221},{"NoteNumber":48,"Velocity":55,"Duration":114650,"SoundDuration":114650,"Delta":157234434},{"NoteNumber":76,"Velocity":68,"Duration":115089,"SoundDuration":115089,"Delta":157349084},{"NoteNumber":88,"Velocity":80,"Duration":115089,"SoundDuration":115089,"Delta":157349084},{"NoteNumber":55,"Velocity":55,"Duration":115089,"SoundDuration":115089,"Delta":157349084},{"NoteNumber":84,"Velocity":73,"Duration":346153,"SoundDuration":346153,"Delta":157464174},{"NoteNumber":96,"Velocity":86,"Duration":346153,"SoundDuration":346153,"Delta":157464174},{"NoteNumber":43,"Velocity":63,"Duration":115384,"SoundDuration":115384,"Delta":157464174},{"NoteNumber":46,"Velocity":54,"Duration":115384,"SoundDuration":115384,"Delta":157579559},{"NoteNumber":48,"Velocity":54,"Duration":115384,"SoundDuration":115384,"Delta":157694943},{"NoteNumber":84,"Velocity":67,"Duration":115384,"SoundDuration":115384,"Delta":157810328},{"NoteNumber":96,"Velocity":79,"Duration":115384,"SoundDuration":115384,"Delta":157810328},{"NoteNumber":55,"Velocity":54,"Duration":115384,"SoundDuration":115384,"Delta":157810328},{"NoteNumber":77,"Velocity":79,"Duration":806765,"SoundDuration":806765,"Delta":157925712},{"NoteNumber":80,"Velocity":79,"Duration":806765,"SoundDuration":806765,"Delta":157925712},{"NoteNumber":84,"Velocity":79,"Duration":806765,"SoundDuration":806765,"Delta":157925712},{"NoteNumber":89,"Velocity":94,"Duration":806765,"SoundDuration":806765,"Delta":157925712},{"NoteNumber":44,"Velocity":63,"Duration":117519,"SoundDuration":117519,"Delta":157925712},{"NoteNumber":48,"Velocity":54,"Duration":115979,"SoundDuration":115979,"Delta":158043231},{"NoteNumber":53,"Velocity":54,"Duration":115532,"SoundDuration":115532,"Delta":158159211},{"NoteNumber":56,"Velocity":54,"Duration":115089,"SoundDuration":115089,"Delta":158274744},{"NoteNumber":44,"Velocity":63,"Duration":114650,"SoundDuration":114650,"Delta":158389834},{"NoteNumber":48,"Velocity":54,"Duration":114213,"SoundDuration":114213,"Delta":158504484},{"NoteNumber":53,"Velocity":54,"Duration":113780,"SoundDuration":113780,"Delta":158618697},{"NoteNumber":77,"Velocity":73,"Duration":113350,"SoundDuration":113350,"Delta":158732478},{"NoteNumber":89,"Velocity":87,"Duration":113350,"SoundDuration":113350,"Delta":158732478},{"NoteNumber":56,"Velocity":54,"Duration":113350,"SoundDuration":113350,"Delta":158732478},{"NoteNumber":80,"Velocity":77,"Duration":336938,"SoundDuration":336938,"Delta":158845828},{"NoteNumber":92,"Velocity":91,"Duration":336938,"SoundDuration":336938,"Delta":158845828},{"NoteNumber":44,"Velocity":63,"Duration":112359,"SoundDuration":112359,"Delta":158845828},{"NoteNumber":48,"Velocity":53,"Duration":112359,"SoundDuration":112359,"Delta":158958188},{"NoteNumber":53,"Velocity":54,"Duration":112219,"SoundDuration":112219,"Delta":159070547},{"NoteNumber":80,"Velocity":72,"Duration":111940,"SoundDuration":111940,"Delta":159182767},{"NoteNumber":92,"Velocity":86,"Duration":111940,"SoundDuration":111940,"Delta":159182767},{"NoteNumber":56,"Velocity":54,"Duration":111940,"SoundDuration":111940,"Delta":159182767},{"NoteNumber":77,"Velocity":77,"Duration":335127,"SoundDuration":335127,"Delta":159294707},{"NoteNumber":89,"Velocity":91,"Duration":335127,"SoundDuration":335127,"Delta":159294707},{"NoteNumber":44,"Velocity":63,"Duration":111940,"SoundDuration":111940,"Delta":159294707},{"NoteNumber":48,"Velocity":56,"Duration":111662,"SoundDuration":111662,"Delta":159406647},{"NoteNumber":53,"Velocity":56,"Duration":111524,"SoundDuration":111524,"Delta":159518310},{"NoteNumber":77,"Velocity":73,"Duration":111524,"SoundDuration":111524,"Delta":159629835},{"NoteNumber":89,"Velocity":87,"Duration":111524,"SoundDuration":111524,"Delta":159629835},{"NoteNumber":56,"Velocity":57,"Duration":111524,"SoundDuration":111524,"Delta":159629835},{"NoteNumber":73,"Velocity":77,"Duration":332924,"SoundDuration":332924,"Delta":159741359},{"NoteNumber":85,"Velocity":91,"Duration":332924,"SoundDuration":332924,"Delta":159741359},{"NoteNumber":44,"Velocity":63,"Duration":110701,"SoundDuration":110701,"Delta":159741359},{"NoteNumber":49,"Velocity":55,"Duration":110974,"SoundDuration":110974,"Delta":159852060},{"NoteNumber":53,"Velocity":55,"Duration":111248,"SoundDuration":111248,"Delta":159963034},{"NoteNumber":73,"Velocity":73,"Duration":111524,"SoundDuration":111524,"Delta":160074283},{"NoteNumber":85,"Velocity":87,"Duration":111524,"SoundDuration":111524,"Delta":160074283},{"NoteNumber":56,"Velocity":55,"Duration":111524,"SoundDuration":111524,"Delta":160074283},{"NoteNumber":68,"Velocity":73,"Duration":336243,"SoundDuration":336243,"Delta":160185807},{"NoteNumber":80,"Velocity":86,"Duration":336243,"SoundDuration":336243,"Delta":160185807},{"NoteNumber":44,"Velocity":63,"Duration":111940,"SoundDuration":111940,"Delta":160185807},{"NoteNumber":49,"Velocity":57,"Duration":111940,"SoundDuration":111940,"Delta":160297747},{"NoteNumber":53,"Velocity":57,"Duration":112362,"SoundDuration":112362,"Delta":160409688},{"NoteNumber":68,"Velocity":68,"Duration":113350,"SoundDuration":113350,"Delta":160522050},{"NoteNumber":80,"Velocity":80,"Duration":113350,"SoundDuration":113350,"Delta":160522050},{"NoteNumber":56,"Velocity":57,"Duration":113350,"SoundDuration":113350,"Delta":160522050},{"NoteNumber":72,"Velocity":73,"Duration":342643,"SoundDuration":342643,"Delta":160635401},{"NoteNumber":84,"Velocity":86,"Duration":342643,"SoundDuration":342643,"Delta":160635401},{"NoteNumber":44,"Velocity":63,"Duration":113780,"SoundDuration":113780,"Delta":160635401},{"NoteNumber":51,"Velocity":55,"Duration":114213,"SoundDuration":114213,"Delta":160749181},{"NoteNumber":54,"Velocity":55,"Duration":114650,"SoundDuration":114650,"Delta":160863395},{"NoteNumber":72,"Velocity":68,"Duration":115089,"SoundDuration":115089,"Delta":160978045},{"NoteNumber":84,"Velocity":80,"Duration":115089,"SoundDuration":115089,"Delta":160978045},{"NoteNumber":56,"Velocity":55,"Duration":115089,"SoundDuration":115089,"Delta":160978045},{"NoteNumber":68,"Velocity":73,"Duration":346153,"SoundDuration":346153,"Delta":161093135},{"NoteNumber":80,"Velocity":86,"Duration":346153,"SoundDuration":346153,"Delta":161093135},{"NoteNumber":44,"Velocity":63,"Duration":115384,"SoundDuration":115384,"Delta":161093135},{"NoteNumber":51,"Velocity":54,"Duration":115384,"SoundDuration":115384,"Delta":161208519},{"NoteNumber":54,"Velocity":54,"Duration":115384,"SoundDuration":115384,"Delta":161323904},{"NoteNumber":68,"Velocity":67,"Duration":115384,"SoundDuration":115384,"Delta":161439288},{"NoteNumber":80,"Velocity":79,"Duration":115384,"SoundDuration":115384,"Delta":161439288},{"NoteNumber":56,"Velocity":54,"Duration":115384,"SoundDuration":115384,"Delta":161439288},{"NoteNumber":73,"Velocity":79,"Duration":806765,"SoundDuration":806765,"Delta":161554673},{"NoteNumber":77,"Velocity":79,"Duration":806765,"SoundDuration":806765,"Delta":161554673},{"NoteNumber":80,"Velocity":79,"Duration":806765,"SoundDuration":806765,"Delta":161554673},{"NoteNumber":85,"Velocity":94,"Duration":806765,"SoundDuration":806765,"Delta":161554673},{"NoteNumber":44,"Velocity":67,"Duration":117519,"SoundDuration":117519,"Delta":161554673},{"NoteNumber":49,"Velocity":57,"Duration":115979,"SoundDuration":115979,"Delta":161672192},{"NoteNumber":53,"Velocity":57,"Duration":115532,"SoundDuration":115532,"Delta":161788172},{"NoteNumber":56,"Velocity":57,"Duration":115089,"SoundDuration":115089,"Delta":161903705},{"NoteNumber":44,"Velocity":67,"Duration":114650,"SoundDuration":114650,"Delta":162018794},{"NoteNumber":49,"Velocity":55,"Duration":114213,"SoundDuration":114213,"Delta":162133444},{"NoteNumber":53,"Velocity":55,"Duration":113780,"SoundDuration":113780,"Delta":162247658},{"NoteNumber":73,"Velocity":69,"Duration":113350,"SoundDuration":113350,"Delta":162361438},{"NoteNumber":85,"Velocity":81,"Duration":113350,"SoundDuration":113350,"Delta":162361438},{"NoteNumber":56,"Velocity":51,"Duration":113350,"SoundDuration":113350,"Delta":162361438},{"NoteNumber":77,"Velocity":73,"Duration":336938,"SoundDuration":336938,"Delta":162474789},{"NoteNumber":89,"Velocity":86,"Duration":336938,"SoundDuration":336938,"Delta":162474789},{"NoteNumber":45,"Velocity":59,"Duration":112359,"SoundDuration":112359,"Delta":162474789},{"NoteNumber":49,"Velocity":50,"Duration":112359,"SoundDuration":112359,"Delta":162587148},{"NoteNumber":53,"Velocity":51,"Duration":112219,"SoundDuration":112219,"Delta":162699508},{"NoteNumber":77,"Velocity":68,"Duration":111940,"SoundDuration":111940,"Delta":162811727},{"NoteNumber":89,"Velocity":80,"Duration":111940,"SoundDuration":111940,"Delta":162811727},{"NoteNumber":57,"Velocity":51,"Duration":111940,"SoundDuration":111940,"Delta":162811727},{"NoteNumber":73,"Velocity":73,"Duration":335127,"SoundDuration":335127,"Delta":162923668},{"NoteNumber":85,"Velocity":86,"Duration":335127,"SoundDuration":335127,"Delta":162923668},{"NoteNumber":46,"Velocity":59,"Duration":111940,"SoundDuration":111940,"Delta":162923668},{"NoteNumber":49,"Velocity":53,"Duration":111662,"SoundDuration":111662,"Delta":163035608},{"NoteNumber":53,"Velocity":53,"Duration":111524,"SoundDuration":111524,"Delta":163147271},{"NoteNumber":73,"Velocity":69,"Duration":111524,"SoundDuration":111524,"Delta":163258795},{"NoteNumber":85,"Velocity":81,"Duration":111524,"SoundDuration":111524,"Delta":163258795},{"NoteNumber":58,"Velocity":54,"Duration":111524,"SoundDuration":111524,"Delta":163258795},{"NoteNumber":72,"Velocity":73,"Duration":332924,"SoundDuration":332924,"Delta":163370319},{"NoteNumber":84,"Velocity":86,"Duration":332924,"SoundDuration":332924,"Delta":163370319},{"NoteNumber":48,"Velocity":59,"Duration":110701,"SoundDuration":110701,"Delta":163370319},{"NoteNumber":53,"Velocity":52,"Duration":110974,"SoundDuration":110974,"Delta":163481020},{"NoteNumber":56,"Velocity":52,"Duration":111248,"SoundDuration":111248,"Delta":163591995},{"NoteNumber":72,"Velocity":69,"Duration":111524,"SoundDuration":111524,"Delta":163703243},{"NoteNumber":84,"Velocity":81,"Duration":111524,"SoundDuration":111524,"Delta":163703243},{"NoteNumber":60,"Velocity":52,"Duration":111524,"SoundDuration":111524,"Delta":163703243},{"NoteNumber":70,"Velocity":69,"Duration":336243,"SoundDuration":336243,"Delta":163814768},{"NoteNumber":82,"Velocity":80,"Duration":336243,"SoundDuration":336243,"Delta":163814768},{"NoteNumber":49,"Velocity":59,"Duration":111940,"SoundDuration":111940,"Delta":163814768},{"NoteNumber":53,"Velocity":54,"Duration":111940,"SoundDuration":111940,"Delta":163926708},{"NoteNumber":56,"Velocity":54,"Duration":112362,"SoundDuration":112362,"Delta":164038648},{"NoteNumber":70,"Velocity":64,"Duration":113350,"SoundDuration":113350,"Delta":164151011},{"NoteNumber":82,"Velocity":76,"Duration":113350,"SoundDuration":113350,"Delta":164151011},{"NoteNumber":61,"Velocity":54,"Duration":113350,"SoundDuration":113350,"Delta":164151011},{"NoteNumber":72,"Velocity":69,"Duration":342643,"SoundDuration":342643,"Delta":164264361},{"NoteNumber":84,"Velocity":80,"Duration":342643,"SoundDuration":342643,"Delta":164264361},{"NoteNumber":48,"Velocity":59,"Duration":113780,"SoundDuration":113780,"Delta":164264361},{"NoteNumber":53,"Velocity":52,"Duration":114213,"SoundDuration":114213,"Delta":164378142},{"NoteNumber":56,"Velocity":52,"Duration":114650,"SoundDuration":114650,"Delta":164492355},{"NoteNumber":72,"Velocity":64,"Duration":115089,"SoundDuration":115089,"Delta":164607005},{"NoteNumber":84,"Velocity":76,"Duration":115089,"SoundDuration":115089,"Delta":164607005},{"NoteNumber":60,"Velocity":52,"Duration":115089,"SoundDuration":115089,"Delta":164607005},{"NoteNumber":72,"Velocity":69,"Duration":346153,"SoundDuration":346153,"Delta":164722095},{"NoteNumber":84,"Velocity":80,"Duration":346153,"SoundDuration":346153,"Delta":164722095},{"NoteNumber":48,"Velocity":59,"Duration":115384,"SoundDuration":115384,"Delta":164722095},{"NoteNumber":53,"Velocity":51,"Duration":115384,"SoundDuration":115384,"Delta":164837480},{"NoteNumber":56,"Velocity":51,"Duration":115384,"SoundDuration":115384,"Delta":164952864},{"NoteNumber":72,"Velocity":63,"Duration":115384,"SoundDuration":115384,"Delta":165068249},{"NoteNumber":84,"Velocity":75,"Duration":115384,"SoundDuration":115384,"Delta":165068249},{"NoteNumber":60,"Velocity":51,"Duration":115384,"SoundDuration":115384,"Delta":165068249},{"NoteNumber":72,"Velocity":66,"Duration":345317,"SoundDuration":345317,"Delta":165183633},{"NoteNumber":84,"Velocity":76,"Duration":345317,"SoundDuration":345317,"Delta":165183633},{"NoteNumber":48,"Velocity":56,"Duration":116454,"SoundDuration":116454,"Delta":165183633},{"NoteNumber":53,"Velocity":49,"Duration":114213,"SoundDuration":114213,"Delta":165300087},{"NoteNumber":55,"Velocity":48,"Duration":114650,"SoundDuration":114650,"Delta":165414301},{"NoteNumber":72,"Velocity":57,"Duration":115089,"SoundDuration":115089,"Delta":165528951},{"NoteNumber":84,"Velocity":68,"Duration":115089,"SoundDuration":115089,"Delta":165528951},{"NoteNumber":60,"Velocity":47,"Duration":115089,"SoundDuration":115089,"Delta":165528951},{"NoteNumber":72,"Velocity":60,"Duration":346153,"SoundDuration":346153,"Delta":165644041},{"NoteNumber":84,"Velocity":71,"Duration":346153,"SoundDuration":346153,"Delta":165644041},{"NoteNumber":48,"Velocity":51,"Duration":115384,"SoundDuration":115384,"Delta":165644041},{"NoteNumber":52,"Velocity":44,"Duration":115384,"SoundDuration":115384,"Delta":165759425},{"NoteNumber":55,"Velocity":43,"Duration":115384,"SoundDuration":115384,"Delta":165874810},{"NoteNumber":72,"Velocity":51,"Duration":115384,"SoundDuration":115384,"Delta":165990194},{"NoteNumber":84,"Velocity":61,"Duration":115384,"SoundDuration":115384,"Delta":165990194},{"NoteNumber":60,"Velocity":42,"Duration":115384,"SoundDuration":115384,"Delta":165990194},{"NoteNumber":77,"Velocity":58,"Duration":461537,"SoundDuration":461537,"Delta":166105579},{"NoteNumber":41,"Velocity":42,"Duration":153845,"SoundDuration":153845,"Delta":166105579},{"NoteNumber":57,"Velocity":42,"Duration":153846,"SoundDuration":153846,"Delta":166259425},{"NoteNumber":60,"Velocity":34,"Duration":153845,"SoundDuration":153845,"Delta":166413271},{"NoteNumber":53,"Velocity":34,"Duration":153846,"SoundDuration":153846,"Delta":166567117},{"NoteNumber":57,"Velocity":30,"Duration":153845,"SoundDuration":153845,"Delta":166720963},{"NoteNumber":60,"Velocity":30,"Duration":153845,"SoundDuration":153845,"Delta":166874809},{"NoteNumber":77,"Velocity":43,"Duration":115384,"SoundDuration":115384,"Delta":166913270},{"NoteNumber":81,"Velocity":48,"Duration":336938,"SoundDuration":336938,"Delta":167028655},{"NoteNumber":53,"Velocity":34,"Duration":149812,"SoundDuration":149812,"Delta":167028655},{"NoteNumber":57,"Velocity":29,"Duration":149812,"SoundDuration":149812,"Delta":167178467},{"NoteNumber":60,"Velocity":29,"Duration":149253,"SoundDuration":149253,"Delta":167328280},{"NoteNumber":81,"Velocity":43,"Duration":111940,"SoundDuration":111940,"Delta":167365593},{"NoteNumber":77,"Velocity":48,"Duration":335127,"SoundDuration":335127,"Delta":167477534},{"NoteNumber":53,"Velocity":34,"Duration":149253,"SoundDuration":149253,"Delta":167477534},{"NoteNumber":57,"Velocity":30,"Duration":148698,"SoundDuration":148698,"Delta":167626787},{"NoteNumber":60,"Velocity":30,"Duration":148699,"SoundDuration":148699,"Delta":167775486},{"NoteNumber":77,"Velocity":42,"Duration":111524,"SoundDuration":111524,"Delta":167812661},{"NoteNumber":72,"Velocity":48,"Duration":332924,"SoundDuration":332924,"Delta":167924185},{"NoteNumber":53,"Velocity":34,"Duration":147601,"SoundDuration":147601,"Delta":167924185},{"NoteNumber":57,"Velocity":30,"Duration":148148,"SoundDuration":148148,"Delta":168071787},{"NoteNumber":60,"Velocity":30,"Duration":148698,"SoundDuration":148698,"Delta":168219935},{"NoteNumber":72,"Velocity":43,"Duration":111524,"SoundDuration":111524,"Delta":168257109},{"NoteNumber":69,"Velocity":48,"Duration":336243,"SoundDuration":336243,"Delta":168368634},{"NoteNumber":51,"Velocity":34,"Duration":149253,"SoundDuration":149253,"Delta":168368634},{"NoteNumber":57,"Velocity":30,"Duration":149253,"SoundDuration":149253,"Delta":168517887},{"NoteNumber":60,"Velocity":30,"Duration":151086,"SoundDuration":151086,"Delta":168667141},{"NoteNumber":69,"Velocity":43,"Duration":113350,"SoundDuration":113350,"Delta":168704877},{"NoteNumber":70,"Velocity":48,"Duration":342643,"SoundDuration":342643,"Delta":168818227},{"NoteNumber":50,"Velocity":34,"Duration":151803,"SoundDuration":151803,"Delta":168818227},{"NoteNumber":58,"Velocity":29,"Duration":152526,"SoundDuration":152526,"Delta":168970030},{"NoteNumber":60,"Velocity":29,"Duration":153404,"SoundDuration":153404,"Delta":169122557},{"NoteNumber":70,"Velocity":42,"Duration":115089,"SoundDuration":115089,"Delta":169160871},{"NoteNumber":67,"Velocity":48,"Duration":346153,"SoundDuration":346153,"Delta":169275961},{"NoteNumber":52,"Velocity":34,"Duration":153845,"SoundDuration":153845,"Delta":169275961},{"NoteNumber":58,"Velocity":30,"Duration":153846,"SoundDuration":153846,"Delta":169429807},{"NoteNumber":60,"Velocity":30,"Duration":153845,"SoundDuration":153845,"Delta":169583653},{"NoteNumber":67,"Velocity":42,"Duration":115384,"SoundDuration":115384,"Delta":169622114},{"NoteNumber":72,"Velocity":48,"Duration":346153,"SoundDuration":346153,"Delta":169737499},{"NoteNumber":53,"Velocity":34,"Duration":153845,"SoundDuration":153845,"Delta":169737499},{"NoteNumber":57,"Velocity":31,"Duration":153846,"SoundDuration":153846,"Delta":169891345},{"NoteNumber":60,"Velocity":31,"Duration":153845,"SoundDuration":153845,"Delta":170045191},{"NoteNumber":77,"Velocity":36,"Duration":115384,"SoundDuration":115384,"Delta":170083652},{"NoteNumber":72,"Velocity":45,"Duration":230769,"SoundDuration":230769,"Delta":170199037},{"NoteNumber":53,"Velocity":34,"Duration":153846,"SoundDuration":153846,"Delta":170199037},{"NoteNumber":57,"Velocity":30,"Duration":153845,"SoundDuration":153845,"Delta":170352883},{"NoteNumber":60,"Velocity":30,"Duration":153845,"SoundDuration":153845,"Delta":170506729},{"NoteNumber":77,"Velocity":43,"Duration":115384,"SoundDuration":115384,"Delta":170545190},{"NoteNumber":81,"Velocity":48,"Duration":336938,"SoundDuration":336938,"Delta":170660575},{"NoteNumber":53,"Velocity":34,"Duration":149812,"SoundDuration":149812,"Delta":170660575},{"NoteNumber":57,"Velocity":29,"Duration":149812,"SoundDuration":149812,"Delta":170810388},{"NoteNumber":60,"Velocity":29,"Duration":149253,"SoundDuration":149253,"Delta":170960200},{"NoteNumber":81,"Velocity":45,"Duration":111940,"SoundDuration":111940,"Delta":170997514},{"NoteNumber":84,"Velocity":52,"Duration":335127,"SoundDuration":335127,"Delta":171109454},{"NoteNumber":52,"Velocity":34,"Duration":149253,"SoundDuration":149253,"Delta":171109454},{"NoteNumber":55,"Velocity":30,"Duration":148698,"SoundDuration":148698,"Delta":171258708},{"NoteNumber":60,"Velocity":30,"Duration":148699,"SoundDuration":148699,"Delta":171407407},{"NoteNumber":84,"Velocity":48,"Duration":111524,"SoundDuration":111524,"Delta":171444581},{"NoteNumber":89,"Velocity":52,"Duration":332924,"SoundDuration":332924,"Delta":171556106},{"NoteNumber":50,"Velocity":34,"Duration":147601,"SoundDuration":147601,"Delta":171556106},{"NoteNumber":53,"Velocity":30,"Duration":148148,"SoundDuration":148148,"Delta":171703707},{"NoteNumber":57,"Velocity":30,"Duration":148698,"SoundDuration":148698,"Delta":171851855},{"NoteNumber":89,"Velocity":50,"Duration":111524,"SoundDuration":111524,"Delta":171889030},{"NoteNumber":91,"Velocity":56,"Duration":336243,"SoundDuration":336243,"Delta":172000554},{"NoteNumber":50,"Velocity":34,"Duration":149253,"SoundDuration":149253,"Delta":172000554},{"NoteNumber":53,"Velocity":30,"Duration":149253,"SoundDuration":149253,"Delta":172149808},{"NoteNumber":59,"Velocity":30,"Duration":151086,"SoundDuration":151086,"Delta":172299061},{"NoteNumber":91,"Velocity":49,"Duration":113350,"SoundDuration":113350,"Delta":172336797},{"NoteNumber":93,"Velocity":55,"Duration":342643,"SoundDuration":342643,"Delta":172450148},{"NoteNumber":48,"Velocity":34,"Duration":151803,"SoundDuration":151803,"Delta":172450148},{"NoteNumber":53,"Velocity":29,"Duration":152526,"SoundDuration":152526,"Delta":172601951},{"NoteNumber":60,"Velocity":29,"Duration":153404,"SoundDuration":153404,"Delta":172754477},{"NoteNumber":93,"Velocity":48,"Duration":115089,"SoundDuration":115089,"Delta":172792791},{"NoteNumber":96,"Velocity":54,"Duration":346153,"SoundDuration":346153,"Delta":172907881},{"NoteNumber":48,"Velocity":34,"Duration":153845,"SoundDuration":153845,"Delta":172907881},{"NoteNumber":52,"Velocity":30,"Duration":153846,"SoundDuration":153846,"Delta":173061727},{"NoteNumber":60,"Velocity":30,"Duration":153845,"SoundDuration":153845,"Delta":173215573},{"NoteNumber":96,"Velocity":47,"Duration":115384,"SoundDuration":115384,"Delta":173254035},{"NoteNumber":93,"Velocity":53,"Duration":230769,"SoundDuration":230769,"Delta":173369419},{"NoteNumber":41,"Velocity":34,"Duration":153845,"SoundDuration":153845,"Delta":173369419},{"NoteNumber":57,"Velocity":31,"Duration":153846,"SoundDuration":153846,"Delta":173523265},{"NoteNumber":60,"Velocity":31,"Duration":153845,"SoundDuration":153845,"Delta":173677111},{"NoteNumber":53,"Velocity":34,"Duration":150943,"SoundDuration":150943,"Delta":173830957},{"NoteNumber":57,"Velocity":30,"Duration":150943,"SoundDuration":150943,"Delta":173981901},{"NoteNumber":60,"Velocity":30,"Duration":150943,"SoundDuration":150943,"Delta":174132844},{"NoteNumber":77,"Velocity":43,"Duration":113207,"SoundDuration":113207,"Delta":174170580},{"NoteNumber":81,"Velocity":48,"Duration":336938,"SoundDuration":336938,"Delta":174283787},{"NoteNumber":53,"Velocity":34,"Duration":149812,"SoundDuration":149812,"Delta":174283787},{"NoteNumber":57,"Velocity":29,"Duration":149812,"SoundDuration":149812,"Delta":174433600},{"NoteNumber":60,"Velocity":29,"Duration":149253,"SoundDuration":149253,"Delta":174583413},{"NoteNumber":81,"Velocity":43,"Duration":111940,"SoundDuration":111940,"Delta":174620726},{"NoteNumber":77,"Velocity":48,"Duration":335127,"SoundDuration":335127,"Delta":174732666},{"NoteNumber":53,"Velocity":34,"Duration":149253,"SoundDuration":149253,"Delta":174732666},{"NoteNumber":57,"Velocity":30,"Duration":148698,"SoundDuration":148698,"Delta":174881920},{"NoteNumber":60,"Velocity":30,"Duration":148699,"SoundDuration":148699,"Delta":175030619},{"NoteNumber":77,"Velocity":42,"Duration":111524,"SoundDuration":111524,"Delta":175067794},{"NoteNumber":72,"Velocity":48,"Duration":332924,"SoundDuration":332924,"Delta":175179318},{"NoteNumber":53,"Velocity":34,"Duration":147601,"SoundDuration":147601,"Delta":175179318},{"NoteNumber":57,"Velocity":30,"Duration":148148,"SoundDuration":148148,"Delta":175326919},{"NoteNumber":60,"Velocity":30,"Duration":148698,"SoundDuration":148698,"Delta":175475067},{"NoteNumber":72,"Velocity":43,"Duration":111524,"SoundDuration":111524,"Delta":175512242},{"NoteNumber":69,"Velocity":48,"Duration":336243,"SoundDuration":336243,"Delta":175623766},{"NoteNumber":51,"Velocity":34,"Duration":149253,"SoundDuration":149253,"Delta":175623766},{"NoteNumber":57,"Velocity":30,"Duration":149253,"SoundDuration":149253,"Delta":175773020},{"NoteNumber":60,"Velocity":30,"Duration":151086,"SoundDuration":151086,"Delta":175922274},{"NoteNumber":69,"Velocity":43,"Duration":113350,"SoundDuration":113350,"Delta":175960009},{"NoteNumber":72,"Velocity":48,"Duration":342643,"SoundDuration":342643,"Delta":176073360},{"NoteNumber":50,"Velocity":34,"Duration":151803,"SoundDuration":151803,"Delta":176073360},{"NoteNumber":58,"Velocity":29,"Duration":152526,"SoundDuration":152526,"Delta":176225163},{"NoteNumber":60,"Velocity":29,"Duration":153404,"SoundDuration":153404,"Delta":176377690},{"NoteNumber":72,"Velocity":42,"Duration":115089,"SoundDuration":115089,"Delta":176416004},{"NoteNumber":70,"Velocity":48,"Duration":346153,"SoundDuration":346153,"Delta":176531094},{"NoteNumber":52,"Velocity":34,"Duration":153845,"SoundDuration":153845,"Delta":176531094},{"NoteNumber":58,"Velocity":30,"Duration":153846,"SoundDuration":153846,"Delta":176684940},{"NoteNumber":60,"Velocity":30,"Duration":153845,"SoundDuration":153845,"Delta":176838786},{"NoteNumber":70,"Velocity":42,"Duration":115384,"SoundDuration":115384,"Delta":176877247},{"NoteNumber":69,"Velocity":48,"Duration":346153,"SoundDuration":346153,"Delta":176992632},{"NoteNumber":53,"Velocity":34,"Duration":153845,"SoundDuration":153845,"Delta":176992632},{"NoteNumber":57,"Velocity":31,"Duration":153846,"SoundDuration":153846,"Delta":177146478},{"NoteNumber":60,"Velocity":31,"Duration":153845,"SoundDuration":153845,"Delta":177300324},{"NoteNumber":77,"Velocity":36,"Duration":115384,"SoundDuration":115384,"Delta":177338785},{"NoteNumber":72,"Velocity":45,"Duration":230769,"SoundDuration":230769,"Delta":177454170},{"NoteNumber":53,"Velocity":34,"Duration":153846,"SoundDuration":153846,"Delta":177454170},{"NoteNumber":57,"Velocity":30,"Duration":153845,"SoundDuration":153845,"Delta":177608016},{"NoteNumber":60,"Velocity":30,"Duration":153845,"SoundDuration":153845,"Delta":177761862},{"NoteNumber":77,"Velocity":43,"Duration":115384,"SoundDuration":115384,"Delta":177800323},{"NoteNumber":81,"Velocity":48,"Duration":336938,"SoundDuration":336938,"Delta":177915708},{"NoteNumber":53,"Velocity":34,"Duration":149812,"SoundDuration":149812,"Delta":177915708},{"NoteNumber":57,"Velocity":29,"Duration":149812,"SoundDuration":149812,"Delta":178065520},{"NoteNumber":60,"Velocity":29,"Duration":149253,"SoundDuration":149253,"Delta":178215333},{"NoteNumber":81,"Velocity":45,"Duration":111940,"SoundDuration":111940,"Delta":178252646},{"NoteNumber":84,"Velocity":52,"Duration":335127,"SoundDuration":335127,"Delta":178364587},{"NoteNumber":52,"Velocity":34,"Duration":149253,"SoundDuration":149253,"Delta":178364587},{"NoteNumber":55,"Velocity":30,"Duration":148698,"SoundDuration":148698,"Delta":178513840},{"NoteNumber":60,"Velocity":30,"Duration":148699,"SoundDuration":148699,"Delta":178662539},{"NoteNumber":84,"Velocity":48,"Duration":111524,"SoundDuration":111524,"Delta":178699714},{"NoteNumber":89,"Velocity":52,"Duration":332924,"SoundDuration":332924,"Delta":178811238},{"NoteNumber":50,"Velocity":34,"Duration":147601,"SoundDuration":147601,"Delta":178811238},{"NoteNumber":53,"Velocity":30,"Duration":148148,"SoundDuration":148148,"Delta":178958840},{"NoteNumber":57,"Velocity":30,"Duration":148698,"SoundDuration":148698,"Delta":179106988},{"NoteNumber":89,"Velocity":50,"Duration":111524,"SoundDuration":111524,"Delta":179144162},{"NoteNumber":91,"Velocity":56,"Duration":336243,"SoundDuration":336243,"Delta":179255687},{"NoteNumber":50,"Velocity":34,"Duration":149253,"SoundDuration":149253,"Delta":179255687},{"NoteNumber":53,"Velocity":30,"Duration":149253,"SoundDuration":149253,"Delta":179404940},{"NoteNumber":59,"Velocity":30,"Duration":151086,"SoundDuration":151086,"Delta":179554194},{"NoteNumber":91,"Velocity":49,"Duration":113350,"SoundDuration":113350,"Delta":179591930},{"NoteNumber":93,"Velocity":55,"Duration":342643,"SoundDuration":342643,"Delta":179705280},{"NoteNumber":48,"Velocity":34,"Duration":151803,"SoundDuration":151803,"Delta":179705280},{"NoteNumber":53,"Velocity":29,"Duration":152526,"SoundDuration":152526,"Delta":179857083},{"NoteNumber":60,"Velocity":29,"Duration":153404,"SoundDuration":153404,"Delta":180009610},{"NoteNumber":93,"Velocity":48,"Duration":115089,"SoundDuration":115089,"Delta":180047924},{"NoteNumber":96,"Velocity":54,"Duration":346153,"SoundDuration":346153,"Delta":180163014},{"NoteNumber":48,"Velocity":34,"Duration":153845,"SoundDuration":153845,"Delta":180163014},{"NoteNumber":52,"Velocity":30,"Duration":153846,"SoundDuration":153846,"Delta":180316860},{"NoteNumber":60,"Velocity":30,"Duration":153845,"SoundDuration":153845,"Delta":180470706},{"NoteNumber":96,"Velocity":47,"Duration":115384,"SoundDuration":115384,"Delta":180509167},{"NoteNumber":101,"Velocity":53,"Duration":230769,"SoundDuration":230769,"Delta":180624552},{"NoteNumber":41,"Velocity":34,"Duration":153845,"SoundDuration":153845,"Delta":180624552},{"NoteNumber":57,"Velocity":31,"Duration":153846,"SoundDuration":153846,"Delta":180778398},{"NoteNumber":60,"Velocity":31,"Duration":153845,"SoundDuration":153845,"Delta":180932244},{"NoteNumber":53,"Velocity":34,"Duration":152091,"SoundDuration":152091,"Delta":181086090},{"NoteNumber":57,"Velocity":30,"Duration":152091,"SoundDuration":152091,"Delta":181238181},{"NoteNumber":60,"Velocity":30,"Duration":152091,"SoundDuration":152091,"Delta":181390273},{"NoteNumber":88,"Velocity":43,"Duration":114068,"SoundDuration":114068,"Delta":181428295},{"NoteNumber":89,"Velocity":48,"Duration":336938,"SoundDuration":336938,"Delta":181542364},{"NoteNumber":53,"Velocity":34,"Duration":149812,"SoundDuration":149812,"Delta":181542364},{"NoteNumber":57,"Velocity":29,"Duration":149812,"SoundDuration":149812,"Delta":181692177},{"NoteNumber":60,"Velocity":29,"Duration":149253,"SoundDuration":149253,"Delta":181841989},{"NoteNumber":89,"Velocity":45,"Duration":111940,"SoundDuration":111940,"Delta":181879303},{"NoteNumber":87,"Velocity":52,"Duration":335127,"SoundDuration":335127,"Delta":181991243},{"NoteNumber":54,"Velocity":34,"Duration":149253,"SoundDuration":149253,"Delta":181991243},{"NoteNumber":57,"Velocity":30,"Duration":148698,"SoundDuration":148698,"Delta":182140497},{"NoteNumber":60,"Velocity":30,"Duration":148699,"SoundDuration":148699,"Delta":182289196},{"NoteNumber":87,"Velocity":48,"Duration":111524,"SoundDuration":111524,"Delta":182326370},{"NoteNumber":84,"Velocity":52,"Duration":332924,"SoundDuration":332924,"Delta":182437895},{"NoteNumber":53,"Velocity":34,"Duration":147601,"SoundDuration":147601,"Delta":182437895},{"NoteNumber":57,"Velocity":30,"Duration":148148,"SoundDuration":148148,"Delta":182585496},{"NoteNumber":60,"Velocity":30,"Duration":148698,"SoundDuration":148698,"Delta":182733644},{"NoteNumber":84,"Velocity":50,"Duration":111524,"SoundDuration":111524,"Delta":182770819},{"NoteNumber":81,"Velocity":56,"Duration":334711,"SoundDuration":334711,"Delta":182882343},{"NoteNumber":54,"Velocity":34,"Duration":148837,"SoundDuration":148837,"Delta":182882343},{"NoteNumber":57,"Velocity":30,"Duration":148698,"SoundDuration":148698,"Delta":183031181},{"NoteNumber":60,"Velocity":30,"Duration":148698,"SoundDuration":148698,"Delta":183179880},{"NoteNumber":81,"Velocity":49,"Duration":111524,"SoundDuration":111524,"Delta":183217054},{"NoteNumber":84,"Velocity":55,"Duration":335682,"SoundDuration":335682,"Delta":183328579},{"NoteNumber":53,"Velocity":34,"Duration":149115,"SoundDuration":149115,"Delta":183328579},{"NoteNumber":57,"Velocity":29,"Duration":149253,"SoundDuration":149253,"Delta":183477694},{"NoteNumber":60,"Velocity":29,"Duration":149253,"SoundDuration":149253,"Delta":183626947},{"NoteNumber":84,"Velocity":48,"Duration":111940,"SoundDuration":111940,"Delta":183664261},{"NoteNumber":85,"Velocity":54,"Duration":336938,"SoundDuration":336938,"Delta":183776201},{"NoteNumber":51,"Velocity":34,"Duration":149672,"SoundDuration":149672,"Delta":183776201},{"NoteNumber":55,"Velocity":30,"Duration":149812,"SoundDuration":149812,"Delta":183925874},{"NoteNumber":61,"Velocity":30,"Duration":149812,"SoundDuration":149812,"Delta":184075687},{"NoteNumber":85,"Velocity":47,"Duration":112359,"SoundDuration":112359,"Delta":184113140},{"NoteNumber":86,"Velocity":55,"Duration":335820,"SoundDuration":335820,"Delta":184225499},{"NoteNumber":50,"Velocity":34,"Duration":149253,"SoundDuration":149253,"Delta":184225499},{"NoteNumber":54,"Velocity":28,"Duration":149253,"SoundDuration":149253,"Delta":184374753},{"NoteNumber":62,"Velocity":28,"Duration":149253,"SoundDuration":149253,"Delta":184524007},{"NoteNumber":86,"Velocity":47,"Duration":111940,"SoundDuration":111940,"Delta":184561320},{"NoteNumber":86,"Velocity":52,"Duration":336938,"SoundDuration":336938,"Delta":184673260},{"NoteNumber":50,"Velocity":33,"Duration":149672,"SoundDuration":149672,"Delta":184673260},{"NoteNumber":55,"Velocity":28,"Duration":149812,"SoundDuration":149812,"Delta":184822933},{"NoteNumber":58,"Velocity":28,"Duration":149812,"SoundDuration":149812,"Delta":184972746},{"NoteNumber":86,"Velocity":44,"Duration":112359,"SoundDuration":112359,"Delta":185010199},{"NoteNumber":86,"Velocity":51,"Duration":339911,"SoundDuration":339911,"Delta":185122558},{"NoteNumber":50,"Velocity":31,"Duration":150660,"SoundDuration":150660,"Delta":185122558},{"NoteNumber":54,"Velocity":26,"Duration":151372,"SoundDuration":151372,"Delta":185273219},{"NoteNumber":57,"Velocity":26,"Duration":151947,"SoundDuration":151947,"Delta":185424591},{"NoteNumber":86,"Velocity":43,"Duration":114068,"SoundDuration":114068,"Delta":185462470},{"NoteNumber":86,"Velocity":48,"Duration":343951,"SoundDuration":343951,"Delta":185576538},{"NoteNumber":50,"Velocity":30,"Duration":152526,"SoundDuration":152526,"Delta":185576538},{"NoteNumber":55,"Velocity":26,"Duration":153110,"SoundDuration":153110,"Delta":185729065},{"NoteNumber":58,"Velocity":26,"Duration":153698,"SoundDuration":153698,"Delta":185882175},{"NoteNumber":86,"Velocity":40,"Duration":115384,"SoundDuration":115384,"Delta":185920490},{"NoteNumber":86,"Velocity":47,"Duration":229159,"SoundDuration":229159,"Delta":186035874},{"NoteNumber":50,"Velocity":29,"Duration":152968,"SoundDuration":152968,"Delta":186035874},{"NoteNumber":54,"Velocity":27,"Duration":152526,"SoundDuration":152526,"Delta":186188843},{"NoteNumber":57,"Velocity":28,"Duration":153404,"SoundDuration":153404,"Delta":186341369},{"NoteNumber":50,"Velocity":34,"Duration":153845,"SoundDuration":153845,"Delta":186494773},{"NoteNumber":55,"Velocity":30,"Duration":155047,"SoundDuration":155047,"Delta":186648619},{"NoteNumber":58,"Velocity":30,"Duration":156250,"SoundDuration":156250,"Delta":186803667},{"NoteNumber":74,"Velocity":48,"Duration":87890,"SoundDuration":87890,"Delta":186842730},{"NoteNumber":75,"Velocity":53,"Duration":234375,"SoundDuration":234375,"Delta":186959917},{"NoteNumber":50,"Velocity":34,"Duration":156250,"SoundDuration":156250,"Delta":186959917},{"NoteNumber":54,"Velocity":31,"Duration":156869,"SoundDuration":156869,"Delta":187116167},{"NoteNumber":74,"Velocity":49,"Duration":237474,"SoundDuration":237474,"Delta":187194292},{"NoteNumber":57,"Velocity":31,"Duration":158729,"SoundDuration":158729,"Delta":187273037},{"NoteNumber":74,"Velocity":51,"Duration":119047,"SoundDuration":119047,"Delta":187431767},{"NoteNumber":48,"Velocity":34,"Duration":158730,"SoundDuration":158730,"Delta":187431767},{"NoteNumber":54,"Velocity":31,"Duration":159686,"SoundDuration":159686,"Delta":187590497},{"NoteNumber":74,"Velocity":49,"Duration":120482,"SoundDuration":120482,"Delta":187669862},{"NoteNumber":57,"Velocity":31,"Duration":160642,"SoundDuration":160642,"Delta":187750184},{"NoteNumber":74,"Velocity":47,"Duration":234375,"SoundDuration":234375,"Delta":187910826},{"NoteNumber":46,"Velocity":34,"Duration":78125,"SoundDuration":78125,"Delta":187910826},{"NoteNumber":53,"Velocity":34,"Duration":78125,"SoundDuration":78125,"Delta":187910826},{"NoteNumber":58,"Velocity":34,"Duration":78125,"SoundDuration":78125,"Delta":187910826},{"NoteNumber":62,"Velocity":30,"Duration":156250,"SoundDuration":156250,"Delta":188067076},{"NoteNumber":65,"Velocity":30,"Duration":156250,"SoundDuration":156250,"Delta":188223326},{"NoteNumber":58,"Velocity":34,"Duration":156250,"SoundDuration":156250,"Delta":188379576},{"NoteNumber":62,"Velocity":30,"Duration":156250,"SoundDuration":156250,"Delta":188535826},{"NoteNumber":65,"Velocity":30,"Duration":156250,"SoundDuration":156250,"Delta":188692076},{"NoteNumber":93,"Velocity":43,"Duration":117187,"SoundDuration":117187,"Delta":188731139},{"NoteNumber":94,"Velocity":48,"Duration":336938,"SoundDuration":336938,"Delta":188848326},{"NoteNumber":58,"Velocity":34,"Duration":149812,"SoundDuration":149812,"Delta":188848326},{"NoteNumber":62,"Velocity":29,"Duration":149812,"SoundDuration":149812,"Delta":188998139},{"NoteNumber":65,"Velocity":29,"Duration":149253,"SoundDuration":149253,"Delta":189147952},{"NoteNumber":94,"Velocity":45,"Duration":111940,"SoundDuration":111940,"Delta":189185265},{"NoteNumber":92,"Velocity":52,"Duration":335127,"SoundDuration":335127,"Delta":189297205},{"NoteNumber":59,"Velocity":34,"Duration":149253,"SoundDuration":149253,"Delta":189297205},{"NoteNumber":62,"Velocity":30,"Duration":148698,"SoundDuration":148698,"Delta":189446459},{"NoteNumber":65,"Velocity":30,"Duration":148699,"SoundDuration":148699,"Delta":189595158},{"NoteNumber":92,"Velocity":48,"Duration":111524,"SoundDuration":111524,"Delta":189632333},{"NoteNumber":89,"Velocity":52,"Duration":332924,"SoundDuration":332924,"Delta":189743857},{"NoteNumber":58,"Velocity":34,"Duration":147601,"SoundDuration":147601,"Delta":189743857},{"NoteNumber":62,"Velocity":30,"Duration":148148,"SoundDuration":148148,"Delta":189891458},{"NoteNumber":65,"Velocity":30,"Duration":148698,"SoundDuration":148698,"Delta":190039606},{"NoteNumber":89,"Velocity":48,"Duration":111524,"SoundDuration":111524,"Delta":190076781},{"NoteNumber":86,"Velocity":54,"Duration":334711,"SoundDuration":334711,"Delta":190188305},{"NoteNumber":59,"Velocity":34,"Duration":148837,"SoundDuration":148837,"Delta":190188305},{"NoteNumber":62,"Velocity":30,"Duration":148698,"SoundDuration":148698,"Delta":190337143},{"NoteNumber":65,"Velocity":30,"Duration":148698,"SoundDuration":148698,"Delta":190485842},{"NoteNumber":86,"Velocity":49,"Duration":111524,"SoundDuration":111524,"Delta":190523017},{"NoteNumber":89,"Velocity":54,"Duration":335682,"SoundDuration":335682,"Delta":190634541},{"NoteNumber":58,"Velocity":34,"Duration":149115,"SoundDuration":149115,"Delta":190634541},{"NoteNumber":62,"Velocity":29,"Duration":149253,"SoundDuration":149253,"Delta":190783656},{"NoteNumber":65,"Velocity":29,"Duration":149253,"SoundDuration":149253,"Delta":190932910},{"NoteNumber":89,"Velocity":48,"Duration":111940,"SoundDuration":111940,"Delta":190970223},{"NoteNumber":90,"Velocity":54,"Duration":336938,"SoundDuration":336938,"Delta":191082163},{"NoteNumber":56,"Velocity":34,"Duration":149672,"SoundDuration":149672,"Delta":191082163},{"NoteNumber":60,"Velocity":30,"Duration":149812,"SoundDuration":149812,"Delta":191231836},{"NoteNumber":66,"Velocity":30,"Duration":149812,"SoundDuration":149812,"Delta":191381649},{"NoteNumber":90,"Velocity":47,"Duration":112359,"SoundDuration":112359,"Delta":191419102},{"NoteNumber":91,"Velocity":55,"Duration":335820,"SoundDuration":335820,"Delta":191531462},{"NoteNumber":55,"Velocity":34,"Duration":149253,"SoundDuration":149253,"Delta":191531462},{"NoteNumber":59,"Velocity":28,"Duration":149253,"SoundDuration":149253,"Delta":191680715},{"NoteNumber":67,"Velocity":28,"Duration":149253,"SoundDuration":149253,"Delta":191829969},{"NoteNumber":91,"Velocity":47,"Duration":111940,"SoundDuration":111940,"Delta":191867282},{"NoteNumber":91,"Velocity":52,"Duration":336938,"SoundDuration":336938,"Delta":191979223},{"NoteNumber":55,"Velocity":33,"Duration":149672,"SoundDuration":149672,"Delta":191979223},{"NoteNumber":60,"Velocity":28,"Duration":149812,"SoundDuration":149812,"Delta":192128896},{"NoteNumber":63,"Velocity":28,"Duration":149812,"SoundDuration":149812,"Delta":192278708},{"NoteNumber":91,"Velocity":44,"Duration":112359,"SoundDuration":112359,"Delta":192316161},{"NoteNumber":91,"Velocity":51,"Duration":339911,"SoundDuration":339911,"Delta":192428521},{"NoteNumber":55,"Velocity":31,"Duration":150660,"SoundDuration":150660,"Delta":192428521},{"NoteNumber":59,"Velocity":26,"Duration":151372,"SoundDuration":151372,"Delta":192579182},{"NoteNumber":62,"Velocity":26,"Duration":151947,"SoundDuration":151947,"Delta":192730554},{"NoteNumber":91,"Velocity":43,"Duration":114068,"SoundDuration":114068,"Delta":192768432},{"NoteNumber":91,"Velocity":48,"Duration":343951,"SoundDuration":343951,"Delta":192882501},{"NoteNumber":55,"Velocity":30,"Duration":152526,"SoundDuration":152526,"Delta":192882501},{"NoteNumber":60,"Velocity":26,"Duration":153110,"SoundDuration":153110,"Delta":193035027},{"NoteNumber":63,"Velocity":26,"Duration":153698,"SoundDuration":153698,"Delta":193188138},{"NoteNumber":91,"Velocity":40,"Duration":115384,"SoundDuration":115384,"Delta":193226452},{"NoteNumber":91,"Velocity":47,"Duration":229159,"SoundDuration":229159,"Delta":193341837},{"NoteNumber":55,"Velocity":29,"Duration":152968,"SoundDuration":152968,"Delta":193341837},{"NoteNumber":59,"Velocity":27,"Duration":152526,"SoundDuration":152526,"Delta":193494805},{"NoteNumber":62,"Velocity":28,"Duration":153404,"SoundDuration":153404,"Delta":193647332},{"NoteNumber":55,"Velocity":34,"Duration":153845,"SoundDuration":153845,"Delta":193800736},{"NoteNumber":60,"Velocity":30,"Duration":155047,"SoundDuration":155047,"Delta":193954582},{"NoteNumber":63,"Velocity":30,"Duration":156250,"SoundDuration":156250,"Delta":194109630},{"NoteNumber":79,"Velocity":48,"Duration":87890,"SoundDuration":87890,"Delta":194148692},{"NoteNumber":80,"Velocity":53,"Duration":234375,"SoundDuration":234375,"Delta":194265880},{"NoteNumber":55,"Velocity":34,"Duration":156250,"SoundDuration":156250,"Delta":194265880},{"NoteNumber":59,"Velocity":31,"Duration":156869,"SoundDuration":156869,"Delta":194422130},{"NoteNumber":79,"Velocity":49,"Duration":118427,"SoundDuration":118427,"Delta":194500255},{"NoteNumber":62,"Velocity":31,"Duration":158729,"SoundDuration":158729,"Delta":194579000},{"NoteNumber":79,"Velocity":51,"Duration":119047,"SoundDuration":119047,"Delta":194737730},{"NoteNumber":55,"Velocity":34,"Duration":158730,"SoundDuration":158730,"Delta":194737730},{"NoteNumber":60,"Velocity":31,"Duration":159686,"SoundDuration":159686,"Delta":194896460},{"NoteNumber":79,"Velocity":49,"Duration":120482,"SoundDuration":120482,"Delta":194975825},{"NoteNumber":63,"Velocity":31,"Duration":160642,"SoundDuration":160642,"Delta":195056146},{"NoteNumber":79,"Velocity":47,"Duration":234375,"SoundDuration":234375,"Delta":195216789},{"NoteNumber":55,"Velocity":34,"Duration":156250,"SoundDuration":156250,"Delta":195216789},{"NoteNumber":59,"Velocity":30,"Duration":156250,"SoundDuration":156250,"Delta":195373039},{"NoteNumber":62,"Velocity":30,"Duration":156250,"SoundDuration":156250,"Delta":195529289},{"NoteNumber":55,"Velocity":34,"Duration":156250,"SoundDuration":156250,"Delta":195685539},{"NoteNumber":60,"Velocity":30,"Duration":156250,"SoundDuration":156250,"Delta":195841789},{"NoteNumber":63,"Velocity":30,"Duration":156250,"SoundDuration":156250,"Delta":195998039},{"NoteNumber":94,"Velocity":48,"Duration":87890,"SoundDuration":87890,"Delta":196037101},{"NoteNumber":92,"Velocity":53,"Duration":234375,"SoundDuration":234375,"Delta":196154289},{"NoteNumber":55,"Velocity":34,"Duration":156250,"SoundDuration":156250,"Delta":196154289},{"NoteNumber":59,"Velocity":31,"Duration":156869,"SoundDuration":156869,"Delta":196310539},{"NoteNumber":91,"Velocity":49,"Duration":118427,"SoundDuration":118427,"Delta":196388664},{"NoteNumber":62,"Velocity":31,"Duration":158729,"SoundDuration":158729,"Delta":196467409},{"NoteNumber":91,"Velocity":51,"Duration":119047,"SoundDuration":119047,"Delta":196626139},{"NoteNumber":55,"Velocity":34,"Duration":158730,"SoundDuration":158730,"Delta":196626139},{"NoteNumber":60,"Velocity":31,"Duration":159686,"SoundDuration":159686,"Delta":196784869},{"NoteNumber":91,"Velocity":49,"Duration":120482,"SoundDuration":120482,"Delta":196864234},{"NoteNumber":63,"Velocity":31,"Duration":160642,"SoundDuration":160642,"Delta":196944555},{"NoteNumber":91,"Velocity":47,"Duration":234375,"SoundDuration":234375,"Delta":197105198},{"NoteNumber":55,"Velocity":34,"Duration":156250,"SoundDuration":156250,"Delta":197105198},{"NoteNumber":59,"Velocity":30,"Duration":156250,"SoundDuration":156250,"Delta":197261448},{"NoteNumber":62,"Velocity":30,"Duration":156250,"SoundDuration":156250,"Delta":197417698},{"NoteNumber":55,"Velocity":34,"Duration":156250,"SoundDuration":156250,"Delta":197573948},{"NoteNumber":60,"Velocity":30,"Duration":156250,"SoundDuration":156250,"Delta":197730198},{"NoteNumber":63,"Velocity":30,"Duration":156250,"SoundDuration":156250,"Delta":197886448},{"NoteNumber":67,"Velocity":48,"Duration":87890,"SoundDuration":87890,"Delta":197925510},{"NoteNumber":68,"Velocity":53,"Duration":234375,"SoundDuration":234375,"Delta":198042698},{"NoteNumber":55,"Velocity":34,"Duration":156250,"SoundDuration":156250,"Delta":198042698},{"NoteNumber":59,"Velocity":31,"Duration":156869,"SoundDuration":156869,"Delta":198198948},{"NoteNumber":67,"Velocity":49,"Duration":118427,"SoundDuration":118427,"Delta":198277073},{"NoteNumber":62,"Velocity":31,"Duration":158729,"SoundDuration":158729,"Delta":198355818},{"NoteNumber":67,"Velocity":51,"Duration":119047,"SoundDuration":119047,"Delta":198514548},{"NoteNumber":55,"Velocity":34,"Duration":158730,"SoundDuration":158730,"Delta":198514548},{"NoteNumber":60,"Velocity":31,"Duration":159686,"SoundDuration":159686,"Delta":198673278},{"NoteNumber":67,"Velocity":49,"Duration":120482,"SoundDuration":120482,"Delta":198752643},{"NoteNumber":63,"Velocity":31,"Duration":160642,"SoundDuration":160642,"Delta":198832964},{"NoteNumber":67,"Velocity":47,"Duration":234375,"SoundDuration":234375,"Delta":198993607},{"NoteNumber":55,"Velocity":34,"Duration":156250,"SoundDuration":156250,"Delta":198993607},{"NoteNumber":59,"Velocity":30,"Duration":156250,"SoundDuration":156250,"Delta":199149857},{"NoteNumber":62,"Velocity":30,"Duration":156250,"SoundDuration":156250,"Delta":199306107},{"NoteNumber":55,"Velocity":34,"Duration":156250,"SoundDuration":156250,"Delta":199462357},{"NoteNumber":60,"Velocity":30,"Duration":156250,"SoundDuration":156250,"Delta":199618607},{"NoteNumber":63,"Velocity":30,"Duration":156250,"SoundDuration":156250,"Delta":199774857},{"NoteNumber":82,"Velocity":48,"Duration":87890,"SoundDuration":87890,"Delta":199813919},{"NoteNumber":80,"Velocity":53,"Duration":234375,"SoundDuration":234375,"Delta":199931107},{"NoteNumber":55,"Velocity":34,"Duration":156250,"SoundDuration":156250,"Delta":199931107},{"NoteNumber":59,"Velocity":31,"Duration":156869,"SoundDuration":156869,"Delta":200087357},{"NoteNumber":79,"Velocity":49,"Duration":118427,"SoundDuration":118427,"Delta":200165482},{"NoteNumber":62,"Velocity":31,"Duration":158729,"SoundDuration":158729,"Delta":200244227},{"NoteNumber":79,"Velocity":51,"Duration":119047,"SoundDuration":119047,"Delta":200402957},{"NoteNumber":55,"Velocity":34,"Duration":158730,"SoundDuration":158730,"Delta":200402957},{"NoteNumber":60,"Velocity":31,"Duration":159686,"SoundDuration":159686,"Delta":200561687},{"NoteNumber":79,"Velocity":49,"Duration":120482,"SoundDuration":120482,"Delta":200641052},{"NoteNumber":63,"Velocity":31,"Duration":160642,"SoundDuration":160642,"Delta":200721373},{"NoteNumber":80,"Velocity":53,"Duration":240964,"SoundDuration":240964,"Delta":200882016},{"NoteNumber":55,"Velocity":34,"Duration":160642,"SoundDuration":160642,"Delta":200882016},{"NoteNumber":59,"Velocity":31,"Duration":160164,"SoundDuration":160164,"Delta":201042658},{"NoteNumber":79,"Velocity":49,"Duration":119525,"SoundDuration":119525,"Delta":201122980},{"NoteNumber":62,"Velocity":31,"Duration":158729,"SoundDuration":158729,"Delta":201202823},{"NoteNumber":79,"Velocity":51,"Duration":119047,"SoundDuration":119047,"Delta":201361553},{"NoteNumber":55,"Velocity":34,"Duration":158730,"SoundDuration":158730,"Delta":201361553},{"NoteNumber":60,"Velocity":31,"Duration":165201,"SoundDuration":165201,"Delta":201520283},{"NoteNumber":79,"Velocity":49,"Duration":128755,"SoundDuration":128755,"Delta":201599648},{"NoteNumber":63,"Velocity":31,"Duration":171673,"SoundDuration":171673,"Delta":201685485},{"NoteNumber":79,"Velocity":53,"Duration":248962,"SoundDuration":248962,"Delta":201857158},{"NoteNumber":62,"Velocity":34,"Duration":248962,"SoundDuration":248962,"Delta":201857158},{"NoteNumber":59,"Velocity":34,"Duration":248962,"SoundDuration":248962,"Delta":201857158},{"NoteNumber":55,"Velocity":34,"Duration":248962,"SoundDuration":248962,"Delta":201857158},{"NoteNumber":67,"Velocity":94,"Duration":1321202,"SoundDuration":1321202,"Delta":202355083},{"NoteNumber":55,"Velocity":78,"Duration":1321202,"SoundDuration":1321202,"Delta":202355083},{"NoteNumber":74,"Velocity":52,"Duration":84867,"SoundDuration":84867,"Delta":203563130},{"NoteNumber":72,"Velocity":63,"Duration":216029,"SoundDuration":216029,"Delta":203676286},{"NoteNumber":55,"Velocity":42,"Duration":216029,"SoundDuration":216029,"Delta":203676286},{"NoteNumber":71,"Velocity":37,"Duration":108014,"SoundDuration":108014,"Delta":203892315},{"NoteNumber":67,"Velocity":31,"Duration":108014,"SoundDuration":108014,"Delta":203892315},{"NoteNumber":71,"Velocity":43,"Duration":109681,"SoundDuration":109681,"Delta":204108345},{"NoteNumber":65,"Velocity":31,"Duration":109681,"SoundDuration":109681,"Delta":204108345},{"NoteNumber":62,"Velocity":26,"Duration":109681,"SoundDuration":109681,"Delta":204108345},{"NoteNumber":71,"Velocity":37,"Duration":111391,"SoundDuration":111391,"Delta":204327707},{"NoteNumber":67,"Velocity":32,"Duration":111391,"SoundDuration":111391,"Delta":204327707},{"NoteNumber":71,"Velocity":55,"Duration":219362,"SoundDuration":219362,"Delta":204550491},{"NoteNumber":55,"Velocity":44,"Duration":219362,"SoundDuration":219362,"Delta":204550491},{"NoteNumber":72,"Velocity":40,"Duration":109681,"SoundDuration":109681,"Delta":204769853},{"NoteNumber":67,"Velocity":28,"Duration":109681,"SoundDuration":109681,"Delta":204769853},{"NoteNumber":60,"Velocity":29,"Duration":109681,"SoundDuration":109681,"Delta":204989216},{"NoteNumber":63,"Velocity":35,"Duration":109681,"SoundDuration":109681,"Delta":204989216},{"NoteNumber":67,"Velocity":32,"Duration":112267,"SoundDuration":112267,"Delta":205208578},{"NoteNumber":75,"Velocity":51,"Duration":84200,"SoundDuration":84200,"Delta":205320845},{"NoteNumber":72,"Velocity":63,"Duration":216029,"SoundDuration":216029,"Delta":205433112},{"NoteNumber":55,"Velocity":42,"Duration":216029,"SoundDuration":216029,"Delta":205433112},{"NoteNumber":71,"Velocity":37,"Duration":108014,"SoundDuration":108014,"Delta":205649142},{"NoteNumber":67,"Velocity":31,"Duration":108014,"SoundDuration":108014,"Delta":205649142},{"NoteNumber":71,"Velocity":44,"Duration":109257,"SoundDuration":109257,"Delta":205865171},{"NoteNumber":65,"Velocity":31,"Duration":109257,"SoundDuration":109257,"Delta":205865171},{"NoteNumber":62,"Velocity":26,"Duration":109257,"SoundDuration":109257,"Delta":205865171},{"NoteNumber":71,"Velocity":37,"Duration":112267,"SoundDuration":112267,"Delta":206083687},{"NoteNumber":67,"Velocity":29,"Duration":112267,"SoundDuration":112267,"Delta":206083687},{"NoteNumber":71,"Velocity":57,"Duration":219362,"SoundDuration":219362,"Delta":206308221},{"NoteNumber":55,"Velocity":44,"Duration":219362,"SoundDuration":219362,"Delta":206308221},{"NoteNumber":72,"Velocity":47,"Duration":109681,"SoundDuration":109681,"Delta":206527583},{"NoteNumber":67,"Velocity":32,"Duration":109681,"SoundDuration":109681,"Delta":206527583},{"NoteNumber":54,"Velocity":29,"Duration":109681,"SoundDuration":109681,"Delta":206746946},{"NoteNumber":60,"Velocity":29,"Duration":109681,"SoundDuration":109681,"Delta":206746946},{"NoteNumber":63,"Velocity":35,"Duration":109681,"SoundDuration":109681,"Delta":206746946},{"NoteNumber":66,"Velocity":35,"Duration":111831,"SoundDuration":111831,"Delta":206966308},{"NoteNumber":75,"Velocity":54,"Duration":83873,"SoundDuration":83873,"Delta":207078140},{"NoteNumber":72,"Velocity":63,"Duration":215223,"SoundDuration":215223,"Delta":207189972},{"NoteNumber":53,"Velocity":42,"Duration":215223,"SoundDuration":215223,"Delta":207189972},{"NoteNumber":70,"Velocity":52,"Duration":107611,"SoundDuration":107611,"Delta":207405195},{"NoteNumber":65,"Velocity":35,"Duration":107611,"SoundDuration":107611,"Delta":207405195},{"NoteNumber":70,"Velocity":54,"Duration":109681,"SoundDuration":109681,"Delta":207620419},{"NoteNumber":62,"Velocity":35,"Duration":109681,"SoundDuration":109681,"Delta":207620419},{"NoteNumber":70,"Velocity":54,"Duration":109681,"SoundDuration":109681,"Delta":207839781},{"NoteNumber":65,"Velocity":36,"Duration":109681,"SoundDuration":109681,"Delta":207839781},{"NoteNumber":72,"Velocity":63,"Duration":216029,"SoundDuration":216029,"Delta":208059144},{"NoteNumber":55,"Velocity":42,"Duration":216029,"SoundDuration":216029,"Delta":208059144},{"NoteNumber":70,"Velocity":53,"Duration":108014,"SoundDuration":108014,"Delta":208275173},{"NoteNumber":64,"Velocity":36,"Duration":108014,"SoundDuration":108014,"Delta":208275173},{"NoteNumber":70,"Velocity":55,"Duration":109681,"SoundDuration":109681,"Delta":208491203},{"NoteNumber":60,"Velocity":36,"Duration":109681,"SoundDuration":109681,"Delta":208491203},{"NoteNumber":70,"Velocity":55,"Duration":109681,"SoundDuration":109681,"Delta":208710565},{"NoteNumber":64,"Velocity":36,"Duration":109681,"SoundDuration":109681,"Delta":208710565},{"NoteNumber":72,"Velocity":63,"Duration":107611,"SoundDuration":107611,"Delta":208929928},{"NoteNumber":62,"Velocity":42,"Duration":215223,"SoundDuration":215223,"Delta":208929928},{"NoteNumber":53,"Velocity":35,"Duration":215223,"SoundDuration":215223,"Delta":208929928},{"NoteNumber":70,"Velocity":52,"Duration":107611,"SoundDuration":107611,"Delta":209037540},{"NoteNumber":69,"Velocity":53,"Duration":107611,"SoundDuration":107611,"Delta":209145151},{"NoteNumber":65,"Velocity":33,"Duration":215223,"SoundDuration":215223,"Delta":209145151},{"NoteNumber":70,"Velocity":53,"Duration":107611,"SoundDuration":107611,"Delta":209252763},{"NoteNumber":72,"Velocity":58,"Duration":110954,"SoundDuration":110954,"Delta":209360375},{"NoteNumber":63,"Velocity":35,"Duration":110954,"SoundDuration":110954,"Delta":209360375},{"NoteNumber":53,"Velocity":29,"Duration":110954,"SoundDuration":110954,"Delta":209360375},{"NoteNumber":74,"Velocity":54,"Duration":114068,"SoundDuration":114068,"Delta":209582285},{"NoteNumber":65,"Velocity":34,"Duration":114068,"SoundDuration":114068,"Delta":209582285},{"NoteNumber":70,"Velocity":58,"Duration":225646,"SoundDuration":225646,"Delta":209810422},{"NoteNumber":62,"Velocity":42,"Duration":225646,"SoundDuration":225646,"Delta":209810422},{"NoteNumber":58,"Velocity":42,"Duration":225646,"SoundDuration":225646,"Delta":209810422},{"NoteNumber":67,"Velocity":94,"Duration":1323125,"SoundDuration":1323125,"Delta":210255431},{"NoteNumber":55,"Velocity":78,"Duration":1323125,"SoundDuration":1323125,"Delta":210255431},{"NoteNumber":86,"Velocity":52,"Duration":84867,"SoundDuration":84867,"Delta":211465400},{"NoteNumber":84,"Velocity":64,"Duration":216029,"SoundDuration":216029,"Delta":211578556},{"NoteNumber":55,"Velocity":42,"Duration":216029,"SoundDuration":216029,"Delta":211578556},{"NoteNumber":83,"Velocity":37,"Duration":108014,"SoundDuration":108014,"Delta":211794586},{"NoteNumber":67,"Velocity":31,"Duration":108014,"SoundDuration":108014,"Delta":211794586},{"NoteNumber":83,"Velocity":43,"Duration":109681,"SoundDuration":109681,"Delta":212010615},{"NoteNumber":65,"Velocity":31,"Duration":109681,"SoundDuration":109681,"Delta":212010615},{"NoteNumber":62,"Velocity":26,"Duration":109681,"SoundDuration":109681,"Delta":212010615},{"NoteNumber":83,"Velocity":37,"Duration":111391,"SoundDuration":111391,"Delta":212229978},{"NoteNumber":67,"Velocity":32,"Duration":111391,"SoundDuration":111391,"Delta":212229978},{"NoteNumber":83,"Velocity":55,"Duration":219362,"SoundDuration":219362,"Delta":212452761},{"NoteNumber":55,"Velocity":44,"Duration":219362,"SoundDuration":219362,"Delta":212452761},{"NoteNumber":84,"Velocity":42,"Duration":109681,"SoundDuration":109681,"Delta":212672124},{"NoteNumber":67,"Velocity":31,"Duration":109681,"SoundDuration":109681,"Delta":212672124},{"NoteNumber":60,"Velocity":29,"Duration":109681,"SoundDuration":109681,"Delta":212891486},{"NoteNumber":63,"Velocity":35,"Duration":109681,"SoundDuration":109681,"Delta":212891486},{"NoteNumber":67,"Velocity":32,"Duration":112267,"SoundDuration":112267,"Delta":213110849},{"NoteNumber":87,"Velocity":51,"Duration":84200,"SoundDuration":84200,"Delta":213223116},{"NoteNumber":84,"Velocity":64,"Duration":216029,"SoundDuration":216029,"Delta":213335383},{"NoteNumber":55,"Velocity":42,"Duration":216029,"SoundDuration":216029,"Delta":213335383},{"NoteNumber":83,"Velocity":37,"Duration":108014,"SoundDuration":108014,"Delta":213551412},{"NoteNumber":67,"Velocity":31,"Duration":108014,"SoundDuration":108014,"Delta":213551412},{"NoteNumber":83,"Velocity":44,"Duration":109257,"SoundDuration":109257,"Delta":213767442},{"NoteNumber":65,"Velocity":31,"Duration":109257,"SoundDuration":109257,"Delta":213767442},{"NoteNumber":62,"Velocity":26,"Duration":109257,"SoundDuration":109257,"Delta":213767442},{"NoteNumber":83,"Velocity":37,"Duration":112267,"SoundDuration":112267,"Delta":213985957},{"NoteNumber":67,"Velocity":29,"Duration":112267,"SoundDuration":112267,"Delta":213985957},{"NoteNumber":83,"Velocity":57,"Duration":219362,"SoundDuration":219362,"Delta":214210491},{"NoteNumber":55,"Velocity":44,"Duration":219362,"SoundDuration":219362,"Delta":214210491},{"NoteNumber":84,"Velocity":47,"Duration":109681,"SoundDuration":109681,"Delta":214429854},{"NoteNumber":67,"Velocity":32,"Duration":109681,"SoundDuration":109681,"Delta":214429854},{"NoteNumber":54,"Velocity":29,"Duration":109681,"SoundDuration":109681,"Delta":214649216},{"NoteNumber":60,"Velocity":29,"Duration":109681,"SoundDuration":109681,"Delta":214649216},{"NoteNumber":63,"Velocity":35,"Duration":109681,"SoundDuration":109681,"Delta":214649216},{"NoteNumber":66,"Velocity":35,"Duration":111831,"SoundDuration":111831,"Delta":214868579},{"NoteNumber":87,"Velocity":54,"Duration":83873,"SoundDuration":83873,"Delta":214980410},{"NoteNumber":84,"Velocity":64,"Duration":215223,"SoundDuration":215223,"Delta":215092242},{"NoteNumber":53,"Velocity":42,"Duration":215223,"SoundDuration":215223,"Delta":215092242},{"NoteNumber":82,"Velocity":52,"Duration":107611,"SoundDuration":107611,"Delta":215307466},{"NoteNumber":65,"Velocity":35,"Duration":107611,"SoundDuration":107611,"Delta":215307466},{"NoteNumber":82,"Velocity":54,"Duration":109681,"SoundDuration":109681,"Delta":215522689},{"NoteNumber":62,"Velocity":35,"Duration":109681,"SoundDuration":109681,"Delta":215522689},{"NoteNumber":82,"Velocity":54,"Duration":109681,"SoundDuration":109681,"Delta":215742052},{"NoteNumber":65,"Velocity":36,"Duration":109681,"SoundDuration":109681,"Delta":215742052},{"NoteNumber":84,"Velocity":64,"Duration":216029,"SoundDuration":216029,"Delta":215961414},{"NoteNumber":55,"Velocity":42,"Duration":216029,"SoundDuration":216029,"Delta":215961414},{"NoteNumber":82,"Velocity":53,"Duration":108014,"SoundDuration":108014,"Delta":216177444},{"NoteNumber":64,"Velocity":36,"Duration":108014,"SoundDuration":108014,"Delta":216177444},{"NoteNumber":82,"Velocity":55,"Duration":109681,"SoundDuration":109681,"Delta":216393473},{"NoteNumber":60,"Velocity":36,"Duration":109681,"SoundDuration":109681,"Delta":216393473},{"NoteNumber":82,"Velocity":55,"Duration":109681,"SoundDuration":109681,"Delta":216612836},{"NoteNumber":64,"Velocity":36,"Duration":109681,"SoundDuration":109681,"Delta":216612836},{"NoteNumber":84,"Velocity":64,"Duration":107611,"SoundDuration":107611,"Delta":216832198},{"NoteNumber":62,"Velocity":42,"Duration":215223,"SoundDuration":215223,"Delta":216832198},{"NoteNumber":53,"Velocity":35,"Duration":215223,"SoundDuration":215223,"Delta":216832198},{"NoteNumber":82,"Velocity":52,"Duration":107611,"SoundDuration":107611,"Delta":216939810},{"NoteNumber":81,"Velocity":53,"Duration":107611,"SoundDuration":107611,"Delta":217047422},{"NoteNumber":65,"Velocity":33,"Duration":215223,"SoundDuration":215223,"Delta":217047422},{"NoteNumber":82,"Velocity":53,"Duration":107611,"SoundDuration":107611,"Delta":217155033},{"NoteNumber":84,"Velocity":58,"Duration":110954,"SoundDuration":110954,"Delta":217262645},{"NoteNumber":63,"Velocity":35,"Duration":110954,"SoundDuration":110954,"Delta":217262645},{"NoteNumber":53,"Velocity":29,"Duration":110954,"SoundDuration":110954,"Delta":217262645},{"NoteNumber":86,"Velocity":54,"Duration":114068,"SoundDuration":114068,"Delta":217484555},{"NoteNumber":65,"Velocity":34,"Duration":114068,"SoundDuration":114068,"Delta":217484555},{"NoteNumber":82,"Velocity":58,"Duration":219362,"SoundDuration":219362,"Delta":217712692},{"NoteNumber":62,"Velocity":42,"Duration":109681,"SoundDuration":109681,"Delta":217712692},{"NoteNumber":58,"Velocity":42,"Duration":109681,"SoundDuration":109681,"Delta":217712692},{"NoteNumber":57,"Velocity":38,"Duration":111831,"SoundDuration":111831,"Delta":217932055},{"NoteNumber":55,"Velocity":37,"Duration":111831,"SoundDuration":111831,"Delta":218155718},{"NoteNumber":74,"Velocity":57,"Duration":112714,"SoundDuration":112714,"Delta":218379382},{"NoteNumber":53,"Velocity":36,"Duration":112714,"SoundDuration":112714,"Delta":218379382},{"NoteNumber":79,"Velocity":60,"Duration":445567,"SoundDuration":445567,"Delta":218604810},{"NoteNumber":51,"Velocity":42,"Duration":111391,"SoundDuration":111391,"Delta":218604810},{"NoteNumber":58,"Velocity":36,"Duration":111391,"SoundDuration":111391,"Delta":218827594},{"NoteNumber":55,"Velocity":36,"Duration":111391,"SoundDuration":111391,"Delta":218827594},{"NoteNumber":75,"Velocity":60,"Duration":445566,"SoundDuration":445566,"Delta":219050377},{"NoteNumber":48,"Velocity":36,"Duration":111391,"SoundDuration":111391,"Delta":219050377},{"NoteNumber":60,"Velocity":36,"Duration":111391,"SoundDuration":111391,"Delta":219273161},{"NoteNumber":55,"Velocity":36,"Duration":111391,"SoundDuration":111391,"Delta":219273161},{"NoteNumber":72,"Velocity":60,"Duration":438725,"SoundDuration":438725,"Delta":219495944},{"NoteNumber":53,"Velocity":42,"Duration":109681,"SoundDuration":109681,"Delta":219495944},{"NoteNumber":57,"Velocity":35,"Duration":109681,"SoundDuration":109681,"Delta":219715307},{"NoteNumber":60,"Velocity":35,"Duration":109681,"SoundDuration":109681,"Delta":219715307},{"NoteNumber":74,"Velocity":60,"Duration":109681,"SoundDuration":109681,"Delta":219934669},{"NoteNumber":51,"Velocity":36,"Duration":109681,"SoundDuration":109681,"Delta":219934669},{"NoteNumber":75,"Velocity":58,"Duration":109681,"SoundDuration":109681,"Delta":220154032},{"NoteNumber":60,"Velocity":36,"Duration":109681,"SoundDuration":109681,"Delta":220154032},{"NoteNumber":57,"Velocity":36,"Duration":109681,"SoundDuration":109681,"Delta":220154032},{"NoteNumber":77,"Velocity":57,"Duration":108014,"SoundDuration":108014,"Delta":220373394},{"NoteNumber":50,"Velocity":39,"Duration":216029,"SoundDuration":216029,"Delta":220373394},{"NoteNumber":79,"Velocity":53,"Duration":108014,"SoundDuration":108014,"Delta":220481409},{"NoteNumber":77,"Velocity":53,"Duration":108014,"SoundDuration":108014,"Delta":220589424},{"NoteNumber":58,"Velocity":34,"Duration":216029,"SoundDuration":216029,"Delta":220589424},{"NoteNumber":53,"Velocity":29,"Duration":216029,"SoundDuration":216029,"Delta":220589424},{"NoteNumber":75,"Velocity":53,"Duration":108014,"SoundDuration":108014,"Delta":220697438},{"NoteNumber":74,"Velocity":59,"Duration":110099,"SoundDuration":110099,"Delta":220805453},{"NoteNumber":46,"Velocity":34,"Duration":220199,"SoundDuration":220199,"Delta":220805453},{"NoteNumber":75,"Velocity":52,"Duration":110099,"SoundDuration":110099,"Delta":220915553},{"NoteNumber":74,"Velocity":52,"Duration":114068,"SoundDuration":114068,"Delta":221025653},{"NoteNumber":58,"Velocity":34,"Duration":228137,"SoundDuration":228137,"Delta":221025653},{"NoteNumber":53,"Velocity":29,"Duration":228137,"SoundDuration":228137,"Delta":221025653},{"NoteNumber":72,"Velocity":53,"Duration":114068,"SoundDuration":114068,"Delta":221139721},{"NoteNumber":70,"Velocity":60,"Duration":670990,"SoundDuration":670990,"Delta":221253790},{"NoteNumber":51,"Velocity":40,"Duration":223663,"SoundDuration":223663,"Delta":221253790},{"NoteNumber":58,"Velocity":34,"Duration":223663,"SoundDuration":223663,"Delta":221477453},{"NoteNumber":55,"Velocity":29,"Duration":223663,"SoundDuration":223663,"Delta":221477453},{"NoteNumber":50,"Velocity":34,"Duration":223663,"SoundDuration":223663,"Delta":221701117},{"NoteNumber":70,"Velocity":57,"Duration":112714,"SoundDuration":112714,"Delta":221924780},{"NoteNumber":58,"Velocity":34,"Duration":225428,"SoundDuration":225428,"Delta":221924780},{"NoteNumber":55,"Velocity":29,"Duration":225428,"SoundDuration":225428,"Delta":221924780},{"NoteNumber":75,"Velocity":60,"Duration":445567,"SoundDuration":445567,"Delta":222150209},{"NoteNumber":48,"Velocity":42,"Duration":222783,"SoundDuration":222783,"Delta":222150209},{"NoteNumber":60,"Velocity":36,"Duration":222783,"SoundDuration":222783,"Delta":222372992},{"NoteNumber":55,"Velocity":30,"Duration":222783,"SoundDuration":222783,"Delta":222372992},{"NoteNumber":72,"Velocity":60,"Duration":445566,"SoundDuration":445566,"Delta":222595776},{"NoteNumber":45,"Velocity":36,"Duration":222783,"SoundDuration":222783,"Delta":222595776},{"NoteNumber":57,"Velocity":36,"Duration":222783,"SoundDuration":222783,"Delta":222818559},{"NoteNumber":51,"Velocity":30,"Duration":222783,"SoundDuration":222783,"Delta":222818559},{"NoteNumber":69,"Velocity":60,"Duration":450857,"SoundDuration":450857,"Delta":223041343},{"NoteNumber":50,"Velocity":42,"Duration":225428,"SoundDuration":225428,"Delta":223041343},{"NoteNumber":54,"Velocity":29,"Duration":225428,"SoundDuration":225428,"Delta":223266771},{"NoteNumber":57,"Velocity":35,"Duration":225428,"SoundDuration":225428,"Delta":223266771},{"NoteNumber":62,"Velocity":54,"Duration":109681,"SoundDuration":109681,"Delta":223492200},{"NoteNumber":74,"Velocity":65,"Duration":109681,"SoundDuration":109681,"Delta":223492200},{"NoteNumber":42,"Velocity":42,"Duration":164521,"SoundDuration":164521,"Delta":223492200},{"NoteNumber":60,"Velocity":49,"Duration":109681,"SoundDuration":109681,"Delta":223711562},{"NoteNumber":72,"Velocity":58,"Duration":109681,"SoundDuration":109681,"Delta":223711562},{"NoteNumber":50,"Velocity":30,"Duration":164521,"SoundDuration":164521,"Delta":223711562},{"NoteNumber":54,"Velocity":36,"Duration":164521,"SoundDuration":164521,"Delta":223711562},{"NoteNumber":60,"Velocity":55,"Duration":213598,"SoundDuration":213598,"Delta":223930925},{"NoteNumber":72,"Velocity":66,"Duration":213598,"SoundDuration":213598,"Delta":223930925},{"NoteNumber":43,"Velocity":47,"Duration":106799,"SoundDuration":106799,"Delta":223930925},{"NoteNumber":58,"Velocity":51,"Duration":106799,"SoundDuration":106799,"Delta":224144524},{"NoteNumber":70,"Velocity":60,"Duration":106799,"SoundDuration":106799,"Delta":224144524},{"NoteNumber":55,"Velocity":39,"Duration":106799,"SoundDuration":106799,"Delta":224144524},{"NoteNumber":57,"Velocity":56,"Duration":109681,"SoundDuration":109681,"Delta":224358123},{"NoteNumber":69,"Velocity":67,"Duration":109681,"SoundDuration":109681,"Delta":224358123},{"NoteNumber":39,"Velocity":49,"Duration":109681,"SoundDuration":109681,"Delta":224358123},{"NoteNumber":55,"Velocity":52,"Duration":109681,"SoundDuration":109681,"Delta":224577485},{"NoteNumber":67,"Velocity":61,"Duration":109681,"SoundDuration":109681,"Delta":224577485},{"NoteNumber":51,"Velocity":44,"Duration":109681,"SoundDuration":109681,"Delta":224577485},{"NoteNumber":58,"Velocity":61,"Duration":219362,"SoundDuration":219362,"Delta":224796848},{"NoteNumber":70,"Velocity":73,"Duration":219362,"SoundDuration":219362,"Delta":224796848},{"NoteNumber":36,"Velocity":51,"Duration":109681,"SoundDuration":109681,"Delta":224796848},{"NoteNumber":69,"Velocity":66,"Duration":109681,"SoundDuration":109681,"Delta":225016210},{"NoteNumber":57,"Velocity":55,"Duration":109681,"SoundDuration":109681,"Delta":225016210},{"NoteNumber":48,"Velocity":46,"Duration":109681,"SoundDuration":109681,"Delta":225016210},{"NoteNumber":55,"Velocity":59,"Duration":107611,"SoundDuration":107611,"Delta":225235573},{"NoteNumber":67,"Velocity":71,"Duration":107611,"SoundDuration":107611,"Delta":225235573},{"NoteNumber":38,"Velocity":54,"Duration":107611,"SoundDuration":107611,"Delta":225235573},{"NoteNumber":54,"Velocity":55,"Duration":107611,"SoundDuration":107611,"Delta":225450796},{"NoteNumber":66,"Velocity":66,"Duration":107611,"SoundDuration":107611,"Delta":225450796},{"NoteNumber":50,"Velocity":45,"Duration":107611,"SoundDuration":107611,"Delta":225450796},{"NoteNumber":55,"Velocity":60,"Duration":229973,"SoundDuration":229973,"Delta":225666020},{"NoteNumber":67,"Velocity":72,"Duration":229973,"SoundDuration":229973,"Delta":225666020},{"NoteNumber":39,"Velocity":44,"Duration":229973,"SoundDuration":229973,"Delta":225666020},{"NoteNumber":51,"Velocity":52,"Duration":229973,"SoundDuration":229973,"Delta":225666020},{"NoteNumber":62,"Velocity":69,"Duration":679308,"SoundDuration":679308,"Delta":226125966},{"NoteNumber":74,"Velocity":81,"Duration":679308,"SoundDuration":679308,"Delta":226125966},{"NoteNumber":42,"Velocity":51,"Duration":1344306,"SoundDuration":1344306,"Delta":226125966},{"NoteNumber":50,"Velocity":51,"Duration":1344306,"SoundDuration":1344306,"Delta":226125966},{"NoteNumber":54,"Velocity":60,"Duration":1344306,"SoundDuration":1344306,"Delta":226125966},{"NoteNumber":63,"Velocity":53,"Duration":112714,"SoundDuration":112714,"Delta":226805274},{"NoteNumber":75,"Velocity":64,"Duration":112714,"SoundDuration":112714,"Delta":226805274},{"NoteNumber":62,"Velocity":57,"Duration":110099,"SoundDuration":110099,"Delta":227030703},{"NoteNumber":74,"Velocity":68,"Duration":110099,"SoundDuration":110099,"Delta":227030703},{"NoteNumber":60,"Velocity":53,"Duration":110099,"SoundDuration":110099,"Delta":227250902},{"NoteNumber":72,"Velocity":64,"Duration":110099,"SoundDuration":110099,"Delta":227250902},{"NoteNumber":60,"Velocity":58,"Duration":215223,"SoundDuration":215223,"Delta":227470272},{"NoteNumber":72,"Velocity":69,"Duration":215223,"SoundDuration":215223,"Delta":227470272},{"NoteNumber":43,"Velocity":50,"Duration":215223,"SoundDuration":215223,"Delta":227470272},{"NoteNumber":58,"Velocity":53,"Duration":107611,"SoundDuration":107611,"Delta":227685496},{"NoteNumber":70,"Velocity":64,"Duration":107611,"SoundDuration":107611,"Delta":227685496},{"NoteNumber":55,"Velocity":45,"Duration":215223,"SoundDuration":215223,"Delta":227685496},{"NoteNumber":57,"Velocity":58,"Duration":109681,"SoundDuration":109681,"Delta":227900719},{"NoteNumber":69,"Velocity":69,"Duration":109681,"SoundDuration":109681,"Delta":227900719},{"NoteNumber":39,"Velocity":45,"Duration":219362,"SoundDuration":219362,"Delta":227900719},{"NoteNumber":55,"Velocity":53,"Duration":115919,"SoundDuration":115919,"Delta":228120082},{"NoteNumber":67,"Velocity":64,"Duration":115919,"SoundDuration":115919,"Delta":228120082},{"NoteNumber":51,"Velocity":45,"Duration":231839,"SoundDuration":231839,"Delta":228120082},{"NoteNumber":56,"Velocity":60,"Duration":447327,"SoundDuration":447327,"Delta":228351921},{"NoteNumber":68,"Velocity":72,"Duration":447327,"SoundDuration":447327,"Delta":228351921},{"NoteNumber":36,"Velocity":56,"Duration":223663,"SoundDuration":223663,"Delta":228351921},{"NoteNumber":48,"Velocity":49,"Duration":223663,"SoundDuration":223663,"Delta":228575585},{"NoteNumber":54,"Velocity":55,"Duration":464863,"SoundDuration":464863,"Delta":228799248},{"NoteNumber":66,"Velocity":66,"Duration":464863,"SoundDuration":464863,"Delta":228799248},{"NoteNumber":38,"Velocity":49,"Duration":227220,"SoundDuration":227220,"Delta":228799248},{"NoteNumber":50,"Velocity":49,"Duration":237642,"SoundDuration":237642,"Delta":229026469},{"NoteNumber":55,"Velocity":59,"Duration":223048,"SoundDuration":223048,"Delta":229264112},{"NoteNumber":67,"Velocity":71,"Duration":223048,"SoundDuration":223048,"Delta":229264112},{"NoteNumber":31,"Velocity":52,"Duration":223048,"SoundDuration":223048,"Delta":229264112},{"NoteNumber":43,"Velocity":55,"Duration":223048,"SoundDuration":223048,"Delta":229487160},{"NoteNumber":50,"Velocity":55,"Duration":449361,"SoundDuration":449361,"Delta":229710209},{"NoteNumber":62,"Velocity":66,"Duration":449361,"SoundDuration":449361,"Delta":229710209},{"NoteNumber":70,"Velocity":64,"Duration":113156,"SoundDuration":113156,"Delta":229933257},{"NoteNumber":82,"Velocity":76,"Duration":113156,"SoundDuration":113156,"Delta":229933257},{"NoteNumber":69,"Velocity":71,"Duration":216029,"SoundDuration":216029,"Delta":230159570},{"NoteNumber":81,"Velocity":84,"Duration":216029,"SoundDuration":216029,"Delta":230159570},{"NoteNumber":51,"Velocity":54,"Duration":432059,"SoundDuration":432059,"Delta":230159570},{"NoteNumber":63,"Velocity":65,"Duration":432059,"SoundDuration":432059,"Delta":230159570},{"NoteNumber":67,"Velocity":54,"Duration":108014,"SoundDuration":108014,"Delta":230375599},{"NoteNumber":79,"Velocity":65,"Duration":108014,"SoundDuration":108014,"Delta":230375599},{"NoteNumber":67,"Velocity":59,"Duration":109681,"SoundDuration":109681,"Delta":230591629},{"NoteNumber":79,"Velocity":71,"Duration":109681,"SoundDuration":109681,"Delta":230591629},{"NoteNumber":49,"Velocity":48,"Duration":442145,"SoundDuration":442145,"Delta":230591629},{"NoteNumber":61,"Velocity":57,"Duration":442145,"SoundDuration":442145,"Delta":230591629},{"NoteNumber":67,"Velocity":53,"Duration":111391,"SoundDuration":111391,"Delta":230810991},{"NoteNumber":79,"Velocity":64,"Duration":111391,"SoundDuration":111391,"Delta":230810991},{"NoteNumber":67,"Velocity":70,"Duration":219362,"SoundDuration":219362,"Delta":231033775},{"NoteNumber":79,"Velocity":82,"Duration":219362,"SoundDuration":219362,"Delta":231033775},{"NoteNumber":50,"Velocity":48,"Duration":438725,"SoundDuration":438725,"Delta":231033775},{"NoteNumber":62,"Velocity":57,"Duration":438725,"SoundDuration":438725,"Delta":231033775},{"NoteNumber":66,"Velocity":64,"Duration":109681,"SoundDuration":109681,"Delta":231253137},{"NoteNumber":78,"Velocity":76,"Duration":109681,"SoundDuration":109681,"Delta":231253137},{"NoteNumber":47,"Velocity":61,"Duration":146241,"SoundDuration":146241,"Delta":231472500},{"NoteNumber":59,"Velocity":52,"Duration":148558,"SoundDuration":148558,"Delta":231618741},{"NoteNumber":67,"Velocity":64,"Duration":113156,"SoundDuration":113156,"Delta":231691862},{"NoteNumber":79,"Velocity":76,"Duration":113156,"SoundDuration":113156,"Delta":231691862},{"NoteNumber":47,"Velocity":52,"Duration":150875,"SoundDuration":150875,"Delta":231767300},{"NoteNumber":65,"Velocity":71,"Duration":216029,"SoundDuration":216029,"Delta":231918175},{"NoteNumber":77,"Velocity":84,"Duration":216029,"SoundDuration":216029,"Delta":231918175},{"NoteNumber":48,"Velocity":63,"Duration":144019,"SoundDuration":144019,"Delta":231918175},{"NoteNumber":60,"Velocity":55,"Duration":144019,"SoundDuration":144019,"Delta":232062194},{"NoteNumber":64,"Velocity":54,"Duration":108014,"SoundDuration":108014,"Delta":232134204},{"NoteNumber":76,"Velocity":65,"Duration":108014,"SoundDuration":108014,"Delta":232134204},{"NoteNumber":48,"Velocity":54,"Duration":144019,"SoundDuration":144019,"Delta":232206214},{"NoteNumber":63,"Velocity":59,"Duration":109681,"SoundDuration":109681,"Delta":232350234},{"NoteNumber":75,"Velocity":71,"Duration":109681,"SoundDuration":109681,"Delta":232350234},{"NoteNumber":45,"Velocity":59,"Duration":146241,"SoundDuration":146241,"Delta":232350234},{"NoteNumber":57,"Velocity":52,"Duration":147381,"SoundDuration":147381,"Delta":232496475},{"NoteNumber":63,"Velocity":53,"Duration":111391,"SoundDuration":111391,"Delta":232569596},{"NoteNumber":75,"Velocity":64,"Duration":111391,"SoundDuration":111391,"Delta":232569596},{"NoteNumber":45,"Velocity":52,"Duration":148522,"SoundDuration":148522,"Delta":232643857},{"NoteNumber":63,"Velocity":70,"Duration":219362,"SoundDuration":219362,"Delta":232792380},{"NoteNumber":75,"Velocity":82,"Duration":219362,"SoundDuration":219362,"Delta":232792380},{"NoteNumber":46,"Velocity":57,"Duration":146241,"SoundDuration":146241,"Delta":232792380},{"NoteNumber":58,"Velocity":52,"Duration":146241,"SoundDuration":146241,"Delta":232938621},{"NoteNumber":62,"Velocity":64,"Duration":109681,"SoundDuration":109681,"Delta":233011742},{"NoteNumber":74,"Velocity":76,"Duration":109681,"SoundDuration":109681,"Delta":233011742},{"NoteNumber":46,"Velocity":52,"Duration":146241,"SoundDuration":146241,"Delta":233084863},{"NoteNumber":74,"Velocity":66,"Duration":438165,"SoundDuration":438165,"Delta":233231105},{"NoteNumber":86,"Velocity":78,"Duration":438165,"SoundDuration":438165,"Delta":233231105},{"NoteNumber":46,"Velocity":59,"Duration":111940,"SoundDuration":111940,"Delta":233445390},{"NoteNumber":58,"Velocity":72,"Duration":111940,"SoundDuration":111940,"Delta":233445390},{"NoteNumber":75,"Velocity":65,"Duration":432059,"SoundDuration":432059,"Delta":233669271},{"NoteNumber":87,"Velocity":77,"Duration":432059,"SoundDuration":432059,"Delta":233669271},{"NoteNumber":45,"Velocity":67,"Duration":216029,"SoundDuration":216029,"Delta":233669271},{"NoteNumber":57,"Velocity":79,"Duration":216029,"SoundDuration":216029,"Delta":233669271},{"NoteNumber":43,"Velocity":54,"Duration":108014,"SoundDuration":108014,"Delta":233885300},{"NoteNumber":55,"Velocity":65,"Duration":108014,"SoundDuration":108014,"Delta":233885300},{"NoteNumber":73,"Velocity":57,"Duration":442145,"SoundDuration":442145,"Delta":234101330},{"NoteNumber":85,"Velocity":69,"Duration":442145,"SoundDuration":442145,"Delta":234101330},{"NoteNumber":43,"Velocity":59,"Duration":109681,"SoundDuration":109681,"Delta":234101330},{"NoteNumber":55,"Velocity":71,"Duration":109681,"SoundDuration":109681,"Delta":234101330},{"NoteNumber":43,"Velocity":53,"Duration":111391,"SoundDuration":111391,"Delta":234320692},{"NoteNumber":55,"Velocity":64,"Duration":111391,"SoundDuration":111391,"Delta":234320692},{"NoteNumber":74,"Velocity":57,"Duration":438725,"SoundDuration":438725,"Delta":234543476},{"NoteNumber":86,"Velocity":69,"Duration":438725,"SoundDuration":438725,"Delta":234543476},{"NoteNumber":43,"Velocity":66,"Duration":219362,"SoundDuration":219362,"Delta":234543476},{"NoteNumber":55,"Velocity":78,"Duration":219362,"SoundDuration":219362,"Delta":234543476},{"NoteNumber":42,"Velocity":59,"Duration":109681,"SoundDuration":109681,"Delta":234762838},{"NoteNumber":54,"Velocity":72,"Duration":109681,"SoundDuration":109681,"Delta":234762838},{"NoteNumber":83,"Velocity":81,"Duration":146241,"SoundDuration":146241,"Delta":234982201},{"NoteNumber":71,"Velocity":69,"Duration":148558,"SoundDuration":148558,"Delta":235128442},{"NoteNumber":41,"Velocity":59,"Duration":113156,"SoundDuration":113156,"Delta":235201563},{"NoteNumber":53,"Velocity":72,"Duration":113156,"SoundDuration":113156,"Delta":235201563},{"NoteNumber":83,"Velocity":69,"Duration":150875,"SoundDuration":150875,"Delta":235277001},{"NoteNumber":84,"Velocity":78,"Duration":144019,"SoundDuration":144019,"Delta":235427876},{"NoteNumber":41,"Velocity":67,"Duration":216029,"SoundDuration":216029,"Delta":235427876},{"NoteNumber":53,"Velocity":79,"Duration":216029,"SoundDuration":216029,"Delta":235427876},{"NoteNumber":72,"Velocity":69,"Duration":144019,"SoundDuration":144019,"Delta":235571895},{"NoteNumber":40,"Velocity":51,"Duration":108014,"SoundDuration":108014,"Delta":235643905},{"NoteNumber":52,"Velocity":60,"Duration":108014,"SoundDuration":108014,"Delta":235643905},{"NoteNumber":84,"Velocity":69,"Duration":144019,"SoundDuration":144019,"Delta":235715915},{"NoteNumber":81,"Velocity":76,"Duration":146241,"SoundDuration":146241,"Delta":235859935},{"NoteNumber":39,"Velocity":56,"Duration":109681,"SoundDuration":109681,"Delta":235859935},{"NoteNumber":51,"Velocity":67,"Duration":109681,"SoundDuration":109681,"Delta":235859935},{"NoteNumber":69,"Velocity":69,"Duration":147381,"SoundDuration":147381,"Delta":236006176},{"NoteNumber":39,"Velocity":50,"Duration":111391,"SoundDuration":111391,"Delta":236079297},{"NoteNumber":51,"Velocity":59,"Duration":111391,"SoundDuration":111391,"Delta":236079297},{"NoteNumber":81,"Velocity":69,"Duration":148522,"SoundDuration":148522,"Delta":236153558},{"NoteNumber":82,"Velocity":77,"Duration":146241,"SoundDuration":146241,"Delta":236302081},{"NoteNumber":39,"Velocity":66,"Duration":219362,"SoundDuration":219362,"Delta":236302081},{"NoteNumber":51,"Velocity":78,"Duration":219362,"SoundDuration":219362,"Delta":236302081},{"NoteNumber":70,"Velocity":70,"Duration":146241,"SoundDuration":146241,"Delta":236448322},{"NoteNumber":38,"Velocity":59,"Duration":109681,"SoundDuration":109681,"Delta":236521443},{"NoteNumber":50,"Velocity":72,"Duration":109681,"SoundDuration":109681,"Delta":236521443},{"NoteNumber":82,"Velocity":70,"Duration":146241,"SoundDuration":146241,"Delta":236594564},{"NoteNumber":79,"Velocity":61,"Duration":143885,"SoundDuration":143885,"Delta":236740806},{"NoteNumber":81,"Velocity":77,"Duration":143885,"SoundDuration":143885,"Delta":236740806},{"NoteNumber":39,"Velocity":78,"Duration":215827,"SoundDuration":215827,"Delta":236740806},{"NoteNumber":69,"Velocity":70,"Duration":143884,"SoundDuration":143884,"Delta":236884691},{"NoteNumber":51,"Velocity":70,"Duration":215827,"SoundDuration":215827,"Delta":236956633},{"NoteNumber":79,"Velocity":55,"Duration":143885,"SoundDuration":143885,"Delta":237028576},{"NoteNumber":81,"Velocity":70,"Duration":143885,"SoundDuration":143885,"Delta":237028576},{"NoteNumber":79,"Velocity":61,"Duration":145454,"SoundDuration":145454,"Delta":237172461},{"NoteNumber":81,"Velocity":77,"Duration":145454,"SoundDuration":145454,"Delta":237172461},{"NoteNumber":38,"Velocity":78,"Duration":218182,"SoundDuration":218182,"Delta":237172461},{"NoteNumber":69,"Velocity":70,"Duration":145454,"SoundDuration":145454,"Delta":237317915},{"NoteNumber":50,"Velocity":71,"Duration":218181,"SoundDuration":218181,"Delta":237390643},{"NoteNumber":79,"Velocity":55,"Duration":145454,"SoundDuration":145454,"Delta":237463370},{"NoteNumber":81,"Velocity":70,"Duration":145454,"SoundDuration":145454,"Delta":237463370},{"NoteNumber":79,"Velocity":61,"Duration":145454,"SoundDuration":145454,"Delta":237608825},{"NoteNumber":81,"Velocity":77,"Duration":145454,"SoundDuration":145454,"Delta":237608825},{"NoteNumber":37,"Velocity":78,"Duration":218182,"SoundDuration":218182,"Delta":237608825},{"NoteNumber":69,"Velocity":70,"Duration":147633,"SoundDuration":147633,"Delta":237754279},{"NoteNumber":49,"Velocity":68,"Duration":224718,"SoundDuration":224718,"Delta":237827007},{"NoteNumber":79,"Velocity":57,"Duration":149812,"SoundDuration":149812,"Delta":237901913},{"NoteNumber":81,"Velocity":72,"Duration":149812,"SoundDuration":149812,"Delta":237901913},{"NoteNumber":78,"Velocity":73,"Duration":437956,"SoundDuration":437956,"Delta":238051726},{"NoteNumber":81,"Velocity":77,"Duration":437956,"SoundDuration":437956,"Delta":238051726},{"NoteNumber":38,"Velocity":78,"Duration":145985,"SoundDuration":145985,"Delta":238051726},{"NoteNumber":42,"Velocity":69,"Duration":145985,"SoundDuration":145985,"Delta":238197711},{"NoteNumber":45,"Velocity":69,"Duration":145985,"SoundDuration":145985,"Delta":238343696},{"NoteNumber":50,"Velocity":76,"Duration":142856,"SoundDuration":142856,"Delta":238489682},{"NoteNumber":54,"Velocity":67,"Duration":146055,"SoundDuration":146055,"Delta":238632539},{"NoteNumber":74,"Velocity":69,"Duration":223880,"SoundDuration":223880,"Delta":238703967},{"NoteNumber":86,"Velocity":81,"Duration":223880,"SoundDuration":223880,"Delta":238703967},{"NoteNumber":57,"Velocity":67,"Duration":149253,"SoundDuration":149253,"Delta":238778594},{"NoteNumber":75,"Velocity":68,"Duration":432059,"SoundDuration":432059,"Delta":238927848},{"NoteNumber":87,"Velocity":80,"Duration":432059,"SoundDuration":432059,"Delta":238927848},{"NoteNumber":50,"Velocity":73,"Duration":144019,"SoundDuration":144019,"Delta":238927848},{"NoteNumber":55,"Velocity":61,"Duration":144019,"SoundDuration":144019,"Delta":239071867},{"NoteNumber":58,"Velocity":61,"Duration":144019,"SoundDuration":144019,"Delta":239215887},{"NoteNumber":73,"Velocity":61,"Duration":442145,"SoundDuration":442145,"Delta":239359907},{"NoteNumber":85,"Velocity":75,"Duration":442145,"SoundDuration":442145,"Delta":239359907},{"NoteNumber":57,"Velocity":67,"Duration":146241,"SoundDuration":146241,"Delta":239359907},{"NoteNumber":58,"Velocity":55,"Duration":147381,"SoundDuration":147381,"Delta":239506148},{"NoteNumber":55,"Velocity":55,"Duration":148522,"SoundDuration":148522,"Delta":239653530},{"NoteNumber":74,"Velocity":61,"Duration":438725,"SoundDuration":438725,"Delta":239802053},{"NoteNumber":86,"Velocity":75,"Duration":438725,"SoundDuration":438725,"Delta":239802053},{"NoteNumber":50,"Velocity":64,"Duration":146241,"SoundDuration":146241,"Delta":239802053},{"NoteNumber":54,"Velocity":56,"Duration":146241,"SoundDuration":146241,"Delta":239948294},{"NoteNumber":57,"Velocity":56,"Duration":146241,"SoundDuration":146241,"Delta":240094536},{"NoteNumber":56,"Velocity":47,"Duration":146241,"SoundDuration":146241,"Delta":240240778},{"NoteNumber":57,"Velocity":36,"Duration":148558,"SoundDuration":148558,"Delta":240387019},{"NoteNumber":74,"Velocity":44,"Duration":226312,"SoundDuration":226312,"Delta":240460140},{"NoteNumber":86,"Velocity":52,"Duration":226312,"SoundDuration":226312,"Delta":240460140},{"NoteNumber":54,"Velocity":36,"Duration":150875,"SoundDuration":150875,"Delta":240535578},{"NoteNumber":72,"Velocity":53,"Duration":216029,"SoundDuration":216029,"Delta":240686453},{"NoteNumber":84,"Velocity":64,"Duration":216029,"SoundDuration":216029,"Delta":240686453},{"NoteNumber":50,"Velocity":42,"Duration":144019,"SoundDuration":144019,"Delta":240686453},{"NoteNumber":53,"Velocity":33,"Duration":144019,"SoundDuration":144019,"Delta":240830472},{"NoteNumber":71,"Velocity":35,"Duration":108014,"SoundDuration":108014,"Delta":240902482},{"NoteNumber":83,"Velocity":42,"Duration":108014,"SoundDuration":108014,"Delta":240902482},{"NoteNumber":56,"Velocity":33,"Duration":144019,"SoundDuration":144019,"Delta":240974492},{"NoteNumber":71,"Velocity":40,"Duration":109681,"SoundDuration":109681,"Delta":241118512},{"NoteNumber":83,"Velocity":48,"Duration":109681,"SoundDuration":109681,"Delta":241118512},{"NoteNumber":55,"Velocity":43,"Duration":146241,"SoundDuration":146241,"Delta":241118512},{"NoteNumber":56,"Velocity":35,"Duration":147381,"SoundDuration":147381,"Delta":241264753},{"NoteNumber":71,"Velocity":35,"Duration":111391,"SoundDuration":111391,"Delta":241337874},{"NoteNumber":83,"Velocity":43,"Duration":111391,"SoundDuration":111391,"Delta":241337874},{"NoteNumber":53,"Velocity":35,"Duration":148522,"SoundDuration":148522,"Delta":241412135},{"NoteNumber":71,"Velocity":47,"Duration":219362,"SoundDuration":219362,"Delta":241560658},{"NoteNumber":83,"Velocity":55,"Duration":219362,"SoundDuration":219362,"Delta":241560658},{"NoteNumber":48,"Velocity":43,"Duration":146241,"SoundDuration":146241,"Delta":241560658},{"NoteNumber":53,"Velocity":36,"Duration":146241,"SoundDuration":146241,"Delta":241706899},{"NoteNumber":72,"Velocity":35,"Duration":109681,"SoundDuration":109681,"Delta":241780020},{"NoteNumber":84,"Velocity":42,"Duration":109681,"SoundDuration":109681,"Delta":241780020},{"NoteNumber":56,"Velocity":36,"Duration":146241,"SoundDuration":146241,"Delta":241853141},{"NoteNumber":48,"Velocity":76,"Duration":142856,"SoundDuration":142856,"Delta":241999383},{"NoteNumber":52,"Velocity":67,"Duration":146055,"SoundDuration":146055,"Delta":242142240},{"NoteNumber":72,"Velocity":69,"Duration":223880,"SoundDuration":223880,"Delta":242213668},{"NoteNumber":84,"Velocity":81,"Duration":223880,"SoundDuration":223880,"Delta":242213668},{"NoteNumber":55,"Velocity":67,"Duration":149253,"SoundDuration":149253,"Delta":242288295},{"NoteNumber":73,"Velocity":68,"Duration":432059,"SoundDuration":432059,"Delta":242437549},{"NoteNumber":85,"Velocity":80,"Duration":432059,"SoundDuration":432059,"Delta":242437549},{"NoteNumber":48,"Velocity":73,"Duration":144019,"SoundDuration":144019,"Delta":242437549},{"NoteNumber":53,"Velocity":61,"Duration":144019,"SoundDuration":144019,"Delta":242581568},{"NoteNumber":56,"Velocity":61,"Duration":144019,"SoundDuration":144019,"Delta":242725588},{"NoteNumber":71,"Velocity":59,"Duration":442145,"SoundDuration":442145,"Delta":242869608},{"NoteNumber":83,"Velocity":72,"Duration":442145,"SoundDuration":442145,"Delta":242869608},{"NoteNumber":55,"Velocity":67,"Duration":146241,"SoundDuration":146241,"Delta":242869608},{"NoteNumber":56,"Velocity":55,"Duration":147381,"SoundDuration":147381,"Delta":243015849},{"NoteNumber":53,"Velocity":55,"Duration":148522,"SoundDuration":148522,"Delta":243163231},{"NoteNumber":72,"Velocity":59,"Duration":438725,"SoundDuration":438725,"Delta":243311754},{"NoteNumber":84,"Velocity":72,"Duration":438725,"SoundDuration":438725,"Delta":243311754},{"NoteNumber":48,"Velocity":64,"Duration":146241,"SoundDuration":146241,"Delta":243311754},{"NoteNumber":52,"Velocity":56,"Duration":146241,"SoundDuration":146241,"Delta":243457995},{"NoteNumber":55,"Velocity":56,"Duration":146241,"SoundDuration":146241,"Delta":243604237},{"NoteNumber":54,"Velocity":47,"Duration":146241,"SoundDuration":146241,"Delta":243750479},{"NoteNumber":55,"Velocity":36,"Duration":148558,"SoundDuration":148558,"Delta":243896720},{"NoteNumber":72,"Velocity":44,"Duration":226312,"SoundDuration":226312,"Delta":243969841},{"NoteNumber":84,"Velocity":52,"Duration":226312,"SoundDuration":226312,"Delta":243969841},{"NoteNumber":52,"Velocity":36,"Duration":150875,"SoundDuration":150875,"Delta":244045279},{"NoteNumber":70,"Velocity":53,"Duration":216029,"SoundDuration":216029,"Delta":244196154},{"NoteNumber":82,"Velocity":64,"Duration":216029,"SoundDuration":216029,"Delta":244196154},{"NoteNumber":48,"Velocity":42,"Duration":144019,"SoundDuration":144019,"Delta":244196154},{"NoteNumber":51,"Velocity":33,"Duration":144019,"SoundDuration":144019,"Delta":244340173},{"NoteNumber":69,"Velocity":35,"Duration":108014,"SoundDuration":108014,"Delta":244412183},{"NoteNumber":81,"Velocity":42,"Duration":108014,"SoundDuration":108014,"Delta":244412183},{"NoteNumber":54,"Velocity":33,"Duration":144019,"SoundDuration":144019,"Delta":244484193},{"NoteNumber":69,"Velocity":40,"Duration":109681,"SoundDuration":109681,"Delta":244628213},{"NoteNumber":81,"Velocity":48,"Duration":109681,"SoundDuration":109681,"Delta":244628213},{"NoteNumber":53,"Velocity":43,"Duration":146241,"SoundDuration":146241,"Delta":244628213},{"NoteNumber":54,"Velocity":35,"Duration":147381,"SoundDuration":147381,"Delta":244774454},{"NoteNumber":69,"Velocity":35,"Duration":111391,"SoundDuration":111391,"Delta":244847575},{"NoteNumber":81,"Velocity":43,"Duration":111391,"SoundDuration":111391,"Delta":244847575},{"NoteNumber":51,"Velocity":35,"Duration":148522,"SoundDuration":148522,"Delta":244921836},{"NoteNumber":69,"Velocity":47,"Duration":219362,"SoundDuration":219362,"Delta":245070359},{"NoteNumber":81,"Velocity":55,"Duration":219362,"SoundDuration":219362,"Delta":245070359},{"NoteNumber":46,"Velocity":43,"Duration":146241,"SoundDuration":146241,"Delta":245070359},{"NoteNumber":51,"Velocity":36,"Duration":146241,"SoundDuration":146241,"Delta":245216600},{"NoteNumber":70,"Velocity":35,"Duration":109681,"SoundDuration":109681,"Delta":245289721},{"NoteNumber":82,"Velocity":42,"Duration":109681,"SoundDuration":109681,"Delta":245289721},{"NoteNumber":54,"Velocity":36,"Duration":146241,"SoundDuration":146241,"Delta":245362842},{"NoteNumber":46,"Velocity":51,"Duration":146241,"SoundDuration":146241,"Delta":245514568},{"NoteNumber":50,"Velocity":44,"Duration":146241,"SoundDuration":146241,"Delta":245654411},{"NoteNumber":74,"Velocity":44,"Duration":219362,"SoundDuration":219362,"Delta":245728446},{"NoteNumber":53,"Velocity":44,"Duration":146227,"SoundDuration":146227,"Delta":245802481},{"NoteNumber":77,"Velocity":47,"Duration":144019,"SoundDuration":144019,"Delta":245947809},{"NoteNumber":60,"Velocity":60,"Duration":432059,"SoundDuration":432059,"Delta":245947809},{"NoteNumber":75,"Velocity":40,"Duration":144019,"SoundDuration":144019,"Delta":246091828},{"NoteNumber":65,"Velocity":40,"Duration":144019,"SoundDuration":144019,"Delta":246235848},{"NoteNumber":77,"Velocity":47,"Duration":146241,"SoundDuration":146241,"Delta":246379868},{"NoteNumber":57,"Velocity":50,"Duration":442145,"SoundDuration":442145,"Delta":246379868},{"NoteNumber":72,"Velocity":39,"Duration":147381,"SoundDuration":147381,"Delta":246526109},{"NoteNumber":65,"Velocity":40,"Duration":148522,"SoundDuration":148522,"Delta":246673491},{"NoteNumber":77,"Velocity":47,"Duration":146241,"SoundDuration":146241,"Delta":246822014},{"NoteNumber":58,"Velocity":59,"Duration":658087,"SoundDuration":658087,"Delta":246822014},{"NoteNumber":74,"Velocity":42,"Duration":146241,"SoundDuration":146241,"Delta":246968255},{"NoteNumber":65,"Velocity":40,"Duration":146241,"SoundDuration":146241,"Delta":247114497},{"NoteNumber":82,"Velocity":47,"Duration":146241,"SoundDuration":146241,"Delta":247260739},{"NoteNumber":77,"Velocity":38,"Duration":148558,"SoundDuration":148558,"Delta":247406980},{"NoteNumber":62,"Velocity":45,"Duration":113156,"SoundDuration":113156,"Delta":247480101},{"NoteNumber":70,"Velocity":38,"Duration":150875,"SoundDuration":150875,"Delta":247555539},{"NoteNumber":84,"Velocity":47,"Duration":144019,"SoundDuration":144019,"Delta":247706414},{"NoteNumber":58,"Velocity":51,"Duration":874204,"SoundDuration":874204,"Delta":247706414},{"NoteNumber":65,"Velocity":53,"Duration":216029,"SoundDuration":216029,"Delta":247706414},{"NoteNumber":77,"Velocity":39,"Duration":144019,"SoundDuration":144019,"Delta":247850433},{"NoteNumber":63,"Velocity":46,"Duration":108014,"SoundDuration":108014,"Delta":247922443},{"NoteNumber":72,"Velocity":39,"Duration":144019,"SoundDuration":144019,"Delta":247994453},{"NoteNumber":81,"Velocity":47,"Duration":146241,"SoundDuration":146241,"Delta":248138473},{"NoteNumber":63,"Velocity":46,"Duration":109681,"SoundDuration":109681,"Delta":248138473},{"NoteNumber":77,"Velocity":38,"Duration":147381,"SoundDuration":147381,"Delta":248284714},{"NoteNumber":63,"Velocity":46,"Duration":111391,"SoundDuration":111391,"Delta":248357835},{"NoteNumber":69,"Velocity":38,"Duration":148522,"SoundDuration":148522,"Delta":248432096},{"NoteNumber":82,"Velocity":47,"Duration":146241,"SoundDuration":146241,"Delta":248580619},{"NoteNumber":58,"Velocity":51,"Duration":438725,"SoundDuration":438725,"Delta":248580619},{"NoteNumber":63,"Velocity":53,"Duration":219362,"SoundDuration":219362,"Delta":248580619},{"NoteNumber":77,"Velocity":39,"Duration":146241,"SoundDuration":146241,"Delta":248726860},{"NoteNumber":62,"Velocity":46,"Duration":109681,"SoundDuration":109681,"Delta":248799981},{"NoteNumber":70,"Velocity":40,"Duration":146241,"SoundDuration":146241,"Delta":248873102},{"NoteNumber":77,"Velocity":44,"Duration":146241,"SoundDuration":146241,"Delta":249019344},{"NoteNumber":74,"Velocity":37,"Duration":146921,"SoundDuration":146921,"Delta":249165585},{"NoteNumber":58,"Velocity":53,"Duration":221402,"SoundDuration":221402,"Delta":249238706},{"NoteNumber":65,"Velocity":37,"Duration":147601,"SoundDuration":147601,"Delta":249312507},{"NoteNumber":77,"Velocity":47,"Duration":143885,"SoundDuration":143885,"Delta":249460108},{"NoteNumber":60,"Velocity":59,"Duration":215827,"SoundDuration":215827,"Delta":249460108},{"NoteNumber":75,"Velocity":40,"Duration":146016,"SoundDuration":146016,"Delta":249603993},{"NoteNumber":62,"Velocity":50,"Duration":222221,"SoundDuration":222221,"Delta":249675936},{"NoteNumber":65,"Velocity":40,"Duration":148147,"SoundDuration":148147,"Delta":249750010},{"NoteNumber":77,"Velocity":47,"Duration":146241,"SoundDuration":146241,"Delta":249898158},{"NoteNumber":55,"Velocity":55,"Duration":219362,"SoundDuration":219362,"Delta":249898158},{"NoteNumber":72,"Velocity":39,"Duration":147381,"SoundDuration":147381,"Delta":250044399},{"NoteNumber":57,"Velocity":50,"Duration":222783,"SoundDuration":222783,"Delta":250117520},{"NoteNumber":65,"Velocity":40,"Duration":148522,"SoundDuration":148522,"Delta":250191781},{"NoteNumber":77,"Velocity":47,"Duration":146241,"SoundDuration":146241,"Delta":250340304},{"NoteNumber":58,"Velocity":59,"Duration":658087,"SoundDuration":658087,"Delta":250340304},{"NoteNumber":74,"Velocity":42,"Duration":146241,"SoundDuration":146241,"Delta":250486545},{"NoteNumber":65,"Velocity":40,"Duration":146241,"SoundDuration":146241,"Delta":250632787},{"NoteNumber":82,"Velocity":47,"Duration":146241,"SoundDuration":146241,"Delta":250779029},{"NoteNumber":77,"Velocity":38,"Duration":148558,"SoundDuration":148558,"Delta":250925270},{"NoteNumber":62,"Velocity":45,"Duration":113156,"SoundDuration":113156,"Delta":250998391},{"NoteNumber":70,"Velocity":38,"Duration":150875,"SoundDuration":150875,"Delta":251073829},{"NoteNumber":84,"Velocity":47,"Duration":144019,"SoundDuration":144019,"Delta":251224704},{"NoteNumber":58,"Velocity":53,"Duration":874204,"SoundDuration":874204,"Delta":251224704},{"NoteNumber":65,"Velocity":53,"Duration":216029,"SoundDuration":216029,"Delta":251224704},{"NoteNumber":77,"Velocity":39,"Duration":144019,"SoundDuration":144019,"Delta":251368723},{"NoteNumber":63,"Velocity":46,"Duration":108014,"SoundDuration":108014,"Delta":251440733},{"NoteNumber":72,"Velocity":39,"Duration":144019,"SoundDuration":144019,"Delta":251512743},{"NoteNumber":81,"Velocity":47,"Duration":146241,"SoundDuration":146241,"Delta":251656763},{"NoteNumber":63,"Velocity":46,"Duration":109681,"SoundDuration":109681,"Delta":251656763},{"NoteNumber":77,"Velocity":38,"Duration":147381,"SoundDuration":147381,"Delta":251803004},{"NoteNumber":63,"Velocity":46,"Duration":111391,"SoundDuration":111391,"Delta":251876125},{"NoteNumber":69,"Velocity":38,"Duration":148522,"SoundDuration":148522,"Delta":251950386},{"NoteNumber":82,"Velocity":47,"Duration":146241,"SoundDuration":146241,"Delta":252098909},{"NoteNumber":58,"Velocity":53,"Duration":438725,"SoundDuration":438725,"Delta":252098909},{"NoteNumber":63,"Velocity":53,"Duration":219362,"SoundDuration":219362,"Delta":252098909},{"NoteNumber":77,"Velocity":39,"Duration":146241,"SoundDuration":146241,"Delta":252245150},{"NoteNumber":62,"Velocity":46,"Duration":109681,"SoundDuration":109681,"Delta":252318271},{"NoteNumber":70,"Velocity":40,"Duration":146241,"SoundDuration":146241,"Delta":252391392},{"NoteNumber":77,"Velocity":75,"Duration":146241,"SoundDuration":146241,"Delta":252537634},{"NoteNumber":74,"Velocity":66,"Duration":146921,"SoundDuration":146921,"Delta":252683875},{"NoteNumber":46,"Velocity":57,"Duration":221402,"SoundDuration":221402,"Delta":252756996},{"NoteNumber":58,"Velocity":68,"Duration":221402,"SoundDuration":221402,"Delta":252756996},{"NoteNumber":65,"Velocity":65,"Duration":147601,"SoundDuration":147601,"Delta":252830797},{"NoteNumber":65,"Velocity":73,"Duration":438049,"SoundDuration":438049,"Delta":252978398},{"NoteNumber":68,"Velocity":73,"Duration":438049,"SoundDuration":438049,"Delta":252978398},{"NoteNumber":75,"Velocity":87,"Duration":215827,"SoundDuration":215827,"Delta":252978398},{"NoteNumber":47,"Velocity":65,"Duration":438049,"SoundDuration":438049,"Delta":252978398},{"NoteNumber":59,"Velocity":77,"Duration":438049,"SoundDuration":438049,"Delta":252978398},{"NoteNumber":73,"Velocity":76,"Duration":111110,"SoundDuration":111110,"Delta":253194226},{"NoteNumber":65,"Velocity":67,"Duration":109681,"SoundDuration":109681,"Delta":253416448},{"NoteNumber":71,"Velocity":80,"Duration":109681,"SoundDuration":109681,"Delta":253416448},{"NoteNumber":73,"Velocity":80,"Duration":109681,"SoundDuration":109681,"Delta":253416448},{"NoteNumber":44,"Velocity":59,"Duration":442145,"SoundDuration":442145,"Delta":253416448},{"NoteNumber":56,"Velocity":71,"Duration":442145,"SoundDuration":442145,"Delta":253416448},{"NoteNumber":65,"Velocity":59,"Duration":111391,"SoundDuration":111391,"Delta":253635810},{"NoteNumber":71,"Velocity":71,"Duration":111391,"SoundDuration":111391,"Delta":253635810},{"NoteNumber":73,"Velocity":71,"Duration":111391,"SoundDuration":111391,"Delta":253635810},{"NoteNumber":66,"Velocity":65,"Duration":438725,"SoundDuration":438725,"Delta":253858594},{"NoteNumber":70,"Velocity":65,"Duration":438725,"SoundDuration":438725,"Delta":253858594},{"NoteNumber":73,"Velocity":77,"Duration":219362,"SoundDuration":219362,"Delta":253858594},{"NoteNumber":46,"Velocity":65,"Duration":438725,"SoundDuration":438725,"Delta":253858594},{"NoteNumber":58,"Velocity":77,"Duration":438725,"SoundDuration":438725,"Delta":253858594},{"NoteNumber":78,"Velocity":71,"Duration":219362,"SoundDuration":219362,"Delta":254077956},{"NoteNumber":82,"Velocity":80,"Duration":146241,"SoundDuration":146241,"Delta":254297319},{"NoteNumber":85,"Velocity":60,"Duration":148558,"SoundDuration":148558,"Delta":254443560},{"NoteNumber":51,"Velocity":55,"Duration":113156,"SoundDuration":113156,"Delta":254516681},{"NoteNumber":63,"Velocity":66,"Duration":113156,"SoundDuration":113156,"Delta":254516681},{"NoteNumber":90,"Velocity":60,"Duration":150875,"SoundDuration":150875,"Delta":254592119},{"NoteNumber":85,"Velocity":65,"Duration":144019,"SoundDuration":144019,"Delta":254742994},{"NoteNumber":92,"Velocity":77,"Duration":144019,"SoundDuration":144019,"Delta":254742994},{"NoteNumber":49,"Velocity":66,"Duration":216029,"SoundDuration":216029,"Delta":254742994},{"NoteNumber":61,"Velocity":78,"Duration":216029,"SoundDuration":216029,"Delta":254742994},{"NoteNumber":80,"Velocity":61,"Duration":144019,"SoundDuration":144019,"Delta":254887013},{"NoteNumber":47,"Velocity":54,"Duration":108014,"SoundDuration":108014,"Delta":254959023},{"NoteNumber":59,"Velocity":65,"Duration":108014,"SoundDuration":108014,"Delta":254959023},{"NoteNumber":85,"Velocity":51,"Duration":144019,"SoundDuration":144019,"Delta":255031033},{"NoteNumber":92,"Velocity":61,"Duration":144019,"SoundDuration":144019,"Delta":255031033},{"NoteNumber":85,"Velocity":66,"Duration":146241,"SoundDuration":146241,"Delta":255175053},{"NoteNumber":89,"Velocity":78,"Duration":146241,"SoundDuration":146241,"Delta":255175053},{"NoteNumber":47,"Velocity":54,"Duration":109681,"SoundDuration":109681,"Delta":255175053},{"NoteNumber":59,"Velocity":65,"Duration":109681,"SoundDuration":109681,"Delta":255175053},{"NoteNumber":77,"Velocity":58,"Duration":147381,"SoundDuration":147381,"Delta":255321294},{"NoteNumber":47,"Velocity":53,"Duration":111391,"SoundDuration":111391,"Delta":255394415},{"NoteNumber":59,"Velocity":64,"Duration":111391,"SoundDuration":111391,"Delta":255394415},{"NoteNumber":85,"Velocity":48,"Duration":148522,"SoundDuration":148522,"Delta":255468676},{"NoteNumber":89,"Velocity":57,"Duration":148522,"SoundDuration":148522,"Delta":255468676},{"NoteNumber":85,"Velocity":63,"Duration":146241,"SoundDuration":146241,"Delta":255617199},{"NoteNumber":90,"Velocity":74,"Duration":146241,"SoundDuration":146241,"Delta":255617199},{"NoteNumber":47,"Velocity":64,"Duration":219362,"SoundDuration":219362,"Delta":255617199},{"NoteNumber":59,"Velocity":76,"Duration":219362,"SoundDuration":219362,"Delta":255617199},{"NoteNumber":78,"Velocity":59,"Duration":146241,"SoundDuration":146241,"Delta":255763440},{"NoteNumber":46,"Velocity":54,"Duration":109681,"SoundDuration":109681,"Delta":255836561},{"NoteNumber":58,"Velocity":65,"Duration":109681,"SoundDuration":109681,"Delta":255836561},{"NoteNumber":85,"Velocity":50,"Duration":146241,"SoundDuration":146241,"Delta":255909682},{"NoteNumber":90,"Velocity":59,"Duration":146241,"SoundDuration":146241,"Delta":255909682},{"NoteNumber":49,"Velocity":68,"Duration":142856,"SoundDuration":142856,"Delta":256055924},{"NoteNumber":54,"Velocity":61,"Duration":145229,"SoundDuration":145229,"Delta":256198781},{"NoteNumber":78,"Velocity":75,"Duration":110701,"SoundDuration":110701,"Delta":256270209},{"NoteNumber":58,"Velocity":61,"Duration":147601,"SoundDuration":147601,"Delta":256344010},{"NoteNumber":65,"Velocity":73,"Duration":438049,"SoundDuration":438049,"Delta":256491611},{"NoteNumber":68,"Velocity":73,"Duration":438049,"SoundDuration":438049,"Delta":256491611},{"NoteNumber":75,"Velocity":87,"Duration":215827,"SoundDuration":215827,"Delta":256491611},{"NoteNumber":47,"Velocity":65,"Duration":438049,"SoundDuration":438049,"Delta":256491611},{"NoteNumber":59,"Velocity":77,"Duration":438049,"SoundDuration":438049,"Delta":256491611},{"NoteNumber":73,"Velocity":76,"Duration":111110,"SoundDuration":111110,"Delta":256707439},{"NoteNumber":65,"Velocity":67,"Duration":109681,"SoundDuration":109681,"Delta":256929661},{"NoteNumber":71,"Velocity":80,"Duration":109681,"SoundDuration":109681,"Delta":256929661},{"NoteNumber":73,"Velocity":80,"Duration":109681,"SoundDuration":109681,"Delta":256929661},{"NoteNumber":44,"Velocity":59,"Duration":442145,"SoundDuration":442145,"Delta":256929661},{"NoteNumber":56,"Velocity":71,"Duration":442145,"SoundDuration":442145,"Delta":256929661},{"NoteNumber":65,"Velocity":59,"Duration":111391,"SoundDuration":111391,"Delta":257149023},{"NoteNumber":71,"Velocity":71,"Duration":111391,"SoundDuration":111391,"Delta":257149023},{"NoteNumber":73,"Velocity":71,"Duration":111391,"SoundDuration":111391,"Delta":257149023},{"NoteNumber":66,"Velocity":65,"Duration":438724,"SoundDuration":438724,"Delta":257371807},{"NoteNumber":70,"Velocity":65,"Duration":438724,"SoundDuration":438724,"Delta":257371807},{"NoteNumber":73,"Velocity":77,"Duration":219362,"SoundDuration":219362,"Delta":257371807},{"NoteNumber":46,"Velocity":65,"Duration":438724,"SoundDuration":438724,"Delta":257371807},{"NoteNumber":58,"Velocity":77,"Duration":438724,"SoundDuration":438724,"Delta":257371807},{"NoteNumber":78,"Velocity":71,"Duration":219362,"SoundDuration":219362,"Delta":257591169},{"NoteNumber":82,"Velocity":80,"Duration":146241,"SoundDuration":146241,"Delta":257810532},{"NoteNumber":85,"Velocity":60,"Duration":148558,"SoundDuration":148558,"Delta":257956773},{"NoteNumber":51,"Velocity":55,"Duration":113156,"SoundDuration":113156,"Delta":258029894},{"NoteNumber":63,"Velocity":66,"Duration":113156,"SoundDuration":113156,"Delta":258029894},{"NoteNumber":90,"Velocity":60,"Duration":150874,"SoundDuration":150874,"Delta":258105332},{"NoteNumber":85,"Velocity":65,"Duration":144019,"SoundDuration":144019,"Delta":258256207},{"NoteNumber":92,"Velocity":77,"Duration":144019,"SoundDuration":144019,"Delta":258256207},{"NoteNumber":49,"Velocity":66,"Duration":216029,"SoundDuration":216029,"Delta":258256207},{"NoteNumber":61,"Velocity":78,"Duration":216029,"SoundDuration":216029,"Delta":258256207},{"NoteNumber":80,"Velocity":61,"Duration":144019,"SoundDuration":144019,"Delta":258400226},{"NoteNumber":47,"Velocity":54,"Duration":108014,"SoundDuration":108014,"Delta":258472236},{"NoteNumber":59,"Velocity":65,"Duration":108014,"SoundDuration":108014,"Delta":258472236},{"NoteNumber":85,"Velocity":51,"Duration":144019,"SoundDuration":144019,"Delta":258544246},{"NoteNumber":92,"Velocity":61,"Duration":144019,"SoundDuration":144019,"Delta":258544246},{"NoteNumber":85,"Velocity":66,"Duration":146241,"SoundDuration":146241,"Delta":258688266},{"NoteNumber":89,"Velocity":78,"Duration":146241,"SoundDuration":146241,"Delta":258688266},{"NoteNumber":47,"Velocity":54,"Duration":109681,"SoundDuration":109681,"Delta":258688266},{"NoteNumber":59,"Velocity":65,"Duration":109681,"SoundDuration":109681,"Delta":258688266},{"NoteNumber":77,"Velocity":58,"Duration":147381,"SoundDuration":147381,"Delta":258834507},{"NoteNumber":47,"Velocity":53,"Duration":111391,"SoundDuration":111391,"Delta":258907628},{"NoteNumber":59,"Velocity":64,"Duration":111391,"SoundDuration":111391,"Delta":258907628},{"NoteNumber":85,"Velocity":48,"Duration":148522,"SoundDuration":148522,"Delta":258981889},{"NoteNumber":89,"Velocity":57,"Duration":148522,"SoundDuration":148522,"Delta":258981889},{"NoteNumber":85,"Velocity":65,"Duration":144019,"SoundDuration":144019,"Delta":259130412},{"NoteNumber":90,"Velocity":77,"Duration":144019,"SoundDuration":144019,"Delta":259130412},{"NoteNumber":47,"Velocity":66,"Duration":216029,"SoundDuration":216029,"Delta":259130412},{"NoteNumber":59,"Velocity":78,"Duration":216029,"SoundDuration":216029,"Delta":259130412},{"NoteNumber":78,"Velocity":61,"Duration":144019,"SoundDuration":144019,"Delta":259274431},{"NoteNumber":46,"Velocity":54,"Duration":108014,"SoundDuration":108014,"Delta":259346441},{"NoteNumber":58,"Velocity":65,"Duration":108014,"SoundDuration":108014,"Delta":259346441},{"NoteNumber":85,"Velocity":51,"Duration":144019,"SoundDuration":144019,"Delta":259418451},{"NoteNumber":90,"Velocity":61,"Duration":144019,"SoundDuration":144019,"Delta":259418451},{"NoteNumber":78,"Velocity":66,"Duration":146241,"SoundDuration":146241,"Delta":259562471},{"NoteNumber":85,"Velocity":78,"Duration":146241,"SoundDuration":146241,"Delta":259562471},{"NoteNumber":46,"Velocity":54,"Duration":109681,"SoundDuration":109681,"Delta":259562471},{"NoteNumber":58,"Velocity":65,"Duration":109681,"SoundDuration":109681,"Delta":259562471},{"NoteNumber":73,"Velocity":58,"Duration":147381,"SoundDuration":147381,"Delta":259708712},{"NoteNumber":46,"Velocity":53,"Duration":111391,"SoundDuration":111391,"Delta":259781833},{"NoteNumber":58,"Velocity":64,"Duration":111391,"SoundDuration":111391,"Delta":259781833},{"NoteNumber":85,"Velocity":57,"Duration":148522,"SoundDuration":148522,"Delta":259856094},{"NoteNumber":82,"Velocity":65,"Duration":144019,"SoundDuration":144019,"Delta":260004617},{"NoteNumber":89,"Velocity":77,"Duration":144019,"SoundDuration":144019,"Delta":260004617},{"NoteNumber":46,"Velocity":66,"Duration":216029,"SoundDuration":216029,"Delta":260004617},{"NoteNumber":58,"Velocity":78,"Duration":216029,"SoundDuration":216029,"Delta":260004617},{"NoteNumber":77,"Velocity":61,"Duration":144019,"SoundDuration":144019,"Delta":260148636},{"NoteNumber":44,"Velocity":54,"Duration":108014,"SoundDuration":108014,"Delta":260220646},{"NoteNumber":56,"Velocity":65,"Duration":108014,"SoundDuration":108014,"Delta":260220646},{"NoteNumber":82,"Velocity":51,"Duration":144019,"SoundDuration":144019,"Delta":260292656},{"NoteNumber":89,"Velocity":61,"Duration":144019,"SoundDuration":144019,"Delta":260292656},{"NoteNumber":82,"Velocity":66,"Duration":146241,"SoundDuration":146241,"Delta":260436676},{"NoteNumber":86,"Velocity":78,"Duration":146241,"SoundDuration":146241,"Delta":260436676},{"NoteNumber":44,"Velocity":54,"Duration":109681,"SoundDuration":109681,"Delta":260436676},{"NoteNumber":56,"Velocity":65,"Duration":109681,"SoundDuration":109681,"Delta":260436676},{"NoteNumber":74,"Velocity":58,"Duration":147381,"SoundDuration":147381,"Delta":260582917},{"NoteNumber":44,"Velocity":53,"Duration":111391,"SoundDuration":111391,"Delta":260656038},{"NoteNumber":56,"Velocity":64,"Duration":111391,"SoundDuration":111391,"Delta":260656038},{"NoteNumber":82,"Velocity":48,"Duration":148522,"SoundDuration":148522,"Delta":260730299},{"NoteNumber":86,"Velocity":57,"Duration":148522,"SoundDuration":148522,"Delta":260730299},{"NoteNumber":82,"Velocity":65,"Duration":144019,"SoundDuration":144019,"Delta":260878822},{"NoteNumber":87,"Velocity":77,"Duration":144019,"SoundDuration":144019,"Delta":260878822},{"NoteNumber":44,"Velocity":66,"Duration":216029,"SoundDuration":216029,"Delta":260878822},{"NoteNumber":56,"Velocity":78,"Duration":216029,"SoundDuration":216029,"Delta":260878822},{"NoteNumber":75,"Velocity":61,"Duration":144019,"SoundDuration":144019,"Delta":261022841},{"NoteNumber":42,"Velocity":54,"Duration":108014,"SoundDuration":108014,"Delta":261094851},{"NoteNumber":54,"Velocity":65,"Duration":108014,"SoundDuration":108014,"Delta":261094851},{"NoteNumber":82,"Velocity":51,"Duration":144019,"SoundDuration":144019,"Delta":261166861},{"NoteNumber":87,"Velocity":61,"Duration":144019,"SoundDuration":144019,"Delta":261166861},{"NoteNumber":75,"Velocity":66,"Duration":146241,"SoundDuration":146241,"Delta":261310881},{"NoteNumber":82,"Velocity":78,"Duration":146241,"SoundDuration":146241,"Delta":261310881},{"NoteNumber":42,"Velocity":54,"Duration":109681,"SoundDuration":109681,"Delta":261310881},{"NoteNumber":54,"Velocity":65,"Duration":109681,"SoundDuration":109681,"Delta":261310881},{"NoteNumber":70,"Velocity":58,"Duration":147381,"SoundDuration":147381,"Delta":261457122},{"NoteNumber":42,"Velocity":53,"Duration":111391,"SoundDuration":111391,"Delta":261530243},{"NoteNumber":54,"Velocity":64,"Duration":111391,"SoundDuration":111391,"Delta":261530243},{"NoteNumber":75,"Velocity":53,"Duration":148522,"SoundDuration":148522,"Delta":261604504},{"NoteNumber":82,"Velocity":57,"Duration":148522,"SoundDuration":148522,"Delta":261604504},{"NoteNumber":35,"Velocity":88,"Duration":876953,"SoundDuration":876953,"Delta":261753027},{"NoteNumber":47,"Velocity":103,"Duration":876953,"SoundDuration":876953,"Delta":261753027},{"NoteNumber":63,"Velocity":72,"Duration":111391,"SoundDuration":111391,"Delta":261864419},{"NoteNumber":66,"Velocity":73,"Duration":108695,"SoundDuration":108695,"Delta":261975810},{"NoteNumber":71,"Velocity":75,"Duration":108695,"SoundDuration":108695,"Delta":262084506},{"NoteNumber":75,"Velocity":76,"Duration":108695,"SoundDuration":108695,"Delta":262193202},{"NoteNumber":78,"Velocity":77,"Duration":108695,"SoundDuration":108695,"Delta":262301898},{"NoteNumber":83,"Velocity":79,"Duration":109091,"SoundDuration":109091,"Delta":262410593},{"NoteNumber":87,"Velocity":80,"Duration":110294,"SoundDuration":110294,"Delta":262519685},{"NoteNumber":88,"Velocity":89,"Duration":444443,"SoundDuration":444443,"Delta":262629980},{"NoteNumber":76,"Velocity":75,"Duration":444443,"SoundDuration":444443,"Delta":262629980},{"NoteNumber":78,"Velocity":75,"Duration":444443,"SoundDuration":444443,"Delta":262629980},{"NoteNumber":35,"Velocity":75,"Duration":222221,"SoundDuration":222221,"Delta":262629980},{"NoteNumber":47,"Velocity":89,"Duration":222221,"SoundDuration":222221,"Delta":262629980},{"NoteNumber":34,"Velocity":64,"Duration":111110,"SoundDuration":111110,"Delta":262852202},{"NoteNumber":46,"Velocity":75,"Duration":111110,"SoundDuration":111110,"Delta":262852202},{"NoteNumber":85,"Velocity":81,"Duration":444444,"SoundDuration":444444,"Delta":263074424},{"NoteNumber":78,"Velocity":69,"Duration":444444,"SoundDuration":444444,"Delta":263074424},{"NoteNumber":73,"Velocity":69,"Duration":444444,"SoundDuration":444444,"Delta":263074424},{"NoteNumber":34,"Velocity":64,"Duration":111111,"SoundDuration":111111,"Delta":263074424},{"NoteNumber":46,"Velocity":75,"Duration":111111,"SoundDuration":111111,"Delta":263074424},{"NoteNumber":34,"Velocity":64,"Duration":111110,"SoundDuration":111110,"Delta":263296646},{"NoteNumber":46,"Velocity":75,"Duration":111110,"SoundDuration":111110,"Delta":263296646},{"NoteNumber":35,"Velocity":88,"Duration":876391,"SoundDuration":876391,"Delta":263518868},{"NoteNumber":47,"Velocity":103,"Duration":876391,"SoundDuration":876391,"Delta":263518868},{"NoteNumber":63,"Velocity":72,"Duration":111110,"SoundDuration":111110,"Delta":263629979},{"NoteNumber":66,"Velocity":73,"Duration":108695,"SoundDuration":108695,"Delta":263741090},{"NoteNumber":71,"Velocity":75,"Duration":108695,"SoundDuration":108695,"Delta":263849786},{"NoteNumber":75,"Velocity":76,"Duration":108695,"SoundDuration":108695,"Delta":263958482},{"NoteNumber":78,"Velocity":77,"Duration":108695,"SoundDuration":108695,"Delta":264067177},{"NoteNumber":83,"Velocity":79,"Duration":109091,"SoundDuration":109091,"Delta":264175873},{"NoteNumber":87,"Velocity":80,"Duration":110294,"SoundDuration":110294,"Delta":264284965},{"NoteNumber":76,"Velocity":75,"Duration":444443,"SoundDuration":444443,"Delta":264395260},{"NoteNumber":78,"Velocity":75,"Duration":444443,"SoundDuration":444443,"Delta":264395260},{"NoteNumber":88,"Velocity":89,"Duration":444443,"SoundDuration":444443,"Delta":264395260},{"NoteNumber":35,"Velocity":75,"Duration":222221,"SoundDuration":222221,"Delta":264395260},{"NoteNumber":47,"Velocity":89,"Duration":222221,"SoundDuration":222221,"Delta":264395260},{"NoteNumber":34,"Velocity":64,"Duration":111110,"SoundDuration":111110,"Delta":264617482},{"NoteNumber":46,"Velocity":75,"Duration":111110,"SoundDuration":111110,"Delta":264617482},{"NoteNumber":73,"Velocity":69,"Duration":444444,"SoundDuration":444444,"Delta":264839704},{"NoteNumber":85,"Velocity":81,"Duration":444444,"SoundDuration":444444,"Delta":264839704},{"NoteNumber":78,"Velocity":69,"Duration":444444,"SoundDuration":444444,"Delta":264839704},{"NoteNumber":34,"Velocity":64,"Duration":111111,"SoundDuration":111111,"Delta":264839704},{"NoteNumber":46,"Velocity":75,"Duration":111111,"SoundDuration":111111,"Delta":264839704},{"NoteNumber":34,"Velocity":64,"Duration":111110,"SoundDuration":111110,"Delta":265061926},{"NoteNumber":46,"Velocity":75,"Duration":111110,"SoundDuration":111110,"Delta":265061926},{"NoteNumber":47,"Velocity":103,"Duration":876391,"SoundDuration":876391,"Delta":265284148},{"NoteNumber":35,"Velocity":88,"Duration":876391,"SoundDuration":876391,"Delta":265284148},{"NoteNumber":63,"Velocity":72,"Duration":111110,"SoundDuration":111110,"Delta":265395259},{"NoteNumber":66,"Velocity":73,"Duration":108695,"SoundDuration":108695,"Delta":265506370},{"NoteNumber":71,"Velocity":75,"Duration":108695,"SoundDuration":108695,"Delta":265615066},{"NoteNumber":75,"Velocity":76,"Duration":108695,"SoundDuration":108695,"Delta":265723762},{"NoteNumber":78,"Velocity":77,"Duration":108695,"SoundDuration":108695,"Delta":265832457},{"NoteNumber":83,"Velocity":79,"Duration":109091,"SoundDuration":109091,"Delta":265941153},{"NoteNumber":87,"Velocity":80,"Duration":110294,"SoundDuration":110294,"Delta":266050245},{"NoteNumber":89,"Velocity":89,"Duration":222221,"SoundDuration":222221,"Delta":266160540},{"NoteNumber":77,"Velocity":64,"Duration":222221,"SoundDuration":222221,"Delta":266160540},{"NoteNumber":46,"Velocity":89,"Duration":444443,"SoundDuration":444443,"Delta":266160540},{"NoteNumber":34,"Velocity":75,"Duration":444443,"SoundDuration":444443,"Delta":266160540},{"NoteNumber":87,"Velocity":66,"Duration":111110,"SoundDuration":111110,"Delta":266382762},{"NoteNumber":78,"Velocity":66,"Duration":111110,"SoundDuration":111110,"Delta":266382762},{"NoteNumber":90,"Velocity":78,"Duration":111110,"SoundDuration":111110,"Delta":266382762},{"NoteNumber":78,"Velocity":66,"Duration":111111,"SoundDuration":111111,"Delta":266604984},{"NoteNumber":87,"Velocity":66,"Duration":111111,"SoundDuration":111111,"Delta":266604984},{"NoteNumber":90,"Velocity":78,"Duration":111111,"SoundDuration":111111,"Delta":266604984},{"NoteNumber":45,"Velocity":75,"Duration":444444,"SoundDuration":444444,"Delta":266604984},{"NoteNumber":33,"Velocity":64,"Duration":444444,"SoundDuration":444444,"Delta":266604984},{"NoteNumber":78,"Velocity":66,"Duration":111110,"SoundDuration":111110,"Delta":266827206},{"NoteNumber":87,"Velocity":66,"Duration":111110,"SoundDuration":111110,"Delta":266827206},{"NoteNumber":90,"Velocity":78,"Duration":111110,"SoundDuration":111110,"Delta":266827206},{"NoteNumber":34,"Velocity":88,"Duration":876391,"SoundDuration":876391,"Delta":267049428},{"NoteNumber":46,"Velocity":103,"Duration":876391,"SoundDuration":876391,"Delta":267049428},{"NoteNumber":62,"Velocity":72,"Duration":111110,"SoundDuration":111110,"Delta":267160539},{"NoteNumber":65,"Velocity":73,"Duration":108695,"SoundDuration":108695,"Delta":267271650},{"NoteNumber":70,"Velocity":74,"Duration":108695,"SoundDuration":108695,"Delta":267380346},{"NoteNumber":74,"Velocity":75,"Duration":108695,"SoundDuration":108695,"Delta":267489042},{"NoteNumber":77,"Velocity":75,"Duration":108695,"SoundDuration":108695,"Delta":267597737},{"NoteNumber":82,"Velocity":77,"Duration":109091,"SoundDuration":109091,"Delta":267706433},{"NoteNumber":86,"Velocity":77,"Duration":110294,"SoundDuration":110294,"Delta":267815525},{"NoteNumber":75,"Velocity":72,"Duration":444443,"SoundDuration":444443,"Delta":267925820},{"NoteNumber":77,"Velocity":72,"Duration":444443,"SoundDuration":444443,"Delta":267925820},{"NoteNumber":87,"Velocity":86,"Duration":444443,"SoundDuration":444443,"Delta":267925820},{"NoteNumber":34,"Velocity":72,"Duration":222221,"SoundDuration":222221,"Delta":267925820},{"NoteNumber":46,"Velocity":86,"Duration":222221,"SoundDuration":222221,"Delta":267925820},{"NoteNumber":33,"Velocity":60,"Duration":111110,"SoundDuration":111110,"Delta":268148042},{"NoteNumber":45,"Velocity":72,"Duration":111110,"SoundDuration":111110,"Delta":268148042},{"NoteNumber":72,"Velocity":65,"Duration":444444,"SoundDuration":444444,"Delta":268370264},{"NoteNumber":84,"Velocity":77,"Duration":444444,"SoundDuration":444444,"Delta":268370264},{"NoteNumber":77,"Velocity":65,"Duration":444444,"SoundDuration":444444,"Delta":268370264},{"NoteNumber":33,"Velocity":59,"Duration":111111,"SoundDuration":111111,"Delta":268370264},{"NoteNumber":45,"Velocity":71,"Duration":111111,"SoundDuration":111111,"Delta":268370264},{"NoteNumber":33,"Velocity":59,"Duration":111110,"SoundDuration":111110,"Delta":268592486},{"NoteNumber":45,"Velocity":70,"Duration":111110,"SoundDuration":111110,"Delta":268592486},{"NoteNumber":34,"Velocity":81,"Duration":876391,"SoundDuration":876391,"Delta":268814708},{"NoteNumber":46,"Velocity":96,"Duration":876391,"SoundDuration":876391,"Delta":268814708},{"NoteNumber":62,"Velocity":67,"Duration":111110,"SoundDuration":111110,"Delta":268925819},{"NoteNumber":65,"Velocity":67,"Duration":108695,"SoundDuration":108695,"Delta":269036930},{"NoteNumber":70,"Velocity":69,"Duration":108695,"SoundDuration":108695,"Delta":269145626},{"NoteNumber":74,"Velocity":69,"Duration":108695,"SoundDuration":108695,"Delta":269254321},{"NoteNumber":77,"Velocity":70,"Duration":108695,"SoundDuration":108695,"Delta":269363017},{"NoteNumber":82,"Velocity":71,"Duration":109091,"SoundDuration":109091,"Delta":269471713},{"NoteNumber":86,"Velocity":72,"Duration":110294,"SoundDuration":110294,"Delta":269580805},{"NoteNumber":75,"Velocity":67,"Duration":444443,"SoundDuration":444443,"Delta":269691100},{"NoteNumber":77,"Velocity":67,"Duration":444443,"SoundDuration":444443,"Delta":269691100},{"NoteNumber":87,"Velocity":78,"Duration":444443,"SoundDuration":444443,"Delta":269691100},{"NoteNumber":34,"Velocity":67,"Duration":222221,"SoundDuration":222221,"Delta":269691100},{"NoteNumber":46,"Velocity":78,"Duration":222221,"SoundDuration":222221,"Delta":269691100},{"NoteNumber":33,"Velocity":55,"Duration":111110,"SoundDuration":111110,"Delta":269913322},{"NoteNumber":45,"Velocity":66,"Duration":111110,"SoundDuration":111110,"Delta":269913322},{"NoteNumber":72,"Velocity":59,"Duration":444444,"SoundDuration":444444,"Delta":270135544},{"NoteNumber":84,"Velocity":70,"Duration":444444,"SoundDuration":444444,"Delta":270135544},{"NoteNumber":77,"Velocity":59,"Duration":444444,"SoundDuration":444444,"Delta":270135544},{"NoteNumber":33,"Velocity":55,"Duration":111111,"SoundDuration":111111,"Delta":270135544},{"NoteNumber":45,"Velocity":65,"Duration":111111,"SoundDuration":111111,"Delta":270135544},{"NoteNumber":33,"Velocity":54,"Duration":111110,"SoundDuration":111110,"Delta":270357766},{"NoteNumber":45,"Velocity":64,"Duration":111110,"SoundDuration":111110,"Delta":270357766},{"NoteNumber":34,"Velocity":74,"Duration":876391,"SoundDuration":876391,"Delta":270579988},{"NoteNumber":46,"Velocity":88,"Duration":876391,"SoundDuration":876391,"Delta":270579988},{"NoteNumber":62,"Velocity":60,"Duration":111110,"SoundDuration":111110,"Delta":270691099},{"NoteNumber":65,"Velocity":61,"Duration":108695,"SoundDuration":108695,"Delta":270802210},{"NoteNumber":70,"Velocity":63,"Duration":108695,"SoundDuration":108695,"Delta":270910906},{"NoteNumber":74,"Velocity":64,"Duration":108695,"SoundDuration":108695,"Delta":271019601},{"NoteNumber":77,"Velocity":64,"Duration":108695,"SoundDuration":108695,"Delta":271128297},{"NoteNumber":82,"Velocity":66,"Duration":109091,"SoundDuration":109091,"Delta":271236993},{"NoteNumber":86,"Velocity":66,"Duration":110294,"SoundDuration":110294,"Delta":271346085},{"NoteNumber":75,"Velocity":61,"Duration":444443,"SoundDuration":444443,"Delta":271456380},{"NoteNumber":77,"Velocity":61,"Duration":444443,"SoundDuration":444443,"Delta":271456380},{"NoteNumber":87,"Velocity":72,"Duration":444443,"SoundDuration":444443,"Delta":271456380},{"NoteNumber":34,"Velocity":61,"Duration":222221,"SoundDuration":222221,"Delta":271456380},{"NoteNumber":46,"Velocity":72,"Duration":222221,"SoundDuration":222221,"Delta":271456380},{"NoteNumber":33,"Velocity":51,"Duration":111110,"SoundDuration":111110,"Delta":271678602},{"NoteNumber":45,"Velocity":60,"Duration":111110,"SoundDuration":111110,"Delta":271678602},{"NoteNumber":72,"Velocity":54,"Duration":444444,"SoundDuration":444444,"Delta":271900824},{"NoteNumber":84,"Velocity":65,"Duration":444444,"SoundDuration":444444,"Delta":271900824},{"NoteNumber":77,"Velocity":54,"Duration":444444,"SoundDuration":444444,"Delta":271900824},{"NoteNumber":33,"Velocity":50,"Duration":111111,"SoundDuration":111111,"Delta":271900824},{"NoteNumber":45,"Velocity":59,"Duration":111111,"SoundDuration":111111,"Delta":271900824},{"NoteNumber":33,"Velocity":50,"Duration":111110,"SoundDuration":111110,"Delta":272123046},{"NoteNumber":45,"Velocity":58,"Duration":111110,"SoundDuration":111110,"Delta":272123046},{"NoteNumber":46,"Velocity":80,"Duration":657004,"SoundDuration":657004,"Delta":272345268},{"NoteNumber":34,"Velocity":68,"Duration":657004,"SoundDuration":657004,"Delta":272345268},{"NoteNumber":62,"Velocity":55,"Duration":111110,"SoundDuration":111110,"Delta":272456379},{"NoteNumber":65,"Velocity":55,"Duration":108695,"SoundDuration":108695,"Delta":272567490},{"NoteNumber":70,"Velocity":57,"Duration":108695,"SoundDuration":108695,"Delta":272676186},{"NoteNumber":74,"Velocity":57,"Duration":108695,"SoundDuration":108695,"Delta":272784881},{"NoteNumber":77,"Velocity":58,"Duration":108695,"SoundDuration":108695,"Delta":272893577},{"NoteNumber":82,"Velocity":59,"Duration":109091,"SoundDuration":109091,"Delta":273002273},{"NoteNumber":34,"Velocity":66,"Duration":219386,"SoundDuration":219386,"Delta":273002273},{"NoteNumber":46,"Velocity":77,"Duration":219386,"SoundDuration":219386,"Delta":273002273},{"NoteNumber":86,"Velocity":59,"Duration":110294,"SoundDuration":110294,"Delta":273111365},{"NoteNumber":88,"Velocity":65,"Duration":222221,"SoundDuration":222221,"Delta":273221660},{"NoteNumber":76,"Velocity":47,"Duration":222221,"SoundDuration":222221,"Delta":273221660},{"NoteNumber":45,"Velocity":65,"Duration":444443,"SoundDuration":444443,"Delta":273221660},{"NoteNumber":33,"Velocity":55,"Duration":444443,"SoundDuration":444443,"Delta":273221660},{"NoteNumber":86,"Velocity":47,"Duration":111110,"SoundDuration":111110,"Delta":273443882},{"NoteNumber":77,"Velocity":47,"Duration":111110,"SoundDuration":111110,"Delta":273443882},{"NoteNumber":89,"Velocity":56,"Duration":111110,"SoundDuration":111110,"Delta":273443882},{"NoteNumber":77,"Velocity":47,"Duration":111111,"SoundDuration":111111,"Delta":273666104},{"NoteNumber":86,"Velocity":47,"Duration":111111,"SoundDuration":111111,"Delta":273666104},{"NoteNumber":89,"Velocity":56,"Duration":111111,"SoundDuration":111111,"Delta":273666104},{"NoteNumber":44,"Velocity":53,"Duration":444444,"SoundDuration":444444,"Delta":273666104},{"NoteNumber":32,"Velocity":45,"Duration":444444,"SoundDuration":444444,"Delta":273666104},{"NoteNumber":77,"Velocity":46,"Duration":111110,"SoundDuration":111110,"Delta":273888326},{"NoteNumber":86,"Velocity":46,"Duration":111110,"SoundDuration":111110,"Delta":273888326},{"NoteNumber":89,"Velocity":55,"Duration":111110,"SoundDuration":111110,"Delta":273888326},{"NoteNumber":45,"Velocity":68,"Duration":657004,"SoundDuration":657004,"Delta":274110548},{"NoteNumber":33,"Velocity":57,"Duration":657004,"SoundDuration":657004,"Delta":274110548},{"NoteNumber":61,"Velocity":50,"Duration":111110,"SoundDuration":111110,"Delta":274221659},{"NoteNumber":64,"Velocity":51,"Duration":108695,"SoundDuration":108695,"Delta":274332770},{"NoteNumber":69,"Velocity":52,"Duration":108695,"SoundDuration":108695,"Delta":274441465},{"NoteNumber":73,"Velocity":53,"Duration":108695,"SoundDuration":108695,"Delta":274550161},{"NoteNumber":76,"Velocity":53,"Duration":108695,"SoundDuration":108695,"Delta":274658857},{"NoteNumber":81,"Velocity":55,"Duration":109091,"SoundDuration":109091,"Delta":274767553},{"NoteNumber":33,"Velocity":56,"Duration":219386,"SoundDuration":219386,"Delta":274767553},{"NoteNumber":45,"Velocity":56,"Duration":219386,"SoundDuration":219386,"Delta":274767553},{"NoteNumber":85,"Velocity":55,"Duration":110294,"SoundDuration":110294,"Delta":274876645},{"NoteNumber":86,"Velocity":61,"Duration":222221,"SoundDuration":222221,"Delta":274986940},{"NoteNumber":74,"Velocity":44,"Duration":222221,"SoundDuration":222221,"Delta":274986940},{"NoteNumber":43,"Velocity":58,"Duration":444443,"SoundDuration":444443,"Delta":274986940},{"NoteNumber":31,"Velocity":49,"Duration":444443,"SoundDuration":444443,"Delta":274986940},{"NoteNumber":84,"Velocity":46,"Duration":111110,"SoundDuration":111110,"Delta":275209162},{"NoteNumber":75,"Velocity":46,"Duration":111110,"SoundDuration":111110,"Delta":275209162},{"NoteNumber":87,"Velocity":54,"Duration":111110,"SoundDuration":111110,"Delta":275209162},{"NoteNumber":75,"Velocity":46,"Duration":111111,"SoundDuration":111111,"Delta":275431384},{"NoteNumber":84,"Velocity":46,"Duration":111111,"SoundDuration":111111,"Delta":275431384},{"NoteNumber":87,"Velocity":54,"Duration":111111,"SoundDuration":111111,"Delta":275431384},{"NoteNumber":42,"Velocity":49,"Duration":444444,"SoundDuration":444444,"Delta":275431384},{"NoteNumber":30,"Velocity":40,"Duration":444444,"SoundDuration":444444,"Delta":275431384},{"NoteNumber":75,"Velocity":46,"Duration":111110,"SoundDuration":111110,"Delta":275653606},{"NoteNumber":84,"Velocity":46,"Duration":111110,"SoundDuration":111110,"Delta":275653606},{"NoteNumber":87,"Velocity":54,"Duration":111110,"SoundDuration":111110,"Delta":275653606},{"NoteNumber":31,"Velocity":57,"Duration":876391,"SoundDuration":876391,"Delta":275875828},{"NoteNumber":43,"Velocity":68,"Duration":876391,"SoundDuration":876391,"Delta":275875828},{"NoteNumber":59,"Velocity":50,"Duration":111110,"SoundDuration":111110,"Delta":275986939},{"NoteNumber":62,"Velocity":51,"Duration":108695,"SoundDuration":108695,"Delta":276098050},{"NoteNumber":67,"Velocity":52,"Duration":108695,"SoundDuration":108695,"Delta":276206745},{"NoteNumber":71,"Velocity":53,"Duration":108695,"SoundDuration":108695,"Delta":276315441},{"NoteNumber":74,"Velocity":53,"Duration":108695,"SoundDuration":108695,"Delta":276424137},{"NoteNumber":79,"Velocity":55,"Duration":109091,"SoundDuration":109091,"Delta":276532833},{"NoteNumber":83,"Velocity":55,"Duration":110294,"SoundDuration":110294,"Delta":276641925},{"NoteNumber":74,"Velocity":52,"Duration":444443,"SoundDuration":444443,"Delta":276752220},{"NoteNumber":78,"Velocity":52,"Duration":444443,"SoundDuration":444443,"Delta":276752220},{"NoteNumber":86,"Velocity":61,"Duration":444443,"SoundDuration":444443,"Delta":276752220},{"NoteNumber":31,"Velocity":49,"Duration":222221,"SoundDuration":222221,"Delta":276752220},{"NoteNumber":43,"Velocity":58,"Duration":222221,"SoundDuration":222221,"Delta":276752220},{"NoteNumber":32,"Velocity":40,"Duration":111110,"SoundDuration":111110,"Delta":276974442},{"NoteNumber":44,"Velocity":49,"Duration":111110,"SoundDuration":111110,"Delta":276974442},{"NoteNumber":72,"Velocity":48,"Duration":444444,"SoundDuration":444444,"Delta":277196664},{"NoteNumber":84,"Velocity":56,"Duration":444444,"SoundDuration":444444,"Delta":277196664},{"NoteNumber":78,"Velocity":48,"Duration":444444,"SoundDuration":444444,"Delta":277196664},{"NoteNumber":32,"Velocity":40,"Duration":111111,"SoundDuration":111111,"Delta":277196664},{"NoteNumber":44,"Velocity":49,"Duration":111111,"SoundDuration":111111,"Delta":277196664},{"NoteNumber":32,"Velocity":40,"Duration":111110,"SoundDuration":111110,"Delta":277418886},{"NoteNumber":44,"Velocity":49,"Duration":111110,"SoundDuration":111110,"Delta":277418886},{"NoteNumber":31,"Velocity":57,"Duration":880470,"SoundDuration":880470,"Delta":277641108},{"NoteNumber":43,"Velocity":68,"Duration":880470,"SoundDuration":880470,"Delta":277641108},{"NoteNumber":59,"Velocity":49,"Duration":111110,"SoundDuration":111110,"Delta":277752219},{"NoteNumber":62,"Velocity":48,"Duration":108695,"SoundDuration":108695,"Delta":277863330},{"NoteNumber":67,"Velocity":48,"Duration":108695,"SoundDuration":108695,"Delta":277972025},{"NoteNumber":71,"Velocity":47,"Duration":108695,"SoundDuration":108695,"Delta":278080721},{"NoteNumber":74,"Velocity":46,"Duration":109091,"SoundDuration":109091,"Delta":278189417},{"NoteNumber":79,"Velocity":47,"Duration":110567,"SoundDuration":110567,"Delta":278298509},{"NoteNumber":83,"Velocity":45,"Duration":112502,"SoundDuration":112502,"Delta":278409076},{"NoteNumber":74,"Velocity":42,"Duration":467724,"SoundDuration":467724,"Delta":278521578},{"NoteNumber":78,"Velocity":42,"Duration":467724,"SoundDuration":467724,"Delta":278521578},{"NoteNumber":86,"Velocity":49,"Duration":467724,"SoundDuration":467724,"Delta":278521578},{"NoteNumber":31,"Velocity":38,"Duration":231962,"SoundDuration":231962,"Delta":278521578},{"NoteNumber":43,"Velocity":46,"Duration":231962,"SoundDuration":231962,"Delta":278521578},{"NoteNumber":32,"Velocity":32,"Duration":117340,"SoundDuration":117340,"Delta":278753541},{"NoteNumber":44,"Velocity":38,"Duration":117340,"SoundDuration":117340,"Delta":278753541},{"NoteNumber":72,"Velocity":37,"Duration":483756,"SoundDuration":483756,"Delta":278989303},{"NoteNumber":84,"Velocity":45,"Duration":483756,"SoundDuration":483756,"Delta":278989303},{"NoteNumber":78,"Velocity":37,"Duration":483756,"SoundDuration":483756,"Delta":278989303},{"NoteNumber":32,"Velocity":32,"Duration":119363,"SoundDuration":119363,"Delta":278989303},{"NoteNumber":44,"Velocity":38,"Duration":119363,"SoundDuration":119363,"Delta":278989303},{"NoteNumber":32,"Velocity":32,"Duration":121458,"SoundDuration":121458,"Delta":279229150},{"NoteNumber":44,"Velocity":38,"Duration":121458,"SoundDuration":121458,"Delta":279229150},{"NoteNumber":71,"Velocity":37,"Duration":246913,"SoundDuration":246913,"Delta":279473060},{"NoteNumber":79,"Velocity":37,"Duration":246913,"SoundDuration":246913,"Delta":279473060},{"NoteNumber":83,"Velocity":45,"Duration":246913,"SoundDuration":246913,"Delta":279473060},{"NoteNumber":31,"Velocity":38,"Duration":246913,"SoundDuration":246913,"Delta":279473060},{"NoteNumber":43,"Velocity":46,"Duration":246913,"SoundDuration":246913,"Delta":279473060},{"NoteNumber":55,"Velocity":78,"Duration":1323125,"SoundDuration":1323125,"Delta":279966887},{"NoteNumber":67,"Velocity":94,"Duration":1323125,"SoundDuration":1323125,"Delta":279966887},{"NoteNumber":74,"Velocity":52,"Duration":113156,"SoundDuration":113156,"Delta":281063699},{"NoteNumber":72,"Velocity":63,"Duration":216029,"SoundDuration":216029,"Delta":281290012},{"NoteNumber":55,"Velocity":42,"Duration":216029,"SoundDuration":216029,"Delta":281290012},{"NoteNumber":71,"Velocity":37,"Duration":108014,"SoundDuration":108014,"Delta":281506041},{"NoteNumber":67,"Velocity":31,"Duration":108014,"SoundDuration":108014,"Delta":281506041},{"NoteNumber":71,"Velocity":43,"Duration":109681,"SoundDuration":109681,"Delta":281722071},{"NoteNumber":65,"Velocity":31,"Duration":109681,"SoundDuration":109681,"Delta":281722071},{"NoteNumber":62,"Velocity":26,"Duration":109681,"SoundDuration":109681,"Delta":281722071},{"NoteNumber":71,"Velocity":37,"Duration":111391,"SoundDuration":111391,"Delta":281941433},{"NoteNumber":67,"Velocity":32,"Duration":111391,"SoundDuration":111391,"Delta":281941433},{"NoteNumber":71,"Velocity":55,"Duration":105618,"SoundDuration":105618,"Delta":282164217},{"NoteNumber":55,"Velocity":44,"Duration":220605,"SoundDuration":220605,"Delta":282164217},{"NoteNumber":72,"Velocity":49,"Duration":114986,"SoundDuration":114986,"Delta":282269836},{"NoteNumber":79,"Velocity":59,"Duration":215223,"SoundDuration":215223,"Delta":282384822},{"NoteNumber":67,"Velocity":31,"Duration":215223,"SoundDuration":215223,"Delta":282384822},{"NoteNumber":77,"Velocity":50,"Duration":108428,"SoundDuration":108428,"Delta":282600046},{"NoteNumber":60,"Velocity":29,"Duration":216857,"SoundDuration":216857,"Delta":282600046},{"NoteNumber":63,"Velocity":35,"Duration":216857,"SoundDuration":216857,"Delta":282600046},{"NoteNumber":75,"Velocity":45,"Duration":108428,"SoundDuration":108428,"Delta":282708474},{"NoteNumber":74,"Velocity":45,"Duration":112266,"SoundDuration":112266,"Delta":282816903},{"NoteNumber":67,"Velocity":32,"Duration":224534,"SoundDuration":224534,"Delta":282816903},{"NoteNumber":72,"Velocity":45,"Duration":112267,"SoundDuration":112267,"Delta":282929170},{"NoteNumber":72,"Velocity":63,"Duration":216029,"SoundDuration":216029,"Delta":283041437},{"NoteNumber":55,"Velocity":42,"Duration":216029,"SoundDuration":216029,"Delta":283041437},{"NoteNumber":71,"Velocity":37,"Duration":108014,"SoundDuration":108014,"Delta":283257466},{"NoteNumber":67,"Velocity":31,"Duration":108014,"SoundDuration":108014,"Delta":283257466},{"NoteNumber":71,"Velocity":44,"Duration":109257,"SoundDuration":109257,"Delta":283473496},{"NoteNumber":65,"Velocity":31,"Duration":109257,"SoundDuration":109257,"Delta":283473496},{"NoteNumber":62,"Velocity":26,"Duration":109257,"SoundDuration":109257,"Delta":283473496},{"NoteNumber":71,"Velocity":37,"Duration":112266,"SoundDuration":112266,"Delta":283692011},{"NoteNumber":67,"Velocity":29,"Duration":112266,"SoundDuration":112266,"Delta":283692011},{"NoteNumber":71,"Velocity":57,"Duration":219362,"SoundDuration":219362,"Delta":283916545},{"NoteNumber":55,"Velocity":44,"Duration":219362,"SoundDuration":219362,"Delta":283916545},{"NoteNumber":72,"Velocity":47,"Duration":109681,"SoundDuration":109681,"Delta":284135908},{"NoteNumber":67,"Velocity":32,"Duration":109681,"SoundDuration":109681,"Delta":284135908},{"NoteNumber":54,"Velocity":29,"Duration":109681,"SoundDuration":109681,"Delta":284355270},{"NoteNumber":60,"Velocity":29,"Duration":109681,"SoundDuration":109681,"Delta":284355270},{"NoteNumber":63,"Velocity":35,"Duration":109681,"SoundDuration":109681,"Delta":284355270},{"NoteNumber":75,"Velocity":54,"Duration":223663,"SoundDuration":223663,"Delta":284574633},{"NoteNumber":66,"Velocity":35,"Duration":223663,"SoundDuration":223663,"Delta":284574633},{"NoteNumber":72,"Velocity":63,"Duration":215223,"SoundDuration":215223,"Delta":284798296},{"NoteNumber":53,"Velocity":42,"Duration":215223,"SoundDuration":215223,"Delta":284798296},{"NoteNumber":70,"Velocity":52,"Duration":107611,"SoundDuration":107611,"Delta":285013520},{"NoteNumber":65,"Velocity":35,"Duration":107611,"SoundDuration":107611,"Delta":285013520},{"NoteNumber":70,"Velocity":54,"Duration":109681,"SoundDuration":109681,"Delta":285228743},{"NoteNumber":62,"Velocity":35,"Duration":109681,"SoundDuration":109681,"Delta":285228743},{"NoteNumber":70,"Velocity":54,"Duration":109681,"SoundDuration":109681,"Delta":285448106},{"NoteNumber":65,"Velocity":36,"Duration":109681,"SoundDuration":109681,"Delta":285448106},{"NoteNumber":72,"Velocity":63,"Duration":216029,"SoundDuration":216029,"Delta":285667468},{"NoteNumber":55,"Velocity":42,"Duration":216029,"SoundDuration":216029,"Delta":285667468},{"NoteNumber":70,"Velocity":53,"Duration":108014,"SoundDuration":108014,"Delta":285883498},{"NoteNumber":64,"Velocity":36,"Duration":108014,"SoundDuration":108014,"Delta":285883498},{"NoteNumber":70,"Velocity":55,"Duration":109681,"SoundDuration":109681,"Delta":286099527},{"NoteNumber":60,"Velocity":36,"Duration":109681,"SoundDuration":109681,"Delta":286099527},{"NoteNumber":70,"Velocity":55,"Duration":109681,"SoundDuration":109681,"Delta":286318890},{"NoteNumber":64,"Velocity":36,"Duration":109681,"SoundDuration":109681,"Delta":286318890},{"NoteNumber":72,"Velocity":63,"Duration":107611,"SoundDuration":107611,"Delta":286538252},{"NoteNumber":62,"Velocity":42,"Duration":215223,"SoundDuration":215223,"Delta":286538252},{"NoteNumber":53,"Velocity":35,"Duration":215223,"SoundDuration":215223,"Delta":286538252},{"NoteNumber":70,"Velocity":52,"Duration":107611,"SoundDuration":107611,"Delta":286645864},{"NoteNumber":69,"Velocity":53,"Duration":107611,"SoundDuration":107611,"Delta":286753476},{"NoteNumber":65,"Velocity":33,"Duration":215223,"SoundDuration":215223,"Delta":286753476},{"NoteNumber":70,"Velocity":53,"Duration":107611,"SoundDuration":107611,"Delta":286861087},{"NoteNumber":72,"Velocity":58,"Duration":110954,"SoundDuration":110954,"Delta":286968699},{"NoteNumber":63,"Velocity":35,"Duration":110954,"SoundDuration":110954,"Delta":286968699},{"NoteNumber":53,"Velocity":29,"Duration":110954,"SoundDuration":110954,"Delta":286968699},{"NoteNumber":74,"Velocity":54,"Duration":114068,"SoundDuration":114068,"Delta":287190609},{"NoteNumber":65,"Velocity":34,"Duration":114068,"SoundDuration":114068,"Delta":287190609},{"NoteNumber":70,"Velocity":58,"Duration":225646,"SoundDuration":225646,"Delta":287418746},{"NoteNumber":62,"Velocity":42,"Duration":115965,"SoundDuration":115965,"Delta":287418746},{"NoteNumber":58,"Velocity":42,"Duration":115965,"SoundDuration":115965,"Delta":287418746},{"NoteNumber":57,"Velocity":38,"Duration":111831,"SoundDuration":111831,"Delta":287644393},{"NoteNumber":55,"Velocity":37,"Duration":111831,"SoundDuration":111831,"Delta":287868056},{"NoteNumber":74,"Velocity":57,"Duration":112714,"SoundDuration":112714,"Delta":288091720},{"NoteNumber":53,"Velocity":36,"Duration":112714,"SoundDuration":112714,"Delta":288091720},{"NoteNumber":79,"Velocity":60,"Duration":445566,"SoundDuration":445566,"Delta":288317148},{"NoteNumber":51,"Velocity":42,"Duration":111391,"SoundDuration":111391,"Delta":288317148},{"NoteNumber":58,"Velocity":36,"Duration":111391,"SoundDuration":111391,"Delta":288539932},{"NoteNumber":55,"Velocity":36,"Duration":111391,"SoundDuration":111391,"Delta":288539932},{"NoteNumber":75,"Velocity":60,"Duration":445567,"SoundDuration":445567,"Delta":288762715},{"NoteNumber":48,"Velocity":36,"Duration":111391,"SoundDuration":111391,"Delta":288762715},{"NoteNumber":60,"Velocity":36,"Duration":111391,"SoundDuration":111391,"Delta":288985499},{"NoteNumber":55,"Velocity":36,"Duration":111391,"SoundDuration":111391,"Delta":288985499},{"NoteNumber":72,"Velocity":60,"Duration":438724,"SoundDuration":438724,"Delta":289208282},{"NoteNumber":53,"Velocity":42,"Duration":109681,"SoundDuration":109681,"Delta":289208282},{"NoteNumber":57,"Velocity":35,"Duration":109681,"SoundDuration":109681,"Delta":289427645},{"NoteNumber":60,"Velocity":35,"Duration":109681,"SoundDuration":109681,"Delta":289427645},{"NoteNumber":74,"Velocity":60,"Duration":109681,"SoundDuration":109681,"Delta":289647007},{"NoteNumber":51,"Velocity":36,"Duration":109681,"SoundDuration":109681,"Delta":289647007},{"NoteNumber":75,"Velocity":58,"Duration":109681,"SoundDuration":109681,"Delta":289866370},{"NoteNumber":60,"Velocity":36,"Duration":109681,"SoundDuration":109681,"Delta":289866370},{"NoteNumber":57,"Velocity":36,"Duration":109681,"SoundDuration":109681,"Delta":289866370},{"NoteNumber":77,"Velocity":57,"Duration":108014,"SoundDuration":108014,"Delta":290085732},{"NoteNumber":50,"Velocity":39,"Duration":108014,"SoundDuration":108014,"Delta":290085732},{"NoteNumber":79,"Velocity":53,"Duration":108014,"SoundDuration":108014,"Delta":290193747},{"NoteNumber":77,"Velocity":53,"Duration":108014,"SoundDuration":108014,"Delta":290301762},{"NoteNumber":58,"Velocity":34,"Duration":108014,"SoundDuration":108014,"Delta":290301762},{"NoteNumber":53,"Velocity":29,"Duration":108014,"SoundDuration":108014,"Delta":290301762},{"NoteNumber":75,"Velocity":53,"Duration":108014,"SoundDuration":108014,"Delta":290409777},{"NoteNumber":74,"Velocity":59,"Duration":110099,"SoundDuration":110099,"Delta":290517791},{"NoteNumber":46,"Velocity":34,"Duration":110099,"SoundDuration":110099,"Delta":290517791},{"NoteNumber":75,"Velocity":52,"Duration":110099,"SoundDuration":110099,"Delta":290627891},{"NoteNumber":74,"Velocity":52,"Duration":114068,"SoundDuration":114068,"Delta":290737991},{"NoteNumber":58,"Velocity":34,"Duration":114068,"SoundDuration":114068,"Delta":290737991},{"NoteNumber":53,"Velocity":29,"Duration":114068,"SoundDuration":114068,"Delta":290737991},{"NoteNumber":72,"Velocity":53,"Duration":114068,"SoundDuration":114068,"Delta":290852059},{"NoteNumber":70,"Velocity":60,"Duration":678220,"SoundDuration":678220,"Delta":290966128},{"NoteNumber":51,"Velocity":40,"Duration":111831,"SoundDuration":111831,"Delta":290966128},{"NoteNumber":58,"Velocity":34,"Duration":111831,"SoundDuration":111831,"Delta":291189791},{"NoteNumber":55,"Velocity":29,"Duration":111831,"SoundDuration":111831,"Delta":291189791},{"NoteNumber":50,"Velocity":34,"Duration":115446,"SoundDuration":115446,"Delta":291413455},{"NoteNumber":70,"Velocity":46,"Duration":114068,"SoundDuration":114068,"Delta":291644348},{"NoteNumber":58,"Velocity":29,"Duration":114068,"SoundDuration":114068,"Delta":291644348},{"NoteNumber":55,"Velocity":29,"Duration":114068,"SoundDuration":114068,"Delta":291644348},{"NoteNumber":75,"Velocity":48,"Duration":445566,"SoundDuration":445566,"Delta":291872485},{"NoteNumber":48,"Velocity":33,"Duration":111391,"SoundDuration":111391,"Delta":291872485},{"NoteNumber":60,"Velocity":29,"Duration":111391,"SoundDuration":111391,"Delta":292095269},{"NoteNumber":56,"Velocity":29,"Duration":111391,"SoundDuration":111391,"Delta":292095269},{"NoteNumber":72,"Velocity":48,"Duration":445567,"SoundDuration":445567,"Delta":292318052},{"NoteNumber":51,"Velocity":29,"Duration":111391,"SoundDuration":111391,"Delta":292318052},{"NoteNumber":60,"Velocity":29,"Duration":111391,"SoundDuration":111391,"Delta":292540836},{"NoteNumber":56,"Velocity":29,"Duration":111391,"SoundDuration":111391,"Delta":292540836},{"NoteNumber":68,"Velocity":48,"Duration":438724,"SoundDuration":438724,"Delta":292763619},{"NoteNumber":48,"Velocity":33,"Duration":109681,"SoundDuration":109681,"Delta":292763619},{"NoteNumber":56,"Velocity":28,"Duration":109681,"SoundDuration":109681,"Delta":292982982},{"NoteNumber":60,"Velocity":28,"Duration":109681,"SoundDuration":109681,"Delta":292982982},{"NoteNumber":70,"Velocity":48,"Duration":109681,"SoundDuration":109681,"Delta":293202344},{"NoteNumber":51,"Velocity":29,"Duration":109681,"SoundDuration":109681,"Delta":293202344},{"NoteNumber":72,"Velocity":46,"Duration":109681,"SoundDuration":109681,"Delta":293421707},{"NoteNumber":60,"Velocity":29,"Duration":109681,"SoundDuration":109681,"Delta":293421707},{"NoteNumber":56,"Velocity":29,"Duration":109681,"SoundDuration":109681,"Delta":293421707},{"NoteNumber":75,"Velocity":48,"Duration":445566,"SoundDuration":445566,"Delta":293641069},{"NoteNumber":49,"Velocity":33,"Duration":222783,"SoundDuration":222783,"Delta":293641069},{"NoteNumber":55,"Velocity":29,"Duration":222783,"SoundDuration":222783,"Delta":293863853},{"NoteNumber":58,"Velocity":29,"Duration":222783,"SoundDuration":222783,"Delta":293863853},{"NoteNumber":73,"Velocity":48,"Duration":222783,"SoundDuration":222783,"Delta":294086636},{"NoteNumber":51,"Velocity":29,"Duration":222783,"SoundDuration":222783,"Delta":294086636},{"NoteNumber":72,"Velocity":48,"Duration":222783,"SoundDuration":222783,"Delta":294309420},{"NoteNumber":58,"Velocity":29,"Duration":222783,"SoundDuration":222783,"Delta":294309420},{"NoteNumber":55,"Velocity":29,"Duration":222783,"SoundDuration":222783,"Delta":294309420},{"NoteNumber":70,"Velocity":48,"Duration":438724,"SoundDuration":438724,"Delta":294532203},{"NoteNumber":49,"Velocity":33,"Duration":219362,"SoundDuration":219362,"Delta":294532203},{"NoteNumber":55,"Velocity":28,"Duration":219362,"SoundDuration":219362,"Delta":294751566},{"NoteNumber":58,"Velocity":28,"Duration":219362,"SoundDuration":219362,"Delta":294751566},{"NoteNumber":72,"Velocity":48,"Duration":109681,"SoundDuration":109681,"Delta":294970928},{"NoteNumber":51,"Velocity":29,"Duration":164521,"SoundDuration":164521,"Delta":294970928},{"NoteNumber":73,"Velocity":46,"Duration":109681,"SoundDuration":109681,"Delta":295190291},{"NoteNumber":58,"Velocity":29,"Duration":164521,"SoundDuration":164521,"Delta":295190291},{"NoteNumber":55,"Velocity":29,"Duration":164521,"SoundDuration":164521,"Delta":295190291},{"NoteNumber":75,"Velocity":46,"Duration":109681,"SoundDuration":109681,"Delta":295409653},{"NoteNumber":48,"Velocity":31,"Duration":219362,"SoundDuration":219362,"Delta":295409653},{"NoteNumber":77,"Velocity":42,"Duration":109681,"SoundDuration":109681,"Delta":295519335},{"NoteNumber":75,"Velocity":42,"Duration":109681,"SoundDuration":109681,"Delta":295629016},{"NoteNumber":56,"Velocity":23,"Duration":219362,"SoundDuration":219362,"Delta":295629016},{"NoteNumber":60,"Velocity":27,"Duration":219362,"SoundDuration":219362,"Delta":295629016},{"NoteNumber":73,"Velocity":42,"Duration":109681,"SoundDuration":109681,"Delta":295738697},{"NoteNumber":72,"Velocity":47,"Duration":110099,"SoundDuration":110099,"Delta":295848378},{"NoteNumber":51,"Velocity":27,"Duration":220199,"SoundDuration":220199,"Delta":295848378},{"NoteNumber":73,"Velocity":42,"Duration":110099,"SoundDuration":110099,"Delta":295958478},{"NoteNumber":72,"Velocity":42,"Duration":112266,"SoundDuration":112266,"Delta":296068578},{"NoteNumber":60,"Velocity":27,"Duration":224534,"SoundDuration":224534,"Delta":296068578},{"NoteNumber":56,"Velocity":23,"Duration":224534,"SoundDuration":224534,"Delta":296068578},{"NoteNumber":70,"Velocity":42,"Duration":112267,"SoundDuration":112267,"Delta":296180845},{"NoteNumber":68,"Velocity":48,"Duration":450884,"SoundDuration":450884,"Delta":296293112},{"NoteNumber":48,"Velocity":32,"Duration":223663,"SoundDuration":223663,"Delta":296293112},{"NoteNumber":60,"Velocity":27,"Duration":227220,"SoundDuration":227220,"Delta":296516775},{"NoteNumber":56,"Velocity":23,"Duration":227220,"SoundDuration":227220,"Delta":296516775},{"NoteNumber":70,"Velocity":48,"Duration":111831,"SoundDuration":111831,"Delta":296743996},{"NoteNumber":51,"Velocity":32,"Duration":111831,"SoundDuration":111831,"Delta":296743996},{"NoteNumber":72,"Velocity":44,"Duration":111831,"SoundDuration":111831,"Delta":296967660},{"NoteNumber":56,"Velocity":23,"Duration":111831,"SoundDuration":111831,"Delta":296967660},{"NoteNumber":60,"Velocity":27,"Duration":111831,"SoundDuration":111831,"Delta":296967660},{"NoteNumber":75,"Velocity":48,"Duration":223663,"SoundDuration":223663,"Delta":297191323},{"NoteNumber":49,"Velocity":32,"Duration":223663,"SoundDuration":223663,"Delta":297191323},{"NoteNumber":73,"Velocity":48,"Duration":111831,"SoundDuration":111831,"Delta":297414987},{"NoteNumber":58,"Velocity":29,"Duration":111831,"SoundDuration":111831,"Delta":297414987},{"NoteNumber":55,"Velocity":29,"Duration":111831,"SoundDuration":111831,"Delta":297414987},{"NoteNumber":73,"Velocity":48,"Duration":109257,"SoundDuration":109257,"Delta":297638650},{"NoteNumber":51,"Velocity":32,"Duration":218515,"SoundDuration":218515,"Delta":297638650},{"NoteNumber":75,"Velocity":44,"Duration":109257,"SoundDuration":109257,"Delta":297747908},{"NoteNumber":73,"Velocity":44,"Duration":109257,"SoundDuration":109257,"Delta":297857166},{"NoteNumber":58,"Velocity":29,"Duration":218515,"SoundDuration":218515,"Delta":297857166},{"NoteNumber":55,"Velocity":29,"Duration":218515,"SoundDuration":218515,"Delta":297857166},{"NoteNumber":72,"Velocity":44,"Duration":109257,"SoundDuration":109257,"Delta":297966424},{"NoteNumber":70,"Velocity":48,"Duration":218515,"SoundDuration":218515,"Delta":298075681},{"NoteNumber":49,"Velocity":34,"Duration":218515,"SoundDuration":218515,"Delta":298075681},{"NoteNumber":75,"Velocity":49,"Duration":111831,"SoundDuration":111831,"Delta":298294197},{"NoteNumber":58,"Velocity":29,"Duration":111831,"SoundDuration":111831,"Delta":298294197},{"NoteNumber":55,"Velocity":29,"Duration":111831,"SoundDuration":111831,"Delta":298294197},{"NoteNumber":77,"Velocity":53,"Duration":111831,"SoundDuration":111831,"Delta":298517860},{"NoteNumber":51,"Velocity":31,"Duration":111831,"SoundDuration":111831,"Delta":298517860},{"NoteNumber":79,"Velocity":56,"Duration":111831,"SoundDuration":111831,"Delta":298741524},{"NoteNumber":58,"Velocity":34,"Duration":111831,"SoundDuration":111831,"Delta":298741524},{"NoteNumber":55,"Velocity":34,"Duration":111831,"SoundDuration":111831,"Delta":298741524},{"NoteNumber":80,"Velocity":59,"Duration":884357,"SoundDuration":884357,"Delta":298965187},{"NoteNumber":68,"Velocity":50,"Duration":884357,"SoundDuration":884357,"Delta":298965187},{"NoteNumber":48,"Velocity":37,"Duration":218515,"SoundDuration":218515,"Delta":298965187},{"NoteNumber":56,"Velocity":27,"Duration":218515,"SoundDuration":218515,"Delta":299183703},{"NoteNumber":60,"Velocity":32,"Duration":218515,"SoundDuration":218515,"Delta":299183703},{"NoteNumber":51,"Velocity":32,"Duration":223663,"SoundDuration":223663,"Delta":299402218},{"NoteNumber":56,"Velocity":27,"Duration":223663,"SoundDuration":223663,"Delta":299625882},{"NoteNumber":60,"Velocity":32,"Duration":223663,"SoundDuration":223663,"Delta":299625882},{"NoteNumber":72,"Velocity":51,"Duration":663539,"SoundDuration":663539,"Delta":299849545},{"NoteNumber":84,"Velocity":60,"Duration":663539,"SoundDuration":663539,"Delta":299849545},{"NoteNumber":48,"Velocity":37,"Duration":218515,"SoundDuration":218515,"Delta":299849545},{"NoteNumber":60,"Velocity":32,"Duration":221360,"SoundDuration":221360,"Delta":300068061},{"NoteNumber":56,"Velocity":27,"Duration":221360,"SoundDuration":221360,"Delta":300068061},{"NoteNumber":51,"Velocity":32,"Duration":223663,"SoundDuration":223663,"Delta":300289422},{"NoteNumber":80,"Velocity":55,"Duration":223663,"SoundDuration":223663,"Delta":300513085},{"NoteNumber":68,"Velocity":47,"Duration":223663,"SoundDuration":223663,"Delta":300513085},{"NoteNumber":60,"Velocity":32,"Duration":223663,"SoundDuration":223663,"Delta":300513085},{"NoteNumber":56,"Velocity":27,"Duration":223663,"SoundDuration":223663,"Delta":300513085},{"NoteNumber":68,"Velocity":50,"Duration":442285,"SoundDuration":442285,"Delta":300736749},{"NoteNumber":80,"Velocity":59,"Duration":442285,"SoundDuration":442285,"Delta":300736749},{"NoteNumber":49,"Velocity":37,"Duration":222643,"SoundDuration":222643,"Delta":300736749},{"NoteNumber":58,"Velocity":32,"Duration":219642,"SoundDuration":219642,"Delta":300959393},{"NoteNumber":55,"Velocity":27,"Duration":219642,"SoundDuration":219642,"Delta":300959393},{"NoteNumber":67,"Velocity":47,"Duration":889230,"SoundDuration":889230,"Delta":301179035},{"NoteNumber":79,"Velocity":55,"Duration":889230,"SoundDuration":889230,"Delta":301179035},{"NoteNumber":52,"Velocity":32,"Duration":219078,"SoundDuration":219078,"Delta":301179035},{"NoteNumber":58,"Velocity":32,"Duration":221056,"SoundDuration":221056,"Delta":301398113},{"NoteNumber":55,"Velocity":27,"Duration":221056,"SoundDuration":221056,"Delta":301398113},{"NoteNumber":49,"Velocity":37,"Duration":222783,"SoundDuration":222783,"Delta":301619169},{"NoteNumber":58,"Velocity":32,"Duration":226312,"SoundDuration":226312,"Delta":301841953},{"NoteNumber":55,"Velocity":27,"Duration":226312,"SoundDuration":226312,"Delta":301841953},{"NoteNumber":67,"Velocity":48,"Duration":443820,"SoundDuration":443820,"Delta":302068265},{"NoteNumber":79,"Velocity":57,"Duration":443820,"SoundDuration":443820,"Delta":302068265},{"NoteNumber":52,"Velocity":36,"Duration":221909,"SoundDuration":221909,"Delta":302068265},{"NoteNumber":58,"Velocity":39,"Duration":221910,"SoundDuration":221910,"Delta":302290175},{"NoteNumber":55,"Velocity":32,"Duration":221910,"SoundDuration":221910,"Delta":302290175},{"NoteNumber":67,"Velocity":52,"Duration":218515,"SoundDuration":218515,"Delta":302512085},{"NoteNumber":79,"Velocity":63,"Duration":218515,"SoundDuration":218515,"Delta":302512085},{"NoteNumber":50,"Velocity":44,"Duration":218515,"SoundDuration":218515,"Delta":302512085},{"NoteNumber":65,"Velocity":48,"Duration":218515,"SoundDuration":218515,"Delta":302730601},{"NoteNumber":77,"Velocity":59,"Duration":218515,"SoundDuration":218515,"Delta":302730601},{"NoteNumber":62,"Velocity":38,"Duration":218515,"SoundDuration":218515,"Delta":302730601},{"NoteNumber":58,"Velocity":31,"Duration":218515,"SoundDuration":218515,"Delta":302730601},{"NoteNumber":70,"Velocity":49,"Duration":887639,"SoundDuration":887639,"Delta":302949116},{"NoteNumber":82,"Velocity":58,"Duration":887639,"SoundDuration":887639,"Delta":302949116},{"NoteNumber":53,"Velocity":38,"Duration":221909,"SoundDuration":221909,"Delta":302949116},{"NoteNumber":62,"Velocity":38,"Duration":221910,"SoundDuration":221910,"Delta":303171026},{"NoteNumber":58,"Velocity":31,"Duration":221910,"SoundDuration":221910,"Delta":303171026},{"NoteNumber":50,"Velocity":48,"Duration":221909,"SoundDuration":221909,"Delta":303392936},{"NoteNumber":62,"Velocity":37,"Duration":221909,"SoundDuration":221909,"Delta":303614846},{"NoteNumber":58,"Velocity":31,"Duration":221909,"SoundDuration":221909,"Delta":303614846},{"NoteNumber":69,"Velocity":51,"Duration":447326,"SoundDuration":447326,"Delta":303836756},{"NoteNumber":81,"Velocity":61,"Duration":447326,"SoundDuration":447326,"Delta":303836756},{"NoteNumber":53,"Velocity":37,"Duration":223663,"SoundDuration":223663,"Delta":303836756},{"NoteNumber":62,"Velocity":37,"Duration":223663,"SoundDuration":223663,"Delta":304060420},{"NoteNumber":58,"Velocity":31,"Duration":223663,"SoundDuration":223663,"Delta":304060420},{"NoteNumber":69,"Velocity":51,"Duration":218515,"SoundDuration":218515,"Delta":304284083},{"NoteNumber":81,"Velocity":61,"Duration":218515,"SoundDuration":218515,"Delta":304284083},{"NoteNumber":51,"Velocity":50,"Duration":218515,"SoundDuration":218515,"Delta":304284083},{"NoteNumber":79,"Velocity":54,"Duration":218515,"SoundDuration":218515,"Delta":304502599},{"NoteNumber":67,"Velocity":46,"Duration":218515,"SoundDuration":218515,"Delta":304502599},{"NoteNumber":63,"Velocity":40,"Duration":218515,"SoundDuration":218515,"Delta":304502599},{"NoteNumber":60,"Velocity":34,"Duration":218515,"SoundDuration":218515,"Delta":304502599},{"NoteNumber":87,"Velocity":71,"Duration":447326,"SoundDuration":447326,"Delta":304721114},{"NoteNumber":75,"Velocity":59,"Duration":447326,"SoundDuration":447326,"Delta":304721114},{"NoteNumber":55,"Velocity":37,"Duration":223663,"SoundDuration":223663,"Delta":304721114},{"NoteNumber":63,"Velocity":37,"Duration":223663,"SoundDuration":223663,"Delta":304944778},{"NoteNumber":60,"Velocity":31,"Duration":223663,"SoundDuration":223663,"Delta":304944778},{"NoteNumber":86,"Velocity":63,"Duration":447327,"SoundDuration":447327,"Delta":305168441},{"NoteNumber":74,"Velocity":52,"Duration":447327,"SoundDuration":447327,"Delta":305168441},{"NoteNumber":53,"Velocity":44,"Duration":223663,"SoundDuration":223663,"Delta":305168441},{"NoteNumber":62,"Velocity":34,"Duration":223663,"SoundDuration":223663,"Delta":305392105},{"NoteNumber":58,"Velocity":28,"Duration":223663,"SoundDuration":223663,"Delta":305392105},{"NoteNumber":84,"Velocity":53,"Duration":447326,"SoundDuration":447326,"Delta":305615768},{"NoteNumber":72,"Velocity":45,"Duration":447326,"SoundDuration":447326,"Delta":305615768},{"NoteNumber":53,"Velocity":34,"Duration":223663,"SoundDuration":223663,"Delta":305615768},{"NoteNumber":63,"Velocity":34,"Duration":223663,"SoundDuration":223663,"Delta":305839432},{"NoteNumber":57,"Velocity":28,"Duration":223663,"SoundDuration":223663,"Delta":305839432},{"NoteNumber":70,"Velocity":44,"Duration":223663,"SoundDuration":223663,"Delta":306063095},{"NoteNumber":82,"Velocity":53,"Duration":223663,"SoundDuration":223663,"Delta":306063095},{"NoteNumber":46,"Velocity":38,"Duration":223663,"SoundDuration":223663,"Delta":306063095},{"NoteNumber":62,"Velocity":30,"Duration":223663,"SoundDuration":223663,"Delta":306286759},{"NoteNumber":58,"Velocity":25,"Duration":223663,"SoundDuration":223663,"Delta":306286759},{"NoteNumber":74,"Velocity":46,"Duration":109257,"SoundDuration":109257,"Delta":306510422},{"NoteNumber":50,"Velocity":30,"Duration":218515,"SoundDuration":218515,"Delta":306510422},{"NoteNumber":74,"Velocity":48,"Duration":109257,"SoundDuration":109257,"Delta":306656099},{"NoteNumber":62,"Velocity":30,"Duration":218515,"SoundDuration":218515,"Delta":306728938},{"NoteNumber":58,"Velocity":25,"Duration":218515,"SoundDuration":218515,"Delta":306728938},{"NoteNumber":74,"Velocity":50,"Duration":109257,"SoundDuration":109257,"Delta":306801776},{"NoteNumber":74,"Velocity":51,"Duration":109257,"SoundDuration":109257,"Delta":306947453},{"NoteNumber":53,"Velocity":36,"Duration":218515,"SoundDuration":218515,"Delta":306947453},{"NoteNumber":74,"Velocity":49,"Duration":109257,"SoundDuration":109257,"Delta":307093130},{"NoteNumber":62,"Velocity":30,"Duration":218515,"SoundDuration":218515,"Delta":307165969},{"NoteNumber":58,"Velocity":25,"Duration":218515,"SoundDuration":218515,"Delta":307165969},{"NoteNumber":74,"Velocity":47,"Duration":109257,"SoundDuration":109257,"Delta":307238807},{"NoteNumber":74,"Velocity":51,"Duration":112266,"SoundDuration":112266,"Delta":307384484},{"NoteNumber":54,"Velocity":30,"Duration":224534,"SoundDuration":224534,"Delta":307384484},{"NoteNumber":72,"Velocity":46,"Duration":112267,"SoundDuration":112267,"Delta":307496751},{"NoteNumber":74,"Velocity":47,"Duration":112266,"SoundDuration":112266,"Delta":307609018},{"NoteNumber":62,"Velocity":31,"Duration":224534,"SoundDuration":224534,"Delta":307609018},{"NoteNumber":60,"Velocity":26,"Duration":224534,"SoundDuration":224534,"Delta":307609018},{"NoteNumber":75,"Velocity":47,"Duration":112267,"SoundDuration":112267,"Delta":307721285},{"NoteNumber":74,"Velocity":53,"Duration":238625,"SoundDuration":238625,"Delta":307833552},{"NoteNumber":62,"Velocity":34,"Duration":238625,"SoundDuration":238625,"Delta":307833552},{"NoteNumber":59,"Velocity":29,"Duration":238625,"SoundDuration":238625,"Delta":307833552},{"NoteNumber":55,"Velocity":29,"Duration":238625,"SoundDuration":238625,"Delta":307833552},{"NoteNumber":55,"Velocity":78,"Duration":1323125,"SoundDuration":1323125,"Delta":308310803},{"NoteNumber":67,"Velocity":94,"Duration":1323125,"SoundDuration":1323125,"Delta":308310803},{"NoteNumber":86,"Velocity":52,"Duration":113156,"SoundDuration":113156,"Delta":309407616},{"NoteNumber":84,"Velocity":63,"Duration":216029,"SoundDuration":216029,"Delta":309633928},{"NoteNumber":55,"Velocity":42,"Duration":216029,"SoundDuration":216029,"Delta":309633928},{"NoteNumber":83,"Velocity":37,"Duration":108014,"SoundDuration":108014,"Delta":309849958},{"NoteNumber":67,"Velocity":31,"Duration":108014,"SoundDuration":108014,"Delta":309849958},{"NoteNumber":83,"Velocity":43,"Duration":109681,"SoundDuration":109681,"Delta":310065987},{"NoteNumber":65,"Velocity":31,"Duration":109681,"SoundDuration":109681,"Delta":310065987},{"NoteNumber":62,"Velocity":26,"Duration":109681,"SoundDuration":109681,"Delta":310065987},{"NoteNumber":83,"Velocity":37,"Duration":111391,"SoundDuration":111391,"Delta":310285350},{"NoteNumber":67,"Velocity":32,"Duration":111391,"SoundDuration":111391,"Delta":310285350},{"NoteNumber":83,"Velocity":55,"Duration":105618,"SoundDuration":105618,"Delta":310508133},{"NoteNumber":55,"Velocity":44,"Duration":220605,"SoundDuration":220605,"Delta":310508133},{"NoteNumber":84,"Velocity":49,"Duration":114986,"SoundDuration":114986,"Delta":310613752},{"NoteNumber":91,"Velocity":59,"Duration":215223,"SoundDuration":215223,"Delta":310728739},{"NoteNumber":67,"Velocity":31,"Duration":215223,"SoundDuration":215223,"Delta":310728739},{"NoteNumber":89,"Velocity":50,"Duration":108428,"SoundDuration":108428,"Delta":310943962},{"NoteNumber":60,"Velocity":29,"Duration":216857,"SoundDuration":216857,"Delta":310943962},{"NoteNumber":63,"Velocity":35,"Duration":216857,"SoundDuration":216857,"Delta":310943962},{"NoteNumber":87,"Velocity":45,"Duration":108428,"SoundDuration":108428,"Delta":311052391},{"NoteNumber":86,"Velocity":45,"Duration":112266,"SoundDuration":112266,"Delta":311160819},{"NoteNumber":67,"Velocity":32,"Duration":224534,"SoundDuration":224534,"Delta":311160819},{"NoteNumber":84,"Velocity":45,"Duration":112267,"SoundDuration":112267,"Delta":311273086},{"NoteNumber":84,"Velocity":63,"Duration":216029,"SoundDuration":216029,"Delta":311385353},{"NoteNumber":55,"Velocity":42,"Duration":216029,"SoundDuration":216029,"Delta":311385353},{"NoteNumber":83,"Velocity":37,"Duration":108014,"SoundDuration":108014,"Delta":311601383},{"NoteNumber":67,"Velocity":31,"Duration":108014,"SoundDuration":108014,"Delta":311601383},{"NoteNumber":83,"Velocity":44,"Duration":109257,"SoundDuration":109257,"Delta":311817412},{"NoteNumber":65,"Velocity":31,"Duration":109257,"SoundDuration":109257,"Delta":311817412},{"NoteNumber":62,"Velocity":26,"Duration":109257,"SoundDuration":109257,"Delta":311817412},{"NoteNumber":83,"Velocity":37,"Duration":112266,"SoundDuration":112266,"Delta":312035928},{"NoteNumber":67,"Velocity":29,"Duration":112266,"SoundDuration":112266,"Delta":312035928},{"NoteNumber":83,"Velocity":57,"Duration":219362,"SoundDuration":219362,"Delta":312260462},{"NoteNumber":55,"Velocity":44,"Duration":219362,"SoundDuration":219362,"Delta":312260462},{"NoteNumber":84,"Velocity":47,"Duration":109681,"SoundDuration":109681,"Delta":312479824},{"NoteNumber":67,"Velocity":32,"Duration":109681,"SoundDuration":109681,"Delta":312479824},{"NoteNumber":54,"Velocity":29,"Duration":109681,"SoundDuration":109681,"Delta":312699187},{"NoteNumber":60,"Velocity":29,"Duration":109681,"SoundDuration":109681,"Delta":312699187},{"NoteNumber":63,"Velocity":35,"Duration":109681,"SoundDuration":109681,"Delta":312699187},{"NoteNumber":87,"Velocity":54,"Duration":223663,"SoundDuration":223663,"Delta":312918549},{"NoteNumber":66,"Velocity":35,"Duration":223663,"SoundDuration":223663,"Delta":312918549},{"NoteNumber":84,"Velocity":63,"Duration":215223,"SoundDuration":215223,"Delta":313142213},{"NoteNumber":53,"Velocity":42,"Duration":215223,"SoundDuration":215223,"Delta":313142213},{"NoteNumber":82,"Velocity":52,"Duration":107611,"SoundDuration":107611,"Delta":313357436},{"NoteNumber":65,"Velocity":35,"Duration":107611,"SoundDuration":107611,"Delta":313357436},{"NoteNumber":82,"Velocity":54,"Duration":109681,"SoundDuration":109681,"Delta":313572660},{"NoteNumber":62,"Velocity":35,"Duration":109681,"SoundDuration":109681,"Delta":313572660},{"NoteNumber":82,"Velocity":54,"Duration":109681,"SoundDuration":109681,"Delta":313792022},{"NoteNumber":65,"Velocity":36,"Duration":109681,"SoundDuration":109681,"Delta":313792022},{"NoteNumber":84,"Velocity":63,"Duration":216029,"SoundDuration":216029,"Delta":314011385},{"NoteNumber":55,"Velocity":42,"Duration":216029,"SoundDuration":216029,"Delta":314011385},{"NoteNumber":82,"Velocity":53,"Duration":108014,"SoundDuration":108014,"Delta":314227414},{"NoteNumber":64,"Velocity":36,"Duration":108014,"SoundDuration":108014,"Delta":314227414},{"NoteNumber":82,"Velocity":55,"Duration":109681,"SoundDuration":109681,"Delta":314443444},{"NoteNumber":60,"Velocity":36,"Duration":109681,"SoundDuration":109681,"Delta":314443444},{"NoteNumber":82,"Velocity":55,"Duration":109681,"SoundDuration":109681,"Delta":314662806},{"NoteNumber":64,"Velocity":36,"Duration":109681,"SoundDuration":109681,"Delta":314662806},{"NoteNumber":79,"Velocity":63,"Duration":107611,"SoundDuration":107611,"Delta":314882169},{"NoteNumber":62,"Velocity":42,"Duration":215223,"SoundDuration":215223,"Delta":314882169},{"NoteNumber":53,"Velocity":35,"Duration":215223,"SoundDuration":215223,"Delta":314882169},{"NoteNumber":77,"Velocity":52,"Duration":107611,"SoundDuration":107611,"Delta":314989781},{"NoteNumber":76,"Velocity":53,"Duration":107611,"SoundDuration":107611,"Delta":315097392},{"NoteNumber":65,"Velocity":33,"Duration":215223,"SoundDuration":215223,"Delta":315097392},{"NoteNumber":77,"Velocity":53,"Duration":107611,"SoundDuration":107611,"Delta":315205004},{"NoteNumber":75,"Velocity":58,"Duration":110954,"SoundDuration":110954,"Delta":315312616},{"NoteNumber":57,"Velocity":35,"Duration":110954,"SoundDuration":110954,"Delta":315312616},{"NoteNumber":53,"Velocity":29,"Duration":110954,"SoundDuration":110954,"Delta":315312616},{"NoteNumber":72,"Velocity":54,"Duration":114068,"SoundDuration":114068,"Delta":315534526},{"NoteNumber":63,"Velocity":34,"Duration":114068,"SoundDuration":114068,"Delta":315534526},{"NoteNumber":70,"Velocity":58,"Duration":110529,"SoundDuration":110529,"Delta":315762663},{"NoteNumber":62,"Velocity":42,"Duration":221059,"SoundDuration":221059,"Delta":315762663},{"NoteNumber":58,"Velocity":42,"Duration":221059,"SoundDuration":221059,"Delta":315762663},{"NoteNumber":74,"Velocity":55,"Duration":107611,"SoundDuration":107611,"Delta":315983722},{"NoteNumber":65,"Velocity":38,"Duration":215223,"SoundDuration":215223,"Delta":315983722},{"NoteNumber":77,"Velocity":55,"Duration":109681,"SoundDuration":109681,"Delta":316198946},{"NoteNumber":62,"Velocity":38,"Duration":219362,"SoundDuration":219362,"Delta":316198946},{"NoteNumber":82,"Velocity":55,"Duration":112266,"SoundDuration":112266,"Delta":316418308},{"NoteNumber":58,"Velocity":38,"Duration":224534,"SoundDuration":224534,"Delta":316418308},{"NoteNumber":86,"Velocity":60,"Duration":224534,"SoundDuration":224534,"Delta":316642842},{"NoteNumber":55,"Velocity":43,"Duration":224534,"SoundDuration":224534,"Delta":316642842},{"NoteNumber":84,"Velocity":58,"Duration":110954,"SoundDuration":110954,"Delta":316867376},{"NoteNumber":64,"Velocity":37,"Duration":110954,"SoundDuration":110954,"Delta":316867376},{"NoteNumber":84,"Velocity":61,"Duration":110955,"SoundDuration":110955,"Delta":317089286},{"NoteNumber":58,"Velocity":39,"Duration":221910,"SoundDuration":221910,"Delta":317089286},{"NoteNumber":84,"Velocity":58,"Duration":110954,"SoundDuration":110954,"Delta":317311196},{"NoteNumber":64,"Velocity":42,"Duration":221909,"SoundDuration":221909,"Delta":317311196},{"NoteNumber":79,"Velocity":63,"Duration":107611,"SoundDuration":107611,"Delta":317533106},{"NoteNumber":53,"Velocity":35,"Duration":215223,"SoundDuration":215223,"Delta":317533106},{"NoteNumber":77,"Velocity":52,"Duration":107611,"SoundDuration":107611,"Delta":317640718},{"NoteNumber":76,"Velocity":53,"Duration":107611,"SoundDuration":107611,"Delta":317748330},{"NoteNumber":65,"Velocity":33,"Duration":215223,"SoundDuration":215223,"Delta":317748330},{"NoteNumber":77,"Velocity":53,"Duration":107611,"SoundDuration":107611,"Delta":317855942},{"NoteNumber":72,"Velocity":58,"Duration":110954,"SoundDuration":110954,"Delta":317963553},{"NoteNumber":57,"Velocity":35,"Duration":110954,"SoundDuration":110954,"Delta":317963553},{"NoteNumber":69,"Velocity":54,"Duration":113156,"SoundDuration":113156,"Delta":318185463},{"NoteNumber":65,"Velocity":34,"Duration":113156,"SoundDuration":113156,"Delta":318185463},{"NoteNumber":86,"Velocity":65,"Duration":218515,"SoundDuration":218515,"Delta":318411776},{"NoteNumber":55,"Velocity":43,"Duration":218515,"SoundDuration":218515,"Delta":318411776},{"NoteNumber":84,"Velocity":58,"Duration":111831,"SoundDuration":111831,"Delta":318630291},{"NoteNumber":64,"Velocity":35,"Duration":111831,"SoundDuration":111831,"Delta":318630291},{"NoteNumber":84,"Velocity":61,"Duration":111831,"SoundDuration":111831,"Delta":318853955},{"NoteNumber":58,"Velocity":35,"Duration":223663,"SoundDuration":223663,"Delta":318853955},{"NoteNumber":84,"Velocity":58,"Duration":111831,"SoundDuration":111831,"Delta":319077618},{"NoteNumber":64,"Velocity":36,"Duration":223663,"SoundDuration":223663,"Delta":319077618},{"NoteNumber":79,"Velocity":63,"Duration":107611,"SoundDuration":107611,"Delta":319301282},{"NoteNumber":53,"Velocity":29,"Duration":430447,"SoundDuration":430447,"Delta":319301282},{"NoteNumber":57,"Velocity":29,"Duration":430447,"SoundDuration":430447,"Delta":319301282},{"NoteNumber":65,"Velocity":35,"Duration":430447,"SoundDuration":430447,"Delta":319301282},{"NoteNumber":77,"Velocity":52,"Duration":107611,"SoundDuration":107611,"Delta":319408894},{"NoteNumber":76,"Velocity":53,"Duration":107611,"SoundDuration":107611,"Delta":319516505},{"NoteNumber":77,"Velocity":53,"Duration":107611,"SoundDuration":107611,"Delta":319624117},{"NoteNumber":72,"Velocity":58,"Duration":110954,"SoundDuration":110954,"Delta":319731729},{"NoteNumber":69,"Velocity":54,"Duration":114068,"SoundDuration":114068,"Delta":319953639},{"NoteNumber":65,"Velocity":46,"Duration":115384,"SoundDuration":115384,"Delta":320181776},{"NoteNumber":60,"Velocity":39,"Duration":115384,"SoundDuration":115384,"Delta":320412545},{"NoteNumber":57,"Velocity":43,"Duration":118110,"SoundDuration":118110,"Delta":320643314},{"NoteNumber":55,"Velocity":47,"Duration":118110,"SoundDuration":118110,"Delta":320879534},{"NoteNumber":53,"Velocity":50,"Duration":120481,"SoundDuration":120481,"Delta":321116546},{"NoteNumber":69,"Velocity":52,"Duration":124654,"SoundDuration":124654,"Delta":321357510},{"NoteNumber":72,"Velocity":52,"Duration":124654,"SoundDuration":124654,"Delta":321357510},{"NoteNumber":77,"Velocity":52,"Duration":124654,"SoundDuration":124654,"Delta":321357510},{"NoteNumber":51,"Velocity":46,"Duration":124654,"SoundDuration":124654,"Delta":321357510},{"NoteNumber":69,"Velocity":52,"Duration":127120,"SoundDuration":127120,"Delta":321608216},{"NoteNumber":74,"Velocity":52,"Duration":127120,"SoundDuration":127120,"Delta":321608216},{"NoteNumber":77,"Velocity":52,"Duration":127120,"SoundDuration":127120,"Delta":321608216},{"NoteNumber":50,"Velocity":43,"Duration":127120,"SoundDuration":127120,"Delta":321608216},{"NoteNumber":69,"Velocity":52,"Duration":129871,"SoundDuration":129871,"Delta":321864093},{"NoteNumber":75,"Velocity":52,"Duration":129871,"SoundDuration":129871,"Delta":321864093},{"NoteNumber":77,"Velocity":52,"Duration":129871,"SoundDuration":129871,"Delta":321864093},{"NoteNumber":48,"Velocity":39,"Duration":129871,"SoundDuration":129871,"Delta":321864093},{"NoteNumber":77,"Velocity":52,"Duration":506528,"SoundDuration":506528,"Delta":322125545},{"NoteNumber":74,"Velocity":34,"Duration":128398,"SoundDuration":128398,"Delta":322257710},{"NoteNumber":70,"Velocity":33,"Duration":124662,"SoundDuration":124662,"Delta":322386108},{"NoteNumber":34,"Velocity":33,"Duration":124662,"SoundDuration":124662,"Delta":322386108},{"NoteNumber":74,"Velocity":33,"Duration":121302,"SoundDuration":121302,"Delta":322510771},{"NoteNumber":82,"Velocity":53,"Duration":465533,"SoundDuration":465533,"Delta":322632073},{"NoteNumber":74,"Velocity":39,"Duration":115551,"SoundDuration":115551,"Delta":322750037},{"NoteNumber":70,"Velocity":39,"Duration":116009,"SoundDuration":116009,"Delta":322865588},{"NoteNumber":46,"Velocity":33,"Duration":116009,"SoundDuration":116009,"Delta":322865588},{"NoteNumber":74,"Velocity":39,"Duration":116009,"SoundDuration":116009,"Delta":322981598},{"NoteNumber":77,"Velocity":52,"Duration":116792,"SoundDuration":116792,"Delta":323097607},{"NoteNumber":81,"Velocity":52,"Duration":462085,"SoundDuration":462085,"Delta":323097607},{"NoteNumber":74,"Velocity":38,"Duration":116013,"SoundDuration":116013,"Delta":323214399},{"NoteNumber":69,"Velocity":38,"Duration":115093,"SoundDuration":115093,"Delta":323330413},{"NoteNumber":50,"Velocity":33,"Duration":115093,"SoundDuration":115093,"Delta":323330413},{"NoteNumber":74,"Velocity":38,"Duration":114185,"SoundDuration":114185,"Delta":323445507},{"NoteNumber":75,"Velocity":51,"Duration":114034,"SoundDuration":114034,"Delta":323559692},{"NoteNumber":79,"Velocity":51,"Duration":459619,"SoundDuration":459619,"Delta":323559692},{"NoteNumber":70,"Velocity":34,"Duration":114787,"SoundDuration":114787,"Delta":323673726},{"NoteNumber":67,"Velocity":34,"Duration":115399,"SoundDuration":115399,"Delta":323788513},{"NoteNumber":51,"Velocity":33,"Duration":115399,"SoundDuration":115399,"Delta":323788513},{"NoteNumber":70,"Velocity":34,"Duration":115398,"SoundDuration":115398,"Delta":323903913},{"NoteNumber":74,"Velocity":51,"Duration":115553,"SoundDuration":115553,"Delta":324019311},{"NoteNumber":79,"Velocity":51,"Duration":459163,"SoundDuration":459163,"Delta":324019311},{"NoteNumber":70,"Velocity":35,"Duration":115092,"SoundDuration":115092,"Delta":324134865},{"NoteNumber":67,"Velocity":35,"Duration":114483,"SoundDuration":114483,"Delta":324249957},{"NoteNumber":55,"Velocity":33,"Duration":228517,"SoundDuration":228517,"Delta":324249957},{"NoteNumber":70,"Velocity":35,"Duration":114034,"SoundDuration":114034,"Delta":324364441},{"NoteNumber":74,"Velocity":49,"Duration":113441,"SoundDuration":113441,"Delta":324478475},{"NoteNumber":77,"Velocity":49,"Duration":456001,"SoundDuration":456001,"Delta":324478475},{"NoteNumber":70,"Velocity":35,"Duration":113590,"SoundDuration":113590,"Delta":324591917},{"NoteNumber":65,"Velocity":35,"Duration":114181,"SoundDuration":114181,"Delta":324705508},{"NoteNumber":58,"Velocity":33,"Duration":228968,"SoundDuration":228968,"Delta":324705508},{"NoteNumber":70,"Velocity":35,"Duration":114787,"SoundDuration":114787,"Delta":324819689},{"NoteNumber":74,"Velocity":50,"Duration":113739,"SoundDuration":113739,"Delta":324934477},{"NoteNumber":77,"Velocity":50,"Duration":452735,"SoundDuration":452735,"Delta":324934477},{"NoteNumber":69,"Velocity":36,"Duration":113441,"SoundDuration":113441,"Delta":325048216},{"NoteNumber":65,"Velocity":36,"Duration":112997,"SoundDuration":112997,"Delta":325161658},{"NoteNumber":62,"Velocity":33,"Duration":225554,"SoundDuration":225554,"Delta":325161658},{"NoteNumber":69,"Velocity":36,"Duration":112556,"SoundDuration":112556,"Delta":325274656},{"NoteNumber":72,"Velocity":49,"Duration":115553,"SoundDuration":115553,"Delta":325387212},{"NoteNumber":75,"Velocity":49,"Duration":460559,"SoundDuration":460559,"Delta":325387212},{"NoteNumber":69,"Velocity":34,"Duration":115553,"SoundDuration":115553,"Delta":325502766},{"NoteNumber":63,"Velocity":34,"Duration":115553,"SoundDuration":115553,"Delta":325618319},{"NoteNumber":41,"Velocity":33,"Duration":229452,"SoundDuration":229452,"Delta":325618319},{"NoteNumber":69,"Velocity":34,"Duration":113898,"SoundDuration":113898,"Delta":325733873},{"NoteNumber":70,"Velocity":50,"Duration":112849,"SoundDuration":112849,"Delta":325847772},{"NoteNumber":75,"Velocity":50,"Duration":453620,"SoundDuration":453620,"Delta":325847772},{"NoteNumber":67,"Velocity":35,"Duration":113292,"SoundDuration":113292,"Delta":325960621},{"NoteNumber":63,"Velocity":35,"Duration":113590,"SoundDuration":113590,"Delta":326073914},{"NoteNumber":43,"Velocity":33,"Duration":227477,"SoundDuration":227477,"Delta":326073914},{"NoteNumber":67,"Velocity":35,"Duration":113886,"SoundDuration":113886,"Delta":326187505},{"NoteNumber":70,"Velocity":49,"Duration":114181,"SoundDuration":114181,"Delta":326301392},{"NoteNumber":74,"Velocity":49,"Duration":459002,"SoundDuration":459002,"Delta":326301392},{"NoteNumber":67,"Velocity":35,"Duration":114635,"SoundDuration":114635,"Delta":326415573},{"NoteNumber":62,"Velocity":35,"Duration":114939,"SoundDuration":114939,"Delta":326530208},{"NoteNumber":46,"Velocity":33,"Duration":230186,"SoundDuration":230186,"Delta":326530208},{"NoteNumber":67,"Velocity":35,"Duration":115246,"SoundDuration":115246,"Delta":326645148},{"NoteNumber":69,"Velocity":48,"Duration":116009,"SoundDuration":116009,"Delta":326760395},{"NoteNumber":74,"Velocity":48,"Duration":463125,"SoundDuration":463125,"Delta":326760395},{"NoteNumber":66,"Velocity":36,"Duration":116009,"SoundDuration":116009,"Delta":326876404},{"NoteNumber":62,"Velocity":36,"Duration":115553,"SoundDuration":115553,"Delta":326992413},{"NoteNumber":50,"Velocity":33,"Duration":231107,"SoundDuration":231107,"Delta":326992413},{"NoteNumber":66,"Velocity":36,"Duration":115553,"SoundDuration":115553,"Delta":327107967},{"NoteNumber":72,"Velocity":47,"Duration":460374,"SoundDuration":460374,"Delta":327223520},{"NoteNumber":69,"Velocity":35,"Duration":114939,"SoundDuration":114939,"Delta":327338155},{"NoteNumber":62,"Velocity":35,"Duration":115246,"SoundDuration":115246,"Delta":327453095},{"NoteNumber":54,"Velocity":33,"Duration":230799,"SoundDuration":230799,"Delta":327453095},{"NoteNumber":69,"Velocity":35,"Duration":115553,"SoundDuration":115553,"Delta":327568341},{"NoteNumber":72,"Velocity":48,"Duration":457632,"SoundDuration":457632,"Delta":327683895},{"NoteNumber":67,"Velocity":38,"Duration":114634,"SoundDuration":114634,"Delta":327798530},{"NoteNumber":62,"Velocity":42,"Duration":114181,"SoundDuration":114181,"Delta":327913165},{"NoteNumber":55,"Velocity":33,"Duration":114181,"SoundDuration":114181,"Delta":327913165},{"NoteNumber":67,"Velocity":45,"Duration":114181,"SoundDuration":114181,"Delta":328027346},{"NoteNumber":70,"Velocity":52,"Duration":453917,"SoundDuration":453917,"Delta":328141527},{"NoteNumber":57,"Velocity":33,"Duration":113739,"SoundDuration":113739,"Delta":328141527},{"NoteNumber":67,"Velocity":39,"Duration":113739,"SoundDuration":113739,"Delta":328255267},{"NoteNumber":62,"Velocity":39,"Duration":113292,"SoundDuration":113292,"Delta":328369007},{"NoteNumber":58,"Velocity":33,"Duration":113292,"SoundDuration":113292,"Delta":328369007},{"NoteNumber":67,"Velocity":39,"Duration":113145,"SoundDuration":113145,"Delta":328482300},{"NoteNumber":69,"Velocity":49,"Duration":453171,"SoundDuration":453171,"Delta":328595445},{"NoteNumber":60,"Velocity":33,"Duration":226585,"SoundDuration":226585,"Delta":328595445},{"NoteNumber":65,"Velocity":35,"Duration":113292,"SoundDuration":113292,"Delta":328708738},{"NoteNumber":60,"Velocity":35,"Duration":113292,"SoundDuration":113292,"Delta":328822031},{"NoteNumber":65,"Velocity":35,"Duration":113292,"SoundDuration":113292,"Delta":328935324},{"NoteNumber":67,"Velocity":47,"Duration":453171,"SoundDuration":453171,"Delta":329048617},{"NoteNumber":48,"Velocity":33,"Duration":226585,"SoundDuration":226585,"Delta":329048617},{"NoteNumber":64,"Velocity":33,"Duration":113292,"SoundDuration":113292,"Delta":329161910},{"NoteNumber":58,"Velocity":33,"Duration":113292,"SoundDuration":113292,"Delta":329275203},{"NoteNumber":64,"Velocity":33,"Duration":113292,"SoundDuration":113292,"Delta":329388496},{"NoteNumber":57,"Velocity":33,"Duration":114635,"SoundDuration":114635,"Delta":329501789},{"NoteNumber":41,"Velocity":33,"Duration":114635,"SoundDuration":114635,"Delta":329501789},{"NoteNumber":53,"Velocity":33,"Duration":114635,"SoundDuration":114635,"Delta":329501789},{"NoteNumber":65,"Velocity":46,"Duration":114635,"SoundDuration":114635,"Delta":329501789},{"NoteNumber":60,"Velocity":39,"Duration":115246,"SoundDuration":115246,"Delta":329731364},{"NoteNumber":57,"Velocity":43,"Duration":115705,"SoundDuration":115705,"Delta":329962164},{"NoteNumber":55,"Velocity":47,"Duration":116635,"SoundDuration":116635,"Delta":330193726},{"NoteNumber":53,"Velocity":50,"Duration":114181,"SoundDuration":114181,"Delta":330427623},{"NoteNumber":69,"Velocity":52,"Duration":120969,"SoundDuration":120969,"Delta":330655985},{"NoteNumber":72,"Velocity":52,"Duration":120969,"SoundDuration":120969,"Delta":330655985},{"NoteNumber":77,"Velocity":52,"Duration":120969,"SoundDuration":120969,"Delta":330655985},{"NoteNumber":51,"Velocity":46,"Duration":120969,"SoundDuration":120969,"Delta":330655985},{"NoteNumber":69,"Velocity":52,"Duration":123968,"SoundDuration":123968,"Delta":330899405},{"NoteNumber":74,"Velocity":52,"Duration":123968,"SoundDuration":123968,"Delta":330899405},{"NoteNumber":77,"Velocity":52,"Duration":123968,"SoundDuration":123968,"Delta":330899405},{"NoteNumber":50,"Velocity":43,"Duration":123968,"SoundDuration":123968,"Delta":330899405},{"NoteNumber":69,"Velocity":52,"Duration":127120,"SoundDuration":127120,"Delta":331148898},{"NoteNumber":75,"Velocity":52,"Duration":127120,"SoundDuration":127120,"Delta":331148898},{"NoteNumber":77,"Velocity":52,"Duration":127120,"SoundDuration":127120,"Delta":331148898},{"NoteNumber":48,"Velocity":39,"Duration":127120,"SoundDuration":127120,"Delta":331148898},{"NoteNumber":77,"Velocity":52,"Duration":496271,"SoundDuration":496271,"Delta":331404961},{"NoteNumber":74,"Velocity":37,"Duration":125528,"SoundDuration":125528,"Delta":331533723},{"NoteNumber":70,"Velocity":37,"Duration":122454,"SoundDuration":122454,"Delta":331659252},{"NoteNumber":34,"Velocity":33,"Duration":241981,"SoundDuration":241981,"Delta":331659252},{"NoteNumber":74,"Velocity":37,"Duration":119527,"SoundDuration":119527,"Delta":331781706},{"NoteNumber":82,"Velocity":53,"Duration":463980,"SoundDuration":463980,"Delta":331901233},{"NoteNumber":74,"Velocity":40,"Duration":115551,"SoundDuration":115551,"Delta":332017644},{"NoteNumber":70,"Velocity":40,"Duration":116009,"SoundDuration":116009,"Delta":332133196},{"NoteNumber":46,"Velocity":33,"Duration":232018,"SoundDuration":232018,"Delta":332133196},{"NoteNumber":74,"Velocity":42,"Duration":116009,"SoundDuration":116009,"Delta":332249205},{"NoteNumber":77,"Velocity":52,"Duration":116792,"SoundDuration":116792,"Delta":332365214},{"NoteNumber":81,"Velocity":52,"Duration":462085,"SoundDuration":462085,"Delta":332365214},{"NoteNumber":74,"Velocity":38,"Duration":116013,"SoundDuration":116013,"Delta":332482007},{"NoteNumber":69,"Velocity":38,"Duration":115093,"SoundDuration":115093,"Delta":332598020},{"NoteNumber":50,"Velocity":33,"Duration":229278,"SoundDuration":229278,"Delta":332598020},{"NoteNumber":74,"Velocity":38,"Duration":114185,"SoundDuration":114185,"Delta":332713114},{"NoteNumber":75,"Velocity":51,"Duration":114034,"SoundDuration":114034,"Delta":332827299},{"NoteNumber":79,"Velocity":51,"Duration":459619,"SoundDuration":459619,"Delta":332827299},{"NoteNumber":70,"Velocity":34,"Duration":114787,"SoundDuration":114787,"Delta":332941333},{"NoteNumber":67,"Velocity":34,"Duration":115399,"SoundDuration":115399,"Delta":333056121},{"NoteNumber":51,"Velocity":33,"Duration":230797,"SoundDuration":230797,"Delta":333056121},{"NoteNumber":70,"Velocity":34,"Duration":115398,"SoundDuration":115398,"Delta":333171521},{"NoteNumber":74,"Velocity":48,"Duration":115553,"SoundDuration":115553,"Delta":333286919},{"NoteNumber":79,"Velocity":48,"Duration":459163,"SoundDuration":459163,"Delta":333286919},{"NoteNumber":70,"Velocity":37,"Duration":115092,"SoundDuration":115092,"Delta":333402472},{"NoteNumber":67,"Velocity":37,"Duration":114483,"SoundDuration":114483,"Delta":333517565},{"NoteNumber":55,"Velocity":33,"Duration":228517,"SoundDuration":228517,"Delta":333517565},{"NoteNumber":70,"Velocity":37,"Duration":114034,"SoundDuration":114034,"Delta":333632048},{"NoteNumber":74,"Velocity":49,"Duration":113441,"SoundDuration":113441,"Delta":333746083},{"NoteNumber":77,"Velocity":49,"Duration":456001,"SoundDuration":456001,"Delta":333746083},{"NoteNumber":70,"Velocity":35,"Duration":113590,"SoundDuration":113590,"Delta":333859524},{"NoteNumber":65,"Velocity":35,"Duration":114181,"SoundDuration":114181,"Delta":333973115},{"NoteNumber":58,"Velocity":33,"Duration":228968,"SoundDuration":228968,"Delta":333973115},{"NoteNumber":70,"Velocity":35,"Duration":114787,"SoundDuration":114787,"Delta":334087297},{"NoteNumber":74,"Velocity":49,"Duration":113739,"SoundDuration":113739,"Delta":334202084},{"NoteNumber":77,"Velocity":49,"Duration":452735,"SoundDuration":452735,"Delta":334202084},{"NoteNumber":69,"Velocity":36,"Duration":113441,"SoundDuration":113441,"Delta":334315824},{"NoteNumber":65,"Velocity":36,"Duration":112997,"SoundDuration":112997,"Delta":334429266},{"NoteNumber":62,"Velocity":33,"Duration":225554,"SoundDuration":225554,"Delta":334429266},{"NoteNumber":69,"Velocity":37,"Duration":112556,"SoundDuration":112556,"Delta":334542263},{"NoteNumber":72,"Velocity":49,"Duration":116949,"SoundDuration":116949,"Delta":334654820},{"NoteNumber":75,"Velocity":49,"Duration":465214,"SoundDuration":465214,"Delta":334654820},{"NoteNumber":69,"Velocity":35,"Duration":116950,"SoundDuration":116950,"Delta":334771770},{"NoteNumber":63,"Velocity":35,"Duration":116949,"SoundDuration":116949,"Delta":334888720},{"NoteNumber":41,"Velocity":33,"Duration":231314,"SoundDuration":231314,"Delta":334888720},{"NoteNumber":69,"Velocity":35,"Duration":114364,"SoundDuration":114364,"Delta":335005670},{"NoteNumber":70,"Velocity":50,"Duration":112849,"SoundDuration":112849,"Delta":335120034},{"NoteNumber":75,"Velocity":50,"Duration":453620,"SoundDuration":453620,"Delta":335120034},{"NoteNumber":67,"Velocity":36,"Duration":113292,"SoundDuration":113292,"Delta":335232884},{"NoteNumber":63,"Velocity":36,"Duration":113590,"SoundDuration":113590,"Delta":335346177},{"NoteNumber":43,"Velocity":33,"Duration":227477,"SoundDuration":227477,"Delta":335346177},{"NoteNumber":67,"Velocity":36,"Duration":113886,"SoundDuration":113886,"Delta":335459768},{"NoteNumber":70,"Velocity":49,"Duration":114181,"SoundDuration":114181,"Delta":335573655},{"NoteNumber":74,"Velocity":49,"Duration":459002,"SoundDuration":459002,"Delta":335573655},{"NoteNumber":67,"Velocity":36,"Duration":114635,"SoundDuration":114635,"Delta":335687836},{"NoteNumber":62,"Velocity":36,"Duration":114939,"SoundDuration":114939,"Delta":335802471},{"NoteNumber":46,"Velocity":33,"Duration":230186,"SoundDuration":230186,"Delta":335802471},{"NoteNumber":67,"Velocity":36,"Duration":115246,"SoundDuration":115246,"Delta":335917411},{"NoteNumber":69,"Velocity":48,"Duration":116009,"SoundDuration":116009,"Delta":336032657},{"NoteNumber":74,"Velocity":48,"Duration":463125,"SoundDuration":463125,"Delta":336032657},{"NoteNumber":66,"Velocity":36,"Duration":116009,"SoundDuration":116009,"Delta":336148666},{"NoteNumber":62,"Velocity":36,"Duration":115553,"SoundDuration":115553,"Delta":336264675},{"NoteNumber":50,"Velocity":33,"Duration":231107,"SoundDuration":231107,"Delta":336264675},{"NoteNumber":66,"Velocity":36,"Duration":115553,"SoundDuration":115553,"Delta":336380229},{"NoteNumber":72,"Velocity":47,"Duration":466336,"SoundDuration":466336,"Delta":336495782},{"NoteNumber":69,"Velocity":37,"Duration":114939,"SoundDuration":114939,"Delta":336610417},{"NoteNumber":62,"Velocity":37,"Duration":118380,"SoundDuration":118380,"Delta":336725357},{"NoteNumber":54,"Velocity":33,"Duration":236761,"SoundDuration":236761,"Delta":336725357},{"NoteNumber":69,"Velocity":37,"Duration":118380,"SoundDuration":118380,"Delta":336843738},{"NoteNumber":72,"Velocity":48,"Duration":457632,"SoundDuration":457632,"Delta":336962118},{"NoteNumber":69,"Velocity":38,"Duration":114634,"SoundDuration":114634,"Delta":337076753},{"NoteNumber":62,"Velocity":42,"Duration":114181,"SoundDuration":114181,"Delta":337191388},{"NoteNumber":55,"Velocity":33,"Duration":114181,"SoundDuration":114181,"Delta":337191388},{"NoteNumber":69,"Velocity":45,"Duration":114181,"SoundDuration":114181,"Delta":337305570},{"NoteNumber":71,"Velocity":52,"Duration":453917,"SoundDuration":453917,"Delta":337419751},{"NoteNumber":57,"Velocity":33,"Duration":113739,"SoundDuration":113739,"Delta":337419751},{"NoteNumber":67,"Velocity":43,"Duration":113739,"SoundDuration":113739,"Delta":337533491},{"NoteNumber":62,"Velocity":44,"Duration":113292,"SoundDuration":113292,"Delta":337647230},{"NoteNumber":59,"Velocity":33,"Duration":113292,"SoundDuration":113292,"Delta":337647230},{"NoteNumber":67,"Velocity":44,"Duration":113145,"SoundDuration":113145,"Delta":337760523},{"NoteNumber":69,"Velocity":49,"Duration":453767,"SoundDuration":453767,"Delta":337873669},{"NoteNumber":48,"Velocity":33,"Duration":226142,"SoundDuration":226142,"Delta":337873669},{"NoteNumber":67,"Velocity":40,"Duration":113145,"SoundDuration":113145,"Delta":337986666},{"NoteNumber":64,"Velocity":38,"Duration":113590,"SoundDuration":113590,"Delta":338099811},{"NoteNumber":67,"Velocity":36,"Duration":114034,"SoundDuration":114034,"Delta":338213402},{"NoteNumber":71,"Velocity":45,"Duration":469100,"SoundDuration":469100,"Delta":338327436},{"NoteNumber":50,"Velocity":33,"Duration":230825,"SoundDuration":230825,"Delta":338327436},{"NoteNumber":66,"Velocity":33,"Duration":116131,"SoundDuration":116131,"Delta":338442130},{"NoteNumber":62,"Velocity":33,"Duration":118111,"SoundDuration":118111,"Delta":338558262},{"NoteNumber":66,"Velocity":33,"Duration":120163,"SoundDuration":120163,"Delta":338676373},{"NoteNumber":67,"Velocity":43,"Duration":476844,"SoundDuration":476844,"Delta":338796536},{"NoteNumber":62,"Velocity":35,"Duration":117187,"SoundDuration":117187,"Delta":338923183},{"NoteNumber":59,"Velocity":35,"Duration":116731,"SoundDuration":116731,"Delta":339040370},{"NoteNumber":55,"Velocity":33,"Duration":233010,"SoundDuration":233010,"Delta":339040370},{"NoteNumber":62,"Velocity":35,"Duration":116279,"SoundDuration":116279,"Delta":339157102},{"NoteNumber":69,"Velocity":49,"Duration":460660,"SoundDuration":460660,"Delta":339273381},{"NoteNumber":64,"Velocity":35,"Duration":115384,"SoundDuration":115384,"Delta":339389211},{"NoteNumber":60,"Velocity":35,"Duration":114942,"SoundDuration":114942,"Delta":339504595},{"NoteNumber":48,"Velocity":33,"Duration":229446,"SoundDuration":229446,"Delta":339504595},{"NoteNumber":64,"Velocity":35,"Duration":114503,"SoundDuration":114503,"Delta":339619538},{"NoteNumber":71,"Velocity":49,"Duration":450337,"SoundDuration":450337,"Delta":339734042},{"NoteNumber":65,"Velocity":35,"Duration":112698,"SoundDuration":112698,"Delta":339845982},{"NoteNumber":62,"Velocity":36,"Duration":112849,"SoundDuration":112849,"Delta":339958680},{"NoteNumber":43,"Velocity":33,"Duration":225699,"SoundDuration":225699,"Delta":339958680},{"NoteNumber":65,"Velocity":36,"Duration":112849,"SoundDuration":112849,"Delta":340071530},{"NoteNumber":71,"Velocity":52,"Duration":458014,"SoundDuration":458014,"Delta":340184380},{"NoteNumber":65,"Velocity":38,"Duration":114503,"SoundDuration":114503,"Delta":340298883},{"NoteNumber":62,"Velocity":38,"Duration":114503,"SoundDuration":114503,"Delta":340413387},{"NoteNumber":43,"Velocity":36,"Duration":229007,"SoundDuration":229007,"Delta":340413387},{"NoteNumber":65,"Velocity":39,"Duration":114503,"SoundDuration":114503,"Delta":340527891},{"NoteNumber":71,"Velocity":56,"Duration":447761,"SoundDuration":447761,"Delta":340642395},{"NoteNumber":65,"Velocity":39,"Duration":111940,"SoundDuration":111940,"Delta":340754335},{"NoteNumber":62,"Velocity":39,"Duration":111940,"SoundDuration":111940,"Delta":340866275},{"NoteNumber":36,"Velocity":36,"Duration":223880,"SoundDuration":223880,"Delta":340866275},{"NoteNumber":65,"Velocity":38,"Duration":111940,"SoundDuration":111940,"Delta":340978215},{"NoteNumber":72,"Velocity":52,"Duration":451127,"SoundDuration":451127,"Delta":341090156},{"NoteNumber":67,"Velocity":37,"Duration":112782,"SoundDuration":112782,"Delta":341202938},{"NoteNumber":64,"Velocity":36,"Duration":112781,"SoundDuration":112781,"Delta":341315720},{"NoteNumber":36,"Velocity":34,"Duration":225563,"SoundDuration":225563,"Delta":341315720},{"NoteNumber":67,"Velocity":35,"Duration":112781,"SoundDuration":112781,"Delta":341428502},{"NoteNumber":71,"Velocity":49,"Duration":451128,"SoundDuration":451128,"Delta":341541284},{"NoteNumber":67,"Velocity":35,"Duration":112781,"SoundDuration":112781,"Delta":341654066},{"NoteNumber":62,"Velocity":35,"Duration":112781,"SoundDuration":112781,"Delta":341766848},{"NoteNumber":38,"Velocity":33,"Duration":225564,"SoundDuration":225564,"Delta":341766848},{"NoteNumber":67,"Velocity":35,"Duration":112782,"SoundDuration":112782,"Delta":341879630},{"NoteNumber":69,"Velocity":49,"Duration":455695,"SoundDuration":455695,"Delta":341992412},{"NoteNumber":66,"Velocity":35,"Duration":113441,"SoundDuration":113441,"Delta":342105239},{"NoteNumber":62,"Velocity":35,"Duration":114332,"SoundDuration":114332,"Delta":342218681},{"NoteNumber":38,"Velocity":33,"Duration":229426,"SoundDuration":229426,"Delta":342218681},{"NoteNumber":66,"Velocity":35,"Duration":115093,"SoundDuration":115093,"Delta":342333013},{"NoteNumber":71,"Velocity":47,"Duration":470231,"SoundDuration":470231,"Delta":342448107},{"NoteNumber":67,"Velocity":35,"Duration":115553,"SoundDuration":115553,"Delta":342572905},{"NoteNumber":65,"Velocity":35,"Duration":115169,"SoundDuration":115169,"Delta":342688458},{"NoteNumber":43,"Velocity":33,"Duration":229880,"SoundDuration":229880,"Delta":342688458},{"NoteNumber":67,"Velocity":35,"Duration":114711,"SoundDuration":114711,"Delta":342803627},{"NoteNumber":72,"Velocity":49,"Duration":455253,"SoundDuration":455253,"Delta":342918339},{"NoteNumber":69,"Velocity":35,"Duration":113960,"SoundDuration":113960,"Delta":343032747},{"NoteNumber":65,"Velocity":35,"Duration":113665,"SoundDuration":113665,"Delta":343146707},{"NoteNumber":55,"Velocity":33,"Duration":226884,"SoundDuration":226884,"Delta":343146707},{"NoteNumber":69,"Velocity":35,"Duration":113219,"SoundDuration":113219,"Delta":343260373},{"NoteNumber":74,"Velocity":49,"Duration":449298,"SoundDuration":449298,"Delta":343373592},{"NoteNumber":71,"Velocity":35,"Duration":112483,"SoundDuration":112483,"Delta":343486441},{"NoteNumber":65,"Velocity":36,"Duration":112053,"SoundDuration":112053,"Delta":343598925},{"NoteNumber":55,"Velocity":33,"Duration":223965,"SoundDuration":223965,"Delta":343598925},{"NoteNumber":71,"Velocity":36,"Duration":111911,"SoundDuration":111911,"Delta":343710978},{"NoteNumber":74,"Velocity":52,"Duration":460370,"SoundDuration":460370,"Delta":343822890},{"NoteNumber":71,"Velocity":38,"Duration":115092,"SoundDuration":115092,"Delta":343937982},{"NoteNumber":65,"Velocity":38,"Duration":115092,"SoundDuration":115092,"Delta":344053075},{"NoteNumber":55,"Velocity":36,"Duration":230185,"SoundDuration":230185,"Delta":344053075},{"NoteNumber":71,"Velocity":39,"Duration":115092,"SoundDuration":115092,"Delta":344168167},{"NoteNumber":74,"Velocity":56,"Duration":456725,"SoundDuration":456725,"Delta":344283260},{"NoteNumber":71,"Velocity":39,"Duration":114181,"SoundDuration":114181,"Delta":344397441},{"NoteNumber":65,"Velocity":39,"Duration":114181,"SoundDuration":114181,"Delta":344511622},{"NoteNumber":48,"Velocity":36,"Duration":228362,"SoundDuration":228362,"Delta":344511622},{"NoteNumber":71,"Velocity":38,"Duration":114181,"SoundDuration":114181,"Delta":344625804},{"NoteNumber":76,"Velocity":52,"Duration":453468,"SoundDuration":453468,"Delta":344739985},{"NoteNumber":72,"Velocity":37,"Duration":113292,"SoundDuration":113292,"Delta":344853574},{"NoteNumber":64,"Velocity":36,"Duration":113292,"SoundDuration":113292,"Delta":344966867},{"NoteNumber":48,"Velocity":34,"Duration":226585,"SoundDuration":226585,"Delta":344966867},{"NoteNumber":72,"Velocity":35,"Duration":113292,"SoundDuration":113292,"Delta":345080160},{"NoteNumber":74,"Velocity":49,"Duration":453171,"SoundDuration":453171,"Delta":345193453},{"NoteNumber":71,"Velocity":35,"Duration":113292,"SoundDuration":113292,"Delta":345306746},{"NoteNumber":67,"Velocity":35,"Duration":113292,"SoundDuration":113292,"Delta":345420039},{"NoteNumber":50,"Velocity":33,"Duration":226585,"SoundDuration":226585,"Delta":345420039},{"NoteNumber":71,"Velocity":35,"Duration":113292,"SoundDuration":113292,"Delta":345533332},{"NoteNumber":74,"Velocity":49,"Duration":463200,"SoundDuration":463200,"Delta":345646625},{"NoteNumber":69,"Velocity":35,"Duration":113441,"SoundDuration":113441,"Delta":345759622},{"NoteNumber":66,"Velocity":35,"Duration":118380,"SoundDuration":118380,"Delta":345873064},{"NoteNumber":50,"Velocity":33,"Duration":236761,"SoundDuration":236761,"Delta":345873064},{"NoteNumber":69,"Velocity":35,"Duration":118380,"SoundDuration":118380,"Delta":345991445},{"NoteNumber":74,"Velocity":42,"Duration":480176,"SoundDuration":480176,"Delta":346109825},{"NoteNumber":55,"Velocity":29,"Duration":2316521,"SoundDuration":2316521,"Delta":346109825},{"NoteNumber":71,"Velocity":31,"Duration":117896,"SoundDuration":117896,"Delta":346236472},{"NoteNumber":67,"Velocity":31,"Duration":117896,"SoundDuration":117896,"Delta":346354369},{"NoteNumber":71,"Velocity":31,"Duration":117736,"SoundDuration":117736,"Delta":346472265},{"NoteNumber":79,"Velocity":39,"Duration":459912,"SoundDuration":459912,"Delta":346590002},{"NoteNumber":59,"Velocity":29,"Duration":459912,"SoundDuration":459912,"Delta":346590002},{"NoteNumber":74,"Velocity":31,"Duration":115092,"SoundDuration":115092,"Delta":346705095},{"NoteNumber":67,"Velocity":31,"Duration":115092,"SoundDuration":115092,"Delta":346820187},{"NoteNumber":74,"Velocity":31,"Duration":114635,"SoundDuration":114635,"Delta":346935280},{"NoteNumber":78,"Velocity":44,"Duration":457481,"SoundDuration":457481,"Delta":347049915},{"NoteNumber":62,"Velocity":29,"Duration":457481,"SoundDuration":457481,"Delta":347049915},{"NoteNumber":74,"Velocity":31,"Duration":114483,"SoundDuration":114483,"Delta":347164550},{"NoteNumber":69,"Velocity":32,"Duration":114181,"SoundDuration":114181,"Delta":347279033},{"NoteNumber":74,"Velocity":32,"Duration":114181,"SoundDuration":114181,"Delta":347393215},{"NoteNumber":81,"Velocity":40,"Duration":462226,"SoundDuration":462226,"Delta":347507396},{"NoteNumber":60,"Velocity":32,"Duration":462226,"SoundDuration":462226,"Delta":347507396},{"NoteNumber":74,"Velocity":34,"Duration":116009,"SoundDuration":116009,"Delta":347623405},{"NoteNumber":69,"Velocity":33,"Duration":116009,"SoundDuration":116009,"Delta":347739414},{"NoteNumber":74,"Velocity":33,"Duration":114198,"SoundDuration":114198,"Delta":347855424},{"NoteNumber":74,"Velocity":39,"Duration":456725,"SoundDuration":456725,"Delta":347969622},{"NoteNumber":59,"Velocity":32,"Duration":456725,"SoundDuration":456725,"Delta":347969622},{"NoteNumber":71,"Velocity":32,"Duration":114181,"SoundDuration":114181,"Delta":348083803},{"NoteNumber":67,"Velocity":32,"Duration":114181,"SoundDuration":114181,"Delta":348197985},{"NoteNumber":71,"Velocity":32,"Duration":114181,"SoundDuration":114181,"Delta":348312166},{"NoteNumber":76,"Velocity":39,"Duration":462818,"SoundDuration":462818,"Delta":348426347},{"NoteNumber":48,"Velocity":30,"Duration":462818,"SoundDuration":462818,"Delta":348426347},{"NoteNumber":55,"Velocity":30,"Duration":462818,"SoundDuration":462818,"Delta":348426347},{"NoteNumber":72,"Velocity":31,"Duration":116009,"SoundDuration":116009,"Delta":348542356},{"NoteNumber":67,"Velocity":31,"Duration":116009,"SoundDuration":116009,"Delta":348658366},{"NoteNumber":72,"Velocity":31,"Duration":114790,"SoundDuration":114790,"Delta":348774375},{"NoteNumber":74,"Velocity":40,"Duration":458388,"SoundDuration":458388,"Delta":348889165},{"NoteNumber":54,"Velocity":29,"Duration":458388,"SoundDuration":458388,"Delta":348889165},{"NoteNumber":50,"Velocity":29,"Duration":917544,"SoundDuration":917544,"Delta":348889165},{"NoteNumber":72,"Velocity":31,"Duration":114635,"SoundDuration":114635,"Delta":349003649},{"NoteNumber":69,"Velocity":31,"Duration":114635,"SoundDuration":114635,"Delta":349118284},{"NoteNumber":72,"Velocity":31,"Duration":114634,"SoundDuration":114634,"Delta":349232919},{"NoteNumber":74,"Velocity":38,"Duration":459156,"SoundDuration":459156,"Delta":349347554},{"NoteNumber":57,"Velocity":29,"Duration":459156,"SoundDuration":459156,"Delta":349347554},{"NoteNumber":72,"Velocity":31,"Duration":114483,"SoundDuration":114483,"Delta":349461887},{"NoteNumber":66,"Velocity":31,"Duration":114940,"SoundDuration":114940,"Delta":349576370},{"NoteNumber":72,"Velocity":31,"Duration":115399,"SoundDuration":115399,"Delta":349691310},{"NoteNumber":74,"Velocity":42,"Duration":478951,"SoundDuration":478951,"Delta":349806710},{"NoteNumber":55,"Velocity":29,"Duration":2308469,"SoundDuration":2308469,"Delta":349806710},{"NoteNumber":71,"Velocity":31,"Duration":117896,"SoundDuration":117896,"Delta":349933357},{"NoteNumber":67,"Velocity":31,"Duration":117896,"SoundDuration":117896,"Delta":350051253},{"NoteNumber":71,"Velocity":31,"Duration":116511,"SoundDuration":116511,"Delta":350169150},{"NoteNumber":79,"Velocity":39,"Duration":454959,"SoundDuration":454959,"Delta":350285661},{"NoteNumber":59,"Velocity":29,"Duration":454959,"SoundDuration":454959,"Delta":350285661},{"NoteNumber":74,"Velocity":31,"Duration":113739,"SoundDuration":113739,"Delta":350399401},{"NoteNumber":67,"Velocity":31,"Duration":113739,"SoundDuration":113739,"Delta":350513141},{"NoteNumber":74,"Velocity":31,"Duration":113739,"SoundDuration":113739,"Delta":350626881},{"NoteNumber":78,"Velocity":44,"Duration":453767,"SoundDuration":453767,"Delta":350740620},{"NoteNumber":62,"Velocity":29,"Duration":227181,"SoundDuration":227181,"Delta":350740620},{"NoteNumber":74,"Velocity":31,"Duration":113441,"SoundDuration":113441,"Delta":350854360},{"NoteNumber":69,"Velocity":32,"Duration":113292,"SoundDuration":113292,"Delta":350967802},{"NoteNumber":63,"Velocity":26,"Duration":226585,"SoundDuration":226585,"Delta":350967802},{"NoteNumber":74,"Velocity":32,"Duration":113292,"SoundDuration":113292,"Delta":351081095},{"NoteNumber":81,"Velocity":40,"Duration":456754,"SoundDuration":456754,"Delta":351194388},{"NoteNumber":62,"Velocity":29,"Duration":229269,"SoundDuration":229269,"Delta":351194388},{"NoteNumber":74,"Velocity":34,"Duration":114634,"SoundDuration":114634,"Delta":351309023},{"NoteNumber":69,"Velocity":33,"Duration":114635,"SoundDuration":114635,"Delta":351423658},{"NoteNumber":60,"Velocity":27,"Duration":227484,"SoundDuration":227484,"Delta":351423658},{"NoteNumber":74,"Velocity":33,"Duration":112849,"SoundDuration":112849,"Delta":351538293},{"NoteNumber":74,"Velocity":40,"Duration":464037,"SoundDuration":464037,"Delta":351651143},{"NoteNumber":59,"Velocity":32,"Duration":464037,"SoundDuration":464037,"Delta":351651143},{"NoteNumber":71,"Velocity":32,"Duration":116009,"SoundDuration":116009,"Delta":351767152},{"NoteNumber":67,"Velocity":32,"Duration":116009,"SoundDuration":116009,"Delta":351883161},{"NoteNumber":71,"Velocity":32,"Duration":116009,"SoundDuration":116009,"Delta":351999170},{"NoteNumber":75,"Velocity":39,"Duration":461538,"SoundDuration":461538,"Delta":352115180},{"NoteNumber":48,"Velocity":30,"Duration":461538,"SoundDuration":461538,"Delta":352115180},{"NoteNumber":55,"Velocity":30,"Duration":461538,"SoundDuration":461538,"Delta":352115180},{"NoteNumber":72,"Velocity":31,"Duration":115384,"SoundDuration":115384,"Delta":352230564},{"NoteNumber":67,"Velocity":31,"Duration":115384,"SoundDuration":115384,"Delta":352345949},{"NoteNumber":72,"Velocity":31,"Duration":115384,"SoundDuration":115384,"Delta":352461333},{"NoteNumber":74,"Velocity":39,"Duration":458789,"SoundDuration":458789,"Delta":352576718},{"NoteNumber":54,"Velocity":29,"Duration":458789,"SoundDuration":458789,"Delta":352576718},{"NoteNumber":50,"Velocity":29,"Duration":917945,"SoundDuration":917945,"Delta":352576718},{"NoteNumber":72,"Velocity":31,"Duration":114635,"SoundDuration":114635,"Delta":352691603},{"NoteNumber":69,"Velocity":31,"Duration":114635,"SoundDuration":114635,"Delta":352806238},{"NoteNumber":72,"Velocity":31,"Duration":114634,"SoundDuration":114634,"Delta":352920873},{"NoteNumber":74,"Velocity":38,"Duration":459156,"SoundDuration":459156,"Delta":353035508},{"NoteNumber":57,"Velocity":29,"Duration":459156,"SoundDuration":459156,"Delta":353035508},{"NoteNumber":72,"Velocity":31,"Duration":114483,"SoundDuration":114483,"Delta":353149840},{"NoteNumber":66,"Velocity":31,"Duration":114940,"SoundDuration":114940,"Delta":353264324},{"NoteNumber":72,"Velocity":31,"Duration":115399,"SoundDuration":115399,"Delta":353379264},{"NoteNumber":74,"Velocity":44,"Duration":464037,"SoundDuration":464037,"Delta":353494664},{"NoteNumber":55,"Velocity":32,"Duration":927357,"SoundDuration":927357,"Delta":353494664},{"NoteNumber":71,"Velocity":31,"Duration":116009,"SoundDuration":116009,"Delta":353610673},{"NoteNumber":67,"Velocity":31,"Duration":116009,"SoundDuration":116009,"Delta":353726682},{"NoteNumber":71,"Velocity":31,"Duration":116009,"SoundDuration":116009,"Delta":353842691},{"NoteNumber":75,"Velocity":37,"Duration":463320,"SoundDuration":463320,"Delta":353958701},{"NoteNumber":48,"Velocity":28,"Duration":463320,"SoundDuration":463320,"Delta":353958701},{"NoteNumber":72,"Velocity":29,"Duration":115829,"SoundDuration":115829,"Delta":354074531},{"NoteNumber":67,"Velocity":28,"Duration":115830,"SoundDuration":115830,"Delta":354190361},{"NoteNumber":72,"Velocity":28,"Duration":115830,"SoundDuration":115830,"Delta":354306191},{"NoteNumber":74,"Velocity":36,"Duration":458938,"SoundDuration":458938,"Delta":354422021},{"NoteNumber":54,"Velocity":26,"Duration":458938,"SoundDuration":458938,"Delta":354422021},{"NoteNumber":50,"Velocity":26,"Duration":920100,"SoundDuration":920100,"Delta":354422021},{"NoteNumber":72,"Velocity":28,"Duration":114635,"SoundDuration":114635,"Delta":354537054},{"NoteNumber":69,"Velocity":28,"Duration":114635,"SoundDuration":114635,"Delta":354651689},{"NoteNumber":72,"Velocity":28,"Duration":114634,"SoundDuration":114634,"Delta":354766324},{"NoteNumber":74,"Velocity":34,"Duration":461161,"SoundDuration":461161,"Delta":354880959},{"NoteNumber":57,"Velocity":26,"Duration":461161,"SoundDuration":461161,"Delta":354880959},{"NoteNumber":72,"Velocity":28,"Duration":114483,"SoundDuration":114483,"Delta":354995291},{"NoteNumber":66,"Velocity":28,"Duration":115460,"SoundDuration":115460,"Delta":355109775},{"NoteNumber":72,"Velocity":28,"Duration":116885,"SoundDuration":116885,"Delta":355225235},{"NoteNumber":74,"Velocity":36,"Duration":461032,"SoundDuration":461032,"Delta":355342121},{"NoteNumber":43,"Velocity":26,"Duration":461032,"SoundDuration":461032,"Delta":355342121},{"NoteNumber":70,"Velocity":28,"Duration":115612,"SoundDuration":115612,"Delta":355458662},{"NoteNumber":67,"Velocity":28,"Duration":114697,"SoundDuration":114697,"Delta":355574275},{"NoteNumber":70,"Velocity":28,"Duration":114181,"SoundDuration":114181,"Delta":355688972},{"NoteNumber":74,"Velocity":34,"Duration":457935,"SoundDuration":457935,"Delta":355803154},{"NoteNumber":46,"Velocity":26,"Duration":457935,"SoundDuration":457935,"Delta":355803154},{"NoteNumber":70,"Velocity":28,"Duration":114483,"SoundDuration":114483,"Delta":355917335},{"NoteNumber":65,"Velocity":28,"Duration":114635,"SoundDuration":114635,"Delta":356031819},{"NoteNumber":70,"Velocity":28,"Duration":114634,"SoundDuration":114634,"Delta":356146454},{"NoteNumber":74,"Velocity":36,"Duration":449437,"SoundDuration":449437,"Delta":356261089},{"NoteNumber":50,"Velocity":26,"Duration":449437,"SoundDuration":449437,"Delta":356261089},{"NoteNumber":69,"Velocity":28,"Duration":112359,"SoundDuration":112359,"Delta":356373448},{"NoteNumber":65,"Velocity":28,"Duration":112359,"SoundDuration":112359,"Delta":356485808},{"NoteNumber":69,"Velocity":28,"Duration":112359,"SoundDuration":112359,"Delta":356598167},{"NoteNumber":72,"Velocity":34,"Duration":458397,"SoundDuration":458397,"Delta":356710527},{"NoteNumber":53,"Velocity":26,"Duration":458397,"SoundDuration":458397,"Delta":356710527},{"NoteNumber":69,"Velocity":28,"Duration":114483,"SoundDuration":114483,"Delta":356824101},{"NoteNumber":65,"Velocity":28,"Duration":114940,"SoundDuration":114940,"Delta":356938584},{"NoteNumber":69,"Velocity":28,"Duration":115399,"SoundDuration":115399,"Delta":357053524},{"NoteNumber":72,"Velocity":36,"Duration":456162,"SoundDuration":456162,"Delta":357168924},{"NoteNumber":41,"Velocity":26,"Duration":456162,"SoundDuration":456162,"Delta":357168924},{"NoteNumber":68,"Velocity":28,"Duration":114504,"SoundDuration":114504,"Delta":357284161},{"NoteNumber":65,"Velocity":28,"Duration":113637,"SoundDuration":113637,"Delta":357398666},{"NoteNumber":68,"Velocity":28,"Duration":112783,"SoundDuration":112783,"Delta":357512304},{"NoteNumber":72,"Velocity":34,"Duration":458397,"SoundDuration":458397,"Delta":357625087},{"NoteNumber":44,"Velocity":26,"Duration":458397,"SoundDuration":458397,"Delta":357625087},{"NoteNumber":68,"Velocity":28,"Duration":114483,"SoundDuration":114483,"Delta":357738661},{"NoteNumber":63,"Velocity":28,"Duration":114940,"SoundDuration":114940,"Delta":357853144},{"NoteNumber":68,"Velocity":28,"Duration":115399,"SoundDuration":115399,"Delta":357968084},{"NoteNumber":72,"Velocity":36,"Duration":458540,"SoundDuration":458540,"Delta":358083484},{"NoteNumber":48,"Velocity":26,"Duration":458540,"SoundDuration":458540,"Delta":358083484},{"NoteNumber":67,"Velocity":28,"Duration":114635,"SoundDuration":114635,"Delta":358198119},{"NoteNumber":63,"Velocity":28,"Duration":114635,"SoundDuration":114635,"Delta":358312754},{"NoteNumber":67,"Velocity":28,"Duration":114634,"SoundDuration":114634,"Delta":358427389},{"NoteNumber":70,"Velocity":34,"Duration":458848,"SoundDuration":458848,"Delta":358542024},{"NoteNumber":51,"Velocity":26,"Duration":458848,"SoundDuration":458848,"Delta":358542024},{"NoteNumber":67,"Velocity":28,"Duration":114483,"SoundDuration":114483,"Delta":358656357},{"NoteNumber":63,"Velocity":28,"Duration":114940,"SoundDuration":114940,"Delta":358770841},{"NoteNumber":67,"Velocity":28,"Duration":115092,"SoundDuration":115092,"Delta":358885781},{"NoteNumber":70,"Velocity":42,"Duration":460289,"SoundDuration":460289,"Delta":359000873},{"NoteNumber":39,"Velocity":29,"Duration":460289,"SoundDuration":460289,"Delta":359000873},{"NoteNumber":67,"Velocity":32,"Duration":115612,"SoundDuration":115612,"Delta":359116672},{"NoteNumber":63,"Velocity":32,"Duration":114697,"SoundDuration":114697,"Delta":359232285},{"NoteNumber":67,"Velocity":32,"Duration":114181,"SoundDuration":114181,"Delta":359346982},{"NoteNumber":70,"Velocity":39,"Duration":459004,"SoundDuration":459004,"Delta":359461163},{"NoteNumber":43,"Velocity":30,"Duration":459004,"SoundDuration":459004,"Delta":359461163},{"NoteNumber":67,"Velocity":33,"Duration":114483,"SoundDuration":114483,"Delta":359575344},{"NoteNumber":62,"Velocity":33,"Duration":114940,"SoundDuration":114940,"Delta":359689828},{"NoteNumber":67,"Velocity":33,"Duration":115399,"SoundDuration":115399,"Delta":359804768},{"NoteNumber":70,"Velocity":44,"Duration":458540,"SoundDuration":458540,"Delta":359920168},{"NoteNumber":46,"Velocity":31,"Duration":458540,"SoundDuration":458540,"Delta":359920168},{"NoteNumber":65,"Velocity":34,"Duration":114635,"SoundDuration":114635,"Delta":360034803},{"NoteNumber":62,"Velocity":34,"Duration":114635,"SoundDuration":114635,"Delta":360149438},{"NoteNumber":65,"Velocity":34,"Duration":114634,"SoundDuration":114634,"Delta":360264073},{"NoteNumber":69,"Velocity":43,"Duration":459156,"SoundDuration":459156,"Delta":360378708},{"NoteNumber":50,"Velocity":32,"Duration":459156,"SoundDuration":459156,"Delta":360378708},{"NoteNumber":65,"Velocity":35,"Duration":114483,"SoundDuration":114483,"Delta":360493040},{"NoteNumber":62,"Velocity":35,"Duration":114940,"SoundDuration":114940,"Delta":360607524},{"NoteNumber":65,"Velocity":35,"Duration":115399,"SoundDuration":115399,"Delta":360722464},{"NoteNumber":69,"Velocity":46,"Duration":461411,"SoundDuration":461411,"Delta":360837864},{"NoteNumber":41,"Velocity":29,"Duration":461411,"SoundDuration":461411,"Delta":360837864},{"NoteNumber":65,"Velocity":34,"Duration":115612,"SoundDuration":115612,"Delta":360954784},{"NoteNumber":60,"Velocity":36,"Duration":114697,"SoundDuration":114697,"Delta":361070397},{"NoteNumber":65,"Velocity":38,"Duration":114181,"SoundDuration":114181,"Delta":361185094},{"NoteNumber":77,"Velocity":50,"Duration":459004,"SoundDuration":459004,"Delta":361299275},{"NoteNumber":39,"Velocity":32,"Duration":459004,"SoundDuration":459004,"Delta":361299275},{"NoteNumber":72,"Velocity":38,"Duration":114483,"SoundDuration":114483,"Delta":361413457},{"NoteNumber":69,"Velocity":38,"Duration":114940,"SoundDuration":114940,"Delta":361527940},{"NoteNumber":72,"Velocity":38,"Duration":115399,"SoundDuration":115399,"Delta":361642880},{"NoteNumber":77,"Velocity":51,"Duration":464830,"SoundDuration":464830,"Delta":361758280},{"NoteNumber":38,"Velocity":36,"Duration":464830,"SoundDuration":464830,"Delta":361758280},{"NoteNumber":74,"Velocity":38,"Duration":116009,"SoundDuration":116009,"Delta":361873831},{"NoteNumber":70,"Velocity":37,"Duration":116477,"SoundDuration":116477,"Delta":361989841},{"NoteNumber":74,"Velocity":34,"Duration":116792,"SoundDuration":116792,"Delta":362106318},{"NoteNumber":77,"Velocity":43,"Duration":493385,"SoundDuration":493385,"Delta":362223111},{"NoteNumber":36,"Velocity":32,"Duration":493385,"SoundDuration":493385,"Delta":362223111},{"NoteNumber":75,"Velocity":35,"Duration":121358,"SoundDuration":121358,"Delta":362341016},{"NoteNumber":69,"Velocity":35,"Duration":125020,"SoundDuration":125020,"Delta":362462374},{"NoteNumber":75,"Velocity":35,"Duration":129102,"SoundDuration":129102,"Delta":362587394},{"NoteNumber":77,"Velocity":52,"Duration":490968,"SoundDuration":490968,"Delta":362716497},{"NoteNumber":74,"Velocity":38,"Duration":124130,"SoundDuration":124130,"Delta":362844268},{"NoteNumber":70,"Velocity":38,"Duration":120684,"SoundDuration":120684,"Delta":362968398},{"NoteNumber":34,"Velocity":33,"Duration":239066,"SoundDuration":239066,"Delta":362968398},{"NoteNumber":74,"Velocity":38,"Duration":118381,"SoundDuration":118381,"Delta":363089083},{"NoteNumber":82,"Velocity":53,"Duration":463904,"SoundDuration":463904,"Delta":363207465},{"NoteNumber":74,"Velocity":43,"Duration":115551,"SoundDuration":115551,"Delta":363323799},{"NoteNumber":70,"Velocity":44,"Duration":116009,"SoundDuration":116009,"Delta":363439351},{"NoteNumber":46,"Velocity":33,"Duration":232018,"SoundDuration":232018,"Delta":363439351},{"NoteNumber":74,"Velocity":44,"Duration":116009,"SoundDuration":116009,"Delta":363555360},{"NoteNumber":77,"Velocity":52,"Duration":116792,"SoundDuration":116792,"Delta":363671369},{"NoteNumber":81,"Velocity":52,"Duration":462085,"SoundDuration":462085,"Delta":363671369},{"NoteNumber":74,"Velocity":38,"Duration":116013,"SoundDuration":116013,"Delta":363788162},{"NoteNumber":69,"Velocity":38,"Duration":115093,"SoundDuration":115093,"Delta":363904175},{"NoteNumber":50,"Velocity":33,"Duration":229278,"SoundDuration":229278,"Delta":363904175},{"NoteNumber":74,"Velocity":38,"Duration":114185,"SoundDuration":114185,"Delta":364019269},{"NoteNumber":75,"Velocity":51,"Duration":114034,"SoundDuration":114034,"Delta":364133454},{"NoteNumber":79,"Velocity":51,"Duration":459619,"SoundDuration":459619,"Delta":364133454},{"NoteNumber":70,"Velocity":34,"Duration":114787,"SoundDuration":114787,"Delta":364247488},{"NoteNumber":67,"Velocity":34,"Duration":115399,"SoundDuration":115399,"Delta":364362276},{"NoteNumber":51,"Velocity":33,"Duration":230797,"SoundDuration":230797,"Delta":364362276},{"NoteNumber":70,"Velocity":34,"Duration":115398,"SoundDuration":115398,"Delta":364477676},{"NoteNumber":74,"Velocity":50,"Duration":115553,"SoundDuration":115553,"Delta":364593074},{"NoteNumber":79,"Velocity":50,"Duration":459163,"SoundDuration":459163,"Delta":364593074},{"NoteNumber":70,"Velocity":36,"Duration":115092,"SoundDuration":115092,"Delta":364708627},{"NoteNumber":67,"Velocity":36,"Duration":114483,"SoundDuration":114483,"Delta":364823720},{"NoteNumber":55,"Velocity":33,"Duration":228517,"SoundDuration":228517,"Delta":364823720},{"NoteNumber":70,"Velocity":36,"Duration":114034,"SoundDuration":114034,"Delta":364938203},{"NoteNumber":74,"Velocity":49,"Duration":113441,"SoundDuration":113441,"Delta":365052237},{"NoteNumber":77,"Velocity":49,"Duration":456001,"SoundDuration":456001,"Delta":365052237},{"NoteNumber":70,"Velocity":35,"Duration":113590,"SoundDuration":113590,"Delta":365165679},{"NoteNumber":65,"Velocity":35,"Duration":114181,"SoundDuration":114181,"Delta":365279270},{"NoteNumber":58,"Velocity":33,"Duration":228968,"SoundDuration":228968,"Delta":365279270},{"NoteNumber":70,"Velocity":35,"Duration":114787,"SoundDuration":114787,"Delta":365393451},{"NoteNumber":74,"Velocity":50,"Duration":113739,"SoundDuration":113739,"Delta":365508239},{"NoteNumber":77,"Velocity":50,"Duration":452735,"SoundDuration":452735,"Delta":365508239},{"NoteNumber":69,"Velocity":36,"Duration":113441,"SoundDuration":113441,"Delta":365621979},{"NoteNumber":65,"Velocity":36,"Duration":112997,"SoundDuration":112997,"Delta":365735421},{"NoteNumber":62,"Velocity":33,"Duration":225554,"SoundDuration":225554,"Delta":365735421},{"NoteNumber":69,"Velocity":36,"Duration":112556,"SoundDuration":112556,"Delta":365848418},{"NoteNumber":72,"Velocity":49,"Duration":112124,"SoundDuration":112124,"Delta":365960975},{"NoteNumber":75,"Velocity":49,"Duration":450092,"SoundDuration":450092,"Delta":365960975},{"NoteNumber":69,"Velocity":35,"Duration":112267,"SoundDuration":112267,"Delta":366073099},{"NoteNumber":63,"Velocity":35,"Duration":112703,"SoundDuration":112703,"Delta":366185367},{"NoteNumber":41,"Velocity":33,"Duration":225700,"SoundDuration":225700,"Delta":366185367},{"NoteNumber":69,"Velocity":35,"Duration":112997,"SoundDuration":112997,"Delta":366298070},{"NoteNumber":70,"Velocity":50,"Duration":112849,"SoundDuration":112849,"Delta":366411067},{"NoteNumber":75,"Velocity":50,"Duration":453620,"SoundDuration":453620,"Delta":366411067},{"NoteNumber":67,"Velocity":36,"Duration":113292,"SoundDuration":113292,"Delta":366523917},{"NoteNumber":63,"Velocity":36,"Duration":113590,"SoundDuration":113590,"Delta":366637210},{"NoteNumber":43,"Velocity":33,"Duration":227477,"SoundDuration":227477,"Delta":366637210},{"NoteNumber":67,"Velocity":36,"Duration":113886,"SoundDuration":113886,"Delta":366750801},{"NoteNumber":70,"Velocity":49,"Duration":114181,"SoundDuration":114181,"Delta":366864688},{"NoteNumber":74,"Velocity":49,"Duration":459002,"SoundDuration":459002,"Delta":366864688},{"NoteNumber":67,"Velocity":36,"Duration":114635,"SoundDuration":114635,"Delta":366978869},{"NoteNumber":62,"Velocity":36,"Duration":114939,"SoundDuration":114939,"Delta":367093504},{"NoteNumber":46,"Velocity":33,"Duration":230186,"SoundDuration":230186,"Delta":367093504},{"NoteNumber":67,"Velocity":36,"Duration":115246,"SoundDuration":115246,"Delta":367208444},{"NoteNumber":69,"Velocity":48,"Duration":116009,"SoundDuration":116009,"Delta":367323690},{"NoteNumber":74,"Velocity":48,"Duration":463125,"SoundDuration":463125,"Delta":367323690},{"NoteNumber":66,"Velocity":36,"Duration":116009,"SoundDuration":116009,"Delta":367439700},{"NoteNumber":62,"Velocity":36,"Duration":115553,"SoundDuration":115553,"Delta":367555709},{"NoteNumber":50,"Velocity":33,"Duration":231107,"SoundDuration":231107,"Delta":367555709},{"NoteNumber":66,"Velocity":36,"Duration":115553,"SoundDuration":115553,"Delta":367671262},{"NoteNumber":72,"Velocity":47,"Duration":460374,"SoundDuration":460374,"Delta":367786816},{"NoteNumber":69,"Velocity":37,"Duration":114939,"SoundDuration":114939,"Delta":367901451},{"NoteNumber":62,"Velocity":37,"Duration":115246,"SoundDuration":115246,"Delta":368016391},{"NoteNumber":54,"Velocity":33,"Duration":230799,"SoundDuration":230799,"Delta":368016391},{"NoteNumber":69,"Velocity":37,"Duration":115553,"SoundDuration":115553,"Delta":368131637},{"NoteNumber":72,"Velocity":48,"Duration":457632,"SoundDuration":457632,"Delta":368247190},{"NoteNumber":67,"Velocity":38,"Duration":114634,"SoundDuration":114634,"Delta":368361825},{"NoteNumber":62,"Velocity":42,"Duration":114181,"SoundDuration":114181,"Delta":368476460},{"NoteNumber":55,"Velocity":33,"Duration":114181,"SoundDuration":114181,"Delta":368476460},{"NoteNumber":67,"Velocity":45,"Duration":114181,"SoundDuration":114181,"Delta":368590642},{"NoteNumber":70,"Velocity":52,"Duration":453917,"SoundDuration":453917,"Delta":368704823},{"NoteNumber":57,"Velocity":33,"Duration":113739,"SoundDuration":113739,"Delta":368704823},{"NoteNumber":67,"Velocity":43,"Duration":113739,"SoundDuration":113739,"Delta":368818563},{"NoteNumber":62,"Velocity":44,"Duration":113292,"SoundDuration":113292,"Delta":368932302},{"NoteNumber":58,"Velocity":33,"Duration":113292,"SoundDuration":113292,"Delta":368932302},{"NoteNumber":67,"Velocity":44,"Duration":113145,"SoundDuration":113145,"Delta":369045595},{"NoteNumber":72,"Velocity":49,"Duration":453767,"SoundDuration":453767,"Delta":369158741},{"NoteNumber":51,"Velocity":33,"Duration":226142,"SoundDuration":226142,"Delta":369158741},{"NoteNumber":70,"Velocity":35,"Duration":113145,"SoundDuration":113145,"Delta":369271738},{"NoteNumber":67,"Velocity":35,"Duration":113590,"SoundDuration":113590,"Delta":369384883},{"NoteNumber":70,"Velocity":35,"Duration":114034,"SoundDuration":114034,"Delta":369498474},{"NoteNumber":74,"Velocity":45,"Duration":461446,"SoundDuration":461446,"Delta":369612508},{"NoteNumber":53,"Velocity":33,"Duration":229727,"SoundDuration":229727,"Delta":369612508},{"NoteNumber":69,"Velocity":33,"Duration":115092,"SoundDuration":115092,"Delta":369727143},{"NoteNumber":65,"Velocity":33,"Duration":115553,"SoundDuration":115553,"Delta":369842236},{"NoteNumber":69,"Velocity":33,"Duration":116165,"SoundDuration":116165,"Delta":369957789},{"NoteNumber":70,"Velocity":47,"Duration":479401,"SoundDuration":479401,"Delta":370073955},{"NoteNumber":65,"Velocity":35,"Duration":117896,"SoundDuration":117896,"Delta":370200601},{"NoteNumber":62,"Velocity":35,"Duration":117896,"SoundDuration":117896,"Delta":370318498},{"NoteNumber":58,"Velocity":33,"Duration":234858,"SoundDuration":234858,"Delta":370318498},{"NoteNumber":65,"Velocity":35,"Duration":116961,"SoundDuration":116961,"Delta":370436395},{"NoteNumber":72,"Velocity":49,"Duration":459760,"SoundDuration":459760,"Delta":370553357},{"NoteNumber":67,"Velocity":35,"Duration":115092,"SoundDuration":115092,"Delta":370668449},{"NoteNumber":63,"Velocity":35,"Duration":114939,"SoundDuration":114939,"Delta":370783542},{"NoteNumber":51,"Velocity":33,"Duration":229575,"SoundDuration":229575,"Delta":370783542},{"NoteNumber":67,"Velocity":35,"Duration":114635,"SoundDuration":114635,"Delta":370898482},{"NoteNumber":74,"Velocity":49,"Duration":456277,"SoundDuration":456277,"Delta":371013117},{"NoteNumber":68,"Velocity":35,"Duration":114213,"SoundDuration":114213,"Delta":371127621},{"NoteNumber":65,"Velocity":36,"Duration":113924,"SoundDuration":113924,"Delta":371241834},{"NoteNumber":46,"Velocity":33,"Duration":227560,"SoundDuration":227560,"Delta":371241834},{"NoteNumber":68,"Velocity":36,"Duration":113636,"SoundDuration":113636,"Delta":371355759},{"NoteNumber":74,"Velocity":52,"Duration":450992,"SoundDuration":450992,"Delta":371469395},{"NoteNumber":68,"Velocity":38,"Duration":112923,"SoundDuration":112923,"Delta":371582602},{"NoteNumber":65,"Velocity":38,"Duration":112641,"SoundDuration":112641,"Delta":371695526},{"NoteNumber":46,"Velocity":36,"Duration":224860,"SoundDuration":224860,"Delta":371695526},{"NoteNumber":68,"Velocity":39,"Duration":112219,"SoundDuration":112219,"Delta":371808167},{"NoteNumber":74,"Velocity":53,"Duration":456725,"SoundDuration":456725,"Delta":371920387},{"NoteNumber":68,"Velocity":37,"Duration":114181,"SoundDuration":114181,"Delta":372034568},{"NoteNumber":65,"Velocity":36,"Duration":114181,"SoundDuration":114181,"Delta":372148750},{"NoteNumber":39,"Velocity":36,"Duration":228362,"SoundDuration":228362,"Delta":372148750},{"NoteNumber":68,"Velocity":36,"Duration":114181,"SoundDuration":114181,"Delta":372262931},{"NoteNumber":75,"Velocity":49,"Duration":447761,"SoundDuration":447761,"Delta":372377112},{"NoteNumber":70,"Velocity":37,"Duration":111940,"SoundDuration":111940,"Delta":372489052},{"NoteNumber":67,"Velocity":36,"Duration":111940,"SoundDuration":111940,"Delta":372600993},{"NoteNumber":39,"Velocity":34,"Duration":223880,"SoundDuration":223880,"Delta":372600993},{"NoteNumber":70,"Velocity":35,"Duration":111940,"SoundDuration":111940,"Delta":372712933},{"NoteNumber":74,"Velocity":49,"Duration":452830,"SoundDuration":452830,"Delta":372824873},{"NoteNumber":70,"Velocity":35,"Duration":113207,"SoundDuration":113207,"Delta":372938081},{"NoteNumber":65,"Velocity":35,"Duration":113207,"SoundDuration":113207,"Delta":373051288},{"NoteNumber":41,"Velocity":33,"Duration":226415,"SoundDuration":226415,"Delta":373051288},{"NoteNumber":70,"Velocity":35,"Duration":113207,"SoundDuration":113207,"Delta":373164496},{"NoteNumber":72,"Velocity":49,"Duration":455837,"SoundDuration":455837,"Delta":373277703},{"NoteNumber":69,"Velocity":35,"Duration":113441,"SoundDuration":113441,"Delta":373390672},{"NoteNumber":65,"Velocity":35,"Duration":114332,"SoundDuration":114332,"Delta":373504114},{"NoteNumber":41,"Velocity":33,"Duration":229426,"SoundDuration":229426,"Delta":373504114},{"NoteNumber":69,"Velocity":35,"Duration":115093,"SoundDuration":115093,"Delta":373618446},{"NoteNumber":74,"Velocity":47,"Duration":473306,"SoundDuration":473306,"Delta":373733540},{"NoteNumber":70,"Velocity":35,"Duration":115553,"SoundDuration":115553,"Delta":373860187},{"NoteNumber":68,"Velocity":35,"Duration":115553,"SoundDuration":115553,"Delta":373975740},{"NoteNumber":46,"Velocity":33,"Duration":231107,"SoundDuration":231107,"Delta":373975740},{"NoteNumber":70,"Velocity":35,"Duration":115553,"SoundDuration":115553,"Delta":374091294},{"NoteNumber":75,"Velocity":49,"Duration":459912,"SoundDuration":459912,"Delta":374206847},{"NoteNumber":72,"Velocity":35,"Duration":115092,"SoundDuration":115092,"Delta":374321940},{"NoteNumber":68,"Velocity":35,"Duration":115092,"SoundDuration":115092,"Delta":374437032},{"NoteNumber":58,"Velocity":33,"Duration":229727,"SoundDuration":229727,"Delta":374437032},{"NoteNumber":72,"Velocity":35,"Duration":114635,"SoundDuration":114635,"Delta":374552125},{"NoteNumber":77,"Velocity":49,"Duration":457632,"SoundDuration":457632,"Delta":374666760},{"NoteNumber":74,"Velocity":35,"Duration":114635,"SoundDuration":114635,"Delta":374781395},{"NoteNumber":68,"Velocity":36,"Duration":114181,"SoundDuration":114181,"Delta":374896030},{"NoteNumber":58,"Velocity":33,"Duration":228362,"SoundDuration":228362,"Delta":374896030},{"NoteNumber":74,"Velocity":36,"Duration":114181,"SoundDuration":114181,"Delta":375010211},{"NoteNumber":77,"Velocity":52,"Duration":461460,"SoundDuration":461460,"Delta":375124392},{"NoteNumber":74,"Velocity":38,"Duration":115553,"SoundDuration":115553,"Delta":375239946},{"NoteNumber":68,"Velocity":38,"Duration":115553,"SoundDuration":115553,"Delta":375355499},{"NoteNumber":58,"Velocity":36,"Duration":230353,"SoundDuration":230353,"Delta":375355499},{"NoteNumber":74,"Velocity":39,"Duration":114800,"SoundDuration":114800,"Delta":375471053},{"NoteNumber":77,"Velocity":56,"Duration":456725,"SoundDuration":456725,"Delta":375585853},{"NoteNumber":74,"Velocity":39,"Duration":114181,"SoundDuration":114181,"Delta":375700034},{"NoteNumber":68,"Velocity":39,"Duration":114181,"SoundDuration":114181,"Delta":375814215},{"NoteNumber":51,"Velocity":36,"Duration":228362,"SoundDuration":228362,"Delta":375814215},{"NoteNumber":74,"Velocity":38,"Duration":114181,"SoundDuration":114181,"Delta":375928396},{"NoteNumber":79,"Velocity":52,"Duration":453468,"SoundDuration":453468,"Delta":376042578},{"NoteNumber":75,"Velocity":37,"Duration":113292,"SoundDuration":113292,"Delta":376156167},{"NoteNumber":67,"Velocity":36,"Duration":113292,"SoundDuration":113292,"Delta":376269460},{"NoteNumber":51,"Velocity":32,"Duration":226585,"SoundDuration":226585,"Delta":376269460},{"NoteNumber":75,"Velocity":35,"Duration":113292,"SoundDuration":113292,"Delta":376382753},{"NoteNumber":77,"Velocity":49,"Duration":453171,"SoundDuration":453171,"Delta":376496046},{"NoteNumber":74,"Velocity":34,"Duration":113292,"SoundDuration":113292,"Delta":376609339},{"NoteNumber":70,"Velocity":34,"Duration":113292,"SoundDuration":113292,"Delta":376722632},{"NoteNumber":53,"Velocity":33,"Duration":226585,"SoundDuration":226585,"Delta":376722632},{"NoteNumber":74,"Velocity":34,"Duration":113292,"SoundDuration":113292,"Delta":376835925},{"NoteNumber":77,"Velocity":47,"Duration":463200,"SoundDuration":463200,"Delta":376949218},{"NoteNumber":72,"Velocity":34,"Duration":113441,"SoundDuration":113441,"Delta":377062215},{"NoteNumber":69,"Velocity":33,"Duration":118380,"SoundDuration":118380,"Delta":377175657},{"NoteNumber":53,"Velocity":33,"Duration":236761,"SoundDuration":236761,"Delta":377175657},{"NoteNumber":72,"Velocity":32,"Duration":118380,"SoundDuration":118380,"Delta":377294038},{"NoteNumber":77,"Velocity":42,"Duration":480176,"SoundDuration":480176,"Delta":377412418},{"NoteNumber":58,"Velocity":29,"Duration":2319403,"SoundDuration":2319403,"Delta":377412418},{"NoteNumber":74,"Velocity":31,"Duration":117896,"SoundDuration":117896,"Delta":377539065},{"NoteNumber":70,"Velocity":31,"Duration":117896,"SoundDuration":117896,"Delta":377656961},{"NoteNumber":74,"Velocity":31,"Duration":117736,"SoundDuration":117736,"Delta":377774858},{"NoteNumber":82,"Velocity":39,"Duration":460370,"SoundDuration":460370,"Delta":377892595},{"NoteNumber":62,"Velocity":29,"Duration":460370,"SoundDuration":460370,"Delta":377892595},{"NoteNumber":77,"Velocity":31,"Duration":115092,"SoundDuration":115092,"Delta":378007687},{"NoteNumber":70,"Velocity":31,"Duration":115092,"SoundDuration":115092,"Delta":378122780},{"NoteNumber":77,"Velocity":31,"Duration":115092,"SoundDuration":115092,"Delta":378237872},{"NoteNumber":81,"Velocity":44,"Duration":458388,"SoundDuration":458388,"Delta":378352965},{"NoteNumber":65,"Velocity":29,"Duration":458388,"SoundDuration":458388,"Delta":378352965},{"NoteNumber":77,"Velocity":31,"Duration":114634,"SoundDuration":114634,"Delta":378467600},{"NoteNumber":72,"Velocity":32,"Duration":114635,"SoundDuration":114635,"Delta":378582235},{"NoteNumber":77,"Velocity":32,"Duration":114483,"SoundDuration":114483,"Delta":378696870},{"NoteNumber":84,"Velocity":40,"Duration":456430,"SoundDuration":456430,"Delta":378811354},{"NoteNumber":63,"Velocity":32,"Duration":456430,"SoundDuration":456430,"Delta":378811354},{"NoteNumber":77,"Velocity":34,"Duration":114181,"SoundDuration":114181,"Delta":378925535},{"NoteNumber":72,"Velocity":33,"Duration":114181,"SoundDuration":114181,"Delta":379039716},{"NoteNumber":77,"Velocity":33,"Duration":113886,"SoundDuration":113886,"Delta":379153897},{"NoteNumber":77,"Velocity":44,"Duration":464037,"SoundDuration":464037,"Delta":379267784},{"NoteNumber":62,"Velocity":32,"Duration":464037,"SoundDuration":464037,"Delta":379267784},{"NoteNumber":74,"Velocity":32,"Duration":116009,"SoundDuration":116009,"Delta":379383794},{"NoteNumber":70,"Velocity":32,"Duration":116009,"SoundDuration":116009,"Delta":379499803},{"NoteNumber":74,"Velocity":32,"Duration":116009,"SoundDuration":116009,"Delta":379615812},{"NoteNumber":79,"Velocity":39,"Duration":455116,"SoundDuration":455116,"Delta":379731821},{"NoteNumber":51,"Velocity":30,"Duration":455116,"SoundDuration":455116,"Delta":379731821},{"NoteNumber":58,"Velocity":30,"Duration":455116,"SoundDuration":455116,"Delta":379731821},{"NoteNumber":75,"Velocity":31,"Duration":113292,"SoundDuration":113292,"Delta":379846020},{"NoteNumber":70,"Velocity":31,"Duration":113590,"SoundDuration":113590,"Delta":379959313},{"NoteNumber":75,"Velocity":31,"Duration":114034,"SoundDuration":114034,"Delta":380072904},{"NoteNumber":77,"Velocity":40,"Duration":458388,"SoundDuration":458388,"Delta":380186938},{"NoteNumber":57,"Velocity":29,"Duration":458388,"SoundDuration":458388,"Delta":380186938},{"NoteNumber":53,"Velocity":29,"Duration":922860,"SoundDuration":922860,"Delta":380186938},{"NoteNumber":75,"Velocity":31,"Duration":114635,"SoundDuration":114635,"Delta":380301421},{"NoteNumber":72,"Velocity":31,"Duration":114635,"SoundDuration":114635,"Delta":380416056},{"NoteNumber":75,"Velocity":31,"Duration":114634,"SoundDuration":114634,"Delta":380530691},{"NoteNumber":77,"Velocity":38,"Duration":464471,"SoundDuration":464471,"Delta":380645326},{"NoteNumber":60,"Velocity":29,"Duration":464471,"SoundDuration":464471,"Delta":380645326},{"NoteNumber":75,"Velocity":31,"Duration":114483,"SoundDuration":114483,"Delta":380759659},{"NoteNumber":69,"Velocity":31,"Duration":116291,"SoundDuration":116291,"Delta":380874143},{"NoteNumber":75,"Velocity":31,"Duration":119363,"SoundDuration":119363,"Delta":380990434},{"NoteNumber":77,"Velocity":42,"Duration":485334,"SoundDuration":485334,"Delta":381109798},{"NoteNumber":58,"Velocity":29,"Duration":2329819,"SoundDuration":2329819,"Delta":381109798},{"NoteNumber":74,"Velocity":31,"Duration":118110,"SoundDuration":118110,"Delta":381240802},{"NoteNumber":70,"Velocity":31,"Duration":118110,"SoundDuration":118110,"Delta":381358912},{"NoteNumber":74,"Velocity":31,"Duration":118110,"SoundDuration":118110,"Delta":381477023},{"NoteNumber":82,"Velocity":39,"Duration":463320,"SoundDuration":463320,"Delta":381595133},{"NoteNumber":62,"Velocity":29,"Duration":463320,"SoundDuration":463320,"Delta":381595133},{"NoteNumber":77,"Velocity":31,"Duration":115829,"SoundDuration":115829,"Delta":381710963},{"NoteNumber":70,"Velocity":31,"Duration":115830,"SoundDuration":115830,"Delta":381826793},{"NoteNumber":77,"Velocity":31,"Duration":115830,"SoundDuration":115830,"Delta":381942623},{"NoteNumber":81,"Velocity":44,"Duration":459774,"SoundDuration":459774,"Delta":382058453},{"NoteNumber":65,"Velocity":29,"Duration":230474,"SoundDuration":230474,"Delta":382058453},{"NoteNumber":77,"Velocity":31,"Duration":115089,"SoundDuration":115089,"Delta":382173837},{"NoteNumber":72,"Velocity":32,"Duration":114796,"SoundDuration":114796,"Delta":382288927},{"NoteNumber":66,"Velocity":26,"Duration":229299,"SoundDuration":229299,"Delta":382288927},{"NoteNumber":77,"Velocity":32,"Duration":114503,"SoundDuration":114503,"Delta":382403723},{"NoteNumber":84,"Velocity":40,"Duration":456274,"SoundDuration":456274,"Delta":382518227},{"NoteNumber":65,"Velocity":29,"Duration":228137,"SoundDuration":228137,"Delta":382518227},{"NoteNumber":77,"Velocity":34,"Duration":114068,"SoundDuration":114068,"Delta":382632296},{"NoteNumber":72,"Velocity":33,"Duration":114068,"SoundDuration":114068,"Delta":382746364},{"NoteNumber":63,"Velocity":27,"Duration":228137,"SoundDuration":228137,"Delta":382746364},{"NoteNumber":77,"Velocity":33,"Duration":114068,"SoundDuration":114068,"Delta":382860433},{"NoteNumber":77,"Velocity":44,"Duration":465116,"SoundDuration":465116,"Delta":382974501},{"NoteNumber":62,"Velocity":32,"Duration":465116,"SoundDuration":465116,"Delta":382974501},{"NoteNumber":74,"Velocity":32,"Duration":116278,"SoundDuration":116278,"Delta":383090780},{"NoteNumber":70,"Velocity":32,"Duration":116279,"SoundDuration":116279,"Delta":383207059},{"NoteNumber":74,"Velocity":32,"Duration":116279,"SoundDuration":116279,"Delta":383323338},{"NoteNumber":78,"Velocity":39,"Duration":468750,"SoundDuration":468750,"Delta":383439617},{"NoteNumber":51,"Velocity":30,"Duration":468750,"SoundDuration":468750,"Delta":383439617},{"NoteNumber":58,"Velocity":30,"Duration":468750,"SoundDuration":468750,"Delta":383439617},{"NoteNumber":75,"Velocity":31,"Duration":117187,"SoundDuration":117187,"Delta":383556805},{"NoteNumber":70,"Velocity":31,"Duration":117187,"SoundDuration":117187,"Delta":383673992},{"NoteNumber":75,"Velocity":31,"Duration":117187,"SoundDuration":117187,"Delta":383791180},{"NoteNumber":77,"Velocity":39,"Duration":473844,"SoundDuration":473844,"Delta":383908367},{"NoteNumber":57,"Velocity":29,"Duration":473844,"SoundDuration":473844,"Delta":383908367},{"NoteNumber":53,"Velocity":29,"Duration":948786,"SoundDuration":948786,"Delta":383908367},{"NoteNumber":75,"Velocity":31,"Duration":118577,"SoundDuration":118577,"Delta":384026481},{"NoteNumber":72,"Velocity":31,"Duration":118577,"SoundDuration":118577,"Delta":384145058},{"NoteNumber":75,"Velocity":31,"Duration":118576,"SoundDuration":118576,"Delta":384263635},{"NoteNumber":77,"Velocity":38,"Duration":474941,"SoundDuration":474941,"Delta":384382212},{"NoteNumber":60,"Velocity":29,"Duration":474941,"SoundDuration":474941,"Delta":384382212},{"NoteNumber":75,"Velocity":31,"Duration":118421,"SoundDuration":118421,"Delta":384500478},{"NoteNumber":69,"Velocity":31,"Duration":118890,"SoundDuration":118890,"Delta":384618899},{"NoteNumber":75,"Velocity":31,"Duration":119363,"SoundDuration":119363,"Delta":384737790},{"NoteNumber":73,"Velocity":89,"Duration":836654,"SoundDuration":836654,"Delta":386769506},{"NoteNumber":77,"Velocity":89,"Duration":836654,"SoundDuration":836654,"Delta":386769506},{"NoteNumber":82,"Velocity":106,"Duration":836654,"SoundDuration":836654,"Delta":386769506},{"NoteNumber":46,"Velocity":76,"Duration":836654,"SoundDuration":836654,"Delta":386769506},{"NoteNumber":53,"Velocity":76,"Duration":836654,"SoundDuration":836654,"Delta":386769506},{"NoteNumber":58,"Velocity":92,"Duration":836654,"SoundDuration":836654,"Delta":386769506},{"NoteNumber":73,"Velocity":77,"Duration":113545,"SoundDuration":113545,"Delta":387606160},{"NoteNumber":77,"Velocity":77,"Duration":113545,"SoundDuration":113545,"Delta":387606160},{"NoteNumber":82,"Velocity":92,"Duration":113545,"SoundDuration":113545,"Delta":387606160},{"NoteNumber":46,"Velocity":66,"Duration":113545,"SoundDuration":113545,"Delta":387606160},{"NoteNumber":53,"Velocity":66,"Duration":113545,"SoundDuration":113545,"Delta":387606160},{"NoteNumber":58,"Velocity":77,"Duration":113545,"SoundDuration":113545,"Delta":387606160},{"NoteNumber":73,"Velocity":81,"Duration":343077,"SoundDuration":343077,"Delta":387725682},{"NoteNumber":77,"Velocity":81,"Duration":343077,"SoundDuration":343077,"Delta":387725682},{"NoteNumber":85,"Velocity":96,"Duration":343077,"SoundDuration":343077,"Delta":387725682},{"NoteNumber":46,"Velocity":70,"Duration":343077,"SoundDuration":343077,"Delta":387725682},{"NoteNumber":58,"Velocity":84,"Duration":343077,"SoundDuration":343077,"Delta":387725682},{"NoteNumber":73,"Velocity":76,"Duration":107954,"SoundDuration":107954,"Delta":388068759},{"NoteNumber":77,"Velocity":76,"Duration":107954,"SoundDuration":107954,"Delta":388068759},{"NoteNumber":85,"Velocity":91,"Duration":107954,"SoundDuration":107954,"Delta":388068759},{"NoteNumber":46,"Velocity":67,"Duration":107954,"SoundDuration":107954,"Delta":388068759},{"NoteNumber":58,"Velocity":80,"Duration":107954,"SoundDuration":107954,"Delta":388068759},{"NoteNumber":73,"Velocity":81,"Duration":338772,"SoundDuration":338772,"Delta":388182395},{"NoteNumber":77,"Velocity":81,"Duration":338772,"SoundDuration":338772,"Delta":388182395},{"NoteNumber":82,"Velocity":96,"Duration":338772,"SoundDuration":338772,"Delta":388182395},{"NoteNumber":49,"Velocity":70,"Duration":338772,"SoundDuration":338772,"Delta":388182395},{"NoteNumber":61,"Velocity":84,"Duration":338772,"SoundDuration":338772,"Delta":388182395},{"NoteNumber":73,"Velocity":77,"Duration":106622,"SoundDuration":106622,"Delta":388521168},{"NoteNumber":77,"Velocity":77,"Duration":106622,"SoundDuration":106622,"Delta":388521168},{"NoteNumber":82,"Velocity":92,"Duration":106622,"SoundDuration":106622,"Delta":388521168},{"NoteNumber":49,"Velocity":66,"Duration":106622,"SoundDuration":106622,"Delta":388521168},{"NoteNumber":61,"Velocity":77,"Duration":106622,"SoundDuration":106622,"Delta":388521168},{"NoteNumber":70,"Velocity":81,"Duration":335820,"SoundDuration":335820,"Delta":388633387},{"NoteNumber":73,"Velocity":81,"Duration":335820,"SoundDuration":335820,"Delta":388633387},{"NoteNumber":77,"Velocity":96,"Duration":335820,"SoundDuration":335820,"Delta":388633387},{"NoteNumber":34,"Velocity":70,"Duration":335820,"SoundDuration":335820,"Delta":388633387},{"NoteNumber":46,"Velocity":84,"Duration":335820,"SoundDuration":335820,"Delta":388633387},{"NoteNumber":70,"Velocity":77,"Duration":106343,"SoundDuration":106343,"Delta":388969208},{"NoteNumber":73,"Velocity":77,"Duration":106343,"SoundDuration":106343,"Delta":388969208},{"NoteNumber":77,"Velocity":92,"Duration":106343,"SoundDuration":106343,"Delta":388969208},{"NoteNumber":34,"Velocity":66,"Duration":106343,"SoundDuration":106343,"Delta":388969208},{"NoteNumber":46,"Velocity":77,"Duration":106343,"SoundDuration":106343,"Delta":388969208},{"NoteNumber":65,"Velocity":77,"Duration":335820,"SoundDuration":335820,"Delta":389081148},{"NoteNumber":70,"Velocity":77,"Duration":335820,"SoundDuration":335820,"Delta":389081148},{"NoteNumber":73,"Velocity":91,"Duration":335820,"SoundDuration":335820,"Delta":389081148},{"NoteNumber":37,"Velocity":66,"Duration":335820,"SoundDuration":335820,"Delta":389081148},{"NoteNumber":49,"Velocity":79,"Duration":335820,"SoundDuration":335820,"Delta":389081148},{"NoteNumber":65,"Velocity":72,"Duration":106343,"SoundDuration":106343,"Delta":389416969},{"NoteNumber":70,"Velocity":72,"Duration":106343,"SoundDuration":106343,"Delta":389416969},{"NoteNumber":73,"Velocity":86,"Duration":106343,"SoundDuration":106343,"Delta":389416969},{"NoteNumber":37,"Velocity":61,"Duration":106343,"SoundDuration":106343,"Delta":389416969},{"NoteNumber":49,"Velocity":73,"Duration":106343,"SoundDuration":106343,"Delta":389416969},{"NoteNumber":61,"Velocity":77,"Duration":338346,"SoundDuration":338346,"Delta":389528909},{"NoteNumber":65,"Velocity":77,"Duration":338346,"SoundDuration":338346,"Delta":389528909},{"NoteNumber":70,"Velocity":91,"Duration":338346,"SoundDuration":338346,"Delta":389528909},{"NoteNumber":41,"Velocity":66,"Duration":338346,"SoundDuration":338346,"Delta":389528909},{"NoteNumber":53,"Velocity":79,"Duration":338346,"SoundDuration":338346,"Delta":389528909},{"NoteNumber":61,"Velocity":72,"Duration":107142,"SoundDuration":107142,"Delta":389867255},{"NoteNumber":65,"Velocity":72,"Duration":107142,"SoundDuration":107142,"Delta":389867255},{"NoteNumber":70,"Velocity":86,"Duration":107142,"SoundDuration":107142,"Delta":389867255},{"NoteNumber":41,"Velocity":61,"Duration":107142,"SoundDuration":107142,"Delta":389867255},{"NoteNumber":53,"Velocity":73,"Duration":107142,"SoundDuration":107142,"Delta":389867255},{"NoteNumber":61,"Velocity":77,"Duration":338346,"SoundDuration":338346,"Delta":389980037},{"NoteNumber":65,"Velocity":91,"Duration":338346,"SoundDuration":338346,"Delta":389980037},{"NoteNumber":46,"Velocity":66,"Duration":338346,"SoundDuration":338346,"Delta":389980037},{"NoteNumber":58,"Velocity":79,"Duration":338346,"SoundDuration":338346,"Delta":389980037},{"NoteNumber":61,"Velocity":71,"Duration":112782,"SoundDuration":112782,"Delta":390318383},{"NoteNumber":65,"Velocity":71,"Duration":112782,"SoundDuration":112782,"Delta":390318383},{"NoteNumber":70,"Velocity":85,"Duration":112782,"SoundDuration":112782,"Delta":390318383},{"NoteNumber":46,"Velocity":59,"Duration":112782,"SoundDuration":112782,"Delta":390318383},{"NoteNumber":58,"Velocity":71,"Duration":112782,"SoundDuration":112782,"Delta":390318383},{"NoteNumber":63,"Velocity":81,"Duration":111524,"SoundDuration":111524,"Delta":390431165},{"NoteNumber":66,"Velocity":81,"Duration":111524,"SoundDuration":111524,"Delta":390431165},{"NoteNumber":71,"Velocity":96,"Duration":111524,"SoundDuration":111524,"Delta":390431165},{"NoteNumber":39,"Velocity":70,"Duration":111524,"SoundDuration":111524,"Delta":390431165},{"NoteNumber":51,"Velocity":84,"Duration":111524,"SoundDuration":111524,"Delta":390431165},{"NoteNumber":83,"Velocity":61,"Duration":130111,"SoundDuration":130111,"Delta":390654214},{"NoteNumber":87,"Velocity":65,"Duration":130111,"SoundDuration":130111,"Delta":390765738},{"NoteNumber":90,"Velocity":68,"Duration":130111,"SoundDuration":130111,"Delta":390877262},{"NoteNumber":88,"Velocity":68,"Duration":130111,"SoundDuration":130111,"Delta":390988787},{"NoteNumber":87,"Velocity":67,"Duration":130111,"SoundDuration":130111,"Delta":391100311},{"NoteNumber":85,"Velocity":67,"Duration":130111,"SoundDuration":130111,"Delta":391211835},{"NoteNumber":83,"Velocity":68,"Duration":130111,"SoundDuration":130111,"Delta":391323359},{"NoteNumber":82,"Velocity":68,"Duration":130111,"SoundDuration":130111,"Delta":391434884},{"NoteNumber":80,"Velocity":67,"Duration":130111,"SoundDuration":130111,"Delta":391546408},{"NoteNumber":78,"Velocity":67,"Duration":130111,"SoundDuration":130111,"Delta":391657932},{"NoteNumber":76,"Velocity":67,"Duration":130111,"SoundDuration":130111,"Delta":391769456},{"NoteNumber":75,"Velocity":67,"Duration":130111,"SoundDuration":130111,"Delta":391880981},{"NoteNumber":73,"Velocity":67,"Duration":130111,"SoundDuration":130111,"Delta":391992505},{"NoteNumber":71,"Velocity":67,"Duration":130392,"SoundDuration":130392,"Delta":392104029},{"NoteNumber":73,"Velocity":67,"Duration":132075,"SoundDuration":132075,"Delta":392215553},{"NoteNumber":70,"Velocity":68,"Duration":132075,"SoundDuration":132075,"Delta":392328761},{"NoteNumber":71,"Velocity":72,"Duration":132075,"SoundDuration":132075,"Delta":392441968},{"NoteNumber":59,"Velocity":63,"Duration":132075,"SoundDuration":132075,"Delta":392441968},{"NoteNumber":75,"Velocity":75,"Duration":131934,"SoundDuration":131934,"Delta":392555176},{"NoteNumber":63,"Velocity":65,"Duration":131934,"SoundDuration":131934,"Delta":392555176},{"NoteNumber":78,"Velocity":74,"Duration":130045,"SoundDuration":130045,"Delta":392668383},{"NoteNumber":66,"Velocity":68,"Duration":130045,"SoundDuration":130045,"Delta":392668383},{"NoteNumber":76,"Velocity":73,"Duration":129561,"SoundDuration":129561,"Delta":392779911},{"NoteNumber":64,"Velocity":66,"Duration":129561,"SoundDuration":129561,"Delta":392779911},{"NoteNumber":75,"Velocity":73,"Duration":129151,"SoundDuration":129151,"Delta":392891022},{"NoteNumber":63,"Velocity":64,"Duration":129151,"SoundDuration":129151,"Delta":392891022},{"NoteNumber":73,"Velocity":72,"Duration":128947,"SoundDuration":128947,"Delta":393001723},{"NoteNumber":61,"Velocity":63,"Duration":128947,"SoundDuration":128947,"Delta":393001723},{"NoteNumber":71,"Velocity":71,"Duration":128676,"SoundDuration":128676,"Delta":393112288},{"NoteNumber":59,"Velocity":61,"Duration":128676,"SoundDuration":128676,"Delta":393112288},{"NoteNumber":70,"Velocity":71,"Duration":128339,"SoundDuration":128339,"Delta":393222582},{"NoteNumber":58,"Velocity":61,"Duration":128339,"SoundDuration":128339,"Delta":393222582},{"NoteNumber":68,"Velocity":72,"Duration":128138,"SoundDuration":128138,"Delta":393332607},{"NoteNumber":56,"Velocity":63,"Duration":128138,"SoundDuration":128138,"Delta":393332607},{"NoteNumber":66,"Velocity":73,"Duration":127737,"SoundDuration":127737,"Delta":393442497},{"NoteNumber":54,"Velocity":64,"Duration":127737,"SoundDuration":127737,"Delta":393442497},{"NoteNumber":64,"Velocity":74,"Duration":127538,"SoundDuration":127538,"Delta":393551986},{"NoteNumber":52,"Velocity":64,"Duration":127538,"SoundDuration":127538,"Delta":393551986},{"NoteNumber":63,"Velocity":75,"Duration":127272,"SoundDuration":127272,"Delta":393661342},{"NoteNumber":51,"Velocity":65,"Duration":127272,"SoundDuration":127272,"Delta":393661342},{"NoteNumber":61,"Velocity":76,"Duration":126943,"SoundDuration":126943,"Delta":393770433},{"NoteNumber":49,"Velocity":66,"Duration":126943,"SoundDuration":126943,"Delta":393770433},{"NoteNumber":59,"Velocity":79,"Duration":108564,"SoundDuration":108564,"Delta":393879260},{"NoteNumber":47,"Velocity":66,"Duration":108564,"SoundDuration":108564,"Delta":393879260},{"NoteNumber":54,"Velocity":86,"Duration":220799,"SoundDuration":220799,"Delta":393987825},{"NoteNumber":59,"Velocity":86,"Duration":220799,"SoundDuration":220799,"Delta":393987825},{"NoteNumber":39,"Velocity":61,"Duration":220799,"SoundDuration":220799,"Delta":393987825},{"NoteNumber":51,"Velocity":73,"Duration":220799,"SoundDuration":220799,"Delta":393987825},{"NoteNumber":54,"Velocity":74,"Duration":439076,"SoundDuration":439076,"Delta":394208625},{"NoteNumber":59,"Velocity":74,"Duration":439076,"SoundDuration":439076,"Delta":394208625},{"NoteNumber":63,"Velocity":88,"Duration":439076,"SoundDuration":439076,"Delta":394208625},{"NoteNumber":39,"Velocity":65,"Duration":218277,"SoundDuration":218277,"Delta":394429424},{"NoteNumber":51,"Velocity":77,"Duration":218277,"SoundDuration":218277,"Delta":394429424},{"NoteNumber":59,"Velocity":73,"Duration":436554,"SoundDuration":436554,"Delta":394647701},{"NoteNumber":63,"Velocity":73,"Duration":436554,"SoundDuration":436554,"Delta":394647701},{"NoteNumber":66,"Velocity":87,"Duration":436554,"SoundDuration":436554,"Delta":394647701},{"NoteNumber":39,"Velocity":64,"Duration":207363,"SoundDuration":207363,"Delta":394865978},{"NoteNumber":51,"Velocity":76,"Duration":207363,"SoundDuration":207363,"Delta":394865978},{"NoteNumber":63,"Velocity":69,"Duration":107906,"SoundDuration":107906,"Delta":395084255},{"NoteNumber":66,"Velocity":69,"Duration":107906,"SoundDuration":107906,"Delta":395084255},{"NoteNumber":71,"Velocity":81,"Duration":107906,"SoundDuration":107906,"Delta":395084255},{"NoteNumber":39,"Velocity":52,"Duration":107906,"SoundDuration":107906,"Delta":395084255},{"NoteNumber":51,"Velocity":63,"Duration":107906,"SoundDuration":107906,"Delta":395084255},{"NoteNumber":66,"Velocity":71,"Duration":107905,"SoundDuration":107905,"Delta":395300067},{"NoteNumber":71,"Velocity":71,"Duration":107905,"SoundDuration":107905,"Delta":395300067},{"NoteNumber":75,"Velocity":85,"Duration":107905,"SoundDuration":107905,"Delta":395300067},{"NoteNumber":39,"Velocity":57,"Duration":107905,"SoundDuration":107905,"Delta":395300067},{"NoteNumber":51,"Velocity":67,"Duration":107905,"SoundDuration":107905,"Delta":395300067},{"NoteNumber":71,"Velocity":74,"Duration":114381,"SoundDuration":114381,"Delta":395515879},{"NoteNumber":75,"Velocity":74,"Duration":114381,"SoundDuration":114381,"Delta":395515879},{"NoteNumber":78,"Velocity":88,"Duration":114381,"SoundDuration":114381,"Delta":395515879},{"NoteNumber":39,"Velocity":60,"Duration":114381,"SoundDuration":114381,"Delta":395515879},{"NoteNumber":51,"Velocity":72,"Duration":114381,"SoundDuration":114381,"Delta":395515879},{"NoteNumber":63,"Velocity":75,"Duration":220799,"SoundDuration":220799,"Delta":395744642},{"NoteNumber":69,"Velocity":75,"Duration":220799,"SoundDuration":220799,"Delta":395744642},{"NoteNumber":72,"Velocity":86,"Duration":220799,"SoundDuration":220799,"Delta":395744642},{"NoteNumber":41,"Velocity":61,"Duration":220799,"SoundDuration":220799,"Delta":395744642},{"NoteNumber":53,"Velocity":73,"Duration":220799,"SoundDuration":220799,"Delta":395744642},{"NoteNumber":69,"Velocity":74,"Duration":439076,"SoundDuration":439076,"Delta":395965442},{"NoteNumber":72,"Velocity":74,"Duration":439076,"SoundDuration":439076,"Delta":395965442},{"NoteNumber":75,"Velocity":88,"Duration":439076,"SoundDuration":439076,"Delta":395965442},{"NoteNumber":41,"Velocity":65,"Duration":218277,"SoundDuration":218277,"Delta":396186241},{"NoteNumber":53,"Velocity":77,"Duration":218277,"SoundDuration":218277,"Delta":396186241},{"NoteNumber":72,"Velocity":73,"Duration":436554,"SoundDuration":436554,"Delta":396404518},{"NoteNumber":75,"Velocity":73,"Duration":436554,"SoundDuration":436554,"Delta":396404518},{"NoteNumber":81,"Velocity":87,"Duration":436554,"SoundDuration":436554,"Delta":396404518},{"NoteNumber":41,"Velocity":64,"Duration":207363,"SoundDuration":207363,"Delta":396622795},{"NoteNumber":53,"Velocity":76,"Duration":207363,"SoundDuration":207363,"Delta":396622795},{"NoteNumber":75,"Velocity":69,"Duration":107906,"SoundDuration":107906,"Delta":396841072},{"NoteNumber":81,"Velocity":69,"Duration":107906,"SoundDuration":107906,"Delta":396841072},{"NoteNumber":84,"Velocity":81,"Duration":107906,"SoundDuration":107906,"Delta":396841072},{"NoteNumber":41,"Velocity":52,"Duration":107906,"SoundDuration":107906,"Delta":396841072},{"NoteNumber":53,"Velocity":63,"Duration":107906,"SoundDuration":107906,"Delta":396841072},{"NoteNumber":81,"Velocity":71,"Duration":107905,"SoundDuration":107905,"Delta":397056884},{"NoteNumber":84,"Velocity":71,"Duration":107905,"SoundDuration":107905,"Delta":397056884},{"NoteNumber":87,"Velocity":85,"Duration":107905,"SoundDuration":107905,"Delta":397056884},{"NoteNumber":41,"Velocity":57,"Duration":107905,"SoundDuration":107905,"Delta":397056884},{"NoteNumber":53,"Velocity":67,"Duration":107905,"SoundDuration":107905,"Delta":397056884},{"NoteNumber":84,"Velocity":74,"Duration":113472,"SoundDuration":113472,"Delta":397272696},{"NoteNumber":87,"Velocity":74,"Duration":113472,"SoundDuration":113472,"Delta":397272696},{"NoteNumber":93,"Velocity":88,"Duration":113472,"SoundDuration":113472,"Delta":397272696},{"NoteNumber":41,"Velocity":60,"Duration":113472,"SoundDuration":113472,"Delta":397272696},{"NoteNumber":53,"Velocity":72,"Duration":113472,"SoundDuration":113472,"Delta":397272696},{"NoteNumber":82,"Velocity":89,"Duration":806765,"SoundDuration":806765,"Delta":397499642},{"NoteNumber":85,"Velocity":89,"Duration":806765,"SoundDuration":806765,"Delta":397499642},{"NoteNumber":89,"Velocity":89,"Duration":806765,"SoundDuration":806765,"Delta":397499642},{"NoteNumber":94,"Velocity":106,"Duration":806765,"SoundDuration":806765,"Delta":397499642},{"NoteNumber":46,"Velocity":67,"Duration":117519,"SoundDuration":117519,"Delta":397499642},{"NoteNumber":49,"Velocity":57,"Duration":115979,"SoundDuration":115979,"Delta":397617162},{"NoteNumber":53,"Velocity":57,"Duration":115533,"SoundDuration":115533,"Delta":397733141},{"NoteNumber":58,"Velocity":57,"Duration":115089,"SoundDuration":115089,"Delta":397848674},{"NoteNumber":46,"Velocity":67,"Duration":114649,"SoundDuration":114649,"Delta":397963764},{"NoteNumber":49,"Velocity":57,"Duration":114213,"SoundDuration":114213,"Delta":398078414},{"NoteNumber":53,"Velocity":57,"Duration":113780,"SoundDuration":113780,"Delta":398192628},{"NoteNumber":82,"Velocity":77,"Duration":113350,"SoundDuration":113350,"Delta":398306408},{"NoteNumber":94,"Velocity":92,"Duration":113350,"SoundDuration":113350,"Delta":398306408},{"NoteNumber":58,"Velocity":57,"Duration":113350,"SoundDuration":113350,"Delta":398306408},{"NoteNumber":85,"Velocity":81,"Duration":336938,"SoundDuration":336938,"Delta":398419758},{"NoteNumber":97,"Velocity":96,"Duration":336938,"SoundDuration":336938,"Delta":398419758},{"NoteNumber":46,"Velocity":67,"Duration":112359,"SoundDuration":112359,"Delta":398419758},{"NoteNumber":49,"Velocity":56,"Duration":112359,"SoundDuration":112359,"Delta":398532118},{"NoteNumber":53,"Velocity":57,"Duration":112219,"SoundDuration":112219,"Delta":398644477},{"NoteNumber":85,"Velocity":76,"Duration":111940,"SoundDuration":111940,"Delta":398756697},{"NoteNumber":97,"Velocity":91,"Duration":111940,"SoundDuration":111940,"Delta":398756697},{"NoteNumber":58,"Velocity":57,"Duration":111940,"SoundDuration":111940,"Delta":398756697},{"NoteNumber":82,"Velocity":81,"Duration":335127,"SoundDuration":335127,"Delta":398868637},{"NoteNumber":94,"Velocity":96,"Duration":335127,"SoundDuration":335127,"Delta":398868637},{"NoteNumber":46,"Velocity":67,"Duration":111940,"SoundDuration":111940,"Delta":398868637},{"NoteNumber":49,"Velocity":59,"Duration":111662,"SoundDuration":111662,"Delta":398980578},{"NoteNumber":53,"Velocity":59,"Duration":111524,"SoundDuration":111524,"Delta":399092241},{"NoteNumber":82,"Velocity":77,"Duration":111524,"SoundDuration":111524,"Delta":399203765},{"NoteNumber":94,"Velocity":92,"Duration":111524,"SoundDuration":111524,"Delta":399203765},{"NoteNumber":58,"Velocity":60,"Duration":111524,"SoundDuration":111524,"Delta":399203765},{"NoteNumber":78,"Velocity":81,"Duration":332924,"SoundDuration":332924,"Delta":399315289},{"NoteNumber":90,"Velocity":96,"Duration":332924,"SoundDuration":332924,"Delta":399315289},{"NoteNumber":46,"Velocity":67,"Duration":110701,"SoundDuration":110701,"Delta":399315289},{"NoteNumber":49,"Velocity":58,"Duration":110974,"SoundDuration":110974,"Delta":399425990},{"NoteNumber":54,"Velocity":58,"Duration":111248,"SoundDuration":111248,"Delta":399536964},{"NoteNumber":78,"Velocity":77,"Duration":111524,"SoundDuration":111524,"Delta":399648213},{"NoteNumber":90,"Velocity":92,"Duration":111524,"SoundDuration":111524,"Delta":399648213},{"NoteNumber":58,"Velocity":58,"Duration":111524,"SoundDuration":111524,"Delta":399648213},{"NoteNumber":73,"Velocity":77,"Duration":336243,"SoundDuration":336243,"Delta":399759737},{"NoteNumber":85,"Velocity":91,"Duration":336243,"SoundDuration":336243,"Delta":399759737},{"NoteNumber":46,"Velocity":67,"Duration":111940,"SoundDuration":111940,"Delta":399759737},{"NoteNumber":49,"Velocity":60,"Duration":111940,"SoundDuration":111940,"Delta":399871678},{"NoteNumber":54,"Velocity":60,"Duration":112362,"SoundDuration":112362,"Delta":399983618},{"NoteNumber":73,"Velocity":72,"Duration":113350,"SoundDuration":113350,"Delta":400095981},{"NoteNumber":85,"Velocity":86,"Duration":113350,"SoundDuration":113350,"Delta":400095981},{"NoteNumber":58,"Velocity":60,"Duration":113350,"SoundDuration":113350,"Delta":400095981},{"NoteNumber":74,"Velocity":77,"Duration":342643,"SoundDuration":342643,"Delta":400209331},{"NoteNumber":86,"Velocity":91,"Duration":342643,"SoundDuration":342643,"Delta":400209331},{"NoteNumber":46,"Velocity":67,"Duration":113780,"SoundDuration":113780,"Delta":400209331},{"NoteNumber":53,"Velocity":58,"Duration":114213,"SoundDuration":114213,"Delta":400323111},{"NoteNumber":56,"Velocity":58,"Duration":114649,"SoundDuration":114649,"Delta":400437325},{"NoteNumber":74,"Velocity":72,"Duration":115089,"SoundDuration":115089,"Delta":400551975},{"NoteNumber":86,"Velocity":86,"Duration":115089,"SoundDuration":115089,"Delta":400551975},{"NoteNumber":58,"Velocity":58,"Duration":115089,"SoundDuration":115089,"Delta":400551975},{"NoteNumber":70,"Velocity":77,"Duration":346153,"SoundDuration":346153,"Delta":400667065},{"NoteNumber":82,"Velocity":91,"Duration":346153,"SoundDuration":346153,"Delta":400667065},{"NoteNumber":46,"Velocity":67,"Duration":115384,"SoundDuration":115384,"Delta":400667065},{"NoteNumber":53,"Velocity":57,"Duration":115384,"SoundDuration":115384,"Delta":400782449},{"NoteNumber":56,"Velocity":57,"Duration":115384,"SoundDuration":115384,"Delta":400897834},{"NoteNumber":70,"Velocity":71,"Duration":115384,"SoundDuration":115384,"Delta":401013218},{"NoteNumber":82,"Velocity":85,"Duration":115384,"SoundDuration":115384,"Delta":401013218},{"NoteNumber":58,"Velocity":57,"Duration":115384,"SoundDuration":115384,"Delta":401013218},{"NoteNumber":75,"Velocity":79,"Duration":806765,"SoundDuration":806765,"Delta":401128603},{"NoteNumber":78,"Velocity":79,"Duration":806765,"SoundDuration":806765,"Delta":401128603},{"NoteNumber":82,"Velocity":79,"Duration":806765,"SoundDuration":806765,"Delta":401128603},{"NoteNumber":87,"Velocity":94,"Duration":806765,"SoundDuration":806765,"Delta":401128603},{"NoteNumber":46,"Velocity":67,"Duration":117519,"SoundDuration":117519,"Delta":401128603},{"NoteNumber":51,"Velocity":57,"Duration":115979,"SoundDuration":115979,"Delta":401246122},{"NoteNumber":54,"Velocity":57,"Duration":115533,"SoundDuration":115533,"Delta":401362102},{"NoteNumber":58,"Velocity":57,"Duration":115089,"SoundDuration":115089,"Delta":401477635},{"NoteNumber":46,"Velocity":67,"Duration":114649,"SoundDuration":114649,"Delta":401592725},{"NoteNumber":51,"Velocity":55,"Duration":114213,"SoundDuration":114213,"Delta":401707375},{"NoteNumber":54,"Velocity":55,"Duration":113780,"SoundDuration":113780,"Delta":401821588},{"NoteNumber":75,"Velocity":73,"Duration":113350,"SoundDuration":113350,"Delta":401935369},{"NoteNumber":87,"Velocity":87,"Duration":113350,"SoundDuration":113350,"Delta":401935369},{"NoteNumber":58,"Velocity":54,"Duration":113350,"SoundDuration":113350,"Delta":401935369},{"NoteNumber":78,"Velocity":77,"Duration":336938,"SoundDuration":336938,"Delta":402048719},{"NoteNumber":90,"Velocity":91,"Duration":336938,"SoundDuration":336938,"Delta":402048719},{"NoteNumber":46,"Velocity":63,"Duration":112359,"SoundDuration":112359,"Delta":402048719},{"NoteNumber":51,"Velocity":53,"Duration":112359,"SoundDuration":112359,"Delta":402161078},{"NoteNumber":54,"Velocity":54,"Duration":112219,"SoundDuration":112219,"Delta":402273438},{"NoteNumber":78,"Velocity":72,"Duration":111940,"SoundDuration":111940,"Delta":402385658},{"NoteNumber":90,"Velocity":86,"Duration":111940,"SoundDuration":111940,"Delta":402385658},{"NoteNumber":58,"Velocity":54,"Duration":111940,"SoundDuration":111940,"Delta":402385658},{"NoteNumber":75,"Velocity":77,"Duration":335127,"SoundDuration":335127,"Delta":402497598},{"NoteNumber":87,"Velocity":91,"Duration":335127,"SoundDuration":335127,"Delta":402497598},{"NoteNumber":46,"Velocity":63,"Duration":111940,"SoundDuration":111940,"Delta":402497598},{"NoteNumber":51,"Velocity":56,"Duration":111662,"SoundDuration":111662,"Delta":402609538},{"NoteNumber":54,"Velocity":56,"Duration":111524,"SoundDuration":111524,"Delta":402721201},{"NoteNumber":75,"Velocity":73,"Duration":111524,"SoundDuration":111524,"Delta":402832725},{"NoteNumber":87,"Velocity":87,"Duration":111524,"SoundDuration":111524,"Delta":402832725},{"NoteNumber":58,"Velocity":57,"Duration":111524,"SoundDuration":111524,"Delta":402832725},{"NoteNumber":71,"Velocity":77,"Duration":332924,"SoundDuration":332924,"Delta":402944250},{"NoteNumber":83,"Velocity":91,"Duration":332924,"SoundDuration":332924,"Delta":402944250},{"NoteNumber":47,"Velocity":63,"Duration":110701,"SoundDuration":110701,"Delta":402944250},{"NoteNumber":51,"Velocity":55,"Duration":110974,"SoundDuration":110974,"Delta":403054951},{"NoteNumber":54,"Velocity":55,"Duration":111248,"SoundDuration":111248,"Delta":403165925},{"NoteNumber":71,"Velocity":73,"Duration":111524,"SoundDuration":111524,"Delta":403277174},{"NoteNumber":83,"Velocity":87,"Duration":111524,"SoundDuration":111524,"Delta":403277174},{"NoteNumber":59,"Velocity":55,"Duration":111524,"SoundDuration":111524,"Delta":403277174},{"NoteNumber":70,"Velocity":73,"Duration":336243,"SoundDuration":336243,"Delta":403388698},{"NoteNumber":82,"Velocity":86,"Duration":336243,"SoundDuration":336243,"Delta":403388698},{"NoteNumber":47,"Velocity":63,"Duration":111940,"SoundDuration":111940,"Delta":403388698},{"NoteNumber":51,"Velocity":57,"Duration":111940,"SoundDuration":111940,"Delta":403500638},{"NoteNumber":54,"Velocity":57,"Duration":112362,"SoundDuration":112362,"Delta":403612578},{"NoteNumber":70,"Velocity":68,"Duration":113350,"SoundDuration":113350,"Delta":403724941},{"NoteNumber":82,"Velocity":80,"Duration":113350,"SoundDuration":113350,"Delta":403724941},{"NoteNumber":59,"Velocity":57,"Duration":113350,"SoundDuration":113350,"Delta":403724941},{"NoteNumber":69,"Velocity":73,"Duration":342643,"SoundDuration":342643,"Delta":403838292},{"NoteNumber":81,"Velocity":86,"Duration":342643,"SoundDuration":342643,"Delta":403838292},{"NoteNumber":48,"Velocity":63,"Duration":113780,"SoundDuration":113780,"Delta":403838292},{"NoteNumber":51,"Velocity":55,"Duration":114213,"SoundDuration":114213,"Delta":403952072},{"NoteNumber":53,"Velocity":55,"Duration":114649,"SoundDuration":114649,"Delta":404066285},{"NoteNumber":69,"Velocity":68,"Duration":115089,"SoundDuration":115089,"Delta":404180935},{"NoteNumber":81,"Velocity":80,"Duration":115089,"SoundDuration":115089,"Delta":404180935},{"NoteNumber":60,"Velocity":55,"Duration":115089,"SoundDuration":115089,"Delta":404180935},{"NoteNumber":77,"Velocity":73,"Duration":346153,"SoundDuration":346153,"Delta":404296025},{"NoteNumber":89,"Velocity":86,"Duration":346153,"SoundDuration":346153,"Delta":404296025},{"NoteNumber":48,"Velocity":63,"Duration":115384,"SoundDuration":115384,"Delta":404296025},{"NoteNumber":51,"Velocity":54,"Duration":115384,"SoundDuration":115384,"Delta":404411410},{"NoteNumber":53,"Velocity":54,"Duration":115384,"SoundDuration":115384,"Delta":404526794},{"NoteNumber":77,"Velocity":67,"Duration":115384,"SoundDuration":115384,"Delta":404642179},{"NoteNumber":89,"Velocity":79,"Duration":115384,"SoundDuration":115384,"Delta":404642179},{"NoteNumber":60,"Velocity":54,"Duration":115384,"SoundDuration":115384,"Delta":404642179},{"NoteNumber":70,"Velocity":79,"Duration":806765,"SoundDuration":806765,"Delta":404757563},{"NoteNumber":73,"Velocity":79,"Duration":806765,"SoundDuration":806765,"Delta":404757563},{"NoteNumber":77,"Velocity":79,"Duration":806765,"SoundDuration":806765,"Delta":404757563},{"NoteNumber":82,"Velocity":94,"Duration":806765,"SoundDuration":806765,"Delta":404757563},{"NoteNumber":49,"Velocity":63,"Duration":117519,"SoundDuration":117519,"Delta":404757563},{"NoteNumber":53,"Velocity":54,"Duration":115979,"SoundDuration":115979,"Delta":404875083},{"NoteNumber":58,"Velocity":54,"Duration":115533,"SoundDuration":115533,"Delta":404991062},{"NoteNumber":61,"Velocity":54,"Duration":115089,"SoundDuration":115089,"Delta":405106595},{"NoteNumber":49,"Velocity":63,"Duration":114649,"SoundDuration":114649,"Delta":405221685},{"NoteNumber":53,"Velocity":54,"Duration":114213,"SoundDuration":114213,"Delta":405336335},{"NoteNumber":58,"Velocity":54,"Duration":113780,"SoundDuration":113780,"Delta":405450549},{"NoteNumber":82,"Velocity":73,"Duration":113350,"SoundDuration":113350,"Delta":405564329},{"NoteNumber":94,"Velocity":87,"Duration":113350,"SoundDuration":113350,"Delta":405564329},{"NoteNumber":61,"Velocity":54,"Duration":113350,"SoundDuration":113350,"Delta":405564329},{"NoteNumber":85,"Velocity":77,"Duration":336938,"SoundDuration":336938,"Delta":405677679},{"NoteNumber":97,"Velocity":91,"Duration":336938,"SoundDuration":336938,"Delta":405677679},{"NoteNumber":49,"Velocity":63,"Duration":112359,"SoundDuration":112359,"Delta":405677679},{"NoteNumber":53,"Velocity":53,"Duration":112359,"SoundDuration":112359,"Delta":405790039},{"NoteNumber":58,"Velocity":54,"Duration":112219,"SoundDuration":112219,"Delta":405902398},{"NoteNumber":85,"Velocity":72,"Duration":111940,"SoundDuration":111940,"Delta":406014618},{"NoteNumber":97,"Velocity":86,"Duration":111940,"SoundDuration":111940,"Delta":406014618},{"NoteNumber":61,"Velocity":54,"Duration":111940,"SoundDuration":111940,"Delta":406014618},{"NoteNumber":82,"Velocity":77,"Duration":335127,"SoundDuration":335127,"Delta":406126558},{"NoteNumber":94,"Velocity":91,"Duration":335127,"SoundDuration":335127,"Delta":406126558},{"NoteNumber":49,"Velocity":63,"Duration":111940,"SoundDuration":111940,"Delta":406126558},{"NoteNumber":53,"Velocity":56,"Duration":111662,"SoundDuration":111662,"Delta":406238499},{"NoteNumber":58,"Velocity":56,"Duration":111524,"SoundDuration":111524,"Delta":406350162},{"NoteNumber":82,"Velocity":73,"Duration":111524,"SoundDuration":111524,"Delta":406461686},{"NoteNumber":94,"Velocity":87,"Duration":111524,"SoundDuration":111524,"Delta":406461686},{"NoteNumber":61,"Velocity":57,"Duration":111524,"SoundDuration":111524,"Delta":406461686},{"NoteNumber":78,"Velocity":77,"Duration":332924,"SoundDuration":332924,"Delta":406573210},{"NoteNumber":90,"Velocity":91,"Duration":332924,"SoundDuration":332924,"Delta":406573210},{"NoteNumber":49,"Velocity":63,"Duration":110701,"SoundDuration":110701,"Delta":406573210},{"NoteNumber":54,"Velocity":55,"Duration":110974,"SoundDuration":110974,"Delta":406683911},{"NoteNumber":58,"Velocity":55,"Duration":111248,"SoundDuration":111248,"Delta":406794885},{"NoteNumber":78,"Velocity":73,"Duration":111524,"SoundDuration":111524,"Delta":406906134},{"NoteNumber":90,"Velocity":87,"Duration":111524,"SoundDuration":111524,"Delta":406906134},{"NoteNumber":61,"Velocity":55,"Duration":111524,"SoundDuration":111524,"Delta":406906134},{"NoteNumber":73,"Velocity":73,"Duration":336243,"SoundDuration":336243,"Delta":407017658},{"NoteNumber":85,"Velocity":86,"Duration":336243,"SoundDuration":336243,"Delta":407017658},{"NoteNumber":49,"Velocity":63,"Duration":111940,"SoundDuration":111940,"Delta":407017658},{"NoteNumber":54,"Velocity":57,"Duration":111940,"SoundDuration":111940,"Delta":407129599},{"NoteNumber":58,"Velocity":57,"Duration":112362,"SoundDuration":112362,"Delta":407241539},{"NoteNumber":73,"Velocity":68,"Duration":113350,"SoundDuration":113350,"Delta":407353902},{"NoteNumber":85,"Velocity":80,"Duration":113350,"SoundDuration":113350,"Delta":407353902},{"NoteNumber":61,"Velocity":57,"Duration":113350,"SoundDuration":113350,"Delta":407353902},{"NoteNumber":77,"Velocity":73,"Duration":342643,"SoundDuration":342643,"Delta":407467252},{"NoteNumber":89,"Velocity":86,"Duration":342643,"SoundDuration":342643,"Delta":407467252},{"NoteNumber":49,"Velocity":63,"Duration":113780,"SoundDuration":113780,"Delta":407467252},{"NoteNumber":56,"Velocity":55,"Duration":114213,"SoundDuration":114213,"Delta":407581032},{"NoteNumber":59,"Velocity":55,"Duration":114649,"SoundDuration":114649,"Delta":407695246},{"NoteNumber":77,"Velocity":68,"Duration":115089,"SoundDuration":115089,"Delta":407809896},{"NoteNumber":89,"Velocity":80,"Duration":115089,"SoundDuration":115089,"Delta":407809896},{"NoteNumber":61,"Velocity":55,"Duration":115089,"SoundDuration":115089,"Delta":407809896},{"NoteNumber":73,"Velocity":73,"Duration":346153,"SoundDuration":346153,"Delta":407924986},{"NoteNumber":85,"Velocity":86,"Duration":346153,"SoundDuration":346153,"Delta":407924986},{"NoteNumber":49,"Velocity":63,"Duration":115384,"SoundDuration":115384,"Delta":407924986},{"NoteNumber":56,"Velocity":54,"Duration":115384,"SoundDuration":115384,"Delta":408040370},{"NoteNumber":59,"Velocity":54,"Duration":115384,"SoundDuration":115384,"Delta":408155755},{"NoteNumber":73,"Velocity":67,"Duration":115384,"SoundDuration":115384,"Delta":408271139},{"NoteNumber":85,"Velocity":79,"Duration":115384,"SoundDuration":115384,"Delta":408271139},{"NoteNumber":61,"Velocity":54,"Duration":115384,"SoundDuration":115384,"Delta":408271139},{"NoteNumber":78,"Velocity":79,"Duration":806765,"SoundDuration":806765,"Delta":408386524},{"NoteNumber":82,"Velocity":79,"Duration":806765,"SoundDuration":806765,"Delta":408386524},{"NoteNumber":85,"Velocity":79,"Duration":806765,"SoundDuration":806765,"Delta":408386524},{"NoteNumber":90,"Velocity":94,"Duration":806765,"SoundDuration":806765,"Delta":408386524},{"NoteNumber":49,"Velocity":67,"Duration":117519,"SoundDuration":117519,"Delta":408386524},{"NoteNumber":54,"Velocity":57,"Duration":115979,"SoundDuration":115979,"Delta":408504043},{"NoteNumber":58,"Velocity":57,"Duration":115533,"SoundDuration":115533,"Delta":408620023},{"NoteNumber":61,"Velocity":57,"Duration":115089,"SoundDuration":115089,"Delta":408735556},{"NoteNumber":49,"Velocity":67,"Duration":114649,"SoundDuration":114649,"Delta":408850646},{"NoteNumber":54,"Velocity":55,"Duration":114213,"SoundDuration":114213,"Delta":408965296},{"NoteNumber":58,"Velocity":55,"Duration":113780,"SoundDuration":113780,"Delta":409079509},{"NoteNumber":78,"Velocity":69,"Duration":113350,"SoundDuration":113350,"Delta":409193290},{"NoteNumber":90,"Velocity":81,"Duration":113350,"SoundDuration":113350,"Delta":409193290},{"NoteNumber":61,"Velocity":51,"Duration":113350,"SoundDuration":113350,"Delta":409193290},{"NoteNumber":82,"Velocity":73,"Duration":336938,"SoundDuration":336938,"Delta":409306640},{"NoteNumber":94,"Velocity":86,"Duration":336938,"SoundDuration":336938,"Delta":409306640},{"NoteNumber":50,"Velocity":59,"Duration":112359,"SoundDuration":112359,"Delta":409306640},{"NoteNumber":54,"Velocity":50,"Duration":112359,"SoundDuration":112359,"Delta":409418999},{"NoteNumber":58,"Velocity":51,"Duration":112219,"SoundDuration":112219,"Delta":409531359},{"NoteNumber":82,"Velocity":68,"Duration":111940,"SoundDuration":111940,"Delta":409643579},{"NoteNumber":94,"Velocity":80,"Duration":111940,"SoundDuration":111940,"Delta":409643579},{"NoteNumber":62,"Velocity":51,"Duration":111940,"SoundDuration":111940,"Delta":409643579},{"NoteNumber":78,"Velocity":73,"Duration":335127,"SoundDuration":335127,"Delta":409755519},{"NoteNumber":90,"Velocity":86,"Duration":335127,"SoundDuration":335127,"Delta":409755519},{"NoteNumber":51,"Velocity":59,"Duration":111940,"SoundDuration":111940,"Delta":409755519},{"NoteNumber":54,"Velocity":53,"Duration":111662,"SoundDuration":111662,"Delta":409867459},{"NoteNumber":58,"Velocity":53,"Duration":111524,"SoundDuration":111524,"Delta":409979122},{"NoteNumber":78,"Velocity":69,"Duration":111524,"SoundDuration":111524,"Delta":410090646},{"NoteNumber":90,"Velocity":81,"Duration":111524,"SoundDuration":111524,"Delta":410090646},{"NoteNumber":63,"Velocity":54,"Duration":111524,"SoundDuration":111524,"Delta":410090646},{"NoteNumber":77,"Velocity":73,"Duration":332924,"SoundDuration":332924,"Delta":410202171},{"NoteNumber":89,"Velocity":86,"Duration":332924,"SoundDuration":332924,"Delta":410202171},{"NoteNumber":53,"Velocity":59,"Duration":110701,"SoundDuration":110701,"Delta":410202171},{"NoteNumber":58,"Velocity":52,"Duration":110974,"SoundDuration":110974,"Delta":410312872},{"NoteNumber":61,"Velocity":52,"Duration":111248,"SoundDuration":111248,"Delta":410423846},{"NoteNumber":77,"Velocity":69,"Duration":111524,"SoundDuration":111524,"Delta":410535095},{"NoteNumber":89,"Velocity":81,"Duration":111524,"SoundDuration":111524,"Delta":410535095},{"NoteNumber":65,"Velocity":52,"Duration":111524,"SoundDuration":111524,"Delta":410535095},{"NoteNumber":75,"Velocity":69,"Duration":336243,"SoundDuration":336243,"Delta":410646619},{"NoteNumber":87,"Velocity":80,"Duration":336243,"SoundDuration":336243,"Delta":410646619},{"NoteNumber":54,"Velocity":59,"Duration":111940,"SoundDuration":111940,"Delta":410646619},{"NoteNumber":58,"Velocity":54,"Duration":111940,"SoundDuration":111940,"Delta":410758559},{"NoteNumber":61,"Velocity":54,"Duration":112362,"SoundDuration":112362,"Delta":410870499},{"NoteNumber":75,"Velocity":64,"Duration":113350,"SoundDuration":113350,"Delta":410982862},{"NoteNumber":87,"Velocity":76,"Duration":113350,"SoundDuration":113350,"Delta":410982862},{"NoteNumber":66,"Velocity":54,"Duration":113350,"SoundDuration":113350,"Delta":410982862},{"NoteNumber":77,"Velocity":69,"Duration":342643,"SoundDuration":342643,"Delta":411096213},{"NoteNumber":89,"Velocity":80,"Duration":342643,"SoundDuration":342643,"Delta":411096213},{"NoteNumber":53,"Velocity":59,"Duration":113780,"SoundDuration":113780,"Delta":411096213},{"NoteNumber":58,"Velocity":52,"Duration":114213,"SoundDuration":114213,"Delta":411209993},{"NoteNumber":61,"Velocity":52,"Duration":114649,"SoundDuration":114649,"Delta":411324206},{"NoteNumber":77,"Velocity":64,"Duration":115089,"SoundDuration":115089,"Delta":411438856},{"NoteNumber":89,"Velocity":76,"Duration":115089,"SoundDuration":115089,"Delta":411438856},{"NoteNumber":65,"Velocity":52,"Duration":115089,"SoundDuration":115089,"Delta":411438856},{"NoteNumber":77,"Velocity":69,"Duration":346153,"SoundDuration":346153,"Delta":411553946},{"NoteNumber":89,"Velocity":80,"Duration":346153,"SoundDuration":346153,"Delta":411553946},{"NoteNumber":53,"Velocity":59,"Duration":115384,"SoundDuration":115384,"Delta":411553946},{"NoteNumber":58,"Velocity":51,"Duration":115384,"SoundDuration":115384,"Delta":411669331},{"NoteNumber":61,"Velocity":51,"Duration":115384,"SoundDuration":115384,"Delta":411784715},{"NoteNumber":77,"Velocity":63,"Duration":115384,"SoundDuration":115384,"Delta":411900100},{"NoteNumber":89,"Velocity":75,"Duration":115384,"SoundDuration":115384,"Delta":411900100},{"NoteNumber":65,"Velocity":51,"Duration":115384,"SoundDuration":115384,"Delta":411900100},{"NoteNumber":77,"Velocity":66,"Duration":345317,"SoundDuration":345317,"Delta":412015484},{"NoteNumber":89,"Velocity":76,"Duration":345317,"SoundDuration":345317,"Delta":412015484},{"NoteNumber":53,"Velocity":56,"Duration":116454,"SoundDuration":116454,"Delta":412015484},{"NoteNumber":58,"Velocity":49,"Duration":114213,"SoundDuration":114213,"Delta":412131938},{"NoteNumber":60,"Velocity":48,"Duration":114649,"SoundDuration":114649,"Delta":412246152},{"NoteNumber":77,"Velocity":57,"Duration":115089,"SoundDuration":115089,"Delta":412360802},{"NoteNumber":89,"Velocity":68,"Duration":115089,"SoundDuration":115089,"Delta":412360802},{"NoteNumber":65,"Velocity":47,"Duration":115089,"SoundDuration":115089,"Delta":412360802},{"NoteNumber":77,"Velocity":60,"Duration":346153,"SoundDuration":346153,"Delta":412475892},{"NoteNumber":89,"Velocity":71,"Duration":346153,"SoundDuration":346153,"Delta":412475892},{"NoteNumber":53,"Velocity":51,"Duration":115384,"SoundDuration":115384,"Delta":412475892},{"NoteNumber":57,"Velocity":44,"Duration":115384,"SoundDuration":115384,"Delta":412591276},{"NoteNumber":60,"Velocity":43,"Duration":115384,"SoundDuration":115384,"Delta":412706661},{"NoteNumber":77,"Velocity":51,"Duration":115384,"SoundDuration":115384,"Delta":412822045},{"NoteNumber":89,"Velocity":61,"Duration":115384,"SoundDuration":115384,"Delta":412822045},{"NoteNumber":65,"Velocity":42,"Duration":115384,"SoundDuration":115384,"Delta":412822045},{"NoteNumber":82,"Velocity":58,"Duration":461538,"SoundDuration":461538,"Delta":412937430},{"NoteNumber":46,"Velocity":42,"Duration":76923,"SoundDuration":76923,"Delta":412937430},{"NoteNumber":62,"Velocity":42,"Duration":153845,"SoundDuration":153845,"Delta":413091276},{"NoteNumber":65,"Velocity":34,"Duration":153846,"SoundDuration":153846,"Delta":413245122},{"NoteNumber":58,"Velocity":34,"Duration":153845,"SoundDuration":153845,"Delta":413398968},{"NoteNumber":62,"Velocity":30,"Duration":153845,"SoundDuration":153845,"Delta":413552814},{"NoteNumber":65,"Velocity":30,"Duration":153846,"SoundDuration":153846,"Delta":413706660},{"NoteNumber":82,"Velocity":43,"Duration":115384,"SoundDuration":115384,"Delta":413745121},{"NoteNumber":86,"Velocity":48,"Duration":336938,"SoundDuration":336938,"Delta":413860506},{"NoteNumber":58,"Velocity":34,"Duration":149812,"SoundDuration":149812,"Delta":413860506},{"NoteNumber":62,"Velocity":29,"Duration":149812,"SoundDuration":149812,"Delta":414010319},{"NoteNumber":65,"Velocity":29,"Duration":149253,"SoundDuration":149253,"Delta":414160131},{"NoteNumber":86,"Velocity":43,"Duration":111940,"SoundDuration":111940,"Delta":414197445},{"NoteNumber":82,"Velocity":48,"Duration":335127,"SoundDuration":335127,"Delta":414309385},{"NoteNumber":58,"Velocity":34,"Duration":149253,"SoundDuration":149253,"Delta":414309385},{"NoteNumber":62,"Velocity":30,"Duration":148699,"SoundDuration":148699,"Delta":414458639},{"NoteNumber":65,"Velocity":30,"Duration":148698,"SoundDuration":148698,"Delta":414607338},{"NoteNumber":82,"Velocity":42,"Duration":111524,"SoundDuration":111524,"Delta":414644512},{"NoteNumber":77,"Velocity":48,"Duration":332924,"SoundDuration":332924,"Delta":414756037},{"NoteNumber":58,"Velocity":34,"Duration":147601,"SoundDuration":147601,"Delta":414756037},{"NoteNumber":62,"Velocity":30,"Duration":148147,"SoundDuration":148147,"Delta":414903638},{"NoteNumber":65,"Velocity":30,"Duration":148699,"SoundDuration":148699,"Delta":415051786},{"NoteNumber":77,"Velocity":43,"Duration":111524,"SoundDuration":111524,"Delta":415088961},{"NoteNumber":74,"Velocity":48,"Duration":336243,"SoundDuration":336243,"Delta":415200485},{"NoteNumber":56,"Velocity":34,"Duration":149253,"SoundDuration":149253,"Delta":415200485},{"NoteNumber":62,"Velocity":30,"Duration":149253,"SoundDuration":149253,"Delta":415349739},{"NoteNumber":65,"Velocity":30,"Duration":151086,"SoundDuration":151086,"Delta":415498992},{"NoteNumber":74,"Velocity":43,"Duration":113350,"SoundDuration":113350,"Delta":415536728},{"NoteNumber":75,"Velocity":48,"Duration":342643,"SoundDuration":342643,"Delta":415650078},{"NoteNumber":55,"Velocity":34,"Duration":151803,"SoundDuration":151803,"Delta":415650078},{"NoteNumber":63,"Velocity":29,"Duration":152526,"SoundDuration":152526,"Delta":415801882},{"NoteNumber":65,"Velocity":29,"Duration":153403,"SoundDuration":153403,"Delta":415954408},{"NoteNumber":75,"Velocity":42,"Duration":115089,"SoundDuration":115089,"Delta":415992722},{"NoteNumber":72,"Velocity":48,"Duration":346153,"SoundDuration":346153,"Delta":416107812},{"NoteNumber":57,"Velocity":34,"Duration":153846,"SoundDuration":153846,"Delta":416107812},{"NoteNumber":63,"Velocity":30,"Duration":153845,"SoundDuration":153845,"Delta":416261658},{"NoteNumber":65,"Velocity":30,"Duration":153845,"SoundDuration":153845,"Delta":416415504},{"NoteNumber":72,"Velocity":42,"Duration":115384,"SoundDuration":115384,"Delta":416453966},{"NoteNumber":77,"Velocity":48,"Duration":346153,"SoundDuration":346153,"Delta":416569350},{"NoteNumber":58,"Velocity":34,"Duration":153845,"SoundDuration":153845,"Delta":416569350},{"NoteNumber":62,"Velocity":31,"Duration":153845,"SoundDuration":153845,"Delta":416723196},{"NoteNumber":65,"Velocity":31,"Duration":153846,"SoundDuration":153846,"Delta":416877042},{"NoteNumber":82,"Velocity":36,"Duration":115384,"SoundDuration":115384,"Delta":416915504},{"NoteNumber":77,"Velocity":45,"Duration":230768,"SoundDuration":230768,"Delta":417030888},{"NoteNumber":58,"Velocity":34,"Duration":153845,"SoundDuration":153845,"Delta":417030888},{"NoteNumber":62,"Velocity":30,"Duration":153845,"SoundDuration":153845,"Delta":417184734},{"NoteNumber":65,"Velocity":30,"Duration":153846,"SoundDuration":153846,"Delta":417338580},{"NoteNumber":82,"Velocity":43,"Duration":115384,"SoundDuration":115384,"Delta":417377042},{"NoteNumber":86,"Velocity":48,"Duration":336938,"SoundDuration":336938,"Delta":417492426},{"NoteNumber":58,"Velocity":34,"Duration":149812,"SoundDuration":149812,"Delta":417492426},{"NoteNumber":62,"Velocity":29,"Duration":149812,"SoundDuration":149812,"Delta":417642239},{"NoteNumber":65,"Velocity":29,"Duration":149253,"SoundDuration":149253,"Delta":417792052},{"NoteNumber":86,"Velocity":45,"Duration":111940,"SoundDuration":111940,"Delta":417829365},{"NoteNumber":89,"Velocity":52,"Duration":335127,"SoundDuration":335127,"Delta":417941305},{"NoteNumber":57,"Velocity":34,"Duration":149253,"SoundDuration":149253,"Delta":417941305},{"NoteNumber":60,"Velocity":30,"Duration":148699,"SoundDuration":148699,"Delta":418090559},{"NoteNumber":65,"Velocity":30,"Duration":148698,"SoundDuration":148698,"Delta":418239258},{"NoteNumber":89,"Velocity":48,"Duration":111524,"SoundDuration":111524,"Delta":418276433},{"NoteNumber":94,"Velocity":52,"Duration":332924,"SoundDuration":332924,"Delta":418387957},{"NoteNumber":55,"Velocity":34,"Duration":147601,"SoundDuration":147601,"Delta":418387957},{"NoteNumber":58,"Velocity":30,"Duration":148147,"SoundDuration":148147,"Delta":418535558},{"NoteNumber":62,"Velocity":30,"Duration":148699,"SoundDuration":148699,"Delta":418683706},{"NoteNumber":94,"Velocity":50,"Duration":111524,"SoundDuration":111524,"Delta":418720881},{"NoteNumber":96,"Velocity":56,"Duration":336243,"SoundDuration":336243,"Delta":418832405},{"NoteNumber":55,"Velocity":34,"Duration":149253,"SoundDuration":149253,"Delta":418832405},{"NoteNumber":58,"Velocity":30,"Duration":149253,"SoundDuration":149253,"Delta":418981659},{"NoteNumber":64,"Velocity":30,"Duration":151086,"SoundDuration":151086,"Delta":419130913},{"NoteNumber":96,"Velocity":49,"Duration":113350,"SoundDuration":113350,"Delta":419168648},{"NoteNumber":98,"Velocity":55,"Duration":342643,"SoundDuration":342643,"Delta":419281999},{"NoteNumber":53,"Velocity":34,"Duration":151803,"SoundDuration":151803,"Delta":419281999},{"NoteNumber":58,"Velocity":29,"Duration":152526,"SoundDuration":152526,"Delta":419433802},{"NoteNumber":65,"Velocity":29,"Duration":153403,"SoundDuration":153403,"Delta":419586329},{"NoteNumber":98,"Velocity":48,"Duration":115089,"SoundDuration":115089,"Delta":419624643},{"NoteNumber":101,"Velocity":54,"Duration":346153,"SoundDuration":346153,"Delta":419739733},{"NoteNumber":53,"Velocity":34,"Duration":153846,"SoundDuration":153846,"Delta":419739733},{"NoteNumber":57,"Velocity":30,"Duration":153845,"SoundDuration":153845,"Delta":419893579},{"NoteNumber":65,"Velocity":30,"Duration":153845,"SoundDuration":153845,"Delta":420047425},{"NoteNumber":101,"Velocity":47,"Duration":115384,"SoundDuration":115384,"Delta":420085886},{"NoteNumber":98,"Velocity":53,"Duration":230769,"SoundDuration":230769,"Delta":420201271},{"NoteNumber":46,"Velocity":34,"Duration":76923,"SoundDuration":76923,"Delta":420201271},{"NoteNumber":62,"Velocity":31,"Duration":153845,"SoundDuration":153845,"Delta":420355117},{"NoteNumber":65,"Velocity":31,"Duration":153846,"SoundDuration":153846,"Delta":420508963},{"NoteNumber":58,"Velocity":34,"Duration":150943,"SoundDuration":150943,"Delta":420662809},{"NoteNumber":62,"Velocity":30,"Duration":150943,"SoundDuration":150943,"Delta":420813752},{"NoteNumber":65,"Velocity":30,"Duration":150943,"SoundDuration":150943,"Delta":420964695},{"NoteNumber":82,"Velocity":43,"Duration":113207,"SoundDuration":113207,"Delta":421002431},{"NoteNumber":86,"Velocity":48,"Duration":336938,"SoundDuration":336938,"Delta":421115639},{"NoteNumber":58,"Velocity":34,"Duration":149812,"SoundDuration":149812,"Delta":421115639},{"NoteNumber":62,"Velocity":29,"Duration":149812,"SoundDuration":149812,"Delta":421265451},{"NoteNumber":65,"Velocity":29,"Duration":149253,"SoundDuration":149253,"Delta":421415264},{"NoteNumber":86,"Velocity":43,"Duration":111940,"SoundDuration":111940,"Delta":421452577},{"NoteNumber":82,"Velocity":48,"Duration":335127,"SoundDuration":335127,"Delta":421564518},{"NoteNumber":58,"Velocity":34,"Duration":149253,"SoundDuration":149253,"Delta":421564518},{"NoteNumber":62,"Velocity":30,"Duration":148699,"SoundDuration":148699,"Delta":421713771},{"NoteNumber":65,"Velocity":30,"Duration":148698,"SoundDuration":148698,"Delta":421862470},{"NoteNumber":82,"Velocity":42,"Duration":111524,"SoundDuration":111524,"Delta":421899645},{"NoteNumber":77,"Velocity":48,"Duration":332924,"SoundDuration":332924,"Delta":422011169},{"NoteNumber":58,"Velocity":34,"Duration":147601,"SoundDuration":147601,"Delta":422011169},{"NoteNumber":62,"Velocity":30,"Duration":148147,"SoundDuration":148147,"Delta":422158771},{"NoteNumber":65,"Velocity":30,"Duration":148699,"SoundDuration":148699,"Delta":422306919},{"NoteNumber":77,"Velocity":43,"Duration":111524,"SoundDuration":111524,"Delta":422344093},{"NoteNumber":74,"Velocity":48,"Duration":336243,"SoundDuration":336243,"Delta":422455618},{"NoteNumber":56,"Velocity":34,"Duration":149253,"SoundDuration":149253,"Delta":422455618},{"NoteNumber":62,"Velocity":30,"Duration":149253,"SoundDuration":149253,"Delta":422604871},{"NoteNumber":65,"Velocity":30,"Duration":151086,"SoundDuration":151086,"Delta":422754125},{"NoteNumber":74,"Velocity":43,"Duration":113350,"SoundDuration":113350,"Delta":422791861},{"NoteNumber":77,"Velocity":48,"Duration":342643,"SoundDuration":342643,"Delta":422905211},{"NoteNumber":55,"Velocity":34,"Duration":151803,"SoundDuration":151803,"Delta":422905211},{"NoteNumber":63,"Velocity":29,"Duration":152526,"SoundDuration":152526,"Delta":423057014},{"NoteNumber":65,"Velocity":29,"Duration":153403,"SoundDuration":153403,"Delta":423209541},{"NoteNumber":77,"Velocity":42,"Duration":115089,"SoundDuration":115089,"Delta":423247855},{"NoteNumber":75,"Velocity":48,"Duration":346153,"SoundDuration":346153,"Delta":423362945},{"NoteNumber":57,"Velocity":34,"Duration":153846,"SoundDuration":153846,"Delta":423362945},{"NoteNumber":63,"Velocity":30,"Duration":153845,"SoundDuration":153845,"Delta":423516791},{"NoteNumber":65,"Velocity":30,"Duration":153845,"SoundDuration":153845,"Delta":423670637},{"NoteNumber":75,"Velocity":42,"Duration":115384,"SoundDuration":115384,"Delta":423709098},{"NoteNumber":74,"Velocity":48,"Duration":346153,"SoundDuration":346153,"Delta":423824483},{"NoteNumber":58,"Velocity":34,"Duration":153845,"SoundDuration":153845,"Delta":423824483},{"NoteNumber":62,"Velocity":31,"Duration":153845,"SoundDuration":153845,"Delta":423978329},{"NoteNumber":65,"Velocity":31,"Duration":153846,"SoundDuration":153846,"Delta":424132175},{"NoteNumber":82,"Velocity":36,"Duration":115384,"SoundDuration":115384,"Delta":424170636},{"NoteNumber":77,"Velocity":45,"Duration":230768,"SoundDuration":230768,"Delta":424286021},{"NoteNumber":58,"Velocity":34,"Duration":153845,"SoundDuration":153845,"Delta":424286021},{"NoteNumber":62,"Velocity":30,"Duration":153845,"SoundDuration":153845,"Delta":424439867},{"NoteNumber":65,"Velocity":30,"Duration":153846,"SoundDuration":153846,"Delta":424593713},{"NoteNumber":82,"Velocity":43,"Duration":115384,"SoundDuration":115384,"Delta":424632174},{"NoteNumber":86,"Velocity":48,"Duration":336938,"SoundDuration":336938,"Delta":424747559},{"NoteNumber":58,"Velocity":34,"Duration":149812,"SoundDuration":149812,"Delta":424747559},{"NoteNumber":62,"Velocity":29,"Duration":149812,"SoundDuration":149812,"Delta":424897372},{"NoteNumber":65,"Velocity":29,"Duration":149253,"SoundDuration":149253,"Delta":425047184},{"NoteNumber":86,"Velocity":45,"Duration":111940,"SoundDuration":111940,"Delta":425084498},{"NoteNumber":89,"Velocity":52,"Duration":335127,"SoundDuration":335127,"Delta":425196438},{"NoteNumber":57,"Velocity":34,"Duration":149253,"SoundDuration":149253,"Delta":425196438},{"NoteNumber":60,"Velocity":30,"Duration":148699,"SoundDuration":148699,"Delta":425345692},{"NoteNumber":65,"Velocity":30,"Duration":148698,"SoundDuration":148698,"Delta":425494391},{"NoteNumber":89,"Velocity":48,"Duration":111524,"SoundDuration":111524,"Delta":425531565},{"NoteNumber":94,"Velocity":52,"Duration":332924,"SoundDuration":332924,"Delta":425643090},{"NoteNumber":55,"Velocity":34,"Duration":147601,"SoundDuration":147601,"Delta":425643090},{"NoteNumber":58,"Velocity":30,"Duration":148147,"SoundDuration":148147,"Delta":425790691},{"NoteNumber":62,"Velocity":30,"Duration":148699,"SoundDuration":148699,"Delta":425938839},{"NoteNumber":94,"Velocity":50,"Duration":111524,"SoundDuration":111524,"Delta":425976014},{"NoteNumber":96,"Velocity":56,"Duration":336243,"SoundDuration":336243,"Delta":426087538},{"NoteNumber":55,"Velocity":34,"Duration":149253,"SoundDuration":149253,"Delta":426087538},{"NoteNumber":58,"Velocity":30,"Duration":149253,"SoundDuration":149253,"Delta":426236792},{"NoteNumber":64,"Velocity":30,"Duration":151086,"SoundDuration":151086,"Delta":426386045},{"NoteNumber":96,"Velocity":49,"Duration":113350,"SoundDuration":113350,"Delta":426423781},{"NoteNumber":98,"Velocity":55,"Duration":342643,"SoundDuration":342643,"Delta":426537131},{"NoteNumber":53,"Velocity":34,"Duration":151803,"SoundDuration":151803,"Delta":426537131},{"NoteNumber":58,"Velocity":29,"Duration":152526,"SoundDuration":152526,"Delta":426688935},{"NoteNumber":65,"Velocity":29,"Duration":153403,"SoundDuration":153403,"Delta":426841461},{"NoteNumber":98,"Velocity":48,"Duration":115089,"SoundDuration":115089,"Delta":426879775},{"NoteNumber":101,"Velocity":54,"Duration":346153,"SoundDuration":346153,"Delta":426994865},{"NoteNumber":53,"Velocity":34,"Duration":153846,"SoundDuration":153846,"Delta":426994865},{"NoteNumber":57,"Velocity":30,"Duration":153845,"SoundDuration":153845,"Delta":427148711},{"NoteNumber":65,"Velocity":30,"Duration":153845,"SoundDuration":153845,"Delta":427302557},{"NoteNumber":101,"Velocity":47,"Duration":115384,"SoundDuration":115384,"Delta":427341019},{"NoteNumber":94,"Velocity":53,"Duration":230769,"SoundDuration":230769,"Delta":427456403},{"NoteNumber":46,"Velocity":34,"Duration":76923,"SoundDuration":76923,"Delta":427456403},{"NoteNumber":62,"Velocity":31,"Duration":153845,"SoundDuration":153845,"Delta":427610249},{"NoteNumber":65,"Velocity":31,"Duration":153846,"SoundDuration":153846,"Delta":427764095},{"NoteNumber":58,"Velocity":34,"Duration":152091,"SoundDuration":152091,"Delta":427917941},{"NoteNumber":62,"Velocity":30,"Duration":152091,"SoundDuration":152091,"Delta":428070033},{"NoteNumber":65,"Velocity":30,"Duration":152091,"SoundDuration":152091,"Delta":428222124},{"NoteNumber":93,"Velocity":43,"Duration":114068,"SoundDuration":114068,"Delta":428260147},{"NoteNumber":94,"Velocity":48,"Duration":336938,"SoundDuration":336938,"Delta":428374215},{"NoteNumber":58,"Velocity":34,"Duration":149812,"SoundDuration":149812,"Delta":428374215},{"NoteNumber":62,"Velocity":29,"Duration":149812,"SoundDuration":149812,"Delta":428524028},{"NoteNumber":65,"Velocity":29,"Duration":149253,"SoundDuration":149253,"Delta":428673841},{"NoteNumber":94,"Velocity":45,"Duration":106343,"SoundDuration":106343,"Delta":428711154},{"NoteNumber":92,"Velocity":52,"Duration":335127,"SoundDuration":335127,"Delta":428823094},{"NoteNumber":59,"Velocity":34,"Duration":149253,"SoundDuration":149253,"Delta":428823094},{"NoteNumber":62,"Velocity":30,"Duration":148699,"SoundDuration":148699,"Delta":428972348},{"NoteNumber":65,"Velocity":30,"Duration":148698,"SoundDuration":148698,"Delta":429121047},{"NoteNumber":92,"Velocity":48,"Duration":105948,"SoundDuration":105948,"Delta":429158222},{"NoteNumber":89,"Velocity":52,"Duration":332924,"SoundDuration":332924,"Delta":429269746},{"NoteNumber":58,"Velocity":34,"Duration":147601,"SoundDuration":147601,"Delta":429269746},{"NoteNumber":62,"Velocity":30,"Duration":148147,"SoundDuration":148147,"Delta":429417347},{"NoteNumber":65,"Velocity":30,"Duration":148699,"SoundDuration":148699,"Delta":429565495},{"NoteNumber":89,"Velocity":50,"Duration":105948,"SoundDuration":105948,"Delta":429602670},{"NoteNumber":86,"Velocity":56,"Duration":334711,"SoundDuration":334711,"Delta":429714194},{"NoteNumber":59,"Velocity":34,"Duration":148837,"SoundDuration":148837,"Delta":429714194},{"NoteNumber":62,"Velocity":30,"Duration":148699,"SoundDuration":148699,"Delta":429863032},{"NoteNumber":65,"Velocity":30,"Duration":148698,"SoundDuration":148698,"Delta":430011731},{"NoteNumber":86,"Velocity":49,"Duration":111524,"SoundDuration":111524,"Delta":430048906},{"NoteNumber":89,"Velocity":55,"Duration":335682,"SoundDuration":335682,"Delta":430160430},{"NoteNumber":58,"Velocity":34,"Duration":149114,"SoundDuration":149114,"Delta":430160430},{"NoteNumber":62,"Velocity":29,"Duration":149253,"SoundDuration":149253,"Delta":430309545},{"NoteNumber":65,"Velocity":29,"Duration":149253,"SoundDuration":149253,"Delta":430458799},{"NoteNumber":89,"Velocity":48,"Duration":111940,"SoundDuration":111940,"Delta":430496112},{"NoteNumber":90,"Velocity":54,"Duration":336938,"SoundDuration":336938,"Delta":430608052},{"NoteNumber":56,"Velocity":34,"Duration":149672,"SoundDuration":149672,"Delta":430608052},{"NoteNumber":60,"Velocity":30,"Duration":149812,"SoundDuration":149812,"Delta":430757725},{"NoteNumber":66,"Velocity":30,"Duration":149812,"SoundDuration":149812,"Delta":430907538},{"NoteNumber":90,"Velocity":47,"Duration":112359,"SoundDuration":112359,"Delta":430944991},{"NoteNumber":91,"Velocity":55,"Duration":335820,"SoundDuration":335820,"Delta":431057350},{"NoteNumber":55,"Velocity":34,"Duration":149253,"SoundDuration":149253,"Delta":431057350},{"NoteNumber":59,"Velocity":28,"Duration":149253,"SoundDuration":149253,"Delta":431206604},{"NoteNumber":67,"Velocity":28,"Duration":149253,"SoundDuration":149253,"Delta":431355858},{"NoteNumber":91,"Velocity":47,"Duration":106343,"SoundDuration":106343,"Delta":431393171},{"NoteNumber":91,"Velocity":52,"Duration":336938,"SoundDuration":336938,"Delta":431505111},{"NoteNumber":55,"Velocity":33,"Duration":149672,"SoundDuration":149672,"Delta":431505111},{"NoteNumber":60,"Velocity":28,"Duration":149812,"SoundDuration":149812,"Delta":431654784},{"NoteNumber":63,"Velocity":28,"Duration":149812,"SoundDuration":149812,"Delta":431804597},{"NoteNumber":91,"Velocity":44,"Duration":106741,"SoundDuration":106741,"Delta":431842050},{"NoteNumber":91,"Velocity":51,"Duration":339911,"SoundDuration":339911,"Delta":431954410},{"NoteNumber":55,"Velocity":31,"Duration":150660,"SoundDuration":150660,"Delta":431954410},{"NoteNumber":59,"Velocity":26,"Duration":151372,"SoundDuration":151372,"Delta":432105070},{"NoteNumber":62,"Velocity":26,"Duration":151947,"SoundDuration":151947,"Delta":432256442},{"NoteNumber":91,"Velocity":43,"Duration":108365,"SoundDuration":108365,"Delta":432294321},{"NoteNumber":91,"Velocity":48,"Duration":343951,"SoundDuration":343951,"Delta":432408390},{"NoteNumber":55,"Velocity":30,"Duration":152526,"SoundDuration":152526,"Delta":432408390},{"NoteNumber":60,"Velocity":26,"Duration":153110,"SoundDuration":153110,"Delta":432560916},{"NoteNumber":63,"Velocity":26,"Duration":153698,"SoundDuration":153698,"Delta":432714027},{"NoteNumber":91,"Velocity":40,"Duration":109615,"SoundDuration":109615,"Delta":432752341},{"NoteNumber":91,"Velocity":47,"Duration":229159,"SoundDuration":229159,"Delta":432867725},{"NoteNumber":55,"Velocity":29,"Duration":152968,"SoundDuration":152968,"Delta":432867725},{"NoteNumber":59,"Velocity":27,"Duration":152526,"SoundDuration":152526,"Delta":433020694},{"NoteNumber":62,"Velocity":28,"Duration":153403,"SoundDuration":153403,"Delta":433173221},{"NoteNumber":55,"Velocity":34,"Duration":153846,"SoundDuration":153846,"Delta":433326625},{"NoteNumber":60,"Velocity":30,"Duration":155047,"SoundDuration":155047,"Delta":433480471},{"NoteNumber":63,"Velocity":30,"Duration":156250,"SoundDuration":156250,"Delta":433635519},{"NoteNumber":79,"Velocity":48,"Duration":87890,"SoundDuration":87890,"Delta":433674581},{"NoteNumber":80,"Velocity":53,"Duration":234375,"SoundDuration":234375,"Delta":433791769},{"NoteNumber":55,"Velocity":34,"Duration":156250,"SoundDuration":156250,"Delta":433791769},{"NoteNumber":59,"Velocity":31,"Duration":156870,"SoundDuration":156870,"Delta":433948019},{"NoteNumber":79,"Velocity":49,"Duration":118427,"SoundDuration":118427,"Delta":434026144},{"NoteNumber":62,"Velocity":31,"Duration":158729,"SoundDuration":158729,"Delta":434104889},{"NoteNumber":79,"Velocity":51,"Duration":119047,"SoundDuration":119047,"Delta":434263619},{"NoteNumber":55,"Velocity":34,"Duration":158729,"SoundDuration":158729,"Delta":434263619},{"NoteNumber":60,"Velocity":31,"Duration":159686,"SoundDuration":159686,"Delta":434422349},{"NoteNumber":79,"Velocity":49,"Duration":120481,"SoundDuration":120481,"Delta":434501714},{"NoteNumber":63,"Velocity":31,"Duration":160642,"SoundDuration":160642,"Delta":434582035},{"NoteNumber":79,"Velocity":47,"Duration":234375,"SoundDuration":234375,"Delta":434742678},{"NoteNumber":55,"Velocity":34,"Duration":156250,"SoundDuration":156250,"Delta":434742678},{"NoteNumber":59,"Velocity":30,"Duration":156250,"SoundDuration":156250,"Delta":434898928},{"NoteNumber":62,"Velocity":30,"Duration":156250,"SoundDuration":156250,"Delta":435055178},{"NoteNumber":55,"Velocity":34,"Duration":156250,"SoundDuration":156250,"Delta":435211428},{"NoteNumber":60,"Velocity":30,"Duration":156250,"SoundDuration":156250,"Delta":435367678},{"NoteNumber":63,"Velocity":30,"Duration":156250,"SoundDuration":156250,"Delta":435523928},{"NoteNumber":94,"Velocity":48,"Duration":87890,"SoundDuration":87890,"Delta":435562990},{"NoteNumber":92,"Velocity":53,"Duration":234375,"SoundDuration":234375,"Delta":435680178},{"NoteNumber":55,"Velocity":34,"Duration":156250,"SoundDuration":156250,"Delta":435680178},{"NoteNumber":59,"Velocity":31,"Duration":156870,"SoundDuration":156870,"Delta":435836428},{"NoteNumber":91,"Velocity":49,"Duration":118427,"SoundDuration":118427,"Delta":435914553},{"NoteNumber":62,"Velocity":31,"Duration":158729,"SoundDuration":158729,"Delta":435993298},{"NoteNumber":91,"Velocity":51,"Duration":119047,"SoundDuration":119047,"Delta":436152028},{"NoteNumber":55,"Velocity":34,"Duration":158729,"SoundDuration":158729,"Delta":436152028},{"NoteNumber":60,"Velocity":31,"Duration":159686,"SoundDuration":159686,"Delta":436310758},{"NoteNumber":91,"Velocity":49,"Duration":120481,"SoundDuration":120481,"Delta":436390123},{"NoteNumber":63,"Velocity":31,"Duration":160642,"SoundDuration":160642,"Delta":436470444},{"NoteNumber":91,"Velocity":47,"Duration":234375,"SoundDuration":234375,"Delta":436631087},{"NoteNumber":55,"Velocity":34,"Duration":156250,"SoundDuration":156250,"Delta":436631087},{"NoteNumber":59,"Velocity":30,"Duration":156250,"SoundDuration":156250,"Delta":436787337},{"NoteNumber":62,"Velocity":30,"Duration":156250,"SoundDuration":156250,"Delta":436943587},{"NoteNumber":55,"Velocity":34,"Duration":156250,"SoundDuration":156250,"Delta":437099837},{"NoteNumber":60,"Velocity":30,"Duration":156250,"SoundDuration":156250,"Delta":437256087},{"NoteNumber":63,"Velocity":30,"Duration":156250,"SoundDuration":156250,"Delta":437412337},{"NoteNumber":67,"Velocity":48,"Duration":87890,"SoundDuration":87890,"Delta":437451399},{"NoteNumber":68,"Velocity":53,"Duration":234375,"SoundDuration":234375,"Delta":437568587},{"NoteNumber":55,"Velocity":34,"Duration":156250,"SoundDuration":156250,"Delta":437568587},{"NoteNumber":59,"Velocity":31,"Duration":156870,"SoundDuration":156870,"Delta":437724837},{"NoteNumber":67,"Velocity":49,"Duration":118427,"SoundDuration":118427,"Delta":437802962},{"NoteNumber":62,"Velocity":31,"Duration":158729,"SoundDuration":158729,"Delta":437881707},{"NoteNumber":67,"Velocity":51,"Duration":119047,"SoundDuration":119047,"Delta":438040437},{"NoteNumber":55,"Velocity":34,"Duration":158729,"SoundDuration":158729,"Delta":438040437},{"NoteNumber":60,"Velocity":31,"Duration":159686,"SoundDuration":159686,"Delta":438199167},{"NoteNumber":67,"Velocity":49,"Duration":120481,"SoundDuration":120481,"Delta":438278532},{"NoteNumber":63,"Velocity":31,"Duration":160642,"SoundDuration":160642,"Delta":438358853},{"NoteNumber":67,"Velocity":47,"Duration":234375,"SoundDuration":234375,"Delta":438519496},{"NoteNumber":55,"Velocity":34,"Duration":156250,"SoundDuration":156250,"Delta":438519496},{"NoteNumber":59,"Velocity":30,"Duration":156250,"SoundDuration":156250,"Delta":438675746},{"NoteNumber":62,"Velocity":30,"Duration":156250,"SoundDuration":156250,"Delta":438831996},{"NoteNumber":55,"Velocity":34,"Duration":156250,"SoundDuration":156250,"Delta":438988246},{"NoteNumber":60,"Velocity":30,"Duration":156250,"SoundDuration":156250,"Delta":439144496},{"NoteNumber":63,"Velocity":30,"Duration":156250,"SoundDuration":156250,"Delta":439300746},{"NoteNumber":82,"Velocity":48,"Duration":87890,"SoundDuration":87890,"Delta":439339808},{"NoteNumber":80,"Velocity":53,"Duration":234375,"SoundDuration":234375,"Delta":439456996},{"NoteNumber":55,"Velocity":34,"Duration":156250,"SoundDuration":156250,"Delta":439456996},{"NoteNumber":59,"Velocity":31,"Duration":156870,"SoundDuration":156870,"Delta":439613246},{"NoteNumber":79,"Velocity":49,"Duration":118427,"SoundDuration":118427,"Delta":439691371},{"NoteNumber":62,"Velocity":31,"Duration":158729,"SoundDuration":158729,"Delta":439770116},{"NoteNumber":79,"Velocity":51,"Duration":119047,"SoundDuration":119047,"Delta":439928846},{"NoteNumber":55,"Velocity":34,"Duration":158729,"SoundDuration":158729,"Delta":439928846},{"NoteNumber":60,"Velocity":31,"Duration":159686,"SoundDuration":159686,"Delta":440087576},{"NoteNumber":79,"Velocity":49,"Duration":120481,"SoundDuration":120481,"Delta":440166941},{"NoteNumber":63,"Velocity":31,"Duration":160642,"SoundDuration":160642,"Delta":440247262},{"NoteNumber":80,"Velocity":53,"Duration":240963,"SoundDuration":240963,"Delta":440407905},{"NoteNumber":55,"Velocity":34,"Duration":160642,"SoundDuration":160642,"Delta":440407905},{"NoteNumber":59,"Velocity":31,"Duration":160164,"SoundDuration":160164,"Delta":440568547},{"NoteNumber":79,"Velocity":49,"Duration":119525,"SoundDuration":119525,"Delta":440648869},{"NoteNumber":62,"Velocity":31,"Duration":158729,"SoundDuration":158729,"Delta":440728712},{"NoteNumber":79,"Velocity":51,"Duration":119047,"SoundDuration":119047,"Delta":440887442},{"NoteNumber":55,"Velocity":34,"Duration":158729,"SoundDuration":158729,"Delta":440887442},{"NoteNumber":60,"Velocity":31,"Duration":165201,"SoundDuration":165201,"Delta":441046172},{"NoteNumber":79,"Velocity":49,"Duration":128755,"SoundDuration":128755,"Delta":441125537},{"NoteNumber":63,"Velocity":31,"Duration":171673,"SoundDuration":171673,"Delta":441211374},{"NoteNumber":79,"Velocity":53,"Duration":248962,"SoundDuration":248962,"Delta":441383047},{"NoteNumber":62,"Velocity":34,"Duration":248962,"SoundDuration":248962,"Delta":441383047},{"NoteNumber":59,"Velocity":34,"Duration":248962,"SoundDuration":248962,"Delta":441383047},{"NoteNumber":55,"Velocity":34,"Duration":248962,"SoundDuration":248962,"Delta":441383047},{"NoteNumber":67,"Velocity":94,"Duration":1338792,"SoundDuration":1338792,"Delta":441880972},{"NoteNumber":55,"Velocity":78,"Duration":1338792,"SoundDuration":1338792,"Delta":441880972},{"NoteNumber":74,"Velocity":47,"Duration":243902,"SoundDuration":243902,"Delta":442975862},{"NoteNumber":72,"Velocity":56,"Duration":221402,"SoundDuration":221402,"Delta":443219765},{"NoteNumber":55,"Velocity":37,"Duration":221402,"SoundDuration":221402,"Delta":443219765},{"NoteNumber":71,"Velocity":33,"Duration":110701,"SoundDuration":110701,"Delta":443441167},{"NoteNumber":67,"Velocity":28,"Duration":110701,"SoundDuration":110701,"Delta":443441167},{"NoteNumber":71,"Velocity":37,"Duration":109681,"SoundDuration":109681,"Delta":443662569},{"NoteNumber":65,"Velocity":28,"Duration":109681,"SoundDuration":109681,"Delta":443662569},{"NoteNumber":62,"Velocity":23,"Duration":109681,"SoundDuration":109681,"Delta":443662569},{"NoteNumber":71,"Velocity":33,"Duration":111940,"SoundDuration":111940,"Delta":443881931},{"NoteNumber":67,"Velocity":28,"Duration":111940,"SoundDuration":111940,"Delta":443881931},{"NoteNumber":71,"Velocity":49,"Duration":219362,"SoundDuration":219362,"Delta":444105812},{"NoteNumber":55,"Velocity":38,"Duration":219362,"SoundDuration":219362,"Delta":444105812},{"NoteNumber":72,"Velocity":36,"Duration":109681,"SoundDuration":109681,"Delta":444325174},{"NoteNumber":67,"Velocity":25,"Duration":109681,"SoundDuration":109681,"Delta":444325174},{"NoteNumber":60,"Velocity":26,"Duration":109681,"SoundDuration":109681,"Delta":444544537},{"NoteNumber":63,"Velocity":31,"Duration":109681,"SoundDuration":109681,"Delta":444544537},{"NoteNumber":75,"Velocity":46,"Duration":224534,"SoundDuration":224534,"Delta":444763899},{"NoteNumber":67,"Velocity":28,"Duration":224534,"SoundDuration":224534,"Delta":444763899},{"NoteNumber":72,"Velocity":56,"Duration":218182,"SoundDuration":218182,"Delta":444988433},{"NoteNumber":55,"Velocity":37,"Duration":218182,"SoundDuration":218182,"Delta":444988433},{"NoteNumber":71,"Velocity":33,"Duration":109090,"SoundDuration":109090,"Delta":445206615},{"NoteNumber":67,"Velocity":28,"Duration":109090,"SoundDuration":109090,"Delta":445206615},{"NoteNumber":71,"Velocity":38,"Duration":110701,"SoundDuration":110701,"Delta":445424797},{"NoteNumber":65,"Velocity":28,"Duration":110701,"SoundDuration":110701,"Delta":445424797},{"NoteNumber":62,"Velocity":23,"Duration":110701,"SoundDuration":110701,"Delta":445424797},{"NoteNumber":71,"Velocity":33,"Duration":113207,"SoundDuration":113207,"Delta":445646199},{"NoteNumber":67,"Velocity":26,"Duration":113207,"SoundDuration":113207,"Delta":445646199},{"NoteNumber":71,"Velocity":51,"Duration":222221,"SoundDuration":222221,"Delta":445872614},{"NoteNumber":55,"Velocity":38,"Duration":222221,"SoundDuration":222221,"Delta":445872614},{"NoteNumber":72,"Velocity":42,"Duration":114942,"SoundDuration":114942,"Delta":446094836},{"NoteNumber":67,"Velocity":28,"Duration":114942,"SoundDuration":114942,"Delta":446094836},{"NoteNumber":60,"Velocity":26,"Duration":118577,"SoundDuration":118577,"Delta":446324721},{"NoteNumber":63,"Velocity":31,"Duration":118577,"SoundDuration":118577,"Delta":446324721},{"NoteNumber":67,"Velocity":31,"Duration":148514,"SoundDuration":148514,"Delta":446561875},{"NoteNumber":66,"Velocity":67,"Duration":1792150,"SoundDuration":1792150,"Delta":446858905},{"NoteNumber":54,"Velocity":55,"Duration":1792150,"SoundDuration":1792150,"Delta":446858905},{"NoteNumber":75,"Velocity":47,"Duration":239043,"SoundDuration":239043,"Delta":448412012},{"NoteNumber":72,"Velocity":56,"Duration":221402,"SoundDuration":221402,"Delta":448651056},{"NoteNumber":54,"Velocity":37,"Duration":221402,"SoundDuration":221402,"Delta":448651056},{"NoteNumber":71,"Velocity":32,"Duration":110701,"SoundDuration":110701,"Delta":448872458},{"NoteNumber":66,"Velocity":27,"Duration":110701,"SoundDuration":110701,"Delta":448872458},{"NoteNumber":71,"Velocity":37,"Duration":109681,"SoundDuration":109681,"Delta":449093860},{"NoteNumber":63,"Velocity":27,"Duration":109681,"SoundDuration":109681,"Delta":449093860},{"NoteNumber":56,"Velocity":22,"Duration":109681,"SoundDuration":109681,"Delta":449093860},{"NoteNumber":71,"Velocity":33,"Duration":111940,"SoundDuration":111940,"Delta":449313222},{"NoteNumber":66,"Velocity":28,"Duration":111940,"SoundDuration":111940,"Delta":449313222},{"NoteNumber":71,"Velocity":47,"Duration":219362,"SoundDuration":219362,"Delta":449537103},{"NoteNumber":54,"Velocity":37,"Duration":219362,"SoundDuration":219362,"Delta":449537103},{"NoteNumber":72,"Velocity":34,"Duration":109681,"SoundDuration":109681,"Delta":449756465},{"NoteNumber":66,"Velocity":24,"Duration":109681,"SoundDuration":109681,"Delta":449756465},{"NoteNumber":57,"Velocity":24,"Duration":109681,"SoundDuration":109681,"Delta":449975828},{"NoteNumber":63,"Velocity":29,"Duration":109681,"SoundDuration":109681,"Delta":449975828},{"NoteNumber":75,"Velocity":44,"Duration":224534,"SoundDuration":224534,"Delta":450195190},{"NoteNumber":66,"Velocity":27,"Duration":224534,"SoundDuration":224534,"Delta":450195190},{"NoteNumber":72,"Velocity":53,"Duration":218977,"SoundDuration":218977,"Delta":450419724},{"NoteNumber":54,"Velocity":35,"Duration":218977,"SoundDuration":218977,"Delta":450419724},{"NoteNumber":71,"Velocity":31,"Duration":109488,"SoundDuration":109488,"Delta":450638702},{"NoteNumber":66,"Velocity":26,"Duration":109488,"SoundDuration":109488,"Delta":450638702},{"NoteNumber":71,"Velocity":36,"Duration":111110,"SoundDuration":111110,"Delta":450857680},{"NoteNumber":63,"Velocity":25,"Duration":111110,"SoundDuration":111110,"Delta":450857680},{"NoteNumber":56,"Velocity":21,"Duration":111110,"SoundDuration":111110,"Delta":450857680},{"NoteNumber":71,"Velocity":30,"Duration":115830,"SoundDuration":115830,"Delta":451079902},{"NoteNumber":66,"Velocity":24,"Duration":115830,"SoundDuration":115830,"Delta":451079902},{"NoteNumber":71,"Velocity":47,"Duration":223048,"SoundDuration":223048,"Delta":451311562},{"NoteNumber":54,"Velocity":36,"Duration":223048,"SoundDuration":223048,"Delta":451311562},{"NoteNumber":72,"Velocity":37,"Duration":116279,"SoundDuration":116279,"Delta":451534611},{"NoteNumber":66,"Velocity":26,"Duration":116279,"SoundDuration":116279,"Delta":451534611},{"NoteNumber":57,"Velocity":23,"Duration":120000,"SoundDuration":120000,"Delta":451767169},{"NoteNumber":63,"Velocity":28,"Duration":120000,"SoundDuration":120000,"Delta":451767169},{"NoteNumber":66,"Velocity":28,"Duration":144230,"SoundDuration":144230,"Delta":452007169},{"NoteNumber":65,"Velocity":59,"Duration":1767299,"SoundDuration":1767299,"Delta":452295630},{"NoteNumber":53,"Velocity":50,"Duration":1767299,"SoundDuration":1767299,"Delta":452295630},{"NoteNumber":75,"Velocity":44,"Duration":226312,"SoundDuration":226312,"Delta":453836617},{"NoteNumber":72,"Velocity":53,"Duration":217391,"SoundDuration":217391,"Delta":454062930},{"NoteNumber":53,"Velocity":35,"Duration":217391,"SoundDuration":217391,"Delta":454062930},{"NoteNumber":71,"Velocity":35,"Duration":108695,"SoundDuration":108695,"Delta":454280321},{"NoteNumber":65,"Velocity":29,"Duration":108695,"SoundDuration":108695,"Delta":454280321},{"NoteNumber":71,"Velocity":40,"Duration":109681,"SoundDuration":109681,"Delta":454497713},{"NoteNumber":62,"Velocity":29,"Duration":109681,"SoundDuration":109681,"Delta":454497713},{"NoteNumber":56,"Velocity":24,"Duration":109681,"SoundDuration":109681,"Delta":454497713},{"NoteNumber":71,"Velocity":35,"Duration":111940,"SoundDuration":111940,"Delta":454717075},{"NoteNumber":65,"Velocity":30,"Duration":111940,"SoundDuration":111940,"Delta":454717075},{"NoteNumber":71,"Velocity":47,"Duration":219362,"SoundDuration":219362,"Delta":454940956},{"NoteNumber":53,"Velocity":36,"Duration":219362,"SoundDuration":219362,"Delta":454940956},{"NoteNumber":72,"Velocity":34,"Duration":109681,"SoundDuration":109681,"Delta":455160318},{"NoteNumber":65,"Velocity":23,"Duration":109681,"SoundDuration":109681,"Delta":455160318},{"NoteNumber":57,"Velocity":24,"Duration":109681,"SoundDuration":109681,"Delta":455379681},{"NoteNumber":63,"Velocity":29,"Duration":109681,"SoundDuration":109681,"Delta":455379681},{"NoteNumber":75,"Velocity":43,"Duration":224534,"SoundDuration":224534,"Delta":455599043},{"NoteNumber":65,"Velocity":27,"Duration":224534,"SoundDuration":224534,"Delta":455599043},{"NoteNumber":72,"Velocity":53,"Duration":217391,"SoundDuration":217391,"Delta":455823577},{"NoteNumber":53,"Velocity":35,"Duration":217391,"SoundDuration":217391,"Delta":455823577},{"NoteNumber":71,"Velocity":35,"Duration":108695,"SoundDuration":108695,"Delta":456040969},{"NoteNumber":65,"Velocity":29,"Duration":108695,"SoundDuration":108695,"Delta":456040969},{"NoteNumber":71,"Velocity":40,"Duration":109257,"SoundDuration":109257,"Delta":456258360},{"NoteNumber":62,"Velocity":29,"Duration":109257,"SoundDuration":109257,"Delta":456258360},{"NoteNumber":56,"Velocity":24,"Duration":109257,"SoundDuration":109257,"Delta":456258360},{"NoteNumber":71,"Velocity":35,"Duration":112266,"SoundDuration":112266,"Delta":456476876},{"NoteNumber":65,"Velocity":28,"Duration":112266,"SoundDuration":112266,"Delta":456476876},{"NoteNumber":71,"Velocity":48,"Duration":219362,"SoundDuration":219362,"Delta":456701410},{"NoteNumber":53,"Velocity":36,"Duration":219362,"SoundDuration":219362,"Delta":456701410},{"NoteNumber":72,"Velocity":39,"Duration":116731,"SoundDuration":116731,"Delta":456920772},{"NoteNumber":65,"Velocity":27,"Duration":116731,"SoundDuration":116731,"Delta":456920772},{"NoteNumber":72,"Velocity":54,"Duration":218977,"SoundDuration":218977,"Delta":457154235},{"NoteNumber":57,"Velocity":29,"Duration":218977,"SoundDuration":218977,"Delta":457154235},{"NoteNumber":63,"Velocity":35,"Duration":218977,"SoundDuration":218977,"Delta":457154235},{"NoteNumber":79,"Velocity":48,"Duration":223663,"SoundDuration":223663,"Delta":457373213},{"NoteNumber":65,"Velocity":35,"Duration":223663,"SoundDuration":223663,"Delta":457373213},{"NoteNumber":79,"Velocity":59,"Duration":215054,"SoundDuration":215054,"Delta":457596877},{"NoteNumber":53,"Velocity":44,"Duration":215054,"SoundDuration":215054,"Delta":457596877},{"NoteNumber":77,"Velocity":51,"Duration":219780,"SoundDuration":219780,"Delta":457811931},{"NoteNumber":65,"Velocity":33,"Duration":219780,"SoundDuration":219780,"Delta":457811931},{"NoteNumber":77,"Velocity":55,"Duration":221402,"SoundDuration":221402,"Delta":458031711},{"NoteNumber":62,"Velocity":35,"Duration":221402,"SoundDuration":221402,"Delta":458031711},{"NoteNumber":58,"Velocity":35,"Duration":221402,"SoundDuration":221402,"Delta":458031711},{"NoteNumber":74,"Velocity":52,"Duration":221402,"SoundDuration":221402,"Delta":458253113},{"NoteNumber":65,"Velocity":33,"Duration":221402,"SoundDuration":221402,"Delta":458253113},{"NoteNumber":71,"Velocity":57,"Duration":221401,"SoundDuration":221401,"Delta":458474515},{"NoteNumber":53,"Velocity":37,"Duration":221401,"SoundDuration":221401,"Delta":458474515},{"NoteNumber":72,"Velocity":47,"Duration":110701,"SoundDuration":110701,"Delta":458695917},{"NoteNumber":65,"Velocity":33,"Duration":110701,"SoundDuration":110701,"Delta":458695917},{"NoteNumber":72,"Velocity":57,"Duration":221402,"SoundDuration":221402,"Delta":458917319},{"NoteNumber":57,"Velocity":29,"Duration":221402,"SoundDuration":221402,"Delta":458917319},{"NoteNumber":63,"Velocity":35,"Duration":221402,"SoundDuration":221402,"Delta":458917319},{"NoteNumber":79,"Velocity":50,"Duration":223663,"SoundDuration":223663,"Delta":459138721},{"NoteNumber":65,"Velocity":35,"Duration":223663,"SoundDuration":223663,"Delta":459138721},{"NoteNumber":79,"Velocity":64,"Duration":215054,"SoundDuration":215054,"Delta":459362384},{"NoteNumber":53,"Velocity":44,"Duration":215054,"SoundDuration":215054,"Delta":459362384},{"NoteNumber":77,"Velocity":55,"Duration":219780,"SoundDuration":219780,"Delta":459577438},{"NoteNumber":65,"Velocity":33,"Duration":219780,"SoundDuration":219780,"Delta":459577438},{"NoteNumber":77,"Velocity":57,"Duration":221402,"SoundDuration":221402,"Delta":459797218},{"NoteNumber":62,"Velocity":35,"Duration":221402,"SoundDuration":221402,"Delta":459797218},{"NoteNumber":58,"Velocity":35,"Duration":221402,"SoundDuration":221402,"Delta":459797218},{"NoteNumber":74,"Velocity":52,"Duration":221402,"SoundDuration":221402,"Delta":460018620},{"NoteNumber":65,"Velocity":33,"Duration":221402,"SoundDuration":221402,"Delta":460018620},{"NoteNumber":71,"Velocity":56,"Duration":221401,"SoundDuration":221401,"Delta":460240022},{"NoteNumber":53,"Velocity":37,"Duration":221401,"SoundDuration":221401,"Delta":460240022},{"NoteNumber":72,"Velocity":44,"Duration":221402,"SoundDuration":221402,"Delta":460461424},{"NoteNumber":65,"Velocity":33,"Duration":221402,"SoundDuration":221402,"Delta":460461424},{"NoteNumber":75,"Velocity":48,"Duration":221402,"SoundDuration":221402,"Delta":460682826},{"NoteNumber":63,"Velocity":33,"Duration":221402,"SoundDuration":221402,"Delta":460682826},{"NoteNumber":57,"Velocity":33,"Duration":221402,"SoundDuration":221402,"Delta":460682826},{"NoteNumber":69,"Velocity":40,"Duration":221402,"SoundDuration":221402,"Delta":460904228},{"NoteNumber":65,"Velocity":33,"Duration":221402,"SoundDuration":221402,"Delta":460904228},{"NoteNumber":86,"Velocity":86,"Duration":175223,"SoundDuration":175223,"Delta":461784557},{"NoteNumber":74,"Velocity":72,"Duration":175223,"SoundDuration":175223,"Delta":461784557},{"NoteNumber":66,"Velocity":71,"Duration":175223,"SoundDuration":175223,"Delta":461784557},{"NoteNumber":54,"Velocity":59,"Duration":175223,"SoundDuration":175223,"Delta":461784557},{"NoteNumber":84,"Velocity":93,"Duration":168029,"SoundDuration":168029,"Delta":461959781},{"NoteNumber":72,"Velocity":77,"Duration":168029,"SoundDuration":168029,"Delta":461959781},{"NoteNumber":55,"Velocity":64,"Duration":340097,"SoundDuration":340097,"Delta":461959781},{"NoteNumber":67,"Velocity":76,"Duration":340097,"SoundDuration":340097,"Delta":461959781},{"NoteNumber":82,"Velocity":86,"Duration":86033,"SoundDuration":86033,"Delta":462127810},{"NoteNumber":70,"Velocity":72,"Duration":86033,"SoundDuration":86033,"Delta":462127810},{"NoteNumber":82,"Velocity":86,"Duration":86033,"SoundDuration":86033,"Delta":462299878},{"NoteNumber":70,"Velocity":72,"Duration":86033,"SoundDuration":86033,"Delta":462299878},{"NoteNumber":50,"Velocity":55,"Duration":344134,"SoundDuration":344134,"Delta":462299878},{"NoteNumber":62,"Velocity":66,"Duration":344134,"SoundDuration":344134,"Delta":462299878},{"NoteNumber":70,"Velocity":72,"Duration":86033,"SoundDuration":86033,"Delta":462471945},{"NoteNumber":82,"Velocity":86,"Duration":86033,"SoundDuration":86033,"Delta":462471945},{"NoteNumber":67,"Velocity":77,"Duration":168520,"SoundDuration":168520,"Delta":462644013},{"NoteNumber":79,"Velocity":93,"Duration":168520,"SoundDuration":168520,"Delta":462644013},{"NoteNumber":51,"Velocity":65,"Duration":340588,"SoundDuration":340588,"Delta":462644013},{"NoteNumber":63,"Velocity":77,"Duration":340588,"SoundDuration":340588,"Delta":462644013},{"NoteNumber":65,"Velocity":73,"Duration":86033,"SoundDuration":86033,"Delta":462812533},{"NoteNumber":77,"Velocity":88,"Duration":86033,"SoundDuration":86033,"Delta":462812533},{"NoteNumber":65,"Velocity":73,"Duration":86033,"SoundDuration":86033,"Delta":462984601},{"NoteNumber":77,"Velocity":88,"Duration":86033,"SoundDuration":86033,"Delta":462984601},{"NoteNumber":45,"Velocity":55,"Duration":86033,"SoundDuration":86033,"Delta":462984601},{"NoteNumber":57,"Velocity":67,"Duration":86033,"SoundDuration":86033,"Delta":462984601},{"NoteNumber":65,"Velocity":73,"Duration":86033,"SoundDuration":86033,"Delta":463156668},{"NoteNumber":77,"Velocity":88,"Duration":86033,"SoundDuration":86033,"Delta":463156668},{"NoteNumber":45,"Velocity":55,"Duration":86033,"SoundDuration":86033,"Delta":463156668},{"NoteNumber":57,"Velocity":67,"Duration":86033,"SoundDuration":86033,"Delta":463156668},{"NoteNumber":65,"Velocity":77,"Duration":169014,"SoundDuration":169014,"Delta":463328736},{"NoteNumber":75,"Velocity":93,"Duration":169014,"SoundDuration":169014,"Delta":463328736},{"NoteNumber":46,"Velocity":64,"Duration":341081,"SoundDuration":341081,"Delta":463328736},{"NoteNumber":58,"Velocity":76,"Duration":341081,"SoundDuration":341081,"Delta":463328736},{"NoteNumber":62,"Velocity":73,"Duration":86033,"SoundDuration":86033,"Delta":463497750},{"NoteNumber":74,"Velocity":88,"Duration":86033,"SoundDuration":86033,"Delta":463497750},{"NoteNumber":62,"Velocity":73,"Duration":86033,"SoundDuration":86033,"Delta":463669817},{"NoteNumber":74,"Velocity":88,"Duration":86033,"SoundDuration":86033,"Delta":463669817},{"NoteNumber":42,"Velocity":55,"Duration":344134,"SoundDuration":344134,"Delta":463669817},{"NoteNumber":54,"Velocity":67,"Duration":344134,"SoundDuration":344134,"Delta":463669817},{"NoteNumber":62,"Velocity":73,"Duration":86033,"SoundDuration":86033,"Delta":463841885},{"NoteNumber":74,"Velocity":88,"Duration":86033,"SoundDuration":86033,"Delta":463841885},{"NoteNumber":60,"Velocity":77,"Duration":167531,"SoundDuration":167531,"Delta":464013952},{"NoteNumber":72,"Velocity":92,"Duration":167531,"SoundDuration":167531,"Delta":464013952},{"NoteNumber":43,"Velocity":64,"Duration":339077,"SoundDuration":339077,"Delta":464013952},{"NoteNumber":55,"Velocity":76,"Duration":339077,"SoundDuration":339077,"Delta":464013952},{"NoteNumber":58,"Velocity":73,"Duration":85773,"SoundDuration":85773,"Delta":464181484},{"NoteNumber":70,"Velocity":88,"Duration":85773,"SoundDuration":85773,"Delta":464181484},{"NoteNumber":58,"Velocity":73,"Duration":85773,"SoundDuration":85773,"Delta":464353030},{"NoteNumber":70,"Velocity":88,"Duration":85773,"SoundDuration":85773,"Delta":464353030},{"NoteNumber":38,"Velocity":55,"Duration":85773,"SoundDuration":85773,"Delta":464353030},{"NoteNumber":50,"Velocity":67,"Duration":85773,"SoundDuration":85773,"Delta":464353030},{"NoteNumber":58,"Velocity":73,"Duration":85772,"SoundDuration":85772,"Delta":464524576},{"NoteNumber":70,"Velocity":88,"Duration":85772,"SoundDuration":85772,"Delta":464524576},{"NoteNumber":38,"Velocity":55,"Duration":85772,"SoundDuration":85772,"Delta":464524576},{"NoteNumber":50,"Velocity":67,"Duration":85772,"SoundDuration":85772,"Delta":464524576},{"NoteNumber":57,"Velocity":77,"Duration":167531,"SoundDuration":167531,"Delta":464696122},{"NoteNumber":69,"Velocity":92,"Duration":167531,"SoundDuration":167531,"Delta":464696122},{"NoteNumber":39,"Velocity":64,"Duration":339599,"SoundDuration":339599,"Delta":464696122},{"NoteNumber":51,"Velocity":76,"Duration":339599,"SoundDuration":339599,"Delta":464696122},{"NoteNumber":55,"Velocity":73,"Duration":86033,"SoundDuration":86033,"Delta":464863654},{"NoteNumber":67,"Velocity":88,"Duration":86033,"SoundDuration":86033,"Delta":464863654},{"NoteNumber":55,"Velocity":73,"Duration":86033,"SoundDuration":86033,"Delta":465035722},{"NoteNumber":67,"Velocity":88,"Duration":86033,"SoundDuration":86033,"Delta":465035722},{"NoteNumber":48,"Velocity":67,"Duration":86033,"SoundDuration":86033,"Delta":465035722},{"NoteNumber":55,"Velocity":73,"Duration":86033,"SoundDuration":86033,"Delta":465207789},{"NoteNumber":67,"Velocity":88,"Duration":86033,"SoundDuration":86033,"Delta":465207789},{"NoteNumber":50,"Velocity":67,"Duration":86033,"SoundDuration":86033,"Delta":465207789},{"NoteNumber":69,"Velocity":77,"Duration":167531,"SoundDuration":167531,"Delta":465379857},{"NoteNumber":81,"Velocity":92,"Duration":167531,"SoundDuration":167531,"Delta":465379857},{"NoteNumber":39,"Velocity":64,"Duration":339599,"SoundDuration":339599,"Delta":465379857},{"NoteNumber":51,"Velocity":76,"Duration":339599,"SoundDuration":339599,"Delta":465379857},{"NoteNumber":67,"Velocity":73,"Duration":86033,"SoundDuration":86033,"Delta":465547389},{"NoteNumber":79,"Velocity":88,"Duration":86033,"SoundDuration":86033,"Delta":465547389},{"NoteNumber":67,"Velocity":73,"Duration":86033,"SoundDuration":86033,"Delta":465719456},{"NoteNumber":79,"Velocity":88,"Duration":86033,"SoundDuration":86033,"Delta":465719456},{"NoteNumber":48,"Velocity":67,"Duration":86033,"SoundDuration":86033,"Delta":465719456},{"NoteNumber":67,"Velocity":73,"Duration":86033,"SoundDuration":86033,"Delta":465891524},{"NoteNumber":79,"Velocity":88,"Duration":86033,"SoundDuration":86033,"Delta":465891524},{"NoteNumber":50,"Velocity":67,"Duration":86033,"SoundDuration":86033,"Delta":465891524},{"NoteNumber":81,"Velocity":77,"Duration":167531,"SoundDuration":167531,"Delta":466063591},{"NoteNumber":93,"Velocity":92,"Duration":167531,"SoundDuration":167531,"Delta":466063591},{"NoteNumber":39,"Velocity":64,"Duration":339599,"SoundDuration":339599,"Delta":466063591},{"NoteNumber":51,"Velocity":76,"Duration":339599,"SoundDuration":339599,"Delta":466063591},{"NoteNumber":79,"Velocity":73,"Duration":86033,"SoundDuration":86033,"Delta":466231123},{"NoteNumber":91,"Velocity":88,"Duration":86033,"SoundDuration":86033,"Delta":466231123},{"NoteNumber":79,"Velocity":73,"Duration":86033,"SoundDuration":86033,"Delta":466403191},{"NoteNumber":91,"Velocity":88,"Duration":86033,"SoundDuration":86033,"Delta":466403191},{"NoteNumber":48,"Velocity":67,"Duration":86033,"SoundDuration":86033,"Delta":466403191},{"NoteNumber":79,"Velocity":73,"Duration":86033,"SoundDuration":86033,"Delta":466575258},{"NoteNumber":91,"Velocity":88,"Duration":86033,"SoundDuration":86033,"Delta":466575258},{"NoteNumber":50,"Velocity":67,"Duration":86033,"SoundDuration":86033,"Delta":466575258},{"NoteNumber":78,"Velocity":77,"Duration":167531,"SoundDuration":167531,"Delta":466747326},{"NoteNumber":90,"Velocity":92,"Duration":167531,"SoundDuration":167531,"Delta":466747326},{"NoteNumber":39,"Velocity":64,"Duration":167531,"SoundDuration":167531,"Delta":466747326},{"NoteNumber":51,"Velocity":76,"Duration":167531,"SoundDuration":167531,"Delta":466747326},{"NoteNumber":79,"Velocity":73,"Duration":86033,"SoundDuration":86033,"Delta":466914858},{"NoteNumber":91,"Velocity":88,"Duration":86033,"SoundDuration":86033,"Delta":466914858},{"NoteNumber":51,"Velocity":67,"Duration":86033,"SoundDuration":86033,"Delta":466914858},{"NoteNumber":79,"Velocity":73,"Duration":86033,"SoundDuration":86033,"Delta":467086925},{"NoteNumber":91,"Velocity":88,"Duration":86033,"SoundDuration":86033,"Delta":467086925},{"NoteNumber":48,"Velocity":67,"Duration":86033,"SoundDuration":86033,"Delta":467086925},{"NoteNumber":79,"Velocity":73,"Duration":95492,"SoundDuration":95492,"Delta":467258993},{"NoteNumber":91,"Velocity":88,"Duration":95492,"SoundDuration":95492,"Delta":467258993},{"NoteNumber":50,"Velocity":67,"Duration":95492,"SoundDuration":95492,"Delta":467258993},{"NoteNumber":79,"Velocity":90,"Duration":381970,"SoundDuration":381970,"Delta":467449978},{"NoteNumber":82,"Velocity":90,"Duration":381970,"SoundDuration":381970,"Delta":467449978},{"NoteNumber":87,"Velocity":90,"Duration":381970,"SoundDuration":381970,"Delta":467449978},{"NoteNumber":91,"Velocity":107,"Duration":381970,"SoundDuration":381970,"Delta":467449978},{"NoteNumber":51,"Velocity":70,"Duration":381970,"SoundDuration":381970,"Delta":467449978},{"NoteNumber":55,"Velocity":70,"Duration":381970,"SoundDuration":381970,"Delta":467449978},{"NoteNumber":58,"Velocity":70,"Duration":381970,"SoundDuration":381970,"Delta":467449978},{"NoteNumber":63,"Velocity":82,"Duration":381970,"SoundDuration":381970,"Delta":467449978},{"NoteNumber":81,"Velocity":90,"Duration":381971,"SoundDuration":381971,"Delta":468977862},{"NoteNumber":87,"Velocity":90,"Duration":381971,"SoundDuration":381971,"Delta":468977862},{"NoteNumber":93,"Velocity":107,"Duration":381971,"SoundDuration":381971,"Delta":468977862},{"NoteNumber":41,"Velocity":70,"Duration":381971,"SoundDuration":381971,"Delta":468977862},{"NoteNumber":48,"Velocity":70,"Duration":381971,"SoundDuration":381971,"Delta":468977862},{"NoteNumber":53,"Velocity":82,"Duration":381971,"SoundDuration":381971,"Delta":468977862},{"NoteNumber":82,"Velocity":103,"Duration":368591,"SoundDuration":368591,"Delta":470560358},{"NoteNumber":86,"Velocity":103,"Duration":368591,"SoundDuration":368591,"Delta":470560358},{"NoteNumber":94,"Velocity":120,"Duration":368591,"SoundDuration":368591,"Delta":470560358},{"NoteNumber":34,"Velocity":82,"Duration":126063,"SoundDuration":126063,"Delta":470560358},{"NoteNumber":41,"Velocity":52,"Duration":121263,"SoundDuration":121263,"Delta":470686422},{"NoteNumber":46,"Velocity":52,"Duration":121263,"SoundDuration":121263,"Delta":470807686},{"NoteNumber":34,"Velocity":49,"Duration":119367,"SoundDuration":119367,"Delta":470928949},{"NoteNumber":41,"Velocity":45,"Duration":118091,"SoundDuration":118091,"Delta":471048317},{"NoteNumber":86,"Velocity":54,"Duration":175223,"SoundDuration":175223,"Delta":471108000},{"NoteNumber":75,"Velocity":46,"Duration":175223,"SoundDuration":175223,"Delta":471108000},{"NoteNumber":46,"Velocity":45,"Duration":116815,"SoundDuration":116815,"Delta":471166408},{"NoteNumber":84,"Velocity":58,"Duration":168029,"SoundDuration":168029,"Delta":471283224},{"NoteNumber":77,"Velocity":49,"Duration":340097,"SoundDuration":340097,"Delta":471283224},{"NoteNumber":34,"Velocity":50,"Duration":112019,"SoundDuration":112019,"Delta":471283224},{"NoteNumber":41,"Velocity":45,"Duration":113365,"SoundDuration":113365,"Delta":471395243},{"NoteNumber":82,"Velocity":54,"Duration":86033,"SoundDuration":86033,"Delta":471451253},{"NoteNumber":46,"Velocity":45,"Duration":114711,"SoundDuration":114711,"Delta":471508609},{"NoteNumber":82,"Velocity":54,"Duration":86033,"SoundDuration":86033,"Delta":471623321},{"NoteNumber":74,"Velocity":46,"Duration":86033,"SoundDuration":86033,"Delta":471623321},{"NoteNumber":34,"Velocity":49,"Duration":114711,"SoundDuration":114711,"Delta":471623321},{"NoteNumber":41,"Velocity":45,"Duration":114711,"SoundDuration":114711,"Delta":471738032},{"NoteNumber":74,"Velocity":46,"Duration":86033,"SoundDuration":86033,"Delta":471795388},{"NoteNumber":82,"Velocity":54,"Duration":86033,"SoundDuration":86033,"Delta":471795388},{"NoteNumber":46,"Velocity":45,"Duration":114711,"SoundDuration":114711,"Delta":471852744},{"NoteNumber":75,"Velocity":49,"Duration":168520,"SoundDuration":168520,"Delta":471967456},{"NoteNumber":79,"Velocity":58,"Duration":168520,"SoundDuration":168520,"Delta":471967456},{"NoteNumber":34,"Velocity":49,"Duration":112346,"SoundDuration":112346,"Delta":471967456},{"NoteNumber":41,"Velocity":45,"Duration":113529,"SoundDuration":113529,"Delta":472079803},{"NoteNumber":77,"Velocity":55,"Duration":86033,"SoundDuration":86033,"Delta":472135976},{"NoteNumber":46,"Velocity":45,"Duration":114711,"SoundDuration":114711,"Delta":472193332},{"NoteNumber":69,"Velocity":46,"Duration":86033,"SoundDuration":86033,"Delta":472308044},{"NoteNumber":77,"Velocity":55,"Duration":86033,"SoundDuration":86033,"Delta":472308044},{"NoteNumber":34,"Velocity":48,"Duration":114711,"SoundDuration":114711,"Delta":472308044},{"NoteNumber":41,"Velocity":45,"Duration":114711,"SoundDuration":114711,"Delta":472422755},{"NoteNumber":69,"Velocity":46,"Duration":86033,"SoundDuration":86033,"Delta":472480111},{"NoteNumber":77,"Velocity":55,"Duration":86033,"SoundDuration":86033,"Delta":472480111},{"NoteNumber":46,"Velocity":45,"Duration":114711,"SoundDuration":114711,"Delta":472537467},{"NoteNumber":70,"Velocity":49,"Duration":341081,"SoundDuration":341081,"Delta":472652179},{"NoteNumber":75,"Velocity":58,"Duration":169014,"SoundDuration":169014,"Delta":472652179},{"NoteNumber":34,"Velocity":49,"Duration":112676,"SoundDuration":112676,"Delta":472652179},{"NoteNumber":41,"Velocity":45,"Duration":113693,"SoundDuration":113693,"Delta":472764855},{"NoteNumber":74,"Velocity":55,"Duration":86033,"SoundDuration":86033,"Delta":472821193},{"NoteNumber":46,"Velocity":45,"Duration":114711,"SoundDuration":114711,"Delta":472878549},{"NoteNumber":64,"Velocity":46,"Duration":86033,"SoundDuration":86033,"Delta":472993260},{"NoteNumber":74,"Velocity":55,"Duration":86033,"SoundDuration":86033,"Delta":472993260},{"NoteNumber":34,"Velocity":49,"Duration":114711,"SoundDuration":114711,"Delta":472993260},{"NoteNumber":41,"Velocity":45,"Duration":114711,"SoundDuration":114711,"Delta":473107972},{"NoteNumber":64,"Velocity":46,"Duration":86033,"SoundDuration":86033,"Delta":473165328},{"NoteNumber":74,"Velocity":55,"Duration":86033,"SoundDuration":86033,"Delta":473165328},{"NoteNumber":46,"Velocity":45,"Duration":114711,"SoundDuration":114711,"Delta":473222684},{"NoteNumber":65,"Velocity":49,"Duration":339077,"SoundDuration":339077,"Delta":473337395},{"NoteNumber":72,"Velocity":58,"Duration":167531,"SoundDuration":167531,"Delta":473337395},{"NoteNumber":34,"Velocity":48,"Duration":111688,"SoundDuration":111688,"Delta":473337395},{"NoteNumber":41,"Velocity":45,"Duration":113025,"SoundDuration":113025,"Delta":473449083},{"NoteNumber":70,"Velocity":55,"Duration":85773,"SoundDuration":85773,"Delta":473504927},{"NoteNumber":46,"Velocity":45,"Duration":114363,"SoundDuration":114363,"Delta":473562109},{"NoteNumber":62,"Velocity":46,"Duration":85773,"SoundDuration":85773,"Delta":473676473},{"NoteNumber":70,"Velocity":55,"Duration":85773,"SoundDuration":85773,"Delta":473676473},{"NoteNumber":34,"Velocity":50,"Duration":114364,"SoundDuration":114364,"Delta":473676473},{"NoteNumber":41,"Velocity":45,"Duration":114364,"SoundDuration":114364,"Delta":473790837},{"NoteNumber":62,"Velocity":46,"Duration":85772,"SoundDuration":85772,"Delta":473848019},{"NoteNumber":70,"Velocity":55,"Duration":85772,"SoundDuration":85772,"Delta":473848019},{"NoteNumber":46,"Velocity":45,"Duration":114363,"SoundDuration":114363,"Delta":473905201},{"NoteNumber":63,"Velocity":49,"Duration":339599,"SoundDuration":339599,"Delta":474019565},{"NoteNumber":67,"Velocity":58,"Duration":167531,"SoundDuration":167531,"Delta":474019565},{"NoteNumber":34,"Velocity":49,"Duration":111688,"SoundDuration":111688,"Delta":474019565},{"NoteNumber":41,"Velocity":45,"Duration":113199,"SoundDuration":113199,"Delta":474131253},{"NoteNumber":65,"Velocity":55,"Duration":86033,"SoundDuration":86033,"Delta":474187097},{"NoteNumber":46,"Velocity":45,"Duration":114711,"SoundDuration":114711,"Delta":474244453},{"NoteNumber":57,"Velocity":46,"Duration":86033,"SoundDuration":86033,"Delta":474359165},{"NoteNumber":65,"Velocity":56,"Duration":86033,"SoundDuration":86033,"Delta":474359165},{"NoteNumber":34,"Velocity":50,"Duration":114711,"SoundDuration":114711,"Delta":474359165},{"NoteNumber":41,"Velocity":46,"Duration":114711,"SoundDuration":114711,"Delta":474473876},{"NoteNumber":57,"Velocity":47,"Duration":86033,"SoundDuration":86033,"Delta":474531232},{"NoteNumber":65,"Velocity":56,"Duration":86033,"SoundDuration":86033,"Delta":474531232},{"NoteNumber":46,"Velocity":46,"Duration":114711,"SoundDuration":114711,"Delta":474588588},{"NoteNumber":63,"Velocity":50,"Duration":339599,"SoundDuration":339599,"Delta":474703300},{"NoteNumber":67,"Velocity":60,"Duration":167531,"SoundDuration":167531,"Delta":474703300},{"NoteNumber":34,"Velocity":50,"Duration":111688,"SoundDuration":111688,"Delta":474703300},{"NoteNumber":41,"Velocity":47,"Duration":113199,"SoundDuration":113199,"Delta":474814988},{"NoteNumber":65,"Velocity":58,"Duration":86033,"SoundDuration":86033,"Delta":474870832},{"NoteNumber":46,"Velocity":47,"Duration":114711,"SoundDuration":114711,"Delta":474928188},{"NoteNumber":57,"Velocity":49,"Duration":86033,"SoundDuration":86033,"Delta":475042899},{"NoteNumber":65,"Velocity":58,"Duration":86033,"SoundDuration":86033,"Delta":475042899},{"NoteNumber":34,"Velocity":53,"Duration":114711,"SoundDuration":114711,"Delta":475042899},{"NoteNumber":41,"Velocity":48,"Duration":114711,"SoundDuration":114711,"Delta":475157611},{"NoteNumber":57,"Velocity":49,"Duration":86033,"SoundDuration":86033,"Delta":475214967},{"NoteNumber":65,"Velocity":59,"Duration":86033,"SoundDuration":86033,"Delta":475214967},{"NoteNumber":46,"Velocity":48,"Duration":114711,"SoundDuration":114711,"Delta":475272323},{"NoteNumber":63,"Velocity":52,"Duration":339599,"SoundDuration":339599,"Delta":475387034},{"NoteNumber":67,"Velocity":63,"Duration":167531,"SoundDuration":167531,"Delta":475387034},{"NoteNumber":34,"Velocity":52,"Duration":111688,"SoundDuration":111688,"Delta":475387034},{"NoteNumber":41,"Velocity":49,"Duration":113199,"SoundDuration":113199,"Delta":475498722},{"NoteNumber":65,"Velocity":60,"Duration":86033,"SoundDuration":86033,"Delta":475554566},{"NoteNumber":46,"Velocity":49,"Duration":114711,"SoundDuration":114711,"Delta":475611922},{"NoteNumber":57,"Velocity":51,"Duration":86033,"SoundDuration":86033,"Delta":475726634},{"NoteNumber":65,"Velocity":60,"Duration":86033,"SoundDuration":86033,"Delta":475726634},{"NoteNumber":34,"Velocity":55,"Duration":114711,"SoundDuration":114711,"Delta":475726634},{"NoteNumber":41,"Velocity":50,"Duration":114711,"SoundDuration":114711,"Delta":475841345},{"NoteNumber":65,"Velocity":61,"Duration":86033,"SoundDuration":86033,"Delta":475898701},{"NoteNumber":57,"Velocity":51,"Duration":86033,"SoundDuration":86033,"Delta":475898701},{"NoteNumber":46,"Velocity":50,"Duration":114711,"SoundDuration":114711,"Delta":475956057},{"NoteNumber":57,"Velocity":47,"Duration":344134,"SoundDuration":344134,"Delta":476070769},{"NoteNumber":67,"Velocity":67,"Duration":172067,"SoundDuration":172067,"Delta":476070769},{"NoteNumber":63,"Velocity":47,"Duration":344134,"SoundDuration":344134,"Delta":476070769},{"NoteNumber":34,"Velocity":55,"Duration":114711,"SoundDuration":114711,"Delta":476070769},{"NoteNumber":41,"Velocity":51,"Duration":114711,"SoundDuration":114711,"Delta":476185480},{"NoteNumber":65,"Velocity":63,"Duration":86033,"SoundDuration":86033,"Delta":476242836},{"NoteNumber":46,"Velocity":51,"Duration":114711,"SoundDuration":114711,"Delta":476300192},{"NoteNumber":70,"Velocity":71,"Duration":166564,"SoundDuration":166564,"Delta":476414904},{"NoteNumber":65,"Velocity":59,"Duration":336585,"SoundDuration":336585,"Delta":476414904},{"NoteNumber":63,"Velocity":59,"Duration":336585,"SoundDuration":336585,"Delta":476414904},{"NoteNumber":34,"Velocity":57,"Duration":111043,"SoundDuration":111043,"Delta":476414904},{"NoteNumber":41,"Velocity":52,"Duration":112194,"SoundDuration":112194,"Delta":476525947},{"NoteNumber":69,"Velocity":67,"Duration":85010,"SoundDuration":85010,"Delta":476581469},{"NoteNumber":46,"Velocity":52,"Duration":113346,"SoundDuration":113346,"Delta":476638142},{"NoteNumber":74,"Velocity":75,"Duration":164645,"SoundDuration":164645,"Delta":476751489},{"NoteNumber":69,"Velocity":63,"Duration":333756,"SoundDuration":333756,"Delta":476751489},{"NoteNumber":63,"Velocity":63,"Duration":333756,"SoundDuration":333756,"Delta":476751489},{"NoteNumber":34,"Velocity":55,"Duration":109763,"SoundDuration":109763,"Delta":476751489},{"NoteNumber":41,"Velocity":51,"Duration":111646,"SoundDuration":111646,"Delta":476861252},{"NoteNumber":72,"Velocity":71,"Duration":84851,"SoundDuration":84851,"Delta":476916134},{"NoteNumber":46,"Velocity":51,"Duration":112346,"SoundDuration":112346,"Delta":476972898},{"NoteNumber":69,"Velocity":64,"Duration":328377,"SoundDuration":328377,"Delta":477085245},{"NoteNumber":75,"Velocity":64,"Duration":328377,"SoundDuration":328377,"Delta":477085245},{"NoteNumber":79,"Velocity":76,"Duration":162778,"SoundDuration":162778,"Delta":477085245},{"NoteNumber":34,"Velocity":58,"Duration":108518,"SoundDuration":108518,"Delta":477085245},{"NoteNumber":41,"Velocity":54,"Duration":109459,"SoundDuration":109459,"Delta":477193764},{"NoteNumber":77,"Velocity":73,"Duration":82799,"SoundDuration":82799,"Delta":477248023},{"NoteNumber":46,"Velocity":54,"Duration":110399,"SoundDuration":110399,"Delta":477303223},{"NoteNumber":77,"Velocity":69,"Duration":327455,"SoundDuration":327455,"Delta":477413623},{"NoteNumber":75,"Velocity":69,"Duration":327455,"SoundDuration":327455,"Delta":477413623},{"NoteNumber":82,"Velocity":80,"Duration":161856,"SoundDuration":161856,"Delta":477413623},{"NoteNumber":34,"Velocity":64,"Duration":107904,"SoundDuration":107904,"Delta":477413623},{"NoteNumber":41,"Velocity":56,"Duration":109151,"SoundDuration":109151,"Delta":477521527},{"NoteNumber":81,"Velocity":75,"Duration":82799,"SoundDuration":82799,"Delta":477575479},{"NoteNumber":46,"Velocity":56,"Duration":110399,"SoundDuration":110399,"Delta":477630679},{"NoteNumber":75,"Velocity":70,"Duration":323734,"SoundDuration":323734,"Delta":477741078},{"NoteNumber":81,"Velocity":70,"Duration":323734,"SoundDuration":323734,"Delta":477741078},{"NoteNumber":86,"Velocity":84,"Duration":160496,"SoundDuration":160496,"Delta":477741078},{"NoteNumber":34,"Velocity":69,"Duration":106997,"SoundDuration":106997,"Delta":477741078},{"NoteNumber":41,"Velocity":60,"Duration":107911,"SoundDuration":107911,"Delta":477848076},{"NoteNumber":84,"Velocity":79,"Duration":81619,"SoundDuration":81619,"Delta":477901575},{"NoteNumber":46,"Velocity":60,"Duration":108825,"SoundDuration":108825,"Delta":477955988},{"NoteNumber":81,"Velocity":76,"Duration":333470,"SoundDuration":333470,"Delta":478064813},{"NoteNumber":87,"Velocity":76,"Duration":333470,"SoundDuration":333470,"Delta":478064813},{"NoteNumber":91,"Velocity":90,"Duration":161403,"SoundDuration":161403,"Delta":478064813},{"NoteNumber":34,"Velocity":74,"Duration":107601,"SoundDuration":107601,"Delta":478064813},{"NoteNumber":41,"Velocity":65,"Duration":111156,"SoundDuration":111156,"Delta":478172415},{"NoteNumber":89,"Velocity":85,"Duration":86033,"SoundDuration":86033,"Delta":478226216},{"NoteNumber":46,"Velocity":66,"Duration":114711,"SoundDuration":114711,"Delta":478283572},{"NoteNumber":87,"Velocity":82,"Duration":342859,"SoundDuration":342859,"Delta":478398284},{"NoteNumber":94,"Velocity":97,"Duration":166564,"SoundDuration":166564,"Delta":478398284},{"NoteNumber":89,"Velocity":82,"Duration":342859,"SoundDuration":342859,"Delta":478398284},{"NoteNumber":34,"Velocity":75,"Duration":111043,"SoundDuration":111043,"Delta":478398284},{"NoteNumber":41,"Velocity":66,"Duration":114286,"SoundDuration":114286,"Delta":478509327},{"NoteNumber":93,"Velocity":94,"Duration":88147,"SoundDuration":88147,"Delta":478564849},{"NoteNumber":46,"Velocity":66,"Duration":117529,"SoundDuration":117529,"Delta":478623614},{"NoteNumber":94,"Velocity":113,"Duration":381971,"SoundDuration":381971,"Delta":478741143},{"NoteNumber":89,"Velocity":96,"Duration":381971,"SoundDuration":381971,"Delta":478741143},{"NoteNumber":86,"Velocity":96,"Duration":381971,"SoundDuration":381971,"Delta":478741143},{"NoteNumber":34,"Velocity":85,"Duration":381971,"SoundDuration":381971,"Delta":478741143},{"NoteNumber":98,"Velocity":110,"Duration":381971,"SoundDuration":381971,"Delta":479505085},{"NoteNumber":89,"Velocity":92,"Duration":381971,"SoundDuration":381971,"Delta":479505085},{"NoteNumber":86,"Velocity":92,"Duration":381971,"SoundDuration":381971,"Delta":479505085},{"NoteNumber":94,"Velocity":110,"Duration":381971,"SoundDuration":381971,"Delta":479505085},{"NoteNumber":46,"Velocity":66,"Duration":381971,"SoundDuration":381971,"Delta":479505085},{"NoteNumber":50,"Velocity":66,"Duration":381971,"SoundDuration":381971,"Delta":479505085},{"NoteNumber":53,"Velocity":66,"Duration":381971,"SoundDuration":381971,"Delta":479505085},{"NoteNumber":58,"Velocity":77,"Duration":381971,"SoundDuration":381971,"Delta":479505085},{"NoteNumber":58,"Velocity":116,"Duration":381971,"SoundDuration":381971,"Delta":480269027},{"NoteNumber":34,"Velocity":70,"Duration":381971,"SoundDuration":381971,"Delta":480269027},{"NoteNumber":46,"Velocity":81,"Duration":381971,"SoundDuration":381971,"Delta":480269027}],"license":{"name":"Creative Commons Attribution-ShareAlike 3.0 Germany","url":"http://creativecommons.org/licenses/by-sa/3.0/de/deed.en","text":"The MIDI, audio (MP3, OGG) and video files of Bernd Krueger are licensed under the cc-by-sa Germany License. This means that you can use and adapt the files, as long as you attribute the copyright holder.\n\nName: Bernd Krueger\nSource: http://www.piano-midi.de\n\nThe distribution or public playback of the files is only allowed under identical license conditions.\n\nThe scores are open source.","attribution":"MIDI files by Bernd Krueger (piano-midi.de)","attributionUrl":"http://www.piano-midi.de"}}