{"title":"Sonate D960, 1. Satz","artist":"Schubert","durationMs":1320710,"midiSha256":"1f3b3975c6183e7fdb36ca0ab99e73374d8ce1fec562e6d7b0324f312140c2d1","midiObject":[{"NoteNumber":65,"Velocity":40,"Duration":765404,"SoundDuration":765404,"Delta":0},{"NoteNumber":70,"Velocity":48,"Duration":765404,"SoundDuration":765404,"Delta":0},{"NoteNumber":58,"Velocity":36,"Duration":765404,"SoundDuration":765404,"Delta":0},{"NoteNumber":50,"Velocity":33,"Duration":382701,"SoundDuration":382701,"Delta":0},{"NoteNumber":46,"Velocity":27,"Duration":765404,"SoundDuration":765404,"Delta":0},{"NoteNumber":53,"Velocity":28,"Duration":382702,"SoundDuration":382702,"Delta":382702},{"NoteNumber":70,"Velocity":50,"Duration":752838,"SoundDuration":752838,"Delta":765404},{"NoteNumber":58,"Velocity":37,"Duration":752838,"SoundDuration":752838,"Delta":765404},{"NoteNumber":65,"Velocity":42,"Duration":752838,"SoundDuration":752838,"Delta":765404},{"NoteNumber":46,"Velocity":28,"Duration":752838,"SoundDuration":752838,"Delta":765404},{"NoteNumber":50,"Velocity":34,"Duration":371931,"SoundDuration":371931,"Delta":765404},{"NoteNumber":53,"Velocity":28,"Duration":380906,"SoundDuration":380906,"Delta":1137335},{"NoteNumber":69,"Velocity":48,"Duration":753794,"SoundDuration":753794,"Delta":1518242},{"NoteNumber":57,"Velocity":31,"Duration":753794,"SoundDuration":753794,"Delta":1518242},{"NoteNumber":65,"Velocity":40,"Duration":753794,"SoundDuration":753794,"Delta":1518242},{"NoteNumber":48,"Velocity":31,"Duration":371931,"SoundDuration":371931,"Delta":1518242},{"NoteNumber":46,"Velocity":24,"Duration":753794,"SoundDuration":753794,"Delta":1518242},{"NoteNumber":53,"Velocity":27,"Duration":381862,"SoundDuration":381862,"Delta":1890173},{"NoteNumber":70,"Velocity":50,"Duration":762928,"SoundDuration":762928,"Delta":2272036},{"NoteNumber":58,"Velocity":37,"Duration":762928,"SoundDuration":762928,"Delta":2272036},{"NoteNumber":65,"Velocity":42,"Duration":762928,"SoundDuration":762928,"Delta":2272036},{"NoteNumber":46,"Velocity":28,"Duration":762928,"SoundDuration":762928,"Delta":2272036},{"NoteNumber":50,"Velocity":34,"Duration":374578,"SoundDuration":374578,"Delta":2272036},{"NoteNumber":53,"Velocity":27,"Duration":388349,"SoundDuration":388349,"Delta":2646615},{"NoteNumber":72,"Velocity":48,"Duration":762928,"SoundDuration":762928,"Delta":3034964},{"NoteNumber":60,"Velocity":36,"Duration":762928,"SoundDuration":762928,"Delta":3034964},{"NoteNumber":65,"Velocity":40,"Duration":762928,"SoundDuration":762928,"Delta":3034964},{"NoteNumber":51,"Velocity":33,"Duration":374578,"SoundDuration":374578,"Delta":3034964},{"NoteNumber":46,"Velocity":27,"Duration":762928,"SoundDuration":762928,"Delta":3034964},{"NoteNumber":53,"Velocity":26,"Duration":388349,"SoundDuration":388349,"Delta":3409543},{"NoteNumber":62,"Velocity":40,"Duration":2192761,"SoundDuration":2192761,"Delta":3797892},{"NoteNumber":65,"Velocity":45,"Duration":2192761,"SoundDuration":2192761,"Delta":3797892},{"NoteNumber":74,"Velocity":53,"Duration":2192761,"SoundDuration":2192761,"Delta":3797892},{"NoteNumber":46,"Velocity":28,"Duration":2192761,"SoundDuration":2192761,"Delta":3797892},{"NoteNumber":52,"Velocity":34,"Duration":371931,"SoundDuration":371931,"Delta":3797892},{"NoteNumber":53,"Velocity":26,"Duration":182082,"SoundDuration":182082,"Delta":4169824},{"NoteNumber":53,"Velocity":26,"Duration":182083,"SoundDuration":182083,"Delta":4533990},{"NoteNumber":53,"Velocity":26,"Duration":182082,"SoundDuration":182082,"Delta":4898156},{"NoteNumber":53,"Velocity":26,"Duration":182083,"SoundDuration":182083,"Delta":5262322},{"NoteNumber":53,"Velocity":26,"Duration":182082,"SoundDuration":182082,"Delta":5626488},{"NoteNumber":60,"Velocity":37,"Duration":366703,"SoundDuration":366703,"Delta":5990654},{"NoteNumber":65,"Velocity":42,"Duration":366703,"SoundDuration":366703,"Delta":5990654},{"NoteNumber":72,"Velocity":50,"Duration":366703,"SoundDuration":366703,"Delta":5990654},{"NoteNumber":46,"Velocity":27,"Duration":761440,"SoundDuration":761440,"Delta":5990654},{"NoteNumber":51,"Velocity":33,"Duration":366703,"SoundDuration":366703,"Delta":5990654},{"NoteNumber":58,"Velocity":35,"Duration":394737,"SoundDuration":394737,"Delta":6357357},{"NoteNumber":65,"Velocity":39,"Duration":394737,"SoundDuration":394737,"Delta":6357357},{"NoteNumber":70,"Velocity":46,"Duration":394737,"SoundDuration":394737,"Delta":6357357},{"NoteNumber":50,"Velocity":27,"Duration":394737,"SoundDuration":394737,"Delta":6357357},{"NoteNumber":60,"Velocity":35,"Duration":705180,"SoundDuration":705180,"Delta":6752094},{"NoteNumber":72,"Velocity":47,"Duration":705180,"SoundDuration":705180,"Delta":6752094},{"NoteNumber":65,"Velocity":39,"Duration":705180,"SoundDuration":705180,"Delta":6752094},{"NoteNumber":41,"Velocity":26,"Duration":749194,"SoundDuration":749194,"Delta":6752094},{"NoteNumber":51,"Velocity":31,"Duration":371931,"SoundDuration":371931,"Delta":6752094},{"NoteNumber":53,"Velocity":25,"Duration":377263,"SoundDuration":377263,"Delta":7124026},{"NoteNumber":65,"Velocity":38,"Duration":705180,"SoundDuration":705180,"Delta":7501289},{"NoteNumber":60,"Velocity":34,"Duration":705180,"SoundDuration":705180,"Delta":7501289},{"NoteNumber":72,"Velocity":46,"Duration":705180,"SoundDuration":705180,"Delta":7501289},{"NoteNumber":51,"Velocity":29,"Duration":371931,"SoundDuration":371931,"Delta":7501289},{"NoteNumber":41,"Velocity":26,"Duration":749195,"SoundDuration":749195,"Delta":7501289},{"NoteNumber":53,"Velocity":25,"Duration":377263,"SoundDuration":377263,"Delta":7873221},{"NoteNumber":65,"Velocity":38,"Duration":713349,"SoundDuration":713349,"Delta":8250484},{"NoteNumber":60,"Velocity":34,"Duration":713349,"SoundDuration":713349,"Delta":8250484},{"NoteNumber":72,"Velocity":46,"Duration":713349,"SoundDuration":713349,"Delta":8250484},{"NoteNumber":41,"Velocity":26,"Duration":758325,"SoundDuration":758325,"Delta":8250484},{"NoteNumber":51,"Velocity":29,"Duration":372820,"SoundDuration":372820,"Delta":8250484},{"NoteNumber":53,"Velocity":26,"Duration":385505,"SoundDuration":385505,"Delta":8623304},{"NoteNumber":65,"Velocity":42,"Duration":375419,"SoundDuration":375419,"Delta":9008809},{"NoteNumber":58,"Velocity":37,"Duration":375419,"SoundDuration":375419,"Delta":9008809},{"NoteNumber":70,"Velocity":50,"Duration":375419,"SoundDuration":375419,"Delta":9008809},{"NoteNumber":50,"Velocity":33,"Duration":375419,"SoundDuration":375419,"Delta":9008809},{"NoteNumber":41,"Velocity":27,"Duration":783124,"SoundDuration":783124,"Delta":9008809},{"NoteNumber":65,"Velocity":38,"Duration":407704,"SoundDuration":407704,"Delta":9384229},{"NoteNumber":57,"Velocity":30,"Duration":407704,"SoundDuration":407704,"Delta":9384229},{"NoteNumber":69,"Velocity":45,"Duration":407704,"SoundDuration":407704,"Delta":9384229},{"NoteNumber":48,"Velocity":25,"Duration":407704,"SoundDuration":407704,"Delta":9384229},{"NoteNumber":58,"Velocity":37,"Duration":2291780,"SoundDuration":2291780,"Delta":9791934},{"NoteNumber":70,"Velocity":52,"Duration":2291780,"SoundDuration":2291780,"Delta":9791934},{"NoteNumber":65,"Velocity":52,"Duration":754527,"SoundDuration":754527,"Delta":9791934},{"NoteNumber":46,"Velocity":28,"Duration":2291780,"SoundDuration":2291780,"Delta":9791934},{"NoteNumber":50,"Velocity":34,"Duration":377263,"SoundDuration":377263,"Delta":9791934},{"NoteNumber":53,"Velocity":30,"Duration":377263,"SoundDuration":377263,"Delta":10169198},{"NoteNumber":63,"Velocity":42,"Duration":766128,"SoundDuration":766128,"Delta":10546461},{"NoteNumber":67,"Velocity":50,"Duration":766128,"SoundDuration":766128,"Delta":10546461},{"NoteNumber":51,"Velocity":33,"Duration":377263,"SoundDuration":377263,"Delta":10546461},{"NoteNumber":55,"Velocity":28,"Duration":388865,"SoundDuration":388865,"Delta":10923725},{"NoteNumber":62,"Velocity":36,"Duration":771124,"SoundDuration":771124,"Delta":11312590},{"NoteNumber":65,"Velocity":44,"Duration":771124,"SoundDuration":771124,"Delta":11312590},{"NoteNumber":50,"Velocity":29,"Duration":379939,"SoundDuration":379939,"Delta":11312590},{"NoteNumber":53,"Velocity":30,"Duration":391185,"SoundDuration":391185,"Delta":11692529},{"NoteNumber":70,"Velocity":61,"Duration":785922,"SoundDuration":785922,"Delta":12083714},{"NoteNumber":46,"Velocity":28,"Duration":785922,"SoundDuration":785922,"Delta":12083714},{"NoteNumber":50,"Velocity":39,"Duration":391185,"SoundDuration":391185,"Delta":12083714},{"NoteNumber":58,"Velocity":34,"Duration":394736,"SoundDuration":394736,"Delta":12474900},{"NoteNumber":63,"Velocity":45,"Duration":2197917,"SoundDuration":2197917,"Delta":12869637},{"NoteNumber":70,"Velocity":51,"Duration":2197917,"SoundDuration":2197917,"Delta":12869637},{"NoteNumber":75,"Velocity":60,"Duration":2197917,"SoundDuration":2197917,"Delta":12869637},{"NoteNumber":55,"Velocity":36,"Duration":2197917,"SoundDuration":2197917,"Delta":12869637},{"NoteNumber":46,"Velocity":30,"Duration":2197917,"SoundDuration":2197917,"Delta":12869637},{"NoteNumber":58,"Velocity":32,"Duration":184660,"SoundDuration":184660,"Delta":13241568},{"NoteNumber":58,"Velocity":33,"Duration":182083,"SoundDuration":182083,"Delta":13610890},{"NoteNumber":58,"Velocity":30,"Duration":182083,"SoundDuration":182083,"Delta":13975056},{"NoteNumber":58,"Velocity":34,"Duration":182083,"SoundDuration":182083,"Delta":14339222},{"NoteNumber":58,"Velocity":31,"Duration":182082,"SoundDuration":182082,"Delta":14703388},{"NoteNumber":62,"Velocity":41,"Duration":364165,"SoundDuration":364165,"Delta":15067554},{"NoteNumber":74,"Velocity":55,"Duration":364165,"SoundDuration":364165,"Delta":15067554},{"NoteNumber":70,"Velocity":46,"Duration":364165,"SoundDuration":364165,"Delta":15067554},{"NoteNumber":46,"Velocity":27,"Duration":752515,"SoundDuration":752515,"Delta":15067554},{"NoteNumber":53,"Velocity":33,"Duration":364165,"SoundDuration":364165,"Delta":15067554},{"NoteNumber":70,"Velocity":42,"Duration":388349,"SoundDuration":388349,"Delta":15431720},{"NoteNumber":60,"Velocity":37,"Duration":388349,"SoundDuration":388349,"Delta":15431720},{"NoteNumber":72,"Velocity":50,"Duration":388349,"SoundDuration":388349,"Delta":15431720},{"NoteNumber":51,"Velocity":31,"Duration":388349,"SoundDuration":388349,"Delta":15431720},{"NoteNumber":70,"Velocity":45,"Duration":743863,"SoundDuration":743863,"Delta":15820069},{"NoteNumber":62,"Velocity":45,"Duration":743863,"SoundDuration":743863,"Delta":15820069},{"NoteNumber":74,"Velocity":53,"Duration":743863,"SoundDuration":743863,"Delta":15820069},{"NoteNumber":53,"Velocity":33,"Duration":371931,"SoundDuration":371931,"Delta":15820069},{"NoteNumber":46,"Velocity":27,"Duration":743863,"SoundDuration":743863,"Delta":15820069},{"NoteNumber":50,"Velocity":28,"Duration":371931,"SoundDuration":371931,"Delta":16192001},{"NoteNumber":65,"Velocity":42,"Duration":762768,"SoundDuration":762768,"Delta":16563932},{"NoteNumber":57,"Velocity":37,"Duration":762768,"SoundDuration":762768,"Delta":16563932},{"NoteNumber":69,"Velocity":50,"Duration":762768,"SoundDuration":762768,"Delta":16563932},{"NoteNumber":41,"Velocity":27,"Duration":762768,"SoundDuration":762768,"Delta":16563932},{"NoteNumber":48,"Velocity":33,"Duration":377263,"SoundDuration":377263,"Delta":16563932},{"NoteNumber":53,"Velocity":28,"Duration":385504,"SoundDuration":385504,"Delta":16941196},{"NoteNumber":65,"Velocity":44,"Duration":759878,"SoundDuration":759878,"Delta":17326701},{"NoteNumber":58,"Velocity":39,"Duration":759878,"SoundDuration":759878,"Delta":17326701},{"NoteNumber":70,"Velocity":52,"Duration":759878,"SoundDuration":759878,"Delta":17326701},{"NoteNumber":50,"Velocity":33,"Duration":379939,"SoundDuration":379939,"Delta":17326701},{"NoteNumber":41,"Velocity":27,"Duration":759878,"SoundDuration":759878,"Delta":17326701},{"NoteNumber":53,"Velocity":30,"Duration":379939,"SoundDuration":379939,"Delta":17706640},{"NoteNumber":65,"Velocity":42,"Duration":762996,"SoundDuration":762996,"Delta":18086579},{"NoteNumber":72,"Velocity":50,"Duration":762996,"SoundDuration":762996,"Delta":18086579},{"NoteNumber":60,"Velocity":37,"Duration":762996,"SoundDuration":762996,"Delta":18086579},{"NoteNumber":51,"Velocity":32,"Duration":374578,"SoundDuration":374578,"Delta":18086579},{"NoteNumber":41,"Velocity":27,"Duration":762996,"SoundDuration":762996,"Delta":18086579},{"NoteNumber":53,"Velocity":29,"Duration":388417,"SoundDuration":388417,"Delta":18461157},{"NoteNumber":70,"Velocity":52,"Duration":782592,"SoundDuration":782592,"Delta":18849575},{"NoteNumber":58,"Velocity":39,"Duration":782592,"SoundDuration":782592,"Delta":18849575},{"NoteNumber":65,"Velocity":44,"Duration":782592,"SoundDuration":782592,"Delta":18849575},{"NoteNumber":50,"Velocity":32,"Duration":385504,"SoundDuration":385504,"Delta":18849575},{"NoteNumber":41,"Velocity":27,"Duration":1637996,"SoundDuration":1637996,"Delta":18849575},{"NoteNumber":53,"Velocity":29,"Duration":397088,"SoundDuration":397088,"Delta":19235080},{"NoteNumber":70,"Velocity":44,"Duration":855403,"SoundDuration":855403,"Delta":19632168},{"NoteNumber":74,"Velocity":52,"Duration":855403,"SoundDuration":855403,"Delta":19632168},{"NoteNumber":62,"Velocity":39,"Duration":855403,"SoundDuration":855403,"Delta":19632168},{"NoteNumber":65,"Velocity":44,"Duration":855403,"SoundDuration":855403,"Delta":19632168},{"NoteNumber":50,"Velocity":32,"Duration":410958,"SoundDuration":410958,"Delta":19632168},{"NoteNumber":46,"Velocity":29,"Duration":444444,"SoundDuration":444444,"Delta":20043127},{"NoteNumber":65,"Velocity":42,"Duration":5092273,"SoundDuration":5092273,"Delta":20487571},{"NoteNumber":60,"Velocity":37,"Duration":5092273,"SoundDuration":5092273,"Delta":20487571},{"NoteNumber":72,"Velocity":50,"Duration":5092273,"SoundDuration":5092273,"Delta":20487571},{"NoteNumber":69,"Velocity":42,"Duration":5092273,"SoundDuration":5092273,"Delta":20487571},{"NoteNumber":41,"Velocity":32,"Duration":789473,"SoundDuration":789473,"Delta":20487571},{"NoteNumber":29,"Velocity":27,"Duration":160627,"SoundDuration":160627,"Delta":21709946},{"NoteNumber":30,"Velocity":22,"Duration":160627,"SoundDuration":160627,"Delta":21838448},{"NoteNumber":32,"Velocity":22,"Duration":162884,"SoundDuration":162884,"Delta":21966949},{"NoteNumber":30,"Velocity":27,"Duration":171434,"SoundDuration":171434,"Delta":22095451},{"NoteNumber":32,"Velocity":23,"Duration":170105,"SoundDuration":170105,"Delta":22198600},{"NoteNumber":30,"Velocity":24,"Duration":168795,"SoundDuration":168795,"Delta":22301001},{"NoteNumber":32,"Velocity":22,"Duration":167515,"SoundDuration":167515,"Delta":22402558},{"NoteNumber":30,"Velocity":24,"Duration":166258,"SoundDuration":166258,"Delta":22503390},{"NoteNumber":32,"Velocity":22,"Duration":163492,"SoundDuration":163492,"Delta":22603416},{"NoteNumber":30,"Velocity":25,"Duration":159573,"SoundDuration":159573,"Delta":22702738},{"NoteNumber":32,"Velocity":24,"Duration":160170,"SoundDuration":160170,"Delta":22798570},{"NoteNumber":30,"Velocity":26,"Duration":158115,"SoundDuration":158115,"Delta":22894674},{"NoteNumber":32,"Velocity":23,"Duration":157569,"SoundDuration":157569,"Delta":22990223},{"NoteNumber":30,"Velocity":26,"Duration":155606,"SoundDuration":155606,"Delta":23084822},{"NoteNumber":32,"Velocity":22,"Duration":157411,"SoundDuration":157411,"Delta":23178700},{"NoteNumber":30,"Velocity":25,"Duration":157988,"SoundDuration":157988,"Delta":23272001},{"NoteNumber":32,"Velocity":23,"Duration":156307,"SoundDuration":156307,"Delta":23367822},{"NoteNumber":30,"Velocity":24,"Duration":157650,"SoundDuration":157650,"Delta":23460940},{"NoteNumber":32,"Velocity":22,"Duration":158151,"SoundDuration":158151,"Delta":23556021},{"NoteNumber":30,"Velocity":26,"Duration":159323,"SoundDuration":159323,"Delta":23649540},{"NoteNumber":32,"Velocity":23,"Duration":157891,"SoundDuration":157891,"Delta":23746254},{"NoteNumber":30,"Velocity":25,"Duration":157495,"SoundDuration":157495,"Delta":23840035},{"NoteNumber":32,"Velocity":23,"Duration":156897,"SoundDuration":156897,"Delta":23935628},{"NoteNumber":30,"Velocity":25,"Duration":157609,"SoundDuration":157609,"Delta":24028880},{"NoteNumber":32,"Velocity":22,"Duration":156221,"SoundDuration":156221,"Delta":24124236},{"NoteNumber":30,"Velocity":25,"Duration":157522,"SoundDuration":157522,"Delta":24217485},{"NoteNumber":32,"Velocity":22,"Duration":157942,"SoundDuration":157942,"Delta":24312398},{"NoteNumber":30,"Velocity":27,"Duration":161538,"SoundDuration":161538,"Delta":24406178},{"NoteNumber":32,"Velocity":23,"Duration":160355,"SoundDuration":160355,"Delta":24503037},{"NoteNumber":30,"Velocity":26,"Duration":159692,"SoundDuration":159692,"Delta":24599608},{"NoteNumber":32,"Velocity":22,"Duration":158131,"SoundDuration":158131,"Delta":24695284},{"NoteNumber":29,"Velocity":22,"Duration":221177,"SoundDuration":221177,"Delta":24791427},{"NoteNumber":30,"Velocity":18,"Duration":243866,"SoundDuration":243866,"Delta":24977392},{"NoteNumber":29,"Velocity":23,"Duration":195592,"SoundDuration":195592,"Delta":25188660},{"NoteNumber":65,"Velocity":40,"Duration":765404,"SoundDuration":765404,"Delta":27535773},{"NoteNumber":58,"Velocity":36,"Duration":765404,"SoundDuration":765404,"Delta":27535773},{"NoteNumber":70,"Velocity":48,"Duration":765404,"SoundDuration":765404,"Delta":27535773},{"NoteNumber":46,"Velocity":27,"Duration":765404,"SoundDuration":765404,"Delta":27535773},{"NoteNumber":50,"Velocity":33,"Duration":382701,"SoundDuration":382701,"Delta":27535773},{"NoteNumber":53,"Velocity":28,"Duration":382702,"SoundDuration":382702,"Delta":27918475},{"NoteNumber":65,"Velocity":42,"Duration":752838,"SoundDuration":752838,"Delta":28301177},{"NoteNumber":58,"Velocity":37,"Duration":752838,"SoundDuration":752838,"Delta":28301177},{"NoteNumber":70,"Velocity":50,"Duration":752838,"SoundDuration":752838,"Delta":28301177},{"NoteNumber":50,"Velocity":34,"Duration":371931,"SoundDuration":371931,"Delta":28301177},{"NoteNumber":46,"Velocity":28,"Duration":752838,"SoundDuration":752838,"Delta":28301177},{"NoteNumber":53,"Velocity":28,"Duration":380906,"SoundDuration":380906,"Delta":28673108},{"NoteNumber":65,"Velocity":40,"Duration":753794,"SoundDuration":753794,"Delta":29054015},{"NoteNumber":57,"Velocity":31,"Duration":753794,"SoundDuration":753794,"Delta":29054015},{"NoteNumber":69,"Velocity":48,"Duration":753794,"SoundDuration":753794,"Delta":29054015},{"NoteNumber":46,"Velocity":24,"Duration":753794,"SoundDuration":753794,"Delta":29054015},{"NoteNumber":48,"Velocity":31,"Duration":371931,"SoundDuration":371931,"Delta":29054015},{"NoteNumber":53,"Velocity":27,"Duration":381862,"SoundDuration":381862,"Delta":29425947},{"NoteNumber":65,"Velocity":42,"Duration":771051,"SoundDuration":771051,"Delta":29807810},{"NoteNumber":58,"Velocity":37,"Duration":771051,"SoundDuration":771051,"Delta":29807810},{"NoteNumber":70,"Velocity":50,"Duration":771051,"SoundDuration":771051,"Delta":29807810},{"NoteNumber":46,"Velocity":28,"Duration":771051,"SoundDuration":771051,"Delta":29807810},{"NoteNumber":50,"Velocity":34,"Duration":382701,"SoundDuration":382701,"Delta":29807810},{"NoteNumber":53,"Velocity":27,"Duration":388349,"SoundDuration":388349,"Delta":30190512},{"NoteNumber":65,"Velocity":40,"Duration":795260,"SoundDuration":795260,"Delta":30578861},{"NoteNumber":72,"Velocity":48,"Duration":795260,"SoundDuration":795260,"Delta":30578861},{"NoteNumber":60,"Velocity":36,"Duration":795260,"SoundDuration":795260,"Delta":30578861},{"NoteNumber":51,"Velocity":33,"Duration":387097,"SoundDuration":387097,"Delta":30578861},{"NoteNumber":46,"Velocity":27,"Duration":795260,"SoundDuration":795260,"Delta":30578861},{"NoteNumber":53,"Velocity":26,"Duration":408163,"SoundDuration":408163,"Delta":30965958},{"NoteNumber":74,"Velocity":53,"Duration":2192761,"SoundDuration":2192761,"Delta":31374122},{"NoteNumber":62,"Velocity":40,"Duration":2192761,"SoundDuration":2192761,"Delta":31374122},{"NoteNumber":65,"Velocity":45,"Duration":2192761,"SoundDuration":2192761,"Delta":31374122},{"NoteNumber":52,"Velocity":34,"Duration":371931,"SoundDuration":371931,"Delta":31374122},{"NoteNumber":46,"Velocity":28,"Duration":2192761,"SoundDuration":2192761,"Delta":31374122},{"NoteNumber":53,"Velocity":26,"Duration":182082,"SoundDuration":182082,"Delta":31746053},{"NoteNumber":53,"Velocity":26,"Duration":182082,"SoundDuration":182082,"Delta":32110219},{"NoteNumber":53,"Velocity":26,"Duration":182083,"SoundDuration":182083,"Delta":32474385},{"NoteNumber":53,"Velocity":26,"Duration":182082,"SoundDuration":182082,"Delta":32838551},{"NoteNumber":53,"Velocity":26,"Duration":182082,"SoundDuration":182082,"Delta":33202717},{"NoteNumber":72,"Velocity":50,"Duration":366703,"SoundDuration":366703,"Delta":33566883},{"NoteNumber":60,"Velocity":37,"Duration":366703,"SoundDuration":366703,"Delta":33566883},{"NoteNumber":65,"Velocity":42,"Duration":366703,"SoundDuration":366703,"Delta":33566883},{"NoteNumber":46,"Velocity":27,"Duration":749405,"SoundDuration":749405,"Delta":33566883},{"NoteNumber":51,"Velocity":33,"Duration":366703,"SoundDuration":366703,"Delta":33566883},{"NoteNumber":70,"Velocity":46,"Duration":382702,"SoundDuration":382702,"Delta":33933587},{"NoteNumber":58,"Velocity":35,"Duration":382702,"SoundDuration":382702,"Delta":33933587},{"NoteNumber":65,"Velocity":39,"Duration":382702,"SoundDuration":382702,"Delta":33933587},{"NoteNumber":50,"Velocity":27,"Duration":382702,"SoundDuration":382702,"Delta":33933587},{"NoteNumber":72,"Velocity":47,"Duration":741335,"SoundDuration":741335,"Delta":34316289},{"NoteNumber":65,"Velocity":39,"Duration":741335,"SoundDuration":741335,"Delta":34316289},{"NoteNumber":60,"Velocity":35,"Duration":741335,"SoundDuration":741335,"Delta":34316289},{"NoteNumber":51,"Velocity":31,"Duration":371931,"SoundDuration":371931,"Delta":34316289},{"NoteNumber":41,"Velocity":26,"Duration":749195,"SoundDuration":749195,"Delta":34316289},{"NoteNumber":53,"Velocity":25,"Duration":377263,"SoundDuration":377263,"Delta":34688220},{"NoteNumber":65,"Velocity":38,"Duration":741335,"SoundDuration":741335,"Delta":35065484},{"NoteNumber":60,"Velocity":34,"Duration":741335,"SoundDuration":741335,"Delta":35065484},{"NoteNumber":72,"Velocity":46,"Duration":741335,"SoundDuration":741335,"Delta":35065484},{"NoteNumber":51,"Velocity":29,"Duration":371931,"SoundDuration":371931,"Delta":35065484},{"NoteNumber":41,"Velocity":26,"Duration":749195,"SoundDuration":749195,"Delta":35065484},{"NoteNumber":53,"Velocity":25,"Duration":377263,"SoundDuration":377263,"Delta":35437415},{"NoteNumber":65,"Velocity":38,"Duration":750293,"SoundDuration":750293,"Delta":35814679},{"NoteNumber":60,"Velocity":34,"Duration":750293,"SoundDuration":750293,"Delta":35814679},{"NoteNumber":72,"Velocity":46,"Duration":750293,"SoundDuration":750293,"Delta":35814679},{"NoteNumber":51,"Velocity":29,"Duration":372820,"SoundDuration":372820,"Delta":35814679},{"NoteNumber":41,"Velocity":26,"Duration":758325,"SoundDuration":758325,"Delta":35814679},{"NoteNumber":53,"Velocity":28,"Duration":385505,"SoundDuration":385505,"Delta":36187499},{"NoteNumber":65,"Velocity":42,"Duration":371931,"SoundDuration":371931,"Delta":36573004},{"NoteNumber":58,"Velocity":37,"Duration":371931,"SoundDuration":371931,"Delta":36573004},{"NoteNumber":70,"Velocity":50,"Duration":371931,"SoundDuration":371931,"Delta":36573004},{"NoteNumber":41,"Velocity":27,"Duration":770379,"SoundDuration":770379,"Delta":36573004},{"NoteNumber":50,"Velocity":33,"Duration":371931,"SoundDuration":371931,"Delta":36573004},{"NoteNumber":65,"Velocity":38,"Duration":398447,"SoundDuration":398447,"Delta":36944935},{"NoteNumber":57,"Velocity":30,"Duration":398447,"SoundDuration":398447,"Delta":36944935},{"NoteNumber":69,"Velocity":45,"Duration":398447,"SoundDuration":398447,"Delta":36944935},{"NoteNumber":48,"Velocity":25,"Duration":398447,"SoundDuration":398447,"Delta":36944935},{"NoteNumber":58,"Velocity":37,"Duration":2291780,"SoundDuration":2291780,"Delta":37343383},{"NoteNumber":70,"Velocity":52,"Duration":2291780,"SoundDuration":2291780,"Delta":37343383},{"NoteNumber":65,"Velocity":52,"Duration":754527,"SoundDuration":754527,"Delta":37343383},{"NoteNumber":46,"Velocity":28,"Duration":2291780,"SoundDuration":2291780,"Delta":37343383},{"NoteNumber":50,"Velocity":34,"Duration":377263,"SoundDuration":377263,"Delta":37343383},{"NoteNumber":53,"Velocity":30,"Duration":377263,"SoundDuration":377263,"Delta":37720646},{"NoteNumber":63,"Velocity":42,"Duration":766128,"SoundDuration":766128,"Delta":38097910},{"NoteNumber":67,"Velocity":50,"Duration":766128,"SoundDuration":766128,"Delta":38097910},{"NoteNumber":51,"Velocity":33,"Duration":377263,"SoundDuration":377263,"Delta":38097910},{"NoteNumber":55,"Velocity":28,"Duration":388865,"SoundDuration":388865,"Delta":38475173},{"NoteNumber":62,"Velocity":36,"Duration":771124,"SoundDuration":771124,"Delta":38864039},{"NoteNumber":65,"Velocity":44,"Duration":771124,"SoundDuration":771124,"Delta":38864039},{"NoteNumber":50,"Velocity":29,"Duration":379939,"SoundDuration":379939,"Delta":38864039},{"NoteNumber":53,"Velocity":30,"Duration":391185,"SoundDuration":391185,"Delta":39243978},{"NoteNumber":65,"Velocity":51,"Duration":840640,"SoundDuration":840640,"Delta":39635163},{"NoteNumber":62,"Velocity":45,"Duration":840640,"SoundDuration":840640,"Delta":39635163},{"NoteNumber":74,"Velocity":61,"Duration":840640,"SoundDuration":840640,"Delta":39635163},{"NoteNumber":50,"Velocity":39,"Duration":402684,"SoundDuration":402684,"Delta":39635163},{"NoteNumber":44,"Velocity":28,"Duration":840640,"SoundDuration":840640,"Delta":39635163},{"NoteNumber":53,"Velocity":34,"Duration":437955,"SoundDuration":437955,"Delta":40037848},{"NoteNumber":67,"Velocity":51,"Duration":2197917,"SoundDuration":2197917,"Delta":40475804},{"NoteNumber":62,"Velocity":45,"Duration":2197917,"SoundDuration":2197917,"Delta":40475804},{"NoteNumber":74,"Velocity":60,"Duration":2197917,"SoundDuration":2197917,"Delta":40475804},{"NoteNumber":53,"Velocity":36,"Duration":2197917,"SoundDuration":2197917,"Delta":40475804},{"NoteNumber":43,"Velocity":30,"Duration":2197917,"SoundDuration":2197917,"Delta":40475804},{"NoteNumber":55,"Velocity":32,"Duration":184660,"SoundDuration":184660,"Delta":40847735},{"NoteNumber":55,"Velocity":33,"Duration":182082,"SoundDuration":182082,"Delta":41217057},{"NoteNumber":55,"Velocity":30,"Duration":182083,"SoundDuration":182083,"Delta":41581223},{"NoteNumber":55,"Velocity":34,"Duration":182082,"SoundDuration":182082,"Delta":41945389},{"NoteNumber":55,"Velocity":31,"Duration":182082,"SoundDuration":182082,"Delta":42309555},{"NoteNumber":67,"Velocity":46,"Duration":364165,"SoundDuration":364165,"Delta":42673721},{"NoteNumber":72,"Velocity":55,"Duration":364165,"SoundDuration":364165,"Delta":42673721},{"NoteNumber":60,"Velocity":41,"Duration":364165,"SoundDuration":364165,"Delta":42673721},{"NoteNumber":43,"Velocity":24,"Duration":364165,"SoundDuration":364165,"Delta":42673721},{"NoteNumber":51,"Velocity":27,"Duration":364165,"SoundDuration":364165,"Delta":42673721},{"NoteNumber":55,"Velocity":33,"Duration":364165,"SoundDuration":364165,"Delta":42673721},{"NoteNumber":71,"Velocity":50,"Duration":366703,"SoundDuration":366703,"Delta":43037887},{"NoteNumber":59,"Velocity":37,"Duration":366703,"SoundDuration":366703,"Delta":43037887},{"NoteNumber":67,"Velocity":42,"Duration":366703,"SoundDuration":366703,"Delta":43037887},{"NoteNumber":50,"Velocity":27,"Duration":366703,"SoundDuration":366703,"Delta":43037887},{"NoteNumber":55,"Velocity":31,"Duration":366703,"SoundDuration":366703,"Delta":43037887},{"NoteNumber":43,"Velocity":24,"Duration":366703,"SoundDuration":366703,"Delta":43037887},{"NoteNumber":75,"Velocity":65,"Duration":723506,"SoundDuration":723506,"Delta":43404590},{"NoteNumber":63,"Velocity":53,"Duration":723506,"SoundDuration":723506,"Delta":43404590},{"NoteNumber":67,"Velocity":54,"Duration":723506,"SoundDuration":723506,"Delta":43404590},{"NoteNumber":48,"Velocity":34,"Duration":356802,"SoundDuration":356802,"Delta":43404590},{"NoteNumber":43,"Velocity":28,"Duration":723506,"SoundDuration":723506,"Delta":43404590},{"NoteNumber":55,"Velocity":30,"Duration":366703,"SoundDuration":366703,"Delta":43761393},{"NoteNumber":74,"Velocity":59,"Duration":753937,"SoundDuration":753937,"Delta":44128097},{"NoteNumber":62,"Velocity":50,"Duration":753937,"SoundDuration":753937,"Delta":44128097},{"NoteNumber":67,"Velocity":50,"Duration":753937,"SoundDuration":753937,"Delta":44128097},{"NoteNumber":53,"Velocity":33,"Duration":364165,"SoundDuration":364165,"Delta":44128097},{"NoteNumber":43,"Velocity":28,"Duration":753937,"SoundDuration":753937,"Delta":44128097},{"NoteNumber":55,"Velocity":28,"Duration":389771,"SoundDuration":389771,"Delta":44492263},{"NoteNumber":72,"Velocity":57,"Duration":763117,"SoundDuration":763117,"Delta":44882034},{"NoteNumber":60,"Velocity":48,"Duration":763117,"SoundDuration":763117,"Delta":44882034},{"NoteNumber":67,"Velocity":48,"Duration":763117,"SoundDuration":763117,"Delta":44882034},{"NoteNumber":51,"Velocity":28,"Duration":371931,"SoundDuration":371931,"Delta":44882034},{"NoteNumber":43,"Velocity":27,"Duration":763117,"SoundDuration":763117,"Delta":44882034},{"NoteNumber":55,"Velocity":29,"Duration":391185,"SoundDuration":391185,"Delta":45253966},{"NoteNumber":60,"Velocity":45,"Duration":814017,"SoundDuration":814017,"Delta":45645151},{"NoteNumber":69,"Velocity":51,"Duration":814017,"SoundDuration":814017,"Delta":45645151},{"NoteNumber":72,"Velocity":61,"Duration":814017,"SoundDuration":814017,"Delta":45645151},{"NoteNumber":42,"Velocity":28,"Duration":814017,"SoundDuration":814017,"Delta":45645151},{"NoteNumber":51,"Velocity":39,"Duration":397351,"SoundDuration":397351,"Delta":45645151},{"NoteNumber":54,"Velocity":34,"Duration":416666,"SoundDuration":416666,"Delta":46042502},{"NoteNumber":65,"Velocity":45,"Duration":2197917,"SoundDuration":2197917,"Delta":46459169},{"NoteNumber":72,"Velocity":60,"Duration":2197917,"SoundDuration":2197917,"Delta":46459169},{"NoteNumber":60,"Velocity":45,"Duration":2197917,"SoundDuration":2197917,"Delta":46459169},{"NoteNumber":69,"Velocity":51,"Duration":2197917,"SoundDuration":2197917,"Delta":46459169},{"NoteNumber":41,"Velocity":30,"Duration":2197917,"SoundDuration":2197917,"Delta":46459169},{"NoteNumber":51,"Velocity":36,"Duration":2197917,"SoundDuration":2197917,"Delta":46459169},{"NoteNumber":53,"Velocity":32,"Duration":184660,"SoundDuration":184660,"Delta":46831100},{"NoteNumber":53,"Velocity":33,"Duration":182082,"SoundDuration":182082,"Delta":47200422},{"NoteNumber":53,"Velocity":30,"Duration":182083,"SoundDuration":182083,"Delta":47564588},{"NoteNumber":53,"Velocity":34,"Duration":182082,"SoundDuration":182082,"Delta":47928754},{"NoteNumber":53,"Velocity":31,"Duration":182082,"SoundDuration":182082,"Delta":48292920},{"NoteNumber":70,"Velocity":55,"Duration":364165,"SoundDuration":364165,"Delta":48657086},{"NoteNumber":58,"Velocity":41,"Duration":364165,"SoundDuration":364165,"Delta":48657086},{"NoteNumber":65,"Velocity":46,"Duration":364165,"SoundDuration":364165,"Delta":48657086},{"NoteNumber":41,"Velocity":24,"Duration":364165,"SoundDuration":364165,"Delta":48657086},{"NoteNumber":53,"Velocity":33,"Duration":364165,"SoundDuration":364165,"Delta":48657086},{"NoteNumber":50,"Velocity":27,"Duration":364165,"SoundDuration":364165,"Delta":48657086},{"NoteNumber":69,"Velocity":50,"Duration":377263,"SoundDuration":377263,"Delta":49021252},{"NoteNumber":57,"Velocity":37,"Duration":377263,"SoundDuration":377263,"Delta":49021252},{"NoteNumber":65,"Velocity":42,"Duration":377263,"SoundDuration":377263,"Delta":49021252},{"NoteNumber":41,"Velocity":24,"Duration":377263,"SoundDuration":377263,"Delta":49021252},{"NoteNumber":53,"Velocity":31,"Duration":377263,"SoundDuration":377263,"Delta":49021252},{"NoteNumber":48,"Velocity":27,"Duration":377263,"SoundDuration":377263,"Delta":49021252},{"NoteNumber":62,"Velocity":51,"Duration":738926,"SoundDuration":738926,"Delta":49398515},{"NoteNumber":65,"Velocity":55,"Duration":738926,"SoundDuration":738926,"Delta":49398515},{"NoteNumber":74,"Velocity":65,"Duration":738926,"SoundDuration":738926,"Delta":49398515},{"NoteNumber":41,"Velocity":28,"Duration":738926,"SoundDuration":738926,"Delta":49398515},{"NoteNumber":46,"Velocity":34,"Duration":361663,"SoundDuration":361663,"Delta":49398515},{"NoteNumber":53,"Velocity":30,"Duration":377263,"SoundDuration":377263,"Delta":49760179},{"NoteNumber":57,"Velocity":47,"Duration":753937,"SoundDuration":753937,"Delta":50137442},{"NoteNumber":65,"Velocity":47,"Duration":753937,"SoundDuration":753937,"Delta":50137442},{"NoteNumber":69,"Velocity":56,"Duration":753937,"SoundDuration":753937,"Delta":50137442},{"NoteNumber":48,"Velocity":31,"Duration":364165,"SoundDuration":364165,"Delta":50137442},{"NoteNumber":41,"Velocity":26,"Duration":753937,"SoundDuration":753937,"Delta":50137442},{"NoteNumber":53,"Velocity":26,"Duration":389771,"SoundDuration":389771,"Delta":50501608},{"NoteNumber":58,"Velocity":50,"Duration":763117,"SoundDuration":763117,"Delta":50891380},{"NoteNumber":65,"Velocity":50,"Duration":763117,"SoundDuration":763117,"Delta":50891380},{"NoteNumber":70,"Velocity":59,"Duration":763117,"SoundDuration":763117,"Delta":50891380},{"NoteNumber":50,"Velocity":29,"Duration":371931,"SoundDuration":371931,"Delta":50891380},{"NoteNumber":41,"Velocity":28,"Duration":763117,"SoundDuration":763117,"Delta":50891380},{"NoteNumber":53,"Velocity":27,"Duration":391185,"SoundDuration":391185,"Delta":51263311},{"NoteNumber":65,"Velocity":45,"Duration":791291,"SoundDuration":791291,"Delta":51654497},{"NoteNumber":72,"Velocity":54,"Duration":791291,"SoundDuration":791291,"Delta":51654497},{"NoteNumber":60,"Velocity":40,"Duration":791291,"SoundDuration":791291,"Delta":51654497},{"NoteNumber":69,"Velocity":45,"Duration":791291,"SoundDuration":791291,"Delta":51654497},{"NoteNumber":41,"Velocity":25,"Duration":791291,"SoundDuration":791291,"Delta":51654497},{"NoteNumber":51,"Velocity":35,"Duration":391185,"SoundDuration":391185,"Delta":51654497},{"NoteNumber":53,"Velocity":30,"Duration":400106,"SoundDuration":400106,"Delta":52045682},{"NoteNumber":65,"Velocity":40,"Duration":1955927,"SoundDuration":1955927,"Delta":52445789},{"NoteNumber":72,"Velocity":54,"Duration":1564742,"SoundDuration":1564742,"Delta":52445789},{"NoteNumber":60,"Velocity":40,"Duration":1564742,"SoundDuration":1564742,"Delta":52445789},{"NoteNumber":69,"Velocity":45,"Duration":1564742,"SoundDuration":1564742,"Delta":52445789},{"NoteNumber":41,"Velocity":27,"Duration":1564742,"SoundDuration":1564742,"Delta":52445789},{"NoteNumber":51,"Velocity":32,"Duration":1564742,"SoundDuration":1564742,"Delta":52445789},{"NoteNumber":53,"Velocity":32,"Duration":1955927,"SoundDuration":1955927,"Delta":52445789},{"NoteNumber":58,"Velocity":48,"Duration":391185,"SoundDuration":391185,"Delta":54010531},{"NoteNumber":70,"Velocity":48,"Duration":391185,"SoundDuration":391185,"Delta":54010531},{"NoteNumber":50,"Velocity":28,"Duration":391185,"SoundDuration":391185,"Delta":54010531},{"NoteNumber":46,"Velocity":28,"Duration":391185,"SoundDuration":391185,"Delta":54010531},{"NoteNumber":34,"Velocity":30,"Duration":364165,"SoundDuration":364165,"Delta":54792902},{"NoteNumber":34,"Velocity":30,"Duration":154376,"SoundDuration":154376,"Delta":55521234},{"NoteNumber":35,"Velocity":26,"Duration":153179,"SoundDuration":153179,"Delta":55624383},{"NoteNumber":34,"Velocity":27,"Duration":151998,"SoundDuration":151998,"Delta":55726784},{"NoteNumber":35,"Velocity":25,"Duration":150844,"SoundDuration":150844,"Delta":55828341},{"NoteNumber":34,"Velocity":27,"Duration":149712,"SoundDuration":149712,"Delta":55929172},{"NoteNumber":35,"Velocity":25,"Duration":147661,"SoundDuration":147661,"Delta":56029199},{"NoteNumber":34,"Velocity":28,"Duration":143439,"SoundDuration":143439,"Delta":56128521},{"NoteNumber":35,"Velocity":27,"Duration":144224,"SoundDuration":144224,"Delta":56224353},{"NoteNumber":34,"Velocity":29,"Duration":142306,"SoundDuration":142306,"Delta":56320457},{"NoteNumber":35,"Velocity":26,"Duration":141961,"SoundDuration":141961,"Delta":56416006},{"NoteNumber":34,"Velocity":29,"Duration":140042,"SoundDuration":140042,"Delta":56510605},{"NoteNumber":35,"Velocity":25,"Duration":141349,"SoundDuration":141349,"Delta":56604482},{"NoteNumber":34,"Velocity":28,"Duration":142578,"SoundDuration":142578,"Delta":56697783},{"NoteNumber":35,"Velocity":26,"Duration":140476,"SoundDuration":140476,"Delta":56793605},{"NoteNumber":34,"Velocity":27,"Duration":142217,"SoundDuration":142217,"Delta":56886722},{"NoteNumber":35,"Velocity":25,"Duration":141851,"SoundDuration":141851,"Delta":56981804},{"NoteNumber":34,"Velocity":29,"Duration":143804,"SoundDuration":143804,"Delta":57075323},{"NoteNumber":35,"Velocity":26,"Duration":141828,"SoundDuration":141828,"Delta":57172037},{"NoteNumber":34,"Velocity":28,"Duration":142020,"SoundDuration":142020,"Delta":57265818},{"NoteNumber":35,"Velocity":26,"Duration":140951,"SoundDuration":140951,"Delta":57361411},{"NoteNumber":34,"Velocity":28,"Duration":142112,"SoundDuration":142112,"Delta":57454663},{"NoteNumber":35,"Velocity":25,"Duration":140275,"SoundDuration":140275,"Delta":57550019},{"NoteNumber":34,"Velocity":28,"Duration":140953,"SoundDuration":140953,"Delta":57643267},{"NoteNumber":35,"Velocity":25,"Duration":136146,"SoundDuration":136146,"Delta":57738132},{"NoteNumber":70,"Velocity":51,"Duration":799075,"SoundDuration":799075,"Delta":57826810},{"NoteNumber":34,"Velocity":30,"Duration":223966,"SoundDuration":223966,"Delta":57826810},{"NoteNumber":33,"Velocity":26,"Duration":230068,"SoundDuration":230068,"Delta":58018309},{"NoteNumber":32,"Velocity":30,"Duration":236738,"SoundDuration":236738,"Delta":58215044},{"NoteNumber":31,"Velocity":26,"Duration":243811,"SoundDuration":243811,"Delta":58417535},{"NoteNumber":70,"Velocity":52,"Duration":800531,"SoundDuration":800531,"Delta":58625885},{"NoteNumber":30,"Velocity":30,"Duration":212766,"SoundDuration":212766,"Delta":58625885},{"NoteNumber":49,"Velocity":26,"Duration":212765,"SoundDuration":212765,"Delta":58838651},{"NoteNumber":54,"Velocity":26,"Duration":187500,"SoundDuration":187500,"Delta":59051417},{"NoteNumber":49,"Velocity":26,"Duration":187500,"SoundDuration":187500,"Delta":59238917},{"NoteNumber":68,"Velocity":51,"Duration":726925,"SoundDuration":726925,"Delta":59426417},{"NoteNumber":42,"Velocity":31,"Duration":183083,"SoundDuration":183083,"Delta":59426417},{"NoteNumber":49,"Velocity":26,"Duration":182929,"SoundDuration":182929,"Delta":59609500},{"NoteNumber":53,"Velocity":26,"Duration":181270,"SoundDuration":181270,"Delta":59792429},{"NoteNumber":49,"Velocity":25,"Duration":179642,"SoundDuration":179642,"Delta":59973700},{"NoteNumber":70,"Velocity":52,"Duration":718681,"SoundDuration":718681,"Delta":60153343},{"NoteNumber":42,"Velocity":30,"Duration":178571,"SoundDuration":178571,"Delta":60153343},{"NoteNumber":49,"Velocity":27,"Duration":179462,"SoundDuration":179462,"Delta":60331914},{"NoteNumber":54,"Velocity":27,"Duration":180181,"SoundDuration":180181,"Delta":60511377},{"NoteNumber":49,"Velocity":27,"Duration":180466,"SoundDuration":180466,"Delta":60691559},{"NoteNumber":71,"Velocity":50,"Duration":727272,"SoundDuration":727272,"Delta":60872025},{"NoteNumber":42,"Velocity":30,"Duration":181818,"SoundDuration":181818,"Delta":60872025},{"NoteNumber":49,"Velocity":27,"Duration":181818,"SoundDuration":181818,"Delta":61053843},{"NoteNumber":56,"Velocity":27,"Duration":181818,"SoundDuration":181818,"Delta":61235661},{"NoteNumber":49,"Velocity":27,"Duration":181818,"SoundDuration":181818,"Delta":61417480},{"NoteNumber":73,"Velocity":52,"Duration":2133678,"SoundDuration":2133678,"Delta":61599298},{"NoteNumber":42,"Velocity":33,"Duration":179490,"SoundDuration":179490,"Delta":61599298},{"NoteNumber":49,"Velocity":27,"Duration":179490,"SoundDuration":179490,"Delta":61778788},{"NoteNumber":58,"Velocity":27,"Duration":179490,"SoundDuration":179490,"Delta":61958278},{"NoteNumber":49,"Velocity":27,"Duration":179077,"SoundDuration":179077,"Delta":62137769},{"NoteNumber":42,"Velocity":31,"Duration":178252,"SoundDuration":178252,"Delta":62316846},{"NoteNumber":49,"Velocity":27,"Duration":178252,"SoundDuration":178252,"Delta":62495099},{"NoteNumber":58,"Velocity":27,"Duration":176991,"SoundDuration":176991,"Delta":62673352},{"NoteNumber":49,"Velocity":27,"Duration":176991,"SoundDuration":176991,"Delta":62850344},{"NoteNumber":42,"Velocity":30,"Duration":175829,"SoundDuration":175829,"Delta":63027335},{"NoteNumber":49,"Velocity":27,"Duration":175829,"SoundDuration":175829,"Delta":63203164},{"NoteNumber":58,"Velocity":27,"Duration":176991,"SoundDuration":176991,"Delta":63378993},{"NoteNumber":49,"Velocity":27,"Duration":176991,"SoundDuration":176991,"Delta":63555985},{"NoteNumber":71,"Velocity":56,"Duration":356505,"SoundDuration":356505,"Delta":63732976},{"NoteNumber":42,"Velocity":31,"Duration":178252,"SoundDuration":178252,"Delta":63732976},{"NoteNumber":49,"Velocity":25,"Duration":178252,"SoundDuration":178252,"Delta":63911229},{"NoteNumber":70,"Velocity":53,"Duration":356506,"SoundDuration":356506,"Delta":64089482},{"NoteNumber":54,"Velocity":28,"Duration":178252,"SoundDuration":178252,"Delta":64089482},{"NoteNumber":49,"Velocity":27,"Duration":178253,"SoundDuration":178253,"Delta":64267735},{"NoteNumber":75,"Velocity":58,"Duration":356505,"SoundDuration":356505,"Delta":64445988},{"NoteNumber":42,"Velocity":33,"Duration":178252,"SoundDuration":178252,"Delta":64445988},{"NoteNumber":51,"Velocity":27,"Duration":178252,"SoundDuration":178252,"Delta":64624241},{"NoteNumber":59,"Velocity":27,"Duration":178252,"SoundDuration":178252,"Delta":64802494},{"NoteNumber":51,"Velocity":27,"Duration":178253,"SoundDuration":178253,"Delta":64980747},{"NoteNumber":75,"Velocity":54,"Duration":351658,"SoundDuration":351658,"Delta":65159000},{"NoteNumber":42,"Velocity":32,"Duration":175829,"SoundDuration":175829,"Delta":65159000},{"NoteNumber":51,"Velocity":27,"Duration":175829,"SoundDuration":175829,"Delta":65334829},{"NoteNumber":59,"Velocity":27,"Duration":175829,"SoundDuration":175829,"Delta":65510658},{"NoteNumber":51,"Velocity":27,"Duration":175829,"SoundDuration":175829,"Delta":65686488},{"NoteNumber":75,"Velocity":54,"Duration":351658,"SoundDuration":351658,"Delta":65862317},{"NoteNumber":42,"Velocity":32,"Duration":175829,"SoundDuration":175829,"Delta":65862317},{"NoteNumber":51,"Velocity":27,"Duration":175829,"SoundDuration":175829,"Delta":66038146},{"NoteNumber":59,"Velocity":27,"Duration":175829,"SoundDuration":175829,"Delta":66213975},{"NoteNumber":51,"Velocity":27,"Duration":175829,"SoundDuration":175829,"Delta":66389805},{"NoteNumber":77,"Velocity":56,"Duration":387096,"SoundDuration":387096,"Delta":66565634},{"NoteNumber":42,"Velocity":33,"Duration":193548,"SoundDuration":193548,"Delta":66565634},{"NoteNumber":51,"Velocity":27,"Duration":193548,"SoundDuration":193548,"Delta":66759182},{"NoteNumber":78,"Velocity":51,"Duration":365853,"SoundDuration":365853,"Delta":66952731},{"NoteNumber":59,"Velocity":31,"Duration":182926,"SoundDuration":182926,"Delta":66952731},{"NoteNumber":51,"Velocity":27,"Duration":182926,"SoundDuration":182926,"Delta":67135658},{"NoteNumber":73,"Velocity":54,"Duration":2135806,"SoundDuration":2135806,"Delta":67318584},{"NoteNumber":42,"Velocity":33,"Duration":179490,"SoundDuration":179490,"Delta":67318584},{"NoteNumber":49,"Velocity":28,"Duration":179490,"SoundDuration":179490,"Delta":67498075},{"NoteNumber":58,"Velocity":28,"Duration":179490,"SoundDuration":179490,"Delta":67677565},{"NoteNumber":49,"Velocity":28,"Duration":179490,"SoundDuration":179490,"Delta":67857055},{"NoteNumber":42,"Velocity":33,"Duration":179490,"SoundDuration":179490,"Delta":68036545},{"NoteNumber":49,"Velocity":27,"Duration":178665,"SoundDuration":178665,"Delta":68216036},{"NoteNumber":58,"Velocity":28,"Duration":177832,"SoundDuration":177832,"Delta":68394701},{"NoteNumber":49,"Velocity":27,"Duration":176603,"SoundDuration":176603,"Delta":68572534},{"NoteNumber":42,"Velocity":33,"Duration":175829,"SoundDuration":175829,"Delta":68749137},{"NoteNumber":49,"Velocity":28,"Duration":175829,"SoundDuration":175829,"Delta":68924967},{"NoteNumber":58,"Velocity":29,"Duration":176603,"SoundDuration":176603,"Delta":69100796},{"NoteNumber":49,"Velocity":29,"Duration":176991,"SoundDuration":176991,"Delta":69277400},{"NoteNumber":71,"Velocity":52,"Duration":356505,"SoundDuration":356505,"Delta":69454391},{"NoteNumber":42,"Velocity":33,"Duration":178252,"SoundDuration":178252,"Delta":69454391},{"NoteNumber":49,"Velocity":27,"Duration":178252,"SoundDuration":178252,"Delta":69632644},{"NoteNumber":70,"Velocity":51,"Duration":356506,"SoundDuration":356506,"Delta":69810897},{"NoteNumber":54,"Velocity":31,"Duration":178252,"SoundDuration":178252,"Delta":69810897},{"NoteNumber":49,"Velocity":27,"Duration":178253,"SoundDuration":178253,"Delta":69989150},{"NoteNumber":71,"Velocity":52,"Duration":703316,"SoundDuration":703316,"Delta":70167403},{"NoteNumber":42,"Velocity":33,"Duration":175829,"SoundDuration":175829,"Delta":70167403},{"NoteNumber":51,"Velocity":28,"Duration":175829,"SoundDuration":175829,"Delta":70343232},{"NoteNumber":59,"Velocity":28,"Duration":175829,"SoundDuration":175829,"Delta":70519062},{"NoteNumber":51,"Velocity":28,"Duration":175829,"SoundDuration":175829,"Delta":70694891},{"NoteNumber":75,"Velocity":52,"Duration":703316,"SoundDuration":703316,"Delta":70870720},{"NoteNumber":42,"Velocity":33,"Duration":175829,"SoundDuration":175829,"Delta":70870720},{"NoteNumber":51,"Velocity":29,"Duration":175829,"SoundDuration":175829,"Delta":71046549},{"NoteNumber":59,"Velocity":29,"Duration":175829,"SoundDuration":175829,"Delta":71222379},{"NoteNumber":51,"Velocity":29,"Duration":175829,"SoundDuration":175829,"Delta":71398208},{"NoteNumber":68,"Velocity":52,"Duration":713012,"SoundDuration":713012,"Delta":71574037},{"NoteNumber":42,"Velocity":33,"Duration":178252,"SoundDuration":178252,"Delta":71574037},{"NoteNumber":49,"Velocity":28,"Duration":178252,"SoundDuration":178252,"Delta":71752290},{"NoteNumber":53,"Velocity":28,"Duration":178252,"SoundDuration":178252,"Delta":71930543},{"NoteNumber":49,"Velocity":27,"Duration":178253,"SoundDuration":178253,"Delta":72108796},{"NoteNumber":71,"Velocity":52,"Duration":713011,"SoundDuration":713011,"Delta":72287049},{"NoteNumber":42,"Velocity":31,"Duration":178252,"SoundDuration":178252,"Delta":72287049},{"NoteNumber":49,"Velocity":27,"Duration":178252,"SoundDuration":178252,"Delta":72465302},{"NoteNumber":56,"Velocity":28,"Duration":178252,"SoundDuration":178252,"Delta":72643555},{"NoteNumber":49,"Velocity":28,"Duration":178252,"SoundDuration":178252,"Delta":72821808},{"NoteNumber":70,"Velocity":54,"Duration":717961,"SoundDuration":717961,"Delta":73000061},{"NoteNumber":42,"Velocity":33,"Duration":179490,"SoundDuration":179490,"Delta":73000061},{"NoteNumber":49,"Velocity":28,"Duration":179490,"SoundDuration":179490,"Delta":73179551},{"NoteNumber":58,"Velocity":28,"Duration":179490,"SoundDuration":179490,"Delta":73359042},{"NoteNumber":49,"Velocity":28,"Duration":179490,"SoundDuration":179490,"Delta":73538532},{"NoteNumber":66,"Velocity":51,"Duration":1031938,"SoundDuration":1031938,"Delta":73718022},{"NoteNumber":78,"Velocity":61,"Duration":1031938,"SoundDuration":1031938,"Delta":73718022},{"NoteNumber":42,"Velocity":33,"Duration":174418,"SoundDuration":174418,"Delta":73718022},{"NoteNumber":49,"Velocity":27,"Duration":173078,"SoundDuration":173078,"Delta":73892441},{"NoteNumber":58,"Velocity":28,"Duration":171756,"SoundDuration":171756,"Delta":74065519},{"NoteNumber":49,"Velocity":27,"Duration":170133,"SoundDuration":170133,"Delta":74237276},{"NoteNumber":42,"Velocity":33,"Duration":170133,"SoundDuration":170133,"Delta":74407409},{"NoteNumber":49,"Velocity":28,"Duration":172417,"SoundDuration":172417,"Delta":74577543},{"NoteNumber":65,"Velocity":45,"Duration":353661,"SoundDuration":353661,"Delta":74749960},{"NoteNumber":77,"Velocity":53,"Duration":353661,"SoundDuration":353661,"Delta":74749960},{"NoteNumber":58,"Velocity":29,"Duration":175442,"SoundDuration":175442,"Delta":74749960},{"NoteNumber":49,"Velocity":29,"Duration":178219,"SoundDuration":178219,"Delta":74925403},{"NoteNumber":75,"Velocity":56,"Duration":356505,"SoundDuration":356505,"Delta":75103622},{"NoteNumber":63,"Velocity":47,"Duration":356505,"SoundDuration":356505,"Delta":75103622},{"NoteNumber":42,"Velocity":33,"Duration":178252,"SoundDuration":178252,"Delta":75103622},{"NoteNumber":49,"Velocity":27,"Duration":178252,"SoundDuration":178252,"Delta":75281875},{"NoteNumber":61,"Velocity":43,"Duration":356506,"SoundDuration":356506,"Delta":75460128},{"NoteNumber":73,"Velocity":51,"Duration":356506,"SoundDuration":356506,"Delta":75460128},{"NoteNumber":58,"Velocity":31,"Duration":178252,"SoundDuration":178252,"Delta":75460128},{"NoteNumber":49,"Velocity":27,"Duration":178253,"SoundDuration":178253,"Delta":75638381},{"NoteNumber":59,"Velocity":46,"Duration":703316,"SoundDuration":703316,"Delta":75816634},{"NoteNumber":71,"Velocity":54,"Duration":703316,"SoundDuration":703316,"Delta":75816634},{"NoteNumber":42,"Velocity":33,"Duration":175829,"SoundDuration":175829,"Delta":75816634},{"NoteNumber":51,"Velocity":28,"Duration":175829,"SoundDuration":175829,"Delta":75992463},{"NoteNumber":54,"Velocity":28,"Duration":175829,"SoundDuration":175829,"Delta":76168293},{"NoteNumber":51,"Velocity":28,"Duration":175829,"SoundDuration":175829,"Delta":76344122},{"NoteNumber":75,"Velocity":56,"Duration":703316,"SoundDuration":703316,"Delta":76519951},{"NoteNumber":42,"Velocity":33,"Duration":175829,"SoundDuration":175829,"Delta":76519951},{"NoteNumber":51,"Velocity":29,"Duration":175829,"SoundDuration":175829,"Delta":76695780},{"NoteNumber":59,"Velocity":29,"Duration":175829,"SoundDuration":175829,"Delta":76871610},{"NoteNumber":51,"Velocity":29,"Duration":175829,"SoundDuration":175829,"Delta":77047439},{"NoteNumber":68,"Velocity":54,"Duration":713012,"SoundDuration":713012,"Delta":77223268},{"NoteNumber":42,"Velocity":33,"Duration":178252,"SoundDuration":178252,"Delta":77223268},{"NoteNumber":49,"Velocity":28,"Duration":178252,"SoundDuration":178252,"Delta":77401521},{"NoteNumber":53,"Velocity":28,"Duration":178252,"SoundDuration":178252,"Delta":77579774},{"NoteNumber":49,"Velocity":27,"Duration":178253,"SoundDuration":178253,"Delta":77758027},{"NoteNumber":70,"Velocity":52,"Duration":356505,"SoundDuration":356505,"Delta":77936280},{"NoteNumber":42,"Velocity":31,"Duration":178252,"SoundDuration":178252,"Delta":77936280},{"NoteNumber":49,"Velocity":27,"Duration":178252,"SoundDuration":178252,"Delta":78114533},{"NoteNumber":71,"Velocity":52,"Duration":356505,"SoundDuration":356505,"Delta":78292786},{"NoteNumber":56,"Velocity":28,"Duration":178252,"SoundDuration":178252,"Delta":78292786},{"NoteNumber":49,"Velocity":28,"Duration":178252,"SoundDuration":178252,"Delta":78471039},{"NoteNumber":70,"Velocity":55,"Duration":333333,"SoundDuration":333333,"Delta":78649292},{"NoteNumber":42,"Velocity":33,"Duration":166666,"SoundDuration":166666,"Delta":78649292},{"NoteNumber":58,"Velocity":28,"Duration":166666,"SoundDuration":166666,"Delta":78815959},{"NoteNumber":73,"Velocity":52,"Duration":344827,"SoundDuration":344827,"Delta":78982626},{"NoteNumber":54,"Velocity":28,"Duration":172413,"SoundDuration":172413,"Delta":78982626},{"NoteNumber":58,"Velocity":28,"Duration":172413,"SoundDuration":172413,"Delta":79155039},{"NoteNumber":82,"Velocity":56,"Duration":333333,"SoundDuration":333333,"Delta":79327453},{"NoteNumber":54,"Velocity":33,"Duration":166666,"SoundDuration":166666,"Delta":79327453},{"NoteNumber":58,"Velocity":29,"Duration":166666,"SoundDuration":166666,"Delta":79494120},{"NoteNumber":78,"Velocity":52,"Duration":342856,"SoundDuration":342856,"Delta":79660787},{"NoteNumber":54,"Velocity":29,"Duration":171428,"SoundDuration":171428,"Delta":79660787},{"NoteNumber":58,"Velocity":29,"Duration":171428,"SoundDuration":171428,"Delta":79832215},{"NoteNumber":73,"Velocity":56,"Duration":324324,"SoundDuration":324324,"Delta":80003644},{"NoteNumber":42,"Velocity":33,"Duration":162162,"SoundDuration":162162,"Delta":80003644},{"NoteNumber":58,"Velocity":28,"Duration":162162,"SoundDuration":162162,"Delta":80165806},{"NoteNumber":70,"Velocity":52,"Duration":333333,"SoundDuration":333333,"Delta":80327968},{"NoteNumber":54,"Velocity":28,"Duration":166666,"SoundDuration":166666,"Delta":80327968},{"NoteNumber":58,"Velocity":27,"Duration":166666,"SoundDuration":166666,"Delta":80494635},{"NoteNumber":78,"Velocity":55,"Duration":323171,"SoundDuration":323171,"Delta":80661302},{"NoteNumber":54,"Velocity":31,"Duration":161585,"SoundDuration":161585,"Delta":80661302},{"NoteNumber":58,"Velocity":27,"Duration":161585,"SoundDuration":161585,"Delta":80822887},{"NoteNumber":74,"Velocity":52,"Duration":329924,"SoundDuration":329924,"Delta":80984473},{"NoteNumber":54,"Velocity":28,"Duration":164962,"SoundDuration":164962,"Delta":80984473},{"NoteNumber":58,"Velocity":28,"Duration":164962,"SoundDuration":164962,"Delta":81149435},{"NoteNumber":75,"Velocity":55,"Duration":323171,"SoundDuration":323171,"Delta":81314397},{"NoteNumber":42,"Velocity":33,"Duration":161585,"SoundDuration":161585,"Delta":81314397},{"NoteNumber":59,"Velocity":28,"Duration":161585,"SoundDuration":161585,"Delta":81475983},{"NoteNumber":71,"Velocity":52,"Duration":326087,"SoundDuration":326087,"Delta":81637569},{"NoteNumber":54,"Velocity":28,"Duration":163043,"SoundDuration":163043,"Delta":81637569},{"NoteNumber":59,"Velocity":28,"Duration":163043,"SoundDuration":163043,"Delta":81800612},{"NoteNumber":83,"Velocity":56,"Duration":319148,"SoundDuration":319148,"Delta":81963656},{"NoteNumber":54,"Velocity":33,"Duration":159574,"SoundDuration":159574,"Delta":81963656},{"NoteNumber":59,"Velocity":29,"Duration":159574,"SoundDuration":159574,"Delta":82123230},{"NoteNumber":80,"Velocity":54,"Duration":324324,"SoundDuration":324324,"Delta":82282805},{"NoteNumber":54,"Velocity":29,"Duration":162162,"SoundDuration":162162,"Delta":82282805},{"NoteNumber":59,"Velocity":29,"Duration":162162,"SoundDuration":162162,"Delta":82444967},{"NoteNumber":77,"Velocity":58,"Duration":313348,"SoundDuration":313348,"Delta":82607129},{"NoteNumber":42,"Velocity":33,"Duration":156674,"SoundDuration":156674,"Delta":82607129},{"NoteNumber":59,"Velocity":28,"Duration":156674,"SoundDuration":156674,"Delta":82763803},{"NoteNumber":80,"Velocity":56,"Duration":320718,"SoundDuration":320718,"Delta":82920478},{"NoteNumber":54,"Velocity":28,"Duration":160359,"SoundDuration":160359,"Delta":82920478},{"NoteNumber":59,"Velocity":27,"Duration":160359,"SoundDuration":160359,"Delta":83080837},{"NoteNumber":85,"Velocity":58,"Duration":313348,"SoundDuration":313348,"Delta":83241196},{"NoteNumber":54,"Velocity":31,"Duration":156674,"SoundDuration":156674,"Delta":83241196},{"NoteNumber":59,"Velocity":27,"Duration":156674,"SoundDuration":156674,"Delta":83397870},{"NoteNumber":81,"Velocity":54,"Duration":326548,"SoundDuration":326548,"Delta":83554545},{"NoteNumber":54,"Velocity":28,"Duration":163274,"SoundDuration":163274,"Delta":83554545},{"NoteNumber":59,"Velocity":28,"Duration":163274,"SoundDuration":163274,"Delta":83717819},{"NoteNumber":82,"Velocity":57,"Duration":323171,"SoundDuration":323171,"Delta":83881093},{"NoteNumber":42,"Velocity":33,"Duration":80792,"SoundDuration":80792,"Delta":83881093},{"NoteNumber":58,"Velocity":28,"Duration":161585,"SoundDuration":161585,"Delta":84042679},{"NoteNumber":78,"Velocity":54,"Duration":318775,"SoundDuration":318775,"Delta":84204265},{"NoteNumber":54,"Velocity":28,"Duration":159388,"SoundDuration":159388,"Delta":84204265},{"NoteNumber":58,"Velocity":28,"Duration":159387,"SoundDuration":159387,"Delta":84363653},{"NoteNumber":82,"Velocity":57,"Duration":148104,"SoundDuration":148104,"Delta":84523041},{"NoteNumber":54,"Velocity":33,"Duration":148104,"SoundDuration":148104,"Delta":84523041},{"NoteNumber":78,"Velocity":51,"Duration":148104,"SoundDuration":148104,"Delta":84671145},{"NoteNumber":58,"Velocity":29,"Duration":148104,"SoundDuration":148104,"Delta":84671145},{"NoteNumber":82,"Velocity":56,"Duration":153123,"SoundDuration":153123,"Delta":84819249},{"NoteNumber":54,"Velocity":29,"Duration":153123,"SoundDuration":153123,"Delta":84819249},{"NoteNumber":78,"Velocity":50,"Duration":153123,"SoundDuration":153123,"Delta":84972373},{"NoteNumber":58,"Velocity":29,"Duration":153123,"SoundDuration":153123,"Delta":84972373},{"NoteNumber":73,"Velocity":56,"Duration":148104,"SoundDuration":148104,"Delta":85125497},{"NoteNumber":42,"Velocity":33,"Duration":74052,"SoundDuration":74052,"Delta":85125497},{"NoteNumber":70,"Velocity":52,"Duration":148104,"SoundDuration":148104,"Delta":85273601},{"NoteNumber":58,"Velocity":28,"Duration":148104,"SoundDuration":148104,"Delta":85273601},{"NoteNumber":73,"Velocity":56,"Duration":153123,"SoundDuration":153123,"Delta":85421705},{"NoteNumber":54,"Velocity":28,"Duration":153123,"SoundDuration":153123,"Delta":85421705},{"NoteNumber":70,"Velocity":53,"Duration":153123,"SoundDuration":153123,"Delta":85574829},{"NoteNumber":58,"Velocity":27,"Duration":153123,"SoundDuration":153123,"Delta":85574829},{"NoteNumber":78,"Velocity":58,"Duration":156674,"SoundDuration":156674,"Delta":85727953},{"NoteNumber":54,"Velocity":31,"Duration":156674,"SoundDuration":156674,"Delta":85727953},{"NoteNumber":74,"Velocity":53,"Duration":156674,"SoundDuration":156674,"Delta":85884627},{"NoteNumber":58,"Velocity":27,"Duration":156674,"SoundDuration":156674,"Delta":85884627},{"NoteNumber":78,"Velocity":57,"Duration":159438,"SoundDuration":159438,"Delta":86041301},{"NoteNumber":54,"Velocity":28,"Duration":159438,"SoundDuration":159438,"Delta":86041301},{"NoteNumber":74,"Velocity":52,"Duration":159438,"SoundDuration":159438,"Delta":86200740},{"NoteNumber":58,"Velocity":28,"Duration":159438,"SoundDuration":159438,"Delta":86200740},{"NoteNumber":75,"Velocity":57,"Duration":154878,"SoundDuration":154878,"Delta":86360179},{"NoteNumber":42,"Velocity":33,"Duration":77439,"SoundDuration":77439,"Delta":86360179},{"NoteNumber":71,"Velocity":52,"Duration":154878,"SoundDuration":154878,"Delta":86515057},{"NoteNumber":59,"Velocity":28,"Duration":154878,"SoundDuration":154878,"Delta":86515057},{"NoteNumber":75,"Velocity":54,"Duration":150572,"SoundDuration":150572,"Delta":86669936},{"NoteNumber":54,"Velocity":28,"Duration":150572,"SoundDuration":150572,"Delta":86669936},{"NoteNumber":71,"Velocity":52,"Duration":150572,"SoundDuration":150572,"Delta":86820508},{"NoteNumber":59,"Velocity":28,"Duration":150572,"SoundDuration":150572,"Delta":86820508},{"NoteNumber":83,"Velocity":57,"Duration":145419,"SoundDuration":145419,"Delta":86971081},{"NoteNumber":54,"Velocity":33,"Duration":145419,"SoundDuration":145419,"Delta":86971081},{"NoteNumber":80,"Velocity":51,"Duration":145419,"SoundDuration":145419,"Delta":87116500},{"NoteNumber":59,"Velocity":29,"Duration":145419,"SoundDuration":145419,"Delta":87116500},{"NoteNumber":83,"Velocity":56,"Duration":154878,"SoundDuration":154878,"Delta":87261919},{"NoteNumber":54,"Velocity":29,"Duration":154878,"SoundDuration":154878,"Delta":87261919},{"NoteNumber":80,"Velocity":50,"Duration":154878,"SoundDuration":154878,"Delta":87416798},{"NoteNumber":59,"Velocity":29,"Duration":154878,"SoundDuration":154878,"Delta":87416798},{"NoteNumber":77,"Velocity":56,"Duration":150000,"SoundDuration":150000,"Delta":87571677},{"NoteNumber":42,"Velocity":33,"Duration":75000,"SoundDuration":75000,"Delta":87571677},{"NoteNumber":80,"Velocity":52,"Duration":149999,"SoundDuration":149999,"Delta":87721677},{"NoteNumber":59,"Velocity":28,"Duration":149999,"SoundDuration":149999,"Delta":87721677},{"NoteNumber":77,"Velocity":56,"Duration":153846,"SoundDuration":153846,"Delta":87871677},{"NoteNumber":54,"Velocity":28,"Duration":153846,"SoundDuration":153846,"Delta":87871677},{"NoteNumber":80,"Velocity":53,"Duration":153846,"SoundDuration":153846,"Delta":88025523},{"NoteNumber":59,"Velocity":27,"Duration":153846,"SoundDuration":153846,"Delta":88025523},{"NoteNumber":85,"Velocity":58,"Duration":150000,"SoundDuration":150000,"Delta":88179369},{"NoteNumber":54,"Velocity":31,"Duration":150000,"SoundDuration":150000,"Delta":88179369},{"NoteNumber":81,"Velocity":53,"Duration":149999,"SoundDuration":149999,"Delta":88329369},{"NoteNumber":59,"Velocity":27,"Duration":149999,"SoundDuration":149999,"Delta":88329369},{"NoteNumber":85,"Velocity":57,"Duration":154639,"SoundDuration":154639,"Delta":88479369},{"NoteNumber":54,"Velocity":28,"Duration":154639,"SoundDuration":154639,"Delta":88479369},{"NoteNumber":81,"Velocity":52,"Duration":154639,"SoundDuration":154639,"Delta":88634008},{"NoteNumber":59,"Velocity":28,"Duration":154639,"SoundDuration":154639,"Delta":88634008},{"NoteNumber":82,"Velocity":57,"Duration":157579,"SoundDuration":157579,"Delta":88788648},{"NoteNumber":42,"Velocity":33,"Duration":78789,"SoundDuration":78789,"Delta":88788648},{"NoteNumber":81,"Velocity":53,"Duration":157579,"SoundDuration":157579,"Delta":88946227},{"NoteNumber":58,"Velocity":28,"Duration":157579,"SoundDuration":157579,"Delta":88946227},{"NoteNumber":82,"Velocity":52,"Duration":153988,"SoundDuration":153988,"Delta":89103807},{"NoteNumber":54,"Velocity":28,"Duration":153988,"SoundDuration":153988,"Delta":89103807},{"NoteNumber":77,"Velocity":52,"Duration":153988,"SoundDuration":153988,"Delta":89257795},{"NoteNumber":58,"Velocity":28,"Duration":153988,"SoundDuration":153988,"Delta":89257795},{"NoteNumber":78,"Velocity":57,"Duration":150572,"SoundDuration":150572,"Delta":89411783},{"NoteNumber":54,"Velocity":33,"Duration":150572,"SoundDuration":150572,"Delta":89411783},{"NoteNumber":77,"Velocity":51,"Duration":150572,"SoundDuration":150572,"Delta":89562355},{"NoteNumber":58,"Velocity":29,"Duration":150572,"SoundDuration":150572,"Delta":89562355},{"NoteNumber":78,"Velocity":51,"Duration":155763,"SoundDuration":155763,"Delta":89712928},{"NoteNumber":54,"Velocity":29,"Duration":155763,"SoundDuration":155763,"Delta":89712928},{"NoteNumber":72,"Velocity":50,"Duration":155763,"SoundDuration":155763,"Delta":89868691},{"NoteNumber":58,"Velocity":29,"Duration":155763,"SoundDuration":155763,"Delta":89868691},{"NoteNumber":73,"Velocity":55,"Duration":153123,"SoundDuration":153123,"Delta":90024454},{"NoteNumber":54,"Velocity":33,"Duration":153123,"SoundDuration":153123,"Delta":90024454},{"NoteNumber":72,"Velocity":51,"Duration":153123,"SoundDuration":153123,"Delta":90177578},{"NoteNumber":58,"Velocity":28,"Duration":153123,"SoundDuration":153123,"Delta":90177578},{"NoteNumber":73,"Velocity":51,"Duration":156674,"SoundDuration":156674,"Delta":90330702},{"NoteNumber":54,"Velocity":28,"Duration":156674,"SoundDuration":156674,"Delta":90330702},{"NoteNumber":69,"Velocity":51,"Duration":156674,"SoundDuration":156674,"Delta":90487376},{"NoteNumber":58,"Velocity":27,"Duration":156674,"SoundDuration":156674,"Delta":90487376},{"NoteNumber":70,"Velocity":54,"Duration":158495,"SoundDuration":158495,"Delta":90644050},{"NoteNumber":54,"Velocity":31,"Duration":158495,"SoundDuration":158495,"Delta":90644050},{"NoteNumber":69,"Velocity":47,"Duration":158495,"SoundDuration":158495,"Delta":90802545},{"NoteNumber":58,"Velocity":27,"Duration":158495,"SoundDuration":158495,"Delta":90802545},{"NoteNumber":70,"Velocity":49,"Duration":162302,"SoundDuration":162302,"Delta":90961041},{"NoteNumber":54,"Velocity":28,"Duration":162302,"SoundDuration":162302,"Delta":90961041},{"NoteNumber":65,"Velocity":47,"Duration":162302,"SoundDuration":162302,"Delta":91123343},{"NoteNumber":58,"Velocity":28,"Duration":162302,"SoundDuration":162302,"Delta":91123343},{"NoteNumber":66,"Velocity":57,"Duration":158495,"SoundDuration":158495,"Delta":91285646},{"NoteNumber":42,"Velocity":33,"Duration":79247,"SoundDuration":79247,"Delta":91285646},{"NoteNumber":81,"Velocity":53,"Duration":158495,"SoundDuration":158495,"Delta":91444141},{"NoteNumber":58,"Velocity":28,"Duration":158495,"SoundDuration":158495,"Delta":91444141},{"NoteNumber":82,"Velocity":52,"Duration":155763,"SoundDuration":155763,"Delta":91602636},{"NoteNumber":54,"Velocity":28,"Duration":155763,"SoundDuration":155763,"Delta":91602636},{"NoteNumber":77,"Velocity":52,"Duration":155763,"SoundDuration":155763,"Delta":91758399},{"NoteNumber":58,"Velocity":28,"Duration":155763,"SoundDuration":155763,"Delta":91758399},{"NoteNumber":78,"Velocity":57,"Duration":149238,"SoundDuration":149238,"Delta":91914163},{"NoteNumber":54,"Velocity":33,"Duration":149238,"SoundDuration":149238,"Delta":91914163},{"NoteNumber":77,"Velocity":51,"Duration":149239,"SoundDuration":149239,"Delta":92063402},{"NoteNumber":58,"Velocity":29,"Duration":149239,"SoundDuration":149239,"Delta":92063402},{"NoteNumber":78,"Velocity":51,"Duration":155763,"SoundDuration":155763,"Delta":92212641},{"NoteNumber":54,"Velocity":29,"Duration":155763,"SoundDuration":155763,"Delta":92212641},{"NoteNumber":72,"Velocity":50,"Duration":155763,"SoundDuration":155763,"Delta":92368404},{"NoteNumber":58,"Velocity":29,"Duration":155763,"SoundDuration":155763,"Delta":92368404},{"NoteNumber":73,"Velocity":55,"Duration":151408,"SoundDuration":151408,"Delta":92524167},{"NoteNumber":54,"Velocity":33,"Duration":151408,"SoundDuration":151408,"Delta":92524167},{"NoteNumber":72,"Velocity":51,"Duration":151408,"SoundDuration":151408,"Delta":92675575},{"NoteNumber":58,"Velocity":28,"Duration":151408,"SoundDuration":151408,"Delta":92675575},{"NoteNumber":73,"Velocity":51,"Duration":157579,"SoundDuration":157579,"Delta":92826983},{"NoteNumber":54,"Velocity":28,"Duration":157579,"SoundDuration":157579,"Delta":92826983},{"NoteNumber":69,"Velocity":51,"Duration":157579,"SoundDuration":157579,"Delta":92984563},{"NoteNumber":58,"Velocity":27,"Duration":157579,"SoundDuration":157579,"Delta":92984563},{"NoteNumber":70,"Velocity":54,"Duration":153123,"SoundDuration":153123,"Delta":93142142},{"NoteNumber":54,"Velocity":31,"Duration":153123,"SoundDuration":153123,"Delta":93142142},{"NoteNumber":69,"Velocity":47,"Duration":153123,"SoundDuration":153123,"Delta":93295266},{"NoteNumber":58,"Velocity":27,"Duration":153123,"SoundDuration":153123,"Delta":93295266},{"NoteNumber":70,"Velocity":49,"Duration":158495,"SoundDuration":158495,"Delta":93448390},{"NoteNumber":54,"Velocity":28,"Duration":158495,"SoundDuration":158495,"Delta":93448390},{"NoteNumber":65,"Velocity":47,"Duration":158495,"SoundDuration":158495,"Delta":93606885},{"NoteNumber":58,"Velocity":28,"Duration":158495,"SoundDuration":158495,"Delta":93606885},{"NoteNumber":66,"Velocity":53,"Duration":157579,"SoundDuration":157579,"Delta":93765380},{"NoteNumber":54,"Velocity":33,"Duration":157579,"SoundDuration":157579,"Delta":93765380},{"NoteNumber":65,"Velocity":49,"Duration":157579,"SoundDuration":157579,"Delta":93922960},{"NoteNumber":58,"Velocity":28,"Duration":157579,"SoundDuration":157579,"Delta":93922960},{"NoteNumber":66,"Velocity":49,"Duration":155763,"SoundDuration":155763,"Delta":94080539},{"NoteNumber":54,"Velocity":28,"Duration":155763,"SoundDuration":155763,"Delta":94080539},{"NoteNumber":68,"Velocity":49,"Duration":155763,"SoundDuration":155763,"Delta":94236302},{"NoteNumber":58,"Velocity":28,"Duration":155763,"SoundDuration":155763,"Delta":94236302},{"NoteNumber":70,"Velocity":55,"Duration":155763,"SoundDuration":155763,"Delta":94392066},{"NoteNumber":54,"Velocity":33,"Duration":155763,"SoundDuration":155763,"Delta":94392066},{"NoteNumber":71,"Velocity":49,"Duration":155763,"SoundDuration":155763,"Delta":94547829},{"NoteNumber":58,"Velocity":29,"Duration":155763,"SoundDuration":155763,"Delta":94547829},{"NoteNumber":70,"Velocity":49,"Duration":159388,"SoundDuration":159388,"Delta":94703592},{"NoteNumber":54,"Velocity":29,"Duration":159388,"SoundDuration":159388,"Delta":94703592},{"NoteNumber":68,"Velocity":49,"Duration":159387,"SoundDuration":159387,"Delta":94862980},{"NoteNumber":58,"Velocity":30,"Duration":159387,"SoundDuration":159387,"Delta":94862980},{"NoteNumber":66,"Velocity":55,"Duration":163809,"SoundDuration":163809,"Delta":95022368},{"NoteNumber":54,"Velocity":34,"Duration":163809,"SoundDuration":163809,"Delta":95022368},{"NoteNumber":68,"Velocity":50,"Duration":163809,"SoundDuration":163809,"Delta":95186177},{"NoteNumber":58,"Velocity":29,"Duration":163809,"SoundDuration":163809,"Delta":95186177},{"NoteNumber":70,"Velocity":50,"Duration":169663,"SoundDuration":169663,"Delta":95349986},{"NoteNumber":54,"Velocity":29,"Duration":169663,"SoundDuration":169663,"Delta":95349986},{"NoteNumber":68,"Velocity":50,"Duration":169663,"SoundDuration":169663,"Delta":95519650},{"NoteNumber":58,"Velocity":28,"Duration":169663,"SoundDuration":169663,"Delta":95519650},{"NoteNumber":66,"Velocity":55,"Duration":166685,"SoundDuration":166685,"Delta":95689314},{"NoteNumber":54,"Velocity":33,"Duration":166685,"SoundDuration":166685,"Delta":95689314},{"NoteNumber":68,"Velocity":50,"Duration":166685,"SoundDuration":166685,"Delta":95855999},{"NoteNumber":58,"Velocity":29,"Duration":166685,"SoundDuration":166685,"Delta":95855999},{"NoteNumber":66,"Velocity":52,"Duration":173812,"SoundDuration":173812,"Delta":96022685},{"NoteNumber":54,"Velocity":30,"Duration":173812,"SoundDuration":173812,"Delta":96022685},{"NoteNumber":65,"Velocity":51,"Duration":173812,"SoundDuration":173812,"Delta":96196497},{"NoteNumber":58,"Velocity":30,"Duration":173812,"SoundDuration":173812,"Delta":96196497},{"NoteNumber":64,"Velocity":57,"Duration":248447,"SoundDuration":248447,"Delta":96370309},{"NoteNumber":42,"Velocity":34,"Duration":248447,"SoundDuration":248447,"Delta":96370309},{"NoteNumber":70,"Velocity":52,"Duration":223529,"SoundDuration":223529,"Delta":96618756},{"NoteNumber":54,"Velocity":31,"Duration":223529,"SoundDuration":223529,"Delta":96618756},{"NoteNumber":58,"Velocity":45,"Duration":223529,"SoundDuration":223529,"Delta":96854050},{"NoteNumber":64,"Velocity":45,"Duration":223529,"SoundDuration":223529,"Delta":96854050},{"NoteNumber":70,"Velocity":54,"Duration":223529,"SoundDuration":223529,"Delta":96854050},{"NoteNumber":54,"Velocity":31,"Duration":223529,"SoundDuration":223529,"Delta":96854050},{"NoteNumber":42,"Velocity":25,"Duration":223529,"SoundDuration":223529,"Delta":96854050},{"NoteNumber":58,"Velocity":50,"Duration":223529,"SoundDuration":223529,"Delta":97089344},{"NoteNumber":70,"Velocity":59,"Duration":223529,"SoundDuration":223529,"Delta":97089344},{"NoteNumber":64,"Velocity":50,"Duration":223529,"SoundDuration":223529,"Delta":97089344},{"NoteNumber":42,"Velocity":29,"Duration":223529,"SoundDuration":223529,"Delta":97089344},{"NoteNumber":54,"Velocity":35,"Duration":223529,"SoundDuration":223529,"Delta":97089344},{"NoteNumber":64,"Velocity":47,"Duration":223529,"SoundDuration":223529,"Delta":97324638},{"NoteNumber":70,"Velocity":56,"Duration":223529,"SoundDuration":223529,"Delta":97324638},{"NoteNumber":58,"Velocity":47,"Duration":223529,"SoundDuration":223529,"Delta":97324638},{"NoteNumber":42,"Velocity":25,"Duration":223529,"SoundDuration":223529,"Delta":97324638},{"NoteNumber":54,"Velocity":31,"Duration":223529,"SoundDuration":223529,"Delta":97324638},{"NoteNumber":70,"Velocity":57,"Duration":223529,"SoundDuration":223529,"Delta":97559932},{"NoteNumber":58,"Velocity":48,"Duration":223529,"SoundDuration":223529,"Delta":97559932},{"NoteNumber":64,"Velocity":48,"Duration":223529,"SoundDuration":223529,"Delta":97559932},{"NoteNumber":42,"Velocity":27,"Duration":223529,"SoundDuration":223529,"Delta":97559932},{"NoteNumber":54,"Velocity":33,"Duration":223529,"SoundDuration":223529,"Delta":97559932},{"NoteNumber":70,"Velocity":62,"Duration":220008,"SoundDuration":220008,"Delta":97795226},{"NoteNumber":58,"Velocity":52,"Duration":220008,"SoundDuration":220008,"Delta":97795226},{"NoteNumber":64,"Velocity":52,"Duration":220008,"SoundDuration":220008,"Delta":97795226},{"NoteNumber":54,"Velocity":37,"Duration":220008,"SoundDuration":220008,"Delta":97795226},{"NoteNumber":42,"Velocity":31,"Duration":220008,"SoundDuration":220008,"Delta":97795226},{"NoteNumber":70,"Velocity":56,"Duration":218971,"SoundDuration":218971,"Delta":98026815},{"NoteNumber":58,"Velocity":47,"Duration":218971,"SoundDuration":218971,"Delta":98026815},{"NoteNumber":64,"Velocity":47,"Duration":218971,"SoundDuration":218971,"Delta":98026815},{"NoteNumber":42,"Velocity":29,"Duration":218971,"SoundDuration":218971,"Delta":98026815},{"NoteNumber":54,"Velocity":35,"Duration":218971,"SoundDuration":218971,"Delta":98026815},{"NoteNumber":70,"Velocity":57,"Duration":217542,"SoundDuration":217542,"Delta":98257292},{"NoteNumber":58,"Velocity":47,"Duration":217542,"SoundDuration":217542,"Delta":98257292},{"NoteNumber":64,"Velocity":47,"Duration":217542,"SoundDuration":217542,"Delta":98257292},{"NoteNumber":42,"Velocity":29,"Duration":217542,"SoundDuration":217542,"Delta":98257292},{"NoteNumber":54,"Velocity":35,"Duration":217542,"SoundDuration":217542,"Delta":98257292},{"NoteNumber":58,"Velocity":55,"Duration":215786,"SoundDuration":215786,"Delta":98486264},{"NoteNumber":64,"Velocity":55,"Duration":215786,"SoundDuration":215786,"Delta":98486264},{"NoteNumber":70,"Velocity":65,"Duration":215786,"SoundDuration":215786,"Delta":98486264},{"NoteNumber":49,"Velocity":32,"Duration":215786,"SoundDuration":215786,"Delta":98486264},{"NoteNumber":54,"Velocity":38,"Duration":215786,"SoundDuration":215786,"Delta":98486264},{"NoteNumber":42,"Velocity":32,"Duration":215786,"SoundDuration":215786,"Delta":98486264},{"NoteNumber":58,"Velocity":51,"Duration":214398,"SoundDuration":214398,"Delta":98713408},{"NoteNumber":64,"Velocity":51,"Duration":214398,"SoundDuration":214398,"Delta":98713408},{"NoteNumber":70,"Velocity":61,"Duration":214398,"SoundDuration":214398,"Delta":98713408},{"NoteNumber":42,"Velocity":28,"Duration":214398,"SoundDuration":214398,"Delta":98713408},{"NoteNumber":54,"Velocity":35,"Duration":214398,"SoundDuration":214398,"Delta":98713408},{"NoteNumber":49,"Velocity":32,"Duration":214398,"SoundDuration":214398,"Delta":98713408},{"NoteNumber":58,"Velocity":52,"Duration":212724,"SoundDuration":212724,"Delta":98939090},{"NoteNumber":64,"Velocity":52,"Duration":212724,"SoundDuration":212724,"Delta":98939090},{"NoteNumber":70,"Velocity":62,"Duration":212724,"SoundDuration":212724,"Delta":98939090},{"NoteNumber":42,"Velocity":29,"Duration":212724,"SoundDuration":212724,"Delta":98939090},{"NoteNumber":49,"Velocity":33,"Duration":212724,"SoundDuration":212724,"Delta":98939090},{"NoteNumber":54,"Velocity":35,"Duration":212724,"SoundDuration":212724,"Delta":98939090},{"NoteNumber":58,"Velocity":57,"Duration":211675,"SoundDuration":211675,"Delta":99162956},{"NoteNumber":70,"Velocity":67,"Duration":211675,"SoundDuration":211675,"Delta":99162956},{"NoteNumber":64,"Velocity":57,"Duration":211675,"SoundDuration":211675,"Delta":99162956},{"NoteNumber":42,"Velocity":33,"Duration":211675,"SoundDuration":211675,"Delta":99162956},{"NoteNumber":49,"Velocity":33,"Duration":211675,"SoundDuration":211675,"Delta":99162956},{"NoteNumber":54,"Velocity":40,"Duration":211675,"SoundDuration":211675,"Delta":99162956},{"NoteNumber":64,"Velocity":53,"Duration":211675,"SoundDuration":211675,"Delta":99385772},{"NoteNumber":58,"Velocity":53,"Duration":211675,"SoundDuration":211675,"Delta":99385772},{"NoteNumber":70,"Velocity":64,"Duration":211675,"SoundDuration":211675,"Delta":99385772},{"NoteNumber":42,"Velocity":30,"Duration":211675,"SoundDuration":211675,"Delta":99385772},{"NoteNumber":54,"Velocity":36,"Duration":211675,"SoundDuration":211675,"Delta":99385772},{"NoteNumber":49,"Velocity":34,"Duration":211675,"SoundDuration":211675,"Delta":99385772},{"NoteNumber":64,"Velocity":55,"Duration":213004,"SoundDuration":213004,"Delta":99608589},{"NoteNumber":58,"Velocity":55,"Duration":213004,"SoundDuration":213004,"Delta":99608589},{"NoteNumber":70,"Velocity":65,"Duration":213004,"SoundDuration":213004,"Delta":99608589},{"NoteNumber":49,"Velocity":35,"Duration":213004,"SoundDuration":213004,"Delta":99608589},{"NoteNumber":54,"Velocity":37,"Duration":213004,"SoundDuration":213004,"Delta":99608589},{"NoteNumber":42,"Velocity":30,"Duration":213004,"SoundDuration":213004,"Delta":99608589},{"NoteNumber":64,"Velocity":59,"Duration":213004,"SoundDuration":213004,"Delta":99832804},{"NoteNumber":58,"Velocity":59,"Duration":213004,"SoundDuration":213004,"Delta":99832804},{"NoteNumber":70,"Velocity":71,"Duration":213004,"SoundDuration":213004,"Delta":99832804},{"NoteNumber":42,"Velocity":36,"Duration":213004,"SoundDuration":213004,"Delta":99832804},{"NoteNumber":49,"Velocity":36,"Duration":213004,"SoundDuration":213004,"Delta":99832804},{"NoteNumber":54,"Velocity":44,"Duration":213004,"SoundDuration":213004,"Delta":99832804},{"NoteNumber":64,"Velocity":56,"Duration":214398,"SoundDuration":214398,"Delta":100057019},{"NoteNumber":58,"Velocity":56,"Duration":214398,"SoundDuration":214398,"Delta":100057019},{"NoteNumber":70,"Velocity":67,"Duration":214398,"SoundDuration":214398,"Delta":100057019},{"NoteNumber":42,"Velocity":33,"Duration":214398,"SoundDuration":214398,"Delta":100057019},{"NoteNumber":54,"Velocity":40,"Duration":214398,"SoundDuration":214398,"Delta":100057019},{"NoteNumber":49,"Velocity":37,"Duration":214398,"SoundDuration":214398,"Delta":100057019},{"NoteNumber":64,"Velocity":57,"Duration":214690,"SoundDuration":214690,"Delta":100282702},{"NoteNumber":70,"Velocity":69,"Duration":214690,"SoundDuration":214690,"Delta":100282702},{"NoteNumber":58,"Velocity":57,"Duration":214690,"SoundDuration":214690,"Delta":100282702},{"NoteNumber":49,"Velocity":39,"Duration":214690,"SoundDuration":214690,"Delta":100282702},{"NoteNumber":54,"Velocity":42,"Duration":214690,"SoundDuration":214690,"Delta":100282702},{"NoteNumber":42,"Velocity":34,"Duration":214690,"SoundDuration":214690,"Delta":100282702},{"NoteNumber":70,"Velocity":74,"Duration":216440,"SoundDuration":216440,"Delta":100508750},{"NoteNumber":58,"Velocity":62,"Duration":216440,"SoundDuration":216440,"Delta":100508750},{"NoteNumber":64,"Velocity":62,"Duration":216440,"SoundDuration":216440,"Delta":100508750},{"NoteNumber":42,"Velocity":40,"Duration":216440,"SoundDuration":216440,"Delta":100508750},{"NoteNumber":49,"Velocity":40,"Duration":216440,"SoundDuration":216440,"Delta":100508750},{"NoteNumber":54,"Velocity":48,"Duration":216440,"SoundDuration":216440,"Delta":100508750},{"NoteNumber":70,"Velocity":71,"Duration":219962,"SoundDuration":219962,"Delta":100736621},{"NoteNumber":58,"Velocity":59,"Duration":219962,"SoundDuration":219962,"Delta":100736621},{"NoteNumber":64,"Velocity":59,"Duration":219962,"SoundDuration":219962,"Delta":100736621},{"NoteNumber":42,"Velocity":37,"Duration":219962,"SoundDuration":219962,"Delta":100736621},{"NoteNumber":54,"Velocity":44,"Duration":219962,"SoundDuration":219962,"Delta":100736621},{"NoteNumber":49,"Velocity":41,"Duration":219962,"SoundDuration":219962,"Delta":100736621},{"NoteNumber":70,"Velocity":72,"Duration":223983,"SoundDuration":223983,"Delta":100968241},{"NoteNumber":58,"Velocity":60,"Duration":223983,"SoundDuration":223983,"Delta":100968241},{"NoteNumber":64,"Velocity":60,"Duration":223983,"SoundDuration":223983,"Delta":100968241},{"NoteNumber":49,"Velocity":43,"Duration":223983,"SoundDuration":223983,"Delta":100968241},{"NoteNumber":54,"Velocity":46,"Duration":223983,"SoundDuration":223983,"Delta":100968241},{"NoteNumber":42,"Velocity":37,"Duration":223983,"SoundDuration":223983,"Delta":100968241},{"NoteNumber":70,"Velocity":85,"Duration":232245,"SoundDuration":232245,"Delta":101204119},{"NoteNumber":65,"Velocity":72,"Duration":232245,"SoundDuration":232245,"Delta":101204119},{"NoteNumber":58,"Velocity":72,"Duration":232245,"SoundDuration":232245,"Delta":101204119},{"NoteNumber":41,"Velocity":48,"Duration":232245,"SoundDuration":232245,"Delta":101204119},{"NoteNumber":50,"Velocity":48,"Duration":232245,"SoundDuration":232245,"Delta":101204119},{"NoteNumber":53,"Velocity":57,"Duration":232245,"SoundDuration":232245,"Delta":101204119},{"NoteNumber":65,"Velocity":67,"Duration":232245,"SoundDuration":232245,"Delta":101448588},{"NoteNumber":58,"Velocity":67,"Duration":232245,"SoundDuration":232245,"Delta":101448588},{"NoteNumber":70,"Velocity":80,"Duration":232245,"SoundDuration":232245,"Delta":101448588},{"NoteNumber":41,"Velocity":42,"Duration":232245,"SoundDuration":232245,"Delta":101448588},{"NoteNumber":50,"Velocity":48,"Duration":232245,"SoundDuration":232245,"Delta":101448588},{"NoteNumber":53,"Velocity":52,"Duration":232245,"SoundDuration":232245,"Delta":101448588},{"NoteNumber":65,"Velocity":67,"Duration":232245,"SoundDuration":232245,"Delta":101693057},{"NoteNumber":58,"Velocity":67,"Duration":232245,"SoundDuration":232245,"Delta":101693057},{"NoteNumber":70,"Velocity":80,"Duration":232245,"SoundDuration":232245,"Delta":101693057},{"NoteNumber":53,"Velocity":52,"Duration":232245,"SoundDuration":232245,"Delta":101693057},{"NoteNumber":50,"Velocity":48,"Duration":232245,"SoundDuration":232245,"Delta":101693057},{"NoteNumber":41,"Velocity":42,"Duration":232245,"SoundDuration":232245,"Delta":101693057},{"NoteNumber":58,"Velocity":63,"Duration":738305,"SoundDuration":738305,"Delta":101937526},{"NoteNumber":65,"Velocity":77,"Duration":738305,"SoundDuration":738305,"Delta":101937526},{"NoteNumber":70,"Velocity":90,"Duration":738305,"SoundDuration":738305,"Delta":101937526},{"NoteNumber":50,"Velocity":63,"Duration":243161,"SoundDuration":243161,"Delta":101937526},{"NoteNumber":41,"Velocity":63,"Duration":738305,"SoundDuration":738305,"Delta":101937526},{"NoteNumber":53,"Velocity":58,"Duration":244925,"SoundDuration":244925,"Delta":102180687},{"NoteNumber":53,"Velocity":58,"Duration":125109,"SoundDuration":125109,"Delta":102425612},{"NoteNumber":57,"Velocity":60,"Duration":739218,"SoundDuration":739218,"Delta":102675831},{"NoteNumber":69,"Velocity":85,"Duration":739218,"SoundDuration":739218,"Delta":102675831},{"NoteNumber":65,"Velocity":72,"Duration":739218,"SoundDuration":739218,"Delta":102675831},{"NoteNumber":48,"Velocity":62,"Duration":243161,"SoundDuration":243161,"Delta":102675831},{"NoteNumber":41,"Velocity":62,"Duration":739218,"SoundDuration":739218,"Delta":102675831},{"NoteNumber":53,"Velocity":58,"Duration":247604,"SoundDuration":247604,"Delta":102918992},{"NoteNumber":53,"Velocity":58,"Duration":126024,"SoundDuration":126024,"Delta":103166597},{"NoteNumber":65,"Velocity":72,"Duration":756135,"SoundDuration":756135,"Delta":103415050},{"NoteNumber":58,"Velocity":60,"Duration":756135,"SoundDuration":756135,"Delta":103415050},{"NoteNumber":70,"Velocity":85,"Duration":756135,"SoundDuration":756135,"Delta":103415050},{"NoteNumber":41,"Velocity":60,"Duration":756135,"SoundDuration":756135,"Delta":103415050},{"NoteNumber":50,"Velocity":60,"Duration":250219,"SoundDuration":250219,"Delta":103415050},{"NoteNumber":53,"Velocity":58,"Duration":252045,"SoundDuration":252045,"Delta":103665269},{"NoteNumber":53,"Velocity":58,"Duration":126935,"SoundDuration":126935,"Delta":103917314},{"NoteNumber":65,"Velocity":72,"Duration":762024,"SoundDuration":762024,"Delta":104171186},{"NoteNumber":60,"Velocity":60,"Duration":762024,"SoundDuration":762024,"Delta":104171186},{"NoteNumber":72,"Velocity":85,"Duration":762024,"SoundDuration":762024,"Delta":104171186},{"NoteNumber":41,"Velocity":61,"Duration":762024,"SoundDuration":762024,"Delta":104171186},{"NoteNumber":51,"Velocity":61,"Duration":244857,"SoundDuration":244857,"Delta":104171186},{"NoteNumber":53,"Velocity":58,"Duration":254008,"SoundDuration":254008,"Delta":104416044},{"NoteNumber":53,"Velocity":58,"Duration":131579,"SoundDuration":131579,"Delta":104670052},{"NoteNumber":65,"Velocity":78,"Duration":2150668,"SoundDuration":2150668,"Delta":104933210},{"NoteNumber":62,"Velocity":64,"Duration":2150668,"SoundDuration":2150668,"Delta":104933210},{"NoteNumber":74,"Velocity":92,"Duration":2150668,"SoundDuration":2150668,"Delta":104933210},{"NoteNumber":41,"Velocity":60,"Duration":2150668,"SoundDuration":2150668,"Delta":104933210},{"NoteNumber":52,"Velocity":60,"Duration":243161,"SoundDuration":243161,"Delta":104933210},{"NoteNumber":53,"Velocity":58,"Duration":240642,"SoundDuration":240642,"Delta":105176371},{"NoteNumber":53,"Velocity":58,"Duration":119061,"SoundDuration":119061,"Delta":105417013},{"NoteNumber":53,"Velocity":60,"Duration":238123,"SoundDuration":238123,"Delta":105655137},{"NoteNumber":53,"Velocity":58,"Duration":238123,"SoundDuration":238123,"Delta":105893260},{"NoteNumber":53,"Velocity":58,"Duration":119061,"SoundDuration":119061,"Delta":106131384},{"NoteNumber":53,"Velocity":62,"Duration":226217,"SoundDuration":226217,"Delta":106369508},{"NoteNumber":53,"Velocity":58,"Duration":226217,"SoundDuration":226217,"Delta":106607631},{"NoteNumber":53,"Velocity":58,"Duration":226217,"SoundDuration":226217,"Delta":106845755},{"NoteNumber":65,"Velocity":74,"Duration":372670,"SoundDuration":372670,"Delta":107083879},{"NoteNumber":60,"Velocity":62,"Duration":372670,"SoundDuration":372670,"Delta":107083879},{"NoteNumber":72,"Velocity":89,"Duration":372670,"SoundDuration":372670,"Delta":107083879},{"NoteNumber":51,"Velocity":61,"Duration":248447,"SoundDuration":248447,"Delta":107083879},{"NoteNumber":41,"Velocity":55,"Duration":767408,"SoundDuration":767408,"Delta":107083879},{"NoteNumber":53,"Velocity":53,"Duration":255802,"SoundDuration":255802,"Delta":107332326},{"NoteNumber":65,"Velocity":69,"Duration":394737,"SoundDuration":394737,"Delta":107456550},{"NoteNumber":70,"Velocity":82,"Duration":394737,"SoundDuration":394737,"Delta":107456550},{"NoteNumber":58,"Velocity":58,"Duration":394737,"SoundDuration":394737,"Delta":107456550},{"NoteNumber":50,"Velocity":53,"Duration":263158,"SoundDuration":263158,"Delta":107588129},{"NoteNumber":72,"Velocity":88,"Duration":727038,"SoundDuration":727038,"Delta":107851287},{"NoteNumber":60,"Velocity":61,"Duration":727038,"SoundDuration":727038,"Delta":107851287},{"NoteNumber":65,"Velocity":73,"Duration":727038,"SoundDuration":727038,"Delta":107851287},{"NoteNumber":51,"Velocity":60,"Duration":243161,"SoundDuration":243161,"Delta":107851287},{"NoteNumber":41,"Velocity":60,"Duration":734746,"SoundDuration":734746,"Delta":107851287},{"NoteNumber":53,"Velocity":55,"Duration":232581,"SoundDuration":232581,"Delta":108094448},{"NoteNumber":53,"Velocity":55,"Duration":234336,"SoundDuration":234336,"Delta":108339363},{"NoteNumber":72,"Velocity":84,"Duration":727038,"SoundDuration":727038,"Delta":108586033},{"NoteNumber":60,"Velocity":59,"Duration":727038,"SoundDuration":727038,"Delta":108586033},{"NoteNumber":65,"Velocity":71,"Duration":727038,"SoundDuration":727038,"Delta":108586033},{"NoteNumber":41,"Velocity":60,"Duration":734746,"SoundDuration":734746,"Delta":108586033},{"NoteNumber":51,"Velocity":60,"Duration":243161,"SoundDuration":243161,"Delta":108586033},{"NoteNumber":53,"Velocity":56,"Duration":232581,"SoundDuration":232581,"Delta":108829194},{"NoteNumber":53,"Velocity":56,"Duration":234336,"SoundDuration":234336,"Delta":109074110},{"NoteNumber":72,"Velocity":83,"Duration":735814,"SoundDuration":735814,"Delta":109320780},{"NoteNumber":60,"Velocity":59,"Duration":735814,"SoundDuration":735814,"Delta":109320780},{"NoteNumber":65,"Velocity":70,"Duration":735814,"SoundDuration":735814,"Delta":109320780},{"NoteNumber":41,"Velocity":62,"Duration":743690,"SoundDuration":743690,"Delta":109320780},{"NoteNumber":51,"Velocity":62,"Duration":244038,"SoundDuration":244038,"Delta":109320780},{"NoteNumber":53,"Velocity":58,"Duration":235002,"SoundDuration":235002,"Delta":109564818},{"NoteNumber":53,"Velocity":58,"Duration":239445,"SoundDuration":239445,"Delta":109812422},{"NoteNumber":70,"Velocity":88,"Duration":364741,"SoundDuration":364741,"Delta":110064470},{"NoteNumber":58,"Velocity":61,"Duration":364741,"SoundDuration":364741,"Delta":110064470},{"NoteNumber":65,"Velocity":73,"Duration":364741,"SoundDuration":364741,"Delta":110064470},{"NoteNumber":41,"Velocity":62,"Duration":764246,"SoundDuration":764246,"Delta":110064470},{"NoteNumber":50,"Velocity":62,"Duration":243161,"SoundDuration":243161,"Delta":110064470},{"NoteNumber":53,"Velocity":59,"Duration":256715,"SoundDuration":256715,"Delta":110307631},{"NoteNumber":57,"Velocity":58,"Duration":399505,"SoundDuration":399505,"Delta":110429212},{"NoteNumber":65,"Velocity":69,"Duration":399505,"SoundDuration":399505,"Delta":110429212},{"NoteNumber":69,"Velocity":82,"Duration":399505,"SoundDuration":399505,"Delta":110429212},{"NoteNumber":48,"Velocity":59,"Duration":264370,"SoundDuration":264370,"Delta":110564347},{"NoteNumber":65,"Velocity":82,"Duration":740010,"SoundDuration":740010,"Delta":110828717},{"NoteNumber":58,"Velocity":75,"Duration":2259265,"SoundDuration":2259265,"Delta":110828717},{"NoteNumber":70,"Velocity":90,"Duration":2259265,"SoundDuration":2259265,"Delta":110828717},{"NoteNumber":50,"Velocity":62,"Duration":246669,"SoundDuration":246669,"Delta":110828717},{"NoteNumber":46,"Velocity":62,"Duration":2259265,"SoundDuration":2259265,"Delta":110828717},{"NoteNumber":53,"Velocity":56,"Duration":234336,"SoundDuration":234336,"Delta":111075387},{"NoteNumber":53,"Velocity":56,"Duration":234336,"SoundDuration":234336,"Delta":111322057},{"NoteNumber":63,"Velocity":73,"Duration":762996,"SoundDuration":762996,"Delta":111568727},{"NoteNumber":67,"Velocity":88,"Duration":762996,"SoundDuration":762996,"Delta":111568727},{"NoteNumber":51,"Velocity":60,"Duration":253292,"SoundDuration":253292,"Delta":111568727},{"NoteNumber":55,"Velocity":56,"Duration":241126,"SoundDuration":241126,"Delta":111822020},{"NoteNumber":55,"Velocity":56,"Duration":242997,"SoundDuration":242997,"Delta":112075936},{"NoteNumber":65,"Velocity":83,"Duration":756259,"SoundDuration":756259,"Delta":112331724},{"NoteNumber":62,"Velocity":70,"Duration":756259,"SoundDuration":756259,"Delta":112331724},{"NoteNumber":50,"Velocity":60,"Duration":248385,"SoundDuration":248385,"Delta":112331724},{"NoteNumber":53,"Velocity":56,"Duration":239296,"SoundDuration":239296,"Delta":112580109},{"NoteNumber":53,"Velocity":57,"Duration":242997,"SoundDuration":242997,"Delta":112832195},{"NoteNumber":74,"Velocity":89,"Duration":845865,"SoundDuration":845865,"Delta":113087983},{"NoteNumber":65,"Velocity":75,"Duration":845865,"SoundDuration":845865,"Delta":113087983},{"NoteNumber":62,"Velocity":64,"Duration":845865,"SoundDuration":845865,"Delta":113087983},{"NoteNumber":44,"Velocity":59,"Duration":845865,"SoundDuration":845865,"Delta":113087983},{"NoteNumber":50,"Velocity":59,"Duration":263158,"SoundDuration":263158,"Delta":113087983},{"NoteNumber":53,"Velocity":54,"Duration":266917,"SoundDuration":266917,"Delta":113351141},{"NoteNumber":53,"Velocity":54,"Duration":285714,"SoundDuration":285714,"Delta":113633096},{"NoteNumber":67,"Velocity":75,"Duration":2161842,"SoundDuration":2161842,"Delta":113933848},{"NoteNumber":74,"Velocity":89,"Duration":2161842,"SoundDuration":2161842,"Delta":113933848},{"NoteNumber":62,"Velocity":64,"Duration":2161842,"SoundDuration":2161842,"Delta":113933848},{"NoteNumber":43,"Velocity":59,"Duration":2161842,"SoundDuration":2161842,"Delta":113933848},{"NoteNumber":53,"Velocity":59,"Duration":243161,"SoundDuration":243161,"Delta":113933848},{"NoteNumber":55,"Velocity":53,"Duration":230223,"SoundDuration":230223,"Delta":114177009},{"NoteNumber":55,"Velocity":53,"Duration":229357,"SoundDuration":229357,"Delta":114419304},{"NoteNumber":53,"Velocity":56,"Duration":238123,"SoundDuration":238123,"Delta":114660733},{"NoteNumber":55,"Velocity":53,"Duration":228311,"SoundDuration":228311,"Delta":114898857},{"NoteNumber":55,"Velocity":53,"Duration":230638,"SoundDuration":230638,"Delta":115139307},{"NoteNumber":53,"Velocity":57,"Duration":237868,"SoundDuration":237868,"Delta":115382085},{"NoteNumber":55,"Velocity":51,"Duration":225975,"SoundDuration":225975,"Delta":115619953},{"NoteNumber":55,"Velocity":51,"Duration":225975,"SoundDuration":225975,"Delta":115857822},{"NoteNumber":72,"Velocity":84,"Duration":356802,"SoundDuration":356802,"Delta":116095691},{"NoteNumber":60,"Velocity":59,"Duration":356802,"SoundDuration":356802,"Delta":116095691},{"NoteNumber":67,"Velocity":71,"Duration":356802,"SoundDuration":356802,"Delta":116095691},{"NoteNumber":51,"Velocity":56,"Duration":237868,"SoundDuration":237868,"Delta":116095691},{"NoteNumber":43,"Velocity":56,"Duration":723506,"SoundDuration":723506,"Delta":116095691},{"NoteNumber":55,"Velocity":51,"Duration":241168,"SoundDuration":241168,"Delta":116333559},{"NoteNumber":71,"Velocity":79,"Duration":366703,"SoundDuration":366703,"Delta":116452494},{"NoteNumber":59,"Velocity":56,"Duration":366703,"SoundDuration":366703,"Delta":116452494},{"NoteNumber":67,"Velocity":67,"Duration":366703,"SoundDuration":366703,"Delta":116452494},{"NoteNumber":50,"Velocity":51,"Duration":244468,"SoundDuration":244468,"Delta":116574728},{"NoteNumber":75,"Velocity":94,"Duration":709604,"SoundDuration":709604,"Delta":116819197},{"NoteNumber":63,"Velocity":67,"Duration":709604,"SoundDuration":709604,"Delta":116819197},{"NoteNumber":67,"Velocity":79,"Duration":709604,"SoundDuration":709604,"Delta":116819197},{"NoteNumber":43,"Velocity":54,"Duration":709604,"SoundDuration":709604,"Delta":116819197},{"NoteNumber":48,"Velocity":54,"Duration":233290,"SoundDuration":233290,"Delta":116819197},{"NoteNumber":55,"Velocity":50,"Duration":224546,"SoundDuration":224546,"Delta":117052488},{"NoteNumber":55,"Velocity":50,"Duration":227790,"SoundDuration":227790,"Delta":117289023},{"NoteNumber":74,"Velocity":91,"Duration":739474,"SoundDuration":739474,"Delta":117528802},{"NoteNumber":62,"Velocity":65,"Duration":739474,"SoundDuration":739474,"Delta":117528802},{"NoteNumber":67,"Velocity":76,"Duration":739474,"SoundDuration":739474,"Delta":117528802},{"NoteNumber":43,"Velocity":54,"Duration":739474,"SoundDuration":739474,"Delta":117528802},{"NoteNumber":53,"Velocity":54,"Duration":238123,"SoundDuration":238123,"Delta":117528802},{"NoteNumber":55,"Velocity":50,"Duration":232774,"SoundDuration":232774,"Delta":117766926},{"NoteNumber":55,"Velocity":50,"Duration":242997,"SoundDuration":242997,"Delta":118012489},{"NoteNumber":60,"Velocity":63,"Duration":748422,"SoundDuration":748422,"Delta":118268276},{"NoteNumber":67,"Velocity":74,"Duration":748422,"SoundDuration":748422,"Delta":118268276},{"NoteNumber":72,"Velocity":88,"Duration":748422,"SoundDuration":748422,"Delta":118268276},{"NoteNumber":43,"Velocity":55,"Duration":748422,"SoundDuration":748422,"Delta":118268276},{"NoteNumber":51,"Velocity":55,"Duration":243161,"SoundDuration":243161,"Delta":118268276},{"NoteNumber":55,"Velocity":50,"Duration":236684,"SoundDuration":236684,"Delta":118511437},{"NoteNumber":55,"Velocity":50,"Duration":242997,"SoundDuration":242997,"Delta":118760912},{"NoteNumber":60,"Velocity":60,"Duration":803403,"SoundDuration":803403,"Delta":119016699},{"NoteNumber":69,"Velocity":72,"Duration":803403,"SoundDuration":803403,"Delta":119016699},{"NoteNumber":72,"Velocity":86,"Duration":803403,"SoundDuration":803403,"Delta":119016699},{"NoteNumber":42,"Velocity":57,"Duration":803403,"SoundDuration":803403,"Delta":119016699},{"NoteNumber":51,"Velocity":57,"Duration":259740,"SoundDuration":259740,"Delta":119016699},{"NoteNumber":54,"Velocity":52,"Duration":254008,"SoundDuration":254008,"Delta":119276439},{"NoteNumber":54,"Velocity":52,"Duration":262068,"SoundDuration":262068,"Delta":119544240},{"NoteNumber":65,"Velocity":76,"Duration":2155627,"SoundDuration":2155627,"Delta":119820102},{"NoteNumber":72,"Velocity":89,"Duration":2155627,"SoundDuration":2155627,"Delta":119820102},{"NoteNumber":60,"Velocity":65,"Duration":2155627,"SoundDuration":2155627,"Delta":119820102},{"NoteNumber":69,"Velocity":78,"Duration":2155627,"SoundDuration":2155627,"Delta":119820102},{"NoteNumber":51,"Velocity":58,"Duration":243161,"SoundDuration":243161,"Delta":119820102},{"NoteNumber":41,"Velocity":58,"Duration":2155627,"SoundDuration":2155627,"Delta":119820102},{"NoteNumber":53,"Velocity":52,"Duration":230223,"SoundDuration":230223,"Delta":120063263},{"NoteNumber":53,"Velocity":52,"Duration":229357,"SoundDuration":229357,"Delta":120305559},{"NoteNumber":51,"Velocity":56,"Duration":238123,"SoundDuration":238123,"Delta":120546988},{"NoteNumber":53,"Velocity":52,"Duration":226217,"SoundDuration":226217,"Delta":120785112},{"NoteNumber":53,"Velocity":53,"Duration":226217,"SoundDuration":226217,"Delta":121023235},{"NoteNumber":51,"Velocity":57,"Duration":238123,"SoundDuration":238123,"Delta":121261359},{"NoteNumber":53,"Velocity":52,"Duration":226217,"SoundDuration":226217,"Delta":121499483},{"NoteNumber":53,"Velocity":52,"Duration":226217,"SoundDuration":226217,"Delta":121737606},{"NoteNumber":70,"Velocity":88,"Duration":357185,"SoundDuration":357185,"Delta":121975730},{"NoteNumber":58,"Velocity":63,"Duration":357185,"SoundDuration":357185,"Delta":121975730},{"NoteNumber":65,"Velocity":74,"Duration":357185,"SoundDuration":357185,"Delta":121975730},{"NoteNumber":50,"Velocity":57,"Duration":238123,"SoundDuration":238123,"Delta":121975730},{"NoteNumber":41,"Velocity":57,"Duration":727190,"SoundDuration":727190,"Delta":121975730},{"NoteNumber":53,"Velocity":54,"Duration":242396,"SoundDuration":242396,"Delta":122213854},{"NoteNumber":57,"Velocity":57,"Duration":370005,"SoundDuration":370005,"Delta":122332915},{"NoteNumber":65,"Velocity":68,"Duration":370005,"SoundDuration":370005,"Delta":122332915},{"NoteNumber":69,"Velocity":80,"Duration":370005,"SoundDuration":370005,"Delta":122332915},{"NoteNumber":48,"Velocity":51,"Duration":246670,"SoundDuration":246670,"Delta":122456250},{"NoteNumber":62,"Velocity":65,"Duration":724740,"SoundDuration":724740,"Delta":122702920},{"NoteNumber":65,"Velocity":77,"Duration":724740,"SoundDuration":724740,"Delta":122702920},{"NoteNumber":74,"Velocity":92,"Duration":724740,"SoundDuration":724740,"Delta":122702920},{"NoteNumber":46,"Velocity":58,"Duration":236490,"SoundDuration":236490,"Delta":122702920},{"NoteNumber":41,"Velocity":58,"Duration":724740,"SoundDuration":724740,"Delta":122702920},{"NoteNumber":53,"Velocity":53,"Duration":229246,"SoundDuration":229246,"Delta":122939411},{"NoteNumber":53,"Velocity":53,"Duration":234336,"SoundDuration":234336,"Delta":123180991},{"NoteNumber":57,"Velocity":61,"Duration":739474,"SoundDuration":739474,"Delta":123427661},{"NoteNumber":65,"Velocity":73,"Duration":739474,"SoundDuration":739474,"Delta":123427661},{"NoteNumber":69,"Velocity":87,"Duration":739474,"SoundDuration":739474,"Delta":123427661},{"NoteNumber":48,"Velocity":58,"Duration":238123,"SoundDuration":238123,"Delta":123427661},{"NoteNumber":41,"Velocity":58,"Duration":739474,"SoundDuration":739474,"Delta":123427661},{"NoteNumber":53,"Velocity":52,"Duration":232774,"SoundDuration":232774,"Delta":123665785},{"NoteNumber":53,"Velocity":52,"Duration":242997,"SoundDuration":242997,"Delta":123911348},{"NoteNumber":58,"Velocity":65,"Duration":748422,"SoundDuration":748422,"Delta":124167135},{"NoteNumber":70,"Velocity":92,"Duration":748422,"SoundDuration":748422,"Delta":124167135},{"NoteNumber":65,"Velocity":77,"Duration":748422,"SoundDuration":748422,"Delta":124167135},{"NoteNumber":41,"Velocity":56,"Duration":748422,"SoundDuration":748422,"Delta":124167135},{"NoteNumber":50,"Velocity":56,"Duration":243161,"SoundDuration":243161,"Delta":124167135},{"NoteNumber":53,"Velocity":52,"Duration":236684,"SoundDuration":236684,"Delta":124410296},{"NoteNumber":53,"Velocity":52,"Duration":242997,"SoundDuration":242997,"Delta":124659771},{"NoteNumber":60,"Velocity":59,"Duration":775991,"SoundDuration":775991,"Delta":124915558},{"NoteNumber":72,"Velocity":82,"Duration":775991,"SoundDuration":775991,"Delta":124915558},{"NoteNumber":69,"Velocity":70,"Duration":775991,"SoundDuration":775991,"Delta":124915558},{"NoteNumber":65,"Velocity":70,"Duration":775991,"SoundDuration":775991,"Delta":124915558},{"NoteNumber":41,"Velocity":56,"Duration":775991,"SoundDuration":775991,"Delta":124915558},{"NoteNumber":51,"Velocity":56,"Duration":255787,"SoundDuration":255787,"Delta":124915558},{"NoteNumber":53,"Velocity":52,"Duration":245586,"SoundDuration":245586,"Delta":125171345},{"NoteNumber":53,"Velocity":52,"Duration":248463,"SoundDuration":248463,"Delta":125430009},{"NoteNumber":65,"Velocity":75,"Duration":4441901,"SoundDuration":4441901,"Delta":125691549},{"NoteNumber":72,"Velocity":89,"Duration":2950605,"SoundDuration":2950605,"Delta":125691549},{"NoteNumber":60,"Velocity":64,"Duration":2950605,"SoundDuration":2950605,"Delta":125691549},{"NoteNumber":69,"Velocity":75,"Duration":2950605,"SoundDuration":2950605,"Delta":125691549},{"NoteNumber":41,"Velocity":51,"Duration":1483791,"SoundDuration":1483791,"Delta":125691549},{"NoteNumber":51,"Velocity":51,"Duration":1483791,"SoundDuration":1483791,"Delta":125691549},{"NoteNumber":53,"Velocity":50,"Duration":237904,"SoundDuration":237904,"Delta":125947337},{"NoteNumber":53,"Velocity":50,"Duration":232245,"SoundDuration":232245,"Delta":126197465},{"NoteNumber":53,"Velocity":50,"Duration":232245,"SoundDuration":232245,"Delta":126441934},{"NoteNumber":53,"Velocity":50,"Duration":232245,"SoundDuration":232245,"Delta":126686403},{"NoteNumber":53,"Velocity":49,"Duration":232245,"SoundDuration":232245,"Delta":126930872},{"NoteNumber":53,"Velocity":49,"Duration":232245,"SoundDuration":232245,"Delta":127175341},{"NoteNumber":53,"Velocity":49,"Duration":232245,"SoundDuration":232245,"Delta":127419810},{"NoteNumber":53,"Velocity":49,"Duration":232245,"SoundDuration":232245,"Delta":127664279},{"NoteNumber":53,"Velocity":48,"Duration":232245,"SoundDuration":232245,"Delta":127908748},{"NoteNumber":53,"Velocity":48,"Duration":232245,"SoundDuration":232245,"Delta":128153217},{"NoteNumber":53,"Velocity":48,"Duration":232245,"SoundDuration":232245,"Delta":128397686},{"NoteNumber":71,"Velocity":73,"Duration":2224703,"SoundDuration":2224703,"Delta":128642155},{"NoteNumber":59,"Velocity":61,"Duration":2224703,"SoundDuration":2224703,"Delta":128642155},{"NoteNumber":68,"Velocity":61,"Duration":2224703,"SoundDuration":2224703,"Delta":128642155},{"NoteNumber":50,"Velocity":48,"Duration":2995712,"SoundDuration":2995712,"Delta":128642155},{"NoteNumber":41,"Velocity":45,"Duration":2995712,"SoundDuration":2995712,"Delta":128642155},{"NoteNumber":53,"Velocity":42,"Duration":240406,"SoundDuration":240406,"Delta":128902945},{"NoteNumber":53,"Velocity":39,"Duration":232245,"SoundDuration":232245,"Delta":129155575},{"NoteNumber":53,"Velocity":38,"Duration":232245,"SoundDuration":232245,"Delta":129400044},{"NoteNumber":53,"Velocity":38,"Duration":232245,"SoundDuration":232245,"Delta":129644513},{"NoteNumber":53,"Velocity":37,"Duration":232245,"SoundDuration":232245,"Delta":129888982},{"NoteNumber":53,"Velocity":37,"Duration":232245,"SoundDuration":232245,"Delta":130133451},{"NoteNumber":53,"Velocity":36,"Duration":232245,"SoundDuration":232245,"Delta":130377920},{"NoteNumber":53,"Velocity":35,"Duration":232245,"SoundDuration":232245,"Delta":130622389},{"NoteNumber":68,"Velocity":55,"Duration":771009,"SoundDuration":771009,"Delta":130866858},{"NoteNumber":71,"Velocity":66,"Duration":771009,"SoundDuration":771009,"Delta":130866858},{"NoteNumber":62,"Velocity":55,"Duration":771009,"SoundDuration":771009,"Delta":130866858},{"NoteNumber":65,"Velocity":55,"Duration":771009,"SoundDuration":771009,"Delta":130866858},{"NoteNumber":53,"Velocity":36,"Duration":244153,"SoundDuration":244153,"Delta":130866858},{"NoteNumber":53,"Velocity":40,"Duration":244153,"SoundDuration":244153,"Delta":131123861},{"NoteNumber":53,"Velocity":44,"Duration":244153,"SoundDuration":244153,"Delta":131380865},{"NoteNumber":68,"Velocity":55,"Duration":2244291,"SoundDuration":2244291,"Delta":131637868},{"NoteNumber":62,"Velocity":55,"Duration":2244291,"SoundDuration":2244291,"Delta":131637868},{"NoteNumber":65,"Velocity":55,"Duration":2244291,"SoundDuration":2244291,"Delta":131637868},{"NoteNumber":71,"Velocity":66,"Duration":2244291,"SoundDuration":2244291,"Delta":131637868},{"NoteNumber":53,"Velocity":50,"Duration":257003,"SoundDuration":257003,"Delta":131637868},{"NoteNumber":44,"Velocity":42,"Duration":240081,"SoundDuration":240081,"Delta":131894871},{"NoteNumber":44,"Velocity":42,"Duration":235556,"SoundDuration":235556,"Delta":132147350},{"NoteNumber":44,"Velocity":42,"Duration":235556,"SoundDuration":235556,"Delta":132395304},{"NoteNumber":44,"Velocity":42,"Duration":235556,"SoundDuration":235556,"Delta":132643259},{"NoteNumber":44,"Velocity":42,"Duration":235556,"SoundDuration":235556,"Delta":132891213},{"NoteNumber":44,"Velocity":42,"Duration":235556,"SoundDuration":235556,"Delta":133139167},{"NoteNumber":44,"Velocity":42,"Duration":235556,"SoundDuration":235556,"Delta":133387122},{"NoteNumber":44,"Velocity":42,"Duration":234859,"SoundDuration":234859,"Delta":133635076},{"NoteNumber":68,"Velocity":66,"Duration":757638,"SoundDuration":757638,"Delta":133882159},{"NoteNumber":74,"Velocity":78,"Duration":757638,"SoundDuration":757638,"Delta":133882159},{"NoteNumber":71,"Velocity":66,"Duration":757638,"SoundDuration":757638,"Delta":133882159},{"NoteNumber":65,"Velocity":66,"Duration":757638,"SoundDuration":757638,"Delta":133882159},{"NoteNumber":44,"Velocity":42,"Duration":232314,"SoundDuration":232314,"Delta":133882159},{"NoteNumber":44,"Velocity":42,"Duration":239639,"SoundDuration":239639,"Delta":134126819},{"NoteNumber":44,"Velocity":42,"Duration":247442,"SoundDuration":247442,"Delta":134379197},{"NoteNumber":65,"Velocity":72,"Duration":1918988,"SoundDuration":1918988,"Delta":134639798},{"NoteNumber":74,"Velocity":86,"Duration":1539241,"SoundDuration":1539241,"Delta":134639798},{"NoteNumber":68,"Velocity":72,"Duration":1918988,"SoundDuration":1918988,"Delta":134639798},{"NoteNumber":71,"Velocity":72,"Duration":1918988,"SoundDuration":1918988,"Delta":134639798},{"NoteNumber":44,"Velocity":46,"Duration":266666,"SoundDuration":266666,"Delta":134639798},{"NoteNumber":37,"Velocity":46,"Duration":247257,"SoundDuration":247257,"Delta":134906464},{"NoteNumber":37,"Velocity":46,"Duration":240506,"SoundDuration":240506,"Delta":135166380},{"NoteNumber":37,"Velocity":53,"Duration":240506,"SoundDuration":240506,"Delta":135419545},{"NoteNumber":37,"Velocity":53,"Duration":240506,"SoundDuration":240506,"Delta":135672709},{"NoteNumber":37,"Velocity":53,"Duration":240506,"SoundDuration":240506,"Delta":135925874},{"NoteNumber":73,"Velocity":86,"Duration":379747,"SoundDuration":379747,"Delta":136179039},{"NoteNumber":37,"Velocity":53,"Duration":240506,"SoundDuration":240506,"Delta":136179039},{"NoteNumber":37,"Velocity":52,"Duration":240506,"SoundDuration":240506,"Delta":136432203},{"NoteNumber":37,"Velocity":52,"Duration":240506,"SoundDuration":240506,"Delta":136685368},{"NoteNumber":73,"Velocity":80,"Duration":427601,"SoundDuration":427601,"Delta":136938533},{"NoteNumber":68,"Velocity":80,"Duration":427601,"SoundDuration":427601,"Delta":136938533},{"NoteNumber":71,"Velocity":80,"Duration":427601,"SoundDuration":427601,"Delta":136938533},{"NoteNumber":77,"Velocity":96,"Duration":427601,"SoundDuration":427601,"Delta":136938533},{"NoteNumber":37,"Velocity":65,"Duration":211766,"SoundDuration":211766,"Delta":136938533},{"NoteNumber":35,"Velocity":59,"Duration":215834,"SoundDuration":215834,"Delta":137150300},{"NoteNumber":33,"Velocity":61,"Duration":218985,"SoundDuration":218985,"Delta":137366134},{"NoteNumber":32,"Velocity":59,"Duration":223888,"SoundDuration":223888,"Delta":137585120},{"NoteNumber":73,"Velocity":77,"Duration":285714,"SoundDuration":285714,"Delta":137809009},{"NoteNumber":69,"Velocity":77,"Duration":285714,"SoundDuration":285714,"Delta":137809009},{"NoteNumber":78,"Velocity":92,"Duration":285714,"SoundDuration":285714,"Delta":137809009},{"NoteNumber":30,"Velocity":65,"Duration":214285,"SoundDuration":214285,"Delta":137809009},{"NoteNumber":73,"Velocity":34,"Duration":253286,"SoundDuration":253286,"Delta":138094723},{"NoteNumber":69,"Velocity":28,"Duration":253286,"SoundDuration":253286,"Delta":138094723},{"NoteNumber":73,"Velocity":36,"Duration":233128,"SoundDuration":233128,"Delta":138360280},{"NoteNumber":69,"Velocity":30,"Duration":233128,"SoundDuration":233128,"Delta":138360280},{"NoteNumber":73,"Velocity":38,"Duration":233128,"SoundDuration":233128,"Delta":138605679},{"NoteNumber":69,"Velocity":32,"Duration":233128,"SoundDuration":233128,"Delta":138605679},{"NoteNumber":69,"Velocity":29,"Duration":233128,"SoundDuration":233128,"Delta":138851077},{"NoteNumber":73,"Velocity":35,"Duration":233128,"SoundDuration":233128,"Delta":138851077},{"NoteNumber":69,"Velocity":29,"Duration":233128,"SoundDuration":233128,"Delta":139096476},{"NoteNumber":73,"Velocity":35,"Duration":233128,"SoundDuration":233128,"Delta":139096476},{"NoteNumber":73,"Velocity":38,"Duration":233128,"SoundDuration":233128,"Delta":139341875},{"NoteNumber":69,"Velocity":32,"Duration":233128,"SoundDuration":233128,"Delta":139341875},{"NoteNumber":69,"Velocity":29,"Duration":233128,"SoundDuration":233128,"Delta":139587273},{"NoteNumber":73,"Velocity":35,"Duration":233128,"SoundDuration":233128,"Delta":139587273},{"NoteNumber":69,"Velocity":29,"Duration":233128,"SoundDuration":233128,"Delta":139832672},{"NoteNumber":73,"Velocity":35,"Duration":233128,"SoundDuration":233128,"Delta":139832672},{"NoteNumber":78,"Velocity":54,"Duration":736196,"SoundDuration":736196,"Delta":140078071},{"NoteNumber":61,"Velocity":42,"Duration":736196,"SoundDuration":736196,"Delta":140078071},{"NoteNumber":54,"Velocity":42,"Duration":736196,"SoundDuration":736196,"Delta":140078071},{"NoteNumber":73,"Velocity":32,"Duration":233128,"SoundDuration":233128,"Delta":140323469},{"NoteNumber":69,"Velocity":27,"Duration":233128,"SoundDuration":233128,"Delta":140323469},{"NoteNumber":69,"Velocity":27,"Duration":233128,"SoundDuration":233128,"Delta":140568868},{"NoteNumber":73,"Velocity":32,"Duration":233128,"SoundDuration":233128,"Delta":140568868},{"NoteNumber":78,"Velocity":53,"Duration":723327,"SoundDuration":723327,"Delta":140814267},{"NoteNumber":54,"Velocity":42,"Duration":1822357,"SoundDuration":1822357,"Delta":140814267},{"NoteNumber":61,"Velocity":42,"Duration":1084990,"SoundDuration":1084990,"Delta":140814267},{"NoteNumber":69,"Velocity":27,"Duration":229053,"SoundDuration":229053,"Delta":141055376},{"NoteNumber":73,"Velocity":32,"Duration":229053,"SoundDuration":229053,"Delta":141055376},{"NoteNumber":69,"Velocity":27,"Duration":229053,"SoundDuration":229053,"Delta":141296485},{"NoteNumber":73,"Velocity":32,"Duration":229053,"SoundDuration":229053,"Delta":141296485},{"NoteNumber":81,"Velocity":53,"Duration":729708,"SoundDuration":729708,"Delta":141537594},{"NoteNumber":69,"Velocity":26,"Duration":230074,"SoundDuration":230074,"Delta":141778703},{"NoteNumber":73,"Velocity":31,"Duration":230074,"SoundDuration":230074,"Delta":141778703},{"NoteNumber":59,"Velocity":38,"Duration":368045,"SoundDuration":368045,"Delta":141899257},{"NoteNumber":69,"Velocity":26,"Duration":233903,"SoundDuration":233903,"Delta":142021088},{"NoteNumber":73,"Velocity":31,"Duration":233903,"SoundDuration":233903,"Delta":142021088},{"NoteNumber":78,"Velocity":53,"Duration":738642,"SoundDuration":738642,"Delta":142267302},{"NoteNumber":57,"Velocity":41,"Duration":369321,"SoundDuration":369321,"Delta":142267302},{"NoteNumber":69,"Velocity":27,"Duration":233903,"SoundDuration":233903,"Delta":142513517},{"NoteNumber":73,"Velocity":32,"Duration":233903,"SoundDuration":233903,"Delta":142513517},{"NoteNumber":73,"Velocity":32,"Duration":233903,"SoundDuration":233903,"Delta":142759731},{"NoteNumber":69,"Velocity":27,"Duration":233903,"SoundDuration":233903,"Delta":142759731},{"NoteNumber":81,"Velocity":53,"Duration":728331,"SoundDuration":728331,"Delta":143005945},{"NoteNumber":57,"Velocity":38,"Duration":728331,"SoundDuration":728331,"Delta":143005945},{"NoteNumber":54,"Velocity":38,"Duration":728331,"SoundDuration":728331,"Delta":143005945},{"NoteNumber":73,"Velocity":31,"Duration":230638,"SoundDuration":230638,"Delta":143248723},{"NoteNumber":69,"Velocity":26,"Duration":230638,"SoundDuration":230638,"Delta":143248723},{"NoteNumber":69,"Velocity":26,"Duration":230638,"SoundDuration":230638,"Delta":143491500},{"NoteNumber":73,"Velocity":31,"Duration":230638,"SoundDuration":230638,"Delta":143491500},{"NoteNumber":81,"Velocity":56,"Duration":728331,"SoundDuration":728331,"Delta":143734277},{"NoteNumber":57,"Velocity":41,"Duration":1092498,"SoundDuration":1092498,"Delta":143734277},{"NoteNumber":54,"Velocity":41,"Duration":1461819,"SoundDuration":1461819,"Delta":143734277},{"NoteNumber":78,"Velocity":32,"Duration":230638,"SoundDuration":230638,"Delta":143977055},{"NoteNumber":73,"Velocity":27,"Duration":230638,"SoundDuration":230638,"Delta":143977055},{"NoteNumber":78,"Velocity":32,"Duration":230638,"SoundDuration":230638,"Delta":144219832},{"NoteNumber":73,"Velocity":27,"Duration":230638,"SoundDuration":230638,"Delta":144219832},{"NoteNumber":85,"Velocity":55,"Duration":733487,"SoundDuration":733487,"Delta":144462609},{"NoteNumber":78,"Velocity":32,"Duration":232185,"SoundDuration":232185,"Delta":144705387},{"NoteNumber":73,"Velocity":27,"Duration":232185,"SoundDuration":232185,"Delta":144705387},{"NoteNumber":56,"Velocity":41,"Duration":369321,"SoundDuration":369321,"Delta":144826775},{"NoteNumber":73,"Velocity":27,"Duration":233903,"SoundDuration":233903,"Delta":144949882},{"NoteNumber":78,"Velocity":32,"Duration":233903,"SoundDuration":233903,"Delta":144949882},{"NoteNumber":81,"Velocity":55,"Duration":738642,"SoundDuration":738642,"Delta":145196097},{"NoteNumber":54,"Velocity":44,"Duration":369321,"SoundDuration":369321,"Delta":145196097},{"NoteNumber":73,"Velocity":27,"Duration":233903,"SoundDuration":233903,"Delta":145442311},{"NoteNumber":78,"Velocity":32,"Duration":233903,"SoundDuration":233903,"Delta":145442311},{"NoteNumber":73,"Velocity":27,"Duration":233903,"SoundDuration":233903,"Delta":145688525},{"NoteNumber":78,"Velocity":32,"Duration":233903,"SoundDuration":233903,"Delta":145688525},{"NoteNumber":85,"Velocity":56,"Duration":738642,"SoundDuration":738642,"Delta":145934740},{"NoteNumber":54,"Velocity":34,"Duration":738642,"SoundDuration":738642,"Delta":145934740},{"NoteNumber":78,"Velocity":32,"Duration":233903,"SoundDuration":233903,"Delta":146180954},{"NoteNumber":73,"Velocity":27,"Duration":233903,"SoundDuration":233903,"Delta":146180954},{"NoteNumber":73,"Velocity":27,"Duration":233903,"SoundDuration":233903,"Delta":146427168},{"NoteNumber":78,"Velocity":32,"Duration":233903,"SoundDuration":233903,"Delta":146427168},{"NoteNumber":73,"Velocity":56,"Duration":707655,"SoundDuration":707655,"Delta":146673383},{"NoteNumber":54,"Velocity":41,"Duration":707655,"SoundDuration":707655,"Delta":146673383},{"NoteNumber":66,"Velocity":27,"Duration":224225,"SoundDuration":224225,"Delta":146911126},{"NoteNumber":69,"Velocity":32,"Duration":224225,"SoundDuration":224225,"Delta":146911126},{"NoteNumber":66,"Velocity":27,"Duration":222294,"SoundDuration":222294,"Delta":147147116},{"NoteNumber":69,"Velocity":32,"Duration":222294,"SoundDuration":222294,"Delta":147147116},{"NoteNumber":77,"Velocity":56,"Duration":706102,"SoundDuration":706102,"Delta":147381038},{"NoteNumber":56,"Velocity":42,"Duration":706102,"SoundDuration":706102,"Delta":147381038},{"NoteNumber":73,"Velocity":33,"Duration":223391,"SoundDuration":223391,"Delta":147612252},{"NoteNumber":71,"Velocity":33,"Duration":223391,"SoundDuration":223391,"Delta":147612252},{"NoteNumber":65,"Velocity":27,"Duration":223391,"SoundDuration":223391,"Delta":147612252},{"NoteNumber":65,"Velocity":27,"Duration":227544,"SoundDuration":227544,"Delta":147847619},{"NoteNumber":73,"Velocity":34,"Duration":227544,"SoundDuration":227544,"Delta":147847619},{"NoteNumber":71,"Velocity":34,"Duration":227544,"SoundDuration":227544,"Delta":147847619},{"NoteNumber":78,"Velocity":58,"Duration":697674,"SoundDuration":697674,"Delta":148087140},{"NoteNumber":57,"Velocity":47,"Duration":697674,"SoundDuration":697674,"Delta":148087140},{"NoteNumber":73,"Velocity":34,"Duration":220930,"SoundDuration":220930,"Delta":148319698},{"NoteNumber":66,"Velocity":28,"Duration":220930,"SoundDuration":220930,"Delta":148319698},{"NoteNumber":69,"Velocity":34,"Duration":220930,"SoundDuration":220930,"Delta":148319698},{"NoteNumber":73,"Velocity":35,"Duration":220930,"SoundDuration":220930,"Delta":148552256},{"NoteNumber":66,"Velocity":29,"Duration":220930,"SoundDuration":220930,"Delta":148552256},{"NoteNumber":69,"Velocity":35,"Duration":220930,"SoundDuration":220930,"Delta":148552256},{"NoteNumber":80,"Velocity":62,"Duration":718562,"SoundDuration":718562,"Delta":148784814},{"NoteNumber":52,"Velocity":31,"Duration":718562,"SoundDuration":718562,"Delta":148784814},{"NoteNumber":59,"Velocity":37,"Duration":718562,"SoundDuration":718562,"Delta":148784814},{"NoteNumber":74,"Velocity":36,"Duration":227544,"SoundDuration":227544,"Delta":149024335},{"NoteNumber":76,"Velocity":36,"Duration":227544,"SoundDuration":227544,"Delta":149024335},{"NoteNumber":68,"Velocity":29,"Duration":227544,"SoundDuration":227544,"Delta":149024335},{"NoteNumber":76,"Velocity":36,"Duration":227544,"SoundDuration":227544,"Delta":149263856},{"NoteNumber":68,"Velocity":29,"Duration":227544,"SoundDuration":227544,"Delta":149263856},{"NoteNumber":74,"Velocity":36,"Duration":227544,"SoundDuration":227544,"Delta":149263856},{"NoteNumber":81,"Velocity":61,"Duration":705882,"SoundDuration":705882,"Delta":149503377},{"NoteNumber":61,"Velocity":47,"Duration":705882,"SoundDuration":705882,"Delta":149503377},{"NoteNumber":57,"Velocity":39,"Duration":705882,"SoundDuration":705882,"Delta":149503377},{"NoteNumber":76,"Velocity":36,"Duration":223529,"SoundDuration":223529,"Delta":149738671},{"NoteNumber":69,"Velocity":30,"Duration":223529,"SoundDuration":223529,"Delta":149738671},{"NoteNumber":73,"Velocity":30,"Duration":223529,"SoundDuration":223529,"Delta":149738671},{"NoteNumber":76,"Velocity":36,"Duration":223529,"SoundDuration":223529,"Delta":149973965},{"NoteNumber":69,"Velocity":29,"Duration":223529,"SoundDuration":223529,"Delta":149973965},{"NoteNumber":73,"Velocity":29,"Duration":223529,"SoundDuration":223529,"Delta":149973965},{"NoteNumber":83,"Velocity":60,"Duration":722262,"SoundDuration":722262,"Delta":150209259},{"NoteNumber":56,"Velocity":38,"Duration":722262,"SoundDuration":722262,"Delta":150209259},{"NoteNumber":61,"Velocity":45,"Duration":722262,"SoundDuration":722262,"Delta":150209259},{"NoteNumber":71,"Velocity":28,"Duration":228443,"SoundDuration":228443,"Delta":150444553},{"NoteNumber":73,"Velocity":35,"Duration":228443,"SoundDuration":228443,"Delta":150444553},{"NoteNumber":77,"Velocity":35,"Duration":228443,"SoundDuration":228443,"Delta":150444553},{"NoteNumber":73,"Velocity":34,"Duration":233903,"SoundDuration":233903,"Delta":150685308},{"NoteNumber":77,"Velocity":34,"Duration":233903,"SoundDuration":233903,"Delta":150685308},{"NoteNumber":71,"Velocity":28,"Duration":233903,"SoundDuration":233903,"Delta":150685308},{"NoteNumber":81,"Velocity":57,"Duration":738642,"SoundDuration":738642,"Delta":150931522},{"NoteNumber":61,"Velocity":46,"Duration":738642,"SoundDuration":738642,"Delta":150931522},{"NoteNumber":54,"Velocity":38,"Duration":738642,"SoundDuration":738642,"Delta":150931522},{"NoteNumber":69,"Velocity":27,"Duration":233903,"SoundDuration":233903,"Delta":151177736},{"NoteNumber":78,"Velocity":33,"Duration":233903,"SoundDuration":233903,"Delta":151177736},{"NoteNumber":73,"Velocity":33,"Duration":233903,"SoundDuration":233903,"Delta":151177736},{"NoteNumber":69,"Velocity":27,"Duration":233903,"SoundDuration":233903,"Delta":151423951},{"NoteNumber":78,"Velocity":32,"Duration":233903,"SoundDuration":233903,"Delta":151423951},{"NoteNumber":73,"Velocity":32,"Duration":233903,"SoundDuration":233903,"Delta":151423951},{"NoteNumber":80,"Velocity":56,"Duration":738642,"SoundDuration":738642,"Delta":151670165},{"NoteNumber":62,"Velocity":39,"Duration":738642,"SoundDuration":738642,"Delta":151670165},{"NoteNumber":52,"Velocity":33,"Duration":738642,"SoundDuration":738642,"Delta":151670165},{"NoteNumber":68,"Velocity":27,"Duration":233903,"SoundDuration":233903,"Delta":151916379},{"NoteNumber":76,"Velocity":32,"Duration":233903,"SoundDuration":233903,"Delta":151916379},{"NoteNumber":71,"Velocity":32,"Duration":233903,"SoundDuration":233903,"Delta":151916379},{"NoteNumber":68,"Velocity":27,"Duration":233903,"SoundDuration":233903,"Delta":152162594},{"NoteNumber":76,"Velocity":32,"Duration":233903,"SoundDuration":233903,"Delta":152162594},{"NoteNumber":71,"Velocity":32,"Duration":233903,"SoundDuration":233903,"Delta":152162594},{"NoteNumber":80,"Velocity":54,"Duration":1477285,"SoundDuration":1477285,"Delta":152408808},{"NoteNumber":62,"Velocity":39,"Duration":1477285,"SoundDuration":1477285,"Delta":152408808},{"NoteNumber":52,"Velocity":33,"Duration":1477285,"SoundDuration":1477285,"Delta":152408808},{"NoteNumber":68,"Velocity":26,"Duration":233903,"SoundDuration":233903,"Delta":152655022},{"NoteNumber":71,"Velocity":26,"Duration":233903,"SoundDuration":233903,"Delta":152655022},{"NoteNumber":76,"Velocity":31,"Duration":233903,"SoundDuration":233903,"Delta":152655022},{"NoteNumber":68,"Velocity":26,"Duration":233903,"SoundDuration":233903,"Delta":152901237},{"NoteNumber":76,"Velocity":31,"Duration":233903,"SoundDuration":233903,"Delta":152901237},{"NoteNumber":71,"Velocity":26,"Duration":233903,"SoundDuration":233903,"Delta":152901237},{"NoteNumber":71,"Velocity":26,"Duration":233903,"SoundDuration":233903,"Delta":153147451},{"NoteNumber":68,"Velocity":26,"Duration":233903,"SoundDuration":233903,"Delta":153147451},{"NoteNumber":76,"Velocity":31,"Duration":233903,"SoundDuration":233903,"Delta":153147451},{"NoteNumber":71,"Velocity":26,"Duration":233903,"SoundDuration":233903,"Delta":153393665},{"NoteNumber":68,"Velocity":26,"Duration":233903,"SoundDuration":233903,"Delta":153393665},{"NoteNumber":76,"Velocity":31,"Duration":233903,"SoundDuration":233903,"Delta":153393665},{"NoteNumber":71,"Velocity":27,"Duration":233903,"SoundDuration":233903,"Delta":153639880},{"NoteNumber":68,"Velocity":27,"Duration":233903,"SoundDuration":233903,"Delta":153639880},{"NoteNumber":76,"Velocity":32,"Duration":233903,"SoundDuration":233903,"Delta":153639880},{"NoteNumber":80,"Velocity":55,"Duration":738642,"SoundDuration":738642,"Delta":153886094},{"NoteNumber":53,"Velocity":30,"Duration":738642,"SoundDuration":738642,"Delta":153886094},{"NoteNumber":61,"Velocity":37,"Duration":738642,"SoundDuration":738642,"Delta":153886094},{"NoteNumber":68,"Velocity":25,"Duration":233903,"SoundDuration":233903,"Delta":154132308},{"NoteNumber":73,"Velocity":29,"Duration":233903,"SoundDuration":233903,"Delta":154132308},{"NoteNumber":71,"Velocity":25,"Duration":233903,"SoundDuration":233903,"Delta":154132308},{"NoteNumber":71,"Velocity":25,"Duration":233903,"SoundDuration":233903,"Delta":154378523},{"NoteNumber":73,"Velocity":30,"Duration":233903,"SoundDuration":233903,"Delta":154378523},{"NoteNumber":68,"Velocity":25,"Duration":233903,"SoundDuration":233903,"Delta":154378523},{"NoteNumber":81,"Velocity":54,"Duration":738642,"SoundDuration":738642,"Delta":154624737},{"NoteNumber":54,"Velocity":30,"Duration":738642,"SoundDuration":738642,"Delta":154624737},{"NoteNumber":61,"Velocity":36,"Duration":738642,"SoundDuration":738642,"Delta":154624737},{"NoteNumber":73,"Velocity":29,"Duration":233903,"SoundDuration":233903,"Delta":154870951},{"NoteNumber":69,"Velocity":25,"Duration":233903,"SoundDuration":233903,"Delta":154870951},{"NoteNumber":69,"Velocity":25,"Duration":246214,"SoundDuration":246214,"Delta":155117166},{"NoteNumber":73,"Velocity":29,"Duration":246214,"SoundDuration":246214,"Delta":155117166},{"NoteNumber":78,"Velocity":53,"Duration":723327,"SoundDuration":723327,"Delta":155363380},{"NoteNumber":54,"Velocity":32,"Duration":1822357,"SoundDuration":1822357,"Delta":155363380},{"NoteNumber":61,"Velocity":42,"Duration":1084990,"SoundDuration":1084990,"Delta":155363380},{"NoteNumber":69,"Velocity":27,"Duration":229053,"SoundDuration":229053,"Delta":155604489},{"NoteNumber":73,"Velocity":32,"Duration":229053,"SoundDuration":229053,"Delta":155604489},{"NoteNumber":69,"Velocity":27,"Duration":229053,"SoundDuration":229053,"Delta":155845598},{"NoteNumber":73,"Velocity":32,"Duration":229053,"SoundDuration":229053,"Delta":155845598},{"NoteNumber":81,"Velocity":53,"Duration":729708,"SoundDuration":729708,"Delta":156086707},{"NoteNumber":73,"Velocity":31,"Duration":230074,"SoundDuration":230074,"Delta":156327816},{"NoteNumber":69,"Velocity":26,"Duration":230074,"SoundDuration":230074,"Delta":156327816},{"NoteNumber":59,"Velocity":38,"Duration":368045,"SoundDuration":368045,"Delta":156448370},{"NoteNumber":69,"Velocity":26,"Duration":233903,"SoundDuration":233903,"Delta":156570201},{"NoteNumber":73,"Velocity":31,"Duration":233903,"SoundDuration":233903,"Delta":156570201},{"NoteNumber":78,"Velocity":53,"Duration":738642,"SoundDuration":738642,"Delta":156816416},{"NoteNumber":57,"Velocity":41,"Duration":369321,"SoundDuration":369321,"Delta":156816416},{"NoteNumber":69,"Velocity":27,"Duration":233903,"SoundDuration":233903,"Delta":157062630},{"NoteNumber":73,"Velocity":32,"Duration":233903,"SoundDuration":233903,"Delta":157062630},{"NoteNumber":69,"Velocity":27,"Duration":233903,"SoundDuration":233903,"Delta":157308844},{"NoteNumber":73,"Velocity":32,"Duration":233903,"SoundDuration":233903,"Delta":157308844},{"NoteNumber":81,"Velocity":53,"Duration":728331,"SoundDuration":728331,"Delta":157555059},{"NoteNumber":57,"Velocity":38,"Duration":728331,"SoundDuration":728331,"Delta":157555059},{"NoteNumber":54,"Velocity":32,"Duration":728331,"SoundDuration":728331,"Delta":157555059},{"NoteNumber":69,"Velocity":26,"Duration":230638,"SoundDuration":230638,"Delta":157797836},{"NoteNumber":73,"Velocity":31,"Duration":230638,"SoundDuration":230638,"Delta":157797836},{"NoteNumber":73,"Velocity":31,"Duration":230638,"SoundDuration":230638,"Delta":158040613},{"NoteNumber":69,"Velocity":26,"Duration":230638,"SoundDuration":230638,"Delta":158040613},{"NoteNumber":81,"Velocity":56,"Duration":728331,"SoundDuration":728331,"Delta":158283391},{"NoteNumber":57,"Velocity":41,"Duration":1092498,"SoundDuration":1092498,"Delta":158283391},{"NoteNumber":54,"Velocity":34,"Duration":1461819,"SoundDuration":1461819,"Delta":158283391},{"NoteNumber":73,"Velocity":27,"Duration":230638,"SoundDuration":230638,"Delta":158526168},{"NoteNumber":78,"Velocity":32,"Duration":230638,"SoundDuration":230638,"Delta":158526168},{"NoteNumber":73,"Velocity":27,"Duration":230638,"SoundDuration":230638,"Delta":158768945},{"NoteNumber":78,"Velocity":32,"Duration":230638,"SoundDuration":230638,"Delta":158768945},{"NoteNumber":85,"Velocity":55,"Duration":733487,"SoundDuration":733487,"Delta":159011723},{"NoteNumber":73,"Velocity":27,"Duration":232185,"SoundDuration":232185,"Delta":159254500},{"NoteNumber":78,"Velocity":32,"Duration":232185,"SoundDuration":232185,"Delta":159254500},{"NoteNumber":56,"Velocity":41,"Duration":369321,"SoundDuration":369321,"Delta":159375889},{"NoteNumber":78,"Velocity":32,"Duration":233903,"SoundDuration":233903,"Delta":159498996},{"NoteNumber":73,"Velocity":27,"Duration":233903,"SoundDuration":233903,"Delta":159498996},{"NoteNumber":81,"Velocity":55,"Duration":738642,"SoundDuration":738642,"Delta":159745210},{"NoteNumber":54,"Velocity":44,"Duration":369321,"SoundDuration":369321,"Delta":159745210},{"NoteNumber":78,"Velocity":32,"Duration":233903,"SoundDuration":233903,"Delta":159991424},{"NoteNumber":73,"Velocity":27,"Duration":233903,"SoundDuration":233903,"Delta":159991424},{"NoteNumber":73,"Velocity":27,"Duration":233903,"SoundDuration":233903,"Delta":160237639},{"NoteNumber":78,"Velocity":32,"Duration":233903,"SoundDuration":233903,"Delta":160237639},{"NoteNumber":85,"Velocity":56,"Duration":738642,"SoundDuration":738642,"Delta":160483853},{"NoteNumber":54,"Velocity":34,"Duration":738642,"SoundDuration":738642,"Delta":160483853},{"NoteNumber":73,"Velocity":27,"Duration":233903,"SoundDuration":233903,"Delta":160730067},{"NoteNumber":78,"Velocity":32,"Duration":233903,"SoundDuration":233903,"Delta":160730067},{"NoteNumber":78,"Velocity":32,"Duration":233903,"SoundDuration":233903,"Delta":160976282},{"NoteNumber":73,"Velocity":27,"Duration":233903,"SoundDuration":233903,"Delta":160976282},{"NoteNumber":73,"Velocity":56,"Duration":705882,"SoundDuration":705882,"Delta":161222496},{"NoteNumber":54,"Velocity":41,"Duration":705882,"SoundDuration":705882,"Delta":161222496},{"NoteNumber":69,"Velocity":32,"Duration":223529,"SoundDuration":223529,"Delta":161457790},{"NoteNumber":66,"Velocity":27,"Duration":223529,"SoundDuration":223529,"Delta":161457790},{"NoteNumber":69,"Velocity":32,"Duration":223529,"SoundDuration":223529,"Delta":161693084},{"NoteNumber":66,"Velocity":27,"Duration":223529,"SoundDuration":223529,"Delta":161693084},{"NoteNumber":77,"Velocity":56,"Duration":703964,"SoundDuration":703964,"Delta":161928378},{"NoteNumber":56,"Velocity":42,"Duration":703964,"SoundDuration":703964,"Delta":161928378},{"NoteNumber":73,"Velocity":33,"Duration":222749,"SoundDuration":222749,"Delta":162159592},{"NoteNumber":65,"Velocity":27,"Duration":222749,"SoundDuration":222749,"Delta":162159592},{"NoteNumber":71,"Velocity":33,"Duration":222749,"SoundDuration":222749,"Delta":162159592},{"NoteNumber":73,"Velocity":34,"Duration":226190,"SoundDuration":226190,"Delta":162394247},{"NoteNumber":65,"Velocity":27,"Duration":226190,"SoundDuration":226190,"Delta":162394247},{"NoteNumber":71,"Velocity":34,"Duration":226190,"SoundDuration":226190,"Delta":162394247},{"NoteNumber":78,"Velocity":58,"Duration":693642,"SoundDuration":693642,"Delta":162632342},{"NoteNumber":57,"Velocity":47,"Duration":693642,"SoundDuration":693642,"Delta":162632342},{"NoteNumber":69,"Velocity":34,"Duration":219653,"SoundDuration":219653,"Delta":162863556},{"NoteNumber":73,"Velocity":34,"Duration":219653,"SoundDuration":219653,"Delta":162863556},{"NoteNumber":66,"Velocity":28,"Duration":219653,"SoundDuration":219653,"Delta":162863556},{"NoteNumber":69,"Velocity":35,"Duration":219653,"SoundDuration":219653,"Delta":163094770},{"NoteNumber":73,"Velocity":35,"Duration":219653,"SoundDuration":219653,"Delta":163094770},{"NoteNumber":66,"Velocity":29,"Duration":219653,"SoundDuration":219653,"Delta":163094770},{"NoteNumber":80,"Velocity":62,"Duration":718562,"SoundDuration":718562,"Delta":163325984},{"NoteNumber":52,"Velocity":31,"Duration":718562,"SoundDuration":718562,"Delta":163325984},{"NoteNumber":59,"Velocity":37,"Duration":718562,"SoundDuration":718562,"Delta":163325984},{"NoteNumber":74,"Velocity":36,"Duration":227544,"SoundDuration":227544,"Delta":163565505},{"NoteNumber":76,"Velocity":36,"Duration":227544,"SoundDuration":227544,"Delta":163565505},{"NoteNumber":68,"Velocity":29,"Duration":227544,"SoundDuration":227544,"Delta":163565505},{"NoteNumber":74,"Velocity":36,"Duration":227544,"SoundDuration":227544,"Delta":163805026},{"NoteNumber":76,"Velocity":36,"Duration":227544,"SoundDuration":227544,"Delta":163805026},{"NoteNumber":68,"Velocity":29,"Duration":227544,"SoundDuration":227544,"Delta":163805026},{"NoteNumber":81,"Velocity":61,"Duration":705882,"SoundDuration":705882,"Delta":164044547},{"NoteNumber":57,"Velocity":39,"Duration":705882,"SoundDuration":705882,"Delta":164044547},{"NoteNumber":61,"Velocity":47,"Duration":705882,"SoundDuration":705882,"Delta":164044547},{"NoteNumber":73,"Velocity":30,"Duration":223529,"SoundDuration":223529,"Delta":164279841},{"NoteNumber":69,"Velocity":30,"Duration":223529,"SoundDuration":223529,"Delta":164279841},{"NoteNumber":76,"Velocity":36,"Duration":223529,"SoundDuration":223529,"Delta":164279841},{"NoteNumber":73,"Velocity":29,"Duration":223529,"SoundDuration":223529,"Delta":164515135},{"NoteNumber":76,"Velocity":36,"Duration":223529,"SoundDuration":223529,"Delta":164515135},{"NoteNumber":69,"Velocity":29,"Duration":223529,"SoundDuration":223529,"Delta":164515135},{"NoteNumber":83,"Velocity":60,"Duration":722262,"SoundDuration":722262,"Delta":164750429},{"NoteNumber":61,"Velocity":45,"Duration":722262,"SoundDuration":722262,"Delta":164750429},{"NoteNumber":56,"Velocity":38,"Duration":722262,"SoundDuration":722262,"Delta":164750429},{"NoteNumber":71,"Velocity":28,"Duration":228443,"SoundDuration":228443,"Delta":164985723},{"NoteNumber":77,"Velocity":35,"Duration":228443,"SoundDuration":228443,"Delta":164985723},{"NoteNumber":73,"Velocity":35,"Duration":228443,"SoundDuration":228443,"Delta":164985723},{"NoteNumber":71,"Velocity":28,"Duration":233903,"SoundDuration":233903,"Delta":165226477},{"NoteNumber":77,"Velocity":34,"Duration":233903,"SoundDuration":233903,"Delta":165226477},{"NoteNumber":73,"Velocity":34,"Duration":233903,"SoundDuration":233903,"Delta":165226477},{"NoteNumber":81,"Velocity":57,"Duration":738642,"SoundDuration":738642,"Delta":165472692},{"NoteNumber":54,"Velocity":38,"Duration":738642,"SoundDuration":738642,"Delta":165472692},{"NoteNumber":61,"Velocity":46,"Duration":738642,"SoundDuration":738642,"Delta":165472692},{"NoteNumber":78,"Velocity":33,"Duration":233903,"SoundDuration":233903,"Delta":165718906},{"NoteNumber":73,"Velocity":33,"Duration":233903,"SoundDuration":233903,"Delta":165718906},{"NoteNumber":69,"Velocity":27,"Duration":233903,"SoundDuration":233903,"Delta":165718906},{"NoteNumber":69,"Velocity":27,"Duration":233903,"SoundDuration":233903,"Delta":165965120},{"NoteNumber":78,"Velocity":32,"Duration":233903,"SoundDuration":233903,"Delta":165965120},{"NoteNumber":73,"Velocity":32,"Duration":233903,"SoundDuration":233903,"Delta":165965120},{"NoteNumber":80,"Velocity":56,"Duration":800000,"SoundDuration":800000,"Delta":166211335},{"NoteNumber":52,"Velocity":33,"Duration":800000,"SoundDuration":800000,"Delta":166211335},{"NoteNumber":62,"Velocity":39,"Duration":800000,"SoundDuration":800000,"Delta":166211335},{"NoteNumber":76,"Velocity":32,"Duration":253333,"SoundDuration":253333,"Delta":166478001},{"NoteNumber":68,"Velocity":27,"Duration":253333,"SoundDuration":253333,"Delta":166478001},{"NoteNumber":71,"Velocity":32,"Duration":253333,"SoundDuration":253333,"Delta":166478001},{"NoteNumber":76,"Velocity":32,"Duration":253333,"SoundDuration":253333,"Delta":166744668},{"NoteNumber":68,"Velocity":27,"Duration":253333,"SoundDuration":253333,"Delta":166744668},{"NoteNumber":71,"Velocity":32,"Duration":253333,"SoundDuration":253333,"Delta":166744668},{"NoteNumber":80,"Velocity":54,"Duration":1472392,"SoundDuration":1472392,"Delta":167011335},{"NoteNumber":52,"Velocity":33,"Duration":1472392,"SoundDuration":1472392,"Delta":167011335},{"NoteNumber":62,"Velocity":39,"Duration":1472392,"SoundDuration":1472392,"Delta":167011335},{"NoteNumber":76,"Velocity":31,"Duration":233128,"SoundDuration":233128,"Delta":167256733},{"NoteNumber":71,"Velocity":26,"Duration":233128,"SoundDuration":233128,"Delta":167256733},{"NoteNumber":68,"Velocity":26,"Duration":233128,"SoundDuration":233128,"Delta":167256733},{"NoteNumber":71,"Velocity":26,"Duration":233128,"SoundDuration":233128,"Delta":167502132},{"NoteNumber":68,"Velocity":26,"Duration":233128,"SoundDuration":233128,"Delta":167502132},{"NoteNumber":76,"Velocity":31,"Duration":233128,"SoundDuration":233128,"Delta":167502132},{"NoteNumber":71,"Velocity":26,"Duration":233128,"SoundDuration":233128,"Delta":167747531},{"NoteNumber":68,"Velocity":26,"Duration":233128,"SoundDuration":233128,"Delta":167747531},{"NoteNumber":76,"Velocity":31,"Duration":233128,"SoundDuration":233128,"Delta":167747531},{"NoteNumber":71,"Velocity":26,"Duration":233128,"SoundDuration":233128,"Delta":167992929},{"NoteNumber":68,"Velocity":26,"Duration":233128,"SoundDuration":233128,"Delta":167992929},{"NoteNumber":76,"Velocity":31,"Duration":233128,"SoundDuration":233128,"Delta":167992929},{"NoteNumber":71,"Velocity":27,"Duration":233128,"SoundDuration":233128,"Delta":168238328},{"NoteNumber":68,"Velocity":27,"Duration":233128,"SoundDuration":233128,"Delta":168238328},{"NoteNumber":76,"Velocity":32,"Duration":233128,"SoundDuration":233128,"Delta":168238328},{"NoteNumber":73,"Velocity":41,"Duration":368097,"SoundDuration":368097,"Delta":168483727},{"NoteNumber":76,"Velocity":41,"Duration":368097,"SoundDuration":368097,"Delta":168483727},{"NoteNumber":69,"Velocity":41,"Duration":368097,"SoundDuration":368097,"Delta":168483727},{"NoteNumber":81,"Velocity":49,"Duration":368097,"SoundDuration":368097,"Delta":168483727},{"NoteNumber":61,"Velocity":37,"Duration":245398,"SoundDuration":245398,"Delta":168483727},{"NoteNumber":57,"Velocity":37,"Duration":245398,"SoundDuration":245398,"Delta":168483727},{"NoteNumber":64,"Velocity":29,"Duration":233128,"SoundDuration":233128,"Delta":168729125},{"NoteNumber":64,"Velocity":29,"Duration":233128,"SoundDuration":233128,"Delta":168974524},{"NoteNumber":76,"Velocity":52,"Duration":725706,"SoundDuration":725706,"Delta":169219923},{"NoteNumber":64,"Velocity":33,"Duration":230470,"SoundDuration":230470,"Delta":169219923},{"NoteNumber":64,"Velocity":29,"Duration":230470,"SoundDuration":230470,"Delta":169462523},{"NoteNumber":64,"Velocity":29,"Duration":228794,"SoundDuration":228794,"Delta":169705124},{"NoteNumber":76,"Velocity":54,"Duration":1002071,"SoundDuration":1002071,"Delta":169945629},{"NoteNumber":58,"Velocity":33,"Duration":168142,"SoundDuration":168142,"Delta":169945629},{"NoteNumber":64,"Velocity":27,"Duration":168142,"SoundDuration":168142,"Delta":170113772},{"NoteNumber":61,"Velocity":27,"Duration":167019,"SoundDuration":167019,"Delta":170281914},{"NoteNumber":64,"Velocity":27,"Duration":167019,"SoundDuration":167019,"Delta":170448934},{"NoteNumber":58,"Velocity":33,"Duration":165874,"SoundDuration":165874,"Delta":170615953},{"NoteNumber":64,"Velocity":28,"Duration":165874,"SoundDuration":165874,"Delta":170781827},{"NoteNumber":74,"Velocity":51,"Duration":331748,"SoundDuration":331748,"Delta":170947701},{"NoteNumber":61,"Velocity":28,"Duration":165874,"SoundDuration":165874,"Delta":170947701},{"NoteNumber":64,"Velocity":29,"Duration":165874,"SoundDuration":165874,"Delta":171113576},{"NoteNumber":73,"Velocity":51,"Duration":331748,"SoundDuration":331748,"Delta":171279450},{"NoteNumber":58,"Velocity":33,"Duration":165874,"SoundDuration":165874,"Delta":171279450},{"NoteNumber":64,"Velocity":29,"Duration":165874,"SoundDuration":165874,"Delta":171445324},{"NoteNumber":61,"Velocity":29,"Duration":165874,"SoundDuration":165874,"Delta":171611198},{"NoteNumber":64,"Velocity":29,"Duration":165874,"SoundDuration":165874,"Delta":171777073},{"NoteNumber":73,"Velocity":52,"Duration":668077,"SoundDuration":668077,"Delta":171942947},{"NoteNumber":57,"Velocity":33,"Duration":167019,"SoundDuration":167019,"Delta":171942947},{"NoteNumber":64,"Velocity":29,"Duration":167019,"SoundDuration":167019,"Delta":172109966},{"NoteNumber":61,"Velocity":29,"Duration":167019,"SoundDuration":167019,"Delta":172276985},{"NoteNumber":64,"Velocity":29,"Duration":167019,"SoundDuration":167019,"Delta":172444005},{"NoteNumber":73,"Velocity":54,"Duration":988359,"SoundDuration":988359,"Delta":172611024},{"NoteNumber":55,"Velocity":33,"Duration":164726,"SoundDuration":164726,"Delta":172611024},{"NoteNumber":64,"Velocity":27,"Duration":164726,"SoundDuration":164726,"Delta":172775750},{"NoteNumber":61,"Velocity":27,"Duration":164726,"SoundDuration":164726,"Delta":172940477},{"NoteNumber":64,"Velocity":27,"Duration":164726,"SoundDuration":164726,"Delta":173105203},{"NoteNumber":55,"Velocity":33,"Duration":164726,"SoundDuration":164726,"Delta":173269930},{"NoteNumber":64,"Velocity":28,"Duration":164726,"SoundDuration":164726,"Delta":173434656},{"NoteNumber":71,"Velocity":51,"Duration":334038,"SoundDuration":334038,"Delta":173599383},{"NoteNumber":61,"Velocity":28,"Duration":167019,"SoundDuration":167019,"Delta":173599383},{"NoteNumber":64,"Velocity":29,"Duration":167019,"SoundDuration":167019,"Delta":173766402},{"NoteNumber":70,"Velocity":51,"Duration":334038,"SoundDuration":334038,"Delta":173933421},{"NoteNumber":55,"Velocity":33,"Duration":167019,"SoundDuration":167019,"Delta":173933421},{"NoteNumber":64,"Velocity":29,"Duration":167019,"SoundDuration":167019,"Delta":174100441},{"NoteNumber":61,"Velocity":29,"Duration":167019,"SoundDuration":167019,"Delta":174267460},{"NoteNumber":64,"Velocity":29,"Duration":167019,"SoundDuration":167019,"Delta":174434479},{"NoteNumber":70,"Velocity":52,"Duration":651114,"SoundDuration":651114,"Delta":174601498},{"NoteNumber":66,"Velocity":52,"Duration":651114,"SoundDuration":651114,"Delta":174601498},{"NoteNumber":54,"Velocity":33,"Duration":163007,"SoundDuration":163007,"Delta":174601498},{"NoteNumber":64,"Velocity":29,"Duration":163008,"SoundDuration":163008,"Delta":174764506},{"NoteNumber":61,"Velocity":29,"Duration":163007,"SoundDuration":163007,"Delta":174927514},{"NoteNumber":64,"Velocity":29,"Duration":162090,"SoundDuration":162090,"Delta":175090522},{"NoteNumber":70,"Velocity":52,"Duration":635701,"SoundDuration":635701,"Delta":175252613},{"NoteNumber":66,"Velocity":44,"Duration":635701,"SoundDuration":635701,"Delta":175252613},{"NoteNumber":54,"Velocity":33,"Duration":160256,"SoundDuration":160256,"Delta":175252613},{"NoteNumber":64,"Velocity":28,"Duration":159354,"SoundDuration":159354,"Delta":175412870},{"NoteNumber":61,"Velocity":28,"Duration":158478,"SoundDuration":158478,"Delta":175572224},{"NoteNumber":64,"Velocity":28,"Duration":157612,"SoundDuration":157612,"Delta":175730702},{"NoteNumber":66,"Velocity":47,"Duration":622972,"SoundDuration":622972,"Delta":175888315},{"NoteNumber":71,"Velocity":55,"Duration":622972,"SoundDuration":622972,"Delta":175888315},{"NoteNumber":54,"Velocity":34,"Duration":157019,"SoundDuration":157019,"Delta":175888315},{"NoteNumber":62,"Velocity":28,"Duration":156158,"SoundDuration":156158,"Delta":176045335},{"NoteNumber":59,"Velocity":28,"Duration":155318,"SoundDuration":155318,"Delta":176201494},{"NoteNumber":62,"Velocity":29,"Duration":154475,"SoundDuration":154475,"Delta":176356812},{"NoteNumber":66,"Velocity":47,"Duration":610743,"SoundDuration":610743,"Delta":176511287},{"NoteNumber":70,"Velocity":47,"Duration":610743,"SoundDuration":610743,"Delta":176511287},{"NoteNumber":73,"Velocity":56,"Duration":610743,"SoundDuration":610743,"Delta":176511287},{"NoteNumber":54,"Velocity":35,"Duration":153915,"SoundDuration":153915,"Delta":176511287},{"NoteNumber":61,"Velocity":29,"Duration":153088,"SoundDuration":153088,"Delta":176665203},{"NoteNumber":58,"Velocity":29,"Duration":152274,"SoundDuration":152274,"Delta":176818291},{"NoteNumber":61,"Velocity":29,"Duration":151465,"SoundDuration":151465,"Delta":176970566},{"NoteNumber":66,"Velocity":48,"Duration":606950,"SoundDuration":606950,"Delta":177122031},{"NoteNumber":71,"Velocity":48,"Duration":606950,"SoundDuration":606950,"Delta":177122031},{"NoteNumber":74,"Velocity":57,"Duration":606950,"SoundDuration":606950,"Delta":177122031},{"NoteNumber":54,"Velocity":36,"Duration":150935,"SoundDuration":150935,"Delta":177122031},{"NoteNumber":62,"Velocity":31,"Duration":151465,"SoundDuration":151465,"Delta":177272967},{"NoteNumber":59,"Velocity":31,"Duration":152002,"SoundDuration":152002,"Delta":177424432},{"NoteNumber":62,"Velocity":31,"Duration":152547,"SoundDuration":152547,"Delta":177576434},{"NoteNumber":66,"Velocity":50,"Duration":613434,"SoundDuration":613434,"Delta":177728982},{"NoteNumber":76,"Velocity":59,"Duration":613434,"SoundDuration":613434,"Delta":177728982},{"NoteNumber":73,"Velocity":50,"Duration":613434,"SoundDuration":613434,"Delta":177728982},{"NoteNumber":54,"Velocity":37,"Duration":153358,"SoundDuration":153358,"Delta":177728982},{"NoteNumber":64,"Velocity":31,"Duration":153358,"SoundDuration":153358,"Delta":177882340},{"NoteNumber":61,"Velocity":32,"Duration":153358,"SoundDuration":153358,"Delta":178035699},{"NoteNumber":64,"Velocity":32,"Duration":153358,"SoundDuration":153358,"Delta":178189057},{"NoteNumber":73,"Velocity":51,"Duration":628785,"SoundDuration":628785,"Delta":178342416},{"NoteNumber":67,"Velocity":51,"Duration":628785,"SoundDuration":628785,"Delta":178342416},{"NoteNumber":76,"Velocity":60,"Duration":628785,"SoundDuration":628785,"Delta":178342416},{"NoteNumber":55,"Velocity":37,"Duration":155038,"SoundDuration":155038,"Delta":178342416},{"NoteNumber":64,"Velocity":31,"Duration":155038,"SoundDuration":155038,"Delta":178497454},{"NoteNumber":61,"Velocity":31,"Duration":159354,"SoundDuration":159354,"Delta":178652493},{"NoteNumber":64,"Velocity":31,"Duration":159353,"SoundDuration":159353,"Delta":178811847},{"NoteNumber":73,"Velocity":52,"Duration":652688,"SoundDuration":652688,"Delta":178971201},{"NoteNumber":68,"Velocity":52,"Duration":652688,"SoundDuration":652688,"Delta":178971201},{"NoteNumber":76,"Velocity":61,"Duration":652688,"SoundDuration":652688,"Delta":178971201},{"NoteNumber":56,"Velocity":38,"Duration":162531,"SoundDuration":162531,"Delta":178971201},{"NoteNumber":64,"Velocity":32,"Duration":162531,"SoundDuration":162531,"Delta":179133732},{"NoteNumber":61,"Velocity":32,"Duration":163630,"SoundDuration":163630,"Delta":179296264},{"NoteNumber":64,"Velocity":33,"Duration":163995,"SoundDuration":163995,"Delta":179459894},{"NoteNumber":73,"Velocity":53,"Duration":668077,"SoundDuration":668077,"Delta":179623890},{"NoteNumber":69,"Velocity":53,"Duration":668077,"SoundDuration":668077,"Delta":179623890},{"NoteNumber":76,"Velocity":63,"Duration":668077,"SoundDuration":668077,"Delta":179623890},{"NoteNumber":57,"Velocity":39,"Duration":167019,"SoundDuration":167019,"Delta":179623890},{"NoteNumber":64,"Velocity":32,"Duration":167019,"SoundDuration":167019,"Delta":179790909},{"NoteNumber":61,"Velocity":34,"Duration":167019,"SoundDuration":167019,"Delta":179957928},{"NoteNumber":64,"Velocity":34,"Duration":167019,"SoundDuration":167019,"Delta":180124948},{"NoteNumber":76,"Velocity":59,"Duration":793929,"SoundDuration":793929,"Delta":180291967},{"NoteNumber":57,"Velocity":33,"Duration":161169,"SoundDuration":161169,"Delta":180291967},{"NoteNumber":64,"Velocity":27,"Duration":161169,"SoundDuration":161169,"Delta":180453136},{"NoteNumber":61,"Velocity":27,"Duration":161169,"SoundDuration":161169,"Delta":180614305},{"NoteNumber":64,"Velocity":27,"Duration":161169,"SoundDuration":161169,"Delta":180775474},{"NoteNumber":58,"Velocity":33,"Duration":149253,"SoundDuration":149253,"Delta":180936643},{"NoteNumber":77,"Velocity":51,"Duration":149253,"SoundDuration":149253,"Delta":181085897},{"NoteNumber":64,"Velocity":28,"Duration":149253,"SoundDuration":149253,"Delta":181085897},{"NoteNumber":76,"Velocity":53,"Duration":147783,"SoundDuration":147783,"Delta":181235150},{"NoteNumber":61,"Velocity":28,"Duration":147783,"SoundDuration":147783,"Delta":181235150},{"NoteNumber":74,"Velocity":51,"Duration":147783,"SoundDuration":147783,"Delta":181382934},{"NoteNumber":64,"Velocity":29,"Duration":147783,"SoundDuration":147783,"Delta":181382934},{"NoteNumber":73,"Velocity":56,"Duration":303030,"SoundDuration":303030,"Delta":181530717},{"NoteNumber":58,"Velocity":33,"Duration":151515,"SoundDuration":151515,"Delta":181530717},{"NoteNumber":64,"Velocity":29,"Duration":151515,"SoundDuration":151515,"Delta":181682232},{"NoteNumber":61,"Velocity":29,"Duration":152284,"SoundDuration":152284,"Delta":181833747},{"NoteNumber":64,"Velocity":29,"Duration":152284,"SoundDuration":152284,"Delta":181986032},{"NoteNumber":73,"Velocity":57,"Duration":657318,"SoundDuration":657318,"Delta":182138316},{"NoteNumber":57,"Velocity":33,"Duration":164329,"SoundDuration":164329,"Delta":182138316},{"NoteNumber":64,"Velocity":29,"Duration":164329,"SoundDuration":164329,"Delta":182302645},{"NoteNumber":61,"Velocity":29,"Duration":164329,"SoundDuration":164329,"Delta":182466975},{"NoteNumber":64,"Velocity":29,"Duration":164329,"SoundDuration":164329,"Delta":182631304},{"NoteNumber":73,"Velocity":59,"Duration":795220,"SoundDuration":795220,"Delta":182795634},{"NoteNumber":55,"Velocity":33,"Duration":160256,"SoundDuration":160256,"Delta":182795634},{"NoteNumber":64,"Velocity":27,"Duration":160256,"SoundDuration":160256,"Delta":182955890},{"NoteNumber":61,"Velocity":27,"Duration":160256,"SoundDuration":160256,"Delta":183116147},{"NoteNumber":64,"Velocity":27,"Duration":160256,"SoundDuration":160256,"Delta":183276403},{"NoteNumber":55,"Velocity":33,"Duration":154193,"SoundDuration":154193,"Delta":183436660},{"NoteNumber":74,"Velocity":53,"Duration":154194,"SoundDuration":154194,"Delta":183590854},{"NoteNumber":64,"Velocity":28,"Duration":154194,"SoundDuration":154194,"Delta":183590854},{"NoteNumber":73,"Velocity":53,"Duration":149253,"SoundDuration":149253,"Delta":183745048},{"NoteNumber":61,"Velocity":28,"Duration":149253,"SoundDuration":149253,"Delta":183745048},{"NoteNumber":71,"Velocity":53,"Duration":149253,"SoundDuration":149253,"Delta":183894302},{"NoteNumber":64,"Velocity":29,"Duration":149253,"SoundDuration":149253,"Delta":183894302},{"NoteNumber":70,"Velocity":56,"Duration":304568,"SoundDuration":304568,"Delta":184043555},{"NoteNumber":55,"Velocity":33,"Duration":152284,"SoundDuration":152284,"Delta":184043555},{"NoteNumber":64,"Velocity":29,"Duration":152284,"SoundDuration":152284,"Delta":184195840},{"NoteNumber":61,"Velocity":29,"Duration":152284,"SoundDuration":152284,"Delta":184348124},{"NoteNumber":64,"Velocity":31,"Duration":152284,"SoundDuration":152284,"Delta":184500408},{"NoteNumber":66,"Velocity":57,"Duration":647405,"SoundDuration":647405,"Delta":184652692},{"NoteNumber":70,"Velocity":57,"Duration":647405,"SoundDuration":647405,"Delta":184652692},{"NoteNumber":54,"Velocity":36,"Duration":162249,"SoundDuration":162249,"Delta":184652692},{"NoteNumber":64,"Velocity":31,"Duration":162249,"SoundDuration":162249,"Delta":184814942},{"NoteNumber":61,"Velocity":31,"Duration":162249,"SoundDuration":162249,"Delta":184977192},{"NoteNumber":64,"Velocity":31,"Duration":160656,"SoundDuration":160656,"Delta":185139442},{"NoteNumber":70,"Velocity":57,"Duration":465531,"SoundDuration":465531,"Delta":185300098},{"NoteNumber":66,"Velocity":48,"Duration":465531,"SoundDuration":465531,"Delta":185300098},{"NoteNumber":54,"Velocity":36,"Duration":155876,"SoundDuration":155876,"Delta":185300098},{"NoteNumber":64,"Velocity":30,"Duration":155108,"SoundDuration":155108,"Delta":185455975},{"NoteNumber":61,"Velocity":30,"Duration":154545,"SoundDuration":154545,"Delta":185611083},{"NoteNumber":70,"Velocity":57,"Duration":153985,"SoundDuration":153985,"Delta":185765629},{"NoteNumber":66,"Velocity":48,"Duration":153985,"SoundDuration":153985,"Delta":185765629},{"NoteNumber":64,"Velocity":30,"Duration":153985,"SoundDuration":153985,"Delta":185765629},{"NoteNumber":71,"Velocity":60,"Duration":458044,"SoundDuration":458044,"Delta":185919614},{"NoteNumber":66,"Velocity":51,"Duration":458044,"SoundDuration":458044,"Delta":185919614},{"NoteNumber":54,"Velocity":37,"Duration":153358,"SoundDuration":153358,"Delta":185919614},{"NoteNumber":62,"Velocity":30,"Duration":152615,"SoundDuration":152615,"Delta":186072973},{"NoteNumber":59,"Velocity":30,"Duration":152070,"SoundDuration":152070,"Delta":186225588},{"NoteNumber":66,"Velocity":51,"Duration":151531,"SoundDuration":151531,"Delta":186377658},{"NoteNumber":71,"Velocity":60,"Duration":151531,"SoundDuration":151531,"Delta":186377658},{"NoteNumber":62,"Velocity":31,"Duration":151531,"SoundDuration":151531,"Delta":186377658},{"NoteNumber":66,"Velocity":51,"Duration":450810,"SoundDuration":450810,"Delta":186529190},{"NoteNumber":70,"Velocity":51,"Duration":450810,"SoundDuration":450810,"Delta":186529190},{"NoteNumber":73,"Velocity":61,"Duration":450810,"SoundDuration":450810,"Delta":186529190},{"NoteNumber":54,"Velocity":38,"Duration":150935,"SoundDuration":150935,"Delta":186529190},{"NoteNumber":61,"Velocity":31,"Duration":150201,"SoundDuration":150201,"Delta":186680125},{"NoteNumber":58,"Velocity":31,"Duration":149673,"SoundDuration":149673,"Delta":186830327},{"NoteNumber":66,"Velocity":51,"Duration":149150,"SoundDuration":149150,"Delta":186980000},{"NoteNumber":70,"Velocity":51,"Duration":149150,"SoundDuration":149150,"Delta":186980000},{"NoteNumber":73,"Velocity":61,"Duration":149150,"SoundDuration":149150,"Delta":186980000},{"NoteNumber":61,"Velocity":31,"Duration":149150,"SoundDuration":149150,"Delta":186980000},{"NoteNumber":66,"Velocity":52,"Duration":443805,"SoundDuration":443805,"Delta":187129151},{"NoteNumber":74,"Velocity":62,"Duration":443805,"SoundDuration":443805,"Delta":187129151},{"NoteNumber":71,"Velocity":52,"Duration":443805,"SoundDuration":443805,"Delta":187129151},{"NoteNumber":54,"Velocity":39,"Duration":148573,"SoundDuration":148573,"Delta":187129151},{"NoteNumber":62,"Velocity":34,"Duration":147875,"SoundDuration":147875,"Delta":187277724},{"NoteNumber":59,"Velocity":34,"Duration":147356,"SoundDuration":147356,"Delta":187425600},{"NoteNumber":71,"Velocity":52,"Duration":147029,"SoundDuration":147029,"Delta":187572956},{"NoteNumber":66,"Velocity":52,"Duration":147029,"SoundDuration":147029,"Delta":187572956},{"NoteNumber":74,"Velocity":62,"Duration":147029,"SoundDuration":147029,"Delta":187572956},{"NoteNumber":62,"Velocity":34,"Duration":147029,"SoundDuration":147029,"Delta":187572956},{"NoteNumber":73,"Velocity":55,"Duration":444761,"SoundDuration":444761,"Delta":187719986},{"NoteNumber":66,"Velocity":55,"Duration":444761,"SoundDuration":444761,"Delta":187719986},{"NoteNumber":76,"Velocity":64,"Duration":444761,"SoundDuration":444761,"Delta":187719986},{"NoteNumber":54,"Velocity":40,"Duration":147225,"SoundDuration":147225,"Delta":187719986},{"NoteNumber":64,"Velocity":34,"Duration":148256,"SoundDuration":148256,"Delta":187867212},{"NoteNumber":61,"Velocity":35,"Duration":149278,"SoundDuration":149278,"Delta":188015469},{"NoteNumber":73,"Velocity":55,"Duration":150269,"SoundDuration":150269,"Delta":188164748},{"NoteNumber":66,"Velocity":55,"Duration":150269,"SoundDuration":150269,"Delta":188164748},{"NoteNumber":76,"Velocity":64,"Duration":150269,"SoundDuration":150269,"Delta":188164748},{"NoteNumber":64,"Velocity":35,"Duration":150269,"SoundDuration":150269,"Delta":188164748},{"NoteNumber":73,"Velocity":56,"Duration":457105,"SoundDuration":457105,"Delta":188315017},{"NoteNumber":67,"Velocity":56,"Duration":457105,"SoundDuration":457105,"Delta":188315017},{"NoteNumber":76,"Velocity":66,"Duration":457105,"SoundDuration":457105,"Delta":188315017},{"NoteNumber":55,"Velocity":40,"Duration":151398,"SoundDuration":151398,"Delta":188315017},{"NoteNumber":64,"Velocity":34,"Duration":152206,"SoundDuration":152206,"Delta":188466416},{"NoteNumber":61,"Velocity":34,"Duration":153499,"SoundDuration":153499,"Delta":188618622},{"NoteNumber":73,"Velocity":56,"Duration":154686,"SoundDuration":154686,"Delta":188772122},{"NoteNumber":76,"Velocity":66,"Duration":154686,"SoundDuration":154686,"Delta":188772122},{"NoteNumber":67,"Velocity":56,"Duration":154686,"SoundDuration":154686,"Delta":188772122},{"NoteNumber":64,"Velocity":34,"Duration":154686,"SoundDuration":154686,"Delta":188772122},{"NoteNumber":76,"Velocity":67,"Duration":478061,"SoundDuration":478061,"Delta":188926809},{"NoteNumber":68,"Velocity":57,"Duration":478061,"SoundDuration":478061,"Delta":188926809},{"NoteNumber":73,"Velocity":57,"Duration":478061,"SoundDuration":478061,"Delta":188926809},{"NoteNumber":56,"Velocity":41,"Duration":159354,"SoundDuration":159354,"Delta":188926809},{"NoteNumber":64,"Velocity":35,"Duration":159353,"SoundDuration":159353,"Delta":189086163},{"NoteNumber":61,"Velocity":35,"Duration":159354,"SoundDuration":159354,"Delta":189245517},{"NoteNumber":76,"Velocity":67,"Duration":159354,"SoundDuration":159354,"Delta":189404871},{"NoteNumber":68,"Velocity":57,"Duration":159354,"SoundDuration":159354,"Delta":189404871},{"NoteNumber":73,"Velocity":57,"Duration":159354,"SoundDuration":159354,"Delta":189404871},{"NoteNumber":64,"Velocity":36,"Duration":159354,"SoundDuration":159354,"Delta":189404871},{"NoteNumber":76,"Velocity":69,"Duration":637416,"SoundDuration":637416,"Delta":189564225},{"NoteNumber":69,"Velocity":58,"Duration":637416,"SoundDuration":637416,"Delta":189564225},{"NoteNumber":73,"Velocity":58,"Duration":637416,"SoundDuration":637416,"Delta":189564225},{"NoteNumber":57,"Velocity":42,"Duration":159354,"SoundDuration":159354,"Delta":189564225},{"NoteNumber":64,"Velocity":35,"Duration":159353,"SoundDuration":159353,"Delta":189723579},{"NoteNumber":61,"Velocity":37,"Duration":159354,"SoundDuration":159354,"Delta":189882933},{"NoteNumber":64,"Velocity":37,"Duration":159354,"SoundDuration":159354,"Delta":190042287},{"NoteNumber":76,"Velocity":59,"Duration":1123733,"SoundDuration":1123733,"Delta":190201641},{"NoteNumber":57,"Velocity":36,"Duration":162074,"SoundDuration":162074,"Delta":190201641},{"NoteNumber":64,"Velocity":29,"Duration":162074,"SoundDuration":162074,"Delta":190363715},{"NoteNumber":61,"Velocity":29,"Duration":162074,"SoundDuration":162074,"Delta":190525790},{"NoteNumber":64,"Velocity":29,"Duration":162074,"SoundDuration":162074,"Delta":190687864},{"NoteNumber":58,"Velocity":36,"Duration":158478,"SoundDuration":158478,"Delta":190849939},{"NoteNumber":64,"Velocity":30,"Duration":158478,"SoundDuration":158478,"Delta":191008417},{"NoteNumber":61,"Velocity":30,"Duration":158478,"SoundDuration":158478,"Delta":191166896},{"NoteNumber":74,"Velocity":56,"Duration":158478,"SoundDuration":158478,"Delta":191325374},{"NoteNumber":64,"Velocity":31,"Duration":158478,"SoundDuration":158478,"Delta":191325374},{"NoteNumber":73,"Velocity":56,"Duration":316957,"SoundDuration":316957,"Delta":191483853},{"NoteNumber":57,"Velocity":36,"Duration":158478,"SoundDuration":158478,"Delta":191483853},{"NoteNumber":64,"Velocity":31,"Duration":158478,"SoundDuration":158478,"Delta":191642331},{"NoteNumber":61,"Velocity":31,"Duration":158478,"SoundDuration":158478,"Delta":191800810},{"NoteNumber":64,"Velocity":31,"Duration":158478,"SoundDuration":158478,"Delta":191959288},{"NoteNumber":73,"Velocity":57,"Duration":646439,"SoundDuration":646439,"Delta":192117767},{"NoteNumber":55,"Velocity":36,"Duration":162249,"SoundDuration":162249,"Delta":192117767},{"NoteNumber":64,"Velocity":31,"Duration":162249,"SoundDuration":162249,"Delta":192280017},{"NoteNumber":61,"Velocity":31,"Duration":162249,"SoundDuration":162249,"Delta":192442266},{"NoteNumber":64,"Velocity":31,"Duration":159690,"SoundDuration":159690,"Delta":192604516},{"NoteNumber":76,"Velocity":49,"Duration":67337,"SoundDuration":67337,"Delta":192696869},{"NoteNumber":74,"Velocity":60,"Duration":154193,"SoundDuration":154193,"Delta":192764206},{"NoteNumber":53,"Velocity":36,"Duration":154193,"SoundDuration":154193,"Delta":192764206},{"NoteNumber":73,"Velocity":57,"Duration":154194,"SoundDuration":154194,"Delta":192918400},{"NoteNumber":62,"Velocity":29,"Duration":154194,"SoundDuration":154194,"Delta":192918400},{"NoteNumber":74,"Velocity":57,"Duration":154193,"SoundDuration":154193,"Delta":193072594},{"NoteNumber":57,"Velocity":29,"Duration":154193,"SoundDuration":154193,"Delta":193072594},{"NoteNumber":76,"Velocity":57,"Duration":160783,"SoundDuration":160783,"Delta":193226788},{"NoteNumber":62,"Velocity":29,"Duration":160783,"SoundDuration":160783,"Delta":193226788},{"NoteNumber":79,"Velocity":49,"Duration":67720,"SoundDuration":67720,"Delta":193319852},{"NoteNumber":77,"Velocity":60,"Duration":154193,"SoundDuration":154193,"Delta":193387572},{"NoteNumber":52,"Velocity":36,"Duration":154193,"SoundDuration":154193,"Delta":193387572},{"NoteNumber":76,"Velocity":57,"Duration":154194,"SoundDuration":154194,"Delta":193541766},{"NoteNumber":62,"Velocity":30,"Duration":154194,"SoundDuration":154194,"Delta":193541766},{"NoteNumber":77,"Velocity":57,"Duration":154193,"SoundDuration":154193,"Delta":193695960},{"NoteNumber":55,"Velocity":30,"Duration":154193,"SoundDuration":154193,"Delta":193695960},{"NoteNumber":79,"Velocity":57,"Duration":154193,"SoundDuration":154193,"Delta":193850154},{"NoteNumber":62,"Velocity":31,"Duration":154193,"SoundDuration":154193,"Delta":193850154},{"NoteNumber":81,"Velocity":59,"Duration":316957,"SoundDuration":316957,"Delta":194004348},{"NoteNumber":50,"Velocity":36,"Duration":158478,"SoundDuration":158478,"Delta":194004348},{"NoteNumber":62,"Velocity":31,"Duration":158478,"SoundDuration":158478,"Delta":194162827},{"NoteNumber":53,"Velocity":31,"Duration":158478,"SoundDuration":158478,"Delta":194321305},{"NoteNumber":62,"Velocity":31,"Duration":158478,"SoundDuration":158478,"Delta":194479784},{"NoteNumber":81,"Velocity":59,"Duration":316957,"SoundDuration":316957,"Delta":194638262},{"NoteNumber":53,"Velocity":36,"Duration":158478,"SoundDuration":158478,"Delta":194638262},{"NoteNumber":62,"Velocity":31,"Duration":158478,"SoundDuration":158478,"Delta":194796741},{"NoteNumber":77,"Velocity":57,"Duration":316957,"SoundDuration":316957,"Delta":194955219},{"NoteNumber":57,"Velocity":31,"Duration":158478,"SoundDuration":158478,"Delta":194955219},{"NoteNumber":62,"Velocity":31,"Duration":158478,"SoundDuration":158478,"Delta":195113698},{"NoteNumber":76,"Velocity":59,"Duration":1122489,"SoundDuration":1122489,"Delta":195272176},{"NoteNumber":57,"Velocity":36,"Duration":161221,"SoundDuration":161221,"Delta":195272176},{"NoteNumber":64,"Velocity":29,"Duration":161220,"SoundDuration":161220,"Delta":195433397},{"NoteNumber":61,"Velocity":29,"Duration":161221,"SoundDuration":161221,"Delta":195594618},{"NoteNumber":64,"Velocity":29,"Duration":161220,"SoundDuration":161220,"Delta":195755839},{"NoteNumber":58,"Velocity":36,"Duration":159201,"SoundDuration":159201,"Delta":195917060},{"NoteNumber":64,"Velocity":30,"Duration":159201,"SoundDuration":159201,"Delta":196076262},{"NoteNumber":61,"Velocity":30,"Duration":159201,"SoundDuration":159201,"Delta":196235464},{"NoteNumber":74,"Velocity":56,"Duration":159201,"SoundDuration":159201,"Delta":196394665},{"NoteNumber":64,"Velocity":31,"Duration":159201,"SoundDuration":159201,"Delta":196394665},{"NoteNumber":73,"Velocity":56,"Duration":318403,"SoundDuration":318403,"Delta":196553867},{"NoteNumber":57,"Velocity":36,"Duration":159201,"SoundDuration":159201,"Delta":196553867},{"NoteNumber":64,"Velocity":31,"Duration":159201,"SoundDuration":159201,"Delta":196713069},{"NoteNumber":61,"Velocity":31,"Duration":159201,"SoundDuration":159201,"Delta":196872271},{"NoteNumber":64,"Velocity":31,"Duration":159201,"SoundDuration":159201,"Delta":197031472},{"NoteNumber":85,"Velocity":63,"Duration":668077,"SoundDuration":668077,"Delta":197190674},{"NoteNumber":73,"Velocity":63,"Duration":668077,"SoundDuration":668077,"Delta":197190674},{"NoteNumber":55,"Velocity":37,"Duration":167019,"SoundDuration":167019,"Delta":197190674},{"NoteNumber":64,"Velocity":32,"Duration":167019,"SoundDuration":167019,"Delta":197357693},{"NoteNumber":61,"Velocity":32,"Duration":167019,"SoundDuration":167019,"Delta":197524713},{"NoteNumber":64,"Velocity":32,"Duration":167019,"SoundDuration":167019,"Delta":197691732},{"NoteNumber":74,"Velocity":63,"Duration":318737,"SoundDuration":318737,"Delta":197858751},{"NoteNumber":86,"Velocity":63,"Duration":318737,"SoundDuration":318737,"Delta":197858751},{"NoteNumber":53,"Velocity":37,"Duration":159536,"SoundDuration":159536,"Delta":197858751},{"NoteNumber":65,"Velocity":31,"Duration":159201,"SoundDuration":159201,"Delta":198018287},{"NoteNumber":77,"Velocity":64,"Duration":317413,"SoundDuration":317413,"Delta":198177489},{"NoteNumber":89,"Velocity":64,"Duration":317413,"SoundDuration":317413,"Delta":198177489},{"NoteNumber":62,"Velocity":32,"Duration":159201,"SoundDuration":159201,"Delta":198177489},{"NoteNumber":65,"Velocity":32,"Duration":158211,"SoundDuration":158211,"Delta":198336691},{"NoteNumber":79,"Velocity":64,"Duration":315781,"SoundDuration":315781,"Delta":198494902},{"NoteNumber":91,"Velocity":64,"Duration":315781,"SoundDuration":315781,"Delta":198494902},{"NoteNumber":53,"Velocity":39,"Duration":158211,"SoundDuration":158211,"Delta":198494902},{"NoteNumber":65,"Velocity":34,"Duration":157569,"SoundDuration":157569,"Delta":198653113},{"NoteNumber":81,"Velocity":65,"Duration":314170,"SoundDuration":314170,"Delta":198810683},{"NoteNumber":93,"Velocity":65,"Duration":314170,"SoundDuration":314170,"Delta":198810683},{"NoteNumber":62,"Velocity":34,"Duration":157249,"SoundDuration":157249,"Delta":198810683},{"NoteNumber":65,"Velocity":35,"Duration":156921,"SoundDuration":156921,"Delta":198967932},{"NoteNumber":82,"Velocity":66,"Duration":625065,"SoundDuration":625065,"Delta":199124854},{"NoteNumber":94,"Velocity":66,"Duration":625065,"SoundDuration":625065,"Delta":199124854},{"NoteNumber":53,"Velocity":42,"Duration":156266,"SoundDuration":156266,"Delta":199124854},{"NoteNumber":65,"Velocity":37,"Duration":156266,"SoundDuration":156266,"Delta":199281120},{"NoteNumber":62,"Velocity":37,"Duration":156266,"SoundDuration":156266,"Delta":199437387},{"NoteNumber":65,"Velocity":37,"Duration":156266,"SoundDuration":156266,"Delta":199593653},{"NoteNumber":91,"Velocity":69,"Duration":625065,"SoundDuration":625065,"Delta":199749919},{"NoteNumber":79,"Velocity":69,"Duration":625065,"SoundDuration":625065,"Delta":199749919},{"NoteNumber":53,"Velocity":44,"Duration":156266,"SoundDuration":156266,"Delta":199749919},{"NoteNumber":67,"Velocity":39,"Duration":156266,"SoundDuration":156266,"Delta":199906185},{"NoteNumber":63,"Velocity":40,"Duration":156266,"SoundDuration":156266,"Delta":200062452},{"NoteNumber":67,"Velocity":40,"Duration":156266,"SoundDuration":156266,"Delta":200218718},{"NoteNumber":89,"Velocity":70,"Duration":625064,"SoundDuration":625064,"Delta":200374984},{"NoteNumber":77,"Velocity":70,"Duration":625064,"SoundDuration":625064,"Delta":200374984},{"NoteNumber":53,"Velocity":48,"Duration":156266,"SoundDuration":156266,"Delta":200374984},{"NoteNumber":65,"Velocity":38,"Duration":156266,"SoundDuration":156266,"Delta":200531250},{"NoteNumber":62,"Velocity":38,"Duration":156266,"SoundDuration":156266,"Delta":200687517},{"NoteNumber":65,"Velocity":38,"Duration":156266,"SoundDuration":156266,"Delta":200843783},{"NoteNumber":87,"Velocity":69,"Duration":625065,"SoundDuration":625065,"Delta":201000049},{"NoteNumber":75,"Velocity":69,"Duration":625065,"SoundDuration":625065,"Delta":201000049},{"NoteNumber":53,"Velocity":47,"Duration":156266,"SoundDuration":156266,"Delta":201000049},{"NoteNumber":63,"Velocity":39,"Duration":156266,"SoundDuration":156266,"Delta":201156315},{"NoteNumber":60,"Velocity":39,"Duration":156266,"SoundDuration":156266,"Delta":201312582},{"NoteNumber":63,"Velocity":39,"Duration":156266,"SoundDuration":156266,"Delta":201468848},{"NoteNumber":86,"Velocity":66,"Duration":625065,"SoundDuration":625065,"Delta":201625114},{"NoteNumber":74,"Velocity":66,"Duration":625065,"SoundDuration":625065,"Delta":201625114},{"NoteNumber":53,"Velocity":42,"Duration":156266,"SoundDuration":156266,"Delta":201625114},{"NoteNumber":62,"Velocity":36,"Duration":156266,"SoundDuration":156266,"Delta":201781380},{"NoteNumber":58,"Velocity":36,"Duration":156266,"SoundDuration":156266,"Delta":201937647},{"NoteNumber":62,"Velocity":37,"Duration":156266,"SoundDuration":156266,"Delta":202093913},{"NoteNumber":84,"Velocity":65,"Duration":625064,"SoundDuration":625064,"Delta":202250179},{"NoteNumber":72,"Velocity":65,"Duration":625064,"SoundDuration":625064,"Delta":202250179},{"NoteNumber":53,"Velocity":42,"Duration":156266,"SoundDuration":156266,"Delta":202250179},{"NoteNumber":60,"Velocity":35,"Duration":156266,"SoundDuration":156266,"Delta":202406445},{"NoteNumber":56,"Velocity":35,"Duration":156266,"SoundDuration":156266,"Delta":202562712},{"NoteNumber":60,"Velocity":35,"Duration":156266,"SoundDuration":156266,"Delta":202718978},{"NoteNumber":71,"Velocity":61,"Duration":2847421,"SoundDuration":2847421,"Delta":202875244},{"NoteNumber":83,"Velocity":61,"Duration":2847421,"SoundDuration":2847421,"Delta":202875244},{"NoteNumber":53,"Velocity":35,"Duration":156266,"SoundDuration":156266,"Delta":202875244},{"NoteNumber":59,"Velocity":29,"Duration":156266,"SoundDuration":156266,"Delta":203031510},{"NoteNumber":56,"Velocity":29,"Duration":156266,"SoundDuration":156266,"Delta":203187777},{"NoteNumber":59,"Velocity":29,"Duration":156593,"SoundDuration":156593,"Delta":203344043},{"NoteNumber":53,"Velocity":34,"Duration":157249,"SoundDuration":157249,"Delta":203500637},{"NoteNumber":59,"Velocity":29,"Duration":157249,"SoundDuration":157249,"Delta":203657886},{"NoteNumber":56,"Velocity":29,"Duration":157249,"SoundDuration":157249,"Delta":203815135},{"NoteNumber":59,"Velocity":29,"Duration":157890,"SoundDuration":157890,"Delta":203972384},{"NoteNumber":53,"Velocity":33,"Duration":158211,"SoundDuration":158211,"Delta":204130275},{"NoteNumber":59,"Velocity":29,"Duration":158211,"SoundDuration":158211,"Delta":204288486},{"NoteNumber":56,"Velocity":29,"Duration":158211,"SoundDuration":158211,"Delta":204446698},{"NoteNumber":59,"Velocity":29,"Duration":159201,"SoundDuration":159201,"Delta":204604909},{"NoteNumber":53,"Velocity":33,"Duration":159201,"SoundDuration":159201,"Delta":204764111},{"NoteNumber":59,"Velocity":29,"Duration":159201,"SoundDuration":159201,"Delta":204923312},{"NoteNumber":56,"Velocity":29,"Duration":159536,"SoundDuration":159536,"Delta":205082514},{"NoteNumber":59,"Velocity":29,"Duration":160204,"SoundDuration":160204,"Delta":205242050},{"NoteNumber":53,"Velocity":31,"Duration":160204,"SoundDuration":160204,"Delta":205402255},{"NoteNumber":59,"Velocity":27,"Duration":160205,"SoundDuration":160205,"Delta":205562460},{"NoteNumber":71,"Velocity":51,"Duration":304389,"SoundDuration":304389,"Delta":205722665},{"NoteNumber":56,"Velocity":27,"Duration":160204,"SoundDuration":160204,"Delta":205722665},{"NoteNumber":59,"Velocity":27,"Duration":160204,"SoundDuration":160204,"Delta":205882870},{"NoteNumber":71,"Velocity":51,"Duration":304389,"SoundDuration":304389,"Delta":206043075},{"NoteNumber":53,"Velocity":32,"Duration":160205,"SoundDuration":160205,"Delta":206043075},{"NoteNumber":59,"Velocity":27,"Duration":160204,"SoundDuration":160204,"Delta":206203280},{"NoteNumber":71,"Velocity":51,"Duration":304389,"SoundDuration":304389,"Delta":206363485},{"NoteNumber":56,"Velocity":27,"Duration":160204,"SoundDuration":160204,"Delta":206363485},{"NoteNumber":59,"Velocity":27,"Duration":160205,"SoundDuration":160205,"Delta":206523690},{"NoteNumber":71,"Velocity":50,"Duration":304389,"SoundDuration":304389,"Delta":206683895},{"NoteNumber":52,"Velocity":32,"Duration":160204,"SoundDuration":160204,"Delta":206683895},{"NoteNumber":59,"Velocity":26,"Duration":160204,"SoundDuration":160204,"Delta":206844100},{"NoteNumber":71,"Velocity":50,"Duration":304389,"SoundDuration":304389,"Delta":207004305},{"NoteNumber":56,"Velocity":26,"Duration":160205,"SoundDuration":160205,"Delta":207004305},{"NoteNumber":59,"Velocity":26,"Duration":160204,"SoundDuration":160204,"Delta":207164510},{"NoteNumber":71,"Velocity":50,"Duration":304389,"SoundDuration":304389,"Delta":207324715},{"NoteNumber":50,"Velocity":31,"Duration":160204,"SoundDuration":160204,"Delta":207324715},{"NoteNumber":59,"Velocity":26,"Duration":160205,"SoundDuration":160205,"Delta":207484920},{"NoteNumber":71,"Velocity":50,"Duration":304389,"SoundDuration":304389,"Delta":207645125},{"NoteNumber":56,"Velocity":26,"Duration":160204,"SoundDuration":160204,"Delta":207645125},{"NoteNumber":59,"Velocity":26,"Duration":160204,"SoundDuration":160204,"Delta":207805330},{"NoteNumber":72,"Velocity":53,"Duration":1094381,"SoundDuration":1094381,"Delta":207965535},{"NoteNumber":48,"Velocity":31,"Duration":154193,"SoundDuration":154193,"Delta":207965535},{"NoteNumber":60,"Velocity":24,"Duration":154194,"SoundDuration":154194,"Delta":208119729},{"NoteNumber":57,"Velocity":24,"Duration":154193,"SoundDuration":154193,"Delta":208273923},{"NoteNumber":60,"Velocity":24,"Duration":154193,"SoundDuration":154193,"Delta":208428117},{"NoteNumber":48,"Velocity":30,"Duration":159201,"SoundDuration":159201,"Delta":208582311},{"NoteNumber":62,"Velocity":25,"Duration":159201,"SoundDuration":159201,"Delta":208741513},{"NoteNumber":58,"Velocity":25,"Duration":159201,"SoundDuration":159201,"Delta":208900715},{"NoteNumber":74,"Velocity":47,"Duration":159201,"SoundDuration":159201,"Delta":209059916},{"NoteNumber":62,"Velocity":26,"Duration":159201,"SoundDuration":159201,"Delta":209059916},{"NoteNumber":72,"Velocity":52,"Duration":318403,"SoundDuration":318403,"Delta":209219118},{"NoteNumber":48,"Velocity":29,"Duration":159201,"SoundDuration":159201,"Delta":209219118},{"NoteNumber":60,"Velocity":26,"Duration":159201,"SoundDuration":159201,"Delta":209378320},{"NoteNumber":57,"Velocity":26,"Duration":159201,"SoundDuration":159201,"Delta":209537522},{"NoteNumber":60,"Velocity":26,"Duration":159201,"SoundDuration":159201,"Delta":209696723},{"NoteNumber":77,"Velocity":49,"Duration":72507,"SoundDuration":72507,"Delta":209855925},{"NoteNumber":48,"Velocity":30,"Duration":143924,"SoundDuration":143924,"Delta":209855925},{"NoteNumber":79,"Velocity":43,"Duration":71416,"SoundDuration":71416,"Delta":209928433},{"NoteNumber":77,"Velocity":44,"Duration":70112,"SoundDuration":70112,"Delta":209999850},{"NoteNumber":62,"Velocity":26,"Duration":138962,"SoundDuration":138962,"Delta":209999850},{"NoteNumber":79,"Velocity":44,"Duration":68849,"SoundDuration":68849,"Delta":210069963},{"NoteNumber":77,"Velocity":44,"Duration":68474,"SoundDuration":68474,"Delta":210138812},{"NoteNumber":58,"Velocity":26,"Duration":136801,"SoundDuration":136801,"Delta":210138812},{"NoteNumber":79,"Velocity":46,"Duration":68327,"SoundDuration":68327,"Delta":210207287},{"NoteNumber":76,"Velocity":51,"Duration":74242,"SoundDuration":74242,"Delta":210275614},{"NoteNumber":62,"Velocity":26,"Duration":160226,"SoundDuration":160226,"Delta":210275614},{"NoteNumber":77,"Velocity":44,"Duration":85984,"SoundDuration":85984,"Delta":210349856},{"NoteNumber":81,"Velocity":58,"Duration":1097760,"SoundDuration":1097760,"Delta":210435841},{"NoteNumber":69,"Velocity":46,"Duration":1097760,"SoundDuration":1097760,"Delta":210435841},{"NoteNumber":48,"Velocity":31,"Duration":155038,"SoundDuration":155038,"Delta":210435841},{"NoteNumber":60,"Velocity":24,"Duration":155038,"SoundDuration":155038,"Delta":210590879},{"NoteNumber":57,"Velocity":24,"Duration":155038,"SoundDuration":155038,"Delta":210745918},{"NoteNumber":60,"Velocity":24,"Duration":155038,"SoundDuration":155038,"Delta":210900957},{"NoteNumber":48,"Velocity":30,"Duration":159201,"SoundDuration":159201,"Delta":211055996},{"NoteNumber":62,"Velocity":25,"Duration":159201,"SoundDuration":159201,"Delta":211215197},{"NoteNumber":58,"Velocity":25,"Duration":159201,"SoundDuration":159201,"Delta":211374399},{"NoteNumber":67,"Velocity":40,"Duration":159201,"SoundDuration":159201,"Delta":211533601},{"NoteNumber":79,"Velocity":51,"Duration":159201,"SoundDuration":159201,"Delta":211533601},{"NoteNumber":62,"Velocity":26,"Duration":159201,"SoundDuration":159201,"Delta":211533601},{"NoteNumber":65,"Velocity":43,"Duration":318403,"SoundDuration":318403,"Delta":211692803},{"NoteNumber":77,"Velocity":53,"Duration":318403,"SoundDuration":318403,"Delta":211692803},{"NoteNumber":48,"Velocity":29,"Duration":159201,"SoundDuration":159201,"Delta":211692803},{"NoteNumber":60,"Velocity":26,"Duration":159201,"SoundDuration":159201,"Delta":211852004},{"NoteNumber":57,"Velocity":26,"Duration":159201,"SoundDuration":159201,"Delta":212011206},{"NoteNumber":60,"Velocity":26,"Duration":159201,"SoundDuration":159201,"Delta":212170408},{"NoteNumber":74,"Velocity":54,"Duration":648999,"SoundDuration":648999,"Delta":212329610},{"NoteNumber":48,"Velocity":30,"Duration":162249,"SoundDuration":162249,"Delta":212329610},{"NoteNumber":62,"Velocity":26,"Duration":162249,"SoundDuration":162249,"Delta":212491859},{"NoteNumber":58,"Velocity":26,"Duration":162249,"SoundDuration":162249,"Delta":212654109},{"NoteNumber":62,"Velocity":26,"Duration":162249,"SoundDuration":162249,"Delta":212816359},{"NoteNumber":72,"Velocity":58,"Duration":1122489,"SoundDuration":1122489,"Delta":212978609},{"NoteNumber":48,"Velocity":31,"Duration":161221,"SoundDuration":161221,"Delta":212978609},{"NoteNumber":60,"Velocity":24,"Duration":161220,"SoundDuration":161220,"Delta":213139830},{"NoteNumber":57,"Velocity":24,"Duration":161221,"SoundDuration":161221,"Delta":213301051},{"NoteNumber":60,"Velocity":24,"Duration":161220,"SoundDuration":161220,"Delta":213462272},{"NoteNumber":48,"Velocity":30,"Duration":159201,"SoundDuration":159201,"Delta":213623493},{"NoteNumber":62,"Velocity":26,"Duration":159201,"SoundDuration":159201,"Delta":213782694},{"NoteNumber":58,"Velocity":26,"Duration":159201,"SoundDuration":159201,"Delta":213941896},{"NoteNumber":74,"Velocity":53,"Duration":159201,"SoundDuration":159201,"Delta":214101098},{"NoteNumber":62,"Velocity":27,"Duration":159201,"SoundDuration":159201,"Delta":214101098},{"NoteNumber":72,"Velocity":60,"Duration":318403,"SoundDuration":318403,"Delta":214260300},{"NoteNumber":48,"Velocity":30,"Duration":159201,"SoundDuration":159201,"Delta":214260300},{"NoteNumber":60,"Velocity":27,"Duration":159201,"SoundDuration":159201,"Delta":214419501},{"NoteNumber":57,"Velocity":28,"Duration":159201,"SoundDuration":159201,"Delta":214578703},{"NoteNumber":60,"Velocity":28,"Duration":159201,"SoundDuration":159201,"Delta":214737905},{"NoteNumber":89,"Velocity":53,"Duration":72507,"SoundDuration":72507,"Delta":214897107},{"NoteNumber":48,"Velocity":33,"Duration":143924,"SoundDuration":143924,"Delta":214897107},{"NoteNumber":91,"Velocity":47,"Duration":71416,"SoundDuration":71416,"Delta":214969615},{"NoteNumber":89,"Velocity":48,"Duration":69730,"SoundDuration":69730,"Delta":215041031},{"NoteNumber":62,"Velocity":28,"Duration":138215,"SoundDuration":138215,"Delta":215041031},{"NoteNumber":91,"Velocity":48,"Duration":68484,"SoundDuration":68484,"Delta":215110762},{"NoteNumber":89,"Velocity":48,"Duration":68113,"SoundDuration":68113,"Delta":215179246},{"NoteNumber":58,"Velocity":28,"Duration":136227,"SoundDuration":136227,"Delta":215179246},{"NoteNumber":91,"Velocity":50,"Duration":68113,"SoundDuration":68113,"Delta":215247360},{"NoteNumber":88,"Velocity":55,"Duration":73858,"SoundDuration":73858,"Delta":215315474},{"NoteNumber":62,"Velocity":28,"Duration":161702,"SoundDuration":161702,"Delta":215315474},{"NoteNumber":89,"Velocity":48,"Duration":87843,"SoundDuration":87843,"Delta":215389332},{"NoteNumber":93,"Velocity":69,"Duration":1097760,"SoundDuration":1097760,"Delta":215477176},{"NoteNumber":81,"Velocity":63,"Duration":1097760,"SoundDuration":1097760,"Delta":215477176},{"NoteNumber":48,"Velocity":34,"Duration":155038,"SoundDuration":155038,"Delta":215477176},{"NoteNumber":60,"Velocity":26,"Duration":155038,"SoundDuration":155038,"Delta":215632215},{"NoteNumber":57,"Velocity":26,"Duration":155038,"SoundDuration":155038,"Delta":215787254},{"NoteNumber":60,"Velocity":26,"Duration":155038,"SoundDuration":155038,"Delta":215942292},{"NoteNumber":48,"Velocity":33,"Duration":159201,"SoundDuration":159201,"Delta":216097331},{"NoteNumber":62,"Velocity":27,"Duration":159201,"SoundDuration":159201,"Delta":216256533},{"NoteNumber":58,"Velocity":27,"Duration":159201,"SoundDuration":159201,"Delta":216415735},{"NoteNumber":79,"Velocity":62,"Duration":159201,"SoundDuration":159201,"Delta":216574936},{"NoteNumber":91,"Velocity":62,"Duration":159201,"SoundDuration":159201,"Delta":216574936},{"NoteNumber":62,"Velocity":28,"Duration":159201,"SoundDuration":159201,"Delta":216574936},{"NoteNumber":77,"Velocity":67,"Duration":318403,"SoundDuration":318403,"Delta":216734138},{"NoteNumber":89,"Velocity":67,"Duration":318403,"SoundDuration":318403,"Delta":216734138},{"NoteNumber":48,"Velocity":31,"Duration":159201,"SoundDuration":159201,"Delta":216734138},{"NoteNumber":60,"Velocity":28,"Duration":159201,"SoundDuration":159201,"Delta":216893340},{"NoteNumber":57,"Velocity":28,"Duration":159201,"SoundDuration":159201,"Delta":217052542},{"NoteNumber":60,"Velocity":28,"Duration":159201,"SoundDuration":159201,"Delta":217211743},{"NoteNumber":74,"Velocity":48,"Duration":653167,"SoundDuration":653167,"Delta":217370945},{"NoteNumber":77,"Velocity":48,"Duration":653167,"SoundDuration":653167,"Delta":217370945},{"NoteNumber":82,"Velocity":69,"Duration":653167,"SoundDuration":653167,"Delta":217370945},{"NoteNumber":86,"Velocity":69,"Duration":653167,"SoundDuration":653167,"Delta":217370945},{"NoteNumber":48,"Velocity":36,"Duration":163292,"SoundDuration":163292,"Delta":217370945},{"NoteNumber":62,"Velocity":30,"Duration":163291,"SoundDuration":163291,"Delta":217534237},{"NoteNumber":58,"Velocity":30,"Duration":163292,"SoundDuration":163292,"Delta":217697529},{"NoteNumber":62,"Velocity":30,"Duration":163291,"SoundDuration":163291,"Delta":217860821},{"NoteNumber":72,"Velocity":58,"Duration":636807,"SoundDuration":636807,"Delta":218024113},{"NoteNumber":77,"Velocity":58,"Duration":636807,"SoundDuration":636807,"Delta":218024113},{"NoteNumber":81,"Velocity":69,"Duration":636807,"SoundDuration":636807,"Delta":218024113},{"NoteNumber":84,"Velocity":69,"Duration":636807,"SoundDuration":636807,"Delta":218024113},{"NoteNumber":48,"Velocity":42,"Duration":159201,"SoundDuration":159201,"Delta":218024113},{"NoteNumber":60,"Velocity":35,"Duration":159201,"SoundDuration":159201,"Delta":218183315},{"NoteNumber":57,"Velocity":35,"Duration":159201,"SoundDuration":159201,"Delta":218342517},{"NoteNumber":60,"Velocity":35,"Duration":159201,"SoundDuration":159201,"Delta":218501718},{"NoteNumber":74,"Velocity":61,"Duration":628996,"SoundDuration":628996,"Delta":218660920},{"NoteNumber":77,"Velocity":61,"Duration":628996,"SoundDuration":628996,"Delta":218660920},{"NoteNumber":82,"Velocity":72,"Duration":628996,"SoundDuration":628996,"Delta":218660920},{"NoteNumber":86,"Velocity":72,"Duration":628996,"SoundDuration":628996,"Delta":218660920},{"NoteNumber":48,"Velocity":44,"Duration":157249,"SoundDuration":157249,"Delta":218660920},{"NoteNumber":62,"Velocity":37,"Duration":157249,"SoundDuration":157249,"Delta":218818169},{"NoteNumber":58,"Velocity":38,"Duration":157249,"SoundDuration":157249,"Delta":218975419},{"NoteNumber":62,"Velocity":37,"Duration":157249,"SoundDuration":157249,"Delta":219132668},{"NoteNumber":77,"Velocity":62,"Duration":628996,"SoundDuration":628996,"Delta":219289917},{"NoteNumber":81,"Velocity":62,"Duration":628996,"SoundDuration":628996,"Delta":219289917},{"NoteNumber":84,"Velocity":74,"Duration":628996,"SoundDuration":628996,"Delta":219289917},{"NoteNumber":89,"Velocity":74,"Duration":628996,"SoundDuration":628996,"Delta":219289917},{"NoteNumber":48,"Velocity":47,"Duration":157249,"SoundDuration":157249,"Delta":219289917},{"NoteNumber":60,"Velocity":37,"Duration":157249,"SoundDuration":157249,"Delta":219447166},{"NoteNumber":57,"Velocity":38,"Duration":157249,"SoundDuration":157249,"Delta":219604416},{"NoteNumber":60,"Velocity":38,"Duration":157249,"SoundDuration":157249,"Delta":219761665},{"NoteNumber":79,"Velocity":66,"Duration":661666,"SoundDuration":661666,"Delta":219918914},{"NoteNumber":84,"Velocity":66,"Duration":661666,"SoundDuration":661666,"Delta":219918914},{"NoteNumber":88,"Velocity":78,"Duration":661666,"SoundDuration":661666,"Delta":219918914},{"NoteNumber":91,"Velocity":78,"Duration":661666,"SoundDuration":661666,"Delta":219918914},{"NoteNumber":48,"Velocity":49,"Duration":165416,"SoundDuration":165416,"Delta":219918914},{"NoteNumber":60,"Velocity":40,"Duration":165416,"SoundDuration":165416,"Delta":220084331},{"NoteNumber":58,"Velocity":40,"Duration":165416,"SoundDuration":165416,"Delta":220249748},{"NoteNumber":60,"Velocity":40,"Duration":165416,"SoundDuration":165416,"Delta":220415164},{"NoteNumber":79,"Velocity":63,"Duration":1323334,"SoundDuration":1323334,"Delta":220580581},{"NoteNumber":84,"Velocity":63,"Duration":1323334,"SoundDuration":1323334,"Delta":220580581},{"NoteNumber":88,"Velocity":75,"Duration":1323334,"SoundDuration":1323334,"Delta":220580581},{"NoteNumber":91,"Velocity":75,"Duration":1323334,"SoundDuration":1323334,"Delta":220580581},{"NoteNumber":48,"Velocity":41,"Duration":2604974,"SoundDuration":2604974,"Delta":220580581},{"NoteNumber":60,"Velocity":49,"Duration":2604974,"SoundDuration":2604974,"Delta":220580581},{"NoteNumber":58,"Velocity":41,"Duration":2604974,"SoundDuration":2604974,"Delta":220580581},{"NoteNumber":88,"Velocity":63,"Duration":213606,"SoundDuration":213606,"Delta":221903915},{"NoteNumber":84,"Velocity":54,"Duration":213606,"SoundDuration":213606,"Delta":222117522},{"NoteNumber":79,"Velocity":54,"Duration":213606,"SoundDuration":213606,"Delta":222331129},{"NoteNumber":76,"Velocity":54,"Duration":213606,"SoundDuration":213606,"Delta":222544735},{"NoteNumber":79,"Velocity":52,"Duration":213606,"SoundDuration":213606,"Delta":222758342},{"NoteNumber":84,"Velocity":51,"Duration":213606,"SoundDuration":213606,"Delta":222971949},{"NoteNumber":77,"Velocity":53,"Duration":219876,"SoundDuration":219876,"Delta":223185555},{"NoteNumber":53,"Velocity":32,"Duration":633274,"SoundDuration":633274,"Delta":223185555},{"NoteNumber":57,"Velocity":32,"Duration":633274,"SoundDuration":633274,"Delta":223185555},{"NoteNumber":60,"Velocity":38,"Duration":633274,"SoundDuration":633274,"Delta":223185555},{"NoteNumber":84,"Velocity":49,"Duration":211091,"SoundDuration":211091,"Delta":223405432},{"NoteNumber":81,"Velocity":49,"Duration":101153,"SoundDuration":101153,"Delta":223616524},{"NoteNumber":77,"Velocity":53,"Duration":100623,"SoundDuration":100623,"Delta":223818830},{"NoteNumber":72,"Velocity":48,"Duration":100623,"SoundDuration":100623,"Delta":224020078},{"NoteNumber":69,"Velocity":46,"Duration":100623,"SoundDuration":100623,"Delta":224221326},{"NoteNumber":65,"Velocity":51,"Duration":102238,"SoundDuration":102238,"Delta":224422573},{"NoteNumber":53,"Velocity":29,"Duration":306716,"SoundDuration":306716,"Delta":224422573},{"NoteNumber":57,"Velocity":29,"Duration":306716,"SoundDuration":306716,"Delta":224422573},{"NoteNumber":60,"Velocity":35,"Duration":306716,"SoundDuration":306716,"Delta":224422573},{"NoteNumber":69,"Velocity":46,"Duration":102238,"SoundDuration":102238,"Delta":224627051},{"NoteNumber":72,"Velocity":46,"Duration":102238,"SoundDuration":102238,"Delta":224831529},{"NoteNumber":69,"Velocity":53,"Duration":105075,"SoundDuration":105075,"Delta":225036007},{"NoteNumber":53,"Velocity":29,"Duration":315225,"SoundDuration":315225,"Delta":225036007},{"NoteNumber":60,"Velocity":29,"Duration":315225,"SoundDuration":315225,"Delta":225036007},{"NoteNumber":63,"Velocity":35,"Duration":315225,"SoundDuration":315225,"Delta":225036007},{"NoteNumber":72,"Velocity":50,"Duration":105075,"SoundDuration":105075,"Delta":225246158},{"NoteNumber":77,"Velocity":50,"Duration":105075,"SoundDuration":105075,"Delta":225456308},{"NoteNumber":77,"Velocity":53,"Duration":216099,"SoundDuration":216099,"Delta":225666458},{"NoteNumber":53,"Velocity":32,"Duration":627608,"SoundDuration":627608,"Delta":225666458},{"NoteNumber":58,"Velocity":32,"Duration":627608,"SoundDuration":627608,"Delta":225666458},{"NoteNumber":62,"Velocity":38,"Duration":627608,"SoundDuration":627608,"Delta":225666458},{"NoteNumber":86,"Velocity":49,"Duration":209202,"SoundDuration":209202,"Delta":225882558},{"NoteNumber":82,"Velocity":49,"Duration":101153,"SoundDuration":101153,"Delta":226091760},{"NoteNumber":77,"Velocity":53,"Duration":101153,"SoundDuration":101153,"Delta":226294067},{"NoteNumber":74,"Velocity":48,"Duration":101153,"SoundDuration":101153,"Delta":226496373},{"NoteNumber":70,"Velocity":46,"Duration":101153,"SoundDuration":101153,"Delta":226698679},{"NoteNumber":65,"Velocity":51,"Duration":101153,"SoundDuration":101153,"Delta":226900986},{"NoteNumber":53,"Velocity":29,"Duration":303459,"SoundDuration":303459,"Delta":226900986},{"NoteNumber":58,"Velocity":29,"Duration":303459,"SoundDuration":303459,"Delta":226900986},{"NoteNumber":62,"Velocity":35,"Duration":303459,"SoundDuration":303459,"Delta":226900986},{"NoteNumber":70,"Velocity":46,"Duration":101153,"SoundDuration":101153,"Delta":227103292},{"NoteNumber":74,"Velocity":46,"Duration":101153,"SoundDuration":101153,"Delta":227305598},{"NoteNumber":70,"Velocity":53,"Duration":103359,"SoundDuration":103359,"Delta":227507905},{"NoteNumber":53,"Velocity":29,"Duration":310077,"SoundDuration":310077,"Delta":227507905},{"NoteNumber":62,"Velocity":29,"Duration":310077,"SoundDuration":310077,"Delta":227507905},{"NoteNumber":65,"Velocity":35,"Duration":310077,"SoundDuration":310077,"Delta":227507905},{"NoteNumber":74,"Velocity":50,"Duration":103359,"SoundDuration":103359,"Delta":227714623},{"NoteNumber":77,"Velocity":50,"Duration":103359,"SoundDuration":103359,"Delta":227921341},{"NoteNumber":77,"Velocity":53,"Duration":217343,"SoundDuration":217343,"Delta":228128060},{"NoteNumber":53,"Velocity":32,"Duration":629475,"SoundDuration":629475,"Delta":228128060},{"NoteNumber":57,"Velocity":32,"Duration":629475,"SoundDuration":629475,"Delta":228128060},{"NoteNumber":60,"Velocity":38,"Duration":629475,"SoundDuration":629475,"Delta":228128060},{"NoteNumber":89,"Velocity":49,"Duration":209825,"SoundDuration":209825,"Delta":228345404},{"NoteNumber":84,"Velocity":49,"Duration":101153,"SoundDuration":101153,"Delta":228555229},{"NoteNumber":81,"Velocity":53,"Duration":101153,"SoundDuration":101153,"Delta":228757535},{"NoteNumber":77,"Velocity":48,"Duration":101153,"SoundDuration":101153,"Delta":228959842},{"NoteNumber":72,"Velocity":46,"Duration":101153,"SoundDuration":101153,"Delta":229162148},{"NoteNumber":69,"Velocity":51,"Duration":101153,"SoundDuration":101153,"Delta":229364454},{"NoteNumber":53,"Velocity":29,"Duration":303459,"SoundDuration":303459,"Delta":229364454},{"NoteNumber":57,"Velocity":35,"Duration":303459,"SoundDuration":303459,"Delta":229364454},{"NoteNumber":65,"Velocity":46,"Duration":101153,"SoundDuration":101153,"Delta":229566761},{"NoteNumber":60,"Velocity":46,"Duration":101153,"SoundDuration":101153,"Delta":229769067},{"NoteNumber":65,"Velocity":53,"Duration":102238,"SoundDuration":102238,"Delta":229971373},{"NoteNumber":57,"Velocity":29,"Duration":306716,"SoundDuration":306716,"Delta":229971373},{"NoteNumber":60,"Velocity":35,"Duration":306716,"SoundDuration":306716,"Delta":229971373},{"NoteNumber":69,"Velocity":50,"Duration":102238,"SoundDuration":102238,"Delta":230175851},{"NoteNumber":72,"Velocity":50,"Duration":102238,"SoundDuration":102238,"Delta":230380329},{"NoteNumber":72,"Velocity":51,"Duration":204477,"SoundDuration":204477,"Delta":230584807},{"NoteNumber":48,"Velocity":29,"Duration":306716,"SoundDuration":306716,"Delta":230584807},{"NoteNumber":57,"Velocity":29,"Duration":306716,"SoundDuration":306716,"Delta":230584807},{"NoteNumber":60,"Velocity":35,"Duration":306716,"SoundDuration":306716,"Delta":230584807},{"NoteNumber":77,"Velocity":47,"Duration":204477,"SoundDuration":204477,"Delta":230789285},{"NoteNumber":77,"Velocity":47,"Duration":102238,"SoundDuration":102238,"Delta":230993763},{"NoteNumber":74,"Velocity":51,"Duration":207835,"SoundDuration":207835,"Delta":231198241},{"NoteNumber":48,"Velocity":28,"Duration":311753,"SoundDuration":311753,"Delta":231198241},{"NoteNumber":62,"Velocity":34,"Duration":311753,"SoundDuration":311753,"Delta":231198241},{"NoteNumber":58,"Velocity":28,"Duration":311753,"SoundDuration":311753,"Delta":231198241},{"NoteNumber":79,"Velocity":48,"Duration":207835,"SoundDuration":207835,"Delta":231406077},{"NoteNumber":79,"Velocity":48,"Duration":103917,"SoundDuration":103917,"Delta":231613912},{"NoteNumber":72,"Velocity":51,"Duration":207835,"SoundDuration":207835,"Delta":231821747},{"NoteNumber":48,"Velocity":28,"Duration":311753,"SoundDuration":311753,"Delta":231821747},{"NoteNumber":57,"Velocity":28,"Duration":311753,"SoundDuration":311753,"Delta":231821747},{"NoteNumber":60,"Velocity":33,"Duration":311753,"SoundDuration":311753,"Delta":231821747},{"NoteNumber":77,"Velocity":47,"Duration":207835,"SoundDuration":207835,"Delta":232029583},{"NoteNumber":77,"Velocity":47,"Duration":103917,"SoundDuration":103917,"Delta":232237418},{"NoteNumber":72,"Velocity":51,"Duration":207835,"SoundDuration":207835,"Delta":232445253},{"NoteNumber":48,"Velocity":28,"Duration":311752,"SoundDuration":311752,"Delta":232445253},{"NoteNumber":55,"Velocity":28,"Duration":311752,"SoundDuration":311752,"Delta":232445253},{"NoteNumber":58,"Velocity":34,"Duration":311752,"SoundDuration":311752,"Delta":232445253},{"NoteNumber":76,"Velocity":47,"Duration":207835,"SoundDuration":207835,"Delta":232653089},{"NoteNumber":76,"Velocity":47,"Duration":103917,"SoundDuration":103917,"Delta":232860924},{"NoteNumber":72,"Velocity":51,"Duration":207835,"SoundDuration":207835,"Delta":233068759},{"NoteNumber":48,"Velocity":29,"Duration":311753,"SoundDuration":311753,"Delta":233068759},{"NoteNumber":54,"Velocity":29,"Duration":311753,"SoundDuration":311753,"Delta":233068759},{"NoteNumber":57,"Velocity":35,"Duration":311753,"SoundDuration":311753,"Delta":233068759},{"NoteNumber":75,"Velocity":47,"Duration":207835,"SoundDuration":207835,"Delta":233276595},{"NoteNumber":75,"Velocity":47,"Duration":103917,"SoundDuration":103917,"Delta":233484430},{"NoteNumber":72,"Velocity":52,"Duration":207835,"SoundDuration":207835,"Delta":233692265},{"NoteNumber":48,"Velocity":28,"Duration":311753,"SoundDuration":311753,"Delta":233692265},{"NoteNumber":57,"Velocity":35,"Duration":311753,"SoundDuration":311753,"Delta":233692265},{"NoteNumber":54,"Velocity":28,"Duration":311753,"SoundDuration":311753,"Delta":233692265},{"NoteNumber":74,"Velocity":50,"Duration":207835,"SoundDuration":207835,"Delta":233900101},{"NoteNumber":74,"Velocity":50,"Duration":103917,"SoundDuration":103917,"Delta":234107936},{"NoteNumber":66,"Velocity":46,"Duration":207835,"SoundDuration":207835,"Delta":234315771},{"NoteNumber":69,"Velocity":54,"Duration":207835,"SoundDuration":207835,"Delta":234315771},{"NoteNumber":48,"Velocity":29,"Duration":311752,"SoundDuration":311752,"Delta":234315771},{"NoteNumber":54,"Velocity":29,"Duration":311752,"SoundDuration":311752,"Delta":234315771},{"NoteNumber":57,"Velocity":35,"Duration":311752,"SoundDuration":311752,"Delta":234315771},{"NoteNumber":75,"Velocity":50,"Duration":207835,"SoundDuration":207835,"Delta":234523607},{"NoteNumber":75,"Velocity":51,"Duration":103917,"SoundDuration":103917,"Delta":234731442},{"NoteNumber":66,"Velocity":47,"Duration":207835,"SoundDuration":207835,"Delta":234939277},{"NoteNumber":69,"Velocity":56,"Duration":207835,"SoundDuration":207835,"Delta":234939277},{"NoteNumber":48,"Velocity":31,"Duration":311753,"SoundDuration":311753,"Delta":234939277},{"NoteNumber":54,"Velocity":31,"Duration":311753,"SoundDuration":311753,"Delta":234939277},{"NoteNumber":57,"Velocity":37,"Duration":311753,"SoundDuration":311753,"Delta":234939277},{"NoteNumber":74,"Velocity":52,"Duration":207835,"SoundDuration":207835,"Delta":235147113},{"NoteNumber":74,"Velocity":53,"Duration":103917,"SoundDuration":103917,"Delta":235354948},{"NoteNumber":65,"Velocity":49,"Duration":207835,"SoundDuration":207835,"Delta":235562783},{"NoteNumber":70,"Velocity":58,"Duration":207835,"SoundDuration":207835,"Delta":235562783},{"NoteNumber":46,"Velocity":33,"Duration":312035,"SoundDuration":312035,"Delta":235562783},{"NoteNumber":53,"Velocity":33,"Duration":312035,"SoundDuration":312035,"Delta":235562783},{"NoteNumber":58,"Velocity":40,"Duration":312035,"SoundDuration":312035,"Delta":235562783},{"NoteNumber":75,"Velocity":54,"Duration":208682,"SoundDuration":208682,"Delta":235770619},{"NoteNumber":75,"Velocity":54,"Duration":104778,"SoundDuration":104778,"Delta":235979301},{"NoteNumber":65,"Velocity":49,"Duration":211016,"SoundDuration":211016,"Delta":236189155},{"NoteNumber":70,"Velocity":58,"Duration":211016,"SoundDuration":211016,"Delta":236189155},{"NoteNumber":46,"Velocity":31,"Duration":316668,"SoundDuration":316668,"Delta":236189155},{"NoteNumber":58,"Velocity":38,"Duration":316668,"SoundDuration":316668,"Delta":236189155},{"NoteNumber":53,"Velocity":31,"Duration":316668,"SoundDuration":316668,"Delta":236189155},{"NoteNumber":74,"Velocity":54,"Duration":211888,"SoundDuration":211888,"Delta":236400171},{"NoteNumber":74,"Velocity":54,"Duration":106235,"SoundDuration":106235,"Delta":236612059},{"NoteNumber":65,"Velocity":48,"Duration":214283,"SoundDuration":214283,"Delta":236825133},{"NoteNumber":69,"Velocity":57,"Duration":214283,"SoundDuration":214283,"Delta":236825133},{"NoteNumber":48,"Velocity":31,"Duration":321729,"SoundDuration":321729,"Delta":236825133},{"NoteNumber":53,"Velocity":31,"Duration":321729,"SoundDuration":321729,"Delta":236825133},{"NoteNumber":57,"Velocity":37,"Duration":321729,"SoundDuration":321729,"Delta":236825133},{"NoteNumber":72,"Velocity":53,"Duration":215495,"SoundDuration":215495,"Delta":237039417},{"NoteNumber":72,"Velocity":52,"Duration":108049,"SoundDuration":108049,"Delta":237254912},{"NoteNumber":64,"Velocity":48,"Duration":217652,"SoundDuration":217652,"Delta":237471323},{"NoteNumber":67,"Velocity":57,"Duration":217652,"SoundDuration":217652,"Delta":237471323},{"NoteNumber":48,"Velocity":31,"Duration":326942,"SoundDuration":326942,"Delta":237471323},{"NoteNumber":55,"Velocity":31,"Duration":326942,"SoundDuration":326942,"Delta":237471323},{"NoteNumber":58,"Velocity":38,"Duration":326942,"SoundDuration":326942,"Delta":237471323},{"NoteNumber":72,"Velocity":52,"Duration":218903,"SoundDuration":218903,"Delta":237688976},{"NoteNumber":72,"Velocity":52,"Duration":109938,"SoundDuration":109938,"Delta":237907879},{"NoteNumber":65,"Velocity":41,"Duration":632419,"SoundDuration":632419,"Delta":238128072},{"NoteNumber":69,"Velocity":41,"Duration":632419,"SoundDuration":632419,"Delta":238128072},{"NoteNumber":72,"Velocity":49,"Duration":632419,"SoundDuration":632419,"Delta":238128072},{"NoteNumber":53,"Velocity":47,"Duration":220288,"SoundDuration":220288,"Delta":238128072},{"NoteNumber":60,"Velocity":44,"Duration":209825,"SoundDuration":209825,"Delta":238348361},{"NoteNumber":57,"Velocity":44,"Duration":101153,"SoundDuration":101153,"Delta":238558186},{"NoteNumber":53,"Velocity":47,"Duration":101153,"SoundDuration":101153,"Delta":238760492},{"NoteNumber":48,"Velocity":43,"Duration":101153,"SoundDuration":101153,"Delta":238962798},{"NoteNumber":45,"Velocity":41,"Duration":101153,"SoundDuration":101153,"Delta":239165105},{"NoteNumber":77,"Velocity":49,"Duration":305094,"SoundDuration":305094,"Delta":239367411},{"NoteNumber":69,"Velocity":40,"Duration":305094,"SoundDuration":305094,"Delta":239367411},{"NoteNumber":72,"Velocity":40,"Duration":305094,"SoundDuration":305094,"Delta":239367411},{"NoteNumber":41,"Velocity":45,"Duration":101698,"SoundDuration":101698,"Delta":239367411},{"NoteNumber":45,"Velocity":41,"Duration":101698,"SoundDuration":101698,"Delta":239570808},{"NoteNumber":48,"Velocity":41,"Duration":101698,"SoundDuration":101698,"Delta":239774204},{"NoteNumber":72,"Velocity":40,"Duration":312035,"SoundDuration":312035,"Delta":239977601},{"NoteNumber":75,"Velocity":40,"Duration":312035,"SoundDuration":312035,"Delta":239977601},{"NoteNumber":77,"Velocity":49,"Duration":312035,"SoundDuration":312035,"Delta":239977601},{"NoteNumber":45,"Velocity":47,"Duration":104199,"SoundDuration":104199,"Delta":239977601},{"NoteNumber":48,"Velocity":45,"Duration":103917,"SoundDuration":103917,"Delta":240185719},{"NoteNumber":53,"Velocity":45,"Duration":103917,"SoundDuration":103917,"Delta":240393554},{"NoteNumber":70,"Velocity":45,"Duration":623972,"SoundDuration":623972,"Delta":240601389},{"NoteNumber":74,"Velocity":45,"Duration":623972,"SoundDuration":623972,"Delta":240601389},{"NoteNumber":77,"Velocity":53,"Duration":623972,"SoundDuration":623972,"Delta":240601389},{"NoteNumber":53,"Velocity":47,"Duration":213675,"SoundDuration":213675,"Delta":240601389},{"NoteNumber":62,"Velocity":44,"Duration":207990,"SoundDuration":207990,"Delta":240815065},{"NoteNumber":58,"Velocity":44,"Duration":101153,"SoundDuration":101153,"Delta":241023056},{"NoteNumber":53,"Velocity":47,"Duration":101153,"SoundDuration":101153,"Delta":241225362},{"NoteNumber":50,"Velocity":43,"Duration":101153,"SoundDuration":101153,"Delta":241427668},{"NoteNumber":46,"Velocity":41,"Duration":101153,"SoundDuration":101153,"Delta":241629975},{"NoteNumber":70,"Velocity":40,"Duration":306716,"SoundDuration":306716,"Delta":241832281},{"NoteNumber":74,"Velocity":40,"Duration":306716,"SoundDuration":306716,"Delta":241832281},{"NoteNumber":77,"Velocity":49,"Duration":306716,"SoundDuration":306716,"Delta":241832281},{"NoteNumber":41,"Velocity":45,"Duration":102238,"SoundDuration":102238,"Delta":241832281},{"NoteNumber":46,"Velocity":41,"Duration":102238,"SoundDuration":102238,"Delta":242036759},{"NoteNumber":50,"Velocity":41,"Duration":102238,"SoundDuration":102238,"Delta":242241237},{"NoteNumber":74,"Velocity":40,"Duration":311753,"SoundDuration":311753,"Delta":242445715},{"NoteNumber":77,"Velocity":49,"Duration":311753,"SoundDuration":311753,"Delta":242445715},{"NoteNumber":46,"Velocity":47,"Duration":103917,"SoundDuration":103917,"Delta":242445715},{"NoteNumber":50,"Velocity":45,"Duration":103917,"SoundDuration":103917,"Delta":242653550},{"NoteNumber":53,"Velocity":45,"Duration":103917,"SoundDuration":103917,"Delta":242861386},{"NoteNumber":69,"Velocity":45,"Duration":629475,"SoundDuration":629475,"Delta":243069221},{"NoteNumber":72,"Velocity":45,"Duration":629475,"SoundDuration":629475,"Delta":243069221},{"NoteNumber":77,"Velocity":53,"Duration":629475,"SoundDuration":629475,"Delta":243069221},{"NoteNumber":53,"Velocity":47,"Duration":217343,"SoundDuration":217343,"Delta":243069221},{"NoteNumber":65,"Velocity":44,"Duration":209825,"SoundDuration":209825,"Delta":243286565},{"NoteNumber":60,"Velocity":44,"Duration":101153,"SoundDuration":101153,"Delta":243496390},{"NoteNumber":57,"Velocity":47,"Duration":101153,"SoundDuration":101153,"Delta":243698696},{"NoteNumber":53,"Velocity":43,"Duration":101153,"SoundDuration":101153,"Delta":243901003},{"NoteNumber":48,"Velocity":41,"Duration":101153,"SoundDuration":101153,"Delta":244103309},{"NoteNumber":72,"Velocity":44,"Duration":308388,"SoundDuration":308388,"Delta":244305615},{"NoteNumber":77,"Velocity":44,"Duration":308388,"SoundDuration":308388,"Delta":244305615},{"NoteNumber":81,"Velocity":53,"Duration":308388,"SoundDuration":308388,"Delta":244305615},{"NoteNumber":45,"Velocity":45,"Duration":102796,"SoundDuration":102796,"Delta":244305615},{"NoteNumber":41,"Velocity":41,"Duration":102796,"SoundDuration":102796,"Delta":244511207},{"NoteNumber":36,"Velocity":41,"Duration":102796,"SoundDuration":102796,"Delta":244716799},{"NoteNumber":72,"Velocity":44,"Duration":313446,"SoundDuration":313446,"Delta":244922391},{"NoteNumber":81,"Velocity":44,"Duration":313446,"SoundDuration":313446,"Delta":244922391},{"NoteNumber":84,"Velocity":53,"Duration":313446,"SoundDuration":313446,"Delta":244922391},{"NoteNumber":41,"Velocity":47,"Duration":104482,"SoundDuration":104482,"Delta":244922391},{"NoteNumber":45,"Velocity":45,"Duration":104482,"SoundDuration":104482,"Delta":245131356},{"NoteNumber":48,"Velocity":45,"Duration":104482,"SoundDuration":104482,"Delta":245340321},{"NoteNumber":84,"Velocity":56,"Duration":205591,"SoundDuration":205591,"Delta":245549285},{"NoteNumber":48,"Velocity":29,"Duration":308388,"SoundDuration":308388,"Delta":245549285},{"NoteNumber":57,"Velocity":29,"Duration":308388,"SoundDuration":308388,"Delta":245549285},{"NoteNumber":60,"Velocity":35,"Duration":308388,"SoundDuration":308388,"Delta":245549285},{"NoteNumber":89,"Velocity":51,"Duration":205591,"SoundDuration":205591,"Delta":245754877},{"NoteNumber":89,"Velocity":51,"Duration":102796,"SoundDuration":102796,"Delta":245960469},{"NoteNumber":86,"Velocity":56,"Duration":205592,"SoundDuration":205592,"Delta":246166061},{"NoteNumber":60,"Velocity":28,"Duration":308388,"SoundDuration":308388,"Delta":246166061},{"NoteNumber":74,"Velocity":34,"Duration":308388,"SoundDuration":308388,"Delta":246166061},{"NoteNumber":70,"Velocity":28,"Duration":308388,"SoundDuration":308388,"Delta":246166061},{"NoteNumber":91,"Velocity":52,"Duration":205591,"SoundDuration":205591,"Delta":246371653},{"NoteNumber":91,"Velocity":52,"Duration":102795,"SoundDuration":102795,"Delta":246577245},{"NoteNumber":84,"Velocity":56,"Duration":205591,"SoundDuration":205591,"Delta":246782837},{"NoteNumber":60,"Velocity":28,"Duration":308388,"SoundDuration":308388,"Delta":246782837},{"NoteNumber":69,"Velocity":28,"Duration":308388,"SoundDuration":308388,"Delta":246782837},{"NoteNumber":72,"Velocity":33,"Duration":308388,"SoundDuration":308388,"Delta":246782837},{"NoteNumber":89,"Velocity":51,"Duration":205591,"SoundDuration":205591,"Delta":246988429},{"NoteNumber":89,"Velocity":51,"Duration":102796,"SoundDuration":102796,"Delta":247194021},{"NoteNumber":84,"Velocity":56,"Duration":205591,"SoundDuration":205591,"Delta":247399613},{"NoteNumber":60,"Velocity":28,"Duration":308388,"SoundDuration":308388,"Delta":247399613},{"NoteNumber":67,"Velocity":28,"Duration":308388,"SoundDuration":308388,"Delta":247399613},{"NoteNumber":70,"Velocity":34,"Duration":308388,"SoundDuration":308388,"Delta":247399613},{"NoteNumber":88,"Velocity":51,"Duration":205592,"SoundDuration":205592,"Delta":247605205},{"NoteNumber":88,"Velocity":51,"Duration":102795,"SoundDuration":102795,"Delta":247810797},{"NoteNumber":84,"Velocity":56,"Duration":208964,"SoundDuration":208964,"Delta":248016389},{"NoteNumber":60,"Velocity":29,"Duration":313446,"SoundDuration":313446,"Delta":248016389},{"NoteNumber":66,"Velocity":29,"Duration":313446,"SoundDuration":313446,"Delta":248016389},{"NoteNumber":69,"Velocity":35,"Duration":313446,"SoundDuration":313446,"Delta":248016389},{"NoteNumber":87,"Velocity":51,"Duration":208964,"SoundDuration":208964,"Delta":248225354},{"NoteNumber":87,"Velocity":51,"Duration":104482,"SoundDuration":104482,"Delta":248434319},{"NoteNumber":84,"Velocity":57,"Duration":208964,"SoundDuration":208964,"Delta":248643283},{"NoteNumber":60,"Velocity":28,"Duration":313446,"SoundDuration":313446,"Delta":248643283},{"NoteNumber":69,"Velocity":35,"Duration":313446,"SoundDuration":313446,"Delta":248643283},{"NoteNumber":66,"Velocity":28,"Duration":313446,"SoundDuration":313446,"Delta":248643283},{"NoteNumber":86,"Velocity":55,"Duration":208964,"SoundDuration":208964,"Delta":248852248},{"NoteNumber":86,"Velocity":55,"Duration":104482,"SoundDuration":104482,"Delta":249061213},{"NoteNumber":78,"Velocity":58,"Duration":208964,"SoundDuration":208964,"Delta":249270177},{"NoteNumber":81,"Velocity":58,"Duration":208964,"SoundDuration":208964,"Delta":249270177},{"NoteNumber":60,"Velocity":29,"Duration":313447,"SoundDuration":313447,"Delta":249270177},{"NoteNumber":66,"Velocity":29,"Duration":313447,"SoundDuration":313447,"Delta":249270177},{"NoteNumber":69,"Velocity":35,"Duration":313447,"SoundDuration":313447,"Delta":249270177},{"NoteNumber":87,"Velocity":53,"Duration":208964,"SoundDuration":208964,"Delta":249479142},{"NoteNumber":87,"Velocity":53,"Duration":104482,"SoundDuration":104482,"Delta":249688107},{"NoteNumber":78,"Velocity":48,"Duration":208964,"SoundDuration":208964,"Delta":249897071},{"NoteNumber":81,"Velocity":57,"Duration":208964,"SoundDuration":208964,"Delta":249897071},{"NoteNumber":60,"Velocity":31,"Duration":313446,"SoundDuration":313446,"Delta":249897071},{"NoteNumber":66,"Velocity":31,"Duration":313446,"SoundDuration":313446,"Delta":249897071},{"NoteNumber":69,"Velocity":37,"Duration":313446,"SoundDuration":313446,"Delta":249897071},{"NoteNumber":86,"Velocity":54,"Duration":208964,"SoundDuration":208964,"Delta":250106036},{"NoteNumber":86,"Velocity":54,"Duration":104482,"SoundDuration":104482,"Delta":250315001},{"NoteNumber":77,"Velocity":48,"Duration":209853,"SoundDuration":209853,"Delta":250523965},{"NoteNumber":82,"Velocity":57,"Duration":209853,"SoundDuration":209853,"Delta":250523965},{"NoteNumber":58,"Velocity":33,"Duration":314929,"SoundDuration":314929,"Delta":250523965},{"NoteNumber":65,"Velocity":33,"Duration":314929,"SoundDuration":314929,"Delta":250523965},{"NoteNumber":70,"Velocity":40,"Duration":314929,"SoundDuration":314929,"Delta":250523965},{"NoteNumber":87,"Velocity":52,"Duration":210150,"SoundDuration":210150,"Delta":250733819},{"NoteNumber":87,"Velocity":52,"Duration":105363,"SoundDuration":105363,"Delta":250943970},{"NoteNumber":77,"Velocity":48,"Duration":211304,"SoundDuration":211304,"Delta":251154986},{"NoteNumber":82,"Velocity":57,"Duration":211304,"SoundDuration":211304,"Delta":251154986},{"NoteNumber":58,"Velocity":31,"Duration":317540,"SoundDuration":317540,"Delta":251154986},{"NoteNumber":70,"Velocity":38,"Duration":317540,"SoundDuration":317540,"Delta":251154986},{"NoteNumber":65,"Velocity":31,"Duration":317540,"SoundDuration":317540,"Delta":251154986},{"NoteNumber":86,"Velocity":53,"Duration":212471,"SoundDuration":212471,"Delta":251366290},{"NoteNumber":86,"Velocity":52,"Duration":106235,"SoundDuration":106235,"Delta":251578762},{"NoteNumber":77,"Velocity":48,"Duration":213675,"SoundDuration":213675,"Delta":251791234},{"NoteNumber":81,"Velocity":57,"Duration":213675,"SoundDuration":213675,"Delta":251791234},{"NoteNumber":60,"Velocity":31,"Duration":320513,"SoundDuration":320513,"Delta":251791234},{"NoteNumber":65,"Velocity":31,"Duration":320513,"SoundDuration":320513,"Delta":251791234},{"NoteNumber":69,"Velocity":37,"Duration":320513,"SoundDuration":320513,"Delta":251791234},{"NoteNumber":84,"Velocity":53,"Duration":213979,"SoundDuration":213979,"Delta":252004910},{"NoteNumber":84,"Velocity":49,"Duration":107446,"SoundDuration":107446,"Delta":252218889},{"NoteNumber":76,"Velocity":45,"Duration":215193,"SoundDuration":215193,"Delta":252433781},{"NoteNumber":79,"Velocity":54,"Duration":215193,"SoundDuration":215193,"Delta":252433781},{"NoteNumber":60,"Velocity":31,"Duration":323243,"SoundDuration":323243,"Delta":252433781},{"NoteNumber":67,"Velocity":31,"Duration":323243,"SoundDuration":323243,"Delta":252433781},{"NoteNumber":70,"Velocity":38,"Duration":323243,"SoundDuration":323243,"Delta":252433781},{"NoteNumber":84,"Velocity":48,"Duration":216099,"SoundDuration":216099,"Delta":252648975},{"NoteNumber":84,"Velocity":48,"Duration":108049,"SoundDuration":108049,"Delta":252865074},{"NoteNumber":70,"Velocity":45,"Duration":216099,"SoundDuration":216099,"Delta":253081796},{"NoteNumber":46,"Velocity":26,"Duration":324149,"SoundDuration":324149,"Delta":253081796},{"NoteNumber":52,"Velocity":26,"Duration":324149,"SoundDuration":324149,"Delta":253081796},{"NoteNumber":55,"Velocity":31,"Duration":324149,"SoundDuration":324149,"Delta":253081796},{"NoteNumber":73,"Velocity":42,"Duration":216099,"SoundDuration":216099,"Delta":253297895},{"NoteNumber":73,"Velocity":42,"Duration":108049,"SoundDuration":108049,"Delta":253513995},{"NoteNumber":70,"Velocity":46,"Duration":216099,"SoundDuration":216099,"Delta":253730094},{"NoteNumber":46,"Velocity":25,"Duration":324148,"SoundDuration":324148,"Delta":253730094},{"NoteNumber":55,"Velocity":31,"Duration":324148,"SoundDuration":324148,"Delta":253730094},{"NoteNumber":52,"Velocity":25,"Duration":324148,"SoundDuration":324148,"Delta":253730094},{"NoteNumber":72,"Velocity":45,"Duration":216099,"SoundDuration":216099,"Delta":253946193},{"NoteNumber":72,"Velocity":45,"Duration":108049,"SoundDuration":108049,"Delta":254162293},{"NoteNumber":64,"Velocity":41,"Duration":216099,"SoundDuration":216099,"Delta":254378392},{"NoteNumber":67,"Velocity":48,"Duration":216099,"SoundDuration":216099,"Delta":254378392},{"NoteNumber":46,"Velocity":26,"Duration":324149,"SoundDuration":324149,"Delta":254378392},{"NoteNumber":52,"Velocity":26,"Duration":324149,"SoundDuration":324149,"Delta":254378392},{"NoteNumber":55,"Velocity":31,"Duration":324149,"SoundDuration":324149,"Delta":254378392},{"NoteNumber":73,"Velocity":45,"Duration":216099,"SoundDuration":216099,"Delta":254594491},{"NoteNumber":73,"Velocity":45,"Duration":108049,"SoundDuration":108049,"Delta":254810591},{"NoteNumber":64,"Velocity":42,"Duration":216099,"SoundDuration":216099,"Delta":255026690},{"NoteNumber":67,"Velocity":50,"Duration":216099,"SoundDuration":216099,"Delta":255026690},{"NoteNumber":46,"Velocity":27,"Duration":324149,"SoundDuration":324149,"Delta":255026690},{"NoteNumber":52,"Velocity":27,"Duration":324149,"SoundDuration":324149,"Delta":255026690},{"NoteNumber":55,"Velocity":33,"Duration":324149,"SoundDuration":324149,"Delta":255026690},{"NoteNumber":72,"Velocity":46,"Duration":216099,"SoundDuration":216099,"Delta":255242789},{"NoteNumber":72,"Velocity":47,"Duration":108049,"SoundDuration":108049,"Delta":255458889},{"NoteNumber":63,"Velocity":44,"Duration":216099,"SoundDuration":216099,"Delta":255674988},{"NoteNumber":68,"Velocity":52,"Duration":216099,"SoundDuration":216099,"Delta":255674988},{"NoteNumber":44,"Velocity":29,"Duration":324149,"SoundDuration":324149,"Delta":255674988},{"NoteNumber":51,"Velocity":29,"Duration":324149,"SoundDuration":324149,"Delta":255674988},{"NoteNumber":56,"Velocity":36,"Duration":324149,"SoundDuration":324149,"Delta":255674988},{"NoteNumber":73,"Velocity":48,"Duration":216721,"SoundDuration":216721,"Delta":255891087},{"NoteNumber":73,"Velocity":48,"Duration":108672,"SoundDuration":108672,"Delta":256107809},{"NoteNumber":63,"Velocity":44,"Duration":218579,"SoundDuration":218579,"Delta":256325462},{"NoteNumber":68,"Velocity":52,"Duration":218579,"SoundDuration":218579,"Delta":256325462},{"NoteNumber":44,"Velocity":27,"Duration":328517,"SoundDuration":328517,"Delta":256325462},{"NoteNumber":56,"Velocity":34,"Duration":328517,"SoundDuration":328517,"Delta":256325462},{"NoteNumber":51,"Velocity":27,"Duration":328517,"SoundDuration":328517,"Delta":256325462},{"NoteNumber":72,"Velocity":48,"Duration":219876,"SoundDuration":219876,"Delta":256544041},{"NoteNumber":72,"Velocity":48,"Duration":110570,"SoundDuration":110570,"Delta":256763918},{"NoteNumber":63,"Velocity":43,"Duration":222100,"SoundDuration":222100,"Delta":256985059},{"NoteNumber":67,"Velocity":51,"Duration":222100,"SoundDuration":222100,"Delta":256985059},{"NoteNumber":46,"Velocity":27,"Duration":333310,"SoundDuration":333310,"Delta":256985059},{"NoteNumber":51,"Velocity":27,"Duration":333310,"SoundDuration":333310,"Delta":256985059},{"NoteNumber":55,"Velocity":33,"Duration":333310,"SoundDuration":333310,"Delta":256985059},{"NoteNumber":70,"Velocity":47,"Duration":223079,"SoundDuration":223079,"Delta":257207160},{"NoteNumber":70,"Velocity":46,"Duration":111869,"SoundDuration":111869,"Delta":257430239},{"NoteNumber":62,"Velocity":43,"Duration":225385,"SoundDuration":225385,"Delta":257654632},{"NoteNumber":65,"Velocity":51,"Duration":225385,"SoundDuration":225385,"Delta":257654632},{"NoteNumber":46,"Velocity":27,"Duration":338584,"SoundDuration":338584,"Delta":257654632},{"NoteNumber":53,"Velocity":27,"Duration":338584,"SoundDuration":338584,"Delta":257654632},{"NoteNumber":56,"Velocity":34,"Duration":338584,"SoundDuration":338584,"Delta":257654632},{"NoteNumber":70,"Velocity":46,"Duration":226398,"SoundDuration":226398,"Delta":257880017},{"NoteNumber":70,"Velocity":46,"Duration":113882,"SoundDuration":113882,"Delta":258106415},{"NoteNumber":73,"Velocity":41,"Duration":216099,"SoundDuration":216099,"Delta":259638244},{"NoteNumber":78,"Velocity":48,"Duration":216099,"SoundDuration":216099,"Delta":259638244},{"NoteNumber":66,"Velocity":31,"Duration":324148,"SoundDuration":324148,"Delta":259638244},{"NoteNumber":82,"Velocity":45,"Duration":216099,"SoundDuration":216099,"Delta":259854343},{"NoteNumber":82,"Velocity":45,"Duration":108049,"SoundDuration":108049,"Delta":260070442},{"NoteNumber":73,"Velocity":41,"Duration":216099,"SoundDuration":216099,"Delta":260286542},{"NoteNumber":78,"Velocity":49,"Duration":216099,"SoundDuration":216099,"Delta":260286542},{"NoteNumber":63,"Velocity":33,"Duration":324148,"SoundDuration":324148,"Delta":260286542},{"NoteNumber":81,"Velocity":44,"Duration":216099,"SoundDuration":216099,"Delta":260502641},{"NoteNumber":81,"Velocity":44,"Duration":108049,"SoundDuration":108049,"Delta":260718740},{"NoteNumber":73,"Velocity":42,"Duration":216099,"SoundDuration":216099,"Delta":260934840},{"NoteNumber":77,"Velocity":50,"Duration":216099,"SoundDuration":216099,"Delta":260934840},{"NoteNumber":68,"Velocity":33,"Duration":324148,"SoundDuration":324148,"Delta":260934840},{"NoteNumber":80,"Velocity":46,"Duration":216721,"SoundDuration":216721,"Delta":261150939},{"NoteNumber":80,"Velocity":46,"Duration":108672,"SoundDuration":108672,"Delta":261367661},{"NoteNumber":72,"Velocity":40,"Duration":218579,"SoundDuration":218579,"Delta":261585313},{"NoteNumber":75,"Velocity":48,"Duration":218579,"SoundDuration":218579,"Delta":261585313},{"NoteNumber":68,"Velocity":31,"Duration":328517,"SoundDuration":328517,"Delta":261585313},{"NoteNumber":80,"Velocity":44,"Duration":219876,"SoundDuration":219876,"Delta":261803893},{"NoteNumber":80,"Velocity":44,"Duration":110570,"SoundDuration":110570,"Delta":262023770},{"NoteNumber":61,"Velocity":37,"Duration":219876,"SoundDuration":219876,"Delta":262908334},{"NoteNumber":64,"Velocity":44,"Duration":219876,"SoundDuration":219876,"Delta":262908334},{"NoteNumber":44,"Velocity":29,"Duration":329815,"SoundDuration":329815,"Delta":262908334},{"NoteNumber":68,"Velocity":39,"Duration":219876,"SoundDuration":219876,"Delta":263128211},{"NoteNumber":68,"Velocity":39,"Duration":109938,"SoundDuration":109938,"Delta":263348088},{"NoteNumber":60,"Velocity":38,"Duration":225047,"SoundDuration":225047,"Delta":263567965},{"NoteNumber":63,"Velocity":45,"Duration":225047,"SoundDuration":225047,"Delta":263567965},{"NoteNumber":44,"Velocity":29,"Duration":337571,"SoundDuration":337571,"Delta":263567965},{"NoteNumber":68,"Velocity":41,"Duration":225047,"SoundDuration":225047,"Delta":263793012},{"NoteNumber":68,"Velocity":41,"Duration":112523,"SoundDuration":112523,"Delta":264018060},{"NoteNumber":60,"Velocity":33,"Duration":229121,"SoundDuration":229121,"Delta":264918251},{"NoteNumber":63,"Velocity":39,"Duration":229121,"SoundDuration":229121,"Delta":264918251},{"NoteNumber":45,"Velocity":26,"Duration":343682,"SoundDuration":343682,"Delta":264918251},{"NoteNumber":66,"Velocity":35,"Duration":229121,"SoundDuration":229121,"Delta":265147372},{"NoteNumber":66,"Velocity":35,"Duration":114560,"SoundDuration":114560,"Delta":265376493},{"NoteNumber":60,"Velocity":34,"Duration":248570,"SoundDuration":248570,"Delta":265605615},{"NoteNumber":63,"Velocity":40,"Duration":248570,"SoundDuration":248570,"Delta":265605615},{"NoteNumber":45,"Velocity":26,"Duration":372856,"SoundDuration":372856,"Delta":265605615},{"NoteNumber":65,"Velocity":36,"Duration":248570,"SoundDuration":248570,"Delta":265854185},{"NoteNumber":65,"Velocity":36,"Duration":124285,"SoundDuration":124285,"Delta":266102756},{"NoteNumber":72,"Velocity":40,"Duration":221140,"SoundDuration":221140,"Delta":267042810},{"NoteNumber":75,"Velocity":40,"Duration":221140,"SoundDuration":221140,"Delta":267042810},{"NoteNumber":57,"Velocity":26,"Duration":331711,"SoundDuration":331711,"Delta":267042810},{"NoteNumber":77,"Velocity":36,"Duration":221140,"SoundDuration":221140,"Delta":267263951},{"NoteNumber":77,"Velocity":36,"Duration":110570,"SoundDuration":110570,"Delta":267485092},{"NoteNumber":70,"Velocity":45,"Duration":221140,"SoundDuration":221140,"Delta":267706233},{"NoteNumber":75,"Velocity":45,"Duration":221140,"SoundDuration":221140,"Delta":267706233},{"NoteNumber":58,"Velocity":27,"Duration":331711,"SoundDuration":331711,"Delta":267706233},{"NoteNumber":79,"Velocity":37,"Duration":221140,"SoundDuration":221140,"Delta":267927374},{"NoteNumber":79,"Velocity":37,"Duration":110570,"SoundDuration":110570,"Delta":268148515},{"NoteNumber":70,"Velocity":45,"Duration":221140,"SoundDuration":221140,"Delta":268369656},{"NoteNumber":74,"Velocity":45,"Duration":221140,"SoundDuration":221140,"Delta":268369656},{"NoteNumber":46,"Velocity":30,"Duration":331711,"SoundDuration":331711,"Delta":268369656},{"NoteNumber":77,"Velocity":39,"Duration":221141,"SoundDuration":221141,"Delta":268590797},{"NoteNumber":77,"Velocity":39,"Duration":116672,"SoundDuration":116672,"Delta":268811938},{"NoteNumber":58,"Velocity":39,"Duration":223738,"SoundDuration":223738,"Delta":269045283},{"NoteNumber":62,"Velocity":47,"Duration":223738,"SoundDuration":223738,"Delta":269045283},{"NoteNumber":48,"Velocity":33,"Duration":335607,"SoundDuration":335607,"Delta":269045283},{"NoteNumber":65,"Velocity":40,"Duration":223738,"SoundDuration":223738,"Delta":269269021},{"NoteNumber":65,"Velocity":40,"Duration":112523,"SoundDuration":112523,"Delta":269492760},{"NoteNumber":57,"Velocity":43,"Duration":225047,"SoundDuration":225047,"Delta":269717808},{"NoteNumber":60,"Velocity":51,"Duration":225047,"SoundDuration":225047,"Delta":269717808},{"NoteNumber":48,"Velocity":35,"Duration":338246,"SoundDuration":338246,"Delta":269717808},{"NoteNumber":65,"Velocity":46,"Duration":226398,"SoundDuration":226398,"Delta":269942855},{"NoteNumber":65,"Velocity":46,"Duration":121124,"SoundDuration":121124,"Delta":270169253},{"NoteNumber":60,"Velocity":49,"Duration":229464,"SoundDuration":229464,"Delta":270407881},{"NoteNumber":65,"Velocity":58,"Duration":229464,"SoundDuration":229464,"Delta":270407881},{"NoteNumber":58,"Velocity":41,"Duration":345072,"SoundDuration":345072,"Delta":270407881},{"NoteNumber":55,"Velocity":35,"Duration":345072,"SoundDuration":345072,"Delta":270407881},{"NoteNumber":48,"Velocity":35,"Duration":345072,"SoundDuration":345072,"Delta":270407881},{"NoteNumber":72,"Velocity":50,"Duration":231577,"SoundDuration":231577,"Delta":270637345},{"NoteNumber":72,"Velocity":50,"Duration":116672,"SoundDuration":116672,"Delta":270868922},{"NoteNumber":60,"Velocity":50,"Duration":236243,"SoundDuration":236243,"Delta":271102979},{"NoteNumber":64,"Velocity":60,"Duration":236243,"SoundDuration":236243,"Delta":271102979},{"NoteNumber":48,"Velocity":36,"Duration":355477,"SoundDuration":355477,"Delta":271102979},{"NoteNumber":55,"Velocity":36,"Duration":355477,"SoundDuration":355477,"Delta":271102979},{"NoteNumber":58,"Velocity":42,"Duration":355477,"SoundDuration":355477,"Delta":271102979},{"NoteNumber":72,"Velocity":53,"Duration":238836,"SoundDuration":238836,"Delta":271339223},{"NoteNumber":72,"Velocity":53,"Duration":129382,"SoundDuration":129382,"Delta":271578059},{"NoteNumber":57,"Velocity":58,"Duration":178295,"SoundDuration":178295,"Delta":271836825},{"NoteNumber":60,"Velocity":58,"Duration":178295,"SoundDuration":178295,"Delta":271836825},{"NoteNumber":65,"Velocity":58,"Duration":178295,"SoundDuration":178295,"Delta":271836825},{"NoteNumber":41,"Velocity":36,"Duration":178295,"SoundDuration":178295,"Delta":271836825},{"NoteNumber":53,"Velocity":42,"Duration":178295,"SoundDuration":178295,"Delta":271836825},{"NoteNumber":60,"Velocity":47,"Duration":237727,"SoundDuration":237727,"Delta":272074552},{"NoteNumber":57,"Velocity":47,"Duration":237727,"SoundDuration":237727,"Delta":272312280},{"NoteNumber":60,"Velocity":47,"Duration":237727,"SoundDuration":237727,"Delta":272550007},{"NoteNumber":65,"Velocity":51,"Duration":237727,"SoundDuration":237727,"Delta":272787734},{"NoteNumber":69,"Velocity":55,"Duration":237727,"SoundDuration":237727,"Delta":273025462},{"NoteNumber":72,"Velocity":68,"Duration":1024939,"SoundDuration":1024939,"Delta":273263189},{"NoteNumber":57,"Velocity":36,"Duration":1024939,"SoundDuration":1024939,"Delta":273263189},{"NoteNumber":60,"Velocity":44,"Duration":1393037,"SoundDuration":1393037,"Delta":273263189},{"NoteNumber":62,"Velocity":48,"Duration":341646,"SoundDuration":341646,"Delta":273946482},{"NoteNumber":64,"Velocity":45,"Duration":368097,"SoundDuration":368097,"Delta":274288129},{"NoteNumber":70,"Velocity":54,"Duration":368097,"SoundDuration":368097,"Delta":274288129},{"NoteNumber":55,"Velocity":30,"Duration":368097,"SoundDuration":368097,"Delta":274288129},{"NoteNumber":58,"Velocity":36,"Duration":368097,"SoundDuration":368097,"Delta":274288129},{"NoteNumber":60,"Velocity":47,"Duration":695813,"SoundDuration":695813,"Delta":274656227},{"NoteNumber":65,"Velocity":47,"Duration":695813,"SoundDuration":695813,"Delta":274656227},{"NoteNumber":69,"Velocity":56,"Duration":695813,"SoundDuration":695813,"Delta":274656227},{"NoteNumber":53,"Velocity":36,"Duration":695813,"SoundDuration":695813,"Delta":274656227},{"NoteNumber":57,"Velocity":44,"Duration":695813,"SoundDuration":695813,"Delta":274656227},{"NoteNumber":61,"Velocity":52,"Duration":695814,"SoundDuration":695814,"Delta":275352041},{"NoteNumber":67,"Velocity":52,"Duration":695814,"SoundDuration":695814,"Delta":275352041},{"NoteNumber":69,"Velocity":62,"Duration":695814,"SoundDuration":695814,"Delta":275352041},{"NoteNumber":51,"Velocity":38,"Duration":695814,"SoundDuration":695814,"Delta":275352041},{"NoteNumber":57,"Velocity":45,"Duration":695814,"SoundDuration":695814,"Delta":275352041},{"NoteNumber":62,"Velocity":54,"Duration":695813,"SoundDuration":695813,"Delta":276047855},{"NoteNumber":60,"Velocity":54,"Duration":695813,"SoundDuration":695813,"Delta":276047855},{"NoteNumber":66,"Velocity":54,"Duration":695813,"SoundDuration":695813,"Delta":276047855},{"NoteNumber":69,"Velocity":64,"Duration":695813,"SoundDuration":695813,"Delta":276047855},{"NoteNumber":50,"Velocity":40,"Duration":695813,"SoundDuration":695813,"Delta":276047855},{"NoteNumber":57,"Velocity":48,"Duration":695813,"SoundDuration":695813,"Delta":276047855},{"NoteNumber":70,"Velocity":65,"Duration":531955,"SoundDuration":531955,"Delta":276743669},{"NoteNumber":58,"Velocity":55,"Duration":716004,"SoundDuration":716004,"Delta":276743669},{"NoteNumber":62,"Velocity":55,"Duration":716004,"SoundDuration":716004,"Delta":276743669},{"NoteNumber":67,"Velocity":55,"Duration":716004,"SoundDuration":716004,"Delta":276743669},{"NoteNumber":43,"Velocity":37,"Duration":716004,"SoundDuration":716004,"Delta":276743669},{"NoteNumber":50,"Velocity":37,"Duration":716004,"SoundDuration":716004,"Delta":276743669},{"NoteNumber":55,"Velocity":44,"Duration":716004,"SoundDuration":716004,"Delta":276743669},{"NoteNumber":69,"Velocity":55,"Duration":184048,"SoundDuration":184048,"Delta":277275625},{"NoteNumber":60,"Velocity":44,"Duration":1553132,"SoundDuration":1553132,"Delta":277459674},{"NoteNumber":64,"Velocity":44,"Duration":1374728,"SoundDuration":1374728,"Delta":277459674},{"NoteNumber":67,"Velocity":52,"Duration":1031046,"SoundDuration":1031046,"Delta":277459674},{"NoteNumber":48,"Velocity":41,"Duration":1374728,"SoundDuration":1374728,"Delta":277459674},{"NoteNumber":58,"Velocity":49,"Duration":1374728,"SoundDuration":1374728,"Delta":277459674},{"NoteNumber":68,"Velocity":47,"Duration":343682,"SoundDuration":343682,"Delta":278490720},{"NoteNumber":65,"Velocity":43,"Duration":178404,"SoundDuration":178404,"Delta":278834402},{"NoteNumber":69,"Velocity":51,"Duration":178404,"SoundDuration":178404,"Delta":278834402},{"NoteNumber":53,"Velocity":32,"Duration":178404,"SoundDuration":178404,"Delta":278834402},{"NoteNumber":57,"Velocity":38,"Duration":178404,"SoundDuration":178404,"Delta":278834402},{"NoteNumber":60,"Velocity":39,"Duration":181686,"SoundDuration":181686,"Delta":279557864},{"NoteNumber":65,"Velocity":39,"Duration":181686,"SoundDuration":181686,"Delta":279557864},{"NoteNumber":69,"Velocity":46,"Duration":181686,"SoundDuration":181686,"Delta":279557864},{"NoteNumber":53,"Velocity":28,"Duration":181686,"SoundDuration":181686,"Delta":279557864},{"NoteNumber":57,"Velocity":34,"Duration":181686,"SoundDuration":181686,"Delta":279557864},{"NoteNumber":48,"Velocity":47,"Duration":237727,"SoundDuration":237727,"Delta":280522335},{"NoteNumber":45,"Velocity":47,"Duration":237727,"SoundDuration":237727,"Delta":280760063},{"NoteNumber":48,"Velocity":47,"Duration":237727,"SoundDuration":237727,"Delta":280997790},{"NoteNumber":53,"Velocity":51,"Duration":237727,"SoundDuration":237727,"Delta":281235517},{"NoteNumber":57,"Velocity":55,"Duration":237727,"SoundDuration":237727,"Delta":281473244},{"NoteNumber":60,"Velocity":65,"Duration":1024939,"SoundDuration":1024939,"Delta":281710972},{"NoteNumber":45,"Velocity":35,"Duration":1024939,"SoundDuration":1024939,"Delta":281710972},{"NoteNumber":48,"Velocity":42,"Duration":337375,"SoundDuration":337375,"Delta":281710972},{"NoteNumber":48,"Velocity":46,"Duration":683292,"SoundDuration":683292,"Delta":282052618},{"NoteNumber":50,"Velocity":48,"Duration":341646,"SoundDuration":341646,"Delta":282394265},{"NoteNumber":48,"Velocity":45,"Duration":368097,"SoundDuration":368097,"Delta":282735911},{"NoteNumber":52,"Velocity":45,"Duration":368097,"SoundDuration":368097,"Delta":282735911},{"NoteNumber":58,"Velocity":54,"Duration":368097,"SoundDuration":368097,"Delta":282735911},{"NoteNumber":43,"Velocity":30,"Duration":368097,"SoundDuration":368097,"Delta":282735911},{"NoteNumber":46,"Velocity":36,"Duration":368097,"SoundDuration":368097,"Delta":282735911},{"NoteNumber":48,"Velocity":47,"Duration":695813,"SoundDuration":695813,"Delta":283104009},{"NoteNumber":53,"Velocity":47,"Duration":695813,"SoundDuration":695813,"Delta":283104009},{"NoteNumber":57,"Velocity":56,"Duration":695813,"SoundDuration":695813,"Delta":283104009},{"NoteNumber":41,"Velocity":36,"Duration":695813,"SoundDuration":695813,"Delta":283104009},{"NoteNumber":45,"Velocity":44,"Duration":695813,"SoundDuration":695813,"Delta":283104009},{"NoteNumber":49,"Velocity":52,"Duration":695814,"SoundDuration":695814,"Delta":283799823},{"NoteNumber":55,"Velocity":52,"Duration":695814,"SoundDuration":695814,"Delta":283799823},{"NoteNumber":57,"Velocity":62,"Duration":695814,"SoundDuration":695814,"Delta":283799823},{"NoteNumber":39,"Velocity":38,"Duration":695814,"SoundDuration":695814,"Delta":283799823},{"NoteNumber":45,"Velocity":45,"Duration":695814,"SoundDuration":695814,"Delta":283799823},{"NoteNumber":50,"Velocity":54,"Duration":695813,"SoundDuration":695813,"Delta":284495637},{"NoteNumber":48,"Velocity":54,"Duration":695813,"SoundDuration":695813,"Delta":284495637},{"NoteNumber":54,"Velocity":54,"Duration":695813,"SoundDuration":695813,"Delta":284495637},{"NoteNumber":57,"Velocity":64,"Duration":695813,"SoundDuration":695813,"Delta":284495637},{"NoteNumber":38,"Velocity":40,"Duration":695813,"SoundDuration":695813,"Delta":284495637},{"NoteNumber":45,"Velocity":48,"Duration":695813,"SoundDuration":695813,"Delta":284495637},{"NoteNumber":58,"Velocity":71,"Duration":347906,"SoundDuration":347906,"Delta":285191451},{"NoteNumber":46,"Velocity":60,"Duration":347906,"SoundDuration":347906,"Delta":285191451},{"NoteNumber":50,"Velocity":60,"Duration":347906,"SoundDuration":347906,"Delta":285191451},{"NoteNumber":55,"Velocity":60,"Duration":347906,"SoundDuration":347906,"Delta":285191451},{"NoteNumber":31,"Velocity":40,"Duration":347906,"SoundDuration":347906,"Delta":285191451},{"NoteNumber":38,"Velocity":40,"Duration":347906,"SoundDuration":347906,"Delta":285191451},{"NoteNumber":43,"Velocity":48,"Duration":347906,"SoundDuration":347906,"Delta":285191451},{"NoteNumber":62,"Velocity":62,"Duration":700035,"SoundDuration":700035,"Delta":286643652},{"NoteNumber":68,"Velocity":62,"Duration":700035,"SoundDuration":700035,"Delta":286643652},{"NoteNumber":70,"Velocity":74,"Duration":700035,"SoundDuration":700035,"Delta":286643652},{"NoteNumber":53,"Velocity":45,"Duration":700035,"SoundDuration":700035,"Delta":286643652},{"NoteNumber":58,"Velocity":53,"Duration":700035,"SoundDuration":700035,"Delta":286643652},{"NoteNumber":63,"Velocity":64,"Duration":700035,"SoundDuration":700035,"Delta":287343687},{"NoteNumber":61,"Velocity":64,"Duration":700035,"SoundDuration":700035,"Delta":287343687},{"NoteNumber":67,"Velocity":64,"Duration":700035,"SoundDuration":700035,"Delta":287343687},{"NoteNumber":70,"Velocity":77,"Duration":700035,"SoundDuration":700035,"Delta":287343687},{"NoteNumber":51,"Velocity":49,"Duration":700035,"SoundDuration":700035,"Delta":287343687},{"NoteNumber":58,"Velocity":59,"Duration":700035,"SoundDuration":700035,"Delta":287343687},{"NoteNumber":71,"Velocity":85,"Duration":350017,"SoundDuration":350017,"Delta":288043722},{"NoteNumber":59,"Velocity":72,"Duration":350017,"SoundDuration":350017,"Delta":288043722},{"NoteNumber":63,"Velocity":72,"Duration":350017,"SoundDuration":350017,"Delta":288043722},{"NoteNumber":68,"Velocity":72,"Duration":350017,"SoundDuration":350017,"Delta":288043722},{"NoteNumber":44,"Velocity":50,"Duration":350017,"SoundDuration":350017,"Delta":288043722},{"NoteNumber":51,"Velocity":50,"Duration":350017,"SoundDuration":350017,"Delta":288043722},{"NoteNumber":56,"Velocity":60,"Duration":350017,"SoundDuration":350017,"Delta":288043722},{"NoteNumber":74,"Velocity":82,"Duration":700035,"SoundDuration":700035,"Delta":289443792},{"NoteNumber":76,"Velocity":82,"Duration":700035,"SoundDuration":700035,"Delta":289443792},{"NoteNumber":83,"Velocity":99,"Duration":700035,"SoundDuration":700035,"Delta":289443792},{"NoteNumber":80,"Velocity":99,"Duration":700035,"SoundDuration":700035,"Delta":289443792},{"NoteNumber":40,"Velocity":70,"Duration":700035,"SoundDuration":700035,"Delta":289443792},{"NoteNumber":47,"Velocity":70,"Duration":700035,"SoundDuration":700035,"Delta":289443792},{"NoteNumber":52,"Velocity":84,"Duration":700035,"SoundDuration":700035,"Delta":289443792},{"NoteNumber":72,"Velocity":88,"Duration":350017,"SoundDuration":350017,"Delta":290143827},{"NoteNumber":76,"Velocity":88,"Duration":350017,"SoundDuration":350017,"Delta":290143827},{"NoteNumber":81,"Velocity":103,"Duration":350017,"SoundDuration":350017,"Delta":290143827},{"NoteNumber":84,"Velocity":103,"Duration":350017,"SoundDuration":350017,"Delta":290143827},{"NoteNumber":33,"Velocity":70,"Duration":350017,"SoundDuration":350017,"Delta":290143827},{"NoteNumber":40,"Velocity":70,"Duration":350017,"SoundDuration":350017,"Delta":290143827},{"NoteNumber":45,"Velocity":84,"Duration":350017,"SoundDuration":350017,"Delta":290143827},{"NoteNumber":77,"Velocity":52,"Duration":1553915,"SoundDuration":1553915,"Delta":291543897},{"NoteNumber":81,"Velocity":52,"Duration":1374728,"SoundDuration":1374728,"Delta":291543897},{"NoteNumber":84,"Velocity":62,"Duration":1031046,"SoundDuration":1031046,"Delta":291543897},{"NoteNumber":65,"Velocity":49,"Duration":1374728,"SoundDuration":1374728,"Delta":291543897},{"NoteNumber":75,"Velocity":58,"Duration":1374728,"SoundDuration":1374728,"Delta":291543897},{"NoteNumber":85,"Velocity":56,"Duration":343682,"SoundDuration":343682,"Delta":292574943},{"NoteNumber":82,"Velocity":51,"Duration":179187,"SoundDuration":179187,"Delta":292918625},{"NoteNumber":86,"Velocity":61,"Duration":179187,"SoundDuration":179187,"Delta":292918625},{"NoteNumber":70,"Velocity":38,"Duration":179187,"SoundDuration":179187,"Delta":292918625},{"NoteNumber":74,"Velocity":45,"Duration":179187,"SoundDuration":179187,"Delta":292918625},{"NoteNumber":77,"Velocity":46,"Duration":196721,"SoundDuration":196721,"Delta":293646392},{"NoteNumber":82,"Velocity":46,"Duration":196721,"SoundDuration":196721,"Delta":293646392},{"NoteNumber":86,"Velocity":55,"Duration":196721,"SoundDuration":196721,"Delta":293646392},{"NoteNumber":70,"Velocity":33,"Duration":196721,"SoundDuration":196721,"Delta":293646392},{"NoteNumber":74,"Velocity":40,"Duration":196721,"SoundDuration":196721,"Delta":293646392},{"NoteNumber":77,"Velocity":51,"Duration":2213249,"SoundDuration":2213249,"Delta":294433277},{"NoteNumber":86,"Velocity":61,"Duration":2213249,"SoundDuration":2213249,"Delta":294433277},{"NoteNumber":89,"Velocity":61,"Duration":2213249,"SoundDuration":2213249,"Delta":294433277},{"NoteNumber":70,"Velocity":38,"Duration":2213249,"SoundDuration":2213249,"Delta":294433277},{"NoteNumber":74,"Velocity":45,"Duration":2213249,"SoundDuration":2213249,"Delta":294433277},{"NoteNumber":77,"Velocity":54,"Duration":1782955,"SoundDuration":1782955,"Delta":297359708},{"NoteNumber":74,"Velocity":45,"Duration":356590,"SoundDuration":356590,"Delta":299142663},{"NoteNumber":70,"Velocity":50,"Duration":356591,"SoundDuration":356591,"Delta":299499254},{"NoteNumber":69,"Velocity":45,"Duration":356590,"SoundDuration":356590,"Delta":299855845},{"NoteNumber":60,"Velocity":34,"Duration":1553915,"SoundDuration":1553915,"Delta":300212436},{"NoteNumber":64,"Velocity":34,"Duration":1374728,"SoundDuration":1374728,"Delta":300212436},{"NoteNumber":69,"Velocity":49,"Duration":687364,"SoundDuration":687364,"Delta":300212436},{"NoteNumber":48,"Velocity":33,"Duration":1374728,"SoundDuration":1374728,"Delta":300212436},{"NoteNumber":58,"Velocity":39,"Duration":1374728,"SoundDuration":1374728,"Delta":300212436},{"NoteNumber":67,"Velocity":44,"Duration":515522,"SoundDuration":515522,"Delta":300899800},{"NoteNumber":68,"Velocity":44,"Duration":171841,"SoundDuration":171841,"Delta":301415323},{"NoteNumber":65,"Velocity":40,"Duration":179187,"SoundDuration":179187,"Delta":301587164},{"NoteNumber":69,"Velocity":48,"Duration":179187,"SoundDuration":179187,"Delta":301587164},{"NoteNumber":53,"Velocity":30,"Duration":179187,"SoundDuration":179187,"Delta":301587164},{"NoteNumber":57,"Velocity":36,"Duration":179187,"SoundDuration":179187,"Delta":301587164},{"NoteNumber":60,"Velocity":30,"Duration":196721,"SoundDuration":196721,"Delta":302314931},{"NoteNumber":65,"Velocity":36,"Duration":196721,"SoundDuration":196721,"Delta":302314931},{"NoteNumber":69,"Velocity":44,"Duration":196721,"SoundDuration":196721,"Delta":302314931},{"NoteNumber":53,"Velocity":24,"Duration":196721,"SoundDuration":196721,"Delta":302314931},{"NoteNumber":57,"Velocity":32,"Duration":196721,"SoundDuration":196721,"Delta":302314931},{"NoteNumber":69,"Velocity":48,"Duration":2360655,"SoundDuration":2360655,"Delta":303101816},{"NoteNumber":72,"Velocity":48,"Duration":2360655,"SoundDuration":2360655,"Delta":303101816},{"NoteNumber":53,"Velocity":30,"Duration":2360655,"SoundDuration":2360655,"Delta":303101816},{"NoteNumber":60,"Velocity":36,"Duration":2360655,"SoundDuration":2360655,"Delta":303101816},{"NoteNumber":77,"Velocity":52,"Duration":1553915,"SoundDuration":1553915,"Delta":306249356},{"NoteNumber":81,"Velocity":52,"Duration":1374728,"SoundDuration":1374728,"Delta":306249356},{"NoteNumber":84,"Velocity":62,"Duration":1031046,"SoundDuration":1031046,"Delta":306249356},{"NoteNumber":65,"Velocity":49,"Duration":1374728,"SoundDuration":1374728,"Delta":306249356},{"NoteNumber":75,"Velocity":58,"Duration":1374728,"SoundDuration":1374728,"Delta":306249356},{"NoteNumber":85,"Velocity":56,"Duration":343682,"SoundDuration":343682,"Delta":307280402},{"NoteNumber":82,"Velocity":51,"Duration":179187,"SoundDuration":179187,"Delta":307624084},{"NoteNumber":86,"Velocity":61,"Duration":179187,"SoundDuration":179187,"Delta":307624084},{"NoteNumber":70,"Velocity":38,"Duration":179187,"SoundDuration":179187,"Delta":307624084},{"NoteNumber":74,"Velocity":45,"Duration":179187,"SoundDuration":179187,"Delta":307624084},{"NoteNumber":77,"Velocity":55,"Duration":196721,"SoundDuration":196721,"Delta":308351851},{"NoteNumber":82,"Velocity":55,"Duration":196721,"SoundDuration":196721,"Delta":308351851},{"NoteNumber":86,"Velocity":66,"Duration":196721,"SoundDuration":196721,"Delta":308351851},{"NoteNumber":70,"Velocity":39,"Duration":196721,"SoundDuration":196721,"Delta":308351851},{"NoteNumber":74,"Velocity":48,"Duration":196721,"SoundDuration":196721,"Delta":308351851},{"NoteNumber":70,"Velocity":80,"Duration":107926,"SoundDuration":107926,"Delta":309143245},{"NoteNumber":74,"Velocity":79,"Duration":103748,"SoundDuration":103748,"Delta":309251172},{"NoteNumber":77,"Velocity":77,"Duration":99879,"SoundDuration":99879,"Delta":309354920},{"NoteNumber":82,"Velocity":74,"Duration":96165,"SoundDuration":96165,"Delta":309454800},{"NoteNumber":86,"Velocity":71,"Duration":92792,"SoundDuration":92792,"Delta":309550965},{"NoteNumber":89,"Velocity":68,"Duration":89683,"SoundDuration":89683,"Delta":309643758},{"NoteNumber":94,"Velocity":65,"Duration":88863,"SoundDuration":88863,"Delta":309733442},{"NoteNumber":98,"Velocity":61,"Duration":121951,"SoundDuration":121951,"Delta":309822306},{"NoteNumber":101,"Velocity":58,"Duration":115030,"SoundDuration":115030,"Delta":309944257},{"NoteNumber":77,"Velocity":62,"Duration":2496136,"SoundDuration":2496136,"Delta":312704992},{"NoteNumber":76,"Velocity":50,"Duration":356591,"SoundDuration":356591,"Delta":315201129},{"NoteNumber":76,"Velocity":53,"Duration":713181,"SoundDuration":713181,"Delta":315557720},{"NoteNumber":74,"Velocity":51,"Duration":534886,"SoundDuration":534886,"Delta":316270902},{"NoteNumber":72,"Velocity":47,"Duration":178295,"SoundDuration":178295,"Delta":316805788},{"NoteNumber":72,"Velocity":51,"Duration":713182,"SoundDuration":713182,"Delta":316984084},{"NoteNumber":70,"Velocity":48,"Duration":534886,"SoundDuration":534886,"Delta":317697266},{"NoteNumber":69,"Velocity":41,"Duration":178295,"SoundDuration":178295,"Delta":318232152},{"NoteNumber":60,"Velocity":30,"Duration":1608657,"SoundDuration":1608657,"Delta":318410448},{"NoteNumber":64,"Velocity":30,"Duration":1422230,"SoundDuration":1422230,"Delta":318410448},{"NoteNumber":69,"Velocity":44,"Duration":700035,"SoundDuration":700035,"Delta":318410448},{"NoteNumber":48,"Velocity":29,"Duration":1422230,"SoundDuration":1422230,"Delta":318410448},{"NoteNumber":58,"Velocity":35,"Duration":1422230,"SoundDuration":1422230,"Delta":318410448},{"NoteNumber":67,"Velocity":39,"Duration":541646,"SoundDuration":541646,"Delta":319110483},{"NoteNumber":68,"Velocity":39,"Duration":180548,"SoundDuration":180548,"Delta":319652129},{"NoteNumber":65,"Velocity":36,"Duration":186427,"SoundDuration":186427,"Delta":319832678},{"NoteNumber":69,"Velocity":43,"Duration":186427,"SoundDuration":186427,"Delta":319832678},{"NoteNumber":53,"Velocity":27,"Duration":186427,"SoundDuration":186427,"Delta":319832678},{"NoteNumber":57,"Velocity":32,"Duration":186427,"SoundDuration":186427,"Delta":319832678},{"NoteNumber":60,"Velocity":27,"Duration":203776,"SoundDuration":203776,"Delta":320578390},{"NoteNumber":65,"Velocity":32,"Duration":203776,"SoundDuration":203776,"Delta":320578390},{"NoteNumber":69,"Velocity":39,"Duration":203776,"SoundDuration":203776,"Delta":320578390},{"NoteNumber":53,"Velocity":21,"Duration":203776,"SoundDuration":203776,"Delta":320578390},{"NoteNumber":57,"Velocity":28,"Duration":203776,"SoundDuration":203776,"Delta":320578390},{"NoteNumber":69,"Velocity":43,"Duration":2148039,"SoundDuration":2148039,"Delta":321393497},{"NoteNumber":72,"Velocity":43,"Duration":2148039,"SoundDuration":2148039,"Delta":321393497},{"NoteNumber":53,"Velocity":27,"Duration":2148039,"SoundDuration":2148039,"Delta":321393497},{"NoteNumber":60,"Velocity":32,"Duration":2148039,"SoundDuration":2148039,"Delta":321393497},{"NoteNumber":53,"Velocity":42,"Duration":145546,"SoundDuration":145546,"Delta":324254719},{"NoteNumber":54,"Velocity":47,"Duration":145546,"SoundDuration":145546,"Delta":324400265},{"NoteNumber":51,"Velocity":43,"Duration":143348,"SoundDuration":143348,"Delta":324850906},{"NoteNumber":54,"Velocity":49,"Duration":143348,"SoundDuration":143348,"Delta":324994255},{"NoteNumber":65,"Velocity":48,"Duration":144064,"SoundDuration":144064,"Delta":325436289},{"NoteNumber":53,"Velocity":33,"Duration":144064,"SoundDuration":144064,"Delta":325436289},{"NoteNumber":66,"Velocity":53,"Duration":144064,"SoundDuration":144064,"Delta":325580354},{"NoteNumber":54,"Velocity":37,"Duration":144064,"SoundDuration":144064,"Delta":325580354},{"NoteNumber":63,"Velocity":48,"Duration":146284,"SoundDuration":146284,"Delta":326024721},{"NoteNumber":51,"Velocity":33,"Duration":146284,"SoundDuration":146284,"Delta":326024721},{"NoteNumber":66,"Velocity":52,"Duration":146284,"SoundDuration":146284,"Delta":326171006},{"NoteNumber":54,"Velocity":39,"Duration":146284,"SoundDuration":146284,"Delta":326171006},{"NoteNumber":72,"Velocity":36,"Duration":191448,"SoundDuration":191448,"Delta":326719058},{"NoteNumber":81,"Velocity":43,"Duration":191448,"SoundDuration":191448,"Delta":326719058},{"NoteNumber":60,"Velocity":27,"Duration":191448,"SoundDuration":191448,"Delta":326719058},{"NoteNumber":69,"Velocity":32,"Duration":191448,"SoundDuration":191448,"Delta":326719058},{"NoteNumber":72,"Velocity":32,"Duration":203776,"SoundDuration":203776,"Delta":327484853},{"NoteNumber":81,"Velocity":39,"Duration":203776,"SoundDuration":203776,"Delta":327484853},{"NoteNumber":60,"Velocity":21,"Duration":203776,"SoundDuration":203776,"Delta":327484853},{"NoteNumber":69,"Velocity":28,"Duration":203776,"SoundDuration":203776,"Delta":327484853},{"NoteNumber":81,"Velocity":43,"Duration":1434857,"SoundDuration":1434857,"Delta":328299960},{"NoteNumber":84,"Velocity":43,"Duration":1434857,"SoundDuration":1434857,"Delta":328299960},{"NoteNumber":69,"Velocity":27,"Duration":1434857,"SoundDuration":1434857,"Delta":328299960},{"NoteNumber":72,"Velocity":32,"Duration":1434857,"SoundDuration":1434857,"Delta":328299960},{"NoteNumber":41,"Velocity":35,"Duration":145546,"SoundDuration":145546,"Delta":329734818},{"NoteNumber":42,"Velocity":40,"Duration":145546,"SoundDuration":145546,"Delta":329880364},{"NoteNumber":39,"Velocity":36,"Duration":145546,"SoundDuration":145546,"Delta":330324596},{"NoteNumber":42,"Velocity":40,"Duration":145546,"SoundDuration":145546,"Delta":330470143},{"NoteNumber":53,"Velocity":42,"Duration":147834,"SoundDuration":147834,"Delta":330917560},{"NoteNumber":41,"Velocity":31,"Duration":147834,"SoundDuration":147834,"Delta":330917560},{"NoteNumber":54,"Velocity":48,"Duration":146284,"SoundDuration":146284,"Delta":331065395},{"NoteNumber":42,"Velocity":35,"Duration":146284,"SoundDuration":146284,"Delta":331065395},{"NoteNumber":51,"Velocity":41,"Duration":147029,"SoundDuration":147029,"Delta":331513551},{"NoteNumber":39,"Velocity":30,"Duration":147029,"SoundDuration":147029,"Delta":331513551},{"NoteNumber":54,"Velocity":48,"Duration":147030,"SoundDuration":147030,"Delta":331660581},{"NoteNumber":42,"Velocity":35,"Duration":147030,"SoundDuration":147030,"Delta":331660581},{"NoteNumber":60,"Velocity":32,"Duration":191448,"SoundDuration":191448,"Delta":332212251},{"NoteNumber":69,"Velocity":38,"Duration":191448,"SoundDuration":191448,"Delta":332212251},{"NoteNumber":48,"Velocity":24,"Duration":191448,"SoundDuration":191448,"Delta":332212251},{"NoteNumber":57,"Velocity":28,"Duration":191448,"SoundDuration":191448,"Delta":332212251},{"NoteNumber":60,"Velocity":28,"Duration":203776,"SoundDuration":203776,"Delta":332978046},{"NoteNumber":69,"Velocity":35,"Duration":203776,"SoundDuration":203776,"Delta":332978046},{"NoteNumber":48,"Velocity":18,"Duration":203776,"SoundDuration":203776,"Delta":332978046},{"NoteNumber":57,"Velocity":25,"Duration":203776,"SoundDuration":203776,"Delta":332978046},{"NoteNumber":69,"Velocity":38,"Duration":1434857,"SoundDuration":1434857,"Delta":333793153},{"NoteNumber":72,"Velocity":38,"Duration":1434857,"SoundDuration":1434857,"Delta":333793153},{"NoteNumber":57,"Velocity":24,"Duration":1434857,"SoundDuration":1434857,"Delta":333793153},{"NoteNumber":60,"Velocity":28,"Duration":1434857,"SoundDuration":1434857,"Delta":333793153},{"NoteNumber":53,"Velocity":47,"Duration":147812,"SoundDuration":147812,"Delta":335228011},{"NoteNumber":54,"Velocity":52,"Duration":147812,"SoundDuration":147812,"Delta":335375824},{"NoteNumber":63,"Velocity":54,"Duration":146284,"SoundDuration":146284,"Delta":335828731},{"NoteNumber":51,"Velocity":42,"Duration":146284,"SoundDuration":146284,"Delta":335828731},{"NoteNumber":66,"Velocity":61,"Duration":146284,"SoundDuration":146284,"Delta":335975016},{"NoteNumber":54,"Velocity":47,"Duration":146284,"SoundDuration":146284,"Delta":335975016},{"NoteNumber":41,"Velocity":48,"Duration":144801,"SoundDuration":144801,"Delta":336421570},{"NoteNumber":42,"Velocity":52,"Duration":144801,"SoundDuration":144801,"Delta":336566372},{"NoteNumber":63,"Velocity":55,"Duration":144801,"SoundDuration":144801,"Delta":337009859},{"NoteNumber":39,"Velocity":43,"Duration":144801,"SoundDuration":144801,"Delta":337009859},{"NoteNumber":66,"Velocity":62,"Duration":144801,"SoundDuration":144801,"Delta":337154661},{"NoteNumber":42,"Velocity":47,"Duration":144801,"SoundDuration":144801,"Delta":337154661},{"NoteNumber":38,"Velocity":68,"Duration":144801,"SoundDuration":144801,"Delta":337598148},{"NoteNumber":42,"Velocity":75,"Duration":144801,"SoundDuration":144801,"Delta":337742950},{"NoteNumber":63,"Velocity":77,"Duration":147812,"SoundDuration":147812,"Delta":338189623},{"NoteNumber":39,"Velocity":61,"Duration":147812,"SoundDuration":147812,"Delta":338189623},{"NoteNumber":66,"Velocity":83,"Duration":147812,"SoundDuration":147812,"Delta":338337435},{"NoteNumber":42,"Velocity":69,"Duration":147812,"SoundDuration":147812,"Delta":338337435},{"NoteNumber":59,"Velocity":81,"Duration":150134,"SoundDuration":150134,"Delta":338790343},{"NoteNumber":35,"Velocity":66,"Duration":150134,"SoundDuration":150134,"Delta":338790343},{"NoteNumber":66,"Velocity":88,"Duration":150135,"SoundDuration":150135,"Delta":338940478},{"NoteNumber":42,"Velocity":72,"Duration":150135,"SoundDuration":150135,"Delta":338940478},{"NoteNumber":58,"Velocity":88,"Duration":152547,"SoundDuration":152547,"Delta":339404936},{"NoteNumber":34,"Velocity":70,"Duration":152547,"SoundDuration":152547,"Delta":339404936},{"NoteNumber":66,"Velocity":94,"Duration":152547,"SoundDuration":152547,"Delta":339557484},{"NoteNumber":42,"Velocity":75,"Duration":152547,"SoundDuration":152547,"Delta":339557484},{"NoteNumber":57,"Velocity":95,"Duration":160256,"SoundDuration":160256,"Delta":340045639},{"NoteNumber":33,"Velocity":72,"Duration":160256,"SoundDuration":160256,"Delta":340045639},{"NoteNumber":65,"Velocity":103,"Duration":160256,"SoundDuration":160256,"Delta":340205896},{"NoteNumber":41,"Velocity":78,"Duration":160256,"SoundDuration":160256,"Delta":340205896},{"NoteNumber":65,"Velocity":85,"Duration":122699,"SoundDuration":122699,"Delta":340770792},{"NoteNumber":72,"Velocity":85,"Duration":122699,"SoundDuration":122699,"Delta":340770792},{"NoteNumber":75,"Velocity":101,"Duration":122699,"SoundDuration":122699,"Delta":340770792},{"NoteNumber":77,"Velocity":101,"Duration":122699,"SoundDuration":122699,"Delta":340770792},{"NoteNumber":33,"Velocity":62,"Duration":122699,"SoundDuration":122699,"Delta":340770792},{"NoteNumber":41,"Velocity":62,"Duration":122699,"SoundDuration":122699,"Delta":340770792},{"NoteNumber":45,"Velocity":74,"Duration":122699,"SoundDuration":122699,"Delta":340770792},{"NoteNumber":65,"Velocity":85,"Duration":122699,"SoundDuration":122699,"Delta":341016191},{"NoteNumber":72,"Velocity":85,"Duration":122699,"SoundDuration":122699,"Delta":341016191},{"NoteNumber":75,"Velocity":101,"Duration":122699,"SoundDuration":122699,"Delta":341016191},{"NoteNumber":77,"Velocity":101,"Duration":122699,"SoundDuration":122699,"Delta":341016191},{"NoteNumber":33,"Velocity":62,"Duration":122699,"SoundDuration":122699,"Delta":341016191},{"NoteNumber":41,"Velocity":62,"Duration":122699,"SoundDuration":122699,"Delta":341016191},{"NoteNumber":45,"Velocity":74,"Duration":122699,"SoundDuration":122699,"Delta":341016191},{"NoteNumber":65,"Velocity":85,"Duration":129382,"SoundDuration":129382,"Delta":341261590},{"NoteNumber":72,"Velocity":85,"Duration":129382,"SoundDuration":129382,"Delta":341261590},{"NoteNumber":75,"Velocity":101,"Duration":129382,"SoundDuration":129382,"Delta":341261590},{"NoteNumber":77,"Velocity":101,"Duration":129382,"SoundDuration":129382,"Delta":341261590},{"NoteNumber":33,"Velocity":62,"Duration":129382,"SoundDuration":129382,"Delta":341261590},{"NoteNumber":41,"Velocity":62,"Duration":129382,"SoundDuration":129382,"Delta":341261590},{"NoteNumber":45,"Velocity":74,"Duration":129382,"SoundDuration":129382,"Delta":341261590},{"NoteNumber":77,"Velocity":94,"Duration":184049,"SoundDuration":184049,"Delta":341520355},{"NoteNumber":84,"Velocity":94,"Duration":184049,"SoundDuration":184049,"Delta":341520355},{"NoteNumber":87,"Velocity":112,"Duration":184049,"SoundDuration":184049,"Delta":341520355},{"NoteNumber":89,"Velocity":112,"Duration":184049,"SoundDuration":184049,"Delta":341520355},{"NoteNumber":33,"Velocity":70,"Duration":184049,"SoundDuration":184049,"Delta":341520355},{"NoteNumber":41,"Velocity":70,"Duration":184049,"SoundDuration":184049,"Delta":341520355},{"NoteNumber":45,"Velocity":83,"Duration":184049,"SoundDuration":184049,"Delta":341520355},{"NoteNumber":29,"Velocity":86,"Duration":160627,"SoundDuration":160627,"Delta":342624649},{"NoteNumber":30,"Velocity":70,"Duration":160627,"SoundDuration":160627,"Delta":342753151},{"NoteNumber":32,"Velocity":70,"Duration":162884,"SoundDuration":162884,"Delta":342881653},{"NoteNumber":30,"Velocity":86,"Duration":154376,"SoundDuration":154376,"Delta":343010154},{"NoteNumber":32,"Velocity":73,"Duration":153179,"SoundDuration":153179,"Delta":343113304},{"NoteNumber":30,"Velocity":76,"Duration":151998,"SoundDuration":151998,"Delta":343215705},{"NoteNumber":32,"Velocity":70,"Duration":150844,"SoundDuration":150844,"Delta":343317262},{"NoteNumber":30,"Velocity":76,"Duration":149712,"SoundDuration":149712,"Delta":343418093},{"NoteNumber":32,"Velocity":70,"Duration":147661,"SoundDuration":147661,"Delta":343518120},{"NoteNumber":30,"Velocity":80,"Duration":143439,"SoundDuration":143439,"Delta":343617442},{"NoteNumber":32,"Velocity":76,"Duration":144224,"SoundDuration":144224,"Delta":343713274},{"NoteNumber":30,"Velocity":83,"Duration":142306,"SoundDuration":142306,"Delta":343809378},{"NoteNumber":32,"Velocity":73,"Duration":141961,"SoundDuration":141961,"Delta":343904927},{"NoteNumber":30,"Velocity":83,"Duration":140042,"SoundDuration":140042,"Delta":343999526},{"NoteNumber":32,"Velocity":70,"Duration":141349,"SoundDuration":141349,"Delta":344093403},{"NoteNumber":30,"Velocity":80,"Duration":142578,"SoundDuration":142578,"Delta":344186704},{"NoteNumber":32,"Velocity":73,"Duration":140476,"SoundDuration":140476,"Delta":344282525},{"NoteNumber":30,"Velocity":76,"Duration":142217,"SoundDuration":142217,"Delta":344375643},{"NoteNumber":32,"Velocity":70,"Duration":141851,"SoundDuration":141851,"Delta":344470724},{"NoteNumber":30,"Velocity":83,"Duration":143804,"SoundDuration":143804,"Delta":344564244},{"NoteNumber":32,"Velocity":72,"Duration":141828,"SoundDuration":141828,"Delta":344660958},{"NoteNumber":30,"Velocity":77,"Duration":142020,"SoundDuration":142020,"Delta":344754738},{"NoteNumber":32,"Velocity":69,"Duration":140951,"SoundDuration":140951,"Delta":344850332},{"NoteNumber":30,"Velocity":74,"Duration":142112,"SoundDuration":142112,"Delta":344943584},{"NoteNumber":32,"Velocity":63,"Duration":140275,"SoundDuration":140275,"Delta":345038940},{"NoteNumber":30,"Velocity":72,"Duration":142003,"SoundDuration":142003,"Delta":345132188},{"NoteNumber":32,"Velocity":61,"Duration":141761,"SoundDuration":141761,"Delta":345227101},{"NoteNumber":30,"Velocity":73,"Duration":145568,"SoundDuration":145568,"Delta":345320882},{"NoteNumber":32,"Velocity":61,"Duration":144409,"SoundDuration":144409,"Delta":345417740},{"NoteNumber":30,"Velocity":68,"Duration":143630,"SoundDuration":143630,"Delta":345514312},{"NoteNumber":32,"Velocity":56,"Duration":142634,"SoundDuration":142634,"Delta":345609987},{"NoteNumber":29,"Velocity":67,"Duration":219818,"SoundDuration":219818,"Delta":345706130},{"NoteNumber":30,"Velocity":61,"Duration":235713,"SoundDuration":235713,"Delta":345892096},{"NoteNumber":29,"Velocity":75,"Duration":195592,"SoundDuration":195592,"Delta":346095210},{"NoteNumber":58,"Velocity":36,"Duration":765403,"SoundDuration":765403,"Delta":349159817},{"NoteNumber":65,"Velocity":40,"Duration":765403,"SoundDuration":765403,"Delta":349159817},{"NoteNumber":70,"Velocity":48,"Duration":765403,"SoundDuration":765403,"Delta":349159817},{"NoteNumber":46,"Velocity":27,"Duration":765403,"SoundDuration":765403,"Delta":349159817},{"NoteNumber":50,"Velocity":33,"Duration":382701,"SoundDuration":382701,"Delta":349159817},{"NoteNumber":53,"Velocity":28,"Duration":382701,"SoundDuration":382701,"Delta":349542519},{"NoteNumber":58,"Velocity":37,"Duration":752838,"SoundDuration":752838,"Delta":349925221},{"NoteNumber":65,"Velocity":42,"Duration":752838,"SoundDuration":752838,"Delta":349925221},{"NoteNumber":70,"Velocity":50,"Duration":752838,"SoundDuration":752838,"Delta":349925221},{"NoteNumber":46,"Velocity":28,"Duration":752838,"SoundDuration":752838,"Delta":349925221},{"NoteNumber":50,"Velocity":34,"Duration":371931,"SoundDuration":371931,"Delta":349925221},{"NoteNumber":53,"Velocity":28,"Duration":380906,"SoundDuration":380906,"Delta":350297153},{"NoteNumber":57,"Velocity":31,"Duration":753794,"SoundDuration":753794,"Delta":350678060},{"NoteNumber":65,"Velocity":40,"Duration":753794,"SoundDuration":753794,"Delta":350678060},{"NoteNumber":69,"Velocity":48,"Duration":753794,"SoundDuration":753794,"Delta":350678060},{"NoteNumber":46,"Velocity":24,"Duration":753794,"SoundDuration":753794,"Delta":350678060},{"NoteNumber":48,"Velocity":31,"Duration":371931,"SoundDuration":371931,"Delta":350678060},{"NoteNumber":53,"Velocity":27,"Duration":381862,"SoundDuration":381862,"Delta":351049991},{"NoteNumber":58,"Velocity":37,"Duration":771051,"SoundDuration":771051,"Delta":351431854},{"NoteNumber":65,"Velocity":42,"Duration":771051,"SoundDuration":771051,"Delta":351431854},{"NoteNumber":70,"Velocity":50,"Duration":771051,"SoundDuration":771051,"Delta":351431854},{"NoteNumber":46,"Velocity":28,"Duration":771051,"SoundDuration":771051,"Delta":351431854},{"NoteNumber":50,"Velocity":34,"Duration":382701,"SoundDuration":382701,"Delta":351431854},{"NoteNumber":53,"Velocity":27,"Duration":388349,"SoundDuration":388349,"Delta":351814556},{"NoteNumber":60,"Velocity":36,"Duration":762927,"SoundDuration":762927,"Delta":352202906},{"NoteNumber":65,"Velocity":40,"Duration":762927,"SoundDuration":762927,"Delta":352202906},{"NoteNumber":72,"Velocity":48,"Duration":762927,"SoundDuration":762927,"Delta":352202906},{"NoteNumber":46,"Velocity":27,"Duration":762927,"SoundDuration":762927,"Delta":352202906},{"NoteNumber":51,"Velocity":33,"Duration":374578,"SoundDuration":374578,"Delta":352202906},{"NoteNumber":53,"Velocity":26,"Duration":388349,"SoundDuration":388349,"Delta":352577484},{"NoteNumber":62,"Velocity":40,"Duration":2192761,"SoundDuration":2192761,"Delta":352965834},{"NoteNumber":65,"Velocity":45,"Duration":2192761,"SoundDuration":2192761,"Delta":352965834},{"NoteNumber":74,"Velocity":53,"Duration":2192761,"SoundDuration":2192761,"Delta":352965834},{"NoteNumber":52,"Velocity":34,"Duration":371931,"SoundDuration":371931,"Delta":352965834},{"NoteNumber":46,"Velocity":28,"Duration":2192761,"SoundDuration":2192761,"Delta":352965834},{"NoteNumber":53,"Velocity":26,"Duration":182082,"SoundDuration":182082,"Delta":353337765},{"NoteNumber":53,"Velocity":26,"Duration":182082,"SoundDuration":182082,"Delta":353701931},{"NoteNumber":53,"Velocity":26,"Duration":182082,"SoundDuration":182082,"Delta":354066097},{"NoteNumber":53,"Velocity":26,"Duration":182082,"SoundDuration":182082,"Delta":354430263},{"NoteNumber":53,"Velocity":26,"Duration":182083,"SoundDuration":182083,"Delta":354794429},{"NoteNumber":60,"Velocity":37,"Duration":366703,"SoundDuration":366703,"Delta":355158595},{"NoteNumber":65,"Velocity":42,"Duration":366703,"SoundDuration":366703,"Delta":355158595},{"NoteNumber":72,"Velocity":50,"Duration":366703,"SoundDuration":366703,"Delta":355158595},{"NoteNumber":46,"Velocity":27,"Duration":761440,"SoundDuration":761440,"Delta":355158595},{"NoteNumber":51,"Velocity":33,"Duration":366703,"SoundDuration":366703,"Delta":355158595},{"NoteNumber":58,"Velocity":35,"Duration":394737,"SoundDuration":394737,"Delta":355525299},{"NoteNumber":65,"Velocity":39,"Duration":394737,"SoundDuration":394737,"Delta":355525299},{"NoteNumber":70,"Velocity":46,"Duration":394737,"SoundDuration":394737,"Delta":355525299},{"NoteNumber":50,"Velocity":27,"Duration":394737,"SoundDuration":394737,"Delta":355525299},{"NoteNumber":60,"Velocity":35,"Duration":741335,"SoundDuration":741335,"Delta":355920036},{"NoteNumber":65,"Velocity":39,"Duration":741335,"SoundDuration":741335,"Delta":355920036},{"NoteNumber":72,"Velocity":47,"Duration":741335,"SoundDuration":741335,"Delta":355920036},{"NoteNumber":41,"Velocity":26,"Duration":749195,"SoundDuration":749195,"Delta":355920036},{"NoteNumber":51,"Velocity":31,"Duration":371931,"SoundDuration":371931,"Delta":355920036},{"NoteNumber":53,"Velocity":25,"Duration":377263,"SoundDuration":377263,"Delta":356291967},{"NoteNumber":60,"Velocity":34,"Duration":741335,"SoundDuration":741335,"Delta":356669231},{"NoteNumber":65,"Velocity":38,"Duration":741335,"SoundDuration":741335,"Delta":356669231},{"NoteNumber":72,"Velocity":46,"Duration":741335,"SoundDuration":741335,"Delta":356669231},{"NoteNumber":41,"Velocity":26,"Duration":749195,"SoundDuration":749195,"Delta":356669231},{"NoteNumber":51,"Velocity":29,"Duration":371931,"SoundDuration":371931,"Delta":356669231},{"NoteNumber":53,"Velocity":25,"Duration":377263,"SoundDuration":377263,"Delta":357041162},{"NoteNumber":60,"Velocity":34,"Duration":750293,"SoundDuration":750293,"Delta":357418426},{"NoteNumber":65,"Velocity":38,"Duration":750293,"SoundDuration":750293,"Delta":357418426},{"NoteNumber":72,"Velocity":46,"Duration":750293,"SoundDuration":750293,"Delta":357418426},{"NoteNumber":41,"Velocity":26,"Duration":758325,"SoundDuration":758325,"Delta":357418426},{"NoteNumber":51,"Velocity":29,"Duration":372820,"SoundDuration":372820,"Delta":357418426},{"NoteNumber":53,"Velocity":26,"Duration":385505,"SoundDuration":385505,"Delta":357791246},{"NoteNumber":58,"Velocity":37,"Duration":371931,"SoundDuration":371931,"Delta":358176751},{"NoteNumber":65,"Velocity":42,"Duration":371931,"SoundDuration":371931,"Delta":358176751},{"NoteNumber":70,"Velocity":50,"Duration":371931,"SoundDuration":371931,"Delta":358176751},{"NoteNumber":41,"Velocity":27,"Duration":772646,"SoundDuration":772646,"Delta":358176751},{"NoteNumber":50,"Velocity":33,"Duration":371931,"SoundDuration":371931,"Delta":358176751},{"NoteNumber":57,"Velocity":30,"Duration":400715,"SoundDuration":400715,"Delta":358548682},{"NoteNumber":65,"Velocity":38,"Duration":400715,"SoundDuration":400715,"Delta":358548682},{"NoteNumber":69,"Velocity":45,"Duration":400715,"SoundDuration":400715,"Delta":358548682},{"NoteNumber":48,"Velocity":25,"Duration":400715,"SoundDuration":400715,"Delta":358548682},{"NoteNumber":65,"Velocity":52,"Duration":754527,"SoundDuration":754527,"Delta":358949397},{"NoteNumber":58,"Velocity":37,"Duration":2291780,"SoundDuration":2291780,"Delta":358949397},{"NoteNumber":70,"Velocity":52,"Duration":2291780,"SoundDuration":2291780,"Delta":358949397},{"NoteNumber":46,"Velocity":28,"Duration":2291780,"SoundDuration":2291780,"Delta":358949397},{"NoteNumber":50,"Velocity":34,"Duration":377263,"SoundDuration":377263,"Delta":358949397},{"NoteNumber":53,"Velocity":30,"Duration":377263,"SoundDuration":377263,"Delta":359326661},{"NoteNumber":63,"Velocity":42,"Duration":766128,"SoundDuration":766128,"Delta":359703924},{"NoteNumber":67,"Velocity":50,"Duration":766128,"SoundDuration":766128,"Delta":359703924},{"NoteNumber":51,"Velocity":33,"Duration":377263,"SoundDuration":377263,"Delta":359703924},{"NoteNumber":55,"Velocity":28,"Duration":388865,"SoundDuration":388865,"Delta":360081188},{"NoteNumber":62,"Velocity":36,"Duration":771124,"SoundDuration":771124,"Delta":360470053},{"NoteNumber":65,"Velocity":44,"Duration":771124,"SoundDuration":771124,"Delta":360470053},{"NoteNumber":50,"Velocity":29,"Duration":379938,"SoundDuration":379938,"Delta":360470053},{"NoteNumber":53,"Velocity":30,"Duration":391185,"SoundDuration":391185,"Delta":360849992},{"NoteNumber":70,"Velocity":61,"Duration":800142,"SoundDuration":800142,"Delta":361241178},{"NoteNumber":46,"Velocity":28,"Duration":800142,"SoundDuration":800142,"Delta":361241178},{"NoteNumber":50,"Velocity":39,"Duration":394737,"SoundDuration":394737,"Delta":361241178},{"NoteNumber":58,"Velocity":34,"Duration":405405,"SoundDuration":405405,"Delta":361635915},{"NoteNumber":63,"Velocity":45,"Duration":2197917,"SoundDuration":2197917,"Delta":362041320},{"NoteNumber":70,"Velocity":51,"Duration":2197917,"SoundDuration":2197917,"Delta":362041320},{"NoteNumber":75,"Velocity":60,"Duration":2197917,"SoundDuration":2197917,"Delta":362041320},{"NoteNumber":46,"Velocity":30,"Duration":2197917,"SoundDuration":2197917,"Delta":362041320},{"NoteNumber":55,"Velocity":36,"Duration":2197917,"SoundDuration":2197917,"Delta":362041320},{"NoteNumber":58,"Velocity":32,"Duration":184660,"SoundDuration":184660,"Delta":362413252},{"NoteNumber":58,"Velocity":33,"Duration":182082,"SoundDuration":182082,"Delta":362782573},{"NoteNumber":58,"Velocity":30,"Duration":182082,"SoundDuration":182082,"Delta":363146739},{"NoteNumber":58,"Velocity":34,"Duration":182082,"SoundDuration":182082,"Delta":363510905},{"NoteNumber":58,"Velocity":31,"Duration":182083,"SoundDuration":182083,"Delta":363875071},{"NoteNumber":62,"Velocity":41,"Duration":364166,"SoundDuration":364166,"Delta":364239237},{"NoteNumber":70,"Velocity":46,"Duration":364166,"SoundDuration":364166,"Delta":364239237},{"NoteNumber":74,"Velocity":55,"Duration":364166,"SoundDuration":364166,"Delta":364239237},{"NoteNumber":46,"Velocity":27,"Duration":752515,"SoundDuration":752515,"Delta":364239237},{"NoteNumber":53,"Velocity":33,"Duration":364166,"SoundDuration":364166,"Delta":364239237},{"NoteNumber":60,"Velocity":37,"Duration":388349,"SoundDuration":388349,"Delta":364603403},{"NoteNumber":70,"Velocity":42,"Duration":388349,"SoundDuration":388349,"Delta":364603403},{"NoteNumber":72,"Velocity":50,"Duration":388349,"SoundDuration":388349,"Delta":364603403},{"NoteNumber":51,"Velocity":31,"Duration":388349,"SoundDuration":388349,"Delta":364603403},{"NoteNumber":62,"Velocity":45,"Duration":743862,"SoundDuration":743862,"Delta":364991753},{"NoteNumber":70,"Velocity":45,"Duration":743862,"SoundDuration":743862,"Delta":364991753},{"NoteNumber":74,"Velocity":53,"Duration":743862,"SoundDuration":743862,"Delta":364991753},{"NoteNumber":46,"Velocity":27,"Duration":743862,"SoundDuration":743862,"Delta":364991753},{"NoteNumber":53,"Velocity":33,"Duration":371931,"SoundDuration":371931,"Delta":364991753},{"NoteNumber":50,"Velocity":28,"Duration":371931,"SoundDuration":371931,"Delta":365363684},{"NoteNumber":57,"Velocity":37,"Duration":762768,"SoundDuration":762768,"Delta":365735616},{"NoteNumber":65,"Velocity":42,"Duration":762768,"SoundDuration":762768,"Delta":365735616},{"NoteNumber":69,"Velocity":50,"Duration":762768,"SoundDuration":762768,"Delta":365735616},{"NoteNumber":41,"Velocity":27,"Duration":762768,"SoundDuration":762768,"Delta":365735616},{"NoteNumber":48,"Velocity":33,"Duration":377263,"SoundDuration":377263,"Delta":365735616},{"NoteNumber":53,"Velocity":28,"Duration":385505,"SoundDuration":385505,"Delta":366112879},{"NoteNumber":58,"Velocity":39,"Duration":759878,"SoundDuration":759878,"Delta":366498384},{"NoteNumber":65,"Velocity":44,"Duration":759878,"SoundDuration":759878,"Delta":366498384},{"NoteNumber":70,"Velocity":52,"Duration":759878,"SoundDuration":759878,"Delta":366498384},{"NoteNumber":41,"Velocity":27,"Duration":759878,"SoundDuration":759878,"Delta":366498384},{"NoteNumber":50,"Velocity":33,"Duration":379938,"SoundDuration":379938,"Delta":366498384},{"NoteNumber":53,"Velocity":30,"Duration":379939,"SoundDuration":379939,"Delta":366878323},{"NoteNumber":60,"Velocity":37,"Duration":762996,"SoundDuration":762996,"Delta":367258262},{"NoteNumber":65,"Velocity":42,"Duration":762996,"SoundDuration":762996,"Delta":367258262},{"NoteNumber":72,"Velocity":50,"Duration":762996,"SoundDuration":762996,"Delta":367258262},{"NoteNumber":41,"Velocity":27,"Duration":762996,"SoundDuration":762996,"Delta":367258262},{"NoteNumber":51,"Velocity":32,"Duration":374578,"SoundDuration":374578,"Delta":367258262},{"NoteNumber":53,"Velocity":29,"Duration":388417,"SoundDuration":388417,"Delta":367632841},{"NoteNumber":58,"Velocity":39,"Duration":782593,"SoundDuration":782593,"Delta":368021258},{"NoteNumber":65,"Velocity":44,"Duration":782593,"SoundDuration":782593,"Delta":368021258},{"NoteNumber":70,"Velocity":52,"Duration":782593,"SoundDuration":782593,"Delta":368021258},{"NoteNumber":41,"Velocity":27,"Duration":1649537,"SoundDuration":1649537,"Delta":368021258},{"NoteNumber":50,"Velocity":32,"Duration":385505,"SoundDuration":385505,"Delta":368021258},{"NoteNumber":53,"Velocity":29,"Duration":397087,"SoundDuration":397087,"Delta":368406763},{"NoteNumber":65,"Velocity":44,"Duration":866943,"SoundDuration":866943,"Delta":368803851},{"NoteNumber":62,"Velocity":39,"Duration":866943,"SoundDuration":866943,"Delta":368803851},{"NoteNumber":70,"Velocity":44,"Duration":866943,"SoundDuration":866943,"Delta":368803851},{"NoteNumber":74,"Velocity":52,"Duration":866943,"SoundDuration":866943,"Delta":368803851},{"NoteNumber":50,"Velocity":32,"Duration":405405,"SoundDuration":405405,"Delta":368803851},{"NoteNumber":46,"Velocity":29,"Duration":461538,"SoundDuration":461538,"Delta":369209257},{"NoteNumber":60,"Velocity":37,"Duration":5096024,"SoundDuration":5096024,"Delta":369670795},{"NoteNumber":65,"Velocity":42,"Duration":5096024,"SoundDuration":5096024,"Delta":369670795},{"NoteNumber":69,"Velocity":42,"Duration":5096024,"SoundDuration":5096024,"Delta":369670795},{"NoteNumber":72,"Velocity":50,"Duration":5096024,"SoundDuration":5096024,"Delta":369670795},{"NoteNumber":41,"Velocity":32,"Duration":794701,"SoundDuration":794701,"Delta":369670795},{"NoteNumber":29,"Velocity":27,"Duration":160627,"SoundDuration":160627,"Delta":370898398},{"NoteNumber":30,"Velocity":22,"Duration":160627,"SoundDuration":160627,"Delta":371026899},{"NoteNumber":32,"Velocity":22,"Duration":162884,"SoundDuration":162884,"Delta":371155401},{"NoteNumber":30,"Velocity":27,"Duration":171434,"SoundDuration":171434,"Delta":371283903},{"NoteNumber":32,"Velocity":23,"Duration":170105,"SoundDuration":170105,"Delta":371387052},{"NoteNumber":30,"Velocity":24,"Duration":168795,"SoundDuration":168795,"Delta":371489453},{"NoteNumber":32,"Velocity":22,"Duration":167515,"SoundDuration":167515,"Delta":371591010},{"NoteNumber":30,"Velocity":24,"Duration":166258,"SoundDuration":166258,"Delta":371691841},{"NoteNumber":32,"Velocity":22,"Duration":163492,"SoundDuration":163492,"Delta":371791868},{"NoteNumber":30,"Velocity":25,"Duration":159573,"SoundDuration":159573,"Delta":371891190},{"NoteNumber":32,"Velocity":24,"Duration":160170,"SoundDuration":160170,"Delta":371987022},{"NoteNumber":30,"Velocity":26,"Duration":158115,"SoundDuration":158115,"Delta":372083126},{"NoteNumber":32,"Velocity":23,"Duration":157569,"SoundDuration":157569,"Delta":372178675},{"NoteNumber":30,"Velocity":26,"Duration":155606,"SoundDuration":155606,"Delta":372273274},{"NoteNumber":32,"Velocity":22,"Duration":157411,"SoundDuration":157411,"Delta":372367151},{"NoteNumber":30,"Velocity":25,"Duration":157988,"SoundDuration":157988,"Delta":372460452},{"NoteNumber":32,"Velocity":23,"Duration":156307,"SoundDuration":156307,"Delta":372556274},{"NoteNumber":30,"Velocity":24,"Duration":157650,"SoundDuration":157650,"Delta":372649391},{"NoteNumber":32,"Velocity":22,"Duration":158151,"SoundDuration":158151,"Delta":372744473},{"NoteNumber":30,"Velocity":26,"Duration":159323,"SoundDuration":159323,"Delta":372837992},{"NoteNumber":32,"Velocity":23,"Duration":157891,"SoundDuration":157891,"Delta":372934706},{"NoteNumber":30,"Velocity":25,"Duration":157495,"SoundDuration":157495,"Delta":373028487},{"NoteNumber":32,"Velocity":23,"Duration":156897,"SoundDuration":156897,"Delta":373124080},{"NoteNumber":30,"Velocity":25,"Duration":157609,"SoundDuration":157609,"Delta":373217332},{"NoteNumber":32,"Velocity":22,"Duration":156221,"SoundDuration":156221,"Delta":373312688},{"NoteNumber":30,"Velocity":25,"Duration":157522,"SoundDuration":157522,"Delta":373405936},{"NoteNumber":32,"Velocity":22,"Duration":157942,"SoundDuration":157942,"Delta":373500849},{"NoteNumber":30,"Velocity":27,"Duration":161538,"SoundDuration":161538,"Delta":373594630},{"NoteNumber":32,"Velocity":23,"Duration":160355,"SoundDuration":160355,"Delta":373691489},{"NoteNumber":30,"Velocity":26,"Duration":159692,"SoundDuration":159692,"Delta":373788060},{"NoteNumber":32,"Velocity":22,"Duration":158131,"SoundDuration":158131,"Delta":373883736},{"NoteNumber":29,"Velocity":22,"Duration":220930,"SoundDuration":220930,"Delta":373979878},{"NoteNumber":30,"Velocity":18,"Duration":242389,"SoundDuration":242389,"Delta":374165844},{"NoteNumber":29,"Velocity":23,"Duration":195592,"SoundDuration":195592,"Delta":374375634},{"NoteNumber":58,"Velocity":36,"Duration":765403,"SoundDuration":765403,"Delta":376722747},{"NoteNumber":65,"Velocity":40,"Duration":765403,"SoundDuration":765403,"Delta":376722747},{"NoteNumber":70,"Velocity":48,"Duration":765403,"SoundDuration":765403,"Delta":376722747},{"NoteNumber":46,"Velocity":27,"Duration":765403,"SoundDuration":765403,"Delta":376722747},{"NoteNumber":50,"Velocity":33,"Duration":382701,"SoundDuration":382701,"Delta":376722747},{"NoteNumber":53,"Velocity":28,"Duration":382701,"SoundDuration":382701,"Delta":377105449},{"NoteNumber":58,"Velocity":37,"Duration":752838,"SoundDuration":752838,"Delta":377488151},{"NoteNumber":65,"Velocity":42,"Duration":752838,"SoundDuration":752838,"Delta":377488151},{"NoteNumber":70,"Velocity":50,"Duration":752838,"SoundDuration":752838,"Delta":377488151},{"NoteNumber":46,"Velocity":28,"Duration":752838,"SoundDuration":752838,"Delta":377488151},{"NoteNumber":50,"Velocity":34,"Duration":371931,"SoundDuration":371931,"Delta":377488151},{"NoteNumber":53,"Velocity":28,"Duration":380906,"SoundDuration":380906,"Delta":377860083},{"NoteNumber":57,"Velocity":31,"Duration":753794,"SoundDuration":753794,"Delta":378240990},{"NoteNumber":65,"Velocity":40,"Duration":753794,"SoundDuration":753794,"Delta":378240990},{"NoteNumber":69,"Velocity":48,"Duration":753794,"SoundDuration":753794,"Delta":378240990},{"NoteNumber":46,"Velocity":24,"Duration":753794,"SoundDuration":753794,"Delta":378240990},{"NoteNumber":48,"Velocity":31,"Duration":371931,"SoundDuration":371931,"Delta":378240990},{"NoteNumber":53,"Velocity":27,"Duration":381862,"SoundDuration":381862,"Delta":378612921},{"NoteNumber":58,"Velocity":37,"Duration":771051,"SoundDuration":771051,"Delta":378994784},{"NoteNumber":65,"Velocity":42,"Duration":771051,"SoundDuration":771051,"Delta":378994784},{"NoteNumber":70,"Velocity":50,"Duration":771051,"SoundDuration":771051,"Delta":378994784},{"NoteNumber":46,"Velocity":28,"Duration":771051,"SoundDuration":771051,"Delta":378994784},{"NoteNumber":50,"Velocity":34,"Duration":382701,"SoundDuration":382701,"Delta":378994784},{"NoteNumber":53,"Velocity":27,"Duration":388349,"SoundDuration":388349,"Delta":379377486},{"NoteNumber":60,"Velocity":36,"Duration":762927,"SoundDuration":762927,"Delta":379765836},{"NoteNumber":65,"Velocity":40,"Duration":762927,"SoundDuration":762927,"Delta":379765836},{"NoteNumber":72,"Velocity":48,"Duration":762927,"SoundDuration":762927,"Delta":379765836},{"NoteNumber":46,"Velocity":27,"Duration":762927,"SoundDuration":762927,"Delta":379765836},{"NoteNumber":51,"Velocity":33,"Duration":374578,"SoundDuration":374578,"Delta":379765836},{"NoteNumber":53,"Velocity":26,"Duration":388349,"SoundDuration":388349,"Delta":380140414},{"NoteNumber":62,"Velocity":40,"Duration":2192761,"SoundDuration":2192761,"Delta":380528764},{"NoteNumber":65,"Velocity":45,"Duration":2192761,"SoundDuration":2192761,"Delta":380528764},{"NoteNumber":74,"Velocity":53,"Duration":2192761,"SoundDuration":2192761,"Delta":380528764},{"NoteNumber":52,"Velocity":34,"Duration":371931,"SoundDuration":371931,"Delta":380528764},{"NoteNumber":46,"Velocity":28,"Duration":2192761,"SoundDuration":2192761,"Delta":380528764},{"NoteNumber":53,"Velocity":26,"Duration":182082,"SoundDuration":182082,"Delta":380900695},{"NoteNumber":53,"Velocity":26,"Duration":182082,"SoundDuration":182082,"Delta":381264861},{"NoteNumber":53,"Velocity":26,"Duration":182082,"SoundDuration":182082,"Delta":381629027},{"NoteNumber":53,"Velocity":26,"Duration":182082,"SoundDuration":182082,"Delta":381993193},{"NoteNumber":53,"Velocity":26,"Duration":182083,"SoundDuration":182083,"Delta":382357359},{"NoteNumber":60,"Velocity":37,"Duration":366703,"SoundDuration":366703,"Delta":382721525},{"NoteNumber":65,"Velocity":42,"Duration":366703,"SoundDuration":366703,"Delta":382721525},{"NoteNumber":72,"Velocity":50,"Duration":366703,"SoundDuration":366703,"Delta":382721525},{"NoteNumber":46,"Velocity":27,"Duration":761440,"SoundDuration":761440,"Delta":382721525},{"NoteNumber":51,"Velocity":33,"Duration":366703,"SoundDuration":366703,"Delta":382721525},{"NoteNumber":58,"Velocity":35,"Duration":394737,"SoundDuration":394737,"Delta":383088229},{"NoteNumber":65,"Velocity":39,"Duration":394737,"SoundDuration":394737,"Delta":383088229},{"NoteNumber":70,"Velocity":46,"Duration":394737,"SoundDuration":394737,"Delta":383088229},{"NoteNumber":50,"Velocity":27,"Duration":394737,"SoundDuration":394737,"Delta":383088229},{"NoteNumber":60,"Velocity":35,"Duration":741335,"SoundDuration":741335,"Delta":383482966},{"NoteNumber":65,"Velocity":39,"Duration":741335,"SoundDuration":741335,"Delta":383482966},{"NoteNumber":72,"Velocity":47,"Duration":741335,"SoundDuration":741335,"Delta":383482966},{"NoteNumber":41,"Velocity":26,"Duration":749195,"SoundDuration":749195,"Delta":383482966},{"NoteNumber":51,"Velocity":31,"Duration":371931,"SoundDuration":371931,"Delta":383482966},{"NoteNumber":53,"Velocity":25,"Duration":377263,"SoundDuration":377263,"Delta":383854897},{"NoteNumber":60,"Velocity":34,"Duration":741335,"SoundDuration":741335,"Delta":384232161},{"NoteNumber":65,"Velocity":38,"Duration":741335,"SoundDuration":741335,"Delta":384232161},{"NoteNumber":72,"Velocity":46,"Duration":741335,"SoundDuration":741335,"Delta":384232161},{"NoteNumber":41,"Velocity":26,"Duration":749195,"SoundDuration":749195,"Delta":384232161},{"NoteNumber":51,"Velocity":29,"Duration":371931,"SoundDuration":371931,"Delta":384232161},{"NoteNumber":53,"Velocity":25,"Duration":377263,"SoundDuration":377263,"Delta":384604092},{"NoteNumber":60,"Velocity":34,"Duration":750293,"SoundDuration":750293,"Delta":384981356},{"NoteNumber":65,"Velocity":38,"Duration":750293,"SoundDuration":750293,"Delta":384981356},{"NoteNumber":72,"Velocity":46,"Duration":750293,"SoundDuration":750293,"Delta":384981356},{"NoteNumber":41,"Velocity":26,"Duration":758325,"SoundDuration":758325,"Delta":384981356},{"NoteNumber":51,"Velocity":29,"Duration":372820,"SoundDuration":372820,"Delta":384981356},{"NoteNumber":53,"Velocity":28,"Duration":385505,"SoundDuration":385505,"Delta":385354176},{"NoteNumber":58,"Velocity":37,"Duration":371931,"SoundDuration":371931,"Delta":385739681},{"NoteNumber":65,"Velocity":42,"Duration":371931,"SoundDuration":371931,"Delta":385739681},{"NoteNumber":70,"Velocity":50,"Duration":371931,"SoundDuration":371931,"Delta":385739681},{"NoteNumber":41,"Velocity":27,"Duration":772646,"SoundDuration":772646,"Delta":385739681},{"NoteNumber":50,"Velocity":33,"Duration":371931,"SoundDuration":371931,"Delta":385739681},{"NoteNumber":57,"Velocity":30,"Duration":400715,"SoundDuration":400715,"Delta":386111612},{"NoteNumber":65,"Velocity":38,"Duration":400715,"SoundDuration":400715,"Delta":386111612},{"NoteNumber":69,"Velocity":45,"Duration":400715,"SoundDuration":400715,"Delta":386111612},{"NoteNumber":48,"Velocity":25,"Duration":400715,"SoundDuration":400715,"Delta":386111612},{"NoteNumber":65,"Velocity":52,"Duration":754527,"SoundDuration":754527,"Delta":386512327},{"NoteNumber":58,"Velocity":37,"Duration":2291780,"SoundDuration":2291780,"Delta":386512327},{"NoteNumber":70,"Velocity":52,"Duration":2291780,"SoundDuration":2291780,"Delta":386512327},{"NoteNumber":46,"Velocity":28,"Duration":2291780,"SoundDuration":2291780,"Delta":386512327},{"NoteNumber":50,"Velocity":34,"Duration":377263,"SoundDuration":377263,"Delta":386512327},{"NoteNumber":53,"Velocity":30,"Duration":377263,"SoundDuration":377263,"Delta":386889591},{"NoteNumber":63,"Velocity":42,"Duration":766128,"SoundDuration":766128,"Delta":387266854},{"NoteNumber":67,"Velocity":50,"Duration":766128,"SoundDuration":766128,"Delta":387266854},{"NoteNumber":51,"Velocity":33,"Duration":377263,"SoundDuration":377263,"Delta":387266854},{"NoteNumber":55,"Velocity":28,"Duration":388865,"SoundDuration":388865,"Delta":387644118},{"NoteNumber":62,"Velocity":36,"Duration":771124,"SoundDuration":771124,"Delta":388032983},{"NoteNumber":65,"Velocity":44,"Duration":771124,"SoundDuration":771124,"Delta":388032983},{"NoteNumber":50,"Velocity":29,"Duration":379938,"SoundDuration":379938,"Delta":388032983},{"NoteNumber":53,"Velocity":30,"Duration":391185,"SoundDuration":391185,"Delta":388412922},{"NoteNumber":62,"Velocity":45,"Duration":859950,"SoundDuration":859950,"Delta":388804108},{"NoteNumber":65,"Velocity":51,"Duration":859950,"SoundDuration":859950,"Delta":388804108},{"NoteNumber":74,"Velocity":61,"Duration":859950,"SoundDuration":859950,"Delta":388804108},{"NoteNumber":44,"Velocity":28,"Duration":859950,"SoundDuration":859950,"Delta":388804108},{"NoteNumber":50,"Velocity":39,"Duration":405405,"SoundDuration":405405,"Delta":388804108},{"NoteNumber":53,"Velocity":34,"Duration":454545,"SoundDuration":454545,"Delta":389209513},{"NoteNumber":62,"Velocity":45,"Duration":2215596,"SoundDuration":2215596,"Delta":389664059},{"NoteNumber":67,"Velocity":51,"Duration":2215596,"SoundDuration":2215596,"Delta":389664059},{"NoteNumber":74,"Velocity":60,"Duration":2215596,"SoundDuration":2215596,"Delta":389664059},{"NoteNumber":43,"Velocity":30,"Duration":2215596,"SoundDuration":2215596,"Delta":389664059},{"NoteNumber":53,"Velocity":36,"Duration":2215596,"SoundDuration":2215596,"Delta":389664059},{"NoteNumber":55,"Velocity":32,"Duration":184660,"SoundDuration":184660,"Delta":390053669},{"NoteNumber":55,"Velocity":33,"Duration":182082,"SoundDuration":182082,"Delta":390422991},{"NoteNumber":55,"Velocity":30,"Duration":182082,"SoundDuration":182082,"Delta":390787157},{"NoteNumber":55,"Velocity":34,"Duration":182082,"SoundDuration":182082,"Delta":391151323},{"NoteNumber":55,"Velocity":31,"Duration":182083,"SoundDuration":182083,"Delta":391515489},{"NoteNumber":60,"Velocity":41,"Duration":364166,"SoundDuration":364166,"Delta":391879655},{"NoteNumber":67,"Velocity":46,"Duration":364166,"SoundDuration":364166,"Delta":391879655},{"NoteNumber":72,"Velocity":55,"Duration":364166,"SoundDuration":364166,"Delta":391879655},{"NoteNumber":43,"Velocity":24,"Duration":364166,"SoundDuration":364166,"Delta":391879655},{"NoteNumber":51,"Velocity":27,"Duration":364166,"SoundDuration":364166,"Delta":391879655},{"NoteNumber":55,"Velocity":33,"Duration":364166,"SoundDuration":364166,"Delta":391879655},{"NoteNumber":59,"Velocity":37,"Duration":366703,"SoundDuration":366703,"Delta":392243821},{"NoteNumber":67,"Velocity":42,"Duration":366703,"SoundDuration":366703,"Delta":392243821},{"NoteNumber":71,"Velocity":50,"Duration":366703,"SoundDuration":366703,"Delta":392243821},{"NoteNumber":43,"Velocity":24,"Duration":366703,"SoundDuration":366703,"Delta":392243821},{"NoteNumber":50,"Velocity":27,"Duration":366703,"SoundDuration":366703,"Delta":392243821},{"NoteNumber":55,"Velocity":31,"Duration":366703,"SoundDuration":366703,"Delta":392243821},{"NoteNumber":63,"Velocity":53,"Duration":723506,"SoundDuration":723506,"Delta":392610524},{"NoteNumber":67,"Velocity":54,"Duration":723506,"SoundDuration":723506,"Delta":392610524},{"NoteNumber":75,"Velocity":65,"Duration":723506,"SoundDuration":723506,"Delta":392610524},{"NoteNumber":43,"Velocity":28,"Duration":723506,"SoundDuration":723506,"Delta":392610524},{"NoteNumber":48,"Velocity":34,"Duration":356803,"SoundDuration":356803,"Delta":392610524},{"NoteNumber":55,"Velocity":30,"Duration":366703,"SoundDuration":366703,"Delta":392967327},{"NoteNumber":62,"Velocity":50,"Duration":753937,"SoundDuration":753937,"Delta":393334031},{"NoteNumber":67,"Velocity":50,"Duration":753937,"SoundDuration":753937,"Delta":393334031},{"NoteNumber":74,"Velocity":59,"Duration":753937,"SoundDuration":753937,"Delta":393334031},{"NoteNumber":43,"Velocity":28,"Duration":753937,"SoundDuration":753937,"Delta":393334031},{"NoteNumber":53,"Velocity":33,"Duration":364166,"SoundDuration":364166,"Delta":393334031},{"NoteNumber":55,"Velocity":28,"Duration":389771,"SoundDuration":389771,"Delta":393698197},{"NoteNumber":60,"Velocity":48,"Duration":788598,"SoundDuration":788598,"Delta":394087968},{"NoteNumber":67,"Velocity":48,"Duration":788598,"SoundDuration":788598,"Delta":394087968},{"NoteNumber":72,"Velocity":57,"Duration":788598,"SoundDuration":788598,"Delta":394087968},{"NoteNumber":43,"Velocity":27,"Duration":788598,"SoundDuration":788598,"Delta":394087968},{"NoteNumber":51,"Velocity":28,"Duration":371931,"SoundDuration":371931,"Delta":394087968},{"NoteNumber":55,"Velocity":29,"Duration":416666,"SoundDuration":416666,"Delta":394459900},{"NoteNumber":60,"Velocity":45,"Duration":819885,"SoundDuration":819885,"Delta":394876566},{"NoteNumber":69,"Velocity":51,"Duration":819885,"SoundDuration":819885,"Delta":394876566},{"NoteNumber":72,"Velocity":61,"Duration":819885,"SoundDuration":819885,"Delta":394876566},{"NoteNumber":42,"Velocity":28,"Duration":819885,"SoundDuration":819885,"Delta":394876566},{"NoteNumber":51,"Velocity":39,"Duration":397351,"SoundDuration":397351,"Delta":394876566},{"NoteNumber":54,"Velocity":34,"Duration":422534,"SoundDuration":422534,"Delta":395273917},{"NoteNumber":65,"Velocity":45,"Duration":2197917,"SoundDuration":2197917,"Delta":395696452},{"NoteNumber":60,"Velocity":45,"Duration":2197917,"SoundDuration":2197917,"Delta":395696452},{"NoteNumber":69,"Velocity":51,"Duration":2197917,"SoundDuration":2197917,"Delta":395696452},{"NoteNumber":72,"Velocity":60,"Duration":2197917,"SoundDuration":2197917,"Delta":395696452},{"NoteNumber":41,"Velocity":30,"Duration":2197917,"SoundDuration":2197917,"Delta":395696452},{"NoteNumber":51,"Velocity":36,"Duration":2197917,"SoundDuration":2197917,"Delta":395696452},{"NoteNumber":53,"Velocity":32,"Duration":184660,"SoundDuration":184660,"Delta":396068384},{"NoteNumber":53,"Velocity":33,"Duration":182082,"SoundDuration":182082,"Delta":396437705},{"NoteNumber":53,"Velocity":30,"Duration":182082,"SoundDuration":182082,"Delta":396801871},{"NoteNumber":53,"Velocity":34,"Duration":182082,"SoundDuration":182082,"Delta":397166037},{"NoteNumber":53,"Velocity":31,"Duration":182083,"SoundDuration":182083,"Delta":397530203},{"NoteNumber":58,"Velocity":41,"Duration":364166,"SoundDuration":364166,"Delta":397894369},{"NoteNumber":65,"Velocity":46,"Duration":364166,"SoundDuration":364166,"Delta":397894369},{"NoteNumber":70,"Velocity":55,"Duration":364166,"SoundDuration":364166,"Delta":397894369},{"NoteNumber":41,"Velocity":24,"Duration":364166,"SoundDuration":364166,"Delta":397894369},{"NoteNumber":50,"Velocity":27,"Duration":364166,"SoundDuration":364166,"Delta":397894369},{"NoteNumber":53,"Velocity":33,"Duration":364166,"SoundDuration":364166,"Delta":397894369},{"NoteNumber":57,"Velocity":37,"Duration":377263,"SoundDuration":377263,"Delta":398258535},{"NoteNumber":65,"Velocity":42,"Duration":377263,"SoundDuration":377263,"Delta":398258535},{"NoteNumber":69,"Velocity":50,"Duration":377263,"SoundDuration":377263,"Delta":398258535},{"NoteNumber":41,"Velocity":24,"Duration":377263,"SoundDuration":377263,"Delta":398258535},{"NoteNumber":48,"Velocity":27,"Duration":377263,"SoundDuration":377263,"Delta":398258535},{"NoteNumber":53,"Velocity":31,"Duration":377263,"SoundDuration":377263,"Delta":398258535},{"NoteNumber":62,"Velocity":51,"Duration":738927,"SoundDuration":738927,"Delta":398635799},{"NoteNumber":65,"Velocity":55,"Duration":738927,"SoundDuration":738927,"Delta":398635799},{"NoteNumber":74,"Velocity":65,"Duration":738927,"SoundDuration":738927,"Delta":398635799},{"NoteNumber":41,"Velocity":28,"Duration":738927,"SoundDuration":738927,"Delta":398635799},{"NoteNumber":46,"Velocity":34,"Duration":361663,"SoundDuration":361663,"Delta":398635799},{"NoteNumber":53,"Velocity":30,"Duration":377263,"SoundDuration":377263,"Delta":398997462},{"NoteNumber":57,"Velocity":47,"Duration":753937,"SoundDuration":753937,"Delta":399374726},{"NoteNumber":65,"Velocity":47,"Duration":753937,"SoundDuration":753937,"Delta":399374726},{"NoteNumber":69,"Velocity":56,"Duration":753937,"SoundDuration":753937,"Delta":399374726},{"NoteNumber":41,"Velocity":26,"Duration":753937,"SoundDuration":753937,"Delta":399374726},{"NoteNumber":48,"Velocity":31,"Duration":364166,"SoundDuration":364166,"Delta":399374726},{"NoteNumber":53,"Velocity":26,"Duration":389771,"SoundDuration":389771,"Delta":399738892},{"NoteNumber":58,"Velocity":50,"Duration":763117,"SoundDuration":763117,"Delta":400128663},{"NoteNumber":65,"Velocity":50,"Duration":763117,"SoundDuration":763117,"Delta":400128663},{"NoteNumber":70,"Velocity":59,"Duration":763117,"SoundDuration":763117,"Delta":400128663},{"NoteNumber":41,"Velocity":28,"Duration":763117,"SoundDuration":763117,"Delta":400128663},{"NoteNumber":50,"Velocity":29,"Duration":371931,"SoundDuration":371931,"Delta":400128663},{"NoteNumber":53,"Velocity":27,"Duration":391185,"SoundDuration":391185,"Delta":400500595},{"NoteNumber":65,"Velocity":45,"Duration":816717,"SoundDuration":816717,"Delta":400891780},{"NoteNumber":60,"Velocity":40,"Duration":816717,"SoundDuration":816717,"Delta":400891780},{"NoteNumber":69,"Velocity":45,"Duration":816717,"SoundDuration":816717,"Delta":400891780},{"NoteNumber":72,"Velocity":54,"Duration":816717,"SoundDuration":816717,"Delta":400891780},{"NoteNumber":41,"Velocity":25,"Duration":816717,"SoundDuration":816717,"Delta":400891780},{"NoteNumber":51,"Velocity":35,"Duration":391185,"SoundDuration":391185,"Delta":400891780},{"NoteNumber":53,"Velocity":30,"Duration":425531,"SoundDuration":425531,"Delta":401282966},{"NoteNumber":65,"Velocity":40,"Duration":1955927,"SoundDuration":1955927,"Delta":401708498},{"NoteNumber":60,"Velocity":40,"Duration":1564742,"SoundDuration":1564742,"Delta":401708498},{"NoteNumber":69,"Velocity":45,"Duration":1564742,"SoundDuration":1564742,"Delta":401708498},{"NoteNumber":72,"Velocity":54,"Duration":1564742,"SoundDuration":1564742,"Delta":401708498},{"NoteNumber":53,"Velocity":32,"Duration":1955927,"SoundDuration":1955927,"Delta":401708498},{"NoteNumber":41,"Velocity":27,"Duration":1564742,"SoundDuration":1564742,"Delta":401708498},{"NoteNumber":51,"Velocity":32,"Duration":1564742,"SoundDuration":1564742,"Delta":401708498},{"NoteNumber":58,"Velocity":48,"Duration":391185,"SoundDuration":391185,"Delta":403273240},{"NoteNumber":70,"Velocity":48,"Duration":391185,"SoundDuration":391185,"Delta":403273240},{"NoteNumber":46,"Velocity":28,"Duration":391185,"SoundDuration":391185,"Delta":403273240},{"NoteNumber":50,"Velocity":28,"Duration":391185,"SoundDuration":391185,"Delta":403273240},{"NoteNumber":34,"Velocity":30,"Duration":364166,"SoundDuration":364166,"Delta":404055611},{"NoteNumber":34,"Velocity":30,"Duration":154376,"SoundDuration":154376,"Delta":404783943},{"NoteNumber":35,"Velocity":26,"Duration":153179,"SoundDuration":153179,"Delta":404887092},{"NoteNumber":34,"Velocity":27,"Duration":151998,"SoundDuration":151998,"Delta":404989493},{"NoteNumber":35,"Velocity":25,"Duration":150844,"SoundDuration":150844,"Delta":405091050},{"NoteNumber":34,"Velocity":27,"Duration":149712,"SoundDuration":149712,"Delta":405191881},{"NoteNumber":35,"Velocity":25,"Duration":147661,"SoundDuration":147661,"Delta":405291908},{"NoteNumber":34,"Velocity":28,"Duration":143439,"SoundDuration":143439,"Delta":405391230},{"NoteNumber":35,"Velocity":27,"Duration":144224,"SoundDuration":144224,"Delta":405487062},{"NoteNumber":34,"Velocity":29,"Duration":142306,"SoundDuration":142306,"Delta":405583166},{"NoteNumber":35,"Velocity":26,"Duration":141961,"SoundDuration":141961,"Delta":405678715},{"NoteNumber":34,"Velocity":29,"Duration":140042,"SoundDuration":140042,"Delta":405773314},{"NoteNumber":35,"Velocity":25,"Duration":141349,"SoundDuration":141349,"Delta":405867191},{"NoteNumber":34,"Velocity":28,"Duration":142578,"SoundDuration":142578,"Delta":405960492},{"NoteNumber":35,"Velocity":26,"Duration":140476,"SoundDuration":140476,"Delta":406056314},{"NoteNumber":34,"Velocity":27,"Duration":142217,"SoundDuration":142217,"Delta":406149431},{"NoteNumber":35,"Velocity":25,"Duration":141851,"SoundDuration":141851,"Delta":406244513},{"NoteNumber":34,"Velocity":29,"Duration":143804,"SoundDuration":143804,"Delta":406338032},{"NoteNumber":35,"Velocity":26,"Duration":141828,"SoundDuration":141828,"Delta":406434746},{"NoteNumber":34,"Velocity":28,"Duration":142020,"SoundDuration":142020,"Delta":406528527},{"NoteNumber":35,"Velocity":26,"Duration":140951,"SoundDuration":140951,"Delta":406624120},{"NoteNumber":34,"Velocity":28,"Duration":142112,"SoundDuration":142112,"Delta":406717372},{"NoteNumber":35,"Velocity":25,"Duration":140275,"SoundDuration":140275,"Delta":406812728},{"NoteNumber":34,"Velocity":28,"Duration":140953,"SoundDuration":140953,"Delta":406905976},{"NoteNumber":35,"Velocity":25,"Duration":138677,"SoundDuration":138677,"Delta":407000841},{"NoteNumber":70,"Velocity":51,"Duration":844091,"SoundDuration":844091,"Delta":407089519},{"NoteNumber":34,"Velocity":30,"Duration":236051,"SoundDuration":236051,"Delta":407089519},{"NoteNumber":33,"Velocity":26,"Duration":242839,"SoundDuration":242839,"Delta":407291324},{"NoteNumber":32,"Velocity":30,"Duration":250282,"SoundDuration":250282,"Delta":407498952},{"NoteNumber":31,"Velocity":26,"Duration":258202,"SoundDuration":258202,"Delta":407713003},{"NoteNumber":70,"Velocity":52,"Duration":781119,"SoundDuration":781119,"Delta":407933611},{"NoteNumber":30,"Velocity":30,"Duration":225564,"SoundDuration":225564,"Delta":407933611},{"NoteNumber":49,"Velocity":26,"Duration":185185,"SoundDuration":185185,"Delta":408159175},{"NoteNumber":54,"Velocity":26,"Duration":185185,"SoundDuration":185185,"Delta":408344360},{"NoteNumber":49,"Velocity":26,"Duration":185185,"SoundDuration":185185,"Delta":408529545},{"NoteNumber":68,"Velocity":51,"Duration":725108,"SoundDuration":725108,"Delta":408714731},{"NoteNumber":42,"Velocity":31,"Duration":182926,"SoundDuration":182926,"Delta":408714731},{"NoteNumber":49,"Velocity":26,"Duration":181818,"SoundDuration":181818,"Delta":408897657},{"NoteNumber":53,"Velocity":26,"Duration":180723,"SoundDuration":180723,"Delta":409079476},{"NoteNumber":49,"Velocity":25,"Duration":179640,"SoundDuration":179640,"Delta":409260199},{"NoteNumber":70,"Velocity":52,"Duration":718580,"SoundDuration":718580,"Delta":409439839},{"NoteNumber":42,"Velocity":30,"Duration":178571,"SoundDuration":178571,"Delta":409439839},{"NoteNumber":49,"Velocity":27,"Duration":179284,"SoundDuration":179284,"Delta":409618411},{"NoteNumber":54,"Velocity":27,"Duration":180001,"SoundDuration":180001,"Delta":409797695},{"NoteNumber":49,"Velocity":27,"Duration":180723,"SoundDuration":180723,"Delta":409977697},{"NoteNumber":71,"Velocity":50,"Duration":727273,"SoundDuration":727273,"Delta":410158420},{"NoteNumber":42,"Velocity":30,"Duration":181818,"SoundDuration":181818,"Delta":410158420},{"NoteNumber":49,"Velocity":27,"Duration":181818,"SoundDuration":181818,"Delta":410340238},{"NoteNumber":56,"Velocity":27,"Duration":181818,"SoundDuration":181818,"Delta":410522056},{"NoteNumber":49,"Velocity":27,"Duration":181818,"SoundDuration":181818,"Delta":410703875},{"NoteNumber":73,"Velocity":52,"Duration":2133678,"SoundDuration":2133678,"Delta":410885693},{"NoteNumber":42,"Velocity":33,"Duration":179490,"SoundDuration":179490,"Delta":410885693},{"NoteNumber":49,"Velocity":27,"Duration":179490,"SoundDuration":179490,"Delta":411065183},{"NoteNumber":58,"Velocity":27,"Duration":179490,"SoundDuration":179490,"Delta":411244673},{"NoteNumber":49,"Velocity":27,"Duration":179077,"SoundDuration":179077,"Delta":411424164},{"NoteNumber":42,"Velocity":31,"Duration":178252,"SoundDuration":178252,"Delta":411603241},{"NoteNumber":49,"Velocity":27,"Duration":178253,"SoundDuration":178253,"Delta":411781494},{"NoteNumber":58,"Velocity":27,"Duration":176991,"SoundDuration":176991,"Delta":411959747},{"NoteNumber":49,"Velocity":27,"Duration":176991,"SoundDuration":176991,"Delta":412136739},{"NoteNumber":42,"Velocity":30,"Duration":175829,"SoundDuration":175829,"Delta":412313730},{"NoteNumber":49,"Velocity":27,"Duration":175829,"SoundDuration":175829,"Delta":412489559},{"NoteNumber":58,"Velocity":27,"Duration":176991,"SoundDuration":176991,"Delta":412665388},{"NoteNumber":49,"Velocity":27,"Duration":176991,"SoundDuration":176991,"Delta":412842380},{"NoteNumber":71,"Velocity":55,"Duration":356506,"SoundDuration":356506,"Delta":413019371},{"NoteNumber":42,"Velocity":31,"Duration":178252,"SoundDuration":178252,"Delta":413019371},{"NoteNumber":49,"Velocity":25,"Duration":178253,"SoundDuration":178253,"Delta":413197624},{"NoteNumber":70,"Velocity":52,"Duration":356505,"SoundDuration":356505,"Delta":413375877},{"NoteNumber":54,"Velocity":28,"Duration":178252,"SoundDuration":178252,"Delta":413375877},{"NoteNumber":49,"Velocity":27,"Duration":178252,"SoundDuration":178252,"Delta":413554130},{"NoteNumber":75,"Velocity":58,"Duration":356506,"SoundDuration":356506,"Delta":413732383},{"NoteNumber":42,"Velocity":33,"Duration":178252,"SoundDuration":178252,"Delta":413732383},{"NoteNumber":51,"Velocity":27,"Duration":178253,"SoundDuration":178253,"Delta":413910636},{"NoteNumber":59,"Velocity":27,"Duration":178252,"SoundDuration":178252,"Delta":414088889},{"NoteNumber":51,"Velocity":27,"Duration":178252,"SoundDuration":178252,"Delta":414267142},{"NoteNumber":75,"Velocity":54,"Duration":351658,"SoundDuration":351658,"Delta":414445395},{"NoteNumber":42,"Velocity":32,"Duration":175829,"SoundDuration":175829,"Delta":414445395},{"NoteNumber":51,"Velocity":27,"Duration":175829,"SoundDuration":175829,"Delta":414621224},{"NoteNumber":59,"Velocity":27,"Duration":175829,"SoundDuration":175829,"Delta":414797053},{"NoteNumber":51,"Velocity":27,"Duration":175829,"SoundDuration":175829,"Delta":414972883},{"NoteNumber":75,"Velocity":54,"Duration":351658,"SoundDuration":351658,"Delta":415148712},{"NoteNumber":42,"Velocity":32,"Duration":175829,"SoundDuration":175829,"Delta":415148712},{"NoteNumber":51,"Velocity":27,"Duration":175829,"SoundDuration":175829,"Delta":415324541},{"NoteNumber":59,"Velocity":27,"Duration":175829,"SoundDuration":175829,"Delta":415500370},{"NoteNumber":51,"Velocity":27,"Duration":175829,"SoundDuration":175829,"Delta":415676200},{"NoteNumber":77,"Velocity":56,"Duration":377358,"SoundDuration":377358,"Delta":415852029},{"NoteNumber":42,"Velocity":33,"Duration":188679,"SoundDuration":188679,"Delta":415852029},{"NoteNumber":51,"Velocity":27,"Duration":188679,"SoundDuration":188679,"Delta":416040708},{"NoteNumber":78,"Velocity":51,"Duration":358980,"SoundDuration":358980,"Delta":416229387},{"NoteNumber":59,"Velocity":31,"Duration":179490,"SoundDuration":179490,"Delta":416229387},{"NoteNumber":51,"Velocity":27,"Duration":179490,"SoundDuration":179490,"Delta":416408878},{"NoteNumber":73,"Velocity":54,"Duration":2135806,"SoundDuration":2135806,"Delta":416588368},{"NoteNumber":42,"Velocity":33,"Duration":179490,"SoundDuration":179490,"Delta":416588368},{"NoteNumber":49,"Velocity":28,"Duration":179490,"SoundDuration":179490,"Delta":416767858},{"NoteNumber":58,"Velocity":28,"Duration":179490,"SoundDuration":179490,"Delta":416947348},{"NoteNumber":49,"Velocity":28,"Duration":179490,"SoundDuration":179490,"Delta":417126839},{"NoteNumber":42,"Velocity":33,"Duration":179490,"SoundDuration":179490,"Delta":417306329},{"NoteNumber":49,"Velocity":27,"Duration":178665,"SoundDuration":178665,"Delta":417485819},{"NoteNumber":58,"Velocity":28,"Duration":177832,"SoundDuration":177832,"Delta":417664485},{"NoteNumber":49,"Velocity":27,"Duration":176603,"SoundDuration":176603,"Delta":417842317},{"NoteNumber":42,"Velocity":33,"Duration":175829,"SoundDuration":175829,"Delta":418018921},{"NoteNumber":49,"Velocity":28,"Duration":175829,"SoundDuration":175829,"Delta":418194750},{"NoteNumber":58,"Velocity":29,"Duration":176603,"SoundDuration":176603,"Delta":418370579},{"NoteNumber":49,"Velocity":29,"Duration":176991,"SoundDuration":176991,"Delta":418547183},{"NoteNumber":71,"Velocity":52,"Duration":356506,"SoundDuration":356506,"Delta":418724175},{"NoteNumber":42,"Velocity":33,"Duration":178252,"SoundDuration":178252,"Delta":418724175},{"NoteNumber":49,"Velocity":27,"Duration":178253,"SoundDuration":178253,"Delta":418902428},{"NoteNumber":70,"Velocity":51,"Duration":356505,"SoundDuration":356505,"Delta":419080681},{"NoteNumber":54,"Velocity":31,"Duration":178252,"SoundDuration":178252,"Delta":419080681},{"NoteNumber":49,"Velocity":27,"Duration":178252,"SoundDuration":178252,"Delta":419258934},{"NoteNumber":71,"Velocity":52,"Duration":703317,"SoundDuration":703317,"Delta":419437187},{"NoteNumber":42,"Velocity":33,"Duration":175829,"SoundDuration":175829,"Delta":419437187},{"NoteNumber":51,"Velocity":28,"Duration":175829,"SoundDuration":175829,"Delta":419613016},{"NoteNumber":59,"Velocity":28,"Duration":175829,"SoundDuration":175829,"Delta":419788845},{"NoteNumber":51,"Velocity":28,"Duration":175829,"SoundDuration":175829,"Delta":419964674},{"NoteNumber":75,"Velocity":52,"Duration":703316,"SoundDuration":703316,"Delta":420140504},{"NoteNumber":42,"Velocity":33,"Duration":175829,"SoundDuration":175829,"Delta":420140504},{"NoteNumber":51,"Velocity":29,"Duration":175829,"SoundDuration":175829,"Delta":420316333},{"NoteNumber":59,"Velocity":29,"Duration":175829,"SoundDuration":175829,"Delta":420492162},{"NoteNumber":51,"Velocity":29,"Duration":175829,"SoundDuration":175829,"Delta":420667991},{"NoteNumber":68,"Velocity":52,"Duration":713011,"SoundDuration":713011,"Delta":420843821},{"NoteNumber":42,"Velocity":33,"Duration":178252,"SoundDuration":178252,"Delta":420843821},{"NoteNumber":49,"Velocity":28,"Duration":178253,"SoundDuration":178253,"Delta":421022074},{"NoteNumber":53,"Velocity":28,"Duration":178252,"SoundDuration":178252,"Delta":421200327},{"NoteNumber":49,"Velocity":27,"Duration":178252,"SoundDuration":178252,"Delta":421378580},{"NoteNumber":71,"Velocity":52,"Duration":713011,"SoundDuration":713011,"Delta":421556833},{"NoteNumber":42,"Velocity":31,"Duration":178252,"SoundDuration":178252,"Delta":421556833},{"NoteNumber":49,"Velocity":27,"Duration":178253,"SoundDuration":178253,"Delta":421735086},{"NoteNumber":56,"Velocity":28,"Duration":178252,"SoundDuration":178252,"Delta":421913339},{"NoteNumber":49,"Velocity":28,"Duration":178252,"SoundDuration":178252,"Delta":422091592},{"NoteNumber":70,"Velocity":54,"Duration":717961,"SoundDuration":717961,"Delta":422269845},{"NoteNumber":42,"Velocity":33,"Duration":179490,"SoundDuration":179490,"Delta":422269845},{"NoteNumber":49,"Velocity":28,"Duration":179490,"SoundDuration":179490,"Delta":422449335},{"NoteNumber":58,"Velocity":28,"Duration":179490,"SoundDuration":179490,"Delta":422628825},{"NoteNumber":49,"Velocity":28,"Duration":179490,"SoundDuration":179490,"Delta":422808315},{"NoteNumber":66,"Velocity":51,"Duration":1064250,"SoundDuration":1064250,"Delta":422987806},{"NoteNumber":78,"Velocity":61,"Duration":1064250,"SoundDuration":1064250,"Delta":422987806},{"NoteNumber":42,"Velocity":33,"Duration":179490,"SoundDuration":179490,"Delta":422987806},{"NoteNumber":49,"Velocity":27,"Duration":178665,"SoundDuration":178665,"Delta":423167296},{"NoteNumber":58,"Velocity":28,"Duration":177832,"SoundDuration":177832,"Delta":423345961},{"NoteNumber":49,"Velocity":27,"Duration":176603,"SoundDuration":176603,"Delta":423523794},{"NoteNumber":42,"Velocity":33,"Duration":175829,"SoundDuration":175829,"Delta":423700398},{"NoteNumber":49,"Velocity":28,"Duration":175829,"SoundDuration":175829,"Delta":423876227},{"NoteNumber":65,"Velocity":45,"Duration":353595,"SoundDuration":353595,"Delta":424052056},{"NoteNumber":77,"Velocity":53,"Duration":353595,"SoundDuration":353595,"Delta":424052056},{"NoteNumber":58,"Velocity":29,"Duration":176603,"SoundDuration":176603,"Delta":424052056},{"NoteNumber":49,"Velocity":29,"Duration":176991,"SoundDuration":176991,"Delta":424228660},{"NoteNumber":63,"Velocity":47,"Duration":356506,"SoundDuration":356506,"Delta":424405651},{"NoteNumber":75,"Velocity":56,"Duration":356506,"SoundDuration":356506,"Delta":424405651},{"NoteNumber":42,"Velocity":33,"Duration":178252,"SoundDuration":178252,"Delta":424405651},{"NoteNumber":49,"Velocity":27,"Duration":178253,"SoundDuration":178253,"Delta":424583904},{"NoteNumber":61,"Velocity":43,"Duration":356505,"SoundDuration":356505,"Delta":424762157},{"NoteNumber":73,"Velocity":51,"Duration":356505,"SoundDuration":356505,"Delta":424762157},{"NoteNumber":58,"Velocity":31,"Duration":178252,"SoundDuration":178252,"Delta":424762157},{"NoteNumber":49,"Velocity":27,"Duration":178252,"SoundDuration":178252,"Delta":424940410},{"NoteNumber":59,"Velocity":46,"Duration":703317,"SoundDuration":703317,"Delta":425118663},{"NoteNumber":71,"Velocity":54,"Duration":703317,"SoundDuration":703317,"Delta":425118663},{"NoteNumber":42,"Velocity":33,"Duration":175829,"SoundDuration":175829,"Delta":425118663},{"NoteNumber":51,"Velocity":28,"Duration":175829,"SoundDuration":175829,"Delta":425294492},{"NoteNumber":54,"Velocity":28,"Duration":175829,"SoundDuration":175829,"Delta":425470322},{"NoteNumber":51,"Velocity":28,"Duration":175829,"SoundDuration":175829,"Delta":425646151},{"NoteNumber":75,"Velocity":56,"Duration":703316,"SoundDuration":703316,"Delta":425821980},{"NoteNumber":42,"Velocity":33,"Duration":175829,"SoundDuration":175829,"Delta":425821980},{"NoteNumber":51,"Velocity":29,"Duration":175829,"SoundDuration":175829,"Delta":425997809},{"NoteNumber":59,"Velocity":29,"Duration":175829,"SoundDuration":175829,"Delta":426173639},{"NoteNumber":51,"Velocity":29,"Duration":175829,"SoundDuration":175829,"Delta":426349468},{"NoteNumber":68,"Velocity":54,"Duration":713011,"SoundDuration":713011,"Delta":426525297},{"NoteNumber":42,"Velocity":33,"Duration":178252,"SoundDuration":178252,"Delta":426525297},{"NoteNumber":49,"Velocity":28,"Duration":178253,"SoundDuration":178253,"Delta":426703550},{"NoteNumber":53,"Velocity":28,"Duration":178252,"SoundDuration":178252,"Delta":426881803},{"NoteNumber":49,"Velocity":27,"Duration":178252,"SoundDuration":178252,"Delta":427060056},{"NoteNumber":70,"Velocity":52,"Duration":356506,"SoundDuration":356506,"Delta":427238309},{"NoteNumber":42,"Velocity":31,"Duration":178252,"SoundDuration":178252,"Delta":427238309},{"NoteNumber":49,"Velocity":27,"Duration":178253,"SoundDuration":178253,"Delta":427416562},{"NoteNumber":71,"Velocity":52,"Duration":356505,"SoundDuration":356505,"Delta":427594815},{"NoteNumber":56,"Velocity":28,"Duration":178252,"SoundDuration":178252,"Delta":427594815},{"NoteNumber":49,"Velocity":28,"Duration":178252,"SoundDuration":178252,"Delta":427773068},{"NoteNumber":70,"Velocity":55,"Duration":331491,"SoundDuration":331491,"Delta":427951321},{"NoteNumber":42,"Velocity":33,"Duration":82872,"SoundDuration":82872,"Delta":427951321},{"NoteNumber":58,"Velocity":28,"Duration":165745,"SoundDuration":165745,"Delta":428117067},{"NoteNumber":73,"Velocity":52,"Duration":340909,"SoundDuration":340909,"Delta":428282813},{"NoteNumber":54,"Velocity":28,"Duration":170454,"SoundDuration":170454,"Delta":428282813},{"NoteNumber":58,"Velocity":28,"Duration":170454,"SoundDuration":170454,"Delta":428453267},{"NoteNumber":82,"Velocity":56,"Duration":331491,"SoundDuration":331491,"Delta":428623722},{"NoteNumber":54,"Velocity":33,"Duration":165745,"SoundDuration":165745,"Delta":428623722},{"NoteNumber":58,"Velocity":29,"Duration":165745,"SoundDuration":165745,"Delta":428789467},{"NoteNumber":78,"Velocity":52,"Duration":338982,"SoundDuration":338982,"Delta":428955213},{"NoteNumber":54,"Velocity":29,"Duration":169491,"SoundDuration":169491,"Delta":428955213},{"NoteNumber":58,"Velocity":29,"Duration":169491,"SoundDuration":169491,"Delta":429124705},{"NoteNumber":73,"Velocity":56,"Duration":322580,"SoundDuration":322580,"Delta":429294196},{"NoteNumber":42,"Velocity":33,"Duration":80645,"SoundDuration":80645,"Delta":429294196},{"NoteNumber":58,"Velocity":28,"Duration":161290,"SoundDuration":161290,"Delta":429455486},{"NoteNumber":70,"Velocity":52,"Duration":329670,"SoundDuration":329670,"Delta":429616777},{"NoteNumber":54,"Velocity":28,"Duration":164835,"SoundDuration":164835,"Delta":429616777},{"NoteNumber":58,"Velocity":27,"Duration":164835,"SoundDuration":164835,"Delta":429781612},{"NoteNumber":78,"Velocity":55,"Duration":322789,"SoundDuration":322789,"Delta":429946447},{"NoteNumber":54,"Velocity":31,"Duration":161394,"SoundDuration":161394,"Delta":429946447},{"NoteNumber":58,"Velocity":27,"Duration":161394,"SoundDuration":161394,"Delta":430107842},{"NoteNumber":74,"Velocity":52,"Duration":329561,"SoundDuration":329561,"Delta":430269236},{"NoteNumber":54,"Velocity":28,"Duration":164780,"SoundDuration":164780,"Delta":430269236},{"NoteNumber":58,"Velocity":28,"Duration":164780,"SoundDuration":164780,"Delta":430434017},{"NoteNumber":75,"Velocity":55,"Duration":322789,"SoundDuration":322789,"Delta":430598798},{"NoteNumber":42,"Velocity":33,"Duration":80697,"SoundDuration":80697,"Delta":430598798},{"NoteNumber":59,"Velocity":28,"Duration":161394,"SoundDuration":161394,"Delta":430760192},{"NoteNumber":71,"Velocity":52,"Duration":326086,"SoundDuration":326086,"Delta":430921587},{"NoteNumber":54,"Velocity":28,"Duration":163043,"SoundDuration":163043,"Delta":430921587},{"NoteNumber":59,"Velocity":28,"Duration":163043,"SoundDuration":163043,"Delta":431084630},{"NoteNumber":83,"Velocity":56,"Duration":319148,"SoundDuration":319148,"Delta":431247674},{"NoteNumber":54,"Velocity":33,"Duration":159574,"SoundDuration":159574,"Delta":431247674},{"NoteNumber":59,"Velocity":29,"Duration":159574,"SoundDuration":159574,"Delta":431407248},{"NoteNumber":80,"Velocity":54,"Duration":324324,"SoundDuration":324324,"Delta":431566823},{"NoteNumber":54,"Velocity":29,"Duration":162162,"SoundDuration":162162,"Delta":431566823},{"NoteNumber":59,"Velocity":29,"Duration":162162,"SoundDuration":162162,"Delta":431728985},{"NoteNumber":77,"Velocity":58,"Duration":312989,"SoundDuration":312989,"Delta":431891147},{"NoteNumber":42,"Velocity":33,"Duration":78247,"SoundDuration":78247,"Delta":431891147},{"NoteNumber":59,"Velocity":28,"Duration":156494,"SoundDuration":156494,"Delta":432047642},{"NoteNumber":80,"Velocity":56,"Duration":320341,"SoundDuration":320341,"Delta":432204136},{"NoteNumber":54,"Velocity":28,"Duration":160170,"SoundDuration":160170,"Delta":432204136},{"NoteNumber":59,"Velocity":27,"Duration":160170,"SoundDuration":160170,"Delta":432364307},{"NoteNumber":85,"Velocity":58,"Duration":312989,"SoundDuration":312989,"Delta":432524478},{"NoteNumber":54,"Velocity":31,"Duration":156494,"SoundDuration":156494,"Delta":432524478},{"NoteNumber":59,"Velocity":27,"Duration":156494,"SoundDuration":156494,"Delta":432680972},{"NoteNumber":81,"Velocity":54,"Duration":326158,"SoundDuration":326158,"Delta":432837467},{"NoteNumber":54,"Velocity":28,"Duration":163078,"SoundDuration":163078,"Delta":432837467},{"NoteNumber":59,"Velocity":28,"Duration":163079,"SoundDuration":163079,"Delta":433000546},{"NoteNumber":82,"Velocity":57,"Duration":322789,"SoundDuration":322789,"Delta":433163625},{"NoteNumber":42,"Velocity":33,"Duration":80697,"SoundDuration":80697,"Delta":433163625},{"NoteNumber":58,"Velocity":28,"Duration":161394,"SoundDuration":161394,"Delta":433325019},{"NoteNumber":78,"Velocity":54,"Duration":318370,"SoundDuration":318370,"Delta":433486414},{"NoteNumber":54,"Velocity":28,"Duration":159184,"SoundDuration":159184,"Delta":433486414},{"NoteNumber":58,"Velocity":28,"Duration":159185,"SoundDuration":159185,"Delta":433645599},{"NoteNumber":82,"Velocity":57,"Duration":147928,"SoundDuration":147928,"Delta":433804784},{"NoteNumber":54,"Velocity":33,"Duration":147928,"SoundDuration":147928,"Delta":433804784},{"NoteNumber":78,"Velocity":51,"Duration":147929,"SoundDuration":147929,"Delta":433952713},{"NoteNumber":58,"Velocity":29,"Duration":147929,"SoundDuration":147929,"Delta":433952713},{"NoteNumber":82,"Velocity":56,"Duration":152952,"SoundDuration":152952,"Delta":434100642},{"NoteNumber":54,"Velocity":29,"Duration":152952,"SoundDuration":152952,"Delta":434100642},{"NoteNumber":78,"Velocity":50,"Duration":152951,"SoundDuration":152951,"Delta":434253594},{"NoteNumber":58,"Velocity":29,"Duration":152951,"SoundDuration":152951,"Delta":434253594},{"NoteNumber":73,"Velocity":56,"Duration":147928,"SoundDuration":147928,"Delta":434406546},{"NoteNumber":42,"Velocity":33,"Duration":73964,"SoundDuration":73964,"Delta":434406546},{"NoteNumber":70,"Velocity":52,"Duration":147929,"SoundDuration":147929,"Delta":434554475},{"NoteNumber":58,"Velocity":28,"Duration":147929,"SoundDuration":147929,"Delta":434554475},{"NoteNumber":73,"Velocity":56,"Duration":152952,"SoundDuration":152952,"Delta":434702404},{"NoteNumber":54,"Velocity":28,"Duration":152952,"SoundDuration":152952,"Delta":434702404},{"NoteNumber":70,"Velocity":53,"Duration":152951,"SoundDuration":152951,"Delta":434855356},{"NoteNumber":58,"Velocity":27,"Duration":152951,"SoundDuration":152951,"Delta":434855356},{"NoteNumber":78,"Velocity":58,"Duration":156494,"SoundDuration":156494,"Delta":435008308},{"NoteNumber":54,"Velocity":31,"Duration":156494,"SoundDuration":156494,"Delta":435008308},{"NoteNumber":74,"Velocity":53,"Duration":156494,"SoundDuration":156494,"Delta":435164802},{"NoteNumber":58,"Velocity":27,"Duration":156494,"SoundDuration":156494,"Delta":435164802},{"NoteNumber":78,"Velocity":57,"Duration":159252,"SoundDuration":159252,"Delta":435321297},{"NoteNumber":54,"Velocity":28,"Duration":159252,"SoundDuration":159252,"Delta":435321297},{"NoteNumber":74,"Velocity":52,"Duration":159252,"SoundDuration":159252,"Delta":435480549},{"NoteNumber":58,"Velocity":28,"Duration":159252,"SoundDuration":159252,"Delta":435480549},{"NoteNumber":75,"Velocity":57,"Duration":154702,"SoundDuration":154702,"Delta":435639802},{"NoteNumber":42,"Velocity":33,"Duration":77351,"SoundDuration":77351,"Delta":435639802},{"NoteNumber":71,"Velocity":52,"Duration":154703,"SoundDuration":154703,"Delta":435794505},{"NoteNumber":59,"Velocity":28,"Duration":154703,"SoundDuration":154703,"Delta":435794505},{"NoteNumber":75,"Velocity":54,"Duration":150391,"SoundDuration":150391,"Delta":435949208},{"NoteNumber":54,"Velocity":28,"Duration":150391,"SoundDuration":150391,"Delta":435949208},{"NoteNumber":71,"Velocity":52,"Duration":150391,"SoundDuration":150391,"Delta":436099599},{"NoteNumber":59,"Velocity":28,"Duration":150391,"SoundDuration":150391,"Delta":436099599},{"NoteNumber":83,"Velocity":57,"Duration":150390,"SoundDuration":150390,"Delta":436249990},{"NoteNumber":54,"Velocity":33,"Duration":150390,"SoundDuration":150390,"Delta":436249990},{"NoteNumber":80,"Velocity":51,"Duration":150391,"SoundDuration":150391,"Delta":436400381},{"NoteNumber":59,"Velocity":29,"Duration":150391,"SoundDuration":150391,"Delta":436400381},{"NoteNumber":83,"Velocity":56,"Duration":154702,"SoundDuration":154702,"Delta":436550772},{"NoteNumber":54,"Velocity":29,"Duration":154702,"SoundDuration":154702,"Delta":436550772},{"NoteNumber":80,"Velocity":50,"Duration":154703,"SoundDuration":154703,"Delta":436705475},{"NoteNumber":59,"Velocity":29,"Duration":154703,"SoundDuration":154703,"Delta":436705475},{"NoteNumber":77,"Velocity":56,"Duration":152952,"SoundDuration":152952,"Delta":436860178},{"NoteNumber":42,"Velocity":33,"Duration":76476,"SoundDuration":76476,"Delta":436860178},{"NoteNumber":80,"Velocity":52,"Duration":152951,"SoundDuration":152951,"Delta":437013130},{"NoteNumber":59,"Velocity":28,"Duration":152951,"SoundDuration":152951,"Delta":437013130},{"NoteNumber":77,"Velocity":56,"Duration":156494,"SoundDuration":156494,"Delta":437166082},{"NoteNumber":54,"Velocity":28,"Duration":156494,"SoundDuration":156494,"Delta":437166082},{"NoteNumber":80,"Velocity":53,"Duration":156494,"SoundDuration":156494,"Delta":437322576},{"NoteNumber":59,"Velocity":27,"Duration":156494,"SoundDuration":156494,"Delta":437322576},{"NoteNumber":85,"Velocity":58,"Duration":161394,"SoundDuration":161394,"Delta":437479071},{"NoteNumber":54,"Velocity":31,"Duration":161394,"SoundDuration":161394,"Delta":437479071},{"NoteNumber":81,"Velocity":53,"Duration":161394,"SoundDuration":161394,"Delta":437640465},{"NoteNumber":59,"Velocity":27,"Duration":161394,"SoundDuration":161394,"Delta":437640465},{"NoteNumber":85,"Velocity":57,"Duration":169549,"SoundDuration":169549,"Delta":437801860},{"NoteNumber":54,"Velocity":28,"Duration":169549,"SoundDuration":169549,"Delta":437801860},{"NoteNumber":81,"Velocity":52,"Duration":169548,"SoundDuration":169548,"Delta":437971409},{"NoteNumber":59,"Velocity":28,"Duration":169548,"SoundDuration":169548,"Delta":437971409},{"NoteNumber":82,"Velocity":57,"Duration":157397,"SoundDuration":157397,"Delta":438140958},{"NoteNumber":42,"Velocity":33,"Duration":78698,"SoundDuration":78698,"Delta":438140958},{"NoteNumber":81,"Velocity":53,"Duration":157397,"SoundDuration":157397,"Delta":438298355},{"NoteNumber":58,"Velocity":28,"Duration":157397,"SoundDuration":157397,"Delta":438298355},{"NoteNumber":82,"Velocity":52,"Duration":153814,"SoundDuration":153814,"Delta":438455753},{"NoteNumber":54,"Velocity":28,"Duration":153814,"SoundDuration":153814,"Delta":438455753},{"NoteNumber":77,"Velocity":52,"Duration":153814,"SoundDuration":153814,"Delta":438609568},{"NoteNumber":58,"Velocity":28,"Duration":153814,"SoundDuration":153814,"Delta":438609568},{"NoteNumber":78,"Velocity":57,"Duration":150391,"SoundDuration":150391,"Delta":438763382},{"NoteNumber":54,"Velocity":33,"Duration":150391,"SoundDuration":150391,"Delta":438763382},{"NoteNumber":77,"Velocity":51,"Duration":150391,"SoundDuration":150391,"Delta":438913773},{"NoteNumber":58,"Velocity":29,"Duration":150391,"SoundDuration":150391,"Delta":438913773},{"NoteNumber":78,"Velocity":51,"Duration":155569,"SoundDuration":155569,"Delta":439064164},{"NoteNumber":54,"Velocity":29,"Duration":155569,"SoundDuration":155569,"Delta":439064164},{"NoteNumber":72,"Velocity":50,"Duration":155569,"SoundDuration":155569,"Delta":439219734},{"NoteNumber":58,"Velocity":29,"Duration":155569,"SoundDuration":155569,"Delta":439219734},{"NoteNumber":73,"Velocity":55,"Duration":152952,"SoundDuration":152952,"Delta":439375303},{"NoteNumber":54,"Velocity":33,"Duration":152952,"SoundDuration":152952,"Delta":439375303},{"NoteNumber":72,"Velocity":51,"Duration":152951,"SoundDuration":152951,"Delta":439528255},{"NoteNumber":58,"Velocity":28,"Duration":152951,"SoundDuration":152951,"Delta":439528255},{"NoteNumber":73,"Velocity":51,"Duration":156494,"SoundDuration":156494,"Delta":439681207},{"NoteNumber":54,"Velocity":28,"Duration":156494,"SoundDuration":156494,"Delta":439681207},{"NoteNumber":69,"Velocity":51,"Duration":156494,"SoundDuration":156494,"Delta":439837702},{"NoteNumber":58,"Velocity":27,"Duration":156494,"SoundDuration":156494,"Delta":439837702},{"NoteNumber":70,"Velocity":54,"Duration":158311,"SoundDuration":158311,"Delta":439994196},{"NoteNumber":54,"Velocity":31,"Duration":158311,"SoundDuration":158311,"Delta":439994196},{"NoteNumber":69,"Velocity":47,"Duration":158311,"SoundDuration":158311,"Delta":440152507},{"NoteNumber":58,"Velocity":27,"Duration":158311,"SoundDuration":158311,"Delta":440152507},{"NoteNumber":70,"Velocity":49,"Duration":162109,"SoundDuration":162109,"Delta":440310819},{"NoteNumber":54,"Velocity":28,"Duration":162109,"SoundDuration":162109,"Delta":440310819},{"NoteNumber":65,"Velocity":47,"Duration":162109,"SoundDuration":162109,"Delta":440472928},{"NoteNumber":58,"Velocity":28,"Duration":162109,"SoundDuration":162109,"Delta":440472928},{"NoteNumber":66,"Velocity":57,"Duration":158311,"SoundDuration":158311,"Delta":440635038},{"NoteNumber":42,"Velocity":33,"Duration":79155,"SoundDuration":79155,"Delta":440635038},{"NoteNumber":81,"Velocity":53,"Duration":158311,"SoundDuration":158311,"Delta":440793349},{"NoteNumber":58,"Velocity":28,"Duration":158311,"SoundDuration":158311,"Delta":440793349},{"NoteNumber":82,"Velocity":52,"Duration":155569,"SoundDuration":155569,"Delta":440951660},{"NoteNumber":54,"Velocity":28,"Duration":155569,"SoundDuration":155569,"Delta":440951660},{"NoteNumber":77,"Velocity":52,"Duration":155569,"SoundDuration":155569,"Delta":441107230},{"NoteNumber":58,"Velocity":28,"Duration":155569,"SoundDuration":155569,"Delta":441107230},{"NoteNumber":78,"Velocity":57,"Duration":152083,"SoundDuration":152083,"Delta":441262799},{"NoteNumber":54,"Velocity":33,"Duration":152083,"SoundDuration":152083,"Delta":441262799},{"NoteNumber":77,"Velocity":51,"Duration":152083,"SoundDuration":152083,"Delta":441414883},{"NoteNumber":58,"Velocity":29,"Duration":152083,"SoundDuration":152083,"Delta":441414883},{"NoteNumber":78,"Velocity":51,"Duration":155569,"SoundDuration":155569,"Delta":441566966},{"NoteNumber":54,"Velocity":29,"Duration":155569,"SoundDuration":155569,"Delta":441566966},{"NoteNumber":72,"Velocity":50,"Duration":155569,"SoundDuration":155569,"Delta":441722536},{"NoteNumber":58,"Velocity":29,"Duration":155569,"SoundDuration":155569,"Delta":441722536},{"NoteNumber":73,"Velocity":55,"Duration":151225,"SoundDuration":151225,"Delta":441878105},{"NoteNumber":54,"Velocity":33,"Duration":151225,"SoundDuration":151225,"Delta":441878105},{"NoteNumber":72,"Velocity":51,"Duration":151225,"SoundDuration":151225,"Delta":442029330},{"NoteNumber":58,"Velocity":28,"Duration":151225,"SoundDuration":151225,"Delta":442029330},{"NoteNumber":73,"Velocity":51,"Duration":157397,"SoundDuration":157397,"Delta":442180555},{"NoteNumber":54,"Velocity":28,"Duration":157397,"SoundDuration":157397,"Delta":442180555},{"NoteNumber":69,"Velocity":51,"Duration":157397,"SoundDuration":157397,"Delta":442337953},{"NoteNumber":58,"Velocity":27,"Duration":157397,"SoundDuration":157397,"Delta":442337953},{"NoteNumber":70,"Velocity":54,"Duration":152952,"SoundDuration":152952,"Delta":442495351},{"NoteNumber":54,"Velocity":31,"Duration":152952,"SoundDuration":152952,"Delta":442495351},{"NoteNumber":69,"Velocity":47,"Duration":152951,"SoundDuration":152951,"Delta":442648303},{"NoteNumber":58,"Velocity":27,"Duration":152951,"SoundDuration":152951,"Delta":442648303},{"NoteNumber":70,"Velocity":49,"Duration":158311,"SoundDuration":158311,"Delta":442801255},{"NoteNumber":54,"Velocity":28,"Duration":158311,"SoundDuration":158311,"Delta":442801255},{"NoteNumber":65,"Velocity":47,"Duration":158311,"SoundDuration":158311,"Delta":442959566},{"NoteNumber":58,"Velocity":28,"Duration":158311,"SoundDuration":158311,"Delta":442959566},{"NoteNumber":66,"Velocity":53,"Duration":157397,"SoundDuration":157397,"Delta":443117877},{"NoteNumber":54,"Velocity":33,"Duration":157397,"SoundDuration":157397,"Delta":443117877},{"NoteNumber":65,"Velocity":49,"Duration":157397,"SoundDuration":157397,"Delta":443275275},{"NoteNumber":58,"Velocity":28,"Duration":157397,"SoundDuration":157397,"Delta":443275275},{"NoteNumber":66,"Velocity":49,"Duration":155569,"SoundDuration":155569,"Delta":443432673},{"NoteNumber":54,"Velocity":28,"Duration":155569,"SoundDuration":155569,"Delta":443432673},{"NoteNumber":68,"Velocity":49,"Duration":155569,"SoundDuration":155569,"Delta":443588242},{"NoteNumber":58,"Velocity":28,"Duration":155569,"SoundDuration":155569,"Delta":443588242},{"NoteNumber":70,"Velocity":55,"Duration":155569,"SoundDuration":155569,"Delta":443743812},{"NoteNumber":54,"Velocity":33,"Duration":155569,"SoundDuration":155569,"Delta":443743812},{"NoteNumber":71,"Velocity":49,"Duration":155569,"SoundDuration":155569,"Delta":443899381},{"NoteNumber":58,"Velocity":29,"Duration":155569,"SoundDuration":155569,"Delta":443899381},{"NoteNumber":70,"Velocity":49,"Duration":159184,"SoundDuration":159184,"Delta":444054951},{"NoteNumber":54,"Velocity":29,"Duration":159184,"SoundDuration":159184,"Delta":444054951},{"NoteNumber":68,"Velocity":49,"Duration":159185,"SoundDuration":159185,"Delta":444214136},{"NoteNumber":58,"Velocity":30,"Duration":159185,"SoundDuration":159185,"Delta":444214136},{"NoteNumber":66,"Velocity":55,"Duration":160307,"SoundDuration":160307,"Delta":444373321},{"NoteNumber":54,"Velocity":34,"Duration":160307,"SoundDuration":160307,"Delta":444373321},{"NoteNumber":68,"Velocity":50,"Duration":160307,"SoundDuration":160307,"Delta":444533628},{"NoteNumber":58,"Velocity":29,"Duration":160307,"SoundDuration":160307,"Delta":444533628},{"NoteNumber":70,"Velocity":50,"Duration":163594,"SoundDuration":163594,"Delta":444693936},{"NoteNumber":54,"Velocity":29,"Duration":163594,"SoundDuration":163594,"Delta":444693936},{"NoteNumber":68,"Velocity":50,"Duration":163594,"SoundDuration":163594,"Delta":444857531},{"NoteNumber":58,"Velocity":28,"Duration":163594,"SoundDuration":163594,"Delta":444857531},{"NoteNumber":66,"Velocity":55,"Duration":161394,"SoundDuration":161394,"Delta":445021126},{"NoteNumber":54,"Velocity":33,"Duration":161394,"SoundDuration":161394,"Delta":445021126},{"NoteNumber":68,"Velocity":50,"Duration":161394,"SoundDuration":161394,"Delta":445182520},{"NoteNumber":58,"Velocity":29,"Duration":161394,"SoundDuration":161394,"Delta":445182520},{"NoteNumber":66,"Velocity":52,"Duration":164780,"SoundDuration":164780,"Delta":445343915},{"NoteNumber":54,"Velocity":30,"Duration":164780,"SoundDuration":164780,"Delta":445343915},{"NoteNumber":65,"Velocity":51,"Duration":164780,"SoundDuration":164780,"Delta":445508695},{"NoteNumber":58,"Velocity":30,"Duration":164780,"SoundDuration":164780,"Delta":445508695},{"NoteNumber":64,"Velocity":57,"Duration":231508,"SoundDuration":231508,"Delta":445673476},{"NoteNumber":42,"Velocity":34,"Duration":231508,"SoundDuration":231508,"Delta":445673476},{"NoteNumber":70,"Velocity":52,"Duration":219932,"SoundDuration":219932,"Delta":445904985},{"NoteNumber":54,"Velocity":31,"Duration":219932,"SoundDuration":219932,"Delta":445904985},{"NoteNumber":58,"Velocity":45,"Duration":219932,"SoundDuration":219932,"Delta":446136493},{"NoteNumber":64,"Velocity":45,"Duration":219932,"SoundDuration":219932,"Delta":446136493},{"NoteNumber":70,"Velocity":54,"Duration":219932,"SoundDuration":219932,"Delta":446136493},{"NoteNumber":54,"Velocity":31,"Duration":219932,"SoundDuration":219932,"Delta":446136493},{"NoteNumber":42,"Velocity":25,"Duration":219932,"SoundDuration":219932,"Delta":446136493},{"NoteNumber":58,"Velocity":50,"Duration":219932,"SoundDuration":219932,"Delta":446368001},{"NoteNumber":64,"Velocity":50,"Duration":219932,"SoundDuration":219932,"Delta":446368001},{"NoteNumber":70,"Velocity":59,"Duration":219932,"SoundDuration":219932,"Delta":446368001},{"NoteNumber":42,"Velocity":29,"Duration":219932,"SoundDuration":219932,"Delta":446368001},{"NoteNumber":54,"Velocity":35,"Duration":219932,"SoundDuration":219932,"Delta":446368001},{"NoteNumber":58,"Velocity":47,"Duration":219932,"SoundDuration":219932,"Delta":446599510},{"NoteNumber":64,"Velocity":47,"Duration":219932,"SoundDuration":219932,"Delta":446599510},{"NoteNumber":70,"Velocity":56,"Duration":219932,"SoundDuration":219932,"Delta":446599510},{"NoteNumber":42,"Velocity":25,"Duration":219932,"SoundDuration":219932,"Delta":446599510},{"NoteNumber":54,"Velocity":31,"Duration":219932,"SoundDuration":219932,"Delta":446599510},{"NoteNumber":58,"Velocity":48,"Duration":219932,"SoundDuration":219932,"Delta":446831018},{"NoteNumber":64,"Velocity":48,"Duration":219932,"SoundDuration":219932,"Delta":446831018},{"NoteNumber":70,"Velocity":57,"Duration":219932,"SoundDuration":219932,"Delta":446831018},{"NoteNumber":42,"Velocity":27,"Duration":219932,"SoundDuration":219932,"Delta":446831018},{"NoteNumber":54,"Velocity":33,"Duration":219932,"SoundDuration":219932,"Delta":446831018},{"NoteNumber":58,"Velocity":52,"Duration":220008,"SoundDuration":220008,"Delta":447062526},{"NoteNumber":64,"Velocity":52,"Duration":220008,"SoundDuration":220008,"Delta":447062526},{"NoteNumber":70,"Velocity":62,"Duration":220008,"SoundDuration":220008,"Delta":447062526},{"NoteNumber":42,"Velocity":31,"Duration":220008,"SoundDuration":220008,"Delta":447062526},{"NoteNumber":54,"Velocity":37,"Duration":220008,"SoundDuration":220008,"Delta":447062526},{"NoteNumber":58,"Velocity":47,"Duration":218971,"SoundDuration":218971,"Delta":447294115},{"NoteNumber":64,"Velocity":47,"Duration":218971,"SoundDuration":218971,"Delta":447294115},{"NoteNumber":70,"Velocity":56,"Duration":218971,"SoundDuration":218971,"Delta":447294115},{"NoteNumber":42,"Velocity":29,"Duration":218971,"SoundDuration":218971,"Delta":447294115},{"NoteNumber":54,"Velocity":35,"Duration":218971,"SoundDuration":218971,"Delta":447294115},{"NoteNumber":58,"Velocity":47,"Duration":217542,"SoundDuration":217542,"Delta":447524591},{"NoteNumber":64,"Velocity":47,"Duration":217542,"SoundDuration":217542,"Delta":447524591},{"NoteNumber":70,"Velocity":57,"Duration":217542,"SoundDuration":217542,"Delta":447524591},{"NoteNumber":42,"Velocity":29,"Duration":217542,"SoundDuration":217542,"Delta":447524591},{"NoteNumber":54,"Velocity":35,"Duration":217542,"SoundDuration":217542,"Delta":447524591},{"NoteNumber":58,"Velocity":55,"Duration":215786,"SoundDuration":215786,"Delta":447753564},{"NoteNumber":64,"Velocity":55,"Duration":215786,"SoundDuration":215786,"Delta":447753564},{"NoteNumber":70,"Velocity":65,"Duration":215786,"SoundDuration":215786,"Delta":447753564},{"NoteNumber":49,"Velocity":32,"Duration":215786,"SoundDuration":215786,"Delta":447753564},{"NoteNumber":42,"Velocity":32,"Duration":215786,"SoundDuration":215786,"Delta":447753564},{"NoteNumber":54,"Velocity":38,"Duration":215786,"SoundDuration":215786,"Delta":447753564},{"NoteNumber":58,"Velocity":51,"Duration":214398,"SoundDuration":214398,"Delta":447980708},{"NoteNumber":64,"Velocity":51,"Duration":214398,"SoundDuration":214398,"Delta":447980708},{"NoteNumber":70,"Velocity":61,"Duration":214398,"SoundDuration":214398,"Delta":447980708},{"NoteNumber":49,"Velocity":32,"Duration":214398,"SoundDuration":214398,"Delta":447980708},{"NoteNumber":42,"Velocity":28,"Duration":214398,"SoundDuration":214398,"Delta":447980708},{"NoteNumber":54,"Velocity":35,"Duration":214398,"SoundDuration":214398,"Delta":447980708},{"NoteNumber":58,"Velocity":52,"Duration":212724,"SoundDuration":212724,"Delta":448206390},{"NoteNumber":64,"Velocity":52,"Duration":212724,"SoundDuration":212724,"Delta":448206390},{"NoteNumber":70,"Velocity":62,"Duration":212724,"SoundDuration":212724,"Delta":448206390},{"NoteNumber":49,"Velocity":33,"Duration":212724,"SoundDuration":212724,"Delta":448206390},{"NoteNumber":42,"Velocity":29,"Duration":212724,"SoundDuration":212724,"Delta":448206390},{"NoteNumber":54,"Velocity":35,"Duration":212724,"SoundDuration":212724,"Delta":448206390},{"NoteNumber":58,"Velocity":57,"Duration":211675,"SoundDuration":211675,"Delta":448430256},{"NoteNumber":64,"Velocity":57,"Duration":211675,"SoundDuration":211675,"Delta":448430256},{"NoteNumber":70,"Velocity":67,"Duration":211675,"SoundDuration":211675,"Delta":448430256},{"NoteNumber":49,"Velocity":33,"Duration":211675,"SoundDuration":211675,"Delta":448430256},{"NoteNumber":42,"Velocity":33,"Duration":211675,"SoundDuration":211675,"Delta":448430256},{"NoteNumber":54,"Velocity":40,"Duration":211675,"SoundDuration":211675,"Delta":448430256},{"NoteNumber":58,"Velocity":53,"Duration":211675,"SoundDuration":211675,"Delta":448653072},{"NoteNumber":64,"Velocity":53,"Duration":211675,"SoundDuration":211675,"Delta":448653072},{"NoteNumber":70,"Velocity":64,"Duration":211675,"SoundDuration":211675,"Delta":448653072},{"NoteNumber":49,"Velocity":34,"Duration":211675,"SoundDuration":211675,"Delta":448653072},{"NoteNumber":42,"Velocity":30,"Duration":211675,"SoundDuration":211675,"Delta":448653072},{"NoteNumber":54,"Velocity":36,"Duration":211675,"SoundDuration":211675,"Delta":448653072},{"NoteNumber":58,"Velocity":55,"Duration":213004,"SoundDuration":213004,"Delta":448875888},{"NoteNumber":64,"Velocity":55,"Duration":213004,"SoundDuration":213004,"Delta":448875888},{"NoteNumber":70,"Velocity":65,"Duration":213004,"SoundDuration":213004,"Delta":448875888},{"NoteNumber":49,"Velocity":35,"Duration":213004,"SoundDuration":213004,"Delta":448875888},{"NoteNumber":42,"Velocity":30,"Duration":213004,"SoundDuration":213004,"Delta":448875888},{"NoteNumber":54,"Velocity":37,"Duration":213004,"SoundDuration":213004,"Delta":448875888},{"NoteNumber":58,"Velocity":59,"Duration":213004,"SoundDuration":213004,"Delta":449100104},{"NoteNumber":64,"Velocity":59,"Duration":213004,"SoundDuration":213004,"Delta":449100104},{"NoteNumber":70,"Velocity":71,"Duration":213004,"SoundDuration":213004,"Delta":449100104},{"NoteNumber":49,"Velocity":36,"Duration":213004,"SoundDuration":213004,"Delta":449100104},{"NoteNumber":42,"Velocity":36,"Duration":213004,"SoundDuration":213004,"Delta":449100104},{"NoteNumber":54,"Velocity":44,"Duration":213004,"SoundDuration":213004,"Delta":449100104},{"NoteNumber":58,"Velocity":56,"Duration":214398,"SoundDuration":214398,"Delta":449324319},{"NoteNumber":64,"Velocity":56,"Duration":214398,"SoundDuration":214398,"Delta":449324319},{"NoteNumber":70,"Velocity":67,"Duration":214398,"SoundDuration":214398,"Delta":449324319},{"NoteNumber":49,"Velocity":37,"Duration":214398,"SoundDuration":214398,"Delta":449324319},{"NoteNumber":42,"Velocity":33,"Duration":214398,"SoundDuration":214398,"Delta":449324319},{"NoteNumber":54,"Velocity":40,"Duration":214398,"SoundDuration":214398,"Delta":449324319},{"NoteNumber":58,"Velocity":57,"Duration":214690,"SoundDuration":214690,"Delta":449550002},{"NoteNumber":64,"Velocity":57,"Duration":214690,"SoundDuration":214690,"Delta":449550002},{"NoteNumber":70,"Velocity":69,"Duration":214690,"SoundDuration":214690,"Delta":449550002},{"NoteNumber":49,"Velocity":39,"Duration":214690,"SoundDuration":214690,"Delta":449550002},{"NoteNumber":42,"Velocity":34,"Duration":214690,"SoundDuration":214690,"Delta":449550002},{"NoteNumber":54,"Velocity":42,"Duration":214690,"SoundDuration":214690,"Delta":449550002},{"NoteNumber":58,"Velocity":62,"Duration":216440,"SoundDuration":216440,"Delta":449776050},{"NoteNumber":64,"Velocity":62,"Duration":216440,"SoundDuration":216440,"Delta":449776050},{"NoteNumber":70,"Velocity":74,"Duration":216440,"SoundDuration":216440,"Delta":449776050},{"NoteNumber":49,"Velocity":40,"Duration":216440,"SoundDuration":216440,"Delta":449776050},{"NoteNumber":42,"Velocity":40,"Duration":216440,"SoundDuration":216440,"Delta":449776050},{"NoteNumber":54,"Velocity":48,"Duration":216440,"SoundDuration":216440,"Delta":449776050},{"NoteNumber":58,"Velocity":59,"Duration":219962,"SoundDuration":219962,"Delta":450003920},{"NoteNumber":64,"Velocity":59,"Duration":219962,"SoundDuration":219962,"Delta":450003920},{"NoteNumber":70,"Velocity":71,"Duration":219962,"SoundDuration":219962,"Delta":450003920},{"NoteNumber":49,"Velocity":41,"Duration":219962,"SoundDuration":219962,"Delta":450003920},{"NoteNumber":42,"Velocity":37,"Duration":219962,"SoundDuration":219962,"Delta":450003920},{"NoteNumber":54,"Velocity":44,"Duration":219962,"SoundDuration":219962,"Delta":450003920},{"NoteNumber":58,"Velocity":60,"Duration":223983,"SoundDuration":223983,"Delta":450235541},{"NoteNumber":64,"Velocity":60,"Duration":223983,"SoundDuration":223983,"Delta":450235541},{"NoteNumber":70,"Velocity":72,"Duration":223983,"SoundDuration":223983,"Delta":450235541},{"NoteNumber":49,"Velocity":43,"Duration":223983,"SoundDuration":223983,"Delta":450235541},{"NoteNumber":42,"Velocity":37,"Duration":223983,"SoundDuration":223983,"Delta":450235541},{"NoteNumber":54,"Velocity":46,"Duration":223983,"SoundDuration":223983,"Delta":450235541},{"NoteNumber":65,"Velocity":72,"Duration":232245,"SoundDuration":232245,"Delta":450471418},{"NoteNumber":58,"Velocity":72,"Duration":232245,"SoundDuration":232245,"Delta":450471418},{"NoteNumber":70,"Velocity":85,"Duration":232245,"SoundDuration":232245,"Delta":450471418},{"NoteNumber":53,"Velocity":57,"Duration":232245,"SoundDuration":232245,"Delta":450471418},{"NoteNumber":41,"Velocity":48,"Duration":232245,"SoundDuration":232245,"Delta":450471418},{"NoteNumber":50,"Velocity":48,"Duration":232245,"SoundDuration":232245,"Delta":450471418},{"NoteNumber":65,"Velocity":67,"Duration":232245,"SoundDuration":232245,"Delta":450715887},{"NoteNumber":58,"Velocity":67,"Duration":232245,"SoundDuration":232245,"Delta":450715887},{"NoteNumber":70,"Velocity":80,"Duration":232245,"SoundDuration":232245,"Delta":450715887},{"NoteNumber":53,"Velocity":52,"Duration":232245,"SoundDuration":232245,"Delta":450715887},{"NoteNumber":41,"Velocity":42,"Duration":232245,"SoundDuration":232245,"Delta":450715887},{"NoteNumber":50,"Velocity":48,"Duration":232245,"SoundDuration":232245,"Delta":450715887},{"NoteNumber":65,"Velocity":67,"Duration":232245,"SoundDuration":232245,"Delta":450960356},{"NoteNumber":58,"Velocity":67,"Duration":232245,"SoundDuration":232245,"Delta":450960356},{"NoteNumber":70,"Velocity":80,"Duration":232245,"SoundDuration":232245,"Delta":450960356},{"NoteNumber":53,"Velocity":52,"Duration":232245,"SoundDuration":232245,"Delta":450960356},{"NoteNumber":41,"Velocity":42,"Duration":232245,"SoundDuration":232245,"Delta":450960356},{"NoteNumber":50,"Velocity":48,"Duration":232245,"SoundDuration":232245,"Delta":450960356},{"NoteNumber":58,"Velocity":63,"Duration":738305,"SoundDuration":738305,"Delta":451204825},{"NoteNumber":65,"Velocity":77,"Duration":738305,"SoundDuration":738305,"Delta":451204825},{"NoteNumber":70,"Velocity":90,"Duration":738305,"SoundDuration":738305,"Delta":451204825},{"NoteNumber":50,"Velocity":63,"Duration":243160,"SoundDuration":243160,"Delta":451204825},{"NoteNumber":41,"Velocity":63,"Duration":738305,"SoundDuration":738305,"Delta":451204825},{"NoteNumber":53,"Velocity":58,"Duration":244925,"SoundDuration":244925,"Delta":451447986},{"NoteNumber":53,"Velocity":58,"Duration":125109,"SoundDuration":125109,"Delta":451692912},{"NoteNumber":57,"Velocity":60,"Duration":739218,"SoundDuration":739218,"Delta":451943131},{"NoteNumber":65,"Velocity":72,"Duration":739218,"SoundDuration":739218,"Delta":451943131},{"NoteNumber":69,"Velocity":85,"Duration":739218,"SoundDuration":739218,"Delta":451943131},{"NoteNumber":48,"Velocity":62,"Duration":243160,"SoundDuration":243160,"Delta":451943131},{"NoteNumber":41,"Velocity":62,"Duration":739218,"SoundDuration":739218,"Delta":451943131},{"NoteNumber":53,"Velocity":58,"Duration":247604,"SoundDuration":247604,"Delta":452186292},{"NoteNumber":53,"Velocity":58,"Duration":126024,"SoundDuration":126024,"Delta":452433896},{"NoteNumber":58,"Velocity":60,"Duration":756136,"SoundDuration":756136,"Delta":452682349},{"NoteNumber":65,"Velocity":72,"Duration":756136,"SoundDuration":756136,"Delta":452682349},{"NoteNumber":70,"Velocity":85,"Duration":756136,"SoundDuration":756136,"Delta":452682349},{"NoteNumber":50,"Velocity":60,"Duration":250219,"SoundDuration":250219,"Delta":452682349},{"NoteNumber":41,"Velocity":60,"Duration":756136,"SoundDuration":756136,"Delta":452682349},{"NoteNumber":53,"Velocity":58,"Duration":252045,"SoundDuration":252045,"Delta":452932568},{"NoteNumber":53,"Velocity":58,"Duration":126935,"SoundDuration":126935,"Delta":453184614},{"NoteNumber":60,"Velocity":60,"Duration":767286,"SoundDuration":767286,"Delta":453438485},{"NoteNumber":65,"Velocity":72,"Duration":767286,"SoundDuration":767286,"Delta":453438485},{"NoteNumber":72,"Velocity":85,"Duration":767286,"SoundDuration":767286,"Delta":453438485},{"NoteNumber":51,"Velocity":61,"Duration":244858,"SoundDuration":244858,"Delta":453438485},{"NoteNumber":41,"Velocity":61,"Duration":767286,"SoundDuration":767286,"Delta":453438485},{"NoteNumber":53,"Velocity":58,"Duration":255762,"SoundDuration":255762,"Delta":453683343},{"NoteNumber":53,"Velocity":58,"Duration":133333,"SoundDuration":133333,"Delta":453939106},{"NoteNumber":62,"Velocity":64,"Duration":2150668,"SoundDuration":2150668,"Delta":454205772},{"NoteNumber":65,"Velocity":78,"Duration":2150668,"SoundDuration":2150668,"Delta":454205772},{"NoteNumber":74,"Velocity":92,"Duration":2150668,"SoundDuration":2150668,"Delta":454205772},{"NoteNumber":52,"Velocity":60,"Duration":243160,"SoundDuration":243160,"Delta":454205772},{"NoteNumber":41,"Velocity":60,"Duration":2150668,"SoundDuration":2150668,"Delta":454205772},{"NoteNumber":53,"Velocity":58,"Duration":240642,"SoundDuration":240642,"Delta":454448933},{"NoteNumber":53,"Velocity":58,"Duration":119061,"SoundDuration":119061,"Delta":454689576},{"NoteNumber":53,"Velocity":60,"Duration":238123,"SoundDuration":238123,"Delta":454927699},{"NoteNumber":53,"Velocity":58,"Duration":238123,"SoundDuration":238123,"Delta":455165823},{"NoteNumber":53,"Velocity":58,"Duration":119061,"SoundDuration":119061,"Delta":455403947},{"NoteNumber":53,"Velocity":62,"Duration":226217,"SoundDuration":226217,"Delta":455642070},{"NoteNumber":53,"Velocity":58,"Duration":226217,"SoundDuration":226217,"Delta":455880194},{"NoteNumber":53,"Velocity":58,"Duration":226217,"SoundDuration":226217,"Delta":456118318},{"NoteNumber":60,"Velocity":62,"Duration":359668,"SoundDuration":359668,"Delta":456356441},{"NoteNumber":65,"Velocity":74,"Duration":359668,"SoundDuration":359668,"Delta":456356441},{"NoteNumber":72,"Velocity":89,"Duration":359668,"SoundDuration":359668,"Delta":456356441},{"NoteNumber":51,"Velocity":61,"Duration":239779,"SoundDuration":239779,"Delta":456356441},{"NoteNumber":41,"Velocity":53,"Duration":734997,"SoundDuration":734997,"Delta":456356441},{"NoteNumber":53,"Velocity":53,"Duration":244999,"SoundDuration":244999,"Delta":456596221},{"NoteNumber":58,"Velocity":58,"Duration":375328,"SoundDuration":375328,"Delta":456716110},{"NoteNumber":65,"Velocity":69,"Duration":375328,"SoundDuration":375328,"Delta":456716110},{"NoteNumber":70,"Velocity":82,"Duration":375328,"SoundDuration":375328,"Delta":456716110},{"NoteNumber":50,"Velocity":53,"Duration":250219,"SoundDuration":250219,"Delta":456841220},{"NoteNumber":60,"Velocity":61,"Duration":727038,"SoundDuration":727038,"Delta":457091439},{"NoteNumber":65,"Velocity":73,"Duration":727038,"SoundDuration":727038,"Delta":457091439},{"NoteNumber":72,"Velocity":88,"Duration":727038,"SoundDuration":727038,"Delta":457091439},{"NoteNumber":51,"Velocity":60,"Duration":243160,"SoundDuration":243160,"Delta":457091439},{"NoteNumber":41,"Velocity":60,"Duration":734746,"SoundDuration":734746,"Delta":457091439},{"NoteNumber":53,"Velocity":55,"Duration":232581,"SoundDuration":232581,"Delta":457334600},{"NoteNumber":53,"Velocity":55,"Duration":234336,"SoundDuration":234336,"Delta":457579515},{"NoteNumber":60,"Velocity":59,"Duration":727038,"SoundDuration":727038,"Delta":457826185},{"NoteNumber":65,"Velocity":71,"Duration":727038,"SoundDuration":727038,"Delta":457826185},{"NoteNumber":72,"Velocity":84,"Duration":727038,"SoundDuration":727038,"Delta":457826185},{"NoteNumber":51,"Velocity":60,"Duration":243160,"SoundDuration":243160,"Delta":457826185},{"NoteNumber":41,"Velocity":60,"Duration":734746,"SoundDuration":734746,"Delta":457826185},{"NoteNumber":53,"Velocity":56,"Duration":232581,"SoundDuration":232581,"Delta":458069346},{"NoteNumber":53,"Velocity":56,"Duration":234336,"SoundDuration":234336,"Delta":458314262},{"NoteNumber":60,"Velocity":59,"Duration":735814,"SoundDuration":735814,"Delta":458560932},{"NoteNumber":65,"Velocity":70,"Duration":735814,"SoundDuration":735814,"Delta":458560932},{"NoteNumber":72,"Velocity":83,"Duration":735814,"SoundDuration":735814,"Delta":458560932},{"NoteNumber":51,"Velocity":62,"Duration":244038,"SoundDuration":244038,"Delta":458560932},{"NoteNumber":41,"Velocity":62,"Duration":743690,"SoundDuration":743690,"Delta":458560932},{"NoteNumber":53,"Velocity":58,"Duration":235002,"SoundDuration":235002,"Delta":458804970},{"NoteNumber":53,"Velocity":58,"Duration":239445,"SoundDuration":239445,"Delta":459052575},{"NoteNumber":58,"Velocity":61,"Duration":364741,"SoundDuration":364741,"Delta":459304623},{"NoteNumber":65,"Velocity":73,"Duration":364741,"SoundDuration":364741,"Delta":459304623},{"NoteNumber":70,"Velocity":88,"Duration":364741,"SoundDuration":364741,"Delta":459304623},{"NoteNumber":50,"Velocity":62,"Duration":243160,"SoundDuration":243160,"Delta":459304623},{"NoteNumber":41,"Velocity":62,"Duration":761979,"SoundDuration":761979,"Delta":459304623},{"NoteNumber":53,"Velocity":59,"Duration":255808,"SoundDuration":255808,"Delta":459547784},{"NoteNumber":57,"Velocity":58,"Duration":397237,"SoundDuration":397237,"Delta":459669364},{"NoteNumber":65,"Velocity":69,"Duration":397237,"SoundDuration":397237,"Delta":459669364},{"NoteNumber":69,"Velocity":82,"Duration":397237,"SoundDuration":397237,"Delta":459669364},{"NoteNumber":48,"Velocity":59,"Duration":263009,"SoundDuration":263009,"Delta":459803592},{"NoteNumber":65,"Velocity":77,"Duration":740010,"SoundDuration":740010,"Delta":460066602},{"NoteNumber":58,"Velocity":75,"Duration":2259265,"SoundDuration":2259265,"Delta":460066602},{"NoteNumber":70,"Velocity":90,"Duration":2259265,"SoundDuration":2259265,"Delta":460066602},{"NoteNumber":50,"Velocity":62,"Duration":246669,"SoundDuration":246669,"Delta":460066602},{"NoteNumber":46,"Velocity":62,"Duration":2259265,"SoundDuration":2259265,"Delta":460066602},{"NoteNumber":53,"Velocity":56,"Duration":245128,"SoundDuration":245128,"Delta":460313272},{"NoteNumber":53,"Velocity":56,"Duration":245128,"SoundDuration":245128,"Delta":460559942},{"NoteNumber":63,"Velocity":73,"Duration":762996,"SoundDuration":762996,"Delta":460806612},{"NoteNumber":67,"Velocity":88,"Duration":762996,"SoundDuration":762996,"Delta":460806612},{"NoteNumber":51,"Velocity":60,"Duration":253292,"SoundDuration":253292,"Delta":460806612},{"NoteNumber":55,"Velocity":56,"Duration":252317,"SoundDuration":252317,"Delta":461059905},{"NoteNumber":55,"Velocity":56,"Duration":254188,"SoundDuration":254188,"Delta":461313821},{"NoteNumber":62,"Velocity":70,"Duration":756259,"SoundDuration":756259,"Delta":461569608},{"NoteNumber":65,"Velocity":83,"Duration":756259,"SoundDuration":756259,"Delta":461569608},{"NoteNumber":50,"Velocity":60,"Duration":248385,"SoundDuration":248385,"Delta":461569608},{"NoteNumber":53,"Velocity":56,"Duration":250487,"SoundDuration":250487,"Delta":461817994},{"NoteNumber":53,"Velocity":57,"Duration":254188,"SoundDuration":254188,"Delta":462070080},{"NoteNumber":62,"Velocity":64,"Duration":860700,"SoundDuration":860700,"Delta":462325867},{"NoteNumber":65,"Velocity":75,"Duration":860700,"SoundDuration":860700,"Delta":462325867},{"NoteNumber":74,"Velocity":89,"Duration":860700,"SoundDuration":860700,"Delta":462325867},{"NoteNumber":50,"Velocity":59,"Duration":268456,"SoundDuration":268456,"Delta":462325867},{"NoteNumber":44,"Velocity":59,"Duration":860700,"SoundDuration":860700,"Delta":462325867},{"NoteNumber":53,"Velocity":54,"Duration":284991,"SoundDuration":284991,"Delta":462594324},{"NoteNumber":53,"Velocity":54,"Duration":303435,"SoundDuration":303435,"Delta":462881224},{"NoteNumber":62,"Velocity":64,"Duration":2161843,"SoundDuration":2161843,"Delta":463186567},{"NoteNumber":67,"Velocity":75,"Duration":2161843,"SoundDuration":2161843,"Delta":463186567},{"NoteNumber":74,"Velocity":89,"Duration":2161843,"SoundDuration":2161843,"Delta":463186567},{"NoteNumber":53,"Velocity":59,"Duration":243160,"SoundDuration":243160,"Delta":463186567},{"NoteNumber":43,"Velocity":59,"Duration":2161843,"SoundDuration":2161843,"Delta":463186567},{"NoteNumber":55,"Velocity":53,"Duration":240786,"SoundDuration":240786,"Delta":463429728},{"NoteNumber":55,"Velocity":53,"Duration":239920,"SoundDuration":239920,"Delta":463672023},{"NoteNumber":53,"Velocity":56,"Duration":238123,"SoundDuration":238123,"Delta":463913453},{"NoteNumber":55,"Velocity":53,"Duration":238933,"SoundDuration":238933,"Delta":464151576},{"NoteNumber":55,"Velocity":53,"Duration":241259,"SoundDuration":241259,"Delta":464392027},{"NoteNumber":53,"Velocity":57,"Duration":237868,"SoundDuration":237868,"Delta":464634804},{"NoteNumber":55,"Velocity":51,"Duration":236381,"SoundDuration":236381,"Delta":464872673},{"NoteNumber":55,"Velocity":51,"Duration":237868,"SoundDuration":237868,"Delta":465110542},{"NoteNumber":60,"Velocity":59,"Duration":356802,"SoundDuration":356802,"Delta":465348410},{"NoteNumber":67,"Velocity":71,"Duration":356802,"SoundDuration":356802,"Delta":465348410},{"NoteNumber":72,"Velocity":84,"Duration":356802,"SoundDuration":356802,"Delta":465348410},{"NoteNumber":51,"Velocity":56,"Duration":237868,"SoundDuration":237868,"Delta":465348410},{"NoteNumber":43,"Velocity":56,"Duration":723506,"SoundDuration":723506,"Delta":465348410},{"NoteNumber":55,"Velocity":51,"Duration":241168,"SoundDuration":241168,"Delta":465586279},{"NoteNumber":59,"Velocity":56,"Duration":366703,"SoundDuration":366703,"Delta":465705213},{"NoteNumber":67,"Velocity":67,"Duration":366703,"SoundDuration":366703,"Delta":465705213},{"NoteNumber":71,"Velocity":79,"Duration":366703,"SoundDuration":366703,"Delta":465705213},{"NoteNumber":50,"Velocity":51,"Duration":244469,"SoundDuration":244469,"Delta":465827448},{"NoteNumber":63,"Velocity":67,"Duration":709605,"SoundDuration":709605,"Delta":466071917},{"NoteNumber":67,"Velocity":79,"Duration":709605,"SoundDuration":709605,"Delta":466071917},{"NoteNumber":75,"Velocity":94,"Duration":709605,"SoundDuration":709605,"Delta":466071917},{"NoteNumber":48,"Velocity":54,"Duration":233290,"SoundDuration":233290,"Delta":466071917},{"NoteNumber":43,"Velocity":54,"Duration":709605,"SoundDuration":709605,"Delta":466071917},{"NoteNumber":55,"Velocity":50,"Duration":235036,"SoundDuration":235036,"Delta":466305207},{"NoteNumber":55,"Velocity":50,"Duration":238280,"SoundDuration":238280,"Delta":466541742},{"NoteNumber":62,"Velocity":65,"Duration":739474,"SoundDuration":739474,"Delta":466781522},{"NoteNumber":67,"Velocity":76,"Duration":739474,"SoundDuration":739474,"Delta":466781522},{"NoteNumber":74,"Velocity":91,"Duration":739474,"SoundDuration":739474,"Delta":466781522},{"NoteNumber":53,"Velocity":54,"Duration":238123,"SoundDuration":238123,"Delta":466781522},{"NoteNumber":43,"Velocity":54,"Duration":739474,"SoundDuration":739474,"Delta":466781522},{"NoteNumber":55,"Velocity":50,"Duration":243964,"SoundDuration":243964,"Delta":467019645},{"NoteNumber":55,"Velocity":50,"Duration":254188,"SoundDuration":254188,"Delta":467265209},{"NoteNumber":60,"Velocity":63,"Duration":748422,"SoundDuration":748422,"Delta":467520996},{"NoteNumber":67,"Velocity":74,"Duration":748422,"SoundDuration":748422,"Delta":467520996},{"NoteNumber":72,"Velocity":88,"Duration":748422,"SoundDuration":748422,"Delta":467520996},{"NoteNumber":51,"Velocity":55,"Duration":243160,"SoundDuration":243160,"Delta":467520996},{"NoteNumber":43,"Velocity":55,"Duration":748422,"SoundDuration":748422,"Delta":467520996},{"NoteNumber":55,"Velocity":50,"Duration":247875,"SoundDuration":247875,"Delta":467764157},{"NoteNumber":55,"Velocity":50,"Duration":254188,"SoundDuration":254188,"Delta":468013631},{"NoteNumber":60,"Velocity":60,"Duration":806677,"SoundDuration":806677,"Delta":468269419},{"NoteNumber":69,"Velocity":72,"Duration":806677,"SoundDuration":806677,"Delta":468269419},{"NoteNumber":72,"Velocity":86,"Duration":806677,"SoundDuration":806677,"Delta":468269419},{"NoteNumber":51,"Velocity":57,"Duration":258064,"SoundDuration":258064,"Delta":468269419},{"NoteNumber":42,"Velocity":57,"Duration":806677,"SoundDuration":806677,"Delta":468269419},{"NoteNumber":54,"Velocity":52,"Duration":267144,"SoundDuration":267144,"Delta":468527483},{"NoteNumber":54,"Velocity":52,"Duration":277972,"SoundDuration":277972,"Delta":468796376},{"NoteNumber":65,"Velocity":76,"Duration":2155627,"SoundDuration":2155627,"Delta":469076096},{"NoteNumber":60,"Velocity":65,"Duration":2155627,"SoundDuration":2155627,"Delta":469076096},{"NoteNumber":69,"Velocity":78,"Duration":2155627,"SoundDuration":2155627,"Delta":469076096},{"NoteNumber":72,"Velocity":89,"Duration":2155627,"SoundDuration":2155627,"Delta":469076096},{"NoteNumber":51,"Velocity":58,"Duration":243160,"SoundDuration":243160,"Delta":469076096},{"NoteNumber":41,"Velocity":58,"Duration":2155627,"SoundDuration":2155627,"Delta":469076096},{"NoteNumber":53,"Velocity":52,"Duration":230223,"SoundDuration":230223,"Delta":469319257},{"NoteNumber":53,"Velocity":52,"Duration":229357,"SoundDuration":229357,"Delta":469561552},{"NoteNumber":51,"Velocity":56,"Duration":238123,"SoundDuration":238123,"Delta":469802982},{"NoteNumber":53,"Velocity":52,"Duration":226217,"SoundDuration":226217,"Delta":470041105},{"NoteNumber":53,"Velocity":53,"Duration":226217,"SoundDuration":226217,"Delta":470279229},{"NoteNumber":51,"Velocity":57,"Duration":238123,"SoundDuration":238123,"Delta":470517353},{"NoteNumber":53,"Velocity":52,"Duration":226217,"SoundDuration":226217,"Delta":470755476},{"NoteNumber":53,"Velocity":52,"Duration":226217,"SoundDuration":226217,"Delta":470993600},{"NoteNumber":58,"Velocity":63,"Duration":357185,"SoundDuration":357185,"Delta":471231724},{"NoteNumber":65,"Velocity":74,"Duration":357185,"SoundDuration":357185,"Delta":471231724},{"NoteNumber":70,"Velocity":88,"Duration":357185,"SoundDuration":357185,"Delta":471231724},{"NoteNumber":50,"Velocity":57,"Duration":238123,"SoundDuration":238123,"Delta":471231724},{"NoteNumber":41,"Velocity":57,"Duration":727190,"SoundDuration":727190,"Delta":471231724},{"NoteNumber":53,"Velocity":54,"Duration":242396,"SoundDuration":242396,"Delta":471469847},{"NoteNumber":57,"Velocity":57,"Duration":370004,"SoundDuration":370004,"Delta":471588909},{"NoteNumber":65,"Velocity":68,"Duration":370004,"SoundDuration":370004,"Delta":471588909},{"NoteNumber":69,"Velocity":80,"Duration":370004,"SoundDuration":370004,"Delta":471588909},{"NoteNumber":48,"Velocity":51,"Duration":246669,"SoundDuration":246669,"Delta":471712244},{"NoteNumber":62,"Velocity":65,"Duration":724740,"SoundDuration":724740,"Delta":471958914},{"NoteNumber":65,"Velocity":77,"Duration":724740,"SoundDuration":724740,"Delta":471958914},{"NoteNumber":74,"Velocity":92,"Duration":724740,"SoundDuration":724740,"Delta":471958914},{"NoteNumber":46,"Velocity":58,"Duration":236490,"SoundDuration":236490,"Delta":471958914},{"NoteNumber":41,"Velocity":58,"Duration":724740,"SoundDuration":724740,"Delta":471958914},{"NoteNumber":53,"Velocity":53,"Duration":229246,"SoundDuration":229246,"Delta":472195405},{"NoteNumber":53,"Velocity":53,"Duration":234336,"SoundDuration":234336,"Delta":472436985},{"NoteNumber":57,"Velocity":61,"Duration":739474,"SoundDuration":739474,"Delta":472683655},{"NoteNumber":65,"Velocity":73,"Duration":739474,"SoundDuration":739474,"Delta":472683655},{"NoteNumber":69,"Velocity":87,"Duration":739474,"SoundDuration":739474,"Delta":472683655},{"NoteNumber":48,"Velocity":58,"Duration":238123,"SoundDuration":238123,"Delta":472683655},{"NoteNumber":41,"Velocity":58,"Duration":739474,"SoundDuration":739474,"Delta":472683655},{"NoteNumber":53,"Velocity":52,"Duration":232774,"SoundDuration":232774,"Delta":472921778},{"NoteNumber":53,"Velocity":52,"Duration":242997,"SoundDuration":242997,"Delta":473167342},{"NoteNumber":58,"Velocity":65,"Duration":748422,"SoundDuration":748422,"Delta":473423129},{"NoteNumber":65,"Velocity":77,"Duration":748422,"SoundDuration":748422,"Delta":473423129},{"NoteNumber":70,"Velocity":92,"Duration":748422,"SoundDuration":748422,"Delta":473423129},{"NoteNumber":50,"Velocity":56,"Duration":243160,"SoundDuration":243160,"Delta":473423129},{"NoteNumber":41,"Velocity":56,"Duration":748422,"SoundDuration":748422,"Delta":473423129},{"NoteNumber":53,"Velocity":52,"Duration":236684,"SoundDuration":236684,"Delta":473666290},{"NoteNumber":53,"Velocity":52,"Duration":242997,"SoundDuration":242997,"Delta":473915764},{"NoteNumber":65,"Velocity":70,"Duration":775991,"SoundDuration":775991,"Delta":474171552},{"NoteNumber":60,"Velocity":59,"Duration":775991,"SoundDuration":775991,"Delta":474171552},{"NoteNumber":69,"Velocity":70,"Duration":775991,"SoundDuration":775991,"Delta":474171552},{"NoteNumber":72,"Velocity":82,"Duration":775991,"SoundDuration":775991,"Delta":474171552},{"NoteNumber":51,"Velocity":56,"Duration":255787,"SoundDuration":255787,"Delta":474171552},{"NoteNumber":41,"Velocity":56,"Duration":775991,"SoundDuration":775991,"Delta":474171552},{"NoteNumber":53,"Velocity":52,"Duration":245586,"SoundDuration":245586,"Delta":474427339},{"NoteNumber":53,"Velocity":52,"Duration":248463,"SoundDuration":248463,"Delta":474686003},{"NoteNumber":65,"Velocity":75,"Duration":4441901,"SoundDuration":4441901,"Delta":474947543},{"NoteNumber":60,"Velocity":64,"Duration":2950605,"SoundDuration":2950605,"Delta":474947543},{"NoteNumber":69,"Velocity":75,"Duration":2950605,"SoundDuration":2950605,"Delta":474947543},{"NoteNumber":72,"Velocity":89,"Duration":2950605,"SoundDuration":2950605,"Delta":474947543},{"NoteNumber":41,"Velocity":51,"Duration":1483791,"SoundDuration":1483791,"Delta":474947543},{"NoteNumber":51,"Velocity":51,"Duration":1483791,"SoundDuration":1483791,"Delta":474947543},{"NoteNumber":53,"Velocity":50,"Duration":237904,"SoundDuration":237904,"Delta":475203330},{"NoteNumber":53,"Velocity":50,"Duration":232245,"SoundDuration":232245,"Delta":475453459},{"NoteNumber":53,"Velocity":50,"Duration":232245,"SoundDuration":232245,"Delta":475697928},{"NoteNumber":53,"Velocity":50,"Duration":232245,"SoundDuration":232245,"Delta":475942397},{"NoteNumber":53,"Velocity":49,"Duration":232245,"SoundDuration":232245,"Delta":476186866},{"NoteNumber":53,"Velocity":49,"Duration":232245,"SoundDuration":232245,"Delta":476431335},{"NoteNumber":53,"Velocity":49,"Duration":232245,"SoundDuration":232245,"Delta":476675804},{"NoteNumber":53,"Velocity":49,"Duration":232245,"SoundDuration":232245,"Delta":476920273},{"NoteNumber":53,"Velocity":48,"Duration":232245,"SoundDuration":232245,"Delta":477164742},{"NoteNumber":53,"Velocity":48,"Duration":232245,"SoundDuration":232245,"Delta":477409211},{"NoteNumber":53,"Velocity":48,"Duration":232245,"SoundDuration":232245,"Delta":477653680},{"NoteNumber":59,"Velocity":61,"Duration":2224703,"SoundDuration":2224703,"Delta":477898149},{"NoteNumber":68,"Velocity":61,"Duration":2224703,"SoundDuration":2224703,"Delta":477898149},{"NoteNumber":71,"Velocity":73,"Duration":2224703,"SoundDuration":2224703,"Delta":477898149},{"NoteNumber":41,"Velocity":45,"Duration":2995713,"SoundDuration":2995713,"Delta":477898149},{"NoteNumber":50,"Velocity":48,"Duration":2995713,"SoundDuration":2995713,"Delta":477898149},{"NoteNumber":53,"Velocity":42,"Duration":252629,"SoundDuration":252629,"Delta":478158939},{"NoteNumber":53,"Velocity":39,"Duration":232245,"SoundDuration":232245,"Delta":478411569},{"NoteNumber":53,"Velocity":38,"Duration":232245,"SoundDuration":232245,"Delta":478656038},{"NoteNumber":53,"Velocity":38,"Duration":232245,"SoundDuration":232245,"Delta":478900507},{"NoteNumber":53,"Velocity":37,"Duration":232245,"SoundDuration":232245,"Delta":479144976},{"NoteNumber":53,"Velocity":37,"Duration":232245,"SoundDuration":232245,"Delta":479389445},{"NoteNumber":53,"Velocity":36,"Duration":232245,"SoundDuration":232245,"Delta":479633914},{"NoteNumber":53,"Velocity":35,"Duration":232245,"SoundDuration":232245,"Delta":479878383},{"NoteNumber":62,"Velocity":55,"Duration":771009,"SoundDuration":771009,"Delta":480122852},{"NoteNumber":65,"Velocity":55,"Duration":771009,"SoundDuration":771009,"Delta":480122852},{"NoteNumber":68,"Velocity":55,"Duration":771009,"SoundDuration":771009,"Delta":480122852},{"NoteNumber":71,"Velocity":66,"Duration":771009,"SoundDuration":771009,"Delta":480122852},{"NoteNumber":53,"Velocity":36,"Duration":244153,"SoundDuration":244153,"Delta":480122852},{"NoteNumber":53,"Velocity":40,"Duration":244153,"SoundDuration":244153,"Delta":480379855},{"NoteNumber":53,"Velocity":44,"Duration":244153,"SoundDuration":244153,"Delta":480636858},{"NoteNumber":62,"Velocity":55,"Duration":2246066,"SoundDuration":2246066,"Delta":480893862},{"NoteNumber":65,"Velocity":55,"Duration":2246066,"SoundDuration":2246066,"Delta":480893862},{"NoteNumber":68,"Velocity":55,"Duration":2246066,"SoundDuration":2246066,"Delta":480893862},{"NoteNumber":71,"Velocity":66,"Duration":2246066,"SoundDuration":2246066,"Delta":480893862},{"NoteNumber":53,"Velocity":50,"Duration":257003,"SoundDuration":257003,"Delta":480893862},{"NoteNumber":44,"Velocity":42,"Duration":240081,"SoundDuration":240081,"Delta":481150865},{"NoteNumber":44,"Velocity":42,"Duration":235556,"SoundDuration":235556,"Delta":481403344},{"NoteNumber":44,"Velocity":42,"Duration":235556,"SoundDuration":235556,"Delta":481651298},{"NoteNumber":44,"Velocity":42,"Duration":235556,"SoundDuration":235556,"Delta":481899252},{"NoteNumber":44,"Velocity":42,"Duration":235556,"SoundDuration":235556,"Delta":482147207},{"NoteNumber":44,"Velocity":42,"Duration":235556,"SoundDuration":235556,"Delta":482395161},{"NoteNumber":44,"Velocity":42,"Duration":235556,"SoundDuration":235556,"Delta":482643115},{"NoteNumber":44,"Velocity":42,"Duration":236280,"SoundDuration":236280,"Delta":482891070},{"NoteNumber":65,"Velocity":66,"Duration":776935,"SoundDuration":776935,"Delta":483139929},{"NoteNumber":68,"Velocity":66,"Duration":776935,"SoundDuration":776935,"Delta":483139929},{"NoteNumber":71,"Velocity":66,"Duration":776935,"SoundDuration":776935,"Delta":483139929},{"NoteNumber":74,"Velocity":78,"Duration":776935,"SoundDuration":776935,"Delta":483139929},{"NoteNumber":44,"Velocity":42,"Duration":241160,"SoundDuration":241160,"Delta":483139929},{"NoteNumber":44,"Velocity":42,"Duration":245841,"SoundDuration":245841,"Delta":483393910},{"NoteNumber":44,"Velocity":42,"Duration":250707,"SoundDuration":250707,"Delta":483652823},{"NoteNumber":65,"Velocity":72,"Duration":1890410,"SoundDuration":1890410,"Delta":483916864},{"NoteNumber":68,"Velocity":72,"Duration":1890410,"SoundDuration":1890410,"Delta":483916864},{"NoteNumber":71,"Velocity":72,"Duration":1890410,"SoundDuration":1890410,"Delta":483916864},{"NoteNumber":74,"Velocity":86,"Duration":1518479,"SoundDuration":1518479,"Delta":483916864},{"NoteNumber":44,"Velocity":46,"Duration":268456,"SoundDuration":268456,"Delta":483916864},{"NoteNumber":37,"Velocity":46,"Duration":245807,"SoundDuration":245807,"Delta":484185320},{"NoteNumber":37,"Velocity":46,"Duration":235556,"SoundDuration":235556,"Delta":484443526},{"NoteNumber":37,"Velocity":53,"Duration":235556,"SoundDuration":235556,"Delta":484691480},{"NoteNumber":37,"Velocity":53,"Duration":235556,"SoundDuration":235556,"Delta":484939434},{"NoteNumber":37,"Velocity":53,"Duration":235556,"SoundDuration":235556,"Delta":485187389},{"NoteNumber":73,"Velocity":86,"Duration":371931,"SoundDuration":371931,"Delta":485435343},{"NoteNumber":37,"Velocity":53,"Duration":235556,"SoundDuration":235556,"Delta":485435343},{"NoteNumber":37,"Velocity":52,"Duration":235556,"SoundDuration":235556,"Delta":485683297},{"NoteNumber":37,"Velocity":52,"Duration":238597,"SoundDuration":238597,"Delta":485931252},{"NoteNumber":68,"Velocity":80,"Duration":401390,"SoundDuration":401390,"Delta":486183007},{"NoteNumber":71,"Velocity":80,"Duration":401390,"SoundDuration":401390,"Delta":486183007},{"NoteNumber":73,"Velocity":80,"Duration":401390,"SoundDuration":401390,"Delta":486183007},{"NoteNumber":77,"Velocity":96,"Duration":401390,"SoundDuration":401390,"Delta":486183007},{"NoteNumber":37,"Velocity":65,"Duration":198681,"SoundDuration":198681,"Delta":486183007},{"NoteNumber":35,"Velocity":59,"Duration":202708,"SoundDuration":202708,"Delta":486381688},{"NoteNumber":33,"Velocity":61,"Duration":205485,"SoundDuration":205485,"Delta":486584397},{"NoteNumber":32,"Velocity":59,"Duration":209796,"SoundDuration":209796,"Delta":486789883},{"NoteNumber":69,"Velocity":77,"Duration":261845,"SoundDuration":261845,"Delta":486999680},{"NoteNumber":73,"Velocity":77,"Duration":261845,"SoundDuration":261845,"Delta":486999680},{"NoteNumber":78,"Velocity":92,"Duration":261845,"SoundDuration":261845,"Delta":486999680},{"NoteNumber":30,"Velocity":65,"Duration":212765,"SoundDuration":212765,"Delta":486999680},{"NoteNumber":69,"Velocity":28,"Duration":233128,"SoundDuration":233128,"Delta":487273796},{"NoteNumber":73,"Velocity":34,"Duration":233128,"SoundDuration":233128,"Delta":487273796},{"NoteNumber":69,"Velocity":30,"Duration":233128,"SoundDuration":233128,"Delta":487519194},{"NoteNumber":73,"Velocity":36,"Duration":233128,"SoundDuration":233128,"Delta":487519194},{"NoteNumber":69,"Velocity":32,"Duration":233128,"SoundDuration":233128,"Delta":487764593},{"NoteNumber":73,"Velocity":38,"Duration":233128,"SoundDuration":233128,"Delta":487764593},{"NoteNumber":69,"Velocity":29,"Duration":233128,"SoundDuration":233128,"Delta":488009992},{"NoteNumber":73,"Velocity":35,"Duration":233128,"SoundDuration":233128,"Delta":488009992},{"NoteNumber":69,"Velocity":29,"Duration":233128,"SoundDuration":233128,"Delta":488255390},{"NoteNumber":73,"Velocity":35,"Duration":233128,"SoundDuration":233128,"Delta":488255390},{"NoteNumber":69,"Velocity":32,"Duration":233128,"SoundDuration":233128,"Delta":488500789},{"NoteNumber":73,"Velocity":38,"Duration":233128,"SoundDuration":233128,"Delta":488500789},{"NoteNumber":69,"Velocity":29,"Duration":233128,"SoundDuration":233128,"Delta":488746188},{"NoteNumber":73,"Velocity":35,"Duration":233128,"SoundDuration":233128,"Delta":488746188},{"NoteNumber":69,"Velocity":29,"Duration":245398,"SoundDuration":245398,"Delta":488991586},{"NoteNumber":73,"Velocity":35,"Duration":245398,"SoundDuration":245398,"Delta":488991586},{"NoteNumber":78,"Velocity":54,"Duration":736196,"SoundDuration":736196,"Delta":489236985},{"NoteNumber":54,"Velocity":42,"Duration":736196,"SoundDuration":736196,"Delta":489236985},{"NoteNumber":61,"Velocity":42,"Duration":736196,"SoundDuration":736196,"Delta":489236985},{"NoteNumber":69,"Velocity":27,"Duration":233128,"SoundDuration":233128,"Delta":489482384},{"NoteNumber":73,"Velocity":32,"Duration":233128,"SoundDuration":233128,"Delta":489482384},{"NoteNumber":69,"Velocity":27,"Duration":233128,"SoundDuration":233128,"Delta":489727782},{"NoteNumber":73,"Velocity":32,"Duration":233128,"SoundDuration":233128,"Delta":489727782},{"NoteNumber":78,"Velocity":53,"Duration":723326,"SoundDuration":723326,"Delta":489973181},{"NoteNumber":54,"Velocity":42,"Duration":1822357,"SoundDuration":1822357,"Delta":489973181},{"NoteNumber":61,"Velocity":42,"Duration":1084990,"SoundDuration":1084990,"Delta":489973181},{"NoteNumber":69,"Velocity":27,"Duration":229053,"SoundDuration":229053,"Delta":490214290},{"NoteNumber":73,"Velocity":32,"Duration":229053,"SoundDuration":229053,"Delta":490214290},{"NoteNumber":69,"Velocity":27,"Duration":229053,"SoundDuration":229053,"Delta":490455399},{"NoteNumber":73,"Velocity":32,"Duration":229053,"SoundDuration":229053,"Delta":490455399},{"NoteNumber":81,"Velocity":53,"Duration":729708,"SoundDuration":729708,"Delta":490696508},{"NoteNumber":69,"Velocity":26,"Duration":230074,"SoundDuration":230074,"Delta":490937617},{"NoteNumber":73,"Velocity":31,"Duration":230074,"SoundDuration":230074,"Delta":490937617},{"NoteNumber":59,"Velocity":38,"Duration":368045,"SoundDuration":368045,"Delta":491058171},{"NoteNumber":69,"Velocity":26,"Duration":233903,"SoundDuration":233903,"Delta":491180002},{"NoteNumber":73,"Velocity":31,"Duration":233903,"SoundDuration":233903,"Delta":491180002},{"NoteNumber":78,"Velocity":53,"Duration":738642,"SoundDuration":738642,"Delta":491426217},{"NoteNumber":57,"Velocity":41,"Duration":369321,"SoundDuration":369321,"Delta":491426217},{"NoteNumber":69,"Velocity":27,"Duration":233903,"SoundDuration":233903,"Delta":491672431},{"NoteNumber":73,"Velocity":32,"Duration":233903,"SoundDuration":233903,"Delta":491672431},{"NoteNumber":69,"Velocity":27,"Duration":233903,"SoundDuration":233903,"Delta":491918645},{"NoteNumber":73,"Velocity":32,"Duration":233903,"SoundDuration":233903,"Delta":491918645},{"NoteNumber":81,"Velocity":53,"Duration":728332,"SoundDuration":728332,"Delta":492164860},{"NoteNumber":54,"Velocity":38,"Duration":728332,"SoundDuration":728332,"Delta":492164860},{"NoteNumber":57,"Velocity":38,"Duration":728332,"SoundDuration":728332,"Delta":492164860},{"NoteNumber":69,"Velocity":26,"Duration":230638,"SoundDuration":230638,"Delta":492407637},{"NoteNumber":73,"Velocity":31,"Duration":230638,"SoundDuration":230638,"Delta":492407637},{"NoteNumber":69,"Velocity":26,"Duration":230638,"SoundDuration":230638,"Delta":492650414},{"NoteNumber":73,"Velocity":31,"Duration":230638,"SoundDuration":230638,"Delta":492650414},{"NoteNumber":81,"Velocity":56,"Duration":728331,"SoundDuration":728331,"Delta":492893192},{"NoteNumber":54,"Velocity":41,"Duration":1461819,"SoundDuration":1461819,"Delta":492893192},{"NoteNumber":57,"Velocity":41,"Duration":1092497,"SoundDuration":1092497,"Delta":492893192},{"NoteNumber":73,"Velocity":27,"Duration":230638,"SoundDuration":230638,"Delta":493135969},{"NoteNumber":78,"Velocity":32,"Duration":230638,"SoundDuration":230638,"Delta":493135969},{"NoteNumber":73,"Velocity":27,"Duration":230638,"SoundDuration":230638,"Delta":493378746},{"NoteNumber":78,"Velocity":32,"Duration":230638,"SoundDuration":230638,"Delta":493378746},{"NoteNumber":85,"Velocity":55,"Duration":733487,"SoundDuration":733487,"Delta":493621524},{"NoteNumber":73,"Velocity":27,"Duration":232185,"SoundDuration":232185,"Delta":493864301},{"NoteNumber":78,"Velocity":32,"Duration":232185,"SoundDuration":232185,"Delta":493864301},{"NoteNumber":56,"Velocity":41,"Duration":369321,"SoundDuration":369321,"Delta":493985690},{"NoteNumber":73,"Velocity":27,"Duration":233903,"SoundDuration":233903,"Delta":494108797},{"NoteNumber":78,"Velocity":32,"Duration":233903,"SoundDuration":233903,"Delta":494108797},{"NoteNumber":81,"Velocity":55,"Duration":738642,"SoundDuration":738642,"Delta":494355011},{"NoteNumber":54,"Velocity":44,"Duration":369321,"SoundDuration":369321,"Delta":494355011},{"NoteNumber":73,"Velocity":27,"Duration":233903,"SoundDuration":233903,"Delta":494601225},{"NoteNumber":78,"Velocity":32,"Duration":233903,"SoundDuration":233903,"Delta":494601225},{"NoteNumber":73,"Velocity":27,"Duration":233903,"SoundDuration":233903,"Delta":494847440},{"NoteNumber":78,"Velocity":32,"Duration":233903,"SoundDuration":233903,"Delta":494847440},{"NoteNumber":85,"Velocity":56,"Duration":738643,"SoundDuration":738643,"Delta":495093654},{"NoteNumber":54,"Velocity":34,"Duration":738643,"SoundDuration":738643,"Delta":495093654},{"NoteNumber":73,"Velocity":27,"Duration":233903,"SoundDuration":233903,"Delta":495339868},{"NoteNumber":78,"Velocity":32,"Duration":233903,"SoundDuration":233903,"Delta":495339868},{"NoteNumber":73,"Velocity":27,"Duration":233903,"SoundDuration":233903,"Delta":495586083},{"NoteNumber":78,"Velocity":32,"Duration":233903,"SoundDuration":233903,"Delta":495586083},{"NoteNumber":73,"Velocity":56,"Duration":704218,"SoundDuration":704218,"Delta":495832297},{"NoteNumber":54,"Velocity":41,"Duration":704218,"SoundDuration":704218,"Delta":495832297},{"NoteNumber":66,"Velocity":27,"Duration":223602,"SoundDuration":223602,"Delta":496068656},{"NoteNumber":69,"Velocity":32,"Duration":223602,"SoundDuration":223602,"Delta":496068656},{"NoteNumber":66,"Velocity":27,"Duration":221001,"SoundDuration":221001,"Delta":496303954},{"NoteNumber":69,"Velocity":32,"Duration":221001,"SoundDuration":221001,"Delta":496303954},{"NoteNumber":77,"Velocity":56,"Duration":707450,"SoundDuration":707450,"Delta":496536516},{"NoteNumber":56,"Velocity":42,"Duration":707450,"SoundDuration":707450,"Delta":496536516},{"NoteNumber":73,"Velocity":33,"Duration":224063,"SoundDuration":224063,"Delta":496768406},{"NoteNumber":65,"Velocity":27,"Duration":224063,"SoundDuration":224063,"Delta":496768406},{"NoteNumber":71,"Velocity":33,"Duration":224063,"SoundDuration":224063,"Delta":496768406},{"NoteNumber":73,"Velocity":34,"Duration":227544,"SoundDuration":227544,"Delta":497004445},{"NoteNumber":65,"Velocity":27,"Duration":227544,"SoundDuration":227544,"Delta":497004445},{"NoteNumber":71,"Velocity":34,"Duration":227544,"SoundDuration":227544,"Delta":497004445},{"NoteNumber":78,"Velocity":58,"Duration":685714,"SoundDuration":685714,"Delta":497243966},{"NoteNumber":57,"Velocity":47,"Duration":685714,"SoundDuration":685714,"Delta":497243966},{"NoteNumber":73,"Velocity":34,"Duration":217142,"SoundDuration":217142,"Delta":497472538},{"NoteNumber":66,"Velocity":28,"Duration":217142,"SoundDuration":217142,"Delta":497472538},{"NoteNumber":69,"Velocity":34,"Duration":217142,"SoundDuration":217142,"Delta":497472538},{"NoteNumber":73,"Velocity":35,"Duration":217142,"SoundDuration":217142,"Delta":497701109},{"NoteNumber":66,"Velocity":29,"Duration":217142,"SoundDuration":217142,"Delta":497701109},{"NoteNumber":69,"Velocity":35,"Duration":217142,"SoundDuration":217142,"Delta":497701109},{"NoteNumber":80,"Velocity":62,"Duration":710059,"SoundDuration":710059,"Delta":497929680},{"NoteNumber":52,"Velocity":31,"Duration":710059,"SoundDuration":710059,"Delta":497929680},{"NoteNumber":59,"Velocity":37,"Duration":710059,"SoundDuration":710059,"Delta":497929680},{"NoteNumber":76,"Velocity":36,"Duration":224852,"SoundDuration":224852,"Delta":498166367},{"NoteNumber":68,"Velocity":29,"Duration":224852,"SoundDuration":224852,"Delta":498166367},{"NoteNumber":74,"Velocity":36,"Duration":224852,"SoundDuration":224852,"Delta":498166367},{"NoteNumber":76,"Velocity":36,"Duration":224852,"SoundDuration":224852,"Delta":498403053},{"NoteNumber":68,"Velocity":29,"Duration":224852,"SoundDuration":224852,"Delta":498403053},{"NoteNumber":74,"Velocity":36,"Duration":224852,"SoundDuration":224852,"Delta":498403053},{"NoteNumber":81,"Velocity":61,"Duration":693642,"SoundDuration":693642,"Delta":498639739},{"NoteNumber":57,"Velocity":39,"Duration":693642,"SoundDuration":693642,"Delta":498639739},{"NoteNumber":61,"Velocity":47,"Duration":693642,"SoundDuration":693642,"Delta":498639739},{"NoteNumber":69,"Velocity":30,"Duration":219653,"SoundDuration":219653,"Delta":498870953},{"NoteNumber":73,"Velocity":30,"Duration":219653,"SoundDuration":219653,"Delta":498870953},{"NoteNumber":76,"Velocity":36,"Duration":219653,"SoundDuration":219653,"Delta":498870953},{"NoteNumber":69,"Velocity":29,"Duration":219653,"SoundDuration":219653,"Delta":499102167},{"NoteNumber":73,"Velocity":29,"Duration":219653,"SoundDuration":219653,"Delta":499102167},{"NoteNumber":76,"Velocity":36,"Duration":219653,"SoundDuration":219653,"Delta":499102167},{"NoteNumber":83,"Velocity":60,"Duration":716142,"SoundDuration":716142,"Delta":499333381},{"NoteNumber":56,"Velocity":38,"Duration":716142,"SoundDuration":716142,"Delta":499333381},{"NoteNumber":61,"Velocity":45,"Duration":716142,"SoundDuration":716142,"Delta":499333381},{"NoteNumber":77,"Velocity":35,"Duration":226403,"SoundDuration":226403,"Delta":499564595},{"NoteNumber":71,"Velocity":28,"Duration":226403,"SoundDuration":226403,"Delta":499564595},{"NoteNumber":73,"Velocity":35,"Duration":226403,"SoundDuration":226403,"Delta":499564595},{"NoteNumber":77,"Velocity":34,"Duration":233903,"SoundDuration":233903,"Delta":499803309},{"NoteNumber":71,"Velocity":28,"Duration":233903,"SoundDuration":233903,"Delta":499803309},{"NoteNumber":73,"Velocity":34,"Duration":233903,"SoundDuration":233903,"Delta":499803309},{"NoteNumber":81,"Velocity":57,"Duration":738642,"SoundDuration":738642,"Delta":500049524},{"NoteNumber":54,"Velocity":38,"Duration":738642,"SoundDuration":738642,"Delta":500049524},{"NoteNumber":61,"Velocity":46,"Duration":738642,"SoundDuration":738642,"Delta":500049524},{"NoteNumber":78,"Velocity":33,"Duration":233903,"SoundDuration":233903,"Delta":500295738},{"NoteNumber":69,"Velocity":27,"Duration":233903,"SoundDuration":233903,"Delta":500295738},{"NoteNumber":73,"Velocity":33,"Duration":233903,"SoundDuration":233903,"Delta":500295738},{"NoteNumber":78,"Velocity":32,"Duration":233903,"SoundDuration":233903,"Delta":500541952},{"NoteNumber":69,"Velocity":27,"Duration":233903,"SoundDuration":233903,"Delta":500541952},{"NoteNumber":73,"Velocity":32,"Duration":233903,"SoundDuration":233903,"Delta":500541952},{"NoteNumber":80,"Velocity":56,"Duration":738643,"SoundDuration":738643,"Delta":500788167},{"NoteNumber":52,"Velocity":33,"Duration":738643,"SoundDuration":738643,"Delta":500788167},{"NoteNumber":62,"Velocity":39,"Duration":738643,"SoundDuration":738643,"Delta":500788167},{"NoteNumber":76,"Velocity":32,"Duration":233903,"SoundDuration":233903,"Delta":501034381},{"NoteNumber":68,"Velocity":27,"Duration":233903,"SoundDuration":233903,"Delta":501034381},{"NoteNumber":71,"Velocity":32,"Duration":233903,"SoundDuration":233903,"Delta":501034381},{"NoteNumber":76,"Velocity":32,"Duration":233903,"SoundDuration":233903,"Delta":501280595},{"NoteNumber":68,"Velocity":27,"Duration":233903,"SoundDuration":233903,"Delta":501280595},{"NoteNumber":71,"Velocity":32,"Duration":233903,"SoundDuration":233903,"Delta":501280595},{"NoteNumber":80,"Velocity":54,"Duration":1477285,"SoundDuration":1477285,"Delta":501526810},{"NoteNumber":52,"Velocity":33,"Duration":1477285,"SoundDuration":1477285,"Delta":501526810},{"NoteNumber":62,"Velocity":39,"Duration":1477285,"SoundDuration":1477285,"Delta":501526810},{"NoteNumber":68,"Velocity":26,"Duration":233903,"SoundDuration":233903,"Delta":501773024},{"NoteNumber":71,"Velocity":26,"Duration":233903,"SoundDuration":233903,"Delta":501773024},{"NoteNumber":76,"Velocity":31,"Duration":233903,"SoundDuration":233903,"Delta":501773024},{"NoteNumber":68,"Velocity":26,"Duration":233903,"SoundDuration":233903,"Delta":502019238},{"NoteNumber":71,"Velocity":26,"Duration":233903,"SoundDuration":233903,"Delta":502019238},{"NoteNumber":76,"Velocity":31,"Duration":233903,"SoundDuration":233903,"Delta":502019238},{"NoteNumber":68,"Velocity":26,"Duration":233903,"SoundDuration":233903,"Delta":502265453},{"NoteNumber":71,"Velocity":26,"Duration":233903,"SoundDuration":233903,"Delta":502265453},{"NoteNumber":76,"Velocity":31,"Duration":233903,"SoundDuration":233903,"Delta":502265453},{"NoteNumber":68,"Velocity":26,"Duration":233903,"SoundDuration":233903,"Delta":502511667},{"NoteNumber":71,"Velocity":26,"Duration":233903,"SoundDuration":233903,"Delta":502511667},{"NoteNumber":76,"Velocity":31,"Duration":233903,"SoundDuration":233903,"Delta":502511667},{"NoteNumber":68,"Velocity":27,"Duration":233903,"SoundDuration":233903,"Delta":502757881},{"NoteNumber":71,"Velocity":27,"Duration":233903,"SoundDuration":233903,"Delta":502757881},{"NoteNumber":76,"Velocity":32,"Duration":233903,"SoundDuration":233903,"Delta":502757881},{"NoteNumber":80,"Velocity":55,"Duration":738643,"SoundDuration":738643,"Delta":503004096},{"NoteNumber":53,"Velocity":30,"Duration":738643,"SoundDuration":738643,"Delta":503004096},{"NoteNumber":61,"Velocity":37,"Duration":738643,"SoundDuration":738643,"Delta":503004096},{"NoteNumber":68,"Velocity":25,"Duration":233903,"SoundDuration":233903,"Delta":503250310},{"NoteNumber":71,"Velocity":25,"Duration":233903,"SoundDuration":233903,"Delta":503250310},{"NoteNumber":73,"Velocity":29,"Duration":233903,"SoundDuration":233903,"Delta":503250310},{"NoteNumber":68,"Velocity":25,"Duration":233903,"SoundDuration":233903,"Delta":503496524},{"NoteNumber":71,"Velocity":25,"Duration":233903,"SoundDuration":233903,"Delta":503496524},{"NoteNumber":73,"Velocity":30,"Duration":233903,"SoundDuration":233903,"Delta":503496524},{"NoteNumber":81,"Velocity":54,"Duration":738642,"SoundDuration":738642,"Delta":503742739},{"NoteNumber":54,"Velocity":30,"Duration":738642,"SoundDuration":738642,"Delta":503742739},{"NoteNumber":61,"Velocity":36,"Duration":738642,"SoundDuration":738642,"Delta":503742739},{"NoteNumber":69,"Velocity":25,"Duration":233903,"SoundDuration":233903,"Delta":503988953},{"NoteNumber":73,"Velocity":29,"Duration":233903,"SoundDuration":233903,"Delta":503988953},{"NoteNumber":69,"Velocity":25,"Duration":233903,"SoundDuration":233903,"Delta":504235167},{"NoteNumber":73,"Velocity":29,"Duration":233903,"SoundDuration":233903,"Delta":504235167},{"NoteNumber":78,"Velocity":53,"Duration":723326,"SoundDuration":723326,"Delta":504481382},{"NoteNumber":54,"Velocity":32,"Duration":1822357,"SoundDuration":1822357,"Delta":504481382},{"NoteNumber":61,"Velocity":42,"Duration":1084990,"SoundDuration":1084990,"Delta":504481382},{"NoteNumber":69,"Velocity":27,"Duration":229053,"SoundDuration":229053,"Delta":504722491},{"NoteNumber":73,"Velocity":32,"Duration":229053,"SoundDuration":229053,"Delta":504722491},{"NoteNumber":69,"Velocity":27,"Duration":229053,"SoundDuration":229053,"Delta":504963600},{"NoteNumber":73,"Velocity":32,"Duration":229053,"SoundDuration":229053,"Delta":504963600},{"NoteNumber":81,"Velocity":53,"Duration":729708,"SoundDuration":729708,"Delta":505204709},{"NoteNumber":69,"Velocity":26,"Duration":230074,"SoundDuration":230074,"Delta":505445818},{"NoteNumber":73,"Velocity":31,"Duration":230074,"SoundDuration":230074,"Delta":505445818},{"NoteNumber":59,"Velocity":38,"Duration":368045,"SoundDuration":368045,"Delta":505566372},{"NoteNumber":69,"Velocity":26,"Duration":233903,"SoundDuration":233903,"Delta":505688203},{"NoteNumber":73,"Velocity":31,"Duration":233903,"SoundDuration":233903,"Delta":505688203},{"NoteNumber":78,"Velocity":53,"Duration":738642,"SoundDuration":738642,"Delta":505934417},{"NoteNumber":57,"Velocity":41,"Duration":369321,"SoundDuration":369321,"Delta":505934417},{"NoteNumber":69,"Velocity":27,"Duration":233903,"SoundDuration":233903,"Delta":506180632},{"NoteNumber":73,"Velocity":32,"Duration":233903,"SoundDuration":233903,"Delta":506180632},{"NoteNumber":69,"Velocity":27,"Duration":233903,"SoundDuration":233903,"Delta":506426846},{"NoteNumber":73,"Velocity":32,"Duration":233903,"SoundDuration":233903,"Delta":506426846},{"NoteNumber":81,"Velocity":53,"Duration":728332,"SoundDuration":728332,"Delta":506673060},{"NoteNumber":54,"Velocity":32,"Duration":728332,"SoundDuration":728332,"Delta":506673060},{"NoteNumber":57,"Velocity":38,"Duration":728332,"SoundDuration":728332,"Delta":506673060},{"NoteNumber":69,"Velocity":26,"Duration":230638,"SoundDuration":230638,"Delta":506915838},{"NoteNumber":73,"Velocity":31,"Duration":230638,"SoundDuration":230638,"Delta":506915838},{"NoteNumber":69,"Velocity":26,"Duration":230638,"SoundDuration":230638,"Delta":507158615},{"NoteNumber":73,"Velocity":31,"Duration":230638,"SoundDuration":230638,"Delta":507158615},{"NoteNumber":81,"Velocity":56,"Duration":728331,"SoundDuration":728331,"Delta":507401392},{"NoteNumber":54,"Velocity":34,"Duration":1461819,"SoundDuration":1461819,"Delta":507401392},{"NoteNumber":57,"Velocity":41,"Duration":1092497,"SoundDuration":1092497,"Delta":507401392},{"NoteNumber":73,"Velocity":27,"Duration":230638,"SoundDuration":230638,"Delta":507644170},{"NoteNumber":78,"Velocity":32,"Duration":230638,"SoundDuration":230638,"Delta":507644170},{"NoteNumber":73,"Velocity":27,"Duration":230638,"SoundDuration":230638,"Delta":507886947},{"NoteNumber":78,"Velocity":32,"Duration":230638,"SoundDuration":230638,"Delta":507886947},{"NoteNumber":85,"Velocity":55,"Duration":733487,"SoundDuration":733487,"Delta":508129724},{"NoteNumber":73,"Velocity":27,"Duration":232185,"SoundDuration":232185,"Delta":508372502},{"NoteNumber":78,"Velocity":32,"Duration":232185,"SoundDuration":232185,"Delta":508372502},{"NoteNumber":56,"Velocity":41,"Duration":369321,"SoundDuration":369321,"Delta":508493890},{"NoteNumber":73,"Velocity":27,"Duration":233903,"SoundDuration":233903,"Delta":508616998},{"NoteNumber":78,"Velocity":32,"Duration":233903,"SoundDuration":233903,"Delta":508616998},{"NoteNumber":81,"Velocity":55,"Duration":738642,"SoundDuration":738642,"Delta":508863212},{"NoteNumber":54,"Velocity":44,"Duration":369321,"SoundDuration":369321,"Delta":508863212},{"NoteNumber":73,"Velocity":27,"Duration":233903,"SoundDuration":233903,"Delta":509109426},{"NoteNumber":78,"Velocity":32,"Duration":233903,"SoundDuration":233903,"Delta":509109426},{"NoteNumber":73,"Velocity":27,"Duration":233903,"SoundDuration":233903,"Delta":509355641},{"NoteNumber":78,"Velocity":32,"Duration":233903,"SoundDuration":233903,"Delta":509355641},{"NoteNumber":85,"Velocity":56,"Duration":738643,"SoundDuration":738643,"Delta":509601855},{"NoteNumber":54,"Velocity":34,"Duration":738643,"SoundDuration":738643,"Delta":509601855},{"NoteNumber":73,"Velocity":27,"Duration":233903,"SoundDuration":233903,"Delta":509848069},{"NoteNumber":78,"Velocity":32,"Duration":233903,"SoundDuration":233903,"Delta":509848069},{"NoteNumber":73,"Velocity":27,"Duration":233903,"SoundDuration":233903,"Delta":510094284},{"NoteNumber":78,"Velocity":32,"Duration":233903,"SoundDuration":233903,"Delta":510094284},{"NoteNumber":73,"Velocity":56,"Duration":705881,"SoundDuration":705881,"Delta":510340498},{"NoteNumber":54,"Velocity":41,"Duration":705881,"SoundDuration":705881,"Delta":510340498},{"NoteNumber":66,"Velocity":27,"Duration":223529,"SoundDuration":223529,"Delta":510575792},{"NoteNumber":69,"Velocity":32,"Duration":223529,"SoundDuration":223529,"Delta":510575792},{"NoteNumber":66,"Velocity":27,"Duration":235293,"SoundDuration":235293,"Delta":510811086},{"NoteNumber":69,"Velocity":32,"Duration":235293,"SoundDuration":235293,"Delta":510811086},{"NoteNumber":77,"Velocity":56,"Duration":704108,"SoundDuration":704108,"Delta":511046380},{"NoteNumber":56,"Velocity":42,"Duration":704108,"SoundDuration":704108,"Delta":511046380},{"NoteNumber":73,"Velocity":33,"Duration":222726,"SoundDuration":222726,"Delta":511276265},{"NoteNumber":65,"Velocity":27,"Duration":222726,"SoundDuration":222726,"Delta":511276265},{"NoteNumber":71,"Velocity":33,"Duration":222726,"SoundDuration":222726,"Delta":511276265},{"NoteNumber":73,"Velocity":34,"Duration":227544,"SoundDuration":227544,"Delta":511510968},{"NoteNumber":65,"Velocity":27,"Duration":227544,"SoundDuration":227544,"Delta":511510968},{"NoteNumber":71,"Velocity":34,"Duration":227544,"SoundDuration":227544,"Delta":511510968},{"NoteNumber":78,"Velocity":58,"Duration":689655,"SoundDuration":689655,"Delta":511750489},{"NoteNumber":57,"Velocity":47,"Duration":689655,"SoundDuration":689655,"Delta":511750489},{"NoteNumber":73,"Velocity":34,"Duration":218390,"SoundDuration":218390,"Delta":511980374},{"NoteNumber":66,"Velocity":28,"Duration":218390,"SoundDuration":218390,"Delta":511980374},{"NoteNumber":69,"Velocity":34,"Duration":218390,"SoundDuration":218390,"Delta":511980374},{"NoteNumber":73,"Velocity":35,"Duration":218390,"SoundDuration":218390,"Delta":512210259},{"NoteNumber":66,"Velocity":29,"Duration":218390,"SoundDuration":218390,"Delta":512210259},{"NoteNumber":69,"Velocity":35,"Duration":218390,"SoundDuration":218390,"Delta":512210259},{"NoteNumber":80,"Velocity":62,"Duration":705881,"SoundDuration":705881,"Delta":512440144},{"NoteNumber":52,"Velocity":31,"Duration":705881,"SoundDuration":705881,"Delta":512440144},{"NoteNumber":59,"Velocity":37,"Duration":705881,"SoundDuration":705881,"Delta":512440144},{"NoteNumber":76,"Velocity":36,"Duration":223529,"SoundDuration":223529,"Delta":512675438},{"NoteNumber":68,"Velocity":29,"Duration":223529,"SoundDuration":223529,"Delta":512675438},{"NoteNumber":74,"Velocity":36,"Duration":223529,"SoundDuration":223529,"Delta":512675438},{"NoteNumber":76,"Velocity":36,"Duration":223529,"SoundDuration":223529,"Delta":512910732},{"NoteNumber":68,"Velocity":29,"Duration":223529,"SoundDuration":223529,"Delta":512910732},{"NoteNumber":74,"Velocity":36,"Duration":223529,"SoundDuration":223529,"Delta":512910732},{"NoteNumber":81,"Velocity":61,"Duration":693641,"SoundDuration":693641,"Delta":513146026},{"NoteNumber":57,"Velocity":39,"Duration":693641,"SoundDuration":693641,"Delta":513146026},{"NoteNumber":61,"Velocity":47,"Duration":693641,"SoundDuration":693641,"Delta":513146026},{"NoteNumber":69,"Velocity":30,"Duration":219653,"SoundDuration":219653,"Delta":513377240},{"NoteNumber":73,"Velocity":30,"Duration":219653,"SoundDuration":219653,"Delta":513377240},{"NoteNumber":76,"Velocity":36,"Duration":219653,"SoundDuration":219653,"Delta":513377240},{"NoteNumber":69,"Velocity":29,"Duration":219653,"SoundDuration":219653,"Delta":513608454},{"NoteNumber":73,"Velocity":29,"Duration":219653,"SoundDuration":219653,"Delta":513608454},{"NoteNumber":76,"Velocity":36,"Duration":219653,"SoundDuration":219653,"Delta":513608454},{"NoteNumber":83,"Velocity":60,"Duration":716142,"SoundDuration":716142,"Delta":513839668},{"NoteNumber":56,"Velocity":38,"Duration":716142,"SoundDuration":716142,"Delta":513839668},{"NoteNumber":61,"Velocity":45,"Duration":716142,"SoundDuration":716142,"Delta":513839668},{"NoteNumber":77,"Velocity":35,"Duration":226403,"SoundDuration":226403,"Delta":514070882},{"NoteNumber":71,"Velocity":28,"Duration":226403,"SoundDuration":226403,"Delta":514070882},{"NoteNumber":73,"Velocity":35,"Duration":226403,"SoundDuration":226403,"Delta":514070882},{"NoteNumber":77,"Velocity":34,"Duration":233903,"SoundDuration":233903,"Delta":514309596},{"NoteNumber":71,"Velocity":28,"Duration":233903,"SoundDuration":233903,"Delta":514309596},{"NoteNumber":73,"Velocity":34,"Duration":233903,"SoundDuration":233903,"Delta":514309596},{"NoteNumber":81,"Velocity":57,"Duration":738643,"SoundDuration":738643,"Delta":514555810},{"NoteNumber":54,"Velocity":38,"Duration":738643,"SoundDuration":738643,"Delta":514555810},{"NoteNumber":61,"Velocity":46,"Duration":738643,"SoundDuration":738643,"Delta":514555810},{"NoteNumber":78,"Velocity":33,"Duration":233903,"SoundDuration":233903,"Delta":514802025},{"NoteNumber":69,"Velocity":27,"Duration":233903,"SoundDuration":233903,"Delta":514802025},{"NoteNumber":73,"Velocity":33,"Duration":233903,"SoundDuration":233903,"Delta":514802025},{"NoteNumber":78,"Velocity":32,"Duration":233903,"SoundDuration":233903,"Delta":515048239},{"NoteNumber":69,"Velocity":27,"Duration":233903,"SoundDuration":233903,"Delta":515048239},{"NoteNumber":73,"Velocity":32,"Duration":233903,"SoundDuration":233903,"Delta":515048239},{"NoteNumber":80,"Velocity":56,"Duration":738643,"SoundDuration":738643,"Delta":515294453},{"NoteNumber":52,"Velocity":33,"Duration":738643,"SoundDuration":738643,"Delta":515294453},{"NoteNumber":62,"Velocity":39,"Duration":738643,"SoundDuration":738643,"Delta":515294453},{"NoteNumber":76,"Velocity":32,"Duration":233903,"SoundDuration":233903,"Delta":515540668},{"NoteNumber":68,"Velocity":27,"Duration":233903,"SoundDuration":233903,"Delta":515540668},{"NoteNumber":71,"Velocity":32,"Duration":233903,"SoundDuration":233903,"Delta":515540668},{"NoteNumber":76,"Velocity":32,"Duration":233903,"SoundDuration":233903,"Delta":515786882},{"NoteNumber":68,"Velocity":27,"Duration":233903,"SoundDuration":233903,"Delta":515786882},{"NoteNumber":71,"Velocity":32,"Duration":233903,"SoundDuration":233903,"Delta":515786882},{"NoteNumber":80,"Velocity":54,"Duration":1477286,"SoundDuration":1477286,"Delta":516033096},{"NoteNumber":52,"Velocity":33,"Duration":1477286,"SoundDuration":1477286,"Delta":516033096},{"NoteNumber":62,"Velocity":39,"Duration":1477286,"SoundDuration":1477286,"Delta":516033096},{"NoteNumber":68,"Velocity":26,"Duration":233903,"SoundDuration":233903,"Delta":516279311},{"NoteNumber":71,"Velocity":26,"Duration":233903,"SoundDuration":233903,"Delta":516279311},{"NoteNumber":76,"Velocity":31,"Duration":233903,"SoundDuration":233903,"Delta":516279311},{"NoteNumber":68,"Velocity":26,"Duration":233903,"SoundDuration":233903,"Delta":516525525},{"NoteNumber":71,"Velocity":26,"Duration":233903,"SoundDuration":233903,"Delta":516525525},{"NoteNumber":76,"Velocity":31,"Duration":233903,"SoundDuration":233903,"Delta":516525525},{"NoteNumber":68,"Velocity":26,"Duration":233903,"SoundDuration":233903,"Delta":516771739},{"NoteNumber":71,"Velocity":26,"Duration":233903,"SoundDuration":233903,"Delta":516771739},{"NoteNumber":76,"Velocity":31,"Duration":233903,"SoundDuration":233903,"Delta":516771739},{"NoteNumber":68,"Velocity":26,"Duration":233903,"SoundDuration":233903,"Delta":517017954},{"NoteNumber":71,"Velocity":26,"Duration":233903,"SoundDuration":233903,"Delta":517017954},{"NoteNumber":76,"Velocity":31,"Duration":233903,"SoundDuration":233903,"Delta":517017954},{"NoteNumber":68,"Velocity":27,"Duration":233903,"SoundDuration":233903,"Delta":517264168},{"NoteNumber":71,"Velocity":27,"Duration":233903,"SoundDuration":233903,"Delta":517264168},{"NoteNumber":76,"Velocity":32,"Duration":233903,"SoundDuration":233903,"Delta":517264168},{"NoteNumber":69,"Velocity":41,"Duration":369321,"SoundDuration":369321,"Delta":517510382},{"NoteNumber":73,"Velocity":41,"Duration":369321,"SoundDuration":369321,"Delta":517510382},{"NoteNumber":76,"Velocity":41,"Duration":369321,"SoundDuration":369321,"Delta":517510382},{"NoteNumber":81,"Velocity":49,"Duration":369321,"SoundDuration":369321,"Delta":517510382},{"NoteNumber":57,"Velocity":37,"Duration":246214,"SoundDuration":246214,"Delta":517510382},{"NoteNumber":61,"Velocity":37,"Duration":246214,"SoundDuration":246214,"Delta":517510382},{"NoteNumber":64,"Velocity":29,"Duration":233903,"SoundDuration":233903,"Delta":517756597},{"NoteNumber":64,"Velocity":29,"Duration":233903,"SoundDuration":233903,"Delta":518002811},{"NoteNumber":76,"Velocity":52,"Duration":725706,"SoundDuration":725706,"Delta":518249025},{"NoteNumber":64,"Velocity":33,"Duration":230470,"SoundDuration":230470,"Delta":518249025},{"NoteNumber":64,"Velocity":29,"Duration":230470,"SoundDuration":230470,"Delta":518491626},{"NoteNumber":64,"Velocity":29,"Duration":228794,"SoundDuration":228794,"Delta":518734227},{"NoteNumber":76,"Velocity":54,"Duration":1002071,"SoundDuration":1002071,"Delta":518974732},{"NoteNumber":58,"Velocity":33,"Duration":168142,"SoundDuration":168142,"Delta":518974732},{"NoteNumber":64,"Velocity":27,"Duration":168142,"SoundDuration":168142,"Delta":519142875},{"NoteNumber":61,"Velocity":27,"Duration":167019,"SoundDuration":167019,"Delta":519311017},{"NoteNumber":64,"Velocity":27,"Duration":167019,"SoundDuration":167019,"Delta":519478036},{"NoteNumber":58,"Velocity":33,"Duration":165874,"SoundDuration":165874,"Delta":519645056},{"NoteNumber":64,"Velocity":28,"Duration":165874,"SoundDuration":165874,"Delta":519810930},{"NoteNumber":74,"Velocity":51,"Duration":331748,"SoundDuration":331748,"Delta":519976804},{"NoteNumber":61,"Velocity":28,"Duration":165874,"SoundDuration":165874,"Delta":519976804},{"NoteNumber":64,"Velocity":29,"Duration":165874,"SoundDuration":165874,"Delta":520142678},{"NoteNumber":73,"Velocity":51,"Duration":331748,"SoundDuration":331748,"Delta":520308553},{"NoteNumber":58,"Velocity":33,"Duration":165874,"SoundDuration":165874,"Delta":520308553},{"NoteNumber":64,"Velocity":29,"Duration":165874,"SoundDuration":165874,"Delta":520474427},{"NoteNumber":61,"Velocity":29,"Duration":165874,"SoundDuration":165874,"Delta":520640301},{"NoteNumber":64,"Velocity":29,"Duration":165874,"SoundDuration":165874,"Delta":520806175},{"NoteNumber":73,"Velocity":52,"Duration":668077,"SoundDuration":668077,"Delta":520972050},{"NoteNumber":57,"Velocity":33,"Duration":167019,"SoundDuration":167019,"Delta":520972050},{"NoteNumber":64,"Velocity":29,"Duration":167019,"SoundDuration":167019,"Delta":521139069},{"NoteNumber":61,"Velocity":29,"Duration":167019,"SoundDuration":167019,"Delta":521306088},{"NoteNumber":64,"Velocity":29,"Duration":167019,"SoundDuration":167019,"Delta":521473107},{"NoteNumber":73,"Velocity":54,"Duration":988358,"SoundDuration":988358,"Delta":521640127},{"NoteNumber":55,"Velocity":33,"Duration":164726,"SoundDuration":164726,"Delta":521640127},{"NoteNumber":64,"Velocity":27,"Duration":164726,"SoundDuration":164726,"Delta":521804853},{"NoteNumber":61,"Velocity":27,"Duration":164726,"SoundDuration":164726,"Delta":521969580},{"NoteNumber":64,"Velocity":27,"Duration":164726,"SoundDuration":164726,"Delta":522134306},{"NoteNumber":55,"Velocity":33,"Duration":164726,"SoundDuration":164726,"Delta":522299033},{"NoteNumber":64,"Velocity":28,"Duration":164726,"SoundDuration":164726,"Delta":522463759},{"NoteNumber":71,"Velocity":51,"Duration":334038,"SoundDuration":334038,"Delta":522628486},{"NoteNumber":61,"Velocity":28,"Duration":167019,"SoundDuration":167019,"Delta":522628486},{"NoteNumber":64,"Velocity":29,"Duration":167019,"SoundDuration":167019,"Delta":522795505},{"NoteNumber":70,"Velocity":51,"Duration":334038,"SoundDuration":334038,"Delta":522962524},{"NoteNumber":55,"Velocity":33,"Duration":167019,"SoundDuration":167019,"Delta":522962524},{"NoteNumber":64,"Velocity":29,"Duration":167019,"SoundDuration":167019,"Delta":523129543},{"NoteNumber":61,"Velocity":29,"Duration":167019,"SoundDuration":167019,"Delta":523296563},{"NoteNumber":64,"Velocity":29,"Duration":167019,"SoundDuration":167019,"Delta":523463582},{"NoteNumber":66,"Velocity":52,"Duration":651114,"SoundDuration":651114,"Delta":523630601},{"NoteNumber":70,"Velocity":52,"Duration":651114,"SoundDuration":651114,"Delta":523630601},{"NoteNumber":54,"Velocity":33,"Duration":163007,"SoundDuration":163007,"Delta":523630601},{"NoteNumber":64,"Velocity":29,"Duration":163007,"SoundDuration":163007,"Delta":523793609},{"NoteNumber":61,"Velocity":29,"Duration":163007,"SoundDuration":163007,"Delta":523956617},{"NoteNumber":64,"Velocity":29,"Duration":162090,"SoundDuration":162090,"Delta":524119625},{"NoteNumber":66,"Velocity":44,"Duration":635701,"SoundDuration":635701,"Delta":524281716},{"NoteNumber":70,"Velocity":52,"Duration":635701,"SoundDuration":635701,"Delta":524281716},{"NoteNumber":54,"Velocity":33,"Duration":160256,"SoundDuration":160256,"Delta":524281716},{"NoteNumber":64,"Velocity":28,"Duration":159354,"SoundDuration":159354,"Delta":524441972},{"NoteNumber":61,"Velocity":28,"Duration":158478,"SoundDuration":158478,"Delta":524601326},{"NoteNumber":64,"Velocity":28,"Duration":157612,"SoundDuration":157612,"Delta":524759805},{"NoteNumber":66,"Velocity":47,"Duration":622972,"SoundDuration":622972,"Delta":524917418},{"NoteNumber":71,"Velocity":55,"Duration":622972,"SoundDuration":622972,"Delta":524917418},{"NoteNumber":54,"Velocity":34,"Duration":157019,"SoundDuration":157019,"Delta":524917418},{"NoteNumber":62,"Velocity":28,"Duration":156158,"SoundDuration":156158,"Delta":525074438},{"NoteNumber":59,"Velocity":28,"Duration":155317,"SoundDuration":155317,"Delta":525230596},{"NoteNumber":62,"Velocity":29,"Duration":154475,"SoundDuration":154475,"Delta":525385914},{"NoteNumber":66,"Velocity":47,"Duration":610743,"SoundDuration":610743,"Delta":525540390},{"NoteNumber":70,"Velocity":47,"Duration":610743,"SoundDuration":610743,"Delta":525540390},{"NoteNumber":73,"Velocity":56,"Duration":610743,"SoundDuration":610743,"Delta":525540390},{"NoteNumber":54,"Velocity":35,"Duration":153915,"SoundDuration":153915,"Delta":525540390},{"NoteNumber":61,"Velocity":29,"Duration":153088,"SoundDuration":153088,"Delta":525694305},{"NoteNumber":58,"Velocity":29,"Duration":152274,"SoundDuration":152274,"Delta":525847394},{"NoteNumber":61,"Velocity":29,"Duration":151465,"SoundDuration":151465,"Delta":525999669},{"NoteNumber":66,"Velocity":48,"Duration":606950,"SoundDuration":606950,"Delta":526151134},{"NoteNumber":71,"Velocity":48,"Duration":606950,"SoundDuration":606950,"Delta":526151134},{"NoteNumber":74,"Velocity":57,"Duration":606950,"SoundDuration":606950,"Delta":526151134},{"NoteNumber":54,"Velocity":36,"Duration":150935,"SoundDuration":150935,"Delta":526151134},{"NoteNumber":62,"Velocity":31,"Duration":151465,"SoundDuration":151465,"Delta":526302069},{"NoteNumber":59,"Velocity":31,"Duration":152002,"SoundDuration":152002,"Delta":526453534},{"NoteNumber":62,"Velocity":31,"Duration":152547,"SoundDuration":152547,"Delta":526605537},{"NoteNumber":66,"Velocity":50,"Duration":613433,"SoundDuration":613433,"Delta":526758084},{"NoteNumber":73,"Velocity":50,"Duration":613433,"SoundDuration":613433,"Delta":526758084},{"NoteNumber":76,"Velocity":59,"Duration":613433,"SoundDuration":613433,"Delta":526758084},{"NoteNumber":54,"Velocity":37,"Duration":153358,"SoundDuration":153358,"Delta":526758084},{"NoteNumber":64,"Velocity":31,"Duration":153358,"SoundDuration":153358,"Delta":526911443},{"NoteNumber":61,"Velocity":32,"Duration":153358,"SoundDuration":153358,"Delta":527064801},{"NoteNumber":64,"Velocity":32,"Duration":153358,"SoundDuration":153358,"Delta":527218160},{"NoteNumber":67,"Velocity":51,"Duration":628785,"SoundDuration":628785,"Delta":527371518},{"NoteNumber":73,"Velocity":51,"Duration":628785,"SoundDuration":628785,"Delta":527371518},{"NoteNumber":76,"Velocity":60,"Duration":628785,"SoundDuration":628785,"Delta":527371518},{"NoteNumber":55,"Velocity":37,"Duration":155038,"SoundDuration":155038,"Delta":527371518},{"NoteNumber":64,"Velocity":31,"Duration":155038,"SoundDuration":155038,"Delta":527526557},{"NoteNumber":61,"Velocity":31,"Duration":159354,"SoundDuration":159354,"Delta":527681596},{"NoteNumber":64,"Velocity":31,"Duration":159354,"SoundDuration":159354,"Delta":527840950},{"NoteNumber":68,"Velocity":52,"Duration":652688,"SoundDuration":652688,"Delta":528000304},{"NoteNumber":73,"Velocity":52,"Duration":652688,"SoundDuration":652688,"Delta":528000304},{"NoteNumber":76,"Velocity":61,"Duration":652688,"SoundDuration":652688,"Delta":528000304},{"NoteNumber":56,"Velocity":38,"Duration":162531,"SoundDuration":162531,"Delta":528000304},{"NoteNumber":64,"Velocity":32,"Duration":162531,"SoundDuration":162531,"Delta":528162835},{"NoteNumber":61,"Velocity":32,"Duration":163630,"SoundDuration":163630,"Delta":528325366},{"NoteNumber":64,"Velocity":33,"Duration":163995,"SoundDuration":163995,"Delta":528488997},{"NoteNumber":69,"Velocity":53,"Duration":668077,"SoundDuration":668077,"Delta":528652993},{"NoteNumber":73,"Velocity":53,"Duration":668077,"SoundDuration":668077,"Delta":528652993},{"NoteNumber":76,"Velocity":63,"Duration":668077,"SoundDuration":668077,"Delta":528652993},{"NoteNumber":57,"Velocity":39,"Duration":167019,"SoundDuration":167019,"Delta":528652993},{"NoteNumber":64,"Velocity":32,"Duration":167019,"SoundDuration":167019,"Delta":528820012},{"NoteNumber":61,"Velocity":34,"Duration":167019,"SoundDuration":167019,"Delta":528987031},{"NoteNumber":64,"Velocity":34,"Duration":167019,"SoundDuration":167019,"Delta":529154050},{"NoteNumber":76,"Velocity":59,"Duration":793190,"SoundDuration":793190,"Delta":529321070},{"NoteNumber":57,"Velocity":33,"Duration":161168,"SoundDuration":161168,"Delta":529321070},{"NoteNumber":64,"Velocity":27,"Duration":161168,"SoundDuration":161168,"Delta":529482239},{"NoteNumber":61,"Velocity":27,"Duration":161169,"SoundDuration":161169,"Delta":529643408},{"NoteNumber":64,"Velocity":27,"Duration":161168,"SoundDuration":161168,"Delta":529804577},{"NoteNumber":58,"Velocity":33,"Duration":148514,"SoundDuration":148514,"Delta":529965746},{"NoteNumber":77,"Velocity":51,"Duration":148514,"SoundDuration":148514,"Delta":530114260},{"NoteNumber":64,"Velocity":28,"Duration":148514,"SoundDuration":148514,"Delta":530114260},{"NoteNumber":76,"Velocity":53,"Duration":148514,"SoundDuration":148514,"Delta":530262775},{"NoteNumber":61,"Velocity":28,"Duration":148514,"SoundDuration":148514,"Delta":530262775},{"NoteNumber":74,"Velocity":51,"Duration":148514,"SoundDuration":148514,"Delta":530411290},{"NoteNumber":64,"Velocity":29,"Duration":148514,"SoundDuration":148514,"Delta":530411290},{"NoteNumber":73,"Velocity":56,"Duration":306122,"SoundDuration":306122,"Delta":530559805},{"NoteNumber":58,"Velocity":33,"Duration":153061,"SoundDuration":153061,"Delta":530559805},{"NoteNumber":64,"Velocity":29,"Duration":153061,"SoundDuration":153061,"Delta":530712866},{"NoteNumber":61,"Velocity":29,"Duration":153061,"SoundDuration":153061,"Delta":530865927},{"NoteNumber":64,"Velocity":29,"Duration":153061,"SoundDuration":153061,"Delta":531018988},{"NoteNumber":73,"Velocity":57,"Duration":657318,"SoundDuration":657318,"Delta":531172050},{"NoteNumber":57,"Velocity":33,"Duration":164329,"SoundDuration":164329,"Delta":531172050},{"NoteNumber":64,"Velocity":29,"Duration":164329,"SoundDuration":164329,"Delta":531336379},{"NoteNumber":61,"Velocity":29,"Duration":164329,"SoundDuration":164329,"Delta":531500709},{"NoteNumber":64,"Velocity":29,"Duration":164329,"SoundDuration":164329,"Delta":531665038},{"NoteNumber":73,"Velocity":59,"Duration":789540,"SoundDuration":789540,"Delta":531829368},{"NoteNumber":55,"Velocity":33,"Duration":160256,"SoundDuration":160256,"Delta":531829368},{"NoteNumber":64,"Velocity":27,"Duration":160256,"SoundDuration":160256,"Delta":531989624},{"NoteNumber":61,"Velocity":27,"Duration":160256,"SoundDuration":160256,"Delta":532149881},{"NoteNumber":64,"Velocity":27,"Duration":160256,"SoundDuration":160256,"Delta":532310137},{"NoteNumber":55,"Velocity":33,"Duration":148514,"SoundDuration":148514,"Delta":532470394},{"NoteNumber":74,"Velocity":53,"Duration":148514,"SoundDuration":148514,"Delta":532618908},{"NoteNumber":64,"Velocity":28,"Duration":148514,"SoundDuration":148514,"Delta":532618908},{"NoteNumber":73,"Velocity":53,"Duration":148514,"SoundDuration":148514,"Delta":532767423},{"NoteNumber":61,"Velocity":28,"Duration":148514,"SoundDuration":148514,"Delta":532767423},{"NoteNumber":71,"Velocity":53,"Duration":148514,"SoundDuration":148514,"Delta":532915938},{"NoteNumber":64,"Velocity":29,"Duration":148514,"SoundDuration":148514,"Delta":532915938},{"NoteNumber":70,"Velocity":56,"Duration":306122,"SoundDuration":306122,"Delta":533064453},{"NoteNumber":55,"Velocity":33,"Duration":153061,"SoundDuration":153061,"Delta":533064453},{"NoteNumber":64,"Velocity":29,"Duration":153061,"SoundDuration":153061,"Delta":533217514},{"NoteNumber":61,"Velocity":29,"Duration":153061,"SoundDuration":153061,"Delta":533370575},{"NoteNumber":64,"Velocity":31,"Duration":153061,"SoundDuration":153061,"Delta":533523636},{"NoteNumber":66,"Velocity":57,"Duration":648999,"SoundDuration":648999,"Delta":533676698},{"NoteNumber":70,"Velocity":57,"Duration":648999,"SoundDuration":648999,"Delta":533676698},{"NoteNumber":54,"Velocity":36,"Duration":162249,"SoundDuration":162249,"Delta":533676698},{"NoteNumber":64,"Velocity":31,"Duration":162249,"SoundDuration":162249,"Delta":533838947},{"NoteNumber":61,"Velocity":31,"Duration":162249,"SoundDuration":162249,"Delta":534001197},{"NoteNumber":64,"Velocity":31,"Duration":162249,"SoundDuration":162249,"Delta":534163447},{"NoteNumber":66,"Velocity":48,"Duration":468479,"SoundDuration":468479,"Delta":534325697},{"NoteNumber":70,"Velocity":57,"Duration":468479,"SoundDuration":468479,"Delta":534325697},{"NoteNumber":54,"Velocity":36,"Duration":156723,"SoundDuration":156723,"Delta":534325697},{"NoteNumber":64,"Velocity":30,"Duration":156158,"SoundDuration":156158,"Delta":534482420},{"NoteNumber":61,"Velocity":30,"Duration":155597,"SoundDuration":155597,"Delta":534638579},{"NoteNumber":66,"Velocity":48,"Duration":154757,"SoundDuration":154757,"Delta":534794176},{"NoteNumber":70,"Velocity":57,"Duration":154757,"SoundDuration":154757,"Delta":534794176},{"NoteNumber":64,"Velocity":30,"Duration":154757,"SoundDuration":154757,"Delta":534794176},{"NoteNumber":66,"Velocity":51,"Duration":460100,"SoundDuration":460100,"Delta":534948933},{"NoteNumber":71,"Velocity":60,"Duration":460100,"SoundDuration":460100,"Delta":534948933},{"NoteNumber":54,"Velocity":37,"Duration":154194,"SoundDuration":154194,"Delta":534948933},{"NoteNumber":62,"Velocity":30,"Duration":153358,"SoundDuration":153358,"Delta":535103127},{"NoteNumber":59,"Velocity":30,"Duration":152547,"SoundDuration":152547,"Delta":535256486},{"NoteNumber":66,"Velocity":51,"Duration":152002,"SoundDuration":152002,"Delta":535409033},{"NoteNumber":71,"Velocity":60,"Duration":152002,"SoundDuration":152002,"Delta":535409033},{"NoteNumber":62,"Velocity":31,"Duration":152002,"SoundDuration":152002,"Delta":535409033},{"NoteNumber":66,"Velocity":51,"Duration":451740,"SoundDuration":451740,"Delta":535561036},{"NoteNumber":70,"Velocity":51,"Duration":451740,"SoundDuration":451740,"Delta":535561036},{"NoteNumber":73,"Velocity":61,"Duration":451740,"SoundDuration":451740,"Delta":535561036},{"NoteNumber":54,"Velocity":38,"Duration":151200,"SoundDuration":151200,"Delta":535561036},{"NoteNumber":61,"Velocity":31,"Duration":150668,"SoundDuration":150668,"Delta":535712236},{"NoteNumber":58,"Velocity":31,"Duration":149871,"SoundDuration":149871,"Delta":535862905},{"NoteNumber":66,"Velocity":51,"Duration":149342,"SoundDuration":149342,"Delta":536012776},{"NoteNumber":70,"Velocity":51,"Duration":149342,"SoundDuration":149342,"Delta":536012776},{"NoteNumber":73,"Velocity":61,"Duration":149342,"SoundDuration":149342,"Delta":536012776},{"NoteNumber":61,"Velocity":31,"Duration":149342,"SoundDuration":149342,"Delta":536012776},{"NoteNumber":66,"Velocity":52,"Duration":443677,"SoundDuration":443677,"Delta":536162119},{"NoteNumber":71,"Velocity":52,"Duration":443677,"SoundDuration":443677,"Delta":536162119},{"NoteNumber":74,"Velocity":62,"Duration":443677,"SoundDuration":443677,"Delta":536162119},{"NoteNumber":54,"Velocity":39,"Duration":148573,"SoundDuration":148573,"Delta":536162119},{"NoteNumber":62,"Velocity":34,"Duration":147812,"SoundDuration":147812,"Delta":536310693},{"NoteNumber":59,"Velocity":34,"Duration":147290,"SoundDuration":147290,"Delta":536458505},{"NoteNumber":66,"Velocity":52,"Duration":146532,"SoundDuration":146532,"Delta":536605796},{"NoteNumber":71,"Velocity":52,"Duration":146532,"SoundDuration":146532,"Delta":536605796},{"NoteNumber":74,"Velocity":62,"Duration":146532,"SoundDuration":146532,"Delta":536605796},{"NoteNumber":62,"Velocity":34,"Duration":146532,"SoundDuration":146532,"Delta":536605796},{"NoteNumber":66,"Velocity":55,"Duration":442906,"SoundDuration":442906,"Delta":536752329},{"NoteNumber":73,"Velocity":55,"Duration":442906,"SoundDuration":442906,"Delta":536752329},{"NoteNumber":76,"Velocity":64,"Duration":442906,"SoundDuration":442906,"Delta":536752329},{"NoteNumber":54,"Velocity":40,"Duration":146781,"SoundDuration":146781,"Delta":536752329},{"NoteNumber":64,"Velocity":34,"Duration":147551,"SoundDuration":147551,"Delta":536899111},{"NoteNumber":61,"Velocity":35,"Duration":148573,"SoundDuration":148573,"Delta":537046662},{"NoteNumber":66,"Velocity":55,"Duration":149606,"SoundDuration":149606,"Delta":537195236},{"NoteNumber":73,"Velocity":55,"Duration":149606,"SoundDuration":149606,"Delta":537195236},{"NoteNumber":76,"Velocity":64,"Duration":149606,"SoundDuration":149606,"Delta":537195236},{"NoteNumber":64,"Velocity":35,"Duration":149606,"SoundDuration":149606,"Delta":537195236},{"NoteNumber":67,"Velocity":56,"Duration":453877,"SoundDuration":453877,"Delta":537344843},{"NoteNumber":73,"Velocity":56,"Duration":453877,"SoundDuration":453877,"Delta":537344843},{"NoteNumber":76,"Velocity":66,"Duration":453877,"SoundDuration":453877,"Delta":537344843},{"NoteNumber":55,"Velocity":40,"Duration":150401,"SoundDuration":150401,"Delta":537344843},{"NoteNumber":64,"Velocity":34,"Duration":151200,"SoundDuration":151200,"Delta":537495245},{"NoteNumber":61,"Velocity":34,"Duration":152274,"SoundDuration":152274,"Delta":537646445},{"NoteNumber":67,"Velocity":56,"Duration":153088,"SoundDuration":153088,"Delta":537798720},{"NoteNumber":73,"Velocity":56,"Duration":153088,"SoundDuration":153088,"Delta":537798720},{"NoteNumber":76,"Velocity":66,"Duration":153088,"SoundDuration":153088,"Delta":537798720},{"NoteNumber":64,"Velocity":34,"Duration":153088,"SoundDuration":153088,"Delta":537798720},{"NoteNumber":68,"Velocity":57,"Duration":470170,"SoundDuration":470170,"Delta":537951808},{"NoteNumber":73,"Velocity":57,"Duration":470170,"SoundDuration":470170,"Delta":537951808},{"NoteNumber":76,"Velocity":67,"Duration":470170,"SoundDuration":470170,"Delta":537951808},{"NoteNumber":56,"Velocity":41,"Duration":156723,"SoundDuration":156723,"Delta":537951808},{"NoteNumber":64,"Velocity":35,"Duration":156723,"SoundDuration":156723,"Delta":538108532},{"NoteNumber":61,"Velocity":35,"Duration":156723,"SoundDuration":156723,"Delta":538265255},{"NoteNumber":68,"Velocity":57,"Duration":156723,"SoundDuration":156723,"Delta":538421979},{"NoteNumber":73,"Velocity":57,"Duration":156723,"SoundDuration":156723,"Delta":538421979},{"NoteNumber":76,"Velocity":67,"Duration":156723,"SoundDuration":156723,"Delta":538421979},{"NoteNumber":64,"Velocity":36,"Duration":156723,"SoundDuration":156723,"Delta":538421979},{"NoteNumber":69,"Velocity":58,"Duration":644676,"SoundDuration":644676,"Delta":538578702},{"NoteNumber":73,"Velocity":58,"Duration":644676,"SoundDuration":644676,"Delta":538578702},{"NoteNumber":76,"Velocity":69,"Duration":644676,"SoundDuration":644676,"Delta":538578702},{"NoteNumber":57,"Velocity":42,"Duration":161168,"SoundDuration":161168,"Delta":538578702},{"NoteNumber":64,"Velocity":35,"Duration":161168,"SoundDuration":161168,"Delta":538739871},{"NoteNumber":61,"Velocity":37,"Duration":161169,"SoundDuration":161169,"Delta":538901040},{"NoteNumber":64,"Velocity":37,"Duration":161168,"SoundDuration":161168,"Delta":539062209},{"NoteNumber":76,"Velocity":59,"Duration":1123733,"SoundDuration":1123733,"Delta":539223378},{"NoteNumber":57,"Velocity":36,"Duration":162074,"SoundDuration":162074,"Delta":539223378},{"NoteNumber":64,"Velocity":29,"Duration":162074,"SoundDuration":162074,"Delta":539385453},{"NoteNumber":61,"Velocity":29,"Duration":162074,"SoundDuration":162074,"Delta":539547527},{"NoteNumber":64,"Velocity":29,"Duration":162074,"SoundDuration":162074,"Delta":539709602},{"NoteNumber":58,"Velocity":36,"Duration":158478,"SoundDuration":158478,"Delta":539871676},{"NoteNumber":64,"Velocity":30,"Duration":158478,"SoundDuration":158478,"Delta":540030155},{"NoteNumber":61,"Velocity":30,"Duration":158478,"SoundDuration":158478,"Delta":540188633},{"NoteNumber":74,"Velocity":56,"Duration":158478,"SoundDuration":158478,"Delta":540347112},{"NoteNumber":64,"Velocity":31,"Duration":158478,"SoundDuration":158478,"Delta":540347112},{"NoteNumber":73,"Velocity":56,"Duration":316957,"SoundDuration":316957,"Delta":540505590},{"NoteNumber":57,"Velocity":36,"Duration":158478,"SoundDuration":158478,"Delta":540505590},{"NoteNumber":64,"Velocity":31,"Duration":158478,"SoundDuration":158478,"Delta":540664069},{"NoteNumber":61,"Velocity":31,"Duration":158478,"SoundDuration":158478,"Delta":540822547},{"NoteNumber":64,"Velocity":31,"Duration":158478,"SoundDuration":158478,"Delta":540981026},{"NoteNumber":73,"Velocity":57,"Duration":646439,"SoundDuration":646439,"Delta":541139504},{"NoteNumber":55,"Velocity":36,"Duration":162249,"SoundDuration":162249,"Delta":541139504},{"NoteNumber":64,"Velocity":31,"Duration":162249,"SoundDuration":162249,"Delta":541301754},{"NoteNumber":61,"Velocity":31,"Duration":162249,"SoundDuration":162249,"Delta":541464004},{"NoteNumber":64,"Velocity":31,"Duration":159690,"SoundDuration":159690,"Delta":541626254},{"NoteNumber":76,"Velocity":49,"Duration":67336,"SoundDuration":67336,"Delta":541718607},{"NoteNumber":74,"Velocity":60,"Duration":155028,"SoundDuration":155028,"Delta":541785944},{"NoteNumber":53,"Velocity":36,"Duration":155028,"SoundDuration":155028,"Delta":541785944},{"NoteNumber":73,"Velocity":57,"Duration":154193,"SoundDuration":154193,"Delta":541940972},{"NoteNumber":62,"Velocity":29,"Duration":154193,"SoundDuration":154193,"Delta":541940972},{"NoteNumber":74,"Velocity":57,"Duration":154194,"SoundDuration":154194,"Delta":542095166},{"NoteNumber":57,"Velocity":29,"Duration":154194,"SoundDuration":154194,"Delta":542095166},{"NoteNumber":76,"Velocity":57,"Duration":160783,"SoundDuration":160783,"Delta":542249360},{"NoteNumber":62,"Velocity":29,"Duration":160783,"SoundDuration":160783,"Delta":542249360},{"NoteNumber":79,"Velocity":49,"Duration":67720,"SoundDuration":67720,"Delta":542342424},{"NoteNumber":77,"Velocity":60,"Duration":155038,"SoundDuration":155038,"Delta":542410144},{"NoteNumber":52,"Velocity":36,"Duration":155038,"SoundDuration":155038,"Delta":542410144},{"NoteNumber":76,"Velocity":57,"Duration":155038,"SoundDuration":155038,"Delta":542565183},{"NoteNumber":62,"Velocity":30,"Duration":155038,"SoundDuration":155038,"Delta":542565183},{"NoteNumber":77,"Velocity":57,"Duration":155038,"SoundDuration":155038,"Delta":542720222},{"NoteNumber":55,"Velocity":30,"Duration":155038,"SoundDuration":155038,"Delta":542720222},{"NoteNumber":79,"Velocity":57,"Duration":155038,"SoundDuration":155038,"Delta":542875260},{"NoteNumber":62,"Velocity":31,"Duration":155038,"SoundDuration":155038,"Delta":542875260},{"NoteNumber":81,"Velocity":59,"Duration":315225,"SoundDuration":315225,"Delta":543030299},{"NoteNumber":50,"Velocity":36,"Duration":157612,"SoundDuration":157612,"Delta":543030299},{"NoteNumber":62,"Velocity":31,"Duration":157612,"SoundDuration":157612,"Delta":543187912},{"NoteNumber":53,"Velocity":31,"Duration":157612,"SoundDuration":157612,"Delta":543345525},{"NoteNumber":62,"Velocity":31,"Duration":157612,"SoundDuration":157612,"Delta":543503137},{"NoteNumber":81,"Velocity":59,"Duration":315225,"SoundDuration":315225,"Delta":543660750},{"NoteNumber":53,"Velocity":36,"Duration":157612,"SoundDuration":157612,"Delta":543660750},{"NoteNumber":62,"Velocity":31,"Duration":157612,"SoundDuration":157612,"Delta":543818363},{"NoteNumber":77,"Velocity":57,"Duration":315225,"SoundDuration":315225,"Delta":543975976},{"NoteNumber":57,"Velocity":31,"Duration":157612,"SoundDuration":157612,"Delta":543975976},{"NoteNumber":62,"Velocity":31,"Duration":157612,"SoundDuration":157612,"Delta":544133588},{"NoteNumber":76,"Velocity":59,"Duration":1122489,"SoundDuration":1122489,"Delta":544291201},{"NoteNumber":57,"Velocity":36,"Duration":161220,"SoundDuration":161220,"Delta":544291201},{"NoteNumber":64,"Velocity":29,"Duration":161221,"SoundDuration":161221,"Delta":544452422},{"NoteNumber":61,"Velocity":29,"Duration":161220,"SoundDuration":161220,"Delta":544613643},{"NoteNumber":64,"Velocity":29,"Duration":161221,"SoundDuration":161221,"Delta":544774864},{"NoteNumber":58,"Velocity":36,"Duration":159201,"SoundDuration":159201,"Delta":544936085},{"NoteNumber":64,"Velocity":30,"Duration":159201,"SoundDuration":159201,"Delta":545095287},{"NoteNumber":61,"Velocity":30,"Duration":159201,"SoundDuration":159201,"Delta":545254489},{"NoteNumber":74,"Velocity":56,"Duration":159201,"SoundDuration":159201,"Delta":545413690},{"NoteNumber":64,"Velocity":31,"Duration":159201,"SoundDuration":159201,"Delta":545413690},{"NoteNumber":73,"Velocity":56,"Duration":318403,"SoundDuration":318403,"Delta":545572892},{"NoteNumber":57,"Velocity":36,"Duration":159201,"SoundDuration":159201,"Delta":545572892},{"NoteNumber":64,"Velocity":31,"Duration":159201,"SoundDuration":159201,"Delta":545732094},{"NoteNumber":61,"Velocity":31,"Duration":159201,"SoundDuration":159201,"Delta":545891296},{"NoteNumber":64,"Velocity":31,"Duration":159201,"SoundDuration":159201,"Delta":546050497},{"NoteNumber":85,"Velocity":63,"Duration":668077,"SoundDuration":668077,"Delta":546209699},{"NoteNumber":73,"Velocity":63,"Duration":668077,"SoundDuration":668077,"Delta":546209699},{"NoteNumber":55,"Velocity":37,"Duration":167019,"SoundDuration":167019,"Delta":546209699},{"NoteNumber":64,"Velocity":32,"Duration":167019,"SoundDuration":167019,"Delta":546376718},{"NoteNumber":61,"Velocity":32,"Duration":167019,"SoundDuration":167019,"Delta":546543738},{"NoteNumber":64,"Velocity":32,"Duration":167019,"SoundDuration":167019,"Delta":546710757},{"NoteNumber":74,"Velocity":63,"Duration":318737,"SoundDuration":318737,"Delta":546877776},{"NoteNumber":86,"Velocity":63,"Duration":318737,"SoundDuration":318737,"Delta":546877776},{"NoteNumber":53,"Velocity":37,"Duration":159536,"SoundDuration":159536,"Delta":546877776},{"NoteNumber":65,"Velocity":31,"Duration":159201,"SoundDuration":159201,"Delta":547037312},{"NoteNumber":77,"Velocity":64,"Duration":317412,"SoundDuration":317412,"Delta":547196514},{"NoteNumber":89,"Velocity":64,"Duration":317412,"SoundDuration":317412,"Delta":547196514},{"NoteNumber":62,"Velocity":32,"Duration":159201,"SoundDuration":159201,"Delta":547196514},{"NoteNumber":65,"Velocity":32,"Duration":158211,"SoundDuration":158211,"Delta":547355716},{"NoteNumber":79,"Velocity":64,"Duration":315781,"SoundDuration":315781,"Delta":547513927},{"NoteNumber":91,"Velocity":64,"Duration":315781,"SoundDuration":315781,"Delta":547513927},{"NoteNumber":53,"Velocity":39,"Duration":158211,"SoundDuration":158211,"Delta":547513927},{"NoteNumber":65,"Velocity":34,"Duration":157569,"SoundDuration":157569,"Delta":547672138},{"NoteNumber":81,"Velocity":65,"Duration":314170,"SoundDuration":314170,"Delta":547829708},{"NoteNumber":93,"Velocity":65,"Duration":314170,"SoundDuration":314170,"Delta":547829708},{"NoteNumber":62,"Velocity":34,"Duration":157249,"SoundDuration":157249,"Delta":547829708},{"NoteNumber":65,"Velocity":35,"Duration":156921,"SoundDuration":156921,"Delta":547986957},{"NoteNumber":82,"Velocity":66,"Duration":625064,"SoundDuration":625064,"Delta":548143879},{"NoteNumber":94,"Velocity":66,"Duration":625064,"SoundDuration":625064,"Delta":548143879},{"NoteNumber":53,"Velocity":42,"Duration":156266,"SoundDuration":156266,"Delta":548143879},{"NoteNumber":65,"Velocity":37,"Duration":156266,"SoundDuration":156266,"Delta":548300145},{"NoteNumber":62,"Velocity":37,"Duration":156266,"SoundDuration":156266,"Delta":548456412},{"NoteNumber":65,"Velocity":37,"Duration":156266,"SoundDuration":156266,"Delta":548612678},{"NoteNumber":91,"Velocity":69,"Duration":625064,"SoundDuration":625064,"Delta":548768944},{"NoteNumber":79,"Velocity":69,"Duration":625064,"SoundDuration":625064,"Delta":548768944},{"NoteNumber":53,"Velocity":44,"Duration":156266,"SoundDuration":156266,"Delta":548768944},{"NoteNumber":67,"Velocity":39,"Duration":156266,"SoundDuration":156266,"Delta":548925210},{"NoteNumber":63,"Velocity":40,"Duration":156266,"SoundDuration":156266,"Delta":549081477},{"NoteNumber":67,"Velocity":40,"Duration":156266,"SoundDuration":156266,"Delta":549237743},{"NoteNumber":89,"Velocity":70,"Duration":625065,"SoundDuration":625065,"Delta":549394009},{"NoteNumber":77,"Velocity":70,"Duration":625065,"SoundDuration":625065,"Delta":549394009},{"NoteNumber":53,"Velocity":48,"Duration":156266,"SoundDuration":156266,"Delta":549394009},{"NoteNumber":65,"Velocity":38,"Duration":156266,"SoundDuration":156266,"Delta":549550275},{"NoteNumber":62,"Velocity":38,"Duration":156266,"SoundDuration":156266,"Delta":549706542},{"NoteNumber":65,"Velocity":38,"Duration":156266,"SoundDuration":156266,"Delta":549862808},{"NoteNumber":87,"Velocity":69,"Duration":625064,"SoundDuration":625064,"Delta":550019074},{"NoteNumber":75,"Velocity":69,"Duration":625064,"SoundDuration":625064,"Delta":550019074},{"NoteNumber":53,"Velocity":47,"Duration":156266,"SoundDuration":156266,"Delta":550019074},{"NoteNumber":63,"Velocity":39,"Duration":156266,"SoundDuration":156266,"Delta":550175340},{"NoteNumber":60,"Velocity":39,"Duration":156266,"SoundDuration":156266,"Delta":550331607},{"NoteNumber":63,"Velocity":39,"Duration":156266,"SoundDuration":156266,"Delta":550487873},{"NoteNumber":86,"Velocity":66,"Duration":625065,"SoundDuration":625065,"Delta":550644139},{"NoteNumber":74,"Velocity":66,"Duration":625065,"SoundDuration":625065,"Delta":550644139},{"NoteNumber":53,"Velocity":42,"Duration":156266,"SoundDuration":156266,"Delta":550644139},{"NoteNumber":62,"Velocity":36,"Duration":156266,"SoundDuration":156266,"Delta":550800405},{"NoteNumber":58,"Velocity":36,"Duration":156266,"SoundDuration":156266,"Delta":550956672},{"NoteNumber":62,"Velocity":37,"Duration":156266,"SoundDuration":156266,"Delta":551112938},{"NoteNumber":84,"Velocity":65,"Duration":625064,"SoundDuration":625064,"Delta":551269204},{"NoteNumber":72,"Velocity":65,"Duration":625064,"SoundDuration":625064,"Delta":551269204},{"NoteNumber":53,"Velocity":42,"Duration":156266,"SoundDuration":156266,"Delta":551269204},{"NoteNumber":60,"Velocity":35,"Duration":156266,"SoundDuration":156266,"Delta":551425470},{"NoteNumber":56,"Velocity":35,"Duration":156266,"SoundDuration":156266,"Delta":551581737},{"NoteNumber":60,"Velocity":35,"Duration":156266,"SoundDuration":156266,"Delta":551738003},{"NoteNumber":71,"Velocity":61,"Duration":2847421,"SoundDuration":2847421,"Delta":551894269},{"NoteNumber":83,"Velocity":61,"Duration":2847421,"SoundDuration":2847421,"Delta":551894269},{"NoteNumber":53,"Velocity":35,"Duration":156266,"SoundDuration":156266,"Delta":551894269},{"NoteNumber":59,"Velocity":29,"Duration":156266,"SoundDuration":156266,"Delta":552050535},{"NoteNumber":56,"Velocity":29,"Duration":156266,"SoundDuration":156266,"Delta":552206802},{"NoteNumber":59,"Velocity":29,"Duration":156593,"SoundDuration":156593,"Delta":552363068},{"NoteNumber":53,"Velocity":34,"Duration":157249,"SoundDuration":157249,"Delta":552519662},{"NoteNumber":59,"Velocity":29,"Duration":157249,"SoundDuration":157249,"Delta":552676911},{"NoteNumber":56,"Velocity":29,"Duration":157249,"SoundDuration":157249,"Delta":552834160},{"NoteNumber":59,"Velocity":29,"Duration":157890,"SoundDuration":157890,"Delta":552991409},{"NoteNumber":53,"Velocity":33,"Duration":158211,"SoundDuration":158211,"Delta":553149300},{"NoteNumber":59,"Velocity":29,"Duration":158211,"SoundDuration":158211,"Delta":553307511},{"NoteNumber":56,"Velocity":29,"Duration":158211,"SoundDuration":158211,"Delta":553465723},{"NoteNumber":59,"Velocity":29,"Duration":159201,"SoundDuration":159201,"Delta":553623934},{"NoteNumber":53,"Velocity":33,"Duration":159201,"SoundDuration":159201,"Delta":553783136},{"NoteNumber":59,"Velocity":29,"Duration":159201,"SoundDuration":159201,"Delta":553942337},{"NoteNumber":56,"Velocity":29,"Duration":159536,"SoundDuration":159536,"Delta":554101539},{"NoteNumber":59,"Velocity":29,"Duration":160205,"SoundDuration":160205,"Delta":554261075},{"NoteNumber":53,"Velocity":31,"Duration":160205,"SoundDuration":160205,"Delta":554421280},{"NoteNumber":59,"Velocity":27,"Duration":160204,"SoundDuration":160204,"Delta":554581485},{"NoteNumber":71,"Velocity":51,"Duration":304389,"SoundDuration":304389,"Delta":554741690},{"NoteNumber":56,"Velocity":27,"Duration":160205,"SoundDuration":160205,"Delta":554741690},{"NoteNumber":59,"Velocity":27,"Duration":160205,"SoundDuration":160205,"Delta":554901895},{"NoteNumber":71,"Velocity":51,"Duration":304389,"SoundDuration":304389,"Delta":555062100},{"NoteNumber":53,"Velocity":32,"Duration":160205,"SoundDuration":160205,"Delta":555062100},{"NoteNumber":59,"Velocity":27,"Duration":160205,"SoundDuration":160205,"Delta":555222305},{"NoteNumber":71,"Velocity":51,"Duration":304389,"SoundDuration":304389,"Delta":555382510},{"NoteNumber":56,"Velocity":27,"Duration":160205,"SoundDuration":160205,"Delta":555382510},{"NoteNumber":59,"Velocity":27,"Duration":160204,"SoundDuration":160204,"Delta":555542715},{"NoteNumber":71,"Velocity":50,"Duration":304389,"SoundDuration":304389,"Delta":555702920},{"NoteNumber":52,"Velocity":32,"Duration":160205,"SoundDuration":160205,"Delta":555702920},{"NoteNumber":59,"Velocity":26,"Duration":160205,"SoundDuration":160205,"Delta":555863125},{"NoteNumber":71,"Velocity":50,"Duration":304389,"SoundDuration":304389,"Delta":556023330},{"NoteNumber":56,"Velocity":26,"Duration":160205,"SoundDuration":160205,"Delta":556023330},{"NoteNumber":59,"Velocity":26,"Duration":160205,"SoundDuration":160205,"Delta":556183535},{"NoteNumber":71,"Velocity":50,"Duration":304389,"SoundDuration":304389,"Delta":556343740},{"NoteNumber":50,"Velocity":31,"Duration":160205,"SoundDuration":160205,"Delta":556343740},{"NoteNumber":59,"Velocity":26,"Duration":160204,"SoundDuration":160204,"Delta":556503945},{"NoteNumber":71,"Velocity":50,"Duration":304389,"SoundDuration":304389,"Delta":556664150},{"NoteNumber":56,"Velocity":26,"Duration":160205,"SoundDuration":160205,"Delta":556664150},{"NoteNumber":59,"Velocity":26,"Duration":160205,"SoundDuration":160205,"Delta":556824355},{"NoteNumber":72,"Velocity":53,"Duration":1094381,"SoundDuration":1094381,"Delta":556984560},{"NoteNumber":48,"Velocity":31,"Duration":154193,"SoundDuration":154193,"Delta":556984560},{"NoteNumber":60,"Velocity":24,"Duration":154194,"SoundDuration":154194,"Delta":557138754},{"NoteNumber":57,"Velocity":24,"Duration":154193,"SoundDuration":154193,"Delta":557292948},{"NoteNumber":60,"Velocity":24,"Duration":154193,"SoundDuration":154193,"Delta":557447142},{"NoteNumber":48,"Velocity":30,"Duration":159201,"SoundDuration":159201,"Delta":557601336},{"NoteNumber":62,"Velocity":25,"Duration":159201,"SoundDuration":159201,"Delta":557760538},{"NoteNumber":58,"Velocity":25,"Duration":159201,"SoundDuration":159201,"Delta":557919740},{"NoteNumber":74,"Velocity":47,"Duration":159201,"SoundDuration":159201,"Delta":558078941},{"NoteNumber":62,"Velocity":26,"Duration":159201,"SoundDuration":159201,"Delta":558078941},{"NoteNumber":72,"Velocity":52,"Duration":318403,"SoundDuration":318403,"Delta":558238143},{"NoteNumber":48,"Velocity":29,"Duration":159201,"SoundDuration":159201,"Delta":558238143},{"NoteNumber":60,"Velocity":26,"Duration":159201,"SoundDuration":159201,"Delta":558397345},{"NoteNumber":57,"Velocity":26,"Duration":159201,"SoundDuration":159201,"Delta":558556547},{"NoteNumber":60,"Velocity":26,"Duration":159201,"SoundDuration":159201,"Delta":558715748},{"NoteNumber":77,"Velocity":49,"Duration":72507,"SoundDuration":72507,"Delta":558874950},{"NoteNumber":48,"Velocity":30,"Duration":143924,"SoundDuration":143924,"Delta":558874950},{"NoteNumber":79,"Velocity":43,"Duration":71416,"SoundDuration":71416,"Delta":558947458},{"NoteNumber":77,"Velocity":44,"Duration":70112,"SoundDuration":70112,"Delta":559018875},{"NoteNumber":62,"Velocity":26,"Duration":138962,"SoundDuration":138962,"Delta":559018875},{"NoteNumber":79,"Velocity":44,"Duration":68849,"SoundDuration":68849,"Delta":559088988},{"NoteNumber":77,"Velocity":44,"Duration":68474,"SoundDuration":68474,"Delta":559157837},{"NoteNumber":58,"Velocity":26,"Duration":136801,"SoundDuration":136801,"Delta":559157837},{"NoteNumber":79,"Velocity":46,"Duration":68327,"SoundDuration":68327,"Delta":559226312},{"NoteNumber":76,"Velocity":51,"Duration":74242,"SoundDuration":74242,"Delta":559294639},{"NoteNumber":62,"Velocity":26,"Duration":160226,"SoundDuration":160226,"Delta":559294639},{"NoteNumber":77,"Velocity":44,"Duration":85984,"SoundDuration":85984,"Delta":559368882},{"NoteNumber":81,"Velocity":58,"Duration":1097760,"SoundDuration":1097760,"Delta":559454866},{"NoteNumber":69,"Velocity":46,"Duration":1097760,"SoundDuration":1097760,"Delta":559454866},{"NoteNumber":48,"Velocity":31,"Duration":155038,"SoundDuration":155038,"Delta":559454866},{"NoteNumber":60,"Velocity":24,"Duration":155038,"SoundDuration":155038,"Delta":559609904},{"NoteNumber":57,"Velocity":24,"Duration":155038,"SoundDuration":155038,"Delta":559764943},{"NoteNumber":60,"Velocity":24,"Duration":155038,"SoundDuration":155038,"Delta":559919982},{"NoteNumber":48,"Velocity":30,"Duration":159201,"SoundDuration":159201,"Delta":560075021},{"NoteNumber":62,"Velocity":25,"Duration":159201,"SoundDuration":159201,"Delta":560234222},{"NoteNumber":58,"Velocity":25,"Duration":159201,"SoundDuration":159201,"Delta":560393424},{"NoteNumber":67,"Velocity":40,"Duration":159201,"SoundDuration":159201,"Delta":560552626},{"NoteNumber":79,"Velocity":51,"Duration":159201,"SoundDuration":159201,"Delta":560552626},{"NoteNumber":62,"Velocity":26,"Duration":159201,"SoundDuration":159201,"Delta":560552626},{"NoteNumber":65,"Velocity":43,"Duration":318403,"SoundDuration":318403,"Delta":560711828},{"NoteNumber":77,"Velocity":53,"Duration":318403,"SoundDuration":318403,"Delta":560711828},{"NoteNumber":48,"Velocity":29,"Duration":159201,"SoundDuration":159201,"Delta":560711828},{"NoteNumber":60,"Velocity":26,"Duration":159201,"SoundDuration":159201,"Delta":560871029},{"NoteNumber":57,"Velocity":26,"Duration":159201,"SoundDuration":159201,"Delta":561030231},{"NoteNumber":60,"Velocity":26,"Duration":159201,"SoundDuration":159201,"Delta":561189433},{"NoteNumber":74,"Velocity":54,"Duration":648999,"SoundDuration":648999,"Delta":561348635},{"NoteNumber":48,"Velocity":30,"Duration":162249,"SoundDuration":162249,"Delta":561348635},{"NoteNumber":62,"Velocity":26,"Duration":162249,"SoundDuration":162249,"Delta":561510884},{"NoteNumber":58,"Velocity":26,"Duration":162249,"SoundDuration":162249,"Delta":561673134},{"NoteNumber":62,"Velocity":26,"Duration":162249,"SoundDuration":162249,"Delta":561835384},{"NoteNumber":72,"Velocity":58,"Duration":1122489,"SoundDuration":1122489,"Delta":561997634},{"NoteNumber":48,"Velocity":31,"Duration":161220,"SoundDuration":161220,"Delta":561997634},{"NoteNumber":60,"Velocity":24,"Duration":161221,"SoundDuration":161221,"Delta":562158855},{"NoteNumber":57,"Velocity":24,"Duration":161220,"SoundDuration":161220,"Delta":562320076},{"NoteNumber":60,"Velocity":24,"Duration":161221,"SoundDuration":161221,"Delta":562481297},{"NoteNumber":48,"Velocity":30,"Duration":159201,"SoundDuration":159201,"Delta":562642518},{"NoteNumber":62,"Velocity":26,"Duration":159201,"SoundDuration":159201,"Delta":562801719},{"NoteNumber":58,"Velocity":26,"Duration":159201,"SoundDuration":159201,"Delta":562960921},{"NoteNumber":74,"Velocity":53,"Duration":159201,"SoundDuration":159201,"Delta":563120123},{"NoteNumber":62,"Velocity":27,"Duration":159201,"SoundDuration":159201,"Delta":563120123},{"NoteNumber":72,"Velocity":60,"Duration":318403,"SoundDuration":318403,"Delta":563279325},{"NoteNumber":48,"Velocity":30,"Duration":159201,"SoundDuration":159201,"Delta":563279325},{"NoteNumber":60,"Velocity":27,"Duration":159201,"SoundDuration":159201,"Delta":563438526},{"NoteNumber":57,"Velocity":28,"Duration":159201,"SoundDuration":159201,"Delta":563597728},{"NoteNumber":60,"Velocity":28,"Duration":159201,"SoundDuration":159201,"Delta":563756930},{"NoteNumber":89,"Velocity":53,"Duration":72507,"SoundDuration":72507,"Delta":563916132},{"NoteNumber":48,"Velocity":33,"Duration":143924,"SoundDuration":143924,"Delta":563916132},{"NoteNumber":91,"Velocity":47,"Duration":71416,"SoundDuration":71416,"Delta":563988640},{"NoteNumber":89,"Velocity":48,"Duration":69730,"SoundDuration":69730,"Delta":564060057},{"NoteNumber":62,"Velocity":28,"Duration":138215,"SoundDuration":138215,"Delta":564060057},{"NoteNumber":91,"Velocity":48,"Duration":68484,"SoundDuration":68484,"Delta":564129787},{"NoteNumber":89,"Velocity":48,"Duration":68113,"SoundDuration":68113,"Delta":564198272},{"NoteNumber":58,"Velocity":28,"Duration":136227,"SoundDuration":136227,"Delta":564198272},{"NoteNumber":91,"Velocity":50,"Duration":68113,"SoundDuration":68113,"Delta":564266385},{"NoteNumber":88,"Velocity":55,"Duration":73858,"SoundDuration":73858,"Delta":564334499},{"NoteNumber":62,"Velocity":28,"Duration":161702,"SoundDuration":161702,"Delta":564334499},{"NoteNumber":89,"Velocity":48,"Duration":87843,"SoundDuration":87843,"Delta":564408357},{"NoteNumber":93,"Velocity":69,"Duration":1097760,"SoundDuration":1097760,"Delta":564496201},{"NoteNumber":81,"Velocity":63,"Duration":1097760,"SoundDuration":1097760,"Delta":564496201},{"NoteNumber":48,"Velocity":34,"Duration":155038,"SoundDuration":155038,"Delta":564496201},{"NoteNumber":60,"Velocity":26,"Duration":155038,"SoundDuration":155038,"Delta":564651240},{"NoteNumber":57,"Velocity":26,"Duration":155038,"SoundDuration":155038,"Delta":564806279},{"NoteNumber":60,"Velocity":26,"Duration":155038,"SoundDuration":155038,"Delta":564961317},{"NoteNumber":48,"Velocity":33,"Duration":159201,"SoundDuration":159201,"Delta":565116356},{"NoteNumber":62,"Velocity":27,"Duration":159201,"SoundDuration":159201,"Delta":565275558},{"NoteNumber":58,"Velocity":27,"Duration":159201,"SoundDuration":159201,"Delta":565434760},{"NoteNumber":79,"Velocity":62,"Duration":159201,"SoundDuration":159201,"Delta":565593961},{"NoteNumber":91,"Velocity":62,"Duration":159201,"SoundDuration":159201,"Delta":565593961},{"NoteNumber":62,"Velocity":28,"Duration":159201,"SoundDuration":159201,"Delta":565593961},{"NoteNumber":77,"Velocity":67,"Duration":318403,"SoundDuration":318403,"Delta":565753163},{"NoteNumber":89,"Velocity":67,"Duration":318403,"SoundDuration":318403,"Delta":565753163},{"NoteNumber":48,"Velocity":31,"Duration":159201,"SoundDuration":159201,"Delta":565753163},{"NoteNumber":60,"Velocity":28,"Duration":159201,"SoundDuration":159201,"Delta":565912365},{"NoteNumber":57,"Velocity":28,"Duration":159201,"SoundDuration":159201,"Delta":566071567},{"NoteNumber":60,"Velocity":28,"Duration":159201,"SoundDuration":159201,"Delta":566230768},{"NoteNumber":74,"Velocity":48,"Duration":653168,"SoundDuration":653168,"Delta":566389970},{"NoteNumber":77,"Velocity":48,"Duration":653168,"SoundDuration":653168,"Delta":566389970},{"NoteNumber":82,"Velocity":69,"Duration":653168,"SoundDuration":653168,"Delta":566389970},{"NoteNumber":86,"Velocity":69,"Duration":653168,"SoundDuration":653168,"Delta":566389970},{"NoteNumber":48,"Velocity":36,"Duration":163291,"SoundDuration":163291,"Delta":566389970},{"NoteNumber":62,"Velocity":30,"Duration":163292,"SoundDuration":163292,"Delta":566553262},{"NoteNumber":58,"Velocity":30,"Duration":163291,"SoundDuration":163291,"Delta":566716554},{"NoteNumber":62,"Velocity":30,"Duration":163292,"SoundDuration":163292,"Delta":566879846},{"NoteNumber":72,"Velocity":58,"Duration":636806,"SoundDuration":636806,"Delta":567043138},{"NoteNumber":77,"Velocity":58,"Duration":636806,"SoundDuration":636806,"Delta":567043138},{"NoteNumber":81,"Velocity":69,"Duration":636806,"SoundDuration":636806,"Delta":567043138},{"NoteNumber":84,"Velocity":69,"Duration":636806,"SoundDuration":636806,"Delta":567043138},{"NoteNumber":48,"Velocity":42,"Duration":159201,"SoundDuration":159201,"Delta":567043138},{"NoteNumber":60,"Velocity":35,"Duration":159201,"SoundDuration":159201,"Delta":567202340},{"NoteNumber":57,"Velocity":35,"Duration":159201,"SoundDuration":159201,"Delta":567361542},{"NoteNumber":60,"Velocity":35,"Duration":159201,"SoundDuration":159201,"Delta":567520743},{"NoteNumber":74,"Velocity":61,"Duration":628997,"SoundDuration":628997,"Delta":567679945},{"NoteNumber":77,"Velocity":61,"Duration":628997,"SoundDuration":628997,"Delta":567679945},{"NoteNumber":82,"Velocity":72,"Duration":628997,"SoundDuration":628997,"Delta":567679945},{"NoteNumber":86,"Velocity":72,"Duration":628997,"SoundDuration":628997,"Delta":567679945},{"NoteNumber":48,"Velocity":44,"Duration":157249,"SoundDuration":157249,"Delta":567679945},{"NoteNumber":62,"Velocity":37,"Duration":157249,"SoundDuration":157249,"Delta":567837194},{"NoteNumber":58,"Velocity":38,"Duration":157249,"SoundDuration":157249,"Delta":567994444},{"NoteNumber":62,"Velocity":37,"Duration":157249,"SoundDuration":157249,"Delta":568151693},{"NoteNumber":77,"Velocity":62,"Duration":628997,"SoundDuration":628997,"Delta":568308942},{"NoteNumber":81,"Velocity":62,"Duration":628997,"SoundDuration":628997,"Delta":568308942},{"NoteNumber":84,"Velocity":74,"Duration":628997,"SoundDuration":628997,"Delta":568308942},{"NoteNumber":89,"Velocity":74,"Duration":628997,"SoundDuration":628997,"Delta":568308942},{"NoteNumber":48,"Velocity":47,"Duration":157249,"SoundDuration":157249,"Delta":568308942},{"NoteNumber":60,"Velocity":37,"Duration":157249,"SoundDuration":157249,"Delta":568466191},{"NoteNumber":57,"Velocity":38,"Duration":157249,"SoundDuration":157249,"Delta":568623441},{"NoteNumber":60,"Velocity":38,"Duration":157249,"SoundDuration":157249,"Delta":568780690},{"NoteNumber":79,"Velocity":66,"Duration":661666,"SoundDuration":661666,"Delta":568937939},{"NoteNumber":84,"Velocity":66,"Duration":661666,"SoundDuration":661666,"Delta":568937939},{"NoteNumber":88,"Velocity":78,"Duration":661666,"SoundDuration":661666,"Delta":568937939},{"NoteNumber":91,"Velocity":78,"Duration":661666,"SoundDuration":661666,"Delta":568937939},{"NoteNumber":48,"Velocity":49,"Duration":165416,"SoundDuration":165416,"Delta":568937939},{"NoteNumber":60,"Velocity":40,"Duration":165416,"SoundDuration":165416,"Delta":569103356},{"NoteNumber":58,"Velocity":40,"Duration":165416,"SoundDuration":165416,"Delta":569268773},{"NoteNumber":60,"Velocity":40,"Duration":165416,"SoundDuration":165416,"Delta":569434189},{"NoteNumber":79,"Velocity":63,"Duration":1323334,"SoundDuration":1323334,"Delta":569599606},{"NoteNumber":84,"Velocity":63,"Duration":1323334,"SoundDuration":1323334,"Delta":569599606},{"NoteNumber":88,"Velocity":75,"Duration":1323334,"SoundDuration":1323334,"Delta":569599606},{"NoteNumber":91,"Velocity":75,"Duration":1323334,"SoundDuration":1323334,"Delta":569599606},{"NoteNumber":48,"Velocity":41,"Duration":2604974,"SoundDuration":2604974,"Delta":569599606},{"NoteNumber":60,"Velocity":49,"Duration":2604974,"SoundDuration":2604974,"Delta":569599606},{"NoteNumber":58,"Velocity":41,"Duration":2604974,"SoundDuration":2604974,"Delta":569599606},{"NoteNumber":88,"Velocity":63,"Duration":213606,"SoundDuration":213606,"Delta":570922940},{"NoteNumber":84,"Velocity":54,"Duration":213606,"SoundDuration":213606,"Delta":571136547},{"NoteNumber":79,"Velocity":54,"Duration":213606,"SoundDuration":213606,"Delta":571350154},{"NoteNumber":76,"Velocity":54,"Duration":213606,"SoundDuration":213606,"Delta":571563760},{"NoteNumber":79,"Velocity":52,"Duration":213606,"SoundDuration":213606,"Delta":571777367},{"NoteNumber":84,"Velocity":51,"Duration":213606,"SoundDuration":213606,"Delta":571990974},{"NoteNumber":77,"Velocity":53,"Duration":219876,"SoundDuration":219876,"Delta":572204580},{"NoteNumber":53,"Velocity":32,"Duration":633275,"SoundDuration":633275,"Delta":572204580},{"NoteNumber":57,"Velocity":32,"Duration":633275,"SoundDuration":633275,"Delta":572204580},{"NoteNumber":60,"Velocity":38,"Duration":633275,"SoundDuration":633275,"Delta":572204580},{"NoteNumber":84,"Velocity":49,"Duration":211091,"SoundDuration":211091,"Delta":572424457},{"NoteNumber":81,"Velocity":49,"Duration":101153,"SoundDuration":101153,"Delta":572635549},{"NoteNumber":77,"Velocity":53,"Duration":100623,"SoundDuration":100623,"Delta":572837855},{"NoteNumber":72,"Velocity":48,"Duration":100623,"SoundDuration":100623,"Delta":573039103},{"NoteNumber":69,"Velocity":46,"Duration":100623,"SoundDuration":100623,"Delta":573240351},{"NoteNumber":65,"Velocity":51,"Duration":102239,"SoundDuration":102239,"Delta":573441598},{"NoteNumber":53,"Velocity":29,"Duration":306717,"SoundDuration":306717,"Delta":573441598},{"NoteNumber":57,"Velocity":29,"Duration":306717,"SoundDuration":306717,"Delta":573441598},{"NoteNumber":60,"Velocity":35,"Duration":306717,"SoundDuration":306717,"Delta":573441598},{"NoteNumber":69,"Velocity":46,"Duration":102239,"SoundDuration":102239,"Delta":573646076},{"NoteNumber":72,"Velocity":46,"Duration":102239,"SoundDuration":102239,"Delta":573850554},{"NoteNumber":69,"Velocity":53,"Duration":105075,"SoundDuration":105075,"Delta":574055032},{"NoteNumber":53,"Velocity":29,"Duration":315225,"SoundDuration":315225,"Delta":574055032},{"NoteNumber":60,"Velocity":29,"Duration":315225,"SoundDuration":315225,"Delta":574055032},{"NoteNumber":63,"Velocity":35,"Duration":315225,"SoundDuration":315225,"Delta":574055032},{"NoteNumber":72,"Velocity":50,"Duration":105075,"SoundDuration":105075,"Delta":574265183},{"NoteNumber":77,"Velocity":50,"Duration":105075,"SoundDuration":105075,"Delta":574475333},{"NoteNumber":77,"Velocity":53,"Duration":216099,"SoundDuration":216099,"Delta":574685483},{"NoteNumber":53,"Velocity":32,"Duration":627608,"SoundDuration":627608,"Delta":574685483},{"NoteNumber":58,"Velocity":32,"Duration":627608,"SoundDuration":627608,"Delta":574685483},{"NoteNumber":62,"Velocity":38,"Duration":627608,"SoundDuration":627608,"Delta":574685483},{"NoteNumber":86,"Velocity":49,"Duration":209202,"SoundDuration":209202,"Delta":574901583},{"NoteNumber":82,"Velocity":49,"Duration":101153,"SoundDuration":101153,"Delta":575110785},{"NoteNumber":77,"Velocity":53,"Duration":101153,"SoundDuration":101153,"Delta":575313092},{"NoteNumber":74,"Velocity":48,"Duration":101153,"SoundDuration":101153,"Delta":575515398},{"NoteNumber":70,"Velocity":46,"Duration":101153,"SoundDuration":101153,"Delta":575717704},{"NoteNumber":65,"Velocity":51,"Duration":101153,"SoundDuration":101153,"Delta":575920011},{"NoteNumber":53,"Velocity":29,"Duration":303459,"SoundDuration":303459,"Delta":575920011},{"NoteNumber":58,"Velocity":29,"Duration":303459,"SoundDuration":303459,"Delta":575920011},{"NoteNumber":62,"Velocity":35,"Duration":303459,"SoundDuration":303459,"Delta":575920011},{"NoteNumber":70,"Velocity":46,"Duration":101153,"SoundDuration":101153,"Delta":576122317},{"NoteNumber":74,"Velocity":46,"Duration":101153,"SoundDuration":101153,"Delta":576324623},{"NoteNumber":70,"Velocity":53,"Duration":103359,"SoundDuration":103359,"Delta":576526930},{"NoteNumber":53,"Velocity":29,"Duration":310077,"SoundDuration":310077,"Delta":576526930},{"NoteNumber":62,"Velocity":29,"Duration":310077,"SoundDuration":310077,"Delta":576526930},{"NoteNumber":65,"Velocity":35,"Duration":310077,"SoundDuration":310077,"Delta":576526930},{"NoteNumber":74,"Velocity":50,"Duration":103359,"SoundDuration":103359,"Delta":576733648},{"NoteNumber":77,"Velocity":50,"Duration":103359,"SoundDuration":103359,"Delta":576940366},{"NoteNumber":77,"Velocity":53,"Duration":217344,"SoundDuration":217344,"Delta":577147085},{"NoteNumber":53,"Velocity":32,"Duration":629475,"SoundDuration":629475,"Delta":577147085},{"NoteNumber":57,"Velocity":32,"Duration":629475,"SoundDuration":629475,"Delta":577147085},{"NoteNumber":60,"Velocity":38,"Duration":629475,"SoundDuration":629475,"Delta":577147085},{"NoteNumber":89,"Velocity":49,"Duration":209825,"SoundDuration":209825,"Delta":577364429},{"NoteNumber":84,"Velocity":49,"Duration":101153,"SoundDuration":101153,"Delta":577574254},{"NoteNumber":81,"Velocity":53,"Duration":101153,"SoundDuration":101153,"Delta":577776560},{"NoteNumber":77,"Velocity":48,"Duration":101153,"SoundDuration":101153,"Delta":577978867},{"NoteNumber":72,"Velocity":46,"Duration":101153,"SoundDuration":101153,"Delta":578181173},{"NoteNumber":69,"Velocity":51,"Duration":101153,"SoundDuration":101153,"Delta":578383479},{"NoteNumber":53,"Velocity":29,"Duration":303459,"SoundDuration":303459,"Delta":578383479},{"NoteNumber":57,"Velocity":35,"Duration":303459,"SoundDuration":303459,"Delta":578383479},{"NoteNumber":65,"Velocity":46,"Duration":101153,"SoundDuration":101153,"Delta":578585786},{"NoteNumber":60,"Velocity":46,"Duration":101153,"SoundDuration":101153,"Delta":578788092},{"NoteNumber":65,"Velocity":53,"Duration":102239,"SoundDuration":102239,"Delta":578990398},{"NoteNumber":57,"Velocity":29,"Duration":306717,"SoundDuration":306717,"Delta":578990398},{"NoteNumber":60,"Velocity":35,"Duration":306717,"SoundDuration":306717,"Delta":578990398},{"NoteNumber":69,"Velocity":50,"Duration":102239,"SoundDuration":102239,"Delta":579194876},{"NoteNumber":72,"Velocity":50,"Duration":102239,"SoundDuration":102239,"Delta":579399354},{"NoteNumber":72,"Velocity":51,"Duration":204477,"SoundDuration":204477,"Delta":579603832},{"NoteNumber":48,"Velocity":29,"Duration":306717,"SoundDuration":306717,"Delta":579603832},{"NoteNumber":57,"Velocity":29,"Duration":306717,"SoundDuration":306717,"Delta":579603832},{"NoteNumber":60,"Velocity":35,"Duration":306717,"SoundDuration":306717,"Delta":579603832},{"NoteNumber":77,"Velocity":47,"Duration":204477,"SoundDuration":204477,"Delta":579808310},{"NoteNumber":77,"Velocity":47,"Duration":102239,"SoundDuration":102239,"Delta":580012788},{"NoteNumber":74,"Velocity":51,"Duration":207835,"SoundDuration":207835,"Delta":580217266},{"NoteNumber":48,"Velocity":28,"Duration":311752,"SoundDuration":311752,"Delta":580217266},{"NoteNumber":62,"Velocity":34,"Duration":311752,"SoundDuration":311752,"Delta":580217266},{"NoteNumber":58,"Velocity":28,"Duration":311752,"SoundDuration":311752,"Delta":580217266},{"NoteNumber":79,"Velocity":48,"Duration":207835,"SoundDuration":207835,"Delta":580425102},{"NoteNumber":79,"Velocity":48,"Duration":103917,"SoundDuration":103917,"Delta":580632937},{"NoteNumber":72,"Velocity":51,"Duration":207835,"SoundDuration":207835,"Delta":580840772},{"NoteNumber":48,"Velocity":28,"Duration":311752,"SoundDuration":311752,"Delta":580840772},{"NoteNumber":57,"Velocity":28,"Duration":311752,"SoundDuration":311752,"Delta":580840772},{"NoteNumber":60,"Velocity":33,"Duration":311752,"SoundDuration":311752,"Delta":580840772},{"NoteNumber":77,"Velocity":47,"Duration":207835,"SoundDuration":207835,"Delta":581048608},{"NoteNumber":77,"Velocity":47,"Duration":103917,"SoundDuration":103917,"Delta":581256443},{"NoteNumber":72,"Velocity":51,"Duration":207835,"SoundDuration":207835,"Delta":581464278},{"NoteNumber":48,"Velocity":28,"Duration":311752,"SoundDuration":311752,"Delta":581464278},{"NoteNumber":55,"Velocity":28,"Duration":311752,"SoundDuration":311752,"Delta":581464278},{"NoteNumber":58,"Velocity":34,"Duration":311752,"SoundDuration":311752,"Delta":581464278},{"NoteNumber":76,"Velocity":47,"Duration":207835,"SoundDuration":207835,"Delta":581672114},{"NoteNumber":76,"Velocity":47,"Duration":103917,"SoundDuration":103917,"Delta":581879949},{"NoteNumber":72,"Velocity":51,"Duration":207835,"SoundDuration":207835,"Delta":582087784},{"NoteNumber":48,"Velocity":29,"Duration":311752,"SoundDuration":311752,"Delta":582087784},{"NoteNumber":54,"Velocity":29,"Duration":311752,"SoundDuration":311752,"Delta":582087784},{"NoteNumber":57,"Velocity":35,"Duration":311752,"SoundDuration":311752,"Delta":582087784},{"NoteNumber":75,"Velocity":47,"Duration":207835,"SoundDuration":207835,"Delta":582295620},{"NoteNumber":75,"Velocity":47,"Duration":103917,"SoundDuration":103917,"Delta":582503455},{"NoteNumber":72,"Velocity":52,"Duration":207835,"SoundDuration":207835,"Delta":582711290},{"NoteNumber":48,"Velocity":28,"Duration":311752,"SoundDuration":311752,"Delta":582711290},{"NoteNumber":57,"Velocity":35,"Duration":311752,"SoundDuration":311752,"Delta":582711290},{"NoteNumber":54,"Velocity":28,"Duration":311752,"SoundDuration":311752,"Delta":582711290},{"NoteNumber":74,"Velocity":50,"Duration":207835,"SoundDuration":207835,"Delta":582919126},{"NoteNumber":74,"Velocity":50,"Duration":103917,"SoundDuration":103917,"Delta":583126961},{"NoteNumber":66,"Velocity":46,"Duration":207835,"SoundDuration":207835,"Delta":583334796},{"NoteNumber":69,"Velocity":54,"Duration":207835,"SoundDuration":207835,"Delta":583334796},{"NoteNumber":48,"Velocity":29,"Duration":311752,"SoundDuration":311752,"Delta":583334796},{"NoteNumber":54,"Velocity":29,"Duration":311752,"SoundDuration":311752,"Delta":583334796},{"NoteNumber":57,"Velocity":35,"Duration":311752,"SoundDuration":311752,"Delta":583334796},{"NoteNumber":75,"Velocity":50,"Duration":207835,"SoundDuration":207835,"Delta":583542632},{"NoteNumber":75,"Velocity":51,"Duration":103917,"SoundDuration":103917,"Delta":583750467},{"NoteNumber":66,"Velocity":47,"Duration":207835,"SoundDuration":207835,"Delta":583958302},{"NoteNumber":69,"Velocity":56,"Duration":207835,"SoundDuration":207835,"Delta":583958302},{"NoteNumber":48,"Velocity":31,"Duration":311753,"SoundDuration":311753,"Delta":583958302},{"NoteNumber":54,"Velocity":31,"Duration":311753,"SoundDuration":311753,"Delta":583958302},{"NoteNumber":57,"Velocity":37,"Duration":311753,"SoundDuration":311753,"Delta":583958302},{"NoteNumber":74,"Velocity":52,"Duration":207835,"SoundDuration":207835,"Delta":584166138},{"NoteNumber":74,"Velocity":53,"Duration":103917,"SoundDuration":103917,"Delta":584373973},{"NoteNumber":65,"Velocity":49,"Duration":207835,"SoundDuration":207835,"Delta":584581808},{"NoteNumber":70,"Velocity":58,"Duration":207835,"SoundDuration":207835,"Delta":584581808},{"NoteNumber":46,"Velocity":33,"Duration":312035,"SoundDuration":312035,"Delta":584581808},{"NoteNumber":53,"Velocity":33,"Duration":312035,"SoundDuration":312035,"Delta":584581808},{"NoteNumber":58,"Velocity":40,"Duration":312035,"SoundDuration":312035,"Delta":584581808},{"NoteNumber":75,"Velocity":54,"Duration":208682,"SoundDuration":208682,"Delta":584789644},{"NoteNumber":75,"Velocity":54,"Duration":104778,"SoundDuration":104778,"Delta":584998326},{"NoteNumber":65,"Velocity":49,"Duration":211016,"SoundDuration":211016,"Delta":585208180},{"NoteNumber":70,"Velocity":58,"Duration":211016,"SoundDuration":211016,"Delta":585208180},{"NoteNumber":46,"Velocity":31,"Duration":316668,"SoundDuration":316668,"Delta":585208180},{"NoteNumber":58,"Velocity":38,"Duration":316668,"SoundDuration":316668,"Delta":585208180},{"NoteNumber":53,"Velocity":31,"Duration":316668,"SoundDuration":316668,"Delta":585208180},{"NoteNumber":74,"Velocity":54,"Duration":211888,"SoundDuration":211888,"Delta":585419196},{"NoteNumber":74,"Velocity":54,"Duration":106236,"SoundDuration":106236,"Delta":585631084},{"NoteNumber":65,"Velocity":48,"Duration":214283,"SoundDuration":214283,"Delta":585844158},{"NoteNumber":69,"Velocity":57,"Duration":214283,"SoundDuration":214283,"Delta":585844158},{"NoteNumber":48,"Velocity":31,"Duration":321729,"SoundDuration":321729,"Delta":585844158},{"NoteNumber":53,"Velocity":31,"Duration":321729,"SoundDuration":321729,"Delta":585844158},{"NoteNumber":57,"Velocity":37,"Duration":321729,"SoundDuration":321729,"Delta":585844158},{"NoteNumber":72,"Velocity":53,"Duration":215495,"SoundDuration":215495,"Delta":586058442},{"NoteNumber":72,"Velocity":52,"Duration":108049,"SoundDuration":108049,"Delta":586273937},{"NoteNumber":64,"Velocity":48,"Duration":217652,"SoundDuration":217652,"Delta":586490348},{"NoteNumber":67,"Velocity":57,"Duration":217652,"SoundDuration":217652,"Delta":586490348},{"NoteNumber":48,"Velocity":31,"Duration":326942,"SoundDuration":326942,"Delta":586490348},{"NoteNumber":55,"Velocity":31,"Duration":326942,"SoundDuration":326942,"Delta":586490348},{"NoteNumber":58,"Velocity":38,"Duration":326942,"SoundDuration":326942,"Delta":586490348},{"NoteNumber":72,"Velocity":52,"Duration":218903,"SoundDuration":218903,"Delta":586708001},{"NoteNumber":72,"Velocity":52,"Duration":109938,"SoundDuration":109938,"Delta":586926904},{"NoteNumber":65,"Velocity":41,"Duration":632419,"SoundDuration":632419,"Delta":587147097},{"NoteNumber":69,"Velocity":41,"Duration":632419,"SoundDuration":632419,"Delta":587147097},{"NoteNumber":72,"Velocity":49,"Duration":632419,"SoundDuration":632419,"Delta":587147097},{"NoteNumber":53,"Velocity":47,"Duration":220288,"SoundDuration":220288,"Delta":587147097},{"NoteNumber":60,"Velocity":44,"Duration":209825,"SoundDuration":209825,"Delta":587367386},{"NoteNumber":57,"Velocity":44,"Duration":101153,"SoundDuration":101153,"Delta":587577211},{"NoteNumber":53,"Velocity":47,"Duration":101153,"SoundDuration":101153,"Delta":587779517},{"NoteNumber":48,"Velocity":43,"Duration":101153,"SoundDuration":101153,"Delta":587981823},{"NoteNumber":45,"Velocity":41,"Duration":101153,"SoundDuration":101153,"Delta":588184130},{"NoteNumber":77,"Velocity":49,"Duration":305095,"SoundDuration":305095,"Delta":588386436},{"NoteNumber":69,"Velocity":40,"Duration":305095,"SoundDuration":305095,"Delta":588386436},{"NoteNumber":72,"Velocity":40,"Duration":305095,"SoundDuration":305095,"Delta":588386436},{"NoteNumber":41,"Velocity":45,"Duration":101698,"SoundDuration":101698,"Delta":588386436},{"NoteNumber":45,"Velocity":41,"Duration":101698,"SoundDuration":101698,"Delta":588589833},{"NoteNumber":48,"Velocity":41,"Duration":101698,"SoundDuration":101698,"Delta":588793229},{"NoteNumber":72,"Velocity":40,"Duration":312035,"SoundDuration":312035,"Delta":588996626},{"NoteNumber":75,"Velocity":40,"Duration":312035,"SoundDuration":312035,"Delta":588996626},{"NoteNumber":77,"Velocity":49,"Duration":312035,"SoundDuration":312035,"Delta":588996626},{"NoteNumber":45,"Velocity":47,"Duration":104199,"SoundDuration":104199,"Delta":588996626},{"NoteNumber":48,"Velocity":45,"Duration":103917,"SoundDuration":103917,"Delta":589204744},{"NoteNumber":53,"Velocity":45,"Duration":103917,"SoundDuration":103917,"Delta":589412579},{"NoteNumber":70,"Velocity":45,"Duration":623972,"SoundDuration":623972,"Delta":589620414},{"NoteNumber":74,"Velocity":45,"Duration":623972,"SoundDuration":623972,"Delta":589620414},{"NoteNumber":77,"Velocity":53,"Duration":623972,"SoundDuration":623972,"Delta":589620414},{"NoteNumber":53,"Velocity":47,"Duration":213675,"SoundDuration":213675,"Delta":589620414},{"NoteNumber":62,"Velocity":44,"Duration":207990,"SoundDuration":207990,"Delta":589834090},{"NoteNumber":58,"Velocity":44,"Duration":101153,"SoundDuration":101153,"Delta":590042081},{"NoteNumber":53,"Velocity":47,"Duration":101153,"SoundDuration":101153,"Delta":590244387},{"NoteNumber":50,"Velocity":43,"Duration":101153,"SoundDuration":101153,"Delta":590446693},{"NoteNumber":46,"Velocity":41,"Duration":101153,"SoundDuration":101153,"Delta":590649000},{"NoteNumber":70,"Velocity":40,"Duration":306717,"SoundDuration":306717,"Delta":590851306},{"NoteNumber":74,"Velocity":40,"Duration":306717,"SoundDuration":306717,"Delta":590851306},{"NoteNumber":77,"Velocity":49,"Duration":306717,"SoundDuration":306717,"Delta":590851306},{"NoteNumber":41,"Velocity":45,"Duration":102239,"SoundDuration":102239,"Delta":590851306},{"NoteNumber":46,"Velocity":41,"Duration":102239,"SoundDuration":102239,"Delta":591055784},{"NoteNumber":50,"Velocity":41,"Duration":102239,"SoundDuration":102239,"Delta":591260262},{"NoteNumber":74,"Velocity":40,"Duration":311752,"SoundDuration":311752,"Delta":591464740},{"NoteNumber":77,"Velocity":49,"Duration":311752,"SoundDuration":311752,"Delta":591464740},{"NoteNumber":46,"Velocity":47,"Duration":103917,"SoundDuration":103917,"Delta":591464740},{"NoteNumber":50,"Velocity":45,"Duration":103917,"SoundDuration":103917,"Delta":591672575},{"NoteNumber":53,"Velocity":45,"Duration":103917,"SoundDuration":103917,"Delta":591880411},{"NoteNumber":69,"Velocity":45,"Duration":629475,"SoundDuration":629475,"Delta":592088246},{"NoteNumber":72,"Velocity":45,"Duration":629475,"SoundDuration":629475,"Delta":592088246},{"NoteNumber":77,"Velocity":53,"Duration":629475,"SoundDuration":629475,"Delta":592088246},{"NoteNumber":53,"Velocity":47,"Duration":217344,"SoundDuration":217344,"Delta":592088246},{"NoteNumber":65,"Velocity":44,"Duration":209825,"SoundDuration":209825,"Delta":592305590},{"NoteNumber":60,"Velocity":44,"Duration":101153,"SoundDuration":101153,"Delta":592515415},{"NoteNumber":57,"Velocity":47,"Duration":101153,"SoundDuration":101153,"Delta":592717721},{"NoteNumber":53,"Velocity":43,"Duration":101153,"SoundDuration":101153,"Delta":592920028},{"NoteNumber":48,"Velocity":41,"Duration":101153,"SoundDuration":101153,"Delta":593122334},{"NoteNumber":72,"Velocity":44,"Duration":308388,"SoundDuration":308388,"Delta":593324640},{"NoteNumber":77,"Velocity":44,"Duration":308388,"SoundDuration":308388,"Delta":593324640},{"NoteNumber":81,"Velocity":53,"Duration":308388,"SoundDuration":308388,"Delta":593324640},{"NoteNumber":45,"Velocity":45,"Duration":102796,"SoundDuration":102796,"Delta":593324640},{"NoteNumber":41,"Velocity":41,"Duration":102796,"SoundDuration":102796,"Delta":593530232},{"NoteNumber":36,"Velocity":41,"Duration":102795,"SoundDuration":102795,"Delta":593735824},{"NoteNumber":72,"Velocity":44,"Duration":313446,"SoundDuration":313446,"Delta":593941416},{"NoteNumber":81,"Velocity":44,"Duration":313446,"SoundDuration":313446,"Delta":593941416},{"NoteNumber":84,"Velocity":53,"Duration":313446,"SoundDuration":313446,"Delta":593941416},{"NoteNumber":41,"Velocity":47,"Duration":104482,"SoundDuration":104482,"Delta":593941416},{"NoteNumber":45,"Velocity":45,"Duration":104482,"SoundDuration":104482,"Delta":594150381},{"NoteNumber":48,"Velocity":45,"Duration":104482,"SoundDuration":104482,"Delta":594359346},{"NoteNumber":84,"Velocity":56,"Duration":205592,"SoundDuration":205592,"Delta":594568310},{"NoteNumber":48,"Velocity":29,"Duration":308388,"SoundDuration":308388,"Delta":594568310},{"NoteNumber":57,"Velocity":29,"Duration":308388,"SoundDuration":308388,"Delta":594568310},{"NoteNumber":60,"Velocity":35,"Duration":308388,"SoundDuration":308388,"Delta":594568310},{"NoteNumber":89,"Velocity":51,"Duration":205592,"SoundDuration":205592,"Delta":594773902},{"NoteNumber":89,"Velocity":51,"Duration":102795,"SoundDuration":102795,"Delta":594979494},{"NoteNumber":86,"Velocity":56,"Duration":205592,"SoundDuration":205592,"Delta":595185086},{"NoteNumber":60,"Velocity":28,"Duration":308388,"SoundDuration":308388,"Delta":595185086},{"NoteNumber":74,"Velocity":34,"Duration":308388,"SoundDuration":308388,"Delta":595185086},{"NoteNumber":70,"Velocity":28,"Duration":308388,"SoundDuration":308388,"Delta":595185086},{"NoteNumber":91,"Velocity":52,"Duration":205592,"SoundDuration":205592,"Delta":595390678},{"NoteNumber":91,"Velocity":52,"Duration":102796,"SoundDuration":102796,"Delta":595596270},{"NoteNumber":84,"Velocity":56,"Duration":205592,"SoundDuration":205592,"Delta":595801862},{"NoteNumber":60,"Velocity":28,"Duration":308387,"SoundDuration":308387,"Delta":595801862},{"NoteNumber":69,"Velocity":28,"Duration":308387,"SoundDuration":308387,"Delta":595801862},{"NoteNumber":72,"Velocity":33,"Duration":308387,"SoundDuration":308387,"Delta":595801862},{"NoteNumber":89,"Velocity":51,"Duration":205591,"SoundDuration":205591,"Delta":596007454},{"NoteNumber":89,"Velocity":51,"Duration":102796,"SoundDuration":102796,"Delta":596213046},{"NoteNumber":84,"Velocity":56,"Duration":205592,"SoundDuration":205592,"Delta":596418638},{"NoteNumber":60,"Velocity":28,"Duration":308388,"SoundDuration":308388,"Delta":596418638},{"NoteNumber":67,"Velocity":28,"Duration":308388,"SoundDuration":308388,"Delta":596418638},{"NoteNumber":70,"Velocity":34,"Duration":308388,"SoundDuration":308388,"Delta":596418638},{"NoteNumber":88,"Velocity":51,"Duration":205592,"SoundDuration":205592,"Delta":596624230},{"NoteNumber":88,"Velocity":51,"Duration":102796,"SoundDuration":102796,"Delta":596829822},{"NoteNumber":84,"Velocity":56,"Duration":208964,"SoundDuration":208964,"Delta":597035414},{"NoteNumber":60,"Velocity":29,"Duration":313446,"SoundDuration":313446,"Delta":597035414},{"NoteNumber":66,"Velocity":29,"Duration":313446,"SoundDuration":313446,"Delta":597035414},{"NoteNumber":69,"Velocity":35,"Duration":313446,"SoundDuration":313446,"Delta":597035414},{"NoteNumber":87,"Velocity":51,"Duration":208964,"SoundDuration":208964,"Delta":597244379},{"NoteNumber":87,"Velocity":51,"Duration":104482,"SoundDuration":104482,"Delta":597453344},{"NoteNumber":84,"Velocity":57,"Duration":208964,"SoundDuration":208964,"Delta":597662308},{"NoteNumber":60,"Velocity":28,"Duration":313446,"SoundDuration":313446,"Delta":597662308},{"NoteNumber":69,"Velocity":35,"Duration":313446,"SoundDuration":313446,"Delta":597662308},{"NoteNumber":66,"Velocity":28,"Duration":313446,"SoundDuration":313446,"Delta":597662308},{"NoteNumber":86,"Velocity":55,"Duration":208964,"SoundDuration":208964,"Delta":597871273},{"NoteNumber":86,"Velocity":55,"Duration":104482,"SoundDuration":104482,"Delta":598080238},{"NoteNumber":78,"Velocity":58,"Duration":208964,"SoundDuration":208964,"Delta":598289202},{"NoteNumber":81,"Velocity":58,"Duration":208964,"SoundDuration":208964,"Delta":598289202},{"NoteNumber":60,"Velocity":29,"Duration":313446,"SoundDuration":313446,"Delta":598289202},{"NoteNumber":66,"Velocity":29,"Duration":313446,"SoundDuration":313446,"Delta":598289202},{"NoteNumber":69,"Velocity":35,"Duration":313446,"SoundDuration":313446,"Delta":598289202},{"NoteNumber":87,"Velocity":53,"Duration":208964,"SoundDuration":208964,"Delta":598498167},{"NoteNumber":87,"Velocity":53,"Duration":104482,"SoundDuration":104482,"Delta":598707132},{"NoteNumber":78,"Velocity":48,"Duration":208964,"SoundDuration":208964,"Delta":598916096},{"NoteNumber":81,"Velocity":57,"Duration":208964,"SoundDuration":208964,"Delta":598916096},{"NoteNumber":60,"Velocity":31,"Duration":313446,"SoundDuration":313446,"Delta":598916096},{"NoteNumber":66,"Velocity":31,"Duration":313446,"SoundDuration":313446,"Delta":598916096},{"NoteNumber":69,"Velocity":37,"Duration":313446,"SoundDuration":313446,"Delta":598916096},{"NoteNumber":86,"Velocity":54,"Duration":208964,"SoundDuration":208964,"Delta":599125061},{"NoteNumber":86,"Velocity":54,"Duration":104482,"SoundDuration":104482,"Delta":599334026},{"NoteNumber":77,"Velocity":48,"Duration":209853,"SoundDuration":209853,"Delta":599542990},{"NoteNumber":82,"Velocity":57,"Duration":209853,"SoundDuration":209853,"Delta":599542990},{"NoteNumber":58,"Velocity":33,"Duration":314929,"SoundDuration":314929,"Delta":599542990},{"NoteNumber":65,"Velocity":33,"Duration":314929,"SoundDuration":314929,"Delta":599542990},{"NoteNumber":70,"Velocity":40,"Duration":314929,"SoundDuration":314929,"Delta":599542990},{"NoteNumber":87,"Velocity":52,"Duration":210150,"SoundDuration":210150,"Delta":599752844},{"NoteNumber":87,"Velocity":52,"Duration":105363,"SoundDuration":105363,"Delta":599962995},{"NoteNumber":77,"Velocity":48,"Duration":211304,"SoundDuration":211304,"Delta":600174011},{"NoteNumber":82,"Velocity":57,"Duration":211304,"SoundDuration":211304,"Delta":600174011},{"NoteNumber":58,"Velocity":31,"Duration":317540,"SoundDuration":317540,"Delta":600174011},{"NoteNumber":70,"Velocity":38,"Duration":317540,"SoundDuration":317540,"Delta":600174011},{"NoteNumber":65,"Velocity":31,"Duration":317540,"SoundDuration":317540,"Delta":600174011},{"NoteNumber":86,"Velocity":53,"Duration":212472,"SoundDuration":212472,"Delta":600385315},{"NoteNumber":86,"Velocity":52,"Duration":106235,"SoundDuration":106235,"Delta":600597787},{"NoteNumber":77,"Velocity":48,"Duration":213675,"SoundDuration":213675,"Delta":600810259},{"NoteNumber":81,"Velocity":57,"Duration":213675,"SoundDuration":213675,"Delta":600810259},{"NoteNumber":60,"Velocity":31,"Duration":320513,"SoundDuration":320513,"Delta":600810259},{"NoteNumber":65,"Velocity":31,"Duration":320513,"SoundDuration":320513,"Delta":600810259},{"NoteNumber":69,"Velocity":37,"Duration":320513,"SoundDuration":320513,"Delta":600810259},{"NoteNumber":84,"Velocity":53,"Duration":213979,"SoundDuration":213979,"Delta":601023935},{"NoteNumber":84,"Velocity":49,"Duration":107445,"SoundDuration":107445,"Delta":601237914},{"NoteNumber":76,"Velocity":45,"Duration":215193,"SoundDuration":215193,"Delta":601452806},{"NoteNumber":79,"Velocity":54,"Duration":215193,"SoundDuration":215193,"Delta":601452806},{"NoteNumber":60,"Velocity":31,"Duration":323243,"SoundDuration":323243,"Delta":601452806},{"NoteNumber":67,"Velocity":31,"Duration":323243,"SoundDuration":323243,"Delta":601452806},{"NoteNumber":70,"Velocity":38,"Duration":323243,"SoundDuration":323243,"Delta":601452806},{"NoteNumber":84,"Velocity":48,"Duration":216099,"SoundDuration":216099,"Delta":601668000},{"NoteNumber":84,"Velocity":48,"Duration":108049,"SoundDuration":108049,"Delta":601884099},{"NoteNumber":70,"Velocity":45,"Duration":216099,"SoundDuration":216099,"Delta":602100821},{"NoteNumber":46,"Velocity":26,"Duration":324149,"SoundDuration":324149,"Delta":602100821},{"NoteNumber":51,"Velocity":26,"Duration":324149,"SoundDuration":324149,"Delta":602100821},{"NoteNumber":55,"Velocity":31,"Duration":324149,"SoundDuration":324149,"Delta":602100821},{"NoteNumber":73,"Velocity":42,"Duration":216099,"SoundDuration":216099,"Delta":602316920},{"NoteNumber":73,"Velocity":42,"Duration":108049,"SoundDuration":108049,"Delta":602533020},{"NoteNumber":70,"Velocity":46,"Duration":216099,"SoundDuration":216099,"Delta":602749119},{"NoteNumber":46,"Velocity":25,"Duration":324149,"SoundDuration":324149,"Delta":602749119},{"NoteNumber":55,"Velocity":31,"Duration":324149,"SoundDuration":324149,"Delta":602749119},{"NoteNumber":51,"Velocity":25,"Duration":324149,"SoundDuration":324149,"Delta":602749119},{"NoteNumber":72,"Velocity":45,"Duration":216099,"SoundDuration":216099,"Delta":602965218},{"NoteNumber":72,"Velocity":45,"Duration":108049,"SoundDuration":108049,"Delta":603181318},{"NoteNumber":64,"Velocity":41,"Duration":216099,"SoundDuration":216099,"Delta":603397417},{"NoteNumber":67,"Velocity":48,"Duration":216099,"SoundDuration":216099,"Delta":603397417},{"NoteNumber":46,"Velocity":26,"Duration":324149,"SoundDuration":324149,"Delta":603397417},{"NoteNumber":51,"Velocity":26,"Duration":324149,"SoundDuration":324149,"Delta":603397417},{"NoteNumber":55,"Velocity":31,"Duration":324149,"SoundDuration":324149,"Delta":603397417},{"NoteNumber":73,"Velocity":45,"Duration":216099,"SoundDuration":216099,"Delta":603613516},{"NoteNumber":73,"Velocity":45,"Duration":108049,"SoundDuration":108049,"Delta":603829616},{"NoteNumber":64,"Velocity":42,"Duration":216099,"SoundDuration":216099,"Delta":604045715},{"NoteNumber":67,"Velocity":50,"Duration":216099,"SoundDuration":216099,"Delta":604045715},{"NoteNumber":46,"Velocity":27,"Duration":324149,"SoundDuration":324149,"Delta":604045715},{"NoteNumber":51,"Velocity":27,"Duration":324149,"SoundDuration":324149,"Delta":604045715},{"NoteNumber":55,"Velocity":33,"Duration":324149,"SoundDuration":324149,"Delta":604045715},{"NoteNumber":72,"Velocity":46,"Duration":216099,"SoundDuration":216099,"Delta":604261814},{"NoteNumber":72,"Velocity":47,"Duration":108049,"SoundDuration":108049,"Delta":604477914},{"NoteNumber":63,"Velocity":44,"Duration":216099,"SoundDuration":216099,"Delta":604694013},{"NoteNumber":68,"Velocity":52,"Duration":216099,"SoundDuration":216099,"Delta":604694013},{"NoteNumber":44,"Velocity":29,"Duration":324148,"SoundDuration":324148,"Delta":604694013},{"NoteNumber":51,"Velocity":29,"Duration":324148,"SoundDuration":324148,"Delta":604694013},{"NoteNumber":56,"Velocity":36,"Duration":324148,"SoundDuration":324148,"Delta":604694013},{"NoteNumber":73,"Velocity":48,"Duration":216721,"SoundDuration":216721,"Delta":604910112},{"NoteNumber":73,"Velocity":48,"Duration":108672,"SoundDuration":108672,"Delta":605126834},{"NoteNumber":63,"Velocity":44,"Duration":218579,"SoundDuration":218579,"Delta":605344487},{"NoteNumber":68,"Velocity":52,"Duration":218579,"SoundDuration":218579,"Delta":605344487},{"NoteNumber":44,"Velocity":27,"Duration":328517,"SoundDuration":328517,"Delta":605344487},{"NoteNumber":56,"Velocity":34,"Duration":328517,"SoundDuration":328517,"Delta":605344487},{"NoteNumber":51,"Velocity":27,"Duration":328517,"SoundDuration":328517,"Delta":605344487},{"NoteNumber":72,"Velocity":48,"Duration":219876,"SoundDuration":219876,"Delta":605563066},{"NoteNumber":72,"Velocity":48,"Duration":110570,"SoundDuration":110570,"Delta":605782943},{"NoteNumber":63,"Velocity":43,"Duration":222100,"SoundDuration":222100,"Delta":606004084},{"NoteNumber":67,"Velocity":51,"Duration":222100,"SoundDuration":222100,"Delta":606004084},{"NoteNumber":46,"Velocity":27,"Duration":333310,"SoundDuration":333310,"Delta":606004084},{"NoteNumber":51,"Velocity":27,"Duration":333310,"SoundDuration":333310,"Delta":606004084},{"NoteNumber":55,"Velocity":33,"Duration":333310,"SoundDuration":333310,"Delta":606004084},{"NoteNumber":70,"Velocity":47,"Duration":223079,"SoundDuration":223079,"Delta":606226185},{"NoteNumber":70,"Velocity":46,"Duration":111869,"SoundDuration":111869,"Delta":606449264},{"NoteNumber":62,"Velocity":43,"Duration":225385,"SoundDuration":225385,"Delta":606673657},{"NoteNumber":65,"Velocity":51,"Duration":225385,"SoundDuration":225385,"Delta":606673657},{"NoteNumber":46,"Velocity":27,"Duration":338584,"SoundDuration":338584,"Delta":606673657},{"NoteNumber":53,"Velocity":27,"Duration":338584,"SoundDuration":338584,"Delta":606673657},{"NoteNumber":56,"Velocity":34,"Duration":338584,"SoundDuration":338584,"Delta":606673657},{"NoteNumber":70,"Velocity":46,"Duration":226398,"SoundDuration":226398,"Delta":606899042},{"NoteNumber":70,"Velocity":46,"Duration":113882,"SoundDuration":113882,"Delta":607125440},{"NoteNumber":73,"Velocity":41,"Duration":216099,"SoundDuration":216099,"Delta":608657269},{"NoteNumber":78,"Velocity":48,"Duration":216099,"SoundDuration":216099,"Delta":608657269},{"NoteNumber":66,"Velocity":31,"Duration":324149,"SoundDuration":324149,"Delta":608657269},{"NoteNumber":82,"Velocity":45,"Duration":216099,"SoundDuration":216099,"Delta":608873368},{"NoteNumber":82,"Velocity":45,"Duration":108049,"SoundDuration":108049,"Delta":609089467},{"NoteNumber":73,"Velocity":41,"Duration":216099,"SoundDuration":216099,"Delta":609305567},{"NoteNumber":78,"Velocity":49,"Duration":216099,"SoundDuration":216099,"Delta":609305567},{"NoteNumber":63,"Velocity":33,"Duration":324149,"SoundDuration":324149,"Delta":609305567},{"NoteNumber":81,"Velocity":44,"Duration":216099,"SoundDuration":216099,"Delta":609521666},{"NoteNumber":81,"Velocity":44,"Duration":108049,"SoundDuration":108049,"Delta":609737765},{"NoteNumber":73,"Velocity":42,"Duration":216099,"SoundDuration":216099,"Delta":609953865},{"NoteNumber":77,"Velocity":50,"Duration":216099,"SoundDuration":216099,"Delta":609953865},{"NoteNumber":68,"Velocity":33,"Duration":324148,"SoundDuration":324148,"Delta":609953865},{"NoteNumber":80,"Velocity":46,"Duration":216721,"SoundDuration":216721,"Delta":610169964},{"NoteNumber":80,"Velocity":46,"Duration":108672,"SoundDuration":108672,"Delta":610386686},{"NoteNumber":72,"Velocity":40,"Duration":218579,"SoundDuration":218579,"Delta":610604338},{"NoteNumber":75,"Velocity":48,"Duration":218579,"SoundDuration":218579,"Delta":610604338},{"NoteNumber":68,"Velocity":31,"Duration":328517,"SoundDuration":328517,"Delta":610604338},{"NoteNumber":80,"Velocity":44,"Duration":219876,"SoundDuration":219876,"Delta":610822918},{"NoteNumber":80,"Velocity":44,"Duration":110570,"SoundDuration":110570,"Delta":611042795},{"NoteNumber":61,"Velocity":37,"Duration":219876,"SoundDuration":219876,"Delta":611927359},{"NoteNumber":64,"Velocity":44,"Duration":219876,"SoundDuration":219876,"Delta":611927359},{"NoteNumber":44,"Velocity":29,"Duration":329815,"SoundDuration":329815,"Delta":611927359},{"NoteNumber":68,"Velocity":39,"Duration":219876,"SoundDuration":219876,"Delta":612147236},{"NoteNumber":68,"Velocity":39,"Duration":109938,"SoundDuration":109938,"Delta":612367113},{"NoteNumber":60,"Velocity":38,"Duration":225047,"SoundDuration":225047,"Delta":612586990},{"NoteNumber":63,"Velocity":45,"Duration":225047,"SoundDuration":225047,"Delta":612586990},{"NoteNumber":44,"Velocity":29,"Duration":337571,"SoundDuration":337571,"Delta":612586990},{"NoteNumber":68,"Velocity":41,"Duration":225047,"SoundDuration":225047,"Delta":612812037},{"NoteNumber":68,"Velocity":41,"Duration":112523,"SoundDuration":112523,"Delta":613037085},{"NoteNumber":60,"Velocity":33,"Duration":229121,"SoundDuration":229121,"Delta":613937276},{"NoteNumber":63,"Velocity":39,"Duration":229121,"SoundDuration":229121,"Delta":613937276},{"NoteNumber":45,"Velocity":26,"Duration":343681,"SoundDuration":343681,"Delta":613937276},{"NoteNumber":66,"Velocity":35,"Duration":229121,"SoundDuration":229121,"Delta":614166397},{"NoteNumber":66,"Velocity":35,"Duration":114560,"SoundDuration":114560,"Delta":614395518},{"NoteNumber":60,"Velocity":34,"Duration":248570,"SoundDuration":248570,"Delta":614624640},{"NoteNumber":63,"Velocity":40,"Duration":248570,"SoundDuration":248570,"Delta":614624640},{"NoteNumber":45,"Velocity":26,"Duration":372855,"SoundDuration":372855,"Delta":614624640},{"NoteNumber":65,"Velocity":36,"Duration":248570,"SoundDuration":248570,"Delta":614873210},{"NoteNumber":65,"Velocity":36,"Duration":124285,"SoundDuration":124285,"Delta":615121781},{"NoteNumber":72,"Velocity":40,"Duration":221140,"SoundDuration":221140,"Delta":616061835},{"NoteNumber":75,"Velocity":40,"Duration":221140,"SoundDuration":221140,"Delta":616061835},{"NoteNumber":57,"Velocity":26,"Duration":331711,"SoundDuration":331711,"Delta":616061835},{"NoteNumber":77,"Velocity":36,"Duration":221140,"SoundDuration":221140,"Delta":616282976},{"NoteNumber":77,"Velocity":36,"Duration":110570,"SoundDuration":110570,"Delta":616504117},{"NoteNumber":70,"Velocity":45,"Duration":221140,"SoundDuration":221140,"Delta":616725258},{"NoteNumber":75,"Velocity":45,"Duration":221140,"SoundDuration":221140,"Delta":616725258},{"NoteNumber":58,"Velocity":27,"Duration":331711,"SoundDuration":331711,"Delta":616725258},{"NoteNumber":79,"Velocity":37,"Duration":221140,"SoundDuration":221140,"Delta":616946399},{"NoteNumber":79,"Velocity":37,"Duration":110570,"SoundDuration":110570,"Delta":617167540},{"NoteNumber":70,"Velocity":45,"Duration":221140,"SoundDuration":221140,"Delta":617388681},{"NoteNumber":74,"Velocity":45,"Duration":221140,"SoundDuration":221140,"Delta":617388681},{"NoteNumber":46,"Velocity":30,"Duration":331711,"SoundDuration":331711,"Delta":617388681},{"NoteNumber":77,"Velocity":39,"Duration":221140,"SoundDuration":221140,"Delta":617609822},{"NoteNumber":77,"Velocity":39,"Duration":116672,"SoundDuration":116672,"Delta":617830963},{"NoteNumber":58,"Velocity":39,"Duration":223738,"SoundDuration":223738,"Delta":618064308},{"NoteNumber":62,"Velocity":47,"Duration":223738,"SoundDuration":223738,"Delta":618064308},{"NoteNumber":48,"Velocity":33,"Duration":335607,"SoundDuration":335607,"Delta":618064308},{"NoteNumber":65,"Velocity":40,"Duration":223738,"SoundDuration":223738,"Delta":618288046},{"NoteNumber":65,"Velocity":40,"Duration":112523,"SoundDuration":112523,"Delta":618511785},{"NoteNumber":57,"Velocity":43,"Duration":225047,"SoundDuration":225047,"Delta":618736833},{"NoteNumber":60,"Velocity":51,"Duration":225047,"SoundDuration":225047,"Delta":618736833},{"NoteNumber":48,"Velocity":35,"Duration":338246,"SoundDuration":338246,"Delta":618736833},{"NoteNumber":65,"Velocity":46,"Duration":226397,"SoundDuration":226397,"Delta":618961880},{"NoteNumber":65,"Velocity":46,"Duration":121124,"SoundDuration":121124,"Delta":619188278},{"NoteNumber":60,"Velocity":49,"Duration":229464,"SoundDuration":229464,"Delta":619426906},{"NoteNumber":65,"Velocity":58,"Duration":229464,"SoundDuration":229464,"Delta":619426906},{"NoteNumber":58,"Velocity":41,"Duration":345072,"SoundDuration":345072,"Delta":619426906},{"NoteNumber":55,"Velocity":35,"Duration":345072,"SoundDuration":345072,"Delta":619426906},{"NoteNumber":48,"Velocity":35,"Duration":345072,"SoundDuration":345072,"Delta":619426906},{"NoteNumber":72,"Velocity":50,"Duration":231577,"SoundDuration":231577,"Delta":619656370},{"NoteNumber":72,"Velocity":50,"Duration":116672,"SoundDuration":116672,"Delta":619887947},{"NoteNumber":60,"Velocity":50,"Duration":236243,"SoundDuration":236243,"Delta":620122004},{"NoteNumber":64,"Velocity":60,"Duration":236243,"SoundDuration":236243,"Delta":620122004},{"NoteNumber":48,"Velocity":36,"Duration":355476,"SoundDuration":355476,"Delta":620122004},{"NoteNumber":55,"Velocity":36,"Duration":355476,"SoundDuration":355476,"Delta":620122004},{"NoteNumber":58,"Velocity":42,"Duration":355476,"SoundDuration":355476,"Delta":620122004},{"NoteNumber":72,"Velocity":53,"Duration":238836,"SoundDuration":238836,"Delta":620358248},{"NoteNumber":72,"Velocity":53,"Duration":129382,"SoundDuration":129382,"Delta":620597084},{"NoteNumber":57,"Velocity":58,"Duration":178295,"SoundDuration":178295,"Delta":620855850},{"NoteNumber":60,"Velocity":58,"Duration":178295,"SoundDuration":178295,"Delta":620855850},{"NoteNumber":65,"Velocity":58,"Duration":178295,"SoundDuration":178295,"Delta":620855850},{"NoteNumber":41,"Velocity":36,"Duration":178295,"SoundDuration":178295,"Delta":620855850},{"NoteNumber":53,"Velocity":42,"Duration":178295,"SoundDuration":178295,"Delta":620855850},{"NoteNumber":60,"Velocity":47,"Duration":237727,"SoundDuration":237727,"Delta":621093577},{"NoteNumber":57,"Velocity":47,"Duration":237727,"SoundDuration":237727,"Delta":621331305},{"NoteNumber":60,"Velocity":47,"Duration":237727,"SoundDuration":237727,"Delta":621569032},{"NoteNumber":65,"Velocity":51,"Duration":237727,"SoundDuration":237727,"Delta":621806759},{"NoteNumber":69,"Velocity":55,"Duration":237727,"SoundDuration":237727,"Delta":622044487},{"NoteNumber":72,"Velocity":68,"Duration":1024939,"SoundDuration":1024939,"Delta":622282214},{"NoteNumber":57,"Velocity":36,"Duration":1024939,"SoundDuration":1024939,"Delta":622282214},{"NoteNumber":60,"Velocity":44,"Duration":1393037,"SoundDuration":1393037,"Delta":622282214},{"NoteNumber":62,"Velocity":48,"Duration":341646,"SoundDuration":341646,"Delta":622965507},{"NoteNumber":64,"Velocity":45,"Duration":368098,"SoundDuration":368098,"Delta":623307154},{"NoteNumber":70,"Velocity":54,"Duration":368098,"SoundDuration":368098,"Delta":623307154},{"NoteNumber":55,"Velocity":30,"Duration":368098,"SoundDuration":368098,"Delta":623307154},{"NoteNumber":58,"Velocity":36,"Duration":368098,"SoundDuration":368098,"Delta":623307154},{"NoteNumber":60,"Velocity":47,"Duration":695814,"SoundDuration":695814,"Delta":623675252},{"NoteNumber":65,"Velocity":47,"Duration":695814,"SoundDuration":695814,"Delta":623675252},{"NoteNumber":69,"Velocity":56,"Duration":695814,"SoundDuration":695814,"Delta":623675252},{"NoteNumber":53,"Velocity":36,"Duration":695814,"SoundDuration":695814,"Delta":623675252},{"NoteNumber":57,"Velocity":44,"Duration":695814,"SoundDuration":695814,"Delta":623675252},{"NoteNumber":61,"Velocity":52,"Duration":695813,"SoundDuration":695813,"Delta":624371066},{"NoteNumber":67,"Velocity":52,"Duration":695813,"SoundDuration":695813,"Delta":624371066},{"NoteNumber":69,"Velocity":62,"Duration":695813,"SoundDuration":695813,"Delta":624371066},{"NoteNumber":51,"Velocity":38,"Duration":695813,"SoundDuration":695813,"Delta":624371066},{"NoteNumber":57,"Velocity":45,"Duration":695813,"SoundDuration":695813,"Delta":624371066},{"NoteNumber":62,"Velocity":54,"Duration":695814,"SoundDuration":695814,"Delta":625066880},{"NoteNumber":60,"Velocity":54,"Duration":695814,"SoundDuration":695814,"Delta":625066880},{"NoteNumber":66,"Velocity":54,"Duration":695814,"SoundDuration":695814,"Delta":625066880},{"NoteNumber":69,"Velocity":64,"Duration":695814,"SoundDuration":695814,"Delta":625066880},{"NoteNumber":50,"Velocity":40,"Duration":695814,"SoundDuration":695814,"Delta":625066880},{"NoteNumber":57,"Velocity":48,"Duration":695814,"SoundDuration":695814,"Delta":625066880},{"NoteNumber":70,"Velocity":65,"Duration":531955,"SoundDuration":531955,"Delta":625762694},{"NoteNumber":58,"Velocity":55,"Duration":716004,"SoundDuration":716004,"Delta":625762694},{"NoteNumber":62,"Velocity":55,"Duration":716004,"SoundDuration":716004,"Delta":625762694},{"NoteNumber":67,"Velocity":55,"Duration":716004,"SoundDuration":716004,"Delta":625762694},{"NoteNumber":43,"Velocity":37,"Duration":716004,"SoundDuration":716004,"Delta":625762694},{"NoteNumber":50,"Velocity":37,"Duration":716004,"SoundDuration":716004,"Delta":625762694},{"NoteNumber":55,"Velocity":44,"Duration":716004,"SoundDuration":716004,"Delta":625762694},{"NoteNumber":69,"Velocity":55,"Duration":184049,"SoundDuration":184049,"Delta":626294650},{"NoteNumber":60,"Velocity":44,"Duration":1553132,"SoundDuration":1553132,"Delta":626478699},{"NoteNumber":64,"Velocity":44,"Duration":1374728,"SoundDuration":1374728,"Delta":626478699},{"NoteNumber":67,"Velocity":52,"Duration":1031045,"SoundDuration":1031045,"Delta":626478699},{"NoteNumber":48,"Velocity":41,"Duration":1374728,"SoundDuration":1374728,"Delta":626478699},{"NoteNumber":58,"Velocity":49,"Duration":1374728,"SoundDuration":1374728,"Delta":626478699},{"NoteNumber":68,"Velocity":47,"Duration":343682,"SoundDuration":343682,"Delta":627509745},{"NoteNumber":65,"Velocity":43,"Duration":178404,"SoundDuration":178404,"Delta":627853427},{"NoteNumber":69,"Velocity":51,"Duration":178404,"SoundDuration":178404,"Delta":627853427},{"NoteNumber":53,"Velocity":32,"Duration":178404,"SoundDuration":178404,"Delta":627853427},{"NoteNumber":57,"Velocity":38,"Duration":178404,"SoundDuration":178404,"Delta":627853427},{"NoteNumber":60,"Velocity":39,"Duration":181685,"SoundDuration":181685,"Delta":628576889},{"NoteNumber":65,"Velocity":39,"Duration":181685,"SoundDuration":181685,"Delta":628576889},{"NoteNumber":69,"Velocity":46,"Duration":181685,"SoundDuration":181685,"Delta":628576889},{"NoteNumber":53,"Velocity":28,"Duration":181685,"SoundDuration":181685,"Delta":628576889},{"NoteNumber":57,"Velocity":34,"Duration":181685,"SoundDuration":181685,"Delta":628576889},{"NoteNumber":48,"Velocity":47,"Duration":237727,"SoundDuration":237727,"Delta":629541360},{"NoteNumber":45,"Velocity":47,"Duration":237727,"SoundDuration":237727,"Delta":629779088},{"NoteNumber":48,"Velocity":47,"Duration":237727,"SoundDuration":237727,"Delta":630016815},{"NoteNumber":53,"Velocity":51,"Duration":237727,"SoundDuration":237727,"Delta":630254542},{"NoteNumber":57,"Velocity":55,"Duration":237727,"SoundDuration":237727,"Delta":630492270},{"NoteNumber":60,"Velocity":65,"Duration":1024939,"SoundDuration":1024939,"Delta":630729997},{"NoteNumber":45,"Velocity":35,"Duration":1024939,"SoundDuration":1024939,"Delta":630729997},{"NoteNumber":48,"Velocity":42,"Duration":337375,"SoundDuration":337375,"Delta":630729997},{"NoteNumber":48,"Velocity":46,"Duration":683292,"SoundDuration":683292,"Delta":631071643},{"NoteNumber":50,"Velocity":48,"Duration":341646,"SoundDuration":341646,"Delta":631413290},{"NoteNumber":48,"Velocity":45,"Duration":368098,"SoundDuration":368098,"Delta":631754936},{"NoteNumber":52,"Velocity":45,"Duration":368098,"SoundDuration":368098,"Delta":631754936},{"NoteNumber":58,"Velocity":54,"Duration":368098,"SoundDuration":368098,"Delta":631754936},{"NoteNumber":43,"Velocity":30,"Duration":368098,"SoundDuration":368098,"Delta":631754936},{"NoteNumber":46,"Velocity":36,"Duration":368098,"SoundDuration":368098,"Delta":631754936},{"NoteNumber":48,"Velocity":47,"Duration":695814,"SoundDuration":695814,"Delta":632123034},{"NoteNumber":53,"Velocity":47,"Duration":695814,"SoundDuration":695814,"Delta":632123034},{"NoteNumber":57,"Velocity":56,"Duration":695814,"SoundDuration":695814,"Delta":632123034},{"NoteNumber":41,"Velocity":36,"Duration":695814,"SoundDuration":695814,"Delta":632123034},{"NoteNumber":45,"Velocity":44,"Duration":695814,"SoundDuration":695814,"Delta":632123034},{"NoteNumber":49,"Velocity":52,"Duration":695813,"SoundDuration":695813,"Delta":632818848},{"NoteNumber":55,"Velocity":52,"Duration":695813,"SoundDuration":695813,"Delta":632818848},{"NoteNumber":57,"Velocity":62,"Duration":695813,"SoundDuration":695813,"Delta":632818848},{"NoteNumber":39,"Velocity":38,"Duration":695813,"SoundDuration":695813,"Delta":632818848},{"NoteNumber":45,"Velocity":45,"Duration":695813,"SoundDuration":695813,"Delta":632818848},{"NoteNumber":50,"Velocity":54,"Duration":695814,"SoundDuration":695814,"Delta":633514662},{"NoteNumber":48,"Velocity":54,"Duration":695814,"SoundDuration":695814,"Delta":633514662},{"NoteNumber":54,"Velocity":54,"Duration":695814,"SoundDuration":695814,"Delta":633514662},{"NoteNumber":57,"Velocity":64,"Duration":695814,"SoundDuration":695814,"Delta":633514662},{"NoteNumber":38,"Velocity":40,"Duration":695814,"SoundDuration":695814,"Delta":633514662},{"NoteNumber":45,"Velocity":48,"Duration":695814,"SoundDuration":695814,"Delta":633514662},{"NoteNumber":58,"Velocity":71,"Duration":347906,"SoundDuration":347906,"Delta":634210476},{"NoteNumber":46,"Velocity":60,"Duration":347906,"SoundDuration":347906,"Delta":634210476},{"NoteNumber":50,"Velocity":60,"Duration":347906,"SoundDuration":347906,"Delta":634210476},{"NoteNumber":55,"Velocity":60,"Duration":347906,"SoundDuration":347906,"Delta":634210476},{"NoteNumber":31,"Velocity":40,"Duration":347906,"SoundDuration":347906,"Delta":634210476},{"NoteNumber":38,"Velocity":40,"Duration":347906,"SoundDuration":347906,"Delta":634210476},{"NoteNumber":43,"Velocity":48,"Duration":347906,"SoundDuration":347906,"Delta":634210476},{"NoteNumber":62,"Velocity":62,"Duration":700034,"SoundDuration":700034,"Delta":635662677},{"NoteNumber":68,"Velocity":62,"Duration":700034,"SoundDuration":700034,"Delta":635662677},{"NoteNumber":70,"Velocity":74,"Duration":700034,"SoundDuration":700034,"Delta":635662677},{"NoteNumber":53,"Velocity":45,"Duration":700034,"SoundDuration":700034,"Delta":635662677},{"NoteNumber":58,"Velocity":53,"Duration":700034,"SoundDuration":700034,"Delta":635662677},{"NoteNumber":63,"Velocity":64,"Duration":700035,"SoundDuration":700035,"Delta":636362712},{"NoteNumber":61,"Velocity":64,"Duration":700035,"SoundDuration":700035,"Delta":636362712},{"NoteNumber":67,"Velocity":64,"Duration":700035,"SoundDuration":700035,"Delta":636362712},{"NoteNumber":70,"Velocity":77,"Duration":700035,"SoundDuration":700035,"Delta":636362712},{"NoteNumber":51,"Velocity":49,"Duration":700035,"SoundDuration":700035,"Delta":636362712},{"NoteNumber":58,"Velocity":59,"Duration":700035,"SoundDuration":700035,"Delta":636362712},{"NoteNumber":71,"Velocity":85,"Duration":350017,"SoundDuration":350017,"Delta":637062747},{"NoteNumber":59,"Velocity":72,"Duration":350017,"SoundDuration":350017,"Delta":637062747},{"NoteNumber":63,"Velocity":72,"Duration":350017,"SoundDuration":350017,"Delta":637062747},{"NoteNumber":68,"Velocity":72,"Duration":350017,"SoundDuration":350017,"Delta":637062747},{"NoteNumber":44,"Velocity":50,"Duration":350017,"SoundDuration":350017,"Delta":637062747},{"NoteNumber":51,"Velocity":50,"Duration":350017,"SoundDuration":350017,"Delta":637062747},{"NoteNumber":56,"Velocity":60,"Duration":350017,"SoundDuration":350017,"Delta":637062747},{"NoteNumber":74,"Velocity":82,"Duration":700034,"SoundDuration":700034,"Delta":638462817},{"NoteNumber":76,"Velocity":82,"Duration":700034,"SoundDuration":700034,"Delta":638462817},{"NoteNumber":83,"Velocity":99,"Duration":700034,"SoundDuration":700034,"Delta":638462817},{"NoteNumber":80,"Velocity":99,"Duration":700034,"SoundDuration":700034,"Delta":638462817},{"NoteNumber":40,"Velocity":70,"Duration":700034,"SoundDuration":700034,"Delta":638462817},{"NoteNumber":47,"Velocity":70,"Duration":700034,"SoundDuration":700034,"Delta":638462817},{"NoteNumber":52,"Velocity":84,"Duration":700034,"SoundDuration":700034,"Delta":638462817},{"NoteNumber":72,"Velocity":88,"Duration":350017,"SoundDuration":350017,"Delta":639162852},{"NoteNumber":76,"Velocity":88,"Duration":350017,"SoundDuration":350017,"Delta":639162852},{"NoteNumber":81,"Velocity":103,"Duration":350017,"SoundDuration":350017,"Delta":639162852},{"NoteNumber":84,"Velocity":103,"Duration":350017,"SoundDuration":350017,"Delta":639162852},{"NoteNumber":33,"Velocity":70,"Duration":350017,"SoundDuration":350017,"Delta":639162852},{"NoteNumber":40,"Velocity":70,"Duration":350017,"SoundDuration":350017,"Delta":639162852},{"NoteNumber":45,"Velocity":84,"Duration":350017,"SoundDuration":350017,"Delta":639162852},{"NoteNumber":77,"Velocity":52,"Duration":1553914,"SoundDuration":1553914,"Delta":640562922},{"NoteNumber":81,"Velocity":52,"Duration":1374728,"SoundDuration":1374728,"Delta":640562922},{"NoteNumber":84,"Velocity":62,"Duration":1031045,"SoundDuration":1031045,"Delta":640562922},{"NoteNumber":65,"Velocity":49,"Duration":1374728,"SoundDuration":1374728,"Delta":640562922},{"NoteNumber":75,"Velocity":58,"Duration":1374728,"SoundDuration":1374728,"Delta":640562922},{"NoteNumber":85,"Velocity":56,"Duration":343682,"SoundDuration":343682,"Delta":641593968},{"NoteNumber":82,"Velocity":51,"Duration":179186,"SoundDuration":179186,"Delta":641937650},{"NoteNumber":86,"Velocity":61,"Duration":179186,"SoundDuration":179186,"Delta":641937650},{"NoteNumber":70,"Velocity":38,"Duration":179186,"SoundDuration":179186,"Delta":641937650},{"NoteNumber":74,"Velocity":45,"Duration":179186,"SoundDuration":179186,"Delta":641937650},{"NoteNumber":77,"Velocity":46,"Duration":196721,"SoundDuration":196721,"Delta":642665417},{"NoteNumber":82,"Velocity":46,"Duration":196721,"SoundDuration":196721,"Delta":642665417},{"NoteNumber":86,"Velocity":55,"Duration":196721,"SoundDuration":196721,"Delta":642665417},{"NoteNumber":70,"Velocity":33,"Duration":196721,"SoundDuration":196721,"Delta":642665417},{"NoteNumber":74,"Velocity":40,"Duration":196721,"SoundDuration":196721,"Delta":642665417},{"NoteNumber":77,"Velocity":51,"Duration":2213249,"SoundDuration":2213249,"Delta":643452302},{"NoteNumber":86,"Velocity":61,"Duration":2213249,"SoundDuration":2213249,"Delta":643452302},{"NoteNumber":89,"Velocity":61,"Duration":2213249,"SoundDuration":2213249,"Delta":643452302},{"NoteNumber":70,"Velocity":38,"Duration":2213249,"SoundDuration":2213249,"Delta":643452302},{"NoteNumber":74,"Velocity":45,"Duration":2213249,"SoundDuration":2213249,"Delta":643452302},{"NoteNumber":77,"Velocity":54,"Duration":1782955,"SoundDuration":1782955,"Delta":646378733},{"NoteNumber":74,"Velocity":45,"Duration":356590,"SoundDuration":356590,"Delta":648161688},{"NoteNumber":70,"Velocity":50,"Duration":356590,"SoundDuration":356590,"Delta":648518279},{"NoteNumber":69,"Velocity":45,"Duration":356590,"SoundDuration":356590,"Delta":648874870},{"NoteNumber":60,"Velocity":34,"Duration":1553914,"SoundDuration":1553914,"Delta":649231461},{"NoteNumber":64,"Velocity":34,"Duration":1374728,"SoundDuration":1374728,"Delta":649231461},{"NoteNumber":69,"Velocity":49,"Duration":687364,"SoundDuration":687364,"Delta":649231461},{"NoteNumber":48,"Velocity":33,"Duration":1374728,"SoundDuration":1374728,"Delta":649231461},{"NoteNumber":58,"Velocity":39,"Duration":1374728,"SoundDuration":1374728,"Delta":649231461},{"NoteNumber":67,"Velocity":44,"Duration":515523,"SoundDuration":515523,"Delta":649918825},{"NoteNumber":68,"Velocity":44,"Duration":171840,"SoundDuration":171840,"Delta":650434348},{"NoteNumber":65,"Velocity":40,"Duration":179186,"SoundDuration":179186,"Delta":650606189},{"NoteNumber":69,"Velocity":48,"Duration":179186,"SoundDuration":179186,"Delta":650606189},{"NoteNumber":53,"Velocity":30,"Duration":179186,"SoundDuration":179186,"Delta":650606189},{"NoteNumber":57,"Velocity":36,"Duration":179186,"SoundDuration":179186,"Delta":650606189},{"NoteNumber":60,"Velocity":30,"Duration":196721,"SoundDuration":196721,"Delta":651333956},{"NoteNumber":65,"Velocity":36,"Duration":196721,"SoundDuration":196721,"Delta":651333956},{"NoteNumber":69,"Velocity":44,"Duration":196721,"SoundDuration":196721,"Delta":651333956},{"NoteNumber":53,"Velocity":24,"Duration":196721,"SoundDuration":196721,"Delta":651333956},{"NoteNumber":57,"Velocity":32,"Duration":196721,"SoundDuration":196721,"Delta":651333956},{"NoteNumber":69,"Velocity":48,"Duration":2360655,"SoundDuration":2360655,"Delta":652120841},{"NoteNumber":72,"Velocity":48,"Duration":2360655,"SoundDuration":2360655,"Delta":652120841},{"NoteNumber":53,"Velocity":30,"Duration":2360655,"SoundDuration":2360655,"Delta":652120841},{"NoteNumber":60,"Velocity":36,"Duration":2360655,"SoundDuration":2360655,"Delta":652120841},{"NoteNumber":77,"Velocity":52,"Duration":1553914,"SoundDuration":1553914,"Delta":655268381},{"NoteNumber":81,"Velocity":52,"Duration":1374728,"SoundDuration":1374728,"Delta":655268381},{"NoteNumber":84,"Velocity":62,"Duration":1031045,"SoundDuration":1031045,"Delta":655268381},{"NoteNumber":65,"Velocity":49,"Duration":1374728,"SoundDuration":1374728,"Delta":655268381},{"NoteNumber":75,"Velocity":58,"Duration":1374728,"SoundDuration":1374728,"Delta":655268381},{"NoteNumber":85,"Velocity":56,"Duration":343682,"SoundDuration":343682,"Delta":656299427},{"NoteNumber":82,"Velocity":51,"Duration":179186,"SoundDuration":179186,"Delta":656643109},{"NoteNumber":86,"Velocity":61,"Duration":179186,"SoundDuration":179186,"Delta":656643109},{"NoteNumber":70,"Velocity":38,"Duration":179186,"SoundDuration":179186,"Delta":656643109},{"NoteNumber":74,"Velocity":45,"Duration":179186,"SoundDuration":179186,"Delta":656643109},{"NoteNumber":77,"Velocity":55,"Duration":196721,"SoundDuration":196721,"Delta":657370876},{"NoteNumber":82,"Velocity":55,"Duration":196721,"SoundDuration":196721,"Delta":657370876},{"NoteNumber":86,"Velocity":66,"Duration":196721,"SoundDuration":196721,"Delta":657370876},{"NoteNumber":70,"Velocity":39,"Duration":196721,"SoundDuration":196721,"Delta":657370876},{"NoteNumber":74,"Velocity":48,"Duration":196721,"SoundDuration":196721,"Delta":657370876},{"NoteNumber":70,"Velocity":79,"Duration":106395,"SoundDuration":106395,"Delta":658162270},{"NoteNumber":74,"Velocity":77,"Duration":102194,"SoundDuration":102194,"Delta":658268665},{"NoteNumber":77,"Velocity":76,"Duration":98264,"SoundDuration":98264,"Delta":658370860},{"NoteNumber":82,"Velocity":74,"Duration":94629,"SoundDuration":94629,"Delta":658469124},{"NoteNumber":86,"Velocity":71,"Duration":91214,"SoundDuration":91214,"Delta":658563754},{"NoteNumber":89,"Velocity":65,"Duration":88244,"SoundDuration":88244,"Delta":658654968},{"NoteNumber":94,"Velocity":61,"Duration":87844,"SoundDuration":87844,"Delta":658743212},{"NoteNumber":98,"Velocity":61,"Duration":123966,"SoundDuration":123966,"Delta":658831056},{"NoteNumber":101,"Velocity":57,"Duration":115030,"SoundDuration":115030,"Delta":658955023},{"NoteNumber":77,"Velocity":62,"Duration":2496136,"SoundDuration":2496136,"Delta":661715758},{"NoteNumber":76,"Velocity":50,"Duration":356590,"SoundDuration":356590,"Delta":664211895},{"NoteNumber":76,"Velocity":53,"Duration":713182,"SoundDuration":713182,"Delta":664568486},{"NoteNumber":74,"Velocity":51,"Duration":534886,"SoundDuration":534886,"Delta":665281668},{"NoteNumber":72,"Velocity":47,"Duration":178295,"SoundDuration":178295,"Delta":665816555},{"NoteNumber":72,"Velocity":51,"Duration":713181,"SoundDuration":713181,"Delta":665994850},{"NoteNumber":70,"Velocity":48,"Duration":534886,"SoundDuration":534886,"Delta":666708032},{"NoteNumber":69,"Velocity":41,"Duration":178295,"SoundDuration":178295,"Delta":667242919},{"NoteNumber":60,"Velocity":30,"Duration":1608657,"SoundDuration":1608657,"Delta":667421214},{"NoteNumber":64,"Velocity":30,"Duration":1422230,"SoundDuration":1422230,"Delta":667421214},{"NoteNumber":69,"Velocity":44,"Duration":700034,"SoundDuration":700034,"Delta":667421214},{"NoteNumber":48,"Velocity":29,"Duration":1422230,"SoundDuration":1422230,"Delta":667421214},{"NoteNumber":58,"Velocity":35,"Duration":1422230,"SoundDuration":1422230,"Delta":667421214},{"NoteNumber":67,"Velocity":39,"Duration":541646,"SoundDuration":541646,"Delta":668121249},{"NoteNumber":68,"Velocity":39,"Duration":180548,"SoundDuration":180548,"Delta":668662896},{"NoteNumber":65,"Velocity":36,"Duration":186427,"SoundDuration":186427,"Delta":668843444},{"NoteNumber":69,"Velocity":43,"Duration":186427,"SoundDuration":186427,"Delta":668843444},{"NoteNumber":53,"Velocity":27,"Duration":186427,"SoundDuration":186427,"Delta":668843444},{"NoteNumber":57,"Velocity":32,"Duration":186427,"SoundDuration":186427,"Delta":668843444},{"NoteNumber":60,"Velocity":27,"Duration":203776,"SoundDuration":203776,"Delta":669589156},{"NoteNumber":65,"Velocity":32,"Duration":203776,"SoundDuration":203776,"Delta":669589156},{"NoteNumber":69,"Velocity":39,"Duration":203776,"SoundDuration":203776,"Delta":669589156},{"NoteNumber":53,"Velocity":21,"Duration":203776,"SoundDuration":203776,"Delta":669589156},{"NoteNumber":57,"Velocity":28,"Duration":203776,"SoundDuration":203776,"Delta":669589156},{"NoteNumber":69,"Velocity":43,"Duration":2148039,"SoundDuration":2148039,"Delta":670404263},{"NoteNumber":72,"Velocity":43,"Duration":2148039,"SoundDuration":2148039,"Delta":670404263},{"NoteNumber":53,"Velocity":27,"Duration":2148039,"SoundDuration":2148039,"Delta":670404263},{"NoteNumber":60,"Velocity":32,"Duration":2148039,"SoundDuration":2148039,"Delta":670404263},{"NoteNumber":64,"Velocity":32,"Duration":196078,"SoundDuration":196078,"Delta":673265485},{"NoteNumber":68,"Velocity":32,"Duration":196078,"SoundDuration":196078,"Delta":673265485},{"NoteNumber":73,"Velocity":38,"Duration":196078,"SoundDuration":196078,"Delta":673265485},{"NoteNumber":52,"Velocity":24,"Duration":196078,"SoundDuration":196078,"Delta":673265485},{"NoteNumber":56,"Velocity":24,"Duration":196078,"SoundDuration":196078,"Delta":673265485},{"NoteNumber":61,"Velocity":28,"Duration":196078,"SoundDuration":196078,"Delta":673265485},{"NoteNumber":64,"Velocity":24,"Duration":225563,"SoundDuration":225563,"Delta":674049799},{"NoteNumber":68,"Velocity":28,"Duration":225563,"SoundDuration":225563,"Delta":674049799},{"NoteNumber":73,"Velocity":35,"Duration":225563,"SoundDuration":225563,"Delta":674049799},{"NoteNumber":52,"Velocity":18,"Duration":225563,"SoundDuration":225563,"Delta":674049799},{"NoteNumber":56,"Velocity":18,"Duration":225563,"SoundDuration":225563,"Delta":674049799},{"NoteNumber":61,"Velocity":25,"Duration":225563,"SoundDuration":225563,"Delta":674049799},{"NoteNumber":64,"Velocity":38,"Duration":2854423,"SoundDuration":2854423,"Delta":674952055},{"NoteNumber":68,"Velocity":38,"Duration":2854423,"SoundDuration":2854423,"Delta":674952055},{"NoteNumber":76,"Velocity":38,"Duration":2854423,"SoundDuration":2854423,"Delta":674952055},{"NoteNumber":49,"Velocity":24,"Duration":2854423,"SoundDuration":2854423,"Delta":674952055},{"NoteNumber":56,"Velocity":24,"Duration":2854423,"SoundDuration":2854423,"Delta":674952055},{"NoteNumber":61,"Velocity":28,"Duration":2854423,"SoundDuration":2854423,"Delta":674952055},{"NoteNumber":64,"Velocity":50,"Duration":693481,"SoundDuration":693481,"Delta":677806479},{"NoteNumber":49,"Velocity":34,"Duration":346740,"SoundDuration":346740,"Delta":677806479},{"NoteNumber":56,"Velocity":29,"Duration":346740,"SoundDuration":346740,"Delta":678153220},{"NoteNumber":64,"Velocity":54,"Duration":655738,"SoundDuration":655738,"Delta":678499960},{"NoteNumber":49,"Velocity":33,"Duration":327868,"SoundDuration":327868,"Delta":678499960},{"NoteNumber":56,"Velocity":28,"Duration":327869,"SoundDuration":327869,"Delta":678827829},{"NoteNumber":63,"Velocity":52,"Duration":645618,"SoundDuration":645618,"Delta":679155698},{"NoteNumber":48,"Velocity":33,"Duration":320513,"SoundDuration":320513,"Delta":679155698},{"NoteNumber":56,"Velocity":28,"Duration":325105,"SoundDuration":325105,"Delta":679476211},{"NoteNumber":64,"Velocity":54,"Duration":619569,"SoundDuration":619569,"Delta":679801316},{"NoteNumber":49,"Velocity":33,"Duration":313446,"SoundDuration":313446,"Delta":679801316},{"NoteNumber":56,"Velocity":28,"Duration":306122,"SoundDuration":306122,"Delta":680114763},{"NoteNumber":66,"Velocity":51,"Duration":621325,"SoundDuration":621325,"Delta":680420886},{"NoteNumber":51,"Velocity":34,"Duration":312500,"SoundDuration":312500,"Delta":680420886},{"NoteNumber":56,"Velocity":28,"Duration":308825,"SoundDuration":308825,"Delta":680733386},{"NoteNumber":68,"Velocity":54,"Duration":1866757,"SoundDuration":1866757,"Delta":681042211},{"NoteNumber":52,"Velocity":33,"Duration":322338,"SoundDuration":322338,"Delta":681042211},{"NoteNumber":56,"Velocity":27,"Duration":299999,"SoundDuration":299999,"Delta":681364549},{"NoteNumber":61,"Velocity":30,"Duration":311752,"SoundDuration":311752,"Delta":681664549},{"NoteNumber":56,"Velocity":27,"Duration":310077,"SoundDuration":310077,"Delta":681976302},{"NoteNumber":52,"Velocity":33,"Duration":307363,"SoundDuration":307363,"Delta":682286379},{"NoteNumber":56,"Velocity":28,"Duration":315225,"SoundDuration":315225,"Delta":682593743},{"NoteNumber":68,"Velocity":52,"Duration":627326,"SoundDuration":627326,"Delta":682908969},{"NoteNumber":51,"Velocity":34,"Duration":311515,"SoundDuration":311515,"Delta":682908969},{"NoteNumber":56,"Velocity":29,"Duration":315810,"SoundDuration":315810,"Delta":683220485},{"NoteNumber":68,"Velocity":55,"Duration":311752,"SoundDuration":311752,"Delta":683536295},{"NoteNumber":52,"Velocity":33,"Duration":311752,"SoundDuration":311752,"Delta":683536295},{"NoteNumber":66,"Velocity":52,"Duration":305365,"SoundDuration":305365,"Delta":683848048},{"NoteNumber":56,"Velocity":28,"Duration":305365,"SoundDuration":305365,"Delta":683848048},{"NoteNumber":68,"Velocity":55,"Duration":298507,"SoundDuration":298507,"Delta":684153413},{"NoteNumber":61,"Velocity":31,"Duration":298507,"SoundDuration":298507,"Delta":684153413},{"NoteNumber":69,"Velocity":51,"Duration":309278,"SoundDuration":309278,"Delta":684451921},{"NoteNumber":56,"Velocity":28,"Duration":309278,"SoundDuration":309278,"Delta":684451921},{"NoteNumber":71,"Velocity":55,"Duration":301507,"SoundDuration":301507,"Delta":684761199},{"NoteNumber":53,"Velocity":31,"Duration":301507,"SoundDuration":301507,"Delta":684761199},{"NoteNumber":74,"Velocity":57,"Duration":292683,"SoundDuration":292683,"Delta":685062707},{"NoteNumber":56,"Velocity":25,"Duration":292683,"SoundDuration":292683,"Delta":685062707},{"NoteNumber":73,"Velocity":55,"Duration":303459,"SoundDuration":303459,"Delta":685355390},{"NoteNumber":53,"Velocity":34,"Duration":303459,"SoundDuration":303459,"Delta":685355390},{"NoteNumber":68,"Velocity":53,"Duration":311752,"SoundDuration":311752,"Delta":685658849},{"NoteNumber":61,"Velocity":28,"Duration":311752,"SoundDuration":311752,"Delta":685658849},{"NoteNumber":69,"Velocity":54,"Duration":1800901,"SoundDuration":1800901,"Delta":685970602},{"NoteNumber":54,"Velocity":37,"Duration":300269,"SoundDuration":300269,"Delta":685970602},{"NoteNumber":61,"Velocity":27,"Duration":287081,"SoundDuration":287081,"Delta":686270872},{"NoteNumber":54,"Velocity":31,"Duration":301871,"SoundDuration":301871,"Delta":686557954},{"NoteNumber":62,"Velocity":27,"Duration":291261,"SoundDuration":291261,"Delta":686859825},{"NoteNumber":54,"Velocity":31,"Duration":303459,"SoundDuration":303459,"Delta":687151087},{"NoteNumber":61,"Velocity":25,"Duration":316957,"SoundDuration":316957,"Delta":687454547},{"NoteNumber":69,"Velocity":42,"Duration":603588,"SoundDuration":603588,"Delta":687771504},{"NoteNumber":81,"Velocity":50,"Duration":603588,"SoundDuration":603588,"Delta":687771504},{"NoteNumber":54,"Velocity":34,"Duration":302080,"SoundDuration":302080,"Delta":687771504},{"NoteNumber":60,"Velocity":29,"Duration":301507,"SoundDuration":301507,"Delta":688073585},{"NoteNumber":69,"Velocity":45,"Duration":623613,"SoundDuration":623613,"Delta":688375092},{"NoteNumber":81,"Velocity":54,"Duration":623613,"SoundDuration":623613,"Delta":688375092},{"NoteNumber":54,"Velocity":33,"Duration":308388,"SoundDuration":308388,"Delta":688375092},{"NoteNumber":61,"Velocity":28,"Duration":315225,"SoundDuration":315225,"Delta":688683480},{"NoteNumber":68,"Velocity":44,"Duration":596142,"SoundDuration":596142,"Delta":688998706},{"NoteNumber":80,"Velocity":52,"Duration":596142,"SoundDuration":596142,"Delta":688998706},{"NoteNumber":53,"Velocity":33,"Duration":303459,"SoundDuration":303459,"Delta":688998706},{"NoteNumber":61,"Velocity":28,"Duration":292683,"SoundDuration":292683,"Delta":689302165},{"NoteNumber":69,"Velocity":45,"Duration":597975,"SoundDuration":597975,"Delta":689594848},{"NoteNumber":81,"Velocity":54,"Duration":597975,"SoundDuration":597975,"Delta":689594848},{"NoteNumber":54,"Velocity":33,"Duration":302408,"SoundDuration":302408,"Delta":689594848},{"NoteNumber":61,"Velocity":28,"Duration":295566,"SoundDuration":295566,"Delta":689897257},{"NoteNumber":71,"Velocity":43,"Duration":595624,"SoundDuration":595624,"Delta":690192823},{"NoteNumber":83,"Velocity":51,"Duration":595624,"SoundDuration":595624,"Delta":690192823},{"NoteNumber":56,"Velocity":34,"Duration":301507,"SoundDuration":301507,"Delta":690192823},{"NoteNumber":61,"Velocity":28,"Duration":294117,"SoundDuration":294117,"Delta":690494331},{"NoteNumber":73,"Velocity":45,"Duration":1812088,"SoundDuration":1812088,"Delta":690788448},{"NoteNumber":85,"Velocity":54,"Duration":1812088,"SoundDuration":1812088,"Delta":690788448},{"NoteNumber":57,"Velocity":33,"Duration":301507,"SoundDuration":301507,"Delta":690788448},{"NoteNumber":61,"Velocity":27,"Duration":292683,"SoundDuration":292683,"Delta":691089956},{"NoteNumber":66,"Velocity":31,"Duration":305095,"SoundDuration":305095,"Delta":691382639},{"NoteNumber":61,"Velocity":27,"Duration":294117,"SoundDuration":294117,"Delta":691687734},{"NoteNumber":57,"Velocity":33,"Duration":303459,"SoundDuration":303459,"Delta":691981851},{"NoteNumber":61,"Velocity":28,"Duration":315225,"SoundDuration":315225,"Delta":692285311},{"NoteNumber":73,"Velocity":44,"Duration":612245,"SoundDuration":612245,"Delta":692600536},{"NoteNumber":85,"Velocity":52,"Duration":612245,"SoundDuration":612245,"Delta":692600536},{"NoteNumber":56,"Velocity":34,"Duration":306122,"SoundDuration":306122,"Delta":692600536},{"NoteNumber":61,"Velocity":29,"Duration":306122,"SoundDuration":306122,"Delta":692906659},{"NoteNumber":73,"Velocity":46,"Duration":295566,"SoundDuration":295566,"Delta":693212781},{"NoteNumber":85,"Velocity":55,"Duration":295566,"SoundDuration":295566,"Delta":693212781},{"NoteNumber":57,"Velocity":33,"Duration":295566,"SoundDuration":295566,"Delta":693212781},{"NoteNumber":71,"Velocity":44,"Duration":306717,"SoundDuration":306717,"Delta":693508348},{"NoteNumber":83,"Velocity":52,"Duration":306717,"SoundDuration":306717,"Delta":693508348},{"NoteNumber":61,"Velocity":28,"Duration":306717,"SoundDuration":306717,"Delta":693508348},{"NoteNumber":73,"Velocity":46,"Duration":288461,"SoundDuration":288461,"Delta":693815065},{"NoteNumber":85,"Velocity":55,"Duration":288461,"SoundDuration":288461,"Delta":693815065},{"NoteNumber":66,"Velocity":33,"Duration":288461,"SoundDuration":288461,"Delta":693815065},{"NoteNumber":74,"Velocity":43,"Duration":303459,"SoundDuration":303459,"Delta":694103526},{"NoteNumber":86,"Velocity":51,"Duration":303459,"SoundDuration":303459,"Delta":694103526},{"NoteNumber":61,"Velocity":28,"Duration":303459,"SoundDuration":303459,"Delta":694103526},{"NoteNumber":76,"Velocity":46,"Duration":291261,"SoundDuration":291261,"Delta":694406986},{"NoteNumber":88,"Velocity":55,"Duration":291261,"SoundDuration":291261,"Delta":694406986},{"NoteNumber":58,"Velocity":35,"Duration":291261,"SoundDuration":291261,"Delta":694406986},{"NoteNumber":79,"Velocity":48,"Duration":306717,"SoundDuration":306717,"Delta":694698248},{"NoteNumber":91,"Velocity":57,"Duration":306717,"SoundDuration":306717,"Delta":694698248},{"NoteNumber":61,"Velocity":29,"Duration":306717,"SoundDuration":306717,"Delta":694698248},{"NoteNumber":78,"Velocity":46,"Duration":306717,"SoundDuration":306717,"Delta":695004965},{"NoteNumber":90,"Velocity":55,"Duration":306717,"SoundDuration":306717,"Delta":695004965},{"NoteNumber":58,"Velocity":35,"Duration":306717,"SoundDuration":306717,"Delta":695004965},{"NoteNumber":73,"Velocity":45,"Duration":306716,"SoundDuration":306716,"Delta":695311682},{"NoteNumber":85,"Velocity":53,"Duration":306716,"SoundDuration":306716,"Delta":695311682},{"NoteNumber":66,"Velocity":28,"Duration":306716,"SoundDuration":306716,"Delta":695311682},{"NoteNumber":74,"Velocity":45,"Duration":1803375,"SoundDuration":1803375,"Delta":695618399},{"NoteNumber":86,"Velocity":54,"Duration":1803375,"SoundDuration":1803375,"Delta":695618399},{"NoteNumber":59,"Velocity":37,"Duration":305365,"SoundDuration":305365,"Delta":695618399},{"NoteNumber":66,"Velocity":40,"Duration":291261,"SoundDuration":291261,"Delta":695923764},{"NoteNumber":59,"Velocity":33,"Duration":303459,"SoundDuration":303459,"Delta":696215026},{"NoteNumber":67,"Velocity":39,"Duration":289854,"SoundDuration":289854,"Delta":696518486},{"NoteNumber":59,"Velocity":33,"Duration":306717,"SoundDuration":306717,"Delta":696808341},{"NoteNumber":66,"Velocity":36,"Duration":306716,"SoundDuration":306716,"Delta":697115058},{"NoteNumber":74,"Velocity":54,"Duration":628272,"SoundDuration":628272,"Delta":697421775},{"NoteNumber":86,"Velocity":54,"Duration":628272,"SoundDuration":628272,"Delta":697421775},{"NoteNumber":59,"Velocity":33,"Duration":314135,"SoundDuration":314135,"Delta":697421775},{"NoteNumber":65,"Velocity":29,"Duration":314136,"SoundDuration":314136,"Delta":697735911},{"NoteNumber":73,"Velocity":58,"Duration":915705,"SoundDuration":915705,"Delta":698050047},{"NoteNumber":85,"Velocity":58,"Duration":915705,"SoundDuration":915705,"Delta":698050047},{"NoteNumber":57,"Velocity":35,"Duration":315043,"SoundDuration":315043,"Delta":698050047},{"NoteNumber":66,"Velocity":31,"Duration":305095,"SoundDuration":305095,"Delta":698365091},{"NoteNumber":56,"Velocity":33,"Duration":295566,"SoundDuration":295566,"Delta":698670186},{"NoteNumber":71,"Velocity":54,"Duration":311752,"SoundDuration":311752,"Delta":698965752},{"NoteNumber":83,"Velocity":54,"Duration":311752,"SoundDuration":311752,"Delta":698965752},{"NoteNumber":65,"Velocity":30,"Duration":311752,"SoundDuration":311752,"Delta":698965752},{"NoteNumber":69,"Velocity":54,"Duration":308388,"SoundDuration":308388,"Delta":699277505},{"NoteNumber":81,"Velocity":54,"Duration":308388,"SoundDuration":308388,"Delta":699277505},{"NoteNumber":54,"Velocity":33,"Duration":308388,"SoundDuration":308388,"Delta":699277505},{"NoteNumber":66,"Velocity":30,"Duration":308387,"SoundDuration":308387,"Delta":699585893},{"NoteNumber":69,"Velocity":54,"Duration":616776,"SoundDuration":616776,"Delta":699894281},{"NoteNumber":81,"Velocity":54,"Duration":616776,"SoundDuration":616776,"Delta":699894281},{"NoteNumber":51,"Velocity":33,"Duration":308388,"SoundDuration":308388,"Delta":699894281},{"NoteNumber":60,"Velocity":29,"Duration":308388,"SoundDuration":308388,"Delta":700202669},{"NoteNumber":68,"Velocity":57,"Duration":905535,"SoundDuration":905535,"Delta":700511057},{"NoteNumber":80,"Velocity":57,"Duration":905535,"SoundDuration":905535,"Delta":700511057},{"NoteNumber":52,"Velocity":36,"Duration":308387,"SoundDuration":308387,"Delta":700511057},{"NoteNumber":61,"Velocity":30,"Duration":294117,"SoundDuration":294117,"Delta":700819445},{"NoteNumber":48,"Velocity":33,"Duration":303030,"SoundDuration":303030,"Delta":701113563},{"NoteNumber":66,"Velocity":52,"Duration":316957,"SoundDuration":316957,"Delta":701416593},{"NoteNumber":78,"Velocity":52,"Duration":316957,"SoundDuration":316957,"Delta":701416593},{"NoteNumber":57,"Velocity":29,"Duration":316957,"SoundDuration":316957,"Delta":701416593},{"NoteNumber":64,"Velocity":54,"Duration":304568,"SoundDuration":304568,"Delta":701733550},{"NoteNumber":76,"Velocity":54,"Duration":304568,"SoundDuration":304568,"Delta":701733550},{"NoteNumber":49,"Velocity":33,"Duration":304568,"SoundDuration":304568,"Delta":701733550},{"NoteNumber":56,"Velocity":29,"Duration":304568,"SoundDuration":304568,"Delta":702038119},{"NoteNumber":64,"Velocity":51,"Duration":621761,"SoundDuration":621761,"Delta":702342687},{"NoteNumber":76,"Velocity":51,"Duration":621761,"SoundDuration":621761,"Delta":702342687},{"NoteNumber":52,"Velocity":33,"Duration":310880,"SoundDuration":310880,"Delta":702342687},{"NoteNumber":56,"Velocity":30,"Duration":310880,"SoundDuration":310880,"Delta":702653568},{"NoteNumber":62,"Velocity":54,"Duration":616775,"SoundDuration":616775,"Delta":702964449},{"NoteNumber":74,"Velocity":54,"Duration":616775,"SoundDuration":616775,"Delta":702964449},{"NoteNumber":54,"Velocity":33,"Duration":308388,"SoundDuration":308388,"Delta":702964449},{"NoteNumber":57,"Velocity":30,"Duration":308387,"SoundDuration":308387,"Delta":703272837},{"NoteNumber":66,"Velocity":50,"Duration":633914,"SoundDuration":633914,"Delta":703581225},{"NoteNumber":78,"Velocity":50,"Duration":633914,"SoundDuration":633914,"Delta":703581225},{"NoteNumber":54,"Velocity":34,"Duration":316957,"SoundDuration":316957,"Delta":703581225},{"NoteNumber":57,"Velocity":30,"Duration":316957,"SoundDuration":316957,"Delta":703898182},{"NoteNumber":61,"Velocity":54,"Duration":620154,"SoundDuration":620154,"Delta":704215139},{"NoteNumber":73,"Velocity":54,"Duration":620154,"SoundDuration":620154,"Delta":704215139},{"NoteNumber":44,"Velocity":35,"Duration":310077,"SoundDuration":310077,"Delta":704215139},{"NoteNumber":52,"Velocity":35,"Duration":310077,"SoundDuration":310077,"Delta":704215139},{"NoteNumber":56,"Velocity":31,"Duration":310077,"SoundDuration":310077,"Delta":704525217},{"NoteNumber":60,"Velocity":52,"Duration":659630,"SoundDuration":659630,"Delta":704835294},{"NoteNumber":72,"Velocity":52,"Duration":659630,"SoundDuration":659630,"Delta":704835294},{"NoteNumber":44,"Velocity":35,"Duration":329815,"SoundDuration":329815,"Delta":704835294},{"NoteNumber":51,"Velocity":35,"Duration":329815,"SoundDuration":329815,"Delta":704835294},{"NoteNumber":56,"Velocity":33,"Duration":329815,"SoundDuration":329815,"Delta":705165110},{"NoteNumber":62,"Velocity":62,"Duration":1823990,"SoundDuration":1823990,"Delta":705494925},{"NoteNumber":74,"Velocity":62,"Duration":1823990,"SoundDuration":1823990,"Delta":705494925},{"NoteNumber":42,"Velocity":39,"Duration":313446,"SoundDuration":313446,"Delta":705494925},{"NoteNumber":50,"Velocity":39,"Duration":313446,"SoundDuration":313446,"Delta":705494925},{"NoteNumber":57,"Velocity":29,"Duration":294117,"SoundDuration":294117,"Delta":705808372},{"NoteNumber":54,"Velocity":35,"Duration":308388,"SoundDuration":308388,"Delta":706102490},{"NoteNumber":57,"Velocity":31,"Duration":291261,"SoundDuration":291261,"Delta":706410878},{"NoteNumber":54,"Velocity":36,"Duration":308388,"SoundDuration":308388,"Delta":706702140},{"NoteNumber":57,"Velocity":33,"Duration":308387,"SoundDuration":308387,"Delta":707010528},{"NoteNumber":64,"Velocity":54,"Duration":305095,"SoundDuration":305095,"Delta":707318916},{"NoteNumber":76,"Velocity":54,"Duration":305095,"SoundDuration":305095,"Delta":707318916},{"NoteNumber":50,"Velocity":31,"Duration":305095,"SoundDuration":305095,"Delta":707318916},{"NoteNumber":66,"Velocity":49,"Duration":318708,"SoundDuration":318708,"Delta":707624011},{"NoteNumber":78,"Velocity":49,"Duration":318708,"SoundDuration":318708,"Delta":707624011},{"NoteNumber":57,"Velocity":27,"Duration":318708,"SoundDuration":318708,"Delta":707624011},{"NoteNumber":68,"Velocity":57,"Duration":623506,"SoundDuration":623506,"Delta":707942719},{"NoteNumber":80,"Velocity":57,"Duration":623506,"SoundDuration":623506,"Delta":707942719},{"NoteNumber":52,"Velocity":33,"Duration":311752,"SoundDuration":311752,"Delta":707942719},{"NoteNumber":56,"Velocity":28,"Duration":311753,"SoundDuration":311753,"Delta":708254472},{"NoteNumber":69,"Velocity":55,"Duration":637416,"SoundDuration":637416,"Delta":708566225},{"NoteNumber":81,"Velocity":55,"Duration":637416,"SoundDuration":637416,"Delta":708566225},{"NoteNumber":54,"Velocity":33,"Duration":318708,"SoundDuration":318708,"Delta":708566225},{"NoteNumber":56,"Velocity":28,"Duration":318708,"SoundDuration":318708,"Delta":708884933},{"NoteNumber":61,"Velocity":54,"Duration":637415,"SoundDuration":637415,"Delta":709203641},{"NoteNumber":73,"Velocity":54,"Duration":637415,"SoundDuration":637415,"Delta":709203641},{"NoteNumber":44,"Velocity":33,"Duration":318708,"SoundDuration":318708,"Delta":709203641},{"NoteNumber":52,"Velocity":33,"Duration":318708,"SoundDuration":318708,"Delta":709203641},{"NoteNumber":56,"Velocity":28,"Duration":318707,"SoundDuration":318707,"Delta":709522349},{"NoteNumber":60,"Velocity":52,"Duration":637416,"SoundDuration":637416,"Delta":709841057},{"NoteNumber":72,"Velocity":52,"Duration":637416,"SoundDuration":637416,"Delta":709841057},{"NoteNumber":44,"Velocity":33,"Duration":318708,"SoundDuration":318708,"Delta":709841057},{"NoteNumber":54,"Velocity":33,"Duration":318708,"SoundDuration":318708,"Delta":709841057},{"NoteNumber":56,"Velocity":29,"Duration":318708,"SoundDuration":318708,"Delta":710159765},{"NoteNumber":73,"Velocity":60,"Duration":212811,"SoundDuration":212811,"Delta":710478473},{"NoteNumber":45,"Velocity":32,"Duration":1197357,"SoundDuration":1197357,"Delta":710478473},{"NoteNumber":52,"Velocity":32,"Duration":1197357,"SoundDuration":1197357,"Delta":710478473},{"NoteNumber":57,"Velocity":38,"Duration":1197357,"SoundDuration":1197357,"Delta":710478473},{"NoteNumber":85,"Velocity":49,"Duration":204320,"SoundDuration":204320,"Delta":710691284},{"NoteNumber":81,"Velocity":49,"Duration":97914,"SoundDuration":97914,"Delta":710895604},{"NoteNumber":76,"Velocity":53,"Duration":97399,"SoundDuration":97399,"Delta":711091433},{"NoteNumber":73,"Velocity":48,"Duration":97399,"SoundDuration":97399,"Delta":711286232},{"NoteNumber":69,"Velocity":46,"Duration":97399,"SoundDuration":97399,"Delta":711481031},{"NoteNumber":64,"Velocity":51,"Duration":197960,"SoundDuration":197960,"Delta":711675830},{"NoteNumber":49,"Velocity":35,"Duration":296941,"SoundDuration":296941,"Delta":711675830},{"NoteNumber":61,"Velocity":46,"Duration":197961,"SoundDuration":197961,"Delta":711873791},{"NoteNumber":57,"Velocity":46,"Duration":197960,"SoundDuration":197960,"Delta":712071752},{"NoteNumber":61,"Velocity":53,"Duration":203417,"SoundDuration":203417,"Delta":712269713},{"NoteNumber":52,"Velocity":35,"Duration":305125,"SoundDuration":305125,"Delta":712269713},{"NoteNumber":64,"Velocity":50,"Duration":203417,"SoundDuration":203417,"Delta":712473131},{"NoteNumber":69,"Velocity":50,"Duration":203417,"SoundDuration":203417,"Delta":712676548},{"NoteNumber":73,"Velocity":57,"Duration":201207,"SoundDuration":201207,"Delta":712879965},{"NoteNumber":45,"Velocity":32,"Duration":1175337,"SoundDuration":1175337,"Delta":712879965},{"NoteNumber":52,"Velocity":32,"Duration":1175337,"SoundDuration":1175337,"Delta":712879965},{"NoteNumber":57,"Velocity":38,"Duration":1175337,"SoundDuration":1175337,"Delta":712879965},{"NoteNumber":85,"Velocity":49,"Duration":196980,"SoundDuration":196980,"Delta":713081173},{"NoteNumber":81,"Velocity":49,"Duration":96376,"SoundDuration":96376,"Delta":713278153},{"NoteNumber":76,"Velocity":53,"Duration":97399,"SoundDuration":97399,"Delta":713470905},{"NoteNumber":73,"Velocity":48,"Duration":97399,"SoundDuration":97399,"Delta":713665704},{"NoteNumber":69,"Velocity":46,"Duration":97399,"SoundDuration":97399,"Delta":713860503},{"NoteNumber":64,"Velocity":51,"Duration":197960,"SoundDuration":197960,"Delta":714055302},{"NoteNumber":49,"Velocity":35,"Duration":296941,"SoundDuration":296941,"Delta":714055302},{"NoteNumber":61,"Velocity":46,"Duration":197961,"SoundDuration":197961,"Delta":714253263},{"NoteNumber":57,"Velocity":46,"Duration":197960,"SoundDuration":197960,"Delta":714451224},{"NoteNumber":61,"Velocity":53,"Duration":203417,"SoundDuration":203417,"Delta":714649185},{"NoteNumber":52,"Velocity":35,"Duration":305125,"SoundDuration":305125,"Delta":714649185},{"NoteNumber":64,"Velocity":50,"Duration":203417,"SoundDuration":203417,"Delta":714852603},{"NoteNumber":69,"Velocity":50,"Duration":203417,"SoundDuration":203417,"Delta":715056020},{"NoteNumber":73,"Velocity":53,"Duration":200194,"SoundDuration":200194,"Delta":715259437},{"NoteNumber":45,"Velocity":35,"Duration":300566,"SoundDuration":300566,"Delta":715259437},{"NoteNumber":69,"Velocity":48,"Duration":200742,"SoundDuration":200742,"Delta":715459632},{"NoteNumber":64,"Velocity":48,"Duration":200742,"SoundDuration":200742,"Delta":715660375},{"NoteNumber":76,"Velocity":53,"Duration":597990,"SoundDuration":597990,"Delta":715861117},{"NoteNumber":52,"Velocity":28,"Duration":1789294,"SoundDuration":1789294,"Delta":715861117},{"NoteNumber":61,"Velocity":33,"Duration":597990,"SoundDuration":597990,"Delta":715861117},{"NoteNumber":69,"Velocity":47,"Duration":196425,"SoundDuration":196425,"Delta":716058622},{"NoteNumber":64,"Velocity":45,"Duration":204060,"SoundDuration":204060,"Delta":716255047},{"NoteNumber":77,"Velocity":55,"Duration":595651,"SoundDuration":595651,"Delta":716459107},{"NoteNumber":74,"Velocity":46,"Duration":198550,"SoundDuration":198550,"Delta":716459107},{"NoteNumber":59,"Velocity":35,"Duration":595651,"SoundDuration":595651,"Delta":716459107},{"NoteNumber":68,"Velocity":42,"Duration":198550,"SoundDuration":198550,"Delta":716657658},{"NoteNumber":65,"Velocity":41,"Duration":198550,"SoundDuration":198550,"Delta":716856209},{"NoteNumber":76,"Velocity":55,"Duration":595651,"SoundDuration":595651,"Delta":717054759},{"NoteNumber":71,"Velocity":46,"Duration":198550,"SoundDuration":198550,"Delta":717054759},{"NoteNumber":62,"Velocity":32,"Duration":595651,"SoundDuration":595651,"Delta":717054759},{"NoteNumber":68,"Velocity":42,"Duration":198550,"SoundDuration":198550,"Delta":717253310},{"NoteNumber":64,"Velocity":42,"Duration":198550,"SoundDuration":198550,"Delta":717451861},{"NoteNumber":73,"Velocity":53,"Duration":601679,"SoundDuration":601679,"Delta":717650411},{"NoteNumber":45,"Velocity":35,"Duration":300566,"SoundDuration":300566,"Delta":717650411},{"NoteNumber":69,"Velocity":48,"Duration":200742,"SoundDuration":200742,"Delta":717850606},{"NoteNumber":64,"Velocity":48,"Duration":200742,"SoundDuration":200742,"Delta":718051349},{"NoteNumber":76,"Velocity":53,"Duration":597990,"SoundDuration":597990,"Delta":718252091},{"NoteNumber":52,"Velocity":28,"Duration":1789294,"SoundDuration":1789294,"Delta":718252091},{"NoteNumber":61,"Velocity":33,"Duration":597990,"SoundDuration":597990,"Delta":718252091},{"NoteNumber":69,"Velocity":47,"Duration":196425,"SoundDuration":196425,"Delta":718449596},{"NoteNumber":64,"Velocity":45,"Duration":204060,"SoundDuration":204060,"Delta":718646021},{"NoteNumber":77,"Velocity":55,"Duration":595651,"SoundDuration":595651,"Delta":718850081},{"NoteNumber":74,"Velocity":46,"Duration":198550,"SoundDuration":198550,"Delta":718850081},{"NoteNumber":59,"Velocity":35,"Duration":595651,"SoundDuration":595651,"Delta":718850081},{"NoteNumber":68,"Velocity":42,"Duration":198550,"SoundDuration":198550,"Delta":719048632},{"NoteNumber":65,"Velocity":41,"Duration":198550,"SoundDuration":198550,"Delta":719247183},{"NoteNumber":76,"Velocity":55,"Duration":595651,"SoundDuration":595651,"Delta":719445733},{"NoteNumber":71,"Velocity":46,"Duration":198550,"SoundDuration":198550,"Delta":719445733},{"NoteNumber":62,"Velocity":32,"Duration":595651,"SoundDuration":595651,"Delta":719445733},{"NoteNumber":68,"Velocity":42,"Duration":198550,"SoundDuration":198550,"Delta":719644284},{"NoteNumber":64,"Velocity":42,"Duration":198550,"SoundDuration":198550,"Delta":719842835},{"NoteNumber":73,"Velocity":77,"Duration":196637,"SoundDuration":196637,"Delta":720041385},{"NoteNumber":45,"Velocity":38,"Duration":1171955,"SoundDuration":1171955,"Delta":720041385},{"NoteNumber":52,"Velocity":38,"Duration":1171955,"SoundDuration":1171955,"Delta":720041385},{"NoteNumber":57,"Velocity":45,"Duration":1171955,"SoundDuration":1171955,"Delta":720041385},{"NoteNumber":85,"Velocity":68,"Duration":196099,"SoundDuration":196099,"Delta":720238023},{"NoteNumber":81,"Velocity":58,"Duration":97780,"SoundDuration":97780,"Delta":720434122},{"NoteNumber":76,"Velocity":63,"Duration":97276,"SoundDuration":97276,"Delta":720629682},{"NoteNumber":73,"Velocity":57,"Duration":97276,"SoundDuration":97276,"Delta":720824235},{"NoteNumber":69,"Velocity":55,"Duration":97276,"SoundDuration":97276,"Delta":721018788},{"NoteNumber":64,"Velocity":61,"Duration":197686,"SoundDuration":197686,"Delta":721213340},{"NoteNumber":49,"Velocity":37,"Duration":296530,"SoundDuration":296530,"Delta":721213340},{"NoteNumber":61,"Velocity":55,"Duration":197686,"SoundDuration":197686,"Delta":721411027},{"NoteNumber":57,"Velocity":55,"Duration":197687,"SoundDuration":197687,"Delta":721608714},{"NoteNumber":61,"Velocity":63,"Duration":203128,"SoundDuration":203128,"Delta":721806401},{"NoteNumber":52,"Velocity":37,"Duration":304692,"SoundDuration":304692,"Delta":721806401},{"NoteNumber":64,"Velocity":56,"Duration":203128,"SoundDuration":203128,"Delta":722009530},{"NoteNumber":69,"Velocity":57,"Duration":203128,"SoundDuration":203128,"Delta":722212658},{"NoteNumber":73,"Velocity":59,"Duration":196637,"SoundDuration":196637,"Delta":722415786},{"NoteNumber":46,"Velocity":37,"Duration":294955,"SoundDuration":294955,"Delta":722415786},{"NoteNumber":67,"Velocity":56,"Duration":196637,"SoundDuration":196637,"Delta":722612424},{"NoteNumber":64,"Velocity":56,"Duration":196637,"SoundDuration":196637,"Delta":722809061},{"NoteNumber":76,"Velocity":63,"Duration":197686,"SoundDuration":197686,"Delta":723005698},{"NoteNumber":49,"Velocity":37,"Duration":296530,"SoundDuration":296530,"Delta":723005698},{"NoteNumber":70,"Velocity":58,"Duration":197686,"SoundDuration":197686,"Delta":723203385},{"NoteNumber":67,"Velocity":58,"Duration":197687,"SoundDuration":197687,"Delta":723401072},{"NoteNumber":82,"Velocity":66,"Duration":197686,"SoundDuration":197686,"Delta":723598759},{"NoteNumber":43,"Velocity":42,"Duration":296530,"SoundDuration":296530,"Delta":723598759},{"NoteNumber":76,"Velocity":58,"Duration":197686,"SoundDuration":197686,"Delta":723796446},{"NoteNumber":73,"Velocity":60,"Duration":197686,"SoundDuration":197686,"Delta":723994133},{"NoteNumber":79,"Velocity":63,"Duration":197687,"SoundDuration":197687,"Delta":724191820},{"NoteNumber":51,"Velocity":37,"Duration":296530,"SoundDuration":296530,"Delta":724191820},{"NoteNumber":75,"Velocity":58,"Duration":197686,"SoundDuration":197686,"Delta":724389507},{"NoteNumber":73,"Velocity":58,"Duration":197686,"SoundDuration":197686,"Delta":724587194},{"NoteNumber":71,"Velocity":69,"Duration":212811,"SoundDuration":212811,"Delta":724784881},{"NoteNumber":44,"Velocity":32,"Duration":1197357,"SoundDuration":1197357,"Delta":724784881},{"NoteNumber":51,"Velocity":32,"Duration":1197357,"SoundDuration":1197357,"Delta":724784881},{"NoteNumber":56,"Velocity":38,"Duration":1197357,"SoundDuration":1197357,"Delta":724784881},{"NoteNumber":83,"Velocity":49,"Duration":204320,"SoundDuration":204320,"Delta":724997693},{"NoteNumber":80,"Velocity":49,"Duration":97914,"SoundDuration":97914,"Delta":725202013},{"NoteNumber":75,"Velocity":53,"Duration":97399,"SoundDuration":97399,"Delta":725397842},{"NoteNumber":71,"Velocity":48,"Duration":97399,"SoundDuration":97399,"Delta":725592641},{"NoteNumber":68,"Velocity":46,"Duration":97399,"SoundDuration":97399,"Delta":725787440},{"NoteNumber":63,"Velocity":51,"Duration":197960,"SoundDuration":197960,"Delta":725982239},{"NoteNumber":47,"Velocity":35,"Duration":296941,"SoundDuration":296941,"Delta":725982239},{"NoteNumber":59,"Velocity":46,"Duration":197961,"SoundDuration":197961,"Delta":726180200},{"NoteNumber":56,"Velocity":46,"Duration":197960,"SoundDuration":197960,"Delta":726378161},{"NoteNumber":59,"Velocity":53,"Duration":203417,"SoundDuration":203417,"Delta":726576122},{"NoteNumber":51,"Velocity":35,"Duration":305125,"SoundDuration":305125,"Delta":726576122},{"NoteNumber":63,"Velocity":50,"Duration":203417,"SoundDuration":203417,"Delta":726779539},{"NoteNumber":68,"Velocity":50,"Duration":203417,"SoundDuration":203417,"Delta":726982957},{"NoteNumber":71,"Velocity":67,"Duration":201207,"SoundDuration":201207,"Delta":727186374},{"NoteNumber":44,"Velocity":32,"Duration":1175337,"SoundDuration":1175337,"Delta":727186374},{"NoteNumber":51,"Velocity":32,"Duration":1175337,"SoundDuration":1175337,"Delta":727186374},{"NoteNumber":56,"Velocity":38,"Duration":1175337,"SoundDuration":1175337,"Delta":727186374},{"NoteNumber":83,"Velocity":49,"Duration":196980,"SoundDuration":196980,"Delta":727387581},{"NoteNumber":80,"Velocity":49,"Duration":96376,"SoundDuration":96376,"Delta":727584561},{"NoteNumber":75,"Velocity":53,"Duration":97399,"SoundDuration":97399,"Delta":727777314},{"NoteNumber":71,"Velocity":48,"Duration":97399,"SoundDuration":97399,"Delta":727972113},{"NoteNumber":68,"Velocity":46,"Duration":97399,"SoundDuration":97399,"Delta":728166912},{"NoteNumber":63,"Velocity":51,"Duration":197960,"SoundDuration":197960,"Delta":728361711},{"NoteNumber":47,"Velocity":35,"Duration":296941,"SoundDuration":296941,"Delta":728361711},{"NoteNumber":59,"Velocity":46,"Duration":197961,"SoundDuration":197961,"Delta":728559672},{"NoteNumber":56,"Velocity":46,"Duration":197960,"SoundDuration":197960,"Delta":728757633},{"NoteNumber":59,"Velocity":53,"Duration":203417,"SoundDuration":203417,"Delta":728955594},{"NoteNumber":51,"Velocity":35,"Duration":305125,"SoundDuration":305125,"Delta":728955594},{"NoteNumber":63,"Velocity":50,"Duration":203417,"SoundDuration":203417,"Delta":729159011},{"NoteNumber":68,"Velocity":50,"Duration":203417,"SoundDuration":203417,"Delta":729362429},{"NoteNumber":71,"Velocity":55,"Duration":203396,"SoundDuration":203396,"Delta":729565846},{"NoteNumber":44,"Velocity":36,"Duration":304822,"SoundDuration":304822,"Delta":729565846},{"NoteNumber":68,"Velocity":52,"Duration":202578,"SoundDuration":202578,"Delta":729769243},{"NoteNumber":63,"Velocity":52,"Duration":201776,"SoundDuration":201776,"Delta":729971821},{"NoteNumber":75,"Velocity":60,"Duration":200713,"SoundDuration":200713,"Delta":730173598},{"NoteNumber":47,"Velocity":40,"Duration":300803,"SoundDuration":300803,"Delta":730173598},{"NoteNumber":71,"Velocity":56,"Duration":199915,"SoundDuration":199915,"Delta":730374312},{"NoteNumber":68,"Velocity":56,"Duration":198867,"SoundDuration":198867,"Delta":730574228},{"NoteNumber":80,"Velocity":65,"Duration":198098,"SoundDuration":198098,"Delta":730773096},{"NoteNumber":41,"Velocity":44,"Duration":297660,"SoundDuration":297660,"Delta":730773096},{"NoteNumber":74,"Velocity":59,"Duration":199123,"SoundDuration":199123,"Delta":730971194},{"NoteNumber":71,"Velocity":59,"Duration":199916,"SoundDuration":199916,"Delta":731170318},{"NoteNumber":82,"Velocity":70,"Duration":200980,"SoundDuration":200980,"Delta":731370234},{"NoteNumber":78,"Velocity":70,"Duration":200980,"SoundDuration":200980,"Delta":731370234},{"NoteNumber":42,"Velocity":48,"Duration":301604,"SoundDuration":301604,"Delta":731370234},{"NoteNumber":76,"Velocity":63,"Duration":201776,"SoundDuration":201776,"Delta":731571215},{"NoteNumber":73,"Velocity":63,"Duration":202851,"SoundDuration":202851,"Delta":731772992},{"NoteNumber":75,"Velocity":86,"Duration":201207,"SoundDuration":201207,"Delta":731975843},{"NoteNumber":35,"Velocity":47,"Duration":1175337,"SoundDuration":1175337,"Delta":731975843},{"NoteNumber":42,"Velocity":47,"Duration":1175337,"SoundDuration":1175337,"Delta":731975843},{"NoteNumber":47,"Velocity":56,"Duration":1175337,"SoundDuration":1175337,"Delta":731975843},{"NoteNumber":87,"Velocity":78,"Duration":196980,"SoundDuration":196980,"Delta":732177051},{"NoteNumber":83,"Velocity":57,"Duration":192752,"SoundDuration":192752,"Delta":732374031},{"NoteNumber":78,"Velocity":65,"Duration":194798,"SoundDuration":194798,"Delta":732566783},{"NoteNumber":75,"Velocity":56,"Duration":194798,"SoundDuration":194798,"Delta":732761582},{"NoteNumber":71,"Velocity":50,"Duration":194798,"SoundDuration":194798,"Delta":732956381},{"NoteNumber":66,"Velocity":51,"Duration":197960,"SoundDuration":197960,"Delta":733151180},{"NoteNumber":39,"Velocity":35,"Duration":296941,"SoundDuration":296941,"Delta":733151180},{"NoteNumber":63,"Velocity":46,"Duration":197961,"SoundDuration":197961,"Delta":733349141},{"NoteNumber":59,"Velocity":46,"Duration":197960,"SoundDuration":197960,"Delta":733547102},{"NoteNumber":63,"Velocity":53,"Duration":203417,"SoundDuration":203417,"Delta":733745063},{"NoteNumber":42,"Velocity":35,"Duration":305125,"SoundDuration":305125,"Delta":733745063},{"NoteNumber":66,"Velocity":50,"Duration":203417,"SoundDuration":203417,"Delta":733948481},{"NoteNumber":71,"Velocity":50,"Duration":203417,"SoundDuration":203417,"Delta":734151898},{"NoteNumber":75,"Velocity":79,"Duration":201207,"SoundDuration":201207,"Delta":734355315},{"NoteNumber":35,"Velocity":47,"Duration":1175337,"SoundDuration":1175337,"Delta":734355315},{"NoteNumber":42,"Velocity":47,"Duration":1175337,"SoundDuration":1175337,"Delta":734355315},{"NoteNumber":47,"Velocity":56,"Duration":1175337,"SoundDuration":1175337,"Delta":734355315},{"NoteNumber":87,"Velocity":66,"Duration":196980,"SoundDuration":196980,"Delta":734556523},{"NoteNumber":83,"Velocity":57,"Duration":192752,"SoundDuration":192752,"Delta":734753503},{"NoteNumber":78,"Velocity":65,"Duration":194798,"SoundDuration":194798,"Delta":734946255},{"NoteNumber":75,"Velocity":56,"Duration":194798,"SoundDuration":194798,"Delta":735141054},{"NoteNumber":71,"Velocity":50,"Duration":194798,"SoundDuration":194798,"Delta":735335853},{"NoteNumber":66,"Velocity":51,"Duration":197960,"SoundDuration":197960,"Delta":735530652},{"NoteNumber":39,"Velocity":35,"Duration":296941,"SoundDuration":296941,"Delta":735530652},{"NoteNumber":63,"Velocity":46,"Duration":197961,"SoundDuration":197961,"Delta":735728613},{"NoteNumber":59,"Velocity":46,"Duration":197960,"SoundDuration":197960,"Delta":735926574},{"NoteNumber":63,"Velocity":53,"Duration":203417,"SoundDuration":203417,"Delta":736124535},{"NoteNumber":42,"Velocity":35,"Duration":305125,"SoundDuration":305125,"Delta":736124535},{"NoteNumber":66,"Velocity":50,"Duration":203417,"SoundDuration":203417,"Delta":736327953},{"NoteNumber":71,"Velocity":50,"Duration":203417,"SoundDuration":203417,"Delta":736531370},{"NoteNumber":75,"Velocity":53,"Duration":200194,"SoundDuration":200194,"Delta":736734787},{"NoteNumber":35,"Velocity":35,"Duration":300566,"SoundDuration":300566,"Delta":736734787},{"NoteNumber":71,"Velocity":48,"Duration":200742,"SoundDuration":200742,"Delta":736934982},{"NoteNumber":66,"Velocity":48,"Duration":200742,"SoundDuration":200742,"Delta":737135725},{"NoteNumber":78,"Velocity":53,"Duration":597990,"SoundDuration":597990,"Delta":737336467},{"NoteNumber":54,"Velocity":28,"Duration":1789294,"SoundDuration":1789294,"Delta":737336467},{"NoteNumber":63,"Velocity":33,"Duration":597990,"SoundDuration":597990,"Delta":737336467},{"NoteNumber":71,"Velocity":47,"Duration":196425,"SoundDuration":196425,"Delta":737533972},{"NoteNumber":66,"Velocity":45,"Duration":204060,"SoundDuration":204060,"Delta":737730397},{"NoteNumber":79,"Velocity":55,"Duration":595651,"SoundDuration":595651,"Delta":737934458},{"NoteNumber":76,"Velocity":46,"Duration":198550,"SoundDuration":198550,"Delta":737934458},{"NoteNumber":61,"Velocity":35,"Duration":595651,"SoundDuration":595651,"Delta":737934458},{"NoteNumber":70,"Velocity":42,"Duration":198550,"SoundDuration":198550,"Delta":738133008},{"NoteNumber":67,"Velocity":41,"Duration":198550,"SoundDuration":198550,"Delta":738331559},{"NoteNumber":78,"Velocity":55,"Duration":595651,"SoundDuration":595651,"Delta":738530110},{"NoteNumber":73,"Velocity":46,"Duration":198550,"SoundDuration":198550,"Delta":738530110},{"NoteNumber":64,"Velocity":32,"Duration":595651,"SoundDuration":595651,"Delta":738530110},{"NoteNumber":70,"Velocity":42,"Duration":198550,"SoundDuration":198550,"Delta":738728660},{"NoteNumber":66,"Velocity":42,"Duration":198550,"SoundDuration":198550,"Delta":738927211},{"NoteNumber":75,"Velocity":53,"Duration":601679,"SoundDuration":601679,"Delta":739125762},{"NoteNumber":47,"Velocity":35,"Duration":300566,"SoundDuration":300566,"Delta":739125762},{"NoteNumber":71,"Velocity":48,"Duration":200742,"SoundDuration":200742,"Delta":739325956},{"NoteNumber":66,"Velocity":48,"Duration":200742,"SoundDuration":200742,"Delta":739526699},{"NoteNumber":78,"Velocity":53,"Duration":597990,"SoundDuration":597990,"Delta":739727442},{"NoteNumber":75,"Velocity":46,"Duration":197504,"SoundDuration":197504,"Delta":739727442},{"NoteNumber":54,"Velocity":28,"Duration":1789294,"SoundDuration":1789294,"Delta":739727442},{"NoteNumber":63,"Velocity":33,"Duration":597990,"SoundDuration":597990,"Delta":739727442},{"NoteNumber":71,"Velocity":47,"Duration":196425,"SoundDuration":196425,"Delta":739924946},{"NoteNumber":66,"Velocity":45,"Duration":204060,"SoundDuration":204060,"Delta":740121371},{"NoteNumber":79,"Velocity":55,"Duration":595651,"SoundDuration":595651,"Delta":740325432},{"NoteNumber":76,"Velocity":46,"Duration":198550,"SoundDuration":198550,"Delta":740325432},{"NoteNumber":61,"Velocity":35,"Duration":595651,"SoundDuration":595651,"Delta":740325432},{"NoteNumber":70,"Velocity":42,"Duration":198550,"SoundDuration":198550,"Delta":740523982},{"NoteNumber":67,"Velocity":41,"Duration":198550,"SoundDuration":198550,"Delta":740722533},{"NoteNumber":78,"Velocity":55,"Duration":595651,"SoundDuration":595651,"Delta":740921084},{"NoteNumber":73,"Velocity":46,"Duration":198550,"SoundDuration":198550,"Delta":740921084},{"NoteNumber":64,"Velocity":32,"Duration":595651,"SoundDuration":595651,"Delta":740921084},{"NoteNumber":70,"Velocity":42,"Duration":198550,"SoundDuration":198550,"Delta":741119634},{"NoteNumber":66,"Velocity":42,"Duration":198550,"SoundDuration":198550,"Delta":741318185},{"NoteNumber":75,"Velocity":79,"Duration":196637,"SoundDuration":196637,"Delta":741516736},{"NoteNumber":47,"Velocity":45,"Duration":1171955,"SoundDuration":1171955,"Delta":741516736},{"NoteNumber":54,"Velocity":45,"Duration":1171955,"SoundDuration":1171955,"Delta":741516736},{"NoteNumber":59,"Velocity":53,"Duration":1171955,"SoundDuration":1171955,"Delta":741516736},{"NoteNumber":87,"Velocity":70,"Duration":196099,"SoundDuration":196099,"Delta":741713373},{"NoteNumber":83,"Velocity":62,"Duration":195560,"SoundDuration":195560,"Delta":741909472},{"NoteNumber":78,"Velocity":69,"Duration":194552,"SoundDuration":194552,"Delta":742105033},{"NoteNumber":75,"Velocity":64,"Duration":194552,"SoundDuration":194552,"Delta":742299585},{"NoteNumber":71,"Velocity":63,"Duration":194552,"SoundDuration":194552,"Delta":742494138},{"NoteNumber":66,"Velocity":73,"Duration":197686,"SoundDuration":197686,"Delta":742688691},{"NoteNumber":51,"Velocity":42,"Duration":296530,"SoundDuration":296530,"Delta":742688691},{"NoteNumber":63,"Velocity":66,"Duration":197686,"SoundDuration":197686,"Delta":742886378},{"NoteNumber":59,"Velocity":66,"Duration":197687,"SoundDuration":197687,"Delta":743084065},{"NoteNumber":63,"Velocity":70,"Duration":203128,"SoundDuration":203128,"Delta":743281752},{"NoteNumber":54,"Velocity":42,"Duration":304692,"SoundDuration":304692,"Delta":743281752},{"NoteNumber":66,"Velocity":67,"Duration":203128,"SoundDuration":203128,"Delta":743484880},{"NoteNumber":71,"Velocity":68,"Duration":203128,"SoundDuration":203128,"Delta":743688008},{"NoteNumber":75,"Velocity":70,"Duration":196637,"SoundDuration":196637,"Delta":743891137},{"NoteNumber":48,"Velocity":50,"Duration":294955,"SoundDuration":294955,"Delta":743891137},{"NoteNumber":69,"Velocity":67,"Duration":196637,"SoundDuration":196637,"Delta":744087774},{"NoteNumber":66,"Velocity":67,"Duration":196637,"SoundDuration":196637,"Delta":744284411},{"NoteNumber":78,"Velocity":75,"Duration":197686,"SoundDuration":197686,"Delta":744481049},{"NoteNumber":51,"Velocity":41,"Duration":296530,"SoundDuration":296530,"Delta":744481049},{"NoteNumber":72,"Velocity":69,"Duration":197686,"SoundDuration":197686,"Delta":744678736},{"NoteNumber":69,"Velocity":69,"Duration":197687,"SoundDuration":197687,"Delta":744876423},{"NoteNumber":84,"Velocity":76,"Duration":197686,"SoundDuration":197686,"Delta":745074110},{"NoteNumber":45,"Velocity":50,"Duration":296530,"SoundDuration":296530,"Delta":745074110},{"NoteNumber":78,"Velocity":69,"Duration":197686,"SoundDuration":197686,"Delta":745271797},{"NoteNumber":75,"Velocity":72,"Duration":197686,"SoundDuration":197686,"Delta":745469484},{"NoteNumber":81,"Velocity":75,"Duration":197687,"SoundDuration":197687,"Delta":745667171},{"NoteNumber":53,"Velocity":40,"Duration":296530,"SoundDuration":296530,"Delta":745667171},{"NoteNumber":77,"Velocity":67,"Duration":197686,"SoundDuration":197686,"Delta":745864858},{"NoteNumber":75,"Velocity":61,"Duration":197686,"SoundDuration":197686,"Delta":746062545},{"NoteNumber":73,"Velocity":66,"Duration":212811,"SoundDuration":212811,"Delta":746260232},{"NoteNumber":46,"Velocity":32,"Duration":1197357,"SoundDuration":1197357,"Delta":746260232},{"NoteNumber":53,"Velocity":32,"Duration":1197357,"SoundDuration":1197357,"Delta":746260232},{"NoteNumber":58,"Velocity":38,"Duration":1197357,"SoundDuration":1197357,"Delta":746260232},{"NoteNumber":85,"Velocity":49,"Duration":204320,"SoundDuration":204320,"Delta":746473043},{"NoteNumber":82,"Velocity":49,"Duration":195829,"SoundDuration":195829,"Delta":746677363},{"NoteNumber":77,"Velocity":53,"Duration":194798,"SoundDuration":194798,"Delta":746873192},{"NoteNumber":73,"Velocity":48,"Duration":194798,"SoundDuration":194798,"Delta":747067991},{"NoteNumber":70,"Velocity":46,"Duration":194798,"SoundDuration":194798,"Delta":747262790},{"NoteNumber":65,"Velocity":51,"Duration":197960,"SoundDuration":197960,"Delta":747457589},{"NoteNumber":49,"Velocity":35,"Duration":296941,"SoundDuration":296941,"Delta":747457589},{"NoteNumber":61,"Velocity":46,"Duration":197961,"SoundDuration":197961,"Delta":747655550},{"NoteNumber":58,"Velocity":46,"Duration":197960,"SoundDuration":197960,"Delta":747853511},{"NoteNumber":61,"Velocity":57,"Duration":203417,"SoundDuration":203417,"Delta":748051472},{"NoteNumber":53,"Velocity":35,"Duration":305125,"SoundDuration":305125,"Delta":748051472},{"NoteNumber":65,"Velocity":50,"Duration":203417,"SoundDuration":203417,"Delta":748254889},{"NoteNumber":70,"Velocity":50,"Duration":203417,"SoundDuration":203417,"Delta":748458307},{"NoteNumber":73,"Velocity":53,"Duration":201207,"SoundDuration":201207,"Delta":748661724},{"NoteNumber":46,"Velocity":32,"Duration":1175337,"SoundDuration":1175337,"Delta":748661724},{"NoteNumber":53,"Velocity":32,"Duration":1175337,"SoundDuration":1175337,"Delta":748661724},{"NoteNumber":58,"Velocity":38,"Duration":1175337,"SoundDuration":1175337,"Delta":748661724},{"NoteNumber":85,"Velocity":49,"Duration":196980,"SoundDuration":196980,"Delta":748862931},{"NoteNumber":82,"Velocity":49,"Duration":192752,"SoundDuration":192752,"Delta":749059911},{"NoteNumber":77,"Velocity":53,"Duration":194798,"SoundDuration":194798,"Delta":749252664},{"NoteNumber":73,"Velocity":48,"Duration":194798,"SoundDuration":194798,"Delta":749447463},{"NoteNumber":70,"Velocity":46,"Duration":194798,"SoundDuration":194798,"Delta":749642262},{"NoteNumber":65,"Velocity":51,"Duration":197960,"SoundDuration":197960,"Delta":749837061},{"NoteNumber":49,"Velocity":35,"Duration":296941,"SoundDuration":296941,"Delta":749837061},{"NoteNumber":61,"Velocity":46,"Duration":197961,"SoundDuration":197961,"Delta":750035022},{"NoteNumber":58,"Velocity":46,"Duration":197960,"SoundDuration":197960,"Delta":750232983},{"NoteNumber":61,"Velocity":53,"Duration":203417,"SoundDuration":203417,"Delta":750430944},{"NoteNumber":53,"Velocity":35,"Duration":305125,"SoundDuration":305125,"Delta":750430944},{"NoteNumber":65,"Velocity":50,"Duration":203417,"SoundDuration":203417,"Delta":750634361},{"NoteNumber":70,"Velocity":50,"Duration":203417,"SoundDuration":203417,"Delta":750837779},{"NoteNumber":73,"Velocity":60,"Duration":203417,"SoundDuration":203417,"Delta":751041196},{"NoteNumber":46,"Velocity":39,"Duration":305126,"SoundDuration":305126,"Delta":751041196},{"NoteNumber":70,"Velocity":57,"Duration":203417,"SoundDuration":203417,"Delta":751244613},{"NoteNumber":65,"Velocity":57,"Duration":203139,"SoundDuration":203139,"Delta":751448031},{"NoteNumber":77,"Velocity":66,"Duration":201776,"SoundDuration":201776,"Delta":751651170},{"NoteNumber":49,"Velocity":47,"Duration":301866,"SoundDuration":301866,"Delta":751651170},{"NoteNumber":73,"Velocity":61,"Duration":199916,"SoundDuration":199916,"Delta":751852947},{"NoteNumber":70,"Velocity":61,"Duration":198101,"SoundDuration":198101,"Delta":752052863},{"NoteNumber":82,"Velocity":71,"Duration":198101,"SoundDuration":198101,"Delta":752250964},{"NoteNumber":43,"Velocity":53,"Duration":297926,"SoundDuration":297926,"Delta":752250964},{"NoteNumber":76,"Velocity":64,"Duration":200182,"SoundDuration":200182,"Delta":752449065},{"NoteNumber":73,"Velocity":64,"Duration":202314,"SoundDuration":202314,"Delta":752649248},{"NoteNumber":84,"Velocity":77,"Duration":204477,"SoundDuration":204477,"Delta":752851563},{"NoteNumber":80,"Velocity":77,"Duration":204477,"SoundDuration":204477,"Delta":752851563},{"NoteNumber":44,"Velocity":58,"Duration":306717,"SoundDuration":306717,"Delta":752851563},{"NoteNumber":78,"Velocity":69,"Duration":204477,"SoundDuration":204477,"Delta":753056041},{"NoteNumber":75,"Velocity":69,"Duration":204477,"SoundDuration":204477,"Delta":753260519},{"NoteNumber":77,"Velocity":86,"Duration":201207,"SoundDuration":201207,"Delta":753464997},{"NoteNumber":37,"Velocity":58,"Duration":1769220,"SoundDuration":1769220,"Delta":753464997},{"NoteNumber":44,"Velocity":58,"Duration":1769220,"SoundDuration":1769220,"Delta":753464997},{"NoteNumber":49,"Velocity":70,"Duration":1769220,"SoundDuration":1769220,"Delta":753464997},{"NoteNumber":89,"Velocity":77,"Duration":196980,"SoundDuration":196980,"Delta":753666204},{"NoteNumber":85,"Velocity":72,"Duration":192752,"SoundDuration":192752,"Delta":753863184},{"NoteNumber":80,"Velocity":75,"Duration":194798,"SoundDuration":194798,"Delta":754055937},{"NoteNumber":77,"Velocity":68,"Duration":194798,"SoundDuration":194798,"Delta":754250736},{"NoteNumber":73,"Velocity":60,"Duration":194798,"SoundDuration":194798,"Delta":754445535},{"NoteNumber":68,"Velocity":57,"Duration":197960,"SoundDuration":197960,"Delta":754640334},{"NoteNumber":65,"Velocity":49,"Duration":197961,"SoundDuration":197961,"Delta":754838295},{"NoteNumber":61,"Velocity":47,"Duration":197960,"SoundDuration":197960,"Delta":755036256},{"NoteNumber":56,"Velocity":50,"Duration":203417,"SoundDuration":203417,"Delta":755234217},{"NoteNumber":53,"Velocity":44,"Duration":203417,"SoundDuration":203417,"Delta":755437634},{"NoteNumber":49,"Velocity":37,"Duration":203417,"SoundDuration":203417,"Delta":755641051},{"NoteNumber":37,"Velocity":36,"Duration":282290,"SoundDuration":282290,"Delta":755844469},{"NoteNumber":37,"Velocity":30,"Duration":292968,"SoundDuration":292968,"Delta":756141616},{"NoteNumber":37,"Velocity":31,"Duration":292968,"SoundDuration":292968,"Delta":756450004},{"NoteNumber":37,"Velocity":31,"Duration":292968,"SoundDuration":292968,"Delta":756758392},{"NoteNumber":37,"Velocity":30,"Duration":292968,"SoundDuration":292968,"Delta":757066780},{"NoteNumber":37,"Velocity":30,"Duration":292968,"SoundDuration":292968,"Delta":757375168},{"NoteNumber":37,"Velocity":29,"Duration":292968,"SoundDuration":292968,"Delta":757683556},{"NoteNumber":37,"Velocity":29,"Duration":292968,"SoundDuration":292968,"Delta":757991944},{"NoteNumber":53,"Velocity":40,"Duration":1274831,"SoundDuration":1274831,"Delta":758300332},{"NoteNumber":56,"Velocity":40,"Duration":1274831,"SoundDuration":1274831,"Delta":758300332},{"NoteNumber":61,"Velocity":47,"Duration":1274831,"SoundDuration":1274831,"Delta":758300332},{"NoteNumber":37,"Velocity":26,"Duration":302772,"SoundDuration":302772,"Delta":758300332},{"NoteNumber":37,"Velocity":26,"Duration":302772,"SoundDuration":302772,"Delta":758619040},{"NoteNumber":37,"Velocity":26,"Duration":302772,"SoundDuration":302772,"Delta":758937748},{"NoteNumber":37,"Velocity":26,"Duration":302772,"SoundDuration":302772,"Delta":759256456},{"NoteNumber":65,"Velocity":46,"Duration":310077,"SoundDuration":310077,"Delta":759575164},{"NoteNumber":37,"Velocity":26,"Duration":294573,"SoundDuration":294573,"Delta":759575164},{"NoteNumber":37,"Velocity":26,"Duration":294573,"SoundDuration":294573,"Delta":759885242},{"NoteNumber":68,"Velocity":46,"Duration":310077,"SoundDuration":310077,"Delta":760195319},{"NoteNumber":37,"Velocity":26,"Duration":294573,"SoundDuration":294573,"Delta":760195319},{"NoteNumber":37,"Velocity":26,"Duration":294573,"SoundDuration":294573,"Delta":760505397},{"NoteNumber":54,"Velocity":40,"Duration":1267828,"SoundDuration":1267828,"Delta":760815474},{"NoteNumber":58,"Velocity":40,"Duration":1267828,"SoundDuration":1267828,"Delta":760815474},{"NoteNumber":63,"Velocity":47,"Duration":1267828,"SoundDuration":1267828,"Delta":760815474},{"NoteNumber":37,"Velocity":26,"Duration":301109,"SoundDuration":301109,"Delta":760815474},{"NoteNumber":37,"Velocity":26,"Duration":301109,"SoundDuration":301109,"Delta":761132431},{"NoteNumber":37,"Velocity":26,"Duration":301109,"SoundDuration":301109,"Delta":761449388},{"NoteNumber":37,"Velocity":26,"Duration":301109,"SoundDuration":301109,"Delta":761766345},{"NoteNumber":66,"Velocity":45,"Duration":310077,"SoundDuration":310077,"Delta":762083302},{"NoteNumber":37,"Velocity":26,"Duration":294573,"SoundDuration":294573,"Delta":762083302},{"NoteNumber":37,"Velocity":26,"Duration":294573,"SoundDuration":294573,"Delta":762393380},{"NoteNumber":70,"Velocity":45,"Duration":310077,"SoundDuration":310077,"Delta":762703457},{"NoteNumber":37,"Velocity":26,"Duration":294573,"SoundDuration":294573,"Delta":762703457},{"NoteNumber":37,"Velocity":26,"Duration":294573,"SoundDuration":294573,"Delta":763013535},{"NoteNumber":70,"Velocity":48,"Duration":303459,"SoundDuration":303459,"Delta":763323612},{"NoteNumber":37,"Velocity":26,"Duration":288286,"SoundDuration":288286,"Delta":763323612},{"NoteNumber":68,"Velocity":45,"Duration":303459,"SoundDuration":303459,"Delta":763627072},{"NoteNumber":37,"Velocity":26,"Duration":288286,"SoundDuration":288286,"Delta":763627072},{"NoteNumber":60,"Velocity":40,"Duration":597326,"SoundDuration":597326,"Delta":763930531},{"NoteNumber":68,"Velocity":48,"Duration":303459,"SoundDuration":303459,"Delta":763930531},{"NoteNumber":39,"Velocity":26,"Duration":603180,"SoundDuration":603180,"Delta":763930531},{"NoteNumber":37,"Velocity":26,"Duration":288286,"SoundDuration":288286,"Delta":763930531},{"NoteNumber":66,"Velocity":45,"Duration":299721,"SoundDuration":299721,"Delta":764233991},{"NoteNumber":37,"Velocity":26,"Duration":285669,"SoundDuration":285669,"Delta":764233991},{"NoteNumber":60,"Velocity":42,"Duration":599008,"SoundDuration":599008,"Delta":764533712},{"NoteNumber":66,"Velocity":50,"Duration":301871,"SoundDuration":301871,"Delta":764533712},{"NoteNumber":44,"Velocity":26,"Duration":605330,"SoundDuration":605330,"Delta":764533712},{"NoteNumber":37,"Velocity":26,"Duration":286777,"SoundDuration":286777,"Delta":764533712},{"NoteNumber":65,"Velocity":45,"Duration":303459,"SoundDuration":303459,"Delta":764835583},{"NoteNumber":37,"Velocity":26,"Duration":288286,"SoundDuration":288286,"Delta":764835583},{"NoteNumber":60,"Velocity":41,"Duration":605665,"SoundDuration":605665,"Delta":765139043},{"NoteNumber":65,"Velocity":49,"Duration":305095,"SoundDuration":305095,"Delta":765139043},{"NoteNumber":45,"Velocity":26,"Duration":612090,"SoundDuration":612090,"Delta":765139043},{"NoteNumber":37,"Velocity":26,"Duration":289840,"SoundDuration":289840,"Delta":765139043},{"NoteNumber":64,"Velocity":45,"Duration":306995,"SoundDuration":306995,"Delta":765444138},{"NoteNumber":37,"Velocity":26,"Duration":291576,"SoundDuration":291576,"Delta":765444138},{"NoteNumber":61,"Velocity":45,"Duration":2275769,"SoundDuration":2275769,"Delta":765751133},{"NoteNumber":65,"Velocity":45,"Duration":2275769,"SoundDuration":2275769,"Delta":765751133},{"NoteNumber":44,"Velocity":31,"Duration":188270,"SoundDuration":188270,"Delta":765751133},{"NoteNumber":37,"Velocity":26,"Duration":1697770,"SoundDuration":1697770,"Delta":765751133},{"NoteNumber":43,"Velocity":28,"Duration":188270,"SoundDuration":188270,"Delta":765939404},{"NoteNumber":44,"Velocity":28,"Duration":188270,"SoundDuration":188270,"Delta":766127675},{"NoteNumber":45,"Velocity":31,"Duration":188270,"SoundDuration":188270,"Delta":766315945},{"NoteNumber":44,"Velocity":27,"Duration":188270,"SoundDuration":188270,"Delta":766504216},{"NoteNumber":43,"Velocity":27,"Duration":188270,"SoundDuration":188270,"Delta":766692487},{"NoteNumber":44,"Velocity":32,"Duration":188270,"SoundDuration":188270,"Delta":766880757},{"NoteNumber":41,"Velocity":28,"Duration":189466,"SoundDuration":189466,"Delta":767069028},{"NoteNumber":40,"Velocity":28,"Duration":190409,"SoundDuration":190409,"Delta":767258495},{"NoteNumber":41,"Velocity":32,"Duration":191608,"SoundDuration":191608,"Delta":767448904},{"NoteNumber":37,"Velocity":27,"Duration":192577,"SoundDuration":192577,"Delta":767640512},{"NoteNumber":38,"Velocity":28,"Duration":193813,"SoundDuration":193813,"Delta":767833090},{"NoteNumber":53,"Velocity":40,"Duration":1253787,"SoundDuration":1253787,"Delta":768026903},{"NoteNumber":56,"Velocity":40,"Duration":1253787,"SoundDuration":1253787,"Delta":768026903},{"NoteNumber":61,"Velocity":47,"Duration":1253787,"SoundDuration":1253787,"Delta":768026903},{"NoteNumber":37,"Velocity":26,"Duration":297774,"SoundDuration":297774,"Delta":768026903},{"NoteNumber":37,"Velocity":26,"Duration":297774,"SoundDuration":297774,"Delta":768340350},{"NoteNumber":37,"Velocity":26,"Duration":297774,"SoundDuration":297774,"Delta":768653797},{"NoteNumber":37,"Velocity":26,"Duration":297774,"SoundDuration":297774,"Delta":768967244},{"NoteNumber":65,"Velocity":46,"Duration":308388,"SoundDuration":308388,"Delta":769280691},{"NoteNumber":37,"Velocity":26,"Duration":292968,"SoundDuration":292968,"Delta":769280691},{"NoteNumber":37,"Velocity":26,"Duration":292968,"SoundDuration":292968,"Delta":769589079},{"NoteNumber":68,"Velocity":46,"Duration":308388,"SoundDuration":308388,"Delta":769897467},{"NoteNumber":37,"Velocity":26,"Duration":292968,"SoundDuration":292968,"Delta":769897467},{"NoteNumber":37,"Velocity":26,"Duration":292968,"SoundDuration":292968,"Delta":770205855},{"NoteNumber":54,"Velocity":40,"Duration":1253787,"SoundDuration":1253787,"Delta":770514243},{"NoteNumber":57,"Velocity":40,"Duration":1253787,"SoundDuration":1253787,"Delta":770514243},{"NoteNumber":63,"Velocity":47,"Duration":1253787,"SoundDuration":1253787,"Delta":770514243},{"NoteNumber":36,"Velocity":26,"Duration":297774,"SoundDuration":297774,"Delta":770514243},{"NoteNumber":36,"Velocity":26,"Duration":297774,"SoundDuration":297774,"Delta":770827690},{"NoteNumber":36,"Velocity":26,"Duration":297774,"SoundDuration":297774,"Delta":771141137},{"NoteNumber":36,"Velocity":26,"Duration":297774,"SoundDuration":297774,"Delta":771454584},{"NoteNumber":66,"Velocity":45,"Duration":306717,"SoundDuration":306717,"Delta":771768031},{"NoteNumber":36,"Velocity":26,"Duration":291381,"SoundDuration":291381,"Delta":771768031},{"NoteNumber":36,"Velocity":26,"Duration":291381,"SoundDuration":291381,"Delta":772074748},{"NoteNumber":69,"Velocity":45,"Duration":306717,"SoundDuration":306717,"Delta":772381465},{"NoteNumber":36,"Velocity":26,"Duration":291381,"SoundDuration":291381,"Delta":772381465},{"NoteNumber":36,"Velocity":26,"Duration":291381,"SoundDuration":291381,"Delta":772688182},{"NoteNumber":69,"Velocity":48,"Duration":303459,"SoundDuration":303459,"Delta":772994899},{"NoteNumber":35,"Velocity":26,"Duration":288286,"SoundDuration":288286,"Delta":772994899},{"NoteNumber":68,"Velocity":45,"Duration":303459,"SoundDuration":303459,"Delta":773298359},{"NoteNumber":35,"Velocity":26,"Duration":288286,"SoundDuration":288286,"Delta":773298359},{"NoteNumber":63,"Velocity":40,"Duration":606654,"SoundDuration":606654,"Delta":773601818},{"NoteNumber":71,"Velocity":48,"Duration":303459,"SoundDuration":303459,"Delta":773601818},{"NoteNumber":42,"Velocity":26,"Duration":606654,"SoundDuration":606654,"Delta":773601818},{"NoteNumber":35,"Velocity":26,"Duration":288286,"SoundDuration":288286,"Delta":773601818},{"NoteNumber":69,"Velocity":45,"Duration":303194,"SoundDuration":303194,"Delta":773905278},{"NoteNumber":35,"Velocity":26,"Duration":288101,"SoundDuration":288101,"Delta":773905278},{"NoteNumber":63,"Velocity":42,"Duration":606678,"SoundDuration":606678,"Delta":774208472},{"NoteNumber":69,"Velocity":50,"Duration":302400,"SoundDuration":302400,"Delta":774208472},{"NoteNumber":47,"Velocity":26,"Duration":606678,"SoundDuration":606678,"Delta":774208472},{"NoteNumber":35,"Velocity":26,"Duration":287227,"SoundDuration":287227,"Delta":774208472},{"NoteNumber":68,"Velocity":45,"Duration":304277,"SoundDuration":304277,"Delta":774510873},{"NoteNumber":35,"Velocity":26,"Duration":289022,"SoundDuration":289022,"Delta":774510873},{"NoteNumber":63,"Velocity":41,"Duration":614567,"SoundDuration":614567,"Delta":774815151},{"NoteNumber":68,"Velocity":49,"Duration":306176,"SoundDuration":306176,"Delta":774815151},{"NoteNumber":48,"Velocity":26,"Duration":614567,"SoundDuration":614567,"Delta":774815151},{"NoteNumber":35,"Velocity":26,"Duration":290840,"SoundDuration":290840,"Delta":774815151},{"NoteNumber":67,"Velocity":45,"Duration":308391,"SoundDuration":308391,"Delta":775121327},{"NoteNumber":35,"Velocity":26,"Duration":292887,"SoundDuration":292887,"Delta":775121327},{"NoteNumber":64,"Velocity":45,"Duration":2275769,"SoundDuration":2275769,"Delta":775429718},{"NoteNumber":68,"Velocity":45,"Duration":2275769,"SoundDuration":2275769,"Delta":775429718},{"NoteNumber":47,"Velocity":31,"Duration":188270,"SoundDuration":188270,"Delta":775429718},{"NoteNumber":40,"Velocity":26,"Duration":1697770,"SoundDuration":1697770,"Delta":775429718},{"NoteNumber":46,"Velocity":28,"Duration":188270,"SoundDuration":188270,"Delta":775617989},{"NoteNumber":47,"Velocity":28,"Duration":188270,"SoundDuration":188270,"Delta":775806259},{"NoteNumber":48,"Velocity":31,"Duration":188270,"SoundDuration":188270,"Delta":775994530},{"NoteNumber":47,"Velocity":27,"Duration":188270,"SoundDuration":188270,"Delta":776182801},{"NoteNumber":46,"Velocity":27,"Duration":188270,"SoundDuration":188270,"Delta":776371071},{"NoteNumber":47,"Velocity":32,"Duration":188270,"SoundDuration":188270,"Delta":776559342},{"NoteNumber":44,"Velocity":28,"Duration":189466,"SoundDuration":189466,"Delta":776747613},{"NoteNumber":43,"Velocity":28,"Duration":190409,"SoundDuration":190409,"Delta":776937079},{"NoteNumber":44,"Velocity":32,"Duration":191608,"SoundDuration":191608,"Delta":777127488},{"NoteNumber":40,"Velocity":27,"Duration":192577,"SoundDuration":192577,"Delta":777319097},{"NoteNumber":41,"Velocity":28,"Duration":193813,"SoundDuration":193813,"Delta":777511674},{"NoteNumber":64,"Velocity":35,"Duration":276537,"SoundDuration":276537,"Delta":777705488},{"NoteNumber":40,"Velocity":38,"Duration":1164369,"SoundDuration":1164369,"Delta":777705488},{"NoteNumber":64,"Velocity":35,"Duration":276537,"SoundDuration":276537,"Delta":777996580},{"NoteNumber":64,"Velocity":35,"Duration":276537,"SoundDuration":276537,"Delta":778287673},{"NoteNumber":64,"Velocity":35,"Duration":276537,"SoundDuration":276537,"Delta":778578765},{"NoteNumber":64,"Velocity":35,"Duration":275122,"SoundDuration":275122,"Delta":778869858},{"NoteNumber":44,"Velocity":37,"Duration":289603,"SoundDuration":289603,"Delta":778869858},{"NoteNumber":64,"Velocity":35,"Duration":275122,"SoundDuration":275122,"Delta":779159461},{"NoteNumber":64,"Velocity":35,"Duration":275122,"SoundDuration":275122,"Delta":779449064},{"NoteNumber":47,"Velocity":37,"Duration":289603,"SoundDuration":289603,"Delta":779449064},{"NoteNumber":64,"Velocity":35,"Duration":275122,"SoundDuration":275122,"Delta":779738667},{"NoteNumber":65,"Velocity":35,"Duration":275122,"SoundDuration":275122,"Delta":780028270},{"NoteNumber":64,"Velocity":35,"Duration":275122,"SoundDuration":275122,"Delta":780028270},{"NoteNumber":40,"Velocity":38,"Duration":1158411,"SoundDuration":1158411,"Delta":780028270},{"NoteNumber":65,"Velocity":35,"Duration":275122,"SoundDuration":275122,"Delta":780317873},{"NoteNumber":64,"Velocity":35,"Duration":275122,"SoundDuration":275122,"Delta":780317873},{"NoteNumber":65,"Velocity":35,"Duration":275122,"SoundDuration":275122,"Delta":780607476},{"NoteNumber":64,"Velocity":35,"Duration":275122,"SoundDuration":275122,"Delta":780607476},{"NoteNumber":65,"Velocity":35,"Duration":275122,"SoundDuration":275122,"Delta":780897079},{"NoteNumber":64,"Velocity":35,"Duration":275122,"SoundDuration":275122,"Delta":780897079},{"NoteNumber":65,"Velocity":35,"Duration":272362,"SoundDuration":272362,"Delta":781186682},{"NoteNumber":64,"Velocity":35,"Duration":272362,"SoundDuration":272362,"Delta":781186682},{"NoteNumber":45,"Velocity":37,"Duration":286697,"SoundDuration":286697,"Delta":781186682},{"NoteNumber":65,"Velocity":35,"Duration":272362,"SoundDuration":272362,"Delta":781473379},{"NoteNumber":64,"Velocity":35,"Duration":272362,"SoundDuration":272362,"Delta":781473379},{"NoteNumber":65,"Velocity":35,"Duration":272362,"SoundDuration":272362,"Delta":781760076},{"NoteNumber":64,"Velocity":35,"Duration":272362,"SoundDuration":272362,"Delta":781760076},{"NoteNumber":48,"Velocity":37,"Duration":286697,"SoundDuration":286697,"Delta":781760076},{"NoteNumber":65,"Velocity":35,"Duration":272874,"SoundDuration":272874,"Delta":782046773},{"NoteNumber":64,"Velocity":35,"Duration":272874,"SoundDuration":272874,"Delta":782046773},{"NoteNumber":64,"Velocity":36,"Duration":276115,"SoundDuration":276115,"Delta":782334202},{"NoteNumber":65,"Velocity":36,"Duration":276115,"SoundDuration":276115,"Delta":782334202},{"NoteNumber":50,"Velocity":41,"Duration":290595,"SoundDuration":290595,"Delta":782334202},{"NoteNumber":64,"Velocity":38,"Duration":274459,"SoundDuration":274459,"Delta":782624798},{"NoteNumber":65,"Velocity":38,"Duration":274459,"SoundDuration":274459,"Delta":782624798},{"NoteNumber":48,"Velocity":42,"Duration":274459,"SoundDuration":274459,"Delta":782624798},{"NoteNumber":64,"Velocity":39,"Duration":272839,"SoundDuration":272839,"Delta":782913664},{"NoteNumber":65,"Velocity":39,"Duration":272839,"SoundDuration":272839,"Delta":782913664},{"NoteNumber":48,"Velocity":44,"Duration":287174,"SoundDuration":287174,"Delta":782913664},{"NoteNumber":64,"Velocity":41,"Duration":270826,"SoundDuration":270826,"Delta":783200839},{"NoteNumber":65,"Velocity":41,"Duration":270826,"SoundDuration":270826,"Delta":783200839},{"NoteNumber":47,"Velocity":46,"Duration":270826,"SoundDuration":270826,"Delta":783200839},{"NoteNumber":62,"Velocity":43,"Duration":269247,"SoundDuration":269247,"Delta":783485857},{"NoteNumber":65,"Velocity":43,"Duration":269247,"SoundDuration":269247,"Delta":783485857},{"NoteNumber":47,"Velocity":47,"Duration":283367,"SoundDuration":283367,"Delta":783485857},{"NoteNumber":62,"Velocity":45,"Duration":267437,"SoundDuration":267437,"Delta":783769225},{"NoteNumber":65,"Velocity":45,"Duration":267437,"SoundDuration":267437,"Delta":783769225},{"NoteNumber":45,"Velocity":49,"Duration":267437,"SoundDuration":267437,"Delta":783769225},{"NoteNumber":60,"Velocity":47,"Duration":265911,"SoundDuration":265911,"Delta":784050714},{"NoteNumber":62,"Velocity":47,"Duration":265911,"SoundDuration":265911,"Delta":784050714},{"NoteNumber":66,"Velocity":47,"Duration":265911,"SoundDuration":265911,"Delta":784050714},{"NoteNumber":45,"Velocity":51,"Duration":279895,"SoundDuration":279895,"Delta":784050714},{"NoteNumber":60,"Velocity":48,"Duration":263999,"SoundDuration":263999,"Delta":784330609},{"NoteNumber":62,"Velocity":48,"Duration":263999,"SoundDuration":263999,"Delta":784330609},{"NoteNumber":66,"Velocity":48,"Duration":263999,"SoundDuration":263999,"Delta":784330609},{"NoteNumber":43,"Velocity":53,"Duration":263999,"SoundDuration":263999,"Delta":784330609},{"NoteNumber":59,"Velocity":49,"Duration":263265,"SoundDuration":263265,"Delta":784608457},{"NoteNumber":62,"Velocity":49,"Duration":263265,"SoundDuration":263265,"Delta":784608457},{"NoteNumber":67,"Velocity":49,"Duration":263265,"SoundDuration":263265,"Delta":784608457},{"NoteNumber":43,"Velocity":53,"Duration":277179,"SoundDuration":277179,"Delta":784608457},{"NoteNumber":59,"Velocity":48,"Duration":264767,"SoundDuration":264767,"Delta":784885637},{"NoteNumber":62,"Velocity":48,"Duration":264767,"SoundDuration":264767,"Delta":784885637},{"NoteNumber":67,"Velocity":48,"Duration":264767,"SoundDuration":264767,"Delta":784885637},{"NoteNumber":41,"Velocity":52,"Duration":264767,"SoundDuration":264767,"Delta":784885637},{"NoteNumber":59,"Velocity":46,"Duration":266524,"SoundDuration":266524,"Delta":785164388},{"NoteNumber":62,"Velocity":46,"Duration":266524,"SoundDuration":266524,"Delta":785164388},{"NoteNumber":67,"Velocity":46,"Duration":266524,"SoundDuration":266524,"Delta":785164388},{"NoteNumber":41,"Velocity":50,"Duration":280576,"SoundDuration":280576,"Delta":785164388},{"NoteNumber":59,"Velocity":44,"Duration":268056,"SoundDuration":268056,"Delta":785444964},{"NoteNumber":62,"Velocity":44,"Duration":268056,"SoundDuration":268056,"Delta":785444964},{"NoteNumber":67,"Velocity":44,"Duration":268056,"SoundDuration":268056,"Delta":785444964},{"NoteNumber":40,"Velocity":48,"Duration":268056,"SoundDuration":268056,"Delta":785444964},{"NoteNumber":60,"Velocity":42,"Duration":270054,"SoundDuration":270054,"Delta":785727141},{"NoteNumber":64,"Velocity":42,"Duration":270054,"SoundDuration":270054,"Delta":785727141},{"NoteNumber":67,"Velocity":42,"Duration":270054,"SoundDuration":270054,"Delta":785727141},{"NoteNumber":40,"Velocity":47,"Duration":284316,"SoundDuration":284316,"Delta":785727141},{"NoteNumber":60,"Velocity":40,"Duration":271639,"SoundDuration":271639,"Delta":786011458},{"NoteNumber":64,"Velocity":40,"Duration":271639,"SoundDuration":271639,"Delta":786011458},{"NoteNumber":67,"Velocity":40,"Duration":271639,"SoundDuration":271639,"Delta":786011458},{"NoteNumber":38,"Velocity":45,"Duration":271639,"SoundDuration":271639,"Delta":786011458},{"NoteNumber":59,"Velocity":38,"Duration":273245,"SoundDuration":273245,"Delta":786297433},{"NoteNumber":65,"Velocity":38,"Duration":273245,"SoundDuration":273245,"Delta":786297433},{"NoteNumber":67,"Velocity":38,"Duration":273245,"SoundDuration":273245,"Delta":786297433},{"NoteNumber":38,"Velocity":44,"Duration":287651,"SoundDuration":287651,"Delta":786297433},{"NoteNumber":59,"Velocity":36,"Duration":275122,"SoundDuration":275122,"Delta":786585084},{"NoteNumber":65,"Velocity":36,"Duration":275122,"SoundDuration":275122,"Delta":786585084},{"NoteNumber":67,"Velocity":36,"Duration":275122,"SoundDuration":275122,"Delta":786585084},{"NoteNumber":36,"Velocity":42,"Duration":275122,"SoundDuration":275122,"Delta":786585084},{"NoteNumber":72,"Velocity":41,"Duration":273722,"SoundDuration":273722,"Delta":786874687},{"NoteNumber":36,"Velocity":44,"Duration":1152515,"SoundDuration":1152515,"Delta":786874687},{"NoteNumber":48,"Velocity":44,"Duration":1152515,"SoundDuration":1152515,"Delta":786874687},{"NoteNumber":72,"Velocity":41,"Duration":273722,"SoundDuration":273722,"Delta":787162816},{"NoteNumber":72,"Velocity":42,"Duration":273722,"SoundDuration":273722,"Delta":787450945},{"NoteNumber":72,"Velocity":42,"Duration":273722,"SoundDuration":273722,"Delta":787739074},{"NoteNumber":72,"Velocity":42,"Duration":269656,"SoundDuration":269656,"Delta":788027203},{"NoteNumber":52,"Velocity":44,"Duration":283849,"SoundDuration":283849,"Delta":788027203},{"NoteNumber":72,"Velocity":43,"Duration":269656,"SoundDuration":269656,"Delta":788311052},{"NoteNumber":72,"Velocity":43,"Duration":269656,"SoundDuration":269656,"Delta":788594901},{"NoteNumber":55,"Velocity":45,"Duration":283849,"SoundDuration":283849,"Delta":788594901},{"NoteNumber":72,"Velocity":44,"Duration":269656,"SoundDuration":269656,"Delta":788878750},{"NoteNumber":73,"Velocity":45,"Duration":270989,"SoundDuration":270989,"Delta":789162599},{"NoteNumber":72,"Velocity":45,"Duration":270989,"SoundDuration":270989,"Delta":789162599},{"NoteNumber":48,"Velocity":49,"Duration":1141010,"SoundDuration":1141010,"Delta":789162599},{"NoteNumber":73,"Velocity":45,"Duration":270989,"SoundDuration":270989,"Delta":789447852},{"NoteNumber":72,"Velocity":45,"Duration":270989,"SoundDuration":270989,"Delta":789447852},{"NoteNumber":73,"Velocity":45,"Duration":270989,"SoundDuration":270989,"Delta":789733104},{"NoteNumber":72,"Velocity":45,"Duration":270989,"SoundDuration":270989,"Delta":789733104},{"NoteNumber":73,"Velocity":45,"Duration":270989,"SoundDuration":270989,"Delta":790018357},{"NoteNumber":72,"Velocity":45,"Duration":270989,"SoundDuration":270989,"Delta":790018357},{"NoteNumber":73,"Velocity":47,"Duration":268285,"SoundDuration":268285,"Delta":790303609},{"NoteNumber":72,"Velocity":47,"Duration":268285,"SoundDuration":268285,"Delta":790303609},{"NoteNumber":53,"Velocity":50,"Duration":282406,"SoundDuration":282406,"Delta":790303609},{"NoteNumber":73,"Velocity":47,"Duration":268285,"SoundDuration":268285,"Delta":790586015},{"NoteNumber":72,"Velocity":47,"Duration":268285,"SoundDuration":268285,"Delta":790586015},{"NoteNumber":73,"Velocity":47,"Duration":268285,"SoundDuration":268285,"Delta":790868421},{"NoteNumber":72,"Velocity":47,"Duration":268285,"SoundDuration":268285,"Delta":790868421},{"NoteNumber":56,"Velocity":50,"Duration":282406,"SoundDuration":282406,"Delta":790868421},{"NoteNumber":73,"Velocity":47,"Duration":269299,"SoundDuration":269299,"Delta":791150827},{"NoteNumber":72,"Velocity":47,"Duration":269299,"SoundDuration":269299,"Delta":791150827},{"NoteNumber":72,"Velocity":51,"Duration":265684,"SoundDuration":265684,"Delta":791434681},{"NoteNumber":73,"Velocity":51,"Duration":265684,"SoundDuration":265684,"Delta":791434681},{"NoteNumber":58,"Velocity":59,"Duration":279668,"SoundDuration":279668,"Delta":791434681},{"NoteNumber":72,"Velocity":53,"Duration":264836,"SoundDuration":264836,"Delta":791714349},{"NoteNumber":73,"Velocity":53,"Duration":264836,"SoundDuration":264836,"Delta":791714349},{"NoteNumber":56,"Velocity":60,"Duration":264836,"SoundDuration":264836,"Delta":791714349},{"NoteNumber":72,"Velocity":55,"Duration":263999,"SoundDuration":263999,"Delta":791993100},{"NoteNumber":73,"Velocity":55,"Duration":263999,"SoundDuration":263999,"Delta":791993100},{"NoteNumber":56,"Velocity":62,"Duration":277847,"SoundDuration":277847,"Delta":791993100},{"NoteNumber":72,"Velocity":59,"Duration":262951,"SoundDuration":262951,"Delta":792270948},{"NoteNumber":73,"Velocity":59,"Duration":262951,"SoundDuration":262951,"Delta":792270948},{"NoteNumber":55,"Velocity":64,"Duration":262951,"SoundDuration":262951,"Delta":792270948},{"NoteNumber":70,"Velocity":61,"Duration":261828,"SoundDuration":261828,"Delta":792547680},{"NoteNumber":73,"Velocity":61,"Duration":261828,"SoundDuration":261828,"Delta":792547680},{"NoteNumber":55,"Velocity":68,"Duration":275608,"SoundDuration":275608,"Delta":792547680},{"NoteNumber":70,"Velocity":63,"Duration":260781,"SoundDuration":260781,"Delta":792823289},{"NoteNumber":73,"Velocity":63,"Duration":260781,"SoundDuration":260781,"Delta":792823289},{"NoteNumber":53,"Velocity":70,"Duration":260781,"SoundDuration":260781,"Delta":792823289},{"NoteNumber":68,"Velocity":68,"Duration":259975,"SoundDuration":259975,"Delta":793097784},{"NoteNumber":70,"Velocity":68,"Duration":259975,"SoundDuration":259975,"Delta":793097784},{"NoteNumber":74,"Velocity":68,"Duration":259975,"SoundDuration":259975,"Delta":793097784},{"NoteNumber":53,"Velocity":72,"Duration":273624,"SoundDuration":273624,"Delta":793097784},{"NoteNumber":68,"Velocity":69,"Duration":258962,"SoundDuration":258962,"Delta":793371409},{"NoteNumber":70,"Velocity":69,"Duration":258962,"SoundDuration":258962,"Delta":793371409},{"NoteNumber":74,"Velocity":69,"Duration":258962,"SoundDuration":258962,"Delta":793371409},{"NoteNumber":51,"Velocity":75,"Duration":258962,"SoundDuration":258962,"Delta":793371409},{"NoteNumber":67,"Velocity":59,"Duration":258255,"SoundDuration":258255,"Delta":793643956},{"NoteNumber":70,"Velocity":59,"Duration":258255,"SoundDuration":258255,"Delta":793643956},{"NoteNumber":75,"Velocity":70,"Duration":258255,"SoundDuration":258255,"Delta":793643956},{"NoteNumber":51,"Velocity":75,"Duration":271904,"SoundDuration":271904,"Delta":793643956},{"NoteNumber":67,"Velocity":67,"Duration":259694,"SoundDuration":259694,"Delta":793915860},{"NoteNumber":70,"Velocity":67,"Duration":259694,"SoundDuration":259694,"Delta":793915860},{"NoteNumber":75,"Velocity":67,"Duration":259694,"SoundDuration":259694,"Delta":793915860},{"NoteNumber":49,"Velocity":73,"Duration":259694,"SoundDuration":259694,"Delta":793915860},{"NoteNumber":68,"Velocity":56,"Duration":261160,"SoundDuration":261160,"Delta":794189268},{"NoteNumber":71,"Velocity":56,"Duration":261160,"SoundDuration":261160,"Delta":794189268},{"NoteNumber":75,"Velocity":66,"Duration":261160,"SoundDuration":261160,"Delta":794189268},{"NoteNumber":49,"Velocity":71,"Duration":274940,"SoundDuration":274940,"Delta":794189268},{"NoteNumber":68,"Velocity":55,"Duration":262434,"SoundDuration":262434,"Delta":794464209},{"NoteNumber":71,"Velocity":55,"Duration":262434,"SoundDuration":262434,"Delta":794464209},{"NoteNumber":75,"Velocity":64,"Duration":262434,"SoundDuration":262434,"Delta":794464209},{"NoteNumber":47,"Velocity":69,"Duration":262434,"SoundDuration":262434,"Delta":794464209},{"NoteNumber":67,"Velocity":53,"Duration":263933,"SoundDuration":263933,"Delta":794740491},{"NoteNumber":73,"Velocity":53,"Duration":263933,"SoundDuration":263933,"Delta":794740491},{"NoteNumber":75,"Velocity":63,"Duration":263933,"SoundDuration":263933,"Delta":794740491},{"NoteNumber":47,"Velocity":68,"Duration":277847,"SoundDuration":277847,"Delta":794740491},{"NoteNumber":67,"Velocity":52,"Duration":265455,"SoundDuration":265455,"Delta":795018339},{"NoteNumber":73,"Velocity":52,"Duration":265455,"SoundDuration":265455,"Delta":795018339},{"NoteNumber":75,"Velocity":62,"Duration":265455,"SoundDuration":265455,"Delta":795018339},{"NoteNumber":46,"Velocity":63,"Duration":265455,"SoundDuration":265455,"Delta":795018339},{"NoteNumber":68,"Velocity":51,"Duration":266751,"SoundDuration":266751,"Delta":795297778},{"NoteNumber":71,"Velocity":51,"Duration":266751,"SoundDuration":266751,"Delta":795297778},{"NoteNumber":75,"Velocity":61,"Duration":266751,"SoundDuration":266751,"Delta":795297778},{"NoteNumber":44,"Velocity":62,"Duration":280803,"SoundDuration":280803,"Delta":795297778},{"NoteNumber":75,"Velocity":60,"Duration":268454,"SoundDuration":268454,"Delta":795578581},{"NoteNumber":59,"Velocity":60,"Duration":268454,"SoundDuration":268454,"Delta":795578581},{"NoteNumber":75,"Velocity":67,"Duration":189232,"SoundDuration":189232,"Delta":795861228},{"NoteNumber":76,"Velocity":80,"Duration":189232,"SoundDuration":189232,"Delta":795861228},{"NoteNumber":61,"Velocity":72,"Duration":283849,"SoundDuration":283849,"Delta":795861228},{"NoteNumber":64,"Velocity":70,"Duration":189232,"SoundDuration":189232,"Delta":796050460},{"NoteNumber":59,"Velocity":63,"Duration":269656,"SoundDuration":269656,"Delta":796145077},{"NoteNumber":75,"Velocity":60,"Duration":141924,"SoundDuration":141924,"Delta":796239693},{"NoteNumber":76,"Velocity":70,"Duration":141924,"SoundDuration":141924,"Delta":796239693},{"NoteNumber":75,"Velocity":67,"Duration":189232,"SoundDuration":189232,"Delta":796428926},{"NoteNumber":76,"Velocity":79,"Duration":189232,"SoundDuration":189232,"Delta":796428926},{"NoteNumber":59,"Velocity":70,"Duration":283848,"SoundDuration":283848,"Delta":796428926},{"NoteNumber":64,"Velocity":72,"Duration":189232,"SoundDuration":189232,"Delta":796618158},{"NoteNumber":58,"Velocity":63,"Duration":269656,"SoundDuration":269656,"Delta":796712775},{"NoteNumber":75,"Velocity":61,"Duration":141924,"SoundDuration":141924,"Delta":796807391},{"NoteNumber":76,"Velocity":72,"Duration":141924,"SoundDuration":141924,"Delta":796807391},{"NoteNumber":73,"Velocity":67,"Duration":189232,"SoundDuration":189232,"Delta":796996624},{"NoteNumber":76,"Velocity":79,"Duration":189232,"SoundDuration":189232,"Delta":796996624},{"NoteNumber":58,"Velocity":70,"Duration":283849,"SoundDuration":283849,"Delta":796996624},{"NoteNumber":64,"Velocity":70,"Duration":189232,"SoundDuration":189232,"Delta":797185856},{"NoteNumber":56,"Velocity":64,"Duration":269656,"SoundDuration":269656,"Delta":797280473},{"NoteNumber":73,"Velocity":60,"Duration":141924,"SoundDuration":141924,"Delta":797375089},{"NoteNumber":76,"Velocity":70,"Duration":141924,"SoundDuration":141924,"Delta":797375089},{"NoteNumber":71,"Velocity":67,"Duration":189232,"SoundDuration":189232,"Delta":797564322},{"NoteNumber":73,"Velocity":67,"Duration":189232,"SoundDuration":189232,"Delta":797564322},{"NoteNumber":77,"Velocity":79,"Duration":189232,"SoundDuration":189232,"Delta":797564322},{"NoteNumber":56,"Velocity":70,"Duration":283849,"SoundDuration":283849,"Delta":797564322},{"NoteNumber":65,"Velocity":69,"Duration":189232,"SoundDuration":189232,"Delta":797753554},{"NoteNumber":54,"Velocity":64,"Duration":269656,"SoundDuration":269656,"Delta":797848171},{"NoteNumber":71,"Velocity":60,"Duration":141924,"SoundDuration":141924,"Delta":797942787},{"NoteNumber":73,"Velocity":60,"Duration":141924,"SoundDuration":141924,"Delta":797942787},{"NoteNumber":77,"Velocity":70,"Duration":141924,"SoundDuration":141924,"Delta":797942787},{"NoteNumber":70,"Velocity":67,"Duration":190168,"SoundDuration":190168,"Delta":798132020},{"NoteNumber":73,"Velocity":67,"Duration":190168,"SoundDuration":190168,"Delta":798132020},{"NoteNumber":78,"Velocity":80,"Duration":190168,"SoundDuration":190168,"Delta":798132020},{"NoteNumber":54,"Velocity":72,"Duration":284784,"SoundDuration":284784,"Delta":798132020},{"NoteNumber":66,"Velocity":70,"Duration":189232,"SoundDuration":189232,"Delta":798322188},{"NoteNumber":52,"Velocity":64,"Duration":268766,"SoundDuration":268766,"Delta":798416804},{"NoteNumber":70,"Velocity":69,"Duration":188270,"SoundDuration":188270,"Delta":798511421},{"NoteNumber":73,"Velocity":61,"Duration":188270,"SoundDuration":188270,"Delta":798511421},{"NoteNumber":78,"Velocity":72,"Duration":188270,"SoundDuration":188270,"Delta":798511421},{"NoteNumber":71,"Velocity":63,"Duration":187353,"SoundDuration":187353,"Delta":798699691},{"NoteNumber":74,"Velocity":69,"Duration":187353,"SoundDuration":187353,"Delta":798699691},{"NoteNumber":78,"Velocity":82,"Duration":187353,"SoundDuration":187353,"Delta":798699691},{"NoteNumber":52,"Velocity":73,"Duration":280576,"SoundDuration":280576,"Delta":798699691},{"NoteNumber":66,"Velocity":75,"Duration":186445,"SoundDuration":186445,"Delta":798887045},{"NoteNumber":50,"Velocity":67,"Duration":264680,"SoundDuration":264680,"Delta":798980268},{"NoteNumber":71,"Velocity":64,"Duration":185306,"SoundDuration":185306,"Delta":799073490},{"NoteNumber":74,"Velocity":64,"Duration":185306,"SoundDuration":185306,"Delta":799073490},{"NoteNumber":78,"Velocity":77,"Duration":185306,"SoundDuration":185306,"Delta":799073490},{"NoteNumber":70,"Velocity":69,"Duration":184637,"SoundDuration":184637,"Delta":799258796},{"NoteNumber":76,"Velocity":69,"Duration":184637,"SoundDuration":184637,"Delta":799258796},{"NoteNumber":78,"Velocity":82,"Duration":184637,"SoundDuration":184637,"Delta":799258796},{"NoteNumber":50,"Velocity":73,"Duration":277179,"SoundDuration":277179,"Delta":799258796},{"NoteNumber":66,"Velocity":73,"Duration":185306,"SoundDuration":185306,"Delta":799443434},{"NoteNumber":49,"Velocity":67,"Duration":278751,"SoundDuration":278751,"Delta":799535976},{"NoteNumber":70,"Velocity":68,"Duration":185986,"SoundDuration":185986,"Delta":799628740},{"NoteNumber":76,"Velocity":61,"Duration":185986,"SoundDuration":185986,"Delta":799628740},{"NoteNumber":78,"Velocity":73,"Duration":185986,"SoundDuration":185986,"Delta":799628740},{"NoteNumber":71,"Velocity":67,"Duration":186672,"SoundDuration":186672,"Delta":799814727},{"NoteNumber":74,"Velocity":67,"Duration":186672,"SoundDuration":186672,"Delta":799814727},{"NoteNumber":78,"Velocity":80,"Duration":186672,"SoundDuration":186672,"Delta":799814727},{"NoteNumber":47,"Velocity":72,"Duration":280349,"SoundDuration":280349,"Delta":799814727},{"NoteNumber":66,"Velocity":70,"Duration":187353,"SoundDuration":187353,"Delta":800001400},{"NoteNumber":62,"Velocity":66,"Duration":281947,"SoundDuration":281947,"Delta":800095077},{"NoteNumber":50,"Velocity":55,"Duration":281947,"SoundDuration":281947,"Delta":800095077},{"NoteNumber":71,"Velocity":60,"Duration":188270,"SoundDuration":188270,"Delta":800188754},{"NoteNumber":74,"Velocity":60,"Duration":188270,"SoundDuration":188270,"Delta":800188754},{"NoteNumber":78,"Velocity":70,"Duration":188270,"SoundDuration":188270,"Delta":800188754},{"NoteNumber":78,"Velocity":67,"Duration":188992,"SoundDuration":188992,"Delta":800377024},{"NoteNumber":79,"Velocity":80,"Duration":188992,"SoundDuration":188992,"Delta":800377024},{"NoteNumber":64,"Velocity":72,"Duration":283608,"SoundDuration":283608,"Delta":800377024},{"NoteNumber":52,"Velocity":72,"Duration":283608,"SoundDuration":283608,"Delta":800377024},{"NoteNumber":67,"Velocity":70,"Duration":188992,"SoundDuration":188992,"Delta":800566016},{"NoteNumber":62,"Velocity":63,"Duration":268526,"SoundDuration":268526,"Delta":800660633},{"NoteNumber":50,"Velocity":53,"Duration":268526,"SoundDuration":268526,"Delta":800660633},{"NoteNumber":78,"Velocity":60,"Duration":141203,"SoundDuration":141203,"Delta":800755009},{"NoteNumber":79,"Velocity":70,"Duration":141203,"SoundDuration":141203,"Delta":800755009},{"NoteNumber":78,"Velocity":67,"Duration":187582,"SoundDuration":187582,"Delta":800943279},{"NoteNumber":79,"Velocity":80,"Duration":187582,"SoundDuration":187582,"Delta":800943279},{"NoteNumber":62,"Velocity":72,"Duration":281259,"SoundDuration":281259,"Delta":800943279},{"NoteNumber":50,"Velocity":61,"Duration":281259,"SoundDuration":281259,"Delta":800943279},{"NoteNumber":67,"Velocity":73,"Duration":187126,"SoundDuration":187126,"Delta":801130862},{"NoteNumber":61,"Velocity":64,"Duration":265911,"SoundDuration":265911,"Delta":801224539},{"NoteNumber":49,"Velocity":53,"Duration":265911,"SoundDuration":265911,"Delta":801224539},{"NoteNumber":78,"Velocity":62,"Duration":139834,"SoundDuration":139834,"Delta":801317989},{"NoteNumber":79,"Velocity":74,"Duration":139834,"SoundDuration":139834,"Delta":801317989},{"NoteNumber":76,"Velocity":69,"Duration":185528,"SoundDuration":185528,"Delta":801504434},{"NoteNumber":79,"Velocity":82,"Duration":185528,"SoundDuration":185528,"Delta":801504434},{"NoteNumber":61,"Velocity":73,"Duration":278292,"SoundDuration":278292,"Delta":801504434},{"NoteNumber":49,"Velocity":61,"Duration":278292,"SoundDuration":278292,"Delta":801504434},{"NoteNumber":67,"Velocity":73,"Duration":185757,"SoundDuration":185757,"Delta":801689963},{"NoteNumber":59,"Velocity":68,"Duration":265455,"SoundDuration":265455,"Delta":801782727},{"NoteNumber":47,"Velocity":57,"Duration":265455,"SoundDuration":265455,"Delta":801782727},{"NoteNumber":76,"Velocity":62,"Duration":139834,"SoundDuration":139834,"Delta":801875721},{"NoteNumber":79,"Velocity":74,"Duration":139834,"SoundDuration":139834,"Delta":801875721},{"NoteNumber":74,"Velocity":70,"Duration":187126,"SoundDuration":187126,"Delta":802062166},{"NoteNumber":76,"Velocity":70,"Duration":187126,"SoundDuration":187126,"Delta":802062166},{"NoteNumber":80,"Velocity":84,"Duration":187126,"SoundDuration":187126,"Delta":802062166},{"NoteNumber":59,"Velocity":75,"Duration":280803,"SoundDuration":280803,"Delta":802062166},{"NoteNumber":47,"Velocity":63,"Duration":280803,"SoundDuration":280803,"Delta":802062166},{"NoteNumber":68,"Velocity":74,"Duration":187582,"SoundDuration":187582,"Delta":802249292},{"NoteNumber":57,"Velocity":69,"Duration":268056,"SoundDuration":268056,"Delta":802342969},{"NoteNumber":45,"Velocity":58,"Duration":268056,"SoundDuration":268056,"Delta":802342969},{"NoteNumber":74,"Velocity":64,"Duration":141203,"SoundDuration":141203,"Delta":802436875},{"NoteNumber":76,"Velocity":64,"Duration":141203,"SoundDuration":141203,"Delta":802436875},{"NoteNumber":80,"Velocity":77,"Duration":141203,"SoundDuration":141203,"Delta":802436875},{"NoteNumber":73,"Velocity":74,"Duration":189693,"SoundDuration":189693,"Delta":802625146},{"NoteNumber":76,"Velocity":74,"Duration":189693,"SoundDuration":189693,"Delta":802625146},{"NoteNumber":81,"Velocity":88,"Duration":189693,"SoundDuration":189693,"Delta":802625146},{"NoteNumber":57,"Velocity":79,"Duration":284778,"SoundDuration":284778,"Delta":802625146},{"NoteNumber":45,"Velocity":67,"Duration":284778,"SoundDuration":284778,"Delta":802625146},{"NoteNumber":69,"Velocity":77,"Duration":189934,"SoundDuration":189934,"Delta":802814840},{"NoteNumber":55,"Velocity":69,"Duration":269890,"SoundDuration":269890,"Delta":802909924},{"NoteNumber":43,"Velocity":58,"Duration":269890,"SoundDuration":269890,"Delta":802909924},{"NoteNumber":73,"Velocity":74,"Duration":141924,"SoundDuration":141924,"Delta":803004774},{"NoteNumber":76,"Velocity":66,"Duration":141924,"SoundDuration":141924,"Delta":803004774},{"NoteNumber":81,"Velocity":78,"Duration":141924,"SoundDuration":141924,"Delta":803004774},{"NoteNumber":73,"Velocity":67,"Duration":188511,"SoundDuration":188511,"Delta":803194007},{"NoteNumber":76,"Velocity":74,"Duration":188511,"SoundDuration":188511,"Delta":803194007},{"NoteNumber":81,"Velocity":88,"Duration":188511,"SoundDuration":188511,"Delta":803194007},{"NoteNumber":55,"Velocity":79,"Duration":282646,"SoundDuration":282646,"Delta":803194007},{"NoteNumber":43,"Velocity":67,"Duration":282646,"SoundDuration":282646,"Delta":803194007},{"NoteNumber":69,"Velocity":80,"Duration":188041,"SoundDuration":188041,"Delta":803382518},{"NoteNumber":53,"Velocity":70,"Duration":267208,"SoundDuration":267208,"Delta":803476654},{"NoteNumber":41,"Velocity":60,"Duration":267208,"SoundDuration":267208,"Delta":803476654},{"NoteNumber":73,"Velocity":68,"Duration":140515,"SoundDuration":140515,"Delta":803570560},{"NoteNumber":76,"Velocity":68,"Duration":140515,"SoundDuration":140515,"Delta":803570560},{"NoteNumber":81,"Velocity":81,"Duration":140515,"SoundDuration":140515,"Delta":803570560},{"NoteNumber":74,"Velocity":67,"Duration":186445,"SoundDuration":186445,"Delta":803757913},{"NoteNumber":77,"Velocity":75,"Duration":186445,"SoundDuration":186445,"Delta":803757913},{"NoteNumber":81,"Velocity":90,"Duration":186445,"SoundDuration":186445,"Delta":803757913},{"NoteNumber":53,"Velocity":80,"Duration":279668,"SoundDuration":279668,"Delta":803757913},{"NoteNumber":41,"Velocity":67,"Duration":279668,"SoundDuration":279668,"Delta":803757913},{"NoteNumber":69,"Velocity":80,"Duration":186445,"SoundDuration":186445,"Delta":803944359},{"NoteNumber":52,"Velocity":74,"Duration":265684,"SoundDuration":265684,"Delta":804037581},{"NoteNumber":40,"Velocity":62,"Duration":265684,"SoundDuration":265684,"Delta":804037581},{"NoteNumber":74,"Velocity":68,"Duration":139834,"SoundDuration":139834,"Delta":804130804},{"NoteNumber":77,"Velocity":68,"Duration":139834,"SoundDuration":139834,"Delta":804130804},{"NoteNumber":81,"Velocity":81,"Duration":139834,"SoundDuration":139834,"Delta":804130804},{"NoteNumber":73,"Velocity":78,"Duration":186445,"SoundDuration":186445,"Delta":804317249},{"NoteNumber":79,"Velocity":78,"Duration":186445,"SoundDuration":186445,"Delta":804317249},{"NoteNumber":81,"Velocity":92,"Duration":186445,"SoundDuration":186445,"Delta":804317249},{"NoteNumber":52,"Velocity":82,"Duration":279668,"SoundDuration":279668,"Delta":804317249},{"NoteNumber":40,"Velocity":69,"Duration":279668,"SoundDuration":279668,"Delta":804317249},{"NoteNumber":69,"Velocity":81,"Duration":186445,"SoundDuration":186445,"Delta":804503695},{"NoteNumber":50,"Velocity":75,"Duration":265684,"SoundDuration":265684,"Delta":804596917},{"NoteNumber":38,"Velocity":63,"Duration":265684,"SoundDuration":265684,"Delta":804596917},{"NoteNumber":73,"Velocity":70,"Duration":139833,"SoundDuration":139833,"Delta":804690140},{"NoteNumber":79,"Velocity":70,"Duration":139833,"SoundDuration":139833,"Delta":804690140},{"NoteNumber":81,"Velocity":84,"Duration":139833,"SoundDuration":139833,"Delta":804690140},{"NoteNumber":74,"Velocity":81,"Duration":186445,"SoundDuration":186445,"Delta":804876585},{"NoteNumber":77,"Velocity":81,"Duration":186445,"SoundDuration":186445,"Delta":804876585},{"NoteNumber":81,"Velocity":96,"Duration":186445,"SoundDuration":186445,"Delta":804876585},{"NoteNumber":38,"Velocity":86,"Duration":559336,"SoundDuration":559336,"Delta":804876585},{"NoteNumber":69,"Velocity":84,"Duration":186445,"SoundDuration":186445,"Delta":805063031},{"NoteNumber":50,"Velocity":75,"Duration":279668,"SoundDuration":279668,"Delta":805156253},{"NoteNumber":45,"Velocity":63,"Duration":279668,"SoundDuration":279668,"Delta":805156253},{"NoteNumber":74,"Velocity":81,"Duration":139833,"SoundDuration":139833,"Delta":805249476},{"NoteNumber":77,"Velocity":70,"Duration":139833,"SoundDuration":139833,"Delta":805249476},{"NoteNumber":81,"Velocity":84,"Duration":139833,"SoundDuration":139833,"Delta":805249476},{"NoteNumber":73,"Velocity":73,"Duration":186445,"SoundDuration":186445,"Delta":805435921},{"NoteNumber":79,"Velocity":80,"Duration":186445,"SoundDuration":186445,"Delta":805435921},{"NoteNumber":81,"Velocity":94,"Duration":186445,"SoundDuration":186445,"Delta":805435921},{"NoteNumber":38,"Velocity":84,"Duration":559336,"SoundDuration":559336,"Delta":805435921},{"NoteNumber":69,"Velocity":86,"Duration":186445,"SoundDuration":186445,"Delta":805622367},{"NoteNumber":52,"Velocity":75,"Duration":279668,"SoundDuration":279668,"Delta":805715589},{"NoteNumber":45,"Velocity":63,"Duration":279668,"SoundDuration":279668,"Delta":805715589},{"NoteNumber":73,"Velocity":73,"Duration":139834,"SoundDuration":139834,"Delta":805808812},{"NoteNumber":79,"Velocity":73,"Duration":139834,"SoundDuration":139834,"Delta":805808812},{"NoteNumber":81,"Velocity":86,"Duration":139834,"SoundDuration":139834,"Delta":805808812},{"NoteNumber":74,"Velocity":70,"Duration":186445,"SoundDuration":186445,"Delta":805995257},{"NoteNumber":77,"Velocity":80,"Duration":186445,"SoundDuration":186445,"Delta":805995257},{"NoteNumber":81,"Velocity":94,"Duration":186445,"SoundDuration":186445,"Delta":805995257},{"NoteNumber":38,"Velocity":84,"Duration":559336,"SoundDuration":559336,"Delta":805995257},{"NoteNumber":69,"Velocity":84,"Duration":186445,"SoundDuration":186445,"Delta":806181703},{"NoteNumber":50,"Velocity":77,"Duration":279668,"SoundDuration":279668,"Delta":806274925},{"NoteNumber":45,"Velocity":64,"Duration":279668,"SoundDuration":279668,"Delta":806274925},{"NoteNumber":74,"Velocity":70,"Duration":139834,"SoundDuration":139834,"Delta":806368148},{"NoteNumber":77,"Velocity":70,"Duration":139834,"SoundDuration":139834,"Delta":806368148},{"NoteNumber":81,"Velocity":84,"Duration":139834,"SoundDuration":139834,"Delta":806368148},{"NoteNumber":73,"Velocity":80,"Duration":186445,"SoundDuration":186445,"Delta":806554593},{"NoteNumber":79,"Velocity":80,"Duration":186445,"SoundDuration":186445,"Delta":806554593},{"NoteNumber":81,"Velocity":94,"Duration":186445,"SoundDuration":186445,"Delta":806554593},{"NoteNumber":38,"Velocity":84,"Duration":559335,"SoundDuration":559335,"Delta":806554593},{"NoteNumber":69,"Velocity":82,"Duration":186445,"SoundDuration":186445,"Delta":806741039},{"NoteNumber":52,"Velocity":77,"Duration":279667,"SoundDuration":279667,"Delta":806834261},{"NoteNumber":45,"Velocity":64,"Duration":279667,"SoundDuration":279667,"Delta":806834261},{"NoteNumber":73,"Velocity":70,"Duration":139833,"SoundDuration":139833,"Delta":806927484},{"NoteNumber":79,"Velocity":70,"Duration":139833,"SoundDuration":139833,"Delta":806927484},{"NoteNumber":81,"Velocity":84,"Duration":139833,"SoundDuration":139833,"Delta":806927484},{"NoteNumber":86,"Velocity":96,"Duration":185528,"SoundDuration":185528,"Delta":807113929},{"NoteNumber":77,"Velocity":81,"Duration":185528,"SoundDuration":185528,"Delta":807113929},{"NoteNumber":81,"Velocity":81,"Duration":185528,"SoundDuration":185528,"Delta":807113929},{"NoteNumber":38,"Velocity":86,"Duration":556586,"SoundDuration":556586,"Delta":807113929},{"NoteNumber":74,"Velocity":84,"Duration":185528,"SoundDuration":185528,"Delta":807299458},{"NoteNumber":50,"Velocity":77,"Duration":278293,"SoundDuration":278293,"Delta":807392222},{"NoteNumber":45,"Velocity":64,"Duration":278293,"SoundDuration":278293,"Delta":807392222},{"NoteNumber":86,"Velocity":97,"Duration":139146,"SoundDuration":139146,"Delta":807484987},{"NoteNumber":77,"Velocity":72,"Duration":139146,"SoundDuration":139146,"Delta":807484987},{"NoteNumber":81,"Velocity":72,"Duration":139146,"SoundDuration":139146,"Delta":807484987},{"NoteNumber":85,"Velocity":88,"Duration":185757,"SoundDuration":185757,"Delta":807670515},{"NoteNumber":79,"Velocity":81,"Duration":185757,"SoundDuration":185757,"Delta":807670515},{"NoteNumber":81,"Velocity":81,"Duration":185757,"SoundDuration":185757,"Delta":807670515},{"NoteNumber":38,"Velocity":85,"Duration":558648,"SoundDuration":558648,"Delta":807670515},{"NoteNumber":73,"Velocity":88,"Duration":186445,"SoundDuration":186445,"Delta":807856273},{"NoteNumber":52,"Velocity":78,"Duration":279668,"SoundDuration":279668,"Delta":807949496},{"NoteNumber":45,"Velocity":66,"Duration":279668,"SoundDuration":279668,"Delta":807949496},{"NoteNumber":85,"Velocity":89,"Duration":139833,"SoundDuration":139833,"Delta":808042718},{"NoteNumber":79,"Velocity":74,"Duration":139833,"SoundDuration":139833,"Delta":808042718},{"NoteNumber":81,"Velocity":74,"Duration":139833,"SoundDuration":139833,"Delta":808042718},{"NoteNumber":86,"Velocity":88,"Duration":186445,"SoundDuration":186445,"Delta":808229164},{"NoteNumber":77,"Velocity":81,"Duration":186445,"SoundDuration":186445,"Delta":808229164},{"NoteNumber":81,"Velocity":81,"Duration":186445,"SoundDuration":186445,"Delta":808229164},{"NoteNumber":38,"Velocity":88,"Duration":560698,"SoundDuration":560698,"Delta":808229164},{"NoteNumber":74,"Velocity":88,"Duration":186899,"SoundDuration":186899,"Delta":808415609},{"NoteNumber":50,"Velocity":81,"Duration":281030,"SoundDuration":281030,"Delta":808508832},{"NoteNumber":45,"Velocity":68,"Duration":281030,"SoundDuration":281030,"Delta":808508832},{"NoteNumber":86,"Velocity":89,"Duration":140515,"SoundDuration":140515,"Delta":808602509},{"NoteNumber":77,"Velocity":74,"Duration":140515,"SoundDuration":140515,"Delta":808602509},{"NoteNumber":81,"Velocity":74,"Duration":140515,"SoundDuration":140515,"Delta":808602509},{"NoteNumber":85,"Velocity":100,"Duration":187353,"SoundDuration":187353,"Delta":808789862},{"NoteNumber":79,"Velocity":84,"Duration":187353,"SoundDuration":187353,"Delta":808789862},{"NoteNumber":81,"Velocity":84,"Duration":187353,"SoundDuration":187353,"Delta":808789862},{"NoteNumber":38,"Velocity":89,"Duration":562978,"SoundDuration":562978,"Delta":808789862},{"NoteNumber":73,"Velocity":89,"Duration":187353,"SoundDuration":187353,"Delta":808977216},{"NoteNumber":52,"Velocity":82,"Duration":281947,"SoundDuration":281947,"Delta":809070893},{"NoteNumber":45,"Velocity":69,"Duration":281947,"SoundDuration":281947,"Delta":809070893},{"NoteNumber":85,"Velocity":91,"Duration":141203,"SoundDuration":141203,"Delta":809164570},{"NoteNumber":79,"Velocity":77,"Duration":141203,"SoundDuration":141203,"Delta":809164570},{"NoteNumber":81,"Velocity":77,"Duration":141203,"SoundDuration":141203,"Delta":809164570},{"NoteNumber":74,"Velocity":88,"Duration":313446,"SoundDuration":313446,"Delta":809352840},{"NoteNumber":77,"Velocity":88,"Duration":313446,"SoundDuration":313446,"Delta":809352840},{"NoteNumber":81,"Velocity":88,"Duration":313446,"SoundDuration":313446,"Delta":809352840},{"NoteNumber":86,"Velocity":103,"Duration":313446,"SoundDuration":313446,"Delta":809352840},{"NoteNumber":38,"Velocity":77,"Duration":313446,"SoundDuration":313446,"Delta":809352840},{"NoteNumber":45,"Velocity":77,"Duration":313446,"SoundDuration":313446,"Delta":809352840},{"NoteNumber":50,"Velocity":91,"Duration":313446,"SoundDuration":313446,"Delta":809352840},{"NoteNumber":69,"Velocity":29,"Duration":297774,"SoundDuration":297774,"Delta":809666287},{"NoteNumber":65,"Velocity":24,"Duration":297774,"SoundDuration":297774,"Delta":809666287},{"NoteNumber":62,"Velocity":20,"Duration":297774,"SoundDuration":297774,"Delta":809666287},{"NoteNumber":69,"Velocity":30,"Duration":299401,"SoundDuration":299401,"Delta":809979734},{"NoteNumber":65,"Velocity":25,"Duration":299401,"SoundDuration":299401,"Delta":809979734},{"NoteNumber":62,"Velocity":21,"Duration":299401,"SoundDuration":299401,"Delta":809979734},{"NoteNumber":69,"Velocity":30,"Duration":299401,"SoundDuration":299401,"Delta":810294893},{"NoteNumber":65,"Velocity":25,"Duration":299401,"SoundDuration":299401,"Delta":810294893},{"NoteNumber":62,"Velocity":21,"Duration":299401,"SoundDuration":299401,"Delta":810294893},{"NoteNumber":69,"Velocity":29,"Duration":299401,"SoundDuration":299401,"Delta":810610052},{"NoteNumber":65,"Velocity":24,"Duration":299401,"SoundDuration":299401,"Delta":810610052},{"NoteNumber":62,"Velocity":20,"Duration":299401,"SoundDuration":299401,"Delta":810610052},{"NoteNumber":69,"Velocity":29,"Duration":299401,"SoundDuration":299401,"Delta":810925211},{"NoteNumber":65,"Velocity":24,"Duration":299401,"SoundDuration":299401,"Delta":810925211},{"NoteNumber":62,"Velocity":20,"Duration":299401,"SoundDuration":299401,"Delta":810925211},{"NoteNumber":69,"Velocity":27,"Duration":299401,"SoundDuration":299401,"Delta":811240370},{"NoteNumber":65,"Velocity":23,"Duration":299401,"SoundDuration":299401,"Delta":811240370},{"NoteNumber":62,"Velocity":19,"Duration":299401,"SoundDuration":299401,"Delta":811240370},{"NoteNumber":69,"Velocity":27,"Duration":299401,"SoundDuration":299401,"Delta":811555529},{"NoteNumber":65,"Velocity":23,"Duration":299401,"SoundDuration":299401,"Delta":811555529},{"NoteNumber":62,"Velocity":19,"Duration":299401,"SoundDuration":299401,"Delta":811555529},{"NoteNumber":74,"Velocity":71,"Duration":1267025,"SoundDuration":1267025,"Delta":811870688},{"NoteNumber":69,"Velocity":28,"Duration":300918,"SoundDuration":300918,"Delta":811870688},{"NoteNumber":65,"Velocity":24,"Duration":300918,"SoundDuration":300918,"Delta":811870688},{"NoteNumber":62,"Velocity":20,"Duration":300918,"SoundDuration":300918,"Delta":811870688},{"NoteNumber":69,"Velocity":25,"Duration":300918,"SoundDuration":300918,"Delta":812187445},{"NoteNumber":65,"Velocity":21,"Duration":300918,"SoundDuration":300918,"Delta":812187445},{"NoteNumber":62,"Velocity":17,"Duration":300918,"SoundDuration":300918,"Delta":812187445},{"NoteNumber":69,"Velocity":25,"Duration":300918,"SoundDuration":300918,"Delta":812504201},{"NoteNumber":65,"Velocity":21,"Duration":300918,"SoundDuration":300918,"Delta":812504201},{"NoteNumber":62,"Velocity":17,"Duration":300918,"SoundDuration":300918,"Delta":812504201},{"NoteNumber":69,"Velocity":25,"Duration":300918,"SoundDuration":300918,"Delta":812820958},{"NoteNumber":65,"Velocity":21,"Duration":300918,"SoundDuration":300918,"Delta":812820958},{"NoteNumber":62,"Velocity":17,"Duration":300918,"SoundDuration":300918,"Delta":812820958},{"NoteNumber":77,"Velocity":61,"Duration":310494,"SoundDuration":310494,"Delta":813137714},{"NoteNumber":69,"Velocity":25,"Duration":294969,"SoundDuration":294969,"Delta":813137714},{"NoteNumber":65,"Velocity":21,"Duration":294969,"SoundDuration":294969,"Delta":813137714},{"NoteNumber":62,"Velocity":17,"Duration":294969,"SoundDuration":294969,"Delta":813137714},{"NoteNumber":69,"Velocity":25,"Duration":294969,"SoundDuration":294969,"Delta":813448209},{"NoteNumber":65,"Velocity":21,"Duration":294969,"SoundDuration":294969,"Delta":813448209},{"NoteNumber":62,"Velocity":17,"Duration":294969,"SoundDuration":294969,"Delta":813448209},{"NoteNumber":81,"Velocity":61,"Duration":310494,"SoundDuration":310494,"Delta":813758703},{"NoteNumber":69,"Velocity":25,"Duration":294969,"SoundDuration":294969,"Delta":813758703},{"NoteNumber":65,"Velocity":21,"Duration":294969,"SoundDuration":294969,"Delta":813758703},{"NoteNumber":62,"Velocity":17,"Duration":294969,"SoundDuration":294969,"Delta":813758703},{"NoteNumber":69,"Velocity":25,"Duration":289794,"SoundDuration":289794,"Delta":814069198},{"NoteNumber":65,"Velocity":21,"Duration":294969,"SoundDuration":294969,"Delta":814069198},{"NoteNumber":62,"Velocity":17,"Duration":294969,"SoundDuration":294969,"Delta":814069198},{"NoteNumber":69,"Velocity":71,"Duration":1261746,"SoundDuration":1261746,"Delta":814379692},{"NoteNumber":61,"Velocity":20,"Duration":300918,"SoundDuration":300918,"Delta":814379692},{"NoteNumber":65,"Velocity":24,"Duration":300918,"SoundDuration":300918,"Delta":814379692},{"NoteNumber":61,"Velocity":17,"Duration":300918,"SoundDuration":300918,"Delta":814696449},{"NoteNumber":65,"Velocity":21,"Duration":300918,"SoundDuration":300918,"Delta":814696449},{"NoteNumber":61,"Velocity":17,"Duration":300918,"SoundDuration":300918,"Delta":815013205},{"NoteNumber":65,"Velocity":21,"Duration":300918,"SoundDuration":300918,"Delta":815013205},{"NoteNumber":61,"Velocity":17,"Duration":300918,"SoundDuration":300918,"Delta":815329962},{"NoteNumber":65,"Velocity":21,"Duration":300918,"SoundDuration":300918,"Delta":815329962},{"NoteNumber":77,"Velocity":59,"Duration":310494,"SoundDuration":310494,"Delta":815646718},{"NoteNumber":61,"Velocity":17,"Duration":294969,"SoundDuration":294969,"Delta":815646718},{"NoteNumber":65,"Velocity":21,"Duration":294969,"SoundDuration":294969,"Delta":815646718},{"NoteNumber":69,"Velocity":25,"Duration":294969,"SoundDuration":294969,"Delta":815646718},{"NoteNumber":61,"Velocity":17,"Duration":294969,"SoundDuration":294969,"Delta":815957213},{"NoteNumber":65,"Velocity":21,"Duration":294969,"SoundDuration":294969,"Delta":815957213},{"NoteNumber":69,"Velocity":25,"Duration":294969,"SoundDuration":294969,"Delta":815957213},{"NoteNumber":81,"Velocity":59,"Duration":310494,"SoundDuration":310494,"Delta":816267707},{"NoteNumber":61,"Velocity":17,"Duration":294969,"SoundDuration":294969,"Delta":816267707},{"NoteNumber":65,"Velocity":21,"Duration":294969,"SoundDuration":294969,"Delta":816267707},{"NoteNumber":69,"Velocity":25,"Duration":294969,"SoundDuration":294969,"Delta":816267707},{"NoteNumber":61,"Velocity":17,"Duration":294969,"SoundDuration":294969,"Delta":816578202},{"NoteNumber":65,"Velocity":21,"Duration":294969,"SoundDuration":294969,"Delta":816578202},{"NoteNumber":69,"Velocity":25,"Duration":294969,"SoundDuration":294969,"Delta":816578202},{"NoteNumber":74,"Velocity":71,"Duration":1260901,"SoundDuration":1260901,"Delta":816888696},{"NoteNumber":65,"Velocity":24,"Duration":299464,"SoundDuration":299464,"Delta":816888696},{"NoteNumber":62,"Velocity":20,"Duration":299464,"SoundDuration":299464,"Delta":816888696},{"NoteNumber":69,"Velocity":28,"Duration":299464,"SoundDuration":299464,"Delta":816888696},{"NoteNumber":65,"Velocity":21,"Duration":299464,"SoundDuration":299464,"Delta":817203922},{"NoteNumber":62,"Velocity":17,"Duration":299464,"SoundDuration":299464,"Delta":817203922},{"NoteNumber":69,"Velocity":25,"Duration":299464,"SoundDuration":299464,"Delta":817203922},{"NoteNumber":65,"Velocity":21,"Duration":299464,"SoundDuration":299464,"Delta":817519147},{"NoteNumber":62,"Velocity":17,"Duration":299464,"SoundDuration":299464,"Delta":817519147},{"NoteNumber":69,"Velocity":25,"Duration":299464,"SoundDuration":299464,"Delta":817519147},{"NoteNumber":62,"Velocity":17,"Duration":299464,"SoundDuration":299464,"Delta":817834373},{"NoteNumber":69,"Velocity":25,"Duration":299464,"SoundDuration":299464,"Delta":817834373},{"NoteNumber":65,"Velocity":21,"Duration":299464,"SoundDuration":299464,"Delta":817834373},{"NoteNumber":77,"Velocity":60,"Duration":310494,"SoundDuration":310494,"Delta":818149598},{"NoteNumber":69,"Velocity":25,"Duration":294969,"SoundDuration":294969,"Delta":818149598},{"NoteNumber":65,"Velocity":21,"Duration":294969,"SoundDuration":294969,"Delta":818149598},{"NoteNumber":62,"Velocity":17,"Duration":294969,"SoundDuration":294969,"Delta":818149598},{"NoteNumber":69,"Velocity":25,"Duration":294969,"SoundDuration":294969,"Delta":818460093},{"NoteNumber":65,"Velocity":21,"Duration":294969,"SoundDuration":294969,"Delta":818460093},{"NoteNumber":62,"Velocity":17,"Duration":294969,"SoundDuration":294969,"Delta":818460093},{"NoteNumber":81,"Velocity":60,"Duration":310494,"SoundDuration":310494,"Delta":818770587},{"NoteNumber":69,"Velocity":26,"Duration":294969,"SoundDuration":294969,"Delta":818770587},{"NoteNumber":65,"Velocity":21,"Duration":294969,"SoundDuration":294969,"Delta":818770587},{"NoteNumber":61,"Velocity":17,"Duration":294969,"SoundDuration":294969,"Delta":818770587},{"NoteNumber":69,"Velocity":27,"Duration":294969,"SoundDuration":294969,"Delta":819081082},{"NoteNumber":65,"Velocity":22,"Duration":294969,"SoundDuration":294969,"Delta":819081082},{"NoteNumber":61,"Velocity":18,"Duration":294969,"SoundDuration":294969,"Delta":819081082},{"NoteNumber":84,"Velocity":66,"Duration":308959,"SoundDuration":308959,"Delta":819391576},{"NoteNumber":60,"Velocity":23,"Duration":293511,"SoundDuration":293511,"Delta":819391576},{"NoteNumber":65,"Velocity":28,"Duration":293511,"SoundDuration":293511,"Delta":819391576},{"NoteNumber":69,"Velocity":34,"Duration":293511,"SoundDuration":293511,"Delta":819391576},{"NoteNumber":81,"Velocity":57,"Duration":293512,"SoundDuration":293512,"Delta":819700536},{"NoteNumber":60,"Velocity":23,"Duration":293512,"SoundDuration":293512,"Delta":819700536},{"NoteNumber":65,"Velocity":28,"Duration":293512,"SoundDuration":293512,"Delta":819700536},{"NoteNumber":69,"Velocity":34,"Duration":293512,"SoundDuration":293512,"Delta":819700536},{"NoteNumber":81,"Velocity":60,"Duration":308959,"SoundDuration":308959,"Delta":820009496},{"NoteNumber":60,"Velocity":22,"Duration":293511,"SoundDuration":293511,"Delta":820009496},{"NoteNumber":65,"Velocity":27,"Duration":293511,"SoundDuration":293511,"Delta":820009496},{"NoteNumber":69,"Velocity":33,"Duration":293511,"SoundDuration":293511,"Delta":820009496},{"NoteNumber":79,"Velocity":55,"Duration":292642,"SoundDuration":292642,"Delta":820318456},{"NoteNumber":60,"Velocity":22,"Duration":292642,"SoundDuration":292642,"Delta":820318456},{"NoteNumber":65,"Velocity":27,"Duration":292642,"SoundDuration":292642,"Delta":820318456},{"NoteNumber":69,"Velocity":33,"Duration":292642,"SoundDuration":292642,"Delta":820318456},{"NoteNumber":79,"Velocity":58,"Duration":302994,"SoundDuration":302994,"Delta":820626174},{"NoteNumber":60,"Velocity":22,"Duration":287770,"SoundDuration":287770,"Delta":820626174},{"NoteNumber":65,"Velocity":26,"Duration":287770,"SoundDuration":287770,"Delta":820626174},{"NoteNumber":69,"Velocity":31,"Duration":287770,"SoundDuration":287770,"Delta":820626174},{"NoteNumber":77,"Velocity":54,"Duration":289252,"SoundDuration":289252,"Delta":820929169},{"NoteNumber":60,"Velocity":22,"Duration":289252,"SoundDuration":289252,"Delta":820929169},{"NoteNumber":65,"Velocity":26,"Duration":289252,"SoundDuration":289252,"Delta":820929169},{"NoteNumber":69,"Velocity":31,"Duration":289252,"SoundDuration":289252,"Delta":820929169},{"NoteNumber":77,"Velocity":56,"Duration":304476,"SoundDuration":304476,"Delta":821233645},{"NoteNumber":61,"Velocity":21,"Duration":289252,"SoundDuration":289252,"Delta":821233645},{"NoteNumber":65,"Velocity":25,"Duration":289252,"SoundDuration":289252,"Delta":821233645},{"NoteNumber":69,"Velocity":30,"Duration":289252,"SoundDuration":289252,"Delta":821233645},{"NoteNumber":76,"Velocity":52,"Duration":289252,"SoundDuration":289252,"Delta":821538121},{"NoteNumber":61,"Velocity":21,"Duration":289252,"SoundDuration":289252,"Delta":821538121},{"NoteNumber":65,"Velocity":25,"Duration":289252,"SoundDuration":289252,"Delta":821538121},{"NoteNumber":69,"Velocity":30,"Duration":289252,"SoundDuration":289252,"Delta":821538121},{"NoteNumber":76,"Velocity":55,"Duration":305095,"SoundDuration":305095,"Delta":821842597},{"NoteNumber":62,"Velocity":26,"Duration":289840,"SoundDuration":289840,"Delta":821842597},{"NoteNumber":65,"Velocity":31,"Duration":289840,"SoundDuration":289840,"Delta":821842597},{"NoteNumber":69,"Velocity":31,"Duration":289840,"SoundDuration":289840,"Delta":821842597},{"NoteNumber":77,"Velocity":51,"Duration":291381,"SoundDuration":291381,"Delta":822147692},{"NoteNumber":62,"Velocity":26,"Duration":291381,"SoundDuration":291381,"Delta":822147692},{"NoteNumber":65,"Velocity":31,"Duration":291381,"SoundDuration":291381,"Delta":822147692},{"NoteNumber":69,"Velocity":31,"Duration":291381,"SoundDuration":291381,"Delta":822147692},{"NoteNumber":77,"Velocity":56,"Duration":306716,"SoundDuration":306716,"Delta":822454409},{"NoteNumber":65,"Velocity":26,"Duration":291381,"SoundDuration":291381,"Delta":822454409},{"NoteNumber":69,"Velocity":31,"Duration":291381,"SoundDuration":291381,"Delta":822454409},{"NoteNumber":74,"Velocity":52,"Duration":291381,"SoundDuration":291381,"Delta":822761126},{"NoteNumber":65,"Velocity":26,"Duration":291381,"SoundDuration":291381,"Delta":822761126},{"NoteNumber":69,"Velocity":31,"Duration":291381,"SoundDuration":291381,"Delta":822761126},{"NoteNumber":74,"Velocity":55,"Duration":314883,"SoundDuration":314883,"Delta":823067843},{"NoteNumber":69,"Velocity":31,"Duration":298947,"SoundDuration":298947,"Delta":823067843},{"NoteNumber":72,"Velocity":50,"Duration":307260,"SoundDuration":307260,"Delta":823382726},{"NoteNumber":69,"Velocity":31,"Duration":307260,"SoundDuration":307260,"Delta":823382726},{"NoteNumber":74,"Velocity":55,"Duration":329491,"SoundDuration":329491,"Delta":823706288},{"NoteNumber":60,"Velocity":26,"Duration":313000,"SoundDuration":313000,"Delta":823706288},{"NoteNumber":64,"Velocity":31,"Duration":313000,"SoundDuration":313000,"Delta":823706288},{"NoteNumber":70,"Velocity":31,"Duration":313000,"SoundDuration":313000,"Delta":823706288},{"NoteNumber":72,"Velocity":51,"Duration":313324,"SoundDuration":313324,"Delta":824035779},{"NoteNumber":60,"Velocity":26,"Duration":313324,"SoundDuration":313324,"Delta":824035779},{"NoteNumber":64,"Velocity":31,"Duration":313324,"SoundDuration":313324,"Delta":824035779},{"NoteNumber":70,"Velocity":31,"Duration":313324,"SoundDuration":313324,"Delta":824035779},{"NoteNumber":69,"Velocity":52,"Duration":301109,"SoundDuration":301109,"Delta":824365594},{"NoteNumber":69,"Velocity":31,"Duration":297929,"SoundDuration":297929,"Delta":824682551},{"NoteNumber":65,"Velocity":25,"Duration":297929,"SoundDuration":297929,"Delta":824682551},{"NoteNumber":62,"Velocity":21,"Duration":297929,"SoundDuration":297929,"Delta":824682551},{"NoteNumber":69,"Velocity":32,"Duration":297929,"SoundDuration":297929,"Delta":824996162},{"NoteNumber":65,"Velocity":26,"Duration":297929,"SoundDuration":297929,"Delta":824996162},{"NoteNumber":62,"Velocity":22,"Duration":297929,"SoundDuration":297929,"Delta":824996162},{"NoteNumber":69,"Velocity":32,"Duration":297929,"SoundDuration":297929,"Delta":825309772},{"NoteNumber":65,"Velocity":26,"Duration":297929,"SoundDuration":297929,"Delta":825309772},{"NoteNumber":62,"Velocity":22,"Duration":297929,"SoundDuration":297929,"Delta":825309772},{"NoteNumber":69,"Velocity":31,"Duration":297929,"SoundDuration":297929,"Delta":825623383},{"NoteNumber":65,"Velocity":25,"Duration":297929,"SoundDuration":297929,"Delta":825623383},{"NoteNumber":62,"Velocity":21,"Duration":297929,"SoundDuration":297929,"Delta":825623383},{"NoteNumber":69,"Velocity":31,"Duration":297929,"SoundDuration":297929,"Delta":825936993},{"NoteNumber":65,"Velocity":25,"Duration":297929,"SoundDuration":297929,"Delta":825936993},{"NoteNumber":62,"Velocity":21,"Duration":297929,"SoundDuration":297929,"Delta":825936993},{"NoteNumber":69,"Velocity":29,"Duration":297929,"SoundDuration":297929,"Delta":826250604},{"NoteNumber":65,"Velocity":24,"Duration":297929,"SoundDuration":297929,"Delta":826250604},{"NoteNumber":62,"Velocity":20,"Duration":297929,"SoundDuration":297929,"Delta":826250604},{"NoteNumber":69,"Velocity":29,"Duration":297929,"SoundDuration":297929,"Delta":826564214},{"NoteNumber":65,"Velocity":24,"Duration":297929,"SoundDuration":297929,"Delta":826564214},{"NoteNumber":62,"Velocity":20,"Duration":297929,"SoundDuration":297929,"Delta":826564214},{"NoteNumber":74,"Velocity":32,"Duration":300918,"SoundDuration":300918,"Delta":826877825},{"NoteNumber":69,"Velocity":27,"Duration":300918,"SoundDuration":300918,"Delta":826877825},{"NoteNumber":65,"Velocity":22,"Duration":300918,"SoundDuration":300918,"Delta":826877825},{"NoteNumber":50,"Velocity":56,"Duration":1267025,"SoundDuration":1267025,"Delta":826877825},{"NoteNumber":74,"Velocity":32,"Duration":300918,"SoundDuration":300918,"Delta":827194581},{"NoteNumber":69,"Velocity":27,"Duration":300918,"SoundDuration":300918,"Delta":827194581},{"NoteNumber":65,"Velocity":22,"Duration":300918,"SoundDuration":300918,"Delta":827194581},{"NoteNumber":74,"Velocity":32,"Duration":300918,"SoundDuration":300918,"Delta":827511338},{"NoteNumber":69,"Velocity":27,"Duration":300918,"SoundDuration":300918,"Delta":827511338},{"NoteNumber":65,"Velocity":22,"Duration":300918,"SoundDuration":300918,"Delta":827511338},{"NoteNumber":74,"Velocity":32,"Duration":300918,"SoundDuration":300918,"Delta":827828094},{"NoteNumber":69,"Velocity":27,"Duration":300918,"SoundDuration":300918,"Delta":827828094},{"NoteNumber":65,"Velocity":22,"Duration":300918,"SoundDuration":300918,"Delta":827828094},{"NoteNumber":74,"Velocity":32,"Duration":294969,"SoundDuration":294969,"Delta":828144851},{"NoteNumber":69,"Velocity":27,"Duration":294969,"SoundDuration":294969,"Delta":828144851},{"NoteNumber":65,"Velocity":22,"Duration":294969,"SoundDuration":294969,"Delta":828144851},{"NoteNumber":53,"Velocity":48,"Duration":310494,"SoundDuration":310494,"Delta":828144851},{"NoteNumber":74,"Velocity":32,"Duration":294969,"SoundDuration":294969,"Delta":828455345},{"NoteNumber":69,"Velocity":27,"Duration":294969,"SoundDuration":294969,"Delta":828455345},{"NoteNumber":65,"Velocity":22,"Duration":294969,"SoundDuration":294969,"Delta":828455345},{"NoteNumber":74,"Velocity":32,"Duration":294969,"SoundDuration":294969,"Delta":828765840},{"NoteNumber":69,"Velocity":27,"Duration":294969,"SoundDuration":294969,"Delta":828765840},{"NoteNumber":65,"Velocity":22,"Duration":294969,"SoundDuration":294969,"Delta":828765840},{"NoteNumber":57,"Velocity":48,"Duration":310494,"SoundDuration":310494,"Delta":828765840},{"NoteNumber":74,"Velocity":32,"Duration":289794,"SoundDuration":289794,"Delta":829076334},{"NoteNumber":69,"Velocity":27,"Duration":294969,"SoundDuration":294969,"Delta":829076334},{"NoteNumber":65,"Velocity":22,"Duration":294969,"SoundDuration":294969,"Delta":829076334},{"NoteNumber":65,"Velocity":22,"Duration":300918,"SoundDuration":300918,"Delta":829386829},{"NoteNumber":69,"Velocity":27,"Duration":300918,"SoundDuration":300918,"Delta":829386829},{"NoteNumber":73,"Velocity":32,"Duration":300918,"SoundDuration":300918,"Delta":829386829},{"NoteNumber":45,"Velocity":56,"Duration":1267025,"SoundDuration":1267025,"Delta":829386829},{"NoteNumber":65,"Velocity":22,"Duration":300918,"SoundDuration":300918,"Delta":829703585},{"NoteNumber":69,"Velocity":27,"Duration":300918,"SoundDuration":300918,"Delta":829703585},{"NoteNumber":73,"Velocity":32,"Duration":300918,"SoundDuration":300918,"Delta":829703585},{"NoteNumber":65,"Velocity":22,"Duration":300918,"SoundDuration":300918,"Delta":830020342},{"NoteNumber":69,"Velocity":27,"Duration":300918,"SoundDuration":300918,"Delta":830020342},{"NoteNumber":73,"Velocity":32,"Duration":300918,"SoundDuration":300918,"Delta":830020342},{"NoteNumber":65,"Velocity":22,"Duration":300918,"SoundDuration":300918,"Delta":830337098},{"NoteNumber":69,"Velocity":27,"Duration":300918,"SoundDuration":300918,"Delta":830337098},{"NoteNumber":73,"Velocity":32,"Duration":300918,"SoundDuration":300918,"Delta":830337098},{"NoteNumber":65,"Velocity":22,"Duration":294969,"SoundDuration":294969,"Delta":830653855},{"NoteNumber":69,"Velocity":27,"Duration":294969,"SoundDuration":294969,"Delta":830653855},{"NoteNumber":73,"Velocity":32,"Duration":294969,"SoundDuration":294969,"Delta":830653855},{"NoteNumber":53,"Velocity":47,"Duration":310494,"SoundDuration":310494,"Delta":830653855},{"NoteNumber":65,"Velocity":22,"Duration":294969,"SoundDuration":294969,"Delta":830964349},{"NoteNumber":69,"Velocity":27,"Duration":294969,"SoundDuration":294969,"Delta":830964349},{"NoteNumber":73,"Velocity":32,"Duration":294969,"SoundDuration":294969,"Delta":830964349},{"NoteNumber":65,"Velocity":22,"Duration":294969,"SoundDuration":294969,"Delta":831274844},{"NoteNumber":69,"Velocity":27,"Duration":294969,"SoundDuration":294969,"Delta":831274844},{"NoteNumber":73,"Velocity":32,"Duration":294969,"SoundDuration":294969,"Delta":831274844},{"NoteNumber":57,"Velocity":47,"Duration":310494,"SoundDuration":310494,"Delta":831274844},{"NoteNumber":65,"Velocity":22,"Duration":294969,"SoundDuration":294969,"Delta":831585338},{"NoteNumber":69,"Velocity":27,"Duration":294969,"SoundDuration":294969,"Delta":831585338},{"NoteNumber":73,"Velocity":32,"Duration":294969,"SoundDuration":294969,"Delta":831585338},{"NoteNumber":69,"Velocity":27,"Duration":299464,"SoundDuration":299464,"Delta":831895833},{"NoteNumber":65,"Velocity":22,"Duration":299464,"SoundDuration":299464,"Delta":831895833},{"NoteNumber":74,"Velocity":32,"Duration":299464,"SoundDuration":299464,"Delta":831895833},{"NoteNumber":50,"Velocity":56,"Duration":1260901,"SoundDuration":1260901,"Delta":831895833},{"NoteNumber":69,"Velocity":27,"Duration":299464,"SoundDuration":299464,"Delta":832211058},{"NoteNumber":65,"Velocity":22,"Duration":299464,"SoundDuration":299464,"Delta":832211058},{"NoteNumber":74,"Velocity":32,"Duration":299464,"SoundDuration":299464,"Delta":832211058},{"NoteNumber":69,"Velocity":27,"Duration":299464,"SoundDuration":299464,"Delta":832526284},{"NoteNumber":65,"Velocity":22,"Duration":299464,"SoundDuration":299464,"Delta":832526284},{"NoteNumber":74,"Velocity":32,"Duration":299464,"SoundDuration":299464,"Delta":832526284},{"NoteNumber":65,"Velocity":22,"Duration":299464,"SoundDuration":299464,"Delta":832841509},{"NoteNumber":74,"Velocity":32,"Duration":299464,"SoundDuration":299464,"Delta":832841509},{"NoteNumber":69,"Velocity":27,"Duration":299464,"SoundDuration":299464,"Delta":832841509},{"NoteNumber":74,"Velocity":32,"Duration":294969,"SoundDuration":294969,"Delta":833156735},{"NoteNumber":69,"Velocity":27,"Duration":294969,"SoundDuration":294969,"Delta":833156735},{"NoteNumber":65,"Velocity":22,"Duration":294969,"SoundDuration":294969,"Delta":833156735},{"NoteNumber":53,"Velocity":48,"Duration":310494,"SoundDuration":310494,"Delta":833156735},{"NoteNumber":74,"Velocity":32,"Duration":294969,"SoundDuration":294969,"Delta":833467229},{"NoteNumber":69,"Velocity":27,"Duration":294969,"SoundDuration":294969,"Delta":833467229},{"NoteNumber":65,"Velocity":22,"Duration":294969,"SoundDuration":294969,"Delta":833467229},{"NoteNumber":73,"Velocity":33,"Duration":294969,"SoundDuration":294969,"Delta":833777724},{"NoteNumber":69,"Velocity":27,"Duration":294969,"SoundDuration":294969,"Delta":833777724},{"NoteNumber":65,"Velocity":22,"Duration":294969,"SoundDuration":294969,"Delta":833777724},{"NoteNumber":57,"Velocity":48,"Duration":310494,"SoundDuration":310494,"Delta":833777724},{"NoteNumber":73,"Velocity":34,"Duration":294969,"SoundDuration":294969,"Delta":834088218},{"NoteNumber":69,"Velocity":28,"Duration":294969,"SoundDuration":294969,"Delta":834088218},{"NoteNumber":65,"Velocity":23,"Duration":294969,"SoundDuration":294969,"Delta":834088218},{"NoteNumber":65,"Velocity":27,"Duration":293511,"SoundDuration":293511,"Delta":834398713},{"NoteNumber":69,"Velocity":32,"Duration":293511,"SoundDuration":293511,"Delta":834398713},{"NoteNumber":72,"Velocity":39,"Duration":293511,"SoundDuration":293511,"Delta":834398713},{"NoteNumber":60,"Velocity":52,"Duration":308959,"SoundDuration":308959,"Delta":834398713},{"NoteNumber":65,"Velocity":27,"Duration":293512,"SoundDuration":293512,"Delta":834707673},{"NoteNumber":69,"Velocity":32,"Duration":293512,"SoundDuration":293512,"Delta":834707673},{"NoteNumber":72,"Velocity":39,"Duration":293512,"SoundDuration":293512,"Delta":834707673},{"NoteNumber":57,"Velocity":45,"Duration":293512,"SoundDuration":293512,"Delta":834707673},{"NoteNumber":65,"Velocity":26,"Duration":293511,"SoundDuration":293511,"Delta":835016633},{"NoteNumber":69,"Velocity":31,"Duration":293511,"SoundDuration":293511,"Delta":835016633},{"NoteNumber":72,"Velocity":37,"Duration":293511,"SoundDuration":293511,"Delta":835016633},{"NoteNumber":57,"Velocity":48,"Duration":308959,"SoundDuration":308959,"Delta":835016633},{"NoteNumber":65,"Velocity":26,"Duration":292642,"SoundDuration":292642,"Delta":835325593},{"NoteNumber":69,"Velocity":31,"Duration":292642,"SoundDuration":292642,"Delta":835325593},{"NoteNumber":72,"Velocity":37,"Duration":292642,"SoundDuration":292642,"Delta":835325593},{"NoteNumber":55,"Velocity":44,"Duration":292642,"SoundDuration":292642,"Delta":835325593},{"NoteNumber":65,"Velocity":24,"Duration":287770,"SoundDuration":287770,"Delta":835633311},{"NoteNumber":69,"Velocity":29,"Duration":287770,"SoundDuration":287770,"Delta":835633311},{"NoteNumber":72,"Velocity":35,"Duration":287770,"SoundDuration":287770,"Delta":835633311},{"NoteNumber":55,"Velocity":46,"Duration":302994,"SoundDuration":302994,"Delta":835633311},{"NoteNumber":65,"Velocity":24,"Duration":289252,"SoundDuration":289252,"Delta":835936305},{"NoteNumber":69,"Velocity":29,"Duration":289252,"SoundDuration":289252,"Delta":835936305},{"NoteNumber":72,"Velocity":35,"Duration":289252,"SoundDuration":289252,"Delta":835936305},{"NoteNumber":53,"Velocity":43,"Duration":289252,"SoundDuration":289252,"Delta":835936305},{"NoteNumber":65,"Velocity":23,"Duration":289252,"SoundDuration":289252,"Delta":836240781},{"NoteNumber":69,"Velocity":28,"Duration":289252,"SoundDuration":289252,"Delta":836240781},{"NoteNumber":73,"Velocity":34,"Duration":289252,"SoundDuration":289252,"Delta":836240781},{"NoteNumber":53,"Velocity":44,"Duration":304476,"SoundDuration":304476,"Delta":836240781},{"NoteNumber":65,"Velocity":23,"Duration":289252,"SoundDuration":289252,"Delta":836545257},{"NoteNumber":69,"Velocity":28,"Duration":289252,"SoundDuration":289252,"Delta":836545257},{"NoteNumber":73,"Velocity":34,"Duration":289252,"SoundDuration":289252,"Delta":836545257},{"NoteNumber":52,"Velocity":41,"Duration":289252,"SoundDuration":289252,"Delta":836545257},{"NoteNumber":65,"Velocity":32,"Duration":294969,"SoundDuration":294969,"Delta":836849733},{"NoteNumber":69,"Velocity":38,"Duration":294969,"SoundDuration":294969,"Delta":836849733},{"NoteNumber":74,"Velocity":38,"Duration":294969,"SoundDuration":294969,"Delta":836849733},{"NoteNumber":52,"Velocity":44,"Duration":310494,"SoundDuration":310494,"Delta":836849733},{"NoteNumber":65,"Velocity":32,"Duration":290638,"SoundDuration":290638,"Delta":837160227},{"NoteNumber":69,"Velocity":38,"Duration":290638,"SoundDuration":290638,"Delta":837160227},{"NoteNumber":74,"Velocity":38,"Duration":290638,"SoundDuration":290638,"Delta":837160227},{"NoteNumber":53,"Velocity":40,"Duration":290638,"SoundDuration":290638,"Delta":837160227},{"NoteNumber":77,"Velocity":38,"Duration":296165,"SoundDuration":296165,"Delta":837466162},{"NoteNumber":65,"Velocity":32,"Duration":296165,"SoundDuration":296165,"Delta":837466162},{"NoteNumber":69,"Velocity":38,"Duration":296165,"SoundDuration":296165,"Delta":837466162},{"NoteNumber":53,"Velocity":44,"Duration":311752,"SoundDuration":311752,"Delta":837466162},{"NoteNumber":77,"Velocity":38,"Duration":296165,"SoundDuration":296165,"Delta":837777915},{"NoteNumber":65,"Velocity":32,"Duration":296165,"SoundDuration":296165,"Delta":837777915},{"NoteNumber":69,"Velocity":38,"Duration":296165,"SoundDuration":296165,"Delta":837777915},{"NoteNumber":50,"Velocity":41,"Duration":296165,"SoundDuration":296165,"Delta":837777915},{"NoteNumber":81,"Velocity":38,"Duration":302700,"SoundDuration":302700,"Delta":838089668},{"NoteNumber":69,"Velocity":32,"Duration":302700,"SoundDuration":302700,"Delta":838089668},{"NoteNumber":50,"Velocity":44,"Duration":318725,"SoundDuration":318725,"Delta":838089668},{"NoteNumber":81,"Velocity":38,"Duration":308394,"SoundDuration":308394,"Delta":838408394},{"NoteNumber":69,"Velocity":32,"Duration":308394,"SoundDuration":308394,"Delta":838408394},{"NoteNumber":48,"Velocity":40,"Duration":308394,"SoundDuration":308394,"Delta":838408394},{"NoteNumber":70,"Velocity":32,"Duration":314397,"SoundDuration":314397,"Delta":838733182},{"NoteNumber":76,"Velocity":38,"Duration":314397,"SoundDuration":314397,"Delta":838733182},{"NoteNumber":82,"Velocity":38,"Duration":314397,"SoundDuration":314397,"Delta":838733182},{"NoteNumber":50,"Velocity":44,"Duration":331078,"SoundDuration":331078,"Delta":838733182},{"NoteNumber":70,"Velocity":32,"Duration":320851,"SoundDuration":320851,"Delta":839064261},{"NoteNumber":76,"Velocity":38,"Duration":320851,"SoundDuration":320851,"Delta":839064261},{"NoteNumber":82,"Velocity":38,"Duration":320851,"SoundDuration":320851,"Delta":839064261},{"NoteNumber":48,"Velocity":40,"Duration":320851,"SoundDuration":320851,"Delta":839064261},{"NoteNumber":69,"Velocity":32,"Duration":315225,"SoundDuration":315225,"Delta":839402194},{"NoteNumber":77,"Velocity":32,"Duration":315225,"SoundDuration":315225,"Delta":839402194},{"NoteNumber":81,"Velocity":38,"Duration":315225,"SoundDuration":315225,"Delta":839402194},{"NoteNumber":50,"Velocity":44,"Duration":628494,"SoundDuration":628494,"Delta":839402194},{"NoteNumber":69,"Velocity":27,"Duration":297725,"SoundDuration":297725,"Delta":839717420},{"NoteNumber":65,"Velocity":23,"Duration":297725,"SoundDuration":297725,"Delta":839717420},{"NoteNumber":62,"Velocity":19,"Duration":297725,"SoundDuration":297725,"Delta":839717420},{"NoteNumber":69,"Velocity":27,"Duration":294739,"SoundDuration":294739,"Delta":840030689},{"NoteNumber":65,"Velocity":23,"Duration":294739,"SoundDuration":294739,"Delta":840030689},{"NoteNumber":62,"Velocity":19,"Duration":294739,"SoundDuration":294739,"Delta":840030689},{"NoteNumber":69,"Velocity":27,"Duration":294262,"SoundDuration":294262,"Delta":840340933},{"NoteNumber":65,"Velocity":23,"Duration":294262,"SoundDuration":294262,"Delta":840340933},{"NoteNumber":62,"Velocity":19,"Duration":294262,"SoundDuration":294262,"Delta":840340933},{"NoteNumber":69,"Velocity":27,"Duration":293571,"SoundDuration":293571,"Delta":840650580},{"NoteNumber":65,"Velocity":23,"Duration":293571,"SoundDuration":293571,"Delta":840650580},{"NoteNumber":62,"Velocity":19,"Duration":293571,"SoundDuration":293571,"Delta":840650580},{"NoteNumber":69,"Velocity":27,"Duration":292898,"SoundDuration":292898,"Delta":840959616},{"NoteNumber":65,"Velocity":23,"Duration":292898,"SoundDuration":292898,"Delta":840959616},{"NoteNumber":62,"Velocity":19,"Duration":292898,"SoundDuration":292898,"Delta":840959616},{"NoteNumber":69,"Velocity":27,"Duration":294684,"SoundDuration":294684,"Delta":841267860},{"NoteNumber":65,"Velocity":23,"Duration":294684,"SoundDuration":294684,"Delta":841267860},{"NoteNumber":62,"Velocity":19,"Duration":294684,"SoundDuration":294684,"Delta":841267860},{"NoteNumber":69,"Velocity":27,"Duration":293595,"SoundDuration":293595,"Delta":841578089},{"NoteNumber":65,"Velocity":23,"Duration":293595,"SoundDuration":293595,"Delta":841578089},{"NoteNumber":62,"Velocity":19,"Duration":293595,"SoundDuration":293595,"Delta":841578089},{"NoteNumber":40,"Velocity":27,"Duration":77319,"SoundDuration":77319,"Delta":841809829},{"NoteNumber":62,"Velocity":19,"Duration":310227,"SoundDuration":310227,"Delta":841887148},{"NoteNumber":65,"Velocity":23,"Duration":310227,"SoundDuration":310227,"Delta":841887148},{"NoteNumber":69,"Velocity":27,"Duration":310227,"SoundDuration":310227,"Delta":841887148},{"NoteNumber":38,"Velocity":27,"Duration":123067,"SoundDuration":123067,"Delta":841887148},{"NoteNumber":40,"Velocity":23,"Duration":122638,"SoundDuration":122638,"Delta":841969241},{"NoteNumber":38,"Velocity":24,"Duration":122079,"SoundDuration":122079,"Delta":842051048},{"NoteNumber":40,"Velocity":22,"Duration":121381,"SoundDuration":121381,"Delta":842132573},{"NoteNumber":69,"Velocity":27,"Duration":304066,"SoundDuration":304066,"Delta":842213541},{"NoteNumber":65,"Velocity":23,"Duration":304066,"SoundDuration":304066,"Delta":842213541},{"NoteNumber":62,"Velocity":19,"Duration":304066,"SoundDuration":304066,"Delta":842213541},{"NoteNumber":38,"Velocity":24,"Duration":120820,"SoundDuration":120820,"Delta":842213541},{"NoteNumber":40,"Velocity":22,"Duration":120134,"SoundDuration":120134,"Delta":842294227},{"NoteNumber":38,"Velocity":25,"Duration":119593,"SoundDuration":119593,"Delta":842374361},{"NoteNumber":40,"Velocity":24,"Duration":117223,"SoundDuration":117223,"Delta":842454225},{"NoteNumber":69,"Velocity":27,"Duration":295761,"SoundDuration":295761,"Delta":842533132},{"NoteNumber":65,"Velocity":23,"Duration":295761,"SoundDuration":295761,"Delta":842533132},{"NoteNumber":62,"Velocity":19,"Duration":295761,"SoundDuration":295761,"Delta":842533132},{"NoteNumber":38,"Velocity":26,"Duration":115960,"SoundDuration":115960,"Delta":842533132},{"NoteNumber":40,"Velocity":23,"Duration":117892,"SoundDuration":117892,"Delta":842609918},{"NoteNumber":38,"Velocity":26,"Duration":116355,"SoundDuration":116355,"Delta":842688767},{"NoteNumber":40,"Velocity":22,"Duration":117568,"SoundDuration":117568,"Delta":842766368},{"NoteNumber":69,"Velocity":27,"Duration":300184,"SoundDuration":300184,"Delta":842844812},{"NoteNumber":65,"Velocity":23,"Duration":300184,"SoundDuration":300184,"Delta":842844812},{"NoteNumber":62,"Velocity":19,"Duration":300184,"SoundDuration":300184,"Delta":842844812},{"NoteNumber":38,"Velocity":25,"Duration":118142,"SoundDuration":118142,"Delta":842844812},{"NoteNumber":40,"Velocity":23,"Duration":120201,"SoundDuration":120201,"Delta":842923142},{"NoteNumber":38,"Velocity":24,"Duration":118770,"SoundDuration":118770,"Delta":843003142},{"NoteNumber":40,"Velocity":22,"Duration":116446,"SoundDuration":116446,"Delta":843083278},{"NoteNumber":69,"Velocity":27,"Duration":298461,"SoundDuration":298461,"Delta":843160444},{"NoteNumber":65,"Velocity":23,"Duration":298461,"SoundDuration":298461,"Delta":843160444},{"NoteNumber":62,"Velocity":19,"Duration":298461,"SoundDuration":298461,"Delta":843160444},{"NoteNumber":38,"Velocity":26,"Duration":118567,"SoundDuration":118567,"Delta":843160444},{"NoteNumber":40,"Velocity":23,"Duration":117083,"SoundDuration":117083,"Delta":843239453},{"NoteNumber":38,"Velocity":25,"Duration":117793,"SoundDuration":117793,"Delta":843317836},{"NoteNumber":40,"Velocity":23,"Duration":117022,"SoundDuration":117022,"Delta":843395991},{"NoteNumber":69,"Velocity":27,"Duration":297094,"SoundDuration":297094,"Delta":843474277},{"NoteNumber":65,"Velocity":23,"Duration":297094,"SoundDuration":297094,"Delta":843474277},{"NoteNumber":62,"Velocity":19,"Duration":297094,"SoundDuration":297094,"Delta":843474277},{"NoteNumber":38,"Velocity":25,"Duration":117395,"SoundDuration":117395,"Delta":843474277},{"NoteNumber":40,"Velocity":22,"Duration":117472,"SoundDuration":117472,"Delta":843552269},{"NoteNumber":38,"Velocity":25,"Duration":116988,"SoundDuration":116988,"Delta":843630968},{"NoteNumber":40,"Velocity":22,"Duration":117464,"SoundDuration":117464,"Delta":843708516},{"NoteNumber":69,"Velocity":27,"Duration":304557,"SoundDuration":304557,"Delta":843786896},{"NoteNumber":65,"Velocity":23,"Duration":304557,"SoundDuration":304557,"Delta":843786896},{"NoteNumber":62,"Velocity":19,"Duration":304557,"SoundDuration":304557,"Delta":843786896},{"NoteNumber":38,"Velocity":27,"Duration":119363,"SoundDuration":119363,"Delta":843786896},{"NoteNumber":40,"Velocity":23,"Duration":119434,"SoundDuration":119434,"Delta":843866273},{"NoteNumber":38,"Velocity":26,"Duration":121005,"SoundDuration":121005,"Delta":843945949},{"NoteNumber":40,"Velocity":22,"Duration":126077,"SoundDuration":126077,"Delta":844026261},{"NoteNumber":69,"Velocity":27,"Duration":338600,"SoundDuration":338600,"Delta":844107786},{"NoteNumber":65,"Velocity":23,"Duration":338600,"SoundDuration":338600,"Delta":844107786},{"NoteNumber":62,"Velocity":19,"Duration":338600,"SoundDuration":338600,"Delta":844107786},{"NoteNumber":37,"Velocity":28,"Duration":148508,"SoundDuration":148508,"Delta":844107786},{"NoteNumber":38,"Velocity":31,"Duration":148508,"SoundDuration":148508,"Delta":844226593},{"NoteNumber":40,"Velocity":32,"Duration":145338,"SoundDuration":145338,"Delta":844345400},{"NoteNumber":69,"Velocity":27,"Duration":302257,"SoundDuration":302257,"Delta":844464208},{"NoteNumber":65,"Velocity":23,"Duration":302257,"SoundDuration":302257,"Delta":844464208},{"NoteNumber":62,"Velocity":19,"Duration":302257,"SoundDuration":302257,"Delta":844464208},{"NoteNumber":38,"Velocity":34,"Duration":159184,"SoundDuration":159184,"Delta":844464208},{"NoteNumber":69,"Velocity":27,"Duration":302296,"SoundDuration":302296,"Delta":844782214},{"NoteNumber":65,"Velocity":23,"Duration":302296,"SoundDuration":302296,"Delta":844782214},{"NoteNumber":62,"Velocity":19,"Duration":302296,"SoundDuration":302296,"Delta":844782214},{"NoteNumber":69,"Velocity":27,"Duration":300318,"SoundDuration":300318,"Delta":845100468},{"NoteNumber":65,"Velocity":23,"Duration":300318,"SoundDuration":300318,"Delta":845100468},{"NoteNumber":62,"Velocity":19,"Duration":300318,"SoundDuration":300318,"Delta":845100468},{"NoteNumber":69,"Velocity":27,"Duration":301473,"SoundDuration":301473,"Delta":845416618},{"NoteNumber":65,"Velocity":23,"Duration":301473,"SoundDuration":301473,"Delta":845416618},{"NoteNumber":62,"Velocity":19,"Duration":301473,"SoundDuration":301473,"Delta":845416618},{"NoteNumber":69,"Velocity":27,"Duration":299998,"SoundDuration":299998,"Delta":845733881},{"NoteNumber":65,"Velocity":23,"Duration":299998,"SoundDuration":299998,"Delta":845733881},{"NoteNumber":62,"Velocity":19,"Duration":299998,"SoundDuration":299998,"Delta":845733881},{"NoteNumber":69,"Velocity":27,"Duration":300287,"SoundDuration":300287,"Delta":846049796},{"NoteNumber":65,"Velocity":23,"Duration":300287,"SoundDuration":300287,"Delta":846049796},{"NoteNumber":62,"Velocity":19,"Duration":300287,"SoundDuration":300287,"Delta":846049796},{"NoteNumber":77,"Velocity":50,"Duration":645671,"SoundDuration":645671,"Delta":846365956},{"NoteNumber":69,"Velocity":24,"Duration":305314,"SoundDuration":305314,"Delta":846365956},{"NoteNumber":65,"Velocity":20,"Duration":305314,"SoundDuration":305314,"Delta":846365956},{"NoteNumber":62,"Velocity":17,"Duration":305314,"SoundDuration":305314,"Delta":846365956},{"NoteNumber":69,"Velocity":24,"Duration":307941,"SoundDuration":307941,"Delta":846687478},{"NoteNumber":65,"Velocity":20,"Duration":307941,"SoundDuration":307941,"Delta":846687478},{"NoteNumber":62,"Velocity":17,"Duration":307941,"SoundDuration":307941,"Delta":846687478},{"NoteNumber":77,"Velocity":54,"Duration":655738,"SoundDuration":655738,"Delta":847011627},{"NoteNumber":69,"Velocity":24,"Duration":311475,"SoundDuration":311475,"Delta":847011627},{"NoteNumber":65,"Velocity":20,"Duration":311475,"SoundDuration":311475,"Delta":847011627},{"NoteNumber":62,"Velocity":17,"Duration":311475,"SoundDuration":311475,"Delta":847011627},{"NoteNumber":69,"Velocity":24,"Duration":311475,"SoundDuration":311475,"Delta":847339496},{"NoteNumber":65,"Velocity":20,"Duration":311475,"SoundDuration":311475,"Delta":847339496},{"NoteNumber":62,"Velocity":17,"Duration":311475,"SoundDuration":311475,"Delta":847339496},{"NoteNumber":76,"Velocity":52,"Duration":645618,"SoundDuration":645618,"Delta":847667365},{"NoteNumber":69,"Velocity":24,"Duration":304487,"SoundDuration":304487,"Delta":847667365},{"NoteNumber":65,"Velocity":20,"Duration":304487,"SoundDuration":304487,"Delta":847667365},{"NoteNumber":62,"Velocity":17,"Duration":304487,"SoundDuration":304487,"Delta":847667365},{"NoteNumber":69,"Velocity":24,"Duration":308690,"SoundDuration":308690,"Delta":847987878},{"NoteNumber":65,"Velocity":20,"Duration":308690,"SoundDuration":308690,"Delta":847987878},{"NoteNumber":62,"Velocity":17,"Duration":308690,"SoundDuration":308690,"Delta":847987878},{"NoteNumber":77,"Velocity":54,"Duration":626893,"SoundDuration":626893,"Delta":848312984},{"NoteNumber":69,"Velocity":24,"Duration":297774,"SoundDuration":297774,"Delta":848312984},{"NoteNumber":65,"Velocity":20,"Duration":297774,"SoundDuration":297774,"Delta":848312984},{"NoteNumber":62,"Velocity":17,"Duration":297774,"SoundDuration":297774,"Delta":848312984},{"NoteNumber":69,"Velocity":24,"Duration":297774,"SoundDuration":297774,"Delta":848626431},{"NoteNumber":65,"Velocity":20,"Duration":297774,"SoundDuration":297774,"Delta":848626431},{"NoteNumber":62,"Velocity":17,"Duration":297774,"SoundDuration":297774,"Delta":848626431},{"NoteNumber":79,"Velocity":51,"Duration":628375,"SoundDuration":628375,"Delta":848939878},{"NoteNumber":69,"Velocity":24,"Duration":297774,"SoundDuration":297774,"Delta":848939878},{"NoteNumber":65,"Velocity":20,"Duration":297774,"SoundDuration":297774,"Delta":848939878},{"NoteNumber":62,"Velocity":17,"Duration":297774,"SoundDuration":297774,"Delta":848939878},{"NoteNumber":69,"Velocity":24,"Duration":298811,"SoundDuration":298811,"Delta":849253325},{"NoteNumber":65,"Velocity":20,"Duration":298811,"SoundDuration":298811,"Delta":849253325},{"NoteNumber":62,"Velocity":17,"Duration":298811,"SoundDuration":298811,"Delta":849253325},{"NoteNumber":81,"Velocity":54,"Duration":1934028,"SoundDuration":1934028,"Delta":849568253},{"NoteNumber":69,"Velocity":24,"Duration":306221,"SoundDuration":306221,"Delta":849568253},{"NoteNumber":65,"Velocity":20,"Duration":306221,"SoundDuration":306221,"Delta":849568253},{"NoteNumber":62,"Velocity":17,"Duration":306221,"SoundDuration":306221,"Delta":849568253},{"NoteNumber":69,"Velocity":24,"Duration":306221,"SoundDuration":306221,"Delta":849890591},{"NoteNumber":65,"Velocity":20,"Duration":306221,"SoundDuration":306221,"Delta":849890591},{"NoteNumber":62,"Velocity":17,"Duration":306221,"SoundDuration":306221,"Delta":849890591},{"NoteNumber":69,"Velocity":25,"Duration":306221,"SoundDuration":306221,"Delta":850212929},{"NoteNumber":65,"Velocity":21,"Duration":306221,"SoundDuration":306221,"Delta":850212929},{"NoteNumber":61,"Velocity":17,"Duration":306221,"SoundDuration":306221,"Delta":850212929},{"NoteNumber":69,"Velocity":25,"Duration":306221,"SoundDuration":306221,"Delta":850535267},{"NoteNumber":65,"Velocity":21,"Duration":306221,"SoundDuration":306221,"Delta":850535267},{"NoteNumber":61,"Velocity":17,"Duration":306221,"SoundDuration":306221,"Delta":850535267},{"NoteNumber":69,"Velocity":25,"Duration":306221,"SoundDuration":306221,"Delta":850857605},{"NoteNumber":65,"Velocity":21,"Duration":306221,"SoundDuration":306221,"Delta":850857605},{"NoteNumber":60,"Velocity":17,"Duration":306221,"SoundDuration":306221,"Delta":850857605},{"NoteNumber":69,"Velocity":25,"Duration":306221,"SoundDuration":306221,"Delta":851179943},{"NoteNumber":65,"Velocity":21,"Duration":306221,"SoundDuration":306221,"Delta":851179943},{"NoteNumber":60,"Velocity":17,"Duration":306221,"SoundDuration":306221,"Delta":851179943},{"NoteNumber":79,"Velocity":54,"Duration":315225,"SoundDuration":315225,"Delta":851502281},{"NoteNumber":69,"Velocity":28,"Duration":299464,"SoundDuration":299464,"Delta":851502281},{"NoteNumber":65,"Velocity":24,"Duration":299464,"SoundDuration":299464,"Delta":851502281},{"NoteNumber":59,"Velocity":20,"Duration":299464,"SoundDuration":299464,"Delta":851502281},{"NoteNumber":77,"Velocity":54,"Duration":315225,"SoundDuration":315225,"Delta":851817507},{"NoteNumber":69,"Velocity":28,"Duration":299464,"SoundDuration":299464,"Delta":851817507},{"NoteNumber":65,"Velocity":24,"Duration":299464,"SoundDuration":299464,"Delta":851817507},{"NoteNumber":59,"Velocity":20,"Duration":299464,"SoundDuration":299464,"Delta":851817507},{"NoteNumber":79,"Velocity":54,"Duration":648297,"SoundDuration":648297,"Delta":852132732},{"NoteNumber":58,"Velocity":20,"Duration":307941,"SoundDuration":307941,"Delta":852132732},{"NoteNumber":65,"Velocity":24,"Duration":307941,"SoundDuration":307941,"Delta":852132732},{"NoteNumber":67,"Velocity":28,"Duration":307941,"SoundDuration":307941,"Delta":852132732},{"NoteNumber":58,"Velocity":20,"Duration":307941,"SoundDuration":307941,"Delta":852456881},{"NoteNumber":65,"Velocity":24,"Duration":307941,"SoundDuration":307941,"Delta":852456881},{"NoteNumber":67,"Velocity":28,"Duration":307941,"SoundDuration":307941,"Delta":852456881},{"NoteNumber":79,"Velocity":54,"Duration":641026,"SoundDuration":641026,"Delta":852781030},{"NoteNumber":58,"Velocity":20,"Duration":304487,"SoundDuration":304487,"Delta":852781030},{"NoteNumber":62,"Velocity":24,"Duration":304487,"SoundDuration":304487,"Delta":852781030},{"NoteNumber":67,"Velocity":28,"Duration":304487,"SoundDuration":304487,"Delta":852781030},{"NoteNumber":58,"Velocity":20,"Duration":304487,"SoundDuration":304487,"Delta":853101543},{"NoteNumber":62,"Velocity":24,"Duration":304487,"SoundDuration":304487,"Delta":853101543},{"NoteNumber":67,"Velocity":28,"Duration":304487,"SoundDuration":304487,"Delta":853101543},{"NoteNumber":79,"Velocity":54,"Duration":641026,"SoundDuration":641026,"Delta":853422056},{"NoteNumber":58,"Velocity":20,"Duration":304487,"SoundDuration":304487,"Delta":853422056},{"NoteNumber":64,"Velocity":24,"Duration":304487,"SoundDuration":304487,"Delta":853422056},{"NoteNumber":67,"Velocity":28,"Duration":304487,"SoundDuration":304487,"Delta":853422056},{"NoteNumber":58,"Velocity":20,"Duration":304487,"SoundDuration":304487,"Delta":853742569},{"NoteNumber":64,"Velocity":24,"Duration":304487,"SoundDuration":304487,"Delta":853742569},{"NoteNumber":67,"Velocity":28,"Duration":304487,"SoundDuration":304487,"Delta":853742569},{"NoteNumber":77,"Velocity":54,"Duration":324149,"SoundDuration":324149,"Delta":854063082},{"NoteNumber":57,"Velocity":20,"Duration":307941,"SoundDuration":307941,"Delta":854063082},{"NoteNumber":61,"Velocity":24,"Duration":307941,"SoundDuration":307941,"Delta":854063082},{"NoteNumber":67,"Velocity":28,"Duration":307941,"SoundDuration":307941,"Delta":854063082},{"NoteNumber":76,"Velocity":54,"Duration":324148,"SoundDuration":324148,"Delta":854387231},{"NoteNumber":57,"Velocity":20,"Duration":307941,"SoundDuration":307941,"Delta":854387231},{"NoteNumber":61,"Velocity":24,"Duration":307941,"SoundDuration":307941,"Delta":854387231},{"NoteNumber":67,"Velocity":28,"Duration":307941,"SoundDuration":307941,"Delta":854387231},{"NoteNumber":77,"Velocity":54,"Duration":648298,"SoundDuration":648298,"Delta":854711380},{"NoteNumber":62,"Velocity":24,"Duration":307941,"SoundDuration":307941,"Delta":854711380},{"NoteNumber":65,"Velocity":28,"Duration":307941,"SoundDuration":307941,"Delta":854711380},{"NoteNumber":62,"Velocity":24,"Duration":307941,"SoundDuration":307941,"Delta":855035529},{"NoteNumber":65,"Velocity":28,"Duration":307941,"SoundDuration":307941,"Delta":855035529},{"NoteNumber":62,"Velocity":24,"Duration":307941,"SoundDuration":307941,"Delta":855359678},{"NoteNumber":65,"Velocity":28,"Duration":307941,"SoundDuration":307941,"Delta":855359678},{"NoteNumber":62,"Velocity":24,"Duration":307941,"SoundDuration":307941,"Delta":855683827},{"NoteNumber":65,"Velocity":28,"Duration":307941,"SoundDuration":307941,"Delta":855683827},{"NoteNumber":69,"Velocity":27,"Duration":299464,"SoundDuration":299464,"Delta":856007976},{"NoteNumber":65,"Velocity":23,"Duration":299464,"SoundDuration":299464,"Delta":856007976},{"NoteNumber":62,"Velocity":19,"Duration":299464,"SoundDuration":299464,"Delta":856007976},{"NoteNumber":69,"Velocity":27,"Duration":299464,"SoundDuration":299464,"Delta":856323202},{"NoteNumber":65,"Velocity":23,"Duration":299464,"SoundDuration":299464,"Delta":856323202},{"NoteNumber":62,"Velocity":19,"Duration":299464,"SoundDuration":299464,"Delta":856323202},{"NoteNumber":69,"Velocity":27,"Duration":299464,"SoundDuration":299464,"Delta":856638427},{"NoteNumber":65,"Velocity":23,"Duration":299464,"SoundDuration":299464,"Delta":856638427},{"NoteNumber":62,"Velocity":19,"Duration":299464,"SoundDuration":299464,"Delta":856638427},{"NoteNumber":69,"Velocity":27,"Duration":299464,"SoundDuration":299464,"Delta":856953653},{"NoteNumber":65,"Velocity":23,"Duration":299464,"SoundDuration":299464,"Delta":856953653},{"NoteNumber":62,"Velocity":19,"Duration":299464,"SoundDuration":299464,"Delta":856953653},{"NoteNumber":40,"Velocity":27,"Duration":78806,"SoundDuration":78806,"Delta":857190072},{"NoteNumber":62,"Velocity":19,"Duration":310227,"SoundDuration":310227,"Delta":857268878},{"NoteNumber":65,"Velocity":23,"Duration":310227,"SoundDuration":310227,"Delta":857268878},{"NoteNumber":69,"Velocity":27,"Duration":310227,"SoundDuration":310227,"Delta":857268878},{"NoteNumber":38,"Velocity":27,"Duration":123067,"SoundDuration":123067,"Delta":857268878},{"NoteNumber":40,"Velocity":23,"Duration":122638,"SoundDuration":122638,"Delta":857350971},{"NoteNumber":38,"Velocity":24,"Duration":122079,"SoundDuration":122079,"Delta":857432778},{"NoteNumber":40,"Velocity":22,"Duration":121381,"SoundDuration":121381,"Delta":857514303},{"NoteNumber":69,"Velocity":27,"Duration":304066,"SoundDuration":304066,"Delta":857595271},{"NoteNumber":65,"Velocity":23,"Duration":304066,"SoundDuration":304066,"Delta":857595271},{"NoteNumber":62,"Velocity":19,"Duration":304066,"SoundDuration":304066,"Delta":857595271},{"NoteNumber":38,"Velocity":24,"Duration":120820,"SoundDuration":120820,"Delta":857595271},{"NoteNumber":40,"Velocity":22,"Duration":120134,"SoundDuration":120134,"Delta":857675957},{"NoteNumber":38,"Velocity":25,"Duration":119593,"SoundDuration":119593,"Delta":857756092},{"NoteNumber":40,"Velocity":24,"Duration":117223,"SoundDuration":117223,"Delta":857835956},{"NoteNumber":69,"Velocity":27,"Duration":295761,"SoundDuration":295761,"Delta":857914862},{"NoteNumber":65,"Velocity":23,"Duration":295761,"SoundDuration":295761,"Delta":857914862},{"NoteNumber":62,"Velocity":19,"Duration":295761,"SoundDuration":295761,"Delta":857914862},{"NoteNumber":38,"Velocity":26,"Duration":115960,"SoundDuration":115960,"Delta":857914862},{"NoteNumber":40,"Velocity":23,"Duration":117892,"SoundDuration":117892,"Delta":857991648},{"NoteNumber":38,"Velocity":26,"Duration":116355,"SoundDuration":116355,"Delta":858070497},{"NoteNumber":40,"Velocity":22,"Duration":117568,"SoundDuration":117568,"Delta":858148098},{"NoteNumber":69,"Velocity":27,"Duration":300184,"SoundDuration":300184,"Delta":858226542},{"NoteNumber":65,"Velocity":23,"Duration":300184,"SoundDuration":300184,"Delta":858226542},{"NoteNumber":62,"Velocity":19,"Duration":300184,"SoundDuration":300184,"Delta":858226542},{"NoteNumber":38,"Velocity":25,"Duration":118142,"SoundDuration":118142,"Delta":858226542},{"NoteNumber":40,"Velocity":23,"Duration":120201,"SoundDuration":120201,"Delta":858304872},{"NoteNumber":38,"Velocity":24,"Duration":118770,"SoundDuration":118770,"Delta":858384872},{"NoteNumber":40,"Velocity":22,"Duration":116446,"SoundDuration":116446,"Delta":858465008},{"NoteNumber":69,"Velocity":27,"Duration":298461,"SoundDuration":298461,"Delta":858542174},{"NoteNumber":65,"Velocity":23,"Duration":298461,"SoundDuration":298461,"Delta":858542174},{"NoteNumber":62,"Velocity":19,"Duration":298461,"SoundDuration":298461,"Delta":858542174},{"NoteNumber":38,"Velocity":26,"Duration":118567,"SoundDuration":118567,"Delta":858542174},{"NoteNumber":40,"Velocity":23,"Duration":117083,"SoundDuration":117083,"Delta":858621184},{"NoteNumber":38,"Velocity":25,"Duration":117793,"SoundDuration":117793,"Delta":858699566},{"NoteNumber":40,"Velocity":23,"Duration":117022,"SoundDuration":117022,"Delta":858777721},{"NoteNumber":69,"Velocity":27,"Duration":297094,"SoundDuration":297094,"Delta":858856007},{"NoteNumber":65,"Velocity":23,"Duration":297094,"SoundDuration":297094,"Delta":858856007},{"NoteNumber":62,"Velocity":19,"Duration":297094,"SoundDuration":297094,"Delta":858856007},{"NoteNumber":38,"Velocity":25,"Duration":117395,"SoundDuration":117395,"Delta":858856007},{"NoteNumber":40,"Velocity":22,"Duration":117472,"SoundDuration":117472,"Delta":858933999},{"NoteNumber":38,"Velocity":25,"Duration":116988,"SoundDuration":116988,"Delta":859012698},{"NoteNumber":40,"Velocity":22,"Duration":117464,"SoundDuration":117464,"Delta":859090246},{"NoteNumber":69,"Velocity":27,"Duration":304557,"SoundDuration":304557,"Delta":859168626},{"NoteNumber":65,"Velocity":23,"Duration":304557,"SoundDuration":304557,"Delta":859168626},{"NoteNumber":62,"Velocity":19,"Duration":304557,"SoundDuration":304557,"Delta":859168626},{"NoteNumber":38,"Velocity":27,"Duration":119363,"SoundDuration":119363,"Delta":859168626},{"NoteNumber":40,"Velocity":23,"Duration":119434,"SoundDuration":119434,"Delta":859248003},{"NoteNumber":38,"Velocity":26,"Duration":121005,"SoundDuration":121005,"Delta":859327679},{"NoteNumber":40,"Velocity":22,"Duration":125991,"SoundDuration":125991,"Delta":859407991},{"NoteNumber":69,"Velocity":27,"Duration":348229,"SoundDuration":348229,"Delta":859489516},{"NoteNumber":65,"Velocity":23,"Duration":348229,"SoundDuration":348229,"Delta":859489516},{"NoteNumber":62,"Velocity":19,"Duration":348229,"SoundDuration":348229,"Delta":859489516},{"NoteNumber":38,"Velocity":26,"Duration":134559,"SoundDuration":134559,"Delta":859489516},{"NoteNumber":40,"Velocity":22,"Duration":137018,"SoundDuration":137018,"Delta":859578804},{"NoteNumber":36,"Velocity":28,"Duration":187138,"SoundDuration":187138,"Delta":859669716},{"NoteNumber":70,"Velocity":27,"Duration":320371,"SoundDuration":320371,"Delta":859856854},{"NoteNumber":65,"Velocity":23,"Duration":320371,"SoundDuration":320371,"Delta":859856854},{"NoteNumber":62,"Velocity":19,"Duration":320371,"SoundDuration":320371,"Delta":859856854},{"NoteNumber":34,"Velocity":34,"Duration":177514,"SoundDuration":177514,"Delta":859856854},{"NoteNumber":70,"Velocity":27,"Duration":301587,"SoundDuration":301587,"Delta":860193099},{"NoteNumber":65,"Velocity":23,"Duration":301587,"SoundDuration":301587,"Delta":860193099},{"NoteNumber":62,"Velocity":19,"Duration":301587,"SoundDuration":301587,"Delta":860193099},{"NoteNumber":70,"Velocity":27,"Duration":301587,"SoundDuration":301587,"Delta":860510560},{"NoteNumber":65,"Velocity":23,"Duration":301587,"SoundDuration":301587,"Delta":860510560},{"NoteNumber":62,"Velocity":19,"Duration":301587,"SoundDuration":301587,"Delta":860510560},{"NoteNumber":70,"Velocity":27,"Duration":301587,"SoundDuration":301587,"Delta":860828020},{"NoteNumber":65,"Velocity":23,"Duration":301587,"SoundDuration":301587,"Delta":860828020},{"NoteNumber":62,"Velocity":19,"Duration":301587,"SoundDuration":301587,"Delta":860828020},{"NoteNumber":70,"Velocity":24,"Duration":301587,"SoundDuration":301587,"Delta":861145481},{"NoteNumber":65,"Velocity":20,"Duration":301587,"SoundDuration":301587,"Delta":861145481},{"NoteNumber":62,"Velocity":17,"Duration":301587,"SoundDuration":301587,"Delta":861145481},{"NoteNumber":70,"Velocity":24,"Duration":301587,"SoundDuration":301587,"Delta":861462941},{"NoteNumber":65,"Velocity":20,"Duration":301587,"SoundDuration":301587,"Delta":861462941},{"NoteNumber":62,"Velocity":17,"Duration":301587,"SoundDuration":301587,"Delta":861462941},{"NoteNumber":82,"Velocity":52,"Duration":645671,"SoundDuration":645671,"Delta":861780402},{"NoteNumber":70,"Velocity":21,"Duration":305314,"SoundDuration":305314,"Delta":861780402},{"NoteNumber":65,"Velocity":18,"Duration":305314,"SoundDuration":305314,"Delta":861780402},{"NoteNumber":62,"Velocity":15,"Duration":305314,"SoundDuration":305314,"Delta":861780402},{"NoteNumber":70,"Velocity":21,"Duration":307941,"SoundDuration":307941,"Delta":862101924},{"NoteNumber":65,"Velocity":18,"Duration":307941,"SoundDuration":307941,"Delta":862101924},{"NoteNumber":62,"Velocity":15,"Duration":307941,"SoundDuration":307941,"Delta":862101924},{"NoteNumber":82,"Velocity":56,"Duration":655738,"SoundDuration":655738,"Delta":862426073},{"NoteNumber":70,"Velocity":21,"Duration":311475,"SoundDuration":311475,"Delta":862426073},{"NoteNumber":65,"Velocity":18,"Duration":311475,"SoundDuration":311475,"Delta":862426073},{"NoteNumber":62,"Velocity":15,"Duration":311475,"SoundDuration":311475,"Delta":862426073},{"NoteNumber":70,"Velocity":21,"Duration":311475,"SoundDuration":311475,"Delta":862753942},{"NoteNumber":65,"Velocity":18,"Duration":311475,"SoundDuration":311475,"Delta":862753942},{"NoteNumber":62,"Velocity":15,"Duration":311475,"SoundDuration":311475,"Delta":862753942},{"NoteNumber":81,"Velocity":54,"Duration":645618,"SoundDuration":645618,"Delta":863081811},{"NoteNumber":72,"Velocity":21,"Duration":304487,"SoundDuration":304487,"Delta":863081811},{"NoteNumber":65,"Velocity":18,"Duration":304487,"SoundDuration":304487,"Delta":863081811},{"NoteNumber":62,"Velocity":15,"Duration":304487,"SoundDuration":304487,"Delta":863081811},{"NoteNumber":72,"Velocity":21,"Duration":308690,"SoundDuration":308690,"Delta":863402324},{"NoteNumber":65,"Velocity":18,"Duration":308690,"SoundDuration":308690,"Delta":863402324},{"NoteNumber":62,"Velocity":15,"Duration":308690,"SoundDuration":308690,"Delta":863402324},{"NoteNumber":82,"Velocity":56,"Duration":626893,"SoundDuration":626893,"Delta":863727429},{"NoteNumber":74,"Velocity":21,"Duration":297774,"SoundDuration":297774,"Delta":863727429},{"NoteNumber":65,"Velocity":18,"Duration":297774,"SoundDuration":297774,"Delta":863727429},{"NoteNumber":62,"Velocity":15,"Duration":297774,"SoundDuration":297774,"Delta":863727429},{"NoteNumber":74,"Velocity":21,"Duration":297774,"SoundDuration":297774,"Delta":864040876},{"NoteNumber":65,"Velocity":18,"Duration":297774,"SoundDuration":297774,"Delta":864040876},{"NoteNumber":62,"Velocity":15,"Duration":297774,"SoundDuration":297774,"Delta":864040876},{"NoteNumber":84,"Velocity":53,"Duration":628375,"SoundDuration":628375,"Delta":864354323},{"NoteNumber":69,"Velocity":21,"Duration":297774,"SoundDuration":297774,"Delta":864354323},{"NoteNumber":65,"Velocity":18,"Duration":297774,"SoundDuration":297774,"Delta":864354323},{"NoteNumber":62,"Velocity":15,"Duration":297774,"SoundDuration":297774,"Delta":864354323},{"NoteNumber":69,"Velocity":21,"Duration":298811,"SoundDuration":298811,"Delta":864667770},{"NoteNumber":65,"Velocity":18,"Duration":298811,"SoundDuration":298811,"Delta":864667770},{"NoteNumber":62,"Velocity":15,"Duration":298811,"SoundDuration":298811,"Delta":864667770},{"NoteNumber":86,"Velocity":60,"Duration":1934028,"SoundDuration":1934028,"Delta":864982699},{"NoteNumber":70,"Velocity":21,"Duration":306221,"SoundDuration":306221,"Delta":864982699},{"NoteNumber":65,"Velocity":18,"Duration":306221,"SoundDuration":306221,"Delta":864982699},{"NoteNumber":62,"Velocity":15,"Duration":306221,"SoundDuration":306221,"Delta":864982699},{"NoteNumber":70,"Velocity":21,"Duration":306221,"SoundDuration":306221,"Delta":865305037},{"NoteNumber":65,"Velocity":18,"Duration":306221,"SoundDuration":306221,"Delta":865305037},{"NoteNumber":62,"Velocity":15,"Duration":306221,"SoundDuration":306221,"Delta":865305037},{"NoteNumber":70,"Velocity":22,"Duration":306221,"SoundDuration":306221,"Delta":865627375},{"NoteNumber":65,"Velocity":18,"Duration":306221,"SoundDuration":306221,"Delta":865627375},{"NoteNumber":62,"Velocity":15,"Duration":306221,"SoundDuration":306221,"Delta":865627375},{"NoteNumber":70,"Velocity":22,"Duration":306221,"SoundDuration":306221,"Delta":865949713},{"NoteNumber":65,"Velocity":18,"Duration":306221,"SoundDuration":306221,"Delta":865949713},{"NoteNumber":62,"Velocity":15,"Duration":306221,"SoundDuration":306221,"Delta":865949713},{"NoteNumber":70,"Velocity":22,"Duration":306221,"SoundDuration":306221,"Delta":866272051},{"NoteNumber":65,"Velocity":18,"Duration":306221,"SoundDuration":306221,"Delta":866272051},{"NoteNumber":62,"Velocity":15,"Duration":306221,"SoundDuration":306221,"Delta":866272051},{"NoteNumber":70,"Velocity":22,"Duration":306221,"SoundDuration":306221,"Delta":866594389},{"NoteNumber":65,"Velocity":18,"Duration":306221,"SoundDuration":306221,"Delta":866594389},{"NoteNumber":62,"Velocity":15,"Duration":306221,"SoundDuration":306221,"Delta":866594389},{"NoteNumber":84,"Velocity":56,"Duration":315225,"SoundDuration":315225,"Delta":866916727},{"NoteNumber":70,"Velocity":22,"Duration":299464,"SoundDuration":299464,"Delta":866916727},{"NoteNumber":65,"Velocity":18,"Duration":299464,"SoundDuration":299464,"Delta":866916727},{"NoteNumber":62,"Velocity":15,"Duration":299464,"SoundDuration":299464,"Delta":866916727},{"NoteNumber":82,"Velocity":56,"Duration":315225,"SoundDuration":315225,"Delta":867231952},{"NoteNumber":70,"Velocity":22,"Duration":299464,"SoundDuration":299464,"Delta":867231952},{"NoteNumber":65,"Velocity":18,"Duration":299464,"SoundDuration":299464,"Delta":867231952},{"NoteNumber":62,"Velocity":15,"Duration":299464,"SoundDuration":299464,"Delta":867231952},{"NoteNumber":84,"Velocity":56,"Duration":648297,"SoundDuration":648297,"Delta":867547178},{"NoteNumber":63,"Velocity":15,"Duration":307941,"SoundDuration":307941,"Delta":867547178},{"NoteNumber":66,"Velocity":18,"Duration":307941,"SoundDuration":307941,"Delta":867547178},{"NoteNumber":70,"Velocity":22,"Duration":307941,"SoundDuration":307941,"Delta":867547178},{"NoteNumber":63,"Velocity":15,"Duration":307941,"SoundDuration":307941,"Delta":867871327},{"NoteNumber":66,"Velocity":18,"Duration":307941,"SoundDuration":307941,"Delta":867871327},{"NoteNumber":70,"Velocity":22,"Duration":307941,"SoundDuration":307941,"Delta":867871327},{"NoteNumber":84,"Velocity":56,"Duration":641026,"SoundDuration":641026,"Delta":868195476},{"NoteNumber":63,"Velocity":15,"Duration":304487,"SoundDuration":304487,"Delta":868195476},{"NoteNumber":66,"Velocity":18,"Duration":304487,"SoundDuration":304487,"Delta":868195476},{"NoteNumber":70,"Velocity":22,"Duration":304487,"SoundDuration":304487,"Delta":868195476},{"NoteNumber":63,"Velocity":15,"Duration":304487,"SoundDuration":304487,"Delta":868515989},{"NoteNumber":66,"Velocity":18,"Duration":304487,"SoundDuration":304487,"Delta":868515989},{"NoteNumber":70,"Velocity":22,"Duration":304487,"SoundDuration":304487,"Delta":868515989},{"NoteNumber":84,"Velocity":56,"Duration":641026,"SoundDuration":641026,"Delta":868836502},{"NoteNumber":63,"Velocity":15,"Duration":304487,"SoundDuration":304487,"Delta":868836502},{"NoteNumber":66,"Velocity":18,"Duration":304487,"SoundDuration":304487,"Delta":868836502},{"NoteNumber":70,"Velocity":22,"Duration":304487,"SoundDuration":304487,"Delta":868836502},{"NoteNumber":63,"Velocity":15,"Duration":304487,"SoundDuration":304487,"Delta":869157015},{"NoteNumber":66,"Velocity":18,"Duration":304487,"SoundDuration":304487,"Delta":869157015},{"NoteNumber":70,"Velocity":22,"Duration":304487,"SoundDuration":304487,"Delta":869157015},{"NoteNumber":82,"Velocity":56,"Duration":324149,"SoundDuration":324149,"Delta":869477528},{"NoteNumber":63,"Velocity":15,"Duration":307941,"SoundDuration":307941,"Delta":869477528},{"NoteNumber":66,"Velocity":18,"Duration":307941,"SoundDuration":307941,"Delta":869477528},{"NoteNumber":70,"Velocity":22,"Duration":307941,"SoundDuration":307941,"Delta":869477528},{"NoteNumber":81,"Velocity":56,"Duration":324148,"SoundDuration":324148,"Delta":869801677},{"NoteNumber":63,"Velocity":15,"Duration":307941,"SoundDuration":307941,"Delta":869801677},{"NoteNumber":66,"Velocity":18,"Duration":307941,"SoundDuration":307941,"Delta":869801677},{"NoteNumber":70,"Velocity":22,"Duration":307941,"SoundDuration":307941,"Delta":869801677},{"NoteNumber":82,"Velocity":56,"Duration":648298,"SoundDuration":648298,"Delta":870125826},{"NoteNumber":65,"Velocity":18,"Duration":307941,"SoundDuration":307941,"Delta":870125826},{"NoteNumber":62,"Velocity":15,"Duration":307941,"SoundDuration":307941,"Delta":870125826},{"NoteNumber":70,"Velocity":22,"Duration":307941,"SoundDuration":307941,"Delta":870125826},{"NoteNumber":65,"Velocity":18,"Duration":307941,"SoundDuration":307941,"Delta":870449975},{"NoteNumber":62,"Velocity":15,"Duration":307941,"SoundDuration":307941,"Delta":870449975},{"NoteNumber":70,"Velocity":22,"Duration":307941,"SoundDuration":307941,"Delta":870449975},{"NoteNumber":65,"Velocity":18,"Duration":307941,"SoundDuration":307941,"Delta":870774124},{"NoteNumber":62,"Velocity":15,"Duration":307941,"SoundDuration":307941,"Delta":870774124},{"NoteNumber":70,"Velocity":22,"Duration":307941,"SoundDuration":307941,"Delta":870774124},{"NoteNumber":65,"Velocity":18,"Duration":307941,"SoundDuration":307941,"Delta":871098273},{"NoteNumber":62,"Velocity":15,"Duration":307941,"SoundDuration":307941,"Delta":871098273},{"NoteNumber":70,"Velocity":22,"Duration":307941,"SoundDuration":307941,"Delta":871098273},{"NoteNumber":70,"Velocity":24,"Duration":301109,"SoundDuration":301109,"Delta":871422422},{"NoteNumber":65,"Velocity":20,"Duration":301109,"SoundDuration":301109,"Delta":871422422},{"NoteNumber":62,"Velocity":17,"Duration":301109,"SoundDuration":301109,"Delta":871422422},{"NoteNumber":70,"Velocity":24,"Duration":301109,"SoundDuration":301109,"Delta":871739379},{"NoteNumber":65,"Velocity":20,"Duration":301109,"SoundDuration":301109,"Delta":871739379},{"NoteNumber":62,"Velocity":17,"Duration":301109,"SoundDuration":301109,"Delta":871739379},{"NoteNumber":70,"Velocity":24,"Duration":301109,"SoundDuration":301109,"Delta":872056336},{"NoteNumber":65,"Velocity":20,"Duration":301109,"SoundDuration":301109,"Delta":872056336},{"NoteNumber":62,"Velocity":17,"Duration":301109,"SoundDuration":301109,"Delta":872056336},{"NoteNumber":70,"Velocity":24,"Duration":301109,"SoundDuration":301109,"Delta":872373293},{"NoteNumber":65,"Velocity":20,"Duration":301109,"SoundDuration":301109,"Delta":872373293},{"NoteNumber":62,"Velocity":17,"Duration":301109,"SoundDuration":301109,"Delta":872373293},{"NoteNumber":36,"Velocity":27,"Duration":79239,"SoundDuration":79239,"Delta":872611011},{"NoteNumber":62,"Velocity":19,"Duration":310227,"SoundDuration":310227,"Delta":872690250},{"NoteNumber":65,"Velocity":23,"Duration":310227,"SoundDuration":310227,"Delta":872690250},{"NoteNumber":70,"Velocity":27,"Duration":310227,"SoundDuration":310227,"Delta":872690250},{"NoteNumber":34,"Velocity":27,"Duration":123067,"SoundDuration":123067,"Delta":872690250},{"NoteNumber":36,"Velocity":23,"Duration":122638,"SoundDuration":122638,"Delta":872772343},{"NoteNumber":34,"Velocity":24,"Duration":122079,"SoundDuration":122079,"Delta":872854150},{"NoteNumber":36,"Velocity":22,"Duration":121381,"SoundDuration":121381,"Delta":872935675},{"NoteNumber":70,"Velocity":27,"Duration":304066,"SoundDuration":304066,"Delta":873016643},{"NoteNumber":65,"Velocity":23,"Duration":304066,"SoundDuration":304066,"Delta":873016643},{"NoteNumber":62,"Velocity":19,"Duration":304066,"SoundDuration":304066,"Delta":873016643},{"NoteNumber":34,"Velocity":24,"Duration":120820,"SoundDuration":120820,"Delta":873016643},{"NoteNumber":36,"Velocity":22,"Duration":120134,"SoundDuration":120134,"Delta":873097329},{"NoteNumber":34,"Velocity":26,"Duration":119593,"SoundDuration":119593,"Delta":873177463},{"NoteNumber":36,"Velocity":25,"Duration":117223,"SoundDuration":117223,"Delta":873257327},{"NoteNumber":70,"Velocity":28,"Duration":295761,"SoundDuration":295761,"Delta":873336233},{"NoteNumber":65,"Velocity":24,"Duration":295761,"SoundDuration":295761,"Delta":873336233},{"NoteNumber":62,"Velocity":20,"Duration":295761,"SoundDuration":295761,"Delta":873336233},{"NoteNumber":34,"Velocity":27,"Duration":115960,"SoundDuration":115960,"Delta":873336233},{"NoteNumber":36,"Velocity":24,"Duration":117892,"SoundDuration":117892,"Delta":873413020},{"NoteNumber":34,"Velocity":28,"Duration":116355,"SoundDuration":116355,"Delta":873491869},{"NoteNumber":36,"Velocity":23,"Duration":117568,"SoundDuration":117568,"Delta":873569469},{"NoteNumber":70,"Velocity":29,"Duration":300184,"SoundDuration":300184,"Delta":873647913},{"NoteNumber":65,"Velocity":25,"Duration":300184,"SoundDuration":300184,"Delta":873647913},{"NoteNumber":62,"Velocity":21,"Duration":300184,"SoundDuration":300184,"Delta":873647913},{"NoteNumber":34,"Velocity":27,"Duration":118142,"SoundDuration":118142,"Delta":873647913},{"NoteNumber":36,"Velocity":25,"Duration":120201,"SoundDuration":120201,"Delta":873726244},{"NoteNumber":34,"Velocity":26,"Duration":118770,"SoundDuration":118770,"Delta":873806243},{"NoteNumber":36,"Velocity":24,"Duration":116446,"SoundDuration":116446,"Delta":873886380},{"NoteNumber":70,"Velocity":30,"Duration":298461,"SoundDuration":298461,"Delta":873963545},{"NoteNumber":65,"Velocity":25,"Duration":298461,"SoundDuration":298461,"Delta":873963545},{"NoteNumber":62,"Velocity":21,"Duration":298461,"SoundDuration":298461,"Delta":873963545},{"NoteNumber":34,"Velocity":29,"Duration":118567,"SoundDuration":118567,"Delta":873963545},{"NoteNumber":36,"Velocity":26,"Duration":117083,"SoundDuration":117083,"Delta":874042555},{"NoteNumber":34,"Velocity":28,"Duration":117793,"SoundDuration":117793,"Delta":874120938},{"NoteNumber":36,"Velocity":26,"Duration":117022,"SoundDuration":117022,"Delta":874199093},{"NoteNumber":70,"Velocity":31,"Duration":297094,"SoundDuration":297094,"Delta":874277378},{"NoteNumber":65,"Velocity":26,"Duration":297094,"SoundDuration":297094,"Delta":874277378},{"NoteNumber":62,"Velocity":22,"Duration":297094,"SoundDuration":297094,"Delta":874277378},{"NoteNumber":34,"Velocity":29,"Duration":117395,"SoundDuration":117395,"Delta":874277378},{"NoteNumber":36,"Velocity":25,"Duration":117472,"SoundDuration":117472,"Delta":874355371},{"NoteNumber":34,"Velocity":29,"Duration":116988,"SoundDuration":116988,"Delta":874434069},{"NoteNumber":36,"Velocity":26,"Duration":117464,"SoundDuration":117464,"Delta":874511618},{"NoteNumber":70,"Velocity":32,"Duration":305573,"SoundDuration":305573,"Delta":874589998},{"NoteNumber":65,"Velocity":27,"Duration":305573,"SoundDuration":305573,"Delta":874589998},{"NoteNumber":62,"Velocity":22,"Duration":305573,"SoundDuration":305573,"Delta":874589998},{"NoteNumber":34,"Velocity":32,"Duration":119363,"SoundDuration":119363,"Delta":874589998},{"NoteNumber":36,"Velocity":27,"Duration":119434,"SoundDuration":119434,"Delta":874669374},{"NoteNumber":34,"Velocity":31,"Duration":121005,"SoundDuration":121005,"Delta":874749050},{"NoteNumber":36,"Velocity":26,"Duration":128797,"SoundDuration":128797,"Delta":874829363},{"NoteNumber":70,"Velocity":33,"Duration":345160,"SoundDuration":345160,"Delta":874913429},{"NoteNumber":65,"Velocity":28,"Duration":345160,"SoundDuration":345160,"Delta":874913429},{"NoteNumber":62,"Velocity":23,"Duration":345160,"SoundDuration":345160,"Delta":874913429},{"NoteNumber":33,"Velocity":34,"Duration":149883,"SoundDuration":149883,"Delta":874913429},{"NoteNumber":34,"Velocity":38,"Duration":151702,"SoundDuration":151702,"Delta":875033191},{"NoteNumber":36,"Velocity":40,"Duration":151110,"SoundDuration":151110,"Delta":875154406},{"NoteNumber":69,"Velocity":34,"Duration":313311,"SoundDuration":313311,"Delta":875277107},{"NoteNumber":65,"Velocity":28,"Duration":313311,"SoundDuration":313311,"Delta":875277107},{"NoteNumber":62,"Velocity":23,"Duration":313311,"SoundDuration":313311,"Delta":875277107},{"NoteNumber":38,"Velocity":42,"Duration":170454,"SoundDuration":170454,"Delta":875277107},{"NoteNumber":69,"Velocity":27,"Duration":301587,"SoundDuration":301587,"Delta":875606292},{"NoteNumber":65,"Velocity":23,"Duration":301587,"SoundDuration":301587,"Delta":875606292},{"NoteNumber":62,"Velocity":19,"Duration":301587,"SoundDuration":301587,"Delta":875606292},{"NoteNumber":69,"Velocity":27,"Duration":301587,"SoundDuration":301587,"Delta":875923752},{"NoteNumber":65,"Velocity":23,"Duration":301587,"SoundDuration":301587,"Delta":875923752},{"NoteNumber":62,"Velocity":19,"Duration":301587,"SoundDuration":301587,"Delta":875923752},{"NoteNumber":69,"Velocity":27,"Duration":301587,"SoundDuration":301587,"Delta":876241213},{"NoteNumber":65,"Velocity":23,"Duration":301587,"SoundDuration":301587,"Delta":876241213},{"NoteNumber":62,"Velocity":19,"Duration":301587,"SoundDuration":301587,"Delta":876241213},{"NoteNumber":69,"Velocity":27,"Duration":301587,"SoundDuration":301587,"Delta":876558673},{"NoteNumber":65,"Velocity":23,"Duration":301587,"SoundDuration":301587,"Delta":876558673},{"NoteNumber":62,"Velocity":19,"Duration":301587,"SoundDuration":301587,"Delta":876558673},{"NoteNumber":69,"Velocity":27,"Duration":301587,"SoundDuration":301587,"Delta":876876134},{"NoteNumber":65,"Velocity":23,"Duration":301587,"SoundDuration":301587,"Delta":876876134},{"NoteNumber":62,"Velocity":19,"Duration":301587,"SoundDuration":301587,"Delta":876876134},{"NoteNumber":77,"Velocity":50,"Duration":645671,"SoundDuration":645671,"Delta":877193594},{"NoteNumber":69,"Velocity":24,"Duration":305314,"SoundDuration":305314,"Delta":877193594},{"NoteNumber":65,"Velocity":20,"Duration":305314,"SoundDuration":305314,"Delta":877193594},{"NoteNumber":62,"Velocity":17,"Duration":305314,"SoundDuration":305314,"Delta":877193594},{"NoteNumber":69,"Velocity":24,"Duration":307941,"SoundDuration":307941,"Delta":877515117},{"NoteNumber":65,"Velocity":20,"Duration":307941,"SoundDuration":307941,"Delta":877515117},{"NoteNumber":62,"Velocity":17,"Duration":307941,"SoundDuration":307941,"Delta":877515117},{"NoteNumber":77,"Velocity":54,"Duration":655738,"SoundDuration":655738,"Delta":877839266},{"NoteNumber":69,"Velocity":24,"Duration":311475,"SoundDuration":311475,"Delta":877839266},{"NoteNumber":65,"Velocity":20,"Duration":311475,"SoundDuration":311475,"Delta":877839266},{"NoteNumber":62,"Velocity":17,"Duration":311475,"SoundDuration":311475,"Delta":877839266},{"NoteNumber":69,"Velocity":24,"Duration":311475,"SoundDuration":311475,"Delta":878167135},{"NoteNumber":65,"Velocity":20,"Duration":311475,"SoundDuration":311475,"Delta":878167135},{"NoteNumber":62,"Velocity":17,"Duration":311475,"SoundDuration":311475,"Delta":878167135},{"NoteNumber":76,"Velocity":52,"Duration":645618,"SoundDuration":645618,"Delta":878495004},{"NoteNumber":69,"Velocity":24,"Duration":304487,"SoundDuration":304487,"Delta":878495004},{"NoteNumber":65,"Velocity":20,"Duration":304487,"SoundDuration":304487,"Delta":878495004},{"NoteNumber":62,"Velocity":17,"Duration":304487,"SoundDuration":304487,"Delta":878495004},{"NoteNumber":69,"Velocity":24,"Duration":308690,"SoundDuration":308690,"Delta":878815517},{"NoteNumber":65,"Velocity":20,"Duration":308690,"SoundDuration":308690,"Delta":878815517},{"NoteNumber":62,"Velocity":17,"Duration":308690,"SoundDuration":308690,"Delta":878815517},{"NoteNumber":77,"Velocity":54,"Duration":626893,"SoundDuration":626893,"Delta":879140622},{"NoteNumber":69,"Velocity":24,"Duration":297774,"SoundDuration":297774,"Delta":879140622},{"NoteNumber":65,"Velocity":20,"Duration":297774,"SoundDuration":297774,"Delta":879140622},{"NoteNumber":62,"Velocity":17,"Duration":297774,"SoundDuration":297774,"Delta":879140622},{"NoteNumber":69,"Velocity":24,"Duration":297774,"SoundDuration":297774,"Delta":879454069},{"NoteNumber":65,"Velocity":20,"Duration":297774,"SoundDuration":297774,"Delta":879454069},{"NoteNumber":62,"Velocity":17,"Duration":297774,"SoundDuration":297774,"Delta":879454069},{"NoteNumber":79,"Velocity":51,"Duration":628375,"SoundDuration":628375,"Delta":879767516},{"NoteNumber":69,"Velocity":24,"Duration":297774,"SoundDuration":297774,"Delta":879767516},{"NoteNumber":65,"Velocity":20,"Duration":297774,"SoundDuration":297774,"Delta":879767516},{"NoteNumber":62,"Velocity":17,"Duration":297774,"SoundDuration":297774,"Delta":879767516},{"NoteNumber":69,"Velocity":24,"Duration":298811,"SoundDuration":298811,"Delta":880080963},{"NoteNumber":65,"Velocity":20,"Duration":298811,"SoundDuration":298811,"Delta":880080963},{"NoteNumber":62,"Velocity":17,"Duration":298811,"SoundDuration":298811,"Delta":880080963},{"NoteNumber":81,"Velocity":54,"Duration":1934028,"SoundDuration":1934028,"Delta":880395892},{"NoteNumber":69,"Velocity":24,"Duration":306221,"SoundDuration":306221,"Delta":880395892},{"NoteNumber":65,"Velocity":20,"Duration":306221,"SoundDuration":306221,"Delta":880395892},{"NoteNumber":62,"Velocity":17,"Duration":306221,"SoundDuration":306221,"Delta":880395892},{"NoteNumber":69,"Velocity":24,"Duration":306221,"SoundDuration":306221,"Delta":880718230},{"NoteNumber":65,"Velocity":20,"Duration":306221,"SoundDuration":306221,"Delta":880718230},{"NoteNumber":62,"Velocity":17,"Duration":306221,"SoundDuration":306221,"Delta":880718230},{"NoteNumber":69,"Velocity":25,"Duration":306221,"SoundDuration":306221,"Delta":881040568},{"NoteNumber":65,"Velocity":21,"Duration":306221,"SoundDuration":306221,"Delta":881040568},{"NoteNumber":61,"Velocity":17,"Duration":306221,"SoundDuration":306221,"Delta":881040568},{"NoteNumber":69,"Velocity":25,"Duration":306221,"SoundDuration":306221,"Delta":881362906},{"NoteNumber":65,"Velocity":21,"Duration":306221,"SoundDuration":306221,"Delta":881362906},{"NoteNumber":61,"Velocity":17,"Duration":306221,"SoundDuration":306221,"Delta":881362906},{"NoteNumber":69,"Velocity":25,"Duration":306221,"SoundDuration":306221,"Delta":881685244},{"NoteNumber":65,"Velocity":21,"Duration":306221,"SoundDuration":306221,"Delta":881685244},{"NoteNumber":60,"Velocity":17,"Duration":306221,"SoundDuration":306221,"Delta":881685244},{"NoteNumber":69,"Velocity":25,"Duration":306221,"SoundDuration":306221,"Delta":882007582},{"NoteNumber":65,"Velocity":21,"Duration":306221,"SoundDuration":306221,"Delta":882007582},{"NoteNumber":60,"Velocity":17,"Duration":306221,"SoundDuration":306221,"Delta":882007582},{"NoteNumber":79,"Velocity":54,"Duration":315225,"SoundDuration":315225,"Delta":882329920},{"NoteNumber":69,"Velocity":25,"Duration":299464,"SoundDuration":299464,"Delta":882329920},{"NoteNumber":65,"Velocity":21,"Duration":299464,"SoundDuration":299464,"Delta":882329920},{"NoteNumber":59,"Velocity":17,"Duration":299464,"SoundDuration":299464,"Delta":882329920},{"NoteNumber":77,"Velocity":53,"Duration":315225,"SoundDuration":315225,"Delta":882645145},{"NoteNumber":69,"Velocity":25,"Duration":299464,"SoundDuration":299464,"Delta":882645145},{"NoteNumber":65,"Velocity":21,"Duration":299464,"SoundDuration":299464,"Delta":882645145},{"NoteNumber":59,"Velocity":17,"Duration":299464,"SoundDuration":299464,"Delta":882645145},{"NoteNumber":79,"Velocity":54,"Duration":648297,"SoundDuration":648297,"Delta":882960371},{"NoteNumber":58,"Velocity":17,"Duration":307941,"SoundDuration":307941,"Delta":882960371},{"NoteNumber":65,"Velocity":21,"Duration":307941,"SoundDuration":307941,"Delta":882960371},{"NoteNumber":67,"Velocity":25,"Duration":307941,"SoundDuration":307941,"Delta":882960371},{"NoteNumber":58,"Velocity":17,"Duration":307941,"SoundDuration":307941,"Delta":883284520},{"NoteNumber":65,"Velocity":21,"Duration":307941,"SoundDuration":307941,"Delta":883284520},{"NoteNumber":67,"Velocity":25,"Duration":307941,"SoundDuration":307941,"Delta":883284520},{"NoteNumber":79,"Velocity":54,"Duration":641026,"SoundDuration":641026,"Delta":883608669},{"NoteNumber":58,"Velocity":17,"Duration":304487,"SoundDuration":304487,"Delta":883608669},{"NoteNumber":62,"Velocity":21,"Duration":304487,"SoundDuration":304487,"Delta":883608669},{"NoteNumber":67,"Velocity":25,"Duration":304487,"SoundDuration":304487,"Delta":883608669},{"NoteNumber":58,"Velocity":17,"Duration":304487,"SoundDuration":304487,"Delta":883929182},{"NoteNumber":62,"Velocity":21,"Duration":304487,"SoundDuration":304487,"Delta":883929182},{"NoteNumber":67,"Velocity":25,"Duration":304487,"SoundDuration":304487,"Delta":883929182},{"NoteNumber":79,"Velocity":54,"Duration":641026,"SoundDuration":641026,"Delta":884249695},{"NoteNumber":58,"Velocity":17,"Duration":304487,"SoundDuration":304487,"Delta":884249695},{"NoteNumber":64,"Velocity":21,"Duration":304487,"SoundDuration":304487,"Delta":884249695},{"NoteNumber":67,"Velocity":25,"Duration":304487,"SoundDuration":304487,"Delta":884249695},{"NoteNumber":58,"Velocity":17,"Duration":304487,"SoundDuration":304487,"Delta":884570208},{"NoteNumber":64,"Velocity":21,"Duration":304487,"SoundDuration":304487,"Delta":884570208},{"NoteNumber":67,"Velocity":25,"Duration":304487,"SoundDuration":304487,"Delta":884570208},{"NoteNumber":77,"Velocity":54,"Duration":324149,"SoundDuration":324149,"Delta":884890721},{"NoteNumber":58,"Velocity":17,"Duration":307941,"SoundDuration":307941,"Delta":884890721},{"NoteNumber":60,"Velocity":21,"Duration":307941,"SoundDuration":307941,"Delta":884890721},{"NoteNumber":67,"Velocity":25,"Duration":307941,"SoundDuration":307941,"Delta":884890721},{"NoteNumber":76,"Velocity":50,"Duration":324148,"SoundDuration":324148,"Delta":885214870},{"NoteNumber":58,"Velocity":17,"Duration":307941,"SoundDuration":307941,"Delta":885214870},{"NoteNumber":60,"Velocity":21,"Duration":307941,"SoundDuration":307941,"Delta":885214870},{"NoteNumber":67,"Velocity":25,"Duration":307941,"SoundDuration":307941,"Delta":885214870},{"NoteNumber":77,"Velocity":66,"Duration":2879192,"SoundDuration":2879192,"Delta":885539019},{"NoteNumber":57,"Velocity":24,"Duration":307941,"SoundDuration":307941,"Delta":885539019},{"NoteNumber":60,"Velocity":29,"Duration":307941,"SoundDuration":307941,"Delta":885539019},{"NoteNumber":63,"Velocity":35,"Duration":307941,"SoundDuration":307941,"Delta":885539019},{"NoteNumber":65,"Velocity":35,"Duration":307941,"SoundDuration":307941,"Delta":885539019},{"NoteNumber":57,"Velocity":18,"Duration":301587,"SoundDuration":301587,"Delta":885863168},{"NoteNumber":60,"Velocity":22,"Duration":301587,"SoundDuration":301587,"Delta":885863168},{"NoteNumber":63,"Velocity":27,"Duration":301587,"SoundDuration":301587,"Delta":885863168},{"NoteNumber":65,"Velocity":27,"Duration":301587,"SoundDuration":301587,"Delta":885863168},{"NoteNumber":57,"Velocity":19,"Duration":301587,"SoundDuration":301587,"Delta":886180628},{"NoteNumber":60,"Velocity":23,"Duration":301587,"SoundDuration":301587,"Delta":886180628},{"NoteNumber":63,"Velocity":27,"Duration":301587,"SoundDuration":301587,"Delta":886180628},{"NoteNumber":65,"Velocity":27,"Duration":301587,"SoundDuration":301587,"Delta":886180628},{"NoteNumber":57,"Velocity":19,"Duration":301587,"SoundDuration":301587,"Delta":886498089},{"NoteNumber":60,"Velocity":23,"Duration":301587,"SoundDuration":301587,"Delta":886498089},{"NoteNumber":63,"Velocity":27,"Duration":301587,"SoundDuration":301587,"Delta":886498089},{"NoteNumber":65,"Velocity":27,"Duration":301587,"SoundDuration":301587,"Delta":886498089},{"NoteNumber":57,"Velocity":19,"Duration":301587,"SoundDuration":301587,"Delta":886815549},{"NoteNumber":60,"Velocity":23,"Duration":301587,"SoundDuration":301587,"Delta":886815549},{"NoteNumber":63,"Velocity":27,"Duration":301587,"SoundDuration":301587,"Delta":886815549},{"NoteNumber":65,"Velocity":27,"Duration":301587,"SoundDuration":301587,"Delta":886815549},{"NoteNumber":57,"Velocity":19,"Duration":301587,"SoundDuration":301587,"Delta":887133010},{"NoteNumber":60,"Velocity":23,"Duration":301587,"SoundDuration":301587,"Delta":887133010},{"NoteNumber":63,"Velocity":27,"Duration":301587,"SoundDuration":301587,"Delta":887133010},{"NoteNumber":65,"Velocity":27,"Duration":301587,"SoundDuration":301587,"Delta":887133010},{"NoteNumber":57,"Velocity":19,"Duration":306451,"SoundDuration":306451,"Delta":887450470},{"NoteNumber":60,"Velocity":23,"Duration":306451,"SoundDuration":306451,"Delta":887450470},{"NoteNumber":63,"Velocity":27,"Duration":306451,"SoundDuration":306451,"Delta":887450470},{"NoteNumber":65,"Velocity":27,"Duration":306451,"SoundDuration":306451,"Delta":887450470},{"NoteNumber":57,"Velocity":19,"Duration":306451,"SoundDuration":306451,"Delta":887773051},{"NoteNumber":60,"Velocity":23,"Duration":306451,"SoundDuration":306451,"Delta":887773051},{"NoteNumber":63,"Velocity":27,"Duration":306451,"SoundDuration":306451,"Delta":887773051},{"NoteNumber":65,"Velocity":27,"Duration":306451,"SoundDuration":306451,"Delta":887773051},{"NoteNumber":57,"Velocity":21,"Duration":606283,"SoundDuration":606283,"Delta":888095631},{"NoteNumber":60,"Velocity":25,"Duration":606283,"SoundDuration":606283,"Delta":888095631},{"NoteNumber":63,"Velocity":30,"Duration":606283,"SoundDuration":606283,"Delta":888095631},{"NoteNumber":65,"Velocity":30,"Duration":606283,"SoundDuration":606283,"Delta":888095631},{"NoteNumber":81,"Velocity":50,"Duration":315225,"SoundDuration":315225,"Delta":888418212},{"NoteNumber":79,"Velocity":50,"Duration":315225,"SoundDuration":315225,"Delta":888733437},{"NoteNumber":77,"Velocity":48,"Duration":315225,"SoundDuration":315225,"Delta":889048663},{"NoteNumber":84,"Velocity":54,"Duration":315225,"SoundDuration":315225,"Delta":889363888},{"NoteNumber":82,"Velocity":50,"Duration":315225,"SoundDuration":315225,"Delta":889679114},{"NoteNumber":81,"Velocity":50,"Duration":315225,"SoundDuration":315225,"Delta":889994339},{"NoteNumber":87,"Velocity":54,"Duration":315225,"SoundDuration":315225,"Delta":890309565},{"NoteNumber":86,"Velocity":54,"Duration":315225,"SoundDuration":315225,"Delta":890624790},{"NoteNumber":84,"Velocity":50,"Duration":315225,"SoundDuration":315225,"Delta":890940016},{"NoteNumber":91,"Velocity":54,"Duration":314039,"SoundDuration":314039,"Delta":891255241},{"NoteNumber":89,"Velocity":52,"Duration":316671,"SoundDuration":316671,"Delta":891569281},{"NoteNumber":87,"Velocity":52,"Duration":319610,"SoundDuration":319610,"Delta":891885953},{"NoteNumber":86,"Velocity":51,"Duration":322941,"SoundDuration":322941,"Delta":892205563},{"NoteNumber":84,"Velocity":54,"Duration":325704,"SoundDuration":325704,"Delta":892528505},{"NoteNumber":86,"Velocity":57,"Duration":326016,"SoundDuration":326016,"Delta":892854210},{"NoteNumber":87,"Velocity":66,"Duration":2870838,"SoundDuration":2870838,"Delta":893180226},{"NoteNumber":57,"Velocity":22,"Duration":307941,"SoundDuration":307941,"Delta":893180226},{"NoteNumber":60,"Velocity":26,"Duration":307941,"SoundDuration":307941,"Delta":893180226},{"NoteNumber":63,"Velocity":31,"Duration":307941,"SoundDuration":307941,"Delta":893180226},{"NoteNumber":66,"Velocity":31,"Duration":307941,"SoundDuration":307941,"Delta":893180226},{"NoteNumber":57,"Velocity":17,"Duration":300000,"SoundDuration":300000,"Delta":893504375},{"NoteNumber":60,"Velocity":20,"Duration":300000,"SoundDuration":300000,"Delta":893504375},{"NoteNumber":63,"Velocity":24,"Duration":300000,"SoundDuration":300000,"Delta":893504375},{"NoteNumber":66,"Velocity":24,"Duration":300000,"SoundDuration":300000,"Delta":893504375},{"NoteNumber":57,"Velocity":17,"Duration":300000,"SoundDuration":300000,"Delta":893820164},{"NoteNumber":60,"Velocity":20,"Duration":300000,"SoundDuration":300000,"Delta":893820164},{"NoteNumber":63,"Velocity":24,"Duration":300000,"SoundDuration":300000,"Delta":893820164},{"NoteNumber":66,"Velocity":24,"Duration":300000,"SoundDuration":300000,"Delta":893820164},{"NoteNumber":57,"Velocity":17,"Duration":300000,"SoundDuration":300000,"Delta":894135954},{"NoteNumber":60,"Velocity":20,"Duration":300000,"SoundDuration":300000,"Delta":894135954},{"NoteNumber":63,"Velocity":24,"Duration":300000,"SoundDuration":300000,"Delta":894135954},{"NoteNumber":66,"Velocity":24,"Duration":300000,"SoundDuration":300000,"Delta":894135954},{"NoteNumber":57,"Velocity":17,"Duration":300000,"SoundDuration":300000,"Delta":894451743},{"NoteNumber":60,"Velocity":20,"Duration":300000,"SoundDuration":300000,"Delta":894451743},{"NoteNumber":63,"Velocity":24,"Duration":300000,"SoundDuration":300000,"Delta":894451743},{"NoteNumber":66,"Velocity":24,"Duration":300000,"SoundDuration":300000,"Delta":894451743},{"NoteNumber":57,"Velocity":17,"Duration":300000,"SoundDuration":300000,"Delta":894767533},{"NoteNumber":60,"Velocity":20,"Duration":300000,"SoundDuration":300000,"Delta":894767533},{"NoteNumber":63,"Velocity":24,"Duration":300000,"SoundDuration":300000,"Delta":894767533},{"NoteNumber":66,"Velocity":24,"Duration":300000,"SoundDuration":300000,"Delta":894767533},{"NoteNumber":57,"Velocity":17,"Duration":306451,"SoundDuration":306451,"Delta":895083322},{"NoteNumber":60,"Velocity":20,"Duration":306451,"SoundDuration":306451,"Delta":895083322},{"NoteNumber":63,"Velocity":24,"Duration":306451,"SoundDuration":306451,"Delta":895083322},{"NoteNumber":66,"Velocity":24,"Duration":306451,"SoundDuration":306451,"Delta":895083322},{"NoteNumber":57,"Velocity":17,"Duration":306451,"SoundDuration":306451,"Delta":895405903},{"NoteNumber":60,"Velocity":20,"Duration":306451,"SoundDuration":306451,"Delta":895405903},{"NoteNumber":63,"Velocity":24,"Duration":306451,"SoundDuration":306451,"Delta":895405903},{"NoteNumber":66,"Velocity":24,"Duration":306451,"SoundDuration":306451,"Delta":895405903},{"NoteNumber":57,"Velocity":18,"Duration":609417,"SoundDuration":609417,"Delta":895728483},{"NoteNumber":60,"Velocity":22,"Duration":609417,"SoundDuration":609417,"Delta":895728483},{"NoteNumber":63,"Velocity":27,"Duration":609417,"SoundDuration":609417,"Delta":895728483},{"NoteNumber":66,"Velocity":27,"Duration":609417,"SoundDuration":609417,"Delta":895728483},{"NoteNumber":84,"Velocity":53,"Duration":318708,"SoundDuration":318708,"Delta":896051064},{"NoteNumber":90,"Velocity":58,"Duration":318708,"SoundDuration":318708,"Delta":896369772},{"NoteNumber":89,"Velocity":54,"Duration":318708,"SoundDuration":318708,"Delta":896688480},{"NoteNumber":87,"Velocity":56,"Duration":324149,"SoundDuration":324149,"Delta":897007188},{"NoteNumber":86,"Velocity":51,"Duration":324148,"SoundDuration":324148,"Delta":897331337},{"NoteNumber":84,"Velocity":51,"Duration":333629,"SoundDuration":333629,"Delta":897655486},{"NoteNumber":86,"Velocity":51,"Duration":333630,"SoundDuration":333630,"Delta":897989116},{"NoteNumber":87,"Velocity":53,"Duration":2924378,"SoundDuration":2924378,"Delta":898322746},{"NoteNumber":57,"Velocity":17,"Duration":311475,"SoundDuration":311475,"Delta":898322746},{"NoteNumber":60,"Velocity":21,"Duration":311475,"SoundDuration":311475,"Delta":898322746},{"NoteNumber":63,"Velocity":21,"Duration":311475,"SoundDuration":311475,"Delta":898322746},{"NoteNumber":65,"Velocity":25,"Duration":311475,"SoundDuration":311475,"Delta":898322746},{"NoteNumber":57,"Velocity":17,"Duration":306451,"SoundDuration":306451,"Delta":898650615},{"NoteNumber":60,"Velocity":21,"Duration":306451,"SoundDuration":306451,"Delta":898650615},{"NoteNumber":63,"Velocity":25,"Duration":306451,"SoundDuration":306451,"Delta":898650615},{"NoteNumber":65,"Velocity":25,"Duration":306451,"SoundDuration":306451,"Delta":898650615},{"NoteNumber":57,"Velocity":18,"Duration":306451,"SoundDuration":306451,"Delta":898973195},{"NoteNumber":60,"Velocity":22,"Duration":306451,"SoundDuration":306451,"Delta":898973195},{"NoteNumber":63,"Velocity":26,"Duration":306451,"SoundDuration":306451,"Delta":898973195},{"NoteNumber":65,"Velocity":26,"Duration":306451,"SoundDuration":306451,"Delta":898973195},{"NoteNumber":57,"Velocity":18,"Duration":306451,"SoundDuration":306451,"Delta":899295776},{"NoteNumber":60,"Velocity":22,"Duration":306451,"SoundDuration":306451,"Delta":899295776},{"NoteNumber":63,"Velocity":26,"Duration":306451,"SoundDuration":306451,"Delta":899295776},{"NoteNumber":65,"Velocity":26,"Duration":306451,"SoundDuration":306451,"Delta":899295776},{"NoteNumber":57,"Velocity":18,"Duration":306451,"SoundDuration":306451,"Delta":899618356},{"NoteNumber":60,"Velocity":22,"Duration":306451,"SoundDuration":306451,"Delta":899618356},{"NoteNumber":63,"Velocity":26,"Duration":306451,"SoundDuration":306451,"Delta":899618356},{"NoteNumber":65,"Velocity":26,"Duration":306451,"SoundDuration":306451,"Delta":899618356},{"NoteNumber":57,"Velocity":18,"Duration":306451,"SoundDuration":306451,"Delta":899940937},{"NoteNumber":60,"Velocity":22,"Duration":306451,"SoundDuration":306451,"Delta":899940937},{"NoteNumber":63,"Velocity":26,"Duration":306451,"SoundDuration":306451,"Delta":899940937},{"NoteNumber":65,"Velocity":26,"Duration":306451,"SoundDuration":306451,"Delta":899940937},{"NoteNumber":57,"Velocity":18,"Duration":311475,"SoundDuration":311475,"Delta":900263517},{"NoteNumber":60,"Velocity":22,"Duration":311475,"SoundDuration":311475,"Delta":900263517},{"NoteNumber":63,"Velocity":26,"Duration":311475,"SoundDuration":311475,"Delta":900263517},{"NoteNumber":65,"Velocity":26,"Duration":311475,"SoundDuration":311475,"Delta":900263517},{"NoteNumber":57,"Velocity":18,"Duration":311475,"SoundDuration":311475,"Delta":900591386},{"NoteNumber":60,"Velocity":22,"Duration":311475,"SoundDuration":311475,"Delta":900591386},{"NoteNumber":63,"Velocity":26,"Duration":311475,"SoundDuration":311475,"Delta":900591386},{"NoteNumber":65,"Velocity":26,"Duration":311475,"SoundDuration":311475,"Delta":900591386},{"NoteNumber":57,"Velocity":22,"Duration":650206,"SoundDuration":650206,"Delta":900919255},{"NoteNumber":60,"Velocity":22,"Duration":650206,"SoundDuration":650206,"Delta":900919255},{"NoteNumber":63,"Velocity":27,"Duration":650206,"SoundDuration":650206,"Delta":900919255},{"NoteNumber":65,"Velocity":27,"Duration":650206,"SoundDuration":650206,"Delta":900919255},{"NoteNumber":84,"Velocity":53,"Duration":322337,"SoundDuration":322337,"Delta":901247124},{"NoteNumber":91,"Velocity":56,"Duration":161169,"SoundDuration":161169,"Delta":901569462},{"NoteNumber":89,"Velocity":53,"Duration":161168,"SoundDuration":161168,"Delta":901891800},{"NoteNumber":87,"Velocity":53,"Duration":161169,"SoundDuration":161169,"Delta":902214138},{"NoteNumber":86,"Velocity":51,"Duration":161168,"SoundDuration":161168,"Delta":902536476},{"NoteNumber":84,"Velocity":53,"Duration":161169,"SoundDuration":161169,"Delta":902858814},{"NoteNumber":82,"Velocity":52,"Duration":161168,"SoundDuration":161168,"Delta":903181152},{"NoteNumber":81,"Velocity":53,"Duration":161169,"SoundDuration":161169,"Delta":903503490},{"NoteNumber":79,"Velocity":49,"Duration":161168,"SoundDuration":161168,"Delta":903825828},{"NoteNumber":77,"Velocity":53,"Duration":161169,"SoundDuration":161169,"Delta":904148166},{"NoteNumber":76,"Velocity":49,"Duration":161168,"SoundDuration":161168,"Delta":904470504},{"NoteNumber":75,"Velocity":44,"Duration":214892,"SoundDuration":214892,"Delta":904792842},{"NoteNumber":74,"Velocity":44,"Duration":214891,"SoundDuration":214891,"Delta":905007734},{"NoteNumber":72,"Velocity":43,"Duration":214891,"SoundDuration":214891,"Delta":905222626},{"NoteNumber":70,"Velocity":42,"Duration":214892,"SoundDuration":214892,"Delta":905437518},{"NoteNumber":69,"Velocity":42,"Duration":214891,"SoundDuration":214891,"Delta":905652410},{"NoteNumber":67,"Velocity":41,"Duration":214891,"SoundDuration":214891,"Delta":905867302},{"NoteNumber":65,"Velocity":40,"Duration":214892,"SoundDuration":214892,"Delta":906082194},{"NoteNumber":64,"Velocity":40,"Duration":214891,"SoundDuration":214891,"Delta":906297086},{"NoteNumber":63,"Velocity":39,"Duration":214891,"SoundDuration":214891,"Delta":906511978},{"NoteNumber":62,"Velocity":38,"Duration":214892,"SoundDuration":214892,"Delta":906726870},{"NoteNumber":61,"Velocity":38,"Duration":214891,"SoundDuration":214891,"Delta":906941762},{"NoteNumber":60,"Velocity":37,"Duration":215382,"SoundDuration":215382,"Delta":907156654},{"NoteNumber":59,"Velocity":33,"Duration":217344,"SoundDuration":217344,"Delta":907372037},{"NoteNumber":58,"Velocity":32,"Duration":217343,"SoundDuration":217343,"Delta":907589381},{"NoteNumber":57,"Velocity":31,"Duration":217899,"SoundDuration":217899,"Delta":907806725},{"NoteNumber":56,"Velocity":30,"Duration":218579,"SoundDuration":218579,"Delta":908024625},{"NoteNumber":55,"Velocity":29,"Duration":218579,"SoundDuration":218579,"Delta":908243204},{"NoteNumber":54,"Velocity":27,"Duration":219487,"SoundDuration":219487,"Delta":908461783},{"NoteNumber":56,"Velocity":22,"Duration":138529,"SoundDuration":138529,"Delta":908681271},{"NoteNumber":54,"Velocity":19,"Duration":138923,"SoundDuration":138923,"Delta":908773492},{"NoteNumber":56,"Velocity":20,"Duration":138430,"SoundDuration":138430,"Delta":908866108},{"NoteNumber":54,"Velocity":18,"Duration":138036,"SoundDuration":138036,"Delta":908958526},{"NoteNumber":56,"Velocity":20,"Duration":137541,"SoundDuration":137541,"Delta":909050551},{"NoteNumber":54,"Velocity":18,"Duration":137145,"SoundDuration":137145,"Delta":909142377},{"NoteNumber":56,"Velocity":21,"Duration":136655,"SoundDuration":136655,"Delta":909233807},{"NoteNumber":54,"Velocity":20,"Duration":135638,"SoundDuration":135638,"Delta":909325042},{"NoteNumber":56,"Velocity":22,"Duration":133701,"SoundDuration":133701,"Delta":909415885},{"NoteNumber":54,"Velocity":19,"Duration":133594,"SoundDuration":133594,"Delta":909505254},{"NoteNumber":56,"Velocity":22,"Duration":132601,"SoundDuration":132601,"Delta":909594220},{"NoteNumber":54,"Velocity":18,"Duration":133809,"SoundDuration":133809,"Delta":909682889},{"NoteNumber":56,"Velocity":21,"Duration":132523,"SoundDuration":132523,"Delta":909771903},{"NoteNumber":54,"Velocity":19,"Duration":133487,"SoundDuration":133487,"Delta":909860761},{"NoteNumber":56,"Velocity":20,"Duration":134715,"SoundDuration":134715,"Delta":909949111},{"NoteNumber":54,"Velocity":18,"Duration":132997,"SoundDuration":132997,"Delta":910039309},{"NoteNumber":56,"Velocity":22,"Duration":135432,"SoundDuration":135432,"Delta":910127616},{"NoteNumber":54,"Velocity":19,"Duration":132892,"SoundDuration":132892,"Delta":910218022},{"NoteNumber":56,"Velocity":21,"Duration":131680,"SoundDuration":131680,"Delta":910307215},{"NoteNumber":54,"Velocity":19,"Duration":134512,"SoundDuration":134512,"Delta":910394544},{"NoteNumber":56,"Velocity":21,"Duration":132768,"SoundDuration":132768,"Delta":910484032},{"NoteNumber":54,"Velocity":18,"Duration":133852,"SoundDuration":133852,"Delta":910573189},{"NoteNumber":56,"Velocity":21,"Duration":135003,"SoundDuration":135003,"Delta":910661620},{"NoteNumber":54,"Velocity":18,"Duration":132835,"SoundDuration":132835,"Delta":910752198},{"NoteNumber":56,"Velocity":22,"Duration":133944,"SoundDuration":133944,"Delta":910840683},{"NoteNumber":54,"Velocity":19,"Duration":135832,"SoundDuration":135832,"Delta":910929681},{"NoteNumber":56,"Velocity":22,"Duration":137779,"SoundDuration":137779,"Delta":911019917},{"NoteNumber":54,"Velocity":18,"Duration":139777,"SoundDuration":139777,"Delta":911111427},{"NoteNumber":53,"Velocity":20,"Duration":218969,"SoundDuration":218969,"Delta":911204283},{"NoteNumber":54,"Velocity":23,"Duration":217403,"SoundDuration":217403,"Delta":911391971},{"NoteNumber":53,"Velocity":25,"Duration":178295,"SoundDuration":178295,"Delta":911579658},{"NoteNumber":29,"Velocity":27,"Duration":160627,"SoundDuration":160627,"Delta":914075795},{"NoteNumber":30,"Velocity":22,"Duration":160627,"SoundDuration":160627,"Delta":914204297},{"NoteNumber":32,"Velocity":22,"Duration":161440,"SoundDuration":161440,"Delta":914332799},{"NoteNumber":30,"Velocity":27,"Duration":144964,"SoundDuration":144964,"Delta":914461300},{"NoteNumber":32,"Velocity":23,"Duration":142777,"SoundDuration":142777,"Delta":914558403},{"NoteNumber":30,"Velocity":24,"Duration":141195,"SoundDuration":141195,"Delta":914653827},{"NoteNumber":32,"Velocity":22,"Duration":139731,"SoundDuration":139731,"Delta":914748205},{"NoteNumber":30,"Velocity":24,"Duration":138173,"SoundDuration":138173,"Delta":914841629},{"NoteNumber":32,"Velocity":22,"Duration":136677,"SoundDuration":136677,"Delta":914934048},{"NoteNumber":30,"Velocity":25,"Duration":135298,"SoundDuration":135298,"Delta":915025361},{"NoteNumber":32,"Velocity":24,"Duration":133203,"SoundDuration":133203,"Delta":915115862},{"NoteNumber":30,"Velocity":26,"Duration":134252,"SoundDuration":134252,"Delta":915204826},{"NoteNumber":32,"Velocity":23,"Duration":133431,"SoundDuration":133431,"Delta":915294091},{"NoteNumber":30,"Velocity":26,"Duration":132082,"SoundDuration":132082,"Delta":915383504},{"NoteNumber":32,"Velocity":22,"Duration":133540,"SoundDuration":133540,"Delta":915471364},{"NoteNumber":30,"Velocity":25,"Duration":132807,"SoundDuration":132807,"Delta":915560442},{"NoteNumber":32,"Velocity":23,"Duration":135579,"SoundDuration":135579,"Delta":915648712},{"NoteNumber":30,"Velocity":24,"Duration":134394,"SoundDuration":134394,"Delta":915738809},{"NoteNumber":32,"Velocity":22,"Duration":136085,"SoundDuration":136085,"Delta":915829053},{"NoteNumber":30,"Velocity":26,"Duration":135842,"SoundDuration":135842,"Delta":915918830},{"NoteNumber":32,"Velocity":23,"Duration":133634,"SoundDuration":133634,"Delta":916010432},{"NoteNumber":30,"Velocity":25,"Duration":135793,"SoundDuration":135793,"Delta":916098987},{"NoteNumber":32,"Velocity":23,"Duration":133542,"SoundDuration":133542,"Delta":916189566},{"NoteNumber":30,"Velocity":25,"Duration":132679,"SoundDuration":132679,"Delta":916279354},{"NoteNumber":32,"Velocity":22,"Duration":133520,"SoundDuration":133520,"Delta":916367404},{"NoteNumber":30,"Velocity":25,"Duration":131754,"SoundDuration":131754,"Delta":916456736},{"NoteNumber":32,"Velocity":22,"Duration":133947,"SoundDuration":133947,"Delta":916544500},{"NoteNumber":30,"Velocity":27,"Duration":138107,"SoundDuration":138107,"Delta":916633705},{"NoteNumber":32,"Velocity":23,"Duration":138498,"SoundDuration":138498,"Delta":916724624},{"NoteNumber":30,"Velocity":26,"Duration":136428,"SoundDuration":136428,"Delta":916817985},{"NoteNumber":32,"Velocity":22,"Duration":139479,"SoundDuration":139479,"Delta":916908260},{"NoteNumber":29,"Velocity":22,"Duration":216519,"SoundDuration":216519,"Delta":917002602},{"NoteNumber":30,"Velocity":18,"Duration":248426,"SoundDuration":248426,"Delta":917183151},{"NoteNumber":29,"Velocity":23,"Duration":195592,"SoundDuration":195592,"Delta":917398978},{"NoteNumber":58,"Velocity":32,"Duration":765403,"SoundDuration":765403,"Delta":920463585},{"NoteNumber":65,"Velocity":36,"Duration":765403,"SoundDuration":765403,"Delta":920463585},{"NoteNumber":70,"Velocity":43,"Duration":765403,"SoundDuration":765403,"Delta":920463585},{"NoteNumber":46,"Velocity":24,"Duration":765403,"SoundDuration":765403,"Delta":920463585},{"NoteNumber":50,"Velocity":29,"Duration":382701,"SoundDuration":382701,"Delta":920463585},{"NoteNumber":53,"Velocity":25,"Duration":382701,"SoundDuration":382701,"Delta":920846287},{"NoteNumber":58,"Velocity":33,"Duration":752838,"SoundDuration":752838,"Delta":921228989},{"NoteNumber":65,"Velocity":37,"Duration":752838,"SoundDuration":752838,"Delta":921228989},{"NoteNumber":70,"Velocity":45,"Duration":752838,"SoundDuration":752838,"Delta":921228989},{"NoteNumber":46,"Velocity":25,"Duration":752838,"SoundDuration":752838,"Delta":921228989},{"NoteNumber":50,"Velocity":30,"Duration":371931,"SoundDuration":371931,"Delta":921228989},{"NoteNumber":53,"Velocity":25,"Duration":380906,"SoundDuration":380906,"Delta":921600920},{"NoteNumber":57,"Velocity":27,"Duration":753794,"SoundDuration":753794,"Delta":921981827},{"NoteNumber":65,"Velocity":36,"Duration":753794,"SoundDuration":753794,"Delta":921981827},{"NoteNumber":69,"Velocity":43,"Duration":753794,"SoundDuration":753794,"Delta":921981827},{"NoteNumber":46,"Velocity":21,"Duration":753794,"SoundDuration":753794,"Delta":921981827},{"NoteNumber":48,"Velocity":27,"Duration":371931,"SoundDuration":371931,"Delta":921981827},{"NoteNumber":53,"Velocity":24,"Duration":381862,"SoundDuration":381862,"Delta":922353759},{"NoteNumber":58,"Velocity":33,"Duration":771051,"SoundDuration":771051,"Delta":922735622},{"NoteNumber":65,"Velocity":37,"Duration":771051,"SoundDuration":771051,"Delta":922735622},{"NoteNumber":70,"Velocity":45,"Duration":771051,"SoundDuration":771051,"Delta":922735622},{"NoteNumber":46,"Velocity":25,"Duration":771051,"SoundDuration":771051,"Delta":922735622},{"NoteNumber":50,"Velocity":30,"Duration":382701,"SoundDuration":382701,"Delta":922735622},{"NoteNumber":53,"Velocity":24,"Duration":388349,"SoundDuration":388349,"Delta":923118324},{"NoteNumber":60,"Velocity":32,"Duration":771929,"SoundDuration":771929,"Delta":923506673},{"NoteNumber":65,"Velocity":36,"Duration":771929,"SoundDuration":771929,"Delta":923506673},{"NoteNumber":72,"Velocity":43,"Duration":771929,"SoundDuration":771929,"Delta":923506673},{"NoteNumber":46,"Velocity":24,"Duration":771929,"SoundDuration":771929,"Delta":923506673},{"NoteNumber":51,"Velocity":29,"Duration":374578,"SoundDuration":374578,"Delta":923506673},{"NoteNumber":53,"Velocity":23,"Duration":397350,"SoundDuration":397350,"Delta":923881252},{"NoteNumber":62,"Velocity":36,"Duration":2192761,"SoundDuration":2192761,"Delta":924278603},{"NoteNumber":65,"Velocity":40,"Duration":2192761,"SoundDuration":2192761,"Delta":924278603},{"NoteNumber":74,"Velocity":47,"Duration":2192761,"SoundDuration":2192761,"Delta":924278603},{"NoteNumber":52,"Velocity":30,"Duration":371931,"SoundDuration":371931,"Delta":924278603},{"NoteNumber":46,"Velocity":25,"Duration":2192761,"SoundDuration":2192761,"Delta":924278603},{"NoteNumber":53,"Velocity":23,"Duration":182083,"SoundDuration":182083,"Delta":924650534},{"NoteNumber":53,"Velocity":23,"Duration":182083,"SoundDuration":182083,"Delta":925014700},{"NoteNumber":53,"Velocity":23,"Duration":182083,"SoundDuration":182083,"Delta":925378866},{"NoteNumber":53,"Velocity":23,"Duration":182082,"SoundDuration":182082,"Delta":925743032},{"NoteNumber":53,"Velocity":23,"Duration":182083,"SoundDuration":182083,"Delta":926107198},{"NoteNumber":60,"Velocity":33,"Duration":366703,"SoundDuration":366703,"Delta":926471364},{"NoteNumber":65,"Velocity":37,"Duration":761440,"SoundDuration":761440,"Delta":926471364},{"NoteNumber":72,"Velocity":45,"Duration":366703,"SoundDuration":366703,"Delta":926471364},{"NoteNumber":46,"Velocity":24,"Duration":761440,"SoundDuration":761440,"Delta":926471364},{"NoteNumber":51,"Velocity":29,"Duration":366703,"SoundDuration":366703,"Delta":926471364},{"NoteNumber":58,"Velocity":31,"Duration":394736,"SoundDuration":394736,"Delta":926838068},{"NoteNumber":70,"Velocity":41,"Duration":394736,"SoundDuration":394736,"Delta":926838068},{"NoteNumber":50,"Velocity":24,"Duration":394736,"SoundDuration":394736,"Delta":926838068},{"NoteNumber":60,"Velocity":31,"Duration":741335,"SoundDuration":741335,"Delta":927232805},{"NoteNumber":65,"Velocity":35,"Duration":741335,"SoundDuration":741335,"Delta":927232805},{"NoteNumber":72,"Velocity":42,"Duration":741335,"SoundDuration":741335,"Delta":927232805},{"NoteNumber":41,"Velocity":23,"Duration":749194,"SoundDuration":749194,"Delta":927232805},{"NoteNumber":51,"Velocity":27,"Duration":371931,"SoundDuration":371931,"Delta":927232805},{"NoteNumber":53,"Velocity":22,"Duration":377263,"SoundDuration":377263,"Delta":927604736},{"NoteNumber":60,"Velocity":30,"Duration":741335,"SoundDuration":741335,"Delta":927982000},{"NoteNumber":65,"Velocity":34,"Duration":741335,"SoundDuration":741335,"Delta":927982000},{"NoteNumber":72,"Velocity":41,"Duration":741335,"SoundDuration":741335,"Delta":927982000},{"NoteNumber":41,"Velocity":23,"Duration":749194,"SoundDuration":749194,"Delta":927982000},{"NoteNumber":51,"Velocity":26,"Duration":371931,"SoundDuration":371931,"Delta":927982000},{"NoteNumber":53,"Velocity":22,"Duration":377263,"SoundDuration":377263,"Delta":928353931},{"NoteNumber":60,"Velocity":30,"Duration":750293,"SoundDuration":750293,"Delta":928731195},{"NoteNumber":65,"Velocity":34,"Duration":750293,"SoundDuration":750293,"Delta":928731195},{"NoteNumber":72,"Velocity":41,"Duration":750293,"SoundDuration":750293,"Delta":928731195},{"NoteNumber":41,"Velocity":23,"Duration":758325,"SoundDuration":758325,"Delta":928731195},{"NoteNumber":51,"Velocity":26,"Duration":372820,"SoundDuration":372820,"Delta":928731195},{"NoteNumber":53,"Velocity":23,"Duration":385504,"SoundDuration":385504,"Delta":929104015},{"NoteNumber":58,"Velocity":33,"Duration":371931,"SoundDuration":371931,"Delta":929489520},{"NoteNumber":65,"Velocity":37,"Duration":774945,"SoundDuration":774945,"Delta":929489520},{"NoteNumber":70,"Velocity":45,"Duration":371931,"SoundDuration":371931,"Delta":929489520},{"NoteNumber":41,"Velocity":24,"Duration":774945,"SoundDuration":774945,"Delta":929489520},{"NoteNumber":50,"Velocity":29,"Duration":371931,"SoundDuration":371931,"Delta":929489520},{"NoteNumber":57,"Velocity":27,"Duration":403013,"SoundDuration":403013,"Delta":929861451},{"NoteNumber":69,"Velocity":40,"Duration":403013,"SoundDuration":403013,"Delta":929861451},{"NoteNumber":48,"Velocity":22,"Duration":403013,"SoundDuration":403013,"Delta":929861451},{"NoteNumber":65,"Velocity":46,"Duration":754526,"SoundDuration":754526,"Delta":930264465},{"NoteNumber":58,"Velocity":33,"Duration":2291780,"SoundDuration":2291780,"Delta":930264465},{"NoteNumber":70,"Velocity":46,"Duration":2291780,"SoundDuration":2291780,"Delta":930264465},{"NoteNumber":46,"Velocity":25,"Duration":2291780,"SoundDuration":2291780,"Delta":930264465},{"NoteNumber":50,"Velocity":30,"Duration":377263,"SoundDuration":377263,"Delta":930264465},{"NoteNumber":53,"Velocity":27,"Duration":377263,"SoundDuration":377263,"Delta":930641728},{"NoteNumber":63,"Velocity":37,"Duration":766128,"SoundDuration":766128,"Delta":931018992},{"NoteNumber":67,"Velocity":45,"Duration":766128,"SoundDuration":766128,"Delta":931018992},{"NoteNumber":51,"Velocity":29,"Duration":377263,"SoundDuration":377263,"Delta":931018992},{"NoteNumber":55,"Velocity":25,"Duration":388865,"SoundDuration":388865,"Delta":931396255},{"NoteNumber":62,"Velocity":32,"Duration":771124,"SoundDuration":771124,"Delta":931785121},{"NoteNumber":65,"Velocity":39,"Duration":771124,"SoundDuration":771124,"Delta":931785121},{"NoteNumber":50,"Velocity":26,"Duration":379939,"SoundDuration":379939,"Delta":931785121},{"NoteNumber":53,"Velocity":27,"Duration":391185,"SoundDuration":391185,"Delta":932165060},{"NoteNumber":70,"Velocity":54,"Duration":810766,"SoundDuration":810766,"Delta":932556245},{"NoteNumber":46,"Velocity":25,"Duration":810766,"SoundDuration":810766,"Delta":932556245},{"NoteNumber":50,"Velocity":35,"Duration":391185,"SoundDuration":391185,"Delta":932556245},{"NoteNumber":58,"Velocity":30,"Duration":419580,"SoundDuration":419580,"Delta":932947431},{"NoteNumber":63,"Velocity":40,"Duration":2197916,"SoundDuration":2197916,"Delta":933367011},{"NoteNumber":70,"Velocity":45,"Duration":2197916,"SoundDuration":2197916,"Delta":933367011},{"NoteNumber":75,"Velocity":54,"Duration":2197916,"SoundDuration":2197916,"Delta":933367011},{"NoteNumber":46,"Velocity":27,"Duration":2197916,"SoundDuration":2197916,"Delta":933367011},{"NoteNumber":55,"Velocity":32,"Duration":2197916,"SoundDuration":2197916,"Delta":933367011},{"NoteNumber":58,"Velocity":28,"Duration":184660,"SoundDuration":184660,"Delta":933738943},{"NoteNumber":58,"Velocity":29,"Duration":182083,"SoundDuration":182083,"Delta":934108264},{"NoteNumber":58,"Velocity":27,"Duration":182083,"SoundDuration":182083,"Delta":934472430},{"NoteNumber":58,"Velocity":30,"Duration":182082,"SoundDuration":182082,"Delta":934836596},{"NoteNumber":58,"Velocity":27,"Duration":182083,"SoundDuration":182083,"Delta":935200762},{"NoteNumber":62,"Velocity":36,"Duration":364165,"SoundDuration":364165,"Delta":935564928},{"NoteNumber":70,"Velocity":41,"Duration":364165,"SoundDuration":364165,"Delta":935564928},{"NoteNumber":74,"Velocity":49,"Duration":364165,"SoundDuration":364165,"Delta":935564928},{"NoteNumber":46,"Velocity":24,"Duration":752515,"SoundDuration":752515,"Delta":935564928},{"NoteNumber":53,"Velocity":29,"Duration":364165,"SoundDuration":364165,"Delta":935564928},{"NoteNumber":60,"Velocity":33,"Duration":388349,"SoundDuration":388349,"Delta":935929094},{"NoteNumber":70,"Velocity":37,"Duration":388349,"SoundDuration":388349,"Delta":935929094},{"NoteNumber":72,"Velocity":45,"Duration":388349,"SoundDuration":388349,"Delta":935929094},{"NoteNumber":51,"Velocity":27,"Duration":388349,"SoundDuration":388349,"Delta":935929094},{"NoteNumber":62,"Velocity":40,"Duration":743863,"SoundDuration":743863,"Delta":936317444},{"NoteNumber":70,"Velocity":40,"Duration":743863,"SoundDuration":743863,"Delta":936317444},{"NoteNumber":74,"Velocity":47,"Duration":743863,"SoundDuration":743863,"Delta":936317444},{"NoteNumber":46,"Velocity":24,"Duration":743863,"SoundDuration":743863,"Delta":936317444},{"NoteNumber":53,"Velocity":29,"Duration":371931,"SoundDuration":371931,"Delta":936317444},{"NoteNumber":50,"Velocity":25,"Duration":371931,"SoundDuration":371931,"Delta":936689375},{"NoteNumber":57,"Velocity":33,"Duration":762768,"SoundDuration":762768,"Delta":937061307},{"NoteNumber":65,"Velocity":37,"Duration":762768,"SoundDuration":762768,"Delta":937061307},{"NoteNumber":69,"Velocity":45,"Duration":762768,"SoundDuration":762768,"Delta":937061307},{"NoteNumber":46,"Velocity":24,"Duration":762768,"SoundDuration":762768,"Delta":937061307},{"NoteNumber":48,"Velocity":29,"Duration":377263,"SoundDuration":377263,"Delta":937061307},{"NoteNumber":53,"Velocity":25,"Duration":385504,"SoundDuration":385504,"Delta":937438570},{"NoteNumber":58,"Velocity":35,"Duration":759877,"SoundDuration":759877,"Delta":937824075},{"NoteNumber":65,"Velocity":39,"Duration":759877,"SoundDuration":759877,"Delta":937824075},{"NoteNumber":70,"Velocity":46,"Duration":759877,"SoundDuration":759877,"Delta":937824075},{"NoteNumber":46,"Velocity":24,"Duration":759877,"SoundDuration":759877,"Delta":937824075},{"NoteNumber":50,"Velocity":29,"Duration":379939,"SoundDuration":379939,"Delta":937824075},{"NoteNumber":53,"Velocity":27,"Duration":379938,"SoundDuration":379938,"Delta":938204014},{"NoteNumber":60,"Velocity":33,"Duration":762996,"SoundDuration":762996,"Delta":938583953},{"NoteNumber":65,"Velocity":37,"Duration":762996,"SoundDuration":762996,"Delta":938583953},{"NoteNumber":72,"Velocity":45,"Duration":762996,"SoundDuration":762996,"Delta":938583953},{"NoteNumber":46,"Velocity":24,"Duration":762996,"SoundDuration":762996,"Delta":938583953},{"NoteNumber":51,"Velocity":28,"Duration":374578,"SoundDuration":374578,"Delta":938583953},{"NoteNumber":53,"Velocity":26,"Duration":388417,"SoundDuration":388417,"Delta":938958532},{"NoteNumber":58,"Velocity":35,"Duration":782593,"SoundDuration":782593,"Delta":939346949},{"NoteNumber":65,"Velocity":39,"Duration":782593,"SoundDuration":782593,"Delta":939346949},{"NoteNumber":70,"Velocity":46,"Duration":782593,"SoundDuration":782593,"Delta":939346949},{"NoteNumber":46,"Velocity":24,"Duration":782593,"SoundDuration":782593,"Delta":939346949},{"NoteNumber":50,"Velocity":28,"Duration":385504,"SoundDuration":385504,"Delta":939346949},{"NoteNumber":53,"Velocity":26,"Duration":397088,"SoundDuration":397088,"Delta":939732454},{"NoteNumber":65,"Velocity":39,"Duration":794175,"SoundDuration":794175,"Delta":940129542},{"NoteNumber":62,"Velocity":35,"Duration":794175,"SoundDuration":794175,"Delta":940129542},{"NoteNumber":70,"Velocity":39,"Duration":794175,"SoundDuration":794175,"Delta":940129542},{"NoteNumber":74,"Velocity":46,"Duration":794175,"SoundDuration":794175,"Delta":940129542},{"NoteNumber":46,"Velocity":28,"Duration":794175,"SoundDuration":794175,"Delta":940129542},{"NoteNumber":53,"Velocity":26,"Duration":397088,"SoundDuration":397088,"Delta":940526630},{"NoteNumber":60,"Velocity":33,"Duration":5099994,"SoundDuration":5099994,"Delta":940923718},{"NoteNumber":65,"Velocity":37,"Duration":5099994,"SoundDuration":5099994,"Delta":940923718},{"NoteNumber":69,"Velocity":37,"Duration":5099994,"SoundDuration":5099994,"Delta":940923718},{"NoteNumber":72,"Velocity":45,"Duration":5099994,"SoundDuration":5099994,"Delta":940923718},{"NoteNumber":41,"Velocity":28,"Duration":794175,"SoundDuration":794175,"Delta":940923718},{"NoteNumber":29,"Velocity":24,"Duration":160627,"SoundDuration":160627,"Delta":942150795},{"NoteNumber":30,"Velocity":19,"Duration":160627,"SoundDuration":160627,"Delta":942279296},{"NoteNumber":32,"Velocity":19,"Duration":162884,"SoundDuration":162884,"Delta":942407798},{"NoteNumber":30,"Velocity":24,"Duration":171434,"SoundDuration":171434,"Delta":942536300},{"NoteNumber":32,"Velocity":20,"Duration":170105,"SoundDuration":170105,"Delta":942639449},{"NoteNumber":30,"Velocity":21,"Duration":168795,"SoundDuration":168795,"Delta":942741850},{"NoteNumber":32,"Velocity":19,"Duration":167515,"SoundDuration":167515,"Delta":942843407},{"NoteNumber":30,"Velocity":21,"Duration":166258,"SoundDuration":166258,"Delta":942944238},{"NoteNumber":32,"Velocity":19,"Duration":163492,"SoundDuration":163492,"Delta":943044265},{"NoteNumber":30,"Velocity":22,"Duration":159573,"SoundDuration":159573,"Delta":943143587},{"NoteNumber":32,"Velocity":21,"Duration":160170,"SoundDuration":160170,"Delta":943239419},{"NoteNumber":30,"Velocity":23,"Duration":158115,"SoundDuration":158115,"Delta":943335523},{"NoteNumber":32,"Velocity":20,"Duration":157569,"SoundDuration":157569,"Delta":943431072},{"NoteNumber":30,"Velocity":23,"Duration":155606,"SoundDuration":155606,"Delta":943525671},{"NoteNumber":32,"Velocity":19,"Duration":157411,"SoundDuration":157411,"Delta":943619548},{"NoteNumber":30,"Velocity":22,"Duration":157988,"SoundDuration":157988,"Delta":943712849},{"NoteNumber":32,"Velocity":20,"Duration":156307,"SoundDuration":156307,"Delta":943808671},{"NoteNumber":30,"Velocity":21,"Duration":157650,"SoundDuration":157650,"Delta":943901788},{"NoteNumber":32,"Velocity":19,"Duration":158151,"SoundDuration":158151,"Delta":943996870},{"NoteNumber":30,"Velocity":23,"Duration":159323,"SoundDuration":159323,"Delta":944090389},{"NoteNumber":32,"Velocity":20,"Duration":157891,"SoundDuration":157891,"Delta":944187103},{"NoteNumber":30,"Velocity":22,"Duration":157495,"SoundDuration":157495,"Delta":944280884},{"NoteNumber":32,"Velocity":20,"Duration":156897,"SoundDuration":156897,"Delta":944376477},{"NoteNumber":30,"Velocity":22,"Duration":157609,"SoundDuration":157609,"Delta":944469729},{"NoteNumber":32,"Velocity":19,"Duration":156221,"SoundDuration":156221,"Delta":944565085},{"NoteNumber":30,"Velocity":22,"Duration":157522,"SoundDuration":157522,"Delta":944658333},{"NoteNumber":32,"Velocity":19,"Duration":157942,"SoundDuration":157942,"Delta":944753246},{"NoteNumber":30,"Velocity":24,"Duration":161538,"SoundDuration":161538,"Delta":944847027},{"NoteNumber":32,"Velocity":20,"Duration":160355,"SoundDuration":160355,"Delta":944943886},{"NoteNumber":30,"Velocity":23,"Duration":159692,"SoundDuration":159692,"Delta":945040457},{"NoteNumber":32,"Velocity":19,"Duration":158131,"SoundDuration":158131,"Delta":945136133},{"NoteNumber":29,"Velocity":19,"Duration":221680,"SoundDuration":221680,"Delta":945232275},{"NoteNumber":30,"Velocity":16,"Duration":246884,"SoundDuration":246884,"Delta":945418241},{"NoteNumber":29,"Velocity":20,"Duration":195592,"SoundDuration":195592,"Delta":945632527},{"NoteNumber":58,"Velocity":32,"Duration":765403,"SoundDuration":765403,"Delta":947979640},{"NoteNumber":65,"Velocity":36,"Duration":765403,"SoundDuration":765403,"Delta":947979640},{"NoteNumber":70,"Velocity":43,"Duration":765403,"SoundDuration":765403,"Delta":947979640},{"NoteNumber":46,"Velocity":24,"Duration":765403,"SoundDuration":765403,"Delta":947979640},{"NoteNumber":50,"Velocity":29,"Duration":382701,"SoundDuration":382701,"Delta":947979640},{"NoteNumber":53,"Velocity":25,"Duration":382701,"SoundDuration":382701,"Delta":948362342},{"NoteNumber":58,"Velocity":33,"Duration":752838,"SoundDuration":752838,"Delta":948745044},{"NoteNumber":65,"Velocity":37,"Duration":752838,"SoundDuration":752838,"Delta":948745044},{"NoteNumber":70,"Velocity":45,"Duration":752838,"SoundDuration":752838,"Delta":948745044},{"NoteNumber":46,"Velocity":25,"Duration":752838,"SoundDuration":752838,"Delta":948745044},{"NoteNumber":50,"Velocity":30,"Duration":371931,"SoundDuration":371931,"Delta":948745044},{"NoteNumber":53,"Velocity":25,"Duration":380906,"SoundDuration":380906,"Delta":949116975},{"NoteNumber":57,"Velocity":27,"Duration":753794,"SoundDuration":753794,"Delta":949497882},{"NoteNumber":65,"Velocity":36,"Duration":753794,"SoundDuration":753794,"Delta":949497882},{"NoteNumber":69,"Velocity":43,"Duration":753794,"SoundDuration":753794,"Delta":949497882},{"NoteNumber":46,"Velocity":21,"Duration":753794,"SoundDuration":753794,"Delta":949497882},{"NoteNumber":48,"Velocity":27,"Duration":371931,"SoundDuration":371931,"Delta":949497882},{"NoteNumber":53,"Velocity":24,"Duration":381862,"SoundDuration":381862,"Delta":949869814},{"NoteNumber":58,"Velocity":33,"Duration":771051,"SoundDuration":771051,"Delta":950251677},{"NoteNumber":65,"Velocity":37,"Duration":771051,"SoundDuration":771051,"Delta":950251677},{"NoteNumber":70,"Velocity":45,"Duration":771051,"SoundDuration":771051,"Delta":950251677},{"NoteNumber":46,"Velocity":25,"Duration":771051,"SoundDuration":771051,"Delta":950251677},{"NoteNumber":50,"Velocity":30,"Duration":382701,"SoundDuration":382701,"Delta":950251677},{"NoteNumber":53,"Velocity":24,"Duration":388349,"SoundDuration":388349,"Delta":950634379},{"NoteNumber":60,"Velocity":32,"Duration":762927,"SoundDuration":762927,"Delta":951022728},{"NoteNumber":65,"Velocity":36,"Duration":762927,"SoundDuration":762927,"Delta":951022728},{"NoteNumber":72,"Velocity":43,"Duration":762927,"SoundDuration":762927,"Delta":951022728},{"NoteNumber":46,"Velocity":24,"Duration":762927,"SoundDuration":762927,"Delta":951022728},{"NoteNumber":51,"Velocity":29,"Duration":374578,"SoundDuration":374578,"Delta":951022728},{"NoteNumber":53,"Velocity":23,"Duration":388349,"SoundDuration":388349,"Delta":951397307},{"NoteNumber":62,"Velocity":36,"Duration":2192761,"SoundDuration":2192761,"Delta":951785656},{"NoteNumber":65,"Velocity":40,"Duration":2192761,"SoundDuration":2192761,"Delta":951785656},{"NoteNumber":74,"Velocity":47,"Duration":2192761,"SoundDuration":2192761,"Delta":951785656},{"NoteNumber":52,"Velocity":30,"Duration":371931,"SoundDuration":371931,"Delta":951785656},{"NoteNumber":46,"Velocity":25,"Duration":2192761,"SoundDuration":2192761,"Delta":951785656},{"NoteNumber":53,"Velocity":23,"Duration":182083,"SoundDuration":182083,"Delta":952157588},{"NoteNumber":53,"Velocity":23,"Duration":182083,"SoundDuration":182083,"Delta":952521754},{"NoteNumber":53,"Velocity":23,"Duration":182083,"SoundDuration":182083,"Delta":952885920},{"NoteNumber":53,"Velocity":23,"Duration":182082,"SoundDuration":182082,"Delta":953250086},{"NoteNumber":53,"Velocity":23,"Duration":182083,"SoundDuration":182083,"Delta":953614252},{"NoteNumber":60,"Velocity":33,"Duration":366703,"SoundDuration":366703,"Delta":953978418},{"NoteNumber":65,"Velocity":37,"Duration":761440,"SoundDuration":761440,"Delta":953978418},{"NoteNumber":72,"Velocity":45,"Duration":366703,"SoundDuration":366703,"Delta":953978418},{"NoteNumber":46,"Velocity":24,"Duration":761440,"SoundDuration":761440,"Delta":953978418},{"NoteNumber":51,"Velocity":29,"Duration":366703,"SoundDuration":366703,"Delta":953978418},{"NoteNumber":58,"Velocity":31,"Duration":394736,"SoundDuration":394736,"Delta":954345121},{"NoteNumber":70,"Velocity":41,"Duration":394736,"SoundDuration":394736,"Delta":954345121},{"NoteNumber":50,"Velocity":24,"Duration":394736,"SoundDuration":394736,"Delta":954345121},{"NoteNumber":60,"Velocity":31,"Duration":741335,"SoundDuration":741335,"Delta":954739858},{"NoteNumber":65,"Velocity":35,"Duration":741335,"SoundDuration":741335,"Delta":954739858},{"NoteNumber":72,"Velocity":42,"Duration":741335,"SoundDuration":741335,"Delta":954739858},{"NoteNumber":41,"Velocity":23,"Duration":749194,"SoundDuration":749194,"Delta":954739858},{"NoteNumber":51,"Velocity":27,"Duration":371931,"SoundDuration":371931,"Delta":954739858},{"NoteNumber":53,"Velocity":22,"Duration":377263,"SoundDuration":377263,"Delta":955111790},{"NoteNumber":60,"Velocity":30,"Duration":741335,"SoundDuration":741335,"Delta":955489053},{"NoteNumber":65,"Velocity":34,"Duration":741335,"SoundDuration":741335,"Delta":955489053},{"NoteNumber":72,"Velocity":41,"Duration":741335,"SoundDuration":741335,"Delta":955489053},{"NoteNumber":41,"Velocity":23,"Duration":749194,"SoundDuration":749194,"Delta":955489053},{"NoteNumber":51,"Velocity":26,"Duration":371931,"SoundDuration":371931,"Delta":955489053},{"NoteNumber":53,"Velocity":22,"Duration":377263,"SoundDuration":377263,"Delta":955860985},{"NoteNumber":60,"Velocity":30,"Duration":750293,"SoundDuration":750293,"Delta":956238248},{"NoteNumber":65,"Velocity":34,"Duration":750293,"SoundDuration":750293,"Delta":956238248},{"NoteNumber":72,"Velocity":41,"Duration":750293,"SoundDuration":750293,"Delta":956238248},{"NoteNumber":41,"Velocity":23,"Duration":758325,"SoundDuration":758325,"Delta":956238248},{"NoteNumber":51,"Velocity":26,"Duration":372820,"SoundDuration":372820,"Delta":956238248},{"NoteNumber":53,"Velocity":25,"Duration":385504,"SoundDuration":385504,"Delta":956611068},{"NoteNumber":58,"Velocity":33,"Duration":371931,"SoundDuration":371931,"Delta":956996573},{"NoteNumber":65,"Velocity":37,"Duration":777274,"SoundDuration":777274,"Delta":956996573},{"NoteNumber":70,"Velocity":45,"Duration":371931,"SoundDuration":371931,"Delta":956996573},{"NoteNumber":41,"Velocity":24,"Duration":777274,"SoundDuration":777274,"Delta":956996573},{"NoteNumber":50,"Velocity":29,"Duration":371931,"SoundDuration":371931,"Delta":956996573},{"NoteNumber":57,"Velocity":27,"Duration":405343,"SoundDuration":405343,"Delta":957368505},{"NoteNumber":69,"Velocity":40,"Duration":405343,"SoundDuration":405343,"Delta":957368505},{"NoteNumber":48,"Velocity":22,"Duration":405343,"SoundDuration":405343,"Delta":957368505},{"NoteNumber":65,"Velocity":46,"Duration":754526,"SoundDuration":754526,"Delta":957773848},{"NoteNumber":58,"Velocity":33,"Duration":2291780,"SoundDuration":2291780,"Delta":957773848},{"NoteNumber":70,"Velocity":46,"Duration":2291780,"SoundDuration":2291780,"Delta":957773848},{"NoteNumber":46,"Velocity":25,"Duration":2291780,"SoundDuration":2291780,"Delta":957773848},{"NoteNumber":50,"Velocity":30,"Duration":377263,"SoundDuration":377263,"Delta":957773848},{"NoteNumber":53,"Velocity":27,"Duration":377263,"SoundDuration":377263,"Delta":958151111},{"NoteNumber":63,"Velocity":37,"Duration":766128,"SoundDuration":766128,"Delta":958528375},{"NoteNumber":67,"Velocity":45,"Duration":766128,"SoundDuration":766128,"Delta":958528375},{"NoteNumber":51,"Velocity":29,"Duration":377263,"SoundDuration":377263,"Delta":958528375},{"NoteNumber":55,"Velocity":25,"Duration":388865,"SoundDuration":388865,"Delta":958905638},{"NoteNumber":62,"Velocity":32,"Duration":771124,"SoundDuration":771124,"Delta":959294503},{"NoteNumber":65,"Velocity":39,"Duration":771124,"SoundDuration":771124,"Delta":959294503},{"NoteNumber":50,"Velocity":26,"Duration":379939,"SoundDuration":379939,"Delta":959294503},{"NoteNumber":53,"Velocity":27,"Duration":391185,"SoundDuration":391185,"Delta":959674442},{"NoteNumber":62,"Velocity":40,"Duration":869791,"SoundDuration":869791,"Delta":960065628},{"NoteNumber":65,"Velocity":45,"Duration":869791,"SoundDuration":869791,"Delta":960065628},{"NoteNumber":74,"Velocity":54,"Duration":869791,"SoundDuration":869791,"Delta":960065628},{"NoteNumber":44,"Velocity":25,"Duration":869791,"SoundDuration":869791,"Delta":960065628},{"NoteNumber":50,"Velocity":35,"Duration":397350,"SoundDuration":397350,"Delta":960065628},{"NoteNumber":53,"Velocity":30,"Duration":472441,"SoundDuration":472441,"Delta":960462979},{"NoteNumber":62,"Velocity":40,"Duration":2218142,"SoundDuration":2218142,"Delta":960935420},{"NoteNumber":67,"Velocity":45,"Duration":2218142,"SoundDuration":2218142,"Delta":960935420},{"NoteNumber":74,"Velocity":54,"Duration":2218142,"SoundDuration":2218142,"Delta":960935420},{"NoteNumber":43,"Velocity":27,"Duration":2218142,"SoundDuration":2218142,"Delta":960935420},{"NoteNumber":53,"Velocity":32,"Duration":2218142,"SoundDuration":2218142,"Delta":960935420},{"NoteNumber":55,"Velocity":28,"Duration":184660,"SoundDuration":184660,"Delta":961327577},{"NoteNumber":55,"Velocity":29,"Duration":182083,"SoundDuration":182083,"Delta":961696898},{"NoteNumber":55,"Velocity":27,"Duration":182083,"SoundDuration":182083,"Delta":962061064},{"NoteNumber":55,"Velocity":30,"Duration":182082,"SoundDuration":182082,"Delta":962425230},{"NoteNumber":55,"Velocity":27,"Duration":182083,"SoundDuration":182083,"Delta":962789396},{"NoteNumber":60,"Velocity":36,"Duration":364165,"SoundDuration":364165,"Delta":963153562},{"NoteNumber":67,"Velocity":41,"Duration":364165,"SoundDuration":364165,"Delta":963153562},{"NoteNumber":72,"Velocity":49,"Duration":364165,"SoundDuration":364165,"Delta":963153562},{"NoteNumber":43,"Velocity":21,"Duration":364165,"SoundDuration":364165,"Delta":963153562},{"NoteNumber":51,"Velocity":24,"Duration":364165,"SoundDuration":364165,"Delta":963153562},{"NoteNumber":55,"Velocity":29,"Duration":364165,"SoundDuration":364165,"Delta":963153562},{"NoteNumber":59,"Velocity":33,"Duration":366703,"SoundDuration":366703,"Delta":963517728},{"NoteNumber":67,"Velocity":37,"Duration":366703,"SoundDuration":366703,"Delta":963517728},{"NoteNumber":71,"Velocity":45,"Duration":366703,"SoundDuration":366703,"Delta":963517728},{"NoteNumber":43,"Velocity":21,"Duration":366703,"SoundDuration":366703,"Delta":963517728},{"NoteNumber":50,"Velocity":24,"Duration":366703,"SoundDuration":366703,"Delta":963517728},{"NoteNumber":55,"Velocity":27,"Duration":366703,"SoundDuration":366703,"Delta":963517728},{"NoteNumber":63,"Velocity":47,"Duration":723506,"SoundDuration":723506,"Delta":963884432},{"NoteNumber":67,"Velocity":48,"Duration":723506,"SoundDuration":723506,"Delta":963884432},{"NoteNumber":75,"Velocity":58,"Duration":723506,"SoundDuration":723506,"Delta":963884432},{"NoteNumber":43,"Velocity":25,"Duration":723506,"SoundDuration":723506,"Delta":963884432},{"NoteNumber":48,"Velocity":30,"Duration":356803,"SoundDuration":356803,"Delta":963884432},{"NoteNumber":55,"Velocity":27,"Duration":366703,"SoundDuration":366703,"Delta":964241235},{"NoteNumber":62,"Velocity":45,"Duration":753937,"SoundDuration":753937,"Delta":964607938},{"NoteNumber":67,"Velocity":45,"Duration":753937,"SoundDuration":753937,"Delta":964607938},{"NoteNumber":74,"Velocity":53,"Duration":753937,"SoundDuration":753937,"Delta":964607938},{"NoteNumber":43,"Velocity":25,"Duration":753937,"SoundDuration":753937,"Delta":964607938},{"NoteNumber":53,"Velocity":29,"Duration":364165,"SoundDuration":364165,"Delta":964607938},{"NoteNumber":55,"Velocity":25,"Duration":389771,"SoundDuration":389771,"Delta":964972104},{"NoteNumber":60,"Velocity":43,"Duration":763116,"SoundDuration":763116,"Delta":965361876},{"NoteNumber":67,"Velocity":43,"Duration":763116,"SoundDuration":763116,"Delta":965361876},{"NoteNumber":72,"Velocity":51,"Duration":763116,"SoundDuration":763116,"Delta":965361876},{"NoteNumber":43,"Velocity":24,"Duration":763116,"SoundDuration":763116,"Delta":965361876},{"NoteNumber":51,"Velocity":25,"Duration":371931,"SoundDuration":371931,"Delta":965361876},{"NoteNumber":55,"Velocity":26,"Duration":391185,"SoundDuration":391185,"Delta":965733808},{"NoteNumber":60,"Velocity":40,"Duration":831654,"SoundDuration":831654,"Delta":966124993},{"NoteNumber":69,"Velocity":45,"Duration":831654,"SoundDuration":831654,"Delta":966124993},{"NoteNumber":72,"Velocity":54,"Duration":831654,"SoundDuration":831654,"Delta":966124993},{"NoteNumber":42,"Velocity":25,"Duration":831654,"SoundDuration":831654,"Delta":966124993},{"NoteNumber":51,"Velocity":35,"Duration":399999,"SoundDuration":399999,"Delta":966124993},{"NoteNumber":54,"Velocity":30,"Duration":431654,"SoundDuration":431654,"Delta":966524993},{"NoteNumber":65,"Velocity":40,"Duration":2197916,"SoundDuration":2197916,"Delta":966956648},{"NoteNumber":60,"Velocity":40,"Duration":2197916,"SoundDuration":2197916,"Delta":966956648},{"NoteNumber":69,"Velocity":45,"Duration":2197916,"SoundDuration":2197916,"Delta":966956648},{"NoteNumber":72,"Velocity":54,"Duration":2197916,"SoundDuration":2197916,"Delta":966956648},{"NoteNumber":41,"Velocity":27,"Duration":2197916,"SoundDuration":2197916,"Delta":966956648},{"NoteNumber":51,"Velocity":32,"Duration":2197916,"SoundDuration":2197916,"Delta":966956648},{"NoteNumber":53,"Velocity":28,"Duration":184660,"SoundDuration":184660,"Delta":967328579},{"NoteNumber":53,"Velocity":29,"Duration":182083,"SoundDuration":182083,"Delta":967697901},{"NoteNumber":53,"Velocity":27,"Duration":182083,"SoundDuration":182083,"Delta":968062067},{"NoteNumber":53,"Velocity":30,"Duration":182082,"SoundDuration":182082,"Delta":968426233},{"NoteNumber":53,"Velocity":27,"Duration":182083,"SoundDuration":182083,"Delta":968790399},{"NoteNumber":58,"Velocity":36,"Duration":364165,"SoundDuration":364165,"Delta":969154565},{"NoteNumber":65,"Velocity":41,"Duration":364165,"SoundDuration":364165,"Delta":969154565},{"NoteNumber":70,"Velocity":49,"Duration":364165,"SoundDuration":364165,"Delta":969154565},{"NoteNumber":41,"Velocity":21,"Duration":364165,"SoundDuration":364165,"Delta":969154565},{"NoteNumber":50,"Velocity":24,"Duration":364165,"SoundDuration":364165,"Delta":969154565},{"NoteNumber":53,"Velocity":29,"Duration":364165,"SoundDuration":364165,"Delta":969154565},{"NoteNumber":57,"Velocity":33,"Duration":377263,"SoundDuration":377263,"Delta":969518731},{"NoteNumber":65,"Velocity":37,"Duration":377263,"SoundDuration":377263,"Delta":969518731},{"NoteNumber":69,"Velocity":45,"Duration":377263,"SoundDuration":377263,"Delta":969518731},{"NoteNumber":41,"Velocity":21,"Duration":377263,"SoundDuration":377263,"Delta":969518731},{"NoteNumber":48,"Velocity":24,"Duration":377263,"SoundDuration":377263,"Delta":969518731},{"NoteNumber":53,"Velocity":27,"Duration":377263,"SoundDuration":377263,"Delta":969518731},{"NoteNumber":62,"Velocity":45,"Duration":738926,"SoundDuration":738926,"Delta":969895994},{"NoteNumber":65,"Velocity":49,"Duration":738926,"SoundDuration":738926,"Delta":969895994},{"NoteNumber":74,"Velocity":58,"Duration":738926,"SoundDuration":738926,"Delta":969895994},{"NoteNumber":41,"Velocity":25,"Duration":738926,"SoundDuration":738926,"Delta":969895994},{"NoteNumber":46,"Velocity":30,"Duration":361663,"SoundDuration":361663,"Delta":969895994},{"NoteNumber":53,"Velocity":27,"Duration":377263,"SoundDuration":377263,"Delta":970257658},{"NoteNumber":57,"Velocity":42,"Duration":753937,"SoundDuration":753937,"Delta":970634921},{"NoteNumber":65,"Velocity":42,"Duration":753937,"SoundDuration":753937,"Delta":970634921},{"NoteNumber":69,"Velocity":50,"Duration":753937,"SoundDuration":753937,"Delta":970634921},{"NoteNumber":41,"Velocity":23,"Duration":753937,"SoundDuration":753937,"Delta":970634921},{"NoteNumber":48,"Velocity":27,"Duration":364165,"SoundDuration":364165,"Delta":970634921},{"NoteNumber":53,"Velocity":23,"Duration":389771,"SoundDuration":389771,"Delta":970999087},{"NoteNumber":58,"Velocity":45,"Duration":763116,"SoundDuration":763116,"Delta":971388859},{"NoteNumber":65,"Velocity":45,"Duration":763116,"SoundDuration":763116,"Delta":971388859},{"NoteNumber":70,"Velocity":53,"Duration":763116,"SoundDuration":763116,"Delta":971388859},{"NoteNumber":41,"Velocity":25,"Duration":763116,"SoundDuration":763116,"Delta":971388859},{"NoteNumber":50,"Velocity":26,"Duration":371931,"SoundDuration":371931,"Delta":971388859},{"NoteNumber":53,"Velocity":24,"Duration":391185,"SoundDuration":391185,"Delta":971760790},{"NoteNumber":65,"Velocity":40,"Duration":791291,"SoundDuration":791291,"Delta":972151976},{"NoteNumber":60,"Velocity":36,"Duration":791291,"SoundDuration":791291,"Delta":972151976},{"NoteNumber":69,"Velocity":40,"Duration":791291,"SoundDuration":791291,"Delta":972151976},{"NoteNumber":72,"Velocity":48,"Duration":791291,"SoundDuration":791291,"Delta":972151976},{"NoteNumber":41,"Velocity":22,"Duration":791291,"SoundDuration":791291,"Delta":972151976},{"NoteNumber":51,"Velocity":31,"Duration":391185,"SoundDuration":391185,"Delta":972151976},{"NoteNumber":53,"Velocity":27,"Duration":400106,"SoundDuration":400106,"Delta":972543161},{"NoteNumber":65,"Velocity":36,"Duration":1955927,"SoundDuration":1955927,"Delta":972943268},{"NoteNumber":60,"Velocity":36,"Duration":1564742,"SoundDuration":1564742,"Delta":972943268},{"NoteNumber":69,"Velocity":40,"Duration":1564742,"SoundDuration":1564742,"Delta":972943268},{"NoteNumber":72,"Velocity":48,"Duration":1564742,"SoundDuration":1564742,"Delta":972943268},{"NoteNumber":53,"Velocity":28,"Duration":1955927,"SoundDuration":1955927,"Delta":972943268},{"NoteNumber":41,"Velocity":24,"Duration":1564742,"SoundDuration":1564742,"Delta":972943268},{"NoteNumber":51,"Velocity":28,"Duration":1564742,"SoundDuration":1564742,"Delta":972943268},{"NoteNumber":58,"Velocity":43,"Duration":391185,"SoundDuration":391185,"Delta":974508010},{"NoteNumber":70,"Velocity":43,"Duration":391185,"SoundDuration":391185,"Delta":974508010},{"NoteNumber":46,"Velocity":25,"Duration":391185,"SoundDuration":391185,"Delta":974508010},{"NoteNumber":50,"Velocity":25,"Duration":391185,"SoundDuration":391185,"Delta":974508010},{"NoteNumber":34,"Velocity":30,"Duration":364165,"SoundDuration":364165,"Delta":975290381},{"NoteNumber":34,"Velocity":30,"Duration":154376,"SoundDuration":154376,"Delta":976018713},{"NoteNumber":35,"Velocity":26,"Duration":153179,"SoundDuration":153179,"Delta":976121862},{"NoteNumber":34,"Velocity":27,"Duration":151998,"SoundDuration":151998,"Delta":976224263},{"NoteNumber":35,"Velocity":25,"Duration":150844,"SoundDuration":150844,"Delta":976325820},{"NoteNumber":34,"Velocity":27,"Duration":149712,"SoundDuration":149712,"Delta":976426651},{"NoteNumber":35,"Velocity":25,"Duration":147661,"SoundDuration":147661,"Delta":976526678},{"NoteNumber":34,"Velocity":28,"Duration":143439,"SoundDuration":143439,"Delta":976626000},{"NoteNumber":35,"Velocity":27,"Duration":144224,"SoundDuration":144224,"Delta":976721832},{"NoteNumber":34,"Velocity":29,"Duration":142306,"SoundDuration":142306,"Delta":976817936},{"NoteNumber":35,"Velocity":26,"Duration":141961,"SoundDuration":141961,"Delta":976913485},{"NoteNumber":34,"Velocity":29,"Duration":140042,"SoundDuration":140042,"Delta":977008084},{"NoteNumber":35,"Velocity":25,"Duration":141349,"SoundDuration":141349,"Delta":977101961},{"NoteNumber":34,"Velocity":28,"Duration":142578,"SoundDuration":142578,"Delta":977195262},{"NoteNumber":35,"Velocity":26,"Duration":140476,"SoundDuration":140476,"Delta":977291083},{"NoteNumber":34,"Velocity":27,"Duration":142217,"SoundDuration":142217,"Delta":977384201},{"NoteNumber":35,"Velocity":25,"Duration":141851,"SoundDuration":141851,"Delta":977479282},{"NoteNumber":34,"Velocity":29,"Duration":143804,"SoundDuration":143804,"Delta":977572802},{"NoteNumber":35,"Velocity":26,"Duration":141828,"SoundDuration":141828,"Delta":977669516},{"NoteNumber":34,"Velocity":28,"Duration":142020,"SoundDuration":142020,"Delta":977763296},{"NoteNumber":35,"Velocity":26,"Duration":140951,"SoundDuration":140951,"Delta":977858890},{"NoteNumber":34,"Velocity":28,"Duration":142112,"SoundDuration":142112,"Delta":977952142},{"NoteNumber":35,"Velocity":25,"Duration":140275,"SoundDuration":140275,"Delta":978047498},{"NoteNumber":34,"Velocity":28,"Duration":140953,"SoundDuration":140953,"Delta":978140746},{"NoteNumber":35,"Velocity":25,"Duration":138677,"SoundDuration":138677,"Delta":978235611},{"NoteNumber":70,"Velocity":51,"Duration":838457,"SoundDuration":838457,"Delta":978324289},{"NoteNumber":34,"Velocity":30,"Duration":235591,"SoundDuration":235591,"Delta":978324289},{"NoteNumber":33,"Velocity":26,"Duration":241635,"SoundDuration":241635,"Delta":978525867},{"NoteNumber":32,"Velocity":30,"Duration":248248,"SoundDuration":248248,"Delta":978732537},{"NoteNumber":31,"Velocity":26,"Duration":254968,"SoundDuration":254968,"Delta":978944814},{"NoteNumber":70,"Velocity":52,"Duration":775552,"SoundDuration":775552,"Delta":979162746},{"NoteNumber":30,"Velocity":30,"Duration":111111,"SoundDuration":111111,"Delta":979162746},{"NoteNumber":49,"Velocity":26,"Duration":188679,"SoundDuration":188679,"Delta":979384968},{"NoteNumber":54,"Velocity":26,"Duration":182860,"SoundDuration":182860,"Delta":979573648},{"NoteNumber":49,"Velocity":26,"Duration":181791,"SoundDuration":181791,"Delta":979756508},{"NoteNumber":68,"Velocity":51,"Duration":719651,"SoundDuration":719651,"Delta":979938299},{"NoteNumber":42,"Velocity":31,"Duration":180723,"SoundDuration":180723,"Delta":979938299},{"NoteNumber":49,"Velocity":26,"Duration":180181,"SoundDuration":180181,"Delta":980119022},{"NoteNumber":53,"Velocity":26,"Duration":179640,"SoundDuration":179640,"Delta":980299204},{"NoteNumber":49,"Velocity":25,"Duration":179106,"SoundDuration":179106,"Delta":980478845},{"NoteNumber":70,"Velocity":52,"Duration":717060,"SoundDuration":717060,"Delta":980657951},{"NoteNumber":42,"Velocity":30,"Duration":178571,"SoundDuration":178571,"Delta":980657951},{"NoteNumber":49,"Velocity":27,"Duration":179106,"SoundDuration":179106,"Delta":980836522},{"NoteNumber":54,"Velocity":27,"Duration":179640,"SoundDuration":179640,"Delta":981015629},{"NoteNumber":49,"Velocity":27,"Duration":179742,"SoundDuration":179742,"Delta":981195269},{"NoteNumber":71,"Velocity":50,"Duration":713181,"SoundDuration":713181,"Delta":981375012},{"NoteNumber":42,"Velocity":30,"Duration":178295,"SoundDuration":178295,"Delta":981375012},{"NoteNumber":49,"Velocity":27,"Duration":178295,"SoundDuration":178295,"Delta":981553307},{"NoteNumber":56,"Velocity":27,"Duration":178295,"SoundDuration":178295,"Delta":981731603},{"NoteNumber":49,"Velocity":27,"Duration":178295,"SoundDuration":178295,"Delta":981909898},{"NoteNumber":73,"Velocity":52,"Duration":2133678,"SoundDuration":2133678,"Delta":982088194},{"NoteNumber":42,"Velocity":33,"Duration":179490,"SoundDuration":179490,"Delta":982088194},{"NoteNumber":49,"Velocity":27,"Duration":179490,"SoundDuration":179490,"Delta":982267684},{"NoteNumber":58,"Velocity":27,"Duration":179490,"SoundDuration":179490,"Delta":982447174},{"NoteNumber":49,"Velocity":27,"Duration":179077,"SoundDuration":179077,"Delta":982626664},{"NoteNumber":42,"Velocity":31,"Duration":178252,"SoundDuration":178252,"Delta":982805742},{"NoteNumber":49,"Velocity":27,"Duration":178252,"SoundDuration":178252,"Delta":982983995},{"NoteNumber":58,"Velocity":27,"Duration":176991,"SoundDuration":176991,"Delta":983162248},{"NoteNumber":49,"Velocity":27,"Duration":176991,"SoundDuration":176991,"Delta":983339239},{"NoteNumber":42,"Velocity":30,"Duration":175829,"SoundDuration":175829,"Delta":983516231},{"NoteNumber":49,"Velocity":27,"Duration":175829,"SoundDuration":175829,"Delta":983692060},{"NoteNumber":58,"Velocity":27,"Duration":176991,"SoundDuration":176991,"Delta":983867889},{"NoteNumber":49,"Velocity":27,"Duration":176991,"SoundDuration":176991,"Delta":984044880},{"NoteNumber":71,"Velocity":56,"Duration":356505,"SoundDuration":356505,"Delta":984221872},{"NoteNumber":42,"Velocity":31,"Duration":178253,"SoundDuration":178253,"Delta":984221872},{"NoteNumber":49,"Velocity":25,"Duration":178252,"SoundDuration":178252,"Delta":984400125},{"NoteNumber":70,"Velocity":53,"Duration":356506,"SoundDuration":356506,"Delta":984578378},{"NoteNumber":54,"Velocity":28,"Duration":178253,"SoundDuration":178253,"Delta":984578378},{"NoteNumber":49,"Velocity":27,"Duration":178253,"SoundDuration":178253,"Delta":984756631},{"NoteNumber":75,"Velocity":58,"Duration":356505,"SoundDuration":356505,"Delta":984934884},{"NoteNumber":42,"Velocity":33,"Duration":178253,"SoundDuration":178253,"Delta":984934884},{"NoteNumber":51,"Velocity":27,"Duration":178252,"SoundDuration":178252,"Delta":985113137},{"NoteNumber":59,"Velocity":27,"Duration":178253,"SoundDuration":178253,"Delta":985291390},{"NoteNumber":51,"Velocity":27,"Duration":178253,"SoundDuration":178253,"Delta":985469643},{"NoteNumber":75,"Velocity":54,"Duration":351658,"SoundDuration":351658,"Delta":985647896},{"NoteNumber":42,"Velocity":32,"Duration":175829,"SoundDuration":175829,"Delta":985647896},{"NoteNumber":51,"Velocity":27,"Duration":175829,"SoundDuration":175829,"Delta":985823725},{"NoteNumber":59,"Velocity":27,"Duration":175829,"SoundDuration":175829,"Delta":985999554},{"NoteNumber":51,"Velocity":27,"Duration":175829,"SoundDuration":175829,"Delta":986175383},{"NoteNumber":75,"Velocity":54,"Duration":351658,"SoundDuration":351658,"Delta":986351213},{"NoteNumber":42,"Velocity":32,"Duration":175829,"SoundDuration":175829,"Delta":986351213},{"NoteNumber":51,"Velocity":27,"Duration":175829,"SoundDuration":175829,"Delta":986527042},{"NoteNumber":59,"Velocity":27,"Duration":175829,"SoundDuration":175829,"Delta":986702871},{"NoteNumber":51,"Velocity":27,"Duration":175829,"SoundDuration":175829,"Delta":986878700},{"NoteNumber":77,"Velocity":56,"Duration":372024,"SoundDuration":372024,"Delta":987054530},{"NoteNumber":42,"Velocity":33,"Duration":186012,"SoundDuration":186012,"Delta":987054530},{"NoteNumber":51,"Velocity":27,"Duration":186012,"SoundDuration":186012,"Delta":987240542},{"NoteNumber":78,"Velocity":51,"Duration":358980,"SoundDuration":358980,"Delta":987426554},{"NoteNumber":59,"Velocity":31,"Duration":179490,"SoundDuration":179490,"Delta":987426554},{"NoteNumber":51,"Velocity":27,"Duration":179490,"SoundDuration":179490,"Delta":987606044},{"NoteNumber":73,"Velocity":54,"Duration":2176948,"SoundDuration":2176948,"Delta":987785534},{"NoteNumber":42,"Velocity":33,"Duration":179490,"SoundDuration":179490,"Delta":987785534},{"NoteNumber":49,"Velocity":28,"Duration":179490,"SoundDuration":179490,"Delta":987965024},{"NoteNumber":58,"Velocity":28,"Duration":179490,"SoundDuration":179490,"Delta":988144515},{"NoteNumber":49,"Velocity":28,"Duration":179490,"SoundDuration":179490,"Delta":988324005},{"NoteNumber":42,"Velocity":33,"Duration":179490,"SoundDuration":179490,"Delta":988503495},{"NoteNumber":49,"Velocity":27,"Duration":178665,"SoundDuration":178665,"Delta":988682985},{"NoteNumber":58,"Velocity":28,"Duration":177832,"SoundDuration":177832,"Delta":988861651},{"NoteNumber":49,"Velocity":27,"Duration":176603,"SoundDuration":176603,"Delta":989039483},{"NoteNumber":42,"Velocity":33,"Duration":175829,"SoundDuration":175829,"Delta":989216087},{"NoteNumber":49,"Velocity":28,"Duration":175829,"SoundDuration":175829,"Delta":989391916},{"NoteNumber":58,"Velocity":29,"Duration":197368,"SoundDuration":197368,"Delta":989567746},{"NoteNumber":49,"Velocity":29,"Duration":197368,"SoundDuration":197368,"Delta":989765114},{"NoteNumber":69,"Velocity":51,"Duration":722892,"SoundDuration":722892,"Delta":989962483},{"NoteNumber":42,"Velocity":33,"Duration":180722,"SoundDuration":180722,"Delta":989962483},{"NoteNumber":49,"Velocity":28,"Duration":180723,"SoundDuration":180723,"Delta":990143206},{"NoteNumber":54,"Velocity":28,"Duration":180722,"SoundDuration":180722,"Delta":990323929},{"NoteNumber":49,"Velocity":28,"Duration":180723,"SoundDuration":180723,"Delta":990504652},{"NoteNumber":69,"Velocity":52,"Duration":732244,"SoundDuration":732244,"Delta":990685375},{"NoteNumber":42,"Velocity":30,"Duration":183664,"SoundDuration":183664,"Delta":990685375},{"NoteNumber":49,"Velocity":26,"Duration":182860,"SoundDuration":182860,"Delta":990869039},{"NoteNumber":54,"Velocity":26,"Duration":182860,"SoundDuration":182860,"Delta":991051899},{"NoteNumber":49,"Velocity":26,"Duration":182860,"SoundDuration":182860,"Delta":991234759},{"NoteNumber":68,"Velocity":51,"Duration":716185,"SoundDuration":716185,"Delta":991417619},{"NoteNumber":42,"Velocity":31,"Duration":180541,"SoundDuration":180541,"Delta":991417619},{"NoteNumber":49,"Velocity":26,"Duration":180167,"SoundDuration":180167,"Delta":991598161},{"NoteNumber":53,"Velocity":26,"Duration":178665,"SoundDuration":178665,"Delta":991778328},{"NoteNumber":49,"Velocity":25,"Duration":176811,"SoundDuration":176811,"Delta":991956994},{"NoteNumber":69,"Velocity":52,"Duration":709844,"SoundDuration":709844,"Delta":992133805},{"NoteNumber":42,"Velocity":30,"Duration":176076,"SoundDuration":176076,"Delta":992133805},{"NoteNumber":49,"Velocity":27,"Duration":177179,"SoundDuration":177179,"Delta":992309882},{"NoteNumber":54,"Velocity":27,"Duration":177923,"SoundDuration":177923,"Delta":992487062},{"NoteNumber":49,"Velocity":27,"Duration":178665,"SoundDuration":178665,"Delta":992664985},{"NoteNumber":71,"Velocity":50,"Duration":713181,"SoundDuration":713181,"Delta":992843650},{"NoteNumber":42,"Velocity":30,"Duration":178295,"SoundDuration":178295,"Delta":992843650},{"NoteNumber":49,"Velocity":27,"Duration":178295,"SoundDuration":178295,"Delta":993021946},{"NoteNumber":56,"Velocity":27,"Duration":178295,"SoundDuration":178295,"Delta":993200241},{"NoteNumber":49,"Velocity":27,"Duration":178295,"SoundDuration":178295,"Delta":993378537},{"NoteNumber":73,"Velocity":52,"Duration":2133678,"SoundDuration":2133678,"Delta":993556832},{"NoteNumber":42,"Velocity":33,"Duration":179490,"SoundDuration":179490,"Delta":993556832},{"NoteNumber":49,"Velocity":27,"Duration":179490,"SoundDuration":179490,"Delta":993736322},{"NoteNumber":57,"Velocity":27,"Duration":179490,"SoundDuration":179490,"Delta":993915813},{"NoteNumber":49,"Velocity":27,"Duration":179077,"SoundDuration":179077,"Delta":994095303},{"NoteNumber":44,"Velocity":31,"Duration":178252,"SoundDuration":178252,"Delta":994274381},{"NoteNumber":49,"Velocity":27,"Duration":178252,"SoundDuration":178252,"Delta":994452634},{"NoteNumber":57,"Velocity":27,"Duration":176991,"SoundDuration":176991,"Delta":994630887},{"NoteNumber":49,"Velocity":27,"Duration":176991,"SoundDuration":176991,"Delta":994807878},{"NoteNumber":45,"Velocity":30,"Duration":175829,"SoundDuration":175829,"Delta":994984869},{"NoteNumber":49,"Velocity":27,"Duration":175829,"SoundDuration":175829,"Delta":995160699},{"NoteNumber":57,"Velocity":27,"Duration":176991,"SoundDuration":176991,"Delta":995336528},{"NoteNumber":49,"Velocity":27,"Duration":176991,"SoundDuration":176991,"Delta":995513519},{"NoteNumber":74,"Velocity":56,"Duration":356505,"SoundDuration":356505,"Delta":995690510},{"NoteNumber":45,"Velocity":31,"Duration":178253,"SoundDuration":178253,"Delta":995690510},{"NoteNumber":49,"Velocity":25,"Duration":178252,"SoundDuration":178252,"Delta":995868763},{"NoteNumber":76,"Velocity":53,"Duration":356506,"SoundDuration":356506,"Delta":996047016},{"NoteNumber":57,"Velocity":28,"Duration":178253,"SoundDuration":178253,"Delta":996047016},{"NoteNumber":49,"Velocity":27,"Duration":178253,"SoundDuration":178253,"Delta":996225269},{"NoteNumber":78,"Velocity":58,"Duration":356505,"SoundDuration":356505,"Delta":996403522},{"NoteNumber":45,"Velocity":33,"Duration":178253,"SoundDuration":178253,"Delta":996403522},{"NoteNumber":54,"Velocity":27,"Duration":178252,"SoundDuration":178252,"Delta":996581775},{"NoteNumber":62,"Velocity":27,"Duration":178253,"SoundDuration":178253,"Delta":996760028},{"NoteNumber":54,"Velocity":27,"Duration":178253,"SoundDuration":178253,"Delta":996938281},{"NoteNumber":78,"Velocity":54,"Duration":351658,"SoundDuration":351658,"Delta":997116534},{"NoteNumber":45,"Velocity":32,"Duration":175829,"SoundDuration":175829,"Delta":997116534},{"NoteNumber":54,"Velocity":27,"Duration":175829,"SoundDuration":175829,"Delta":997292364},{"NoteNumber":62,"Velocity":27,"Duration":175829,"SoundDuration":175829,"Delta":997468193},{"NoteNumber":54,"Velocity":27,"Duration":175829,"SoundDuration":175829,"Delta":997644022},{"NoteNumber":78,"Velocity":54,"Duration":351658,"SoundDuration":351658,"Delta":997819851},{"NoteNumber":45,"Velocity":32,"Duration":175829,"SoundDuration":175829,"Delta":997819851},{"NoteNumber":54,"Velocity":27,"Duration":175829,"SoundDuration":175829,"Delta":997995681},{"NoteNumber":62,"Velocity":27,"Duration":175829,"SoundDuration":175829,"Delta":998171510},{"NoteNumber":54,"Velocity":27,"Duration":175829,"SoundDuration":175829,"Delta":998347339},{"NoteNumber":80,"Velocity":56,"Duration":382165,"SoundDuration":382165,"Delta":998523168},{"NoteNumber":45,"Velocity":33,"Duration":191082,"SoundDuration":191082,"Delta":998523168},{"NoteNumber":54,"Velocity":27,"Duration":191082,"SoundDuration":191082,"Delta":998714251},{"NoteNumber":81,"Velocity":51,"Duration":358980,"SoundDuration":358980,"Delta":998905334},{"NoteNumber":62,"Velocity":31,"Duration":179490,"SoundDuration":179490,"Delta":998905334},{"NoteNumber":54,"Velocity":27,"Duration":179490,"SoundDuration":179490,"Delta":999084824},{"NoteNumber":76,"Velocity":54,"Duration":2135806,"SoundDuration":2135806,"Delta":999264314},{"NoteNumber":45,"Velocity":33,"Duration":179490,"SoundDuration":179490,"Delta":999264314},{"NoteNumber":52,"Velocity":28,"Duration":179490,"SoundDuration":179490,"Delta":999443805},{"NoteNumber":61,"Velocity":28,"Duration":179490,"SoundDuration":179490,"Delta":999623295},{"NoteNumber":52,"Velocity":28,"Duration":179490,"SoundDuration":179490,"Delta":999802785},{"NoteNumber":45,"Velocity":33,"Duration":179490,"SoundDuration":179490,"Delta":999982275},{"NoteNumber":52,"Velocity":27,"Duration":178665,"SoundDuration":178665,"Delta":1000161766},{"NoteNumber":61,"Velocity":28,"Duration":177832,"SoundDuration":177832,"Delta":1000340431},{"NoteNumber":52,"Velocity":27,"Duration":176603,"SoundDuration":176603,"Delta":1000518263},{"NoteNumber":45,"Velocity":33,"Duration":175829,"SoundDuration":175829,"Delta":1000694867},{"NoteNumber":52,"Velocity":28,"Duration":175829,"SoundDuration":175829,"Delta":1000870697},{"NoteNumber":61,"Velocity":29,"Duration":176603,"SoundDuration":176603,"Delta":1001046526},{"NoteNumber":52,"Velocity":29,"Duration":176991,"SoundDuration":176991,"Delta":1001223130},{"NoteNumber":74,"Velocity":53,"Duration":356505,"SoundDuration":356505,"Delta":1001400121},{"NoteNumber":45,"Velocity":33,"Duration":178253,"SoundDuration":178253,"Delta":1001400121},{"NoteNumber":52,"Velocity":27,"Duration":178252,"SoundDuration":178252,"Delta":1001578374},{"NoteNumber":73,"Velocity":51,"Duration":356506,"SoundDuration":356506,"Delta":1001756627},{"NoteNumber":57,"Velocity":31,"Duration":178253,"SoundDuration":178253,"Delta":1001756627},{"NoteNumber":52,"Velocity":27,"Duration":178253,"SoundDuration":178253,"Delta":1001934880},{"NoteNumber":74,"Velocity":54,"Duration":703316,"SoundDuration":703316,"Delta":1002113133},{"NoteNumber":45,"Velocity":33,"Duration":175829,"SoundDuration":175829,"Delta":1002113133},{"NoteNumber":54,"Velocity":28,"Duration":175829,"SoundDuration":175829,"Delta":1002288962},{"NoteNumber":62,"Velocity":28,"Duration":175829,"SoundDuration":175829,"Delta":1002464791},{"NoteNumber":54,"Velocity":28,"Duration":175829,"SoundDuration":175829,"Delta":1002640621},{"NoteNumber":78,"Velocity":52,"Duration":703317,"SoundDuration":703317,"Delta":1002816450},{"NoteNumber":45,"Velocity":33,"Duration":175829,"SoundDuration":175829,"Delta":1002816450},{"NoteNumber":54,"Velocity":29,"Duration":175829,"SoundDuration":175829,"Delta":1002992279},{"NoteNumber":62,"Velocity":29,"Duration":175829,"SoundDuration":175829,"Delta":1003168108},{"NoteNumber":54,"Velocity":29,"Duration":175829,"SoundDuration":175829,"Delta":1003343938},{"NoteNumber":71,"Velocity":52,"Duration":713012,"SoundDuration":713012,"Delta":1003519767},{"NoteNumber":45,"Velocity":33,"Duration":178253,"SoundDuration":178253,"Delta":1003519767},{"NoteNumber":52,"Velocity":28,"Duration":178252,"SoundDuration":178252,"Delta":1003698020},{"NoteNumber":56,"Velocity":28,"Duration":178253,"SoundDuration":178253,"Delta":1003876273},{"NoteNumber":52,"Velocity":27,"Duration":178253,"SoundDuration":178253,"Delta":1004054526},{"NoteNumber":74,"Velocity":52,"Duration":713011,"SoundDuration":713011,"Delta":1004232779},{"NoteNumber":45,"Velocity":31,"Duration":178252,"SoundDuration":178252,"Delta":1004232779},{"NoteNumber":52,"Velocity":27,"Duration":178253,"SoundDuration":178253,"Delta":1004411032},{"NoteNumber":59,"Velocity":28,"Duration":178252,"SoundDuration":178252,"Delta":1004589285},{"NoteNumber":52,"Velocity":28,"Duration":178253,"SoundDuration":178253,"Delta":1004767538},{"NoteNumber":73,"Velocity":54,"Duration":716954,"SoundDuration":716954,"Delta":1004945791},{"NoteNumber":45,"Velocity":33,"Duration":179490,"SoundDuration":179490,"Delta":1004945791},{"NoteNumber":52,"Velocity":28,"Duration":179490,"SoundDuration":179490,"Delta":1005125281},{"NoteNumber":57,"Velocity":28,"Duration":179490,"SoundDuration":179490,"Delta":1005304771},{"NoteNumber":52,"Velocity":28,"Duration":178483,"SoundDuration":178483,"Delta":1005484262},{"NoteNumber":69,"Velocity":51,"Duration":1030711,"SoundDuration":1030711,"Delta":1005662745},{"NoteNumber":81,"Velocity":61,"Duration":1030711,"SoundDuration":1030711,"Delta":1005662745},{"NoteNumber":45,"Velocity":33,"Duration":175442,"SoundDuration":175442,"Delta":1005662745},{"NoteNumber":52,"Velocity":27,"Duration":173414,"SoundDuration":173414,"Delta":1005838188},{"NoteNumber":61,"Velocity":28,"Duration":171432,"SoundDuration":171432,"Delta":1006011602},{"NoteNumber":52,"Velocity":27,"Duration":169495,"SoundDuration":169495,"Delta":1006183034},{"NoteNumber":45,"Velocity":33,"Duration":169495,"SoundDuration":169495,"Delta":1006352529},{"NoteNumber":52,"Velocity":28,"Duration":171432,"SoundDuration":171432,"Delta":1006522025},{"NoteNumber":68,"Velocity":45,"Duration":348856,"SoundDuration":348856,"Delta":1006693457},{"NoteNumber":80,"Velocity":53,"Duration":348856,"SoundDuration":348856,"Delta":1006693457},{"NoteNumber":61,"Velocity":29,"Duration":173414,"SoundDuration":173414,"Delta":1006693457},{"NoteNumber":52,"Velocity":29,"Duration":175442,"SoundDuration":175442,"Delta":1006866871},{"NoteNumber":66,"Velocity":47,"Duration":356505,"SoundDuration":356505,"Delta":1007042314},{"NoteNumber":78,"Velocity":56,"Duration":356505,"SoundDuration":356505,"Delta":1007042314},{"NoteNumber":45,"Velocity":33,"Duration":178253,"SoundDuration":178253,"Delta":1007042314},{"NoteNumber":52,"Velocity":27,"Duration":178252,"SoundDuration":178252,"Delta":1007220567},{"NoteNumber":64,"Velocity":43,"Duration":356506,"SoundDuration":356506,"Delta":1007398820},{"NoteNumber":76,"Velocity":51,"Duration":356506,"SoundDuration":356506,"Delta":1007398820},{"NoteNumber":61,"Velocity":31,"Duration":178253,"SoundDuration":178253,"Delta":1007398820},{"NoteNumber":52,"Velocity":27,"Duration":178253,"SoundDuration":178253,"Delta":1007577073},{"NoteNumber":62,"Velocity":46,"Duration":527487,"SoundDuration":527487,"Delta":1007755326},{"NoteNumber":74,"Velocity":54,"Duration":703316,"SoundDuration":703316,"Delta":1007755326},{"NoteNumber":45,"Velocity":33,"Duration":175829,"SoundDuration":175829,"Delta":1007755326},{"NoteNumber":54,"Velocity":28,"Duration":175829,"SoundDuration":175829,"Delta":1007931155},{"NoteNumber":62,"Velocity":28,"Duration":351658,"SoundDuration":351658,"Delta":1008106984},{"NoteNumber":54,"Velocity":28,"Duration":175829,"SoundDuration":175829,"Delta":1008282813},{"NoteNumber":78,"Velocity":56,"Duration":693641,"SoundDuration":693641,"Delta":1008458643},{"NoteNumber":45,"Velocity":33,"Duration":173410,"SoundDuration":173410,"Delta":1008458643},{"NoteNumber":54,"Velocity":29,"Duration":173410,"SoundDuration":173410,"Delta":1008632053},{"NoteNumber":62,"Velocity":29,"Duration":173410,"SoundDuration":173410,"Delta":1008805464},{"NoteNumber":54,"Velocity":29,"Duration":173410,"SoundDuration":173410,"Delta":1008978874},{"NoteNumber":71,"Velocity":54,"Duration":713012,"SoundDuration":713012,"Delta":1009152285},{"NoteNumber":45,"Velocity":33,"Duration":178253,"SoundDuration":178253,"Delta":1009152285},{"NoteNumber":52,"Velocity":28,"Duration":178252,"SoundDuration":178252,"Delta":1009330538},{"NoteNumber":56,"Velocity":28,"Duration":178253,"SoundDuration":178253,"Delta":1009508791},{"NoteNumber":52,"Velocity":27,"Duration":178253,"SoundDuration":178253,"Delta":1009687044},{"NoteNumber":73,"Velocity":52,"Duration":356505,"SoundDuration":356505,"Delta":1009865297},{"NoteNumber":45,"Velocity":31,"Duration":178252,"SoundDuration":178252,"Delta":1009865297},{"NoteNumber":52,"Velocity":27,"Duration":178253,"SoundDuration":178253,"Delta":1010043550},{"NoteNumber":74,"Velocity":52,"Duration":356505,"SoundDuration":356505,"Delta":1010221803},{"NoteNumber":59,"Velocity":28,"Duration":178252,"SoundDuration":178252,"Delta":1010221803},{"NoteNumber":52,"Velocity":28,"Duration":178253,"SoundDuration":178253,"Delta":1010400056},{"NoteNumber":73,"Velocity":55,"Duration":335195,"SoundDuration":335195,"Delta":1010578309},{"NoteNumber":45,"Velocity":33,"Duration":83798,"SoundDuration":83798,"Delta":1010578309},{"NoteNumber":61,"Velocity":28,"Duration":167597,"SoundDuration":167597,"Delta":1010745906},{"NoteNumber":76,"Velocity":52,"Duration":346820,"SoundDuration":346820,"Delta":1010913504},{"NoteNumber":57,"Velocity":28,"Duration":173410,"SoundDuration":173410,"Delta":1010913504},{"NoteNumber":61,"Velocity":28,"Duration":173410,"SoundDuration":173410,"Delta":1011086915},{"NoteNumber":85,"Velocity":56,"Duration":333333,"SoundDuration":333333,"Delta":1011260325},{"NoteNumber":57,"Velocity":33,"Duration":166666,"SoundDuration":166666,"Delta":1011260325},{"NoteNumber":61,"Velocity":29,"Duration":166666,"SoundDuration":166666,"Delta":1011426992},{"NoteNumber":81,"Velocity":52,"Duration":344827,"SoundDuration":344827,"Delta":1011593659},{"NoteNumber":57,"Velocity":29,"Duration":172413,"SoundDuration":172413,"Delta":1011593659},{"NoteNumber":61,"Velocity":29,"Duration":172413,"SoundDuration":172413,"Delta":1011766072},{"NoteNumber":76,"Velocity":56,"Duration":322580,"SoundDuration":322580,"Delta":1011938486},{"NoteNumber":45,"Velocity":33,"Duration":80645,"SoundDuration":80645,"Delta":1011938486},{"NoteNumber":61,"Velocity":28,"Duration":161290,"SoundDuration":161290,"Delta":1012099776},{"NoteNumber":73,"Velocity":52,"Duration":329670,"SoundDuration":329670,"Delta":1012261067},{"NoteNumber":57,"Velocity":28,"Duration":164835,"SoundDuration":164835,"Delta":1012261067},{"NoteNumber":61,"Velocity":27,"Duration":164835,"SoundDuration":164835,"Delta":1012425902},{"NoteNumber":81,"Velocity":55,"Duration":322407,"SoundDuration":322407,"Delta":1012590737},{"NoteNumber":57,"Velocity":31,"Duration":161203,"SoundDuration":161203,"Delta":1012590737},{"NoteNumber":61,"Velocity":27,"Duration":161203,"SoundDuration":161203,"Delta":1012751941},{"NoteNumber":77,"Velocity":52,"Duration":329163,"SoundDuration":329163,"Delta":1012913145},{"NoteNumber":57,"Velocity":28,"Duration":164581,"SoundDuration":164581,"Delta":1012913145},{"NoteNumber":61,"Velocity":28,"Duration":164581,"SoundDuration":164581,"Delta":1013077727},{"NoteNumber":78,"Velocity":55,"Duration":322407,"SoundDuration":322407,"Delta":1013242309},{"NoteNumber":45,"Velocity":33,"Duration":80601,"SoundDuration":80601,"Delta":1013242309},{"NoteNumber":62,"Velocity":28,"Duration":161203,"SoundDuration":161203,"Delta":1013403512},{"NoteNumber":74,"Velocity":52,"Duration":326087,"SoundDuration":326087,"Delta":1013564716},{"NoteNumber":57,"Velocity":28,"Duration":163043,"SoundDuration":163043,"Delta":1013564716},{"NoteNumber":62,"Velocity":28,"Duration":163043,"SoundDuration":163043,"Delta":1013727760},{"NoteNumber":86,"Velocity":56,"Duration":319149,"SoundDuration":319149,"Delta":1013890803},{"NoteNumber":57,"Velocity":33,"Duration":159574,"SoundDuration":159574,"Delta":1013890803},{"NoteNumber":62,"Velocity":29,"Duration":159574,"SoundDuration":159574,"Delta":1014050378},{"NoteNumber":83,"Velocity":54,"Duration":322580,"SoundDuration":322580,"Delta":1014209952},{"NoteNumber":57,"Velocity":29,"Duration":161290,"SoundDuration":161290,"Delta":1014209952},{"NoteNumber":62,"Velocity":29,"Duration":161290,"SoundDuration":161290,"Delta":1014371242},{"NoteNumber":80,"Velocity":58,"Duration":312630,"SoundDuration":312630,"Delta":1014532533},{"NoteNumber":45,"Velocity":33,"Duration":78157,"SoundDuration":78157,"Delta":1014532533},{"NoteNumber":62,"Velocity":28,"Duration":156315,"SoundDuration":156315,"Delta":1014688848},{"NoteNumber":83,"Velocity":56,"Duration":319966,"SoundDuration":319966,"Delta":1014845163},{"NoteNumber":57,"Velocity":28,"Duration":159983,"SoundDuration":159983,"Delta":1014845163},{"NoteNumber":62,"Velocity":27,"Duration":159983,"SoundDuration":159983,"Delta":1015005146},{"NoteNumber":88,"Velocity":58,"Duration":312630,"SoundDuration":312630,"Delta":1015165129},{"NoteNumber":57,"Velocity":31,"Duration":156315,"SoundDuration":156315,"Delta":1015165129},{"NoteNumber":62,"Velocity":27,"Duration":156315,"SoundDuration":156315,"Delta":1015321444},{"NoteNumber":84,"Velocity":54,"Duration":325768,"SoundDuration":325768,"Delta":1015477760},{"NoteNumber":57,"Velocity":28,"Duration":162884,"SoundDuration":162884,"Delta":1015477760},{"NoteNumber":62,"Velocity":28,"Duration":162884,"SoundDuration":162884,"Delta":1015640644},{"NoteNumber":85,"Velocity":57,"Duration":322407,"SoundDuration":322407,"Delta":1015803528},{"NoteNumber":45,"Velocity":33,"Duration":80601,"SoundDuration":80601,"Delta":1015803528},{"NoteNumber":61,"Velocity":28,"Duration":161203,"SoundDuration":161203,"Delta":1015964732},{"NoteNumber":81,"Velocity":54,"Duration":317998,"SoundDuration":317998,"Delta":1016125936},{"NoteNumber":57,"Velocity":28,"Duration":158999,"SoundDuration":158999,"Delta":1016125936},{"NoteNumber":61,"Velocity":28,"Duration":158999,"SoundDuration":158999,"Delta":1016284935},{"NoteNumber":85,"Velocity":57,"Duration":147754,"SoundDuration":147754,"Delta":1016443934},{"NoteNumber":57,"Velocity":33,"Duration":147754,"SoundDuration":147754,"Delta":1016443934},{"NoteNumber":81,"Velocity":51,"Duration":147754,"SoundDuration":147754,"Delta":1016591688},{"NoteNumber":61,"Velocity":29,"Duration":147754,"SoundDuration":147754,"Delta":1016591688},{"NoteNumber":85,"Velocity":56,"Duration":152765,"SoundDuration":152765,"Delta":1016739443},{"NoteNumber":57,"Velocity":29,"Duration":152765,"SoundDuration":152765,"Delta":1016739443},{"NoteNumber":81,"Velocity":50,"Duration":152764,"SoundDuration":152764,"Delta":1016892208},{"NoteNumber":61,"Velocity":29,"Duration":152764,"SoundDuration":152764,"Delta":1016892208},{"NoteNumber":76,"Velocity":56,"Duration":147754,"SoundDuration":147754,"Delta":1017044973},{"NoteNumber":45,"Velocity":33,"Duration":73877,"SoundDuration":73877,"Delta":1017044973},{"NoteNumber":73,"Velocity":52,"Duration":147754,"SoundDuration":147754,"Delta":1017192727},{"NoteNumber":61,"Velocity":28,"Duration":147754,"SoundDuration":147754,"Delta":1017192727},{"NoteNumber":76,"Velocity":56,"Duration":152765,"SoundDuration":152765,"Delta":1017340481},{"NoteNumber":57,"Velocity":28,"Duration":152765,"SoundDuration":152765,"Delta":1017340481},{"NoteNumber":73,"Velocity":53,"Duration":152764,"SoundDuration":152764,"Delta":1017493246},{"NoteNumber":61,"Velocity":27,"Duration":152764,"SoundDuration":152764,"Delta":1017493246},{"NoteNumber":81,"Velocity":58,"Duration":149253,"SoundDuration":149253,"Delta":1017646011},{"NoteNumber":57,"Velocity":31,"Duration":149253,"SoundDuration":149253,"Delta":1017646011},{"NoteNumber":77,"Velocity":53,"Duration":149253,"SoundDuration":149253,"Delta":1017795265},{"NoteNumber":61,"Velocity":27,"Duration":149253,"SoundDuration":149253,"Delta":1017795265},{"NoteNumber":81,"Velocity":57,"Duration":153846,"SoundDuration":153846,"Delta":1017944519},{"NoteNumber":57,"Velocity":28,"Duration":153846,"SoundDuration":153846,"Delta":1017944519},{"NoteNumber":77,"Velocity":52,"Duration":153846,"SoundDuration":153846,"Delta":1018098365},{"NoteNumber":61,"Velocity":28,"Duration":153846,"SoundDuration":153846,"Delta":1018098365},{"NoteNumber":78,"Velocity":57,"Duration":154511,"SoundDuration":154511,"Delta":1018252211},{"NoteNumber":45,"Velocity":33,"Duration":77255,"SoundDuration":77255,"Delta":1018252211},{"NoteNumber":74,"Velocity":52,"Duration":154511,"SoundDuration":154511,"Delta":1018406723},{"NoteNumber":62,"Velocity":28,"Duration":154511,"SoundDuration":154511,"Delta":1018406723},{"NoteNumber":78,"Velocity":54,"Duration":150225,"SoundDuration":150225,"Delta":1018561235},{"NoteNumber":57,"Velocity":28,"Duration":150225,"SoundDuration":150225,"Delta":1018561235},{"NoteNumber":74,"Velocity":52,"Duration":150225,"SoundDuration":150225,"Delta":1018711460},{"NoteNumber":62,"Velocity":28,"Duration":150225,"SoundDuration":150225,"Delta":1018711460},{"NoteNumber":86,"Velocity":57,"Duration":150225,"SoundDuration":150225,"Delta":1018861685},{"NoteNumber":57,"Velocity":33,"Duration":150225,"SoundDuration":150225,"Delta":1018861685},{"NoteNumber":83,"Velocity":51,"Duration":150225,"SoundDuration":150225,"Delta":1019011910},{"NoteNumber":62,"Velocity":29,"Duration":150225,"SoundDuration":150225,"Delta":1019011910},{"NoteNumber":86,"Velocity":56,"Duration":154511,"SoundDuration":154511,"Delta":1019162136},{"NoteNumber":57,"Velocity":29,"Duration":154511,"SoundDuration":154511,"Delta":1019162136},{"NoteNumber":83,"Velocity":50,"Duration":154511,"SoundDuration":154511,"Delta":1019316647},{"NoteNumber":62,"Velocity":29,"Duration":154511,"SoundDuration":154511,"Delta":1019316647},{"NoteNumber":80,"Velocity":56,"Duration":152765,"SoundDuration":152765,"Delta":1019471159},{"NoteNumber":45,"Velocity":33,"Duration":76382,"SoundDuration":76382,"Delta":1019471159},{"NoteNumber":83,"Velocity":52,"Duration":152764,"SoundDuration":152764,"Delta":1019623924},{"NoteNumber":62,"Velocity":28,"Duration":152764,"SoundDuration":152764,"Delta":1019623924},{"NoteNumber":80,"Velocity":56,"Duration":156315,"SoundDuration":156315,"Delta":1019776689},{"NoteNumber":57,"Velocity":28,"Duration":156315,"SoundDuration":156315,"Delta":1019776689},{"NoteNumber":83,"Velocity":53,"Duration":156315,"SoundDuration":156315,"Delta":1019933004},{"NoteNumber":62,"Velocity":27,"Duration":156315,"SoundDuration":156315,"Delta":1019933004},{"NoteNumber":88,"Velocity":58,"Duration":157216,"SoundDuration":157216,"Delta":1020089320},{"NoteNumber":57,"Velocity":31,"Duration":157216,"SoundDuration":157216,"Delta":1020089320},{"NoteNumber":84,"Velocity":53,"Duration":157216,"SoundDuration":157216,"Delta":1020246536},{"NoteNumber":62,"Velocity":27,"Duration":157216,"SoundDuration":157216,"Delta":1020246536},{"NoteNumber":88,"Velocity":57,"Duration":162884,"SoundDuration":162884,"Delta":1020403752},{"NoteNumber":57,"Velocity":28,"Duration":162884,"SoundDuration":162884,"Delta":1020403752},{"NoteNumber":84,"Velocity":52,"Duration":162884,"SoundDuration":162884,"Delta":1020566636},{"NoteNumber":62,"Velocity":28,"Duration":162884,"SoundDuration":162884,"Delta":1020566636},{"NoteNumber":85,"Velocity":57,"Duration":157216,"SoundDuration":157216,"Delta":1020729521},{"NoteNumber":45,"Velocity":33,"Duration":78608,"SoundDuration":78608,"Delta":1020729521},{"NoteNumber":84,"Velocity":53,"Duration":157216,"SoundDuration":157216,"Delta":1020886737},{"NoteNumber":61,"Velocity":28,"Duration":157216,"SoundDuration":157216,"Delta":1020886737},{"NoteNumber":85,"Velocity":52,"Duration":153625,"SoundDuration":153625,"Delta":1021043953},{"NoteNumber":57,"Velocity":28,"Duration":153625,"SoundDuration":153625,"Delta":1021043953},{"NoteNumber":80,"Velocity":52,"Duration":153625,"SoundDuration":153625,"Delta":1021197579},{"NoteNumber":61,"Velocity":28,"Duration":153625,"SoundDuration":153625,"Delta":1021197579},{"NoteNumber":81,"Velocity":57,"Duration":150225,"SoundDuration":150225,"Delta":1021351204},{"NoteNumber":57,"Velocity":33,"Duration":150225,"SoundDuration":150225,"Delta":1021351204},{"NoteNumber":80,"Velocity":51,"Duration":150225,"SoundDuration":150225,"Delta":1021501429},{"NoteNumber":61,"Velocity":29,"Duration":150225,"SoundDuration":150225,"Delta":1021501429},{"NoteNumber":81,"Velocity":51,"Duration":155392,"SoundDuration":155392,"Delta":1021651655},{"NoteNumber":57,"Velocity":29,"Duration":155392,"SoundDuration":155392,"Delta":1021651655},{"NoteNumber":75,"Velocity":50,"Duration":155392,"SoundDuration":155392,"Delta":1021807047},{"NoteNumber":61,"Velocity":29,"Duration":155392,"SoundDuration":155392,"Delta":1021807047},{"NoteNumber":76,"Velocity":55,"Duration":152765,"SoundDuration":152765,"Delta":1021962439},{"NoteNumber":57,"Velocity":33,"Duration":152765,"SoundDuration":152765,"Delta":1021962439},{"NoteNumber":75,"Velocity":51,"Duration":152764,"SoundDuration":152764,"Delta":1022115204},{"NoteNumber":61,"Velocity":28,"Duration":152764,"SoundDuration":152764,"Delta":1022115204},{"NoteNumber":76,"Velocity":51,"Duration":156315,"SoundDuration":156315,"Delta":1022267969},{"NoteNumber":57,"Velocity":28,"Duration":156315,"SoundDuration":156315,"Delta":1022267969},{"NoteNumber":72,"Velocity":51,"Duration":156315,"SoundDuration":156315,"Delta":1022424284},{"NoteNumber":61,"Velocity":27,"Duration":156315,"SoundDuration":156315,"Delta":1022424284},{"NoteNumber":73,"Velocity":54,"Duration":158127,"SoundDuration":158127,"Delta":1022580599},{"NoteNumber":57,"Velocity":31,"Duration":158127,"SoundDuration":158127,"Delta":1022580599},{"NoteNumber":72,"Velocity":47,"Duration":158127,"SoundDuration":158127,"Delta":1022738727},{"NoteNumber":61,"Velocity":27,"Duration":158127,"SoundDuration":158127,"Delta":1022738727},{"NoteNumber":73,"Velocity":49,"Duration":161917,"SoundDuration":161917,"Delta":1022896855},{"NoteNumber":57,"Velocity":28,"Duration":161917,"SoundDuration":161917,"Delta":1022896855},{"NoteNumber":68,"Velocity":47,"Duration":161916,"SoundDuration":161916,"Delta":1023058772},{"NoteNumber":61,"Velocity":28,"Duration":161916,"SoundDuration":161916,"Delta":1023058772},{"NoteNumber":69,"Velocity":57,"Duration":158127,"SoundDuration":158127,"Delta":1023220689},{"NoteNumber":45,"Velocity":33,"Duration":79063,"SoundDuration":79063,"Delta":1023220689},{"NoteNumber":84,"Velocity":53,"Duration":158127,"SoundDuration":158127,"Delta":1023378816},{"NoteNumber":61,"Velocity":28,"Duration":158127,"SoundDuration":158127,"Delta":1023378816},{"NoteNumber":85,"Velocity":52,"Duration":155391,"SoundDuration":155391,"Delta":1023536944},{"NoteNumber":57,"Velocity":28,"Duration":155391,"SoundDuration":155391,"Delta":1023536944},{"NoteNumber":80,"Velocity":52,"Duration":155392,"SoundDuration":155392,"Delta":1023692336},{"NoteNumber":61,"Velocity":28,"Duration":155392,"SoundDuration":155392,"Delta":1023692336},{"NoteNumber":81,"Velocity":57,"Duration":151898,"SoundDuration":151898,"Delta":1023847728},{"NoteNumber":57,"Velocity":33,"Duration":151898,"SoundDuration":151898,"Delta":1023847728},{"NoteNumber":80,"Velocity":51,"Duration":151898,"SoundDuration":151898,"Delta":1023999627},{"NoteNumber":61,"Velocity":29,"Duration":151898,"SoundDuration":151898,"Delta":1023999627},{"NoteNumber":81,"Velocity":51,"Duration":155391,"SoundDuration":155391,"Delta":1024151526},{"NoteNumber":57,"Velocity":29,"Duration":155391,"SoundDuration":155391,"Delta":1024151526},{"NoteNumber":75,"Velocity":50,"Duration":155392,"SoundDuration":155392,"Delta":1024306918},{"NoteNumber":61,"Velocity":29,"Duration":155392,"SoundDuration":155392,"Delta":1024306918},{"NoteNumber":76,"Velocity":55,"Duration":151042,"SoundDuration":151042,"Delta":1024462310},{"NoteNumber":57,"Velocity":33,"Duration":151042,"SoundDuration":151042,"Delta":1024462310},{"NoteNumber":75,"Velocity":51,"Duration":151042,"SoundDuration":151042,"Delta":1024613352},{"NoteNumber":61,"Velocity":28,"Duration":151042,"SoundDuration":151042,"Delta":1024613352},{"NoteNumber":76,"Velocity":51,"Duration":157216,"SoundDuration":157216,"Delta":1024764394},{"NoteNumber":57,"Velocity":28,"Duration":157216,"SoundDuration":157216,"Delta":1024764394},{"NoteNumber":72,"Velocity":51,"Duration":157216,"SoundDuration":157216,"Delta":1024921610},{"NoteNumber":61,"Velocity":27,"Duration":157216,"SoundDuration":157216,"Delta":1024921610},{"NoteNumber":73,"Velocity":54,"Duration":152765,"SoundDuration":152765,"Delta":1025078827},{"NoteNumber":57,"Velocity":31,"Duration":152765,"SoundDuration":152765,"Delta":1025078827},{"NoteNumber":72,"Velocity":47,"Duration":152765,"SoundDuration":152765,"Delta":1025231592},{"NoteNumber":61,"Velocity":27,"Duration":152765,"SoundDuration":152765,"Delta":1025231592},{"NoteNumber":73,"Velocity":49,"Duration":158127,"SoundDuration":158127,"Delta":1025384357},{"NoteNumber":57,"Velocity":28,"Duration":158127,"SoundDuration":158127,"Delta":1025384357},{"NoteNumber":68,"Velocity":47,"Duration":158127,"SoundDuration":158127,"Delta":1025542484},{"NoteNumber":61,"Velocity":28,"Duration":158127,"SoundDuration":158127,"Delta":1025542484},{"NoteNumber":69,"Velocity":53,"Duration":157216,"SoundDuration":157216,"Delta":1025700612},{"NoteNumber":57,"Velocity":33,"Duration":157216,"SoundDuration":157216,"Delta":1025700612},{"NoteNumber":68,"Velocity":49,"Duration":157216,"SoundDuration":157216,"Delta":1025857828},{"NoteNumber":61,"Velocity":28,"Duration":157216,"SoundDuration":157216,"Delta":1025857828},{"NoteNumber":69,"Velocity":49,"Duration":155391,"SoundDuration":155391,"Delta":1026015045},{"NoteNumber":57,"Velocity":28,"Duration":155391,"SoundDuration":155391,"Delta":1026015045},{"NoteNumber":71,"Velocity":49,"Duration":155392,"SoundDuration":155392,"Delta":1026170437},{"NoteNumber":61,"Velocity":28,"Duration":155392,"SoundDuration":155392,"Delta":1026170437},{"NoteNumber":73,"Velocity":55,"Duration":155391,"SoundDuration":155391,"Delta":1026325829},{"NoteNumber":57,"Velocity":33,"Duration":155391,"SoundDuration":155391,"Delta":1026325829},{"NoteNumber":74,"Velocity":49,"Duration":155392,"SoundDuration":155392,"Delta":1026481221},{"NoteNumber":61,"Velocity":29,"Duration":155392,"SoundDuration":155392,"Delta":1026481221},{"NoteNumber":73,"Velocity":49,"Duration":158999,"SoundDuration":158999,"Delta":1026636613},{"NoteNumber":57,"Velocity":29,"Duration":158999,"SoundDuration":158999,"Delta":1026636613},{"NoteNumber":71,"Velocity":49,"Duration":158999,"SoundDuration":158999,"Delta":1026795612},{"NoteNumber":61,"Velocity":30,"Duration":158999,"SoundDuration":158999,"Delta":1026795612},{"NoteNumber":69,"Velocity":55,"Duration":160119,"SoundDuration":160119,"Delta":1026954611},{"NoteNumber":57,"Velocity":34,"Duration":160119,"SoundDuration":160119,"Delta":1026954611},{"NoteNumber":71,"Velocity":50,"Duration":160119,"SoundDuration":160119,"Delta":1027114731},{"NoteNumber":61,"Velocity":29,"Duration":160119,"SoundDuration":160119,"Delta":1027114731},{"NoteNumber":73,"Velocity":50,"Duration":163416,"SoundDuration":163416,"Delta":1027274850},{"NoteNumber":57,"Velocity":29,"Duration":163416,"SoundDuration":163416,"Delta":1027274850},{"NoteNumber":71,"Velocity":50,"Duration":163416,"SoundDuration":163416,"Delta":1027438267},{"NoteNumber":61,"Velocity":28,"Duration":163416,"SoundDuration":163416,"Delta":1027438267},{"NoteNumber":69,"Velocity":55,"Duration":161203,"SoundDuration":161203,"Delta":1027601683},{"NoteNumber":57,"Velocity":33,"Duration":161203,"SoundDuration":161203,"Delta":1027601683},{"NoteNumber":71,"Velocity":50,"Duration":161203,"SoundDuration":161203,"Delta":1027762887},{"NoteNumber":61,"Velocity":29,"Duration":161203,"SoundDuration":161203,"Delta":1027762887},{"NoteNumber":69,"Velocity":52,"Duration":164582,"SoundDuration":164582,"Delta":1027924091},{"NoteNumber":57,"Velocity":30,"Duration":164582,"SoundDuration":164582,"Delta":1027924091},{"NoteNumber":68,"Velocity":51,"Duration":164581,"SoundDuration":164581,"Delta":1028088673},{"NoteNumber":61,"Velocity":30,"Duration":164581,"SoundDuration":164581,"Delta":1028088673},{"NoteNumber":67,"Velocity":57,"Duration":231508,"SoundDuration":231508,"Delta":1028253255},{"NoteNumber":45,"Velocity":34,"Duration":231508,"SoundDuration":231508,"Delta":1028253255},{"NoteNumber":73,"Velocity":52,"Duration":219932,"SoundDuration":219932,"Delta":1028484763},{"NoteNumber":57,"Velocity":31,"Duration":219932,"SoundDuration":219932,"Delta":1028484763},{"NoteNumber":61,"Velocity":45,"Duration":219932,"SoundDuration":219932,"Delta":1028716271},{"NoteNumber":67,"Velocity":45,"Duration":219932,"SoundDuration":219932,"Delta":1028716271},{"NoteNumber":73,"Velocity":54,"Duration":219932,"SoundDuration":219932,"Delta":1028716271},{"NoteNumber":57,"Velocity":31,"Duration":219932,"SoundDuration":219932,"Delta":1028716271},{"NoteNumber":45,"Velocity":25,"Duration":219932,"SoundDuration":219932,"Delta":1028716271},{"NoteNumber":61,"Velocity":50,"Duration":219932,"SoundDuration":219932,"Delta":1028947780},{"NoteNumber":67,"Velocity":50,"Duration":219932,"SoundDuration":219932,"Delta":1028947780},{"NoteNumber":73,"Velocity":59,"Duration":219932,"SoundDuration":219932,"Delta":1028947780},{"NoteNumber":45,"Velocity":29,"Duration":219932,"SoundDuration":219932,"Delta":1028947780},{"NoteNumber":57,"Velocity":35,"Duration":219932,"SoundDuration":219932,"Delta":1028947780},{"NoteNumber":61,"Velocity":47,"Duration":219932,"SoundDuration":219932,"Delta":1029179288},{"NoteNumber":67,"Velocity":47,"Duration":219932,"SoundDuration":219932,"Delta":1029179288},{"NoteNumber":73,"Velocity":56,"Duration":219932,"SoundDuration":219932,"Delta":1029179288},{"NoteNumber":45,"Velocity":25,"Duration":219932,"SoundDuration":219932,"Delta":1029179288},{"NoteNumber":57,"Velocity":31,"Duration":219932,"SoundDuration":219932,"Delta":1029179288},{"NoteNumber":61,"Velocity":48,"Duration":219932,"SoundDuration":219932,"Delta":1029410796},{"NoteNumber":67,"Velocity":48,"Duration":219932,"SoundDuration":219932,"Delta":1029410796},{"NoteNumber":73,"Velocity":57,"Duration":219932,"SoundDuration":219932,"Delta":1029410796},{"NoteNumber":45,"Velocity":27,"Duration":219932,"SoundDuration":219932,"Delta":1029410796},{"NoteNumber":57,"Velocity":33,"Duration":219932,"SoundDuration":219932,"Delta":1029410796},{"NoteNumber":61,"Velocity":52,"Duration":220008,"SoundDuration":220008,"Delta":1029642305},{"NoteNumber":67,"Velocity":52,"Duration":220008,"SoundDuration":220008,"Delta":1029642305},{"NoteNumber":73,"Velocity":62,"Duration":220008,"SoundDuration":220008,"Delta":1029642305},{"NoteNumber":45,"Velocity":31,"Duration":220008,"SoundDuration":220008,"Delta":1029642305},{"NoteNumber":57,"Velocity":37,"Duration":220008,"SoundDuration":220008,"Delta":1029642305},{"NoteNumber":61,"Velocity":47,"Duration":218971,"SoundDuration":218971,"Delta":1029873893},{"NoteNumber":67,"Velocity":47,"Duration":218971,"SoundDuration":218971,"Delta":1029873893},{"NoteNumber":73,"Velocity":56,"Duration":218971,"SoundDuration":218971,"Delta":1029873893},{"NoteNumber":45,"Velocity":29,"Duration":218971,"SoundDuration":218971,"Delta":1029873893},{"NoteNumber":57,"Velocity":35,"Duration":218971,"SoundDuration":218971,"Delta":1029873893},{"NoteNumber":61,"Velocity":47,"Duration":217542,"SoundDuration":217542,"Delta":1030104370},{"NoteNumber":67,"Velocity":47,"Duration":217542,"SoundDuration":217542,"Delta":1030104370},{"NoteNumber":73,"Velocity":57,"Duration":217542,"SoundDuration":217542,"Delta":1030104370},{"NoteNumber":45,"Velocity":29,"Duration":217542,"SoundDuration":217542,"Delta":1030104370},{"NoteNumber":57,"Velocity":35,"Duration":217542,"SoundDuration":217542,"Delta":1030104370},{"NoteNumber":61,"Velocity":55,"Duration":215786,"SoundDuration":215786,"Delta":1030333342},{"NoteNumber":67,"Velocity":55,"Duration":215786,"SoundDuration":215786,"Delta":1030333342},{"NoteNumber":73,"Velocity":65,"Duration":215786,"SoundDuration":215786,"Delta":1030333342},{"NoteNumber":55,"Velocity":32,"Duration":215786,"SoundDuration":215786,"Delta":1030333342},{"NoteNumber":52,"Velocity":32,"Duration":215786,"SoundDuration":215786,"Delta":1030333342},{"NoteNumber":45,"Velocity":32,"Duration":215786,"SoundDuration":215786,"Delta":1030333342},{"NoteNumber":57,"Velocity":38,"Duration":215786,"SoundDuration":215786,"Delta":1030333342},{"NoteNumber":61,"Velocity":51,"Duration":214398,"SoundDuration":214398,"Delta":1030560486},{"NoteNumber":67,"Velocity":51,"Duration":214398,"SoundDuration":214398,"Delta":1030560486},{"NoteNumber":73,"Velocity":61,"Duration":214398,"SoundDuration":214398,"Delta":1030560486},{"NoteNumber":55,"Velocity":32,"Duration":214398,"SoundDuration":214398,"Delta":1030560486},{"NoteNumber":52,"Velocity":32,"Duration":214398,"SoundDuration":214398,"Delta":1030560486},{"NoteNumber":45,"Velocity":28,"Duration":214398,"SoundDuration":214398,"Delta":1030560486},{"NoteNumber":57,"Velocity":35,"Duration":214398,"SoundDuration":214398,"Delta":1030560486},{"NoteNumber":61,"Velocity":52,"Duration":212724,"SoundDuration":212724,"Delta":1030786169},{"NoteNumber":67,"Velocity":52,"Duration":212724,"SoundDuration":212724,"Delta":1030786169},{"NoteNumber":73,"Velocity":62,"Duration":212724,"SoundDuration":212724,"Delta":1030786169},{"NoteNumber":55,"Velocity":32,"Duration":212724,"SoundDuration":212724,"Delta":1030786169},{"NoteNumber":52,"Velocity":33,"Duration":212724,"SoundDuration":212724,"Delta":1030786169},{"NoteNumber":45,"Velocity":29,"Duration":212724,"SoundDuration":212724,"Delta":1030786169},{"NoteNumber":57,"Velocity":35,"Duration":212724,"SoundDuration":212724,"Delta":1030786169},{"NoteNumber":61,"Velocity":57,"Duration":211675,"SoundDuration":211675,"Delta":1031010034},{"NoteNumber":67,"Velocity":57,"Duration":211675,"SoundDuration":211675,"Delta":1031010034},{"NoteNumber":73,"Velocity":67,"Duration":211675,"SoundDuration":211675,"Delta":1031010034},{"NoteNumber":55,"Velocity":33,"Duration":211675,"SoundDuration":211675,"Delta":1031010034},{"NoteNumber":52,"Velocity":33,"Duration":211675,"SoundDuration":211675,"Delta":1031010034},{"NoteNumber":45,"Velocity":33,"Duration":211675,"SoundDuration":211675,"Delta":1031010034},{"NoteNumber":57,"Velocity":40,"Duration":211675,"SoundDuration":211675,"Delta":1031010034},{"NoteNumber":61,"Velocity":53,"Duration":211675,"SoundDuration":211675,"Delta":1031232850},{"NoteNumber":67,"Velocity":53,"Duration":211675,"SoundDuration":211675,"Delta":1031232850},{"NoteNumber":73,"Velocity":64,"Duration":211675,"SoundDuration":211675,"Delta":1031232850},{"NoteNumber":55,"Velocity":33,"Duration":211675,"SoundDuration":211675,"Delta":1031232850},{"NoteNumber":52,"Velocity":34,"Duration":211675,"SoundDuration":211675,"Delta":1031232850},{"NoteNumber":45,"Velocity":30,"Duration":211675,"SoundDuration":211675,"Delta":1031232850},{"NoteNumber":57,"Velocity":36,"Duration":211675,"SoundDuration":211675,"Delta":1031232850},{"NoteNumber":61,"Velocity":55,"Duration":213004,"SoundDuration":213004,"Delta":1031455667},{"NoteNumber":67,"Velocity":55,"Duration":213004,"SoundDuration":213004,"Delta":1031455667},{"NoteNumber":73,"Velocity":65,"Duration":213004,"SoundDuration":213004,"Delta":1031455667},{"NoteNumber":55,"Velocity":33,"Duration":213004,"SoundDuration":213004,"Delta":1031455667},{"NoteNumber":52,"Velocity":35,"Duration":213004,"SoundDuration":213004,"Delta":1031455667},{"NoteNumber":45,"Velocity":30,"Duration":213004,"SoundDuration":213004,"Delta":1031455667},{"NoteNumber":57,"Velocity":37,"Duration":213004,"SoundDuration":213004,"Delta":1031455667},{"NoteNumber":61,"Velocity":59,"Duration":213004,"SoundDuration":213004,"Delta":1031679882},{"NoteNumber":67,"Velocity":59,"Duration":213004,"SoundDuration":213004,"Delta":1031679882},{"NoteNumber":73,"Velocity":71,"Duration":213004,"SoundDuration":213004,"Delta":1031679882},{"NoteNumber":55,"Velocity":44,"Duration":213004,"SoundDuration":213004,"Delta":1031679882},{"NoteNumber":52,"Velocity":36,"Duration":213004,"SoundDuration":213004,"Delta":1031679882},{"NoteNumber":45,"Velocity":36,"Duration":213004,"SoundDuration":213004,"Delta":1031679882},{"NoteNumber":57,"Velocity":44,"Duration":213004,"SoundDuration":213004,"Delta":1031679882},{"NoteNumber":61,"Velocity":56,"Duration":214398,"SoundDuration":214398,"Delta":1031904097},{"NoteNumber":67,"Velocity":56,"Duration":214398,"SoundDuration":214398,"Delta":1031904097},{"NoteNumber":73,"Velocity":67,"Duration":214398,"SoundDuration":214398,"Delta":1031904097},{"NoteNumber":55,"Velocity":44,"Duration":214398,"SoundDuration":214398,"Delta":1031904097},{"NoteNumber":52,"Velocity":37,"Duration":214398,"SoundDuration":214398,"Delta":1031904097},{"NoteNumber":45,"Velocity":33,"Duration":214398,"SoundDuration":214398,"Delta":1031904097},{"NoteNumber":57,"Velocity":40,"Duration":214398,"SoundDuration":214398,"Delta":1031904097},{"NoteNumber":61,"Velocity":57,"Duration":214690,"SoundDuration":214690,"Delta":1032129780},{"NoteNumber":67,"Velocity":57,"Duration":214690,"SoundDuration":214690,"Delta":1032129780},{"NoteNumber":73,"Velocity":69,"Duration":214690,"SoundDuration":214690,"Delta":1032129780},{"NoteNumber":55,"Velocity":45,"Duration":214690,"SoundDuration":214690,"Delta":1032129780},{"NoteNumber":52,"Velocity":39,"Duration":214690,"SoundDuration":214690,"Delta":1032129780},{"NoteNumber":45,"Velocity":34,"Duration":214690,"SoundDuration":214690,"Delta":1032129780},{"NoteNumber":57,"Velocity":42,"Duration":214690,"SoundDuration":214690,"Delta":1032129780},{"NoteNumber":61,"Velocity":62,"Duration":216440,"SoundDuration":216440,"Delta":1032355828},{"NoteNumber":67,"Velocity":62,"Duration":216440,"SoundDuration":216440,"Delta":1032355828},{"NoteNumber":73,"Velocity":74,"Duration":216440,"SoundDuration":216440,"Delta":1032355828},{"NoteNumber":55,"Velocity":48,"Duration":216440,"SoundDuration":216440,"Delta":1032355828},{"NoteNumber":52,"Velocity":40,"Duration":216440,"SoundDuration":216440,"Delta":1032355828},{"NoteNumber":45,"Velocity":40,"Duration":216440,"SoundDuration":216440,"Delta":1032355828},{"NoteNumber":57,"Velocity":48,"Duration":216440,"SoundDuration":216440,"Delta":1032355828},{"NoteNumber":61,"Velocity":59,"Duration":219962,"SoundDuration":219962,"Delta":1032583699},{"NoteNumber":67,"Velocity":59,"Duration":219962,"SoundDuration":219962,"Delta":1032583699},{"NoteNumber":73,"Velocity":71,"Duration":219962,"SoundDuration":219962,"Delta":1032583699},{"NoteNumber":55,"Velocity":49,"Duration":219962,"SoundDuration":219962,"Delta":1032583699},{"NoteNumber":52,"Velocity":41,"Duration":219962,"SoundDuration":219962,"Delta":1032583699},{"NoteNumber":45,"Velocity":37,"Duration":219962,"SoundDuration":219962,"Delta":1032583699},{"NoteNumber":57,"Velocity":44,"Duration":219962,"SoundDuration":219962,"Delta":1032583699},{"NoteNumber":61,"Velocity":60,"Duration":223983,"SoundDuration":223983,"Delta":1032815319},{"NoteNumber":67,"Velocity":60,"Duration":223983,"SoundDuration":223983,"Delta":1032815319},{"NoteNumber":73,"Velocity":72,"Duration":223983,"SoundDuration":223983,"Delta":1032815319},{"NoteNumber":55,"Velocity":49,"Duration":223983,"SoundDuration":223983,"Delta":1032815319},{"NoteNumber":52,"Velocity":43,"Duration":223983,"SoundDuration":223983,"Delta":1032815319},{"NoteNumber":45,"Velocity":37,"Duration":223983,"SoundDuration":223983,"Delta":1032815319},{"NoteNumber":57,"Velocity":46,"Duration":223983,"SoundDuration":223983,"Delta":1032815319},{"NoteNumber":65,"Velocity":72,"Duration":232245,"SoundDuration":232245,"Delta":1033051197},{"NoteNumber":62,"Velocity":72,"Duration":232245,"SoundDuration":232245,"Delta":1033051197},{"NoteNumber":74,"Velocity":85,"Duration":232245,"SoundDuration":232245,"Delta":1033051197},{"NoteNumber":50,"Velocity":48,"Duration":232245,"SoundDuration":232245,"Delta":1033051197},{"NoteNumber":58,"Velocity":57,"Duration":232245,"SoundDuration":232245,"Delta":1033051197},{"NoteNumber":46,"Velocity":48,"Duration":232245,"SoundDuration":232245,"Delta":1033051197},{"NoteNumber":53,"Velocity":48,"Duration":232245,"SoundDuration":232245,"Delta":1033051197},{"NoteNumber":65,"Velocity":67,"Duration":232245,"SoundDuration":232245,"Delta":1033295666},{"NoteNumber":62,"Velocity":67,"Duration":232245,"SoundDuration":232245,"Delta":1033295666},{"NoteNumber":74,"Velocity":80,"Duration":232245,"SoundDuration":232245,"Delta":1033295666},{"NoteNumber":50,"Velocity":48,"Duration":232245,"SoundDuration":232245,"Delta":1033295666},{"NoteNumber":58,"Velocity":52,"Duration":232245,"SoundDuration":232245,"Delta":1033295666},{"NoteNumber":46,"Velocity":42,"Duration":232245,"SoundDuration":232245,"Delta":1033295666},{"NoteNumber":53,"Velocity":48,"Duration":232245,"SoundDuration":232245,"Delta":1033295666},{"NoteNumber":65,"Velocity":67,"Duration":232245,"SoundDuration":232245,"Delta":1033540135},{"NoteNumber":62,"Velocity":67,"Duration":232245,"SoundDuration":232245,"Delta":1033540135},{"NoteNumber":74,"Velocity":80,"Duration":232245,"SoundDuration":232245,"Delta":1033540135},{"NoteNumber":50,"Velocity":48,"Duration":232245,"SoundDuration":232245,"Delta":1033540135},{"NoteNumber":58,"Velocity":52,"Duration":232245,"SoundDuration":232245,"Delta":1033540135},{"NoteNumber":46,"Velocity":42,"Duration":232245,"SoundDuration":232245,"Delta":1033540135},{"NoteNumber":53,"Velocity":48,"Duration":232245,"SoundDuration":232245,"Delta":1033540135},{"NoteNumber":62,"Velocity":63,"Duration":738305,"SoundDuration":738305,"Delta":1033784604},{"NoteNumber":65,"Velocity":77,"Duration":738305,"SoundDuration":738305,"Delta":1033784604},{"NoteNumber":74,"Velocity":90,"Duration":738305,"SoundDuration":738305,"Delta":1033784604},{"NoteNumber":46,"Velocity":63,"Duration":738305,"SoundDuration":738305,"Delta":1033784604},{"NoteNumber":58,"Velocity":63,"Duration":243161,"SoundDuration":243161,"Delta":1033784604},{"NoteNumber":41,"Velocity":63,"Duration":738305,"SoundDuration":738305,"Delta":1033784604},{"NoteNumber":53,"Velocity":58,"Duration":244925,"SoundDuration":244925,"Delta":1034027765},{"NoteNumber":53,"Velocity":58,"Duration":125109,"SoundDuration":125109,"Delta":1034272690},{"NoteNumber":60,"Velocity":60,"Duration":739218,"SoundDuration":739218,"Delta":1034522909},{"NoteNumber":69,"Velocity":72,"Duration":739218,"SoundDuration":739218,"Delta":1034522909},{"NoteNumber":72,"Velocity":85,"Duration":739218,"SoundDuration":739218,"Delta":1034522909},{"NoteNumber":51,"Velocity":62,"Duration":243161,"SoundDuration":243161,"Delta":1034522909},{"NoteNumber":46,"Velocity":62,"Duration":739218,"SoundDuration":739218,"Delta":1034522909},{"NoteNumber":53,"Velocity":58,"Duration":247604,"SoundDuration":247604,"Delta":1034766070},{"NoteNumber":53,"Velocity":58,"Duration":126023,"SoundDuration":126023,"Delta":1035013675},{"NoteNumber":58,"Velocity":60,"Duration":756135,"SoundDuration":756135,"Delta":1035262128},{"NoteNumber":65,"Velocity":72,"Duration":756135,"SoundDuration":756135,"Delta":1035262128},{"NoteNumber":70,"Velocity":85,"Duration":756135,"SoundDuration":756135,"Delta":1035262128},{"NoteNumber":50,"Velocity":60,"Duration":250219,"SoundDuration":250219,"Delta":1035262128},{"NoteNumber":46,"Velocity":60,"Duration":756135,"SoundDuration":756135,"Delta":1035262128},{"NoteNumber":53,"Velocity":58,"Duration":252045,"SoundDuration":252045,"Delta":1035512347},{"NoteNumber":53,"Velocity":58,"Duration":126935,"SoundDuration":126935,"Delta":1035764392},{"NoteNumber":60,"Velocity":60,"Duration":748094,"SoundDuration":748094,"Delta":1036018264},{"NoteNumber":65,"Velocity":72,"Duration":748094,"SoundDuration":748094,"Delta":1036018264},{"NoteNumber":72,"Velocity":85,"Duration":748094,"SoundDuration":748094,"Delta":1036018264},{"NoteNumber":51,"Velocity":61,"Duration":244858,"SoundDuration":244858,"Delta":1036018264},{"NoteNumber":46,"Velocity":61,"Duration":748094,"SoundDuration":748094,"Delta":1036018264},{"NoteNumber":53,"Velocity":58,"Duration":249364,"SoundDuration":249364,"Delta":1036263122},{"NoteNumber":53,"Velocity":58,"Duration":126935,"SoundDuration":126935,"Delta":1036512486},{"NoteNumber":62,"Velocity":64,"Duration":2150669,"SoundDuration":2150669,"Delta":1036766358},{"NoteNumber":65,"Velocity":78,"Duration":2150669,"SoundDuration":2150669,"Delta":1036766358},{"NoteNumber":74,"Velocity":92,"Duration":2150669,"SoundDuration":2150669,"Delta":1036766358},{"NoteNumber":52,"Velocity":60,"Duration":243161,"SoundDuration":243161,"Delta":1036766358},{"NoteNumber":46,"Velocity":60,"Duration":2150669,"SoundDuration":2150669,"Delta":1036766358},{"NoteNumber":53,"Velocity":58,"Duration":240642,"SoundDuration":240642,"Delta":1037009519},{"NoteNumber":53,"Velocity":58,"Duration":119061,"SoundDuration":119061,"Delta":1037250161},{"NoteNumber":53,"Velocity":60,"Duration":238123,"SoundDuration":238123,"Delta":1037488285},{"NoteNumber":53,"Velocity":58,"Duration":238123,"SoundDuration":238123,"Delta":1037726409},{"NoteNumber":53,"Velocity":58,"Duration":119061,"SoundDuration":119061,"Delta":1037964532},{"NoteNumber":53,"Velocity":62,"Duration":238123,"SoundDuration":238123,"Delta":1038202656},{"NoteNumber":53,"Velocity":58,"Duration":238123,"SoundDuration":238123,"Delta":1038440780},{"NoteNumber":53,"Velocity":58,"Duration":238123,"SoundDuration":238123,"Delta":1038678903},{"NoteNumber":60,"Velocity":62,"Duration":359668,"SoundDuration":359668,"Delta":1038917027},{"NoteNumber":65,"Velocity":74,"Duration":359668,"SoundDuration":359668,"Delta":1038917027},{"NoteNumber":72,"Velocity":89,"Duration":359668,"SoundDuration":359668,"Delta":1038917027},{"NoteNumber":51,"Velocity":61,"Duration":239779,"SoundDuration":239779,"Delta":1038917027},{"NoteNumber":46,"Velocity":61,"Duration":734997,"SoundDuration":734997,"Delta":1038917027},{"NoteNumber":53,"Velocity":53,"Duration":244999,"SoundDuration":244999,"Delta":1039156806},{"NoteNumber":58,"Velocity":58,"Duration":375328,"SoundDuration":375328,"Delta":1039276696},{"NoteNumber":65,"Velocity":69,"Duration":375328,"SoundDuration":375328,"Delta":1039276696},{"NoteNumber":70,"Velocity":82,"Duration":375328,"SoundDuration":375328,"Delta":1039276696},{"NoteNumber":50,"Velocity":53,"Duration":250219,"SoundDuration":250219,"Delta":1039401806},{"NoteNumber":60,"Velocity":61,"Duration":727038,"SoundDuration":727038,"Delta":1039652025},{"NoteNumber":65,"Velocity":73,"Duration":727038,"SoundDuration":727038,"Delta":1039652025},{"NoteNumber":72,"Velocity":88,"Duration":727038,"SoundDuration":727038,"Delta":1039652025},{"NoteNumber":51,"Velocity":60,"Duration":243161,"SoundDuration":243161,"Delta":1039652025},{"NoteNumber":41,"Velocity":60,"Duration":734746,"SoundDuration":734746,"Delta":1039652025},{"NoteNumber":53,"Velocity":55,"Duration":232581,"SoundDuration":232581,"Delta":1039895186},{"NoteNumber":53,"Velocity":55,"Duration":234336,"SoundDuration":234336,"Delta":1040140101},{"NoteNumber":60,"Velocity":59,"Duration":727038,"SoundDuration":727038,"Delta":1040386771},{"NoteNumber":65,"Velocity":71,"Duration":727038,"SoundDuration":727038,"Delta":1040386771},{"NoteNumber":72,"Velocity":84,"Duration":727038,"SoundDuration":727038,"Delta":1040386771},{"NoteNumber":51,"Velocity":60,"Duration":243161,"SoundDuration":243161,"Delta":1040386771},{"NoteNumber":41,"Velocity":60,"Duration":734746,"SoundDuration":734746,"Delta":1040386771},{"NoteNumber":53,"Velocity":56,"Duration":232581,"SoundDuration":232581,"Delta":1040629932},{"NoteNumber":53,"Velocity":56,"Duration":234336,"SoundDuration":234336,"Delta":1040874848},{"NoteNumber":60,"Velocity":59,"Duration":735814,"SoundDuration":735814,"Delta":1041121518},{"NoteNumber":65,"Velocity":70,"Duration":735814,"SoundDuration":735814,"Delta":1041121518},{"NoteNumber":72,"Velocity":83,"Duration":735814,"SoundDuration":735814,"Delta":1041121518},{"NoteNumber":51,"Velocity":62,"Duration":244038,"SoundDuration":244038,"Delta":1041121518},{"NoteNumber":41,"Velocity":62,"Duration":743690,"SoundDuration":743690,"Delta":1041121518},{"NoteNumber":53,"Velocity":58,"Duration":235002,"SoundDuration":235002,"Delta":1041365556},{"NoteNumber":53,"Velocity":58,"Duration":239445,"SoundDuration":239445,"Delta":1041613160},{"NoteNumber":58,"Velocity":61,"Duration":364741,"SoundDuration":364741,"Delta":1041865208},{"NoteNumber":65,"Velocity":73,"Duration":364741,"SoundDuration":364741,"Delta":1041865208},{"NoteNumber":70,"Velocity":88,"Duration":364741,"SoundDuration":364741,"Delta":1041865208},{"NoteNumber":50,"Velocity":62,"Duration":243161,"SoundDuration":243161,"Delta":1041865208},{"NoteNumber":41,"Velocity":62,"Duration":757534,"SoundDuration":757534,"Delta":1041865208},{"NoteNumber":53,"Velocity":59,"Duration":254030,"SoundDuration":254030,"Delta":1042108369},{"NoteNumber":57,"Velocity":58,"Duration":392793,"SoundDuration":392793,"Delta":1042229950},{"NoteNumber":65,"Velocity":69,"Duration":392793,"SoundDuration":392793,"Delta":1042229950},{"NoteNumber":69,"Velocity":82,"Duration":392793,"SoundDuration":392793,"Delta":1042229950},{"NoteNumber":48,"Velocity":59,"Duration":260343,"SoundDuration":260343,"Delta":1042362400},{"NoteNumber":65,"Velocity":75,"Duration":740009,"SoundDuration":740009,"Delta":1042622743},{"NoteNumber":58,"Velocity":75,"Duration":2259265,"SoundDuration":2259265,"Delta":1042622743},{"NoteNumber":70,"Velocity":90,"Duration":2259265,"SoundDuration":2259265,"Delta":1042622743},{"NoteNumber":50,"Velocity":62,"Duration":246669,"SoundDuration":246669,"Delta":1042622743},{"NoteNumber":46,"Velocity":62,"Duration":2259265,"SoundDuration":2259265,"Delta":1042622743},{"NoteNumber":53,"Velocity":56,"Duration":234336,"SoundDuration":234336,"Delta":1042869413},{"NoteNumber":53,"Velocity":56,"Duration":234336,"SoundDuration":234336,"Delta":1043116083},{"NoteNumber":63,"Velocity":73,"Duration":762996,"SoundDuration":762996,"Delta":1043362753},{"NoteNumber":67,"Velocity":88,"Duration":762996,"SoundDuration":762996,"Delta":1043362753},{"NoteNumber":51,"Velocity":60,"Duration":253292,"SoundDuration":253292,"Delta":1043362753},{"NoteNumber":55,"Velocity":56,"Duration":241126,"SoundDuration":241126,"Delta":1043616046},{"NoteNumber":55,"Velocity":56,"Duration":242997,"SoundDuration":242997,"Delta":1043869962},{"NoteNumber":62,"Velocity":70,"Duration":756259,"SoundDuration":756259,"Delta":1044125750},{"NoteNumber":65,"Velocity":83,"Duration":756259,"SoundDuration":756259,"Delta":1044125750},{"NoteNumber":50,"Velocity":60,"Duration":248385,"SoundDuration":248385,"Delta":1044125750},{"NoteNumber":53,"Velocity":56,"Duration":239296,"SoundDuration":239296,"Delta":1044374135},{"NoteNumber":53,"Velocity":57,"Duration":242997,"SoundDuration":242997,"Delta":1044626221},{"NoteNumber":62,"Velocity":64,"Duration":835913,"SoundDuration":835913,"Delta":1044882009},{"NoteNumber":65,"Velocity":75,"Duration":835913,"SoundDuration":835913,"Delta":1044882009},{"NoteNumber":74,"Velocity":89,"Duration":835913,"SoundDuration":835913,"Delta":1044882009},{"NoteNumber":50,"Velocity":59,"Duration":263157,"SoundDuration":263157,"Delta":1044882009},{"NoteNumber":44,"Velocity":59,"Duration":835913,"SoundDuration":835913,"Delta":1044882009},{"NoteNumber":53,"Velocity":54,"Duration":263931,"SoundDuration":263931,"Delta":1045145167},{"NoteNumber":53,"Velocity":54,"Duration":279411,"SoundDuration":279411,"Delta":1045423804},{"NoteNumber":62,"Velocity":64,"Duration":2161843,"SoundDuration":2161843,"Delta":1045717922},{"NoteNumber":67,"Velocity":75,"Duration":2161843,"SoundDuration":2161843,"Delta":1045717922},{"NoteNumber":74,"Velocity":89,"Duration":2161843,"SoundDuration":2161843,"Delta":1045717922},{"NoteNumber":53,"Velocity":59,"Duration":243161,"SoundDuration":243161,"Delta":1045717922},{"NoteNumber":43,"Velocity":59,"Duration":2161843,"SoundDuration":2161843,"Delta":1045717922},{"NoteNumber":55,"Velocity":53,"Duration":230223,"SoundDuration":230223,"Delta":1045961083},{"NoteNumber":55,"Velocity":53,"Duration":229357,"SoundDuration":229357,"Delta":1046203378},{"NoteNumber":53,"Velocity":56,"Duration":238123,"SoundDuration":238123,"Delta":1046444808},{"NoteNumber":55,"Velocity":53,"Duration":228311,"SoundDuration":228311,"Delta":1046682931},{"NoteNumber":55,"Velocity":53,"Duration":230638,"SoundDuration":230638,"Delta":1046923382},{"NoteNumber":53,"Velocity":57,"Duration":237868,"SoundDuration":237868,"Delta":1047166159},{"NoteNumber":55,"Velocity":51,"Duration":225975,"SoundDuration":225975,"Delta":1047404028},{"NoteNumber":55,"Velocity":51,"Duration":225975,"SoundDuration":225975,"Delta":1047641896},{"NoteNumber":60,"Velocity":59,"Duration":356802,"SoundDuration":356802,"Delta":1047879765},{"NoteNumber":67,"Velocity":71,"Duration":356802,"SoundDuration":356802,"Delta":1047879765},{"NoteNumber":72,"Velocity":84,"Duration":356802,"SoundDuration":356802,"Delta":1047879765},{"NoteNumber":51,"Velocity":56,"Duration":237868,"SoundDuration":237868,"Delta":1047879765},{"NoteNumber":43,"Velocity":56,"Duration":723506,"SoundDuration":723506,"Delta":1047879765},{"NoteNumber":55,"Velocity":51,"Duration":241168,"SoundDuration":241168,"Delta":1048117634},{"NoteNumber":59,"Velocity":56,"Duration":366703,"SoundDuration":366703,"Delta":1048236568},{"NoteNumber":67,"Velocity":67,"Duration":366703,"SoundDuration":366703,"Delta":1048236568},{"NoteNumber":71,"Velocity":79,"Duration":366703,"SoundDuration":366703,"Delta":1048236568},{"NoteNumber":50,"Velocity":51,"Duration":244468,"SoundDuration":244468,"Delta":1048358803},{"NoteNumber":63,"Velocity":67,"Duration":709605,"SoundDuration":709605,"Delta":1048603272},{"NoteNumber":67,"Velocity":79,"Duration":709605,"SoundDuration":709605,"Delta":1048603272},{"NoteNumber":75,"Velocity":94,"Duration":709605,"SoundDuration":709605,"Delta":1048603272},{"NoteNumber":48,"Velocity":54,"Duration":233290,"SoundDuration":233290,"Delta":1048603272},{"NoteNumber":43,"Velocity":54,"Duration":709605,"SoundDuration":709605,"Delta":1048603272},{"NoteNumber":55,"Velocity":50,"Duration":224546,"SoundDuration":224546,"Delta":1048836562},{"NoteNumber":55,"Velocity":50,"Duration":227790,"SoundDuration":227790,"Delta":1049073097},{"NoteNumber":62,"Velocity":65,"Duration":739474,"SoundDuration":739474,"Delta":1049312877},{"NoteNumber":67,"Velocity":76,"Duration":739474,"SoundDuration":739474,"Delta":1049312877},{"NoteNumber":74,"Velocity":91,"Duration":739474,"SoundDuration":739474,"Delta":1049312877},{"NoteNumber":53,"Velocity":54,"Duration":238123,"SoundDuration":238123,"Delta":1049312877},{"NoteNumber":43,"Velocity":54,"Duration":739474,"SoundDuration":739474,"Delta":1049312877},{"NoteNumber":55,"Velocity":50,"Duration":232774,"SoundDuration":232774,"Delta":1049551000},{"NoteNumber":55,"Velocity":50,"Duration":242997,"SoundDuration":242997,"Delta":1049796564},{"NoteNumber":60,"Velocity":63,"Duration":748422,"SoundDuration":748422,"Delta":1050052351},{"NoteNumber":67,"Velocity":74,"Duration":748422,"SoundDuration":748422,"Delta":1050052351},{"NoteNumber":72,"Velocity":88,"Duration":748422,"SoundDuration":748422,"Delta":1050052351},{"NoteNumber":51,"Velocity":55,"Duration":243161,"SoundDuration":243161,"Delta":1050052351},{"NoteNumber":43,"Velocity":55,"Duration":748422,"SoundDuration":748422,"Delta":1050052351},{"NoteNumber":55,"Velocity":50,"Duration":236684,"SoundDuration":236684,"Delta":1050295512},{"NoteNumber":55,"Velocity":50,"Duration":242997,"SoundDuration":242997,"Delta":1050544986},{"NoteNumber":60,"Velocity":60,"Duration":806276,"SoundDuration":806276,"Delta":1050800773},{"NoteNumber":69,"Velocity":72,"Duration":806276,"SoundDuration":806276,"Delta":1050800773},{"NoteNumber":72,"Velocity":86,"Duration":806276,"SoundDuration":806276,"Delta":1050800773},{"NoteNumber":51,"Velocity":57,"Duration":259740,"SoundDuration":259740,"Delta":1050800773},{"NoteNumber":42,"Velocity":57,"Duration":806276,"SoundDuration":806276,"Delta":1050800773},{"NoteNumber":54,"Velocity":52,"Duration":254870,"SoundDuration":254870,"Delta":1051060514},{"NoteNumber":54,"Velocity":52,"Duration":263888,"SoundDuration":263888,"Delta":1051329273},{"NoteNumber":65,"Velocity":76,"Duration":2155627,"SoundDuration":2155627,"Delta":1051607050},{"NoteNumber":60,"Velocity":65,"Duration":2155627,"SoundDuration":2155627,"Delta":1051607050},{"NoteNumber":69,"Velocity":78,"Duration":2155627,"SoundDuration":2155627,"Delta":1051607050},{"NoteNumber":72,"Velocity":89,"Duration":2155627,"SoundDuration":2155627,"Delta":1051607050},{"NoteNumber":51,"Velocity":58,"Duration":243161,"SoundDuration":243161,"Delta":1051607050},{"NoteNumber":41,"Velocity":58,"Duration":2155627,"SoundDuration":2155627,"Delta":1051607050},{"NoteNumber":53,"Velocity":52,"Duration":230223,"SoundDuration":230223,"Delta":1051850211},{"NoteNumber":53,"Velocity":52,"Duration":229357,"SoundDuration":229357,"Delta":1052092507},{"NoteNumber":51,"Velocity":56,"Duration":238123,"SoundDuration":238123,"Delta":1052333936},{"NoteNumber":53,"Velocity":52,"Duration":226217,"SoundDuration":226217,"Delta":1052572060},{"NoteNumber":53,"Velocity":53,"Duration":226217,"SoundDuration":226217,"Delta":1052810183},{"NoteNumber":51,"Velocity":57,"Duration":238123,"SoundDuration":238123,"Delta":1053048307},{"NoteNumber":53,"Velocity":52,"Duration":226217,"SoundDuration":226217,"Delta":1053286431},{"NoteNumber":53,"Velocity":52,"Duration":226217,"SoundDuration":226217,"Delta":1053524554},{"NoteNumber":58,"Velocity":63,"Duration":357185,"SoundDuration":357185,"Delta":1053762678},{"NoteNumber":65,"Velocity":74,"Duration":357185,"SoundDuration":357185,"Delta":1053762678},{"NoteNumber":70,"Velocity":88,"Duration":357185,"SoundDuration":357185,"Delta":1053762678},{"NoteNumber":50,"Velocity":57,"Duration":238123,"SoundDuration":238123,"Delta":1053762678},{"NoteNumber":41,"Velocity":57,"Duration":727190,"SoundDuration":727190,"Delta":1053762678},{"NoteNumber":53,"Velocity":54,"Duration":242396,"SoundDuration":242396,"Delta":1054000802},{"NoteNumber":57,"Velocity":57,"Duration":370004,"SoundDuration":370004,"Delta":1054119863},{"NoteNumber":65,"Velocity":68,"Duration":370004,"SoundDuration":370004,"Delta":1054119863},{"NoteNumber":69,"Velocity":80,"Duration":370004,"SoundDuration":370004,"Delta":1054119863},{"NoteNumber":48,"Velocity":51,"Duration":246669,"SoundDuration":246669,"Delta":1054243198},{"NoteNumber":62,"Velocity":65,"Duration":724740,"SoundDuration":724740,"Delta":1054489868},{"NoteNumber":65,"Velocity":77,"Duration":724740,"SoundDuration":724740,"Delta":1054489868},{"NoteNumber":74,"Velocity":92,"Duration":724740,"SoundDuration":724740,"Delta":1054489868},{"NoteNumber":46,"Velocity":58,"Duration":236490,"SoundDuration":236490,"Delta":1054489868},{"NoteNumber":41,"Velocity":58,"Duration":724740,"SoundDuration":724740,"Delta":1054489868},{"NoteNumber":53,"Velocity":53,"Duration":229246,"SoundDuration":229246,"Delta":1054726359},{"NoteNumber":53,"Velocity":53,"Duration":234336,"SoundDuration":234336,"Delta":1054967939},{"NoteNumber":57,"Velocity":61,"Duration":739474,"SoundDuration":739474,"Delta":1055214609},{"NoteNumber":65,"Velocity":73,"Duration":739474,"SoundDuration":739474,"Delta":1055214609},{"NoteNumber":69,"Velocity":87,"Duration":739474,"SoundDuration":739474,"Delta":1055214609},{"NoteNumber":48,"Velocity":58,"Duration":238123,"SoundDuration":238123,"Delta":1055214609},{"NoteNumber":41,"Velocity":58,"Duration":739474,"SoundDuration":739474,"Delta":1055214609},{"NoteNumber":53,"Velocity":52,"Duration":232774,"SoundDuration":232774,"Delta":1055452733},{"NoteNumber":53,"Velocity":52,"Duration":242997,"SoundDuration":242997,"Delta":1055698296},{"NoteNumber":58,"Velocity":65,"Duration":748422,"SoundDuration":748422,"Delta":1055954083},{"NoteNumber":65,"Velocity":77,"Duration":748422,"SoundDuration":748422,"Delta":1055954083},{"NoteNumber":70,"Velocity":92,"Duration":748422,"SoundDuration":748422,"Delta":1055954083},{"NoteNumber":50,"Velocity":56,"Duration":243161,"SoundDuration":243161,"Delta":1055954083},{"NoteNumber":41,"Velocity":56,"Duration":748422,"SoundDuration":748422,"Delta":1055954083},{"NoteNumber":53,"Velocity":52,"Duration":236684,"SoundDuration":236684,"Delta":1056197244},{"NoteNumber":53,"Velocity":52,"Duration":242997,"SoundDuration":242997,"Delta":1056446719},{"NoteNumber":65,"Velocity":70,"Duration":775991,"SoundDuration":775991,"Delta":1056702506},{"NoteNumber":60,"Velocity":59,"Duration":775991,"SoundDuration":775991,"Delta":1056702506},{"NoteNumber":69,"Velocity":70,"Duration":775991,"SoundDuration":775991,"Delta":1056702506},{"NoteNumber":72,"Velocity":82,"Duration":775991,"SoundDuration":775991,"Delta":1056702506},{"NoteNumber":51,"Velocity":56,"Duration":255787,"SoundDuration":255787,"Delta":1056702506},{"NoteNumber":41,"Velocity":56,"Duration":775991,"SoundDuration":775991,"Delta":1056702506},{"NoteNumber":53,"Velocity":52,"Duration":245586,"SoundDuration":245586,"Delta":1056958293},{"NoteNumber":53,"Velocity":52,"Duration":248463,"SoundDuration":248463,"Delta":1057216957},{"NoteNumber":65,"Velocity":75,"Duration":4441901,"SoundDuration":4441901,"Delta":1057478497},{"NoteNumber":60,"Velocity":64,"Duration":2950605,"SoundDuration":2950605,"Delta":1057478497},{"NoteNumber":69,"Velocity":75,"Duration":2950605,"SoundDuration":2950605,"Delta":1057478497},{"NoteNumber":72,"Velocity":89,"Duration":2950605,"SoundDuration":2950605,"Delta":1057478497},{"NoteNumber":41,"Velocity":51,"Duration":1483791,"SoundDuration":1483791,"Delta":1057478497},{"NoteNumber":51,"Velocity":51,"Duration":1483791,"SoundDuration":1483791,"Delta":1057478497},{"NoteNumber":53,"Velocity":50,"Duration":237904,"SoundDuration":237904,"Delta":1057734285},{"NoteNumber":53,"Velocity":50,"Duration":232245,"SoundDuration":232245,"Delta":1057984413},{"NoteNumber":53,"Velocity":50,"Duration":232245,"SoundDuration":232245,"Delta":1058228882},{"NoteNumber":53,"Velocity":50,"Duration":232245,"SoundDuration":232245,"Delta":1058473351},{"NoteNumber":53,"Velocity":49,"Duration":232245,"SoundDuration":232245,"Delta":1058717820},{"NoteNumber":53,"Velocity":49,"Duration":232245,"SoundDuration":232245,"Delta":1058962289},{"NoteNumber":53,"Velocity":49,"Duration":232245,"SoundDuration":232245,"Delta":1059206758},{"NoteNumber":53,"Velocity":49,"Duration":232245,"SoundDuration":232245,"Delta":1059451227},{"NoteNumber":53,"Velocity":48,"Duration":232245,"SoundDuration":232245,"Delta":1059695696},{"NoteNumber":53,"Velocity":48,"Duration":232245,"SoundDuration":232245,"Delta":1059940165},{"NoteNumber":53,"Velocity":48,"Duration":232245,"SoundDuration":232245,"Delta":1060184634},{"NoteNumber":59,"Velocity":61,"Duration":2224702,"SoundDuration":2224702,"Delta":1060429103},{"NoteNumber":68,"Velocity":61,"Duration":2224702,"SoundDuration":2224702,"Delta":1060429103},{"NoteNumber":71,"Velocity":73,"Duration":2224702,"SoundDuration":2224702,"Delta":1060429103},{"NoteNumber":41,"Velocity":45,"Duration":2995712,"SoundDuration":2995712,"Delta":1060429103},{"NoteNumber":50,"Velocity":48,"Duration":2995712,"SoundDuration":2995712,"Delta":1060429103},{"NoteNumber":53,"Velocity":42,"Duration":240406,"SoundDuration":240406,"Delta":1060689893},{"NoteNumber":53,"Velocity":39,"Duration":232245,"SoundDuration":232245,"Delta":1060942523},{"NoteNumber":53,"Velocity":38,"Duration":232245,"SoundDuration":232245,"Delta":1061186992},{"NoteNumber":53,"Velocity":38,"Duration":232245,"SoundDuration":232245,"Delta":1061431461},{"NoteNumber":53,"Velocity":37,"Duration":232245,"SoundDuration":232245,"Delta":1061675930},{"NoteNumber":53,"Velocity":37,"Duration":232245,"SoundDuration":232245,"Delta":1061920399},{"NoteNumber":53,"Velocity":36,"Duration":232245,"SoundDuration":232245,"Delta":1062164868},{"NoteNumber":53,"Velocity":35,"Duration":232245,"SoundDuration":232245,"Delta":1062409337},{"NoteNumber":62,"Velocity":55,"Duration":771009,"SoundDuration":771009,"Delta":1062653806},{"NoteNumber":65,"Velocity":55,"Duration":771009,"SoundDuration":771009,"Delta":1062653806},{"NoteNumber":68,"Velocity":55,"Duration":771009,"SoundDuration":771009,"Delta":1062653806},{"NoteNumber":71,"Velocity":66,"Duration":771009,"SoundDuration":771009,"Delta":1062653806},{"NoteNumber":53,"Velocity":36,"Duration":244153,"SoundDuration":244153,"Delta":1062653806},{"NoteNumber":53,"Velocity":40,"Duration":244153,"SoundDuration":244153,"Delta":1062910809},{"NoteNumber":53,"Velocity":44,"Duration":244153,"SoundDuration":244153,"Delta":1063167813},{"NoteNumber":62,"Velocity":55,"Duration":2244291,"SoundDuration":2244291,"Delta":1063424816},{"NoteNumber":65,"Velocity":55,"Duration":2244291,"SoundDuration":2244291,"Delta":1063424816},{"NoteNumber":68,"Velocity":55,"Duration":2244291,"SoundDuration":2244291,"Delta":1063424816},{"NoteNumber":71,"Velocity":66,"Duration":2244291,"SoundDuration":2244291,"Delta":1063424816},{"NoteNumber":53,"Velocity":50,"Duration":257003,"SoundDuration":257003,"Delta":1063424816},{"NoteNumber":44,"Velocity":42,"Duration":240081,"SoundDuration":240081,"Delta":1063681819},{"NoteNumber":44,"Velocity":42,"Duration":235556,"SoundDuration":235556,"Delta":1063934298},{"NoteNumber":44,"Velocity":42,"Duration":235556,"SoundDuration":235556,"Delta":1064182252},{"NoteNumber":44,"Velocity":42,"Duration":235556,"SoundDuration":235556,"Delta":1064430207},{"NoteNumber":44,"Velocity":42,"Duration":235556,"SoundDuration":235556,"Delta":1064678161},{"NoteNumber":44,"Velocity":42,"Duration":235556,"SoundDuration":235556,"Delta":1064926115},{"NoteNumber":44,"Velocity":42,"Duration":235556,"SoundDuration":235556,"Delta":1065174070},{"NoteNumber":44,"Velocity":42,"Duration":234859,"SoundDuration":234859,"Delta":1065422024},{"NoteNumber":65,"Velocity":66,"Duration":779920,"SoundDuration":779920,"Delta":1065669107},{"NoteNumber":71,"Velocity":66,"Duration":779920,"SoundDuration":779920,"Delta":1065669107},{"NoteNumber":74,"Velocity":78,"Duration":779920,"SoundDuration":779920,"Delta":1065669107},{"NoteNumber":44,"Velocity":44,"Duration":241558,"SoundDuration":241558,"Delta":1065669107},{"NoteNumber":44,"Velocity":44,"Duration":246673,"SoundDuration":246673,"Delta":1065923486},{"NoteNumber":44,"Velocity":44,"Duration":252372,"SoundDuration":252372,"Delta":1066183232},{"NoteNumber":66,"Velocity":72,"Duration":1890410,"SoundDuration":1890410,"Delta":1066449027},{"NoteNumber":71,"Velocity":72,"Duration":1518478,"SoundDuration":1518478,"Delta":1066449027},{"NoteNumber":74,"Velocity":86,"Duration":1518478,"SoundDuration":1518478,"Delta":1066449027},{"NoteNumber":44,"Velocity":49,"Duration":268456,"SoundDuration":268456,"Delta":1066449027},{"NoteNumber":42,"Velocity":49,"Duration":245807,"SoundDuration":245807,"Delta":1066717484},{"NoteNumber":42,"Velocity":49,"Duration":235556,"SoundDuration":235556,"Delta":1066975689},{"NoteNumber":42,"Velocity":55,"Duration":235556,"SoundDuration":235556,"Delta":1067223643},{"NoteNumber":42,"Velocity":55,"Duration":235556,"SoundDuration":235556,"Delta":1067471598},{"NoteNumber":42,"Velocity":56,"Duration":235556,"SoundDuration":235556,"Delta":1067719552},{"NoteNumber":70,"Velocity":73,"Duration":371931,"SoundDuration":371931,"Delta":1067967506},{"NoteNumber":73,"Velocity":86,"Duration":371931,"SoundDuration":371931,"Delta":1067967506},{"NoteNumber":42,"Velocity":63,"Duration":371931,"SoundDuration":371931,"Delta":1067967506},{"NoteNumber":73,"Velocity":80,"Duration":400899,"SoundDuration":400899,"Delta":1068711369},{"NoteNumber":76,"Velocity":80,"Duration":400899,"SoundDuration":400899,"Delta":1068711369},{"NoteNumber":78,"Velocity":80,"Duration":400899,"SoundDuration":400899,"Delta":1068711369},{"NoteNumber":82,"Velocity":96,"Duration":400899,"SoundDuration":400899,"Delta":1068711369},{"NoteNumber":42,"Velocity":65,"Duration":611794,"SoundDuration":611794,"Delta":1068711369},{"NoteNumber":39,"Velocity":59,"Duration":71996,"SoundDuration":71996,"Delta":1069323164},{"NoteNumber":38,"Velocity":61,"Duration":87244,"SoundDuration":87244,"Delta":1069395160},{"NoteNumber":37,"Velocity":59,"Duration":87244,"SoundDuration":87244,"Delta":1069482405},{"NoteNumber":78,"Velocity":77,"Duration":266470,"SoundDuration":266470,"Delta":1069569650},{"NoteNumber":74,"Velocity":77,"Duration":266470,"SoundDuration":266470,"Delta":1069569650},{"NoteNumber":83,"Velocity":92,"Duration":266470,"SoundDuration":266470,"Delta":1069569650},{"NoteNumber":35,"Velocity":65,"Duration":217391,"SoundDuration":217391,"Delta":1069569650},{"NoteNumber":74,"Velocity":28,"Duration":233128,"SoundDuration":233128,"Delta":1069848391},{"NoteNumber":78,"Velocity":34,"Duration":233128,"SoundDuration":233128,"Delta":1069848391},{"NoteNumber":74,"Velocity":30,"Duration":233128,"SoundDuration":233128,"Delta":1070093790},{"NoteNumber":78,"Velocity":36,"Duration":233128,"SoundDuration":233128,"Delta":1070093790},{"NoteNumber":74,"Velocity":32,"Duration":233128,"SoundDuration":233128,"Delta":1070339188},{"NoteNumber":78,"Velocity":38,"Duration":233128,"SoundDuration":233128,"Delta":1070339188},{"NoteNumber":74,"Velocity":29,"Duration":233128,"SoundDuration":233128,"Delta":1070584587},{"NoteNumber":78,"Velocity":35,"Duration":233128,"SoundDuration":233128,"Delta":1070584587},{"NoteNumber":74,"Velocity":29,"Duration":233128,"SoundDuration":233128,"Delta":1070829986},{"NoteNumber":78,"Velocity":35,"Duration":233128,"SoundDuration":233128,"Delta":1070829986},{"NoteNumber":74,"Velocity":32,"Duration":233128,"SoundDuration":233128,"Delta":1071075384},{"NoteNumber":78,"Velocity":38,"Duration":233128,"SoundDuration":233128,"Delta":1071075384},{"NoteNumber":74,"Velocity":29,"Duration":233128,"SoundDuration":233128,"Delta":1071320783},{"NoteNumber":78,"Velocity":35,"Duration":233128,"SoundDuration":233128,"Delta":1071320783},{"NoteNumber":74,"Velocity":29,"Duration":245398,"SoundDuration":245398,"Delta":1071566182},{"NoteNumber":78,"Velocity":35,"Duration":245398,"SoundDuration":245398,"Delta":1071566182},{"NoteNumber":83,"Velocity":54,"Duration":736196,"SoundDuration":736196,"Delta":1071811580},{"NoteNumber":59,"Velocity":42,"Duration":736196,"SoundDuration":736196,"Delta":1071811580},{"NoteNumber":66,"Velocity":42,"Duration":736196,"SoundDuration":736196,"Delta":1071811580},{"NoteNumber":74,"Velocity":27,"Duration":233128,"SoundDuration":233128,"Delta":1072056979},{"NoteNumber":78,"Velocity":32,"Duration":233128,"SoundDuration":233128,"Delta":1072056979},{"NoteNumber":74,"Velocity":27,"Duration":233128,"SoundDuration":233128,"Delta":1072302378},{"NoteNumber":78,"Velocity":32,"Duration":233128,"SoundDuration":233128,"Delta":1072302378},{"NoteNumber":83,"Velocity":53,"Duration":723326,"SoundDuration":723326,"Delta":1072547776},{"NoteNumber":59,"Velocity":42,"Duration":1822357,"SoundDuration":1822357,"Delta":1072547776},{"NoteNumber":66,"Velocity":42,"Duration":1084990,"SoundDuration":1084990,"Delta":1072547776},{"NoteNumber":74,"Velocity":27,"Duration":229053,"SoundDuration":229053,"Delta":1072788885},{"NoteNumber":78,"Velocity":32,"Duration":229053,"SoundDuration":229053,"Delta":1072788885},{"NoteNumber":74,"Velocity":27,"Duration":229053,"SoundDuration":229053,"Delta":1073029994},{"NoteNumber":78,"Velocity":32,"Duration":229053,"SoundDuration":229053,"Delta":1073029994},{"NoteNumber":86,"Velocity":53,"Duration":729708,"SoundDuration":729708,"Delta":1073271103},{"NoteNumber":74,"Velocity":26,"Duration":230074,"SoundDuration":230074,"Delta":1073512212},{"NoteNumber":78,"Velocity":31,"Duration":230074,"SoundDuration":230074,"Delta":1073512212},{"NoteNumber":64,"Velocity":38,"Duration":368045,"SoundDuration":368045,"Delta":1073632767},{"NoteNumber":74,"Velocity":26,"Duration":233903,"SoundDuration":233903,"Delta":1073754598},{"NoteNumber":78,"Velocity":31,"Duration":233903,"SoundDuration":233903,"Delta":1073754598},{"NoteNumber":83,"Velocity":53,"Duration":738642,"SoundDuration":738642,"Delta":1074000812},{"NoteNumber":62,"Velocity":41,"Duration":369321,"SoundDuration":369321,"Delta":1074000812},{"NoteNumber":74,"Velocity":27,"Duration":233903,"SoundDuration":233903,"Delta":1074247026},{"NoteNumber":78,"Velocity":32,"Duration":233903,"SoundDuration":233903,"Delta":1074247026},{"NoteNumber":74,"Velocity":27,"Duration":233903,"SoundDuration":233903,"Delta":1074493241},{"NoteNumber":78,"Velocity":32,"Duration":233903,"SoundDuration":233903,"Delta":1074493241},{"NoteNumber":86,"Velocity":53,"Duration":728331,"SoundDuration":728331,"Delta":1074739455},{"NoteNumber":59,"Velocity":38,"Duration":728331,"SoundDuration":728331,"Delta":1074739455},{"NoteNumber":62,"Velocity":38,"Duration":728331,"SoundDuration":728331,"Delta":1074739455},{"NoteNumber":74,"Velocity":26,"Duration":230638,"SoundDuration":230638,"Delta":1074982232},{"NoteNumber":78,"Velocity":31,"Duration":230638,"SoundDuration":230638,"Delta":1074982232},{"NoteNumber":74,"Velocity":26,"Duration":230638,"SoundDuration":230638,"Delta":1075225010},{"NoteNumber":78,"Velocity":31,"Duration":230638,"SoundDuration":230638,"Delta":1075225010},{"NoteNumber":86,"Velocity":56,"Duration":728332,"SoundDuration":728332,"Delta":1075467787},{"NoteNumber":59,"Velocity":41,"Duration":1461819,"SoundDuration":1461819,"Delta":1075467787},{"NoteNumber":62,"Velocity":41,"Duration":1092497,"SoundDuration":1092497,"Delta":1075467787},{"NoteNumber":78,"Velocity":27,"Duration":242777,"SoundDuration":242777,"Delta":1075710564},{"NoteNumber":83,"Velocity":32,"Duration":242777,"SoundDuration":242777,"Delta":1075710564},{"NoteNumber":78,"Velocity":27,"Duration":230638,"SoundDuration":230638,"Delta":1075953342},{"NoteNumber":83,"Velocity":32,"Duration":230638,"SoundDuration":230638,"Delta":1075953342},{"NoteNumber":90,"Velocity":55,"Duration":733487,"SoundDuration":733487,"Delta":1076196119},{"NoteNumber":78,"Velocity":27,"Duration":232185,"SoundDuration":232185,"Delta":1076438896},{"NoteNumber":83,"Velocity":32,"Duration":232185,"SoundDuration":232185,"Delta":1076438896},{"NoteNumber":61,"Velocity":41,"Duration":369321,"SoundDuration":369321,"Delta":1076560285},{"NoteNumber":78,"Velocity":27,"Duration":233903,"SoundDuration":233903,"Delta":1076683392},{"NoteNumber":83,"Velocity":32,"Duration":233903,"SoundDuration":233903,"Delta":1076683392},{"NoteNumber":86,"Velocity":55,"Duration":738642,"SoundDuration":738642,"Delta":1076929607},{"NoteNumber":59,"Velocity":44,"Duration":369321,"SoundDuration":369321,"Delta":1076929607},{"NoteNumber":78,"Velocity":27,"Duration":233903,"SoundDuration":233903,"Delta":1077175821},{"NoteNumber":83,"Velocity":32,"Duration":233903,"SoundDuration":233903,"Delta":1077175821},{"NoteNumber":78,"Velocity":27,"Duration":233903,"SoundDuration":233903,"Delta":1077422035},{"NoteNumber":83,"Velocity":32,"Duration":233903,"SoundDuration":233903,"Delta":1077422035},{"NoteNumber":90,"Velocity":56,"Duration":738642,"SoundDuration":738642,"Delta":1077668250},{"NoteNumber":59,"Velocity":34,"Duration":738642,"SoundDuration":738642,"Delta":1077668250},{"NoteNumber":78,"Velocity":27,"Duration":233903,"SoundDuration":233903,"Delta":1077914464},{"NoteNumber":83,"Velocity":32,"Duration":233903,"SoundDuration":233903,"Delta":1077914464},{"NoteNumber":78,"Velocity":27,"Duration":233903,"SoundDuration":233903,"Delta":1078160678},{"NoteNumber":83,"Velocity":32,"Duration":233903,"SoundDuration":233903,"Delta":1078160678},{"NoteNumber":78,"Velocity":56,"Duration":698397,"SoundDuration":698397,"Delta":1078406893},{"NoteNumber":59,"Velocity":41,"Duration":698397,"SoundDuration":698397,"Delta":1078406893},{"NoteNumber":71,"Velocity":27,"Duration":221270,"SoundDuration":221270,"Delta":1078641843},{"NoteNumber":74,"Velocity":32,"Duration":221270,"SoundDuration":221270,"Delta":1078641843},{"NoteNumber":71,"Velocity":27,"Duration":219055,"SoundDuration":219055,"Delta":1078874741},{"NoteNumber":74,"Velocity":32,"Duration":219055,"SoundDuration":219055,"Delta":1078874741},{"NoteNumber":82,"Velocity":56,"Duration":700000,"SoundDuration":700000,"Delta":1079105290},{"NoteNumber":61,"Velocity":42,"Duration":700000,"SoundDuration":700000,"Delta":1079105290},{"NoteNumber":78,"Velocity":33,"Duration":221428,"SoundDuration":221428,"Delta":1079333861},{"NoteNumber":70,"Velocity":27,"Duration":221428,"SoundDuration":221428,"Delta":1079333861},{"NoteNumber":76,"Velocity":33,"Duration":221428,"SoundDuration":221428,"Delta":1079333861},{"NoteNumber":78,"Velocity":34,"Duration":238095,"SoundDuration":238095,"Delta":1079567195},{"NoteNumber":70,"Velocity":27,"Duration":238095,"SoundDuration":238095,"Delta":1079567195},{"NoteNumber":76,"Velocity":34,"Duration":238095,"SoundDuration":238095,"Delta":1079567195},{"NoteNumber":83,"Velocity":58,"Duration":685713,"SoundDuration":685713,"Delta":1079805290},{"NoteNumber":62,"Velocity":47,"Duration":685713,"SoundDuration":685713,"Delta":1079805290},{"NoteNumber":78,"Velocity":34,"Duration":217142,"SoundDuration":217142,"Delta":1080033861},{"NoteNumber":71,"Velocity":28,"Duration":217142,"SoundDuration":217142,"Delta":1080033861},{"NoteNumber":74,"Velocity":34,"Duration":217142,"SoundDuration":217142,"Delta":1080033861},{"NoteNumber":78,"Velocity":35,"Duration":228571,"SoundDuration":228571,"Delta":1080262433},{"NoteNumber":71,"Velocity":29,"Duration":228571,"SoundDuration":228571,"Delta":1080262433},{"NoteNumber":74,"Velocity":35,"Duration":228571,"SoundDuration":228571,"Delta":1080262433},{"NoteNumber":85,"Velocity":62,"Duration":710059,"SoundDuration":710059,"Delta":1080491004},{"NoteNumber":57,"Velocity":31,"Duration":710059,"SoundDuration":710059,"Delta":1080491004},{"NoteNumber":64,"Velocity":37,"Duration":710059,"SoundDuration":710059,"Delta":1080491004},{"NoteNumber":81,"Velocity":36,"Duration":224852,"SoundDuration":224852,"Delta":1080727690},{"NoteNumber":73,"Velocity":29,"Duration":224852,"SoundDuration":224852,"Delta":1080727690},{"NoteNumber":79,"Velocity":36,"Duration":224852,"SoundDuration":224852,"Delta":1080727690},{"NoteNumber":81,"Velocity":36,"Duration":224852,"SoundDuration":224852,"Delta":1080964377},{"NoteNumber":73,"Velocity":29,"Duration":224852,"SoundDuration":224852,"Delta":1080964377},{"NoteNumber":79,"Velocity":36,"Duration":224852,"SoundDuration":224852,"Delta":1080964377},{"NoteNumber":86,"Velocity":61,"Duration":705881,"SoundDuration":705881,"Delta":1081201063},{"NoteNumber":62,"Velocity":39,"Duration":705881,"SoundDuration":705881,"Delta":1081201063},{"NoteNumber":66,"Velocity":47,"Duration":705881,"SoundDuration":705881,"Delta":1081201063},{"NoteNumber":74,"Velocity":30,"Duration":223529,"SoundDuration":223529,"Delta":1081436357},{"NoteNumber":78,"Velocity":30,"Duration":223529,"SoundDuration":223529,"Delta":1081436357},{"NoteNumber":81,"Velocity":36,"Duration":223529,"SoundDuration":223529,"Delta":1081436357},{"NoteNumber":74,"Velocity":29,"Duration":223529,"SoundDuration":223529,"Delta":1081671651},{"NoteNumber":78,"Velocity":29,"Duration":223529,"SoundDuration":223529,"Delta":1081671651},{"NoteNumber":81,"Velocity":36,"Duration":223529,"SoundDuration":223529,"Delta":1081671651},{"NoteNumber":88,"Velocity":60,"Duration":722262,"SoundDuration":722262,"Delta":1081906945},{"NoteNumber":61,"Velocity":38,"Duration":722262,"SoundDuration":722262,"Delta":1081906945},{"NoteNumber":66,"Velocity":45,"Duration":722262,"SoundDuration":722262,"Delta":1081906945},{"NoteNumber":82,"Velocity":35,"Duration":228443,"SoundDuration":228443,"Delta":1082142239},{"NoteNumber":76,"Velocity":28,"Duration":228443,"SoundDuration":228443,"Delta":1082142239},{"NoteNumber":78,"Velocity":35,"Duration":228443,"SoundDuration":228443,"Delta":1082142239},{"NoteNumber":82,"Velocity":34,"Duration":233903,"SoundDuration":233903,"Delta":1082382993},{"NoteNumber":76,"Velocity":28,"Duration":233903,"SoundDuration":233903,"Delta":1082382993},{"NoteNumber":78,"Velocity":34,"Duration":233903,"SoundDuration":233903,"Delta":1082382993},{"NoteNumber":86,"Velocity":57,"Duration":738642,"SoundDuration":738642,"Delta":1082629208},{"NoteNumber":59,"Velocity":38,"Duration":738642,"SoundDuration":738642,"Delta":1082629208},{"NoteNumber":66,"Velocity":46,"Duration":738642,"SoundDuration":738642,"Delta":1082629208},{"NoteNumber":74,"Velocity":27,"Duration":233903,"SoundDuration":233903,"Delta":1082875422},{"NoteNumber":83,"Velocity":33,"Duration":233903,"SoundDuration":233903,"Delta":1082875422},{"NoteNumber":78,"Velocity":33,"Duration":233903,"SoundDuration":233903,"Delta":1082875422},{"NoteNumber":74,"Velocity":27,"Duration":233903,"SoundDuration":233903,"Delta":1083121636},{"NoteNumber":83,"Velocity":32,"Duration":233903,"SoundDuration":233903,"Delta":1083121636},{"NoteNumber":78,"Velocity":32,"Duration":233903,"SoundDuration":233903,"Delta":1083121636},{"NoteNumber":85,"Velocity":56,"Duration":738642,"SoundDuration":738642,"Delta":1083367851},{"NoteNumber":57,"Velocity":33,"Duration":738642,"SoundDuration":738642,"Delta":1083367851},{"NoteNumber":67,"Velocity":39,"Duration":738642,"SoundDuration":738642,"Delta":1083367851},{"NoteNumber":81,"Velocity":32,"Duration":233903,"SoundDuration":233903,"Delta":1083614065},{"NoteNumber":73,"Velocity":27,"Duration":233903,"SoundDuration":233903,"Delta":1083614065},{"NoteNumber":76,"Velocity":32,"Duration":233903,"SoundDuration":233903,"Delta":1083614065},{"NoteNumber":81,"Velocity":32,"Duration":233903,"SoundDuration":233903,"Delta":1083860279},{"NoteNumber":73,"Velocity":27,"Duration":233903,"SoundDuration":233903,"Delta":1083860279},{"NoteNumber":76,"Velocity":32,"Duration":233903,"SoundDuration":233903,"Delta":1083860279},{"NoteNumber":85,"Velocity":54,"Duration":1477286,"SoundDuration":1477286,"Delta":1084106494},{"NoteNumber":57,"Velocity":33,"Duration":1477286,"SoundDuration":1477286,"Delta":1084106494},{"NoteNumber":67,"Velocity":39,"Duration":1477286,"SoundDuration":1477286,"Delta":1084106494},{"NoteNumber":73,"Velocity":26,"Duration":233903,"SoundDuration":233903,"Delta":1084352708},{"NoteNumber":76,"Velocity":26,"Duration":233903,"SoundDuration":233903,"Delta":1084352708},{"NoteNumber":81,"Velocity":31,"Duration":233903,"SoundDuration":233903,"Delta":1084352708},{"NoteNumber":73,"Velocity":26,"Duration":233903,"SoundDuration":233903,"Delta":1084598922},{"NoteNumber":76,"Velocity":26,"Duration":233903,"SoundDuration":233903,"Delta":1084598922},{"NoteNumber":81,"Velocity":31,"Duration":233903,"SoundDuration":233903,"Delta":1084598922},{"NoteNumber":73,"Velocity":26,"Duration":233903,"SoundDuration":233903,"Delta":1084845137},{"NoteNumber":76,"Velocity":26,"Duration":233903,"SoundDuration":233903,"Delta":1084845137},{"NoteNumber":81,"Velocity":31,"Duration":233903,"SoundDuration":233903,"Delta":1084845137},{"NoteNumber":73,"Velocity":26,"Duration":233903,"SoundDuration":233903,"Delta":1085091351},{"NoteNumber":76,"Velocity":26,"Duration":233903,"SoundDuration":233903,"Delta":1085091351},{"NoteNumber":81,"Velocity":31,"Duration":233903,"SoundDuration":233903,"Delta":1085091351},{"NoteNumber":73,"Velocity":27,"Duration":246214,"SoundDuration":246214,"Delta":1085337565},{"NoteNumber":76,"Velocity":27,"Duration":246214,"SoundDuration":246214,"Delta":1085337565},{"NoteNumber":81,"Velocity":32,"Duration":246214,"SoundDuration":246214,"Delta":1085337565},{"NoteNumber":85,"Velocity":55,"Duration":738643,"SoundDuration":738643,"Delta":1085583780},{"NoteNumber":58,"Velocity":30,"Duration":738643,"SoundDuration":738643,"Delta":1085583780},{"NoteNumber":66,"Velocity":37,"Duration":738643,"SoundDuration":738643,"Delta":1085583780},{"NoteNumber":73,"Velocity":25,"Duration":233903,"SoundDuration":233903,"Delta":1085829994},{"NoteNumber":76,"Velocity":25,"Duration":233903,"SoundDuration":233903,"Delta":1085829994},{"NoteNumber":78,"Velocity":29,"Duration":233903,"SoundDuration":233903,"Delta":1085829994},{"NoteNumber":73,"Velocity":25,"Duration":233903,"SoundDuration":233903,"Delta":1086076208},{"NoteNumber":76,"Velocity":25,"Duration":233903,"SoundDuration":233903,"Delta":1086076208},{"NoteNumber":78,"Velocity":30,"Duration":233903,"SoundDuration":233903,"Delta":1086076208},{"NoteNumber":86,"Velocity":54,"Duration":738642,"SoundDuration":738642,"Delta":1086322423},{"NoteNumber":59,"Velocity":30,"Duration":738642,"SoundDuration":738642,"Delta":1086322423},{"NoteNumber":66,"Velocity":36,"Duration":738642,"SoundDuration":738642,"Delta":1086322423},{"NoteNumber":74,"Velocity":25,"Duration":233903,"SoundDuration":233903,"Delta":1086568637},{"NoteNumber":78,"Velocity":29,"Duration":233903,"SoundDuration":233903,"Delta":1086568637},{"NoteNumber":74,"Velocity":25,"Duration":233903,"SoundDuration":233903,"Delta":1086814851},{"NoteNumber":78,"Velocity":29,"Duration":233903,"SoundDuration":233903,"Delta":1086814851},{"NoteNumber":83,"Velocity":53,"Duration":723326,"SoundDuration":723326,"Delta":1087061066},{"NoteNumber":59,"Velocity":32,"Duration":1822357,"SoundDuration":1822357,"Delta":1087061066},{"NoteNumber":66,"Velocity":42,"Duration":1084990,"SoundDuration":1084990,"Delta":1087061066},{"NoteNumber":74,"Velocity":27,"Duration":229053,"SoundDuration":229053,"Delta":1087302175},{"NoteNumber":78,"Velocity":32,"Duration":229053,"SoundDuration":229053,"Delta":1087302175},{"NoteNumber":74,"Velocity":27,"Duration":229053,"SoundDuration":229053,"Delta":1087543284},{"NoteNumber":78,"Velocity":32,"Duration":229053,"SoundDuration":229053,"Delta":1087543284},{"NoteNumber":86,"Velocity":53,"Duration":729708,"SoundDuration":729708,"Delta":1087784393},{"NoteNumber":74,"Velocity":26,"Duration":230074,"SoundDuration":230074,"Delta":1088025502},{"NoteNumber":78,"Velocity":31,"Duration":230074,"SoundDuration":230074,"Delta":1088025502},{"NoteNumber":64,"Velocity":38,"Duration":368045,"SoundDuration":368045,"Delta":1088146056},{"NoteNumber":74,"Velocity":26,"Duration":233903,"SoundDuration":233903,"Delta":1088267887},{"NoteNumber":78,"Velocity":31,"Duration":233903,"SoundDuration":233903,"Delta":1088267887},{"NoteNumber":83,"Velocity":53,"Duration":738642,"SoundDuration":738642,"Delta":1088514101},{"NoteNumber":62,"Velocity":41,"Duration":369321,"SoundDuration":369321,"Delta":1088514101},{"NoteNumber":74,"Velocity":27,"Duration":233903,"SoundDuration":233903,"Delta":1088760316},{"NoteNumber":78,"Velocity":32,"Duration":233903,"SoundDuration":233903,"Delta":1088760316},{"NoteNumber":74,"Velocity":27,"Duration":233903,"SoundDuration":233903,"Delta":1089006530},{"NoteNumber":78,"Velocity":32,"Duration":233903,"SoundDuration":233903,"Delta":1089006530},{"NoteNumber":86,"Velocity":53,"Duration":728331,"SoundDuration":728331,"Delta":1089252744},{"NoteNumber":59,"Velocity":32,"Duration":728331,"SoundDuration":728331,"Delta":1089252744},{"NoteNumber":62,"Velocity":38,"Duration":728331,"SoundDuration":728331,"Delta":1089252744},{"NoteNumber":74,"Velocity":26,"Duration":230638,"SoundDuration":230638,"Delta":1089495522},{"NoteNumber":78,"Velocity":31,"Duration":230638,"SoundDuration":230638,"Delta":1089495522},{"NoteNumber":74,"Velocity":26,"Duration":230638,"SoundDuration":230638,"Delta":1089738299},{"NoteNumber":78,"Velocity":31,"Duration":230638,"SoundDuration":230638,"Delta":1089738299},{"NoteNumber":86,"Velocity":56,"Duration":728332,"SoundDuration":728332,"Delta":1089981076},{"NoteNumber":59,"Velocity":34,"Duration":1461819,"SoundDuration":1461819,"Delta":1089981076},{"NoteNumber":62,"Velocity":41,"Duration":1092497,"SoundDuration":1092497,"Delta":1089981076},{"NoteNumber":78,"Velocity":27,"Duration":230638,"SoundDuration":230638,"Delta":1090223854},{"NoteNumber":83,"Velocity":32,"Duration":230638,"SoundDuration":230638,"Delta":1090223854},{"NoteNumber":78,"Velocity":27,"Duration":230638,"SoundDuration":230638,"Delta":1090466631},{"NoteNumber":83,"Velocity":32,"Duration":230638,"SoundDuration":230638,"Delta":1090466631},{"NoteNumber":90,"Velocity":55,"Duration":733487,"SoundDuration":733487,"Delta":1090709408},{"NoteNumber":78,"Velocity":27,"Duration":232185,"SoundDuration":232185,"Delta":1090952186},{"NoteNumber":83,"Velocity":32,"Duration":232185,"SoundDuration":232185,"Delta":1090952186},{"NoteNumber":61,"Velocity":41,"Duration":369321,"SoundDuration":369321,"Delta":1091073574},{"NoteNumber":78,"Velocity":27,"Duration":233903,"SoundDuration":233903,"Delta":1091196681},{"NoteNumber":83,"Velocity":32,"Duration":233903,"SoundDuration":233903,"Delta":1091196681},{"NoteNumber":86,"Velocity":55,"Duration":738642,"SoundDuration":738642,"Delta":1091442896},{"NoteNumber":59,"Velocity":44,"Duration":369321,"SoundDuration":369321,"Delta":1091442896},{"NoteNumber":78,"Velocity":27,"Duration":233903,"SoundDuration":233903,"Delta":1091689110},{"NoteNumber":83,"Velocity":32,"Duration":233903,"SoundDuration":233903,"Delta":1091689110},{"NoteNumber":78,"Velocity":27,"Duration":233903,"SoundDuration":233903,"Delta":1091935324},{"NoteNumber":83,"Velocity":32,"Duration":233903,"SoundDuration":233903,"Delta":1091935324},{"NoteNumber":90,"Velocity":56,"Duration":738642,"SoundDuration":738642,"Delta":1092181539},{"NoteNumber":59,"Velocity":34,"Duration":738642,"SoundDuration":738642,"Delta":1092181539},{"NoteNumber":78,"Velocity":27,"Duration":233903,"SoundDuration":233903,"Delta":1092427753},{"NoteNumber":83,"Velocity":32,"Duration":233903,"SoundDuration":233903,"Delta":1092427753},{"NoteNumber":78,"Velocity":27,"Duration":233903,"SoundDuration":233903,"Delta":1092673967},{"NoteNumber":83,"Velocity":32,"Duration":233903,"SoundDuration":233903,"Delta":1092673967},{"NoteNumber":78,"Velocity":56,"Duration":705881,"SoundDuration":705881,"Delta":1092920182},{"NoteNumber":59,"Velocity":41,"Duration":705881,"SoundDuration":705881,"Delta":1092920182},{"NoteNumber":71,"Velocity":27,"Duration":223529,"SoundDuration":223529,"Delta":1093155476},{"NoteNumber":74,"Velocity":32,"Duration":223529,"SoundDuration":223529,"Delta":1093155476},{"NoteNumber":71,"Velocity":27,"Duration":235294,"SoundDuration":235294,"Delta":1093390770},{"NoteNumber":74,"Velocity":32,"Duration":235294,"SoundDuration":235294,"Delta":1093390770},{"NoteNumber":82,"Velocity":56,"Duration":699857,"SoundDuration":699857,"Delta":1093626064},{"NoteNumber":61,"Velocity":42,"Duration":699857,"SoundDuration":699857,"Delta":1093626064},{"NoteNumber":78,"Velocity":33,"Duration":221451,"SoundDuration":221451,"Delta":1093855949},{"NoteNumber":70,"Velocity":27,"Duration":221451,"SoundDuration":221451,"Delta":1093855949},{"NoteNumber":76,"Velocity":33,"Duration":221451,"SoundDuration":221451,"Delta":1093855949},{"NoteNumber":78,"Velocity":34,"Duration":224852,"SoundDuration":224852,"Delta":1094089234},{"NoteNumber":70,"Velocity":27,"Duration":224852,"SoundDuration":224852,"Delta":1094089234},{"NoteNumber":76,"Velocity":34,"Duration":224852,"SoundDuration":224852,"Delta":1094089234},{"NoteNumber":83,"Velocity":58,"Duration":693641,"SoundDuration":693641,"Delta":1094325921},{"NoteNumber":62,"Velocity":47,"Duration":693641,"SoundDuration":693641,"Delta":1094325921},{"NoteNumber":78,"Velocity":34,"Duration":219653,"SoundDuration":219653,"Delta":1094557135},{"NoteNumber":71,"Velocity":28,"Duration":219653,"SoundDuration":219653,"Delta":1094557135},{"NoteNumber":74,"Velocity":34,"Duration":219653,"SoundDuration":219653,"Delta":1094557135},{"NoteNumber":78,"Velocity":35,"Duration":219653,"SoundDuration":219653,"Delta":1094788349},{"NoteNumber":71,"Velocity":29,"Duration":219653,"SoundDuration":219653,"Delta":1094788349},{"NoteNumber":74,"Velocity":35,"Duration":219653,"SoundDuration":219653,"Delta":1094788349},{"NoteNumber":85,"Velocity":62,"Duration":718562,"SoundDuration":718562,"Delta":1095019563},{"NoteNumber":57,"Velocity":31,"Duration":718562,"SoundDuration":718562,"Delta":1095019563},{"NoteNumber":64,"Velocity":37,"Duration":718562,"SoundDuration":718562,"Delta":1095019563},{"NoteNumber":81,"Velocity":36,"Duration":227544,"SoundDuration":227544,"Delta":1095259084},{"NoteNumber":73,"Velocity":29,"Duration":227544,"SoundDuration":227544,"Delta":1095259084},{"NoteNumber":79,"Velocity":36,"Duration":227544,"SoundDuration":227544,"Delta":1095259084},{"NoteNumber":81,"Velocity":36,"Duration":227544,"SoundDuration":227544,"Delta":1095498605},{"NoteNumber":73,"Velocity":29,"Duration":227544,"SoundDuration":227544,"Delta":1095498605},{"NoteNumber":79,"Velocity":36,"Duration":227544,"SoundDuration":227544,"Delta":1095498605},{"NoteNumber":86,"Velocity":61,"Duration":701753,"SoundDuration":701753,"Delta":1095738126},{"NoteNumber":62,"Velocity":39,"Duration":701753,"SoundDuration":701753,"Delta":1095738126},{"NoteNumber":66,"Velocity":47,"Duration":701753,"SoundDuration":701753,"Delta":1095738126},{"NoteNumber":74,"Velocity":30,"Duration":222222,"SoundDuration":222222,"Delta":1095972044},{"NoteNumber":78,"Velocity":30,"Duration":222222,"SoundDuration":222222,"Delta":1095972044},{"NoteNumber":81,"Velocity":36,"Duration":222222,"SoundDuration":222222,"Delta":1095972044},{"NoteNumber":74,"Velocity":29,"Duration":222222,"SoundDuration":222222,"Delta":1096205962},{"NoteNumber":78,"Velocity":29,"Duration":222222,"SoundDuration":222222,"Delta":1096205962},{"NoteNumber":81,"Velocity":36,"Duration":222222,"SoundDuration":222222,"Delta":1096205962},{"NoteNumber":88,"Velocity":60,"Duration":720198,"SoundDuration":720198,"Delta":1096439880},{"NoteNumber":61,"Velocity":38,"Duration":720198,"SoundDuration":720198,"Delta":1096439880},{"NoteNumber":66,"Velocity":45,"Duration":720198,"SoundDuration":720198,"Delta":1096439880},{"NoteNumber":82,"Velocity":35,"Duration":227755,"SoundDuration":227755,"Delta":1096673798},{"NoteNumber":76,"Velocity":28,"Duration":227755,"SoundDuration":227755,"Delta":1096673798},{"NoteNumber":78,"Velocity":35,"Duration":227755,"SoundDuration":227755,"Delta":1096673798},{"NoteNumber":82,"Velocity":34,"Duration":233903,"SoundDuration":233903,"Delta":1096913864},{"NoteNumber":76,"Velocity":28,"Duration":233903,"SoundDuration":233903,"Delta":1096913864},{"NoteNumber":78,"Velocity":34,"Duration":233903,"SoundDuration":233903,"Delta":1096913864},{"NoteNumber":86,"Velocity":57,"Duration":738642,"SoundDuration":738642,"Delta":1097160078},{"NoteNumber":59,"Velocity":38,"Duration":738642,"SoundDuration":738642,"Delta":1097160078},{"NoteNumber":66,"Velocity":46,"Duration":738642,"SoundDuration":738642,"Delta":1097160078},{"NoteNumber":83,"Velocity":33,"Duration":233903,"SoundDuration":233903,"Delta":1097406293},{"NoteNumber":74,"Velocity":27,"Duration":233903,"SoundDuration":233903,"Delta":1097406293},{"NoteNumber":78,"Velocity":33,"Duration":233903,"SoundDuration":233903,"Delta":1097406293},{"NoteNumber":83,"Velocity":32,"Duration":233903,"SoundDuration":233903,"Delta":1097652507},{"NoteNumber":74,"Velocity":27,"Duration":233903,"SoundDuration":233903,"Delta":1097652507},{"NoteNumber":78,"Velocity":32,"Duration":233903,"SoundDuration":233903,"Delta":1097652507},{"NoteNumber":85,"Velocity":56,"Duration":738642,"SoundDuration":738642,"Delta":1097898721},{"NoteNumber":57,"Velocity":33,"Duration":738642,"SoundDuration":738642,"Delta":1097898721},{"NoteNumber":67,"Velocity":39,"Duration":738642,"SoundDuration":738642,"Delta":1097898721},{"NoteNumber":81,"Velocity":32,"Duration":233903,"SoundDuration":233903,"Delta":1098144936},{"NoteNumber":73,"Velocity":27,"Duration":233903,"SoundDuration":233903,"Delta":1098144936},{"NoteNumber":76,"Velocity":32,"Duration":233903,"SoundDuration":233903,"Delta":1098144936},{"NoteNumber":81,"Velocity":32,"Duration":233903,"SoundDuration":233903,"Delta":1098391150},{"NoteNumber":73,"Velocity":27,"Duration":233903,"SoundDuration":233903,"Delta":1098391150},{"NoteNumber":76,"Velocity":32,"Duration":233903,"SoundDuration":233903,"Delta":1098391150},{"NoteNumber":85,"Velocity":54,"Duration":1477286,"SoundDuration":1477286,"Delta":1098637364},{"NoteNumber":57,"Velocity":33,"Duration":1477286,"SoundDuration":1477286,"Delta":1098637364},{"NoteNumber":67,"Velocity":39,"Duration":1477286,"SoundDuration":1477286,"Delta":1098637364},{"NoteNumber":73,"Velocity":26,"Duration":233903,"SoundDuration":233903,"Delta":1098883579},{"NoteNumber":76,"Velocity":26,"Duration":233903,"SoundDuration":233903,"Delta":1098883579},{"NoteNumber":81,"Velocity":31,"Duration":233903,"SoundDuration":233903,"Delta":1098883579},{"NoteNumber":73,"Velocity":26,"Duration":233903,"SoundDuration":233903,"Delta":1099129793},{"NoteNumber":76,"Velocity":26,"Duration":233903,"SoundDuration":233903,"Delta":1099129793},{"NoteNumber":81,"Velocity":31,"Duration":233903,"SoundDuration":233903,"Delta":1099129793},{"NoteNumber":73,"Velocity":26,"Duration":233903,"SoundDuration":233903,"Delta":1099376007},{"NoteNumber":76,"Velocity":26,"Duration":233903,"SoundDuration":233903,"Delta":1099376007},{"NoteNumber":81,"Velocity":31,"Duration":233903,"SoundDuration":233903,"Delta":1099376007},{"NoteNumber":73,"Velocity":26,"Duration":233903,"SoundDuration":233903,"Delta":1099622222},{"NoteNumber":76,"Velocity":26,"Duration":233903,"SoundDuration":233903,"Delta":1099622222},{"NoteNumber":81,"Velocity":31,"Duration":233903,"SoundDuration":233903,"Delta":1099622222},{"NoteNumber":73,"Velocity":27,"Duration":233903,"SoundDuration":233903,"Delta":1099868436},{"NoteNumber":76,"Velocity":27,"Duration":233903,"SoundDuration":233903,"Delta":1099868436},{"NoteNumber":81,"Velocity":32,"Duration":233903,"SoundDuration":233903,"Delta":1099868436},{"NoteNumber":74,"Velocity":41,"Duration":369321,"SoundDuration":369321,"Delta":1100114650},{"NoteNumber":78,"Velocity":41,"Duration":369321,"SoundDuration":369321,"Delta":1100114650},{"NoteNumber":81,"Velocity":41,"Duration":369321,"SoundDuration":369321,"Delta":1100114650},{"NoteNumber":86,"Velocity":49,"Duration":369321,"SoundDuration":369321,"Delta":1100114650},{"NoteNumber":62,"Velocity":37,"Duration":246214,"SoundDuration":246214,"Delta":1100114650},{"NoteNumber":66,"Velocity":37,"Duration":246214,"SoundDuration":246214,"Delta":1100114650},{"NoteNumber":69,"Velocity":29,"Duration":233903,"SoundDuration":233903,"Delta":1100360865},{"NoteNumber":69,"Velocity":29,"Duration":233903,"SoundDuration":233903,"Delta":1100607079},{"NoteNumber":81,"Velocity":52,"Duration":725706,"SoundDuration":725706,"Delta":1100853293},{"NoteNumber":69,"Velocity":33,"Duration":230470,"SoundDuration":230470,"Delta":1100853293},{"NoteNumber":69,"Velocity":29,"Duration":230470,"SoundDuration":230470,"Delta":1101095894},{"NoteNumber":69,"Velocity":29,"Duration":228794,"SoundDuration":228794,"Delta":1101338495},{"NoteNumber":81,"Velocity":54,"Duration":1002071,"SoundDuration":1002071,"Delta":1101579000},{"NoteNumber":63,"Velocity":33,"Duration":168142,"SoundDuration":168142,"Delta":1101579000},{"NoteNumber":69,"Velocity":27,"Duration":168142,"SoundDuration":168142,"Delta":1101747142},{"NoteNumber":66,"Velocity":27,"Duration":167019,"SoundDuration":167019,"Delta":1101915285},{"NoteNumber":69,"Velocity":27,"Duration":167019,"SoundDuration":167019,"Delta":1102082304},{"NoteNumber":63,"Velocity":33,"Duration":165874,"SoundDuration":165874,"Delta":1102249323},{"NoteNumber":69,"Velocity":28,"Duration":165874,"SoundDuration":165874,"Delta":1102415198},{"NoteNumber":79,"Velocity":51,"Duration":331748,"SoundDuration":331748,"Delta":1102581072},{"NoteNumber":66,"Velocity":28,"Duration":165874,"SoundDuration":165874,"Delta":1102581072},{"NoteNumber":69,"Velocity":29,"Duration":165874,"SoundDuration":165874,"Delta":1102746946},{"NoteNumber":78,"Velocity":51,"Duration":331748,"SoundDuration":331748,"Delta":1102912820},{"NoteNumber":63,"Velocity":33,"Duration":165874,"SoundDuration":165874,"Delta":1102912820},{"NoteNumber":69,"Velocity":29,"Duration":165874,"SoundDuration":165874,"Delta":1103078695},{"NoteNumber":66,"Velocity":29,"Duration":165874,"SoundDuration":165874,"Delta":1103244569},{"NoteNumber":69,"Velocity":29,"Duration":165874,"SoundDuration":165874,"Delta":1103410443},{"NoteNumber":78,"Velocity":52,"Duration":668077,"SoundDuration":668077,"Delta":1103576317},{"NoteNumber":62,"Velocity":33,"Duration":167019,"SoundDuration":167019,"Delta":1103576317},{"NoteNumber":69,"Velocity":29,"Duration":167019,"SoundDuration":167019,"Delta":1103743337},{"NoteNumber":66,"Velocity":29,"Duration":167019,"SoundDuration":167019,"Delta":1103910356},{"NoteNumber":69,"Velocity":29,"Duration":167019,"SoundDuration":167019,"Delta":1104077375},{"NoteNumber":78,"Velocity":54,"Duration":988358,"SoundDuration":988358,"Delta":1104244394},{"NoteNumber":60,"Velocity":33,"Duration":164726,"SoundDuration":164726,"Delta":1104244394},{"NoteNumber":69,"Velocity":27,"Duration":164726,"SoundDuration":164726,"Delta":1104409121},{"NoteNumber":66,"Velocity":27,"Duration":164726,"SoundDuration":164726,"Delta":1104573847},{"NoteNumber":69,"Velocity":27,"Duration":164726,"SoundDuration":164726,"Delta":1104738574},{"NoteNumber":60,"Velocity":33,"Duration":164726,"SoundDuration":164726,"Delta":1104903300},{"NoteNumber":69,"Velocity":28,"Duration":164726,"SoundDuration":164726,"Delta":1105068027},{"NoteNumber":76,"Velocity":51,"Duration":334038,"SoundDuration":334038,"Delta":1105232753},{"NoteNumber":66,"Velocity":28,"Duration":167019,"SoundDuration":167019,"Delta":1105232753},{"NoteNumber":69,"Velocity":29,"Duration":167019,"SoundDuration":167019,"Delta":1105399773},{"NoteNumber":75,"Velocity":51,"Duration":334038,"SoundDuration":334038,"Delta":1105566792},{"NoteNumber":60,"Velocity":33,"Duration":167019,"SoundDuration":167019,"Delta":1105566792},{"NoteNumber":69,"Velocity":29,"Duration":167019,"SoundDuration":167019,"Delta":1105733811},{"NoteNumber":66,"Velocity":29,"Duration":167019,"SoundDuration":167019,"Delta":1105900830},{"NoteNumber":69,"Velocity":29,"Duration":167019,"SoundDuration":167019,"Delta":1106067850},{"NoteNumber":71,"Velocity":52,"Duration":651114,"SoundDuration":651114,"Delta":1106234869},{"NoteNumber":75,"Velocity":52,"Duration":651114,"SoundDuration":651114,"Delta":1106234869},{"NoteNumber":59,"Velocity":33,"Duration":163007,"SoundDuration":163007,"Delta":1106234869},{"NoteNumber":69,"Velocity":29,"Duration":163007,"SoundDuration":163007,"Delta":1106397877},{"NoteNumber":66,"Velocity":29,"Duration":163007,"SoundDuration":163007,"Delta":1106560885},{"NoteNumber":69,"Velocity":29,"Duration":162090,"SoundDuration":162090,"Delta":1106723893},{"NoteNumber":71,"Velocity":44,"Duration":635701,"SoundDuration":635701,"Delta":1106885984},{"NoteNumber":75,"Velocity":52,"Duration":635701,"SoundDuration":635701,"Delta":1106885984},{"NoteNumber":59,"Velocity":33,"Duration":160256,"SoundDuration":160256,"Delta":1106885984},{"NoteNumber":69,"Velocity":28,"Duration":159353,"SoundDuration":159353,"Delta":1107046240},{"NoteNumber":66,"Velocity":28,"Duration":158478,"SoundDuration":158478,"Delta":1107205594},{"NoteNumber":69,"Velocity":28,"Duration":157612,"SoundDuration":157612,"Delta":1107364073},{"NoteNumber":71,"Velocity":47,"Duration":622972,"SoundDuration":622972,"Delta":1107521685},{"NoteNumber":76,"Velocity":55,"Duration":622972,"SoundDuration":622972,"Delta":1107521685},{"NoteNumber":59,"Velocity":34,"Duration":157019,"SoundDuration":157019,"Delta":1107521685},{"NoteNumber":67,"Velocity":28,"Duration":156158,"SoundDuration":156158,"Delta":1107678705},{"NoteNumber":64,"Velocity":28,"Duration":155318,"SoundDuration":155318,"Delta":1107834864},{"NoteNumber":67,"Velocity":29,"Duration":154475,"SoundDuration":154475,"Delta":1107990182},{"NoteNumber":71,"Velocity":47,"Duration":610743,"SoundDuration":610743,"Delta":1108144658},{"NoteNumber":75,"Velocity":47,"Duration":610743,"SoundDuration":610743,"Delta":1108144658},{"NoteNumber":78,"Velocity":56,"Duration":610743,"SoundDuration":610743,"Delta":1108144658},{"NoteNumber":59,"Velocity":35,"Duration":153915,"SoundDuration":153915,"Delta":1108144658},{"NoteNumber":66,"Velocity":29,"Duration":153088,"SoundDuration":153088,"Delta":1108298573},{"NoteNumber":63,"Velocity":29,"Duration":152274,"SoundDuration":152274,"Delta":1108451661},{"NoteNumber":66,"Velocity":29,"Duration":151465,"SoundDuration":151465,"Delta":1108603936},{"NoteNumber":71,"Velocity":48,"Duration":606950,"SoundDuration":606950,"Delta":1108755401},{"NoteNumber":76,"Velocity":48,"Duration":606950,"SoundDuration":606950,"Delta":1108755401},{"NoteNumber":79,"Velocity":57,"Duration":606950,"SoundDuration":606950,"Delta":1108755401},{"NoteNumber":59,"Velocity":36,"Duration":150935,"SoundDuration":150935,"Delta":1108755401},{"NoteNumber":67,"Velocity":31,"Duration":151465,"SoundDuration":151465,"Delta":1108906337},{"NoteNumber":64,"Velocity":31,"Duration":152002,"SoundDuration":152002,"Delta":1109057802},{"NoteNumber":67,"Velocity":31,"Duration":152547,"SoundDuration":152547,"Delta":1109209805},{"NoteNumber":71,"Velocity":50,"Duration":613434,"SoundDuration":613434,"Delta":1109362352},{"NoteNumber":78,"Velocity":50,"Duration":613434,"SoundDuration":613434,"Delta":1109362352},{"NoteNumber":81,"Velocity":59,"Duration":613434,"SoundDuration":613434,"Delta":1109362352},{"NoteNumber":59,"Velocity":37,"Duration":153358,"SoundDuration":153358,"Delta":1109362352},{"NoteNumber":69,"Velocity":31,"Duration":153358,"SoundDuration":153358,"Delta":1109515711},{"NoteNumber":66,"Velocity":32,"Duration":153358,"SoundDuration":153358,"Delta":1109669069},{"NoteNumber":69,"Velocity":32,"Duration":153358,"SoundDuration":153358,"Delta":1109822428},{"NoteNumber":72,"Velocity":51,"Duration":628785,"SoundDuration":628785,"Delta":1109975786},{"NoteNumber":78,"Velocity":51,"Duration":628785,"SoundDuration":628785,"Delta":1109975786},{"NoteNumber":81,"Velocity":60,"Duration":628785,"SoundDuration":628785,"Delta":1109975786},{"NoteNumber":60,"Velocity":37,"Duration":155038,"SoundDuration":155038,"Delta":1109975786},{"NoteNumber":69,"Velocity":31,"Duration":155038,"SoundDuration":155038,"Delta":1110130825},{"NoteNumber":66,"Velocity":31,"Duration":159353,"SoundDuration":159353,"Delta":1110285864},{"NoteNumber":69,"Velocity":31,"Duration":159354,"SoundDuration":159354,"Delta":1110445218},{"NoteNumber":73,"Velocity":52,"Duration":652688,"SoundDuration":652688,"Delta":1110604572},{"NoteNumber":78,"Velocity":52,"Duration":652688,"SoundDuration":652688,"Delta":1110604572},{"NoteNumber":81,"Velocity":61,"Duration":652688,"SoundDuration":652688,"Delta":1110604572},{"NoteNumber":61,"Velocity":38,"Duration":162531,"SoundDuration":162531,"Delta":1110604572},{"NoteNumber":69,"Velocity":32,"Duration":162531,"SoundDuration":162531,"Delta":1110767103},{"NoteNumber":66,"Velocity":32,"Duration":163630,"SoundDuration":163630,"Delta":1110929634},{"NoteNumber":69,"Velocity":33,"Duration":163995,"SoundDuration":163995,"Delta":1111093265},{"NoteNumber":74,"Velocity":53,"Duration":668077,"SoundDuration":668077,"Delta":1111257260},{"NoteNumber":78,"Velocity":53,"Duration":668077,"SoundDuration":668077,"Delta":1111257260},{"NoteNumber":81,"Velocity":63,"Duration":668077,"SoundDuration":668077,"Delta":1111257260},{"NoteNumber":62,"Velocity":39,"Duration":167019,"SoundDuration":167019,"Delta":1111257260},{"NoteNumber":69,"Velocity":32,"Duration":167019,"SoundDuration":167019,"Delta":1111424280},{"NoteNumber":66,"Velocity":34,"Duration":167019,"SoundDuration":167019,"Delta":1111591299},{"NoteNumber":69,"Velocity":34,"Duration":167019,"SoundDuration":167019,"Delta":1111758318},{"NoteNumber":81,"Velocity":59,"Duration":792459,"SoundDuration":792459,"Delta":1111925337},{"NoteNumber":62,"Velocity":33,"Duration":161168,"SoundDuration":161168,"Delta":1111925337},{"NoteNumber":69,"Velocity":27,"Duration":161168,"SoundDuration":161168,"Delta":1112086506},{"NoteNumber":66,"Velocity":27,"Duration":161168,"SoundDuration":161168,"Delta":1112247675},{"NoteNumber":69,"Velocity":27,"Duration":161168,"SoundDuration":161168,"Delta":1112408844},{"NoteNumber":63,"Velocity":33,"Duration":147783,"SoundDuration":147783,"Delta":1112570013},{"NoteNumber":82,"Velocity":51,"Duration":147783,"SoundDuration":147783,"Delta":1112717797},{"NoteNumber":69,"Velocity":28,"Duration":147783,"SoundDuration":147783,"Delta":1112717797},{"NoteNumber":81,"Velocity":53,"Duration":147783,"SoundDuration":147783,"Delta":1112865580},{"NoteNumber":66,"Velocity":28,"Duration":147783,"SoundDuration":147783,"Delta":1112865580},{"NoteNumber":79,"Velocity":51,"Duration":147783,"SoundDuration":147783,"Delta":1113013363},{"NoteNumber":69,"Velocity":29,"Duration":147783,"SoundDuration":147783,"Delta":1113013363},{"NoteNumber":78,"Velocity":56,"Duration":306122,"SoundDuration":306122,"Delta":1113161146},{"NoteNumber":63,"Velocity":33,"Duration":153061,"SoundDuration":153061,"Delta":1113161146},{"NoteNumber":69,"Velocity":29,"Duration":153061,"SoundDuration":153061,"Delta":1113314208},{"NoteNumber":66,"Velocity":29,"Duration":153061,"SoundDuration":153061,"Delta":1113467269},{"NoteNumber":69,"Velocity":29,"Duration":153061,"SoundDuration":153061,"Delta":1113620330},{"NoteNumber":78,"Velocity":57,"Duration":657318,"SoundDuration":657318,"Delta":1113773391},{"NoteNumber":62,"Velocity":33,"Duration":164329,"SoundDuration":164329,"Delta":1113773391},{"NoteNumber":69,"Velocity":29,"Duration":164329,"SoundDuration":164329,"Delta":1113937721},{"NoteNumber":66,"Velocity":29,"Duration":164329,"SoundDuration":164329,"Delta":1114102050},{"NoteNumber":69,"Velocity":29,"Duration":164329,"SoundDuration":164329,"Delta":1114266380},{"NoteNumber":78,"Velocity":59,"Duration":788809,"SoundDuration":788809,"Delta":1114430709},{"NoteNumber":60,"Velocity":33,"Duration":160256,"SoundDuration":160256,"Delta":1114430709},{"NoteNumber":69,"Velocity":27,"Duration":160256,"SoundDuration":160256,"Delta":1114590966},{"NoteNumber":66,"Velocity":27,"Duration":160256,"SoundDuration":160256,"Delta":1114751222},{"NoteNumber":69,"Velocity":27,"Duration":160256,"SoundDuration":160256,"Delta":1114911479},{"NoteNumber":60,"Velocity":33,"Duration":147783,"SoundDuration":147783,"Delta":1115071735},{"NoteNumber":79,"Velocity":53,"Duration":147783,"SoundDuration":147783,"Delta":1115219519},{"NoteNumber":69,"Velocity":28,"Duration":147783,"SoundDuration":147783,"Delta":1115219519},{"NoteNumber":78,"Velocity":53,"Duration":147783,"SoundDuration":147783,"Delta":1115367302},{"NoteNumber":66,"Velocity":28,"Duration":147783,"SoundDuration":147783,"Delta":1115367302},{"NoteNumber":76,"Velocity":53,"Duration":147783,"SoundDuration":147783,"Delta":1115515085},{"NoteNumber":69,"Velocity":29,"Duration":147783,"SoundDuration":147783,"Delta":1115515085},{"NoteNumber":75,"Velocity":56,"Duration":307692,"SoundDuration":307692,"Delta":1115662868},{"NoteNumber":60,"Velocity":33,"Duration":153846,"SoundDuration":153846,"Delta":1115662868},{"NoteNumber":69,"Velocity":29,"Duration":153846,"SoundDuration":153846,"Delta":1115816715},{"NoteNumber":66,"Velocity":29,"Duration":153846,"SoundDuration":153846,"Delta":1115970561},{"NoteNumber":69,"Velocity":31,"Duration":153846,"SoundDuration":153846,"Delta":1116124407},{"NoteNumber":71,"Velocity":57,"Duration":647405,"SoundDuration":647405,"Delta":1116278253},{"NoteNumber":75,"Velocity":57,"Duration":647405,"SoundDuration":647405,"Delta":1116278253},{"NoteNumber":59,"Velocity":36,"Duration":162249,"SoundDuration":162249,"Delta":1116278253},{"NoteNumber":69,"Velocity":31,"Duration":162249,"SoundDuration":162249,"Delta":1116440503},{"NoteNumber":66,"Velocity":31,"Duration":162249,"SoundDuration":162249,"Delta":1116602753},{"NoteNumber":69,"Velocity":31,"Duration":160656,"SoundDuration":160656,"Delta":1116765003},{"NoteNumber":71,"Velocity":48,"Duration":465531,"SoundDuration":465531,"Delta":1116925659},{"NoteNumber":75,"Velocity":57,"Duration":465531,"SoundDuration":465531,"Delta":1116925659},{"NoteNumber":59,"Velocity":36,"Duration":155876,"SoundDuration":155876,"Delta":1116925659},{"NoteNumber":69,"Velocity":30,"Duration":155108,"SoundDuration":155108,"Delta":1117081536},{"NoteNumber":66,"Velocity":30,"Duration":154545,"SoundDuration":154545,"Delta":1117236644},{"NoteNumber":71,"Velocity":48,"Duration":153985,"SoundDuration":153985,"Delta":1117391190},{"NoteNumber":75,"Velocity":57,"Duration":153985,"SoundDuration":153985,"Delta":1117391190},{"NoteNumber":69,"Velocity":30,"Duration":153985,"SoundDuration":153985,"Delta":1117391190},{"NoteNumber":71,"Velocity":51,"Duration":458044,"SoundDuration":458044,"Delta":1117545175},{"NoteNumber":76,"Velocity":60,"Duration":458044,"SoundDuration":458044,"Delta":1117545175},{"NoteNumber":59,"Velocity":37,"Duration":153358,"SoundDuration":153358,"Delta":1117545175},{"NoteNumber":67,"Velocity":30,"Duration":152615,"SoundDuration":152615,"Delta":1117698534},{"NoteNumber":64,"Velocity":30,"Duration":152070,"SoundDuration":152070,"Delta":1117851149},{"NoteNumber":71,"Velocity":51,"Duration":151531,"SoundDuration":151531,"Delta":1118003219},{"NoteNumber":76,"Velocity":60,"Duration":151531,"SoundDuration":151531,"Delta":1118003219},{"NoteNumber":67,"Velocity":31,"Duration":151531,"SoundDuration":151531,"Delta":1118003219},{"NoteNumber":71,"Velocity":51,"Duration":450810,"SoundDuration":450810,"Delta":1118154751},{"NoteNumber":75,"Velocity":51,"Duration":450810,"SoundDuration":450810,"Delta":1118154751},{"NoteNumber":78,"Velocity":61,"Duration":450810,"SoundDuration":450810,"Delta":1118154751},{"NoteNumber":59,"Velocity":38,"Duration":150935,"SoundDuration":150935,"Delta":1118154751},{"NoteNumber":66,"Velocity":31,"Duration":150201,"SoundDuration":150201,"Delta":1118305686},{"NoteNumber":63,"Velocity":31,"Duration":149672,"SoundDuration":149672,"Delta":1118455888},{"NoteNumber":71,"Velocity":51,"Duration":149150,"SoundDuration":149150,"Delta":1118605561},{"NoteNumber":75,"Velocity":51,"Duration":149150,"SoundDuration":149150,"Delta":1118605561},{"NoteNumber":78,"Velocity":61,"Duration":149150,"SoundDuration":149150,"Delta":1118605561},{"NoteNumber":66,"Velocity":31,"Duration":149150,"SoundDuration":149150,"Delta":1118605561},{"NoteNumber":71,"Velocity":52,"Duration":443805,"SoundDuration":443805,"Delta":1118754712},{"NoteNumber":76,"Velocity":52,"Duration":443805,"SoundDuration":443805,"Delta":1118754712},{"NoteNumber":79,"Velocity":62,"Duration":443805,"SoundDuration":443805,"Delta":1118754712},{"NoteNumber":59,"Velocity":39,"Duration":148573,"SoundDuration":148573,"Delta":1118754712},{"NoteNumber":67,"Velocity":34,"Duration":147875,"SoundDuration":147875,"Delta":1118903286},{"NoteNumber":64,"Velocity":34,"Duration":147356,"SoundDuration":147356,"Delta":1119051162},{"NoteNumber":71,"Velocity":52,"Duration":147030,"SoundDuration":147030,"Delta":1119198518},{"NoteNumber":76,"Velocity":52,"Duration":147030,"SoundDuration":147030,"Delta":1119198518},{"NoteNumber":79,"Velocity":62,"Duration":147030,"SoundDuration":147030,"Delta":1119198518},{"NoteNumber":67,"Velocity":34,"Duration":147030,"SoundDuration":147030,"Delta":1119198518},{"NoteNumber":71,"Velocity":55,"Duration":444761,"SoundDuration":444761,"Delta":1119345548},{"NoteNumber":78,"Velocity":55,"Duration":444761,"SoundDuration":444761,"Delta":1119345548},{"NoteNumber":81,"Velocity":64,"Duration":444761,"SoundDuration":444761,"Delta":1119345548},{"NoteNumber":59,"Velocity":40,"Duration":147225,"SoundDuration":147225,"Delta":1119345548},{"NoteNumber":69,"Velocity":34,"Duration":148256,"SoundDuration":148256,"Delta":1119492773},{"NoteNumber":66,"Velocity":35,"Duration":149278,"SoundDuration":149278,"Delta":1119641030},{"NoteNumber":71,"Velocity":55,"Duration":150269,"SoundDuration":150269,"Delta":1119790309},{"NoteNumber":78,"Velocity":55,"Duration":150269,"SoundDuration":150269,"Delta":1119790309},{"NoteNumber":81,"Velocity":64,"Duration":150269,"SoundDuration":150269,"Delta":1119790309},{"NoteNumber":69,"Velocity":35,"Duration":150269,"SoundDuration":150269,"Delta":1119790309},{"NoteNumber":72,"Velocity":56,"Duration":457105,"SoundDuration":457105,"Delta":1119940578},{"NoteNumber":78,"Velocity":56,"Duration":457105,"SoundDuration":457105,"Delta":1119940578},{"NoteNumber":81,"Velocity":66,"Duration":457105,"SoundDuration":457105,"Delta":1119940578},{"NoteNumber":60,"Velocity":40,"Duration":151398,"SoundDuration":151398,"Delta":1119940578},{"NoteNumber":69,"Velocity":34,"Duration":152206,"SoundDuration":152206,"Delta":1120091977},{"NoteNumber":66,"Velocity":34,"Duration":153499,"SoundDuration":153499,"Delta":1120244184},{"NoteNumber":72,"Velocity":56,"Duration":154686,"SoundDuration":154686,"Delta":1120397683},{"NoteNumber":78,"Velocity":56,"Duration":154686,"SoundDuration":154686,"Delta":1120397683},{"NoteNumber":81,"Velocity":66,"Duration":154686,"SoundDuration":154686,"Delta":1120397683},{"NoteNumber":69,"Velocity":34,"Duration":154686,"SoundDuration":154686,"Delta":1120397683},{"NoteNumber":73,"Velocity":57,"Duration":478061,"SoundDuration":478061,"Delta":1120552370},{"NoteNumber":78,"Velocity":57,"Duration":478061,"SoundDuration":478061,"Delta":1120552370},{"NoteNumber":81,"Velocity":67,"Duration":478061,"SoundDuration":478061,"Delta":1120552370},{"NoteNumber":61,"Velocity":41,"Duration":159353,"SoundDuration":159353,"Delta":1120552370},{"NoteNumber":69,"Velocity":35,"Duration":159354,"SoundDuration":159354,"Delta":1120711724},{"NoteNumber":66,"Velocity":35,"Duration":159353,"SoundDuration":159353,"Delta":1120871078},{"NoteNumber":73,"Velocity":57,"Duration":159354,"SoundDuration":159354,"Delta":1121030432},{"NoteNumber":78,"Velocity":57,"Duration":159354,"SoundDuration":159354,"Delta":1121030432},{"NoteNumber":81,"Velocity":67,"Duration":159354,"SoundDuration":159354,"Delta":1121030432},{"NoteNumber":69,"Velocity":36,"Duration":159354,"SoundDuration":159354,"Delta":1121030432},{"NoteNumber":74,"Velocity":58,"Duration":637416,"SoundDuration":637416,"Delta":1121189786},{"NoteNumber":78,"Velocity":58,"Duration":637416,"SoundDuration":637416,"Delta":1121189786},{"NoteNumber":81,"Velocity":69,"Duration":637416,"SoundDuration":637416,"Delta":1121189786},{"NoteNumber":62,"Velocity":42,"Duration":159353,"SoundDuration":159353,"Delta":1121189786},{"NoteNumber":69,"Velocity":35,"Duration":159354,"SoundDuration":159354,"Delta":1121349140},{"NoteNumber":66,"Velocity":37,"Duration":159353,"SoundDuration":159353,"Delta":1121508494},{"NoteNumber":69,"Velocity":37,"Duration":159354,"SoundDuration":159354,"Delta":1121667848},{"NoteNumber":81,"Velocity":59,"Duration":1123733,"SoundDuration":1123733,"Delta":1121827202},{"NoteNumber":62,"Velocity":36,"Duration":162074,"SoundDuration":162074,"Delta":1121827202},{"NoteNumber":69,"Velocity":29,"Duration":162074,"SoundDuration":162074,"Delta":1121989277},{"NoteNumber":66,"Velocity":29,"Duration":162074,"SoundDuration":162074,"Delta":1122151351},{"NoteNumber":69,"Velocity":29,"Duration":162074,"SoundDuration":162074,"Delta":1122313426},{"NoteNumber":63,"Velocity":36,"Duration":158478,"SoundDuration":158478,"Delta":1122475500},{"NoteNumber":69,"Velocity":30,"Duration":158478,"SoundDuration":158478,"Delta":1122633979},{"NoteNumber":66,"Velocity":30,"Duration":158478,"SoundDuration":158478,"Delta":1122792457},{"NoteNumber":79,"Velocity":56,"Duration":158478,"SoundDuration":158478,"Delta":1122950936},{"NoteNumber":69,"Velocity":31,"Duration":158478,"SoundDuration":158478,"Delta":1122950936},{"NoteNumber":78,"Velocity":56,"Duration":316957,"SoundDuration":316957,"Delta":1123109414},{"NoteNumber":62,"Velocity":36,"Duration":158478,"SoundDuration":158478,"Delta":1123109414},{"NoteNumber":69,"Velocity":31,"Duration":158478,"SoundDuration":158478,"Delta":1123267893},{"NoteNumber":66,"Velocity":31,"Duration":158478,"SoundDuration":158478,"Delta":1123426371},{"NoteNumber":69,"Velocity":31,"Duration":158478,"SoundDuration":158478,"Delta":1123584850},{"NoteNumber":78,"Velocity":57,"Duration":646439,"SoundDuration":646439,"Delta":1123743328},{"NoteNumber":60,"Velocity":36,"Duration":162249,"SoundDuration":162249,"Delta":1123743328},{"NoteNumber":69,"Velocity":31,"Duration":162249,"SoundDuration":162249,"Delta":1123905578},{"NoteNumber":66,"Velocity":31,"Duration":162249,"SoundDuration":162249,"Delta":1124067828},{"NoteNumber":69,"Velocity":31,"Duration":159690,"SoundDuration":159690,"Delta":1124230077},{"NoteNumber":81,"Velocity":49,"Duration":67336,"SoundDuration":67336,"Delta":1124322430},{"NoteNumber":79,"Velocity":60,"Duration":154193,"SoundDuration":154193,"Delta":1124389767},{"NoteNumber":58,"Velocity":36,"Duration":154193,"SoundDuration":154193,"Delta":1124389767},{"NoteNumber":78,"Velocity":57,"Duration":154193,"SoundDuration":154193,"Delta":1124543961},{"NoteNumber":67,"Velocity":29,"Duration":154193,"SoundDuration":154193,"Delta":1124543961},{"NoteNumber":79,"Velocity":57,"Duration":154194,"SoundDuration":154194,"Delta":1124698155},{"NoteNumber":62,"Velocity":29,"Duration":154194,"SoundDuration":154194,"Delta":1124698155},{"NoteNumber":81,"Velocity":57,"Duration":160783,"SoundDuration":160783,"Delta":1124852349},{"NoteNumber":67,"Velocity":29,"Duration":160783,"SoundDuration":160783,"Delta":1124852349},{"NoteNumber":84,"Velocity":49,"Duration":67720,"SoundDuration":67720,"Delta":1124945413},{"NoteNumber":82,"Velocity":60,"Duration":154193,"SoundDuration":154193,"Delta":1125013133},{"NoteNumber":57,"Velocity":36,"Duration":154193,"SoundDuration":154193,"Delta":1125013133},{"NoteNumber":81,"Velocity":57,"Duration":154193,"SoundDuration":154193,"Delta":1125167327},{"NoteNumber":67,"Velocity":30,"Duration":154193,"SoundDuration":154193,"Delta":1125167327},{"NoteNumber":82,"Velocity":57,"Duration":154194,"SoundDuration":154194,"Delta":1125321521},{"NoteNumber":60,"Velocity":30,"Duration":154194,"SoundDuration":154194,"Delta":1125321521},{"NoteNumber":84,"Velocity":57,"Duration":154193,"SoundDuration":154193,"Delta":1125475715},{"NoteNumber":67,"Velocity":31,"Duration":154193,"SoundDuration":154193,"Delta":1125475715},{"NoteNumber":86,"Velocity":59,"Duration":316957,"SoundDuration":316957,"Delta":1125629909},{"NoteNumber":55,"Velocity":36,"Duration":158478,"SoundDuration":158478,"Delta":1125629909},{"NoteNumber":67,"Velocity":31,"Duration":158478,"SoundDuration":158478,"Delta":1125788388},{"NoteNumber":58,"Velocity":31,"Duration":158478,"SoundDuration":158478,"Delta":1125946866},{"NoteNumber":67,"Velocity":31,"Duration":158478,"SoundDuration":158478,"Delta":1126105345},{"NoteNumber":86,"Velocity":59,"Duration":316957,"SoundDuration":316957,"Delta":1126263823},{"NoteNumber":58,"Velocity":36,"Duration":158478,"SoundDuration":158478,"Delta":1126263823},{"NoteNumber":67,"Velocity":31,"Duration":158478,"SoundDuration":158478,"Delta":1126422302},{"NoteNumber":82,"Velocity":57,"Duration":316957,"SoundDuration":316957,"Delta":1126580780},{"NoteNumber":62,"Velocity":31,"Duration":158478,"SoundDuration":158478,"Delta":1126580780},{"NoteNumber":67,"Velocity":31,"Duration":158478,"SoundDuration":158478,"Delta":1126739259},{"NoteNumber":81,"Velocity":59,"Duration":1122489,"SoundDuration":1122489,"Delta":1126897737},{"NoteNumber":62,"Velocity":36,"Duration":161221,"SoundDuration":161221,"Delta":1126897737},{"NoteNumber":69,"Velocity":29,"Duration":161220,"SoundDuration":161220,"Delta":1127058958},{"NoteNumber":66,"Velocity":29,"Duration":161221,"SoundDuration":161221,"Delta":1127220179},{"NoteNumber":69,"Velocity":29,"Duration":161221,"SoundDuration":161221,"Delta":1127381400},{"NoteNumber":63,"Velocity":36,"Duration":159201,"SoundDuration":159201,"Delta":1127542621},{"NoteNumber":69,"Velocity":30,"Duration":159201,"SoundDuration":159201,"Delta":1127701823},{"NoteNumber":66,"Velocity":30,"Duration":159201,"SoundDuration":159201,"Delta":1127861025},{"NoteNumber":79,"Velocity":56,"Duration":159201,"SoundDuration":159201,"Delta":1128020226},{"NoteNumber":69,"Velocity":31,"Duration":159201,"SoundDuration":159201,"Delta":1128020226},{"NoteNumber":78,"Velocity":56,"Duration":318403,"SoundDuration":318403,"Delta":1128179428},{"NoteNumber":62,"Velocity":36,"Duration":159201,"SoundDuration":159201,"Delta":1128179428},{"NoteNumber":69,"Velocity":31,"Duration":159201,"SoundDuration":159201,"Delta":1128338630},{"NoteNumber":66,"Velocity":31,"Duration":159201,"SoundDuration":159201,"Delta":1128497832},{"NoteNumber":69,"Velocity":31,"Duration":159201,"SoundDuration":159201,"Delta":1128657033},{"NoteNumber":90,"Velocity":63,"Duration":668077,"SoundDuration":668077,"Delta":1128816235},{"NoteNumber":78,"Velocity":63,"Duration":668077,"SoundDuration":668077,"Delta":1128816235},{"NoteNumber":60,"Velocity":37,"Duration":167019,"SoundDuration":167019,"Delta":1128816235},{"NoteNumber":69,"Velocity":32,"Duration":167019,"SoundDuration":167019,"Delta":1128983254},{"NoteNumber":66,"Velocity":32,"Duration":167019,"SoundDuration":167019,"Delta":1129150274},{"NoteNumber":69,"Velocity":32,"Duration":167019,"SoundDuration":167019,"Delta":1129317293},{"NoteNumber":79,"Velocity":63,"Duration":318737,"SoundDuration":318737,"Delta":1129484312},{"NoteNumber":91,"Velocity":63,"Duration":318737,"SoundDuration":318737,"Delta":1129484312},{"NoteNumber":58,"Velocity":37,"Duration":159536,"SoundDuration":159536,"Delta":1129484312},{"NoteNumber":70,"Velocity":31,"Duration":159201,"SoundDuration":159201,"Delta":1129643848},{"NoteNumber":82,"Velocity":64,"Duration":317412,"SoundDuration":317412,"Delta":1129803050},{"NoteNumber":94,"Velocity":64,"Duration":317412,"SoundDuration":317412,"Delta":1129803050},{"NoteNumber":67,"Velocity":32,"Duration":159201,"SoundDuration":159201,"Delta":1129803050},{"NoteNumber":70,"Velocity":32,"Duration":158211,"SoundDuration":158211,"Delta":1129962252},{"NoteNumber":84,"Velocity":64,"Duration":315781,"SoundDuration":315781,"Delta":1130120463},{"NoteNumber":96,"Velocity":64,"Duration":315781,"SoundDuration":315781,"Delta":1130120463},{"NoteNumber":58,"Velocity":39,"Duration":158211,"SoundDuration":158211,"Delta":1130120463},{"NoteNumber":70,"Velocity":34,"Duration":157569,"SoundDuration":157569,"Delta":1130278674},{"NoteNumber":86,"Velocity":65,"Duration":314170,"SoundDuration":314170,"Delta":1130436244},{"NoteNumber":98,"Velocity":65,"Duration":314170,"SoundDuration":314170,"Delta":1130436244},{"NoteNumber":67,"Velocity":34,"Duration":157249,"SoundDuration":157249,"Delta":1130436244},{"NoteNumber":70,"Velocity":35,"Duration":156921,"SoundDuration":156921,"Delta":1130593494},{"NoteNumber":87,"Velocity":66,"Duration":625064,"SoundDuration":625064,"Delta":1130750415},{"NoteNumber":99,"Velocity":66,"Duration":625064,"SoundDuration":625064,"Delta":1130750415},{"NoteNumber":58,"Velocity":42,"Duration":156266,"SoundDuration":156266,"Delta":1130750415},{"NoteNumber":70,"Velocity":37,"Duration":156266,"SoundDuration":156266,"Delta":1130906681},{"NoteNumber":67,"Velocity":37,"Duration":156266,"SoundDuration":156266,"Delta":1131062948},{"NoteNumber":70,"Velocity":37,"Duration":156266,"SoundDuration":156266,"Delta":1131219214},{"NoteNumber":96,"Velocity":69,"Duration":625065,"SoundDuration":625065,"Delta":1131375480},{"NoteNumber":84,"Velocity":69,"Duration":625065,"SoundDuration":625065,"Delta":1131375480},{"NoteNumber":58,"Velocity":44,"Duration":156266,"SoundDuration":156266,"Delta":1131375480},{"NoteNumber":72,"Velocity":39,"Duration":156266,"SoundDuration":156266,"Delta":1131531746},{"NoteNumber":68,"Velocity":40,"Duration":156266,"SoundDuration":156266,"Delta":1131688013},{"NoteNumber":72,"Velocity":40,"Duration":156266,"SoundDuration":156266,"Delta":1131844279},{"NoteNumber":94,"Velocity":70,"Duration":625064,"SoundDuration":625064,"Delta":1132000545},{"NoteNumber":82,"Velocity":70,"Duration":625064,"SoundDuration":625064,"Delta":1132000545},{"NoteNumber":58,"Velocity":48,"Duration":156266,"SoundDuration":156266,"Delta":1132000545},{"NoteNumber":70,"Velocity":38,"Duration":156266,"SoundDuration":156266,"Delta":1132156811},{"NoteNumber":67,"Velocity":38,"Duration":156266,"SoundDuration":156266,"Delta":1132313078},{"NoteNumber":70,"Velocity":38,"Duration":156266,"SoundDuration":156266,"Delta":1132469344},{"NoteNumber":92,"Velocity":69,"Duration":625064,"SoundDuration":625064,"Delta":1132625610},{"NoteNumber":80,"Velocity":69,"Duration":625064,"SoundDuration":625064,"Delta":1132625610},{"NoteNumber":58,"Velocity":47,"Duration":156266,"SoundDuration":156266,"Delta":1132625610},{"NoteNumber":68,"Velocity":39,"Duration":156266,"SoundDuration":156266,"Delta":1132781876},{"NoteNumber":65,"Velocity":39,"Duration":156266,"SoundDuration":156266,"Delta":1132938143},{"NoteNumber":68,"Velocity":39,"Duration":156266,"SoundDuration":156266,"Delta":1133094409},{"NoteNumber":91,"Velocity":66,"Duration":625064,"SoundDuration":625064,"Delta":1133250675},{"NoteNumber":79,"Velocity":66,"Duration":625064,"SoundDuration":625064,"Delta":1133250675},{"NoteNumber":58,"Velocity":42,"Duration":156266,"SoundDuration":156266,"Delta":1133250675},{"NoteNumber":67,"Velocity":36,"Duration":156266,"SoundDuration":156266,"Delta":1133406941},{"NoteNumber":63,"Velocity":36,"Duration":156266,"SoundDuration":156266,"Delta":1133563208},{"NoteNumber":67,"Velocity":37,"Duration":156266,"SoundDuration":156266,"Delta":1133719474},{"NoteNumber":89,"Velocity":65,"Duration":625064,"SoundDuration":625064,"Delta":1133875740},{"NoteNumber":77,"Velocity":65,"Duration":625064,"SoundDuration":625064,"Delta":1133875740},{"NoteNumber":58,"Velocity":42,"Duration":156266,"SoundDuration":156266,"Delta":1133875740},{"NoteNumber":65,"Velocity":35,"Duration":156266,"SoundDuration":156266,"Delta":1134032006},{"NoteNumber":61,"Velocity":35,"Duration":156266,"SoundDuration":156266,"Delta":1134188273},{"NoteNumber":65,"Velocity":35,"Duration":156266,"SoundDuration":156266,"Delta":1134344539},{"NoteNumber":76,"Velocity":61,"Duration":2847421,"SoundDuration":2847421,"Delta":1134500805},{"NoteNumber":88,"Velocity":61,"Duration":2847421,"SoundDuration":2847421,"Delta":1134500805},{"NoteNumber":58,"Velocity":35,"Duration":156266,"SoundDuration":156266,"Delta":1134500805},{"NoteNumber":64,"Velocity":29,"Duration":156266,"SoundDuration":156266,"Delta":1134657071},{"NoteNumber":61,"Velocity":29,"Duration":156266,"SoundDuration":156266,"Delta":1134813338},{"NoteNumber":64,"Velocity":29,"Duration":156593,"SoundDuration":156593,"Delta":1134969604},{"NoteNumber":58,"Velocity":34,"Duration":157249,"SoundDuration":157249,"Delta":1135126198},{"NoteNumber":64,"Velocity":29,"Duration":157249,"SoundDuration":157249,"Delta":1135283447},{"NoteNumber":61,"Velocity":29,"Duration":157249,"SoundDuration":157249,"Delta":1135440696},{"NoteNumber":64,"Velocity":29,"Duration":157890,"SoundDuration":157890,"Delta":1135597946},{"NoteNumber":58,"Velocity":33,"Duration":158211,"SoundDuration":158211,"Delta":1135755836},{"NoteNumber":64,"Velocity":29,"Duration":158211,"SoundDuration":158211,"Delta":1135914047},{"NoteNumber":61,"Velocity":29,"Duration":158211,"SoundDuration":158211,"Delta":1136072259},{"NoteNumber":64,"Velocity":29,"Duration":159201,"SoundDuration":159201,"Delta":1136230470},{"NoteNumber":58,"Velocity":33,"Duration":159201,"SoundDuration":159201,"Delta":1136389672},{"NoteNumber":64,"Velocity":29,"Duration":159201,"SoundDuration":159201,"Delta":1136548873},{"NoteNumber":61,"Velocity":29,"Duration":159536,"SoundDuration":159536,"Delta":1136708075},{"NoteNumber":64,"Velocity":29,"Duration":160205,"SoundDuration":160205,"Delta":1136867611},{"NoteNumber":58,"Velocity":31,"Duration":160204,"SoundDuration":160204,"Delta":1137027816},{"NoteNumber":64,"Velocity":27,"Duration":160205,"SoundDuration":160205,"Delta":1137188021},{"NoteNumber":76,"Velocity":51,"Duration":304389,"SoundDuration":304389,"Delta":1137348226},{"NoteNumber":61,"Velocity":27,"Duration":160204,"SoundDuration":160204,"Delta":1137348226},{"NoteNumber":64,"Velocity":27,"Duration":160205,"SoundDuration":160205,"Delta":1137508431},{"NoteNumber":76,"Velocity":51,"Duration":304389,"SoundDuration":304389,"Delta":1137668636},{"NoteNumber":58,"Velocity":32,"Duration":160204,"SoundDuration":160204,"Delta":1137668636},{"NoteNumber":64,"Velocity":27,"Duration":160204,"SoundDuration":160204,"Delta":1137828841},{"NoteNumber":76,"Velocity":51,"Duration":304389,"SoundDuration":304389,"Delta":1137989046},{"NoteNumber":61,"Velocity":27,"Duration":160205,"SoundDuration":160205,"Delta":1137989046},{"NoteNumber":64,"Velocity":27,"Duration":160204,"SoundDuration":160204,"Delta":1138149251},{"NoteNumber":76,"Velocity":50,"Duration":304389,"SoundDuration":304389,"Delta":1138309456},{"NoteNumber":57,"Velocity":32,"Duration":160205,"SoundDuration":160205,"Delta":1138309456},{"NoteNumber":64,"Velocity":26,"Duration":160204,"SoundDuration":160204,"Delta":1138469661},{"NoteNumber":76,"Velocity":50,"Duration":304389,"SoundDuration":304389,"Delta":1138629866},{"NoteNumber":61,"Velocity":26,"Duration":160204,"SoundDuration":160204,"Delta":1138629866},{"NoteNumber":64,"Velocity":26,"Duration":160205,"SoundDuration":160205,"Delta":1138790071},{"NoteNumber":76,"Velocity":50,"Duration":304389,"SoundDuration":304389,"Delta":1138950276},{"NoteNumber":55,"Velocity":31,"Duration":160204,"SoundDuration":160204,"Delta":1138950276},{"NoteNumber":64,"Velocity":26,"Duration":160205,"SoundDuration":160205,"Delta":1139110481},{"NoteNumber":76,"Velocity":50,"Duration":304389,"SoundDuration":304389,"Delta":1139270686},{"NoteNumber":61,"Velocity":26,"Duration":160204,"SoundDuration":160204,"Delta":1139270686},{"NoteNumber":64,"Velocity":26,"Duration":160204,"SoundDuration":160204,"Delta":1139430891},{"NoteNumber":77,"Velocity":53,"Duration":1094381,"SoundDuration":1094381,"Delta":1139591096},{"NoteNumber":53,"Velocity":31,"Duration":154193,"SoundDuration":154193,"Delta":1139591096},{"NoteNumber":65,"Velocity":24,"Duration":154193,"SoundDuration":154193,"Delta":1139745290},{"NoteNumber":62,"Velocity":24,"Duration":154194,"SoundDuration":154194,"Delta":1139899484},{"NoteNumber":65,"Velocity":24,"Duration":154193,"SoundDuration":154193,"Delta":1140053678},{"NoteNumber":53,"Velocity":30,"Duration":159201,"SoundDuration":159201,"Delta":1140207872},{"NoteNumber":67,"Velocity":25,"Duration":159201,"SoundDuration":159201,"Delta":1140367074},{"NoteNumber":63,"Velocity":25,"Duration":159201,"SoundDuration":159201,"Delta":1140526276},{"NoteNumber":79,"Velocity":47,"Duration":159201,"SoundDuration":159201,"Delta":1140685478},{"NoteNumber":67,"Velocity":26,"Duration":159201,"SoundDuration":159201,"Delta":1140685478},{"NoteNumber":77,"Velocity":52,"Duration":318403,"SoundDuration":318403,"Delta":1140844679},{"NoteNumber":53,"Velocity":29,"Duration":159201,"SoundDuration":159201,"Delta":1140844679},{"NoteNumber":65,"Velocity":26,"Duration":159201,"SoundDuration":159201,"Delta":1141003881},{"NoteNumber":62,"Velocity":26,"Duration":159201,"SoundDuration":159201,"Delta":1141163083},{"NoteNumber":65,"Velocity":26,"Duration":159201,"SoundDuration":159201,"Delta":1141322285},{"NoteNumber":82,"Velocity":49,"Duration":72507,"SoundDuration":72507,"Delta":1141481486},{"NoteNumber":53,"Velocity":30,"Duration":143924,"SoundDuration":143924,"Delta":1141481486},{"NoteNumber":84,"Velocity":43,"Duration":71416,"SoundDuration":71416,"Delta":1141553994},{"NoteNumber":82,"Velocity":44,"Duration":70112,"SoundDuration":70112,"Delta":1141625411},{"NoteNumber":67,"Velocity":26,"Duration":138962,"SoundDuration":138962,"Delta":1141625411},{"NoteNumber":84,"Velocity":44,"Duration":68849,"SoundDuration":68849,"Delta":1141695524},{"NoteNumber":82,"Velocity":44,"Duration":68474,"SoundDuration":68474,"Delta":1141764373},{"NoteNumber":63,"Velocity":26,"Duration":136801,"SoundDuration":136801,"Delta":1141764373},{"NoteNumber":84,"Velocity":46,"Duration":68327,"SoundDuration":68327,"Delta":1141832848},{"NoteNumber":81,"Velocity":51,"Duration":74242,"SoundDuration":74242,"Delta":1141901175},{"NoteNumber":67,"Velocity":26,"Duration":160226,"SoundDuration":160226,"Delta":1141901175},{"NoteNumber":82,"Velocity":44,"Duration":85984,"SoundDuration":85984,"Delta":1141975418},{"NoteNumber":86,"Velocity":67,"Duration":1097760,"SoundDuration":1097760,"Delta":1142061402},{"NoteNumber":74,"Velocity":52,"Duration":1097760,"SoundDuration":1097760,"Delta":1142061402},{"NoteNumber":53,"Velocity":31,"Duration":155038,"SoundDuration":155038,"Delta":1142061402},{"NoteNumber":65,"Velocity":24,"Duration":155038,"SoundDuration":155038,"Delta":1142216440},{"NoteNumber":62,"Velocity":24,"Duration":155038,"SoundDuration":155038,"Delta":1142371479},{"NoteNumber":65,"Velocity":24,"Duration":155038,"SoundDuration":155038,"Delta":1142526518},{"NoteNumber":53,"Velocity":30,"Duration":159201,"SoundDuration":159201,"Delta":1142681557},{"NoteNumber":67,"Velocity":25,"Duration":159201,"SoundDuration":159201,"Delta":1142840758},{"NoteNumber":63,"Velocity":25,"Duration":159201,"SoundDuration":159201,"Delta":1142999960},{"NoteNumber":72,"Velocity":46,"Duration":159201,"SoundDuration":159201,"Delta":1143159162},{"NoteNumber":84,"Velocity":57,"Duration":159201,"SoundDuration":159201,"Delta":1143159162},{"NoteNumber":67,"Velocity":26,"Duration":159201,"SoundDuration":159201,"Delta":1143159162},{"NoteNumber":70,"Velocity":49,"Duration":318403,"SoundDuration":318403,"Delta":1143318364},{"NoteNumber":82,"Velocity":60,"Duration":318403,"SoundDuration":318403,"Delta":1143318364},{"NoteNumber":53,"Velocity":29,"Duration":159201,"SoundDuration":159201,"Delta":1143318364},{"NoteNumber":65,"Velocity":26,"Duration":159201,"SoundDuration":159201,"Delta":1143477565},{"NoteNumber":62,"Velocity":26,"Duration":159201,"SoundDuration":159201,"Delta":1143636767},{"NoteNumber":65,"Velocity":26,"Duration":159201,"SoundDuration":159201,"Delta":1143795969},{"NoteNumber":79,"Velocity":54,"Duration":648999,"SoundDuration":648999,"Delta":1143955171},{"NoteNumber":53,"Velocity":30,"Duration":162249,"SoundDuration":162249,"Delta":1143955171},{"NoteNumber":67,"Velocity":26,"Duration":162249,"SoundDuration":162249,"Delta":1144117420},{"NoteNumber":63,"Velocity":26,"Duration":162249,"SoundDuration":162249,"Delta":1144279670},{"NoteNumber":67,"Velocity":26,"Duration":162249,"SoundDuration":162249,"Delta":1144441920},{"NoteNumber":77,"Velocity":58,"Duration":1122489,"SoundDuration":1122489,"Delta":1144604170},{"NoteNumber":53,"Velocity":31,"Duration":161221,"SoundDuration":161221,"Delta":1144604170},{"NoteNumber":65,"Velocity":24,"Duration":161220,"SoundDuration":161220,"Delta":1144765391},{"NoteNumber":62,"Velocity":24,"Duration":161221,"SoundDuration":161221,"Delta":1144926612},{"NoteNumber":65,"Velocity":24,"Duration":161221,"SoundDuration":161221,"Delta":1145087833},{"NoteNumber":53,"Velocity":30,"Duration":159201,"SoundDuration":159201,"Delta":1145249054},{"NoteNumber":67,"Velocity":26,"Duration":159201,"SoundDuration":159201,"Delta":1145408255},{"NoteNumber":63,"Velocity":26,"Duration":159201,"SoundDuration":159201,"Delta":1145567457},{"NoteNumber":79,"Velocity":53,"Duration":159201,"SoundDuration":159201,"Delta":1145726659},{"NoteNumber":67,"Velocity":27,"Duration":159201,"SoundDuration":159201,"Delta":1145726659},{"NoteNumber":77,"Velocity":60,"Duration":318403,"SoundDuration":318403,"Delta":1145885861},{"NoteNumber":53,"Velocity":30,"Duration":159201,"SoundDuration":159201,"Delta":1145885861},{"NoteNumber":65,"Velocity":27,"Duration":159201,"SoundDuration":159201,"Delta":1146045062},{"NoteNumber":62,"Velocity":28,"Duration":159201,"SoundDuration":159201,"Delta":1146204264},{"NoteNumber":65,"Velocity":28,"Duration":159201,"SoundDuration":159201,"Delta":1146363466},{"NoteNumber":82,"Velocity":53,"Duration":72507,"SoundDuration":72507,"Delta":1146522668},{"NoteNumber":53,"Velocity":33,"Duration":143924,"SoundDuration":143924,"Delta":1146522668},{"NoteNumber":84,"Velocity":47,"Duration":71416,"SoundDuration":71416,"Delta":1146595176},{"NoteNumber":82,"Velocity":48,"Duration":69730,"SoundDuration":69730,"Delta":1146666593},{"NoteNumber":67,"Velocity":28,"Duration":138214,"SoundDuration":138214,"Delta":1146666593},{"NoteNumber":84,"Velocity":48,"Duration":68484,"SoundDuration":68484,"Delta":1146736323},{"NoteNumber":82,"Velocity":48,"Duration":68113,"SoundDuration":68113,"Delta":1146804808},{"NoteNumber":63,"Velocity":28,"Duration":136227,"SoundDuration":136227,"Delta":1146804808},{"NoteNumber":84,"Velocity":50,"Duration":68113,"SoundDuration":68113,"Delta":1146872921},{"NoteNumber":81,"Velocity":55,"Duration":73858,"SoundDuration":73858,"Delta":1146941035},{"NoteNumber":67,"Velocity":28,"Duration":161702,"SoundDuration":161702,"Delta":1146941035},{"NoteNumber":82,"Velocity":48,"Duration":87843,"SoundDuration":87843,"Delta":1147014893},{"NoteNumber":86,"Velocity":69,"Duration":1097760,"SoundDuration":1097760,"Delta":1147102737},{"NoteNumber":74,"Velocity":63,"Duration":1097760,"SoundDuration":1097760,"Delta":1147102737},{"NoteNumber":53,"Velocity":34,"Duration":155038,"SoundDuration":155038,"Delta":1147102737},{"NoteNumber":65,"Velocity":26,"Duration":155038,"SoundDuration":155038,"Delta":1147257776},{"NoteNumber":62,"Velocity":26,"Duration":155038,"SoundDuration":155038,"Delta":1147412815},{"NoteNumber":65,"Velocity":26,"Duration":155038,"SoundDuration":155038,"Delta":1147567854},{"NoteNumber":53,"Velocity":33,"Duration":159201,"SoundDuration":159201,"Delta":1147722892},{"NoteNumber":67,"Velocity":27,"Duration":159201,"SoundDuration":159201,"Delta":1147882094},{"NoteNumber":63,"Velocity":27,"Duration":159201,"SoundDuration":159201,"Delta":1148041296},{"NoteNumber":72,"Velocity":62,"Duration":159201,"SoundDuration":159201,"Delta":1148200498},{"NoteNumber":84,"Velocity":62,"Duration":159201,"SoundDuration":159201,"Delta":1148200498},{"NoteNumber":67,"Velocity":28,"Duration":159201,"SoundDuration":159201,"Delta":1148200498},{"NoteNumber":70,"Velocity":67,"Duration":318403,"SoundDuration":318403,"Delta":1148359699},{"NoteNumber":82,"Velocity":67,"Duration":318403,"SoundDuration":318403,"Delta":1148359699},{"NoteNumber":53,"Velocity":31,"Duration":159201,"SoundDuration":159201,"Delta":1148359699},{"NoteNumber":65,"Velocity":28,"Duration":159201,"SoundDuration":159201,"Delta":1148518901},{"NoteNumber":62,"Velocity":28,"Duration":159201,"SoundDuration":159201,"Delta":1148678103},{"NoteNumber":65,"Velocity":28,"Duration":159201,"SoundDuration":159201,"Delta":1148837305},{"NoteNumber":70,"Velocity":48,"Duration":653168,"SoundDuration":653168,"Delta":1148996506},{"NoteNumber":75,"Velocity":69,"Duration":653168,"SoundDuration":653168,"Delta":1148996506},{"NoteNumber":79,"Velocity":69,"Duration":653168,"SoundDuration":653168,"Delta":1148996506},{"NoteNumber":53,"Velocity":36,"Duration":163291,"SoundDuration":163291,"Delta":1148996506},{"NoteNumber":67,"Velocity":30,"Duration":163291,"SoundDuration":163291,"Delta":1149159798},{"NoteNumber":63,"Velocity":30,"Duration":163292,"SoundDuration":163292,"Delta":1149323090},{"NoteNumber":67,"Velocity":30,"Duration":163291,"SoundDuration":163291,"Delta":1149486382},{"NoteNumber":70,"Velocity":58,"Duration":636807,"SoundDuration":636807,"Delta":1149649674},{"NoteNumber":74,"Velocity":69,"Duration":636807,"SoundDuration":636807,"Delta":1149649674},{"NoteNumber":77,"Velocity":69,"Duration":636807,"SoundDuration":636807,"Delta":1149649674},{"NoteNumber":53,"Velocity":42,"Duration":159201,"SoundDuration":159201,"Delta":1149649674},{"NoteNumber":65,"Velocity":35,"Duration":159201,"SoundDuration":159201,"Delta":1149808876},{"NoteNumber":62,"Velocity":35,"Duration":159201,"SoundDuration":159201,"Delta":1149968078},{"NoteNumber":65,"Velocity":35,"Duration":159201,"SoundDuration":159201,"Delta":1150127280},{"NoteNumber":70,"Velocity":61,"Duration":628997,"SoundDuration":628997,"Delta":1150286481},{"NoteNumber":75,"Velocity":72,"Duration":628997,"SoundDuration":628997,"Delta":1150286481},{"NoteNumber":79,"Velocity":72,"Duration":628997,"SoundDuration":628997,"Delta":1150286481},{"NoteNumber":53,"Velocity":44,"Duration":157249,"SoundDuration":157249,"Delta":1150286481},{"NoteNumber":67,"Velocity":37,"Duration":157249,"SoundDuration":157249,"Delta":1150443731},{"NoteNumber":63,"Velocity":38,"Duration":157249,"SoundDuration":157249,"Delta":1150600980},{"NoteNumber":67,"Velocity":37,"Duration":157249,"SoundDuration":157249,"Delta":1150758229},{"NoteNumber":70,"Velocity":62,"Duration":628997,"SoundDuration":628997,"Delta":1150915478},{"NoteNumber":74,"Velocity":62,"Duration":628997,"SoundDuration":628997,"Delta":1150915478},{"NoteNumber":77,"Velocity":74,"Duration":628997,"SoundDuration":628997,"Delta":1150915478},{"NoteNumber":82,"Velocity":74,"Duration":628997,"SoundDuration":628997,"Delta":1150915478},{"NoteNumber":53,"Velocity":47,"Duration":157249,"SoundDuration":157249,"Delta":1150915478},{"NoteNumber":65,"Velocity":37,"Duration":157249,"SoundDuration":157249,"Delta":1151072728},{"NoteNumber":62,"Velocity":38,"Duration":157249,"SoundDuration":157249,"Delta":1151229977},{"NoteNumber":65,"Velocity":38,"Duration":157249,"SoundDuration":157249,"Delta":1151387226},{"NoteNumber":72,"Velocity":66,"Duration":661667,"SoundDuration":661667,"Delta":1151544475},{"NoteNumber":77,"Velocity":66,"Duration":661667,"SoundDuration":661667,"Delta":1151544475},{"NoteNumber":81,"Velocity":78,"Duration":661667,"SoundDuration":661667,"Delta":1151544475},{"NoteNumber":84,"Velocity":78,"Duration":661667,"SoundDuration":661667,"Delta":1151544475},{"NoteNumber":53,"Velocity":49,"Duration":165416,"SoundDuration":165416,"Delta":1151544475},{"NoteNumber":65,"Velocity":40,"Duration":165416,"SoundDuration":165416,"Delta":1151709892},{"NoteNumber":63,"Velocity":40,"Duration":165416,"SoundDuration":165416,"Delta":1151875309},{"NoteNumber":65,"Velocity":40,"Duration":165416,"SoundDuration":165416,"Delta":1152040726},{"NoteNumber":72,"Velocity":63,"Duration":1323333,"SoundDuration":1323333,"Delta":1152206142},{"NoteNumber":77,"Velocity":63,"Duration":1323333,"SoundDuration":1323333,"Delta":1152206142},{"NoteNumber":81,"Velocity":75,"Duration":1323333,"SoundDuration":1323333,"Delta":1152206142},{"NoteNumber":84,"Velocity":75,"Duration":1323333,"SoundDuration":1323333,"Delta":1152206142},{"NoteNumber":53,"Velocity":41,"Duration":2604973,"SoundDuration":2604973,"Delta":1152206142},{"NoteNumber":65,"Velocity":49,"Duration":2604973,"SoundDuration":2604973,"Delta":1152206142},{"NoteNumber":63,"Velocity":41,"Duration":2604973,"SoundDuration":2604973,"Delta":1152206142},{"NoteNumber":81,"Velocity":63,"Duration":213606,"SoundDuration":213606,"Delta":1153529476},{"NoteNumber":77,"Velocity":54,"Duration":213606,"SoundDuration":213606,"Delta":1153743083},{"NoteNumber":72,"Velocity":54,"Duration":213606,"SoundDuration":213606,"Delta":1153956690},{"NoteNumber":77,"Velocity":54,"Duration":213606,"SoundDuration":213606,"Delta":1154170296},{"NoteNumber":81,"Velocity":52,"Duration":213606,"SoundDuration":213606,"Delta":1154383903},{"NoteNumber":84,"Velocity":51,"Duration":213606,"SoundDuration":213606,"Delta":1154597510},{"NoteNumber":82,"Velocity":53,"Duration":219876,"SoundDuration":219876,"Delta":1154811116},{"NoteNumber":58,"Velocity":32,"Duration":633274,"SoundDuration":633274,"Delta":1154811116},{"NoteNumber":62,"Velocity":32,"Duration":633274,"SoundDuration":633274,"Delta":1154811116},{"NoteNumber":65,"Velocity":38,"Duration":633274,"SoundDuration":633274,"Delta":1154811116},{"NoteNumber":89,"Velocity":49,"Duration":211091,"SoundDuration":211091,"Delta":1155030993},{"NoteNumber":86,"Velocity":49,"Duration":101153,"SoundDuration":101153,"Delta":1155242085},{"NoteNumber":82,"Velocity":53,"Duration":100623,"SoundDuration":100623,"Delta":1155444391},{"NoteNumber":77,"Velocity":48,"Duration":100623,"SoundDuration":100623,"Delta":1155645639},{"NoteNumber":74,"Velocity":46,"Duration":100623,"SoundDuration":100623,"Delta":1155846887},{"NoteNumber":70,"Velocity":51,"Duration":102239,"SoundDuration":102239,"Delta":1156048134},{"NoteNumber":58,"Velocity":29,"Duration":306716,"SoundDuration":306716,"Delta":1156048134},{"NoteNumber":62,"Velocity":29,"Duration":306716,"SoundDuration":306716,"Delta":1156048134},{"NoteNumber":65,"Velocity":35,"Duration":306716,"SoundDuration":306716,"Delta":1156048134},{"NoteNumber":74,"Velocity":46,"Duration":102238,"SoundDuration":102238,"Delta":1156252612},{"NoteNumber":77,"Velocity":46,"Duration":102239,"SoundDuration":102239,"Delta":1156457090},{"NoteNumber":74,"Velocity":53,"Duration":105075,"SoundDuration":105075,"Delta":1156661568},{"NoteNumber":58,"Velocity":29,"Duration":315225,"SoundDuration":315225,"Delta":1156661568},{"NoteNumber":65,"Velocity":29,"Duration":315225,"SoundDuration":315225,"Delta":1156661568},{"NoteNumber":68,"Velocity":35,"Duration":315225,"SoundDuration":315225,"Delta":1156661568},{"NoteNumber":77,"Velocity":50,"Duration":105075,"SoundDuration":105075,"Delta":1156871719},{"NoteNumber":82,"Velocity":50,"Duration":105075,"SoundDuration":105075,"Delta":1157081869},{"NoteNumber":82,"Velocity":53,"Duration":216099,"SoundDuration":216099,"Delta":1157292019},{"NoteNumber":58,"Velocity":32,"Duration":627608,"SoundDuration":627608,"Delta":1157292019},{"NoteNumber":63,"Velocity":32,"Duration":627608,"SoundDuration":627608,"Delta":1157292019},{"NoteNumber":67,"Velocity":38,"Duration":627608,"SoundDuration":627608,"Delta":1157292019},{"NoteNumber":91,"Velocity":49,"Duration":209202,"SoundDuration":209202,"Delta":1157508119},{"NoteNumber":87,"Velocity":49,"Duration":101153,"SoundDuration":101153,"Delta":1157717321},{"NoteNumber":82,"Velocity":53,"Duration":101153,"SoundDuration":101153,"Delta":1157919628},{"NoteNumber":79,"Velocity":48,"Duration":101153,"SoundDuration":101153,"Delta":1158121934},{"NoteNumber":75,"Velocity":46,"Duration":101153,"SoundDuration":101153,"Delta":1158324240},{"NoteNumber":70,"Velocity":51,"Duration":101153,"SoundDuration":101153,"Delta":1158526547},{"NoteNumber":58,"Velocity":29,"Duration":303459,"SoundDuration":303459,"Delta":1158526547},{"NoteNumber":63,"Velocity":29,"Duration":303459,"SoundDuration":303459,"Delta":1158526547},{"NoteNumber":67,"Velocity":35,"Duration":303459,"SoundDuration":303459,"Delta":1158526547},{"NoteNumber":75,"Velocity":46,"Duration":101153,"SoundDuration":101153,"Delta":1158728853},{"NoteNumber":79,"Velocity":46,"Duration":101153,"SoundDuration":101153,"Delta":1158931159},{"NoteNumber":75,"Velocity":53,"Duration":103359,"SoundDuration":103359,"Delta":1159133466},{"NoteNumber":58,"Velocity":29,"Duration":310077,"SoundDuration":310077,"Delta":1159133466},{"NoteNumber":67,"Velocity":29,"Duration":310077,"SoundDuration":310077,"Delta":1159133466},{"NoteNumber":70,"Velocity":35,"Duration":310077,"SoundDuration":310077,"Delta":1159133466},{"NoteNumber":79,"Velocity":50,"Duration":103359,"SoundDuration":103359,"Delta":1159340184},{"NoteNumber":82,"Velocity":50,"Duration":103359,"SoundDuration":103359,"Delta":1159546902},{"NoteNumber":82,"Velocity":53,"Duration":217343,"SoundDuration":217343,"Delta":1159753621},{"NoteNumber":58,"Velocity":32,"Duration":629475,"SoundDuration":629475,"Delta":1159753621},{"NoteNumber":62,"Velocity":32,"Duration":629475,"SoundDuration":629475,"Delta":1159753621},{"NoteNumber":65,"Velocity":38,"Duration":629475,"SoundDuration":629475,"Delta":1159753621},{"NoteNumber":94,"Velocity":49,"Duration":209825,"SoundDuration":209825,"Delta":1159970965},{"NoteNumber":89,"Velocity":49,"Duration":101153,"SoundDuration":101153,"Delta":1160180790},{"NoteNumber":86,"Velocity":53,"Duration":101153,"SoundDuration":101153,"Delta":1160383096},{"NoteNumber":82,"Velocity":48,"Duration":101153,"SoundDuration":101153,"Delta":1160585403},{"NoteNumber":77,"Velocity":46,"Duration":101153,"SoundDuration":101153,"Delta":1160787709},{"NoteNumber":74,"Velocity":51,"Duration":101153,"SoundDuration":101153,"Delta":1160990015},{"NoteNumber":58,"Velocity":29,"Duration":303459,"SoundDuration":303459,"Delta":1160990015},{"NoteNumber":62,"Velocity":35,"Duration":303459,"SoundDuration":303459,"Delta":1160990015},{"NoteNumber":70,"Velocity":46,"Duration":101153,"SoundDuration":101153,"Delta":1161192322},{"NoteNumber":65,"Velocity":46,"Duration":101153,"SoundDuration":101153,"Delta":1161394628},{"NoteNumber":70,"Velocity":53,"Duration":102239,"SoundDuration":102239,"Delta":1161596934},{"NoteNumber":62,"Velocity":29,"Duration":306716,"SoundDuration":306716,"Delta":1161596934},{"NoteNumber":65,"Velocity":35,"Duration":306716,"SoundDuration":306716,"Delta":1161596934},{"NoteNumber":74,"Velocity":50,"Duration":102238,"SoundDuration":102238,"Delta":1161801412},{"NoteNumber":77,"Velocity":50,"Duration":102239,"SoundDuration":102239,"Delta":1162005890},{"NoteNumber":77,"Velocity":51,"Duration":204477,"SoundDuration":204477,"Delta":1162210368},{"NoteNumber":53,"Velocity":29,"Duration":306716,"SoundDuration":306716,"Delta":1162210368},{"NoteNumber":62,"Velocity":29,"Duration":306716,"SoundDuration":306716,"Delta":1162210368},{"NoteNumber":65,"Velocity":35,"Duration":306716,"SoundDuration":306716,"Delta":1162210368},{"NoteNumber":82,"Velocity":47,"Duration":204478,"SoundDuration":204478,"Delta":1162414846},{"NoteNumber":82,"Velocity":47,"Duration":102238,"SoundDuration":102238,"Delta":1162619324},{"NoteNumber":79,"Velocity":51,"Duration":207835,"SoundDuration":207835,"Delta":1162823802},{"NoteNumber":53,"Velocity":28,"Duration":311752,"SoundDuration":311752,"Delta":1162823802},{"NoteNumber":67,"Velocity":34,"Duration":311752,"SoundDuration":311752,"Delta":1162823802},{"NoteNumber":63,"Velocity":28,"Duration":311752,"SoundDuration":311752,"Delta":1162823802},{"NoteNumber":84,"Velocity":48,"Duration":207835,"SoundDuration":207835,"Delta":1163031638},{"NoteNumber":84,"Velocity":48,"Duration":103917,"SoundDuration":103917,"Delta":1163239473},{"NoteNumber":77,"Velocity":51,"Duration":207835,"SoundDuration":207835,"Delta":1163447308},{"NoteNumber":53,"Velocity":28,"Duration":311753,"SoundDuration":311753,"Delta":1163447308},{"NoteNumber":62,"Velocity":28,"Duration":311753,"SoundDuration":311753,"Delta":1163447308},{"NoteNumber":65,"Velocity":33,"Duration":311753,"SoundDuration":311753,"Delta":1163447308},{"NoteNumber":82,"Velocity":47,"Duration":207835,"SoundDuration":207835,"Delta":1163655144},{"NoteNumber":82,"Velocity":47,"Duration":103917,"SoundDuration":103917,"Delta":1163862979},{"NoteNumber":77,"Velocity":51,"Duration":207835,"SoundDuration":207835,"Delta":1164070814},{"NoteNumber":53,"Velocity":28,"Duration":311752,"SoundDuration":311752,"Delta":1164070814},{"NoteNumber":60,"Velocity":28,"Duration":311752,"SoundDuration":311752,"Delta":1164070814},{"NoteNumber":63,"Velocity":34,"Duration":311752,"SoundDuration":311752,"Delta":1164070814},{"NoteNumber":81,"Velocity":47,"Duration":207835,"SoundDuration":207835,"Delta":1164278650},{"NoteNumber":81,"Velocity":47,"Duration":103917,"SoundDuration":103917,"Delta":1164486485},{"NoteNumber":77,"Velocity":51,"Duration":207835,"SoundDuration":207835,"Delta":1164694320},{"NoteNumber":53,"Velocity":29,"Duration":311752,"SoundDuration":311752,"Delta":1164694320},{"NoteNumber":59,"Velocity":29,"Duration":311752,"SoundDuration":311752,"Delta":1164694320},{"NoteNumber":62,"Velocity":35,"Duration":311752,"SoundDuration":311752,"Delta":1164694320},{"NoteNumber":80,"Velocity":47,"Duration":207835,"SoundDuration":207835,"Delta":1164902156},{"NoteNumber":80,"Velocity":47,"Duration":103917,"SoundDuration":103917,"Delta":1165109991},{"NoteNumber":77,"Velocity":52,"Duration":207835,"SoundDuration":207835,"Delta":1165317826},{"NoteNumber":53,"Velocity":28,"Duration":311753,"SoundDuration":311753,"Delta":1165317826},{"NoteNumber":62,"Velocity":35,"Duration":311753,"SoundDuration":311753,"Delta":1165317826},{"NoteNumber":59,"Velocity":28,"Duration":311753,"SoundDuration":311753,"Delta":1165317826},{"NoteNumber":79,"Velocity":50,"Duration":207835,"SoundDuration":207835,"Delta":1165525662},{"NoteNumber":79,"Velocity":50,"Duration":103917,"SoundDuration":103917,"Delta":1165733497},{"NoteNumber":71,"Velocity":46,"Duration":207835,"SoundDuration":207835,"Delta":1165941332},{"NoteNumber":74,"Velocity":54,"Duration":207835,"SoundDuration":207835,"Delta":1165941332},{"NoteNumber":53,"Velocity":29,"Duration":311752,"SoundDuration":311752,"Delta":1165941332},{"NoteNumber":59,"Velocity":29,"Duration":311752,"SoundDuration":311752,"Delta":1165941332},{"NoteNumber":62,"Velocity":35,"Duration":311752,"SoundDuration":311752,"Delta":1165941332},{"NoteNumber":80,"Velocity":50,"Duration":207835,"SoundDuration":207835,"Delta":1166149168},{"NoteNumber":80,"Velocity":51,"Duration":103917,"SoundDuration":103917,"Delta":1166357003},{"NoteNumber":71,"Velocity":47,"Duration":207835,"SoundDuration":207835,"Delta":1166564838},{"NoteNumber":74,"Velocity":56,"Duration":207835,"SoundDuration":207835,"Delta":1166564838},{"NoteNumber":53,"Velocity":31,"Duration":311752,"SoundDuration":311752,"Delta":1166564838},{"NoteNumber":59,"Velocity":31,"Duration":311752,"SoundDuration":311752,"Delta":1166564838},{"NoteNumber":62,"Velocity":37,"Duration":311752,"SoundDuration":311752,"Delta":1166564838},{"NoteNumber":79,"Velocity":52,"Duration":207835,"SoundDuration":207835,"Delta":1166772674},{"NoteNumber":79,"Velocity":53,"Duration":103917,"SoundDuration":103917,"Delta":1166980509},{"NoteNumber":70,"Velocity":49,"Duration":207835,"SoundDuration":207835,"Delta":1167188344},{"NoteNumber":75,"Velocity":58,"Duration":207835,"SoundDuration":207835,"Delta":1167188344},{"NoteNumber":51,"Velocity":33,"Duration":312035,"SoundDuration":312035,"Delta":1167188344},{"NoteNumber":58,"Velocity":33,"Duration":312035,"SoundDuration":312035,"Delta":1167188344},{"NoteNumber":63,"Velocity":40,"Duration":312035,"SoundDuration":312035,"Delta":1167188344},{"NoteNumber":80,"Velocity":54,"Duration":208682,"SoundDuration":208682,"Delta":1167396180},{"NoteNumber":80,"Velocity":54,"Duration":104778,"SoundDuration":104778,"Delta":1167604862},{"NoteNumber":70,"Velocity":49,"Duration":211016,"SoundDuration":211016,"Delta":1167814716},{"NoteNumber":75,"Velocity":58,"Duration":211016,"SoundDuration":211016,"Delta":1167814716},{"NoteNumber":51,"Velocity":31,"Duration":316668,"SoundDuration":316668,"Delta":1167814716},{"NoteNumber":63,"Velocity":38,"Duration":316668,"SoundDuration":316668,"Delta":1167814716},{"NoteNumber":58,"Velocity":31,"Duration":316668,"SoundDuration":316668,"Delta":1167814716},{"NoteNumber":79,"Velocity":54,"Duration":211888,"SoundDuration":211888,"Delta":1168025732},{"NoteNumber":79,"Velocity":54,"Duration":106235,"SoundDuration":106235,"Delta":1168237620},{"NoteNumber":70,"Velocity":48,"Duration":214283,"SoundDuration":214283,"Delta":1168450694},{"NoteNumber":74,"Velocity":57,"Duration":214283,"SoundDuration":214283,"Delta":1168450694},{"NoteNumber":53,"Velocity":31,"Duration":321729,"SoundDuration":321729,"Delta":1168450694},{"NoteNumber":58,"Velocity":31,"Duration":321729,"SoundDuration":321729,"Delta":1168450694},{"NoteNumber":62,"Velocity":37,"Duration":321729,"SoundDuration":321729,"Delta":1168450694},{"NoteNumber":77,"Velocity":53,"Duration":215495,"SoundDuration":215495,"Delta":1168664978},{"NoteNumber":77,"Velocity":52,"Duration":108049,"SoundDuration":108049,"Delta":1168880473},{"NoteNumber":69,"Velocity":48,"Duration":217652,"SoundDuration":217652,"Delta":1169096884},{"NoteNumber":72,"Velocity":57,"Duration":217652,"SoundDuration":217652,"Delta":1169096884},{"NoteNumber":53,"Velocity":31,"Duration":326942,"SoundDuration":326942,"Delta":1169096884},{"NoteNumber":60,"Velocity":31,"Duration":326942,"SoundDuration":326942,"Delta":1169096884},{"NoteNumber":63,"Velocity":38,"Duration":326942,"SoundDuration":326942,"Delta":1169096884},{"NoteNumber":77,"Velocity":52,"Duration":218903,"SoundDuration":218903,"Delta":1169314537},{"NoteNumber":77,"Velocity":52,"Duration":109938,"SoundDuration":109938,"Delta":1169533440},{"NoteNumber":70,"Velocity":41,"Duration":632419,"SoundDuration":632419,"Delta":1169753633},{"NoteNumber":74,"Velocity":41,"Duration":632419,"SoundDuration":632419,"Delta":1169753633},{"NoteNumber":77,"Velocity":49,"Duration":632419,"SoundDuration":632419,"Delta":1169753633},{"NoteNumber":58,"Velocity":47,"Duration":220288,"SoundDuration":220288,"Delta":1169753633},{"NoteNumber":65,"Velocity":44,"Duration":209825,"SoundDuration":209825,"Delta":1169973922},{"NoteNumber":62,"Velocity":44,"Duration":101153,"SoundDuration":101153,"Delta":1170183747},{"NoteNumber":58,"Velocity":47,"Duration":101153,"SoundDuration":101153,"Delta":1170386053},{"NoteNumber":53,"Velocity":43,"Duration":101153,"SoundDuration":101153,"Delta":1170588360},{"NoteNumber":50,"Velocity":41,"Duration":101153,"SoundDuration":101153,"Delta":1170790666},{"NoteNumber":82,"Velocity":49,"Duration":305094,"SoundDuration":305094,"Delta":1170992972},{"NoteNumber":74,"Velocity":40,"Duration":305094,"SoundDuration":305094,"Delta":1170992972},{"NoteNumber":77,"Velocity":40,"Duration":305094,"SoundDuration":305094,"Delta":1170992972},{"NoteNumber":46,"Velocity":45,"Duration":101698,"SoundDuration":101698,"Delta":1170992972},{"NoteNumber":50,"Velocity":41,"Duration":101698,"SoundDuration":101698,"Delta":1171196369},{"NoteNumber":53,"Velocity":41,"Duration":101698,"SoundDuration":101698,"Delta":1171399766},{"NoteNumber":77,"Velocity":40,"Duration":312035,"SoundDuration":312035,"Delta":1171603162},{"NoteNumber":80,"Velocity":40,"Duration":312035,"SoundDuration":312035,"Delta":1171603162},{"NoteNumber":82,"Velocity":49,"Duration":312035,"SoundDuration":312035,"Delta":1171603162},{"NoteNumber":50,"Velocity":47,"Duration":104199,"SoundDuration":104199,"Delta":1171603162},{"NoteNumber":53,"Velocity":45,"Duration":103917,"SoundDuration":103917,"Delta":1171811280},{"NoteNumber":58,"Velocity":45,"Duration":103917,"SoundDuration":103917,"Delta":1172019115},{"NoteNumber":75,"Velocity":45,"Duration":623972,"SoundDuration":623972,"Delta":1172226951},{"NoteNumber":79,"Velocity":45,"Duration":623972,"SoundDuration":623972,"Delta":1172226951},{"NoteNumber":82,"Velocity":53,"Duration":623972,"SoundDuration":623972,"Delta":1172226951},{"NoteNumber":58,"Velocity":47,"Duration":213675,"SoundDuration":213675,"Delta":1172226951},{"NoteNumber":67,"Velocity":44,"Duration":207990,"SoundDuration":207990,"Delta":1172440626},{"NoteNumber":63,"Velocity":44,"Duration":101153,"SoundDuration":101153,"Delta":1172648617},{"NoteNumber":58,"Velocity":47,"Duration":101153,"SoundDuration":101153,"Delta":1172850923},{"NoteNumber":55,"Velocity":43,"Duration":101153,"SoundDuration":101153,"Delta":1173053229},{"NoteNumber":51,"Velocity":41,"Duration":101153,"SoundDuration":101153,"Delta":1173255536},{"NoteNumber":75,"Velocity":40,"Duration":306716,"SoundDuration":306716,"Delta":1173457842},{"NoteNumber":79,"Velocity":40,"Duration":306716,"SoundDuration":306716,"Delta":1173457842},{"NoteNumber":82,"Velocity":49,"Duration":306716,"SoundDuration":306716,"Delta":1173457842},{"NoteNumber":46,"Velocity":45,"Duration":102239,"SoundDuration":102239,"Delta":1173457842},{"NoteNumber":51,"Velocity":41,"Duration":102238,"SoundDuration":102238,"Delta":1173662320},{"NoteNumber":55,"Velocity":41,"Duration":102239,"SoundDuration":102239,"Delta":1173866798},{"NoteNumber":79,"Velocity":40,"Duration":311752,"SoundDuration":311752,"Delta":1174071276},{"NoteNumber":82,"Velocity":49,"Duration":311752,"SoundDuration":311752,"Delta":1174071276},{"NoteNumber":51,"Velocity":47,"Duration":103917,"SoundDuration":103917,"Delta":1174071276},{"NoteNumber":55,"Velocity":45,"Duration":103917,"SoundDuration":103917,"Delta":1174279111},{"NoteNumber":58,"Velocity":45,"Duration":103917,"SoundDuration":103917,"Delta":1174486947},{"NoteNumber":74,"Velocity":45,"Duration":629475,"SoundDuration":629475,"Delta":1174694782},{"NoteNumber":77,"Velocity":45,"Duration":629475,"SoundDuration":629475,"Delta":1174694782},{"NoteNumber":82,"Velocity":53,"Duration":629475,"SoundDuration":629475,"Delta":1174694782},{"NoteNumber":58,"Velocity":47,"Duration":217343,"SoundDuration":217343,"Delta":1174694782},{"NoteNumber":70,"Velocity":44,"Duration":209825,"SoundDuration":209825,"Delta":1174912126},{"NoteNumber":65,"Velocity":44,"Duration":101153,"SoundDuration":101153,"Delta":1175121951},{"NoteNumber":62,"Velocity":47,"Duration":101153,"SoundDuration":101153,"Delta":1175324258},{"NoteNumber":58,"Velocity":43,"Duration":101153,"SoundDuration":101153,"Delta":1175526564},{"NoteNumber":53,"Velocity":41,"Duration":101153,"SoundDuration":101153,"Delta":1175728870},{"NoteNumber":77,"Velocity":44,"Duration":308387,"SoundDuration":308387,"Delta":1175931177},{"NoteNumber":82,"Velocity":44,"Duration":308387,"SoundDuration":308387,"Delta":1175931177},{"NoteNumber":86,"Velocity":53,"Duration":308387,"SoundDuration":308387,"Delta":1175931177},{"NoteNumber":50,"Velocity":45,"Duration":102795,"SoundDuration":102795,"Delta":1175931177},{"NoteNumber":46,"Velocity":41,"Duration":102795,"SoundDuration":102795,"Delta":1176136769},{"NoteNumber":41,"Velocity":41,"Duration":102795,"SoundDuration":102795,"Delta":1176342361},{"NoteNumber":77,"Velocity":44,"Duration":313446,"SoundDuration":313446,"Delta":1176547953},{"NoteNumber":86,"Velocity":44,"Duration":313446,"SoundDuration":313446,"Delta":1176547953},{"NoteNumber":89,"Velocity":53,"Duration":313446,"SoundDuration":313446,"Delta":1176547953},{"NoteNumber":46,"Velocity":47,"Duration":104482,"SoundDuration":104482,"Delta":1176547953},{"NoteNumber":50,"Velocity":45,"Duration":104482,"SoundDuration":104482,"Delta":1176756917},{"NoteNumber":53,"Velocity":45,"Duration":104482,"SoundDuration":104482,"Delta":1176965882},{"NoteNumber":89,"Velocity":56,"Duration":205592,"SoundDuration":205592,"Delta":1177174847},{"NoteNumber":53,"Velocity":29,"Duration":308387,"SoundDuration":308387,"Delta":1177174847},{"NoteNumber":62,"Velocity":29,"Duration":308387,"SoundDuration":308387,"Delta":1177174847},{"NoteNumber":65,"Velocity":35,"Duration":308387,"SoundDuration":308387,"Delta":1177174847},{"NoteNumber":94,"Velocity":51,"Duration":205592,"SoundDuration":205592,"Delta":1177380439},{"NoteNumber":94,"Velocity":51,"Duration":102795,"SoundDuration":102795,"Delta":1177586031},{"NoteNumber":91,"Velocity":56,"Duration":205592,"SoundDuration":205592,"Delta":1177791623},{"NoteNumber":65,"Velocity":28,"Duration":308387,"SoundDuration":308387,"Delta":1177791623},{"NoteNumber":79,"Velocity":34,"Duration":308387,"SoundDuration":308387,"Delta":1177791623},{"NoteNumber":75,"Velocity":28,"Duration":308387,"SoundDuration":308387,"Delta":1177791623},{"NoteNumber":96,"Velocity":52,"Duration":205591,"SoundDuration":205591,"Delta":1177997215},{"NoteNumber":96,"Velocity":52,"Duration":102796,"SoundDuration":102796,"Delta":1178202807},{"NoteNumber":89,"Velocity":56,"Duration":205592,"SoundDuration":205592,"Delta":1178408399},{"NoteNumber":65,"Velocity":28,"Duration":308388,"SoundDuration":308388,"Delta":1178408399},{"NoteNumber":74,"Velocity":28,"Duration":308388,"SoundDuration":308388,"Delta":1178408399},{"NoteNumber":77,"Velocity":33,"Duration":308388,"SoundDuration":308388,"Delta":1178408399},{"NoteNumber":94,"Velocity":51,"Duration":205592,"SoundDuration":205592,"Delta":1178613991},{"NoteNumber":94,"Velocity":51,"Duration":102796,"SoundDuration":102796,"Delta":1178819583},{"NoteNumber":89,"Velocity":56,"Duration":205592,"SoundDuration":205592,"Delta":1179025175},{"NoteNumber":65,"Velocity":28,"Duration":308387,"SoundDuration":308387,"Delta":1179025175},{"NoteNumber":72,"Velocity":28,"Duration":308387,"SoundDuration":308387,"Delta":1179025175},{"NoteNumber":75,"Velocity":34,"Duration":308387,"SoundDuration":308387,"Delta":1179025175},{"NoteNumber":93,"Velocity":51,"Duration":205592,"SoundDuration":205592,"Delta":1179230767},{"NoteNumber":93,"Velocity":51,"Duration":102795,"SoundDuration":102795,"Delta":1179436359},{"NoteNumber":89,"Velocity":56,"Duration":208964,"SoundDuration":208964,"Delta":1179641951},{"NoteNumber":65,"Velocity":29,"Duration":313446,"SoundDuration":313446,"Delta":1179641951},{"NoteNumber":71,"Velocity":29,"Duration":313446,"SoundDuration":313446,"Delta":1179641951},{"NoteNumber":74,"Velocity":35,"Duration":313446,"SoundDuration":313446,"Delta":1179641951},{"NoteNumber":92,"Velocity":51,"Duration":208964,"SoundDuration":208964,"Delta":1179850915},{"NoteNumber":92,"Velocity":51,"Duration":104482,"SoundDuration":104482,"Delta":1180059880},{"NoteNumber":89,"Velocity":57,"Duration":208964,"SoundDuration":208964,"Delta":1180268845},{"NoteNumber":65,"Velocity":28,"Duration":313446,"SoundDuration":313446,"Delta":1180268845},{"NoteNumber":74,"Velocity":35,"Duration":313446,"SoundDuration":313446,"Delta":1180268845},{"NoteNumber":71,"Velocity":28,"Duration":313446,"SoundDuration":313446,"Delta":1180268845},{"NoteNumber":91,"Velocity":55,"Duration":208964,"SoundDuration":208964,"Delta":1180477809},{"NoteNumber":91,"Velocity":55,"Duration":104482,"SoundDuration":104482,"Delta":1180686774},{"NoteNumber":83,"Velocity":58,"Duration":208964,"SoundDuration":208964,"Delta":1180895739},{"NoteNumber":86,"Velocity":58,"Duration":208964,"SoundDuration":208964,"Delta":1180895739},{"NoteNumber":65,"Velocity":29,"Duration":313446,"SoundDuration":313446,"Delta":1180895739},{"NoteNumber":71,"Velocity":29,"Duration":313446,"SoundDuration":313446,"Delta":1180895739},{"NoteNumber":74,"Velocity":35,"Duration":313446,"SoundDuration":313446,"Delta":1180895739},{"NoteNumber":92,"Velocity":53,"Duration":208964,"SoundDuration":208964,"Delta":1181104703},{"NoteNumber":92,"Velocity":53,"Duration":104482,"SoundDuration":104482,"Delta":1181313668},{"NoteNumber":83,"Velocity":48,"Duration":208964,"SoundDuration":208964,"Delta":1181522633},{"NoteNumber":86,"Velocity":57,"Duration":208964,"SoundDuration":208964,"Delta":1181522633},{"NoteNumber":65,"Velocity":31,"Duration":313446,"SoundDuration":313446,"Delta":1181522633},{"NoteNumber":71,"Velocity":31,"Duration":313446,"SoundDuration":313446,"Delta":1181522633},{"NoteNumber":74,"Velocity":37,"Duration":313446,"SoundDuration":313446,"Delta":1181522633},{"NoteNumber":91,"Velocity":54,"Duration":208964,"SoundDuration":208964,"Delta":1181731597},{"NoteNumber":91,"Velocity":54,"Duration":104482,"SoundDuration":104482,"Delta":1181940562},{"NoteNumber":82,"Velocity":48,"Duration":209853,"SoundDuration":209853,"Delta":1182149527},{"NoteNumber":87,"Velocity":57,"Duration":209853,"SoundDuration":209853,"Delta":1182149527},{"NoteNumber":63,"Velocity":33,"Duration":314929,"SoundDuration":314929,"Delta":1182149527},{"NoteNumber":70,"Velocity":33,"Duration":314929,"SoundDuration":314929,"Delta":1182149527},{"NoteNumber":75,"Velocity":40,"Duration":314929,"SoundDuration":314929,"Delta":1182149527},{"NoteNumber":92,"Velocity":52,"Duration":210150,"SoundDuration":210150,"Delta":1182359380},{"NoteNumber":92,"Velocity":52,"Duration":105363,"SoundDuration":105363,"Delta":1182569531},{"NoteNumber":82,"Velocity":48,"Duration":211304,"SoundDuration":211304,"Delta":1182780547},{"NoteNumber":87,"Velocity":57,"Duration":211304,"SoundDuration":211304,"Delta":1182780547},{"NoteNumber":63,"Velocity":31,"Duration":317540,"SoundDuration":317540,"Delta":1182780547},{"NoteNumber":75,"Velocity":38,"Duration":317540,"SoundDuration":317540,"Delta":1182780547},{"NoteNumber":70,"Velocity":31,"Duration":317540,"SoundDuration":317540,"Delta":1182780547},{"NoteNumber":91,"Velocity":53,"Duration":212471,"SoundDuration":212471,"Delta":1182991852},{"NoteNumber":91,"Velocity":52,"Duration":106236,"SoundDuration":106236,"Delta":1183204324},{"NoteNumber":82,"Velocity":48,"Duration":213675,"SoundDuration":213675,"Delta":1183416796},{"NoteNumber":86,"Velocity":57,"Duration":213675,"SoundDuration":213675,"Delta":1183416796},{"NoteNumber":65,"Velocity":31,"Duration":320512,"SoundDuration":320512,"Delta":1183416796},{"NoteNumber":70,"Velocity":31,"Duration":320512,"SoundDuration":320512,"Delta":1183416796},{"NoteNumber":74,"Velocity":37,"Duration":320512,"SoundDuration":320512,"Delta":1183416796},{"NoteNumber":89,"Velocity":53,"Duration":213979,"SoundDuration":213979,"Delta":1183630471},{"NoteNumber":89,"Velocity":49,"Duration":107445,"SoundDuration":107445,"Delta":1183844450},{"NoteNumber":81,"Velocity":45,"Duration":215193,"SoundDuration":215193,"Delta":1184059342},{"NoteNumber":84,"Velocity":54,"Duration":215193,"SoundDuration":215193,"Delta":1184059342},{"NoteNumber":65,"Velocity":31,"Duration":323243,"SoundDuration":323243,"Delta":1184059342},{"NoteNumber":72,"Velocity":31,"Duration":323243,"SoundDuration":323243,"Delta":1184059342},{"NoteNumber":75,"Velocity":38,"Duration":323243,"SoundDuration":323243,"Delta":1184059342},{"NoteNumber":89,"Velocity":48,"Duration":216099,"SoundDuration":216099,"Delta":1184274536},{"NoteNumber":89,"Velocity":48,"Duration":108049,"SoundDuration":108049,"Delta":1184490636},{"NoteNumber":75,"Velocity":45,"Duration":216099,"SoundDuration":216099,"Delta":1184707357},{"NoteNumber":51,"Velocity":26,"Duration":324149,"SoundDuration":324149,"Delta":1184707357},{"NoteNumber":57,"Velocity":26,"Duration":324149,"SoundDuration":324149,"Delta":1184707357},{"NoteNumber":60,"Velocity":31,"Duration":324149,"SoundDuration":324149,"Delta":1184707357},{"NoteNumber":78,"Velocity":42,"Duration":216099,"SoundDuration":216099,"Delta":1184923457},{"NoteNumber":78,"Velocity":42,"Duration":108049,"SoundDuration":108049,"Delta":1185139556},{"NoteNumber":75,"Velocity":46,"Duration":216099,"SoundDuration":216099,"Delta":1185355655},{"NoteNumber":51,"Velocity":25,"Duration":324149,"SoundDuration":324149,"Delta":1185355655},{"NoteNumber":60,"Velocity":31,"Duration":324149,"SoundDuration":324149,"Delta":1185355655},{"NoteNumber":57,"Velocity":25,"Duration":324149,"SoundDuration":324149,"Delta":1185355655},{"NoteNumber":77,"Velocity":45,"Duration":216099,"SoundDuration":216099,"Delta":1185571755},{"NoteNumber":77,"Velocity":45,"Duration":108049,"SoundDuration":108049,"Delta":1185787854},{"NoteNumber":69,"Velocity":41,"Duration":216099,"SoundDuration":216099,"Delta":1186003953},{"NoteNumber":72,"Velocity":48,"Duration":216099,"SoundDuration":216099,"Delta":1186003953},{"NoteNumber":51,"Velocity":26,"Duration":324149,"SoundDuration":324149,"Delta":1186003953},{"NoteNumber":57,"Velocity":26,"Duration":324149,"SoundDuration":324149,"Delta":1186003953},{"NoteNumber":60,"Velocity":31,"Duration":324149,"SoundDuration":324149,"Delta":1186003953},{"NoteNumber":78,"Velocity":45,"Duration":216099,"SoundDuration":216099,"Delta":1186220053},{"NoteNumber":78,"Velocity":45,"Duration":108049,"SoundDuration":108049,"Delta":1186436152},{"NoteNumber":69,"Velocity":42,"Duration":216099,"SoundDuration":216099,"Delta":1186652251},{"NoteNumber":72,"Velocity":50,"Duration":216099,"SoundDuration":216099,"Delta":1186652251},{"NoteNumber":51,"Velocity":27,"Duration":324149,"SoundDuration":324149,"Delta":1186652251},{"NoteNumber":57,"Velocity":27,"Duration":324149,"SoundDuration":324149,"Delta":1186652251},{"NoteNumber":60,"Velocity":33,"Duration":324149,"SoundDuration":324149,"Delta":1186652251},{"NoteNumber":77,"Velocity":46,"Duration":216099,"SoundDuration":216099,"Delta":1186868351},{"NoteNumber":77,"Velocity":47,"Duration":108049,"SoundDuration":108049,"Delta":1187084450},{"NoteNumber":68,"Velocity":44,"Duration":216099,"SoundDuration":216099,"Delta":1187300549},{"NoteNumber":73,"Velocity":52,"Duration":216099,"SoundDuration":216099,"Delta":1187300549},{"NoteNumber":49,"Velocity":29,"Duration":324148,"SoundDuration":324148,"Delta":1187300549},{"NoteNumber":56,"Velocity":29,"Duration":324148,"SoundDuration":324148,"Delta":1187300549},{"NoteNumber":61,"Velocity":36,"Duration":324148,"SoundDuration":324148,"Delta":1187300549},{"NoteNumber":78,"Velocity":48,"Duration":216721,"SoundDuration":216721,"Delta":1187516649},{"NoteNumber":78,"Velocity":48,"Duration":108671,"SoundDuration":108671,"Delta":1187733370},{"NoteNumber":68,"Velocity":44,"Duration":218579,"SoundDuration":218579,"Delta":1187951023},{"NoteNumber":73,"Velocity":52,"Duration":218579,"SoundDuration":218579,"Delta":1187951023},{"NoteNumber":49,"Velocity":27,"Duration":328517,"SoundDuration":328517,"Delta":1187951023},{"NoteNumber":61,"Velocity":34,"Duration":328517,"SoundDuration":328517,"Delta":1187951023},{"NoteNumber":56,"Velocity":27,"Duration":328517,"SoundDuration":328517,"Delta":1187951023},{"NoteNumber":77,"Velocity":48,"Duration":219876,"SoundDuration":219876,"Delta":1188169602},{"NoteNumber":77,"Velocity":48,"Duration":110570,"SoundDuration":110570,"Delta":1188389479},{"NoteNumber":68,"Velocity":43,"Duration":222100,"SoundDuration":222100,"Delta":1188610620},{"NoteNumber":72,"Velocity":51,"Duration":222100,"SoundDuration":222100,"Delta":1188610620},{"NoteNumber":51,"Velocity":27,"Duration":333310,"SoundDuration":333310,"Delta":1188610620},{"NoteNumber":56,"Velocity":27,"Duration":333310,"SoundDuration":333310,"Delta":1188610620},{"NoteNumber":60,"Velocity":33,"Duration":333310,"SoundDuration":333310,"Delta":1188610620},{"NoteNumber":75,"Velocity":47,"Duration":223079,"SoundDuration":223079,"Delta":1188832721},{"NoteNumber":75,"Velocity":46,"Duration":111869,"SoundDuration":111869,"Delta":1189055800},{"NoteNumber":67,"Velocity":43,"Duration":225385,"SoundDuration":225385,"Delta":1189280193},{"NoteNumber":70,"Velocity":51,"Duration":225385,"SoundDuration":225385,"Delta":1189280193},{"NoteNumber":51,"Velocity":27,"Duration":338584,"SoundDuration":338584,"Delta":1189280193},{"NoteNumber":58,"Velocity":27,"Duration":338584,"SoundDuration":338584,"Delta":1189280193},{"NoteNumber":61,"Velocity":34,"Duration":338584,"SoundDuration":338584,"Delta":1189280193},{"NoteNumber":75,"Velocity":46,"Duration":226398,"SoundDuration":226398,"Delta":1189505578},{"NoteNumber":75,"Velocity":46,"Duration":113882,"SoundDuration":113882,"Delta":1189731976},{"NoteNumber":78,"Velocity":41,"Duration":216099,"SoundDuration":216099,"Delta":1191263805},{"NoteNumber":83,"Velocity":48,"Duration":216099,"SoundDuration":216099,"Delta":1191263805},{"NoteNumber":71,"Velocity":31,"Duration":324149,"SoundDuration":324149,"Delta":1191263805},{"NoteNumber":87,"Velocity":45,"Duration":216099,"SoundDuration":216099,"Delta":1191479904},{"NoteNumber":87,"Velocity":45,"Duration":108049,"SoundDuration":108049,"Delta":1191696003},{"NoteNumber":78,"Velocity":41,"Duration":216099,"SoundDuration":216099,"Delta":1191912103},{"NoteNumber":83,"Velocity":49,"Duration":216099,"SoundDuration":216099,"Delta":1191912103},{"NoteNumber":68,"Velocity":33,"Duration":324149,"SoundDuration":324149,"Delta":1191912103},{"NoteNumber":86,"Velocity":44,"Duration":216099,"SoundDuration":216099,"Delta":1192128202},{"NoteNumber":86,"Velocity":44,"Duration":108049,"SoundDuration":108049,"Delta":1192344301},{"NoteNumber":78,"Velocity":42,"Duration":216099,"SoundDuration":216099,"Delta":1192560401},{"NoteNumber":82,"Velocity":50,"Duration":216099,"SoundDuration":216099,"Delta":1192560401},{"NoteNumber":73,"Velocity":33,"Duration":324149,"SoundDuration":324149,"Delta":1192560401},{"NoteNumber":85,"Velocity":46,"Duration":216721,"SoundDuration":216721,"Delta":1192776500},{"NoteNumber":85,"Velocity":46,"Duration":108671,"SoundDuration":108671,"Delta":1192993222},{"NoteNumber":77,"Velocity":40,"Duration":218579,"SoundDuration":218579,"Delta":1193210875},{"NoteNumber":80,"Velocity":48,"Duration":218579,"SoundDuration":218579,"Delta":1193210875},{"NoteNumber":73,"Velocity":31,"Duration":328517,"SoundDuration":328517,"Delta":1193210875},{"NoteNumber":85,"Velocity":44,"Duration":219876,"SoundDuration":219876,"Delta":1193429454},{"NoteNumber":85,"Velocity":44,"Duration":110570,"SoundDuration":110570,"Delta":1193649331},{"NoteNumber":66,"Velocity":37,"Duration":219876,"SoundDuration":219876,"Delta":1194533895},{"NoteNumber":69,"Velocity":44,"Duration":219876,"SoundDuration":219876,"Delta":1194533895},{"NoteNumber":49,"Velocity":29,"Duration":329815,"SoundDuration":329815,"Delta":1194533895},{"NoteNumber":73,"Velocity":39,"Duration":219876,"SoundDuration":219876,"Delta":1194753772},{"NoteNumber":73,"Velocity":39,"Duration":109938,"SoundDuration":109938,"Delta":1194973649},{"NoteNumber":65,"Velocity":38,"Duration":225047,"SoundDuration":225047,"Delta":1195193526},{"NoteNumber":68,"Velocity":45,"Duration":225047,"SoundDuration":225047,"Delta":1195193526},{"NoteNumber":49,"Velocity":29,"Duration":337571,"SoundDuration":337571,"Delta":1195193526},{"NoteNumber":73,"Velocity":41,"Duration":225047,"SoundDuration":225047,"Delta":1195418574},{"NoteNumber":73,"Velocity":41,"Duration":112523,"SoundDuration":112523,"Delta":1195643621},{"NoteNumber":65,"Velocity":33,"Duration":229121,"SoundDuration":229121,"Delta":1196543812},{"NoteNumber":68,"Velocity":39,"Duration":229121,"SoundDuration":229121,"Delta":1196543812},{"NoteNumber":50,"Velocity":26,"Duration":343681,"SoundDuration":343681,"Delta":1196543812},{"NoteNumber":71,"Velocity":35,"Duration":229121,"SoundDuration":229121,"Delta":1196772933},{"NoteNumber":71,"Velocity":35,"Duration":114560,"SoundDuration":114560,"Delta":1197002055},{"NoteNumber":65,"Velocity":34,"Duration":248570,"SoundDuration":248570,"Delta":1197231176},{"NoteNumber":68,"Velocity":40,"Duration":248570,"SoundDuration":248570,"Delta":1197231176},{"NoteNumber":50,"Velocity":26,"Duration":372855,"SoundDuration":372855,"Delta":1197231176},{"NoteNumber":70,"Velocity":36,"Duration":248570,"SoundDuration":248570,"Delta":1197479747},{"NoteNumber":70,"Velocity":36,"Duration":124285,"SoundDuration":124285,"Delta":1197728317},{"NoteNumber":77,"Velocity":40,"Duration":221140,"SoundDuration":221140,"Delta":1198668371},{"NoteNumber":80,"Velocity":40,"Duration":221140,"SoundDuration":221140,"Delta":1198668371},{"NoteNumber":62,"Velocity":26,"Duration":331711,"SoundDuration":331711,"Delta":1198668371},{"NoteNumber":82,"Velocity":36,"Duration":221140,"SoundDuration":221140,"Delta":1198889512},{"NoteNumber":82,"Velocity":36,"Duration":110570,"SoundDuration":110570,"Delta":1199110653},{"NoteNumber":75,"Velocity":45,"Duration":221140,"SoundDuration":221140,"Delta":1199331794},{"NoteNumber":80,"Velocity":45,"Duration":221140,"SoundDuration":221140,"Delta":1199331794},{"NoteNumber":63,"Velocity":27,"Duration":331711,"SoundDuration":331711,"Delta":1199331794},{"NoteNumber":84,"Velocity":37,"Duration":221140,"SoundDuration":221140,"Delta":1199552935},{"NoteNumber":84,"Velocity":37,"Duration":110570,"SoundDuration":110570,"Delta":1199774076},{"NoteNumber":75,"Velocity":45,"Duration":221140,"SoundDuration":221140,"Delta":1199995217},{"NoteNumber":79,"Velocity":45,"Duration":221140,"SoundDuration":221140,"Delta":1199995217},{"NoteNumber":51,"Velocity":30,"Duration":331711,"SoundDuration":331711,"Delta":1199995217},{"NoteNumber":82,"Velocity":39,"Duration":221141,"SoundDuration":221141,"Delta":1200216358},{"NoteNumber":82,"Velocity":39,"Duration":116672,"SoundDuration":116672,"Delta":1200437499},{"NoteNumber":63,"Velocity":39,"Duration":223738,"SoundDuration":223738,"Delta":1200670844},{"NoteNumber":67,"Velocity":47,"Duration":223738,"SoundDuration":223738,"Delta":1200670844},{"NoteNumber":53,"Velocity":33,"Duration":335608,"SoundDuration":335608,"Delta":1200670844},{"NoteNumber":70,"Velocity":40,"Duration":223738,"SoundDuration":223738,"Delta":1200894583},{"NoteNumber":70,"Velocity":40,"Duration":112523,"SoundDuration":112523,"Delta":1201118321},{"NoteNumber":62,"Velocity":43,"Duration":225047,"SoundDuration":225047,"Delta":1201343369},{"NoteNumber":65,"Velocity":51,"Duration":225047,"SoundDuration":225047,"Delta":1201343369},{"NoteNumber":53,"Velocity":35,"Duration":338246,"SoundDuration":338246,"Delta":1201343369},{"NoteNumber":70,"Velocity":46,"Duration":226398,"SoundDuration":226398,"Delta":1201568417},{"NoteNumber":70,"Velocity":46,"Duration":121124,"SoundDuration":121124,"Delta":1201794815},{"NoteNumber":65,"Velocity":49,"Duration":229464,"SoundDuration":229464,"Delta":1202033442},{"NoteNumber":70,"Velocity":58,"Duration":229464,"SoundDuration":229464,"Delta":1202033442},{"NoteNumber":63,"Velocity":41,"Duration":345072,"SoundDuration":345072,"Delta":1202033442},{"NoteNumber":60,"Velocity":35,"Duration":345072,"SoundDuration":345072,"Delta":1202033442},{"NoteNumber":53,"Velocity":35,"Duration":345072,"SoundDuration":345072,"Delta":1202033442},{"NoteNumber":77,"Velocity":50,"Duration":231577,"SoundDuration":231577,"Delta":1202262906},{"NoteNumber":77,"Velocity":50,"Duration":116672,"SoundDuration":116672,"Delta":1202494483},{"NoteNumber":65,"Velocity":50,"Duration":236243,"SoundDuration":236243,"Delta":1202728540},{"NoteNumber":69,"Velocity":60,"Duration":236243,"SoundDuration":236243,"Delta":1202728540},{"NoteNumber":53,"Velocity":36,"Duration":355477,"SoundDuration":355477,"Delta":1202728540},{"NoteNumber":60,"Velocity":36,"Duration":355477,"SoundDuration":355477,"Delta":1202728540},{"NoteNumber":63,"Velocity":42,"Duration":355477,"SoundDuration":355477,"Delta":1202728540},{"NoteNumber":77,"Velocity":53,"Duration":238836,"SoundDuration":238836,"Delta":1202964784},{"NoteNumber":77,"Velocity":53,"Duration":129382,"SoundDuration":129382,"Delta":1203203620},{"NoteNumber":62,"Velocity":58,"Duration":178295,"SoundDuration":178295,"Delta":1203462386},{"NoteNumber":65,"Velocity":58,"Duration":178295,"SoundDuration":178295,"Delta":1203462386},{"NoteNumber":70,"Velocity":58,"Duration":178295,"SoundDuration":178295,"Delta":1203462386},{"NoteNumber":53,"Velocity":36,"Duration":178295,"SoundDuration":178295,"Delta":1203462386},{"NoteNumber":46,"Velocity":36,"Duration":178295,"SoundDuration":178295,"Delta":1203462386},{"NoteNumber":58,"Velocity":42,"Duration":178295,"SoundDuration":178295,"Delta":1203462386},{"NoteNumber":65,"Velocity":47,"Duration":237727,"SoundDuration":237727,"Delta":1203700113},{"NoteNumber":62,"Velocity":47,"Duration":237727,"SoundDuration":237727,"Delta":1203937841},{"NoteNumber":65,"Velocity":47,"Duration":237727,"SoundDuration":237727,"Delta":1204175568},{"NoteNumber":70,"Velocity":51,"Duration":237727,"SoundDuration":237727,"Delta":1204413295},{"NoteNumber":74,"Velocity":55,"Duration":237727,"SoundDuration":237727,"Delta":1204651023},{"NoteNumber":77,"Velocity":68,"Duration":1024939,"SoundDuration":1024939,"Delta":1204888750},{"NoteNumber":62,"Velocity":36,"Duration":1024939,"SoundDuration":1024939,"Delta":1204888750},{"NoteNumber":65,"Velocity":44,"Duration":1393037,"SoundDuration":1393037,"Delta":1204888750},{"NoteNumber":67,"Velocity":48,"Duration":341646,"SoundDuration":341646,"Delta":1205572043},{"NoteNumber":69,"Velocity":45,"Duration":368097,"SoundDuration":368097,"Delta":1205913690},{"NoteNumber":75,"Velocity":54,"Duration":368097,"SoundDuration":368097,"Delta":1205913690},{"NoteNumber":60,"Velocity":30,"Duration":368097,"SoundDuration":368097,"Delta":1205913690},{"NoteNumber":63,"Velocity":36,"Duration":368097,"SoundDuration":368097,"Delta":1205913690},{"NoteNumber":65,"Velocity":47,"Duration":695813,"SoundDuration":695813,"Delta":1206281788},{"NoteNumber":70,"Velocity":47,"Duration":695813,"SoundDuration":695813,"Delta":1206281788},{"NoteNumber":74,"Velocity":56,"Duration":695813,"SoundDuration":695813,"Delta":1206281788},{"NoteNumber":58,"Velocity":36,"Duration":695813,"SoundDuration":695813,"Delta":1206281788},{"NoteNumber":62,"Velocity":44,"Duration":695813,"SoundDuration":695813,"Delta":1206281788},{"NoteNumber":66,"Velocity":52,"Duration":695814,"SoundDuration":695814,"Delta":1206977602},{"NoteNumber":72,"Velocity":52,"Duration":695814,"SoundDuration":695814,"Delta":1206977602},{"NoteNumber":74,"Velocity":62,"Duration":695814,"SoundDuration":695814,"Delta":1206977602},{"NoteNumber":56,"Velocity":38,"Duration":695814,"SoundDuration":695814,"Delta":1206977602},{"NoteNumber":62,"Velocity":45,"Duration":695814,"SoundDuration":695814,"Delta":1206977602},{"NoteNumber":67,"Velocity":54,"Duration":695813,"SoundDuration":695813,"Delta":1207673416},{"NoteNumber":65,"Velocity":54,"Duration":695813,"SoundDuration":695813,"Delta":1207673416},{"NoteNumber":71,"Velocity":54,"Duration":695813,"SoundDuration":695813,"Delta":1207673416},{"NoteNumber":74,"Velocity":64,"Duration":695813,"SoundDuration":695813,"Delta":1207673416},{"NoteNumber":55,"Velocity":40,"Duration":695813,"SoundDuration":695813,"Delta":1207673416},{"NoteNumber":62,"Velocity":48,"Duration":695813,"SoundDuration":695813,"Delta":1207673416},{"NoteNumber":75,"Velocity":65,"Duration":531956,"SoundDuration":531956,"Delta":1208369230},{"NoteNumber":63,"Velocity":55,"Duration":716004,"SoundDuration":716004,"Delta":1208369230},{"NoteNumber":67,"Velocity":55,"Duration":716004,"SoundDuration":716004,"Delta":1208369230},{"NoteNumber":72,"Velocity":55,"Duration":716004,"SoundDuration":716004,"Delta":1208369230},{"NoteNumber":48,"Velocity":37,"Duration":716004,"SoundDuration":716004,"Delta":1208369230},{"NoteNumber":55,"Velocity":37,"Duration":716004,"SoundDuration":716004,"Delta":1208369230},{"NoteNumber":60,"Velocity":44,"Duration":716004,"SoundDuration":716004,"Delta":1208369230},{"NoteNumber":74,"Velocity":55,"Duration":184048,"SoundDuration":184048,"Delta":1208901186},{"NoteNumber":65,"Velocity":44,"Duration":1553132,"SoundDuration":1553132,"Delta":1209085235},{"NoteNumber":69,"Velocity":44,"Duration":1374727,"SoundDuration":1374727,"Delta":1209085235},{"NoteNumber":72,"Velocity":52,"Duration":1031045,"SoundDuration":1031045,"Delta":1209085235},{"NoteNumber":53,"Velocity":41,"Duration":1374727,"SoundDuration":1374727,"Delta":1209085235},{"NoteNumber":63,"Velocity":49,"Duration":1374727,"SoundDuration":1374727,"Delta":1209085235},{"NoteNumber":73,"Velocity":47,"Duration":343681,"SoundDuration":343681,"Delta":1210116281},{"NoteNumber":70,"Velocity":43,"Duration":178404,"SoundDuration":178404,"Delta":1210459963},{"NoteNumber":74,"Velocity":51,"Duration":178404,"SoundDuration":178404,"Delta":1210459963},{"NoteNumber":58,"Velocity":32,"Duration":178404,"SoundDuration":178404,"Delta":1210459963},{"NoteNumber":62,"Velocity":38,"Duration":178404,"SoundDuration":178404,"Delta":1210459963},{"NoteNumber":65,"Velocity":39,"Duration":181686,"SoundDuration":181686,"Delta":1211183425},{"NoteNumber":70,"Velocity":39,"Duration":181686,"SoundDuration":181686,"Delta":1211183425},{"NoteNumber":74,"Velocity":46,"Duration":181686,"SoundDuration":181686,"Delta":1211183425},{"NoteNumber":58,"Velocity":28,"Duration":181686,"SoundDuration":181686,"Delta":1211183425},{"NoteNumber":62,"Velocity":34,"Duration":181686,"SoundDuration":181686,"Delta":1211183425},{"NoteNumber":53,"Velocity":47,"Duration":237727,"SoundDuration":237727,"Delta":1212147896},{"NoteNumber":50,"Velocity":47,"Duration":237727,"SoundDuration":237727,"Delta":1212385624},{"NoteNumber":53,"Velocity":47,"Duration":237727,"SoundDuration":237727,"Delta":1212623351},{"NoteNumber":58,"Velocity":51,"Duration":237727,"SoundDuration":237727,"Delta":1212861078},{"NoteNumber":62,"Velocity":55,"Duration":237727,"SoundDuration":237727,"Delta":1213098806},{"NoteNumber":65,"Velocity":65,"Duration":1024939,"SoundDuration":1024939,"Delta":1213336533},{"NoteNumber":50,"Velocity":35,"Duration":1024939,"SoundDuration":1024939,"Delta":1213336533},{"NoteNumber":53,"Velocity":42,"Duration":337375,"SoundDuration":337375,"Delta":1213336533},{"NoteNumber":53,"Velocity":46,"Duration":683293,"SoundDuration":683293,"Delta":1213678179},{"NoteNumber":55,"Velocity":48,"Duration":341646,"SoundDuration":341646,"Delta":1214019826},{"NoteNumber":53,"Velocity":45,"Duration":368097,"SoundDuration":368097,"Delta":1214361472},{"NoteNumber":57,"Velocity":45,"Duration":368097,"SoundDuration":368097,"Delta":1214361472},{"NoteNumber":63,"Velocity":54,"Duration":368097,"SoundDuration":368097,"Delta":1214361472},{"NoteNumber":48,"Velocity":30,"Duration":368097,"SoundDuration":368097,"Delta":1214361472},{"NoteNumber":51,"Velocity":36,"Duration":368097,"SoundDuration":368097,"Delta":1214361472},{"NoteNumber":53,"Velocity":47,"Duration":695813,"SoundDuration":695813,"Delta":1214729570},{"NoteNumber":58,"Velocity":47,"Duration":695813,"SoundDuration":695813,"Delta":1214729570},{"NoteNumber":62,"Velocity":56,"Duration":695813,"SoundDuration":695813,"Delta":1214729570},{"NoteNumber":46,"Velocity":36,"Duration":695813,"SoundDuration":695813,"Delta":1214729570},{"NoteNumber":50,"Velocity":44,"Duration":695813,"SoundDuration":695813,"Delta":1214729570},{"NoteNumber":54,"Velocity":52,"Duration":695814,"SoundDuration":695814,"Delta":1215425384},{"NoteNumber":60,"Velocity":52,"Duration":695814,"SoundDuration":695814,"Delta":1215425384},{"NoteNumber":62,"Velocity":62,"Duration":695814,"SoundDuration":695814,"Delta":1215425384},{"NoteNumber":44,"Velocity":38,"Duration":695814,"SoundDuration":695814,"Delta":1215425384},{"NoteNumber":50,"Velocity":45,"Duration":695814,"SoundDuration":695814,"Delta":1215425384},{"NoteNumber":55,"Velocity":54,"Duration":587349,"SoundDuration":587349,"Delta":1216121198},{"NoteNumber":53,"Velocity":54,"Duration":727962,"SoundDuration":727962,"Delta":1216121198},{"NoteNumber":59,"Velocity":54,"Duration":587349,"SoundDuration":587349,"Delta":1216121198},{"NoteNumber":62,"Velocity":64,"Duration":587349,"SoundDuration":587349,"Delta":1216121198},{"NoteNumber":43,"Velocity":40,"Duration":587349,"SoundDuration":587349,"Delta":1216121198},{"NoteNumber":50,"Velocity":48,"Duration":587349,"SoundDuration":587349,"Delta":1216121198},{"NoteNumber":36,"Velocity":35,"Duration":487434,"SoundDuration":487434,"Delta":1216708548},{"NoteNumber":43,"Velocity":37,"Duration":465417,"SoundDuration":465417,"Delta":1216730564},{"NoteNumber":48,"Velocity":40,"Duration":442961,"SoundDuration":442961,"Delta":1216753021},{"NoteNumber":51,"Velocity":50,"Duration":419811,"SoundDuration":419811,"Delta":1216776171},{"NoteNumber":55,"Velocity":56,"Duration":396175,"SoundDuration":396175,"Delta":1216799806},{"NoteNumber":60,"Velocity":63,"Duration":371823,"SoundDuration":371823,"Delta":1216824159},{"NoteNumber":63,"Velocity":71,"Duration":346821,"SoundDuration":346821,"Delta":1216849161},{"NoteNumber":67,"Velocity":62,"Duration":700035,"SoundDuration":700035,"Delta":1218300276},{"NoteNumber":73,"Velocity":62,"Duration":700035,"SoundDuration":700035,"Delta":1218300276},{"NoteNumber":75,"Velocity":74,"Duration":700035,"SoundDuration":700035,"Delta":1218300276},{"NoteNumber":58,"Velocity":45,"Duration":700035,"SoundDuration":700035,"Delta":1218300276},{"NoteNumber":63,"Velocity":53,"Duration":700035,"SoundDuration":700035,"Delta":1218300276},{"NoteNumber":68,"Velocity":64,"Duration":593973,"SoundDuration":593973,"Delta":1219000311},{"NoteNumber":66,"Velocity":64,"Duration":593973,"SoundDuration":593973,"Delta":1219000311},{"NoteNumber":72,"Velocity":64,"Duration":593973,"SoundDuration":593973,"Delta":1219000311},{"NoteNumber":75,"Velocity":77,"Duration":593973,"SoundDuration":593973,"Delta":1219000311},{"NoteNumber":56,"Velocity":49,"Duration":593973,"SoundDuration":593973,"Delta":1219000311},{"NoteNumber":63,"Velocity":59,"Duration":593973,"SoundDuration":593973,"Delta":1219000311},{"NoteNumber":49,"Velocity":49,"Duration":494362,"SoundDuration":494362,"Delta":1219594285},{"NoteNumber":56,"Velocity":52,"Duration":457235,"SoundDuration":457235,"Delta":1219616877},{"NoteNumber":61,"Velocity":56,"Duration":448620,"SoundDuration":448620,"Delta":1219640027},{"NoteNumber":64,"Velocity":65,"Duration":424733,"SoundDuration":424733,"Delta":1219663914},{"NoteNumber":68,"Velocity":70,"Duration":400221,"SoundDuration":400221,"Delta":1219688426},{"NoteNumber":73,"Velocity":72,"Duration":374881,"SoundDuration":374881,"Delta":1219713767},{"NoteNumber":76,"Velocity":85,"Duration":348837,"SoundDuration":348837,"Delta":1219739811},{"NoteNumber":79,"Velocity":82,"Duration":620818,"SoundDuration":620818,"Delta":1221135159},{"NoteNumber":81,"Velocity":82,"Duration":620818,"SoundDuration":620818,"Delta":1221135159},{"NoteNumber":88,"Velocity":99,"Duration":620818,"SoundDuration":620818,"Delta":1221135159},{"NoteNumber":85,"Velocity":99,"Duration":620818,"SoundDuration":620818,"Delta":1221135159},{"NoteNumber":45,"Velocity":70,"Duration":620818,"SoundDuration":620818,"Delta":1221135159},{"NoteNumber":49,"Velocity":70,"Duration":620818,"SoundDuration":620818,"Delta":1221135159},{"NoteNumber":52,"Velocity":84,"Duration":620818,"SoundDuration":620818,"Delta":1221135159},{"NoteNumber":38,"Velocity":70,"Duration":506351,"SoundDuration":506351,"Delta":1221755977},{"NoteNumber":45,"Velocity":73,"Duration":482155,"SoundDuration":482155,"Delta":1221780173},{"NoteNumber":50,"Velocity":77,"Duration":457319,"SoundDuration":457319,"Delta":1221805010},{"NoteNumber":77,"Velocity":86,"Duration":431571,"SoundDuration":431571,"Delta":1221830758},{"NoteNumber":81,"Velocity":89,"Duration":404972,"SoundDuration":404972,"Delta":1221857356},{"NoteNumber":86,"Velocity":94,"Duration":377396,"SoundDuration":377396,"Delta":1221884933},{"NoteNumber":89,"Velocity":103,"Duration":348837,"SoundDuration":348837,"Delta":1221913492},{"NoteNumber":70,"Velocity":52,"Duration":1553914,"SoundDuration":1553914,"Delta":1223308840},{"NoteNumber":74,"Velocity":52,"Duration":1374727,"SoundDuration":1374727,"Delta":1223308840},{"NoteNumber":77,"Velocity":62,"Duration":1031045,"SoundDuration":1031045,"Delta":1223308840},{"NoteNumber":58,"Velocity":49,"Duration":1374727,"SoundDuration":1374727,"Delta":1223308840},{"NoteNumber":68,"Velocity":58,"Duration":1374727,"SoundDuration":1374727,"Delta":1223308840},{"NoteNumber":78,"Velocity":56,"Duration":343681,"SoundDuration":343681,"Delta":1224339886},{"NoteNumber":75,"Velocity":51,"Duration":179187,"SoundDuration":179187,"Delta":1224683568},{"NoteNumber":79,"Velocity":61,"Duration":179187,"SoundDuration":179187,"Delta":1224683568},{"NoteNumber":63,"Velocity":38,"Duration":179187,"SoundDuration":179187,"Delta":1224683568},{"NoteNumber":67,"Velocity":45,"Duration":179187,"SoundDuration":179187,"Delta":1224683568},{"NoteNumber":70,"Velocity":46,"Duration":196721,"SoundDuration":196721,"Delta":1225411335},{"NoteNumber":75,"Velocity":46,"Duration":196721,"SoundDuration":196721,"Delta":1225411335},{"NoteNumber":79,"Velocity":55,"Duration":196721,"SoundDuration":196721,"Delta":1225411335},{"NoteNumber":63,"Velocity":33,"Duration":196721,"SoundDuration":196721,"Delta":1225411335},{"NoteNumber":67,"Velocity":40,"Duration":196721,"SoundDuration":196721,"Delta":1225411335},{"NoteNumber":79,"Velocity":61,"Duration":2213248,"SoundDuration":2213248,"Delta":1226198220},{"NoteNumber":82,"Velocity":61,"Duration":2213248,"SoundDuration":2213248,"Delta":1226198220},{"NoteNumber":63,"Velocity":38,"Duration":2213248,"SoundDuration":2213248,"Delta":1226198220},{"NoteNumber":70,"Velocity":45,"Duration":2213248,"SoundDuration":2213248,"Delta":1226198220},{"NoteNumber":70,"Velocity":54,"Duration":1782954,"SoundDuration":1782954,"Delta":1229124651},{"NoteNumber":67,"Velocity":45,"Duration":356590,"SoundDuration":356590,"Delta":1230907606},{"NoteNumber":63,"Velocity":50,"Duration":356590,"SoundDuration":356590,"Delta":1231264197},{"NoteNumber":62,"Velocity":45,"Duration":356590,"SoundDuration":356590,"Delta":1231620788},{"NoteNumber":53,"Velocity":34,"Duration":1553914,"SoundDuration":1553914,"Delta":1231977379},{"NoteNumber":57,"Velocity":34,"Duration":1374727,"SoundDuration":1374727,"Delta":1231977379},{"NoteNumber":62,"Velocity":49,"Duration":687363,"SoundDuration":687363,"Delta":1231977379},{"NoteNumber":41,"Velocity":33,"Duration":1374727,"SoundDuration":1374727,"Delta":1231977379},{"NoteNumber":51,"Velocity":39,"Duration":1374727,"SoundDuration":1374727,"Delta":1231977379},{"NoteNumber":60,"Velocity":44,"Duration":515523,"SoundDuration":515523,"Delta":1232664743},{"NoteNumber":61,"Velocity":44,"Duration":171840,"SoundDuration":171840,"Delta":1233180266},{"NoteNumber":58,"Velocity":40,"Duration":179187,"SoundDuration":179187,"Delta":1233352107},{"NoteNumber":62,"Velocity":48,"Duration":179187,"SoundDuration":179187,"Delta":1233352107},{"NoteNumber":46,"Velocity":30,"Duration":179187,"SoundDuration":179187,"Delta":1233352107},{"NoteNumber":50,"Velocity":36,"Duration":179187,"SoundDuration":179187,"Delta":1233352107},{"NoteNumber":53,"Velocity":30,"Duration":196721,"SoundDuration":196721,"Delta":1234079874},{"NoteNumber":58,"Velocity":36,"Duration":196721,"SoundDuration":196721,"Delta":1234079874},{"NoteNumber":62,"Velocity":44,"Duration":196721,"SoundDuration":196721,"Delta":1234079874},{"NoteNumber":46,"Velocity":24,"Duration":196721,"SoundDuration":196721,"Delta":1234079874},{"NoteNumber":50,"Velocity":32,"Duration":196721,"SoundDuration":196721,"Delta":1234079874},{"NoteNumber":62,"Velocity":48,"Duration":2360654,"SoundDuration":2360654,"Delta":1234866759},{"NoteNumber":65,"Velocity":48,"Duration":2360654,"SoundDuration":2360654,"Delta":1234866759},{"NoteNumber":46,"Velocity":30,"Duration":2360654,"SoundDuration":2360654,"Delta":1234866759},{"NoteNumber":53,"Velocity":36,"Duration":2360654,"SoundDuration":2360654,"Delta":1234866759},{"NoteNumber":70,"Velocity":52,"Duration":1553914,"SoundDuration":1553914,"Delta":1238014299},{"NoteNumber":74,"Velocity":52,"Duration":1374727,"SoundDuration":1374727,"Delta":1238014299},{"NoteNumber":77,"Velocity":62,"Duration":1031045,"SoundDuration":1031045,"Delta":1238014299},{"NoteNumber":58,"Velocity":49,"Duration":1374727,"SoundDuration":1374727,"Delta":1238014299},{"NoteNumber":68,"Velocity":58,"Duration":1374727,"SoundDuration":1374727,"Delta":1238014299},{"NoteNumber":78,"Velocity":56,"Duration":343681,"SoundDuration":343681,"Delta":1239045345},{"NoteNumber":75,"Velocity":51,"Duration":179187,"SoundDuration":179187,"Delta":1239389027},{"NoteNumber":79,"Velocity":61,"Duration":179187,"SoundDuration":179187,"Delta":1239389027},{"NoteNumber":63,"Velocity":38,"Duration":179187,"SoundDuration":179187,"Delta":1239389027},{"NoteNumber":67,"Velocity":45,"Duration":179187,"SoundDuration":179187,"Delta":1239389027},{"NoteNumber":70,"Velocity":55,"Duration":196721,"SoundDuration":196721,"Delta":1240116794},{"NoteNumber":75,"Velocity":55,"Duration":196721,"SoundDuration":196721,"Delta":1240116794},{"NoteNumber":79,"Velocity":66,"Duration":196721,"SoundDuration":196721,"Delta":1240116794},{"NoteNumber":63,"Velocity":39,"Duration":196721,"SoundDuration":196721,"Delta":1240116794},{"NoteNumber":67,"Velocity":48,"Duration":196721,"SoundDuration":196721,"Delta":1240116794},{"NoteNumber":63,"Velocity":79,"Duration":105647,"SoundDuration":105647,"Delta":1240908187},{"NoteNumber":67,"Velocity":78,"Duration":101363,"SoundDuration":101363,"Delta":1241013835},{"NoteNumber":70,"Velocity":72,"Duration":97413,"SoundDuration":97413,"Delta":1241115198},{"NoteNumber":75,"Velocity":68,"Duration":93759,"SoundDuration":93759,"Delta":1241212612},{"NoteNumber":79,"Velocity":66,"Duration":90370,"SoundDuration":90370,"Delta":1241306372},{"NoteNumber":82,"Velocity":64,"Duration":87217,"SoundDuration":87217,"Delta":1241396742},{"NoteNumber":87,"Velocity":61,"Duration":87208,"SoundDuration":87208,"Delta":1241483959},{"NoteNumber":91,"Velocity":59,"Duration":119047,"SoundDuration":119047,"Delta":1241571167},{"NoteNumber":94,"Velocity":58,"Duration":115030,"SoundDuration":115030,"Delta":1241690215},{"NoteNumber":82,"Velocity":62,"Duration":2496137,"SoundDuration":2496137,"Delta":1244450950},{"NoteNumber":81,"Velocity":50,"Duration":356590,"SoundDuration":356590,"Delta":1246947087},{"NoteNumber":81,"Velocity":53,"Duration":713181,"SoundDuration":713181,"Delta":1247303678},{"NoteNumber":79,"Velocity":51,"Duration":534886,"SoundDuration":534886,"Delta":1248016860},{"NoteNumber":77,"Velocity":47,"Duration":178295,"SoundDuration":178295,"Delta":1248551747},{"NoteNumber":77,"Velocity":51,"Duration":713181,"SoundDuration":713181,"Delta":1248730042},{"NoteNumber":75,"Velocity":48,"Duration":534886,"SoundDuration":534886,"Delta":1249443224},{"NoteNumber":74,"Velocity":41,"Duration":178295,"SoundDuration":178295,"Delta":1249978111},{"NoteNumber":65,"Velocity":30,"Duration":1608658,"SoundDuration":1608658,"Delta":1250156406},{"NoteNumber":69,"Velocity":30,"Duration":1422230,"SoundDuration":1422230,"Delta":1250156406},{"NoteNumber":74,"Velocity":44,"Duration":700035,"SoundDuration":700035,"Delta":1250156406},{"NoteNumber":53,"Velocity":24,"Duration":1422230,"SoundDuration":1422230,"Delta":1250156406},{"NoteNumber":63,"Velocity":32,"Duration":1422230,"SoundDuration":1422230,"Delta":1250156406},{"NoteNumber":72,"Velocity":39,"Duration":541646,"SoundDuration":541646,"Delta":1250856441},{"NoteNumber":73,"Velocity":39,"Duration":180548,"SoundDuration":180548,"Delta":1251398087},{"NoteNumber":70,"Velocity":36,"Duration":186427,"SoundDuration":186427,"Delta":1251578636},{"NoteNumber":74,"Velocity":43,"Duration":186427,"SoundDuration":186427,"Delta":1251578636},{"NoteNumber":58,"Velocity":27,"Duration":186427,"SoundDuration":186427,"Delta":1251578636},{"NoteNumber":62,"Velocity":32,"Duration":186427,"SoundDuration":186427,"Delta":1251578636},{"NoteNumber":65,"Velocity":27,"Duration":203776,"SoundDuration":203776,"Delta":1252324348},{"NoteNumber":70,"Velocity":32,"Duration":203776,"SoundDuration":203776,"Delta":1252324348},{"NoteNumber":74,"Velocity":39,"Duration":203776,"SoundDuration":203776,"Delta":1252324348},{"NoteNumber":58,"Velocity":21,"Duration":203776,"SoundDuration":203776,"Delta":1252324348},{"NoteNumber":62,"Velocity":28,"Duration":203776,"SoundDuration":203776,"Delta":1252324348},{"NoteNumber":74,"Velocity":43,"Duration":2062091,"SoundDuration":2062091,"Delta":1253139455},{"NoteNumber":77,"Velocity":43,"Duration":2062091,"SoundDuration":2062091,"Delta":1253139455},{"NoteNumber":58,"Velocity":27,"Duration":2062091,"SoundDuration":2062091,"Delta":1253139455},{"NoteNumber":65,"Velocity":32,"Duration":2062091,"SoundDuration":2062091,"Delta":1253139455},{"NoteNumber":74,"Velocity":55,"Duration":2062091,"SoundDuration":2062091,"Delta":1255888911},{"NoteNumber":72,"Velocity":55,"Duration":2062091,"SoundDuration":2062091,"Delta":1255888911},{"NoteNumber":77,"Velocity":55,"Duration":2062091,"SoundDuration":2062091,"Delta":1255888911},{"NoteNumber":56,"Velocity":35,"Duration":2062091,"SoundDuration":2062091,"Delta":1255888911},{"NoteNumber":62,"Velocity":35,"Duration":2062091,"SoundDuration":2062091,"Delta":1255888911},{"NoteNumber":65,"Velocity":41,"Duration":2062091,"SoundDuration":2062091,"Delta":1255888911},{"NoteNumber":71,"Velocity":53,"Duration":2876901,"SoundDuration":2876901,"Delta":1258638367},{"NoteNumber":74,"Velocity":56,"Duration":2876901,"SoundDuration":2876901,"Delta":1258638367},{"NoteNumber":68,"Velocity":51,"Duration":2126150,"SoundDuration":2126150,"Delta":1258638367},{"NoteNumber":80,"Velocity":67,"Duration":2126150,"SoundDuration":2126150,"Delta":1258638367},{"NoteNumber":65,"Velocity":41,"Duration":2876901,"SoundDuration":2876901,"Delta":1258638367},{"NoteNumber":62,"Velocity":34,"Duration":2876901,"SoundDuration":2876901,"Delta":1258638367},{"NoteNumber":55,"Velocity":34,"Duration":2876901,"SoundDuration":2876901,"Delta":1258638367},{"NoteNumber":67,"Velocity":44,"Duration":750751,"SoundDuration":750751,"Delta":1260764518},{"NoteNumber":79,"Velocity":52,"Duration":750751,"SoundDuration":750751,"Delta":1260764518},{"NoteNumber":67,"Velocity":45,"Duration":722195,"SoundDuration":722195,"Delta":1261515269},{"NoteNumber":72,"Velocity":53,"Duration":722195,"SoundDuration":722195,"Delta":1261515269},{"NoteNumber":77,"Velocity":53,"Duration":722195,"SoundDuration":722195,"Delta":1261515269},{"NoteNumber":63,"Velocity":34,"Duration":722195,"SoundDuration":722195,"Delta":1261515269},{"NoteNumber":60,"Velocity":28,"Duration":722195,"SoundDuration":722195,"Delta":1261515269},{"NoteNumber":75,"Velocity":52,"Duration":347907,"SoundDuration":347907,"Delta":1262237464},{"NoteNumber":66,"Velocity":40,"Duration":368097,"SoundDuration":368097,"Delta":1262585371},{"NoteNumber":74,"Velocity":48,"Duration":368097,"SoundDuration":368097,"Delta":1262585371},{"NoteNumber":67,"Velocity":46,"Duration":1090249,"SoundDuration":1090249,"Delta":1262953469},{"NoteNumber":77,"Velocity":55,"Duration":731440,"SoundDuration":731440,"Delta":1262953469},{"NoteNumber":75,"Velocity":52,"Duration":358809,"SoundDuration":358809,"Delta":1263684909},{"NoteNumber":63,"Velocity":39,"Duration":375375,"SoundDuration":375375,"Delta":1264043718},{"NoteNumber":72,"Velocity":47,"Duration":375375,"SoundDuration":375375,"Delta":1264043718},{"NoteNumber":70,"Velocity":53,"Duration":554820,"SoundDuration":554820,"Delta":1264419094},{"NoteNumber":60,"Velocity":36,"Duration":363372,"SoundDuration":363372,"Delta":1264419094},{"NoteNumber":69,"Velocity":50,"Duration":191448,"SoundDuration":191448,"Delta":1264973914},{"NoteNumber":65,"Velocity":40,"Duration":745711,"SoundDuration":745711,"Delta":1265165363},{"NoteNumber":69,"Velocity":48,"Duration":745711,"SoundDuration":745711,"Delta":1265165363},{"NoteNumber":53,"Velocity":30,"Duration":745711,"SoundDuration":745711,"Delta":1265165363},{"NoteNumber":60,"Velocity":36,"Duration":559283,"SoundDuration":559283,"Delta":1265165363},{"NoteNumber":62,"Velocity":31,"Duration":186427,"SoundDuration":186427,"Delta":1265724647},{"NoteNumber":66,"Velocity":37,"Duration":776297,"SoundDuration":776297,"Delta":1265911075},{"NoteNumber":69,"Velocity":55,"Duration":776297,"SoundDuration":776297,"Delta":1265911075},{"NoteNumber":53,"Velocity":28,"Duration":776297,"SoundDuration":776297,"Delta":1265911075},{"NoteNumber":63,"Velocity":32,"Duration":776297,"SoundDuration":776297,"Delta":1265911075},{"NoteNumber":65,"Velocity":44,"Duration":393442,"SoundDuration":393442,"Delta":1266687372},{"NoteNumber":69,"Velocity":52,"Duration":812963,"SoundDuration":812963,"Delta":1266687372},{"NoteNumber":53,"Velocity":27,"Duration":812963,"SoundDuration":812963,"Delta":1266687372},{"NoteNumber":60,"Velocity":32,"Duration":812963,"SoundDuration":812963,"Delta":1266687372},{"NoteNumber":63,"Velocity":48,"Duration":419521,"SoundDuration":419521,"Delta":1267080815},{"NoteNumber":62,"Velocity":45,"Duration":419521,"SoundDuration":419521,"Delta":1267500336},{"NoteNumber":70,"Velocity":54,"Duration":419521,"SoundDuration":419521,"Delta":1267500336},{"NoteNumber":46,"Velocity":30,"Duration":419521,"SoundDuration":419521,"Delta":1267500336},{"NoteNumber":58,"Velocity":36,"Duration":419521,"SoundDuration":419521,"Delta":1267500336},{"NoteNumber":62,"Velocity":43,"Duration":2062091,"SoundDuration":2062091,"Delta":1268339379},{"NoteNumber":65,"Velocity":43,"Duration":2062091,"SoundDuration":2062091,"Delta":1268339379},{"NoteNumber":46,"Velocity":27,"Duration":2062091,"SoundDuration":2062091,"Delta":1268339379},{"NoteNumber":53,"Velocity":32,"Duration":2062091,"SoundDuration":2062091,"Delta":1268339379},{"NoteNumber":62,"Velocity":55,"Duration":2062091,"SoundDuration":2062091,"Delta":1271088835},{"NoteNumber":60,"Velocity":55,"Duration":2062091,"SoundDuration":2062091,"Delta":1271088835},{"NoteNumber":65,"Velocity":55,"Duration":2062091,"SoundDuration":2062091,"Delta":1271088835},{"NoteNumber":44,"Velocity":35,"Duration":2062091,"SoundDuration":2062091,"Delta":1271088835},{"NoteNumber":53,"Velocity":41,"Duration":2062091,"SoundDuration":2062091,"Delta":1271088835},{"NoteNumber":59,"Velocity":56,"Duration":2876901,"SoundDuration":2876901,"Delta":1273150927},{"NoteNumber":62,"Velocity":56,"Duration":2876901,"SoundDuration":2876901,"Delta":1273150927},{"NoteNumber":56,"Velocity":56,"Duration":2126150,"SoundDuration":2126150,"Delta":1273150927},{"NoteNumber":68,"Velocity":67,"Duration":2126150,"SoundDuration":2126150,"Delta":1273150927},{"NoteNumber":53,"Velocity":41,"Duration":2876901,"SoundDuration":2876901,"Delta":1273150927},{"NoteNumber":50,"Velocity":34,"Duration":2876901,"SoundDuration":2876901,"Delta":1273150927},{"NoteNumber":43,"Velocity":34,"Duration":2876901,"SoundDuration":2876901,"Delta":1273150927},{"NoteNumber":55,"Velocity":39,"Duration":750751,"SoundDuration":750751,"Delta":1275277078},{"NoteNumber":67,"Velocity":46,"Duration":750751,"SoundDuration":750751,"Delta":1275277078},{"NoteNumber":55,"Velocity":40,"Duration":722195,"SoundDuration":722195,"Delta":1276027829},{"NoteNumber":60,"Velocity":47,"Duration":722195,"SoundDuration":722195,"Delta":1276027829},{"NoteNumber":65,"Velocity":47,"Duration":722195,"SoundDuration":722195,"Delta":1276027829},{"NoteNumber":51,"Velocity":30,"Duration":722195,"SoundDuration":722195,"Delta":1276027829},{"NoteNumber":48,"Velocity":25,"Duration":722195,"SoundDuration":722195,"Delta":1276027829},{"NoteNumber":63,"Velocity":46,"Duration":347907,"SoundDuration":347907,"Delta":1276750024},{"NoteNumber":54,"Velocity":36,"Duration":368097,"SoundDuration":368097,"Delta":1277097931},{"NoteNumber":62,"Velocity":43,"Duration":368097,"SoundDuration":368097,"Delta":1277097931},{"NoteNumber":55,"Velocity":41,"Duration":1101902,"SoundDuration":1101902,"Delta":1277466029},{"NoteNumber":65,"Velocity":49,"Duration":731440,"SoundDuration":731440,"Delta":1277466029},{"NoteNumber":63,"Velocity":46,"Duration":370462,"SoundDuration":370462,"Delta":1278197469},{"NoteNumber":51,"Velocity":35,"Duration":390777,"SoundDuration":390777,"Delta":1278567931},{"NoteNumber":60,"Velocity":42,"Duration":390777,"SoundDuration":390777,"Delta":1278567931},{"NoteNumber":58,"Velocity":47,"Duration":578717,"SoundDuration":578717,"Delta":1278958709},{"NoteNumber":48,"Velocity":32,"Duration":377833,"SoundDuration":377833,"Delta":1278958709},{"NoteNumber":57,"Velocity":45,"Duration":200883,"SoundDuration":200883,"Delta":1279537427},{"NoteNumber":53,"Velocity":36,"Duration":771009,"SoundDuration":771009,"Delta":1279738311},{"NoteNumber":57,"Velocity":43,"Duration":771009,"SoundDuration":771009,"Delta":1279738311},{"NoteNumber":41,"Velocity":27,"Duration":771009,"SoundDuration":771009,"Delta":1279738311},{"NoteNumber":48,"Velocity":32,"Duration":578257,"SoundDuration":578257,"Delta":1279738311},{"NoteNumber":50,"Velocity":27,"Duration":192752,"SoundDuration":192752,"Delta":1280316568},{"NoteNumber":54,"Velocity":33,"Duration":792498,"SoundDuration":792498,"Delta":1280509321},{"NoteNumber":57,"Velocity":49,"Duration":792498,"SoundDuration":792498,"Delta":1280509321},{"NoteNumber":41,"Velocity":25,"Duration":792498,"SoundDuration":792498,"Delta":1280509321},{"NoteNumber":51,"Velocity":28,"Duration":792498,"SoundDuration":792498,"Delta":1280509321},{"NoteNumber":53,"Velocity":39,"Duration":410452,"SoundDuration":410452,"Delta":1281301819},{"NoteNumber":57,"Velocity":46,"Duration":849306,"SoundDuration":849306,"Delta":1281301819},{"NoteNumber":41,"Velocity":24,"Duration":849306,"SoundDuration":849306,"Delta":1281301819},{"NoteNumber":48,"Velocity":28,"Duration":849306,"SoundDuration":849306,"Delta":1281301819},{"NoteNumber":51,"Velocity":43,"Duration":438853,"SoundDuration":438853,"Delta":1281712272},{"NoteNumber":58,"Velocity":48,"Duration":388148,"SoundDuration":388148,"Delta":1282151125},{"NoteNumber":50,"Velocity":34,"Duration":388148,"SoundDuration":388148,"Delta":1282151125},{"NoteNumber":46,"Velocity":28,"Duration":768184,"SoundDuration":768184,"Delta":1282151125},{"NoteNumber":53,"Velocity":26,"Duration":190017,"SoundDuration":190017,"Delta":1282539273},{"NoteNumber":53,"Velocity":26,"Duration":190017,"SoundDuration":190017,"Delta":1282919309},{"NoteNumber":53,"Velocity":26,"Duration":190017,"SoundDuration":190017,"Delta":1283299344},{"NoteNumber":53,"Velocity":26,"Duration":190017,"SoundDuration":190017,"Delta":1283679380},{"NoteNumber":53,"Velocity":26,"Duration":190017,"SoundDuration":190017,"Delta":1284059415},{"NoteNumber":58,"Velocity":28,"Duration":760070,"SoundDuration":760070,"Delta":1284439451},{"NoteNumber":65,"Velocity":32,"Duration":760070,"SoundDuration":760070,"Delta":1284439451},{"NoteNumber":70,"Velocity":38,"Duration":760070,"SoundDuration":760070,"Delta":1284439451},{"NoteNumber":50,"Velocity":26,"Duration":380035,"SoundDuration":380035,"Delta":1284439451},{"NoteNumber":41,"Velocity":21,"Duration":760070,"SoundDuration":760070,"Delta":1284439451},{"NoteNumber":53,"Velocity":22,"Duration":380035,"SoundDuration":380035,"Delta":1284819486},{"NoteNumber":58,"Velocity":29,"Duration":776175,"SoundDuration":776175,"Delta":1285199522},{"NoteNumber":65,"Velocity":33,"Duration":776175,"SoundDuration":776175,"Delta":1285199522},{"NoteNumber":70,"Velocity":40,"Duration":776175,"SoundDuration":776175,"Delta":1285199522},{"NoteNumber":41,"Velocity":22,"Duration":776175,"SoundDuration":776175,"Delta":1285199522},{"NoteNumber":50,"Velocity":27,"Duration":380035,"SoundDuration":380035,"Delta":1285199522},{"NoteNumber":53,"Velocity":22,"Duration":396140,"SoundDuration":396140,"Delta":1285579557},{"NoteNumber":57,"Velocity":24,"Duration":786645,"SoundDuration":786645,"Delta":1285975697},{"NoteNumber":65,"Velocity":32,"Duration":786645,"SoundDuration":786645,"Delta":1285975697},{"NoteNumber":69,"Velocity":38,"Duration":786645,"SoundDuration":786645,"Delta":1285975697},{"NoteNumber":41,"Velocity":18,"Duration":786645,"SoundDuration":786645,"Delta":1285975697},{"NoteNumber":48,"Velocity":24,"Duration":388148,"SoundDuration":388148,"Delta":1285975697},{"NoteNumber":53,"Velocity":21,"Duration":398497,"SoundDuration":398497,"Delta":1286363846},{"NoteNumber":58,"Velocity":29,"Duration":804601,"SoundDuration":804601,"Delta":1286762343},{"NoteNumber":65,"Velocity":33,"Duration":804601,"SoundDuration":804601,"Delta":1286762343},{"NoteNumber":70,"Velocity":40,"Duration":804601,"SoundDuration":804601,"Delta":1286762343},{"NoteNumber":41,"Velocity":22,"Duration":804601,"SoundDuration":804601,"Delta":1286762343},{"NoteNumber":50,"Velocity":27,"Duration":399360,"SoundDuration":399360,"Delta":1286762343},{"NoteNumber":53,"Velocity":21,"Duration":405240,"SoundDuration":405240,"Delta":1287161704},{"NoteNumber":65,"Velocity":32,"Duration":804672,"SoundDuration":804672,"Delta":1287566945},{"NoteNumber":60,"Velocity":28,"Duration":804672,"SoundDuration":804672,"Delta":1287566945},{"NoteNumber":69,"Velocity":32,"Duration":804672,"SoundDuration":804672,"Delta":1287566945},{"NoteNumber":72,"Velocity":38,"Duration":804672,"SoundDuration":804672,"Delta":1287566945},{"NoteNumber":51,"Velocity":26,"Duration":390879,"SoundDuration":390879,"Delta":1287566945},{"NoteNumber":41,"Velocity":21,"Duration":804672,"SoundDuration":804672,"Delta":1287566945},{"NoteNumber":53,"Velocity":20,"Duration":413792,"SoundDuration":413792,"Delta":1287957825},{"NoteNumber":58,"Velocity":32,"Duration":1528254,"SoundDuration":1528254,"Delta":1288371618},{"NoteNumber":65,"Velocity":36,"Duration":1528254,"SoundDuration":1528254,"Delta":1288371618},{"NoteNumber":70,"Velocity":42,"Duration":1528254,"SoundDuration":1528254,"Delta":1288371618},{"NoteNumber":46,"Velocity":22,"Duration":1528254,"SoundDuration":1528254,"Delta":1288371618},{"NoteNumber":50,"Velocity":27,"Duration":388148,"SoundDuration":388148,"Delta":1288371618},{"NoteNumber":53,"Velocity":20,"Duration":190017,"SoundDuration":190017,"Delta":1288759766},{"NoteNumber":53,"Velocity":20,"Duration":190017,"SoundDuration":190017,"Delta":1289139802},{"NoteNumber":53,"Velocity":20,"Duration":190017,"SoundDuration":190017,"Delta":1289519837},{"NoteNumber":53,"Velocity":20,"Duration":190017,"SoundDuration":190017,"Delta":1289899873},{"NoteNumber":53,"Velocity":20,"Duration":190017,"SoundDuration":190017,"Delta":1290279908},{"NoteNumber":74,"Velocity":38,"Duration":760070,"SoundDuration":760070,"Delta":1290659944},{"NoteNumber":62,"Velocity":28,"Duration":760070,"SoundDuration":760070,"Delta":1290659944},{"NoteNumber":65,"Velocity":32,"Duration":760070,"SoundDuration":760070,"Delta":1290659944},{"NoteNumber":46,"Velocity":26,"Duration":380035,"SoundDuration":380035,"Delta":1290659944},{"NoteNumber":41,"Velocity":21,"Duration":760070,"SoundDuration":760070,"Delta":1290659944},{"NoteNumber":53,"Velocity":22,"Duration":380035,"SoundDuration":380035,"Delta":1291039979},{"NoteNumber":62,"Velocity":29,"Duration":776175,"SoundDuration":776175,"Delta":1291420015},{"NoteNumber":65,"Velocity":34,"Duration":776175,"SoundDuration":776175,"Delta":1291420015},{"NoteNumber":74,"Velocity":41,"Duration":776175,"SoundDuration":776175,"Delta":1291420015},{"NoteNumber":41,"Velocity":22,"Duration":776175,"SoundDuration":776175,"Delta":1291420015},{"NoteNumber":46,"Velocity":27,"Duration":380035,"SoundDuration":380035,"Delta":1291420015},{"NoteNumber":53,"Velocity":23,"Duration":396140,"SoundDuration":396140,"Delta":1291800050},{"NoteNumber":60,"Velocity":25,"Duration":786645,"SoundDuration":786645,"Delta":1292196190},{"NoteNumber":72,"Velocity":40,"Duration":786645,"SoundDuration":786645,"Delta":1292196190},{"NoteNumber":65,"Velocity":34,"Duration":786645,"SoundDuration":786645,"Delta":1292196190},{"NoteNumber":41,"Velocity":19,"Duration":786645,"SoundDuration":786645,"Delta":1292196190},{"NoteNumber":45,"Velocity":25,"Duration":388148,"SoundDuration":388148,"Delta":1292196190},{"NoteNumber":53,"Velocity":22,"Duration":398497,"SoundDuration":398497,"Delta":1292584339},{"NoteNumber":74,"Velocity":44,"Duration":804601,"SoundDuration":804601,"Delta":1292982836},{"NoteNumber":62,"Velocity":31,"Duration":804601,"SoundDuration":804601,"Delta":1292982836},{"NoteNumber":65,"Velocity":36,"Duration":804601,"SoundDuration":804601,"Delta":1292982836},{"NoteNumber":41,"Velocity":24,"Duration":804601,"SoundDuration":804601,"Delta":1292982836},{"NoteNumber":46,"Velocity":28,"Duration":399360,"SoundDuration":399360,"Delta":1292982836},{"NoteNumber":53,"Velocity":23,"Duration":405240,"SoundDuration":405240,"Delta":1293382197},{"NoteNumber":75,"Velocity":43,"Duration":818131,"SoundDuration":818131,"Delta":1293787438},{"NoteNumber":63,"Velocity":36,"Duration":818131,"SoundDuration":818131,"Delta":1293787438},{"NoteNumber":69,"Velocity":36,"Duration":818131,"SoundDuration":818131,"Delta":1293787438},{"NoteNumber":48,"Velocity":28,"Duration":390879,"SoundDuration":390879,"Delta":1293787438},{"NoteNumber":41,"Velocity":23,"Duration":818131,"SoundDuration":818131,"Delta":1293787438},{"NoteNumber":53,"Velocity":22,"Duration":427252,"SoundDuration":427252,"Delta":1294178318},{"NoteNumber":62,"Velocity":32,"Duration":1528254,"SoundDuration":1528254,"Delta":1294605570},{"NoteNumber":70,"Velocity":36,"Duration":1528254,"SoundDuration":1528254,"Delta":1294605570},{"NoteNumber":74,"Velocity":42,"Duration":1528254,"SoundDuration":1528254,"Delta":1294605570},{"NoteNumber":46,"Velocity":22,"Duration":1528254,"SoundDuration":1528254,"Delta":1294605570},{"NoteNumber":53,"Velocity":20,"Duration":190017,"SoundDuration":190017,"Delta":1294993719},{"NoteNumber":53,"Velocity":20,"Duration":190017,"SoundDuration":190017,"Delta":1295373754},{"NoteNumber":53,"Velocity":20,"Duration":190017,"SoundDuration":190017,"Delta":1295753790},{"NoteNumber":53,"Velocity":20,"Duration":190017,"SoundDuration":190017,"Delta":1296133825},{"NoteNumber":53,"Velocity":20,"Duration":190017,"SoundDuration":190017,"Delta":1296513861},{"NoteNumber":58,"Velocity":28,"Duration":776297,"SoundDuration":776297,"Delta":1296893896},{"NoteNumber":65,"Velocity":32,"Duration":776297,"SoundDuration":776297,"Delta":1296893896},{"NoteNumber":70,"Velocity":38,"Duration":776297,"SoundDuration":776297,"Delta":1296893896},{"NoteNumber":50,"Velocity":26,"Duration":388148,"SoundDuration":388148,"Delta":1296893896},{"NoteNumber":41,"Velocity":21,"Duration":776297,"SoundDuration":776297,"Delta":1296893896},{"NoteNumber":53,"Velocity":22,"Duration":388148,"SoundDuration":388148,"Delta":1297282045},{"NoteNumber":58,"Velocity":29,"Duration":785640,"SoundDuration":785640,"Delta":1297670193},{"NoteNumber":65,"Velocity":33,"Duration":785640,"SoundDuration":785640,"Delta":1297670193},{"NoteNumber":70,"Velocity":40,"Duration":785640,"SoundDuration":785640,"Delta":1297670193},{"NoteNumber":41,"Velocity":22,"Duration":785640,"SoundDuration":785640,"Delta":1297670193},{"NoteNumber":50,"Velocity":27,"Duration":388148,"SoundDuration":388148,"Delta":1297670193},{"NoteNumber":53,"Velocity":22,"Duration":397492,"SoundDuration":397492,"Delta":1298058342},{"NoteNumber":57,"Velocity":24,"Duration":786645,"SoundDuration":786645,"Delta":1298455834},{"NoteNumber":65,"Velocity":32,"Duration":786645,"SoundDuration":786645,"Delta":1298455834},{"NoteNumber":69,"Velocity":38,"Duration":786645,"SoundDuration":786645,"Delta":1298455834},{"NoteNumber":41,"Velocity":18,"Duration":786645,"SoundDuration":786645,"Delta":1298455834},{"NoteNumber":48,"Velocity":24,"Duration":388148,"SoundDuration":388148,"Delta":1298455834},{"NoteNumber":53,"Velocity":21,"Duration":398497,"SoundDuration":398497,"Delta":1298843982},{"NoteNumber":58,"Velocity":29,"Duration":804601,"SoundDuration":804601,"Delta":1299242480},{"NoteNumber":65,"Velocity":33,"Duration":804601,"SoundDuration":804601,"Delta":1299242480},{"NoteNumber":70,"Velocity":40,"Duration":804601,"SoundDuration":804601,"Delta":1299242480},{"NoteNumber":41,"Velocity":22,"Duration":804601,"SoundDuration":804601,"Delta":1299242480},{"NoteNumber":50,"Velocity":27,"Duration":399360,"SoundDuration":399360,"Delta":1299242480},{"NoteNumber":53,"Velocity":21,"Duration":405240,"SoundDuration":405240,"Delta":1299641841},{"NoteNumber":65,"Velocity":32,"Duration":917335,"SoundDuration":917335,"Delta":1300047082},{"NoteNumber":60,"Velocity":28,"Duration":917335,"SoundDuration":917335,"Delta":1300047082},{"NoteNumber":69,"Velocity":32,"Duration":917335,"SoundDuration":917335,"Delta":1300047082},{"NoteNumber":72,"Velocity":38,"Duration":917335,"SoundDuration":917335,"Delta":1300047082},{"NoteNumber":51,"Velocity":26,"Duration":425531,"SoundDuration":425531,"Delta":1300047082},{"NoteNumber":41,"Velocity":21,"Duration":917335,"SoundDuration":917335,"Delta":1300047082},{"NoteNumber":53,"Velocity":20,"Duration":491803,"SoundDuration":491803,"Delta":1300472614},{"NoteNumber":69,"Velocity":36,"Duration":7153350,"SoundDuration":7153350,"Delta":1300964417},{"NoteNumber":60,"Velocity":32,"Duration":7153350,"SoundDuration":7153350,"Delta":1300964417},{"NoteNumber":65,"Velocity":36,"Duration":7153350,"SoundDuration":7153350,"Delta":1300964417},{"NoteNumber":72,"Velocity":42,"Duration":7153350,"SoundDuration":7153350,"Delta":1300964417},{"NoteNumber":41,"Velocity":22,"Duration":2763159,"SoundDuration":2763159,"Delta":1300964417},{"NoteNumber":51,"Velocity":22,"Duration":2763159,"SoundDuration":2763159,"Delta":1300964417},{"NoteNumber":53,"Velocity":27,"Duration":2763159,"SoundDuration":2763159,"Delta":1300964417},{"NoteNumber":29,"Velocity":20,"Duration":204081,"SoundDuration":204081,"Delta":1303727576},{"NoteNumber":30,"Velocity":16,"Duration":204081,"SoundDuration":204081,"Delta":1303863631},{"NoteNumber":32,"Velocity":16,"Duration":207381,"SoundDuration":207381,"Delta":1303999685},{"NoteNumber":30,"Velocity":20,"Duration":177807,"SoundDuration":177807,"Delta":1304135740},{"NoteNumber":32,"Velocity":17,"Duration":176423,"SoundDuration":176423,"Delta":1304242730},{"NoteNumber":30,"Velocity":18,"Duration":175068,"SoundDuration":175068,"Delta":1304348928},{"NoteNumber":32,"Velocity":16,"Duration":173726,"SoundDuration":173726,"Delta":1304454266},{"NoteNumber":30,"Velocity":18,"Duration":172420,"SoundDuration":172420,"Delta":1304558835},{"NoteNumber":32,"Velocity":16,"Duration":169559,"SoundDuration":169559,"Delta":1304662570},{"NoteNumber":30,"Velocity":18,"Duration":165504,"SoundDuration":165504,"Delta":1304765573},{"NoteNumber":32,"Velocity":18,"Duration":166116,"SoundDuration":166116,"Delta":1304864968},{"NoteNumber":30,"Velocity":19,"Duration":163987,"SoundDuration":163987,"Delta":1304964639},{"NoteNumber":32,"Velocity":17,"Duration":163421,"SoundDuration":163421,"Delta":1305063738},{"NoteNumber":30,"Velocity":19,"Duration":161378,"SoundDuration":161378,"Delta":1305161851},{"NoteNumber":32,"Velocity":16,"Duration":163256,"SoundDuration":163256,"Delta":1305259213},{"NoteNumber":30,"Velocity":18,"Duration":163857,"SoundDuration":163857,"Delta":1305355975},{"NoteNumber":32,"Velocity":17,"Duration":162110,"SoundDuration":162110,"Delta":1305455357},{"NoteNumber":30,"Velocity":17,"Duration":163502,"SoundDuration":163502,"Delta":1305551932},{"NoteNumber":32,"Velocity":16,"Duration":164021,"SoundDuration":164021,"Delta":1305650546},{"NoteNumber":30,"Velocity":18,"Duration":165238,"SoundDuration":165238,"Delta":1305747535},{"NoteNumber":32,"Velocity":17,"Duration":163757,"SoundDuration":163757,"Delta":1305847840},{"NoteNumber":30,"Velocity":18,"Duration":163347,"SoundDuration":163347,"Delta":1305945103},{"NoteNumber":32,"Velocity":16,"Duration":162723,"SoundDuration":162723,"Delta":1306044251},{"NoteNumber":30,"Velocity":18,"Duration":163466,"SoundDuration":163466,"Delta":1306140962},{"NoteNumber":32,"Velocity":15,"Duration":162024,"SoundDuration":162024,"Delta":1306239862},{"NoteNumber":30,"Velocity":18,"Duration":163372,"SoundDuration":163372,"Delta":1306336575},{"NoteNumber":32,"Velocity":15,"Duration":163807,"SoundDuration":163807,"Delta":1306435014},{"NoteNumber":30,"Velocity":19,"Duration":167541,"SoundDuration":167541,"Delta":1306532276},{"NoteNumber":32,"Velocity":16,"Duration":166317,"SoundDuration":166317,"Delta":1306632733},{"NoteNumber":30,"Velocity":18,"Duration":165630,"SoundDuration":165630,"Delta":1306732896},{"NoteNumber":32,"Velocity":15,"Duration":164009,"SoundDuration":164009,"Delta":1306832128},{"NoteNumber":29,"Velocity":18,"Duration":263101,"SoundDuration":263101,"Delta":1306931846},{"NoteNumber":30,"Velocity":14,"Duration":275871,"SoundDuration":275871,"Delta":1307124723},{"NoteNumber":29,"Velocity":18,"Duration":195592,"SoundDuration":195592,"Delta":1307335397},{"NoteNumber":63,"Velocity":30,"Duration":782371,"SoundDuration":782371,"Delta":1308900139},{"NoteNumber":69,"Velocity":30,"Duration":782371,"SoundDuration":782371,"Delta":1308900139},{"NoteNumber":77,"Velocity":36,"Duration":782371,"SoundDuration":782371,"Delta":1308900139},{"NoteNumber":41,"Velocity":25,"Duration":782371,"SoundDuration":782371,"Delta":1308900139},{"NoteNumber":48,"Velocity":25,"Duration":782371,"SoundDuration":782371,"Delta":1308900139},{"NoteNumber":53,"Velocity":29,"Duration":782371,"SoundDuration":782371,"Delta":1308900139},{"NoteNumber":62,"Velocity":30,"Duration":782371,"SoundDuration":782371,"Delta":1310464881},{"NoteNumber":70,"Velocity":36,"Duration":782371,"SoundDuration":782371,"Delta":1310464881},{"NoteNumber":46,"Velocity":25,"Duration":782371,"SoundDuration":782371,"Delta":1310464881},{"NoteNumber":53,"Velocity":30,"Duration":782371,"SoundDuration":782371,"Delta":1310464881},{"NoteNumber":34,"Velocity":24,"Duration":782371,"SoundDuration":782371,"Delta":1313594365},{"NoteNumber":46,"Velocity":24,"Duration":782371,"SoundDuration":782371,"Delta":1313594365},{"NoteNumber":50,"Velocity":24,"Duration":782371,"SoundDuration":782371,"Delta":1313594365},{"NoteNumber":53,"Velocity":24,"Duration":782371,"SoundDuration":782371,"Delta":1313594365},{"NoteNumber":58,"Velocity":28,"Duration":782371,"SoundDuration":782371,"Delta":1313594365},{"NoteNumber":34,"Velocity":24,"Duration":3986626,"SoundDuration":3986626,"Delta":1316723849},{"NoteNumber":46,"Velocity":24,"Duration":3986626,"SoundDuration":3986626,"Delta":1316723849},{"NoteNumber":50,"Velocity":24,"Duration":3986626,"SoundDuration":3986626,"Delta":1316723849},{"NoteNumber":53,"Velocity":24,"Duration":3986626,"SoundDuration":3986626,"Delta":1316723849},{"NoteNumber":58,"Velocity":28,"Duration":3986626,"SoundDuration":3986626,"Delta":1316723849}],"license":{"name":"Creative Commons Attribution-ShareAlike 3.0 Germany","url":"http://creativecommons.org/licenses/by-sa/3.0/de/deed.en","text":"The MIDI, audio (MP3, OGG) and video files of Bernd Krueger are licensed under the cc-by-sa Germany License. This means that you can use and adapt the files, as long as you attribute the copyright holder.\n\nName: Bernd Krueger\nSource: http://www.piano-midi.de\n\nThe distribution or public playback of the files is only allowed under identical license conditions.\n\nThe scores are open source.","attribution":"MIDI files by Bernd Krueger (piano-midi.de)","attributionUrl":"http://www.piano-midi.de"}}