{"title":"Sonata D850, 3. movement","artist":"Schubert","durationMs":563523,"midiSha256":"d03299f40713c327b6dbf28b1ff94e7b13d3902f5c3cea1c59c47a490f016eb8","midiObject":[{"NoteNumber":57,"Velocity":59,"Duration":48387,"SoundDuration":48387,"Delta":0},{"NoteNumber":61,"Velocity":70,"Duration":48387,"SoundDuration":48387,"Delta":0},{"NoteNumber":55,"Velocity":59,"Duration":48387,"SoundDuration":48387,"Delta":0},{"NoteNumber":33,"Velocity":51,"Duration":48387,"SoundDuration":48387,"Delta":0},{"NoteNumber":45,"Velocity":60,"Duration":48387,"SoundDuration":48387,"Delta":0},{"NoteNumber":61,"Velocity":76,"Duration":290322,"SoundDuration":290322,"Delta":96774},{"NoteNumber":55,"Velocity":64,"Duration":290322,"SoundDuration":290322,"Delta":96774},{"NoteNumber":57,"Velocity":64,"Duration":290322,"SoundDuration":290322,"Delta":96774},{"NoteNumber":33,"Velocity":54,"Duration":290322,"SoundDuration":290322,"Delta":96774},{"NoteNumber":45,"Velocity":64,"Duration":290322,"SoundDuration":290322,"Delta":96774},{"NoteNumber":55,"Velocity":59,"Duration":48387,"SoundDuration":48387,"Delta":387097},{"NoteNumber":61,"Velocity":70,"Duration":48387,"SoundDuration":48387,"Delta":387097},{"NoteNumber":57,"Velocity":59,"Duration":48387,"SoundDuration":48387,"Delta":387097},{"NoteNumber":33,"Velocity":50,"Duration":48387,"SoundDuration":48387,"Delta":387097},{"NoteNumber":45,"Velocity":59,"Duration":48387,"SoundDuration":48387,"Delta":387097},{"NoteNumber":55,"Velocity":63,"Duration":296641,"SoundDuration":296641,"Delta":483871},{"NoteNumber":62,"Velocity":75,"Duration":296641,"SoundDuration":296641,"Delta":483871},{"NoteNumber":57,"Velocity":63,"Duration":296641,"SoundDuration":296641,"Delta":483871},{"NoteNumber":35,"Velocity":54,"Duration":296641,"SoundDuration":296641,"Delta":483871},{"NoteNumber":47,"Velocity":64,"Duration":296641,"SoundDuration":296641,"Delta":483871},{"NoteNumber":57,"Velocity":59,"Duration":51546,"SoundDuration":51546,"Delta":780513},{"NoteNumber":55,"Velocity":59,"Duration":51546,"SoundDuration":51546,"Delta":780513},{"NoteNumber":64,"Velocity":70,"Duration":51546,"SoundDuration":51546,"Delta":780513},{"NoteNumber":37,"Velocity":51,"Duration":51546,"SoundDuration":51546,"Delta":780513},{"NoteNumber":49,"Velocity":60,"Duration":51546,"SoundDuration":51546,"Delta":780513},{"NoteNumber":54,"Velocity":68,"Duration":760621,"SoundDuration":760621,"Delta":883605},{"NoteNumber":57,"Velocity":68,"Duration":760621,"SoundDuration":760621,"Delta":883605},{"NoteNumber":66,"Velocity":80,"Duration":760621,"SoundDuration":760621,"Delta":883605},{"NoteNumber":62,"Velocity":68,"Duration":760621,"SoundDuration":760621,"Delta":883605},{"NoteNumber":38,"Velocity":57,"Duration":760621,"SoundDuration":760621,"Delta":883605},{"NoteNumber":45,"Velocity":57,"Duration":760621,"SoundDuration":760621,"Delta":883605},{"NoteNumber":50,"Velocity":68,"Duration":760621,"SoundDuration":760621,"Delta":883605},{"NoteNumber":57,"Velocity":68,"Duration":657258,"SoundDuration":657258,"Delta":1667919},{"NoteNumber":54,"Velocity":68,"Duration":657258,"SoundDuration":657258,"Delta":1667919},{"NoteNumber":66,"Velocity":80,"Duration":657258,"SoundDuration":657258,"Delta":1667919},{"NoteNumber":62,"Velocity":68,"Duration":657258,"SoundDuration":657258,"Delta":1667919},{"NoteNumber":38,"Velocity":57,"Duration":750806,"SoundDuration":750806,"Delta":1667919},{"NoteNumber":45,"Velocity":57,"Duration":750806,"SoundDuration":750806,"Delta":1667919},{"NoteNumber":50,"Velocity":68,"Duration":750806,"SoundDuration":750806,"Delta":1667919},{"NoteNumber":66,"Velocity":67,"Duration":96774,"SoundDuration":96774,"Delta":2345339},{"NoteNumber":67,"Velocity":75,"Duration":288461,"SoundDuration":288461,"Delta":2442114},{"NoteNumber":57,"Velocity":66,"Duration":373397,"SoundDuration":373397,"Delta":2442114},{"NoteNumber":38,"Velocity":53,"Duration":384615,"SoundDuration":384615,"Delta":2442114},{"NoteNumber":50,"Velocity":63,"Duration":384615,"SoundDuration":384615,"Delta":2442114},{"NoteNumber":66,"Velocity":70,"Duration":96153,"SoundDuration":96153,"Delta":2730575},{"NoteNumber":64,"Velocity":74,"Duration":96153,"SoundDuration":96153,"Delta":2826729},{"NoteNumber":57,"Velocity":66,"Duration":403917,"SoundDuration":403917,"Delta":2826729},{"NoteNumber":42,"Velocity":53,"Duration":417026,"SoundDuration":417026,"Delta":2826729},{"NoteNumber":54,"Velocity":63,"Duration":417026,"SoundDuration":417026,"Delta":2826729},{"NoteNumber":66,"Velocity":66,"Duration":96153,"SoundDuration":96153,"Delta":2922882},{"NoteNumber":64,"Velocity":66,"Duration":112359,"SoundDuration":112359,"Delta":3019036},{"NoteNumber":62,"Velocity":70,"Duration":112359,"SoundDuration":112359,"Delta":3131396},{"NoteNumber":69,"Velocity":80,"Duration":755681,"SoundDuration":755681,"Delta":3243755},{"NoteNumber":57,"Velocity":68,"Duration":755681,"SoundDuration":755681,"Delta":3243755},{"NoteNumber":64,"Velocity":68,"Duration":755681,"SoundDuration":755681,"Delta":3243755},{"NoteNumber":37,"Velocity":57,"Duration":755681,"SoundDuration":755681,"Delta":3243755},{"NoteNumber":45,"Velocity":57,"Duration":755681,"SoundDuration":755681,"Delta":3243755},{"NoteNumber":49,"Velocity":68,"Duration":755681,"SoundDuration":755681,"Delta":3243755},{"NoteNumber":57,"Velocity":68,"Duration":657258,"SoundDuration":657258,"Delta":4022975},{"NoteNumber":69,"Velocity":80,"Duration":657258,"SoundDuration":657258,"Delta":4022975},{"NoteNumber":64,"Velocity":68,"Duration":657258,"SoundDuration":657258,"Delta":4022975},{"NoteNumber":37,"Velocity":57,"Duration":750806,"SoundDuration":750806,"Delta":4022975},{"NoteNumber":45,"Velocity":57,"Duration":750806,"SoundDuration":750806,"Delta":4022975},{"NoteNumber":49,"Velocity":68,"Duration":750806,"SoundDuration":750806,"Delta":4022975},{"NoteNumber":69,"Velocity":67,"Duration":96774,"SoundDuration":96774,"Delta":4700395},{"NoteNumber":71,"Velocity":75,"Duration":95541,"SoundDuration":95541,"Delta":4797169},{"NoteNumber":64,"Velocity":66,"Duration":371019,"SoundDuration":371019,"Delta":4797169},{"NoteNumber":37,"Velocity":53,"Duration":371019,"SoundDuration":371019,"Delta":4797169},{"NoteNumber":49,"Velocity":63,"Duration":371019,"SoundDuration":371019,"Delta":4797169},{"NoteNumber":73,"Velocity":66,"Duration":95541,"SoundDuration":95541,"Delta":4892711},{"NoteNumber":71,"Velocity":68,"Duration":95541,"SoundDuration":95541,"Delta":4988252},{"NoteNumber":69,"Velocity":70,"Duration":95541,"SoundDuration":95541,"Delta":5083794},{"NoteNumber":64,"Velocity":66,"Duration":417498,"SoundDuration":417498,"Delta":5179335},{"NoteNumber":71,"Velocity":74,"Duration":304290,"SoundDuration":304290,"Delta":5179335},{"NoteNumber":37,"Velocity":53,"Duration":417498,"SoundDuration":417498,"Delta":5179335},{"NoteNumber":49,"Velocity":63,"Duration":417498,"SoundDuration":417498,"Delta":5179335},{"NoteNumber":73,"Velocity":70,"Duration":113207,"SoundDuration":113207,"Delta":5483625},{"NoteNumber":66,"Velocity":68,"Duration":753237,"SoundDuration":753237,"Delta":5596833},{"NoteNumber":71,"Velocity":68,"Duration":753237,"SoundDuration":753237,"Delta":5596833},{"NoteNumber":62,"Velocity":68,"Duration":753237,"SoundDuration":753237,"Delta":5596833},{"NoteNumber":74,"Velocity":80,"Duration":753237,"SoundDuration":753237,"Delta":5596833},{"NoteNumber":35,"Velocity":57,"Duration":753237,"SoundDuration":753237,"Delta":5596833},{"NoteNumber":42,"Velocity":57,"Duration":753237,"SoundDuration":753237,"Delta":5596833},{"NoteNumber":47,"Velocity":68,"Duration":753237,"SoundDuration":753237,"Delta":5596833},{"NoteNumber":62,"Velocity":68,"Duration":572524,"SoundDuration":572524,"Delta":6373533},{"NoteNumber":66,"Velocity":68,"Duration":572524,"SoundDuration":572524,"Delta":6373533},{"NoteNumber":74,"Velocity":80,"Duration":572524,"SoundDuration":572524,"Delta":6373533},{"NoteNumber":71,"Velocity":68,"Duration":572524,"SoundDuration":572524,"Delta":6373533},{"NoteNumber":35,"Velocity":57,"Duration":572524,"SoundDuration":572524,"Delta":6373533},{"NoteNumber":42,"Velocity":57,"Duration":572524,"SoundDuration":572524,"Delta":6373533},{"NoteNumber":47,"Velocity":68,"Duration":572524,"SoundDuration":572524,"Delta":6373533},{"NoteNumber":68,"Velocity":63,"Duration":93809,"SoundDuration":93809,"Delta":6953919},{"NoteNumber":74,"Velocity":75,"Duration":93809,"SoundDuration":93809,"Delta":6953919},{"NoteNumber":40,"Velocity":52,"Duration":93809,"SoundDuration":93809,"Delta":6953919},{"NoteNumber":52,"Velocity":62,"Duration":93809,"SoundDuration":93809,"Delta":6953919},{"NoteNumber":68,"Velocity":68,"Duration":92445,"SoundDuration":92445,"Delta":7140632},{"NoteNumber":74,"Velocity":80,"Duration":92445,"SoundDuration":92445,"Delta":7140632},{"NoteNumber":40,"Velocity":53,"Duration":92445,"SoundDuration":92445,"Delta":7140632},{"NoteNumber":52,"Velocity":63,"Duration":92445,"SoundDuration":92445,"Delta":7140632},{"NoteNumber":74,"Velocity":79,"Duration":91174,"SoundDuration":91174,"Delta":7324999},{"NoteNumber":68,"Velocity":67,"Duration":91174,"SoundDuration":91174,"Delta":7324999},{"NoteNumber":76,"Velocity":79,"Duration":91174,"SoundDuration":91174,"Delta":7324999},{"NoteNumber":40,"Velocity":56,"Duration":91174,"SoundDuration":91174,"Delta":7324999},{"NoteNumber":52,"Velocity":66,"Duration":91174,"SoundDuration":91174,"Delta":7324999},{"NoteNumber":68,"Velocity":70,"Duration":89724,"SoundDuration":89724,"Delta":7506602},{"NoteNumber":74,"Velocity":70,"Duration":89724,"SoundDuration":89724,"Delta":7506602},{"NoteNumber":78,"Velocity":83,"Duration":89724,"SoundDuration":89724,"Delta":7506602},{"NoteNumber":40,"Velocity":57,"Duration":89724,"SoundDuration":89724,"Delta":7506602},{"NoteNumber":52,"Velocity":68,"Duration":89724,"SoundDuration":89724,"Delta":7506602},{"NoteNumber":68,"Velocity":73,"Duration":115384,"SoundDuration":115384,"Delta":7685878},{"NoteNumber":74,"Velocity":73,"Duration":115384,"SoundDuration":115384,"Delta":7685878},{"NoteNumber":80,"Velocity":86,"Duration":115384,"SoundDuration":115384,"Delta":7685878},{"NoteNumber":40,"Velocity":59,"Duration":115384,"SoundDuration":115384,"Delta":7685878},{"NoteNumber":52,"Velocity":70,"Duration":115384,"SoundDuration":115384,"Delta":7685878},{"NoteNumber":69,"Velocity":76,"Duration":738888,"SoundDuration":738888,"Delta":7916647},{"NoteNumber":73,"Velocity":76,"Duration":738888,"SoundDuration":738888,"Delta":7916647},{"NoteNumber":81,"Velocity":90,"Duration":738888,"SoundDuration":738888,"Delta":7916647},{"NoteNumber":33,"Velocity":62,"Duration":738888,"SoundDuration":738888,"Delta":7916647},{"NoteNumber":45,"Velocity":73,"Duration":738888,"SoundDuration":738888,"Delta":7916647},{"NoteNumber":57,"Velocity":73,"Duration":761904,"SoundDuration":761904,"Delta":8678551},{"NoteNumber":61,"Velocity":73,"Duration":761904,"SoundDuration":761904,"Delta":8678551},{"NoteNumber":69,"Velocity":87,"Duration":761904,"SoundDuration":761904,"Delta":8678551},{"NoteNumber":45,"Velocity":57,"Duration":738888,"SoundDuration":738888,"Delta":8678551},{"NoteNumber":52,"Velocity":68,"Duration":738888,"SoundDuration":738888,"Delta":8678551},{"NoteNumber":81,"Velocity":61,"Duration":380951,"SoundDuration":380951,"Delta":9440455},{"NoteNumber":66,"Velocity":45,"Duration":380951,"SoundDuration":380951,"Delta":9440455},{"NoteNumber":82,"Velocity":58,"Duration":385851,"SoundDuration":385851,"Delta":9821407},{"NoteNumber":62,"Velocity":37,"Duration":385851,"SoundDuration":385851,"Delta":9821407},{"NoteNumber":83,"Velocity":62,"Duration":117646,"SoundDuration":117646,"Delta":10207259},{"NoteNumber":67,"Velocity":45,"Duration":352940,"SoundDuration":352940,"Delta":10207259},{"NoteNumber":82,"Velocity":57,"Duration":117646,"SoundDuration":117646,"Delta":10324906},{"NoteNumber":83,"Velocity":57,"Duration":117646,"SoundDuration":117646,"Delta":10442553},{"NoteNumber":88,"Velocity":63,"Duration":118694,"SoundDuration":118694,"Delta":10560200},{"NoteNumber":71,"Velocity":39,"Duration":371168,"SoundDuration":371168,"Delta":10560200},{"NoteNumber":87,"Velocity":61,"Duration":118694,"SoundDuration":118694,"Delta":10678895},{"NoteNumber":88,"Velocity":65,"Duration":133779,"SoundDuration":133779,"Delta":10797589},{"NoteNumber":91,"Velocity":70,"Duration":638298,"SoundDuration":638298,"Delta":10931368},{"NoteNumber":76,"Velocity":39,"Duration":364741,"SoundDuration":364741,"Delta":10931368},{"NoteNumber":61,"Velocity":44,"Duration":182370,"SoundDuration":182370,"Delta":11296110},{"NoteNumber":90,"Velocity":61,"Duration":91185,"SoundDuration":91185,"Delta":11569667},{"NoteNumber":88,"Velocity":69,"Duration":273556,"SoundDuration":273556,"Delta":11660852},{"NoteNumber":73,"Velocity":36,"Duration":364741,"SoundDuration":364741,"Delta":11660852},{"NoteNumber":86,"Velocity":62,"Duration":91185,"SoundDuration":91185,"Delta":11934409},{"NoteNumber":85,"Velocity":70,"Duration":274297,"SoundDuration":274297,"Delta":12025594},{"NoteNumber":67,"Velocity":36,"Duration":374297,"SoundDuration":374297,"Delta":12025594},{"NoteNumber":83,"Velocity":62,"Duration":100000,"SoundDuration":100000,"Delta":12299892},{"NoteNumber":81,"Velocity":69,"Duration":117302,"SoundDuration":117302,"Delta":12399892},{"NoteNumber":66,"Velocity":45,"Duration":351905,"SoundDuration":351905,"Delta":12399892},{"NoteNumber":80,"Velocity":60,"Duration":117301,"SoundDuration":117301,"Delta":12517194},{"NoteNumber":81,"Velocity":55,"Duration":117302,"SoundDuration":117302,"Delta":12634496},{"NoteNumber":86,"Velocity":68,"Duration":119760,"SoundDuration":119760,"Delta":12751798},{"NoteNumber":69,"Velocity":39,"Duration":373300,"SoundDuration":373300,"Delta":12751798},{"NoteNumber":85,"Velocity":65,"Duration":119760,"SoundDuration":119760,"Delta":12871558},{"NoteNumber":86,"Velocity":69,"Duration":133779,"SoundDuration":133779,"Delta":12991318},{"NoteNumber":90,"Velocity":72,"Duration":638298,"SoundDuration":638298,"Delta":13125098},{"NoteNumber":74,"Velocity":39,"Duration":364741,"SoundDuration":364741,"Delta":13125098},{"NoteNumber":59,"Velocity":44,"Duration":182370,"SoundDuration":182370,"Delta":13489840},{"NoteNumber":88,"Velocity":61,"Duration":91185,"SoundDuration":91185,"Delta":13763396},{"NoteNumber":86,"Velocity":69,"Duration":273556,"SoundDuration":273556,"Delta":13854582},{"NoteNumber":71,"Velocity":36,"Duration":364741,"SoundDuration":364741,"Delta":13854582},{"NoteNumber":85,"Velocity":62,"Duration":91185,"SoundDuration":91185,"Delta":14128138},{"NoteNumber":83,"Velocity":70,"Duration":274297,"SoundDuration":274297,"Delta":14219324},{"NoteNumber":66,"Velocity":36,"Duration":374297,"SoundDuration":374297,"Delta":14219324},{"NoteNumber":81,"Velocity":62,"Duration":100000,"SoundDuration":100000,"Delta":14493621},{"NoteNumber":79,"Velocity":67,"Duration":117646,"SoundDuration":117646,"Delta":14593621},{"NoteNumber":64,"Velocity":45,"Duration":352940,"SoundDuration":352940,"Delta":14593621},{"NoteNumber":78,"Velocity":58,"Duration":117646,"SoundDuration":117646,"Delta":14711268},{"NoteNumber":79,"Velocity":58,"Duration":117646,"SoundDuration":117646,"Delta":14828915},{"NoteNumber":85,"Velocity":63,"Duration":120482,"SoundDuration":120482,"Delta":14946562},{"NoteNumber":67,"Velocity":39,"Duration":374743,"SoundDuration":374743,"Delta":14946562},{"NoteNumber":84,"Velocity":61,"Duration":120481,"SoundDuration":120481,"Delta":15067044},{"NoteNumber":85,"Velocity":65,"Duration":133779,"SoundDuration":133779,"Delta":15187526},{"NoteNumber":88,"Velocity":70,"Duration":638298,"SoundDuration":638298,"Delta":15321305},{"NoteNumber":73,"Velocity":39,"Duration":364741,"SoundDuration":364741,"Delta":15321305},{"NoteNumber":52,"Velocity":44,"Duration":182371,"SoundDuration":182371,"Delta":15686047},{"NoteNumber":86,"Velocity":59,"Duration":91185,"SoundDuration":91185,"Delta":15959604},{"NoteNumber":85,"Velocity":68,"Duration":277777,"SoundDuration":277777,"Delta":16050789},{"NoteNumber":64,"Velocity":34,"Duration":370370,"SoundDuration":370370,"Delta":16050789},{"NoteNumber":86,"Velocity":57,"Duration":92592,"SoundDuration":92592,"Delta":16328567},{"NoteNumber":85,"Velocity":67,"Duration":301402,"SoundDuration":301402,"Delta":16421159},{"NoteNumber":65,"Velocity":32,"Duration":423851,"SoundDuration":423851,"Delta":16421159},{"NoteNumber":83,"Velocity":58,"Duration":122449,"SoundDuration":122449,"Delta":16722562},{"NoteNumber":78,"Velocity":53,"Duration":773255,"SoundDuration":773255,"Delta":16845011},{"NoteNumber":82,"Velocity":63,"Duration":773255,"SoundDuration":773255,"Delta":16845011},{"NoteNumber":66,"Velocity":25,"Duration":773255,"SoundDuration":773255,"Delta":16845011},{"NoteNumber":73,"Velocity":30,"Duration":773255,"SoundDuration":773255,"Delta":16845011},{"NoteNumber":78,"Velocity":47,"Duration":669355,"SoundDuration":669355,"Delta":17642353},{"NoteNumber":82,"Velocity":56,"Duration":657258,"SoundDuration":657258,"Delta":17642353},{"NoteNumber":66,"Velocity":39,"Duration":580645,"SoundDuration":580645,"Delta":17642353},{"NoteNumber":73,"Velocity":47,"Duration":580645,"SoundDuration":580645,"Delta":17642353},{"NoteNumber":82,"Velocity":46,"Duration":96774,"SoundDuration":96774,"Delta":18319772},{"NoteNumber":78,"Velocity":46,"Duration":373397,"SoundDuration":373397,"Delta":18416547},{"NoteNumber":83,"Velocity":52,"Duration":288461,"SoundDuration":288461,"Delta":18416547},{"NoteNumber":66,"Velocity":37,"Duration":346153,"SoundDuration":346153,"Delta":18416547},{"NoteNumber":73,"Velocity":44,"Duration":346153,"SoundDuration":346153,"Delta":18416547},{"NoteNumber":82,"Velocity":49,"Duration":96153,"SoundDuration":96153,"Delta":18705008},{"NoteNumber":78,"Velocity":46,"Duration":403917,"SoundDuration":403917,"Delta":18801162},{"NoteNumber":83,"Velocity":51,"Duration":304666,"SoundDuration":304666,"Delta":18801162},{"NoteNumber":66,"Velocity":37,"Duration":372082,"SoundDuration":372082,"Delta":18801162},{"NoteNumber":73,"Velocity":44,"Duration":372082,"SoundDuration":372082,"Delta":18801162},{"NoteNumber":82,"Velocity":49,"Duration":112359,"SoundDuration":112359,"Delta":19105829},{"NoteNumber":77,"Velocity":47,"Duration":755681,"SoundDuration":755681,"Delta":19218188},{"NoteNumber":80,"Velocity":56,"Duration":755681,"SoundDuration":755681,"Delta":19218188},{"NoteNumber":61,"Velocity":39,"Duration":755681,"SoundDuration":755681,"Delta":19218188},{"NoteNumber":71,"Velocity":47,"Duration":755681,"SoundDuration":755681,"Delta":19218188},{"NoteNumber":80,"Velocity":56,"Duration":657258,"SoundDuration":657258,"Delta":19997408},{"NoteNumber":77,"Velocity":47,"Duration":669355,"SoundDuration":669355,"Delta":19997408},{"NoteNumber":61,"Velocity":39,"Duration":766129,"SoundDuration":766129,"Delta":19997408},{"NoteNumber":71,"Velocity":47,"Duration":766129,"SoundDuration":766129,"Delta":19997408},{"NoteNumber":80,"Velocity":46,"Duration":96774,"SoundDuration":96774,"Delta":20674828},{"NoteNumber":82,"Velocity":52,"Duration":288461,"SoundDuration":288461,"Delta":20771602},{"NoteNumber":77,"Velocity":46,"Duration":372595,"SoundDuration":372595,"Delta":20771602},{"NoteNumber":61,"Velocity":37,"Duration":346153,"SoundDuration":346153,"Delta":20771602},{"NoteNumber":71,"Velocity":44,"Duration":346153,"SoundDuration":346153,"Delta":20771602},{"NoteNumber":80,"Velocity":49,"Duration":96153,"SoundDuration":96153,"Delta":21060063},{"NoteNumber":82,"Velocity":51,"Duration":304666,"SoundDuration":304666,"Delta":21156217},{"NoteNumber":77,"Velocity":46,"Duration":402981,"SoundDuration":402981,"Delta":21156217},{"NoteNumber":61,"Velocity":37,"Duration":372082,"SoundDuration":372082,"Delta":21156217},{"NoteNumber":71,"Velocity":44,"Duration":372082,"SoundDuration":372082,"Delta":21156217},{"NoteNumber":80,"Velocity":49,"Duration":112359,"SoundDuration":112359,"Delta":21460884},{"NoteNumber":78,"Velocity":56,"Duration":755681,"SoundDuration":755681,"Delta":21573244},{"NoteNumber":66,"Velocity":39,"Duration":755681,"SoundDuration":755681,"Delta":21573244},{"NoteNumber":70,"Velocity":47,"Duration":755681,"SoundDuration":755681,"Delta":21573244},{"NoteNumber":78,"Velocity":56,"Duration":673700,"SoundDuration":673700,"Delta":22352464},{"NoteNumber":66,"Velocity":39,"Duration":673700,"SoundDuration":673700,"Delta":22352464},{"NoteNumber":70,"Velocity":47,"Duration":673700,"SoundDuration":673700,"Delta":22352464},{"NoteNumber":49,"Velocity":59,"Duration":48387,"SoundDuration":48387,"Delta":23034281},{"NoteNumber":55,"Velocity":59,"Duration":48387,"SoundDuration":48387,"Delta":23034281},{"NoteNumber":57,"Velocity":70,"Duration":48387,"SoundDuration":48387,"Delta":23034281},{"NoteNumber":33,"Velocity":51,"Duration":48387,"SoundDuration":48387,"Delta":23034281},{"NoteNumber":45,"Velocity":60,"Duration":48387,"SoundDuration":48387,"Delta":23034281},{"NoteNumber":55,"Velocity":64,"Duration":290322,"SoundDuration":290322,"Delta":23131055},{"NoteNumber":49,"Velocity":64,"Duration":290322,"SoundDuration":290322,"Delta":23131055},{"NoteNumber":57,"Velocity":76,"Duration":290322,"SoundDuration":290322,"Delta":23131055},{"NoteNumber":33,"Velocity":54,"Duration":290322,"SoundDuration":290322,"Delta":23131055},{"NoteNumber":45,"Velocity":64,"Duration":290322,"SoundDuration":290322,"Delta":23131055},{"NoteNumber":55,"Velocity":59,"Duration":48387,"SoundDuration":48387,"Delta":23421378},{"NoteNumber":49,"Velocity":59,"Duration":48387,"SoundDuration":48387,"Delta":23421378},{"NoteNumber":57,"Velocity":70,"Duration":48387,"SoundDuration":48387,"Delta":23421378},{"NoteNumber":33,"Velocity":50,"Duration":48387,"SoundDuration":48387,"Delta":23421378},{"NoteNumber":45,"Velocity":59,"Duration":48387,"SoundDuration":48387,"Delta":23421378},{"NoteNumber":59,"Velocity":75,"Duration":296641,"SoundDuration":296641,"Delta":23518152},{"NoteNumber":49,"Velocity":63,"Duration":296641,"SoundDuration":296641,"Delta":23518152},{"NoteNumber":55,"Velocity":63,"Duration":296641,"SoundDuration":296641,"Delta":23518152},{"NoteNumber":33,"Velocity":54,"Duration":296641,"SoundDuration":296641,"Delta":23518152},{"NoteNumber":45,"Velocity":64,"Duration":296641,"SoundDuration":296641,"Delta":23518152},{"NoteNumber":49,"Velocity":59,"Duration":51546,"SoundDuration":51546,"Delta":23814794},{"NoteNumber":55,"Velocity":59,"Duration":51546,"SoundDuration":51546,"Delta":23814794},{"NoteNumber":61,"Velocity":70,"Duration":51546,"SoundDuration":51546,"Delta":23814794},{"NoteNumber":33,"Velocity":51,"Duration":51546,"SoundDuration":51546,"Delta":23814794},{"NoteNumber":45,"Velocity":60,"Duration":51546,"SoundDuration":51546,"Delta":23814794},{"NoteNumber":50,"Velocity":68,"Duration":760621,"SoundDuration":760621,"Delta":23917886},{"NoteNumber":54,"Velocity":68,"Duration":760621,"SoundDuration":760621,"Delta":23917886},{"NoteNumber":62,"Velocity":80,"Duration":760621,"SoundDuration":760621,"Delta":23917886},{"NoteNumber":35,"Velocity":57,"Duration":760621,"SoundDuration":760621,"Delta":23917886},{"NoteNumber":47,"Velocity":68,"Duration":760621,"SoundDuration":760621,"Delta":23917886},{"NoteNumber":50,"Velocity":68,"Duration":750806,"SoundDuration":750806,"Delta":24702200},{"NoteNumber":59,"Velocity":68,"Duration":750806,"SoundDuration":750806,"Delta":24702200},{"NoteNumber":54,"Velocity":68,"Duration":750806,"SoundDuration":750806,"Delta":24702200},{"NoteNumber":62,"Velocity":80,"Duration":657258,"SoundDuration":657258,"Delta":24702200},{"NoteNumber":35,"Velocity":57,"Duration":750806,"SoundDuration":750806,"Delta":24702200},{"NoteNumber":47,"Velocity":68,"Duration":750806,"SoundDuration":750806,"Delta":24702200},{"NoteNumber":62,"Velocity":67,"Duration":96774,"SoundDuration":96774,"Delta":25379620},{"NoteNumber":54,"Velocity":66,"Duration":373397,"SoundDuration":373397,"Delta":25476394},{"NoteNumber":62,"Velocity":75,"Duration":288461,"SoundDuration":288461,"Delta":25476394},{"NoteNumber":35,"Velocity":53,"Duration":384615,"SoundDuration":384615,"Delta":25476394},{"NoteNumber":47,"Velocity":63,"Duration":384615,"SoundDuration":384615,"Delta":25476394},{"NoteNumber":64,"Velocity":70,"Duration":96153,"SoundDuration":96153,"Delta":25764856},{"NoteNumber":54,"Velocity":66,"Duration":403917,"SoundDuration":403917,"Delta":25861009},{"NoteNumber":66,"Velocity":74,"Duration":304666,"SoundDuration":304666,"Delta":25861009},{"NoteNumber":35,"Velocity":53,"Duration":417026,"SoundDuration":417026,"Delta":25861009},{"NoteNumber":47,"Velocity":63,"Duration":417026,"SoundDuration":417026,"Delta":25861009},{"NoteNumber":62,"Velocity":70,"Duration":112359,"SoundDuration":112359,"Delta":26165676},{"NoteNumber":67,"Velocity":68,"Duration":779219,"SoundDuration":779219,"Delta":26278036},{"NoteNumber":69,"Velocity":80,"Duration":755681,"SoundDuration":755681,"Delta":26278036},{"NoteNumber":57,"Velocity":68,"Duration":755681,"SoundDuration":755681,"Delta":26278036},{"NoteNumber":64,"Velocity":68,"Duration":755681,"SoundDuration":755681,"Delta":26278036},{"NoteNumber":37,"Velocity":57,"Duration":755681,"SoundDuration":755681,"Delta":26278036},{"NoteNumber":45,"Velocity":57,"Duration":755681,"SoundDuration":755681,"Delta":26278036},{"NoteNumber":49,"Velocity":68,"Duration":755681,"SoundDuration":755681,"Delta":26278036},{"NoteNumber":67,"Velocity":68,"Duration":657258,"SoundDuration":657258,"Delta":27057256},{"NoteNumber":69,"Velocity":80,"Duration":657258,"SoundDuration":657258,"Delta":27057256},{"NoteNumber":57,"Velocity":68,"Duration":657258,"SoundDuration":657258,"Delta":27057256},{"NoteNumber":64,"Velocity":68,"Duration":657258,"SoundDuration":657258,"Delta":27057256},{"NoteNumber":37,"Velocity":57,"Duration":750806,"SoundDuration":750806,"Delta":27057256},{"NoteNumber":45,"Velocity":57,"Duration":750806,"SoundDuration":750806,"Delta":27057256},{"NoteNumber":49,"Velocity":68,"Duration":750806,"SoundDuration":750806,"Delta":27057256},{"NoteNumber":69,"Velocity":67,"Duration":91935,"SoundDuration":91935,"Delta":27734676},{"NoteNumber":64,"Velocity":53,"Duration":91935,"SoundDuration":91935,"Delta":27734676},{"NoteNumber":67,"Velocity":53,"Duration":91935,"SoundDuration":91935,"Delta":27734676},{"NoteNumber":69,"Velocity":75,"Duration":265127,"SoundDuration":265127,"Delta":27831450},{"NoteNumber":64,"Velocity":60,"Duration":272293,"SoundDuration":272293,"Delta":27831450},{"NoteNumber":67,"Velocity":60,"Duration":272293,"SoundDuration":272293,"Delta":27831450},{"NoteNumber":37,"Velocity":53,"Duration":371019,"SoundDuration":371019,"Delta":27831450},{"NoteNumber":49,"Velocity":63,"Duration":371019,"SoundDuration":371019,"Delta":27831450},{"NoteNumber":64,"Velocity":56,"Duration":90764,"SoundDuration":90764,"Delta":28118074},{"NoteNumber":67,"Velocity":56,"Duration":90764,"SoundDuration":90764,"Delta":28118074},{"NoteNumber":69,"Velocity":70,"Duration":90764,"SoundDuration":90764,"Delta":28118074},{"NoteNumber":64,"Velocity":59,"Duration":287309,"SoundDuration":287309,"Delta":28213616},{"NoteNumber":67,"Velocity":59,"Duration":287309,"SoundDuration":287309,"Delta":28213616},{"NoteNumber":71,"Velocity":74,"Duration":287309,"SoundDuration":287309,"Delta":28213616},{"NoteNumber":37,"Velocity":53,"Duration":417497,"SoundDuration":417497,"Delta":28213616},{"NoteNumber":49,"Velocity":63,"Duration":417497,"SoundDuration":417497,"Delta":28213616},{"NoteNumber":64,"Velocity":56,"Duration":113207,"SoundDuration":113207,"Delta":28517906},{"NoteNumber":67,"Velocity":56,"Duration":113207,"SoundDuration":113207,"Delta":28517906},{"NoteNumber":73,"Velocity":70,"Duration":113207,"SoundDuration":113207,"Delta":28517906},{"NoteNumber":62,"Velocity":68,"Duration":753237,"SoundDuration":753237,"Delta":28631114},{"NoteNumber":66,"Velocity":68,"Duration":753237,"SoundDuration":753237,"Delta":28631114},{"NoteNumber":69,"Velocity":68,"Duration":753237,"SoundDuration":753237,"Delta":28631114},{"NoteNumber":74,"Velocity":80,"Duration":753237,"SoundDuration":753237,"Delta":28631114},{"NoteNumber":36,"Velocity":57,"Duration":753237,"SoundDuration":753237,"Delta":28631114},{"NoteNumber":48,"Velocity":68,"Duration":753237,"SoundDuration":753237,"Delta":28631114},{"NoteNumber":62,"Velocity":68,"Duration":572524,"SoundDuration":572524,"Delta":29407814},{"NoteNumber":67,"Velocity":68,"Duration":572524,"SoundDuration":572524,"Delta":29407814},{"NoteNumber":74,"Velocity":80,"Duration":572524,"SoundDuration":572524,"Delta":29407814},{"NoteNumber":35,"Velocity":57,"Duration":572524,"SoundDuration":572524,"Delta":29407814},{"NoteNumber":47,"Velocity":68,"Duration":572524,"SoundDuration":572524,"Delta":29407814},{"NoteNumber":68,"Velocity":63,"Duration":93809,"SoundDuration":93809,"Delta":29988200},{"NoteNumber":74,"Velocity":75,"Duration":93809,"SoundDuration":93809,"Delta":29988200},{"NoteNumber":34,"Velocity":52,"Duration":93809,"SoundDuration":93809,"Delta":29988200},{"NoteNumber":46,"Velocity":62,"Duration":93809,"SoundDuration":93809,"Delta":29988200},{"NoteNumber":68,"Velocity":68,"Duration":92445,"SoundDuration":92445,"Delta":30174913},{"NoteNumber":74,"Velocity":80,"Duration":92445,"SoundDuration":92445,"Delta":30174913},{"NoteNumber":34,"Velocity":53,"Duration":92445,"SoundDuration":92445,"Delta":30174913},{"NoteNumber":46,"Velocity":63,"Duration":92445,"SoundDuration":92445,"Delta":30174913},{"NoteNumber":68,"Velocity":67,"Duration":91174,"SoundDuration":91174,"Delta":30359280},{"NoteNumber":74,"Velocity":79,"Duration":91174,"SoundDuration":91174,"Delta":30359280},{"NoteNumber":76,"Velocity":79,"Duration":91174,"SoundDuration":91174,"Delta":30359280},{"NoteNumber":34,"Velocity":56,"Duration":91174,"SoundDuration":91174,"Delta":30359280},{"NoteNumber":46,"Velocity":66,"Duration":91174,"SoundDuration":91174,"Delta":30359280},{"NoteNumber":68,"Velocity":70,"Duration":89724,"SoundDuration":89724,"Delta":30540882},{"NoteNumber":74,"Velocity":70,"Duration":89724,"SoundDuration":89724,"Delta":30540882},{"NoteNumber":78,"Velocity":83,"Duration":89724,"SoundDuration":89724,"Delta":30540882},{"NoteNumber":34,"Velocity":57,"Duration":89724,"SoundDuration":89724,"Delta":30540882},{"NoteNumber":46,"Velocity":68,"Duration":89724,"SoundDuration":89724,"Delta":30540882},{"NoteNumber":68,"Velocity":73,"Duration":115384,"SoundDuration":115384,"Delta":30720159},{"NoteNumber":74,"Velocity":73,"Duration":115384,"SoundDuration":115384,"Delta":30720159},{"NoteNumber":80,"Velocity":86,"Duration":115384,"SoundDuration":115384,"Delta":30720159},{"NoteNumber":34,"Velocity":59,"Duration":115384,"SoundDuration":115384,"Delta":30720159},{"NoteNumber":46,"Velocity":70,"Duration":115384,"SoundDuration":115384,"Delta":30720159},{"NoteNumber":69,"Velocity":76,"Duration":738888,"SoundDuration":738888,"Delta":30950928},{"NoteNumber":73,"Velocity":76,"Duration":738888,"SoundDuration":738888,"Delta":30950928},{"NoteNumber":81,"Velocity":90,"Duration":738888,"SoundDuration":738888,"Delta":30950928},{"NoteNumber":33,"Velocity":62,"Duration":738888,"SoundDuration":738888,"Delta":30950928},{"NoteNumber":45,"Velocity":73,"Duration":738888,"SoundDuration":738888,"Delta":30950928},{"NoteNumber":57,"Velocity":73,"Duration":761904,"SoundDuration":761904,"Delta":31712832},{"NoteNumber":61,"Velocity":73,"Duration":761904,"SoundDuration":761904,"Delta":31712832},{"NoteNumber":69,"Velocity":87,"Duration":761904,"SoundDuration":761904,"Delta":31712832},{"NoteNumber":45,"Velocity":57,"Duration":738888,"SoundDuration":738888,"Delta":31712832},{"NoteNumber":52,"Velocity":68,"Duration":738888,"SoundDuration":738888,"Delta":31712832},{"NoteNumber":76,"Velocity":61,"Duration":380952,"SoundDuration":380952,"Delta":32474736},{"NoteNumber":61,"Velocity":45,"Duration":380952,"SoundDuration":380952,"Delta":32474736},{"NoteNumber":77,"Velocity":58,"Duration":385851,"SoundDuration":385851,"Delta":32855688},{"NoteNumber":57,"Velocity":37,"Duration":385851,"SoundDuration":385851,"Delta":32855688},{"NoteNumber":78,"Velocity":62,"Duration":117646,"SoundDuration":117646,"Delta":33241540},{"NoteNumber":62,"Velocity":45,"Duration":352941,"SoundDuration":352941,"Delta":33241540},{"NoteNumber":77,"Velocity":57,"Duration":117647,"SoundDuration":117647,"Delta":33359187},{"NoteNumber":78,"Velocity":57,"Duration":117646,"SoundDuration":117646,"Delta":33476834},{"NoteNumber":83,"Velocity":63,"Duration":118694,"SoundDuration":118694,"Delta":33594481},{"NoteNumber":66,"Velocity":39,"Duration":371167,"SoundDuration":371167,"Delta":33594481},{"NoteNumber":82,"Velocity":61,"Duration":118694,"SoundDuration":118694,"Delta":33713176},{"NoteNumber":83,"Velocity":65,"Duration":133779,"SoundDuration":133779,"Delta":33831870},{"NoteNumber":86,"Velocity":70,"Duration":638298,"SoundDuration":638298,"Delta":33965649},{"NoteNumber":71,"Velocity":39,"Duration":364741,"SoundDuration":364741,"Delta":33965649},{"NoteNumber":56,"Velocity":44,"Duration":182371,"SoundDuration":182371,"Delta":34330391},{"NoteNumber":85,"Velocity":61,"Duration":91185,"SoundDuration":91185,"Delta":34603948},{"NoteNumber":83,"Velocity":69,"Duration":91185,"SoundDuration":91185,"Delta":34695133},{"NoteNumber":68,"Velocity":36,"Duration":364741,"SoundDuration":364741,"Delta":34695133},{"NoteNumber":85,"Velocity":63,"Duration":91185,"SoundDuration":91185,"Delta":34786319},{"NoteNumber":83,"Velocity":63,"Duration":91185,"SoundDuration":91185,"Delta":34877504},{"NoteNumber":81,"Velocity":62,"Duration":91185,"SoundDuration":91185,"Delta":34968690},{"NoteNumber":80,"Velocity":70,"Duration":90361,"SoundDuration":90361,"Delta":35059875},{"NoteNumber":62,"Velocity":36,"Duration":374297,"SoundDuration":374297,"Delta":35059875},{"NoteNumber":81,"Velocity":65,"Duration":90361,"SoundDuration":90361,"Delta":35150237},{"NoteNumber":80,"Velocity":66,"Duration":93574,"SoundDuration":93574,"Delta":35240598},{"NoteNumber":78,"Velocity":62,"Duration":100000,"SoundDuration":100000,"Delta":35334173},{"NoteNumber":76,"Velocity":69,"Duration":117302,"SoundDuration":117302,"Delta":35434173},{"NoteNumber":61,"Velocity":45,"Duration":351905,"SoundDuration":351905,"Delta":35434173},{"NoteNumber":75,"Velocity":60,"Duration":117301,"SoundDuration":117301,"Delta":35551475},{"NoteNumber":76,"Velocity":55,"Duration":117302,"SoundDuration":117302,"Delta":35668777},{"NoteNumber":81,"Velocity":68,"Duration":119760,"SoundDuration":119760,"Delta":35786079},{"NoteNumber":64,"Velocity":39,"Duration":373300,"SoundDuration":373300,"Delta":35786079},{"NoteNumber":80,"Velocity":65,"Duration":119760,"SoundDuration":119760,"Delta":35905839},{"NoteNumber":81,"Velocity":69,"Duration":133779,"SoundDuration":133779,"Delta":36025599},{"NoteNumber":85,"Velocity":72,"Duration":638298,"SoundDuration":638298,"Delta":36159379},{"NoteNumber":69,"Velocity":39,"Duration":364741,"SoundDuration":364741,"Delta":36159379},{"NoteNumber":54,"Velocity":44,"Duration":182371,"SoundDuration":182371,"Delta":36524121},{"NoteNumber":83,"Velocity":61,"Duration":91185,"SoundDuration":91185,"Delta":36797677},{"NoteNumber":81,"Velocity":69,"Duration":91185,"SoundDuration":91185,"Delta":36888863},{"NoteNumber":66,"Velocity":36,"Duration":364741,"SoundDuration":364741,"Delta":36888863},{"NoteNumber":83,"Velocity":63,"Duration":91185,"SoundDuration":91185,"Delta":36980048},{"NoteNumber":81,"Velocity":63,"Duration":91185,"SoundDuration":91185,"Delta":37071234},{"NoteNumber":80,"Velocity":62,"Duration":91185,"SoundDuration":91185,"Delta":37162419},{"NoteNumber":78,"Velocity":70,"Duration":90361,"SoundDuration":90361,"Delta":37253605},{"NoteNumber":61,"Velocity":36,"Duration":374297,"SoundDuration":374297,"Delta":37253605},{"NoteNumber":80,"Velocity":65,"Duration":90361,"SoundDuration":90361,"Delta":37343966},{"NoteNumber":78,"Velocity":65,"Duration":93574,"SoundDuration":93574,"Delta":37434328},{"NoteNumber":76,"Velocity":62,"Duration":100000,"SoundDuration":100000,"Delta":37527902},{"NoteNumber":74,"Velocity":67,"Duration":117646,"SoundDuration":117646,"Delta":37627902},{"NoteNumber":59,"Velocity":45,"Duration":352941,"SoundDuration":352941,"Delta":37627902},{"NoteNumber":73,"Velocity":58,"Duration":117647,"SoundDuration":117647,"Delta":37745549},{"NoteNumber":74,"Velocity":58,"Duration":117646,"SoundDuration":117646,"Delta":37863196},{"NoteNumber":80,"Velocity":63,"Duration":120482,"SoundDuration":120482,"Delta":37980843},{"NoteNumber":62,"Velocity":39,"Duration":374743,"SoundDuration":374743,"Delta":37980843},{"NoteNumber":79,"Velocity":61,"Duration":120481,"SoundDuration":120481,"Delta":38101325},{"NoteNumber":80,"Velocity":65,"Duration":133779,"SoundDuration":133779,"Delta":38221807},{"NoteNumber":83,"Velocity":70,"Duration":638298,"SoundDuration":638298,"Delta":38355586},{"NoteNumber":68,"Velocity":39,"Duration":364741,"SoundDuration":364741,"Delta":38355586},{"NoteNumber":47,"Velocity":44,"Duration":182371,"SoundDuration":182371,"Delta":38720328},{"NoteNumber":81,"Velocity":59,"Duration":91185,"SoundDuration":91185,"Delta":38993885},{"NoteNumber":80,"Velocity":68,"Duration":277777,"SoundDuration":277777,"Delta":39085070},{"NoteNumber":59,"Velocity":34,"Duration":370370,"SoundDuration":370370,"Delta":39085070},{"NoteNumber":81,"Velocity":57,"Duration":92592,"SoundDuration":92592,"Delta":39362848},{"NoteNumber":80,"Velocity":67,"Duration":301402,"SoundDuration":301402,"Delta":39455440},{"NoteNumber":60,"Velocity":32,"Duration":423851,"SoundDuration":423851,"Delta":39455440},{"NoteNumber":78,"Velocity":58,"Duration":122448,"SoundDuration":122448,"Delta":39756843},{"NoteNumber":77,"Velocity":63,"Duration":773255,"SoundDuration":773255,"Delta":39879292},{"NoteNumber":73,"Velocity":53,"Duration":773255,"SoundDuration":773255,"Delta":39879292},{"NoteNumber":61,"Velocity":25,"Duration":773255,"SoundDuration":773255,"Delta":39879292},{"NoteNumber":68,"Velocity":30,"Duration":773255,"SoundDuration":773255,"Delta":39879292},{"NoteNumber":73,"Velocity":47,"Duration":766129,"SoundDuration":766129,"Delta":40676634},{"NoteNumber":77,"Velocity":56,"Duration":657258,"SoundDuration":657258,"Delta":40676634},{"NoteNumber":61,"Velocity":39,"Duration":766129,"SoundDuration":766129,"Delta":40676634},{"NoteNumber":68,"Velocity":47,"Duration":766129,"SoundDuration":766129,"Delta":40676634},{"NoteNumber":77,"Velocity":46,"Duration":96774,"SoundDuration":96774,"Delta":41354053},{"NoteNumber":73,"Velocity":46,"Duration":373397,"SoundDuration":373397,"Delta":41450828},{"NoteNumber":78,"Velocity":52,"Duration":288461,"SoundDuration":288461,"Delta":41450828},{"NoteNumber":61,"Velocity":37,"Duration":346153,"SoundDuration":346153,"Delta":41450828},{"NoteNumber":68,"Velocity":44,"Duration":346153,"SoundDuration":346153,"Delta":41450828},{"NoteNumber":77,"Velocity":49,"Duration":96153,"SoundDuration":96153,"Delta":41739289},{"NoteNumber":78,"Velocity":51,"Duration":304667,"SoundDuration":304667,"Delta":41835443},{"NoteNumber":73,"Velocity":46,"Duration":403917,"SoundDuration":403917,"Delta":41835443},{"NoteNumber":61,"Velocity":37,"Duration":372082,"SoundDuration":372082,"Delta":41835443},{"NoteNumber":68,"Velocity":44,"Duration":372082,"SoundDuration":372082,"Delta":41835443},{"NoteNumber":77,"Velocity":49,"Duration":112359,"SoundDuration":112359,"Delta":42140110},{"NoteNumber":80,"Velocity":61,"Duration":755681,"SoundDuration":755681,"Delta":42252469},{"NoteNumber":74,"Velocity":51,"Duration":755681,"SoundDuration":755681,"Delta":42252469},{"NoteNumber":76,"Velocity":51,"Duration":755681,"SoundDuration":755681,"Delta":42252469},{"NoteNumber":59,"Velocity":39,"Duration":755681,"SoundDuration":755681,"Delta":42252469},{"NoteNumber":64,"Velocity":39,"Duration":755681,"SoundDuration":755681,"Delta":42252469},{"NoteNumber":68,"Velocity":47,"Duration":755681,"SoundDuration":755681,"Delta":42252469},{"NoteNumber":74,"Velocity":51,"Duration":669355,"SoundDuration":669355,"Delta":43031689},{"NoteNumber":80,"Velocity":61,"Duration":669355,"SoundDuration":669355,"Delta":43031689},{"NoteNumber":76,"Velocity":51,"Duration":669355,"SoundDuration":669355,"Delta":43031689},{"NoteNumber":59,"Velocity":39,"Duration":669355,"SoundDuration":669355,"Delta":43031689},{"NoteNumber":64,"Velocity":39,"Duration":669355,"SoundDuration":669355,"Delta":43031689},{"NoteNumber":68,"Velocity":47,"Duration":669355,"SoundDuration":669355,"Delta":43031689},{"NoteNumber":76,"Velocity":50,"Duration":96774,"SoundDuration":96774,"Delta":43709109},{"NoteNumber":68,"Velocity":39,"Duration":96774,"SoundDuration":96774,"Delta":43709109},{"NoteNumber":78,"Velocity":57,"Duration":288461,"SoundDuration":288461,"Delta":43805883},{"NoteNumber":74,"Velocity":50,"Duration":372595,"SoundDuration":372595,"Delta":43805883},{"NoteNumber":69,"Velocity":44,"Duration":288461,"SoundDuration":288461,"Delta":43805883},{"NoteNumber":64,"Velocity":39,"Duration":372595,"SoundDuration":372595,"Delta":43805883},{"NoteNumber":76,"Velocity":53,"Duration":96153,"SoundDuration":96153,"Delta":44094344},{"NoteNumber":68,"Velocity":41,"Duration":96153,"SoundDuration":96153,"Delta":44094344},{"NoteNumber":74,"Velocity":50,"Duration":402981,"SoundDuration":402981,"Delta":44190498},{"NoteNumber":78,"Velocity":56,"Duration":304667,"SoundDuration":304667,"Delta":44190498},{"NoteNumber":64,"Velocity":39,"Duration":402981,"SoundDuration":402981,"Delta":44190498},{"NoteNumber":69,"Velocity":43,"Duration":304667,"SoundDuration":304667,"Delta":44190498},{"NoteNumber":80,"Velocity":53,"Duration":112359,"SoundDuration":112359,"Delta":44495165},{"NoteNumber":71,"Velocity":41,"Duration":112359,"SoundDuration":112359,"Delta":44495165},{"NoteNumber":69,"Velocity":51,"Duration":755681,"SoundDuration":755681,"Delta":44607525},{"NoteNumber":81,"Velocity":61,"Duration":755681,"SoundDuration":755681,"Delta":44607525},{"NoteNumber":73,"Velocity":51,"Duration":755681,"SoundDuration":755681,"Delta":44607525},{"NoteNumber":64,"Velocity":47,"Duration":755681,"SoundDuration":755681,"Delta":44607525},{"NoteNumber":57,"Velocity":39,"Duration":755681,"SoundDuration":755681,"Delta":44607525},{"NoteNumber":73,"Velocity":51,"Duration":673700,"SoundDuration":673700,"Delta":45386745},{"NoteNumber":69,"Velocity":51,"Duration":673700,"SoundDuration":673700,"Delta":45386745},{"NoteNumber":81,"Velocity":61,"Duration":673700,"SoundDuration":673700,"Delta":45386745},{"NoteNumber":57,"Velocity":39,"Duration":673700,"SoundDuration":673700,"Delta":45386745},{"NoteNumber":64,"Velocity":47,"Duration":673700,"SoundDuration":673700,"Delta":45386745},{"NoteNumber":57,"Velocity":70,"Duration":48387,"SoundDuration":48387,"Delta":46068562},{"NoteNumber":45,"Velocity":60,"Duration":48387,"SoundDuration":48387,"Delta":46068562},{"NoteNumber":57,"Velocity":76,"Duration":96774,"SoundDuration":96774,"Delta":46165336},{"NoteNumber":45,"Velocity":64,"Duration":96774,"SoundDuration":96774,"Delta":46165336},{"NoteNumber":57,"Velocity":70,"Duration":46583,"SoundDuration":46583,"Delta":46452053},{"NoteNumber":45,"Velocity":59,"Duration":46583,"SoundDuration":46583,"Delta":46452053},{"NoteNumber":55,"Velocity":75,"Duration":91743,"SoundDuration":91743,"Delta":46545220},{"NoteNumber":43,"Velocity":64,"Duration":91743,"SoundDuration":91743,"Delta":46545220},{"NoteNumber":57,"Velocity":70,"Duration":51546,"SoundDuration":51546,"Delta":46831799},{"NoteNumber":45,"Velocity":60,"Duration":51546,"SoundDuration":51546,"Delta":46831799},{"NoteNumber":55,"Velocity":68,"Duration":760621,"SoundDuration":760621,"Delta":46934892},{"NoteNumber":61,"Velocity":80,"Duration":760621,"SoundDuration":760621,"Delta":46934892},{"NoteNumber":58,"Velocity":68,"Duration":784314,"SoundDuration":784314,"Delta":46934892},{"NoteNumber":52,"Velocity":68,"Duration":760621,"SoundDuration":760621,"Delta":46934892},{"NoteNumber":34,"Velocity":57,"Duration":760621,"SoundDuration":760621,"Delta":46934892},{"NoteNumber":46,"Velocity":68,"Duration":760621,"SoundDuration":760621,"Delta":46934892},{"NoteNumber":52,"Velocity":68,"Duration":657258,"SoundDuration":657258,"Delta":47719206},{"NoteNumber":55,"Velocity":68,"Duration":657258,"SoundDuration":657258,"Delta":47719206},{"NoteNumber":61,"Velocity":80,"Duration":657258,"SoundDuration":657258,"Delta":47719206},{"NoteNumber":58,"Velocity":68,"Duration":657258,"SoundDuration":657258,"Delta":47719206},{"NoteNumber":34,"Velocity":57,"Duration":657258,"SoundDuration":657258,"Delta":47719206},{"NoteNumber":46,"Velocity":68,"Duration":657258,"SoundDuration":657258,"Delta":47719206},{"NoteNumber":69,"Velocity":70,"Duration":48387,"SoundDuration":48387,"Delta":48396626},{"NoteNumber":57,"Velocity":60,"Duration":48387,"SoundDuration":48387,"Delta":48396626},{"NoteNumber":69,"Velocity":76,"Duration":93457,"SoundDuration":93457,"Delta":48493400},{"NoteNumber":57,"Velocity":64,"Duration":93457,"SoundDuration":93457,"Delta":48493400},{"NoteNumber":69,"Velocity":70,"Duration":46728,"SoundDuration":46728,"Delta":48773774},{"NoteNumber":57,"Velocity":59,"Duration":46728,"SoundDuration":46728,"Delta":48773774},{"NoteNumber":67,"Velocity":75,"Duration":91463,"SoundDuration":91463,"Delta":48867232},{"NoteNumber":55,"Velocity":64,"Duration":91463,"SoundDuration":91463,"Delta":48867232},{"NoteNumber":69,"Velocity":70,"Duration":51546,"SoundDuration":51546,"Delta":49153252},{"NoteNumber":57,"Velocity":60,"Duration":51546,"SoundDuration":51546,"Delta":49153252},{"NoteNumber":70,"Velocity":68,"Duration":784314,"SoundDuration":784314,"Delta":49256344},{"NoteNumber":62,"Velocity":68,"Duration":760621,"SoundDuration":760621,"Delta":49256344},{"NoteNumber":74,"Velocity":80,"Duration":760621,"SoundDuration":760621,"Delta":49256344},{"NoteNumber":65,"Velocity":68,"Duration":760621,"SoundDuration":760621,"Delta":49256344},{"NoteNumber":53,"Velocity":57,"Duration":784314,"SoundDuration":784314,"Delta":49256344},{"NoteNumber":46,"Velocity":57,"Duration":760621,"SoundDuration":760621,"Delta":49256344},{"NoteNumber":58,"Velocity":68,"Duration":760621,"SoundDuration":760621,"Delta":49256344},{"NoteNumber":70,"Velocity":68,"Duration":657258,"SoundDuration":657258,"Delta":50040658},{"NoteNumber":62,"Velocity":68,"Duration":657258,"SoundDuration":657258,"Delta":50040658},{"NoteNumber":74,"Velocity":80,"Duration":657258,"SoundDuration":657258,"Delta":50040658},{"NoteNumber":65,"Velocity":68,"Duration":657258,"SoundDuration":657258,"Delta":50040658},{"NoteNumber":53,"Velocity":57,"Duration":657258,"SoundDuration":657258,"Delta":50040658},{"NoteNumber":46,"Velocity":57,"Duration":657258,"SoundDuration":657258,"Delta":50040658},{"NoteNumber":58,"Velocity":68,"Duration":657258,"SoundDuration":657258,"Delta":50040658},{"NoteNumber":74,"Velocity":59,"Duration":48387,"SoundDuration":48387,"Delta":50718078},{"NoteNumber":77,"Velocity":70,"Duration":48387,"SoundDuration":48387,"Delta":50718078},{"NoteNumber":62,"Velocity":51,"Duration":48387,"SoundDuration":48387,"Delta":50718078},{"NoteNumber":65,"Velocity":60,"Duration":48387,"SoundDuration":48387,"Delta":50718078},{"NoteNumber":77,"Velocity":76,"Duration":94339,"SoundDuration":94339,"Delta":50814852},{"NoteNumber":74,"Velocity":64,"Duration":94339,"SoundDuration":94339,"Delta":50814852},{"NoteNumber":62,"Velocity":54,"Duration":94339,"SoundDuration":94339,"Delta":50814852},{"NoteNumber":65,"Velocity":64,"Duration":94339,"SoundDuration":94339,"Delta":50814852},{"NoteNumber":74,"Velocity":59,"Duration":47169,"SoundDuration":47169,"Delta":51097871},{"NoteNumber":77,"Velocity":70,"Duration":47169,"SoundDuration":47169,"Delta":51097871},{"NoteNumber":62,"Velocity":50,"Duration":47169,"SoundDuration":47169,"Delta":51097871},{"NoteNumber":65,"Velocity":59,"Duration":47169,"SoundDuration":47169,"Delta":51097871},{"NoteNumber":73,"Velocity":63,"Duration":92024,"SoundDuration":92024,"Delta":51192210},{"NoteNumber":76,"Velocity":75,"Duration":92024,"SoundDuration":92024,"Delta":51192210},{"NoteNumber":61,"Velocity":54,"Duration":92024,"SoundDuration":92024,"Delta":51192210},{"NoteNumber":64,"Velocity":64,"Duration":92024,"SoundDuration":92024,"Delta":51192210},{"NoteNumber":77,"Velocity":70,"Duration":49668,"SoundDuration":49668,"Delta":51475597},{"NoteNumber":74,"Velocity":59,"Duration":49668,"SoundDuration":49668,"Delta":51475597},{"NoteNumber":62,"Velocity":51,"Duration":49668,"SoundDuration":49668,"Delta":51475597},{"NoteNumber":65,"Velocity":60,"Duration":49668,"SoundDuration":49668,"Delta":51475597},{"NoteNumber":70,"Velocity":64,"Duration":94043,"SoundDuration":94043,"Delta":51574935},{"NoteNumber":74,"Velocity":76,"Duration":94043,"SoundDuration":94043,"Delta":51574935},{"NoteNumber":58,"Velocity":54,"Duration":94043,"SoundDuration":94043,"Delta":51574935},{"NoteNumber":62,"Velocity":64,"Duration":94043,"SoundDuration":94043,"Delta":51574935},{"NoteNumber":74,"Velocity":70,"Duration":47022,"SoundDuration":47022,"Delta":51857067},{"NoteNumber":70,"Velocity":59,"Duration":47022,"SoundDuration":47022,"Delta":51857067},{"NoteNumber":58,"Velocity":50,"Duration":47022,"SoundDuration":47022,"Delta":51857067},{"NoteNumber":62,"Velocity":59,"Duration":47022,"SoundDuration":47022,"Delta":51857067},{"NoteNumber":69,"Velocity":63,"Duration":92024,"SoundDuration":92024,"Delta":51951111},{"NoteNumber":73,"Velocity":75,"Duration":92024,"SoundDuration":92024,"Delta":51951111},{"NoteNumber":57,"Velocity":54,"Duration":92024,"SoundDuration":92024,"Delta":51951111},{"NoteNumber":61,"Velocity":64,"Duration":92024,"SoundDuration":92024,"Delta":51951111},{"NoteNumber":74,"Velocity":70,"Duration":49668,"SoundDuration":49668,"Delta":52234498},{"NoteNumber":70,"Velocity":59,"Duration":49668,"SoundDuration":49668,"Delta":52234498},{"NoteNumber":58,"Velocity":51,"Duration":49668,"SoundDuration":49668,"Delta":52234498},{"NoteNumber":62,"Velocity":60,"Duration":49668,"SoundDuration":49668,"Delta":52234498},{"NoteNumber":70,"Velocity":76,"Duration":94637,"SoundDuration":94637,"Delta":52333643},{"NoteNumber":67,"Velocity":64,"Duration":94637,"SoundDuration":94637,"Delta":52333643},{"NoteNumber":55,"Velocity":54,"Duration":94637,"SoundDuration":94637,"Delta":52333643},{"NoteNumber":58,"Velocity":64,"Duration":94637,"SoundDuration":94637,"Delta":52333643},{"NoteNumber":67,"Velocity":59,"Duration":47318,"SoundDuration":47318,"Delta":52617555},{"NoteNumber":70,"Velocity":70,"Duration":47318,"SoundDuration":47318,"Delta":52617555},{"NoteNumber":58,"Velocity":59,"Duration":47318,"SoundDuration":47318,"Delta":52617555},{"NoteNumber":55,"Velocity":50,"Duration":47318,"SoundDuration":47318,"Delta":52617555},{"NoteNumber":69,"Velocity":75,"Duration":92307,"SoundDuration":92307,"Delta":52712192},{"NoteNumber":66,"Velocity":63,"Duration":92307,"SoundDuration":92307,"Delta":52712192},{"NoteNumber":57,"Velocity":64,"Duration":92307,"SoundDuration":92307,"Delta":52712192},{"NoteNumber":54,"Velocity":54,"Duration":92307,"SoundDuration":92307,"Delta":52712192},{"NoteNumber":67,"Velocity":59,"Duration":50335,"SoundDuration":50335,"Delta":52998288},{"NoteNumber":70,"Velocity":70,"Duration":50335,"SoundDuration":50335,"Delta":52998288},{"NoteNumber":58,"Velocity":60,"Duration":50335,"SoundDuration":50335,"Delta":52998288},{"NoteNumber":55,"Velocity":51,"Duration":50335,"SoundDuration":50335,"Delta":52998288},{"NoteNumber":63,"Velocity":68,"Duration":784314,"SoundDuration":784314,"Delta":53098959},{"NoteNumber":67,"Velocity":80,"Duration":760621,"SoundDuration":760621,"Delta":53098959},{"NoteNumber":51,"Velocity":57,"Duration":784314,"SoundDuration":784314,"Delta":53098959},{"NoteNumber":55,"Velocity":68,"Duration":760621,"SoundDuration":760621,"Delta":53098959},{"NoteNumber":75,"Velocity":74,"Duration":794314,"SoundDuration":794314,"Delta":53883273},{"NoteNumber":67,"Velocity":74,"Duration":794314,"SoundDuration":794314,"Delta":53883273},{"NoteNumber":79,"Velocity":88,"Duration":794314,"SoundDuration":794314,"Delta":53883273},{"NoteNumber":71,"Velocity":74,"Duration":794314,"SoundDuration":794314,"Delta":53883273},{"NoteNumber":38,"Velocity":57,"Duration":794314,"SoundDuration":794314,"Delta":53883273},{"NoteNumber":50,"Velocity":68,"Duration":794314,"SoundDuration":794314,"Delta":53883273},{"NoteNumber":75,"Velocity":74,"Duration":796980,"SoundDuration":796980,"Delta":54685949},{"NoteNumber":67,"Velocity":74,"Duration":796980,"SoundDuration":796980,"Delta":54685949},{"NoteNumber":79,"Velocity":88,"Duration":796980,"SoundDuration":796980,"Delta":54685949},{"NoteNumber":72,"Velocity":74,"Duration":796980,"SoundDuration":796980,"Delta":54685949},{"NoteNumber":36,"Velocity":57,"Duration":796980,"SoundDuration":796980,"Delta":54685949},{"NoteNumber":48,"Velocity":68,"Duration":796980,"SoundDuration":796980,"Delta":54685949},{"NoteNumber":65,"Velocity":74,"Duration":103092,"SoundDuration":103092,"Delta":55491319},{"NoteNumber":77,"Velocity":88,"Duration":103092,"SoundDuration":103092,"Delta":55491319},{"NoteNumber":74,"Velocity":74,"Duration":103092,"SoundDuration":103092,"Delta":55491319},{"NoteNumber":41,"Velocity":57,"Duration":103092,"SoundDuration":103092,"Delta":55491319},{"NoteNumber":53,"Velocity":68,"Duration":103092,"SoundDuration":103092,"Delta":55491319},{"NoteNumber":69,"Velocity":74,"Duration":109090,"SoundDuration":109090,"Delta":55903690},{"NoteNumber":72,"Velocity":74,"Duration":109090,"SoundDuration":109090,"Delta":55903690},{"NoteNumber":81,"Velocity":88,"Duration":109090,"SoundDuration":109090,"Delta":55903690},{"NoteNumber":75,"Velocity":74,"Duration":109090,"SoundDuration":109090,"Delta":55903690},{"NoteNumber":41,"Velocity":57,"Duration":109090,"SoundDuration":109090,"Delta":55903690},{"NoteNumber":53,"Velocity":68,"Duration":109090,"SoundDuration":109090,"Delta":55903690},{"NoteNumber":74,"Velocity":85,"Duration":839222,"SoundDuration":839222,"Delta":56340054},{"NoteNumber":70,"Velocity":85,"Duration":839222,"SoundDuration":839222,"Delta":56340054},{"NoteNumber":82,"Velocity":101,"Duration":839222,"SoundDuration":839222,"Delta":56340054},{"NoteNumber":34,"Velocity":57,"Duration":839222,"SoundDuration":839222,"Delta":56340054},{"NoteNumber":46,"Velocity":68,"Duration":839222,"SoundDuration":839222,"Delta":56340054},{"NoteNumber":58,"Velocity":74,"Duration":786678,"SoundDuration":786678,"Delta":57188110},{"NoteNumber":62,"Velocity":74,"Duration":786678,"SoundDuration":786678,"Delta":57188110},{"NoteNumber":70,"Velocity":88,"Duration":786678,"SoundDuration":786678,"Delta":57188110},{"NoteNumber":46,"Velocity":57,"Duration":786678,"SoundDuration":786678,"Delta":57188110},{"NoteNumber":53,"Velocity":68,"Duration":786678,"SoundDuration":786678,"Delta":57188110},{"NoteNumber":74,"Velocity":47,"Duration":48387,"SoundDuration":48387,"Delta":57998920},{"NoteNumber":77,"Velocity":56,"Duration":48387,"SoundDuration":48387,"Delta":57998920},{"NoteNumber":74,"Velocity":51,"Duration":94339,"SoundDuration":94339,"Delta":58095694},{"NoteNumber":77,"Velocity":60,"Duration":94339,"SoundDuration":94339,"Delta":58095694},{"NoteNumber":74,"Velocity":47,"Duration":47169,"SoundDuration":47169,"Delta":58378713},{"NoteNumber":77,"Velocity":56,"Duration":47169,"SoundDuration":47169,"Delta":58378713},{"NoteNumber":73,"Velocity":50,"Duration":92024,"SoundDuration":92024,"Delta":58473052},{"NoteNumber":76,"Velocity":60,"Duration":92024,"SoundDuration":92024,"Delta":58473052},{"NoteNumber":74,"Velocity":47,"Duration":55350,"SoundDuration":55350,"Delta":58767802},{"NoteNumber":77,"Velocity":56,"Duration":55350,"SoundDuration":55350,"Delta":58767802},{"NoteNumber":70,"Velocity":51,"Duration":869156,"SoundDuration":869156,"Delta":58878503},{"NoteNumber":74,"Velocity":60,"Duration":869156,"SoundDuration":869156,"Delta":58878503},{"NoteNumber":46,"Velocity":55,"Duration":202019,"SoundDuration":202019,"Delta":58878503},{"NoteNumber":53,"Velocity":42,"Duration":232557,"SoundDuration":232557,"Delta":59282543},{"NoteNumber":70,"Velocity":51,"Duration":712411,"SoundDuration":712411,"Delta":59747659},{"NoteNumber":74,"Velocity":60,"Duration":712411,"SoundDuration":712411,"Delta":59747659},{"NoteNumber":62,"Velocity":42,"Duration":209789,"SoundDuration":209789,"Delta":59747659},{"NoteNumber":58,"Velocity":35,"Duration":209789,"SoundDuration":209789,"Delta":59747659},{"NoteNumber":46,"Velocity":55,"Duration":209789,"SoundDuration":209789,"Delta":60167239},{"NoteNumber":70,"Velocity":47,"Duration":48387,"SoundDuration":48387,"Delta":60481924},{"NoteNumber":74,"Velocity":56,"Duration":48387,"SoundDuration":48387,"Delta":60481924},{"NoteNumber":70,"Velocity":51,"Duration":94339,"SoundDuration":94339,"Delta":60578698},{"NoteNumber":74,"Velocity":60,"Duration":94339,"SoundDuration":94339,"Delta":60578698},{"NoteNumber":53,"Velocity":42,"Duration":188679,"SoundDuration":188679,"Delta":60578698},{"NoteNumber":70,"Velocity":47,"Duration":47169,"SoundDuration":47169,"Delta":60861717},{"NoteNumber":74,"Velocity":56,"Duration":47169,"SoundDuration":47169,"Delta":60861717},{"NoteNumber":69,"Velocity":50,"Duration":92024,"SoundDuration":92024,"Delta":60956056},{"NoteNumber":73,"Velocity":60,"Duration":92024,"SoundDuration":92024,"Delta":60956056},{"NoteNumber":58,"Velocity":35,"Duration":184049,"SoundDuration":184049,"Delta":60956056},{"NoteNumber":62,"Velocity":42,"Duration":184049,"SoundDuration":184049,"Delta":60956056},{"NoteNumber":70,"Velocity":47,"Duration":55350,"SoundDuration":55350,"Delta":61250806},{"NoteNumber":74,"Velocity":56,"Duration":55350,"SoundDuration":55350,"Delta":61250806},{"NoteNumber":74,"Velocity":51,"Duration":869156,"SoundDuration":869156,"Delta":61361507},{"NoteNumber":77,"Velocity":60,"Duration":869156,"SoundDuration":869156,"Delta":61361507},{"NoteNumber":45,"Velocity":55,"Duration":202019,"SoundDuration":202019,"Delta":61361507},{"NoteNumber":53,"Velocity":42,"Duration":232557,"SoundDuration":232557,"Delta":61765547},{"NoteNumber":72,"Velocity":51,"Duration":712411,"SoundDuration":712411,"Delta":62230663},{"NoteNumber":75,"Velocity":60,"Duration":712411,"SoundDuration":712411,"Delta":62230663},{"NoteNumber":63,"Velocity":42,"Duration":209789,"SoundDuration":209789,"Delta":62230663},{"NoteNumber":60,"Velocity":35,"Duration":209789,"SoundDuration":209789,"Delta":62230663},{"NoteNumber":45,"Velocity":55,"Duration":209789,"SoundDuration":209789,"Delta":62650243},{"NoteNumber":77,"Velocity":47,"Duration":48387,"SoundDuration":48387,"Delta":62964928},{"NoteNumber":72,"Velocity":47,"Duration":48387,"SoundDuration":48387,"Delta":62964928},{"NoteNumber":75,"Velocity":56,"Duration":48387,"SoundDuration":48387,"Delta":62964928},{"NoteNumber":77,"Velocity":51,"Duration":94339,"SoundDuration":94339,"Delta":63061703},{"NoteNumber":72,"Velocity":51,"Duration":94339,"SoundDuration":94339,"Delta":63061703},{"NoteNumber":75,"Velocity":60,"Duration":94339,"SoundDuration":94339,"Delta":63061703},{"NoteNumber":53,"Velocity":42,"Duration":188679,"SoundDuration":188679,"Delta":63061703},{"NoteNumber":77,"Velocity":47,"Duration":47169,"SoundDuration":47169,"Delta":63344721},{"NoteNumber":72,"Velocity":47,"Duration":47169,"SoundDuration":47169,"Delta":63344721},{"NoteNumber":75,"Velocity":56,"Duration":47169,"SoundDuration":47169,"Delta":63344721},{"NoteNumber":77,"Velocity":50,"Duration":92024,"SoundDuration":92024,"Delta":63439061},{"NoteNumber":71,"Velocity":50,"Duration":92024,"SoundDuration":92024,"Delta":63439061},{"NoteNumber":74,"Velocity":60,"Duration":92024,"SoundDuration":92024,"Delta":63439061},{"NoteNumber":60,"Velocity":35,"Duration":184049,"SoundDuration":184049,"Delta":63439061},{"NoteNumber":63,"Velocity":42,"Duration":184049,"SoundDuration":184049,"Delta":63439061},{"NoteNumber":77,"Velocity":56,"Duration":55350,"SoundDuration":55350,"Delta":63733811},{"NoteNumber":72,"Velocity":47,"Duration":55350,"SoundDuration":55350,"Delta":63733811},{"NoteNumber":75,"Velocity":56,"Duration":55350,"SoundDuration":55350,"Delta":63733811},{"NoteNumber":69,"Velocity":51,"Duration":835358,"SoundDuration":835358,"Delta":63844512},{"NoteNumber":72,"Velocity":51,"Duration":835358,"SoundDuration":835358,"Delta":63844512},{"NoteNumber":77,"Velocity":60,"Duration":835358,"SoundDuration":835358,"Delta":63844512},{"NoteNumber":41,"Velocity":55,"Duration":202020,"SoundDuration":202020,"Delta":63844512},{"NoteNumber":53,"Velocity":42,"Duration":219780,"SoundDuration":219780,"Delta":64248552},{"NoteNumber":69,"Velocity":51,"Duration":712411,"SoundDuration":712411,"Delta":64688112},{"NoteNumber":72,"Velocity":51,"Duration":712411,"SoundDuration":712411,"Delta":64688112},{"NoteNumber":77,"Velocity":60,"Duration":712411,"SoundDuration":712411,"Delta":64688112},{"NoteNumber":63,"Velocity":42,"Duration":209789,"SoundDuration":209789,"Delta":64688112},{"NoteNumber":60,"Velocity":35,"Duration":209789,"SoundDuration":209789,"Delta":64688112},{"NoteNumber":41,"Velocity":55,"Duration":209789,"SoundDuration":209789,"Delta":65107692},{"NoteNumber":77,"Velocity":47,"Duration":48387,"SoundDuration":48387,"Delta":65422377},{"NoteNumber":69,"Velocity":47,"Duration":48387,"SoundDuration":48387,"Delta":65422377},{"NoteNumber":72,"Velocity":56,"Duration":48387,"SoundDuration":48387,"Delta":65422377},{"NoteNumber":77,"Velocity":51,"Duration":94339,"SoundDuration":94339,"Delta":65519151},{"NoteNumber":69,"Velocity":51,"Duration":94339,"SoundDuration":94339,"Delta":65519151},{"NoteNumber":72,"Velocity":60,"Duration":94339,"SoundDuration":94339,"Delta":65519151},{"NoteNumber":53,"Velocity":42,"Duration":188678,"SoundDuration":188678,"Delta":65519151},{"NoteNumber":69,"Velocity":47,"Duration":47169,"SoundDuration":47169,"Delta":65802169},{"NoteNumber":72,"Velocity":56,"Duration":47169,"SoundDuration":47169,"Delta":65802169},{"NoteNumber":77,"Velocity":47,"Duration":47169,"SoundDuration":47169,"Delta":65802169},{"NoteNumber":68,"Velocity":50,"Duration":92024,"SoundDuration":92024,"Delta":65896509},{"NoteNumber":71,"Velocity":60,"Duration":92024,"SoundDuration":92024,"Delta":65896509},{"NoteNumber":77,"Velocity":50,"Duration":92024,"SoundDuration":92024,"Delta":65896509},{"NoteNumber":60,"Velocity":35,"Duration":184049,"SoundDuration":184049,"Delta":65896509},{"NoteNumber":63,"Velocity":42,"Duration":184049,"SoundDuration":184049,"Delta":65896509},{"NoteNumber":69,"Velocity":47,"Duration":63829,"SoundDuration":63829,"Delta":66208217},{"NoteNumber":72,"Velocity":56,"Duration":63829,"SoundDuration":63829,"Delta":66208217},{"NoteNumber":77,"Velocity":56,"Duration":63829,"SoundDuration":63829,"Delta":66208217},{"NoteNumber":73,"Velocity":45,"Duration":904864,"SoundDuration":904864,"Delta":66335877},{"NoteNumber":77,"Velocity":54,"Duration":905833,"SoundDuration":905833,"Delta":66335877},{"NoteNumber":69,"Velocity":45,"Duration":905833,"SoundDuration":905833,"Delta":66335877},{"NoteNumber":46,"Velocity":49,"Duration":224718,"SoundDuration":224718,"Delta":66335877},{"NoteNumber":53,"Velocity":37,"Duration":232557,"SoundDuration":232557,"Delta":66785315},{"NoteNumber":70,"Velocity":45,"Duration":712411,"SoundDuration":712411,"Delta":67250431},{"NoteNumber":77,"Velocity":54,"Duration":712411,"SoundDuration":712411,"Delta":67250431},{"NoteNumber":74,"Velocity":45,"Duration":712411,"SoundDuration":712411,"Delta":67250431},{"NoteNumber":62,"Velocity":37,"Duration":209789,"SoundDuration":209789,"Delta":67250431},{"NoteNumber":58,"Velocity":31,"Duration":209789,"SoundDuration":209789,"Delta":67250431},{"NoteNumber":46,"Velocity":55,"Duration":209789,"SoundDuration":209789,"Delta":67670011},{"NoteNumber":70,"Velocity":47,"Duration":48387,"SoundDuration":48387,"Delta":67984696},{"NoteNumber":77,"Velocity":56,"Duration":48387,"SoundDuration":48387,"Delta":67984696},{"NoteNumber":74,"Velocity":47,"Duration":48387,"SoundDuration":48387,"Delta":67984696},{"NoteNumber":70,"Velocity":51,"Duration":94339,"SoundDuration":94339,"Delta":68081470},{"NoteNumber":74,"Velocity":51,"Duration":94339,"SoundDuration":94339,"Delta":68081470},{"NoteNumber":77,"Velocity":60,"Duration":94339,"SoundDuration":94339,"Delta":68081470},{"NoteNumber":53,"Velocity":37,"Duration":188678,"SoundDuration":188678,"Delta":68081470},{"NoteNumber":70,"Velocity":48,"Duration":47169,"SoundDuration":47169,"Delta":68364489},{"NoteNumber":74,"Velocity":48,"Duration":47169,"SoundDuration":47169,"Delta":68364489},{"NoteNumber":77,"Velocity":57,"Duration":47169,"SoundDuration":47169,"Delta":68364489},{"NoteNumber":74,"Velocity":52,"Duration":92024,"SoundDuration":92024,"Delta":68458828},{"NoteNumber":76,"Velocity":63,"Duration":92024,"SoundDuration":92024,"Delta":68458828},{"NoteNumber":70,"Velocity":52,"Duration":92024,"SoundDuration":92024,"Delta":68458828},{"NoteNumber":62,"Velocity":38,"Duration":184049,"SoundDuration":184049,"Delta":68458828},{"NoteNumber":58,"Velocity":32,"Duration":184049,"SoundDuration":184049,"Delta":68458828},{"NoteNumber":74,"Velocity":50,"Duration":55350,"SoundDuration":55350,"Delta":68753578},{"NoteNumber":77,"Velocity":60,"Duration":55350,"SoundDuration":55350,"Delta":68753578},{"NoteNumber":70,"Velocity":50,"Duration":55350,"SoundDuration":55350,"Delta":68753578},{"NoteNumber":70,"Velocity":56,"Duration":860435,"SoundDuration":860435,"Delta":68864279},{"NoteNumber":79,"Velocity":66,"Duration":860435,"SoundDuration":860435,"Delta":68864279},{"NoteNumber":74,"Velocity":56,"Duration":860435,"SoundDuration":860435,"Delta":68864279},{"NoteNumber":43,"Velocity":60,"Duration":202020,"SoundDuration":202020,"Delta":68864279},{"NoteNumber":55,"Velocity":46,"Duration":232557,"SoundDuration":232557,"Delta":69268319},{"NoteNumber":74,"Velocity":56,"Duration":706395,"SoundDuration":706395,"Delta":69733435},{"NoteNumber":70,"Velocity":56,"Duration":706395,"SoundDuration":706395,"Delta":69733435},{"NoteNumber":79,"Velocity":66,"Duration":706395,"SoundDuration":706395,"Delta":69733435},{"NoteNumber":62,"Velocity":46,"Duration":209789,"SoundDuration":209789,"Delta":69733435},{"NoteNumber":58,"Velocity":38,"Duration":209789,"SoundDuration":209789,"Delta":69733435},{"NoteNumber":43,"Velocity":55,"Duration":205479,"SoundDuration":205479,"Delta":70153015},{"NoteNumber":74,"Velocity":51,"Duration":48387,"SoundDuration":48387,"Delta":70461234},{"NoteNumber":70,"Velocity":51,"Duration":48387,"SoundDuration":48387,"Delta":70461234},{"NoteNumber":79,"Velocity":61,"Duration":48387,"SoundDuration":48387,"Delta":70461234},{"NoteNumber":70,"Velocity":56,"Duration":94339,"SoundDuration":94339,"Delta":70558009},{"NoteNumber":79,"Velocity":66,"Duration":94339,"SoundDuration":94339,"Delta":70558009},{"NoteNumber":74,"Velocity":56,"Duration":94339,"SoundDuration":94339,"Delta":70558009},{"NoteNumber":55,"Velocity":46,"Duration":188678,"SoundDuration":188678,"Delta":70558009},{"NoteNumber":70,"Velocity":50,"Duration":47169,"SoundDuration":47169,"Delta":70841027},{"NoteNumber":82,"Velocity":60,"Duration":47169,"SoundDuration":47169,"Delta":70841027},{"NoteNumber":74,"Velocity":50,"Duration":47169,"SoundDuration":47169,"Delta":70841027},{"NoteNumber":70,"Velocity":54,"Duration":92024,"SoundDuration":92024,"Delta":70935367},{"NoteNumber":81,"Velocity":64,"Duration":92024,"SoundDuration":92024,"Delta":70935367},{"NoteNumber":74,"Velocity":54,"Duration":92024,"SoundDuration":92024,"Delta":70935367},{"NoteNumber":58,"Velocity":37,"Duration":184049,"SoundDuration":184049,"Delta":70935367},{"NoteNumber":62,"Velocity":45,"Duration":184049,"SoundDuration":184049,"Delta":70935367},{"NoteNumber":74,"Velocity":49,"Duration":55350,"SoundDuration":55350,"Delta":71230117},{"NoteNumber":79,"Velocity":59,"Duration":55350,"SoundDuration":55350,"Delta":71230117},{"NoteNumber":70,"Velocity":49,"Duration":55350,"SoundDuration":55350,"Delta":71230117},{"NoteNumber":70,"Velocity":51,"Duration":860435,"SoundDuration":860435,"Delta":71340818},{"NoteNumber":77,"Velocity":60,"Duration":860435,"SoundDuration":860435,"Delta":71340818},{"NoteNumber":74,"Velocity":51,"Duration":860435,"SoundDuration":860435,"Delta":71340818},{"NoteNumber":46,"Velocity":55,"Duration":202020,"SoundDuration":202020,"Delta":71340818},{"NoteNumber":53,"Velocity":42,"Duration":232557,"SoundDuration":232557,"Delta":71744858},{"NoteNumber":70,"Velocity":60,"Duration":712411,"SoundDuration":712411,"Delta":72209974},{"NoteNumber":74,"Velocity":51,"Duration":712411,"SoundDuration":712411,"Delta":72209974},{"NoteNumber":77,"Velocity":60,"Duration":712411,"SoundDuration":712411,"Delta":72209974},{"NoteNumber":62,"Velocity":42,"Duration":209789,"SoundDuration":209789,"Delta":72209974},{"NoteNumber":58,"Velocity":35,"Duration":209789,"SoundDuration":209789,"Delta":72209974},{"NoteNumber":46,"Velocity":55,"Duration":209789,"SoundDuration":209789,"Delta":72629554},{"NoteNumber":77,"Velocity":47,"Duration":48387,"SoundDuration":48387,"Delta":72944239},{"NoteNumber":70,"Velocity":47,"Duration":48387,"SoundDuration":48387,"Delta":72944239},{"NoteNumber":74,"Velocity":56,"Duration":48387,"SoundDuration":48387,"Delta":72944239},{"NoteNumber":77,"Velocity":51,"Duration":94339,"SoundDuration":94339,"Delta":73041013},{"NoteNumber":70,"Velocity":51,"Duration":94339,"SoundDuration":94339,"Delta":73041013},{"NoteNumber":74,"Velocity":60,"Duration":94339,"SoundDuration":94339,"Delta":73041013},{"NoteNumber":53,"Velocity":42,"Duration":188678,"SoundDuration":188678,"Delta":73041013},{"NoteNumber":70,"Velocity":47,"Duration":47169,"SoundDuration":47169,"Delta":73324031},{"NoteNumber":74,"Velocity":56,"Duration":47169,"SoundDuration":47169,"Delta":73324031},{"NoteNumber":77,"Velocity":47,"Duration":47169,"SoundDuration":47169,"Delta":73324031},{"NoteNumber":70,"Velocity":50,"Duration":92024,"SoundDuration":92024,"Delta":73418371},{"NoteNumber":75,"Velocity":60,"Duration":92024,"SoundDuration":92024,"Delta":73418371},{"NoteNumber":79,"Velocity":50,"Duration":92024,"SoundDuration":92024,"Delta":73418371},{"NoteNumber":62,"Velocity":42,"Duration":184049,"SoundDuration":184049,"Delta":73418371},{"NoteNumber":58,"Velocity":35,"Duration":184049,"SoundDuration":184049,"Delta":73418371},{"NoteNumber":74,"Velocity":56,"Duration":55350,"SoundDuration":55350,"Delta":73713121},{"NoteNumber":77,"Velocity":56,"Duration":55350,"SoundDuration":55350,"Delta":73713121},{"NoteNumber":70,"Velocity":47,"Duration":55350,"SoundDuration":55350,"Delta":73713121},{"NoteNumber":69,"Velocity":51,"Duration":869155,"SoundDuration":869155,"Delta":73823822},{"NoteNumber":77,"Velocity":60,"Duration":869155,"SoundDuration":869155,"Delta":73823822},{"NoteNumber":72,"Velocity":51,"Duration":869155,"SoundDuration":869155,"Delta":73823822},{"NoteNumber":41,"Velocity":55,"Duration":202020,"SoundDuration":202020,"Delta":73823822},{"NoteNumber":53,"Velocity":42,"Duration":232557,"SoundDuration":232557,"Delta":74227862},{"NoteNumber":69,"Velocity":48,"Duration":712411,"SoundDuration":712411,"Delta":74692978},{"NoteNumber":75,"Velocity":57,"Duration":712411,"SoundDuration":712411,"Delta":74692978},{"NoteNumber":72,"Velocity":48,"Duration":712411,"SoundDuration":712411,"Delta":74692978},{"NoteNumber":60,"Velocity":33,"Duration":209789,"SoundDuration":209789,"Delta":74692978},{"NoteNumber":63,"Velocity":39,"Duration":209789,"SoundDuration":209789,"Delta":74692978},{"NoteNumber":41,"Velocity":52,"Duration":209789,"SoundDuration":209789,"Delta":75112558},{"NoteNumber":65,"Velocity":44,"Duration":49668,"SoundDuration":49668,"Delta":75427243},{"NoteNumber":75,"Velocity":44,"Duration":49668,"SoundDuration":49668,"Delta":75427243},{"NoteNumber":72,"Velocity":53,"Duration":49668,"SoundDuration":49668,"Delta":75427243},{"NoteNumber":75,"Velocity":48,"Duration":96462,"SoundDuration":96462,"Delta":75526581},{"NoteNumber":65,"Velocity":48,"Duration":96462,"SoundDuration":96462,"Delta":75526581},{"NoteNumber":72,"Velocity":57,"Duration":96462,"SoundDuration":96462,"Delta":75526581},{"NoteNumber":53,"Velocity":39,"Duration":192925,"SoundDuration":192925,"Delta":75526581},{"NoteNumber":72,"Velocity":53,"Duration":48231,"SoundDuration":48231,"Delta":75815970},{"NoteNumber":65,"Velocity":44,"Duration":48231,"SoundDuration":48231,"Delta":75815970},{"NoteNumber":75,"Velocity":44,"Duration":48231,"SoundDuration":48231,"Delta":75815970},{"NoteNumber":74,"Velocity":47,"Duration":94339,"SoundDuration":94339,"Delta":75912433},{"NoteNumber":71,"Velocity":57,"Duration":94339,"SoundDuration":94339,"Delta":75912433},{"NoteNumber":65,"Velocity":47,"Duration":94339,"SoundDuration":94339,"Delta":75912433},{"NoteNumber":63,"Velocity":39,"Duration":188678,"SoundDuration":188678,"Delta":75912433},{"NoteNumber":60,"Velocity":33,"Duration":188678,"SoundDuration":188678,"Delta":75912433},{"NoteNumber":72,"Velocity":53,"Duration":63829,"SoundDuration":63829,"Delta":76228771},{"NoteNumber":69,"Velocity":53,"Duration":63829,"SoundDuration":63829,"Delta":76228771},{"NoteNumber":65,"Velocity":44,"Duration":63829,"SoundDuration":63829,"Delta":76228771},{"NoteNumber":65,"Velocity":40,"Duration":914553,"SoundDuration":914553,"Delta":76356431},{"NoteNumber":62,"Velocity":40,"Duration":914553,"SoundDuration":914553,"Delta":76356431},{"NoteNumber":70,"Velocity":48,"Duration":914553,"SoundDuration":914553,"Delta":76356431},{"NoteNumber":46,"Velocity":44,"Duration":224718,"SoundDuration":224718,"Delta":76356431},{"NoteNumber":50,"Velocity":33,"Duration":232557,"SoundDuration":232557,"Delta":76805869},{"NoteNumber":62,"Velocity":40,"Duration":712411,"SoundDuration":712411,"Delta":77270985},{"NoteNumber":65,"Velocity":40,"Duration":712411,"SoundDuration":712411,"Delta":77270985},{"NoteNumber":70,"Velocity":48,"Duration":712411,"SoundDuration":712411,"Delta":77270985},{"NoteNumber":58,"Velocity":33,"Duration":209789,"SoundDuration":209789,"Delta":77270985},{"NoteNumber":53,"Velocity":27,"Duration":209789,"SoundDuration":209789,"Delta":77270985},{"NoteNumber":41,"Velocity":49,"Duration":209789,"SoundDuration":209789,"Delta":77690565},{"NoteNumber":65,"Velocity":39,"Duration":50335,"SoundDuration":50335,"Delta":78005250},{"NoteNumber":72,"Velocity":47,"Duration":50335,"SoundDuration":50335,"Delta":78005250},{"NoteNumber":75,"Velocity":39,"Duration":50335,"SoundDuration":50335,"Delta":78005250},{"NoteNumber":65,"Velocity":43,"Duration":98039,"SoundDuration":98039,"Delta":78105921},{"NoteNumber":72,"Velocity":51,"Duration":98039,"SoundDuration":98039,"Delta":78105921},{"NoteNumber":75,"Velocity":43,"Duration":98039,"SoundDuration":98039,"Delta":78105921},{"NoteNumber":51,"Velocity":35,"Duration":196078,"SoundDuration":196078,"Delta":78105921},{"NoteNumber":72,"Velocity":47,"Duration":49019,"SoundDuration":49019,"Delta":78400039},{"NoteNumber":75,"Velocity":39,"Duration":49019,"SoundDuration":49019,"Delta":78400039},{"NoteNumber":65,"Velocity":39,"Duration":49019,"SoundDuration":49019,"Delta":78400039},{"NoteNumber":74,"Velocity":42,"Duration":96153,"SoundDuration":96153,"Delta":78498078},{"NoteNumber":70,"Velocity":51,"Duration":96153,"SoundDuration":96153,"Delta":78498078},{"NoteNumber":65,"Velocity":42,"Duration":96153,"SoundDuration":96153,"Delta":78498078},{"NoteNumber":57,"Velocity":35,"Duration":192307,"SoundDuration":192307,"Delta":78498078},{"NoteNumber":53,"Velocity":29,"Duration":192307,"SoundDuration":192307,"Delta":78498078},{"NoteNumber":72,"Velocity":47,"Duration":63829,"SoundDuration":63829,"Delta":78818045},{"NoteNumber":69,"Velocity":47,"Duration":63829,"SoundDuration":63829,"Delta":78818045},{"NoteNumber":65,"Velocity":39,"Duration":63829,"SoundDuration":63829,"Delta":78818045},{"NoteNumber":65,"Velocity":38,"Duration":914553,"SoundDuration":914553,"Delta":78945704},{"NoteNumber":70,"Velocity":45,"Duration":914553,"SoundDuration":914553,"Delta":78945704},{"NoteNumber":62,"Velocity":38,"Duration":914553,"SoundDuration":914553,"Delta":78945704},{"NoteNumber":46,"Velocity":41,"Duration":224718,"SoundDuration":224718,"Delta":78945704},{"NoteNumber":50,"Velocity":31,"Duration":232557,"SoundDuration":232557,"Delta":79395142},{"NoteNumber":70,"Velocity":45,"Duration":712411,"SoundDuration":712411,"Delta":79860258},{"NoteNumber":65,"Velocity":38,"Duration":712411,"SoundDuration":712411,"Delta":79860258},{"NoteNumber":62,"Velocity":38,"Duration":712411,"SoundDuration":712411,"Delta":79860258},{"NoteNumber":58,"Velocity":31,"Duration":209789,"SoundDuration":209789,"Delta":79860258},{"NoteNumber":53,"Velocity":25,"Duration":209789,"SoundDuration":209789,"Delta":79860258},{"NoteNumber":41,"Velocity":46,"Duration":209789,"SoundDuration":209789,"Delta":80279838},{"NoteNumber":75,"Velocity":35,"Duration":51903,"SoundDuration":51903,"Delta":80594523},{"NoteNumber":65,"Velocity":35,"Duration":51903,"SoundDuration":51903,"Delta":80594523},{"NoteNumber":72,"Velocity":42,"Duration":51903,"SoundDuration":51903,"Delta":80594523},{"NoteNumber":75,"Velocity":38,"Duration":100671,"SoundDuration":100671,"Delta":80698330},{"NoteNumber":65,"Velocity":38,"Duration":100671,"SoundDuration":100671,"Delta":80698330},{"NoteNumber":72,"Velocity":45,"Duration":100671,"SoundDuration":100671,"Delta":80698330},{"NoteNumber":51,"Velocity":31,"Duration":201342,"SoundDuration":201342,"Delta":80698330},{"NoteNumber":75,"Velocity":34,"Duration":50335,"SoundDuration":50335,"Delta":81000343},{"NoteNumber":65,"Velocity":34,"Duration":50335,"SoundDuration":50335,"Delta":81000343},{"NoteNumber":72,"Velocity":41,"Duration":50335,"SoundDuration":50335,"Delta":81000343},{"NoteNumber":74,"Velocity":36,"Duration":98360,"SoundDuration":98360,"Delta":81101015},{"NoteNumber":65,"Velocity":36,"Duration":98360,"SoundDuration":98360,"Delta":81101015},{"NoteNumber":70,"Velocity":44,"Duration":98360,"SoundDuration":98360,"Delta":81101015},{"NoteNumber":57,"Velocity":30,"Duration":196721,"SoundDuration":196721,"Delta":81101015},{"NoteNumber":53,"Velocity":25,"Duration":196721,"SoundDuration":196721,"Delta":81101015},{"NoteNumber":72,"Velocity":39,"Duration":63829,"SoundDuration":63829,"Delta":81425396},{"NoteNumber":65,"Velocity":33,"Duration":63829,"SoundDuration":63829,"Delta":81425396},{"NoteNumber":69,"Velocity":39,"Duration":63829,"SoundDuration":63829,"Delta":81425396},{"NoteNumber":62,"Velocity":31,"Duration":327715,"SoundDuration":327715,"Delta":81553055},{"NoteNumber":65,"Velocity":31,"Duration":327715,"SoundDuration":327715,"Delta":81553055},{"NoteNumber":70,"Velocity":37,"Duration":327715,"SoundDuration":327715,"Delta":81553055},{"NoteNumber":46,"Velocity":34,"Duration":327715,"SoundDuration":327715,"Delta":81553055},{"NoteNumber":46,"Velocity":70,"Duration":48387,"SoundDuration":48387,"Delta":81890134},{"NoteNumber":34,"Velocity":60,"Duration":48387,"SoundDuration":48387,"Delta":81890134},{"NoteNumber":46,"Velocity":76,"Duration":96774,"SoundDuration":96774,"Delta":81986908},{"NoteNumber":34,"Velocity":64,"Duration":96774,"SoundDuration":96774,"Delta":81986908},{"NoteNumber":46,"Velocity":70,"Duration":46583,"SoundDuration":46583,"Delta":82273624},{"NoteNumber":34,"Velocity":59,"Duration":46583,"SoundDuration":46583,"Delta":82273624},{"NoteNumber":46,"Velocity":75,"Duration":91742,"SoundDuration":91742,"Delta":82366792},{"NoteNumber":34,"Velocity":64,"Duration":91742,"SoundDuration":91742,"Delta":82366792},{"NoteNumber":48,"Velocity":70,"Duration":46728,"SoundDuration":46728,"Delta":82643736},{"NoteNumber":36,"Velocity":60,"Duration":46728,"SoundDuration":46728,"Delta":82643736},{"NoteNumber":50,"Velocity":75,"Duration":286885,"SoundDuration":286885,"Delta":82737194},{"NoteNumber":38,"Velocity":67,"Duration":286885,"SoundDuration":286885,"Delta":82737194},{"NoteNumber":50,"Velocity":59,"Duration":48387,"SoundDuration":48387,"Delta":83032276},{"NoteNumber":62,"Velocity":70,"Duration":48387,"SoundDuration":48387,"Delta":83032276},{"NoteNumber":38,"Velocity":60,"Duration":48387,"SoundDuration":48387,"Delta":83032276},{"NoteNumber":50,"Velocity":64,"Duration":96774,"SoundDuration":96774,"Delta":83129050},{"NoteNumber":62,"Velocity":76,"Duration":96774,"SoundDuration":96774,"Delta":83129050},{"NoteNumber":38,"Velocity":64,"Duration":96774,"SoundDuration":96774,"Delta":83129050},{"NoteNumber":50,"Velocity":59,"Duration":46583,"SoundDuration":46583,"Delta":83415767},{"NoteNumber":62,"Velocity":70,"Duration":46583,"SoundDuration":46583,"Delta":83415767},{"NoteNumber":38,"Velocity":59,"Duration":46583,"SoundDuration":46583,"Delta":83415767},{"NoteNumber":50,"Velocity":63,"Duration":91742,"SoundDuration":91742,"Delta":83508934},{"NoteNumber":62,"Velocity":75,"Duration":91742,"SoundDuration":91742,"Delta":83508934},{"NoteNumber":38,"Velocity":64,"Duration":91742,"SoundDuration":91742,"Delta":83508934},{"NoteNumber":52,"Velocity":59,"Duration":47169,"SoundDuration":47169,"Delta":83786760},{"NoteNumber":64,"Velocity":70,"Duration":47169,"SoundDuration":47169,"Delta":83786760},{"NoteNumber":40,"Velocity":60,"Duration":47169,"SoundDuration":47169,"Delta":83786760},{"NoteNumber":53,"Velocity":69,"Duration":295082,"SoundDuration":295082,"Delta":83881099},{"NoteNumber":65,"Velocity":82,"Duration":286885,"SoundDuration":286885,"Delta":83881099},{"NoteNumber":41,"Velocity":73,"Duration":286885,"SoundDuration":286885,"Delta":83881099},{"NoteNumber":53,"Velocity":77,"Duration":48387,"SoundDuration":48387,"Delta":84176182},{"NoteNumber":41,"Velocity":66,"Duration":48387,"SoundDuration":48387,"Delta":84176182},{"NoteNumber":53,"Velocity":83,"Duration":96774,"SoundDuration":96774,"Delta":84272956},{"NoteNumber":41,"Velocity":70,"Duration":96774,"SoundDuration":96774,"Delta":84272956},{"NoteNumber":53,"Velocity":77,"Duration":46583,"SoundDuration":46583,"Delta":84559672},{"NoteNumber":41,"Velocity":64,"Duration":46583,"SoundDuration":46583,"Delta":84559672},{"NoteNumber":53,"Velocity":82,"Duration":91742,"SoundDuration":91742,"Delta":84652840},{"NoteNumber":41,"Velocity":70,"Duration":91742,"SoundDuration":91742,"Delta":84652840},{"NoteNumber":55,"Velocity":77,"Duration":47169,"SoundDuration":47169,"Delta":84930665},{"NoteNumber":43,"Velocity":66,"Duration":47169,"SoundDuration":47169,"Delta":84930665},{"NoteNumber":57,"Velocity":90,"Duration":286885,"SoundDuration":286885,"Delta":85025005},{"NoteNumber":45,"Velocity":80,"Duration":286885,"SoundDuration":286885,"Delta":85025005},{"NoteNumber":57,"Velocity":60,"Duration":48387,"SoundDuration":48387,"Delta":85320087},{"NoteNumber":69,"Velocity":71,"Duration":48387,"SoundDuration":48387,"Delta":85320087},{"NoteNumber":33,"Velocity":52,"Duration":48387,"SoundDuration":48387,"Delta":85320087},{"NoteNumber":45,"Velocity":61,"Duration":48387,"SoundDuration":48387,"Delta":85320087},{"NoteNumber":57,"Velocity":65,"Duration":96774,"SoundDuration":96774,"Delta":85416861},{"NoteNumber":69,"Velocity":78,"Duration":96774,"SoundDuration":96774,"Delta":85416861},{"NoteNumber":33,"Velocity":55,"Duration":96774,"SoundDuration":96774,"Delta":85416861},{"NoteNumber":45,"Velocity":65,"Duration":96774,"SoundDuration":96774,"Delta":85416861},{"NoteNumber":59,"Velocity":61,"Duration":46583,"SoundDuration":46583,"Delta":85703578},{"NoteNumber":71,"Velocity":73,"Duration":46583,"SoundDuration":46583,"Delta":85703578},{"NoteNumber":35,"Velocity":52,"Duration":46583,"SoundDuration":46583,"Delta":85703578},{"NoteNumber":47,"Velocity":61,"Duration":46583,"SoundDuration":46583,"Delta":85703578},{"NoteNumber":61,"Velocity":66,"Duration":91742,"SoundDuration":91742,"Delta":85796745},{"NoteNumber":73,"Velocity":79,"Duration":91742,"SoundDuration":91742,"Delta":85796745},{"NoteNumber":37,"Velocity":57,"Duration":91742,"SoundDuration":91742,"Delta":85796745},{"NoteNumber":49,"Velocity":67,"Duration":91742,"SoundDuration":91742,"Delta":85796745},{"NoteNumber":62,"Velocity":64,"Duration":47169,"SoundDuration":47169,"Delta":86074571},{"NoteNumber":74,"Velocity":76,"Duration":47169,"SoundDuration":47169,"Delta":86074571},{"NoteNumber":38,"Velocity":55,"Duration":47169,"SoundDuration":47169,"Delta":86074571},{"NoteNumber":50,"Velocity":65,"Duration":47169,"SoundDuration":47169,"Delta":86074571},{"NoteNumber":73,"Velocity":70,"Duration":779219,"SoundDuration":779219,"Delta":86168910},{"NoteNumber":64,"Velocity":70,"Duration":755681,"SoundDuration":755681,"Delta":86168910},{"NoteNumber":69,"Velocity":70,"Duration":755681,"SoundDuration":755681,"Delta":86168910},{"NoteNumber":76,"Velocity":83,"Duration":755681,"SoundDuration":755681,"Delta":86168910},{"NoteNumber":45,"Velocity":58,"Duration":779219,"SoundDuration":779219,"Delta":86168910},{"NoteNumber":40,"Velocity":58,"Duration":755681,"SoundDuration":755681,"Delta":86168910},{"NoteNumber":49,"Velocity":58,"Duration":755681,"SoundDuration":755681,"Delta":86168910},{"NoteNumber":52,"Velocity":70,"Duration":755681,"SoundDuration":755681,"Delta":86168910},{"NoteNumber":76,"Velocity":83,"Duration":657258,"SoundDuration":657258,"Delta":86948130},{"NoteNumber":73,"Velocity":70,"Duration":657258,"SoundDuration":657258,"Delta":86948130},{"NoteNumber":64,"Velocity":70,"Duration":657258,"SoundDuration":657258,"Delta":86948130},{"NoteNumber":69,"Velocity":70,"Duration":657258,"SoundDuration":657258,"Delta":86948130},{"NoteNumber":45,"Velocity":58,"Duration":657258,"SoundDuration":657258,"Delta":86948130},{"NoteNumber":40,"Velocity":58,"Duration":657258,"SoundDuration":657258,"Delta":86948130},{"NoteNumber":49,"Velocity":58,"Duration":657258,"SoundDuration":657258,"Delta":86948130},{"NoteNumber":52,"Velocity":70,"Duration":657258,"SoundDuration":657258,"Delta":86948130},{"NoteNumber":74,"Velocity":58,"Duration":91935,"SoundDuration":91935,"Delta":87625550},{"NoteNumber":68,"Velocity":58,"Duration":91935,"SoundDuration":91935,"Delta":87625550},{"NoteNumber":76,"Velocity":73,"Duration":91935,"SoundDuration":91935,"Delta":87625550},{"NoteNumber":40,"Velocity":56,"Duration":96774,"SoundDuration":96774,"Delta":87625550},{"NoteNumber":52,"Velocity":66,"Duration":96774,"SoundDuration":96774,"Delta":87625550},{"NoteNumber":76,"Velocity":82,"Duration":265127,"SoundDuration":265127,"Delta":87722324},{"NoteNumber":68,"Velocity":66,"Duration":272293,"SoundDuration":272293,"Delta":87722324},{"NoteNumber":74,"Velocity":66,"Duration":272293,"SoundDuration":272293,"Delta":87722324},{"NoteNumber":40,"Velocity":58,"Duration":264331,"SoundDuration":264331,"Delta":87722324},{"NoteNumber":52,"Velocity":69,"Duration":264331,"SoundDuration":264331,"Delta":87722324},{"NoteNumber":76,"Velocity":80,"Duration":90764,"SoundDuration":90764,"Delta":88008949},{"NoteNumber":68,"Velocity":63,"Duration":90764,"SoundDuration":90764,"Delta":88008949},{"NoteNumber":74,"Velocity":63,"Duration":90764,"SoundDuration":90764,"Delta":88008949},{"NoteNumber":38,"Velocity":55,"Duration":95541,"SoundDuration":95541,"Delta":88008949},{"NoteNumber":50,"Velocity":65,"Duration":95541,"SoundDuration":95541,"Delta":88008949},{"NoteNumber":78,"Velocity":85,"Duration":283726,"SoundDuration":283726,"Delta":88104490},{"NoteNumber":68,"Velocity":67,"Duration":283726,"SoundDuration":283726,"Delta":88104490},{"NoteNumber":74,"Velocity":67,"Duration":283726,"SoundDuration":283726,"Delta":88104490},{"NoteNumber":37,"Velocity":60,"Duration":274292,"SoundDuration":274292,"Delta":88104490},{"NoteNumber":49,"Velocity":72,"Duration":274292,"SoundDuration":274292,"Delta":88104490},{"NoteNumber":68,"Velocity":65,"Duration":113207,"SoundDuration":113207,"Delta":88405198},{"NoteNumber":74,"Velocity":65,"Duration":113207,"SoundDuration":113207,"Delta":88405198},{"NoteNumber":80,"Velocity":83,"Duration":113207,"SoundDuration":113207,"Delta":88405198},{"NoteNumber":35,"Velocity":62,"Duration":113207,"SoundDuration":113207,"Delta":88405198},{"NoteNumber":47,"Velocity":74,"Duration":113207,"SoundDuration":113207,"Delta":88405198},{"NoteNumber":69,"Velocity":78,"Duration":753237,"SoundDuration":753237,"Delta":88518405},{"NoteNumber":73,"Velocity":78,"Duration":753237,"SoundDuration":753237,"Delta":88518405},{"NoteNumber":81,"Velocity":93,"Duration":753237,"SoundDuration":753237,"Delta":88518405},{"NoteNumber":33,"Velocity":65,"Duration":753237,"SoundDuration":753237,"Delta":88518405},{"NoteNumber":45,"Velocity":74,"Duration":753237,"SoundDuration":753237,"Delta":88518405},{"NoteNumber":73,"Velocity":78,"Duration":663431,"SoundDuration":663431,"Delta":89295105},{"NoteNumber":69,"Velocity":78,"Duration":663431,"SoundDuration":663431,"Delta":89295105},{"NoteNumber":81,"Velocity":93,"Duration":663431,"SoundDuration":663431,"Delta":89295105},{"NoteNumber":40,"Velocity":65,"Duration":663431,"SoundDuration":663431,"Delta":89295105},{"NoteNumber":33,"Velocity":65,"Duration":663431,"SoundDuration":663431,"Delta":89295105},{"NoteNumber":45,"Velocity":74,"Duration":663431,"SoundDuration":663431,"Delta":89295105},{"NoteNumber":57,"Velocity":47,"Duration":48387,"SoundDuration":48387,"Delta":89974718},{"NoteNumber":55,"Velocity":47,"Duration":48387,"SoundDuration":48387,"Delta":89974718},{"NoteNumber":61,"Velocity":56,"Duration":48387,"SoundDuration":48387,"Delta":89974718},{"NoteNumber":45,"Velocity":48,"Duration":48387,"SoundDuration":48387,"Delta":89974718},{"NoteNumber":62,"Velocity":60,"Duration":95237,"SoundDuration":95237,"Delta":90071492},{"NoteNumber":55,"Velocity":51,"Duration":95237,"SoundDuration":95237,"Delta":90071492},{"NoteNumber":57,"Velocity":51,"Duration":95237,"SoundDuration":95237,"Delta":90071492},{"NoteNumber":47,"Velocity":51,"Duration":95237,"SoundDuration":95237,"Delta":90071492},{"NoteNumber":55,"Velocity":47,"Duration":47618,"SoundDuration":47618,"Delta":90357206},{"NoteNumber":57,"Velocity":47,"Duration":47618,"SoundDuration":47618,"Delta":90357206},{"NoteNumber":61,"Velocity":56,"Duration":47618,"SoundDuration":47618,"Delta":90357206},{"NoteNumber":45,"Velocity":47,"Duration":47618,"SoundDuration":47618,"Delta":90357206},{"NoteNumber":55,"Velocity":50,"Duration":93167,"SoundDuration":93167,"Delta":90452444},{"NoteNumber":57,"Velocity":50,"Duration":93167,"SoundDuration":93167,"Delta":90452444},{"NoteNumber":62,"Velocity":60,"Duration":93167,"SoundDuration":93167,"Delta":90452444},{"NoteNumber":47,"Velocity":51,"Duration":93167,"SoundDuration":93167,"Delta":90452444},{"NoteNumber":57,"Velocity":47,"Duration":51546,"SoundDuration":51546,"Delta":90741872},{"NoteNumber":55,"Velocity":47,"Duration":51546,"SoundDuration":51546,"Delta":90741872},{"NoteNumber":64,"Velocity":56,"Duration":51546,"SoundDuration":51546,"Delta":90741872},{"NoteNumber":49,"Velocity":48,"Duration":51546,"SoundDuration":51546,"Delta":90741872},{"NoteNumber":57,"Velocity":64,"Duration":760621,"SoundDuration":760621,"Delta":90844965},{"NoteNumber":54,"Velocity":54,"Duration":760621,"SoundDuration":760621,"Delta":90844965},{"NoteNumber":50,"Velocity":54,"Duration":760621,"SoundDuration":760621,"Delta":90844965},{"NoteNumber":57,"Velocity":54,"Duration":657258,"SoundDuration":657258,"Delta":91629279},{"NoteNumber":66,"Velocity":64,"Duration":657258,"SoundDuration":657258,"Delta":91629279},{"NoteNumber":50,"Velocity":45,"Duration":657258,"SoundDuration":657258,"Delta":91629279},{"NoteNumber":54,"Velocity":54,"Duration":657258,"SoundDuration":657258,"Delta":91629279},{"NoteNumber":66,"Velocity":53,"Duration":96774,"SoundDuration":96774,"Delta":92306699},{"NoteNumber":57,"Velocity":53,"Duration":96774,"SoundDuration":96774,"Delta":92306699},{"NoteNumber":50,"Velocity":44,"Duration":88709,"SoundDuration":88709,"Delta":92306699},{"NoteNumber":55,"Velocity":60,"Duration":96153,"SoundDuration":96153,"Delta":92403473},{"NoteNumber":67,"Velocity":60,"Duration":96153,"SoundDuration":96153,"Delta":92403473},{"NoteNumber":50,"Velocity":50,"Duration":96153,"SoundDuration":96153,"Delta":92403473},{"NoteNumber":47,"Velocity":42,"Duration":96153,"SoundDuration":96153,"Delta":92403473},{"NoteNumber":55,"Velocity":56,"Duration":96153,"SoundDuration":96153,"Delta":92691934},{"NoteNumber":66,"Velocity":56,"Duration":96153,"SoundDuration":96153,"Delta":92691934},{"NoteNumber":50,"Velocity":47,"Duration":96153,"SoundDuration":96153,"Delta":92691934},{"NoteNumber":47,"Velocity":40,"Duration":96153,"SoundDuration":96153,"Delta":92691934},{"NoteNumber":46,"Velocity":41,"Duration":94149,"SoundDuration":94149,"Delta":92783280},{"NoteNumber":64,"Velocity":59,"Duration":94043,"SoundDuration":94043,"Delta":92788088},{"NoteNumber":56,"Velocity":59,"Duration":94043,"SoundDuration":94043,"Delta":92788088},{"NoteNumber":50,"Velocity":49,"Duration":94043,"SoundDuration":94043,"Delta":92792790},{"NoteNumber":56,"Velocity":56,"Duration":109090,"SoundDuration":109090,"Delta":93085267},{"NoteNumber":62,"Velocity":56,"Duration":109090,"SoundDuration":109090,"Delta":93085267},{"NoteNumber":46,"Velocity":40,"Duration":109090,"SoundDuration":109090,"Delta":93085267},{"NoteNumber":50,"Velocity":47,"Duration":109090,"SoundDuration":109090,"Delta":93085267},{"NoteNumber":61,"Velocity":54,"Duration":755681,"SoundDuration":755681,"Delta":93194358},{"NoteNumber":57,"Velocity":54,"Duration":755681,"SoundDuration":755681,"Delta":93194358},{"NoteNumber":69,"Velocity":64,"Duration":755681,"SoundDuration":755681,"Delta":93194358},{"NoteNumber":45,"Velocity":45,"Duration":755681,"SoundDuration":755681,"Delta":93194358},{"NoteNumber":52,"Velocity":54,"Duration":755681,"SoundDuration":755681,"Delta":93194358},{"NoteNumber":61,"Velocity":54,"Duration":657258,"SoundDuration":657258,"Delta":93973578},{"NoteNumber":64,"Velocity":64,"Duration":657258,"SoundDuration":657258,"Delta":93973578},{"NoteNumber":45,"Velocity":45,"Duration":657258,"SoundDuration":657258,"Delta":93973578},{"NoteNumber":57,"Velocity":54,"Duration":657258,"SoundDuration":657258,"Delta":93973578},{"NoteNumber":69,"Velocity":53,"Duration":48387,"SoundDuration":48387,"Delta":94650998},{"NoteNumber":64,"Velocity":53,"Duration":96774,"SoundDuration":96774,"Delta":94650998},{"NoteNumber":49,"Velocity":35,"Duration":88709,"SoundDuration":88709,"Delta":94650998},{"NoteNumber":57,"Velocity":44,"Duration":88709,"SoundDuration":88709,"Delta":94650998},{"NoteNumber":73,"Velocity":53,"Duration":48387,"SoundDuration":48387,"Delta":94699385},{"NoteNumber":64,"Velocity":60,"Duration":95541,"SoundDuration":95541,"Delta":94747772},{"NoteNumber":71,"Velocity":60,"Duration":95541,"SoundDuration":95541,"Delta":94747772},{"NoteNumber":57,"Velocity":50,"Duration":95541,"SoundDuration":95541,"Delta":94747772},{"NoteNumber":49,"Velocity":42,"Duration":95541,"SoundDuration":95541,"Delta":94747772},{"NoteNumber":64,"Velocity":56,"Duration":95541,"SoundDuration":95541,"Delta":95034397},{"NoteNumber":69,"Velocity":56,"Duration":95541,"SoundDuration":95541,"Delta":95034397},{"NoteNumber":57,"Velocity":47,"Duration":95541,"SoundDuration":95541,"Delta":95034397},{"NoteNumber":49,"Velocity":40,"Duration":95541,"SoundDuration":95541,"Delta":95034397},{"NoteNumber":64,"Velocity":59,"Duration":94339,"SoundDuration":94339,"Delta":95129938},{"NoteNumber":71,"Velocity":59,"Duration":94339,"SoundDuration":94339,"Delta":95129938},{"NoteNumber":49,"Velocity":41,"Duration":94339,"SoundDuration":94339,"Delta":95129938},{"NoteNumber":57,"Velocity":49,"Duration":94339,"SoundDuration":94339,"Delta":95129938},{"NoteNumber":64,"Velocity":56,"Duration":112359,"SoundDuration":112359,"Delta":95430977},{"NoteNumber":73,"Velocity":56,"Duration":112359,"SoundDuration":112359,"Delta":95430977},{"NoteNumber":49,"Velocity":40,"Duration":112359,"SoundDuration":112359,"Delta":95430977},{"NoteNumber":57,"Velocity":47,"Duration":112359,"SoundDuration":112359,"Delta":95430977},{"NoteNumber":62,"Velocity":54,"Duration":755681,"SoundDuration":755681,"Delta":95543336},{"NoteNumber":66,"Velocity":54,"Duration":755681,"SoundDuration":755681,"Delta":95543336},{"NoteNumber":74,"Velocity":64,"Duration":755681,"SoundDuration":755681,"Delta":95543336},{"NoteNumber":54,"Velocity":45,"Duration":779219,"SoundDuration":779219,"Delta":95543336},{"NoteNumber":47,"Velocity":45,"Duration":755681,"SoundDuration":755681,"Delta":95543336},{"NoteNumber":59,"Velocity":54,"Duration":755681,"SoundDuration":755681,"Delta":95543336},{"NoteNumber":66,"Velocity":64,"Duration":657258,"SoundDuration":657258,"Delta":96322556},{"NoteNumber":62,"Velocity":54,"Duration":657258,"SoundDuration":657258,"Delta":96322556},{"NoteNumber":50,"Velocity":45,"Duration":657258,"SoundDuration":657258,"Delta":96322556},{"NoteNumber":59,"Velocity":54,"Duration":657258,"SoundDuration":657258,"Delta":96322556},{"NoteNumber":62,"Velocity":53,"Duration":96774,"SoundDuration":96774,"Delta":96999976},{"NoteNumber":66,"Velocity":53,"Duration":48387,"SoundDuration":48387,"Delta":96999976},{"NoteNumber":52,"Velocity":35,"Duration":88709,"SoundDuration":88709,"Delta":96999976},{"NoteNumber":59,"Velocity":44,"Duration":88709,"SoundDuration":88709,"Delta":96999976},{"NoteNumber":69,"Velocity":53,"Duration":48387,"SoundDuration":48387,"Delta":97048363},{"NoteNumber":62,"Velocity":60,"Duration":96153,"SoundDuration":96153,"Delta":97096750},{"NoteNumber":68,"Velocity":60,"Duration":96153,"SoundDuration":96153,"Delta":97096750},{"NoteNumber":59,"Velocity":50,"Duration":96153,"SoundDuration":96153,"Delta":97096750},{"NoteNumber":52,"Velocity":42,"Duration":96153,"SoundDuration":96153,"Delta":97096750},{"NoteNumber":62,"Velocity":56,"Duration":96153,"SoundDuration":96153,"Delta":97385211},{"NoteNumber":66,"Velocity":56,"Duration":96153,"SoundDuration":96153,"Delta":97385211},{"NoteNumber":59,"Velocity":47,"Duration":96153,"SoundDuration":96153,"Delta":97385211},{"NoteNumber":52,"Velocity":40,"Duration":96153,"SoundDuration":96153,"Delta":97385211},{"NoteNumber":62,"Velocity":59,"Duration":94043,"SoundDuration":94043,"Delta":97481365},{"NoteNumber":68,"Velocity":59,"Duration":94043,"SoundDuration":94043,"Delta":97481365},{"NoteNumber":52,"Velocity":41,"Duration":94043,"SoundDuration":94043,"Delta":97481365},{"NoteNumber":59,"Velocity":49,"Duration":94043,"SoundDuration":94043,"Delta":97481365},{"NoteNumber":62,"Velocity":56,"Duration":112359,"SoundDuration":112359,"Delta":97781813},{"NoteNumber":64,"Velocity":56,"Duration":112359,"SoundDuration":112359,"Delta":97781813},{"NoteNumber":52,"Velocity":40,"Duration":112359,"SoundDuration":112359,"Delta":97781813},{"NoteNumber":59,"Velocity":47,"Duration":112359,"SoundDuration":112359,"Delta":97781813},{"NoteNumber":61,"Velocity":54,"Duration":778428,"SoundDuration":778428,"Delta":97894172},{"NoteNumber":71,"Velocity":64,"Duration":778428,"SoundDuration":778428,"Delta":97894172},{"NoteNumber":52,"Velocity":45,"Duration":802676,"SoundDuration":802676,"Delta":97894172},{"NoteNumber":45,"Velocity":45,"Duration":778428,"SoundDuration":778428,"Delta":97894172},{"NoteNumber":57,"Velocity":54,"Duration":778428,"SoundDuration":778428,"Delta":97894172},{"NoteNumber":69,"Velocity":64,"Duration":766129,"SoundDuration":766129,"Delta":98696848},{"NoteNumber":61,"Velocity":54,"Duration":766129,"SoundDuration":766129,"Delta":98696848},{"NoteNumber":45,"Velocity":45,"Duration":766129,"SoundDuration":766129,"Delta":98696848},{"NoteNumber":52,"Velocity":45,"Duration":766129,"SoundDuration":766129,"Delta":98696848},{"NoteNumber":57,"Velocity":54,"Duration":766129,"SoundDuration":766129,"Delta":98696848},{"NoteNumber":62,"Velocity":56,"Duration":369840,"SoundDuration":369840,"Delta":99471042},{"NoteNumber":66,"Velocity":56,"Duration":369840,"SoundDuration":369840,"Delta":99471042},{"NoteNumber":69,"Velocity":67,"Duration":369840,"SoundDuration":369840,"Delta":99471042},{"NoteNumber":50,"Velocity":45,"Duration":369840,"SoundDuration":369840,"Delta":99471042},{"NoteNumber":62,"Velocity":53,"Duration":374597,"SoundDuration":374597,"Delta":99851994},{"NoteNumber":66,"Velocity":53,"Duration":374597,"SoundDuration":374597,"Delta":99851994},{"NoteNumber":70,"Velocity":63,"Duration":374597,"SoundDuration":374597,"Delta":99851994},{"NoteNumber":49,"Velocity":37,"Duration":374597,"SoundDuration":374597,"Delta":99851994},{"NoteNumber":62,"Velocity":51,"Duration":724108,"SoundDuration":724108,"Delta":100237846},{"NoteNumber":67,"Velocity":51,"Duration":724108,"SoundDuration":724108,"Delta":100237846},{"NoteNumber":71,"Velocity":60,"Duration":724108,"SoundDuration":724108,"Delta":100237846},{"NoteNumber":47,"Velocity":67,"Duration":117647,"SoundDuration":117647,"Delta":100237846},{"NoteNumber":46,"Velocity":57,"Duration":117646,"SoundDuration":117646,"Delta":100355493},{"NoteNumber":47,"Velocity":57,"Duration":117647,"SoundDuration":117647,"Delta":100473140},{"NoteNumber":43,"Velocity":68,"Duration":118694,"SoundDuration":118694,"Delta":100590787},{"NoteNumber":42,"Velocity":61,"Duration":118694,"SoundDuration":118694,"Delta":100709481},{"NoteNumber":43,"Velocity":65,"Duration":133779,"SoundDuration":133779,"Delta":100828176},{"NoteNumber":67,"Velocity":56,"Duration":354103,"SoundDuration":354103,"Delta":100961955},{"NoteNumber":71,"Velocity":56,"Duration":354103,"SoundDuration":354103,"Delta":100961955},{"NoteNumber":76,"Velocity":67,"Duration":354103,"SoundDuration":354103,"Delta":100961955},{"NoteNumber":40,"Velocity":74,"Duration":638298,"SoundDuration":638298,"Delta":100961955},{"NoteNumber":71,"Velocity":62,"Duration":182370,"SoundDuration":182370,"Delta":101326697},{"NoteNumber":76,"Velocity":62,"Duration":182370,"SoundDuration":182370,"Delta":101326697},{"NoteNumber":79,"Velocity":74,"Duration":182370,"SoundDuration":182370,"Delta":101326697},{"NoteNumber":42,"Velocity":61,"Duration":91185,"SoundDuration":91185,"Delta":101600254},{"NoteNumber":67,"Velocity":53,"Duration":182371,"SoundDuration":182371,"Delta":101691439},{"NoteNumber":71,"Velocity":53,"Duration":182371,"SoundDuration":182371,"Delta":101691439},{"NoteNumber":76,"Velocity":63,"Duration":189969,"SoundDuration":189969,"Delta":101691439},{"NoteNumber":43,"Velocity":69,"Duration":273556,"SoundDuration":273556,"Delta":101691439},{"NoteNumber":45,"Velocity":62,"Duration":91185,"SoundDuration":91185,"Delta":101964996},{"NoteNumber":61,"Velocity":49,"Duration":180723,"SoundDuration":180723,"Delta":102056181},{"NoteNumber":64,"Velocity":49,"Duration":180723,"SoundDuration":180723,"Delta":102056181},{"NoteNumber":67,"Velocity":58,"Duration":180723,"SoundDuration":180723,"Delta":102056181},{"NoteNumber":47,"Velocity":70,"Duration":274297,"SoundDuration":274297,"Delta":102056181},{"NoteNumber":49,"Velocity":62,"Duration":99999,"SoundDuration":99999,"Delta":102330478},{"NoteNumber":61,"Velocity":55,"Duration":725206,"SoundDuration":725206,"Delta":102430478},{"NoteNumber":66,"Velocity":55,"Duration":725206,"SoundDuration":725206,"Delta":102430478},{"NoteNumber":69,"Velocity":65,"Duration":725206,"SoundDuration":725206,"Delta":102430478},{"NoteNumber":45,"Velocity":69,"Duration":117301,"SoundDuration":117301,"Delta":102430478},{"NoteNumber":44,"Velocity":63,"Duration":117302,"SoundDuration":117302,"Delta":102547780},{"NoteNumber":45,"Velocity":59,"Duration":117301,"SoundDuration":117301,"Delta":102665082},{"NoteNumber":42,"Velocity":68,"Duration":119760,"SoundDuration":119760,"Delta":102782384},{"NoteNumber":41,"Velocity":65,"Duration":119760,"SoundDuration":119760,"Delta":102902145},{"NoteNumber":42,"Velocity":69,"Duration":133779,"SoundDuration":133779,"Delta":103021905},{"NoteNumber":66,"Velocity":59,"Duration":354103,"SoundDuration":354103,"Delta":103155684},{"NoteNumber":69,"Velocity":59,"Duration":354103,"SoundDuration":354103,"Delta":103155684},{"NoteNumber":74,"Velocity":70,"Duration":354103,"SoundDuration":354103,"Delta":103155684},{"NoteNumber":38,"Velocity":74,"Duration":638298,"SoundDuration":638298,"Delta":103155684},{"NoteNumber":69,"Velocity":59,"Duration":182370,"SoundDuration":182370,"Delta":103520426},{"NoteNumber":74,"Velocity":59,"Duration":182370,"SoundDuration":182370,"Delta":103520426},{"NoteNumber":78,"Velocity":71,"Duration":182370,"SoundDuration":182370,"Delta":103520426},{"NoteNumber":40,"Velocity":61,"Duration":91185,"SoundDuration":91185,"Delta":103793983},{"NoteNumber":66,"Velocity":51,"Duration":182371,"SoundDuration":182371,"Delta":103885168},{"NoteNumber":69,"Velocity":51,"Duration":182371,"SoundDuration":182371,"Delta":103885168},{"NoteNumber":74,"Velocity":60,"Duration":182371,"SoundDuration":182371,"Delta":103885168},{"NoteNumber":42,"Velocity":69,"Duration":273556,"SoundDuration":273556,"Delta":103885168},{"NoteNumber":43,"Velocity":62,"Duration":91185,"SoundDuration":91185,"Delta":104158725},{"NoteNumber":59,"Velocity":47,"Duration":180723,"SoundDuration":180723,"Delta":104249910},{"NoteNumber":62,"Velocity":47,"Duration":180723,"SoundDuration":180723,"Delta":104249910},{"NoteNumber":66,"Velocity":56,"Duration":180723,"SoundDuration":180723,"Delta":104249910},{"NoteNumber":45,"Velocity":70,"Duration":274297,"SoundDuration":274297,"Delta":104249910},{"NoteNumber":47,"Velocity":62,"Duration":99999,"SoundDuration":99999,"Delta":104524208},{"NoteNumber":64,"Velocity":56,"Duration":727684,"SoundDuration":727684,"Delta":104624208},{"NoteNumber":67,"Velocity":67,"Duration":727684,"SoundDuration":727684,"Delta":104624208},{"NoteNumber":59,"Velocity":56,"Duration":727684,"SoundDuration":727684,"Delta":104624208},{"NoteNumber":43,"Velocity":70,"Duration":117647,"SoundDuration":117647,"Delta":104624208},{"NoteNumber":42,"Velocity":58,"Duration":117646,"SoundDuration":117646,"Delta":104741855},{"NoteNumber":43,"Velocity":58,"Duration":117647,"SoundDuration":117647,"Delta":104859502},{"NoteNumber":40,"Velocity":63,"Duration":120481,"SoundDuration":120481,"Delta":104977149},{"NoteNumber":39,"Velocity":65,"Duration":120482,"SoundDuration":120482,"Delta":105097631},{"NoteNumber":40,"Velocity":68,"Duration":133779,"SoundDuration":133779,"Delta":105218113},{"NoteNumber":67,"Velocity":57,"Duration":354103,"SoundDuration":354103,"Delta":105351892},{"NoteNumber":73,"Velocity":68,"Duration":354103,"SoundDuration":354103,"Delta":105351892},{"NoteNumber":64,"Velocity":57,"Duration":354103,"SoundDuration":354103,"Delta":105351892},{"NoteNumber":37,"Velocity":72,"Duration":638298,"SoundDuration":638298,"Delta":105351892},{"NoteNumber":76,"Velocity":70,"Duration":182370,"SoundDuration":182370,"Delta":105716634},{"NoteNumber":67,"Velocity":59,"Duration":182370,"SoundDuration":182370,"Delta":105716634},{"NoteNumber":73,"Velocity":70,"Duration":182370,"SoundDuration":182370,"Delta":105716634},{"NoteNumber":38,"Velocity":59,"Duration":91185,"SoundDuration":91185,"Delta":105990191},{"NoteNumber":64,"Velocity":55,"Duration":185185,"SoundDuration":185185,"Delta":106081376},{"NoteNumber":73,"Velocity":65,"Duration":185185,"SoundDuration":185185,"Delta":106081376},{"NoteNumber":67,"Velocity":55,"Duration":185185,"SoundDuration":185185,"Delta":106081376},{"NoteNumber":40,"Velocity":73,"Duration":277777,"SoundDuration":277777,"Delta":106081376},{"NoteNumber":37,"Velocity":57,"Duration":92592,"SoundDuration":92592,"Delta":106359154},{"NoteNumber":61,"Velocity":50,"Duration":195439,"SoundDuration":195439,"Delta":106451746},{"NoteNumber":71,"Velocity":59,"Duration":195439,"SoundDuration":195439,"Delta":106451746},{"NoteNumber":68,"Velocity":59,"Duration":195439,"SoundDuration":195439,"Delta":106451746},{"NoteNumber":41,"Velocity":71,"Duration":301402,"SoundDuration":301402,"Delta":106451746},{"NoteNumber":37,"Velocity":58,"Duration":122448,"SoundDuration":122448,"Delta":106753148},{"NoteNumber":61,"Velocity":55,"Duration":773255,"SoundDuration":773255,"Delta":106875597},{"NoteNumber":66,"Velocity":55,"Duration":797342,"SoundDuration":797342,"Delta":106875597},{"NoteNumber":70,"Velocity":65,"Duration":773255,"SoundDuration":773255,"Delta":106875597},{"NoteNumber":42,"Velocity":71,"Duration":773255,"SoundDuration":773255,"Delta":106875597},{"NoteNumber":66,"Velocity":51,"Duration":657258,"SoundDuration":657258,"Delta":107672939},{"NoteNumber":61,"Velocity":51,"Duration":657258,"SoundDuration":657258,"Delta":107672939},{"NoteNumber":70,"Velocity":60,"Duration":657258,"SoundDuration":657258,"Delta":107672939},{"NoteNumber":42,"Velocity":68,"Duration":657258,"SoundDuration":657258,"Delta":107672939},{"NoteNumber":73,"Velocity":71,"Duration":48387,"SoundDuration":48387,"Delta":108350359},{"NoteNumber":66,"Velocity":60,"Duration":48387,"SoundDuration":48387,"Delta":108350359},{"NoteNumber":46,"Velocity":61,"Duration":48387,"SoundDuration":48387,"Delta":108350359},{"NoteNumber":75,"Velocity":78,"Duration":96774,"SoundDuration":96774,"Delta":108447133},{"NoteNumber":66,"Velocity":65,"Duration":96774,"SoundDuration":96774,"Delta":108447133},{"NoteNumber":47,"Velocity":65,"Duration":96774,"SoundDuration":96774,"Delta":108447133},{"NoteNumber":73,"Velocity":73,"Duration":46583,"SoundDuration":46583,"Delta":108733850},{"NoteNumber":66,"Velocity":61,"Duration":46583,"SoundDuration":46583,"Delta":108733850},{"NoteNumber":46,"Velocity":61,"Duration":46583,"SoundDuration":46583,"Delta":108733850},{"NoteNumber":66,"Velocity":66,"Duration":91742,"SoundDuration":91742,"Delta":108827017},{"NoteNumber":75,"Velocity":79,"Duration":91742,"SoundDuration":91742,"Delta":108827017},{"NoteNumber":47,"Velocity":67,"Duration":91742,"SoundDuration":91742,"Delta":108827017},{"NoteNumber":73,"Velocity":76,"Duration":47169,"SoundDuration":47169,"Delta":109104843},{"NoteNumber":66,"Velocity":64,"Duration":47169,"SoundDuration":47169,"Delta":109104843},{"NoteNumber":46,"Velocity":65,"Duration":47169,"SoundDuration":47169,"Delta":109104843},{"NoteNumber":71,"Velocity":70,"Duration":779219,"SoundDuration":779219,"Delta":109199182},{"NoteNumber":77,"Velocity":83,"Duration":755681,"SoundDuration":755681,"Delta":109199182},{"NoteNumber":65,"Velocity":70,"Duration":755681,"SoundDuration":755681,"Delta":109199182},{"NoteNumber":44,"Velocity":58,"Duration":779219,"SoundDuration":779219,"Delta":109199182},{"NoteNumber":49,"Velocity":70,"Duration":755681,"SoundDuration":755681,"Delta":109199182},{"NoteNumber":77,"Velocity":83,"Duration":657258,"SoundDuration":657258,"Delta":109978402},{"NoteNumber":65,"Velocity":70,"Duration":657258,"SoundDuration":657258,"Delta":109978402},{"NoteNumber":71,"Velocity":70,"Duration":657258,"SoundDuration":657258,"Delta":109978402},{"NoteNumber":44,"Velocity":58,"Duration":657258,"SoundDuration":657258,"Delta":109978402},{"NoteNumber":49,"Velocity":70,"Duration":657258,"SoundDuration":657258,"Delta":109978402},{"NoteNumber":73,"Velocity":58,"Duration":91935,"SoundDuration":91935,"Delta":110655822},{"NoteNumber":65,"Velocity":58,"Duration":91935,"SoundDuration":91935,"Delta":110655822},{"NoteNumber":77,"Velocity":73,"Duration":91935,"SoundDuration":91935,"Delta":110655822},{"NoteNumber":44,"Velocity":56,"Duration":96774,"SoundDuration":96774,"Delta":110655822},{"NoteNumber":49,"Velocity":66,"Duration":96774,"SoundDuration":96774,"Delta":110655822},{"NoteNumber":65,"Velocity":66,"Duration":272293,"SoundDuration":272293,"Delta":110752596},{"NoteNumber":73,"Velocity":66,"Duration":272293,"SoundDuration":272293,"Delta":110752596},{"NoteNumber":77,"Velocity":82,"Duration":264331,"SoundDuration":264331,"Delta":110752596},{"NoteNumber":46,"Velocity":58,"Duration":264331,"SoundDuration":264331,"Delta":110752596},{"NoteNumber":49,"Velocity":69,"Duration":264331,"SoundDuration":264331,"Delta":110752596},{"NoteNumber":73,"Velocity":63,"Duration":90764,"SoundDuration":90764,"Delta":111039221},{"NoteNumber":77,"Velocity":80,"Duration":90764,"SoundDuration":90764,"Delta":111039221},{"NoteNumber":65,"Velocity":63,"Duration":90764,"SoundDuration":90764,"Delta":111039221},{"NoteNumber":44,"Velocity":55,"Duration":95541,"SoundDuration":95541,"Delta":111039221},{"NoteNumber":49,"Velocity":65,"Duration":95541,"SoundDuration":95541,"Delta":111039221},{"NoteNumber":73,"Velocity":67,"Duration":283726,"SoundDuration":283726,"Delta":111134762},{"NoteNumber":77,"Velocity":85,"Duration":283726,"SoundDuration":283726,"Delta":111134762},{"NoteNumber":65,"Velocity":67,"Duration":283726,"SoundDuration":283726,"Delta":111134762},{"NoteNumber":46,"Velocity":60,"Duration":274292,"SoundDuration":274292,"Delta":111134762},{"NoteNumber":49,"Velocity":72,"Duration":274292,"SoundDuration":274292,"Delta":111134762},{"NoteNumber":77,"Velocity":83,"Duration":113207,"SoundDuration":113207,"Delta":111435470},{"NoteNumber":65,"Velocity":65,"Duration":113207,"SoundDuration":113207,"Delta":111435470},{"NoteNumber":73,"Velocity":65,"Duration":113207,"SoundDuration":113207,"Delta":111435470},{"NoteNumber":44,"Velocity":62,"Duration":113207,"SoundDuration":113207,"Delta":111435470},{"NoteNumber":49,"Velocity":74,"Duration":113207,"SoundDuration":113207,"Delta":111435470},{"NoteNumber":70,"Velocity":78,"Duration":753237,"SoundDuration":753237,"Delta":111548677},{"NoteNumber":78,"Velocity":93,"Duration":753237,"SoundDuration":753237,"Delta":111548677},{"NoteNumber":66,"Velocity":78,"Duration":753237,"SoundDuration":753237,"Delta":111548677},{"NoteNumber":42,"Velocity":65,"Duration":753237,"SoundDuration":753237,"Delta":111548677},{"NoteNumber":49,"Velocity":74,"Duration":753237,"SoundDuration":753237,"Delta":111548677},{"NoteNumber":70,"Velocity":78,"Duration":663431,"SoundDuration":663431,"Delta":112325377},{"NoteNumber":78,"Velocity":93,"Duration":663431,"SoundDuration":663431,"Delta":112325377},{"NoteNumber":66,"Velocity":78,"Duration":663431,"SoundDuration":663431,"Delta":112325377},{"NoteNumber":42,"Velocity":65,"Duration":663431,"SoundDuration":663431,"Delta":112325377},{"NoteNumber":49,"Velocity":74,"Duration":663431,"SoundDuration":663431,"Delta":112325377},{"NoteNumber":73,"Velocity":56,"Duration":48387,"SoundDuration":48387,"Delta":113004990},{"NoteNumber":67,"Velocity":47,"Duration":48387,"SoundDuration":48387,"Delta":113004990},{"NoteNumber":69,"Velocity":47,"Duration":48387,"SoundDuration":48387,"Delta":113004990},{"NoteNumber":57,"Velocity":48,"Duration":48387,"SoundDuration":48387,"Delta":113004990},{"NoteNumber":73,"Velocity":60,"Duration":276983,"SoundDuration":276983,"Delta":113101764},{"NoteNumber":69,"Velocity":51,"Duration":276983,"SoundDuration":276983,"Delta":113101764},{"NoteNumber":67,"Velocity":51,"Duration":276983,"SoundDuration":276983,"Delta":113101764},{"NoteNumber":57,"Velocity":51,"Duration":276983,"SoundDuration":276983,"Delta":113101764},{"NoteNumber":67,"Velocity":47,"Duration":47618,"SoundDuration":47618,"Delta":113387478},{"NoteNumber":69,"Velocity":47,"Duration":47618,"SoundDuration":47618,"Delta":113387478},{"NoteNumber":73,"Velocity":56,"Duration":47618,"SoundDuration":47618,"Delta":113387478},{"NoteNumber":57,"Velocity":47,"Duration":47618,"SoundDuration":47618,"Delta":113387478},{"NoteNumber":67,"Velocity":50,"Duration":279061,"SoundDuration":279061,"Delta":113471605},{"NoteNumber":74,"Velocity":60,"Duration":279061,"SoundDuration":279061,"Delta":113471605},{"NoteNumber":69,"Velocity":50,"Duration":279061,"SoundDuration":279061,"Delta":113471605},{"NoteNumber":59,"Velocity":51,"Duration":279061,"SoundDuration":279061,"Delta":113471605},{"NoteNumber":69,"Velocity":47,"Duration":51546,"SoundDuration":51546,"Delta":113772144},{"NoteNumber":67,"Velocity":47,"Duration":51546,"SoundDuration":51546,"Delta":113772144},{"NoteNumber":76,"Velocity":56,"Duration":51546,"SoundDuration":51546,"Delta":113772144},{"NoteNumber":61,"Velocity":48,"Duration":51546,"SoundDuration":51546,"Delta":113772144},{"NoteNumber":69,"Velocity":64,"Duration":760621,"SoundDuration":760621,"Delta":113875237},{"NoteNumber":66,"Velocity":54,"Duration":760621,"SoundDuration":760621,"Delta":113875237},{"NoteNumber":62,"Velocity":54,"Duration":760621,"SoundDuration":760621,"Delta":113875237},{"NoteNumber":78,"Velocity":64,"Duration":657258,"SoundDuration":657258,"Delta":114659551},{"NoteNumber":66,"Velocity":54,"Duration":657258,"SoundDuration":657258,"Delta":114659551},{"NoteNumber":69,"Velocity":54,"Duration":657258,"SoundDuration":657258,"Delta":114659551},{"NoteNumber":62,"Velocity":54,"Duration":657258,"SoundDuration":657258,"Delta":114659551},{"NoteNumber":66,"Velocity":53,"Duration":94354,"SoundDuration":94354,"Delta":115336971},{"NoteNumber":78,"Velocity":53,"Duration":93548,"SoundDuration":93548,"Delta":115336971},{"NoteNumber":62,"Velocity":44,"Duration":86290,"SoundDuration":86290,"Delta":115336971},{"NoteNumber":78,"Velocity":60,"Duration":96153,"SoundDuration":96153,"Delta":115433745},{"NoteNumber":66,"Velocity":60,"Duration":96153,"SoundDuration":96153,"Delta":115433745},{"NoteNumber":62,"Velocity":50,"Duration":96153,"SoundDuration":96153,"Delta":115433745},{"NoteNumber":78,"Velocity":56,"Duration":92948,"SoundDuration":92948,"Delta":115710989},{"NoteNumber":66,"Velocity":56,"Duration":92948,"SoundDuration":92948,"Delta":115710989},{"NoteNumber":62,"Velocity":47,"Duration":92948,"SoundDuration":92948,"Delta":115710989},{"NoteNumber":76,"Velocity":59,"Duration":94043,"SoundDuration":94043,"Delta":115818360},{"NoteNumber":68,"Velocity":59,"Duration":94043,"SoundDuration":94043,"Delta":115818360},{"NoteNumber":59,"Velocity":41,"Duration":94043,"SoundDuration":94043,"Delta":115818360},{"NoteNumber":62,"Velocity":49,"Duration":94043,"SoundDuration":94043,"Delta":115818360},{"NoteNumber":68,"Velocity":56,"Duration":109090,"SoundDuration":109090,"Delta":116115539},{"NoteNumber":74,"Velocity":56,"Duration":109090,"SoundDuration":109090,"Delta":116115539},{"NoteNumber":59,"Velocity":40,"Duration":109090,"SoundDuration":109090,"Delta":116115539},{"NoteNumber":62,"Velocity":47,"Duration":109090,"SoundDuration":109090,"Delta":116115539},{"NoteNumber":69,"Velocity":54,"Duration":755681,"SoundDuration":755681,"Delta":116224630},{"NoteNumber":73,"Velocity":64,"Duration":755681,"SoundDuration":755681,"Delta":116224630},{"NoteNumber":57,"Velocity":45,"Duration":755681,"SoundDuration":755681,"Delta":116224630},{"NoteNumber":64,"Velocity":54,"Duration":755681,"SoundDuration":755681,"Delta":116224630},{"NoteNumber":76,"Velocity":64,"Duration":657258,"SoundDuration":657258,"Delta":117003850},{"NoteNumber":69,"Velocity":54,"Duration":657258,"SoundDuration":657258,"Delta":117003850},{"NoteNumber":57,"Velocity":45,"Duration":657258,"SoundDuration":657258,"Delta":117003850},{"NoteNumber":61,"Velocity":54,"Duration":657258,"SoundDuration":657258,"Delta":117003850},{"NoteNumber":76,"Velocity":53,"Duration":94354,"SoundDuration":94354,"Delta":117681270},{"NoteNumber":70,"Velocity":53,"Duration":94354,"SoundDuration":94354,"Delta":117681270},{"NoteNumber":54,"Velocity":35,"Duration":86290,"SoundDuration":86290,"Delta":117681270},{"NoteNumber":61,"Velocity":44,"Duration":86290,"SoundDuration":86290,"Delta":117681270},{"NoteNumber":70,"Velocity":60,"Duration":95541,"SoundDuration":95541,"Delta":117778044},{"NoteNumber":76,"Velocity":60,"Duration":95541,"SoundDuration":95541,"Delta":117778044},{"NoteNumber":61,"Velocity":50,"Duration":95541,"SoundDuration":95541,"Delta":117778044},{"NoteNumber":54,"Velocity":42,"Duration":95541,"SoundDuration":95541,"Delta":117778044},{"NoteNumber":70,"Velocity":56,"Duration":92356,"SoundDuration":92356,"Delta":118053522},{"NoteNumber":76,"Velocity":56,"Duration":92356,"SoundDuration":92356,"Delta":118053522},{"NoteNumber":61,"Velocity":47,"Duration":92356,"SoundDuration":92356,"Delta":118053522},{"NoteNumber":54,"Velocity":40,"Duration":92356,"SoundDuration":92356,"Delta":118053522},{"NoteNumber":74,"Velocity":59,"Duration":94339,"SoundDuration":94339,"Delta":118160210},{"NoteNumber":70,"Velocity":59,"Duration":94339,"SoundDuration":94339,"Delta":118160210},{"NoteNumber":54,"Velocity":41,"Duration":94339,"SoundDuration":94339,"Delta":118160210},{"NoteNumber":62,"Velocity":49,"Duration":94339,"SoundDuration":94339,"Delta":118160210},{"NoteNumber":70,"Velocity":56,"Duration":112359,"SoundDuration":112359,"Delta":118461249},{"NoteNumber":73,"Velocity":56,"Duration":112359,"SoundDuration":112359,"Delta":118461249},{"NoteNumber":54,"Velocity":40,"Duration":112359,"SoundDuration":112359,"Delta":118461249},{"NoteNumber":64,"Velocity":47,"Duration":112359,"SoundDuration":112359,"Delta":118461249},{"NoteNumber":71,"Velocity":64,"Duration":755681,"SoundDuration":755681,"Delta":118573608},{"NoteNumber":55,"Velocity":45,"Duration":779219,"SoundDuration":779219,"Delta":118573608},{"NoteNumber":62,"Velocity":54,"Duration":755681,"SoundDuration":755681,"Delta":118573608},{"NoteNumber":74,"Velocity":64,"Duration":657258,"SoundDuration":657258,"Delta":119352828},{"NoteNumber":67,"Velocity":54,"Duration":657258,"SoundDuration":657258,"Delta":119352828},{"NoteNumber":55,"Velocity":45,"Duration":657258,"SoundDuration":657258,"Delta":119352828},{"NoteNumber":59,"Velocity":54,"Duration":657258,"SoundDuration":657258,"Delta":119352828},{"NoteNumber":67,"Velocity":53,"Duration":96774,"SoundDuration":96774,"Delta":120030248},{"NoteNumber":71,"Velocity":53,"Duration":96774,"SoundDuration":96774,"Delta":120030248},{"NoteNumber":61,"Velocity":53,"Duration":96774,"SoundDuration":96774,"Delta":120030248},{"NoteNumber":45,"Velocity":44,"Duration":88709,"SoundDuration":88709,"Delta":120030248},{"NoteNumber":71,"Velocity":60,"Duration":96153,"SoundDuration":96153,"Delta":120127022},{"NoteNumber":61,"Velocity":60,"Duration":96153,"SoundDuration":96153,"Delta":120127022},{"NoteNumber":67,"Velocity":60,"Duration":96153,"SoundDuration":96153,"Delta":120127022},{"NoteNumber":45,"Velocity":50,"Duration":96153,"SoundDuration":96153,"Delta":120127022},{"NoteNumber":71,"Velocity":56,"Duration":96153,"SoundDuration":96153,"Delta":120415483},{"NoteNumber":61,"Velocity":56,"Duration":96153,"SoundDuration":96153,"Delta":120415483},{"NoteNumber":67,"Velocity":56,"Duration":96153,"SoundDuration":96153,"Delta":120415483},{"NoteNumber":45,"Velocity":47,"Duration":96153,"SoundDuration":96153,"Delta":120415483},{"NoteNumber":61,"Velocity":59,"Duration":94043,"SoundDuration":94043,"Delta":120511637},{"NoteNumber":66,"Velocity":59,"Duration":94043,"SoundDuration":94043,"Delta":120511637},{"NoteNumber":69,"Velocity":59,"Duration":94043,"SoundDuration":94043,"Delta":120511637},{"NoteNumber":45,"Velocity":49,"Duration":94043,"SoundDuration":94043,"Delta":120511637},{"NoteNumber":61,"Velocity":56,"Duration":112359,"SoundDuration":112359,"Delta":120812085},{"NoteNumber":67,"Velocity":56,"Duration":112359,"SoundDuration":112359,"Delta":120812085},{"NoteNumber":64,"Velocity":56,"Duration":112359,"SoundDuration":112359,"Delta":120812085},{"NoteNumber":45,"Velocity":47,"Duration":112359,"SoundDuration":112359,"Delta":120812085},{"NoteNumber":57,"Velocity":54,"Duration":778428,"SoundDuration":778428,"Delta":120924444},{"NoteNumber":67,"Velocity":64,"Duration":778428,"SoundDuration":778428,"Delta":120924444},{"NoteNumber":64,"Velocity":54,"Duration":802676,"SoundDuration":802676,"Delta":120924444},{"NoteNumber":50,"Velocity":54,"Duration":778428,"SoundDuration":778428,"Delta":120924444},{"NoteNumber":57,"Velocity":54,"Duration":766129,"SoundDuration":766129,"Delta":121727120},{"NoteNumber":62,"Velocity":54,"Duration":766129,"SoundDuration":766129,"Delta":121727120},{"NoteNumber":66,"Velocity":64,"Duration":766129,"SoundDuration":766129,"Delta":121727120},{"NoteNumber":50,"Velocity":54,"Duration":766129,"SoundDuration":766129,"Delta":121727120},{"NoteNumber":62,"Velocity":56,"Duration":361904,"SoundDuration":361904,"Delta":122501314},{"NoteNumber":69,"Velocity":67,"Duration":361904,"SoundDuration":361904,"Delta":122501314},{"NoteNumber":66,"Velocity":56,"Duration":361904,"SoundDuration":361904,"Delta":122501314},{"NoteNumber":50,"Velocity":45,"Duration":361904,"SoundDuration":361904,"Delta":122501314},{"NoteNumber":62,"Velocity":53,"Duration":385851,"SoundDuration":385851,"Delta":122882266},{"NoteNumber":66,"Velocity":53,"Duration":385851,"SoundDuration":385851,"Delta":122882266},{"NoteNumber":70,"Velocity":63,"Duration":385851,"SoundDuration":385851,"Delta":122882266},{"NoteNumber":49,"Velocity":37,"Duration":385851,"SoundDuration":385851,"Delta":122882266},{"NoteNumber":62,"Velocity":51,"Duration":724108,"SoundDuration":724108,"Delta":123268118},{"NoteNumber":67,"Velocity":51,"Duration":724108,"SoundDuration":724108,"Delta":123268118},{"NoteNumber":71,"Velocity":60,"Duration":724108,"SoundDuration":724108,"Delta":123268118},{"NoteNumber":47,"Velocity":67,"Duration":117647,"SoundDuration":117647,"Delta":123268118},{"NoteNumber":46,"Velocity":57,"Duration":117646,"SoundDuration":117646,"Delta":123385765},{"NoteNumber":47,"Velocity":57,"Duration":117647,"SoundDuration":117647,"Delta":123503412},{"NoteNumber":43,"Velocity":68,"Duration":118694,"SoundDuration":118694,"Delta":123621059},{"NoteNumber":42,"Velocity":61,"Duration":118694,"SoundDuration":118694,"Delta":123739754},{"NoteNumber":43,"Velocity":65,"Duration":133779,"SoundDuration":133779,"Delta":123858448},{"NoteNumber":71,"Velocity":56,"Duration":354103,"SoundDuration":354103,"Delta":123992227},{"NoteNumber":76,"Velocity":67,"Duration":354103,"SoundDuration":354103,"Delta":123992227},{"NoteNumber":67,"Velocity":56,"Duration":354103,"SoundDuration":354103,"Delta":123992227},{"NoteNumber":40,"Velocity":74,"Duration":638298,"SoundDuration":638298,"Delta":123992227},{"NoteNumber":76,"Velocity":58,"Duration":182370,"SoundDuration":182370,"Delta":124356969},{"NoteNumber":79,"Velocity":70,"Duration":182370,"SoundDuration":182370,"Delta":124356969},{"NoteNumber":71,"Velocity":58,"Duration":182370,"SoundDuration":182370,"Delta":124356969},{"NoteNumber":42,"Velocity":61,"Duration":91185,"SoundDuration":91185,"Delta":124630526},{"NoteNumber":71,"Velocity":53,"Duration":182371,"SoundDuration":182371,"Delta":124721711},{"NoteNumber":76,"Velocity":63,"Duration":189969,"SoundDuration":189969,"Delta":124721711},{"NoteNumber":67,"Velocity":53,"Duration":182371,"SoundDuration":182371,"Delta":124721711},{"NoteNumber":43,"Velocity":69,"Duration":273556,"SoundDuration":273556,"Delta":124721711},{"NoteNumber":45,"Velocity":62,"Duration":91185,"SoundDuration":91185,"Delta":124995268},{"NoteNumber":64,"Velocity":49,"Duration":180723,"SoundDuration":180723,"Delta":125086453},{"NoteNumber":67,"Velocity":58,"Duration":180723,"SoundDuration":180723,"Delta":125086453},{"NoteNumber":47,"Velocity":70,"Duration":274297,"SoundDuration":274297,"Delta":125086453},{"NoteNumber":50,"Velocity":62,"Duration":99999,"SoundDuration":99999,"Delta":125360751},{"NoteNumber":64,"Velocity":55,"Duration":725206,"SoundDuration":725206,"Delta":125460751},{"NoteNumber":69,"Velocity":55,"Duration":725206,"SoundDuration":725206,"Delta":125460751},{"NoteNumber":73,"Velocity":65,"Duration":725206,"SoundDuration":725206,"Delta":125460751},{"NoteNumber":49,"Velocity":69,"Duration":117301,"SoundDuration":117301,"Delta":125460751},{"NoteNumber":48,"Velocity":63,"Duration":117302,"SoundDuration":117302,"Delta":125578053},{"NoteNumber":49,"Velocity":59,"Duration":117301,"SoundDuration":117301,"Delta":125695355},{"NoteNumber":45,"Velocity":68,"Duration":119760,"SoundDuration":119760,"Delta":125812657},{"NoteNumber":44,"Velocity":65,"Duration":119760,"SoundDuration":119760,"Delta":125932417},{"NoteNumber":45,"Velocity":69,"Duration":133779,"SoundDuration":133779,"Delta":126052177},{"NoteNumber":73,"Velocity":59,"Duration":354103,"SoundDuration":354103,"Delta":126185957},{"NoteNumber":78,"Velocity":70,"Duration":354103,"SoundDuration":354103,"Delta":126185957},{"NoteNumber":69,"Velocity":59,"Duration":354103,"SoundDuration":354103,"Delta":126185957},{"NoteNumber":42,"Velocity":74,"Duration":638298,"SoundDuration":638298,"Delta":126185957},{"NoteNumber":73,"Velocity":59,"Duration":182370,"SoundDuration":182370,"Delta":126550699},{"NoteNumber":81,"Velocity":71,"Duration":182370,"SoundDuration":182370,"Delta":126550699},{"NoteNumber":78,"Velocity":59,"Duration":182370,"SoundDuration":182370,"Delta":126550699},{"NoteNumber":44,"Velocity":61,"Duration":91185,"SoundDuration":91185,"Delta":126824255},{"NoteNumber":69,"Velocity":51,"Duration":182371,"SoundDuration":182371,"Delta":126915441},{"NoteNumber":78,"Velocity":60,"Duration":182371,"SoundDuration":182371,"Delta":126915441},{"NoteNumber":73,"Velocity":51,"Duration":182371,"SoundDuration":182371,"Delta":126915441},{"NoteNumber":45,"Velocity":69,"Duration":273556,"SoundDuration":273556,"Delta":126915441},{"NoteNumber":47,"Velocity":62,"Duration":91185,"SoundDuration":91185,"Delta":127188997},{"NoteNumber":66,"Velocity":47,"Duration":180723,"SoundDuration":180723,"Delta":127280183},{"NoteNumber":69,"Velocity":56,"Duration":180723,"SoundDuration":180723,"Delta":127280183},{"NoteNumber":49,"Velocity":70,"Duration":274297,"SoundDuration":274297,"Delta":127280183},{"NoteNumber":52,"Velocity":62,"Duration":99999,"SoundDuration":99999,"Delta":127554480},{"NoteNumber":71,"Velocity":56,"Duration":727684,"SoundDuration":727684,"Delta":127654480},{"NoteNumber":74,"Velocity":67,"Duration":727684,"SoundDuration":727684,"Delta":127654480},{"NoteNumber":66,"Velocity":56,"Duration":727684,"SoundDuration":727684,"Delta":127654480},{"NoteNumber":50,"Velocity":70,"Duration":117647,"SoundDuration":117647,"Delta":127654480},{"NoteNumber":49,"Velocity":58,"Duration":117647,"SoundDuration":117647,"Delta":127772127},{"NoteNumber":50,"Velocity":58,"Duration":117646,"SoundDuration":117646,"Delta":127889774},{"NoteNumber":47,"Velocity":63,"Duration":120482,"SoundDuration":120482,"Delta":128007421},{"NoteNumber":46,"Velocity":65,"Duration":120482,"SoundDuration":120482,"Delta":128127903},{"NoteNumber":47,"Velocity":68,"Duration":133779,"SoundDuration":133779,"Delta":128248385},{"NoteNumber":74,"Velocity":63,"Duration":354103,"SoundDuration":354103,"Delta":128382164},{"NoteNumber":79,"Velocity":74,"Duration":354103,"SoundDuration":354103,"Delta":128382164},{"NoteNumber":71,"Velocity":63,"Duration":354103,"SoundDuration":354103,"Delta":128382164},{"NoteNumber":43,"Velocity":72,"Duration":638298,"SoundDuration":638298,"Delta":128382164},{"NoteNumber":74,"Velocity":63,"Duration":182370,"SoundDuration":182370,"Delta":128746906},{"NoteNumber":83,"Velocity":74,"Duration":182370,"SoundDuration":182370,"Delta":128746906},{"NoteNumber":79,"Velocity":74,"Duration":182370,"SoundDuration":182370,"Delta":128746906},{"NoteNumber":45,"Velocity":59,"Duration":91185,"SoundDuration":91185,"Delta":129020463},{"NoteNumber":71,"Velocity":60,"Duration":185184,"SoundDuration":185184,"Delta":129111648},{"NoteNumber":79,"Velocity":71,"Duration":185184,"SoundDuration":185184,"Delta":129111648},{"NoteNumber":74,"Velocity":60,"Duration":185184,"SoundDuration":185184,"Delta":129111648},{"NoteNumber":47,"Velocity":73,"Duration":277777,"SoundDuration":277777,"Delta":129111648},{"NoteNumber":49,"Velocity":57,"Duration":92592,"SoundDuration":92592,"Delta":129389426},{"NoteNumber":67,"Velocity":68,"Duration":195439,"SoundDuration":195439,"Delta":129482018},{"NoteNumber":71,"Velocity":75,"Duration":195439,"SoundDuration":195439,"Delta":129482018},{"NoteNumber":50,"Velocity":71,"Duration":301402,"SoundDuration":301402,"Delta":129482018},{"NoteNumber":54,"Velocity":58,"Duration":122448,"SoundDuration":122448,"Delta":129783421},{"NoteNumber":79,"Velocity":66,"Duration":797341,"SoundDuration":797341,"Delta":129905870},{"NoteNumber":73,"Velocity":66,"Duration":773255,"SoundDuration":773255,"Delta":129905870},{"NoteNumber":69,"Velocity":66,"Duration":773255,"SoundDuration":773255,"Delta":129905870},{"NoteNumber":81,"Velocity":78,"Duration":773255,"SoundDuration":773255,"Delta":129905870},{"NoteNumber":52,"Velocity":85,"Duration":773255,"SoundDuration":773255,"Delta":129905870},{"NoteNumber":73,"Velocity":61,"Duration":657258,"SoundDuration":657258,"Delta":130703212},{"NoteNumber":81,"Velocity":72,"Duration":657258,"SoundDuration":657258,"Delta":130703212},{"NoteNumber":69,"Velocity":61,"Duration":657258,"SoundDuration":657258,"Delta":130703212},{"NoteNumber":79,"Velocity":61,"Duration":657258,"SoundDuration":657258,"Delta":130703212},{"NoteNumber":52,"Velocity":68,"Duration":657258,"SoundDuration":657258,"Delta":130703212},{"NoteNumber":57,"Velocity":81,"Duration":657258,"SoundDuration":657258,"Delta":130703212},{"NoteNumber":79,"Velocity":58,"Duration":91935,"SoundDuration":91935,"Delta":131380631},{"NoteNumber":73,"Velocity":58,"Duration":91935,"SoundDuration":91935,"Delta":131380631},{"NoteNumber":81,"Velocity":73,"Duration":91935,"SoundDuration":91935,"Delta":131380631},{"NoteNumber":45,"Velocity":56,"Duration":96774,"SoundDuration":96774,"Delta":131380631},{"NoteNumber":57,"Velocity":66,"Duration":96774,"SoundDuration":96774,"Delta":131380631},{"NoteNumber":79,"Velocity":66,"Duration":272293,"SoundDuration":272293,"Delta":131477406},{"NoteNumber":73,"Velocity":66,"Duration":272293,"SoundDuration":272293,"Delta":131477406},{"NoteNumber":81,"Velocity":82,"Duration":265127,"SoundDuration":265127,"Delta":131477406},{"NoteNumber":45,"Velocity":58,"Duration":264331,"SoundDuration":264331,"Delta":131477406},{"NoteNumber":57,"Velocity":69,"Duration":264331,"SoundDuration":264331,"Delta":131477406},{"NoteNumber":79,"Velocity":63,"Duration":90764,"SoundDuration":90764,"Delta":131764030},{"NoteNumber":81,"Velocity":80,"Duration":90764,"SoundDuration":90764,"Delta":131764030},{"NoteNumber":73,"Velocity":63,"Duration":90764,"SoundDuration":90764,"Delta":131764030},{"NoteNumber":43,"Velocity":55,"Duration":95541,"SoundDuration":95541,"Delta":131764030},{"NoteNumber":55,"Velocity":65,"Duration":95541,"SoundDuration":95541,"Delta":131764030},{"NoteNumber":83,"Velocity":85,"Duration":283726,"SoundDuration":283726,"Delta":131859572},{"NoteNumber":73,"Velocity":67,"Duration":283726,"SoundDuration":283726,"Delta":131859572},{"NoteNumber":79,"Velocity":67,"Duration":283726,"SoundDuration":283726,"Delta":131859572},{"NoteNumber":42,"Velocity":60,"Duration":274292,"SoundDuration":274292,"Delta":131859572},{"NoteNumber":54,"Velocity":72,"Duration":274292,"SoundDuration":274292,"Delta":131859572},{"NoteNumber":85,"Velocity":83,"Duration":113207,"SoundDuration":113207,"Delta":132160279},{"NoteNumber":73,"Velocity":65,"Duration":113207,"SoundDuration":113207,"Delta":132160279},{"NoteNumber":79,"Velocity":65,"Duration":113207,"SoundDuration":113207,"Delta":132160279},{"NoteNumber":40,"Velocity":62,"Duration":113207,"SoundDuration":113207,"Delta":132160279},{"NoteNumber":52,"Velocity":74,"Duration":113207,"SoundDuration":113207,"Delta":132160279},{"NoteNumber":74,"Velocity":78,"Duration":753237,"SoundDuration":753237,"Delta":132273487},{"NoteNumber":78,"Velocity":78,"Duration":753237,"SoundDuration":753237,"Delta":132273487},{"NoteNumber":86,"Velocity":93,"Duration":753237,"SoundDuration":753237,"Delta":132273487},{"NoteNumber":38,"Velocity":65,"Duration":753237,"SoundDuration":753237,"Delta":132273487},{"NoteNumber":45,"Velocity":65,"Duration":753237,"SoundDuration":753237,"Delta":132273487},{"NoteNumber":50,"Velocity":74,"Duration":753237,"SoundDuration":753237,"Delta":132273487},{"NoteNumber":74,"Velocity":78,"Duration":663431,"SoundDuration":663431,"Delta":133050187},{"NoteNumber":86,"Velocity":93,"Duration":663431,"SoundDuration":663431,"Delta":133050187},{"NoteNumber":78,"Velocity":78,"Duration":663431,"SoundDuration":663431,"Delta":133050187},{"NoteNumber":45,"Velocity":65,"Duration":663431,"SoundDuration":663431,"Delta":133050187},{"NoteNumber":38,"Velocity":65,"Duration":663431,"SoundDuration":663431,"Delta":133050187},{"NoteNumber":50,"Velocity":74,"Duration":663431,"SoundDuration":663431,"Delta":133050187},{"NoteNumber":69,"Velocity":56,"Duration":48387,"SoundDuration":48387,"Delta":133729799},{"NoteNumber":66,"Velocity":47,"Duration":48387,"SoundDuration":48387,"Delta":133729799},{"NoteNumber":66,"Velocity":51,"Duration":276983,"SoundDuration":276983,"Delta":133826573},{"NoteNumber":69,"Velocity":60,"Duration":276983,"SoundDuration":276983,"Delta":133826573},{"NoteNumber":66,"Velocity":47,"Duration":47618,"SoundDuration":47618,"Delta":134112287},{"NoteNumber":69,"Velocity":56,"Duration":47618,"SoundDuration":47618,"Delta":134112287},{"NoteNumber":67,"Velocity":60,"Duration":279978,"SoundDuration":279978,"Delta":134207525},{"NoteNumber":64,"Velocity":50,"Duration":279978,"SoundDuration":279978,"Delta":134207525},{"NoteNumber":66,"Velocity":56,"Duration":51546,"SoundDuration":51546,"Delta":134496954},{"NoteNumber":62,"Velocity":47,"Duration":51546,"SoundDuration":51546,"Delta":134496954},{"NoteNumber":57,"Velocity":54,"Duration":760621,"SoundDuration":760621,"Delta":134600046},{"NoteNumber":64,"Velocity":64,"Duration":760621,"SoundDuration":760621,"Delta":134600046},{"NoteNumber":45,"Velocity":45,"Duration":784313,"SoundDuration":784313,"Delta":134600046},{"NoteNumber":49,"Velocity":45,"Duration":784313,"SoundDuration":784313,"Delta":134600046},{"NoteNumber":55,"Velocity":54,"Duration":760621,"SoundDuration":760621,"Delta":134600046},{"NoteNumber":57,"Velocity":54,"Duration":663499,"SoundDuration":663499,"Delta":135384360},{"NoteNumber":64,"Velocity":64,"Duration":663499,"SoundDuration":663499,"Delta":135384360},{"NoteNumber":45,"Velocity":45,"Duration":783137,"SoundDuration":783137,"Delta":135384360},{"NoteNumber":49,"Velocity":45,"Duration":783137,"SoundDuration":783137,"Delta":135384360},{"NoteNumber":55,"Velocity":54,"Duration":783137,"SoundDuration":783137,"Delta":135384360},{"NoteNumber":71,"Velocity":50,"Duration":49505,"SoundDuration":49505,"Delta":136068487},{"NoteNumber":67,"Velocity":41,"Duration":49505,"SoundDuration":49505,"Delta":136068487},{"NoteNumber":66,"Velocity":44,"Duration":282362,"SoundDuration":282362,"Delta":136167497},{"NoteNumber":69,"Velocity":53,"Duration":282362,"SoundDuration":282362,"Delta":136167497},{"NoteNumber":67,"Velocity":47,"Duration":48543,"SoundDuration":48543,"Delta":136458760},{"NoteNumber":64,"Velocity":39,"Duration":48543,"SoundDuration":48543,"Delta":136458760},{"NoteNumber":62,"Velocity":41,"Duration":303079,"SoundDuration":303079,"Delta":136555847},{"NoteNumber":66,"Velocity":50,"Duration":303079,"SoundDuration":303079,"Delta":136555847},{"NoteNumber":64,"Velocity":44,"Duration":60975,"SoundDuration":60975,"Delta":136870106},{"NoteNumber":57,"Velocity":36,"Duration":60975,"SoundDuration":60975,"Delta":136870106},{"NoteNumber":54,"Velocity":39,"Duration":813810,"SoundDuration":813810,"Delta":136992057},{"NoteNumber":62,"Velocity":46,"Duration":813810,"SoundDuration":813810,"Delta":136992057},{"NoteNumber":38,"Velocity":33,"Duration":839159,"SoundDuration":839159,"Delta":136992057},{"NoteNumber":45,"Velocity":33,"Duration":839159,"SoundDuration":839159,"Delta":136992057},{"NoteNumber":50,"Velocity":39,"Duration":813810,"SoundDuration":813810,"Delta":136992057},{"NoteNumber":54,"Velocity":37,"Duration":707465,"SoundDuration":707465,"Delta":137831217},{"NoteNumber":62,"Velocity":44,"Duration":707465,"SoundDuration":707465,"Delta":137831217},{"NoteNumber":38,"Velocity":31,"Duration":707465,"SoundDuration":707465,"Delta":137831217},{"NoteNumber":45,"Velocity":31,"Duration":707465,"SoundDuration":707465,"Delta":137831217},{"NoteNumber":50,"Velocity":37,"Duration":707465,"SoundDuration":707465,"Delta":137831217},{"NoteNumber":57,"Velocity":70,"Duration":48387,"SoundDuration":48387,"Delta":138560385},{"NoteNumber":45,"Velocity":60,"Duration":48387,"SoundDuration":48387,"Delta":138560385},{"NoteNumber":57,"Velocity":76,"Duration":96774,"SoundDuration":96774,"Delta":138657159},{"NoteNumber":45,"Velocity":64,"Duration":96774,"SoundDuration":96774,"Delta":138657159},{"NoteNumber":57,"Velocity":70,"Duration":45871,"SoundDuration":45871,"Delta":138942450},{"NoteNumber":45,"Velocity":59,"Duration":45871,"SoundDuration":45871,"Delta":138942450},{"NoteNumber":55,"Velocity":75,"Duration":90361,"SoundDuration":90361,"Delta":139034193},{"NoteNumber":43,"Velocity":64,"Duration":90361,"SoundDuration":90361,"Delta":139034193},{"NoteNumber":57,"Velocity":70,"Duration":51546,"SoundDuration":51546,"Delta":139318009},{"NoteNumber":45,"Velocity":60,"Duration":51546,"SoundDuration":51546,"Delta":139318009},{"NoteNumber":58,"Velocity":68,"Duration":784313,"SoundDuration":784313,"Delta":139421102},{"NoteNumber":55,"Velocity":68,"Duration":760621,"SoundDuration":760621,"Delta":139421102},{"NoteNumber":61,"Velocity":80,"Duration":760621,"SoundDuration":760621,"Delta":139421102},{"NoteNumber":52,"Velocity":68,"Duration":760621,"SoundDuration":760621,"Delta":139421102},{"NoteNumber":34,"Velocity":57,"Duration":760621,"SoundDuration":760621,"Delta":139421102},{"NoteNumber":46,"Velocity":68,"Duration":760621,"SoundDuration":760621,"Delta":139421102},{"NoteNumber":55,"Velocity":68,"Duration":657258,"SoundDuration":657258,"Delta":140205416},{"NoteNumber":61,"Velocity":80,"Duration":657258,"SoundDuration":657258,"Delta":140205416},{"NoteNumber":58,"Velocity":68,"Duration":657258,"SoundDuration":657258,"Delta":140205416},{"NoteNumber":52,"Velocity":68,"Duration":657258,"SoundDuration":657258,"Delta":140205416},{"NoteNumber":34,"Velocity":57,"Duration":657258,"SoundDuration":657258,"Delta":140205416},{"NoteNumber":46,"Velocity":68,"Duration":657258,"SoundDuration":657258,"Delta":140205416},{"NoteNumber":69,"Velocity":70,"Duration":48387,"SoundDuration":48387,"Delta":140882836},{"NoteNumber":57,"Velocity":60,"Duration":48387,"SoundDuration":48387,"Delta":140882836},{"NoteNumber":69,"Velocity":76,"Duration":93457,"SoundDuration":93457,"Delta":140979610},{"NoteNumber":57,"Velocity":64,"Duration":93457,"SoundDuration":93457,"Delta":140979610},{"NoteNumber":69,"Velocity":70,"Duration":46728,"SoundDuration":46728,"Delta":141259984},{"NoteNumber":57,"Velocity":59,"Duration":46728,"SoundDuration":46728,"Delta":141259984},{"NoteNumber":67,"Velocity":75,"Duration":90634,"SoundDuration":90634,"Delta":141353442},{"NoteNumber":55,"Velocity":64,"Duration":90634,"SoundDuration":90634,"Delta":141353442},{"NoteNumber":69,"Velocity":70,"Duration":51546,"SoundDuration":51546,"Delta":141637804},{"NoteNumber":57,"Velocity":60,"Duration":51546,"SoundDuration":51546,"Delta":141637804},{"NoteNumber":62,"Velocity":68,"Duration":760621,"SoundDuration":760621,"Delta":141740896},{"NoteNumber":70,"Velocity":68,"Duration":784313,"SoundDuration":784313,"Delta":141740896},{"NoteNumber":74,"Velocity":80,"Duration":760621,"SoundDuration":760621,"Delta":141740896},{"NoteNumber":65,"Velocity":68,"Duration":760621,"SoundDuration":760621,"Delta":141740896},{"NoteNumber":53,"Velocity":57,"Duration":784313,"SoundDuration":784313,"Delta":141740896},{"NoteNumber":46,"Velocity":57,"Duration":760621,"SoundDuration":760621,"Delta":141740896},{"NoteNumber":58,"Velocity":68,"Duration":760621,"SoundDuration":760621,"Delta":141740896},{"NoteNumber":70,"Velocity":68,"Duration":657258,"SoundDuration":657258,"Delta":142525210},{"NoteNumber":74,"Velocity":80,"Duration":657258,"SoundDuration":657258,"Delta":142525210},{"NoteNumber":62,"Velocity":68,"Duration":657258,"SoundDuration":657258,"Delta":142525210},{"NoteNumber":65,"Velocity":68,"Duration":657258,"SoundDuration":657258,"Delta":142525210},{"NoteNumber":53,"Velocity":57,"Duration":657258,"SoundDuration":657258,"Delta":142525210},{"NoteNumber":46,"Velocity":57,"Duration":657258,"SoundDuration":657258,"Delta":142525210},{"NoteNumber":58,"Velocity":68,"Duration":657258,"SoundDuration":657258,"Delta":142525210},{"NoteNumber":74,"Velocity":59,"Duration":48387,"SoundDuration":48387,"Delta":143202630},{"NoteNumber":77,"Velocity":70,"Duration":48387,"SoundDuration":48387,"Delta":143202630},{"NoteNumber":62,"Velocity":51,"Duration":48387,"SoundDuration":48387,"Delta":143202630},{"NoteNumber":65,"Velocity":60,"Duration":48387,"SoundDuration":48387,"Delta":143202630},{"NoteNumber":74,"Velocity":64,"Duration":94339,"SoundDuration":94339,"Delta":143299404},{"NoteNumber":77,"Velocity":76,"Duration":94339,"SoundDuration":94339,"Delta":143299404},{"NoteNumber":62,"Velocity":54,"Duration":94339,"SoundDuration":94339,"Delta":143299404},{"NoteNumber":65,"Velocity":64,"Duration":94339,"SoundDuration":94339,"Delta":143299404},{"NoteNumber":77,"Velocity":70,"Duration":47169,"SoundDuration":47169,"Delta":143582423},{"NoteNumber":74,"Velocity":59,"Duration":47169,"SoundDuration":47169,"Delta":143582423},{"NoteNumber":62,"Velocity":50,"Duration":47169,"SoundDuration":47169,"Delta":143582423},{"NoteNumber":65,"Velocity":59,"Duration":47169,"SoundDuration":47169,"Delta":143582423},{"NoteNumber":73,"Velocity":63,"Duration":91463,"SoundDuration":91463,"Delta":143676762},{"NoteNumber":76,"Velocity":75,"Duration":91463,"SoundDuration":91463,"Delta":143676762},{"NoteNumber":61,"Velocity":54,"Duration":91463,"SoundDuration":91463,"Delta":143676762},{"NoteNumber":64,"Velocity":64,"Duration":91463,"SoundDuration":91463,"Delta":143676762},{"NoteNumber":74,"Velocity":59,"Duration":49668,"SoundDuration":49668,"Delta":143959027},{"NoteNumber":77,"Velocity":70,"Duration":49668,"SoundDuration":49668,"Delta":143959027},{"NoteNumber":62,"Velocity":51,"Duration":49668,"SoundDuration":49668,"Delta":143959027},{"NoteNumber":65,"Velocity":60,"Duration":49668,"SoundDuration":49668,"Delta":143959027},{"NoteNumber":70,"Velocity":64,"Duration":94043,"SoundDuration":94043,"Delta":144058365},{"NoteNumber":74,"Velocity":76,"Duration":94043,"SoundDuration":94043,"Delta":144058365},{"NoteNumber":58,"Velocity":54,"Duration":94043,"SoundDuration":94043,"Delta":144058365},{"NoteNumber":62,"Velocity":64,"Duration":94043,"SoundDuration":94043,"Delta":144058365},{"NoteNumber":74,"Velocity":70,"Duration":47021,"SoundDuration":47021,"Delta":144340497},{"NoteNumber":70,"Velocity":59,"Duration":47021,"SoundDuration":47021,"Delta":144340497},{"NoteNumber":58,"Velocity":50,"Duration":47021,"SoundDuration":47021,"Delta":144340497},{"NoteNumber":62,"Velocity":59,"Duration":47021,"SoundDuration":47021,"Delta":144340497},{"NoteNumber":73,"Velocity":75,"Duration":91185,"SoundDuration":91185,"Delta":144434541},{"NoteNumber":69,"Velocity":63,"Duration":91185,"SoundDuration":91185,"Delta":144434541},{"NoteNumber":57,"Velocity":54,"Duration":91185,"SoundDuration":91185,"Delta":144434541},{"NoteNumber":61,"Velocity":64,"Duration":91185,"SoundDuration":91185,"Delta":144434541},{"NoteNumber":74,"Velocity":70,"Duration":49668,"SoundDuration":49668,"Delta":144716250},{"NoteNumber":70,"Velocity":59,"Duration":49668,"SoundDuration":49668,"Delta":144716250},{"NoteNumber":58,"Velocity":51,"Duration":49668,"SoundDuration":49668,"Delta":144716250},{"NoteNumber":62,"Velocity":60,"Duration":49668,"SoundDuration":49668,"Delta":144716250},{"NoteNumber":70,"Velocity":76,"Duration":94637,"SoundDuration":94637,"Delta":144815395},{"NoteNumber":67,"Velocity":64,"Duration":94637,"SoundDuration":94637,"Delta":144815395},{"NoteNumber":55,"Velocity":54,"Duration":94637,"SoundDuration":94637,"Delta":144815395},{"NoteNumber":58,"Velocity":64,"Duration":94637,"SoundDuration":94637,"Delta":144815395},{"NoteNumber":67,"Velocity":59,"Duration":47318,"SoundDuration":47318,"Delta":145099307},{"NoteNumber":70,"Velocity":70,"Duration":47318,"SoundDuration":47318,"Delta":145099307},{"NoteNumber":58,"Velocity":59,"Duration":47318,"SoundDuration":47318,"Delta":145099307},{"NoteNumber":55,"Velocity":50,"Duration":47318,"SoundDuration":47318,"Delta":145099307},{"NoteNumber":69,"Velocity":75,"Duration":92307,"SoundDuration":92307,"Delta":145193944},{"NoteNumber":66,"Velocity":63,"Duration":92307,"SoundDuration":92307,"Delta":145193944},{"NoteNumber":57,"Velocity":64,"Duration":92307,"SoundDuration":92307,"Delta":145193944},{"NoteNumber":54,"Velocity":54,"Duration":92307,"SoundDuration":92307,"Delta":145193944},{"NoteNumber":70,"Velocity":70,"Duration":50335,"SoundDuration":50335,"Delta":145480040},{"NoteNumber":67,"Velocity":59,"Duration":50335,"SoundDuration":50335,"Delta":145480040},{"NoteNumber":58,"Velocity":60,"Duration":50335,"SoundDuration":50335,"Delta":145480040},{"NoteNumber":55,"Velocity":51,"Duration":50335,"SoundDuration":50335,"Delta":145480040},{"NoteNumber":67,"Velocity":80,"Duration":760621,"SoundDuration":760621,"Delta":145580711},{"NoteNumber":63,"Velocity":68,"Duration":784313,"SoundDuration":784313,"Delta":145580711},{"NoteNumber":51,"Velocity":57,"Duration":784313,"SoundDuration":784313,"Delta":145580711},{"NoteNumber":55,"Velocity":68,"Duration":760621,"SoundDuration":760621,"Delta":145580711},{"NoteNumber":67,"Velocity":74,"Duration":794314,"SoundDuration":794314,"Delta":146365025},{"NoteNumber":75,"Velocity":74,"Duration":794314,"SoundDuration":794314,"Delta":146365025},{"NoteNumber":79,"Velocity":88,"Duration":794314,"SoundDuration":794314,"Delta":146365025},{"NoteNumber":71,"Velocity":74,"Duration":794314,"SoundDuration":794314,"Delta":146365025},{"NoteNumber":38,"Velocity":57,"Duration":794314,"SoundDuration":794314,"Delta":146365025},{"NoteNumber":50,"Velocity":68,"Duration":794314,"SoundDuration":794314,"Delta":146365025},{"NoteNumber":75,"Velocity":74,"Duration":796980,"SoundDuration":796980,"Delta":147167701},{"NoteNumber":79,"Velocity":88,"Duration":796980,"SoundDuration":796980,"Delta":147167701},{"NoteNumber":67,"Velocity":74,"Duration":796980,"SoundDuration":796980,"Delta":147167701},{"NoteNumber":72,"Velocity":74,"Duration":796980,"SoundDuration":796980,"Delta":147167701},{"NoteNumber":36,"Velocity":57,"Duration":796980,"SoundDuration":796980,"Delta":147167701},{"NoteNumber":48,"Velocity":68,"Duration":796980,"SoundDuration":796980,"Delta":147167701},{"NoteNumber":74,"Velocity":74,"Duration":103092,"SoundDuration":103092,"Delta":147973071},{"NoteNumber":77,"Velocity":88,"Duration":103092,"SoundDuration":103092,"Delta":147973071},{"NoteNumber":65,"Velocity":74,"Duration":103092,"SoundDuration":103092,"Delta":147973071},{"NoteNumber":41,"Velocity":57,"Duration":103092,"SoundDuration":103092,"Delta":147973071},{"NoteNumber":53,"Velocity":68,"Duration":103092,"SoundDuration":103092,"Delta":147973071},{"NoteNumber":72,"Velocity":74,"Duration":109091,"SoundDuration":109091,"Delta":148385442},{"NoteNumber":69,"Velocity":74,"Duration":109091,"SoundDuration":109091,"Delta":148385442},{"NoteNumber":75,"Velocity":74,"Duration":109091,"SoundDuration":109091,"Delta":148385442},{"NoteNumber":81,"Velocity":88,"Duration":109091,"SoundDuration":109091,"Delta":148385442},{"NoteNumber":41,"Velocity":57,"Duration":109091,"SoundDuration":109091,"Delta":148385442},{"NoteNumber":53,"Velocity":68,"Duration":109091,"SoundDuration":109091,"Delta":148385442},{"NoteNumber":74,"Velocity":85,"Duration":839222,"SoundDuration":839222,"Delta":148821806},{"NoteNumber":70,"Velocity":85,"Duration":839222,"SoundDuration":839222,"Delta":148821806},{"NoteNumber":82,"Velocity":101,"Duration":839222,"SoundDuration":839222,"Delta":148821806},{"NoteNumber":34,"Velocity":57,"Duration":839222,"SoundDuration":839222,"Delta":148821806},{"NoteNumber":46,"Velocity":68,"Duration":839222,"SoundDuration":839222,"Delta":148821806},{"NoteNumber":58,"Velocity":74,"Duration":786678,"SoundDuration":786678,"Delta":149669862},{"NoteNumber":62,"Velocity":74,"Duration":786678,"SoundDuration":786678,"Delta":149669862},{"NoteNumber":70,"Velocity":88,"Duration":786678,"SoundDuration":786678,"Delta":149669862},{"NoteNumber":46,"Velocity":57,"Duration":786678,"SoundDuration":786678,"Delta":149669862},{"NoteNumber":53,"Velocity":68,"Duration":786678,"SoundDuration":786678,"Delta":149669862},{"NoteNumber":74,"Velocity":47,"Duration":48387,"SoundDuration":48387,"Delta":150480672},{"NoteNumber":77,"Velocity":56,"Duration":48387,"SoundDuration":48387,"Delta":150480672},{"NoteNumber":74,"Velocity":51,"Duration":94339,"SoundDuration":94339,"Delta":150577446},{"NoteNumber":77,"Velocity":60,"Duration":94339,"SoundDuration":94339,"Delta":150577446},{"NoteNumber":74,"Velocity":47,"Duration":47169,"SoundDuration":47169,"Delta":150860465},{"NoteNumber":77,"Velocity":56,"Duration":47169,"SoundDuration":47169,"Delta":150860465},{"NoteNumber":73,"Velocity":50,"Duration":92024,"SoundDuration":92024,"Delta":150954804},{"NoteNumber":76,"Velocity":60,"Duration":92024,"SoundDuration":92024,"Delta":150954804},{"NoteNumber":74,"Velocity":47,"Duration":55350,"SoundDuration":55350,"Delta":151249554},{"NoteNumber":77,"Velocity":56,"Duration":55350,"SoundDuration":55350,"Delta":151249554},{"NoteNumber":70,"Velocity":51,"Duration":869156,"SoundDuration":869156,"Delta":151360255},{"NoteNumber":74,"Velocity":60,"Duration":869156,"SoundDuration":869156,"Delta":151360255},{"NoteNumber":46,"Velocity":55,"Duration":202020,"SoundDuration":202020,"Delta":151360255},{"NoteNumber":53,"Velocity":42,"Duration":232558,"SoundDuration":232558,"Delta":151764295},{"NoteNumber":70,"Velocity":51,"Duration":712411,"SoundDuration":712411,"Delta":152229411},{"NoteNumber":74,"Velocity":60,"Duration":712411,"SoundDuration":712411,"Delta":152229411},{"NoteNumber":62,"Velocity":42,"Duration":209789,"SoundDuration":209789,"Delta":152229411},{"NoteNumber":58,"Velocity":35,"Duration":209789,"SoundDuration":209789,"Delta":152229411},{"NoteNumber":46,"Velocity":55,"Duration":209789,"SoundDuration":209789,"Delta":152648991},{"NoteNumber":70,"Velocity":47,"Duration":48387,"SoundDuration":48387,"Delta":152963676},{"NoteNumber":74,"Velocity":56,"Duration":48387,"SoundDuration":48387,"Delta":152963676},{"NoteNumber":70,"Velocity":51,"Duration":94339,"SoundDuration":94339,"Delta":153060450},{"NoteNumber":74,"Velocity":60,"Duration":94339,"SoundDuration":94339,"Delta":153060450},{"NoteNumber":53,"Velocity":42,"Duration":188679,"SoundDuration":188679,"Delta":153060450},{"NoteNumber":70,"Velocity":47,"Duration":47169,"SoundDuration":47169,"Delta":153343469},{"NoteNumber":74,"Velocity":56,"Duration":47169,"SoundDuration":47169,"Delta":153343469},{"NoteNumber":69,"Velocity":50,"Duration":92024,"SoundDuration":92024,"Delta":153437808},{"NoteNumber":73,"Velocity":60,"Duration":92024,"SoundDuration":92024,"Delta":153437808},{"NoteNumber":58,"Velocity":35,"Duration":184048,"SoundDuration":184048,"Delta":153437808},{"NoteNumber":62,"Velocity":42,"Duration":184048,"SoundDuration":184048,"Delta":153437808},{"NoteNumber":70,"Velocity":47,"Duration":57915,"SoundDuration":57915,"Delta":153737687},{"NoteNumber":74,"Velocity":56,"Duration":57915,"SoundDuration":57915,"Delta":153737687},{"NoteNumber":74,"Velocity":51,"Duration":869156,"SoundDuration":869156,"Delta":153853517},{"NoteNumber":77,"Velocity":60,"Duration":869156,"SoundDuration":869156,"Delta":153853517},{"NoteNumber":45,"Velocity":55,"Duration":202020,"SoundDuration":202020,"Delta":153853517},{"NoteNumber":53,"Velocity":42,"Duration":232558,"SoundDuration":232558,"Delta":154257557},{"NoteNumber":72,"Velocity":51,"Duration":712411,"SoundDuration":712411,"Delta":154722673},{"NoteNumber":75,"Velocity":60,"Duration":712411,"SoundDuration":712411,"Delta":154722673},{"NoteNumber":63,"Velocity":42,"Duration":209789,"SoundDuration":209789,"Delta":154722673},{"NoteNumber":60,"Velocity":35,"Duration":209789,"SoundDuration":209789,"Delta":154722673},{"NoteNumber":45,"Velocity":55,"Duration":209789,"SoundDuration":209789,"Delta":155142253},{"NoteNumber":77,"Velocity":47,"Duration":48387,"SoundDuration":48387,"Delta":155456938},{"NoteNumber":72,"Velocity":47,"Duration":48387,"SoundDuration":48387,"Delta":155456938},{"NoteNumber":75,"Velocity":56,"Duration":48387,"SoundDuration":48387,"Delta":155456938},{"NoteNumber":77,"Velocity":51,"Duration":92879,"SoundDuration":92879,"Delta":155553713},{"NoteNumber":72,"Velocity":51,"Duration":92879,"SoundDuration":92879,"Delta":155553713},{"NoteNumber":75,"Velocity":60,"Duration":92879,"SoundDuration":92879,"Delta":155553713},{"NoteNumber":53,"Velocity":42,"Duration":185758,"SoundDuration":185758,"Delta":155553713},{"NoteNumber":77,"Velocity":47,"Duration":46439,"SoundDuration":46439,"Delta":155832350},{"NoteNumber":72,"Velocity":47,"Duration":46439,"SoundDuration":46439,"Delta":155832350},{"NoteNumber":75,"Velocity":56,"Duration":46439,"SoundDuration":46439,"Delta":155832350},{"NoteNumber":77,"Velocity":50,"Duration":90634,"SoundDuration":90634,"Delta":155925230},{"NoteNumber":71,"Velocity":50,"Duration":90634,"SoundDuration":90634,"Delta":155925230},{"NoteNumber":74,"Velocity":60,"Duration":90634,"SoundDuration":90634,"Delta":155925230},{"NoteNumber":60,"Velocity":35,"Duration":181268,"SoundDuration":181268,"Delta":155925230},{"NoteNumber":63,"Velocity":42,"Duration":181268,"SoundDuration":181268,"Delta":155925230},{"NoteNumber":77,"Velocity":56,"Duration":55350,"SoundDuration":55350,"Delta":156217200},{"NoteNumber":72,"Velocity":47,"Duration":55350,"SoundDuration":55350,"Delta":156217200},{"NoteNumber":75,"Velocity":56,"Duration":55350,"SoundDuration":55350,"Delta":156217200},{"NoteNumber":69,"Velocity":51,"Duration":835358,"SoundDuration":835358,"Delta":156327901},{"NoteNumber":72,"Velocity":51,"Duration":835358,"SoundDuration":835358,"Delta":156327901},{"NoteNumber":77,"Velocity":60,"Duration":835358,"SoundDuration":835358,"Delta":156327901},{"NoteNumber":41,"Velocity":55,"Duration":202020,"SoundDuration":202020,"Delta":156327901},{"NoteNumber":53,"Velocity":42,"Duration":219779,"SoundDuration":219779,"Delta":156731941},{"NoteNumber":69,"Velocity":51,"Duration":712411,"SoundDuration":712411,"Delta":157171501},{"NoteNumber":72,"Velocity":51,"Duration":712411,"SoundDuration":712411,"Delta":157171501},{"NoteNumber":77,"Velocity":60,"Duration":712411,"SoundDuration":712411,"Delta":157171501},{"NoteNumber":63,"Velocity":42,"Duration":209789,"SoundDuration":209789,"Delta":157171501},{"NoteNumber":60,"Velocity":35,"Duration":209789,"SoundDuration":209789,"Delta":157171501},{"NoteNumber":41,"Velocity":55,"Duration":209789,"SoundDuration":209789,"Delta":157591081},{"NoteNumber":77,"Velocity":47,"Duration":48387,"SoundDuration":48387,"Delta":157905766},{"NoteNumber":69,"Velocity":47,"Duration":48387,"SoundDuration":48387,"Delta":157905766},{"NoteNumber":72,"Velocity":56,"Duration":48387,"SoundDuration":48387,"Delta":157905766},{"NoteNumber":69,"Velocity":51,"Duration":94339,"SoundDuration":94339,"Delta":158002540},{"NoteNumber":77,"Velocity":51,"Duration":94339,"SoundDuration":94339,"Delta":158002540},{"NoteNumber":72,"Velocity":60,"Duration":94339,"SoundDuration":94339,"Delta":158002540},{"NoteNumber":53,"Velocity":42,"Duration":188679,"SoundDuration":188679,"Delta":158002540},{"NoteNumber":72,"Velocity":56,"Duration":47169,"SoundDuration":47169,"Delta":158285558},{"NoteNumber":77,"Velocity":47,"Duration":47169,"SoundDuration":47169,"Delta":158285558},{"NoteNumber":69,"Velocity":47,"Duration":47169,"SoundDuration":47169,"Delta":158285558},{"NoteNumber":71,"Velocity":60,"Duration":92024,"SoundDuration":92024,"Delta":158379898},{"NoteNumber":77,"Velocity":50,"Duration":92024,"SoundDuration":92024,"Delta":158379898},{"NoteNumber":68,"Velocity":50,"Duration":92024,"SoundDuration":92024,"Delta":158379898},{"NoteNumber":60,"Velocity":35,"Duration":184048,"SoundDuration":184048,"Delta":158379898},{"NoteNumber":63,"Velocity":42,"Duration":184048,"SoundDuration":184048,"Delta":158379898},{"NoteNumber":72,"Velocity":56,"Duration":67567,"SoundDuration":67567,"Delta":158699082},{"NoteNumber":77,"Velocity":56,"Duration":67567,"SoundDuration":67567,"Delta":158699082},{"NoteNumber":69,"Velocity":47,"Duration":67567,"SoundDuration":67567,"Delta":158699082},{"NoteNumber":69,"Velocity":45,"Duration":899720,"SoundDuration":899720,"Delta":158834217},{"NoteNumber":73,"Velocity":45,"Duration":898740,"SoundDuration":898740,"Delta":158834217},{"NoteNumber":77,"Velocity":54,"Duration":899720,"SoundDuration":899720,"Delta":158834217},{"NoteNumber":46,"Velocity":49,"Duration":218977,"SoundDuration":218977,"Delta":158834217},{"NoteNumber":53,"Velocity":37,"Duration":235294,"SoundDuration":235294,"Delta":159272173},{"NoteNumber":70,"Velocity":45,"Duration":712411,"SoundDuration":712411,"Delta":159742761},{"NoteNumber":74,"Velocity":45,"Duration":712411,"SoundDuration":712411,"Delta":159742761},{"NoteNumber":77,"Velocity":54,"Duration":712411,"SoundDuration":712411,"Delta":159742761},{"NoteNumber":62,"Velocity":37,"Duration":209789,"SoundDuration":209789,"Delta":159742761},{"NoteNumber":58,"Velocity":31,"Duration":209789,"SoundDuration":209789,"Delta":159742761},{"NoteNumber":46,"Velocity":55,"Duration":209789,"SoundDuration":209789,"Delta":160162341},{"NoteNumber":74,"Velocity":47,"Duration":48387,"SoundDuration":48387,"Delta":160477026},{"NoteNumber":70,"Velocity":47,"Duration":48387,"SoundDuration":48387,"Delta":160477026},{"NoteNumber":77,"Velocity":56,"Duration":48387,"SoundDuration":48387,"Delta":160477026},{"NoteNumber":74,"Velocity":51,"Duration":94339,"SoundDuration":94339,"Delta":160573801},{"NoteNumber":70,"Velocity":51,"Duration":94339,"SoundDuration":94339,"Delta":160573801},{"NoteNumber":77,"Velocity":60,"Duration":94339,"SoundDuration":94339,"Delta":160573801},{"NoteNumber":53,"Velocity":37,"Duration":188679,"SoundDuration":188679,"Delta":160573801},{"NoteNumber":77,"Velocity":57,"Duration":47169,"SoundDuration":47169,"Delta":160856819},{"NoteNumber":70,"Velocity":48,"Duration":47169,"SoundDuration":47169,"Delta":160856819},{"NoteNumber":74,"Velocity":48,"Duration":47169,"SoundDuration":47169,"Delta":160856819},{"NoteNumber":70,"Velocity":52,"Duration":92024,"SoundDuration":92024,"Delta":160951159},{"NoteNumber":74,"Velocity":52,"Duration":92024,"SoundDuration":92024,"Delta":160951159},{"NoteNumber":76,"Velocity":63,"Duration":92024,"SoundDuration":92024,"Delta":160951159},{"NoteNumber":62,"Velocity":38,"Duration":184048,"SoundDuration":184048,"Delta":160951159},{"NoteNumber":58,"Velocity":32,"Duration":184048,"SoundDuration":184048,"Delta":160951159},{"NoteNumber":70,"Velocity":50,"Duration":55350,"SoundDuration":55350,"Delta":161245909},{"NoteNumber":74,"Velocity":50,"Duration":55350,"SoundDuration":55350,"Delta":161245909},{"NoteNumber":77,"Velocity":60,"Duration":55350,"SoundDuration":55350,"Delta":161245909},{"NoteNumber":70,"Velocity":56,"Duration":860435,"SoundDuration":860435,"Delta":161356610},{"NoteNumber":74,"Velocity":56,"Duration":860435,"SoundDuration":860435,"Delta":161356610},{"NoteNumber":79,"Velocity":66,"Duration":860435,"SoundDuration":860435,"Delta":161356610},{"NoteNumber":43,"Velocity":60,"Duration":202020,"SoundDuration":202020,"Delta":161356610},{"NoteNumber":55,"Velocity":46,"Duration":232558,"SoundDuration":232558,"Delta":161760650},{"NoteNumber":70,"Velocity":56,"Duration":706395,"SoundDuration":706395,"Delta":162225766},{"NoteNumber":74,"Velocity":56,"Duration":706395,"SoundDuration":706395,"Delta":162225766},{"NoteNumber":79,"Velocity":66,"Duration":706395,"SoundDuration":706395,"Delta":162225766},{"NoteNumber":62,"Velocity":46,"Duration":209789,"SoundDuration":209789,"Delta":162225766},{"NoteNumber":58,"Velocity":38,"Duration":209789,"SoundDuration":209789,"Delta":162225766},{"NoteNumber":43,"Velocity":55,"Duration":205479,"SoundDuration":205479,"Delta":162645346},{"NoteNumber":79,"Velocity":61,"Duration":48387,"SoundDuration":48387,"Delta":162953565},{"NoteNumber":74,"Velocity":51,"Duration":48387,"SoundDuration":48387,"Delta":162953565},{"NoteNumber":70,"Velocity":51,"Duration":48387,"SoundDuration":48387,"Delta":162953565},{"NoteNumber":79,"Velocity":66,"Duration":94339,"SoundDuration":94339,"Delta":163050339},{"NoteNumber":74,"Velocity":56,"Duration":94339,"SoundDuration":94339,"Delta":163050339},{"NoteNumber":70,"Velocity":56,"Duration":94339,"SoundDuration":94339,"Delta":163050339},{"NoteNumber":55,"Velocity":46,"Duration":188679,"SoundDuration":188679,"Delta":163050339},{"NoteNumber":82,"Velocity":60,"Duration":47169,"SoundDuration":47169,"Delta":163333358},{"NoteNumber":74,"Velocity":50,"Duration":47169,"SoundDuration":47169,"Delta":163333358},{"NoteNumber":70,"Velocity":50,"Duration":47169,"SoundDuration":47169,"Delta":163333358},{"NoteNumber":74,"Velocity":54,"Duration":92024,"SoundDuration":92024,"Delta":163427697},{"NoteNumber":70,"Velocity":54,"Duration":92024,"SoundDuration":92024,"Delta":163427697},{"NoteNumber":81,"Velocity":64,"Duration":92024,"SoundDuration":92024,"Delta":163427697},{"NoteNumber":58,"Velocity":37,"Duration":184048,"SoundDuration":184048,"Delta":163427697},{"NoteNumber":62,"Velocity":45,"Duration":184048,"SoundDuration":184048,"Delta":163427697},{"NoteNumber":74,"Velocity":49,"Duration":55350,"SoundDuration":55350,"Delta":163722447},{"NoteNumber":70,"Velocity":49,"Duration":55350,"SoundDuration":55350,"Delta":163722447},{"NoteNumber":79,"Velocity":59,"Duration":55350,"SoundDuration":55350,"Delta":163722447},{"NoteNumber":77,"Velocity":60,"Duration":860435,"SoundDuration":860435,"Delta":163833148},{"NoteNumber":70,"Velocity":51,"Duration":860435,"SoundDuration":860435,"Delta":163833148},{"NoteNumber":74,"Velocity":51,"Duration":860435,"SoundDuration":860435,"Delta":163833148},{"NoteNumber":46,"Velocity":55,"Duration":202020,"SoundDuration":202020,"Delta":163833148},{"NoteNumber":53,"Velocity":42,"Duration":232558,"SoundDuration":232558,"Delta":164237188},{"NoteNumber":74,"Velocity":51,"Duration":712411,"SoundDuration":712411,"Delta":164702304},{"NoteNumber":70,"Velocity":60,"Duration":712411,"SoundDuration":712411,"Delta":164702304},{"NoteNumber":77,"Velocity":60,"Duration":712411,"SoundDuration":712411,"Delta":164702304},{"NoteNumber":62,"Velocity":42,"Duration":209789,"SoundDuration":209789,"Delta":164702304},{"NoteNumber":58,"Velocity":35,"Duration":209789,"SoundDuration":209789,"Delta":164702304},{"NoteNumber":46,"Velocity":55,"Duration":209789,"SoundDuration":209789,"Delta":165121884},{"NoteNumber":77,"Velocity":47,"Duration":48387,"SoundDuration":48387,"Delta":165436569},{"NoteNumber":70,"Velocity":47,"Duration":48387,"SoundDuration":48387,"Delta":165436569},{"NoteNumber":74,"Velocity":56,"Duration":48387,"SoundDuration":48387,"Delta":165436569},{"NoteNumber":77,"Velocity":51,"Duration":94339,"SoundDuration":94339,"Delta":165533343},{"NoteNumber":70,"Velocity":51,"Duration":94339,"SoundDuration":94339,"Delta":165533343},{"NoteNumber":74,"Velocity":60,"Duration":94339,"SoundDuration":94339,"Delta":165533343},{"NoteNumber":53,"Velocity":42,"Duration":188679,"SoundDuration":188679,"Delta":165533343},{"NoteNumber":77,"Velocity":47,"Duration":47169,"SoundDuration":47169,"Delta":165816362},{"NoteNumber":70,"Velocity":47,"Duration":47169,"SoundDuration":47169,"Delta":165816362},{"NoteNumber":74,"Velocity":56,"Duration":47169,"SoundDuration":47169,"Delta":165816362},{"NoteNumber":79,"Velocity":50,"Duration":92024,"SoundDuration":92024,"Delta":165910701},{"NoteNumber":70,"Velocity":50,"Duration":92024,"SoundDuration":92024,"Delta":165910701},{"NoteNumber":75,"Velocity":60,"Duration":92024,"SoundDuration":92024,"Delta":165910701},{"NoteNumber":62,"Velocity":42,"Duration":184048,"SoundDuration":184048,"Delta":165910701},{"NoteNumber":58,"Velocity":35,"Duration":184048,"SoundDuration":184048,"Delta":165910701},{"NoteNumber":77,"Velocity":56,"Duration":55350,"SoundDuration":55350,"Delta":166205451},{"NoteNumber":70,"Velocity":47,"Duration":55350,"SoundDuration":55350,"Delta":166205451},{"NoteNumber":74,"Velocity":56,"Duration":55350,"SoundDuration":55350,"Delta":166205451},{"NoteNumber":69,"Velocity":51,"Duration":869156,"SoundDuration":869156,"Delta":166316152},{"NoteNumber":72,"Velocity":51,"Duration":869156,"SoundDuration":869156,"Delta":166316152},{"NoteNumber":77,"Velocity":60,"Duration":869156,"SoundDuration":869156,"Delta":166316152},{"NoteNumber":41,"Velocity":55,"Duration":202020,"SoundDuration":202020,"Delta":166316152},{"NoteNumber":53,"Velocity":42,"Duration":232558,"SoundDuration":232558,"Delta":166720192},{"NoteNumber":69,"Velocity":48,"Duration":712411,"SoundDuration":712411,"Delta":167185308},{"NoteNumber":72,"Velocity":48,"Duration":712411,"SoundDuration":712411,"Delta":167185308},{"NoteNumber":75,"Velocity":57,"Duration":712411,"SoundDuration":712411,"Delta":167185308},{"NoteNumber":60,"Velocity":33,"Duration":209789,"SoundDuration":209789,"Delta":167185308},{"NoteNumber":63,"Velocity":39,"Duration":209789,"SoundDuration":209789,"Delta":167185308},{"NoteNumber":41,"Velocity":52,"Duration":209789,"SoundDuration":209789,"Delta":167604888},{"NoteNumber":75,"Velocity":44,"Duration":49668,"SoundDuration":49668,"Delta":167919573},{"NoteNumber":65,"Velocity":44,"Duration":49668,"SoundDuration":49668,"Delta":167919573},{"NoteNumber":72,"Velocity":53,"Duration":49668,"SoundDuration":49668,"Delta":167919573},{"NoteNumber":75,"Velocity":48,"Duration":96462,"SoundDuration":96462,"Delta":168018911},{"NoteNumber":65,"Velocity":48,"Duration":96462,"SoundDuration":96462,"Delta":168018911},{"NoteNumber":72,"Velocity":57,"Duration":96462,"SoundDuration":96462,"Delta":168018911},{"NoteNumber":53,"Velocity":39,"Duration":192925,"SoundDuration":192925,"Delta":168018911},{"NoteNumber":75,"Velocity":44,"Duration":48231,"SoundDuration":48231,"Delta":168308300},{"NoteNumber":65,"Velocity":44,"Duration":48231,"SoundDuration":48231,"Delta":168308300},{"NoteNumber":72,"Velocity":53,"Duration":48231,"SoundDuration":48231,"Delta":168308300},{"NoteNumber":74,"Velocity":47,"Duration":94339,"SoundDuration":94339,"Delta":168404763},{"NoteNumber":65,"Velocity":47,"Duration":94339,"SoundDuration":94339,"Delta":168404763},{"NoteNumber":71,"Velocity":57,"Duration":94339,"SoundDuration":94339,"Delta":168404763},{"NoteNumber":63,"Velocity":39,"Duration":188679,"SoundDuration":188679,"Delta":168404763},{"NoteNumber":60,"Velocity":33,"Duration":188679,"SoundDuration":188679,"Delta":168404763},{"NoteNumber":72,"Velocity":53,"Duration":63829,"SoundDuration":63829,"Delta":168721102},{"NoteNumber":65,"Velocity":44,"Duration":63829,"SoundDuration":63829,"Delta":168721102},{"NoteNumber":69,"Velocity":53,"Duration":63829,"SoundDuration":63829,"Delta":168721102},{"NoteNumber":62,"Velocity":40,"Duration":914553,"SoundDuration":914553,"Delta":168848761},{"NoteNumber":65,"Velocity":40,"Duration":914553,"SoundDuration":914553,"Delta":168848761},{"NoteNumber":70,"Velocity":48,"Duration":914553,"SoundDuration":914553,"Delta":168848761},{"NoteNumber":46,"Velocity":44,"Duration":224718,"SoundDuration":224718,"Delta":168848761},{"NoteNumber":50,"Velocity":33,"Duration":232558,"SoundDuration":232558,"Delta":169298199},{"NoteNumber":62,"Velocity":40,"Duration":712411,"SoundDuration":712411,"Delta":169763315},{"NoteNumber":65,"Velocity":40,"Duration":712411,"SoundDuration":712411,"Delta":169763315},{"NoteNumber":70,"Velocity":48,"Duration":712411,"SoundDuration":712411,"Delta":169763315},{"NoteNumber":58,"Velocity":33,"Duration":209789,"SoundDuration":209789,"Delta":169763315},{"NoteNumber":53,"Velocity":27,"Duration":209789,"SoundDuration":209789,"Delta":169763315},{"NoteNumber":41,"Velocity":49,"Duration":209789,"SoundDuration":209789,"Delta":170182895},{"NoteNumber":75,"Velocity":39,"Duration":50335,"SoundDuration":50335,"Delta":170497580},{"NoteNumber":65,"Velocity":39,"Duration":50335,"SoundDuration":50335,"Delta":170497580},{"NoteNumber":72,"Velocity":47,"Duration":50335,"SoundDuration":50335,"Delta":170497580},{"NoteNumber":75,"Velocity":43,"Duration":98039,"SoundDuration":98039,"Delta":170598251},{"NoteNumber":65,"Velocity":43,"Duration":98039,"SoundDuration":98039,"Delta":170598251},{"NoteNumber":72,"Velocity":51,"Duration":98039,"SoundDuration":98039,"Delta":170598251},{"NoteNumber":51,"Velocity":35,"Duration":196078,"SoundDuration":196078,"Delta":170598251},{"NoteNumber":75,"Velocity":39,"Duration":49019,"SoundDuration":49019,"Delta":170892369},{"NoteNumber":65,"Velocity":39,"Duration":49019,"SoundDuration":49019,"Delta":170892369},{"NoteNumber":72,"Velocity":47,"Duration":49019,"SoundDuration":49019,"Delta":170892369},{"NoteNumber":74,"Velocity":42,"Duration":96153,"SoundDuration":96153,"Delta":170990408},{"NoteNumber":65,"Velocity":42,"Duration":96153,"SoundDuration":96153,"Delta":170990408},{"NoteNumber":70,"Velocity":51,"Duration":96153,"SoundDuration":96153,"Delta":170990408},{"NoteNumber":57,"Velocity":35,"Duration":192307,"SoundDuration":192307,"Delta":170990408},{"NoteNumber":53,"Velocity":29,"Duration":192307,"SoundDuration":192307,"Delta":170990408},{"NoteNumber":72,"Velocity":47,"Duration":63829,"SoundDuration":63829,"Delta":171310375},{"NoteNumber":65,"Velocity":39,"Duration":63829,"SoundDuration":63829,"Delta":171310375},{"NoteNumber":69,"Velocity":47,"Duration":63829,"SoundDuration":63829,"Delta":171310375},{"NoteNumber":62,"Velocity":38,"Duration":914553,"SoundDuration":914553,"Delta":171438035},{"NoteNumber":70,"Velocity":45,"Duration":914553,"SoundDuration":914553,"Delta":171438035},{"NoteNumber":65,"Velocity":38,"Duration":914553,"SoundDuration":914553,"Delta":171438035},{"NoteNumber":46,"Velocity":41,"Duration":224718,"SoundDuration":224718,"Delta":171438035},{"NoteNumber":50,"Velocity":31,"Duration":232558,"SoundDuration":232558,"Delta":171887473},{"NoteNumber":62,"Velocity":38,"Duration":712411,"SoundDuration":712411,"Delta":172352589},{"NoteNumber":70,"Velocity":45,"Duration":712411,"SoundDuration":712411,"Delta":172352589},{"NoteNumber":65,"Velocity":38,"Duration":712411,"SoundDuration":712411,"Delta":172352589},{"NoteNumber":58,"Velocity":31,"Duration":209789,"SoundDuration":209789,"Delta":172352589},{"NoteNumber":53,"Velocity":25,"Duration":209789,"SoundDuration":209789,"Delta":172352589},{"NoteNumber":41,"Velocity":46,"Duration":209789,"SoundDuration":209789,"Delta":172772169},{"NoteNumber":65,"Velocity":35,"Duration":51903,"SoundDuration":51903,"Delta":173086854},{"NoteNumber":75,"Velocity":35,"Duration":51903,"SoundDuration":51903,"Delta":173086854},{"NoteNumber":72,"Velocity":42,"Duration":51903,"SoundDuration":51903,"Delta":173086854},{"NoteNumber":75,"Velocity":38,"Duration":100671,"SoundDuration":100671,"Delta":173190660},{"NoteNumber":65,"Velocity":38,"Duration":100671,"SoundDuration":100671,"Delta":173190660},{"NoteNumber":72,"Velocity":45,"Duration":100671,"SoundDuration":100671,"Delta":173190660},{"NoteNumber":51,"Velocity":31,"Duration":201342,"SoundDuration":201342,"Delta":173190660},{"NoteNumber":65,"Velocity":34,"Duration":50335,"SoundDuration":50335,"Delta":173492674},{"NoteNumber":72,"Velocity":41,"Duration":50335,"SoundDuration":50335,"Delta":173492674},{"NoteNumber":75,"Velocity":34,"Duration":50335,"SoundDuration":50335,"Delta":173492674},{"NoteNumber":65,"Velocity":36,"Duration":98360,"SoundDuration":98360,"Delta":173593345},{"NoteNumber":70,"Velocity":44,"Duration":98360,"SoundDuration":98360,"Delta":173593345},{"NoteNumber":74,"Velocity":36,"Duration":98360,"SoundDuration":98360,"Delta":173593345},{"NoteNumber":57,"Velocity":30,"Duration":196721,"SoundDuration":196721,"Delta":173593345},{"NoteNumber":53,"Velocity":25,"Duration":196721,"SoundDuration":196721,"Delta":173593345},{"NoteNumber":69,"Velocity":39,"Duration":63829,"SoundDuration":63829,"Delta":173917726},{"NoteNumber":72,"Velocity":39,"Duration":63829,"SoundDuration":63829,"Delta":173917726},{"NoteNumber":65,"Velocity":33,"Duration":63829,"SoundDuration":63829,"Delta":173917726},{"NoteNumber":62,"Velocity":31,"Duration":327715,"SoundDuration":327715,"Delta":174045386},{"NoteNumber":70,"Velocity":37,"Duration":327715,"SoundDuration":327715,"Delta":174045386},{"NoteNumber":65,"Velocity":31,"Duration":327715,"SoundDuration":327715,"Delta":174045386},{"NoteNumber":46,"Velocity":34,"Duration":327715,"SoundDuration":327715,"Delta":174045386},{"NoteNumber":46,"Velocity":70,"Duration":48387,"SoundDuration":48387,"Delta":174382464},{"NoteNumber":34,"Velocity":60,"Duration":48387,"SoundDuration":48387,"Delta":174382464},{"NoteNumber":46,"Velocity":76,"Duration":96774,"SoundDuration":96774,"Delta":174479238},{"NoteNumber":34,"Velocity":64,"Duration":96774,"SoundDuration":96774,"Delta":174479238},{"NoteNumber":46,"Velocity":70,"Duration":46012,"SoundDuration":46012,"Delta":174764811},{"NoteNumber":34,"Velocity":59,"Duration":46012,"SoundDuration":46012,"Delta":174764811},{"NoteNumber":46,"Velocity":75,"Duration":90634,"SoundDuration":90634,"Delta":174856836},{"NoteNumber":34,"Velocity":64,"Duration":90634,"SoundDuration":90634,"Delta":174856836},{"NoteNumber":48,"Velocity":70,"Duration":46728,"SoundDuration":46728,"Delta":175131563},{"NoteNumber":36,"Velocity":60,"Duration":46728,"SoundDuration":46728,"Delta":175131563},{"NoteNumber":50,"Velocity":75,"Duration":286885,"SoundDuration":286885,"Delta":175225021},{"NoteNumber":38,"Velocity":67,"Duration":286885,"SoundDuration":286885,"Delta":175225021},{"NoteNumber":62,"Velocity":70,"Duration":48387,"SoundDuration":48387,"Delta":175520103},{"NoteNumber":50,"Velocity":59,"Duration":48387,"SoundDuration":48387,"Delta":175520103},{"NoteNumber":38,"Velocity":60,"Duration":48387,"SoundDuration":48387,"Delta":175520103},{"NoteNumber":50,"Velocity":64,"Duration":96774,"SoundDuration":96774,"Delta":175616877},{"NoteNumber":62,"Velocity":76,"Duration":96774,"SoundDuration":96774,"Delta":175616877},{"NoteNumber":38,"Velocity":64,"Duration":96774,"SoundDuration":96774,"Delta":175616877},{"NoteNumber":62,"Velocity":70,"Duration":46012,"SoundDuration":46012,"Delta":175902450},{"NoteNumber":50,"Velocity":59,"Duration":46012,"SoundDuration":46012,"Delta":175902450},{"NoteNumber":38,"Velocity":59,"Duration":46012,"SoundDuration":46012,"Delta":175902450},{"NoteNumber":50,"Velocity":63,"Duration":90634,"SoundDuration":90634,"Delta":175994475},{"NoteNumber":62,"Velocity":75,"Duration":90634,"SoundDuration":90634,"Delta":175994475},{"NoteNumber":38,"Velocity":64,"Duration":90634,"SoundDuration":90634,"Delta":175994475},{"NoteNumber":52,"Velocity":59,"Duration":47169,"SoundDuration":47169,"Delta":176270083},{"NoteNumber":64,"Velocity":70,"Duration":47169,"SoundDuration":47169,"Delta":176270083},{"NoteNumber":40,"Velocity":60,"Duration":47169,"SoundDuration":47169,"Delta":176270083},{"NoteNumber":65,"Velocity":82,"Duration":286885,"SoundDuration":286885,"Delta":176364423},{"NoteNumber":53,"Velocity":69,"Duration":295082,"SoundDuration":295082,"Delta":176364423},{"NoteNumber":41,"Velocity":73,"Duration":286885,"SoundDuration":286885,"Delta":176364423},{"NoteNumber":53,"Velocity":77,"Duration":48387,"SoundDuration":48387,"Delta":176659505},{"NoteNumber":41,"Velocity":66,"Duration":48387,"SoundDuration":48387,"Delta":176659505},{"NoteNumber":53,"Velocity":83,"Duration":96774,"SoundDuration":96774,"Delta":176756279},{"NoteNumber":41,"Velocity":70,"Duration":96774,"SoundDuration":96774,"Delta":176756279},{"NoteNumber":53,"Velocity":77,"Duration":46153,"SoundDuration":46153,"Delta":177042136},{"NoteNumber":41,"Velocity":64,"Duration":46153,"SoundDuration":46153,"Delta":177042136},{"NoteNumber":53,"Velocity":82,"Duration":90634,"SoundDuration":90634,"Delta":177134443},{"NoteNumber":41,"Velocity":70,"Duration":90634,"SoundDuration":90634,"Delta":177134443},{"NoteNumber":55,"Velocity":77,"Duration":47169,"SoundDuration":47169,"Delta":177410052},{"NoteNumber":43,"Velocity":66,"Duration":47169,"SoundDuration":47169,"Delta":177410052},{"NoteNumber":57,"Velocity":90,"Duration":286885,"SoundDuration":286885,"Delta":177504391},{"NoteNumber":45,"Velocity":80,"Duration":286885,"SoundDuration":286885,"Delta":177504391},{"NoteNumber":69,"Velocity":71,"Duration":48387,"SoundDuration":48387,"Delta":177799474},{"NoteNumber":57,"Velocity":60,"Duration":48387,"SoundDuration":48387,"Delta":177799474},{"NoteNumber":33,"Velocity":52,"Duration":48387,"SoundDuration":48387,"Delta":177799474},{"NoteNumber":45,"Velocity":61,"Duration":48387,"SoundDuration":48387,"Delta":177799474},{"NoteNumber":57,"Velocity":65,"Duration":96774,"SoundDuration":96774,"Delta":177896248},{"NoteNumber":69,"Velocity":78,"Duration":96774,"SoundDuration":96774,"Delta":177896248},{"NoteNumber":33,"Velocity":55,"Duration":96774,"SoundDuration":96774,"Delta":177896248},{"NoteNumber":45,"Velocity":65,"Duration":96774,"SoundDuration":96774,"Delta":177896248},{"NoteNumber":59,"Velocity":61,"Duration":46583,"SoundDuration":46583,"Delta":178182964},{"NoteNumber":71,"Velocity":73,"Duration":46583,"SoundDuration":46583,"Delta":178182964},{"NoteNumber":35,"Velocity":52,"Duration":46583,"SoundDuration":46583,"Delta":178182964},{"NoteNumber":47,"Velocity":61,"Duration":46583,"SoundDuration":46583,"Delta":178182964},{"NoteNumber":73,"Velocity":79,"Duration":90634,"SoundDuration":90634,"Delta":178276132},{"NoteNumber":61,"Velocity":66,"Duration":90634,"SoundDuration":90634,"Delta":178276132},{"NoteNumber":37,"Velocity":57,"Duration":90634,"SoundDuration":90634,"Delta":178276132},{"NoteNumber":49,"Velocity":67,"Duration":90634,"SoundDuration":90634,"Delta":178276132},{"NoteNumber":62,"Velocity":64,"Duration":47169,"SoundDuration":47169,"Delta":178551740},{"NoteNumber":74,"Velocity":76,"Duration":47169,"SoundDuration":47169,"Delta":178551740},{"NoteNumber":38,"Velocity":55,"Duration":47169,"SoundDuration":47169,"Delta":178551740},{"NoteNumber":50,"Velocity":65,"Duration":47169,"SoundDuration":47169,"Delta":178551740},{"NoteNumber":69,"Velocity":70,"Duration":755681,"SoundDuration":755681,"Delta":178646080},{"NoteNumber":76,"Velocity":83,"Duration":755681,"SoundDuration":755681,"Delta":178646080},{"NoteNumber":73,"Velocity":70,"Duration":779220,"SoundDuration":779220,"Delta":178646080},{"NoteNumber":64,"Velocity":70,"Duration":755681,"SoundDuration":755681,"Delta":178646080},{"NoteNumber":45,"Velocity":58,"Duration":779220,"SoundDuration":779220,"Delta":178646080},{"NoteNumber":40,"Velocity":58,"Duration":755681,"SoundDuration":755681,"Delta":178646080},{"NoteNumber":49,"Velocity":58,"Duration":755681,"SoundDuration":755681,"Delta":178646080},{"NoteNumber":52,"Velocity":70,"Duration":755681,"SoundDuration":755681,"Delta":178646080},{"NoteNumber":73,"Velocity":70,"Duration":657258,"SoundDuration":657258,"Delta":179425300},{"NoteNumber":64,"Velocity":70,"Duration":657258,"SoundDuration":657258,"Delta":179425300},{"NoteNumber":69,"Velocity":70,"Duration":657258,"SoundDuration":657258,"Delta":179425300},{"NoteNumber":76,"Velocity":83,"Duration":657258,"SoundDuration":657258,"Delta":179425300},{"NoteNumber":45,"Velocity":58,"Duration":657258,"SoundDuration":657258,"Delta":179425300},{"NoteNumber":40,"Velocity":58,"Duration":657258,"SoundDuration":657258,"Delta":179425300},{"NoteNumber":49,"Velocity":58,"Duration":657258,"SoundDuration":657258,"Delta":179425300},{"NoteNumber":52,"Velocity":70,"Duration":657258,"SoundDuration":657258,"Delta":179425300},{"NoteNumber":74,"Velocity":58,"Duration":91935,"SoundDuration":91935,"Delta":180102720},{"NoteNumber":76,"Velocity":73,"Duration":91935,"SoundDuration":91935,"Delta":180102720},{"NoteNumber":68,"Velocity":58,"Duration":91935,"SoundDuration":91935,"Delta":180102720},{"NoteNumber":40,"Velocity":56,"Duration":96774,"SoundDuration":96774,"Delta":180102720},{"NoteNumber":52,"Velocity":66,"Duration":96774,"SoundDuration":96774,"Delta":180102720},{"NoteNumber":74,"Velocity":66,"Duration":266355,"SoundDuration":266355,"Delta":180199494},{"NoteNumber":76,"Velocity":82,"Duration":259345,"SoundDuration":259345,"Delta":180199494},{"NoteNumber":68,"Velocity":66,"Duration":266355,"SoundDuration":266355,"Delta":180199494},{"NoteNumber":40,"Velocity":58,"Duration":258567,"SoundDuration":258567,"Delta":180199494},{"NoteNumber":52,"Velocity":69,"Duration":258567,"SoundDuration":258567,"Delta":180199494},{"NoteNumber":74,"Velocity":63,"Duration":88785,"SoundDuration":88785,"Delta":180479868},{"NoteNumber":76,"Velocity":80,"Duration":88785,"SoundDuration":88785,"Delta":180479868},{"NoteNumber":68,"Velocity":63,"Duration":88785,"SoundDuration":88785,"Delta":180479868},{"NoteNumber":38,"Velocity":55,"Duration":93457,"SoundDuration":93457,"Delta":180479868},{"NoteNumber":50,"Velocity":65,"Duration":93457,"SoundDuration":93457,"Delta":180479868},{"NoteNumber":68,"Velocity":67,"Duration":278597,"SoundDuration":278597,"Delta":180573326},{"NoteNumber":78,"Velocity":85,"Duration":278597,"SoundDuration":278597,"Delta":180573326},{"NoteNumber":74,"Velocity":67,"Duration":278597,"SoundDuration":278597,"Delta":180573326},{"NoteNumber":37,"Velocity":60,"Duration":269163,"SoundDuration":269163,"Delta":180573326},{"NoteNumber":49,"Velocity":72,"Duration":269163,"SoundDuration":269163,"Delta":180573326},{"NoteNumber":68,"Velocity":65,"Duration":113207,"SoundDuration":113207,"Delta":180868904},{"NoteNumber":80,"Velocity":83,"Duration":113207,"SoundDuration":113207,"Delta":180868904},{"NoteNumber":74,"Velocity":65,"Duration":113207,"SoundDuration":113207,"Delta":180868904},{"NoteNumber":35,"Velocity":62,"Duration":113207,"SoundDuration":113207,"Delta":180868904},{"NoteNumber":47,"Velocity":74,"Duration":113207,"SoundDuration":113207,"Delta":180868904},{"NoteNumber":69,"Velocity":78,"Duration":753237,"SoundDuration":753237,"Delta":180982112},{"NoteNumber":73,"Velocity":78,"Duration":753237,"SoundDuration":753237,"Delta":180982112},{"NoteNumber":81,"Velocity":93,"Duration":753237,"SoundDuration":753237,"Delta":180982112},{"NoteNumber":33,"Velocity":65,"Duration":753237,"SoundDuration":753237,"Delta":180982112},{"NoteNumber":45,"Velocity":74,"Duration":753237,"SoundDuration":753237,"Delta":180982112},{"NoteNumber":69,"Velocity":78,"Duration":663431,"SoundDuration":663431,"Delta":181758812},{"NoteNumber":73,"Velocity":78,"Duration":663431,"SoundDuration":663431,"Delta":181758812},{"NoteNumber":81,"Velocity":93,"Duration":663431,"SoundDuration":663431,"Delta":181758812},{"NoteNumber":40,"Velocity":65,"Duration":663431,"SoundDuration":663431,"Delta":181758812},{"NoteNumber":33,"Velocity":65,"Duration":663431,"SoundDuration":663431,"Delta":181758812},{"NoteNumber":45,"Velocity":74,"Duration":663431,"SoundDuration":663431,"Delta":181758812},{"NoteNumber":57,"Velocity":47,"Duration":48387,"SoundDuration":48387,"Delta":182438424},{"NoteNumber":61,"Velocity":56,"Duration":48387,"SoundDuration":48387,"Delta":182438424},{"NoteNumber":55,"Velocity":47,"Duration":48387,"SoundDuration":48387,"Delta":182438424},{"NoteNumber":45,"Velocity":48,"Duration":48387,"SoundDuration":48387,"Delta":182438424},{"NoteNumber":57,"Velocity":51,"Duration":93750,"SoundDuration":93750,"Delta":182535199},{"NoteNumber":62,"Velocity":60,"Duration":93750,"SoundDuration":93750,"Delta":182535199},{"NoteNumber":55,"Velocity":51,"Duration":93750,"SoundDuration":93750,"Delta":182535199},{"NoteNumber":47,"Velocity":51,"Duration":93750,"SoundDuration":93750,"Delta":182535199},{"NoteNumber":57,"Velocity":47,"Duration":46875,"SoundDuration":46875,"Delta":182816449},{"NoteNumber":61,"Velocity":56,"Duration":46875,"SoundDuration":46875,"Delta":182816449},{"NoteNumber":55,"Velocity":47,"Duration":46875,"SoundDuration":46875,"Delta":182816449},{"NoteNumber":45,"Velocity":47,"Duration":46875,"SoundDuration":46875,"Delta":182816449},{"NoteNumber":55,"Velocity":50,"Duration":91743,"SoundDuration":91743,"Delta":182910199},{"NoteNumber":57,"Velocity":50,"Duration":91743,"SoundDuration":91743,"Delta":182910199},{"NoteNumber":62,"Velocity":60,"Duration":91743,"SoundDuration":91743,"Delta":182910199},{"NoteNumber":47,"Velocity":51,"Duration":91743,"SoundDuration":91743,"Delta":182910199},{"NoteNumber":55,"Velocity":47,"Duration":51546,"SoundDuration":51546,"Delta":183196777},{"NoteNumber":57,"Velocity":47,"Duration":51546,"SoundDuration":51546,"Delta":183196777},{"NoteNumber":64,"Velocity":56,"Duration":51546,"SoundDuration":51546,"Delta":183196777},{"NoteNumber":49,"Velocity":48,"Duration":51546,"SoundDuration":51546,"Delta":183196777},{"NoteNumber":57,"Velocity":64,"Duration":760621,"SoundDuration":760621,"Delta":183299870},{"NoteNumber":54,"Velocity":54,"Duration":760621,"SoundDuration":760621,"Delta":183299870},{"NoteNumber":50,"Velocity":54,"Duration":760621,"SoundDuration":760621,"Delta":183299870},{"NoteNumber":57,"Velocity":54,"Duration":657258,"SoundDuration":657258,"Delta":184084184},{"NoteNumber":66,"Velocity":64,"Duration":657258,"SoundDuration":657258,"Delta":184084184},{"NoteNumber":50,"Velocity":45,"Duration":657258,"SoundDuration":657258,"Delta":184084184},{"NoteNumber":54,"Velocity":54,"Duration":657258,"SoundDuration":657258,"Delta":184084184},{"NoteNumber":57,"Velocity":53,"Duration":96774,"SoundDuration":96774,"Delta":184761604},{"NoteNumber":66,"Velocity":53,"Duration":96774,"SoundDuration":96774,"Delta":184761604},{"NoteNumber":50,"Velocity":44,"Duration":88709,"SoundDuration":88709,"Delta":184761604},{"NoteNumber":67,"Velocity":60,"Duration":96153,"SoundDuration":96153,"Delta":184858378},{"NoteNumber":55,"Velocity":60,"Duration":96153,"SoundDuration":96153,"Delta":184858378},{"NoteNumber":50,"Velocity":50,"Duration":96153,"SoundDuration":96153,"Delta":184858378},{"NoteNumber":47,"Velocity":42,"Duration":96153,"SoundDuration":96153,"Delta":184858378},{"NoteNumber":55,"Velocity":56,"Duration":96153,"SoundDuration":96153,"Delta":185146839},{"NoteNumber":66,"Velocity":56,"Duration":96153,"SoundDuration":96153,"Delta":185146839},{"NoteNumber":50,"Velocity":47,"Duration":96153,"SoundDuration":96153,"Delta":185146839},{"NoteNumber":47,"Velocity":40,"Duration":96153,"SoundDuration":96153,"Delta":185146839},{"NoteNumber":46,"Velocity":41,"Duration":94149,"SoundDuration":94149,"Delta":185238185},{"NoteNumber":64,"Velocity":59,"Duration":94043,"SoundDuration":94043,"Delta":185242993},{"NoteNumber":56,"Velocity":59,"Duration":94043,"SoundDuration":94043,"Delta":185242993},{"NoteNumber":50,"Velocity":49,"Duration":94043,"SoundDuration":94043,"Delta":185247695},{"NoteNumber":56,"Velocity":56,"Duration":109091,"SoundDuration":109091,"Delta":185540172},{"NoteNumber":62,"Velocity":56,"Duration":109091,"SoundDuration":109091,"Delta":185540172},{"NoteNumber":46,"Velocity":40,"Duration":109091,"SoundDuration":109091,"Delta":185540172},{"NoteNumber":50,"Velocity":47,"Duration":109091,"SoundDuration":109091,"Delta":185540172},{"NoteNumber":61,"Velocity":54,"Duration":755681,"SoundDuration":755681,"Delta":185649263},{"NoteNumber":69,"Velocity":64,"Duration":755681,"SoundDuration":755681,"Delta":185649263},{"NoteNumber":57,"Velocity":54,"Duration":755681,"SoundDuration":755681,"Delta":185649263},{"NoteNumber":45,"Velocity":45,"Duration":755681,"SoundDuration":755681,"Delta":185649263},{"NoteNumber":52,"Velocity":54,"Duration":755681,"SoundDuration":755681,"Delta":185649263},{"NoteNumber":61,"Velocity":54,"Duration":657258,"SoundDuration":657258,"Delta":186428483},{"NoteNumber":64,"Velocity":64,"Duration":657258,"SoundDuration":657258,"Delta":186428483},{"NoteNumber":45,"Velocity":45,"Duration":657258,"SoundDuration":657258,"Delta":186428483},{"NoteNumber":57,"Velocity":54,"Duration":657258,"SoundDuration":657258,"Delta":186428483},{"NoteNumber":64,"Velocity":53,"Duration":96774,"SoundDuration":96774,"Delta":187105903},{"NoteNumber":69,"Velocity":53,"Duration":48387,"SoundDuration":48387,"Delta":187105903},{"NoteNumber":49,"Velocity":35,"Duration":88709,"SoundDuration":88709,"Delta":187105903},{"NoteNumber":57,"Velocity":44,"Duration":88709,"SoundDuration":88709,"Delta":187105903},{"NoteNumber":73,"Velocity":53,"Duration":48387,"SoundDuration":48387,"Delta":187154290},{"NoteNumber":64,"Velocity":60,"Duration":95541,"SoundDuration":95541,"Delta":187202677},{"NoteNumber":71,"Velocity":60,"Duration":95541,"SoundDuration":95541,"Delta":187202677},{"NoteNumber":57,"Velocity":50,"Duration":95541,"SoundDuration":95541,"Delta":187202677},{"NoteNumber":49,"Velocity":42,"Duration":95541,"SoundDuration":95541,"Delta":187202677},{"NoteNumber":64,"Velocity":56,"Duration":95541,"SoundDuration":95541,"Delta":187489302},{"NoteNumber":69,"Velocity":56,"Duration":95541,"SoundDuration":95541,"Delta":187489302},{"NoteNumber":57,"Velocity":47,"Duration":95541,"SoundDuration":95541,"Delta":187489302},{"NoteNumber":49,"Velocity":40,"Duration":95541,"SoundDuration":95541,"Delta":187489302},{"NoteNumber":64,"Velocity":59,"Duration":94339,"SoundDuration":94339,"Delta":187584843},{"NoteNumber":71,"Velocity":59,"Duration":94339,"SoundDuration":94339,"Delta":187584843},{"NoteNumber":49,"Velocity":41,"Duration":94339,"SoundDuration":94339,"Delta":187584843},{"NoteNumber":57,"Velocity":49,"Duration":94339,"SoundDuration":94339,"Delta":187584843},{"NoteNumber":64,"Velocity":56,"Duration":112359,"SoundDuration":112359,"Delta":187885882},{"NoteNumber":73,"Velocity":56,"Duration":112359,"SoundDuration":112359,"Delta":187885882},{"NoteNumber":49,"Velocity":40,"Duration":112359,"SoundDuration":112359,"Delta":187885882},{"NoteNumber":57,"Velocity":47,"Duration":112359,"SoundDuration":112359,"Delta":187885882},{"NoteNumber":62,"Velocity":54,"Duration":755681,"SoundDuration":755681,"Delta":187998241},{"NoteNumber":66,"Velocity":54,"Duration":755681,"SoundDuration":755681,"Delta":187998241},{"NoteNumber":74,"Velocity":64,"Duration":755681,"SoundDuration":755681,"Delta":187998241},{"NoteNumber":54,"Velocity":45,"Duration":779220,"SoundDuration":779220,"Delta":187998241},{"NoteNumber":47,"Velocity":45,"Duration":755681,"SoundDuration":755681,"Delta":187998241},{"NoteNumber":59,"Velocity":54,"Duration":755681,"SoundDuration":755681,"Delta":187998241},{"NoteNumber":66,"Velocity":64,"Duration":657258,"SoundDuration":657258,"Delta":188777461},{"NoteNumber":62,"Velocity":54,"Duration":657258,"SoundDuration":657258,"Delta":188777461},{"NoteNumber":50,"Velocity":45,"Duration":657258,"SoundDuration":657258,"Delta":188777461},{"NoteNumber":59,"Velocity":54,"Duration":657258,"SoundDuration":657258,"Delta":188777461},{"NoteNumber":62,"Velocity":53,"Duration":96774,"SoundDuration":96774,"Delta":189454881},{"NoteNumber":66,"Velocity":53,"Duration":48387,"SoundDuration":48387,"Delta":189454881},{"NoteNumber":52,"Velocity":35,"Duration":88709,"SoundDuration":88709,"Delta":189454881},{"NoteNumber":59,"Velocity":44,"Duration":88709,"SoundDuration":88709,"Delta":189454881},{"NoteNumber":69,"Velocity":53,"Duration":48387,"SoundDuration":48387,"Delta":189503268},{"NoteNumber":62,"Velocity":60,"Duration":96153,"SoundDuration":96153,"Delta":189551655},{"NoteNumber":68,"Velocity":60,"Duration":96153,"SoundDuration":96153,"Delta":189551655},{"NoteNumber":59,"Velocity":50,"Duration":96153,"SoundDuration":96153,"Delta":189551655},{"NoteNumber":52,"Velocity":42,"Duration":96153,"SoundDuration":96153,"Delta":189551655},{"NoteNumber":62,"Velocity":56,"Duration":96153,"SoundDuration":96153,"Delta":189840116},{"NoteNumber":66,"Velocity":56,"Duration":96153,"SoundDuration":96153,"Delta":189840116},{"NoteNumber":59,"Velocity":47,"Duration":96153,"SoundDuration":96153,"Delta":189840116},{"NoteNumber":52,"Velocity":40,"Duration":96153,"SoundDuration":96153,"Delta":189840116},{"NoteNumber":62,"Velocity":59,"Duration":94043,"SoundDuration":94043,"Delta":189936270},{"NoteNumber":68,"Velocity":59,"Duration":94043,"SoundDuration":94043,"Delta":189936270},{"NoteNumber":52,"Velocity":41,"Duration":94043,"SoundDuration":94043,"Delta":189936270},{"NoteNumber":59,"Velocity":49,"Duration":94043,"SoundDuration":94043,"Delta":189936270},{"NoteNumber":62,"Velocity":56,"Duration":115830,"SoundDuration":115830,"Delta":190240188},{"NoteNumber":64,"Velocity":56,"Duration":115830,"SoundDuration":115830,"Delta":190240188},{"NoteNumber":52,"Velocity":40,"Duration":115830,"SoundDuration":115830,"Delta":190240188},{"NoteNumber":59,"Velocity":47,"Duration":115830,"SoundDuration":115830,"Delta":190240188},{"NoteNumber":61,"Velocity":54,"Duration":778428,"SoundDuration":778428,"Delta":190356018},{"NoteNumber":71,"Velocity":64,"Duration":778428,"SoundDuration":778428,"Delta":190356018},{"NoteNumber":52,"Velocity":45,"Duration":802675,"SoundDuration":802675,"Delta":190356018},{"NoteNumber":45,"Velocity":45,"Duration":778428,"SoundDuration":778428,"Delta":190356018},{"NoteNumber":57,"Velocity":54,"Duration":778428,"SoundDuration":778428,"Delta":190356018},{"NoteNumber":69,"Velocity":64,"Duration":766129,"SoundDuration":766129,"Delta":191158694},{"NoteNumber":61,"Velocity":54,"Duration":766129,"SoundDuration":766129,"Delta":191158694},{"NoteNumber":45,"Velocity":45,"Duration":766129,"SoundDuration":766129,"Delta":191158694},{"NoteNumber":52,"Velocity":45,"Duration":766129,"SoundDuration":766129,"Delta":191158694},{"NoteNumber":57,"Velocity":54,"Duration":766129,"SoundDuration":766129,"Delta":191158694},{"NoteNumber":62,"Velocity":56,"Duration":361904,"SoundDuration":361904,"Delta":191932888},{"NoteNumber":66,"Velocity":56,"Duration":361904,"SoundDuration":361904,"Delta":191932888},{"NoteNumber":69,"Velocity":67,"Duration":361904,"SoundDuration":361904,"Delta":191932888},{"NoteNumber":50,"Velocity":45,"Duration":361904,"SoundDuration":361904,"Delta":191932888},{"NoteNumber":62,"Velocity":53,"Duration":374597,"SoundDuration":374597,"Delta":192313840},{"NoteNumber":66,"Velocity":53,"Duration":374597,"SoundDuration":374597,"Delta":192313840},{"NoteNumber":70,"Velocity":63,"Duration":374597,"SoundDuration":374597,"Delta":192313840},{"NoteNumber":49,"Velocity":37,"Duration":374597,"SoundDuration":374597,"Delta":192313840},{"NoteNumber":62,"Velocity":51,"Duration":721022,"SoundDuration":721022,"Delta":192699692},{"NoteNumber":67,"Velocity":51,"Duration":721022,"SoundDuration":721022,"Delta":192699692},{"NoteNumber":71,"Velocity":60,"Duration":721022,"SoundDuration":721022,"Delta":192699692},{"NoteNumber":47,"Velocity":67,"Duration":116617,"SoundDuration":116617,"Delta":192699692},{"NoteNumber":46,"Velocity":57,"Duration":116618,"SoundDuration":116618,"Delta":192816310},{"NoteNumber":47,"Velocity":57,"Duration":116617,"SoundDuration":116617,"Delta":192932928},{"NoteNumber":43,"Velocity":68,"Duration":118694,"SoundDuration":118694,"Delta":193049546},{"NoteNumber":42,"Velocity":61,"Duration":118694,"SoundDuration":118694,"Delta":193168240},{"NoteNumber":43,"Velocity":65,"Duration":133779,"SoundDuration":133779,"Delta":193286935},{"NoteNumber":67,"Velocity":56,"Duration":354103,"SoundDuration":354103,"Delta":193420714},{"NoteNumber":71,"Velocity":56,"Duration":354103,"SoundDuration":354103,"Delta":193420714},{"NoteNumber":76,"Velocity":67,"Duration":354103,"SoundDuration":354103,"Delta":193420714},{"NoteNumber":40,"Velocity":74,"Duration":638298,"SoundDuration":638298,"Delta":193420714},{"NoteNumber":71,"Velocity":57,"Duration":182370,"SoundDuration":182370,"Delta":193785456},{"NoteNumber":76,"Velocity":57,"Duration":182370,"SoundDuration":182370,"Delta":193785456},{"NoteNumber":79,"Velocity":68,"Duration":182370,"SoundDuration":182370,"Delta":193785456},{"NoteNumber":42,"Velocity":61,"Duration":91185,"SoundDuration":91185,"Delta":194059013},{"NoteNumber":67,"Velocity":53,"Duration":182370,"SoundDuration":182370,"Delta":194150198},{"NoteNumber":71,"Velocity":53,"Duration":182370,"SoundDuration":182370,"Delta":194150198},{"NoteNumber":76,"Velocity":63,"Duration":189969,"SoundDuration":189969,"Delta":194150198},{"NoteNumber":43,"Velocity":69,"Duration":273556,"SoundDuration":273556,"Delta":194150198},{"NoteNumber":45,"Velocity":62,"Duration":91185,"SoundDuration":91185,"Delta":194423755},{"NoteNumber":61,"Velocity":49,"Duration":180723,"SoundDuration":180723,"Delta":194514940},{"NoteNumber":64,"Velocity":49,"Duration":180723,"SoundDuration":180723,"Delta":194514940},{"NoteNumber":67,"Velocity":58,"Duration":180723,"SoundDuration":180723,"Delta":194514940},{"NoteNumber":47,"Velocity":70,"Duration":274297,"SoundDuration":274297,"Delta":194514940},{"NoteNumber":49,"Velocity":62,"Duration":99999,"SoundDuration":99999,"Delta":194789237},{"NoteNumber":61,"Velocity":55,"Duration":720121,"SoundDuration":720121,"Delta":194889237},{"NoteNumber":66,"Velocity":55,"Duration":720121,"SoundDuration":720121,"Delta":194889237},{"NoteNumber":69,"Velocity":65,"Duration":720121,"SoundDuration":720121,"Delta":194889237},{"NoteNumber":45,"Velocity":69,"Duration":115607,"SoundDuration":115607,"Delta":194889237},{"NoteNumber":44,"Velocity":63,"Duration":115606,"SoundDuration":115606,"Delta":195004844},{"NoteNumber":45,"Velocity":59,"Duration":115607,"SoundDuration":115607,"Delta":195120451},{"NoteNumber":42,"Velocity":68,"Duration":119760,"SoundDuration":119760,"Delta":195236058},{"NoteNumber":41,"Velocity":65,"Duration":119760,"SoundDuration":119760,"Delta":195355819},{"NoteNumber":42,"Velocity":69,"Duration":133779,"SoundDuration":133779,"Delta":195475579},{"NoteNumber":66,"Velocity":59,"Duration":358461,"SoundDuration":358461,"Delta":195609358},{"NoteNumber":69,"Velocity":59,"Duration":358461,"SoundDuration":358461,"Delta":195609358},{"NoteNumber":74,"Velocity":70,"Duration":358461,"SoundDuration":358461,"Delta":195609358},{"NoteNumber":38,"Velocity":74,"Duration":641134,"SoundDuration":641134,"Delta":195609358},{"NoteNumber":69,"Velocity":58,"Duration":181268,"SoundDuration":181268,"Delta":195978589},{"NoteNumber":74,"Velocity":58,"Duration":181268,"SoundDuration":181268,"Delta":195978589},{"NoteNumber":78,"Velocity":69,"Duration":181268,"SoundDuration":181268,"Delta":195978589},{"NoteNumber":40,"Velocity":61,"Duration":90634,"SoundDuration":90634,"Delta":196250493},{"NoteNumber":69,"Velocity":51,"Duration":181268,"SoundDuration":181268,"Delta":196341127},{"NoteNumber":74,"Velocity":60,"Duration":181268,"SoundDuration":181268,"Delta":196341127},{"NoteNumber":66,"Velocity":51,"Duration":181268,"SoundDuration":181268,"Delta":196341127},{"NoteNumber":42,"Velocity":69,"Duration":271903,"SoundDuration":271903,"Delta":196341127},{"NoteNumber":43,"Velocity":62,"Duration":90634,"SoundDuration":90634,"Delta":196613031},{"NoteNumber":62,"Velocity":47,"Duration":180723,"SoundDuration":180723,"Delta":196703665},{"NoteNumber":66,"Velocity":56,"Duration":180723,"SoundDuration":180723,"Delta":196703665},{"NoteNumber":59,"Velocity":47,"Duration":180723,"SoundDuration":180723,"Delta":196703665},{"NoteNumber":45,"Velocity":70,"Duration":274297,"SoundDuration":274297,"Delta":196703665},{"NoteNumber":47,"Velocity":62,"Duration":99999,"SoundDuration":99999,"Delta":196977963},{"NoteNumber":64,"Velocity":56,"Duration":727684,"SoundDuration":727684,"Delta":197077963},{"NoteNumber":67,"Velocity":67,"Duration":727684,"SoundDuration":727684,"Delta":197077963},{"NoteNumber":59,"Velocity":56,"Duration":727684,"SoundDuration":727684,"Delta":197077963},{"NoteNumber":43,"Velocity":70,"Duration":117647,"SoundDuration":117647,"Delta":197077963},{"NoteNumber":42,"Velocity":58,"Duration":117647,"SoundDuration":117647,"Delta":197195610},{"NoteNumber":43,"Velocity":58,"Duration":117646,"SoundDuration":117646,"Delta":197313257},{"NoteNumber":40,"Velocity":63,"Duration":120482,"SoundDuration":120482,"Delta":197430904},{"NoteNumber":39,"Velocity":65,"Duration":120482,"SoundDuration":120482,"Delta":197551386},{"NoteNumber":40,"Velocity":68,"Duration":133779,"SoundDuration":133779,"Delta":197671868},{"NoteNumber":67,"Velocity":60,"Duration":354103,"SoundDuration":354103,"Delta":197805647},{"NoteNumber":73,"Velocity":71,"Duration":354103,"SoundDuration":354103,"Delta":197805647},{"NoteNumber":64,"Velocity":60,"Duration":354103,"SoundDuration":354103,"Delta":197805647},{"NoteNumber":37,"Velocity":72,"Duration":638298,"SoundDuration":638298,"Delta":197805647},{"NoteNumber":67,"Velocity":60,"Duration":182370,"SoundDuration":182370,"Delta":198170389},{"NoteNumber":76,"Velocity":71,"Duration":182370,"SoundDuration":182370,"Delta":198170389},{"NoteNumber":73,"Velocity":71,"Duration":182370,"SoundDuration":182370,"Delta":198170389},{"NoteNumber":38,"Velocity":59,"Duration":91185,"SoundDuration":91185,"Delta":198443946},{"NoteNumber":64,"Velocity":55,"Duration":185184,"SoundDuration":185184,"Delta":198535131},{"NoteNumber":73,"Velocity":65,"Duration":185184,"SoundDuration":185184,"Delta":198535131},{"NoteNumber":67,"Velocity":55,"Duration":185184,"SoundDuration":185184,"Delta":198535131},{"NoteNumber":40,"Velocity":73,"Duration":277777,"SoundDuration":277777,"Delta":198535131},{"NoteNumber":37,"Velocity":57,"Duration":92592,"SoundDuration":92592,"Delta":198812909},{"NoteNumber":61,"Velocity":50,"Duration":195439,"SoundDuration":195439,"Delta":198905501},{"NoteNumber":68,"Velocity":59,"Duration":195439,"SoundDuration":195439,"Delta":198905501},{"NoteNumber":71,"Velocity":59,"Duration":195439,"SoundDuration":195439,"Delta":198905501},{"NoteNumber":41,"Velocity":71,"Duration":301402,"SoundDuration":301402,"Delta":198905501},{"NoteNumber":37,"Velocity":58,"Duration":122448,"SoundDuration":122448,"Delta":199206903},{"NoteNumber":66,"Velocity":55,"Duration":797341,"SoundDuration":797341,"Delta":199329352},{"NoteNumber":61,"Velocity":55,"Duration":773255,"SoundDuration":773255,"Delta":199329352},{"NoteNumber":70,"Velocity":65,"Duration":773255,"SoundDuration":773255,"Delta":199329352},{"NoteNumber":42,"Velocity":71,"Duration":773255,"SoundDuration":773255,"Delta":199329352},{"NoteNumber":61,"Velocity":51,"Duration":657258,"SoundDuration":657258,"Delta":200126694},{"NoteNumber":70,"Velocity":60,"Duration":657258,"SoundDuration":657258,"Delta":200126694},{"NoteNumber":66,"Velocity":51,"Duration":657258,"SoundDuration":657258,"Delta":200126694},{"NoteNumber":42,"Velocity":68,"Duration":657258,"SoundDuration":657258,"Delta":200126694},{"NoteNumber":73,"Velocity":71,"Duration":48387,"SoundDuration":48387,"Delta":200804114},{"NoteNumber":66,"Velocity":60,"Duration":48387,"SoundDuration":48387,"Delta":200804114},{"NoteNumber":46,"Velocity":61,"Duration":48387,"SoundDuration":48387,"Delta":200804114},{"NoteNumber":66,"Velocity":65,"Duration":96774,"SoundDuration":96774,"Delta":200900888},{"NoteNumber":75,"Velocity":78,"Duration":96774,"SoundDuration":96774,"Delta":200900888},{"NoteNumber":47,"Velocity":65,"Duration":96774,"SoundDuration":96774,"Delta":200900888},{"NoteNumber":73,"Velocity":73,"Duration":46153,"SoundDuration":46153,"Delta":201186745},{"NoteNumber":66,"Velocity":61,"Duration":46153,"SoundDuration":46153,"Delta":201186745},{"NoteNumber":46,"Velocity":61,"Duration":46153,"SoundDuration":46153,"Delta":201186745},{"NoteNumber":66,"Velocity":66,"Duration":90361,"SoundDuration":90361,"Delta":201279052},{"NoteNumber":75,"Velocity":79,"Duration":90361,"SoundDuration":90361,"Delta":201279052},{"NoteNumber":47,"Velocity":67,"Duration":90361,"SoundDuration":90361,"Delta":201279052},{"NoteNumber":73,"Velocity":76,"Duration":47169,"SoundDuration":47169,"Delta":201554115},{"NoteNumber":66,"Velocity":64,"Duration":47169,"SoundDuration":47169,"Delta":201554115},{"NoteNumber":46,"Velocity":65,"Duration":47169,"SoundDuration":47169,"Delta":201554115},{"NoteNumber":71,"Velocity":70,"Duration":779220,"SoundDuration":779220,"Delta":201648454},{"NoteNumber":77,"Velocity":83,"Duration":755681,"SoundDuration":755681,"Delta":201648454},{"NoteNumber":65,"Velocity":70,"Duration":755681,"SoundDuration":755681,"Delta":201648454},{"NoteNumber":44,"Velocity":58,"Duration":779220,"SoundDuration":779220,"Delta":201648454},{"NoteNumber":49,"Velocity":70,"Duration":755681,"SoundDuration":755681,"Delta":201648454},{"NoteNumber":77,"Velocity":83,"Duration":657258,"SoundDuration":657258,"Delta":202427674},{"NoteNumber":71,"Velocity":70,"Duration":657258,"SoundDuration":657258,"Delta":202427674},{"NoteNumber":65,"Velocity":70,"Duration":657258,"SoundDuration":657258,"Delta":202427674},{"NoteNumber":44,"Velocity":58,"Duration":657258,"SoundDuration":657258,"Delta":202427674},{"NoteNumber":49,"Velocity":70,"Duration":657258,"SoundDuration":657258,"Delta":202427674},{"NoteNumber":65,"Velocity":58,"Duration":91935,"SoundDuration":91935,"Delta":203105094},{"NoteNumber":73,"Velocity":58,"Duration":91935,"SoundDuration":91935,"Delta":203105094},{"NoteNumber":77,"Velocity":73,"Duration":91935,"SoundDuration":91935,"Delta":203105094},{"NoteNumber":44,"Velocity":56,"Duration":96774,"SoundDuration":96774,"Delta":203105094},{"NoteNumber":49,"Velocity":66,"Duration":96774,"SoundDuration":96774,"Delta":203105094},{"NoteNumber":73,"Velocity":66,"Duration":272293,"SoundDuration":272293,"Delta":203201868},{"NoteNumber":77,"Velocity":82,"Duration":264331,"SoundDuration":264331,"Delta":203201868},{"NoteNumber":65,"Velocity":66,"Duration":272293,"SoundDuration":272293,"Delta":203201868},{"NoteNumber":46,"Velocity":58,"Duration":264331,"SoundDuration":264331,"Delta":203201868},{"NoteNumber":49,"Velocity":69,"Duration":264331,"SoundDuration":264331,"Delta":203201868},{"NoteNumber":73,"Velocity":63,"Duration":90764,"SoundDuration":90764,"Delta":203488493},{"NoteNumber":77,"Velocity":80,"Duration":90764,"SoundDuration":90764,"Delta":203488493},{"NoteNumber":65,"Velocity":63,"Duration":90764,"SoundDuration":90764,"Delta":203488493},{"NoteNumber":44,"Velocity":55,"Duration":95541,"SoundDuration":95541,"Delta":203488493},{"NoteNumber":49,"Velocity":65,"Duration":95541,"SoundDuration":95541,"Delta":203488493},{"NoteNumber":73,"Velocity":67,"Duration":283726,"SoundDuration":283726,"Delta":203584034},{"NoteNumber":77,"Velocity":85,"Duration":283726,"SoundDuration":283726,"Delta":203584034},{"NoteNumber":65,"Velocity":67,"Duration":283726,"SoundDuration":283726,"Delta":203584034},{"NoteNumber":46,"Velocity":60,"Duration":274292,"SoundDuration":274292,"Delta":203584034},{"NoteNumber":49,"Velocity":72,"Duration":274292,"SoundDuration":274292,"Delta":203584034},{"NoteNumber":65,"Velocity":65,"Duration":113207,"SoundDuration":113207,"Delta":203884742},{"NoteNumber":77,"Velocity":83,"Duration":113207,"SoundDuration":113207,"Delta":203884742},{"NoteNumber":73,"Velocity":65,"Duration":113207,"SoundDuration":113207,"Delta":203884742},{"NoteNumber":44,"Velocity":62,"Duration":113207,"SoundDuration":113207,"Delta":203884742},{"NoteNumber":49,"Velocity":74,"Duration":113207,"SoundDuration":113207,"Delta":203884742},{"NoteNumber":66,"Velocity":78,"Duration":753237,"SoundDuration":753237,"Delta":203997949},{"NoteNumber":78,"Velocity":93,"Duration":753237,"SoundDuration":753237,"Delta":203997949},{"NoteNumber":70,"Velocity":78,"Duration":753237,"SoundDuration":753237,"Delta":203997949},{"NoteNumber":42,"Velocity":65,"Duration":753237,"SoundDuration":753237,"Delta":203997949},{"NoteNumber":49,"Velocity":74,"Duration":753237,"SoundDuration":753237,"Delta":203997949},{"NoteNumber":66,"Velocity":78,"Duration":663431,"SoundDuration":663431,"Delta":204774649},{"NoteNumber":78,"Velocity":93,"Duration":663431,"SoundDuration":663431,"Delta":204774649},{"NoteNumber":70,"Velocity":78,"Duration":663431,"SoundDuration":663431,"Delta":204774649},{"NoteNumber":42,"Velocity":65,"Duration":663431,"SoundDuration":663431,"Delta":204774649},{"NoteNumber":49,"Velocity":74,"Duration":663431,"SoundDuration":663431,"Delta":204774649},{"NoteNumber":69,"Velocity":47,"Duration":48387,"SoundDuration":48387,"Delta":205454262},{"NoteNumber":67,"Velocity":47,"Duration":48387,"SoundDuration":48387,"Delta":205454262},{"NoteNumber":73,"Velocity":56,"Duration":48387,"SoundDuration":48387,"Delta":205454262},{"NoteNumber":57,"Velocity":48,"Duration":48387,"SoundDuration":48387,"Delta":205454262},{"NoteNumber":67,"Velocity":51,"Duration":276983,"SoundDuration":276983,"Delta":205551036},{"NoteNumber":69,"Velocity":51,"Duration":276983,"SoundDuration":276983,"Delta":205551036},{"NoteNumber":73,"Velocity":60,"Duration":276983,"SoundDuration":276983,"Delta":205551036},{"NoteNumber":57,"Velocity":51,"Duration":276983,"SoundDuration":276983,"Delta":205551036},{"NoteNumber":69,"Velocity":47,"Duration":47618,"SoundDuration":47618,"Delta":205836750},{"NoteNumber":73,"Velocity":56,"Duration":47618,"SoundDuration":47618,"Delta":205836750},{"NoteNumber":67,"Velocity":47,"Duration":47618,"SoundDuration":47618,"Delta":205836750},{"NoteNumber":57,"Velocity":47,"Duration":47618,"SoundDuration":47618,"Delta":205836750},{"NoteNumber":69,"Velocity":50,"Duration":279061,"SoundDuration":279061,"Delta":205920877},{"NoteNumber":74,"Velocity":60,"Duration":279061,"SoundDuration":279061,"Delta":205920877},{"NoteNumber":67,"Velocity":50,"Duration":279061,"SoundDuration":279061,"Delta":205920877},{"NoteNumber":59,"Velocity":51,"Duration":279061,"SoundDuration":279061,"Delta":205920877},{"NoteNumber":76,"Velocity":56,"Duration":51546,"SoundDuration":51546,"Delta":206221416},{"NoteNumber":67,"Velocity":47,"Duration":51546,"SoundDuration":51546,"Delta":206221416},{"NoteNumber":69,"Velocity":47,"Duration":51546,"SoundDuration":51546,"Delta":206221416},{"NoteNumber":61,"Velocity":48,"Duration":51546,"SoundDuration":51546,"Delta":206221416},{"NoteNumber":66,"Velocity":54,"Duration":760621,"SoundDuration":760621,"Delta":206324509},{"NoteNumber":69,"Velocity":64,"Duration":760621,"SoundDuration":760621,"Delta":206324509},{"NoteNumber":62,"Velocity":54,"Duration":760621,"SoundDuration":760621,"Delta":206324509},{"NoteNumber":66,"Velocity":54,"Duration":657258,"SoundDuration":657258,"Delta":207108823},{"NoteNumber":69,"Velocity":54,"Duration":657258,"SoundDuration":657258,"Delta":207108823},{"NoteNumber":78,"Velocity":64,"Duration":657258,"SoundDuration":657258,"Delta":207108823},{"NoteNumber":62,"Velocity":54,"Duration":657258,"SoundDuration":657258,"Delta":207108823},{"NoteNumber":78,"Velocity":53,"Duration":93548,"SoundDuration":93548,"Delta":207786243},{"NoteNumber":66,"Velocity":53,"Duration":94354,"SoundDuration":94354,"Delta":207786243},{"NoteNumber":62,"Velocity":44,"Duration":86290,"SoundDuration":86290,"Delta":207786243},{"NoteNumber":78,"Velocity":60,"Duration":96153,"SoundDuration":96153,"Delta":207883017},{"NoteNumber":66,"Velocity":60,"Duration":96153,"SoundDuration":96153,"Delta":207883017},{"NoteNumber":62,"Velocity":50,"Duration":96153,"SoundDuration":96153,"Delta":207883017},{"NoteNumber":78,"Velocity":56,"Duration":92948,"SoundDuration":92948,"Delta":208160261},{"NoteNumber":66,"Velocity":56,"Duration":92948,"SoundDuration":92948,"Delta":208160261},{"NoteNumber":62,"Velocity":47,"Duration":92948,"SoundDuration":92948,"Delta":208160261},{"NoteNumber":68,"Velocity":59,"Duration":94043,"SoundDuration":94043,"Delta":208267632},{"NoteNumber":76,"Velocity":59,"Duration":94043,"SoundDuration":94043,"Delta":208267632},{"NoteNumber":59,"Velocity":41,"Duration":94043,"SoundDuration":94043,"Delta":208267632},{"NoteNumber":62,"Velocity":49,"Duration":94043,"SoundDuration":94043,"Delta":208267632},{"NoteNumber":74,"Velocity":56,"Duration":109091,"SoundDuration":109091,"Delta":208564811},{"NoteNumber":68,"Velocity":56,"Duration":109091,"SoundDuration":109091,"Delta":208564811},{"NoteNumber":59,"Velocity":40,"Duration":109091,"SoundDuration":109091,"Delta":208564811},{"NoteNumber":62,"Velocity":47,"Duration":109091,"SoundDuration":109091,"Delta":208564811},{"NoteNumber":69,"Velocity":54,"Duration":755681,"SoundDuration":755681,"Delta":208673902},{"NoteNumber":73,"Velocity":64,"Duration":755681,"SoundDuration":755681,"Delta":208673902},{"NoteNumber":57,"Velocity":45,"Duration":755681,"SoundDuration":755681,"Delta":208673902},{"NoteNumber":64,"Velocity":54,"Duration":755681,"SoundDuration":755681,"Delta":208673902},{"NoteNumber":76,"Velocity":64,"Duration":657258,"SoundDuration":657258,"Delta":209453122},{"NoteNumber":69,"Velocity":54,"Duration":657258,"SoundDuration":657258,"Delta":209453122},{"NoteNumber":57,"Velocity":45,"Duration":657258,"SoundDuration":657258,"Delta":209453122},{"NoteNumber":61,"Velocity":54,"Duration":657258,"SoundDuration":657258,"Delta":209453122},{"NoteNumber":76,"Velocity":53,"Duration":94354,"SoundDuration":94354,"Delta":210130542},{"NoteNumber":70,"Velocity":53,"Duration":94354,"SoundDuration":94354,"Delta":210130542},{"NoteNumber":54,"Velocity":35,"Duration":86290,"SoundDuration":86290,"Delta":210130542},{"NoteNumber":61,"Velocity":44,"Duration":86290,"SoundDuration":86290,"Delta":210130542},{"NoteNumber":76,"Velocity":60,"Duration":95541,"SoundDuration":95541,"Delta":210227316},{"NoteNumber":70,"Velocity":60,"Duration":95541,"SoundDuration":95541,"Delta":210227316},{"NoteNumber":61,"Velocity":50,"Duration":95541,"SoundDuration":95541,"Delta":210227316},{"NoteNumber":54,"Velocity":42,"Duration":95541,"SoundDuration":95541,"Delta":210227316},{"NoteNumber":76,"Velocity":56,"Duration":92356,"SoundDuration":92356,"Delta":210502794},{"NoteNumber":70,"Velocity":56,"Duration":92356,"SoundDuration":92356,"Delta":210502794},{"NoteNumber":61,"Velocity":47,"Duration":92356,"SoundDuration":92356,"Delta":210502794},{"NoteNumber":54,"Velocity":40,"Duration":92356,"SoundDuration":92356,"Delta":210502794},{"NoteNumber":70,"Velocity":59,"Duration":94339,"SoundDuration":94339,"Delta":210609482},{"NoteNumber":74,"Velocity":59,"Duration":94339,"SoundDuration":94339,"Delta":210609482},{"NoteNumber":54,"Velocity":41,"Duration":94339,"SoundDuration":94339,"Delta":210609482},{"NoteNumber":62,"Velocity":49,"Duration":94339,"SoundDuration":94339,"Delta":210609482},{"NoteNumber":73,"Velocity":56,"Duration":112359,"SoundDuration":112359,"Delta":210910521},{"NoteNumber":70,"Velocity":56,"Duration":112359,"SoundDuration":112359,"Delta":210910521},{"NoteNumber":54,"Velocity":40,"Duration":112359,"SoundDuration":112359,"Delta":210910521},{"NoteNumber":64,"Velocity":47,"Duration":112359,"SoundDuration":112359,"Delta":210910521},{"NoteNumber":71,"Velocity":64,"Duration":755681,"SoundDuration":755681,"Delta":211022880},{"NoteNumber":55,"Velocity":45,"Duration":779220,"SoundDuration":779220,"Delta":211022880},{"NoteNumber":62,"Velocity":54,"Duration":755681,"SoundDuration":755681,"Delta":211022880},{"NoteNumber":67,"Velocity":54,"Duration":657258,"SoundDuration":657258,"Delta":211802100},{"NoteNumber":74,"Velocity":64,"Duration":657258,"SoundDuration":657258,"Delta":211802100},{"NoteNumber":55,"Velocity":45,"Duration":657258,"SoundDuration":657258,"Delta":211802100},{"NoteNumber":59,"Velocity":54,"Duration":657258,"SoundDuration":657258,"Delta":211802100},{"NoteNumber":61,"Velocity":53,"Duration":96774,"SoundDuration":96774,"Delta":212479520},{"NoteNumber":71,"Velocity":53,"Duration":96774,"SoundDuration":96774,"Delta":212479520},{"NoteNumber":67,"Velocity":53,"Duration":96774,"SoundDuration":96774,"Delta":212479520},{"NoteNumber":45,"Velocity":44,"Duration":88709,"SoundDuration":88709,"Delta":212479520},{"NoteNumber":67,"Velocity":60,"Duration":96153,"SoundDuration":96153,"Delta":212576294},{"NoteNumber":71,"Velocity":60,"Duration":96153,"SoundDuration":96153,"Delta":212576294},{"NoteNumber":61,"Velocity":60,"Duration":96153,"SoundDuration":96153,"Delta":212576294},{"NoteNumber":45,"Velocity":50,"Duration":96153,"SoundDuration":96153,"Delta":212576294},{"NoteNumber":71,"Velocity":56,"Duration":96153,"SoundDuration":96153,"Delta":212864755},{"NoteNumber":67,"Velocity":56,"Duration":96153,"SoundDuration":96153,"Delta":212864755},{"NoteNumber":61,"Velocity":56,"Duration":96153,"SoundDuration":96153,"Delta":212864755},{"NoteNumber":45,"Velocity":47,"Duration":96153,"SoundDuration":96153,"Delta":212864755},{"NoteNumber":61,"Velocity":59,"Duration":94043,"SoundDuration":94043,"Delta":212960909},{"NoteNumber":66,"Velocity":59,"Duration":94043,"SoundDuration":94043,"Delta":212960909},{"NoteNumber":69,"Velocity":59,"Duration":94043,"SoundDuration":94043,"Delta":212960909},{"NoteNumber":45,"Velocity":49,"Duration":94043,"SoundDuration":94043,"Delta":212960909},{"NoteNumber":61,"Velocity":56,"Duration":112359,"SoundDuration":112359,"Delta":213261357},{"NoteNumber":64,"Velocity":56,"Duration":112359,"SoundDuration":112359,"Delta":213261357},{"NoteNumber":67,"Velocity":56,"Duration":112359,"SoundDuration":112359,"Delta":213261357},{"NoteNumber":45,"Velocity":47,"Duration":112359,"SoundDuration":112359,"Delta":213261357},{"NoteNumber":64,"Velocity":54,"Duration":802675,"SoundDuration":802675,"Delta":213373716},{"NoteNumber":57,"Velocity":54,"Duration":778428,"SoundDuration":778428,"Delta":213373716},{"NoteNumber":67,"Velocity":64,"Duration":778428,"SoundDuration":778428,"Delta":213373716},{"NoteNumber":50,"Velocity":54,"Duration":778428,"SoundDuration":778428,"Delta":213373716},{"NoteNumber":57,"Velocity":54,"Duration":766129,"SoundDuration":766129,"Delta":214176392},{"NoteNumber":66,"Velocity":64,"Duration":766129,"SoundDuration":766129,"Delta":214176392},{"NoteNumber":62,"Velocity":54,"Duration":766129,"SoundDuration":766129,"Delta":214176392},{"NoteNumber":50,"Velocity":54,"Duration":766129,"SoundDuration":766129,"Delta":214176392},{"NoteNumber":62,"Velocity":56,"Duration":361904,"SoundDuration":361904,"Delta":214950586},{"NoteNumber":66,"Velocity":56,"Duration":361904,"SoundDuration":361904,"Delta":214950586},{"NoteNumber":69,"Velocity":67,"Duration":361904,"SoundDuration":361904,"Delta":214950586},{"NoteNumber":50,"Velocity":45,"Duration":361904,"SoundDuration":361904,"Delta":214950586},{"NoteNumber":62,"Velocity":53,"Duration":374597,"SoundDuration":374597,"Delta":215331538},{"NoteNumber":66,"Velocity":53,"Duration":374597,"SoundDuration":374597,"Delta":215331538},{"NoteNumber":70,"Velocity":63,"Duration":374597,"SoundDuration":374597,"Delta":215331538},{"NoteNumber":49,"Velocity":37,"Duration":374597,"SoundDuration":374597,"Delta":215331538},{"NoteNumber":62,"Velocity":51,"Duration":714518,"SoundDuration":714518,"Delta":215717390},{"NoteNumber":67,"Velocity":51,"Duration":714518,"SoundDuration":714518,"Delta":215717390},{"NoteNumber":71,"Velocity":60,"Duration":714518,"SoundDuration":714518,"Delta":215717390},{"NoteNumber":47,"Velocity":67,"Duration":115607,"SoundDuration":115607,"Delta":215717390},{"NoteNumber":46,"Velocity":57,"Duration":115606,"SoundDuration":115606,"Delta":215832997},{"NoteNumber":47,"Velocity":57,"Duration":115607,"SoundDuration":115607,"Delta":215948604},{"NoteNumber":43,"Velocity":68,"Duration":116959,"SoundDuration":116959,"Delta":216064211},{"NoteNumber":42,"Velocity":61,"Duration":116958,"SoundDuration":116958,"Delta":216181170},{"NoteNumber":43,"Velocity":65,"Duration":133779,"SoundDuration":133779,"Delta":216298129},{"NoteNumber":67,"Velocity":56,"Duration":364742,"SoundDuration":364742,"Delta":216431909},{"NoteNumber":71,"Velocity":56,"Duration":364742,"SoundDuration":364742,"Delta":216431909},{"NoteNumber":76,"Velocity":67,"Duration":364742,"SoundDuration":364742,"Delta":216431909},{"NoteNumber":40,"Velocity":74,"Duration":638298,"SoundDuration":638298,"Delta":216431909},{"NoteNumber":71,"Velocity":57,"Duration":182370,"SoundDuration":182370,"Delta":216796651},{"NoteNumber":76,"Velocity":57,"Duration":182370,"SoundDuration":182370,"Delta":216796651},{"NoteNumber":79,"Velocity":68,"Duration":182370,"SoundDuration":182370,"Delta":216796651},{"NoteNumber":42,"Velocity":61,"Duration":91185,"SoundDuration":91185,"Delta":217070207},{"NoteNumber":67,"Velocity":53,"Duration":182370,"SoundDuration":182370,"Delta":217161393},{"NoteNumber":71,"Velocity":53,"Duration":182370,"SoundDuration":182370,"Delta":217161393},{"NoteNumber":76,"Velocity":63,"Duration":189969,"SoundDuration":189969,"Delta":217161393},{"NoteNumber":43,"Velocity":69,"Duration":273556,"SoundDuration":273556,"Delta":217161393},{"NoteNumber":45,"Velocity":62,"Duration":91185,"SoundDuration":91185,"Delta":217434949},{"NoteNumber":64,"Velocity":49,"Duration":180723,"SoundDuration":180723,"Delta":217526135},{"NoteNumber":67,"Velocity":58,"Duration":180723,"SoundDuration":180723,"Delta":217526135},{"NoteNumber":47,"Velocity":70,"Duration":274297,"SoundDuration":274297,"Delta":217526135},{"NoteNumber":50,"Velocity":62,"Duration":100000,"SoundDuration":100000,"Delta":217800432},{"NoteNumber":64,"Velocity":55,"Duration":716588,"SoundDuration":716588,"Delta":217900432},{"NoteNumber":69,"Velocity":55,"Duration":716588,"SoundDuration":716588,"Delta":217900432},{"NoteNumber":73,"Velocity":65,"Duration":716588,"SoundDuration":716588,"Delta":217900432},{"NoteNumber":49,"Velocity":69,"Duration":115607,"SoundDuration":115607,"Delta":217900432},{"NoteNumber":48,"Velocity":63,"Duration":115606,"SoundDuration":115606,"Delta":218016039},{"NoteNumber":49,"Velocity":59,"Duration":115607,"SoundDuration":115607,"Delta":218131646},{"NoteNumber":45,"Velocity":68,"Duration":117994,"SoundDuration":117994,"Delta":218247253},{"NoteNumber":44,"Velocity":65,"Duration":117993,"SoundDuration":117993,"Delta":218365247},{"NoteNumber":45,"Velocity":69,"Duration":133779,"SoundDuration":133779,"Delta":218483241},{"NoteNumber":69,"Velocity":59,"Duration":364742,"SoundDuration":364742,"Delta":218617020},{"NoteNumber":73,"Velocity":59,"Duration":364742,"SoundDuration":364742,"Delta":218617020},{"NoteNumber":78,"Velocity":70,"Duration":364742,"SoundDuration":364742,"Delta":218617020},{"NoteNumber":42,"Velocity":74,"Duration":638298,"SoundDuration":638298,"Delta":218617020},{"NoteNumber":73,"Velocity":58,"Duration":182370,"SoundDuration":182370,"Delta":218981762},{"NoteNumber":78,"Velocity":58,"Duration":182370,"SoundDuration":182370,"Delta":218981762},{"NoteNumber":81,"Velocity":69,"Duration":182370,"SoundDuration":182370,"Delta":218981762},{"NoteNumber":44,"Velocity":61,"Duration":91185,"SoundDuration":91185,"Delta":219255319},{"NoteNumber":69,"Velocity":51,"Duration":182370,"SoundDuration":182370,"Delta":219346504},{"NoteNumber":73,"Velocity":51,"Duration":182370,"SoundDuration":182370,"Delta":219346504},{"NoteNumber":78,"Velocity":60,"Duration":182370,"SoundDuration":182370,"Delta":219346504},{"NoteNumber":45,"Velocity":69,"Duration":273556,"SoundDuration":273556,"Delta":219346504},{"NoteNumber":47,"Velocity":62,"Duration":91185,"SoundDuration":91185,"Delta":219620061},{"NoteNumber":66,"Velocity":47,"Duration":180723,"SoundDuration":180723,"Delta":219711246},{"NoteNumber":69,"Velocity":56,"Duration":180723,"SoundDuration":180723,"Delta":219711246},{"NoteNumber":49,"Velocity":70,"Duration":274297,"SoundDuration":274297,"Delta":219711246},{"NoteNumber":52,"Velocity":62,"Duration":100000,"SoundDuration":100000,"Delta":219985544},{"NoteNumber":66,"Velocity":56,"Duration":722569,"SoundDuration":722569,"Delta":220085544},{"NoteNumber":71,"Velocity":56,"Duration":722569,"SoundDuration":722569,"Delta":220085544},{"NoteNumber":74,"Velocity":67,"Duration":722569,"SoundDuration":722569,"Delta":220085544},{"NoteNumber":50,"Velocity":70,"Duration":115941,"SoundDuration":115941,"Delta":220085544},{"NoteNumber":49,"Velocity":58,"Duration":115942,"SoundDuration":115942,"Delta":220201486},{"NoteNumber":50,"Velocity":58,"Duration":115941,"SoundDuration":115941,"Delta":220317428},{"NoteNumber":47,"Velocity":63,"Duration":120482,"SoundDuration":120482,"Delta":220433370},{"NoteNumber":46,"Velocity":65,"Duration":120481,"SoundDuration":120481,"Delta":220553852},{"NoteNumber":47,"Velocity":68,"Duration":133779,"SoundDuration":133779,"Delta":220674334},{"NoteNumber":71,"Velocity":60,"Duration":364742,"SoundDuration":364742,"Delta":220808113},{"NoteNumber":74,"Velocity":60,"Duration":364742,"SoundDuration":364742,"Delta":220808113},{"NoteNumber":79,"Velocity":71,"Duration":364742,"SoundDuration":364742,"Delta":220808113},{"NoteNumber":43,"Velocity":72,"Duration":638298,"SoundDuration":638298,"Delta":220808113},{"NoteNumber":74,"Velocity":60,"Duration":182370,"SoundDuration":182370,"Delta":221172855},{"NoteNumber":79,"Velocity":71,"Duration":182370,"SoundDuration":182370,"Delta":221172855},{"NoteNumber":83,"Velocity":71,"Duration":182370,"SoundDuration":182370,"Delta":221172855},{"NoteNumber":45,"Velocity":59,"Duration":91185,"SoundDuration":91185,"Delta":221446411},{"NoteNumber":71,"Velocity":60,"Duration":186915,"SoundDuration":186915,"Delta":221537597},{"NoteNumber":74,"Velocity":60,"Duration":186915,"SoundDuration":186915,"Delta":221537597},{"NoteNumber":79,"Velocity":71,"Duration":186915,"SoundDuration":186915,"Delta":221537597},{"NoteNumber":47,"Velocity":73,"Duration":280373,"SoundDuration":280373,"Delta":221537597},{"NoteNumber":49,"Velocity":57,"Duration":93457,"SoundDuration":93457,"Delta":221817971},{"NoteNumber":67,"Velocity":68,"Duration":195439,"SoundDuration":195439,"Delta":221911429},{"NoteNumber":71,"Velocity":75,"Duration":195439,"SoundDuration":195439,"Delta":221911429},{"NoteNumber":50,"Velocity":71,"Duration":301402,"SoundDuration":301402,"Delta":221911429},{"NoteNumber":54,"Velocity":58,"Duration":122449,"SoundDuration":122449,"Delta":222212831},{"NoteNumber":79,"Velocity":66,"Duration":797341,"SoundDuration":797341,"Delta":222335280},{"NoteNumber":69,"Velocity":66,"Duration":773255,"SoundDuration":773255,"Delta":222335280},{"NoteNumber":73,"Velocity":66,"Duration":773255,"SoundDuration":773255,"Delta":222335280},{"NoteNumber":81,"Velocity":78,"Duration":773255,"SoundDuration":773255,"Delta":222335280},{"NoteNumber":52,"Velocity":85,"Duration":773255,"SoundDuration":773255,"Delta":222335280},{"NoteNumber":79,"Velocity":61,"Duration":657258,"SoundDuration":657258,"Delta":223132622},{"NoteNumber":69,"Velocity":61,"Duration":657258,"SoundDuration":657258,"Delta":223132622},{"NoteNumber":73,"Velocity":61,"Duration":657258,"SoundDuration":657258,"Delta":223132622},{"NoteNumber":81,"Velocity":72,"Duration":657258,"SoundDuration":657258,"Delta":223132622},{"NoteNumber":52,"Velocity":68,"Duration":657258,"SoundDuration":657258,"Delta":223132622},{"NoteNumber":57,"Velocity":81,"Duration":657258,"SoundDuration":657258,"Delta":223132622},{"NoteNumber":73,"Velocity":58,"Duration":91935,"SoundDuration":91935,"Delta":223810042},{"NoteNumber":79,"Velocity":58,"Duration":91935,"SoundDuration":91935,"Delta":223810042},{"NoteNumber":81,"Velocity":73,"Duration":91935,"SoundDuration":91935,"Delta":223810042},{"NoteNumber":45,"Velocity":56,"Duration":96774,"SoundDuration":96774,"Delta":223810042},{"NoteNumber":57,"Velocity":66,"Duration":96774,"SoundDuration":96774,"Delta":223810042},{"NoteNumber":79,"Velocity":66,"Duration":272293,"SoundDuration":272293,"Delta":223906816},{"NoteNumber":73,"Velocity":66,"Duration":272293,"SoundDuration":272293,"Delta":223906816},{"NoteNumber":81,"Velocity":82,"Duration":265127,"SoundDuration":265127,"Delta":223906816},{"NoteNumber":45,"Velocity":58,"Duration":264331,"SoundDuration":264331,"Delta":223906816},{"NoteNumber":57,"Velocity":69,"Duration":264331,"SoundDuration":264331,"Delta":223906816},{"NoteNumber":79,"Velocity":63,"Duration":90764,"SoundDuration":90764,"Delta":224193441},{"NoteNumber":73,"Velocity":63,"Duration":90764,"SoundDuration":90764,"Delta":224193441},{"NoteNumber":81,"Velocity":80,"Duration":90764,"SoundDuration":90764,"Delta":224193441},{"NoteNumber":43,"Velocity":55,"Duration":95541,"SoundDuration":95541,"Delta":224193441},{"NoteNumber":55,"Velocity":65,"Duration":95541,"SoundDuration":95541,"Delta":224193441},{"NoteNumber":83,"Velocity":85,"Duration":283726,"SoundDuration":283726,"Delta":224288982},{"NoteNumber":73,"Velocity":67,"Duration":283726,"SoundDuration":283726,"Delta":224288982},{"NoteNumber":79,"Velocity":67,"Duration":283726,"SoundDuration":283726,"Delta":224288982},{"NoteNumber":42,"Velocity":60,"Duration":274292,"SoundDuration":274292,"Delta":224288982},{"NoteNumber":54,"Velocity":72,"Duration":274292,"SoundDuration":274292,"Delta":224288982},{"NoteNumber":85,"Velocity":83,"Duration":113207,"SoundDuration":113207,"Delta":224589690},{"NoteNumber":73,"Velocity":65,"Duration":113207,"SoundDuration":113207,"Delta":224589690},{"NoteNumber":79,"Velocity":65,"Duration":113207,"SoundDuration":113207,"Delta":224589690},{"NoteNumber":40,"Velocity":62,"Duration":113207,"SoundDuration":113207,"Delta":224589690},{"NoteNumber":52,"Velocity":74,"Duration":113207,"SoundDuration":113207,"Delta":224589690},{"NoteNumber":86,"Velocity":93,"Duration":753237,"SoundDuration":753237,"Delta":224702897},{"NoteNumber":74,"Velocity":78,"Duration":753237,"SoundDuration":753237,"Delta":224702897},{"NoteNumber":78,"Velocity":78,"Duration":753237,"SoundDuration":753237,"Delta":224702897},{"NoteNumber":38,"Velocity":65,"Duration":753237,"SoundDuration":753237,"Delta":224702897},{"NoteNumber":45,"Velocity":65,"Duration":753237,"SoundDuration":753237,"Delta":224702897},{"NoteNumber":50,"Velocity":74,"Duration":753237,"SoundDuration":753237,"Delta":224702897},{"NoteNumber":78,"Velocity":78,"Duration":663431,"SoundDuration":663431,"Delta":225479597},{"NoteNumber":74,"Velocity":78,"Duration":663431,"SoundDuration":663431,"Delta":225479597},{"NoteNumber":86,"Velocity":93,"Duration":663431,"SoundDuration":663431,"Delta":225479597},{"NoteNumber":45,"Velocity":65,"Duration":663431,"SoundDuration":663431,"Delta":225479597},{"NoteNumber":38,"Velocity":65,"Duration":663431,"SoundDuration":663431,"Delta":225479597},{"NoteNumber":50,"Velocity":74,"Duration":663431,"SoundDuration":663431,"Delta":225479597},{"NoteNumber":69,"Velocity":56,"Duration":48387,"SoundDuration":48387,"Delta":226159210},{"NoteNumber":66,"Velocity":47,"Duration":48387,"SoundDuration":48387,"Delta":226159210},{"NoteNumber":66,"Velocity":51,"Duration":276983,"SoundDuration":276983,"Delta":226255984},{"NoteNumber":69,"Velocity":60,"Duration":276983,"SoundDuration":276983,"Delta":226255984},{"NoteNumber":69,"Velocity":56,"Duration":47618,"SoundDuration":47618,"Delta":226541698},{"NoteNumber":66,"Velocity":47,"Duration":47618,"SoundDuration":47618,"Delta":226541698},{"NoteNumber":67,"Velocity":60,"Duration":279978,"SoundDuration":279978,"Delta":226636936},{"NoteNumber":64,"Velocity":50,"Duration":279978,"SoundDuration":279978,"Delta":226636936},{"NoteNumber":62,"Velocity":47,"Duration":51546,"SoundDuration":51546,"Delta":226926364},{"NoteNumber":66,"Velocity":56,"Duration":51546,"SoundDuration":51546,"Delta":226926364},{"NoteNumber":64,"Velocity":64,"Duration":760621,"SoundDuration":760621,"Delta":227029457},{"NoteNumber":57,"Velocity":54,"Duration":760621,"SoundDuration":760621,"Delta":227029457},{"NoteNumber":45,"Velocity":45,"Duration":760621,"SoundDuration":760621,"Delta":227029457},{"NoteNumber":49,"Velocity":45,"Duration":760621,"SoundDuration":760621,"Delta":227029457},{"NoteNumber":55,"Velocity":54,"Duration":760621,"SoundDuration":760621,"Delta":227029457},{"NoteNumber":57,"Velocity":54,"Duration":663499,"SoundDuration":663499,"Delta":227813771},{"NoteNumber":64,"Velocity":64,"Duration":663499,"SoundDuration":663499,"Delta":227813771},{"NoteNumber":45,"Velocity":45,"Duration":783137,"SoundDuration":783137,"Delta":227813771},{"NoteNumber":49,"Velocity":45,"Duration":783137,"SoundDuration":783137,"Delta":227813771},{"NoteNumber":55,"Velocity":54,"Duration":783137,"SoundDuration":783137,"Delta":227813771},{"NoteNumber":71,"Velocity":50,"Duration":49505,"SoundDuration":49505,"Delta":228497898},{"NoteNumber":67,"Velocity":41,"Duration":49505,"SoundDuration":49505,"Delta":228497898},{"NoteNumber":66,"Velocity":44,"Duration":282362,"SoundDuration":282362,"Delta":228596908},{"NoteNumber":69,"Velocity":53,"Duration":282362,"SoundDuration":282362,"Delta":228596908},{"NoteNumber":67,"Velocity":47,"Duration":48543,"SoundDuration":48543,"Delta":228888170},{"NoteNumber":64,"Velocity":39,"Duration":48543,"SoundDuration":48543,"Delta":228888170},{"NoteNumber":66,"Velocity":50,"Duration":303079,"SoundDuration":303079,"Delta":228985258},{"NoteNumber":62,"Velocity":41,"Duration":303079,"SoundDuration":303079,"Delta":228985258},{"NoteNumber":57,"Velocity":36,"Duration":60975,"SoundDuration":60975,"Delta":229299517},{"NoteNumber":64,"Velocity":44,"Duration":60975,"SoundDuration":60975,"Delta":229299517},{"NoteNumber":62,"Velocity":46,"Duration":813810,"SoundDuration":813810,"Delta":229421468},{"NoteNumber":54,"Velocity":39,"Duration":813810,"SoundDuration":813810,"Delta":229421468},{"NoteNumber":38,"Velocity":33,"Duration":839159,"SoundDuration":839159,"Delta":229421468},{"NoteNumber":45,"Velocity":33,"Duration":839159,"SoundDuration":839159,"Delta":229421468},{"NoteNumber":50,"Velocity":39,"Duration":813810,"SoundDuration":813810,"Delta":229421468},{"NoteNumber":62,"Velocity":44,"Duration":824653,"SoundDuration":824653,"Delta":230260628},{"NoteNumber":54,"Velocity":37,"Duration":824653,"SoundDuration":824653,"Delta":230260628},{"NoteNumber":38,"Velocity":31,"Duration":824653,"SoundDuration":824653,"Delta":230260628},{"NoteNumber":45,"Velocity":31,"Duration":824653,"SoundDuration":824653,"Delta":230260628},{"NoteNumber":50,"Velocity":37,"Duration":824653,"SoundDuration":824653,"Delta":230260628},{"NoteNumber":62,"Velocity":44,"Duration":400000,"SoundDuration":400000,"Delta":231093962},{"NoteNumber":50,"Velocity":35,"Duration":400000,"SoundDuration":400000,"Delta":231093962},{"NoteNumber":62,"Velocity":41,"Duration":430188,"SoundDuration":430188,"Delta":231515015},{"NoteNumber":50,"Velocity":32,"Duration":430188,"SoundDuration":430188,"Delta":231515015},{"NoteNumber":59,"Velocity":37,"Duration":837147,"SoundDuration":837147,"Delta":231967845},{"NoteNumber":62,"Velocity":37,"Duration":837147,"SoundDuration":837147,"Delta":231967845},{"NoteNumber":71,"Velocity":44,"Duration":837147,"SoundDuration":837147,"Delta":231967845},{"NoteNumber":43,"Velocity":29,"Duration":837147,"SoundDuration":837147,"Delta":231967845},{"NoteNumber":50,"Velocity":29,"Duration":837147,"SoundDuration":837147,"Delta":231967845},{"NoteNumber":55,"Velocity":35,"Duration":837147,"SoundDuration":837147,"Delta":231967845},{"NoteNumber":59,"Velocity":37,"Duration":393103,"SoundDuration":393103,"Delta":232812915},{"NoteNumber":62,"Velocity":37,"Duration":393103,"SoundDuration":393103,"Delta":232812915},{"NoteNumber":71,"Velocity":44,"Duration":393103,"SoundDuration":393103,"Delta":232812915},{"NoteNumber":43,"Velocity":29,"Duration":393103,"SoundDuration":393103,"Delta":232812915},{"NoteNumber":50,"Velocity":29,"Duration":393103,"SoundDuration":393103,"Delta":232812915},{"NoteNumber":55,"Velocity":35,"Duration":393103,"SoundDuration":393103,"Delta":232812915},{"NoteNumber":59,"Velocity":37,"Duration":375000,"SoundDuration":375000,"Delta":233226708},{"NoteNumber":62,"Velocity":37,"Duration":375000,"SoundDuration":375000,"Delta":233226708},{"NoteNumber":71,"Velocity":44,"Duration":375000,"SoundDuration":375000,"Delta":233226708},{"NoteNumber":43,"Velocity":29,"Duration":375000,"SoundDuration":375000,"Delta":233226708},{"NoteNumber":50,"Velocity":29,"Duration":375000,"SoundDuration":375000,"Delta":233226708},{"NoteNumber":55,"Velocity":35,"Duration":375000,"SoundDuration":375000,"Delta":233226708},{"NoteNumber":59,"Velocity":35,"Duration":365384,"SoundDuration":365384,"Delta":233621445},{"NoteNumber":62,"Velocity":35,"Duration":365384,"SoundDuration":365384,"Delta":233621445},{"NoteNumber":71,"Velocity":42,"Duration":365384,"SoundDuration":365384,"Delta":233621445},{"NoteNumber":43,"Velocity":28,"Duration":365384,"SoundDuration":365384,"Delta":233621445},{"NoteNumber":50,"Velocity":28,"Duration":365384,"SoundDuration":365384,"Delta":233621445},{"NoteNumber":55,"Velocity":33,"Duration":365384,"SoundDuration":365384,"Delta":233621445},{"NoteNumber":59,"Velocity":35,"Duration":387754,"SoundDuration":387754,"Delta":234006060},{"NoteNumber":62,"Velocity":35,"Duration":387754,"SoundDuration":387754,"Delta":234006060},{"NoteNumber":71,"Velocity":42,"Duration":387754,"SoundDuration":387754,"Delta":234006060},{"NoteNumber":43,"Velocity":28,"Duration":387754,"SoundDuration":387754,"Delta":234006060},{"NoteNumber":50,"Velocity":28,"Duration":387754,"SoundDuration":387754,"Delta":234006060},{"NoteNumber":55,"Velocity":33,"Duration":387754,"SoundDuration":387754,"Delta":234006060},{"NoteNumber":59,"Velocity":37,"Duration":381271,"SoundDuration":381271,"Delta":234414223},{"NoteNumber":62,"Velocity":37,"Duration":381271,"SoundDuration":381271,"Delta":234414223},{"NoteNumber":71,"Velocity":44,"Duration":381271,"SoundDuration":381271,"Delta":234414223},{"NoteNumber":43,"Velocity":29,"Duration":381271,"SoundDuration":381271,"Delta":234414223},{"NoteNumber":50,"Velocity":29,"Duration":381271,"SoundDuration":381271,"Delta":234414223},{"NoteNumber":55,"Velocity":35,"Duration":381271,"SoundDuration":381271,"Delta":234414223},{"NoteNumber":64,"Velocity":40,"Duration":377023,"SoundDuration":377023,"Delta":234815561},{"NoteNumber":67,"Velocity":40,"Duration":377023,"SoundDuration":377023,"Delta":234815561},{"NoteNumber":76,"Velocity":48,"Duration":377023,"SoundDuration":377023,"Delta":234815561},{"NoteNumber":48,"Velocity":32,"Duration":376214,"SoundDuration":376214,"Delta":234815561},{"NoteNumber":50,"Velocity":32,"Duration":377023,"SoundDuration":377023,"Delta":234815561},{"NoteNumber":60,"Velocity":38,"Duration":376214,"SoundDuration":376214,"Delta":234815561},{"NoteNumber":62,"Velocity":37,"Duration":387754,"SoundDuration":387754,"Delta":235203911},{"NoteNumber":67,"Velocity":37,"Duration":387754,"SoundDuration":387754,"Delta":235203911},{"NoteNumber":74,"Velocity":44,"Duration":387754,"SoundDuration":387754,"Delta":235203911},{"NoteNumber":50,"Velocity":29,"Duration":387754,"SoundDuration":387754,"Delta":235203911},{"NoteNumber":47,"Velocity":29,"Duration":387754,"SoundDuration":387754,"Delta":235203911},{"NoteNumber":59,"Velocity":35,"Duration":387754,"SoundDuration":387754,"Delta":235203911},{"NoteNumber":62,"Velocity":37,"Duration":366559,"SoundDuration":366559,"Delta":235612074},{"NoteNumber":67,"Velocity":37,"Duration":366559,"SoundDuration":366559,"Delta":235612074},{"NoteNumber":74,"Velocity":44,"Duration":366559,"SoundDuration":366559,"Delta":235612074},{"NoteNumber":47,"Velocity":29,"Duration":366559,"SoundDuration":366559,"Delta":235612074},{"NoteNumber":50,"Velocity":29,"Duration":366559,"SoundDuration":366559,"Delta":235612074},{"NoteNumber":59,"Velocity":35,"Duration":366559,"SoundDuration":366559,"Delta":235612074},{"NoteNumber":62,"Velocity":34,"Duration":363057,"SoundDuration":363057,"Delta":235997926},{"NoteNumber":67,"Velocity":34,"Duration":363057,"SoundDuration":363057,"Delta":235997926},{"NoteNumber":74,"Velocity":40,"Duration":363057,"SoundDuration":363057,"Delta":235997926},{"NoteNumber":47,"Velocity":27,"Duration":363057,"SoundDuration":363057,"Delta":235997926},{"NoteNumber":50,"Velocity":27,"Duration":363057,"SoundDuration":363057,"Delta":235997926},{"NoteNumber":59,"Velocity":32,"Duration":363057,"SoundDuration":363057,"Delta":235997926},{"NoteNumber":62,"Velocity":34,"Duration":393103,"SoundDuration":393103,"Delta":236380092},{"NoteNumber":67,"Velocity":34,"Duration":393103,"SoundDuration":393103,"Delta":236380092},{"NoteNumber":74,"Velocity":40,"Duration":393103,"SoundDuration":393103,"Delta":236380092},{"NoteNumber":47,"Velocity":27,"Duration":393103,"SoundDuration":393103,"Delta":236380092},{"NoteNumber":50,"Velocity":27,"Duration":393103,"SoundDuration":393103,"Delta":236380092},{"NoteNumber":59,"Velocity":32,"Duration":393103,"SoundDuration":393103,"Delta":236380092},{"NoteNumber":62,"Velocity":37,"Duration":387097,"SoundDuration":387097,"Delta":236793885},{"NoteNumber":67,"Velocity":37,"Duration":387097,"SoundDuration":387097,"Delta":236793885},{"NoteNumber":74,"Velocity":44,"Duration":387097,"SoundDuration":387097,"Delta":236793885},{"NoteNumber":47,"Velocity":29,"Duration":387097,"SoundDuration":387097,"Delta":236793885},{"NoteNumber":50,"Velocity":29,"Duration":387097,"SoundDuration":387097,"Delta":236793885},{"NoteNumber":59,"Velocity":35,"Duration":387097,"SoundDuration":387097,"Delta":236793885},{"NoteNumber":57,"Velocity":33,"Duration":389632,"SoundDuration":389632,"Delta":237180982},{"NoteNumber":62,"Velocity":33,"Duration":389632,"SoundDuration":389632,"Delta":237180982},{"NoteNumber":69,"Velocity":39,"Duration":389632,"SoundDuration":389632,"Delta":237180982},{"NoteNumber":42,"Velocity":26,"Duration":389632,"SoundDuration":389632,"Delta":237180982},{"NoteNumber":50,"Velocity":26,"Duration":389632,"SoundDuration":389632,"Delta":237180982},{"NoteNumber":54,"Velocity":31,"Duration":389632,"SoundDuration":389632,"Delta":237180982},{"NoteNumber":60,"Velocity":33,"Duration":405051,"SoundDuration":405051,"Delta":237582320},{"NoteNumber":62,"Velocity":33,"Duration":405922,"SoundDuration":405922,"Delta":237582320},{"NoteNumber":72,"Velocity":39,"Duration":405051,"SoundDuration":405051,"Delta":237582320},{"NoteNumber":45,"Velocity":26,"Duration":405922,"SoundDuration":405922,"Delta":237582320},{"NoteNumber":50,"Velocity":26,"Duration":405922,"SoundDuration":405922,"Delta":237582320},{"NoteNumber":57,"Velocity":31,"Duration":405922,"SoundDuration":405922,"Delta":237582320},{"NoteNumber":60,"Velocity":37,"Duration":375000,"SoundDuration":375000,"Delta":238000438},{"NoteNumber":62,"Velocity":37,"Duration":375806,"SoundDuration":375806,"Delta":238000438},{"NoteNumber":72,"Velocity":44,"Duration":375000,"SoundDuration":375000,"Delta":238000438},{"NoteNumber":45,"Velocity":29,"Duration":375806,"SoundDuration":375806,"Delta":238000438},{"NoteNumber":50,"Velocity":29,"Duration":375806,"SoundDuration":375806,"Delta":238000438},{"NoteNumber":57,"Velocity":35,"Duration":375806,"SoundDuration":375806,"Delta":238000438},{"NoteNumber":59,"Velocity":35,"Duration":388333,"SoundDuration":388333,"Delta":238387535},{"NoteNumber":62,"Velocity":35,"Duration":388333,"SoundDuration":388333,"Delta":238387535},{"NoteNumber":71,"Velocity":42,"Duration":388333,"SoundDuration":388333,"Delta":238387535},{"NoteNumber":43,"Velocity":28,"Duration":388333,"SoundDuration":388333,"Delta":238387535},{"NoteNumber":50,"Velocity":28,"Duration":388333,"SoundDuration":388333,"Delta":238387535},{"NoteNumber":55,"Velocity":33,"Duration":388333,"SoundDuration":388333,"Delta":238387535},{"NoteNumber":57,"Velocity":35,"Duration":407342,"SoundDuration":407342,"Delta":238787535},{"NoteNumber":62,"Velocity":35,"Duration":407342,"SoundDuration":407342,"Delta":238787535},{"NoteNumber":69,"Velocity":42,"Duration":407342,"SoundDuration":407342,"Delta":238787535},{"NoteNumber":42,"Velocity":28,"Duration":407342,"SoundDuration":407342,"Delta":238787535},{"NoteNumber":50,"Velocity":28,"Duration":407342,"SoundDuration":407342,"Delta":238787535},{"NoteNumber":54,"Velocity":33,"Duration":407342,"SoundDuration":407342,"Delta":238787535},{"NoteNumber":57,"Velocity":37,"Duration":400343,"SoundDuration":400343,"Delta":239207115},{"NoteNumber":62,"Velocity":37,"Duration":400343,"SoundDuration":400343,"Delta":239207115},{"NoteNumber":69,"Velocity":44,"Duration":400343,"SoundDuration":400343,"Delta":239207115},{"NoteNumber":42,"Velocity":29,"Duration":400343,"SoundDuration":400343,"Delta":239207115},{"NoteNumber":50,"Velocity":29,"Duration":400343,"SoundDuration":400343,"Delta":239207115},{"NoteNumber":54,"Velocity":35,"Duration":400343,"SoundDuration":400343,"Delta":239207115},{"NoteNumber":59,"Velocity":33,"Duration":388333,"SoundDuration":388333,"Delta":239619486},{"NoteNumber":62,"Velocity":33,"Duration":388333,"SoundDuration":388333,"Delta":239619486},{"NoteNumber":71,"Velocity":39,"Duration":388333,"SoundDuration":388333,"Delta":239619486},{"NoteNumber":43,"Velocity":26,"Duration":388333,"SoundDuration":388333,"Delta":239619486},{"NoteNumber":50,"Velocity":26,"Duration":388333,"SoundDuration":388333,"Delta":239619486},{"NoteNumber":55,"Velocity":31,"Duration":388333,"SoundDuration":388333,"Delta":239619486},{"NoteNumber":59,"Velocity":33,"Duration":413120,"SoundDuration":413120,"Delta":240019486},{"NoteNumber":62,"Velocity":33,"Duration":413120,"SoundDuration":413120,"Delta":240019486},{"NoteNumber":71,"Velocity":39,"Duration":413120,"SoundDuration":413120,"Delta":240019486},{"NoteNumber":43,"Velocity":26,"Duration":413120,"SoundDuration":413120,"Delta":240019486},{"NoteNumber":50,"Velocity":26,"Duration":413120,"SoundDuration":413120,"Delta":240019486},{"NoteNumber":55,"Velocity":31,"Duration":413120,"SoundDuration":413120,"Delta":240019486},{"NoteNumber":59,"Velocity":37,"Duration":389632,"SoundDuration":389632,"Delta":240445018},{"NoteNumber":62,"Velocity":37,"Duration":389632,"SoundDuration":389632,"Delta":240445018},{"NoteNumber":71,"Velocity":44,"Duration":389632,"SoundDuration":389632,"Delta":240445018},{"NoteNumber":43,"Velocity":29,"Duration":389632,"SoundDuration":389632,"Delta":240445018},{"NoteNumber":50,"Velocity":29,"Duration":389632,"SoundDuration":389632,"Delta":240445018},{"NoteNumber":55,"Velocity":35,"Duration":389632,"SoundDuration":389632,"Delta":240445018},{"NoteNumber":62,"Velocity":43,"Duration":401724,"SoundDuration":401724,"Delta":240846356},{"NoteNumber":69,"Velocity":51,"Duration":401724,"SoundDuration":401724,"Delta":240846356},{"NoteNumber":57,"Velocity":43,"Duration":401724,"SoundDuration":401724,"Delta":240846356},{"NoteNumber":42,"Velocity":33,"Duration":401724,"SoundDuration":401724,"Delta":240846356},{"NoteNumber":50,"Velocity":33,"Duration":401724,"SoundDuration":401724,"Delta":240846356},{"NoteNumber":54,"Velocity":40,"Duration":401724,"SoundDuration":401724,"Delta":240846356},{"NoteNumber":62,"Velocity":50,"Duration":417563,"SoundDuration":417563,"Delta":241260149},{"NoteNumber":67,"Velocity":60,"Duration":417563,"SoundDuration":417563,"Delta":241260149},{"NoteNumber":55,"Velocity":50,"Duration":417563,"SoundDuration":417563,"Delta":241260149},{"NoteNumber":40,"Velocity":39,"Duration":417563,"SoundDuration":417563,"Delta":241260149},{"NoteNumber":50,"Velocity":39,"Duration":417563,"SoundDuration":417563,"Delta":241260149},{"NoteNumber":52,"Velocity":47,"Duration":417563,"SoundDuration":417563,"Delta":241260149},{"NoteNumber":62,"Velocity":55,"Duration":821799,"SoundDuration":821799,"Delta":241690257},{"NoteNumber":69,"Velocity":66,"Duration":822664,"SoundDuration":822664,"Delta":241690257},{"NoteNumber":66,"Velocity":55,"Duration":821799,"SoundDuration":821799,"Delta":241690257},{"NoteNumber":57,"Velocity":55,"Duration":822664,"SoundDuration":822664,"Delta":241690257},{"NoteNumber":38,"Velocity":43,"Duration":822664,"SoundDuration":822664,"Delta":241690257},{"NoteNumber":50,"Velocity":52,"Duration":822664,"SoundDuration":822664,"Delta":241690257},{"NoteNumber":57,"Velocity":44,"Duration":394463,"SoundDuration":394463,"Delta":242520707},{"NoteNumber":62,"Velocity":44,"Duration":394463,"SoundDuration":394463,"Delta":242520707},{"NoteNumber":66,"Velocity":44,"Duration":394463,"SoundDuration":394463,"Delta":242520707},{"NoteNumber":69,"Velocity":52,"Duration":394463,"SoundDuration":394463,"Delta":242520707},{"NoteNumber":38,"Velocity":34,"Duration":394463,"SoundDuration":394463,"Delta":242520707},{"NoteNumber":50,"Velocity":42,"Duration":394463,"SoundDuration":394463,"Delta":242520707},{"NoteNumber":57,"Velocity":44,"Duration":371335,"SoundDuration":371335,"Delta":242935932},{"NoteNumber":62,"Velocity":44,"Duration":371335,"SoundDuration":371335,"Delta":242935932},{"NoteNumber":66,"Velocity":44,"Duration":371335,"SoundDuration":371335,"Delta":242935932},{"NoteNumber":69,"Velocity":52,"Duration":371335,"SoundDuration":371335,"Delta":242935932},{"NoteNumber":38,"Velocity":34,"Duration":371335,"SoundDuration":371335,"Delta":242935932},{"NoteNumber":50,"Velocity":42,"Duration":371335,"SoundDuration":371335,"Delta":242935932},{"NoteNumber":66,"Velocity":42,"Duration":383837,"SoundDuration":383837,"Delta":243326811},{"NoteNumber":57,"Velocity":42,"Duration":383837,"SoundDuration":383837,"Delta":243326811},{"NoteNumber":69,"Velocity":50,"Duration":383837,"SoundDuration":383837,"Delta":243326811},{"NoteNumber":62,"Velocity":42,"Duration":383837,"SoundDuration":383837,"Delta":243326811},{"NoteNumber":38,"Velocity":33,"Duration":383837,"SoundDuration":383837,"Delta":243326811},{"NoteNumber":50,"Velocity":39,"Duration":383837,"SoundDuration":383837,"Delta":243326811},{"NoteNumber":62,"Velocity":42,"Duration":393103,"SoundDuration":393103,"Delta":243730851},{"NoteNumber":57,"Velocity":42,"Duration":393103,"SoundDuration":393103,"Delta":243730851},{"NoteNumber":67,"Velocity":42,"Duration":393103,"SoundDuration":393103,"Delta":243730851},{"NoteNumber":69,"Velocity":50,"Duration":393103,"SoundDuration":393103,"Delta":243730851},{"NoteNumber":40,"Velocity":33,"Duration":393103,"SoundDuration":393103,"Delta":243730851},{"NoteNumber":50,"Velocity":33,"Duration":393103,"SoundDuration":393103,"Delta":243730851},{"NoteNumber":52,"Velocity":39,"Duration":393103,"SoundDuration":393103,"Delta":243730851},{"NoteNumber":57,"Velocity":45,"Duration":393103,"SoundDuration":393103,"Delta":244144644},{"NoteNumber":62,"Velocity":45,"Duration":393103,"SoundDuration":393103,"Delta":244144644},{"NoteNumber":69,"Velocity":54,"Duration":393103,"SoundDuration":393103,"Delta":244144644},{"NoteNumber":42,"Velocity":28,"Duration":393103,"SoundDuration":393103,"Delta":244144644},{"NoteNumber":50,"Velocity":28,"Duration":393103,"SoundDuration":393103,"Delta":244144644},{"NoteNumber":54,"Velocity":42,"Duration":393103,"SoundDuration":393103,"Delta":244144644},{"NoteNumber":66,"Velocity":53,"Duration":381967,"SoundDuration":381967,"Delta":244558437},{"NoteNumber":74,"Velocity":63,"Duration":381967,"SoundDuration":381967,"Delta":244558437},{"NoteNumber":62,"Velocity":53,"Duration":381967,"SoundDuration":381967,"Delta":244558437},{"NoteNumber":45,"Velocity":36,"Duration":381967,"SoundDuration":381967,"Delta":244558437},{"NoteNumber":54,"Velocity":36,"Duration":381967,"SoundDuration":381967,"Delta":244558437},{"NoteNumber":57,"Velocity":50,"Duration":381967,"SoundDuration":381967,"Delta":244558437},{"NoteNumber":69,"Velocity":56,"Duration":387754,"SoundDuration":387754,"Delta":244951880},{"NoteNumber":78,"Velocity":66,"Duration":387754,"SoundDuration":387754,"Delta":244951880},{"NoteNumber":66,"Velocity":56,"Duration":387754,"SoundDuration":387754,"Delta":244951880},{"NoteNumber":57,"Velocity":36,"Duration":387754,"SoundDuration":387754,"Delta":244951880},{"NoteNumber":50,"Velocity":36,"Duration":387754,"SoundDuration":387754,"Delta":244951880},{"NoteNumber":62,"Velocity":52,"Duration":387754,"SoundDuration":387754,"Delta":244951880},{"NoteNumber":78,"Velocity":66,"Duration":383837,"SoundDuration":383837,"Delta":245360043},{"NoteNumber":66,"Velocity":56,"Duration":383837,"SoundDuration":383837,"Delta":245360043},{"NoteNumber":69,"Velocity":56,"Duration":383837,"SoundDuration":383837,"Delta":245360043},{"NoteNumber":50,"Velocity":51,"Duration":383837,"SoundDuration":383837,"Delta":245360043},{"NoteNumber":57,"Velocity":51,"Duration":383837,"SoundDuration":383837,"Delta":245360043},{"NoteNumber":62,"Velocity":60,"Duration":383837,"SoundDuration":383837,"Delta":245360043},{"NoteNumber":66,"Velocity":58,"Duration":393103,"SoundDuration":393103,"Delta":245764083},{"NoteNumber":78,"Velocity":69,"Duration":393103,"SoundDuration":393103,"Delta":245764083},{"NoteNumber":69,"Velocity":58,"Duration":393103,"SoundDuration":393103,"Delta":245764083},{"NoteNumber":50,"Velocity":52,"Duration":393103,"SoundDuration":393103,"Delta":245764083},{"NoteNumber":57,"Velocity":52,"Duration":393103,"SoundDuration":393103,"Delta":245764083},{"NoteNumber":62,"Velocity":62,"Duration":393103,"SoundDuration":393103,"Delta":245764083},{"NoteNumber":66,"Velocity":61,"Duration":433460,"SoundDuration":433460,"Delta":246177876},{"NoteNumber":78,"Velocity":72,"Duration":433460,"SoundDuration":433460,"Delta":246177876},{"NoteNumber":69,"Velocity":61,"Duration":433460,"SoundDuration":433460,"Delta":246177876},{"NoteNumber":50,"Velocity":54,"Duration":433460,"SoundDuration":433460,"Delta":246177876},{"NoteNumber":57,"Velocity":54,"Duration":433460,"SoundDuration":433460,"Delta":246177876},{"NoteNumber":62,"Velocity":64,"Duration":433460,"SoundDuration":433460,"Delta":246177876},{"NoteNumber":70,"Velocity":63,"Duration":398601,"SoundDuration":398601,"Delta":246634150},{"NoteNumber":66,"Velocity":63,"Duration":398601,"SoundDuration":398601,"Delta":246634150},{"NoteNumber":78,"Velocity":75,"Duration":398601,"SoundDuration":398601,"Delta":246634150},{"NoteNumber":49,"Velocity":56,"Duration":398601,"SoundDuration":398601,"Delta":246634150},{"NoteNumber":58,"Velocity":56,"Duration":398601,"SoundDuration":398601,"Delta":246634150},{"NoteNumber":61,"Velocity":66,"Duration":398601,"SoundDuration":398601,"Delta":246634150},{"NoteNumber":66,"Velocity":56,"Duration":417582,"SoundDuration":417582,"Delta":247053730},{"NoteNumber":70,"Velocity":56,"Duration":417582,"SoundDuration":417582,"Delta":247053730},{"NoteNumber":78,"Velocity":66,"Duration":417582,"SoundDuration":417582,"Delta":247053730},{"NoteNumber":49,"Velocity":47,"Duration":417582,"SoundDuration":417582,"Delta":247053730},{"NoteNumber":58,"Velocity":47,"Duration":417582,"SoundDuration":417582,"Delta":247053730},{"NoteNumber":61,"Velocity":56,"Duration":417582,"SoundDuration":417582,"Delta":247053730},{"NoteNumber":78,"Velocity":61,"Duration":417582,"SoundDuration":417582,"Delta":247493290},{"NoteNumber":70,"Velocity":52,"Duration":417582,"SoundDuration":417582,"Delta":247493290},{"NoteNumber":66,"Velocity":52,"Duration":417582,"SoundDuration":417582,"Delta":247493290},{"NoteNumber":49,"Velocity":44,"Duration":417582,"SoundDuration":417582,"Delta":247493290},{"NoteNumber":58,"Velocity":44,"Duration":417582,"SoundDuration":417582,"Delta":247493290},{"NoteNumber":61,"Velocity":52,"Duration":417582,"SoundDuration":417582,"Delta":247493290},{"NoteNumber":70,"Velocity":44,"Duration":394463,"SoundDuration":394463,"Delta":247932850},{"NoteNumber":78,"Velocity":52,"Duration":394463,"SoundDuration":394463,"Delta":247932850},{"NoteNumber":66,"Velocity":44,"Duration":394463,"SoundDuration":394463,"Delta":247932850},{"NoteNumber":49,"Velocity":37,"Duration":394463,"SoundDuration":394463,"Delta":247932850},{"NoteNumber":58,"Velocity":37,"Duration":394463,"SoundDuration":394463,"Delta":247932850},{"NoteNumber":61,"Velocity":44,"Duration":394463,"SoundDuration":394463,"Delta":247932850},{"NoteNumber":78,"Velocity":48,"Duration":408602,"SoundDuration":408602,"Delta":248348075},{"NoteNumber":66,"Velocity":40,"Duration":408602,"SoundDuration":408602,"Delta":248348075},{"NoteNumber":70,"Velocity":40,"Duration":408602,"SoundDuration":408602,"Delta":248348075},{"NoteNumber":49,"Velocity":33,"Duration":408602,"SoundDuration":408602,"Delta":248348075},{"NoteNumber":58,"Velocity":33,"Duration":408602,"SoundDuration":408602,"Delta":248348075},{"NoteNumber":61,"Velocity":40,"Duration":408602,"SoundDuration":408602,"Delta":248348075},{"NoteNumber":78,"Velocity":43,"Duration":440154,"SoundDuration":440154,"Delta":248778183},{"NoteNumber":66,"Velocity":36,"Duration":440154,"SoundDuration":440154,"Delta":248778183},{"NoteNumber":70,"Velocity":36,"Duration":440154,"SoundDuration":440154,"Delta":248778183},{"NoteNumber":49,"Velocity":29,"Duration":440154,"SoundDuration":440154,"Delta":248778183},{"NoteNumber":58,"Velocity":29,"Duration":440154,"SoundDuration":440154,"Delta":248778183},{"NoteNumber":61,"Velocity":36,"Duration":440154,"SoundDuration":440154,"Delta":248778183},{"NoteNumber":69,"Velocity":32,"Duration":437970,"SoundDuration":437970,"Delta":249241503},{"NoteNumber":78,"Velocity":39,"Duration":437970,"SoundDuration":437970,"Delta":249241503},{"NoteNumber":66,"Velocity":32,"Duration":437970,"SoundDuration":437970,"Delta":249241503},{"NoteNumber":50,"Velocity":28,"Duration":437970,"SoundDuration":437970,"Delta":249241503},{"NoteNumber":57,"Velocity":28,"Duration":437970,"SoundDuration":437970,"Delta":249241503},{"NoteNumber":62,"Velocity":33,"Duration":437970,"SoundDuration":437970,"Delta":249241503},{"NoteNumber":79,"Velocity":36,"Duration":471659,"SoundDuration":471659,"Delta":249692631},{"NoteNumber":67,"Velocity":31,"Duration":471659,"SoundDuration":471659,"Delta":249692631},{"NoteNumber":69,"Velocity":31,"Duration":471659,"SoundDuration":471659,"Delta":249692631},{"NoteNumber":52,"Velocity":25,"Duration":471659,"SoundDuration":471659,"Delta":249692631},{"NoteNumber":57,"Velocity":25,"Duration":471659,"SoundDuration":471659,"Delta":249692631},{"NoteNumber":64,"Velocity":30,"Duration":471659,"SoundDuration":471659,"Delta":249692631},{"NoteNumber":81,"Velocity":38,"Duration":723602,"SoundDuration":723602,"Delta":250178461},{"NoteNumber":69,"Velocity":32,"Duration":723602,"SoundDuration":723602,"Delta":250178461},{"NoteNumber":54,"Velocity":25,"Duration":723602,"SoundDuration":723602,"Delta":250178461},{"NoteNumber":57,"Velocity":25,"Duration":723602,"SoundDuration":723602,"Delta":250178461},{"NoteNumber":66,"Velocity":30,"Duration":723602,"SoundDuration":723602,"Delta":250178461},{"NoteNumber":66,"Velocity":36,"Duration":394915,"SoundDuration":394915,"Delta":250923803},{"NoteNumber":62,"Velocity":36,"Duration":394915,"SoundDuration":394915,"Delta":250923803},{"NoteNumber":74,"Velocity":43,"Duration":394915,"SoundDuration":394915,"Delta":250923803},{"NoteNumber":47,"Velocity":29,"Duration":394915,"SoundDuration":394915,"Delta":250923803},{"NoteNumber":59,"Velocity":35,"Duration":394915,"SoundDuration":394915,"Delta":250923803},{"NoteNumber":67,"Velocity":30,"Duration":388333,"SoundDuration":388333,"Delta":251330583},{"NoteNumber":64,"Velocity":30,"Duration":388333,"SoundDuration":388333,"Delta":251330583},{"NoteNumber":76,"Velocity":36,"Duration":388333,"SoundDuration":388333,"Delta":251330583},{"NoteNumber":73,"Velocity":30,"Duration":388333,"SoundDuration":388333,"Delta":251330583},{"NoteNumber":45,"Velocity":25,"Duration":388333,"SoundDuration":388333,"Delta":251330583},{"NoteNumber":57,"Velocity":30,"Duration":388333,"SoundDuration":388333,"Delta":251330583},{"NoteNumber":69,"Velocity":30,"Duration":416071,"SoundDuration":416071,"Delta":251730583},{"NoteNumber":66,"Velocity":30,"Duration":416071,"SoundDuration":416071,"Delta":251730583},{"NoteNumber":74,"Velocity":30,"Duration":416071,"SoundDuration":416071,"Delta":251730583},{"NoteNumber":78,"Velocity":36,"Duration":416071,"SoundDuration":416071,"Delta":251730583},{"NoteNumber":42,"Velocity":25,"Duration":416071,"SoundDuration":416071,"Delta":251730583},{"NoteNumber":54,"Velocity":30,"Duration":416071,"SoundDuration":416071,"Delta":251730583},{"NoteNumber":67,"Velocity":34,"Duration":808672,"SoundDuration":808672,"Delta":252159154},{"NoteNumber":76,"Velocity":41,"Duration":808672,"SoundDuration":808672,"Delta":252159154},{"NoteNumber":69,"Velocity":34,"Duration":808672,"SoundDuration":808672,"Delta":252159154},{"NoteNumber":73,"Velocity":34,"Duration":808672,"SoundDuration":808672,"Delta":252159154},{"NoteNumber":45,"Velocity":31,"Duration":808672,"SoundDuration":808672,"Delta":252159154},{"NoteNumber":57,"Velocity":37,"Duration":808672,"SoundDuration":808672,"Delta":252159154},{"NoteNumber":66,"Velocity":32,"Duration":442966,"SoundDuration":442966,"Delta":252975480},{"NoteNumber":69,"Velocity":32,"Duration":442966,"SoundDuration":442966,"Delta":252975480},{"NoteNumber":74,"Velocity":38,"Duration":442966,"SoundDuration":442966,"Delta":252975480},{"NoteNumber":50,"Velocity":26,"Duration":442966,"SoundDuration":442966,"Delta":252975480},{"NoteNumber":57,"Velocity":26,"Duration":442966,"SoundDuration":442966,"Delta":252975480},{"NoteNumber":62,"Velocity":31,"Duration":442966,"SoundDuration":442966,"Delta":252975480},{"NoteNumber":66,"Velocity":36,"Duration":508733,"SoundDuration":508733,"Delta":253431754},{"NoteNumber":74,"Velocity":43,"Duration":508733,"SoundDuration":508733,"Delta":253431754},{"NoteNumber":69,"Velocity":36,"Duration":508733,"SoundDuration":508733,"Delta":253431754},{"NoteNumber":50,"Velocity":30,"Duration":508733,"SoundDuration":508733,"Delta":253431754},{"NoteNumber":57,"Velocity":30,"Duration":508733,"SoundDuration":508733,"Delta":253431754},{"NoteNumber":62,"Velocity":36,"Duration":508733,"SoundDuration":508733,"Delta":253431754},{"NoteNumber":62,"Velocity":44,"Duration":400000,"SoundDuration":400000,"Delta":253955771},{"NoteNumber":50,"Velocity":35,"Duration":400000,"SoundDuration":400000,"Delta":253955771},{"NoteNumber":62,"Velocity":41,"Duration":420663,"SoundDuration":420663,"Delta":254376824},{"NoteNumber":50,"Velocity":32,"Duration":420663,"SoundDuration":420663,"Delta":254376824},{"NoteNumber":59,"Velocity":37,"Duration":837147,"SoundDuration":837147,"Delta":254819628},{"NoteNumber":62,"Velocity":37,"Duration":837147,"SoundDuration":837147,"Delta":254819628},{"NoteNumber":71,"Velocity":44,"Duration":837147,"SoundDuration":837147,"Delta":254819628},{"NoteNumber":43,"Velocity":29,"Duration":837147,"SoundDuration":837147,"Delta":254819628},{"NoteNumber":50,"Velocity":29,"Duration":837147,"SoundDuration":837147,"Delta":254819628},{"NoteNumber":55,"Velocity":35,"Duration":837147,"SoundDuration":837147,"Delta":254819628},{"NoteNumber":59,"Velocity":37,"Duration":387754,"SoundDuration":387754,"Delta":255664698},{"NoteNumber":71,"Velocity":44,"Duration":387754,"SoundDuration":387754,"Delta":255664698},{"NoteNumber":62,"Velocity":37,"Duration":387754,"SoundDuration":387754,"Delta":255664698},{"NoteNumber":43,"Velocity":29,"Duration":387754,"SoundDuration":387754,"Delta":255664698},{"NoteNumber":50,"Velocity":29,"Duration":387754,"SoundDuration":387754,"Delta":255664698},{"NoteNumber":55,"Velocity":35,"Duration":387754,"SoundDuration":387754,"Delta":255664698},{"NoteNumber":62,"Velocity":37,"Duration":373770,"SoundDuration":373770,"Delta":256072861},{"NoteNumber":59,"Velocity":37,"Duration":373770,"SoundDuration":373770,"Delta":256072861},{"NoteNumber":71,"Velocity":44,"Duration":373770,"SoundDuration":373770,"Delta":256072861},{"NoteNumber":43,"Velocity":29,"Duration":373770,"SoundDuration":373770,"Delta":256072861},{"NoteNumber":50,"Velocity":29,"Duration":373770,"SoundDuration":373770,"Delta":256072861},{"NoteNumber":55,"Velocity":35,"Duration":373770,"SoundDuration":373770,"Delta":256072861},{"NoteNumber":62,"Velocity":35,"Duration":364217,"SoundDuration":364217,"Delta":256466304},{"NoteNumber":59,"Velocity":35,"Duration":364217,"SoundDuration":364217,"Delta":256466304},{"NoteNumber":71,"Velocity":42,"Duration":364217,"SoundDuration":364217,"Delta":256466304},{"NoteNumber":43,"Velocity":28,"Duration":364217,"SoundDuration":364217,"Delta":256466304},{"NoteNumber":50,"Velocity":28,"Duration":364217,"SoundDuration":364217,"Delta":256466304},{"NoteNumber":55,"Velocity":33,"Duration":364217,"SoundDuration":364217,"Delta":256466304},{"NoteNumber":62,"Velocity":35,"Duration":386440,"SoundDuration":386440,"Delta":256849691},{"NoteNumber":71,"Velocity":42,"Duration":386440,"SoundDuration":386440,"Delta":256849691},{"NoteNumber":59,"Velocity":35,"Duration":386440,"SoundDuration":386440,"Delta":256849691},{"NoteNumber":43,"Velocity":28,"Duration":386440,"SoundDuration":386440,"Delta":256849691},{"NoteNumber":50,"Velocity":28,"Duration":386440,"SoundDuration":386440,"Delta":256849691},{"NoteNumber":55,"Velocity":33,"Duration":386440,"SoundDuration":386440,"Delta":256849691},{"NoteNumber":71,"Velocity":44,"Duration":386440,"SoundDuration":386440,"Delta":257256471},{"NoteNumber":59,"Velocity":37,"Duration":386440,"SoundDuration":386440,"Delta":257256471},{"NoteNumber":62,"Velocity":37,"Duration":386440,"SoundDuration":386440,"Delta":257256471},{"NoteNumber":43,"Velocity":29,"Duration":386440,"SoundDuration":386440,"Delta":257256471},{"NoteNumber":50,"Velocity":29,"Duration":386440,"SoundDuration":386440,"Delta":257256471},{"NoteNumber":55,"Velocity":35,"Duration":386440,"SoundDuration":386440,"Delta":257256471},{"NoteNumber":76,"Velocity":48,"Duration":380719,"SoundDuration":380719,"Delta":257663251},{"NoteNumber":64,"Velocity":40,"Duration":380719,"SoundDuration":380719,"Delta":257663251},{"NoteNumber":67,"Velocity":40,"Duration":380719,"SoundDuration":380719,"Delta":257663251},{"NoteNumber":48,"Velocity":32,"Duration":379902,"SoundDuration":379902,"Delta":257663251},{"NoteNumber":50,"Velocity":32,"Duration":380719,"SoundDuration":380719,"Delta":257663251},{"NoteNumber":60,"Velocity":38,"Duration":379902,"SoundDuration":379902,"Delta":257663251},{"NoteNumber":62,"Velocity":37,"Duration":387754,"SoundDuration":387754,"Delta":258055408},{"NoteNumber":67,"Velocity":37,"Duration":387754,"SoundDuration":387754,"Delta":258055408},{"NoteNumber":74,"Velocity":44,"Duration":387754,"SoundDuration":387754,"Delta":258055408},{"NoteNumber":50,"Velocity":29,"Duration":387754,"SoundDuration":387754,"Delta":258055408},{"NoteNumber":47,"Velocity":29,"Duration":387754,"SoundDuration":387754,"Delta":258055408},{"NoteNumber":59,"Velocity":35,"Duration":387754,"SoundDuration":387754,"Delta":258055408},{"NoteNumber":62,"Velocity":37,"Duration":366559,"SoundDuration":366559,"Delta":258463571},{"NoteNumber":74,"Velocity":44,"Duration":366559,"SoundDuration":366559,"Delta":258463571},{"NoteNumber":67,"Velocity":37,"Duration":366559,"SoundDuration":366559,"Delta":258463571},{"NoteNumber":47,"Velocity":29,"Duration":366559,"SoundDuration":366559,"Delta":258463571},{"NoteNumber":50,"Velocity":29,"Duration":366559,"SoundDuration":366559,"Delta":258463571},{"NoteNumber":59,"Velocity":35,"Duration":366559,"SoundDuration":366559,"Delta":258463571},{"NoteNumber":67,"Velocity":34,"Duration":359621,"SoundDuration":359621,"Delta":258849423},{"NoteNumber":74,"Velocity":40,"Duration":359621,"SoundDuration":359621,"Delta":258849423},{"NoteNumber":62,"Velocity":34,"Duration":359621,"SoundDuration":359621,"Delta":258849423},{"NoteNumber":47,"Velocity":27,"Duration":359621,"SoundDuration":359621,"Delta":258849423},{"NoteNumber":50,"Velocity":27,"Duration":359621,"SoundDuration":359621,"Delta":258849423},{"NoteNumber":59,"Velocity":32,"Duration":359621,"SoundDuration":359621,"Delta":258849423},{"NoteNumber":62,"Velocity":34,"Duration":393103,"SoundDuration":393103,"Delta":259227972},{"NoteNumber":74,"Velocity":40,"Duration":393103,"SoundDuration":393103,"Delta":259227972},{"NoteNumber":67,"Velocity":34,"Duration":393103,"SoundDuration":393103,"Delta":259227972},{"NoteNumber":47,"Velocity":27,"Duration":393103,"SoundDuration":393103,"Delta":259227972},{"NoteNumber":50,"Velocity":27,"Duration":393103,"SoundDuration":393103,"Delta":259227972},{"NoteNumber":59,"Velocity":32,"Duration":393103,"SoundDuration":393103,"Delta":259227972},{"NoteNumber":62,"Velocity":37,"Duration":390878,"SoundDuration":390878,"Delta":259641765},{"NoteNumber":74,"Velocity":44,"Duration":390878,"SoundDuration":390878,"Delta":259641765},{"NoteNumber":67,"Velocity":37,"Duration":390878,"SoundDuration":390878,"Delta":259641765},{"NoteNumber":47,"Velocity":29,"Duration":390878,"SoundDuration":390878,"Delta":259641765},{"NoteNumber":50,"Velocity":29,"Duration":390878,"SoundDuration":390878,"Delta":259641765},{"NoteNumber":59,"Velocity":35,"Duration":390878,"SoundDuration":390878,"Delta":259641765},{"NoteNumber":57,"Velocity":33,"Duration":388333,"SoundDuration":388333,"Delta":260032644},{"NoteNumber":62,"Velocity":33,"Duration":388333,"SoundDuration":388333,"Delta":260032644},{"NoteNumber":69,"Velocity":39,"Duration":388333,"SoundDuration":388333,"Delta":260032644},{"NoteNumber":42,"Velocity":26,"Duration":388333,"SoundDuration":388333,"Delta":260032644},{"NoteNumber":50,"Velocity":26,"Duration":388333,"SoundDuration":388333,"Delta":260032644},{"NoteNumber":54,"Velocity":31,"Duration":388333,"SoundDuration":388333,"Delta":260032644},{"NoteNumber":60,"Velocity":33,"Duration":396757,"SoundDuration":396757,"Delta":260432644},{"NoteNumber":62,"Velocity":33,"Duration":397610,"SoundDuration":397610,"Delta":260432644},{"NoteNumber":72,"Velocity":39,"Duration":396757,"SoundDuration":396757,"Delta":260432644},{"NoteNumber":45,"Velocity":26,"Duration":397610,"SoundDuration":397610,"Delta":260432644},{"NoteNumber":50,"Velocity":26,"Duration":397610,"SoundDuration":397610,"Delta":260432644},{"NoteNumber":57,"Velocity":31,"Duration":397610,"SoundDuration":397610,"Delta":260432644},{"NoteNumber":62,"Velocity":37,"Duration":381967,"SoundDuration":381967,"Delta":260842200},{"NoteNumber":72,"Velocity":44,"Duration":381147,"SoundDuration":381147,"Delta":260842200},{"NoteNumber":60,"Velocity":37,"Duration":381147,"SoundDuration":381147,"Delta":260842200},{"NoteNumber":45,"Velocity":29,"Duration":381967,"SoundDuration":381967,"Delta":260842200},{"NoteNumber":50,"Velocity":29,"Duration":381967,"SoundDuration":381967,"Delta":260842200},{"NoteNumber":57,"Velocity":35,"Duration":381967,"SoundDuration":381967,"Delta":260842200},{"NoteNumber":62,"Velocity":35,"Duration":392255,"SoundDuration":392255,"Delta":261235643},{"NoteNumber":71,"Velocity":42,"Duration":392255,"SoundDuration":392255,"Delta":261235643},{"NoteNumber":59,"Velocity":35,"Duration":392255,"SoundDuration":392255,"Delta":261235643},{"NoteNumber":43,"Velocity":28,"Duration":392255,"SoundDuration":392255,"Delta":261235643},{"NoteNumber":50,"Velocity":28,"Duration":392255,"SoundDuration":392255,"Delta":261235643},{"NoteNumber":55,"Velocity":33,"Duration":392255,"SoundDuration":392255,"Delta":261235643},{"NoteNumber":62,"Velocity":35,"Duration":416071,"SoundDuration":416071,"Delta":261639683},{"NoteNumber":69,"Velocity":42,"Duration":416071,"SoundDuration":416071,"Delta":261639683},{"NoteNumber":57,"Velocity":35,"Duration":416071,"SoundDuration":416071,"Delta":261639683},{"NoteNumber":42,"Velocity":28,"Duration":416071,"SoundDuration":416071,"Delta":261639683},{"NoteNumber":50,"Velocity":28,"Duration":416071,"SoundDuration":416071,"Delta":261639683},{"NoteNumber":54,"Velocity":33,"Duration":416071,"SoundDuration":416071,"Delta":261639683},{"NoteNumber":57,"Velocity":37,"Duration":400343,"SoundDuration":400343,"Delta":262068254},{"NoteNumber":69,"Velocity":44,"Duration":400343,"SoundDuration":400343,"Delta":262068254},{"NoteNumber":62,"Velocity":37,"Duration":400343,"SoundDuration":400343,"Delta":262068254},{"NoteNumber":42,"Velocity":29,"Duration":400343,"SoundDuration":400343,"Delta":262068254},{"NoteNumber":50,"Velocity":29,"Duration":400343,"SoundDuration":400343,"Delta":262068254},{"NoteNumber":54,"Velocity":35,"Duration":400343,"SoundDuration":400343,"Delta":262068254},{"NoteNumber":59,"Velocity":33,"Duration":388333,"SoundDuration":388333,"Delta":262480625},{"NoteNumber":71,"Velocity":39,"Duration":388333,"SoundDuration":388333,"Delta":262480625},{"NoteNumber":62,"Velocity":33,"Duration":388333,"SoundDuration":388333,"Delta":262480625},{"NoteNumber":43,"Velocity":26,"Duration":388333,"SoundDuration":388333,"Delta":262480625},{"NoteNumber":50,"Velocity":26,"Duration":388333,"SoundDuration":388333,"Delta":262480625},{"NoteNumber":55,"Velocity":31,"Duration":388333,"SoundDuration":388333,"Delta":262480625},{"NoteNumber":62,"Velocity":33,"Duration":413120,"SoundDuration":413120,"Delta":262880625},{"NoteNumber":71,"Velocity":39,"Duration":413120,"SoundDuration":413120,"Delta":262880625},{"NoteNumber":59,"Velocity":33,"Duration":413120,"SoundDuration":413120,"Delta":262880625},{"NoteNumber":43,"Velocity":26,"Duration":413120,"SoundDuration":413120,"Delta":262880625},{"NoteNumber":50,"Velocity":26,"Duration":413120,"SoundDuration":413120,"Delta":262880625},{"NoteNumber":55,"Velocity":31,"Duration":413120,"SoundDuration":413120,"Delta":262880625},{"NoteNumber":62,"Velocity":37,"Duration":389632,"SoundDuration":389632,"Delta":263306157},{"NoteNumber":71,"Velocity":44,"Duration":389632,"SoundDuration":389632,"Delta":263306157},{"NoteNumber":59,"Velocity":37,"Duration":389632,"SoundDuration":389632,"Delta":263306157},{"NoteNumber":43,"Velocity":29,"Duration":389632,"SoundDuration":389632,"Delta":263306157},{"NoteNumber":50,"Velocity":29,"Duration":389632,"SoundDuration":389632,"Delta":263306157},{"NoteNumber":55,"Velocity":35,"Duration":389632,"SoundDuration":389632,"Delta":263306157},{"NoteNumber":62,"Velocity":43,"Duration":401724,"SoundDuration":401724,"Delta":263707495},{"NoteNumber":69,"Velocity":51,"Duration":401724,"SoundDuration":401724,"Delta":263707495},{"NoteNumber":57,"Velocity":43,"Duration":401724,"SoundDuration":401724,"Delta":263707495},{"NoteNumber":42,"Velocity":33,"Duration":401724,"SoundDuration":401724,"Delta":263707495},{"NoteNumber":50,"Velocity":33,"Duration":401724,"SoundDuration":401724,"Delta":263707495},{"NoteNumber":54,"Velocity":40,"Duration":401724,"SoundDuration":401724,"Delta":263707495},{"NoteNumber":55,"Velocity":50,"Duration":417563,"SoundDuration":417563,"Delta":264121288},{"NoteNumber":67,"Velocity":60,"Duration":417563,"SoundDuration":417563,"Delta":264121288},{"NoteNumber":62,"Velocity":50,"Duration":417563,"SoundDuration":417563,"Delta":264121288},{"NoteNumber":40,"Velocity":39,"Duration":417563,"SoundDuration":417563,"Delta":264121288},{"NoteNumber":50,"Velocity":39,"Duration":417563,"SoundDuration":417563,"Delta":264121288},{"NoteNumber":52,"Velocity":47,"Duration":417563,"SoundDuration":417563,"Delta":264121288},{"NoteNumber":66,"Velocity":55,"Duration":821799,"SoundDuration":821799,"Delta":264551396},{"NoteNumber":62,"Velocity":55,"Duration":821799,"SoundDuration":821799,"Delta":264551396},{"NoteNumber":69,"Velocity":66,"Duration":822664,"SoundDuration":822664,"Delta":264551396},{"NoteNumber":57,"Velocity":55,"Duration":822664,"SoundDuration":822664,"Delta":264551396},{"NoteNumber":38,"Velocity":43,"Duration":822664,"SoundDuration":822664,"Delta":264551396},{"NoteNumber":50,"Velocity":52,"Duration":822664,"SoundDuration":822664,"Delta":264551396},{"NoteNumber":66,"Velocity":44,"Duration":394463,"SoundDuration":394463,"Delta":265381846},{"NoteNumber":62,"Velocity":44,"Duration":394463,"SoundDuration":394463,"Delta":265381846},{"NoteNumber":69,"Velocity":52,"Duration":394463,"SoundDuration":394463,"Delta":265381846},{"NoteNumber":57,"Velocity":44,"Duration":394463,"SoundDuration":394463,"Delta":265381846},{"NoteNumber":38,"Velocity":34,"Duration":394463,"SoundDuration":394463,"Delta":265381846},{"NoteNumber":50,"Velocity":42,"Duration":394463,"SoundDuration":394463,"Delta":265381846},{"NoteNumber":57,"Velocity":44,"Duration":372549,"SoundDuration":372549,"Delta":265797071},{"NoteNumber":62,"Velocity":44,"Duration":372549,"SoundDuration":372549,"Delta":265797071},{"NoteNumber":69,"Velocity":52,"Duration":372549,"SoundDuration":372549,"Delta":265797071},{"NoteNumber":66,"Velocity":44,"Duration":372549,"SoundDuration":372549,"Delta":265797071},{"NoteNumber":38,"Velocity":34,"Duration":372549,"SoundDuration":372549,"Delta":265797071},{"NoteNumber":50,"Velocity":42,"Duration":372549,"SoundDuration":372549,"Delta":265797071},{"NoteNumber":57,"Velocity":42,"Duration":383838,"SoundDuration":383838,"Delta":266189228},{"NoteNumber":62,"Velocity":42,"Duration":383838,"SoundDuration":383838,"Delta":266189228},{"NoteNumber":66,"Velocity":42,"Duration":383838,"SoundDuration":383838,"Delta":266189228},{"NoteNumber":69,"Velocity":50,"Duration":383838,"SoundDuration":383838,"Delta":266189228},{"NoteNumber":38,"Velocity":33,"Duration":383838,"SoundDuration":383838,"Delta":266189228},{"NoteNumber":50,"Velocity":39,"Duration":383838,"SoundDuration":383838,"Delta":266189228},{"NoteNumber":62,"Velocity":42,"Duration":393103,"SoundDuration":393103,"Delta":266593268},{"NoteNumber":69,"Velocity":50,"Duration":393103,"SoundDuration":393103,"Delta":266593268},{"NoteNumber":67,"Velocity":42,"Duration":393103,"SoundDuration":393103,"Delta":266593268},{"NoteNumber":57,"Velocity":42,"Duration":393103,"SoundDuration":393103,"Delta":266593268},{"NoteNumber":40,"Velocity":33,"Duration":393103,"SoundDuration":393103,"Delta":266593268},{"NoteNumber":50,"Velocity":33,"Duration":393103,"SoundDuration":393103,"Delta":266593268},{"NoteNumber":52,"Velocity":39,"Duration":393103,"SoundDuration":393103,"Delta":266593268},{"NoteNumber":62,"Velocity":49,"Duration":393103,"SoundDuration":393103,"Delta":267007061},{"NoteNumber":57,"Velocity":49,"Duration":393103,"SoundDuration":393103,"Delta":267007061},{"NoteNumber":69,"Velocity":59,"Duration":393103,"SoundDuration":393103,"Delta":267007061},{"NoteNumber":42,"Velocity":30,"Duration":393103,"SoundDuration":393103,"Delta":267007061},{"NoteNumber":50,"Velocity":30,"Duration":393103,"SoundDuration":393103,"Delta":267007061},{"NoteNumber":54,"Velocity":46,"Duration":393103,"SoundDuration":393103,"Delta":267007061},{"NoteNumber":66,"Velocity":58,"Duration":385761,"SoundDuration":385761,"Delta":267420854},{"NoteNumber":62,"Velocity":58,"Duration":385761,"SoundDuration":385761,"Delta":267420854},{"NoteNumber":74,"Velocity":69,"Duration":385761,"SoundDuration":385761,"Delta":267420854},{"NoteNumber":45,"Velocity":39,"Duration":385761,"SoundDuration":385761,"Delta":267420854},{"NoteNumber":54,"Velocity":39,"Duration":385761,"SoundDuration":385761,"Delta":267420854},{"NoteNumber":57,"Velocity":55,"Duration":385761,"SoundDuration":385761,"Delta":267420854},{"NoteNumber":69,"Velocity":63,"Duration":387754,"SoundDuration":387754,"Delta":267818205},{"NoteNumber":78,"Velocity":74,"Duration":387754,"SoundDuration":387754,"Delta":267818205},{"NoteNumber":66,"Velocity":63,"Duration":387754,"SoundDuration":387754,"Delta":267818205},{"NoteNumber":57,"Velocity":40,"Duration":387754,"SoundDuration":387754,"Delta":267818205},{"NoteNumber":50,"Velocity":40,"Duration":387754,"SoundDuration":387754,"Delta":267818205},{"NoteNumber":62,"Velocity":58,"Duration":387754,"SoundDuration":387754,"Delta":267818205},{"NoteNumber":78,"Velocity":75,"Duration":378737,"SoundDuration":378737,"Delta":268226368},{"NoteNumber":66,"Velocity":63,"Duration":378737,"SoundDuration":378737,"Delta":268226368},{"NoteNumber":69,"Velocity":63,"Duration":378737,"SoundDuration":378737,"Delta":268226368},{"NoteNumber":50,"Velocity":58,"Duration":378737,"SoundDuration":378737,"Delta":268226368},{"NoteNumber":57,"Velocity":58,"Duration":378737,"SoundDuration":378737,"Delta":268226368},{"NoteNumber":62,"Velocity":68,"Duration":378737,"SoundDuration":378737,"Delta":268226368},{"NoteNumber":78,"Velocity":80,"Duration":401408,"SoundDuration":401408,"Delta":268625039},{"NoteNumber":66,"Velocity":67,"Duration":401408,"SoundDuration":401408,"Delta":268625039},{"NoteNumber":69,"Velocity":67,"Duration":401408,"SoundDuration":401408,"Delta":268625039},{"NoteNumber":50,"Velocity":60,"Duration":401408,"SoundDuration":401408,"Delta":268625039},{"NoteNumber":57,"Velocity":60,"Duration":401408,"SoundDuration":401408,"Delta":268625039},{"NoteNumber":62,"Velocity":71,"Duration":401408,"SoundDuration":401408,"Delta":268625039},{"NoteNumber":66,"Velocity":71,"Duration":463414,"SoundDuration":463414,"Delta":269047574},{"NoteNumber":69,"Velocity":71,"Duration":463414,"SoundDuration":463414,"Delta":269047574},{"NoteNumber":78,"Velocity":84,"Duration":463414,"SoundDuration":463414,"Delta":269047574},{"NoteNumber":50,"Velocity":63,"Duration":463414,"SoundDuration":463414,"Delta":269047574},{"NoteNumber":57,"Velocity":63,"Duration":463414,"SoundDuration":463414,"Delta":269047574},{"NoteNumber":62,"Velocity":74,"Duration":463414,"SoundDuration":463414,"Delta":269047574},{"NoteNumber":66,"Velocity":70,"Duration":398600,"SoundDuration":398600,"Delta":269535379},{"NoteNumber":78,"Velocity":84,"Duration":398600,"SoundDuration":398600,"Delta":269535379},{"NoteNumber":70,"Velocity":70,"Duration":398600,"SoundDuration":398600,"Delta":269535379},{"NoteNumber":49,"Velocity":62,"Duration":398600,"SoundDuration":398600,"Delta":269535379},{"NoteNumber":58,"Velocity":62,"Duration":398600,"SoundDuration":398600,"Delta":269535379},{"NoteNumber":61,"Velocity":74,"Duration":398600,"SoundDuration":398600,"Delta":269535379},{"NoteNumber":70,"Velocity":61,"Duration":410072,"SoundDuration":410072,"Delta":269954959},{"NoteNumber":66,"Velocity":61,"Duration":410072,"SoundDuration":410072,"Delta":269954959},{"NoteNumber":78,"Velocity":72,"Duration":410072,"SoundDuration":410072,"Delta":269954959},{"NoteNumber":49,"Velocity":51,"Duration":410072,"SoundDuration":410072,"Delta":269954959},{"NoteNumber":58,"Velocity":51,"Duration":410072,"SoundDuration":410072,"Delta":269954959},{"NoteNumber":61,"Velocity":61,"Duration":410072,"SoundDuration":410072,"Delta":269954959},{"NoteNumber":70,"Velocity":56,"Duration":417581,"SoundDuration":417581,"Delta":270386614},{"NoteNumber":66,"Velocity":56,"Duration":417581,"SoundDuration":417581,"Delta":270386614},{"NoteNumber":78,"Velocity":65,"Duration":417581,"SoundDuration":417581,"Delta":270386614},{"NoteNumber":49,"Velocity":47,"Duration":417581,"SoundDuration":417581,"Delta":270386614},{"NoteNumber":58,"Velocity":47,"Duration":417581,"SoundDuration":417581,"Delta":270386614},{"NoteNumber":61,"Velocity":56,"Duration":417581,"SoundDuration":417581,"Delta":270386614},{"NoteNumber":78,"Velocity":55,"Duration":394463,"SoundDuration":394463,"Delta":270826174},{"NoteNumber":70,"Velocity":46,"Duration":394463,"SoundDuration":394463,"Delta":270826174},{"NoteNumber":66,"Velocity":46,"Duration":394463,"SoundDuration":394463,"Delta":270826174},{"NoteNumber":49,"Velocity":39,"Duration":394463,"SoundDuration":394463,"Delta":270826174},{"NoteNumber":58,"Velocity":39,"Duration":394463,"SoundDuration":394463,"Delta":270826174},{"NoteNumber":61,"Velocity":46,"Duration":394463,"SoundDuration":394463,"Delta":270826174},{"NoteNumber":66,"Velocity":41,"Duration":408602,"SoundDuration":408602,"Delta":271241399},{"NoteNumber":70,"Velocity":41,"Duration":408602,"SoundDuration":408602,"Delta":271241399},{"NoteNumber":78,"Velocity":49,"Duration":408602,"SoundDuration":408602,"Delta":271241399},{"NoteNumber":49,"Velocity":34,"Duration":408602,"SoundDuration":408602,"Delta":271241399},{"NoteNumber":58,"Velocity":34,"Duration":408602,"SoundDuration":408602,"Delta":271241399},{"NoteNumber":61,"Velocity":41,"Duration":408602,"SoundDuration":408602,"Delta":271241399},{"NoteNumber":66,"Velocity":36,"Duration":440154,"SoundDuration":440154,"Delta":271671507},{"NoteNumber":78,"Velocity":43,"Duration":440154,"SoundDuration":440154,"Delta":271671507},{"NoteNumber":70,"Velocity":36,"Duration":440154,"SoundDuration":440154,"Delta":271671507},{"NoteNumber":49,"Velocity":29,"Duration":440154,"SoundDuration":440154,"Delta":271671507},{"NoteNumber":58,"Velocity":29,"Duration":440154,"SoundDuration":440154,"Delta":271671507},{"NoteNumber":61,"Velocity":36,"Duration":440154,"SoundDuration":440154,"Delta":271671507},{"NoteNumber":69,"Velocity":32,"Duration":437970,"SoundDuration":437970,"Delta":272134827},{"NoteNumber":66,"Velocity":32,"Duration":437970,"SoundDuration":437970,"Delta":272134827},{"NoteNumber":78,"Velocity":39,"Duration":437970,"SoundDuration":437970,"Delta":272134827},{"NoteNumber":50,"Velocity":28,"Duration":437970,"SoundDuration":437970,"Delta":272134827},{"NoteNumber":57,"Velocity":28,"Duration":437970,"SoundDuration":437970,"Delta":272134827},{"NoteNumber":62,"Velocity":33,"Duration":437970,"SoundDuration":437970,"Delta":272134827},{"NoteNumber":69,"Velocity":31,"Duration":471659,"SoundDuration":471659,"Delta":272585955},{"NoteNumber":67,"Velocity":31,"Duration":471659,"SoundDuration":471659,"Delta":272585955},{"NoteNumber":79,"Velocity":36,"Duration":471659,"SoundDuration":471659,"Delta":272585955},{"NoteNumber":52,"Velocity":25,"Duration":471659,"SoundDuration":471659,"Delta":272585955},{"NoteNumber":57,"Velocity":25,"Duration":471659,"SoundDuration":471659,"Delta":272585955},{"NoteNumber":64,"Velocity":30,"Duration":471659,"SoundDuration":471659,"Delta":272585955},{"NoteNumber":81,"Velocity":38,"Duration":723602,"SoundDuration":723602,"Delta":273071785},{"NoteNumber":69,"Velocity":32,"Duration":723602,"SoundDuration":723602,"Delta":273071785},{"NoteNumber":54,"Velocity":25,"Duration":723602,"SoundDuration":723602,"Delta":273071785},{"NoteNumber":57,"Velocity":25,"Duration":723602,"SoundDuration":723602,"Delta":273071785},{"NoteNumber":66,"Velocity":30,"Duration":723602,"SoundDuration":723602,"Delta":273071785},{"NoteNumber":62,"Velocity":36,"Duration":394915,"SoundDuration":394915,"Delta":273817127},{"NoteNumber":66,"Velocity":36,"Duration":394915,"SoundDuration":394915,"Delta":273817127},{"NoteNumber":74,"Velocity":43,"Duration":394915,"SoundDuration":394915,"Delta":273817127},{"NoteNumber":47,"Velocity":29,"Duration":394915,"SoundDuration":394915,"Delta":273817127},{"NoteNumber":59,"Velocity":35,"Duration":394915,"SoundDuration":394915,"Delta":273817127},{"NoteNumber":64,"Velocity":30,"Duration":394915,"SoundDuration":394915,"Delta":274223907},{"NoteNumber":76,"Velocity":36,"Duration":394915,"SoundDuration":394915,"Delta":274223907},{"NoteNumber":67,"Velocity":30,"Duration":394915,"SoundDuration":394915,"Delta":274223907},{"NoteNumber":73,"Velocity":30,"Duration":394915,"SoundDuration":394915,"Delta":274223907},{"NoteNumber":45,"Velocity":25,"Duration":394915,"SoundDuration":394915,"Delta":274223907},{"NoteNumber":57,"Velocity":30,"Duration":394915,"SoundDuration":394915,"Delta":274223907},{"NoteNumber":66,"Velocity":30,"Duration":416071,"SoundDuration":416071,"Delta":274630687},{"NoteNumber":78,"Velocity":36,"Duration":416071,"SoundDuration":416071,"Delta":274630687},{"NoteNumber":69,"Velocity":30,"Duration":416071,"SoundDuration":416071,"Delta":274630687},{"NoteNumber":74,"Velocity":30,"Duration":416071,"SoundDuration":416071,"Delta":274630687},{"NoteNumber":42,"Velocity":25,"Duration":416071,"SoundDuration":416071,"Delta":274630687},{"NoteNumber":54,"Velocity":30,"Duration":416071,"SoundDuration":416071,"Delta":274630687},{"NoteNumber":69,"Velocity":34,"Duration":808672,"SoundDuration":808672,"Delta":275059258},{"NoteNumber":73,"Velocity":34,"Duration":808672,"SoundDuration":808672,"Delta":275059258},{"NoteNumber":67,"Velocity":34,"Duration":808672,"SoundDuration":808672,"Delta":275059258},{"NoteNumber":76,"Velocity":41,"Duration":808672,"SoundDuration":808672,"Delta":275059258},{"NoteNumber":45,"Velocity":31,"Duration":808672,"SoundDuration":808672,"Delta":275059258},{"NoteNumber":57,"Velocity":37,"Duration":808672,"SoundDuration":808672,"Delta":275059258},{"NoteNumber":69,"Velocity":32,"Duration":442966,"SoundDuration":442966,"Delta":275875584},{"NoteNumber":74,"Velocity":38,"Duration":442966,"SoundDuration":442966,"Delta":275875584},{"NoteNumber":66,"Velocity":32,"Duration":442966,"SoundDuration":442966,"Delta":275875584},{"NoteNumber":50,"Velocity":26,"Duration":442966,"SoundDuration":442966,"Delta":275875584},{"NoteNumber":57,"Velocity":26,"Duration":442966,"SoundDuration":442966,"Delta":275875584},{"NoteNumber":62,"Velocity":31,"Duration":442966,"SoundDuration":442966,"Delta":275875584},{"NoteNumber":69,"Velocity":36,"Duration":508733,"SoundDuration":508733,"Delta":276331858},{"NoteNumber":74,"Velocity":43,"Duration":508733,"SoundDuration":508733,"Delta":276331858},{"NoteNumber":66,"Velocity":36,"Duration":508733,"SoundDuration":508733,"Delta":276331858},{"NoteNumber":50,"Velocity":30,"Duration":508733,"SoundDuration":508733,"Delta":276331858},{"NoteNumber":57,"Velocity":30,"Duration":508733,"SoundDuration":508733,"Delta":276331858},{"NoteNumber":62,"Velocity":36,"Duration":508733,"SoundDuration":508733,"Delta":276331858},{"NoteNumber":74,"Velocity":44,"Duration":400000,"SoundDuration":400000,"Delta":276855875},{"NoteNumber":50,"Velocity":35,"Duration":400000,"SoundDuration":400000,"Delta":276855875},{"NoteNumber":62,"Velocity":35,"Duration":400000,"SoundDuration":400000,"Delta":276855875},{"NoteNumber":74,"Velocity":46,"Duration":420663,"SoundDuration":420663,"Delta":277276928},{"NoteNumber":50,"Velocity":36,"Duration":420663,"SoundDuration":420663,"Delta":277276928},{"NoteNumber":62,"Velocity":36,"Duration":420663,"SoundDuration":420663,"Delta":277276928},{"NoteNumber":64,"Velocity":48,"Duration":813356,"SoundDuration":813356,"Delta":277719732},{"NoteNumber":67,"Velocity":48,"Duration":813356,"SoundDuration":813356,"Delta":277719732},{"NoteNumber":76,"Velocity":57,"Duration":814212,"SoundDuration":814212,"Delta":277719732},{"NoteNumber":72,"Velocity":48,"Duration":814212,"SoundDuration":814212,"Delta":277719732},{"NoteNumber":48,"Velocity":37,"Duration":814212,"SoundDuration":814212,"Delta":277719732},{"NoteNumber":55,"Velocity":37,"Duration":814212,"SoundDuration":814212,"Delta":277719732},{"NoteNumber":60,"Velocity":46,"Duration":814212,"SoundDuration":814212,"Delta":277719732},{"NoteNumber":67,"Velocity":37,"Duration":375000,"SoundDuration":375000,"Delta":278541650},{"NoteNumber":76,"Velocity":44,"Duration":375000,"SoundDuration":375000,"Delta":278541650},{"NoteNumber":64,"Velocity":37,"Duration":375000,"SoundDuration":375000,"Delta":278541650},{"NoteNumber":72,"Velocity":37,"Duration":375000,"SoundDuration":375000,"Delta":278541650},{"NoteNumber":48,"Velocity":29,"Duration":375000,"SoundDuration":375000,"Delta":278541650},{"NoteNumber":55,"Velocity":29,"Duration":375000,"SoundDuration":375000,"Delta":278541650},{"NoteNumber":60,"Velocity":35,"Duration":375000,"SoundDuration":375000,"Delta":278541650},{"NoteNumber":64,"Velocity":37,"Duration":366559,"SoundDuration":366559,"Delta":278936387},{"NoteNumber":72,"Velocity":37,"Duration":366559,"SoundDuration":366559,"Delta":278936387},{"NoteNumber":76,"Velocity":44,"Duration":366559,"SoundDuration":366559,"Delta":278936387},{"NoteNumber":67,"Velocity":37,"Duration":366559,"SoundDuration":366559,"Delta":278936387},{"NoteNumber":48,"Velocity":29,"Duration":366559,"SoundDuration":366559,"Delta":278936387},{"NoteNumber":55,"Velocity":29,"Duration":366559,"SoundDuration":366559,"Delta":278936387},{"NoteNumber":60,"Velocity":35,"Duration":366559,"SoundDuration":366559,"Delta":278936387},{"NoteNumber":76,"Velocity":42,"Duration":357367,"SoundDuration":357367,"Delta":279322239},{"NoteNumber":67,"Velocity":35,"Duration":357367,"SoundDuration":357367,"Delta":279322239},{"NoteNumber":72,"Velocity":35,"Duration":357367,"SoundDuration":357367,"Delta":279322239},{"NoteNumber":64,"Velocity":35,"Duration":357367,"SoundDuration":357367,"Delta":279322239},{"NoteNumber":48,"Velocity":28,"Duration":357367,"SoundDuration":357367,"Delta":279322239},{"NoteNumber":55,"Velocity":28,"Duration":357367,"SoundDuration":357367,"Delta":279322239},{"NoteNumber":60,"Velocity":33,"Duration":357367,"SoundDuration":357367,"Delta":279322239},{"NoteNumber":64,"Velocity":35,"Duration":367742,"SoundDuration":367742,"Delta":279698415},{"NoteNumber":72,"Velocity":35,"Duration":367742,"SoundDuration":367742,"Delta":279698415},{"NoteNumber":76,"Velocity":42,"Duration":367742,"SoundDuration":367742,"Delta":279698415},{"NoteNumber":67,"Velocity":35,"Duration":367742,"SoundDuration":367742,"Delta":279698415},{"NoteNumber":48,"Velocity":28,"Duration":367742,"SoundDuration":367742,"Delta":279698415},{"NoteNumber":55,"Velocity":28,"Duration":367742,"SoundDuration":367742,"Delta":279698415},{"NoteNumber":60,"Velocity":33,"Duration":367742,"SoundDuration":367742,"Delta":279698415},{"NoteNumber":76,"Velocity":44,"Duration":367742,"SoundDuration":367742,"Delta":280085512},{"NoteNumber":64,"Velocity":37,"Duration":367742,"SoundDuration":367742,"Delta":280085512},{"NoteNumber":67,"Velocity":37,"Duration":367742,"SoundDuration":367742,"Delta":280085512},{"NoteNumber":48,"Velocity":29,"Duration":367742,"SoundDuration":367742,"Delta":280085512},{"NoteNumber":55,"Velocity":29,"Duration":367742,"SoundDuration":367742,"Delta":280085512},{"NoteNumber":60,"Velocity":35,"Duration":367742,"SoundDuration":367742,"Delta":280085512},{"NoteNumber":62,"Velocity":40,"Duration":361801,"SoundDuration":361801,"Delta":280472609},{"NoteNumber":74,"Velocity":48,"Duration":361801,"SoundDuration":361801,"Delta":280472609},{"NoteNumber":67,"Velocity":40,"Duration":361801,"SoundDuration":361801,"Delta":280472609},{"NoteNumber":43,"Velocity":32,"Duration":361025,"SoundDuration":361025,"Delta":280472609},{"NoteNumber":55,"Velocity":38,"Duration":361025,"SoundDuration":361025,"Delta":280472609},{"NoteNumber":60,"Velocity":37,"Duration":367183,"SoundDuration":367183,"Delta":280845280},{"NoteNumber":72,"Velocity":44,"Duration":367183,"SoundDuration":367183,"Delta":280845280},{"NoteNumber":67,"Velocity":37,"Duration":367183,"SoundDuration":367183,"Delta":280845280},{"NoteNumber":43,"Velocity":29,"Duration":367183,"SoundDuration":367183,"Delta":280845280},{"NoteNumber":40,"Velocity":29,"Duration":367183,"SoundDuration":367183,"Delta":280845280},{"NoteNumber":52,"Velocity":35,"Duration":367183,"SoundDuration":367183,"Delta":280845280},{"NoteNumber":67,"Velocity":37,"Duration":358490,"SoundDuration":358490,"Delta":281231756},{"NoteNumber":60,"Velocity":37,"Duration":358490,"SoundDuration":358490,"Delta":281231756},{"NoteNumber":72,"Velocity":44,"Duration":358490,"SoundDuration":358490,"Delta":281231756},{"NoteNumber":40,"Velocity":29,"Duration":358490,"SoundDuration":358490,"Delta":281231756},{"NoteNumber":43,"Velocity":29,"Duration":358490,"SoundDuration":358490,"Delta":281231756},{"NoteNumber":52,"Velocity":35,"Duration":358490,"SoundDuration":358490,"Delta":281231756},{"NoteNumber":62,"Velocity":40,"Duration":361904,"SoundDuration":361904,"Delta":281609114},{"NoteNumber":67,"Velocity":40,"Duration":361904,"SoundDuration":361904,"Delta":281609114},{"NoteNumber":74,"Velocity":48,"Duration":361904,"SoundDuration":361904,"Delta":281609114},{"NoteNumber":43,"Velocity":32,"Duration":361904,"SoundDuration":361904,"Delta":281609114},{"NoteNumber":55,"Velocity":38,"Duration":361904,"SoundDuration":361904,"Delta":281609114},{"NoteNumber":67,"Velocity":46,"Duration":366559,"SoundDuration":366559,"Delta":281990066},{"NoteNumber":76,"Velocity":54,"Duration":366559,"SoundDuration":366559,"Delta":281990066},{"NoteNumber":64,"Velocity":46,"Duration":366559,"SoundDuration":366559,"Delta":281990066},{"NoteNumber":48,"Velocity":36,"Duration":366559,"SoundDuration":366559,"Delta":281990066},{"NoteNumber":55,"Velocity":36,"Duration":366559,"SoundDuration":366559,"Delta":281990066},{"NoteNumber":60,"Velocity":42,"Duration":366559,"SoundDuration":366559,"Delta":281990066},{"NoteNumber":70,"Velocity":56,"Duration":779012,"SoundDuration":779012,"Delta":282375918},{"NoteNumber":79,"Velocity":67,"Duration":779832,"SoundDuration":779832,"Delta":282375918},{"NoteNumber":67,"Velocity":56,"Duration":779012,"SoundDuration":779012,"Delta":282375918},{"NoteNumber":51,"Velocity":44,"Duration":779012,"SoundDuration":779012,"Delta":282375918},{"NoteNumber":58,"Velocity":44,"Duration":779012,"SoundDuration":779012,"Delta":282375918},{"NoteNumber":63,"Velocity":53,"Duration":779012,"SoundDuration":779012,"Delta":282375918},{"NoteNumber":79,"Velocity":60,"Duration":372549,"SoundDuration":372549,"Delta":283163128},{"NoteNumber":67,"Velocity":50,"Duration":372549,"SoundDuration":372549,"Delta":283163128},{"NoteNumber":70,"Velocity":50,"Duration":372549,"SoundDuration":372549,"Delta":283163128},{"NoteNumber":51,"Velocity":39,"Duration":372549,"SoundDuration":372549,"Delta":283163128},{"NoteNumber":58,"Velocity":39,"Duration":372549,"SoundDuration":372549,"Delta":283163128},{"NoteNumber":63,"Velocity":47,"Duration":372549,"SoundDuration":372549,"Delta":283163128},{"NoteNumber":70,"Velocity":50,"Duration":359621,"SoundDuration":359621,"Delta":283555285},{"NoteNumber":79,"Velocity":60,"Duration":359621,"SoundDuration":359621,"Delta":283555285},{"NoteNumber":67,"Velocity":50,"Duration":359621,"SoundDuration":359621,"Delta":283555285},{"NoteNumber":51,"Velocity":39,"Duration":359621,"SoundDuration":359621,"Delta":283555285},{"NoteNumber":58,"Velocity":39,"Duration":359621,"SoundDuration":359621,"Delta":283555285},{"NoteNumber":63,"Velocity":47,"Duration":359621,"SoundDuration":359621,"Delta":283555285},{"NoteNumber":67,"Velocity":47,"Duration":354037,"SoundDuration":354037,"Delta":283933834},{"NoteNumber":70,"Velocity":47,"Duration":354037,"SoundDuration":354037,"Delta":283933834},{"NoteNumber":79,"Velocity":57,"Duration":354037,"SoundDuration":354037,"Delta":283933834},{"NoteNumber":51,"Velocity":38,"Duration":354037,"SoundDuration":354037,"Delta":283933834},{"NoteNumber":58,"Velocity":38,"Duration":354037,"SoundDuration":354037,"Delta":283933834},{"NoteNumber":63,"Velocity":45,"Duration":354037,"SoundDuration":354037,"Delta":283933834},{"NoteNumber":67,"Velocity":47,"Duration":364833,"SoundDuration":364833,"Delta":284306505},{"NoteNumber":70,"Velocity":47,"Duration":364833,"SoundDuration":364833,"Delta":284306505},{"NoteNumber":79,"Velocity":57,"Duration":364833,"SoundDuration":364833,"Delta":284306505},{"NoteNumber":51,"Velocity":38,"Duration":364833,"SoundDuration":364833,"Delta":284306505},{"NoteNumber":58,"Velocity":38,"Duration":364833,"SoundDuration":364833,"Delta":284306505},{"NoteNumber":63,"Velocity":45,"Duration":364833,"SoundDuration":364833,"Delta":284306505},{"NoteNumber":67,"Velocity":50,"Duration":359621,"SoundDuration":359621,"Delta":284690508},{"NoteNumber":70,"Velocity":50,"Duration":359621,"SoundDuration":359621,"Delta":284690508},{"NoteNumber":79,"Velocity":60,"Duration":359621,"SoundDuration":359621,"Delta":284690508},{"NoteNumber":51,"Velocity":39,"Duration":359621,"SoundDuration":359621,"Delta":284690508},{"NoteNumber":58,"Velocity":39,"Duration":359621,"SoundDuration":359621,"Delta":284690508},{"NoteNumber":63,"Velocity":47,"Duration":359621,"SoundDuration":359621,"Delta":284690508},{"NoteNumber":65,"Velocity":55,"Duration":367879,"SoundDuration":367879,"Delta":285069057},{"NoteNumber":70,"Velocity":55,"Duration":367879,"SoundDuration":367879,"Delta":285069057},{"NoteNumber":77,"Velocity":66,"Duration":367879,"SoundDuration":367879,"Delta":285069057},{"NoteNumber":46,"Velocity":44,"Duration":367879,"SoundDuration":367879,"Delta":285069057},{"NoteNumber":58,"Velocity":51,"Duration":367879,"SoundDuration":367879,"Delta":285069057},{"NoteNumber":63,"Velocity":50,"Duration":371335,"SoundDuration":371335,"Delta":285448804},{"NoteNumber":70,"Velocity":50,"Duration":371335,"SoundDuration":371335,"Delta":285448804},{"NoteNumber":75,"Velocity":60,"Duration":371335,"SoundDuration":371335,"Delta":285448804},{"NoteNumber":43,"Velocity":39,"Duration":371335,"SoundDuration":371335,"Delta":285448804},{"NoteNumber":46,"Velocity":39,"Duration":371335,"SoundDuration":371335,"Delta":285448804},{"NoteNumber":55,"Velocity":47,"Duration":371335,"SoundDuration":371335,"Delta":285448804},{"NoteNumber":63,"Velocity":50,"Duration":357367,"SoundDuration":357367,"Delta":285839683},{"NoteNumber":70,"Velocity":50,"Duration":357367,"SoundDuration":357367,"Delta":285839683},{"NoteNumber":75,"Velocity":60,"Duration":357367,"SoundDuration":357367,"Delta":285839683},{"NoteNumber":43,"Velocity":39,"Duration":357367,"SoundDuration":357367,"Delta":285839683},{"NoteNumber":46,"Velocity":39,"Duration":357367,"SoundDuration":357367,"Delta":285839683},{"NoteNumber":55,"Velocity":47,"Duration":357367,"SoundDuration":357367,"Delta":285839683},{"NoteNumber":65,"Velocity":55,"Duration":350769,"SoundDuration":350769,"Delta":286215859},{"NoteNumber":70,"Velocity":55,"Duration":350769,"SoundDuration":350769,"Delta":286215859},{"NoteNumber":77,"Velocity":66,"Duration":350769,"SoundDuration":350769,"Delta":286215859},{"NoteNumber":46,"Velocity":42,"Duration":350769,"SoundDuration":350769,"Delta":286215859},{"NoteNumber":58,"Velocity":52,"Duration":350769,"SoundDuration":350769,"Delta":286215859},{"NoteNumber":67,"Velocity":59,"Duration":375000,"SoundDuration":375000,"Delta":286585090},{"NoteNumber":70,"Velocity":59,"Duration":375000,"SoundDuration":375000,"Delta":286585090},{"NoteNumber":79,"Velocity":71,"Duration":375000,"SoundDuration":375000,"Delta":286585090},{"NoteNumber":51,"Velocity":46,"Duration":375000,"SoundDuration":375000,"Delta":286585090},{"NoteNumber":58,"Velocity":46,"Duration":375000,"SoundDuration":375000,"Delta":286585090},{"NoteNumber":63,"Velocity":57,"Duration":375000,"SoundDuration":375000,"Delta":286585090},{"NoteNumber":73,"Velocity":63,"Duration":763665,"SoundDuration":763665,"Delta":286979827},{"NoteNumber":70,"Velocity":63,"Duration":763665,"SoundDuration":763665,"Delta":286979827},{"NoteNumber":82,"Velocity":76,"Duration":763665,"SoundDuration":763665,"Delta":286979827},{"NoteNumber":42,"Velocity":50,"Duration":763665,"SoundDuration":763665,"Delta":286979827},{"NoteNumber":49,"Velocity":50,"Duration":763665,"SoundDuration":763665,"Delta":286979827},{"NoteNumber":54,"Velocity":61,"Duration":763665,"SoundDuration":763665,"Delta":286979827},{"NoteNumber":73,"Velocity":57,"Duration":365384,"SoundDuration":365384,"Delta":287751531},{"NoteNumber":70,"Velocity":57,"Duration":365384,"SoundDuration":365384,"Delta":287751531},{"NoteNumber":82,"Velocity":68,"Duration":365384,"SoundDuration":365384,"Delta":287751531},{"NoteNumber":42,"Velocity":45,"Duration":365384,"SoundDuration":365384,"Delta":287751531},{"NoteNumber":49,"Velocity":45,"Duration":365384,"SoundDuration":365384,"Delta":287751531},{"NoteNumber":54,"Velocity":53,"Duration":365384,"SoundDuration":365384,"Delta":287751531},{"NoteNumber":73,"Velocity":57,"Duration":354037,"SoundDuration":354037,"Delta":288136146},{"NoteNumber":70,"Velocity":57,"Duration":354037,"SoundDuration":354037,"Delta":288136146},{"NoteNumber":82,"Velocity":68,"Duration":354037,"SoundDuration":354037,"Delta":288136146},{"NoteNumber":42,"Velocity":45,"Duration":354037,"SoundDuration":354037,"Delta":288136146},{"NoteNumber":49,"Velocity":45,"Duration":354037,"SoundDuration":354037,"Delta":288136146},{"NoteNumber":54,"Velocity":53,"Duration":354037,"SoundDuration":354037,"Delta":288136146},{"NoteNumber":70,"Velocity":53,"Duration":356249,"SoundDuration":356249,"Delta":288508817},{"NoteNumber":73,"Velocity":53,"Duration":356249,"SoundDuration":356249,"Delta":288508817},{"NoteNumber":82,"Velocity":65,"Duration":356249,"SoundDuration":356249,"Delta":288508817},{"NoteNumber":42,"Velocity":43,"Duration":356249,"SoundDuration":356249,"Delta":288508817},{"NoteNumber":49,"Velocity":43,"Duration":356249,"SoundDuration":356249,"Delta":288508817},{"NoteNumber":54,"Velocity":51,"Duration":356249,"SoundDuration":356249,"Delta":288508817},{"NoteNumber":73,"Velocity":53,"Duration":367183,"SoundDuration":367183,"Delta":288883817},{"NoteNumber":70,"Velocity":53,"Duration":367183,"SoundDuration":367183,"Delta":288883817},{"NoteNumber":82,"Velocity":65,"Duration":367183,"SoundDuration":367183,"Delta":288883817},{"NoteNumber":42,"Velocity":43,"Duration":367183,"SoundDuration":367183,"Delta":288883817},{"NoteNumber":49,"Velocity":43,"Duration":367183,"SoundDuration":367183,"Delta":288883817},{"NoteNumber":54,"Velocity":51,"Duration":367183,"SoundDuration":367183,"Delta":288883817},{"NoteNumber":73,"Velocity":57,"Duration":366559,"SoundDuration":366559,"Delta":289270294},{"NoteNumber":70,"Velocity":57,"Duration":366559,"SoundDuration":366559,"Delta":289270294},{"NoteNumber":82,"Velocity":68,"Duration":366559,"SoundDuration":366559,"Delta":289270294},{"NoteNumber":42,"Velocity":45,"Duration":366559,"SoundDuration":366559,"Delta":289270294},{"NoteNumber":49,"Velocity":45,"Duration":366559,"SoundDuration":366559,"Delta":289270294},{"NoteNumber":54,"Velocity":53,"Duration":366559,"SoundDuration":366559,"Delta":289270294},{"NoteNumber":68,"Velocity":56,"Duration":362149,"SoundDuration":362149,"Delta":289656146},{"NoteNumber":73,"Velocity":56,"Duration":362149,"SoundDuration":362149,"Delta":289656146},{"NoteNumber":80,"Velocity":67,"Duration":362149,"SoundDuration":362149,"Delta":289656146},{"NoteNumber":37,"Velocity":45,"Duration":362149,"SoundDuration":362149,"Delta":289656146},{"NoteNumber":49,"Velocity":53,"Duration":362149,"SoundDuration":362149,"Delta":289656146},{"NoteNumber":66,"Velocity":57,"Duration":366559,"SoundDuration":366559,"Delta":290029978},{"NoteNumber":73,"Velocity":57,"Duration":366559,"SoundDuration":366559,"Delta":290029978},{"NoteNumber":78,"Velocity":68,"Duration":366559,"SoundDuration":366559,"Delta":290029978},{"NoteNumber":34,"Velocity":45,"Duration":366559,"SoundDuration":366559,"Delta":290029978},{"NoteNumber":46,"Velocity":53,"Duration":366559,"SoundDuration":366559,"Delta":290029978},{"NoteNumber":70,"Velocity":57,"Duration":358490,"SoundDuration":358490,"Delta":290415830},{"NoteNumber":78,"Velocity":57,"Duration":358490,"SoundDuration":358490,"Delta":290415830},{"NoteNumber":82,"Velocity":68,"Duration":358490,"SoundDuration":358490,"Delta":290415830},{"NoteNumber":42,"Velocity":45,"Duration":358490,"SoundDuration":358490,"Delta":290415830},{"NoteNumber":54,"Velocity":53,"Duration":358490,"SoundDuration":358490,"Delta":290415830},{"NoteNumber":71,"Velocity":65,"Duration":352941,"SoundDuration":352941,"Delta":290793188},{"NoteNumber":78,"Velocity":65,"Duration":352941,"SoundDuration":352941,"Delta":290793188},{"NoteNumber":83,"Velocity":78,"Duration":352941,"SoundDuration":352941,"Delta":290793188},{"NoteNumber":54,"Velocity":50,"Duration":371516,"SoundDuration":371516,"Delta":290793188},{"NoteNumber":44,"Velocity":50,"Duration":352941,"SoundDuration":352941,"Delta":290793188},{"NoteNumber":56,"Velocity":63,"Duration":352941,"SoundDuration":352941,"Delta":290793188},{"NoteNumber":73,"Velocity":73,"Duration":377483,"SoundDuration":377483,"Delta":291164705},{"NoteNumber":78,"Velocity":73,"Duration":377483,"SoundDuration":377483,"Delta":291164705},{"NoteNumber":85,"Velocity":89,"Duration":377483,"SoundDuration":377483,"Delta":291164705},{"NoteNumber":46,"Velocity":57,"Duration":377483,"SoundDuration":377483,"Delta":291164705},{"NoteNumber":54,"Velocity":57,"Duration":377483,"SoundDuration":377483,"Delta":291164705},{"NoteNumber":58,"Velocity":71,"Duration":377483,"SoundDuration":377483,"Delta":291164705},{"NoteNumber":78,"Velocity":82,"Duration":764604,"SoundDuration":764604,"Delta":291562056},{"NoteNumber":74,"Velocity":82,"Duration":764604,"SoundDuration":764604,"Delta":291562056},{"NoteNumber":86,"Velocity":100,"Duration":764604,"SoundDuration":764604,"Delta":291562056},{"NoteNumber":47,"Velocity":65,"Duration":764604,"SoundDuration":764604,"Delta":291562056},{"NoteNumber":54,"Velocity":65,"Duration":764604,"SoundDuration":764604,"Delta":291562056},{"NoteNumber":59,"Velocity":80,"Duration":764604,"SoundDuration":764604,"Delta":291562056},{"NoteNumber":78,"Velocity":74,"Duration":372549,"SoundDuration":372549,"Delta":292334699},{"NoteNumber":74,"Velocity":74,"Duration":372549,"SoundDuration":372549,"Delta":292334699},{"NoteNumber":86,"Velocity":89,"Duration":372549,"SoundDuration":372549,"Delta":292334699},{"NoteNumber":47,"Velocity":58,"Duration":372549,"SoundDuration":372549,"Delta":292334699},{"NoteNumber":54,"Velocity":58,"Duration":372549,"SoundDuration":372549,"Delta":292334699},{"NoteNumber":59,"Velocity":69,"Duration":372549,"SoundDuration":372549,"Delta":292334699},{"NoteNumber":78,"Velocity":74,"Duration":359621,"SoundDuration":359621,"Delta":292726856},{"NoteNumber":74,"Velocity":74,"Duration":359621,"SoundDuration":359621,"Delta":292726856},{"NoteNumber":86,"Velocity":89,"Duration":359621,"SoundDuration":359621,"Delta":292726856},{"NoteNumber":47,"Velocity":58,"Duration":359621,"SoundDuration":359621,"Delta":292726856},{"NoteNumber":54,"Velocity":58,"Duration":359621,"SoundDuration":359621,"Delta":292726856},{"NoteNumber":59,"Velocity":69,"Duration":359621,"SoundDuration":359621,"Delta":292726856},{"NoteNumber":78,"Velocity":69,"Duration":354037,"SoundDuration":354037,"Delta":293105405},{"NoteNumber":74,"Velocity":69,"Duration":354037,"SoundDuration":354037,"Delta":293105405},{"NoteNumber":86,"Velocity":85,"Duration":354037,"SoundDuration":354037,"Delta":293105405},{"NoteNumber":47,"Velocity":56,"Duration":354037,"SoundDuration":354037,"Delta":293105405},{"NoteNumber":54,"Velocity":56,"Duration":354037,"SoundDuration":354037,"Delta":293105405},{"NoteNumber":59,"Velocity":66,"Duration":354037,"SoundDuration":354037,"Delta":293105405},{"NoteNumber":74,"Velocity":69,"Duration":373770,"SoundDuration":373770,"Delta":293478076},{"NoteNumber":78,"Velocity":69,"Duration":373770,"SoundDuration":373770,"Delta":293478076},{"NoteNumber":86,"Velocity":85,"Duration":373770,"SoundDuration":373770,"Delta":293478076},{"NoteNumber":47,"Velocity":56,"Duration":373770,"SoundDuration":373770,"Delta":293478076},{"NoteNumber":54,"Velocity":56,"Duration":373770,"SoundDuration":373770,"Delta":293478076},{"NoteNumber":59,"Velocity":66,"Duration":373770,"SoundDuration":373770,"Delta":293478076},{"NoteNumber":86,"Velocity":82,"Duration":794314,"SoundDuration":794314,"Delta":293871519},{"NoteNumber":77,"Velocity":82,"Duration":794314,"SoundDuration":794314,"Delta":293871519},{"NoteNumber":79,"Velocity":82,"Duration":794314,"SoundDuration":794314,"Delta":293871519},{"NoteNumber":83,"Velocity":82,"Duration":794314,"SoundDuration":794314,"Delta":293871519},{"NoteNumber":91,"Velocity":100,"Duration":794314,"SoundDuration":794314,"Delta":293871519},{"NoteNumber":31,"Velocity":65,"Duration":794314,"SoundDuration":794314,"Delta":293871519},{"NoteNumber":43,"Velocity":80,"Duration":794314,"SoundDuration":794314,"Delta":293871519},{"NoteNumber":91,"Velocity":89,"Duration":391399,"SoundDuration":391399,"Delta":294674195},{"NoteNumber":77,"Velocity":74,"Duration":391399,"SoundDuration":391399,"Delta":294674195},{"NoteNumber":79,"Velocity":74,"Duration":391399,"SoundDuration":391399,"Delta":294674195},{"NoteNumber":86,"Velocity":74,"Duration":391399,"SoundDuration":391399,"Delta":294674195},{"NoteNumber":83,"Velocity":74,"Duration":391399,"SoundDuration":391399,"Delta":294674195},{"NoteNumber":31,"Velocity":58,"Duration":391399,"SoundDuration":391399,"Delta":294674195},{"NoteNumber":43,"Velocity":69,"Duration":391399,"SoundDuration":391399,"Delta":294674195},{"NoteNumber":86,"Velocity":74,"Duration":394177,"SoundDuration":394177,"Delta":295086213},{"NoteNumber":77,"Velocity":74,"Duration":394177,"SoundDuration":394177,"Delta":295086213},{"NoteNumber":79,"Velocity":74,"Duration":394177,"SoundDuration":394177,"Delta":295086213},{"NoteNumber":83,"Velocity":74,"Duration":394177,"SoundDuration":394177,"Delta":295086213},{"NoteNumber":91,"Velocity":89,"Duration":394177,"SoundDuration":394177,"Delta":295086213},{"NoteNumber":35,"Velocity":58,"Duration":394177,"SoundDuration":394177,"Delta":295086213},{"NoteNumber":47,"Velocity":69,"Duration":394177,"SoundDuration":394177,"Delta":295086213},{"NoteNumber":83,"Velocity":64,"Duration":400000,"SoundDuration":400000,"Delta":295501080},{"NoteNumber":77,"Velocity":64,"Duration":400000,"SoundDuration":400000,"Delta":295501080},{"NoteNumber":79,"Velocity":64,"Duration":400000,"SoundDuration":400000,"Delta":295501080},{"NoteNumber":86,"Velocity":64,"Duration":400000,"SoundDuration":400000,"Delta":295501080},{"NoteNumber":91,"Velocity":79,"Duration":400000,"SoundDuration":400000,"Delta":295501080},{"NoteNumber":38,"Velocity":52,"Duration":400000,"SoundDuration":400000,"Delta":295501080},{"NoteNumber":50,"Velocity":62,"Duration":400000,"SoundDuration":400000,"Delta":295501080},{"NoteNumber":91,"Velocity":73,"Duration":420663,"SoundDuration":420663,"Delta":295922133},{"NoteNumber":77,"Velocity":60,"Duration":420663,"SoundDuration":420663,"Delta":295922133},{"NoteNumber":79,"Velocity":60,"Duration":420663,"SoundDuration":420663,"Delta":295922133},{"NoteNumber":86,"Velocity":60,"Duration":420663,"SoundDuration":420663,"Delta":295922133},{"NoteNumber":83,"Velocity":60,"Duration":420663,"SoundDuration":420663,"Delta":295922133},{"NoteNumber":43,"Velocity":48,"Duration":420663,"SoundDuration":420663,"Delta":295922133},{"NoteNumber":55,"Velocity":57,"Duration":420663,"SoundDuration":420663,"Delta":295922133},{"NoteNumber":84,"Velocity":58,"Duration":840252,"SoundDuration":840252,"Delta":296364937},{"NoteNumber":76,"Velocity":58,"Duration":840252,"SoundDuration":840252,"Delta":296364937},{"NoteNumber":79,"Velocity":58,"Duration":840252,"SoundDuration":840252,"Delta":296364937},{"NoteNumber":88,"Velocity":69,"Duration":840252,"SoundDuration":840252,"Delta":296364937},{"NoteNumber":36,"Velocity":46,"Duration":840252,"SoundDuration":840252,"Delta":296364937},{"NoteNumber":48,"Velocity":55,"Duration":840252,"SoundDuration":840252,"Delta":296364937},{"NoteNumber":76,"Velocity":38,"Duration":393103,"SoundDuration":393103,"Delta":297231363},{"NoteNumber":64,"Velocity":32,"Duration":393103,"SoundDuration":393103,"Delta":297231363},{"NoteNumber":72,"Velocity":32,"Duration":393103,"SoundDuration":393103,"Delta":297231363},{"NoteNumber":36,"Velocity":27,"Duration":393103,"SoundDuration":393103,"Delta":297231363},{"NoteNumber":48,"Velocity":32,"Duration":393103,"SoundDuration":393103,"Delta":297231363},{"NoteNumber":76,"Velocity":43,"Duration":375000,"SoundDuration":375000,"Delta":297645156},{"NoteNumber":64,"Velocity":36,"Duration":375000,"SoundDuration":375000,"Delta":297645156},{"NoteNumber":72,"Velocity":36,"Duration":375000,"SoundDuration":375000,"Delta":297645156},{"NoteNumber":36,"Velocity":23,"Duration":375000,"SoundDuration":375000,"Delta":297645156},{"NoteNumber":48,"Velocity":33,"Duration":375000,"SoundDuration":375000,"Delta":297645156},{"NoteNumber":76,"Velocity":38,"Duration":366559,"SoundDuration":366559,"Delta":298039893},{"NoteNumber":64,"Velocity":32,"Duration":366559,"SoundDuration":366559,"Delta":298039893},{"NoteNumber":72,"Velocity":32,"Duration":366559,"SoundDuration":366559,"Delta":298039893},{"NoteNumber":36,"Velocity":23,"Duration":366559,"SoundDuration":366559,"Delta":298039893},{"NoteNumber":48,"Velocity":28,"Duration":366559,"SoundDuration":366559,"Delta":298039893},{"NoteNumber":64,"Velocity":32,"Duration":398600,"SoundDuration":398600,"Delta":298425745},{"NoteNumber":72,"Velocity":32,"Duration":398600,"SoundDuration":398600,"Delta":298425745},{"NoteNumber":76,"Velocity":38,"Duration":398600,"SoundDuration":398600,"Delta":298425745},{"NoteNumber":36,"Velocity":23,"Duration":398600,"SoundDuration":398600,"Delta":298425745},{"NoteNumber":48,"Velocity":28,"Duration":398600,"SoundDuration":398600,"Delta":298425745},{"NoteNumber":64,"Velocity":36,"Duration":1192637,"SoundDuration":1192637,"Delta":298845325},{"NoteNumber":72,"Velocity":36,"Duration":762465,"SoundDuration":762465,"Delta":298845325},{"NoteNumber":76,"Velocity":43,"Duration":762465,"SoundDuration":762465,"Delta":298845325},{"NoteNumber":36,"Velocity":30,"Duration":762465,"SoundDuration":762465,"Delta":298845325},{"NoteNumber":48,"Velocity":36,"Duration":762465,"SoundDuration":762465,"Delta":298845325},{"NoteNumber":74,"Velocity":38,"Duration":386099,"SoundDuration":386099,"Delta":299631541},{"NoteNumber":71,"Velocity":32,"Duration":386099,"SoundDuration":386099,"Delta":299631541},{"NoteNumber":36,"Velocity":23,"Duration":386099,"SoundDuration":386099,"Delta":299631541},{"NoteNumber":48,"Velocity":28,"Duration":386099,"SoundDuration":386099,"Delta":299631541},{"NoteNumber":64,"Velocity":37,"Duration":1201993,"SoundDuration":1201993,"Delta":300037962},{"NoteNumber":71,"Velocity":37,"Duration":767493,"SoundDuration":767493,"Delta":300037962},{"NoteNumber":74,"Velocity":44,"Duration":767493,"SoundDuration":767493,"Delta":300037962},{"NoteNumber":36,"Velocity":29,"Duration":767493,"SoundDuration":767493,"Delta":300037962},{"NoteNumber":48,"Velocity":35,"Duration":767493,"SoundDuration":767493,"Delta":300037962},{"NoteNumber":69,"Velocity":31,"Duration":390063,"SoundDuration":390063,"Delta":300829362},{"NoteNumber":72,"Velocity":36,"Duration":390063,"SoundDuration":390063,"Delta":300829362},{"NoteNumber":36,"Velocity":21,"Duration":390063,"SoundDuration":390063,"Delta":300829362},{"NoteNumber":48,"Velocity":26,"Duration":390063,"SoundDuration":390063,"Delta":300829362},{"NoteNumber":64,"Velocity":35,"Duration":767493,"SoundDuration":767493,"Delta":301239955},{"NoteNumber":69,"Velocity":35,"Duration":767493,"SoundDuration":767493,"Delta":301239955},{"NoteNumber":72,"Velocity":41,"Duration":767493,"SoundDuration":767493,"Delta":301239955},{"NoteNumber":36,"Velocity":28,"Duration":767493,"SoundDuration":767493,"Delta":301239955},{"NoteNumber":48,"Velocity":34,"Duration":767493,"SoundDuration":767493,"Delta":301239955},{"NoteNumber":67,"Velocity":27,"Duration":392750,"SoundDuration":392750,"Delta":302031355},{"NoteNumber":71,"Velocity":32,"Duration":392750,"SoundDuration":392750,"Delta":302031355},{"NoteNumber":36,"Velocity":21,"Duration":392750,"SoundDuration":392750,"Delta":302031355},{"NoteNumber":48,"Velocity":26,"Duration":392750,"SoundDuration":392750,"Delta":302031355},{"NoteNumber":67,"Velocity":32,"Duration":762465,"SoundDuration":762465,"Delta":302444777},{"NoteNumber":71,"Velocity":38,"Duration":762465,"SoundDuration":762465,"Delta":302444777},{"NoteNumber":36,"Velocity":25,"Duration":762465,"SoundDuration":762465,"Delta":302444777},{"NoteNumber":48,"Velocity":30,"Duration":762465,"SoundDuration":762465,"Delta":302444777},{"NoteNumber":62,"Velocity":26,"Duration":395476,"SoundDuration":395476,"Delta":303230993},{"NoteNumber":66,"Velocity":26,"Duration":395476,"SoundDuration":395476,"Delta":303230993},{"NoteNumber":69,"Velocity":30,"Duration":395476,"SoundDuration":395476,"Delta":303230993},{"NoteNumber":36,"Velocity":22,"Duration":395476,"SoundDuration":395476,"Delta":303230993},{"NoteNumber":48,"Velocity":26,"Duration":395476,"SoundDuration":395476,"Delta":303230993},{"NoteNumber":66,"Velocity":29,"Duration":762465,"SoundDuration":762465,"Delta":303647284},{"NoteNumber":62,"Velocity":29,"Duration":762465,"SoundDuration":762465,"Delta":303647284},{"NoteNumber":69,"Velocity":35,"Duration":762465,"SoundDuration":762465,"Delta":303647284},{"NoteNumber":36,"Velocity":23,"Duration":762465,"SoundDuration":762465,"Delta":303647284},{"NoteNumber":48,"Velocity":28,"Duration":762465,"SoundDuration":762465,"Delta":303647284},{"NoteNumber":62,"Velocity":25,"Duration":380939,"SoundDuration":380939,"Delta":304433500},{"NoteNumber":66,"Velocity":25,"Duration":380939,"SoundDuration":380939,"Delta":304433500},{"NoteNumber":69,"Velocity":29,"Duration":380939,"SoundDuration":380939,"Delta":304433500},{"NoteNumber":36,"Velocity":21,"Duration":380939,"SoundDuration":380939,"Delta":304433500},{"NoteNumber":48,"Velocity":25,"Duration":380939,"SoundDuration":380939,"Delta":304433500},{"NoteNumber":62,"Velocity":27,"Duration":371021,"SoundDuration":371021,"Delta":304834489},{"NoteNumber":66,"Velocity":27,"Duration":371021,"SoundDuration":371021,"Delta":304834489},{"NoteNumber":69,"Velocity":31,"Duration":371021,"SoundDuration":371021,"Delta":304834489},{"NoteNumber":36,"Velocity":23,"Duration":371021,"SoundDuration":371021,"Delta":304834489},{"NoteNumber":48,"Velocity":27,"Duration":371021,"SoundDuration":371021,"Delta":304834489},{"NoteNumber":62,"Velocity":25,"Duration":359621,"SoundDuration":359621,"Delta":305225038},{"NoteNumber":66,"Velocity":25,"Duration":359621,"SoundDuration":359621,"Delta":305225038},{"NoteNumber":69,"Velocity":29,"Duration":359621,"SoundDuration":359621,"Delta":305225038},{"NoteNumber":36,"Velocity":21,"Duration":359621,"SoundDuration":359621,"Delta":305225038},{"NoteNumber":48,"Velocity":25,"Duration":359621,"SoundDuration":359621,"Delta":305225038},{"NoteNumber":62,"Velocity":25,"Duration":380939,"SoundDuration":380939,"Delta":305603587},{"NoteNumber":66,"Velocity":25,"Duration":380939,"SoundDuration":380939,"Delta":305603587},{"NoteNumber":69,"Velocity":29,"Duration":380939,"SoundDuration":380939,"Delta":305603587},{"NoteNumber":36,"Velocity":21,"Duration":380939,"SoundDuration":380939,"Delta":305603587},{"NoteNumber":48,"Velocity":25,"Duration":380939,"SoundDuration":380939,"Delta":305603587},{"NoteNumber":66,"Velocity":29,"Duration":757502,"SoundDuration":757502,"Delta":306004576},{"NoteNumber":62,"Velocity":29,"Duration":757502,"SoundDuration":757502,"Delta":306004576},{"NoteNumber":69,"Velocity":35,"Duration":757502,"SoundDuration":757502,"Delta":306004576},{"NoteNumber":36,"Velocity":23,"Duration":757502,"SoundDuration":757502,"Delta":306004576},{"NoteNumber":48,"Velocity":28,"Duration":757502,"SoundDuration":757502,"Delta":306004576},{"NoteNumber":62,"Velocity":25,"Duration":383502,"SoundDuration":383502,"Delta":306785674},{"NoteNumber":66,"Velocity":25,"Duration":383502,"SoundDuration":383502,"Delta":306785674},{"NoteNumber":69,"Velocity":29,"Duration":383502,"SoundDuration":383502,"Delta":306785674},{"NoteNumber":36,"Velocity":21,"Duration":383502,"SoundDuration":383502,"Delta":306785674},{"NoteNumber":48,"Velocity":25,"Duration":383502,"SoundDuration":383502,"Delta":306785674},{"NoteNumber":62,"Velocity":27,"Duration":377158,"SoundDuration":377158,"Delta":307189361},{"NoteNumber":66,"Velocity":27,"Duration":377158,"SoundDuration":377158,"Delta":307189361},{"NoteNumber":69,"Velocity":31,"Duration":377158,"SoundDuration":377158,"Delta":307189361},{"NoteNumber":36,"Velocity":23,"Duration":377158,"SoundDuration":377158,"Delta":307189361},{"NoteNumber":48,"Velocity":27,"Duration":377158,"SoundDuration":377158,"Delta":307189361},{"NoteNumber":62,"Velocity":25,"Duration":365384,"SoundDuration":365384,"Delta":307586370},{"NoteNumber":66,"Velocity":25,"Duration":365384,"SoundDuration":365384,"Delta":307586370},{"NoteNumber":69,"Velocity":29,"Duration":365384,"SoundDuration":365384,"Delta":307586370},{"NoteNumber":36,"Velocity":21,"Duration":365384,"SoundDuration":365384,"Delta":307586370},{"NoteNumber":48,"Velocity":25,"Duration":365384,"SoundDuration":365384,"Delta":307586370},{"NoteNumber":62,"Velocity":25,"Duration":371335,"SoundDuration":371335,"Delta":307970985},{"NoteNumber":66,"Velocity":25,"Duration":371335,"SoundDuration":371335,"Delta":307970985},{"NoteNumber":69,"Velocity":29,"Duration":371335,"SoundDuration":371335,"Delta":307970985},{"NoteNumber":36,"Velocity":21,"Duration":371335,"SoundDuration":371335,"Delta":307970985},{"NoteNumber":48,"Velocity":25,"Duration":371335,"SoundDuration":371335,"Delta":307970985},{"NoteNumber":63,"Velocity":29,"Duration":836267,"SoundDuration":836267,"Delta":308361864},{"NoteNumber":66,"Velocity":29,"Duration":837147,"SoundDuration":837147,"Delta":308361864},{"NoteNumber":71,"Velocity":35,"Duration":837147,"SoundDuration":837147,"Delta":308361864},{"NoteNumber":35,"Velocity":23,"Duration":837147,"SoundDuration":837147,"Delta":308361864},{"NoteNumber":47,"Velocity":28,"Duration":837147,"SoundDuration":837147,"Delta":308361864},{"NoteNumber":63,"Velocity":29,"Duration":393103,"SoundDuration":393103,"Delta":309206934},{"NoteNumber":66,"Velocity":29,"Duration":393103,"SoundDuration":393103,"Delta":309206934},{"NoteNumber":71,"Velocity":35,"Duration":393103,"SoundDuration":393103,"Delta":309206934},{"NoteNumber":47,"Velocity":28,"Duration":393103,"SoundDuration":393103,"Delta":309206934},{"NoteNumber":66,"Velocity":29,"Duration":378737,"SoundDuration":378737,"Delta":309620727},{"NoteNumber":63,"Velocity":29,"Duration":378737,"SoundDuration":378737,"Delta":309620727},{"NoteNumber":71,"Velocity":35,"Duration":378737,"SoundDuration":378737,"Delta":309620727},{"NoteNumber":47,"Velocity":28,"Duration":378737,"SoundDuration":378737,"Delta":309620727},{"NoteNumber":63,"Velocity":28,"Duration":368932,"SoundDuration":368932,"Delta":310019398},{"NoteNumber":66,"Velocity":28,"Duration":368932,"SoundDuration":368932,"Delta":310019398},{"NoteNumber":71,"Velocity":33,"Duration":368932,"SoundDuration":368932,"Delta":310019398},{"NoteNumber":47,"Velocity":26,"Duration":368932,"SoundDuration":368932,"Delta":310019398},{"NoteNumber":63,"Velocity":28,"Duration":393103,"SoundDuration":393103,"Delta":310407748},{"NoteNumber":66,"Velocity":28,"Duration":393103,"SoundDuration":393103,"Delta":310407748},{"NoteNumber":71,"Velocity":33,"Duration":393103,"SoundDuration":393103,"Delta":310407748},{"NoteNumber":45,"Velocity":22,"Duration":393103,"SoundDuration":393103,"Delta":310407748},{"NoteNumber":47,"Velocity":26,"Duration":393103,"SoundDuration":393103,"Delta":310407748},{"NoteNumber":62,"Velocity":33,"Duration":393103,"SoundDuration":393103,"Delta":310821541},{"NoteNumber":67,"Velocity":33,"Duration":393103,"SoundDuration":393103,"Delta":310821541},{"NoteNumber":71,"Velocity":39,"Duration":393103,"SoundDuration":393103,"Delta":310821541},{"NoteNumber":43,"Velocity":26,"Duration":393103,"SoundDuration":393103,"Delta":310821541},{"NoteNumber":47,"Velocity":26,"Duration":393103,"SoundDuration":393103,"Delta":310821541},{"NoteNumber":55,"Velocity":31,"Duration":393103,"SoundDuration":393103,"Delta":310821541},{"NoteNumber":64,"Velocity":36,"Duration":377023,"SoundDuration":377023,"Delta":311235334},{"NoteNumber":67,"Velocity":36,"Duration":377023,"SoundDuration":377023,"Delta":311235334},{"NoteNumber":76,"Velocity":43,"Duration":377023,"SoundDuration":377023,"Delta":311235334},{"NoteNumber":48,"Velocity":28,"Duration":376214,"SoundDuration":376214,"Delta":311235334},{"NoteNumber":50,"Velocity":28,"Duration":377023,"SoundDuration":377023,"Delta":311235334},{"NoteNumber":60,"Velocity":34,"Duration":376214,"SoundDuration":376214,"Delta":311235334},{"NoteNumber":67,"Velocity":33,"Duration":387754,"SoundDuration":387754,"Delta":311623684},{"NoteNumber":74,"Velocity":39,"Duration":387754,"SoundDuration":387754,"Delta":311623684},{"NoteNumber":62,"Velocity":33,"Duration":387754,"SoundDuration":387754,"Delta":311623684},{"NoteNumber":50,"Velocity":26,"Duration":387754,"SoundDuration":387754,"Delta":311623684},{"NoteNumber":47,"Velocity":26,"Duration":387754,"SoundDuration":387754,"Delta":311623684},{"NoteNumber":59,"Velocity":31,"Duration":387754,"SoundDuration":387754,"Delta":311623684},{"NoteNumber":67,"Velocity":33,"Duration":370129,"SoundDuration":370129,"Delta":312031847},{"NoteNumber":74,"Velocity":39,"Duration":370129,"SoundDuration":370129,"Delta":312031847},{"NoteNumber":62,"Velocity":33,"Duration":370129,"SoundDuration":370129,"Delta":312031847},{"NoteNumber":47,"Velocity":26,"Duration":370129,"SoundDuration":370129,"Delta":312031847},{"NoteNumber":50,"Velocity":26,"Duration":370129,"SoundDuration":370129,"Delta":312031847},{"NoteNumber":59,"Velocity":31,"Duration":370129,"SoundDuration":370129,"Delta":312031847},{"NoteNumber":74,"Velocity":36,"Duration":364217,"SoundDuration":364217,"Delta":312421457},{"NoteNumber":62,"Velocity":30,"Duration":364217,"SoundDuration":364217,"Delta":312421457},{"NoteNumber":67,"Velocity":30,"Duration":364217,"SoundDuration":364217,"Delta":312421457},{"NoteNumber":47,"Velocity":24,"Duration":364217,"SoundDuration":364217,"Delta":312421457},{"NoteNumber":50,"Velocity":24,"Duration":364217,"SoundDuration":364217,"Delta":312421457},{"NoteNumber":59,"Velocity":28,"Duration":364217,"SoundDuration":364217,"Delta":312421457},{"NoteNumber":62,"Velocity":30,"Duration":393103,"SoundDuration":393103,"Delta":312804844},{"NoteNumber":74,"Velocity":36,"Duration":393103,"SoundDuration":393103,"Delta":312804844},{"NoteNumber":67,"Velocity":30,"Duration":393103,"SoundDuration":393103,"Delta":312804844},{"NoteNumber":47,"Velocity":24,"Duration":393103,"SoundDuration":393103,"Delta":312804844},{"NoteNumber":50,"Velocity":24,"Duration":393103,"SoundDuration":393103,"Delta":312804844},{"NoteNumber":59,"Velocity":28,"Duration":393103,"SoundDuration":393103,"Delta":312804844},{"NoteNumber":62,"Velocity":33,"Duration":394400,"SoundDuration":394400,"Delta":313218637},{"NoteNumber":74,"Velocity":39,"Duration":394400,"SoundDuration":394400,"Delta":313218637},{"NoteNumber":67,"Velocity":33,"Duration":394400,"SoundDuration":394400,"Delta":313218637},{"NoteNumber":47,"Velocity":26,"Duration":394400,"SoundDuration":394400,"Delta":313218637},{"NoteNumber":50,"Velocity":26,"Duration":394400,"SoundDuration":394400,"Delta":313218637},{"NoteNumber":59,"Velocity":31,"Duration":394400,"SoundDuration":394400,"Delta":313218637},{"NoteNumber":62,"Velocity":29,"Duration":391912,"SoundDuration":391912,"Delta":313613037},{"NoteNumber":57,"Velocity":29,"Duration":391912,"SoundDuration":391912,"Delta":313613037},{"NoteNumber":69,"Velocity":35,"Duration":391912,"SoundDuration":391912,"Delta":313613037},{"NoteNumber":42,"Velocity":23,"Duration":391912,"SoundDuration":391912,"Delta":313613037},{"NoteNumber":50,"Velocity":23,"Duration":391912,"SoundDuration":391912,"Delta":313613037},{"NoteNumber":54,"Velocity":27,"Duration":391912,"SoundDuration":391912,"Delta":313613037},{"NoteNumber":60,"Velocity":29,"Duration":405051,"SoundDuration":405051,"Delta":314016724},{"NoteNumber":62,"Velocity":29,"Duration":405922,"SoundDuration":405922,"Delta":314016724},{"NoteNumber":72,"Velocity":35,"Duration":405051,"SoundDuration":405051,"Delta":314016724},{"NoteNumber":45,"Velocity":23,"Duration":405922,"SoundDuration":405922,"Delta":314016724},{"NoteNumber":50,"Velocity":23,"Duration":405922,"SoundDuration":405922,"Delta":314016724},{"NoteNumber":57,"Velocity":27,"Duration":405922,"SoundDuration":405922,"Delta":314016724},{"NoteNumber":72,"Velocity":39,"Duration":382074,"SoundDuration":382074,"Delta":314434842},{"NoteNumber":62,"Velocity":33,"Duration":382896,"SoundDuration":382896,"Delta":314434842},{"NoteNumber":60,"Velocity":33,"Duration":382074,"SoundDuration":382074,"Delta":314434842},{"NoteNumber":45,"Velocity":26,"Duration":382896,"SoundDuration":382896,"Delta":314434842},{"NoteNumber":50,"Velocity":26,"Duration":382896,"SoundDuration":382896,"Delta":314434842},{"NoteNumber":57,"Velocity":31,"Duration":382896,"SoundDuration":382896,"Delta":314434842},{"NoteNumber":59,"Velocity":31,"Duration":391912,"SoundDuration":391912,"Delta":314829242},{"NoteNumber":71,"Velocity":37,"Duration":391912,"SoundDuration":391912,"Delta":314829242},{"NoteNumber":62,"Velocity":31,"Duration":391912,"SoundDuration":391912,"Delta":314829242},{"NoteNumber":43,"Velocity":25,"Duration":391912,"SoundDuration":391912,"Delta":314829242},{"NoteNumber":50,"Velocity":25,"Duration":391912,"SoundDuration":391912,"Delta":314829242},{"NoteNumber":55,"Velocity":29,"Duration":391912,"SoundDuration":391912,"Delta":314829242},{"NoteNumber":57,"Velocity":31,"Duration":407342,"SoundDuration":407342,"Delta":315232929},{"NoteNumber":69,"Velocity":37,"Duration":407342,"SoundDuration":407342,"Delta":315232929},{"NoteNumber":62,"Velocity":31,"Duration":407342,"SoundDuration":407342,"Delta":315232929},{"NoteNumber":42,"Velocity":25,"Duration":407342,"SoundDuration":407342,"Delta":315232929},{"NoteNumber":50,"Velocity":25,"Duration":407342,"SoundDuration":407342,"Delta":315232929},{"NoteNumber":54,"Velocity":29,"Duration":407342,"SoundDuration":407342,"Delta":315232929},{"NoteNumber":62,"Velocity":33,"Duration":400343,"SoundDuration":400343,"Delta":315652509},{"NoteNumber":57,"Velocity":33,"Duration":400343,"SoundDuration":400343,"Delta":315652509},{"NoteNumber":69,"Velocity":39,"Duration":400343,"SoundDuration":400343,"Delta":315652509},{"NoteNumber":42,"Velocity":26,"Duration":400343,"SoundDuration":400343,"Delta":315652509},{"NoteNumber":50,"Velocity":26,"Duration":400343,"SoundDuration":400343,"Delta":315652509},{"NoteNumber":54,"Velocity":31,"Duration":400343,"SoundDuration":400343,"Delta":315652509},{"NoteNumber":59,"Velocity":33,"Duration":388333,"SoundDuration":388333,"Delta":316064880},{"NoteNumber":62,"Velocity":33,"Duration":388333,"SoundDuration":388333,"Delta":316064880},{"NoteNumber":71,"Velocity":39,"Duration":388333,"SoundDuration":388333,"Delta":316064880},{"NoteNumber":43,"Velocity":26,"Duration":388333,"SoundDuration":388333,"Delta":316064880},{"NoteNumber":50,"Velocity":26,"Duration":388333,"SoundDuration":388333,"Delta":316064880},{"NoteNumber":55,"Velocity":31,"Duration":388333,"SoundDuration":388333,"Delta":316064880},{"NoteNumber":62,"Velocity":33,"Duration":413120,"SoundDuration":413120,"Delta":316464880},{"NoteNumber":71,"Velocity":39,"Duration":413120,"SoundDuration":413120,"Delta":316464880},{"NoteNumber":59,"Velocity":33,"Duration":413120,"SoundDuration":413120,"Delta":316464880},{"NoteNumber":43,"Velocity":26,"Duration":413120,"SoundDuration":413120,"Delta":316464880},{"NoteNumber":50,"Velocity":26,"Duration":413120,"SoundDuration":413120,"Delta":316464880},{"NoteNumber":55,"Velocity":31,"Duration":413120,"SoundDuration":413120,"Delta":316464880},{"NoteNumber":62,"Velocity":37,"Duration":386709,"SoundDuration":386709,"Delta":316890412},{"NoteNumber":71,"Velocity":44,"Duration":386709,"SoundDuration":386709,"Delta":316890412},{"NoteNumber":59,"Velocity":37,"Duration":386709,"SoundDuration":386709,"Delta":316890412},{"NoteNumber":43,"Velocity":29,"Duration":386709,"SoundDuration":386709,"Delta":316890412},{"NoteNumber":50,"Velocity":29,"Duration":386709,"SoundDuration":386709,"Delta":316890412},{"NoteNumber":55,"Velocity":35,"Duration":386709,"SoundDuration":386709,"Delta":316890412},{"NoteNumber":71,"Velocity":51,"Duration":401724,"SoundDuration":401724,"Delta":317288739},{"NoteNumber":59,"Velocity":43,"Duration":401724,"SoundDuration":401724,"Delta":317288739},{"NoteNumber":67,"Velocity":43,"Duration":401724,"SoundDuration":401724,"Delta":317288739},{"NoteNumber":43,"Velocity":33,"Duration":401724,"SoundDuration":401724,"Delta":317288739},{"NoteNumber":50,"Velocity":33,"Duration":401724,"SoundDuration":401724,"Delta":317288739},{"NoteNumber":55,"Velocity":40,"Duration":401724,"SoundDuration":401724,"Delta":317288739},{"NoteNumber":60,"Velocity":50,"Duration":417563,"SoundDuration":417563,"Delta":317702532},{"NoteNumber":72,"Velocity":60,"Duration":417563,"SoundDuration":417563,"Delta":317702532},{"NoteNumber":67,"Velocity":50,"Duration":417563,"SoundDuration":417563,"Delta":317702532},{"NoteNumber":45,"Velocity":39,"Duration":417563,"SoundDuration":417563,"Delta":317702532},{"NoteNumber":50,"Velocity":39,"Duration":417563,"SoundDuration":417563,"Delta":317702532},{"NoteNumber":57,"Velocity":47,"Duration":417563,"SoundDuration":417563,"Delta":317702532},{"NoteNumber":67,"Velocity":55,"Duration":821799,"SoundDuration":821799,"Delta":318132640},{"NoteNumber":74,"Velocity":66,"Duration":822664,"SoundDuration":822664,"Delta":318132640},{"NoteNumber":62,"Velocity":55,"Duration":821799,"SoundDuration":821799,"Delta":318132640},{"NoteNumber":50,"Velocity":43,"Duration":821799,"SoundDuration":821799,"Delta":318132640},{"NoteNumber":47,"Velocity":43,"Duration":821799,"SoundDuration":821799,"Delta":318132640},{"NoteNumber":59,"Velocity":52,"Duration":822664,"SoundDuration":822664,"Delta":318132640},{"NoteNumber":62,"Velocity":44,"Duration":394463,"SoundDuration":394463,"Delta":318963090},{"NoteNumber":74,"Velocity":52,"Duration":394463,"SoundDuration":394463,"Delta":318963090},{"NoteNumber":67,"Velocity":44,"Duration":394463,"SoundDuration":394463,"Delta":318963090},{"NoteNumber":50,"Velocity":34,"Duration":394463,"SoundDuration":394463,"Delta":318963090},{"NoteNumber":47,"Velocity":34,"Duration":394463,"SoundDuration":394463,"Delta":318963090},{"NoteNumber":59,"Velocity":42,"Duration":394463,"SoundDuration":394463,"Delta":318963090},{"NoteNumber":62,"Velocity":44,"Duration":376238,"SoundDuration":376238,"Delta":319378315},{"NoteNumber":74,"Velocity":52,"Duration":376238,"SoundDuration":376238,"Delta":319378315},{"NoteNumber":67,"Velocity":44,"Duration":376238,"SoundDuration":376238,"Delta":319378315},{"NoteNumber":50,"Velocity":34,"Duration":376238,"SoundDuration":376238,"Delta":319378315},{"NoteNumber":47,"Velocity":34,"Duration":376238,"SoundDuration":376238,"Delta":319378315},{"NoteNumber":59,"Velocity":42,"Duration":376238,"SoundDuration":376238,"Delta":319378315},{"NoteNumber":60,"Velocity":42,"Duration":383838,"SoundDuration":383838,"Delta":319774355},{"NoteNumber":72,"Velocity":50,"Duration":383838,"SoundDuration":383838,"Delta":319774355},{"NoteNumber":67,"Velocity":42,"Duration":383838,"SoundDuration":383838,"Delta":319774355},{"NoteNumber":50,"Velocity":33,"Duration":383838,"SoundDuration":383838,"Delta":319774355},{"NoteNumber":45,"Velocity":33,"Duration":383838,"SoundDuration":383838,"Delta":319774355},{"NoteNumber":57,"Velocity":39,"Duration":383838,"SoundDuration":383838,"Delta":319774355},{"NoteNumber":59,"Velocity":42,"Duration":393103,"SoundDuration":393103,"Delta":320178395},{"NoteNumber":71,"Velocity":50,"Duration":393103,"SoundDuration":393103,"Delta":320178395},{"NoteNumber":67,"Velocity":42,"Duration":393103,"SoundDuration":393103,"Delta":320178395},{"NoteNumber":43,"Velocity":33,"Duration":393103,"SoundDuration":393103,"Delta":320178395},{"NoteNumber":50,"Velocity":33,"Duration":393103,"SoundDuration":393103,"Delta":320178395},{"NoteNumber":55,"Velocity":39,"Duration":393103,"SoundDuration":393103,"Delta":320178395},{"NoteNumber":62,"Velocity":45,"Duration":393103,"SoundDuration":393103,"Delta":320592188},{"NoteNumber":74,"Velocity":54,"Duration":393103,"SoundDuration":393103,"Delta":320592188},{"NoteNumber":67,"Velocity":45,"Duration":393103,"SoundDuration":393103,"Delta":320592188},{"NoteNumber":47,"Velocity":28,"Duration":393103,"SoundDuration":393103,"Delta":320592188},{"NoteNumber":55,"Velocity":28,"Duration":393103,"SoundDuration":393103,"Delta":320592188},{"NoteNumber":59,"Velocity":42,"Duration":393103,"SoundDuration":393103,"Delta":320592188},{"NoteNumber":67,"Velocity":53,"Duration":385761,"SoundDuration":385761,"Delta":321005981},{"NoteNumber":79,"Velocity":63,"Duration":385761,"SoundDuration":385761,"Delta":321005981},{"NoteNumber":71,"Velocity":53,"Duration":385761,"SoundDuration":385761,"Delta":321005981},{"NoteNumber":50,"Velocity":36,"Duration":385761,"SoundDuration":385761,"Delta":321005981},{"NoteNumber":59,"Velocity":36,"Duration":385761,"SoundDuration":385761,"Delta":321005981},{"NoteNumber":62,"Velocity":50,"Duration":385761,"SoundDuration":385761,"Delta":321005981},{"NoteNumber":71,"Velocity":56,"Duration":387754,"SoundDuration":387754,"Delta":321403332},{"NoteNumber":74,"Velocity":56,"Duration":387754,"SoundDuration":387754,"Delta":321403332},{"NoteNumber":83,"Velocity":66,"Duration":387754,"SoundDuration":387754,"Delta":321403332},{"NoteNumber":62,"Velocity":36,"Duration":387754,"SoundDuration":387754,"Delta":321403332},{"NoteNumber":55,"Velocity":36,"Duration":387754,"SoundDuration":387754,"Delta":321403332},{"NoteNumber":67,"Velocity":52,"Duration":387754,"SoundDuration":387754,"Delta":321403332},{"NoteNumber":71,"Velocity":56,"Duration":383838,"SoundDuration":383838,"Delta":321811495},{"NoteNumber":74,"Velocity":56,"Duration":383838,"SoundDuration":383838,"Delta":321811495},{"NoteNumber":83,"Velocity":66,"Duration":383838,"SoundDuration":383838,"Delta":321811495},{"NoteNumber":55,"Velocity":51,"Duration":383838,"SoundDuration":383838,"Delta":321811495},{"NoteNumber":62,"Velocity":51,"Duration":383838,"SoundDuration":383838,"Delta":321811495},{"NoteNumber":67,"Velocity":60,"Duration":383838,"SoundDuration":383838,"Delta":321811495},{"NoteNumber":74,"Velocity":58,"Duration":393103,"SoundDuration":393103,"Delta":322215535},{"NoteNumber":83,"Velocity":69,"Duration":393103,"SoundDuration":393103,"Delta":322215535},{"NoteNumber":71,"Velocity":58,"Duration":393103,"SoundDuration":393103,"Delta":322215535},{"NoteNumber":55,"Velocity":52,"Duration":393103,"SoundDuration":393103,"Delta":322215535},{"NoteNumber":62,"Velocity":52,"Duration":393103,"SoundDuration":393103,"Delta":322215535},{"NoteNumber":67,"Velocity":62,"Duration":393103,"SoundDuration":393103,"Delta":322215535},{"NoteNumber":74,"Velocity":61,"Duration":433460,"SoundDuration":433460,"Delta":322629328},{"NoteNumber":83,"Velocity":72,"Duration":433460,"SoundDuration":433460,"Delta":322629328},{"NoteNumber":71,"Velocity":61,"Duration":433460,"SoundDuration":433460,"Delta":322629328},{"NoteNumber":55,"Velocity":54,"Duration":433460,"SoundDuration":433460,"Delta":322629328},{"NoteNumber":62,"Velocity":54,"Duration":433460,"SoundDuration":433460,"Delta":322629328},{"NoteNumber":67,"Velocity":64,"Duration":433460,"SoundDuration":433460,"Delta":322629328},{"NoteNumber":75,"Velocity":63,"Duration":398600,"SoundDuration":398600,"Delta":323085602},{"NoteNumber":83,"Velocity":75,"Duration":398600,"SoundDuration":398600,"Delta":323085602},{"NoteNumber":71,"Velocity":63,"Duration":398600,"SoundDuration":398600,"Delta":323085602},{"NoteNumber":54,"Velocity":56,"Duration":398600,"SoundDuration":398600,"Delta":323085602},{"NoteNumber":63,"Velocity":56,"Duration":398600,"SoundDuration":398600,"Delta":323085602},{"NoteNumber":66,"Velocity":66,"Duration":398600,"SoundDuration":398600,"Delta":323085602},{"NoteNumber":71,"Velocity":56,"Duration":417581,"SoundDuration":417581,"Delta":323505182},{"NoteNumber":83,"Velocity":66,"Duration":417581,"SoundDuration":417581,"Delta":323505182},{"NoteNumber":75,"Velocity":56,"Duration":417581,"SoundDuration":417581,"Delta":323505182},{"NoteNumber":54,"Velocity":47,"Duration":417581,"SoundDuration":417581,"Delta":323505182},{"NoteNumber":63,"Velocity":47,"Duration":417581,"SoundDuration":417581,"Delta":323505182},{"NoteNumber":66,"Velocity":56,"Duration":417581,"SoundDuration":417581,"Delta":323505182},{"NoteNumber":71,"Velocity":52,"Duration":417582,"SoundDuration":417582,"Delta":323944742},{"NoteNumber":83,"Velocity":61,"Duration":417582,"SoundDuration":417582,"Delta":323944742},{"NoteNumber":75,"Velocity":52,"Duration":417582,"SoundDuration":417582,"Delta":323944742},{"NoteNumber":54,"Velocity":44,"Duration":417582,"SoundDuration":417582,"Delta":323944742},{"NoteNumber":63,"Velocity":44,"Duration":417582,"SoundDuration":417582,"Delta":323944742},{"NoteNumber":66,"Velocity":52,"Duration":417582,"SoundDuration":417582,"Delta":323944742},{"NoteNumber":75,"Velocity":44,"Duration":394463,"SoundDuration":394463,"Delta":324384302},{"NoteNumber":83,"Velocity":52,"Duration":394463,"SoundDuration":394463,"Delta":324384302},{"NoteNumber":71,"Velocity":44,"Duration":394463,"SoundDuration":394463,"Delta":324384302},{"NoteNumber":54,"Velocity":37,"Duration":394463,"SoundDuration":394463,"Delta":324384302},{"NoteNumber":63,"Velocity":37,"Duration":394463,"SoundDuration":394463,"Delta":324384302},{"NoteNumber":66,"Velocity":44,"Duration":394463,"SoundDuration":394463,"Delta":324384302},{"NoteNumber":75,"Velocity":40,"Duration":408602,"SoundDuration":408602,"Delta":324799527},{"NoteNumber":83,"Velocity":48,"Duration":408602,"SoundDuration":408602,"Delta":324799527},{"NoteNumber":71,"Velocity":40,"Duration":408602,"SoundDuration":408602,"Delta":324799527},{"NoteNumber":54,"Velocity":33,"Duration":408602,"SoundDuration":408602,"Delta":324799527},{"NoteNumber":63,"Velocity":33,"Duration":408602,"SoundDuration":408602,"Delta":324799527},{"NoteNumber":66,"Velocity":40,"Duration":408602,"SoundDuration":408602,"Delta":324799527},{"NoteNumber":75,"Velocity":36,"Duration":440154,"SoundDuration":440154,"Delta":325229635},{"NoteNumber":83,"Velocity":43,"Duration":440154,"SoundDuration":440154,"Delta":325229635},{"NoteNumber":71,"Velocity":36,"Duration":440154,"SoundDuration":440154,"Delta":325229635},{"NoteNumber":54,"Velocity":29,"Duration":440154,"SoundDuration":440154,"Delta":325229635},{"NoteNumber":63,"Velocity":29,"Duration":440154,"SoundDuration":440154,"Delta":325229635},{"NoteNumber":66,"Velocity":36,"Duration":440154,"SoundDuration":440154,"Delta":325229635},{"NoteNumber":71,"Velocity":32,"Duration":437970,"SoundDuration":437970,"Delta":325692955},{"NoteNumber":83,"Velocity":39,"Duration":437970,"SoundDuration":437970,"Delta":325692955},{"NoteNumber":74,"Velocity":32,"Duration":437970,"SoundDuration":437970,"Delta":325692955},{"NoteNumber":55,"Velocity":28,"Duration":437970,"SoundDuration":437970,"Delta":325692955},{"NoteNumber":62,"Velocity":28,"Duration":437970,"SoundDuration":437970,"Delta":325692955},{"NoteNumber":67,"Velocity":33,"Duration":437970,"SoundDuration":437970,"Delta":325692955},{"NoteNumber":72,"Velocity":31,"Duration":471659,"SoundDuration":471659,"Delta":326144083},{"NoteNumber":84,"Velocity":36,"Duration":471659,"SoundDuration":471659,"Delta":326144083},{"NoteNumber":74,"Velocity":31,"Duration":471659,"SoundDuration":471659,"Delta":326144083},{"NoteNumber":57,"Velocity":25,"Duration":471659,"SoundDuration":471659,"Delta":326144083},{"NoteNumber":62,"Velocity":25,"Duration":471659,"SoundDuration":471659,"Delta":326144083},{"NoteNumber":69,"Velocity":30,"Duration":471659,"SoundDuration":471659,"Delta":326144083},{"NoteNumber":74,"Velocity":32,"Duration":723602,"SoundDuration":723602,"Delta":326629913},{"NoteNumber":86,"Velocity":38,"Duration":723602,"SoundDuration":723602,"Delta":326629913},{"NoteNumber":59,"Velocity":25,"Duration":723602,"SoundDuration":723602,"Delta":326629913},{"NoteNumber":62,"Velocity":25,"Duration":723602,"SoundDuration":723602,"Delta":326629913},{"NoteNumber":71,"Velocity":30,"Duration":723602,"SoundDuration":723602,"Delta":326629913},{"NoteNumber":71,"Velocity":36,"Duration":387043,"SoundDuration":387043,"Delta":327375255},{"NoteNumber":79,"Velocity":43,"Duration":387043,"SoundDuration":387043,"Delta":327375255},{"NoteNumber":67,"Velocity":36,"Duration":387043,"SoundDuration":387043,"Delta":327375255},{"NoteNumber":52,"Velocity":29,"Duration":387043,"SoundDuration":387043,"Delta":327375255},{"NoteNumber":64,"Velocity":35,"Duration":387043,"SoundDuration":387043,"Delta":327375255},{"NoteNumber":74,"Velocity":30,"Duration":390940,"SoundDuration":390940,"Delta":327773926},{"NoteNumber":78,"Velocity":30,"Duration":390940,"SoundDuration":390940,"Delta":327773926},{"NoteNumber":81,"Velocity":36,"Duration":390940,"SoundDuration":390940,"Delta":327773926},{"NoteNumber":69,"Velocity":30,"Duration":390940,"SoundDuration":390940,"Delta":327773926},{"NoteNumber":50,"Velocity":25,"Duration":390940,"SoundDuration":390940,"Delta":327773926},{"NoteNumber":62,"Velocity":30,"Duration":390940,"SoundDuration":390940,"Delta":327773926},{"NoteNumber":74,"Velocity":30,"Duration":416071,"SoundDuration":416071,"Delta":328176611},{"NoteNumber":79,"Velocity":30,"Duration":416071,"SoundDuration":416071,"Delta":328176611},{"NoteNumber":71,"Velocity":30,"Duration":416071,"SoundDuration":416071,"Delta":328176611},{"NoteNumber":83,"Velocity":36,"Duration":416071,"SoundDuration":416071,"Delta":328176611},{"NoteNumber":50,"Velocity":25,"Duration":407142,"SoundDuration":407142,"Delta":328176611},{"NoteNumber":47,"Velocity":25,"Duration":416071,"SoundDuration":416071,"Delta":328176611},{"NoteNumber":59,"Velocity":30,"Duration":416071,"SoundDuration":416071,"Delta":328176611},{"NoteNumber":72,"Velocity":34,"Duration":808672,"SoundDuration":808672,"Delta":328605182},{"NoteNumber":74,"Velocity":34,"Duration":808672,"SoundDuration":808672,"Delta":328605182},{"NoteNumber":78,"Velocity":34,"Duration":808672,"SoundDuration":808672,"Delta":328605182},{"NoteNumber":81,"Velocity":41,"Duration":808672,"SoundDuration":808672,"Delta":328605182},{"NoteNumber":50,"Velocity":31,"Duration":808672,"SoundDuration":808672,"Delta":328605182},{"NoteNumber":62,"Velocity":37,"Duration":808672,"SoundDuration":808672,"Delta":328605182},{"NoteNumber":71,"Velocity":32,"Duration":442966,"SoundDuration":442966,"Delta":329421508},{"NoteNumber":74,"Velocity":32,"Duration":442966,"SoundDuration":442966,"Delta":329421508},{"NoteNumber":79,"Velocity":38,"Duration":442966,"SoundDuration":442966,"Delta":329421508},{"NoteNumber":55,"Velocity":26,"Duration":442966,"SoundDuration":442966,"Delta":329421508},{"NoteNumber":62,"Velocity":31,"Duration":442966,"SoundDuration":442966,"Delta":329421508},{"NoteNumber":71,"Velocity":36,"Duration":508733,"SoundDuration":508733,"Delta":329877782},{"NoteNumber":74,"Velocity":36,"Duration":508733,"SoundDuration":508733,"Delta":329877782},{"NoteNumber":79,"Velocity":43,"Duration":508733,"SoundDuration":508733,"Delta":329877782},{"NoteNumber":55,"Velocity":30,"Duration":508733,"SoundDuration":508733,"Delta":329877782},{"NoteNumber":62,"Velocity":36,"Duration":508733,"SoundDuration":508733,"Delta":329877782},{"NoteNumber":74,"Velocity":44,"Duration":400000,"SoundDuration":400000,"Delta":330401799},{"NoteNumber":50,"Velocity":35,"Duration":400000,"SoundDuration":400000,"Delta":330401799},{"NoteNumber":62,"Velocity":35,"Duration":400000,"SoundDuration":400000,"Delta":330401799},{"NoteNumber":74,"Velocity":46,"Duration":420663,"SoundDuration":420663,"Delta":330822852},{"NoteNumber":50,"Velocity":36,"Duration":420663,"SoundDuration":420663,"Delta":330822852},{"NoteNumber":62,"Velocity":36,"Duration":420663,"SoundDuration":420663,"Delta":330822852},{"NoteNumber":67,"Velocity":46,"Duration":813356,"SoundDuration":813356,"Delta":331265656},{"NoteNumber":64,"Velocity":46,"Duration":813356,"SoundDuration":813356,"Delta":331265656},{"NoteNumber":72,"Velocity":46,"Duration":814212,"SoundDuration":814212,"Delta":331265656},{"NoteNumber":76,"Velocity":55,"Duration":814212,"SoundDuration":814212,"Delta":331265656},{"NoteNumber":48,"Velocity":36,"Duration":814212,"SoundDuration":814212,"Delta":331265656},{"NoteNumber":55,"Velocity":36,"Duration":814212,"SoundDuration":814212,"Delta":331265656},{"NoteNumber":60,"Velocity":44,"Duration":814212,"SoundDuration":814212,"Delta":331265656},{"NoteNumber":67,"Velocity":37,"Duration":378737,"SoundDuration":378737,"Delta":332087574},{"NoteNumber":64,"Velocity":37,"Duration":378737,"SoundDuration":378737,"Delta":332087574},{"NoteNumber":72,"Velocity":37,"Duration":378737,"SoundDuration":378737,"Delta":332087574},{"NoteNumber":76,"Velocity":44,"Duration":378737,"SoundDuration":378737,"Delta":332087574},{"NoteNumber":48,"Velocity":29,"Duration":378737,"SoundDuration":378737,"Delta":332087574},{"NoteNumber":55,"Velocity":29,"Duration":378737,"SoundDuration":378737,"Delta":332087574},{"NoteNumber":60,"Velocity":35,"Duration":378737,"SoundDuration":378737,"Delta":332087574},{"NoteNumber":64,"Velocity":37,"Duration":364217,"SoundDuration":364217,"Delta":332486245},{"NoteNumber":67,"Velocity":37,"Duration":364217,"SoundDuration":364217,"Delta":332486245},{"NoteNumber":72,"Velocity":37,"Duration":364217,"SoundDuration":364217,"Delta":332486245},{"NoteNumber":76,"Velocity":44,"Duration":364217,"SoundDuration":364217,"Delta":332486245},{"NoteNumber":48,"Velocity":29,"Duration":364217,"SoundDuration":364217,"Delta":332486245},{"NoteNumber":55,"Velocity":29,"Duration":364217,"SoundDuration":364217,"Delta":332486245},{"NoteNumber":60,"Velocity":35,"Duration":364217,"SoundDuration":364217,"Delta":332486245},{"NoteNumber":72,"Velocity":35,"Duration":357367,"SoundDuration":357367,"Delta":332869632},{"NoteNumber":64,"Velocity":35,"Duration":357367,"SoundDuration":357367,"Delta":332869632},{"NoteNumber":67,"Velocity":35,"Duration":357367,"SoundDuration":357367,"Delta":332869632},{"NoteNumber":76,"Velocity":42,"Duration":357367,"SoundDuration":357367,"Delta":332869632},{"NoteNumber":48,"Velocity":28,"Duration":357367,"SoundDuration":357367,"Delta":332869632},{"NoteNumber":55,"Velocity":28,"Duration":357367,"SoundDuration":357367,"Delta":332869632},{"NoteNumber":60,"Velocity":33,"Duration":357367,"SoundDuration":357367,"Delta":332869632},{"NoteNumber":64,"Velocity":35,"Duration":367742,"SoundDuration":367742,"Delta":333245808},{"NoteNumber":67,"Velocity":35,"Duration":367742,"SoundDuration":367742,"Delta":333245808},{"NoteNumber":72,"Velocity":35,"Duration":367742,"SoundDuration":367742,"Delta":333245808},{"NoteNumber":76,"Velocity":42,"Duration":367742,"SoundDuration":367742,"Delta":333245808},{"NoteNumber":48,"Velocity":28,"Duration":367742,"SoundDuration":367742,"Delta":333245808},{"NoteNumber":55,"Velocity":28,"Duration":367742,"SoundDuration":367742,"Delta":333245808},{"NoteNumber":60,"Velocity":33,"Duration":367742,"SoundDuration":367742,"Delta":333245808},{"NoteNumber":64,"Velocity":37,"Duration":367742,"SoundDuration":367742,"Delta":333632905},{"NoteNumber":67,"Velocity":37,"Duration":367742,"SoundDuration":367742,"Delta":333632905},{"NoteNumber":76,"Velocity":44,"Duration":367742,"SoundDuration":367742,"Delta":333632905},{"NoteNumber":48,"Velocity":29,"Duration":367742,"SoundDuration":367742,"Delta":333632905},{"NoteNumber":55,"Velocity":29,"Duration":367742,"SoundDuration":367742,"Delta":333632905},{"NoteNumber":60,"Velocity":35,"Duration":367742,"SoundDuration":367742,"Delta":333632905},{"NoteNumber":62,"Velocity":40,"Duration":361801,"SoundDuration":361801,"Delta":334020002},{"NoteNumber":67,"Velocity":40,"Duration":361801,"SoundDuration":361801,"Delta":334020002},{"NoteNumber":74,"Velocity":48,"Duration":361801,"SoundDuration":361801,"Delta":334020002},{"NoteNumber":43,"Velocity":32,"Duration":361025,"SoundDuration":361025,"Delta":334020002},{"NoteNumber":55,"Velocity":38,"Duration":361025,"SoundDuration":361025,"Delta":334020002},{"NoteNumber":60,"Velocity":37,"Duration":367183,"SoundDuration":367183,"Delta":334392673},{"NoteNumber":67,"Velocity":37,"Duration":367183,"SoundDuration":367183,"Delta":334392673},{"NoteNumber":72,"Velocity":44,"Duration":367183,"SoundDuration":367183,"Delta":334392673},{"NoteNumber":43,"Velocity":29,"Duration":367183,"SoundDuration":367183,"Delta":334392673},{"NoteNumber":40,"Velocity":29,"Duration":367183,"SoundDuration":367183,"Delta":334392673},{"NoteNumber":52,"Velocity":35,"Duration":367183,"SoundDuration":367183,"Delta":334392673},{"NoteNumber":60,"Velocity":37,"Duration":358490,"SoundDuration":358490,"Delta":334779150},{"NoteNumber":67,"Velocity":37,"Duration":358490,"SoundDuration":358490,"Delta":334779150},{"NoteNumber":72,"Velocity":44,"Duration":358490,"SoundDuration":358490,"Delta":334779150},{"NoteNumber":40,"Velocity":29,"Duration":358490,"SoundDuration":358490,"Delta":334779150},{"NoteNumber":43,"Velocity":29,"Duration":358490,"SoundDuration":358490,"Delta":334779150},{"NoteNumber":52,"Velocity":35,"Duration":358490,"SoundDuration":358490,"Delta":334779150},{"NoteNumber":62,"Velocity":40,"Duration":361904,"SoundDuration":361904,"Delta":335156508},{"NoteNumber":67,"Velocity":40,"Duration":361904,"SoundDuration":361904,"Delta":335156508},{"NoteNumber":74,"Velocity":48,"Duration":361904,"SoundDuration":361904,"Delta":335156508},{"NoteNumber":43,"Velocity":32,"Duration":361904,"SoundDuration":361904,"Delta":335156508},{"NoteNumber":55,"Velocity":38,"Duration":361904,"SoundDuration":361904,"Delta":335156508},{"NoteNumber":64,"Velocity":46,"Duration":366559,"SoundDuration":366559,"Delta":335537460},{"NoteNumber":67,"Velocity":46,"Duration":366559,"SoundDuration":366559,"Delta":335537460},{"NoteNumber":76,"Velocity":54,"Duration":366559,"SoundDuration":366559,"Delta":335537460},{"NoteNumber":48,"Velocity":36,"Duration":366559,"SoundDuration":366559,"Delta":335537460},{"NoteNumber":55,"Velocity":36,"Duration":366559,"SoundDuration":366559,"Delta":335537460},{"NoteNumber":60,"Velocity":42,"Duration":366559,"SoundDuration":366559,"Delta":335537460},{"NoteNumber":67,"Velocity":56,"Duration":779012,"SoundDuration":779012,"Delta":335923312},{"NoteNumber":70,"Velocity":56,"Duration":779012,"SoundDuration":779012,"Delta":335923312},{"NoteNumber":79,"Velocity":67,"Duration":779832,"SoundDuration":779832,"Delta":335923312},{"NoteNumber":51,"Velocity":44,"Duration":779012,"SoundDuration":779012,"Delta":335923312},{"NoteNumber":58,"Velocity":44,"Duration":779012,"SoundDuration":779012,"Delta":335923312},{"NoteNumber":63,"Velocity":53,"Duration":779012,"SoundDuration":779012,"Delta":335923312},{"NoteNumber":67,"Velocity":50,"Duration":372549,"SoundDuration":372549,"Delta":336710521},{"NoteNumber":70,"Velocity":50,"Duration":372549,"SoundDuration":372549,"Delta":336710521},{"NoteNumber":79,"Velocity":60,"Duration":372549,"SoundDuration":372549,"Delta":336710521},{"NoteNumber":51,"Velocity":39,"Duration":372549,"SoundDuration":372549,"Delta":336710521},{"NoteNumber":58,"Velocity":39,"Duration":372549,"SoundDuration":372549,"Delta":336710521},{"NoteNumber":63,"Velocity":47,"Duration":372549,"SoundDuration":372549,"Delta":336710521},{"NoteNumber":67,"Velocity":50,"Duration":357367,"SoundDuration":357367,"Delta":337102678},{"NoteNumber":70,"Velocity":50,"Duration":357367,"SoundDuration":357367,"Delta":337102678},{"NoteNumber":79,"Velocity":60,"Duration":357367,"SoundDuration":357367,"Delta":337102678},{"NoteNumber":51,"Velocity":39,"Duration":357367,"SoundDuration":357367,"Delta":337102678},{"NoteNumber":58,"Velocity":39,"Duration":357367,"SoundDuration":357367,"Delta":337102678},{"NoteNumber":63,"Velocity":47,"Duration":357367,"SoundDuration":357367,"Delta":337102678},{"NoteNumber":67,"Velocity":47,"Duration":349693,"SoundDuration":349693,"Delta":337478854},{"NoteNumber":79,"Velocity":57,"Duration":349693,"SoundDuration":349693,"Delta":337478854},{"NoteNumber":70,"Velocity":47,"Duration":349693,"SoundDuration":349693,"Delta":337478854},{"NoteNumber":51,"Velocity":38,"Duration":349693,"SoundDuration":349693,"Delta":337478854},{"NoteNumber":58,"Velocity":38,"Duration":349693,"SoundDuration":349693,"Delta":337478854},{"NoteNumber":63,"Velocity":45,"Duration":349693,"SoundDuration":349693,"Delta":337478854},{"NoteNumber":70,"Velocity":47,"Duration":364833,"SoundDuration":364833,"Delta":337846952},{"NoteNumber":79,"Velocity":57,"Duration":364833,"SoundDuration":364833,"Delta":337846952},{"NoteNumber":67,"Velocity":47,"Duration":364833,"SoundDuration":364833,"Delta":337846952},{"NoteNumber":51,"Velocity":38,"Duration":364833,"SoundDuration":364833,"Delta":337846952},{"NoteNumber":58,"Velocity":38,"Duration":364833,"SoundDuration":364833,"Delta":337846952},{"NoteNumber":63,"Velocity":45,"Duration":364833,"SoundDuration":364833,"Delta":337846952},{"NoteNumber":70,"Velocity":50,"Duration":359621,"SoundDuration":359621,"Delta":338230955},{"NoteNumber":79,"Velocity":60,"Duration":359621,"SoundDuration":359621,"Delta":338230955},{"NoteNumber":67,"Velocity":50,"Duration":359621,"SoundDuration":359621,"Delta":338230955},{"NoteNumber":51,"Velocity":39,"Duration":359621,"SoundDuration":359621,"Delta":338230955},{"NoteNumber":58,"Velocity":39,"Duration":359621,"SoundDuration":359621,"Delta":338230955},{"NoteNumber":63,"Velocity":47,"Duration":359621,"SoundDuration":359621,"Delta":338230955},{"NoteNumber":70,"Velocity":55,"Duration":367879,"SoundDuration":367879,"Delta":338609504},{"NoteNumber":77,"Velocity":66,"Duration":367879,"SoundDuration":367879,"Delta":338609504},{"NoteNumber":65,"Velocity":55,"Duration":367879,"SoundDuration":367879,"Delta":338609504},{"NoteNumber":46,"Velocity":44,"Duration":367879,"SoundDuration":367879,"Delta":338609504},{"NoteNumber":58,"Velocity":51,"Duration":367879,"SoundDuration":367879,"Delta":338609504},{"NoteNumber":63,"Velocity":50,"Duration":371335,"SoundDuration":371335,"Delta":338989251},{"NoteNumber":75,"Velocity":60,"Duration":371335,"SoundDuration":371335,"Delta":338989251},{"NoteNumber":70,"Velocity":50,"Duration":371335,"SoundDuration":371335,"Delta":338989251},{"NoteNumber":43,"Velocity":39,"Duration":371335,"SoundDuration":371335,"Delta":338989251},{"NoteNumber":46,"Velocity":39,"Duration":371335,"SoundDuration":371335,"Delta":338989251},{"NoteNumber":55,"Velocity":47,"Duration":371335,"SoundDuration":371335,"Delta":338989251},{"NoteNumber":63,"Velocity":50,"Duration":357367,"SoundDuration":357367,"Delta":339380130},{"NoteNumber":75,"Velocity":60,"Duration":357367,"SoundDuration":357367,"Delta":339380130},{"NoteNumber":70,"Velocity":50,"Duration":357367,"SoundDuration":357367,"Delta":339380130},{"NoteNumber":43,"Velocity":39,"Duration":357367,"SoundDuration":357367,"Delta":339380130},{"NoteNumber":46,"Velocity":39,"Duration":357367,"SoundDuration":357367,"Delta":339380130},{"NoteNumber":55,"Velocity":47,"Duration":357367,"SoundDuration":357367,"Delta":339380130},{"NoteNumber":65,"Velocity":55,"Duration":352941,"SoundDuration":352941,"Delta":339756306},{"NoteNumber":70,"Velocity":55,"Duration":352941,"SoundDuration":352941,"Delta":339756306},{"NoteNumber":77,"Velocity":66,"Duration":352941,"SoundDuration":352941,"Delta":339756306},{"NoteNumber":46,"Velocity":42,"Duration":352941,"SoundDuration":352941,"Delta":339756306},{"NoteNumber":58,"Velocity":52,"Duration":352941,"SoundDuration":352941,"Delta":339756306},{"NoteNumber":67,"Velocity":59,"Duration":375000,"SoundDuration":375000,"Delta":340127823},{"NoteNumber":70,"Velocity":59,"Duration":375000,"SoundDuration":375000,"Delta":340127823},{"NoteNumber":79,"Velocity":71,"Duration":375000,"SoundDuration":375000,"Delta":340127823},{"NoteNumber":51,"Velocity":46,"Duration":375000,"SoundDuration":375000,"Delta":340127823},{"NoteNumber":58,"Velocity":46,"Duration":375000,"SoundDuration":375000,"Delta":340127823},{"NoteNumber":63,"Velocity":57,"Duration":375000,"SoundDuration":375000,"Delta":340127823},{"NoteNumber":70,"Velocity":63,"Duration":763665,"SoundDuration":763665,"Delta":340522560},{"NoteNumber":82,"Velocity":76,"Duration":763665,"SoundDuration":763665,"Delta":340522560},{"NoteNumber":73,"Velocity":63,"Duration":763665,"SoundDuration":763665,"Delta":340522560},{"NoteNumber":42,"Velocity":50,"Duration":763665,"SoundDuration":763665,"Delta":340522560},{"NoteNumber":49,"Velocity":50,"Duration":763665,"SoundDuration":763665,"Delta":340522560},{"NoteNumber":54,"Velocity":61,"Duration":763665,"SoundDuration":763665,"Delta":340522560},{"NoteNumber":70,"Velocity":57,"Duration":365384,"SoundDuration":365384,"Delta":341294264},{"NoteNumber":82,"Velocity":68,"Duration":365384,"SoundDuration":365384,"Delta":341294264},{"NoteNumber":73,"Velocity":57,"Duration":365384,"SoundDuration":365384,"Delta":341294264},{"NoteNumber":42,"Velocity":45,"Duration":365384,"SoundDuration":365384,"Delta":341294264},{"NoteNumber":49,"Velocity":45,"Duration":365384,"SoundDuration":365384,"Delta":341294264},{"NoteNumber":54,"Velocity":53,"Duration":365384,"SoundDuration":365384,"Delta":341294264},{"NoteNumber":70,"Velocity":57,"Duration":363057,"SoundDuration":363057,"Delta":341678879},{"NoteNumber":82,"Velocity":68,"Duration":363057,"SoundDuration":363057,"Delta":341678879},{"NoteNumber":73,"Velocity":57,"Duration":363057,"SoundDuration":363057,"Delta":341678879},{"NoteNumber":42,"Velocity":45,"Duration":363057,"SoundDuration":363057,"Delta":341678879},{"NoteNumber":49,"Velocity":45,"Duration":363057,"SoundDuration":363057,"Delta":341678879},{"NoteNumber":54,"Velocity":53,"Duration":363057,"SoundDuration":363057,"Delta":341678879},{"NoteNumber":70,"Velocity":53,"Duration":354037,"SoundDuration":354037,"Delta":342061045},{"NoteNumber":73,"Velocity":53,"Duration":354037,"SoundDuration":354037,"Delta":342061045},{"NoteNumber":82,"Velocity":65,"Duration":354037,"SoundDuration":354037,"Delta":342061045},{"NoteNumber":42,"Velocity":43,"Duration":354037,"SoundDuration":354037,"Delta":342061045},{"NoteNumber":49,"Velocity":43,"Duration":354037,"SoundDuration":354037,"Delta":342061045},{"NoteNumber":54,"Velocity":51,"Duration":354037,"SoundDuration":354037,"Delta":342061045},{"NoteNumber":73,"Velocity":53,"Duration":367183,"SoundDuration":367183,"Delta":342433716},{"NoteNumber":70,"Velocity":53,"Duration":367183,"SoundDuration":367183,"Delta":342433716},{"NoteNumber":82,"Velocity":65,"Duration":367183,"SoundDuration":367183,"Delta":342433716},{"NoteNumber":42,"Velocity":43,"Duration":367183,"SoundDuration":367183,"Delta":342433716},{"NoteNumber":49,"Velocity":43,"Duration":367183,"SoundDuration":367183,"Delta":342433716},{"NoteNumber":54,"Velocity":51,"Duration":367183,"SoundDuration":367183,"Delta":342433716},{"NoteNumber":70,"Velocity":57,"Duration":366559,"SoundDuration":366559,"Delta":342820193},{"NoteNumber":82,"Velocity":68,"Duration":366559,"SoundDuration":366559,"Delta":342820193},{"NoteNumber":73,"Velocity":57,"Duration":366559,"SoundDuration":366559,"Delta":342820193},{"NoteNumber":42,"Velocity":45,"Duration":366559,"SoundDuration":366559,"Delta":342820193},{"NoteNumber":49,"Velocity":45,"Duration":366559,"SoundDuration":366559,"Delta":342820193},{"NoteNumber":54,"Velocity":53,"Duration":366559,"SoundDuration":366559,"Delta":342820193},{"NoteNumber":73,"Velocity":56,"Duration":362149,"SoundDuration":362149,"Delta":343206045},{"NoteNumber":80,"Velocity":67,"Duration":362149,"SoundDuration":362149,"Delta":343206045},{"NoteNumber":68,"Velocity":56,"Duration":362149,"SoundDuration":362149,"Delta":343206045},{"NoteNumber":37,"Velocity":45,"Duration":362149,"SoundDuration":362149,"Delta":343206045},{"NoteNumber":49,"Velocity":53,"Duration":362149,"SoundDuration":362149,"Delta":343206045},{"NoteNumber":73,"Velocity":57,"Duration":366559,"SoundDuration":366559,"Delta":343579877},{"NoteNumber":78,"Velocity":68,"Duration":366559,"SoundDuration":366559,"Delta":343579877},{"NoteNumber":66,"Velocity":57,"Duration":366559,"SoundDuration":366559,"Delta":343579877},{"NoteNumber":34,"Velocity":45,"Duration":366559,"SoundDuration":366559,"Delta":343579877},{"NoteNumber":46,"Velocity":53,"Duration":366559,"SoundDuration":366559,"Delta":343579877},{"NoteNumber":70,"Velocity":57,"Duration":358490,"SoundDuration":358490,"Delta":343965729},{"NoteNumber":82,"Velocity":68,"Duration":358490,"SoundDuration":358490,"Delta":343965729},{"NoteNumber":78,"Velocity":57,"Duration":358490,"SoundDuration":358490,"Delta":343965729},{"NoteNumber":42,"Velocity":45,"Duration":358490,"SoundDuration":358490,"Delta":343965729},{"NoteNumber":54,"Velocity":53,"Duration":358490,"SoundDuration":358490,"Delta":343965729},{"NoteNumber":71,"Velocity":65,"Duration":352941,"SoundDuration":352941,"Delta":344343087},{"NoteNumber":83,"Velocity":78,"Duration":352941,"SoundDuration":352941,"Delta":344343087},{"NoteNumber":78,"Velocity":65,"Duration":352941,"SoundDuration":352941,"Delta":344343087},{"NoteNumber":54,"Velocity":50,"Duration":371516,"SoundDuration":371516,"Delta":344343087},{"NoteNumber":44,"Velocity":50,"Duration":352941,"SoundDuration":352941,"Delta":344343087},{"NoteNumber":56,"Velocity":63,"Duration":352941,"SoundDuration":352941,"Delta":344343087},{"NoteNumber":73,"Velocity":73,"Duration":377483,"SoundDuration":377483,"Delta":344714604},{"NoteNumber":78,"Velocity":73,"Duration":377483,"SoundDuration":377483,"Delta":344714604},{"NoteNumber":85,"Velocity":89,"Duration":377483,"SoundDuration":377483,"Delta":344714604},{"NoteNumber":46,"Velocity":57,"Duration":377483,"SoundDuration":377483,"Delta":344714604},{"NoteNumber":54,"Velocity":57,"Duration":377483,"SoundDuration":377483,"Delta":344714604},{"NoteNumber":58,"Velocity":71,"Duration":377483,"SoundDuration":377483,"Delta":344714604},{"NoteNumber":78,"Velocity":82,"Duration":764604,"SoundDuration":764604,"Delta":345111955},{"NoteNumber":74,"Velocity":82,"Duration":764604,"SoundDuration":764604,"Delta":345111955},{"NoteNumber":86,"Velocity":100,"Duration":764604,"SoundDuration":764604,"Delta":345111955},{"NoteNumber":47,"Velocity":65,"Duration":764604,"SoundDuration":764604,"Delta":345111955},{"NoteNumber":54,"Velocity":65,"Duration":764604,"SoundDuration":764604,"Delta":345111955},{"NoteNumber":59,"Velocity":80,"Duration":764604,"SoundDuration":764604,"Delta":345111955},{"NoteNumber":78,"Velocity":74,"Duration":372549,"SoundDuration":372549,"Delta":345884598},{"NoteNumber":74,"Velocity":74,"Duration":372549,"SoundDuration":372549,"Delta":345884598},{"NoteNumber":86,"Velocity":89,"Duration":372549,"SoundDuration":372549,"Delta":345884598},{"NoteNumber":47,"Velocity":58,"Duration":372549,"SoundDuration":372549,"Delta":345884598},{"NoteNumber":54,"Velocity":58,"Duration":372549,"SoundDuration":372549,"Delta":345884598},{"NoteNumber":59,"Velocity":69,"Duration":372549,"SoundDuration":372549,"Delta":345884598},{"NoteNumber":74,"Velocity":74,"Duration":359621,"SoundDuration":359621,"Delta":346276755},{"NoteNumber":86,"Velocity":89,"Duration":359621,"SoundDuration":359621,"Delta":346276755},{"NoteNumber":78,"Velocity":74,"Duration":359621,"SoundDuration":359621,"Delta":346276755},{"NoteNumber":47,"Velocity":58,"Duration":359621,"SoundDuration":359621,"Delta":346276755},{"NoteNumber":54,"Velocity":58,"Duration":359621,"SoundDuration":359621,"Delta":346276755},{"NoteNumber":59,"Velocity":69,"Duration":359621,"SoundDuration":359621,"Delta":346276755},{"NoteNumber":78,"Velocity":69,"Duration":354037,"SoundDuration":354037,"Delta":346655304},{"NoteNumber":86,"Velocity":85,"Duration":354037,"SoundDuration":354037,"Delta":346655304},{"NoteNumber":74,"Velocity":69,"Duration":354037,"SoundDuration":354037,"Delta":346655304},{"NoteNumber":47,"Velocity":56,"Duration":354037,"SoundDuration":354037,"Delta":346655304},{"NoteNumber":54,"Velocity":56,"Duration":354037,"SoundDuration":354037,"Delta":346655304},{"NoteNumber":59,"Velocity":66,"Duration":354037,"SoundDuration":354037,"Delta":346655304},{"NoteNumber":86,"Velocity":85,"Duration":373770,"SoundDuration":373770,"Delta":347027975},{"NoteNumber":78,"Velocity":69,"Duration":373770,"SoundDuration":373770,"Delta":347027975},{"NoteNumber":74,"Velocity":69,"Duration":373770,"SoundDuration":373770,"Delta":347027975},{"NoteNumber":47,"Velocity":56,"Duration":373770,"SoundDuration":373770,"Delta":347027975},{"NoteNumber":54,"Velocity":56,"Duration":373770,"SoundDuration":373770,"Delta":347027975},{"NoteNumber":59,"Velocity":66,"Duration":373770,"SoundDuration":373770,"Delta":347027975},{"NoteNumber":77,"Velocity":82,"Duration":794314,"SoundDuration":794314,"Delta":347421418},{"NoteNumber":86,"Velocity":82,"Duration":794314,"SoundDuration":794314,"Delta":347421418},{"NoteNumber":83,"Velocity":82,"Duration":794314,"SoundDuration":794314,"Delta":347421418},{"NoteNumber":79,"Velocity":82,"Duration":794314,"SoundDuration":794314,"Delta":347421418},{"NoteNumber":91,"Velocity":100,"Duration":794314,"SoundDuration":794314,"Delta":347421418},{"NoteNumber":31,"Velocity":65,"Duration":794314,"SoundDuration":794314,"Delta":347421418},{"NoteNumber":43,"Velocity":80,"Duration":794314,"SoundDuration":794314,"Delta":347421418},{"NoteNumber":79,"Velocity":74,"Duration":391399,"SoundDuration":391399,"Delta":348224094},{"NoteNumber":86,"Velocity":74,"Duration":391399,"SoundDuration":391399,"Delta":348224094},{"NoteNumber":77,"Velocity":74,"Duration":391399,"SoundDuration":391399,"Delta":348224094},{"NoteNumber":91,"Velocity":89,"Duration":391399,"SoundDuration":391399,"Delta":348224094},{"NoteNumber":83,"Velocity":74,"Duration":391399,"SoundDuration":391399,"Delta":348224094},{"NoteNumber":31,"Velocity":58,"Duration":391399,"SoundDuration":391399,"Delta":348224094},{"NoteNumber":43,"Velocity":69,"Duration":391399,"SoundDuration":391399,"Delta":348224094},{"NoteNumber":77,"Velocity":74,"Duration":394177,"SoundDuration":394177,"Delta":348636112},{"NoteNumber":91,"Velocity":89,"Duration":394177,"SoundDuration":394177,"Delta":348636112},{"NoteNumber":83,"Velocity":74,"Duration":394177,"SoundDuration":394177,"Delta":348636112},{"NoteNumber":79,"Velocity":74,"Duration":394177,"SoundDuration":394177,"Delta":348636112},{"NoteNumber":86,"Velocity":74,"Duration":394177,"SoundDuration":394177,"Delta":348636112},{"NoteNumber":35,"Velocity":58,"Duration":394177,"SoundDuration":394177,"Delta":348636112},{"NoteNumber":47,"Velocity":69,"Duration":394177,"SoundDuration":394177,"Delta":348636112},{"NoteNumber":77,"Velocity":64,"Duration":400000,"SoundDuration":400000,"Delta":349050979},{"NoteNumber":83,"Velocity":64,"Duration":400000,"SoundDuration":400000,"Delta":349050979},{"NoteNumber":86,"Velocity":64,"Duration":400000,"SoundDuration":400000,"Delta":349050979},{"NoteNumber":79,"Velocity":64,"Duration":400000,"SoundDuration":400000,"Delta":349050979},{"NoteNumber":91,"Velocity":79,"Duration":400000,"SoundDuration":400000,"Delta":349050979},{"NoteNumber":38,"Velocity":52,"Duration":400000,"SoundDuration":400000,"Delta":349050979},{"NoteNumber":50,"Velocity":62,"Duration":400000,"SoundDuration":400000,"Delta":349050979},{"NoteNumber":79,"Velocity":60,"Duration":417581,"SoundDuration":417581,"Delta":349472032},{"NoteNumber":86,"Velocity":60,"Duration":417581,"SoundDuration":417581,"Delta":349472032},{"NoteNumber":77,"Velocity":60,"Duration":417581,"SoundDuration":417581,"Delta":349472032},{"NoteNumber":91,"Velocity":73,"Duration":417581,"SoundDuration":417581,"Delta":349472032},{"NoteNumber":83,"Velocity":60,"Duration":417581,"SoundDuration":417581,"Delta":349472032},{"NoteNumber":43,"Velocity":48,"Duration":417581,"SoundDuration":417581,"Delta":349472032},{"NoteNumber":55,"Velocity":57,"Duration":417581,"SoundDuration":417581,"Delta":349472032},{"NoteNumber":76,"Velocity":58,"Duration":840252,"SoundDuration":840252,"Delta":349911592},{"NoteNumber":88,"Velocity":69,"Duration":840252,"SoundDuration":840252,"Delta":349911592},{"NoteNumber":79,"Velocity":58,"Duration":840252,"SoundDuration":840252,"Delta":349911592},{"NoteNumber":84,"Velocity":58,"Duration":840252,"SoundDuration":840252,"Delta":349911592},{"NoteNumber":36,"Velocity":46,"Duration":840252,"SoundDuration":840252,"Delta":349911592},{"NoteNumber":48,"Velocity":55,"Duration":840252,"SoundDuration":840252,"Delta":349911592},{"NoteNumber":64,"Velocity":32,"Duration":393103,"SoundDuration":393103,"Delta":350778018},{"NoteNumber":76,"Velocity":38,"Duration":393103,"SoundDuration":393103,"Delta":350778018},{"NoteNumber":72,"Velocity":32,"Duration":393103,"SoundDuration":393103,"Delta":350778018},{"NoteNumber":36,"Velocity":27,"Duration":393103,"SoundDuration":393103,"Delta":350778018},{"NoteNumber":48,"Velocity":32,"Duration":393103,"SoundDuration":393103,"Delta":350778018},{"NoteNumber":64,"Velocity":36,"Duration":368932,"SoundDuration":368932,"Delta":351191811},{"NoteNumber":76,"Velocity":43,"Duration":368932,"SoundDuration":368932,"Delta":351191811},{"NoteNumber":72,"Velocity":36,"Duration":368932,"SoundDuration":368932,"Delta":351191811},{"NoteNumber":36,"Velocity":23,"Duration":368932,"SoundDuration":368932,"Delta":351191811},{"NoteNumber":48,"Velocity":33,"Duration":368932,"SoundDuration":368932,"Delta":351191811},{"NoteNumber":72,"Velocity":32,"Duration":360759,"SoundDuration":360759,"Delta":351580161},{"NoteNumber":64,"Velocity":32,"Duration":360759,"SoundDuration":360759,"Delta":351580161},{"NoteNumber":76,"Velocity":38,"Duration":360759,"SoundDuration":360759,"Delta":351580161},{"NoteNumber":36,"Velocity":23,"Duration":360759,"SoundDuration":360759,"Delta":351580161},{"NoteNumber":48,"Velocity":28,"Duration":360759,"SoundDuration":360759,"Delta":351580161},{"NoteNumber":64,"Velocity":32,"Duration":393103,"SoundDuration":393103,"Delta":351959908},{"NoteNumber":72,"Velocity":32,"Duration":393103,"SoundDuration":393103,"Delta":351959908},{"NoteNumber":76,"Velocity":38,"Duration":393103,"SoundDuration":393103,"Delta":351959908},{"NoteNumber":36,"Velocity":23,"Duration":393103,"SoundDuration":393103,"Delta":351959908},{"NoteNumber":48,"Velocity":28,"Duration":393103,"SoundDuration":393103,"Delta":351959908},{"NoteNumber":76,"Velocity":43,"Duration":762465,"SoundDuration":762465,"Delta":352373701},{"NoteNumber":72,"Velocity":36,"Duration":762465,"SoundDuration":762465,"Delta":352373701},{"NoteNumber":64,"Velocity":36,"Duration":1192637,"SoundDuration":1192637,"Delta":352373701},{"NoteNumber":36,"Velocity":30,"Duration":762465,"SoundDuration":762465,"Delta":352373701},{"NoteNumber":48,"Velocity":36,"Duration":762465,"SoundDuration":762465,"Delta":352373701},{"NoteNumber":71,"Velocity":32,"Duration":386099,"SoundDuration":386099,"Delta":353159917},{"NoteNumber":74,"Velocity":38,"Duration":386099,"SoundDuration":386099,"Delta":353159917},{"NoteNumber":36,"Velocity":23,"Duration":386099,"SoundDuration":386099,"Delta":353159917},{"NoteNumber":48,"Velocity":28,"Duration":386099,"SoundDuration":386099,"Delta":353159917},{"NoteNumber":74,"Velocity":44,"Duration":767493,"SoundDuration":767493,"Delta":353566338},{"NoteNumber":71,"Velocity":37,"Duration":767493,"SoundDuration":767493,"Delta":353566338},{"NoteNumber":64,"Velocity":37,"Duration":1201993,"SoundDuration":1201993,"Delta":353566338},{"NoteNumber":36,"Velocity":29,"Duration":767493,"SoundDuration":767493,"Delta":353566338},{"NoteNumber":48,"Velocity":35,"Duration":767493,"SoundDuration":767493,"Delta":353566338},{"NoteNumber":69,"Velocity":31,"Duration":390063,"SoundDuration":390063,"Delta":354357738},{"NoteNumber":72,"Velocity":36,"Duration":390063,"SoundDuration":390063,"Delta":354357738},{"NoteNumber":36,"Velocity":21,"Duration":390063,"SoundDuration":390063,"Delta":354357738},{"NoteNumber":48,"Velocity":26,"Duration":390063,"SoundDuration":390063,"Delta":354357738},{"NoteNumber":64,"Velocity":35,"Duration":767493,"SoundDuration":767493,"Delta":354768331},{"NoteNumber":69,"Velocity":35,"Duration":767493,"SoundDuration":767493,"Delta":354768331},{"NoteNumber":72,"Velocity":41,"Duration":767493,"SoundDuration":767493,"Delta":354768331},{"NoteNumber":36,"Velocity":28,"Duration":767493,"SoundDuration":767493,"Delta":354768331},{"NoteNumber":48,"Velocity":34,"Duration":767493,"SoundDuration":767493,"Delta":354768331},{"NoteNumber":67,"Velocity":27,"Duration":392750,"SoundDuration":392750,"Delta":355559731},{"NoteNumber":71,"Velocity":32,"Duration":392750,"SoundDuration":392750,"Delta":355559731},{"NoteNumber":36,"Velocity":21,"Duration":392750,"SoundDuration":392750,"Delta":355559731},{"NoteNumber":48,"Velocity":26,"Duration":392750,"SoundDuration":392750,"Delta":355559731},{"NoteNumber":67,"Velocity":32,"Duration":762465,"SoundDuration":762465,"Delta":355973153},{"NoteNumber":71,"Velocity":38,"Duration":762465,"SoundDuration":762465,"Delta":355973153},{"NoteNumber":36,"Velocity":25,"Duration":762465,"SoundDuration":762465,"Delta":355973153},{"NoteNumber":48,"Velocity":30,"Duration":762465,"SoundDuration":762465,"Delta":355973153},{"NoteNumber":62,"Velocity":26,"Duration":395476,"SoundDuration":395476,"Delta":356759369},{"NoteNumber":66,"Velocity":26,"Duration":395476,"SoundDuration":395476,"Delta":356759369},{"NoteNumber":69,"Velocity":30,"Duration":395476,"SoundDuration":395476,"Delta":356759369},{"NoteNumber":36,"Velocity":22,"Duration":395476,"SoundDuration":395476,"Delta":356759369},{"NoteNumber":48,"Velocity":26,"Duration":395476,"SoundDuration":395476,"Delta":356759369},{"NoteNumber":66,"Velocity":29,"Duration":762465,"SoundDuration":762465,"Delta":357175660},{"NoteNumber":62,"Velocity":29,"Duration":762465,"SoundDuration":762465,"Delta":357175660},{"NoteNumber":69,"Velocity":35,"Duration":762465,"SoundDuration":762465,"Delta":357175660},{"NoteNumber":36,"Velocity":23,"Duration":762465,"SoundDuration":762465,"Delta":357175660},{"NoteNumber":48,"Velocity":28,"Duration":762465,"SoundDuration":762465,"Delta":357175660},{"NoteNumber":62,"Velocity":25,"Duration":380939,"SoundDuration":380939,"Delta":357961876},{"NoteNumber":66,"Velocity":25,"Duration":380939,"SoundDuration":380939,"Delta":357961876},{"NoteNumber":69,"Velocity":29,"Duration":380939,"SoundDuration":380939,"Delta":357961876},{"NoteNumber":36,"Velocity":21,"Duration":380939,"SoundDuration":380939,"Delta":357961876},{"NoteNumber":48,"Velocity":25,"Duration":380939,"SoundDuration":380939,"Delta":357961876},{"NoteNumber":62,"Velocity":27,"Duration":364217,"SoundDuration":364217,"Delta":358362865},{"NoteNumber":66,"Velocity":27,"Duration":364217,"SoundDuration":364217,"Delta":358362865},{"NoteNumber":69,"Velocity":31,"Duration":364217,"SoundDuration":364217,"Delta":358362865},{"NoteNumber":36,"Velocity":23,"Duration":364217,"SoundDuration":364217,"Delta":358362865},{"NoteNumber":48,"Velocity":27,"Duration":364217,"SoundDuration":364217,"Delta":358362865},{"NoteNumber":62,"Velocity":25,"Duration":360759,"SoundDuration":360759,"Delta":358746252},{"NoteNumber":66,"Velocity":25,"Duration":360759,"SoundDuration":360759,"Delta":358746252},{"NoteNumber":69,"Velocity":29,"Duration":360759,"SoundDuration":360759,"Delta":358746252},{"NoteNumber":36,"Velocity":21,"Duration":360759,"SoundDuration":360759,"Delta":358746252},{"NoteNumber":48,"Velocity":25,"Duration":360759,"SoundDuration":360759,"Delta":358746252},{"NoteNumber":62,"Velocity":25,"Duration":380939,"SoundDuration":380939,"Delta":359125999},{"NoteNumber":66,"Velocity":25,"Duration":380939,"SoundDuration":380939,"Delta":359125999},{"NoteNumber":69,"Velocity":29,"Duration":380939,"SoundDuration":380939,"Delta":359125999},{"NoteNumber":36,"Velocity":21,"Duration":380939,"SoundDuration":380939,"Delta":359125999},{"NoteNumber":48,"Velocity":25,"Duration":380939,"SoundDuration":380939,"Delta":359125999},{"NoteNumber":66,"Velocity":29,"Duration":757502,"SoundDuration":757502,"Delta":359526988},{"NoteNumber":62,"Velocity":29,"Duration":757502,"SoundDuration":757502,"Delta":359526988},{"NoteNumber":69,"Velocity":35,"Duration":757502,"SoundDuration":757502,"Delta":359526988},{"NoteNumber":36,"Velocity":23,"Duration":757502,"SoundDuration":757502,"Delta":359526988},{"NoteNumber":48,"Velocity":28,"Duration":757502,"SoundDuration":757502,"Delta":359526988},{"NoteNumber":62,"Velocity":25,"Duration":383502,"SoundDuration":383502,"Delta":360308086},{"NoteNumber":66,"Velocity":25,"Duration":383502,"SoundDuration":383502,"Delta":360308086},{"NoteNumber":69,"Velocity":29,"Duration":383502,"SoundDuration":383502,"Delta":360308086},{"NoteNumber":36,"Velocity":21,"Duration":383502,"SoundDuration":383502,"Delta":360308086},{"NoteNumber":48,"Velocity":25,"Duration":383502,"SoundDuration":383502,"Delta":360308086},{"NoteNumber":62,"Velocity":27,"Duration":377158,"SoundDuration":377158,"Delta":360711773},{"NoteNumber":66,"Velocity":27,"Duration":377158,"SoundDuration":377158,"Delta":360711773},{"NoteNumber":69,"Velocity":31,"Duration":377158,"SoundDuration":377158,"Delta":360711773},{"NoteNumber":36,"Velocity":23,"Duration":377158,"SoundDuration":377158,"Delta":360711773},{"NoteNumber":48,"Velocity":27,"Duration":377158,"SoundDuration":377158,"Delta":360711773},{"NoteNumber":62,"Velocity":25,"Duration":365384,"SoundDuration":365384,"Delta":361108782},{"NoteNumber":66,"Velocity":25,"Duration":365384,"SoundDuration":365384,"Delta":361108782},{"NoteNumber":69,"Velocity":29,"Duration":365384,"SoundDuration":365384,"Delta":361108782},{"NoteNumber":36,"Velocity":21,"Duration":365384,"SoundDuration":365384,"Delta":361108782},{"NoteNumber":48,"Velocity":25,"Duration":365384,"SoundDuration":365384,"Delta":361108782},{"NoteNumber":62,"Velocity":25,"Duration":394463,"SoundDuration":394463,"Delta":361493397},{"NoteNumber":66,"Velocity":25,"Duration":394463,"SoundDuration":394463,"Delta":361493397},{"NoteNumber":69,"Velocity":29,"Duration":394463,"SoundDuration":394463,"Delta":361493397},{"NoteNumber":36,"Velocity":21,"Duration":394463,"SoundDuration":394463,"Delta":361493397},{"NoteNumber":48,"Velocity":25,"Duration":394463,"SoundDuration":394463,"Delta":361493397},{"NoteNumber":63,"Velocity":29,"Duration":836267,"SoundDuration":836267,"Delta":361908622},{"NoteNumber":66,"Velocity":29,"Duration":837147,"SoundDuration":837147,"Delta":361908622},{"NoteNumber":71,"Velocity":35,"Duration":837147,"SoundDuration":837147,"Delta":361908622},{"NoteNumber":35,"Velocity":23,"Duration":837147,"SoundDuration":837147,"Delta":361908622},{"NoteNumber":47,"Velocity":28,"Duration":837147,"SoundDuration":837147,"Delta":361908622},{"NoteNumber":63,"Velocity":29,"Duration":393103,"SoundDuration":393103,"Delta":362753692},{"NoteNumber":66,"Velocity":29,"Duration":393103,"SoundDuration":393103,"Delta":362753692},{"NoteNumber":71,"Velocity":35,"Duration":393103,"SoundDuration":393103,"Delta":362753692},{"NoteNumber":47,"Velocity":28,"Duration":393103,"SoundDuration":393103,"Delta":362753692},{"NoteNumber":66,"Velocity":29,"Duration":378737,"SoundDuration":378737,"Delta":363167485},{"NoteNumber":63,"Velocity":29,"Duration":378737,"SoundDuration":378737,"Delta":363167485},{"NoteNumber":71,"Velocity":35,"Duration":378737,"SoundDuration":378737,"Delta":363167485},{"NoteNumber":47,"Velocity":28,"Duration":378737,"SoundDuration":378737,"Delta":363167485},{"NoteNumber":63,"Velocity":28,"Duration":371335,"SoundDuration":371335,"Delta":363566156},{"NoteNumber":66,"Velocity":28,"Duration":371335,"SoundDuration":371335,"Delta":363566156},{"NoteNumber":71,"Velocity":33,"Duration":371335,"SoundDuration":371335,"Delta":363566156},{"NoteNumber":47,"Velocity":26,"Duration":371335,"SoundDuration":371335,"Delta":363566156},{"NoteNumber":63,"Velocity":28,"Duration":393103,"SoundDuration":393103,"Delta":363957035},{"NoteNumber":66,"Velocity":28,"Duration":393103,"SoundDuration":393103,"Delta":363957035},{"NoteNumber":71,"Velocity":33,"Duration":393103,"SoundDuration":393103,"Delta":363957035},{"NoteNumber":45,"Velocity":22,"Duration":393103,"SoundDuration":393103,"Delta":363957035},{"NoteNumber":47,"Velocity":26,"Duration":393103,"SoundDuration":393103,"Delta":363957035},{"NoteNumber":62,"Velocity":33,"Duration":383838,"SoundDuration":383838,"Delta":364370828},{"NoteNumber":67,"Velocity":33,"Duration":383838,"SoundDuration":383838,"Delta":364370828},{"NoteNumber":71,"Velocity":39,"Duration":383838,"SoundDuration":383838,"Delta":364370828},{"NoteNumber":43,"Velocity":26,"Duration":383838,"SoundDuration":383838,"Delta":364370828},{"NoteNumber":47,"Velocity":26,"Duration":383838,"SoundDuration":383838,"Delta":364370828},{"NoteNumber":55,"Velocity":31,"Duration":383838,"SoundDuration":383838,"Delta":364370828},{"NoteNumber":64,"Velocity":36,"Duration":380395,"SoundDuration":380395,"Delta":364774868},{"NoteNumber":67,"Velocity":36,"Duration":380395,"SoundDuration":380395,"Delta":364774868},{"NoteNumber":76,"Velocity":43,"Duration":380395,"SoundDuration":380395,"Delta":364774868},{"NoteNumber":48,"Velocity":28,"Duration":379579,"SoundDuration":379579,"Delta":364774868},{"NoteNumber":50,"Velocity":28,"Duration":380395,"SoundDuration":380395,"Delta":364774868},{"NoteNumber":60,"Velocity":34,"Duration":379579,"SoundDuration":379579,"Delta":364774868},{"NoteNumber":67,"Velocity":33,"Duration":387754,"SoundDuration":387754,"Delta":365166692},{"NoteNumber":62,"Velocity":33,"Duration":387754,"SoundDuration":387754,"Delta":365166692},{"NoteNumber":74,"Velocity":39,"Duration":387754,"SoundDuration":387754,"Delta":365166692},{"NoteNumber":50,"Velocity":26,"Duration":387754,"SoundDuration":387754,"Delta":365166692},{"NoteNumber":47,"Velocity":26,"Duration":387754,"SoundDuration":387754,"Delta":365166692},{"NoteNumber":59,"Velocity":31,"Duration":387754,"SoundDuration":387754,"Delta":365166692},{"NoteNumber":67,"Velocity":33,"Duration":370129,"SoundDuration":370129,"Delta":365574855},{"NoteNumber":62,"Velocity":33,"Duration":370129,"SoundDuration":370129,"Delta":365574855},{"NoteNumber":74,"Velocity":39,"Duration":370129,"SoundDuration":370129,"Delta":365574855},{"NoteNumber":47,"Velocity":26,"Duration":370129,"SoundDuration":370129,"Delta":365574855},{"NoteNumber":50,"Velocity":26,"Duration":370129,"SoundDuration":370129,"Delta":365574855},{"NoteNumber":59,"Velocity":31,"Duration":370129,"SoundDuration":370129,"Delta":365574855},{"NoteNumber":74,"Velocity":36,"Duration":367742,"SoundDuration":367742,"Delta":365964465},{"NoteNumber":62,"Velocity":30,"Duration":367742,"SoundDuration":367742,"Delta":365964465},{"NoteNumber":67,"Velocity":30,"Duration":367742,"SoundDuration":367742,"Delta":365964465},{"NoteNumber":47,"Velocity":24,"Duration":367742,"SoundDuration":367742,"Delta":365964465},{"NoteNumber":50,"Velocity":24,"Duration":367742,"SoundDuration":367742,"Delta":365964465},{"NoteNumber":59,"Velocity":28,"Duration":367742,"SoundDuration":367742,"Delta":365964465},{"NoteNumber":74,"Velocity":36,"Duration":393103,"SoundDuration":393103,"Delta":366351562},{"NoteNumber":62,"Velocity":30,"Duration":393103,"SoundDuration":393103,"Delta":366351562},{"NoteNumber":67,"Velocity":30,"Duration":393103,"SoundDuration":393103,"Delta":366351562},{"NoteNumber":47,"Velocity":24,"Duration":393103,"SoundDuration":393103,"Delta":366351562},{"NoteNumber":50,"Velocity":24,"Duration":393103,"SoundDuration":393103,"Delta":366351562},{"NoteNumber":59,"Velocity":28,"Duration":393103,"SoundDuration":393103,"Delta":366351562},{"NoteNumber":74,"Velocity":39,"Duration":394400,"SoundDuration":394400,"Delta":366765355},{"NoteNumber":62,"Velocity":33,"Duration":394400,"SoundDuration":394400,"Delta":366765355},{"NoteNumber":67,"Velocity":33,"Duration":394400,"SoundDuration":394400,"Delta":366765355},{"NoteNumber":47,"Velocity":26,"Duration":394400,"SoundDuration":394400,"Delta":366765355},{"NoteNumber":50,"Velocity":26,"Duration":394400,"SoundDuration":394400,"Delta":366765355},{"NoteNumber":59,"Velocity":31,"Duration":394400,"SoundDuration":394400,"Delta":366765355},{"NoteNumber":57,"Velocity":29,"Duration":391912,"SoundDuration":391912,"Delta":367159755},{"NoteNumber":62,"Velocity":29,"Duration":391912,"SoundDuration":391912,"Delta":367159755},{"NoteNumber":69,"Velocity":35,"Duration":391912,"SoundDuration":391912,"Delta":367159755},{"NoteNumber":42,"Velocity":23,"Duration":391912,"SoundDuration":391912,"Delta":367159755},{"NoteNumber":50,"Velocity":23,"Duration":391912,"SoundDuration":391912,"Delta":367159755},{"NoteNumber":54,"Velocity":27,"Duration":391912,"SoundDuration":391912,"Delta":367159755},{"NoteNumber":60,"Velocity":29,"Duration":405051,"SoundDuration":405051,"Delta":367563442},{"NoteNumber":62,"Velocity":29,"Duration":405922,"SoundDuration":405922,"Delta":367563442},{"NoteNumber":72,"Velocity":35,"Duration":405051,"SoundDuration":405051,"Delta":367563442},{"NoteNumber":45,"Velocity":23,"Duration":405922,"SoundDuration":405922,"Delta":367563442},{"NoteNumber":50,"Velocity":23,"Duration":405922,"SoundDuration":405922,"Delta":367563442},{"NoteNumber":57,"Velocity":27,"Duration":405922,"SoundDuration":405922,"Delta":367563442},{"NoteNumber":72,"Velocity":39,"Duration":382074,"SoundDuration":382074,"Delta":367981560},{"NoteNumber":60,"Velocity":33,"Duration":382074,"SoundDuration":382074,"Delta":367981560},{"NoteNumber":62,"Velocity":33,"Duration":382896,"SoundDuration":382896,"Delta":367981560},{"NoteNumber":45,"Velocity":26,"Duration":382896,"SoundDuration":382896,"Delta":367981560},{"NoteNumber":50,"Velocity":26,"Duration":382896,"SoundDuration":382896,"Delta":367981560},{"NoteNumber":57,"Velocity":31,"Duration":382896,"SoundDuration":382896,"Delta":367981560},{"NoteNumber":71,"Velocity":37,"Duration":391912,"SoundDuration":391912,"Delta":368375960},{"NoteNumber":59,"Velocity":31,"Duration":391912,"SoundDuration":391912,"Delta":368375960},{"NoteNumber":62,"Velocity":31,"Duration":391912,"SoundDuration":391912,"Delta":368375960},{"NoteNumber":43,"Velocity":25,"Duration":391912,"SoundDuration":391912,"Delta":368375960},{"NoteNumber":50,"Velocity":25,"Duration":391912,"SoundDuration":391912,"Delta":368375960},{"NoteNumber":55,"Velocity":29,"Duration":391912,"SoundDuration":391912,"Delta":368375960},{"NoteNumber":69,"Velocity":37,"Duration":407342,"SoundDuration":407342,"Delta":368779647},{"NoteNumber":57,"Velocity":31,"Duration":407342,"SoundDuration":407342,"Delta":368779647},{"NoteNumber":62,"Velocity":31,"Duration":407342,"SoundDuration":407342,"Delta":368779647},{"NoteNumber":42,"Velocity":25,"Duration":407342,"SoundDuration":407342,"Delta":368779647},{"NoteNumber":50,"Velocity":25,"Duration":407342,"SoundDuration":407342,"Delta":368779647},{"NoteNumber":54,"Velocity":29,"Duration":407342,"SoundDuration":407342,"Delta":368779647},{"NoteNumber":57,"Velocity":33,"Duration":400343,"SoundDuration":400343,"Delta":369199227},{"NoteNumber":62,"Velocity":33,"Duration":400343,"SoundDuration":400343,"Delta":369199227},{"NoteNumber":69,"Velocity":39,"Duration":400343,"SoundDuration":400343,"Delta":369199227},{"NoteNumber":42,"Velocity":26,"Duration":400343,"SoundDuration":400343,"Delta":369199227},{"NoteNumber":50,"Velocity":26,"Duration":400343,"SoundDuration":400343,"Delta":369199227},{"NoteNumber":54,"Velocity":31,"Duration":400343,"SoundDuration":400343,"Delta":369199227},{"NoteNumber":59,"Velocity":33,"Duration":388333,"SoundDuration":388333,"Delta":369611598},{"NoteNumber":62,"Velocity":33,"Duration":388333,"SoundDuration":388333,"Delta":369611598},{"NoteNumber":71,"Velocity":39,"Duration":388333,"SoundDuration":388333,"Delta":369611598},{"NoteNumber":43,"Velocity":26,"Duration":388333,"SoundDuration":388333,"Delta":369611598},{"NoteNumber":50,"Velocity":26,"Duration":388333,"SoundDuration":388333,"Delta":369611598},{"NoteNumber":55,"Velocity":31,"Duration":388333,"SoundDuration":388333,"Delta":369611598},{"NoteNumber":62,"Velocity":33,"Duration":413120,"SoundDuration":413120,"Delta":370011598},{"NoteNumber":59,"Velocity":33,"Duration":413120,"SoundDuration":413120,"Delta":370011598},{"NoteNumber":71,"Velocity":39,"Duration":413120,"SoundDuration":413120,"Delta":370011598},{"NoteNumber":43,"Velocity":26,"Duration":413120,"SoundDuration":413120,"Delta":370011598},{"NoteNumber":50,"Velocity":26,"Duration":413120,"SoundDuration":413120,"Delta":370011598},{"NoteNumber":55,"Velocity":31,"Duration":413120,"SoundDuration":413120,"Delta":370011598},{"NoteNumber":62,"Velocity":37,"Duration":380719,"SoundDuration":380719,"Delta":370437130},{"NoteNumber":59,"Velocity":37,"Duration":380719,"SoundDuration":380719,"Delta":370437130},{"NoteNumber":71,"Velocity":44,"Duration":380719,"SoundDuration":380719,"Delta":370437130},{"NoteNumber":43,"Velocity":29,"Duration":380719,"SoundDuration":380719,"Delta":370437130},{"NoteNumber":50,"Velocity":29,"Duration":380719,"SoundDuration":380719,"Delta":370437130},{"NoteNumber":55,"Velocity":35,"Duration":380719,"SoundDuration":380719,"Delta":370437130},{"NoteNumber":71,"Velocity":51,"Duration":401724,"SoundDuration":401724,"Delta":370829287},{"NoteNumber":59,"Velocity":43,"Duration":401724,"SoundDuration":401724,"Delta":370829287},{"NoteNumber":67,"Velocity":43,"Duration":401724,"SoundDuration":401724,"Delta":370829287},{"NoteNumber":43,"Velocity":33,"Duration":401724,"SoundDuration":401724,"Delta":370829287},{"NoteNumber":50,"Velocity":33,"Duration":401724,"SoundDuration":401724,"Delta":370829287},{"NoteNumber":55,"Velocity":40,"Duration":401724,"SoundDuration":401724,"Delta":370829287},{"NoteNumber":72,"Velocity":60,"Duration":420577,"SoundDuration":420577,"Delta":371243080},{"NoteNumber":60,"Velocity":50,"Duration":420577,"SoundDuration":420577,"Delta":371243080},{"NoteNumber":67,"Velocity":50,"Duration":420577,"SoundDuration":420577,"Delta":371243080},{"NoteNumber":45,"Velocity":39,"Duration":420577,"SoundDuration":420577,"Delta":371243080},{"NoteNumber":50,"Velocity":39,"Duration":420577,"SoundDuration":420577,"Delta":371243080},{"NoteNumber":57,"Velocity":47,"Duration":420577,"SoundDuration":420577,"Delta":371243080},{"NoteNumber":74,"Velocity":66,"Duration":822664,"SoundDuration":822664,"Delta":371676293},{"NoteNumber":67,"Velocity":55,"Duration":821799,"SoundDuration":821799,"Delta":371676293},{"NoteNumber":62,"Velocity":55,"Duration":821799,"SoundDuration":821799,"Delta":371676293},{"NoteNumber":50,"Velocity":43,"Duration":821799,"SoundDuration":821799,"Delta":371676293},{"NoteNumber":47,"Velocity":43,"Duration":821799,"SoundDuration":821799,"Delta":371676293},{"NoteNumber":59,"Velocity":52,"Duration":822664,"SoundDuration":822664,"Delta":371676293},{"NoteNumber":74,"Velocity":52,"Duration":394463,"SoundDuration":394463,"Delta":372506743},{"NoteNumber":67,"Velocity":44,"Duration":394463,"SoundDuration":394463,"Delta":372506743},{"NoteNumber":62,"Velocity":44,"Duration":394463,"SoundDuration":394463,"Delta":372506743},{"NoteNumber":50,"Velocity":34,"Duration":394463,"SoundDuration":394463,"Delta":372506743},{"NoteNumber":47,"Velocity":34,"Duration":394463,"SoundDuration":394463,"Delta":372506743},{"NoteNumber":59,"Velocity":42,"Duration":394463,"SoundDuration":394463,"Delta":372506743},{"NoteNumber":67,"Velocity":44,"Duration":376238,"SoundDuration":376238,"Delta":372921968},{"NoteNumber":62,"Velocity":44,"Duration":376238,"SoundDuration":376238,"Delta":372921968},{"NoteNumber":74,"Velocity":52,"Duration":376238,"SoundDuration":376238,"Delta":372921968},{"NoteNumber":50,"Velocity":34,"Duration":376238,"SoundDuration":376238,"Delta":372921968},{"NoteNumber":47,"Velocity":34,"Duration":376238,"SoundDuration":376238,"Delta":372921968},{"NoteNumber":59,"Velocity":42,"Duration":376238,"SoundDuration":376238,"Delta":372921968},{"NoteNumber":67,"Velocity":42,"Duration":383838,"SoundDuration":383838,"Delta":373318008},{"NoteNumber":60,"Velocity":42,"Duration":383838,"SoundDuration":383838,"Delta":373318008},{"NoteNumber":72,"Velocity":50,"Duration":383838,"SoundDuration":383838,"Delta":373318008},{"NoteNumber":50,"Velocity":33,"Duration":383838,"SoundDuration":383838,"Delta":373318008},{"NoteNumber":45,"Velocity":33,"Duration":383838,"SoundDuration":383838,"Delta":373318008},{"NoteNumber":57,"Velocity":39,"Duration":383838,"SoundDuration":383838,"Delta":373318008},{"NoteNumber":67,"Velocity":42,"Duration":393103,"SoundDuration":393103,"Delta":373722048},{"NoteNumber":59,"Velocity":42,"Duration":393103,"SoundDuration":393103,"Delta":373722048},{"NoteNumber":71,"Velocity":50,"Duration":393103,"SoundDuration":393103,"Delta":373722048},{"NoteNumber":43,"Velocity":33,"Duration":393103,"SoundDuration":393103,"Delta":373722048},{"NoteNumber":50,"Velocity":33,"Duration":393103,"SoundDuration":393103,"Delta":373722048},{"NoteNumber":55,"Velocity":39,"Duration":393103,"SoundDuration":393103,"Delta":373722048},{"NoteNumber":62,"Velocity":45,"Duration":393103,"SoundDuration":393103,"Delta":374135841},{"NoteNumber":67,"Velocity":45,"Duration":393103,"SoundDuration":393103,"Delta":374135841},{"NoteNumber":74,"Velocity":54,"Duration":393103,"SoundDuration":393103,"Delta":374135841},{"NoteNumber":47,"Velocity":28,"Duration":393103,"SoundDuration":393103,"Delta":374135841},{"NoteNumber":55,"Velocity":28,"Duration":393103,"SoundDuration":393103,"Delta":374135841},{"NoteNumber":59,"Velocity":42,"Duration":393103,"SoundDuration":393103,"Delta":374135841},{"NoteNumber":67,"Velocity":53,"Duration":385761,"SoundDuration":385761,"Delta":374549634},{"NoteNumber":71,"Velocity":53,"Duration":385761,"SoundDuration":385761,"Delta":374549634},{"NoteNumber":79,"Velocity":63,"Duration":385761,"SoundDuration":385761,"Delta":374549634},{"NoteNumber":50,"Velocity":36,"Duration":385761,"SoundDuration":385761,"Delta":374549634},{"NoteNumber":59,"Velocity":36,"Duration":385761,"SoundDuration":385761,"Delta":374549634},{"NoteNumber":62,"Velocity":50,"Duration":385761,"SoundDuration":385761,"Delta":374549634},{"NoteNumber":71,"Velocity":56,"Duration":387754,"SoundDuration":387754,"Delta":374946985},{"NoteNumber":74,"Velocity":56,"Duration":387754,"SoundDuration":387754,"Delta":374946985},{"NoteNumber":83,"Velocity":66,"Duration":387754,"SoundDuration":387754,"Delta":374946985},{"NoteNumber":62,"Velocity":36,"Duration":387754,"SoundDuration":387754,"Delta":374946985},{"NoteNumber":55,"Velocity":36,"Duration":387754,"SoundDuration":387754,"Delta":374946985},{"NoteNumber":67,"Velocity":52,"Duration":387754,"SoundDuration":387754,"Delta":374946985},{"NoteNumber":71,"Velocity":56,"Duration":383838,"SoundDuration":383838,"Delta":375355148},{"NoteNumber":74,"Velocity":56,"Duration":383838,"SoundDuration":383838,"Delta":375355148},{"NoteNumber":83,"Velocity":66,"Duration":383838,"SoundDuration":383838,"Delta":375355148},{"NoteNumber":55,"Velocity":51,"Duration":383838,"SoundDuration":383838,"Delta":375355148},{"NoteNumber":62,"Velocity":51,"Duration":383838,"SoundDuration":383838,"Delta":375355148},{"NoteNumber":67,"Velocity":60,"Duration":383838,"SoundDuration":383838,"Delta":375355148},{"NoteNumber":71,"Velocity":58,"Duration":393103,"SoundDuration":393103,"Delta":375759188},{"NoteNumber":74,"Velocity":58,"Duration":393103,"SoundDuration":393103,"Delta":375759188},{"NoteNumber":83,"Velocity":69,"Duration":393103,"SoundDuration":393103,"Delta":375759188},{"NoteNumber":55,"Velocity":52,"Duration":393103,"SoundDuration":393103,"Delta":375759188},{"NoteNumber":62,"Velocity":52,"Duration":393103,"SoundDuration":393103,"Delta":375759188},{"NoteNumber":67,"Velocity":62,"Duration":393103,"SoundDuration":393103,"Delta":375759188},{"NoteNumber":71,"Velocity":61,"Duration":433460,"SoundDuration":433460,"Delta":376172981},{"NoteNumber":74,"Velocity":61,"Duration":433460,"SoundDuration":433460,"Delta":376172981},{"NoteNumber":83,"Velocity":72,"Duration":433460,"SoundDuration":433460,"Delta":376172981},{"NoteNumber":55,"Velocity":54,"Duration":433460,"SoundDuration":433460,"Delta":376172981},{"NoteNumber":62,"Velocity":54,"Duration":433460,"SoundDuration":433460,"Delta":376172981},{"NoteNumber":67,"Velocity":64,"Duration":433460,"SoundDuration":433460,"Delta":376172981},{"NoteNumber":71,"Velocity":63,"Duration":398600,"SoundDuration":398600,"Delta":376629255},{"NoteNumber":75,"Velocity":63,"Duration":398600,"SoundDuration":398600,"Delta":376629255},{"NoteNumber":83,"Velocity":75,"Duration":398600,"SoundDuration":398600,"Delta":376629255},{"NoteNumber":54,"Velocity":56,"Duration":398600,"SoundDuration":398600,"Delta":376629255},{"NoteNumber":63,"Velocity":56,"Duration":398600,"SoundDuration":398600,"Delta":376629255},{"NoteNumber":66,"Velocity":66,"Duration":398600,"SoundDuration":398600,"Delta":376629255},{"NoteNumber":71,"Velocity":56,"Duration":417581,"SoundDuration":417581,"Delta":377048835},{"NoteNumber":75,"Velocity":56,"Duration":417581,"SoundDuration":417581,"Delta":377048835},{"NoteNumber":83,"Velocity":66,"Duration":417581,"SoundDuration":417581,"Delta":377048835},{"NoteNumber":54,"Velocity":47,"Duration":417581,"SoundDuration":417581,"Delta":377048835},{"NoteNumber":63,"Velocity":47,"Duration":417581,"SoundDuration":417581,"Delta":377048835},{"NoteNumber":66,"Velocity":56,"Duration":417581,"SoundDuration":417581,"Delta":377048835},{"NoteNumber":71,"Velocity":52,"Duration":417582,"SoundDuration":417582,"Delta":377488395},{"NoteNumber":75,"Velocity":52,"Duration":417582,"SoundDuration":417582,"Delta":377488395},{"NoteNumber":83,"Velocity":61,"Duration":417582,"SoundDuration":417582,"Delta":377488395},{"NoteNumber":54,"Velocity":44,"Duration":417582,"SoundDuration":417582,"Delta":377488395},{"NoteNumber":63,"Velocity":44,"Duration":417582,"SoundDuration":417582,"Delta":377488395},{"NoteNumber":66,"Velocity":52,"Duration":417582,"SoundDuration":417582,"Delta":377488395},{"NoteNumber":71,"Velocity":44,"Duration":394463,"SoundDuration":394463,"Delta":377927955},{"NoteNumber":75,"Velocity":44,"Duration":394463,"SoundDuration":394463,"Delta":377927955},{"NoteNumber":83,"Velocity":52,"Duration":394463,"SoundDuration":394463,"Delta":377927955},{"NoteNumber":54,"Velocity":37,"Duration":394463,"SoundDuration":394463,"Delta":377927955},{"NoteNumber":63,"Velocity":37,"Duration":394463,"SoundDuration":394463,"Delta":377927955},{"NoteNumber":66,"Velocity":44,"Duration":394463,"SoundDuration":394463,"Delta":377927955},{"NoteNumber":71,"Velocity":40,"Duration":408602,"SoundDuration":408602,"Delta":378343180},{"NoteNumber":75,"Velocity":40,"Duration":408602,"SoundDuration":408602,"Delta":378343180},{"NoteNumber":83,"Velocity":48,"Duration":408602,"SoundDuration":408602,"Delta":378343180},{"NoteNumber":54,"Velocity":33,"Duration":408602,"SoundDuration":408602,"Delta":378343180},{"NoteNumber":63,"Velocity":33,"Duration":408602,"SoundDuration":408602,"Delta":378343180},{"NoteNumber":66,"Velocity":40,"Duration":408602,"SoundDuration":408602,"Delta":378343180},{"NoteNumber":71,"Velocity":36,"Duration":440154,"SoundDuration":440154,"Delta":378773288},{"NoteNumber":75,"Velocity":36,"Duration":440154,"SoundDuration":440154,"Delta":378773288},{"NoteNumber":83,"Velocity":43,"Duration":440154,"SoundDuration":440154,"Delta":378773288},{"NoteNumber":54,"Velocity":29,"Duration":440154,"SoundDuration":440154,"Delta":378773288},{"NoteNumber":63,"Velocity":29,"Duration":440154,"SoundDuration":440154,"Delta":378773288},{"NoteNumber":66,"Velocity":36,"Duration":440154,"SoundDuration":440154,"Delta":378773288},{"NoteNumber":71,"Velocity":32,"Duration":437970,"SoundDuration":437970,"Delta":379236608},{"NoteNumber":74,"Velocity":32,"Duration":437970,"SoundDuration":437970,"Delta":379236608},{"NoteNumber":83,"Velocity":39,"Duration":437970,"SoundDuration":437970,"Delta":379236608},{"NoteNumber":55,"Velocity":28,"Duration":437970,"SoundDuration":437970,"Delta":379236608},{"NoteNumber":62,"Velocity":28,"Duration":437970,"SoundDuration":437970,"Delta":379236608},{"NoteNumber":67,"Velocity":33,"Duration":437970,"SoundDuration":437970,"Delta":379236608},{"NoteNumber":72,"Velocity":31,"Duration":471659,"SoundDuration":471659,"Delta":379687736},{"NoteNumber":74,"Velocity":31,"Duration":471659,"SoundDuration":471659,"Delta":379687736},{"NoteNumber":84,"Velocity":36,"Duration":471659,"SoundDuration":471659,"Delta":379687736},{"NoteNumber":57,"Velocity":25,"Duration":471659,"SoundDuration":471659,"Delta":379687736},{"NoteNumber":62,"Velocity":25,"Duration":471659,"SoundDuration":471659,"Delta":379687736},{"NoteNumber":69,"Velocity":30,"Duration":471659,"SoundDuration":471659,"Delta":379687736},{"NoteNumber":74,"Velocity":32,"Duration":723602,"SoundDuration":723602,"Delta":380173566},{"NoteNumber":86,"Velocity":38,"Duration":723602,"SoundDuration":723602,"Delta":380173566},{"NoteNumber":59,"Velocity":25,"Duration":723602,"SoundDuration":723602,"Delta":380173566},{"NoteNumber":62,"Velocity":25,"Duration":723602,"SoundDuration":723602,"Delta":380173566},{"NoteNumber":71,"Velocity":30,"Duration":723602,"SoundDuration":723602,"Delta":380173566},{"NoteNumber":67,"Velocity":36,"Duration":394915,"SoundDuration":394915,"Delta":380918908},{"NoteNumber":71,"Velocity":36,"Duration":394915,"SoundDuration":394915,"Delta":380918908},{"NoteNumber":79,"Velocity":43,"Duration":394915,"SoundDuration":394915,"Delta":380918908},{"NoteNumber":52,"Velocity":29,"Duration":394915,"SoundDuration":394915,"Delta":380918908},{"NoteNumber":64,"Velocity":35,"Duration":394915,"SoundDuration":394915,"Delta":380918908},{"NoteNumber":69,"Velocity":30,"Duration":394915,"SoundDuration":394915,"Delta":381325688},{"NoteNumber":74,"Velocity":30,"Duration":394915,"SoundDuration":394915,"Delta":381325688},{"NoteNumber":78,"Velocity":30,"Duration":394915,"SoundDuration":394915,"Delta":381325688},{"NoteNumber":81,"Velocity":36,"Duration":394915,"SoundDuration":394915,"Delta":381325688},{"NoteNumber":50,"Velocity":25,"Duration":394915,"SoundDuration":394915,"Delta":381325688},{"NoteNumber":62,"Velocity":30,"Duration":394915,"SoundDuration":394915,"Delta":381325688},{"NoteNumber":74,"Velocity":30,"Duration":416071,"SoundDuration":416071,"Delta":381732468},{"NoteNumber":79,"Velocity":30,"Duration":416071,"SoundDuration":416071,"Delta":381732468},{"NoteNumber":71,"Velocity":30,"Duration":416071,"SoundDuration":416071,"Delta":381732468},{"NoteNumber":83,"Velocity":36,"Duration":416071,"SoundDuration":416071,"Delta":381732468},{"NoteNumber":50,"Velocity":25,"Duration":407142,"SoundDuration":407142,"Delta":381732468},{"NoteNumber":47,"Velocity":25,"Duration":416071,"SoundDuration":416071,"Delta":381732468},{"NoteNumber":59,"Velocity":30,"Duration":416071,"SoundDuration":416071,"Delta":381732468},{"NoteNumber":74,"Velocity":34,"Duration":808672,"SoundDuration":808672,"Delta":382161039},{"NoteNumber":78,"Velocity":34,"Duration":808672,"SoundDuration":808672,"Delta":382161039},{"NoteNumber":72,"Velocity":34,"Duration":808672,"SoundDuration":808672,"Delta":382161039},{"NoteNumber":81,"Velocity":41,"Duration":808672,"SoundDuration":808672,"Delta":382161039},{"NoteNumber":50,"Velocity":31,"Duration":808672,"SoundDuration":808672,"Delta":382161039},{"NoteNumber":62,"Velocity":37,"Duration":808672,"SoundDuration":808672,"Delta":382161039},{"NoteNumber":71,"Velocity":32,"Duration":442966,"SoundDuration":442966,"Delta":382977365},{"NoteNumber":74,"Velocity":32,"Duration":442966,"SoundDuration":442966,"Delta":382977365},{"NoteNumber":79,"Velocity":38,"Duration":442966,"SoundDuration":442966,"Delta":382977365},{"NoteNumber":55,"Velocity":26,"Duration":442966,"SoundDuration":442966,"Delta":382977365},{"NoteNumber":62,"Velocity":31,"Duration":442966,"SoundDuration":442966,"Delta":382977365},{"NoteNumber":74,"Velocity":30,"Duration":455078,"SoundDuration":455078,"Delta":383433639},{"NoteNumber":79,"Velocity":36,"Duration":455078,"SoundDuration":455078,"Delta":383433639},{"NoteNumber":71,"Velocity":30,"Duration":455078,"SoundDuration":455078,"Delta":383433639},{"NoteNumber":55,"Velocity":25,"Duration":455078,"SoundDuration":455078,"Delta":383433639},{"NoteNumber":62,"Velocity":30,"Duration":455078,"SoundDuration":455078,"Delta":383433639},{"NoteNumber":74,"Velocity":21,"Duration":377158,"SoundDuration":377158,"Delta":383902389},{"NoteNumber":79,"Velocity":29,"Duration":377158,"SoundDuration":377158,"Delta":383902389},{"NoteNumber":71,"Velocity":21,"Duration":377158,"SoundDuration":377158,"Delta":383902389},{"NoteNumber":43,"Velocity":25,"Duration":377158,"SoundDuration":377158,"Delta":383902389},{"NoteNumber":79,"Velocity":29,"Duration":377158,"SoundDuration":377158,"Delta":384299398},{"NoteNumber":71,"Velocity":21,"Duration":377158,"SoundDuration":377158,"Delta":384299398},{"NoteNumber":74,"Velocity":21,"Duration":377158,"SoundDuration":377158,"Delta":384299398},{"NoteNumber":43,"Velocity":25,"Duration":377158,"SoundDuration":377158,"Delta":384299398},{"NoteNumber":71,"Velocity":31,"Duration":815447,"SoundDuration":815447,"Delta":384696407},{"NoteNumber":79,"Velocity":37,"Duration":816306,"SoundDuration":816306,"Delta":384696407},{"NoteNumber":74,"Velocity":31,"Duration":816306,"SoundDuration":816306,"Delta":384696407},{"NoteNumber":43,"Velocity":32,"Duration":816306,"SoundDuration":816306,"Delta":384696407},{"NoteNumber":67,"Velocity":27,"Duration":377483,"SoundDuration":377483,"Delta":385520446},{"NoteNumber":76,"Velocity":32,"Duration":377483,"SoundDuration":377483,"Delta":385520446},{"NoteNumber":71,"Velocity":27,"Duration":377483,"SoundDuration":377483,"Delta":385520446},{"NoteNumber":43,"Velocity":25,"Duration":377483,"SoundDuration":377483,"Delta":385520446},{"NoteNumber":76,"Velocity":36,"Duration":367742,"SoundDuration":367742,"Delta":385917797},{"NoteNumber":67,"Velocity":30,"Duration":367742,"SoundDuration":367742,"Delta":385917797},{"NoteNumber":71,"Velocity":30,"Duration":367742,"SoundDuration":367742,"Delta":385917797},{"NoteNumber":43,"Velocity":33,"Duration":367742,"SoundDuration":367742,"Delta":385917797},{"NoteNumber":67,"Velocity":28,"Duration":338278,"SoundDuration":338278,"Delta":386304894},{"NoteNumber":73,"Velocity":33,"Duration":338278,"SoundDuration":338278,"Delta":386304894},{"NoteNumber":64,"Velocity":28,"Duration":338278,"SoundDuration":338278,"Delta":386304894},{"NoteNumber":43,"Velocity":50,"Duration":178041,"SoundDuration":178041,"Delta":386304894},{"NoteNumber":40,"Velocity":42,"Duration":178041,"SoundDuration":178041,"Delta":386482935},{"NoteNumber":71,"Velocity":33,"Duration":356003,"SoundDuration":356003,"Delta":386660977},{"NoteNumber":62,"Velocity":28,"Duration":356003,"SoundDuration":356003,"Delta":386660977},{"NoteNumber":67,"Velocity":28,"Duration":356003,"SoundDuration":356003,"Delta":386660977},{"NoteNumber":42,"Velocity":47,"Duration":182927,"SoundDuration":182927,"Delta":386660977},{"NoteNumber":43,"Velocity":52,"Duration":192307,"SoundDuration":192307,"Delta":386843904},{"NoteNumber":61,"Velocity":31,"Duration":815447,"SoundDuration":815447,"Delta":387036211},{"NoteNumber":71,"Velocity":37,"Duration":816306,"SoundDuration":816306,"Delta":387036211},{"NoteNumber":67,"Velocity":31,"Duration":816306,"SoundDuration":816306,"Delta":387036211},{"NoteNumber":45,"Velocity":53,"Duration":816306,"SoundDuration":816306,"Delta":387036211},{"NoteNumber":61,"Velocity":27,"Duration":377483,"SoundDuration":377483,"Delta":387860249},{"NoteNumber":69,"Velocity":32,"Duration":377483,"SoundDuration":377483,"Delta":387860249},{"NoteNumber":67,"Velocity":27,"Duration":377483,"SoundDuration":377483,"Delta":387860249},{"NoteNumber":45,"Velocity":25,"Duration":377483,"SoundDuration":377483,"Delta":387860249},{"NoteNumber":61,"Velocity":30,"Duration":367742,"SoundDuration":367742,"Delta":388257600},{"NoteNumber":67,"Velocity":30,"Duration":367742,"SoundDuration":367742,"Delta":388257600},{"NoteNumber":69,"Velocity":36,"Duration":367742,"SoundDuration":367742,"Delta":388257600},{"NoteNumber":45,"Velocity":33,"Duration":367742,"SoundDuration":367742,"Delta":388257600},{"NoteNumber":62,"Velocity":28,"Duration":337278,"SoundDuration":337278,"Delta":388644697},{"NoteNumber":67,"Velocity":28,"Duration":337278,"SoundDuration":337278,"Delta":388644697},{"NoteNumber":71,"Velocity":33,"Duration":337278,"SoundDuration":337278,"Delta":388644697},{"NoteNumber":43,"Velocity":54,"Duration":177515,"SoundDuration":177515,"Delta":388644697},{"NoteNumber":40,"Velocity":43,"Duration":177514,"SoundDuration":177514,"Delta":388822212},{"NoteNumber":67,"Velocity":28,"Duration":360516,"SoundDuration":360516,"Delta":388999727},{"NoteNumber":71,"Velocity":33,"Duration":360516,"SoundDuration":360516,"Delta":388999727},{"NoteNumber":62,"Velocity":28,"Duration":360516,"SoundDuration":360516,"Delta":388999727},{"NoteNumber":42,"Velocity":47,"Duration":185758,"SoundDuration":185758,"Delta":388999727},{"NoteNumber":43,"Velocity":50,"Duration":194174,"SoundDuration":194174,"Delta":389185486},{"NoteNumber":67,"Velocity":31,"Duration":816306,"SoundDuration":816306,"Delta":389379661},{"NoteNumber":71,"Velocity":37,"Duration":816306,"SoundDuration":816306,"Delta":389379661},{"NoteNumber":61,"Velocity":31,"Duration":815447,"SoundDuration":815447,"Delta":389379661},{"NoteNumber":45,"Velocity":52,"Duration":816306,"SoundDuration":816306,"Delta":389379661},{"NoteNumber":69,"Velocity":31,"Duration":377483,"SoundDuration":377483,"Delta":390203699},{"NoteNumber":61,"Velocity":26,"Duration":377483,"SoundDuration":377483,"Delta":390203699},{"NoteNumber":67,"Velocity":26,"Duration":377483,"SoundDuration":377483,"Delta":390203699},{"NoteNumber":45,"Velocity":24,"Duration":377483,"SoundDuration":377483,"Delta":390203699},{"NoteNumber":61,"Velocity":29,"Duration":375000,"SoundDuration":375000,"Delta":390601050},{"NoteNumber":69,"Velocity":34,"Duration":375000,"SoundDuration":375000,"Delta":390601050},{"NoteNumber":67,"Velocity":29,"Duration":375000,"SoundDuration":375000,"Delta":390601050},{"NoteNumber":45,"Velocity":32,"Duration":375000,"SoundDuration":375000,"Delta":390601050},{"NoteNumber":67,"Velocity":26,"Duration":373449,"SoundDuration":373449,"Delta":390995787},{"NoteNumber":70,"Velocity":31,"Duration":373449,"SoundDuration":373449,"Delta":390995787},{"NoteNumber":62,"Velocity":26,"Duration":373449,"SoundDuration":373449,"Delta":390995787},{"NoteNumber":43,"Velocity":50,"Duration":192307,"SoundDuration":192307,"Delta":390995787},{"NoteNumber":40,"Velocity":39,"Duration":201344,"SoundDuration":201344,"Delta":391188095},{"NoteNumber":70,"Velocity":31,"Duration":403307,"SoundDuration":403307,"Delta":391389439},{"NoteNumber":62,"Velocity":26,"Duration":403307,"SoundDuration":403307,"Delta":391389439},{"NoteNumber":67,"Velocity":26,"Duration":403307,"SoundDuration":403307,"Delta":391389439},{"NoteNumber":42,"Velocity":45,"Duration":204777,"SoundDuration":204777,"Delta":391389439},{"NoteNumber":43,"Velocity":38,"Duration":220588,"SoundDuration":220588,"Delta":391594217},{"NoteNumber":70,"Velocity":34,"Duration":832965,"SoundDuration":832965,"Delta":391814805},{"NoteNumber":67,"Velocity":28,"Duration":833843,"SoundDuration":833843,"Delta":391814805},{"NoteNumber":61,"Velocity":28,"Duration":832965,"SoundDuration":832965,"Delta":391814805},{"NoteNumber":45,"Velocity":41,"Duration":833843,"SoundDuration":833843,"Delta":391814805},{"NoteNumber":61,"Velocity":24,"Duration":377483,"SoundDuration":377483,"Delta":392656543},{"NoteNumber":67,"Velocity":24,"Duration":377483,"SoundDuration":377483,"Delta":392656543},{"NoteNumber":69,"Velocity":28,"Duration":377483,"SoundDuration":377483,"Delta":392656543},{"NoteNumber":45,"Velocity":22,"Duration":377483,"SoundDuration":377483,"Delta":392656543},{"NoteNumber":61,"Velocity":27,"Duration":827525,"SoundDuration":827525,"Delta":393053894},{"NoteNumber":69,"Velocity":32,"Duration":827525,"SoundDuration":827525,"Delta":393053894},{"NoteNumber":67,"Velocity":27,"Duration":828396,"SoundDuration":828396,"Delta":393053894},{"NoteNumber":45,"Velocity":28,"Duration":828396,"SoundDuration":828396,"Delta":393053894},{"NoteNumber":67,"Velocity":23,"Duration":377483,"SoundDuration":377483,"Delta":393890130},{"NoteNumber":61,"Velocity":23,"Duration":377483,"SoundDuration":377483,"Delta":393890130},{"NoteNumber":69,"Velocity":27,"Duration":377483,"SoundDuration":377483,"Delta":393890130},{"NoteNumber":45,"Velocity":21,"Duration":377483,"SoundDuration":377483,"Delta":393890130},{"NoteNumber":67,"Velocity":26,"Duration":819827,"SoundDuration":819827,"Delta":394287481},{"NoteNumber":61,"Velocity":26,"Duration":818965,"SoundDuration":818965,"Delta":394287481},{"NoteNumber":69,"Velocity":31,"Duration":818965,"SoundDuration":818965,"Delta":394287481},{"NoteNumber":45,"Velocity":27,"Duration":819827,"SoundDuration":819827,"Delta":394287481},{"NoteNumber":67,"Velocity":22,"Duration":400000,"SoundDuration":400000,"Delta":395115067},{"NoteNumber":69,"Velocity":26,"Duration":400000,"SoundDuration":400000,"Delta":395115067},{"NoteNumber":61,"Velocity":22,"Duration":400000,"SoundDuration":400000,"Delta":395115067},{"NoteNumber":45,"Velocity":20,"Duration":400000,"SoundDuration":400000,"Delta":395115067},{"NoteNumber":69,"Velocity":29,"Duration":315884,"SoundDuration":315884,"Delta":395536120},{"NoteNumber":61,"Velocity":25,"Duration":315884,"SoundDuration":315884,"Delta":395536120},{"NoteNumber":67,"Velocity":25,"Duration":315884,"SoundDuration":315884,"Delta":395536120},{"NoteNumber":45,"Velocity":25,"Duration":315884,"SoundDuration":315884,"Delta":395536120},{"NoteNumber":61,"Velocity":70,"Duration":48387,"SoundDuration":48387,"Delta":395861030},{"NoteNumber":55,"Velocity":59,"Duration":48387,"SoundDuration":48387,"Delta":395861030},{"NoteNumber":57,"Velocity":59,"Duration":48387,"SoundDuration":48387,"Delta":395861030},{"NoteNumber":33,"Velocity":51,"Duration":48387,"SoundDuration":48387,"Delta":395861030},{"NoteNumber":45,"Velocity":60,"Duration":48387,"SoundDuration":48387,"Delta":395861030},{"NoteNumber":55,"Velocity":64,"Duration":290322,"SoundDuration":290322,"Delta":395957804},{"NoteNumber":57,"Velocity":64,"Duration":290322,"SoundDuration":290322,"Delta":395957804},{"NoteNumber":61,"Velocity":76,"Duration":290322,"SoundDuration":290322,"Delta":395957804},{"NoteNumber":33,"Velocity":54,"Duration":290322,"SoundDuration":290322,"Delta":395957804},{"NoteNumber":45,"Velocity":64,"Duration":290322,"SoundDuration":290322,"Delta":395957804},{"NoteNumber":55,"Velocity":59,"Duration":48387,"SoundDuration":48387,"Delta":396248127},{"NoteNumber":61,"Velocity":70,"Duration":48387,"SoundDuration":48387,"Delta":396248127},{"NoteNumber":57,"Velocity":59,"Duration":48387,"SoundDuration":48387,"Delta":396248127},{"NoteNumber":33,"Velocity":50,"Duration":48387,"SoundDuration":48387,"Delta":396248127},{"NoteNumber":45,"Velocity":59,"Duration":48387,"SoundDuration":48387,"Delta":396248127},{"NoteNumber":57,"Velocity":63,"Duration":296641,"SoundDuration":296641,"Delta":396344901},{"NoteNumber":62,"Velocity":75,"Duration":296641,"SoundDuration":296641,"Delta":396344901},{"NoteNumber":55,"Velocity":63,"Duration":296641,"SoundDuration":296641,"Delta":396344901},{"NoteNumber":35,"Velocity":54,"Duration":296641,"SoundDuration":296641,"Delta":396344901},{"NoteNumber":47,"Velocity":64,"Duration":296641,"SoundDuration":296641,"Delta":396344901},{"NoteNumber":64,"Velocity":70,"Duration":51546,"SoundDuration":51546,"Delta":396641542},{"NoteNumber":55,"Velocity":59,"Duration":51546,"SoundDuration":51546,"Delta":396641542},{"NoteNumber":57,"Velocity":59,"Duration":51546,"SoundDuration":51546,"Delta":396641542},{"NoteNumber":37,"Velocity":51,"Duration":51546,"SoundDuration":51546,"Delta":396641542},{"NoteNumber":49,"Velocity":60,"Duration":51546,"SoundDuration":51546,"Delta":396641542},{"NoteNumber":62,"Velocity":68,"Duration":760621,"SoundDuration":760621,"Delta":396744635},{"NoteNumber":66,"Velocity":80,"Duration":760621,"SoundDuration":760621,"Delta":396744635},{"NoteNumber":54,"Velocity":68,"Duration":760621,"SoundDuration":760621,"Delta":396744635},{"NoteNumber":57,"Velocity":68,"Duration":760621,"SoundDuration":760621,"Delta":396744635},{"NoteNumber":38,"Velocity":57,"Duration":760621,"SoundDuration":760621,"Delta":396744635},{"NoteNumber":45,"Velocity":57,"Duration":760621,"SoundDuration":760621,"Delta":396744635},{"NoteNumber":50,"Velocity":68,"Duration":760621,"SoundDuration":760621,"Delta":396744635},{"NoteNumber":62,"Velocity":68,"Duration":657258,"SoundDuration":657258,"Delta":397528949},{"NoteNumber":54,"Velocity":68,"Duration":657258,"SoundDuration":657258,"Delta":397528949},{"NoteNumber":57,"Velocity":68,"Duration":657258,"SoundDuration":657258,"Delta":397528949},{"NoteNumber":66,"Velocity":80,"Duration":657258,"SoundDuration":657258,"Delta":397528949},{"NoteNumber":38,"Velocity":57,"Duration":750806,"SoundDuration":750806,"Delta":397528949},{"NoteNumber":45,"Velocity":57,"Duration":750806,"SoundDuration":750806,"Delta":397528949},{"NoteNumber":50,"Velocity":68,"Duration":750806,"SoundDuration":750806,"Delta":397528949},{"NoteNumber":66,"Velocity":67,"Duration":96774,"SoundDuration":96774,"Delta":398206369},{"NoteNumber":67,"Velocity":75,"Duration":288461,"SoundDuration":288461,"Delta":398303143},{"NoteNumber":57,"Velocity":66,"Duration":373397,"SoundDuration":373397,"Delta":398303143},{"NoteNumber":38,"Velocity":53,"Duration":384614,"SoundDuration":384614,"Delta":398303143},{"NoteNumber":50,"Velocity":63,"Duration":384614,"SoundDuration":384614,"Delta":398303143},{"NoteNumber":66,"Velocity":70,"Duration":96153,"SoundDuration":96153,"Delta":398591604},{"NoteNumber":64,"Velocity":74,"Duration":96153,"SoundDuration":96153,"Delta":398687758},{"NoteNumber":57,"Velocity":66,"Duration":403917,"SoundDuration":403917,"Delta":398687758},{"NoteNumber":42,"Velocity":53,"Duration":417026,"SoundDuration":417026,"Delta":398687758},{"NoteNumber":54,"Velocity":63,"Duration":417026,"SoundDuration":417026,"Delta":398687758},{"NoteNumber":66,"Velocity":66,"Duration":96153,"SoundDuration":96153,"Delta":398783912},{"NoteNumber":64,"Velocity":66,"Duration":112359,"SoundDuration":112359,"Delta":398880065},{"NoteNumber":62,"Velocity":70,"Duration":112359,"SoundDuration":112359,"Delta":398992425},{"NoteNumber":57,"Velocity":68,"Duration":755681,"SoundDuration":755681,"Delta":399104784},{"NoteNumber":64,"Velocity":68,"Duration":755681,"SoundDuration":755681,"Delta":399104784},{"NoteNumber":69,"Velocity":80,"Duration":755681,"SoundDuration":755681,"Delta":399104784},{"NoteNumber":37,"Velocity":57,"Duration":755681,"SoundDuration":755681,"Delta":399104784},{"NoteNumber":45,"Velocity":57,"Duration":755681,"SoundDuration":755681,"Delta":399104784},{"NoteNumber":49,"Velocity":68,"Duration":755681,"SoundDuration":755681,"Delta":399104784},{"NoteNumber":57,"Velocity":68,"Duration":657258,"SoundDuration":657258,"Delta":399884004},{"NoteNumber":69,"Velocity":80,"Duration":657258,"SoundDuration":657258,"Delta":399884004},{"NoteNumber":64,"Velocity":68,"Duration":657258,"SoundDuration":657258,"Delta":399884004},{"NoteNumber":37,"Velocity":57,"Duration":750806,"SoundDuration":750806,"Delta":399884004},{"NoteNumber":45,"Velocity":57,"Duration":750806,"SoundDuration":750806,"Delta":399884004},{"NoteNumber":49,"Velocity":68,"Duration":750806,"SoundDuration":750806,"Delta":399884004},{"NoteNumber":69,"Velocity":67,"Duration":96774,"SoundDuration":96774,"Delta":400561424},{"NoteNumber":71,"Velocity":75,"Duration":95541,"SoundDuration":95541,"Delta":400658198},{"NoteNumber":64,"Velocity":66,"Duration":371019,"SoundDuration":371019,"Delta":400658198},{"NoteNumber":37,"Velocity":53,"Duration":371019,"SoundDuration":371019,"Delta":400658198},{"NoteNumber":49,"Velocity":63,"Duration":371019,"SoundDuration":371019,"Delta":400658198},{"NoteNumber":73,"Velocity":66,"Duration":95541,"SoundDuration":95541,"Delta":400753740},{"NoteNumber":71,"Velocity":68,"Duration":95541,"SoundDuration":95541,"Delta":400849281},{"NoteNumber":69,"Velocity":70,"Duration":95541,"SoundDuration":95541,"Delta":400944823},{"NoteNumber":64,"Velocity":66,"Duration":417497,"SoundDuration":417497,"Delta":401040364},{"NoteNumber":71,"Velocity":74,"Duration":304290,"SoundDuration":304290,"Delta":401040364},{"NoteNumber":37,"Velocity":53,"Duration":417497,"SoundDuration":417497,"Delta":401040364},{"NoteNumber":49,"Velocity":63,"Duration":417497,"SoundDuration":417497,"Delta":401040364},{"NoteNumber":73,"Velocity":70,"Duration":113207,"SoundDuration":113207,"Delta":401344655},{"NoteNumber":62,"Velocity":68,"Duration":753237,"SoundDuration":753237,"Delta":401457862},{"NoteNumber":66,"Velocity":68,"Duration":753237,"SoundDuration":753237,"Delta":401457862},{"NoteNumber":74,"Velocity":80,"Duration":753237,"SoundDuration":753237,"Delta":401457862},{"NoteNumber":71,"Velocity":68,"Duration":753237,"SoundDuration":753237,"Delta":401457862},{"NoteNumber":35,"Velocity":57,"Duration":753237,"SoundDuration":753237,"Delta":401457862},{"NoteNumber":42,"Velocity":57,"Duration":753237,"SoundDuration":753237,"Delta":401457862},{"NoteNumber":47,"Velocity":68,"Duration":753237,"SoundDuration":753237,"Delta":401457862},{"NoteNumber":62,"Velocity":68,"Duration":572524,"SoundDuration":572524,"Delta":402234562},{"NoteNumber":71,"Velocity":68,"Duration":572524,"SoundDuration":572524,"Delta":402234562},{"NoteNumber":74,"Velocity":80,"Duration":572524,"SoundDuration":572524,"Delta":402234562},{"NoteNumber":66,"Velocity":68,"Duration":572524,"SoundDuration":572524,"Delta":402234562},{"NoteNumber":35,"Velocity":57,"Duration":572524,"SoundDuration":572524,"Delta":402234562},{"NoteNumber":42,"Velocity":57,"Duration":572524,"SoundDuration":572524,"Delta":402234562},{"NoteNumber":47,"Velocity":68,"Duration":572524,"SoundDuration":572524,"Delta":402234562},{"NoteNumber":68,"Velocity":63,"Duration":93809,"SoundDuration":93809,"Delta":402814948},{"NoteNumber":74,"Velocity":75,"Duration":93809,"SoundDuration":93809,"Delta":402814948},{"NoteNumber":40,"Velocity":52,"Duration":93809,"SoundDuration":93809,"Delta":402814948},{"NoteNumber":52,"Velocity":62,"Duration":93809,"SoundDuration":93809,"Delta":402814948},{"NoteNumber":68,"Velocity":68,"Duration":92445,"SoundDuration":92445,"Delta":403001662},{"NoteNumber":74,"Velocity":80,"Duration":92445,"SoundDuration":92445,"Delta":403001662},{"NoteNumber":40,"Velocity":53,"Duration":92445,"SoundDuration":92445,"Delta":403001662},{"NoteNumber":52,"Velocity":63,"Duration":92445,"SoundDuration":92445,"Delta":403001662},{"NoteNumber":74,"Velocity":79,"Duration":91174,"SoundDuration":91174,"Delta":403186029},{"NoteNumber":76,"Velocity":79,"Duration":91174,"SoundDuration":91174,"Delta":403186029},{"NoteNumber":68,"Velocity":67,"Duration":91174,"SoundDuration":91174,"Delta":403186029},{"NoteNumber":40,"Velocity":56,"Duration":91174,"SoundDuration":91174,"Delta":403186029},{"NoteNumber":52,"Velocity":66,"Duration":91174,"SoundDuration":91174,"Delta":403186029},{"NoteNumber":68,"Velocity":70,"Duration":89724,"SoundDuration":89724,"Delta":403367631},{"NoteNumber":78,"Velocity":83,"Duration":89724,"SoundDuration":89724,"Delta":403367631},{"NoteNumber":74,"Velocity":70,"Duration":89724,"SoundDuration":89724,"Delta":403367631},{"NoteNumber":40,"Velocity":57,"Duration":89724,"SoundDuration":89724,"Delta":403367631},{"NoteNumber":52,"Velocity":68,"Duration":89724,"SoundDuration":89724,"Delta":403367631},{"NoteNumber":68,"Velocity":73,"Duration":115384,"SoundDuration":115384,"Delta":403546908},{"NoteNumber":80,"Velocity":86,"Duration":115384,"SoundDuration":115384,"Delta":403546908},{"NoteNumber":74,"Velocity":73,"Duration":115384,"SoundDuration":115384,"Delta":403546908},{"NoteNumber":40,"Velocity":59,"Duration":115384,"SoundDuration":115384,"Delta":403546908},{"NoteNumber":52,"Velocity":70,"Duration":115384,"SoundDuration":115384,"Delta":403546908},{"NoteNumber":73,"Velocity":76,"Duration":738888,"SoundDuration":738888,"Delta":403777677},{"NoteNumber":81,"Velocity":90,"Duration":738888,"SoundDuration":738888,"Delta":403777677},{"NoteNumber":69,"Velocity":76,"Duration":738888,"SoundDuration":738888,"Delta":403777677},{"NoteNumber":33,"Velocity":62,"Duration":738888,"SoundDuration":738888,"Delta":403777677},{"NoteNumber":45,"Velocity":73,"Duration":738888,"SoundDuration":738888,"Delta":403777677},{"NoteNumber":61,"Velocity":73,"Duration":761903,"SoundDuration":761903,"Delta":404539581},{"NoteNumber":69,"Velocity":87,"Duration":761903,"SoundDuration":761903,"Delta":404539581},{"NoteNumber":57,"Velocity":73,"Duration":761903,"SoundDuration":761903,"Delta":404539581},{"NoteNumber":45,"Velocity":57,"Duration":738888,"SoundDuration":738888,"Delta":404539581},{"NoteNumber":52,"Velocity":68,"Duration":738888,"SoundDuration":738888,"Delta":404539581},{"NoteNumber":81,"Velocity":61,"Duration":380952,"SoundDuration":380952,"Delta":405301485},{"NoteNumber":66,"Velocity":45,"Duration":380952,"SoundDuration":380952,"Delta":405301485},{"NoteNumber":82,"Velocity":58,"Duration":385851,"SoundDuration":385851,"Delta":405682437},{"NoteNumber":62,"Velocity":37,"Duration":385851,"SoundDuration":385851,"Delta":405682437},{"NoteNumber":83,"Velocity":62,"Duration":117646,"SoundDuration":117646,"Delta":406068289},{"NoteNumber":67,"Velocity":45,"Duration":352940,"SoundDuration":352940,"Delta":406068289},{"NoteNumber":82,"Velocity":57,"Duration":117647,"SoundDuration":117647,"Delta":406185936},{"NoteNumber":83,"Velocity":57,"Duration":117646,"SoundDuration":117646,"Delta":406303583},{"NoteNumber":88,"Velocity":63,"Duration":118694,"SoundDuration":118694,"Delta":406421230},{"NoteNumber":71,"Velocity":39,"Duration":371168,"SoundDuration":371168,"Delta":406421230},{"NoteNumber":87,"Velocity":61,"Duration":118694,"SoundDuration":118694,"Delta":406539924},{"NoteNumber":88,"Velocity":65,"Duration":133779,"SoundDuration":133779,"Delta":406658618},{"NoteNumber":91,"Velocity":70,"Duration":638298,"SoundDuration":638298,"Delta":406792398},{"NoteNumber":76,"Velocity":39,"Duration":364741,"SoundDuration":364741,"Delta":406792398},{"NoteNumber":61,"Velocity":44,"Duration":182371,"SoundDuration":182371,"Delta":407157140},{"NoteNumber":90,"Velocity":61,"Duration":91185,"SoundDuration":91185,"Delta":407430696},{"NoteNumber":88,"Velocity":69,"Duration":273556,"SoundDuration":273556,"Delta":407521882},{"NoteNumber":73,"Velocity":36,"Duration":364741,"SoundDuration":364741,"Delta":407521882},{"NoteNumber":86,"Velocity":62,"Duration":91185,"SoundDuration":91185,"Delta":407795438},{"NoteNumber":85,"Velocity":70,"Duration":274297,"SoundDuration":274297,"Delta":407886624},{"NoteNumber":67,"Velocity":36,"Duration":374297,"SoundDuration":374297,"Delta":407886624},{"NoteNumber":83,"Velocity":62,"Duration":99999,"SoundDuration":99999,"Delta":408160921},{"NoteNumber":81,"Velocity":69,"Duration":117301,"SoundDuration":117301,"Delta":408260921},{"NoteNumber":66,"Velocity":45,"Duration":351905,"SoundDuration":351905,"Delta":408260921},{"NoteNumber":80,"Velocity":60,"Duration":117301,"SoundDuration":117301,"Delta":408378223},{"NoteNumber":81,"Velocity":55,"Duration":117301,"SoundDuration":117301,"Delta":408495525},{"NoteNumber":86,"Velocity":68,"Duration":119760,"SoundDuration":119760,"Delta":408612827},{"NoteNumber":69,"Velocity":39,"Duration":373299,"SoundDuration":373299,"Delta":408612827},{"NoteNumber":85,"Velocity":65,"Duration":119760,"SoundDuration":119760,"Delta":408732587},{"NoteNumber":86,"Velocity":69,"Duration":133779,"SoundDuration":133779,"Delta":408852348},{"NoteNumber":90,"Velocity":72,"Duration":638298,"SoundDuration":638298,"Delta":408986127},{"NoteNumber":74,"Velocity":39,"Duration":364741,"SoundDuration":364741,"Delta":408986127},{"NoteNumber":59,"Velocity":44,"Duration":182371,"SoundDuration":182371,"Delta":409350869},{"NoteNumber":88,"Velocity":61,"Duration":91185,"SoundDuration":91185,"Delta":409624426},{"NoteNumber":86,"Velocity":69,"Duration":273556,"SoundDuration":273556,"Delta":409715611},{"NoteNumber":71,"Velocity":36,"Duration":364741,"SoundDuration":364741,"Delta":409715611},{"NoteNumber":85,"Velocity":62,"Duration":91185,"SoundDuration":91185,"Delta":409989168},{"NoteNumber":83,"Velocity":70,"Duration":274297,"SoundDuration":274297,"Delta":410080353},{"NoteNumber":66,"Velocity":36,"Duration":374297,"SoundDuration":374297,"Delta":410080353},{"NoteNumber":81,"Velocity":62,"Duration":99999,"SoundDuration":99999,"Delta":410354650},{"NoteNumber":79,"Velocity":67,"Duration":117646,"SoundDuration":117646,"Delta":410454650},{"NoteNumber":64,"Velocity":45,"Duration":352940,"SoundDuration":352940,"Delta":410454650},{"NoteNumber":78,"Velocity":58,"Duration":117647,"SoundDuration":117647,"Delta":410572297},{"NoteNumber":79,"Velocity":58,"Duration":117646,"SoundDuration":117646,"Delta":410689944},{"NoteNumber":85,"Velocity":63,"Duration":120481,"SoundDuration":120481,"Delta":410807591},{"NoteNumber":67,"Velocity":39,"Duration":374743,"SoundDuration":374743,"Delta":410807591},{"NoteNumber":84,"Velocity":61,"Duration":120482,"SoundDuration":120482,"Delta":410928073},{"NoteNumber":85,"Velocity":65,"Duration":133779,"SoundDuration":133779,"Delta":411048555},{"NoteNumber":88,"Velocity":70,"Duration":638298,"SoundDuration":638298,"Delta":411182335},{"NoteNumber":73,"Velocity":39,"Duration":364741,"SoundDuration":364741,"Delta":411182335},{"NoteNumber":52,"Velocity":44,"Duration":182371,"SoundDuration":182371,"Delta":411547077},{"NoteNumber":86,"Velocity":59,"Duration":91185,"SoundDuration":91185,"Delta":411820633},{"NoteNumber":85,"Velocity":68,"Duration":277777,"SoundDuration":277777,"Delta":411911819},{"NoteNumber":64,"Velocity":34,"Duration":370369,"SoundDuration":370369,"Delta":411911819},{"NoteNumber":86,"Velocity":57,"Duration":92592,"SoundDuration":92592,"Delta":412189596},{"NoteNumber":85,"Velocity":67,"Duration":301402,"SoundDuration":301402,"Delta":412282189},{"NoteNumber":65,"Velocity":32,"Duration":423851,"SoundDuration":423851,"Delta":412282189},{"NoteNumber":83,"Velocity":58,"Duration":122448,"SoundDuration":122448,"Delta":412583591},{"NoteNumber":82,"Velocity":63,"Duration":773255,"SoundDuration":773255,"Delta":412706040},{"NoteNumber":78,"Velocity":53,"Duration":773255,"SoundDuration":773255,"Delta":412706040},{"NoteNumber":66,"Velocity":25,"Duration":773255,"SoundDuration":773255,"Delta":412706040},{"NoteNumber":73,"Velocity":30,"Duration":773255,"SoundDuration":773255,"Delta":412706040},{"NoteNumber":82,"Velocity":56,"Duration":657258,"SoundDuration":657258,"Delta":413503382},{"NoteNumber":78,"Velocity":47,"Duration":766129,"SoundDuration":766129,"Delta":413503382},{"NoteNumber":66,"Velocity":39,"Duration":580645,"SoundDuration":580645,"Delta":413503382},{"NoteNumber":73,"Velocity":47,"Duration":580645,"SoundDuration":580645,"Delta":413503382},{"NoteNumber":82,"Velocity":46,"Duration":96774,"SoundDuration":96774,"Delta":414180802},{"NoteNumber":83,"Velocity":52,"Duration":288461,"SoundDuration":288461,"Delta":414277576},{"NoteNumber":78,"Velocity":46,"Duration":373397,"SoundDuration":373397,"Delta":414277576},{"NoteNumber":66,"Velocity":37,"Duration":346153,"SoundDuration":346153,"Delta":414277576},{"NoteNumber":73,"Velocity":44,"Duration":346153,"SoundDuration":346153,"Delta":414277576},{"NoteNumber":82,"Velocity":49,"Duration":96153,"SoundDuration":96153,"Delta":414566037},{"NoteNumber":83,"Velocity":51,"Duration":304667,"SoundDuration":304667,"Delta":414662191},{"NoteNumber":78,"Velocity":46,"Duration":403917,"SoundDuration":403917,"Delta":414662191},{"NoteNumber":66,"Velocity":37,"Duration":372082,"SoundDuration":372082,"Delta":414662191},{"NoteNumber":73,"Velocity":44,"Duration":372082,"SoundDuration":372082,"Delta":414662191},{"NoteNumber":82,"Velocity":49,"Duration":112359,"SoundDuration":112359,"Delta":414966858},{"NoteNumber":77,"Velocity":47,"Duration":755681,"SoundDuration":755681,"Delta":415079218},{"NoteNumber":80,"Velocity":56,"Duration":755681,"SoundDuration":755681,"Delta":415079218},{"NoteNumber":61,"Velocity":39,"Duration":755681,"SoundDuration":755681,"Delta":415079218},{"NoteNumber":71,"Velocity":47,"Duration":755681,"SoundDuration":755681,"Delta":415079218},{"NoteNumber":77,"Velocity":47,"Duration":766129,"SoundDuration":766129,"Delta":415858438},{"NoteNumber":80,"Velocity":56,"Duration":657258,"SoundDuration":657258,"Delta":415858438},{"NoteNumber":61,"Velocity":39,"Duration":766129,"SoundDuration":766129,"Delta":415858438},{"NoteNumber":71,"Velocity":47,"Duration":766129,"SoundDuration":766129,"Delta":415858438},{"NoteNumber":80,"Velocity":46,"Duration":96774,"SoundDuration":96774,"Delta":416535857},{"NoteNumber":82,"Velocity":52,"Duration":288461,"SoundDuration":288461,"Delta":416632632},{"NoteNumber":77,"Velocity":46,"Duration":372595,"SoundDuration":372595,"Delta":416632632},{"NoteNumber":61,"Velocity":37,"Duration":346153,"SoundDuration":346153,"Delta":416632632},{"NoteNumber":71,"Velocity":44,"Duration":346153,"SoundDuration":346153,"Delta":416632632},{"NoteNumber":80,"Velocity":49,"Duration":96153,"SoundDuration":96153,"Delta":416921093},{"NoteNumber":77,"Velocity":46,"Duration":402981,"SoundDuration":402981,"Delta":417017247},{"NoteNumber":82,"Velocity":51,"Duration":304667,"SoundDuration":304667,"Delta":417017247},{"NoteNumber":61,"Velocity":37,"Duration":372082,"SoundDuration":372082,"Delta":417017247},{"NoteNumber":71,"Velocity":44,"Duration":372082,"SoundDuration":372082,"Delta":417017247},{"NoteNumber":80,"Velocity":49,"Duration":112359,"SoundDuration":112359,"Delta":417321914},{"NoteNumber":78,"Velocity":56,"Duration":755681,"SoundDuration":755681,"Delta":417434273},{"NoteNumber":66,"Velocity":39,"Duration":755681,"SoundDuration":755681,"Delta":417434273},{"NoteNumber":70,"Velocity":47,"Duration":755681,"SoundDuration":755681,"Delta":417434273},{"NoteNumber":78,"Velocity":56,"Duration":673700,"SoundDuration":673700,"Delta":418213493},{"NoteNumber":66,"Velocity":39,"Duration":673700,"SoundDuration":673700,"Delta":418213493},{"NoteNumber":70,"Velocity":47,"Duration":673700,"SoundDuration":673700,"Delta":418213493},{"NoteNumber":55,"Velocity":59,"Duration":48387,"SoundDuration":48387,"Delta":418895311},{"NoteNumber":49,"Velocity":59,"Duration":48387,"SoundDuration":48387,"Delta":418895311},{"NoteNumber":57,"Velocity":70,"Duration":48387,"SoundDuration":48387,"Delta":418895311},{"NoteNumber":33,"Velocity":51,"Duration":48387,"SoundDuration":48387,"Delta":418895311},{"NoteNumber":45,"Velocity":60,"Duration":48387,"SoundDuration":48387,"Delta":418895311},{"NoteNumber":55,"Velocity":64,"Duration":290322,"SoundDuration":290322,"Delta":418992085},{"NoteNumber":49,"Velocity":64,"Duration":290322,"SoundDuration":290322,"Delta":418992085},{"NoteNumber":57,"Velocity":76,"Duration":290322,"SoundDuration":290322,"Delta":418992085},{"NoteNumber":33,"Velocity":54,"Duration":290322,"SoundDuration":290322,"Delta":418992085},{"NoteNumber":45,"Velocity":64,"Duration":290322,"SoundDuration":290322,"Delta":418992085},{"NoteNumber":55,"Velocity":59,"Duration":48387,"SoundDuration":48387,"Delta":419282408},{"NoteNumber":57,"Velocity":70,"Duration":48387,"SoundDuration":48387,"Delta":419282408},{"NoteNumber":49,"Velocity":59,"Duration":48387,"SoundDuration":48387,"Delta":419282408},{"NoteNumber":33,"Velocity":50,"Duration":48387,"SoundDuration":48387,"Delta":419282408},{"NoteNumber":45,"Velocity":59,"Duration":48387,"SoundDuration":48387,"Delta":419282408},{"NoteNumber":59,"Velocity":75,"Duration":296641,"SoundDuration":296641,"Delta":419379182},{"NoteNumber":49,"Velocity":63,"Duration":296641,"SoundDuration":296641,"Delta":419379182},{"NoteNumber":55,"Velocity":63,"Duration":296641,"SoundDuration":296641,"Delta":419379182},{"NoteNumber":33,"Velocity":54,"Duration":296641,"SoundDuration":296641,"Delta":419379182},{"NoteNumber":45,"Velocity":64,"Duration":296641,"SoundDuration":296641,"Delta":419379182},{"NoteNumber":61,"Velocity":70,"Duration":51546,"SoundDuration":51546,"Delta":419675823},{"NoteNumber":49,"Velocity":59,"Duration":51546,"SoundDuration":51546,"Delta":419675823},{"NoteNumber":55,"Velocity":59,"Duration":51546,"SoundDuration":51546,"Delta":419675823},{"NoteNumber":33,"Velocity":51,"Duration":51546,"SoundDuration":51546,"Delta":419675823},{"NoteNumber":45,"Velocity":60,"Duration":51546,"SoundDuration":51546,"Delta":419675823},{"NoteNumber":50,"Velocity":68,"Duration":760621,"SoundDuration":760621,"Delta":419778916},{"NoteNumber":54,"Velocity":68,"Duration":760621,"SoundDuration":760621,"Delta":419778916},{"NoteNumber":62,"Velocity":80,"Duration":760621,"SoundDuration":760621,"Delta":419778916},{"NoteNumber":35,"Velocity":57,"Duration":760621,"SoundDuration":760621,"Delta":419778916},{"NoteNumber":47,"Velocity":68,"Duration":760621,"SoundDuration":760621,"Delta":419778916},{"NoteNumber":59,"Velocity":68,"Duration":750806,"SoundDuration":750806,"Delta":420563230},{"NoteNumber":54,"Velocity":68,"Duration":750806,"SoundDuration":750806,"Delta":420563230},{"NoteNumber":62,"Velocity":80,"Duration":657258,"SoundDuration":657258,"Delta":420563230},{"NoteNumber":50,"Velocity":68,"Duration":750806,"SoundDuration":750806,"Delta":420563230},{"NoteNumber":35,"Velocity":57,"Duration":750806,"SoundDuration":750806,"Delta":420563230},{"NoteNumber":47,"Velocity":68,"Duration":750806,"SoundDuration":750806,"Delta":420563230},{"NoteNumber":62,"Velocity":67,"Duration":96774,"SoundDuration":96774,"Delta":421240650},{"NoteNumber":62,"Velocity":75,"Duration":288461,"SoundDuration":288461,"Delta":421337424},{"NoteNumber":54,"Velocity":66,"Duration":373397,"SoundDuration":373397,"Delta":421337424},{"NoteNumber":35,"Velocity":53,"Duration":384614,"SoundDuration":384614,"Delta":421337424},{"NoteNumber":47,"Velocity":63,"Duration":384614,"SoundDuration":384614,"Delta":421337424},{"NoteNumber":64,"Velocity":70,"Duration":96153,"SoundDuration":96153,"Delta":421625885},{"NoteNumber":66,"Velocity":74,"Duration":304667,"SoundDuration":304667,"Delta":421722039},{"NoteNumber":54,"Velocity":66,"Duration":403917,"SoundDuration":403917,"Delta":421722039},{"NoteNumber":35,"Velocity":53,"Duration":417026,"SoundDuration":417026,"Delta":421722039},{"NoteNumber":47,"Velocity":63,"Duration":417026,"SoundDuration":417026,"Delta":421722039},{"NoteNumber":62,"Velocity":70,"Duration":112359,"SoundDuration":112359,"Delta":422026706},{"NoteNumber":64,"Velocity":68,"Duration":755681,"SoundDuration":755681,"Delta":422139065},{"NoteNumber":69,"Velocity":80,"Duration":755681,"SoundDuration":755681,"Delta":422139065},{"NoteNumber":67,"Velocity":68,"Duration":779220,"SoundDuration":779220,"Delta":422139065},{"NoteNumber":57,"Velocity":68,"Duration":755681,"SoundDuration":755681,"Delta":422139065},{"NoteNumber":37,"Velocity":57,"Duration":755681,"SoundDuration":755681,"Delta":422139065},{"NoteNumber":45,"Velocity":57,"Duration":755681,"SoundDuration":755681,"Delta":422139065},{"NoteNumber":49,"Velocity":68,"Duration":755681,"SoundDuration":755681,"Delta":422139065},{"NoteNumber":57,"Velocity":68,"Duration":657258,"SoundDuration":657258,"Delta":422918285},{"NoteNumber":64,"Velocity":68,"Duration":657258,"SoundDuration":657258,"Delta":422918285},{"NoteNumber":67,"Velocity":68,"Duration":657258,"SoundDuration":657258,"Delta":422918285},{"NoteNumber":69,"Velocity":80,"Duration":657258,"SoundDuration":657258,"Delta":422918285},{"NoteNumber":37,"Velocity":57,"Duration":750806,"SoundDuration":750806,"Delta":422918285},{"NoteNumber":45,"Velocity":57,"Duration":750806,"SoundDuration":750806,"Delta":422918285},{"NoteNumber":49,"Velocity":68,"Duration":750806,"SoundDuration":750806,"Delta":422918285},{"NoteNumber":67,"Velocity":53,"Duration":91935,"SoundDuration":91935,"Delta":423595705},{"NoteNumber":69,"Velocity":67,"Duration":91935,"SoundDuration":91935,"Delta":423595705},{"NoteNumber":64,"Velocity":53,"Duration":91935,"SoundDuration":91935,"Delta":423595705},{"NoteNumber":67,"Velocity":60,"Duration":272293,"SoundDuration":272293,"Delta":423692479},{"NoteNumber":69,"Velocity":75,"Duration":265127,"SoundDuration":265127,"Delta":423692479},{"NoteNumber":64,"Velocity":60,"Duration":272293,"SoundDuration":272293,"Delta":423692479},{"NoteNumber":37,"Velocity":53,"Duration":371019,"SoundDuration":371019,"Delta":423692479},{"NoteNumber":49,"Velocity":63,"Duration":371019,"SoundDuration":371019,"Delta":423692479},{"NoteNumber":69,"Velocity":70,"Duration":90764,"SoundDuration":90764,"Delta":423979104},{"NoteNumber":64,"Velocity":56,"Duration":90764,"SoundDuration":90764,"Delta":423979104},{"NoteNumber":67,"Velocity":56,"Duration":90764,"SoundDuration":90764,"Delta":423979104},{"NoteNumber":67,"Velocity":59,"Duration":287309,"SoundDuration":287309,"Delta":424074645},{"NoteNumber":64,"Velocity":59,"Duration":287309,"SoundDuration":287309,"Delta":424074645},{"NoteNumber":71,"Velocity":74,"Duration":287309,"SoundDuration":287309,"Delta":424074645},{"NoteNumber":37,"Velocity":53,"Duration":417497,"SoundDuration":417497,"Delta":424074645},{"NoteNumber":49,"Velocity":63,"Duration":417497,"SoundDuration":417497,"Delta":424074645},{"NoteNumber":64,"Velocity":56,"Duration":113207,"SoundDuration":113207,"Delta":424378936},{"NoteNumber":67,"Velocity":56,"Duration":113207,"SoundDuration":113207,"Delta":424378936},{"NoteNumber":73,"Velocity":70,"Duration":113207,"SoundDuration":113207,"Delta":424378936},{"NoteNumber":66,"Velocity":68,"Duration":753237,"SoundDuration":753237,"Delta":424492143},{"NoteNumber":69,"Velocity":68,"Duration":753237,"SoundDuration":753237,"Delta":424492143},{"NoteNumber":62,"Velocity":68,"Duration":753237,"SoundDuration":753237,"Delta":424492143},{"NoteNumber":74,"Velocity":80,"Duration":753237,"SoundDuration":753237,"Delta":424492143},{"NoteNumber":36,"Velocity":57,"Duration":753237,"SoundDuration":753237,"Delta":424492143},{"NoteNumber":48,"Velocity":68,"Duration":753237,"SoundDuration":753237,"Delta":424492143},{"NoteNumber":62,"Velocity":68,"Duration":572524,"SoundDuration":572524,"Delta":425268843},{"NoteNumber":67,"Velocity":68,"Duration":572524,"SoundDuration":572524,"Delta":425268843},{"NoteNumber":74,"Velocity":80,"Duration":572524,"SoundDuration":572524,"Delta":425268843},{"NoteNumber":35,"Velocity":57,"Duration":572524,"SoundDuration":572524,"Delta":425268843},{"NoteNumber":47,"Velocity":68,"Duration":572524,"SoundDuration":572524,"Delta":425268843},{"NoteNumber":74,"Velocity":75,"Duration":93809,"SoundDuration":93809,"Delta":425849229},{"NoteNumber":68,"Velocity":63,"Duration":93809,"SoundDuration":93809,"Delta":425849229},{"NoteNumber":34,"Velocity":52,"Duration":93809,"SoundDuration":93809,"Delta":425849229},{"NoteNumber":46,"Velocity":62,"Duration":93809,"SoundDuration":93809,"Delta":425849229},{"NoteNumber":68,"Velocity":68,"Duration":92445,"SoundDuration":92445,"Delta":426035943},{"NoteNumber":74,"Velocity":80,"Duration":92445,"SoundDuration":92445,"Delta":426035943},{"NoteNumber":34,"Velocity":53,"Duration":92445,"SoundDuration":92445,"Delta":426035943},{"NoteNumber":46,"Velocity":63,"Duration":92445,"SoundDuration":92445,"Delta":426035943},{"NoteNumber":68,"Velocity":67,"Duration":91174,"SoundDuration":91174,"Delta":426220310},{"NoteNumber":74,"Velocity":79,"Duration":91174,"SoundDuration":91174,"Delta":426220310},{"NoteNumber":76,"Velocity":79,"Duration":91174,"SoundDuration":91174,"Delta":426220310},{"NoteNumber":34,"Velocity":56,"Duration":91174,"SoundDuration":91174,"Delta":426220310},{"NoteNumber":46,"Velocity":66,"Duration":91174,"SoundDuration":91174,"Delta":426220310},{"NoteNumber":74,"Velocity":70,"Duration":89724,"SoundDuration":89724,"Delta":426401912},{"NoteNumber":78,"Velocity":83,"Duration":89724,"SoundDuration":89724,"Delta":426401912},{"NoteNumber":68,"Velocity":70,"Duration":89724,"SoundDuration":89724,"Delta":426401912},{"NoteNumber":34,"Velocity":57,"Duration":89724,"SoundDuration":89724,"Delta":426401912},{"NoteNumber":46,"Velocity":68,"Duration":89724,"SoundDuration":89724,"Delta":426401912},{"NoteNumber":74,"Velocity":73,"Duration":115384,"SoundDuration":115384,"Delta":426581189},{"NoteNumber":80,"Velocity":86,"Duration":115384,"SoundDuration":115384,"Delta":426581189},{"NoteNumber":68,"Velocity":73,"Duration":115384,"SoundDuration":115384,"Delta":426581189},{"NoteNumber":34,"Velocity":59,"Duration":115384,"SoundDuration":115384,"Delta":426581189},{"NoteNumber":46,"Velocity":70,"Duration":115384,"SoundDuration":115384,"Delta":426581189},{"NoteNumber":81,"Velocity":90,"Duration":738888,"SoundDuration":738888,"Delta":426811958},{"NoteNumber":69,"Velocity":76,"Duration":738888,"SoundDuration":738888,"Delta":426811958},{"NoteNumber":73,"Velocity":76,"Duration":738888,"SoundDuration":738888,"Delta":426811958},{"NoteNumber":33,"Velocity":62,"Duration":738888,"SoundDuration":738888,"Delta":426811958},{"NoteNumber":45,"Velocity":73,"Duration":738888,"SoundDuration":738888,"Delta":426811958},{"NoteNumber":61,"Velocity":73,"Duration":761903,"SoundDuration":761903,"Delta":427573862},{"NoteNumber":69,"Velocity":87,"Duration":761903,"SoundDuration":761903,"Delta":427573862},{"NoteNumber":57,"Velocity":73,"Duration":761903,"SoundDuration":761903,"Delta":427573862},{"NoteNumber":45,"Velocity":57,"Duration":738888,"SoundDuration":738888,"Delta":427573862},{"NoteNumber":52,"Velocity":68,"Duration":738888,"SoundDuration":738888,"Delta":427573862},{"NoteNumber":76,"Velocity":61,"Duration":380952,"SoundDuration":380952,"Delta":428335766},{"NoteNumber":61,"Velocity":45,"Duration":380952,"SoundDuration":380952,"Delta":428335766},{"NoteNumber":77,"Velocity":58,"Duration":385851,"SoundDuration":385851,"Delta":428716718},{"NoteNumber":57,"Velocity":37,"Duration":385851,"SoundDuration":385851,"Delta":428716718},{"NoteNumber":78,"Velocity":62,"Duration":117646,"SoundDuration":117646,"Delta":429102570},{"NoteNumber":62,"Velocity":45,"Duration":352940,"SoundDuration":352940,"Delta":429102570},{"NoteNumber":77,"Velocity":57,"Duration":117647,"SoundDuration":117647,"Delta":429220217},{"NoteNumber":78,"Velocity":57,"Duration":117646,"SoundDuration":117646,"Delta":429337864},{"NoteNumber":83,"Velocity":63,"Duration":118694,"SoundDuration":118694,"Delta":429455511},{"NoteNumber":66,"Velocity":39,"Duration":371167,"SoundDuration":371167,"Delta":429455511},{"NoteNumber":82,"Velocity":61,"Duration":118694,"SoundDuration":118694,"Delta":429574205},{"NoteNumber":83,"Velocity":65,"Duration":133779,"SoundDuration":133779,"Delta":429692899},{"NoteNumber":86,"Velocity":70,"Duration":638298,"SoundDuration":638298,"Delta":429826679},{"NoteNumber":71,"Velocity":39,"Duration":364741,"SoundDuration":364741,"Delta":429826679},{"NoteNumber":56,"Velocity":44,"Duration":182371,"SoundDuration":182371,"Delta":430191421},{"NoteNumber":85,"Velocity":61,"Duration":91185,"SoundDuration":91185,"Delta":430464977},{"NoteNumber":83,"Velocity":69,"Duration":91185,"SoundDuration":91185,"Delta":430556163},{"NoteNumber":68,"Velocity":36,"Duration":364741,"SoundDuration":364741,"Delta":430556163},{"NoteNumber":85,"Velocity":63,"Duration":91185,"SoundDuration":91185,"Delta":430647348},{"NoteNumber":83,"Velocity":63,"Duration":91185,"SoundDuration":91185,"Delta":430738534},{"NoteNumber":81,"Velocity":62,"Duration":91185,"SoundDuration":91185,"Delta":430829719},{"NoteNumber":80,"Velocity":70,"Duration":90361,"SoundDuration":90361,"Delta":430920905},{"NoteNumber":62,"Velocity":36,"Duration":374297,"SoundDuration":374297,"Delta":430920905},{"NoteNumber":81,"Velocity":65,"Duration":90361,"SoundDuration":90361,"Delta":431011266},{"NoteNumber":80,"Velocity":66,"Duration":93574,"SoundDuration":93574,"Delta":431101628},{"NoteNumber":78,"Velocity":62,"Duration":99999,"SoundDuration":99999,"Delta":431195202},{"NoteNumber":76,"Velocity":69,"Duration":117301,"SoundDuration":117301,"Delta":431295202},{"NoteNumber":61,"Velocity":45,"Duration":351905,"SoundDuration":351905,"Delta":431295202},{"NoteNumber":75,"Velocity":60,"Duration":117301,"SoundDuration":117301,"Delta":431412504},{"NoteNumber":76,"Velocity":55,"Duration":117301,"SoundDuration":117301,"Delta":431529806},{"NoteNumber":81,"Velocity":68,"Duration":119760,"SoundDuration":119760,"Delta":431647108},{"NoteNumber":64,"Velocity":39,"Duration":373299,"SoundDuration":373299,"Delta":431647108},{"NoteNumber":80,"Velocity":65,"Duration":119760,"SoundDuration":119760,"Delta":431766868},{"NoteNumber":81,"Velocity":69,"Duration":133779,"SoundDuration":133779,"Delta":431886629},{"NoteNumber":85,"Velocity":72,"Duration":638298,"SoundDuration":638298,"Delta":432020408},{"NoteNumber":69,"Velocity":39,"Duration":364741,"SoundDuration":364741,"Delta":432020408},{"NoteNumber":54,"Velocity":44,"Duration":182371,"SoundDuration":182371,"Delta":432385150},{"NoteNumber":83,"Velocity":61,"Duration":91185,"SoundDuration":91185,"Delta":432658707},{"NoteNumber":81,"Velocity":69,"Duration":91185,"SoundDuration":91185,"Delta":432749892},{"NoteNumber":66,"Velocity":36,"Duration":364741,"SoundDuration":364741,"Delta":432749892},{"NoteNumber":83,"Velocity":63,"Duration":91185,"SoundDuration":91185,"Delta":432841078},{"NoteNumber":81,"Velocity":63,"Duration":91185,"SoundDuration":91185,"Delta":432932263},{"NoteNumber":80,"Velocity":62,"Duration":91185,"SoundDuration":91185,"Delta":433023449},{"NoteNumber":78,"Velocity":70,"Duration":90361,"SoundDuration":90361,"Delta":433114634},{"NoteNumber":61,"Velocity":36,"Duration":374297,"SoundDuration":374297,"Delta":433114634},{"NoteNumber":80,"Velocity":65,"Duration":90361,"SoundDuration":90361,"Delta":433204996},{"NoteNumber":78,"Velocity":65,"Duration":93574,"SoundDuration":93574,"Delta":433295357},{"NoteNumber":76,"Velocity":62,"Duration":99999,"SoundDuration":99999,"Delta":433388931},{"NoteNumber":74,"Velocity":67,"Duration":117646,"SoundDuration":117646,"Delta":433488931},{"NoteNumber":59,"Velocity":45,"Duration":352940,"SoundDuration":352940,"Delta":433488931},{"NoteNumber":73,"Velocity":58,"Duration":117647,"SoundDuration":117647,"Delta":433606578},{"NoteNumber":74,"Velocity":58,"Duration":117646,"SoundDuration":117646,"Delta":433724225},{"NoteNumber":80,"Velocity":63,"Duration":120481,"SoundDuration":120481,"Delta":433841872},{"NoteNumber":62,"Velocity":39,"Duration":374743,"SoundDuration":374743,"Delta":433841872},{"NoteNumber":79,"Velocity":61,"Duration":120482,"SoundDuration":120482,"Delta":433962354},{"NoteNumber":80,"Velocity":65,"Duration":133779,"SoundDuration":133779,"Delta":434082836},{"NoteNumber":83,"Velocity":70,"Duration":638298,"SoundDuration":638298,"Delta":434216616},{"NoteNumber":68,"Velocity":39,"Duration":364741,"SoundDuration":364741,"Delta":434216616},{"NoteNumber":47,"Velocity":44,"Duration":182371,"SoundDuration":182371,"Delta":434581358},{"NoteNumber":81,"Velocity":59,"Duration":91185,"SoundDuration":91185,"Delta":434854914},{"NoteNumber":80,"Velocity":68,"Duration":277777,"SoundDuration":277777,"Delta":434946100},{"NoteNumber":59,"Velocity":34,"Duration":370369,"SoundDuration":370369,"Delta":434946100},{"NoteNumber":81,"Velocity":57,"Duration":92592,"SoundDuration":92592,"Delta":435223877},{"NoteNumber":80,"Velocity":67,"Duration":301402,"SoundDuration":301402,"Delta":435316470},{"NoteNumber":60,"Velocity":32,"Duration":423851,"SoundDuration":423851,"Delta":435316470},{"NoteNumber":78,"Velocity":58,"Duration":122448,"SoundDuration":122448,"Delta":435617872},{"NoteNumber":73,"Velocity":53,"Duration":773255,"SoundDuration":773255,"Delta":435740321},{"NoteNumber":77,"Velocity":63,"Duration":773255,"SoundDuration":773255,"Delta":435740321},{"NoteNumber":61,"Velocity":25,"Duration":773255,"SoundDuration":773255,"Delta":435740321},{"NoteNumber":68,"Velocity":30,"Duration":773255,"SoundDuration":773255,"Delta":435740321},{"NoteNumber":73,"Velocity":47,"Duration":766129,"SoundDuration":766129,"Delta":436537663},{"NoteNumber":77,"Velocity":56,"Duration":657258,"SoundDuration":657258,"Delta":436537663},{"NoteNumber":61,"Velocity":39,"Duration":766129,"SoundDuration":766129,"Delta":436537663},{"NoteNumber":68,"Velocity":47,"Duration":766129,"SoundDuration":766129,"Delta":436537663},{"NoteNumber":77,"Velocity":46,"Duration":96774,"SoundDuration":96774,"Delta":437215083},{"NoteNumber":73,"Velocity":46,"Duration":373397,"SoundDuration":373397,"Delta":437311857},{"NoteNumber":78,"Velocity":52,"Duration":288461,"SoundDuration":288461,"Delta":437311857},{"NoteNumber":61,"Velocity":37,"Duration":346153,"SoundDuration":346153,"Delta":437311857},{"NoteNumber":68,"Velocity":44,"Duration":346153,"SoundDuration":346153,"Delta":437311857},{"NoteNumber":77,"Velocity":49,"Duration":96153,"SoundDuration":96153,"Delta":437600318},{"NoteNumber":73,"Velocity":46,"Duration":403917,"SoundDuration":403917,"Delta":437696472},{"NoteNumber":78,"Velocity":51,"Duration":304667,"SoundDuration":304667,"Delta":437696472},{"NoteNumber":61,"Velocity":37,"Duration":372082,"SoundDuration":372082,"Delta":437696472},{"NoteNumber":68,"Velocity":44,"Duration":372082,"SoundDuration":372082,"Delta":437696472},{"NoteNumber":77,"Velocity":49,"Duration":112359,"SoundDuration":112359,"Delta":438001139},{"NoteNumber":74,"Velocity":51,"Duration":755681,"SoundDuration":755681,"Delta":438113499},{"NoteNumber":76,"Velocity":51,"Duration":755681,"SoundDuration":755681,"Delta":438113499},{"NoteNumber":80,"Velocity":61,"Duration":755681,"SoundDuration":755681,"Delta":438113499},{"NoteNumber":59,"Velocity":39,"Duration":755681,"SoundDuration":755681,"Delta":438113499},{"NoteNumber":64,"Velocity":39,"Duration":755681,"SoundDuration":755681,"Delta":438113499},{"NoteNumber":68,"Velocity":47,"Duration":755681,"SoundDuration":755681,"Delta":438113499},{"NoteNumber":74,"Velocity":51,"Duration":766129,"SoundDuration":766129,"Delta":438892719},{"NoteNumber":76,"Velocity":51,"Duration":669355,"SoundDuration":669355,"Delta":438892719},{"NoteNumber":80,"Velocity":61,"Duration":669355,"SoundDuration":669355,"Delta":438892719},{"NoteNumber":59,"Velocity":39,"Duration":766129,"SoundDuration":766129,"Delta":438892719},{"NoteNumber":64,"Velocity":39,"Duration":669355,"SoundDuration":669355,"Delta":438892719},{"NoteNumber":68,"Velocity":47,"Duration":669355,"SoundDuration":669355,"Delta":438892719},{"NoteNumber":76,"Velocity":50,"Duration":96774,"SoundDuration":96774,"Delta":439570138},{"NoteNumber":68,"Velocity":39,"Duration":96774,"SoundDuration":96774,"Delta":439570138},{"NoteNumber":74,"Velocity":50,"Duration":372595,"SoundDuration":372595,"Delta":439666913},{"NoteNumber":78,"Velocity":57,"Duration":288461,"SoundDuration":288461,"Delta":439666913},{"NoteNumber":69,"Velocity":44,"Duration":288461,"SoundDuration":288461,"Delta":439666913},{"NoteNumber":64,"Velocity":39,"Duration":372595,"SoundDuration":372595,"Delta":439666913},{"NoteNumber":76,"Velocity":53,"Duration":96153,"SoundDuration":96153,"Delta":439955374},{"NoteNumber":68,"Velocity":41,"Duration":96153,"SoundDuration":96153,"Delta":439955374},{"NoteNumber":74,"Velocity":50,"Duration":402981,"SoundDuration":402981,"Delta":440051528},{"NoteNumber":78,"Velocity":56,"Duration":304667,"SoundDuration":304667,"Delta":440051528},{"NoteNumber":64,"Velocity":39,"Duration":402981,"SoundDuration":402981,"Delta":440051528},{"NoteNumber":69,"Velocity":43,"Duration":304667,"SoundDuration":304667,"Delta":440051528},{"NoteNumber":80,"Velocity":53,"Duration":112359,"SoundDuration":112359,"Delta":440356195},{"NoteNumber":71,"Velocity":41,"Duration":112359,"SoundDuration":112359,"Delta":440356195},{"NoteNumber":69,"Velocity":51,"Duration":755681,"SoundDuration":755681,"Delta":440468554},{"NoteNumber":73,"Velocity":51,"Duration":755681,"SoundDuration":755681,"Delta":440468554},{"NoteNumber":81,"Velocity":61,"Duration":755681,"SoundDuration":755681,"Delta":440468554},{"NoteNumber":64,"Velocity":47,"Duration":755681,"SoundDuration":755681,"Delta":440468554},{"NoteNumber":57,"Velocity":39,"Duration":755681,"SoundDuration":755681,"Delta":440468554},{"NoteNumber":73,"Velocity":51,"Duration":673700,"SoundDuration":673700,"Delta":441247774},{"NoteNumber":69,"Velocity":51,"Duration":673700,"SoundDuration":673700,"Delta":441247774},{"NoteNumber":81,"Velocity":61,"Duration":673700,"SoundDuration":673700,"Delta":441247774},{"NoteNumber":57,"Velocity":39,"Duration":673700,"SoundDuration":673700,"Delta":441247774},{"NoteNumber":64,"Velocity":47,"Duration":673700,"SoundDuration":673700,"Delta":441247774},{"NoteNumber":57,"Velocity":70,"Duration":48387,"SoundDuration":48387,"Delta":441929592},{"NoteNumber":45,"Velocity":60,"Duration":48387,"SoundDuration":48387,"Delta":441929592},{"NoteNumber":57,"Velocity":76,"Duration":96774,"SoundDuration":96774,"Delta":442026366},{"NoteNumber":45,"Velocity":64,"Duration":96774,"SoundDuration":96774,"Delta":442026366},{"NoteNumber":57,"Velocity":70,"Duration":46583,"SoundDuration":46583,"Delta":442313082},{"NoteNumber":45,"Velocity":59,"Duration":46583,"SoundDuration":46583,"Delta":442313082},{"NoteNumber":55,"Velocity":75,"Duration":91743,"SoundDuration":91743,"Delta":442406250},{"NoteNumber":43,"Velocity":64,"Duration":91743,"SoundDuration":91743,"Delta":442406250},{"NoteNumber":57,"Velocity":70,"Duration":51546,"SoundDuration":51546,"Delta":442692829},{"NoteNumber":45,"Velocity":60,"Duration":51546,"SoundDuration":51546,"Delta":442692829},{"NoteNumber":58,"Velocity":68,"Duration":784313,"SoundDuration":784313,"Delta":442795921},{"NoteNumber":61,"Velocity":80,"Duration":760621,"SoundDuration":760621,"Delta":442795921},{"NoteNumber":52,"Velocity":68,"Duration":760621,"SoundDuration":760621,"Delta":442795921},{"NoteNumber":55,"Velocity":68,"Duration":760621,"SoundDuration":760621,"Delta":442795921},{"NoteNumber":34,"Velocity":57,"Duration":760621,"SoundDuration":760621,"Delta":442795921},{"NoteNumber":46,"Velocity":68,"Duration":760621,"SoundDuration":760621,"Delta":442795921},{"NoteNumber":61,"Velocity":80,"Duration":657258,"SoundDuration":657258,"Delta":443580235},{"NoteNumber":58,"Velocity":68,"Duration":657258,"SoundDuration":657258,"Delta":443580235},{"NoteNumber":52,"Velocity":68,"Duration":657258,"SoundDuration":657258,"Delta":443580235},{"NoteNumber":55,"Velocity":68,"Duration":657258,"SoundDuration":657258,"Delta":443580235},{"NoteNumber":34,"Velocity":57,"Duration":657258,"SoundDuration":657258,"Delta":443580235},{"NoteNumber":46,"Velocity":68,"Duration":657258,"SoundDuration":657258,"Delta":443580235},{"NoteNumber":69,"Velocity":70,"Duration":48387,"SoundDuration":48387,"Delta":444257655},{"NoteNumber":57,"Velocity":60,"Duration":48387,"SoundDuration":48387,"Delta":444257655},{"NoteNumber":69,"Velocity":76,"Duration":93457,"SoundDuration":93457,"Delta":444354429},{"NoteNumber":57,"Velocity":64,"Duration":93457,"SoundDuration":93457,"Delta":444354429},{"NoteNumber":69,"Velocity":70,"Duration":46729,"SoundDuration":46729,"Delta":444634803},{"NoteNumber":57,"Velocity":59,"Duration":46729,"SoundDuration":46729,"Delta":444634803},{"NoteNumber":67,"Velocity":75,"Duration":91463,"SoundDuration":91463,"Delta":444728261},{"NoteNumber":55,"Velocity":64,"Duration":91463,"SoundDuration":91463,"Delta":444728261},{"NoteNumber":69,"Velocity":70,"Duration":51546,"SoundDuration":51546,"Delta":445014281},{"NoteNumber":57,"Velocity":60,"Duration":51546,"SoundDuration":51546,"Delta":445014281},{"NoteNumber":65,"Velocity":68,"Duration":760621,"SoundDuration":760621,"Delta":445117374},{"NoteNumber":70,"Velocity":68,"Duration":784313,"SoundDuration":784313,"Delta":445117374},{"NoteNumber":62,"Velocity":68,"Duration":760621,"SoundDuration":760621,"Delta":445117374},{"NoteNumber":74,"Velocity":80,"Duration":760621,"SoundDuration":760621,"Delta":445117374},{"NoteNumber":53,"Velocity":57,"Duration":784313,"SoundDuration":784313,"Delta":445117374},{"NoteNumber":46,"Velocity":57,"Duration":760621,"SoundDuration":760621,"Delta":445117374},{"NoteNumber":58,"Velocity":68,"Duration":760621,"SoundDuration":760621,"Delta":445117374},{"NoteNumber":62,"Velocity":68,"Duration":657258,"SoundDuration":657258,"Delta":445901688},{"NoteNumber":70,"Velocity":68,"Duration":657258,"SoundDuration":657258,"Delta":445901688},{"NoteNumber":65,"Velocity":68,"Duration":657258,"SoundDuration":657258,"Delta":445901688},{"NoteNumber":74,"Velocity":80,"Duration":657258,"SoundDuration":657258,"Delta":445901688},{"NoteNumber":53,"Velocity":57,"Duration":657258,"SoundDuration":657258,"Delta":445901688},{"NoteNumber":46,"Velocity":57,"Duration":657258,"SoundDuration":657258,"Delta":445901688},{"NoteNumber":58,"Velocity":68,"Duration":657258,"SoundDuration":657258,"Delta":445901688},{"NoteNumber":77,"Velocity":70,"Duration":48387,"SoundDuration":48387,"Delta":446579108},{"NoteNumber":74,"Velocity":59,"Duration":48387,"SoundDuration":48387,"Delta":446579108},{"NoteNumber":62,"Velocity":51,"Duration":48387,"SoundDuration":48387,"Delta":446579108},{"NoteNumber":65,"Velocity":60,"Duration":48387,"SoundDuration":48387,"Delta":446579108},{"NoteNumber":74,"Velocity":64,"Duration":94339,"SoundDuration":94339,"Delta":446675882},{"NoteNumber":77,"Velocity":76,"Duration":94339,"SoundDuration":94339,"Delta":446675882},{"NoteNumber":62,"Velocity":54,"Duration":94339,"SoundDuration":94339,"Delta":446675882},{"NoteNumber":65,"Velocity":64,"Duration":94339,"SoundDuration":94339,"Delta":446675882},{"NoteNumber":74,"Velocity":59,"Duration":47169,"SoundDuration":47169,"Delta":446958900},{"NoteNumber":77,"Velocity":70,"Duration":47169,"SoundDuration":47169,"Delta":446958900},{"NoteNumber":62,"Velocity":50,"Duration":47169,"SoundDuration":47169,"Delta":446958900},{"NoteNumber":65,"Velocity":59,"Duration":47169,"SoundDuration":47169,"Delta":446958900},{"NoteNumber":76,"Velocity":75,"Duration":92024,"SoundDuration":92024,"Delta":447053240},{"NoteNumber":73,"Velocity":63,"Duration":92024,"SoundDuration":92024,"Delta":447053240},{"NoteNumber":61,"Velocity":54,"Duration":92024,"SoundDuration":92024,"Delta":447053240},{"NoteNumber":64,"Velocity":64,"Duration":92024,"SoundDuration":92024,"Delta":447053240},{"NoteNumber":74,"Velocity":59,"Duration":49668,"SoundDuration":49668,"Delta":447336627},{"NoteNumber":77,"Velocity":70,"Duration":49668,"SoundDuration":49668,"Delta":447336627},{"NoteNumber":62,"Velocity":51,"Duration":49668,"SoundDuration":49668,"Delta":447336627},{"NoteNumber":65,"Velocity":60,"Duration":49668,"SoundDuration":49668,"Delta":447336627},{"NoteNumber":74,"Velocity":76,"Duration":94043,"SoundDuration":94043,"Delta":447435964},{"NoteNumber":70,"Velocity":64,"Duration":94043,"SoundDuration":94043,"Delta":447435964},{"NoteNumber":58,"Velocity":54,"Duration":94043,"SoundDuration":94043,"Delta":447435964},{"NoteNumber":62,"Velocity":64,"Duration":94043,"SoundDuration":94043,"Delta":447435964},{"NoteNumber":70,"Velocity":59,"Duration":47022,"SoundDuration":47022,"Delta":447718096},{"NoteNumber":74,"Velocity":70,"Duration":47022,"SoundDuration":47022,"Delta":447718096},{"NoteNumber":58,"Velocity":50,"Duration":47022,"SoundDuration":47022,"Delta":447718096},{"NoteNumber":62,"Velocity":59,"Duration":47022,"SoundDuration":47022,"Delta":447718096},{"NoteNumber":73,"Velocity":75,"Duration":92024,"SoundDuration":92024,"Delta":447812140},{"NoteNumber":69,"Velocity":63,"Duration":92024,"SoundDuration":92024,"Delta":447812140},{"NoteNumber":57,"Velocity":54,"Duration":92024,"SoundDuration":92024,"Delta":447812140},{"NoteNumber":61,"Velocity":64,"Duration":92024,"SoundDuration":92024,"Delta":447812140},{"NoteNumber":74,"Velocity":70,"Duration":49668,"SoundDuration":49668,"Delta":448095527},{"NoteNumber":70,"Velocity":59,"Duration":49668,"SoundDuration":49668,"Delta":448095527},{"NoteNumber":58,"Velocity":51,"Duration":49668,"SoundDuration":49668,"Delta":448095527},{"NoteNumber":62,"Velocity":60,"Duration":49668,"SoundDuration":49668,"Delta":448095527},{"NoteNumber":70,"Velocity":76,"Duration":94637,"SoundDuration":94637,"Delta":448194672},{"NoteNumber":67,"Velocity":64,"Duration":94637,"SoundDuration":94637,"Delta":448194672},{"NoteNumber":55,"Velocity":54,"Duration":94637,"SoundDuration":94637,"Delta":448194672},{"NoteNumber":58,"Velocity":64,"Duration":94637,"SoundDuration":94637,"Delta":448194672},{"NoteNumber":70,"Velocity":70,"Duration":47318,"SoundDuration":47318,"Delta":448478584},{"NoteNumber":67,"Velocity":59,"Duration":47318,"SoundDuration":47318,"Delta":448478584},{"NoteNumber":58,"Velocity":59,"Duration":47318,"SoundDuration":47318,"Delta":448478584},{"NoteNumber":55,"Velocity":50,"Duration":47318,"SoundDuration":47318,"Delta":448478584},{"NoteNumber":69,"Velocity":75,"Duration":92307,"SoundDuration":92307,"Delta":448573221},{"NoteNumber":66,"Velocity":63,"Duration":92307,"SoundDuration":92307,"Delta":448573221},{"NoteNumber":57,"Velocity":64,"Duration":92307,"SoundDuration":92307,"Delta":448573221},{"NoteNumber":54,"Velocity":54,"Duration":92307,"SoundDuration":92307,"Delta":448573221},{"NoteNumber":70,"Velocity":70,"Duration":50335,"SoundDuration":50335,"Delta":448859317},{"NoteNumber":67,"Velocity":59,"Duration":50335,"SoundDuration":50335,"Delta":448859317},{"NoteNumber":58,"Velocity":60,"Duration":50335,"SoundDuration":50335,"Delta":448859317},{"NoteNumber":55,"Velocity":51,"Duration":50335,"SoundDuration":50335,"Delta":448859317},{"NoteNumber":63,"Velocity":68,"Duration":784313,"SoundDuration":784313,"Delta":448959988},{"NoteNumber":67,"Velocity":80,"Duration":760621,"SoundDuration":760621,"Delta":448959988},{"NoteNumber":51,"Velocity":57,"Duration":784313,"SoundDuration":784313,"Delta":448959988},{"NoteNumber":55,"Velocity":68,"Duration":760621,"SoundDuration":760621,"Delta":448959988},{"NoteNumber":75,"Velocity":74,"Duration":794314,"SoundDuration":794314,"Delta":449744302},{"NoteNumber":67,"Velocity":74,"Duration":794314,"SoundDuration":794314,"Delta":449744302},{"NoteNumber":71,"Velocity":74,"Duration":794314,"SoundDuration":794314,"Delta":449744302},{"NoteNumber":79,"Velocity":88,"Duration":794314,"SoundDuration":794314,"Delta":449744302},{"NoteNumber":38,"Velocity":57,"Duration":794314,"SoundDuration":794314,"Delta":449744302},{"NoteNumber":50,"Velocity":68,"Duration":794314,"SoundDuration":794314,"Delta":449744302},{"NoteNumber":75,"Velocity":74,"Duration":796980,"SoundDuration":796980,"Delta":450546978},{"NoteNumber":67,"Velocity":74,"Duration":796980,"SoundDuration":796980,"Delta":450546978},{"NoteNumber":72,"Velocity":74,"Duration":796980,"SoundDuration":796980,"Delta":450546978},{"NoteNumber":79,"Velocity":88,"Duration":796980,"SoundDuration":796980,"Delta":450546978},{"NoteNumber":36,"Velocity":57,"Duration":796980,"SoundDuration":796980,"Delta":450546978},{"NoteNumber":48,"Velocity":68,"Duration":796980,"SoundDuration":796980,"Delta":450546978},{"NoteNumber":65,"Velocity":74,"Duration":103092,"SoundDuration":103092,"Delta":451352348},{"NoteNumber":74,"Velocity":74,"Duration":103092,"SoundDuration":103092,"Delta":451352348},{"NoteNumber":77,"Velocity":88,"Duration":103092,"SoundDuration":103092,"Delta":451352348},{"NoteNumber":41,"Velocity":57,"Duration":103092,"SoundDuration":103092,"Delta":451352348},{"NoteNumber":53,"Velocity":68,"Duration":103092,"SoundDuration":103092,"Delta":451352348},{"NoteNumber":69,"Velocity":74,"Duration":109090,"SoundDuration":109090,"Delta":451764719},{"NoteNumber":72,"Velocity":74,"Duration":109090,"SoundDuration":109090,"Delta":451764719},{"NoteNumber":75,"Velocity":74,"Duration":109090,"SoundDuration":109090,"Delta":451764719},{"NoteNumber":81,"Velocity":88,"Duration":109090,"SoundDuration":109090,"Delta":451764719},{"NoteNumber":41,"Velocity":57,"Duration":109090,"SoundDuration":109090,"Delta":451764719},{"NoteNumber":53,"Velocity":68,"Duration":109090,"SoundDuration":109090,"Delta":451764719},{"NoteNumber":74,"Velocity":85,"Duration":839222,"SoundDuration":839222,"Delta":452201083},{"NoteNumber":70,"Velocity":85,"Duration":839222,"SoundDuration":839222,"Delta":452201083},{"NoteNumber":82,"Velocity":101,"Duration":839222,"SoundDuration":839222,"Delta":452201083},{"NoteNumber":34,"Velocity":57,"Duration":839222,"SoundDuration":839222,"Delta":452201083},{"NoteNumber":46,"Velocity":68,"Duration":839222,"SoundDuration":839222,"Delta":452201083},{"NoteNumber":58,"Velocity":74,"Duration":778021,"SoundDuration":778021,"Delta":453049139},{"NoteNumber":62,"Velocity":74,"Duration":778021,"SoundDuration":778021,"Delta":453049139},{"NoteNumber":70,"Velocity":88,"Duration":778021,"SoundDuration":778021,"Delta":453049139},{"NoteNumber":46,"Velocity":57,"Duration":778021,"SoundDuration":778021,"Delta":453049139},{"NoteNumber":53,"Velocity":68,"Duration":778021,"SoundDuration":778021,"Delta":453049139},{"NoteNumber":74,"Velocity":47,"Duration":50847,"SoundDuration":50847,"Delta":453849014},{"NoteNumber":77,"Velocity":56,"Duration":50847,"SoundDuration":50847,"Delta":453849014},{"NoteNumber":74,"Velocity":51,"Duration":101695,"SoundDuration":101695,"Delta":453950709},{"NoteNumber":77,"Velocity":60,"Duration":101695,"SoundDuration":101695,"Delta":453950709},{"NoteNumber":74,"Velocity":47,"Duration":50847,"SoundDuration":50847,"Delta":454255794},{"NoteNumber":77,"Velocity":56,"Duration":50847,"SoundDuration":50847,"Delta":454255794},{"NoteNumber":73,"Velocity":50,"Duration":92024,"SoundDuration":92024,"Delta":454357489},{"NoteNumber":76,"Velocity":60,"Duration":92024,"SoundDuration":92024,"Delta":454357489},{"NoteNumber":74,"Velocity":47,"Duration":57251,"SoundDuration":57251,"Delta":454656042},{"NoteNumber":77,"Velocity":56,"Duration":57251,"SoundDuration":57251,"Delta":454656042},{"NoteNumber":70,"Velocity":51,"Duration":881783,"SoundDuration":881783,"Delta":454770546},{"NoteNumber":74,"Velocity":60,"Duration":881783,"SoundDuration":881783,"Delta":454770546},{"NoteNumber":46,"Velocity":55,"Duration":208333,"SoundDuration":208333,"Delta":454770546},{"NoteNumber":53,"Velocity":42,"Duration":232557,"SoundDuration":232557,"Delta":455187213},{"NoteNumber":70,"Velocity":51,"Duration":712411,"SoundDuration":712411,"Delta":455652329},{"NoteNumber":74,"Velocity":60,"Duration":712411,"SoundDuration":712411,"Delta":455652329},{"NoteNumber":62,"Velocity":42,"Duration":209789,"SoundDuration":209789,"Delta":455652329},{"NoteNumber":58,"Velocity":35,"Duration":209789,"SoundDuration":209789,"Delta":455652329},{"NoteNumber":46,"Velocity":55,"Duration":209789,"SoundDuration":209789,"Delta":456071909},{"NoteNumber":70,"Velocity":47,"Duration":48387,"SoundDuration":48387,"Delta":456386594},{"NoteNumber":74,"Velocity":56,"Duration":48387,"SoundDuration":48387,"Delta":456386594},{"NoteNumber":70,"Velocity":51,"Duration":94339,"SoundDuration":94339,"Delta":456483368},{"NoteNumber":74,"Velocity":60,"Duration":94339,"SoundDuration":94339,"Delta":456483368},{"NoteNumber":53,"Velocity":42,"Duration":188678,"SoundDuration":188678,"Delta":456483368},{"NoteNumber":70,"Velocity":47,"Duration":47169,"SoundDuration":47169,"Delta":456766387},{"NoteNumber":74,"Velocity":56,"Duration":47169,"SoundDuration":47169,"Delta":456766387},{"NoteNumber":69,"Velocity":50,"Duration":92024,"SoundDuration":92024,"Delta":456860726},{"NoteNumber":73,"Velocity":60,"Duration":92024,"SoundDuration":92024,"Delta":456860726},{"NoteNumber":58,"Velocity":35,"Duration":184049,"SoundDuration":184049,"Delta":456860726},{"NoteNumber":62,"Velocity":42,"Duration":184049,"SoundDuration":184049,"Delta":456860726},{"NoteNumber":70,"Velocity":47,"Duration":55350,"SoundDuration":55350,"Delta":457155476},{"NoteNumber":74,"Velocity":56,"Duration":55350,"SoundDuration":55350,"Delta":457155476},{"NoteNumber":74,"Velocity":51,"Duration":869156,"SoundDuration":869156,"Delta":457266177},{"NoteNumber":77,"Velocity":60,"Duration":869156,"SoundDuration":869156,"Delta":457266177},{"NoteNumber":45,"Velocity":55,"Duration":202020,"SoundDuration":202020,"Delta":457266177},{"NoteNumber":53,"Velocity":42,"Duration":232557,"SoundDuration":232557,"Delta":457670217},{"NoteNumber":72,"Velocity":51,"Duration":712411,"SoundDuration":712411,"Delta":458135333},{"NoteNumber":75,"Velocity":60,"Duration":712411,"SoundDuration":712411,"Delta":458135333},{"NoteNumber":63,"Velocity":42,"Duration":209789,"SoundDuration":209789,"Delta":458135333},{"NoteNumber":60,"Velocity":35,"Duration":209789,"SoundDuration":209789,"Delta":458135333},{"NoteNumber":45,"Velocity":55,"Duration":209789,"SoundDuration":209789,"Delta":458554913},{"NoteNumber":77,"Velocity":47,"Duration":48387,"SoundDuration":48387,"Delta":458869598},{"NoteNumber":75,"Velocity":56,"Duration":48387,"SoundDuration":48387,"Delta":458869598},{"NoteNumber":72,"Velocity":47,"Duration":48387,"SoundDuration":48387,"Delta":458869598},{"NoteNumber":77,"Velocity":51,"Duration":94339,"SoundDuration":94339,"Delta":458966372},{"NoteNumber":75,"Velocity":60,"Duration":94339,"SoundDuration":94339,"Delta":458966372},{"NoteNumber":72,"Velocity":51,"Duration":94339,"SoundDuration":94339,"Delta":458966372},{"NoteNumber":53,"Velocity":42,"Duration":188678,"SoundDuration":188678,"Delta":458966372},{"NoteNumber":72,"Velocity":47,"Duration":47169,"SoundDuration":47169,"Delta":459249391},{"NoteNumber":77,"Velocity":47,"Duration":47169,"SoundDuration":47169,"Delta":459249391},{"NoteNumber":75,"Velocity":56,"Duration":47169,"SoundDuration":47169,"Delta":459249391},{"NoteNumber":77,"Velocity":50,"Duration":92024,"SoundDuration":92024,"Delta":459343730},{"NoteNumber":71,"Velocity":50,"Duration":92024,"SoundDuration":92024,"Delta":459343730},{"NoteNumber":74,"Velocity":60,"Duration":92024,"SoundDuration":92024,"Delta":459343730},{"NoteNumber":60,"Velocity":35,"Duration":184049,"SoundDuration":184049,"Delta":459343730},{"NoteNumber":63,"Velocity":42,"Duration":184049,"SoundDuration":184049,"Delta":459343730},{"NoteNumber":72,"Velocity":47,"Duration":55350,"SoundDuration":55350,"Delta":459638480},{"NoteNumber":75,"Velocity":56,"Duration":55350,"SoundDuration":55350,"Delta":459638480},{"NoteNumber":77,"Velocity":56,"Duration":55350,"SoundDuration":55350,"Delta":459638480},{"NoteNumber":72,"Velocity":51,"Duration":835358,"SoundDuration":835358,"Delta":459749181},{"NoteNumber":77,"Velocity":60,"Duration":835358,"SoundDuration":835358,"Delta":459749181},{"NoteNumber":69,"Velocity":51,"Duration":835358,"SoundDuration":835358,"Delta":459749181},{"NoteNumber":41,"Velocity":55,"Duration":202020,"SoundDuration":202020,"Delta":459749181},{"NoteNumber":53,"Velocity":42,"Duration":219780,"SoundDuration":219780,"Delta":460153221},{"NoteNumber":77,"Velocity":60,"Duration":712411,"SoundDuration":712411,"Delta":460592781},{"NoteNumber":69,"Velocity":51,"Duration":712411,"SoundDuration":712411,"Delta":460592781},{"NoteNumber":72,"Velocity":51,"Duration":712411,"SoundDuration":712411,"Delta":460592781},{"NoteNumber":63,"Velocity":42,"Duration":209789,"SoundDuration":209789,"Delta":460592781},{"NoteNumber":60,"Velocity":35,"Duration":209789,"SoundDuration":209789,"Delta":460592781},{"NoteNumber":41,"Velocity":55,"Duration":209789,"SoundDuration":209789,"Delta":461012361},{"NoteNumber":77,"Velocity":47,"Duration":48387,"SoundDuration":48387,"Delta":461327046},{"NoteNumber":72,"Velocity":56,"Duration":48387,"SoundDuration":48387,"Delta":461327046},{"NoteNumber":69,"Velocity":47,"Duration":48387,"SoundDuration":48387,"Delta":461327046},{"NoteNumber":77,"Velocity":51,"Duration":94339,"SoundDuration":94339,"Delta":461423821},{"NoteNumber":72,"Velocity":60,"Duration":94339,"SoundDuration":94339,"Delta":461423821},{"NoteNumber":69,"Velocity":51,"Duration":94339,"SoundDuration":94339,"Delta":461423821},{"NoteNumber":53,"Velocity":42,"Duration":188678,"SoundDuration":188678,"Delta":461423821},{"NoteNumber":72,"Velocity":56,"Duration":47169,"SoundDuration":47169,"Delta":461706839},{"NoteNumber":69,"Velocity":47,"Duration":47169,"SoundDuration":47169,"Delta":461706839},{"NoteNumber":77,"Velocity":47,"Duration":47169,"SoundDuration":47169,"Delta":461706839},{"NoteNumber":68,"Velocity":50,"Duration":92024,"SoundDuration":92024,"Delta":461801179},{"NoteNumber":71,"Velocity":60,"Duration":92024,"SoundDuration":92024,"Delta":461801179},{"NoteNumber":77,"Velocity":50,"Duration":92024,"SoundDuration":92024,"Delta":461801179},{"NoteNumber":60,"Velocity":35,"Duration":184049,"SoundDuration":184049,"Delta":461801179},{"NoteNumber":63,"Velocity":42,"Duration":184049,"SoundDuration":184049,"Delta":461801179},{"NoteNumber":72,"Velocity":56,"Duration":63829,"SoundDuration":63829,"Delta":462112887},{"NoteNumber":77,"Velocity":56,"Duration":63829,"SoundDuration":63829,"Delta":462112887},{"NoteNumber":69,"Velocity":47,"Duration":63829,"SoundDuration":63829,"Delta":462112887},{"NoteNumber":69,"Velocity":45,"Duration":905833,"SoundDuration":905833,"Delta":462240547},{"NoteNumber":77,"Velocity":54,"Duration":905833,"SoundDuration":905833,"Delta":462240547},{"NoteNumber":73,"Velocity":45,"Duration":904864,"SoundDuration":904864,"Delta":462240547},{"NoteNumber":46,"Velocity":49,"Duration":224718,"SoundDuration":224718,"Delta":462240547},{"NoteNumber":53,"Velocity":37,"Duration":232557,"SoundDuration":232557,"Delta":462689985},{"NoteNumber":70,"Velocity":45,"Duration":712411,"SoundDuration":712411,"Delta":463155101},{"NoteNumber":77,"Velocity":54,"Duration":712411,"SoundDuration":712411,"Delta":463155101},{"NoteNumber":74,"Velocity":45,"Duration":712411,"SoundDuration":712411,"Delta":463155101},{"NoteNumber":62,"Velocity":37,"Duration":209789,"SoundDuration":209789,"Delta":463155101},{"NoteNumber":58,"Velocity":31,"Duration":209789,"SoundDuration":209789,"Delta":463155101},{"NoteNumber":46,"Velocity":55,"Duration":209789,"SoundDuration":209789,"Delta":463574681},{"NoteNumber":74,"Velocity":47,"Duration":48387,"SoundDuration":48387,"Delta":463889366},{"NoteNumber":70,"Velocity":47,"Duration":48387,"SoundDuration":48387,"Delta":463889366},{"NoteNumber":77,"Velocity":56,"Duration":48387,"SoundDuration":48387,"Delta":463889366},{"NoteNumber":70,"Velocity":51,"Duration":94339,"SoundDuration":94339,"Delta":463986140},{"NoteNumber":74,"Velocity":51,"Duration":94339,"SoundDuration":94339,"Delta":463986140},{"NoteNumber":77,"Velocity":60,"Duration":94339,"SoundDuration":94339,"Delta":463986140},{"NoteNumber":53,"Velocity":37,"Duration":188678,"SoundDuration":188678,"Delta":463986140},{"NoteNumber":74,"Velocity":48,"Duration":47169,"SoundDuration":47169,"Delta":464269158},{"NoteNumber":77,"Velocity":57,"Duration":47169,"SoundDuration":47169,"Delta":464269158},{"NoteNumber":70,"Velocity":48,"Duration":47169,"SoundDuration":47169,"Delta":464269158},{"NoteNumber":74,"Velocity":52,"Duration":92024,"SoundDuration":92024,"Delta":464363498},{"NoteNumber":76,"Velocity":63,"Duration":92024,"SoundDuration":92024,"Delta":464363498},{"NoteNumber":70,"Velocity":52,"Duration":92024,"SoundDuration":92024,"Delta":464363498},{"NoteNumber":62,"Velocity":38,"Duration":184049,"SoundDuration":184049,"Delta":464363498},{"NoteNumber":58,"Velocity":32,"Duration":184049,"SoundDuration":184049,"Delta":464363498},{"NoteNumber":77,"Velocity":60,"Duration":55350,"SoundDuration":55350,"Delta":464658248},{"NoteNumber":70,"Velocity":50,"Duration":55350,"SoundDuration":55350,"Delta":464658248},{"NoteNumber":74,"Velocity":50,"Duration":55350,"SoundDuration":55350,"Delta":464658248},{"NoteNumber":70,"Velocity":56,"Duration":860435,"SoundDuration":860435,"Delta":464768949},{"NoteNumber":79,"Velocity":66,"Duration":860435,"SoundDuration":860435,"Delta":464768949},{"NoteNumber":74,"Velocity":56,"Duration":860435,"SoundDuration":860435,"Delta":464768949},{"NoteNumber":43,"Velocity":60,"Duration":202020,"SoundDuration":202020,"Delta":464768949},{"NoteNumber":55,"Velocity":46,"Duration":232557,"SoundDuration":232557,"Delta":465172989},{"NoteNumber":79,"Velocity":66,"Duration":706395,"SoundDuration":706395,"Delta":465638105},{"NoteNumber":70,"Velocity":56,"Duration":706395,"SoundDuration":706395,"Delta":465638105},{"NoteNumber":74,"Velocity":56,"Duration":706395,"SoundDuration":706395,"Delta":465638105},{"NoteNumber":62,"Velocity":46,"Duration":209789,"SoundDuration":209789,"Delta":465638105},{"NoteNumber":58,"Velocity":38,"Duration":209789,"SoundDuration":209789,"Delta":465638105},{"NoteNumber":43,"Velocity":55,"Duration":205479,"SoundDuration":205479,"Delta":466057685},{"NoteNumber":70,"Velocity":51,"Duration":48387,"SoundDuration":48387,"Delta":466365904},{"NoteNumber":79,"Velocity":61,"Duration":48387,"SoundDuration":48387,"Delta":466365904},{"NoteNumber":74,"Velocity":51,"Duration":48387,"SoundDuration":48387,"Delta":466365904},{"NoteNumber":70,"Velocity":56,"Duration":94339,"SoundDuration":94339,"Delta":466462678},{"NoteNumber":79,"Velocity":66,"Duration":94339,"SoundDuration":94339,"Delta":466462678},{"NoteNumber":74,"Velocity":56,"Duration":94339,"SoundDuration":94339,"Delta":466462678},{"NoteNumber":55,"Velocity":46,"Duration":188678,"SoundDuration":188678,"Delta":466462678},{"NoteNumber":70,"Velocity":50,"Duration":47169,"SoundDuration":47169,"Delta":466745697},{"NoteNumber":82,"Velocity":60,"Duration":47169,"SoundDuration":47169,"Delta":466745697},{"NoteNumber":74,"Velocity":50,"Duration":47169,"SoundDuration":47169,"Delta":466745697},{"NoteNumber":70,"Velocity":54,"Duration":92024,"SoundDuration":92024,"Delta":466840036},{"NoteNumber":81,"Velocity":64,"Duration":92024,"SoundDuration":92024,"Delta":466840036},{"NoteNumber":74,"Velocity":54,"Duration":92024,"SoundDuration":92024,"Delta":466840036},{"NoteNumber":58,"Velocity":37,"Duration":184049,"SoundDuration":184049,"Delta":466840036},{"NoteNumber":62,"Velocity":45,"Duration":184049,"SoundDuration":184049,"Delta":466840036},{"NoteNumber":74,"Velocity":49,"Duration":55350,"SoundDuration":55350,"Delta":467134786},{"NoteNumber":79,"Velocity":59,"Duration":55350,"SoundDuration":55350,"Delta":467134786},{"NoteNumber":70,"Velocity":49,"Duration":55350,"SoundDuration":55350,"Delta":467134786},{"NoteNumber":70,"Velocity":51,"Duration":860435,"SoundDuration":860435,"Delta":467245487},{"NoteNumber":77,"Velocity":60,"Duration":860435,"SoundDuration":860435,"Delta":467245487},{"NoteNumber":74,"Velocity":51,"Duration":860435,"SoundDuration":860435,"Delta":467245487},{"NoteNumber":46,"Velocity":55,"Duration":202020,"SoundDuration":202020,"Delta":467245487},{"NoteNumber":53,"Velocity":42,"Duration":232557,"SoundDuration":232557,"Delta":467649527},{"NoteNumber":70,"Velocity":60,"Duration":712411,"SoundDuration":712411,"Delta":468114643},{"NoteNumber":74,"Velocity":51,"Duration":712411,"SoundDuration":712411,"Delta":468114643},{"NoteNumber":77,"Velocity":60,"Duration":712411,"SoundDuration":712411,"Delta":468114643},{"NoteNumber":62,"Velocity":42,"Duration":209789,"SoundDuration":209789,"Delta":468114643},{"NoteNumber":58,"Velocity":35,"Duration":209789,"SoundDuration":209789,"Delta":468114643},{"NoteNumber":46,"Velocity":55,"Duration":209789,"SoundDuration":209789,"Delta":468534223},{"NoteNumber":77,"Velocity":47,"Duration":48387,"SoundDuration":48387,"Delta":468848908},{"NoteNumber":70,"Velocity":47,"Duration":48387,"SoundDuration":48387,"Delta":468848908},{"NoteNumber":74,"Velocity":56,"Duration":48387,"SoundDuration":48387,"Delta":468848908},{"NoteNumber":70,"Velocity":51,"Duration":94339,"SoundDuration":94339,"Delta":468945683},{"NoteNumber":74,"Velocity":60,"Duration":94339,"SoundDuration":94339,"Delta":468945683},{"NoteNumber":77,"Velocity":51,"Duration":94339,"SoundDuration":94339,"Delta":468945683},{"NoteNumber":53,"Velocity":42,"Duration":188678,"SoundDuration":188678,"Delta":468945683},{"NoteNumber":70,"Velocity":47,"Duration":47169,"SoundDuration":47169,"Delta":469228701},{"NoteNumber":74,"Velocity":56,"Duration":47169,"SoundDuration":47169,"Delta":469228701},{"NoteNumber":77,"Velocity":47,"Duration":47169,"SoundDuration":47169,"Delta":469228701},{"NoteNumber":70,"Velocity":50,"Duration":92024,"SoundDuration":92024,"Delta":469323041},{"NoteNumber":75,"Velocity":60,"Duration":92024,"SoundDuration":92024,"Delta":469323041},{"NoteNumber":79,"Velocity":50,"Duration":92024,"SoundDuration":92024,"Delta":469323041},{"NoteNumber":62,"Velocity":42,"Duration":184049,"SoundDuration":184049,"Delta":469323041},{"NoteNumber":58,"Velocity":35,"Duration":184049,"SoundDuration":184049,"Delta":469323041},{"NoteNumber":77,"Velocity":56,"Duration":55350,"SoundDuration":55350,"Delta":469617791},{"NoteNumber":70,"Velocity":47,"Duration":55350,"SoundDuration":55350,"Delta":469617791},{"NoteNumber":74,"Velocity":56,"Duration":55350,"SoundDuration":55350,"Delta":469617791},{"NoteNumber":69,"Velocity":51,"Duration":869156,"SoundDuration":869156,"Delta":469728492},{"NoteNumber":72,"Velocity":51,"Duration":869156,"SoundDuration":869156,"Delta":469728492},{"NoteNumber":77,"Velocity":60,"Duration":869156,"SoundDuration":869156,"Delta":469728492},{"NoteNumber":41,"Velocity":55,"Duration":202020,"SoundDuration":202020,"Delta":469728492},{"NoteNumber":53,"Velocity":42,"Duration":232557,"SoundDuration":232557,"Delta":470132532},{"NoteNumber":72,"Velocity":48,"Duration":712411,"SoundDuration":712411,"Delta":470597648},{"NoteNumber":75,"Velocity":57,"Duration":712411,"SoundDuration":712411,"Delta":470597648},{"NoteNumber":69,"Velocity":48,"Duration":712411,"SoundDuration":712411,"Delta":470597648},{"NoteNumber":60,"Velocity":33,"Duration":209789,"SoundDuration":209789,"Delta":470597648},{"NoteNumber":63,"Velocity":39,"Duration":209789,"SoundDuration":209789,"Delta":470597648},{"NoteNumber":41,"Velocity":52,"Duration":209789,"SoundDuration":209789,"Delta":471017228},{"NoteNumber":65,"Velocity":44,"Duration":49668,"SoundDuration":49668,"Delta":471331913},{"NoteNumber":72,"Velocity":53,"Duration":49668,"SoundDuration":49668,"Delta":471331913},{"NoteNumber":75,"Velocity":44,"Duration":49668,"SoundDuration":49668,"Delta":471331913},{"NoteNumber":65,"Velocity":48,"Duration":96463,"SoundDuration":96463,"Delta":471431250},{"NoteNumber":72,"Velocity":57,"Duration":96463,"SoundDuration":96463,"Delta":471431250},{"NoteNumber":75,"Velocity":48,"Duration":96463,"SoundDuration":96463,"Delta":471431250},{"NoteNumber":53,"Velocity":39,"Duration":192925,"SoundDuration":192925,"Delta":471431250},{"NoteNumber":75,"Velocity":44,"Duration":48231,"SoundDuration":48231,"Delta":471720639},{"NoteNumber":72,"Velocity":53,"Duration":48231,"SoundDuration":48231,"Delta":471720639},{"NoteNumber":65,"Velocity":44,"Duration":48231,"SoundDuration":48231,"Delta":471720639},{"NoteNumber":74,"Velocity":47,"Duration":94339,"SoundDuration":94339,"Delta":471817102},{"NoteNumber":71,"Velocity":57,"Duration":94339,"SoundDuration":94339,"Delta":471817102},{"NoteNumber":65,"Velocity":47,"Duration":94339,"SoundDuration":94339,"Delta":471817102},{"NoteNumber":63,"Velocity":39,"Duration":188678,"SoundDuration":188678,"Delta":471817102},{"NoteNumber":60,"Velocity":33,"Duration":188678,"SoundDuration":188678,"Delta":471817102},{"NoteNumber":72,"Velocity":53,"Duration":63829,"SoundDuration":63829,"Delta":472133441},{"NoteNumber":65,"Velocity":44,"Duration":63829,"SoundDuration":63829,"Delta":472133441},{"NoteNumber":69,"Velocity":53,"Duration":63829,"SoundDuration":63829,"Delta":472133441},{"NoteNumber":62,"Velocity":40,"Duration":914554,"SoundDuration":914554,"Delta":472261100},{"NoteNumber":65,"Velocity":40,"Duration":914554,"SoundDuration":914554,"Delta":472261100},{"NoteNumber":70,"Velocity":48,"Duration":914554,"SoundDuration":914554,"Delta":472261100},{"NoteNumber":46,"Velocity":44,"Duration":224718,"SoundDuration":224718,"Delta":472261100},{"NoteNumber":50,"Velocity":33,"Duration":232557,"SoundDuration":232557,"Delta":472710538},{"NoteNumber":62,"Velocity":40,"Duration":712411,"SoundDuration":712411,"Delta":473175654},{"NoteNumber":65,"Velocity":40,"Duration":712411,"SoundDuration":712411,"Delta":473175654},{"NoteNumber":70,"Velocity":48,"Duration":712411,"SoundDuration":712411,"Delta":473175654},{"NoteNumber":58,"Velocity":33,"Duration":209789,"SoundDuration":209789,"Delta":473175654},{"NoteNumber":53,"Velocity":27,"Duration":209789,"SoundDuration":209789,"Delta":473175654},{"NoteNumber":41,"Velocity":49,"Duration":209789,"SoundDuration":209789,"Delta":473595234},{"NoteNumber":75,"Velocity":39,"Duration":50335,"SoundDuration":50335,"Delta":473909919},{"NoteNumber":65,"Velocity":39,"Duration":50335,"SoundDuration":50335,"Delta":473909919},{"NoteNumber":72,"Velocity":47,"Duration":50335,"SoundDuration":50335,"Delta":473909919},{"NoteNumber":75,"Velocity":43,"Duration":98039,"SoundDuration":98039,"Delta":474010591},{"NoteNumber":65,"Velocity":43,"Duration":98039,"SoundDuration":98039,"Delta":474010591},{"NoteNumber":72,"Velocity":51,"Duration":98039,"SoundDuration":98039,"Delta":474010591},{"NoteNumber":51,"Velocity":35,"Duration":196078,"SoundDuration":196078,"Delta":474010591},{"NoteNumber":75,"Velocity":39,"Duration":49019,"SoundDuration":49019,"Delta":474304708},{"NoteNumber":65,"Velocity":39,"Duration":49019,"SoundDuration":49019,"Delta":474304708},{"NoteNumber":72,"Velocity":47,"Duration":49019,"SoundDuration":49019,"Delta":474304708},{"NoteNumber":74,"Velocity":42,"Duration":96153,"SoundDuration":96153,"Delta":474402748},{"NoteNumber":65,"Velocity":42,"Duration":96153,"SoundDuration":96153,"Delta":474402748},{"NoteNumber":70,"Velocity":51,"Duration":96153,"SoundDuration":96153,"Delta":474402748},{"NoteNumber":57,"Velocity":35,"Duration":192307,"SoundDuration":192307,"Delta":474402748},{"NoteNumber":53,"Velocity":29,"Duration":192307,"SoundDuration":192307,"Delta":474402748},{"NoteNumber":72,"Velocity":47,"Duration":63829,"SoundDuration":63829,"Delta":474722715},{"NoteNumber":65,"Velocity":39,"Duration":63829,"SoundDuration":63829,"Delta":474722715},{"NoteNumber":69,"Velocity":47,"Duration":63829,"SoundDuration":63829,"Delta":474722715},{"NoteNumber":62,"Velocity":38,"Duration":914554,"SoundDuration":914554,"Delta":474850374},{"NoteNumber":65,"Velocity":38,"Duration":914554,"SoundDuration":914554,"Delta":474850374},{"NoteNumber":70,"Velocity":45,"Duration":914554,"SoundDuration":914554,"Delta":474850374},{"NoteNumber":46,"Velocity":41,"Duration":224718,"SoundDuration":224718,"Delta":474850374},{"NoteNumber":50,"Velocity":31,"Duration":232557,"SoundDuration":232557,"Delta":475299812},{"NoteNumber":62,"Velocity":38,"Duration":712411,"SoundDuration":712411,"Delta":475764928},{"NoteNumber":65,"Velocity":38,"Duration":712411,"SoundDuration":712411,"Delta":475764928},{"NoteNumber":70,"Velocity":45,"Duration":712411,"SoundDuration":712411,"Delta":475764928},{"NoteNumber":58,"Velocity":31,"Duration":209789,"SoundDuration":209789,"Delta":475764928},{"NoteNumber":53,"Velocity":25,"Duration":209789,"SoundDuration":209789,"Delta":475764928},{"NoteNumber":41,"Velocity":46,"Duration":209789,"SoundDuration":209789,"Delta":476184508},{"NoteNumber":75,"Velocity":35,"Duration":51903,"SoundDuration":51903,"Delta":476499193},{"NoteNumber":65,"Velocity":35,"Duration":51903,"SoundDuration":51903,"Delta":476499193},{"NoteNumber":72,"Velocity":42,"Duration":51903,"SoundDuration":51903,"Delta":476499193},{"NoteNumber":75,"Velocity":38,"Duration":100671,"SoundDuration":100671,"Delta":476602999},{"NoteNumber":65,"Velocity":38,"Duration":100671,"SoundDuration":100671,"Delta":476602999},{"NoteNumber":72,"Velocity":45,"Duration":100671,"SoundDuration":100671,"Delta":476602999},{"NoteNumber":51,"Velocity":31,"Duration":201342,"SoundDuration":201342,"Delta":476602999},{"NoteNumber":75,"Velocity":34,"Duration":50335,"SoundDuration":50335,"Delta":476905013},{"NoteNumber":65,"Velocity":34,"Duration":50335,"SoundDuration":50335,"Delta":476905013},{"NoteNumber":72,"Velocity":41,"Duration":50335,"SoundDuration":50335,"Delta":476905013},{"NoteNumber":74,"Velocity":36,"Duration":98360,"SoundDuration":98360,"Delta":477005684},{"NoteNumber":65,"Velocity":36,"Duration":98360,"SoundDuration":98360,"Delta":477005684},{"NoteNumber":70,"Velocity":44,"Duration":98360,"SoundDuration":98360,"Delta":477005684},{"NoteNumber":57,"Velocity":30,"Duration":196721,"SoundDuration":196721,"Delta":477005684},{"NoteNumber":53,"Velocity":25,"Duration":196721,"SoundDuration":196721,"Delta":477005684},{"NoteNumber":72,"Velocity":39,"Duration":63829,"SoundDuration":63829,"Delta":477330065},{"NoteNumber":65,"Velocity":33,"Duration":63829,"SoundDuration":63829,"Delta":477330065},{"NoteNumber":69,"Velocity":39,"Duration":63829,"SoundDuration":63829,"Delta":477330065},{"NoteNumber":62,"Velocity":31,"Duration":327715,"SoundDuration":327715,"Delta":477457725},{"NoteNumber":65,"Velocity":31,"Duration":327715,"SoundDuration":327715,"Delta":477457725},{"NoteNumber":70,"Velocity":37,"Duration":327715,"SoundDuration":327715,"Delta":477457725},{"NoteNumber":46,"Velocity":34,"Duration":327715,"SoundDuration":327715,"Delta":477457725},{"NoteNumber":46,"Velocity":70,"Duration":48387,"SoundDuration":48387,"Delta":477794803},{"NoteNumber":34,"Velocity":60,"Duration":48387,"SoundDuration":48387,"Delta":477794803},{"NoteNumber":46,"Velocity":76,"Duration":96774,"SoundDuration":96774,"Delta":477891578},{"NoteNumber":34,"Velocity":64,"Duration":96774,"SoundDuration":96774,"Delta":477891578},{"NoteNumber":46,"Velocity":70,"Duration":46296,"SoundDuration":46296,"Delta":478177719},{"NoteNumber":34,"Velocity":59,"Duration":46296,"SoundDuration":46296,"Delta":478177719},{"NoteNumber":46,"Velocity":75,"Duration":90634,"SoundDuration":90634,"Delta":478270311},{"NoteNumber":34,"Velocity":64,"Duration":90634,"SoundDuration":90634,"Delta":478270311},{"NoteNumber":48,"Velocity":70,"Duration":46729,"SoundDuration":46729,"Delta":478545038},{"NoteNumber":36,"Velocity":60,"Duration":46729,"SoundDuration":46729,"Delta":478545038},{"NoteNumber":50,"Velocity":75,"Duration":286885,"SoundDuration":286885,"Delta":478638496},{"NoteNumber":38,"Velocity":67,"Duration":286885,"SoundDuration":286885,"Delta":478638496},{"NoteNumber":50,"Velocity":59,"Duration":48387,"SoundDuration":48387,"Delta":478933578},{"NoteNumber":62,"Velocity":70,"Duration":48387,"SoundDuration":48387,"Delta":478933578},{"NoteNumber":38,"Velocity":60,"Duration":48387,"SoundDuration":48387,"Delta":478933578},{"NoteNumber":50,"Velocity":64,"Duration":96774,"SoundDuration":96774,"Delta":479030353},{"NoteNumber":62,"Velocity":76,"Duration":96774,"SoundDuration":96774,"Delta":479030353},{"NoteNumber":38,"Velocity":64,"Duration":96774,"SoundDuration":96774,"Delta":479030353},{"NoteNumber":50,"Velocity":59,"Duration":46153,"SoundDuration":46153,"Delta":479316209},{"NoteNumber":62,"Velocity":70,"Duration":46153,"SoundDuration":46153,"Delta":479316209},{"NoteNumber":38,"Velocity":59,"Duration":46153,"SoundDuration":46153,"Delta":479316209},{"NoteNumber":50,"Velocity":63,"Duration":90909,"SoundDuration":90909,"Delta":479408517},{"NoteNumber":62,"Velocity":75,"Duration":90909,"SoundDuration":90909,"Delta":479408517},{"NoteNumber":38,"Velocity":64,"Duration":90909,"SoundDuration":90909,"Delta":479408517},{"NoteNumber":52,"Velocity":59,"Duration":47169,"SoundDuration":47169,"Delta":479684674},{"NoteNumber":64,"Velocity":70,"Duration":47169,"SoundDuration":47169,"Delta":479684674},{"NoteNumber":40,"Velocity":60,"Duration":47169,"SoundDuration":47169,"Delta":479684674},{"NoteNumber":65,"Velocity":82,"Duration":286885,"SoundDuration":286885,"Delta":479779014},{"NoteNumber":53,"Velocity":69,"Duration":295082,"SoundDuration":295082,"Delta":479779014},{"NoteNumber":41,"Velocity":73,"Duration":286885,"SoundDuration":286885,"Delta":479779014},{"NoteNumber":53,"Velocity":77,"Duration":48387,"SoundDuration":48387,"Delta":480074096},{"NoteNumber":41,"Velocity":66,"Duration":48387,"SoundDuration":48387,"Delta":480074096},{"NoteNumber":53,"Velocity":83,"Duration":96774,"SoundDuration":96774,"Delta":480170870},{"NoteNumber":41,"Velocity":70,"Duration":96774,"SoundDuration":96774,"Delta":480170870},{"NoteNumber":53,"Velocity":77,"Duration":46439,"SoundDuration":46439,"Delta":480457298},{"NoteNumber":41,"Velocity":64,"Duration":46439,"SoundDuration":46439,"Delta":480457298},{"NoteNumber":53,"Velocity":82,"Duration":90909,"SoundDuration":90909,"Delta":480550177},{"NoteNumber":41,"Velocity":70,"Duration":90909,"SoundDuration":90909,"Delta":480550177},{"NoteNumber":55,"Velocity":77,"Duration":47169,"SoundDuration":47169,"Delta":480826335},{"NoteNumber":43,"Velocity":66,"Duration":47169,"SoundDuration":47169,"Delta":480826335},{"NoteNumber":57,"Velocity":90,"Duration":286885,"SoundDuration":286885,"Delta":480920674},{"NoteNumber":45,"Velocity":80,"Duration":286885,"SoundDuration":286885,"Delta":480920674},{"NoteNumber":57,"Velocity":60,"Duration":48387,"SoundDuration":48387,"Delta":481215756},{"NoteNumber":69,"Velocity":71,"Duration":48387,"SoundDuration":48387,"Delta":481215756},{"NoteNumber":33,"Velocity":52,"Duration":48387,"SoundDuration":48387,"Delta":481215756},{"NoteNumber":45,"Velocity":61,"Duration":48387,"SoundDuration":48387,"Delta":481215756},{"NoteNumber":69,"Velocity":78,"Duration":96774,"SoundDuration":96774,"Delta":481312531},{"NoteNumber":57,"Velocity":65,"Duration":96774,"SoundDuration":96774,"Delta":481312531},{"NoteNumber":33,"Velocity":55,"Duration":96774,"SoundDuration":96774,"Delta":481312531},{"NoteNumber":45,"Velocity":65,"Duration":96774,"SoundDuration":96774,"Delta":481312531},{"NoteNumber":59,"Velocity":61,"Duration":46439,"SoundDuration":46439,"Delta":481598958},{"NoteNumber":71,"Velocity":73,"Duration":46439,"SoundDuration":46439,"Delta":481598958},{"NoteNumber":35,"Velocity":52,"Duration":46439,"SoundDuration":46439,"Delta":481598958},{"NoteNumber":47,"Velocity":61,"Duration":46439,"SoundDuration":46439,"Delta":481598958},{"NoteNumber":73,"Velocity":79,"Duration":90909,"SoundDuration":90909,"Delta":481691838},{"NoteNumber":61,"Velocity":66,"Duration":90909,"SoundDuration":90909,"Delta":481691838},{"NoteNumber":37,"Velocity":57,"Duration":90909,"SoundDuration":90909,"Delta":481691838},{"NoteNumber":49,"Velocity":67,"Duration":90909,"SoundDuration":90909,"Delta":481691838},{"NoteNumber":62,"Velocity":64,"Duration":47169,"SoundDuration":47169,"Delta":481967995},{"NoteNumber":74,"Velocity":76,"Duration":47169,"SoundDuration":47169,"Delta":481967995},{"NoteNumber":38,"Velocity":55,"Duration":47169,"SoundDuration":47169,"Delta":481967995},{"NoteNumber":50,"Velocity":65,"Duration":47169,"SoundDuration":47169,"Delta":481967995},{"NoteNumber":64,"Velocity":70,"Duration":755681,"SoundDuration":755681,"Delta":482062335},{"NoteNumber":69,"Velocity":70,"Duration":755681,"SoundDuration":755681,"Delta":482062335},{"NoteNumber":73,"Velocity":70,"Duration":779220,"SoundDuration":779220,"Delta":482062335},{"NoteNumber":76,"Velocity":83,"Duration":755681,"SoundDuration":755681,"Delta":482062335},{"NoteNumber":45,"Velocity":58,"Duration":779220,"SoundDuration":779220,"Delta":482062335},{"NoteNumber":40,"Velocity":58,"Duration":755681,"SoundDuration":755681,"Delta":482062335},{"NoteNumber":49,"Velocity":58,"Duration":755681,"SoundDuration":755681,"Delta":482062335},{"NoteNumber":52,"Velocity":70,"Duration":755681,"SoundDuration":755681,"Delta":482062335},{"NoteNumber":76,"Velocity":83,"Duration":657258,"SoundDuration":657258,"Delta":482841555},{"NoteNumber":73,"Velocity":70,"Duration":657258,"SoundDuration":657258,"Delta":482841555},{"NoteNumber":69,"Velocity":70,"Duration":657258,"SoundDuration":657258,"Delta":482841555},{"NoteNumber":64,"Velocity":70,"Duration":657258,"SoundDuration":657258,"Delta":482841555},{"NoteNumber":45,"Velocity":58,"Duration":657258,"SoundDuration":657258,"Delta":482841555},{"NoteNumber":40,"Velocity":58,"Duration":657258,"SoundDuration":657258,"Delta":482841555},{"NoteNumber":49,"Velocity":58,"Duration":657258,"SoundDuration":657258,"Delta":482841555},{"NoteNumber":52,"Velocity":70,"Duration":657258,"SoundDuration":657258,"Delta":482841555},{"NoteNumber":68,"Velocity":58,"Duration":91935,"SoundDuration":91935,"Delta":483518974},{"NoteNumber":74,"Velocity":58,"Duration":91935,"SoundDuration":91935,"Delta":483518974},{"NoteNumber":76,"Velocity":73,"Duration":91935,"SoundDuration":91935,"Delta":483518974},{"NoteNumber":40,"Velocity":56,"Duration":96774,"SoundDuration":96774,"Delta":483518974},{"NoteNumber":52,"Velocity":66,"Duration":96774,"SoundDuration":96774,"Delta":483518974},{"NoteNumber":68,"Velocity":66,"Duration":272293,"SoundDuration":272293,"Delta":483615749},{"NoteNumber":74,"Velocity":66,"Duration":272293,"SoundDuration":272293,"Delta":483615749},{"NoteNumber":76,"Velocity":82,"Duration":265127,"SoundDuration":265127,"Delta":483615749},{"NoteNumber":40,"Velocity":58,"Duration":264331,"SoundDuration":264331,"Delta":483615749},{"NoteNumber":52,"Velocity":69,"Duration":264331,"SoundDuration":264331,"Delta":483615749},{"NoteNumber":74,"Velocity":63,"Duration":90764,"SoundDuration":90764,"Delta":483902373},{"NoteNumber":76,"Velocity":80,"Duration":90764,"SoundDuration":90764,"Delta":483902373},{"NoteNumber":68,"Velocity":63,"Duration":90764,"SoundDuration":90764,"Delta":483902373},{"NoteNumber":38,"Velocity":55,"Duration":95541,"SoundDuration":95541,"Delta":483902373},{"NoteNumber":50,"Velocity":65,"Duration":95541,"SoundDuration":95541,"Delta":483902373},{"NoteNumber":68,"Velocity":67,"Duration":283726,"SoundDuration":283726,"Delta":483997915},{"NoteNumber":78,"Velocity":85,"Duration":283726,"SoundDuration":283726,"Delta":483997915},{"NoteNumber":74,"Velocity":67,"Duration":283726,"SoundDuration":283726,"Delta":483997915},{"NoteNumber":37,"Velocity":60,"Duration":274292,"SoundDuration":274292,"Delta":483997915},{"NoteNumber":49,"Velocity":72,"Duration":274292,"SoundDuration":274292,"Delta":483997915},{"NoteNumber":68,"Velocity":65,"Duration":113207,"SoundDuration":113207,"Delta":484298622},{"NoteNumber":80,"Velocity":83,"Duration":113207,"SoundDuration":113207,"Delta":484298622},{"NoteNumber":74,"Velocity":65,"Duration":113207,"SoundDuration":113207,"Delta":484298622},{"NoteNumber":35,"Velocity":62,"Duration":113207,"SoundDuration":113207,"Delta":484298622},{"NoteNumber":47,"Velocity":74,"Duration":113207,"SoundDuration":113207,"Delta":484298622},{"NoteNumber":69,"Velocity":78,"Duration":753237,"SoundDuration":753237,"Delta":484411830},{"NoteNumber":73,"Velocity":78,"Duration":753237,"SoundDuration":753237,"Delta":484411830},{"NoteNumber":81,"Velocity":93,"Duration":753237,"SoundDuration":753237,"Delta":484411830},{"NoteNumber":33,"Velocity":65,"Duration":753237,"SoundDuration":753237,"Delta":484411830},{"NoteNumber":45,"Velocity":74,"Duration":753237,"SoundDuration":753237,"Delta":484411830},{"NoteNumber":69,"Velocity":78,"Duration":663431,"SoundDuration":663431,"Delta":485188530},{"NoteNumber":73,"Velocity":78,"Duration":663431,"SoundDuration":663431,"Delta":485188530},{"NoteNumber":81,"Velocity":93,"Duration":663431,"SoundDuration":663431,"Delta":485188530},{"NoteNumber":40,"Velocity":65,"Duration":663431,"SoundDuration":663431,"Delta":485188530},{"NoteNumber":33,"Velocity":65,"Duration":663431,"SoundDuration":663431,"Delta":485188530},{"NoteNumber":45,"Velocity":74,"Duration":663431,"SoundDuration":663431,"Delta":485188530},{"NoteNumber":57,"Velocity":47,"Duration":48387,"SoundDuration":48387,"Delta":485868142},{"NoteNumber":61,"Velocity":56,"Duration":48387,"SoundDuration":48387,"Delta":485868142},{"NoteNumber":55,"Velocity":47,"Duration":48387,"SoundDuration":48387,"Delta":485868142},{"NoteNumber":45,"Velocity":48,"Duration":48387,"SoundDuration":48387,"Delta":485868142},{"NoteNumber":57,"Velocity":51,"Duration":285713,"SoundDuration":285713,"Delta":485964916},{"NoteNumber":62,"Velocity":60,"Duration":285713,"SoundDuration":285713,"Delta":485964916},{"NoteNumber":55,"Velocity":51,"Duration":285713,"SoundDuration":285713,"Delta":485964916},{"NoteNumber":47,"Velocity":51,"Duration":285713,"SoundDuration":285713,"Delta":485964916},{"NoteNumber":57,"Velocity":47,"Duration":47618,"SoundDuration":47618,"Delta":486250630},{"NoteNumber":61,"Velocity":56,"Duration":47618,"SoundDuration":47618,"Delta":486250630},{"NoteNumber":55,"Velocity":47,"Duration":47618,"SoundDuration":47618,"Delta":486250630},{"NoteNumber":45,"Velocity":47,"Duration":47618,"SoundDuration":47618,"Delta":486250630},{"NoteNumber":55,"Velocity":50,"Duration":289428,"SoundDuration":289428,"Delta":486345868},{"NoteNumber":62,"Velocity":60,"Duration":289428,"SoundDuration":289428,"Delta":486345868},{"NoteNumber":57,"Velocity":50,"Duration":289428,"SoundDuration":289428,"Delta":486345868},{"NoteNumber":47,"Velocity":51,"Duration":289428,"SoundDuration":289428,"Delta":486345868},{"NoteNumber":55,"Velocity":47,"Duration":51546,"SoundDuration":51546,"Delta":486635297},{"NoteNumber":64,"Velocity":56,"Duration":51546,"SoundDuration":51546,"Delta":486635297},{"NoteNumber":57,"Velocity":47,"Duration":51546,"SoundDuration":51546,"Delta":486635297},{"NoteNumber":49,"Velocity":48,"Duration":51546,"SoundDuration":51546,"Delta":486635297},{"NoteNumber":54,"Velocity":54,"Duration":760621,"SoundDuration":760621,"Delta":486738389},{"NoteNumber":57,"Velocity":64,"Duration":760621,"SoundDuration":760621,"Delta":486738389},{"NoteNumber":50,"Velocity":54,"Duration":760621,"SoundDuration":760621,"Delta":486738389},{"NoteNumber":66,"Velocity":64,"Duration":657258,"SoundDuration":657258,"Delta":487522703},{"NoteNumber":57,"Velocity":54,"Duration":657258,"SoundDuration":657258,"Delta":487522703},{"NoteNumber":50,"Velocity":45,"Duration":657258,"SoundDuration":657258,"Delta":487522703},{"NoteNumber":54,"Velocity":54,"Duration":657258,"SoundDuration":657258,"Delta":487522703},{"NoteNumber":57,"Velocity":53,"Duration":96774,"SoundDuration":96774,"Delta":488200123},{"NoteNumber":66,"Velocity":53,"Duration":96774,"SoundDuration":96774,"Delta":488200123},{"NoteNumber":50,"Velocity":44,"Duration":88709,"SoundDuration":88709,"Delta":488200123},{"NoteNumber":55,"Velocity":60,"Duration":96153,"SoundDuration":96153,"Delta":488296897},{"NoteNumber":67,"Velocity":60,"Duration":96153,"SoundDuration":96153,"Delta":488296897},{"NoteNumber":50,"Velocity":50,"Duration":96153,"SoundDuration":96153,"Delta":488296897},{"NoteNumber":47,"Velocity":42,"Duration":96153,"SoundDuration":96153,"Delta":488296897},{"NoteNumber":66,"Velocity":56,"Duration":96153,"SoundDuration":96153,"Delta":488585359},{"NoteNumber":55,"Velocity":56,"Duration":96153,"SoundDuration":96153,"Delta":488585359},{"NoteNumber":50,"Velocity":47,"Duration":96153,"SoundDuration":96153,"Delta":488585359},{"NoteNumber":47,"Velocity":40,"Duration":96153,"SoundDuration":96153,"Delta":488585359},{"NoteNumber":46,"Velocity":41,"Duration":94149,"SoundDuration":94149,"Delta":488676705},{"NoteNumber":64,"Velocity":59,"Duration":94043,"SoundDuration":94043,"Delta":488681512},{"NoteNumber":56,"Velocity":59,"Duration":94043,"SoundDuration":94043,"Delta":488681512},{"NoteNumber":50,"Velocity":49,"Duration":94043,"SoundDuration":94043,"Delta":488686215},{"NoteNumber":62,"Velocity":56,"Duration":109091,"SoundDuration":109091,"Delta":488978691},{"NoteNumber":56,"Velocity":56,"Duration":109091,"SoundDuration":109091,"Delta":488978691},{"NoteNumber":46,"Velocity":40,"Duration":109091,"SoundDuration":109091,"Delta":488978691},{"NoteNumber":50,"Velocity":47,"Duration":109091,"SoundDuration":109091,"Delta":488978691},{"NoteNumber":57,"Velocity":54,"Duration":755681,"SoundDuration":755681,"Delta":489087782},{"NoteNumber":69,"Velocity":64,"Duration":755681,"SoundDuration":755681,"Delta":489087782},{"NoteNumber":61,"Velocity":54,"Duration":755681,"SoundDuration":755681,"Delta":489087782},{"NoteNumber":45,"Velocity":45,"Duration":755681,"SoundDuration":755681,"Delta":489087782},{"NoteNumber":52,"Velocity":54,"Duration":755681,"SoundDuration":755681,"Delta":489087782},{"NoteNumber":61,"Velocity":54,"Duration":657258,"SoundDuration":657258,"Delta":489867002},{"NoteNumber":64,"Velocity":64,"Duration":657258,"SoundDuration":657258,"Delta":489867002},{"NoteNumber":45,"Velocity":45,"Duration":657258,"SoundDuration":657258,"Delta":489867002},{"NoteNumber":57,"Velocity":54,"Duration":657258,"SoundDuration":657258,"Delta":489867002},{"NoteNumber":69,"Velocity":53,"Duration":48387,"SoundDuration":48387,"Delta":490544422},{"NoteNumber":64,"Velocity":53,"Duration":96774,"SoundDuration":96774,"Delta":490544422},{"NoteNumber":49,"Velocity":35,"Duration":88709,"SoundDuration":88709,"Delta":490544422},{"NoteNumber":57,"Velocity":44,"Duration":88709,"SoundDuration":88709,"Delta":490544422},{"NoteNumber":73,"Velocity":53,"Duration":48387,"SoundDuration":48387,"Delta":490592809},{"NoteNumber":71,"Velocity":60,"Duration":95541,"SoundDuration":95541,"Delta":490641196},{"NoteNumber":64,"Velocity":60,"Duration":95541,"SoundDuration":95541,"Delta":490641196},{"NoteNumber":57,"Velocity":50,"Duration":95541,"SoundDuration":95541,"Delta":490641196},{"NoteNumber":49,"Velocity":42,"Duration":95541,"SoundDuration":95541,"Delta":490641196},{"NoteNumber":64,"Velocity":56,"Duration":95541,"SoundDuration":95541,"Delta":490927821},{"NoteNumber":69,"Velocity":56,"Duration":95541,"SoundDuration":95541,"Delta":490927821},{"NoteNumber":57,"Velocity":47,"Duration":95541,"SoundDuration":95541,"Delta":490927821},{"NoteNumber":49,"Velocity":40,"Duration":95541,"SoundDuration":95541,"Delta":490927821},{"NoteNumber":64,"Velocity":59,"Duration":94339,"SoundDuration":94339,"Delta":491023362},{"NoteNumber":71,"Velocity":59,"Duration":94339,"SoundDuration":94339,"Delta":491023362},{"NoteNumber":49,"Velocity":41,"Duration":94339,"SoundDuration":94339,"Delta":491023362},{"NoteNumber":57,"Velocity":49,"Duration":94339,"SoundDuration":94339,"Delta":491023362},{"NoteNumber":64,"Velocity":56,"Duration":112359,"SoundDuration":112359,"Delta":491324401},{"NoteNumber":73,"Velocity":56,"Duration":112359,"SoundDuration":112359,"Delta":491324401},{"NoteNumber":49,"Velocity":40,"Duration":112359,"SoundDuration":112359,"Delta":491324401},{"NoteNumber":57,"Velocity":47,"Duration":112359,"SoundDuration":112359,"Delta":491324401},{"NoteNumber":74,"Velocity":64,"Duration":755681,"SoundDuration":755681,"Delta":491436760},{"NoteNumber":62,"Velocity":54,"Duration":755681,"SoundDuration":755681,"Delta":491436760},{"NoteNumber":66,"Velocity":54,"Duration":755681,"SoundDuration":755681,"Delta":491436760},{"NoteNumber":54,"Velocity":45,"Duration":779220,"SoundDuration":779220,"Delta":491436760},{"NoteNumber":47,"Velocity":45,"Duration":755681,"SoundDuration":755681,"Delta":491436760},{"NoteNumber":59,"Velocity":54,"Duration":755681,"SoundDuration":755681,"Delta":491436760},{"NoteNumber":66,"Velocity":64,"Duration":657258,"SoundDuration":657258,"Delta":492215980},{"NoteNumber":62,"Velocity":54,"Duration":657258,"SoundDuration":657258,"Delta":492215980},{"NoteNumber":50,"Velocity":45,"Duration":657258,"SoundDuration":657258,"Delta":492215980},{"NoteNumber":59,"Velocity":54,"Duration":657258,"SoundDuration":657258,"Delta":492215980},{"NoteNumber":62,"Velocity":53,"Duration":96774,"SoundDuration":96774,"Delta":492893400},{"NoteNumber":66,"Velocity":53,"Duration":48387,"SoundDuration":48387,"Delta":492893400},{"NoteNumber":52,"Velocity":35,"Duration":88709,"SoundDuration":88709,"Delta":492893400},{"NoteNumber":59,"Velocity":44,"Duration":88709,"SoundDuration":88709,"Delta":492893400},{"NoteNumber":69,"Velocity":53,"Duration":48387,"SoundDuration":48387,"Delta":492941787},{"NoteNumber":68,"Velocity":60,"Duration":96153,"SoundDuration":96153,"Delta":492990174},{"NoteNumber":62,"Velocity":60,"Duration":96153,"SoundDuration":96153,"Delta":492990174},{"NoteNumber":59,"Velocity":50,"Duration":96153,"SoundDuration":96153,"Delta":492990174},{"NoteNumber":52,"Velocity":42,"Duration":96153,"SoundDuration":96153,"Delta":492990174},{"NoteNumber":62,"Velocity":56,"Duration":96153,"SoundDuration":96153,"Delta":493278636},{"NoteNumber":66,"Velocity":56,"Duration":96153,"SoundDuration":96153,"Delta":493278636},{"NoteNumber":59,"Velocity":47,"Duration":96153,"SoundDuration":96153,"Delta":493278636},{"NoteNumber":52,"Velocity":40,"Duration":96153,"SoundDuration":96153,"Delta":493278636},{"NoteNumber":62,"Velocity":59,"Duration":94043,"SoundDuration":94043,"Delta":493374789},{"NoteNumber":68,"Velocity":59,"Duration":94043,"SoundDuration":94043,"Delta":493374789},{"NoteNumber":52,"Velocity":41,"Duration":94043,"SoundDuration":94043,"Delta":493374789},{"NoteNumber":59,"Velocity":49,"Duration":94043,"SoundDuration":94043,"Delta":493374789},{"NoteNumber":64,"Velocity":56,"Duration":112359,"SoundDuration":112359,"Delta":493675237},{"NoteNumber":62,"Velocity":56,"Duration":112359,"SoundDuration":112359,"Delta":493675237},{"NoteNumber":52,"Velocity":40,"Duration":112359,"SoundDuration":112359,"Delta":493675237},{"NoteNumber":59,"Velocity":47,"Duration":112359,"SoundDuration":112359,"Delta":493675237},{"NoteNumber":71,"Velocity":64,"Duration":778428,"SoundDuration":778428,"Delta":493787596},{"NoteNumber":61,"Velocity":54,"Duration":778428,"SoundDuration":778428,"Delta":493787596},{"NoteNumber":52,"Velocity":45,"Duration":802676,"SoundDuration":802676,"Delta":493787596},{"NoteNumber":45,"Velocity":45,"Duration":778428,"SoundDuration":778428,"Delta":493787596},{"NoteNumber":57,"Velocity":54,"Duration":778428,"SoundDuration":778428,"Delta":493787596},{"NoteNumber":61,"Velocity":54,"Duration":766129,"SoundDuration":766129,"Delta":494590272},{"NoteNumber":69,"Velocity":64,"Duration":766129,"SoundDuration":766129,"Delta":494590272},{"NoteNumber":45,"Velocity":45,"Duration":766129,"SoundDuration":766129,"Delta":494590272},{"NoteNumber":52,"Velocity":45,"Duration":766129,"SoundDuration":766129,"Delta":494590272},{"NoteNumber":57,"Velocity":54,"Duration":766129,"SoundDuration":766129,"Delta":494590272},{"NoteNumber":62,"Velocity":56,"Duration":361904,"SoundDuration":361904,"Delta":495364466},{"NoteNumber":69,"Velocity":67,"Duration":361904,"SoundDuration":361904,"Delta":495364466},{"NoteNumber":66,"Velocity":56,"Duration":361904,"SoundDuration":361904,"Delta":495364466},{"NoteNumber":50,"Velocity":45,"Duration":361904,"SoundDuration":361904,"Delta":495364466},{"NoteNumber":66,"Velocity":53,"Duration":374597,"SoundDuration":374597,"Delta":495745418},{"NoteNumber":70,"Velocity":63,"Duration":374597,"SoundDuration":374597,"Delta":495745418},{"NoteNumber":62,"Velocity":53,"Duration":374597,"SoundDuration":374597,"Delta":495745418},{"NoteNumber":49,"Velocity":37,"Duration":374597,"SoundDuration":374597,"Delta":495745418},{"NoteNumber":71,"Velocity":60,"Duration":724108,"SoundDuration":724108,"Delta":496131270},{"NoteNumber":67,"Velocity":51,"Duration":724108,"SoundDuration":724108,"Delta":496131270},{"NoteNumber":62,"Velocity":51,"Duration":724108,"SoundDuration":724108,"Delta":496131270},{"NoteNumber":47,"Velocity":67,"Duration":117646,"SoundDuration":117646,"Delta":496131270},{"NoteNumber":46,"Velocity":57,"Duration":117647,"SoundDuration":117647,"Delta":496248917},{"NoteNumber":47,"Velocity":57,"Duration":117646,"SoundDuration":117646,"Delta":496366564},{"NoteNumber":43,"Velocity":68,"Duration":118694,"SoundDuration":118694,"Delta":496484211},{"NoteNumber":42,"Velocity":61,"Duration":118694,"SoundDuration":118694,"Delta":496602906},{"NoteNumber":43,"Velocity":65,"Duration":133779,"SoundDuration":133779,"Delta":496721600},{"NoteNumber":67,"Velocity":56,"Duration":354103,"SoundDuration":354103,"Delta":496855379},{"NoteNumber":71,"Velocity":56,"Duration":354103,"SoundDuration":354103,"Delta":496855379},{"NoteNumber":76,"Velocity":67,"Duration":354103,"SoundDuration":354103,"Delta":496855379},{"NoteNumber":40,"Velocity":74,"Duration":638298,"SoundDuration":638298,"Delta":496855379},{"NoteNumber":71,"Velocity":57,"Duration":182371,"SoundDuration":182371,"Delta":497220121},{"NoteNumber":76,"Velocity":57,"Duration":182371,"SoundDuration":182371,"Delta":497220121},{"NoteNumber":79,"Velocity":68,"Duration":182371,"SoundDuration":182371,"Delta":497220121},{"NoteNumber":42,"Velocity":61,"Duration":91185,"SoundDuration":91185,"Delta":497493678},{"NoteNumber":67,"Velocity":53,"Duration":182370,"SoundDuration":182370,"Delta":497584863},{"NoteNumber":71,"Velocity":53,"Duration":182370,"SoundDuration":182370,"Delta":497584863},{"NoteNumber":76,"Velocity":63,"Duration":189969,"SoundDuration":189969,"Delta":497584863},{"NoteNumber":43,"Velocity":69,"Duration":273556,"SoundDuration":273556,"Delta":497584863},{"NoteNumber":45,"Velocity":62,"Duration":91185,"SoundDuration":91185,"Delta":497858420},{"NoteNumber":61,"Velocity":49,"Duration":180723,"SoundDuration":180723,"Delta":497949605},{"NoteNumber":64,"Velocity":49,"Duration":180723,"SoundDuration":180723,"Delta":497949605},{"NoteNumber":67,"Velocity":58,"Duration":180723,"SoundDuration":180723,"Delta":497949605},{"NoteNumber":47,"Velocity":70,"Duration":274297,"SoundDuration":274297,"Delta":497949605},{"NoteNumber":49,"Velocity":62,"Duration":99999,"SoundDuration":99999,"Delta":498223903},{"NoteNumber":61,"Velocity":55,"Duration":725205,"SoundDuration":725205,"Delta":498323903},{"NoteNumber":66,"Velocity":55,"Duration":725205,"SoundDuration":725205,"Delta":498323903},{"NoteNumber":69,"Velocity":65,"Duration":725205,"SoundDuration":725205,"Delta":498323903},{"NoteNumber":45,"Velocity":69,"Duration":117301,"SoundDuration":117301,"Delta":498323903},{"NoteNumber":44,"Velocity":63,"Duration":117301,"SoundDuration":117301,"Delta":498441205},{"NoteNumber":45,"Velocity":59,"Duration":117301,"SoundDuration":117301,"Delta":498558507},{"NoteNumber":42,"Velocity":68,"Duration":119760,"SoundDuration":119760,"Delta":498675809},{"NoteNumber":41,"Velocity":65,"Duration":119760,"SoundDuration":119760,"Delta":498795569},{"NoteNumber":42,"Velocity":69,"Duration":133779,"SoundDuration":133779,"Delta":498915329},{"NoteNumber":66,"Velocity":59,"Duration":354103,"SoundDuration":354103,"Delta":499049109},{"NoteNumber":69,"Velocity":59,"Duration":354103,"SoundDuration":354103,"Delta":499049109},{"NoteNumber":74,"Velocity":70,"Duration":354103,"SoundDuration":354103,"Delta":499049109},{"NoteNumber":38,"Velocity":74,"Duration":638298,"SoundDuration":638298,"Delta":499049109},{"NoteNumber":69,"Velocity":58,"Duration":182371,"SoundDuration":182371,"Delta":499413851},{"NoteNumber":74,"Velocity":58,"Duration":182371,"SoundDuration":182371,"Delta":499413851},{"NoteNumber":78,"Velocity":69,"Duration":182371,"SoundDuration":182371,"Delta":499413851},{"NoteNumber":40,"Velocity":61,"Duration":91185,"SoundDuration":91185,"Delta":499687407},{"NoteNumber":66,"Velocity":51,"Duration":182370,"SoundDuration":182370,"Delta":499778593},{"NoteNumber":69,"Velocity":51,"Duration":182370,"SoundDuration":182370,"Delta":499778593},{"NoteNumber":74,"Velocity":60,"Duration":182370,"SoundDuration":182370,"Delta":499778593},{"NoteNumber":42,"Velocity":69,"Duration":273556,"SoundDuration":273556,"Delta":499778593},{"NoteNumber":43,"Velocity":62,"Duration":91185,"SoundDuration":91185,"Delta":500052149},{"NoteNumber":59,"Velocity":47,"Duration":180723,"SoundDuration":180723,"Delta":500143335},{"NoteNumber":62,"Velocity":47,"Duration":180723,"SoundDuration":180723,"Delta":500143335},{"NoteNumber":66,"Velocity":56,"Duration":180723,"SoundDuration":180723,"Delta":500143335},{"NoteNumber":45,"Velocity":70,"Duration":274297,"SoundDuration":274297,"Delta":500143335},{"NoteNumber":47,"Velocity":62,"Duration":99999,"SoundDuration":99999,"Delta":500417632},{"NoteNumber":59,"Velocity":56,"Duration":727684,"SoundDuration":727684,"Delta":500517632},{"NoteNumber":64,"Velocity":56,"Duration":727684,"SoundDuration":727684,"Delta":500517632},{"NoteNumber":67,"Velocity":67,"Duration":727684,"SoundDuration":727684,"Delta":500517632},{"NoteNumber":43,"Velocity":70,"Duration":117646,"SoundDuration":117646,"Delta":500517632},{"NoteNumber":42,"Velocity":58,"Duration":117647,"SoundDuration":117647,"Delta":500635279},{"NoteNumber":43,"Velocity":58,"Duration":117646,"SoundDuration":117646,"Delta":500752926},{"NoteNumber":40,"Velocity":63,"Duration":120481,"SoundDuration":120481,"Delta":500870573},{"NoteNumber":39,"Velocity":65,"Duration":120482,"SoundDuration":120482,"Delta":500991055},{"NoteNumber":40,"Velocity":68,"Duration":133779,"SoundDuration":133779,"Delta":501111537},{"NoteNumber":64,"Velocity":60,"Duration":354103,"SoundDuration":354103,"Delta":501245316},{"NoteNumber":67,"Velocity":60,"Duration":354103,"SoundDuration":354103,"Delta":501245316},{"NoteNumber":73,"Velocity":71,"Duration":354103,"SoundDuration":354103,"Delta":501245316},{"NoteNumber":37,"Velocity":72,"Duration":638298,"SoundDuration":638298,"Delta":501245316},{"NoteNumber":67,"Velocity":60,"Duration":182371,"SoundDuration":182371,"Delta":501610058},{"NoteNumber":73,"Velocity":71,"Duration":182371,"SoundDuration":182371,"Delta":501610058},{"NoteNumber":76,"Velocity":71,"Duration":182371,"SoundDuration":182371,"Delta":501610058},{"NoteNumber":38,"Velocity":59,"Duration":91185,"SoundDuration":91185,"Delta":501883615},{"NoteNumber":64,"Velocity":55,"Duration":185184,"SoundDuration":185184,"Delta":501974800},{"NoteNumber":67,"Velocity":55,"Duration":185184,"SoundDuration":185184,"Delta":501974800},{"NoteNumber":73,"Velocity":65,"Duration":185184,"SoundDuration":185184,"Delta":501974800},{"NoteNumber":40,"Velocity":73,"Duration":277777,"SoundDuration":277777,"Delta":501974800},{"NoteNumber":37,"Velocity":57,"Duration":92592,"SoundDuration":92592,"Delta":502252578},{"NoteNumber":61,"Velocity":50,"Duration":195439,"SoundDuration":195439,"Delta":502345170},{"NoteNumber":68,"Velocity":59,"Duration":195439,"SoundDuration":195439,"Delta":502345170},{"NoteNumber":71,"Velocity":59,"Duration":195439,"SoundDuration":195439,"Delta":502345170},{"NoteNumber":41,"Velocity":71,"Duration":301402,"SoundDuration":301402,"Delta":502345170},{"NoteNumber":37,"Velocity":58,"Duration":122448,"SoundDuration":122448,"Delta":502646573},{"NoteNumber":66,"Velocity":55,"Duration":797342,"SoundDuration":797342,"Delta":502769022},{"NoteNumber":61,"Velocity":55,"Duration":773255,"SoundDuration":773255,"Delta":502769022},{"NoteNumber":70,"Velocity":65,"Duration":773255,"SoundDuration":773255,"Delta":502769022},{"NoteNumber":42,"Velocity":71,"Duration":773255,"SoundDuration":773255,"Delta":502769022},{"NoteNumber":66,"Velocity":51,"Duration":657258,"SoundDuration":657258,"Delta":503566364},{"NoteNumber":61,"Velocity":51,"Duration":657258,"SoundDuration":657258,"Delta":503566364},{"NoteNumber":70,"Velocity":60,"Duration":657258,"SoundDuration":657258,"Delta":503566364},{"NoteNumber":42,"Velocity":68,"Duration":657258,"SoundDuration":657258,"Delta":503566364},{"NoteNumber":66,"Velocity":60,"Duration":48387,"SoundDuration":48387,"Delta":504243783},{"NoteNumber":73,"Velocity":71,"Duration":48387,"SoundDuration":48387,"Delta":504243783},{"NoteNumber":46,"Velocity":61,"Duration":48387,"SoundDuration":48387,"Delta":504243783},{"NoteNumber":66,"Velocity":65,"Duration":96774,"SoundDuration":96774,"Delta":504340558},{"NoteNumber":75,"Velocity":78,"Duration":96774,"SoundDuration":96774,"Delta":504340558},{"NoteNumber":47,"Velocity":65,"Duration":96774,"SoundDuration":96774,"Delta":504340558},{"NoteNumber":66,"Velocity":61,"Duration":46583,"SoundDuration":46583,"Delta":504627274},{"NoteNumber":73,"Velocity":73,"Duration":46583,"SoundDuration":46583,"Delta":504627274},{"NoteNumber":46,"Velocity":61,"Duration":46583,"SoundDuration":46583,"Delta":504627274},{"NoteNumber":66,"Velocity":66,"Duration":91743,"SoundDuration":91743,"Delta":504720442},{"NoteNumber":75,"Velocity":79,"Duration":91743,"SoundDuration":91743,"Delta":504720442},{"NoteNumber":47,"Velocity":67,"Duration":91743,"SoundDuration":91743,"Delta":504720442},{"NoteNumber":66,"Velocity":64,"Duration":47169,"SoundDuration":47169,"Delta":504998267},{"NoteNumber":73,"Velocity":76,"Duration":47169,"SoundDuration":47169,"Delta":504998267},{"NoteNumber":46,"Velocity":65,"Duration":47169,"SoundDuration":47169,"Delta":504998267},{"NoteNumber":71,"Velocity":70,"Duration":779220,"SoundDuration":779220,"Delta":505092607},{"NoteNumber":65,"Velocity":70,"Duration":755681,"SoundDuration":755681,"Delta":505092607},{"NoteNumber":77,"Velocity":83,"Duration":755681,"SoundDuration":755681,"Delta":505092607},{"NoteNumber":44,"Velocity":58,"Duration":779220,"SoundDuration":779220,"Delta":505092607},{"NoteNumber":49,"Velocity":70,"Duration":755681,"SoundDuration":755681,"Delta":505092607},{"NoteNumber":77,"Velocity":83,"Duration":657258,"SoundDuration":657258,"Delta":505871827},{"NoteNumber":71,"Velocity":70,"Duration":657258,"SoundDuration":657258,"Delta":505871827},{"NoteNumber":65,"Velocity":70,"Duration":657258,"SoundDuration":657258,"Delta":505871827},{"NoteNumber":44,"Velocity":58,"Duration":657258,"SoundDuration":657258,"Delta":505871827},{"NoteNumber":49,"Velocity":70,"Duration":657258,"SoundDuration":657258,"Delta":505871827},{"NoteNumber":73,"Velocity":58,"Duration":91935,"SoundDuration":91935,"Delta":506549246},{"NoteNumber":65,"Velocity":58,"Duration":91935,"SoundDuration":91935,"Delta":506549246},{"NoteNumber":77,"Velocity":73,"Duration":91935,"SoundDuration":91935,"Delta":506549246},{"NoteNumber":44,"Velocity":56,"Duration":96774,"SoundDuration":96774,"Delta":506549246},{"NoteNumber":49,"Velocity":66,"Duration":96774,"SoundDuration":96774,"Delta":506549246},{"NoteNumber":73,"Velocity":66,"Duration":272293,"SoundDuration":272293,"Delta":506646021},{"NoteNumber":65,"Velocity":66,"Duration":272293,"SoundDuration":272293,"Delta":506646021},{"NoteNumber":77,"Velocity":82,"Duration":264331,"SoundDuration":264331,"Delta":506646021},{"NoteNumber":46,"Velocity":58,"Duration":264331,"SoundDuration":264331,"Delta":506646021},{"NoteNumber":49,"Velocity":69,"Duration":264331,"SoundDuration":264331,"Delta":506646021},{"NoteNumber":77,"Velocity":80,"Duration":90764,"SoundDuration":90764,"Delta":506932645},{"NoteNumber":65,"Velocity":63,"Duration":90764,"SoundDuration":90764,"Delta":506932645},{"NoteNumber":73,"Velocity":63,"Duration":90764,"SoundDuration":90764,"Delta":506932645},{"NoteNumber":44,"Velocity":55,"Duration":95541,"SoundDuration":95541,"Delta":506932645},{"NoteNumber":49,"Velocity":65,"Duration":95541,"SoundDuration":95541,"Delta":506932645},{"NoteNumber":77,"Velocity":85,"Duration":283726,"SoundDuration":283726,"Delta":507028187},{"NoteNumber":65,"Velocity":67,"Duration":283726,"SoundDuration":283726,"Delta":507028187},{"NoteNumber":73,"Velocity":67,"Duration":283726,"SoundDuration":283726,"Delta":507028187},{"NoteNumber":46,"Velocity":60,"Duration":274292,"SoundDuration":274292,"Delta":507028187},{"NoteNumber":49,"Velocity":72,"Duration":274292,"SoundDuration":274292,"Delta":507028187},{"NoteNumber":77,"Velocity":83,"Duration":113207,"SoundDuration":113207,"Delta":507328894},{"NoteNumber":65,"Velocity":65,"Duration":113207,"SoundDuration":113207,"Delta":507328894},{"NoteNumber":73,"Velocity":65,"Duration":113207,"SoundDuration":113207,"Delta":507328894},{"NoteNumber":44,"Velocity":62,"Duration":113207,"SoundDuration":113207,"Delta":507328894},{"NoteNumber":49,"Velocity":74,"Duration":113207,"SoundDuration":113207,"Delta":507328894},{"NoteNumber":66,"Velocity":78,"Duration":753237,"SoundDuration":753237,"Delta":507442102},{"NoteNumber":70,"Velocity":78,"Duration":753237,"SoundDuration":753237,"Delta":507442102},{"NoteNumber":78,"Velocity":93,"Duration":753237,"SoundDuration":753237,"Delta":507442102},{"NoteNumber":42,"Velocity":65,"Duration":753237,"SoundDuration":753237,"Delta":507442102},{"NoteNumber":49,"Velocity":74,"Duration":753237,"SoundDuration":753237,"Delta":507442102},{"NoteNumber":66,"Velocity":78,"Duration":663431,"SoundDuration":663431,"Delta":508218802},{"NoteNumber":70,"Velocity":78,"Duration":663431,"SoundDuration":663431,"Delta":508218802},{"NoteNumber":78,"Velocity":93,"Duration":663431,"SoundDuration":663431,"Delta":508218802},{"NoteNumber":42,"Velocity":65,"Duration":663431,"SoundDuration":663431,"Delta":508218802},{"NoteNumber":49,"Velocity":74,"Duration":663431,"SoundDuration":663431,"Delta":508218802},{"NoteNumber":73,"Velocity":56,"Duration":48387,"SoundDuration":48387,"Delta":508898414},{"NoteNumber":67,"Velocity":47,"Duration":48387,"SoundDuration":48387,"Delta":508898414},{"NoteNumber":69,"Velocity":47,"Duration":48387,"SoundDuration":48387,"Delta":508898414},{"NoteNumber":57,"Velocity":48,"Duration":48387,"SoundDuration":48387,"Delta":508898414},{"NoteNumber":73,"Velocity":60,"Duration":276983,"SoundDuration":276983,"Delta":508995188},{"NoteNumber":67,"Velocity":51,"Duration":276983,"SoundDuration":276983,"Delta":508995188},{"NoteNumber":69,"Velocity":51,"Duration":276983,"SoundDuration":276983,"Delta":508995188},{"NoteNumber":57,"Velocity":51,"Duration":276983,"SoundDuration":276983,"Delta":508995188},{"NoteNumber":73,"Velocity":56,"Duration":47618,"SoundDuration":47618,"Delta":509280902},{"NoteNumber":67,"Velocity":47,"Duration":47618,"SoundDuration":47618,"Delta":509280902},{"NoteNumber":69,"Velocity":47,"Duration":47618,"SoundDuration":47618,"Delta":509280902},{"NoteNumber":57,"Velocity":47,"Duration":47618,"SoundDuration":47618,"Delta":509280902},{"NoteNumber":67,"Velocity":50,"Duration":279061,"SoundDuration":279061,"Delta":509365029},{"NoteNumber":69,"Velocity":50,"Duration":279061,"SoundDuration":279061,"Delta":509365029},{"NoteNumber":74,"Velocity":60,"Duration":279061,"SoundDuration":279061,"Delta":509365029},{"NoteNumber":59,"Velocity":51,"Duration":279061,"SoundDuration":279061,"Delta":509365029},{"NoteNumber":67,"Velocity":47,"Duration":51546,"SoundDuration":51546,"Delta":509665569},{"NoteNumber":69,"Velocity":47,"Duration":51546,"SoundDuration":51546,"Delta":509665569},{"NoteNumber":76,"Velocity":56,"Duration":51546,"SoundDuration":51546,"Delta":509665569},{"NoteNumber":61,"Velocity":48,"Duration":51546,"SoundDuration":51546,"Delta":509665569},{"NoteNumber":69,"Velocity":64,"Duration":760621,"SoundDuration":760621,"Delta":509768661},{"NoteNumber":66,"Velocity":54,"Duration":760621,"SoundDuration":760621,"Delta":509768661},{"NoteNumber":62,"Velocity":54,"Duration":760621,"SoundDuration":760621,"Delta":509768661},{"NoteNumber":78,"Velocity":64,"Duration":657258,"SoundDuration":657258,"Delta":510552975},{"NoteNumber":66,"Velocity":54,"Duration":657258,"SoundDuration":657258,"Delta":510552975},{"NoteNumber":69,"Velocity":54,"Duration":657258,"SoundDuration":657258,"Delta":510552975},{"NoteNumber":62,"Velocity":54,"Duration":657258,"SoundDuration":657258,"Delta":510552975},{"NoteNumber":66,"Velocity":53,"Duration":94354,"SoundDuration":94354,"Delta":511230395},{"NoteNumber":78,"Velocity":53,"Duration":93548,"SoundDuration":93548,"Delta":511230395},{"NoteNumber":62,"Velocity":44,"Duration":86290,"SoundDuration":86290,"Delta":511230395},{"NoteNumber":78,"Velocity":60,"Duration":96153,"SoundDuration":96153,"Delta":511327169},{"NoteNumber":66,"Velocity":60,"Duration":96153,"SoundDuration":96153,"Delta":511327169},{"NoteNumber":62,"Velocity":50,"Duration":96153,"SoundDuration":96153,"Delta":511327169},{"NoteNumber":66,"Velocity":56,"Duration":92948,"SoundDuration":92948,"Delta":511604413},{"NoteNumber":78,"Velocity":56,"Duration":92948,"SoundDuration":92948,"Delta":511604413},{"NoteNumber":62,"Velocity":47,"Duration":92948,"SoundDuration":92948,"Delta":511604413},{"NoteNumber":68,"Velocity":59,"Duration":94044,"SoundDuration":94044,"Delta":511711784},{"NoteNumber":76,"Velocity":59,"Duration":94044,"SoundDuration":94044,"Delta":511711784},{"NoteNumber":59,"Velocity":41,"Duration":94044,"SoundDuration":94044,"Delta":511711784},{"NoteNumber":62,"Velocity":49,"Duration":94044,"SoundDuration":94044,"Delta":511711784},{"NoteNumber":74,"Velocity":56,"Duration":109090,"SoundDuration":109090,"Delta":512008963},{"NoteNumber":68,"Velocity":56,"Duration":109090,"SoundDuration":109090,"Delta":512008963},{"NoteNumber":59,"Velocity":40,"Duration":109090,"SoundDuration":109090,"Delta":512008963},{"NoteNumber":62,"Velocity":47,"Duration":109090,"SoundDuration":109090,"Delta":512008963},{"NoteNumber":73,"Velocity":64,"Duration":755681,"SoundDuration":755681,"Delta":512118054},{"NoteNumber":69,"Velocity":54,"Duration":755681,"SoundDuration":755681,"Delta":512118054},{"NoteNumber":57,"Velocity":45,"Duration":755681,"SoundDuration":755681,"Delta":512118054},{"NoteNumber":64,"Velocity":54,"Duration":755681,"SoundDuration":755681,"Delta":512118054},{"NoteNumber":69,"Velocity":54,"Duration":657258,"SoundDuration":657258,"Delta":512897274},{"NoteNumber":76,"Velocity":64,"Duration":657258,"SoundDuration":657258,"Delta":512897274},{"NoteNumber":57,"Velocity":45,"Duration":657258,"SoundDuration":657258,"Delta":512897274},{"NoteNumber":61,"Velocity":54,"Duration":657258,"SoundDuration":657258,"Delta":512897274},{"NoteNumber":70,"Velocity":53,"Duration":94354,"SoundDuration":94354,"Delta":513574694},{"NoteNumber":76,"Velocity":53,"Duration":94354,"SoundDuration":94354,"Delta":513574694},{"NoteNumber":54,"Velocity":35,"Duration":86290,"SoundDuration":86290,"Delta":513574694},{"NoteNumber":61,"Velocity":44,"Duration":86290,"SoundDuration":86290,"Delta":513574694},{"NoteNumber":70,"Velocity":60,"Duration":95541,"SoundDuration":95541,"Delta":513671468},{"NoteNumber":76,"Velocity":60,"Duration":95541,"SoundDuration":95541,"Delta":513671468},{"NoteNumber":61,"Velocity":50,"Duration":95541,"SoundDuration":95541,"Delta":513671468},{"NoteNumber":54,"Velocity":42,"Duration":95541,"SoundDuration":95541,"Delta":513671468},{"NoteNumber":70,"Velocity":56,"Duration":92356,"SoundDuration":92356,"Delta":513946946},{"NoteNumber":76,"Velocity":56,"Duration":92356,"SoundDuration":92356,"Delta":513946946},{"NoteNumber":61,"Velocity":47,"Duration":92356,"SoundDuration":92356,"Delta":513946946},{"NoteNumber":54,"Velocity":40,"Duration":92356,"SoundDuration":92356,"Delta":513946946},{"NoteNumber":70,"Velocity":59,"Duration":94339,"SoundDuration":94339,"Delta":514053634},{"NoteNumber":74,"Velocity":59,"Duration":94339,"SoundDuration":94339,"Delta":514053634},{"NoteNumber":54,"Velocity":41,"Duration":94339,"SoundDuration":94339,"Delta":514053634},{"NoteNumber":62,"Velocity":49,"Duration":94339,"SoundDuration":94339,"Delta":514053634},{"NoteNumber":70,"Velocity":56,"Duration":112359,"SoundDuration":112359,"Delta":514354673},{"NoteNumber":73,"Velocity":56,"Duration":112359,"SoundDuration":112359,"Delta":514354673},{"NoteNumber":54,"Velocity":40,"Duration":112359,"SoundDuration":112359,"Delta":514354673},{"NoteNumber":64,"Velocity":47,"Duration":112359,"SoundDuration":112359,"Delta":514354673},{"NoteNumber":71,"Velocity":64,"Duration":755681,"SoundDuration":755681,"Delta":514467032},{"NoteNumber":55,"Velocity":45,"Duration":779220,"SoundDuration":779220,"Delta":514467032},{"NoteNumber":62,"Velocity":54,"Duration":755681,"SoundDuration":755681,"Delta":514467032},{"NoteNumber":74,"Velocity":64,"Duration":657258,"SoundDuration":657258,"Delta":515246252},{"NoteNumber":67,"Velocity":54,"Duration":657258,"SoundDuration":657258,"Delta":515246252},{"NoteNumber":55,"Velocity":45,"Duration":657258,"SoundDuration":657258,"Delta":515246252},{"NoteNumber":59,"Velocity":54,"Duration":657258,"SoundDuration":657258,"Delta":515246252},{"NoteNumber":61,"Velocity":53,"Duration":96774,"SoundDuration":96774,"Delta":515923672},{"NoteNumber":67,"Velocity":53,"Duration":96774,"SoundDuration":96774,"Delta":515923672},{"NoteNumber":71,"Velocity":53,"Duration":96774,"SoundDuration":96774,"Delta":515923672},{"NoteNumber":45,"Velocity":44,"Duration":88709,"SoundDuration":88709,"Delta":515923672},{"NoteNumber":61,"Velocity":60,"Duration":96153,"SoundDuration":96153,"Delta":516020446},{"NoteNumber":67,"Velocity":60,"Duration":96153,"SoundDuration":96153,"Delta":516020446},{"NoteNumber":71,"Velocity":60,"Duration":96153,"SoundDuration":96153,"Delta":516020446},{"NoteNumber":45,"Velocity":50,"Duration":96153,"SoundDuration":96153,"Delta":516020446},{"NoteNumber":61,"Velocity":56,"Duration":96153,"SoundDuration":96153,"Delta":516308908},{"NoteNumber":67,"Velocity":56,"Duration":96153,"SoundDuration":96153,"Delta":516308908},{"NoteNumber":71,"Velocity":56,"Duration":96153,"SoundDuration":96153,"Delta":516308908},{"NoteNumber":45,"Velocity":47,"Duration":96153,"SoundDuration":96153,"Delta":516308908},{"NoteNumber":61,"Velocity":59,"Duration":94044,"SoundDuration":94044,"Delta":516405061},{"NoteNumber":66,"Velocity":59,"Duration":94044,"SoundDuration":94044,"Delta":516405061},{"NoteNumber":69,"Velocity":59,"Duration":94044,"SoundDuration":94044,"Delta":516405061},{"NoteNumber":45,"Velocity":49,"Duration":94044,"SoundDuration":94044,"Delta":516405061},{"NoteNumber":61,"Velocity":56,"Duration":112359,"SoundDuration":112359,"Delta":516705509},{"NoteNumber":64,"Velocity":56,"Duration":112359,"SoundDuration":112359,"Delta":516705509},{"NoteNumber":67,"Velocity":56,"Duration":112359,"SoundDuration":112359,"Delta":516705509},{"NoteNumber":45,"Velocity":47,"Duration":112359,"SoundDuration":112359,"Delta":516705509},{"NoteNumber":64,"Velocity":54,"Duration":802676,"SoundDuration":802676,"Delta":516817868},{"NoteNumber":57,"Velocity":54,"Duration":778428,"SoundDuration":778428,"Delta":516817868},{"NoteNumber":67,"Velocity":64,"Duration":778428,"SoundDuration":778428,"Delta":516817868},{"NoteNumber":50,"Velocity":54,"Duration":778428,"SoundDuration":778428,"Delta":516817868},{"NoteNumber":57,"Velocity":54,"Duration":766129,"SoundDuration":766129,"Delta":517620544},{"NoteNumber":66,"Velocity":64,"Duration":766129,"SoundDuration":766129,"Delta":517620544},{"NoteNumber":62,"Velocity":54,"Duration":766129,"SoundDuration":766129,"Delta":517620544},{"NoteNumber":50,"Velocity":54,"Duration":766129,"SoundDuration":766129,"Delta":517620544},{"NoteNumber":62,"Velocity":56,"Duration":361904,"SoundDuration":361904,"Delta":518394738},{"NoteNumber":66,"Velocity":56,"Duration":361904,"SoundDuration":361904,"Delta":518394738},{"NoteNumber":69,"Velocity":67,"Duration":361904,"SoundDuration":361904,"Delta":518394738},{"NoteNumber":50,"Velocity":45,"Duration":361904,"SoundDuration":361904,"Delta":518394738},{"NoteNumber":62,"Velocity":53,"Duration":366559,"SoundDuration":366559,"Delta":518775690},{"NoteNumber":66,"Velocity":53,"Duration":366559,"SoundDuration":366559,"Delta":518775690},{"NoteNumber":70,"Velocity":63,"Duration":366559,"SoundDuration":366559,"Delta":518775690},{"NoteNumber":49,"Velocity":37,"Duration":366559,"SoundDuration":366559,"Delta":518775690},{"NoteNumber":62,"Velocity":51,"Duration":724108,"SoundDuration":724108,"Delta":519161542},{"NoteNumber":67,"Velocity":51,"Duration":724108,"SoundDuration":724108,"Delta":519161542},{"NoteNumber":71,"Velocity":60,"Duration":724108,"SoundDuration":724108,"Delta":519161542},{"NoteNumber":47,"Velocity":67,"Duration":117647,"SoundDuration":117647,"Delta":519161542},{"NoteNumber":46,"Velocity":57,"Duration":117646,"SoundDuration":117646,"Delta":519279189},{"NoteNumber":47,"Velocity":57,"Duration":117647,"SoundDuration":117647,"Delta":519396836},{"NoteNumber":43,"Velocity":68,"Duration":118694,"SoundDuration":118694,"Delta":519514483},{"NoteNumber":42,"Velocity":61,"Duration":118694,"SoundDuration":118694,"Delta":519633178},{"NoteNumber":43,"Velocity":65,"Duration":133779,"SoundDuration":133779,"Delta":519751872},{"NoteNumber":67,"Velocity":56,"Duration":354103,"SoundDuration":354103,"Delta":519885651},{"NoteNumber":71,"Velocity":56,"Duration":354103,"SoundDuration":354103,"Delta":519885651},{"NoteNumber":76,"Velocity":67,"Duration":354103,"SoundDuration":354103,"Delta":519885651},{"NoteNumber":40,"Velocity":74,"Duration":638298,"SoundDuration":638298,"Delta":519885651},{"NoteNumber":71,"Velocity":57,"Duration":182370,"SoundDuration":182370,"Delta":520250393},{"NoteNumber":76,"Velocity":57,"Duration":182370,"SoundDuration":182370,"Delta":520250393},{"NoteNumber":79,"Velocity":68,"Duration":182370,"SoundDuration":182370,"Delta":520250393},{"NoteNumber":42,"Velocity":61,"Duration":91185,"SoundDuration":91185,"Delta":520523950},{"NoteNumber":67,"Velocity":53,"Duration":182370,"SoundDuration":182370,"Delta":520615135},{"NoteNumber":71,"Velocity":53,"Duration":182370,"SoundDuration":182370,"Delta":520615135},{"NoteNumber":76,"Velocity":63,"Duration":189969,"SoundDuration":189969,"Delta":520615135},{"NoteNumber":43,"Velocity":69,"Duration":273556,"SoundDuration":273556,"Delta":520615135},{"NoteNumber":45,"Velocity":62,"Duration":91185,"SoundDuration":91185,"Delta":520888692},{"NoteNumber":64,"Velocity":49,"Duration":180722,"SoundDuration":180722,"Delta":520979877},{"NoteNumber":67,"Velocity":58,"Duration":180722,"SoundDuration":180722,"Delta":520979877},{"NoteNumber":47,"Velocity":70,"Duration":274297,"SoundDuration":274297,"Delta":520979877},{"NoteNumber":50,"Velocity":62,"Duration":100000,"SoundDuration":100000,"Delta":521254175},{"NoteNumber":64,"Velocity":55,"Duration":725206,"SoundDuration":725206,"Delta":521354175},{"NoteNumber":69,"Velocity":55,"Duration":725206,"SoundDuration":725206,"Delta":521354175},{"NoteNumber":73,"Velocity":65,"Duration":725206,"SoundDuration":725206,"Delta":521354175},{"NoteNumber":49,"Velocity":69,"Duration":117301,"SoundDuration":117301,"Delta":521354175},{"NoteNumber":48,"Velocity":63,"Duration":117301,"SoundDuration":117301,"Delta":521471477},{"NoteNumber":49,"Velocity":59,"Duration":117301,"SoundDuration":117301,"Delta":521588779},{"NoteNumber":45,"Velocity":68,"Duration":119760,"SoundDuration":119760,"Delta":521706081},{"NoteNumber":44,"Velocity":65,"Duration":119760,"SoundDuration":119760,"Delta":521825841},{"NoteNumber":45,"Velocity":69,"Duration":133779,"SoundDuration":133779,"Delta":521945601},{"NoteNumber":69,"Velocity":59,"Duration":354103,"SoundDuration":354103,"Delta":522079381},{"NoteNumber":73,"Velocity":59,"Duration":354103,"SoundDuration":354103,"Delta":522079381},{"NoteNumber":78,"Velocity":70,"Duration":354103,"SoundDuration":354103,"Delta":522079381},{"NoteNumber":42,"Velocity":74,"Duration":638298,"SoundDuration":638298,"Delta":522079381},{"NoteNumber":73,"Velocity":58,"Duration":182370,"SoundDuration":182370,"Delta":522444123},{"NoteNumber":78,"Velocity":58,"Duration":182370,"SoundDuration":182370,"Delta":522444123},{"NoteNumber":81,"Velocity":69,"Duration":182370,"SoundDuration":182370,"Delta":522444123},{"NoteNumber":44,"Velocity":61,"Duration":91185,"SoundDuration":91185,"Delta":522717679},{"NoteNumber":73,"Velocity":51,"Duration":182370,"SoundDuration":182370,"Delta":522808865},{"NoteNumber":78,"Velocity":60,"Duration":182370,"SoundDuration":182370,"Delta":522808865},{"NoteNumber":69,"Velocity":51,"Duration":182370,"SoundDuration":182370,"Delta":522808865},{"NoteNumber":45,"Velocity":69,"Duration":273556,"SoundDuration":273556,"Delta":522808865},{"NoteNumber":47,"Velocity":62,"Duration":91185,"SoundDuration":91185,"Delta":523082421},{"NoteNumber":69,"Velocity":56,"Duration":180722,"SoundDuration":180722,"Delta":523173607},{"NoteNumber":66,"Velocity":47,"Duration":180722,"SoundDuration":180722,"Delta":523173607},{"NoteNumber":49,"Velocity":70,"Duration":274297,"SoundDuration":274297,"Delta":523173607},{"NoteNumber":52,"Velocity":62,"Duration":100000,"SoundDuration":100000,"Delta":523447904},{"NoteNumber":66,"Velocity":56,"Duration":727684,"SoundDuration":727684,"Delta":523547904},{"NoteNumber":74,"Velocity":67,"Duration":727684,"SoundDuration":727684,"Delta":523547904},{"NoteNumber":71,"Velocity":56,"Duration":727684,"SoundDuration":727684,"Delta":523547904},{"NoteNumber":50,"Velocity":70,"Duration":117647,"SoundDuration":117647,"Delta":523547904},{"NoteNumber":49,"Velocity":58,"Duration":117646,"SoundDuration":117646,"Delta":523665551},{"NoteNumber":50,"Velocity":58,"Duration":117647,"SoundDuration":117647,"Delta":523783198},{"NoteNumber":47,"Velocity":63,"Duration":120482,"SoundDuration":120482,"Delta":523900845},{"NoteNumber":46,"Velocity":65,"Duration":120482,"SoundDuration":120482,"Delta":524021327},{"NoteNumber":47,"Velocity":68,"Duration":133779,"SoundDuration":133779,"Delta":524141809},{"NoteNumber":74,"Velocity":66,"Duration":354103,"SoundDuration":354103,"Delta":524275588},{"NoteNumber":71,"Velocity":66,"Duration":354103,"SoundDuration":354103,"Delta":524275588},{"NoteNumber":79,"Velocity":78,"Duration":354103,"SoundDuration":354103,"Delta":524275588},{"NoteNumber":43,"Velocity":72,"Duration":638298,"SoundDuration":638298,"Delta":524275588},{"NoteNumber":74,"Velocity":60,"Duration":182370,"SoundDuration":182370,"Delta":524640330},{"NoteNumber":79,"Velocity":71,"Duration":182370,"SoundDuration":182370,"Delta":524640330},{"NoteNumber":83,"Velocity":71,"Duration":182370,"SoundDuration":182370,"Delta":524640330},{"NoteNumber":45,"Velocity":59,"Duration":91185,"SoundDuration":91185,"Delta":524913887},{"NoteNumber":74,"Velocity":60,"Duration":185185,"SoundDuration":185185,"Delta":525005072},{"NoteNumber":79,"Velocity":71,"Duration":185185,"SoundDuration":185185,"Delta":525005072},{"NoteNumber":71,"Velocity":60,"Duration":185185,"SoundDuration":185185,"Delta":525005072},{"NoteNumber":47,"Velocity":73,"Duration":277777,"SoundDuration":277777,"Delta":525005072},{"NoteNumber":49,"Velocity":57,"Duration":92592,"SoundDuration":92592,"Delta":525282850},{"NoteNumber":71,"Velocity":75,"Duration":195439,"SoundDuration":195439,"Delta":525375442},{"NoteNumber":67,"Velocity":68,"Duration":195439,"SoundDuration":195439,"Delta":525375442},{"NoteNumber":50,"Velocity":71,"Duration":301402,"SoundDuration":301402,"Delta":525375442},{"NoteNumber":54,"Velocity":58,"Duration":122448,"SoundDuration":122448,"Delta":525676845},{"NoteNumber":69,"Velocity":66,"Duration":773255,"SoundDuration":773255,"Delta":525799294},{"NoteNumber":81,"Velocity":78,"Duration":773255,"SoundDuration":773255,"Delta":525799294},{"NoteNumber":79,"Velocity":66,"Duration":797341,"SoundDuration":797341,"Delta":525799294},{"NoteNumber":73,"Velocity":66,"Duration":773255,"SoundDuration":773255,"Delta":525799294},{"NoteNumber":52,"Velocity":85,"Duration":773255,"SoundDuration":773255,"Delta":525799294},{"NoteNumber":79,"Velocity":61,"Duration":657258,"SoundDuration":657258,"Delta":526596636},{"NoteNumber":69,"Velocity":61,"Duration":657258,"SoundDuration":657258,"Delta":526596636},{"NoteNumber":81,"Velocity":72,"Duration":657258,"SoundDuration":657258,"Delta":526596636},{"NoteNumber":73,"Velocity":61,"Duration":657258,"SoundDuration":657258,"Delta":526596636},{"NoteNumber":52,"Velocity":68,"Duration":657258,"SoundDuration":657258,"Delta":526596636},{"NoteNumber":57,"Velocity":81,"Duration":657258,"SoundDuration":657258,"Delta":526596636},{"NoteNumber":73,"Velocity":58,"Duration":91935,"SoundDuration":91935,"Delta":527274056},{"NoteNumber":81,"Velocity":73,"Duration":91935,"SoundDuration":91935,"Delta":527274056},{"NoteNumber":79,"Velocity":58,"Duration":91935,"SoundDuration":91935,"Delta":527274056},{"NoteNumber":45,"Velocity":56,"Duration":96774,"SoundDuration":96774,"Delta":527274056},{"NoteNumber":57,"Velocity":66,"Duration":96774,"SoundDuration":96774,"Delta":527274056},{"NoteNumber":79,"Velocity":66,"Duration":272293,"SoundDuration":272293,"Delta":527370830},{"NoteNumber":73,"Velocity":66,"Duration":272293,"SoundDuration":272293,"Delta":527370830},{"NoteNumber":81,"Velocity":82,"Duration":265127,"SoundDuration":265127,"Delta":527370830},{"NoteNumber":45,"Velocity":58,"Duration":264331,"SoundDuration":264331,"Delta":527370830},{"NoteNumber":57,"Velocity":69,"Duration":264331,"SoundDuration":264331,"Delta":527370830},{"NoteNumber":73,"Velocity":63,"Duration":90764,"SoundDuration":90764,"Delta":527657454},{"NoteNumber":79,"Velocity":63,"Duration":90764,"SoundDuration":90764,"Delta":527657454},{"NoteNumber":81,"Velocity":80,"Duration":90764,"SoundDuration":90764,"Delta":527657454},{"NoteNumber":43,"Velocity":55,"Duration":95541,"SoundDuration":95541,"Delta":527657454},{"NoteNumber":55,"Velocity":65,"Duration":95541,"SoundDuration":95541,"Delta":527657454},{"NoteNumber":79,"Velocity":67,"Duration":283726,"SoundDuration":283726,"Delta":527752996},{"NoteNumber":83,"Velocity":85,"Duration":283726,"SoundDuration":283726,"Delta":527752996},{"NoteNumber":73,"Velocity":67,"Duration":283726,"SoundDuration":283726,"Delta":527752996},{"NoteNumber":42,"Velocity":60,"Duration":274292,"SoundDuration":274292,"Delta":527752996},{"NoteNumber":54,"Velocity":72,"Duration":274292,"SoundDuration":274292,"Delta":527752996},{"NoteNumber":79,"Velocity":65,"Duration":113207,"SoundDuration":113207,"Delta":528053703},{"NoteNumber":85,"Velocity":83,"Duration":113207,"SoundDuration":113207,"Delta":528053703},{"NoteNumber":73,"Velocity":65,"Duration":113207,"SoundDuration":113207,"Delta":528053703},{"NoteNumber":40,"Velocity":62,"Duration":113207,"SoundDuration":113207,"Delta":528053703},{"NoteNumber":52,"Velocity":74,"Duration":113207,"SoundDuration":113207,"Delta":528053703},{"NoteNumber":86,"Velocity":93,"Duration":753237,"SoundDuration":753237,"Delta":528166911},{"NoteNumber":74,"Velocity":78,"Duration":753237,"SoundDuration":753237,"Delta":528166911},{"NoteNumber":78,"Velocity":78,"Duration":753237,"SoundDuration":753237,"Delta":528166911},{"NoteNumber":38,"Velocity":65,"Duration":753237,"SoundDuration":753237,"Delta":528166911},{"NoteNumber":45,"Velocity":65,"Duration":753237,"SoundDuration":753237,"Delta":528166911},{"NoteNumber":50,"Velocity":74,"Duration":753237,"SoundDuration":753237,"Delta":528166911},{"NoteNumber":74,"Velocity":78,"Duration":667955,"SoundDuration":667955,"Delta":528943611},{"NoteNumber":86,"Velocity":93,"Duration":667955,"SoundDuration":667955,"Delta":528943611},{"NoteNumber":78,"Velocity":78,"Duration":667955,"SoundDuration":667955,"Delta":528943611},{"NoteNumber":45,"Velocity":65,"Duration":667955,"SoundDuration":667955,"Delta":528943611},{"NoteNumber":38,"Velocity":65,"Duration":667955,"SoundDuration":667955,"Delta":528943611},{"NoteNumber":50,"Velocity":74,"Duration":667955,"SoundDuration":667955,"Delta":528943611},{"NoteNumber":78,"Velocity":42,"Duration":49180,"SoundDuration":49180,"Delta":529628014},{"NoteNumber":81,"Velocity":50,"Duration":49180,"SoundDuration":49180,"Delta":529628014},{"NoteNumber":81,"Velocity":54,"Duration":283278,"SoundDuration":283278,"Delta":529726374},{"NoteNumber":78,"Velocity":45,"Duration":283278,"SoundDuration":283278,"Delta":529726374},{"NoteNumber":78,"Velocity":42,"Duration":48701,"SoundDuration":48701,"Delta":530018582},{"NoteNumber":81,"Velocity":50,"Duration":48701,"SoundDuration":48701,"Delta":530018582},{"NoteNumber":80,"Velocity":54,"Duration":284005,"SoundDuration":284005,"Delta":530115984},{"NoteNumber":77,"Velocity":45,"Duration":284005,"SoundDuration":284005,"Delta":530115984},{"NoteNumber":78,"Velocity":42,"Duration":53763,"SoundDuration":53763,"Delta":530409847},{"NoteNumber":81,"Velocity":50,"Duration":53763,"SoundDuration":53763,"Delta":530409847},{"NoteNumber":78,"Velocity":48,"Duration":869155,"SoundDuration":869155,"Delta":530517374},{"NoteNumber":74,"Velocity":40,"Duration":869155,"SoundDuration":869155,"Delta":530517374},{"NoteNumber":50,"Velocity":44,"Duration":202019,"SoundDuration":202019,"Delta":530517374},{"NoteNumber":57,"Velocity":33,"Duration":232558,"SoundDuration":232558,"Delta":530921414},{"NoteNumber":78,"Velocity":48,"Duration":712411,"SoundDuration":712411,"Delta":531386530},{"NoteNumber":74,"Velocity":40,"Duration":712411,"SoundDuration":712411,"Delta":531386530},{"NoteNumber":66,"Velocity":33,"Duration":209789,"SoundDuration":209789,"Delta":531386530},{"NoteNumber":62,"Velocity":28,"Duration":209789,"SoundDuration":209789,"Delta":531386530},{"NoteNumber":50,"Velocity":44,"Duration":209789,"SoundDuration":209789,"Delta":531806110},{"NoteNumber":74,"Velocity":37,"Duration":48387,"SoundDuration":48387,"Delta":532120795},{"NoteNumber":78,"Velocity":44,"Duration":48387,"SoundDuration":48387,"Delta":532120795},{"NoteNumber":78,"Velocity":48,"Duration":94339,"SoundDuration":94339,"Delta":532217569},{"NoteNumber":74,"Velocity":40,"Duration":94339,"SoundDuration":94339,"Delta":532217569},{"NoteNumber":57,"Velocity":33,"Duration":188678,"SoundDuration":188678,"Delta":532217569},{"NoteNumber":74,"Velocity":37,"Duration":47169,"SoundDuration":47169,"Delta":532500588},{"NoteNumber":78,"Velocity":44,"Duration":47169,"SoundDuration":47169,"Delta":532500588},{"NoteNumber":73,"Velocity":40,"Duration":92024,"SoundDuration":92024,"Delta":532594927},{"NoteNumber":77,"Velocity":48,"Duration":92024,"SoundDuration":92024,"Delta":532594927},{"NoteNumber":62,"Velocity":28,"Duration":184048,"SoundDuration":184048,"Delta":532594927},{"NoteNumber":66,"Velocity":33,"Duration":184048,"SoundDuration":184048,"Delta":532594927},{"NoteNumber":78,"Velocity":44,"Duration":55350,"SoundDuration":55350,"Delta":532889677},{"NoteNumber":74,"Velocity":37,"Duration":55350,"SoundDuration":55350,"Delta":532889677},{"NoteNumber":78,"Velocity":40,"Duration":869155,"SoundDuration":869155,"Delta":533000378},{"NoteNumber":81,"Velocity":48,"Duration":869155,"SoundDuration":869155,"Delta":533000378},{"NoteNumber":49,"Velocity":44,"Duration":202019,"SoundDuration":202019,"Delta":533000378},{"NoteNumber":57,"Velocity":33,"Duration":232558,"SoundDuration":232558,"Delta":533404418},{"NoteNumber":76,"Velocity":40,"Duration":712411,"SoundDuration":712411,"Delta":533869534},{"NoteNumber":79,"Velocity":48,"Duration":712411,"SoundDuration":712411,"Delta":533869534},{"NoteNumber":67,"Velocity":33,"Duration":209789,"SoundDuration":209789,"Delta":533869534},{"NoteNumber":64,"Velocity":28,"Duration":209789,"SoundDuration":209789,"Delta":533869534},{"NoteNumber":49,"Velocity":44,"Duration":209789,"SoundDuration":209789,"Delta":534289114},{"NoteNumber":79,"Velocity":44,"Duration":48387,"SoundDuration":48387,"Delta":534603799},{"NoteNumber":81,"Velocity":37,"Duration":48387,"SoundDuration":48387,"Delta":534603799},{"NoteNumber":76,"Velocity":37,"Duration":48387,"SoundDuration":48387,"Delta":534603799},{"NoteNumber":81,"Velocity":40,"Duration":93167,"SoundDuration":93167,"Delta":534700573},{"NoteNumber":76,"Velocity":40,"Duration":93167,"SoundDuration":93167,"Delta":534700573},{"NoteNumber":79,"Velocity":48,"Duration":93167,"SoundDuration":93167,"Delta":534700573},{"NoteNumber":57,"Velocity":33,"Duration":186335,"SoundDuration":186335,"Delta":534700573},{"NoteNumber":81,"Velocity":37,"Duration":46583,"SoundDuration":46583,"Delta":534980077},{"NoteNumber":76,"Velocity":37,"Duration":46583,"SoundDuration":46583,"Delta":534980077},{"NoteNumber":79,"Velocity":44,"Duration":46583,"SoundDuration":46583,"Delta":534980077},{"NoteNumber":75,"Velocity":40,"Duration":90909,"SoundDuration":90909,"Delta":535073244},{"NoteNumber":81,"Velocity":40,"Duration":90909,"SoundDuration":90909,"Delta":535073244},{"NoteNumber":78,"Velocity":48,"Duration":90909,"SoundDuration":90909,"Delta":535073244},{"NoteNumber":64,"Velocity":28,"Duration":181818,"SoundDuration":181818,"Delta":535073244},{"NoteNumber":67,"Velocity":33,"Duration":181818,"SoundDuration":181818,"Delta":535073244},{"NoteNumber":81,"Velocity":44,"Duration":55350,"SoundDuration":55350,"Delta":535365763},{"NoteNumber":76,"Velocity":37,"Duration":55350,"SoundDuration":55350,"Delta":535365763},{"NoteNumber":79,"Velocity":44,"Duration":55350,"SoundDuration":55350,"Delta":535365763},{"NoteNumber":81,"Velocity":48,"Duration":835358,"SoundDuration":835358,"Delta":535476464},{"NoteNumber":76,"Velocity":40,"Duration":835358,"SoundDuration":835358,"Delta":535476464},{"NoteNumber":73,"Velocity":40,"Duration":835358,"SoundDuration":835358,"Delta":535476464},{"NoteNumber":45,"Velocity":44,"Duration":202019,"SoundDuration":202019,"Delta":535476464},{"NoteNumber":57,"Velocity":33,"Duration":219780,"SoundDuration":219780,"Delta":535880504},{"NoteNumber":73,"Velocity":40,"Duration":712411,"SoundDuration":712411,"Delta":536320064},{"NoteNumber":76,"Velocity":40,"Duration":712411,"SoundDuration":712411,"Delta":536320064},{"NoteNumber":81,"Velocity":48,"Duration":712411,"SoundDuration":712411,"Delta":536320064},{"NoteNumber":67,"Velocity":33,"Duration":209789,"SoundDuration":209789,"Delta":536320064},{"NoteNumber":64,"Velocity":28,"Duration":209789,"SoundDuration":209789,"Delta":536320064},{"NoteNumber":45,"Velocity":44,"Duration":209789,"SoundDuration":209789,"Delta":536739644},{"NoteNumber":81,"Velocity":37,"Duration":48387,"SoundDuration":48387,"Delta":537054329},{"NoteNumber":73,"Velocity":37,"Duration":48387,"SoundDuration":48387,"Delta":537054329},{"NoteNumber":76,"Velocity":44,"Duration":48387,"SoundDuration":48387,"Delta":537054329},{"NoteNumber":73,"Velocity":40,"Duration":94339,"SoundDuration":94339,"Delta":537151104},{"NoteNumber":81,"Velocity":40,"Duration":94339,"SoundDuration":94339,"Delta":537151104},{"NoteNumber":76,"Velocity":48,"Duration":94339,"SoundDuration":94339,"Delta":537151104},{"NoteNumber":57,"Velocity":33,"Duration":188678,"SoundDuration":188678,"Delta":537151104},{"NoteNumber":81,"Velocity":37,"Duration":47169,"SoundDuration":47169,"Delta":537434122},{"NoteNumber":73,"Velocity":37,"Duration":47169,"SoundDuration":47169,"Delta":537434122},{"NoteNumber":76,"Velocity":44,"Duration":47169,"SoundDuration":47169,"Delta":537434122},{"NoteNumber":74,"Velocity":48,"Duration":92024,"SoundDuration":92024,"Delta":537528462},{"NoteNumber":81,"Velocity":40,"Duration":92024,"SoundDuration":92024,"Delta":537528462},{"NoteNumber":71,"Velocity":40,"Duration":92024,"SoundDuration":92024,"Delta":537528462},{"NoteNumber":64,"Velocity":28,"Duration":184048,"SoundDuration":184048,"Delta":537528462},{"NoteNumber":67,"Velocity":33,"Duration":184048,"SoundDuration":184048,"Delta":537528462},{"NoteNumber":81,"Velocity":44,"Duration":63829,"SoundDuration":63829,"Delta":537840170},{"NoteNumber":73,"Velocity":37,"Duration":63829,"SoundDuration":63829,"Delta":537840170},{"NoteNumber":76,"Velocity":44,"Duration":63829,"SoundDuration":63829,"Delta":537840170},{"NoteNumber":81,"Velocity":43,"Duration":905833,"SoundDuration":905833,"Delta":537967830},{"NoteNumber":73,"Velocity":36,"Duration":905833,"SoundDuration":905833,"Delta":537967830},{"NoteNumber":77,"Velocity":36,"Duration":904864,"SoundDuration":904864,"Delta":537967830},{"NoteNumber":50,"Velocity":39,"Duration":224719,"SoundDuration":224719,"Delta":537967830},{"NoteNumber":57,"Velocity":29,"Duration":232558,"SoundDuration":232558,"Delta":538417268},{"NoteNumber":74,"Velocity":36,"Duration":712411,"SoundDuration":712411,"Delta":538882384},{"NoteNumber":78,"Velocity":36,"Duration":712411,"SoundDuration":712411,"Delta":538882384},{"NoteNumber":81,"Velocity":43,"Duration":712411,"SoundDuration":712411,"Delta":538882384},{"NoteNumber":66,"Velocity":29,"Duration":209789,"SoundDuration":209789,"Delta":538882384},{"NoteNumber":62,"Velocity":24,"Duration":209789,"SoundDuration":209789,"Delta":538882384},{"NoteNumber":50,"Velocity":44,"Duration":209789,"SoundDuration":209789,"Delta":539301964},{"NoteNumber":74,"Velocity":37,"Duration":48387,"SoundDuration":48387,"Delta":539616649},{"NoteNumber":81,"Velocity":44,"Duration":48387,"SoundDuration":48387,"Delta":539616649},{"NoteNumber":78,"Velocity":37,"Duration":48387,"SoundDuration":48387,"Delta":539616649},{"NoteNumber":81,"Velocity":48,"Duration":94339,"SoundDuration":94339,"Delta":539713423},{"NoteNumber":78,"Velocity":40,"Duration":94339,"SoundDuration":94339,"Delta":539713423},{"NoteNumber":74,"Velocity":40,"Duration":94339,"SoundDuration":94339,"Delta":539713423},{"NoteNumber":57,"Velocity":29,"Duration":188678,"SoundDuration":188678,"Delta":539713423},{"NoteNumber":74,"Velocity":38,"Duration":47169,"SoundDuration":47169,"Delta":539996441},{"NoteNumber":78,"Velocity":38,"Duration":47169,"SoundDuration":47169,"Delta":539996441},{"NoteNumber":81,"Velocity":45,"Duration":47169,"SoundDuration":47169,"Delta":539996441},{"NoteNumber":74,"Velocity":41,"Duration":92024,"SoundDuration":92024,"Delta":540090781},{"NoteNumber":80,"Velocity":50,"Duration":92024,"SoundDuration":92024,"Delta":540090781},{"NoteNumber":78,"Velocity":41,"Duration":92024,"SoundDuration":92024,"Delta":540090781},{"NoteNumber":66,"Velocity":30,"Duration":184048,"SoundDuration":184048,"Delta":540090781},{"NoteNumber":62,"Velocity":25,"Duration":184048,"SoundDuration":184048,"Delta":540090781},{"NoteNumber":78,"Velocity":40,"Duration":55350,"SoundDuration":55350,"Delta":540385531},{"NoteNumber":74,"Velocity":40,"Duration":55350,"SoundDuration":55350,"Delta":540385531},{"NoteNumber":81,"Velocity":48,"Duration":55350,"SoundDuration":55350,"Delta":540385531},{"NoteNumber":74,"Velocity":44,"Duration":860435,"SoundDuration":860435,"Delta":540496232},{"NoteNumber":78,"Velocity":44,"Duration":860435,"SoundDuration":860435,"Delta":540496232},{"NoteNumber":83,"Velocity":52,"Duration":860435,"SoundDuration":860435,"Delta":540496232},{"NoteNumber":47,"Velocity":48,"Duration":202019,"SoundDuration":202019,"Delta":540496232},{"NoteNumber":59,"Velocity":36,"Duration":232558,"SoundDuration":232558,"Delta":540900272},{"NoteNumber":74,"Velocity":44,"Duration":706395,"SoundDuration":706395,"Delta":541365388},{"NoteNumber":83,"Velocity":52,"Duration":706395,"SoundDuration":706395,"Delta":541365388},{"NoteNumber":78,"Velocity":44,"Duration":706395,"SoundDuration":706395,"Delta":541365388},{"NoteNumber":66,"Velocity":36,"Duration":209789,"SoundDuration":209789,"Delta":541365388},{"NoteNumber":62,"Velocity":30,"Duration":209789,"SoundDuration":209789,"Delta":541365388},{"NoteNumber":47,"Velocity":44,"Duration":205479,"SoundDuration":205479,"Delta":541784968},{"NoteNumber":83,"Velocity":48,"Duration":48387,"SoundDuration":48387,"Delta":542093187},{"NoteNumber":78,"Velocity":40,"Duration":48387,"SoundDuration":48387,"Delta":542093187},{"NoteNumber":74,"Velocity":40,"Duration":48387,"SoundDuration":48387,"Delta":542093187},{"NoteNumber":83,"Velocity":52,"Duration":94339,"SoundDuration":94339,"Delta":542189961},{"NoteNumber":78,"Velocity":44,"Duration":94339,"SoundDuration":94339,"Delta":542189961},{"NoteNumber":74,"Velocity":44,"Duration":94339,"SoundDuration":94339,"Delta":542189961},{"NoteNumber":59,"Velocity":36,"Duration":188678,"SoundDuration":188678,"Delta":542189961},{"NoteNumber":78,"Velocity":40,"Duration":47169,"SoundDuration":47169,"Delta":542472980},{"NoteNumber":74,"Velocity":40,"Duration":47169,"SoundDuration":47169,"Delta":542472980},{"NoteNumber":86,"Velocity":48,"Duration":47169,"SoundDuration":47169,"Delta":542472980},{"NoteNumber":78,"Velocity":43,"Duration":92024,"SoundDuration":92024,"Delta":542567319},{"NoteNumber":85,"Velocity":51,"Duration":92024,"SoundDuration":92024,"Delta":542567319},{"NoteNumber":74,"Velocity":43,"Duration":92024,"SoundDuration":92024,"Delta":542567319},{"NoteNumber":62,"Velocity":29,"Duration":184048,"SoundDuration":184048,"Delta":542567319},{"NoteNumber":66,"Velocity":36,"Duration":184048,"SoundDuration":184048,"Delta":542567319},{"NoteNumber":74,"Velocity":39,"Duration":55350,"SoundDuration":55350,"Delta":542862069},{"NoteNumber":83,"Velocity":47,"Duration":55350,"SoundDuration":55350,"Delta":542862069},{"NoteNumber":78,"Velocity":39,"Duration":55350,"SoundDuration":55350,"Delta":542862069},{"NoteNumber":81,"Velocity":48,"Duration":860435,"SoundDuration":860435,"Delta":542972770},{"NoteNumber":74,"Velocity":40,"Duration":860435,"SoundDuration":860435,"Delta":542972770},{"NoteNumber":78,"Velocity":40,"Duration":860435,"SoundDuration":860435,"Delta":542972770},{"NoteNumber":50,"Velocity":44,"Duration":202019,"SoundDuration":202019,"Delta":542972770},{"NoteNumber":57,"Velocity":33,"Duration":232558,"SoundDuration":232558,"Delta":543376810},{"NoteNumber":81,"Velocity":48,"Duration":712411,"SoundDuration":712411,"Delta":543841926},{"NoteNumber":74,"Velocity":48,"Duration":712411,"SoundDuration":712411,"Delta":543841926},{"NoteNumber":78,"Velocity":40,"Duration":712411,"SoundDuration":712411,"Delta":543841926},{"NoteNumber":66,"Velocity":33,"Duration":209789,"SoundDuration":209789,"Delta":543841926},{"NoteNumber":62,"Velocity":28,"Duration":209789,"SoundDuration":209789,"Delta":543841926},{"NoteNumber":50,"Velocity":44,"Duration":209789,"SoundDuration":209789,"Delta":544261506},{"NoteNumber":81,"Velocity":37,"Duration":48387,"SoundDuration":48387,"Delta":544576191},{"NoteNumber":74,"Velocity":37,"Duration":48387,"SoundDuration":48387,"Delta":544576191},{"NoteNumber":78,"Velocity":44,"Duration":48387,"SoundDuration":48387,"Delta":544576191},{"NoteNumber":81,"Velocity":40,"Duration":94339,"SoundDuration":94339,"Delta":544672966},{"NoteNumber":78,"Velocity":48,"Duration":94339,"SoundDuration":94339,"Delta":544672966},{"NoteNumber":74,"Velocity":40,"Duration":94339,"SoundDuration":94339,"Delta":544672966},{"NoteNumber":57,"Velocity":33,"Duration":188678,"SoundDuration":188678,"Delta":544672966},{"NoteNumber":74,"Velocity":37,"Duration":47169,"SoundDuration":47169,"Delta":544955984},{"NoteNumber":81,"Velocity":37,"Duration":47169,"SoundDuration":47169,"Delta":544955984},{"NoteNumber":78,"Velocity":44,"Duration":47169,"SoundDuration":47169,"Delta":544955984},{"NoteNumber":74,"Velocity":40,"Duration":92024,"SoundDuration":92024,"Delta":545050324},{"NoteNumber":83,"Velocity":40,"Duration":92024,"SoundDuration":92024,"Delta":545050324},{"NoteNumber":79,"Velocity":48,"Duration":92024,"SoundDuration":92024,"Delta":545050324},{"NoteNumber":66,"Velocity":33,"Duration":184048,"SoundDuration":184048,"Delta":545050324},{"NoteNumber":62,"Velocity":28,"Duration":184048,"SoundDuration":184048,"Delta":545050324},{"NoteNumber":74,"Velocity":37,"Duration":55350,"SoundDuration":55350,"Delta":545345074},{"NoteNumber":78,"Velocity":44,"Duration":55350,"SoundDuration":55350,"Delta":545345074},{"NoteNumber":81,"Velocity":44,"Duration":55350,"SoundDuration":55350,"Delta":545345074},{"NoteNumber":81,"Velocity":48,"Duration":841055,"SoundDuration":841055,"Delta":545455775},{"NoteNumber":73,"Velocity":40,"Duration":841055,"SoundDuration":841055,"Delta":545455775},{"NoteNumber":78,"Velocity":40,"Duration":841055,"SoundDuration":841055,"Delta":545455775},{"NoteNumber":45,"Velocity":44,"Duration":202019,"SoundDuration":202019,"Delta":545455775},{"NoteNumber":57,"Velocity":33,"Duration":232558,"SoundDuration":232558,"Delta":545859815},{"NoteNumber":79,"Velocity":45,"Duration":712411,"SoundDuration":712411,"Delta":546324931},{"NoteNumber":76,"Velocity":38,"Duration":712411,"SoundDuration":712411,"Delta":546324931},{"NoteNumber":73,"Velocity":38,"Duration":712411,"SoundDuration":712411,"Delta":546324931},{"NoteNumber":64,"Velocity":26,"Duration":209789,"SoundDuration":209789,"Delta":546324931},{"NoteNumber":67,"Velocity":31,"Duration":209789,"SoundDuration":209789,"Delta":546324931},{"NoteNumber":45,"Velocity":41,"Duration":209789,"SoundDuration":209789,"Delta":546744511},{"NoteNumber":76,"Velocity":42,"Duration":49668,"SoundDuration":49668,"Delta":547059196},{"NoteNumber":79,"Velocity":35,"Duration":49668,"SoundDuration":49668,"Delta":547059196},{"NoteNumber":69,"Velocity":35,"Duration":49668,"SoundDuration":49668,"Delta":547059196},{"NoteNumber":79,"Velocity":38,"Duration":96462,"SoundDuration":96462,"Delta":547158533},{"NoteNumber":69,"Velocity":38,"Duration":96462,"SoundDuration":96462,"Delta":547158533},{"NoteNumber":76,"Velocity":45,"Duration":96462,"SoundDuration":96462,"Delta":547158533},{"NoteNumber":57,"Velocity":31,"Duration":192926,"SoundDuration":192926,"Delta":547158533},{"NoteNumber":79,"Velocity":35,"Duration":48231,"SoundDuration":48231,"Delta":547447922},{"NoteNumber":69,"Velocity":35,"Duration":48231,"SoundDuration":48231,"Delta":547447922},{"NoteNumber":76,"Velocity":42,"Duration":48231,"SoundDuration":48231,"Delta":547447922},{"NoteNumber":69,"Velocity":37,"Duration":94339,"SoundDuration":94339,"Delta":547544385},{"NoteNumber":78,"Velocity":37,"Duration":94339,"SoundDuration":94339,"Delta":547544385},{"NoteNumber":74,"Velocity":45,"Duration":94339,"SoundDuration":94339,"Delta":547544385},{"NoteNumber":67,"Velocity":31,"Duration":188678,"SoundDuration":188678,"Delta":547544385},{"NoteNumber":64,"Velocity":26,"Duration":188678,"SoundDuration":188678,"Delta":547544385},{"NoteNumber":76,"Velocity":42,"Duration":63829,"SoundDuration":63829,"Delta":547860724},{"NoteNumber":69,"Velocity":35,"Duration":63829,"SoundDuration":63829,"Delta":547860724},{"NoteNumber":73,"Velocity":42,"Duration":63829,"SoundDuration":63829,"Delta":547860724},{"NoteNumber":74,"Velocity":38,"Duration":886453,"SoundDuration":886453,"Delta":547988383},{"NoteNumber":66,"Velocity":32,"Duration":886453,"SoundDuration":886453,"Delta":547988383},{"NoteNumber":69,"Velocity":32,"Duration":886453,"SoundDuration":886453,"Delta":547988383},{"NoteNumber":50,"Velocity":35,"Duration":224719,"SoundDuration":224719,"Delta":547988383},{"NoteNumber":54,"Velocity":26,"Duration":232558,"SoundDuration":232558,"Delta":548437821},{"NoteNumber":66,"Velocity":32,"Duration":419579,"SoundDuration":419579,"Delta":548902937},{"NoteNumber":69,"Velocity":32,"Duration":419579,"SoundDuration":419579,"Delta":548902937},{"NoteNumber":74,"Velocity":38,"Duration":419579,"SoundDuration":419579,"Delta":548902937},{"NoteNumber":62,"Velocity":26,"Duration":209789,"SoundDuration":209789,"Delta":548902937},{"NoteNumber":57,"Velocity":21,"Duration":209789,"SoundDuration":209789,"Delta":548902937},{"NoteNumber":45,"Velocity":39,"Duration":209789,"SoundDuration":209789,"Delta":549322517},{"NoteNumber":76,"Velocity":36,"Duration":50335,"SoundDuration":50335,"Delta":549637202},{"NoteNumber":79,"Velocity":30,"Duration":50335,"SoundDuration":50335,"Delta":549637202},{"NoteNumber":69,"Velocity":30,"Duration":50335,"SoundDuration":50335,"Delta":549637202},{"NoteNumber":79,"Velocity":33,"Duration":98039,"SoundDuration":98039,"Delta":549737874},{"NoteNumber":69,"Velocity":33,"Duration":98039,"SoundDuration":98039,"Delta":549737874},{"NoteNumber":76,"Velocity":39,"Duration":98039,"SoundDuration":98039,"Delta":549737874},{"NoteNumber":55,"Velocity":27,"Duration":196078,"SoundDuration":196078,"Delta":549737874},{"NoteNumber":79,"Velocity":30,"Duration":49019,"SoundDuration":49019,"Delta":550031991},{"NoteNumber":76,"Velocity":35,"Duration":49019,"SoundDuration":49019,"Delta":550031991},{"NoteNumber":69,"Velocity":30,"Duration":49019,"SoundDuration":49019,"Delta":550031991},{"NoteNumber":74,"Velocity":38,"Duration":96153,"SoundDuration":96153,"Delta":550130031},{"NoteNumber":69,"Velocity":31,"Duration":96153,"SoundDuration":96153,"Delta":550130031},{"NoteNumber":78,"Velocity":31,"Duration":96153,"SoundDuration":96153,"Delta":550130031},{"NoteNumber":61,"Velocity":26,"Duration":192307,"SoundDuration":192307,"Delta":550130031},{"NoteNumber":57,"Velocity":22,"Duration":192307,"SoundDuration":192307,"Delta":550130031},{"NoteNumber":76,"Velocity":34,"Duration":63829,"SoundDuration":63829,"Delta":550449998},{"NoteNumber":69,"Velocity":29,"Duration":63829,"SoundDuration":63829,"Delta":550449998},{"NoteNumber":73,"Velocity":34,"Duration":63829,"SoundDuration":63829,"Delta":550449998},{"NoteNumber":74,"Velocity":33,"Duration":886453,"SoundDuration":886453,"Delta":550577657},{"NoteNumber":66,"Velocity":28,"Duration":886453,"SoundDuration":886453,"Delta":550577657},{"NoteNumber":69,"Velocity":28,"Duration":886453,"SoundDuration":886453,"Delta":550577657},{"NoteNumber":50,"Velocity":30,"Duration":224719,"SoundDuration":224719,"Delta":550577657},{"NoteNumber":54,"Velocity":22,"Duration":232558,"SoundDuration":232558,"Delta":551027095},{"NoteNumber":66,"Velocity":26,"Duration":419579,"SoundDuration":419579,"Delta":551492211},{"NoteNumber":69,"Velocity":26,"Duration":419579,"SoundDuration":419579,"Delta":551492211},{"NoteNumber":74,"Velocity":32,"Duration":419579,"SoundDuration":419579,"Delta":551492211},{"NoteNumber":62,"Velocity":21,"Duration":209789,"SoundDuration":209789,"Delta":551492211},{"NoteNumber":57,"Velocity":17,"Duration":209789,"SoundDuration":209789,"Delta":551492211},{"NoteNumber":45,"Velocity":31,"Duration":209789,"SoundDuration":209789,"Delta":551911791},{"NoteNumber":79,"Velocity":23,"Duration":51903,"SoundDuration":51903,"Delta":552226476},{"NoteNumber":69,"Velocity":23,"Duration":51903,"SoundDuration":51903,"Delta":552226476},{"NoteNumber":76,"Velocity":28,"Duration":51903,"SoundDuration":51903,"Delta":552226476},{"NoteNumber":69,"Velocity":25,"Duration":100671,"SoundDuration":100671,"Delta":552330282},{"NoteNumber":79,"Velocity":25,"Duration":100671,"SoundDuration":100671,"Delta":552330282},{"NoteNumber":76,"Velocity":30,"Duration":100671,"SoundDuration":100671,"Delta":552330282},{"NoteNumber":55,"Velocity":20,"Duration":201342,"SoundDuration":201342,"Delta":552330282},{"NoteNumber":79,"Velocity":22,"Duration":50335,"SoundDuration":50335,"Delta":552632296},{"NoteNumber":69,"Velocity":22,"Duration":50335,"SoundDuration":50335,"Delta":552632296},{"NoteNumber":76,"Velocity":26,"Duration":50335,"SoundDuration":50335,"Delta":552632296},{"NoteNumber":74,"Velocity":29,"Duration":98360,"SoundDuration":98360,"Delta":552732967},{"NoteNumber":78,"Velocity":23,"Duration":98360,"SoundDuration":98360,"Delta":552732967},{"NoteNumber":69,"Velocity":23,"Duration":98360,"SoundDuration":98360,"Delta":552732967},{"NoteNumber":61,"Velocity":19,"Duration":196721,"SoundDuration":196721,"Delta":552732967},{"NoteNumber":57,"Velocity":16,"Duration":196721,"SoundDuration":196721,"Delta":552732967},{"NoteNumber":76,"Velocity":25,"Duration":63829,"SoundDuration":63829,"Delta":553057348},{"NoteNumber":69,"Velocity":21,"Duration":63829,"SoundDuration":63829,"Delta":553057348},{"NoteNumber":73,"Velocity":25,"Duration":63829,"SoundDuration":63829,"Delta":553057348},{"NoteNumber":69,"Velocity":24,"Duration":886453,"SoundDuration":886453,"Delta":553185008},{"NoteNumber":74,"Velocity":28,"Duration":886453,"SoundDuration":886453,"Delta":553185008},{"NoteNumber":66,"Velocity":24,"Duration":886453,"SoundDuration":886453,"Delta":553185008},{"NoteNumber":50,"Velocity":25,"Duration":224719,"SoundDuration":224719,"Delta":553185008},{"NoteNumber":54,"Velocity":19,"Duration":232558,"SoundDuration":232558,"Delta":553634446},{"NoteNumber":66,"Velocity":24,"Duration":218181,"SoundDuration":218181,"Delta":554099562},{"NoteNumber":69,"Velocity":24,"Duration":218181,"SoundDuration":218181,"Delta":554099562},{"NoteNumber":74,"Velocity":28,"Duration":218181,"SoundDuration":218181,"Delta":554099562},{"NoteNumber":62,"Velocity":19,"Duration":218181,"SoundDuration":218181,"Delta":554099562},{"NoteNumber":57,"Velocity":16,"Duration":218181,"SoundDuration":218181,"Delta":554099562},{"NoteNumber":50,"Velocity":25,"Duration":224719,"SoundDuration":224719,"Delta":554535926},{"NoteNumber":69,"Velocity":24,"Duration":212013,"SoundDuration":212013,"Delta":554985364},{"NoteNumber":74,"Velocity":28,"Duration":212013,"SoundDuration":212013,"Delta":554985364},{"NoteNumber":66,"Velocity":24,"Duration":212013,"SoundDuration":212013,"Delta":554985364},{"NoteNumber":54,"Velocity":19,"Duration":212013,"SoundDuration":212013,"Delta":554985364},{"NoteNumber":69,"Velocity":28,"Duration":223880,"SoundDuration":223880,"Delta":555409392},{"NoteNumber":66,"Velocity":24,"Duration":223880,"SoundDuration":223880,"Delta":555409392},{"NoteNumber":57,"Velocity":16,"Duration":223880,"SoundDuration":223880,"Delta":555409392},{"NoteNumber":62,"Velocity":19,"Duration":223880,"SoundDuration":223880,"Delta":555409392},{"NoteNumber":69,"Velocity":24,"Duration":918943,"SoundDuration":918943,"Delta":555857153},{"NoteNumber":66,"Velocity":24,"Duration":918943,"SoundDuration":918943,"Delta":555857153},{"NoteNumber":74,"Velocity":28,"Duration":918943,"SoundDuration":918943,"Delta":555857153},{"NoteNumber":50,"Velocity":25,"Duration":240963,"SoundDuration":240963,"Delta":555857153},{"NoteNumber":54,"Velocity":19,"Duration":232558,"SoundDuration":232558,"Delta":556339081},{"NoteNumber":74,"Velocity":28,"Duration":218977,"SoundDuration":218977,"Delta":556804197},{"NoteNumber":69,"Velocity":24,"Duration":218977,"SoundDuration":218977,"Delta":556804197},{"NoteNumber":66,"Velocity":24,"Duration":218977,"SoundDuration":218977,"Delta":556804197},{"NoteNumber":62,"Velocity":19,"Duration":218977,"SoundDuration":218977,"Delta":556804197},{"NoteNumber":57,"Velocity":16,"Duration":218977,"SoundDuration":218977,"Delta":556804197},{"NoteNumber":50,"Velocity":25,"Duration":224719,"SoundDuration":224719,"Delta":557242153},{"NoteNumber":74,"Velocity":28,"Duration":212013,"SoundDuration":212013,"Delta":557691591},{"NoteNumber":69,"Velocity":24,"Duration":212013,"SoundDuration":212013,"Delta":557691591},{"NoteNumber":66,"Velocity":24,"Duration":212013,"SoundDuration":212013,"Delta":557691591},{"NoteNumber":54,"Velocity":19,"Duration":212013,"SoundDuration":212013,"Delta":557691591},{"NoteNumber":66,"Velocity":24,"Duration":225563,"SoundDuration":225563,"Delta":558115619},{"NoteNumber":69,"Velocity":28,"Duration":225563,"SoundDuration":225563,"Delta":558115619},{"NoteNumber":57,"Velocity":16,"Duration":225563,"SoundDuration":225563,"Delta":558115619},{"NoteNumber":62,"Velocity":19,"Duration":225563,"SoundDuration":225563,"Delta":558115619},{"NoteNumber":74,"Velocity":28,"Duration":224719,"SoundDuration":224719,"Delta":558566747},{"NoteNumber":66,"Velocity":24,"Duration":224719,"SoundDuration":224719,"Delta":558566747},{"NoteNumber":69,"Velocity":24,"Duration":224719,"SoundDuration":224719,"Delta":558566747},{"NoteNumber":50,"Velocity":25,"Duration":224719,"SoundDuration":224719,"Delta":558566747},{"NoteNumber":66,"Velocity":23,"Duration":240963,"SoundDuration":240963,"Delta":559915061},{"NoteNumber":69,"Velocity":23,"Duration":240963,"SoundDuration":240963,"Delta":559915061},{"NoteNumber":74,"Velocity":26,"Duration":240963,"SoundDuration":240963,"Delta":559915061},{"NoteNumber":62,"Velocity":24,"Duration":240963,"SoundDuration":240963,"Delta":559915061},{"NoteNumber":50,"Velocity":20,"Duration":240963,"SoundDuration":240963,"Delta":559915061},{"NoteNumber":57,"Velocity":20,"Duration":240963,"SoundDuration":240963,"Delta":559915061},{"NoteNumber":69,"Velocity":21,"Duration":2162163,"SoundDuration":2162163,"Delta":561360845},{"NoteNumber":74,"Velocity":25,"Duration":2162163,"SoundDuration":2162163,"Delta":561360845},{"NoteNumber":66,"Velocity":21,"Duration":2162163,"SoundDuration":2162163,"Delta":561360845},{"NoteNumber":50,"Velocity":19,"Duration":2162163,"SoundDuration":2162163,"Delta":561360845},{"NoteNumber":57,"Velocity":19,"Duration":2162163,"SoundDuration":2162163,"Delta":561360845},{"NoteNumber":62,"Velocity":22,"Duration":2162163,"SoundDuration":2162163,"Delta":561360845}],"license":{"name":"Creative Commons Attribution-ShareAlike 3.0 Germany","url":"http://creativecommons.org/licenses/by-sa/3.0/de/deed.en","text":"The MIDI, audio (MP3, OGG) and video files of Bernd Krueger are licensed under the cc-by-sa Germany License. This means that you can use and adapt the files, as long as you attribute the copyright holder.\n\nName: Bernd Krueger\nSource: http://www.piano-midi.de\n\nThe distribution or public playback of the files is only allowed under identical license conditions.\n\nThe scores are open source.","attribution":"MIDI files by Bernd Krueger (piano-midi.de)","attributionUrl":"http://www.piano-midi.de"}}