{"title":"Sonata D850, 4. movement","artist":"Schubert","durationMs":546110,"midiSha256":"756a27708960c40deb22a4e3f64f50189271d6e3ba802c0596a61191393bda25","midiObject":[{"NoteNumber":62,"Velocity":34,"Duration":199999,"SoundDuration":199999,"Delta":0},{"NoteNumber":66,"Velocity":40,"Duration":199999,"SoundDuration":199999,"Delta":0},{"NoteNumber":66,"Velocity":32,"Duration":206422,"SoundDuration":206422,"Delta":533333},{"NoteNumber":57,"Velocity":27,"Duration":206422,"SoundDuration":206422,"Delta":533333},{"NoteNumber":62,"Velocity":34,"Duration":200892,"SoundDuration":200892,"Delta":1083792},{"NoteNumber":66,"Velocity":40,"Duration":200892,"SoundDuration":200892,"Delta":1083792},{"NoteNumber":66,"Velocity":34,"Duration":209302,"SoundDuration":209302,"Delta":1619506},{"NoteNumber":57,"Velocity":28,"Duration":209302,"SoundDuration":209302,"Delta":1619506},{"NoteNumber":62,"Velocity":34,"Duration":199114,"SoundDuration":199114,"Delta":2177646},{"NoteNumber":66,"Velocity":40,"Duration":199114,"SoundDuration":199114,"Delta":2177646},{"NoteNumber":66,"Velocity":34,"Duration":208333,"SoundDuration":208333,"Delta":2708619},{"NoteNumber":57,"Velocity":28,"Duration":208333,"SoundDuration":208333,"Delta":2708619},{"NoteNumber":81,"Velocity":55,"Duration":399999,"SoundDuration":399999,"Delta":3264175},{"NoteNumber":66,"Velocity":40,"Duration":266666,"SoundDuration":266666,"Delta":3264175},{"NoteNumber":62,"Velocity":34,"Duration":266666,"SoundDuration":266666,"Delta":3264175},{"NoteNumber":83,"Velocity":51,"Duration":133333,"SoundDuration":133333,"Delta":3664174},{"NoteNumber":81,"Velocity":55,"Duration":416667,"SoundDuration":416667,"Delta":3797508},{"NoteNumber":66,"Velocity":37,"Duration":277777,"SoundDuration":277777,"Delta":3797508},{"NoteNumber":57,"Velocity":31,"Duration":277777,"SoundDuration":277777,"Delta":3797508},{"NoteNumber":78,"Velocity":48,"Duration":138888,"SoundDuration":138888,"Delta":4214175},{"NoteNumber":74,"Velocity":55,"Duration":266666,"SoundDuration":266666,"Delta":4353064},{"NoteNumber":62,"Velocity":34,"Duration":266666,"SoundDuration":266666,"Delta":4353064},{"NoteNumber":66,"Velocity":40,"Duration":266666,"SoundDuration":266666,"Delta":4353064},{"NoteNumber":74,"Velocity":49,"Duration":276497,"SoundDuration":276497,"Delta":4886397},{"NoteNumber":57,"Velocity":29,"Duration":276497,"SoundDuration":276497,"Delta":4886397},{"NoteNumber":66,"Velocity":35,"Duration":276497,"SoundDuration":276497,"Delta":4886397},{"NoteNumber":74,"Velocity":50,"Duration":69124,"SoundDuration":69124,"Delta":5370267},{"NoteNumber":73,"Velocity":57,"Duration":401785,"SoundDuration":401785,"Delta":5439392},{"NoteNumber":64,"Velocity":34,"Duration":267857,"SoundDuration":267857,"Delta":5439392},{"NoteNumber":67,"Velocity":40,"Duration":267857,"SoundDuration":267857,"Delta":5439392},{"NoteNumber":71,"Velocity":51,"Duration":133928,"SoundDuration":133928,"Delta":5841177},{"NoteNumber":73,"Velocity":55,"Duration":414746,"SoundDuration":414746,"Delta":5975106},{"NoteNumber":67,"Velocity":35,"Duration":276497,"SoundDuration":276497,"Delta":5975106},{"NoteNumber":57,"Velocity":29,"Duration":276497,"SoundDuration":276497,"Delta":5975106},{"NoteNumber":76,"Velocity":55,"Duration":138248,"SoundDuration":138248,"Delta":6389852},{"NoteNumber":69,"Velocity":60,"Duration":535713,"SoundDuration":535713,"Delta":6528101},{"NoteNumber":62,"Velocity":34,"Duration":267857,"SoundDuration":267857,"Delta":6528101},{"NoteNumber":66,"Velocity":40,"Duration":267857,"SoundDuration":267857,"Delta":6528101},{"NoteNumber":74,"Velocity":55,"Duration":279069,"SoundDuration":279069,"Delta":7063815},{"NoteNumber":66,"Velocity":34,"Duration":279069,"SoundDuration":279069,"Delta":7063815},{"NoteNumber":57,"Velocity":28,"Duration":279069,"SoundDuration":279069,"Delta":7063815},{"NoteNumber":76,"Velocity":59,"Duration":403587,"SoundDuration":403587,"Delta":7621955},{"NoteNumber":67,"Velocity":40,"Duration":269058,"SoundDuration":269058,"Delta":7621955},{"NoteNumber":61,"Velocity":34,"Duration":269058,"SoundDuration":269058,"Delta":7621955},{"NoteNumber":79,"Velocity":57,"Duration":56053,"SoundDuration":56053,"Delta":8025542},{"NoteNumber":79,"Velocity":45,"Duration":67264,"SoundDuration":67264,"Delta":8092807},{"NoteNumber":83,"Velocity":66,"Duration":410958,"SoundDuration":410958,"Delta":8160072},{"NoteNumber":57,"Velocity":30,"Duration":273972,"SoundDuration":273972,"Delta":8160072},{"NoteNumber":67,"Velocity":36,"Duration":273972,"SoundDuration":273972,"Delta":8160072},{"NoteNumber":81,"Velocity":56,"Duration":131516,"SoundDuration":131516,"Delta":8571030},{"NoteNumber":81,"Velocity":63,"Duration":266666,"SoundDuration":266666,"Delta":8713210},{"NoteNumber":62,"Velocity":34,"Duration":266666,"SoundDuration":266666,"Delta":8713210},{"NoteNumber":66,"Velocity":40,"Duration":266666,"SoundDuration":266666,"Delta":8713210},{"NoteNumber":81,"Velocity":52,"Duration":276497,"SoundDuration":276497,"Delta":9246543},{"NoteNumber":57,"Velocity":29,"Duration":276497,"SoundDuration":276497,"Delta":9246543},{"NoteNumber":66,"Velocity":35,"Duration":276497,"SoundDuration":276497,"Delta":9246543},{"NoteNumber":85,"Velocity":53,"Duration":69124,"SoundDuration":69124,"Delta":9730414},{"NoteNumber":83,"Velocity":68,"Duration":401785,"SoundDuration":401785,"Delta":9799538},{"NoteNumber":67,"Velocity":40,"Duration":267856,"SoundDuration":267856,"Delta":9799538},{"NoteNumber":62,"Velocity":34,"Duration":267856,"SoundDuration":267856,"Delta":9799538},{"NoteNumber":55,"Velocity":34,"Duration":267856,"SoundDuration":267856,"Delta":9799538},{"NoteNumber":82,"Velocity":57,"Duration":133928,"SoundDuration":133928,"Delta":10201324},{"NoteNumber":83,"Velocity":68,"Duration":414746,"SoundDuration":414746,"Delta":10335252},{"NoteNumber":67,"Velocity":35,"Duration":276497,"SoundDuration":276497,"Delta":10335252},{"NoteNumber":59,"Velocity":29,"Duration":276497,"SoundDuration":276497,"Delta":10335252},{"NoteNumber":62,"Velocity":29,"Duration":276497,"SoundDuration":276497,"Delta":10335252},{"NoteNumber":86,"Velocity":64,"Duration":138248,"SoundDuration":138248,"Delta":10749999},{"NoteNumber":81,"Velocity":67,"Duration":1093854,"SoundDuration":1093854,"Delta":10888247},{"NoteNumber":62,"Velocity":34,"Duration":267856,"SoundDuration":267856,"Delta":10888247},{"NoteNumber":66,"Velocity":40,"Duration":267856,"SoundDuration":267856,"Delta":10888247},{"NoteNumber":66,"Velocity":34,"Duration":279070,"SoundDuration":279070,"Delta":11423961},{"NoteNumber":57,"Velocity":28,"Duration":279070,"SoundDuration":279070,"Delta":11423961},{"NoteNumber":81,"Velocity":55,"Duration":403587,"SoundDuration":403587,"Delta":11982101},{"NoteNumber":66,"Velocity":40,"Duration":269058,"SoundDuration":269058,"Delta":11982101},{"NoteNumber":62,"Velocity":34,"Duration":269058,"SoundDuration":269058,"Delta":11982101},{"NoteNumber":83,"Velocity":49,"Duration":134529,"SoundDuration":134529,"Delta":12385689},{"NoteNumber":81,"Velocity":60,"Duration":410958,"SoundDuration":410958,"Delta":12520218},{"NoteNumber":57,"Velocity":30,"Duration":273972,"SoundDuration":273972,"Delta":12520218},{"NoteNumber":66,"Velocity":36,"Duration":273972,"SoundDuration":273972,"Delta":12520218},{"NoteNumber":78,"Velocity":57,"Duration":142179,"SoundDuration":142179,"Delta":12931177},{"NoteNumber":74,"Velocity":55,"Duration":266666,"SoundDuration":266666,"Delta":13073357},{"NoteNumber":66,"Velocity":40,"Duration":266666,"SoundDuration":266666,"Delta":13073357},{"NoteNumber":62,"Velocity":34,"Duration":266666,"SoundDuration":266666,"Delta":13073357},{"NoteNumber":74,"Velocity":49,"Duration":276497,"SoundDuration":276497,"Delta":13606690},{"NoteNumber":57,"Velocity":29,"Duration":276497,"SoundDuration":276497,"Delta":13606690},{"NoteNumber":66,"Velocity":35,"Duration":276497,"SoundDuration":276497,"Delta":13606690},{"NoteNumber":73,"Velocity":57,"Duration":401785,"SoundDuration":401785,"Delta":14159685},{"NoteNumber":64,"Velocity":34,"Duration":267856,"SoundDuration":267856,"Delta":14159685},{"NoteNumber":67,"Velocity":40,"Duration":267856,"SoundDuration":267856,"Delta":14159685},{"NoteNumber":71,"Velocity":51,"Duration":133928,"SoundDuration":133928,"Delta":14561471},{"NoteNumber":73,"Velocity":62,"Duration":414746,"SoundDuration":414746,"Delta":14695399},{"NoteNumber":67,"Velocity":35,"Duration":276497,"SoundDuration":276497,"Delta":14695399},{"NoteNumber":57,"Velocity":29,"Duration":276497,"SoundDuration":276497,"Delta":14695399},{"NoteNumber":78,"Velocity":59,"Duration":141025,"SoundDuration":141025,"Delta":15110145},{"NoteNumber":78,"Velocity":69,"Duration":1132303,"SoundDuration":1132303,"Delta":15263992},{"NoteNumber":66,"Velocity":40,"Duration":287081,"SoundDuration":287081,"Delta":15263992},{"NoteNumber":58,"Velocity":34,"Duration":287081,"SoundDuration":287081,"Delta":15263992},{"NoteNumber":58,"Velocity":28,"Duration":279069,"SoundDuration":279069,"Delta":15838155},{"NoteNumber":61,"Velocity":34,"Duration":279069,"SoundDuration":279069,"Delta":15838155},{"NoteNumber":79,"Velocity":69,"Duration":174672,"SoundDuration":174672,"Delta":16396295},{"NoteNumber":59,"Velocity":34,"Duration":262008,"SoundDuration":262008,"Delta":16396295},{"NoteNumber":62,"Velocity":40,"Duration":262008,"SoundDuration":262008,"Delta":16396295},{"NoteNumber":83,"Velocity":61,"Duration":174672,"SoundDuration":174672,"Delta":16570967},{"NoteNumber":88,"Velocity":61,"Duration":174672,"SoundDuration":174672,"Delta":16745639},{"NoteNumber":62,"Velocity":30,"Duration":267856,"SoundDuration":267856,"Delta":16920312},{"NoteNumber":55,"Velocity":30,"Duration":267856,"SoundDuration":267856,"Delta":16920312},{"NoteNumber":67,"Velocity":36,"Duration":267856,"SoundDuration":267856,"Delta":16920312},{"NoteNumber":86,"Velocity":69,"Duration":178571,"SoundDuration":178571,"Delta":16921428},{"NoteNumber":83,"Velocity":65,"Duration":178571,"SoundDuration":178571,"Delta":17098883},{"NoteNumber":79,"Velocity":58,"Duration":186822,"SoundDuration":186822,"Delta":17277454},{"NoteNumber":78,"Velocity":61,"Duration":262008,"SoundDuration":262008,"Delta":17464277},{"NoteNumber":66,"Velocity":40,"Duration":262008,"SoundDuration":262008,"Delta":17464277},{"NoteNumber":62,"Velocity":34,"Duration":262008,"SoundDuration":262008,"Delta":17464277},{"NoteNumber":78,"Velocity":58,"Duration":276497,"SoundDuration":276497,"Delta":17988294},{"NoteNumber":57,"Velocity":29,"Duration":276497,"SoundDuration":276497,"Delta":17988294},{"NoteNumber":66,"Velocity":35,"Duration":276497,"SoundDuration":276497,"Delta":17988294},{"NoteNumber":76,"Velocity":60,"Duration":176991,"SoundDuration":176991,"Delta":18541289},{"NoteNumber":67,"Velocity":40,"Duration":265486,"SoundDuration":265486,"Delta":18541289},{"NoteNumber":61,"Velocity":34,"Duration":265486,"SoundDuration":265486,"Delta":18541289},{"NoteNumber":79,"Velocity":56,"Duration":176990,"SoundDuration":176990,"Delta":18718280},{"NoteNumber":83,"Velocity":55,"Duration":176991,"SoundDuration":176991,"Delta":18895271},{"NoteNumber":81,"Velocity":64,"Duration":178571,"SoundDuration":178571,"Delta":19072262},{"NoteNumber":67,"Velocity":35,"Duration":267856,"SoundDuration":267856,"Delta":19072262},{"NoteNumber":57,"Velocity":29,"Duration":267856,"SoundDuration":267856,"Delta":19072262},{"NoteNumber":79,"Velocity":55,"Duration":178571,"SoundDuration":178571,"Delta":19250833},{"NoteNumber":73,"Velocity":56,"Duration":187500,"SoundDuration":187500,"Delta":19429405},{"NoteNumber":74,"Velocity":67,"Duration":1084456,"SoundDuration":1084456,"Delta":19616905},{"NoteNumber":62,"Velocity":34,"Duration":1072828,"SoundDuration":1072828,"Delta":19616905},{"NoteNumber":66,"Velocity":40,"Duration":1084456,"SoundDuration":1084456,"Delta":19616905},{"NoteNumber":62,"Velocity":68,"Duration":171673,"SoundDuration":171673,"Delta":20701361},{"NoteNumber":50,"Velocity":58,"Duration":171673,"SoundDuration":171673,"Delta":20701361},{"NoteNumber":66,"Velocity":58,"Duration":171673,"SoundDuration":171673,"Delta":20873034},{"NoteNumber":54,"Velocity":52,"Duration":171673,"SoundDuration":171673,"Delta":20873034},{"NoteNumber":71,"Velocity":58,"Duration":171673,"SoundDuration":171673,"Delta":21044708},{"NoteNumber":59,"Velocity":52,"Duration":171673,"SoundDuration":171673,"Delta":21044708},{"NoteNumber":69,"Velocity":68,"Duration":171673,"SoundDuration":171673,"Delta":21216382},{"NoteNumber":57,"Velocity":58,"Duration":171673,"SoundDuration":171673,"Delta":21216382},{"NoteNumber":66,"Velocity":58,"Duration":171673,"SoundDuration":171673,"Delta":21388055},{"NoteNumber":54,"Velocity":52,"Duration":171673,"SoundDuration":171673,"Delta":21388055},{"NoteNumber":62,"Velocity":58,"Duration":207254,"SoundDuration":207254,"Delta":21559729},{"NoteNumber":50,"Velocity":52,"Duration":207254,"SoundDuration":207254,"Delta":21559729},{"NoteNumber":64,"Velocity":69,"Duration":295566,"SoundDuration":295566,"Delta":21766983},{"NoteNumber":57,"Velocity":58,"Duration":295566,"SoundDuration":295566,"Delta":21766983},{"NoteNumber":49,"Velocity":49,"Duration":295566,"SoundDuration":295566,"Delta":21766983},{"NoteNumber":55,"Velocity":58,"Duration":295566,"SoundDuration":295566,"Delta":21766983},{"NoteNumber":64,"Velocity":64,"Duration":295566,"SoundDuration":295566,"Delta":22358116},{"NoteNumber":57,"Velocity":54,"Duration":295566,"SoundDuration":295566,"Delta":22358116},{"NoteNumber":45,"Velocity":47,"Duration":295566,"SoundDuration":295566,"Delta":22358116},{"NoteNumber":55,"Velocity":56,"Duration":295566,"SoundDuration":295566,"Delta":22358116},{"NoteNumber":64,"Velocity":68,"Duration":171673,"SoundDuration":171673,"Delta":22949249},{"NoteNumber":49,"Velocity":47,"Duration":257510,"SoundDuration":257510,"Delta":22949249},{"NoteNumber":55,"Velocity":56,"Duration":257510,"SoundDuration":257510,"Delta":22949249},{"NoteNumber":67,"Velocity":58,"Duration":171673,"SoundDuration":171673,"Delta":23120923},{"NoteNumber":73,"Velocity":58,"Duration":171673,"SoundDuration":171673,"Delta":23292596},{"NoteNumber":71,"Velocity":68,"Duration":171673,"SoundDuration":171673,"Delta":23464270},{"NoteNumber":45,"Velocity":47,"Duration":257510,"SoundDuration":257510,"Delta":23464270},{"NoteNumber":55,"Velocity":56,"Duration":257510,"SoundDuration":257510,"Delta":23464270},{"NoteNumber":67,"Velocity":58,"Duration":171673,"SoundDuration":171673,"Delta":23635944},{"NoteNumber":64,"Velocity":58,"Duration":207254,"SoundDuration":207254,"Delta":23807617},{"NoteNumber":57,"Velocity":52,"Duration":1159420,"SoundDuration":1159420,"Delta":24014871},{"NoteNumber":62,"Velocity":52,"Duration":1159420,"SoundDuration":1159420,"Delta":24014871},{"NoteNumber":66,"Velocity":62,"Duration":1159420,"SoundDuration":1159420,"Delta":24014871},{"NoteNumber":50,"Velocity":49,"Duration":289854,"SoundDuration":289854,"Delta":24014871},{"NoteNumber":54,"Velocity":58,"Duration":289854,"SoundDuration":289854,"Delta":24014871},{"NoteNumber":45,"Velocity":47,"Duration":289855,"SoundDuration":289855,"Delta":24594581},{"NoteNumber":54,"Velocity":56,"Duration":289855,"SoundDuration":289855,"Delta":24594581},{"NoteNumber":74,"Velocity":75,"Duration":171673,"SoundDuration":171673,"Delta":25174291},{"NoteNumber":54,"Velocity":56,"Duration":257510,"SoundDuration":257510,"Delta":25174291},{"NoteNumber":50,"Velocity":47,"Duration":257510,"SoundDuration":257510,"Delta":25174291},{"NoteNumber":78,"Velocity":58,"Duration":171673,"SoundDuration":171673,"Delta":25345965},{"NoteNumber":83,"Velocity":58,"Duration":171673,"SoundDuration":171673,"Delta":25517639},{"NoteNumber":81,"Velocity":68,"Duration":171673,"SoundDuration":171673,"Delta":25689312},{"NoteNumber":57,"Velocity":56,"Duration":257510,"SoundDuration":257510,"Delta":25689312},{"NoteNumber":54,"Velocity":47,"Duration":257510,"SoundDuration":257510,"Delta":25689312},{"NoteNumber":78,"Velocity":58,"Duration":171673,"SoundDuration":171673,"Delta":25860986},{"NoteNumber":74,"Velocity":58,"Duration":191387,"SoundDuration":191387,"Delta":26032660},{"NoteNumber":73,"Velocity":75,"Duration":171673,"SoundDuration":171673,"Delta":26224047},{"NoteNumber":52,"Velocity":47,"Duration":257510,"SoundDuration":257510,"Delta":26224047},{"NoteNumber":61,"Velocity":56,"Duration":257510,"SoundDuration":257510,"Delta":26224047},{"NoteNumber":69,"Velocity":58,"Duration":171673,"SoundDuration":171673,"Delta":26395721},{"NoteNumber":78,"Velocity":58,"Duration":171673,"SoundDuration":171673,"Delta":26567395},{"NoteNumber":76,"Velocity":68,"Duration":171673,"SoundDuration":171673,"Delta":26739068},{"NoteNumber":61,"Velocity":56,"Duration":257510,"SoundDuration":257510,"Delta":26739068},{"NoteNumber":57,"Velocity":47,"Duration":257510,"SoundDuration":257510,"Delta":26739068},{"NoteNumber":73,"Velocity":58,"Duration":171673,"SoundDuration":171673,"Delta":26910742},{"NoteNumber":69,"Velocity":58,"Duration":188679,"SoundDuration":188679,"Delta":27082416},{"NoteNumber":68,"Velocity":75,"Duration":171673,"SoundDuration":171673,"Delta":27271095},{"NoteNumber":59,"Velocity":47,"Duration":257510,"SoundDuration":257510,"Delta":27271095},{"NoteNumber":62,"Velocity":56,"Duration":257510,"SoundDuration":257510,"Delta":27271095},{"NoteNumber":64,"Velocity":58,"Duration":171673,"SoundDuration":171673,"Delta":27442769},{"NoteNumber":68,"Velocity":58,"Duration":171673,"SoundDuration":171673,"Delta":27614442},{"NoteNumber":76,"Velocity":68,"Duration":171673,"SoundDuration":171673,"Delta":27786116},{"NoteNumber":62,"Velocity":56,"Duration":257510,"SoundDuration":257510,"Delta":27786116},{"NoteNumber":52,"Velocity":47,"Duration":257510,"SoundDuration":257510,"Delta":27786116},{"NoteNumber":74,"Velocity":58,"Duration":171673,"SoundDuration":171673,"Delta":27957790},{"NoteNumber":71,"Velocity":58,"Duration":207254,"SoundDuration":207254,"Delta":28129463},{"NoteNumber":69,"Velocity":68,"Duration":568719,"SoundDuration":568719,"Delta":28336717},{"NoteNumber":57,"Velocity":56,"Duration":1139294,"SoundDuration":1139294,"Delta":28336717},{"NoteNumber":61,"Velocity":63,"Duration":1142882,"SoundDuration":1142882,"Delta":28336717},{"NoteNumber":73,"Velocity":51,"Duration":287081,"SoundDuration":287081,"Delta":28905437},{"NoteNumber":76,"Velocity":61,"Duration":287081,"SoundDuration":287081,"Delta":28905437},{"NoteNumber":73,"Velocity":51,"Duration":257510,"SoundDuration":257510,"Delta":29479600},{"NoteNumber":76,"Velocity":61,"Duration":257510,"SoundDuration":257510,"Delta":29479600},{"NoteNumber":69,"Velocity":51,"Duration":257510,"SoundDuration":257510,"Delta":29479600},{"NoteNumber":57,"Velocity":68,"Duration":171673,"SoundDuration":171673,"Delta":29479600},{"NoteNumber":61,"Velocity":58,"Duration":171673,"SoundDuration":171673,"Delta":29651274},{"NoteNumber":66,"Velocity":58,"Duration":171673,"SoundDuration":171673,"Delta":29822948},{"NoteNumber":73,"Velocity":51,"Duration":257510,"SoundDuration":257510,"Delta":29994621},{"NoteNumber":76,"Velocity":61,"Duration":257510,"SoundDuration":257510,"Delta":29994621},{"NoteNumber":64,"Velocity":68,"Duration":171673,"SoundDuration":171673,"Delta":29994621},{"NoteNumber":61,"Velocity":58,"Duration":171673,"SoundDuration":171673,"Delta":30166295},{"NoteNumber":57,"Velocity":58,"Duration":207254,"SoundDuration":207254,"Delta":30337969},{"NoteNumber":74,"Velocity":55,"Duration":295566,"SoundDuration":295566,"Delta":30545223},{"NoteNumber":78,"Velocity":65,"Duration":295566,"SoundDuration":295566,"Delta":30545223},{"NoteNumber":57,"Velocity":72,"Duration":591132,"SoundDuration":591132,"Delta":30545223},{"NoteNumber":74,"Velocity":47,"Duration":295566,"SoundDuration":295566,"Delta":31136356},{"NoteNumber":71,"Velocity":47,"Duration":295566,"SoundDuration":295566,"Delta":31136356},{"NoteNumber":76,"Velocity":56,"Duration":295566,"SoundDuration":295566,"Delta":31136356},{"NoteNumber":56,"Velocity":64,"Duration":295566,"SoundDuration":295566,"Delta":31136356},{"NoteNumber":68,"Velocity":51,"Duration":257510,"SoundDuration":257510,"Delta":31727489},{"NoteNumber":71,"Velocity":51,"Duration":257510,"SoundDuration":257510,"Delta":31727489},{"NoteNumber":76,"Velocity":61,"Duration":257510,"SoundDuration":257510,"Delta":31727489},{"NoteNumber":59,"Velocity":68,"Duration":171673,"SoundDuration":171673,"Delta":31727489},{"NoteNumber":62,"Velocity":58,"Duration":171673,"SoundDuration":171673,"Delta":31899162},{"NoteNumber":66,"Velocity":58,"Duration":171673,"SoundDuration":171673,"Delta":32070836},{"NoteNumber":74,"Velocity":51,"Duration":257510,"SoundDuration":257510,"Delta":32242510},{"NoteNumber":71,"Velocity":51,"Duration":257510,"SoundDuration":257510,"Delta":32242510},{"NoteNumber":76,"Velocity":61,"Duration":257510,"SoundDuration":257510,"Delta":32242510},{"NoteNumber":64,"Velocity":68,"Duration":171673,"SoundDuration":171673,"Delta":32242510},{"NoteNumber":62,"Velocity":58,"Duration":171673,"SoundDuration":171673,"Delta":32414183},{"NoteNumber":59,"Velocity":58,"Duration":207253,"SoundDuration":207253,"Delta":32585857},{"NoteNumber":78,"Velocity":65,"Duration":287081,"SoundDuration":287081,"Delta":32793111},{"NoteNumber":73,"Velocity":55,"Duration":287081,"SoundDuration":287081,"Delta":32793111},{"NoteNumber":69,"Velocity":55,"Duration":287081,"SoundDuration":287081,"Delta":32793111},{"NoteNumber":61,"Velocity":72,"Duration":574162,"SoundDuration":574162,"Delta":32793111},{"NoteNumber":69,"Velocity":47,"Duration":292682,"SoundDuration":292682,"Delta":33367274},{"NoteNumber":76,"Velocity":56,"Duration":292682,"SoundDuration":292682,"Delta":33367274},{"NoteNumber":73,"Velocity":47,"Duration":292682,"SoundDuration":292682,"Delta":33367274},{"NoteNumber":57,"Velocity":64,"Duration":292682,"SoundDuration":292682,"Delta":33367274},{"NoteNumber":73,"Velocity":47,"Duration":257510,"SoundDuration":257510,"Delta":33952640},{"NoteNumber":81,"Velocity":56,"Duration":257510,"SoundDuration":257510,"Delta":33952640},{"NoteNumber":76,"Velocity":47,"Duration":257510,"SoundDuration":257510,"Delta":33952640},{"NoteNumber":69,"Velocity":47,"Duration":257510,"SoundDuration":257510,"Delta":33952640},{"NoteNumber":55,"Velocity":63,"Duration":171673,"SoundDuration":171673,"Delta":33952640},{"NoteNumber":61,"Velocity":54,"Duration":171673,"SoundDuration":171673,"Delta":34124314},{"NoteNumber":66,"Velocity":54,"Duration":171673,"SoundDuration":171673,"Delta":34295987},{"NoteNumber":73,"Velocity":51,"Duration":257510,"SoundDuration":257510,"Delta":34467661},{"NoteNumber":76,"Velocity":51,"Duration":257510,"SoundDuration":257510,"Delta":34467661},{"NoteNumber":81,"Velocity":61,"Duration":257510,"SoundDuration":257510,"Delta":34467661},{"NoteNumber":69,"Velocity":51,"Duration":257510,"SoundDuration":257510,"Delta":34467661},{"NoteNumber":64,"Velocity":61,"Duration":171673,"SoundDuration":171673,"Delta":34467661},{"NoteNumber":61,"Velocity":59,"Duration":171673,"SoundDuration":171673,"Delta":34639335},{"NoteNumber":55,"Velocity":62,"Duration":191387,"SoundDuration":191387,"Delta":34811008},{"NoteNumber":74,"Velocity":59,"Duration":257510,"SoundDuration":257510,"Delta":35002396},{"NoteNumber":81,"Velocity":70,"Duration":257510,"SoundDuration":257510,"Delta":35002396},{"NoteNumber":69,"Velocity":59,"Duration":257510,"SoundDuration":257510,"Delta":35002396},{"NoteNumber":54,"Velocity":67,"Duration":171673,"SoundDuration":171673,"Delta":35002396},{"NoteNumber":57,"Velocity":58,"Duration":171673,"SoundDuration":171673,"Delta":35174070},{"NoteNumber":62,"Velocity":58,"Duration":171673,"SoundDuration":171673,"Delta":35345743},{"NoteNumber":71,"Velocity":51,"Duration":257510,"SoundDuration":257510,"Delta":35517417},{"NoteNumber":83,"Velocity":61,"Duration":257510,"SoundDuration":257510,"Delta":35517417},{"NoteNumber":74,"Velocity":51,"Duration":257510,"SoundDuration":257510,"Delta":35517417},{"NoteNumber":53,"Velocity":65,"Duration":171673,"SoundDuration":171673,"Delta":35517417},{"NoteNumber":57,"Velocity":52,"Duration":171673,"SoundDuration":171673,"Delta":35689091},{"NoteNumber":62,"Velocity":52,"Duration":188679,"SoundDuration":188679,"Delta":35860764},{"NoteNumber":73,"Velocity":63,"Duration":257510,"SoundDuration":257510,"Delta":36049444},{"NoteNumber":76,"Velocity":74,"Duration":257510,"SoundDuration":257510,"Delta":36049444},{"NoteNumber":52,"Velocity":63,"Duration":171673,"SoundDuration":171673,"Delta":36049444},{"NoteNumber":57,"Velocity":52,"Duration":171673,"SoundDuration":171673,"Delta":36221117},{"NoteNumber":61,"Velocity":52,"Duration":171673,"SoundDuration":171673,"Delta":36392791},{"NoteNumber":80,"Velocity":56,"Duration":257510,"SoundDuration":257510,"Delta":36564465},{"NoteNumber":68,"Velocity":47,"Duration":257510,"SoundDuration":257510,"Delta":36564465},{"NoteNumber":76,"Velocity":47,"Duration":257510,"SoundDuration":257510,"Delta":36564465},{"NoteNumber":74,"Velocity":47,"Duration":257510,"SoundDuration":257510,"Delta":36564465},{"NoteNumber":64,"Velocity":60,"Duration":171673,"SoundDuration":171673,"Delta":36564465},{"NoteNumber":62,"Velocity":52,"Duration":171673,"SoundDuration":171673,"Delta":36736138},{"NoteNumber":59,"Velocity":52,"Duration":207253,"SoundDuration":207253,"Delta":36907812},{"NoteNumber":73,"Velocity":51,"Duration":1159852,"SoundDuration":1159852,"Delta":37115066},{"NoteNumber":81,"Velocity":61,"Duration":1159852,"SoundDuration":1159852,"Delta":37115066},{"NoteNumber":76,"Velocity":51,"Duration":1159852,"SoundDuration":1159852,"Delta":37115066},{"NoteNumber":69,"Velocity":51,"Duration":566350,"SoundDuration":566350,"Delta":37115066},{"NoteNumber":57,"Velocity":62,"Duration":566350,"SoundDuration":566350,"Delta":37115066},{"NoteNumber":69,"Velocity":54,"Duration":591132,"SoundDuration":591132,"Delta":37683786},{"NoteNumber":61,"Velocity":45,"Duration":591132,"SoundDuration":591132,"Delta":37683786},{"NoteNumber":57,"Velocity":45,"Duration":591132,"SoundDuration":591132,"Delta":37683786},{"NoteNumber":59,"Velocity":41,"Duration":631579,"SoundDuration":631579,"Delta":38274919},{"NoteNumber":68,"Velocity":49,"Duration":631579,"SoundDuration":631579,"Delta":38274919},{"NoteNumber":62,"Velocity":41,"Duration":631579,"SoundDuration":631579,"Delta":38274919},{"NoteNumber":64,"Velocity":39,"Duration":681817,"SoundDuration":681817,"Delta":38906498},{"NoteNumber":67,"Velocity":47,"Duration":681817,"SoundDuration":681817,"Delta":38906498},{"NoteNumber":61,"Velocity":39,"Duration":681817,"SoundDuration":681817,"Delta":38906498},{"NoteNumber":66,"Velocity":40,"Duration":199114,"SoundDuration":199114,"Delta":39588316},{"NoteNumber":62,"Velocity":34,"Duration":199114,"SoundDuration":199114,"Delta":39588316},{"NoteNumber":66,"Velocity":34,"Duration":208333,"SoundDuration":208333,"Delta":40119289},{"NoteNumber":57,"Velocity":28,"Duration":208333,"SoundDuration":208333,"Delta":40119289},{"NoteNumber":81,"Velocity":55,"Duration":399999,"SoundDuration":399999,"Delta":40674845},{"NoteNumber":66,"Velocity":40,"Duration":266666,"SoundDuration":266666,"Delta":40674845},{"NoteNumber":62,"Velocity":34,"Duration":266666,"SoundDuration":266666,"Delta":40674845},{"NoteNumber":83,"Velocity":51,"Duration":133333,"SoundDuration":133333,"Delta":41074845},{"NoteNumber":81,"Velocity":55,"Duration":416666,"SoundDuration":416666,"Delta":41208178},{"NoteNumber":66,"Velocity":37,"Duration":277777,"SoundDuration":277777,"Delta":41208178},{"NoteNumber":57,"Velocity":31,"Duration":277777,"SoundDuration":277777,"Delta":41208178},{"NoteNumber":78,"Velocity":48,"Duration":138889,"SoundDuration":138889,"Delta":41624845},{"NoteNumber":74,"Velocity":55,"Duration":266666,"SoundDuration":266666,"Delta":41763734},{"NoteNumber":62,"Velocity":34,"Duration":266666,"SoundDuration":266666,"Delta":41763734},{"NoteNumber":66,"Velocity":40,"Duration":266666,"SoundDuration":266666,"Delta":41763734},{"NoteNumber":74,"Velocity":49,"Duration":276497,"SoundDuration":276497,"Delta":42297067},{"NoteNumber":57,"Velocity":29,"Duration":276497,"SoundDuration":276497,"Delta":42297067},{"NoteNumber":66,"Velocity":35,"Duration":276497,"SoundDuration":276497,"Delta":42297067},{"NoteNumber":74,"Velocity":50,"Duration":69124,"SoundDuration":69124,"Delta":42780938},{"NoteNumber":73,"Velocity":57,"Duration":401785,"SoundDuration":401785,"Delta":42850062},{"NoteNumber":67,"Velocity":40,"Duration":267856,"SoundDuration":267856,"Delta":42850062},{"NoteNumber":64,"Velocity":34,"Duration":267856,"SoundDuration":267856,"Delta":42850062},{"NoteNumber":71,"Velocity":51,"Duration":133928,"SoundDuration":133928,"Delta":43251848},{"NoteNumber":73,"Velocity":55,"Duration":414746,"SoundDuration":414746,"Delta":43385776},{"NoteNumber":57,"Velocity":29,"Duration":276497,"SoundDuration":276497,"Delta":43385776},{"NoteNumber":67,"Velocity":35,"Duration":276497,"SoundDuration":276497,"Delta":43385776},{"NoteNumber":76,"Velocity":55,"Duration":138248,"SoundDuration":138248,"Delta":43800522},{"NoteNumber":69,"Velocity":60,"Duration":535713,"SoundDuration":535713,"Delta":43938771},{"NoteNumber":62,"Velocity":34,"Duration":267856,"SoundDuration":267856,"Delta":43938771},{"NoteNumber":66,"Velocity":40,"Duration":267856,"SoundDuration":267856,"Delta":43938771},{"NoteNumber":74,"Velocity":55,"Duration":279069,"SoundDuration":279069,"Delta":44474485},{"NoteNumber":57,"Velocity":28,"Duration":279069,"SoundDuration":279069,"Delta":44474485},{"NoteNumber":66,"Velocity":34,"Duration":279069,"SoundDuration":279069,"Delta":44474485},{"NoteNumber":76,"Velocity":59,"Duration":403587,"SoundDuration":403587,"Delta":45032625},{"NoteNumber":61,"Velocity":34,"Duration":269058,"SoundDuration":269058,"Delta":45032625},{"NoteNumber":67,"Velocity":40,"Duration":269058,"SoundDuration":269058,"Delta":45032625},{"NoteNumber":79,"Velocity":57,"Duration":56053,"SoundDuration":56053,"Delta":45436213},{"NoteNumber":79,"Velocity":45,"Duration":67264,"SoundDuration":67264,"Delta":45503477},{"NoteNumber":83,"Velocity":66,"Duration":410958,"SoundDuration":410958,"Delta":45570742},{"NoteNumber":57,"Velocity":30,"Duration":273972,"SoundDuration":273972,"Delta":45570742},{"NoteNumber":67,"Velocity":36,"Duration":273972,"SoundDuration":273972,"Delta":45570742},{"NoteNumber":81,"Velocity":56,"Duration":138888,"SoundDuration":138888,"Delta":45981701},{"NoteNumber":81,"Velocity":66,"Duration":266666,"SoundDuration":266666,"Delta":46133216},{"NoteNumber":66,"Velocity":40,"Duration":266666,"SoundDuration":266666,"Delta":46133216},{"NoteNumber":62,"Velocity":34,"Duration":266666,"SoundDuration":266666,"Delta":46133216},{"NoteNumber":81,"Velocity":54,"Duration":276497,"SoundDuration":276497,"Delta":46666549},{"NoteNumber":57,"Velocity":29,"Duration":276497,"SoundDuration":276497,"Delta":46666549},{"NoteNumber":66,"Velocity":35,"Duration":276497,"SoundDuration":276497,"Delta":46666549},{"NoteNumber":85,"Velocity":53,"Duration":69124,"SoundDuration":69124,"Delta":47150420},{"NoteNumber":83,"Velocity":68,"Duration":401785,"SoundDuration":401785,"Delta":47219544},{"NoteNumber":67,"Velocity":40,"Duration":267856,"SoundDuration":267856,"Delta":47219544},{"NoteNumber":55,"Velocity":34,"Duration":267856,"SoundDuration":267856,"Delta":47219544},{"NoteNumber":62,"Velocity":34,"Duration":267856,"SoundDuration":267856,"Delta":47219544},{"NoteNumber":82,"Velocity":57,"Duration":133928,"SoundDuration":133928,"Delta":47621330},{"NoteNumber":83,"Velocity":68,"Duration":414746,"SoundDuration":414746,"Delta":47755258},{"NoteNumber":67,"Velocity":35,"Duration":276497,"SoundDuration":276497,"Delta":47755258},{"NoteNumber":62,"Velocity":29,"Duration":276497,"SoundDuration":276497,"Delta":47755258},{"NoteNumber":59,"Velocity":29,"Duration":276497,"SoundDuration":276497,"Delta":47755258},{"NoteNumber":86,"Velocity":66,"Duration":138248,"SoundDuration":138248,"Delta":48170004},{"NoteNumber":81,"Velocity":70,"Duration":1093854,"SoundDuration":1093854,"Delta":48308253},{"NoteNumber":62,"Velocity":34,"Duration":267856,"SoundDuration":267856,"Delta":48308253},{"NoteNumber":66,"Velocity":40,"Duration":267856,"SoundDuration":267856,"Delta":48308253},{"NoteNumber":57,"Velocity":28,"Duration":279069,"SoundDuration":279069,"Delta":48843967},{"NoteNumber":66,"Velocity":34,"Duration":279069,"SoundDuration":279069,"Delta":48843967},{"NoteNumber":81,"Velocity":49,"Duration":403587,"SoundDuration":403587,"Delta":49402107},{"NoteNumber":65,"Velocity":36,"Duration":269058,"SoundDuration":269058,"Delta":49402107},{"NoteNumber":62,"Velocity":30,"Duration":269058,"SoundDuration":269058,"Delta":49402107},{"NoteNumber":82,"Velocity":44,"Duration":134529,"SoundDuration":134529,"Delta":49805695},{"NoteNumber":81,"Velocity":53,"Duration":410958,"SoundDuration":410958,"Delta":49940224},{"NoteNumber":65,"Velocity":32,"Duration":273972,"SoundDuration":273972,"Delta":49940224},{"NoteNumber":57,"Velocity":27,"Duration":273972,"SoundDuration":273972,"Delta":49940224},{"NoteNumber":77,"Velocity":50,"Duration":142180,"SoundDuration":142180,"Delta":50351183},{"NoteNumber":74,"Velocity":49,"Duration":266666,"SoundDuration":266666,"Delta":50493363},{"NoteNumber":62,"Velocity":30,"Duration":266666,"SoundDuration":266666,"Delta":50493363},{"NoteNumber":65,"Velocity":36,"Duration":266666,"SoundDuration":266666,"Delta":50493363},{"NoteNumber":74,"Velocity":44,"Duration":276497,"SoundDuration":276497,"Delta":51026696},{"NoteNumber":65,"Velocity":31,"Duration":276497,"SoundDuration":276497,"Delta":51026696},{"NoteNumber":57,"Velocity":26,"Duration":276497,"SoundDuration":276497,"Delta":51026696},{"NoteNumber":74,"Velocity":52,"Duration":69124,"SoundDuration":69124,"Delta":51510566},{"NoteNumber":77,"Velocity":52,"Duration":401785,"SoundDuration":401785,"Delta":51579691},{"NoteNumber":69,"Velocity":52,"Duration":401785,"SoundDuration":401785,"Delta":51579691},{"NoteNumber":65,"Velocity":40,"Duration":267856,"SoundDuration":267856,"Delta":51579691},{"NoteNumber":60,"Velocity":34,"Duration":267856,"SoundDuration":267856,"Delta":51579691},{"NoteNumber":63,"Velocity":40,"Duration":267856,"SoundDuration":267856,"Delta":51579691},{"NoteNumber":77,"Velocity":57,"Duration":414746,"SoundDuration":414746,"Delta":52115405},{"NoteNumber":69,"Velocity":57,"Duration":414746,"SoundDuration":414746,"Delta":52115405},{"NoteNumber":53,"Velocity":29,"Duration":276497,"SoundDuration":276497,"Delta":52115405},{"NoteNumber":63,"Velocity":29,"Duration":276497,"SoundDuration":276497,"Delta":52115405},{"NoteNumber":60,"Velocity":29,"Duration":276497,"SoundDuration":276497,"Delta":52115405},{"NoteNumber":65,"Velocity":35,"Duration":276497,"SoundDuration":276497,"Delta":52115405},{"NoteNumber":77,"Velocity":65,"Duration":574162,"SoundDuration":574162,"Delta":52683997},{"NoteNumber":70,"Velocity":55,"Duration":574162,"SoundDuration":574162,"Delta":52683997},{"NoteNumber":65,"Velocity":40,"Duration":287081,"SoundDuration":287081,"Delta":52683997},{"NoteNumber":62,"Velocity":34,"Duration":287081,"SoundDuration":287081,"Delta":52683997},{"NoteNumber":58,"Velocity":34,"Duration":287081,"SoundDuration":287081,"Delta":52683997},{"NoteNumber":82,"Velocity":65,"Duration":279069,"SoundDuration":279069,"Delta":53258160},{"NoteNumber":62,"Velocity":28,"Duration":279069,"SoundDuration":279069,"Delta":53258160},{"NoteNumber":65,"Velocity":34,"Duration":279069,"SoundDuration":279069,"Delta":53258160},{"NoteNumber":86,"Velocity":71,"Duration":174672,"SoundDuration":174672,"Delta":53816300},{"NoteNumber":58,"Velocity":39,"Duration":262008,"SoundDuration":262008,"Delta":53816300},{"NoteNumber":62,"Velocity":39,"Duration":262008,"SoundDuration":262008,"Delta":53816300},{"NoteNumber":65,"Velocity":47,"Duration":262008,"SoundDuration":262008,"Delta":53816300},{"NoteNumber":88,"Velocity":59,"Duration":174672,"SoundDuration":174672,"Delta":53990973},{"NoteNumber":85,"Velocity":70,"Duration":174672,"SoundDuration":174672,"Delta":54165645},{"NoteNumber":62,"Velocity":39,"Duration":267856,"SoundDuration":267856,"Delta":54340317},{"NoteNumber":58,"Velocity":39,"Duration":267856,"SoundDuration":267856,"Delta":54340317},{"NoteNumber":68,"Velocity":47,"Duration":267856,"SoundDuration":267856,"Delta":54340317},{"NoteNumber":86,"Velocity":73,"Duration":178571,"SoundDuration":178571,"Delta":54341433},{"NoteNumber":88,"Velocity":76,"Duration":178571,"SoundDuration":178571,"Delta":54518889},{"NoteNumber":89,"Velocity":63,"Duration":186822,"SoundDuration":186822,"Delta":54697460},{"NoteNumber":81,"Velocity":72,"Duration":262008,"SoundDuration":262008,"Delta":54884283},{"NoteNumber":62,"Velocity":43,"Duration":262008,"SoundDuration":262008,"Delta":54884283},{"NoteNumber":69,"Velocity":51,"Duration":262008,"SoundDuration":262008,"Delta":54884283},{"NoteNumber":66,"Velocity":43,"Duration":262008,"SoundDuration":262008,"Delta":54884283},{"NoteNumber":81,"Velocity":65,"Duration":552995,"SoundDuration":552995,"Delta":55408300},{"NoteNumber":69,"Velocity":41,"Duration":276497,"SoundDuration":276497,"Delta":55408300},{"NoteNumber":66,"Velocity":34,"Duration":276497,"SoundDuration":276497,"Delta":55408300},{"NoteNumber":57,"Velocity":34,"Duration":276497,"SoundDuration":276497,"Delta":55408300},{"NoteNumber":76,"Velocity":70,"Duration":176991,"SoundDuration":176991,"Delta":55961295},{"NoteNumber":61,"Velocity":40,"Duration":265486,"SoundDuration":265486,"Delta":55961295},{"NoteNumber":67,"Velocity":40,"Duration":265486,"SoundDuration":265486,"Delta":55961295},{"NoteNumber":69,"Velocity":48,"Duration":265486,"SoundDuration":265486,"Delta":55961295},{"NoteNumber":79,"Velocity":63,"Duration":176991,"SoundDuration":176991,"Delta":56138286},{"NoteNumber":83,"Velocity":53,"Duration":176991,"SoundDuration":176991,"Delta":56315277},{"NoteNumber":81,"Velocity":70,"Duration":178571,"SoundDuration":178571,"Delta":56492268},{"NoteNumber":67,"Velocity":36,"Duration":267856,"SoundDuration":267856,"Delta":56492268},{"NoteNumber":69,"Velocity":43,"Duration":267856,"SoundDuration":267856,"Delta":56492268},{"NoteNumber":57,"Velocity":36,"Duration":267856,"SoundDuration":267856,"Delta":56492268},{"NoteNumber":79,"Velocity":60,"Duration":178571,"SoundDuration":178571,"Delta":56670839},{"NoteNumber":73,"Velocity":60,"Duration":187500,"SoundDuration":187500,"Delta":56849411},{"NoteNumber":81,"Velocity":70,"Duration":1116280,"SoundDuration":1116280,"Delta":57036911},{"NoteNumber":69,"Velocity":53,"Duration":279069,"SoundDuration":279069,"Delta":57036911},{"NoteNumber":66,"Velocity":45,"Duration":279069,"SoundDuration":279069,"Delta":57036911},{"NoteNumber":62,"Velocity":35,"Duration":279069,"SoundDuration":279069,"Delta":57595051},{"NoteNumber":69,"Velocity":41,"Duration":279069,"SoundDuration":279069,"Delta":57595051},{"NoteNumber":66,"Velocity":35,"Duration":279069,"SoundDuration":279069,"Delta":57595051},{"NoteNumber":79,"Velocity":66,"Duration":174672,"SoundDuration":174672,"Delta":58153191},{"NoteNumber":67,"Velocity":51,"Duration":262008,"SoundDuration":262008,"Delta":58153191},{"NoteNumber":62,"Velocity":43,"Duration":262008,"SoundDuration":262008,"Delta":58153191},{"NoteNumber":59,"Velocity":43,"Duration":262008,"SoundDuration":262008,"Delta":58153191},{"NoteNumber":83,"Velocity":59,"Duration":174672,"SoundDuration":174672,"Delta":58327863},{"NoteNumber":88,"Velocity":59,"Duration":174672,"SoundDuration":174672,"Delta":58502535},{"NoteNumber":55,"Velocity":37,"Duration":267856,"SoundDuration":267856,"Delta":58677208},{"NoteNumber":62,"Velocity":37,"Duration":267856,"SoundDuration":267856,"Delta":58677208},{"NoteNumber":67,"Velocity":44,"Duration":267856,"SoundDuration":267856,"Delta":58677208},{"NoteNumber":86,"Velocity":66,"Duration":178571,"SoundDuration":178571,"Delta":58678324},{"NoteNumber":83,"Velocity":62,"Duration":178571,"SoundDuration":178571,"Delta":58855779},{"NoteNumber":79,"Velocity":56,"Duration":186822,"SoundDuration":186822,"Delta":59034350},{"NoteNumber":78,"Velocity":61,"Duration":131004,"SoundDuration":131004,"Delta":59221173},{"NoteNumber":62,"Velocity":43,"Duration":262008,"SoundDuration":262008,"Delta":59221173},{"NoteNumber":66,"Velocity":51,"Duration":262008,"SoundDuration":262008,"Delta":59221173},{"NoteNumber":81,"Velocity":66,"Duration":262008,"SoundDuration":262008,"Delta":59352177},{"NoteNumber":81,"Velocity":67,"Duration":552995,"SoundDuration":552995,"Delta":59745190},{"NoteNumber":66,"Velocity":45,"Duration":276497,"SoundDuration":276497,"Delta":59745190},{"NoteNumber":57,"Velocity":38,"Duration":276497,"SoundDuration":276497,"Delta":59745190},{"NoteNumber":76,"Velocity":64,"Duration":176991,"SoundDuration":176991,"Delta":60298185},{"NoteNumber":67,"Velocity":53,"Duration":265486,"SoundDuration":265486,"Delta":60298185},{"NoteNumber":61,"Velocity":45,"Duration":265486,"SoundDuration":265486,"Delta":60298185},{"NoteNumber":79,"Velocity":59,"Duration":176991,"SoundDuration":176991,"Delta":60475176},{"NoteNumber":83,"Velocity":53,"Duration":176991,"SoundDuration":176991,"Delta":60652167},{"NoteNumber":81,"Velocity":67,"Duration":178571,"SoundDuration":178571,"Delta":60829158},{"NoteNumber":57,"Velocity":39,"Duration":267856,"SoundDuration":267856,"Delta":60829158},{"NoteNumber":67,"Velocity":46,"Duration":267856,"SoundDuration":267856,"Delta":60829158},{"NoteNumber":79,"Velocity":59,"Duration":178571,"SoundDuration":178571,"Delta":61007729},{"NoteNumber":73,"Velocity":59,"Duration":187500,"SoundDuration":187500,"Delta":61186301},{"NoteNumber":74,"Velocity":67,"Duration":1052632,"SoundDuration":1052632,"Delta":61373801},{"NoteNumber":66,"Velocity":59,"Duration":1052632,"SoundDuration":1052632,"Delta":61373801},{"NoteNumber":62,"Velocity":50,"Duration":1041667,"SoundDuration":1041667,"Delta":61373801},{"NoteNumber":62,"Velocity":68,"Duration":171673,"SoundDuration":171673,"Delta":62426433},{"NoteNumber":50,"Velocity":58,"Duration":171673,"SoundDuration":171673,"Delta":62426433},{"NoteNumber":66,"Velocity":58,"Duration":171673,"SoundDuration":171673,"Delta":62598107},{"NoteNumber":54,"Velocity":52,"Duration":171673,"SoundDuration":171673,"Delta":62598107},{"NoteNumber":71,"Velocity":58,"Duration":171673,"SoundDuration":171673,"Delta":62769780},{"NoteNumber":59,"Velocity":52,"Duration":171673,"SoundDuration":171673,"Delta":62769780},{"NoteNumber":69,"Velocity":68,"Duration":171673,"SoundDuration":171673,"Delta":62941454},{"NoteNumber":57,"Velocity":58,"Duration":171673,"SoundDuration":171673,"Delta":62941454},{"NoteNumber":66,"Velocity":58,"Duration":171673,"SoundDuration":171673,"Delta":63113128},{"NoteNumber":54,"Velocity":52,"Duration":171673,"SoundDuration":171673,"Delta":63113128},{"NoteNumber":62,"Velocity":58,"Duration":207253,"SoundDuration":207253,"Delta":63284801},{"NoteNumber":50,"Velocity":52,"Duration":207253,"SoundDuration":207253,"Delta":63284801},{"NoteNumber":64,"Velocity":69,"Duration":295566,"SoundDuration":295566,"Delta":63492055},{"NoteNumber":57,"Velocity":58,"Duration":295566,"SoundDuration":295566,"Delta":63492055},{"NoteNumber":49,"Velocity":49,"Duration":295566,"SoundDuration":295566,"Delta":63492055},{"NoteNumber":55,"Velocity":58,"Duration":295566,"SoundDuration":295566,"Delta":63492055},{"NoteNumber":64,"Velocity":64,"Duration":295566,"SoundDuration":295566,"Delta":64083188},{"NoteNumber":57,"Velocity":54,"Duration":295566,"SoundDuration":295566,"Delta":64083188},{"NoteNumber":45,"Velocity":47,"Duration":295566,"SoundDuration":295566,"Delta":64083188},{"NoteNumber":55,"Velocity":56,"Duration":295566,"SoundDuration":295566,"Delta":64083188},{"NoteNumber":64,"Velocity":68,"Duration":171673,"SoundDuration":171673,"Delta":64674321},{"NoteNumber":49,"Velocity":47,"Duration":257510,"SoundDuration":257510,"Delta":64674321},{"NoteNumber":55,"Velocity":56,"Duration":257510,"SoundDuration":257510,"Delta":64674321},{"NoteNumber":67,"Velocity":58,"Duration":171673,"SoundDuration":171673,"Delta":64845995},{"NoteNumber":73,"Velocity":58,"Duration":171673,"SoundDuration":171673,"Delta":65017669},{"NoteNumber":71,"Velocity":68,"Duration":171673,"SoundDuration":171673,"Delta":65189342},{"NoteNumber":45,"Velocity":47,"Duration":257510,"SoundDuration":257510,"Delta":65189342},{"NoteNumber":55,"Velocity":56,"Duration":257510,"SoundDuration":257510,"Delta":65189342},{"NoteNumber":67,"Velocity":58,"Duration":171673,"SoundDuration":171673,"Delta":65361016},{"NoteNumber":64,"Velocity":58,"Duration":207253,"SoundDuration":207253,"Delta":65532690},{"NoteNumber":66,"Velocity":62,"Duration":1159419,"SoundDuration":1159419,"Delta":65739944},{"NoteNumber":57,"Velocity":52,"Duration":1159419,"SoundDuration":1159419,"Delta":65739944},{"NoteNumber":62,"Velocity":52,"Duration":1159419,"SoundDuration":1159419,"Delta":65739944},{"NoteNumber":50,"Velocity":49,"Duration":289855,"SoundDuration":289855,"Delta":65739944},{"NoteNumber":54,"Velocity":58,"Duration":289855,"SoundDuration":289855,"Delta":65739944},{"NoteNumber":54,"Velocity":56,"Duration":289854,"SoundDuration":289854,"Delta":66319654},{"NoteNumber":45,"Velocity":47,"Duration":289854,"SoundDuration":289854,"Delta":66319654},{"NoteNumber":74,"Velocity":75,"Duration":171673,"SoundDuration":171673,"Delta":66899364},{"NoteNumber":54,"Velocity":56,"Duration":257510,"SoundDuration":257510,"Delta":66899364},{"NoteNumber":50,"Velocity":47,"Duration":257510,"SoundDuration":257510,"Delta":66899364},{"NoteNumber":78,"Velocity":58,"Duration":171673,"SoundDuration":171673,"Delta":67071037},{"NoteNumber":83,"Velocity":58,"Duration":171673,"SoundDuration":171673,"Delta":67242711},{"NoteNumber":81,"Velocity":68,"Duration":168990,"SoundDuration":168990,"Delta":67414385},{"NoteNumber":57,"Velocity":56,"Duration":253485,"SoundDuration":253485,"Delta":67414385},{"NoteNumber":54,"Velocity":47,"Duration":253485,"SoundDuration":253485,"Delta":67414385},{"NoteNumber":78,"Velocity":58,"Duration":168990,"SoundDuration":168990,"Delta":67583375},{"NoteNumber":74,"Velocity":58,"Duration":191387,"SoundDuration":191387,"Delta":67752365},{"NoteNumber":73,"Velocity":75,"Duration":171673,"SoundDuration":171673,"Delta":67943753},{"NoteNumber":52,"Velocity":47,"Duration":257510,"SoundDuration":257510,"Delta":67943753},{"NoteNumber":61,"Velocity":56,"Duration":257510,"SoundDuration":257510,"Delta":67943753},{"NoteNumber":69,"Velocity":58,"Duration":171673,"SoundDuration":171673,"Delta":68115427},{"NoteNumber":78,"Velocity":58,"Duration":171673,"SoundDuration":171673,"Delta":68287100},{"NoteNumber":76,"Velocity":68,"Duration":171673,"SoundDuration":171673,"Delta":68458774},{"NoteNumber":61,"Velocity":56,"Duration":257510,"SoundDuration":257510,"Delta":68458774},{"NoteNumber":57,"Velocity":47,"Duration":257510,"SoundDuration":257510,"Delta":68458774},{"NoteNumber":73,"Velocity":58,"Duration":171673,"SoundDuration":171673,"Delta":68630448},{"NoteNumber":69,"Velocity":58,"Duration":188679,"SoundDuration":188679,"Delta":68802121},{"NoteNumber":68,"Velocity":75,"Duration":171673,"SoundDuration":171673,"Delta":68990801},{"NoteNumber":62,"Velocity":56,"Duration":257510,"SoundDuration":257510,"Delta":68990801},{"NoteNumber":59,"Velocity":47,"Duration":257510,"SoundDuration":257510,"Delta":68990801},{"NoteNumber":64,"Velocity":58,"Duration":171673,"SoundDuration":171673,"Delta":69162474},{"NoteNumber":68,"Velocity":58,"Duration":171673,"SoundDuration":171673,"Delta":69334148},{"NoteNumber":76,"Velocity":68,"Duration":170474,"SoundDuration":170474,"Delta":69505822},{"NoteNumber":52,"Velocity":47,"Duration":253911,"SoundDuration":253911,"Delta":69505822},{"NoteNumber":62,"Velocity":56,"Duration":253911,"SoundDuration":253911,"Delta":69505822},{"NoteNumber":74,"Velocity":58,"Duration":166875,"SoundDuration":166875,"Delta":69676296},{"NoteNumber":71,"Velocity":58,"Duration":207253,"SoundDuration":207253,"Delta":69843171},{"NoteNumber":69,"Velocity":68,"Duration":568719,"SoundDuration":568719,"Delta":70050425},{"NoteNumber":61,"Velocity":63,"Duration":1142882,"SoundDuration":1142882,"Delta":70050425},{"NoteNumber":57,"Velocity":56,"Duration":1140490,"SoundDuration":1140490,"Delta":70050425},{"NoteNumber":73,"Velocity":51,"Duration":287081,"SoundDuration":287081,"Delta":70619145},{"NoteNumber":76,"Velocity":61,"Duration":287081,"SoundDuration":287081,"Delta":70619145},{"NoteNumber":69,"Velocity":51,"Duration":257510,"SoundDuration":257510,"Delta":71193308},{"NoteNumber":76,"Velocity":61,"Duration":257510,"SoundDuration":257510,"Delta":71193308},{"NoteNumber":73,"Velocity":51,"Duration":257510,"SoundDuration":257510,"Delta":71193308},{"NoteNumber":57,"Velocity":68,"Duration":171673,"SoundDuration":171673,"Delta":71193308},{"NoteNumber":61,"Velocity":58,"Duration":171673,"SoundDuration":171673,"Delta":71364982},{"NoteNumber":66,"Velocity":58,"Duration":171673,"SoundDuration":171673,"Delta":71536655},{"NoteNumber":73,"Velocity":51,"Duration":253485,"SoundDuration":253485,"Delta":71708329},{"NoteNumber":76,"Velocity":61,"Duration":253485,"SoundDuration":253485,"Delta":71708329},{"NoteNumber":64,"Velocity":68,"Duration":168990,"SoundDuration":168990,"Delta":71708329},{"NoteNumber":61,"Velocity":58,"Duration":168990,"SoundDuration":168990,"Delta":71877319},{"NoteNumber":57,"Velocity":58,"Duration":204663,"SoundDuration":204663,"Delta":72046310},{"NoteNumber":78,"Velocity":65,"Duration":295566,"SoundDuration":295566,"Delta":72253564},{"NoteNumber":74,"Velocity":55,"Duration":295566,"SoundDuration":295566,"Delta":72253564},{"NoteNumber":57,"Velocity":72,"Duration":591132,"SoundDuration":591132,"Delta":72253564},{"NoteNumber":71,"Velocity":47,"Duration":295566,"SoundDuration":295566,"Delta":72844697},{"NoteNumber":76,"Velocity":56,"Duration":295566,"SoundDuration":295566,"Delta":72844697},{"NoteNumber":74,"Velocity":47,"Duration":295566,"SoundDuration":295566,"Delta":72844697},{"NoteNumber":56,"Velocity":64,"Duration":295566,"SoundDuration":295566,"Delta":72844697},{"NoteNumber":71,"Velocity":51,"Duration":257510,"SoundDuration":257510,"Delta":73435830},{"NoteNumber":76,"Velocity":61,"Duration":257510,"SoundDuration":257510,"Delta":73435830},{"NoteNumber":68,"Velocity":51,"Duration":257510,"SoundDuration":257510,"Delta":73435830},{"NoteNumber":59,"Velocity":68,"Duration":171673,"SoundDuration":171673,"Delta":73435830},{"NoteNumber":62,"Velocity":58,"Duration":171673,"SoundDuration":171673,"Delta":73607503},{"NoteNumber":66,"Velocity":58,"Duration":171673,"SoundDuration":171673,"Delta":73779177},{"NoteNumber":71,"Velocity":51,"Duration":253911,"SoundDuration":253911,"Delta":73950851},{"NoteNumber":76,"Velocity":61,"Duration":253911,"SoundDuration":253911,"Delta":73950851},{"NoteNumber":74,"Velocity":51,"Duration":253911,"SoundDuration":253911,"Delta":73950851},{"NoteNumber":64,"Velocity":68,"Duration":170474,"SoundDuration":170474,"Delta":73950851},{"NoteNumber":62,"Velocity":58,"Duration":166875,"SoundDuration":166875,"Delta":74121325},{"NoteNumber":59,"Velocity":58,"Duration":213364,"SoundDuration":213364,"Delta":74288200},{"NoteNumber":78,"Velocity":65,"Duration":287081,"SoundDuration":287081,"Delta":74501565},{"NoteNumber":69,"Velocity":55,"Duration":287081,"SoundDuration":287081,"Delta":74501565},{"NoteNumber":73,"Velocity":55,"Duration":287081,"SoundDuration":287081,"Delta":74501565},{"NoteNumber":61,"Velocity":72,"Duration":574162,"SoundDuration":574162,"Delta":74501565},{"NoteNumber":73,"Velocity":47,"Duration":292682,"SoundDuration":292682,"Delta":75075728},{"NoteNumber":76,"Velocity":56,"Duration":292682,"SoundDuration":292682,"Delta":75075728},{"NoteNumber":69,"Velocity":47,"Duration":292682,"SoundDuration":292682,"Delta":75075728},{"NoteNumber":57,"Velocity":64,"Duration":292682,"SoundDuration":292682,"Delta":75075728},{"NoteNumber":81,"Velocity":56,"Duration":257510,"SoundDuration":257510,"Delta":75661094},{"NoteNumber":76,"Velocity":47,"Duration":257510,"SoundDuration":257510,"Delta":75661094},{"NoteNumber":69,"Velocity":47,"Duration":257510,"SoundDuration":257510,"Delta":75661094},{"NoteNumber":73,"Velocity":47,"Duration":257510,"SoundDuration":257510,"Delta":75661094},{"NoteNumber":55,"Velocity":63,"Duration":171673,"SoundDuration":171673,"Delta":75661094},{"NoteNumber":61,"Velocity":54,"Duration":171673,"SoundDuration":171673,"Delta":75832767},{"NoteNumber":66,"Velocity":54,"Duration":171673,"SoundDuration":171673,"Delta":76004441},{"NoteNumber":73,"Velocity":51,"Duration":257510,"SoundDuration":257510,"Delta":76176115},{"NoteNumber":81,"Velocity":61,"Duration":257510,"SoundDuration":257510,"Delta":76176115},{"NoteNumber":69,"Velocity":51,"Duration":257510,"SoundDuration":257510,"Delta":76176115},{"NoteNumber":76,"Velocity":51,"Duration":257510,"SoundDuration":257510,"Delta":76176115},{"NoteNumber":64,"Velocity":61,"Duration":171673,"SoundDuration":171673,"Delta":76176115},{"NoteNumber":61,"Velocity":59,"Duration":171673,"SoundDuration":171673,"Delta":76347788},{"NoteNumber":55,"Velocity":62,"Duration":191387,"SoundDuration":191387,"Delta":76519462},{"NoteNumber":74,"Velocity":59,"Duration":254560,"SoundDuration":254560,"Delta":76710850},{"NoteNumber":69,"Velocity":59,"Duration":254560,"SoundDuration":254560,"Delta":76710850},{"NoteNumber":81,"Velocity":70,"Duration":254560,"SoundDuration":254560,"Delta":76710850},{"NoteNumber":54,"Velocity":67,"Duration":169707,"SoundDuration":169707,"Delta":76710850},{"NoteNumber":57,"Velocity":58,"Duration":169707,"SoundDuration":169707,"Delta":76880557},{"NoteNumber":62,"Velocity":58,"Duration":169707,"SoundDuration":169707,"Delta":77050264},{"NoteNumber":74,"Velocity":51,"Duration":255645,"SoundDuration":255645,"Delta":77219972},{"NoteNumber":71,"Velocity":51,"Duration":255645,"SoundDuration":255645,"Delta":77219972},{"NoteNumber":83,"Velocity":61,"Duration":255645,"SoundDuration":255645,"Delta":77219972},{"NoteNumber":53,"Velocity":65,"Duration":170430,"SoundDuration":170430,"Delta":77219972},{"NoteNumber":57,"Velocity":52,"Duration":170430,"SoundDuration":170430,"Delta":77390402},{"NoteNumber":62,"Velocity":52,"Duration":188679,"SoundDuration":188679,"Delta":77560832},{"NoteNumber":76,"Velocity":74,"Duration":257510,"SoundDuration":257510,"Delta":77749512},{"NoteNumber":73,"Velocity":63,"Duration":257510,"SoundDuration":257510,"Delta":77749512},{"NoteNumber":52,"Velocity":63,"Duration":171673,"SoundDuration":171673,"Delta":77749512},{"NoteNumber":57,"Velocity":52,"Duration":171673,"SoundDuration":171673,"Delta":77921185},{"NoteNumber":61,"Velocity":52,"Duration":171673,"SoundDuration":171673,"Delta":78092859},{"NoteNumber":74,"Velocity":47,"Duration":257510,"SoundDuration":257510,"Delta":78264533},{"NoteNumber":80,"Velocity":56,"Duration":257510,"SoundDuration":257510,"Delta":78264533},{"NoteNumber":68,"Velocity":47,"Duration":257510,"SoundDuration":257510,"Delta":78264533},{"NoteNumber":76,"Velocity":47,"Duration":257510,"SoundDuration":257510,"Delta":78264533},{"NoteNumber":64,"Velocity":60,"Duration":171673,"SoundDuration":171673,"Delta":78264533},{"NoteNumber":62,"Velocity":52,"Duration":171673,"SoundDuration":171673,"Delta":78436206},{"NoteNumber":59,"Velocity":52,"Duration":207254,"SoundDuration":207254,"Delta":78607880},{"NoteNumber":81,"Velocity":61,"Duration":1166627,"SoundDuration":1166627,"Delta":78815134},{"NoteNumber":76,"Velocity":51,"Duration":1166627,"SoundDuration":1166627,"Delta":78815134},{"NoteNumber":69,"Velocity":51,"Duration":566350,"SoundDuration":566350,"Delta":78815134},{"NoteNumber":73,"Velocity":51,"Duration":1166627,"SoundDuration":1166627,"Delta":78815134},{"NoteNumber":57,"Velocity":62,"Duration":566350,"SoundDuration":566350,"Delta":78815134},{"NoteNumber":61,"Velocity":45,"Duration":597907,"SoundDuration":597907,"Delta":79383854},{"NoteNumber":69,"Velocity":54,"Duration":597907,"SoundDuration":597907,"Delta":79383854},{"NoteNumber":57,"Velocity":45,"Duration":597907,"SoundDuration":597907,"Delta":79383854},{"NoteNumber":62,"Velocity":41,"Duration":639318,"SoundDuration":639318,"Delta":79981761},{"NoteNumber":68,"Velocity":49,"Duration":639318,"SoundDuration":639318,"Delta":79981761},{"NoteNumber":59,"Velocity":41,"Duration":639318,"SoundDuration":639318,"Delta":79981761},{"NoteNumber":61,"Velocity":39,"Duration":698892,"SoundDuration":698892,"Delta":80621079},{"NoteNumber":64,"Velocity":39,"Duration":698892,"SoundDuration":698892,"Delta":80621079},{"NoteNumber":67,"Velocity":47,"Duration":698892,"SoundDuration":698892,"Delta":80621079},{"NoteNumber":62,"Velocity":34,"Duration":199114,"SoundDuration":199114,"Delta":81319972},{"NoteNumber":66,"Velocity":40,"Duration":199114,"SoundDuration":199114,"Delta":81319972},{"NoteNumber":66,"Velocity":34,"Duration":208333,"SoundDuration":208333,"Delta":81850945},{"NoteNumber":57,"Velocity":28,"Duration":208333,"SoundDuration":208333,"Delta":81850945},{"NoteNumber":81,"Velocity":55,"Duration":399999,"SoundDuration":399999,"Delta":82406501},{"NoteNumber":62,"Velocity":34,"Duration":266666,"SoundDuration":266666,"Delta":82406501},{"NoteNumber":66,"Velocity":40,"Duration":266666,"SoundDuration":266666,"Delta":82406501},{"NoteNumber":83,"Velocity":51,"Duration":133333,"SoundDuration":133333,"Delta":82806501},{"NoteNumber":81,"Velocity":55,"Duration":416667,"SoundDuration":416667,"Delta":82939834},{"NoteNumber":66,"Velocity":37,"Duration":277777,"SoundDuration":277777,"Delta":82939834},{"NoteNumber":57,"Velocity":31,"Duration":277777,"SoundDuration":277777,"Delta":82939834},{"NoteNumber":78,"Velocity":48,"Duration":138888,"SoundDuration":138888,"Delta":83356501},{"NoteNumber":74,"Velocity":55,"Duration":266666,"SoundDuration":266666,"Delta":83495390},{"NoteNumber":66,"Velocity":40,"Duration":266666,"SoundDuration":266666,"Delta":83495390},{"NoteNumber":62,"Velocity":34,"Duration":266666,"SoundDuration":266666,"Delta":83495390},{"NoteNumber":74,"Velocity":49,"Duration":276497,"SoundDuration":276497,"Delta":84028723},{"NoteNumber":57,"Velocity":29,"Duration":276497,"SoundDuration":276497,"Delta":84028723},{"NoteNumber":66,"Velocity":35,"Duration":276497,"SoundDuration":276497,"Delta":84028723},{"NoteNumber":74,"Velocity":50,"Duration":69124,"SoundDuration":69124,"Delta":84512593},{"NoteNumber":73,"Velocity":57,"Duration":401785,"SoundDuration":401785,"Delta":84581718},{"NoteNumber":64,"Velocity":34,"Duration":267857,"SoundDuration":267857,"Delta":84581718},{"NoteNumber":67,"Velocity":40,"Duration":267857,"SoundDuration":267857,"Delta":84581718},{"NoteNumber":71,"Velocity":51,"Duration":133928,"SoundDuration":133928,"Delta":84983503},{"NoteNumber":73,"Velocity":55,"Duration":414746,"SoundDuration":414746,"Delta":85117432},{"NoteNumber":57,"Velocity":29,"Duration":276497,"SoundDuration":276497,"Delta":85117432},{"NoteNumber":67,"Velocity":35,"Duration":276497,"SoundDuration":276497,"Delta":85117432},{"NoteNumber":76,"Velocity":55,"Duration":138248,"SoundDuration":138248,"Delta":85532178},{"NoteNumber":69,"Velocity":60,"Duration":535713,"SoundDuration":535713,"Delta":85670427},{"NoteNumber":62,"Velocity":34,"Duration":267857,"SoundDuration":267857,"Delta":85670427},{"NoteNumber":66,"Velocity":40,"Duration":267857,"SoundDuration":267857,"Delta":85670427},{"NoteNumber":74,"Velocity":55,"Duration":279070,"SoundDuration":279070,"Delta":86206141},{"NoteNumber":57,"Velocity":28,"Duration":279070,"SoundDuration":279070,"Delta":86206141},{"NoteNumber":66,"Velocity":34,"Duration":279070,"SoundDuration":279070,"Delta":86206141},{"NoteNumber":76,"Velocity":59,"Duration":403587,"SoundDuration":403587,"Delta":86764281},{"NoteNumber":61,"Velocity":34,"Duration":269058,"SoundDuration":269058,"Delta":86764281},{"NoteNumber":67,"Velocity":40,"Duration":269058,"SoundDuration":269058,"Delta":86764281},{"NoteNumber":79,"Velocity":57,"Duration":56053,"SoundDuration":56053,"Delta":87167869},{"NoteNumber":79,"Velocity":45,"Duration":67264,"SoundDuration":67264,"Delta":87235133},{"NoteNumber":83,"Velocity":66,"Duration":408675,"SoundDuration":408675,"Delta":87302398},{"NoteNumber":67,"Velocity":36,"Duration":273972,"SoundDuration":273972,"Delta":87302398},{"NoteNumber":57,"Velocity":30,"Duration":273972,"SoundDuration":273972,"Delta":87302398},{"NoteNumber":81,"Velocity":56,"Duration":138888,"SoundDuration":138888,"Delta":87713357},{"NoteNumber":81,"Velocity":66,"Duration":266666,"SoundDuration":266666,"Delta":87864872},{"NoteNumber":62,"Velocity":34,"Duration":266666,"SoundDuration":266666,"Delta":87864872},{"NoteNumber":66,"Velocity":40,"Duration":266666,"SoundDuration":266666,"Delta":87864872},{"NoteNumber":81,"Velocity":54,"Duration":276497,"SoundDuration":276497,"Delta":88398205},{"NoteNumber":57,"Velocity":29,"Duration":276497,"SoundDuration":276497,"Delta":88398205},{"NoteNumber":66,"Velocity":35,"Duration":276497,"SoundDuration":276497,"Delta":88398205},{"NoteNumber":85,"Velocity":53,"Duration":69124,"SoundDuration":69124,"Delta":88882075},{"NoteNumber":83,"Velocity":68,"Duration":401785,"SoundDuration":401785,"Delta":88951200},{"NoteNumber":67,"Velocity":40,"Duration":267857,"SoundDuration":267857,"Delta":88951200},{"NoteNumber":62,"Velocity":34,"Duration":267857,"SoundDuration":267857,"Delta":88951200},{"NoteNumber":55,"Velocity":34,"Duration":267857,"SoundDuration":267857,"Delta":88951200},{"NoteNumber":82,"Velocity":57,"Duration":133928,"SoundDuration":133928,"Delta":89352985},{"NoteNumber":83,"Velocity":68,"Duration":414746,"SoundDuration":414746,"Delta":89486914},{"NoteNumber":62,"Velocity":29,"Duration":276497,"SoundDuration":276497,"Delta":89486914},{"NoteNumber":59,"Velocity":29,"Duration":276497,"SoundDuration":276497,"Delta":89486914},{"NoteNumber":67,"Velocity":35,"Duration":276497,"SoundDuration":276497,"Delta":89486914},{"NoteNumber":86,"Velocity":66,"Duration":139082,"SoundDuration":139082,"Delta":89901660},{"NoteNumber":81,"Velocity":70,"Duration":1093853,"SoundDuration":1093853,"Delta":90040742},{"NoteNumber":66,"Velocity":40,"Duration":267857,"SoundDuration":267857,"Delta":90040742},{"NoteNumber":62,"Velocity":34,"Duration":267857,"SoundDuration":267857,"Delta":90040742},{"NoteNumber":66,"Velocity":34,"Duration":279070,"SoundDuration":279070,"Delta":90576456},{"NoteNumber":57,"Velocity":28,"Duration":279070,"SoundDuration":279070,"Delta":90576456},{"NoteNumber":81,"Velocity":49,"Duration":403587,"SoundDuration":403587,"Delta":91134596},{"NoteNumber":62,"Velocity":30,"Duration":269058,"SoundDuration":269058,"Delta":91134596},{"NoteNumber":65,"Velocity":36,"Duration":269058,"SoundDuration":269058,"Delta":91134596},{"NoteNumber":82,"Velocity":44,"Duration":134529,"SoundDuration":134529,"Delta":91538184},{"NoteNumber":81,"Velocity":53,"Duration":410958,"SoundDuration":410958,"Delta":91672713},{"NoteNumber":65,"Velocity":32,"Duration":273972,"SoundDuration":273972,"Delta":91672713},{"NoteNumber":57,"Velocity":27,"Duration":273972,"SoundDuration":273972,"Delta":91672713},{"NoteNumber":77,"Velocity":50,"Duration":142179,"SoundDuration":142179,"Delta":92083672},{"NoteNumber":74,"Velocity":49,"Duration":266666,"SoundDuration":266666,"Delta":92225852},{"NoteNumber":62,"Velocity":30,"Duration":266666,"SoundDuration":266666,"Delta":92225852},{"NoteNumber":65,"Velocity":36,"Duration":266666,"SoundDuration":266666,"Delta":92225852},{"NoteNumber":74,"Velocity":44,"Duration":276497,"SoundDuration":276497,"Delta":92759185},{"NoteNumber":65,"Velocity":31,"Duration":276497,"SoundDuration":276497,"Delta":92759185},{"NoteNumber":57,"Velocity":26,"Duration":276497,"SoundDuration":276497,"Delta":92759185},{"NoteNumber":74,"Velocity":52,"Duration":71191,"SoundDuration":71191,"Delta":93245122},{"NoteNumber":77,"Velocity":52,"Duration":401785,"SoundDuration":401785,"Delta":93316314},{"NoteNumber":69,"Velocity":52,"Duration":401785,"SoundDuration":401785,"Delta":93316314},{"NoteNumber":63,"Velocity":40,"Duration":267857,"SoundDuration":267857,"Delta":93316314},{"NoteNumber":65,"Velocity":40,"Duration":267857,"SoundDuration":267857,"Delta":93316314},{"NoteNumber":60,"Velocity":34,"Duration":267857,"SoundDuration":267857,"Delta":93316314},{"NoteNumber":69,"Velocity":57,"Duration":414746,"SoundDuration":414746,"Delta":93852028},{"NoteNumber":77,"Velocity":57,"Duration":414746,"SoundDuration":414746,"Delta":93852028},{"NoteNumber":60,"Velocity":29,"Duration":276497,"SoundDuration":276497,"Delta":93852028},{"NoteNumber":65,"Velocity":35,"Duration":276497,"SoundDuration":276497,"Delta":93852028},{"NoteNumber":53,"Velocity":29,"Duration":276497,"SoundDuration":276497,"Delta":93852028},{"NoteNumber":63,"Velocity":29,"Duration":276497,"SoundDuration":276497,"Delta":93852028},{"NoteNumber":77,"Velocity":65,"Duration":566839,"SoundDuration":566839,"Delta":94420620},{"NoteNumber":70,"Velocity":55,"Duration":566839,"SoundDuration":566839,"Delta":94420620},{"NoteNumber":65,"Velocity":40,"Duration":283420,"SoundDuration":283420,"Delta":94420620},{"NoteNumber":62,"Velocity":34,"Duration":283420,"SoundDuration":283420,"Delta":94420620},{"NoteNumber":58,"Velocity":34,"Duration":283420,"SoundDuration":283420,"Delta":94420620},{"NoteNumber":82,"Velocity":65,"Duration":279070,"SoundDuration":279070,"Delta":94987460},{"NoteNumber":62,"Velocity":28,"Duration":279070,"SoundDuration":279070,"Delta":94987460},{"NoteNumber":65,"Velocity":34,"Duration":279070,"SoundDuration":279070,"Delta":94987460},{"NoteNumber":86,"Velocity":71,"Duration":174672,"SoundDuration":174672,"Delta":95545600},{"NoteNumber":65,"Velocity":47,"Duration":262008,"SoundDuration":262008,"Delta":95545600},{"NoteNumber":62,"Velocity":39,"Duration":262008,"SoundDuration":262008,"Delta":95545600},{"NoteNumber":58,"Velocity":39,"Duration":262008,"SoundDuration":262008,"Delta":95545600},{"NoteNumber":88,"Velocity":59,"Duration":174672,"SoundDuration":174672,"Delta":95720272},{"NoteNumber":85,"Velocity":70,"Duration":174672,"SoundDuration":174672,"Delta":95894945},{"NoteNumber":68,"Velocity":47,"Duration":267857,"SoundDuration":267857,"Delta":96069617},{"NoteNumber":62,"Velocity":39,"Duration":267857,"SoundDuration":267857,"Delta":96069617},{"NoteNumber":58,"Velocity":39,"Duration":267857,"SoundDuration":267857,"Delta":96069617},{"NoteNumber":86,"Velocity":73,"Duration":178571,"SoundDuration":178571,"Delta":96070733},{"NoteNumber":88,"Velocity":76,"Duration":178571,"SoundDuration":178571,"Delta":96248188},{"NoteNumber":89,"Velocity":63,"Duration":186822,"SoundDuration":186822,"Delta":96426760},{"NoteNumber":81,"Velocity":72,"Duration":262008,"SoundDuration":262008,"Delta":96613583},{"NoteNumber":62,"Velocity":43,"Duration":262008,"SoundDuration":262008,"Delta":96613583},{"NoteNumber":66,"Velocity":43,"Duration":262008,"SoundDuration":262008,"Delta":96613583},{"NoteNumber":69,"Velocity":51,"Duration":262008,"SoundDuration":262008,"Delta":96613583},{"NoteNumber":81,"Velocity":65,"Duration":552994,"SoundDuration":552994,"Delta":97137600},{"NoteNumber":66,"Velocity":34,"Duration":276497,"SoundDuration":276497,"Delta":97137600},{"NoteNumber":57,"Velocity":34,"Duration":276497,"SoundDuration":276497,"Delta":97137600},{"NoteNumber":69,"Velocity":41,"Duration":276497,"SoundDuration":276497,"Delta":97137600},{"NoteNumber":76,"Velocity":70,"Duration":176991,"SoundDuration":176991,"Delta":97690595},{"NoteNumber":67,"Velocity":40,"Duration":265486,"SoundDuration":265486,"Delta":97690595},{"NoteNumber":69,"Velocity":48,"Duration":265486,"SoundDuration":265486,"Delta":97690595},{"NoteNumber":61,"Velocity":40,"Duration":265486,"SoundDuration":265486,"Delta":97690595},{"NoteNumber":79,"Velocity":63,"Duration":176991,"SoundDuration":176991,"Delta":97867586},{"NoteNumber":83,"Velocity":53,"Duration":176991,"SoundDuration":176991,"Delta":98044577},{"NoteNumber":81,"Velocity":70,"Duration":178571,"SoundDuration":178571,"Delta":98221568},{"NoteNumber":67,"Velocity":36,"Duration":267857,"SoundDuration":267857,"Delta":98221568},{"NoteNumber":69,"Velocity":43,"Duration":267857,"SoundDuration":267857,"Delta":98221568},{"NoteNumber":57,"Velocity":36,"Duration":267857,"SoundDuration":267857,"Delta":98221568},{"NoteNumber":79,"Velocity":60,"Duration":178571,"SoundDuration":178571,"Delta":98400139},{"NoteNumber":73,"Velocity":60,"Duration":187500,"SoundDuration":187500,"Delta":98578710},{"NoteNumber":81,"Velocity":70,"Duration":1112752,"SoundDuration":1112752,"Delta":98766210},{"NoteNumber":69,"Velocity":53,"Duration":280767,"SoundDuration":280767,"Delta":98766210},{"NoteNumber":66,"Velocity":45,"Duration":280767,"SoundDuration":280767,"Delta":98766210},{"NoteNumber":62,"Velocity":35,"Duration":275608,"SoundDuration":275608,"Delta":99327745},{"NoteNumber":66,"Velocity":35,"Duration":275608,"SoundDuration":275608,"Delta":99327745},{"NoteNumber":69,"Velocity":41,"Duration":275608,"SoundDuration":275608,"Delta":99327745},{"NoteNumber":79,"Velocity":66,"Duration":174672,"SoundDuration":174672,"Delta":99878962},{"NoteNumber":59,"Velocity":43,"Duration":262008,"SoundDuration":262008,"Delta":99878962},{"NoteNumber":62,"Velocity":43,"Duration":262008,"SoundDuration":262008,"Delta":99878962},{"NoteNumber":67,"Velocity":51,"Duration":262008,"SoundDuration":262008,"Delta":99878962},{"NoteNumber":83,"Velocity":59,"Duration":174672,"SoundDuration":174672,"Delta":100053635},{"NoteNumber":88,"Velocity":59,"Duration":174672,"SoundDuration":174672,"Delta":100228307},{"NoteNumber":67,"Velocity":44,"Duration":267857,"SoundDuration":267857,"Delta":100402979},{"NoteNumber":62,"Velocity":37,"Duration":267857,"SoundDuration":267857,"Delta":100402979},{"NoteNumber":55,"Velocity":37,"Duration":267857,"SoundDuration":267857,"Delta":100402979},{"NoteNumber":86,"Velocity":66,"Duration":178571,"SoundDuration":178571,"Delta":100404095},{"NoteNumber":83,"Velocity":62,"Duration":178571,"SoundDuration":178571,"Delta":100581551},{"NoteNumber":79,"Velocity":56,"Duration":186822,"SoundDuration":186822,"Delta":100760122},{"NoteNumber":78,"Velocity":61,"Duration":131004,"SoundDuration":131004,"Delta":100946945},{"NoteNumber":62,"Velocity":43,"Duration":262008,"SoundDuration":262008,"Delta":100946945},{"NoteNumber":66,"Velocity":51,"Duration":262008,"SoundDuration":262008,"Delta":100946945},{"NoteNumber":81,"Velocity":66,"Duration":262008,"SoundDuration":262008,"Delta":101077949},{"NoteNumber":81,"Velocity":67,"Duration":552994,"SoundDuration":552994,"Delta":101470962},{"NoteNumber":57,"Velocity":38,"Duration":276497,"SoundDuration":276497,"Delta":101470962},{"NoteNumber":66,"Velocity":45,"Duration":276497,"SoundDuration":276497,"Delta":101470962},{"NoteNumber":76,"Velocity":64,"Duration":176991,"SoundDuration":176991,"Delta":102023957},{"NoteNumber":61,"Velocity":45,"Duration":265486,"SoundDuration":265486,"Delta":102023957},{"NoteNumber":67,"Velocity":53,"Duration":265486,"SoundDuration":265486,"Delta":102023957},{"NoteNumber":79,"Velocity":59,"Duration":176991,"SoundDuration":176991,"Delta":102200948},{"NoteNumber":83,"Velocity":53,"Duration":176991,"SoundDuration":176991,"Delta":102377939},{"NoteNumber":81,"Velocity":67,"Duration":178571,"SoundDuration":178571,"Delta":102554930},{"NoteNumber":57,"Velocity":39,"Duration":267857,"SoundDuration":267857,"Delta":102554930},{"NoteNumber":67,"Velocity":46,"Duration":267857,"SoundDuration":267857,"Delta":102554930},{"NoteNumber":79,"Velocity":59,"Duration":178571,"SoundDuration":178571,"Delta":102733501},{"NoteNumber":73,"Velocity":59,"Duration":187500,"SoundDuration":187500,"Delta":102912073},{"NoteNumber":74,"Velocity":67,"Duration":1050439,"SoundDuration":1050439,"Delta":103099573},{"NoteNumber":66,"Velocity":59,"Duration":1050439,"SoundDuration":1050439,"Delta":103099573},{"NoteNumber":62,"Velocity":50,"Duration":1050439,"SoundDuration":1050439,"Delta":103099573},{"NoteNumber":62,"Velocity":57,"Duration":131579,"SoundDuration":131579,"Delta":104152205},{"NoteNumber":50,"Velocity":45,"Duration":131579,"SoundDuration":131579,"Delta":104152205},{"NoteNumber":64,"Velocity":52,"Duration":131128,"SoundDuration":131128,"Delta":104283784},{"NoteNumber":52,"Velocity":41,"Duration":131128,"SoundDuration":131128,"Delta":104283784},{"NoteNumber":66,"Velocity":57,"Duration":130534,"SoundDuration":130534,"Delta":104414912},{"NoteNumber":54,"Velocity":45,"Duration":130534,"SoundDuration":130534,"Delta":104414912},{"NoteNumber":67,"Velocity":53,"Duration":129945,"SoundDuration":129945,"Delta":104545447},{"NoteNumber":55,"Velocity":42,"Duration":129945,"SoundDuration":129945,"Delta":104545447},{"NoteNumber":68,"Velocity":57,"Duration":129361,"SoundDuration":129361,"Delta":104675392},{"NoteNumber":56,"Velocity":45,"Duration":129361,"SoundDuration":129361,"Delta":104675392},{"NoteNumber":69,"Velocity":52,"Duration":129310,"SoundDuration":129310,"Delta":104804754},{"NoteNumber":57,"Velocity":41,"Duration":129310,"SoundDuration":129310,"Delta":104804754},{"NoteNumber":68,"Velocity":54,"Duration":129310,"SoundDuration":129310,"Delta":104934064},{"NoteNumber":56,"Velocity":43,"Duration":129310,"SoundDuration":129310,"Delta":104934064},{"NoteNumber":69,"Velocity":57,"Duration":185185,"SoundDuration":185185,"Delta":105063374},{"NoteNumber":57,"Velocity":45,"Duration":185185,"SoundDuration":185185,"Delta":105063374},{"NoteNumber":71,"Velocity":65,"Duration":579710,"SoundDuration":579710,"Delta":105248560},{"NoteNumber":67,"Velocity":55,"Duration":579710,"SoundDuration":579710,"Delta":105248560},{"NoteNumber":59,"Velocity":52,"Duration":579710,"SoundDuration":579710,"Delta":105248560},{"NoteNumber":55,"Velocity":44,"Duration":579710,"SoundDuration":579710,"Delta":105248560},{"NoteNumber":69,"Velocity":53,"Duration":289854,"SoundDuration":289854,"Delta":105828270},{"NoteNumber":62,"Velocity":39,"Duration":289854,"SoundDuration":289854,"Delta":105828270},{"NoteNumber":66,"Velocity":41,"Duration":289854,"SoundDuration":289854,"Delta":105828270},{"NoteNumber":57,"Velocity":42,"Duration":289854,"SoundDuration":289854,"Delta":105828270},{"NoteNumber":50,"Velocity":36,"Duration":289854,"SoundDuration":289854,"Delta":105828270},{"NoteNumber":74,"Velocity":64,"Duration":183486,"SoundDuration":183486,"Delta":106407980},{"NoteNumber":54,"Velocity":51,"Duration":183486,"SoundDuration":183486,"Delta":106407980},{"NoteNumber":73,"Velocity":58,"Duration":172413,"SoundDuration":172413,"Delta":106591466},{"NoteNumber":57,"Velocity":45,"Duration":172413,"SoundDuration":172413,"Delta":106591466},{"NoteNumber":71,"Velocity":58,"Duration":172413,"SoundDuration":172413,"Delta":106763880},{"NoteNumber":55,"Velocity":45,"Duration":172413,"SoundDuration":172413,"Delta":106763880},{"NoteNumber":69,"Velocity":64,"Duration":172413,"SoundDuration":172413,"Delta":106936293},{"NoteNumber":54,"Velocity":54,"Duration":172413,"SoundDuration":172413,"Delta":106936293},{"NoteNumber":67,"Velocity":58,"Duration":172413,"SoundDuration":172413,"Delta":107108707},{"NoteNumber":57,"Velocity":43,"Duration":172413,"SoundDuration":172413,"Delta":107108707},{"NoteNumber":66,"Velocity":58,"Duration":202020,"SoundDuration":202020,"Delta":107281121},{"NoteNumber":62,"Velocity":43,"Duration":202020,"SoundDuration":202020,"Delta":107281121},{"NoteNumber":69,"Velocity":64,"Duration":412844,"SoundDuration":412844,"Delta":107483141},{"NoteNumber":64,"Velocity":57,"Duration":572303,"SoundDuration":572303,"Delta":107483141},{"NoteNumber":67,"Velocity":55,"Duration":162162,"SoundDuration":162162,"Delta":107895985},{"NoteNumber":64,"Velocity":61,"Duration":276497,"SoundDuration":276497,"Delta":108058147},{"NoteNumber":57,"Velocity":50,"Duration":276497,"SoundDuration":276497,"Delta":108058147},{"NoteNumber":69,"Velocity":64,"Duration":132333,"SoundDuration":132333,"Delta":108609755},{"NoteNumber":67,"Velocity":51,"Duration":132333,"SoundDuration":132333,"Delta":108609755},{"NoteNumber":71,"Velocity":58,"Duration":132333,"SoundDuration":132333,"Delta":108742089},{"NoteNumber":73,"Velocity":64,"Duration":133511,"SoundDuration":133511,"Delta":108874422},{"NoteNumber":66,"Velocity":45,"Duration":133511,"SoundDuration":133511,"Delta":108874422},{"NoteNumber":74,"Velocity":59,"Duration":133511,"SoundDuration":133511,"Delta":109007933},{"NoteNumber":75,"Velocity":69,"Duration":135317,"SoundDuration":135317,"Delta":109141445},{"NoteNumber":67,"Velocity":45,"Duration":135317,"SoundDuration":135317,"Delta":109141445},{"NoteNumber":76,"Velocity":58,"Duration":135317,"SoundDuration":135317,"Delta":109276763},{"NoteNumber":75,"Velocity":61,"Duration":135317,"SoundDuration":135317,"Delta":109412081},{"NoteNumber":69,"Velocity":45,"Duration":135317,"SoundDuration":135317,"Delta":109412081},{"NoteNumber":76,"Velocity":64,"Duration":135318,"SoundDuration":135318,"Delta":109547399},{"NoteNumber":74,"Velocity":69,"Duration":132743,"SoundDuration":132743,"Delta":109682717},{"NoteNumber":66,"Velocity":51,"Duration":132743,"SoundDuration":132743,"Delta":109682717},{"NoteNumber":76,"Velocity":58,"Duration":132743,"SoundDuration":132743,"Delta":109815460},{"NoteNumber":78,"Velocity":64,"Duration":130434,"SoundDuration":130434,"Delta":109948203},{"NoteNumber":62,"Velocity":47,"Duration":130434,"SoundDuration":130434,"Delta":109948203},{"NoteNumber":79,"Velocity":59,"Duration":130434,"SoundDuration":130434,"Delta":110078638},{"NoteNumber":80,"Velocity":70,"Duration":133333,"SoundDuration":133333,"Delta":110209073},{"NoteNumber":64,"Velocity":47,"Duration":133333,"SoundDuration":133333,"Delta":110209073},{"NoteNumber":81,"Velocity":58,"Duration":133333,"SoundDuration":133333,"Delta":110342406},{"NoteNumber":80,"Velocity":61,"Duration":133333,"SoundDuration":133333,"Delta":110475739},{"NoteNumber":66,"Velocity":47,"Duration":133333,"SoundDuration":133333,"Delta":110475739},{"NoteNumber":81,"Velocity":64,"Duration":130781,"SoundDuration":130781,"Delta":110609072},{"NoteNumber":83,"Velocity":72,"Duration":128124,"SoundDuration":128124,"Delta":110739854},{"NoteNumber":67,"Velocity":51,"Duration":128124,"SoundDuration":128124,"Delta":110739854},{"NoteNumber":81,"Velocity":66,"Duration":129806,"SoundDuration":129806,"Delta":110867978},{"NoteNumber":79,"Velocity":64,"Duration":131595,"SoundDuration":131595,"Delta":110997785},{"NoteNumber":64,"Velocity":46,"Duration":131595,"SoundDuration":131595,"Delta":110997785},{"NoteNumber":78,"Velocity":63,"Duration":133389,"SoundDuration":133389,"Delta":111129380},{"NoteNumber":81,"Velocity":67,"Duration":129518,"SoundDuration":129518,"Delta":111262769},{"NoteNumber":66,"Velocity":46,"Duration":129518,"SoundDuration":129518,"Delta":111262769},{"NoteNumber":79,"Velocity":64,"Duration":132056,"SoundDuration":132056,"Delta":111392288},{"NoteNumber":78,"Velocity":61,"Duration":134319,"SoundDuration":134319,"Delta":111524345},{"NoteNumber":69,"Velocity":46,"Duration":134319,"SoundDuration":134319,"Delta":111524345},{"NoteNumber":76,"Velocity":59,"Duration":151515,"SoundDuration":151515,"Delta":111658664},{"NoteNumber":74,"Velocity":67,"Duration":1151244,"SoundDuration":1151244,"Delta":111810179},{"NoteNumber":62,"Velocity":55,"Duration":142179,"SoundDuration":142179,"Delta":111810179},{"NoteNumber":66,"Velocity":55,"Duration":142179,"SoundDuration":142179,"Delta":111810179},{"NoteNumber":57,"Velocity":48,"Duration":142179,"SoundDuration":142179,"Delta":112094539},{"NoteNumber":54,"Velocity":54,"Duration":145630,"SoundDuration":145630,"Delta":112378899},{"NoteNumber":50,"Velocity":51,"Duration":145630,"SoundDuration":145630,"Delta":112670161},{"NoteNumber":67,"Velocity":73,"Duration":131579,"SoundDuration":131579,"Delta":112961423},{"NoteNumber":55,"Velocity":58,"Duration":131579,"SoundDuration":131579,"Delta":112961423},{"NoteNumber":69,"Velocity":66,"Duration":131076,"SoundDuration":131076,"Delta":113093002},{"NoteNumber":57,"Velocity":52,"Duration":131076,"SoundDuration":131076,"Delta":113093002},{"NoteNumber":71,"Velocity":73,"Duration":130482,"SoundDuration":130482,"Delta":113224078},{"NoteNumber":59,"Velocity":58,"Duration":130482,"SoundDuration":130482,"Delta":113224078},{"NoteNumber":72,"Velocity":67,"Duration":129893,"SoundDuration":129893,"Delta":113354560},{"NoteNumber":60,"Velocity":53,"Duration":129893,"SoundDuration":129893,"Delta":113354560},{"NoteNumber":73,"Velocity":79,"Duration":129870,"SoundDuration":129870,"Delta":113484454},{"NoteNumber":61,"Velocity":63,"Duration":129870,"SoundDuration":129870,"Delta":113484454},{"NoteNumber":74,"Velocity":74,"Duration":129870,"SoundDuration":129870,"Delta":113614324},{"NoteNumber":62,"Velocity":59,"Duration":129870,"SoundDuration":129870,"Delta":113614324},{"NoteNumber":73,"Velocity":76,"Duration":129870,"SoundDuration":129870,"Delta":113744195},{"NoteNumber":61,"Velocity":60,"Duration":129870,"SoundDuration":129870,"Delta":113744195},{"NoteNumber":74,"Velocity":73,"Duration":132158,"SoundDuration":132158,"Delta":113874065},{"NoteNumber":62,"Velocity":58,"Duration":132158,"SoundDuration":132158,"Delta":113874065},{"NoteNumber":78,"Velocity":84,"Duration":129870,"SoundDuration":129870,"Delta":114006223},{"NoteNumber":66,"Velocity":67,"Duration":129870,"SoundDuration":129870,"Delta":114006223},{"NoteNumber":76,"Velocity":77,"Duration":129870,"SoundDuration":129870,"Delta":114136094},{"NoteNumber":64,"Velocity":61,"Duration":129870,"SoundDuration":129870,"Delta":114136094},{"NoteNumber":74,"Velocity":74,"Duration":129870,"SoundDuration":129870,"Delta":114265964},{"NoteNumber":62,"Velocity":59,"Duration":129870,"SoundDuration":129870,"Delta":114265964},{"NoteNumber":73,"Velocity":71,"Duration":129870,"SoundDuration":129870,"Delta":114395834},{"NoteNumber":61,"Velocity":56,"Duration":129870,"SoundDuration":129870,"Delta":114395834},{"NoteNumber":76,"Velocity":80,"Duration":129870,"SoundDuration":129870,"Delta":114525704},{"NoteNumber":64,"Velocity":64,"Duration":129870,"SoundDuration":129870,"Delta":114525704},{"NoteNumber":74,"Velocity":75,"Duration":129870,"SoundDuration":129870,"Delta":114655575},{"NoteNumber":62,"Velocity":60,"Duration":129870,"SoundDuration":129870,"Delta":114655575},{"NoteNumber":73,"Velocity":71,"Duration":129870,"SoundDuration":129870,"Delta":114785445},{"NoteNumber":61,"Velocity":56,"Duration":129870,"SoundDuration":129870,"Delta":114785445},{"NoteNumber":71,"Velocity":73,"Duration":130781,"SoundDuration":130781,"Delta":114915315},{"NoteNumber":59,"Velocity":58,"Duration":130781,"SoundDuration":130781,"Delta":114915315},{"NoteNumber":69,"Velocity":82,"Duration":128124,"SoundDuration":128124,"Delta":115046097},{"NoteNumber":57,"Velocity":65,"Duration":128124,"SoundDuration":128124,"Delta":115046097},{"NoteNumber":68,"Velocity":75,"Duration":129806,"SoundDuration":129806,"Delta":115174221},{"NoteNumber":56,"Velocity":60,"Duration":129806,"SoundDuration":129806,"Delta":115174221},{"NoteNumber":66,"Velocity":73,"Duration":131595,"SoundDuration":131595,"Delta":115304028},{"NoteNumber":54,"Velocity":58,"Duration":131595,"SoundDuration":131595,"Delta":115304028},{"NoteNumber":64,"Velocity":72,"Duration":133389,"SoundDuration":133389,"Delta":115435623},{"NoteNumber":52,"Velocity":57,"Duration":133389,"SoundDuration":133389,"Delta":115435623},{"NoteNumber":63,"Velocity":77,"Duration":129518,"SoundDuration":129518,"Delta":115569012},{"NoteNumber":51,"Velocity":61,"Duration":129518,"SoundDuration":129518,"Delta":115569012},{"NoteNumber":64,"Velocity":73,"Duration":132056,"SoundDuration":132056,"Delta":115698531},{"NoteNumber":52,"Velocity":58,"Duration":132056,"SoundDuration":132056,"Delta":115698531},{"NoteNumber":66,"Velocity":70,"Duration":134319,"SoundDuration":134319,"Delta":115830588},{"NoteNumber":54,"Velocity":56,"Duration":134319,"SoundDuration":134319,"Delta":115830588},{"NoteNumber":68,"Velocity":67,"Duration":150433,"SoundDuration":150433,"Delta":115964907},{"NoteNumber":56,"Velocity":53,"Duration":150433,"SoundDuration":150433,"Delta":115964907},{"NoteNumber":73,"Velocity":76,"Duration":130559,"SoundDuration":130559,"Delta":116115340},{"NoteNumber":57,"Velocity":61,"Duration":127270,"SoundDuration":127270,"Delta":116115340},{"NoteNumber":57,"Velocity":51,"Duration":132453,"SoundDuration":132453,"Delta":116245900},{"NoteNumber":59,"Velocity":57,"Duration":134501,"SoundDuration":134501,"Delta":116378353},{"NoteNumber":57,"Velocity":49,"Duration":136626,"SoundDuration":136626,"Delta":116512855},{"NoteNumber":59,"Velocity":56,"Duration":138753,"SoundDuration":138753,"Delta":116649481},{"NoteNumber":57,"Velocity":48,"Duration":141390,"SoundDuration":141390,"Delta":116788234},{"NoteNumber":59,"Velocity":47,"Duration":143393,"SoundDuration":143393,"Delta":116929625},{"NoteNumber":61,"Velocity":45,"Duration":145192,"SoundDuration":145192,"Delta":117073019},{"NoteNumber":62,"Velocity":57,"Duration":131579,"SoundDuration":131579,"Delta":117218211},{"NoteNumber":50,"Velocity":45,"Duration":131579,"SoundDuration":131579,"Delta":117218211},{"NoteNumber":64,"Velocity":52,"Duration":131128,"SoundDuration":131128,"Delta":117349790},{"NoteNumber":52,"Velocity":41,"Duration":131128,"SoundDuration":131128,"Delta":117349790},{"NoteNumber":66,"Velocity":57,"Duration":130534,"SoundDuration":130534,"Delta":117480919},{"NoteNumber":54,"Velocity":45,"Duration":130534,"SoundDuration":130534,"Delta":117480919},{"NoteNumber":67,"Velocity":53,"Duration":129945,"SoundDuration":129945,"Delta":117611453},{"NoteNumber":55,"Velocity":42,"Duration":129945,"SoundDuration":129945,"Delta":117611453},{"NoteNumber":68,"Velocity":57,"Duration":129361,"SoundDuration":129361,"Delta":117741399},{"NoteNumber":56,"Velocity":45,"Duration":129361,"SoundDuration":129361,"Delta":117741399},{"NoteNumber":69,"Velocity":52,"Duration":129310,"SoundDuration":129310,"Delta":117870760},{"NoteNumber":57,"Velocity":41,"Duration":129310,"SoundDuration":129310,"Delta":117870760},{"NoteNumber":68,"Velocity":54,"Duration":129310,"SoundDuration":129310,"Delta":118000071},{"NoteNumber":56,"Velocity":43,"Duration":129310,"SoundDuration":129310,"Delta":118000071},{"NoteNumber":69,"Velocity":57,"Duration":185185,"SoundDuration":185185,"Delta":118129381},{"NoteNumber":57,"Velocity":45,"Duration":185185,"SoundDuration":185185,"Delta":118129381},{"NoteNumber":71,"Velocity":65,"Duration":579710,"SoundDuration":579710,"Delta":118314566},{"NoteNumber":67,"Velocity":55,"Duration":579710,"SoundDuration":579710,"Delta":118314566},{"NoteNumber":59,"Velocity":52,"Duration":579710,"SoundDuration":579710,"Delta":118314566},{"NoteNumber":55,"Velocity":44,"Duration":579710,"SoundDuration":579710,"Delta":118314566},{"NoteNumber":66,"Velocity":41,"Duration":289854,"SoundDuration":289854,"Delta":118894276},{"NoteNumber":69,"Velocity":53,"Duration":289854,"SoundDuration":289854,"Delta":118894276},{"NoteNumber":62,"Velocity":39,"Duration":289854,"SoundDuration":289854,"Delta":118894276},{"NoteNumber":50,"Velocity":36,"Duration":289854,"SoundDuration":289854,"Delta":118894276},{"NoteNumber":57,"Velocity":42,"Duration":289854,"SoundDuration":289854,"Delta":118894276},{"NoteNumber":74,"Velocity":64,"Duration":183486,"SoundDuration":183486,"Delta":119473986},{"NoteNumber":54,"Velocity":51,"Duration":183486,"SoundDuration":183486,"Delta":119473986},{"NoteNumber":73,"Velocity":58,"Duration":172413,"SoundDuration":172413,"Delta":119657473},{"NoteNumber":57,"Velocity":45,"Duration":172413,"SoundDuration":172413,"Delta":119657473},{"NoteNumber":71,"Velocity":58,"Duration":172413,"SoundDuration":172413,"Delta":119829886},{"NoteNumber":55,"Velocity":45,"Duration":172413,"SoundDuration":172413,"Delta":119829886},{"NoteNumber":69,"Velocity":64,"Duration":172413,"SoundDuration":172413,"Delta":120002300},{"NoteNumber":54,"Velocity":54,"Duration":172413,"SoundDuration":172413,"Delta":120002300},{"NoteNumber":67,"Velocity":58,"Duration":172413,"SoundDuration":172413,"Delta":120174714},{"NoteNumber":57,"Velocity":43,"Duration":172413,"SoundDuration":172413,"Delta":120174714},{"NoteNumber":66,"Velocity":58,"Duration":202020,"SoundDuration":202020,"Delta":120347127},{"NoteNumber":62,"Velocity":43,"Duration":202020,"SoundDuration":202020,"Delta":120347127},{"NoteNumber":69,"Velocity":64,"Duration":412844,"SoundDuration":412844,"Delta":120549148},{"NoteNumber":64,"Velocity":57,"Duration":572303,"SoundDuration":572303,"Delta":120549148},{"NoteNumber":67,"Velocity":55,"Duration":162162,"SoundDuration":162162,"Delta":120961992},{"NoteNumber":64,"Velocity":61,"Duration":276497,"SoundDuration":276497,"Delta":121124154},{"NoteNumber":57,"Velocity":50,"Duration":276497,"SoundDuration":276497,"Delta":121124154},{"NoteNumber":69,"Velocity":64,"Duration":131752,"SoundDuration":131752,"Delta":121675528},{"NoteNumber":67,"Velocity":51,"Duration":131752,"SoundDuration":131752,"Delta":121675528},{"NoteNumber":71,"Velocity":58,"Duration":131752,"SoundDuration":131752,"Delta":121807280},{"NoteNumber":73,"Velocity":64,"Duration":132158,"SoundDuration":132158,"Delta":121939032},{"NoteNumber":66,"Velocity":45,"Duration":132158,"SoundDuration":132158,"Delta":121939032},{"NoteNumber":74,"Velocity":59,"Duration":132158,"SoundDuration":132158,"Delta":122071191},{"NoteNumber":75,"Velocity":69,"Duration":136363,"SoundDuration":136363,"Delta":122203349},{"NoteNumber":67,"Velocity":45,"Duration":136363,"SoundDuration":136363,"Delta":122203349},{"NoteNumber":76,"Velocity":58,"Duration":136363,"SoundDuration":136363,"Delta":122339713},{"NoteNumber":75,"Velocity":61,"Duration":136363,"SoundDuration":136363,"Delta":122476077},{"NoteNumber":69,"Velocity":45,"Duration":136363,"SoundDuration":136363,"Delta":122476077},{"NoteNumber":76,"Velocity":64,"Duration":145630,"SoundDuration":145630,"Delta":122612441},{"NoteNumber":74,"Velocity":69,"Duration":131579,"SoundDuration":131579,"Delta":122758072},{"NoteNumber":66,"Velocity":51,"Duration":131579,"SoundDuration":131579,"Delta":122758072},{"NoteNumber":76,"Velocity":58,"Duration":131579,"SoundDuration":131579,"Delta":122889651},{"NoteNumber":78,"Velocity":64,"Duration":129310,"SoundDuration":129310,"Delta":123021230},{"NoteNumber":69,"Velocity":47,"Duration":129310,"SoundDuration":129310,"Delta":123021230},{"NoteNumber":79,"Velocity":59,"Duration":129310,"SoundDuration":129310,"Delta":123150540},{"NoteNumber":80,"Velocity":70,"Duration":129310,"SoundDuration":129310,"Delta":123279850},{"NoteNumber":66,"Velocity":47,"Duration":129310,"SoundDuration":129310,"Delta":123279850},{"NoteNumber":81,"Velocity":63,"Duration":129310,"SoundDuration":129310,"Delta":123409160},{"NoteNumber":80,"Velocity":66,"Duration":129310,"SoundDuration":129310,"Delta":123538471},{"NoteNumber":64,"Velocity":47,"Duration":129310,"SoundDuration":129310,"Delta":123538471},{"NoteNumber":81,"Velocity":68,"Duration":130781,"SoundDuration":130781,"Delta":123667781},{"NoteNumber":90,"Velocity":75,"Duration":128124,"SoundDuration":128124,"Delta":123798562},{"NoteNumber":62,"Velocity":51,"Duration":128124,"SoundDuration":128124,"Delta":123798562},{"NoteNumber":88,"Velocity":71,"Duration":129806,"SoundDuration":129806,"Delta":123926687},{"NoteNumber":86,"Velocity":67,"Duration":131595,"SoundDuration":131595,"Delta":124056493},{"NoteNumber":59,"Velocity":46,"Duration":131595,"SoundDuration":131595,"Delta":124056493},{"NoteNumber":85,"Velocity":64,"Duration":133389,"SoundDuration":133389,"Delta":124188089},{"NoteNumber":88,"Velocity":73,"Duration":129518,"SoundDuration":129518,"Delta":124321478},{"NoteNumber":61,"Velocity":46,"Duration":129518,"SoundDuration":129518,"Delta":124321478},{"NoteNumber":86,"Velocity":67,"Duration":132056,"SoundDuration":132056,"Delta":124450996},{"NoteNumber":85,"Velocity":64,"Duration":134319,"SoundDuration":134319,"Delta":124583053},{"NoteNumber":64,"Velocity":46,"Duration":134319,"SoundDuration":134319,"Delta":124583053},{"NoteNumber":83,"Velocity":61,"Duration":151515,"SoundDuration":151515,"Delta":124717372},{"NoteNumber":81,"Velocity":76,"Duration":1151244,"SoundDuration":1151244,"Delta":124868888},{"NoteNumber":57,"Velocity":55,"Duration":142179,"SoundDuration":142179,"Delta":124868888},{"NoteNumber":61,"Velocity":55,"Duration":142179,"SoundDuration":142179,"Delta":124868888},{"NoteNumber":52,"Velocity":48,"Duration":142179,"SoundDuration":142179,"Delta":125153248},{"NoteNumber":49,"Velocity":54,"Duration":145630,"SoundDuration":145630,"Delta":125437608},{"NoteNumber":45,"Velocity":51,"Duration":145630,"SoundDuration":145630,"Delta":125728870},{"NoteNumber":62,"Velocity":73,"Duration":131579,"SoundDuration":131579,"Delta":126020132},{"NoteNumber":50,"Velocity":58,"Duration":131579,"SoundDuration":131579,"Delta":126020132},{"NoteNumber":64,"Velocity":66,"Duration":131076,"SoundDuration":131076,"Delta":126151711},{"NoteNumber":52,"Velocity":52,"Duration":131076,"SoundDuration":131076,"Delta":126151711},{"NoteNumber":66,"Velocity":73,"Duration":130482,"SoundDuration":130482,"Delta":126282787},{"NoteNumber":54,"Velocity":58,"Duration":130482,"SoundDuration":130482,"Delta":126282787},{"NoteNumber":67,"Velocity":67,"Duration":129893,"SoundDuration":129893,"Delta":126413269},{"NoteNumber":55,"Velocity":53,"Duration":129893,"SoundDuration":129893,"Delta":126413269},{"NoteNumber":68,"Velocity":79,"Duration":129870,"SoundDuration":129870,"Delta":126543163},{"NoteNumber":56,"Velocity":63,"Duration":129870,"SoundDuration":129870,"Delta":126543163},{"NoteNumber":69,"Velocity":74,"Duration":129870,"SoundDuration":129870,"Delta":126673033},{"NoteNumber":57,"Velocity":59,"Duration":129870,"SoundDuration":129870,"Delta":126673033},{"NoteNumber":68,"Velocity":76,"Duration":129870,"SoundDuration":129870,"Delta":126802903},{"NoteNumber":56,"Velocity":60,"Duration":129870,"SoundDuration":129870,"Delta":126802903},{"NoteNumber":69,"Velocity":73,"Duration":132158,"SoundDuration":132158,"Delta":126932773},{"NoteNumber":57,"Velocity":58,"Duration":132158,"SoundDuration":132158,"Delta":126932773},{"NoteNumber":73,"Velocity":84,"Duration":129870,"SoundDuration":129870,"Delta":127064932},{"NoteNumber":61,"Velocity":67,"Duration":129870,"SoundDuration":129870,"Delta":127064932},{"NoteNumber":71,"Velocity":77,"Duration":129870,"SoundDuration":129870,"Delta":127194802},{"NoteNumber":59,"Velocity":61,"Duration":129870,"SoundDuration":129870,"Delta":127194802},{"NoteNumber":69,"Velocity":74,"Duration":129870,"SoundDuration":129870,"Delta":127324672},{"NoteNumber":57,"Velocity":59,"Duration":129870,"SoundDuration":129870,"Delta":127324672},{"NoteNumber":68,"Velocity":71,"Duration":129870,"SoundDuration":129870,"Delta":127454543},{"NoteNumber":56,"Velocity":56,"Duration":129870,"SoundDuration":129870,"Delta":127454543},{"NoteNumber":71,"Velocity":80,"Duration":129870,"SoundDuration":129870,"Delta":127584413},{"NoteNumber":59,"Velocity":64,"Duration":129870,"SoundDuration":129870,"Delta":127584413},{"NoteNumber":69,"Velocity":75,"Duration":129870,"SoundDuration":129870,"Delta":127714283},{"NoteNumber":57,"Velocity":60,"Duration":129870,"SoundDuration":129870,"Delta":127714283},{"NoteNumber":68,"Velocity":71,"Duration":129870,"SoundDuration":129870,"Delta":127844153},{"NoteNumber":56,"Velocity":56,"Duration":129870,"SoundDuration":129870,"Delta":127844153},{"NoteNumber":66,"Velocity":73,"Duration":130781,"SoundDuration":130781,"Delta":127974024},{"NoteNumber":54,"Velocity":58,"Duration":130781,"SoundDuration":130781,"Delta":127974024},{"NoteNumber":64,"Velocity":82,"Duration":128124,"SoundDuration":128124,"Delta":128104805},{"NoteNumber":52,"Velocity":65,"Duration":128124,"SoundDuration":128124,"Delta":128104805},{"NoteNumber":66,"Velocity":75,"Duration":129806,"SoundDuration":129806,"Delta":128232929},{"NoteNumber":54,"Velocity":60,"Duration":129806,"SoundDuration":129806,"Delta":128232929},{"NoteNumber":64,"Velocity":73,"Duration":131595,"SoundDuration":131595,"Delta":128362736},{"NoteNumber":52,"Velocity":58,"Duration":131595,"SoundDuration":131595,"Delta":128362736},{"NoteNumber":66,"Velocity":72,"Duration":133389,"SoundDuration":133389,"Delta":128494331},{"NoteNumber":54,"Velocity":57,"Duration":133389,"SoundDuration":133389,"Delta":128494331},{"NoteNumber":64,"Velocity":77,"Duration":129518,"SoundDuration":129518,"Delta":128627721},{"NoteNumber":52,"Velocity":61,"Duration":129518,"SoundDuration":129518,"Delta":128627721},{"NoteNumber":62,"Velocity":73,"Duration":132056,"SoundDuration":132056,"Delta":128757239},{"NoteNumber":50,"Velocity":58,"Duration":132056,"SoundDuration":132056,"Delta":128757239},{"NoteNumber":61,"Velocity":70,"Duration":134319,"SoundDuration":134319,"Delta":128889296},{"NoteNumber":49,"Velocity":56,"Duration":134319,"SoundDuration":134319,"Delta":128889296},{"NoteNumber":59,"Velocity":67,"Duration":151515,"SoundDuration":151515,"Delta":129023615},{"NoteNumber":47,"Velocity":53,"Duration":151515,"SoundDuration":151515,"Delta":129023615},{"NoteNumber":57,"Velocity":76,"Duration":131004,"SoundDuration":131004,"Delta":129175130},{"NoteNumber":45,"Velocity":61,"Duration":262008,"SoundDuration":262008,"Delta":129175130},{"NoteNumber":61,"Velocity":51,"Duration":131004,"SoundDuration":131004,"Delta":129306135},{"NoteNumber":64,"Velocity":57,"Duration":131004,"SoundDuration":131004,"Delta":129437139},{"NoteNumber":68,"Velocity":49,"Duration":130816,"SoundDuration":130816,"Delta":129568143},{"NoteNumber":69,"Velocity":56,"Duration":129162,"SoundDuration":129162,"Delta":129698960},{"NoteNumber":71,"Velocity":48,"Duration":130332,"SoundDuration":130332,"Delta":129828123},{"NoteNumber":73,"Velocity":47,"Duration":131517,"SoundDuration":131517,"Delta":129958455},{"NoteNumber":74,"Velocity":45,"Duration":121520,"SoundDuration":121520,"Delta":130089973},{"NoteNumber":76,"Velocity":69,"Duration":133129,"SoundDuration":133129,"Delta":130222363},{"NoteNumber":74,"Velocity":51,"Duration":133129,"SoundDuration":133129,"Delta":130222363},{"NoteNumber":78,"Velocity":58,"Duration":132286,"SoundDuration":132286,"Delta":130355492},{"NoteNumber":80,"Velocity":64,"Duration":131129,"SoundDuration":131129,"Delta":130487779},{"NoteNumber":71,"Velocity":47,"Duration":131129,"SoundDuration":131129,"Delta":130487779},{"NoteNumber":81,"Velocity":59,"Duration":129993,"SoundDuration":129993,"Delta":130618909},{"NoteNumber":82,"Velocity":70,"Duration":131004,"SoundDuration":131004,"Delta":130748902},{"NoteNumber":68,"Velocity":47,"Duration":131004,"SoundDuration":131004,"Delta":130748902},{"NoteNumber":83,"Velocity":63,"Duration":131004,"SoundDuration":131004,"Delta":130879907},{"NoteNumber":82,"Velocity":66,"Duration":131004,"SoundDuration":131004,"Delta":131010911},{"NoteNumber":64,"Velocity":47,"Duration":131004,"SoundDuration":131004,"Delta":131010911},{"NoteNumber":83,"Velocity":68,"Duration":130781,"SoundDuration":130781,"Delta":131141915},{"NoteNumber":81,"Velocity":69,"Duration":129870,"SoundDuration":129870,"Delta":131272696},{"NoteNumber":73,"Velocity":51,"Duration":129870,"SoundDuration":129870,"Delta":131272696},{"NoteNumber":83,"Velocity":58,"Duration":129870,"SoundDuration":129870,"Delta":131402567},{"NoteNumber":85,"Velocity":64,"Duration":129870,"SoundDuration":129870,"Delta":131532437},{"NoteNumber":69,"Velocity":47,"Duration":129870,"SoundDuration":129870,"Delta":131532437},{"NoteNumber":86,"Velocity":59,"Duration":129870,"SoundDuration":129870,"Delta":131662307},{"NoteNumber":87,"Velocity":70,"Duration":132158,"SoundDuration":132158,"Delta":131792177},{"NoteNumber":64,"Velocity":47,"Duration":132158,"SoundDuration":132158,"Delta":131792177},{"NoteNumber":88,"Velocity":63,"Duration":132158,"SoundDuration":132158,"Delta":131924336},{"NoteNumber":87,"Velocity":66,"Duration":132158,"SoundDuration":132158,"Delta":132056494},{"NoteNumber":61,"Velocity":47,"Duration":132158,"SoundDuration":132158,"Delta":132056494},{"NoteNumber":88,"Velocity":68,"Duration":131004,"SoundDuration":131004,"Delta":132188653},{"NoteNumber":90,"Velocity":75,"Duration":130434,"SoundDuration":130434,"Delta":132319657},{"NoteNumber":62,"Velocity":51,"Duration":130434,"SoundDuration":130434,"Delta":132319657},{"NoteNumber":88,"Velocity":65,"Duration":130434,"SoundDuration":130434,"Delta":132450092},{"NoteNumber":64,"Velocity":42,"Duration":130434,"SoundDuration":130434,"Delta":132450092},{"NoteNumber":90,"Velocity":67,"Duration":130434,"SoundDuration":130434,"Delta":132580527},{"NoteNumber":62,"Velocity":46,"Duration":130434,"SoundDuration":130434,"Delta":132580527},{"NoteNumber":88,"Velocity":64,"Duration":130434,"SoundDuration":130434,"Delta":132710961},{"NoteNumber":64,"Velocity":42,"Duration":130434,"SoundDuration":130434,"Delta":132710961},{"NoteNumber":83,"Velocity":75,"Duration":128755,"SoundDuration":128755,"Delta":132841396},{"NoteNumber":68,"Velocity":51,"Duration":128755,"SoundDuration":128755,"Delta":132841396},{"NoteNumber":80,"Velocity":67,"Duration":128755,"SoundDuration":128755,"Delta":132970151},{"NoteNumber":71,"Velocity":41,"Duration":128755,"SoundDuration":128755,"Delta":132970151},{"NoteNumber":83,"Velocity":70,"Duration":128755,"SoundDuration":128755,"Delta":133098907},{"NoteNumber":68,"Velocity":45,"Duration":128755,"SoundDuration":128755,"Delta":133098907},{"NoteNumber":80,"Velocity":65,"Duration":137614,"SoundDuration":137614,"Delta":133227662},{"NoteNumber":71,"Velocity":41,"Duration":137614,"SoundDuration":137614,"Delta":133227662},{"NoteNumber":90,"Velocity":75,"Duration":130434,"SoundDuration":130434,"Delta":133365277},{"NoteNumber":61,"Velocity":51,"Duration":130434,"SoundDuration":130434,"Delta":133365277},{"NoteNumber":88,"Velocity":65,"Duration":130434,"SoundDuration":130434,"Delta":133495711},{"NoteNumber":64,"Velocity":42,"Duration":130434,"SoundDuration":130434,"Delta":133495711},{"NoteNumber":90,"Velocity":67,"Duration":130434,"SoundDuration":130434,"Delta":133626146},{"NoteNumber":61,"Velocity":46,"Duration":130434,"SoundDuration":130434,"Delta":133626146},{"NoteNumber":88,"Velocity":64,"Duration":130434,"SoundDuration":130434,"Delta":133756581},{"NoteNumber":64,"Velocity":42,"Duration":130434,"SoundDuration":130434,"Delta":133756581},{"NoteNumber":85,"Velocity":75,"Duration":128755,"SoundDuration":128755,"Delta":133887016},{"NoteNumber":69,"Velocity":51,"Duration":128755,"SoundDuration":128755,"Delta":133887016},{"NoteNumber":81,"Velocity":67,"Duration":128755,"SoundDuration":128755,"Delta":134015771},{"NoteNumber":73,"Velocity":41,"Duration":128755,"SoundDuration":128755,"Delta":134015771},{"NoteNumber":85,"Velocity":70,"Duration":128755,"SoundDuration":128755,"Delta":134144526},{"NoteNumber":69,"Velocity":45,"Duration":128755,"SoundDuration":128755,"Delta":134144526},{"NoteNumber":81,"Velocity":65,"Duration":137614,"SoundDuration":137614,"Delta":134273281},{"NoteNumber":73,"Velocity":41,"Duration":137614,"SoundDuration":137614,"Delta":134273281},{"NoteNumber":86,"Velocity":77,"Duration":129870,"SoundDuration":129870,"Delta":134410896},{"NoteNumber":64,"Velocity":69,"Duration":129870,"SoundDuration":129870,"Delta":134410896},{"NoteNumber":66,"Velocity":58,"Duration":129870,"SoundDuration":129870,"Delta":134540766},{"NoteNumber":83,"Velocity":64,"Duration":129870,"SoundDuration":129870,"Delta":134670637},{"NoteNumber":68,"Velocity":64,"Duration":129870,"SoundDuration":129870,"Delta":134670637},{"NoteNumber":69,"Velocity":59,"Duration":129870,"SoundDuration":129870,"Delta":134800507},{"NoteNumber":80,"Velocity":64,"Duration":129870,"SoundDuration":129870,"Delta":134930377},{"NoteNumber":70,"Velocity":69,"Duration":129870,"SoundDuration":129870,"Delta":134930377},{"NoteNumber":71,"Velocity":56,"Duration":129870,"SoundDuration":129870,"Delta":135060247},{"NoteNumber":76,"Velocity":64,"Duration":129870,"SoundDuration":129870,"Delta":135190118},{"NoteNumber":70,"Velocity":65,"Duration":129870,"SoundDuration":129870,"Delta":135190118},{"NoteNumber":71,"Velocity":59,"Duration":130781,"SoundDuration":130781,"Delta":135319988},{"NoteNumber":85,"Velocity":78,"Duration":129926,"SoundDuration":129926,"Delta":135450769},{"NoteNumber":69,"Velocity":69,"Duration":129926,"SoundDuration":129926,"Delta":135450769},{"NoteNumber":71,"Velocity":58,"Duration":129870,"SoundDuration":129870,"Delta":135580696},{"NoteNumber":81,"Velocity":67,"Duration":129870,"SoundDuration":129870,"Delta":135710566},{"NoteNumber":73,"Velocity":64,"Duration":129870,"SoundDuration":129870,"Delta":135710566},{"NoteNumber":74,"Velocity":59,"Duration":140845,"SoundDuration":140845,"Delta":135840436},{"NoteNumber":97,"Velocity":81,"Duration":128205,"SoundDuration":128205,"Delta":135981281},{"NoteNumber":75,"Velocity":70,"Duration":128205,"SoundDuration":128205,"Delta":135981281},{"NoteNumber":76,"Velocity":57,"Duration":128205,"SoundDuration":128205,"Delta":136109487},{"NoteNumber":93,"Velocity":75,"Duration":128205,"SoundDuration":128205,"Delta":136237692},{"NoteNumber":75,"Velocity":62,"Duration":128205,"SoundDuration":128205,"Delta":136237692},{"NoteNumber":76,"Velocity":49,"Duration":130724,"SoundDuration":130724,"Delta":136365897},{"NoteNumber":92,"Velocity":75,"Duration":130434,"SoundDuration":130434,"Delta":136496621},{"NoteNumber":62,"Velocity":58,"Duration":130434,"SoundDuration":130434,"Delta":136496621},{"NoteNumber":90,"Velocity":65,"Duration":130434,"SoundDuration":130434,"Delta":136627056},{"NoteNumber":71,"Velocity":42,"Duration":130434,"SoundDuration":130434,"Delta":136627056},{"NoteNumber":92,"Velocity":67,"Duration":130434,"SoundDuration":130434,"Delta":136757491},{"NoteNumber":62,"Velocity":46,"Duration":130434,"SoundDuration":130434,"Delta":136757491},{"NoteNumber":90,"Velocity":64,"Duration":130434,"SoundDuration":130434,"Delta":136887926},{"NoteNumber":71,"Velocity":42,"Duration":130434,"SoundDuration":130434,"Delta":136887926},{"NoteNumber":86,"Velocity":75,"Duration":128755,"SoundDuration":128755,"Delta":137018360},{"NoteNumber":64,"Velocity":51,"Duration":128755,"SoundDuration":128755,"Delta":137018360},{"NoteNumber":83,"Velocity":67,"Duration":128755,"SoundDuration":128755,"Delta":137147116},{"NoteNumber":75,"Velocity":41,"Duration":128755,"SoundDuration":128755,"Delta":137147116},{"NoteNumber":86,"Velocity":70,"Duration":128755,"SoundDuration":128755,"Delta":137275871},{"NoteNumber":64,"Velocity":45,"Duration":128755,"SoundDuration":128755,"Delta":137275871},{"NoteNumber":83,"Velocity":65,"Duration":135321,"SoundDuration":135321,"Delta":137404626},{"NoteNumber":75,"Velocity":41,"Duration":137614,"SoundDuration":137614,"Delta":137404626},{"NoteNumber":83,"Velocity":71,"Duration":130434,"SoundDuration":130434,"Delta":137542241},{"NoteNumber":69,"Velocity":51,"Duration":130434,"SoundDuration":130434,"Delta":137542241},{"NoteNumber":81,"Velocity":61,"Duration":130434,"SoundDuration":130434,"Delta":137672676},{"NoteNumber":73,"Velocity":42,"Duration":130434,"SoundDuration":130434,"Delta":137672676},{"NoteNumber":83,"Velocity":65,"Duration":130434,"SoundDuration":130434,"Delta":137803110},{"NoteNumber":69,"Velocity":46,"Duration":130434,"SoundDuration":130434,"Delta":137803110},{"NoteNumber":81,"Velocity":61,"Duration":151515,"SoundDuration":151515,"Delta":137933545},{"NoteNumber":73,"Velocity":42,"Duration":151515,"SoundDuration":151515,"Delta":137933545},{"NoteNumber":93,"Velocity":79,"Duration":128755,"SoundDuration":128755,"Delta":138085060},{"NoteNumber":57,"Velocity":51,"Duration":128755,"SoundDuration":128755,"Delta":138085060},{"NoteNumber":81,"Velocity":69,"Duration":128755,"SoundDuration":128755,"Delta":138342571},{"NoteNumber":69,"Velocity":45,"Duration":128755,"SoundDuration":128755,"Delta":138342571},{"NoteNumber":74,"Velocity":86,"Duration":129926,"SoundDuration":129926,"Delta":138608941},{"NoteNumber":76,"Velocity":73,"Duration":129926,"SoundDuration":129926,"Delta":138608941},{"NoteNumber":52,"Velocity":75,"Duration":129926,"SoundDuration":129926,"Delta":138608941},{"NoteNumber":54,"Velocity":58,"Duration":129870,"SoundDuration":129870,"Delta":138738868},{"NoteNumber":71,"Velocity":66,"Duration":129870,"SoundDuration":129870,"Delta":138868738},{"NoteNumber":76,"Velocity":56,"Duration":129870,"SoundDuration":129870,"Delta":138868738},{"NoteNumber":56,"Velocity":64,"Duration":129870,"SoundDuration":129870,"Delta":138868738},{"NoteNumber":57,"Velocity":59,"Duration":140845,"SoundDuration":140845,"Delta":138998608},{"NoteNumber":68,"Velocity":76,"Duration":128205,"SoundDuration":128205,"Delta":139139453},{"NoteNumber":76,"Velocity":64,"Duration":128205,"SoundDuration":128205,"Delta":139139453},{"NoteNumber":58,"Velocity":70,"Duration":128205,"SoundDuration":128205,"Delta":139139453},{"NoteNumber":59,"Velocity":61,"Duration":128205,"SoundDuration":128205,"Delta":139267658},{"NoteNumber":64,"Velocity":65,"Duration":128205,"SoundDuration":128205,"Delta":139395864},{"NoteNumber":76,"Velocity":55,"Duration":128205,"SoundDuration":128205,"Delta":139395864},{"NoteNumber":58,"Velocity":68,"Duration":128205,"SoundDuration":128205,"Delta":139395864},{"NoteNumber":59,"Velocity":59,"Duration":130724,"SoundDuration":130724,"Delta":139524069},{"NoteNumber":74,"Velocity":86,"Duration":129926,"SoundDuration":129926,"Delta":139654793},{"NoteNumber":76,"Velocity":73,"Duration":129926,"SoundDuration":129926,"Delta":139654793},{"NoteNumber":52,"Velocity":75,"Duration":129926,"SoundDuration":129926,"Delta":139654793},{"NoteNumber":54,"Velocity":58,"Duration":129870,"SoundDuration":129870,"Delta":139784720},{"NoteNumber":71,"Velocity":66,"Duration":129870,"SoundDuration":129870,"Delta":139914590},{"NoteNumber":76,"Velocity":56,"Duration":129870,"SoundDuration":129870,"Delta":139914590},{"NoteNumber":56,"Velocity":64,"Duration":129870,"SoundDuration":129870,"Delta":139914590},{"NoteNumber":57,"Velocity":59,"Duration":140845,"SoundDuration":140845,"Delta":140044460},{"NoteNumber":76,"Velocity":64,"Duration":128205,"SoundDuration":128205,"Delta":140185305},{"NoteNumber":68,"Velocity":76,"Duration":128205,"SoundDuration":128205,"Delta":140185305},{"NoteNumber":58,"Velocity":70,"Duration":128205,"SoundDuration":128205,"Delta":140185305},{"NoteNumber":59,"Velocity":61,"Duration":128205,"SoundDuration":128205,"Delta":140313511},{"NoteNumber":76,"Velocity":55,"Duration":128205,"SoundDuration":128205,"Delta":140441716},{"NoteNumber":64,"Velocity":65,"Duration":128205,"SoundDuration":128205,"Delta":140441716},{"NoteNumber":58,"Velocity":68,"Duration":128205,"SoundDuration":128205,"Delta":140441716},{"NoteNumber":59,"Velocity":59,"Duration":130724,"SoundDuration":130724,"Delta":140569921},{"NoteNumber":62,"Velocity":86,"Duration":129926,"SoundDuration":129926,"Delta":140700645},{"NoteNumber":64,"Velocity":73,"Duration":129926,"SoundDuration":129926,"Delta":140700645},{"NoteNumber":40,"Velocity":75,"Duration":129926,"SoundDuration":129926,"Delta":140700645},{"NoteNumber":42,"Velocity":58,"Duration":129870,"SoundDuration":129870,"Delta":140830572},{"NoteNumber":59,"Velocity":66,"Duration":129870,"SoundDuration":129870,"Delta":140960442},{"NoteNumber":64,"Velocity":56,"Duration":129870,"SoundDuration":129870,"Delta":140960442},{"NoteNumber":44,"Velocity":64,"Duration":129870,"SoundDuration":129870,"Delta":140960442},{"NoteNumber":45,"Velocity":59,"Duration":140845,"SoundDuration":140845,"Delta":141090313},{"NoteNumber":56,"Velocity":76,"Duration":128205,"SoundDuration":128205,"Delta":141231158},{"NoteNumber":64,"Velocity":64,"Duration":128205,"SoundDuration":128205,"Delta":141231158},{"NoteNumber":46,"Velocity":70,"Duration":128205,"SoundDuration":128205,"Delta":141231158},{"NoteNumber":47,"Velocity":61,"Duration":128205,"SoundDuration":128205,"Delta":141359363},{"NoteNumber":64,"Velocity":55,"Duration":128205,"SoundDuration":128205,"Delta":141487568},{"NoteNumber":52,"Velocity":65,"Duration":128205,"SoundDuration":128205,"Delta":141487568},{"NoteNumber":46,"Velocity":68,"Duration":128205,"SoundDuration":128205,"Delta":141487568},{"NoteNumber":47,"Velocity":59,"Duration":130724,"SoundDuration":130724,"Delta":141615773},{"NoteNumber":46,"Velocity":75,"Duration":131004,"SoundDuration":131004,"Delta":141746498},{"NoteNumber":47,"Velocity":62,"Duration":131004,"SoundDuration":131004,"Delta":141877502},{"NoteNumber":49,"Velocity":66,"Duration":131004,"SoundDuration":131004,"Delta":142008506},{"NoteNumber":50,"Velocity":62,"Duration":131004,"SoundDuration":131004,"Delta":142139511},{"NoteNumber":51,"Velocity":74,"Duration":131004,"SoundDuration":131004,"Delta":142270515},{"NoteNumber":52,"Velocity":63,"Duration":131004,"SoundDuration":131004,"Delta":142401519},{"NoteNumber":54,"Velocity":64,"Duration":131004,"SoundDuration":131004,"Delta":142532523},{"NoteNumber":56,"Velocity":65,"Duration":131004,"SoundDuration":131004,"Delta":142663528},{"NoteNumber":69,"Velocity":76,"Duration":131578,"SoundDuration":131578,"Delta":142794532},{"NoteNumber":57,"Velocity":60,"Duration":131578,"SoundDuration":131578,"Delta":142794532},{"NoteNumber":71,"Velocity":70,"Duration":131128,"SoundDuration":131128,"Delta":142926111},{"NoteNumber":59,"Velocity":55,"Duration":131128,"SoundDuration":131128,"Delta":142926111},{"NoteNumber":72,"Velocity":76,"Duration":130534,"SoundDuration":130534,"Delta":143057240},{"NoteNumber":60,"Velocity":60,"Duration":130534,"SoundDuration":130534,"Delta":143057240},{"NoteNumber":74,"Velocity":71,"Duration":129945,"SoundDuration":129945,"Delta":143187774},{"NoteNumber":62,"Velocity":56,"Duration":129945,"SoundDuration":129945,"Delta":143187774},{"NoteNumber":75,"Velocity":76,"Duration":129361,"SoundDuration":129361,"Delta":143317719},{"NoteNumber":63,"Velocity":60,"Duration":129361,"SoundDuration":129361,"Delta":143317719},{"NoteNumber":76,"Velocity":75,"Duration":129310,"SoundDuration":129310,"Delta":143447081},{"NoteNumber":64,"Velocity":55,"Duration":129310,"SoundDuration":129310,"Delta":143447081},{"NoteNumber":75,"Velocity":79,"Duration":129310,"SoundDuration":129310,"Delta":143576391},{"NoteNumber":63,"Velocity":58,"Duration":129310,"SoundDuration":129310,"Delta":143576391},{"NoteNumber":76,"Velocity":82,"Duration":185185,"SoundDuration":185185,"Delta":143705702},{"NoteNumber":64,"Velocity":60,"Duration":185185,"SoundDuration":185185,"Delta":143705702},{"NoteNumber":77,"Velocity":89,"Duration":579710,"SoundDuration":579710,"Delta":143890887},{"NoteNumber":74,"Velocity":75,"Duration":579710,"SoundDuration":579710,"Delta":143890887},{"NoteNumber":69,"Velocity":75,"Duration":869564,"SoundDuration":869564,"Delta":143890887},{"NoteNumber":62,"Velocity":59,"Duration":579710,"SoundDuration":579710,"Delta":143890887},{"NoteNumber":65,"Velocity":70,"Duration":579710,"SoundDuration":579710,"Delta":143890887},{"NoteNumber":72,"Velocity":67,"Duration":289854,"SoundDuration":289854,"Delta":144470597},{"NoteNumber":76,"Velocity":79,"Duration":289854,"SoundDuration":289854,"Delta":144470597},{"NoteNumber":64,"Velocity":56,"Duration":289854,"SoundDuration":289854,"Delta":144470597},{"NoteNumber":57,"Velocity":48,"Duration":289854,"SoundDuration":289854,"Delta":144470597},{"NoteNumber":69,"Velocity":75,"Duration":579710,"SoundDuration":579710,"Delta":145050307},{"NoteNumber":81,"Velocity":89,"Duration":579710,"SoundDuration":579710,"Delta":145050307},{"NoteNumber":72,"Velocity":75,"Duration":869564,"SoundDuration":869564,"Delta":145050307},{"NoteNumber":77,"Velocity":75,"Duration":579710,"SoundDuration":579710,"Delta":145050307},{"NoteNumber":53,"Velocity":59,"Duration":579710,"SoundDuration":579710,"Delta":145050307},{"NoteNumber":60,"Velocity":59,"Duration":579710,"SoundDuration":579710,"Delta":145050307},{"NoteNumber":65,"Velocity":70,"Duration":579710,"SoundDuration":579710,"Delta":145050307},{"NoteNumber":76,"Velocity":67,"Duration":289854,"SoundDuration":289854,"Delta":145630017},{"NoteNumber":79,"Velocity":79,"Duration":289854,"SoundDuration":289854,"Delta":145630017},{"NoteNumber":67,"Velocity":67,"Duration":289854,"SoundDuration":289854,"Delta":145630017},{"NoteNumber":48,"Velocity":48,"Duration":289854,"SoundDuration":289854,"Delta":145630017},{"NoteNumber":60,"Velocity":56,"Duration":289854,"SoundDuration":289854,"Delta":145630017},{"NoteNumber":76,"Velocity":73,"Duration":132743,"SoundDuration":132743,"Delta":146209727},{"NoteNumber":72,"Velocity":73,"Duration":132743,"SoundDuration":132743,"Delta":146209727},{"NoteNumber":84,"Velocity":86,"Duration":132743,"SoundDuration":132743,"Delta":146209727},{"NoteNumber":57,"Velocity":65,"Duration":132743,"SoundDuration":132743,"Delta":146209727},{"NoteNumber":45,"Velocity":55,"Duration":132743,"SoundDuration":132743,"Delta":146209727},{"NoteNumber":83,"Velocity":72,"Duration":133928,"SoundDuration":133928,"Delta":146475213},{"NoteNumber":76,"Velocity":61,"Duration":133928,"SoundDuration":133928,"Delta":146475213},{"NoteNumber":71,"Velocity":61,"Duration":133928,"SoundDuration":133928,"Delta":146475213},{"NoteNumber":43,"Velocity":45,"Duration":133928,"SoundDuration":133928,"Delta":146475213},{"NoteNumber":55,"Velocity":54,"Duration":133928,"SoundDuration":133928,"Delta":146475213},{"NoteNumber":69,"Velocity":66,"Duration":131578,"SoundDuration":131578,"Delta":146743070},{"NoteNumber":81,"Velocity":78,"Duration":131578,"SoundDuration":131578,"Delta":146743070},{"NoteNumber":72,"Velocity":66,"Duration":131578,"SoundDuration":131578,"Delta":146743070},{"NoteNumber":41,"Velocity":50,"Duration":131578,"SoundDuration":131578,"Delta":146743070},{"NoteNumber":53,"Velocity":59,"Duration":131578,"SoundDuration":131578,"Delta":146743070},{"NoteNumber":79,"Velocity":70,"Duration":131578,"SoundDuration":131578,"Delta":147006228},{"NoteNumber":72,"Velocity":59,"Duration":131578,"SoundDuration":131578,"Delta":147006228},{"NoteNumber":67,"Velocity":59,"Duration":131578,"SoundDuration":131578,"Delta":147006228},{"NoteNumber":40,"Velocity":45,"Duration":131578,"SoundDuration":131578,"Delta":147006228},{"NoteNumber":52,"Velocity":53,"Duration":131578,"SoundDuration":131578,"Delta":147006228},{"NoteNumber":69,"Velocity":73,"Duration":129926,"SoundDuration":129926,"Delta":147268869},{"NoteNumber":77,"Velocity":86,"Duration":129926,"SoundDuration":129926,"Delta":147268869},{"NoteNumber":65,"Velocity":73,"Duration":129926,"SoundDuration":129926,"Delta":147268869},{"NoteNumber":50,"Velocity":65,"Duration":129926,"SoundDuration":129926,"Delta":147268869},{"NoteNumber":38,"Velocity":55,"Duration":129926,"SoundDuration":129926,"Delta":147268869},{"NoteNumber":76,"Velocity":70,"Duration":129870,"SoundDuration":129870,"Delta":147528666},{"NoteNumber":64,"Velocity":59,"Duration":129870,"SoundDuration":129870,"Delta":147528666},{"NoteNumber":69,"Velocity":59,"Duration":129870,"SoundDuration":129870,"Delta":147528666},{"NoteNumber":48,"Velocity":53,"Duration":129870,"SoundDuration":129870,"Delta":147528666},{"NoteNumber":36,"Velocity":45,"Duration":129870,"SoundDuration":129870,"Delta":147528666},{"NoteNumber":65,"Velocity":68,"Duration":131004,"SoundDuration":131004,"Delta":147789540},{"NoteNumber":69,"Velocity":68,"Duration":131004,"SoundDuration":131004,"Delta":147789540},{"NoteNumber":74,"Velocity":80,"Duration":131004,"SoundDuration":131004,"Delta":147789540},{"NoteNumber":50,"Velocity":61,"Duration":131004,"SoundDuration":131004,"Delta":147789540},{"NoteNumber":38,"Velocity":51,"Duration":131004,"SoundDuration":131004,"Delta":147789540},{"NoteNumber":72,"Velocity":70,"Duration":131004,"SoundDuration":131004,"Delta":148051549},{"NoteNumber":69,"Velocity":59,"Duration":131004,"SoundDuration":131004,"Delta":148051549},{"NoteNumber":66,"Velocity":59,"Duration":131004,"SoundDuration":131004,"Delta":148051549},{"NoteNumber":39,"Velocity":45,"Duration":131004,"SoundDuration":131004,"Delta":148051549},{"NoteNumber":51,"Velocity":53,"Duration":131004,"SoundDuration":131004,"Delta":148051549},{"NoteNumber":76,"Velocity":86,"Duration":521738,"SoundDuration":521738,"Delta":148327481},{"NoteNumber":68,"Velocity":73,"Duration":521738,"SoundDuration":521738,"Delta":148327481},{"NoteNumber":64,"Velocity":73,"Duration":521738,"SoundDuration":521738,"Delta":148327481},{"NoteNumber":71,"Velocity":73,"Duration":521738,"SoundDuration":521738,"Delta":148327481},{"NoteNumber":52,"Velocity":69,"Duration":130434,"SoundDuration":130434,"Delta":148327481},{"NoteNumber":40,"Velocity":69,"Duration":130434,"SoundDuration":130434,"Delta":148327481},{"NoteNumber":44,"Velocity":63,"Duration":130434,"SoundDuration":130434,"Delta":148457915},{"NoteNumber":47,"Velocity":63,"Duration":130434,"SoundDuration":130434,"Delta":148588350},{"NoteNumber":52,"Velocity":63,"Duration":130434,"SoundDuration":130434,"Delta":148718785},{"NoteNumber":56,"Velocity":65,"Duration":130434,"SoundDuration":130434,"Delta":148849220},{"NoteNumber":57,"Velocity":61,"Duration":130434,"SoundDuration":130434,"Delta":148979654},{"NoteNumber":59,"Velocity":61,"Duration":130434,"SoundDuration":130434,"Delta":149110089},{"NoteNumber":60,"Velocity":61,"Duration":143540,"SoundDuration":143540,"Delta":149240524},{"NoteNumber":64,"Velocity":65,"Duration":133928,"SoundDuration":133928,"Delta":149384065},{"NoteNumber":50,"Velocity":69,"Duration":133928,"SoundDuration":133928,"Delta":149384065},{"NoteNumber":62,"Velocity":81,"Duration":133928,"SoundDuration":133928,"Delta":149384065},{"NoteNumber":66,"Velocity":59,"Duration":133928,"SoundDuration":133928,"Delta":149517993},{"NoteNumber":68,"Velocity":59,"Duration":129870,"SoundDuration":129870,"Delta":149651922},{"NoteNumber":61,"Velocity":55,"Duration":129870,"SoundDuration":129870,"Delta":149651922},{"NoteNumber":49,"Velocity":46,"Duration":129870,"SoundDuration":129870,"Delta":149651922},{"NoteNumber":69,"Velocity":61,"Duration":129870,"SoundDuration":129870,"Delta":149781792},{"NoteNumber":70,"Velocity":64,"Duration":129870,"SoundDuration":129870,"Delta":149911662},{"NoteNumber":50,"Velocity":51,"Duration":129870,"SoundDuration":129870,"Delta":149911662},{"NoteNumber":62,"Velocity":61,"Duration":129870,"SoundDuration":129870,"Delta":149911662},{"NoteNumber":71,"Velocity":59,"Duration":129870,"SoundDuration":129870,"Delta":150041532},{"NoteNumber":70,"Velocity":65,"Duration":129870,"SoundDuration":129870,"Delta":150171403},{"NoteNumber":52,"Velocity":48,"Duration":129870,"SoundDuration":129870,"Delta":150171403},{"NoteNumber":64,"Velocity":57,"Duration":129870,"SoundDuration":129870,"Delta":150171403},{"NoteNumber":71,"Velocity":59,"Duration":129870,"SoundDuration":129870,"Delta":150301273},{"NoteNumber":69,"Velocity":70,"Duration":133928,"SoundDuration":133928,"Delta":150431143},{"NoteNumber":48,"Velocity":67,"Duration":133928,"SoundDuration":133928,"Delta":150431143},{"NoteNumber":60,"Velocity":80,"Duration":133928,"SoundDuration":133928,"Delta":150431143},{"NoteNumber":71,"Velocity":64,"Duration":133928,"SoundDuration":133928,"Delta":150565072},{"NoteNumber":72,"Velocity":64,"Duration":129870,"SoundDuration":129870,"Delta":150699000},{"NoteNumber":45,"Velocity":47,"Duration":129870,"SoundDuration":129870,"Delta":150699000},{"NoteNumber":57,"Velocity":56,"Duration":129870,"SoundDuration":129870,"Delta":150699000},{"NoteNumber":74,"Velocity":64,"Duration":129870,"SoundDuration":129870,"Delta":150828870},{"NoteNumber":75,"Velocity":69,"Duration":131578,"SoundDuration":131578,"Delta":150958741},{"NoteNumber":59,"Velocity":59,"Duration":131578,"SoundDuration":131578,"Delta":150958741},{"NoteNumber":47,"Velocity":50,"Duration":131578,"SoundDuration":131578,"Delta":150958741},{"NoteNumber":76,"Velocity":64,"Duration":131579,"SoundDuration":131579,"Delta":151090320},{"NoteNumber":75,"Velocity":68,"Duration":131578,"SoundDuration":131578,"Delta":151221899},{"NoteNumber":48,"Velocity":48,"Duration":131578,"SoundDuration":131578,"Delta":151221899},{"NoteNumber":60,"Velocity":57,"Duration":131578,"SoundDuration":131578,"Delta":151221899},{"NoteNumber":76,"Velocity":64,"Duration":131061,"SoundDuration":131061,"Delta":151353478},{"NoteNumber":77,"Velocity":76,"Duration":129926,"SoundDuration":129926,"Delta":151484539},{"NoteNumber":62,"Velocity":81,"Duration":129926,"SoundDuration":129926,"Delta":151484539},{"NoteNumber":50,"Velocity":69,"Duration":129926,"SoundDuration":129926,"Delta":151484539},{"NoteNumber":76,"Velocity":69,"Duration":129870,"SoundDuration":129870,"Delta":151614466},{"NoteNumber":74,"Velocity":67,"Duration":129870,"SoundDuration":129870,"Delta":151744336},{"NoteNumber":59,"Velocity":57,"Duration":129870,"SoundDuration":129870,"Delta":151744336},{"NoteNumber":47,"Velocity":48,"Duration":129870,"SoundDuration":129870,"Delta":151744336},{"NoteNumber":72,"Velocity":66,"Duration":131004,"SoundDuration":131004,"Delta":151874207},{"NoteNumber":76,"Velocity":77,"Duration":131004,"SoundDuration":131004,"Delta":152005211},{"NoteNumber":60,"Velocity":60,"Duration":131004,"SoundDuration":131004,"Delta":152005211},{"NoteNumber":48,"Velocity":51,"Duration":131004,"SoundDuration":131004,"Delta":152005211},{"NoteNumber":74,"Velocity":69,"Duration":131004,"SoundDuration":131004,"Delta":152136215},{"NoteNumber":72,"Velocity":67,"Duration":131004,"SoundDuration":131004,"Delta":152267219},{"NoteNumber":64,"Velocity":57,"Duration":131004,"SoundDuration":131004,"Delta":152267219},{"NoteNumber":52,"Velocity":48,"Duration":131004,"SoundDuration":131004,"Delta":152267219},{"NoteNumber":71,"Velocity":65,"Duration":131004,"SoundDuration":131004,"Delta":152398224},{"NoteNumber":69,"Velocity":73,"Duration":134529,"SoundDuration":134529,"Delta":152529228},{"NoteNumber":57,"Velocity":81,"Duration":134529,"SoundDuration":134529,"Delta":152529228},{"NoteNumber":45,"Velocity":69,"Duration":134529,"SoundDuration":134529,"Delta":152529228},{"NoteNumber":71,"Velocity":65,"Duration":134529,"SoundDuration":134529,"Delta":152663757},{"NoteNumber":72,"Velocity":66,"Duration":130434,"SoundDuration":130434,"Delta":152798286},{"NoteNumber":52,"Velocity":55,"Duration":130434,"SoundDuration":130434,"Delta":152798286},{"NoteNumber":74,"Velocity":68,"Duration":130434,"SoundDuration":130434,"Delta":152928721},{"NoteNumber":76,"Velocity":69,"Duration":130434,"SoundDuration":130434,"Delta":153059156},{"NoteNumber":48,"Velocity":61,"Duration":130434,"SoundDuration":130434,"Delta":153059156},{"NoteNumber":78,"Velocity":70,"Duration":130434,"SoundDuration":130434,"Delta":153189591},{"NoteNumber":80,"Velocity":72,"Duration":130434,"SoundDuration":130434,"Delta":153320025},{"NoteNumber":45,"Velocity":57,"Duration":130434,"SoundDuration":130434,"Delta":153320025},{"NoteNumber":81,"Velocity":73,"Duration":145631,"SoundDuration":145631,"Delta":153450460},{"NoteNumber":70,"Velocity":80,"Duration":129310,"SoundDuration":129310,"Delta":153596091},{"NoteNumber":82,"Velocity":96,"Duration":129310,"SoundDuration":129310,"Delta":153596091},{"NoteNumber":48,"Velocity":63,"Duration":142241,"SoundDuration":142241,"Delta":153596091},{"NoteNumber":50,"Velocity":57,"Duration":142297,"SoundDuration":142297,"Delta":153725401},{"NoteNumber":81,"Velocity":67,"Duration":129870,"SoundDuration":129870,"Delta":153854712},{"NoteNumber":69,"Velocity":56,"Duration":129870,"SoundDuration":129870,"Delta":153854712},{"NoteNumber":52,"Velocity":57,"Duration":142857,"SoundDuration":142857,"Delta":153854712},{"NoteNumber":53,"Velocity":57,"Duration":143028,"SoundDuration":143028,"Delta":153984582},{"NoteNumber":82,"Velocity":70,"Duration":131578,"SoundDuration":131578,"Delta":154114452},{"NoteNumber":70,"Velocity":60,"Duration":131578,"SoundDuration":131578,"Delta":154114452},{"NoteNumber":54,"Velocity":62,"Duration":144736,"SoundDuration":144736,"Delta":154114452},{"NoteNumber":55,"Velocity":57,"Duration":144736,"SoundDuration":144736,"Delta":154246031},{"NoteNumber":84,"Velocity":68,"Duration":131578,"SoundDuration":131578,"Delta":154377610},{"NoteNumber":72,"Velocity":57,"Duration":131578,"SoundDuration":131578,"Delta":154377610},{"NoteNumber":54,"Velocity":61,"Duration":144736,"SoundDuration":144736,"Delta":154377610},{"NoteNumber":55,"Velocity":57,"Duration":131579,"SoundDuration":131579,"Delta":154509189},{"NoteNumber":69,"Velocity":80,"Duration":129870,"SoundDuration":129870,"Delta":154640768},{"NoteNumber":81,"Velocity":96,"Duration":129870,"SoundDuration":129870,"Delta":154640768},{"NoteNumber":53,"Velocity":63,"Duration":142857,"SoundDuration":142857,"Delta":154640768},{"NoteNumber":55,"Velocity":57,"Duration":142857,"SoundDuration":142857,"Delta":154770638},{"NoteNumber":65,"Velocity":56,"Duration":129870,"SoundDuration":129870,"Delta":154900509},{"NoteNumber":77,"Velocity":67,"Duration":129870,"SoundDuration":129870,"Delta":154900509},{"NoteNumber":57,"Velocity":57,"Duration":142857,"SoundDuration":142857,"Delta":154900509},{"NoteNumber":58,"Velocity":57,"Duration":143028,"SoundDuration":143028,"Delta":155030379},{"NoteNumber":79,"Velocity":70,"Duration":131578,"SoundDuration":131578,"Delta":155160249},{"NoteNumber":67,"Velocity":60,"Duration":131578,"SoundDuration":131578,"Delta":155160249},{"NoteNumber":59,"Velocity":62,"Duration":144736,"SoundDuration":144736,"Delta":155160249},{"NoteNumber":60,"Velocity":57,"Duration":144736,"SoundDuration":144736,"Delta":155291828},{"NoteNumber":69,"Velocity":57,"Duration":131578,"SoundDuration":131578,"Delta":155423407},{"NoteNumber":81,"Velocity":68,"Duration":131578,"SoundDuration":131578,"Delta":155423407},{"NoteNumber":59,"Velocity":61,"Duration":144736,"SoundDuration":144736,"Delta":155423407},{"NoteNumber":60,"Velocity":57,"Duration":131579,"SoundDuration":131579,"Delta":155554986},{"NoteNumber":70,"Velocity":80,"Duration":128755,"SoundDuration":128755,"Delta":155686565},{"NoteNumber":82,"Velocity":96,"Duration":128755,"SoundDuration":128755,"Delta":155686565},{"NoteNumber":62,"Velocity":63,"Duration":141630,"SoundDuration":141630,"Delta":155686565},{"NoteNumber":60,"Velocity":57,"Duration":141742,"SoundDuration":141742,"Delta":155815320},{"NoteNumber":67,"Velocity":56,"Duration":129870,"SoundDuration":129870,"Delta":155944076},{"NoteNumber":79,"Velocity":67,"Duration":129870,"SoundDuration":129870,"Delta":155944076},{"NoteNumber":58,"Velocity":57,"Duration":142857,"SoundDuration":142857,"Delta":155944076},{"NoteNumber":57,"Velocity":57,"Duration":143028,"SoundDuration":143028,"Delta":156073946},{"NoteNumber":69,"Velocity":69,"Duration":131578,"SoundDuration":131578,"Delta":156203816},{"NoteNumber":81,"Velocity":91,"Duration":131578,"SoundDuration":131578,"Delta":156203816},{"NoteNumber":60,"Velocity":62,"Duration":144736,"SoundDuration":144736,"Delta":156203816},{"NoteNumber":58,"Velocity":57,"Duration":144736,"SoundDuration":144736,"Delta":156335395},{"NoteNumber":84,"Velocity":68,"Duration":131578,"SoundDuration":131578,"Delta":156466974},{"NoteNumber":72,"Velocity":57,"Duration":131578,"SoundDuration":131578,"Delta":156466974},{"NoteNumber":57,"Velocity":61,"Duration":144736,"SoundDuration":144736,"Delta":156466974},{"NoteNumber":55,"Velocity":57,"Duration":131579,"SoundDuration":131579,"Delta":156598553},{"NoteNumber":65,"Velocity":80,"Duration":129310,"SoundDuration":129310,"Delta":156730132},{"NoteNumber":77,"Velocity":96,"Duration":129310,"SoundDuration":129310,"Delta":156730132},{"NoteNumber":53,"Velocity":63,"Duration":142241,"SoundDuration":142241,"Delta":156730132},{"NoteNumber":55,"Velocity":57,"Duration":142297,"SoundDuration":142297,"Delta":156859442},{"NoteNumber":72,"Velocity":67,"Duration":129870,"SoundDuration":129870,"Delta":156988753},{"NoteNumber":57,"Velocity":57,"Duration":142857,"SoundDuration":142857,"Delta":156988753},{"NoteNumber":58,"Velocity":57,"Duration":143028,"SoundDuration":143028,"Delta":157118623},{"NoteNumber":69,"Velocity":70,"Duration":131578,"SoundDuration":131578,"Delta":157248493},{"NoteNumber":60,"Velocity":62,"Duration":144736,"SoundDuration":144736,"Delta":157248493},{"NoteNumber":62,"Velocity":57,"Duration":144736,"SoundDuration":144736,"Delta":157380072},{"NoteNumber":65,"Velocity":68,"Duration":120614,"SoundDuration":120614,"Delta":157511651},{"NoteNumber":64,"Velocity":61,"Duration":144736,"SoundDuration":144736,"Delta":157511651},{"NoteNumber":65,"Velocity":57,"Duration":131579,"SoundDuration":131579,"Delta":157643230},{"NoteNumber":69,"Velocity":68,"Duration":133928,"SoundDuration":133928,"Delta":157774809},{"NoteNumber":55,"Velocity":69,"Duration":133928,"SoundDuration":133928,"Delta":157774809},{"NoteNumber":67,"Velocity":81,"Duration":133928,"SoundDuration":133928,"Delta":157774809},{"NoteNumber":71,"Velocity":61,"Duration":133928,"SoundDuration":133928,"Delta":157908738},{"NoteNumber":73,"Velocity":61,"Duration":129870,"SoundDuration":129870,"Delta":158042666},{"NoteNumber":66,"Velocity":55,"Duration":129870,"SoundDuration":129870,"Delta":158042666},{"NoteNumber":54,"Velocity":46,"Duration":129870,"SoundDuration":129870,"Delta":158042666},{"NoteNumber":74,"Velocity":64,"Duration":129870,"SoundDuration":129870,"Delta":158172536},{"NoteNumber":75,"Velocity":67,"Duration":129870,"SoundDuration":129870,"Delta":158302407},{"NoteNumber":55,"Velocity":51,"Duration":129870,"SoundDuration":129870,"Delta":158302407},{"NoteNumber":67,"Velocity":61,"Duration":129870,"SoundDuration":129870,"Delta":158302407},{"NoteNumber":76,"Velocity":61,"Duration":129870,"SoundDuration":129870,"Delta":158432277},{"NoteNumber":75,"Velocity":68,"Duration":129870,"SoundDuration":129870,"Delta":158562147},{"NoteNumber":69,"Velocity":57,"Duration":129870,"SoundDuration":129870,"Delta":158562147},{"NoteNumber":57,"Velocity":48,"Duration":129870,"SoundDuration":129870,"Delta":158562147},{"NoteNumber":76,"Velocity":61,"Duration":129870,"SoundDuration":129870,"Delta":158692017},{"NoteNumber":74,"Velocity":73,"Duration":133928,"SoundDuration":133928,"Delta":158821888},{"NoteNumber":65,"Velocity":80,"Duration":133928,"SoundDuration":133928,"Delta":158821888},{"NoteNumber":53,"Velocity":67,"Duration":133928,"SoundDuration":133928,"Delta":158821888},{"NoteNumber":76,"Velocity":67,"Duration":133928,"SoundDuration":133928,"Delta":158955816},{"NoteNumber":77,"Velocity":67,"Duration":129870,"SoundDuration":129870,"Delta":159089745},{"NoteNumber":62,"Velocity":56,"Duration":129870,"SoundDuration":129870,"Delta":159089745},{"NoteNumber":50,"Velocity":47,"Duration":129870,"SoundDuration":129870,"Delta":159089745},{"NoteNumber":79,"Velocity":67,"Duration":129870,"SoundDuration":129870,"Delta":159219615},{"NoteNumber":80,"Velocity":72,"Duration":131578,"SoundDuration":131578,"Delta":159349485},{"NoteNumber":52,"Velocity":50,"Duration":131578,"SoundDuration":131578,"Delta":159349485},{"NoteNumber":64,"Velocity":59,"Duration":131578,"SoundDuration":131578,"Delta":159349485},{"NoteNumber":81,"Velocity":67,"Duration":131579,"SoundDuration":131579,"Delta":159481064},{"NoteNumber":80,"Velocity":71,"Duration":131578,"SoundDuration":131578,"Delta":159612643},{"NoteNumber":53,"Velocity":48,"Duration":131578,"SoundDuration":131578,"Delta":159612643},{"NoteNumber":65,"Velocity":57,"Duration":131578,"SoundDuration":131578,"Delta":159612643},{"NoteNumber":81,"Velocity":67,"Duration":131061,"SoundDuration":131061,"Delta":159744222},{"NoteNumber":82,"Velocity":76,"Duration":129926,"SoundDuration":129926,"Delta":159875284},{"NoteNumber":67,"Velocity":81,"Duration":129926,"SoundDuration":129926,"Delta":159875284},{"NoteNumber":55,"Velocity":69,"Duration":129926,"SoundDuration":129926,"Delta":159875284},{"NoteNumber":81,"Velocity":72,"Duration":129870,"SoundDuration":129870,"Delta":160005211},{"NoteNumber":79,"Velocity":70,"Duration":129870,"SoundDuration":129870,"Delta":160135081},{"NoteNumber":64,"Velocity":57,"Duration":129870,"SoundDuration":129870,"Delta":160135081},{"NoteNumber":52,"Velocity":48,"Duration":129870,"SoundDuration":129870,"Delta":160135081},{"NoteNumber":77,"Velocity":69,"Duration":131004,"SoundDuration":131004,"Delta":160264951},{"NoteNumber":81,"Velocity":77,"Duration":131004,"SoundDuration":131004,"Delta":160395955},{"NoteNumber":53,"Velocity":51,"Duration":131004,"SoundDuration":131004,"Delta":160395955},{"NoteNumber":65,"Velocity":60,"Duration":131004,"SoundDuration":131004,"Delta":160395955},{"NoteNumber":79,"Velocity":72,"Duration":131004,"SoundDuration":131004,"Delta":160526960},{"NoteNumber":77,"Velocity":70,"Duration":131004,"SoundDuration":131004,"Delta":160657964},{"NoteNumber":69,"Velocity":57,"Duration":131004,"SoundDuration":131004,"Delta":160657964},{"NoteNumber":57,"Velocity":48,"Duration":131004,"SoundDuration":131004,"Delta":160657964},{"NoteNumber":76,"Velocity":68,"Duration":131004,"SoundDuration":131004,"Delta":160788968},{"NoteNumber":74,"Velocity":76,"Duration":134529,"SoundDuration":134529,"Delta":160919972},{"NoteNumber":62,"Velocity":81,"Duration":134529,"SoundDuration":134529,"Delta":160919972},{"NoteNumber":50,"Velocity":69,"Duration":134529,"SoundDuration":134529,"Delta":160919972},{"NoteNumber":76,"Velocity":68,"Duration":134529,"SoundDuration":134529,"Delta":161054502},{"NoteNumber":77,"Velocity":69,"Duration":130434,"SoundDuration":130434,"Delta":161189031},{"NoteNumber":57,"Velocity":55,"Duration":130434,"SoundDuration":130434,"Delta":161189031},{"NoteNumber":79,"Velocity":71,"Duration":130434,"SoundDuration":130434,"Delta":161319466},{"NoteNumber":81,"Velocity":72,"Duration":130434,"SoundDuration":130434,"Delta":161449900},{"NoteNumber":53,"Velocity":61,"Duration":130434,"SoundDuration":130434,"Delta":161449900},{"NoteNumber":83,"Velocity":73,"Duration":130434,"SoundDuration":130434,"Delta":161580335},{"NoteNumber":85,"Velocity":75,"Duration":130434,"SoundDuration":130434,"Delta":161710770},{"NoteNumber":50,"Velocity":57,"Duration":130434,"SoundDuration":130434,"Delta":161710770},{"NoteNumber":86,"Velocity":76,"Duration":145631,"SoundDuration":145631,"Delta":161841205},{"NoteNumber":87,"Velocity":105,"Duration":129310,"SoundDuration":129310,"Delta":161986836},{"NoteNumber":75,"Velocity":88,"Duration":129310,"SoundDuration":129310,"Delta":161986836},{"NoteNumber":53,"Velocity":63,"Duration":142241,"SoundDuration":142241,"Delta":161986836},{"NoteNumber":55,"Velocity":57,"Duration":142297,"SoundDuration":142297,"Delta":162116146},{"NoteNumber":86,"Velocity":70,"Duration":129870,"SoundDuration":129870,"Delta":162245456},{"NoteNumber":74,"Velocity":58,"Duration":129870,"SoundDuration":129870,"Delta":162245456},{"NoteNumber":57,"Velocity":57,"Duration":142857,"SoundDuration":142857,"Delta":162245456},{"NoteNumber":58,"Velocity":57,"Duration":143028,"SoundDuration":143028,"Delta":162375326},{"NoteNumber":75,"Velocity":63,"Duration":131578,"SoundDuration":131578,"Delta":162505197},{"NoteNumber":87,"Velocity":73,"Duration":131578,"SoundDuration":131578,"Delta":162505197},{"NoteNumber":59,"Velocity":62,"Duration":144736,"SoundDuration":144736,"Delta":162505197},{"NoteNumber":60,"Velocity":57,"Duration":144736,"SoundDuration":144736,"Delta":162636776},{"NoteNumber":77,"Velocity":59,"Duration":131578,"SoundDuration":131578,"Delta":162768355},{"NoteNumber":89,"Velocity":71,"Duration":131578,"SoundDuration":131578,"Delta":162768355},{"NoteNumber":59,"Velocity":61,"Duration":144736,"SoundDuration":144736,"Delta":162768355},{"NoteNumber":60,"Velocity":57,"Duration":131579,"SoundDuration":131579,"Delta":162899934},{"NoteNumber":74,"Velocity":88,"Duration":129870,"SoundDuration":129870,"Delta":163031513},{"NoteNumber":86,"Velocity":105,"Duration":129870,"SoundDuration":129870,"Delta":163031513},{"NoteNumber":58,"Velocity":63,"Duration":142857,"SoundDuration":142857,"Delta":163031513},{"NoteNumber":60,"Velocity":57,"Duration":142857,"SoundDuration":142857,"Delta":163161383},{"NoteNumber":82,"Velocity":70,"Duration":129870,"SoundDuration":129870,"Delta":163291253},{"NoteNumber":70,"Velocity":58,"Duration":129870,"SoundDuration":129870,"Delta":163291253},{"NoteNumber":62,"Velocity":57,"Duration":142857,"SoundDuration":142857,"Delta":163291253},{"NoteNumber":63,"Velocity":57,"Duration":143028,"SoundDuration":143028,"Delta":163421123},{"NoteNumber":84,"Velocity":73,"Duration":131578,"SoundDuration":131578,"Delta":163550994},{"NoteNumber":72,"Velocity":63,"Duration":131578,"SoundDuration":131578,"Delta":163550994},{"NoteNumber":64,"Velocity":62,"Duration":144736,"SoundDuration":144736,"Delta":163550994},{"NoteNumber":65,"Velocity":57,"Duration":144736,"SoundDuration":144736,"Delta":163682573},{"NoteNumber":86,"Velocity":71,"Duration":131578,"SoundDuration":131578,"Delta":163814152},{"NoteNumber":74,"Velocity":59,"Duration":131578,"SoundDuration":131578,"Delta":163814152},{"NoteNumber":64,"Velocity":61,"Duration":144736,"SoundDuration":144736,"Delta":163814152},{"NoteNumber":65,"Velocity":57,"Duration":131579,"SoundDuration":131579,"Delta":163945731},{"NoteNumber":87,"Velocity":105,"Duration":128755,"SoundDuration":128755,"Delta":164077310},{"NoteNumber":75,"Velocity":88,"Duration":128755,"SoundDuration":128755,"Delta":164077310},{"NoteNumber":67,"Velocity":63,"Duration":141630,"SoundDuration":141630,"Delta":164077310},{"NoteNumber":65,"Velocity":57,"Duration":141742,"SoundDuration":141742,"Delta":164206065},{"NoteNumber":84,"Velocity":70,"Duration":129870,"SoundDuration":129870,"Delta":164334820},{"NoteNumber":72,"Velocity":58,"Duration":129870,"SoundDuration":129870,"Delta":164334820},{"NoteNumber":63,"Velocity":57,"Duration":142857,"SoundDuration":142857,"Delta":164334820},{"NoteNumber":62,"Velocity":57,"Duration":143028,"SoundDuration":143028,"Delta":164464690},{"NoteNumber":86,"Velocity":95,"Duration":131578,"SoundDuration":131578,"Delta":164594561},{"NoteNumber":74,"Velocity":72,"Duration":131578,"SoundDuration":131578,"Delta":164594561},{"NoteNumber":65,"Velocity":62,"Duration":144736,"SoundDuration":144736,"Delta":164594561},{"NoteNumber":63,"Velocity":57,"Duration":144736,"SoundDuration":144736,"Delta":164726140},{"NoteNumber":89,"Velocity":71,"Duration":131578,"SoundDuration":131578,"Delta":164857719},{"NoteNumber":77,"Velocity":59,"Duration":131578,"SoundDuration":131578,"Delta":164857719},{"NoteNumber":62,"Velocity":61,"Duration":144736,"SoundDuration":144736,"Delta":164857719},{"NoteNumber":60,"Velocity":57,"Duration":131579,"SoundDuration":131579,"Delta":164989298},{"NoteNumber":74,"Velocity":84,"Duration":129870,"SoundDuration":129870,"Delta":165120877},{"NoteNumber":86,"Velocity":100,"Duration":129870,"SoundDuration":129870,"Delta":165120877},{"NoteNumber":65,"Velocity":63,"Duration":142857,"SoundDuration":142857,"Delta":165120877},{"NoteNumber":63,"Velocity":57,"Duration":142857,"SoundDuration":142857,"Delta":165250747},{"NoteNumber":82,"Velocity":70,"Duration":129870,"SoundDuration":129870,"Delta":165380617},{"NoteNumber":70,"Velocity":58,"Duration":129870,"SoundDuration":129870,"Delta":165380617},{"NoteNumber":62,"Velocity":57,"Duration":142857,"SoundDuration":142857,"Delta":165380617},{"NoteNumber":60,"Velocity":57,"Duration":143028,"SoundDuration":143028,"Delta":165510487},{"NoteNumber":72,"Velocity":63,"Duration":131578,"SoundDuration":131578,"Delta":165640358},{"NoteNumber":84,"Velocity":73,"Duration":131578,"SoundDuration":131578,"Delta":165640358},{"NoteNumber":63,"Velocity":62,"Duration":144736,"SoundDuration":144736,"Delta":165640358},{"NoteNumber":62,"Velocity":57,"Duration":144736,"SoundDuration":144736,"Delta":165771937},{"NoteNumber":87,"Velocity":71,"Duration":131578,"SoundDuration":131578,"Delta":165903516},{"NoteNumber":75,"Velocity":59,"Duration":131578,"SoundDuration":131578,"Delta":165903516},{"NoteNumber":60,"Velocity":61,"Duration":144736,"SoundDuration":144736,"Delta":165903516},{"NoteNumber":62,"Velocity":57,"Duration":131579,"SoundDuration":131579,"Delta":166035095},{"NoteNumber":72,"Velocity":79,"Duration":128755,"SoundDuration":128755,"Delta":166166674},{"NoteNumber":84,"Velocity":95,"Duration":128755,"SoundDuration":128755,"Delta":166166674},{"NoteNumber":63,"Velocity":63,"Duration":141630,"SoundDuration":141630,"Delta":166166674},{"NoteNumber":62,"Velocity":57,"Duration":141742,"SoundDuration":141742,"Delta":166295429},{"NoteNumber":69,"Velocity":58,"Duration":129870,"SoundDuration":129870,"Delta":166424184},{"NoteNumber":81,"Velocity":70,"Duration":129870,"SoundDuration":129870,"Delta":166424184},{"NoteNumber":60,"Velocity":57,"Duration":142857,"SoundDuration":142857,"Delta":166424184},{"NoteNumber":58,"Velocity":57,"Duration":143028,"SoundDuration":143028,"Delta":166554054},{"NoteNumber":82,"Velocity":95,"Duration":131578,"SoundDuration":131578,"Delta":166683925},{"NoteNumber":70,"Velocity":72,"Duration":131578,"SoundDuration":131578,"Delta":166683925},{"NoteNumber":62,"Velocity":62,"Duration":144736,"SoundDuration":144736,"Delta":166683925},{"NoteNumber":60,"Velocity":57,"Duration":144736,"SoundDuration":144736,"Delta":166815504},{"NoteNumber":74,"Velocity":59,"Duration":131578,"SoundDuration":131578,"Delta":166947083},{"NoteNumber":86,"Velocity":71,"Duration":131578,"SoundDuration":131578,"Delta":166947083},{"NoteNumber":58,"Velocity":61,"Duration":144736,"SoundDuration":144736,"Delta":166947083},{"NoteNumber":60,"Velocity":57,"Duration":131579,"SoundDuration":131579,"Delta":167078662},{"NoteNumber":86,"Velocity":73,"Duration":128755,"SoundDuration":128755,"Delta":167210241},{"NoteNumber":58,"Velocity":80,"Duration":128755,"SoundDuration":128755,"Delta":167210241},{"NoteNumber":46,"Velocity":67,"Duration":128755,"SoundDuration":128755,"Delta":167210241},{"NoteNumber":84,"Velocity":67,"Duration":128755,"SoundDuration":128755,"Delta":167338996},{"NoteNumber":82,"Velocity":67,"Duration":129870,"SoundDuration":129870,"Delta":167467751},{"NoteNumber":43,"Velocity":47,"Duration":129870,"SoundDuration":129870,"Delta":167467751},{"NoteNumber":55,"Velocity":56,"Duration":129870,"SoundDuration":129870,"Delta":167467751},{"NoteNumber":81,"Velocity":67,"Duration":129870,"SoundDuration":129870,"Delta":167597621},{"NoteNumber":84,"Velocity":72,"Duration":131578,"SoundDuration":131578,"Delta":167727492},{"NoteNumber":57,"Velocity":59,"Duration":131578,"SoundDuration":131578,"Delta":167727492},{"NoteNumber":45,"Velocity":50,"Duration":131578,"SoundDuration":131578,"Delta":167727492},{"NoteNumber":82,"Velocity":67,"Duration":131579,"SoundDuration":131579,"Delta":167859071},{"NoteNumber":81,"Velocity":71,"Duration":131578,"SoundDuration":131578,"Delta":167990650},{"NoteNumber":60,"Velocity":57,"Duration":131578,"SoundDuration":131578,"Delta":167990650},{"NoteNumber":48,"Velocity":48,"Duration":131578,"SoundDuration":131578,"Delta":167990650},{"NoteNumber":82,"Velocity":67,"Duration":131061,"SoundDuration":131061,"Delta":168122229},{"NoteNumber":84,"Velocity":76,"Duration":129926,"SoundDuration":129926,"Delta":168253290},{"NoteNumber":45,"Velocity":69,"Duration":129926,"SoundDuration":129926,"Delta":168253290},{"NoteNumber":57,"Velocity":81,"Duration":129926,"SoundDuration":129926,"Delta":168253290},{"NoteNumber":82,"Velocity":72,"Duration":129870,"SoundDuration":129870,"Delta":168383217},{"NoteNumber":81,"Velocity":70,"Duration":129870,"SoundDuration":129870,"Delta":168513087},{"NoteNumber":54,"Velocity":57,"Duration":129870,"SoundDuration":129870,"Delta":168513087},{"NoteNumber":42,"Velocity":48,"Duration":129870,"SoundDuration":129870,"Delta":168513087},{"NoteNumber":79,"Velocity":69,"Duration":131004,"SoundDuration":131004,"Delta":168642958},{"NoteNumber":82,"Velocity":77,"Duration":131004,"SoundDuration":131004,"Delta":168773962},{"NoteNumber":43,"Velocity":51,"Duration":131004,"SoundDuration":131004,"Delta":168773962},{"NoteNumber":55,"Velocity":60,"Duration":131004,"SoundDuration":131004,"Delta":168773962},{"NoteNumber":81,"Velocity":72,"Duration":131004,"SoundDuration":131004,"Delta":168904966},{"NoteNumber":79,"Velocity":70,"Duration":131004,"SoundDuration":131004,"Delta":169035970},{"NoteNumber":58,"Velocity":57,"Duration":131004,"SoundDuration":131004,"Delta":169035970},{"NoteNumber":46,"Velocity":48,"Duration":131004,"SoundDuration":131004,"Delta":169035970},{"NoteNumber":81,"Velocity":68,"Duration":131004,"SoundDuration":131004,"Delta":169166975},{"NoteNumber":82,"Velocity":73,"Duration":128755,"SoundDuration":128755,"Delta":169297979},{"NoteNumber":43,"Velocity":67,"Duration":128755,"SoundDuration":128755,"Delta":169297979},{"NoteNumber":55,"Velocity":80,"Duration":128755,"SoundDuration":128755,"Delta":169297979},{"NoteNumber":81,"Velocity":67,"Duration":128755,"SoundDuration":128755,"Delta":169426734},{"NoteNumber":79,"Velocity":67,"Duration":129870,"SoundDuration":129870,"Delta":169555489},{"NoteNumber":46,"Velocity":47,"Duration":129870,"SoundDuration":129870,"Delta":169555489},{"NoteNumber":58,"Velocity":56,"Duration":129870,"SoundDuration":129870,"Delta":169555489},{"NoteNumber":77,"Velocity":67,"Duration":129870,"SoundDuration":129870,"Delta":169685360},{"NoteNumber":81,"Velocity":72,"Duration":131578,"SoundDuration":131578,"Delta":169815230},{"NoteNumber":53,"Velocity":67,"Duration":131578,"SoundDuration":131578,"Delta":169815230},{"NoteNumber":41,"Velocity":57,"Duration":131578,"SoundDuration":131578,"Delta":169815230},{"NoteNumber":79,"Velocity":67,"Duration":131579,"SoundDuration":131579,"Delta":169946809},{"NoteNumber":77,"Velocity":71,"Duration":131578,"SoundDuration":131578,"Delta":170078388},{"NoteNumber":57,"Velocity":57,"Duration":131578,"SoundDuration":131578,"Delta":170078388},{"NoteNumber":45,"Velocity":48,"Duration":131578,"SoundDuration":131578,"Delta":170078388},{"NoteNumber":76,"Velocity":67,"Duration":131061,"SoundDuration":131061,"Delta":170209967},{"NoteNumber":79,"Velocity":76,"Duration":129926,"SoundDuration":129926,"Delta":170341028},{"NoteNumber":52,"Velocity":81,"Duration":129926,"SoundDuration":129926,"Delta":170341028},{"NoteNumber":40,"Velocity":69,"Duration":129926,"SoundDuration":129926,"Delta":170341028},{"NoteNumber":77,"Velocity":72,"Duration":129870,"SoundDuration":129870,"Delta":170470955},{"NoteNumber":76,"Velocity":70,"Duration":129870,"SoundDuration":129870,"Delta":170600825},{"NoteNumber":43,"Velocity":48,"Duration":129870,"SoundDuration":129870,"Delta":170600825},{"NoteNumber":55,"Velocity":57,"Duration":129870,"SoundDuration":129870,"Delta":170600825},{"NoteNumber":74,"Velocity":69,"Duration":131004,"SoundDuration":131004,"Delta":170730696},{"NoteNumber":77,"Velocity":77,"Duration":131004,"SoundDuration":131004,"Delta":170861700},{"NoteNumber":38,"Velocity":58,"Duration":131004,"SoundDuration":131004,"Delta":170861700},{"NoteNumber":50,"Velocity":69,"Duration":131004,"SoundDuration":131004,"Delta":170861700},{"NoteNumber":76,"Velocity":72,"Duration":131004,"SoundDuration":131004,"Delta":170992704},{"NoteNumber":74,"Velocity":70,"Duration":131004,"SoundDuration":131004,"Delta":171123708},{"NoteNumber":41,"Velocity":48,"Duration":131004,"SoundDuration":131004,"Delta":171123708},{"NoteNumber":53,"Velocity":57,"Duration":131004,"SoundDuration":131004,"Delta":171123708},{"NoteNumber":76,"Velocity":68,"Duration":131004,"SoundDuration":131004,"Delta":171254713},{"NoteNumber":77,"Velocity":73,"Duration":128755,"SoundDuration":128755,"Delta":171385717},{"NoteNumber":38,"Velocity":67,"Duration":128755,"SoundDuration":128755,"Delta":171385717},{"NoteNumber":50,"Velocity":80,"Duration":128755,"SoundDuration":128755,"Delta":171385717},{"NoteNumber":76,"Velocity":67,"Duration":128755,"SoundDuration":128755,"Delta":171514472},{"NoteNumber":74,"Velocity":67,"Duration":129870,"SoundDuration":129870,"Delta":171643227},{"NoteNumber":53,"Velocity":56,"Duration":129870,"SoundDuration":129870,"Delta":171643227},{"NoteNumber":41,"Velocity":47,"Duration":129870,"SoundDuration":129870,"Delta":171643227},{"NoteNumber":76,"Velocity":67,"Duration":129870,"SoundDuration":129870,"Delta":171773098},{"NoteNumber":74,"Velocity":72,"Duration":131578,"SoundDuration":131578,"Delta":171902968},{"NoteNumber":35,"Velocity":57,"Duration":131578,"SoundDuration":131578,"Delta":171902968},{"NoteNumber":47,"Velocity":67,"Duration":131578,"SoundDuration":131578,"Delta":171902968},{"NoteNumber":72,"Velocity":67,"Duration":131579,"SoundDuration":131579,"Delta":172034547},{"NoteNumber":71,"Velocity":71,"Duration":131578,"SoundDuration":131578,"Delta":172166126},{"NoteNumber":38,"Velocity":48,"Duration":131578,"SoundDuration":131578,"Delta":172166126},{"NoteNumber":50,"Velocity":57,"Duration":131578,"SoundDuration":131578,"Delta":172166126},{"NoteNumber":72,"Velocity":67,"Duration":131061,"SoundDuration":131061,"Delta":172297705},{"NoteNumber":71,"Velocity":76,"Duration":129926,"SoundDuration":129926,"Delta":172428767},{"NoteNumber":32,"Velocity":69,"Duration":129926,"SoundDuration":129926,"Delta":172428767},{"NoteNumber":44,"Velocity":81,"Duration":129926,"SoundDuration":129926,"Delta":172428767},{"NoteNumber":69,"Velocity":72,"Duration":129870,"SoundDuration":129870,"Delta":172558693},{"NoteNumber":68,"Velocity":70,"Duration":129870,"SoundDuration":129870,"Delta":172688564},{"NoteNumber":35,"Velocity":48,"Duration":129870,"SoundDuration":129870,"Delta":172688564},{"NoteNumber":47,"Velocity":57,"Duration":129870,"SoundDuration":129870,"Delta":172688564},{"NoteNumber":69,"Velocity":69,"Duration":131004,"SoundDuration":131004,"Delta":172818434},{"NoteNumber":68,"Velocity":77,"Duration":131004,"SoundDuration":131004,"Delta":172949438},{"NoteNumber":40,"Velocity":69,"Duration":131004,"SoundDuration":131004,"Delta":172949438},{"NoteNumber":66,"Velocity":72,"Duration":131004,"SoundDuration":131004,"Delta":173080442},{"NoteNumber":64,"Velocity":70,"Duration":131004,"SoundDuration":131004,"Delta":173211447},{"NoteNumber":44,"Velocity":57,"Duration":131004,"SoundDuration":131004,"Delta":173211447},{"NoteNumber":66,"Velocity":68,"Duration":131004,"SoundDuration":131004,"Delta":173342451},{"NoteNumber":68,"Velocity":73,"Duration":128755,"SoundDuration":128755,"Delta":173473455},{"NoteNumber":40,"Velocity":80,"Duration":128755,"SoundDuration":128755,"Delta":173473455},{"NoteNumber":66,"Velocity":67,"Duration":128755,"SoundDuration":128755,"Delta":173602210},{"NoteNumber":64,"Velocity":67,"Duration":129870,"SoundDuration":129870,"Delta":173730966},{"NoteNumber":44,"Velocity":56,"Duration":129870,"SoundDuration":129870,"Delta":173730966},{"NoteNumber":66,"Velocity":67,"Duration":129870,"SoundDuration":129870,"Delta":173860836},{"NoteNumber":68,"Velocity":72,"Duration":131578,"SoundDuration":131578,"Delta":173990706},{"NoteNumber":40,"Velocity":67,"Duration":131578,"SoundDuration":131578,"Delta":173990706},{"NoteNumber":66,"Velocity":67,"Duration":131579,"SoundDuration":131579,"Delta":174122285},{"NoteNumber":64,"Velocity":71,"Duration":131578,"SoundDuration":131578,"Delta":174253864},{"NoteNumber":44,"Velocity":57,"Duration":131578,"SoundDuration":131578,"Delta":174253864},{"NoteNumber":66,"Velocity":67,"Duration":131061,"SoundDuration":131061,"Delta":174385443},{"NoteNumber":68,"Velocity":76,"Duration":129926,"SoundDuration":129926,"Delta":174516505},{"NoteNumber":40,"Velocity":81,"Duration":129926,"SoundDuration":129926,"Delta":174516505},{"NoteNumber":66,"Velocity":72,"Duration":129870,"SoundDuration":129870,"Delta":174646432},{"NoteNumber":64,"Velocity":70,"Duration":129870,"SoundDuration":129870,"Delta":174776302},{"NoteNumber":44,"Velocity":57,"Duration":129870,"SoundDuration":129870,"Delta":174776302},{"NoteNumber":66,"Velocity":69,"Duration":131004,"SoundDuration":131004,"Delta":174906172},{"NoteNumber":68,"Velocity":77,"Duration":131004,"SoundDuration":131004,"Delta":175037176},{"NoteNumber":40,"Velocity":69,"Duration":131004,"SoundDuration":131004,"Delta":175037176},{"NoteNumber":66,"Velocity":72,"Duration":131004,"SoundDuration":131004,"Delta":175168181},{"NoteNumber":64,"Velocity":70,"Duration":131004,"SoundDuration":131004,"Delta":175299185},{"NoteNumber":44,"Velocity":57,"Duration":131004,"SoundDuration":131004,"Delta":175299185},{"NoteNumber":66,"Velocity":68,"Duration":131004,"SoundDuration":131004,"Delta":175430189},{"NoteNumber":64,"Velocity":77,"Duration":524017,"SoundDuration":524017,"Delta":175561193},{"NoteNumber":40,"Velocity":60,"Duration":131004,"SoundDuration":131004,"Delta":175561193},{"NoteNumber":42,"Velocity":52,"Duration":131004,"SoundDuration":131004,"Delta":175692198},{"NoteNumber":44,"Velocity":52,"Duration":131004,"SoundDuration":131004,"Delta":175823202},{"NoteNumber":45,"Velocity":52,"Duration":131004,"SoundDuration":131004,"Delta":175954206},{"NoteNumber":46,"Velocity":60,"Duration":132743,"SoundDuration":132743,"Delta":176085210},{"NoteNumber":47,"Velocity":51,"Duration":132743,"SoundDuration":132743,"Delta":176217954},{"NoteNumber":46,"Velocity":58,"Duration":132743,"SoundDuration":132743,"Delta":176350697},{"NoteNumber":47,"Velocity":51,"Duration":143540,"SoundDuration":143540,"Delta":176483440},{"NoteNumber":62,"Velocity":45,"Duration":134529,"SoundDuration":134529,"Delta":176626981},{"NoteNumber":64,"Velocity":54,"Duration":134529,"SoundDuration":134529,"Delta":176626981},{"NoteNumber":40,"Velocity":60,"Duration":134529,"SoundDuration":134529,"Delta":176626981},{"NoteNumber":42,"Velocity":52,"Duration":134529,"SoundDuration":134529,"Delta":176761510},{"NoteNumber":64,"Velocity":49,"Duration":138248,"SoundDuration":138248,"Delta":176896039},{"NoteNumber":59,"Velocity":41,"Duration":138248,"SoundDuration":138248,"Delta":176896039},{"NoteNumber":44,"Velocity":52,"Duration":138248,"SoundDuration":138248,"Delta":176896039},{"NoteNumber":45,"Velocity":52,"Duration":138248,"SoundDuration":138248,"Delta":177034288},{"NoteNumber":56,"Velocity":45,"Duration":139534,"SoundDuration":139534,"Delta":177172537},{"NoteNumber":64,"Velocity":54,"Duration":139534,"SoundDuration":139534,"Delta":177172537},{"NoteNumber":46,"Velocity":60,"Duration":139534,"SoundDuration":139534,"Delta":177172537},{"NoteNumber":47,"Velocity":51,"Duration":139534,"SoundDuration":139534,"Delta":177312072},{"NoteNumber":52,"Velocity":40,"Duration":144230,"SoundDuration":144230,"Delta":177451607},{"NoteNumber":64,"Velocity":48,"Duration":144230,"SoundDuration":144230,"Delta":177451607},{"NoteNumber":46,"Velocity":58,"Duration":144230,"SoundDuration":144230,"Delta":177451607},{"NoteNumber":47,"Velocity":51,"Duration":144230,"SoundDuration":144230,"Delta":177595838},{"NoteNumber":40,"Velocity":51,"Duration":132158,"SoundDuration":132158,"Delta":177740068},{"NoteNumber":42,"Velocity":44,"Duration":132158,"SoundDuration":132158,"Delta":177872227},{"NoteNumber":44,"Velocity":44,"Duration":132158,"SoundDuration":132158,"Delta":178004385},{"NoteNumber":45,"Velocity":44,"Duration":132158,"SoundDuration":132158,"Delta":178136544},{"NoteNumber":46,"Velocity":51,"Duration":133928,"SoundDuration":133928,"Delta":178268702},{"NoteNumber":47,"Velocity":43,"Duration":133928,"SoundDuration":133928,"Delta":178402631},{"NoteNumber":46,"Velocity":49,"Duration":133928,"SoundDuration":133928,"Delta":178536559},{"NoteNumber":47,"Velocity":43,"Duration":154639,"SoundDuration":154639,"Delta":178670488},{"NoteNumber":74,"Velocity":38,"Duration":142857,"SoundDuration":142857,"Delta":178825127},{"NoteNumber":76,"Velocity":45,"Duration":142857,"SoundDuration":142857,"Delta":178825127},{"NoteNumber":40,"Velocity":51,"Duration":142857,"SoundDuration":142857,"Delta":178825127},{"NoteNumber":42,"Velocity":44,"Duration":142857,"SoundDuration":142857,"Delta":178967984},{"NoteNumber":76,"Velocity":41,"Duration":142857,"SoundDuration":142857,"Delta":179110842},{"NoteNumber":71,"Velocity":34,"Duration":142857,"SoundDuration":142857,"Delta":179110842},{"NoteNumber":44,"Velocity":44,"Duration":142857,"SoundDuration":142857,"Delta":179110842},{"NoteNumber":45,"Velocity":44,"Duration":142857,"SoundDuration":142857,"Delta":179253699},{"NoteNumber":68,"Velocity":38,"Duration":150000,"SoundDuration":150000,"Delta":179396556},{"NoteNumber":76,"Velocity":45,"Duration":150000,"SoundDuration":150000,"Delta":179396556},{"NoteNumber":46,"Velocity":51,"Duration":150000,"SoundDuration":150000,"Delta":179396556},{"NoteNumber":47,"Velocity":43,"Duration":150000,"SoundDuration":150000,"Delta":179546556},{"NoteNumber":76,"Velocity":40,"Duration":149999,"SoundDuration":149999,"Delta":179696556},{"NoteNumber":64,"Velocity":34,"Duration":149999,"SoundDuration":149999,"Delta":179696556},{"NoteNumber":46,"Velocity":49,"Duration":149999,"SoundDuration":149999,"Delta":179696556},{"NoteNumber":47,"Velocity":43,"Duration":149509,"SoundDuration":149509,"Delta":179846556},{"NoteNumber":46,"Velocity":52,"Duration":140023,"SoundDuration":140023,"Delta":179996065},{"NoteNumber":47,"Velocity":43,"Duration":139142,"SoundDuration":139142,"Delta":180136089},{"NoteNumber":49,"Velocity":46,"Duration":138164,"SoundDuration":138164,"Delta":180275231},{"NoteNumber":50,"Velocity":43,"Duration":137284,"SoundDuration":137284,"Delta":180413396},{"NoteNumber":51,"Velocity":51,"Duration":136436,"SoundDuration":136436,"Delta":180550681},{"NoteNumber":52,"Velocity":44,"Duration":136363,"SoundDuration":136363,"Delta":180687117},{"NoteNumber":54,"Velocity":44,"Duration":136363,"SoundDuration":136363,"Delta":180823481},{"NoteNumber":56,"Velocity":45,"Duration":136394,"SoundDuration":136394,"Delta":180959844},{"NoteNumber":69,"Velocity":53,"Duration":136986,"SoundDuration":136986,"Delta":181096239},{"NoteNumber":57,"Velocity":42,"Duration":136986,"SoundDuration":136986,"Delta":181096239},{"NoteNumber":71,"Velocity":49,"Duration":136410,"SoundDuration":136410,"Delta":181233226},{"NoteNumber":59,"Velocity":38,"Duration":136410,"SoundDuration":136410,"Delta":181233226},{"NoteNumber":73,"Velocity":53,"Duration":135864,"SoundDuration":135864,"Delta":181369636},{"NoteNumber":61,"Velocity":42,"Duration":135864,"SoundDuration":135864,"Delta":181369636},{"NoteNumber":74,"Velocity":49,"Duration":135328,"SoundDuration":135328,"Delta":181505501},{"NoteNumber":62,"Velocity":39,"Duration":135328,"SoundDuration":135328,"Delta":181505501},{"NoteNumber":75,"Velocity":53,"Duration":134791,"SoundDuration":134791,"Delta":181640830},{"NoteNumber":63,"Velocity":42,"Duration":134791,"SoundDuration":134791,"Delta":181640830},{"NoteNumber":76,"Velocity":52,"Duration":134258,"SoundDuration":134258,"Delta":181775622},{"NoteNumber":64,"Velocity":38,"Duration":134258,"SoundDuration":134258,"Delta":181775622},{"NoteNumber":75,"Velocity":55,"Duration":133735,"SoundDuration":133735,"Delta":181909880},{"NoteNumber":63,"Velocity":40,"Duration":133735,"SoundDuration":133735,"Delta":181909880},{"NoteNumber":76,"Velocity":57,"Duration":185185,"SoundDuration":185185,"Delta":182043615},{"NoteNumber":64,"Velocity":42,"Duration":185185,"SoundDuration":185185,"Delta":182043615},{"NoteNumber":69,"Velocity":52,"Duration":869564,"SoundDuration":869564,"Delta":182228801},{"NoteNumber":74,"Velocity":52,"Duration":579710,"SoundDuration":579710,"Delta":182228801},{"NoteNumber":78,"Velocity":62,"Duration":579710,"SoundDuration":579710,"Delta":182228801},{"NoteNumber":66,"Velocity":49,"Duration":579710,"SoundDuration":579710,"Delta":182228801},{"NoteNumber":62,"Velocity":41,"Duration":579710,"SoundDuration":579710,"Delta":182228801},{"NoteNumber":57,"Velocity":41,"Duration":869564,"SoundDuration":869564,"Delta":182228801},{"NoteNumber":73,"Velocity":46,"Duration":289854,"SoundDuration":289854,"Delta":182808511},{"NoteNumber":76,"Velocity":55,"Duration":289854,"SoundDuration":289854,"Delta":182808511},{"NoteNumber":64,"Velocity":39,"Duration":289854,"SoundDuration":289854,"Delta":182808511},{"NoteNumber":61,"Velocity":33,"Duration":289854,"SoundDuration":289854,"Delta":182808511},{"NoteNumber":81,"Velocity":64,"Duration":183486,"SoundDuration":183486,"Delta":183388221},{"NoteNumber":61,"Velocity":51,"Duration":183486,"SoundDuration":183486,"Delta":183388221},{"NoteNumber":80,"Velocity":58,"Duration":172413,"SoundDuration":172413,"Delta":183571707},{"NoteNumber":64,"Velocity":45,"Duration":172413,"SoundDuration":172413,"Delta":183571707},{"NoteNumber":78,"Velocity":58,"Duration":172413,"SoundDuration":172413,"Delta":183744121},{"NoteNumber":62,"Velocity":45,"Duration":172413,"SoundDuration":172413,"Delta":183744121},{"NoteNumber":76,"Velocity":64,"Duration":172413,"SoundDuration":172413,"Delta":183916534},{"NoteNumber":61,"Velocity":54,"Duration":172413,"SoundDuration":172413,"Delta":183916534},{"NoteNumber":74,"Velocity":58,"Duration":172413,"SoundDuration":172413,"Delta":184088948},{"NoteNumber":64,"Velocity":43,"Duration":172413,"SoundDuration":172413,"Delta":184088948},{"NoteNumber":73,"Velocity":58,"Duration":202020,"SoundDuration":202020,"Delta":184261362},{"NoteNumber":69,"Velocity":43,"Duration":202020,"SoundDuration":202020,"Delta":184261362},{"NoteNumber":76,"Velocity":64,"Duration":412844,"SoundDuration":412844,"Delta":184463382},{"NoteNumber":71,"Velocity":57,"Duration":565547,"SoundDuration":565547,"Delta":184463382},{"NoteNumber":74,"Velocity":55,"Duration":162162,"SoundDuration":162162,"Delta":184876226},{"NoteNumber":71,"Velocity":61,"Duration":276497,"SoundDuration":276497,"Delta":185038389},{"NoteNumber":64,"Velocity":50,"Duration":276497,"SoundDuration":276497,"Delta":185038389},{"NoteNumber":76,"Velocity":69,"Duration":132318,"SoundDuration":132318,"Delta":185592388},{"NoteNumber":74,"Velocity":51,"Duration":132318,"SoundDuration":132318,"Delta":185592388},{"NoteNumber":78,"Velocity":58,"Duration":131737,"SoundDuration":131737,"Delta":185724707},{"NoteNumber":80,"Velocity":64,"Duration":131161,"SoundDuration":131161,"Delta":185856445},{"NoteNumber":71,"Velocity":47,"Duration":131161,"SoundDuration":131161,"Delta":185856445},{"NoteNumber":81,"Velocity":59,"Duration":130591,"SoundDuration":130591,"Delta":185987607},{"NoteNumber":82,"Velocity":70,"Duration":130859,"SoundDuration":130859,"Delta":186118198},{"NoteNumber":68,"Velocity":47,"Duration":130859,"SoundDuration":130859,"Delta":186118198},{"NoteNumber":83,"Velocity":63,"Duration":131004,"SoundDuration":131004,"Delta":186249057},{"NoteNumber":82,"Velocity":66,"Duration":131004,"SoundDuration":131004,"Delta":186380061},{"NoteNumber":64,"Velocity":47,"Duration":131004,"SoundDuration":131004,"Delta":186380061},{"NoteNumber":83,"Velocity":68,"Duration":131004,"SoundDuration":131004,"Delta":186511066},{"NoteNumber":81,"Velocity":69,"Duration":129817,"SoundDuration":129817,"Delta":186642070},{"NoteNumber":73,"Velocity":51,"Duration":129817,"SoundDuration":129817,"Delta":186642070},{"NoteNumber":83,"Velocity":58,"Duration":129870,"SoundDuration":129870,"Delta":186771887},{"NoteNumber":85,"Velocity":64,"Duration":129870,"SoundDuration":129870,"Delta":186901757},{"NoteNumber":69,"Velocity":47,"Duration":129870,"SoundDuration":129870,"Delta":186901757},{"NoteNumber":86,"Velocity":59,"Duration":129870,"SoundDuration":129870,"Delta":187031628},{"NoteNumber":87,"Velocity":70,"Duration":131815,"SoundDuration":131815,"Delta":187161498},{"NoteNumber":64,"Velocity":47,"Duration":131815,"SoundDuration":131815,"Delta":187161498},{"NoteNumber":88,"Velocity":63,"Duration":132158,"SoundDuration":132158,"Delta":187293313},{"NoteNumber":87,"Velocity":66,"Duration":132158,"SoundDuration":132158,"Delta":187425472},{"NoteNumber":61,"Velocity":47,"Duration":132158,"SoundDuration":132158,"Delta":187425472},{"NoteNumber":88,"Velocity":68,"Duration":131177,"SoundDuration":131177,"Delta":187557630},{"NoteNumber":90,"Velocity":75,"Duration":130520,"SoundDuration":130520,"Delta":187688808},{"NoteNumber":62,"Velocity":51,"Duration":130520,"SoundDuration":130520,"Delta":187688808},{"NoteNumber":88,"Velocity":59,"Duration":130434,"SoundDuration":130434,"Delta":187819328},{"NoteNumber":64,"Velocity":39,"Duration":130434,"SoundDuration":130434,"Delta":187819328},{"NoteNumber":90,"Velocity":67,"Duration":130434,"SoundDuration":130434,"Delta":187949763},{"NoteNumber":62,"Velocity":46,"Duration":130434,"SoundDuration":130434,"Delta":187949763},{"NoteNumber":88,"Velocity":59,"Duration":130434,"SoundDuration":130434,"Delta":188080197},{"NoteNumber":64,"Velocity":38,"Duration":130434,"SoundDuration":130434,"Delta":188080197},{"NoteNumber":83,"Velocity":75,"Duration":129007,"SoundDuration":129007,"Delta":188210632},{"NoteNumber":68,"Velocity":51,"Duration":129007,"SoundDuration":129007,"Delta":188210632},{"NoteNumber":80,"Velocity":58,"Duration":128755,"SoundDuration":128755,"Delta":188338566},{"NoteNumber":71,"Velocity":38,"Duration":128755,"SoundDuration":128755,"Delta":188339639},{"NoteNumber":83,"Velocity":70,"Duration":128755,"SoundDuration":128755,"Delta":188468394},{"NoteNumber":68,"Velocity":45,"Duration":128755,"SoundDuration":128755,"Delta":188468394},{"NoteNumber":80,"Velocity":59,"Duration":136285,"SoundDuration":136285,"Delta":188597150},{"NoteNumber":71,"Velocity":39,"Duration":136285,"SoundDuration":136285,"Delta":188597150},{"NoteNumber":90,"Velocity":75,"Duration":131511,"SoundDuration":131511,"Delta":188733436},{"NoteNumber":61,"Velocity":51,"Duration":131511,"SoundDuration":131511,"Delta":188733436},{"NoteNumber":88,"Velocity":60,"Duration":130434,"SoundDuration":130434,"Delta":188864947},{"NoteNumber":64,"Velocity":42,"Duration":130434,"SoundDuration":130434,"Delta":188864947},{"NoteNumber":90,"Velocity":67,"Duration":130434,"SoundDuration":130434,"Delta":188995382},{"NoteNumber":61,"Velocity":46,"Duration":130434,"SoundDuration":130434,"Delta":188995382},{"NoteNumber":88,"Velocity":61,"Duration":130434,"SoundDuration":130434,"Delta":189125817},{"NoteNumber":64,"Velocity":42,"Duration":130434,"SoundDuration":130434,"Delta":189125817},{"NoteNumber":85,"Velocity":75,"Duration":129007,"SoundDuration":129007,"Delta":189256252},{"NoteNumber":69,"Velocity":51,"Duration":129007,"SoundDuration":129007,"Delta":189256252},{"NoteNumber":81,"Velocity":67,"Duration":128755,"SoundDuration":128755,"Delta":189385259},{"NoteNumber":73,"Velocity":41,"Duration":128755,"SoundDuration":128755,"Delta":189385259},{"NoteNumber":85,"Velocity":70,"Duration":128755,"SoundDuration":128755,"Delta":189514014},{"NoteNumber":69,"Velocity":45,"Duration":128755,"SoundDuration":128755,"Delta":189514014},{"NoteNumber":81,"Velocity":65,"Duration":136285,"SoundDuration":136285,"Delta":189642769},{"NoteNumber":73,"Velocity":41,"Duration":136285,"SoundDuration":136285,"Delta":189642769},{"NoteNumber":86,"Velocity":77,"Duration":131031,"SoundDuration":131031,"Delta":189779055},{"NoteNumber":64,"Velocity":69,"Duration":131031,"SoundDuration":131031,"Delta":189779055},{"NoteNumber":66,"Velocity":58,"Duration":129870,"SoundDuration":129870,"Delta":189910087},{"NoteNumber":83,"Velocity":64,"Duration":129870,"SoundDuration":129870,"Delta":190039957},{"NoteNumber":68,"Velocity":64,"Duration":129870,"SoundDuration":129870,"Delta":190039957},{"NoteNumber":69,"Velocity":59,"Duration":129870,"SoundDuration":129870,"Delta":190169827},{"NoteNumber":80,"Velocity":64,"Duration":129870,"SoundDuration":129870,"Delta":190299698},{"NoteNumber":70,"Velocity":69,"Duration":129870,"SoundDuration":129870,"Delta":190299698},{"NoteNumber":71,"Velocity":56,"Duration":129870,"SoundDuration":129870,"Delta":190429568},{"NoteNumber":76,"Velocity":64,"Duration":129870,"SoundDuration":129870,"Delta":190559438},{"NoteNumber":70,"Velocity":65,"Duration":129870,"SoundDuration":129870,"Delta":190559438},{"NoteNumber":71,"Velocity":59,"Duration":130834,"SoundDuration":130834,"Delta":190689308},{"NoteNumber":85,"Velocity":78,"Duration":129869,"SoundDuration":129869,"Delta":190820143},{"NoteNumber":69,"Velocity":69,"Duration":129869,"SoundDuration":129869,"Delta":190820143},{"NoteNumber":71,"Velocity":58,"Duration":129870,"SoundDuration":129870,"Delta":190950012},{"NoteNumber":81,"Velocity":67,"Duration":129870,"SoundDuration":129870,"Delta":191079882},{"NoteNumber":73,"Velocity":64,"Duration":129870,"SoundDuration":129870,"Delta":191079882},{"NoteNumber":74,"Velocity":59,"Duration":139198,"SoundDuration":139198,"Delta":191209752},{"NoteNumber":75,"Velocity":70,"Duration":130206,"SoundDuration":130206,"Delta":191347777},{"NoteNumber":97,"Velocity":81,"Duration":130101,"SoundDuration":130101,"Delta":191348951},{"NoteNumber":76,"Velocity":57,"Duration":128205,"SoundDuration":128205,"Delta":191479052},{"NoteNumber":75,"Velocity":62,"Duration":128205,"SoundDuration":128205,"Delta":191606189},{"NoteNumber":93,"Velocity":75,"Duration":128205,"SoundDuration":128205,"Delta":191607257},{"NoteNumber":76,"Velocity":49,"Duration":130327,"SoundDuration":130327,"Delta":191735463},{"NoteNumber":92,"Velocity":75,"Duration":130520,"SoundDuration":130520,"Delta":191865791},{"NoteNumber":62,"Velocity":58,"Duration":130520,"SoundDuration":130520,"Delta":191865791},{"NoteNumber":90,"Velocity":57,"Duration":130434,"SoundDuration":130434,"Delta":191996311},{"NoteNumber":71,"Velocity":37,"Duration":130434,"SoundDuration":130434,"Delta":191996311},{"NoteNumber":92,"Velocity":67,"Duration":130434,"SoundDuration":130434,"Delta":192126745},{"NoteNumber":62,"Velocity":46,"Duration":130434,"SoundDuration":130434,"Delta":192126745},{"NoteNumber":90,"Velocity":59,"Duration":130434,"SoundDuration":130434,"Delta":192257180},{"NoteNumber":71,"Velocity":38,"Duration":130434,"SoundDuration":130434,"Delta":192257180},{"NoteNumber":86,"Velocity":75,"Duration":129007,"SoundDuration":129007,"Delta":192387615},{"NoteNumber":64,"Velocity":51,"Duration":129007,"SoundDuration":129007,"Delta":192387615},{"NoteNumber":74,"Velocity":38,"Duration":128755,"SoundDuration":128755,"Delta":192515549},{"NoteNumber":83,"Velocity":61,"Duration":128755,"SoundDuration":128755,"Delta":192516622},{"NoteNumber":86,"Velocity":70,"Duration":128755,"SoundDuration":128755,"Delta":192645377},{"NoteNumber":64,"Velocity":45,"Duration":128755,"SoundDuration":128755,"Delta":192645377},{"NoteNumber":83,"Velocity":59,"Duration":133918,"SoundDuration":133918,"Delta":192773060},{"NoteNumber":74,"Velocity":41,"Duration":136211,"SoundDuration":136211,"Delta":192773060},{"NoteNumber":83,"Velocity":71,"Duration":131511,"SoundDuration":131511,"Delta":192910418},{"NoteNumber":69,"Velocity":51,"Duration":131511,"SoundDuration":131511,"Delta":192910418},{"NoteNumber":81,"Velocity":61,"Duration":130434,"SoundDuration":130434,"Delta":193041930},{"NoteNumber":73,"Velocity":42,"Duration":130434,"SoundDuration":130434,"Delta":193041930},{"NoteNumber":83,"Velocity":65,"Duration":130434,"SoundDuration":130434,"Delta":193172365},{"NoteNumber":69,"Velocity":46,"Duration":130434,"SoundDuration":130434,"Delta":193172365},{"NoteNumber":81,"Velocity":61,"Duration":148353,"SoundDuration":148353,"Delta":193302800},{"NoteNumber":73,"Velocity":42,"Duration":148353,"SoundDuration":148353,"Delta":193302800},{"NoteNumber":97,"Velocity":79,"Duration":132358,"SoundDuration":132358,"Delta":193449890},{"NoteNumber":57,"Velocity":51,"Duration":132169,"SoundDuration":132169,"Delta":193451153},{"NoteNumber":93,"Velocity":69,"Duration":128755,"SoundDuration":128755,"Delta":193711004},{"NoteNumber":61,"Velocity":45,"Duration":128755,"SoundDuration":128755,"Delta":193711004},{"NoteNumber":92,"Velocity":75,"Duration":130520,"SoundDuration":130520,"Delta":193977063},{"NoteNumber":62,"Velocity":58,"Duration":130520,"SoundDuration":130520,"Delta":193977063},{"NoteNumber":90,"Velocity":59,"Duration":130434,"SoundDuration":130434,"Delta":194107584},{"NoteNumber":71,"Velocity":40,"Duration":130434,"SoundDuration":130434,"Delta":194107584},{"NoteNumber":92,"Velocity":67,"Duration":130434,"SoundDuration":130434,"Delta":194238018},{"NoteNumber":62,"Velocity":46,"Duration":130434,"SoundDuration":130434,"Delta":194238018},{"NoteNumber":90,"Velocity":59,"Duration":130434,"SoundDuration":130434,"Delta":194368453},{"NoteNumber":71,"Velocity":38,"Duration":130434,"SoundDuration":130434,"Delta":194368453},{"NoteNumber":86,"Velocity":75,"Duration":129007,"SoundDuration":129007,"Delta":194498888},{"NoteNumber":64,"Velocity":51,"Duration":129007,"SoundDuration":129007,"Delta":194498888},{"NoteNumber":74,"Velocity":41,"Duration":128755,"SoundDuration":128755,"Delta":194626822},{"NoteNumber":83,"Velocity":67,"Duration":128755,"SoundDuration":128755,"Delta":194627895},{"NoteNumber":86,"Velocity":70,"Duration":128919,"SoundDuration":128919,"Delta":194756650},{"NoteNumber":64,"Velocity":45,"Duration":128919,"SoundDuration":128919,"Delta":194756650},{"NoteNumber":83,"Velocity":65,"Duration":142326,"SoundDuration":142326,"Delta":194884333},{"NoteNumber":74,"Velocity":41,"Duration":148514,"SoundDuration":148514,"Delta":194884333},{"NoteNumber":83,"Velocity":60,"Duration":140844,"SoundDuration":140844,"Delta":195034021},{"NoteNumber":69,"Velocity":43,"Duration":140844,"SoundDuration":140844,"Delta":195034021},{"NoteNumber":81,"Velocity":48,"Duration":140845,"SoundDuration":140845,"Delta":195174866},{"NoteNumber":73,"Velocity":35,"Duration":140845,"SoundDuration":140845,"Delta":195174866},{"NoteNumber":83,"Velocity":55,"Duration":141047,"SoundDuration":141047,"Delta":195315711},{"NoteNumber":69,"Velocity":39,"Duration":141047,"SoundDuration":141047,"Delta":195315711},{"NoteNumber":81,"Velocity":47,"Duration":164916,"SoundDuration":164916,"Delta":195456758},{"NoteNumber":73,"Velocity":35,"Duration":164916,"SoundDuration":164916,"Delta":195456758},{"NoteNumber":97,"Velocity":53,"Duration":142179,"SoundDuration":142179,"Delta":195620490},{"NoteNumber":100,"Velocity":63,"Duration":142179,"SoundDuration":142179,"Delta":195620490},{"NoteNumber":61,"Velocity":40,"Duration":142179,"SoundDuration":142179,"Delta":195620490},{"NoteNumber":57,"Velocity":34,"Duration":142179,"SoundDuration":142179,"Delta":195621674},{"NoteNumber":97,"Velocity":55,"Duration":142179,"SoundDuration":142179,"Delta":195904850},{"NoteNumber":93,"Velocity":46,"Duration":142179,"SoundDuration":142179,"Delta":195904850},{"NoteNumber":64,"Velocity":36,"Duration":142179,"SoundDuration":142179,"Delta":195904850},{"NoteNumber":61,"Velocity":30,"Duration":142179,"SoundDuration":142179,"Delta":195904850},{"NoteNumber":92,"Velocity":75,"Duration":137614,"SoundDuration":137614,"Delta":196199692},{"NoteNumber":62,"Velocity":58,"Duration":137614,"SoundDuration":137614,"Delta":196199692},{"NoteNumber":90,"Velocity":60,"Duration":137614,"SoundDuration":137614,"Delta":196337306},{"NoteNumber":71,"Velocity":38,"Duration":137614,"SoundDuration":137614,"Delta":196337306},{"NoteNumber":92,"Velocity":67,"Duration":137614,"SoundDuration":137614,"Delta":196474921},{"NoteNumber":62,"Velocity":46,"Duration":137614,"SoundDuration":137614,"Delta":196474921},{"NoteNumber":90,"Velocity":60,"Duration":137574,"SoundDuration":137574,"Delta":196612536},{"NoteNumber":71,"Velocity":38,"Duration":137574,"SoundDuration":137574,"Delta":196612536},{"NoteNumber":86,"Velocity":75,"Duration":132743,"SoundDuration":132743,"Delta":196750110},{"NoteNumber":64,"Velocity":51,"Duration":132743,"SoundDuration":132743,"Delta":196750110},{"NoteNumber":74,"Velocity":41,"Duration":132743,"SoundDuration":132743,"Delta":196881747},{"NoteNumber":83,"Velocity":67,"Duration":132743,"SoundDuration":132743,"Delta":196882853},{"NoteNumber":86,"Velocity":70,"Duration":132906,"SoundDuration":132906,"Delta":197015596},{"NoteNumber":64,"Velocity":45,"Duration":132906,"SoundDuration":132906,"Delta":197015596},{"NoteNumber":83,"Velocity":65,"Duration":145939,"SoundDuration":145939,"Delta":197147234},{"NoteNumber":74,"Velocity":41,"Duration":152284,"SoundDuration":152284,"Delta":197147234},{"NoteNumber":83,"Velocity":63,"Duration":132158,"SoundDuration":132158,"Delta":197300619},{"NoteNumber":69,"Velocity":45,"Duration":132158,"SoundDuration":132158,"Delta":197300619},{"NoteNumber":81,"Velocity":54,"Duration":132158,"SoundDuration":132158,"Delta":197432778},{"NoteNumber":73,"Velocity":37,"Duration":132158,"SoundDuration":132158,"Delta":197432778},{"NoteNumber":83,"Velocity":58,"Duration":132158,"SoundDuration":132158,"Delta":197564936},{"NoteNumber":69,"Velocity":41,"Duration":132158,"SoundDuration":132158,"Delta":197564936},{"NoteNumber":81,"Velocity":54,"Duration":148465,"SoundDuration":148465,"Delta":197697095},{"NoteNumber":73,"Velocity":37,"Duration":148465,"SoundDuration":148465,"Delta":197697095},{"NoteNumber":93,"Velocity":71,"Duration":133928,"SoundDuration":133928,"Delta":197845560},{"NoteNumber":57,"Velocity":45,"Duration":133928,"SoundDuration":133928,"Delta":197845560},{"NoteNumber":81,"Velocity":69,"Duration":133928,"SoundDuration":133928,"Delta":198113417},{"NoteNumber":69,"Velocity":45,"Duration":132812,"SoundDuration":132812,"Delta":198113417},{"NoteNumber":81,"Velocity":73,"Duration":129926,"SoundDuration":129926,"Delta":198380158},{"NoteNumber":79,"Velocity":86,"Duration":129926,"SoundDuration":129926,"Delta":198380158},{"NoteNumber":57,"Velocity":75,"Duration":129926,"SoundDuration":129926,"Delta":198380158},{"NoteNumber":59,"Velocity":58,"Duration":129870,"SoundDuration":129870,"Delta":198510084},{"NoteNumber":81,"Velocity":56,"Duration":129870,"SoundDuration":129870,"Delta":198639955},{"NoteNumber":61,"Velocity":64,"Duration":129870,"SoundDuration":129870,"Delta":198639955},{"NoteNumber":76,"Velocity":56,"Duration":129961,"SoundDuration":129961,"Delta":198641037},{"NoteNumber":62,"Velocity":59,"Duration":140845,"SoundDuration":140845,"Delta":198769825},{"NoteNumber":73,"Velocity":64,"Duration":128205,"SoundDuration":128205,"Delta":198910670},{"NoteNumber":81,"Velocity":64,"Duration":128205,"SoundDuration":128205,"Delta":198910670},{"NoteNumber":63,"Velocity":70,"Duration":128205,"SoundDuration":128205,"Delta":198910670},{"NoteNumber":64,"Velocity":61,"Duration":128205,"SoundDuration":128205,"Delta":199038875},{"NoteNumber":81,"Velocity":55,"Duration":128205,"SoundDuration":128205,"Delta":199167080},{"NoteNumber":69,"Velocity":65,"Duration":128205,"SoundDuration":128205,"Delta":199167080},{"NoteNumber":63,"Velocity":68,"Duration":128205,"SoundDuration":128205,"Delta":199167080},{"NoteNumber":64,"Velocity":59,"Duration":130724,"SoundDuration":130724,"Delta":199295286},{"NoteNumber":67,"Velocity":86,"Duration":129926,"SoundDuration":129926,"Delta":199426010},{"NoteNumber":69,"Velocity":73,"Duration":129926,"SoundDuration":129926,"Delta":199426010},{"NoteNumber":45,"Velocity":75,"Duration":129926,"SoundDuration":129926,"Delta":199426010},{"NoteNumber":47,"Velocity":58,"Duration":129870,"SoundDuration":129870,"Delta":199555937},{"NoteNumber":64,"Velocity":66,"Duration":129870,"SoundDuration":129870,"Delta":199685807},{"NoteNumber":69,"Velocity":56,"Duration":129870,"SoundDuration":129870,"Delta":199685807},{"NoteNumber":49,"Velocity":64,"Duration":129870,"SoundDuration":129870,"Delta":199685807},{"NoteNumber":50,"Velocity":59,"Duration":140845,"SoundDuration":140845,"Delta":199815677},{"NoteNumber":69,"Velocity":64,"Duration":128205,"SoundDuration":128205,"Delta":199956522},{"NoteNumber":61,"Velocity":76,"Duration":128205,"SoundDuration":128205,"Delta":199956522},{"NoteNumber":51,"Velocity":70,"Duration":128205,"SoundDuration":128205,"Delta":199956522},{"NoteNumber":52,"Velocity":61,"Duration":128205,"SoundDuration":128205,"Delta":200084727},{"NoteNumber":57,"Velocity":65,"Duration":128205,"SoundDuration":128205,"Delta":200212933},{"NoteNumber":69,"Velocity":55,"Duration":128205,"SoundDuration":128205,"Delta":200212933},{"NoteNumber":51,"Velocity":68,"Duration":128205,"SoundDuration":128205,"Delta":200212933},{"NoteNumber":52,"Velocity":59,"Duration":130724,"SoundDuration":130724,"Delta":200341138},{"NoteNumber":51,"Velocity":75,"Duration":131004,"SoundDuration":131004,"Delta":200471862},{"NoteNumber":52,"Velocity":62,"Duration":131004,"SoundDuration":131004,"Delta":200602867},{"NoteNumber":54,"Velocity":66,"Duration":131004,"SoundDuration":131004,"Delta":200733871},{"NoteNumber":56,"Velocity":62,"Duration":131004,"SoundDuration":131004,"Delta":200864875},{"NoteNumber":57,"Velocity":74,"Duration":131004,"SoundDuration":131004,"Delta":200995879},{"NoteNumber":59,"Velocity":63,"Duration":131004,"SoundDuration":131004,"Delta":201126884},{"NoteNumber":61,"Velocity":64,"Duration":131004,"SoundDuration":131004,"Delta":201257888},{"NoteNumber":62,"Velocity":65,"Duration":131004,"SoundDuration":131004,"Delta":201388892},{"NoteNumber":63,"Velocity":65,"Duration":129945,"SoundDuration":129945,"Delta":201519896},{"NoteNumber":64,"Velocity":60,"Duration":130430,"SoundDuration":130430,"Delta":201649842},{"NoteNumber":66,"Velocity":64,"Duration":131032,"SoundDuration":131032,"Delta":201780272},{"NoteNumber":68,"Velocity":63,"Duration":131632,"SoundDuration":131632,"Delta":201911305},{"NoteNumber":69,"Velocity":67,"Duration":132236,"SoundDuration":132236,"Delta":202042937},{"NoteNumber":71,"Velocity":52,"Duration":132846,"SoundDuration":132846,"Delta":202175174},{"NoteNumber":73,"Velocity":52,"Duration":133462,"SoundDuration":133462,"Delta":202308020},{"NoteNumber":74,"Velocity":52,"Duration":134123,"SoundDuration":134123,"Delta":202441483},{"NoteNumber":75,"Velocity":52,"Duration":133928,"SoundDuration":133928,"Delta":202575606},{"NoteNumber":76,"Velocity":49,"Duration":133442,"SoundDuration":133442,"Delta":202709535},{"NoteNumber":75,"Velocity":49,"Duration":132925,"SoundDuration":132925,"Delta":202842977},{"NoteNumber":76,"Velocity":49,"Duration":132407,"SoundDuration":132407,"Delta":202975902},{"NoteNumber":78,"Velocity":54,"Duration":131989,"SoundDuration":131989,"Delta":203108309},{"NoteNumber":80,"Velocity":52,"Duration":131478,"SoundDuration":131478,"Delta":203240299},{"NoteNumber":81,"Velocity":49,"Duration":130975,"SoundDuration":130975,"Delta":203371777},{"NoteNumber":83,"Velocity":47,"Duration":130400,"SoundDuration":130400,"Delta":203502753},{"NoteNumber":81,"Velocity":53,"Duration":128369,"SoundDuration":128369,"Delta":203633153},{"NoteNumber":83,"Velocity":43,"Duration":128141,"SoundDuration":128141,"Delta":203761523},{"NoteNumber":81,"Velocity":48,"Duration":127822,"SoundDuration":127822,"Delta":203889665},{"NoteNumber":83,"Velocity":45,"Duration":127379,"SoundDuration":127379,"Delta":204017488},{"NoteNumber":81,"Velocity":53,"Duration":127051,"SoundDuration":127051,"Delta":204145928},{"NoteNumber":83,"Velocity":43,"Duration":126742,"SoundDuration":126742,"Delta":204271924},{"NoteNumber":81,"Velocity":48,"Duration":126307,"SoundDuration":126307,"Delta":204398667},{"NoteNumber":83,"Velocity":43,"Duration":125875,"SoundDuration":125875,"Delta":204524974},{"NoteNumber":81,"Velocity":64,"Duration":125374,"SoundDuration":125374,"Delta":204650850},{"NoteNumber":83,"Velocity":41,"Duration":126121,"SoundDuration":126121,"Delta":204776225},{"NoteNumber":81,"Velocity":48,"Duration":126966,"SoundDuration":126966,"Delta":204902346},{"NoteNumber":83,"Velocity":41,"Duration":127624,"SoundDuration":127624,"Delta":205029313},{"NoteNumber":81,"Velocity":49,"Duration":128710,"SoundDuration":128710,"Delta":205156937},{"NoteNumber":83,"Velocity":43,"Duration":128755,"SoundDuration":128755,"Delta":205285647},{"NoteNumber":81,"Velocity":48,"Duration":128755,"SoundDuration":128755,"Delta":205414402},{"NoteNumber":83,"Velocity":43,"Duration":128806,"SoundDuration":128806,"Delta":205543158},{"NoteNumber":81,"Velocity":48,"Duration":129310,"SoundDuration":129310,"Delta":205671964},{"NoteNumber":83,"Velocity":50,"Duration":129300,"SoundDuration":129300,"Delta":205801274},{"NoteNumber":81,"Velocity":53,"Duration":128755,"SoundDuration":128755,"Delta":205930575},{"NoteNumber":83,"Velocity":56,"Duration":128704,"SoundDuration":128704,"Delta":206059330},{"NoteNumber":81,"Velocity":63,"Duration":128205,"SoundDuration":128205,"Delta":206189104},{"NoteNumber":83,"Velocity":63,"Duration":128109,"SoundDuration":128109,"Delta":206316240},{"NoteNumber":81,"Velocity":67,"Duration":127659,"SoundDuration":127659,"Delta":206444350},{"NoteNumber":83,"Velocity":70,"Duration":127524,"SoundDuration":127524,"Delta":206572010},{"NoteNumber":81,"Velocity":75,"Duration":127118,"SoundDuration":127118,"Delta":206699534},{"NoteNumber":83,"Velocity":72,"Duration":127118,"SoundDuration":127118,"Delta":206826653},{"NoteNumber":81,"Velocity":67,"Duration":127235,"SoundDuration":127235,"Delta":206953771},{"NoteNumber":83,"Velocity":63,"Duration":127659,"SoundDuration":127659,"Delta":207081007},{"NoteNumber":81,"Velocity":58,"Duration":128066,"SoundDuration":128066,"Delta":207208667},{"NoteNumber":83,"Velocity":54,"Duration":131103,"SoundDuration":131103,"Delta":207336733},{"NoteNumber":81,"Velocity":50,"Duration":134784,"SoundDuration":134784,"Delta":207467836},{"NoteNumber":78,"Velocity":46,"Duration":138289,"SoundDuration":138289,"Delta":207602621},{"NoteNumber":74,"Velocity":49,"Duration":266666,"SoundDuration":266666,"Delta":207740911},{"NoteNumber":62,"Velocity":30,"Duration":266666,"SoundDuration":266666,"Delta":207740911},{"NoteNumber":66,"Velocity":36,"Duration":266666,"SoundDuration":266666,"Delta":207740911},{"NoteNumber":74,"Velocity":44,"Duration":552995,"SoundDuration":552995,"Delta":208274244},{"NoteNumber":57,"Velocity":26,"Duration":276497,"SoundDuration":276497,"Delta":208274244},{"NoteNumber":66,"Velocity":31,"Duration":276497,"SoundDuration":276497,"Delta":208274244},{"NoteNumber":73,"Velocity":51,"Duration":133928,"SoundDuration":133928,"Delta":208827239},{"NoteNumber":67,"Velocity":36,"Duration":267856,"SoundDuration":267856,"Delta":208827239},{"NoteNumber":64,"Velocity":30,"Duration":267856,"SoundDuration":267856,"Delta":208827239},{"NoteNumber":71,"Velocity":41,"Duration":133928,"SoundDuration":133928,"Delta":208961168},{"NoteNumber":73,"Velocity":47,"Duration":133928,"SoundDuration":133928,"Delta":209095096},{"NoteNumber":74,"Velocity":43,"Duration":130039,"SoundDuration":130039,"Delta":209229025},{"NoteNumber":73,"Velocity":49,"Duration":138248,"SoundDuration":138248,"Delta":209359064},{"NoteNumber":57,"Velocity":26,"Duration":276497,"SoundDuration":276497,"Delta":209359064},{"NoteNumber":67,"Velocity":31,"Duration":276497,"SoundDuration":276497,"Delta":209359064},{"NoteNumber":74,"Velocity":42,"Duration":138248,"SoundDuration":138248,"Delta":209497312},{"NoteNumber":76,"Velocity":45,"Duration":138248,"SoundDuration":138248,"Delta":209635561},{"NoteNumber":73,"Velocity":49,"Duration":138248,"SoundDuration":138248,"Delta":209773810},{"NoteNumber":69,"Velocity":59,"Duration":267856,"SoundDuration":267856,"Delta":209912059},{"NoteNumber":62,"Velocity":30,"Duration":267856,"SoundDuration":267856,"Delta":209912059},{"NoteNumber":66,"Velocity":36,"Duration":267856,"SoundDuration":267856,"Delta":209912059},{"NoteNumber":74,"Velocity":55,"Duration":279069,"SoundDuration":279069,"Delta":210447773},{"NoteNumber":57,"Velocity":25,"Duration":279069,"SoundDuration":279069,"Delta":210447773},{"NoteNumber":66,"Velocity":30,"Duration":279069,"SoundDuration":279069,"Delta":210447773},{"NoteNumber":76,"Velocity":58,"Duration":134529,"SoundDuration":134529,"Delta":211005913},{"NoteNumber":61,"Velocity":30,"Duration":269058,"SoundDuration":269058,"Delta":211005913},{"NoteNumber":67,"Velocity":36,"Duration":269058,"SoundDuration":269058,"Delta":211005913},{"NoteNumber":79,"Velocity":47,"Duration":134529,"SoundDuration":134529,"Delta":211140442},{"NoteNumber":76,"Velocity":56,"Duration":134529,"SoundDuration":134529,"Delta":211274971},{"NoteNumber":79,"Velocity":48,"Duration":141450,"SoundDuration":141450,"Delta":211409500},{"NoteNumber":83,"Velocity":62,"Duration":136986,"SoundDuration":136986,"Delta":211540677},{"NoteNumber":67,"Velocity":32,"Duration":273972,"SoundDuration":273972,"Delta":211540677},{"NoteNumber":57,"Velocity":27,"Duration":273972,"SoundDuration":273972,"Delta":211540677},{"NoteNumber":81,"Velocity":48,"Duration":136986,"SoundDuration":136986,"Delta":211677663},{"NoteNumber":83,"Velocity":57,"Duration":136986,"SoundDuration":136986,"Delta":211814649},{"NoteNumber":81,"Velocity":50,"Duration":131516,"SoundDuration":131516,"Delta":211951635},{"NoteNumber":81,"Velocity":56,"Duration":266666,"SoundDuration":266666,"Delta":212093815},{"NoteNumber":62,"Velocity":30,"Duration":266666,"SoundDuration":266666,"Delta":212093815},{"NoteNumber":66,"Velocity":36,"Duration":266666,"SoundDuration":266666,"Delta":212093815},{"NoteNumber":81,"Velocity":60,"Duration":686923,"SoundDuration":686923,"Delta":212627148},{"NoteNumber":57,"Velocity":26,"Duration":276497,"SoundDuration":276497,"Delta":212627148},{"NoteNumber":66,"Velocity":31,"Duration":276497,"SoundDuration":276497,"Delta":212627148},{"NoteNumber":67,"Velocity":36,"Duration":267856,"SoundDuration":267856,"Delta":213180143},{"NoteNumber":62,"Velocity":30,"Duration":267856,"SoundDuration":267856,"Delta":213180143},{"NoteNumber":59,"Velocity":30,"Duration":267856,"SoundDuration":267856,"Delta":213180143},{"NoteNumber":79,"Velocity":56,"Duration":133928,"SoundDuration":133928,"Delta":213314072},{"NoteNumber":81,"Velocity":58,"Duration":133928,"SoundDuration":133928,"Delta":213448000},{"NoteNumber":83,"Velocity":60,"Duration":133928,"SoundDuration":133928,"Delta":213581929},{"NoteNumber":85,"Velocity":66,"Duration":138248,"SoundDuration":138248,"Delta":213715857},{"NoteNumber":67,"Velocity":31,"Duration":276497,"SoundDuration":276497,"Delta":213715857},{"NoteNumber":62,"Velocity":26,"Duration":276497,"SoundDuration":276497,"Delta":213715857},{"NoteNumber":55,"Velocity":26,"Duration":276497,"SoundDuration":276497,"Delta":213715857},{"NoteNumber":86,"Velocity":54,"Duration":138248,"SoundDuration":138248,"Delta":213854106},{"NoteNumber":85,"Velocity":62,"Duration":138248,"SoundDuration":138248,"Delta":213992355},{"NoteNumber":83,"Velocity":54,"Duration":138248,"SoundDuration":138248,"Delta":214130604},{"NoteNumber":81,"Velocity":60,"Duration":1082226,"SoundDuration":1082226,"Delta":214268852},{"NoteNumber":66,"Velocity":36,"Duration":267856,"SoundDuration":267856,"Delta":214268852},{"NoteNumber":62,"Velocity":30,"Duration":267856,"SoundDuration":267856,"Delta":214268852},{"NoteNumber":57,"Velocity":25,"Duration":279069,"SoundDuration":279069,"Delta":214804566},{"NoteNumber":66,"Velocity":30,"Duration":279069,"SoundDuration":279069,"Delta":214804566},{"NoteNumber":81,"Velocity":53,"Duration":134529,"SoundDuration":134529,"Delta":215362706},{"NoteNumber":66,"Velocity":36,"Duration":269058,"SoundDuration":269058,"Delta":215362706},{"NoteNumber":62,"Velocity":30,"Duration":269058,"SoundDuration":269058,"Delta":215362706},{"NoteNumber":83,"Velocity":40,"Duration":134529,"SoundDuration":134529,"Delta":215497236},{"NoteNumber":81,"Velocity":48,"Duration":134529,"SoundDuration":134529,"Delta":215631765},{"NoteNumber":83,"Velocity":39,"Duration":134529,"SoundDuration":134529,"Delta":215766294},{"NoteNumber":81,"Velocity":53,"Duration":136986,"SoundDuration":136986,"Delta":215900823},{"NoteNumber":66,"Velocity":32,"Duration":273972,"SoundDuration":273972,"Delta":215900823},{"NoteNumber":57,"Velocity":27,"Duration":273972,"SoundDuration":273972,"Delta":215900823},{"NoteNumber":83,"Velocity":37,"Duration":136986,"SoundDuration":136986,"Delta":216037810},{"NoteNumber":81,"Velocity":47,"Duration":136986,"SoundDuration":136986,"Delta":216174796},{"NoteNumber":78,"Velocity":44,"Duration":142179,"SoundDuration":142179,"Delta":216311782},{"NoteNumber":74,"Velocity":49,"Duration":266666,"SoundDuration":266666,"Delta":216453962},{"NoteNumber":66,"Velocity":36,"Duration":266666,"SoundDuration":266666,"Delta":216453962},{"NoteNumber":62,"Velocity":30,"Duration":266666,"SoundDuration":266666,"Delta":216453962},{"NoteNumber":74,"Velocity":44,"Duration":552995,"SoundDuration":552995,"Delta":216987295},{"NoteNumber":66,"Velocity":31,"Duration":276497,"SoundDuration":276497,"Delta":216987295},{"NoteNumber":57,"Velocity":26,"Duration":276497,"SoundDuration":276497,"Delta":216987295},{"NoteNumber":73,"Velocity":51,"Duration":133928,"SoundDuration":133928,"Delta":217540290},{"NoteNumber":64,"Velocity":30,"Duration":267856,"SoundDuration":267856,"Delta":217540290},{"NoteNumber":67,"Velocity":36,"Duration":267856,"SoundDuration":267856,"Delta":217540290},{"NoteNumber":71,"Velocity":45,"Duration":133928,"SoundDuration":133928,"Delta":217674219},{"NoteNumber":73,"Velocity":48,"Duration":133928,"SoundDuration":133928,"Delta":217808147},{"NoteNumber":74,"Velocity":50,"Duration":130039,"SoundDuration":130039,"Delta":217942076},{"NoteNumber":73,"Velocity":55,"Duration":138248,"SoundDuration":138248,"Delta":218072115},{"NoteNumber":67,"Velocity":35,"Duration":276497,"SoundDuration":276497,"Delta":218072115},{"NoteNumber":57,"Velocity":26,"Duration":276497,"SoundDuration":276497,"Delta":218072115},{"NoteNumber":74,"Velocity":54,"Duration":138248,"SoundDuration":138248,"Delta":218210363},{"NoteNumber":76,"Velocity":60,"Duration":138248,"SoundDuration":138248,"Delta":218348612},{"NoteNumber":77,"Velocity":65,"Duration":141025,"SoundDuration":141025,"Delta":218486861},{"NoteNumber":78,"Velocity":72,"Duration":1132303,"SoundDuration":1132303,"Delta":218640707},{"NoteNumber":58,"Velocity":30,"Duration":287081,"SoundDuration":287081,"Delta":218640707},{"NoteNumber":66,"Velocity":41,"Duration":287081,"SoundDuration":287081,"Delta":218640707},{"NoteNumber":61,"Velocity":30,"Duration":279069,"SoundDuration":279069,"Delta":219214870},{"NoteNumber":58,"Velocity":25,"Duration":279069,"SoundDuration":279069,"Delta":219214870},{"NoteNumber":79,"Velocity":56,"Duration":131004,"SoundDuration":131004,"Delta":219773010},{"NoteNumber":59,"Velocity":30,"Duration":262008,"SoundDuration":262008,"Delta":219773010},{"NoteNumber":62,"Velocity":36,"Duration":262008,"SoundDuration":262008,"Delta":219773010},{"NoteNumber":83,"Velocity":42,"Duration":131004,"SoundDuration":131004,"Delta":219904014},{"NoteNumber":79,"Velocity":45,"Duration":131004,"SoundDuration":131004,"Delta":220035019},{"NoteNumber":83,"Velocity":42,"Duration":131004,"SoundDuration":131004,"Delta":220166023},{"NoteNumber":88,"Velocity":65,"Duration":133928,"SoundDuration":133928,"Delta":220297027},{"NoteNumber":67,"Velocity":32,"Duration":267856,"SoundDuration":267856,"Delta":220297027},{"NoteNumber":55,"Velocity":27,"Duration":267856,"SoundDuration":267856,"Delta":220297027},{"NoteNumber":62,"Velocity":27,"Duration":267856,"SoundDuration":267856,"Delta":220297027},{"NoteNumber":86,"Velocity":52,"Duration":133928,"SoundDuration":133928,"Delta":220430956},{"NoteNumber":83,"Velocity":55,"Duration":133928,"SoundDuration":133928,"Delta":220564884},{"NoteNumber":79,"Velocity":49,"Duration":142179,"SoundDuration":142179,"Delta":220698813},{"NoteNumber":78,"Velocity":64,"Duration":262008,"SoundDuration":262008,"Delta":220840993},{"NoteNumber":66,"Velocity":36,"Duration":262008,"SoundDuration":262008,"Delta":220840993},{"NoteNumber":62,"Velocity":30,"Duration":262008,"SoundDuration":262008,"Delta":220840993},{"NoteNumber":78,"Velocity":52,"Duration":276497,"SoundDuration":276497,"Delta":221365010},{"NoteNumber":57,"Velocity":26,"Duration":276497,"SoundDuration":276497,"Delta":221365010},{"NoteNumber":66,"Velocity":31,"Duration":276497,"SoundDuration":276497,"Delta":221365010},{"NoteNumber":76,"Velocity":54,"Duration":132743,"SoundDuration":132743,"Delta":221918005},{"NoteNumber":67,"Velocity":36,"Duration":265486,"SoundDuration":265486,"Delta":221918005},{"NoteNumber":61,"Velocity":30,"Duration":265486,"SoundDuration":265486,"Delta":221918005},{"NoteNumber":79,"Velocity":42,"Duration":132743,"SoundDuration":132743,"Delta":222050748},{"NoteNumber":76,"Velocity":50,"Duration":132743,"SoundDuration":132743,"Delta":222183491},{"NoteNumber":79,"Velocity":42,"Duration":132743,"SoundDuration":132743,"Delta":222316234},{"NoteNumber":83,"Velocity":56,"Duration":133928,"SoundDuration":133928,"Delta":222448978},{"NoteNumber":67,"Velocity":31,"Duration":267856,"SoundDuration":267856,"Delta":222448978},{"NoteNumber":57,"Velocity":26,"Duration":267856,"SoundDuration":267856,"Delta":222448978},{"NoteNumber":81,"Velocity":45,"Duration":133928,"SoundDuration":133928,"Delta":222582906},{"NoteNumber":79,"Velocity":51,"Duration":133928,"SoundDuration":133928,"Delta":222716835},{"NoteNumber":73,"Velocity":45,"Duration":142857,"SoundDuration":142857,"Delta":222850763},{"NoteNumber":74,"Velocity":58,"Duration":1084456,"SoundDuration":1084456,"Delta":222993620},{"NoteNumber":66,"Velocity":36,"Duration":1084456,"SoundDuration":1084456,"Delta":222993620},{"NoteNumber":62,"Velocity":30,"Duration":1072828,"SoundDuration":1072828,"Delta":222993620},{"NoteNumber":62,"Velocity":68,"Duration":128755,"SoundDuration":128755,"Delta":224078076},{"NoteNumber":50,"Velocity":58,"Duration":128755,"SoundDuration":128755,"Delta":224078076},{"NoteNumber":66,"Velocity":58,"Duration":128755,"SoundDuration":128755,"Delta":224206832},{"NoteNumber":54,"Velocity":52,"Duration":128755,"SoundDuration":128755,"Delta":224206832},{"NoteNumber":62,"Velocity":60,"Duration":128755,"SoundDuration":128755,"Delta":224335587},{"NoteNumber":50,"Velocity":54,"Duration":128755,"SoundDuration":128755,"Delta":224335587},{"NoteNumber":66,"Velocity":58,"Duration":128755,"SoundDuration":128755,"Delta":224464342},{"NoteNumber":54,"Velocity":52,"Duration":128755,"SoundDuration":128755,"Delta":224464342},{"NoteNumber":71,"Velocity":68,"Duration":126209,"SoundDuration":126209,"Delta":224593097},{"NoteNumber":59,"Velocity":58,"Duration":126209,"SoundDuration":126209,"Delta":224593097},{"NoteNumber":69,"Velocity":58,"Duration":126209,"SoundDuration":126209,"Delta":224719307},{"NoteNumber":57,"Velocity":52,"Duration":126209,"SoundDuration":126209,"Delta":224719307},{"NoteNumber":66,"Velocity":62,"Duration":135953,"SoundDuration":135953,"Delta":224845516},{"NoteNumber":54,"Velocity":55,"Duration":135953,"SoundDuration":135953,"Delta":224845516},{"NoteNumber":62,"Velocity":58,"Duration":155440,"SoundDuration":155440,"Delta":224981469},{"NoteNumber":50,"Velocity":52,"Duration":155440,"SoundDuration":155440,"Delta":224981469},{"NoteNumber":64,"Velocity":69,"Duration":295566,"SoundDuration":295566,"Delta":225136910},{"NoteNumber":57,"Velocity":58,"Duration":295566,"SoundDuration":295566,"Delta":225136910},{"NoteNumber":49,"Velocity":49,"Duration":295566,"SoundDuration":295566,"Delta":225136910},{"NoteNumber":55,"Velocity":58,"Duration":295566,"SoundDuration":295566,"Delta":225136910},{"NoteNumber":64,"Velocity":64,"Duration":578817,"SoundDuration":578817,"Delta":225728043},{"NoteNumber":57,"Velocity":54,"Duration":578817,"SoundDuration":578817,"Delta":225728043},{"NoteNumber":45,"Velocity":42,"Duration":295566,"SoundDuration":295566,"Delta":225728043},{"NoteNumber":55,"Velocity":50,"Duration":295566,"SoundDuration":295566,"Delta":225728043},{"NoteNumber":64,"Velocity":68,"Duration":128755,"SoundDuration":128755,"Delta":226319176},{"NoteNumber":49,"Velocity":47,"Duration":257510,"SoundDuration":257510,"Delta":226319176},{"NoteNumber":55,"Velocity":56,"Duration":257510,"SoundDuration":257510,"Delta":226319176},{"NoteNumber":67,"Velocity":58,"Duration":128755,"SoundDuration":128755,"Delta":226447931},{"NoteNumber":64,"Velocity":62,"Duration":128755,"SoundDuration":128755,"Delta":226576686},{"NoteNumber":67,"Velocity":58,"Duration":128755,"SoundDuration":128755,"Delta":226705442},{"NoteNumber":73,"Velocity":68,"Duration":128755,"SoundDuration":128755,"Delta":226834197},{"NoteNumber":45,"Velocity":47,"Duration":253911,"SoundDuration":253911,"Delta":226834197},{"NoteNumber":55,"Velocity":56,"Duration":253911,"SoundDuration":253911,"Delta":226834197},{"NoteNumber":71,"Velocity":58,"Duration":125156,"SoundDuration":125156,"Delta":226962952},{"NoteNumber":67,"Velocity":62,"Duration":135251,"SoundDuration":135251,"Delta":227088109},{"NoteNumber":64,"Velocity":58,"Duration":155440,"SoundDuration":155440,"Delta":227223360},{"NoteNumber":57,"Velocity":52,"Duration":1159420,"SoundDuration":1159420,"Delta":227378800},{"NoteNumber":66,"Velocity":62,"Duration":1159420,"SoundDuration":1159420,"Delta":227378800},{"NoteNumber":62,"Velocity":52,"Duration":1159420,"SoundDuration":1159420,"Delta":227378800},{"NoteNumber":50,"Velocity":49,"Duration":289854,"SoundDuration":289854,"Delta":227378800},{"NoteNumber":54,"Velocity":58,"Duration":289854,"SoundDuration":289854,"Delta":227378800},{"NoteNumber":45,"Velocity":37,"Duration":289854,"SoundDuration":289854,"Delta":227958510},{"NoteNumber":54,"Velocity":44,"Duration":289854,"SoundDuration":289854,"Delta":227958510},{"NoteNumber":74,"Velocity":75,"Duration":128755,"SoundDuration":128755,"Delta":228538220},{"NoteNumber":54,"Velocity":56,"Duration":257510,"SoundDuration":257510,"Delta":228538220},{"NoteNumber":50,"Velocity":47,"Duration":257510,"SoundDuration":257510,"Delta":228538220},{"NoteNumber":78,"Velocity":58,"Duration":128755,"SoundDuration":128755,"Delta":228666976},{"NoteNumber":74,"Velocity":62,"Duration":128755,"SoundDuration":128755,"Delta":228795731},{"NoteNumber":78,"Velocity":58,"Duration":128755,"SoundDuration":128755,"Delta":228924486},{"NoteNumber":83,"Velocity":68,"Duration":128755,"SoundDuration":128755,"Delta":229053241},{"NoteNumber":54,"Velocity":47,"Duration":257510,"SoundDuration":257510,"Delta":229053241},{"NoteNumber":57,"Velocity":56,"Duration":257510,"SoundDuration":257510,"Delta":229053241},{"NoteNumber":81,"Velocity":58,"Duration":128755,"SoundDuration":128755,"Delta":229181997},{"NoteNumber":78,"Velocity":62,"Duration":133683,"SoundDuration":133683,"Delta":229310752},{"NoteNumber":74,"Velocity":58,"Duration":143540,"SoundDuration":143540,"Delta":229444436},{"NoteNumber":73,"Velocity":75,"Duration":128755,"SoundDuration":128755,"Delta":229587976},{"NoteNumber":61,"Velocity":56,"Duration":257510,"SoundDuration":257510,"Delta":229587976},{"NoteNumber":52,"Velocity":47,"Duration":257510,"SoundDuration":257510,"Delta":229587976},{"NoteNumber":69,"Velocity":58,"Duration":128755,"SoundDuration":128755,"Delta":229716732},{"NoteNumber":73,"Velocity":61,"Duration":128755,"SoundDuration":128755,"Delta":229845487},{"NoteNumber":69,"Velocity":58,"Duration":128755,"SoundDuration":128755,"Delta":229974242},{"NoteNumber":78,"Velocity":68,"Duration":125680,"SoundDuration":125680,"Delta":230102997},{"NoteNumber":57,"Velocity":42,"Duration":251361,"SoundDuration":251361,"Delta":230102997},{"NoteNumber":61,"Velocity":50,"Duration":251361,"SoundDuration":251361,"Delta":230102997},{"NoteNumber":76,"Velocity":58,"Duration":125680,"SoundDuration":125680,"Delta":230228678},{"NoteNumber":73,"Velocity":62,"Duration":132384,"SoundDuration":132384,"Delta":230354359},{"NoteNumber":69,"Velocity":58,"Duration":141509,"SoundDuration":141509,"Delta":230486744},{"NoteNumber":68,"Velocity":75,"Duration":128755,"SoundDuration":128755,"Delta":230628253},{"NoteNumber":59,"Velocity":47,"Duration":257510,"SoundDuration":257510,"Delta":230628253},{"NoteNumber":62,"Velocity":56,"Duration":257510,"SoundDuration":257510,"Delta":230628253},{"NoteNumber":64,"Velocity":54,"Duration":128755,"SoundDuration":128755,"Delta":230757009},{"NoteNumber":68,"Velocity":62,"Duration":128755,"SoundDuration":128755,"Delta":230885764},{"NoteNumber":64,"Velocity":52,"Duration":128755,"SoundDuration":128755,"Delta":231014519},{"NoteNumber":68,"Velocity":68,"Duration":125156,"SoundDuration":125156,"Delta":231143274},{"NoteNumber":62,"Velocity":50,"Duration":253526,"SoundDuration":253526,"Delta":231143274},{"NoteNumber":52,"Velocity":42,"Duration":253526,"SoundDuration":253526,"Delta":231143274},{"NoteNumber":76,"Velocity":50,"Duration":128369,"SoundDuration":128369,"Delta":231268431},{"NoteNumber":74,"Velocity":58,"Duration":137393,"SoundDuration":137393,"Delta":231396801},{"NoteNumber":71,"Velocity":50,"Duration":155440,"SoundDuration":155440,"Delta":231534194},{"NoteNumber":69,"Velocity":68,"Duration":568720,"SoundDuration":568720,"Delta":231689634},{"NoteNumber":61,"Velocity":63,"Duration":1142883,"SoundDuration":1142883,"Delta":231689634},{"NoteNumber":57,"Velocity":56,"Duration":1142883,"SoundDuration":1142883,"Delta":231689634},{"NoteNumber":73,"Velocity":51,"Duration":287081,"SoundDuration":287081,"Delta":232258354},{"NoteNumber":76,"Velocity":61,"Duration":287081,"SoundDuration":287081,"Delta":232258354},{"NoteNumber":69,"Velocity":51,"Duration":257510,"SoundDuration":257510,"Delta":232832517},{"NoteNumber":73,"Velocity":51,"Duration":257510,"SoundDuration":257510,"Delta":232832517},{"NoteNumber":76,"Velocity":61,"Duration":257510,"SoundDuration":257510,"Delta":232832517},{"NoteNumber":57,"Velocity":68,"Duration":128755,"SoundDuration":128755,"Delta":232832517},{"NoteNumber":61,"Velocity":53,"Duration":128755,"SoundDuration":128755,"Delta":232961273},{"NoteNumber":57,"Velocity":61,"Duration":128755,"SoundDuration":128755,"Delta":233090028},{"NoteNumber":61,"Velocity":53,"Duration":128755,"SoundDuration":128755,"Delta":233218783},{"NoteNumber":73,"Velocity":51,"Duration":257510,"SoundDuration":257510,"Delta":233347538},{"NoteNumber":76,"Velocity":61,"Duration":257510,"SoundDuration":257510,"Delta":233347538},{"NoteNumber":66,"Velocity":68,"Duration":128755,"SoundDuration":128755,"Delta":233347538},{"NoteNumber":64,"Velocity":58,"Duration":128755,"SoundDuration":128755,"Delta":233476294},{"NoteNumber":61,"Velocity":63,"Duration":137650,"SoundDuration":137650,"Delta":233605049},{"NoteNumber":57,"Velocity":58,"Duration":142487,"SoundDuration":142487,"Delta":233742699},{"NoteNumber":78,"Velocity":65,"Duration":295566,"SoundDuration":295566,"Delta":233898140},{"NoteNumber":74,"Velocity":55,"Duration":295566,"SoundDuration":295566,"Delta":233898140},{"NoteNumber":57,"Velocity":72,"Duration":591133,"SoundDuration":591133,"Delta":233898140},{"NoteNumber":76,"Velocity":56,"Duration":295566,"SoundDuration":295566,"Delta":234489273},{"NoteNumber":74,"Velocity":47,"Duration":295566,"SoundDuration":295566,"Delta":234489273},{"NoteNumber":71,"Velocity":47,"Duration":295566,"SoundDuration":295566,"Delta":234489273},{"NoteNumber":56,"Velocity":64,"Duration":295566,"SoundDuration":295566,"Delta":234489273},{"NoteNumber":68,"Velocity":51,"Duration":257510,"SoundDuration":257510,"Delta":235080406},{"NoteNumber":76,"Velocity":61,"Duration":257510,"SoundDuration":257510,"Delta":235080406},{"NoteNumber":71,"Velocity":51,"Duration":257510,"SoundDuration":257510,"Delta":235080406},{"NoteNumber":59,"Velocity":68,"Duration":128755,"SoundDuration":128755,"Delta":235080406},{"NoteNumber":62,"Velocity":53,"Duration":128755,"SoundDuration":128755,"Delta":235209161},{"NoteNumber":59,"Velocity":62,"Duration":128755,"SoundDuration":128755,"Delta":235337916},{"NoteNumber":62,"Velocity":53,"Duration":128755,"SoundDuration":128755,"Delta":235466672},{"NoteNumber":76,"Velocity":61,"Duration":257510,"SoundDuration":257510,"Delta":235595427},{"NoteNumber":71,"Velocity":51,"Duration":257510,"SoundDuration":257510,"Delta":235595427},{"NoteNumber":74,"Velocity":51,"Duration":257510,"SoundDuration":257510,"Delta":235595427},{"NoteNumber":66,"Velocity":68,"Duration":128755,"SoundDuration":128755,"Delta":235595427},{"NoteNumber":64,"Velocity":58,"Duration":128755,"SoundDuration":128755,"Delta":235724182},{"NoteNumber":62,"Velocity":61,"Duration":137650,"SoundDuration":137650,"Delta":235852937},{"NoteNumber":59,"Velocity":58,"Duration":165107,"SoundDuration":165107,"Delta":235990588},{"NoteNumber":69,"Velocity":55,"Duration":287081,"SoundDuration":287081,"Delta":236155695},{"NoteNumber":73,"Velocity":55,"Duration":287081,"SoundDuration":287081,"Delta":236155695},{"NoteNumber":78,"Velocity":65,"Duration":287081,"SoundDuration":287081,"Delta":236155695},{"NoteNumber":61,"Velocity":72,"Duration":574162,"SoundDuration":574162,"Delta":236155695},{"NoteNumber":73,"Velocity":47,"Duration":292683,"SoundDuration":292683,"Delta":236729858},{"NoteNumber":76,"Velocity":56,"Duration":292683,"SoundDuration":292683,"Delta":236729858},{"NoteNumber":69,"Velocity":47,"Duration":292683,"SoundDuration":292683,"Delta":236729858},{"NoteNumber":57,"Velocity":64,"Duration":292683,"SoundDuration":292683,"Delta":236729858},{"NoteNumber":73,"Velocity":47,"Duration":257510,"SoundDuration":257510,"Delta":237315224},{"NoteNumber":69,"Velocity":47,"Duration":257510,"SoundDuration":257510,"Delta":237315224},{"NoteNumber":81,"Velocity":56,"Duration":257510,"SoundDuration":257510,"Delta":237315224},{"NoteNumber":76,"Velocity":47,"Duration":257510,"SoundDuration":257510,"Delta":237315224},{"NoteNumber":55,"Velocity":66,"Duration":128755,"SoundDuration":128755,"Delta":237315224},{"NoteNumber":61,"Velocity":54,"Duration":128755,"SoundDuration":128755,"Delta":237443979},{"NoteNumber":55,"Velocity":58,"Duration":128755,"SoundDuration":128755,"Delta":237572734},{"NoteNumber":61,"Velocity":54,"Duration":128755,"SoundDuration":128755,"Delta":237701490},{"NoteNumber":76,"Velocity":51,"Duration":254435,"SoundDuration":254435,"Delta":237830245},{"NoteNumber":81,"Velocity":61,"Duration":254435,"SoundDuration":254435,"Delta":237830245},{"NoteNumber":69,"Velocity":51,"Duration":254435,"SoundDuration":254435,"Delta":237830245},{"NoteNumber":73,"Velocity":51,"Duration":254435,"SoundDuration":254435,"Delta":237830245},{"NoteNumber":66,"Velocity":61,"Duration":128755,"SoundDuration":128755,"Delta":237830245},{"NoteNumber":64,"Velocity":59,"Duration":125680,"SoundDuration":125680,"Delta":237959000},{"NoteNumber":61,"Velocity":62,"Duration":131634,"SoundDuration":131634,"Delta":238084681},{"NoteNumber":55,"Velocity":60,"Duration":143540,"SoundDuration":143540,"Delta":238216315},{"NoteNumber":81,"Velocity":70,"Duration":257510,"SoundDuration":257510,"Delta":238359856},{"NoteNumber":74,"Velocity":59,"Duration":257510,"SoundDuration":257510,"Delta":238359856},{"NoteNumber":69,"Velocity":59,"Duration":257510,"SoundDuration":257510,"Delta":238359856},{"NoteNumber":54,"Velocity":67,"Duration":128755,"SoundDuration":128755,"Delta":238359856},{"NoteNumber":57,"Velocity":58,"Duration":128755,"SoundDuration":128755,"Delta":238488611},{"NoteNumber":54,"Velocity":62,"Duration":128755,"SoundDuration":128755,"Delta":238617366},{"NoteNumber":62,"Velocity":58,"Duration":128755,"SoundDuration":128755,"Delta":238746121},{"NoteNumber":74,"Velocity":51,"Duration":254435,"SoundDuration":254435,"Delta":238874877},{"NoteNumber":71,"Velocity":51,"Duration":254435,"SoundDuration":254435,"Delta":238874877},{"NoteNumber":83,"Velocity":61,"Duration":254435,"SoundDuration":254435,"Delta":238874877},{"NoteNumber":53,"Velocity":65,"Duration":128755,"SoundDuration":128755,"Delta":238874877},{"NoteNumber":57,"Velocity":52,"Duration":125680,"SoundDuration":125680,"Delta":239003632},{"NoteNumber":53,"Velocity":56,"Duration":130957,"SoundDuration":130957,"Delta":239129313},{"NoteNumber":62,"Velocity":52,"Duration":141509,"SoundDuration":141509,"Delta":239260270},{"NoteNumber":76,"Velocity":74,"Duration":257510,"SoundDuration":257510,"Delta":239401779},{"NoteNumber":73,"Velocity":63,"Duration":257510,"SoundDuration":257510,"Delta":239401779},{"NoteNumber":52,"Velocity":63,"Duration":128755,"SoundDuration":128755,"Delta":239401779},{"NoteNumber":61,"Velocity":52,"Duration":128755,"SoundDuration":128755,"Delta":239530534},{"NoteNumber":57,"Velocity":57,"Duration":128755,"SoundDuration":128755,"Delta":239659290},{"NoteNumber":61,"Velocity":52,"Duration":128755,"SoundDuration":128755,"Delta":239788045},{"NoteNumber":68,"Velocity":47,"Duration":254435,"SoundDuration":254435,"Delta":239916800},{"NoteNumber":74,"Velocity":47,"Duration":254435,"SoundDuration":254435,"Delta":239916800},{"NoteNumber":80,"Velocity":56,"Duration":254435,"SoundDuration":254435,"Delta":239916800},{"NoteNumber":76,"Velocity":47,"Duration":254435,"SoundDuration":254435,"Delta":239916800},{"NoteNumber":64,"Velocity":60,"Duration":128755,"SoundDuration":128755,"Delta":239916800},{"NoteNumber":62,"Velocity":52,"Duration":125680,"SoundDuration":125680,"Delta":240045555},{"NoteNumber":59,"Velocity":56,"Duration":135600,"SoundDuration":135600,"Delta":240171236},{"NoteNumber":61,"Velocity":52,"Duration":155440,"SoundDuration":155440,"Delta":240306837},{"NoteNumber":69,"Velocity":51,"Duration":566350,"SoundDuration":566350,"Delta":240462277},{"NoteNumber":76,"Velocity":51,"Duration":1159853,"SoundDuration":1159853,"Delta":240462277},{"NoteNumber":81,"Velocity":61,"Duration":1159853,"SoundDuration":1159853,"Delta":240462277},{"NoteNumber":73,"Velocity":51,"Duration":1159853,"SoundDuration":1159853,"Delta":240462277},{"NoteNumber":57,"Velocity":62,"Duration":566350,"SoundDuration":566350,"Delta":240462277},{"NoteNumber":57,"Velocity":45,"Duration":591133,"SoundDuration":591133,"Delta":241030997},{"NoteNumber":69,"Velocity":54,"Duration":591133,"SoundDuration":591133,"Delta":241030997},{"NoteNumber":61,"Velocity":45,"Duration":591133,"SoundDuration":591133,"Delta":241030997},{"NoteNumber":59,"Velocity":41,"Duration":646204,"SoundDuration":646204,"Delta":241622130},{"NoteNumber":68,"Velocity":49,"Duration":646204,"SoundDuration":646204,"Delta":241622130},{"NoteNumber":62,"Velocity":41,"Duration":646204,"SoundDuration":646204,"Delta":241622130},{"NoteNumber":64,"Velocity":39,"Duration":702988,"SoundDuration":702988,"Delta":242268334},{"NoteNumber":67,"Velocity":47,"Duration":702988,"SoundDuration":702988,"Delta":242268334},{"NoteNumber":61,"Velocity":39,"Duration":702988,"SoundDuration":702988,"Delta":242268334},{"NoteNumber":66,"Velocity":36,"Duration":266666,"SoundDuration":266666,"Delta":242971322},{"NoteNumber":62,"Velocity":30,"Duration":266666,"SoundDuration":266666,"Delta":242971322},{"NoteNumber":66,"Velocity":31,"Duration":276497,"SoundDuration":276497,"Delta":243504655},{"NoteNumber":57,"Velocity":26,"Duration":276497,"SoundDuration":276497,"Delta":243504655},{"NoteNumber":81,"Velocity":56,"Duration":133928,"SoundDuration":133928,"Delta":244057650},{"NoteNumber":67,"Velocity":36,"Duration":267856,"SoundDuration":267856,"Delta":244057650},{"NoteNumber":64,"Velocity":30,"Duration":267856,"SoundDuration":267856,"Delta":244057650},{"NoteNumber":83,"Velocity":53,"Duration":133928,"SoundDuration":133928,"Delta":244191579},{"NoteNumber":81,"Velocity":55,"Duration":133928,"SoundDuration":133928,"Delta":244325507},{"NoteNumber":83,"Velocity":53,"Duration":130039,"SoundDuration":130039,"Delta":244459436},{"NoteNumber":81,"Velocity":53,"Duration":138248,"SoundDuration":138248,"Delta":244589475},{"NoteNumber":66,"Velocity":31,"Duration":276497,"SoundDuration":276497,"Delta":244589475},{"NoteNumber":57,"Velocity":26,"Duration":276497,"SoundDuration":276497,"Delta":244589475},{"NoteNumber":83,"Velocity":49,"Duration":138248,"SoundDuration":138248,"Delta":244727724},{"NoteNumber":81,"Velocity":50,"Duration":134968,"SoundDuration":134968,"Delta":244865972},{"NoteNumber":78,"Velocity":45,"Duration":138289,"SoundDuration":138289,"Delta":245000941},{"NoteNumber":74,"Velocity":49,"Duration":266666,"SoundDuration":266666,"Delta":245139231},{"NoteNumber":66,"Velocity":36,"Duration":266666,"SoundDuration":266666,"Delta":245139231},{"NoteNumber":62,"Velocity":30,"Duration":266666,"SoundDuration":266666,"Delta":245139231},{"NoteNumber":74,"Velocity":44,"Duration":552995,"SoundDuration":552995,"Delta":245672564},{"NoteNumber":66,"Velocity":31,"Duration":276497,"SoundDuration":276497,"Delta":245672564},{"NoteNumber":57,"Velocity":26,"Duration":276497,"SoundDuration":276497,"Delta":245672564},{"NoteNumber":73,"Velocity":51,"Duration":133928,"SoundDuration":133928,"Delta":246225559},{"NoteNumber":67,"Velocity":36,"Duration":267856,"SoundDuration":267856,"Delta":246225559},{"NoteNumber":64,"Velocity":30,"Duration":267856,"SoundDuration":267856,"Delta":246225559},{"NoteNumber":71,"Velocity":41,"Duration":133928,"SoundDuration":133928,"Delta":246359487},{"NoteNumber":73,"Velocity":45,"Duration":133928,"SoundDuration":133928,"Delta":246493416},{"NoteNumber":74,"Velocity":43,"Duration":130039,"SoundDuration":130039,"Delta":246627344},{"NoteNumber":73,"Velocity":49,"Duration":138248,"SoundDuration":138248,"Delta":246757383},{"NoteNumber":57,"Velocity":26,"Duration":276497,"SoundDuration":276497,"Delta":246757383},{"NoteNumber":67,"Velocity":31,"Duration":276497,"SoundDuration":276497,"Delta":246757383},{"NoteNumber":74,"Velocity":42,"Duration":138248,"SoundDuration":138248,"Delta":246895632},{"NoteNumber":76,"Velocity":45,"Duration":138248,"SoundDuration":138248,"Delta":247033881},{"NoteNumber":73,"Velocity":49,"Duration":138248,"SoundDuration":138248,"Delta":247172129},{"NoteNumber":69,"Velocity":59,"Duration":267856,"SoundDuration":267856,"Delta":247310378},{"NoteNumber":66,"Velocity":36,"Duration":267856,"SoundDuration":267856,"Delta":247310378},{"NoteNumber":62,"Velocity":30,"Duration":267856,"SoundDuration":267856,"Delta":247310378},{"NoteNumber":74,"Velocity":55,"Duration":279069,"SoundDuration":279069,"Delta":247846092},{"NoteNumber":66,"Velocity":30,"Duration":279069,"SoundDuration":279069,"Delta":247846092},{"NoteNumber":57,"Velocity":25,"Duration":279069,"SoundDuration":279069,"Delta":247846092},{"NoteNumber":76,"Velocity":53,"Duration":134529,"SoundDuration":134529,"Delta":248404232},{"NoteNumber":67,"Velocity":36,"Duration":269058,"SoundDuration":269058,"Delta":248404232},{"NoteNumber":61,"Velocity":30,"Duration":269058,"SoundDuration":269058,"Delta":248404232},{"NoteNumber":79,"Velocity":47,"Duration":134529,"SoundDuration":134529,"Delta":248538761},{"NoteNumber":76,"Velocity":51,"Duration":134529,"SoundDuration":134529,"Delta":248673291},{"NoteNumber":79,"Velocity":48,"Duration":144803,"SoundDuration":144803,"Delta":248807820},{"NoteNumber":83,"Velocity":59,"Duration":136986,"SoundDuration":136986,"Delta":248942349},{"NoteNumber":57,"Velocity":27,"Duration":273972,"SoundDuration":273972,"Delta":248942349},{"NoteNumber":67,"Velocity":32,"Duration":273972,"SoundDuration":273972,"Delta":248942349},{"NoteNumber":81,"Velocity":48,"Duration":136986,"SoundDuration":136986,"Delta":249079335},{"NoteNumber":83,"Velocity":51,"Duration":136986,"SoundDuration":136986,"Delta":249216322},{"NoteNumber":81,"Velocity":47,"Duration":131516,"SoundDuration":131516,"Delta":249353308},{"NoteNumber":81,"Velocity":56,"Duration":266666,"SoundDuration":266666,"Delta":249495488},{"NoteNumber":66,"Velocity":36,"Duration":266666,"SoundDuration":266666,"Delta":249495488},{"NoteNumber":62,"Velocity":30,"Duration":266666,"SoundDuration":266666,"Delta":249495488},{"NoteNumber":81,"Velocity":60,"Duration":686923,"SoundDuration":686923,"Delta":250028821},{"NoteNumber":57,"Velocity":26,"Duration":276497,"SoundDuration":276497,"Delta":250028821},{"NoteNumber":66,"Velocity":31,"Duration":276497,"SoundDuration":276497,"Delta":250028821},{"NoteNumber":59,"Velocity":30,"Duration":267856,"SoundDuration":267856,"Delta":250581816},{"NoteNumber":67,"Velocity":36,"Duration":267856,"SoundDuration":267856,"Delta":250581816},{"NoteNumber":62,"Velocity":30,"Duration":267856,"SoundDuration":267856,"Delta":250581816},{"NoteNumber":79,"Velocity":52,"Duration":133928,"SoundDuration":133928,"Delta":250715744},{"NoteNumber":81,"Velocity":54,"Duration":133928,"SoundDuration":133928,"Delta":250849673},{"NoteNumber":83,"Velocity":56,"Duration":133928,"SoundDuration":133928,"Delta":250983601},{"NoteNumber":85,"Velocity":61,"Duration":138248,"SoundDuration":138248,"Delta":251117530},{"NoteNumber":55,"Velocity":26,"Duration":276497,"SoundDuration":276497,"Delta":251117530},{"NoteNumber":62,"Velocity":26,"Duration":276497,"SoundDuration":276497,"Delta":251117530},{"NoteNumber":67,"Velocity":31,"Duration":276497,"SoundDuration":276497,"Delta":251117530},{"NoteNumber":86,"Velocity":54,"Duration":138248,"SoundDuration":138248,"Delta":251255779},{"NoteNumber":85,"Velocity":56,"Duration":138248,"SoundDuration":138248,"Delta":251394027},{"NoteNumber":83,"Velocity":54,"Duration":140383,"SoundDuration":140383,"Delta":251532276},{"NoteNumber":81,"Velocity":60,"Duration":1082226,"SoundDuration":1082226,"Delta":251672660},{"NoteNumber":66,"Velocity":36,"Duration":267856,"SoundDuration":267856,"Delta":251672660},{"NoteNumber":62,"Velocity":30,"Duration":267856,"SoundDuration":267856,"Delta":251672660},{"NoteNumber":66,"Velocity":30,"Duration":279069,"SoundDuration":279069,"Delta":252208374},{"NoteNumber":57,"Velocity":25,"Duration":279069,"SoundDuration":279069,"Delta":252208374},{"NoteNumber":81,"Velocity":41,"Duration":134529,"SoundDuration":134529,"Delta":252766514},{"NoteNumber":62,"Velocity":25,"Duration":269058,"SoundDuration":269058,"Delta":252766514},{"NoteNumber":65,"Velocity":30,"Duration":269058,"SoundDuration":269058,"Delta":252766514},{"NoteNumber":82,"Velocity":32,"Duration":134529,"SoundDuration":134529,"Delta":252901043},{"NoteNumber":81,"Velocity":37,"Duration":134529,"SoundDuration":134529,"Delta":253035572},{"NoteNumber":82,"Velocity":33,"Duration":131176,"SoundDuration":131176,"Delta":253170102},{"NoteNumber":81,"Velocity":42,"Duration":136986,"SoundDuration":136986,"Delta":253301278},{"NoteNumber":65,"Velocity":27,"Duration":273972,"SoundDuration":273972,"Delta":253301278},{"NoteNumber":57,"Velocity":22,"Duration":273972,"SoundDuration":273972,"Delta":253301278},{"NoteNumber":82,"Velocity":34,"Duration":136986,"SoundDuration":136986,"Delta":253438264},{"NoteNumber":81,"Velocity":39,"Duration":136986,"SoundDuration":136986,"Delta":253575250},{"NoteNumber":77,"Velocity":34,"Duration":142179,"SoundDuration":142179,"Delta":253712237},{"NoteNumber":74,"Velocity":41,"Duration":266666,"SoundDuration":266666,"Delta":253854417},{"NoteNumber":62,"Velocity":25,"Duration":266666,"SoundDuration":266666,"Delta":253854417},{"NoteNumber":65,"Velocity":30,"Duration":266666,"SoundDuration":266666,"Delta":253854417},{"NoteNumber":74,"Velocity":37,"Duration":552995,"SoundDuration":552995,"Delta":254387750},{"NoteNumber":57,"Velocity":22,"Duration":276497,"SoundDuration":276497,"Delta":254387750},{"NoteNumber":65,"Velocity":26,"Duration":276497,"SoundDuration":276497,"Delta":254387750},{"NoteNumber":77,"Velocity":43,"Duration":133928,"SoundDuration":133928,"Delta":254940745},{"NoteNumber":69,"Velocity":37,"Duration":531249,"SoundDuration":531249,"Delta":254940745},{"NoteNumber":65,"Velocity":30,"Duration":267856,"SoundDuration":267856,"Delta":254940745},{"NoteNumber":63,"Velocity":25,"Duration":267856,"SoundDuration":267856,"Delta":254940745},{"NoteNumber":60,"Velocity":25,"Duration":267856,"SoundDuration":267856,"Delta":254940745},{"NoteNumber":76,"Velocity":38,"Duration":133928,"SoundDuration":133928,"Delta":255074673},{"NoteNumber":77,"Velocity":41,"Duration":133928,"SoundDuration":133928,"Delta":255208602},{"NoteNumber":76,"Velocity":38,"Duration":133928,"SoundDuration":133928,"Delta":255342530},{"NoteNumber":69,"Velocity":37,"Duration":568592,"SoundDuration":568592,"Delta":255476459},{"NoteNumber":79,"Velocity":46,"Duration":138248,"SoundDuration":138248,"Delta":255476459},{"NoteNumber":63,"Velocity":22,"Duration":276497,"SoundDuration":276497,"Delta":255476459},{"NoteNumber":65,"Velocity":29,"Duration":276497,"SoundDuration":276497,"Delta":255476459},{"NoteNumber":53,"Velocity":22,"Duration":276497,"SoundDuration":276497,"Delta":255476459},{"NoteNumber":77,"Velocity":45,"Duration":138248,"SoundDuration":138248,"Delta":255614707},{"NoteNumber":79,"Velocity":51,"Duration":138248,"SoundDuration":138248,"Delta":255752956},{"NoteNumber":77,"Velocity":55,"Duration":141025,"SoundDuration":141025,"Delta":255897615},{"NoteNumber":77,"Velocity":61,"Duration":574162,"SoundDuration":574162,"Delta":256045051},{"NoteNumber":70,"Velocity":37,"Duration":853232,"SoundDuration":853232,"Delta":256045051},{"NoteNumber":62,"Velocity":25,"Duration":287081,"SoundDuration":287081,"Delta":256045051},{"NoteNumber":58,"Velocity":25,"Duration":287081,"SoundDuration":287081,"Delta":256045051},{"NoteNumber":65,"Velocity":34,"Duration":287081,"SoundDuration":287081,"Delta":256045051},{"NoteNumber":82,"Velocity":57,"Duration":279069,"SoundDuration":279069,"Delta":256619214},{"NoteNumber":65,"Velocity":25,"Duration":279069,"SoundDuration":279069,"Delta":256619214},{"NoteNumber":53,"Velocity":21,"Duration":279069,"SoundDuration":279069,"Delta":256619214},{"NoteNumber":62,"Velocity":21,"Duration":279069,"SoundDuration":279069,"Delta":256619214},{"NoteNumber":86,"Velocity":56,"Duration":131004,"SoundDuration":131004,"Delta":257177354},{"NoteNumber":58,"Velocity":30,"Duration":262008,"SoundDuration":262008,"Delta":257177354},{"NoteNumber":62,"Velocity":30,"Duration":262008,"SoundDuration":262008,"Delta":257177354},{"NoteNumber":65,"Velocity":36,"Duration":262008,"SoundDuration":262008,"Delta":257177354},{"NoteNumber":88,"Velocity":51,"Duration":131004,"SoundDuration":131004,"Delta":257308358},{"NoteNumber":86,"Velocity":58,"Duration":131004,"SoundDuration":131004,"Delta":257439363},{"NoteNumber":85,"Velocity":56,"Duration":127280,"SoundDuration":127280,"Delta":257570367},{"NoteNumber":86,"Velocity":65,"Duration":133928,"SoundDuration":133928,"Delta":257697647},{"NoteNumber":68,"Velocity":38,"Duration":267856,"SoundDuration":267856,"Delta":257697647},{"NoteNumber":62,"Velocity":32,"Duration":267856,"SoundDuration":267856,"Delta":257697647},{"NoteNumber":58,"Velocity":32,"Duration":267856,"SoundDuration":267856,"Delta":257697647},{"NoteNumber":88,"Velocity":56,"Duration":133928,"SoundDuration":133928,"Delta":257831576},{"NoteNumber":89,"Velocity":55,"Duration":133928,"SoundDuration":133928,"Delta":257965504},{"NoteNumber":86,"Velocity":49,"Duration":141836,"SoundDuration":141836,"Delta":258093852},{"NoteNumber":81,"Velocity":64,"Duration":262008,"SoundDuration":262008,"Delta":258241613},{"NoteNumber":62,"Velocity":30,"Duration":262008,"SoundDuration":262008,"Delta":258241613},{"NoteNumber":69,"Velocity":36,"Duration":262008,"SoundDuration":262008,"Delta":258241613},{"NoteNumber":66,"Velocity":30,"Duration":262008,"SoundDuration":262008,"Delta":258241613},{"NoteNumber":81,"Velocity":52,"Duration":1080702,"SoundDuration":1080702,"Delta":258765630},{"NoteNumber":69,"Velocity":31,"Duration":276497,"SoundDuration":276497,"Delta":258765630},{"NoteNumber":66,"Velocity":26,"Duration":276497,"SoundDuration":276497,"Delta":258765630},{"NoteNumber":57,"Velocity":26,"Duration":276497,"SoundDuration":276497,"Delta":258765630},{"NoteNumber":76,"Velocity":54,"Duration":132743,"SoundDuration":132743,"Delta":259318625},{"NoteNumber":67,"Velocity":30,"Duration":265486,"SoundDuration":265486,"Delta":259318625},{"NoteNumber":61,"Velocity":30,"Duration":265486,"SoundDuration":265486,"Delta":259318625},{"NoteNumber":69,"Velocity":36,"Duration":265486,"SoundDuration":265486,"Delta":259318625},{"NoteNumber":79,"Velocity":42,"Duration":132743,"SoundDuration":132743,"Delta":259451368},{"NoteNumber":76,"Velocity":48,"Duration":132743,"SoundDuration":132743,"Delta":259584111},{"NoteNumber":79,"Velocity":45,"Duration":129477,"SoundDuration":129477,"Delta":259716855},{"NoteNumber":83,"Velocity":56,"Duration":133928,"SoundDuration":133928,"Delta":259846332},{"NoteNumber":57,"Velocity":26,"Duration":267856,"SoundDuration":267856,"Delta":259846332},{"NoteNumber":67,"Velocity":26,"Duration":267856,"SoundDuration":267856,"Delta":259846332},{"NoteNumber":69,"Velocity":31,"Duration":267856,"SoundDuration":267856,"Delta":259846332},{"NoteNumber":81,"Velocity":45,"Duration":133928,"SoundDuration":133928,"Delta":259980261},{"NoteNumber":79,"Velocity":51,"Duration":133928,"SoundDuration":133928,"Delta":260114189},{"NoteNumber":76,"Velocity":45,"Duration":142857,"SoundDuration":142857,"Delta":260248118},{"NoteNumber":81,"Velocity":58,"Duration":1084455,"SoundDuration":1084455,"Delta":260390975},{"NoteNumber":69,"Velocity":36,"Duration":263157,"SoundDuration":263157,"Delta":260390975},{"NoteNumber":66,"Velocity":30,"Duration":263157,"SoundDuration":263157,"Delta":260390975},{"NoteNumber":62,"Velocity":26,"Duration":279069,"SoundDuration":279069,"Delta":260917291},{"NoteNumber":66,"Velocity":26,"Duration":279069,"SoundDuration":279069,"Delta":260917291},{"NoteNumber":69,"Velocity":31,"Duration":279069,"SoundDuration":279069,"Delta":260917291},{"NoteNumber":79,"Velocity":60,"Duration":128755,"SoundDuration":128755,"Delta":261475431},{"NoteNumber":62,"Velocity":30,"Duration":257510,"SoundDuration":257510,"Delta":261475431},{"NoteNumber":67,"Velocity":36,"Duration":257510,"SoundDuration":257510,"Delta":261475431},{"NoteNumber":59,"Velocity":30,"Duration":257510,"SoundDuration":257510,"Delta":261475431},{"NoteNumber":83,"Velocity":51,"Duration":128755,"SoundDuration":128755,"Delta":261604186},{"NoteNumber":79,"Velocity":55,"Duration":128755,"SoundDuration":128755,"Delta":261732942},{"NoteNumber":83,"Velocity":58,"Duration":128755,"SoundDuration":128755,"Delta":261861697},{"NoteNumber":88,"Velocity":61,"Duration":128755,"SoundDuration":128755,"Delta":261990452},{"NoteNumber":55,"Velocity":26,"Duration":254435,"SoundDuration":254435,"Delta":261990452},{"NoteNumber":67,"Velocity":31,"Duration":254435,"SoundDuration":254435,"Delta":261990452},{"NoteNumber":62,"Velocity":26,"Duration":254435,"SoundDuration":254435,"Delta":261990452},{"NoteNumber":86,"Velocity":56,"Duration":125680,"SoundDuration":125680,"Delta":262119207},{"NoteNumber":83,"Velocity":53,"Duration":135600,"SoundDuration":135600,"Delta":262244888},{"NoteNumber":79,"Velocity":50,"Duration":155440,"SoundDuration":155440,"Delta":262380489},{"NoteNumber":78,"Velocity":54,"Duration":147783,"SoundDuration":147783,"Delta":262535929},{"NoteNumber":62,"Velocity":35,"Duration":295566,"SoundDuration":295566,"Delta":262535929},{"NoteNumber":66,"Velocity":42,"Duration":295566,"SoundDuration":295566,"Delta":262535929},{"NoteNumber":81,"Velocity":60,"Duration":147783,"SoundDuration":147783,"Delta":262683712},{"NoteNumber":81,"Velocity":61,"Duration":591133,"SoundDuration":591133,"Delta":263127062},{"NoteNumber":57,"Velocity":28,"Duration":295566,"SoundDuration":295566,"Delta":263127062},{"NoteNumber":66,"Velocity":34,"Duration":295566,"SoundDuration":295566,"Delta":263127062},{"NoteNumber":76,"Velocity":53,"Duration":128755,"SoundDuration":128755,"Delta":263718195},{"NoteNumber":67,"Velocity":40,"Duration":257510,"SoundDuration":257510,"Delta":263718195},{"NoteNumber":61,"Velocity":34,"Duration":257510,"SoundDuration":257510,"Delta":263718195},{"NoteNumber":79,"Velocity":45,"Duration":128755,"SoundDuration":128755,"Delta":263846950},{"NoteNumber":76,"Velocity":49,"Duration":128755,"SoundDuration":128755,"Delta":263975706},{"NoteNumber":79,"Velocity":46,"Duration":128755,"SoundDuration":128755,"Delta":264104461},{"NoteNumber":83,"Velocity":59,"Duration":128755,"SoundDuration":128755,"Delta":264233216},{"NoteNumber":57,"Velocity":30,"Duration":257510,"SoundDuration":257510,"Delta":264233216},{"NoteNumber":67,"Velocity":36,"Duration":257510,"SoundDuration":257510,"Delta":264233216},{"NoteNumber":81,"Velocity":57,"Duration":128755,"SoundDuration":128755,"Delta":264361971},{"NoteNumber":79,"Velocity":55,"Duration":137650,"SoundDuration":137650,"Delta":264490727},{"NoteNumber":76,"Velocity":53,"Duration":155440,"SoundDuration":155440,"Delta":264628377},{"NoteNumber":74,"Velocity":57,"Duration":1340781,"SoundDuration":1340781,"Delta":264783818},{"NoteNumber":66,"Velocity":43,"Duration":1340781,"SoundDuration":1340781,"Delta":264783818},{"NoteNumber":62,"Velocity":36,"Duration":1340781,"SoundDuration":1340781,"Delta":264783818},{"NoteNumber":67,"Velocity":42,"Duration":333333,"SoundDuration":333333,"Delta":266124600},{"NoteNumber":74,"Velocity":50,"Duration":333333,"SoundDuration":333333,"Delta":266124600},{"NoteNumber":71,"Velocity":42,"Duration":333333,"SoundDuration":333333,"Delta":266124600},{"NoteNumber":71,"Velocity":38,"Duration":333333,"SoundDuration":333333,"Delta":266494970},{"NoteNumber":76,"Velocity":45,"Duration":333333,"SoundDuration":333333,"Delta":266494970},{"NoteNumber":67,"Velocity":38,"Duration":333333,"SoundDuration":333333,"Delta":266494970},{"NoteNumber":71,"Velocity":38,"Duration":333333,"SoundDuration":333333,"Delta":266865341},{"NoteNumber":67,"Velocity":38,"Duration":333333,"SoundDuration":333333,"Delta":266865341},{"NoteNumber":78,"Velocity":45,"Duration":333333,"SoundDuration":333333,"Delta":266865341},{"NoteNumber":71,"Velocity":38,"Duration":348450,"SoundDuration":348450,"Delta":267235711},{"NoteNumber":67,"Velocity":38,"Duration":348450,"SoundDuration":348450,"Delta":267235711},{"NoteNumber":79,"Velocity":45,"Duration":348450,"SoundDuration":348450,"Delta":267235711},{"NoteNumber":67,"Velocity":45,"Duration":331288,"SoundDuration":331288,"Delta":267624978},{"NoteNumber":79,"Velocity":53,"Duration":331288,"SoundDuration":331288,"Delta":267624978},{"NoteNumber":71,"Velocity":53,"Duration":331288,"SoundDuration":331288,"Delta":267624978},{"NoteNumber":43,"Velocity":45,"Duration":92024,"SoundDuration":92024,"Delta":267624978},{"NoteNumber":55,"Velocity":35,"Duration":184048,"SoundDuration":184048,"Delta":267809027},{"NoteNumber":71,"Velocity":41,"Duration":319526,"SoundDuration":319526,"Delta":267993076},{"NoteNumber":67,"Velocity":35,"Duration":319526,"SoundDuration":319526,"Delta":267993076},{"NoteNumber":59,"Velocity":38,"Duration":177514,"SoundDuration":177514,"Delta":267993076},{"NoteNumber":55,"Velocity":37,"Duration":177514,"SoundDuration":177514,"Delta":268170591},{"NoteNumber":71,"Velocity":44,"Duration":319526,"SoundDuration":319526,"Delta":268348106},{"NoteNumber":67,"Velocity":37,"Duration":319526,"SoundDuration":319526,"Delta":268348106},{"NoteNumber":62,"Velocity":42,"Duration":177514,"SoundDuration":177514,"Delta":268348106},{"NoteNumber":55,"Velocity":32,"Duration":177514,"SoundDuration":177514,"Delta":268525620},{"NoteNumber":71,"Velocity":41,"Duration":343031,"SoundDuration":343031,"Delta":268703135},{"NoteNumber":67,"Velocity":35,"Duration":343031,"SoundDuration":343031,"Delta":268703135},{"NoteNumber":59,"Velocity":36,"Duration":177514,"SoundDuration":177514,"Delta":268703135},{"NoteNumber":55,"Velocity":36,"Duration":206896,"SoundDuration":206896,"Delta":268880650},{"NoteNumber":67,"Velocity":44,"Duration":323353,"SoundDuration":323353,"Delta":269087546},{"NoteNumber":79,"Velocity":52,"Duration":323353,"SoundDuration":323353,"Delta":269087546},{"NoteNumber":70,"Velocity":44,"Duration":323353,"SoundDuration":323353,"Delta":269087546},{"NoteNumber":43,"Velocity":49,"Duration":89820,"SoundDuration":89820,"Delta":269087546},{"NoteNumber":55,"Velocity":33,"Duration":179640,"SoundDuration":179640,"Delta":269267187},{"NoteNumber":73,"Velocity":42,"Duration":323353,"SoundDuration":323353,"Delta":269446828},{"NoteNumber":70,"Velocity":36,"Duration":323353,"SoundDuration":323353,"Delta":269446828},{"NoteNumber":67,"Velocity":36,"Duration":323353,"SoundDuration":323353,"Delta":269446828},{"NoteNumber":58,"Velocity":36,"Duration":179640,"SoundDuration":179640,"Delta":269446828},{"NoteNumber":55,"Velocity":33,"Duration":179640,"SoundDuration":179640,"Delta":269626469},{"NoteNumber":67,"Velocity":38,"Duration":323353,"SoundDuration":323353,"Delta":269806109},{"NoteNumber":70,"Velocity":38,"Duration":323353,"SoundDuration":323353,"Delta":269806109},{"NoteNumber":73,"Velocity":45,"Duration":323353,"SoundDuration":323353,"Delta":269806109},{"NoteNumber":64,"Velocity":42,"Duration":179640,"SoundDuration":179640,"Delta":269806109},{"NoteNumber":55,"Velocity":35,"Duration":179640,"SoundDuration":179640,"Delta":269985750},{"NoteNumber":67,"Velocity":36,"Duration":393926,"SoundDuration":393926,"Delta":270165391},{"NoteNumber":73,"Velocity":42,"Duration":393926,"SoundDuration":393926,"Delta":270165391},{"NoteNumber":70,"Velocity":36,"Duration":393926,"SoundDuration":393926,"Delta":270165391},{"NoteNumber":58,"Velocity":37,"Duration":179640,"SoundDuration":179640,"Delta":270165391},{"NoteNumber":55,"Velocity":35,"Duration":267857,"SoundDuration":267857,"Delta":270345032},{"NoteNumber":67,"Velocity":48,"Duration":1425725,"SoundDuration":1425725,"Delta":270612889},{"NoteNumber":71,"Velocity":48,"Duration":1425725,"SoundDuration":1425725,"Delta":270612889},{"NoteNumber":74,"Velocity":57,"Duration":1425725,"SoundDuration":1425725,"Delta":270612889},{"NoteNumber":43,"Velocity":45,"Duration":98684,"SoundDuration":98684,"Delta":270612889},{"NoteNumber":55,"Velocity":36,"Duration":177514,"SoundDuration":177514,"Delta":270810257},{"NoteNumber":59,"Velocity":38,"Duration":177514,"SoundDuration":177514,"Delta":270987772},{"NoteNumber":55,"Velocity":36,"Duration":177514,"SoundDuration":177514,"Delta":271165287},{"NoteNumber":62,"Velocity":42,"Duration":172413,"SoundDuration":172413,"Delta":271342802},{"NoteNumber":55,"Velocity":36,"Duration":172413,"SoundDuration":172413,"Delta":271515215},{"NoteNumber":59,"Velocity":36,"Duration":172413,"SoundDuration":172413,"Delta":271687629},{"NoteNumber":55,"Velocity":33,"Duration":178571,"SoundDuration":178571,"Delta":271860043},{"NoteNumber":67,"Velocity":42,"Duration":339622,"SoundDuration":339622,"Delta":272038614},{"NoteNumber":71,"Velocity":42,"Duration":339622,"SoundDuration":339622,"Delta":272038614},{"NoteNumber":76,"Velocity":50,"Duration":339622,"SoundDuration":339622,"Delta":272038614},{"NoteNumber":64,"Velocity":35,"Duration":339622,"SoundDuration":339622,"Delta":272038614},{"NoteNumber":74,"Velocity":45,"Duration":331288,"SoundDuration":331288,"Delta":272415973},{"NoteNumber":71,"Velocity":38,"Duration":331288,"SoundDuration":331288,"Delta":272415973},{"NoteNumber":67,"Velocity":38,"Duration":331288,"SoundDuration":331288,"Delta":272415973},{"NoteNumber":62,"Velocity":32,"Duration":331288,"SoundDuration":331288,"Delta":272415973},{"NoteNumber":67,"Velocity":38,"Duration":331288,"SoundDuration":331288,"Delta":272784071},{"NoteNumber":71,"Velocity":45,"Duration":331288,"SoundDuration":331288,"Delta":272784071},{"NoteNumber":59,"Velocity":32,"Duration":331288,"SoundDuration":331288,"Delta":272784071},{"NoteNumber":67,"Velocity":45,"Duration":347314,"SoundDuration":347314,"Delta":273152169},{"NoteNumber":55,"Velocity":38,"Duration":347314,"SoundDuration":347314,"Delta":273152169},{"NoteNumber":62,"Velocity":45,"Duration":331288,"SoundDuration":331288,"Delta":273540300},{"NoteNumber":71,"Velocity":53,"Duration":331288,"SoundDuration":331288,"Delta":273540300},{"NoteNumber":67,"Velocity":53,"Duration":331288,"SoundDuration":331288,"Delta":273540300},{"NoteNumber":38,"Velocity":45,"Duration":92024,"SoundDuration":92024,"Delta":273540300},{"NoteNumber":50,"Velocity":37,"Duration":184048,"SoundDuration":184048,"Delta":273724349},{"NoteNumber":66,"Velocity":35,"Duration":355029,"SoundDuration":355029,"Delta":273908398},{"NoteNumber":69,"Velocity":41,"Duration":319526,"SoundDuration":319526,"Delta":273908398},{"NoteNumber":62,"Velocity":35,"Duration":319526,"SoundDuration":319526,"Delta":273908398},{"NoteNumber":54,"Velocity":38,"Duration":177514,"SoundDuration":177514,"Delta":273908398},{"NoteNumber":50,"Velocity":36,"Duration":177514,"SoundDuration":177514,"Delta":274085912},{"NoteNumber":69,"Velocity":44,"Duration":323353,"SoundDuration":323353,"Delta":274263427},{"NoteNumber":66,"Velocity":37,"Duration":359281,"SoundDuration":359281,"Delta":274263427},{"NoteNumber":62,"Velocity":37,"Duration":323353,"SoundDuration":323353,"Delta":274263427},{"NoteNumber":57,"Velocity":42,"Duration":179640,"SoundDuration":179640,"Delta":274263427},{"NoteNumber":50,"Velocity":34,"Duration":179640,"SoundDuration":179640,"Delta":274443068},{"NoteNumber":62,"Velocity":35,"Duration":345157,"SoundDuration":345157,"Delta":274622709},{"NoteNumber":66,"Velocity":35,"Duration":386537,"SoundDuration":386537,"Delta":274622709},{"NoteNumber":69,"Velocity":41,"Duration":345157,"SoundDuration":345157,"Delta":274622709},{"NoteNumber":54,"Velocity":36,"Duration":179640,"SoundDuration":179640,"Delta":274622709},{"NoteNumber":50,"Velocity":34,"Duration":206896,"SoundDuration":206896,"Delta":274802349},{"NoteNumber":67,"Velocity":44,"Duration":323353,"SoundDuration":323353,"Delta":275009246},{"NoteNumber":70,"Velocity":44,"Duration":323353,"SoundDuration":323353,"Delta":275009246},{"NoteNumber":76,"Velocity":52,"Duration":323353,"SoundDuration":323353,"Delta":275009246},{"NoteNumber":45,"Velocity":49,"Duration":89820,"SoundDuration":89820,"Delta":275009246},{"NoteNumber":52,"Velocity":33,"Duration":179640,"SoundDuration":179640,"Delta":275188887},{"NoteNumber":67,"Velocity":36,"Duration":323353,"SoundDuration":323353,"Delta":275368527},{"NoteNumber":73,"Velocity":42,"Duration":323353,"SoundDuration":323353,"Delta":275368527},{"NoteNumber":70,"Velocity":36,"Duration":323353,"SoundDuration":323353,"Delta":275368527},{"NoteNumber":55,"Velocity":36,"Duration":179640,"SoundDuration":179640,"Delta":275368527},{"NoteNumber":52,"Velocity":33,"Duration":179640,"SoundDuration":179640,"Delta":275548168},{"NoteNumber":67,"Velocity":38,"Duration":323353,"SoundDuration":323353,"Delta":275727809},{"NoteNumber":70,"Velocity":38,"Duration":323353,"SoundDuration":323353,"Delta":275727809},{"NoteNumber":73,"Velocity":45,"Duration":323353,"SoundDuration":323353,"Delta":275727809},{"NoteNumber":57,"Velocity":42,"Duration":179640,"SoundDuration":179640,"Delta":275727809},{"NoteNumber":52,"Velocity":34,"Duration":179640,"SoundDuration":179640,"Delta":275907450},{"NoteNumber":73,"Velocity":42,"Duration":357418,"SoundDuration":357418,"Delta":276087090},{"NoteNumber":70,"Velocity":36,"Duration":357418,"SoundDuration":357418,"Delta":276087090},{"NoteNumber":67,"Velocity":36,"Duration":357418,"SoundDuration":357418,"Delta":276087090},{"NoteNumber":55,"Velocity":37,"Duration":179640,"SoundDuration":179640,"Delta":276087090},{"NoteNumber":52,"Velocity":35,"Duration":222222,"SoundDuration":222222,"Delta":276266731},{"NoteNumber":74,"Velocity":57,"Duration":1425725,"SoundDuration":1425725,"Delta":276488953},{"NoteNumber":66,"Velocity":48,"Duration":1425725,"SoundDuration":1425725,"Delta":276488953},{"NoteNumber":69,"Velocity":48,"Duration":1425725,"SoundDuration":1425725,"Delta":276488953},{"NoteNumber":38,"Velocity":45,"Duration":98684,"SoundDuration":98684,"Delta":276488953},{"NoteNumber":50,"Velocity":37,"Duration":177514,"SoundDuration":177514,"Delta":276686322},{"NoteNumber":54,"Velocity":38,"Duration":177514,"SoundDuration":177514,"Delta":276863837},{"NoteNumber":50,"Velocity":37,"Duration":177514,"SoundDuration":177514,"Delta":277041351},{"NoteNumber":57,"Velocity":42,"Duration":172413,"SoundDuration":172413,"Delta":277218866},{"NoteNumber":50,"Velocity":35,"Duration":172413,"SoundDuration":172413,"Delta":277391280},{"NoteNumber":61,"Velocity":36,"Duration":172413,"SoundDuration":172413,"Delta":277563694},{"NoteNumber":50,"Velocity":33,"Duration":178571,"SoundDuration":178571,"Delta":277736107},{"NoteNumber":65,"Velocity":42,"Duration":333333,"SoundDuration":333333,"Delta":277914679},{"NoteNumber":74,"Velocity":50,"Duration":333333,"SoundDuration":333333,"Delta":277914679},{"NoteNumber":69,"Velocity":42,"Duration":333333,"SoundDuration":333333,"Delta":277914679},{"NoteNumber":62,"Velocity":35,"Duration":333333,"SoundDuration":333333,"Delta":277914679},{"NoteNumber":69,"Velocity":39,"Duration":323353,"SoundDuration":323353,"Delta":278285049},{"NoteNumber":65,"Velocity":39,"Duration":323353,"SoundDuration":323353,"Delta":278285049},{"NoteNumber":74,"Velocity":47,"Duration":323353,"SoundDuration":323353,"Delta":278285049},{"NoteNumber":62,"Velocity":33,"Duration":323353,"SoundDuration":323353,"Delta":278285049},{"NoteNumber":76,"Velocity":49,"Duration":323353,"SoundDuration":323353,"Delta":278644331},{"NoteNumber":69,"Velocity":41,"Duration":323353,"SoundDuration":323353,"Delta":278644331},{"NoteNumber":65,"Velocity":41,"Duration":323353,"SoundDuration":323353,"Delta":278644331},{"NoteNumber":64,"Velocity":35,"Duration":323353,"SoundDuration":323353,"Delta":278644331},{"NoteNumber":77,"Velocity":51,"Duration":342906,"SoundDuration":342906,"Delta":279003612},{"NoteNumber":69,"Velocity":43,"Duration":342906,"SoundDuration":342906,"Delta":279003612},{"NoteNumber":65,"Velocity":36,"Duration":342906,"SoundDuration":342906,"Delta":279003612},{"NoteNumber":77,"Velocity":53,"Duration":331288,"SoundDuration":331288,"Delta":279387335},{"NoteNumber":68,"Velocity":53,"Duration":331288,"SoundDuration":331288,"Delta":279387335},{"NoteNumber":64,"Velocity":45,"Duration":331288,"SoundDuration":331288,"Delta":279387335},{"NoteNumber":40,"Velocity":45,"Duration":92024,"SoundDuration":92024,"Delta":279387335},{"NoteNumber":52,"Velocity":35,"Duration":184048,"SoundDuration":184048,"Delta":279571384},{"NoteNumber":68,"Velocity":37,"Duration":355029,"SoundDuration":355029,"Delta":279755433},{"NoteNumber":71,"Velocity":44,"Duration":319526,"SoundDuration":319526,"Delta":279755433},{"NoteNumber":64,"Velocity":37,"Duration":319526,"SoundDuration":319526,"Delta":279755433},{"NoteNumber":56,"Velocity":38,"Duration":177514,"SoundDuration":177514,"Delta":279755433},{"NoteNumber":52,"Velocity":38,"Duration":177514,"SoundDuration":177514,"Delta":279932948},{"NoteNumber":68,"Velocity":37,"Duration":355029,"SoundDuration":355029,"Delta":280110462},{"NoteNumber":64,"Velocity":37,"Duration":319526,"SoundDuration":319526,"Delta":280110462},{"NoteNumber":71,"Velocity":44,"Duration":319526,"SoundDuration":319526,"Delta":280110462},{"NoteNumber":62,"Velocity":42,"Duration":177514,"SoundDuration":177514,"Delta":280110462},{"NoteNumber":52,"Velocity":34,"Duration":177514,"SoundDuration":177514,"Delta":280287977},{"NoteNumber":68,"Velocity":37,"Duration":384411,"SoundDuration":384411,"Delta":280465492},{"NoteNumber":71,"Velocity":44,"Duration":343031,"SoundDuration":343031,"Delta":280465492},{"NoteNumber":64,"Velocity":37,"Duration":343031,"SoundDuration":343031,"Delta":280465492},{"NoteNumber":56,"Velocity":36,"Duration":177514,"SoundDuration":177514,"Delta":280465492},{"NoteNumber":52,"Velocity":36,"Duration":206896,"SoundDuration":206896,"Delta":280643007},{"NoteNumber":64,"Velocity":44,"Duration":323353,"SoundDuration":323353,"Delta":280849903},{"NoteNumber":69,"Velocity":44,"Duration":323353,"SoundDuration":323353,"Delta":280849903},{"NoteNumber":72,"Velocity":52,"Duration":323353,"SoundDuration":323353,"Delta":280849903},{"NoteNumber":45,"Velocity":49,"Duration":89820,"SoundDuration":89820,"Delta":280849903},{"NoteNumber":52,"Velocity":37,"Duration":179640,"SoundDuration":179640,"Delta":281029544},{"NoteNumber":72,"Velocity":45,"Duration":323353,"SoundDuration":323353,"Delta":281209185},{"NoteNumber":69,"Velocity":38,"Duration":323353,"SoundDuration":323353,"Delta":281209185},{"NoteNumber":64,"Velocity":38,"Duration":323353,"SoundDuration":323353,"Delta":281209185},{"NoteNumber":57,"Velocity":36,"Duration":179640,"SoundDuration":179640,"Delta":281209185},{"NoteNumber":52,"Velocity":36,"Duration":179640,"SoundDuration":179640,"Delta":281388825},{"NoteNumber":64,"Velocity":39,"Duration":323353,"SoundDuration":323353,"Delta":281568466},{"NoteNumber":74,"Velocity":46,"Duration":323353,"SoundDuration":323353,"Delta":281568466},{"NoteNumber":69,"Velocity":39,"Duration":323353,"SoundDuration":323353,"Delta":281568466},{"NoteNumber":60,"Velocity":46,"Duration":179640,"SoundDuration":179640,"Delta":281568466},{"NoteNumber":52,"Velocity":39,"Duration":179640,"SoundDuration":179640,"Delta":281748107},{"NoteNumber":64,"Velocity":40,"Duration":345157,"SoundDuration":345157,"Delta":281927748},{"NoteNumber":67,"Velocity":40,"Duration":345157,"SoundDuration":345157,"Delta":281927748},{"NoteNumber":76,"Velocity":48,"Duration":345157,"SoundDuration":345157,"Delta":281927748},{"NoteNumber":59,"Velocity":40,"Duration":179640,"SoundDuration":179640,"Delta":281927748},{"NoteNumber":52,"Velocity":42,"Duration":206896,"SoundDuration":206896,"Delta":282107388},{"NoteNumber":66,"Velocity":53,"Duration":331288,"SoundDuration":331288,"Delta":282314285},{"NoteNumber":76,"Velocity":53,"Duration":331288,"SoundDuration":331288,"Delta":282314285},{"NoteNumber":62,"Velocity":45,"Duration":331288,"SoundDuration":331288,"Delta":282314285},{"NoteNumber":38,"Velocity":45,"Duration":92024,"SoundDuration":92024,"Delta":282314285},{"NoteNumber":50,"Velocity":35,"Duration":184048,"SoundDuration":184048,"Delta":282498334},{"NoteNumber":66,"Velocity":33,"Duration":355029,"SoundDuration":355029,"Delta":282682383},{"NoteNumber":62,"Velocity":33,"Duration":319526,"SoundDuration":319526,"Delta":282682383},{"NoteNumber":69,"Velocity":39,"Duration":319526,"SoundDuration":319526,"Delta":282682383},{"NoteNumber":54,"Velocity":38,"Duration":177514,"SoundDuration":177514,"Delta":282682383},{"NoteNumber":50,"Velocity":36,"Duration":177514,"SoundDuration":177514,"Delta":282859898},{"NoteNumber":62,"Velocity":37,"Duration":323353,"SoundDuration":323353,"Delta":283037412},{"NoteNumber":66,"Velocity":37,"Duration":359281,"SoundDuration":359281,"Delta":283037412},{"NoteNumber":69,"Velocity":44,"Duration":323353,"SoundDuration":323353,"Delta":283037412},{"NoteNumber":60,"Velocity":42,"Duration":179640,"SoundDuration":179640,"Delta":283037412},{"NoteNumber":50,"Velocity":33,"Duration":179640,"SoundDuration":179640,"Delta":283217053},{"NoteNumber":66,"Velocity":33,"Duration":386537,"SoundDuration":386537,"Delta":283396694},{"NoteNumber":69,"Velocity":39,"Duration":345157,"SoundDuration":345157,"Delta":283396694},{"NoteNumber":62,"Velocity":33,"Duration":345157,"SoundDuration":345157,"Delta":283396694},{"NoteNumber":54,"Velocity":36,"Duration":179640,"SoundDuration":179640,"Delta":283396694},{"NoteNumber":50,"Velocity":34,"Duration":206896,"SoundDuration":206896,"Delta":283576335},{"NoteNumber":62,"Velocity":44,"Duration":346153,"SoundDuration":346153,"Delta":283783231},{"NoteNumber":71,"Velocity":52,"Duration":346153,"SoundDuration":346153,"Delta":283783231},{"NoteNumber":67,"Velocity":44,"Duration":346153,"SoundDuration":346153,"Delta":283783231},{"NoteNumber":55,"Velocity":42,"Duration":192307,"SoundDuration":192307,"Delta":283783231},{"NoteNumber":50,"Velocity":40,"Duration":192307,"SoundDuration":192307,"Delta":283975539},{"NoteNumber":76,"Velocity":54,"Duration":321428,"SoundDuration":321428,"Delta":284167847},{"NoteNumber":67,"Velocity":45,"Duration":321428,"SoundDuration":321428,"Delta":284167847},{"NoteNumber":62,"Velocity":45,"Duration":321428,"SoundDuration":321428,"Delta":284167847},{"NoteNumber":60,"Velocity":47,"Duration":178571,"SoundDuration":178571,"Delta":284167847},{"NoteNumber":50,"Velocity":42,"Duration":178571,"SoundDuration":178571,"Delta":284346418},{"NoteNumber":62,"Velocity":43,"Duration":321428,"SoundDuration":321428,"Delta":284524990},{"NoteNumber":67,"Velocity":43,"Duration":321428,"SoundDuration":321428,"Delta":284524990},{"NoteNumber":74,"Velocity":51,"Duration":321428,"SoundDuration":321428,"Delta":284524990},{"NoteNumber":59,"Velocity":47,"Duration":178571,"SoundDuration":178571,"Delta":284524990},{"NoteNumber":50,"Velocity":40,"Duration":178571,"SoundDuration":178571,"Delta":284703561},{"NoteNumber":62,"Velocity":40,"Duration":356349,"SoundDuration":356349,"Delta":284882133},{"NoteNumber":71,"Velocity":48,"Duration":356349,"SoundDuration":356349,"Delta":284882133},{"NoteNumber":67,"Velocity":40,"Duration":356349,"SoundDuration":356349,"Delta":284882133},{"NoteNumber":55,"Velocity":39,"Duration":178571,"SoundDuration":178571,"Delta":284882133},{"NoteNumber":50,"Velocity":38,"Duration":222222,"SoundDuration":222222,"Delta":285060704},{"NoteNumber":66,"Velocity":53,"Duration":331288,"SoundDuration":331288,"Delta":285282926},{"NoteNumber":62,"Velocity":45,"Duration":331288,"SoundDuration":331288,"Delta":285282926},{"NoteNumber":74,"Velocity":53,"Duration":331288,"SoundDuration":331288,"Delta":285282926},{"NoteNumber":38,"Velocity":45,"Duration":92024,"SoundDuration":92024,"Delta":285282926},{"NoteNumber":50,"Velocity":37,"Duration":184048,"SoundDuration":184048,"Delta":285466975},{"NoteNumber":62,"Velocity":33,"Duration":319526,"SoundDuration":319526,"Delta":285651024},{"NoteNumber":66,"Velocity":33,"Duration":355029,"SoundDuration":355029,"Delta":285651024},{"NoteNumber":69,"Velocity":39,"Duration":319526,"SoundDuration":319526,"Delta":285651024},{"NoteNumber":54,"Velocity":38,"Duration":177514,"SoundDuration":177514,"Delta":285651024},{"NoteNumber":50,"Velocity":35,"Duration":177514,"SoundDuration":177514,"Delta":285828539},{"NoteNumber":66,"Velocity":33,"Duration":359281,"SoundDuration":359281,"Delta":286006054},{"NoteNumber":69,"Velocity":39,"Duration":323353,"SoundDuration":323353,"Delta":286006054},{"NoteNumber":62,"Velocity":33,"Duration":323353,"SoundDuration":323353,"Delta":286006054},{"NoteNumber":60,"Velocity":42,"Duration":179640,"SoundDuration":179640,"Delta":286006054},{"NoteNumber":50,"Velocity":34,"Duration":179640,"SoundDuration":179640,"Delta":286185695},{"NoteNumber":62,"Velocity":33,"Duration":345157,"SoundDuration":345157,"Delta":286365335},{"NoteNumber":66,"Velocity":33,"Duration":386537,"SoundDuration":386537,"Delta":286365335},{"NoteNumber":69,"Velocity":39,"Duration":345157,"SoundDuration":345157,"Delta":286365335},{"NoteNumber":54,"Velocity":36,"Duration":179640,"SoundDuration":179640,"Delta":286365335},{"NoteNumber":50,"Velocity":34,"Duration":206896,"SoundDuration":206896,"Delta":286544976},{"NoteNumber":71,"Velocity":52,"Duration":341772,"SoundDuration":341772,"Delta":286751873},{"NoteNumber":67,"Velocity":44,"Duration":341772,"SoundDuration":341772,"Delta":286751873},{"NoteNumber":62,"Velocity":44,"Duration":341772,"SoundDuration":341772,"Delta":286751873},{"NoteNumber":55,"Velocity":42,"Duration":189873,"SoundDuration":189873,"Delta":286751873},{"NoteNumber":50,"Velocity":44,"Duration":189873,"SoundDuration":189873,"Delta":286941746},{"NoteNumber":76,"Velocity":54,"Duration":321428,"SoundDuration":321428,"Delta":287131620},{"NoteNumber":67,"Velocity":45,"Duration":321428,"SoundDuration":321428,"Delta":287131620},{"NoteNumber":62,"Velocity":45,"Duration":321428,"SoundDuration":321428,"Delta":287131620},{"NoteNumber":60,"Velocity":43,"Duration":178571,"SoundDuration":178571,"Delta":287131620},{"NoteNumber":50,"Velocity":42,"Duration":178571,"SoundDuration":178571,"Delta":287310191},{"NoteNumber":74,"Velocity":51,"Duration":321428,"SoundDuration":321428,"Delta":287488763},{"NoteNumber":62,"Velocity":43,"Duration":321428,"SoundDuration":321428,"Delta":287488763},{"NoteNumber":67,"Velocity":43,"Duration":321428,"SoundDuration":321428,"Delta":287488763},{"NoteNumber":59,"Velocity":47,"Duration":178571,"SoundDuration":178571,"Delta":287488763},{"NoteNumber":50,"Velocity":40,"Duration":178571,"SoundDuration":178571,"Delta":287667334},{"NoteNumber":62,"Velocity":40,"Duration":356349,"SoundDuration":356349,"Delta":287845906},{"NoteNumber":67,"Velocity":40,"Duration":356349,"SoundDuration":356349,"Delta":287845906},{"NoteNumber":71,"Velocity":48,"Duration":356349,"SoundDuration":356349,"Delta":287845906},{"NoteNumber":55,"Velocity":39,"Duration":178571,"SoundDuration":178571,"Delta":287845906},{"NoteNumber":50,"Velocity":38,"Duration":222222,"SoundDuration":222222,"Delta":288024477},{"NoteNumber":66,"Velocity":39,"Duration":362416,"SoundDuration":362416,"Delta":288246699},{"NoteNumber":62,"Velocity":39,"Duration":362416,"SoundDuration":362416,"Delta":288246699},{"NoteNumber":74,"Velocity":47,"Duration":362416,"SoundDuration":362416,"Delta":288246699},{"NoteNumber":38,"Velocity":45,"Duration":100671,"SoundDuration":100671,"Delta":288246699},{"NoteNumber":50,"Velocity":38,"Duration":201342,"SoundDuration":201342,"Delta":288448042},{"NoteNumber":62,"Velocity":34,"Duration":346153,"SoundDuration":346153,"Delta":288649384},{"NoteNumber":66,"Velocity":34,"Duration":384615,"SoundDuration":384615,"Delta":288649384},{"NoteNumber":69,"Velocity":40,"Duration":346153,"SoundDuration":346153,"Delta":288649384},{"NoteNumber":54,"Velocity":38,"Duration":192307,"SoundDuration":192307,"Delta":288649384},{"NoteNumber":50,"Velocity":38,"Duration":192307,"SoundDuration":192307,"Delta":288841692},{"NoteNumber":69,"Velocity":30,"Duration":389329,"SoundDuration":389329,"Delta":289033999},{"NoteNumber":74,"Velocity":36,"Duration":389329,"SoundDuration":389329,"Delta":289033999},{"NoteNumber":66,"Velocity":30,"Duration":432588,"SoundDuration":432588,"Delta":289033999},{"NoteNumber":62,"Velocity":42,"Duration":216294,"SoundDuration":216294,"Delta":289033999},{"NoteNumber":50,"Velocity":29,"Duration":216294,"SoundDuration":216294,"Delta":289250294},{"NoteNumber":70,"Velocity":28,"Duration":470793,"SoundDuration":470793,"Delta":289466588},{"NoteNumber":74,"Velocity":33,"Duration":470793,"SoundDuration":470793,"Delta":289466588},{"NoteNumber":66,"Velocity":28,"Duration":523103,"SoundDuration":523103,"Delta":289466588},{"NoteNumber":60,"Velocity":36,"Duration":261551,"SoundDuration":261551,"Delta":289466588},{"NoteNumber":50,"Velocity":28,"Duration":261551,"SoundDuration":261551,"Delta":289728140},{"NoteNumber":71,"Velocity":37,"Duration":333333,"SoundDuration":333333,"Delta":289989691},{"NoteNumber":74,"Velocity":45,"Duration":333333,"SoundDuration":333333,"Delta":289989691},{"NoteNumber":67,"Velocity":37,"Duration":333333,"SoundDuration":333333,"Delta":289989691},{"NoteNumber":55,"Velocity":30,"Duration":370370,"SoundDuration":370370,"Delta":289989691},{"NoteNumber":59,"Velocity":36,"Duration":370370,"SoundDuration":370370,"Delta":289989691},{"NoteNumber":76,"Velocity":45,"Duration":333333,"SoundDuration":333333,"Delta":290360062},{"NoteNumber":71,"Velocity":38,"Duration":333333,"SoundDuration":333333,"Delta":290360062},{"NoteNumber":67,"Velocity":38,"Duration":333333,"SoundDuration":333333,"Delta":290360062},{"NoteNumber":71,"Velocity":38,"Duration":333333,"SoundDuration":333333,"Delta":290730432},{"NoteNumber":67,"Velocity":38,"Duration":333333,"SoundDuration":333333,"Delta":290730432},{"NoteNumber":78,"Velocity":45,"Duration":333333,"SoundDuration":333333,"Delta":290730432},{"NoteNumber":67,"Velocity":38,"Duration":348450,"SoundDuration":348450,"Delta":291100803},{"NoteNumber":79,"Velocity":45,"Duration":348450,"SoundDuration":348450,"Delta":291100803},{"NoteNumber":71,"Velocity":38,"Duration":348450,"SoundDuration":348450,"Delta":291100803},{"NoteNumber":71,"Velocity":53,"Duration":331288,"SoundDuration":331288,"Delta":291490070},{"NoteNumber":79,"Velocity":53,"Duration":331288,"SoundDuration":331288,"Delta":291490070},{"NoteNumber":67,"Velocity":45,"Duration":331288,"SoundDuration":331288,"Delta":291490070},{"NoteNumber":43,"Velocity":45,"Duration":92024,"SoundDuration":92024,"Delta":291490070},{"NoteNumber":55,"Velocity":35,"Duration":184048,"SoundDuration":184048,"Delta":291674119},{"NoteNumber":67,"Velocity":33,"Duration":319526,"SoundDuration":319526,"Delta":291858168},{"NoteNumber":71,"Velocity":39,"Duration":319526,"SoundDuration":319526,"Delta":291858168},{"NoteNumber":59,"Velocity":38,"Duration":177514,"SoundDuration":177514,"Delta":291858168},{"NoteNumber":55,"Velocity":36,"Duration":177514,"SoundDuration":177514,"Delta":292035683},{"NoteNumber":71,"Velocity":44,"Duration":319526,"SoundDuration":319526,"Delta":292213197},{"NoteNumber":67,"Velocity":37,"Duration":319526,"SoundDuration":319526,"Delta":292213197},{"NoteNumber":62,"Velocity":42,"Duration":177514,"SoundDuration":177514,"Delta":292213197},{"NoteNumber":55,"Velocity":34,"Duration":177514,"SoundDuration":177514,"Delta":292390712},{"NoteNumber":67,"Velocity":33,"Duration":343031,"SoundDuration":343031,"Delta":292568227},{"NoteNumber":71,"Velocity":39,"Duration":343031,"SoundDuration":343031,"Delta":292568227},{"NoteNumber":59,"Velocity":36,"Duration":177514,"SoundDuration":177514,"Delta":292568227},{"NoteNumber":55,"Velocity":34,"Duration":206896,"SoundDuration":206896,"Delta":292745742},{"NoteNumber":70,"Velocity":44,"Duration":323353,"SoundDuration":323353,"Delta":292952638},{"NoteNumber":67,"Velocity":44,"Duration":323353,"SoundDuration":323353,"Delta":292952638},{"NoteNumber":79,"Velocity":52,"Duration":323353,"SoundDuration":323353,"Delta":292952638},{"NoteNumber":43,"Velocity":49,"Duration":89820,"SoundDuration":89820,"Delta":292952638},{"NoteNumber":55,"Velocity":37,"Duration":179640,"SoundDuration":179640,"Delta":293132279},{"NoteNumber":67,"Velocity":34,"Duration":323353,"SoundDuration":323353,"Delta":293311920},{"NoteNumber":73,"Velocity":40,"Duration":323353,"SoundDuration":323353,"Delta":293311920},{"NoteNumber":70,"Velocity":34,"Duration":323353,"SoundDuration":323353,"Delta":293311920},{"NoteNumber":58,"Velocity":40,"Duration":179640,"SoundDuration":179640,"Delta":293311920},{"NoteNumber":55,"Velocity":36,"Duration":179640,"SoundDuration":179640,"Delta":293491560},{"NoteNumber":73,"Velocity":45,"Duration":323353,"SoundDuration":323353,"Delta":293671201},{"NoteNumber":67,"Velocity":38,"Duration":323353,"SoundDuration":323353,"Delta":293671201},{"NoteNumber":70,"Velocity":38,"Duration":323353,"SoundDuration":323353,"Delta":293671201},{"NoteNumber":64,"Velocity":42,"Duration":179640,"SoundDuration":179640,"Delta":293671201},{"NoteNumber":55,"Velocity":35,"Duration":179640,"SoundDuration":179640,"Delta":293850842},{"NoteNumber":67,"Velocity":38,"Duration":393926,"SoundDuration":393926,"Delta":294030483},{"NoteNumber":70,"Velocity":38,"Duration":393926,"SoundDuration":393926,"Delta":294030483},{"NoteNumber":73,"Velocity":45,"Duration":393926,"SoundDuration":393926,"Delta":294030483},{"NoteNumber":58,"Velocity":37,"Duration":179640,"SoundDuration":179640,"Delta":294030483},{"NoteNumber":55,"Velocity":35,"Duration":267857,"SoundDuration":267857,"Delta":294210123},{"NoteNumber":71,"Velocity":48,"Duration":1425725,"SoundDuration":1425725,"Delta":294477981},{"NoteNumber":74,"Velocity":57,"Duration":1425725,"SoundDuration":1425725,"Delta":294477981},{"NoteNumber":67,"Velocity":48,"Duration":1425725,"SoundDuration":1425725,"Delta":294477981},{"NoteNumber":43,"Velocity":45,"Duration":98684,"SoundDuration":98684,"Delta":294477981},{"NoteNumber":55,"Velocity":36,"Duration":177514,"SoundDuration":177514,"Delta":294675349},{"NoteNumber":59,"Velocity":38,"Duration":177514,"SoundDuration":177514,"Delta":294852864},{"NoteNumber":55,"Velocity":37,"Duration":177514,"SoundDuration":177514,"Delta":295030379},{"NoteNumber":62,"Velocity":45,"Duration":172413,"SoundDuration":172413,"Delta":295207893},{"NoteNumber":55,"Velocity":43,"Duration":172413,"SoundDuration":172413,"Delta":295380307},{"NoteNumber":59,"Velocity":46,"Duration":172413,"SoundDuration":172413,"Delta":295552721},{"NoteNumber":62,"Velocity":48,"Duration":178571,"SoundDuration":178571,"Delta":295725135},{"NoteNumber":67,"Velocity":51,"Duration":339622,"SoundDuration":339622,"Delta":295903706},{"NoteNumber":77,"Velocity":61,"Duration":339622,"SoundDuration":339622,"Delta":295903706},{"NoteNumber":71,"Velocity":51,"Duration":339622,"SoundDuration":339622,"Delta":295903706},{"NoteNumber":65,"Velocity":50,"Duration":339622,"SoundDuration":339622,"Delta":295903706},{"NoteNumber":71,"Velocity":44,"Duration":331288,"SoundDuration":331288,"Delta":296281065},{"NoteNumber":76,"Velocity":52,"Duration":331288,"SoundDuration":331288,"Delta":296281065},{"NoteNumber":67,"Velocity":44,"Duration":331288,"SoundDuration":331288,"Delta":296281065},{"NoteNumber":64,"Velocity":42,"Duration":331288,"SoundDuration":331288,"Delta":296281065},{"NoteNumber":67,"Velocity":48,"Duration":331288,"SoundDuration":331288,"Delta":296649163},{"NoteNumber":71,"Velocity":48,"Duration":368098,"SoundDuration":368098,"Delta":296649163},{"NoteNumber":77,"Velocity":57,"Duration":331288,"SoundDuration":331288,"Delta":296649163},{"NoteNumber":65,"Velocity":42,"Duration":331288,"SoundDuration":331288,"Delta":296649163},{"NoteNumber":79,"Velocity":52,"Duration":347314,"SoundDuration":347314,"Delta":297017261},{"NoteNumber":71,"Velocity":44,"Duration":388130,"SoundDuration":388130,"Delta":297017261},{"NoteNumber":67,"Velocity":47,"Duration":347314,"SoundDuration":347314,"Delta":297017261},{"NoteNumber":67,"Velocity":53,"Duration":331288,"SoundDuration":331288,"Delta":297405391},{"NoteNumber":77,"Velocity":63,"Duration":331288,"SoundDuration":331288,"Delta":297405391},{"NoteNumber":72,"Velocity":53,"Duration":331288,"SoundDuration":331288,"Delta":297405391},{"NoteNumber":48,"Velocity":51,"Duration":92024,"SoundDuration":92024,"Delta":297405391},{"NoteNumber":55,"Velocity":40,"Duration":184048,"SoundDuration":184048,"Delta":297589440},{"NoteNumber":72,"Velocity":43,"Duration":355029,"SoundDuration":355029,"Delta":297773489},{"NoteNumber":67,"Velocity":43,"Duration":319526,"SoundDuration":319526,"Delta":297773489},{"NoteNumber":76,"Velocity":52,"Duration":319526,"SoundDuration":319526,"Delta":297773489},{"NoteNumber":60,"Velocity":43,"Duration":177514,"SoundDuration":177514,"Delta":297773489},{"NoteNumber":55,"Velocity":40,"Duration":177514,"SoundDuration":177514,"Delta":297951004},{"NoteNumber":67,"Velocity":46,"Duration":359281,"SoundDuration":359281,"Delta":298128519},{"NoteNumber":74,"Velocity":55,"Duration":323353,"SoundDuration":323353,"Delta":298128519},{"NoteNumber":64,"Velocity":48,"Duration":179640,"SoundDuration":179640,"Delta":298128519},{"NoteNumber":55,"Velocity":38,"Duration":179640,"SoundDuration":179640,"Delta":298308160},{"NoteNumber":72,"Velocity":51,"Duration":345157,"SoundDuration":345157,"Delta":298487800},{"NoteNumber":64,"Velocity":42,"Duration":345157,"SoundDuration":345157,"Delta":298487800},{"NoteNumber":67,"Velocity":42,"Duration":386537,"SoundDuration":386537,"Delta":298487800},{"NoteNumber":60,"Velocity":41,"Duration":179640,"SoundDuration":179640,"Delta":298487800},{"NoteNumber":55,"Velocity":40,"Duration":206896,"SoundDuration":206896,"Delta":298667441},{"NoteNumber":62,"Velocity":50,"Duration":323353,"SoundDuration":323353,"Delta":298874338},{"NoteNumber":67,"Velocity":50,"Duration":323353,"SoundDuration":323353,"Delta":298874338},{"NoteNumber":72,"Velocity":59,"Duration":323353,"SoundDuration":323353,"Delta":298874338},{"NoteNumber":38,"Velocity":56,"Duration":89820,"SoundDuration":89820,"Delta":298874338},{"NoteNumber":50,"Velocity":39,"Duration":179640,"SoundDuration":179640,"Delta":299053978},{"NoteNumber":67,"Velocity":45,"Duration":349650,"SoundDuration":349650,"Delta":299233619},{"NoteNumber":71,"Velocity":53,"Duration":349650,"SoundDuration":349650,"Delta":299233619},{"NoteNumber":62,"Velocity":45,"Duration":349650,"SoundDuration":349650,"Delta":299233619},{"NoteNumber":55,"Velocity":41,"Duration":181818,"SoundDuration":181818,"Delta":299233619},{"NoteNumber":50,"Velocity":39,"Duration":209790,"SoundDuration":209790,"Delta":299415437},{"NoteNumber":62,"Velocity":47,"Duration":321428,"SoundDuration":321428,"Delta":299625228},{"NoteNumber":66,"Velocity":47,"Duration":321428,"SoundDuration":321428,"Delta":299625228},{"NoteNumber":74,"Velocity":56,"Duration":321428,"SoundDuration":321428,"Delta":299625228},{"NoteNumber":59,"Velocity":48,"Duration":178571,"SoundDuration":178571,"Delta":299625228},{"NoteNumber":50,"Velocity":40,"Duration":178571,"SoundDuration":178571,"Delta":299803799},{"NoteNumber":66,"Velocity":45,"Duration":356349,"SoundDuration":356349,"Delta":299982371},{"NoteNumber":62,"Velocity":45,"Duration":356349,"SoundDuration":356349,"Delta":299982371},{"NoteNumber":72,"Velocity":53,"Duration":356349,"SoundDuration":356349,"Delta":299982371},{"NoteNumber":57,"Velocity":42,"Duration":178571,"SoundDuration":178571,"Delta":299982371},{"NoteNumber":50,"Velocity":38,"Duration":222222,"SoundDuration":222222,"Delta":300160942},{"NoteNumber":62,"Velocity":51,"Duration":729912,"SoundDuration":729912,"Delta":300383164},{"NoteNumber":71,"Velocity":61,"Duration":729912,"SoundDuration":729912,"Delta":300383164},{"NoteNumber":67,"Velocity":51,"Duration":729912,"SoundDuration":729912,"Delta":300383164},{"NoteNumber":38,"Velocity":51,"Duration":98684,"SoundDuration":98684,"Delta":300383164},{"NoteNumber":50,"Velocity":40,"Duration":177514,"SoundDuration":177514,"Delta":300580533},{"NoteNumber":55,"Velocity":40,"Duration":177514,"SoundDuration":177514,"Delta":300758048},{"NoteNumber":50,"Velocity":38,"Duration":177514,"SoundDuration":177514,"Delta":300935562},{"NoteNumber":67,"Velocity":51,"Duration":344827,"SoundDuration":344827,"Delta":301113077},{"NoteNumber":71,"Velocity":51,"Duration":344827,"SoundDuration":344827,"Delta":301113077},{"NoteNumber":74,"Velocity":60,"Duration":344827,"SoundDuration":344827,"Delta":301113077},{"NoteNumber":55,"Velocity":51,"Duration":172413,"SoundDuration":172413,"Delta":301113077},{"NoteNumber":59,"Velocity":41,"Duration":172413,"SoundDuration":172413,"Delta":301285491},{"NoteNumber":76,"Velocity":62,"Duration":350985,"SoundDuration":350985,"Delta":301457905},{"NoteNumber":71,"Velocity":52,"Duration":350985,"SoundDuration":350985,"Delta":301457905},{"NoteNumber":67,"Velocity":52,"Duration":350985,"SoundDuration":350985,"Delta":301457905},{"NoteNumber":62,"Velocity":44,"Duration":172413,"SoundDuration":172413,"Delta":301457905},{"NoteNumber":64,"Velocity":41,"Duration":178571,"SoundDuration":178571,"Delta":301630318},{"NoteNumber":67,"Velocity":56,"Duration":333333,"SoundDuration":333333,"Delta":301808890},{"NoteNumber":71,"Velocity":56,"Duration":333333,"SoundDuration":333333,"Delta":301808890},{"NoteNumber":77,"Velocity":66,"Duration":333333,"SoundDuration":333333,"Delta":301808890},{"NoteNumber":65,"Velocity":51,"Duration":333333,"SoundDuration":333333,"Delta":301808890},{"NoteNumber":67,"Velocity":52,"Duration":323353,"SoundDuration":323353,"Delta":302179260},{"NoteNumber":71,"Velocity":52,"Duration":323353,"SoundDuration":323353,"Delta":302179260},{"NoteNumber":76,"Velocity":62,"Duration":323353,"SoundDuration":323353,"Delta":302179260},{"NoteNumber":64,"Velocity":40,"Duration":323353,"SoundDuration":323353,"Delta":302179260},{"NoteNumber":71,"Velocity":58,"Duration":317646,"SoundDuration":317646,"Delta":302538542},{"NoteNumber":67,"Velocity":58,"Duration":317646,"SoundDuration":317646,"Delta":302538542},{"NoteNumber":77,"Velocity":69,"Duration":176470,"SoundDuration":176470,"Delta":302538542},{"NoteNumber":65,"Velocity":42,"Duration":176470,"SoundDuration":176470,"Delta":302538542},{"NoteNumber":81,"Velocity":65,"Duration":176470,"SoundDuration":176470,"Delta":302715012},{"NoteNumber":69,"Velocity":39,"Duration":176470,"SoundDuration":176470,"Delta":302715012},{"NoteNumber":71,"Velocity":56,"Duration":339735,"SoundDuration":339735,"Delta":302891483},{"NoteNumber":79,"Velocity":66,"Duration":339735,"SoundDuration":339735,"Delta":302891483},{"NoteNumber":67,"Velocity":47,"Duration":339735,"SoundDuration":339735,"Delta":302891483},{"NoteNumber":77,"Velocity":66,"Duration":331288,"SoundDuration":331288,"Delta":303272035},{"NoteNumber":72,"Velocity":56,"Duration":331288,"SoundDuration":331288,"Delta":303272035},{"NoteNumber":67,"Velocity":56,"Duration":331288,"SoundDuration":331288,"Delta":303272035},{"NoteNumber":48,"Velocity":53,"Duration":92024,"SoundDuration":92024,"Delta":303272035},{"NoteNumber":55,"Velocity":40,"Duration":184048,"SoundDuration":184048,"Delta":303456084},{"NoteNumber":67,"Velocity":43,"Duration":319526,"SoundDuration":319526,"Delta":303640133},{"NoteNumber":72,"Velocity":43,"Duration":355029,"SoundDuration":355029,"Delta":303640133},{"NoteNumber":76,"Velocity":51,"Duration":319526,"SoundDuration":319526,"Delta":303640133},{"NoteNumber":60,"Velocity":42,"Duration":177514,"SoundDuration":177514,"Delta":303640133},{"NoteNumber":55,"Velocity":39,"Duration":177514,"SoundDuration":177514,"Delta":303817648},{"NoteNumber":74,"Velocity":50,"Duration":319526,"SoundDuration":319526,"Delta":303995163},{"NoteNumber":67,"Velocity":42,"Duration":355029,"SoundDuration":355029,"Delta":303995163},{"NoteNumber":65,"Velocity":42,"Duration":319526,"SoundDuration":319526,"Delta":303995163},{"NoteNumber":59,"Velocity":50,"Duration":177514,"SoundDuration":177514,"Delta":303995163},{"NoteNumber":55,"Velocity":36,"Duration":177514,"SoundDuration":177514,"Delta":304172677},{"NoteNumber":72,"Velocity":52,"Duration":343031,"SoundDuration":343031,"Delta":304350192},{"NoteNumber":67,"Velocity":44,"Duration":384411,"SoundDuration":384411,"Delta":304350192},{"NoteNumber":64,"Velocity":44,"Duration":343031,"SoundDuration":343031,"Delta":304350192},{"NoteNumber":60,"Velocity":39,"Duration":177514,"SoundDuration":177514,"Delta":304350192},{"NoteNumber":55,"Velocity":36,"Duration":206896,"SoundDuration":206896,"Delta":304527707},{"NoteNumber":62,"Velocity":53,"Duration":323353,"SoundDuration":323353,"Delta":304734603},{"NoteNumber":72,"Velocity":63,"Duration":323353,"SoundDuration":323353,"Delta":304734603},{"NoteNumber":67,"Velocity":53,"Duration":323353,"SoundDuration":323353,"Delta":304734603},{"NoteNumber":38,"Velocity":49,"Duration":89820,"SoundDuration":89820,"Delta":304734603},{"NoteNumber":50,"Velocity":35,"Duration":179640,"SoundDuration":179640,"Delta":304914244},{"NoteNumber":67,"Velocity":45,"Duration":323353,"SoundDuration":323353,"Delta":305093885},{"NoteNumber":62,"Velocity":45,"Duration":323353,"SoundDuration":323353,"Delta":305093885},{"NoteNumber":71,"Velocity":54,"Duration":323353,"SoundDuration":323353,"Delta":305093885},{"NoteNumber":55,"Velocity":36,"Duration":179640,"SoundDuration":179640,"Delta":305093885},{"NoteNumber":50,"Velocity":35,"Duration":179640,"SoundDuration":179640,"Delta":305273526},{"NoteNumber":62,"Velocity":47,"Duration":323353,"SoundDuration":323353,"Delta":305453166},{"NoteNumber":72,"Velocity":56,"Duration":323353,"SoundDuration":323353,"Delta":305453166},{"NoteNumber":66,"Velocity":47,"Duration":323353,"SoundDuration":323353,"Delta":305453166},{"NoteNumber":57,"Velocity":42,"Duration":179640,"SoundDuration":179640,"Delta":305453166},{"NoteNumber":50,"Velocity":36,"Duration":179640,"SoundDuration":179640,"Delta":305632807},{"NoteNumber":66,"Velocity":45,"Duration":345157,"SoundDuration":345157,"Delta":305812448},{"NoteNumber":71,"Velocity":53,"Duration":345157,"SoundDuration":345157,"Delta":305812448},{"NoteNumber":62,"Velocity":45,"Duration":345157,"SoundDuration":345157,"Delta":305812448},{"NoteNumber":60,"Velocity":37,"Duration":179640,"SoundDuration":179640,"Delta":305812448},{"NoteNumber":50,"Velocity":34,"Duration":206896,"SoundDuration":206896,"Delta":305992089},{"NoteNumber":62,"Velocity":38,"Duration":1468946,"SoundDuration":1468946,"Delta":306198985},{"NoteNumber":59,"Velocity":45,"Duration":1468946,"SoundDuration":1468946,"Delta":306198985},{"NoteNumber":67,"Velocity":53,"Duration":1468946,"SoundDuration":1468946,"Delta":306198985},{"NoteNumber":43,"Velocity":45,"Duration":92024,"SoundDuration":92024,"Delta":306198985},{"NoteNumber":50,"Velocity":36,"Duration":184048,"SoundDuration":184048,"Delta":306383034},{"NoteNumber":55,"Velocity":38,"Duration":177514,"SoundDuration":177514,"Delta":306567083},{"NoteNumber":50,"Velocity":37,"Duration":177514,"SoundDuration":177514,"Delta":306744598},{"NoteNumber":55,"Velocity":42,"Duration":179640,"SoundDuration":179640,"Delta":306922113},{"NoteNumber":50,"Velocity":36,"Duration":179640,"SoundDuration":179640,"Delta":307101753},{"NoteNumber":43,"Velocity":39,"Duration":179640,"SoundDuration":179640,"Delta":307281394},{"NoteNumber":45,"Velocity":36,"Duration":206896,"SoundDuration":206896,"Delta":307461035},{"NoteNumber":58,"Velocity":71,"Duration":147492,"SoundDuration":147492,"Delta":307667931},{"NoteNumber":46,"Velocity":56,"Duration":147492,"SoundDuration":147492,"Delta":307667931},{"NoteNumber":57,"Velocity":60,"Duration":147492,"SoundDuration":147492,"Delta":307815424},{"NoteNumber":45,"Velocity":48,"Duration":147492,"SoundDuration":147492,"Delta":307815424},{"NoteNumber":55,"Velocity":61,"Duration":147492,"SoundDuration":147492,"Delta":307962917},{"NoteNumber":43,"Velocity":48,"Duration":147492,"SoundDuration":147492,"Delta":307962917},{"NoteNumber":57,"Velocity":61,"Duration":147492,"SoundDuration":147492,"Delta":308110410},{"NoteNumber":45,"Velocity":48,"Duration":147492,"SoundDuration":147492,"Delta":308110410},{"NoteNumber":58,"Velocity":71,"Duration":143266,"SoundDuration":143266,"Delta":308257902},{"NoteNumber":46,"Velocity":56,"Duration":143266,"SoundDuration":143266,"Delta":308257902},{"NoteNumber":55,"Velocity":62,"Duration":143266,"SoundDuration":143266,"Delta":308401169},{"NoteNumber":43,"Velocity":49,"Duration":143266,"SoundDuration":143266,"Delta":308401169},{"NoteNumber":58,"Velocity":62,"Duration":143266,"SoundDuration":143266,"Delta":308544435},{"NoteNumber":46,"Velocity":49,"Duration":143266,"SoundDuration":143266,"Delta":308544435},{"NoteNumber":55,"Velocity":62,"Duration":146745,"SoundDuration":146745,"Delta":308687702},{"NoteNumber":43,"Velocity":49,"Duration":160085,"SoundDuration":160085,"Delta":308687702},{"NoteNumber":67,"Velocity":82,"Duration":303590,"SoundDuration":303590,"Delta":308847787},{"NoteNumber":55,"Velocity":65,"Duration":303590,"SoundDuration":303590,"Delta":308847787},{"NoteNumber":55,"Velocity":68,"Duration":151209,"SoundDuration":151209,"Delta":309164577},{"NoteNumber":43,"Velocity":51,"Duration":151209,"SoundDuration":151209,"Delta":309164577},{"NoteNumber":55,"Velocity":68,"Duration":151209,"SoundDuration":151209,"Delta":309466997},{"NoteNumber":43,"Velocity":52,"Duration":151209,"SoundDuration":151209,"Delta":309466997},{"NoteNumber":55,"Velocity":68,"Duration":159235,"SoundDuration":159235,"Delta":309769416},{"NoteNumber":43,"Velocity":52,"Duration":159235,"SoundDuration":159235,"Delta":309769416},{"NoteNumber":60,"Velocity":64,"Duration":277777,"SoundDuration":277777,"Delta":310087888},{"NoteNumber":67,"Velocity":76,"Duration":308642,"SoundDuration":308642,"Delta":310087888},{"NoteNumber":63,"Velocity":64,"Duration":308642,"SoundDuration":308642,"Delta":310087888},{"NoteNumber":39,"Velocity":62,"Duration":154320,"SoundDuration":154320,"Delta":310087888},{"NoteNumber":38,"Velocity":49,"Duration":154321,"SoundDuration":154321,"Delta":310242209},{"NoteNumber":55,"Velocity":62,"Duration":147492,"SoundDuration":147492,"Delta":310396530},{"NoteNumber":36,"Velocity":49,"Duration":147492,"SoundDuration":147492,"Delta":310396530},{"NoteNumber":38,"Velocity":49,"Duration":147492,"SoundDuration":147492,"Delta":310544023},{"NoteNumber":55,"Velocity":62,"Duration":150451,"SoundDuration":150451,"Delta":310691515},{"NoteNumber":39,"Velocity":63,"Duration":150451,"SoundDuration":150451,"Delta":310691515},{"NoteNumber":36,"Velocity":52,"Duration":150451,"SoundDuration":150451,"Delta":310841967},{"NoteNumber":55,"Velocity":62,"Duration":158394,"SoundDuration":158394,"Delta":310992418},{"NoteNumber":39,"Velocity":52,"Duration":158394,"SoundDuration":158394,"Delta":310992418},{"NoteNumber":36,"Velocity":50,"Duration":174013,"SoundDuration":174013,"Delta":311150813},{"NoteNumber":67,"Velocity":76,"Duration":328947,"SoundDuration":328947,"Delta":311324827},{"NoteNumber":58,"Velocity":64,"Duration":328947,"SoundDuration":328947,"Delta":311324827},{"NoteNumber":62,"Velocity":64,"Duration":328947,"SoundDuration":328947,"Delta":311324827},{"NoteNumber":43,"Velocity":65,"Duration":328947,"SoundDuration":328947,"Delta":311324827},{"NoteNumber":55,"Velocity":61,"Duration":155925,"SoundDuration":155925,"Delta":311653774},{"NoteNumber":31,"Velocity":48,"Duration":155925,"SoundDuration":155925,"Delta":311653774},{"NoteNumber":55,"Velocity":61,"Duration":155925,"SoundDuration":155925,"Delta":311965625},{"NoteNumber":31,"Velocity":48,"Duration":155925,"SoundDuration":155925,"Delta":311965625},{"NoteNumber":55,"Velocity":61,"Duration":155925,"SoundDuration":155925,"Delta":312277475},{"NoteNumber":31,"Velocity":48,"Duration":155925,"SoundDuration":155925,"Delta":312277475},{"NoteNumber":62,"Velocity":56,"Duration":147492,"SoundDuration":147492,"Delta":312589326},{"NoteNumber":74,"Velocity":81,"Duration":147492,"SoundDuration":147492,"Delta":312589326},{"NoteNumber":68,"Velocity":56,"Duration":147492,"SoundDuration":147492,"Delta":312589326},{"NoteNumber":53,"Velocity":56,"Duration":147492,"SoundDuration":147492,"Delta":312589326},{"NoteNumber":41,"Velocity":56,"Duration":147492,"SoundDuration":147492,"Delta":312589326},{"NoteNumber":73,"Velocity":69,"Duration":147492,"SoundDuration":147492,"Delta":312736819},{"NoteNumber":71,"Velocity":72,"Duration":147492,"SoundDuration":147492,"Delta":312884311},{"NoteNumber":62,"Velocity":57,"Duration":147492,"SoundDuration":147492,"Delta":312884311},{"NoteNumber":68,"Velocity":57,"Duration":147492,"SoundDuration":147492,"Delta":312884311},{"NoteNumber":56,"Velocity":49,"Duration":147492,"SoundDuration":147492,"Delta":312884311},{"NoteNumber":44,"Velocity":57,"Duration":147492,"SoundDuration":147492,"Delta":312884311},{"NoteNumber":73,"Velocity":73,"Duration":147492,"SoundDuration":147492,"Delta":313031804},{"NoteNumber":68,"Velocity":59,"Duration":143266,"SoundDuration":143266,"Delta":313179297},{"NoteNumber":65,"Velocity":59,"Duration":143266,"SoundDuration":143266,"Delta":313179297},{"NoteNumber":74,"Velocity":86,"Duration":143266,"SoundDuration":143266,"Delta":313179297},{"NoteNumber":47,"Velocity":59,"Duration":143266,"SoundDuration":143266,"Delta":313179297},{"NoteNumber":59,"Velocity":59,"Duration":143266,"SoundDuration":143266,"Delta":313179297},{"NoteNumber":71,"Velocity":77,"Duration":143266,"SoundDuration":143266,"Delta":313322563},{"NoteNumber":74,"Velocity":78,"Duration":143266,"SoundDuration":143266,"Delta":313465830},{"NoteNumber":68,"Velocity":62,"Duration":143266,"SoundDuration":143266,"Delta":313465830},{"NoteNumber":65,"Velocity":62,"Duration":143266,"SoundDuration":143266,"Delta":313465830},{"NoteNumber":50,"Velocity":62,"Duration":143266,"SoundDuration":143266,"Delta":313465830},{"NoteNumber":62,"Velocity":54,"Duration":143266,"SoundDuration":143266,"Delta":313465830},{"NoteNumber":71,"Velocity":80,"Duration":160085,"SoundDuration":160085,"Delta":313609096},{"NoteNumber":78,"Velocity":95,"Duration":316790,"SoundDuration":316790,"Delta":313769182},{"NoteNumber":66,"Velocity":81,"Duration":316790,"SoundDuration":316790,"Delta":313769182},{"NoteNumber":71,"Velocity":81,"Duration":316790,"SoundDuration":316790,"Delta":313769182},{"NoteNumber":74,"Velocity":81,"Duration":316790,"SoundDuration":316790,"Delta":313769182},{"NoteNumber":42,"Velocity":64,"Duration":316790,"SoundDuration":316790,"Delta":313769182},{"NoteNumber":50,"Velocity":64,"Duration":316790,"SoundDuration":316790,"Delta":313769182},{"NoteNumber":47,"Velocity":64,"Duration":316790,"SoundDuration":316790,"Delta":313769182},{"NoteNumber":54,"Velocity":75,"Duration":316790,"SoundDuration":316790,"Delta":313769182},{"NoteNumber":66,"Velocity":71,"Duration":151209,"SoundDuration":151209,"Delta":314085972},{"NoteNumber":62,"Velocity":59,"Duration":151209,"SoundDuration":151209,"Delta":314085972},{"NoteNumber":54,"Velocity":47,"Duration":151209,"SoundDuration":151209,"Delta":314085972},{"NoteNumber":59,"Velocity":56,"Duration":151209,"SoundDuration":151209,"Delta":314085972},{"NoteNumber":62,"Velocity":59,"Duration":151209,"SoundDuration":151209,"Delta":314388391},{"NoteNumber":66,"Velocity":71,"Duration":151209,"SoundDuration":151209,"Delta":314388391},{"NoteNumber":54,"Velocity":47,"Duration":151209,"SoundDuration":151209,"Delta":314388391},{"NoteNumber":59,"Velocity":56,"Duration":151209,"SoundDuration":151209,"Delta":314388391},{"NoteNumber":66,"Velocity":71,"Duration":159235,"SoundDuration":159235,"Delta":314690811},{"NoteNumber":62,"Velocity":59,"Duration":159235,"SoundDuration":159235,"Delta":314690811},{"NoteNumber":59,"Velocity":56,"Duration":159235,"SoundDuration":159235,"Delta":314690811},{"NoteNumber":54,"Velocity":47,"Duration":159235,"SoundDuration":159235,"Delta":314690811},{"NoteNumber":67,"Velocity":60,"Duration":147492,"SoundDuration":147492,"Delta":315009282},{"NoteNumber":61,"Velocity":47,"Duration":147492,"SoundDuration":147492,"Delta":315009282},{"NoteNumber":52,"Velocity":47,"Duration":147492,"SoundDuration":147492,"Delta":315009282},{"NoteNumber":59,"Velocity":47,"Duration":147492,"SoundDuration":147492,"Delta":315009282},{"NoteNumber":66,"Velocity":50,"Duration":147492,"SoundDuration":147492,"Delta":315156775},{"NoteNumber":69,"Velocity":51,"Duration":147492,"SoundDuration":147492,"Delta":315304268},{"NoteNumber":61,"Velocity":47,"Duration":147492,"SoundDuration":147492,"Delta":315304268},{"NoteNumber":52,"Velocity":47,"Duration":147492,"SoundDuration":147492,"Delta":315304268},{"NoteNumber":59,"Velocity":40,"Duration":147492,"SoundDuration":147492,"Delta":315304268},{"NoteNumber":67,"Velocity":51,"Duration":147492,"SoundDuration":147492,"Delta":315451761},{"NoteNumber":66,"Velocity":60,"Duration":153531,"SoundDuration":153531,"Delta":315599253},{"NoteNumber":64,"Velocity":47,"Duration":153531,"SoundDuration":153531,"Delta":315599253},{"NoteNumber":54,"Velocity":47,"Duration":153531,"SoundDuration":153531,"Delta":315599253},{"NoteNumber":58,"Velocity":47,"Duration":153531,"SoundDuration":153531,"Delta":315599253},{"NoteNumber":66,"Velocity":52,"Duration":168161,"SoundDuration":168161,"Delta":315906316},{"NoteNumber":64,"Velocity":47,"Duration":168161,"SoundDuration":168161,"Delta":315906316},{"NoteNumber":54,"Velocity":47,"Duration":168161,"SoundDuration":168161,"Delta":315906316},{"NoteNumber":58,"Velocity":41,"Duration":168161,"SoundDuration":168161,"Delta":315906316},{"NoteNumber":71,"Velocity":73,"Duration":156739,"SoundDuration":156739,"Delta":316240774},{"NoteNumber":59,"Velocity":62,"Duration":156739,"SoundDuration":156739,"Delta":316240774},{"NoteNumber":66,"Velocity":62,"Duration":156739,"SoundDuration":156739,"Delta":316240774},{"NoteNumber":62,"Velocity":62,"Duration":156739,"SoundDuration":156739,"Delta":316240774},{"NoteNumber":54,"Velocity":58,"Duration":156739,"SoundDuration":156739,"Delta":316240774},{"NoteNumber":47,"Velocity":49,"Duration":156739,"SoundDuration":156739,"Delta":316240774},{"NoteNumber":62,"Velocity":63,"Duration":174013,"SoundDuration":174013,"Delta":316554254},{"NoteNumber":50,"Velocity":50,"Duration":174013,"SoundDuration":174013,"Delta":316554254},{"NoteNumber":62,"Velocity":63,"Duration":184729,"SoundDuration":184729,"Delta":316902282},{"NoteNumber":57,"Velocity":63,"Duration":184729,"SoundDuration":184729,"Delta":316902282},{"NoteNumber":60,"Velocity":63,"Duration":184729,"SoundDuration":184729,"Delta":316902282},{"NoteNumber":66,"Velocity":75,"Duration":184729,"SoundDuration":184729,"Delta":316902282},{"NoteNumber":38,"Velocity":49,"Duration":184729,"SoundDuration":184729,"Delta":316902282},{"NoteNumber":50,"Velocity":59,"Duration":184729,"SoundDuration":184729,"Delta":316902282},{"NoteNumber":62,"Velocity":78,"Duration":204918,"SoundDuration":204918,"Delta":317271740},{"NoteNumber":50,"Velocity":62,"Duration":204918,"SoundDuration":204918,"Delta":317271740},{"NoteNumber":62,"Velocity":69,"Duration":147492,"SoundDuration":147492,"Delta":317681576},{"NoteNumber":58,"Velocity":69,"Duration":147492,"SoundDuration":147492,"Delta":317681576},{"NoteNumber":67,"Velocity":81,"Duration":147492,"SoundDuration":147492,"Delta":317681576},{"NoteNumber":46,"Velocity":64,"Duration":147492,"SoundDuration":147492,"Delta":317681576},{"NoteNumber":57,"Velocity":69,"Duration":147492,"SoundDuration":147492,"Delta":317829069},{"NoteNumber":45,"Velocity":55,"Duration":147492,"SoundDuration":147492,"Delta":317829069},{"NoteNumber":55,"Velocity":70,"Duration":147492,"SoundDuration":147492,"Delta":317976561},{"NoteNumber":43,"Velocity":55,"Duration":147492,"SoundDuration":147492,"Delta":317976561},{"NoteNumber":57,"Velocity":70,"Duration":147492,"SoundDuration":147492,"Delta":318124054},{"NoteNumber":45,"Velocity":55,"Duration":147492,"SoundDuration":147492,"Delta":318124054},{"NoteNumber":58,"Velocity":81,"Duration":143266,"SoundDuration":143266,"Delta":318271547},{"NoteNumber":46,"Velocity":64,"Duration":143266,"SoundDuration":143266,"Delta":318271547},{"NoteNumber":55,"Velocity":71,"Duration":143266,"SoundDuration":143266,"Delta":318414813},{"NoteNumber":43,"Velocity":56,"Duration":143266,"SoundDuration":143266,"Delta":318414813},{"NoteNumber":58,"Velocity":71,"Duration":143266,"SoundDuration":143266,"Delta":318558080},{"NoteNumber":46,"Velocity":56,"Duration":143266,"SoundDuration":143266,"Delta":318558080},{"NoteNumber":55,"Velocity":71,"Duration":146745,"SoundDuration":146745,"Delta":318701346},{"NoteNumber":43,"Velocity":56,"Duration":160085,"SoundDuration":160085,"Delta":318701346},{"NoteNumber":67,"Velocity":82,"Duration":303590,"SoundDuration":303590,"Delta":318861432},{"NoteNumber":55,"Velocity":65,"Duration":303590,"SoundDuration":303590,"Delta":318861432},{"NoteNumber":55,"Velocity":68,"Duration":151209,"SoundDuration":151209,"Delta":319178222},{"NoteNumber":43,"Velocity":51,"Duration":151209,"SoundDuration":151209,"Delta":319178222},{"NoteNumber":55,"Velocity":68,"Duration":151209,"SoundDuration":151209,"Delta":319480641},{"NoteNumber":43,"Velocity":52,"Duration":151209,"SoundDuration":151209,"Delta":319480641},{"NoteNumber":55,"Velocity":68,"Duration":159235,"SoundDuration":159235,"Delta":319783061},{"NoteNumber":43,"Velocity":52,"Duration":159235,"SoundDuration":159235,"Delta":319783061},{"NoteNumber":60,"Velocity":67,"Duration":154320,"SoundDuration":154320,"Delta":320101532},{"NoteNumber":67,"Velocity":79,"Duration":154320,"SoundDuration":154320,"Delta":320101532},{"NoteNumber":63,"Velocity":67,"Duration":154320,"SoundDuration":154320,"Delta":320101532},{"NoteNumber":39,"Velocity":62,"Duration":154320,"SoundDuration":154320,"Delta":320101532},{"NoteNumber":38,"Velocity":49,"Duration":154321,"SoundDuration":154321,"Delta":320255853},{"NoteNumber":55,"Velocity":62,"Duration":145843,"SoundDuration":145843,"Delta":320410174},{"NoteNumber":36,"Velocity":49,"Duration":145843,"SoundDuration":145843,"Delta":320410174},{"NoteNumber":38,"Velocity":49,"Duration":145843,"SoundDuration":145843,"Delta":320556018},{"NoteNumber":55,"Velocity":62,"Duration":150451,"SoundDuration":150451,"Delta":320701861},{"NoteNumber":39,"Velocity":63,"Duration":150451,"SoundDuration":150451,"Delta":320701861},{"NoteNumber":36,"Velocity":52,"Duration":150451,"SoundDuration":150451,"Delta":320852313},{"NoteNumber":55,"Velocity":62,"Duration":158394,"SoundDuration":158394,"Delta":321002764},{"NoteNumber":39,"Velocity":52,"Duration":158394,"SoundDuration":158394,"Delta":321002764},{"NoteNumber":36,"Velocity":50,"Duration":174013,"SoundDuration":174013,"Delta":321161159},{"NoteNumber":58,"Velocity":64,"Duration":328947,"SoundDuration":328947,"Delta":321335173},{"NoteNumber":62,"Velocity":64,"Duration":328947,"SoundDuration":328947,"Delta":321335173},{"NoteNumber":67,"Velocity":76,"Duration":328947,"SoundDuration":328947,"Delta":321335173},{"NoteNumber":43,"Velocity":65,"Duration":328947,"SoundDuration":328947,"Delta":321335173},{"NoteNumber":55,"Velocity":61,"Duration":155925,"SoundDuration":155925,"Delta":321664120},{"NoteNumber":31,"Velocity":48,"Duration":155925,"SoundDuration":155925,"Delta":321664120},{"NoteNumber":55,"Velocity":61,"Duration":155925,"SoundDuration":155925,"Delta":321975971},{"NoteNumber":31,"Velocity":48,"Duration":155925,"SoundDuration":155925,"Delta":321975971},{"NoteNumber":55,"Velocity":61,"Duration":155925,"SoundDuration":155925,"Delta":322287821},{"NoteNumber":31,"Velocity":48,"Duration":155925,"SoundDuration":155925,"Delta":322287821},{"NoteNumber":77,"Velocity":89,"Duration":147492,"SoundDuration":147492,"Delta":322599672},{"NoteNumber":65,"Velocity":61,"Duration":147492,"SoundDuration":147492,"Delta":322599672},{"NoteNumber":71,"Velocity":61,"Duration":147492,"SoundDuration":147492,"Delta":322599672},{"NoteNumber":32,"Velocity":61,"Duration":147492,"SoundDuration":147492,"Delta":322599672},{"NoteNumber":44,"Velocity":61,"Duration":147492,"SoundDuration":147492,"Delta":322599672},{"NoteNumber":76,"Velocity":75,"Duration":147492,"SoundDuration":147492,"Delta":322747165},{"NoteNumber":65,"Velocity":62,"Duration":147492,"SoundDuration":147492,"Delta":322894657},{"NoteNumber":71,"Velocity":62,"Duration":147492,"SoundDuration":147492,"Delta":322894657},{"NoteNumber":74,"Velocity":79,"Duration":147492,"SoundDuration":147492,"Delta":322894657},{"NoteNumber":47,"Velocity":53,"Duration":147492,"SoundDuration":147492,"Delta":322894657},{"NoteNumber":35,"Velocity":62,"Duration":147492,"SoundDuration":147492,"Delta":322894657},{"NoteNumber":76,"Velocity":80,"Duration":147492,"SoundDuration":147492,"Delta":323042150},{"NoteNumber":71,"Velocity":64,"Duration":143266,"SoundDuration":143266,"Delta":323189643},{"NoteNumber":77,"Velocity":94,"Duration":143266,"SoundDuration":143266,"Delta":323189643},{"NoteNumber":68,"Velocity":64,"Duration":143266,"SoundDuration":143266,"Delta":323189643},{"NoteNumber":50,"Velocity":64,"Duration":143266,"SoundDuration":143266,"Delta":323189643},{"NoteNumber":38,"Velocity":64,"Duration":143266,"SoundDuration":143266,"Delta":323189643},{"NoteNumber":74,"Velocity":84,"Duration":143266,"SoundDuration":143266,"Delta":323332909},{"NoteNumber":77,"Velocity":85,"Duration":143266,"SoundDuration":143266,"Delta":323476176},{"NoteNumber":71,"Velocity":68,"Duration":143266,"SoundDuration":143266,"Delta":323476176},{"NoteNumber":68,"Velocity":68,"Duration":143266,"SoundDuration":143266,"Delta":323476176},{"NoteNumber":41,"Velocity":68,"Duration":143266,"SoundDuration":143266,"Delta":323476176},{"NoteNumber":53,"Velocity":59,"Duration":143266,"SoundDuration":143266,"Delta":323476176},{"NoteNumber":74,"Velocity":88,"Duration":160085,"SoundDuration":160085,"Delta":323619442},{"NoteNumber":69,"Velocity":81,"Duration":316790,"SoundDuration":316790,"Delta":323779528},{"NoteNumber":81,"Velocity":95,"Duration":316790,"SoundDuration":316790,"Delta":323779528},{"NoteNumber":74,"Velocity":81,"Duration":316790,"SoundDuration":316790,"Delta":323779528},{"NoteNumber":77,"Velocity":81,"Duration":316790,"SoundDuration":316790,"Delta":323779528},{"NoteNumber":53,"Velocity":64,"Duration":316790,"SoundDuration":316790,"Delta":323779528},{"NoteNumber":57,"Velocity":75,"Duration":314150,"SoundDuration":314150,"Delta":323779528},{"NoteNumber":45,"Velocity":64,"Duration":316790,"SoundDuration":316790,"Delta":323779528},{"NoteNumber":50,"Velocity":64,"Duration":316790,"SoundDuration":316790,"Delta":323779528},{"NoteNumber":69,"Velocity":78,"Duration":151209,"SoundDuration":151209,"Delta":324096318},{"NoteNumber":65,"Velocity":64,"Duration":151209,"SoundDuration":151209,"Delta":324096318},{"NoteNumber":57,"Velocity":51,"Duration":151209,"SoundDuration":151209,"Delta":324096318},{"NoteNumber":62,"Velocity":61,"Duration":151209,"SoundDuration":151209,"Delta":324096318},{"NoteNumber":69,"Velocity":78,"Duration":151209,"SoundDuration":151209,"Delta":324398737},{"NoteNumber":65,"Velocity":64,"Duration":151209,"SoundDuration":151209,"Delta":324398737},{"NoteNumber":62,"Velocity":61,"Duration":151209,"SoundDuration":151209,"Delta":324398737},{"NoteNumber":57,"Velocity":51,"Duration":151209,"SoundDuration":151209,"Delta":324398737},{"NoteNumber":69,"Velocity":78,"Duration":159235,"SoundDuration":159235,"Delta":324701157},{"NoteNumber":65,"Velocity":64,"Duration":159235,"SoundDuration":159235,"Delta":324701157},{"NoteNumber":57,"Velocity":51,"Duration":159235,"SoundDuration":159235,"Delta":324701157},{"NoteNumber":62,"Velocity":61,"Duration":159235,"SoundDuration":159235,"Delta":324701157},{"NoteNumber":70,"Velocity":60,"Duration":147492,"SoundDuration":147492,"Delta":325019628},{"NoteNumber":64,"Velocity":47,"Duration":147492,"SoundDuration":147492,"Delta":325019628},{"NoteNumber":62,"Velocity":47,"Duration":147492,"SoundDuration":147492,"Delta":325019628},{"NoteNumber":55,"Velocity":47,"Duration":147492,"SoundDuration":147492,"Delta":325019628},{"NoteNumber":69,"Velocity":51,"Duration":147492,"SoundDuration":147492,"Delta":325167121},{"NoteNumber":64,"Velocity":47,"Duration":147492,"SoundDuration":147492,"Delta":325314614},{"NoteNumber":72,"Velocity":51,"Duration":147492,"SoundDuration":147492,"Delta":325314614},{"NoteNumber":55,"Velocity":47,"Duration":147492,"SoundDuration":147492,"Delta":325314614},{"NoteNumber":62,"Velocity":40,"Duration":147492,"SoundDuration":147492,"Delta":325314614},{"NoteNumber":70,"Velocity":51,"Duration":147492,"SoundDuration":147492,"Delta":325462107},{"NoteNumber":67,"Velocity":47,"Duration":153531,"SoundDuration":153531,"Delta":325609599},{"NoteNumber":69,"Velocity":60,"Duration":153531,"SoundDuration":153531,"Delta":325609599},{"NoteNumber":61,"Velocity":47,"Duration":153531,"SoundDuration":153531,"Delta":325609599},{"NoteNumber":57,"Velocity":47,"Duration":153531,"SoundDuration":153531,"Delta":325609599},{"NoteNumber":67,"Velocity":47,"Duration":168161,"SoundDuration":168161,"Delta":325916662},{"NoteNumber":69,"Velocity":52,"Duration":168161,"SoundDuration":168161,"Delta":325916662},{"NoteNumber":57,"Velocity":47,"Duration":168161,"SoundDuration":168161,"Delta":325916662},{"NoteNumber":61,"Velocity":41,"Duration":168161,"SoundDuration":168161,"Delta":325916662},{"NoteNumber":74,"Velocity":73,"Duration":313479,"SoundDuration":313479,"Delta":326251120},{"NoteNumber":69,"Velocity":62,"Duration":313479,"SoundDuration":313479,"Delta":326251120},{"NoteNumber":65,"Velocity":62,"Duration":313479,"SoundDuration":313479,"Delta":326251120},{"NoteNumber":62,"Velocity":62,"Duration":310867,"SoundDuration":310867,"Delta":326251120},{"NoteNumber":50,"Velocity":49,"Duration":310867,"SoundDuration":310867,"Delta":326251120},{"NoteNumber":57,"Velocity":58,"Duration":313479,"SoundDuration":313479,"Delta":326251120},{"NoteNumber":62,"Velocity":63,"Duration":176782,"SoundDuration":176782,"Delta":326564600},{"NoteNumber":50,"Velocity":50,"Duration":176782,"SoundDuration":176782,"Delta":326564600},{"NoteNumber":62,"Velocity":75,"Duration":192678,"SoundDuration":192678,"Delta":326918165},{"NoteNumber":50,"Velocity":59,"Duration":192678,"SoundDuration":192678,"Delta":326918165},{"NoteNumber":62,"Velocity":78,"Duration":204498,"SoundDuration":204498,"Delta":327303521},{"NoteNumber":50,"Velocity":62,"Duration":204498,"SoundDuration":204498,"Delta":327303521},{"NoteNumber":65,"Velocity":47,"Duration":577679,"SoundDuration":577679,"Delta":327712519},{"NoteNumber":69,"Velocity":60,"Duration":147492,"SoundDuration":147492,"Delta":327712519},{"NoteNumber":60,"Velocity":47,"Duration":589970,"SoundDuration":589970,"Delta":327712519},{"NoteNumber":53,"Velocity":47,"Duration":589970,"SoundDuration":589970,"Delta":327712519},{"NoteNumber":68,"Velocity":51,"Duration":147492,"SoundDuration":147492,"Delta":327860012},{"NoteNumber":70,"Velocity":53,"Duration":147492,"SoundDuration":147492,"Delta":328007505},{"NoteNumber":69,"Velocity":51,"Duration":135201,"SoundDuration":135201,"Delta":328154998},{"NoteNumber":65,"Velocity":47,"Duration":158394,"SoundDuration":158394,"Delta":328302490},{"NoteNumber":69,"Velocity":60,"Duration":158394,"SoundDuration":158394,"Delta":328302490},{"NoteNumber":69,"Velocity":52,"Duration":163576,"SoundDuration":163576,"Delta":328619280},{"NoteNumber":65,"Velocity":47,"Duration":163576,"SoundDuration":163576,"Delta":328619280},{"NoteNumber":64,"Velocity":59,"Duration":597890,"SoundDuration":597890,"Delta":328949154},{"NoteNumber":72,"Velocity":70,"Duration":293542,"SoundDuration":293542,"Delta":328949154},{"NoteNumber":48,"Velocity":60,"Duration":146771,"SoundDuration":146771,"Delta":328949154},{"NoteNumber":47,"Velocity":54,"Duration":146771,"SoundDuration":146771,"Delta":329095925},{"NoteNumber":67,"Velocity":53,"Duration":152749,"SoundDuration":152749,"Delta":329242696},{"NoteNumber":50,"Velocity":60,"Duration":152749,"SoundDuration":152749,"Delta":329242696},{"NoteNumber":48,"Velocity":54,"Duration":151598,"SoundDuration":151598,"Delta":329395446},{"NoteNumber":64,"Velocity":56,"Duration":148957,"SoundDuration":148957,"Delta":329560826},{"NoteNumber":67,"Velocity":66,"Duration":148957,"SoundDuration":148957,"Delta":329560826},{"NoteNumber":48,"Velocity":59,"Duration":148957,"SoundDuration":148957,"Delta":329560826},{"NoteNumber":64,"Velocity":52,"Duration":159235,"SoundDuration":159235,"Delta":329858741},{"NoteNumber":67,"Velocity":62,"Duration":159235,"SoundDuration":159235,"Delta":329858741},{"NoteNumber":48,"Velocity":56,"Duration":159235,"SoundDuration":159235,"Delta":329858741},{"NoteNumber":67,"Velocity":69,"Duration":577679,"SoundDuration":577679,"Delta":330177212},{"NoteNumber":70,"Velocity":69,"Duration":147492,"SoundDuration":147492,"Delta":330177212},{"NoteNumber":55,"Velocity":66,"Duration":294985,"SoundDuration":294985,"Delta":330177212},{"NoteNumber":69,"Velocity":57,"Duration":147492,"SoundDuration":147492,"Delta":330324705},{"NoteNumber":72,"Velocity":57,"Duration":147492,"SoundDuration":147492,"Delta":330472198},{"NoteNumber":50,"Velocity":55,"Duration":147492,"SoundDuration":147492,"Delta":330472198},{"NoteNumber":70,"Velocity":57,"Duration":135201,"SoundDuration":135201,"Delta":330619690},{"NoteNumber":70,"Velocity":69,"Duration":158394,"SoundDuration":158394,"Delta":330767183},{"NoteNumber":67,"Velocity":69,"Duration":158394,"SoundDuration":158394,"Delta":330767183},{"NoteNumber":50,"Velocity":55,"Duration":158394,"SoundDuration":158394,"Delta":330767183},{"NoteNumber":67,"Velocity":49,"Duration":164473,"SoundDuration":164473,"Delta":331083973},{"NoteNumber":70,"Velocity":54,"Duration":164473,"SoundDuration":164473,"Delta":331083973},{"NoteNumber":49,"Velocity":55,"Duration":164473,"SoundDuration":164473,"Delta":331083973},{"NoteNumber":74,"Velocity":73,"Duration":293542,"SoundDuration":293542,"Delta":331412921},{"NoteNumber":66,"Velocity":61,"Duration":594783,"SoundDuration":594783,"Delta":331412921},{"NoteNumber":50,"Velocity":63,"Duration":146771,"SoundDuration":146771,"Delta":331412921},{"NoteNumber":49,"Velocity":56,"Duration":146771,"SoundDuration":146771,"Delta":331559692},{"NoteNumber":69,"Velocity":55,"Duration":157562,"SoundDuration":157562,"Delta":331706463},{"NoteNumber":52,"Velocity":63,"Duration":157562,"SoundDuration":157562,"Delta":331706463},{"NoteNumber":50,"Velocity":56,"Duration":143678,"SoundDuration":143678,"Delta":331864026},{"NoteNumber":66,"Velocity":58,"Duration":148957,"SoundDuration":148957,"Delta":332020765},{"NoteNumber":69,"Velocity":69,"Duration":148957,"SoundDuration":148957,"Delta":332020765},{"NoteNumber":50,"Velocity":61,"Duration":148957,"SoundDuration":148957,"Delta":332020765},{"NoteNumber":66,"Velocity":54,"Duration":159235,"SoundDuration":159235,"Delta":332318680},{"NoteNumber":69,"Velocity":65,"Duration":159235,"SoundDuration":159235,"Delta":332318680},{"NoteNumber":50,"Velocity":58,"Duration":159235,"SoundDuration":159235,"Delta":332318680},{"NoteNumber":74,"Velocity":72,"Duration":147492,"SoundDuration":147492,"Delta":332637151},{"NoteNumber":70,"Velocity":72,"Duration":577679,"SoundDuration":577679,"Delta":332637151},{"NoteNumber":58,"Velocity":69,"Duration":294985,"SoundDuration":294985,"Delta":332637151},{"NoteNumber":73,"Velocity":59,"Duration":147492,"SoundDuration":147492,"Delta":332784644},{"NoteNumber":76,"Velocity":62,"Duration":147492,"SoundDuration":147492,"Delta":332932137},{"NoteNumber":53,"Velocity":57,"Duration":147492,"SoundDuration":147492,"Delta":332932137},{"NoteNumber":74,"Velocity":61,"Duration":135201,"SoundDuration":135201,"Delta":333079630},{"NoteNumber":74,"Velocity":72,"Duration":162689,"SoundDuration":162689,"Delta":333227122},{"NoteNumber":70,"Velocity":72,"Duration":162689,"SoundDuration":162689,"Delta":333227122},{"NoteNumber":53,"Velocity":57,"Duration":162689,"SoundDuration":162689,"Delta":333227122},{"NoteNumber":70,"Velocity":51,"Duration":169109,"SoundDuration":169109,"Delta":333552502},{"NoteNumber":74,"Velocity":56,"Duration":169109,"SoundDuration":169109,"Delta":333552502},{"NoteNumber":53,"Velocity":57,"Duration":169109,"SoundDuration":169109,"Delta":333552502},{"NoteNumber":69,"Velocity":64,"Duration":603660,"SoundDuration":603660,"Delta":333890720},{"NoteNumber":77,"Velocity":76,"Duration":302419,"SoundDuration":302419,"Delta":333890720},{"NoteNumber":53,"Velocity":66,"Duration":151209,"SoundDuration":151209,"Delta":333890720},{"NoteNumber":52,"Velocity":58,"Duration":151209,"SoundDuration":151209,"Delta":334041930},{"NoteNumber":72,"Velocity":57,"Duration":157562,"SoundDuration":157562,"Delta":334193140},{"NoteNumber":55,"Velocity":66,"Duration":157562,"SoundDuration":157562,"Delta":334193140},{"NoteNumber":53,"Velocity":58,"Duration":143678,"SoundDuration":143678,"Delta":334350703},{"NoteNumber":72,"Velocity":72,"Duration":151975,"SoundDuration":151975,"Delta":334507443},{"NoteNumber":69,"Velocity":60,"Duration":151975,"SoundDuration":151975,"Delta":334507443},{"NoteNumber":53,"Velocity":64,"Duration":151975,"SoundDuration":151975,"Delta":334507443},{"NoteNumber":72,"Velocity":68,"Duration":159235,"SoundDuration":159235,"Delta":334811394},{"NoteNumber":69,"Velocity":56,"Duration":159235,"SoundDuration":159235,"Delta":334811394},{"NoteNumber":53,"Velocity":60,"Duration":159235,"SoundDuration":159235,"Delta":334811394},{"NoteNumber":67,"Velocity":64,"Duration":620740,"SoundDuration":620740,"Delta":335129866},{"NoteNumber":79,"Velocity":79,"Duration":305498,"SoundDuration":305498,"Delta":335129866},{"NoteNumber":52,"Velocity":66,"Duration":634446,"SoundDuration":634446,"Delta":335129866},{"NoteNumber":76,"Velocity":63,"Duration":164473,"SoundDuration":164473,"Delta":335435365},{"NoteNumber":55,"Velocity":66,"Duration":164473,"SoundDuration":164473,"Delta":335435365},{"NoteNumber":72,"Velocity":72,"Duration":152749,"SoundDuration":152749,"Delta":335764312},{"NoteNumber":67,"Velocity":60,"Duration":152749,"SoundDuration":152749,"Delta":335764312},{"NoteNumber":52,"Velocity":54,"Duration":152749,"SoundDuration":152749,"Delta":335764312},{"NoteNumber":60,"Velocity":64,"Duration":152749,"SoundDuration":152749,"Delta":335764312},{"NoteNumber":70,"Velocity":68,"Duration":165380,"SoundDuration":165380,"Delta":336069811},{"NoteNumber":67,"Velocity":56,"Duration":165380,"SoundDuration":165380,"Delta":336069811},{"NoteNumber":52,"Velocity":51,"Duration":165380,"SoundDuration":165380,"Delta":336069811},{"NoteNumber":60,"Velocity":60,"Duration":165380,"SoundDuration":165380,"Delta":336069811},{"NoteNumber":70,"Velocity":68,"Duration":147492,"SoundDuration":147492,"Delta":336400572},{"NoteNumber":65,"Velocity":68,"Duration":585830,"SoundDuration":585830,"Delta":336400572},{"NoteNumber":60,"Velocity":65,"Duration":294985,"SoundDuration":294985,"Delta":336400572},{"NoteNumber":53,"Velocity":56,"Duration":598475,"SoundDuration":598475,"Delta":336400572},{"NoteNumber":69,"Velocity":53,"Duration":147492,"SoundDuration":147492,"Delta":336548064},{"NoteNumber":74,"Velocity":56,"Duration":151745,"SoundDuration":151745,"Delta":336695557},{"NoteNumber":58,"Velocity":54,"Duration":151745,"SoundDuration":151745,"Delta":336695557},{"NoteNumber":72,"Velocity":55,"Duration":139099,"SoundDuration":139099,"Delta":336847302},{"NoteNumber":57,"Velocity":48,"Duration":151745,"SoundDuration":151745,"Delta":336847302},{"NoteNumber":72,"Velocity":68,"Duration":162689,"SoundDuration":162689,"Delta":336999047},{"NoteNumber":65,"Velocity":57,"Duration":162689,"SoundDuration":162689,"Delta":336999047},{"NoteNumber":57,"Velocity":54,"Duration":162689,"SoundDuration":162689,"Delta":336999047},{"NoteNumber":53,"Velocity":45,"Duration":162689,"SoundDuration":162689,"Delta":336999047},{"NoteNumber":72,"Velocity":53,"Duration":169109,"SoundDuration":169109,"Delta":337324427},{"NoteNumber":64,"Velocity":48,"Duration":169109,"SoundDuration":169109,"Delta":337324427},{"NoteNumber":57,"Velocity":54,"Duration":169109,"SoundDuration":169109,"Delta":337324427},{"NoteNumber":53,"Velocity":45,"Duration":169109,"SoundDuration":169109,"Delta":337324427},{"NoteNumber":72,"Velocity":72,"Duration":302419,"SoundDuration":302419,"Delta":337662645},{"NoteNumber":62,"Velocity":60,"Duration":289818,"SoundDuration":289818,"Delta":337662645},{"NoteNumber":46,"Velocity":62,"Duration":151209,"SoundDuration":151209,"Delta":337662645},{"NoteNumber":45,"Velocity":55,"Duration":151209,"SoundDuration":151209,"Delta":337813855},{"NoteNumber":70,"Velocity":54,"Duration":157562,"SoundDuration":157562,"Delta":337965065},{"NoteNumber":62,"Velocity":48,"Duration":157562,"SoundDuration":157562,"Delta":337965065},{"NoteNumber":48,"Velocity":62,"Duration":157562,"SoundDuration":157562,"Delta":337965065},{"NoteNumber":46,"Velocity":55,"Duration":143678,"SoundDuration":143678,"Delta":338122628},{"NoteNumber":58,"Velocity":57,"Duration":151975,"SoundDuration":151975,"Delta":338279367},{"NoteNumber":67,"Velocity":68,"Duration":151975,"SoundDuration":151975,"Delta":338279367},{"NoteNumber":64,"Velocity":57,"Duration":151975,"SoundDuration":151975,"Delta":338279367},{"NoteNumber":48,"Velocity":60,"Duration":151975,"SoundDuration":151975,"Delta":338279367},{"NoteNumber":69,"Velocity":64,"Duration":159235,"SoundDuration":159235,"Delta":338583319},{"NoteNumber":64,"Velocity":53,"Duration":159235,"SoundDuration":159235,"Delta":338583319},{"NoteNumber":60,"Velocity":53,"Duration":159235,"SoundDuration":159235,"Delta":338583319},{"NoteNumber":48,"Velocity":57,"Duration":159235,"SoundDuration":159235,"Delta":338583319},{"NoteNumber":57,"Velocity":68,"Duration":577679,"SoundDuration":577679,"Delta":338901790},{"NoteNumber":65,"Velocity":68,"Duration":147492,"SoundDuration":147492,"Delta":338901790},{"NoteNumber":41,"Velocity":56,"Duration":589970,"SoundDuration":589970,"Delta":338901790},{"NoteNumber":64,"Velocity":52,"Duration":147492,"SoundDuration":147492,"Delta":339049283},{"NoteNumber":67,"Velocity":56,"Duration":147492,"SoundDuration":147492,"Delta":339196776},{"NoteNumber":65,"Velocity":52,"Duration":135201,"SoundDuration":135201,"Delta":339344269},{"NoteNumber":57,"Velocity":57,"Duration":162689,"SoundDuration":162689,"Delta":339491761},{"NoteNumber":65,"Velocity":68,"Duration":162689,"SoundDuration":162689,"Delta":339491761},{"NoteNumber":41,"Velocity":54,"Duration":162689,"SoundDuration":162689,"Delta":339491761},{"NoteNumber":57,"Velocity":48,"Duration":169109,"SoundDuration":169109,"Delta":339817141},{"NoteNumber":65,"Velocity":53,"Duration":169109,"SoundDuration":169109,"Delta":339817141},{"NoteNumber":39,"Velocity":51,"Duration":169109,"SoundDuration":169109,"Delta":339817141},{"NoteNumber":57,"Velocity":64,"Duration":175029,"SoundDuration":175029,"Delta":340155359},{"NoteNumber":62,"Velocity":64,"Duration":175029,"SoundDuration":175029,"Delta":340155359},{"NoteNumber":60,"Velocity":64,"Duration":175029,"SoundDuration":175029,"Delta":340155359},{"NoteNumber":66,"Velocity":76,"Duration":175029,"SoundDuration":175029,"Delta":340155359},{"NoteNumber":38,"Velocity":63,"Duration":175029,"SoundDuration":175029,"Delta":340155359},{"NoteNumber":66,"Velocity":71,"Duration":175029,"SoundDuration":175029,"Delta":340505418},{"NoteNumber":60,"Velocity":60,"Duration":175029,"SoundDuration":175029,"Delta":340505418},{"NoteNumber":57,"Velocity":60,"Duration":175029,"SoundDuration":175029,"Delta":340505418},{"NoteNumber":62,"Velocity":60,"Duration":175029,"SoundDuration":175029,"Delta":340505418},{"NoteNumber":38,"Velocity":58,"Duration":175029,"SoundDuration":175029,"Delta":340505418},{"NoteNumber":60,"Velocity":59,"Duration":175029,"SoundDuration":175029,"Delta":340855476},{"NoteNumber":62,"Velocity":59,"Duration":175029,"SoundDuration":175029,"Delta":340855476},{"NoteNumber":57,"Velocity":59,"Duration":175029,"SoundDuration":175029,"Delta":340855476},{"NoteNumber":66,"Velocity":70,"Duration":175029,"SoundDuration":175029,"Delta":340855476},{"NoteNumber":38,"Velocity":58,"Duration":175029,"SoundDuration":175029,"Delta":340855476},{"NoteNumber":66,"Velocity":70,"Duration":175029,"SoundDuration":175029,"Delta":341205535},{"NoteNumber":62,"Velocity":59,"Duration":175029,"SoundDuration":175029,"Delta":341205535},{"NoteNumber":60,"Velocity":59,"Duration":175029,"SoundDuration":175029,"Delta":341205535},{"NoteNumber":57,"Velocity":59,"Duration":175029,"SoundDuration":175029,"Delta":341205535},{"NoteNumber":38,"Velocity":58,"Duration":175029,"SoundDuration":175029,"Delta":341205535},{"NoteNumber":62,"Velocity":58,"Duration":179241,"SoundDuration":179241,"Delta":341555593},{"NoteNumber":66,"Velocity":58,"Duration":179241,"SoundDuration":179241,"Delta":341555593},{"NoteNumber":74,"Velocity":69,"Duration":179241,"SoundDuration":179241,"Delta":341555593},{"NoteNumber":69,"Velocity":58,"Duration":179241,"SoundDuration":179241,"Delta":341555593},{"NoteNumber":60,"Velocity":69,"Duration":179241,"SoundDuration":179241,"Delta":341555593},{"NoteNumber":57,"Velocity":58,"Duration":179241,"SoundDuration":179241,"Delta":341555593},{"NoteNumber":50,"Velocity":58,"Duration":179241,"SoundDuration":179241,"Delta":341555593},{"NoteNumber":69,"Velocity":53,"Duration":188373,"SoundDuration":188373,"Delta":341919174},{"NoteNumber":66,"Velocity":53,"Duration":188373,"SoundDuration":188373,"Delta":341919174},{"NoteNumber":74,"Velocity":63,"Duration":188373,"SoundDuration":188373,"Delta":341919174},{"NoteNumber":62,"Velocity":53,"Duration":188373,"SoundDuration":188373,"Delta":341919174},{"NoteNumber":57,"Velocity":51,"Duration":188373,"SoundDuration":188373,"Delta":341919174},{"NoteNumber":50,"Velocity":51,"Duration":188373,"SoundDuration":188373,"Delta":341919174},{"NoteNumber":60,"Velocity":60,"Duration":188373,"SoundDuration":188373,"Delta":341919174},{"NoteNumber":74,"Velocity":63,"Duration":199630,"SoundDuration":199630,"Delta":342300298},{"NoteNumber":62,"Velocity":53,"Duration":199630,"SoundDuration":199630,"Delta":342300298},{"NoteNumber":66,"Velocity":53,"Duration":199630,"SoundDuration":199630,"Delta":342300298},{"NoteNumber":69,"Velocity":53,"Duration":199630,"SoundDuration":199630,"Delta":342300298},{"NoteNumber":57,"Velocity":51,"Duration":199630,"SoundDuration":199630,"Delta":342300298},{"NoteNumber":50,"Velocity":51,"Duration":199630,"SoundDuration":199630,"Delta":342300298},{"NoteNumber":60,"Velocity":60,"Duration":199630,"SoundDuration":199630,"Delta":342300298},{"NoteNumber":62,"Velocity":53,"Duration":219426,"SoundDuration":219426,"Delta":342709315},{"NoteNumber":66,"Velocity":53,"Duration":219426,"SoundDuration":219426,"Delta":342709315},{"NoteNumber":74,"Velocity":63,"Duration":219426,"SoundDuration":219426,"Delta":342709315},{"NoteNumber":69,"Velocity":53,"Duration":219426,"SoundDuration":219426,"Delta":342709315},{"NoteNumber":50,"Velocity":51,"Duration":219426,"SoundDuration":219426,"Delta":342709315},{"NoteNumber":57,"Velocity":51,"Duration":219426,"SoundDuration":219426,"Delta":342709315},{"NoteNumber":60,"Velocity":60,"Duration":219426,"SoundDuration":219426,"Delta":342709315},{"NoteNumber":58,"Velocity":81,"Duration":147492,"SoundDuration":147492,"Delta":343165947},{"NoteNumber":46,"Velocity":64,"Duration":147492,"SoundDuration":147492,"Delta":343165947},{"NoteNumber":57,"Velocity":68,"Duration":147492,"SoundDuration":147492,"Delta":343313440},{"NoteNumber":45,"Velocity":55,"Duration":147492,"SoundDuration":147492,"Delta":343313440},{"NoteNumber":55,"Velocity":70,"Duration":147492,"SoundDuration":147492,"Delta":343460932},{"NoteNumber":43,"Velocity":55,"Duration":147492,"SoundDuration":147492,"Delta":343460932},{"NoteNumber":57,"Velocity":70,"Duration":147492,"SoundDuration":147492,"Delta":343608425},{"NoteNumber":45,"Velocity":55,"Duration":147492,"SoundDuration":147492,"Delta":343608425},{"NoteNumber":58,"Velocity":81,"Duration":143266,"SoundDuration":143266,"Delta":343755918},{"NoteNumber":46,"Velocity":64,"Duration":143266,"SoundDuration":143266,"Delta":343755918},{"NoteNumber":55,"Velocity":71,"Duration":143266,"SoundDuration":143266,"Delta":343899184},{"NoteNumber":43,"Velocity":56,"Duration":143266,"SoundDuration":143266,"Delta":343899184},{"NoteNumber":58,"Velocity":71,"Duration":143266,"SoundDuration":143266,"Delta":344042451},{"NoteNumber":46,"Velocity":56,"Duration":143266,"SoundDuration":143266,"Delta":344042451},{"NoteNumber":55,"Velocity":71,"Duration":146745,"SoundDuration":146745,"Delta":344185717},{"NoteNumber":43,"Velocity":56,"Duration":160085,"SoundDuration":160085,"Delta":344185717},{"NoteNumber":67,"Velocity":82,"Duration":303590,"SoundDuration":303590,"Delta":344345803},{"NoteNumber":55,"Velocity":65,"Duration":303590,"SoundDuration":303590,"Delta":344345803},{"NoteNumber":55,"Velocity":68,"Duration":151209,"SoundDuration":151209,"Delta":344662593},{"NoteNumber":43,"Velocity":51,"Duration":151209,"SoundDuration":151209,"Delta":344662593},{"NoteNumber":55,"Velocity":68,"Duration":151209,"SoundDuration":151209,"Delta":344965012},{"NoteNumber":43,"Velocity":52,"Duration":151209,"SoundDuration":151209,"Delta":344965012},{"NoteNumber":55,"Velocity":68,"Duration":159235,"SoundDuration":159235,"Delta":345267432},{"NoteNumber":43,"Velocity":52,"Duration":159235,"SoundDuration":159235,"Delta":345267432},{"NoteNumber":60,"Velocity":67,"Duration":154320,"SoundDuration":154320,"Delta":345585903},{"NoteNumber":63,"Velocity":67,"Duration":154320,"SoundDuration":154320,"Delta":345585903},{"NoteNumber":67,"Velocity":79,"Duration":154320,"SoundDuration":154320,"Delta":345585903},{"NoteNumber":39,"Velocity":62,"Duration":154320,"SoundDuration":154320,"Delta":345585903},{"NoteNumber":38,"Velocity":49,"Duration":154321,"SoundDuration":154321,"Delta":345740224},{"NoteNumber":55,"Velocity":62,"Duration":147492,"SoundDuration":147492,"Delta":345894545},{"NoteNumber":36,"Velocity":49,"Duration":147492,"SoundDuration":147492,"Delta":345894545},{"NoteNumber":38,"Velocity":49,"Duration":147492,"SoundDuration":147492,"Delta":346042038},{"NoteNumber":55,"Velocity":62,"Duration":150451,"SoundDuration":150451,"Delta":346189531},{"NoteNumber":39,"Velocity":63,"Duration":150451,"SoundDuration":150451,"Delta":346189531},{"NoteNumber":36,"Velocity":52,"Duration":150451,"SoundDuration":150451,"Delta":346339982},{"NoteNumber":55,"Velocity":62,"Duration":158394,"SoundDuration":158394,"Delta":346490433},{"NoteNumber":39,"Velocity":52,"Duration":158394,"SoundDuration":158394,"Delta":346490433},{"NoteNumber":36,"Velocity":50,"Duration":174013,"SoundDuration":174013,"Delta":346648828},{"NoteNumber":67,"Velocity":76,"Duration":328947,"SoundDuration":328947,"Delta":346822842},{"NoteNumber":62,"Velocity":64,"Duration":328947,"SoundDuration":328947,"Delta":346822842},{"NoteNumber":58,"Velocity":64,"Duration":328947,"SoundDuration":328947,"Delta":346822842},{"NoteNumber":43,"Velocity":65,"Duration":328947,"SoundDuration":328947,"Delta":346822842},{"NoteNumber":55,"Velocity":61,"Duration":155925,"SoundDuration":155925,"Delta":347151790},{"NoteNumber":31,"Velocity":48,"Duration":155925,"SoundDuration":155925,"Delta":347151790},{"NoteNumber":55,"Velocity":61,"Duration":155925,"SoundDuration":155925,"Delta":347463640},{"NoteNumber":31,"Velocity":48,"Duration":155925,"SoundDuration":155925,"Delta":347463640},{"NoteNumber":55,"Velocity":61,"Duration":155925,"SoundDuration":155925,"Delta":347775491},{"NoteNumber":31,"Velocity":48,"Duration":155925,"SoundDuration":155925,"Delta":347775491},{"NoteNumber":62,"Velocity":56,"Duration":577679,"SoundDuration":577679,"Delta":348087341},{"NoteNumber":74,"Velocity":81,"Duration":147492,"SoundDuration":147492,"Delta":348087341},{"NoteNumber":68,"Velocity":56,"Duration":577679,"SoundDuration":577679,"Delta":348087341},{"NoteNumber":53,"Velocity":56,"Duration":147492,"SoundDuration":147492,"Delta":348087341},{"NoteNumber":41,"Velocity":56,"Duration":147492,"SoundDuration":147492,"Delta":348087341},{"NoteNumber":73,"Velocity":69,"Duration":147492,"SoundDuration":147492,"Delta":348234834},{"NoteNumber":71,"Velocity":72,"Duration":147492,"SoundDuration":147492,"Delta":348382327},{"NoteNumber":44,"Velocity":57,"Duration":147492,"SoundDuration":147492,"Delta":348382327},{"NoteNumber":56,"Velocity":49,"Duration":147492,"SoundDuration":147492,"Delta":348382327},{"NoteNumber":73,"Velocity":73,"Duration":147492,"SoundDuration":147492,"Delta":348529820},{"NoteNumber":74,"Velocity":86,"Duration":143266,"SoundDuration":143266,"Delta":348677312},{"NoteNumber":65,"Velocity":59,"Duration":143266,"SoundDuration":143266,"Delta":348677312},{"NoteNumber":68,"Velocity":59,"Duration":143266,"SoundDuration":143266,"Delta":348677312},{"NoteNumber":59,"Velocity":59,"Duration":143266,"SoundDuration":143266,"Delta":348677312},{"NoteNumber":47,"Velocity":59,"Duration":143266,"SoundDuration":143266,"Delta":348677312},{"NoteNumber":71,"Velocity":77,"Duration":143266,"SoundDuration":143266,"Delta":348820579},{"NoteNumber":68,"Velocity":62,"Duration":143266,"SoundDuration":143266,"Delta":348963845},{"NoteNumber":74,"Velocity":78,"Duration":143266,"SoundDuration":143266,"Delta":348963845},{"NoteNumber":65,"Velocity":62,"Duration":143266,"SoundDuration":143266,"Delta":348963845},{"NoteNumber":62,"Velocity":54,"Duration":143266,"SoundDuration":143266,"Delta":348963845},{"NoteNumber":50,"Velocity":62,"Duration":143266,"SoundDuration":143266,"Delta":348963845},{"NoteNumber":71,"Velocity":80,"Duration":160085,"SoundDuration":160085,"Delta":349107112},{"NoteNumber":71,"Velocity":81,"Duration":316790,"SoundDuration":316790,"Delta":349267197},{"NoteNumber":66,"Velocity":81,"Duration":314150,"SoundDuration":314150,"Delta":349267197},{"NoteNumber":74,"Velocity":81,"Duration":316790,"SoundDuration":316790,"Delta":349267197},{"NoteNumber":78,"Velocity":95,"Duration":316790,"SoundDuration":316790,"Delta":349267197},{"NoteNumber":47,"Velocity":64,"Duration":316790,"SoundDuration":316790,"Delta":349267197},{"NoteNumber":42,"Velocity":64,"Duration":316790,"SoundDuration":316790,"Delta":349267197},{"NoteNumber":50,"Velocity":64,"Duration":316790,"SoundDuration":316790,"Delta":349267197},{"NoteNumber":54,"Velocity":75,"Duration":314150,"SoundDuration":314150,"Delta":349267197},{"NoteNumber":62,"Velocity":59,"Duration":151209,"SoundDuration":151209,"Delta":349583987},{"NoteNumber":66,"Velocity":71,"Duration":151209,"SoundDuration":151209,"Delta":349583987},{"NoteNumber":54,"Velocity":47,"Duration":151209,"SoundDuration":151209,"Delta":349583987},{"NoteNumber":59,"Velocity":56,"Duration":151209,"SoundDuration":151209,"Delta":349583987},{"NoteNumber":62,"Velocity":59,"Duration":151209,"SoundDuration":151209,"Delta":349886407},{"NoteNumber":66,"Velocity":71,"Duration":151209,"SoundDuration":151209,"Delta":349886407},{"NoteNumber":54,"Velocity":47,"Duration":151209,"SoundDuration":151209,"Delta":349886407},{"NoteNumber":59,"Velocity":56,"Duration":151209,"SoundDuration":151209,"Delta":349886407},{"NoteNumber":62,"Velocity":59,"Duration":159235,"SoundDuration":159235,"Delta":350188826},{"NoteNumber":66,"Velocity":71,"Duration":159235,"SoundDuration":159235,"Delta":350188826},{"NoteNumber":54,"Velocity":47,"Duration":159235,"SoundDuration":159235,"Delta":350188826},{"NoteNumber":59,"Velocity":56,"Duration":159235,"SoundDuration":159235,"Delta":350188826},{"NoteNumber":67,"Velocity":60,"Duration":147492,"SoundDuration":147492,"Delta":350507298},{"NoteNumber":61,"Velocity":47,"Duration":147492,"SoundDuration":147492,"Delta":350507298},{"NoteNumber":52,"Velocity":47,"Duration":147492,"SoundDuration":147492,"Delta":350507298},{"NoteNumber":59,"Velocity":47,"Duration":147492,"SoundDuration":147492,"Delta":350507298},{"NoteNumber":66,"Velocity":51,"Duration":147492,"SoundDuration":147492,"Delta":350654791},{"NoteNumber":69,"Velocity":51,"Duration":147492,"SoundDuration":147492,"Delta":350802283},{"NoteNumber":61,"Velocity":47,"Duration":147492,"SoundDuration":147492,"Delta":350802283},{"NoteNumber":59,"Velocity":40,"Duration":147492,"SoundDuration":147492,"Delta":350802283},{"NoteNumber":52,"Velocity":47,"Duration":147492,"SoundDuration":147492,"Delta":350802283},{"NoteNumber":67,"Velocity":51,"Duration":147492,"SoundDuration":147492,"Delta":350949776},{"NoteNumber":64,"Velocity":47,"Duration":153531,"SoundDuration":153531,"Delta":351097269},{"NoteNumber":66,"Velocity":60,"Duration":153531,"SoundDuration":153531,"Delta":351097269},{"NoteNumber":58,"Velocity":47,"Duration":153531,"SoundDuration":153531,"Delta":351097269},{"NoteNumber":54,"Velocity":47,"Duration":153531,"SoundDuration":153531,"Delta":351097269},{"NoteNumber":66,"Velocity":52,"Duration":168161,"SoundDuration":168161,"Delta":351404331},{"NoteNumber":64,"Velocity":47,"Duration":168161,"SoundDuration":168161,"Delta":351404331},{"NoteNumber":58,"Velocity":41,"Duration":168161,"SoundDuration":168161,"Delta":351404331},{"NoteNumber":54,"Velocity":47,"Duration":168161,"SoundDuration":168161,"Delta":351404331},{"NoteNumber":66,"Velocity":62,"Duration":313479,"SoundDuration":313479,"Delta":351738790},{"NoteNumber":71,"Velocity":73,"Duration":313479,"SoundDuration":313479,"Delta":351738790},{"NoteNumber":62,"Velocity":62,"Duration":310867,"SoundDuration":310867,"Delta":351738790},{"NoteNumber":59,"Velocity":62,"Duration":313479,"SoundDuration":313479,"Delta":351738790},{"NoteNumber":47,"Velocity":49,"Duration":313479,"SoundDuration":313479,"Delta":351738790},{"NoteNumber":54,"Velocity":58,"Duration":313479,"SoundDuration":313479,"Delta":351738790},{"NoteNumber":62,"Velocity":63,"Duration":174013,"SoundDuration":174013,"Delta":352052269},{"NoteNumber":50,"Velocity":50,"Duration":174013,"SoundDuration":174013,"Delta":352052269},{"NoteNumber":62,"Velocity":63,"Duration":184729,"SoundDuration":184729,"Delta":352400297},{"NoteNumber":66,"Velocity":75,"Duration":184729,"SoundDuration":184729,"Delta":352400297},{"NoteNumber":57,"Velocity":63,"Duration":184729,"SoundDuration":184729,"Delta":352400297},{"NoteNumber":60,"Velocity":63,"Duration":184729,"SoundDuration":184729,"Delta":352400297},{"NoteNumber":50,"Velocity":59,"Duration":184729,"SoundDuration":184729,"Delta":352400297},{"NoteNumber":38,"Velocity":49,"Duration":184729,"SoundDuration":184729,"Delta":352400297},{"NoteNumber":62,"Velocity":78,"Duration":204918,"SoundDuration":204918,"Delta":352769755},{"NoteNumber":50,"Velocity":62,"Duration":204918,"SoundDuration":204918,"Delta":352769755},{"NoteNumber":58,"Velocity":69,"Duration":147492,"SoundDuration":147492,"Delta":353179591},{"NoteNumber":62,"Velocity":69,"Duration":147492,"SoundDuration":147492,"Delta":353179591},{"NoteNumber":67,"Velocity":81,"Duration":147492,"SoundDuration":147492,"Delta":353179591},{"NoteNumber":46,"Velocity":64,"Duration":147492,"SoundDuration":147492,"Delta":353179591},{"NoteNumber":57,"Velocity":69,"Duration":147492,"SoundDuration":147492,"Delta":353327084},{"NoteNumber":45,"Velocity":55,"Duration":147492,"SoundDuration":147492,"Delta":353327084},{"NoteNumber":55,"Velocity":70,"Duration":147492,"SoundDuration":147492,"Delta":353474577},{"NoteNumber":43,"Velocity":55,"Duration":147492,"SoundDuration":147492,"Delta":353474577},{"NoteNumber":57,"Velocity":70,"Duration":147492,"SoundDuration":147492,"Delta":353622070},{"NoteNumber":45,"Velocity":55,"Duration":147492,"SoundDuration":147492,"Delta":353622070},{"NoteNumber":58,"Velocity":81,"Duration":143266,"SoundDuration":143266,"Delta":353769562},{"NoteNumber":46,"Velocity":64,"Duration":143266,"SoundDuration":143266,"Delta":353769562},{"NoteNumber":55,"Velocity":71,"Duration":143266,"SoundDuration":143266,"Delta":353912829},{"NoteNumber":43,"Velocity":56,"Duration":143266,"SoundDuration":143266,"Delta":353912829},{"NoteNumber":58,"Velocity":71,"Duration":143266,"SoundDuration":143266,"Delta":354056095},{"NoteNumber":46,"Velocity":56,"Duration":143266,"SoundDuration":143266,"Delta":354056095},{"NoteNumber":55,"Velocity":71,"Duration":160085,"SoundDuration":160085,"Delta":354199362},{"NoteNumber":43,"Velocity":56,"Duration":160085,"SoundDuration":160085,"Delta":354199362},{"NoteNumber":67,"Velocity":82,"Duration":303590,"SoundDuration":303590,"Delta":354359447},{"NoteNumber":55,"Velocity":65,"Duration":303590,"SoundDuration":303590,"Delta":354359447},{"NoteNumber":55,"Velocity":68,"Duration":151209,"SoundDuration":151209,"Delta":354676237},{"NoteNumber":43,"Velocity":51,"Duration":151209,"SoundDuration":151209,"Delta":354676237},{"NoteNumber":55,"Velocity":68,"Duration":151209,"SoundDuration":151209,"Delta":354978657},{"NoteNumber":43,"Velocity":52,"Duration":151209,"SoundDuration":151209,"Delta":354978657},{"NoteNumber":55,"Velocity":68,"Duration":159235,"SoundDuration":159235,"Delta":355281076},{"NoteNumber":43,"Velocity":52,"Duration":159235,"SoundDuration":159235,"Delta":355281076},{"NoteNumber":63,"Velocity":67,"Duration":154320,"SoundDuration":154320,"Delta":355599548},{"NoteNumber":67,"Velocity":79,"Duration":154320,"SoundDuration":154320,"Delta":355599548},{"NoteNumber":60,"Velocity":67,"Duration":154320,"SoundDuration":154320,"Delta":355599548},{"NoteNumber":39,"Velocity":62,"Duration":154320,"SoundDuration":154320,"Delta":355599548},{"NoteNumber":38,"Velocity":49,"Duration":154321,"SoundDuration":154321,"Delta":355753869},{"NoteNumber":55,"Velocity":62,"Duration":147492,"SoundDuration":147492,"Delta":355908190},{"NoteNumber":36,"Velocity":49,"Duration":147492,"SoundDuration":147492,"Delta":355908190},{"NoteNumber":38,"Velocity":49,"Duration":147492,"SoundDuration":147492,"Delta":356055683},{"NoteNumber":55,"Velocity":62,"Duration":150451,"SoundDuration":150451,"Delta":356203175},{"NoteNumber":39,"Velocity":63,"Duration":150451,"SoundDuration":150451,"Delta":356203175},{"NoteNumber":36,"Velocity":52,"Duration":150451,"SoundDuration":150451,"Delta":356353627},{"NoteNumber":55,"Velocity":62,"Duration":158394,"SoundDuration":158394,"Delta":356504078},{"NoteNumber":39,"Velocity":52,"Duration":158394,"SoundDuration":158394,"Delta":356504078},{"NoteNumber":36,"Velocity":50,"Duration":174013,"SoundDuration":174013,"Delta":356662473},{"NoteNumber":62,"Velocity":64,"Duration":328947,"SoundDuration":328947,"Delta":356836487},{"NoteNumber":67,"Velocity":76,"Duration":328947,"SoundDuration":328947,"Delta":356836487},{"NoteNumber":58,"Velocity":64,"Duration":328947,"SoundDuration":328947,"Delta":356836487},{"NoteNumber":43,"Velocity":65,"Duration":328947,"SoundDuration":328947,"Delta":356836487},{"NoteNumber":55,"Velocity":61,"Duration":155925,"SoundDuration":155925,"Delta":357165434},{"NoteNumber":31,"Velocity":48,"Duration":155925,"SoundDuration":155925,"Delta":357165434},{"NoteNumber":55,"Velocity":61,"Duration":155925,"SoundDuration":155925,"Delta":357477285},{"NoteNumber":31,"Velocity":48,"Duration":155925,"SoundDuration":155925,"Delta":357477285},{"NoteNumber":55,"Velocity":61,"Duration":155925,"SoundDuration":155925,"Delta":357789135},{"NoteNumber":31,"Velocity":48,"Duration":155925,"SoundDuration":155925,"Delta":357789135},{"NoteNumber":65,"Velocity":61,"Duration":577679,"SoundDuration":577679,"Delta":358100986},{"NoteNumber":71,"Velocity":61,"Duration":577679,"SoundDuration":577679,"Delta":358100986},{"NoteNumber":77,"Velocity":89,"Duration":147492,"SoundDuration":147492,"Delta":358100986},{"NoteNumber":44,"Velocity":61,"Duration":147492,"SoundDuration":147492,"Delta":358100986},{"NoteNumber":32,"Velocity":61,"Duration":147492,"SoundDuration":147492,"Delta":358100986},{"NoteNumber":76,"Velocity":75,"Duration":147492,"SoundDuration":147492,"Delta":358248479},{"NoteNumber":74,"Velocity":79,"Duration":147492,"SoundDuration":147492,"Delta":358395971},{"NoteNumber":47,"Velocity":53,"Duration":147492,"SoundDuration":147492,"Delta":358395971},{"NoteNumber":35,"Velocity":62,"Duration":147492,"SoundDuration":147492,"Delta":358395971},{"NoteNumber":76,"Velocity":80,"Duration":147492,"SoundDuration":147492,"Delta":358543464},{"NoteNumber":68,"Velocity":64,"Duration":143266,"SoundDuration":143266,"Delta":358690957},{"NoteNumber":77,"Velocity":94,"Duration":143266,"SoundDuration":143266,"Delta":358690957},{"NoteNumber":71,"Velocity":64,"Duration":143266,"SoundDuration":143266,"Delta":358690957},{"NoteNumber":38,"Velocity":64,"Duration":143266,"SoundDuration":143266,"Delta":358690957},{"NoteNumber":50,"Velocity":64,"Duration":143266,"SoundDuration":143266,"Delta":358690957},{"NoteNumber":74,"Velocity":84,"Duration":143266,"SoundDuration":143266,"Delta":358834223},{"NoteNumber":77,"Velocity":85,"Duration":143266,"SoundDuration":143266,"Delta":358977490},{"NoteNumber":71,"Velocity":68,"Duration":143266,"SoundDuration":143266,"Delta":358977490},{"NoteNumber":68,"Velocity":68,"Duration":143266,"SoundDuration":143266,"Delta":358977490},{"NoteNumber":41,"Velocity":68,"Duration":143266,"SoundDuration":143266,"Delta":358977490},{"NoteNumber":53,"Velocity":59,"Duration":143266,"SoundDuration":143266,"Delta":358977490},{"NoteNumber":74,"Velocity":88,"Duration":157417,"SoundDuration":157417,"Delta":359120756},{"NoteNumber":81,"Velocity":95,"Duration":316790,"SoundDuration":316790,"Delta":359280842},{"NoteNumber":74,"Velocity":81,"Duration":316790,"SoundDuration":316790,"Delta":359280842},{"NoteNumber":69,"Velocity":81,"Duration":303590,"SoundDuration":303590,"Delta":359280842},{"NoteNumber":77,"Velocity":81,"Duration":316790,"SoundDuration":316790,"Delta":359280842},{"NoteNumber":53,"Velocity":64,"Duration":316790,"SoundDuration":316790,"Delta":359280842},{"NoteNumber":57,"Velocity":75,"Duration":314150,"SoundDuration":314150,"Delta":359280842},{"NoteNumber":50,"Velocity":64,"Duration":316790,"SoundDuration":316790,"Delta":359280842},{"NoteNumber":45,"Velocity":64,"Duration":316790,"SoundDuration":316790,"Delta":359280842},{"NoteNumber":69,"Velocity":78,"Duration":151209,"SoundDuration":151209,"Delta":359597632},{"NoteNumber":65,"Velocity":64,"Duration":151209,"SoundDuration":151209,"Delta":359597632},{"NoteNumber":57,"Velocity":51,"Duration":151209,"SoundDuration":151209,"Delta":359597632},{"NoteNumber":62,"Velocity":61,"Duration":151209,"SoundDuration":151209,"Delta":359597632},{"NoteNumber":65,"Velocity":64,"Duration":151209,"SoundDuration":151209,"Delta":359900051},{"NoteNumber":69,"Velocity":78,"Duration":151209,"SoundDuration":151209,"Delta":359900051},{"NoteNumber":57,"Velocity":51,"Duration":151209,"SoundDuration":151209,"Delta":359900051},{"NoteNumber":62,"Velocity":61,"Duration":151209,"SoundDuration":151209,"Delta":359900051},{"NoteNumber":65,"Velocity":64,"Duration":159235,"SoundDuration":159235,"Delta":360202471},{"NoteNumber":69,"Velocity":78,"Duration":159235,"SoundDuration":159235,"Delta":360202471},{"NoteNumber":57,"Velocity":51,"Duration":159235,"SoundDuration":159235,"Delta":360202471},{"NoteNumber":62,"Velocity":61,"Duration":159235,"SoundDuration":159235,"Delta":360202471},{"NoteNumber":81,"Velocity":97,"Duration":147492,"SoundDuration":147492,"Delta":360520942},{"NoteNumber":75,"Velocity":67,"Duration":577679,"SoundDuration":577679,"Delta":360520942},{"NoteNumber":69,"Velocity":67,"Duration":577679,"SoundDuration":577679,"Delta":360520942},{"NoteNumber":36,"Velocity":67,"Duration":147492,"SoundDuration":147492,"Delta":360520942},{"NoteNumber":48,"Velocity":67,"Duration":147492,"SoundDuration":147492,"Delta":360520942},{"NoteNumber":80,"Velocity":82,"Duration":147492,"SoundDuration":147492,"Delta":360668435},{"NoteNumber":78,"Velocity":86,"Duration":147492,"SoundDuration":147492,"Delta":360815928},{"NoteNumber":51,"Velocity":58,"Duration":147492,"SoundDuration":147492,"Delta":360815928},{"NoteNumber":39,"Velocity":68,"Duration":147492,"SoundDuration":147492,"Delta":360815928},{"NoteNumber":80,"Velocity":88,"Duration":147492,"SoundDuration":147492,"Delta":360963421},{"NoteNumber":75,"Velocity":70,"Duration":143266,"SoundDuration":143266,"Delta":361110913},{"NoteNumber":81,"Velocity":103,"Duration":143266,"SoundDuration":143266,"Delta":361110913},{"NoteNumber":71,"Velocity":70,"Duration":143266,"SoundDuration":143266,"Delta":361110913},{"NoteNumber":42,"Velocity":70,"Duration":143266,"SoundDuration":143266,"Delta":361110913},{"NoteNumber":54,"Velocity":70,"Duration":143266,"SoundDuration":143266,"Delta":361110913},{"NoteNumber":78,"Velocity":92,"Duration":143266,"SoundDuration":143266,"Delta":361254180},{"NoteNumber":71,"Velocity":74,"Duration":143266,"SoundDuration":143266,"Delta":361397446},{"NoteNumber":75,"Velocity":74,"Duration":143266,"SoundDuration":143266,"Delta":361397446},{"NoteNumber":81,"Velocity":93,"Duration":143266,"SoundDuration":143266,"Delta":361397446},{"NoteNumber":57,"Velocity":64,"Duration":143266,"SoundDuration":143266,"Delta":361397446},{"NoteNumber":45,"Velocity":74,"Duration":143266,"SoundDuration":143266,"Delta":361397446},{"NoteNumber":78,"Velocity":96,"Duration":160085,"SoundDuration":160085,"Delta":361540713},{"NoteNumber":78,"Velocity":89,"Duration":316790,"SoundDuration":316790,"Delta":361700798},{"NoteNumber":73,"Velocity":89,"Duration":303590,"SoundDuration":303590,"Delta":361700798},{"NoteNumber":85,"Velocity":104,"Duration":316790,"SoundDuration":316790,"Delta":361700798},{"NoteNumber":81,"Velocity":89,"Duration":316790,"SoundDuration":316790,"Delta":361700798},{"NoteNumber":61,"Velocity":82,"Duration":314150,"SoundDuration":314150,"Delta":361700798},{"NoteNumber":54,"Velocity":70,"Duration":316790,"SoundDuration":316790,"Delta":361700798},{"NoteNumber":57,"Velocity":70,"Duration":316790,"SoundDuration":316790,"Delta":361700798},{"NoteNumber":49,"Velocity":70,"Duration":316790,"SoundDuration":316790,"Delta":361700798},{"NoteNumber":69,"Velocity":64,"Duration":151209,"SoundDuration":151209,"Delta":362017588},{"NoteNumber":73,"Velocity":78,"Duration":151209,"SoundDuration":151209,"Delta":362017588},{"NoteNumber":61,"Velocity":51,"Duration":151209,"SoundDuration":151209,"Delta":362017588},{"NoteNumber":66,"Velocity":61,"Duration":151209,"SoundDuration":151209,"Delta":362017588},{"NoteNumber":73,"Velocity":78,"Duration":151209,"SoundDuration":151209,"Delta":362320008},{"NoteNumber":69,"Velocity":64,"Duration":151209,"SoundDuration":151209,"Delta":362320008},{"NoteNumber":61,"Velocity":51,"Duration":151209,"SoundDuration":151209,"Delta":362320008},{"NoteNumber":66,"Velocity":61,"Duration":151209,"SoundDuration":151209,"Delta":362320008},{"NoteNumber":69,"Velocity":64,"Duration":159235,"SoundDuration":159235,"Delta":362622427},{"NoteNumber":73,"Velocity":78,"Duration":159235,"SoundDuration":159235,"Delta":362622427},{"NoteNumber":61,"Velocity":51,"Duration":159235,"SoundDuration":159235,"Delta":362622427},{"NoteNumber":66,"Velocity":61,"Duration":159235,"SoundDuration":159235,"Delta":362622427},{"NoteNumber":68,"Velocity":47,"Duration":623673,"SoundDuration":623673,"Delta":362940899},{"NoteNumber":74,"Velocity":60,"Duration":159235,"SoundDuration":159235,"Delta":362940899},{"NoteNumber":59,"Velocity":38,"Duration":159235,"SoundDuration":159235,"Delta":362940899},{"NoteNumber":66,"Velocity":45,"Duration":159235,"SoundDuration":159235,"Delta":362940899},{"NoteNumber":73,"Velocity":49,"Duration":159235,"SoundDuration":159235,"Delta":363100135},{"NoteNumber":76,"Velocity":51,"Duration":159235,"SoundDuration":159235,"Delta":363259370},{"NoteNumber":59,"Velocity":34,"Duration":159235,"SoundDuration":159235,"Delta":363259370},{"NoteNumber":66,"Velocity":41,"Duration":159235,"SoundDuration":159235,"Delta":363259370},{"NoteNumber":74,"Velocity":48,"Duration":145966,"SoundDuration":145966,"Delta":363418606},{"NoteNumber":73,"Velocity":60,"Duration":158394,"SoundDuration":158394,"Delta":363577842},{"NoteNumber":71,"Velocity":47,"Duration":158394,"SoundDuration":158394,"Delta":363577842},{"NoteNumber":61,"Velocity":38,"Duration":158394,"SoundDuration":158394,"Delta":363577842},{"NoteNumber":65,"Velocity":45,"Duration":158394,"SoundDuration":158394,"Delta":363577842},{"NoteNumber":71,"Velocity":47,"Duration":163576,"SoundDuration":163576,"Delta":363894632},{"NoteNumber":73,"Velocity":52,"Duration":163576,"SoundDuration":163576,"Delta":363894632},{"NoteNumber":61,"Velocity":36,"Duration":163576,"SoundDuration":163576,"Delta":363894632},{"NoteNumber":65,"Velocity":43,"Duration":163576,"SoundDuration":163576,"Delta":363894632},{"NoteNumber":78,"Velocity":61,"Duration":166296,"SoundDuration":166296,"Delta":364224506},{"NoteNumber":66,"Velocity":51,"Duration":166296,"SoundDuration":166296,"Delta":364224506},{"NoteNumber":69,"Velocity":51,"Duration":166296,"SoundDuration":166296,"Delta":364224506},{"NoteNumber":73,"Velocity":51,"Duration":166296,"SoundDuration":166296,"Delta":364224506},{"NoteNumber":54,"Velocity":38,"Duration":665188,"SoundDuration":665188,"Delta":364224506},{"NoteNumber":61,"Velocity":45,"Duration":665188,"SoundDuration":665188,"Delta":364224506},{"NoteNumber":66,"Velocity":43,"Duration":166296,"SoundDuration":166296,"Delta":364557100},{"NoteNumber":69,"Velocity":43,"Duration":166296,"SoundDuration":166296,"Delta":364557100},{"NoteNumber":73,"Velocity":51,"Duration":166296,"SoundDuration":166296,"Delta":364557100},{"NoteNumber":66,"Velocity":43,"Duration":166296,"SoundDuration":166296,"Delta":364889694},{"NoteNumber":69,"Velocity":43,"Duration":166296,"SoundDuration":166296,"Delta":364889694},{"NoteNumber":73,"Velocity":51,"Duration":166296,"SoundDuration":166296,"Delta":364889694},{"NoteNumber":73,"Velocity":51,"Duration":176056,"SoundDuration":176056,"Delta":365222288},{"NoteNumber":66,"Velocity":43,"Duration":176056,"SoundDuration":176056,"Delta":365222288},{"NoteNumber":69,"Velocity":43,"Duration":176056,"SoundDuration":176056,"Delta":365222288},{"NoteNumber":78,"Velocity":61,"Duration":166296,"SoundDuration":166296,"Delta":365574400},{"NoteNumber":66,"Velocity":51,"Duration":166296,"SoundDuration":166296,"Delta":365574400},{"NoteNumber":69,"Velocity":51,"Duration":166296,"SoundDuration":166296,"Delta":365574400},{"NoteNumber":73,"Velocity":51,"Duration":166296,"SoundDuration":166296,"Delta":365574400},{"NoteNumber":69,"Velocity":43,"Duration":166297,"SoundDuration":166297,"Delta":365906994},{"NoteNumber":73,"Velocity":51,"Duration":166297,"SoundDuration":166297,"Delta":365906994},{"NoteNumber":66,"Velocity":43,"Duration":166297,"SoundDuration":166297,"Delta":365906994},{"NoteNumber":73,"Velocity":51,"Duration":166296,"SoundDuration":166296,"Delta":366239588},{"NoteNumber":69,"Velocity":43,"Duration":166296,"SoundDuration":166296,"Delta":366239588},{"NoteNumber":66,"Velocity":43,"Duration":166296,"SoundDuration":166296,"Delta":366239588},{"NoteNumber":69,"Velocity":43,"Duration":184729,"SoundDuration":184729,"Delta":366572182},{"NoteNumber":66,"Velocity":43,"Duration":184729,"SoundDuration":184729,"Delta":366572182},{"NoteNumber":73,"Velocity":51,"Duration":184729,"SoundDuration":184729,"Delta":366572182},{"NoteNumber":74,"Velocity":51,"Duration":342075,"SoundDuration":342075,"Delta":366941640},{"NoteNumber":72,"Velocity":51,"Duration":342075,"SoundDuration":342075,"Delta":366941640},{"NoteNumber":66,"Velocity":51,"Duration":342075,"SoundDuration":342075,"Delta":366941640},{"NoteNumber":69,"Velocity":51,"Duration":342075,"SoundDuration":342075,"Delta":366941640},{"NoteNumber":78,"Velocity":61,"Duration":342075,"SoundDuration":342075,"Delta":366941640},{"NoteNumber":62,"Velocity":45,"Duration":1740049,"SoundDuration":1740049,"Delta":366941640},{"NoteNumber":74,"Velocity":50,"Duration":307867,"SoundDuration":307867,"Delta":367283716},{"NoteNumber":72,"Velocity":42,"Duration":307867,"SoundDuration":307867,"Delta":367283716},{"NoteNumber":66,"Velocity":42,"Duration":307867,"SoundDuration":307867,"Delta":367283716},{"NoteNumber":69,"Velocity":42,"Duration":307867,"SoundDuration":307867,"Delta":367283716},{"NoteNumber":74,"Velocity":49,"Duration":171037,"SoundDuration":171037,"Delta":367625791},{"NoteNumber":72,"Velocity":41,"Duration":171037,"SoundDuration":171037,"Delta":367625791},{"NoteNumber":66,"Velocity":41,"Duration":171037,"SoundDuration":171037,"Delta":367625791},{"NoteNumber":69,"Velocity":41,"Duration":171037,"SoundDuration":171037,"Delta":367625791},{"NoteNumber":69,"Velocity":40,"Duration":185873,"SoundDuration":185873,"Delta":367967867},{"NoteNumber":72,"Velocity":40,"Duration":185873,"SoundDuration":185873,"Delta":367967867},{"NoteNumber":74,"Velocity":48,"Duration":185873,"SoundDuration":185873,"Delta":367967867},{"NoteNumber":66,"Velocity":40,"Duration":185873,"SoundDuration":185873,"Delta":367967867},{"NoteNumber":72,"Velocity":47,"Duration":342075,"SoundDuration":342075,"Delta":368339614},{"NoteNumber":74,"Velocity":47,"Duration":342075,"SoundDuration":342075,"Delta":368339614},{"NoteNumber":66,"Velocity":47,"Duration":342075,"SoundDuration":342075,"Delta":368339614},{"NoteNumber":78,"Velocity":56,"Duration":342075,"SoundDuration":342075,"Delta":368339614},{"NoteNumber":69,"Velocity":47,"Duration":342075,"SoundDuration":342075,"Delta":368339614},{"NoteNumber":74,"Velocity":46,"Duration":307867,"SoundDuration":307867,"Delta":368681689},{"NoteNumber":72,"Velocity":39,"Duration":307867,"SoundDuration":307867,"Delta":368681689},{"NoteNumber":66,"Velocity":39,"Duration":307867,"SoundDuration":307867,"Delta":368681689},{"NoteNumber":69,"Velocity":39,"Duration":307867,"SoundDuration":307867,"Delta":368681689},{"NoteNumber":62,"Velocity":37,"Duration":307867,"SoundDuration":307867,"Delta":368681689},{"NoteNumber":74,"Velocity":45,"Duration":171037,"SoundDuration":171037,"Delta":369023765},{"NoteNumber":66,"Velocity":38,"Duration":171037,"SoundDuration":171037,"Delta":369023765},{"NoteNumber":69,"Velocity":38,"Duration":171037,"SoundDuration":171037,"Delta":369023765},{"NoteNumber":72,"Velocity":38,"Duration":171037,"SoundDuration":171037,"Delta":369023765},{"NoteNumber":62,"Velocity":36,"Duration":171037,"SoundDuration":171037,"Delta":369023765},{"NoteNumber":72,"Velocity":37,"Duration":187032,"SoundDuration":187032,"Delta":369365840},{"NoteNumber":69,"Velocity":37,"Duration":187032,"SoundDuration":187032,"Delta":369365840},{"NoteNumber":66,"Velocity":37,"Duration":187032,"SoundDuration":187032,"Delta":369365840},{"NoteNumber":74,"Velocity":44,"Duration":187032,"SoundDuration":187032,"Delta":369365840},{"NoteNumber":62,"Velocity":35,"Duration":187032,"SoundDuration":187032,"Delta":369365840},{"NoteNumber":72,"Velocity":43,"Duration":346043,"SoundDuration":346043,"Delta":369739905},{"NoteNumber":74,"Velocity":43,"Duration":343126,"SoundDuration":343126,"Delta":369739905},{"NoteNumber":69,"Velocity":43,"Duration":343126,"SoundDuration":343126,"Delta":369739905},{"NoteNumber":66,"Velocity":43,"Duration":343126,"SoundDuration":343126,"Delta":369739905},{"NoteNumber":78,"Velocity":51,"Duration":346043,"SoundDuration":346043,"Delta":369739905},{"NoteNumber":62,"Velocity":38,"Duration":1780620,"SoundDuration":1780620,"Delta":369739905},{"NoteNumber":69,"Velocity":34,"Duration":319911,"SoundDuration":319911,"Delta":370085949},{"NoteNumber":66,"Velocity":34,"Duration":319911,"SoundDuration":319911,"Delta":370085949},{"NoteNumber":74,"Velocity":40,"Duration":319911,"SoundDuration":319911,"Delta":370085949},{"NoteNumber":74,"Velocity":38,"Duration":182043,"SoundDuration":182043,"Delta":370441918},{"NoteNumber":71,"Velocity":32,"Duration":182043,"SoundDuration":182043,"Delta":370441918},{"NoteNumber":67,"Velocity":32,"Duration":182043,"SoundDuration":182043,"Delta":370441918},{"NoteNumber":69,"Velocity":30,"Duration":187739,"SoundDuration":187739,"Delta":370808771},{"NoteNumber":74,"Velocity":35,"Duration":187739,"SoundDuration":187739,"Delta":370808771},{"NoteNumber":72,"Velocity":30,"Duration":187739,"SoundDuration":187739,"Delta":370808771},{"NoteNumber":71,"Velocity":42,"Duration":333333,"SoundDuration":333333,"Delta":371187192},{"NoteNumber":67,"Velocity":42,"Duration":333333,"SoundDuration":333333,"Delta":371187192},{"NoteNumber":74,"Velocity":50,"Duration":333333,"SoundDuration":333333,"Delta":371187192},{"NoteNumber":76,"Velocity":45,"Duration":333333,"SoundDuration":333333,"Delta":371557563},{"NoteNumber":71,"Velocity":38,"Duration":333333,"SoundDuration":333333,"Delta":371557563},{"NoteNumber":67,"Velocity":38,"Duration":333333,"SoundDuration":333333,"Delta":371557563},{"NoteNumber":64,"Velocity":32,"Duration":333333,"SoundDuration":333333,"Delta":371557563},{"NoteNumber":71,"Velocity":38,"Duration":333333,"SoundDuration":333333,"Delta":371927933},{"NoteNumber":78,"Velocity":45,"Duration":333333,"SoundDuration":333333,"Delta":371927933},{"NoteNumber":67,"Velocity":38,"Duration":333333,"SoundDuration":333333,"Delta":371927933},{"NoteNumber":66,"Velocity":32,"Duration":333333,"SoundDuration":333333,"Delta":371927933},{"NoteNumber":79,"Velocity":45,"Duration":348450,"SoundDuration":348450,"Delta":372298304},{"NoteNumber":67,"Velocity":38,"Duration":348450,"SoundDuration":348450,"Delta":372298304},{"NoteNumber":71,"Velocity":38,"Duration":348450,"SoundDuration":348450,"Delta":372298304},{"NoteNumber":67,"Velocity":32,"Duration":348450,"SoundDuration":348450,"Delta":372298304},{"NoteNumber":71,"Velocity":53,"Duration":331288,"SoundDuration":331288,"Delta":372687571},{"NoteNumber":67,"Velocity":45,"Duration":331288,"SoundDuration":331288,"Delta":372687571},{"NoteNumber":79,"Velocity":53,"Duration":331288,"SoundDuration":331288,"Delta":372687571},{"NoteNumber":43,"Velocity":45,"Duration":92024,"SoundDuration":92024,"Delta":372687571},{"NoteNumber":55,"Velocity":36,"Duration":184048,"SoundDuration":184048,"Delta":372871620},{"NoteNumber":67,"Velocity":35,"Duration":319526,"SoundDuration":319526,"Delta":373055669},{"NoteNumber":71,"Velocity":41,"Duration":319526,"SoundDuration":319526,"Delta":373055669},{"NoteNumber":59,"Velocity":38,"Duration":177514,"SoundDuration":177514,"Delta":373055669},{"NoteNumber":55,"Velocity":37,"Duration":177514,"SoundDuration":177514,"Delta":373233184},{"NoteNumber":67,"Velocity":37,"Duration":319526,"SoundDuration":319526,"Delta":373410698},{"NoteNumber":71,"Velocity":44,"Duration":319526,"SoundDuration":319526,"Delta":373410698},{"NoteNumber":62,"Velocity":42,"Duration":177514,"SoundDuration":177514,"Delta":373410698},{"NoteNumber":55,"Velocity":34,"Duration":177514,"SoundDuration":177514,"Delta":373588213},{"NoteNumber":71,"Velocity":41,"Duration":343031,"SoundDuration":343031,"Delta":373765728},{"NoteNumber":67,"Velocity":35,"Duration":343031,"SoundDuration":343031,"Delta":373765728},{"NoteNumber":59,"Velocity":36,"Duration":177514,"SoundDuration":177514,"Delta":373765728},{"NoteNumber":55,"Velocity":36,"Duration":206896,"SoundDuration":206896,"Delta":373943243},{"NoteNumber":67,"Velocity":44,"Duration":323353,"SoundDuration":323353,"Delta":374150139},{"NoteNumber":79,"Velocity":52,"Duration":323353,"SoundDuration":323353,"Delta":374150139},{"NoteNumber":70,"Velocity":44,"Duration":323353,"SoundDuration":323353,"Delta":374150139},{"NoteNumber":43,"Velocity":49,"Duration":89820,"SoundDuration":89820,"Delta":374150139},{"NoteNumber":55,"Velocity":36,"Duration":179640,"SoundDuration":179640,"Delta":374329780},{"NoteNumber":73,"Velocity":42,"Duration":323353,"SoundDuration":323353,"Delta":374509421},{"NoteNumber":67,"Velocity":36,"Duration":323353,"SoundDuration":323353,"Delta":374509421},{"NoteNumber":70,"Velocity":36,"Duration":323353,"SoundDuration":323353,"Delta":374509421},{"NoteNumber":58,"Velocity":36,"Duration":179640,"SoundDuration":179640,"Delta":374509421},{"NoteNumber":55,"Velocity":34,"Duration":179640,"SoundDuration":179640,"Delta":374689061},{"NoteNumber":67,"Velocity":38,"Duration":323353,"SoundDuration":323353,"Delta":374868702},{"NoteNumber":73,"Velocity":45,"Duration":323353,"SoundDuration":323353,"Delta":374868702},{"NoteNumber":70,"Velocity":38,"Duration":323353,"SoundDuration":323353,"Delta":374868702},{"NoteNumber":64,"Velocity":42,"Duration":179640,"SoundDuration":179640,"Delta":374868702},{"NoteNumber":55,"Velocity":35,"Duration":179640,"SoundDuration":179640,"Delta":375048343},{"NoteNumber":73,"Velocity":42,"Duration":393926,"SoundDuration":393926,"Delta":375227984},{"NoteNumber":70,"Velocity":36,"Duration":393926,"SoundDuration":393926,"Delta":375227984},{"NoteNumber":67,"Velocity":36,"Duration":393926,"SoundDuration":393926,"Delta":375227984},{"NoteNumber":58,"Velocity":37,"Duration":179640,"SoundDuration":179640,"Delta":375227984},{"NoteNumber":55,"Velocity":35,"Duration":267857,"SoundDuration":267857,"Delta":375407624},{"NoteNumber":71,"Velocity":48,"Duration":1425725,"SoundDuration":1425725,"Delta":375675482},{"NoteNumber":74,"Velocity":57,"Duration":1425725,"SoundDuration":1425725,"Delta":375675482},{"NoteNumber":67,"Velocity":48,"Duration":1425725,"SoundDuration":1425725,"Delta":375675482},{"NoteNumber":43,"Velocity":45,"Duration":98684,"SoundDuration":98684,"Delta":375675482},{"NoteNumber":55,"Velocity":35,"Duration":177514,"SoundDuration":177514,"Delta":375872850},{"NoteNumber":59,"Velocity":38,"Duration":177514,"SoundDuration":177514,"Delta":376050365},{"NoteNumber":55,"Velocity":34,"Duration":177514,"SoundDuration":177514,"Delta":376227880},{"NoteNumber":62,"Velocity":42,"Duration":172413,"SoundDuration":172413,"Delta":376405394},{"NoteNumber":55,"Velocity":33,"Duration":172413,"SoundDuration":172413,"Delta":376577808},{"NoteNumber":59,"Velocity":36,"Duration":172413,"SoundDuration":172413,"Delta":376750222},{"NoteNumber":55,"Velocity":34,"Duration":178571,"SoundDuration":178571,"Delta":376922636},{"NoteNumber":71,"Velocity":42,"Duration":339622,"SoundDuration":339622,"Delta":377101207},{"NoteNumber":67,"Velocity":42,"Duration":339622,"SoundDuration":339622,"Delta":377101207},{"NoteNumber":76,"Velocity":50,"Duration":339622,"SoundDuration":339622,"Delta":377101207},{"NoteNumber":64,"Velocity":35,"Duration":339622,"SoundDuration":339622,"Delta":377101207},{"NoteNumber":74,"Velocity":45,"Duration":331288,"SoundDuration":331288,"Delta":377478566},{"NoteNumber":71,"Velocity":38,"Duration":331288,"SoundDuration":331288,"Delta":377478566},{"NoteNumber":67,"Velocity":38,"Duration":331288,"SoundDuration":331288,"Delta":377478566},{"NoteNumber":62,"Velocity":32,"Duration":331288,"SoundDuration":331288,"Delta":377478566},{"NoteNumber":67,"Velocity":38,"Duration":331288,"SoundDuration":331288,"Delta":377846664},{"NoteNumber":71,"Velocity":45,"Duration":331288,"SoundDuration":331288,"Delta":377846664},{"NoteNumber":59,"Velocity":32,"Duration":331288,"SoundDuration":331288,"Delta":377846664},{"NoteNumber":67,"Velocity":45,"Duration":347314,"SoundDuration":347314,"Delta":378214762},{"NoteNumber":55,"Velocity":38,"Duration":347314,"SoundDuration":347314,"Delta":378214762},{"NoteNumber":67,"Velocity":53,"Duration":331288,"SoundDuration":331288,"Delta":378602892},{"NoteNumber":71,"Velocity":53,"Duration":331288,"SoundDuration":331288,"Delta":378602892},{"NoteNumber":62,"Velocity":45,"Duration":331288,"SoundDuration":331288,"Delta":378602892},{"NoteNumber":38,"Velocity":45,"Duration":92024,"SoundDuration":92024,"Delta":378602892},{"NoteNumber":50,"Velocity":36,"Duration":184048,"SoundDuration":184048,"Delta":378786941},{"NoteNumber":69,"Velocity":41,"Duration":319526,"SoundDuration":319526,"Delta":378970990},{"NoteNumber":62,"Velocity":35,"Duration":319526,"SoundDuration":319526,"Delta":378970990},{"NoteNumber":66,"Velocity":35,"Duration":355029,"SoundDuration":355029,"Delta":378970990},{"NoteNumber":54,"Velocity":38,"Duration":177514,"SoundDuration":177514,"Delta":378970990},{"NoteNumber":50,"Velocity":36,"Duration":177514,"SoundDuration":177514,"Delta":379148505},{"NoteNumber":66,"Velocity":37,"Duration":359281,"SoundDuration":359281,"Delta":379326020},{"NoteNumber":62,"Velocity":37,"Duration":323353,"SoundDuration":323353,"Delta":379326020},{"NoteNumber":69,"Velocity":44,"Duration":323353,"SoundDuration":323353,"Delta":379326020},{"NoteNumber":57,"Velocity":42,"Duration":179640,"SoundDuration":179640,"Delta":379326020},{"NoteNumber":50,"Velocity":35,"Duration":179640,"SoundDuration":179640,"Delta":379505661},{"NoteNumber":66,"Velocity":35,"Duration":386537,"SoundDuration":386537,"Delta":379685301},{"NoteNumber":69,"Velocity":41,"Duration":345157,"SoundDuration":345157,"Delta":379685301},{"NoteNumber":62,"Velocity":35,"Duration":345157,"SoundDuration":345157,"Delta":379685301},{"NoteNumber":54,"Velocity":36,"Duration":179640,"SoundDuration":179640,"Delta":379685301},{"NoteNumber":50,"Velocity":35,"Duration":206896,"SoundDuration":206896,"Delta":379864942},{"NoteNumber":76,"Velocity":52,"Duration":323353,"SoundDuration":323353,"Delta":380071839},{"NoteNumber":70,"Velocity":44,"Duration":323353,"SoundDuration":323353,"Delta":380071839},{"NoteNumber":67,"Velocity":44,"Duration":323353,"SoundDuration":323353,"Delta":380071839},{"NoteNumber":45,"Velocity":49,"Duration":89820,"SoundDuration":89820,"Delta":380071839},{"NoteNumber":52,"Velocity":35,"Duration":179640,"SoundDuration":179640,"Delta":380251479},{"NoteNumber":73,"Velocity":42,"Duration":323353,"SoundDuration":323353,"Delta":380431120},{"NoteNumber":67,"Velocity":36,"Duration":323353,"SoundDuration":323353,"Delta":380431120},{"NoteNumber":70,"Velocity":36,"Duration":323353,"SoundDuration":323353,"Delta":380431120},{"NoteNumber":55,"Velocity":36,"Duration":179640,"SoundDuration":179640,"Delta":380431120},{"NoteNumber":52,"Velocity":35,"Duration":179640,"SoundDuration":179640,"Delta":380610761},{"NoteNumber":70,"Velocity":38,"Duration":323353,"SoundDuration":323353,"Delta":380790402},{"NoteNumber":73,"Velocity":45,"Duration":323353,"SoundDuration":323353,"Delta":380790402},{"NoteNumber":67,"Velocity":38,"Duration":323353,"SoundDuration":323353,"Delta":380790402},{"NoteNumber":57,"Velocity":42,"Duration":179640,"SoundDuration":179640,"Delta":380790402},{"NoteNumber":52,"Velocity":35,"Duration":179640,"SoundDuration":179640,"Delta":380970042},{"NoteNumber":70,"Velocity":36,"Duration":357418,"SoundDuration":357418,"Delta":381149683},{"NoteNumber":73,"Velocity":42,"Duration":357418,"SoundDuration":357418,"Delta":381149683},{"NoteNumber":67,"Velocity":36,"Duration":357418,"SoundDuration":357418,"Delta":381149683},{"NoteNumber":55,"Velocity":37,"Duration":179640,"SoundDuration":179640,"Delta":381149683},{"NoteNumber":52,"Velocity":36,"Duration":222222,"SoundDuration":222222,"Delta":381329324},{"NoteNumber":74,"Velocity":57,"Duration":1425725,"SoundDuration":1425725,"Delta":381551546},{"NoteNumber":66,"Velocity":48,"Duration":1425725,"SoundDuration":1425725,"Delta":381551546},{"NoteNumber":69,"Velocity":48,"Duration":1425725,"SoundDuration":1425725,"Delta":381551546},{"NoteNumber":38,"Velocity":45,"Duration":98684,"SoundDuration":98684,"Delta":381551546},{"NoteNumber":50,"Velocity":35,"Duration":177514,"SoundDuration":177514,"Delta":381748915},{"NoteNumber":54,"Velocity":38,"Duration":177514,"SoundDuration":177514,"Delta":381926429},{"NoteNumber":50,"Velocity":36,"Duration":177514,"SoundDuration":177514,"Delta":382103944},{"NoteNumber":57,"Velocity":42,"Duration":172413,"SoundDuration":172413,"Delta":382281459},{"NoteNumber":50,"Velocity":34,"Duration":172413,"SoundDuration":172413,"Delta":382453873},{"NoteNumber":61,"Velocity":36,"Duration":172413,"SoundDuration":172413,"Delta":382626286},{"NoteNumber":50,"Velocity":34,"Duration":178571,"SoundDuration":178571,"Delta":382798700},{"NoteNumber":74,"Velocity":50,"Duration":333333,"SoundDuration":333333,"Delta":382977272},{"NoteNumber":69,"Velocity":42,"Duration":333333,"SoundDuration":333333,"Delta":382977272},{"NoteNumber":65,"Velocity":42,"Duration":333333,"SoundDuration":333333,"Delta":382977272},{"NoteNumber":62,"Velocity":35,"Duration":333333,"SoundDuration":333333,"Delta":382977272},{"NoteNumber":69,"Velocity":39,"Duration":323353,"SoundDuration":323353,"Delta":383347642},{"NoteNumber":65,"Velocity":39,"Duration":323353,"SoundDuration":323353,"Delta":383347642},{"NoteNumber":74,"Velocity":47,"Duration":323353,"SoundDuration":323353,"Delta":383347642},{"NoteNumber":62,"Velocity":33,"Duration":323353,"SoundDuration":323353,"Delta":383347642},{"NoteNumber":69,"Velocity":41,"Duration":323353,"SoundDuration":323353,"Delta":383706924},{"NoteNumber":65,"Velocity":41,"Duration":323353,"SoundDuration":323353,"Delta":383706924},{"NoteNumber":76,"Velocity":49,"Duration":323353,"SoundDuration":323353,"Delta":383706924},{"NoteNumber":64,"Velocity":35,"Duration":323353,"SoundDuration":323353,"Delta":383706924},{"NoteNumber":69,"Velocity":43,"Duration":342906,"SoundDuration":342906,"Delta":384066205},{"NoteNumber":77,"Velocity":51,"Duration":342906,"SoundDuration":342906,"Delta":384066205},{"NoteNumber":65,"Velocity":36,"Duration":342906,"SoundDuration":342906,"Delta":384066205},{"NoteNumber":68,"Velocity":53,"Duration":331288,"SoundDuration":331288,"Delta":384449928},{"NoteNumber":77,"Velocity":53,"Duration":331288,"SoundDuration":331288,"Delta":384449928},{"NoteNumber":64,"Velocity":45,"Duration":331288,"SoundDuration":331288,"Delta":384449928},{"NoteNumber":40,"Velocity":45,"Duration":92024,"SoundDuration":92024,"Delta":384449928},{"NoteNumber":52,"Velocity":36,"Duration":184048,"SoundDuration":184048,"Delta":384633977},{"NoteNumber":68,"Velocity":35,"Duration":355029,"SoundDuration":355029,"Delta":384818026},{"NoteNumber":64,"Velocity":35,"Duration":319526,"SoundDuration":319526,"Delta":384818026},{"NoteNumber":71,"Velocity":41,"Duration":319526,"SoundDuration":319526,"Delta":384818026},{"NoteNumber":56,"Velocity":38,"Duration":177514,"SoundDuration":177514,"Delta":384818026},{"NoteNumber":52,"Velocity":36,"Duration":177514,"SoundDuration":177514,"Delta":384995540},{"NoteNumber":68,"Velocity":37,"Duration":355029,"SoundDuration":355029,"Delta":385173055},{"NoteNumber":71,"Velocity":44,"Duration":319526,"SoundDuration":319526,"Delta":385173055},{"NoteNumber":64,"Velocity":37,"Duration":319526,"SoundDuration":319526,"Delta":385173055},{"NoteNumber":62,"Velocity":42,"Duration":177514,"SoundDuration":177514,"Delta":385173055},{"NoteNumber":52,"Velocity":35,"Duration":177514,"SoundDuration":177514,"Delta":385350570},{"NoteNumber":68,"Velocity":35,"Duration":384411,"SoundDuration":384411,"Delta":385528085},{"NoteNumber":64,"Velocity":35,"Duration":343031,"SoundDuration":343031,"Delta":385528085},{"NoteNumber":71,"Velocity":41,"Duration":343031,"SoundDuration":343031,"Delta":385528085},{"NoteNumber":56,"Velocity":36,"Duration":177514,"SoundDuration":177514,"Delta":385528085},{"NoteNumber":52,"Velocity":35,"Duration":206896,"SoundDuration":206896,"Delta":385705599},{"NoteNumber":64,"Velocity":44,"Duration":323353,"SoundDuration":323353,"Delta":385912496},{"NoteNumber":69,"Velocity":44,"Duration":323353,"SoundDuration":323353,"Delta":385912496},{"NoteNumber":72,"Velocity":52,"Duration":323353,"SoundDuration":323353,"Delta":385912496},{"NoteNumber":45,"Velocity":49,"Duration":89820,"SoundDuration":89820,"Delta":385912496},{"NoteNumber":52,"Velocity":34,"Duration":179640,"SoundDuration":179640,"Delta":386092137},{"NoteNumber":72,"Velocity":45,"Duration":323353,"SoundDuration":323353,"Delta":386271777},{"NoteNumber":64,"Velocity":38,"Duration":323353,"SoundDuration":323353,"Delta":386271777},{"NoteNumber":69,"Velocity":38,"Duration":323353,"SoundDuration":323353,"Delta":386271777},{"NoteNumber":57,"Velocity":36,"Duration":179640,"SoundDuration":179640,"Delta":386271777},{"NoteNumber":52,"Velocity":35,"Duration":179640,"SoundDuration":179640,"Delta":386451418},{"NoteNumber":74,"Velocity":45,"Duration":323353,"SoundDuration":323353,"Delta":386631059},{"NoteNumber":64,"Velocity":38,"Duration":323353,"SoundDuration":323353,"Delta":386631059},{"NoteNumber":69,"Velocity":38,"Duration":323353,"SoundDuration":323353,"Delta":386631059},{"NoteNumber":60,"Velocity":42,"Duration":179640,"SoundDuration":179640,"Delta":386631059},{"NoteNumber":52,"Velocity":36,"Duration":179640,"SoundDuration":179640,"Delta":386810700},{"NoteNumber":76,"Velocity":45,"Duration":345157,"SoundDuration":345157,"Delta":386990340},{"NoteNumber":64,"Velocity":38,"Duration":345157,"SoundDuration":345157,"Delta":386990340},{"NoteNumber":67,"Velocity":38,"Duration":345157,"SoundDuration":345157,"Delta":386990340},{"NoteNumber":59,"Velocity":37,"Duration":179640,"SoundDuration":179640,"Delta":386990340},{"NoteNumber":52,"Velocity":35,"Duration":206896,"SoundDuration":206896,"Delta":387169981},{"NoteNumber":66,"Velocity":53,"Duration":331288,"SoundDuration":331288,"Delta":387376878},{"NoteNumber":76,"Velocity":53,"Duration":331288,"SoundDuration":331288,"Delta":387376878},{"NoteNumber":62,"Velocity":45,"Duration":331288,"SoundDuration":331288,"Delta":387376878},{"NoteNumber":38,"Velocity":45,"Duration":92024,"SoundDuration":92024,"Delta":387376878},{"NoteNumber":50,"Velocity":36,"Duration":184048,"SoundDuration":184048,"Delta":387560927},{"NoteNumber":62,"Velocity":35,"Duration":319526,"SoundDuration":319526,"Delta":387744976},{"NoteNumber":69,"Velocity":41,"Duration":319526,"SoundDuration":319526,"Delta":387744976},{"NoteNumber":66,"Velocity":35,"Duration":355029,"SoundDuration":355029,"Delta":387744976},{"NoteNumber":54,"Velocity":38,"Duration":177514,"SoundDuration":177514,"Delta":387744976},{"NoteNumber":50,"Velocity":35,"Duration":177514,"SoundDuration":177514,"Delta":387922490},{"NoteNumber":62,"Velocity":37,"Duration":323353,"SoundDuration":323353,"Delta":388100005},{"NoteNumber":66,"Velocity":37,"Duration":359281,"SoundDuration":359281,"Delta":388100005},{"NoteNumber":69,"Velocity":44,"Duration":323353,"SoundDuration":323353,"Delta":388100005},{"NoteNumber":60,"Velocity":42,"Duration":179640,"SoundDuration":179640,"Delta":388100005},{"NoteNumber":50,"Velocity":36,"Duration":179640,"SoundDuration":179640,"Delta":388279646},{"NoteNumber":62,"Velocity":35,"Duration":345157,"SoundDuration":345157,"Delta":388459287},{"NoteNumber":66,"Velocity":35,"Duration":386537,"SoundDuration":386537,"Delta":388459287},{"NoteNumber":69,"Velocity":41,"Duration":345157,"SoundDuration":345157,"Delta":388459287},{"NoteNumber":54,"Velocity":36,"Duration":179640,"SoundDuration":179640,"Delta":388459287},{"NoteNumber":50,"Velocity":36,"Duration":206896,"SoundDuration":206896,"Delta":388638927},{"NoteNumber":71,"Velocity":52,"Duration":346153,"SoundDuration":346153,"Delta":388845824},{"NoteNumber":67,"Velocity":44,"Duration":346153,"SoundDuration":346153,"Delta":388845824},{"NoteNumber":62,"Velocity":44,"Duration":346153,"SoundDuration":346153,"Delta":388845824},{"NoteNumber":55,"Velocity":42,"Duration":192307,"SoundDuration":192307,"Delta":388845824},{"NoteNumber":50,"Velocity":43,"Duration":192307,"SoundDuration":192307,"Delta":389038132},{"NoteNumber":62,"Velocity":45,"Duration":321428,"SoundDuration":321428,"Delta":389230439},{"NoteNumber":76,"Velocity":54,"Duration":321428,"SoundDuration":321428,"Delta":389230439},{"NoteNumber":67,"Velocity":45,"Duration":321428,"SoundDuration":321428,"Delta":389230439},{"NoteNumber":60,"Velocity":43,"Duration":178571,"SoundDuration":178571,"Delta":389230439},{"NoteNumber":50,"Velocity":42,"Duration":178571,"SoundDuration":178571,"Delta":389409011},{"NoteNumber":67,"Velocity":43,"Duration":321428,"SoundDuration":321428,"Delta":389587582},{"NoteNumber":74,"Velocity":51,"Duration":321428,"SoundDuration":321428,"Delta":389587582},{"NoteNumber":62,"Velocity":43,"Duration":321428,"SoundDuration":321428,"Delta":389587582},{"NoteNumber":59,"Velocity":47,"Duration":178571,"SoundDuration":178571,"Delta":389587582},{"NoteNumber":50,"Velocity":40,"Duration":178571,"SoundDuration":178571,"Delta":389766154},{"NoteNumber":62,"Velocity":40,"Duration":356349,"SoundDuration":356349,"Delta":389944725},{"NoteNumber":67,"Velocity":40,"Duration":356349,"SoundDuration":356349,"Delta":389944725},{"NoteNumber":71,"Velocity":48,"Duration":356349,"SoundDuration":356349,"Delta":389944725},{"NoteNumber":55,"Velocity":39,"Duration":178571,"SoundDuration":178571,"Delta":389944725},{"NoteNumber":50,"Velocity":38,"Duration":222222,"SoundDuration":222222,"Delta":390123297},{"NoteNumber":66,"Velocity":53,"Duration":331288,"SoundDuration":331288,"Delta":390345519},{"NoteNumber":62,"Velocity":45,"Duration":331288,"SoundDuration":331288,"Delta":390345519},{"NoteNumber":74,"Velocity":53,"Duration":331288,"SoundDuration":331288,"Delta":390345519},{"NoteNumber":38,"Velocity":45,"Duration":92024,"SoundDuration":92024,"Delta":390345519},{"NoteNumber":50,"Velocity":36,"Duration":184048,"SoundDuration":184048,"Delta":390529568},{"NoteNumber":69,"Velocity":41,"Duration":319526,"SoundDuration":319526,"Delta":390713617},{"NoteNumber":62,"Velocity":35,"Duration":319526,"SoundDuration":319526,"Delta":390713617},{"NoteNumber":66,"Velocity":35,"Duration":355029,"SoundDuration":355029,"Delta":390713617},{"NoteNumber":54,"Velocity":38,"Duration":177514,"SoundDuration":177514,"Delta":390713617},{"NoteNumber":50,"Velocity":38,"Duration":177514,"SoundDuration":177514,"Delta":390891132},{"NoteNumber":62,"Velocity":37,"Duration":323353,"SoundDuration":323353,"Delta":391068647},{"NoteNumber":69,"Velocity":44,"Duration":323353,"SoundDuration":323353,"Delta":391068647},{"NoteNumber":66,"Velocity":37,"Duration":359281,"SoundDuration":359281,"Delta":391068647},{"NoteNumber":60,"Velocity":42,"Duration":179640,"SoundDuration":179640,"Delta":391068647},{"NoteNumber":50,"Velocity":34,"Duration":179640,"SoundDuration":179640,"Delta":391248287},{"NoteNumber":66,"Velocity":35,"Duration":386537,"SoundDuration":386537,"Delta":391427928},{"NoteNumber":69,"Velocity":41,"Duration":345157,"SoundDuration":345157,"Delta":391427928},{"NoteNumber":62,"Velocity":35,"Duration":345157,"SoundDuration":345157,"Delta":391427928},{"NoteNumber":54,"Velocity":36,"Duration":179640,"SoundDuration":179640,"Delta":391427928},{"NoteNumber":50,"Velocity":34,"Duration":206896,"SoundDuration":206896,"Delta":391607569},{"NoteNumber":71,"Velocity":52,"Duration":341772,"SoundDuration":341772,"Delta":391814465},{"NoteNumber":62,"Velocity":44,"Duration":341772,"SoundDuration":341772,"Delta":391814465},{"NoteNumber":67,"Velocity":44,"Duration":341772,"SoundDuration":341772,"Delta":391814465},{"NoteNumber":55,"Velocity":42,"Duration":189873,"SoundDuration":189873,"Delta":391814465},{"NoteNumber":50,"Velocity":44,"Duration":189873,"SoundDuration":189873,"Delta":392004339},{"NoteNumber":62,"Velocity":45,"Duration":321428,"SoundDuration":321428,"Delta":392194212},{"NoteNumber":76,"Velocity":54,"Duration":321428,"SoundDuration":321428,"Delta":392194212},{"NoteNumber":67,"Velocity":45,"Duration":321428,"SoundDuration":321428,"Delta":392194212},{"NoteNumber":60,"Velocity":43,"Duration":178571,"SoundDuration":178571,"Delta":392194212},{"NoteNumber":50,"Velocity":42,"Duration":178571,"SoundDuration":178571,"Delta":392372784},{"NoteNumber":74,"Velocity":51,"Duration":321428,"SoundDuration":321428,"Delta":392551355},{"NoteNumber":67,"Velocity":43,"Duration":321428,"SoundDuration":321428,"Delta":392551355},{"NoteNumber":62,"Velocity":43,"Duration":321428,"SoundDuration":321428,"Delta":392551355},{"NoteNumber":59,"Velocity":47,"Duration":178571,"SoundDuration":178571,"Delta":392551355},{"NoteNumber":50,"Velocity":40,"Duration":178571,"SoundDuration":178571,"Delta":392729927},{"NoteNumber":62,"Velocity":40,"Duration":356349,"SoundDuration":356349,"Delta":392908498},{"NoteNumber":67,"Velocity":40,"Duration":356349,"SoundDuration":356349,"Delta":392908498},{"NoteNumber":71,"Velocity":48,"Duration":356349,"SoundDuration":356349,"Delta":392908498},{"NoteNumber":55,"Velocity":39,"Duration":178571,"SoundDuration":178571,"Delta":392908498},{"NoteNumber":50,"Velocity":38,"Duration":222222,"SoundDuration":222222,"Delta":393087070},{"NoteNumber":66,"Velocity":39,"Duration":362416,"SoundDuration":362416,"Delta":393309292},{"NoteNumber":74,"Velocity":47,"Duration":362416,"SoundDuration":362416,"Delta":393309292},{"NoteNumber":62,"Velocity":39,"Duration":362416,"SoundDuration":362416,"Delta":393309292},{"NoteNumber":38,"Velocity":45,"Duration":100671,"SoundDuration":100671,"Delta":393309292},{"NoteNumber":50,"Velocity":36,"Duration":201342,"SoundDuration":201342,"Delta":393510634},{"NoteNumber":66,"Velocity":34,"Duration":384615,"SoundDuration":384615,"Delta":393711977},{"NoteNumber":62,"Velocity":34,"Duration":346153,"SoundDuration":346153,"Delta":393711977},{"NoteNumber":69,"Velocity":40,"Duration":346153,"SoundDuration":346153,"Delta":393711977},{"NoteNumber":54,"Velocity":38,"Duration":192307,"SoundDuration":192307,"Delta":393711977},{"NoteNumber":50,"Velocity":35,"Duration":192307,"SoundDuration":192307,"Delta":393904284},{"NoteNumber":74,"Velocity":36,"Duration":372413,"SoundDuration":372413,"Delta":394096592},{"NoteNumber":66,"Velocity":30,"Duration":413792,"SoundDuration":413792,"Delta":394096592},{"NoteNumber":69,"Velocity":30,"Duration":372413,"SoundDuration":372413,"Delta":394096592},{"NoteNumber":57,"Velocity":42,"Duration":206896,"SoundDuration":206896,"Delta":394096592},{"NoteNumber":50,"Velocity":29,"Duration":206896,"SoundDuration":206896,"Delta":394303489},{"NoteNumber":66,"Velocity":28,"Duration":557102,"SoundDuration":557102,"Delta":394510385},{"NoteNumber":74,"Velocity":33,"Duration":501392,"SoundDuration":501392,"Delta":394510385},{"NoteNumber":70,"Velocity":28,"Duration":501392,"SoundDuration":501392,"Delta":394510385},{"NoteNumber":60,"Velocity":36,"Duration":278551,"SoundDuration":278551,"Delta":394510385},{"NoteNumber":50,"Velocity":28,"Duration":278551,"SoundDuration":278551,"Delta":394788937},{"NoteNumber":71,"Velocity":37,"Duration":333333,"SoundDuration":333333,"Delta":395067488},{"NoteNumber":74,"Velocity":45,"Duration":333333,"SoundDuration":333333,"Delta":395067488},{"NoteNumber":67,"Velocity":37,"Duration":333333,"SoundDuration":333333,"Delta":395067488},{"NoteNumber":59,"Velocity":36,"Duration":370370,"SoundDuration":370370,"Delta":395067488},{"NoteNumber":55,"Velocity":30,"Duration":370370,"SoundDuration":370370,"Delta":395067488},{"NoteNumber":76,"Velocity":45,"Duration":333333,"SoundDuration":333333,"Delta":395437859},{"NoteNumber":67,"Velocity":38,"Duration":333333,"SoundDuration":333333,"Delta":395437859},{"NoteNumber":71,"Velocity":38,"Duration":333333,"SoundDuration":333333,"Delta":395437859},{"NoteNumber":78,"Velocity":45,"Duration":333333,"SoundDuration":333333,"Delta":395808229},{"NoteNumber":71,"Velocity":38,"Duration":333333,"SoundDuration":333333,"Delta":395808229},{"NoteNumber":67,"Velocity":38,"Duration":333333,"SoundDuration":333333,"Delta":395808229},{"NoteNumber":67,"Velocity":38,"Duration":348450,"SoundDuration":348450,"Delta":396178600},{"NoteNumber":79,"Velocity":45,"Duration":348450,"SoundDuration":348450,"Delta":396178600},{"NoteNumber":71,"Velocity":38,"Duration":348450,"SoundDuration":348450,"Delta":396178600},{"NoteNumber":71,"Velocity":53,"Duration":331288,"SoundDuration":331288,"Delta":396567867},{"NoteNumber":67,"Velocity":45,"Duration":331288,"SoundDuration":331288,"Delta":396567867},{"NoteNumber":79,"Velocity":53,"Duration":331288,"SoundDuration":331288,"Delta":396567867},{"NoteNumber":43,"Velocity":45,"Duration":92024,"SoundDuration":92024,"Delta":396567867},{"NoteNumber":55,"Velocity":36,"Duration":184048,"SoundDuration":184048,"Delta":396751916},{"NoteNumber":67,"Velocity":35,"Duration":319526,"SoundDuration":319526,"Delta":396935965},{"NoteNumber":71,"Velocity":41,"Duration":319526,"SoundDuration":319526,"Delta":396935965},{"NoteNumber":59,"Velocity":38,"Duration":177514,"SoundDuration":177514,"Delta":396935965},{"NoteNumber":55,"Velocity":36,"Duration":177514,"SoundDuration":177514,"Delta":397113479},{"NoteNumber":67,"Velocity":37,"Duration":319526,"SoundDuration":319526,"Delta":397290994},{"NoteNumber":71,"Velocity":44,"Duration":319526,"SoundDuration":319526,"Delta":397290994},{"NoteNumber":62,"Velocity":42,"Duration":177514,"SoundDuration":177514,"Delta":397290994},{"NoteNumber":55,"Velocity":34,"Duration":177514,"SoundDuration":177514,"Delta":397468509},{"NoteNumber":67,"Velocity":35,"Duration":343031,"SoundDuration":343031,"Delta":397646024},{"NoteNumber":71,"Velocity":41,"Duration":343031,"SoundDuration":343031,"Delta":397646024},{"NoteNumber":59,"Velocity":36,"Duration":177514,"SoundDuration":177514,"Delta":397646024},{"NoteNumber":55,"Velocity":34,"Duration":206896,"SoundDuration":206896,"Delta":397823538},{"NoteNumber":79,"Velocity":52,"Duration":323353,"SoundDuration":323353,"Delta":398030435},{"NoteNumber":67,"Velocity":44,"Duration":323353,"SoundDuration":323353,"Delta":398030435},{"NoteNumber":70,"Velocity":44,"Duration":323353,"SoundDuration":323353,"Delta":398030435},{"NoteNumber":43,"Velocity":49,"Duration":89820,"SoundDuration":89820,"Delta":398030435},{"NoteNumber":55,"Velocity":35,"Duration":179640,"SoundDuration":179640,"Delta":398210076},{"NoteNumber":67,"Velocity":38,"Duration":323353,"SoundDuration":323353,"Delta":398389716},{"NoteNumber":70,"Velocity":38,"Duration":323353,"SoundDuration":323353,"Delta":398389716},{"NoteNumber":73,"Velocity":45,"Duration":323353,"SoundDuration":323353,"Delta":398389716},{"NoteNumber":58,"Velocity":36,"Duration":179640,"SoundDuration":179640,"Delta":398389716},{"NoteNumber":55,"Velocity":35,"Duration":179640,"SoundDuration":179640,"Delta":398569357},{"NoteNumber":70,"Velocity":38,"Duration":323353,"SoundDuration":323353,"Delta":398748998},{"NoteNumber":67,"Velocity":38,"Duration":323353,"SoundDuration":323353,"Delta":398748998},{"NoteNumber":73,"Velocity":45,"Duration":323353,"SoundDuration":323353,"Delta":398748998},{"NoteNumber":64,"Velocity":42,"Duration":179640,"SoundDuration":179640,"Delta":398748998},{"NoteNumber":55,"Velocity":36,"Duration":179640,"SoundDuration":179640,"Delta":398928639},{"NoteNumber":67,"Velocity":38,"Duration":393926,"SoundDuration":393926,"Delta":399108279},{"NoteNumber":73,"Velocity":45,"Duration":393926,"SoundDuration":393926,"Delta":399108279},{"NoteNumber":70,"Velocity":38,"Duration":393926,"SoundDuration":393926,"Delta":399108279},{"NoteNumber":58,"Velocity":37,"Duration":179640,"SoundDuration":179640,"Delta":399108279},{"NoteNumber":55,"Velocity":37,"Duration":267857,"SoundDuration":267857,"Delta":399287920},{"NoteNumber":74,"Velocity":57,"Duration":1425725,"SoundDuration":1425725,"Delta":399555777},{"NoteNumber":71,"Velocity":48,"Duration":1425725,"SoundDuration":1425725,"Delta":399555777},{"NoteNumber":67,"Velocity":48,"Duration":1425725,"SoundDuration":1425725,"Delta":399555777},{"NoteNumber":43,"Velocity":45,"Duration":98684,"SoundDuration":98684,"Delta":399555777},{"NoteNumber":55,"Velocity":37,"Duration":177514,"SoundDuration":177514,"Delta":399753146},{"NoteNumber":59,"Velocity":38,"Duration":177514,"SoundDuration":177514,"Delta":399930661},{"NoteNumber":55,"Velocity":36,"Duration":177514,"SoundDuration":177514,"Delta":400108175},{"NoteNumber":62,"Velocity":45,"Duration":172413,"SoundDuration":172413,"Delta":400285690},{"NoteNumber":55,"Velocity":43,"Duration":172413,"SoundDuration":172413,"Delta":400458104},{"NoteNumber":59,"Velocity":46,"Duration":172413,"SoundDuration":172413,"Delta":400630518},{"NoteNumber":55,"Velocity":48,"Duration":178571,"SoundDuration":178571,"Delta":400802931},{"NoteNumber":71,"Velocity":51,"Duration":339622,"SoundDuration":339622,"Delta":400981503},{"NoteNumber":77,"Velocity":61,"Duration":339622,"SoundDuration":339622,"Delta":400981503},{"NoteNumber":67,"Velocity":51,"Duration":339622,"SoundDuration":339622,"Delta":400981503},{"NoteNumber":65,"Velocity":50,"Duration":339622,"SoundDuration":339622,"Delta":400981503},{"NoteNumber":67,"Velocity":44,"Duration":331288,"SoundDuration":331288,"Delta":401358861},{"NoteNumber":71,"Velocity":44,"Duration":331288,"SoundDuration":331288,"Delta":401358861},{"NoteNumber":76,"Velocity":52,"Duration":331288,"SoundDuration":331288,"Delta":401358861},{"NoteNumber":64,"Velocity":42,"Duration":331288,"SoundDuration":331288,"Delta":401358861},{"NoteNumber":77,"Velocity":57,"Duration":331288,"SoundDuration":331288,"Delta":401726959},{"NoteNumber":67,"Velocity":48,"Duration":331288,"SoundDuration":331288,"Delta":401726959},{"NoteNumber":71,"Velocity":48,"Duration":368098,"SoundDuration":368098,"Delta":401726959},{"NoteNumber":65,"Velocity":42,"Duration":331288,"SoundDuration":331288,"Delta":401726959},{"NoteNumber":71,"Velocity":44,"Duration":388130,"SoundDuration":388130,"Delta":402095057},{"NoteNumber":79,"Velocity":52,"Duration":347314,"SoundDuration":347314,"Delta":402095057},{"NoteNumber":67,"Velocity":47,"Duration":347314,"SoundDuration":347314,"Delta":402095057},{"NoteNumber":77,"Velocity":63,"Duration":331288,"SoundDuration":331288,"Delta":402483188},{"NoteNumber":72,"Velocity":53,"Duration":331288,"SoundDuration":331288,"Delta":402483188},{"NoteNumber":67,"Velocity":53,"Duration":331288,"SoundDuration":331288,"Delta":402483188},{"NoteNumber":48,"Velocity":51,"Duration":92024,"SoundDuration":92024,"Delta":402483188},{"NoteNumber":55,"Velocity":40,"Duration":184048,"SoundDuration":184048,"Delta":402667237},{"NoteNumber":72,"Velocity":46,"Duration":355029,"SoundDuration":355029,"Delta":402851286},{"NoteNumber":76,"Velocity":55,"Duration":319526,"SoundDuration":319526,"Delta":402851286},{"NoteNumber":67,"Velocity":46,"Duration":319526,"SoundDuration":319526,"Delta":402851286},{"NoteNumber":60,"Velocity":43,"Duration":177514,"SoundDuration":177514,"Delta":402851286},{"NoteNumber":55,"Velocity":40,"Duration":177514,"SoundDuration":177514,"Delta":403028801},{"NoteNumber":67,"Velocity":46,"Duration":359281,"SoundDuration":359281,"Delta":403206316},{"NoteNumber":74,"Velocity":55,"Duration":323353,"SoundDuration":323353,"Delta":403206316},{"NoteNumber":64,"Velocity":48,"Duration":179640,"SoundDuration":179640,"Delta":403206316},{"NoteNumber":55,"Velocity":38,"Duration":179640,"SoundDuration":179640,"Delta":403385956},{"NoteNumber":64,"Velocity":45,"Duration":345157,"SoundDuration":345157,"Delta":403565597},{"NoteNumber":67,"Velocity":45,"Duration":386537,"SoundDuration":386537,"Delta":403565597},{"NoteNumber":72,"Velocity":54,"Duration":345157,"SoundDuration":345157,"Delta":403565597},{"NoteNumber":60,"Velocity":41,"Duration":179640,"SoundDuration":179640,"Delta":403565597},{"NoteNumber":55,"Velocity":40,"Duration":206896,"SoundDuration":206896,"Delta":403745238},{"NoteNumber":62,"Velocity":50,"Duration":323353,"SoundDuration":323353,"Delta":403952134},{"NoteNumber":67,"Velocity":50,"Duration":323353,"SoundDuration":323353,"Delta":403952134},{"NoteNumber":72,"Velocity":59,"Duration":323353,"SoundDuration":323353,"Delta":403952134},{"NoteNumber":38,"Velocity":56,"Duration":89820,"SoundDuration":89820,"Delta":403952134},{"NoteNumber":50,"Velocity":39,"Duration":179640,"SoundDuration":179640,"Delta":404131775},{"NoteNumber":67,"Velocity":45,"Duration":349650,"SoundDuration":349650,"Delta":404311416},{"NoteNumber":62,"Velocity":45,"Duration":349650,"SoundDuration":349650,"Delta":404311416},{"NoteNumber":71,"Velocity":53,"Duration":349650,"SoundDuration":349650,"Delta":404311416},{"NoteNumber":55,"Velocity":41,"Duration":181818,"SoundDuration":181818,"Delta":404311416},{"NoteNumber":50,"Velocity":38,"Duration":209790,"SoundDuration":209790,"Delta":404493234},{"NoteNumber":74,"Velocity":56,"Duration":321428,"SoundDuration":321428,"Delta":404703024},{"NoteNumber":62,"Velocity":47,"Duration":321428,"SoundDuration":321428,"Delta":404703024},{"NoteNumber":66,"Velocity":47,"Duration":321428,"SoundDuration":321428,"Delta":404703024},{"NoteNumber":59,"Velocity":48,"Duration":178571,"SoundDuration":178571,"Delta":404703024},{"NoteNumber":50,"Velocity":39,"Duration":178571,"SoundDuration":178571,"Delta":404881596},{"NoteNumber":72,"Velocity":53,"Duration":356349,"SoundDuration":356349,"Delta":405060167},{"NoteNumber":66,"Velocity":45,"Duration":356349,"SoundDuration":356349,"Delta":405060167},{"NoteNumber":62,"Velocity":45,"Duration":356349,"SoundDuration":356349,"Delta":405060167},{"NoteNumber":57,"Velocity":42,"Duration":178571,"SoundDuration":178571,"Delta":405060167},{"NoteNumber":50,"Velocity":41,"Duration":222222,"SoundDuration":222222,"Delta":405238739},{"NoteNumber":71,"Velocity":61,"Duration":729912,"SoundDuration":729912,"Delta":405460961},{"NoteNumber":67,"Velocity":51,"Duration":729912,"SoundDuration":729912,"Delta":405460961},{"NoteNumber":62,"Velocity":51,"Duration":729912,"SoundDuration":729912,"Delta":405460961},{"NoteNumber":38,"Velocity":51,"Duration":98684,"SoundDuration":98684,"Delta":405460961},{"NoteNumber":50,"Velocity":38,"Duration":177514,"SoundDuration":177514,"Delta":405658330},{"NoteNumber":55,"Velocity":40,"Duration":177514,"SoundDuration":177514,"Delta":405835844},{"NoteNumber":50,"Velocity":38,"Duration":177514,"SoundDuration":177514,"Delta":406013359},{"NoteNumber":71,"Velocity":51,"Duration":344827,"SoundDuration":344827,"Delta":406190874},{"NoteNumber":74,"Velocity":60,"Duration":344827,"SoundDuration":344827,"Delta":406190874},{"NoteNumber":67,"Velocity":51,"Duration":344827,"SoundDuration":344827,"Delta":406190874},{"NoteNumber":55,"Velocity":51,"Duration":172413,"SoundDuration":172413,"Delta":406190874},{"NoteNumber":59,"Velocity":41,"Duration":172413,"SoundDuration":172413,"Delta":406363288},{"NoteNumber":67,"Velocity":52,"Duration":350985,"SoundDuration":350985,"Delta":406535701},{"NoteNumber":71,"Velocity":52,"Duration":350985,"SoundDuration":350985,"Delta":406535701},{"NoteNumber":76,"Velocity":62,"Duration":350985,"SoundDuration":350985,"Delta":406535701},{"NoteNumber":62,"Velocity":45,"Duration":172413,"SoundDuration":172413,"Delta":406535701},{"NoteNumber":64,"Velocity":46,"Duration":178571,"SoundDuration":178571,"Delta":406708115},{"NoteNumber":71,"Velocity":56,"Duration":333333,"SoundDuration":333333,"Delta":406886687},{"NoteNumber":67,"Velocity":56,"Duration":333333,"SoundDuration":333333,"Delta":406886687},{"NoteNumber":77,"Velocity":66,"Duration":333333,"SoundDuration":333333,"Delta":406886687},{"NoteNumber":65,"Velocity":52,"Duration":333333,"SoundDuration":333333,"Delta":406886687},{"NoteNumber":71,"Velocity":52,"Duration":323353,"SoundDuration":323353,"Delta":407257057},{"NoteNumber":67,"Velocity":52,"Duration":323353,"SoundDuration":323353,"Delta":407257057},{"NoteNumber":76,"Velocity":62,"Duration":323353,"SoundDuration":323353,"Delta":407257057},{"NoteNumber":64,"Velocity":40,"Duration":323353,"SoundDuration":323353,"Delta":407257057},{"NoteNumber":77,"Velocity":69,"Duration":176470,"SoundDuration":176470,"Delta":407616339},{"NoteNumber":71,"Velocity":58,"Duration":317646,"SoundDuration":317646,"Delta":407616339},{"NoteNumber":67,"Velocity":58,"Duration":317646,"SoundDuration":317646,"Delta":407616339},{"NoteNumber":65,"Velocity":42,"Duration":176470,"SoundDuration":176470,"Delta":407616339},{"NoteNumber":81,"Velocity":65,"Duration":176470,"SoundDuration":176470,"Delta":407792809},{"NoteNumber":69,"Velocity":39,"Duration":176470,"SoundDuration":176470,"Delta":407792809},{"NoteNumber":71,"Velocity":56,"Duration":339735,"SoundDuration":339735,"Delta":407969280},{"NoteNumber":79,"Velocity":66,"Duration":339735,"SoundDuration":339735,"Delta":407969280},{"NoteNumber":67,"Velocity":47,"Duration":339735,"SoundDuration":339735,"Delta":407969280},{"NoteNumber":67,"Velocity":56,"Duration":331288,"SoundDuration":331288,"Delta":408349832},{"NoteNumber":77,"Velocity":66,"Duration":331288,"SoundDuration":331288,"Delta":408349832},{"NoteNumber":72,"Velocity":56,"Duration":331288,"SoundDuration":331288,"Delta":408349832},{"NoteNumber":48,"Velocity":53,"Duration":92024,"SoundDuration":92024,"Delta":408349832},{"NoteNumber":55,"Velocity":40,"Duration":184048,"SoundDuration":184048,"Delta":408533881},{"NoteNumber":67,"Velocity":43,"Duration":319526,"SoundDuration":319526,"Delta":408717930},{"NoteNumber":76,"Velocity":51,"Duration":319526,"SoundDuration":319526,"Delta":408717930},{"NoteNumber":72,"Velocity":43,"Duration":355029,"SoundDuration":355029,"Delta":408717930},{"NoteNumber":60,"Velocity":42,"Duration":177514,"SoundDuration":177514,"Delta":408717930},{"NoteNumber":55,"Velocity":39,"Duration":177514,"SoundDuration":177514,"Delta":408895445},{"NoteNumber":74,"Velocity":50,"Duration":319526,"SoundDuration":319526,"Delta":409072959},{"NoteNumber":67,"Velocity":42,"Duration":355029,"SoundDuration":355029,"Delta":409072959},{"NoteNumber":65,"Velocity":42,"Duration":319526,"SoundDuration":319526,"Delta":409072959},{"NoteNumber":59,"Velocity":50,"Duration":177514,"SoundDuration":177514,"Delta":409072959},{"NoteNumber":55,"Velocity":34,"Duration":177514,"SoundDuration":177514,"Delta":409250474},{"NoteNumber":67,"Velocity":44,"Duration":384411,"SoundDuration":384411,"Delta":409427989},{"NoteNumber":64,"Velocity":44,"Duration":343031,"SoundDuration":343031,"Delta":409427989},{"NoteNumber":72,"Velocity":52,"Duration":343031,"SoundDuration":343031,"Delta":409427989},{"NoteNumber":60,"Velocity":36,"Duration":177514,"SoundDuration":177514,"Delta":409427989},{"NoteNumber":55,"Velocity":35,"Duration":206896,"SoundDuration":206896,"Delta":409605504},{"NoteNumber":67,"Velocity":53,"Duration":323353,"SoundDuration":323353,"Delta":409812400},{"NoteNumber":72,"Velocity":63,"Duration":323353,"SoundDuration":323353,"Delta":409812400},{"NoteNumber":62,"Velocity":53,"Duration":323353,"SoundDuration":323353,"Delta":409812400},{"NoteNumber":38,"Velocity":49,"Duration":89820,"SoundDuration":89820,"Delta":409812400},{"NoteNumber":50,"Velocity":35,"Duration":179640,"SoundDuration":179640,"Delta":409992041},{"NoteNumber":62,"Velocity":45,"Duration":323353,"SoundDuration":323353,"Delta":410171682},{"NoteNumber":71,"Velocity":54,"Duration":323353,"SoundDuration":323353,"Delta":410171682},{"NoteNumber":67,"Velocity":45,"Duration":323353,"SoundDuration":323353,"Delta":410171682},{"NoteNumber":55,"Velocity":36,"Duration":179640,"SoundDuration":179640,"Delta":410171682},{"NoteNumber":50,"Velocity":35,"Duration":179640,"SoundDuration":179640,"Delta":410351322},{"NoteNumber":62,"Velocity":47,"Duration":323353,"SoundDuration":323353,"Delta":410530963},{"NoteNumber":72,"Velocity":56,"Duration":323353,"SoundDuration":323353,"Delta":410530963},{"NoteNumber":66,"Velocity":47,"Duration":323353,"SoundDuration":323353,"Delta":410530963},{"NoteNumber":57,"Velocity":42,"Duration":179640,"SoundDuration":179640,"Delta":410530963},{"NoteNumber":50,"Velocity":35,"Duration":179640,"SoundDuration":179640,"Delta":410710604},{"NoteNumber":66,"Velocity":45,"Duration":345157,"SoundDuration":345157,"Delta":410890245},{"NoteNumber":62,"Velocity":45,"Duration":345157,"SoundDuration":345157,"Delta":410890245},{"NoteNumber":71,"Velocity":53,"Duration":345157,"SoundDuration":345157,"Delta":410890245},{"NoteNumber":60,"Velocity":37,"Duration":179640,"SoundDuration":179640,"Delta":410890245},{"NoteNumber":50,"Velocity":35,"Duration":206896,"SoundDuration":206896,"Delta":411069885},{"NoteNumber":59,"Velocity":45,"Duration":1067438,"SoundDuration":1067438,"Delta":411276782},{"NoteNumber":62,"Velocity":38,"Duration":1067438,"SoundDuration":1067438,"Delta":411276782},{"NoteNumber":67,"Velocity":53,"Duration":1067438,"SoundDuration":1067438,"Delta":411276782},{"NoteNumber":43,"Velocity":45,"Duration":92024,"SoundDuration":92024,"Delta":411276782},{"NoteNumber":50,"Velocity":37,"Duration":184048,"SoundDuration":184048,"Delta":411460831},{"NoteNumber":55,"Velocity":38,"Duration":177514,"SoundDuration":177514,"Delta":411644880},{"NoteNumber":50,"Velocity":36,"Duration":177514,"SoundDuration":177514,"Delta":411822395},{"NoteNumber":55,"Velocity":42,"Duration":179640,"SoundDuration":179640,"Delta":411999909},{"NoteNumber":50,"Velocity":36,"Duration":179640,"SoundDuration":179640,"Delta":412179550},{"NoteNumber":62,"Velocity":41,"Duration":384411,"SoundDuration":384411,"Delta":412359191},{"NoteNumber":59,"Velocity":41,"Duration":343031,"SoundDuration":343031,"Delta":412359191},{"NoteNumber":71,"Velocity":49,"Duration":343031,"SoundDuration":343031,"Delta":412359191},{"NoteNumber":55,"Velocity":39,"Duration":177514,"SoundDuration":177514,"Delta":412359191},{"NoteNumber":50,"Velocity":34,"Duration":206896,"SoundDuration":206896,"Delta":412536706},{"NoteNumber":71,"Velocity":59,"Duration":323353,"SoundDuration":323353,"Delta":412743602},{"NoteNumber":60,"Velocity":50,"Duration":323353,"SoundDuration":323353,"Delta":412743602},{"NoteNumber":62,"Velocity":50,"Duration":323353,"SoundDuration":323353,"Delta":412743602},{"NoteNumber":43,"Velocity":46,"Duration":89820,"SoundDuration":89820,"Delta":412743602},{"NoteNumber":50,"Velocity":33,"Duration":179640,"SoundDuration":179640,"Delta":412923243},{"NoteNumber":60,"Velocity":42,"Duration":323353,"SoundDuration":323353,"Delta":413102884},{"NoteNumber":62,"Velocity":42,"Duration":323353,"SoundDuration":323353,"Delta":413102884},{"NoteNumber":72,"Velocity":51,"Duration":323353,"SoundDuration":323353,"Delta":413102884},{"NoteNumber":54,"Velocity":34,"Duration":179640,"SoundDuration":179640,"Delta":413102884},{"NoteNumber":50,"Velocity":32,"Duration":179640,"SoundDuration":179640,"Delta":413282524},{"NoteNumber":62,"Velocity":44,"Duration":323353,"SoundDuration":323353,"Delta":413462165},{"NoteNumber":69,"Velocity":53,"Duration":323353,"SoundDuration":323353,"Delta":413462165},{"NoteNumber":60,"Velocity":44,"Duration":323353,"SoundDuration":323353,"Delta":413462165},{"NoteNumber":54,"Velocity":39,"Duration":179640,"SoundDuration":179640,"Delta":413462165},{"NoteNumber":50,"Velocity":33,"Duration":179640,"SoundDuration":179640,"Delta":413641806},{"NoteNumber":60,"Velocity":39,"Duration":345157,"SoundDuration":345157,"Delta":413821447},{"NoteNumber":62,"Velocity":39,"Duration":345157,"SoundDuration":345157,"Delta":413821447},{"NoteNumber":69,"Velocity":47,"Duration":345157,"SoundDuration":345157,"Delta":413821447},{"NoteNumber":54,"Velocity":35,"Duration":179640,"SoundDuration":179640,"Delta":413821447},{"NoteNumber":50,"Velocity":34,"Duration":206896,"SoundDuration":206896,"Delta":414001087},{"NoteNumber":59,"Velocity":50,"Duration":323353,"SoundDuration":323353,"Delta":414207984},{"NoteNumber":69,"Velocity":59,"Duration":323353,"SoundDuration":323353,"Delta":414207984},{"NoteNumber":62,"Velocity":50,"Duration":323353,"SoundDuration":323353,"Delta":414207984},{"NoteNumber":43,"Velocity":46,"Duration":89820,"SoundDuration":89820,"Delta":414207984},{"NoteNumber":50,"Velocity":33,"Duration":179640,"SoundDuration":179640,"Delta":414387625},{"NoteNumber":59,"Velocity":42,"Duration":323353,"SoundDuration":323353,"Delta":414567265},{"NoteNumber":62,"Velocity":42,"Duration":323353,"SoundDuration":323353,"Delta":414567265},{"NoteNumber":71,"Velocity":51,"Duration":323353,"SoundDuration":323353,"Delta":414567265},{"NoteNumber":55,"Velocity":34,"Duration":179640,"SoundDuration":179640,"Delta":414567265},{"NoteNumber":50,"Velocity":33,"Duration":179640,"SoundDuration":179640,"Delta":414746906},{"NoteNumber":67,"Velocity":53,"Duration":323353,"SoundDuration":323353,"Delta":414926547},{"NoteNumber":62,"Velocity":44,"Duration":323353,"SoundDuration":323353,"Delta":414926547},{"NoteNumber":59,"Velocity":44,"Duration":323353,"SoundDuration":323353,"Delta":414926547},{"NoteNumber":55,"Velocity":39,"Duration":179640,"SoundDuration":179640,"Delta":414926547},{"NoteNumber":50,"Velocity":33,"Duration":179640,"SoundDuration":179640,"Delta":415106188},{"NoteNumber":67,"Velocity":47,"Duration":336094,"SoundDuration":336094,"Delta":415285828},{"NoteNumber":59,"Velocity":39,"Duration":336094,"SoundDuration":336094,"Delta":415285828},{"NoteNumber":62,"Velocity":39,"Duration":336094,"SoundDuration":336094,"Delta":415285828},{"NoteNumber":55,"Velocity":35,"Duration":179640,"SoundDuration":179640,"Delta":415285828},{"NoteNumber":50,"Velocity":34,"Duration":195567,"SoundDuration":195567,"Delta":415465469},{"NoteNumber":62,"Velocity":50,"Duration":323353,"SoundDuration":323353,"Delta":415661036},{"NoteNumber":60,"Velocity":50,"Duration":323353,"SoundDuration":323353,"Delta":415661036},{"NoteNumber":67,"Velocity":59,"Duration":323353,"SoundDuration":323353,"Delta":415661036},{"NoteNumber":43,"Velocity":46,"Duration":89820,"SoundDuration":89820,"Delta":415661036},{"NoteNumber":50,"Velocity":33,"Duration":179640,"SoundDuration":179640,"Delta":415840677},{"NoteNumber":62,"Velocity":42,"Duration":354313,"SoundDuration":354313,"Delta":416020318},{"NoteNumber":60,"Velocity":42,"Duration":354313,"SoundDuration":354313,"Delta":416020318},{"NoteNumber":66,"Velocity":51,"Duration":354313,"SoundDuration":354313,"Delta":416020318},{"NoteNumber":57,"Velocity":34,"Duration":179640,"SoundDuration":179640,"Delta":416020318},{"NoteNumber":50,"Velocity":33,"Duration":218340,"SoundDuration":218340,"Delta":416199959},{"NoteNumber":69,"Velocity":44,"Duration":318772,"SoundDuration":318772,"Delta":416418299},{"NoteNumber":66,"Velocity":44,"Duration":318772,"SoundDuration":318772,"Delta":416418299},{"NoteNumber":76,"Velocity":65,"Duration":318772,"SoundDuration":318772,"Delta":416418299},{"NoteNumber":60,"Velocity":39,"Duration":177095,"SoundDuration":177095,"Delta":416418299},{"NoteNumber":50,"Velocity":33,"Duration":177095,"SoundDuration":177095,"Delta":416595395},{"NoteNumber":74,"Velocity":60,"Duration":342612,"SoundDuration":342612,"Delta":416772491},{"NoteNumber":66,"Velocity":42,"Duration":342612,"SoundDuration":342612,"Delta":416772491},{"NoteNumber":69,"Velocity":42,"Duration":342612,"SoundDuration":342612,"Delta":416772491},{"NoteNumber":60,"Velocity":35,"Duration":177095,"SoundDuration":177095,"Delta":416772491},{"NoteNumber":50,"Velocity":34,"Duration":206896,"SoundDuration":206896,"Delta":416949586},{"NoteNumber":71,"Velocity":38,"Duration":1067438,"SoundDuration":1067438,"Delta":417156483},{"NoteNumber":67,"Velocity":45,"Duration":1067438,"SoundDuration":1067438,"Delta":417156483},{"NoteNumber":74,"Velocity":59,"Duration":1067438,"SoundDuration":1067438,"Delta":417156483},{"NoteNumber":43,"Velocity":45,"Duration":92024,"SoundDuration":92024,"Delta":417156483},{"NoteNumber":50,"Velocity":38,"Duration":184048,"SoundDuration":184048,"Delta":417340532},{"NoteNumber":59,"Velocity":42,"Duration":177514,"SoundDuration":177514,"Delta":417524581},{"NoteNumber":50,"Velocity":38,"Duration":177514,"SoundDuration":177514,"Delta":417702096},{"NoteNumber":59,"Velocity":42,"Duration":179640,"SoundDuration":179640,"Delta":417879610},{"NoteNumber":50,"Velocity":36,"Duration":179640,"SoundDuration":179640,"Delta":418059251},{"NoteNumber":62,"Velocity":41,"Duration":384411,"SoundDuration":384411,"Delta":418238892},{"NoteNumber":59,"Velocity":41,"Duration":343031,"SoundDuration":343031,"Delta":418238892},{"NoteNumber":71,"Velocity":49,"Duration":343031,"SoundDuration":343031,"Delta":418238892},{"NoteNumber":55,"Velocity":39,"Duration":177514,"SoundDuration":177514,"Delta":418238892},{"NoteNumber":50,"Velocity":34,"Duration":206896,"SoundDuration":206896,"Delta":418416407},{"NoteNumber":62,"Velocity":50,"Duration":323353,"SoundDuration":323353,"Delta":418623303},{"NoteNumber":60,"Velocity":50,"Duration":323353,"SoundDuration":323353,"Delta":418623303},{"NoteNumber":71,"Velocity":59,"Duration":323353,"SoundDuration":323353,"Delta":418623303},{"NoteNumber":43,"Velocity":46,"Duration":89820,"SoundDuration":89820,"Delta":418623303},{"NoteNumber":50,"Velocity":33,"Duration":179640,"SoundDuration":179640,"Delta":418802944},{"NoteNumber":72,"Velocity":51,"Duration":323353,"SoundDuration":323353,"Delta":418982585},{"NoteNumber":62,"Velocity":42,"Duration":323353,"SoundDuration":323353,"Delta":418982585},{"NoteNumber":60,"Velocity":42,"Duration":323353,"SoundDuration":323353,"Delta":418982585},{"NoteNumber":54,"Velocity":34,"Duration":179640,"SoundDuration":179640,"Delta":418982585},{"NoteNumber":50,"Velocity":32,"Duration":179640,"SoundDuration":179640,"Delta":419162225},{"NoteNumber":69,"Velocity":53,"Duration":323353,"SoundDuration":323353,"Delta":419341866},{"NoteNumber":60,"Velocity":44,"Duration":323353,"SoundDuration":323353,"Delta":419341866},{"NoteNumber":62,"Velocity":44,"Duration":323353,"SoundDuration":323353,"Delta":419341866},{"NoteNumber":54,"Velocity":39,"Duration":179640,"SoundDuration":179640,"Delta":419341866},{"NoteNumber":50,"Velocity":32,"Duration":179640,"SoundDuration":179640,"Delta":419521507},{"NoteNumber":60,"Velocity":39,"Duration":345157,"SoundDuration":345157,"Delta":419701148},{"NoteNumber":62,"Velocity":39,"Duration":345157,"SoundDuration":345157,"Delta":419701148},{"NoteNumber":69,"Velocity":47,"Duration":345157,"SoundDuration":345157,"Delta":419701148},{"NoteNumber":54,"Velocity":35,"Duration":179640,"SoundDuration":179640,"Delta":419701148},{"NoteNumber":50,"Velocity":34,"Duration":206896,"SoundDuration":206896,"Delta":419880788},{"NoteNumber":69,"Velocity":59,"Duration":323353,"SoundDuration":323353,"Delta":420087685},{"NoteNumber":62,"Velocity":50,"Duration":323353,"SoundDuration":323353,"Delta":420087685},{"NoteNumber":59,"Velocity":50,"Duration":323353,"SoundDuration":323353,"Delta":420087685},{"NoteNumber":43,"Velocity":46,"Duration":89820,"SoundDuration":89820,"Delta":420087685},{"NoteNumber":50,"Velocity":32,"Duration":179640,"SoundDuration":179640,"Delta":420267326},{"NoteNumber":62,"Velocity":42,"Duration":323353,"SoundDuration":323353,"Delta":420446966},{"NoteNumber":59,"Velocity":42,"Duration":323353,"SoundDuration":323353,"Delta":420446966},{"NoteNumber":71,"Velocity":51,"Duration":323353,"SoundDuration":323353,"Delta":420446966},{"NoteNumber":55,"Velocity":34,"Duration":179640,"SoundDuration":179640,"Delta":420446966},{"NoteNumber":50,"Velocity":32,"Duration":179640,"SoundDuration":179640,"Delta":420626607},{"NoteNumber":67,"Velocity":53,"Duration":323353,"SoundDuration":323353,"Delta":420806248},{"NoteNumber":59,"Velocity":44,"Duration":323353,"SoundDuration":323353,"Delta":420806248},{"NoteNumber":62,"Velocity":44,"Duration":323353,"SoundDuration":323353,"Delta":420806248},{"NoteNumber":55,"Velocity":39,"Duration":179640,"SoundDuration":179640,"Delta":420806248},{"NoteNumber":50,"Velocity":33,"Duration":179640,"SoundDuration":179640,"Delta":420985889},{"NoteNumber":59,"Velocity":39,"Duration":345157,"SoundDuration":345157,"Delta":421165529},{"NoteNumber":62,"Velocity":39,"Duration":345157,"SoundDuration":345157,"Delta":421165529},{"NoteNumber":67,"Velocity":47,"Duration":345157,"SoundDuration":345157,"Delta":421165529},{"NoteNumber":55,"Velocity":35,"Duration":179640,"SoundDuration":179640,"Delta":421165529},{"NoteNumber":50,"Velocity":34,"Duration":206896,"SoundDuration":206896,"Delta":421345170},{"NoteNumber":67,"Velocity":59,"Duration":323353,"SoundDuration":323353,"Delta":421552067},{"NoteNumber":62,"Velocity":50,"Duration":323353,"SoundDuration":323353,"Delta":421552067},{"NoteNumber":60,"Velocity":50,"Duration":323353,"SoundDuration":323353,"Delta":421552067},{"NoteNumber":43,"Velocity":46,"Duration":89820,"SoundDuration":89820,"Delta":421552067},{"NoteNumber":50,"Velocity":33,"Duration":179640,"SoundDuration":179640,"Delta":421731707},{"NoteNumber":66,"Velocity":51,"Duration":323353,"SoundDuration":323353,"Delta":421911348},{"NoteNumber":60,"Velocity":42,"Duration":323353,"SoundDuration":323353,"Delta":421911348},{"NoteNumber":62,"Velocity":42,"Duration":323353,"SoundDuration":323353,"Delta":421911348},{"NoteNumber":57,"Velocity":34,"Duration":179640,"SoundDuration":179640,"Delta":421911348},{"NoteNumber":50,"Velocity":33,"Duration":179640,"SoundDuration":179640,"Delta":422090989},{"NoteNumber":62,"Velocity":44,"Duration":323353,"SoundDuration":323353,"Delta":422270630},{"NoteNumber":60,"Velocity":44,"Duration":323353,"SoundDuration":323353,"Delta":422270630},{"NoteNumber":71,"Velocity":57,"Duration":323353,"SoundDuration":323353,"Delta":422270630},{"NoteNumber":55,"Velocity":39,"Duration":179640,"SoundDuration":179640,"Delta":422270630},{"NoteNumber":50,"Velocity":33,"Duration":179640,"SoundDuration":179640,"Delta":422450270},{"NoteNumber":69,"Velocity":54,"Duration":345157,"SoundDuration":345157,"Delta":422629911},{"NoteNumber":60,"Velocity":42,"Duration":345157,"SoundDuration":345157,"Delta":422629911},{"NoteNumber":62,"Velocity":42,"Duration":345157,"SoundDuration":345157,"Delta":422629911},{"NoteNumber":54,"Velocity":35,"Duration":179640,"SoundDuration":179640,"Delta":422629911},{"NoteNumber":50,"Velocity":34,"Duration":206896,"SoundDuration":206896,"Delta":422809552},{"NoteNumber":59,"Velocity":45,"Duration":1468946,"SoundDuration":1468946,"Delta":423016448},{"NoteNumber":67,"Velocity":53,"Duration":1468946,"SoundDuration":1468946,"Delta":423016448},{"NoteNumber":62,"Velocity":38,"Duration":1468946,"SoundDuration":1468946,"Delta":423016448},{"NoteNumber":43,"Velocity":45,"Duration":92024,"SoundDuration":92024,"Delta":423016448},{"NoteNumber":50,"Velocity":35,"Duration":184048,"SoundDuration":184048,"Delta":423200497},{"NoteNumber":55,"Velocity":38,"Duration":177514,"SoundDuration":177514,"Delta":423384546},{"NoteNumber":50,"Velocity":36,"Duration":177514,"SoundDuration":177514,"Delta":423562061},{"NoteNumber":55,"Velocity":42,"Duration":179640,"SoundDuration":179640,"Delta":423739576},{"NoteNumber":50,"Velocity":33,"Duration":179640,"SoundDuration":179640,"Delta":423919217},{"NoteNumber":43,"Velocity":36,"Duration":179640,"SoundDuration":179640,"Delta":424098857},{"NoteNumber":45,"Velocity":36,"Duration":206896,"SoundDuration":206896,"Delta":424278498},{"NoteNumber":58,"Velocity":49,"Duration":147492,"SoundDuration":147492,"Delta":424485395},{"NoteNumber":46,"Velocity":39,"Duration":147492,"SoundDuration":147492,"Delta":424485395},{"NoteNumber":57,"Velocity":42,"Duration":147492,"SoundDuration":147492,"Delta":424632887},{"NoteNumber":45,"Velocity":33,"Duration":147492,"SoundDuration":147492,"Delta":424632887},{"NoteNumber":55,"Velocity":42,"Duration":147492,"SoundDuration":147492,"Delta":424780380},{"NoteNumber":43,"Velocity":33,"Duration":147492,"SoundDuration":147492,"Delta":424780380},{"NoteNumber":57,"Velocity":42,"Duration":147492,"SoundDuration":147492,"Delta":424927873},{"NoteNumber":45,"Velocity":33,"Duration":147492,"SoundDuration":147492,"Delta":424927873},{"NoteNumber":58,"Velocity":49,"Duration":143266,"SoundDuration":143266,"Delta":425075366},{"NoteNumber":46,"Velocity":39,"Duration":143266,"SoundDuration":143266,"Delta":425075366},{"NoteNumber":55,"Velocity":43,"Duration":143266,"SoundDuration":143266,"Delta":425218632},{"NoteNumber":43,"Velocity":34,"Duration":143266,"SoundDuration":143266,"Delta":425218632},{"NoteNumber":58,"Velocity":43,"Duration":143266,"SoundDuration":143266,"Delta":425361899},{"NoteNumber":46,"Velocity":34,"Duration":143266,"SoundDuration":143266,"Delta":425361899},{"NoteNumber":55,"Velocity":43,"Duration":160085,"SoundDuration":160085,"Delta":425505165},{"NoteNumber":43,"Velocity":34,"Duration":160085,"SoundDuration":160085,"Delta":425505165},{"NoteNumber":58,"Velocity":49,"Duration":147492,"SoundDuration":147492,"Delta":425665251},{"NoteNumber":46,"Velocity":39,"Duration":147492,"SoundDuration":147492,"Delta":425665251},{"NoteNumber":57,"Velocity":42,"Duration":147492,"SoundDuration":147492,"Delta":425812743},{"NoteNumber":45,"Velocity":31,"Duration":147492,"SoundDuration":147492,"Delta":425812743},{"NoteNumber":55,"Velocity":42,"Duration":147492,"SoundDuration":147492,"Delta":425960236},{"NoteNumber":43,"Velocity":33,"Duration":147492,"SoundDuration":147492,"Delta":425960236},{"NoteNumber":57,"Velocity":42,"Duration":147492,"SoundDuration":147492,"Delta":426107729},{"NoteNumber":45,"Velocity":32,"Duration":147492,"SoundDuration":147492,"Delta":426107729},{"NoteNumber":58,"Velocity":49,"Duration":143266,"SoundDuration":143266,"Delta":426255222},{"NoteNumber":46,"Velocity":39,"Duration":143266,"SoundDuration":143266,"Delta":426255222},{"NoteNumber":55,"Velocity":43,"Duration":143266,"SoundDuration":143266,"Delta":426398488},{"NoteNumber":43,"Velocity":34,"Duration":143266,"SoundDuration":143266,"Delta":426398488},{"NoteNumber":58,"Velocity":43,"Duration":143266,"SoundDuration":143266,"Delta":426541755},{"NoteNumber":46,"Velocity":34,"Duration":143266,"SoundDuration":143266,"Delta":426541755},{"NoteNumber":55,"Velocity":43,"Duration":160085,"SoundDuration":160085,"Delta":426685021},{"NoteNumber":43,"Velocity":34,"Duration":160085,"SoundDuration":160085,"Delta":426685021},{"NoteNumber":64,"Velocity":44,"Duration":320171,"SoundDuration":320171,"Delta":426845107},{"NoteNumber":61,"Velocity":44,"Duration":288153,"SoundDuration":288153,"Delta":426845107},{"NoteNumber":67,"Velocity":44,"Duration":320171,"SoundDuration":320171,"Delta":426845107},{"NoteNumber":70,"Velocity":53,"Duration":320171,"SoundDuration":320171,"Delta":426845107},{"NoteNumber":45,"Velocity":43,"Duration":160085,"SoundDuration":160085,"Delta":426845107},{"NoteNumber":40,"Velocity":32,"Duration":160085,"SoundDuration":160085,"Delta":427005192},{"NoteNumber":69,"Velocity":43,"Duration":155440,"SoundDuration":155440,"Delta":427165278},{"NoteNumber":64,"Velocity":36,"Duration":155440,"SoundDuration":155440,"Delta":427165278},{"NoteNumber":61,"Velocity":36,"Duration":155440,"SoundDuration":155440,"Delta":427165278},{"NoteNumber":67,"Velocity":36,"Duration":155440,"SoundDuration":155440,"Delta":427165278},{"NoteNumber":33,"Velocity":34,"Duration":155440,"SoundDuration":155440,"Delta":427165278},{"NoteNumber":40,"Velocity":32,"Duration":155440,"SoundDuration":155440,"Delta":427320718},{"NoteNumber":61,"Velocity":36,"Duration":155440,"SoundDuration":155440,"Delta":427476159},{"NoteNumber":64,"Velocity":36,"Duration":155440,"SoundDuration":155440,"Delta":427476159},{"NoteNumber":67,"Velocity":36,"Duration":155440,"SoundDuration":155440,"Delta":427476159},{"NoteNumber":69,"Velocity":43,"Duration":155440,"SoundDuration":155440,"Delta":427476159},{"NoteNumber":45,"Velocity":44,"Duration":155440,"SoundDuration":155440,"Delta":427476159},{"NoteNumber":33,"Velocity":34,"Duration":155440,"SoundDuration":155440,"Delta":427631599},{"NoteNumber":64,"Velocity":36,"Duration":172413,"SoundDuration":172413,"Delta":427787040},{"NoteNumber":61,"Velocity":36,"Duration":172413,"SoundDuration":172413,"Delta":427787040},{"NoteNumber":67,"Velocity":36,"Duration":172413,"SoundDuration":172413,"Delta":427787040},{"NoteNumber":69,"Velocity":43,"Duration":172413,"SoundDuration":172413,"Delta":427787040},{"NoteNumber":45,"Velocity":36,"Duration":172413,"SoundDuration":172413,"Delta":427787040},{"NoteNumber":33,"Velocity":34,"Duration":172413,"SoundDuration":172413,"Delta":427959453},{"NoteNumber":67,"Velocity":44,"Duration":1284522,"SoundDuration":1284522,"Delta":428131867},{"NoteNumber":61,"Velocity":44,"Duration":1284522,"SoundDuration":1284522,"Delta":428131867},{"NoteNumber":69,"Velocity":53,"Duration":1284522,"SoundDuration":1284522,"Delta":428131867},{"NoteNumber":64,"Velocity":44,"Duration":1284522,"SoundDuration":1284522,"Delta":428131867},{"NoteNumber":45,"Velocity":43,"Duration":158730,"SoundDuration":158730,"Delta":428131867},{"NoteNumber":40,"Velocity":32,"Duration":158730,"SoundDuration":158730,"Delta":428290597},{"NoteNumber":33,"Velocity":34,"Duration":158730,"SoundDuration":158730,"Delta":428449328},{"NoteNumber":40,"Velocity":33,"Duration":158730,"SoundDuration":158730,"Delta":428608058},{"NoteNumber":45,"Velocity":44,"Duration":158730,"SoundDuration":158730,"Delta":428766788},{"NoteNumber":33,"Velocity":33,"Duration":158730,"SoundDuration":158730,"Delta":428925518},{"NoteNumber":45,"Velocity":36,"Duration":158730,"SoundDuration":158730,"Delta":429084249},{"NoteNumber":33,"Velocity":33,"Duration":173410,"SoundDuration":173410,"Delta":429242979},{"NoteNumber":58,"Velocity":49,"Duration":147492,"SoundDuration":147492,"Delta":429416389},{"NoteNumber":46,"Velocity":39,"Duration":147492,"SoundDuration":147492,"Delta":429416389},{"NoteNumber":57,"Velocity":41,"Duration":147492,"SoundDuration":147492,"Delta":429563882},{"NoteNumber":45,"Velocity":33,"Duration":147492,"SoundDuration":147492,"Delta":429563882},{"NoteNumber":55,"Velocity":42,"Duration":147492,"SoundDuration":147492,"Delta":429711375},{"NoteNumber":43,"Velocity":33,"Duration":147492,"SoundDuration":147492,"Delta":429711375},{"NoteNumber":57,"Velocity":41,"Duration":147492,"SoundDuration":147492,"Delta":429858868},{"NoteNumber":45,"Velocity":33,"Duration":147492,"SoundDuration":147492,"Delta":429858868},{"NoteNumber":58,"Velocity":49,"Duration":143266,"SoundDuration":143266,"Delta":430006360},{"NoteNumber":46,"Velocity":39,"Duration":143266,"SoundDuration":143266,"Delta":430006360},{"NoteNumber":55,"Velocity":41,"Duration":143266,"SoundDuration":143266,"Delta":430149627},{"NoteNumber":43,"Velocity":34,"Duration":143266,"SoundDuration":143266,"Delta":430149627},{"NoteNumber":58,"Velocity":43,"Duration":143266,"SoundDuration":143266,"Delta":430292893},{"NoteNumber":46,"Velocity":34,"Duration":143266,"SoundDuration":143266,"Delta":430292893},{"NoteNumber":55,"Velocity":41,"Duration":160085,"SoundDuration":160085,"Delta":430436160},{"NoteNumber":43,"Velocity":34,"Duration":160085,"SoundDuration":160085,"Delta":430436160},{"NoteNumber":58,"Velocity":49,"Duration":147492,"SoundDuration":147492,"Delta":430596245},{"NoteNumber":46,"Velocity":39,"Duration":147492,"SoundDuration":147492,"Delta":430596245},{"NoteNumber":57,"Velocity":41,"Duration":147492,"SoundDuration":147492,"Delta":430743738},{"NoteNumber":45,"Velocity":33,"Duration":147492,"SoundDuration":147492,"Delta":430743738},{"NoteNumber":55,"Velocity":42,"Duration":147492,"SoundDuration":147492,"Delta":430891231},{"NoteNumber":43,"Velocity":33,"Duration":147492,"SoundDuration":147492,"Delta":430891231},{"NoteNumber":57,"Velocity":40,"Duration":147492,"SoundDuration":147492,"Delta":431038724},{"NoteNumber":45,"Velocity":33,"Duration":147492,"SoundDuration":147492,"Delta":431038724},{"NoteNumber":58,"Velocity":49,"Duration":143266,"SoundDuration":143266,"Delta":431186216},{"NoteNumber":46,"Velocity":39,"Duration":143266,"SoundDuration":143266,"Delta":431186216},{"NoteNumber":55,"Velocity":41,"Duration":143266,"SoundDuration":143266,"Delta":431329483},{"NoteNumber":43,"Velocity":34,"Duration":143266,"SoundDuration":143266,"Delta":431329483},{"NoteNumber":58,"Velocity":43,"Duration":143266,"SoundDuration":143266,"Delta":431472749},{"NoteNumber":46,"Velocity":34,"Duration":143266,"SoundDuration":143266,"Delta":431472749},{"NoteNumber":55,"Velocity":41,"Duration":160085,"SoundDuration":160085,"Delta":431616016},{"NoteNumber":43,"Velocity":34,"Duration":160085,"SoundDuration":160085,"Delta":431616016},{"NoteNumber":64,"Velocity":44,"Duration":320171,"SoundDuration":320171,"Delta":431776101},{"NoteNumber":70,"Velocity":53,"Duration":320171,"SoundDuration":320171,"Delta":431776101},{"NoteNumber":61,"Velocity":44,"Duration":288153,"SoundDuration":288153,"Delta":431776101},{"NoteNumber":67,"Velocity":44,"Duration":320171,"SoundDuration":320171,"Delta":431776101},{"NoteNumber":45,"Velocity":43,"Duration":160085,"SoundDuration":160085,"Delta":431776101},{"NoteNumber":40,"Velocity":32,"Duration":160085,"SoundDuration":160085,"Delta":431936187},{"NoteNumber":69,"Velocity":43,"Duration":155440,"SoundDuration":155440,"Delta":432096272},{"NoteNumber":61,"Velocity":36,"Duration":155440,"SoundDuration":155440,"Delta":432096272},{"NoteNumber":67,"Velocity":36,"Duration":155440,"SoundDuration":155440,"Delta":432096272},{"NoteNumber":64,"Velocity":36,"Duration":155440,"SoundDuration":155440,"Delta":432096272},{"NoteNumber":33,"Velocity":34,"Duration":155440,"SoundDuration":155440,"Delta":432096272},{"NoteNumber":40,"Velocity":32,"Duration":155440,"SoundDuration":155440,"Delta":432251713},{"NoteNumber":67,"Velocity":36,"Duration":155440,"SoundDuration":155440,"Delta":432407153},{"NoteNumber":61,"Velocity":36,"Duration":155440,"SoundDuration":155440,"Delta":432407153},{"NoteNumber":69,"Velocity":43,"Duration":155440,"SoundDuration":155440,"Delta":432407153},{"NoteNumber":64,"Velocity":36,"Duration":155440,"SoundDuration":155440,"Delta":432407153},{"NoteNumber":45,"Velocity":44,"Duration":155440,"SoundDuration":155440,"Delta":432407153},{"NoteNumber":33,"Velocity":34,"Duration":155440,"SoundDuration":155440,"Delta":432562594},{"NoteNumber":69,"Velocity":43,"Duration":172413,"SoundDuration":172413,"Delta":432718034},{"NoteNumber":61,"Velocity":36,"Duration":172413,"SoundDuration":172413,"Delta":432718034},{"NoteNumber":64,"Velocity":36,"Duration":172413,"SoundDuration":172413,"Delta":432718034},{"NoteNumber":67,"Velocity":36,"Duration":172413,"SoundDuration":172413,"Delta":432718034},{"NoteNumber":45,"Velocity":36,"Duration":172413,"SoundDuration":172413,"Delta":432718034},{"NoteNumber":33,"Velocity":35,"Duration":172413,"SoundDuration":172413,"Delta":432890448},{"NoteNumber":64,"Velocity":44,"Duration":2545860,"SoundDuration":2545860,"Delta":433062862},{"NoteNumber":69,"Velocity":53,"Duration":2545860,"SoundDuration":2545860,"Delta":433062862},{"NoteNumber":61,"Velocity":44,"Duration":2545860,"SoundDuration":2545860,"Delta":433062862},{"NoteNumber":67,"Velocity":44,"Duration":2545860,"SoundDuration":2545860,"Delta":433062862},{"NoteNumber":45,"Velocity":43,"Duration":158730,"SoundDuration":158730,"Delta":433062862},{"NoteNumber":40,"Velocity":34,"Duration":158730,"SoundDuration":158730,"Delta":433221592},{"NoteNumber":33,"Velocity":37,"Duration":158730,"SoundDuration":158730,"Delta":433380322},{"NoteNumber":40,"Velocity":34,"Duration":158730,"SoundDuration":158730,"Delta":433539053},{"NoteNumber":45,"Velocity":44,"Duration":158730,"SoundDuration":158730,"Delta":433697783},{"NoteNumber":33,"Velocity":36,"Duration":158730,"SoundDuration":158730,"Delta":433856513},{"NoteNumber":45,"Velocity":36,"Duration":158730,"SoundDuration":158730,"Delta":434015243},{"NoteNumber":33,"Velocity":35,"Duration":171450,"SoundDuration":171450,"Delta":434173974},{"NoteNumber":45,"Velocity":43,"Duration":159574,"SoundDuration":159574,"Delta":434345424},{"NoteNumber":40,"Velocity":34,"Duration":159574,"SoundDuration":159574,"Delta":434504999},{"NoteNumber":33,"Velocity":37,"Duration":159574,"SoundDuration":159574,"Delta":434664573},{"NoteNumber":40,"Velocity":34,"Duration":159574,"SoundDuration":159574,"Delta":434824148},{"NoteNumber":45,"Velocity":44,"Duration":159574,"SoundDuration":159574,"Delta":434983722},{"NoteNumber":33,"Velocity":35,"Duration":159574,"SoundDuration":159574,"Delta":435143297},{"NoteNumber":45,"Velocity":36,"Duration":159574,"SoundDuration":159574,"Delta":435302871},{"NoteNumber":33,"Velocity":35,"Duration":159574,"SoundDuration":159574,"Delta":435462446},{"NoteNumber":69,"Velocity":43,"Duration":159574,"SoundDuration":159574,"Delta":435622020},{"NoteNumber":45,"Velocity":36,"Duration":319149,"SoundDuration":319149,"Delta":435622020},{"NoteNumber":57,"Velocity":37,"Duration":159574,"SoundDuration":159574,"Delta":435781595},{"NoteNumber":61,"Velocity":37,"Duration":153052,"SoundDuration":153052,"Delta":435941169},{"NoteNumber":64,"Velocity":38,"Duration":151975,"SoundDuration":151975,"Delta":436094221},{"NoteNumber":69,"Velocity":43,"Duration":151975,"SoundDuration":151975,"Delta":436246197},{"NoteNumber":52,"Velocity":30,"Duration":607903,"SoundDuration":607903,"Delta":436246197},{"NoteNumber":45,"Velocity":30,"Duration":607903,"SoundDuration":607903,"Delta":436246197},{"NoteNumber":55,"Velocity":36,"Duration":607903,"SoundDuration":607903,"Delta":436246197},{"NoteNumber":57,"Velocity":38,"Duration":151975,"SoundDuration":151975,"Delta":436398173},{"NoteNumber":69,"Velocity":39,"Duration":151975,"SoundDuration":151975,"Delta":436550149},{"NoteNumber":57,"Velocity":39,"Duration":151975,"SoundDuration":151975,"Delta":436702124},{"NoteNumber":73,"Velocity":43,"Duration":151975,"SoundDuration":151975,"Delta":436854100},{"NoteNumber":61,"Velocity":39,"Duration":151975,"SoundDuration":151975,"Delta":437006076},{"NoteNumber":64,"Velocity":39,"Duration":144648,"SoundDuration":144648,"Delta":437158052},{"NoteNumber":69,"Velocity":40,"Duration":144647,"SoundDuration":144647,"Delta":437302700},{"NoteNumber":73,"Velocity":45,"Duration":144648,"SoundDuration":144648,"Delta":437447348},{"NoteNumber":45,"Velocity":31,"Duration":578592,"SoundDuration":578592,"Delta":437447348},{"NoteNumber":52,"Velocity":31,"Duration":578592,"SoundDuration":578592,"Delta":437447348},{"NoteNumber":55,"Velocity":37,"Duration":578592,"SoundDuration":578592,"Delta":437447348},{"NoteNumber":61,"Velocity":40,"Duration":144648,"SoundDuration":144648,"Delta":437591996},{"NoteNumber":73,"Velocity":40,"Duration":144647,"SoundDuration":144647,"Delta":437736644},{"NoteNumber":61,"Velocity":41,"Duration":144648,"SoundDuration":144648,"Delta":437881292},{"NoteNumber":76,"Velocity":47,"Duration":144648,"SoundDuration":144648,"Delta":438025940},{"NoteNumber":64,"Velocity":41,"Duration":144647,"SoundDuration":144647,"Delta":438170588},{"NoteNumber":69,"Velocity":41,"Duration":144648,"SoundDuration":144648,"Delta":438315236},{"NoteNumber":73,"Velocity":42,"Duration":144648,"SoundDuration":144648,"Delta":438459884},{"NoteNumber":76,"Velocity":49,"Duration":144648,"SoundDuration":144648,"Delta":438604532},{"NoteNumber":45,"Velocity":34,"Duration":578592,"SoundDuration":578592,"Delta":438604532},{"NoteNumber":55,"Velocity":41,"Duration":578592,"SoundDuration":578592,"Delta":438604532},{"NoteNumber":52,"Velocity":34,"Duration":578592,"SoundDuration":578592,"Delta":438604532},{"NoteNumber":64,"Velocity":44,"Duration":144647,"SoundDuration":144647,"Delta":438749180},{"NoteNumber":76,"Velocity":45,"Duration":144648,"SoundDuration":144648,"Delta":438893828},{"NoteNumber":64,"Velocity":46,"Duration":144648,"SoundDuration":144648,"Delta":439038476},{"NoteNumber":81,"Velocity":53,"Duration":144647,"SoundDuration":144647,"Delta":439183124},{"NoteNumber":69,"Velocity":46,"Duration":143900,"SoundDuration":143900,"Delta":439327772},{"NoteNumber":73,"Velocity":48,"Duration":140580,"SoundDuration":140580,"Delta":439471672},{"NoteNumber":76,"Velocity":46,"Duration":140580,"SoundDuration":140580,"Delta":439612253},{"NoteNumber":81,"Velocity":53,"Duration":140580,"SoundDuration":140580,"Delta":439752834},{"NoteNumber":57,"Velocity":37,"Duration":562323,"SoundDuration":562323,"Delta":439752834},{"NoteNumber":61,"Velocity":37,"Duration":562323,"SoundDuration":562323,"Delta":439752834},{"NoteNumber":64,"Velocity":45,"Duration":562323,"SoundDuration":562323,"Delta":439752834},{"NoteNumber":69,"Velocity":45,"Duration":140580,"SoundDuration":140580,"Delta":439893415},{"NoteNumber":81,"Velocity":47,"Duration":140580,"SoundDuration":140580,"Delta":440033996},{"NoteNumber":69,"Velocity":46,"Duration":140580,"SoundDuration":140580,"Delta":440174577},{"NoteNumber":81,"Velocity":53,"Duration":140580,"SoundDuration":140580,"Delta":440315158},{"NoteNumber":69,"Velocity":45,"Duration":141812,"SoundDuration":141812,"Delta":440455739},{"NoteNumber":75,"Velocity":48,"Duration":145348,"SoundDuration":145348,"Delta":440597552},{"NoteNumber":78,"Velocity":47,"Duration":145348,"SoundDuration":145348,"Delta":440742900},{"NoteNumber":81,"Velocity":53,"Duration":138632,"SoundDuration":138632,"Delta":440888249},{"NoteNumber":66,"Velocity":45,"Duration":570091,"SoundDuration":570091,"Delta":440888249},{"NoteNumber":63,"Velocity":37,"Duration":570091,"SoundDuration":570091,"Delta":440888249},{"NoteNumber":57,"Velocity":37,"Duration":570091,"SoundDuration":570091,"Delta":440888249},{"NoteNumber":69,"Velocity":45,"Duration":146056,"SoundDuration":146056,"Delta":441026881},{"NoteNumber":81,"Velocity":47,"Duration":138632,"SoundDuration":138632,"Delta":441172938},{"NoteNumber":69,"Velocity":45,"Duration":146771,"SoundDuration":146771,"Delta":441311570},{"NoteNumber":81,"Velocity":53,"Duration":141910,"SoundDuration":141910,"Delta":441458341},{"NoteNumber":69,"Velocity":46,"Duration":141910,"SoundDuration":141910,"Delta":441600252},{"NoteNumber":76,"Velocity":48,"Duration":141910,"SoundDuration":141910,"Delta":441742163},{"NoteNumber":79,"Velocity":47,"Duration":141911,"SoundDuration":141911,"Delta":441884074},{"NoteNumber":81,"Velocity":53,"Duration":139925,"SoundDuration":139925,"Delta":442025985},{"NoteNumber":64,"Velocity":37,"Duration":561766,"SoundDuration":561766,"Delta":442025985},{"NoteNumber":67,"Velocity":45,"Duration":561766,"SoundDuration":561766,"Delta":442025985},{"NoteNumber":57,"Velocity":37,"Duration":561766,"SoundDuration":561766,"Delta":442025985},{"NoteNumber":69,"Velocity":45,"Duration":139969,"SoundDuration":139969,"Delta":442165910},{"NoteNumber":81,"Velocity":47,"Duration":141242,"SoundDuration":141242,"Delta":442305879},{"NoteNumber":69,"Velocity":45,"Duration":140628,"SoundDuration":140628,"Delta":442447122},{"NoteNumber":81,"Velocity":53,"Duration":137362,"SoundDuration":137362,"Delta":442587751},{"NoteNumber":69,"Velocity":46,"Duration":137362,"SoundDuration":137362,"Delta":442725114},{"NoteNumber":76,"Velocity":48,"Duration":137362,"SoundDuration":137362,"Delta":442862477},{"NoteNumber":79,"Velocity":46,"Duration":137362,"SoundDuration":137362,"Delta":442999839},{"NoteNumber":81,"Velocity":53,"Duration":137362,"SoundDuration":137362,"Delta":443137202},{"NoteNumber":57,"Velocity":37,"Duration":1640700,"SoundDuration":1640700,"Delta":443137202},{"NoteNumber":67,"Velocity":45,"Duration":1640700,"SoundDuration":1640700,"Delta":443137202},{"NoteNumber":64,"Velocity":37,"Duration":1640700,"SoundDuration":1640700,"Delta":443137202},{"NoteNumber":69,"Velocity":45,"Duration":137362,"SoundDuration":137362,"Delta":443274565},{"NoteNumber":81,"Velocity":47,"Duration":137362,"SoundDuration":137362,"Delta":443411928},{"NoteNumber":69,"Velocity":46,"Duration":137341,"SoundDuration":137341,"Delta":443549290},{"NoteNumber":81,"Velocity":53,"Duration":136736,"SoundDuration":136736,"Delta":443686632},{"NoteNumber":73,"Velocity":45,"Duration":136736,"SoundDuration":136736,"Delta":443823369},{"NoteNumber":81,"Velocity":47,"Duration":136736,"SoundDuration":136736,"Delta":443960105},{"NoteNumber":73,"Velocity":45,"Duration":136715,"SoundDuration":136715,"Delta":444096842},{"NoteNumber":81,"Velocity":53,"Duration":136116,"SoundDuration":136116,"Delta":444233558},{"NoteNumber":76,"Velocity":45,"Duration":136116,"SoundDuration":136116,"Delta":444369674},{"NoteNumber":81,"Velocity":47,"Duration":136116,"SoundDuration":136116,"Delta":444505790},{"NoteNumber":76,"Velocity":45,"Duration":135995,"SoundDuration":135995,"Delta":444641906},{"NoteNumber":81,"Velocity":58,"Duration":132431,"SoundDuration":132431,"Delta":444777902},{"NoteNumber":79,"Velocity":47,"Duration":132076,"SoundDuration":132076,"Delta":444910334},{"NoteNumber":81,"Velocity":49,"Duration":131497,"SoundDuration":131497,"Delta":445042410},{"NoteNumber":79,"Velocity":48,"Duration":130924,"SoundDuration":130924,"Delta":445173908},{"NoteNumber":81,"Velocity":58,"Duration":130241,"SoundDuration":130241,"Delta":445304832},{"NoteNumber":80,"Velocity":48,"Duration":129678,"SoundDuration":129678,"Delta":445435074},{"NoteNumber":81,"Velocity":52,"Duration":129120,"SoundDuration":129120,"Delta":445564753},{"NoteNumber":80,"Velocity":50,"Duration":128567,"SoundDuration":128567,"Delta":445693874},{"NoteNumber":83,"Velocity":59,"Duration":128041,"SoundDuration":128041,"Delta":445822441},{"NoteNumber":81,"Velocity":50,"Duration":128746,"SoundDuration":128746,"Delta":445950483},{"NoteNumber":83,"Velocity":54,"Duration":129725,"SoundDuration":129725,"Delta":446079229},{"NoteNumber":81,"Velocity":51,"Duration":130678,"SoundDuration":130678,"Delta":446208955},{"NoteNumber":83,"Velocity":63,"Duration":131925,"SoundDuration":131925,"Delta":446339634},{"NoteNumber":81,"Velocity":51,"Duration":131926,"SoundDuration":131926,"Delta":446471560},{"NoteNumber":83,"Velocity":56,"Duration":131925,"SoundDuration":131925,"Delta":446603486},{"NoteNumber":81,"Velocity":51,"Duration":131945,"SoundDuration":131945,"Delta":446735412},{"NoteNumber":83,"Velocity":61,"Duration":132508,"SoundDuration":132508,"Delta":446867357},{"NoteNumber":81,"Velocity":55,"Duration":132508,"SoundDuration":132508,"Delta":446999866},{"NoteNumber":83,"Velocity":56,"Duration":132508,"SoundDuration":132508,"Delta":447132375},{"NoteNumber":81,"Velocity":57,"Duration":132270,"SoundDuration":132270,"Delta":447264883},{"NoteNumber":83,"Velocity":66,"Duration":131926,"SoundDuration":131926,"Delta":447397154},{"NoteNumber":81,"Velocity":60,"Duration":131545,"SoundDuration":131545,"Delta":447529080},{"NoteNumber":83,"Velocity":60,"Duration":131348,"SoundDuration":131348,"Delta":447660626},{"NoteNumber":81,"Velocity":61,"Duration":130828,"SoundDuration":130828,"Delta":447791974},{"NoteNumber":83,"Velocity":70,"Duration":130686,"SoundDuration":130686,"Delta":447922803},{"NoteNumber":81,"Velocity":58,"Duration":130208,"SoundDuration":130208,"Delta":448053489},{"NoteNumber":86,"Velocity":57,"Duration":129978,"SoundDuration":129978,"Delta":448183697},{"NoteNumber":81,"Velocity":56,"Duration":129590,"SoundDuration":129590,"Delta":448313676},{"NoteNumber":80,"Velocity":62,"Duration":129027,"SoundDuration":129027,"Delta":448443266},{"NoteNumber":83,"Velocity":55,"Duration":131738,"SoundDuration":131738,"Delta":448572294},{"NoteNumber":81,"Velocity":53,"Duration":134544,"SoundDuration":134544,"Delta":448704033},{"NoteNumber":78,"Velocity":52,"Duration":137898,"SoundDuration":137898,"Delta":448838577},{"NoteNumber":74,"Velocity":49,"Duration":278913,"SoundDuration":278913,"Delta":448976476},{"NoteNumber":62,"Velocity":30,"Duration":139456,"SoundDuration":139456,"Delta":448976476},{"NoteNumber":66,"Velocity":36,"Duration":139456,"SoundDuration":139456,"Delta":448976476},{"NoteNumber":76,"Velocity":49,"Duration":141536,"SoundDuration":141536,"Delta":449255390},{"NoteNumber":66,"Velocity":31,"Duration":141536,"SoundDuration":141536,"Delta":449255390},{"NoteNumber":57,"Velocity":26,"Duration":141536,"SoundDuration":141536,"Delta":449255390},{"NoteNumber":74,"Velocity":35,"Duration":141536,"SoundDuration":141536,"Delta":449396926},{"NoteNumber":76,"Velocity":48,"Duration":140082,"SoundDuration":140082,"Delta":449538462},{"NoteNumber":62,"Velocity":30,"Duration":140082,"SoundDuration":140082,"Delta":449538462},{"NoteNumber":66,"Velocity":36,"Duration":140082,"SoundDuration":140082,"Delta":449538462},{"NoteNumber":74,"Velocity":34,"Duration":145278,"SoundDuration":145278,"Delta":449678544},{"NoteNumber":78,"Velocity":48,"Duration":141349,"SoundDuration":141349,"Delta":449823823},{"NoteNumber":57,"Velocity":26,"Duration":141349,"SoundDuration":141349,"Delta":449823823},{"NoteNumber":66,"Velocity":31,"Duration":141349,"SoundDuration":141349,"Delta":449823823},{"NoteNumber":76,"Velocity":36,"Duration":144606,"SoundDuration":144606,"Delta":449965172},{"NoteNumber":74,"Velocity":51,"Duration":140082,"SoundDuration":140082,"Delta":450109779},{"NoteNumber":67,"Velocity":36,"Duration":140082,"SoundDuration":140082,"Delta":450109779},{"NoteNumber":64,"Velocity":30,"Duration":140082,"SoundDuration":140082,"Delta":450109779},{"NoteNumber":73,"Velocity":44,"Duration":140082,"SoundDuration":140082,"Delta":450249861},{"NoteNumber":71,"Velocity":46,"Duration":140082,"SoundDuration":140082,"Delta":450389943},{"NoteNumber":57,"Velocity":26,"Duration":140082,"SoundDuration":140082,"Delta":450389943},{"NoteNumber":67,"Velocity":31,"Duration":140082,"SoundDuration":140082,"Delta":450389943},{"NoteNumber":69,"Velocity":43,"Duration":140082,"SoundDuration":140082,"Delta":450530025},{"NoteNumber":71,"Velocity":49,"Duration":144606,"SoundDuration":144606,"Delta":450670108},{"NoteNumber":67,"Velocity":36,"Duration":144606,"SoundDuration":144606,"Delta":450670108},{"NoteNumber":61,"Velocity":30,"Duration":144606,"SoundDuration":144606,"Delta":450670108},{"NoteNumber":73,"Velocity":45,"Duration":144606,"SoundDuration":144606,"Delta":450814714},{"NoteNumber":74,"Velocity":47,"Duration":141349,"SoundDuration":141349,"Delta":450959320},{"NoteNumber":57,"Velocity":26,"Duration":141349,"SoundDuration":141349,"Delta":450959320},{"NoteNumber":67,"Velocity":31,"Duration":141349,"SoundDuration":141349,"Delta":450959320},{"NoteNumber":76,"Velocity":49,"Duration":148721,"SoundDuration":148721,"Delta":451100670},{"NoteNumber":69,"Velocity":54,"Duration":280164,"SoundDuration":280164,"Delta":451249391},{"NoteNumber":62,"Velocity":30,"Duration":140082,"SoundDuration":140082,"Delta":451249391},{"NoteNumber":66,"Velocity":36,"Duration":140082,"SoundDuration":140082,"Delta":451249391},{"NoteNumber":71,"Velocity":54,"Duration":140082,"SoundDuration":140082,"Delta":451529555},{"NoteNumber":57,"Velocity":25,"Duration":140082,"SoundDuration":140082,"Delta":451529555},{"NoteNumber":66,"Velocity":30,"Duration":140082,"SoundDuration":140082,"Delta":451529555},{"NoteNumber":69,"Velocity":37,"Duration":140082,"SoundDuration":140082,"Delta":451669637},{"NoteNumber":71,"Velocity":54,"Duration":142639,"SoundDuration":142639,"Delta":451809720},{"NoteNumber":66,"Velocity":36,"Duration":142639,"SoundDuration":142639,"Delta":451809720},{"NoteNumber":62,"Velocity":30,"Duration":142639,"SoundDuration":142639,"Delta":451809720},{"NoteNumber":69,"Velocity":45,"Duration":142639,"SoundDuration":142639,"Delta":451952359},{"NoteNumber":78,"Velocity":60,"Duration":141991,"SoundDuration":141991,"Delta":452094999},{"NoteNumber":66,"Velocity":30,"Duration":141991,"SoundDuration":141991,"Delta":452094999},{"NoteNumber":57,"Velocity":25,"Duration":141991,"SoundDuration":141991,"Delta":452094999},{"NoteNumber":74,"Velocity":48,"Duration":146627,"SoundDuration":146627,"Delta":452236991},{"NoteNumber":73,"Velocity":53,"Duration":140713,"SoundDuration":140713,"Delta":452383618},{"NoteNumber":67,"Velocity":36,"Duration":140713,"SoundDuration":140713,"Delta":452383618},{"NoteNumber":64,"Velocity":30,"Duration":140713,"SoundDuration":140713,"Delta":452383618},{"NoteNumber":74,"Velocity":50,"Duration":140713,"SoundDuration":140713,"Delta":452524331},{"NoteNumber":76,"Velocity":53,"Duration":140713,"SoundDuration":140713,"Delta":452665044},{"NoteNumber":67,"Velocity":32,"Duration":140713,"SoundDuration":140713,"Delta":452665044},{"NoteNumber":57,"Velocity":27,"Duration":140713,"SoundDuration":140713,"Delta":452665044},{"NoteNumber":78,"Velocity":51,"Duration":140713,"SoundDuration":140713,"Delta":452805757},{"NoteNumber":79,"Velocity":59,"Duration":143280,"SoundDuration":143280,"Delta":452946470},{"NoteNumber":61,"Velocity":30,"Duration":143280,"SoundDuration":143280,"Delta":452946470},{"NoteNumber":67,"Velocity":36,"Duration":143280,"SoundDuration":143280,"Delta":452946470},{"NoteNumber":81,"Velocity":55,"Duration":143280,"SoundDuration":143280,"Delta":453089751},{"NoteNumber":83,"Velocity":64,"Duration":143280,"SoundDuration":143280,"Delta":453233031},{"NoteNumber":57,"Velocity":27,"Duration":143280,"SoundDuration":143280,"Delta":453233031},{"NoteNumber":67,"Velocity":32,"Duration":143280,"SoundDuration":143280,"Delta":453233031},{"NoteNumber":81,"Velocity":57,"Duration":137566,"SoundDuration":137566,"Delta":453376311},{"NoteNumber":81,"Velocity":63,"Duration":278913,"SoundDuration":278913,"Delta":453525032},{"NoteNumber":62,"Velocity":30,"Duration":139456,"SoundDuration":139456,"Delta":453525032},{"NoteNumber":66,"Velocity":36,"Duration":139456,"SoundDuration":139456,"Delta":453525032},{"NoteNumber":83,"Velocity":56,"Duration":139456,"SoundDuration":139456,"Delta":453803946},{"NoteNumber":57,"Velocity":26,"Duration":139456,"SoundDuration":139456,"Delta":453803946},{"NoteNumber":66,"Velocity":31,"Duration":139456,"SoundDuration":139456,"Delta":453803946},{"NoteNumber":81,"Velocity":43,"Duration":139456,"SoundDuration":139456,"Delta":453943403},{"NoteNumber":83,"Velocity":56,"Duration":141349,"SoundDuration":141349,"Delta":454082860},{"NoteNumber":62,"Velocity":30,"Duration":141349,"SoundDuration":141349,"Delta":454082860},{"NoteNumber":66,"Velocity":36,"Duration":141349,"SoundDuration":141349,"Delta":454082860},{"NoteNumber":81,"Velocity":45,"Duration":141349,"SoundDuration":141349,"Delta":454224210},{"NoteNumber":86,"Velocity":60,"Duration":141349,"SoundDuration":141349,"Delta":454365559},{"NoteNumber":66,"Velocity":31,"Duration":141349,"SoundDuration":141349,"Delta":454365559},{"NoteNumber":57,"Velocity":26,"Duration":141349,"SoundDuration":141349,"Delta":454365559},{"NoteNumber":85,"Velocity":43,"Duration":153076,"SoundDuration":153076,"Delta":454506909},{"NoteNumber":83,"Velocity":53,"Duration":36319,"SoundDuration":36319,"Delta":454659985},{"NoteNumber":62,"Velocity":30,"Duration":145278,"SoundDuration":145278,"Delta":454659985},{"NoteNumber":67,"Velocity":36,"Duration":145278,"SoundDuration":145278,"Delta":454659985},{"NoteNumber":85,"Velocity":53,"Duration":36319,"SoundDuration":36319,"Delta":454696305},{"NoteNumber":83,"Velocity":61,"Duration":72639,"SoundDuration":72639,"Delta":454732625},{"NoteNumber":82,"Velocity":56,"Duration":141349,"SoundDuration":141349,"Delta":454805264},{"NoteNumber":83,"Velocity":61,"Duration":141349,"SoundDuration":141349,"Delta":454946613},{"NoteNumber":55,"Velocity":26,"Duration":141349,"SoundDuration":141349,"Delta":454946613},{"NoteNumber":62,"Velocity":26,"Duration":141349,"SoundDuration":141349,"Delta":454946613},{"NoteNumber":67,"Velocity":31,"Duration":141349,"SoundDuration":141349,"Delta":454946613},{"NoteNumber":85,"Velocity":56,"Duration":141349,"SoundDuration":141349,"Delta":455087963},{"NoteNumber":83,"Velocity":61,"Duration":144606,"SoundDuration":144606,"Delta":455229312},{"NoteNumber":67,"Velocity":36,"Duration":144606,"SoundDuration":144606,"Delta":455229312},{"NoteNumber":62,"Velocity":30,"Duration":144606,"SoundDuration":144606,"Delta":455229312},{"NoteNumber":91,"Velocity":67,"Duration":144606,"SoundDuration":144606,"Delta":455373919},{"NoteNumber":90,"Velocity":61,"Duration":141349,"SoundDuration":141349,"Delta":455518525},{"NoteNumber":59,"Velocity":26,"Duration":141349,"SoundDuration":141349,"Delta":455518525},{"NoteNumber":62,"Velocity":26,"Duration":141349,"SoundDuration":141349,"Delta":455518525},{"NoteNumber":67,"Velocity":31,"Duration":141349,"SoundDuration":141349,"Delta":455518525},{"NoteNumber":86,"Velocity":57,"Duration":147318,"SoundDuration":147318,"Delta":455659874},{"NoteNumber":81,"Velocity":70,"Duration":280164,"SoundDuration":280164,"Delta":455807193},{"NoteNumber":66,"Velocity":36,"Duration":140082,"SoundDuration":140082,"Delta":455807193},{"NoteNumber":62,"Velocity":30,"Duration":140082,"SoundDuration":140082,"Delta":455807193},{"NoteNumber":83,"Velocity":66,"Duration":140082,"SoundDuration":140082,"Delta":456087358},{"NoteNumber":66,"Velocity":30,"Duration":140082,"SoundDuration":140082,"Delta":456087358},{"NoteNumber":57,"Velocity":25,"Duration":140082,"SoundDuration":140082,"Delta":456087358},{"NoteNumber":81,"Velocity":47,"Duration":140082,"SoundDuration":140082,"Delta":456227440},{"NoteNumber":83,"Velocity":66,"Duration":145957,"SoundDuration":145957,"Delta":456367522},{"NoteNumber":66,"Velocity":36,"Duration":145957,"SoundDuration":145957,"Delta":456367522},{"NoteNumber":62,"Velocity":30,"Duration":145957,"SoundDuration":145957,"Delta":456367522},{"NoteNumber":81,"Velocity":47,"Duration":145957,"SoundDuration":145957,"Delta":456513479},{"NoteNumber":83,"Velocity":68,"Duration":141349,"SoundDuration":141349,"Delta":456659436},{"NoteNumber":57,"Velocity":25,"Duration":141349,"SoundDuration":141349,"Delta":456659436},{"NoteNumber":66,"Velocity":30,"Duration":141349,"SoundDuration":141349,"Delta":456659436},{"NoteNumber":81,"Velocity":49,"Duration":146627,"SoundDuration":146627,"Delta":456800786},{"NoteNumber":83,"Velocity":69,"Duration":140713,"SoundDuration":140713,"Delta":456947413},{"NoteNumber":62,"Velocity":30,"Duration":140713,"SoundDuration":140713,"Delta":456947413},{"NoteNumber":66,"Velocity":36,"Duration":140713,"SoundDuration":140713,"Delta":456947413},{"NoteNumber":81,"Velocity":56,"Duration":140713,"SoundDuration":140713,"Delta":457088126},{"NoteNumber":86,"Velocity":63,"Duration":140713,"SoundDuration":140713,"Delta":457228839},{"NoteNumber":66,"Velocity":32,"Duration":140713,"SoundDuration":140713,"Delta":457228839},{"NoteNumber":57,"Velocity":27,"Duration":140713,"SoundDuration":140713,"Delta":457228839},{"NoteNumber":81,"Velocity":47,"Duration":140713,"SoundDuration":140713,"Delta":457369552},{"NoteNumber":80,"Velocity":61,"Duration":143280,"SoundDuration":143280,"Delta":457510265},{"NoteNumber":66,"Velocity":36,"Duration":143280,"SoundDuration":143280,"Delta":457510265},{"NoteNumber":62,"Velocity":30,"Duration":143280,"SoundDuration":143280,"Delta":457510265},{"NoteNumber":83,"Velocity":54,"Duration":143280,"SoundDuration":143280,"Delta":457653545},{"NoteNumber":81,"Velocity":59,"Duration":143280,"SoundDuration":143280,"Delta":457796826},{"NoteNumber":57,"Velocity":27,"Duration":143280,"SoundDuration":143280,"Delta":457796826},{"NoteNumber":66,"Velocity":32,"Duration":143280,"SoundDuration":143280,"Delta":457796826},{"NoteNumber":78,"Velocity":51,"Duration":148721,"SoundDuration":148721,"Delta":457940106},{"NoteNumber":74,"Velocity":49,"Duration":278913,"SoundDuration":278913,"Delta":458088827},{"NoteNumber":62,"Velocity":30,"Duration":139456,"SoundDuration":139456,"Delta":458088827},{"NoteNumber":66,"Velocity":36,"Duration":139456,"SoundDuration":139456,"Delta":458088827},{"NoteNumber":76,"Velocity":49,"Duration":142179,"SoundDuration":142179,"Delta":458367741},{"NoteNumber":57,"Velocity":26,"Duration":142179,"SoundDuration":142179,"Delta":458367741},{"NoteNumber":66,"Velocity":31,"Duration":142179,"SoundDuration":142179,"Delta":458367741},{"NoteNumber":74,"Velocity":35,"Duration":142179,"SoundDuration":142179,"Delta":458509921},{"NoteNumber":76,"Velocity":50,"Duration":141349,"SoundDuration":141349,"Delta":458652101},{"NoteNumber":62,"Velocity":30,"Duration":141349,"SoundDuration":141349,"Delta":458652101},{"NoteNumber":66,"Velocity":36,"Duration":141349,"SoundDuration":141349,"Delta":458652101},{"NoteNumber":74,"Velocity":35,"Duration":141349,"SoundDuration":141349,"Delta":458793450},{"NoteNumber":78,"Velocity":54,"Duration":141349,"SoundDuration":141349,"Delta":458934800},{"NoteNumber":57,"Velocity":26,"Duration":141349,"SoundDuration":141349,"Delta":458934800},{"NoteNumber":66,"Velocity":31,"Duration":141349,"SoundDuration":141349,"Delta":458934800},{"NoteNumber":76,"Velocity":40,"Duration":148016,"SoundDuration":148016,"Delta":459076149},{"NoteNumber":74,"Velocity":51,"Duration":140082,"SoundDuration":140082,"Delta":459224166},{"NoteNumber":64,"Velocity":30,"Duration":140082,"SoundDuration":140082,"Delta":459224166},{"NoteNumber":67,"Velocity":36,"Duration":140082,"SoundDuration":140082,"Delta":459224166},{"NoteNumber":73,"Velocity":45,"Duration":140082,"SoundDuration":140082,"Delta":459364248},{"NoteNumber":71,"Velocity":51,"Duration":140082,"SoundDuration":140082,"Delta":459504330},{"NoteNumber":57,"Velocity":26,"Duration":140082,"SoundDuration":140082,"Delta":459504330},{"NoteNumber":67,"Velocity":31,"Duration":140082,"SoundDuration":140082,"Delta":459504330},{"NoteNumber":69,"Velocity":46,"Duration":140082,"SoundDuration":140082,"Delta":459644413},{"NoteNumber":71,"Velocity":56,"Duration":144606,"SoundDuration":144606,"Delta":459784495},{"NoteNumber":67,"Velocity":36,"Duration":144606,"SoundDuration":144606,"Delta":459784495},{"NoteNumber":64,"Velocity":30,"Duration":144606,"SoundDuration":144606,"Delta":459784495},{"NoteNumber":73,"Velocity":58,"Duration":144606,"SoundDuration":144606,"Delta":459929101},{"NoteNumber":74,"Velocity":61,"Duration":144606,"SoundDuration":144606,"Delta":460073707},{"NoteNumber":57,"Velocity":26,"Duration":144606,"SoundDuration":144606,"Delta":460073707},{"NoteNumber":67,"Velocity":31,"Duration":144606,"SoundDuration":144606,"Delta":460073707},{"NoteNumber":76,"Velocity":63,"Duration":147516,"SoundDuration":147516,"Delta":460218314},{"NoteNumber":78,"Velocity":66,"Duration":300270,"SoundDuration":300270,"Delta":460379241},{"NoteNumber":66,"Velocity":36,"Duration":150134,"SoundDuration":150134,"Delta":460379241},{"NoteNumber":58,"Velocity":30,"Duration":150134,"SoundDuration":150134,"Delta":460379241},{"NoteNumber":77,"Velocity":62,"Duration":148016,"SoundDuration":148016,"Delta":460679511},{"NoteNumber":58,"Velocity":25,"Duration":148016,"SoundDuration":148016,"Delta":460679511},{"NoteNumber":61,"Velocity":30,"Duration":148016,"SoundDuration":148016,"Delta":460679511},{"NoteNumber":78,"Velocity":52,"Duration":148016,"SoundDuration":148016,"Delta":460827527},{"NoteNumber":77,"Velocity":62,"Duration":144606,"SoundDuration":144606,"Delta":460975544},{"NoteNumber":58,"Velocity":30,"Duration":144606,"SoundDuration":144606,"Delta":460975544},{"NoteNumber":66,"Velocity":36,"Duration":144606,"SoundDuration":144606,"Delta":460975544},{"NoteNumber":78,"Velocity":45,"Duration":144606,"SoundDuration":144606,"Delta":461120150},{"NoteNumber":77,"Velocity":62,"Duration":144606,"SoundDuration":144606,"Delta":461264756},{"NoteNumber":58,"Velocity":25,"Duration":144606,"SoundDuration":144606,"Delta":461264756},{"NoteNumber":61,"Velocity":30,"Duration":144606,"SoundDuration":144606,"Delta":461264756},{"NoteNumber":78,"Velocity":45,"Duration":144606,"SoundDuration":144606,"Delta":461409362},{"NoteNumber":79,"Velocity":62,"Duration":143280,"SoundDuration":143280,"Delta":461553969},{"NoteNumber":62,"Velocity":36,"Duration":143280,"SoundDuration":143280,"Delta":461553969},{"NoteNumber":59,"Velocity":30,"Duration":143280,"SoundDuration":143280,"Delta":461553969},{"NoteNumber":83,"Velocity":57,"Duration":145957,"SoundDuration":145957,"Delta":461697249},{"NoteNumber":88,"Velocity":67,"Duration":139456,"SoundDuration":139456,"Delta":461843206},{"NoteNumber":67,"Velocity":32,"Duration":139456,"SoundDuration":139456,"Delta":461843206},{"NoteNumber":62,"Velocity":27,"Duration":139456,"SoundDuration":139456,"Delta":461843206},{"NoteNumber":59,"Velocity":27,"Duration":139456,"SoundDuration":139456,"Delta":461843206},{"NoteNumber":86,"Velocity":54,"Duration":139456,"SoundDuration":139456,"Delta":461982663},{"NoteNumber":85,"Velocity":62,"Duration":140082,"SoundDuration":140082,"Delta":462122120},{"NoteNumber":62,"Velocity":30,"Duration":140082,"SoundDuration":140082,"Delta":462122120},{"NoteNumber":55,"Velocity":30,"Duration":140082,"SoundDuration":140082,"Delta":462122120},{"NoteNumber":67,"Velocity":36,"Duration":140082,"SoundDuration":140082,"Delta":462122120},{"NoteNumber":83,"Velocity":54,"Duration":140082,"SoundDuration":140082,"Delta":462262202},{"NoteNumber":81,"Velocity":52,"Duration":140082,"SoundDuration":140082,"Delta":462402284},{"NoteNumber":67,"Velocity":32,"Duration":140082,"SoundDuration":140082,"Delta":462402284},{"NoteNumber":59,"Velocity":27,"Duration":140082,"SoundDuration":140082,"Delta":462402284},{"NoteNumber":62,"Velocity":27,"Duration":140082,"SoundDuration":140082,"Delta":462402284},{"NoteNumber":79,"Velocity":52,"Duration":148721,"SoundDuration":148721,"Delta":462542367},{"NoteNumber":78,"Velocity":58,"Duration":274047,"SoundDuration":274047,"Delta":462691088},{"NoteNumber":66,"Velocity":36,"Duration":137023,"SoundDuration":137023,"Delta":462691088},{"NoteNumber":62,"Velocity":30,"Duration":137023,"SoundDuration":137023,"Delta":462691088},{"NoteNumber":81,"Velocity":54,"Duration":137023,"SoundDuration":137023,"Delta":462965135},{"NoteNumber":66,"Velocity":31,"Duration":137023,"SoundDuration":137023,"Delta":462965135},{"NoteNumber":57,"Velocity":26,"Duration":137023,"SoundDuration":137023,"Delta":462965135},{"NoteNumber":78,"Velocity":41,"Duration":137023,"SoundDuration":137023,"Delta":463102159},{"NoteNumber":81,"Velocity":55,"Duration":139651,"SoundDuration":139651,"Delta":463239183},{"NoteNumber":66,"Velocity":36,"Duration":139651,"SoundDuration":139651,"Delta":463239183},{"NoteNumber":62,"Velocity":30,"Duration":139651,"SoundDuration":139651,"Delta":463239183},{"NoteNumber":78,"Velocity":41,"Duration":139651,"SoundDuration":139651,"Delta":463378834},{"NoteNumber":81,"Velocity":56,"Duration":144133,"SoundDuration":144133,"Delta":463518486},{"NoteNumber":66,"Velocity":31,"Duration":144133,"SoundDuration":144133,"Delta":463518486},{"NoteNumber":57,"Velocity":26,"Duration":144133,"SoundDuration":144133,"Delta":463518486},{"NoteNumber":78,"Velocity":46,"Duration":144133,"SoundDuration":144133,"Delta":463662620},{"NoteNumber":76,"Velocity":54,"Duration":138850,"SoundDuration":138850,"Delta":463806754},{"NoteNumber":67,"Velocity":36,"Duration":138850,"SoundDuration":138850,"Delta":463806754},{"NoteNumber":61,"Velocity":30,"Duration":138850,"SoundDuration":138850,"Delta":463806754},{"NoteNumber":78,"Velocity":50,"Duration":138850,"SoundDuration":138850,"Delta":463945604},{"NoteNumber":79,"Velocity":54,"Duration":146627,"SoundDuration":146627,"Delta":464084454},{"NoteNumber":57,"Velocity":26,"Duration":146627,"SoundDuration":146627,"Delta":464084454},{"NoteNumber":67,"Velocity":31,"Duration":146627,"SoundDuration":146627,"Delta":464084454},{"NoteNumber":83,"Velocity":60,"Duration":138236,"SoundDuration":138236,"Delta":464231082},{"NoteNumber":81,"Velocity":57,"Duration":140082,"SoundDuration":140082,"Delta":464369318},{"NoteNumber":67,"Velocity":36,"Duration":140082,"SoundDuration":140082,"Delta":464369318},{"NoteNumber":61,"Velocity":30,"Duration":140082,"SoundDuration":140082,"Delta":464369318},{"NoteNumber":79,"Velocity":49,"Duration":140082,"SoundDuration":140082,"Delta":464509400},{"NoteNumber":78,"Velocity":57,"Duration":140082,"SoundDuration":140082,"Delta":464649482},{"NoteNumber":57,"Velocity":26,"Duration":140082,"SoundDuration":140082,"Delta":464649482},{"NoteNumber":67,"Velocity":31,"Duration":140082,"SoundDuration":140082,"Delta":464649482},{"NoteNumber":76,"Velocity":46,"Duration":149432,"SoundDuration":149432,"Delta":464789564},{"NoteNumber":74,"Velocity":49,"Duration":278913,"SoundDuration":278913,"Delta":464938997},{"NoteNumber":62,"Velocity":30,"Duration":139456,"SoundDuration":139456,"Delta":464938997},{"NoteNumber":66,"Velocity":36,"Duration":139456,"SoundDuration":139456,"Delta":464938997},{"NoteNumber":76,"Velocity":49,"Duration":143280,"SoundDuration":143280,"Delta":465217911},{"NoteNumber":66,"Velocity":31,"Duration":143280,"SoundDuration":143280,"Delta":465217911},{"NoteNumber":57,"Velocity":26,"Duration":143280,"SoundDuration":143280,"Delta":465217911},{"NoteNumber":74,"Velocity":33,"Duration":143280,"SoundDuration":143280,"Delta":465361191},{"NoteNumber":76,"Velocity":49,"Duration":142639,"SoundDuration":142639,"Delta":465504471},{"NoteNumber":66,"Velocity":36,"Duration":142639,"SoundDuration":142639,"Delta":465504471},{"NoteNumber":62,"Velocity":30,"Duration":142639,"SoundDuration":142639,"Delta":465504471},{"NoteNumber":74,"Velocity":34,"Duration":145278,"SoundDuration":145278,"Delta":465647111},{"NoteNumber":76,"Velocity":48,"Duration":141349,"SoundDuration":141349,"Delta":465792389},{"NoteNumber":57,"Velocity":26,"Duration":141349,"SoundDuration":141349,"Delta":465792389},{"NoteNumber":66,"Velocity":31,"Duration":141349,"SoundDuration":141349,"Delta":465792389},{"NoteNumber":74,"Velocity":40,"Duration":144606,"SoundDuration":144606,"Delta":465933739},{"NoteNumber":62,"Velocity":61,"Duration":137023,"SoundDuration":137023,"Delta":466078345},{"NoteNumber":50,"Velocity":52,"Duration":137023,"SoundDuration":137023,"Delta":466078345},{"NoteNumber":64,"Velocity":52,"Duration":137023,"SoundDuration":137023,"Delta":466215369},{"NoteNumber":52,"Velocity":46,"Duration":137023,"SoundDuration":137023,"Delta":466215369},{"NoteNumber":66,"Velocity":55,"Duration":137023,"SoundDuration":137023,"Delta":466352393},{"NoteNumber":54,"Velocity":46,"Duration":137023,"SoundDuration":137023,"Delta":466352393},{"NoteNumber":71,"Velocity":52,"Duration":137023,"SoundDuration":137023,"Delta":466489416},{"NoteNumber":59,"Velocity":46,"Duration":137023,"SoundDuration":137023,"Delta":466489416},{"NoteNumber":69,"Velocity":61,"Duration":138850,"SoundDuration":138850,"Delta":466626440},{"NoteNumber":57,"Velocity":52,"Duration":138850,"SoundDuration":138850,"Delta":466626440},{"NoteNumber":66,"Velocity":52,"Duration":138850,"SoundDuration":138850,"Delta":466765290},{"NoteNumber":54,"Velocity":46,"Duration":138850,"SoundDuration":138850,"Delta":466765290},{"NoteNumber":64,"Velocity":55,"Duration":146761,"SoundDuration":146761,"Delta":466904141},{"NoteNumber":52,"Velocity":46,"Duration":146761,"SoundDuration":146761,"Delta":466904141},{"NoteNumber":62,"Velocity":52,"Duration":162584,"SoundDuration":162584,"Delta":467050902},{"NoteNumber":50,"Velocity":46,"Duration":162584,"SoundDuration":162584,"Delta":467050902},{"NoteNumber":64,"Velocity":62,"Duration":298864,"SoundDuration":298864,"Delta":467213486},{"NoteNumber":49,"Velocity":44,"Duration":149432,"SoundDuration":149432,"Delta":467213486},{"NoteNumber":55,"Velocity":52,"Duration":149432,"SoundDuration":149432,"Delta":467213486},{"NoteNumber":66,"Velocity":59,"Duration":147521,"SoundDuration":147521,"Delta":467512351},{"NoteNumber":55,"Velocity":46,"Duration":147521,"SoundDuration":147521,"Delta":467512351},{"NoteNumber":45,"Velocity":46,"Duration":147521,"SoundDuration":147521,"Delta":467512351},{"NoteNumber":64,"Velocity":44,"Duration":145278,"SoundDuration":145278,"Delta":467659872},{"NoteNumber":66,"Velocity":57,"Duration":145278,"SoundDuration":145278,"Delta":467805151},{"NoteNumber":49,"Velocity":44,"Duration":145278,"SoundDuration":145278,"Delta":467805151},{"NoteNumber":55,"Velocity":52,"Duration":145278,"SoundDuration":145278,"Delta":467805151},{"NoteNumber":64,"Velocity":44,"Duration":145278,"SoundDuration":145278,"Delta":467950429},{"NoteNumber":66,"Velocity":57,"Duration":145278,"SoundDuration":145278,"Delta":468095708},{"NoteNumber":55,"Velocity":50,"Duration":145278,"SoundDuration":145278,"Delta":468095708},{"NoteNumber":45,"Velocity":42,"Duration":145278,"SoundDuration":145278,"Delta":468095708},{"NoteNumber":64,"Velocity":44,"Duration":145278,"SoundDuration":145278,"Delta":468240986},{"NoteNumber":64,"Velocity":57,"Duration":144606,"SoundDuration":144606,"Delta":468386265},{"NoteNumber":55,"Velocity":50,"Duration":144606,"SoundDuration":144606,"Delta":468386265},{"NoteNumber":49,"Velocity":42,"Duration":144606,"SoundDuration":144606,"Delta":468386265},{"NoteNumber":66,"Velocity":52,"Duration":144606,"SoundDuration":144606,"Delta":468530871},{"NoteNumber":67,"Velocity":52,"Duration":142639,"SoundDuration":142639,"Delta":468675477},{"NoteNumber":55,"Velocity":50,"Duration":142639,"SoundDuration":142639,"Delta":468675477},{"NoteNumber":45,"Velocity":42,"Duration":142639,"SoundDuration":142639,"Delta":468675477},{"NoteNumber":73,"Velocity":60,"Duration":142639,"SoundDuration":142639,"Delta":468818117},{"NoteNumber":71,"Velocity":61,"Duration":140713,"SoundDuration":140713,"Delta":468960757},{"NoteNumber":55,"Velocity":50,"Duration":140713,"SoundDuration":140713,"Delta":468960757},{"NoteNumber":49,"Velocity":42,"Duration":140713,"SoundDuration":140713,"Delta":468960757},{"NoteNumber":69,"Velocity":49,"Duration":140713,"SoundDuration":140713,"Delta":469101470},{"NoteNumber":67,"Velocity":55,"Duration":148003,"SoundDuration":148003,"Delta":469242183},{"NoteNumber":45,"Velocity":46,"Duration":148003,"SoundDuration":148003,"Delta":469242183},{"NoteNumber":55,"Velocity":46,"Duration":148003,"SoundDuration":148003,"Delta":469242183},{"NoteNumber":64,"Velocity":49,"Duration":162584,"SoundDuration":162584,"Delta":469390186},{"NoteNumber":66,"Velocity":58,"Duration":303183,"SoundDuration":303183,"Delta":469552770},{"NoteNumber":50,"Velocity":44,"Duration":151591,"SoundDuration":151591,"Delta":469552770},{"NoteNumber":54,"Velocity":52,"Duration":151591,"SoundDuration":151591,"Delta":469552770},{"NoteNumber":65,"Velocity":51,"Duration":145278,"SoundDuration":145278,"Delta":469855954},{"NoteNumber":54,"Velocity":50,"Duration":145278,"SoundDuration":145278,"Delta":469855954},{"NoteNumber":45,"Velocity":42,"Duration":145278,"SoundDuration":145278,"Delta":469855954},{"NoteNumber":66,"Velocity":39,"Duration":145278,"SoundDuration":145278,"Delta":470001232},{"NoteNumber":65,"Velocity":51,"Duration":145278,"SoundDuration":145278,"Delta":470146511},{"NoteNumber":50,"Velocity":44,"Duration":145278,"SoundDuration":145278,"Delta":470146511},{"NoteNumber":54,"Velocity":52,"Duration":145278,"SoundDuration":145278,"Delta":470146511},{"NoteNumber":66,"Velocity":40,"Duration":145278,"SoundDuration":145278,"Delta":470291789},{"NoteNumber":69,"Velocity":51,"Duration":145278,"SoundDuration":145278,"Delta":470437068},{"NoteNumber":54,"Velocity":50,"Duration":145278,"SoundDuration":145278,"Delta":470437068},{"NoteNumber":45,"Velocity":42,"Duration":145278,"SoundDuration":145278,"Delta":470437068},{"NoteNumber":73,"Velocity":56,"Duration":145278,"SoundDuration":145278,"Delta":470582346},{"NoteNumber":74,"Velocity":63,"Duration":144606,"SoundDuration":144606,"Delta":470727625},{"NoteNumber":54,"Velocity":50,"Duration":144606,"SoundDuration":144606,"Delta":470727625},{"NoteNumber":50,"Velocity":42,"Duration":144606,"SoundDuration":144606,"Delta":470727625},{"NoteNumber":76,"Velocity":59,"Duration":138850,"SoundDuration":138850,"Delta":470872231},{"NoteNumber":78,"Velocity":64,"Duration":138850,"SoundDuration":138850,"Delta":471011081},{"NoteNumber":45,"Velocity":42,"Duration":138850,"SoundDuration":138850,"Delta":471011081},{"NoteNumber":54,"Velocity":50,"Duration":138850,"SoundDuration":138850,"Delta":471011081},{"NoteNumber":83,"Velocity":69,"Duration":138850,"SoundDuration":138850,"Delta":471149932},{"NoteNumber":81,"Velocity":65,"Duration":138850,"SoundDuration":138850,"Delta":471288782},{"NoteNumber":54,"Velocity":50,"Duration":138850,"SoundDuration":138850,"Delta":471288782},{"NoteNumber":50,"Velocity":42,"Duration":138850,"SoundDuration":138850,"Delta":471288782},{"NoteNumber":78,"Velocity":56,"Duration":138850,"SoundDuration":138850,"Delta":471427632},{"NoteNumber":76,"Velocity":60,"Duration":142611,"SoundDuration":142611,"Delta":471566482},{"NoteNumber":57,"Velocity":50,"Duration":142611,"SoundDuration":142611,"Delta":471566482},{"NoteNumber":54,"Velocity":42,"Duration":142611,"SoundDuration":142611,"Delta":471566482},{"NoteNumber":74,"Velocity":56,"Duration":150135,"SoundDuration":150135,"Delta":471709094},{"NoteNumber":73,"Velocity":67,"Duration":138850,"SoundDuration":138850,"Delta":471859229},{"NoteNumber":57,"Velocity":42,"Duration":138850,"SoundDuration":138850,"Delta":471859229},{"NoteNumber":61,"Velocity":50,"Duration":138850,"SoundDuration":138850,"Delta":471859229},{"NoteNumber":71,"Velocity":55,"Duration":138850,"SoundDuration":138850,"Delta":471998079},{"NoteNumber":69,"Velocity":58,"Duration":138850,"SoundDuration":138850,"Delta":472136930},{"NoteNumber":61,"Velocity":50,"Duration":138850,"SoundDuration":138850,"Delta":472136930},{"NoteNumber":52,"Velocity":42,"Duration":138850,"SoundDuration":138850,"Delta":472136930},{"NoteNumber":78,"Velocity":67,"Duration":138850,"SoundDuration":138850,"Delta":472275780},{"NoteNumber":76,"Velocity":61,"Duration":138850,"SoundDuration":138850,"Delta":472414630},{"NoteNumber":57,"Velocity":42,"Duration":138850,"SoundDuration":138850,"Delta":472414630},{"NoteNumber":61,"Velocity":50,"Duration":138850,"SoundDuration":138850,"Delta":472414630},{"NoteNumber":73,"Velocity":55,"Duration":138850,"SoundDuration":138850,"Delta":472553480},{"NoteNumber":71,"Velocity":60,"Duration":141905,"SoundDuration":141905,"Delta":472692331},{"NoteNumber":61,"Velocity":50,"Duration":141905,"SoundDuration":141905,"Delta":472692331},{"NoteNumber":52,"Velocity":42,"Duration":141905,"SoundDuration":141905,"Delta":472692331},{"NoteNumber":69,"Velocity":52,"Duration":148016,"SoundDuration":148016,"Delta":472834236},{"NoteNumber":68,"Velocity":67,"Duration":141349,"SoundDuration":141349,"Delta":472982253},{"NoteNumber":62,"Velocity":50,"Duration":141349,"SoundDuration":141349,"Delta":472982253},{"NoteNumber":59,"Velocity":42,"Duration":141349,"SoundDuration":141349,"Delta":472982253},{"NoteNumber":66,"Velocity":52,"Duration":141349,"SoundDuration":141349,"Delta":473123602},{"NoteNumber":64,"Velocity":62,"Duration":135257,"SoundDuration":135257,"Delta":473264952},{"NoteNumber":52,"Velocity":42,"Duration":135257,"SoundDuration":135257,"Delta":473264952},{"NoteNumber":62,"Velocity":50,"Duration":135257,"SoundDuration":135257,"Delta":473264952},{"NoteNumber":68,"Velocity":52,"Duration":148721,"SoundDuration":148721,"Delta":473400209},{"NoteNumber":76,"Velocity":64,"Duration":135845,"SoundDuration":135845,"Delta":473548930},{"NoteNumber":62,"Velocity":42,"Duration":135845,"SoundDuration":135845,"Delta":473548930},{"NoteNumber":56,"Velocity":42,"Duration":135845,"SoundDuration":135845,"Delta":473548930},{"NoteNumber":74,"Velocity":55,"Duration":135844,"SoundDuration":135844,"Delta":473684775},{"NoteNumber":73,"Velocity":59,"Duration":144757,"SoundDuration":144757,"Delta":473820620},{"NoteNumber":52,"Velocity":42,"Duration":144757,"SoundDuration":144757,"Delta":473820620},{"NoteNumber":62,"Velocity":50,"Duration":144757,"SoundDuration":144757,"Delta":473820620},{"NoteNumber":71,"Velocity":52,"Duration":162584,"SoundDuration":162584,"Delta":473965378},{"NoteNumber":69,"Velocity":61,"Duration":290556,"SoundDuration":290556,"Delta":474127962},{"NoteNumber":57,"Velocity":50,"Duration":581114,"SoundDuration":581114,"Delta":474127962},{"NoteNumber":61,"Velocity":56,"Duration":581114,"SoundDuration":581114,"Delta":474127962},{"NoteNumber":71,"Velocity":61,"Duration":145278,"SoundDuration":145278,"Delta":474418519},{"NoteNumber":69,"Velocity":53,"Duration":145278,"SoundDuration":145278,"Delta":474563797},{"NoteNumber":76,"Velocity":60,"Duration":150134,"SoundDuration":150134,"Delta":474709076},{"NoteNumber":73,"Velocity":51,"Duration":150134,"SoundDuration":150134,"Delta":474709076},{"NoteNumber":76,"Velocity":56,"Duration":150134,"SoundDuration":150134,"Delta":475009346},{"NoteNumber":73,"Velocity":47,"Duration":150134,"SoundDuration":150134,"Delta":475009346},{"NoteNumber":69,"Velocity":38,"Duration":143939,"SoundDuration":143939,"Delta":475309616},{"NoteNumber":73,"Velocity":38,"Duration":143939,"SoundDuration":143939,"Delta":475309616},{"NoteNumber":76,"Velocity":54,"Duration":143939,"SoundDuration":143939,"Delta":475309616},{"NoteNumber":57,"Velocity":54,"Duration":143939,"SoundDuration":143939,"Delta":475309616},{"NoteNumber":59,"Velocity":41,"Duration":143939,"SoundDuration":143939,"Delta":475453556},{"NoteNumber":76,"Velocity":51,"Duration":140082,"SoundDuration":140082,"Delta":475597496},{"NoteNumber":69,"Velocity":43,"Duration":140082,"SoundDuration":140082,"Delta":475597496},{"NoteNumber":73,"Velocity":43,"Duration":140082,"SoundDuration":140082,"Delta":475597496},{"NoteNumber":61,"Velocity":51,"Duration":140082,"SoundDuration":140082,"Delta":475597496},{"NoteNumber":66,"Velocity":42,"Duration":140082,"SoundDuration":140082,"Delta":475737578},{"NoteNumber":73,"Velocity":49,"Duration":141536,"SoundDuration":141536,"Delta":475877660},{"NoteNumber":76,"Velocity":58,"Duration":141536,"SoundDuration":141536,"Delta":475877660},{"NoteNumber":64,"Velocity":54,"Duration":141536,"SoundDuration":141536,"Delta":475877660},{"NoteNumber":61,"Velocity":40,"Duration":141536,"SoundDuration":141536,"Delta":476019197},{"NoteNumber":73,"Velocity":47,"Duration":148552,"SoundDuration":148552,"Delta":476160733},{"NoteNumber":76,"Velocity":56,"Duration":148552,"SoundDuration":148552,"Delta":476160733},{"NoteNumber":59,"Velocity":50,"Duration":148552,"SoundDuration":148552,"Delta":476160733},{"NoteNumber":57,"Velocity":46,"Duration":162584,"SoundDuration":162584,"Delta":476309285},{"NoteNumber":71,"Velocity":49,"Duration":143939,"SoundDuration":143939,"Delta":476471869},{"NoteNumber":74,"Velocity":49,"Duration":143939,"SoundDuration":143939,"Delta":476471869},{"NoteNumber":78,"Velocity":58,"Duration":143939,"SoundDuration":143939,"Delta":476471869},{"NoteNumber":57,"Velocity":57,"Duration":287879,"SoundDuration":287879,"Delta":476471869},{"NoteNumber":78,"Velocity":53,"Duration":143940,"SoundDuration":143940,"Delta":476759749},{"NoteNumber":71,"Velocity":45,"Duration":143940,"SoundDuration":143940,"Delta":476759749},{"NoteNumber":74,"Velocity":45,"Duration":143940,"SoundDuration":143940,"Delta":476759749},{"NoteNumber":59,"Velocity":57,"Duration":143940,"SoundDuration":143940,"Delta":476759749},{"NoteNumber":57,"Velocity":42,"Duration":143939,"SoundDuration":143939,"Delta":476903689},{"NoteNumber":74,"Velocity":47,"Duration":146627,"SoundDuration":146627,"Delta":477047629},{"NoteNumber":71,"Velocity":47,"Duration":146627,"SoundDuration":146627,"Delta":477047629},{"NoteNumber":76,"Velocity":56,"Duration":146627,"SoundDuration":146627,"Delta":477047629},{"NoteNumber":56,"Velocity":53,"Duration":146627,"SoundDuration":146627,"Delta":477047629},{"NoteNumber":57,"Velocity":38,"Duration":146627,"SoundDuration":146627,"Delta":477194256},{"NoteNumber":74,"Velocity":45,"Duration":146627,"SoundDuration":146627,"Delta":477340884},{"NoteNumber":76,"Velocity":53,"Duration":146627,"SoundDuration":146627,"Delta":477340884},{"NoteNumber":71,"Velocity":45,"Duration":146627,"SoundDuration":146627,"Delta":477340884},{"NoteNumber":56,"Velocity":54,"Duration":146627,"SoundDuration":146627,"Delta":477340884},{"NoteNumber":57,"Velocity":39,"Duration":158478,"SoundDuration":158478,"Delta":477487511},{"NoteNumber":71,"Velocity":48,"Duration":140082,"SoundDuration":140082,"Delta":477645990},{"NoteNumber":68,"Velocity":48,"Duration":140082,"SoundDuration":140082,"Delta":477645990},{"NoteNumber":76,"Velocity":57,"Duration":140082,"SoundDuration":140082,"Delta":477645990},{"NoteNumber":59,"Velocity":54,"Duration":140082,"SoundDuration":140082,"Delta":477645990},{"NoteNumber":61,"Velocity":43,"Duration":140082,"SoundDuration":140082,"Delta":477786072},{"NoteNumber":71,"Velocity":41,"Duration":140082,"SoundDuration":140082,"Delta":477926154},{"NoteNumber":68,"Velocity":41,"Duration":140082,"SoundDuration":140082,"Delta":477926154},{"NoteNumber":76,"Velocity":49,"Duration":140082,"SoundDuration":140082,"Delta":477926154},{"NoteNumber":62,"Velocity":49,"Duration":140082,"SoundDuration":140082,"Delta":477926154},{"NoteNumber":66,"Velocity":43,"Duration":140082,"SoundDuration":140082,"Delta":478066237},{"NoteNumber":74,"Velocity":46,"Duration":141536,"SoundDuration":141536,"Delta":478206319},{"NoteNumber":76,"Velocity":55,"Duration":141536,"SoundDuration":141536,"Delta":478206319},{"NoteNumber":71,"Velocity":46,"Duration":141536,"SoundDuration":141536,"Delta":478206319},{"NoteNumber":64,"Velocity":54,"Duration":141536,"SoundDuration":141536,"Delta":478206319},{"NoteNumber":62,"Velocity":44,"Duration":141536,"SoundDuration":141536,"Delta":478347855},{"NoteNumber":76,"Velocity":50,"Duration":148552,"SoundDuration":148552,"Delta":478489391},{"NoteNumber":74,"Velocity":42,"Duration":148552,"SoundDuration":148552,"Delta":478489391},{"NoteNumber":71,"Velocity":42,"Duration":148552,"SoundDuration":148552,"Delta":478489391},{"NoteNumber":61,"Velocity":50,"Duration":148552,"SoundDuration":148552,"Delta":478489391},{"NoteNumber":59,"Velocity":44,"Duration":162584,"SoundDuration":162584,"Delta":478637944},{"NoteNumber":78,"Velocity":58,"Duration":141991,"SoundDuration":141991,"Delta":478800528},{"NoteNumber":73,"Velocity":49,"Duration":141991,"SoundDuration":141991,"Delta":478800528},{"NoteNumber":69,"Velocity":49,"Duration":141991,"SoundDuration":141991,"Delta":478800528},{"NoteNumber":61,"Velocity":57,"Duration":283983,"SoundDuration":283983,"Delta":478800528},{"NoteNumber":73,"Velocity":45,"Duration":141991,"SoundDuration":141991,"Delta":479084511},{"NoteNumber":69,"Velocity":45,"Duration":141991,"SoundDuration":141991,"Delta":479084511},{"NoteNumber":78,"Velocity":53,"Duration":141991,"SoundDuration":141991,"Delta":479084511},{"NoteNumber":60,"Velocity":57,"Duration":141991,"SoundDuration":141991,"Delta":479084511},{"NoteNumber":61,"Velocity":50,"Duration":141991,"SoundDuration":141991,"Delta":479226503},{"NoteNumber":69,"Velocity":45,"Duration":145278,"SoundDuration":145278,"Delta":479368495},{"NoteNumber":76,"Velocity":53,"Duration":145278,"SoundDuration":145278,"Delta":479368495},{"NoteNumber":73,"Velocity":45,"Duration":145278,"SoundDuration":145278,"Delta":479368495},{"NoteNumber":64,"Velocity":54,"Duration":145278,"SoundDuration":145278,"Delta":479368495},{"NoteNumber":61,"Velocity":51,"Duration":145278,"SoundDuration":145278,"Delta":479513773},{"NoteNumber":69,"Velocity":42,"Duration":145278,"SoundDuration":145278,"Delta":479659052},{"NoteNumber":73,"Velocity":42,"Duration":145278,"SoundDuration":145278,"Delta":479659052},{"NoteNumber":76,"Velocity":50,"Duration":145278,"SoundDuration":145278,"Delta":479659052},{"NoteNumber":59,"Velocity":54,"Duration":145278,"SoundDuration":145278,"Delta":479659052},{"NoteNumber":57,"Velocity":51,"Duration":155343,"SoundDuration":155343,"Delta":479804330},{"NoteNumber":73,"Velocity":45,"Duration":140713,"SoundDuration":140713,"Delta":479959674},{"NoteNumber":81,"Velocity":54,"Duration":140713,"SoundDuration":140713,"Delta":479959674},{"NoteNumber":76,"Velocity":45,"Duration":140713,"SoundDuration":140713,"Delta":479959674},{"NoteNumber":69,"Velocity":45,"Duration":140713,"SoundDuration":140713,"Delta":479959674},{"NoteNumber":55,"Velocity":50,"Duration":140713,"SoundDuration":140713,"Delta":479959674},{"NoteNumber":57,"Velocity":46,"Duration":140713,"SoundDuration":140713,"Delta":480100387},{"NoteNumber":69,"Velocity":41,"Duration":140713,"SoundDuration":140713,"Delta":480241100},{"NoteNumber":73,"Velocity":41,"Duration":140713,"SoundDuration":140713,"Delta":480241100},{"NoteNumber":81,"Velocity":49,"Duration":140713,"SoundDuration":140713,"Delta":480241100},{"NoteNumber":76,"Velocity":41,"Duration":140713,"SoundDuration":140713,"Delta":480241100},{"NoteNumber":61,"Velocity":50,"Duration":140713,"SoundDuration":140713,"Delta":480241100},{"NoteNumber":66,"Velocity":43,"Duration":140713,"SoundDuration":140713,"Delta":480381813},{"NoteNumber":81,"Velocity":57,"Duration":141991,"SoundDuration":141991,"Delta":480522526},{"NoteNumber":69,"Velocity":48,"Duration":141991,"SoundDuration":141991,"Delta":480522526},{"NoteNumber":76,"Velocity":48,"Duration":141991,"SoundDuration":141991,"Delta":480522526},{"NoteNumber":73,"Velocity":48,"Duration":141991,"SoundDuration":141991,"Delta":480522526},{"NoteNumber":64,"Velocity":48,"Duration":141991,"SoundDuration":141991,"Delta":480522526},{"NoteNumber":61,"Velocity":47,"Duration":141991,"SoundDuration":141991,"Delta":480664518},{"NoteNumber":69,"Velocity":46,"Duration":144706,"SoundDuration":144706,"Delta":480806509},{"NoteNumber":73,"Velocity":46,"Duration":144706,"SoundDuration":144706,"Delta":480806509},{"NoteNumber":81,"Velocity":55,"Duration":144706,"SoundDuration":144706,"Delta":480806509},{"NoteNumber":76,"Velocity":46,"Duration":144706,"SoundDuration":144706,"Delta":480806509},{"NoteNumber":57,"Velocity":53,"Duration":144706,"SoundDuration":144706,"Delta":480806509},{"NoteNumber":55,"Velocity":49,"Duration":150135,"SoundDuration":150135,"Delta":480951216},{"NoteNumber":74,"Velocity":45,"Duration":141349,"SoundDuration":141349,"Delta":481101351},{"NoteNumber":81,"Velocity":63,"Duration":141349,"SoundDuration":141349,"Delta":481101351},{"NoteNumber":69,"Velocity":45,"Duration":141349,"SoundDuration":141349,"Delta":481101351},{"NoteNumber":54,"Velocity":58,"Duration":141349,"SoundDuration":141349,"Delta":481101351},{"NoteNumber":56,"Velocity":46,"Duration":141349,"SoundDuration":141349,"Delta":481242700},{"NoteNumber":74,"Velocity":51,"Duration":141349,"SoundDuration":141349,"Delta":481384050},{"NoteNumber":81,"Velocity":61,"Duration":141349,"SoundDuration":141349,"Delta":481384050},{"NoteNumber":69,"Velocity":51,"Duration":141349,"SoundDuration":141349,"Delta":481384050},{"NoteNumber":57,"Velocity":51,"Duration":141349,"SoundDuration":141349,"Delta":481384050},{"NoteNumber":62,"Velocity":46,"Duration":141349,"SoundDuration":141349,"Delta":481525399},{"NoteNumber":71,"Velocity":52,"Duration":145278,"SoundDuration":145278,"Delta":481666749},{"NoteNumber":74,"Velocity":52,"Duration":145278,"SoundDuration":145278,"Delta":481666749},{"NoteNumber":83,"Velocity":62,"Duration":145278,"SoundDuration":145278,"Delta":481666749},{"NoteNumber":53,"Velocity":52,"Duration":145278,"SoundDuration":145278,"Delta":481666749},{"NoteNumber":56,"Velocity":41,"Duration":145278,"SoundDuration":145278,"Delta":481812027},{"NoteNumber":74,"Velocity":46,"Duration":146191,"SoundDuration":146191,"Delta":481957306},{"NoteNumber":83,"Velocity":55,"Duration":146191,"SoundDuration":146191,"Delta":481957306},{"NoteNumber":71,"Velocity":46,"Duration":146191,"SoundDuration":146191,"Delta":481957306},{"NoteNumber":57,"Velocity":46,"Duration":146191,"SoundDuration":146191,"Delta":481957306},{"NoteNumber":62,"Velocity":41,"Duration":154575,"SoundDuration":154575,"Delta":482103497},{"NoteNumber":76,"Velocity":67,"Duration":144606,"SoundDuration":144606,"Delta":482258072},{"NoteNumber":73,"Velocity":56,"Duration":144606,"SoundDuration":144606,"Delta":482258072},{"NoteNumber":52,"Velocity":50,"Duration":144606,"SoundDuration":144606,"Delta":482258072},{"NoteNumber":57,"Velocity":41,"Duration":144606,"SoundDuration":144606,"Delta":482402678},{"NoteNumber":76,"Velocity":61,"Duration":144606,"SoundDuration":144606,"Delta":482547285},{"NoteNumber":73,"Velocity":51,"Duration":144606,"SoundDuration":144606,"Delta":482547285},{"NoteNumber":59,"Velocity":46,"Duration":144606,"SoundDuration":144606,"Delta":482547285},{"NoteNumber":61,"Velocity":41,"Duration":144606,"SoundDuration":144606,"Delta":482691891},{"NoteNumber":76,"Velocity":51,"Duration":144606,"SoundDuration":144606,"Delta":482836497},{"NoteNumber":68,"Velocity":51,"Duration":144606,"SoundDuration":144606,"Delta":482836497},{"NoteNumber":80,"Velocity":60,"Duration":144606,"SoundDuration":144606,"Delta":482836497},{"NoteNumber":74,"Velocity":51,"Duration":144606,"SoundDuration":144606,"Delta":482836497},{"NoteNumber":64,"Velocity":48,"Duration":144606,"SoundDuration":144606,"Delta":482836497},{"NoteNumber":62,"Velocity":41,"Duration":144606,"SoundDuration":144606,"Delta":482981103},{"NoteNumber":68,"Velocity":44,"Duration":150598,"SoundDuration":150598,"Delta":483125710},{"NoteNumber":80,"Velocity":52,"Duration":150598,"SoundDuration":150598,"Delta":483125710},{"NoteNumber":74,"Velocity":44,"Duration":150598,"SoundDuration":150598,"Delta":483125710},{"NoteNumber":76,"Velocity":44,"Duration":150598,"SoundDuration":150598,"Delta":483125710},{"NoteNumber":61,"Velocity":44,"Duration":150598,"SoundDuration":150598,"Delta":483125710},{"NoteNumber":59,"Velocity":41,"Duration":162584,"SoundDuration":162584,"Delta":483276309},{"NoteNumber":73,"Velocity":50,"Duration":1213186,"SoundDuration":1213186,"Delta":483438893},{"NoteNumber":81,"Velocity":59,"Duration":1213186,"SoundDuration":1213186,"Delta":483438893},{"NoteNumber":69,"Velocity":50,"Duration":592405,"SoundDuration":592405,"Delta":483438893},{"NoteNumber":76,"Velocity":50,"Duration":1213186,"SoundDuration":1213186,"Delta":483438893},{"NoteNumber":57,"Velocity":49,"Duration":142524,"SoundDuration":142524,"Delta":483438893},{"NoteNumber":57,"Velocity":49,"Duration":142524,"SoundDuration":142524,"Delta":483736335},{"NoteNumber":57,"Velocity":34,"Duration":154575,"SoundDuration":154575,"Delta":484033777},{"NoteNumber":61,"Velocity":34,"Duration":154575,"SoundDuration":154575,"Delta":484033777},{"NoteNumber":69,"Velocity":48,"Duration":154575,"SoundDuration":154575,"Delta":484033777},{"NoteNumber":61,"Velocity":45,"Duration":154575,"SoundDuration":154575,"Delta":484342928},{"NoteNumber":69,"Velocity":53,"Duration":154575,"SoundDuration":154575,"Delta":484342928},{"NoteNumber":57,"Velocity":45,"Duration":154575,"SoundDuration":154575,"Delta":484342928},{"NoteNumber":59,"Velocity":48,"Duration":165161,"SoundDuration":165161,"Delta":484652079},{"NoteNumber":62,"Velocity":48,"Duration":165161,"SoundDuration":165161,"Delta":484652079},{"NoteNumber":68,"Velocity":57,"Duration":165161,"SoundDuration":165161,"Delta":484652079},{"NoteNumber":68,"Velocity":54,"Duration":165161,"SoundDuration":165161,"Delta":484982402},{"NoteNumber":59,"Velocity":45,"Duration":165161,"SoundDuration":165161,"Delta":484982402},{"NoteNumber":62,"Velocity":45,"Duration":165161,"SoundDuration":165161,"Delta":484982402},{"NoteNumber":64,"Velocity":40,"Duration":179318,"SoundDuration":179318,"Delta":485312726},{"NoteNumber":61,"Velocity":40,"Duration":179318,"SoundDuration":179318,"Delta":485312726},{"NoteNumber":67,"Velocity":48,"Duration":179318,"SoundDuration":179318,"Delta":485312726},{"NoteNumber":61,"Velocity":36,"Duration":194906,"SoundDuration":194906,"Delta":485671363},{"NoteNumber":67,"Velocity":44,"Duration":194906,"SoundDuration":194906,"Delta":485671363},{"NoteNumber":64,"Velocity":36,"Duration":194906,"SoundDuration":194906,"Delta":485671363},{"NoteNumber":66,"Velocity":36,"Duration":153295,"SoundDuration":153295,"Delta":486061176},{"NoteNumber":62,"Velocity":30,"Duration":153295,"SoundDuration":153295,"Delta":486061176},{"NoteNumber":57,"Velocity":26,"Duration":153295,"SoundDuration":153295,"Delta":486367767},{"NoteNumber":66,"Velocity":31,"Duration":153295,"SoundDuration":153295,"Delta":486367767},{"NoteNumber":66,"Velocity":36,"Duration":147521,"SoundDuration":147521,"Delta":486674359},{"NoteNumber":62,"Velocity":30,"Duration":147521,"SoundDuration":147521,"Delta":486674359},{"NoteNumber":57,"Velocity":26,"Duration":148221,"SoundDuration":148221,"Delta":486976695},{"NoteNumber":66,"Velocity":31,"Duration":148221,"SoundDuration":148221,"Delta":486976695},{"NoteNumber":83,"Velocity":65,"Duration":136692,"SoundDuration":136692,"Delta":487277464},{"NoteNumber":62,"Velocity":30,"Duration":136692,"SoundDuration":136692,"Delta":487277464},{"NoteNumber":66,"Velocity":36,"Duration":136692,"SoundDuration":136692,"Delta":487277464},{"NoteNumber":81,"Velocity":53,"Duration":136190,"SoundDuration":136190,"Delta":487414156},{"NoteNumber":86,"Velocity":57,"Duration":135953,"SoundDuration":135953,"Delta":487550346},{"NoteNumber":66,"Velocity":31,"Duration":135953,"SoundDuration":135953,"Delta":487550346},{"NoteNumber":57,"Velocity":26,"Duration":135953,"SoundDuration":135953,"Delta":487550346},{"NoteNumber":81,"Velocity":56,"Duration":135553,"SoundDuration":135553,"Delta":487686300},{"NoteNumber":80,"Velocity":62,"Duration":134960,"SoundDuration":134960,"Delta":487821853},{"NoteNumber":62,"Velocity":30,"Duration":134960,"SoundDuration":134960,"Delta":487821853},{"NoteNumber":66,"Velocity":36,"Duration":134960,"SoundDuration":134960,"Delta":487821853},{"NoteNumber":83,"Velocity":55,"Duration":137795,"SoundDuration":137795,"Delta":487956814},{"NoteNumber":81,"Velocity":53,"Duration":140731,"SoundDuration":140731,"Delta":488094610},{"NoteNumber":57,"Velocity":26,"Duration":140731,"SoundDuration":140731,"Delta":488094610},{"NoteNumber":66,"Velocity":31,"Duration":140731,"SoundDuration":140731,"Delta":488094610},{"NoteNumber":78,"Velocity":52,"Duration":144239,"SoundDuration":144239,"Delta":488235341},{"NoteNumber":74,"Velocity":49,"Duration":290557,"SoundDuration":290557,"Delta":488379580},{"NoteNumber":66,"Velocity":36,"Duration":145278,"SoundDuration":145278,"Delta":488379580},{"NoteNumber":62,"Velocity":30,"Duration":145278,"SoundDuration":145278,"Delta":488379580},{"NoteNumber":76,"Velocity":49,"Duration":145278,"SoundDuration":145278,"Delta":488670137},{"NoteNumber":66,"Velocity":31,"Duration":145278,"SoundDuration":145278,"Delta":488670137},{"NoteNumber":57,"Velocity":26,"Duration":145278,"SoundDuration":145278,"Delta":488670137},{"NoteNumber":74,"Velocity":35,"Duration":145278,"SoundDuration":145278,"Delta":488815416},{"NoteNumber":76,"Velocity":49,"Duration":140082,"SoundDuration":140082,"Delta":488960694},{"NoteNumber":62,"Velocity":30,"Duration":140082,"SoundDuration":140082,"Delta":488960694},{"NoteNumber":66,"Velocity":36,"Duration":140082,"SoundDuration":140082,"Delta":488960694},{"NoteNumber":74,"Velocity":33,"Duration":145278,"SoundDuration":145278,"Delta":489100777},{"NoteNumber":78,"Velocity":48,"Duration":141349,"SoundDuration":141349,"Delta":489246055},{"NoteNumber":57,"Velocity":26,"Duration":141349,"SoundDuration":141349,"Delta":489246055},{"NoteNumber":66,"Velocity":31,"Duration":141349,"SoundDuration":141349,"Delta":489246055},{"NoteNumber":76,"Velocity":41,"Duration":144606,"SoundDuration":144606,"Delta":489387405},{"NoteNumber":74,"Velocity":51,"Duration":140082,"SoundDuration":140082,"Delta":489532011},{"NoteNumber":64,"Velocity":30,"Duration":140082,"SoundDuration":140082,"Delta":489532011},{"NoteNumber":67,"Velocity":36,"Duration":140082,"SoundDuration":140082,"Delta":489532011},{"NoteNumber":73,"Velocity":44,"Duration":140082,"SoundDuration":140082,"Delta":489672093},{"NoteNumber":71,"Velocity":46,"Duration":140082,"SoundDuration":140082,"Delta":489812175},{"NoteNumber":57,"Velocity":26,"Duration":140082,"SoundDuration":140082,"Delta":489812175},{"NoteNumber":67,"Velocity":31,"Duration":140082,"SoundDuration":140082,"Delta":489812175},{"NoteNumber":69,"Velocity":45,"Duration":140082,"SoundDuration":140082,"Delta":489952258},{"NoteNumber":71,"Velocity":49,"Duration":144606,"SoundDuration":144606,"Delta":490092340},{"NoteNumber":61,"Velocity":30,"Duration":144606,"SoundDuration":144606,"Delta":490092340},{"NoteNumber":67,"Velocity":36,"Duration":144606,"SoundDuration":144606,"Delta":490092340},{"NoteNumber":73,"Velocity":45,"Duration":144606,"SoundDuration":144606,"Delta":490236946},{"NoteNumber":74,"Velocity":47,"Duration":141349,"SoundDuration":141349,"Delta":490381552},{"NoteNumber":57,"Velocity":26,"Duration":141349,"SoundDuration":141349,"Delta":490381552},{"NoteNumber":67,"Velocity":31,"Duration":141349,"SoundDuration":141349,"Delta":490381552},{"NoteNumber":76,"Velocity":49,"Duration":148721,"SoundDuration":148721,"Delta":490522902},{"NoteNumber":69,"Velocity":54,"Duration":280164,"SoundDuration":280164,"Delta":490671623},{"NoteNumber":66,"Velocity":36,"Duration":140082,"SoundDuration":140082,"Delta":490671623},{"NoteNumber":62,"Velocity":30,"Duration":140082,"SoundDuration":140082,"Delta":490671623},{"NoteNumber":71,"Velocity":54,"Duration":140082,"SoundDuration":140082,"Delta":490951787},{"NoteNumber":66,"Velocity":30,"Duration":140082,"SoundDuration":140082,"Delta":490951787},{"NoteNumber":57,"Velocity":25,"Duration":140082,"SoundDuration":140082,"Delta":490951787},{"NoteNumber":69,"Velocity":39,"Duration":140082,"SoundDuration":140082,"Delta":491091870},{"NoteNumber":71,"Velocity":54,"Duration":142639,"SoundDuration":142639,"Delta":491231952},{"NoteNumber":66,"Velocity":36,"Duration":142639,"SoundDuration":142639,"Delta":491231952},{"NoteNumber":62,"Velocity":30,"Duration":142639,"SoundDuration":142639,"Delta":491231952},{"NoteNumber":69,"Velocity":45,"Duration":142639,"SoundDuration":142639,"Delta":491374592},{"NoteNumber":78,"Velocity":60,"Duration":141991,"SoundDuration":141991,"Delta":491517231},{"NoteNumber":66,"Velocity":30,"Duration":141991,"SoundDuration":141991,"Delta":491517231},{"NoteNumber":57,"Velocity":25,"Duration":141991,"SoundDuration":141991,"Delta":491517231},{"NoteNumber":74,"Velocity":48,"Duration":146627,"SoundDuration":146627,"Delta":491659223},{"NoteNumber":73,"Velocity":53,"Duration":140713,"SoundDuration":140713,"Delta":491805851},{"NoteNumber":64,"Velocity":30,"Duration":140713,"SoundDuration":140713,"Delta":491805851},{"NoteNumber":67,"Velocity":36,"Duration":140713,"SoundDuration":140713,"Delta":491805851},{"NoteNumber":74,"Velocity":50,"Duration":140713,"SoundDuration":140713,"Delta":491946564},{"NoteNumber":76,"Velocity":53,"Duration":140713,"SoundDuration":140713,"Delta":492087277},{"NoteNumber":57,"Velocity":27,"Duration":140713,"SoundDuration":140713,"Delta":492087277},{"NoteNumber":67,"Velocity":32,"Duration":140713,"SoundDuration":140713,"Delta":492087277},{"NoteNumber":78,"Velocity":51,"Duration":140713,"SoundDuration":140713,"Delta":492227990},{"NoteNumber":79,"Velocity":59,"Duration":143280,"SoundDuration":143280,"Delta":492368703},{"NoteNumber":67,"Velocity":36,"Duration":143280,"SoundDuration":143280,"Delta":492368703},{"NoteNumber":61,"Velocity":30,"Duration":143280,"SoundDuration":143280,"Delta":492368703},{"NoteNumber":81,"Velocity":53,"Duration":143280,"SoundDuration":143280,"Delta":492511983},{"NoteNumber":83,"Velocity":64,"Duration":143280,"SoundDuration":143280,"Delta":492655263},{"NoteNumber":67,"Velocity":32,"Duration":143280,"SoundDuration":143280,"Delta":492655263},{"NoteNumber":57,"Velocity":27,"Duration":143280,"SoundDuration":143280,"Delta":492655263},{"NoteNumber":81,"Velocity":57,"Duration":137566,"SoundDuration":137566,"Delta":492798543},{"NoteNumber":81,"Velocity":63,"Duration":278913,"SoundDuration":278913,"Delta":492947264},{"NoteNumber":66,"Velocity":36,"Duration":139456,"SoundDuration":139456,"Delta":492947264},{"NoteNumber":62,"Velocity":30,"Duration":139456,"SoundDuration":139456,"Delta":492947264},{"NoteNumber":83,"Velocity":56,"Duration":139456,"SoundDuration":139456,"Delta":493226178},{"NoteNumber":57,"Velocity":26,"Duration":139456,"SoundDuration":139456,"Delta":493226178},{"NoteNumber":66,"Velocity":31,"Duration":139456,"SoundDuration":139456,"Delta":493226178},{"NoteNumber":81,"Velocity":48,"Duration":139456,"SoundDuration":139456,"Delta":493365635},{"NoteNumber":83,"Velocity":55,"Duration":141349,"SoundDuration":141349,"Delta":493505092},{"NoteNumber":62,"Velocity":30,"Duration":141349,"SoundDuration":141349,"Delta":493505092},{"NoteNumber":66,"Velocity":36,"Duration":141349,"SoundDuration":141349,"Delta":493505092},{"NoteNumber":81,"Velocity":46,"Duration":141349,"SoundDuration":141349,"Delta":493646442},{"NoteNumber":86,"Velocity":60,"Duration":141349,"SoundDuration":141349,"Delta":493787791},{"NoteNumber":57,"Velocity":26,"Duration":141349,"SoundDuration":141349,"Delta":493787791},{"NoteNumber":66,"Velocity":31,"Duration":141349,"SoundDuration":141349,"Delta":493787791},{"NoteNumber":85,"Velocity":52,"Duration":153076,"SoundDuration":153076,"Delta":493929141},{"NoteNumber":83,"Velocity":48,"Duration":36319,"SoundDuration":36319,"Delta":494082218},{"NoteNumber":67,"Velocity":36,"Duration":145278,"SoundDuration":145278,"Delta":494082218},{"NoteNumber":62,"Velocity":30,"Duration":145278,"SoundDuration":145278,"Delta":494082218},{"NoteNumber":85,"Velocity":47,"Duration":36319,"SoundDuration":36319,"Delta":494118537},{"NoteNumber":83,"Velocity":61,"Duration":72639,"SoundDuration":72639,"Delta":494154857},{"NoteNumber":82,"Velocity":56,"Duration":141349,"SoundDuration":141349,"Delta":494227496},{"NoteNumber":83,"Velocity":61,"Duration":141349,"SoundDuration":141349,"Delta":494368846},{"NoteNumber":67,"Velocity":31,"Duration":141349,"SoundDuration":141349,"Delta":494368846},{"NoteNumber":62,"Velocity":26,"Duration":141349,"SoundDuration":141349,"Delta":494368846},{"NoteNumber":55,"Velocity":26,"Duration":141349,"SoundDuration":141349,"Delta":494368846},{"NoteNumber":85,"Velocity":56,"Duration":141349,"SoundDuration":141349,"Delta":494510195},{"NoteNumber":83,"Velocity":61,"Duration":144606,"SoundDuration":144606,"Delta":494651545},{"NoteNumber":62,"Velocity":30,"Duration":144606,"SoundDuration":144606,"Delta":494651545},{"NoteNumber":67,"Velocity":36,"Duration":144606,"SoundDuration":144606,"Delta":494651545},{"NoteNumber":91,"Velocity":67,"Duration":144606,"SoundDuration":144606,"Delta":494796151},{"NoteNumber":86,"Velocity":61,"Duration":141349,"SoundDuration":141349,"Delta":494940757},{"NoteNumber":67,"Velocity":31,"Duration":141349,"SoundDuration":141349,"Delta":494940757},{"NoteNumber":62,"Velocity":26,"Duration":141349,"SoundDuration":141349,"Delta":494940757},{"NoteNumber":59,"Velocity":26,"Duration":141349,"SoundDuration":141349,"Delta":494940757},{"NoteNumber":83,"Velocity":57,"Duration":147318,"SoundDuration":147318,"Delta":495082107},{"NoteNumber":81,"Velocity":70,"Duration":280164,"SoundDuration":280164,"Delta":495229425},{"NoteNumber":62,"Velocity":30,"Duration":140082,"SoundDuration":140082,"Delta":495229425},{"NoteNumber":66,"Velocity":36,"Duration":140082,"SoundDuration":140082,"Delta":495229425},{"NoteNumber":83,"Velocity":66,"Duration":140082,"SoundDuration":140082,"Delta":495509590},{"NoteNumber":57,"Velocity":25,"Duration":140082,"SoundDuration":140082,"Delta":495509590},{"NoteNumber":66,"Velocity":30,"Duration":140082,"SoundDuration":140082,"Delta":495509590},{"NoteNumber":81,"Velocity":54,"Duration":140082,"SoundDuration":140082,"Delta":495649672},{"NoteNumber":83,"Velocity":67,"Duration":145957,"SoundDuration":145957,"Delta":495789754},{"NoteNumber":66,"Velocity":36,"Duration":145957,"SoundDuration":145957,"Delta":495789754},{"NoteNumber":62,"Velocity":30,"Duration":145957,"SoundDuration":145957,"Delta":495789754},{"NoteNumber":81,"Velocity":53,"Duration":145957,"SoundDuration":145957,"Delta":495935711},{"NoteNumber":83,"Velocity":68,"Duration":150860,"SoundDuration":150860,"Delta":496081668},{"NoteNumber":57,"Velocity":25,"Duration":150860,"SoundDuration":150860,"Delta":496081668},{"NoteNumber":66,"Velocity":30,"Duration":150860,"SoundDuration":150860,"Delta":496081668},{"NoteNumber":81,"Velocity":63,"Duration":167186,"SoundDuration":167186,"Delta":496232528},{"NoteNumber":82,"Velocity":58,"Duration":140713,"SoundDuration":140713,"Delta":496399715},{"NoteNumber":62,"Velocity":25,"Duration":140713,"SoundDuration":140713,"Delta":496399715},{"NoteNumber":65,"Velocity":30,"Duration":140713,"SoundDuration":140713,"Delta":496399715},{"NoteNumber":81,"Velocity":42,"Duration":140713,"SoundDuration":140713,"Delta":496540428},{"NoteNumber":86,"Velocity":53,"Duration":140713,"SoundDuration":140713,"Delta":496681141},{"NoteNumber":65,"Velocity":27,"Duration":140713,"SoundDuration":140713,"Delta":496681141},{"NoteNumber":57,"Velocity":22,"Duration":140713,"SoundDuration":140713,"Delta":496681141},{"NoteNumber":81,"Velocity":43,"Duration":140713,"SoundDuration":140713,"Delta":496821854},{"NoteNumber":80,"Velocity":51,"Duration":143280,"SoundDuration":143280,"Delta":496962567},{"NoteNumber":62,"Velocity":25,"Duration":143280,"SoundDuration":143280,"Delta":496962567},{"NoteNumber":65,"Velocity":30,"Duration":143280,"SoundDuration":143280,"Delta":496962567},{"NoteNumber":82,"Velocity":43,"Duration":143280,"SoundDuration":143280,"Delta":497105847},{"NoteNumber":81,"Velocity":50,"Duration":143280,"SoundDuration":143280,"Delta":497249128},{"NoteNumber":57,"Velocity":22,"Duration":143280,"SoundDuration":143280,"Delta":497249128},{"NoteNumber":65,"Velocity":27,"Duration":143280,"SoundDuration":143280,"Delta":497249128},{"NoteNumber":77,"Velocity":43,"Duration":148721,"SoundDuration":148721,"Delta":497392408},{"NoteNumber":74,"Velocity":41,"Duration":278913,"SoundDuration":278913,"Delta":497541129},{"NoteNumber":62,"Velocity":25,"Duration":139456,"SoundDuration":139456,"Delta":497541129},{"NoteNumber":65,"Velocity":30,"Duration":139456,"SoundDuration":139456,"Delta":497541129},{"NoteNumber":76,"Velocity":41,"Duration":139456,"SoundDuration":139456,"Delta":497820043},{"NoteNumber":65,"Velocity":26,"Duration":139456,"SoundDuration":139456,"Delta":497820043},{"NoteNumber":57,"Velocity":22,"Duration":139456,"SoundDuration":139456,"Delta":497820043},{"NoteNumber":74,"Velocity":33,"Duration":139456,"SoundDuration":139456,"Delta":497959500},{"NoteNumber":76,"Velocity":42,"Duration":141349,"SoundDuration":141349,"Delta":498098957},{"NoteNumber":62,"Velocity":25,"Duration":141349,"SoundDuration":141349,"Delta":498098957},{"NoteNumber":65,"Velocity":30,"Duration":141349,"SoundDuration":141349,"Delta":498098957},{"NoteNumber":74,"Velocity":31,"Duration":141349,"SoundDuration":141349,"Delta":498240306},{"NoteNumber":76,"Velocity":45,"Duration":141349,"SoundDuration":141349,"Delta":498381656},{"NoteNumber":65,"Velocity":26,"Duration":141349,"SoundDuration":141349,"Delta":498381656},{"NoteNumber":57,"Velocity":22,"Duration":141349,"SoundDuration":141349,"Delta":498381656},{"NoteNumber":74,"Velocity":34,"Duration":148016,"SoundDuration":148016,"Delta":498523005},{"NoteNumber":79,"Velocity":43,"Duration":140082,"SoundDuration":140082,"Delta":498671022},{"NoteNumber":63,"Velocity":25,"Duration":140082,"SoundDuration":140082,"Delta":498671022},{"NoteNumber":65,"Velocity":30,"Duration":140082,"SoundDuration":140082,"Delta":498671022},{"NoteNumber":77,"Velocity":38,"Duration":140082,"SoundDuration":140082,"Delta":498811104},{"NoteNumber":76,"Velocity":44,"Duration":140082,"SoundDuration":140082,"Delta":498951186},{"NoteNumber":65,"Velocity":27,"Duration":140082,"SoundDuration":140082,"Delta":498951186},{"NoteNumber":63,"Velocity":22,"Duration":140082,"SoundDuration":140082,"Delta":498951186},{"NoteNumber":57,"Velocity":22,"Duration":140082,"SoundDuration":140082,"Delta":498951186},{"NoteNumber":77,"Velocity":41,"Duration":140082,"SoundDuration":140082,"Delta":499091269},{"NoteNumber":79,"Velocity":51,"Duration":144606,"SoundDuration":144606,"Delta":499231351},{"NoteNumber":60,"Velocity":27,"Duration":144606,"SoundDuration":144606,"Delta":499231351},{"NoteNumber":65,"Velocity":33,"Duration":144606,"SoundDuration":144606,"Delta":499231351},{"NoteNumber":63,"Velocity":27,"Duration":144606,"SoundDuration":144606,"Delta":499231351},{"NoteNumber":81,"Velocity":54,"Duration":144606,"SoundDuration":144606,"Delta":499375957},{"NoteNumber":82,"Velocity":58,"Duration":144606,"SoundDuration":144606,"Delta":499520563},{"NoteNumber":63,"Velocity":24,"Duration":144606,"SoundDuration":144606,"Delta":499520563},{"NoteNumber":65,"Velocity":29,"Duration":144606,"SoundDuration":144606,"Delta":499520563},{"NoteNumber":53,"Velocity":24,"Duration":144606,"SoundDuration":144606,"Delta":499520563},{"NoteNumber":84,"Velocity":61,"Duration":147516,"SoundDuration":147516,"Delta":499665170},{"NoteNumber":86,"Velocity":66,"Duration":300270,"SoundDuration":300270,"Delta":499826097},{"NoteNumber":58,"Velocity":30,"Duration":150134,"SoundDuration":150134,"Delta":499826097},{"NoteNumber":65,"Velocity":36,"Duration":150134,"SoundDuration":150134,"Delta":499826097},{"NoteNumber":62,"Velocity":30,"Duration":150134,"SoundDuration":150134,"Delta":499826097},{"NoteNumber":85,"Velocity":62,"Duration":148016,"SoundDuration":148016,"Delta":500126367},{"NoteNumber":65,"Velocity":30,"Duration":148016,"SoundDuration":148016,"Delta":500126367},{"NoteNumber":62,"Velocity":25,"Duration":148016,"SoundDuration":148016,"Delta":500126367},{"NoteNumber":86,"Velocity":50,"Duration":148016,"SoundDuration":148016,"Delta":500274383},{"NoteNumber":85,"Velocity":62,"Duration":144606,"SoundDuration":144606,"Delta":500422400},{"NoteNumber":58,"Velocity":30,"Duration":144606,"SoundDuration":144606,"Delta":500422400},{"NoteNumber":62,"Velocity":30,"Duration":144606,"SoundDuration":144606,"Delta":500422400},{"NoteNumber":65,"Velocity":36,"Duration":144606,"SoundDuration":144606,"Delta":500422400},{"NoteNumber":86,"Velocity":48,"Duration":144606,"SoundDuration":144606,"Delta":500567006},{"NoteNumber":88,"Velocity":62,"Duration":144606,"SoundDuration":144606,"Delta":500711612},{"NoteNumber":62,"Velocity":25,"Duration":144606,"SoundDuration":144606,"Delta":500711612},{"NoteNumber":65,"Velocity":30,"Duration":144606,"SoundDuration":144606,"Delta":500711612},{"NoteNumber":86,"Velocity":53,"Duration":144606,"SoundDuration":144606,"Delta":500856218},{"NoteNumber":88,"Velocity":62,"Duration":143280,"SoundDuration":143280,"Delta":501000825},{"NoteNumber":68,"Velocity":36,"Duration":143280,"SoundDuration":143280,"Delta":501000825},{"NoteNumber":62,"Velocity":30,"Duration":143280,"SoundDuration":143280,"Delta":501000825},{"NoteNumber":58,"Velocity":30,"Duration":143280,"SoundDuration":143280,"Delta":501000825},{"NoteNumber":86,"Velocity":60,"Duration":145957,"SoundDuration":145957,"Delta":501144105},{"NoteNumber":89,"Velocity":67,"Duration":139456,"SoundDuration":139456,"Delta":501290062},{"NoteNumber":65,"Velocity":32,"Duration":139456,"SoundDuration":139456,"Delta":501290062},{"NoteNumber":62,"Velocity":27,"Duration":139456,"SoundDuration":139456,"Delta":501290062},{"NoteNumber":58,"Velocity":27,"Duration":139456,"SoundDuration":139456,"Delta":501290062},{"NoteNumber":88,"Velocity":60,"Duration":139456,"SoundDuration":139456,"Delta":501429519},{"NoteNumber":86,"Velocity":69,"Duration":140082,"SoundDuration":140082,"Delta":501568976},{"NoteNumber":62,"Velocity":31,"Duration":140082,"SoundDuration":140082,"Delta":501568976},{"NoteNumber":68,"Velocity":38,"Duration":140082,"SoundDuration":140082,"Delta":501568976},{"NoteNumber":58,"Velocity":31,"Duration":140082,"SoundDuration":140082,"Delta":501568976},{"NoteNumber":88,"Velocity":66,"Duration":140082,"SoundDuration":140082,"Delta":501709058},{"NoteNumber":89,"Velocity":68,"Duration":140082,"SoundDuration":140082,"Delta":501849140},{"NoteNumber":62,"Velocity":29,"Duration":140082,"SoundDuration":140082,"Delta":501849140},{"NoteNumber":65,"Velocity":35,"Duration":140082,"SoundDuration":140082,"Delta":501849140},{"NoteNumber":58,"Velocity":29,"Duration":140082,"SoundDuration":140082,"Delta":501849140},{"NoteNumber":92,"Velocity":71,"Duration":148721,"SoundDuration":148721,"Delta":501989223},{"NoteNumber":93,"Velocity":74,"Duration":411071,"SoundDuration":411071,"Delta":502137944},{"NoteNumber":69,"Velocity":40,"Duration":137023,"SoundDuration":137023,"Delta":502137944},{"NoteNumber":62,"Velocity":33,"Duration":137023,"SoundDuration":137023,"Delta":502137944},{"NoteNumber":57,"Velocity":33,"Duration":137023,"SoundDuration":137023,"Delta":502137944},{"NoteNumber":66,"Velocity":33,"Duration":137023,"SoundDuration":137023,"Delta":502137944},{"NoteNumber":66,"Velocity":26,"Duration":137023,"SoundDuration":137023,"Delta":502411991},{"NoteNumber":62,"Velocity":26,"Duration":137023,"SoundDuration":137023,"Delta":502411991},{"NoteNumber":69,"Velocity":31,"Duration":137023,"SoundDuration":137023,"Delta":502411991},{"NoteNumber":90,"Velocity":61,"Duration":137023,"SoundDuration":137023,"Delta":502549015},{"NoteNumber":93,"Velocity":69,"Duration":144606,"SoundDuration":144606,"Delta":502686039},{"NoteNumber":57,"Velocity":30,"Duration":144606,"SoundDuration":144606,"Delta":502686039},{"NoteNumber":69,"Velocity":36,"Duration":144606,"SoundDuration":144606,"Delta":502686039},{"NoteNumber":66,"Velocity":30,"Duration":144606,"SoundDuration":144606,"Delta":502686039},{"NoteNumber":90,"Velocity":54,"Duration":144606,"SoundDuration":144606,"Delta":502830645},{"NoteNumber":93,"Velocity":64,"Duration":144606,"SoundDuration":144606,"Delta":502975251},{"NoteNumber":66,"Velocity":26,"Duration":144606,"SoundDuration":144606,"Delta":502975251},{"NoteNumber":62,"Velocity":26,"Duration":144606,"SoundDuration":144606,"Delta":502975251},{"NoteNumber":69,"Velocity":31,"Duration":144606,"SoundDuration":144606,"Delta":502975251},{"NoteNumber":90,"Velocity":56,"Duration":144606,"SoundDuration":144606,"Delta":503119857},{"NoteNumber":88,"Velocity":62,"Duration":138850,"SoundDuration":138850,"Delta":503264464},{"NoteNumber":67,"Velocity":30,"Duration":138850,"SoundDuration":138850,"Delta":503264464},{"NoteNumber":69,"Velocity":36,"Duration":138850,"SoundDuration":138850,"Delta":503264464},{"NoteNumber":61,"Velocity":30,"Duration":138850,"SoundDuration":138850,"Delta":503264464},{"NoteNumber":90,"Velocity":57,"Duration":138850,"SoundDuration":138850,"Delta":503403314},{"NoteNumber":91,"Velocity":62,"Duration":146627,"SoundDuration":146627,"Delta":503542164},{"NoteNumber":57,"Velocity":26,"Duration":146627,"SoundDuration":146627,"Delta":503542164},{"NoteNumber":67,"Velocity":26,"Duration":146627,"SoundDuration":146627,"Delta":503542164},{"NoteNumber":69,"Velocity":31,"Duration":146627,"SoundDuration":146627,"Delta":503542164},{"NoteNumber":95,"Velocity":69,"Duration":138236,"SoundDuration":138236,"Delta":503688792},{"NoteNumber":93,"Velocity":65,"Duration":140082,"SoundDuration":140082,"Delta":503827028},{"NoteNumber":69,"Velocity":36,"Duration":140082,"SoundDuration":140082,"Delta":503827028},{"NoteNumber":67,"Velocity":30,"Duration":140082,"SoundDuration":140082,"Delta":503827028},{"NoteNumber":61,"Velocity":30,"Duration":140082,"SoundDuration":140082,"Delta":503827028},{"NoteNumber":91,"Velocity":56,"Duration":140082,"SoundDuration":140082,"Delta":503967110},{"NoteNumber":90,"Velocity":65,"Duration":140082,"SoundDuration":140082,"Delta":504107192},{"NoteNumber":69,"Velocity":31,"Duration":140082,"SoundDuration":140082,"Delta":504107192},{"NoteNumber":57,"Velocity":26,"Duration":140082,"SoundDuration":140082,"Delta":504107192},{"NoteNumber":67,"Velocity":26,"Duration":140082,"SoundDuration":140082,"Delta":504107192},{"NoteNumber":88,"Velocity":57,"Duration":149432,"SoundDuration":149432,"Delta":504247274},{"NoteNumber":93,"Velocity":74,"Duration":411071,"SoundDuration":411071,"Delta":504396707},{"NoteNumber":57,"Velocity":33,"Duration":137023,"SoundDuration":137023,"Delta":504396707},{"NoteNumber":66,"Velocity":33,"Duration":137023,"SoundDuration":137023,"Delta":504396707},{"NoteNumber":69,"Velocity":40,"Duration":137023,"SoundDuration":137023,"Delta":504396707},{"NoteNumber":66,"Velocity":26,"Duration":137023,"SoundDuration":137023,"Delta":504670754},{"NoteNumber":69,"Velocity":31,"Duration":137023,"SoundDuration":137023,"Delta":504670754},{"NoteNumber":62,"Velocity":26,"Duration":137023,"SoundDuration":137023,"Delta":504670754},{"NoteNumber":90,"Velocity":61,"Duration":137023,"SoundDuration":137023,"Delta":504807778},{"NoteNumber":93,"Velocity":69,"Duration":144606,"SoundDuration":144606,"Delta":504944802},{"NoteNumber":57,"Velocity":30,"Duration":144606,"SoundDuration":144606,"Delta":504944802},{"NoteNumber":69,"Velocity":36,"Duration":144606,"SoundDuration":144606,"Delta":504944802},{"NoteNumber":66,"Velocity":30,"Duration":144606,"SoundDuration":144606,"Delta":504944802},{"NoteNumber":90,"Velocity":54,"Duration":144606,"SoundDuration":144606,"Delta":505089408},{"NoteNumber":86,"Velocity":64,"Duration":144606,"SoundDuration":144606,"Delta":505234014},{"NoteNumber":69,"Velocity":31,"Duration":144606,"SoundDuration":144606,"Delta":505234014},{"NoteNumber":66,"Velocity":26,"Duration":144606,"SoundDuration":144606,"Delta":505234014},{"NoteNumber":62,"Velocity":26,"Duration":144606,"SoundDuration":144606,"Delta":505234014},{"NoteNumber":85,"Velocity":56,"Duration":144606,"SoundDuration":144606,"Delta":505378620},{"NoteNumber":83,"Velocity":62,"Duration":138850,"SoundDuration":138850,"Delta":505523227},{"NoteNumber":62,"Velocity":30,"Duration":138850,"SoundDuration":138850,"Delta":505523227},{"NoteNumber":55,"Velocity":30,"Duration":138850,"SoundDuration":138850,"Delta":505523227},{"NoteNumber":67,"Velocity":36,"Duration":138850,"SoundDuration":138850,"Delta":505523227},{"NoteNumber":86,"Velocity":56,"Duration":138850,"SoundDuration":138850,"Delta":505662077},{"NoteNumber":91,"Velocity":60,"Duration":146627,"SoundDuration":146627,"Delta":505800927},{"NoteNumber":59,"Velocity":25,"Duration":146627,"SoundDuration":146627,"Delta":505800927},{"NoteNumber":67,"Velocity":30,"Duration":146627,"SoundDuration":146627,"Delta":505800927},{"NoteNumber":62,"Velocity":25,"Duration":146627,"SoundDuration":146627,"Delta":505800927},{"NoteNumber":90,"Velocity":65,"Duration":138236,"SoundDuration":138236,"Delta":505947555},{"NoteNumber":88,"Velocity":60,"Duration":140082,"SoundDuration":140082,"Delta":506085791},{"NoteNumber":62,"Velocity":27,"Duration":140082,"SoundDuration":140082,"Delta":506085791},{"NoteNumber":59,"Velocity":27,"Duration":140082,"SoundDuration":140082,"Delta":506085791},{"NoteNumber":67,"Velocity":33,"Duration":140082,"SoundDuration":140082,"Delta":506085791},{"NoteNumber":86,"Velocity":50,"Duration":140082,"SoundDuration":140082,"Delta":506225873},{"NoteNumber":85,"Velocity":57,"Duration":140082,"SoundDuration":140082,"Delta":506365955},{"NoteNumber":62,"Velocity":23,"Duration":140082,"SoundDuration":140082,"Delta":506365955},{"NoteNumber":67,"Velocity":27,"Duration":140082,"SoundDuration":140082,"Delta":506365955},{"NoteNumber":83,"Velocity":49,"Duration":149432,"SoundDuration":149432,"Delta":506506037},{"NoteNumber":81,"Velocity":55,"Duration":411071,"SoundDuration":411071,"Delta":506655470},{"NoteNumber":66,"Velocity":24,"Duration":137023,"SoundDuration":137023,"Delta":506655470},{"NoteNumber":69,"Velocity":30,"Duration":137023,"SoundDuration":137023,"Delta":506655470},{"NoteNumber":62,"Velocity":24,"Duration":137023,"SoundDuration":137023,"Delta":506655470},{"NoteNumber":69,"Velocity":23,"Duration":137023,"SoundDuration":137023,"Delta":506929517},{"NoteNumber":66,"Velocity":19,"Duration":137023,"SoundDuration":137023,"Delta":506929517},{"NoteNumber":57,"Velocity":19,"Duration":137023,"SoundDuration":137023,"Delta":506929517},{"NoteNumber":78,"Velocity":45,"Duration":137023,"SoundDuration":137023,"Delta":507066541},{"NoteNumber":81,"Velocity":51,"Duration":144606,"SoundDuration":144606,"Delta":507203565},{"NoteNumber":69,"Velocity":27,"Duration":144606,"SoundDuration":144606,"Delta":507203565},{"NoteNumber":62,"Velocity":22,"Duration":144606,"SoundDuration":144606,"Delta":507203565},{"NoteNumber":66,"Velocity":22,"Duration":144606,"SoundDuration":144606,"Delta":507203565},{"NoteNumber":78,"Velocity":40,"Duration":144606,"SoundDuration":144606,"Delta":507348171},{"NoteNumber":81,"Velocity":48,"Duration":144606,"SoundDuration":144606,"Delta":507492777},{"NoteNumber":69,"Velocity":23,"Duration":144606,"SoundDuration":144606,"Delta":507492777},{"NoteNumber":57,"Velocity":19,"Duration":144606,"SoundDuration":144606,"Delta":507492777},{"NoteNumber":66,"Velocity":19,"Duration":144606,"SoundDuration":144606,"Delta":507492777},{"NoteNumber":78,"Velocity":42,"Duration":144606,"SoundDuration":144606,"Delta":507637383},{"NoteNumber":76,"Velocity":46,"Duration":138850,"SoundDuration":138850,"Delta":507781990},{"NoteNumber":67,"Velocity":22,"Duration":138850,"SoundDuration":138850,"Delta":507781990},{"NoteNumber":69,"Velocity":27,"Duration":138850,"SoundDuration":138850,"Delta":507781990},{"NoteNumber":61,"Velocity":22,"Duration":138850,"SoundDuration":138850,"Delta":507781990},{"NoteNumber":78,"Velocity":42,"Duration":138850,"SoundDuration":138850,"Delta":507920840},{"NoteNumber":79,"Velocity":46,"Duration":146627,"SoundDuration":146627,"Delta":508059690},{"NoteNumber":57,"Velocity":19,"Duration":146627,"SoundDuration":146627,"Delta":508059690},{"NoteNumber":67,"Velocity":19,"Duration":146627,"SoundDuration":146627,"Delta":508059690},{"NoteNumber":69,"Velocity":23,"Duration":146627,"SoundDuration":146627,"Delta":508059690},{"NoteNumber":83,"Velocity":51,"Duration":138236,"SoundDuration":138236,"Delta":508206318},{"NoteNumber":81,"Velocity":48,"Duration":140082,"SoundDuration":140082,"Delta":508344554},{"NoteNumber":67,"Velocity":22,"Duration":140082,"SoundDuration":140082,"Delta":508344554},{"NoteNumber":61,"Velocity":22,"Duration":140082,"SoundDuration":140082,"Delta":508344554},{"NoteNumber":69,"Velocity":27,"Duration":140082,"SoundDuration":140082,"Delta":508344554},{"NoteNumber":79,"Velocity":42,"Duration":140082,"SoundDuration":140082,"Delta":508484636},{"NoteNumber":78,"Velocity":48,"Duration":140082,"SoundDuration":140082,"Delta":508624718},{"NoteNumber":57,"Velocity":19,"Duration":140082,"SoundDuration":140082,"Delta":508624718},{"NoteNumber":67,"Velocity":19,"Duration":140082,"SoundDuration":140082,"Delta":508624718},{"NoteNumber":69,"Velocity":23,"Duration":140082,"SoundDuration":140082,"Delta":508624718},{"NoteNumber":76,"Velocity":42,"Duration":149432,"SoundDuration":149432,"Delta":508764800},{"NoteNumber":81,"Velocity":55,"Duration":411071,"SoundDuration":411071,"Delta":508914233},{"NoteNumber":57,"Velocity":24,"Duration":137023,"SoundDuration":137023,"Delta":508914233},{"NoteNumber":69,"Velocity":30,"Duration":137023,"SoundDuration":137023,"Delta":508914233},{"NoteNumber":66,"Velocity":24,"Duration":137023,"SoundDuration":137023,"Delta":508914233},{"NoteNumber":66,"Velocity":19,"Duration":137023,"SoundDuration":137023,"Delta":509188280},{"NoteNumber":62,"Velocity":19,"Duration":137023,"SoundDuration":137023,"Delta":509188280},{"NoteNumber":69,"Velocity":23,"Duration":137023,"SoundDuration":137023,"Delta":509188280},{"NoteNumber":78,"Velocity":45,"Duration":137023,"SoundDuration":137023,"Delta":509325304},{"NoteNumber":81,"Velocity":51,"Duration":144606,"SoundDuration":144606,"Delta":509462328},{"NoteNumber":69,"Velocity":27,"Duration":144606,"SoundDuration":144606,"Delta":509462328},{"NoteNumber":57,"Velocity":22,"Duration":144606,"SoundDuration":144606,"Delta":509462328},{"NoteNumber":66,"Velocity":22,"Duration":144606,"SoundDuration":144606,"Delta":509462328},{"NoteNumber":78,"Velocity":40,"Duration":144606,"SoundDuration":144606,"Delta":509606934},{"NoteNumber":74,"Velocity":48,"Duration":144606,"SoundDuration":144606,"Delta":509751540},{"NoteNumber":62,"Velocity":19,"Duration":144606,"SoundDuration":144606,"Delta":509751540},{"NoteNumber":66,"Velocity":19,"Duration":144606,"SoundDuration":144606,"Delta":509751540},{"NoteNumber":69,"Velocity":23,"Duration":144606,"SoundDuration":144606,"Delta":509751540},{"NoteNumber":73,"Velocity":42,"Duration":144606,"SoundDuration":144606,"Delta":509896146},{"NoteNumber":71,"Velocity":46,"Duration":138850,"SoundDuration":138850,"Delta":510040753},{"NoteNumber":67,"Velocity":27,"Duration":138850,"SoundDuration":138850,"Delta":510040753},{"NoteNumber":55,"Velocity":22,"Duration":138850,"SoundDuration":138850,"Delta":510040753},{"NoteNumber":62,"Velocity":22,"Duration":138850,"SoundDuration":138850,"Delta":510040753},{"NoteNumber":74,"Velocity":42,"Duration":138850,"SoundDuration":138850,"Delta":510179603},{"NoteNumber":79,"Velocity":46,"Duration":146627,"SoundDuration":146627,"Delta":510318453},{"NoteNumber":62,"Velocity":19,"Duration":146627,"SoundDuration":146627,"Delta":510318453},{"NoteNumber":59,"Velocity":19,"Duration":146627,"SoundDuration":146627,"Delta":510318453},{"NoteNumber":67,"Velocity":23,"Duration":146627,"SoundDuration":146627,"Delta":510318453},{"NoteNumber":78,"Velocity":51,"Duration":138236,"SoundDuration":138236,"Delta":510465081},{"NoteNumber":76,"Velocity":48,"Duration":140082,"SoundDuration":140082,"Delta":510603317},{"NoteNumber":62,"Velocity":22,"Duration":140082,"SoundDuration":140082,"Delta":510603317},{"NoteNumber":59,"Velocity":22,"Duration":140082,"SoundDuration":140082,"Delta":510603317},{"NoteNumber":67,"Velocity":27,"Duration":140082,"SoundDuration":140082,"Delta":510603317},{"NoteNumber":74,"Velocity":42,"Duration":140082,"SoundDuration":140082,"Delta":510743399},{"NoteNumber":73,"Velocity":48,"Duration":140082,"SoundDuration":140082,"Delta":510883481},{"NoteNumber":62,"Velocity":19,"Duration":140082,"SoundDuration":140082,"Delta":510883481},{"NoteNumber":67,"Velocity":23,"Duration":140082,"SoundDuration":140082,"Delta":510883481},{"NoteNumber":71,"Velocity":42,"Duration":149432,"SoundDuration":149432,"Delta":511023563},{"NoteNumber":69,"Velocity":55,"Duration":411071,"SoundDuration":411071,"Delta":511172996},{"NoteNumber":66,"Velocity":30,"Duration":137023,"SoundDuration":137023,"Delta":511172996},{"NoteNumber":62,"Velocity":24,"Duration":137023,"SoundDuration":137023,"Delta":511172996},{"NoteNumber":66,"Velocity":23,"Duration":137023,"SoundDuration":137023,"Delta":511447043},{"NoteNumber":57,"Velocity":19,"Duration":137023,"SoundDuration":137023,"Delta":511447043},{"NoteNumber":90,"Velocity":49,"Duration":137023,"SoundDuration":137023,"Delta":511584067},{"NoteNumber":93,"Velocity":56,"Duration":144606,"SoundDuration":144606,"Delta":511721091},{"NoteNumber":66,"Velocity":27,"Duration":144606,"SoundDuration":144606,"Delta":511721091},{"NoteNumber":62,"Velocity":22,"Duration":144606,"SoundDuration":144606,"Delta":511721091},{"NoteNumber":90,"Velocity":44,"Duration":144606,"SoundDuration":144606,"Delta":511865697},{"NoteNumber":93,"Velocity":52,"Duration":144606,"SoundDuration":144606,"Delta":512010303},{"NoteNumber":57,"Velocity":19,"Duration":144606,"SoundDuration":144606,"Delta":512010303},{"NoteNumber":66,"Velocity":23,"Duration":144606,"SoundDuration":144606,"Delta":512010303},{"NoteNumber":90,"Velocity":46,"Duration":144606,"SoundDuration":144606,"Delta":512154909},{"NoteNumber":88,"Velocity":50,"Duration":138850,"SoundDuration":138850,"Delta":512299516},{"NoteNumber":61,"Velocity":22,"Duration":138850,"SoundDuration":138850,"Delta":512299516},{"NoteNumber":67,"Velocity":27,"Duration":138850,"SoundDuration":138850,"Delta":512299516},{"NoteNumber":90,"Velocity":46,"Duration":138850,"SoundDuration":138850,"Delta":512438366},{"NoteNumber":91,"Velocity":50,"Duration":146627,"SoundDuration":146627,"Delta":512577216},{"NoteNumber":67,"Velocity":23,"Duration":146627,"SoundDuration":146627,"Delta":512577216},{"NoteNumber":57,"Velocity":19,"Duration":146627,"SoundDuration":146627,"Delta":512577216},{"NoteNumber":95,"Velocity":56,"Duration":138236,"SoundDuration":138236,"Delta":512723844},{"NoteNumber":93,"Velocity":52,"Duration":140082,"SoundDuration":140082,"Delta":512862080},{"NoteNumber":61,"Velocity":22,"Duration":140082,"SoundDuration":140082,"Delta":512862080},{"NoteNumber":67,"Velocity":27,"Duration":140082,"SoundDuration":140082,"Delta":512862080},{"NoteNumber":91,"Velocity":46,"Duration":140082,"SoundDuration":140082,"Delta":513002162},{"NoteNumber":90,"Velocity":52,"Duration":140082,"SoundDuration":140082,"Delta":513142244},{"NoteNumber":57,"Velocity":19,"Duration":140082,"SoundDuration":140082,"Delta":513142244},{"NoteNumber":67,"Velocity":23,"Duration":140082,"SoundDuration":140082,"Delta":513142244},{"NoteNumber":88,"Velocity":46,"Duration":149432,"SoundDuration":149432,"Delta":513282326},{"NoteNumber":93,"Velocity":60,"Duration":411071,"SoundDuration":411071,"Delta":513431759},{"NoteNumber":57,"Velocity":24,"Duration":137023,"SoundDuration":137023,"Delta":513431759},{"NoteNumber":66,"Velocity":30,"Duration":137023,"SoundDuration":137023,"Delta":513431759},{"NoteNumber":62,"Velocity":19,"Duration":137023,"SoundDuration":137023,"Delta":513705806},{"NoteNumber":66,"Velocity":23,"Duration":137023,"SoundDuration":137023,"Delta":513705806},{"NoteNumber":90,"Velocity":49,"Duration":137023,"SoundDuration":137023,"Delta":513842830},{"NoteNumber":93,"Velocity":56,"Duration":144606,"SoundDuration":144606,"Delta":513979854},{"NoteNumber":66,"Velocity":27,"Duration":144606,"SoundDuration":144606,"Delta":513979854},{"NoteNumber":57,"Velocity":22,"Duration":144606,"SoundDuration":144606,"Delta":513979854},{"NoteNumber":90,"Velocity":44,"Duration":144606,"SoundDuration":144606,"Delta":514124460},{"NoteNumber":86,"Velocity":52,"Duration":144606,"SoundDuration":144606,"Delta":514269066},{"NoteNumber":62,"Velocity":19,"Duration":144606,"SoundDuration":144606,"Delta":514269066},{"NoteNumber":66,"Velocity":23,"Duration":144606,"SoundDuration":144606,"Delta":514269066},{"NoteNumber":85,"Velocity":46,"Duration":144606,"SoundDuration":144606,"Delta":514413672},{"NoteNumber":83,"Velocity":50,"Duration":138850,"SoundDuration":138850,"Delta":514558279},{"NoteNumber":62,"Velocity":22,"Duration":138850,"SoundDuration":138850,"Delta":514558279},{"NoteNumber":67,"Velocity":27,"Duration":138850,"SoundDuration":138850,"Delta":514558279},{"NoteNumber":55,"Velocity":22,"Duration":138850,"SoundDuration":138850,"Delta":514558279},{"NoteNumber":86,"Velocity":46,"Duration":138850,"SoundDuration":138850,"Delta":514697129},{"NoteNumber":91,"Velocity":50,"Duration":146627,"SoundDuration":146627,"Delta":514835979},{"NoteNumber":62,"Velocity":19,"Duration":146627,"SoundDuration":146627,"Delta":514835979},{"NoteNumber":59,"Velocity":19,"Duration":146627,"SoundDuration":146627,"Delta":514835979},{"NoteNumber":67,"Velocity":23,"Duration":146627,"SoundDuration":146627,"Delta":514835979},{"NoteNumber":90,"Velocity":55,"Duration":138236,"SoundDuration":138236,"Delta":514982607},{"NoteNumber":88,"Velocity":51,"Duration":140082,"SoundDuration":140082,"Delta":515120843},{"NoteNumber":67,"Velocity":26,"Duration":140082,"SoundDuration":140082,"Delta":515120843},{"NoteNumber":59,"Velocity":21,"Duration":140082,"SoundDuration":140082,"Delta":515120843},{"NoteNumber":62,"Velocity":21,"Duration":140082,"SoundDuration":140082,"Delta":515120843},{"NoteNumber":86,"Velocity":45,"Duration":140082,"SoundDuration":140082,"Delta":515260925},{"NoteNumber":85,"Velocity":50,"Duration":140082,"SoundDuration":140082,"Delta":515401007},{"NoteNumber":67,"Velocity":22,"Duration":140082,"SoundDuration":140082,"Delta":515401007},{"NoteNumber":62,"Velocity":18,"Duration":140082,"SoundDuration":140082,"Delta":515401007},{"NoteNumber":83,"Velocity":45,"Duration":149432,"SoundDuration":149432,"Delta":515541089},{"NoteNumber":81,"Velocity":53,"Duration":411071,"SoundDuration":411071,"Delta":515690522},{"NoteNumber":62,"Velocity":23,"Duration":137023,"SoundDuration":137023,"Delta":515690522},{"NoteNumber":66,"Velocity":29,"Duration":137023,"SoundDuration":137023,"Delta":515690522},{"NoteNumber":57,"Velocity":18,"Duration":137023,"SoundDuration":137023,"Delta":515964569},{"NoteNumber":66,"Velocity":22,"Duration":137023,"SoundDuration":137023,"Delta":515964569},{"NoteNumber":78,"Velocity":43,"Duration":137023,"SoundDuration":137023,"Delta":516101593},{"NoteNumber":81,"Velocity":48,"Duration":144606,"SoundDuration":144606,"Delta":516238617},{"NoteNumber":62,"Velocity":21,"Duration":144606,"SoundDuration":144606,"Delta":516238617},{"NoteNumber":66,"Velocity":25,"Duration":144606,"SoundDuration":144606,"Delta":516238617},{"NoteNumber":78,"Velocity":38,"Duration":144606,"SoundDuration":144606,"Delta":516383223},{"NoteNumber":81,"Velocity":45,"Duration":144606,"SoundDuration":144606,"Delta":516527829},{"NoteNumber":57,"Velocity":18,"Duration":144606,"SoundDuration":144606,"Delta":516527829},{"NoteNumber":66,"Velocity":21,"Duration":144606,"SoundDuration":144606,"Delta":516527829},{"NoteNumber":78,"Velocity":39,"Duration":144606,"SoundDuration":144606,"Delta":516672435},{"NoteNumber":76,"Velocity":43,"Duration":138850,"SoundDuration":138850,"Delta":516817042},{"NoteNumber":67,"Velocity":25,"Duration":138850,"SoundDuration":138850,"Delta":516817042},{"NoteNumber":61,"Velocity":20,"Duration":138850,"SoundDuration":138850,"Delta":516817042},{"NoteNumber":78,"Velocity":39,"Duration":138850,"SoundDuration":138850,"Delta":516955892},{"NoteNumber":79,"Velocity":43,"Duration":146627,"SoundDuration":146627,"Delta":517094742},{"NoteNumber":67,"Velocity":21,"Duration":146627,"SoundDuration":146627,"Delta":517094742},{"NoteNumber":57,"Velocity":17,"Duration":146627,"SoundDuration":146627,"Delta":517094742},{"NoteNumber":83,"Velocity":47,"Duration":138236,"SoundDuration":138236,"Delta":517241370},{"NoteNumber":81,"Velocity":44,"Duration":140082,"SoundDuration":140082,"Delta":517379606},{"NoteNumber":67,"Velocity":25,"Duration":140082,"SoundDuration":140082,"Delta":517379606},{"NoteNumber":61,"Velocity":20,"Duration":140082,"SoundDuration":140082,"Delta":517379606},{"NoteNumber":79,"Velocity":39,"Duration":140082,"SoundDuration":140082,"Delta":517519688},{"NoteNumber":78,"Velocity":44,"Duration":140082,"SoundDuration":140082,"Delta":517659770},{"NoteNumber":57,"Velocity":17,"Duration":140082,"SoundDuration":140082,"Delta":517659770},{"NoteNumber":67,"Velocity":21,"Duration":140082,"SoundDuration":140082,"Delta":517659770},{"NoteNumber":76,"Velocity":38,"Duration":149432,"SoundDuration":149432,"Delta":517799852},{"NoteNumber":81,"Velocity":50,"Duration":411071,"SoundDuration":411071,"Delta":517949285},{"NoteNumber":62,"Velocity":21,"Duration":137023,"SoundDuration":137023,"Delta":517949285},{"NoteNumber":66,"Velocity":27,"Duration":137023,"SoundDuration":137023,"Delta":517949285},{"NoteNumber":66,"Velocity":20,"Duration":137023,"SoundDuration":137023,"Delta":518223332},{"NoteNumber":57,"Velocity":17,"Duration":137023,"SoundDuration":137023,"Delta":518223332},{"NoteNumber":78,"Velocity":40,"Duration":137023,"SoundDuration":137023,"Delta":518360356},{"NoteNumber":81,"Velocity":45,"Duration":144606,"SoundDuration":144606,"Delta":518497380},{"NoteNumber":62,"Velocity":19,"Duration":144606,"SoundDuration":144606,"Delta":518497380},{"NoteNumber":66,"Velocity":24,"Duration":144606,"SoundDuration":144606,"Delta":518497380},{"NoteNumber":78,"Velocity":36,"Duration":144606,"SoundDuration":144606,"Delta":518641986},{"NoteNumber":81,"Velocity":42,"Duration":144606,"SoundDuration":144606,"Delta":518786592},{"NoteNumber":57,"Velocity":16,"Duration":144606,"SoundDuration":144606,"Delta":518786592},{"NoteNumber":66,"Velocity":20,"Duration":144606,"SoundDuration":144606,"Delta":518786592},{"NoteNumber":78,"Velocity":37,"Duration":144606,"SoundDuration":144606,"Delta":518931198},{"NoteNumber":76,"Velocity":40,"Duration":138850,"SoundDuration":138850,"Delta":519075805},{"NoteNumber":61,"Velocity":19,"Duration":138850,"SoundDuration":138850,"Delta":519075805},{"NoteNumber":67,"Velocity":23,"Duration":138850,"SoundDuration":138850,"Delta":519075805},{"NoteNumber":78,"Velocity":36,"Duration":138850,"SoundDuration":138850,"Delta":519214655},{"NoteNumber":79,"Velocity":40,"Duration":146627,"SoundDuration":146627,"Delta":519353505},{"NoteNumber":57,"Velocity":16,"Duration":146627,"SoundDuration":146627,"Delta":519353505},{"NoteNumber":67,"Velocity":20,"Duration":146627,"SoundDuration":146627,"Delta":519353505},{"NoteNumber":83,"Velocity":44,"Duration":138236,"SoundDuration":138236,"Delta":519500133},{"NoteNumber":81,"Velocity":41,"Duration":140082,"SoundDuration":140082,"Delta":519638369},{"NoteNumber":67,"Velocity":23,"Duration":140082,"SoundDuration":140082,"Delta":519638369},{"NoteNumber":61,"Velocity":19,"Duration":140082,"SoundDuration":140082,"Delta":519638369},{"NoteNumber":79,"Velocity":36,"Duration":140082,"SoundDuration":140082,"Delta":519778451},{"NoteNumber":78,"Velocity":41,"Duration":140082,"SoundDuration":140082,"Delta":519918533},{"NoteNumber":57,"Velocity":16,"Duration":140082,"SoundDuration":140082,"Delta":519918533},{"NoteNumber":67,"Velocity":19,"Duration":140082,"SoundDuration":140082,"Delta":519918533},{"NoteNumber":76,"Velocity":36,"Duration":149432,"SoundDuration":149432,"Delta":520058615},{"NoteNumber":74,"Velocity":44,"Duration":309151,"SoundDuration":309151,"Delta":520208048},{"NoteNumber":62,"Velocity":24,"Duration":154575,"SoundDuration":154575,"Delta":520208048},{"NoteNumber":66,"Velocity":28,"Duration":154575,"SoundDuration":154575,"Delta":520208048},{"NoteNumber":76,"Velocity":44,"Duration":141509,"SoundDuration":141509,"Delta":520517199},{"NoteNumber":66,"Velocity":24,"Duration":141509,"SoundDuration":141509,"Delta":520517199},{"NoteNumber":61,"Velocity":20,"Duration":141509,"SoundDuration":141509,"Delta":520517199},{"NoteNumber":74,"Velocity":36,"Duration":141509,"SoundDuration":141509,"Delta":520658708},{"NoteNumber":76,"Velocity":41,"Duration":140186,"SoundDuration":140186,"Delta":520800218},{"NoteNumber":59,"Velocity":24,"Duration":140186,"SoundDuration":140186,"Delta":520800218},{"NoteNumber":66,"Velocity":28,"Duration":140186,"SoundDuration":140186,"Delta":520800218},{"NoteNumber":74,"Velocity":36,"Duration":143540,"SoundDuration":143540,"Delta":520940405},{"NoteNumber":73,"Velocity":43,"Duration":135135,"SoundDuration":135135,"Delta":521083945},{"NoteNumber":66,"Velocity":24,"Duration":135135,"SoundDuration":135135,"Delta":521083945},{"NoteNumber":57,"Velocity":20,"Duration":135135,"SoundDuration":135135,"Delta":521083945},{"NoteNumber":71,"Velocity":39,"Duration":140186,"SoundDuration":140186,"Delta":521219081},{"NoteNumber":69,"Velocity":44,"Duration":297029,"SoundDuration":297029,"Delta":521359268},{"NoteNumber":61,"Velocity":24,"Duration":148514,"SoundDuration":148514,"Delta":521359268},{"NoteNumber":67,"Velocity":28,"Duration":148514,"SoundDuration":148514,"Delta":521359268},{"NoteNumber":71,"Velocity":44,"Duration":137614,"SoundDuration":137614,"Delta":521656297},{"NoteNumber":64,"Velocity":20,"Duration":137614,"SoundDuration":137614,"Delta":521656297},{"NoteNumber":67,"Velocity":24,"Duration":137614,"SoundDuration":137614,"Delta":521656297},{"NoteNumber":69,"Velocity":36,"Duration":137614,"SoundDuration":137614,"Delta":521793912},{"NoteNumber":71,"Velocity":44,"Duration":138248,"SoundDuration":138248,"Delta":521931527},{"NoteNumber":61,"Velocity":24,"Duration":138248,"SoundDuration":138248,"Delta":521931527},{"NoteNumber":67,"Velocity":28,"Duration":138248,"SoundDuration":138248,"Delta":521931527},{"NoteNumber":69,"Velocity":40,"Duration":138248,"SoundDuration":138248,"Delta":522069775},{"NoteNumber":78,"Velocity":47,"Duration":142180,"SoundDuration":142180,"Delta":522208024},{"NoteNumber":57,"Velocity":20,"Duration":142180,"SoundDuration":142180,"Delta":522208024},{"NoteNumber":67,"Velocity":24,"Duration":142180,"SoundDuration":142180,"Delta":522208024},{"NoteNumber":76,"Velocity":39,"Duration":149999,"SoundDuration":149999,"Delta":522350204},{"NoteNumber":74,"Velocity":44,"Duration":295566,"SoundDuration":295566,"Delta":522500204},{"NoteNumber":66,"Velocity":28,"Duration":147783,"SoundDuration":147783,"Delta":522500204},{"NoteNumber":62,"Velocity":24,"Duration":147783,"SoundDuration":147783,"Delta":522500204},{"NoteNumber":76,"Velocity":43,"Duration":141509,"SoundDuration":141509,"Delta":522795771},{"NoteNumber":66,"Velocity":24,"Duration":141509,"SoundDuration":141509,"Delta":522795771},{"NoteNumber":61,"Velocity":20,"Duration":141509,"SoundDuration":141509,"Delta":522795771},{"NoteNumber":74,"Velocity":36,"Duration":141509,"SoundDuration":141509,"Delta":522937280},{"NoteNumber":76,"Velocity":40,"Duration":140186,"SoundDuration":140186,"Delta":523078790},{"NoteNumber":59,"Velocity":24,"Duration":140186,"SoundDuration":140186,"Delta":523078790},{"NoteNumber":66,"Velocity":28,"Duration":140186,"SoundDuration":140186,"Delta":523078790},{"NoteNumber":74,"Velocity":36,"Duration":143540,"SoundDuration":143540,"Delta":523218977},{"NoteNumber":73,"Velocity":43,"Duration":135135,"SoundDuration":135135,"Delta":523362517},{"NoteNumber":57,"Velocity":20,"Duration":135135,"SoundDuration":135135,"Delta":523362517},{"NoteNumber":66,"Velocity":24,"Duration":135135,"SoundDuration":135135,"Delta":523362517},{"NoteNumber":71,"Velocity":39,"Duration":140186,"SoundDuration":140186,"Delta":523497653},{"NoteNumber":69,"Velocity":44,"Duration":298507,"SoundDuration":298507,"Delta":523637840},{"NoteNumber":67,"Velocity":28,"Duration":149253,"SoundDuration":149253,"Delta":523637840},{"NoteNumber":61,"Velocity":24,"Duration":149253,"SoundDuration":149253,"Delta":523637840},{"NoteNumber":71,"Velocity":44,"Duration":140845,"SoundDuration":140845,"Delta":523936347},{"NoteNumber":67,"Velocity":24,"Duration":140845,"SoundDuration":140845,"Delta":523936347},{"NoteNumber":64,"Velocity":20,"Duration":140845,"SoundDuration":140845,"Delta":523936347},{"NoteNumber":69,"Velocity":36,"Duration":140845,"SoundDuration":140845,"Delta":524077192},{"NoteNumber":71,"Velocity":44,"Duration":140186,"SoundDuration":140186,"Delta":524218037},{"NoteNumber":67,"Velocity":28,"Duration":140186,"SoundDuration":140186,"Delta":524218037},{"NoteNumber":61,"Velocity":24,"Duration":140186,"SoundDuration":140186,"Delta":524218037},{"NoteNumber":69,"Velocity":40,"Duration":140187,"SoundDuration":140187,"Delta":524358224},{"NoteNumber":78,"Velocity":42,"Duration":142180,"SoundDuration":142180,"Delta":524498411},{"NoteNumber":67,"Velocity":24,"Duration":142180,"SoundDuration":142180,"Delta":524498411},{"NoteNumber":57,"Velocity":20,"Duration":142180,"SoundDuration":142180,"Delta":524498411},{"NoteNumber":76,"Velocity":40,"Duration":149999,"SoundDuration":149999,"Delta":524640591},{"NoteNumber":74,"Velocity":44,"Duration":147783,"SoundDuration":147783,"Delta":524790591},{"NoteNumber":50,"Velocity":24,"Duration":147783,"SoundDuration":147783,"Delta":524790591},{"NoteNumber":54,"Velocity":28,"Duration":147783,"SoundDuration":147783,"Delta":524790591},{"NoteNumber":86,"Velocity":36,"Duration":147783,"SoundDuration":147783,"Delta":524938374},{"NoteNumber":88,"Velocity":44,"Duration":143540,"SoundDuration":143540,"Delta":525086158},{"NoteNumber":49,"Velocity":20,"Duration":143540,"SoundDuration":143540,"Delta":525086158},{"NoteNumber":54,"Velocity":24,"Duration":143540,"SoundDuration":143540,"Delta":525086158},{"NoteNumber":86,"Velocity":36,"Duration":143540,"SoundDuration":143540,"Delta":525229698},{"NoteNumber":88,"Velocity":44,"Duration":144927,"SoundDuration":144927,"Delta":525373239},{"NoteNumber":47,"Velocity":24,"Duration":144927,"SoundDuration":144927,"Delta":525373239},{"NoteNumber":54,"Velocity":28,"Duration":144927,"SoundDuration":144927,"Delta":525373239},{"NoteNumber":86,"Velocity":36,"Duration":143540,"SoundDuration":143540,"Delta":525518167},{"NoteNumber":85,"Velocity":43,"Duration":139535,"SoundDuration":139535,"Delta":525661707},{"NoteNumber":45,"Velocity":20,"Duration":139535,"SoundDuration":139535,"Delta":525661707},{"NoteNumber":54,"Velocity":24,"Duration":139535,"SoundDuration":139535,"Delta":525661707},{"NoteNumber":83,"Velocity":39,"Duration":140186,"SoundDuration":140186,"Delta":525801242},{"NoteNumber":81,"Velocity":44,"Duration":303030,"SoundDuration":303030,"Delta":525941429},{"NoteNumber":55,"Velocity":28,"Duration":151515,"SoundDuration":151515,"Delta":525941429},{"NoteNumber":49,"Velocity":24,"Duration":151515,"SoundDuration":151515,"Delta":525941429},{"NoteNumber":83,"Velocity":44,"Duration":142857,"SoundDuration":142857,"Delta":526244460},{"NoteNumber":52,"Velocity":20,"Duration":142857,"SoundDuration":142857,"Delta":526244460},{"NoteNumber":55,"Velocity":24,"Duration":142857,"SoundDuration":142857,"Delta":526244460},{"NoteNumber":81,"Velocity":36,"Duration":142857,"SoundDuration":142857,"Delta":526387317},{"NoteNumber":83,"Velocity":44,"Duration":144927,"SoundDuration":144927,"Delta":526530174},{"NoteNumber":55,"Velocity":28,"Duration":144927,"SoundDuration":144927,"Delta":526530174},{"NoteNumber":49,"Velocity":24,"Duration":144927,"SoundDuration":144927,"Delta":526530174},{"NoteNumber":81,"Velocity":40,"Duration":144927,"SoundDuration":144927,"Delta":526675102},{"NoteNumber":90,"Velocity":42,"Duration":147783,"SoundDuration":147783,"Delta":526820029},{"NoteNumber":45,"Velocity":20,"Duration":147783,"SoundDuration":147783,"Delta":526820029},{"NoteNumber":55,"Velocity":24,"Duration":147783,"SoundDuration":147783,"Delta":526820029},{"NoteNumber":88,"Velocity":40,"Duration":149999,"SoundDuration":149999,"Delta":526967813},{"NoteNumber":86,"Velocity":44,"Duration":298507,"SoundDuration":298507,"Delta":527117813},{"NoteNumber":50,"Velocity":24,"Duration":149253,"SoundDuration":149253,"Delta":527117813},{"NoteNumber":54,"Velocity":28,"Duration":149253,"SoundDuration":149253,"Delta":527117813},{"NoteNumber":88,"Velocity":44,"Duration":144230,"SoundDuration":144230,"Delta":527416320},{"NoteNumber":49,"Velocity":20,"Duration":144230,"SoundDuration":144230,"Delta":527416320},{"NoteNumber":54,"Velocity":24,"Duration":144230,"SoundDuration":144230,"Delta":527416320},{"NoteNumber":86,"Velocity":36,"Duration":144230,"SoundDuration":144230,"Delta":527560551},{"NoteNumber":88,"Velocity":44,"Duration":148514,"SoundDuration":148514,"Delta":527704782},{"NoteNumber":47,"Velocity":24,"Duration":148514,"SoundDuration":148514,"Delta":527704782},{"NoteNumber":54,"Velocity":28,"Duration":148514,"SoundDuration":148514,"Delta":527704782},{"NoteNumber":86,"Velocity":36,"Duration":143540,"SoundDuration":143540,"Delta":527853296},{"NoteNumber":85,"Velocity":43,"Duration":140845,"SoundDuration":140845,"Delta":527996837},{"NoteNumber":45,"Velocity":20,"Duration":140845,"SoundDuration":140845,"Delta":527996837},{"NoteNumber":54,"Velocity":24,"Duration":140845,"SoundDuration":140845,"Delta":527996837},{"NoteNumber":83,"Velocity":39,"Duration":146341,"SoundDuration":146341,"Delta":528137682},{"NoteNumber":81,"Velocity":44,"Duration":310880,"SoundDuration":310880,"Delta":528284024},{"NoteNumber":55,"Velocity":28,"Duration":155440,"SoundDuration":155440,"Delta":528284024},{"NoteNumber":49,"Velocity":24,"Duration":155440,"SoundDuration":155440,"Delta":528284024},{"NoteNumber":83,"Velocity":44,"Duration":146341,"SoundDuration":146341,"Delta":528594905},{"NoteNumber":52,"Velocity":20,"Duration":146341,"SoundDuration":146341,"Delta":528594905},{"NoteNumber":55,"Velocity":24,"Duration":146341,"SoundDuration":146341,"Delta":528594905},{"NoteNumber":81,"Velocity":36,"Duration":146341,"SoundDuration":146341,"Delta":528741246},{"NoteNumber":83,"Velocity":44,"Duration":149253,"SoundDuration":149253,"Delta":528887588},{"NoteNumber":55,"Velocity":28,"Duration":149253,"SoundDuration":149253,"Delta":528887588},{"NoteNumber":49,"Velocity":24,"Duration":149253,"SoundDuration":149253,"Delta":528887588},{"NoteNumber":81,"Velocity":40,"Duration":149253,"SoundDuration":149253,"Delta":529036841},{"NoteNumber":90,"Velocity":42,"Duration":168539,"SoundDuration":168539,"Delta":529186095},{"NoteNumber":45,"Velocity":20,"Duration":168539,"SoundDuration":168539,"Delta":529186095},{"NoteNumber":55,"Velocity":24,"Duration":168539,"SoundDuration":168539,"Delta":529186095},{"NoteNumber":88,"Velocity":40,"Duration":166666,"SoundDuration":166666,"Delta":529354634},{"NoteNumber":86,"Velocity":44,"Duration":307692,"SoundDuration":307692,"Delta":529521301},{"NoteNumber":50,"Velocity":24,"Duration":153846,"SoundDuration":153846,"Delta":529521301},{"NoteNumber":54,"Velocity":28,"Duration":153846,"SoundDuration":153846,"Delta":529521301},{"NoteNumber":90,"Velocity":44,"Duration":153846,"SoundDuration":153846,"Delta":529828994},{"NoteNumber":45,"Velocity":20,"Duration":153846,"SoundDuration":153846,"Delta":529828994},{"NoteNumber":54,"Velocity":24,"Duration":153846,"SoundDuration":153846,"Delta":529828994},{"NoteNumber":86,"Velocity":36,"Duration":153846,"SoundDuration":153846,"Delta":529982840},{"NoteNumber":90,"Velocity":44,"Duration":153846,"SoundDuration":153846,"Delta":530136686},{"NoteNumber":54,"Velocity":27,"Duration":153846,"SoundDuration":153846,"Delta":530136686},{"NoteNumber":50,"Velocity":23,"Duration":153846,"SoundDuration":153846,"Delta":530136686},{"NoteNumber":86,"Velocity":36,"Duration":153846,"SoundDuration":153846,"Delta":530290532},{"NoteNumber":90,"Velocity":43,"Duration":153846,"SoundDuration":153846,"Delta":530444379},{"NoteNumber":45,"Velocity":19,"Duration":153846,"SoundDuration":153846,"Delta":530444379},{"NoteNumber":54,"Velocity":23,"Duration":153846,"SoundDuration":153846,"Delta":530444379},{"NoteNumber":86,"Velocity":39,"Duration":153846,"SoundDuration":153846,"Delta":530598225},{"NoteNumber":90,"Velocity":44,"Duration":317460,"SoundDuration":317460,"Delta":530752071},{"NoteNumber":50,"Velocity":23,"Duration":158730,"SoundDuration":158730,"Delta":530752071},{"NoteNumber":54,"Velocity":27,"Duration":158730,"SoundDuration":158730,"Delta":530752071},{"NoteNumber":93,"Velocity":44,"Duration":154639,"SoundDuration":154639,"Delta":531069532},{"NoteNumber":45,"Velocity":19,"Duration":154639,"SoundDuration":154639,"Delta":531069532},{"NoteNumber":54,"Velocity":23,"Duration":154639,"SoundDuration":154639,"Delta":531069532},{"NoteNumber":90,"Velocity":36,"Duration":154639,"SoundDuration":154639,"Delta":531224171},{"NoteNumber":93,"Velocity":44,"Duration":154639,"SoundDuration":154639,"Delta":531378810},{"NoteNumber":50,"Velocity":23,"Duration":154639,"SoundDuration":154639,"Delta":531378810},{"NoteNumber":54,"Velocity":26,"Duration":154639,"SoundDuration":154639,"Delta":531378810},{"NoteNumber":90,"Velocity":40,"Duration":154639,"SoundDuration":154639,"Delta":531533449},{"NoteNumber":93,"Velocity":42,"Duration":154639,"SoundDuration":154639,"Delta":531688089},{"NoteNumber":54,"Velocity":22,"Duration":154639,"SoundDuration":154639,"Delta":531688089},{"NoteNumber":45,"Velocity":19,"Duration":154639,"SoundDuration":154639,"Delta":531688089},{"NoteNumber":90,"Velocity":39,"Duration":154639,"SoundDuration":154639,"Delta":531842728},{"NoteNumber":93,"Velocity":44,"Duration":324324,"SoundDuration":324324,"Delta":531997367},{"NoteNumber":50,"Velocity":26,"Duration":162162,"SoundDuration":162162,"Delta":531997367},{"NoteNumber":42,"Velocity":22,"Duration":162162,"SoundDuration":162162,"Delta":531997367},{"NoteNumber":98,"Velocity":49,"Duration":156250,"SoundDuration":156250,"Delta":532321692},{"NoteNumber":45,"Velocity":18,"Duration":156250,"SoundDuration":156250,"Delta":532321692},{"NoteNumber":93,"Velocity":36,"Duration":156250,"SoundDuration":156250,"Delta":532477942},{"NoteNumber":98,"Velocity":49,"Duration":156250,"SoundDuration":156250,"Delta":532634192},{"NoteNumber":42,"Velocity":22,"Duration":156250,"SoundDuration":156250,"Delta":532634192},{"NoteNumber":50,"Velocity":25,"Duration":156250,"SoundDuration":156250,"Delta":532634192},{"NoteNumber":93,"Velocity":36,"Duration":156250,"SoundDuration":156250,"Delta":532790442},{"NoteNumber":98,"Velocity":43,"Duration":156250,"SoundDuration":156250,"Delta":532946692},{"NoteNumber":45,"Velocity":18,"Duration":156250,"SoundDuration":156250,"Delta":532946692},{"NoteNumber":93,"Velocity":39,"Duration":156250,"SoundDuration":156250,"Delta":533102942},{"NoteNumber":98,"Velocity":47,"Duration":156250,"SoundDuration":156250,"Delta":533259192},{"NoteNumber":50,"Velocity":25,"Duration":156250,"SoundDuration":156250,"Delta":533259192},{"NoteNumber":42,"Velocity":21,"Duration":156250,"SoundDuration":156250,"Delta":533259192},{"NoteNumber":93,"Velocity":39,"Duration":156250,"SoundDuration":156250,"Delta":533415442},{"NoteNumber":98,"Velocity":44,"Duration":156250,"SoundDuration":156250,"Delta":533571692},{"NoteNumber":45,"Velocity":18,"Duration":156250,"SoundDuration":156250,"Delta":533571692},{"NoteNumber":93,"Velocity":36,"Duration":156250,"SoundDuration":156250,"Delta":533727942},{"NoteNumber":98,"Velocity":44,"Duration":156250,"SoundDuration":156250,"Delta":533884192},{"NoteNumber":42,"Velocity":21,"Duration":156250,"SoundDuration":156250,"Delta":533884192},{"NoteNumber":50,"Velocity":24,"Duration":156250,"SoundDuration":156250,"Delta":533884192},{"NoteNumber":93,"Velocity":40,"Duration":156250,"SoundDuration":156250,"Delta":534040442},{"NoteNumber":90,"Velocity":42,"Duration":158730,"SoundDuration":158730,"Delta":534196692},{"NoteNumber":45,"Velocity":17,"Duration":158730,"SoundDuration":158730,"Delta":534196692},{"NoteNumber":93,"Velocity":37,"Duration":173410,"SoundDuration":173410,"Delta":534355422},{"NoteNumber":98,"Velocity":47,"Duration":312500,"SoundDuration":312500,"Delta":534528832},{"NoteNumber":90,"Velocity":39,"Duration":312500,"SoundDuration":312500,"Delta":534528832},{"NoteNumber":50,"Velocity":24,"Duration":156250,"SoundDuration":156250,"Delta":534528832},{"NoteNumber":38,"Velocity":20,"Duration":156250,"SoundDuration":156250,"Delta":534528832},{"NoteNumber":98,"Velocity":44,"Duration":162162,"SoundDuration":162162,"Delta":535153832},{"NoteNumber":42,"Velocity":24,"Duration":162162,"SoundDuration":162162,"Delta":535153832},{"NoteNumber":93,"Velocity":36,"Duration":162162,"SoundDuration":162162,"Delta":535315995},{"NoteNumber":90,"Velocity":43,"Duration":162162,"SoundDuration":162162,"Delta":535478157},{"NoteNumber":45,"Velocity":20,"Duration":162162,"SoundDuration":162162,"Delta":535478157},{"NoteNumber":93,"Velocity":39,"Duration":188679,"SoundDuration":188679,"Delta":535640319},{"NoteNumber":90,"Velocity":34,"Duration":350876,"SoundDuration":350876,"Delta":535828998},{"NoteNumber":98,"Velocity":44,"Duration":350876,"SoundDuration":350876,"Delta":535828998},{"NoteNumber":50,"Velocity":23,"Duration":175438,"SoundDuration":175438,"Delta":535828998},{"NoteNumber":38,"Velocity":20,"Duration":175438,"SoundDuration":175438,"Delta":535828998},{"NoteNumber":98,"Velocity":44,"Duration":186335,"SoundDuration":186335,"Delta":536530752},{"NoteNumber":42,"Velocity":23,"Duration":186335,"SoundDuration":186335,"Delta":536530752},{"NoteNumber":93,"Velocity":40,"Duration":186335,"SoundDuration":186335,"Delta":536717088},{"NoteNumber":90,"Velocity":44,"Duration":186335,"SoundDuration":186335,"Delta":536903423},{"NoteNumber":45,"Velocity":19,"Duration":186335,"SoundDuration":186335,"Delta":536903423},{"NoteNumber":93,"Velocity":39,"Duration":238095,"SoundDuration":238095,"Delta":537089759},{"NoteNumber":98,"Velocity":45,"Duration":346820,"SoundDuration":346820,"Delta":537327854},{"NoteNumber":90,"Velocity":38,"Duration":346820,"SoundDuration":346820,"Delta":537327854},{"NoteNumber":50,"Velocity":22,"Duration":173410,"SoundDuration":173410,"Delta":537327854},{"NoteNumber":38,"Velocity":19,"Duration":173410,"SoundDuration":173410,"Delta":537327854},{"NoteNumber":81,"Velocity":38,"Duration":526315,"SoundDuration":526315,"Delta":538715138},{"NoteNumber":66,"Velocity":22,"Duration":526315,"SoundDuration":526315,"Delta":538715138},{"NoteNumber":57,"Velocity":18,"Duration":526315,"SoundDuration":526315,"Delta":538715138},{"NoteNumber":83,"Velocity":34,"Duration":175438,"SoundDuration":175438,"Delta":539241454},{"NoteNumber":81,"Velocity":38,"Duration":593169,"SoundDuration":593169,"Delta":539416892},{"NoteNumber":57,"Velocity":18,"Duration":593169,"SoundDuration":593169,"Delta":539416892},{"NoteNumber":66,"Velocity":22,"Duration":593169,"SoundDuration":593169,"Delta":539416892},{"NoteNumber":78,"Velocity":34,"Duration":229533,"SoundDuration":229533,"Delta":540010062},{"NoteNumber":74,"Velocity":38,"Duration":630693,"SoundDuration":630693,"Delta":540239595},{"NoteNumber":66,"Velocity":22,"Duration":630693,"SoundDuration":630693,"Delta":540239595},{"NoteNumber":62,"Velocity":18,"Duration":630693,"SoundDuration":630693,"Delta":540239595},{"NoteNumber":62,"Velocity":27,"Duration":630693,"SoundDuration":630693,"Delta":541921445},{"NoteNumber":66,"Velocity":27,"Duration":630693,"SoundDuration":630693,"Delta":541921445},{"NoteNumber":74,"Velocity":32,"Duration":630693,"SoundDuration":630693,"Delta":541921445},{"NoteNumber":38,"Velocity":18,"Duration":630693,"SoundDuration":630693,"Delta":541921445},{"NoteNumber":45,"Velocity":22,"Duration":630693,"SoundDuration":630693,"Delta":541921445},{"NoteNumber":45,"Velocity":22,"Duration":758213,"SoundDuration":758213,"Delta":542762370},{"NoteNumber":62,"Velocity":27,"Duration":2336904,"SoundDuration":2336904,"Delta":543773322},{"NoteNumber":66,"Velocity":27,"Duration":2336904,"SoundDuration":2336904,"Delta":543773322},{"NoteNumber":74,"Velocity":32,"Duration":2336904,"SoundDuration":2336904,"Delta":543773322},{"NoteNumber":38,"Velocity":18,"Duration":2336904,"SoundDuration":2336904,"Delta":543773322},{"NoteNumber":45,"Velocity":18,"Duration":2336904,"SoundDuration":2336904,"Delta":543773322},{"NoteNumber":50,"Velocity":22,"Duration":2336904,"SoundDuration":2336904,"Delta":543773322}],"license":{"name":"Creative Commons Attribution-ShareAlike 3.0 Germany","url":"http://creativecommons.org/licenses/by-sa/3.0/de/deed.en","text":"The MIDI, audio (MP3, OGG) and video files of Bernd Krueger are licensed under the cc-by-sa Germany License. This means that you can use and adapt the files, as long as you attribute the copyright holder.\n\nName: Bernd Krueger\nSource: http://www.piano-midi.de\n\nThe distribution or public playback of the files is only allowed under identical license conditions.\n\nThe scores are open source.","attribution":"MIDI files by Bernd Krueger (piano-midi.de)","attributionUrl":"http://www.piano-midi.de"}}