{"title":"Sonata D850, 1. movement","artist":"Schubert","durationMs":526000,"midiSha256":"c3ad1527e3db25eefc78a32a4b41362cd5d4d4bd2a78845652cd8e6692fcf816","midiObject":[{"NoteNumber":86,"Velocity":92,"Duration":829876,"SoundDuration":829876,"Delta":0},{"NoteNumber":81,"Velocity":78,"Duration":829876,"SoundDuration":829876,"Delta":0},{"NoteNumber":78,"Velocity":78,"Duration":829876,"SoundDuration":829876,"Delta":0},{"NoteNumber":74,"Velocity":78,"Duration":829876,"SoundDuration":829876,"Delta":0},{"NoteNumber":38,"Velocity":64,"Duration":829876,"SoundDuration":829876,"Delta":0},{"NoteNumber":50,"Velocity":75,"Duration":829876,"SoundDuration":829876,"Delta":0},{"NoteNumber":57,"Velocity":56,"Duration":85714,"SoundDuration":85714,"Delta":829876},{"NoteNumber":62,"Velocity":66,"Duration":85714,"SoundDuration":85714,"Delta":829876},{"NoteNumber":42,"Velocity":45,"Duration":85714,"SoundDuration":85714,"Delta":829876},{"NoteNumber":50,"Velocity":53,"Duration":85714,"SoundDuration":85714,"Delta":829876},{"NoteNumber":57,"Velocity":51,"Duration":85714,"SoundDuration":85714,"Delta":1001304},{"NoteNumber":62,"Velocity":61,"Duration":85714,"SoundDuration":85714,"Delta":1001304},{"NoteNumber":42,"Velocity":40,"Duration":85714,"SoundDuration":85714,"Delta":1001304},{"NoteNumber":50,"Velocity":48,"Duration":85714,"SoundDuration":85714,"Delta":1001304},{"NoteNumber":57,"Velocity":56,"Duration":83333,"SoundDuration":83333,"Delta":1172733},{"NoteNumber":62,"Velocity":66,"Duration":83333,"SoundDuration":83333,"Delta":1172733},{"NoteNumber":42,"Velocity":45,"Duration":83333,"SoundDuration":83333,"Delta":1172733},{"NoteNumber":50,"Velocity":53,"Duration":83333,"SoundDuration":83333,"Delta":1172733},{"NoteNumber":57,"Velocity":51,"Duration":103377,"SoundDuration":103377,"Delta":1339399},{"NoteNumber":62,"Velocity":60,"Duration":103377,"SoundDuration":103377,"Delta":1339399},{"NoteNumber":42,"Velocity":40,"Duration":103377,"SoundDuration":103377,"Delta":1339399},{"NoteNumber":50,"Velocity":48,"Duration":103377,"SoundDuration":103377,"Delta":1339399},{"NoteNumber":57,"Velocity":62,"Duration":367872,"SoundDuration":367872,"Delta":1546153},{"NoteNumber":62,"Velocity":73,"Duration":551808,"SoundDuration":551808,"Delta":1546153},{"NoteNumber":42,"Velocity":49,"Duration":367872,"SoundDuration":367872,"Delta":1546153},{"NoteNumber":50,"Velocity":58,"Duration":551808,"SoundDuration":551808,"Delta":1546153},{"NoteNumber":59,"Velocity":53,"Duration":183936,"SoundDuration":183936,"Delta":1914025},{"NoteNumber":64,"Velocity":63,"Duration":183936,"SoundDuration":183936,"Delta":1914025},{"NoteNumber":43,"Velocity":45,"Duration":183936,"SoundDuration":183936,"Delta":1914025},{"NoteNumber":52,"Velocity":54,"Duration":183936,"SoundDuration":183936,"Delta":1914025},{"NoteNumber":60,"Velocity":56,"Duration":85227,"SoundDuration":85227,"Delta":2281897},{"NoteNumber":62,"Velocity":56,"Duration":85227,"SoundDuration":85227,"Delta":2281897},{"NoteNumber":66,"Velocity":66,"Duration":85227,"SoundDuration":85227,"Delta":2281897},{"NoteNumber":45,"Velocity":45,"Duration":85227,"SoundDuration":85227,"Delta":2281897},{"NoteNumber":50,"Velocity":45,"Duration":85227,"SoundDuration":85227,"Delta":2281897},{"NoteNumber":54,"Velocity":53,"Duration":85227,"SoundDuration":85227,"Delta":2281897},{"NoteNumber":60,"Velocity":51,"Duration":85227,"SoundDuration":85227,"Delta":2452352},{"NoteNumber":62,"Velocity":51,"Duration":85227,"SoundDuration":85227,"Delta":2452352},{"NoteNumber":66,"Velocity":61,"Duration":85227,"SoundDuration":85227,"Delta":2452352},{"NoteNumber":45,"Velocity":40,"Duration":85227,"SoundDuration":85227,"Delta":2452352},{"NoteNumber":50,"Velocity":40,"Duration":85227,"SoundDuration":85227,"Delta":2452352},{"NoteNumber":54,"Velocity":48,"Duration":85227,"SoundDuration":85227,"Delta":2452352},{"NoteNumber":60,"Velocity":56,"Duration":83333,"SoundDuration":83333,"Delta":2622806},{"NoteNumber":62,"Velocity":56,"Duration":83333,"SoundDuration":83333,"Delta":2622806},{"NoteNumber":66,"Velocity":66,"Duration":83333,"SoundDuration":83333,"Delta":2622806},{"NoteNumber":45,"Velocity":45,"Duration":83333,"SoundDuration":83333,"Delta":2622806},{"NoteNumber":50,"Velocity":45,"Duration":83333,"SoundDuration":83333,"Delta":2622806},{"NoteNumber":54,"Velocity":53,"Duration":83333,"SoundDuration":83333,"Delta":2622806},{"NoteNumber":60,"Velocity":51,"Duration":104094,"SoundDuration":104094,"Delta":2789473},{"NoteNumber":62,"Velocity":51,"Duration":104094,"SoundDuration":104094,"Delta":2789473},{"NoteNumber":66,"Velocity":60,"Duration":104094,"SoundDuration":104094,"Delta":2789473},{"NoteNumber":45,"Velocity":40,"Duration":104094,"SoundDuration":104094,"Delta":2789473},{"NoteNumber":50,"Velocity":40,"Duration":104094,"SoundDuration":104094,"Delta":2789473},{"NoteNumber":54,"Velocity":48,"Duration":104094,"SoundDuration":104094,"Delta":2789473},{"NoteNumber":60,"Velocity":62,"Duration":377120,"SoundDuration":377120,"Delta":2997662},{"NoteNumber":62,"Velocity":62,"Duration":565681,"SoundDuration":565681,"Delta":2997662},{"NoteNumber":66,"Velocity":73,"Duration":377120,"SoundDuration":377120,"Delta":2997662},{"NoteNumber":50,"Velocity":49,"Duration":565681,"SoundDuration":565681,"Delta":2997662},{"NoteNumber":45,"Velocity":49,"Duration":377120,"SoundDuration":377120,"Delta":2997662},{"NoteNumber":54,"Velocity":58,"Duration":377120,"SoundDuration":377120,"Delta":2997662},{"NoteNumber":59,"Velocity":53,"Duration":188560,"SoundDuration":188560,"Delta":3374783},{"NoteNumber":67,"Velocity":63,"Duration":188560,"SoundDuration":188560,"Delta":3374783},{"NoteNumber":47,"Velocity":45,"Duration":188560,"SoundDuration":188560,"Delta":3374783},{"NoteNumber":55,"Velocity":54,"Duration":188560,"SoundDuration":188560,"Delta":3374783},{"NoteNumber":64,"Velocity":57,"Duration":177935,"SoundDuration":177935,"Delta":3563343},{"NoteNumber":52,"Velocity":46,"Duration":177935,"SoundDuration":177935,"Delta":3563343},{"NoteNumber":67,"Velocity":63,"Duration":114794,"SoundDuration":114794,"Delta":3741279},{"NoteNumber":55,"Velocity":54,"Duration":114794,"SoundDuration":114794,"Delta":3741279},{"NoteNumber":66,"Velocity":57,"Duration":114547,"SoundDuration":114547,"Delta":3856073},{"NoteNumber":54,"Velocity":47,"Duration":114547,"SoundDuration":114547,"Delta":3856073},{"NoteNumber":64,"Velocity":57,"Duration":114547,"SoundDuration":114547,"Delta":3970621},{"NoteNumber":52,"Velocity":48,"Duration":114547,"SoundDuration":114547,"Delta":3970621},{"NoteNumber":70,"Velocity":63,"Duration":112612,"SoundDuration":112612,"Delta":4085169},{"NoteNumber":58,"Velocity":54,"Duration":112612,"SoundDuration":112612,"Delta":4085169},{"NoteNumber":69,"Velocity":58,"Duration":112612,"SoundDuration":112612,"Delta":4197781},{"NoteNumber":57,"Velocity":49,"Duration":112612,"SoundDuration":112612,"Delta":4197781},{"NoteNumber":67,"Velocity":58,"Duration":131492,"SoundDuration":131492,"Delta":4310394},{"NoteNumber":55,"Velocity":49,"Duration":131492,"SoundDuration":131492,"Delta":4310394},{"NoteNumber":69,"Velocity":63,"Duration":176366,"SoundDuration":176366,"Delta":4441886},{"NoteNumber":57,"Velocity":54,"Duration":176366,"SoundDuration":176366,"Delta":4441886},{"NoteNumber":78,"Velocity":56,"Duration":115540,"SoundDuration":115540,"Delta":4794620},{"NoteNumber":62,"Velocity":42,"Duration":115540,"SoundDuration":115540,"Delta":4794620},{"NoteNumber":76,"Velocity":46,"Duration":115540,"SoundDuration":115540,"Delta":4910160},{"NoteNumber":64,"Velocity":35,"Duration":115540,"SoundDuration":115540,"Delta":4910160},{"NoteNumber":74,"Velocity":46,"Duration":115539,"SoundDuration":115539,"Delta":5025700},{"NoteNumber":66,"Velocity":35,"Duration":115539,"SoundDuration":115539,"Delta":5025700},{"NoteNumber":81,"Velocity":57,"Duration":113895,"SoundDuration":113895,"Delta":5141240},{"NoteNumber":57,"Velocity":43,"Duration":113895,"SoundDuration":113895,"Delta":5141240},{"NoteNumber":79,"Velocity":47,"Duration":113895,"SoundDuration":113895,"Delta":5255136},{"NoteNumber":61,"Velocity":36,"Duration":113895,"SoundDuration":113895,"Delta":5255136},{"NoteNumber":78,"Velocity":47,"Duration":113895,"SoundDuration":113895,"Delta":5369031},{"NoteNumber":62,"Velocity":36,"Duration":113895,"SoundDuration":113895,"Delta":5369031},{"NoteNumber":76,"Velocity":58,"Duration":113895,"SoundDuration":113895,"Delta":5482926},{"NoteNumber":64,"Velocity":43,"Duration":113895,"SoundDuration":113895,"Delta":5482926},{"NoteNumber":74,"Velocity":50,"Duration":113895,"SoundDuration":113895,"Delta":5596822},{"NoteNumber":66,"Velocity":37,"Duration":113895,"SoundDuration":113895,"Delta":5596822},{"NoteNumber":73,"Velocity":50,"Duration":154918,"SoundDuration":154918,"Delta":5710717},{"NoteNumber":67,"Velocity":37,"Duration":154918,"SoundDuration":154918,"Delta":5710717},{"NoteNumber":86,"Velocity":92,"Duration":818553,"SoundDuration":818553,"Delta":5865636},{"NoteNumber":81,"Velocity":78,"Duration":818553,"SoundDuration":818553,"Delta":5865636},{"NoteNumber":77,"Velocity":78,"Duration":818553,"SoundDuration":818553,"Delta":5865636},{"NoteNumber":74,"Velocity":78,"Duration":818553,"SoundDuration":818553,"Delta":5865636},{"NoteNumber":38,"Velocity":64,"Duration":818553,"SoundDuration":818553,"Delta":5865636},{"NoteNumber":50,"Velocity":75,"Duration":818553,"SoundDuration":818553,"Delta":5865636},{"NoteNumber":57,"Velocity":56,"Duration":85469,"SoundDuration":85469,"Delta":6684190},{"NoteNumber":62,"Velocity":66,"Duration":85469,"SoundDuration":85469,"Delta":6684190},{"NoteNumber":41,"Velocity":45,"Duration":85469,"SoundDuration":85469,"Delta":6684190},{"NoteNumber":50,"Velocity":53,"Duration":85469,"SoundDuration":85469,"Delta":6684190},{"NoteNumber":57,"Velocity":51,"Duration":85469,"SoundDuration":85469,"Delta":6855130},{"NoteNumber":62,"Velocity":61,"Duration":85469,"SoundDuration":85469,"Delta":6855130},{"NoteNumber":41,"Velocity":40,"Duration":85469,"SoundDuration":85469,"Delta":6855130},{"NoteNumber":50,"Velocity":48,"Duration":85469,"SoundDuration":85469,"Delta":6855130},{"NoteNumber":57,"Velocity":56,"Duration":83565,"SoundDuration":83565,"Delta":7026070},{"NoteNumber":62,"Velocity":66,"Duration":83565,"SoundDuration":83565,"Delta":7026070},{"NoteNumber":41,"Velocity":45,"Duration":83565,"SoundDuration":83565,"Delta":7026070},{"NoteNumber":50,"Velocity":53,"Duration":83565,"SoundDuration":83565,"Delta":7026070},{"NoteNumber":57,"Velocity":51,"Duration":103377,"SoundDuration":103377,"Delta":7193201},{"NoteNumber":62,"Velocity":60,"Duration":103377,"SoundDuration":103377,"Delta":7193201},{"NoteNumber":41,"Velocity":40,"Duration":103377,"SoundDuration":103377,"Delta":7193201},{"NoteNumber":50,"Velocity":48,"Duration":103377,"SoundDuration":103377,"Delta":7193201},{"NoteNumber":57,"Velocity":62,"Duration":370428,"SoundDuration":370428,"Delta":7399955},{"NoteNumber":62,"Velocity":73,"Duration":555499,"SoundDuration":555499,"Delta":7399955},{"NoteNumber":41,"Velocity":49,"Duration":370428,"SoundDuration":370428,"Delta":7399955},{"NoteNumber":50,"Velocity":58,"Duration":555499,"SoundDuration":555499,"Delta":7399955},{"NoteNumber":58,"Velocity":53,"Duration":185070,"SoundDuration":185070,"Delta":7770383},{"NoteNumber":64,"Velocity":63,"Duration":185070,"SoundDuration":185070,"Delta":7770383},{"NoteNumber":43,"Velocity":45,"Duration":185070,"SoundDuration":185070,"Delta":7770383},{"NoteNumber":52,"Velocity":54,"Duration":185070,"SoundDuration":185070,"Delta":7770383},{"NoteNumber":60,"Velocity":56,"Duration":86455,"SoundDuration":86455,"Delta":8140525},{"NoteNumber":62,"Velocity":56,"Duration":86455,"SoundDuration":86455,"Delta":8140525},{"NoteNumber":66,"Velocity":66,"Duration":86455,"SoundDuration":86455,"Delta":8140525},{"NoteNumber":45,"Velocity":45,"Duration":86455,"SoundDuration":86455,"Delta":8140525},{"NoteNumber":50,"Velocity":45,"Duration":86455,"SoundDuration":86455,"Delta":8140525},{"NoteNumber":54,"Velocity":53,"Duration":86455,"SoundDuration":86455,"Delta":8140525},{"NoteNumber":60,"Velocity":51,"Duration":86455,"SoundDuration":86455,"Delta":8313435},{"NoteNumber":62,"Velocity":51,"Duration":86455,"SoundDuration":86455,"Delta":8313435},{"NoteNumber":66,"Velocity":61,"Duration":86455,"SoundDuration":86455,"Delta":8313435},{"NoteNumber":45,"Velocity":40,"Duration":86455,"SoundDuration":86455,"Delta":8313435},{"NoteNumber":50,"Velocity":40,"Duration":86455,"SoundDuration":86455,"Delta":8313435},{"NoteNumber":54,"Velocity":48,"Duration":86455,"SoundDuration":86455,"Delta":8313435},{"NoteNumber":60,"Velocity":56,"Duration":84507,"SoundDuration":84507,"Delta":8486346},{"NoteNumber":62,"Velocity":56,"Duration":84507,"SoundDuration":84507,"Delta":8486346},{"NoteNumber":66,"Velocity":66,"Duration":84507,"SoundDuration":84507,"Delta":8486346},{"NoteNumber":45,"Velocity":45,"Duration":84507,"SoundDuration":84507,"Delta":8486346},{"NoteNumber":50,"Velocity":45,"Duration":84507,"SoundDuration":84507,"Delta":8486346},{"NoteNumber":54,"Velocity":53,"Duration":84507,"SoundDuration":84507,"Delta":8486346},{"NoteNumber":60,"Velocity":51,"Duration":103377,"SoundDuration":103377,"Delta":8655360},{"NoteNumber":62,"Velocity":51,"Duration":103377,"SoundDuration":103377,"Delta":8655360},{"NoteNumber":66,"Velocity":60,"Duration":103377,"SoundDuration":103377,"Delta":8655360},{"NoteNumber":45,"Velocity":40,"Duration":103377,"SoundDuration":103377,"Delta":8655360},{"NoteNumber":50,"Velocity":40,"Duration":103377,"SoundDuration":103377,"Delta":8655360},{"NoteNumber":54,"Velocity":48,"Duration":103377,"SoundDuration":103377,"Delta":8655360},{"NoteNumber":60,"Velocity":62,"Duration":374765,"SoundDuration":374765,"Delta":8862114},{"NoteNumber":62,"Velocity":62,"Duration":562148,"SoundDuration":562148,"Delta":8862114},{"NoteNumber":66,"Velocity":73,"Duration":374765,"SoundDuration":374765,"Delta":8862114},{"NoteNumber":50,"Velocity":49,"Duration":562148,"SoundDuration":562148,"Delta":8862114},{"NoteNumber":45,"Velocity":49,"Duration":374765,"SoundDuration":374765,"Delta":8862114},{"NoteNumber":54,"Velocity":58,"Duration":374765,"SoundDuration":374765,"Delta":8862114},{"NoteNumber":58,"Velocity":53,"Duration":187383,"SoundDuration":187383,"Delta":9236880},{"NoteNumber":67,"Velocity":63,"Duration":187383,"SoundDuration":187383,"Delta":9236880},{"NoteNumber":46,"Velocity":45,"Duration":187383,"SoundDuration":187383,"Delta":9236880},{"NoteNumber":55,"Velocity":54,"Duration":187383,"SoundDuration":187383,"Delta":9236880},{"NoteNumber":65,"Velocity":56,"Duration":88183,"SoundDuration":88183,"Delta":9611646},{"NoteNumber":62,"Velocity":56,"Duration":88183,"SoundDuration":88183,"Delta":9611646},{"NoteNumber":68,"Velocity":66,"Duration":88183,"SoundDuration":88183,"Delta":9611646},{"NoteNumber":47,"Velocity":45,"Duration":88183,"SoundDuration":88183,"Delta":9611646},{"NoteNumber":53,"Velocity":45,"Duration":88183,"SoundDuration":88183,"Delta":9611646},{"NoteNumber":56,"Velocity":53,"Duration":88183,"SoundDuration":88183,"Delta":9611646},{"NoteNumber":65,"Velocity":51,"Duration":88183,"SoundDuration":88183,"Delta":9788013},{"NoteNumber":62,"Velocity":51,"Duration":88183,"SoundDuration":88183,"Delta":9788013},{"NoteNumber":68,"Velocity":61,"Duration":88183,"SoundDuration":88183,"Delta":9788013},{"NoteNumber":47,"Velocity":40,"Duration":88183,"SoundDuration":88183,"Delta":9788013},{"NoteNumber":53,"Velocity":40,"Duration":88183,"SoundDuration":88183,"Delta":9788013},{"NoteNumber":56,"Velocity":48,"Duration":88183,"SoundDuration":88183,"Delta":9788013},{"NoteNumber":65,"Velocity":56,"Duration":86206,"SoundDuration":86206,"Delta":9964380},{"NoteNumber":62,"Velocity":56,"Duration":86206,"SoundDuration":86206,"Delta":9964380},{"NoteNumber":68,"Velocity":66,"Duration":86206,"SoundDuration":86206,"Delta":9964380},{"NoteNumber":47,"Velocity":45,"Duration":86206,"SoundDuration":86206,"Delta":9964380},{"NoteNumber":53,"Velocity":45,"Duration":86206,"SoundDuration":86206,"Delta":9964380},{"NoteNumber":56,"Velocity":53,"Duration":86206,"SoundDuration":86206,"Delta":9964380},{"NoteNumber":65,"Velocity":51,"Duration":113207,"SoundDuration":113207,"Delta":10136794},{"NoteNumber":62,"Velocity":51,"Duration":113207,"SoundDuration":113207,"Delta":10136794},{"NoteNumber":68,"Velocity":60,"Duration":113207,"SoundDuration":113207,"Delta":10136794},{"NoteNumber":47,"Velocity":40,"Duration":113207,"SoundDuration":113207,"Delta":10136794},{"NoteNumber":53,"Velocity":40,"Duration":113207,"SoundDuration":113207,"Delta":10136794},{"NoteNumber":56,"Velocity":48,"Duration":113207,"SoundDuration":113207,"Delta":10136794},{"NoteNumber":60,"Velocity":62,"Duration":375939,"SoundDuration":375939,"Delta":10363209},{"NoteNumber":65,"Velocity":62,"Duration":375939,"SoundDuration":375939,"Delta":10363209},{"NoteNumber":69,"Velocity":73,"Duration":375939,"SoundDuration":375939,"Delta":10363209},{"NoteNumber":53,"Velocity":49,"Duration":720570,"SoundDuration":720570,"Delta":10363209},{"NoteNumber":48,"Velocity":49,"Duration":720570,"SoundDuration":720570,"Delta":10363209},{"NoteNumber":57,"Velocity":58,"Duration":720570,"SoundDuration":720570,"Delta":10363209},{"NoteNumber":72,"Velocity":56,"Duration":114876,"SoundDuration":114876,"Delta":10739149},{"NoteNumber":70,"Velocity":46,"Duration":114876,"SoundDuration":114876,"Delta":10854026},{"NoteNumber":69,"Velocity":46,"Duration":114876,"SoundDuration":114876,"Delta":10968902},{"NoteNumber":67,"Velocity":57,"Duration":113571,"SoundDuration":113571,"Delta":11083779},{"NoteNumber":48,"Velocity":43,"Duration":85179,"SoundDuration":85179,"Delta":11083779},{"NoteNumber":65,"Velocity":47,"Duration":113572,"SoundDuration":113572,"Delta":11197351},{"NoteNumber":48,"Velocity":36,"Duration":85179,"SoundDuration":85179,"Delta":11254137},{"NoteNumber":64,"Velocity":47,"Duration":113571,"SoundDuration":113571,"Delta":11310923},{"NoteNumber":62,"Velocity":55,"Duration":112044,"SoundDuration":112044,"Delta":11424495},{"NoteNumber":48,"Velocity":43,"Duration":84033,"SoundDuration":84033,"Delta":11424495},{"NoteNumber":60,"Velocity":47,"Duration":112044,"SoundDuration":112044,"Delta":11536540},{"NoteNumber":48,"Velocity":37,"Duration":84033,"SoundDuration":84033,"Delta":11592562},{"NoteNumber":58,"Velocity":47,"Duration":112044,"SoundDuration":112044,"Delta":11648584},{"NoteNumber":57,"Velocity":53,"Duration":112994,"SoundDuration":112994,"Delta":11760629},{"NoteNumber":48,"Velocity":43,"Duration":370288,"SoundDuration":370288,"Delta":11760629},{"NoteNumber":58,"Velocity":46,"Duration":112994,"SoundDuration":112994,"Delta":11873623},{"NoteNumber":60,"Velocity":46,"Duration":144300,"SoundDuration":144300,"Delta":11986618},{"NoteNumber":72,"Velocity":56,"Duration":114876,"SoundDuration":114876,"Delta":12130918},{"NoteNumber":45,"Velocity":43,"Duration":172314,"SoundDuration":172314,"Delta":12130918},{"NoteNumber":70,"Velocity":46,"Duration":114876,"SoundDuration":114876,"Delta":12245794},{"NoteNumber":69,"Velocity":46,"Duration":114876,"SoundDuration":114876,"Delta":12360671},{"NoteNumber":48,"Velocity":43,"Duration":85008,"SoundDuration":85008,"Delta":12470522},{"NoteNumber":67,"Velocity":57,"Duration":113250,"SoundDuration":113250,"Delta":12475548},{"NoteNumber":65,"Velocity":47,"Duration":113250,"SoundDuration":113250,"Delta":12588798},{"NoteNumber":48,"Velocity":36,"Duration":84937,"SoundDuration":84937,"Delta":12640468},{"NoteNumber":64,"Velocity":47,"Duration":113250,"SoundDuration":113250,"Delta":12702048},{"NoteNumber":48,"Velocity":43,"Duration":83865,"SoundDuration":83865,"Delta":12810344},{"NoteNumber":62,"Velocity":55,"Duration":111731,"SoundDuration":111731,"Delta":12815299},{"NoteNumber":60,"Velocity":47,"Duration":111731,"SoundDuration":111731,"Delta":12927031},{"NoteNumber":48,"Velocity":37,"Duration":83799,"SoundDuration":83799,"Delta":12978008},{"NoteNumber":58,"Velocity":47,"Duration":111731,"SoundDuration":111731,"Delta":13038763},{"NoteNumber":57,"Velocity":53,"Duration":113314,"SoundDuration":113314,"Delta":13150495},{"NoteNumber":48,"Velocity":43,"Duration":350009,"SoundDuration":350009,"Delta":13150495},{"NoteNumber":58,"Velocity":46,"Duration":113314,"SoundDuration":113314,"Delta":13263809},{"NoteNumber":60,"Velocity":40,"Duration":123380,"SoundDuration":123380,"Delta":13377123},{"NoteNumber":57,"Velocity":45,"Duration":121138,"SoundDuration":121138,"Delta":13500504},{"NoteNumber":58,"Velocity":39,"Duration":121138,"SoundDuration":121138,"Delta":13621643},{"NoteNumber":60,"Velocity":36,"Duration":121138,"SoundDuration":121138,"Delta":13742781},{"NoteNumber":57,"Velocity":47,"Duration":133252,"SoundDuration":133252,"Delta":13863920},{"NoteNumber":53,"Velocity":38,"Duration":133252,"SoundDuration":133252,"Delta":13863920},{"NoteNumber":58,"Velocity":42,"Duration":133252,"SoundDuration":133252,"Delta":13985059},{"NoteNumber":55,"Velocity":34,"Duration":133252,"SoundDuration":133252,"Delta":13985059},{"NoteNumber":60,"Velocity":43,"Duration":121138,"SoundDuration":121138,"Delta":14106197},{"NoteNumber":57,"Velocity":31,"Duration":121138,"SoundDuration":121138,"Delta":14106197},{"NoteNumber":57,"Velocity":50,"Duration":131264,"SoundDuration":131264,"Delta":14227336},{"NoteNumber":45,"Velocity":42,"Duration":131264,"SoundDuration":131264,"Delta":14227336},{"NoteNumber":58,"Velocity":45,"Duration":131264,"SoundDuration":131264,"Delta":14346668},{"NoteNumber":46,"Velocity":36,"Duration":131264,"SoundDuration":131264,"Delta":14346668},{"NoteNumber":60,"Velocity":41,"Duration":119331,"SoundDuration":119331,"Delta":14465999},{"NoteNumber":48,"Velocity":34,"Duration":119331,"SoundDuration":119331,"Delta":14465999},{"NoteNumber":57,"Velocity":54,"Duration":130486,"SoundDuration":130486,"Delta":14585331},{"NoteNumber":41,"Velocity":43,"Duration":130486,"SoundDuration":130486,"Delta":14585331},{"NoteNumber":58,"Velocity":47,"Duration":130486,"SoundDuration":130486,"Delta":14703955},{"NoteNumber":43,"Velocity":37,"Duration":130486,"SoundDuration":130486,"Delta":14703955},{"NoteNumber":60,"Velocity":43,"Duration":118624,"SoundDuration":118624,"Delta":14822579},{"NoteNumber":45,"Velocity":34,"Duration":118624,"SoundDuration":118624,"Delta":14822579},{"NoteNumber":57,"Velocity":56,"Duration":128279,"SoundDuration":128279,"Delta":14941203},{"NoteNumber":33,"Velocity":46,"Duration":128279,"SoundDuration":128279,"Delta":14941203},{"NoteNumber":58,"Velocity":50,"Duration":128279,"SoundDuration":128279,"Delta":15057821},{"NoteNumber":34,"Velocity":40,"Duration":128279,"SoundDuration":128279,"Delta":15057821},{"NoteNumber":60,"Velocity":46,"Duration":116618,"SoundDuration":116618,"Delta":15174439},{"NoteNumber":36,"Velocity":37,"Duration":116618,"SoundDuration":116618,"Delta":15174439},{"NoteNumber":57,"Velocity":59,"Duration":126074,"SoundDuration":126074,"Delta":15291057},{"NoteNumber":33,"Velocity":56,"Duration":126074,"SoundDuration":126074,"Delta":15291057},{"NoteNumber":58,"Velocity":52,"Duration":126074,"SoundDuration":126074,"Delta":15405670},{"NoteNumber":34,"Velocity":50,"Duration":126074,"SoundDuration":126074,"Delta":15405670},{"NoteNumber":60,"Velocity":46,"Duration":114613,"SoundDuration":114613,"Delta":15520284},{"NoteNumber":36,"Velocity":47,"Duration":114613,"SoundDuration":114613,"Delta":15520284},{"NoteNumber":57,"Velocity":63,"Duration":123595,"SoundDuration":123595,"Delta":15634897},{"NoteNumber":33,"Velocity":60,"Duration":123595,"SoundDuration":123595,"Delta":15634897},{"NoteNumber":58,"Velocity":55,"Duration":127511,"SoundDuration":127511,"Delta":15747257},{"NoteNumber":34,"Velocity":54,"Duration":127511,"SoundDuration":127511,"Delta":15747257},{"NoteNumber":60,"Velocity":47,"Duration":151515,"SoundDuration":151515,"Delta":15859616},{"NoteNumber":36,"Velocity":50,"Duration":151515,"SoundDuration":151515,"Delta":15859616},{"NoteNumber":53,"Velocity":54,"Duration":724637,"SoundDuration":724637,"Delta":16011131},{"NoteNumber":56,"Velocity":54,"Duration":724637,"SoundDuration":724637,"Delta":16011131},{"NoteNumber":61,"Velocity":70,"Duration":724637,"SoundDuration":724637,"Delta":16011131},{"NoteNumber":37,"Velocity":70,"Duration":90579,"SoundDuration":90579,"Delta":16011131},{"NoteNumber":37,"Velocity":35,"Duration":90579,"SoundDuration":90579,"Delta":16195310},{"NoteNumber":37,"Velocity":35,"Duration":90579,"SoundDuration":90579,"Delta":16373450},{"NoteNumber":37,"Velocity":35,"Duration":90579,"SoundDuration":90579,"Delta":16554610},{"NoteNumber":56,"Velocity":37,"Duration":89498,"SoundDuration":89498,"Delta":16735769},{"NoteNumber":61,"Velocity":37,"Duration":89498,"SoundDuration":89498,"Delta":16735769},{"NoteNumber":65,"Velocity":44,"Duration":89498,"SoundDuration":89498,"Delta":16735769},{"NoteNumber":37,"Velocity":46,"Duration":722847,"SoundDuration":722847,"Delta":16735769},{"NoteNumber":56,"Velocity":33,"Duration":89498,"SoundDuration":89498,"Delta":16914767},{"NoteNumber":61,"Velocity":33,"Duration":89498,"SoundDuration":89498,"Delta":16914767},{"NoteNumber":65,"Velocity":39,"Duration":89498,"SoundDuration":89498,"Delta":16914767},{"NoteNumber":56,"Velocity":33,"Duration":89498,"SoundDuration":89498,"Delta":17093764},{"NoteNumber":61,"Velocity":33,"Duration":89498,"SoundDuration":89498,"Delta":17093764},{"NoteNumber":65,"Velocity":39,"Duration":89498,"SoundDuration":89498,"Delta":17093764},{"NoteNumber":56,"Velocity":33,"Duration":93603,"SoundDuration":93603,"Delta":17272762},{"NoteNumber":61,"Velocity":33,"Duration":93603,"SoundDuration":93603,"Delta":17272762},{"NoteNumber":65,"Velocity":39,"Duration":93603,"SoundDuration":93603,"Delta":17272762},{"NoteNumber":61,"Velocity":38,"Duration":711743,"SoundDuration":711743,"Delta":17458617},{"NoteNumber":65,"Velocity":38,"Duration":711743,"SoundDuration":711743,"Delta":17458617},{"NoteNumber":68,"Velocity":45,"Duration":711743,"SoundDuration":711743,"Delta":17458617},{"NoteNumber":49,"Velocity":44,"Duration":88968,"SoundDuration":88968,"Delta":17458617},{"NoteNumber":37,"Velocity":37,"Duration":88968,"SoundDuration":88968,"Delta":17458617},{"NoteNumber":49,"Velocity":35,"Duration":88968,"SoundDuration":88968,"Delta":17636553},{"NoteNumber":37,"Velocity":29,"Duration":88968,"SoundDuration":88968,"Delta":17639518},{"NoteNumber":37,"Velocity":29,"Duration":88967,"SoundDuration":88967,"Delta":17814489},{"NoteNumber":49,"Velocity":35,"Duration":88967,"SoundDuration":88967,"Delta":17814489},{"NoteNumber":49,"Velocity":35,"Duration":88968,"SoundDuration":88968,"Delta":17992425},{"NoteNumber":37,"Velocity":29,"Duration":88968,"SoundDuration":88968,"Delta":17992425},{"NoteNumber":68,"Velocity":46,"Duration":87158,"SoundDuration":87158,"Delta":18170361},{"NoteNumber":65,"Velocity":44,"Duration":87158,"SoundDuration":87158,"Delta":18170361},{"NoteNumber":73,"Velocity":52,"Duration":87158,"SoundDuration":87158,"Delta":18170361},{"NoteNumber":49,"Velocity":55,"Duration":711513,"SoundDuration":711513,"Delta":18170361},{"NoteNumber":37,"Velocity":46,"Duration":711513,"SoundDuration":711513,"Delta":18170361},{"NoteNumber":65,"Velocity":39,"Duration":87158,"SoundDuration":87158,"Delta":18344678},{"NoteNumber":68,"Velocity":39,"Duration":87158,"SoundDuration":87158,"Delta":18344678},{"NoteNumber":73,"Velocity":46,"Duration":87158,"SoundDuration":87158,"Delta":18344678},{"NoteNumber":65,"Velocity":39,"Duration":87158,"SoundDuration":87158,"Delta":18518996},{"NoteNumber":68,"Velocity":39,"Duration":87158,"SoundDuration":87158,"Delta":18518996},{"NoteNumber":73,"Velocity":46,"Duration":87158,"SoundDuration":87158,"Delta":18518996},{"NoteNumber":65,"Velocity":39,"Duration":94280,"SoundDuration":94280,"Delta":18693313},{"NoteNumber":68,"Velocity":39,"Duration":94280,"SoundDuration":94280,"Delta":18693313},{"NoteNumber":73,"Velocity":46,"Duration":94280,"SoundDuration":94280,"Delta":18693313},{"NoteNumber":64,"Velocity":52,"Duration":705467,"SoundDuration":705467,"Delta":18881874},{"NoteNumber":67,"Velocity":52,"Duration":705467,"SoundDuration":705467,"Delta":18881874},{"NoteNumber":69,"Velocity":52,"Duration":705467,"SoundDuration":705467,"Delta":18881874},{"NoteNumber":73,"Velocity":62,"Duration":705467,"SoundDuration":705467,"Delta":18881874},{"NoteNumber":45,"Velocity":61,"Duration":88183,"SoundDuration":88183,"Delta":18881874},{"NoteNumber":33,"Velocity":51,"Duration":88183,"SoundDuration":88183,"Delta":18881874},{"NoteNumber":33,"Velocity":39,"Duration":88183,"SoundDuration":88183,"Delta":19058241},{"NoteNumber":45,"Velocity":48,"Duration":88183,"SoundDuration":88183,"Delta":19058241},{"NoteNumber":33,"Velocity":39,"Duration":88183,"SoundDuration":88183,"Delta":19234608},{"NoteNumber":45,"Velocity":48,"Duration":88183,"SoundDuration":88183,"Delta":19234608},{"NoteNumber":45,"Velocity":49,"Duration":88183,"SoundDuration":88183,"Delta":19410975},{"NoteNumber":33,"Velocity":39,"Duration":88183,"SoundDuration":88183,"Delta":19410975},{"NoteNumber":67,"Velocity":55,"Duration":87158,"SoundDuration":87158,"Delta":19587342},{"NoteNumber":73,"Velocity":58,"Duration":87158,"SoundDuration":87158,"Delta":19587342},{"NoteNumber":69,"Velocity":55,"Duration":87158,"SoundDuration":87158,"Delta":19587342},{"NoteNumber":76,"Velocity":66,"Duration":87158,"SoundDuration":87158,"Delta":19587342},{"NoteNumber":45,"Velocity":68,"Duration":711513,"SoundDuration":711513,"Delta":19587342},{"NoteNumber":33,"Velocity":58,"Duration":711513,"SoundDuration":711513,"Delta":19587342},{"NoteNumber":67,"Velocity":49,"Duration":87158,"SoundDuration":87158,"Delta":19761659},{"NoteNumber":69,"Velocity":49,"Duration":87158,"SoundDuration":87158,"Delta":19761659},{"NoteNumber":73,"Velocity":49,"Duration":87158,"SoundDuration":87158,"Delta":19761659},{"NoteNumber":76,"Velocity":58,"Duration":87158,"SoundDuration":87158,"Delta":19761659},{"NoteNumber":67,"Velocity":50,"Duration":87158,"SoundDuration":87158,"Delta":19935977},{"NoteNumber":69,"Velocity":50,"Duration":87158,"SoundDuration":87158,"Delta":19935977},{"NoteNumber":73,"Velocity":50,"Duration":87158,"SoundDuration":87158,"Delta":19935977},{"NoteNumber":76,"Velocity":58,"Duration":87158,"SoundDuration":87158,"Delta":19935977},{"NoteNumber":67,"Velocity":50,"Duration":94280,"SoundDuration":94280,"Delta":20110294},{"NoteNumber":69,"Velocity":50,"Duration":94280,"SoundDuration":94280,"Delta":20110294},{"NoteNumber":73,"Velocity":50,"Duration":94280,"SoundDuration":94280,"Delta":20110294},{"NoteNumber":76,"Velocity":59,"Duration":94280,"SoundDuration":94280,"Delta":20110294},{"NoteNumber":69,"Velocity":67,"Duration":711743,"SoundDuration":711743,"Delta":20298855},{"NoteNumber":73,"Velocity":67,"Duration":711743,"SoundDuration":711743,"Delta":20298855},{"NoteNumber":76,"Velocity":67,"Duration":711743,"SoundDuration":711743,"Delta":20298855},{"NoteNumber":79,"Velocity":67,"Duration":711743,"SoundDuration":711743,"Delta":20298855},{"NoteNumber":81,"Velocity":79,"Duration":711743,"SoundDuration":711743,"Delta":20298855},{"NoteNumber":45,"Velocity":78,"Duration":88968,"SoundDuration":88968,"Delta":20298855},{"NoteNumber":33,"Velocity":64,"Duration":88968,"SoundDuration":88968,"Delta":20298855},{"NoteNumber":33,"Velocity":51,"Duration":88968,"SoundDuration":88968,"Delta":20476791},{"NoteNumber":45,"Velocity":62,"Duration":88968,"SoundDuration":88968,"Delta":20476791},{"NoteNumber":33,"Velocity":52,"Duration":88967,"SoundDuration":88967,"Delta":20654727},{"NoteNumber":45,"Velocity":64,"Duration":88967,"SoundDuration":88967,"Delta":20654727},{"NoteNumber":45,"Velocity":67,"Duration":88968,"SoundDuration":88968,"Delta":20832663},{"NoteNumber":33,"Velocity":55,"Duration":88968,"SoundDuration":88968,"Delta":20832663},{"NoteNumber":76,"Velocity":75,"Duration":90579,"SoundDuration":90579,"Delta":21010599},{"NoteNumber":81,"Velocity":79,"Duration":90579,"SoundDuration":90579,"Delta":21010599},{"NoteNumber":79,"Velocity":75,"Duration":90579,"SoundDuration":90579,"Delta":21010599},{"NoteNumber":85,"Velocity":90,"Duration":90579,"SoundDuration":90579,"Delta":21010599},{"NoteNumber":45,"Velocity":94,"Duration":742606,"SoundDuration":742606,"Delta":21010599},{"NoteNumber":33,"Velocity":79,"Duration":742606,"SoundDuration":742606,"Delta":21010599},{"NoteNumber":76,"Velocity":69,"Duration":90579,"SoundDuration":90579,"Delta":21191758},{"NoteNumber":79,"Velocity":69,"Duration":90579,"SoundDuration":90579,"Delta":21191758},{"NoteNumber":81,"Velocity":69,"Duration":90579,"SoundDuration":90579,"Delta":21191758},{"NoteNumber":85,"Velocity":81,"Duration":90579,"SoundDuration":90579,"Delta":21191758},{"NoteNumber":76,"Velocity":72,"Duration":92535,"SoundDuration":92535,"Delta":21372918},{"NoteNumber":79,"Velocity":72,"Duration":92535,"SoundDuration":92535,"Delta":21372918},{"NoteNumber":81,"Velocity":72,"Duration":92535,"SoundDuration":92535,"Delta":21372918},{"NoteNumber":85,"Velocity":84,"Duration":92535,"SoundDuration":92535,"Delta":21372918},{"NoteNumber":76,"Velocity":75,"Duration":95944,"SoundDuration":95944,"Delta":21557989},{"NoteNumber":79,"Velocity":75,"Duration":95944,"SoundDuration":95944,"Delta":21557989},{"NoteNumber":81,"Velocity":75,"Duration":95944,"SoundDuration":95944,"Delta":21557989},{"NoteNumber":85,"Velocity":87,"Duration":95944,"SoundDuration":95944,"Delta":21557989},{"NoteNumber":86,"Velocity":105,"Duration":829875,"SoundDuration":829875,"Delta":21753205},{"NoteNumber":81,"Velocity":89,"Duration":829875,"SoundDuration":829875,"Delta":21753205},{"NoteNumber":78,"Velocity":89,"Duration":829875,"SoundDuration":829875,"Delta":21753205},{"NoteNumber":74,"Velocity":89,"Duration":829875,"SoundDuration":829875,"Delta":21753205},{"NoteNumber":45,"Velocity":73,"Duration":829875,"SoundDuration":829875,"Delta":21753205},{"NoteNumber":42,"Velocity":73,"Duration":829875,"SoundDuration":829875,"Delta":21753205},{"NoteNumber":38,"Velocity":73,"Duration":829875,"SoundDuration":829875,"Delta":21753205},{"NoteNumber":50,"Velocity":86,"Duration":829875,"SoundDuration":829875,"Delta":21753205},{"NoteNumber":57,"Velocity":54,"Duration":84985,"SoundDuration":84985,"Delta":22583081},{"NoteNumber":62,"Velocity":63,"Duration":84985,"SoundDuration":84985,"Delta":22583081},{"NoteNumber":42,"Velocity":43,"Duration":84985,"SoundDuration":84985,"Delta":22583081},{"NoteNumber":50,"Velocity":51,"Duration":84985,"SoundDuration":84985,"Delta":22583081},{"NoteNumber":57,"Velocity":49,"Duration":84985,"SoundDuration":84985,"Delta":22753052},{"NoteNumber":62,"Velocity":59,"Duration":84985,"SoundDuration":84985,"Delta":22753052},{"NoteNumber":42,"Velocity":39,"Duration":84985,"SoundDuration":84985,"Delta":22753052},{"NoteNumber":50,"Velocity":46,"Duration":84985,"SoundDuration":84985,"Delta":22753052},{"NoteNumber":57,"Velocity":54,"Duration":83102,"SoundDuration":83102,"Delta":22923024},{"NoteNumber":62,"Velocity":63,"Duration":83102,"SoundDuration":83102,"Delta":22923024},{"NoteNumber":42,"Velocity":43,"Duration":83102,"SoundDuration":83102,"Delta":22923024},{"NoteNumber":50,"Velocity":51,"Duration":83102,"SoundDuration":83102,"Delta":22923024},{"NoteNumber":57,"Velocity":49,"Duration":103376,"SoundDuration":103376,"Delta":23089229},{"NoteNumber":62,"Velocity":58,"Duration":103376,"SoundDuration":103376,"Delta":23089229},{"NoteNumber":42,"Velocity":39,"Duration":103376,"SoundDuration":103376,"Delta":23089229},{"NoteNumber":50,"Velocity":46,"Duration":103376,"SoundDuration":103376,"Delta":23089229},{"NoteNumber":57,"Velocity":60,"Duration":367871,"SoundDuration":367871,"Delta":23295983},{"NoteNumber":62,"Velocity":70,"Duration":551808,"SoundDuration":551808,"Delta":23295983},{"NoteNumber":42,"Velocity":47,"Duration":367871,"SoundDuration":367871,"Delta":23295983},{"NoteNumber":50,"Velocity":56,"Duration":551808,"SoundDuration":551808,"Delta":23295983},{"NoteNumber":59,"Velocity":51,"Duration":183936,"SoundDuration":183936,"Delta":23663855},{"NoteNumber":64,"Velocity":61,"Duration":183936,"SoundDuration":183936,"Delta":23663855},{"NoteNumber":43,"Velocity":43,"Duration":183936,"SoundDuration":183936,"Delta":23663855},{"NoteNumber":52,"Velocity":52,"Duration":183936,"SoundDuration":183936,"Delta":23663855},{"NoteNumber":57,"Velocity":61,"Duration":112612,"SoundDuration":112612,"Delta":24031727},{"NoteNumber":45,"Velocity":53,"Duration":112612,"SoundDuration":112612,"Delta":24031727},{"NoteNumber":59,"Velocity":55,"Duration":112612,"SoundDuration":112612,"Delta":24144340},{"NoteNumber":47,"Velocity":48,"Duration":112612,"SoundDuration":112612,"Delta":24144340},{"NoteNumber":60,"Velocity":55,"Duration":112612,"SoundDuration":112612,"Delta":24256952},{"NoteNumber":48,"Velocity":48,"Duration":112612,"SoundDuration":112612,"Delta":24256952},{"NoteNumber":62,"Velocity":61,"Duration":108991,"SoundDuration":108991,"Delta":24369565},{"NoteNumber":50,"Velocity":53,"Duration":108991,"SoundDuration":108991,"Delta":24369565},{"NoteNumber":64,"Velocity":56,"Duration":108991,"SoundDuration":108991,"Delta":24478557},{"NoteNumber":52,"Velocity":49,"Duration":108991,"SoundDuration":108991,"Delta":24478557},{"NoteNumber":66,"Velocity":56,"Duration":140745,"SoundDuration":140745,"Delta":24587548},{"NoteNumber":54,"Velocity":48,"Duration":140745,"SoundDuration":140745,"Delta":24587548},{"NoteNumber":58,"Velocity":61,"Duration":174418,"SoundDuration":174418,"Delta":24728294},{"NoteNumber":46,"Velocity":53,"Duration":174418,"SoundDuration":174418,"Delta":24728294},{"NoteNumber":66,"Velocity":52,"Duration":174418,"SoundDuration":174418,"Delta":24902713},{"NoteNumber":54,"Velocity":49,"Duration":174418,"SoundDuration":174418,"Delta":24902713},{"NoteNumber":59,"Velocity":61,"Duration":174418,"SoundDuration":174418,"Delta":25077131},{"NoteNumber":47,"Velocity":53,"Duration":174418,"SoundDuration":174418,"Delta":25077131},{"NoteNumber":67,"Velocity":55,"Duration":199203,"SoundDuration":199203,"Delta":25251550},{"NoteNumber":55,"Velocity":48,"Duration":199203,"SoundDuration":199203,"Delta":25251550},{"NoteNumber":64,"Velocity":54,"Duration":85470,"SoundDuration":85470,"Delta":25450753},{"NoteNumber":67,"Velocity":54,"Duration":85470,"SoundDuration":85470,"Delta":25450753},{"NoteNumber":69,"Velocity":63,"Duration":85470,"SoundDuration":85470,"Delta":25450753},{"NoteNumber":49,"Velocity":43,"Duration":85470,"SoundDuration":85470,"Delta":25450753},{"NoteNumber":55,"Velocity":43,"Duration":85470,"SoundDuration":85470,"Delta":25450753},{"NoteNumber":57,"Velocity":51,"Duration":85470,"SoundDuration":85470,"Delta":25450753},{"NoteNumber":64,"Velocity":49,"Duration":85469,"SoundDuration":85469,"Delta":25621693},{"NoteNumber":67,"Velocity":49,"Duration":85469,"SoundDuration":85469,"Delta":25621693},{"NoteNumber":69,"Velocity":59,"Duration":85469,"SoundDuration":85469,"Delta":25621693},{"NoteNumber":49,"Velocity":39,"Duration":85469,"SoundDuration":85469,"Delta":25621693},{"NoteNumber":55,"Velocity":39,"Duration":85469,"SoundDuration":85469,"Delta":25621693},{"NoteNumber":57,"Velocity":46,"Duration":85469,"SoundDuration":85469,"Delta":25621693},{"NoteNumber":64,"Velocity":54,"Duration":83333,"SoundDuration":83333,"Delta":25792633},{"NoteNumber":67,"Velocity":54,"Duration":83333,"SoundDuration":83333,"Delta":25792633},{"NoteNumber":69,"Velocity":63,"Duration":83333,"SoundDuration":83333,"Delta":25792633},{"NoteNumber":49,"Velocity":43,"Duration":83333,"SoundDuration":83333,"Delta":25792633},{"NoteNumber":55,"Velocity":43,"Duration":83333,"SoundDuration":83333,"Delta":25792633},{"NoteNumber":57,"Velocity":51,"Duration":83333,"SoundDuration":83333,"Delta":25792633},{"NoteNumber":64,"Velocity":49,"Duration":103376,"SoundDuration":103376,"Delta":25959299},{"NoteNumber":67,"Velocity":49,"Duration":103376,"SoundDuration":103376,"Delta":25959299},{"NoteNumber":69,"Velocity":58,"Duration":103376,"SoundDuration":103376,"Delta":25959299},{"NoteNumber":49,"Velocity":39,"Duration":103376,"SoundDuration":103376,"Delta":25959299},{"NoteNumber":55,"Velocity":39,"Duration":103376,"SoundDuration":103376,"Delta":25959299},{"NoteNumber":57,"Velocity":46,"Duration":103376,"SoundDuration":103376,"Delta":25959299},{"NoteNumber":67,"Velocity":60,"Duration":551808,"SoundDuration":551808,"Delta":26166053},{"NoteNumber":64,"Velocity":60,"Duration":367871,"SoundDuration":367871,"Delta":26166053},{"NoteNumber":69,"Velocity":70,"Duration":367871,"SoundDuration":367871,"Delta":26166053},{"NoteNumber":55,"Velocity":47,"Duration":551808,"SoundDuration":551808,"Delta":26166053},{"NoteNumber":49,"Velocity":47,"Duration":367871,"SoundDuration":367871,"Delta":26166053},{"NoteNumber":57,"Velocity":56,"Duration":367871,"SoundDuration":367871,"Delta":26166053},{"NoteNumber":62,"Velocity":51,"Duration":183936,"SoundDuration":183936,"Delta":26533925},{"NoteNumber":71,"Velocity":61,"Duration":183936,"SoundDuration":183936,"Delta":26533925},{"NoteNumber":50,"Velocity":43,"Duration":183936,"SoundDuration":183936,"Delta":26533925},{"NoteNumber":59,"Velocity":52,"Duration":183936,"SoundDuration":183936,"Delta":26533925},{"NoteNumber":62,"Velocity":61,"Duration":112612,"SoundDuration":112612,"Delta":26901797},{"NoteNumber":50,"Velocity":53,"Duration":112612,"SoundDuration":112612,"Delta":26901797},{"NoteNumber":64,"Velocity":55,"Duration":112612,"SoundDuration":112612,"Delta":27014410},{"NoteNumber":52,"Velocity":48,"Duration":112612,"SoundDuration":112612,"Delta":27014410},{"NoteNumber":66,"Velocity":55,"Duration":112612,"SoundDuration":112612,"Delta":27127023},{"NoteNumber":54,"Velocity":48,"Duration":112612,"SoundDuration":112612,"Delta":27127023},{"NoteNumber":67,"Velocity":61,"Duration":108991,"SoundDuration":108991,"Delta":27239635},{"NoteNumber":55,"Velocity":53,"Duration":108991,"SoundDuration":108991,"Delta":27239635},{"NoteNumber":69,"Velocity":56,"Duration":108991,"SoundDuration":108991,"Delta":27348627},{"NoteNumber":57,"Velocity":49,"Duration":108991,"SoundDuration":108991,"Delta":27348627},{"NoteNumber":71,"Velocity":56,"Duration":140745,"SoundDuration":140745,"Delta":27457619},{"NoteNumber":59,"Velocity":48,"Duration":140745,"SoundDuration":140745,"Delta":27457619},{"NoteNumber":63,"Velocity":61,"Duration":174927,"SoundDuration":174927,"Delta":27598365},{"NoteNumber":51,"Velocity":53,"Duration":174927,"SoundDuration":174927,"Delta":27598365},{"NoteNumber":71,"Velocity":52,"Duration":174927,"SoundDuration":174927,"Delta":27773292},{"NoteNumber":59,"Velocity":49,"Duration":174927,"SoundDuration":174927,"Delta":27773292},{"NoteNumber":64,"Velocity":61,"Duration":174927,"SoundDuration":174927,"Delta":27948219},{"NoteNumber":52,"Velocity":53,"Duration":174927,"SoundDuration":174927,"Delta":27948219},{"NoteNumber":72,"Velocity":55,"Duration":174927,"SoundDuration":174927,"Delta":28123146},{"NoteNumber":60,"Velocity":48,"Duration":174927,"SoundDuration":174927,"Delta":28123146},{"NoteNumber":67,"Velocity":54,"Duration":84985,"SoundDuration":84985,"Delta":28298073},{"NoteNumber":70,"Velocity":54,"Duration":84985,"SoundDuration":84985,"Delta":28298073},{"NoteNumber":73,"Velocity":63,"Duration":84985,"SoundDuration":84985,"Delta":28298073},{"NoteNumber":52,"Velocity":43,"Duration":84985,"SoundDuration":84985,"Delta":28298073},{"NoteNumber":58,"Velocity":43,"Duration":84985,"SoundDuration":84985,"Delta":28298073},{"NoteNumber":61,"Velocity":51,"Duration":84985,"SoundDuration":84985,"Delta":28298073},{"NoteNumber":67,"Velocity":49,"Duration":84985,"SoundDuration":84985,"Delta":28468044},{"NoteNumber":70,"Velocity":49,"Duration":84985,"SoundDuration":84985,"Delta":28468044},{"NoteNumber":73,"Velocity":59,"Duration":84985,"SoundDuration":84985,"Delta":28468044},{"NoteNumber":52,"Velocity":39,"Duration":84985,"SoundDuration":84985,"Delta":28468044},{"NoteNumber":58,"Velocity":39,"Duration":84985,"SoundDuration":84985,"Delta":28468044},{"NoteNumber":61,"Velocity":46,"Duration":84985,"SoundDuration":84985,"Delta":28468044},{"NoteNumber":67,"Velocity":54,"Duration":83102,"SoundDuration":83102,"Delta":28638016},{"NoteNumber":70,"Velocity":54,"Duration":83102,"SoundDuration":83102,"Delta":28638016},{"NoteNumber":73,"Velocity":63,"Duration":83102,"SoundDuration":83102,"Delta":28638016},{"NoteNumber":52,"Velocity":43,"Duration":83102,"SoundDuration":83102,"Delta":28638016},{"NoteNumber":58,"Velocity":43,"Duration":83102,"SoundDuration":83102,"Delta":28638016},{"NoteNumber":61,"Velocity":51,"Duration":83102,"SoundDuration":83102,"Delta":28638016},{"NoteNumber":67,"Velocity":49,"Duration":103376,"SoundDuration":103376,"Delta":28804221},{"NoteNumber":70,"Velocity":49,"Duration":103376,"SoundDuration":103376,"Delta":28804221},{"NoteNumber":73,"Velocity":58,"Duration":103376,"SoundDuration":103376,"Delta":28804221},{"NoteNumber":52,"Velocity":39,"Duration":103376,"SoundDuration":103376,"Delta":28804221},{"NoteNumber":58,"Velocity":39,"Duration":103376,"SoundDuration":103376,"Delta":28804221},{"NoteNumber":61,"Velocity":46,"Duration":103376,"SoundDuration":103376,"Delta":28804221},{"NoteNumber":70,"Velocity":60,"Duration":551808,"SoundDuration":551808,"Delta":29010975},{"NoteNumber":67,"Velocity":60,"Duration":367871,"SoundDuration":367871,"Delta":29010975},{"NoteNumber":73,"Velocity":70,"Duration":367871,"SoundDuration":367871,"Delta":29010975},{"NoteNumber":58,"Velocity":47,"Duration":551808,"SoundDuration":551808,"Delta":29010975},{"NoteNumber":52,"Velocity":47,"Duration":367871,"SoundDuration":367871,"Delta":29010975},{"NoteNumber":61,"Velocity":56,"Duration":367871,"SoundDuration":367871,"Delta":29010975},{"NoteNumber":65,"Velocity":51,"Duration":183936,"SoundDuration":183936,"Delta":29378847},{"NoteNumber":74,"Velocity":61,"Duration":183936,"SoundDuration":183936,"Delta":29378847},{"NoteNumber":53,"Velocity":43,"Duration":183936,"SoundDuration":183936,"Delta":29378847},{"NoteNumber":62,"Velocity":52,"Duration":183936,"SoundDuration":183936,"Delta":29378847},{"NoteNumber":65,"Velocity":61,"Duration":112612,"SoundDuration":112612,"Delta":29746719},{"NoteNumber":53,"Velocity":53,"Duration":112612,"SoundDuration":112612,"Delta":29746719},{"NoteNumber":67,"Velocity":55,"Duration":112612,"SoundDuration":112612,"Delta":29859331},{"NoteNumber":55,"Velocity":48,"Duration":112612,"SoundDuration":112612,"Delta":29859331},{"NoteNumber":69,"Velocity":55,"Duration":112612,"SoundDuration":112612,"Delta":29971944},{"NoteNumber":57,"Velocity":48,"Duration":112612,"SoundDuration":112612,"Delta":29971944},{"NoteNumber":71,"Velocity":61,"Duration":109890,"SoundDuration":109890,"Delta":30084557},{"NoteNumber":59,"Velocity":53,"Duration":109890,"SoundDuration":109890,"Delta":30084557},{"NoteNumber":72,"Velocity":56,"Duration":109890,"SoundDuration":109890,"Delta":30194447},{"NoteNumber":60,"Velocity":49,"Duration":109890,"SoundDuration":109890,"Delta":30194447},{"NoteNumber":74,"Velocity":56,"Duration":162601,"SoundDuration":162601,"Delta":30304337},{"NoteNumber":62,"Velocity":48,"Duration":162601,"SoundDuration":162601,"Delta":30304337},{"NoteNumber":75,"Velocity":61,"Duration":173912,"SoundDuration":173912,"Delta":30466938},{"NoteNumber":51,"Velocity":53,"Duration":173912,"SoundDuration":173912,"Delta":30466938},{"NoteNumber":67,"Velocity":50,"Duration":173913,"SoundDuration":173913,"Delta":30640851},{"NoteNumber":58,"Velocity":42,"Duration":130434,"SoundDuration":130434,"Delta":30640851},{"NoteNumber":74,"Velocity":61,"Duration":176470,"SoundDuration":176470,"Delta":30814764},{"NoteNumber":58,"Velocity":53,"Duration":176470,"SoundDuration":176470,"Delta":30814764},{"NoteNumber":65,"Velocity":51,"Duration":176470,"SoundDuration":176470,"Delta":30991235},{"NoteNumber":62,"Velocity":44,"Duration":176470,"SoundDuration":176470,"Delta":30991235},{"NoteNumber":64,"Velocity":45,"Duration":85470,"SoundDuration":85470,"Delta":31167705},{"NoteNumber":67,"Velocity":45,"Duration":85470,"SoundDuration":85470,"Delta":31167705},{"NoteNumber":70,"Velocity":45,"Duration":85470,"SoundDuration":85470,"Delta":31167705},{"NoteNumber":73,"Velocity":53,"Duration":85470,"SoundDuration":85470,"Delta":31167705},{"NoteNumber":34,"Velocity":36,"Duration":85470,"SoundDuration":85470,"Delta":31167705},{"NoteNumber":46,"Velocity":43,"Duration":85470,"SoundDuration":85470,"Delta":31167705},{"NoteNumber":64,"Velocity":41,"Duration":85469,"SoundDuration":85469,"Delta":31338645},{"NoteNumber":67,"Velocity":41,"Duration":85469,"SoundDuration":85469,"Delta":31338645},{"NoteNumber":70,"Velocity":41,"Duration":85469,"SoundDuration":85469,"Delta":31338645},{"NoteNumber":73,"Velocity":50,"Duration":85469,"SoundDuration":85469,"Delta":31338645},{"NoteNumber":34,"Velocity":33,"Duration":85469,"SoundDuration":85469,"Delta":31338645},{"NoteNumber":46,"Velocity":39,"Duration":85469,"SoundDuration":85469,"Delta":31338645},{"NoteNumber":64,"Velocity":45,"Duration":83333,"SoundDuration":83333,"Delta":31509585},{"NoteNumber":67,"Velocity":45,"Duration":83333,"SoundDuration":83333,"Delta":31509585},{"NoteNumber":70,"Velocity":45,"Duration":83333,"SoundDuration":83333,"Delta":31509585},{"NoteNumber":73,"Velocity":53,"Duration":83333,"SoundDuration":83333,"Delta":31509585},{"NoteNumber":34,"Velocity":36,"Duration":83333,"SoundDuration":83333,"Delta":31509585},{"NoteNumber":46,"Velocity":43,"Duration":83333,"SoundDuration":83333,"Delta":31509585},{"NoteNumber":64,"Velocity":41,"Duration":103376,"SoundDuration":103376,"Delta":31676252},{"NoteNumber":67,"Velocity":41,"Duration":103376,"SoundDuration":103376,"Delta":31676252},{"NoteNumber":70,"Velocity":41,"Duration":103376,"SoundDuration":103376,"Delta":31676252},{"NoteNumber":73,"Velocity":49,"Duration":103376,"SoundDuration":103376,"Delta":31676252},{"NoteNumber":34,"Velocity":33,"Duration":103376,"SoundDuration":103376,"Delta":31676252},{"NoteNumber":46,"Velocity":39,"Duration":103376,"SoundDuration":103376,"Delta":31676252},{"NoteNumber":64,"Velocity":51,"Duration":367872,"SoundDuration":367872,"Delta":31883006},{"NoteNumber":70,"Velocity":51,"Duration":551807,"SoundDuration":551807,"Delta":31883006},{"NoteNumber":67,"Velocity":51,"Duration":367872,"SoundDuration":367872,"Delta":31883006},{"NoteNumber":73,"Velocity":59,"Duration":367872,"SoundDuration":367872,"Delta":31883006},{"NoteNumber":34,"Velocity":39,"Duration":551807,"SoundDuration":551807,"Delta":31883006},{"NoteNumber":46,"Velocity":47,"Duration":551807,"SoundDuration":551807,"Delta":31883006},{"NoteNumber":65,"Velocity":43,"Duration":183935,"SoundDuration":183935,"Delta":32250878},{"NoteNumber":74,"Velocity":51,"Duration":183935,"SoundDuration":183935,"Delta":32250878},{"NoteNumber":65,"Velocity":51,"Duration":112612,"SoundDuration":112612,"Delta":32618750},{"NoteNumber":53,"Velocity":45,"Duration":112612,"SoundDuration":112612,"Delta":32618750},{"NoteNumber":67,"Velocity":46,"Duration":112612,"SoundDuration":112612,"Delta":32731362},{"NoteNumber":55,"Velocity":40,"Duration":112612,"SoundDuration":112612,"Delta":32731362},{"NoteNumber":69,"Velocity":46,"Duration":112612,"SoundDuration":112612,"Delta":32843975},{"NoteNumber":57,"Velocity":40,"Duration":112612,"SoundDuration":112612,"Delta":32843975},{"NoteNumber":70,"Velocity":51,"Duration":109890,"SoundDuration":109890,"Delta":32956588},{"NoteNumber":58,"Velocity":45,"Duration":109890,"SoundDuration":109890,"Delta":32956588},{"NoteNumber":72,"Velocity":47,"Duration":109890,"SoundDuration":109890,"Delta":33066478},{"NoteNumber":60,"Velocity":41,"Duration":109890,"SoundDuration":109890,"Delta":33066478},{"NoteNumber":74,"Velocity":47,"Duration":140746,"SoundDuration":140746,"Delta":33176368},{"NoteNumber":62,"Velocity":40,"Duration":140746,"SoundDuration":140746,"Delta":33176368},{"NoteNumber":79,"Velocity":51,"Duration":177936,"SoundDuration":177936,"Delta":33317114},{"NoteNumber":75,"Velocity":43,"Duration":177936,"SoundDuration":177936,"Delta":33317114},{"NoteNumber":51,"Velocity":52,"Duration":177936,"SoundDuration":177936,"Delta":33317114},{"NoteNumber":67,"Velocity":44,"Duration":177935,"SoundDuration":177935,"Delta":33495050},{"NoteNumber":58,"Velocity":41,"Duration":133451,"SoundDuration":133451,"Delta":33495050},{"NoteNumber":77,"Velocity":51,"Duration":177936,"SoundDuration":177936,"Delta":33672986},{"NoteNumber":74,"Velocity":43,"Duration":177936,"SoundDuration":177936,"Delta":33672986},{"NoteNumber":58,"Velocity":52,"Duration":177936,"SoundDuration":177936,"Delta":33672986},{"NoteNumber":65,"Velocity":46,"Duration":177936,"SoundDuration":177936,"Delta":33850922},{"NoteNumber":62,"Velocity":40,"Duration":177936,"SoundDuration":177936,"Delta":33850922},{"NoteNumber":64,"Velocity":40,"Duration":84269,"SoundDuration":84269,"Delta":34028858},{"NoteNumber":67,"Velocity":40,"Duration":84269,"SoundDuration":84269,"Delta":34028858},{"NoteNumber":70,"Velocity":40,"Duration":84269,"SoundDuration":84269,"Delta":34028858},{"NoteNumber":73,"Velocity":53,"Duration":84269,"SoundDuration":84269,"Delta":34028858},{"NoteNumber":34,"Velocity":36,"Duration":84269,"SoundDuration":84269,"Delta":34028858},{"NoteNumber":46,"Velocity":43,"Duration":84269,"SoundDuration":84269,"Delta":34028858},{"NoteNumber":64,"Velocity":37,"Duration":84269,"SoundDuration":84269,"Delta":34197397},{"NoteNumber":67,"Velocity":37,"Duration":84269,"SoundDuration":84269,"Delta":34197397},{"NoteNumber":70,"Velocity":37,"Duration":84269,"SoundDuration":84269,"Delta":34197397},{"NoteNumber":73,"Velocity":50,"Duration":84269,"SoundDuration":84269,"Delta":34197397},{"NoteNumber":34,"Velocity":33,"Duration":84269,"SoundDuration":84269,"Delta":34197397},{"NoteNumber":46,"Velocity":39,"Duration":84269,"SoundDuration":84269,"Delta":34197397},{"NoteNumber":64,"Velocity":40,"Duration":82417,"SoundDuration":82417,"Delta":34365937},{"NoteNumber":67,"Velocity":40,"Duration":82417,"SoundDuration":82417,"Delta":34365937},{"NoteNumber":70,"Velocity":40,"Duration":82417,"SoundDuration":82417,"Delta":34365937},{"NoteNumber":73,"Velocity":53,"Duration":82417,"SoundDuration":82417,"Delta":34365937},{"NoteNumber":34,"Velocity":36,"Duration":82417,"SoundDuration":82417,"Delta":34365937},{"NoteNumber":46,"Velocity":43,"Duration":82417,"SoundDuration":82417,"Delta":34365937},{"NoteNumber":64,"Velocity":37,"Duration":103377,"SoundDuration":103377,"Delta":34530772},{"NoteNumber":67,"Velocity":37,"Duration":103377,"SoundDuration":103377,"Delta":34530772},{"NoteNumber":70,"Velocity":37,"Duration":103377,"SoundDuration":103377,"Delta":34530772},{"NoteNumber":73,"Velocity":49,"Duration":103377,"SoundDuration":103377,"Delta":34530772},{"NoteNumber":34,"Velocity":33,"Duration":103377,"SoundDuration":103377,"Delta":34530772},{"NoteNumber":46,"Velocity":39,"Duration":103377,"SoundDuration":103377,"Delta":34530772},{"NoteNumber":64,"Velocity":51,"Duration":367871,"SoundDuration":367871,"Delta":34737526},{"NoteNumber":70,"Velocity":51,"Duration":551808,"SoundDuration":551808,"Delta":34737526},{"NoteNumber":67,"Velocity":51,"Duration":367871,"SoundDuration":367871,"Delta":34737526},{"NoteNumber":73,"Velocity":59,"Duration":367871,"SoundDuration":367871,"Delta":34737526},{"NoteNumber":34,"Velocity":39,"Duration":551808,"SoundDuration":551808,"Delta":34737526},{"NoteNumber":46,"Velocity":47,"Duration":551808,"SoundDuration":551808,"Delta":34737526},{"NoteNumber":65,"Velocity":43,"Duration":183936,"SoundDuration":183936,"Delta":35105398},{"NoteNumber":74,"Velocity":51,"Duration":183936,"SoundDuration":183936,"Delta":35105398},{"NoteNumber":65,"Velocity":50,"Duration":112612,"SoundDuration":112612,"Delta":35473270},{"NoteNumber":53,"Velocity":46,"Duration":112612,"SoundDuration":112612,"Delta":35473270},{"NoteNumber":67,"Velocity":51,"Duration":112612,"SoundDuration":112612,"Delta":35585882},{"NoteNumber":55,"Velocity":47,"Duration":112612,"SoundDuration":112612,"Delta":35585882},{"NoteNumber":69,"Velocity":52,"Duration":112612,"SoundDuration":112612,"Delta":35698495},{"NoteNumber":57,"Velocity":48,"Duration":112612,"SoundDuration":112612,"Delta":35698495},{"NoteNumber":70,"Velocity":53,"Duration":112612,"SoundDuration":112612,"Delta":35811108},{"NoteNumber":58,"Velocity":53,"Duration":112612,"SoundDuration":112612,"Delta":35811108},{"NoteNumber":72,"Velocity":54,"Duration":112612,"SoundDuration":112612,"Delta":35923720},{"NoteNumber":60,"Velocity":49,"Duration":112612,"SoundDuration":112612,"Delta":35923720},{"NoteNumber":74,"Velocity":55,"Duration":112425,"SoundDuration":112425,"Delta":36036333},{"NoteNumber":62,"Velocity":48,"Duration":112425,"SoundDuration":112425,"Delta":36036333},{"NoteNumber":75,"Velocity":61,"Duration":111654,"SoundDuration":111654,"Delta":36148759},{"NoteNumber":63,"Velocity":51,"Duration":111654,"SoundDuration":111654,"Delta":36148759},{"NoteNumber":77,"Velocity":52,"Duration":111292,"SoundDuration":111292,"Delta":36260413},{"NoteNumber":65,"Velocity":44,"Duration":111292,"SoundDuration":111292,"Delta":36260413},{"NoteNumber":79,"Velocity":52,"Duration":110936,"SoundDuration":110936,"Delta":36371706},{"NoteNumber":67,"Velocity":44,"Duration":110936,"SoundDuration":110936,"Delta":36371706},{"NoteNumber":77,"Velocity":61,"Duration":110615,"SoundDuration":110615,"Delta":36482642},{"NoteNumber":65,"Velocity":51,"Duration":110615,"SoundDuration":110615,"Delta":36482642},{"NoteNumber":75,"Velocity":53,"Duration":110263,"SoundDuration":110263,"Delta":36593258},{"NoteNumber":63,"Velocity":45,"Duration":110263,"SoundDuration":110263,"Delta":36593258},{"NoteNumber":74,"Velocity":53,"Duration":109858,"SoundDuration":109858,"Delta":36703521},{"NoteNumber":62,"Velocity":45,"Duration":109858,"SoundDuration":109858,"Delta":36703521},{"NoteNumber":73,"Velocity":57,"Duration":109435,"SoundDuration":109435,"Delta":36813379},{"NoteNumber":61,"Velocity":48,"Duration":109435,"SoundDuration":109435,"Delta":36813379},{"NoteNumber":70,"Velocity":47,"Duration":109981,"SoundDuration":109981,"Delta":36922815},{"NoteNumber":58,"Velocity":39,"Duration":109981,"SoundDuration":109981,"Delta":36922815},{"NoteNumber":67,"Velocity":47,"Duration":110541,"SoundDuration":110541,"Delta":37032796},{"NoteNumber":55,"Velocity":39,"Duration":110541,"SoundDuration":110541,"Delta":37032796},{"NoteNumber":64,"Velocity":49,"Duration":111105,"SoundDuration":111105,"Delta":37143338},{"NoteNumber":52,"Velocity":41,"Duration":111105,"SoundDuration":111105,"Delta":37143338},{"NoteNumber":61,"Velocity":47,"Duration":111675,"SoundDuration":111675,"Delta":37254443},{"NoteNumber":49,"Velocity":39,"Duration":111675,"SoundDuration":111675,"Delta":37254443},{"NoteNumber":64,"Velocity":48,"Duration":116754,"SoundDuration":116754,"Delta":37366119},{"NoteNumber":52,"Velocity":40,"Duration":116754,"SoundDuration":116754,"Delta":37366119},{"NoteNumber":65,"Velocity":50,"Duration":111234,"SoundDuration":111234,"Delta":37482873},{"NoteNumber":53,"Velocity":42,"Duration":111234,"SoundDuration":111234,"Delta":37482873},{"NoteNumber":62,"Velocity":45,"Duration":111234,"SoundDuration":111234,"Delta":37594108},{"NoteNumber":50,"Velocity":38,"Duration":111234,"SoundDuration":111234,"Delta":37594108},{"NoteNumber":65,"Velocity":45,"Duration":111234,"SoundDuration":111234,"Delta":37705343},{"NoteNumber":53,"Velocity":38,"Duration":111234,"SoundDuration":111234,"Delta":37705343},{"NoteNumber":62,"Velocity":50,"Duration":111234,"SoundDuration":111234,"Delta":37816577},{"NoteNumber":50,"Velocity":42,"Duration":111234,"SoundDuration":111234,"Delta":37816577},{"NoteNumber":58,"Velocity":45,"Duration":111234,"SoundDuration":111234,"Delta":37927812},{"NoteNumber":46,"Velocity":38,"Duration":111234,"SoundDuration":111234,"Delta":37927812},{"NoteNumber":62,"Velocity":45,"Duration":110642,"SoundDuration":110642,"Delta":38039047},{"NoteNumber":50,"Velocity":38,"Duration":110642,"SoundDuration":110642,"Delta":38039047},{"NoteNumber":65,"Velocity":45,"Duration":110193,"SoundDuration":110193,"Delta":38149689},{"NoteNumber":41,"Velocity":38,"Duration":110193,"SoundDuration":110193,"Delta":38149689},{"NoteNumber":67,"Velocity":47,"Duration":110032,"SoundDuration":110032,"Delta":38259882},{"NoteNumber":43,"Velocity":39,"Duration":110032,"SoundDuration":110032,"Delta":38259882},{"NoteNumber":69,"Velocity":49,"Duration":109890,"SoundDuration":109890,"Delta":38369914},{"NoteNumber":45,"Velocity":41,"Duration":109890,"SoundDuration":109890,"Delta":38369914},{"NoteNumber":70,"Velocity":51,"Duration":109743,"SoundDuration":109743,"Delta":38479804},{"NoteNumber":46,"Velocity":43,"Duration":109743,"SoundDuration":109743,"Delta":38479804},{"NoteNumber":72,"Velocity":53,"Duration":109588,"SoundDuration":109588,"Delta":38589547},{"NoteNumber":48,"Velocity":45,"Duration":109588,"SoundDuration":109588,"Delta":38589547},{"NoteNumber":74,"Velocity":55,"Duration":115074,"SoundDuration":115074,"Delta":38699136},{"NoteNumber":50,"Velocity":46,"Duration":115074,"SoundDuration":115074,"Delta":38699136},{"NoteNumber":75,"Velocity":57,"Duration":108623,"SoundDuration":108623,"Delta":38814211},{"NoteNumber":51,"Velocity":48,"Duration":108623,"SoundDuration":108623,"Delta":38814211},{"NoteNumber":77,"Velocity":59,"Duration":108108,"SoundDuration":108108,"Delta":38922834},{"NoteNumber":53,"Velocity":50,"Duration":108108,"SoundDuration":108108,"Delta":38922834},{"NoteNumber":79,"Velocity":61,"Duration":108108,"SoundDuration":108108,"Delta":39030942},{"NoteNumber":55,"Velocity":51,"Duration":108108,"SoundDuration":108108,"Delta":39030942},{"NoteNumber":77,"Velocity":63,"Duration":108107,"SoundDuration":108107,"Delta":39139050},{"NoteNumber":53,"Velocity":53,"Duration":108107,"SoundDuration":108107,"Delta":39139050},{"NoteNumber":75,"Velocity":58,"Duration":108263,"SoundDuration":108263,"Delta":39247158},{"NoteNumber":51,"Velocity":49,"Duration":108263,"SoundDuration":108263,"Delta":39247158},{"NoteNumber":74,"Velocity":61,"Duration":108498,"SoundDuration":108498,"Delta":39355422},{"NoteNumber":50,"Velocity":51,"Duration":108498,"SoundDuration":108498,"Delta":39355422},{"NoteNumber":73,"Velocity":57,"Duration":108734,"SoundDuration":108734,"Delta":39463921},{"NoteNumber":49,"Velocity":48,"Duration":108734,"SoundDuration":108734,"Delta":39463921},{"NoteNumber":70,"Velocity":55,"Duration":108991,"SoundDuration":108991,"Delta":39572655},{"NoteNumber":46,"Velocity":46,"Duration":108991,"SoundDuration":108991,"Delta":39572655},{"NoteNumber":67,"Velocity":53,"Duration":109233,"SoundDuration":109233,"Delta":39681647},{"NoteNumber":43,"Velocity":45,"Duration":109233,"SoundDuration":109233,"Delta":39681647},{"NoteNumber":64,"Velocity":51,"Duration":109473,"SoundDuration":109473,"Delta":39790881},{"NoteNumber":40,"Velocity":43,"Duration":109473,"SoundDuration":109473,"Delta":39790881},{"NoteNumber":61,"Velocity":47,"Duration":109713,"SoundDuration":109713,"Delta":39900354},{"NoteNumber":37,"Velocity":39,"Duration":109713,"SoundDuration":109713,"Delta":39900354},{"NoteNumber":64,"Velocity":43,"Duration":109879,"SoundDuration":109879,"Delta":40010067},{"NoteNumber":40,"Velocity":36,"Duration":109879,"SoundDuration":109879,"Delta":40010067},{"NoteNumber":67,"Velocity":59,"Duration":108169,"SoundDuration":108169,"Delta":40119946},{"NoteNumber":43,"Velocity":50,"Duration":108169,"SoundDuration":108169,"Delta":40119946},{"NoteNumber":64,"Velocity":43,"Duration":106965,"SoundDuration":106965,"Delta":40228116},{"NoteNumber":40,"Velocity":36,"Duration":106965,"SoundDuration":106965,"Delta":40228116},{"NoteNumber":67,"Velocity":43,"Duration":105710,"SoundDuration":105710,"Delta":40335082},{"NoteNumber":43,"Velocity":36,"Duration":105710,"SoundDuration":105710,"Delta":40335082},{"NoteNumber":64,"Velocity":44,"Duration":106124,"SoundDuration":106124,"Delta":40440792},{"NoteNumber":40,"Velocity":37,"Duration":106124,"SoundDuration":106124,"Delta":40440792},{"NoteNumber":61,"Velocity":45,"Duration":108557,"SoundDuration":108557,"Delta":40546917},{"NoteNumber":37,"Velocity":37,"Duration":108557,"SoundDuration":108557,"Delta":40546917},{"NoteNumber":64,"Velocity":45,"Duration":114416,"SoundDuration":114416,"Delta":40655474},{"NoteNumber":40,"Velocity":38,"Duration":114416,"SoundDuration":114416,"Delta":40655474},{"NoteNumber":68,"Velocity":62,"Duration":108597,"SoundDuration":108597,"Delta":40769890},{"NoteNumber":44,"Velocity":52,"Duration":108597,"SoundDuration":108597,"Delta":40769890},{"NoteNumber":64,"Velocity":46,"Duration":107965,"SoundDuration":107965,"Delta":40878487},{"NoteNumber":40,"Velocity":38,"Duration":107965,"SoundDuration":107965,"Delta":40878487},{"NoteNumber":68,"Velocity":47,"Duration":107476,"SoundDuration":107476,"Delta":40986453},{"NoteNumber":44,"Velocity":39,"Duration":107476,"SoundDuration":107476,"Delta":40986453},{"NoteNumber":64,"Velocity":47,"Duration":107115,"SoundDuration":107115,"Delta":41093930},{"NoteNumber":40,"Velocity":39,"Duration":107115,"SoundDuration":107115,"Delta":41093930},{"NoteNumber":61,"Velocity":48,"Duration":108424,"SoundDuration":108424,"Delta":41201046},{"NoteNumber":37,"Velocity":40,"Duration":108424,"SoundDuration":108424,"Delta":41201046},{"NoteNumber":64,"Velocity":48,"Duration":115344,"SoundDuration":115344,"Delta":41309470},{"NoteNumber":40,"Velocity":40,"Duration":115344,"SoundDuration":115344,"Delta":41309470},{"NoteNumber":69,"Velocity":65,"Duration":107462,"SoundDuration":107462,"Delta":41424815},{"NoteNumber":45,"Velocity":55,"Duration":107462,"SoundDuration":107462,"Delta":41424815},{"NoteNumber":64,"Velocity":49,"Duration":106500,"SoundDuration":106500,"Delta":41532278},{"NoteNumber":40,"Velocity":41,"Duration":106500,"SoundDuration":106500,"Delta":41532278},{"NoteNumber":69,"Velocity":50,"Duration":105543,"SoundDuration":105543,"Delta":41638778},{"NoteNumber":45,"Velocity":42,"Duration":105543,"SoundDuration":105543,"Delta":41638778},{"NoteNumber":64,"Velocity":50,"Duration":105836,"SoundDuration":105836,"Delta":41744322},{"NoteNumber":40,"Velocity":42,"Duration":105836,"SoundDuration":105836,"Delta":41744322},{"NoteNumber":61,"Velocity":51,"Duration":107545,"SoundDuration":107545,"Delta":41850158},{"NoteNumber":37,"Velocity":43,"Duration":107545,"SoundDuration":107545,"Delta":41850158},{"NoteNumber":64,"Velocity":52,"Duration":113396,"SoundDuration":113396,"Delta":41957704},{"NoteNumber":40,"Velocity":43,"Duration":113396,"SoundDuration":113396,"Delta":41957704},{"NoteNumber":69,"Velocity":68,"Duration":106095,"SoundDuration":106095,"Delta":42071100},{"NoteNumber":45,"Velocity":57,"Duration":106095,"SoundDuration":106095,"Delta":42071100},{"NoteNumber":64,"Velocity":52,"Duration":105277,"SoundDuration":105277,"Delta":42177196},{"NoteNumber":40,"Velocity":44,"Duration":105277,"SoundDuration":105277,"Delta":42177196},{"NoteNumber":69,"Velocity":53,"Duration":104429,"SoundDuration":104429,"Delta":42282474},{"NoteNumber":45,"Velocity":45,"Duration":104429,"SoundDuration":104429,"Delta":42282474},{"NoteNumber":64,"Velocity":54,"Duration":104266,"SoundDuration":104266,"Delta":42386903},{"NoteNumber":40,"Velocity":45,"Duration":104266,"SoundDuration":104266,"Delta":42386903},{"NoteNumber":60,"Velocity":54,"Duration":105800,"SoundDuration":105800,"Delta":42491170},{"NoteNumber":36,"Velocity":45,"Duration":105800,"SoundDuration":105800,"Delta":42491170},{"NoteNumber":64,"Velocity":55,"Duration":113662,"SoundDuration":113662,"Delta":42596971},{"NoteNumber":40,"Velocity":46,"Duration":113662,"SoundDuration":113662,"Delta":42596971},{"NoteNumber":74,"Velocity":74,"Duration":105415,"SoundDuration":105415,"Delta":42710633},{"NoteNumber":35,"Velocity":62,"Duration":105415,"SoundDuration":105415,"Delta":42710633},{"NoteNumber":69,"Velocity":59,"Duration":104959,"SoundDuration":104959,"Delta":42816049},{"NoteNumber":41,"Velocity":50,"Duration":104959,"SoundDuration":104959,"Delta":42816049},{"NoteNumber":74,"Velocity":60,"Duration":104488,"SoundDuration":104488,"Delta":42921009},{"NoteNumber":35,"Velocity":51,"Duration":104488,"SoundDuration":104488,"Delta":42921009},{"NoteNumber":69,"Velocity":61,"Duration":105286,"SoundDuration":105286,"Delta":43025497},{"NoteNumber":41,"Velocity":52,"Duration":105286,"SoundDuration":105286,"Delta":43025497},{"NoteNumber":62,"Velocity":62,"Duration":107533,"SoundDuration":107533,"Delta":43130784},{"NoteNumber":47,"Velocity":53,"Duration":107533,"SoundDuration":107533,"Delta":43130784},{"NoteNumber":69,"Velocity":63,"Duration":113765,"SoundDuration":113765,"Delta":43238317},{"NoteNumber":41,"Velocity":54,"Duration":113765,"SoundDuration":113765,"Delta":43238317},{"NoteNumber":80,"Velocity":82,"Duration":109110,"SoundDuration":109110,"Delta":43352083},{"NoteNumber":34,"Velocity":69,"Duration":109110,"SoundDuration":109110,"Delta":43352083},{"NoteNumber":74,"Velocity":67,"Duration":109144,"SoundDuration":109144,"Delta":43461194},{"NoteNumber":41,"Velocity":56,"Duration":109144,"SoundDuration":109144,"Delta":43461194},{"NoteNumber":80,"Velocity":69,"Duration":109409,"SoundDuration":109409,"Delta":43570338},{"NoteNumber":34,"Velocity":58,"Duration":109409,"SoundDuration":109409,"Delta":43570338},{"NoteNumber":74,"Velocity":70,"Duration":109645,"SoundDuration":109645,"Delta":43679747},{"NoteNumber":41,"Velocity":59,"Duration":109645,"SoundDuration":109645,"Delta":43679747},{"NoteNumber":68,"Velocity":72,"Duration":109850,"SoundDuration":109850,"Delta":43789393},{"NoteNumber":46,"Velocity":61,"Duration":109850,"SoundDuration":109850,"Delta":43789393},{"NoteNumber":74,"Velocity":74,"Duration":119702,"SoundDuration":119702,"Delta":43899244},{"NoteNumber":34,"Velocity":62,"Duration":119702,"SoundDuration":119702,"Delta":43899244},{"NoteNumber":81,"Velocity":105,"Duration":872728,"SoundDuration":872728,"Delta":44018946},{"NoteNumber":76,"Velocity":89,"Duration":872728,"SoundDuration":872728,"Delta":44018946},{"NoteNumber":73,"Velocity":89,"Duration":872728,"SoundDuration":872728,"Delta":44018946},{"NoteNumber":69,"Velocity":89,"Duration":872728,"SoundDuration":872728,"Delta":44018946},{"NoteNumber":33,"Velocity":73,"Duration":872728,"SoundDuration":872728,"Delta":44018946},{"NoteNumber":45,"Velocity":86,"Duration":872728,"SoundDuration":872728,"Delta":44018946},{"NoteNumber":72,"Velocity":54,"Duration":174418,"SoundDuration":174418,"Delta":44891674},{"NoteNumber":75,"Velocity":63,"Duration":174418,"SoundDuration":174418,"Delta":44891674},{"NoteNumber":57,"Velocity":43,"Duration":174418,"SoundDuration":174418,"Delta":44891674},{"NoteNumber":66,"Velocity":51,"Duration":174418,"SoundDuration":174418,"Delta":44891674},{"NoteNumber":72,"Velocity":49,"Duration":174418,"SoundDuration":174418,"Delta":45124232},{"NoteNumber":75,"Velocity":59,"Duration":174418,"SoundDuration":174418,"Delta":45124232},{"NoteNumber":57,"Velocity":39,"Duration":174418,"SoundDuration":174418,"Delta":45124232},{"NoteNumber":66,"Velocity":46,"Duration":174418,"SoundDuration":174418,"Delta":45124232},{"NoteNumber":72,"Velocity":54,"Duration":174418,"SoundDuration":174418,"Delta":45356790},{"NoteNumber":75,"Velocity":63,"Duration":174418,"SoundDuration":174418,"Delta":45356790},{"NoteNumber":57,"Velocity":43,"Duration":174418,"SoundDuration":174418,"Delta":45356790},{"NoteNumber":66,"Velocity":51,"Duration":174418,"SoundDuration":174418,"Delta":45356790},{"NoteNumber":72,"Velocity":49,"Duration":189873,"SoundDuration":189873,"Delta":45589348},{"NoteNumber":75,"Velocity":58,"Duration":189873,"SoundDuration":189873,"Delta":45589348},{"NoteNumber":57,"Velocity":39,"Duration":189873,"SoundDuration":189873,"Delta":45589348},{"NoteNumber":66,"Velocity":46,"Duration":189873,"SoundDuration":189873,"Delta":45589348},{"NoteNumber":73,"Velocity":60,"Duration":437955,"SoundDuration":437955,"Delta":45842513},{"NoteNumber":76,"Velocity":70,"Duration":437955,"SoundDuration":437955,"Delta":45842513},{"NoteNumber":57,"Velocity":47,"Duration":690057,"SoundDuration":690057,"Delta":45842513},{"NoteNumber":69,"Velocity":56,"Duration":437955,"SoundDuration":437955,"Delta":45842513},{"NoteNumber":85,"Velocity":49,"Duration":252101,"SoundDuration":252101,"Delta":46280469},{"NoteNumber":64,"Velocity":37,"Duration":252101,"SoundDuration":252101,"Delta":46280469},{"NoteNumber":49,"Velocity":64,"Duration":185414,"SoundDuration":185414,"Delta":46532570},{"NoteNumber":37,"Velocity":49,"Duration":185414,"SoundDuration":185414,"Delta":46532570},{"NoteNumber":50,"Velocity":66,"Duration":112612,"SoundDuration":112612,"Delta":46717984},{"NoteNumber":38,"Velocity":53,"Duration":112612,"SoundDuration":112612,"Delta":46717984},{"NoteNumber":49,"Velocity":62,"Duration":112612,"SoundDuration":112612,"Delta":46830596},{"NoteNumber":37,"Velocity":49,"Duration":112612,"SoundDuration":112612,"Delta":46830596},{"NoteNumber":47,"Velocity":64,"Duration":112612,"SoundDuration":112612,"Delta":46943209},{"NoteNumber":35,"Velocity":53,"Duration":112612,"SoundDuration":112612,"Delta":46943209},{"NoteNumber":53,"Velocity":65,"Duration":112612,"SoundDuration":112612,"Delta":47055822},{"NoteNumber":41,"Velocity":56,"Duration":112612,"SoundDuration":112612,"Delta":47055822},{"NoteNumber":52,"Velocity":60,"Duration":112612,"SoundDuration":112612,"Delta":47168434},{"NoteNumber":40,"Velocity":51,"Duration":112612,"SoundDuration":112612,"Delta":47168434},{"NoteNumber":50,"Velocity":49,"Duration":140746,"SoundDuration":140746,"Delta":47281047},{"NoteNumber":38,"Velocity":38,"Duration":140746,"SoundDuration":140746,"Delta":47281047},{"NoteNumber":40,"Velocity":43,"Duration":170648,"SoundDuration":170648,"Delta":47421793},{"NoteNumber":49,"Velocity":47,"Duration":113765,"SoundDuration":113765,"Delta":47421793},{"NoteNumber":50,"Velocity":41,"Duration":113765,"SoundDuration":113765,"Delta":47535559},{"NoteNumber":52,"Velocity":41,"Duration":113765,"SoundDuration":113765,"Delta":47649324},{"NoteNumber":73,"Velocity":56,"Duration":274724,"SoundDuration":274724,"Delta":47763090},{"NoteNumber":76,"Velocity":56,"Duration":274724,"SoundDuration":274724,"Delta":47763090},{"NoteNumber":54,"Velocity":47,"Duration":122100,"SoundDuration":122100,"Delta":47763090},{"NoteNumber":56,"Velocity":42,"Duration":122099,"SoundDuration":122099,"Delta":47885190},{"NoteNumber":57,"Velocity":42,"Duration":132357,"SoundDuration":132357,"Delta":48007290},{"NoteNumber":73,"Velocity":49,"Duration":101832,"SoundDuration":101832,"Delta":48037815},{"NoteNumber":76,"Velocity":49,"Duration":101832,"SoundDuration":101832,"Delta":48037815},{"NoteNumber":71,"Velocity":55,"Duration":171134,"SoundDuration":171134,"Delta":48139648},{"NoteNumber":74,"Velocity":55,"Duration":171134,"SoundDuration":171134,"Delta":48139648},{"NoteNumber":59,"Velocity":55,"Duration":114089,"SoundDuration":114089,"Delta":48139648},{"NoteNumber":61,"Velocity":56,"Duration":114090,"SoundDuration":114090,"Delta":48253738},{"NoteNumber":62,"Velocity":54,"Duration":114089,"SoundDuration":114089,"Delta":48367828},{"NoteNumber":52,"Velocity":44,"Duration":114089,"SoundDuration":114089,"Delta":48367828},{"NoteNumber":64,"Velocity":57,"Duration":114089,"SoundDuration":114089,"Delta":48481918},{"NoteNumber":50,"Velocity":50,"Duration":114089,"SoundDuration":114089,"Delta":48481918},{"NoteNumber":66,"Velocity":60,"Duration":114090,"SoundDuration":114090,"Delta":48596008},{"NoteNumber":49,"Velocity":53,"Duration":114090,"SoundDuration":114090,"Delta":48596008},{"NoteNumber":68,"Velocity":62,"Duration":114089,"SoundDuration":114089,"Delta":48710098},{"NoteNumber":47,"Velocity":56,"Duration":114089,"SoundDuration":114089,"Delta":48710098},{"NoteNumber":81,"Velocity":94,"Duration":869565,"SoundDuration":869565,"Delta":48824188},{"NoteNumber":76,"Velocity":80,"Duration":869565,"SoundDuration":869565,"Delta":48824188},{"NoteNumber":73,"Velocity":80,"Duration":869565,"SoundDuration":869565,"Delta":48824188},{"NoteNumber":69,"Velocity":80,"Duration":869565,"SoundDuration":869565,"Delta":48824188},{"NoteNumber":33,"Velocity":65,"Duration":869565,"SoundDuration":869565,"Delta":48824188},{"NoteNumber":45,"Velocity":77,"Duration":869565,"SoundDuration":869565,"Delta":48824188},{"NoteNumber":72,"Velocity":54,"Duration":317307,"SoundDuration":317307,"Delta":49693754},{"NoteNumber":75,"Velocity":63,"Duration":317307,"SoundDuration":317307,"Delta":49693754},{"NoteNumber":57,"Velocity":43,"Duration":317307,"SoundDuration":317307,"Delta":49693754},{"NoteNumber":66,"Velocity":51,"Duration":317307,"SoundDuration":317307,"Delta":49693754},{"NoteNumber":72,"Velocity":49,"Duration":86538,"SoundDuration":86538,"Delta":50039908},{"NoteNumber":75,"Velocity":59,"Duration":86538,"SoundDuration":86538,"Delta":50039908},{"NoteNumber":57,"Velocity":39,"Duration":86538,"SoundDuration":86538,"Delta":50039908},{"NoteNumber":66,"Velocity":46,"Duration":86538,"SoundDuration":86538,"Delta":50039908},{"NoteNumber":72,"Velocity":54,"Duration":326108,"SoundDuration":326108,"Delta":50155292},{"NoteNumber":75,"Velocity":63,"Duration":326108,"SoundDuration":326108,"Delta":50155292},{"NoteNumber":57,"Velocity":43,"Duration":326108,"SoundDuration":326108,"Delta":50155292},{"NoteNumber":66,"Velocity":51,"Duration":326108,"SoundDuration":326108,"Delta":50155292},{"NoteNumber":72,"Velocity":49,"Duration":95339,"SoundDuration":95339,"Delta":50513180},{"NoteNumber":75,"Velocity":58,"Duration":95339,"SoundDuration":95339,"Delta":50513180},{"NoteNumber":57,"Velocity":39,"Duration":95339,"SoundDuration":95339,"Delta":50513180},{"NoteNumber":66,"Velocity":46,"Duration":95339,"SoundDuration":95339,"Delta":50513180},{"NoteNumber":73,"Velocity":60,"Duration":437955,"SoundDuration":437955,"Delta":50640299},{"NoteNumber":76,"Velocity":70,"Duration":437955,"SoundDuration":437955,"Delta":50640299},{"NoteNumber":57,"Velocity":47,"Duration":692193,"SoundDuration":692193,"Delta":50640299},{"NoteNumber":69,"Velocity":56,"Duration":437955,"SoundDuration":437955,"Delta":50640299},{"NoteNumber":85,"Velocity":49,"Duration":254237,"SoundDuration":254237,"Delta":51078255},{"NoteNumber":64,"Velocity":37,"Duration":254237,"SoundDuration":254237,"Delta":51078255},{"NoteNumber":49,"Velocity":64,"Duration":185414,"SoundDuration":185414,"Delta":51332492},{"NoteNumber":37,"Velocity":49,"Duration":185414,"SoundDuration":185414,"Delta":51332492},{"NoteNumber":50,"Velocity":66,"Duration":112612,"SoundDuration":112612,"Delta":51517906},{"NoteNumber":38,"Velocity":53,"Duration":112612,"SoundDuration":112612,"Delta":51517906},{"NoteNumber":49,"Velocity":62,"Duration":112612,"SoundDuration":112612,"Delta":51630519},{"NoteNumber":37,"Velocity":49,"Duration":112612,"SoundDuration":112612,"Delta":51630519},{"NoteNumber":47,"Velocity":64,"Duration":112612,"SoundDuration":112612,"Delta":51743131},{"NoteNumber":35,"Velocity":53,"Duration":112612,"SoundDuration":112612,"Delta":51743131},{"NoteNumber":53,"Velocity":65,"Duration":112612,"SoundDuration":112612,"Delta":51855744},{"NoteNumber":41,"Velocity":56,"Duration":112612,"SoundDuration":112612,"Delta":51855744},{"NoteNumber":52,"Velocity":60,"Duration":112612,"SoundDuration":112612,"Delta":51968357},{"NoteNumber":40,"Velocity":51,"Duration":112612,"SoundDuration":112612,"Delta":51968357},{"NoteNumber":50,"Velocity":49,"Duration":140746,"SoundDuration":140746,"Delta":52080969},{"NoteNumber":38,"Velocity":38,"Duration":140746,"SoundDuration":140746,"Delta":52080969},{"NoteNumber":40,"Velocity":43,"Duration":170648,"SoundDuration":170648,"Delta":52221715},{"NoteNumber":49,"Velocity":47,"Duration":113765,"SoundDuration":113765,"Delta":52221715},{"NoteNumber":50,"Velocity":41,"Duration":113765,"SoundDuration":113765,"Delta":52335481},{"NoteNumber":52,"Velocity":41,"Duration":113765,"SoundDuration":113765,"Delta":52449247},{"NoteNumber":73,"Velocity":56,"Duration":274724,"SoundDuration":274724,"Delta":52563012},{"NoteNumber":76,"Velocity":56,"Duration":274724,"SoundDuration":274724,"Delta":52563012},{"NoteNumber":54,"Velocity":47,"Duration":122100,"SoundDuration":122100,"Delta":52563012},{"NoteNumber":56,"Velocity":42,"Duration":122099,"SoundDuration":122099,"Delta":52685112},{"NoteNumber":57,"Velocity":42,"Duration":132357,"SoundDuration":132357,"Delta":52807212},{"NoteNumber":73,"Velocity":49,"Duration":101832,"SoundDuration":101832,"Delta":52837737},{"NoteNumber":76,"Velocity":49,"Duration":101832,"SoundDuration":101832,"Delta":52837737},{"NoteNumber":71,"Velocity":55,"Duration":171134,"SoundDuration":171134,"Delta":52939570},{"NoteNumber":74,"Velocity":55,"Duration":171134,"SoundDuration":171134,"Delta":52939570},{"NoteNumber":59,"Velocity":55,"Duration":114089,"SoundDuration":114089,"Delta":52939570},{"NoteNumber":61,"Velocity":56,"Duration":114090,"SoundDuration":114090,"Delta":53053660},{"NoteNumber":62,"Velocity":54,"Duration":114089,"SoundDuration":114089,"Delta":53167750},{"NoteNumber":52,"Velocity":44,"Duration":114089,"SoundDuration":114089,"Delta":53167750},{"NoteNumber":64,"Velocity":57,"Duration":114089,"SoundDuration":114089,"Delta":53281840},{"NoteNumber":50,"Velocity":50,"Duration":114089,"SoundDuration":114089,"Delta":53281840},{"NoteNumber":66,"Velocity":60,"Duration":114089,"SoundDuration":114089,"Delta":53395930},{"NoteNumber":49,"Velocity":53,"Duration":114089,"SoundDuration":114089,"Delta":53395930},{"NoteNumber":68,"Velocity":62,"Duration":129602,"SoundDuration":129602,"Delta":53510020},{"NoteNumber":47,"Velocity":56,"Duration":129602,"SoundDuration":129602,"Delta":53510020},{"NoteNumber":69,"Velocity":57,"Duration":116076,"SoundDuration":116076,"Delta":53639623},{"NoteNumber":45,"Velocity":57,"Duration":174045,"SoundDuration":174045,"Delta":53639623},{"NoteNumber":71,"Velocity":61,"Duration":115839,"SoundDuration":115839,"Delta":53755700},{"NoteNumber":73,"Velocity":62,"Duration":115611,"SoundDuration":115611,"Delta":53871539},{"NoteNumber":74,"Velocity":63,"Duration":115383,"SoundDuration":115383,"Delta":53987150},{"NoteNumber":76,"Velocity":64,"Duration":115074,"SoundDuration":115074,"Delta":54102534},{"NoteNumber":78,"Velocity":65,"Duration":114827,"SoundDuration":114827,"Delta":54217609},{"NoteNumber":80,"Velocity":66,"Duration":114603,"SoundDuration":114603,"Delta":54332436},{"NoteNumber":81,"Velocity":67,"Duration":114381,"SoundDuration":114381,"Delta":54447039},{"NoteNumber":83,"Velocity":68,"Duration":114090,"SoundDuration":114090,"Delta":54561421},{"NoteNumber":85,"Velocity":69,"Duration":113834,"SoundDuration":113834,"Delta":54675511},{"NoteNumber":86,"Velocity":70,"Duration":113614,"SoundDuration":113614,"Delta":54789345},{"NoteNumber":88,"Velocity":71,"Duration":113270,"SoundDuration":113270,"Delta":54902960},{"NoteNumber":86,"Velocity":71,"Duration":112862,"SoundDuration":112862,"Delta":55016231},{"NoteNumber":85,"Velocity":68,"Duration":113196,"SoundDuration":113196,"Delta":55129094},{"NoteNumber":83,"Velocity":65,"Duration":113529,"SoundDuration":113529,"Delta":55242290},{"NoteNumber":81,"Velocity":63,"Duration":113826,"SoundDuration":113826,"Delta":55355820},{"NoteNumber":80,"Velocity":60,"Duration":114165,"SoundDuration":114165,"Delta":55469646},{"NoteNumber":78,"Velocity":58,"Duration":114504,"SoundDuration":114504,"Delta":55583812},{"NoteNumber":76,"Velocity":55,"Duration":114806,"SoundDuration":114806,"Delta":55698316},{"NoteNumber":74,"Velocity":53,"Duration":115151,"SoundDuration":115151,"Delta":55813123},{"NoteNumber":73,"Velocity":50,"Duration":115496,"SoundDuration":115496,"Delta":55928274},{"NoteNumber":71,"Velocity":48,"Duration":115803,"SoundDuration":115803,"Delta":56043771},{"NoteNumber":69,"Velocity":45,"Duration":116154,"SoundDuration":116154,"Delta":56159574},{"NoteNumber":68,"Velocity":43,"Duration":116505,"SoundDuration":116505,"Delta":56275729},{"NoteNumber":69,"Velocity":50,"Duration":364741,"SoundDuration":364741,"Delta":56392235},{"NoteNumber":57,"Velocity":41,"Duration":364741,"SoundDuration":364741,"Delta":56392235},{"NoteNumber":61,"Velocity":39,"Duration":95846,"SoundDuration":95846,"Delta":56756977},{"NoteNumber":49,"Velocity":35,"Duration":95846,"SoundDuration":95846,"Delta":56756977},{"NoteNumber":71,"Velocity":49,"Duration":363635,"SoundDuration":363635,"Delta":57140364},{"NoteNumber":59,"Velocity":41,"Duration":363635,"SoundDuration":363635,"Delta":57140364},{"NoteNumber":64,"Velocity":39,"Duration":90909,"SoundDuration":90909,"Delta":57504000},{"NoteNumber":52,"Velocity":35,"Duration":90909,"SoundDuration":90909,"Delta":57504000},{"NoteNumber":64,"Velocity":40,"Duration":47679,"SoundDuration":47679,"Delta":57831824},{"NoteNumber":52,"Velocity":33,"Duration":47679,"SoundDuration":47679,"Delta":57831824},{"NoteNumber":73,"Velocity":49,"Duration":362976,"SoundDuration":362976,"Delta":57879503},{"NoteNumber":61,"Velocity":41,"Duration":362976,"SoundDuration":362976,"Delta":57879503},{"NoteNumber":69,"Velocity":39,"Duration":94458,"SoundDuration":94458,"Delta":58242479},{"NoteNumber":57,"Velocity":34,"Duration":94458,"SoundDuration":94458,"Delta":58242479},{"NoteNumber":69,"Velocity":40,"Duration":47229,"SoundDuration":47229,"Delta":58573084},{"NoteNumber":57,"Velocity":33,"Duration":47229,"SoundDuration":47229,"Delta":58573084},{"NoteNumber":78,"Velocity":55,"Duration":275566,"SoundDuration":275566,"Delta":58620313},{"NoteNumber":66,"Velocity":45,"Duration":275566,"SoundDuration":275566,"Delta":58620313},{"NoteNumber":75,"Velocity":45,"Duration":91855,"SoundDuration":91855,"Delta":58895880},{"NoteNumber":63,"Velocity":36,"Duration":91855,"SoundDuration":91855,"Delta":58895880},{"NoteNumber":78,"Velocity":53,"Duration":275566,"SoundDuration":275566,"Delta":58987735},{"NoteNumber":66,"Velocity":43,"Duration":275566,"SoundDuration":275566,"Delta":58987735},{"NoteNumber":75,"Velocity":46,"Duration":99140,"SoundDuration":99140,"Delta":59263302},{"NoteNumber":63,"Velocity":35,"Duration":99140,"SoundDuration":99140,"Delta":59263302},{"NoteNumber":64,"Velocity":41,"Duration":363913,"SoundDuration":363913,"Delta":59362442},{"NoteNumber":76,"Velocity":50,"Duration":367339,"SoundDuration":367339,"Delta":59367794},{"NoteNumber":64,"Velocity":39,"Duration":98039,"SoundDuration":98039,"Delta":59729414},{"NoteNumber":52,"Velocity":35,"Duration":98039,"SoundDuration":98039,"Delta":59732682},{"NoteNumber":64,"Velocity":40,"Duration":49019,"SoundDuration":49019,"Delta":60072552},{"NoteNumber":52,"Velocity":33,"Duration":49019,"SoundDuration":49019,"Delta":60072552},{"NoteNumber":74,"Velocity":49,"Duration":368098,"SoundDuration":368098,"Delta":60121571},{"NoteNumber":62,"Velocity":41,"Duration":368098,"SoundDuration":368098,"Delta":60121571},{"NoteNumber":71,"Velocity":39,"Duration":98039,"SoundDuration":98039,"Delta":60489669},{"NoteNumber":59,"Velocity":35,"Duration":98039,"SoundDuration":98039,"Delta":60489669},{"NoteNumber":71,"Velocity":40,"Duration":49019,"SoundDuration":49019,"Delta":60832807},{"NoteNumber":59,"Velocity":33,"Duration":49019,"SoundDuration":49019,"Delta":60832807},{"NoteNumber":73,"Velocity":49,"Duration":362976,"SoundDuration":362976,"Delta":60881826},{"NoteNumber":61,"Velocity":41,"Duration":362976,"SoundDuration":362976,"Delta":60881826},{"NoteNumber":64,"Velocity":39,"Duration":94458,"SoundDuration":94458,"Delta":61244802},{"NoteNumber":52,"Velocity":34,"Duration":94458,"SoundDuration":94458,"Delta":61244802},{"NoteNumber":64,"Velocity":40,"Duration":47229,"SoundDuration":47229,"Delta":61575407},{"NoteNumber":52,"Velocity":33,"Duration":47229,"SoundDuration":47229,"Delta":61575407},{"NoteNumber":71,"Velocity":55,"Duration":275566,"SoundDuration":275566,"Delta":61622636},{"NoteNumber":59,"Velocity":45,"Duration":275566,"SoundDuration":275566,"Delta":61622636},{"NoteNumber":68,"Velocity":45,"Duration":91855,"SoundDuration":91855,"Delta":61898203},{"NoteNumber":56,"Velocity":36,"Duration":91855,"SoundDuration":91855,"Delta":61898203},{"NoteNumber":71,"Velocity":53,"Duration":275566,"SoundDuration":275566,"Delta":61990058},{"NoteNumber":59,"Velocity":43,"Duration":275566,"SoundDuration":275566,"Delta":61990058},{"NoteNumber":68,"Velocity":46,"Duration":99140,"SoundDuration":99140,"Delta":62265625},{"NoteNumber":56,"Velocity":35,"Duration":99140,"SoundDuration":99140,"Delta":62265625},{"NoteNumber":69,"Velocity":50,"Duration":115740,"SoundDuration":115740,"Delta":62364766},{"NoteNumber":49,"Velocity":41,"Duration":347222,"SoundDuration":347222,"Delta":62364766},{"NoteNumber":57,"Velocity":41,"Duration":347222,"SoundDuration":347222,"Delta":62364766},{"NoteNumber":64,"Velocity":44,"Duration":115740,"SoundDuration":115740,"Delta":62480506},{"NoteNumber":69,"Velocity":38,"Duration":115740,"SoundDuration":115740,"Delta":62596247},{"NoteNumber":61,"Velocity":39,"Duration":97087,"SoundDuration":97087,"Delta":62711988},{"NoteNumber":52,"Velocity":35,"Duration":97087,"SoundDuration":97087,"Delta":62715224},{"NoteNumber":71,"Velocity":50,"Duration":115740,"SoundDuration":115740,"Delta":63100338},{"NoteNumber":56,"Velocity":41,"Duration":347222,"SoundDuration":347222,"Delta":63100338},{"NoteNumber":59,"Velocity":41,"Duration":347222,"SoundDuration":347222,"Delta":63100338},{"NoteNumber":68,"Velocity":44,"Duration":115740,"SoundDuration":115740,"Delta":63216078},{"NoteNumber":71,"Velocity":38,"Duration":115740,"SoundDuration":115740,"Delta":63331819},{"NoteNumber":64,"Velocity":39,"Duration":97402,"SoundDuration":97402,"Delta":63447560},{"NoteNumber":52,"Velocity":35,"Duration":97402,"SoundDuration":97402,"Delta":63450806},{"NoteNumber":73,"Velocity":50,"Duration":115740,"SoundDuration":115740,"Delta":63837170},{"NoteNumber":52,"Velocity":41,"Duration":347222,"SoundDuration":347222,"Delta":63837170},{"NoteNumber":61,"Velocity":41,"Duration":347222,"SoundDuration":347222,"Delta":63837170},{"NoteNumber":71,"Velocity":44,"Duration":115740,"SoundDuration":115740,"Delta":63952910},{"NoteNumber":73,"Velocity":38,"Duration":115740,"SoundDuration":115740,"Delta":64068651},{"NoteNumber":69,"Velocity":39,"Duration":90744,"SoundDuration":90744,"Delta":64184392},{"NoteNumber":57,"Velocity":35,"Duration":90744,"SoundDuration":90744,"Delta":64184392},{"NoteNumber":78,"Velocity":55,"Duration":122473,"SoundDuration":122473,"Delta":64547368},{"NoteNumber":63,"Velocity":45,"Duration":275566,"SoundDuration":275566,"Delta":64547368},{"NoteNumber":60,"Velocity":38,"Duration":275566,"SoundDuration":275566,"Delta":64547368},{"NoteNumber":75,"Velocity":47,"Duration":122473,"SoundDuration":122473,"Delta":64669842},{"NoteNumber":78,"Velocity":47,"Duration":122474,"SoundDuration":122474,"Delta":64792316},{"NoteNumber":57,"Velocity":36,"Duration":91855,"SoundDuration":91855,"Delta":64822934},{"NoteNumber":81,"Velocity":55,"Duration":122473,"SoundDuration":122473,"Delta":64914790},{"NoteNumber":63,"Velocity":43,"Duration":275566,"SoundDuration":275566,"Delta":64914790},{"NoteNumber":60,"Velocity":36,"Duration":275566,"SoundDuration":275566,"Delta":64914790},{"NoteNumber":78,"Velocity":47,"Duration":122473,"SoundDuration":122473,"Delta":65037264},{"NoteNumber":75,"Velocity":47,"Duration":129759,"SoundDuration":129759,"Delta":65159738},{"NoteNumber":57,"Velocity":35,"Duration":99140,"SoundDuration":99140,"Delta":65190356},{"NoteNumber":76,"Velocity":50,"Duration":115740,"SoundDuration":115740,"Delta":65289497},{"NoteNumber":64,"Velocity":41,"Duration":344328,"SoundDuration":344328,"Delta":65289497},{"NoteNumber":61,"Velocity":41,"Duration":347222,"SoundDuration":347222,"Delta":65289497},{"NoteNumber":73,"Velocity":44,"Duration":115740,"SoundDuration":115740,"Delta":65405238},{"NoteNumber":76,"Velocity":38,"Duration":115740,"SoundDuration":115740,"Delta":65520978},{"NoteNumber":64,"Velocity":39,"Duration":97719,"SoundDuration":97719,"Delta":65636719},{"NoteNumber":52,"Velocity":35,"Duration":97719,"SoundDuration":97719,"Delta":65639976},{"NoteNumber":74,"Velocity":50,"Duration":115740,"SoundDuration":115740,"Delta":66027598},{"NoteNumber":59,"Velocity":41,"Duration":347222,"SoundDuration":347222,"Delta":66027598},{"NoteNumber":62,"Velocity":41,"Duration":347222,"SoundDuration":347222,"Delta":66027598},{"NoteNumber":73,"Velocity":44,"Duration":115740,"SoundDuration":115740,"Delta":66143339},{"NoteNumber":74,"Velocity":38,"Duration":115740,"SoundDuration":115740,"Delta":66259079},{"NoteNumber":71,"Velocity":39,"Duration":97719,"SoundDuration":97719,"Delta":66374820},{"NoteNumber":52,"Velocity":35,"Duration":97719,"SoundDuration":97719,"Delta":66378077},{"NoteNumber":73,"Velocity":50,"Duration":115740,"SoundDuration":115740,"Delta":66765699},{"NoteNumber":57,"Velocity":41,"Duration":347222,"SoundDuration":347222,"Delta":66765699},{"NoteNumber":61,"Velocity":41,"Duration":347222,"SoundDuration":347222,"Delta":66765699},{"NoteNumber":69,"Velocity":44,"Duration":115740,"SoundDuration":115740,"Delta":66881440},{"NoteNumber":73,"Velocity":38,"Duration":115740,"SoundDuration":115740,"Delta":66997180},{"NoteNumber":64,"Velocity":39,"Duration":97402,"SoundDuration":97402,"Delta":67112921},{"NoteNumber":52,"Velocity":35,"Duration":97402,"SoundDuration":97402,"Delta":67112921},{"NoteNumber":71,"Velocity":55,"Duration":275566,"SoundDuration":275566,"Delta":67502531},{"NoteNumber":56,"Velocity":38,"Duration":275566,"SoundDuration":275566,"Delta":67502531},{"NoteNumber":59,"Velocity":45,"Duration":275566,"SoundDuration":275566,"Delta":67502531},{"NoteNumber":68,"Velocity":45,"Duration":91855,"SoundDuration":91855,"Delta":67778097},{"NoteNumber":52,"Velocity":36,"Duration":91855,"SoundDuration":91855,"Delta":67778097},{"NoteNumber":71,"Velocity":53,"Duration":275566,"SoundDuration":275566,"Delta":67869953},{"NoteNumber":56,"Velocity":36,"Duration":275566,"SoundDuration":275566,"Delta":67869953},{"NoteNumber":59,"Velocity":43,"Duration":275566,"SoundDuration":275566,"Delta":67869953},{"NoteNumber":68,"Velocity":46,"Duration":125733,"SoundDuration":125733,"Delta":68145519},{"NoteNumber":52,"Velocity":35,"Duration":125733,"SoundDuration":125733,"Delta":68145519},{"NoteNumber":71,"Velocity":78,"Duration":156250,"SoundDuration":156250,"Delta":68271253},{"NoteNumber":59,"Velocity":69,"Duration":156250,"SoundDuration":156250,"Delta":68271253},{"NoteNumber":62,"Velocity":62,"Duration":156250,"SoundDuration":156250,"Delta":68427503},{"NoteNumber":50,"Velocity":53,"Duration":156250,"SoundDuration":156250,"Delta":68427503},{"NoteNumber":71,"Velocity":62,"Duration":176211,"SoundDuration":176211,"Delta":68583753},{"NoteNumber":59,"Velocity":53,"Duration":176211,"SoundDuration":176211,"Delta":68583753},{"NoteNumber":55,"Velocity":78,"Duration":820312,"SoundDuration":820312,"Delta":68759964},{"NoteNumber":43,"Velocity":71,"Duration":820312,"SoundDuration":820312,"Delta":68759964},{"NoteNumber":71,"Velocity":59,"Duration":117187,"SoundDuration":117187,"Delta":69580277},{"NoteNumber":62,"Velocity":59,"Duration":117187,"SoundDuration":117187,"Delta":69580277},{"NoteNumber":50,"Velocity":48,"Duration":117187,"SoundDuration":117187,"Delta":69580277},{"NoteNumber":59,"Velocity":48,"Duration":117187,"SoundDuration":117187,"Delta":69580277},{"NoteNumber":55,"Velocity":78,"Duration":351562,"SoundDuration":351562,"Delta":69697464},{"NoteNumber":43,"Velocity":62,"Duration":351562,"SoundDuration":351562,"Delta":69697464},{"NoteNumber":62,"Velocity":62,"Duration":131579,"SoundDuration":131579,"Delta":70049027},{"NoteNumber":50,"Velocity":53,"Duration":131579,"SoundDuration":131579,"Delta":70049027},{"NoteNumber":71,"Velocity":75,"Duration":143574,"SoundDuration":143574,"Delta":70180606},{"NoteNumber":59,"Velocity":71,"Duration":143574,"SoundDuration":143574,"Delta":70180606},{"NoteNumber":62,"Velocity":56,"Duration":143574,"SoundDuration":143574,"Delta":70324181},{"NoteNumber":50,"Velocity":53,"Duration":143574,"SoundDuration":143574,"Delta":70324181},{"NoteNumber":71,"Velocity":56,"Duration":166944,"SoundDuration":166944,"Delta":70467756},{"NoteNumber":59,"Velocity":53,"Duration":166944,"SoundDuration":166944,"Delta":70467756},{"NoteNumber":55,"Velocity":74,"Duration":820312,"SoundDuration":820312,"Delta":70634701},{"NoteNumber":43,"Velocity":68,"Duration":820312,"SoundDuration":820312,"Delta":70634701},{"NoteNumber":71,"Velocity":59,"Duration":117187,"SoundDuration":117187,"Delta":71455013},{"NoteNumber":62,"Velocity":59,"Duration":117187,"SoundDuration":117187,"Delta":71455013},{"NoteNumber":50,"Velocity":48,"Duration":117187,"SoundDuration":117187,"Delta":71455013},{"NoteNumber":59,"Velocity":48,"Duration":117187,"SoundDuration":117187,"Delta":71455013},{"NoteNumber":55,"Velocity":74,"Duration":820312,"SoundDuration":820312,"Delta":71572201},{"NoteNumber":43,"Velocity":62,"Duration":820312,"SoundDuration":820312,"Delta":71572201},{"NoteNumber":62,"Velocity":52,"Duration":132158,"SoundDuration":132158,"Delta":72392513},{"NoteNumber":71,"Velocity":62,"Duration":132158,"SoundDuration":132158,"Delta":72392513},{"NoteNumber":50,"Velocity":45,"Duration":132158,"SoundDuration":132158,"Delta":72392513},{"NoteNumber":59,"Velocity":53,"Duration":132158,"SoundDuration":132158,"Delta":72392513},{"NoteNumber":55,"Velocity":74,"Duration":796661,"SoundDuration":796661,"Delta":72524672},{"NoteNumber":43,"Velocity":62,"Duration":796661,"SoundDuration":796661,"Delta":72524672},{"NoteNumber":62,"Velocity":52,"Duration":113808,"SoundDuration":113808,"Delta":73321333},{"NoteNumber":71,"Velocity":62,"Duration":113808,"SoundDuration":113808,"Delta":73321333},{"NoteNumber":50,"Velocity":45,"Duration":113808,"SoundDuration":113808,"Delta":73321333},{"NoteNumber":59,"Velocity":53,"Duration":113808,"SoundDuration":113808,"Delta":73321333},{"NoteNumber":55,"Velocity":74,"Duration":341426,"SoundDuration":341426,"Delta":73435142},{"NoteNumber":43,"Velocity":62,"Duration":341426,"SoundDuration":341426,"Delta":73435142},{"NoteNumber":71,"Velocity":62,"Duration":113808,"SoundDuration":113808,"Delta":73776568},{"NoteNumber":62,"Velocity":52,"Duration":113808,"SoundDuration":113808,"Delta":73776568},{"NoteNumber":55,"Velocity":53,"Duration":113808,"SoundDuration":113808,"Delta":73776568},{"NoteNumber":72,"Velocity":79,"Duration":145666,"SoundDuration":145666,"Delta":73890377},{"NoteNumber":48,"Velocity":71,"Duration":145666,"SoundDuration":145666,"Delta":73890377},{"NoteNumber":64,"Velocity":62,"Duration":145666,"SoundDuration":145666,"Delta":74036043},{"NoteNumber":55,"Velocity":53,"Duration":145666,"SoundDuration":145666,"Delta":74036043},{"NoteNumber":72,"Velocity":62,"Duration":182648,"SoundDuration":182648,"Delta":74181709},{"NoteNumber":48,"Velocity":53,"Duration":182648,"SoundDuration":182648,"Delta":74181709},{"NoteNumber":76,"Velocity":81,"Duration":810810,"SoundDuration":810810,"Delta":74364358},{"NoteNumber":36,"Velocity":69,"Duration":810810,"SoundDuration":810810,"Delta":74364358},{"NoteNumber":64,"Velocity":59,"Duration":115830,"SoundDuration":115830,"Delta":75175168},{"NoteNumber":48,"Velocity":48,"Duration":115830,"SoundDuration":115830,"Delta":75175168},{"NoteNumber":55,"Velocity":48,"Duration":115830,"SoundDuration":115830,"Delta":75175168},{"NoteNumber":72,"Velocity":62,"Duration":347489,"SoundDuration":347489,"Delta":75290998},{"NoteNumber":76,"Velocity":74,"Duration":347489,"SoundDuration":347489,"Delta":75290998},{"NoteNumber":36,"Velocity":62,"Duration":347489,"SoundDuration":347489,"Delta":75290998},{"NoteNumber":64,"Velocity":62,"Duration":136986,"SoundDuration":136986,"Delta":75638488},{"NoteNumber":55,"Velocity":53,"Duration":136986,"SoundDuration":136986,"Delta":75638488},{"NoteNumber":72,"Velocity":71,"Duration":147275,"SoundDuration":147275,"Delta":75775474},{"NoteNumber":48,"Velocity":62,"Duration":147275,"SoundDuration":147275,"Delta":75775474},{"NoteNumber":64,"Velocity":56,"Duration":147275,"SoundDuration":147275,"Delta":75922749},{"NoteNumber":55,"Velocity":53,"Duration":147275,"SoundDuration":147275,"Delta":75922749},{"NoteNumber":72,"Velocity":56,"Duration":178571,"SoundDuration":178571,"Delta":76070025},{"NoteNumber":48,"Velocity":53,"Duration":178571,"SoundDuration":178571,"Delta":76070025},{"NoteNumber":76,"Velocity":74,"Duration":820312,"SoundDuration":820312,"Delta":76248596},{"NoteNumber":36,"Velocity":62,"Duration":820312,"SoundDuration":820312,"Delta":76248596},{"NoteNumber":64,"Velocity":59,"Duration":126050,"SoundDuration":126050,"Delta":77068909},{"NoteNumber":48,"Velocity":48,"Duration":126050,"SoundDuration":126050,"Delta":77068909},{"NoteNumber":55,"Velocity":48,"Duration":126050,"SoundDuration":126050,"Delta":77068909},{"NoteNumber":72,"Velocity":74,"Duration":820312,"SoundDuration":820312,"Delta":77194959},{"NoteNumber":76,"Velocity":74,"Duration":820312,"SoundDuration":820312,"Delta":77194959},{"NoteNumber":36,"Velocity":62,"Duration":820312,"SoundDuration":820312,"Delta":77194959},{"NoteNumber":64,"Velocity":62,"Duration":125208,"SoundDuration":125208,"Delta":78015272},{"NoteNumber":48,"Velocity":45,"Duration":125208,"SoundDuration":125208,"Delta":78015272},{"NoteNumber":55,"Velocity":53,"Duration":125208,"SoundDuration":125208,"Delta":78015272},{"NoteNumber":72,"Velocity":74,"Duration":826771,"SoundDuration":826771,"Delta":78140480},{"NoteNumber":76,"Velocity":80,"Duration":826771,"SoundDuration":826771,"Delta":78140480},{"NoteNumber":36,"Velocity":62,"Duration":826771,"SoundDuration":826771,"Delta":78140480},{"NoteNumber":64,"Velocity":53,"Duration":143816,"SoundDuration":143816,"Delta":78967252},{"NoteNumber":40,"Velocity":41,"Duration":143816,"SoundDuration":143816,"Delta":78967252},{"NoteNumber":68,"Velocity":57,"Duration":860655,"SoundDuration":860655,"Delta":79111068},{"NoteNumber":74,"Velocity":57,"Duration":860655,"SoundDuration":860655,"Delta":79111068},{"NoteNumber":76,"Velocity":63,"Duration":860655,"SoundDuration":860655,"Delta":79111068},{"NoteNumber":35,"Velocity":45,"Duration":860655,"SoundDuration":860655,"Delta":79111068},{"NoteNumber":64,"Velocity":42,"Duration":150000,"SoundDuration":150000,"Delta":79971723},{"NoteNumber":40,"Velocity":33,"Duration":150000,"SoundDuration":150000,"Delta":79971723},{"NoteNumber":68,"Velocity":44,"Duration":407239,"SoundDuration":407239,"Delta":80121723},{"NoteNumber":74,"Velocity":44,"Duration":407239,"SoundDuration":407239,"Delta":80121723},{"NoteNumber":76,"Velocity":53,"Duration":407239,"SoundDuration":407239,"Delta":80121723},{"NoteNumber":35,"Velocity":37,"Duration":407239,"SoundDuration":407239,"Delta":80121723},{"NoteNumber":64,"Velocity":42,"Duration":135746,"SoundDuration":135746,"Delta":80528963},{"NoteNumber":40,"Velocity":32,"Duration":135746,"SoundDuration":135746,"Delta":80528963},{"NoteNumber":68,"Velocity":41,"Duration":428571,"SoundDuration":428571,"Delta":80664709},{"NoteNumber":74,"Velocity":41,"Duration":428571,"SoundDuration":428571,"Delta":80664709},{"NoteNumber":76,"Velocity":48,"Duration":428571,"SoundDuration":428571,"Delta":80664709},{"NoteNumber":35,"Velocity":34,"Duration":428571,"SoundDuration":428571,"Delta":80664709},{"NoteNumber":64,"Velocity":39,"Duration":171428,"SoundDuration":171428,"Delta":81093281},{"NoteNumber":40,"Velocity":29,"Duration":171428,"SoundDuration":171428,"Delta":81093281},{"NoteNumber":68,"Velocity":37,"Duration":443349,"SoundDuration":443349,"Delta":81264710},{"NoteNumber":74,"Velocity":37,"Duration":443349,"SoundDuration":443349,"Delta":81264710},{"NoteNumber":76,"Velocity":44,"Duration":443349,"SoundDuration":443349,"Delta":81264710},{"NoteNumber":35,"Velocity":31,"Duration":443349,"SoundDuration":443349,"Delta":81264710},{"NoteNumber":64,"Velocity":35,"Duration":189873,"SoundDuration":189873,"Delta":81708059},{"NoteNumber":40,"Velocity":27,"Duration":189873,"SoundDuration":189873,"Delta":81708059},{"NoteNumber":69,"Velocity":42,"Duration":87209,"SoundDuration":87209,"Delta":81897933},{"NoteNumber":73,"Velocity":42,"Duration":87209,"SoundDuration":87209,"Delta":81897933},{"NoteNumber":76,"Velocity":50,"Duration":87209,"SoundDuration":87209,"Delta":81897933},{"NoteNumber":33,"Velocity":31,"Duration":87209,"SoundDuration":87209,"Delta":81897933},{"NoteNumber":64,"Velocity":39,"Duration":116278,"SoundDuration":116278,"Delta":82014212},{"NoteNumber":69,"Velocity":41,"Duration":116174,"SoundDuration":116174,"Delta":82130491},{"NoteNumber":73,"Velocity":42,"Duration":115606,"SoundDuration":115606,"Delta":82246665},{"NoteNumber":76,"Velocity":44,"Duration":115288,"SoundDuration":115288,"Delta":82362272},{"NoteNumber":81,"Velocity":45,"Duration":115023,"SoundDuration":115023,"Delta":82477560},{"NoteNumber":76,"Velocity":47,"Duration":114759,"SoundDuration":114759,"Delta":82592583},{"NoteNumber":69,"Velocity":45,"Duration":114496,"SoundDuration":114496,"Delta":82707343},{"NoteNumber":57,"Velocity":38,"Duration":114496,"SoundDuration":114496,"Delta":82707343},{"NoteNumber":73,"Velocity":49,"Duration":114208,"SoundDuration":114208,"Delta":82821839},{"NoteNumber":61,"Velocity":40,"Duration":114208,"SoundDuration":114208,"Delta":82821839},{"NoteNumber":76,"Velocity":52,"Duration":115160,"SoundDuration":115160,"Delta":82936048},{"NoteNumber":64,"Velocity":42,"Duration":115160,"SoundDuration":115160,"Delta":82936048},{"NoteNumber":81,"Velocity":52,"Duration":115942,"SoundDuration":115942,"Delta":83051208},{"NoteNumber":69,"Velocity":41,"Duration":115942,"SoundDuration":115942,"Delta":83051208},{"NoteNumber":85,"Velocity":47,"Duration":126182,"SoundDuration":126182,"Delta":83167150},{"NoteNumber":73,"Velocity":38,"Duration":126182,"SoundDuration":126182,"Delta":83167150},{"NoteNumber":76,"Velocity":52,"Duration":113960,"SoundDuration":113960,"Delta":83293333},{"NoteNumber":64,"Velocity":42,"Duration":170940,"SoundDuration":170940,"Delta":83293333},{"NoteNumber":78,"Velocity":45,"Duration":113959,"SoundDuration":113959,"Delta":83407293},{"NoteNumber":76,"Velocity":45,"Duration":113960,"SoundDuration":113960,"Delta":83521253},{"NoteNumber":74,"Velocity":52,"Duration":115942,"SoundDuration":115942,"Delta":83635213},{"NoteNumber":62,"Velocity":34,"Duration":86956,"SoundDuration":86956,"Delta":83635213},{"NoteNumber":59,"Velocity":28,"Duration":86956,"SoundDuration":86956,"Delta":83635213},{"NoteNumber":52,"Velocity":28,"Duration":86956,"SoundDuration":86956,"Delta":83635213},{"NoteNumber":78,"Velocity":47,"Duration":115941,"SoundDuration":115941,"Delta":83751155},{"NoteNumber":74,"Velocity":47,"Duration":115942,"SoundDuration":115942,"Delta":83867097},{"NoteNumber":73,"Velocity":53,"Duration":115942,"SoundDuration":115942,"Delta":83983039},{"NoteNumber":61,"Velocity":34,"Duration":86956,"SoundDuration":86956,"Delta":83983039},{"NoteNumber":57,"Velocity":28,"Duration":86956,"SoundDuration":86956,"Delta":83983039},{"NoteNumber":52,"Velocity":28,"Duration":86956,"SoundDuration":86956,"Delta":83983039},{"NoteNumber":76,"Velocity":47,"Duration":115942,"SoundDuration":115942,"Delta":84098981},{"NoteNumber":73,"Velocity":47,"Duration":115941,"SoundDuration":115941,"Delta":84214923},{"NoteNumber":71,"Velocity":52,"Duration":115942,"SoundDuration":115942,"Delta":84330865},{"NoteNumber":59,"Velocity":34,"Duration":86956,"SoundDuration":86956,"Delta":84330865},{"NoteNumber":56,"Velocity":28,"Duration":86956,"SoundDuration":86956,"Delta":84330865},{"NoteNumber":52,"Velocity":28,"Duration":86956,"SoundDuration":86956,"Delta":84330865},{"NoteNumber":74,"Velocity":47,"Duration":115942,"SoundDuration":115942,"Delta":84446807},{"NoteNumber":71,"Velocity":47,"Duration":125000,"SoundDuration":125000,"Delta":84562749},{"NoteNumber":69,"Velocity":50,"Duration":116279,"SoundDuration":116279,"Delta":84687749},{"NoteNumber":57,"Velocity":31,"Duration":174418,"SoundDuration":174418,"Delta":84687749},{"NoteNumber":61,"Velocity":37,"Duration":174418,"SoundDuration":174418,"Delta":84687749},{"NoteNumber":64,"Velocity":39,"Duration":116278,"SoundDuration":116278,"Delta":84804028},{"NoteNumber":69,"Velocity":41,"Duration":116174,"SoundDuration":116174,"Delta":84920307},{"NoteNumber":73,"Velocity":42,"Duration":115606,"SoundDuration":115606,"Delta":85036481},{"NoteNumber":76,"Velocity":44,"Duration":115288,"SoundDuration":115288,"Delta":85152088},{"NoteNumber":81,"Velocity":45,"Duration":115023,"SoundDuration":115023,"Delta":85267376},{"NoteNumber":76,"Velocity":47,"Duration":114759,"SoundDuration":114759,"Delta":85382400},{"NoteNumber":69,"Velocity":45,"Duration":114496,"SoundDuration":114496,"Delta":85497159},{"NoteNumber":57,"Velocity":38,"Duration":114496,"SoundDuration":114496,"Delta":85497159},{"NoteNumber":73,"Velocity":49,"Duration":114208,"SoundDuration":114208,"Delta":85611656},{"NoteNumber":61,"Velocity":40,"Duration":114208,"SoundDuration":114208,"Delta":85611656},{"NoteNumber":76,"Velocity":52,"Duration":115160,"SoundDuration":115160,"Delta":85725864},{"NoteNumber":64,"Velocity":42,"Duration":115160,"SoundDuration":115160,"Delta":85725864},{"NoteNumber":81,"Velocity":52,"Duration":115942,"SoundDuration":115942,"Delta":85841024},{"NoteNumber":69,"Velocity":41,"Duration":115942,"SoundDuration":115942,"Delta":85841024},{"NoteNumber":85,"Velocity":47,"Duration":126182,"SoundDuration":126182,"Delta":85956966},{"NoteNumber":73,"Velocity":38,"Duration":126182,"SoundDuration":126182,"Delta":85956966},{"NoteNumber":76,"Velocity":52,"Duration":113960,"SoundDuration":113960,"Delta":86083149},{"NoteNumber":64,"Velocity":42,"Duration":170940,"SoundDuration":170940,"Delta":86083149},{"NoteNumber":78,"Velocity":45,"Duration":113959,"SoundDuration":113959,"Delta":86197109},{"NoteNumber":76,"Velocity":45,"Duration":113960,"SoundDuration":113960,"Delta":86311069},{"NoteNumber":74,"Velocity":52,"Duration":115942,"SoundDuration":115942,"Delta":86425029},{"NoteNumber":62,"Velocity":34,"Duration":86956,"SoundDuration":86956,"Delta":86425029},{"NoteNumber":59,"Velocity":28,"Duration":86956,"SoundDuration":86956,"Delta":86425029},{"NoteNumber":52,"Velocity":28,"Duration":86956,"SoundDuration":86956,"Delta":86425029},{"NoteNumber":76,"Velocity":47,"Duration":115941,"SoundDuration":115941,"Delta":86540971},{"NoteNumber":74,"Velocity":47,"Duration":115942,"SoundDuration":115942,"Delta":86656913},{"NoteNumber":73,"Velocity":53,"Duration":115942,"SoundDuration":115942,"Delta":86772855},{"NoteNumber":61,"Velocity":34,"Duration":86956,"SoundDuration":86956,"Delta":86772855},{"NoteNumber":57,"Velocity":28,"Duration":86956,"SoundDuration":86956,"Delta":86772855},{"NoteNumber":52,"Velocity":28,"Duration":86956,"SoundDuration":86956,"Delta":86772855},{"NoteNumber":74,"Velocity":47,"Duration":115942,"SoundDuration":115942,"Delta":86888797},{"NoteNumber":73,"Velocity":47,"Duration":115941,"SoundDuration":115941,"Delta":87004739},{"NoteNumber":71,"Velocity":52,"Duration":115942,"SoundDuration":115942,"Delta":87120681},{"NoteNumber":59,"Velocity":34,"Duration":86956,"SoundDuration":86956,"Delta":87120681},{"NoteNumber":56,"Velocity":28,"Duration":86956,"SoundDuration":86956,"Delta":87120681},{"NoteNumber":52,"Velocity":28,"Duration":86956,"SoundDuration":86956,"Delta":87120681},{"NoteNumber":73,"Velocity":47,"Duration":115942,"SoundDuration":115942,"Delta":87236623},{"NoteNumber":71,"Velocity":47,"Duration":148148,"SoundDuration":148148,"Delta":87352565},{"NoteNumber":61,"Velocity":42,"Duration":125786,"SoundDuration":125786,"Delta":87500713},{"NoteNumber":57,"Velocity":41,"Duration":377358,"SoundDuration":377358,"Delta":87500713},{"NoteNumber":64,"Velocity":37,"Duration":125785,"SoundDuration":125785,"Delta":87626499},{"NoteNumber":61,"Velocity":37,"Duration":125786,"SoundDuration":125786,"Delta":87752285},{"NoteNumber":64,"Velocity":43,"Duration":125786,"SoundDuration":125786,"Delta":87878071},{"NoteNumber":49,"Velocity":35,"Duration":188678,"SoundDuration":188678,"Delta":87878071},{"NoteNumber":69,"Velocity":36,"Duration":125785,"SoundDuration":125785,"Delta":88003857},{"NoteNumber":64,"Velocity":37,"Duration":123674,"SoundDuration":123674,"Delta":88129643},{"NoteNumber":64,"Velocity":43,"Duration":126182,"SoundDuration":126182,"Delta":88270986},{"NoteNumber":59,"Velocity":40,"Duration":378549,"SoundDuration":378549,"Delta":88270986},{"NoteNumber":68,"Velocity":37,"Duration":126182,"SoundDuration":126182,"Delta":88397169},{"NoteNumber":64,"Velocity":38,"Duration":126183,"SoundDuration":126183,"Delta":88523352},{"NoteNumber":68,"Velocity":43,"Duration":126182,"SoundDuration":126182,"Delta":88649535},{"NoteNumber":52,"Velocity":33,"Duration":189274,"SoundDuration":189274,"Delta":88649535},{"NoteNumber":71,"Velocity":39,"Duration":126182,"SoundDuration":126182,"Delta":88775718},{"NoteNumber":68,"Velocity":39,"Duration":141342,"SoundDuration":141342,"Delta":88901901},{"NoteNumber":64,"Velocity":43,"Duration":125000,"SoundDuration":125000,"Delta":89043243},{"NoteNumber":61,"Velocity":42,"Duration":375000,"SoundDuration":375000,"Delta":89043243},{"NoteNumber":69,"Velocity":38,"Duration":125000,"SoundDuration":125000,"Delta":89168243},{"NoteNumber":64,"Velocity":38,"Duration":125000,"SoundDuration":125000,"Delta":89293243},{"NoteNumber":69,"Velocity":43,"Duration":125000,"SoundDuration":125000,"Delta":89418243},{"NoteNumber":57,"Velocity":34,"Duration":187500,"SoundDuration":187500,"Delta":89418243},{"NoteNumber":73,"Velocity":38,"Duration":125000,"SoundDuration":125000,"Delta":89543243},{"NoteNumber":69,"Velocity":38,"Duration":120274,"SoundDuration":120274,"Delta":89668243},{"NoteNumber":69,"Velocity":43,"Duration":121951,"SoundDuration":121951,"Delta":89805700},{"NoteNumber":66,"Velocity":40,"Duration":274390,"SoundDuration":274390,"Delta":89805700},{"NoteNumber":72,"Velocity":37,"Duration":121951,"SoundDuration":121951,"Delta":89927652},{"NoteNumber":69,"Velocity":37,"Duration":121951,"SoundDuration":121951,"Delta":90049603},{"NoteNumber":63,"Velocity":30,"Duration":91463,"SoundDuration":91463,"Delta":90080091},{"NoteNumber":72,"Velocity":43,"Duration":121951,"SoundDuration":121951,"Delta":90171554},{"NoteNumber":66,"Velocity":37,"Duration":277125,"SoundDuration":277125,"Delta":90171554},{"NoteNumber":75,"Velocity":37,"Duration":121951,"SoundDuration":121951,"Delta":90293506},{"NoteNumber":72,"Velocity":37,"Duration":132890,"SoundDuration":132890,"Delta":90415457},{"NoteNumber":63,"Velocity":34,"Duration":99667,"SoundDuration":99667,"Delta":90448680},{"NoteNumber":69,"Velocity":42,"Duration":123839,"SoundDuration":123839,"Delta":90548347},{"NoteNumber":64,"Velocity":41,"Duration":371516,"SoundDuration":371516,"Delta":90548347},{"NoteNumber":73,"Velocity":37,"Duration":123838,"SoundDuration":123838,"Delta":90672186},{"NoteNumber":69,"Velocity":37,"Duration":123839,"SoundDuration":123839,"Delta":90796025},{"NoteNumber":73,"Velocity":43,"Duration":123839,"SoundDuration":123839,"Delta":90919864},{"NoteNumber":52,"Velocity":35,"Duration":185758,"SoundDuration":185758,"Delta":90919864},{"NoteNumber":76,"Velocity":36,"Duration":123838,"SoundDuration":123838,"Delta":91043703},{"NoteNumber":73,"Velocity":37,"Duration":122377,"SoundDuration":122377,"Delta":91167542},{"NoteNumber":64,"Velocity":43,"Duration":123839,"SoundDuration":123839,"Delta":91307402},{"NoteNumber":62,"Velocity":40,"Duration":371516,"SoundDuration":371516,"Delta":91307402},{"NoteNumber":71,"Velocity":37,"Duration":123838,"SoundDuration":123838,"Delta":91431241},{"NoteNumber":64,"Velocity":38,"Duration":123839,"SoundDuration":123839,"Delta":91555080},{"NoteNumber":71,"Velocity":43,"Duration":123839,"SoundDuration":123839,"Delta":91678919},{"NoteNumber":59,"Velocity":33,"Duration":185758,"SoundDuration":185758,"Delta":91678919},{"NoteNumber":74,"Velocity":39,"Duration":123838,"SoundDuration":123838,"Delta":91802758},{"NoteNumber":71,"Velocity":39,"Duration":139372,"SoundDuration":139372,"Delta":91926597},{"NoteNumber":64,"Velocity":43,"Duration":123839,"SoundDuration":123839,"Delta":92065970},{"NoteNumber":61,"Velocity":42,"Duration":371516,"SoundDuration":371516,"Delta":92065970},{"NoteNumber":69,"Velocity":38,"Duration":123838,"SoundDuration":123838,"Delta":92189809},{"NoteNumber":64,"Velocity":38,"Duration":123839,"SoundDuration":123839,"Delta":92313648},{"NoteNumber":69,"Velocity":43,"Duration":123839,"SoundDuration":123839,"Delta":92437487},{"NoteNumber":52,"Velocity":34,"Duration":185758,"SoundDuration":185758,"Delta":92437487},{"NoteNumber":73,"Velocity":38,"Duration":123838,"SoundDuration":123838,"Delta":92561326},{"NoteNumber":69,"Velocity":38,"Duration":120274,"SoundDuration":120274,"Delta":92685165},{"NoteNumber":64,"Velocity":43,"Duration":119760,"SoundDuration":119760,"Delta":92822622},{"NoteNumber":59,"Velocity":40,"Duration":269460,"SoundDuration":269460,"Delta":92822622},{"NoteNumber":68,"Velocity":37,"Duration":119760,"SoundDuration":119760,"Delta":92942382},{"NoteNumber":64,"Velocity":37,"Duration":119760,"SoundDuration":119760,"Delta":93062143},{"NoteNumber":56,"Velocity":30,"Duration":89820,"SoundDuration":89820,"Delta":93092083},{"NoteNumber":68,"Velocity":43,"Duration":119760,"SoundDuration":119760,"Delta":93181903},{"NoteNumber":59,"Velocity":37,"Duration":281893,"SoundDuration":281893,"Delta":93181903},{"NoteNumber":71,"Velocity":37,"Duration":119760,"SoundDuration":119760,"Delta":93301663},{"NoteNumber":68,"Velocity":37,"Duration":169491,"SoundDuration":169491,"Delta":93421424},{"NoteNumber":52,"Velocity":34,"Duration":127118,"SoundDuration":127118,"Delta":93463797},{"NoteNumber":73,"Velocity":44,"Duration":115606,"SoundDuration":115606,"Delta":93590915},{"NoteNumber":69,"Velocity":43,"Duration":115606,"SoundDuration":115606,"Delta":93590915},{"NoteNumber":76,"Velocity":39,"Duration":115606,"SoundDuration":115606,"Delta":93706522},{"NoteNumber":64,"Velocity":36,"Duration":115606,"SoundDuration":115606,"Delta":93706522},{"NoteNumber":73,"Velocity":39,"Duration":115607,"SoundDuration":115607,"Delta":93822129},{"NoteNumber":69,"Velocity":36,"Duration":115607,"SoundDuration":115607,"Delta":93822129},{"NoteNumber":76,"Velocity":46,"Duration":115606,"SoundDuration":115606,"Delta":93937736},{"NoteNumber":61,"Velocity":42,"Duration":173410,"SoundDuration":173410,"Delta":93937736},{"NoteNumber":81,"Velocity":39,"Duration":115606,"SoundDuration":115606,"Delta":94053343},{"NoteNumber":76,"Velocity":40,"Duration":115894,"SoundDuration":115894,"Delta":94168950},{"NoteNumber":76,"Velocity":47,"Duration":115942,"SoundDuration":115942,"Delta":94301401},{"NoteNumber":71,"Velocity":44,"Duration":115942,"SoundDuration":115942,"Delta":94301401},{"NoteNumber":80,"Velocity":41,"Duration":115941,"SoundDuration":115941,"Delta":94417343},{"NoteNumber":68,"Velocity":38,"Duration":115941,"SoundDuration":115941,"Delta":94417343},{"NoteNumber":76,"Velocity":42,"Duration":115942,"SoundDuration":115942,"Delta":94533285},{"NoteNumber":71,"Velocity":38,"Duration":115942,"SoundDuration":115942,"Delta":94533285},{"NoteNumber":80,"Velocity":49,"Duration":115942,"SoundDuration":115942,"Delta":94649227},{"NoteNumber":64,"Velocity":44,"Duration":173912,"SoundDuration":173912,"Delta":94649227},{"NoteNumber":83,"Velocity":44,"Duration":115941,"SoundDuration":115941,"Delta":94765169},{"NoteNumber":80,"Velocity":45,"Duration":131579,"SoundDuration":131579,"Delta":94881111},{"NoteNumber":76,"Velocity":50,"Duration":116279,"SoundDuration":116279,"Delta":95012690},{"NoteNumber":73,"Velocity":49,"Duration":116279,"SoundDuration":116279,"Delta":95012690},{"NoteNumber":81,"Velocity":44,"Duration":116278,"SoundDuration":116278,"Delta":95128969},{"NoteNumber":71,"Velocity":41,"Duration":116278,"SoundDuration":116278,"Delta":95128969},{"NoteNumber":76,"Velocity":45,"Duration":116279,"SoundDuration":116279,"Delta":95245248},{"NoteNumber":73,"Velocity":41,"Duration":116279,"SoundDuration":116279,"Delta":95245248},{"NoteNumber":81,"Velocity":51,"Duration":116278,"SoundDuration":116278,"Delta":95361527},{"NoteNumber":69,"Velocity":49,"Duration":174418,"SoundDuration":174418,"Delta":95361527},{"NoteNumber":85,"Velocity":45,"Duration":116279,"SoundDuration":116279,"Delta":95477806},{"NoteNumber":81,"Velocity":46,"Duration":112903,"SoundDuration":112903,"Delta":95594085},{"NoteNumber":81,"Velocity":52,"Duration":119760,"SoundDuration":119760,"Delta":95723117},{"NoteNumber":78,"Velocity":49,"Duration":269460,"SoundDuration":269460,"Delta":95723117},{"NoteNumber":84,"Velocity":45,"Duration":119760,"SoundDuration":119760,"Delta":95842877},{"NoteNumber":81,"Velocity":46,"Duration":119760,"SoundDuration":119760,"Delta":95962638},{"NoteNumber":75,"Velocity":37,"Duration":89820,"SoundDuration":89820,"Delta":95992578},{"NoteNumber":84,"Velocity":54,"Duration":119760,"SoundDuration":119760,"Delta":96082398},{"NoteNumber":78,"Velocity":46,"Duration":272743,"SoundDuration":272743,"Delta":96082398},{"NoteNumber":87,"Velocity":46,"Duration":119760,"SoundDuration":119760,"Delta":96202158},{"NoteNumber":84,"Velocity":47,"Duration":132890,"SoundDuration":132890,"Delta":96321919},{"NoteNumber":75,"Velocity":43,"Duration":99667,"SoundDuration":99667,"Delta":96355141},{"NoteNumber":81,"Velocity":55,"Duration":121951,"SoundDuration":121951,"Delta":96454809},{"NoteNumber":78,"Velocity":54,"Duration":365853,"SoundDuration":365853,"Delta":96454809},{"NoteNumber":84,"Velocity":49,"Duration":121951,"SoundDuration":121951,"Delta":96576760},{"NoteNumber":81,"Velocity":49,"Duration":121951,"SoundDuration":121951,"Delta":96698712},{"NoteNumber":84,"Velocity":55,"Duration":121951,"SoundDuration":121951,"Delta":96820663},{"NoteNumber":75,"Velocity":44,"Duration":182927,"SoundDuration":182927,"Delta":96820663},{"NoteNumber":87,"Velocity":49,"Duration":121951,"SoundDuration":121951,"Delta":96942614},{"NoteNumber":84,"Velocity":49,"Duration":112903,"SoundDuration":112903,"Delta":97064566},{"NoteNumber":81,"Velocity":43,"Duration":121951,"SoundDuration":121951,"Delta":97193598},{"NoteNumber":78,"Velocity":42,"Duration":365853,"SoundDuration":365853,"Delta":97193598},{"NoteNumber":84,"Velocity":37,"Duration":121951,"SoundDuration":121951,"Delta":97315549},{"NoteNumber":81,"Velocity":37,"Duration":121951,"SoundDuration":121951,"Delta":97437501},{"NoteNumber":84,"Velocity":43,"Duration":121951,"SoundDuration":121951,"Delta":97559452},{"NoteNumber":75,"Velocity":34,"Duration":182927,"SoundDuration":182927,"Delta":97559452},{"NoteNumber":87,"Velocity":37,"Duration":121951,"SoundDuration":121951,"Delta":97681403},{"NoteNumber":84,"Velocity":37,"Duration":145985,"SoundDuration":145985,"Delta":97803355},{"NoteNumber":81,"Velocity":43,"Duration":120846,"SoundDuration":120846,"Delta":97949340},{"NoteNumber":78,"Velocity":42,"Duration":362538,"SoundDuration":362538,"Delta":97949340},{"NoteNumber":84,"Velocity":38,"Duration":120846,"SoundDuration":120846,"Delta":98070186},{"NoteNumber":81,"Velocity":38,"Duration":120846,"SoundDuration":120846,"Delta":98191032},{"NoteNumber":84,"Velocity":43,"Duration":120846,"SoundDuration":120846,"Delta":98311878},{"NoteNumber":75,"Velocity":41,"Duration":181269,"SoundDuration":181269,"Delta":98311878},{"NoteNumber":87,"Velocity":38,"Duration":120846,"SoundDuration":120846,"Delta":98432724},{"NoteNumber":84,"Velocity":38,"Duration":112903,"SoundDuration":112903,"Delta":98553570},{"NoteNumber":81,"Velocity":43,"Duration":119760,"SoundDuration":119760,"Delta":98682602},{"NoteNumber":77,"Velocity":40,"Duration":269460,"SoundDuration":269460,"Delta":98682602},{"NoteNumber":84,"Velocity":37,"Duration":119760,"SoundDuration":119760,"Delta":98802363},{"NoteNumber":81,"Velocity":37,"Duration":119760,"SoundDuration":119760,"Delta":98922123},{"NoteNumber":75,"Velocity":30,"Duration":89820,"SoundDuration":89820,"Delta":98952063},{"NoteNumber":84,"Velocity":43,"Duration":119760,"SoundDuration":119760,"Delta":99041883},{"NoteNumber":77,"Velocity":37,"Duration":272743,"SoundDuration":272743,"Delta":99041883},{"NoteNumber":89,"Velocity":37,"Duration":119760,"SoundDuration":119760,"Delta":99161644},{"NoteNumber":84,"Velocity":37,"Duration":132890,"SoundDuration":132890,"Delta":99281404},{"NoteNumber":75,"Velocity":34,"Duration":99667,"SoundDuration":99667,"Delta":99314627},{"NoteNumber":81,"Velocity":43,"Duration":122324,"SoundDuration":122324,"Delta":99414294},{"NoteNumber":77,"Velocity":42,"Duration":366972,"SoundDuration":366972,"Delta":99414294},{"NoteNumber":84,"Velocity":38,"Duration":122323,"SoundDuration":122323,"Delta":99536618},{"NoteNumber":81,"Velocity":38,"Duration":122324,"SoundDuration":122324,"Delta":99658942},{"NoteNumber":84,"Velocity":43,"Duration":122323,"SoundDuration":122323,"Delta":99781266},{"NoteNumber":75,"Velocity":34,"Duration":183486,"SoundDuration":183486,"Delta":99781266},{"NoteNumber":89,"Velocity":38,"Duration":122324,"SoundDuration":122324,"Delta":99903590},{"NoteNumber":84,"Velocity":38,"Duration":112903,"SoundDuration":112903,"Delta":100025914},{"NoteNumber":81,"Velocity":43,"Duration":122324,"SoundDuration":122324,"Delta":100154947},{"NoteNumber":77,"Velocity":42,"Duration":366972,"SoundDuration":366972,"Delta":100154947},{"NoteNumber":84,"Velocity":37,"Duration":122323,"SoundDuration":122323,"Delta":100277271},{"NoteNumber":81,"Velocity":36,"Duration":122324,"SoundDuration":122324,"Delta":100399595},{"NoteNumber":84,"Velocity":42,"Duration":122323,"SoundDuration":122323,"Delta":100521919},{"NoteNumber":75,"Velocity":33,"Duration":183486,"SoundDuration":183486,"Delta":100521919},{"NoteNumber":89,"Velocity":36,"Duration":122324,"SoundDuration":122324,"Delta":100644243},{"NoteNumber":84,"Velocity":36,"Duration":145985,"SoundDuration":145985,"Delta":100766567},{"NoteNumber":82,"Velocity":41,"Duration":123839,"SoundDuration":123839,"Delta":100912552},{"NoteNumber":77,"Velocity":40,"Duration":371516,"SoundDuration":371516,"Delta":100912552},{"NoteNumber":86,"Velocity":36,"Duration":123838,"SoundDuration":123838,"Delta":101036391},{"NoteNumber":82,"Velocity":36,"Duration":123839,"SoundDuration":123839,"Delta":101160230},{"NoteNumber":86,"Velocity":40,"Duration":123839,"SoundDuration":123839,"Delta":101284069},{"NoteNumber":74,"Velocity":32,"Duration":185758,"SoundDuration":185758,"Delta":101284069},{"NoteNumber":89,"Velocity":36,"Duration":123839,"SoundDuration":123839,"Delta":101407908},{"NoteNumber":86,"Velocity":35,"Duration":117056,"SoundDuration":117056,"Delta":101531747},{"NoteNumber":80,"Velocity":39,"Duration":124610,"SoundDuration":124610,"Delta":101665526},{"NoteNumber":76,"Velocity":39,"Duration":373831,"SoundDuration":373831,"Delta":101665526},{"NoteNumber":83,"Velocity":34,"Duration":124610,"SoundDuration":124610,"Delta":101790137},{"NoteNumber":80,"Velocity":34,"Duration":124610,"SoundDuration":124610,"Delta":101914748},{"NoteNumber":83,"Velocity":39,"Duration":124610,"SoundDuration":124610,"Delta":102039358},{"NoteNumber":74,"Velocity":31,"Duration":186916,"SoundDuration":186916,"Delta":102039358},{"NoteNumber":88,"Velocity":33,"Duration":124610,"SoundDuration":124610,"Delta":102163969},{"NoteNumber":83,"Velocity":33,"Duration":145985,"SoundDuration":145985,"Delta":102288580},{"NoteNumber":81,"Velocity":38,"Duration":126182,"SoundDuration":126182,"Delta":102434565},{"NoteNumber":73,"Velocity":37,"Duration":378549,"SoundDuration":378549,"Delta":102434565},{"NoteNumber":85,"Velocity":33,"Duration":126182,"SoundDuration":126182,"Delta":102560748},{"NoteNumber":81,"Velocity":33,"Duration":126183,"SoundDuration":126183,"Delta":102686931},{"NoteNumber":85,"Velocity":37,"Duration":126182,"SoundDuration":126182,"Delta":102813114},{"NoteNumber":76,"Velocity":29,"Duration":189274,"SoundDuration":189274,"Delta":102813114},{"NoteNumber":88,"Velocity":33,"Duration":126182,"SoundDuration":126182,"Delta":102939297},{"NoteNumber":85,"Velocity":33,"Duration":120274,"SoundDuration":120274,"Delta":103065480},{"NoteNumber":74,"Velocity":36,"Duration":126582,"SoundDuration":126582,"Delta":103202937},{"NoteNumber":66,"Velocity":36,"Duration":379746,"SoundDuration":379746,"Delta":103202937},{"NoteNumber":81,"Velocity":31,"Duration":126582,"SoundDuration":126582,"Delta":103329519},{"NoteNumber":74,"Velocity":31,"Duration":118670,"SoundDuration":118670,"Delta":103456102},{"NoteNumber":81,"Velocity":36,"Duration":126582,"SoundDuration":126582,"Delta":103582684},{"NoteNumber":69,"Velocity":25,"Duration":189873,"SoundDuration":189873,"Delta":103582684},{"NoteNumber":74,"Velocity":28,"Duration":189873,"SoundDuration":189873,"Delta":103582684},{"NoteNumber":86,"Velocity":31,"Duration":126582,"SoundDuration":126582,"Delta":103709266},{"NoteNumber":81,"Velocity":30,"Duration":145985,"SoundDuration":145985,"Delta":103835849},{"NoteNumber":76,"Velocity":35,"Duration":126582,"SoundDuration":126582,"Delta":103981834},{"NoteNumber":64,"Velocity":34,"Duration":379746,"SoundDuration":379746,"Delta":103981834},{"NoteNumber":81,"Velocity":31,"Duration":126582,"SoundDuration":126582,"Delta":104108416},{"NoteNumber":76,"Velocity":30,"Duration":126582,"SoundDuration":126582,"Delta":104234999},{"NoteNumber":81,"Velocity":34,"Duration":126582,"SoundDuration":126582,"Delta":104361581},{"NoteNumber":69,"Velocity":25,"Duration":189873,"SoundDuration":189873,"Delta":104361581},{"NoteNumber":73,"Velocity":27,"Duration":189873,"SoundDuration":189873,"Delta":104361581},{"NoteNumber":85,"Velocity":30,"Duration":126582,"SoundDuration":126582,"Delta":104488163},{"NoteNumber":81,"Velocity":30,"Duration":117845,"SoundDuration":117845,"Delta":104614746},{"NoteNumber":76,"Velocity":33,"Duration":126983,"SoundDuration":126983,"Delta":104749426},{"NoteNumber":64,"Velocity":33,"Duration":380951,"SoundDuration":380951,"Delta":104749426},{"NoteNumber":83,"Velocity":28,"Duration":126984,"SoundDuration":126984,"Delta":104876410},{"NoteNumber":80,"Velocity":28,"Duration":119047,"SoundDuration":119047,"Delta":105003394},{"NoteNumber":76,"Velocity":33,"Duration":126984,"SoundDuration":126984,"Delta":105130378},{"NoteNumber":68,"Velocity":22,"Duration":190476,"SoundDuration":190476,"Delta":105130378},{"NoteNumber":71,"Velocity":26,"Duration":190476,"SoundDuration":190476,"Delta":105130378},{"NoteNumber":74,"Velocity":28,"Duration":126984,"SoundDuration":126984,"Delta":105257362},{"NoteNumber":71,"Velocity":28,"Duration":145985,"SoundDuration":145985,"Delta":105384346},{"NoteNumber":67,"Velocity":87,"Duration":108518,"SoundDuration":108518,"Delta":105530331},{"NoteNumber":55,"Velocity":74,"Duration":108518,"SoundDuration":108518,"Delta":105530331},{"NoteNumber":69,"Velocity":55,"Duration":108518,"SoundDuration":108518,"Delta":105638850},{"NoteNumber":57,"Velocity":42,"Duration":108518,"SoundDuration":108518,"Delta":105638850},{"NoteNumber":67,"Velocity":55,"Duration":108518,"SoundDuration":108518,"Delta":105747368},{"NoteNumber":55,"Velocity":42,"Duration":108518,"SoundDuration":108518,"Delta":105747368},{"NoteNumber":64,"Velocity":61,"Duration":108518,"SoundDuration":108518,"Delta":105855887},{"NoteNumber":52,"Velocity":48,"Duration":108518,"SoundDuration":108518,"Delta":105855887},{"NoteNumber":61,"Velocity":55,"Duration":108518,"SoundDuration":108518,"Delta":105964406},{"NoteNumber":49,"Velocity":41,"Duration":108518,"SoundDuration":108518,"Delta":105964406},{"NoteNumber":57,"Velocity":55,"Duration":113765,"SoundDuration":113765,"Delta":106072924},{"NoteNumber":45,"Velocity":41,"Duration":113765,"SoundDuration":113765,"Delta":106072924},{"NoteNumber":55,"Velocity":75,"Duration":108225,"SoundDuration":108225,"Delta":106186690},{"NoteNumber":43,"Velocity":60,"Duration":108225,"SoundDuration":108225,"Delta":106186690},{"NoteNumber":57,"Velocity":48,"Duration":108224,"SoundDuration":108224,"Delta":106294915},{"NoteNumber":45,"Velocity":36,"Duration":108224,"SoundDuration":108224,"Delta":106294915},{"NoteNumber":55,"Velocity":48,"Duration":108225,"SoundDuration":108225,"Delta":106403140},{"NoteNumber":43,"Velocity":36,"Duration":108225,"SoundDuration":108225,"Delta":106403140},{"NoteNumber":57,"Velocity":54,"Duration":108225,"SoundDuration":108225,"Delta":106511365},{"NoteNumber":45,"Velocity":44,"Duration":108225,"SoundDuration":108225,"Delta":106511365},{"NoteNumber":55,"Velocity":50,"Duration":108225,"SoundDuration":108225,"Delta":106619590},{"NoteNumber":43,"Velocity":37,"Duration":108225,"SoundDuration":108225,"Delta":106619590},{"NoteNumber":57,"Velocity":50,"Duration":120481,"SoundDuration":120481,"Delta":106727815},{"NoteNumber":45,"Velocity":37,"Duration":120481,"SoundDuration":120481,"Delta":106727815},{"NoteNumber":65,"Velocity":84,"Duration":108518,"SoundDuration":108518,"Delta":106848297},{"NoteNumber":53,"Velocity":73,"Duration":108518,"SoundDuration":108518,"Delta":106848297},{"NoteNumber":69,"Velocity":55,"Duration":108518,"SoundDuration":108518,"Delta":106956816},{"NoteNumber":57,"Velocity":42,"Duration":108518,"SoundDuration":108518,"Delta":106956816},{"NoteNumber":65,"Velocity":55,"Duration":108518,"SoundDuration":108518,"Delta":107065334},{"NoteNumber":53,"Velocity":42,"Duration":108518,"SoundDuration":108518,"Delta":107065334},{"NoteNumber":60,"Velocity":61,"Duration":108518,"SoundDuration":108518,"Delta":107173853},{"NoteNumber":48,"Velocity":48,"Duration":108518,"SoundDuration":108518,"Delta":107173853},{"NoteNumber":57,"Velocity":55,"Duration":108518,"SoundDuration":108518,"Delta":107282372},{"NoteNumber":45,"Velocity":41,"Duration":108518,"SoundDuration":108518,"Delta":107282372},{"NoteNumber":53,"Velocity":55,"Duration":113765,"SoundDuration":113765,"Delta":107390890},{"NoteNumber":41,"Velocity":41,"Duration":113765,"SoundDuration":113765,"Delta":107390890},{"NoteNumber":57,"Velocity":77,"Duration":107123,"SoundDuration":107123,"Delta":107504656},{"NoteNumber":45,"Velocity":62,"Duration":107123,"SoundDuration":107123,"Delta":107504656},{"NoteNumber":53,"Velocity":48,"Duration":107123,"SoundDuration":107123,"Delta":107611780},{"NoteNumber":41,"Velocity":36,"Duration":107123,"SoundDuration":107123,"Delta":107611780},{"NoteNumber":57,"Velocity":48,"Duration":107123,"SoundDuration":107123,"Delta":107718903},{"NoteNumber":45,"Velocity":36,"Duration":107123,"SoundDuration":107123,"Delta":107718903},{"NoteNumber":53,"Velocity":54,"Duration":107123,"SoundDuration":107123,"Delta":107826027},{"NoteNumber":41,"Velocity":44,"Duration":107123,"SoundDuration":107123,"Delta":107826027},{"NoteNumber":57,"Velocity":50,"Duration":107123,"SoundDuration":107123,"Delta":107933151},{"NoteNumber":45,"Velocity":37,"Duration":107123,"SoundDuration":107123,"Delta":107933151},{"NoteNumber":53,"Velocity":50,"Duration":132013,"SoundDuration":132013,"Delta":108040274},{"NoteNumber":41,"Velocity":37,"Duration":132013,"SoundDuration":132013,"Delta":108040274},{"NoteNumber":67,"Velocity":88,"Duration":108518,"SoundDuration":108518,"Delta":108172288},{"NoteNumber":55,"Velocity":73,"Duration":108518,"SoundDuration":108518,"Delta":108172288},{"NoteNumber":69,"Velocity":55,"Duration":108518,"SoundDuration":108518,"Delta":108280806},{"NoteNumber":57,"Velocity":42,"Duration":108518,"SoundDuration":108518,"Delta":108280806},{"NoteNumber":67,"Velocity":55,"Duration":108518,"SoundDuration":108518,"Delta":108389325},{"NoteNumber":55,"Velocity":42,"Duration":108518,"SoundDuration":108518,"Delta":108389325},{"NoteNumber":64,"Velocity":61,"Duration":108518,"SoundDuration":108518,"Delta":108497844},{"NoteNumber":52,"Velocity":48,"Duration":108518,"SoundDuration":108518,"Delta":108497844},{"NoteNumber":61,"Velocity":55,"Duration":108518,"SoundDuration":108518,"Delta":108606362},{"NoteNumber":49,"Velocity":41,"Duration":108518,"SoundDuration":108518,"Delta":108606362},{"NoteNumber":57,"Velocity":55,"Duration":113765,"SoundDuration":113765,"Delta":108714881},{"NoteNumber":45,"Velocity":41,"Duration":113765,"SoundDuration":113765,"Delta":108714881},{"NoteNumber":55,"Velocity":75,"Duration":108225,"SoundDuration":108225,"Delta":108828647},{"NoteNumber":43,"Velocity":60,"Duration":108225,"SoundDuration":108225,"Delta":108828647},{"NoteNumber":57,"Velocity":48,"Duration":108224,"SoundDuration":108224,"Delta":108936872},{"NoteNumber":45,"Velocity":36,"Duration":108224,"SoundDuration":108224,"Delta":108936872},{"NoteNumber":55,"Velocity":48,"Duration":108225,"SoundDuration":108225,"Delta":109045097},{"NoteNumber":43,"Velocity":36,"Duration":108225,"SoundDuration":108225,"Delta":109045097},{"NoteNumber":57,"Velocity":54,"Duration":108225,"SoundDuration":108225,"Delta":109153322},{"NoteNumber":45,"Velocity":44,"Duration":108225,"SoundDuration":108225,"Delta":109153322},{"NoteNumber":55,"Velocity":50,"Duration":108225,"SoundDuration":108225,"Delta":109261547},{"NoteNumber":43,"Velocity":37,"Duration":108225,"SoundDuration":108225,"Delta":109261547},{"NoteNumber":57,"Velocity":50,"Duration":122323,"SoundDuration":122323,"Delta":109369772},{"NoteNumber":45,"Velocity":37,"Duration":122323,"SoundDuration":122323,"Delta":109369772},{"NoteNumber":65,"Velocity":87,"Duration":108518,"SoundDuration":108518,"Delta":109492096},{"NoteNumber":53,"Velocity":74,"Duration":108518,"SoundDuration":108518,"Delta":109492096},{"NoteNumber":69,"Velocity":55,"Duration":108518,"SoundDuration":108518,"Delta":109600614},{"NoteNumber":57,"Velocity":42,"Duration":108518,"SoundDuration":108518,"Delta":109600614},{"NoteNumber":65,"Velocity":55,"Duration":108518,"SoundDuration":108518,"Delta":109709133},{"NoteNumber":53,"Velocity":42,"Duration":108518,"SoundDuration":108518,"Delta":109709133},{"NoteNumber":60,"Velocity":61,"Duration":108518,"SoundDuration":108518,"Delta":109817652},{"NoteNumber":48,"Velocity":48,"Duration":108518,"SoundDuration":108518,"Delta":109817652},{"NoteNumber":57,"Velocity":55,"Duration":108518,"SoundDuration":108518,"Delta":109926170},{"NoteNumber":45,"Velocity":41,"Duration":108518,"SoundDuration":108518,"Delta":109926170},{"NoteNumber":53,"Velocity":55,"Duration":113765,"SoundDuration":113765,"Delta":110034689},{"NoteNumber":41,"Velocity":41,"Duration":113765,"SoundDuration":113765,"Delta":110034689},{"NoteNumber":57,"Velocity":77,"Duration":107411,"SoundDuration":107411,"Delta":110148455},{"NoteNumber":45,"Velocity":62,"Duration":107411,"SoundDuration":107411,"Delta":110148455},{"NoteNumber":53,"Velocity":48,"Duration":107411,"SoundDuration":107411,"Delta":110255866},{"NoteNumber":41,"Velocity":36,"Duration":107411,"SoundDuration":107411,"Delta":110255866},{"NoteNumber":57,"Velocity":48,"Duration":107411,"SoundDuration":107411,"Delta":110363277},{"NoteNumber":45,"Velocity":36,"Duration":107411,"SoundDuration":107411,"Delta":110363277},{"NoteNumber":53,"Velocity":54,"Duration":107411,"SoundDuration":107411,"Delta":110470689},{"NoteNumber":41,"Velocity":44,"Duration":107411,"SoundDuration":107411,"Delta":110470689},{"NoteNumber":57,"Velocity":50,"Duration":107411,"SoundDuration":107411,"Delta":110578100},{"NoteNumber":45,"Velocity":37,"Duration":107411,"SoundDuration":107411,"Delta":110578100},{"NoteNumber":53,"Velocity":50,"Duration":114089,"SoundDuration":114089,"Delta":110685511},{"NoteNumber":41,"Velocity":37,"Duration":114089,"SoundDuration":114089,"Delta":110685511},{"NoteNumber":40,"Velocity":35,"Duration":176991,"SoundDuration":176991,"Delta":110799601},{"NoteNumber":52,"Velocity":37,"Duration":117993,"SoundDuration":117993,"Delta":110799601},{"NoteNumber":54,"Velocity":32,"Duration":117994,"SoundDuration":117994,"Delta":110917595},{"NoteNumber":56,"Velocity":32,"Duration":117993,"SoundDuration":117993,"Delta":111035589},{"NoteNumber":73,"Velocity":44,"Duration":274725,"SoundDuration":274725,"Delta":111153583},{"NoteNumber":76,"Velocity":44,"Duration":274725,"SoundDuration":274725,"Delta":111153583},{"NoteNumber":57,"Velocity":37,"Duration":122100,"SoundDuration":122100,"Delta":111153583},{"NoteNumber":59,"Velocity":33,"Duration":122100,"SoundDuration":122100,"Delta":111275683},{"NoteNumber":61,"Velocity":33,"Duration":132357,"SoundDuration":132357,"Delta":111397783},{"NoteNumber":73,"Velocity":39,"Duration":101832,"SoundDuration":101832,"Delta":111428308},{"NoteNumber":76,"Velocity":39,"Duration":101832,"SoundDuration":101832,"Delta":111428308},{"NoteNumber":71,"Velocity":44,"Duration":178571,"SoundDuration":178571,"Delta":111530141},{"NoteNumber":74,"Velocity":44,"Duration":178571,"SoundDuration":178571,"Delta":111530141},{"NoteNumber":62,"Velocity":44,"Duration":119047,"SoundDuration":119047,"Delta":111530141},{"NoteNumber":64,"Velocity":44,"Duration":119047,"SoundDuration":119047,"Delta":111649189},{"NoteNumber":66,"Velocity":43,"Duration":119047,"SoundDuration":119047,"Delta":111768237},{"NoteNumber":68,"Velocity":45,"Duration":119047,"SoundDuration":119047,"Delta":111887284},{"NoteNumber":52,"Velocity":35,"Duration":178571,"SoundDuration":178571,"Delta":111887284},{"NoteNumber":59,"Velocity":35,"Duration":178571,"SoundDuration":178571,"Delta":111887284},{"NoteNumber":69,"Velocity":48,"Duration":119047,"SoundDuration":119047,"Delta":112006332},{"NoteNumber":71,"Velocity":49,"Duration":127705,"SoundDuration":127705,"Delta":112125380},{"NoteNumber":73,"Velocity":45,"Duration":117954,"SoundDuration":117954,"Delta":112253085},{"NoteNumber":45,"Velocity":33,"Duration":176778,"SoundDuration":176778,"Delta":112253085},{"NoteNumber":49,"Velocity":33,"Duration":176778,"SoundDuration":176778,"Delta":112253085},{"NoteNumber":57,"Velocity":40,"Duration":176765,"SoundDuration":176765,"Delta":112257510},{"NoteNumber":74,"Velocity":48,"Duration":117595,"SoundDuration":117595,"Delta":112371040},{"NoteNumber":76,"Velocity":48,"Duration":115083,"SoundDuration":115083,"Delta":112488635},{"NoteNumber":78,"Velocity":50,"Duration":116920,"SoundDuration":116920,"Delta":112605911},{"NoteNumber":73,"Velocity":44,"Duration":262557,"SoundDuration":262557,"Delta":112605911},{"NoteNumber":76,"Velocity":44,"Duration":262557,"SoundDuration":262557,"Delta":112605911},{"NoteNumber":80,"Velocity":52,"Duration":116567,"SoundDuration":116567,"Delta":112722832},{"NoteNumber":81,"Velocity":52,"Duration":121949,"SoundDuration":121949,"Delta":112839399},{"NoteNumber":73,"Velocity":39,"Duration":92879,"SoundDuration":92879,"Delta":112868469},{"NoteNumber":76,"Velocity":39,"Duration":92879,"SoundDuration":92879,"Delta":112868469},{"NoteNumber":83,"Velocity":54,"Duration":115736,"SoundDuration":115736,"Delta":112961348},{"NoteNumber":71,"Velocity":44,"Duration":173831,"SoundDuration":173831,"Delta":112961348},{"NoteNumber":74,"Velocity":44,"Duration":173831,"SoundDuration":173831,"Delta":112961348},{"NoteNumber":85,"Velocity":56,"Duration":116066,"SoundDuration":116066,"Delta":113077084},{"NoteNumber":86,"Velocity":56,"Duration":115715,"SoundDuration":115715,"Delta":113193151},{"NoteNumber":88,"Velocity":58,"Duration":115831,"SoundDuration":115831,"Delta":113308867},{"NoteNumber":52,"Velocity":40,"Duration":174070,"SoundDuration":174070,"Delta":113308867},{"NoteNumber":59,"Velocity":40,"Duration":174070,"SoundDuration":174070,"Delta":113308867},{"NoteNumber":90,"Velocity":60,"Duration":116720,"SoundDuration":116720,"Delta":113424698},{"NoteNumber":92,"Velocity":60,"Duration":133737,"SoundDuration":133737,"Delta":113541419},{"NoteNumber":93,"Velocity":62,"Duration":117878,"SoundDuration":117878,"Delta":113675156},{"NoteNumber":45,"Velocity":38,"Duration":174655,"SoundDuration":174655,"Delta":113675156},{"NoteNumber":49,"Velocity":38,"Duration":174655,"SoundDuration":174655,"Delta":113675156},{"NoteNumber":57,"Velocity":45,"Duration":174655,"SoundDuration":174655,"Delta":113675156},{"NoteNumber":92,"Velocity":62,"Duration":113723,"SoundDuration":113723,"Delta":113793034},{"NoteNumber":90,"Velocity":60,"Duration":114398,"SoundDuration":114398,"Delta":113906758},{"NoteNumber":88,"Velocity":60,"Duration":115002,"SoundDuration":115002,"Delta":114021156},{"NoteNumber":73,"Velocity":44,"Duration":259740,"SoundDuration":259740,"Delta":114021156},{"NoteNumber":76,"Velocity":44,"Duration":259740,"SoundDuration":259740,"Delta":114021156},{"NoteNumber":86,"Velocity":58,"Duration":115697,"SoundDuration":115697,"Delta":114136159},{"NoteNumber":85,"Velocity":56,"Duration":122208,"SoundDuration":122208,"Delta":114251856},{"NoteNumber":73,"Velocity":39,"Duration":93167,"SoundDuration":93167,"Delta":114280897},{"NoteNumber":76,"Velocity":39,"Duration":93167,"SoundDuration":93167,"Delta":114280897},{"NoteNumber":83,"Velocity":55,"Duration":113303,"SoundDuration":113303,"Delta":114374064},{"NoteNumber":71,"Velocity":44,"Duration":169964,"SoundDuration":169964,"Delta":114374064},{"NoteNumber":74,"Velocity":44,"Duration":169964,"SoundDuration":169964,"Delta":114374064},{"NoteNumber":81,"Velocity":54,"Duration":113479,"SoundDuration":113479,"Delta":114487368},{"NoteNumber":80,"Velocity":52,"Duration":113994,"SoundDuration":113994,"Delta":114600847},{"NoteNumber":78,"Velocity":51,"Duration":114480,"SoundDuration":114480,"Delta":114714842},{"NoteNumber":52,"Velocity":40,"Duration":171949,"SoundDuration":171949,"Delta":114714842},{"NoteNumber":59,"Velocity":40,"Duration":171949,"SoundDuration":171949,"Delta":114714842},{"NoteNumber":76,"Velocity":50,"Duration":115031,"SoundDuration":115031,"Delta":114829322},{"NoteNumber":74,"Velocity":48,"Duration":114992,"SoundDuration":114992,"Delta":114944354},{"NoteNumber":73,"Velocity":46,"Duration":113851,"SoundDuration":113851,"Delta":115059346},{"NoteNumber":45,"Velocity":38,"Duration":171035,"SoundDuration":171035,"Delta":115059346},{"NoteNumber":49,"Velocity":38,"Duration":171035,"SoundDuration":171035,"Delta":115059346},{"NoteNumber":57,"Velocity":45,"Duration":171035,"SoundDuration":171035,"Delta":115059346},{"NoteNumber":71,"Velocity":45,"Duration":114537,"SoundDuration":114537,"Delta":115173198},{"NoteNumber":69,"Velocity":44,"Duration":115224,"SoundDuration":115224,"Delta":115287736},{"NoteNumber":68,"Velocity":43,"Duration":115919,"SoundDuration":115919,"Delta":115402960},{"NoteNumber":73,"Velocity":44,"Duration":261924,"SoundDuration":261924,"Delta":115402960},{"NoteNumber":76,"Velocity":44,"Duration":261924,"SoundDuration":261924,"Delta":115402960},{"NoteNumber":66,"Velocity":41,"Duration":116752,"SoundDuration":116752,"Delta":115518879},{"NoteNumber":64,"Velocity":40,"Duration":121560,"SoundDuration":121560,"Delta":115635632},{"NoteNumber":73,"Velocity":39,"Duration":92307,"SoundDuration":92307,"Delta":115664885},{"NoteNumber":76,"Velocity":39,"Duration":92307,"SoundDuration":92307,"Delta":115664885},{"NoteNumber":62,"Velocity":40,"Duration":116232,"SoundDuration":116232,"Delta":115757192},{"NoteNumber":71,"Velocity":44,"Duration":174802,"SoundDuration":174802,"Delta":115757192},{"NoteNumber":74,"Velocity":44,"Duration":174802,"SoundDuration":174802,"Delta":115757192},{"NoteNumber":66,"Velocity":39,"Duration":117488,"SoundDuration":117488,"Delta":115873425},{"NoteNumber":64,"Velocity":37,"Duration":118770,"SoundDuration":118770,"Delta":115990914},{"NoteNumber":62,"Velocity":35,"Duration":120040,"SoundDuration":120040,"Delta":116109685},{"NoteNumber":52,"Velocity":35,"Duration":180557,"SoundDuration":180557,"Delta":116109685},{"NoteNumber":61,"Velocity":33,"Duration":120888,"SoundDuration":120888,"Delta":116229725},{"NoteNumber":59,"Velocity":31,"Duration":140350,"SoundDuration":140350,"Delta":116350614},{"NoteNumber":67,"Velocity":87,"Duration":108518,"SoundDuration":108518,"Delta":116490965},{"NoteNumber":55,"Velocity":74,"Duration":108518,"SoundDuration":108518,"Delta":116490965},{"NoteNumber":69,"Velocity":55,"Duration":108518,"SoundDuration":108518,"Delta":116599483},{"NoteNumber":57,"Velocity":42,"Duration":108518,"SoundDuration":108518,"Delta":116599483},{"NoteNumber":67,"Velocity":55,"Duration":108518,"SoundDuration":108518,"Delta":116708002},{"NoteNumber":55,"Velocity":42,"Duration":108518,"SoundDuration":108518,"Delta":116708002},{"NoteNumber":64,"Velocity":61,"Duration":108518,"SoundDuration":108518,"Delta":116816521},{"NoteNumber":52,"Velocity":48,"Duration":108518,"SoundDuration":108518,"Delta":116816521},{"NoteNumber":61,"Velocity":55,"Duration":108518,"SoundDuration":108518,"Delta":116925039},{"NoteNumber":49,"Velocity":41,"Duration":108518,"SoundDuration":108518,"Delta":116925039},{"NoteNumber":57,"Velocity":55,"Duration":113765,"SoundDuration":113765,"Delta":117033558},{"NoteNumber":45,"Velocity":41,"Duration":113765,"SoundDuration":113765,"Delta":117033558},{"NoteNumber":55,"Velocity":75,"Duration":108225,"SoundDuration":108225,"Delta":117147324},{"NoteNumber":43,"Velocity":60,"Duration":108225,"SoundDuration":108225,"Delta":117147324},{"NoteNumber":57,"Velocity":48,"Duration":108224,"SoundDuration":108224,"Delta":117255549},{"NoteNumber":45,"Velocity":36,"Duration":108224,"SoundDuration":108224,"Delta":117255549},{"NoteNumber":55,"Velocity":48,"Duration":108225,"SoundDuration":108225,"Delta":117363774},{"NoteNumber":43,"Velocity":36,"Duration":108225,"SoundDuration":108225,"Delta":117363774},{"NoteNumber":57,"Velocity":54,"Duration":106837,"SoundDuration":106837,"Delta":117471999},{"NoteNumber":45,"Velocity":44,"Duration":106837,"SoundDuration":106837,"Delta":117471999},{"NoteNumber":55,"Velocity":50,"Duration":106837,"SoundDuration":106837,"Delta":117578836},{"NoteNumber":43,"Velocity":37,"Duration":106837,"SoundDuration":106837,"Delta":117578836},{"NoteNumber":57,"Velocity":50,"Duration":120845,"SoundDuration":120845,"Delta":117685674},{"NoteNumber":45,"Velocity":37,"Duration":120845,"SoundDuration":120845,"Delta":117685674},{"NoteNumber":65,"Velocity":84,"Duration":108518,"SoundDuration":108518,"Delta":117806520},{"NoteNumber":53,"Velocity":73,"Duration":108518,"SoundDuration":108518,"Delta":117806520},{"NoteNumber":69,"Velocity":55,"Duration":108518,"SoundDuration":108518,"Delta":117915039},{"NoteNumber":57,"Velocity":42,"Duration":108518,"SoundDuration":108518,"Delta":117915039},{"NoteNumber":65,"Velocity":55,"Duration":108518,"SoundDuration":108518,"Delta":118023557},{"NoteNumber":53,"Velocity":42,"Duration":108518,"SoundDuration":108518,"Delta":118023557},{"NoteNumber":60,"Velocity":61,"Duration":108518,"SoundDuration":108518,"Delta":118132076},{"NoteNumber":48,"Velocity":48,"Duration":108518,"SoundDuration":108518,"Delta":118132076},{"NoteNumber":57,"Velocity":55,"Duration":108518,"SoundDuration":108518,"Delta":118240595},{"NoteNumber":45,"Velocity":41,"Duration":108518,"SoundDuration":108518,"Delta":118240595},{"NoteNumber":53,"Velocity":55,"Duration":113765,"SoundDuration":113765,"Delta":118349113},{"NoteNumber":41,"Velocity":41,"Duration":113765,"SoundDuration":113765,"Delta":118349113},{"NoteNumber":57,"Velocity":77,"Duration":108225,"SoundDuration":108225,"Delta":118462879},{"NoteNumber":45,"Velocity":62,"Duration":108225,"SoundDuration":108225,"Delta":118462879},{"NoteNumber":53,"Velocity":48,"Duration":108224,"SoundDuration":108224,"Delta":118571104},{"NoteNumber":41,"Velocity":36,"Duration":108224,"SoundDuration":108224,"Delta":118571104},{"NoteNumber":57,"Velocity":48,"Duration":108225,"SoundDuration":108225,"Delta":118679329},{"NoteNumber":45,"Velocity":36,"Duration":108225,"SoundDuration":108225,"Delta":118679329},{"NoteNumber":53,"Velocity":54,"Duration":106553,"SoundDuration":106553,"Delta":118787554},{"NoteNumber":41,"Velocity":44,"Duration":106553,"SoundDuration":106553,"Delta":118787554},{"NoteNumber":57,"Velocity":50,"Duration":106553,"SoundDuration":106553,"Delta":118894107},{"NoteNumber":45,"Velocity":37,"Duration":106553,"SoundDuration":106553,"Delta":118894107},{"NoteNumber":53,"Velocity":50,"Duration":132013,"SoundDuration":132013,"Delta":119000660},{"NoteNumber":41,"Velocity":37,"Duration":132013,"SoundDuration":132013,"Delta":119000660},{"NoteNumber":65,"Velocity":84,"Duration":108518,"SoundDuration":108518,"Delta":119132673},{"NoteNumber":53,"Velocity":73,"Duration":108518,"SoundDuration":108518,"Delta":119132673},{"NoteNumber":67,"Velocity":55,"Duration":108518,"SoundDuration":108518,"Delta":119241192},{"NoteNumber":55,"Velocity":42,"Duration":108518,"SoundDuration":108518,"Delta":119241192},{"NoteNumber":65,"Velocity":55,"Duration":108518,"SoundDuration":108518,"Delta":119349711},{"NoteNumber":53,"Velocity":42,"Duration":108518,"SoundDuration":108518,"Delta":119349711},{"NoteNumber":62,"Velocity":61,"Duration":108518,"SoundDuration":108518,"Delta":119458229},{"NoteNumber":50,"Velocity":48,"Duration":108518,"SoundDuration":108518,"Delta":119458229},{"NoteNumber":59,"Velocity":55,"Duration":108518,"SoundDuration":108518,"Delta":119566748},{"NoteNumber":47,"Velocity":41,"Duration":108518,"SoundDuration":108518,"Delta":119566748},{"NoteNumber":55,"Velocity":55,"Duration":113765,"SoundDuration":113765,"Delta":119675267},{"NoteNumber":43,"Velocity":41,"Duration":113765,"SoundDuration":113765,"Delta":119675267},{"NoteNumber":53,"Velocity":77,"Duration":108225,"SoundDuration":108225,"Delta":119789032},{"NoteNumber":41,"Velocity":62,"Duration":108225,"SoundDuration":108225,"Delta":119789032},{"NoteNumber":55,"Velocity":48,"Duration":108224,"SoundDuration":108224,"Delta":119897257},{"NoteNumber":43,"Velocity":36,"Duration":108224,"SoundDuration":108224,"Delta":119897257},{"NoteNumber":53,"Velocity":48,"Duration":108225,"SoundDuration":108225,"Delta":120005482},{"NoteNumber":41,"Velocity":36,"Duration":108225,"SoundDuration":108225,"Delta":120005482},{"NoteNumber":55,"Velocity":54,"Duration":108225,"SoundDuration":108225,"Delta":120113707},{"NoteNumber":43,"Velocity":44,"Duration":108225,"SoundDuration":108225,"Delta":120113707},{"NoteNumber":53,"Velocity":50,"Duration":108225,"SoundDuration":108225,"Delta":120221932},{"NoteNumber":41,"Velocity":37,"Duration":108225,"SoundDuration":108225,"Delta":120221932},{"NoteNumber":55,"Velocity":50,"Duration":132013,"SoundDuration":132013,"Delta":120330157},{"NoteNumber":43,"Velocity":37,"Duration":132013,"SoundDuration":132013,"Delta":120330157},{"NoteNumber":63,"Velocity":84,"Duration":108518,"SoundDuration":108518,"Delta":120462171},{"NoteNumber":51,"Velocity":73,"Duration":108518,"SoundDuration":108518,"Delta":120462171},{"NoteNumber":67,"Velocity":55,"Duration":108518,"SoundDuration":108518,"Delta":120570689},{"NoteNumber":55,"Velocity":42,"Duration":108518,"SoundDuration":108518,"Delta":120570689},{"NoteNumber":63,"Velocity":55,"Duration":108518,"SoundDuration":108518,"Delta":120679208},{"NoteNumber":51,"Velocity":42,"Duration":108518,"SoundDuration":108518,"Delta":120679208},{"NoteNumber":58,"Velocity":61,"Duration":108518,"SoundDuration":108518,"Delta":120787727},{"NoteNumber":46,"Velocity":48,"Duration":108518,"SoundDuration":108518,"Delta":120787727},{"NoteNumber":55,"Velocity":55,"Duration":108518,"SoundDuration":108518,"Delta":120896245},{"NoteNumber":43,"Velocity":41,"Duration":108518,"SoundDuration":108518,"Delta":120896245},{"NoteNumber":51,"Velocity":55,"Duration":113765,"SoundDuration":113765,"Delta":121004764},{"NoteNumber":39,"Velocity":41,"Duration":113765,"SoundDuration":113765,"Delta":121004764},{"NoteNumber":55,"Velocity":77,"Duration":107123,"SoundDuration":107123,"Delta":121118530},{"NoteNumber":43,"Velocity":62,"Duration":107123,"SoundDuration":107123,"Delta":121118530},{"NoteNumber":51,"Velocity":48,"Duration":107123,"SoundDuration":107123,"Delta":121225653},{"NoteNumber":39,"Velocity":36,"Duration":107123,"SoundDuration":107123,"Delta":121225653},{"NoteNumber":55,"Velocity":48,"Duration":107123,"SoundDuration":107123,"Delta":121332777},{"NoteNumber":43,"Velocity":36,"Duration":107123,"SoundDuration":107123,"Delta":121332777},{"NoteNumber":51,"Velocity":54,"Duration":107123,"SoundDuration":107123,"Delta":121439901},{"NoteNumber":39,"Velocity":44,"Duration":107123,"SoundDuration":107123,"Delta":121439901},{"NoteNumber":55,"Velocity":50,"Duration":107123,"SoundDuration":107123,"Delta":121547024},{"NoteNumber":43,"Velocity":37,"Duration":107123,"SoundDuration":107123,"Delta":121547024},{"NoteNumber":51,"Velocity":50,"Duration":132013,"SoundDuration":132013,"Delta":121654148},{"NoteNumber":39,"Velocity":37,"Duration":132013,"SoundDuration":132013,"Delta":121654148},{"NoteNumber":63,"Velocity":84,"Duration":108518,"SoundDuration":108518,"Delta":121786161},{"NoteNumber":51,"Velocity":73,"Duration":108518,"SoundDuration":108518,"Delta":121786161},{"NoteNumber":65,"Velocity":55,"Duration":108518,"SoundDuration":108518,"Delta":121894680},{"NoteNumber":53,"Velocity":42,"Duration":108518,"SoundDuration":108518,"Delta":121894680},{"NoteNumber":63,"Velocity":55,"Duration":108518,"SoundDuration":108518,"Delta":122003199},{"NoteNumber":51,"Velocity":42,"Duration":108518,"SoundDuration":108518,"Delta":122003199},{"NoteNumber":60,"Velocity":61,"Duration":108518,"SoundDuration":108518,"Delta":122111717},{"NoteNumber":48,"Velocity":48,"Duration":108518,"SoundDuration":108518,"Delta":122111717},{"NoteNumber":57,"Velocity":55,"Duration":108518,"SoundDuration":108518,"Delta":122220236},{"NoteNumber":45,"Velocity":41,"Duration":108518,"SoundDuration":108518,"Delta":122220236},{"NoteNumber":53,"Velocity":55,"Duration":113765,"SoundDuration":113765,"Delta":122328755},{"NoteNumber":41,"Velocity":41,"Duration":113765,"SoundDuration":113765,"Delta":122328755},{"NoteNumber":61,"Velocity":84,"Duration":108518,"SoundDuration":108518,"Delta":122442520},{"NoteNumber":49,"Velocity":73,"Duration":108518,"SoundDuration":108518,"Delta":122442520},{"NoteNumber":65,"Velocity":55,"Duration":108518,"SoundDuration":108518,"Delta":122551039},{"NoteNumber":53,"Velocity":42,"Duration":108518,"SoundDuration":108518,"Delta":122551039},{"NoteNumber":61,"Velocity":55,"Duration":108518,"SoundDuration":108518,"Delta":122659558},{"NoteNumber":49,"Velocity":42,"Duration":108518,"SoundDuration":108518,"Delta":122659558},{"NoteNumber":56,"Velocity":61,"Duration":108518,"SoundDuration":108518,"Delta":122768076},{"NoteNumber":44,"Velocity":48,"Duration":108518,"SoundDuration":108518,"Delta":122768076},{"NoteNumber":53,"Velocity":55,"Duration":108518,"SoundDuration":108518,"Delta":122876595},{"NoteNumber":41,"Velocity":41,"Duration":108518,"SoundDuration":108518,"Delta":122876595},{"NoteNumber":49,"Velocity":55,"Duration":113765,"SoundDuration":113765,"Delta":122985114},{"NoteNumber":37,"Velocity":41,"Duration":113765,"SoundDuration":113765,"Delta":122985114},{"NoteNumber":62,"Velocity":84,"Duration":108518,"SoundDuration":108518,"Delta":123098879},{"NoteNumber":50,"Velocity":73,"Duration":108518,"SoundDuration":108518,"Delta":123098879},{"NoteNumber":64,"Velocity":55,"Duration":108518,"SoundDuration":108518,"Delta":123207398},{"NoteNumber":52,"Velocity":42,"Duration":108518,"SoundDuration":108518,"Delta":123207398},{"NoteNumber":62,"Velocity":55,"Duration":108518,"SoundDuration":108518,"Delta":123315917},{"NoteNumber":50,"Velocity":42,"Duration":108518,"SoundDuration":108518,"Delta":123315917},{"NoteNumber":59,"Velocity":61,"Duration":108518,"SoundDuration":108518,"Delta":123424435},{"NoteNumber":47,"Velocity":48,"Duration":108518,"SoundDuration":108518,"Delta":123424435},{"NoteNumber":56,"Velocity":55,"Duration":108518,"SoundDuration":108518,"Delta":123532954},{"NoteNumber":44,"Velocity":41,"Duration":108518,"SoundDuration":108518,"Delta":123532954},{"NoteNumber":52,"Velocity":55,"Duration":113765,"SoundDuration":113765,"Delta":123641473},{"NoteNumber":40,"Velocity":41,"Duration":113765,"SoundDuration":113765,"Delta":123641473},{"NoteNumber":60,"Velocity":84,"Duration":108518,"SoundDuration":108518,"Delta":123755238},{"NoteNumber":48,"Velocity":73,"Duration":108518,"SoundDuration":108518,"Delta":123755238},{"NoteNumber":64,"Velocity":55,"Duration":108518,"SoundDuration":108518,"Delta":123863757},{"NoteNumber":52,"Velocity":42,"Duration":108518,"SoundDuration":108518,"Delta":123863757},{"NoteNumber":60,"Velocity":55,"Duration":108518,"SoundDuration":108518,"Delta":123972276},{"NoteNumber":48,"Velocity":42,"Duration":108518,"SoundDuration":108518,"Delta":123972276},{"NoteNumber":55,"Velocity":61,"Duration":108518,"SoundDuration":108518,"Delta":124080794},{"NoteNumber":43,"Velocity":48,"Duration":108518,"SoundDuration":108518,"Delta":124080794},{"NoteNumber":52,"Velocity":55,"Duration":108518,"SoundDuration":108518,"Delta":124189313},{"NoteNumber":40,"Velocity":41,"Duration":108518,"SoundDuration":108518,"Delta":124189313},{"NoteNumber":48,"Velocity":55,"Duration":113765,"SoundDuration":113765,"Delta":124297832},{"NoteNumber":36,"Velocity":41,"Duration":113765,"SoundDuration":113765,"Delta":124297832},{"NoteNumber":53,"Velocity":84,"Duration":108518,"SoundDuration":108518,"Delta":124411597},{"NoteNumber":41,"Velocity":73,"Duration":108518,"SoundDuration":108518,"Delta":124411597},{"NoteNumber":57,"Velocity":55,"Duration":108518,"SoundDuration":108518,"Delta":124520116},{"NoteNumber":45,"Velocity":42,"Duration":108518,"SoundDuration":108518,"Delta":124520116},{"NoteNumber":53,"Velocity":55,"Duration":108518,"SoundDuration":108518,"Delta":124628635},{"NoteNumber":41,"Velocity":42,"Duration":108518,"SoundDuration":108518,"Delta":124628635},{"NoteNumber":48,"Velocity":61,"Duration":108518,"SoundDuration":108518,"Delta":124737153},{"NoteNumber":36,"Velocity":48,"Duration":108518,"SoundDuration":108518,"Delta":124737153},{"NoteNumber":45,"Velocity":55,"Duration":108518,"SoundDuration":108518,"Delta":124845672},{"NoteNumber":33,"Velocity":41,"Duration":108518,"SoundDuration":108518,"Delta":124845672},{"NoteNumber":41,"Velocity":55,"Duration":113765,"SoundDuration":113765,"Delta":124954191},{"NoteNumber":29,"Velocity":41,"Duration":113765,"SoundDuration":113765,"Delta":124954191},{"NoteNumber":45,"Velocity":69,"Duration":108225,"SoundDuration":108225,"Delta":125067956},{"NoteNumber":33,"Velocity":55,"Duration":108225,"SoundDuration":108225,"Delta":125067956},{"NoteNumber":41,"Velocity":43,"Duration":108224,"SoundDuration":108224,"Delta":125176181},{"NoteNumber":29,"Velocity":32,"Duration":108224,"SoundDuration":108224,"Delta":125176181},{"NoteNumber":45,"Velocity":43,"Duration":108225,"SoundDuration":108225,"Delta":125284406},{"NoteNumber":33,"Velocity":32,"Duration":108225,"SoundDuration":108225,"Delta":125284406},{"NoteNumber":41,"Velocity":48,"Duration":108225,"SoundDuration":108225,"Delta":125392631},{"NoteNumber":29,"Velocity":39,"Duration":108225,"SoundDuration":108225,"Delta":125392631},{"NoteNumber":45,"Velocity":45,"Duration":108225,"SoundDuration":108225,"Delta":125500856},{"NoteNumber":33,"Velocity":33,"Duration":108225,"SoundDuration":108225,"Delta":125500856},{"NoteNumber":41,"Velocity":45,"Duration":132013,"SoundDuration":132013,"Delta":125609081},{"NoteNumber":29,"Velocity":33,"Duration":132013,"SoundDuration":132013,"Delta":125609081},{"NoteNumber":57,"Velocity":56,"Duration":108991,"SoundDuration":108991,"Delta":125741095},{"NoteNumber":45,"Velocity":45,"Duration":108991,"SoundDuration":108991,"Delta":125741095},{"NoteNumber":53,"Velocity":39,"Duration":108991,"SoundDuration":108991,"Delta":125850086},{"NoteNumber":41,"Velocity":29,"Duration":108991,"SoundDuration":108991,"Delta":125850086},{"NoteNumber":57,"Velocity":39,"Duration":108991,"SoundDuration":108991,"Delta":125959078},{"NoteNumber":45,"Velocity":29,"Duration":108991,"SoundDuration":108991,"Delta":125959078},{"NoteNumber":53,"Velocity":42,"Duration":108991,"SoundDuration":108991,"Delta":126068070},{"NoteNumber":41,"Velocity":34,"Duration":108991,"SoundDuration":108991,"Delta":126068070},{"NoteNumber":57,"Velocity":39,"Duration":108991,"SoundDuration":108991,"Delta":126177061},{"NoteNumber":45,"Velocity":28,"Duration":108991,"SoundDuration":108991,"Delta":126177061},{"NoteNumber":53,"Velocity":38,"Duration":132013,"SoundDuration":132013,"Delta":126286053},{"NoteNumber":41,"Velocity":28,"Duration":132013,"SoundDuration":132013,"Delta":126286053},{"NoteNumber":57,"Velocity":46,"Duration":109971,"SoundDuration":109971,"Delta":126418066},{"NoteNumber":45,"Velocity":38,"Duration":109971,"SoundDuration":109971,"Delta":126418066},{"NoteNumber":53,"Velocity":34,"Duration":111082,"SoundDuration":111082,"Delta":126528038},{"NoteNumber":41,"Velocity":25,"Duration":111082,"SoundDuration":111082,"Delta":126528038},{"NoteNumber":57,"Velocity":33,"Duration":112065,"SoundDuration":112065,"Delta":126639121},{"NoteNumber":45,"Velocity":25,"Duration":112065,"SoundDuration":112065,"Delta":126639121},{"NoteNumber":53,"Velocity":36,"Duration":113092,"SoundDuration":113092,"Delta":126751186},{"NoteNumber":41,"Velocity":30,"Duration":113092,"SoundDuration":113092,"Delta":126751186},{"NoteNumber":57,"Velocity":33,"Duration":114139,"SoundDuration":114139,"Delta":126864279},{"NoteNumber":45,"Velocity":24,"Duration":114139,"SoundDuration":114139,"Delta":126864279},{"NoteNumber":53,"Velocity":32,"Duration":132013,"SoundDuration":132013,"Delta":126978419},{"NoteNumber":41,"Velocity":24,"Duration":132013,"SoundDuration":132013,"Delta":126978419},{"NoteNumber":40,"Velocity":35,"Duration":176991,"SoundDuration":176991,"Delta":127110432},{"NoteNumber":52,"Velocity":37,"Duration":117993,"SoundDuration":117993,"Delta":127110432},{"NoteNumber":54,"Velocity":32,"Duration":117994,"SoundDuration":117994,"Delta":127228426},{"NoteNumber":56,"Velocity":32,"Duration":117993,"SoundDuration":117993,"Delta":127346420},{"NoteNumber":73,"Velocity":44,"Duration":282132,"SoundDuration":282132,"Delta":127464414},{"NoteNumber":76,"Velocity":44,"Duration":282132,"SoundDuration":282132,"Delta":127464414},{"NoteNumber":57,"Velocity":37,"Duration":125392,"SoundDuration":125392,"Delta":127464414},{"NoteNumber":59,"Velocity":33,"Duration":125391,"SoundDuration":125391,"Delta":127589806},{"NoteNumber":61,"Velocity":33,"Duration":133181,"SoundDuration":133181,"Delta":127715198},{"NoteNumber":73,"Velocity":39,"Duration":101832,"SoundDuration":101832,"Delta":127746546},{"NoteNumber":76,"Velocity":39,"Duration":101832,"SoundDuration":101832,"Delta":127746546},{"NoteNumber":71,"Velocity":44,"Duration":179104,"SoundDuration":179104,"Delta":127848379},{"NoteNumber":74,"Velocity":44,"Duration":179104,"SoundDuration":179104,"Delta":127848379},{"NoteNumber":62,"Velocity":44,"Duration":119403,"SoundDuration":119403,"Delta":127848379},{"NoteNumber":64,"Velocity":44,"Duration":119402,"SoundDuration":119402,"Delta":127967782},{"NoteNumber":66,"Velocity":43,"Duration":119403,"SoundDuration":119403,"Delta":128087185},{"NoteNumber":68,"Velocity":45,"Duration":119403,"SoundDuration":119403,"Delta":128206588},{"NoteNumber":52,"Velocity":35,"Duration":179104,"SoundDuration":179104,"Delta":128206588},{"NoteNumber":59,"Velocity":35,"Duration":179104,"SoundDuration":179104,"Delta":128206588},{"NoteNumber":69,"Velocity":48,"Duration":119403,"SoundDuration":119403,"Delta":128325991},{"NoteNumber":71,"Velocity":49,"Duration":129214,"SoundDuration":129214,"Delta":128445394},{"NoteNumber":73,"Velocity":45,"Duration":118965,"SoundDuration":118965,"Delta":128574609},{"NoteNumber":45,"Velocity":33,"Duration":178308,"SoundDuration":178308,"Delta":128574609},{"NoteNumber":49,"Velocity":33,"Duration":178308,"SoundDuration":178308,"Delta":128574609},{"NoteNumber":57,"Velocity":40,"Duration":178282,"SoundDuration":178282,"Delta":128579073},{"NoteNumber":74,"Velocity":48,"Duration":118514,"SoundDuration":118514,"Delta":128693575},{"NoteNumber":76,"Velocity":48,"Duration":115834,"SoundDuration":115834,"Delta":128812089},{"NoteNumber":78,"Velocity":50,"Duration":117526,"SoundDuration":117526,"Delta":128930129},{"NoteNumber":73,"Velocity":44,"Duration":263796,"SoundDuration":263796,"Delta":128930129},{"NoteNumber":76,"Velocity":44,"Duration":263796,"SoundDuration":263796,"Delta":128930129},{"NoteNumber":80,"Velocity":52,"Duration":117085,"SoundDuration":117085,"Delta":129047656},{"NoteNumber":81,"Velocity":52,"Duration":122063,"SoundDuration":122063,"Delta":129164741},{"NoteNumber":73,"Velocity":39,"Duration":92879,"SoundDuration":92879,"Delta":129193925},{"NoteNumber":76,"Velocity":39,"Duration":92879,"SoundDuration":92879,"Delta":129193925},{"NoteNumber":83,"Velocity":54,"Duration":116858,"SoundDuration":116858,"Delta":129286805},{"NoteNumber":71,"Velocity":44,"Duration":175169,"SoundDuration":175169,"Delta":129286805},{"NoteNumber":74,"Velocity":44,"Duration":175169,"SoundDuration":175169,"Delta":129286805},{"NoteNumber":85,"Velocity":56,"Duration":116569,"SoundDuration":116569,"Delta":129403663},{"NoteNumber":86,"Velocity":56,"Duration":116173,"SoundDuration":116173,"Delta":129520232},{"NoteNumber":88,"Velocity":58,"Duration":115942,"SoundDuration":115942,"Delta":129636406},{"NoteNumber":52,"Velocity":40,"Duration":174024,"SoundDuration":174024,"Delta":129636406},{"NoteNumber":59,"Velocity":40,"Duration":174024,"SoundDuration":174024,"Delta":129636406},{"NoteNumber":90,"Velocity":60,"Duration":116222,"SoundDuration":116222,"Delta":129752348},{"NoteNumber":92,"Velocity":60,"Duration":133568,"SoundDuration":133568,"Delta":129868570},{"NoteNumber":93,"Velocity":62,"Duration":117880,"SoundDuration":117880,"Delta":130002138},{"NoteNumber":45,"Velocity":38,"Duration":175780,"SoundDuration":175780,"Delta":130002138},{"NoteNumber":49,"Velocity":38,"Duration":175780,"SoundDuration":175780,"Delta":130002138},{"NoteNumber":57,"Velocity":45,"Duration":175780,"SoundDuration":175780,"Delta":130002138},{"NoteNumber":92,"Velocity":62,"Duration":115636,"SoundDuration":115636,"Delta":130120019},{"NoteNumber":90,"Velocity":60,"Duration":115408,"SoundDuration":115408,"Delta":130235655},{"NoteNumber":88,"Velocity":60,"Duration":115425,"SoundDuration":115425,"Delta":130351064},{"NoteNumber":73,"Velocity":44,"Duration":260703,"SoundDuration":260703,"Delta":130351064},{"NoteNumber":76,"Velocity":44,"Duration":260703,"SoundDuration":260703,"Delta":130351064},{"NoteNumber":86,"Velocity":58,"Duration":116123,"SoundDuration":116123,"Delta":130466489},{"NoteNumber":85,"Velocity":56,"Duration":122322,"SoundDuration":122322,"Delta":130582613},{"NoteNumber":73,"Velocity":39,"Duration":93167,"SoundDuration":93167,"Delta":130611767},{"NoteNumber":76,"Velocity":39,"Duration":93167,"SoundDuration":93167,"Delta":130611767},{"NoteNumber":83,"Velocity":55,"Duration":113755,"SoundDuration":113755,"Delta":130704935},{"NoteNumber":71,"Velocity":44,"Duration":170733,"SoundDuration":170733,"Delta":130704935},{"NoteNumber":74,"Velocity":44,"Duration":170733,"SoundDuration":170733,"Delta":130704935},{"NoteNumber":81,"Velocity":54,"Duration":114047,"SoundDuration":114047,"Delta":130818690},{"NoteNumber":80,"Velocity":52,"Duration":114465,"SoundDuration":114465,"Delta":130932738},{"NoteNumber":78,"Velocity":51,"Duration":114924,"SoundDuration":114924,"Delta":131047204},{"NoteNumber":52,"Velocity":40,"Duration":172561,"SoundDuration":172561,"Delta":131047204},{"NoteNumber":59,"Velocity":40,"Duration":172561,"SoundDuration":172561,"Delta":131047204},{"NoteNumber":76,"Velocity":50,"Duration":115404,"SoundDuration":115404,"Delta":131162128},{"NoteNumber":74,"Velocity":48,"Duration":115112,"SoundDuration":115112,"Delta":131277533},{"NoteNumber":73,"Velocity":46,"Duration":114212,"SoundDuration":114212,"Delta":131392646},{"NoteNumber":45,"Velocity":38,"Duration":171725,"SoundDuration":171725,"Delta":131392646},{"NoteNumber":49,"Velocity":38,"Duration":171725,"SoundDuration":171725,"Delta":131392646},{"NoteNumber":57,"Velocity":45,"Duration":171725,"SoundDuration":171725,"Delta":131392646},{"NoteNumber":71,"Velocity":45,"Duration":115251,"SoundDuration":115251,"Delta":131506858},{"NoteNumber":69,"Velocity":44,"Duration":116275,"SoundDuration":116275,"Delta":131622110},{"NoteNumber":68,"Velocity":43,"Duration":117307,"SoundDuration":117307,"Delta":131738386},{"NoteNumber":73,"Velocity":44,"Duration":265487,"SoundDuration":265487,"Delta":131738386},{"NoteNumber":76,"Velocity":44,"Duration":265487,"SoundDuration":265487,"Delta":131738386},{"NoteNumber":66,"Velocity":41,"Duration":118403,"SoundDuration":118403,"Delta":131855693},{"NoteNumber":64,"Velocity":40,"Duration":126211,"SoundDuration":126211,"Delta":131974096},{"NoteNumber":73,"Velocity":39,"Duration":96434,"SoundDuration":96434,"Delta":132003873},{"NoteNumber":76,"Velocity":39,"Duration":96434,"SoundDuration":96434,"Delta":132003873},{"NoteNumber":62,"Velocity":40,"Duration":117324,"SoundDuration":117324,"Delta":132100307},{"NoteNumber":71,"Velocity":44,"Duration":176364,"SoundDuration":176364,"Delta":132100307},{"NoteNumber":74,"Velocity":44,"Duration":176364,"SoundDuration":176364,"Delta":132100307},{"NoteNumber":66,"Velocity":39,"Duration":118361,"SoundDuration":118361,"Delta":132217632},{"NoteNumber":64,"Velocity":37,"Duration":119399,"SoundDuration":119399,"Delta":132335993},{"NoteNumber":62,"Velocity":35,"Duration":120487,"SoundDuration":120487,"Delta":132455392},{"NoteNumber":40,"Velocity":32,"Duration":181139,"SoundDuration":181139,"Delta":132455392},{"NoteNumber":61,"Velocity":33,"Duration":121556,"SoundDuration":121556,"Delta":132575880},{"NoteNumber":59,"Velocity":31,"Duration":146198,"SoundDuration":146198,"Delta":132697436},{"NoteNumber":57,"Velocity":39,"Duration":116617,"SoundDuration":116617,"Delta":132843634},{"NoteNumber":33,"Velocity":36,"Duration":699707,"SoundDuration":699707,"Delta":132843634},{"NoteNumber":61,"Velocity":34,"Duration":116618,"SoundDuration":116618,"Delta":132960252},{"NoteNumber":57,"Velocity":34,"Duration":116617,"SoundDuration":116617,"Delta":133076870},{"NoteNumber":61,"Velocity":39,"Duration":116618,"SoundDuration":116618,"Delta":133193488},{"NoteNumber":69,"Velocity":34,"Duration":116617,"SoundDuration":116617,"Delta":133310106},{"NoteNumber":61,"Velocity":34,"Duration":116617,"SoundDuration":116617,"Delta":133426724},{"NoteNumber":57,"Velocity":39,"Duration":115607,"SoundDuration":115607,"Delta":133543342},{"NoteNumber":45,"Velocity":33,"Duration":86705,"SoundDuration":86705,"Delta":133543342},{"NoteNumber":61,"Velocity":34,"Duration":115606,"SoundDuration":115606,"Delta":133658949},{"NoteNumber":45,"Velocity":28,"Duration":86705,"SoundDuration":86705,"Delta":133716753},{"NoteNumber":57,"Velocity":34,"Duration":115607,"SoundDuration":115607,"Delta":133774556},{"NoteNumber":61,"Velocity":39,"Duration":115606,"SoundDuration":115606,"Delta":133890163},{"NoteNumber":45,"Velocity":33,"Duration":86705,"SoundDuration":86705,"Delta":133890163},{"NoteNumber":69,"Velocity":34,"Duration":115607,"SoundDuration":115607,"Delta":134005770},{"NoteNumber":45,"Velocity":28,"Duration":89053,"SoundDuration":89053,"Delta":134063574},{"NoteNumber":61,"Velocity":34,"Duration":117187,"SoundDuration":117187,"Delta":134121377},{"NoteNumber":61,"Velocity":39,"Duration":116278,"SoundDuration":116278,"Delta":134246377},{"NoteNumber":45,"Velocity":36,"Duration":348837,"SoundDuration":348837,"Delta":134246377},{"NoteNumber":69,"Velocity":34,"Duration":116279,"SoundDuration":116279,"Delta":134362656},{"NoteNumber":61,"Velocity":34,"Duration":116278,"SoundDuration":116278,"Delta":134478935},{"NoteNumber":69,"Velocity":40,"Duration":119403,"SoundDuration":119403,"Delta":134595214},{"NoteNumber":55,"Velocity":37,"Duration":179104,"SoundDuration":179104,"Delta":134595214},{"NoteNumber":73,"Velocity":35,"Duration":119403,"SoundDuration":119403,"Delta":134714617},{"NoteNumber":69,"Velocity":35,"Duration":119402,"SoundDuration":119402,"Delta":134834020},{"NoteNumber":61,"Velocity":45,"Duration":114942,"SoundDuration":114942,"Delta":134953423},{"NoteNumber":45,"Velocity":43,"Duration":86207,"SoundDuration":86207,"Delta":134953423},{"NoteNumber":69,"Velocity":39,"Duration":114942,"SoundDuration":114942,"Delta":135068366},{"NoteNumber":45,"Velocity":38,"Duration":86207,"SoundDuration":86207,"Delta":135125837},{"NoteNumber":61,"Velocity":40,"Duration":114942,"SoundDuration":114942,"Delta":135183309},{"NoteNumber":69,"Velocity":48,"Duration":115607,"SoundDuration":115607,"Delta":135298251},{"NoteNumber":45,"Velocity":45,"Duration":86705,"SoundDuration":86705,"Delta":135298251},{"NoteNumber":73,"Velocity":43,"Duration":115606,"SoundDuration":115606,"Delta":135413858},{"NoteNumber":45,"Velocity":42,"Duration":88956,"SoundDuration":88956,"Delta":135471662},{"NoteNumber":69,"Velocity":43,"Duration":124610,"SoundDuration":124610,"Delta":135529465},{"NoteNumber":64,"Velocity":52,"Duration":115941,"SoundDuration":115941,"Delta":135654076},{"NoteNumber":45,"Velocity":55,"Duration":347825,"SoundDuration":347825,"Delta":135654076},{"NoteNumber":73,"Velocity":46,"Duration":115942,"SoundDuration":115942,"Delta":135770018},{"NoteNumber":64,"Velocity":46,"Duration":115941,"SoundDuration":115941,"Delta":135885960},{"NoteNumber":73,"Velocity":55,"Duration":118694,"SoundDuration":118694,"Delta":136001902},{"NoteNumber":55,"Velocity":51,"Duration":178041,"SoundDuration":178041,"Delta":136001902},{"NoteNumber":76,"Velocity":47,"Duration":118694,"SoundDuration":118694,"Delta":136120596},{"NoteNumber":73,"Velocity":48,"Duration":118694,"SoundDuration":118694,"Delta":136239291},{"NoteNumber":64,"Velocity":57,"Duration":115607,"SoundDuration":115607,"Delta":136357985},{"NoteNumber":57,"Velocity":57,"Duration":346821,"SoundDuration":346821,"Delta":136357985},{"NoteNumber":73,"Velocity":49,"Duration":115606,"SoundDuration":115606,"Delta":136473592},{"NoteNumber":64,"Velocity":50,"Duration":115607,"SoundDuration":115607,"Delta":136589199},{"NoteNumber":73,"Velocity":59,"Duration":118694,"SoundDuration":118694,"Delta":136704806},{"NoteNumber":67,"Velocity":53,"Duration":178041,"SoundDuration":178041,"Delta":136704806},{"NoteNumber":76,"Velocity":51,"Duration":118694,"SoundDuration":118694,"Delta":136823500},{"NoteNumber":73,"Velocity":52,"Duration":118694,"SoundDuration":118694,"Delta":136942195},{"NoteNumber":69,"Velocity":61,"Duration":116617,"SoundDuration":116617,"Delta":137060889},{"NoteNumber":57,"Velocity":66,"Duration":349853,"SoundDuration":349853,"Delta":137060889},{"NoteNumber":73,"Velocity":53,"Duration":116618,"SoundDuration":116618,"Delta":137177507},{"NoteNumber":69,"Velocity":55,"Duration":116617,"SoundDuration":116617,"Delta":137294125},{"NoteNumber":73,"Velocity":64,"Duration":119047,"SoundDuration":119047,"Delta":137410743},{"NoteNumber":67,"Velocity":63,"Duration":178571,"SoundDuration":178571,"Delta":137410743},{"NoteNumber":81,"Velocity":57,"Duration":119047,"SoundDuration":119047,"Delta":137529791},{"NoteNumber":73,"Velocity":59,"Duration":111607,"SoundDuration":111607,"Delta":137648838},{"NoteNumber":73,"Velocity":70,"Duration":116617,"SoundDuration":116617,"Delta":137767886},{"NoteNumber":57,"Velocity":74,"Duration":349853,"SoundDuration":349853,"Delta":137767886},{"NoteNumber":81,"Velocity":61,"Duration":116618,"SoundDuration":116618,"Delta":137884504},{"NoteNumber":73,"Velocity":63,"Duration":116617,"SoundDuration":116617,"Delta":138001122},{"NoteNumber":81,"Velocity":75,"Duration":118694,"SoundDuration":118694,"Delta":138117740},{"NoteNumber":67,"Velocity":73,"Duration":178041,"SoundDuration":178041,"Delta":138117740},{"NoteNumber":85,"Velocity":66,"Duration":118694,"SoundDuration":118694,"Delta":138236434},{"NoteNumber":81,"Velocity":67,"Duration":173912,"SoundDuration":173912,"Delta":138355129},{"NoteNumber":86,"Velocity":92,"Duration":829876,"SoundDuration":829876,"Delta":138529042},{"NoteNumber":81,"Velocity":78,"Duration":829876,"SoundDuration":829876,"Delta":138529042},{"NoteNumber":78,"Velocity":78,"Duration":829876,"SoundDuration":829876,"Delta":138529042},{"NoteNumber":74,"Velocity":78,"Duration":829876,"SoundDuration":829876,"Delta":138529042},{"NoteNumber":38,"Velocity":64,"Duration":829876,"SoundDuration":829876,"Delta":138529042},{"NoteNumber":50,"Velocity":75,"Duration":829876,"SoundDuration":829876,"Delta":138529042},{"NoteNumber":57,"Velocity":56,"Duration":85469,"SoundDuration":85469,"Delta":139358918},{"NoteNumber":62,"Velocity":66,"Duration":85469,"SoundDuration":85469,"Delta":139358918},{"NoteNumber":42,"Velocity":45,"Duration":85469,"SoundDuration":85469,"Delta":139358918},{"NoteNumber":50,"Velocity":53,"Duration":85469,"SoundDuration":85469,"Delta":139358918},{"NoteNumber":57,"Velocity":51,"Duration":85469,"SoundDuration":85469,"Delta":139529858},{"NoteNumber":62,"Velocity":61,"Duration":85469,"SoundDuration":85469,"Delta":139529858},{"NoteNumber":42,"Velocity":40,"Duration":85469,"SoundDuration":85469,"Delta":139529858},{"NoteNumber":50,"Velocity":48,"Duration":85469,"SoundDuration":85469,"Delta":139529858},{"NoteNumber":57,"Velocity":56,"Duration":83102,"SoundDuration":83102,"Delta":139700798},{"NoteNumber":62,"Velocity":66,"Duration":83102,"SoundDuration":83102,"Delta":139700798},{"NoteNumber":42,"Velocity":45,"Duration":83102,"SoundDuration":83102,"Delta":139700798},{"NoteNumber":50,"Velocity":53,"Duration":83102,"SoundDuration":83102,"Delta":139700798},{"NoteNumber":57,"Velocity":51,"Duration":103376,"SoundDuration":103376,"Delta":139867003},{"NoteNumber":62,"Velocity":60,"Duration":103376,"SoundDuration":103376,"Delta":139867003},{"NoteNumber":42,"Velocity":40,"Duration":103376,"SoundDuration":103376,"Delta":139867003},{"NoteNumber":50,"Velocity":48,"Duration":103376,"SoundDuration":103376,"Delta":139867003},{"NoteNumber":57,"Velocity":62,"Duration":367872,"SoundDuration":367872,"Delta":140073757},{"NoteNumber":62,"Velocity":73,"Duration":551807,"SoundDuration":551807,"Delta":140073757},{"NoteNumber":42,"Velocity":49,"Duration":367872,"SoundDuration":367872,"Delta":140073757},{"NoteNumber":50,"Velocity":58,"Duration":551807,"SoundDuration":551807,"Delta":140073757},{"NoteNumber":59,"Velocity":53,"Duration":183935,"SoundDuration":183935,"Delta":140441629},{"NoteNumber":64,"Velocity":63,"Duration":183935,"SoundDuration":183935,"Delta":140441629},{"NoteNumber":43,"Velocity":45,"Duration":183935,"SoundDuration":183935,"Delta":140441629},{"NoteNumber":52,"Velocity":54,"Duration":183935,"SoundDuration":183935,"Delta":140441629},{"NoteNumber":60,"Velocity":56,"Duration":85227,"SoundDuration":85227,"Delta":140809501},{"NoteNumber":62,"Velocity":56,"Duration":85227,"SoundDuration":85227,"Delta":140809501},{"NoteNumber":66,"Velocity":66,"Duration":85227,"SoundDuration":85227,"Delta":140809501},{"NoteNumber":45,"Velocity":45,"Duration":85227,"SoundDuration":85227,"Delta":140809501},{"NoteNumber":50,"Velocity":45,"Duration":85227,"SoundDuration":85227,"Delta":140809501},{"NoteNumber":54,"Velocity":53,"Duration":85227,"SoundDuration":85227,"Delta":140809501},{"NoteNumber":60,"Velocity":51,"Duration":85227,"SoundDuration":85227,"Delta":140979955},{"NoteNumber":62,"Velocity":51,"Duration":85227,"SoundDuration":85227,"Delta":140979955},{"NoteNumber":66,"Velocity":61,"Duration":85227,"SoundDuration":85227,"Delta":140979955},{"NoteNumber":45,"Velocity":40,"Duration":85227,"SoundDuration":85227,"Delta":140979955},{"NoteNumber":50,"Velocity":40,"Duration":85227,"SoundDuration":85227,"Delta":140979955},{"NoteNumber":54,"Velocity":48,"Duration":85227,"SoundDuration":85227,"Delta":140979955},{"NoteNumber":60,"Velocity":56,"Duration":83798,"SoundDuration":83798,"Delta":141150410},{"NoteNumber":62,"Velocity":56,"Duration":83798,"SoundDuration":83798,"Delta":141150410},{"NoteNumber":66,"Velocity":66,"Duration":83798,"SoundDuration":83798,"Delta":141150410},{"NoteNumber":45,"Velocity":45,"Duration":83798,"SoundDuration":83798,"Delta":141150410},{"NoteNumber":50,"Velocity":45,"Duration":83798,"SoundDuration":83798,"Delta":141150410},{"NoteNumber":54,"Velocity":53,"Duration":83798,"SoundDuration":83798,"Delta":141150410},{"NoteNumber":60,"Velocity":51,"Duration":104094,"SoundDuration":104094,"Delta":141318008},{"NoteNumber":62,"Velocity":51,"Duration":104094,"SoundDuration":104094,"Delta":141318008},{"NoteNumber":66,"Velocity":60,"Duration":104094,"SoundDuration":104094,"Delta":141318008},{"NoteNumber":45,"Velocity":40,"Duration":104094,"SoundDuration":104094,"Delta":141318008},{"NoteNumber":50,"Velocity":40,"Duration":104094,"SoundDuration":104094,"Delta":141318008},{"NoteNumber":54,"Velocity":48,"Duration":104094,"SoundDuration":104094,"Delta":141318008},{"NoteNumber":60,"Velocity":62,"Duration":377120,"SoundDuration":377120,"Delta":141526197},{"NoteNumber":62,"Velocity":62,"Duration":565681,"SoundDuration":565681,"Delta":141526197},{"NoteNumber":66,"Velocity":73,"Duration":377120,"SoundDuration":377120,"Delta":141526197},{"NoteNumber":50,"Velocity":49,"Duration":565681,"SoundDuration":565681,"Delta":141526197},{"NoteNumber":45,"Velocity":49,"Duration":377120,"SoundDuration":377120,"Delta":141526197},{"NoteNumber":54,"Velocity":58,"Duration":377120,"SoundDuration":377120,"Delta":141526197},{"NoteNumber":59,"Velocity":53,"Duration":188560,"SoundDuration":188560,"Delta":141903318},{"NoteNumber":67,"Velocity":63,"Duration":188560,"SoundDuration":188560,"Delta":141903318},{"NoteNumber":47,"Velocity":45,"Duration":188560,"SoundDuration":188560,"Delta":141903318},{"NoteNumber":55,"Velocity":54,"Duration":188560,"SoundDuration":188560,"Delta":141903318},{"NoteNumber":64,"Velocity":57,"Duration":177935,"SoundDuration":177935,"Delta":142091878},{"NoteNumber":52,"Velocity":46,"Duration":177935,"SoundDuration":177935,"Delta":142091878},{"NoteNumber":67,"Velocity":63,"Duration":114794,"SoundDuration":114794,"Delta":142269814},{"NoteNumber":55,"Velocity":54,"Duration":114794,"SoundDuration":114794,"Delta":142269814},{"NoteNumber":66,"Velocity":57,"Duration":114547,"SoundDuration":114547,"Delta":142384609},{"NoteNumber":54,"Velocity":47,"Duration":114547,"SoundDuration":114547,"Delta":142384609},{"NoteNumber":64,"Velocity":57,"Duration":114547,"SoundDuration":114547,"Delta":142499156},{"NoteNumber":52,"Velocity":48,"Duration":114547,"SoundDuration":114547,"Delta":142499156},{"NoteNumber":70,"Velocity":63,"Duration":111296,"SoundDuration":111296,"Delta":142613704},{"NoteNumber":58,"Velocity":54,"Duration":111296,"SoundDuration":111296,"Delta":142613704},{"NoteNumber":69,"Velocity":58,"Duration":111296,"SoundDuration":111296,"Delta":142725001},{"NoteNumber":57,"Velocity":49,"Duration":111296,"SoundDuration":111296,"Delta":142725001},{"NoteNumber":67,"Velocity":58,"Duration":131492,"SoundDuration":131492,"Delta":142836297},{"NoteNumber":55,"Velocity":49,"Duration":131492,"SoundDuration":131492,"Delta":142836297},{"NoteNumber":69,"Velocity":63,"Duration":176366,"SoundDuration":176366,"Delta":142967790},{"NoteNumber":57,"Velocity":54,"Duration":176366,"SoundDuration":176366,"Delta":142967790},{"NoteNumber":78,"Velocity":56,"Duration":115540,"SoundDuration":115540,"Delta":143320524},{"NoteNumber":62,"Velocity":42,"Duration":115540,"SoundDuration":115540,"Delta":143320524},{"NoteNumber":76,"Velocity":46,"Duration":115539,"SoundDuration":115539,"Delta":143436064},{"NoteNumber":64,"Velocity":35,"Duration":115539,"SoundDuration":115539,"Delta":143436064},{"NoteNumber":74,"Velocity":46,"Duration":115540,"SoundDuration":115540,"Delta":143551604},{"NoteNumber":66,"Velocity":35,"Duration":115540,"SoundDuration":115540,"Delta":143551604},{"NoteNumber":81,"Velocity":57,"Duration":113895,"SoundDuration":113895,"Delta":143667144},{"NoteNumber":57,"Velocity":43,"Duration":113895,"SoundDuration":113895,"Delta":143667144},{"NoteNumber":79,"Velocity":47,"Duration":113895,"SoundDuration":113895,"Delta":143781039},{"NoteNumber":61,"Velocity":36,"Duration":113895,"SoundDuration":113895,"Delta":143781039},{"NoteNumber":78,"Velocity":47,"Duration":113895,"SoundDuration":113895,"Delta":143894934},{"NoteNumber":62,"Velocity":36,"Duration":113895,"SoundDuration":113895,"Delta":143894934},{"NoteNumber":76,"Velocity":58,"Duration":113895,"SoundDuration":113895,"Delta":144008830},{"NoteNumber":64,"Velocity":43,"Duration":113895,"SoundDuration":113895,"Delta":144008830},{"NoteNumber":74,"Velocity":50,"Duration":113895,"SoundDuration":113895,"Delta":144122725},{"NoteNumber":66,"Velocity":37,"Duration":113895,"SoundDuration":113895,"Delta":144122725},{"NoteNumber":73,"Velocity":50,"Duration":154918,"SoundDuration":154918,"Delta":144236620},{"NoteNumber":67,"Velocity":37,"Duration":154918,"SoundDuration":154918,"Delta":144236620},{"NoteNumber":86,"Velocity":92,"Duration":818554,"SoundDuration":818554,"Delta":144391539},{"NoteNumber":81,"Velocity":78,"Duration":818554,"SoundDuration":818554,"Delta":144391539},{"NoteNumber":77,"Velocity":78,"Duration":818554,"SoundDuration":818554,"Delta":144391539},{"NoteNumber":74,"Velocity":78,"Duration":818554,"SoundDuration":818554,"Delta":144391539},{"NoteNumber":38,"Velocity":64,"Duration":818554,"SoundDuration":818554,"Delta":144391539},{"NoteNumber":50,"Velocity":75,"Duration":818554,"SoundDuration":818554,"Delta":144391539},{"NoteNumber":57,"Velocity":56,"Duration":85469,"SoundDuration":85469,"Delta":145210093},{"NoteNumber":62,"Velocity":66,"Duration":85469,"SoundDuration":85469,"Delta":145210093},{"NoteNumber":41,"Velocity":45,"Duration":85469,"SoundDuration":85469,"Delta":145210093},{"NoteNumber":50,"Velocity":53,"Duration":85469,"SoundDuration":85469,"Delta":145210093},{"NoteNumber":57,"Velocity":51,"Duration":85469,"SoundDuration":85469,"Delta":145381033},{"NoteNumber":62,"Velocity":61,"Duration":85469,"SoundDuration":85469,"Delta":145381033},{"NoteNumber":41,"Velocity":40,"Duration":85469,"SoundDuration":85469,"Delta":145381033},{"NoteNumber":50,"Velocity":48,"Duration":85469,"SoundDuration":85469,"Delta":145381033},{"NoteNumber":57,"Velocity":56,"Duration":83333,"SoundDuration":83333,"Delta":145551973},{"NoteNumber":62,"Velocity":66,"Duration":83333,"SoundDuration":83333,"Delta":145551973},{"NoteNumber":41,"Velocity":45,"Duration":83333,"SoundDuration":83333,"Delta":145551973},{"NoteNumber":50,"Velocity":53,"Duration":83333,"SoundDuration":83333,"Delta":145551973},{"NoteNumber":57,"Velocity":51,"Duration":103376,"SoundDuration":103376,"Delta":145718639},{"NoteNumber":62,"Velocity":60,"Duration":103376,"SoundDuration":103376,"Delta":145718639},{"NoteNumber":41,"Velocity":40,"Duration":103376,"SoundDuration":103376,"Delta":145718639},{"NoteNumber":50,"Velocity":48,"Duration":103376,"SoundDuration":103376,"Delta":145718639},{"NoteNumber":57,"Velocity":62,"Duration":370428,"SoundDuration":370428,"Delta":145925393},{"NoteNumber":62,"Velocity":73,"Duration":555499,"SoundDuration":555499,"Delta":145925393},{"NoteNumber":41,"Velocity":49,"Duration":370428,"SoundDuration":370428,"Delta":145925393},{"NoteNumber":50,"Velocity":58,"Duration":555499,"SoundDuration":555499,"Delta":145925393},{"NoteNumber":58,"Velocity":53,"Duration":185071,"SoundDuration":185071,"Delta":146295822},{"NoteNumber":64,"Velocity":63,"Duration":185071,"SoundDuration":185071,"Delta":146295822},{"NoteNumber":43,"Velocity":45,"Duration":185071,"SoundDuration":185071,"Delta":146295822},{"NoteNumber":52,"Velocity":54,"Duration":185071,"SoundDuration":185071,"Delta":146295822},{"NoteNumber":60,"Velocity":56,"Duration":85372,"SoundDuration":85372,"Delta":146665964},{"NoteNumber":62,"Velocity":56,"Duration":85372,"SoundDuration":85372,"Delta":146665964},{"NoteNumber":66,"Velocity":66,"Duration":85372,"SoundDuration":85372,"Delta":146665964},{"NoteNumber":45,"Velocity":45,"Duration":85372,"SoundDuration":85372,"Delta":146665964},{"NoteNumber":50,"Velocity":45,"Duration":85372,"SoundDuration":85372,"Delta":146665964},{"NoteNumber":54,"Velocity":53,"Duration":85372,"SoundDuration":85372,"Delta":146665964},{"NoteNumber":60,"Velocity":51,"Duration":85372,"SoundDuration":85372,"Delta":146836709},{"NoteNumber":62,"Velocity":51,"Duration":85372,"SoundDuration":85372,"Delta":146836709},{"NoteNumber":66,"Velocity":61,"Duration":85372,"SoundDuration":85372,"Delta":146836709},{"NoteNumber":45,"Velocity":40,"Duration":85372,"SoundDuration":85372,"Delta":146836709},{"NoteNumber":50,"Velocity":40,"Duration":85372,"SoundDuration":85372,"Delta":146836709},{"NoteNumber":54,"Velocity":48,"Duration":85372,"SoundDuration":85372,"Delta":146836709},{"NoteNumber":60,"Velocity":56,"Duration":84174,"SoundDuration":84174,"Delta":147007455},{"NoteNumber":62,"Velocity":56,"Duration":84174,"SoundDuration":84174,"Delta":147007455},{"NoteNumber":66,"Velocity":66,"Duration":84174,"SoundDuration":84174,"Delta":147007455},{"NoteNumber":45,"Velocity":45,"Duration":84174,"SoundDuration":84174,"Delta":147007455},{"NoteNumber":50,"Velocity":45,"Duration":84174,"SoundDuration":84174,"Delta":147007455},{"NoteNumber":54,"Velocity":53,"Duration":84174,"SoundDuration":84174,"Delta":147007455},{"NoteNumber":60,"Velocity":51,"Duration":103376,"SoundDuration":103376,"Delta":147175805},{"NoteNumber":62,"Velocity":51,"Duration":103376,"SoundDuration":103376,"Delta":147175805},{"NoteNumber":66,"Velocity":60,"Duration":103376,"SoundDuration":103376,"Delta":147175805},{"NoteNumber":45,"Velocity":40,"Duration":103376,"SoundDuration":103376,"Delta":147175805},{"NoteNumber":50,"Velocity":40,"Duration":103376,"SoundDuration":103376,"Delta":147175805},{"NoteNumber":54,"Velocity":48,"Duration":103376,"SoundDuration":103376,"Delta":147175805},{"NoteNumber":60,"Velocity":62,"Duration":374765,"SoundDuration":374765,"Delta":147382559},{"NoteNumber":62,"Velocity":62,"Duration":562149,"SoundDuration":562149,"Delta":147382559},{"NoteNumber":66,"Velocity":73,"Duration":374765,"SoundDuration":374765,"Delta":147382559},{"NoteNumber":50,"Velocity":49,"Duration":562149,"SoundDuration":562149,"Delta":147382559},{"NoteNumber":45,"Velocity":49,"Duration":374765,"SoundDuration":374765,"Delta":147382559},{"NoteNumber":54,"Velocity":58,"Duration":374765,"SoundDuration":374765,"Delta":147382559},{"NoteNumber":58,"Velocity":53,"Duration":187383,"SoundDuration":187383,"Delta":147757325},{"NoteNumber":67,"Velocity":63,"Duration":187383,"SoundDuration":187383,"Delta":147757325},{"NoteNumber":46,"Velocity":45,"Duration":187383,"SoundDuration":187383,"Delta":147757325},{"NoteNumber":55,"Velocity":54,"Duration":187383,"SoundDuration":187383,"Delta":147757325},{"NoteNumber":65,"Velocity":56,"Duration":86855,"SoundDuration":86855,"Delta":148132091},{"NoteNumber":62,"Velocity":56,"Duration":86855,"SoundDuration":86855,"Delta":148132091},{"NoteNumber":68,"Velocity":66,"Duration":86855,"SoundDuration":86855,"Delta":148132091},{"NoteNumber":47,"Velocity":45,"Duration":86855,"SoundDuration":86855,"Delta":148132091},{"NoteNumber":53,"Velocity":45,"Duration":86855,"SoundDuration":86855,"Delta":148132091},{"NoteNumber":56,"Velocity":53,"Duration":86855,"SoundDuration":86855,"Delta":148132091},{"NoteNumber":65,"Velocity":51,"Duration":86855,"SoundDuration":86855,"Delta":148305802},{"NoteNumber":62,"Velocity":51,"Duration":86855,"SoundDuration":86855,"Delta":148305802},{"NoteNumber":68,"Velocity":61,"Duration":86855,"SoundDuration":86855,"Delta":148305802},{"NoteNumber":47,"Velocity":40,"Duration":86855,"SoundDuration":86855,"Delta":148305802},{"NoteNumber":53,"Velocity":40,"Duration":86855,"SoundDuration":86855,"Delta":148305802},{"NoteNumber":56,"Velocity":48,"Duration":86855,"SoundDuration":86855,"Delta":148305802},{"NoteNumber":65,"Velocity":56,"Duration":85372,"SoundDuration":85372,"Delta":148479514},{"NoteNumber":62,"Velocity":56,"Duration":85372,"SoundDuration":85372,"Delta":148479514},{"NoteNumber":68,"Velocity":66,"Duration":85372,"SoundDuration":85372,"Delta":148479514},{"NoteNumber":47,"Velocity":45,"Duration":85372,"SoundDuration":85372,"Delta":148479514},{"NoteNumber":53,"Velocity":45,"Duration":85372,"SoundDuration":85372,"Delta":148479514},{"NoteNumber":56,"Velocity":53,"Duration":85372,"SoundDuration":85372,"Delta":148479514},{"NoteNumber":65,"Velocity":51,"Duration":115207,"SoundDuration":115207,"Delta":148650259},{"NoteNumber":62,"Velocity":51,"Duration":115207,"SoundDuration":115207,"Delta":148650259},{"NoteNumber":68,"Velocity":60,"Duration":115207,"SoundDuration":115207,"Delta":148650259},{"NoteNumber":47,"Velocity":40,"Duration":115207,"SoundDuration":115207,"Delta":148650259},{"NoteNumber":53,"Velocity":40,"Duration":115207,"SoundDuration":115207,"Delta":148650259},{"NoteNumber":56,"Velocity":48,"Duration":115207,"SoundDuration":115207,"Delta":148650259},{"NoteNumber":60,"Velocity":62,"Duration":375939,"SoundDuration":375939,"Delta":148880674},{"NoteNumber":65,"Velocity":62,"Duration":375939,"SoundDuration":375939,"Delta":148880674},{"NoteNumber":69,"Velocity":73,"Duration":375939,"SoundDuration":375939,"Delta":148880674},{"NoteNumber":53,"Velocity":49,"Duration":720569,"SoundDuration":720569,"Delta":148880674},{"NoteNumber":48,"Velocity":49,"Duration":720569,"SoundDuration":720569,"Delta":148880674},{"NoteNumber":57,"Velocity":58,"Duration":720569,"SoundDuration":720569,"Delta":148880674},{"NoteNumber":72,"Velocity":56,"Duration":114876,"SoundDuration":114876,"Delta":149256614},{"NoteNumber":70,"Velocity":46,"Duration":114876,"SoundDuration":114876,"Delta":149371490},{"NoteNumber":69,"Velocity":46,"Duration":114876,"SoundDuration":114876,"Delta":149486367},{"NoteNumber":67,"Velocity":57,"Duration":113572,"SoundDuration":113572,"Delta":149601244},{"NoteNumber":48,"Velocity":43,"Duration":85179,"SoundDuration":85179,"Delta":149601244},{"NoteNumber":65,"Velocity":47,"Duration":113572,"SoundDuration":113572,"Delta":149714816},{"NoteNumber":48,"Velocity":36,"Duration":85179,"SoundDuration":85179,"Delta":149771602},{"NoteNumber":64,"Velocity":47,"Duration":113571,"SoundDuration":113571,"Delta":149828388},{"NoteNumber":62,"Velocity":55,"Duration":112044,"SoundDuration":112044,"Delta":149941960},{"NoteNumber":48,"Velocity":43,"Duration":84033,"SoundDuration":84033,"Delta":149941960},{"NoteNumber":60,"Velocity":47,"Duration":112044,"SoundDuration":112044,"Delta":150054004},{"NoteNumber":48,"Velocity":37,"Duration":84033,"SoundDuration":84033,"Delta":150110027},{"NoteNumber":58,"Velocity":47,"Duration":112044,"SoundDuration":112044,"Delta":150166049},{"NoteNumber":57,"Velocity":53,"Duration":112994,"SoundDuration":112994,"Delta":150278094},{"NoteNumber":48,"Velocity":43,"Duration":370288,"SoundDuration":370288,"Delta":150278094},{"NoteNumber":58,"Velocity":46,"Duration":112994,"SoundDuration":112994,"Delta":150391088},{"NoteNumber":60,"Velocity":46,"Duration":144299,"SoundDuration":144299,"Delta":150504082},{"NoteNumber":72,"Velocity":56,"Duration":114876,"SoundDuration":114876,"Delta":150648382},{"NoteNumber":45,"Velocity":43,"Duration":172314,"SoundDuration":172314,"Delta":150648382},{"NoteNumber":70,"Velocity":46,"Duration":114876,"SoundDuration":114876,"Delta":150763259},{"NoteNumber":69,"Velocity":46,"Duration":114876,"SoundDuration":114876,"Delta":150878136},{"NoteNumber":48,"Velocity":43,"Duration":85008,"SoundDuration":85008,"Delta":150987987},{"NoteNumber":67,"Velocity":57,"Duration":113250,"SoundDuration":113250,"Delta":150993012},{"NoteNumber":65,"Velocity":47,"Duration":113250,"SoundDuration":113250,"Delta":151106263},{"NoteNumber":48,"Velocity":36,"Duration":84937,"SoundDuration":84937,"Delta":151157933},{"NoteNumber":64,"Velocity":47,"Duration":113250,"SoundDuration":113250,"Delta":151219513},{"NoteNumber":48,"Velocity":43,"Duration":83865,"SoundDuration":83865,"Delta":151327809},{"NoteNumber":62,"Velocity":55,"Duration":111731,"SoundDuration":111731,"Delta":151332763},{"NoteNumber":60,"Velocity":47,"Duration":111732,"SoundDuration":111732,"Delta":151444495},{"NoteNumber":48,"Velocity":37,"Duration":83798,"SoundDuration":83798,"Delta":151495473},{"NoteNumber":58,"Velocity":47,"Duration":111731,"SoundDuration":111731,"Delta":151556227},{"NoteNumber":57,"Velocity":53,"Duration":113314,"SoundDuration":113314,"Delta":151667959},{"NoteNumber":48,"Velocity":43,"Duration":350009,"SoundDuration":350009,"Delta":151667959},{"NoteNumber":58,"Velocity":46,"Duration":113314,"SoundDuration":113314,"Delta":151781274},{"NoteNumber":60,"Velocity":40,"Duration":123380,"SoundDuration":123380,"Delta":151894588},{"NoteNumber":57,"Velocity":45,"Duration":121138,"SoundDuration":121138,"Delta":152017969},{"NoteNumber":58,"Velocity":39,"Duration":121138,"SoundDuration":121138,"Delta":152139107},{"NoteNumber":60,"Velocity":36,"Duration":121138,"SoundDuration":121138,"Delta":152260246},{"NoteNumber":57,"Velocity":47,"Duration":133252,"SoundDuration":133252,"Delta":152381385},{"NoteNumber":53,"Velocity":38,"Duration":133252,"SoundDuration":133252,"Delta":152381385},{"NoteNumber":58,"Velocity":42,"Duration":133252,"SoundDuration":133252,"Delta":152502523},{"NoteNumber":55,"Velocity":34,"Duration":133252,"SoundDuration":133252,"Delta":152502523},{"NoteNumber":60,"Velocity":43,"Duration":121138,"SoundDuration":121138,"Delta":152623662},{"NoteNumber":57,"Velocity":31,"Duration":121138,"SoundDuration":121138,"Delta":152623662},{"NoteNumber":57,"Velocity":50,"Duration":131264,"SoundDuration":131264,"Delta":152744801},{"NoteNumber":45,"Velocity":42,"Duration":131264,"SoundDuration":131264,"Delta":152744801},{"NoteNumber":58,"Velocity":45,"Duration":131264,"SoundDuration":131264,"Delta":152864132},{"NoteNumber":46,"Velocity":36,"Duration":131264,"SoundDuration":131264,"Delta":152864132},{"NoteNumber":60,"Velocity":41,"Duration":119331,"SoundDuration":119331,"Delta":152983464},{"NoteNumber":48,"Velocity":34,"Duration":119331,"SoundDuration":119331,"Delta":152983464},{"NoteNumber":57,"Velocity":54,"Duration":129640,"SoundDuration":129640,"Delta":153102796},{"NoteNumber":41,"Velocity":43,"Duration":129640,"SoundDuration":129640,"Delta":153102796},{"NoteNumber":58,"Velocity":47,"Duration":129640,"SoundDuration":129640,"Delta":153220651},{"NoteNumber":43,"Velocity":37,"Duration":129640,"SoundDuration":129640,"Delta":153220651},{"NoteNumber":60,"Velocity":43,"Duration":117854,"SoundDuration":117854,"Delta":153338506},{"NoteNumber":45,"Velocity":34,"Duration":117854,"SoundDuration":117854,"Delta":153338506},{"NoteNumber":57,"Velocity":56,"Duration":127020,"SoundDuration":127020,"Delta":153456361},{"NoteNumber":33,"Velocity":46,"Duration":127020,"SoundDuration":127020,"Delta":153456361},{"NoteNumber":58,"Velocity":50,"Duration":127020,"SoundDuration":127020,"Delta":153571834},{"NoteNumber":34,"Velocity":40,"Duration":127020,"SoundDuration":127020,"Delta":153571834},{"NoteNumber":60,"Velocity":46,"Duration":115473,"SoundDuration":115473,"Delta":153687307},{"NoteNumber":36,"Velocity":37,"Duration":115473,"SoundDuration":115473,"Delta":153687307},{"NoteNumber":57,"Velocity":59,"Duration":124858,"SoundDuration":124858,"Delta":153802781},{"NoteNumber":33,"Velocity":53,"Duration":124858,"SoundDuration":124858,"Delta":153802781},{"NoteNumber":58,"Velocity":52,"Duration":124858,"SoundDuration":124858,"Delta":153916288},{"NoteNumber":34,"Velocity":43,"Duration":124858,"SoundDuration":124858,"Delta":153916288},{"NoteNumber":60,"Velocity":46,"Duration":113507,"SoundDuration":113507,"Delta":154029795},{"NoteNumber":36,"Velocity":40,"Duration":113507,"SoundDuration":113507,"Delta":154029795},{"NoteNumber":57,"Velocity":63,"Duration":123595,"SoundDuration":123595,"Delta":154143303},{"NoteNumber":33,"Velocity":59,"Duration":123595,"SoundDuration":123595,"Delta":154143303},{"NoteNumber":58,"Velocity":55,"Duration":128144,"SoundDuration":128144,"Delta":154255662},{"NoteNumber":34,"Velocity":50,"Duration":128144,"SoundDuration":128144,"Delta":154255662},{"NoteNumber":60,"Velocity":47,"Duration":157853,"SoundDuration":157853,"Delta":154368022},{"NoteNumber":36,"Velocity":41,"Duration":157853,"SoundDuration":157853,"Delta":154368022},{"NoteNumber":53,"Velocity":54,"Duration":724637,"SoundDuration":724637,"Delta":154525875},{"NoteNumber":56,"Velocity":54,"Duration":724637,"SoundDuration":724637,"Delta":154525875},{"NoteNumber":61,"Velocity":70,"Duration":724637,"SoundDuration":724637,"Delta":154525875},{"NoteNumber":37,"Velocity":70,"Duration":90579,"SoundDuration":90579,"Delta":154525875},{"NoteNumber":37,"Velocity":35,"Duration":90579,"SoundDuration":90579,"Delta":154710054},{"NoteNumber":37,"Velocity":35,"Duration":90579,"SoundDuration":90579,"Delta":154888194},{"NoteNumber":37,"Velocity":35,"Duration":90579,"SoundDuration":90579,"Delta":155069354},{"NoteNumber":56,"Velocity":37,"Duration":89498,"SoundDuration":89498,"Delta":155250513},{"NoteNumber":61,"Velocity":37,"Duration":89498,"SoundDuration":89498,"Delta":155250513},{"NoteNumber":65,"Velocity":44,"Duration":89498,"SoundDuration":89498,"Delta":155250513},{"NoteNumber":37,"Velocity":46,"Duration":722847,"SoundDuration":722847,"Delta":155250513},{"NoteNumber":56,"Velocity":33,"Duration":89498,"SoundDuration":89498,"Delta":155429511},{"NoteNumber":61,"Velocity":33,"Duration":89498,"SoundDuration":89498,"Delta":155429511},{"NoteNumber":65,"Velocity":39,"Duration":89498,"SoundDuration":89498,"Delta":155429511},{"NoteNumber":56,"Velocity":33,"Duration":89498,"SoundDuration":89498,"Delta":155608508},{"NoteNumber":61,"Velocity":33,"Duration":89498,"SoundDuration":89498,"Delta":155608508},{"NoteNumber":65,"Velocity":39,"Duration":89498,"SoundDuration":89498,"Delta":155608508},{"NoteNumber":56,"Velocity":33,"Duration":93603,"SoundDuration":93603,"Delta":155787506},{"NoteNumber":61,"Velocity":33,"Duration":93603,"SoundDuration":93603,"Delta":155787506},{"NoteNumber":65,"Velocity":39,"Duration":93603,"SoundDuration":93603,"Delta":155787506},{"NoteNumber":61,"Velocity":38,"Duration":711744,"SoundDuration":711744,"Delta":155973361},{"NoteNumber":65,"Velocity":38,"Duration":711744,"SoundDuration":711744,"Delta":155973361},{"NoteNumber":68,"Velocity":45,"Duration":711744,"SoundDuration":711744,"Delta":155973361},{"NoteNumber":49,"Velocity":44,"Duration":88967,"SoundDuration":88967,"Delta":155973361},{"NoteNumber":37,"Velocity":37,"Duration":88967,"SoundDuration":88967,"Delta":155973361},{"NoteNumber":49,"Velocity":35,"Duration":88968,"SoundDuration":88968,"Delta":156151297},{"NoteNumber":37,"Velocity":29,"Duration":88967,"SoundDuration":88967,"Delta":156154262},{"NoteNumber":37,"Velocity":29,"Duration":88967,"SoundDuration":88967,"Delta":156329233},{"NoteNumber":49,"Velocity":35,"Duration":88967,"SoundDuration":88967,"Delta":156329233},{"NoteNumber":49,"Velocity":35,"Duration":88967,"SoundDuration":88967,"Delta":156507169},{"NoteNumber":37,"Velocity":29,"Duration":88967,"SoundDuration":88967,"Delta":156507169},{"NoteNumber":68,"Velocity":46,"Duration":87158,"SoundDuration":87158,"Delta":156685105},{"NoteNumber":65,"Velocity":44,"Duration":87158,"SoundDuration":87158,"Delta":156685105},{"NoteNumber":73,"Velocity":52,"Duration":87158,"SoundDuration":87158,"Delta":156685105},{"NoteNumber":49,"Velocity":55,"Duration":711512,"SoundDuration":711512,"Delta":156685105},{"NoteNumber":37,"Velocity":46,"Duration":711512,"SoundDuration":711512,"Delta":156685105},{"NoteNumber":65,"Velocity":39,"Duration":87158,"SoundDuration":87158,"Delta":156859422},{"NoteNumber":68,"Velocity":39,"Duration":87158,"SoundDuration":87158,"Delta":156859422},{"NoteNumber":73,"Velocity":46,"Duration":87158,"SoundDuration":87158,"Delta":156859422},{"NoteNumber":65,"Velocity":39,"Duration":87158,"SoundDuration":87158,"Delta":157033740},{"NoteNumber":68,"Velocity":39,"Duration":87158,"SoundDuration":87158,"Delta":157033740},{"NoteNumber":73,"Velocity":46,"Duration":87158,"SoundDuration":87158,"Delta":157033740},{"NoteNumber":65,"Velocity":39,"Duration":94280,"SoundDuration":94280,"Delta":157208057},{"NoteNumber":68,"Velocity":39,"Duration":94280,"SoundDuration":94280,"Delta":157208057},{"NoteNumber":73,"Velocity":46,"Duration":94280,"SoundDuration":94280,"Delta":157208057},{"NoteNumber":64,"Velocity":52,"Duration":705467,"SoundDuration":705467,"Delta":157396618},{"NoteNumber":67,"Velocity":52,"Duration":705467,"SoundDuration":705467,"Delta":157396618},{"NoteNumber":69,"Velocity":52,"Duration":705467,"SoundDuration":705467,"Delta":157396618},{"NoteNumber":73,"Velocity":62,"Duration":705467,"SoundDuration":705467,"Delta":157396618},{"NoteNumber":45,"Velocity":61,"Duration":88183,"SoundDuration":88183,"Delta":157396618},{"NoteNumber":33,"Velocity":51,"Duration":88183,"SoundDuration":88183,"Delta":157396618},{"NoteNumber":33,"Velocity":39,"Duration":88183,"SoundDuration":88183,"Delta":157572985},{"NoteNumber":45,"Velocity":48,"Duration":88183,"SoundDuration":88183,"Delta":157572985},{"NoteNumber":33,"Velocity":39,"Duration":88183,"SoundDuration":88183,"Delta":157749352},{"NoteNumber":45,"Velocity":48,"Duration":88183,"SoundDuration":88183,"Delta":157749352},{"NoteNumber":45,"Velocity":49,"Duration":88183,"SoundDuration":88183,"Delta":157925719},{"NoteNumber":33,"Velocity":39,"Duration":88183,"SoundDuration":88183,"Delta":157925719},{"NoteNumber":67,"Velocity":55,"Duration":87158,"SoundDuration":87158,"Delta":158102086},{"NoteNumber":73,"Velocity":58,"Duration":87158,"SoundDuration":87158,"Delta":158102086},{"NoteNumber":69,"Velocity":55,"Duration":87158,"SoundDuration":87158,"Delta":158102086},{"NoteNumber":76,"Velocity":66,"Duration":87158,"SoundDuration":87158,"Delta":158102086},{"NoteNumber":45,"Velocity":68,"Duration":711512,"SoundDuration":711512,"Delta":158102086},{"NoteNumber":33,"Velocity":58,"Duration":711512,"SoundDuration":711512,"Delta":158102086},{"NoteNumber":67,"Velocity":49,"Duration":87158,"SoundDuration":87158,"Delta":158276403},{"NoteNumber":69,"Velocity":49,"Duration":87158,"SoundDuration":87158,"Delta":158276403},{"NoteNumber":73,"Velocity":49,"Duration":87158,"SoundDuration":87158,"Delta":158276403},{"NoteNumber":76,"Velocity":58,"Duration":87158,"SoundDuration":87158,"Delta":158276403},{"NoteNumber":67,"Velocity":50,"Duration":87158,"SoundDuration":87158,"Delta":158450721},{"NoteNumber":69,"Velocity":50,"Duration":87158,"SoundDuration":87158,"Delta":158450721},{"NoteNumber":73,"Velocity":50,"Duration":87158,"SoundDuration":87158,"Delta":158450721},{"NoteNumber":76,"Velocity":58,"Duration":87158,"SoundDuration":87158,"Delta":158450721},{"NoteNumber":67,"Velocity":50,"Duration":94280,"SoundDuration":94280,"Delta":158625038},{"NoteNumber":69,"Velocity":50,"Duration":94280,"SoundDuration":94280,"Delta":158625038},{"NoteNumber":73,"Velocity":50,"Duration":94280,"SoundDuration":94280,"Delta":158625038},{"NoteNumber":76,"Velocity":59,"Duration":94280,"SoundDuration":94280,"Delta":158625038},{"NoteNumber":69,"Velocity":67,"Duration":711744,"SoundDuration":711744,"Delta":158813599},{"NoteNumber":73,"Velocity":67,"Duration":711744,"SoundDuration":711744,"Delta":158813599},{"NoteNumber":76,"Velocity":67,"Duration":711744,"SoundDuration":711744,"Delta":158813599},{"NoteNumber":79,"Velocity":67,"Duration":711744,"SoundDuration":711744,"Delta":158813599},{"NoteNumber":81,"Velocity":79,"Duration":711744,"SoundDuration":711744,"Delta":158813599},{"NoteNumber":45,"Velocity":78,"Duration":88967,"SoundDuration":88967,"Delta":158813599},{"NoteNumber":33,"Velocity":64,"Duration":88967,"SoundDuration":88967,"Delta":158813599},{"NoteNumber":33,"Velocity":51,"Duration":88968,"SoundDuration":88968,"Delta":158991535},{"NoteNumber":45,"Velocity":62,"Duration":88968,"SoundDuration":88968,"Delta":158991535},{"NoteNumber":33,"Velocity":52,"Duration":88967,"SoundDuration":88967,"Delta":159169471},{"NoteNumber":45,"Velocity":64,"Duration":88967,"SoundDuration":88967,"Delta":159169471},{"NoteNumber":45,"Velocity":67,"Duration":88967,"SoundDuration":88967,"Delta":159347407},{"NoteNumber":33,"Velocity":55,"Duration":88967,"SoundDuration":88967,"Delta":159347407},{"NoteNumber":76,"Velocity":75,"Duration":90579,"SoundDuration":90579,"Delta":159525343},{"NoteNumber":81,"Velocity":79,"Duration":90579,"SoundDuration":90579,"Delta":159525343},{"NoteNumber":79,"Velocity":75,"Duration":90579,"SoundDuration":90579,"Delta":159525343},{"NoteNumber":85,"Velocity":90,"Duration":90579,"SoundDuration":90579,"Delta":159525343},{"NoteNumber":45,"Velocity":94,"Duration":742606,"SoundDuration":742606,"Delta":159525343},{"NoteNumber":33,"Velocity":79,"Duration":742606,"SoundDuration":742606,"Delta":159525343},{"NoteNumber":76,"Velocity":69,"Duration":90579,"SoundDuration":90579,"Delta":159706502},{"NoteNumber":79,"Velocity":69,"Duration":90579,"SoundDuration":90579,"Delta":159706502},{"NoteNumber":81,"Velocity":69,"Duration":90579,"SoundDuration":90579,"Delta":159706502},{"NoteNumber":85,"Velocity":81,"Duration":90579,"SoundDuration":90579,"Delta":159706502},{"NoteNumber":76,"Velocity":72,"Duration":92535,"SoundDuration":92535,"Delta":159887662},{"NoteNumber":79,"Velocity":72,"Duration":92535,"SoundDuration":92535,"Delta":159887662},{"NoteNumber":81,"Velocity":72,"Duration":92535,"SoundDuration":92535,"Delta":159887662},{"NoteNumber":85,"Velocity":84,"Duration":92535,"SoundDuration":92535,"Delta":159887662},{"NoteNumber":76,"Velocity":75,"Duration":95944,"SoundDuration":95944,"Delta":160072733},{"NoteNumber":79,"Velocity":75,"Duration":95944,"SoundDuration":95944,"Delta":160072733},{"NoteNumber":81,"Velocity":75,"Duration":95944,"SoundDuration":95944,"Delta":160072733},{"NoteNumber":85,"Velocity":87,"Duration":95944,"SoundDuration":95944,"Delta":160072733},{"NoteNumber":86,"Velocity":105,"Duration":829876,"SoundDuration":829876,"Delta":160267949},{"NoteNumber":81,"Velocity":89,"Duration":829876,"SoundDuration":829876,"Delta":160267949},{"NoteNumber":78,"Velocity":89,"Duration":829876,"SoundDuration":829876,"Delta":160267949},{"NoteNumber":74,"Velocity":89,"Duration":829876,"SoundDuration":829876,"Delta":160267949},{"NoteNumber":45,"Velocity":73,"Duration":829876,"SoundDuration":829876,"Delta":160267949},{"NoteNumber":42,"Velocity":73,"Duration":829876,"SoundDuration":829876,"Delta":160267949},{"NoteNumber":38,"Velocity":73,"Duration":829876,"SoundDuration":829876,"Delta":160267949},{"NoteNumber":50,"Velocity":86,"Duration":829876,"SoundDuration":829876,"Delta":160267949},{"NoteNumber":57,"Velocity":54,"Duration":84985,"SoundDuration":84985,"Delta":161097825},{"NoteNumber":62,"Velocity":63,"Duration":84985,"SoundDuration":84985,"Delta":161097825},{"NoteNumber":42,"Velocity":43,"Duration":84985,"SoundDuration":84985,"Delta":161097825},{"NoteNumber":50,"Velocity":51,"Duration":84985,"SoundDuration":84985,"Delta":161097825},{"NoteNumber":57,"Velocity":49,"Duration":84985,"SoundDuration":84985,"Delta":161267796},{"NoteNumber":62,"Velocity":59,"Duration":84985,"SoundDuration":84985,"Delta":161267796},{"NoteNumber":42,"Velocity":39,"Duration":84985,"SoundDuration":84985,"Delta":161267796},{"NoteNumber":50,"Velocity":46,"Duration":84985,"SoundDuration":84985,"Delta":161267796},{"NoteNumber":57,"Velocity":54,"Duration":83102,"SoundDuration":83102,"Delta":161437768},{"NoteNumber":62,"Velocity":63,"Duration":83102,"SoundDuration":83102,"Delta":161437768},{"NoteNumber":42,"Velocity":43,"Duration":83102,"SoundDuration":83102,"Delta":161437768},{"NoteNumber":50,"Velocity":51,"Duration":83102,"SoundDuration":83102,"Delta":161437768},{"NoteNumber":57,"Velocity":49,"Duration":103376,"SoundDuration":103376,"Delta":161603973},{"NoteNumber":62,"Velocity":58,"Duration":103376,"SoundDuration":103376,"Delta":161603973},{"NoteNumber":42,"Velocity":39,"Duration":103376,"SoundDuration":103376,"Delta":161603973},{"NoteNumber":50,"Velocity":46,"Duration":103376,"SoundDuration":103376,"Delta":161603973},{"NoteNumber":57,"Velocity":60,"Duration":367872,"SoundDuration":367872,"Delta":161810727},{"NoteNumber":62,"Velocity":70,"Duration":551807,"SoundDuration":551807,"Delta":161810727},{"NoteNumber":42,"Velocity":47,"Duration":367872,"SoundDuration":367872,"Delta":161810727},{"NoteNumber":50,"Velocity":56,"Duration":551807,"SoundDuration":551807,"Delta":161810727},{"NoteNumber":59,"Velocity":51,"Duration":183935,"SoundDuration":183935,"Delta":162178599},{"NoteNumber":64,"Velocity":61,"Duration":183935,"SoundDuration":183935,"Delta":162178599},{"NoteNumber":43,"Velocity":43,"Duration":183935,"SoundDuration":183935,"Delta":162178599},{"NoteNumber":52,"Velocity":52,"Duration":183935,"SoundDuration":183935,"Delta":162178599},{"NoteNumber":57,"Velocity":61,"Duration":112612,"SoundDuration":112612,"Delta":162546471},{"NoteNumber":45,"Velocity":53,"Duration":112612,"SoundDuration":112612,"Delta":162546471},{"NoteNumber":59,"Velocity":55,"Duration":112612,"SoundDuration":112612,"Delta":162659084},{"NoteNumber":47,"Velocity":48,"Duration":112612,"SoundDuration":112612,"Delta":162659084},{"NoteNumber":60,"Velocity":55,"Duration":112612,"SoundDuration":112612,"Delta":162771696},{"NoteNumber":48,"Velocity":48,"Duration":112612,"SoundDuration":112612,"Delta":162771696},{"NoteNumber":62,"Velocity":61,"Duration":108991,"SoundDuration":108991,"Delta":162884309},{"NoteNumber":50,"Velocity":53,"Duration":108991,"SoundDuration":108991,"Delta":162884309},{"NoteNumber":64,"Velocity":56,"Duration":108991,"SoundDuration":108991,"Delta":162993301},{"NoteNumber":52,"Velocity":49,"Duration":108991,"SoundDuration":108991,"Delta":162993301},{"NoteNumber":66,"Velocity":56,"Duration":140745,"SoundDuration":140745,"Delta":163102292},{"NoteNumber":54,"Velocity":48,"Duration":140745,"SoundDuration":140745,"Delta":163102292},{"NoteNumber":58,"Velocity":61,"Duration":174418,"SoundDuration":174418,"Delta":163243038},{"NoteNumber":46,"Velocity":53,"Duration":174418,"SoundDuration":174418,"Delta":163243038},{"NoteNumber":66,"Velocity":52,"Duration":174418,"SoundDuration":174418,"Delta":163417457},{"NoteNumber":54,"Velocity":49,"Duration":174418,"SoundDuration":174418,"Delta":163417457},{"NoteNumber":59,"Velocity":61,"Duration":174418,"SoundDuration":174418,"Delta":163591875},{"NoteNumber":47,"Velocity":53,"Duration":174418,"SoundDuration":174418,"Delta":163591875},{"NoteNumber":67,"Velocity":55,"Duration":199203,"SoundDuration":199203,"Delta":163766294},{"NoteNumber":55,"Velocity":48,"Duration":199203,"SoundDuration":199203,"Delta":163766294},{"NoteNumber":64,"Velocity":54,"Duration":85227,"SoundDuration":85227,"Delta":163965497},{"NoteNumber":67,"Velocity":54,"Duration":85227,"SoundDuration":85227,"Delta":163965497},{"NoteNumber":69,"Velocity":63,"Duration":85227,"SoundDuration":85227,"Delta":163965497},{"NoteNumber":49,"Velocity":43,"Duration":85227,"SoundDuration":85227,"Delta":163965497},{"NoteNumber":55,"Velocity":43,"Duration":85227,"SoundDuration":85227,"Delta":163965497},{"NoteNumber":57,"Velocity":51,"Duration":85227,"SoundDuration":85227,"Delta":163965497},{"NoteNumber":64,"Velocity":49,"Duration":85227,"SoundDuration":85227,"Delta":164135951},{"NoteNumber":67,"Velocity":49,"Duration":85227,"SoundDuration":85227,"Delta":164135951},{"NoteNumber":69,"Velocity":59,"Duration":85227,"SoundDuration":85227,"Delta":164135951},{"NoteNumber":49,"Velocity":39,"Duration":85227,"SoundDuration":85227,"Delta":164135951},{"NoteNumber":55,"Velocity":39,"Duration":85227,"SoundDuration":85227,"Delta":164135951},{"NoteNumber":57,"Velocity":46,"Duration":85227,"SoundDuration":85227,"Delta":164135951},{"NoteNumber":64,"Velocity":54,"Duration":82873,"SoundDuration":82873,"Delta":164306406},{"NoteNumber":67,"Velocity":54,"Duration":82873,"SoundDuration":82873,"Delta":164306406},{"NoteNumber":69,"Velocity":63,"Duration":82873,"SoundDuration":82873,"Delta":164306406},{"NoteNumber":49,"Velocity":43,"Duration":82873,"SoundDuration":82873,"Delta":164306406},{"NoteNumber":55,"Velocity":43,"Duration":82873,"SoundDuration":82873,"Delta":164306406},{"NoteNumber":57,"Velocity":51,"Duration":82873,"SoundDuration":82873,"Delta":164306406},{"NoteNumber":64,"Velocity":49,"Duration":103376,"SoundDuration":103376,"Delta":164472152},{"NoteNumber":67,"Velocity":49,"Duration":103376,"SoundDuration":103376,"Delta":164472152},{"NoteNumber":69,"Velocity":58,"Duration":103376,"SoundDuration":103376,"Delta":164472152},{"NoteNumber":49,"Velocity":39,"Duration":103376,"SoundDuration":103376,"Delta":164472152},{"NoteNumber":55,"Velocity":39,"Duration":103376,"SoundDuration":103376,"Delta":164472152},{"NoteNumber":57,"Velocity":46,"Duration":103376,"SoundDuration":103376,"Delta":164472152},{"NoteNumber":67,"Velocity":60,"Duration":551807,"SoundDuration":551807,"Delta":164678906},{"NoteNumber":64,"Velocity":60,"Duration":367872,"SoundDuration":367872,"Delta":164678906},{"NoteNumber":69,"Velocity":70,"Duration":367872,"SoundDuration":367872,"Delta":164678906},{"NoteNumber":55,"Velocity":47,"Duration":551807,"SoundDuration":551807,"Delta":164678906},{"NoteNumber":49,"Velocity":47,"Duration":367872,"SoundDuration":367872,"Delta":164678906},{"NoteNumber":57,"Velocity":56,"Duration":367872,"SoundDuration":367872,"Delta":164678906},{"NoteNumber":62,"Velocity":51,"Duration":183935,"SoundDuration":183935,"Delta":165046778},{"NoteNumber":71,"Velocity":61,"Duration":183935,"SoundDuration":183935,"Delta":165046778},{"NoteNumber":50,"Velocity":43,"Duration":183935,"SoundDuration":183935,"Delta":165046778},{"NoteNumber":59,"Velocity":52,"Duration":183935,"SoundDuration":183935,"Delta":165046778},{"NoteNumber":62,"Velocity":61,"Duration":111296,"SoundDuration":111296,"Delta":165414650},{"NoteNumber":50,"Velocity":53,"Duration":111296,"SoundDuration":111296,"Delta":165414650},{"NoteNumber":64,"Velocity":55,"Duration":111296,"SoundDuration":111296,"Delta":165525946},{"NoteNumber":52,"Velocity":48,"Duration":111296,"SoundDuration":111296,"Delta":165525946},{"NoteNumber":66,"Velocity":55,"Duration":111296,"SoundDuration":111296,"Delta":165637243},{"NoteNumber":54,"Velocity":48,"Duration":111296,"SoundDuration":111296,"Delta":165637243},{"NoteNumber":67,"Velocity":61,"Duration":108991,"SoundDuration":108991,"Delta":165748540},{"NoteNumber":55,"Velocity":53,"Duration":108991,"SoundDuration":108991,"Delta":165748540},{"NoteNumber":69,"Velocity":56,"Duration":108991,"SoundDuration":108991,"Delta":165857531},{"NoteNumber":57,"Velocity":49,"Duration":108991,"SoundDuration":108991,"Delta":165857531},{"NoteNumber":71,"Velocity":56,"Duration":140745,"SoundDuration":140745,"Delta":165966523},{"NoteNumber":59,"Velocity":48,"Duration":140745,"SoundDuration":140745,"Delta":165966523},{"NoteNumber":63,"Velocity":61,"Duration":174926,"SoundDuration":174926,"Delta":166107269},{"NoteNumber":51,"Velocity":53,"Duration":174926,"SoundDuration":174926,"Delta":166107269},{"NoteNumber":71,"Velocity":52,"Duration":174926,"SoundDuration":174926,"Delta":166282196},{"NoteNumber":59,"Velocity":49,"Duration":174926,"SoundDuration":174926,"Delta":166282196},{"NoteNumber":64,"Velocity":61,"Duration":174926,"SoundDuration":174926,"Delta":166457123},{"NoteNumber":52,"Velocity":53,"Duration":174926,"SoundDuration":174926,"Delta":166457123},{"NoteNumber":72,"Velocity":55,"Duration":174926,"SoundDuration":174926,"Delta":166632050},{"NoteNumber":60,"Velocity":48,"Duration":174926,"SoundDuration":174926,"Delta":166632050},{"NoteNumber":67,"Velocity":54,"Duration":87158,"SoundDuration":87158,"Delta":166806977},{"NoteNumber":70,"Velocity":54,"Duration":87158,"SoundDuration":87158,"Delta":166806977},{"NoteNumber":73,"Velocity":63,"Duration":87158,"SoundDuration":87158,"Delta":166806977},{"NoteNumber":52,"Velocity":43,"Duration":87158,"SoundDuration":87158,"Delta":166806977},{"NoteNumber":58,"Velocity":43,"Duration":87158,"SoundDuration":87158,"Delta":166806977},{"NoteNumber":61,"Velocity":51,"Duration":87158,"SoundDuration":87158,"Delta":166806977},{"NoteNumber":67,"Velocity":49,"Duration":87158,"SoundDuration":87158,"Delta":166981295},{"NoteNumber":70,"Velocity":49,"Duration":87158,"SoundDuration":87158,"Delta":166981295},{"NoteNumber":73,"Velocity":59,"Duration":87158,"SoundDuration":87158,"Delta":166981295},{"NoteNumber":52,"Velocity":39,"Duration":87158,"SoundDuration":87158,"Delta":166981295},{"NoteNumber":58,"Velocity":39,"Duration":87158,"SoundDuration":87158,"Delta":166981295},{"NoteNumber":61,"Velocity":46,"Duration":87158,"SoundDuration":87158,"Delta":166981295},{"NoteNumber":67,"Velocity":54,"Duration":85714,"SoundDuration":85714,"Delta":167155612},{"NoteNumber":70,"Velocity":54,"Duration":85714,"SoundDuration":85714,"Delta":167155612},{"NoteNumber":73,"Velocity":63,"Duration":85714,"SoundDuration":85714,"Delta":167155612},{"NoteNumber":52,"Velocity":43,"Duration":85714,"SoundDuration":85714,"Delta":167155612},{"NoteNumber":58,"Velocity":43,"Duration":85714,"SoundDuration":85714,"Delta":167155612},{"NoteNumber":61,"Velocity":51,"Duration":85714,"SoundDuration":85714,"Delta":167155612},{"NoteNumber":67,"Velocity":49,"Duration":103376,"SoundDuration":103376,"Delta":167327041},{"NoteNumber":70,"Velocity":49,"Duration":103376,"SoundDuration":103376,"Delta":167327041},{"NoteNumber":73,"Velocity":58,"Duration":103376,"SoundDuration":103376,"Delta":167327041},{"NoteNumber":52,"Velocity":39,"Duration":103376,"SoundDuration":103376,"Delta":167327041},{"NoteNumber":58,"Velocity":39,"Duration":103376,"SoundDuration":103376,"Delta":167327041},{"NoteNumber":61,"Velocity":46,"Duration":103376,"SoundDuration":103376,"Delta":167327041},{"NoteNumber":70,"Velocity":60,"Duration":551807,"SoundDuration":551807,"Delta":167533795},{"NoteNumber":67,"Velocity":60,"Duration":367872,"SoundDuration":367872,"Delta":167533795},{"NoteNumber":73,"Velocity":70,"Duration":367872,"SoundDuration":367872,"Delta":167533795},{"NoteNumber":58,"Velocity":47,"Duration":551807,"SoundDuration":551807,"Delta":167533795},{"NoteNumber":52,"Velocity":47,"Duration":367872,"SoundDuration":367872,"Delta":167533795},{"NoteNumber":61,"Velocity":56,"Duration":367872,"SoundDuration":367872,"Delta":167533795},{"NoteNumber":65,"Velocity":51,"Duration":183935,"SoundDuration":183935,"Delta":167901667},{"NoteNumber":74,"Velocity":61,"Duration":183935,"SoundDuration":183935,"Delta":167901667},{"NoteNumber":53,"Velocity":43,"Duration":183935,"SoundDuration":183935,"Delta":167901667},{"NoteNumber":62,"Velocity":52,"Duration":183935,"SoundDuration":183935,"Delta":167901667},{"NoteNumber":65,"Velocity":61,"Duration":112612,"SoundDuration":112612,"Delta":168269539},{"NoteNumber":53,"Velocity":53,"Duration":112612,"SoundDuration":112612,"Delta":168269539},{"NoteNumber":67,"Velocity":55,"Duration":112612,"SoundDuration":112612,"Delta":168382151},{"NoteNumber":55,"Velocity":48,"Duration":112612,"SoundDuration":112612,"Delta":168382151},{"NoteNumber":69,"Velocity":55,"Duration":112612,"SoundDuration":112612,"Delta":168494764},{"NoteNumber":57,"Velocity":48,"Duration":112612,"SoundDuration":112612,"Delta":168494764},{"NoteNumber":71,"Velocity":61,"Duration":109890,"SoundDuration":109890,"Delta":168607377},{"NoteNumber":59,"Velocity":53,"Duration":109890,"SoundDuration":109890,"Delta":168607377},{"NoteNumber":72,"Velocity":56,"Duration":109890,"SoundDuration":109890,"Delta":168717267},{"NoteNumber":60,"Velocity":49,"Duration":109890,"SoundDuration":109890,"Delta":168717267},{"NoteNumber":74,"Velocity":56,"Duration":162601,"SoundDuration":162601,"Delta":168827157},{"NoteNumber":62,"Velocity":48,"Duration":162601,"SoundDuration":162601,"Delta":168827157},{"NoteNumber":75,"Velocity":61,"Duration":173912,"SoundDuration":173912,"Delta":168989758},{"NoteNumber":51,"Velocity":53,"Duration":173912,"SoundDuration":173912,"Delta":168989758},{"NoteNumber":67,"Velocity":50,"Duration":173912,"SoundDuration":173912,"Delta":169163671},{"NoteNumber":58,"Velocity":42,"Duration":130434,"SoundDuration":130434,"Delta":169163671},{"NoteNumber":74,"Velocity":61,"Duration":176470,"SoundDuration":176470,"Delta":169337584},{"NoteNumber":58,"Velocity":53,"Duration":176470,"SoundDuration":176470,"Delta":169337584},{"NoteNumber":65,"Velocity":51,"Duration":176470,"SoundDuration":176470,"Delta":169514055},{"NoteNumber":62,"Velocity":44,"Duration":176470,"SoundDuration":176470,"Delta":169514055},{"NoteNumber":64,"Velocity":45,"Duration":84650,"SoundDuration":84650,"Delta":169690525},{"NoteNumber":67,"Velocity":45,"Duration":84650,"SoundDuration":84650,"Delta":169690525},{"NoteNumber":70,"Velocity":45,"Duration":84650,"SoundDuration":84650,"Delta":169690525},{"NoteNumber":73,"Velocity":53,"Duration":84650,"SoundDuration":84650,"Delta":169690525},{"NoteNumber":34,"Velocity":36,"Duration":84650,"SoundDuration":84650,"Delta":169690525},{"NoteNumber":46,"Velocity":43,"Duration":84650,"SoundDuration":84650,"Delta":169690525},{"NoteNumber":64,"Velocity":41,"Duration":84650,"SoundDuration":84650,"Delta":169859825},{"NoteNumber":67,"Velocity":41,"Duration":84650,"SoundDuration":84650,"Delta":169859825},{"NoteNumber":70,"Velocity":41,"Duration":84650,"SoundDuration":84650,"Delta":169859825},{"NoteNumber":73,"Velocity":50,"Duration":84650,"SoundDuration":84650,"Delta":169859825},{"NoteNumber":34,"Velocity":33,"Duration":84650,"SoundDuration":84650,"Delta":169859825},{"NoteNumber":46,"Velocity":39,"Duration":84650,"SoundDuration":84650,"Delta":169859825},{"NoteNumber":64,"Velocity":45,"Duration":83102,"SoundDuration":83102,"Delta":170029125},{"NoteNumber":67,"Velocity":45,"Duration":83102,"SoundDuration":83102,"Delta":170029125},{"NoteNumber":70,"Velocity":45,"Duration":83102,"SoundDuration":83102,"Delta":170029125},{"NoteNumber":73,"Velocity":53,"Duration":83102,"SoundDuration":83102,"Delta":170029125},{"NoteNumber":34,"Velocity":36,"Duration":83102,"SoundDuration":83102,"Delta":170029125},{"NoteNumber":46,"Velocity":43,"Duration":83102,"SoundDuration":83102,"Delta":170029125},{"NoteNumber":64,"Velocity":41,"Duration":103376,"SoundDuration":103376,"Delta":170195330},{"NoteNumber":67,"Velocity":41,"Duration":103376,"SoundDuration":103376,"Delta":170195330},{"NoteNumber":70,"Velocity":41,"Duration":103376,"SoundDuration":103376,"Delta":170195330},{"NoteNumber":73,"Velocity":49,"Duration":103376,"SoundDuration":103376,"Delta":170195330},{"NoteNumber":34,"Velocity":33,"Duration":103376,"SoundDuration":103376,"Delta":170195330},{"NoteNumber":46,"Velocity":39,"Duration":103376,"SoundDuration":103376,"Delta":170195330},{"NoteNumber":64,"Velocity":51,"Duration":367872,"SoundDuration":367872,"Delta":170402084},{"NoteNumber":70,"Velocity":51,"Duration":551807,"SoundDuration":551807,"Delta":170402084},{"NoteNumber":67,"Velocity":51,"Duration":367872,"SoundDuration":367872,"Delta":170402084},{"NoteNumber":73,"Velocity":59,"Duration":367872,"SoundDuration":367872,"Delta":170402084},{"NoteNumber":34,"Velocity":39,"Duration":551807,"SoundDuration":551807,"Delta":170402084},{"NoteNumber":46,"Velocity":47,"Duration":551807,"SoundDuration":551807,"Delta":170402084},{"NoteNumber":65,"Velocity":43,"Duration":183935,"SoundDuration":183935,"Delta":170769956},{"NoteNumber":74,"Velocity":51,"Duration":183935,"SoundDuration":183935,"Delta":170769956},{"NoteNumber":65,"Velocity":51,"Duration":112612,"SoundDuration":112612,"Delta":171137828},{"NoteNumber":53,"Velocity":45,"Duration":112612,"SoundDuration":112612,"Delta":171137828},{"NoteNumber":67,"Velocity":46,"Duration":112612,"SoundDuration":112612,"Delta":171250441},{"NoteNumber":55,"Velocity":40,"Duration":112612,"SoundDuration":112612,"Delta":171250441},{"NoteNumber":69,"Velocity":46,"Duration":112612,"SoundDuration":112612,"Delta":171363054},{"NoteNumber":57,"Velocity":40,"Duration":112612,"SoundDuration":112612,"Delta":171363054},{"NoteNumber":70,"Velocity":51,"Duration":109890,"SoundDuration":109890,"Delta":171475666},{"NoteNumber":58,"Velocity":45,"Duration":109890,"SoundDuration":109890,"Delta":171475666},{"NoteNumber":72,"Velocity":47,"Duration":109890,"SoundDuration":109890,"Delta":171585556},{"NoteNumber":60,"Velocity":41,"Duration":109890,"SoundDuration":109890,"Delta":171585556},{"NoteNumber":74,"Velocity":47,"Duration":140745,"SoundDuration":140745,"Delta":171695446},{"NoteNumber":62,"Velocity":40,"Duration":140745,"SoundDuration":140745,"Delta":171695446},{"NoteNumber":79,"Velocity":51,"Duration":177935,"SoundDuration":177935,"Delta":171836192},{"NoteNumber":75,"Velocity":43,"Duration":177935,"SoundDuration":177935,"Delta":171836192},{"NoteNumber":51,"Velocity":55,"Duration":177935,"SoundDuration":177935,"Delta":171836192},{"NoteNumber":67,"Velocity":44,"Duration":177936,"SoundDuration":177936,"Delta":172014128},{"NoteNumber":58,"Velocity":41,"Duration":133452,"SoundDuration":133452,"Delta":172014128},{"NoteNumber":77,"Velocity":51,"Duration":177935,"SoundDuration":177935,"Delta":172192064},{"NoteNumber":74,"Velocity":43,"Duration":177935,"SoundDuration":177935,"Delta":172192064},{"NoteNumber":58,"Velocity":51,"Duration":177935,"SoundDuration":177935,"Delta":172192064},{"NoteNumber":65,"Velocity":46,"Duration":177936,"SoundDuration":177936,"Delta":172370000},{"NoteNumber":62,"Velocity":40,"Duration":177936,"SoundDuration":177936,"Delta":172370000},{"NoteNumber":64,"Velocity":40,"Duration":84507,"SoundDuration":84507,"Delta":172547936},{"NoteNumber":67,"Velocity":40,"Duration":84507,"SoundDuration":84507,"Delta":172547936},{"NoteNumber":70,"Velocity":40,"Duration":84507,"SoundDuration":84507,"Delta":172547936},{"NoteNumber":73,"Velocity":53,"Duration":84507,"SoundDuration":84507,"Delta":172547936},{"NoteNumber":34,"Velocity":36,"Duration":84507,"SoundDuration":84507,"Delta":172547936},{"NoteNumber":46,"Velocity":43,"Duration":84507,"SoundDuration":84507,"Delta":172547936},{"NoteNumber":64,"Velocity":37,"Duration":84507,"SoundDuration":84507,"Delta":172716950},{"NoteNumber":67,"Velocity":37,"Duration":84507,"SoundDuration":84507,"Delta":172716950},{"NoteNumber":70,"Velocity":37,"Duration":84507,"SoundDuration":84507,"Delta":172716950},{"NoteNumber":73,"Velocity":50,"Duration":84507,"SoundDuration":84507,"Delta":172716950},{"NoteNumber":34,"Velocity":33,"Duration":84507,"SoundDuration":84507,"Delta":172716950},{"NoteNumber":46,"Velocity":39,"Duration":84507,"SoundDuration":84507,"Delta":172716950},{"NoteNumber":64,"Velocity":40,"Duration":81967,"SoundDuration":81967,"Delta":172885964},{"NoteNumber":67,"Velocity":40,"Duration":81967,"SoundDuration":81967,"Delta":172885964},{"NoteNumber":70,"Velocity":40,"Duration":81967,"SoundDuration":81967,"Delta":172885964},{"NoteNumber":73,"Velocity":53,"Duration":81967,"SoundDuration":81967,"Delta":172885964},{"NoteNumber":34,"Velocity":36,"Duration":81967,"SoundDuration":81967,"Delta":172885964},{"NoteNumber":46,"Velocity":43,"Duration":81967,"SoundDuration":81967,"Delta":172885964},{"NoteNumber":64,"Velocity":37,"Duration":103376,"SoundDuration":103376,"Delta":173049899},{"NoteNumber":67,"Velocity":37,"Duration":103376,"SoundDuration":103376,"Delta":173049899},{"NoteNumber":70,"Velocity":37,"Duration":103376,"SoundDuration":103376,"Delta":173049899},{"NoteNumber":73,"Velocity":49,"Duration":103376,"SoundDuration":103376,"Delta":173049899},{"NoteNumber":34,"Velocity":33,"Duration":103376,"SoundDuration":103376,"Delta":173049899},{"NoteNumber":46,"Velocity":39,"Duration":103376,"SoundDuration":103376,"Delta":173049899},{"NoteNumber":64,"Velocity":51,"Duration":367872,"SoundDuration":367872,"Delta":173256653},{"NoteNumber":70,"Velocity":51,"Duration":551807,"SoundDuration":551807,"Delta":173256653},{"NoteNumber":67,"Velocity":51,"Duration":367872,"SoundDuration":367872,"Delta":173256653},{"NoteNumber":73,"Velocity":59,"Duration":367872,"SoundDuration":367872,"Delta":173256653},{"NoteNumber":34,"Velocity":39,"Duration":551807,"SoundDuration":551807,"Delta":173256653},{"NoteNumber":46,"Velocity":47,"Duration":551807,"SoundDuration":551807,"Delta":173256653},{"NoteNumber":65,"Velocity":43,"Duration":183935,"SoundDuration":183935,"Delta":173624525},{"NoteNumber":74,"Velocity":51,"Duration":183935,"SoundDuration":183935,"Delta":173624525},{"NoteNumber":65,"Velocity":52,"Duration":112612,"SoundDuration":112612,"Delta":173992397},{"NoteNumber":53,"Velocity":43,"Duration":112612,"SoundDuration":112612,"Delta":173992397},{"NoteNumber":67,"Velocity":52,"Duration":112612,"SoundDuration":112612,"Delta":174105009},{"NoteNumber":55,"Velocity":43,"Duration":112612,"SoundDuration":112612,"Delta":174105009},{"NoteNumber":69,"Velocity":53,"Duration":112612,"SoundDuration":112612,"Delta":174217622},{"NoteNumber":57,"Velocity":44,"Duration":112612,"SoundDuration":112612,"Delta":174217622},{"NoteNumber":70,"Velocity":54,"Duration":112612,"SoundDuration":112612,"Delta":174330235},{"NoteNumber":58,"Velocity":45,"Duration":112612,"SoundDuration":112612,"Delta":174330235},{"NoteNumber":72,"Velocity":55,"Duration":112612,"SoundDuration":112612,"Delta":174442847},{"NoteNumber":60,"Velocity":46,"Duration":112612,"SoundDuration":112612,"Delta":174442847},{"NoteNumber":74,"Velocity":55,"Duration":112425,"SoundDuration":112425,"Delta":174555460},{"NoteNumber":62,"Velocity":47,"Duration":112425,"SoundDuration":112425,"Delta":174555460},{"NoteNumber":75,"Velocity":61,"Duration":111654,"SoundDuration":111654,"Delta":174667886},{"NoteNumber":63,"Velocity":48,"Duration":111654,"SoundDuration":111654,"Delta":174667886},{"NoteNumber":77,"Velocity":52,"Duration":111292,"SoundDuration":111292,"Delta":174779540},{"NoteNumber":65,"Velocity":44,"Duration":111292,"SoundDuration":111292,"Delta":174779540},{"NoteNumber":79,"Velocity":52,"Duration":110936,"SoundDuration":110936,"Delta":174890833},{"NoteNumber":67,"Velocity":44,"Duration":110936,"SoundDuration":110936,"Delta":174890833},{"NoteNumber":77,"Velocity":61,"Duration":110615,"SoundDuration":110615,"Delta":175001769},{"NoteNumber":65,"Velocity":51,"Duration":110615,"SoundDuration":110615,"Delta":175001769},{"NoteNumber":75,"Velocity":53,"Duration":110263,"SoundDuration":110263,"Delta":175112385},{"NoteNumber":63,"Velocity":45,"Duration":110263,"SoundDuration":110263,"Delta":175112385},{"NoteNumber":74,"Velocity":53,"Duration":109858,"SoundDuration":109858,"Delta":175222648},{"NoteNumber":62,"Velocity":45,"Duration":109858,"SoundDuration":109858,"Delta":175222648},{"NoteNumber":73,"Velocity":57,"Duration":109435,"SoundDuration":109435,"Delta":175332506},{"NoteNumber":61,"Velocity":48,"Duration":109435,"SoundDuration":109435,"Delta":175332506},{"NoteNumber":70,"Velocity":47,"Duration":109981,"SoundDuration":109981,"Delta":175441942},{"NoteNumber":58,"Velocity":39,"Duration":109981,"SoundDuration":109981,"Delta":175441942},{"NoteNumber":67,"Velocity":47,"Duration":110541,"SoundDuration":110541,"Delta":175551923},{"NoteNumber":55,"Velocity":39,"Duration":110541,"SoundDuration":110541,"Delta":175551923},{"NoteNumber":64,"Velocity":49,"Duration":111105,"SoundDuration":111105,"Delta":175662465},{"NoteNumber":52,"Velocity":41,"Duration":111105,"SoundDuration":111105,"Delta":175662465},{"NoteNumber":61,"Velocity":47,"Duration":111675,"SoundDuration":111675,"Delta":175773570},{"NoteNumber":49,"Velocity":39,"Duration":111675,"SoundDuration":111675,"Delta":175773570},{"NoteNumber":64,"Velocity":48,"Duration":116754,"SoundDuration":116754,"Delta":175885246},{"NoteNumber":52,"Velocity":40,"Duration":116754,"SoundDuration":116754,"Delta":175885246},{"NoteNumber":65,"Velocity":50,"Duration":111234,"SoundDuration":111234,"Delta":176002001},{"NoteNumber":53,"Velocity":42,"Duration":111234,"SoundDuration":111234,"Delta":176002001},{"NoteNumber":62,"Velocity":45,"Duration":111234,"SoundDuration":111234,"Delta":176113235},{"NoteNumber":50,"Velocity":38,"Duration":111234,"SoundDuration":111234,"Delta":176113235},{"NoteNumber":65,"Velocity":45,"Duration":111234,"SoundDuration":111234,"Delta":176224470},{"NoteNumber":53,"Velocity":38,"Duration":111234,"SoundDuration":111234,"Delta":176224470},{"NoteNumber":62,"Velocity":50,"Duration":111234,"SoundDuration":111234,"Delta":176335705},{"NoteNumber":50,"Velocity":42,"Duration":111234,"SoundDuration":111234,"Delta":176335705},{"NoteNumber":58,"Velocity":45,"Duration":111234,"SoundDuration":111234,"Delta":176446939},{"NoteNumber":46,"Velocity":38,"Duration":111234,"SoundDuration":111234,"Delta":176446939},{"NoteNumber":62,"Velocity":45,"Duration":110642,"SoundDuration":110642,"Delta":176558174},{"NoteNumber":50,"Velocity":38,"Duration":110642,"SoundDuration":110642,"Delta":176558174},{"NoteNumber":65,"Velocity":45,"Duration":110193,"SoundDuration":110193,"Delta":176668816},{"NoteNumber":41,"Velocity":38,"Duration":110193,"SoundDuration":110193,"Delta":176668816},{"NoteNumber":67,"Velocity":47,"Duration":110032,"SoundDuration":110032,"Delta":176779009},{"NoteNumber":43,"Velocity":39,"Duration":110032,"SoundDuration":110032,"Delta":176779009},{"NoteNumber":69,"Velocity":49,"Duration":109890,"SoundDuration":109890,"Delta":176889041},{"NoteNumber":45,"Velocity":41,"Duration":109890,"SoundDuration":109890,"Delta":176889041},{"NoteNumber":70,"Velocity":51,"Duration":109743,"SoundDuration":109743,"Delta":176998931},{"NoteNumber":46,"Velocity":43,"Duration":109743,"SoundDuration":109743,"Delta":176998931},{"NoteNumber":72,"Velocity":53,"Duration":109588,"SoundDuration":109588,"Delta":177108674},{"NoteNumber":48,"Velocity":45,"Duration":109588,"SoundDuration":109588,"Delta":177108674},{"NoteNumber":74,"Velocity":55,"Duration":115074,"SoundDuration":115074,"Delta":177218263},{"NoteNumber":50,"Velocity":46,"Duration":115074,"SoundDuration":115074,"Delta":177218263},{"NoteNumber":75,"Velocity":57,"Duration":108623,"SoundDuration":108623,"Delta":177333338},{"NoteNumber":51,"Velocity":48,"Duration":108623,"SoundDuration":108623,"Delta":177333338},{"NoteNumber":77,"Velocity":59,"Duration":108107,"SoundDuration":108107,"Delta":177441962},{"NoteNumber":53,"Velocity":50,"Duration":108107,"SoundDuration":108107,"Delta":177441962},{"NoteNumber":79,"Velocity":61,"Duration":108107,"SoundDuration":108107,"Delta":177550070},{"NoteNumber":55,"Velocity":51,"Duration":108107,"SoundDuration":108107,"Delta":177550070},{"NoteNumber":77,"Velocity":63,"Duration":108108,"SoundDuration":108108,"Delta":177658178},{"NoteNumber":53,"Velocity":53,"Duration":108108,"SoundDuration":108108,"Delta":177658178},{"NoteNumber":75,"Velocity":58,"Duration":108263,"SoundDuration":108263,"Delta":177766286},{"NoteNumber":51,"Velocity":49,"Duration":108263,"SoundDuration":108263,"Delta":177766286},{"NoteNumber":74,"Velocity":61,"Duration":108498,"SoundDuration":108498,"Delta":177874549},{"NoteNumber":50,"Velocity":51,"Duration":108498,"SoundDuration":108498,"Delta":177874549},{"NoteNumber":73,"Velocity":57,"Duration":108734,"SoundDuration":108734,"Delta":177983048},{"NoteNumber":49,"Velocity":48,"Duration":108734,"SoundDuration":108734,"Delta":177983048},{"NoteNumber":70,"Velocity":55,"Duration":108991,"SoundDuration":108991,"Delta":178091782},{"NoteNumber":46,"Velocity":46,"Duration":108991,"SoundDuration":108991,"Delta":178091782},{"NoteNumber":67,"Velocity":53,"Duration":109233,"SoundDuration":109233,"Delta":178200774},{"NoteNumber":43,"Velocity":45,"Duration":109233,"SoundDuration":109233,"Delta":178200774},{"NoteNumber":64,"Velocity":51,"Duration":109473,"SoundDuration":109473,"Delta":178310008},{"NoteNumber":40,"Velocity":43,"Duration":109473,"SoundDuration":109473,"Delta":178310008},{"NoteNumber":61,"Velocity":47,"Duration":109713,"SoundDuration":109713,"Delta":178419481},{"NoteNumber":37,"Velocity":39,"Duration":109713,"SoundDuration":109713,"Delta":178419481},{"NoteNumber":64,"Velocity":43,"Duration":109874,"SoundDuration":109874,"Delta":178529194},{"NoteNumber":40,"Velocity":36,"Duration":109874,"SoundDuration":109874,"Delta":178529194},{"NoteNumber":67,"Velocity":59,"Duration":107562,"SoundDuration":107562,"Delta":178639068},{"NoteNumber":43,"Velocity":50,"Duration":107562,"SoundDuration":107562,"Delta":178639068},{"NoteNumber":64,"Velocity":43,"Duration":105789,"SoundDuration":105789,"Delta":178746630},{"NoteNumber":40,"Velocity":36,"Duration":105789,"SoundDuration":105789,"Delta":178746630},{"NoteNumber":67,"Velocity":43,"Duration":104157,"SoundDuration":104157,"Delta":178852420},{"NoteNumber":43,"Velocity":36,"Duration":104157,"SoundDuration":104157,"Delta":178852420},{"NoteNumber":64,"Velocity":44,"Duration":106124,"SoundDuration":106124,"Delta":178956578},{"NoteNumber":40,"Velocity":37,"Duration":106124,"SoundDuration":106124,"Delta":178956578},{"NoteNumber":61,"Velocity":45,"Duration":108557,"SoundDuration":108557,"Delta":179062702},{"NoteNumber":37,"Velocity":37,"Duration":108557,"SoundDuration":108557,"Delta":179062702},{"NoteNumber":64,"Velocity":45,"Duration":114416,"SoundDuration":114416,"Delta":179171259},{"NoteNumber":40,"Velocity":38,"Duration":114416,"SoundDuration":114416,"Delta":179171259},{"NoteNumber":68,"Velocity":62,"Duration":107646,"SoundDuration":107646,"Delta":179285676},{"NoteNumber":44,"Velocity":52,"Duration":107646,"SoundDuration":107646,"Delta":179285676},{"NoteNumber":64,"Velocity":46,"Duration":106599,"SoundDuration":106599,"Delta":179393322},{"NoteNumber":40,"Velocity":38,"Duration":106599,"SoundDuration":106599,"Delta":179393322},{"NoteNumber":68,"Velocity":47,"Duration":105587,"SoundDuration":105587,"Delta":179499922},{"NoteNumber":44,"Velocity":39,"Duration":105587,"SoundDuration":105587,"Delta":179499922},{"NoteNumber":64,"Velocity":47,"Duration":107047,"SoundDuration":107047,"Delta":179605510},{"NoteNumber":40,"Velocity":39,"Duration":107047,"SoundDuration":107047,"Delta":179605510},{"NoteNumber":61,"Velocity":48,"Duration":108424,"SoundDuration":108424,"Delta":179712557},{"NoteNumber":37,"Velocity":40,"Duration":108424,"SoundDuration":108424,"Delta":179712557},{"NoteNumber":64,"Velocity":48,"Duration":115344,"SoundDuration":115344,"Delta":179820982},{"NoteNumber":40,"Velocity":40,"Duration":115344,"SoundDuration":115344,"Delta":179820982},{"NoteNumber":69,"Velocity":65,"Duration":107462,"SoundDuration":107462,"Delta":179936326},{"NoteNumber":45,"Velocity":55,"Duration":107462,"SoundDuration":107462,"Delta":179936326},{"NoteNumber":64,"Velocity":49,"Duration":106500,"SoundDuration":106500,"Delta":180043789},{"NoteNumber":40,"Velocity":41,"Duration":106500,"SoundDuration":106500,"Delta":180043789},{"NoteNumber":69,"Velocity":50,"Duration":105543,"SoundDuration":105543,"Delta":180150290},{"NoteNumber":45,"Velocity":42,"Duration":105543,"SoundDuration":105543,"Delta":180150290},{"NoteNumber":64,"Velocity":50,"Duration":105836,"SoundDuration":105836,"Delta":180255833},{"NoteNumber":40,"Velocity":42,"Duration":105836,"SoundDuration":105836,"Delta":180255833},{"NoteNumber":61,"Velocity":51,"Duration":107545,"SoundDuration":107545,"Delta":180361669},{"NoteNumber":37,"Velocity":43,"Duration":107545,"SoundDuration":107545,"Delta":180361669},{"NoteNumber":64,"Velocity":52,"Duration":113396,"SoundDuration":113396,"Delta":180469215},{"NoteNumber":40,"Velocity":43,"Duration":113396,"SoundDuration":113396,"Delta":180469215},{"NoteNumber":69,"Velocity":68,"Duration":106095,"SoundDuration":106095,"Delta":180582612},{"NoteNumber":45,"Velocity":57,"Duration":106095,"SoundDuration":106095,"Delta":180582612},{"NoteNumber":64,"Velocity":52,"Duration":105277,"SoundDuration":105277,"Delta":180688708},{"NoteNumber":40,"Velocity":44,"Duration":105277,"SoundDuration":105277,"Delta":180688708},{"NoteNumber":69,"Velocity":53,"Duration":104429,"SoundDuration":104429,"Delta":180793985},{"NoteNumber":45,"Velocity":45,"Duration":104429,"SoundDuration":104429,"Delta":180793985},{"NoteNumber":64,"Velocity":54,"Duration":104266,"SoundDuration":104266,"Delta":180898414},{"NoteNumber":40,"Velocity":45,"Duration":104266,"SoundDuration":104266,"Delta":180898414},{"NoteNumber":60,"Velocity":54,"Duration":105800,"SoundDuration":105800,"Delta":181002681},{"NoteNumber":36,"Velocity":45,"Duration":105800,"SoundDuration":105800,"Delta":181002681},{"NoteNumber":64,"Velocity":55,"Duration":114090,"SoundDuration":114090,"Delta":181108482},{"NoteNumber":40,"Velocity":46,"Duration":114090,"SoundDuration":114090,"Delta":181108482},{"NoteNumber":74,"Velocity":74,"Duration":106836,"SoundDuration":106836,"Delta":181222572},{"NoteNumber":35,"Velocity":62,"Duration":106836,"SoundDuration":106836,"Delta":181222572},{"NoteNumber":69,"Velocity":59,"Duration":104135,"SoundDuration":104135,"Delta":181329409},{"NoteNumber":41,"Velocity":50,"Duration":104135,"SoundDuration":104135,"Delta":181329409},{"NoteNumber":74,"Velocity":60,"Duration":103488,"SoundDuration":103488,"Delta":181433544},{"NoteNumber":35,"Velocity":51,"Duration":103488,"SoundDuration":103488,"Delta":181433544},{"NoteNumber":69,"Velocity":61,"Duration":104119,"SoundDuration":104119,"Delta":181537032},{"NoteNumber":41,"Velocity":52,"Duration":104119,"SoundDuration":104119,"Delta":181537032},{"NoteNumber":62,"Velocity":62,"Duration":106827,"SoundDuration":106827,"Delta":181641152},{"NoteNumber":47,"Velocity":53,"Duration":106827,"SoundDuration":106827,"Delta":181641152},{"NoteNumber":69,"Velocity":63,"Duration":115807,"SoundDuration":115807,"Delta":181747979},{"NoteNumber":41,"Velocity":54,"Duration":115807,"SoundDuration":115807,"Delta":181747979},{"NoteNumber":80,"Velocity":82,"Duration":109110,"SoundDuration":109110,"Delta":181863787},{"NoteNumber":34,"Velocity":69,"Duration":109110,"SoundDuration":109110,"Delta":181863787},{"NoteNumber":74,"Velocity":67,"Duration":109144,"SoundDuration":109144,"Delta":181972898},{"NoteNumber":41,"Velocity":56,"Duration":109144,"SoundDuration":109144,"Delta":181972898},{"NoteNumber":80,"Velocity":69,"Duration":109409,"SoundDuration":109409,"Delta":182082042},{"NoteNumber":34,"Velocity":58,"Duration":109409,"SoundDuration":109409,"Delta":182082042},{"NoteNumber":74,"Velocity":70,"Duration":109645,"SoundDuration":109645,"Delta":182191451},{"NoteNumber":41,"Velocity":59,"Duration":109645,"SoundDuration":109645,"Delta":182191451},{"NoteNumber":68,"Velocity":72,"Duration":109850,"SoundDuration":109850,"Delta":182301097},{"NoteNumber":46,"Velocity":61,"Duration":109850,"SoundDuration":109850,"Delta":182301097},{"NoteNumber":74,"Velocity":74,"Duration":119702,"SoundDuration":119702,"Delta":182410948},{"NoteNumber":34,"Velocity":62,"Duration":119702,"SoundDuration":119702,"Delta":182410948},{"NoteNumber":81,"Velocity":105,"Duration":872727,"SoundDuration":872727,"Delta":182530650},{"NoteNumber":76,"Velocity":89,"Duration":872727,"SoundDuration":872727,"Delta":182530650},{"NoteNumber":73,"Velocity":89,"Duration":872727,"SoundDuration":872727,"Delta":182530650},{"NoteNumber":69,"Velocity":89,"Duration":872727,"SoundDuration":872727,"Delta":182530650},{"NoteNumber":33,"Velocity":73,"Duration":872727,"SoundDuration":872727,"Delta":182530650},{"NoteNumber":45,"Velocity":86,"Duration":872727,"SoundDuration":872727,"Delta":182530650},{"NoteNumber":72,"Velocity":54,"Duration":174418,"SoundDuration":174418,"Delta":183403378},{"NoteNumber":75,"Velocity":63,"Duration":174418,"SoundDuration":174418,"Delta":183403378},{"NoteNumber":57,"Velocity":43,"Duration":174418,"SoundDuration":174418,"Delta":183403378},{"NoteNumber":66,"Velocity":51,"Duration":174418,"SoundDuration":174418,"Delta":183403378},{"NoteNumber":72,"Velocity":49,"Duration":174418,"SoundDuration":174418,"Delta":183635936},{"NoteNumber":75,"Velocity":59,"Duration":174418,"SoundDuration":174418,"Delta":183635936},{"NoteNumber":57,"Velocity":39,"Duration":174418,"SoundDuration":174418,"Delta":183635936},{"NoteNumber":66,"Velocity":46,"Duration":174418,"SoundDuration":174418,"Delta":183635936},{"NoteNumber":72,"Velocity":54,"Duration":174418,"SoundDuration":174418,"Delta":183868494},{"NoteNumber":75,"Velocity":63,"Duration":174418,"SoundDuration":174418,"Delta":183868494},{"NoteNumber":57,"Velocity":43,"Duration":174418,"SoundDuration":174418,"Delta":183868494},{"NoteNumber":66,"Velocity":51,"Duration":174418,"SoundDuration":174418,"Delta":183868494},{"NoteNumber":72,"Velocity":49,"Duration":189873,"SoundDuration":189873,"Delta":184101052},{"NoteNumber":75,"Velocity":58,"Duration":189873,"SoundDuration":189873,"Delta":184101052},{"NoteNumber":57,"Velocity":39,"Duration":189873,"SoundDuration":189873,"Delta":184101052},{"NoteNumber":66,"Velocity":46,"Duration":189873,"SoundDuration":189873,"Delta":184101052},{"NoteNumber":73,"Velocity":60,"Duration":437956,"SoundDuration":437956,"Delta":184354217},{"NoteNumber":76,"Velocity":70,"Duration":437956,"SoundDuration":437956,"Delta":184354217},{"NoteNumber":57,"Velocity":47,"Duration":690057,"SoundDuration":690057,"Delta":184354217},{"NoteNumber":69,"Velocity":56,"Duration":437956,"SoundDuration":437956,"Delta":184354217},{"NoteNumber":85,"Velocity":49,"Duration":252101,"SoundDuration":252101,"Delta":184792173},{"NoteNumber":64,"Velocity":37,"Duration":252101,"SoundDuration":252101,"Delta":184792173},{"NoteNumber":49,"Velocity":64,"Duration":185414,"SoundDuration":185414,"Delta":185044274},{"NoteNumber":37,"Velocity":49,"Duration":185414,"SoundDuration":185414,"Delta":185044274},{"NoteNumber":50,"Velocity":66,"Duration":112612,"SoundDuration":112612,"Delta":185229688},{"NoteNumber":38,"Velocity":53,"Duration":112612,"SoundDuration":112612,"Delta":185229688},{"NoteNumber":49,"Velocity":62,"Duration":112612,"SoundDuration":112612,"Delta":185342300},{"NoteNumber":37,"Velocity":49,"Duration":112612,"SoundDuration":112612,"Delta":185342300},{"NoteNumber":47,"Velocity":64,"Duration":112612,"SoundDuration":112612,"Delta":185454913},{"NoteNumber":35,"Velocity":53,"Duration":112612,"SoundDuration":112612,"Delta":185454913},{"NoteNumber":53,"Velocity":65,"Duration":110375,"SoundDuration":110375,"Delta":185567526},{"NoteNumber":41,"Velocity":56,"Duration":110375,"SoundDuration":110375,"Delta":185567526},{"NoteNumber":52,"Velocity":60,"Duration":110375,"SoundDuration":110375,"Delta":185677901},{"NoteNumber":40,"Velocity":51,"Duration":110375,"SoundDuration":110375,"Delta":185677901},{"NoteNumber":50,"Velocity":49,"Duration":140745,"SoundDuration":140745,"Delta":185788276},{"NoteNumber":38,"Velocity":38,"Duration":140745,"SoundDuration":140745,"Delta":185788276},{"NoteNumber":40,"Velocity":43,"Duration":170648,"SoundDuration":170648,"Delta":185929022},{"NoteNumber":49,"Velocity":47,"Duration":113765,"SoundDuration":113765,"Delta":185929022},{"NoteNumber":50,"Velocity":41,"Duration":113765,"SoundDuration":113765,"Delta":186042788},{"NoteNumber":52,"Velocity":41,"Duration":113765,"SoundDuration":113765,"Delta":186156554},{"NoteNumber":73,"Velocity":56,"Duration":274724,"SoundDuration":274724,"Delta":186270319},{"NoteNumber":76,"Velocity":56,"Duration":274724,"SoundDuration":274724,"Delta":186270319},{"NoteNumber":54,"Velocity":47,"Duration":122099,"SoundDuration":122099,"Delta":186270319},{"NoteNumber":56,"Velocity":42,"Duration":122100,"SoundDuration":122100,"Delta":186392419},{"NoteNumber":57,"Velocity":42,"Duration":132357,"SoundDuration":132357,"Delta":186514519},{"NoteNumber":73,"Velocity":49,"Duration":101832,"SoundDuration":101832,"Delta":186545044},{"NoteNumber":76,"Velocity":49,"Duration":101832,"SoundDuration":101832,"Delta":186545044},{"NoteNumber":71,"Velocity":55,"Duration":171134,"SoundDuration":171134,"Delta":186646877},{"NoteNumber":74,"Velocity":55,"Duration":171134,"SoundDuration":171134,"Delta":186646877},{"NoteNumber":59,"Velocity":55,"Duration":114090,"SoundDuration":114090,"Delta":186646877},{"NoteNumber":61,"Velocity":56,"Duration":114090,"SoundDuration":114090,"Delta":186760967},{"NoteNumber":62,"Velocity":54,"Duration":114090,"SoundDuration":114090,"Delta":186875057},{"NoteNumber":52,"Velocity":44,"Duration":114090,"SoundDuration":114090,"Delta":186875057},{"NoteNumber":64,"Velocity":57,"Duration":114089,"SoundDuration":114089,"Delta":186989147},{"NoteNumber":50,"Velocity":50,"Duration":114089,"SoundDuration":114089,"Delta":186989147},{"NoteNumber":66,"Velocity":60,"Duration":114090,"SoundDuration":114090,"Delta":187103237},{"NoteNumber":49,"Velocity":53,"Duration":114090,"SoundDuration":114090,"Delta":187103237},{"NoteNumber":68,"Velocity":62,"Duration":114090,"SoundDuration":114090,"Delta":187217327},{"NoteNumber":47,"Velocity":56,"Duration":114090,"SoundDuration":114090,"Delta":187217327},{"NoteNumber":81,"Velocity":94,"Duration":869565,"SoundDuration":869565,"Delta":187331417},{"NoteNumber":76,"Velocity":80,"Duration":869565,"SoundDuration":869565,"Delta":187331417},{"NoteNumber":73,"Velocity":80,"Duration":869565,"SoundDuration":869565,"Delta":187331417},{"NoteNumber":69,"Velocity":80,"Duration":869565,"SoundDuration":869565,"Delta":187331417},{"NoteNumber":33,"Velocity":65,"Duration":869565,"SoundDuration":869565,"Delta":187331417},{"NoteNumber":45,"Velocity":77,"Duration":869565,"SoundDuration":869565,"Delta":187331417},{"NoteNumber":72,"Velocity":54,"Duration":317307,"SoundDuration":317307,"Delta":188200983},{"NoteNumber":75,"Velocity":63,"Duration":317307,"SoundDuration":317307,"Delta":188200983},{"NoteNumber":57,"Velocity":43,"Duration":317307,"SoundDuration":317307,"Delta":188200983},{"NoteNumber":66,"Velocity":51,"Duration":317307,"SoundDuration":317307,"Delta":188200983},{"NoteNumber":72,"Velocity":49,"Duration":86538,"SoundDuration":86538,"Delta":188547137},{"NoteNumber":75,"Velocity":59,"Duration":86538,"SoundDuration":86538,"Delta":188547137},{"NoteNumber":57,"Velocity":39,"Duration":86538,"SoundDuration":86538,"Delta":188547137},{"NoteNumber":66,"Velocity":46,"Duration":86538,"SoundDuration":86538,"Delta":188547137},{"NoteNumber":72,"Velocity":54,"Duration":326108,"SoundDuration":326108,"Delta":188662521},{"NoteNumber":75,"Velocity":63,"Duration":326108,"SoundDuration":326108,"Delta":188662521},{"NoteNumber":57,"Velocity":43,"Duration":326108,"SoundDuration":326108,"Delta":188662521},{"NoteNumber":66,"Velocity":51,"Duration":326108,"SoundDuration":326108,"Delta":188662521},{"NoteNumber":72,"Velocity":49,"Duration":95339,"SoundDuration":95339,"Delta":189020409},{"NoteNumber":75,"Velocity":58,"Duration":95339,"SoundDuration":95339,"Delta":189020409},{"NoteNumber":57,"Velocity":39,"Duration":95339,"SoundDuration":95339,"Delta":189020409},{"NoteNumber":66,"Velocity":46,"Duration":95339,"SoundDuration":95339,"Delta":189020409},{"NoteNumber":73,"Velocity":60,"Duration":437956,"SoundDuration":437956,"Delta":189147528},{"NoteNumber":76,"Velocity":70,"Duration":437956,"SoundDuration":437956,"Delta":189147528},{"NoteNumber":57,"Velocity":47,"Duration":692193,"SoundDuration":692193,"Delta":189147528},{"NoteNumber":69,"Velocity":56,"Duration":437956,"SoundDuration":437956,"Delta":189147528},{"NoteNumber":85,"Velocity":49,"Duration":254237,"SoundDuration":254237,"Delta":189585484},{"NoteNumber":64,"Velocity":37,"Duration":254237,"SoundDuration":254237,"Delta":189585484},{"NoteNumber":49,"Velocity":64,"Duration":185414,"SoundDuration":185414,"Delta":189839721},{"NoteNumber":37,"Velocity":49,"Duration":185414,"SoundDuration":185414,"Delta":189839721},{"NoteNumber":50,"Velocity":66,"Duration":112612,"SoundDuration":112612,"Delta":190025135},{"NoteNumber":38,"Velocity":53,"Duration":112612,"SoundDuration":112612,"Delta":190025135},{"NoteNumber":49,"Velocity":62,"Duration":112612,"SoundDuration":112612,"Delta":190137748},{"NoteNumber":37,"Velocity":49,"Duration":112612,"SoundDuration":112612,"Delta":190137748},{"NoteNumber":47,"Velocity":64,"Duration":112612,"SoundDuration":112612,"Delta":190250361},{"NoteNumber":35,"Velocity":53,"Duration":112612,"SoundDuration":112612,"Delta":190250361},{"NoteNumber":53,"Velocity":65,"Duration":110987,"SoundDuration":110987,"Delta":190362973},{"NoteNumber":41,"Velocity":56,"Duration":110987,"SoundDuration":110987,"Delta":190362973},{"NoteNumber":52,"Velocity":60,"Duration":110987,"SoundDuration":110987,"Delta":190473961},{"NoteNumber":40,"Velocity":51,"Duration":110987,"SoundDuration":110987,"Delta":190473961},{"NoteNumber":50,"Velocity":49,"Duration":140746,"SoundDuration":140746,"Delta":190584949},{"NoteNumber":38,"Velocity":38,"Duration":140746,"SoundDuration":140746,"Delta":190584949},{"NoteNumber":40,"Velocity":43,"Duration":170648,"SoundDuration":170648,"Delta":190725695},{"NoteNumber":49,"Velocity":47,"Duration":113765,"SoundDuration":113765,"Delta":190725695},{"NoteNumber":50,"Velocity":41,"Duration":113765,"SoundDuration":113765,"Delta":190839460},{"NoteNumber":52,"Velocity":41,"Duration":113765,"SoundDuration":113765,"Delta":190953226},{"NoteNumber":73,"Velocity":56,"Duration":274724,"SoundDuration":274724,"Delta":191066992},{"NoteNumber":76,"Velocity":56,"Duration":274724,"SoundDuration":274724,"Delta":191066992},{"NoteNumber":54,"Velocity":47,"Duration":122099,"SoundDuration":122099,"Delta":191066992},{"NoteNumber":56,"Velocity":42,"Duration":122100,"SoundDuration":122100,"Delta":191189092},{"NoteNumber":57,"Velocity":42,"Duration":132357,"SoundDuration":132357,"Delta":191311192},{"NoteNumber":73,"Velocity":49,"Duration":101832,"SoundDuration":101832,"Delta":191341717},{"NoteNumber":76,"Velocity":49,"Duration":101832,"SoundDuration":101832,"Delta":191341717},{"NoteNumber":71,"Velocity":55,"Duration":171134,"SoundDuration":171134,"Delta":191443550},{"NoteNumber":74,"Velocity":55,"Duration":171134,"SoundDuration":171134,"Delta":191443550},{"NoteNumber":59,"Velocity":55,"Duration":114090,"SoundDuration":114090,"Delta":191443550},{"NoteNumber":61,"Velocity":56,"Duration":114090,"SoundDuration":114090,"Delta":191557640},{"NoteNumber":62,"Velocity":54,"Duration":114090,"SoundDuration":114090,"Delta":191671730},{"NoteNumber":52,"Velocity":44,"Duration":114090,"SoundDuration":114090,"Delta":191671730},{"NoteNumber":64,"Velocity":57,"Duration":114089,"SoundDuration":114089,"Delta":191785820},{"NoteNumber":50,"Velocity":50,"Duration":114089,"SoundDuration":114089,"Delta":191785820},{"NoteNumber":66,"Velocity":60,"Duration":114090,"SoundDuration":114090,"Delta":191899910},{"NoteNumber":49,"Velocity":53,"Duration":114090,"SoundDuration":114090,"Delta":191899910},{"NoteNumber":68,"Velocity":62,"Duration":129602,"SoundDuration":129602,"Delta":192014000},{"NoteNumber":47,"Velocity":56,"Duration":129602,"SoundDuration":129602,"Delta":192014000},{"NoteNumber":69,"Velocity":57,"Duration":116076,"SoundDuration":116076,"Delta":192143602},{"NoteNumber":45,"Velocity":50,"Duration":174045,"SoundDuration":174045,"Delta":192143602},{"NoteNumber":71,"Velocity":61,"Duration":115839,"SoundDuration":115839,"Delta":192259679},{"NoteNumber":73,"Velocity":62,"Duration":115611,"SoundDuration":115611,"Delta":192375518},{"NoteNumber":74,"Velocity":63,"Duration":115383,"SoundDuration":115383,"Delta":192491130},{"NoteNumber":76,"Velocity":64,"Duration":115074,"SoundDuration":115074,"Delta":192606513},{"NoteNumber":78,"Velocity":65,"Duration":114827,"SoundDuration":114827,"Delta":192721588},{"NoteNumber":80,"Velocity":66,"Duration":114603,"SoundDuration":114603,"Delta":192836415},{"NoteNumber":81,"Velocity":67,"Duration":114381,"SoundDuration":114381,"Delta":192951018},{"NoteNumber":83,"Velocity":68,"Duration":114090,"SoundDuration":114090,"Delta":193065400},{"NoteNumber":85,"Velocity":69,"Duration":113834,"SoundDuration":113834,"Delta":193179490},{"NoteNumber":86,"Velocity":70,"Duration":113614,"SoundDuration":113614,"Delta":193293325},{"NoteNumber":88,"Velocity":71,"Duration":113271,"SoundDuration":113271,"Delta":193406939},{"NoteNumber":86,"Velocity":71,"Duration":112862,"SoundDuration":112862,"Delta":193520210},{"NoteNumber":85,"Velocity":68,"Duration":113196,"SoundDuration":113196,"Delta":193633073},{"NoteNumber":83,"Velocity":65,"Duration":113529,"SoundDuration":113529,"Delta":193746269},{"NoteNumber":81,"Velocity":63,"Duration":113826,"SoundDuration":113826,"Delta":193859799},{"NoteNumber":80,"Velocity":60,"Duration":114165,"SoundDuration":114165,"Delta":193973626},{"NoteNumber":78,"Velocity":58,"Duration":114504,"SoundDuration":114504,"Delta":194087791},{"NoteNumber":76,"Velocity":55,"Duration":114806,"SoundDuration":114806,"Delta":194202296},{"NoteNumber":74,"Velocity":53,"Duration":115151,"SoundDuration":115151,"Delta":194317102},{"NoteNumber":73,"Velocity":50,"Duration":115496,"SoundDuration":115496,"Delta":194432254},{"NoteNumber":71,"Velocity":48,"Duration":115803,"SoundDuration":115803,"Delta":194547750},{"NoteNumber":69,"Velocity":45,"Duration":116154,"SoundDuration":116154,"Delta":194663554},{"NoteNumber":68,"Velocity":43,"Duration":116505,"SoundDuration":116505,"Delta":194779708},{"NoteNumber":69,"Velocity":50,"Duration":364742,"SoundDuration":364742,"Delta":194896214},{"NoteNumber":57,"Velocity":41,"Duration":364742,"SoundDuration":364742,"Delta":194896214},{"NoteNumber":61,"Velocity":39,"Duration":95846,"SoundDuration":95846,"Delta":195260956},{"NoteNumber":49,"Velocity":35,"Duration":95846,"SoundDuration":95846,"Delta":195260956},{"NoteNumber":71,"Velocity":49,"Duration":363636,"SoundDuration":363636,"Delta":195644343},{"NoteNumber":59,"Velocity":41,"Duration":363636,"SoundDuration":363636,"Delta":195644343},{"NoteNumber":64,"Velocity":39,"Duration":90908,"SoundDuration":90908,"Delta":196007979},{"NoteNumber":52,"Velocity":35,"Duration":90908,"SoundDuration":90908,"Delta":196007979},{"NoteNumber":64,"Velocity":40,"Duration":47679,"SoundDuration":47679,"Delta":196335803},{"NoteNumber":52,"Velocity":33,"Duration":47679,"SoundDuration":47679,"Delta":196335803},{"NoteNumber":73,"Velocity":49,"Duration":362976,"SoundDuration":362976,"Delta":196383482},{"NoteNumber":61,"Velocity":41,"Duration":362976,"SoundDuration":362976,"Delta":196383482},{"NoteNumber":69,"Velocity":39,"Duration":94458,"SoundDuration":94458,"Delta":196746458},{"NoteNumber":57,"Velocity":34,"Duration":94458,"SoundDuration":94458,"Delta":196746458},{"NoteNumber":69,"Velocity":40,"Duration":47229,"SoundDuration":47229,"Delta":197077063},{"NoteNumber":57,"Velocity":33,"Duration":47229,"SoundDuration":47229,"Delta":197077063},{"NoteNumber":78,"Velocity":55,"Duration":266745,"SoundDuration":266745,"Delta":197124292},{"NoteNumber":66,"Velocity":45,"Duration":266745,"SoundDuration":266745,"Delta":197124292},{"NoteNumber":75,"Velocity":45,"Duration":88915,"SoundDuration":88915,"Delta":197391038},{"NoteNumber":63,"Velocity":36,"Duration":88915,"SoundDuration":88915,"Delta":197391038},{"NoteNumber":78,"Velocity":53,"Duration":275735,"SoundDuration":275735,"Delta":197479953},{"NoteNumber":66,"Velocity":43,"Duration":275735,"SoundDuration":275735,"Delta":197479953},{"NoteNumber":75,"Velocity":46,"Duration":99140,"SoundDuration":99140,"Delta":197755689},{"NoteNumber":63,"Velocity":35,"Duration":99140,"SoundDuration":99140,"Delta":197755689},{"NoteNumber":64,"Velocity":41,"Duration":364678,"SoundDuration":364678,"Delta":197854829},{"NoteNumber":76,"Velocity":50,"Duration":367339,"SoundDuration":367339,"Delta":197860181},{"NoteNumber":64,"Velocity":39,"Duration":98039,"SoundDuration":98039,"Delta":198221801},{"NoteNumber":52,"Velocity":35,"Duration":98039,"SoundDuration":98039,"Delta":198225069},{"NoteNumber":64,"Velocity":40,"Duration":49019,"SoundDuration":49019,"Delta":198564939},{"NoteNumber":52,"Velocity":33,"Duration":49019,"SoundDuration":49019,"Delta":198564939},{"NoteNumber":74,"Velocity":49,"Duration":368098,"SoundDuration":368098,"Delta":198613958},{"NoteNumber":62,"Velocity":41,"Duration":368098,"SoundDuration":368098,"Delta":198613958},{"NoteNumber":71,"Velocity":39,"Duration":98039,"SoundDuration":98039,"Delta":198982056},{"NoteNumber":59,"Velocity":35,"Duration":98039,"SoundDuration":98039,"Delta":198982056},{"NoteNumber":71,"Velocity":40,"Duration":49019,"SoundDuration":49019,"Delta":199325194},{"NoteNumber":59,"Velocity":33,"Duration":49019,"SoundDuration":49019,"Delta":199325194},{"NoteNumber":73,"Velocity":49,"Duration":362976,"SoundDuration":362976,"Delta":199374213},{"NoteNumber":61,"Velocity":41,"Duration":362976,"SoundDuration":362976,"Delta":199374213},{"NoteNumber":64,"Velocity":39,"Duration":94458,"SoundDuration":94458,"Delta":199737189},{"NoteNumber":52,"Velocity":34,"Duration":94458,"SoundDuration":94458,"Delta":199737189},{"NoteNumber":64,"Velocity":40,"Duration":47229,"SoundDuration":47229,"Delta":200067794},{"NoteNumber":52,"Velocity":33,"Duration":47229,"SoundDuration":47229,"Delta":200067794},{"NoteNumber":71,"Velocity":55,"Duration":269138,"SoundDuration":269138,"Delta":200115023},{"NoteNumber":59,"Velocity":45,"Duration":269138,"SoundDuration":269138,"Delta":200115023},{"NoteNumber":68,"Velocity":45,"Duration":89713,"SoundDuration":89713,"Delta":200384162},{"NoteNumber":56,"Velocity":36,"Duration":89713,"SoundDuration":89713,"Delta":200384162},{"NoteNumber":71,"Velocity":53,"Duration":274056,"SoundDuration":274056,"Delta":200473875},{"NoteNumber":59,"Velocity":43,"Duration":274056,"SoundDuration":274056,"Delta":200473875},{"NoteNumber":68,"Velocity":46,"Duration":99140,"SoundDuration":99140,"Delta":200747931},{"NoteNumber":56,"Velocity":35,"Duration":99140,"SoundDuration":99140,"Delta":200747931},{"NoteNumber":69,"Velocity":50,"Duration":115740,"SoundDuration":115740,"Delta":200847072},{"NoteNumber":57,"Velocity":41,"Duration":347221,"SoundDuration":347221,"Delta":200847072},{"NoteNumber":49,"Velocity":41,"Duration":347221,"SoundDuration":347221,"Delta":200847072},{"NoteNumber":64,"Velocity":44,"Duration":115740,"SoundDuration":115740,"Delta":200962813},{"NoteNumber":69,"Velocity":38,"Duration":115740,"SoundDuration":115740,"Delta":201078554},{"NoteNumber":61,"Velocity":39,"Duration":97087,"SoundDuration":97087,"Delta":201194294},{"NoteNumber":52,"Velocity":35,"Duration":97087,"SoundDuration":97087,"Delta":201197530},{"NoteNumber":71,"Velocity":50,"Duration":115740,"SoundDuration":115740,"Delta":201582644},{"NoteNumber":56,"Velocity":41,"Duration":347221,"SoundDuration":347221,"Delta":201582644},{"NoteNumber":59,"Velocity":41,"Duration":347221,"SoundDuration":347221,"Delta":201582644},{"NoteNumber":68,"Velocity":44,"Duration":115740,"SoundDuration":115740,"Delta":201698385},{"NoteNumber":71,"Velocity":38,"Duration":115740,"SoundDuration":115740,"Delta":201814126},{"NoteNumber":64,"Velocity":39,"Duration":97402,"SoundDuration":97402,"Delta":201929866},{"NoteNumber":52,"Velocity":35,"Duration":97402,"SoundDuration":97402,"Delta":201933113},{"NoteNumber":73,"Velocity":50,"Duration":115740,"SoundDuration":115740,"Delta":202319476},{"NoteNumber":52,"Velocity":41,"Duration":347221,"SoundDuration":347221,"Delta":202319476},{"NoteNumber":61,"Velocity":41,"Duration":347221,"SoundDuration":347221,"Delta":202319476},{"NoteNumber":71,"Velocity":44,"Duration":115740,"SoundDuration":115740,"Delta":202435217},{"NoteNumber":73,"Velocity":38,"Duration":115740,"SoundDuration":115740,"Delta":202550958},{"NoteNumber":69,"Velocity":39,"Duration":90744,"SoundDuration":90744,"Delta":202666698},{"NoteNumber":57,"Velocity":35,"Duration":90744,"SoundDuration":90744,"Delta":202666698},{"NoteNumber":78,"Velocity":55,"Duration":122474,"SoundDuration":122474,"Delta":203029674},{"NoteNumber":63,"Velocity":45,"Duration":275566,"SoundDuration":275566,"Delta":203029674},{"NoteNumber":60,"Velocity":38,"Duration":275566,"SoundDuration":275566,"Delta":203029674},{"NoteNumber":75,"Velocity":47,"Duration":122473,"SoundDuration":122473,"Delta":203152148},{"NoteNumber":78,"Velocity":47,"Duration":122474,"SoundDuration":122474,"Delta":203274622},{"NoteNumber":57,"Velocity":36,"Duration":91855,"SoundDuration":91855,"Delta":203305241},{"NoteNumber":81,"Velocity":55,"Duration":120337,"SoundDuration":120337,"Delta":203397096},{"NoteNumber":63,"Velocity":43,"Duration":270758,"SoundDuration":270758,"Delta":203397096},{"NoteNumber":60,"Velocity":36,"Duration":270758,"SoundDuration":270758,"Delta":203397096},{"NoteNumber":78,"Velocity":47,"Duration":120337,"SoundDuration":120337,"Delta":203517433},{"NoteNumber":75,"Velocity":47,"Duration":129224,"SoundDuration":129224,"Delta":203637770},{"NoteNumber":57,"Velocity":35,"Duration":99140,"SoundDuration":99140,"Delta":203667854},{"NoteNumber":76,"Velocity":50,"Duration":115740,"SoundDuration":115740,"Delta":203766995},{"NoteNumber":61,"Velocity":41,"Duration":347221,"SoundDuration":347221,"Delta":203766995},{"NoteNumber":64,"Velocity":41,"Duration":345051,"SoundDuration":345051,"Delta":203766995},{"NoteNumber":73,"Velocity":44,"Duration":115740,"SoundDuration":115740,"Delta":203882736},{"NoteNumber":76,"Velocity":38,"Duration":115740,"SoundDuration":115740,"Delta":203998477},{"NoteNumber":64,"Velocity":39,"Duration":97719,"SoundDuration":97719,"Delta":204114217},{"NoteNumber":52,"Velocity":35,"Duration":97719,"SoundDuration":97719,"Delta":204117475},{"NoteNumber":74,"Velocity":50,"Duration":115740,"SoundDuration":115740,"Delta":204505096},{"NoteNumber":59,"Velocity":41,"Duration":347221,"SoundDuration":347221,"Delta":204505096},{"NoteNumber":62,"Velocity":41,"Duration":347221,"SoundDuration":347221,"Delta":204505096},{"NoteNumber":73,"Velocity":44,"Duration":115740,"SoundDuration":115740,"Delta":204620837},{"NoteNumber":74,"Velocity":38,"Duration":115740,"SoundDuration":115740,"Delta":204736578},{"NoteNumber":71,"Velocity":39,"Duration":97719,"SoundDuration":97719,"Delta":204852318},{"NoteNumber":52,"Velocity":35,"Duration":97719,"SoundDuration":97719,"Delta":204855576},{"NoteNumber":73,"Velocity":50,"Duration":115740,"SoundDuration":115740,"Delta":205243197},{"NoteNumber":61,"Velocity":41,"Duration":347221,"SoundDuration":347221,"Delta":205243197},{"NoteNumber":57,"Velocity":41,"Duration":347221,"SoundDuration":347221,"Delta":205243197},{"NoteNumber":69,"Velocity":44,"Duration":115740,"SoundDuration":115740,"Delta":205358938},{"NoteNumber":73,"Velocity":38,"Duration":115740,"SoundDuration":115740,"Delta":205474679},{"NoteNumber":64,"Velocity":39,"Duration":97402,"SoundDuration":97402,"Delta":205590419},{"NoteNumber":52,"Velocity":35,"Duration":97402,"SoundDuration":97402,"Delta":205590419},{"NoteNumber":71,"Velocity":55,"Duration":275566,"SoundDuration":275566,"Delta":205980029},{"NoteNumber":56,"Velocity":38,"Duration":275566,"SoundDuration":275566,"Delta":205980029},{"NoteNumber":59,"Velocity":45,"Duration":275566,"SoundDuration":275566,"Delta":205980029},{"NoteNumber":68,"Velocity":45,"Duration":91855,"SoundDuration":91855,"Delta":206255596},{"NoteNumber":52,"Velocity":36,"Duration":91855,"SoundDuration":91855,"Delta":206255596},{"NoteNumber":71,"Velocity":53,"Duration":275566,"SoundDuration":275566,"Delta":206347451},{"NoteNumber":56,"Velocity":36,"Duration":275566,"SoundDuration":275566,"Delta":206347451},{"NoteNumber":59,"Velocity":43,"Duration":275566,"SoundDuration":275566,"Delta":206347451},{"NoteNumber":68,"Velocity":46,"Duration":125733,"SoundDuration":125733,"Delta":206623018},{"NoteNumber":52,"Velocity":35,"Duration":125733,"SoundDuration":125733,"Delta":206623018},{"NoteNumber":71,"Velocity":78,"Duration":156250,"SoundDuration":156250,"Delta":206748751},{"NoteNumber":59,"Velocity":69,"Duration":156250,"SoundDuration":156250,"Delta":206748751},{"NoteNumber":62,"Velocity":62,"Duration":156249,"SoundDuration":156249,"Delta":206905001},{"NoteNumber":50,"Velocity":53,"Duration":156249,"SoundDuration":156249,"Delta":206905001},{"NoteNumber":71,"Velocity":62,"Duration":176211,"SoundDuration":176211,"Delta":207061251},{"NoteNumber":59,"Velocity":53,"Duration":176211,"SoundDuration":176211,"Delta":207061251},{"NoteNumber":55,"Velocity":78,"Duration":820312,"SoundDuration":820312,"Delta":207237463},{"NoteNumber":43,"Velocity":71,"Duration":820312,"SoundDuration":820312,"Delta":207237463},{"NoteNumber":71,"Velocity":59,"Duration":117187,"SoundDuration":117187,"Delta":208057775},{"NoteNumber":62,"Velocity":59,"Duration":117187,"SoundDuration":117187,"Delta":208057775},{"NoteNumber":50,"Velocity":48,"Duration":117187,"SoundDuration":117187,"Delta":208057775},{"NoteNumber":59,"Velocity":48,"Duration":117187,"SoundDuration":117187,"Delta":208057775},{"NoteNumber":55,"Velocity":78,"Duration":351562,"SoundDuration":351562,"Delta":208174963},{"NoteNumber":43,"Velocity":62,"Duration":351562,"SoundDuration":351562,"Delta":208174963},{"NoteNumber":62,"Velocity":62,"Duration":131578,"SoundDuration":131578,"Delta":208526525},{"NoteNumber":50,"Velocity":53,"Duration":131578,"SoundDuration":131578,"Delta":208526525},{"NoteNumber":71,"Velocity":75,"Duration":143574,"SoundDuration":143574,"Delta":208658104},{"NoteNumber":59,"Velocity":71,"Duration":143574,"SoundDuration":143574,"Delta":208658104},{"NoteNumber":62,"Velocity":56,"Duration":143574,"SoundDuration":143574,"Delta":208801679},{"NoteNumber":50,"Velocity":53,"Duration":143574,"SoundDuration":143574,"Delta":208801679},{"NoteNumber":71,"Velocity":56,"Duration":166945,"SoundDuration":166945,"Delta":208945254},{"NoteNumber":59,"Velocity":53,"Duration":166945,"SoundDuration":166945,"Delta":208945254},{"NoteNumber":55,"Velocity":74,"Duration":820312,"SoundDuration":820312,"Delta":209112199},{"NoteNumber":43,"Velocity":68,"Duration":820312,"SoundDuration":820312,"Delta":209112199},{"NoteNumber":71,"Velocity":59,"Duration":117187,"SoundDuration":117187,"Delta":209932512},{"NoteNumber":62,"Velocity":59,"Duration":117187,"SoundDuration":117187,"Delta":209932512},{"NoteNumber":59,"Velocity":48,"Duration":117187,"SoundDuration":117187,"Delta":209932512},{"NoteNumber":50,"Velocity":48,"Duration":117187,"SoundDuration":117187,"Delta":209932512},{"NoteNumber":55,"Velocity":74,"Duration":820312,"SoundDuration":820312,"Delta":210049699},{"NoteNumber":43,"Velocity":62,"Duration":820312,"SoundDuration":820312,"Delta":210049699},{"NoteNumber":62,"Velocity":52,"Duration":132158,"SoundDuration":132158,"Delta":210870012},{"NoteNumber":71,"Velocity":62,"Duration":132158,"SoundDuration":132158,"Delta":210870012},{"NoteNumber":59,"Velocity":53,"Duration":132158,"SoundDuration":132158,"Delta":210870012},{"NoteNumber":50,"Velocity":45,"Duration":132158,"SoundDuration":132158,"Delta":210870012},{"NoteNumber":55,"Velocity":74,"Duration":796661,"SoundDuration":796661,"Delta":211002170},{"NoteNumber":43,"Velocity":62,"Duration":796661,"SoundDuration":796661,"Delta":211002170},{"NoteNumber":62,"Velocity":52,"Duration":113808,"SoundDuration":113808,"Delta":211798831},{"NoteNumber":71,"Velocity":62,"Duration":113808,"SoundDuration":113808,"Delta":211798831},{"NoteNumber":59,"Velocity":53,"Duration":113808,"SoundDuration":113808,"Delta":211798831},{"NoteNumber":50,"Velocity":45,"Duration":113808,"SoundDuration":113808,"Delta":211798831},{"NoteNumber":55,"Velocity":74,"Duration":341426,"SoundDuration":341426,"Delta":211912640},{"NoteNumber":43,"Velocity":62,"Duration":341426,"SoundDuration":341426,"Delta":211912640},{"NoteNumber":71,"Velocity":62,"Duration":113808,"SoundDuration":113808,"Delta":212254066},{"NoteNumber":62,"Velocity":52,"Duration":113808,"SoundDuration":113808,"Delta":212254066},{"NoteNumber":55,"Velocity":53,"Duration":113808,"SoundDuration":113808,"Delta":212254066},{"NoteNumber":72,"Velocity":79,"Duration":145666,"SoundDuration":145666,"Delta":212367875},{"NoteNumber":48,"Velocity":71,"Duration":145666,"SoundDuration":145666,"Delta":212367875},{"NoteNumber":64,"Velocity":62,"Duration":145666,"SoundDuration":145666,"Delta":212513541},{"NoteNumber":55,"Velocity":53,"Duration":145666,"SoundDuration":145666,"Delta":212513541},{"NoteNumber":72,"Velocity":62,"Duration":182648,"SoundDuration":182648,"Delta":212659208},{"NoteNumber":48,"Velocity":53,"Duration":182648,"SoundDuration":182648,"Delta":212659208},{"NoteNumber":76,"Velocity":81,"Duration":810810,"SoundDuration":810810,"Delta":212841856},{"NoteNumber":36,"Velocity":69,"Duration":810810,"SoundDuration":810810,"Delta":212841856},{"NoteNumber":64,"Velocity":59,"Duration":115829,"SoundDuration":115829,"Delta":213652666},{"NoteNumber":55,"Velocity":48,"Duration":115829,"SoundDuration":115829,"Delta":213652666},{"NoteNumber":48,"Velocity":48,"Duration":115829,"SoundDuration":115829,"Delta":213652666},{"NoteNumber":72,"Velocity":62,"Duration":347490,"SoundDuration":347490,"Delta":213768496},{"NoteNumber":76,"Velocity":74,"Duration":347490,"SoundDuration":347490,"Delta":213768496},{"NoteNumber":36,"Velocity":62,"Duration":347490,"SoundDuration":347490,"Delta":213768496},{"NoteNumber":64,"Velocity":62,"Duration":136986,"SoundDuration":136986,"Delta":214115986},{"NoteNumber":55,"Velocity":53,"Duration":136986,"SoundDuration":136986,"Delta":214115986},{"NoteNumber":72,"Velocity":71,"Duration":147275,"SoundDuration":147275,"Delta":214252972},{"NoteNumber":48,"Velocity":62,"Duration":147275,"SoundDuration":147275,"Delta":214252972},{"NoteNumber":64,"Velocity":56,"Duration":147275,"SoundDuration":147275,"Delta":214400248},{"NoteNumber":55,"Velocity":53,"Duration":147275,"SoundDuration":147275,"Delta":214400248},{"NoteNumber":72,"Velocity":56,"Duration":178571,"SoundDuration":178571,"Delta":214547523},{"NoteNumber":48,"Velocity":53,"Duration":178571,"SoundDuration":178571,"Delta":214547523},{"NoteNumber":76,"Velocity":74,"Duration":820312,"SoundDuration":820312,"Delta":214726094},{"NoteNumber":36,"Velocity":62,"Duration":820312,"SoundDuration":820312,"Delta":214726094},{"NoteNumber":64,"Velocity":59,"Duration":126050,"SoundDuration":126050,"Delta":215546407},{"NoteNumber":55,"Velocity":48,"Duration":126050,"SoundDuration":126050,"Delta":215546407},{"NoteNumber":48,"Velocity":48,"Duration":126050,"SoundDuration":126050,"Delta":215546407},{"NoteNumber":72,"Velocity":74,"Duration":820312,"SoundDuration":820312,"Delta":215672457},{"NoteNumber":76,"Velocity":74,"Duration":820312,"SoundDuration":820312,"Delta":215672457},{"NoteNumber":36,"Velocity":62,"Duration":820312,"SoundDuration":820312,"Delta":215672457},{"NoteNumber":64,"Velocity":62,"Duration":125208,"SoundDuration":125208,"Delta":216492770},{"NoteNumber":48,"Velocity":45,"Duration":125208,"SoundDuration":125208,"Delta":216492770},{"NoteNumber":55,"Velocity":53,"Duration":125208,"SoundDuration":125208,"Delta":216492770},{"NoteNumber":72,"Velocity":74,"Duration":826771,"SoundDuration":826771,"Delta":216617979},{"NoteNumber":76,"Velocity":80,"Duration":826771,"SoundDuration":826771,"Delta":216617979},{"NoteNumber":36,"Velocity":62,"Duration":826771,"SoundDuration":826771,"Delta":216617979},{"NoteNumber":64,"Velocity":53,"Duration":143815,"SoundDuration":143815,"Delta":217444750},{"NoteNumber":40,"Velocity":41,"Duration":143815,"SoundDuration":143815,"Delta":217444750},{"NoteNumber":68,"Velocity":57,"Duration":860655,"SoundDuration":860655,"Delta":217588566},{"NoteNumber":74,"Velocity":57,"Duration":860655,"SoundDuration":860655,"Delta":217588566},{"NoteNumber":76,"Velocity":63,"Duration":860655,"SoundDuration":860655,"Delta":217588566},{"NoteNumber":35,"Velocity":45,"Duration":860655,"SoundDuration":860655,"Delta":217588566},{"NoteNumber":64,"Velocity":42,"Duration":150000,"SoundDuration":150000,"Delta":218449222},{"NoteNumber":40,"Velocity":33,"Duration":150000,"SoundDuration":150000,"Delta":218449222},{"NoteNumber":68,"Velocity":44,"Duration":413983,"SoundDuration":413983,"Delta":218599222},{"NoteNumber":74,"Velocity":44,"Duration":413983,"SoundDuration":413983,"Delta":218599222},{"NoteNumber":76,"Velocity":53,"Duration":413983,"SoundDuration":413983,"Delta":218599222},{"NoteNumber":35,"Velocity":37,"Duration":413983,"SoundDuration":413983,"Delta":218599222},{"NoteNumber":64,"Velocity":42,"Duration":137994,"SoundDuration":137994,"Delta":219013205},{"NoteNumber":40,"Velocity":32,"Duration":137994,"SoundDuration":137994,"Delta":219013205},{"NoteNumber":68,"Velocity":41,"Duration":436046,"SoundDuration":436046,"Delta":219151200},{"NoteNumber":74,"Velocity":41,"Duration":436046,"SoundDuration":436046,"Delta":219151200},{"NoteNumber":76,"Velocity":48,"Duration":436046,"SoundDuration":436046,"Delta":219151200},{"NoteNumber":35,"Velocity":34,"Duration":436046,"SoundDuration":436046,"Delta":219151200},{"NoteNumber":64,"Velocity":39,"Duration":171428,"SoundDuration":171428,"Delta":219587246},{"NoteNumber":40,"Velocity":29,"Duration":171428,"SoundDuration":171428,"Delta":219587246},{"NoteNumber":68,"Velocity":37,"Duration":460593,"SoundDuration":460593,"Delta":219758674},{"NoteNumber":74,"Velocity":37,"Duration":460593,"SoundDuration":460593,"Delta":219758674},{"NoteNumber":76,"Velocity":44,"Duration":460593,"SoundDuration":460593,"Delta":219758674},{"NoteNumber":35,"Velocity":31,"Duration":460593,"SoundDuration":460593,"Delta":219758674},{"NoteNumber":64,"Velocity":35,"Duration":189873,"SoundDuration":189873,"Delta":220219268},{"NoteNumber":40,"Velocity":27,"Duration":189873,"SoundDuration":189873,"Delta":220219268},{"NoteNumber":69,"Velocity":42,"Duration":87209,"SoundDuration":87209,"Delta":220409142},{"NoteNumber":73,"Velocity":42,"Duration":87209,"SoundDuration":87209,"Delta":220409142},{"NoteNumber":76,"Velocity":50,"Duration":87209,"SoundDuration":87209,"Delta":220409142},{"NoteNumber":33,"Velocity":31,"Duration":87209,"SoundDuration":87209,"Delta":220409142},{"NoteNumber":64,"Velocity":39,"Duration":116279,"SoundDuration":116279,"Delta":220525421},{"NoteNumber":69,"Velocity":41,"Duration":116174,"SoundDuration":116174,"Delta":220641700},{"NoteNumber":73,"Velocity":42,"Duration":115606,"SoundDuration":115606,"Delta":220757874},{"NoteNumber":76,"Velocity":44,"Duration":115288,"SoundDuration":115288,"Delta":220873481},{"NoteNumber":81,"Velocity":45,"Duration":115023,"SoundDuration":115023,"Delta":220988769},{"NoteNumber":76,"Velocity":47,"Duration":114759,"SoundDuration":114759,"Delta":221103792},{"NoteNumber":69,"Velocity":45,"Duration":114496,"SoundDuration":114496,"Delta":221218552},{"NoteNumber":57,"Velocity":38,"Duration":114496,"SoundDuration":114496,"Delta":221218552},{"NoteNumber":73,"Velocity":49,"Duration":114208,"SoundDuration":114208,"Delta":221333048},{"NoteNumber":61,"Velocity":40,"Duration":114208,"SoundDuration":114208,"Delta":221333048},{"NoteNumber":76,"Velocity":52,"Duration":115160,"SoundDuration":115160,"Delta":221447257},{"NoteNumber":64,"Velocity":42,"Duration":115160,"SoundDuration":115160,"Delta":221447257},{"NoteNumber":81,"Velocity":52,"Duration":115942,"SoundDuration":115942,"Delta":221562417},{"NoteNumber":69,"Velocity":41,"Duration":115942,"SoundDuration":115942,"Delta":221562417},{"NoteNumber":85,"Velocity":47,"Duration":126183,"SoundDuration":126183,"Delta":221678359},{"NoteNumber":73,"Velocity":38,"Duration":126183,"SoundDuration":126183,"Delta":221678359},{"NoteNumber":76,"Velocity":52,"Duration":113959,"SoundDuration":113959,"Delta":221804542},{"NoteNumber":64,"Velocity":42,"Duration":170940,"SoundDuration":170940,"Delta":221804542},{"NoteNumber":78,"Velocity":45,"Duration":113960,"SoundDuration":113960,"Delta":221918502},{"NoteNumber":76,"Velocity":45,"Duration":113959,"SoundDuration":113959,"Delta":222032462},{"NoteNumber":74,"Velocity":52,"Duration":115941,"SoundDuration":115941,"Delta":222146422},{"NoteNumber":62,"Velocity":34,"Duration":86956,"SoundDuration":86956,"Delta":222146422},{"NoteNumber":59,"Velocity":28,"Duration":86956,"SoundDuration":86956,"Delta":222146422},{"NoteNumber":52,"Velocity":28,"Duration":86956,"SoundDuration":86956,"Delta":222146422},{"NoteNumber":78,"Velocity":47,"Duration":115942,"SoundDuration":115942,"Delta":222262364},{"NoteNumber":74,"Velocity":47,"Duration":115941,"SoundDuration":115941,"Delta":222378306},{"NoteNumber":73,"Velocity":53,"Duration":115941,"SoundDuration":115941,"Delta":222494248},{"NoteNumber":61,"Velocity":34,"Duration":86956,"SoundDuration":86956,"Delta":222494248},{"NoteNumber":57,"Velocity":28,"Duration":86956,"SoundDuration":86956,"Delta":222494248},{"NoteNumber":52,"Velocity":28,"Duration":86956,"SoundDuration":86956,"Delta":222494248},{"NoteNumber":76,"Velocity":47,"Duration":115942,"SoundDuration":115942,"Delta":222610190},{"NoteNumber":73,"Velocity":47,"Duration":115941,"SoundDuration":115941,"Delta":222726132},{"NoteNumber":71,"Velocity":52,"Duration":115942,"SoundDuration":115942,"Delta":222842074},{"NoteNumber":59,"Velocity":34,"Duration":86956,"SoundDuration":86956,"Delta":222842074},{"NoteNumber":56,"Velocity":28,"Duration":86956,"SoundDuration":86956,"Delta":222842074},{"NoteNumber":52,"Velocity":28,"Duration":86956,"SoundDuration":86956,"Delta":222842074},{"NoteNumber":74,"Velocity":47,"Duration":115941,"SoundDuration":115941,"Delta":222958016},{"NoteNumber":71,"Velocity":47,"Duration":125000,"SoundDuration":125000,"Delta":223073958},{"NoteNumber":69,"Velocity":50,"Duration":116278,"SoundDuration":116278,"Delta":223198958},{"NoteNumber":57,"Velocity":31,"Duration":174418,"SoundDuration":174418,"Delta":223198958},{"NoteNumber":61,"Velocity":37,"Duration":174418,"SoundDuration":174418,"Delta":223198958},{"NoteNumber":64,"Velocity":39,"Duration":116279,"SoundDuration":116279,"Delta":223315237},{"NoteNumber":69,"Velocity":41,"Duration":116174,"SoundDuration":116174,"Delta":223431516},{"NoteNumber":73,"Velocity":42,"Duration":115606,"SoundDuration":115606,"Delta":223547690},{"NoteNumber":76,"Velocity":44,"Duration":115288,"SoundDuration":115288,"Delta":223663297},{"NoteNumber":81,"Velocity":45,"Duration":115023,"SoundDuration":115023,"Delta":223778585},{"NoteNumber":76,"Velocity":47,"Duration":114759,"SoundDuration":114759,"Delta":223893608},{"NoteNumber":69,"Velocity":45,"Duration":114496,"SoundDuration":114496,"Delta":224008368},{"NoteNumber":57,"Velocity":38,"Duration":114496,"SoundDuration":114496,"Delta":224008368},{"NoteNumber":73,"Velocity":49,"Duration":114208,"SoundDuration":114208,"Delta":224122864},{"NoteNumber":61,"Velocity":40,"Duration":114208,"SoundDuration":114208,"Delta":224122864},{"NoteNumber":76,"Velocity":52,"Duration":115160,"SoundDuration":115160,"Delta":224237073},{"NoteNumber":64,"Velocity":42,"Duration":115160,"SoundDuration":115160,"Delta":224237073},{"NoteNumber":81,"Velocity":52,"Duration":115942,"SoundDuration":115942,"Delta":224352233},{"NoteNumber":69,"Velocity":41,"Duration":115942,"SoundDuration":115942,"Delta":224352233},{"NoteNumber":85,"Velocity":47,"Duration":126183,"SoundDuration":126183,"Delta":224468175},{"NoteNumber":73,"Velocity":38,"Duration":126183,"SoundDuration":126183,"Delta":224468175},{"NoteNumber":76,"Velocity":52,"Duration":112549,"SoundDuration":112549,"Delta":224594358},{"NoteNumber":64,"Velocity":42,"Duration":168824,"SoundDuration":168824,"Delta":224594358},{"NoteNumber":78,"Velocity":45,"Duration":112549,"SoundDuration":112549,"Delta":224706907},{"NoteNumber":76,"Velocity":45,"Duration":112549,"SoundDuration":112549,"Delta":224819457},{"NoteNumber":74,"Velocity":52,"Duration":115941,"SoundDuration":115941,"Delta":224932006},{"NoteNumber":62,"Velocity":34,"Duration":86956,"SoundDuration":86956,"Delta":224932006},{"NoteNumber":52,"Velocity":28,"Duration":86956,"SoundDuration":86956,"Delta":224932006},{"NoteNumber":59,"Velocity":28,"Duration":86956,"SoundDuration":86956,"Delta":224932006},{"NoteNumber":76,"Velocity":47,"Duration":115942,"SoundDuration":115942,"Delta":225047948},{"NoteNumber":74,"Velocity":47,"Duration":115941,"SoundDuration":115941,"Delta":225163890},{"NoteNumber":73,"Velocity":53,"Duration":115941,"SoundDuration":115941,"Delta":225279832},{"NoteNumber":57,"Velocity":28,"Duration":86956,"SoundDuration":86956,"Delta":225279832},{"NoteNumber":61,"Velocity":34,"Duration":86956,"SoundDuration":86956,"Delta":225279832},{"NoteNumber":52,"Velocity":28,"Duration":86956,"SoundDuration":86956,"Delta":225279832},{"NoteNumber":74,"Velocity":47,"Duration":115942,"SoundDuration":115942,"Delta":225395774},{"NoteNumber":73,"Velocity":47,"Duration":115941,"SoundDuration":115941,"Delta":225511716},{"NoteNumber":71,"Velocity":52,"Duration":115942,"SoundDuration":115942,"Delta":225627658},{"NoteNumber":59,"Velocity":34,"Duration":86956,"SoundDuration":86956,"Delta":225627658},{"NoteNumber":56,"Velocity":28,"Duration":86956,"SoundDuration":86956,"Delta":225627658},{"NoteNumber":52,"Velocity":28,"Duration":86956,"SoundDuration":86956,"Delta":225627658},{"NoteNumber":73,"Velocity":47,"Duration":115941,"SoundDuration":115941,"Delta":225743600},{"NoteNumber":71,"Velocity":47,"Duration":148148,"SoundDuration":148148,"Delta":225859542},{"NoteNumber":61,"Velocity":42,"Duration":125786,"SoundDuration":125786,"Delta":226007690},{"NoteNumber":57,"Velocity":41,"Duration":377357,"SoundDuration":377357,"Delta":226007690},{"NoteNumber":64,"Velocity":37,"Duration":125786,"SoundDuration":125786,"Delta":226133476},{"NoteNumber":61,"Velocity":37,"Duration":125785,"SoundDuration":125785,"Delta":226259262},{"NoteNumber":64,"Velocity":43,"Duration":125786,"SoundDuration":125786,"Delta":226385048},{"NoteNumber":49,"Velocity":35,"Duration":188679,"SoundDuration":188679,"Delta":226385048},{"NoteNumber":69,"Velocity":36,"Duration":125786,"SoundDuration":125786,"Delta":226510834},{"NoteNumber":64,"Velocity":37,"Duration":123674,"SoundDuration":123674,"Delta":226636620},{"NoteNumber":64,"Velocity":43,"Duration":126182,"SoundDuration":126182,"Delta":226777963},{"NoteNumber":59,"Velocity":40,"Duration":378548,"SoundDuration":378548,"Delta":226777963},{"NoteNumber":68,"Velocity":37,"Duration":126182,"SoundDuration":126182,"Delta":226904146},{"NoteNumber":64,"Velocity":38,"Duration":126182,"SoundDuration":126182,"Delta":227030329},{"NoteNumber":68,"Velocity":43,"Duration":126182,"SoundDuration":126182,"Delta":227156512},{"NoteNumber":52,"Velocity":33,"Duration":189274,"SoundDuration":189274,"Delta":227156512},{"NoteNumber":71,"Velocity":39,"Duration":126182,"SoundDuration":126182,"Delta":227282695},{"NoteNumber":68,"Velocity":39,"Duration":141342,"SoundDuration":141342,"Delta":227408878},{"NoteNumber":64,"Velocity":43,"Duration":125000,"SoundDuration":125000,"Delta":227550220},{"NoteNumber":61,"Velocity":42,"Duration":375000,"SoundDuration":375000,"Delta":227550220},{"NoteNumber":69,"Velocity":38,"Duration":125000,"SoundDuration":125000,"Delta":227675220},{"NoteNumber":64,"Velocity":38,"Duration":125000,"SoundDuration":125000,"Delta":227800220},{"NoteNumber":69,"Velocity":43,"Duration":125000,"SoundDuration":125000,"Delta":227925220},{"NoteNumber":57,"Velocity":34,"Duration":187500,"SoundDuration":187500,"Delta":227925220},{"NoteNumber":73,"Velocity":38,"Duration":125000,"SoundDuration":125000,"Delta":228050220},{"NoteNumber":69,"Velocity":38,"Duration":120274,"SoundDuration":120274,"Delta":228175220},{"NoteNumber":69,"Velocity":43,"Duration":121951,"SoundDuration":121951,"Delta":228312677},{"NoteNumber":66,"Velocity":40,"Duration":274390,"SoundDuration":274390,"Delta":228312677},{"NoteNumber":72,"Velocity":37,"Duration":121951,"SoundDuration":121951,"Delta":228434629},{"NoteNumber":69,"Velocity":37,"Duration":121951,"SoundDuration":121951,"Delta":228556580},{"NoteNumber":63,"Velocity":30,"Duration":91463,"SoundDuration":91463,"Delta":228587068},{"NoteNumber":72,"Velocity":43,"Duration":119260,"SoundDuration":119260,"Delta":228678531},{"NoteNumber":66,"Velocity":37,"Duration":271743,"SoundDuration":271743,"Delta":228678531},{"NoteNumber":75,"Velocity":37,"Duration":119260,"SoundDuration":119260,"Delta":228797792},{"NoteNumber":72,"Velocity":37,"Duration":132890,"SoundDuration":132890,"Delta":228917053},{"NoteNumber":63,"Velocity":34,"Duration":99667,"SoundDuration":99667,"Delta":228950275},{"NoteNumber":69,"Velocity":42,"Duration":123839,"SoundDuration":123839,"Delta":229049943},{"NoteNumber":64,"Velocity":41,"Duration":371517,"SoundDuration":371517,"Delta":229049943},{"NoteNumber":73,"Velocity":37,"Duration":123839,"SoundDuration":123839,"Delta":229173782},{"NoteNumber":69,"Velocity":37,"Duration":123839,"SoundDuration":123839,"Delta":229297621},{"NoteNumber":73,"Velocity":43,"Duration":123838,"SoundDuration":123838,"Delta":229421460},{"NoteNumber":52,"Velocity":35,"Duration":185758,"SoundDuration":185758,"Delta":229421460},{"NoteNumber":76,"Velocity":36,"Duration":123839,"SoundDuration":123839,"Delta":229545299},{"NoteNumber":73,"Velocity":37,"Duration":122377,"SoundDuration":122377,"Delta":229669138},{"NoteNumber":64,"Velocity":43,"Duration":123839,"SoundDuration":123839,"Delta":229808998},{"NoteNumber":62,"Velocity":40,"Duration":371517,"SoundDuration":371517,"Delta":229808998},{"NoteNumber":71,"Velocity":37,"Duration":123839,"SoundDuration":123839,"Delta":229932837},{"NoteNumber":64,"Velocity":38,"Duration":123839,"SoundDuration":123839,"Delta":230056676},{"NoteNumber":71,"Velocity":43,"Duration":123838,"SoundDuration":123838,"Delta":230180515},{"NoteNumber":59,"Velocity":33,"Duration":185758,"SoundDuration":185758,"Delta":230180515},{"NoteNumber":74,"Velocity":39,"Duration":123839,"SoundDuration":123839,"Delta":230304354},{"NoteNumber":71,"Velocity":39,"Duration":139372,"SoundDuration":139372,"Delta":230428193},{"NoteNumber":64,"Velocity":43,"Duration":123839,"SoundDuration":123839,"Delta":230567566},{"NoteNumber":61,"Velocity":42,"Duration":371517,"SoundDuration":371517,"Delta":230567566},{"NoteNumber":69,"Velocity":38,"Duration":123839,"SoundDuration":123839,"Delta":230691405},{"NoteNumber":64,"Velocity":38,"Duration":123839,"SoundDuration":123839,"Delta":230815244},{"NoteNumber":69,"Velocity":43,"Duration":123838,"SoundDuration":123838,"Delta":230939083},{"NoteNumber":52,"Velocity":34,"Duration":185758,"SoundDuration":185758,"Delta":230939083},{"NoteNumber":73,"Velocity":38,"Duration":123839,"SoundDuration":123839,"Delta":231062922},{"NoteNumber":69,"Velocity":38,"Duration":120274,"SoundDuration":120274,"Delta":231186761},{"NoteNumber":64,"Velocity":43,"Duration":119760,"SoundDuration":119760,"Delta":231324218},{"NoteNumber":59,"Velocity":40,"Duration":269460,"SoundDuration":269460,"Delta":231324218},{"NoteNumber":68,"Velocity":37,"Duration":119760,"SoundDuration":119760,"Delta":231443978},{"NoteNumber":64,"Velocity":37,"Duration":119760,"SoundDuration":119760,"Delta":231563738},{"NoteNumber":56,"Velocity":30,"Duration":89820,"SoundDuration":89820,"Delta":231593678},{"NoteNumber":68,"Velocity":43,"Duration":116822,"SoundDuration":116822,"Delta":231683499},{"NoteNumber":59,"Velocity":37,"Duration":276017,"SoundDuration":276017,"Delta":231683499},{"NoteNumber":71,"Velocity":37,"Duration":116822,"SoundDuration":116822,"Delta":231800321},{"NoteNumber":68,"Velocity":37,"Duration":169491,"SoundDuration":169491,"Delta":231917143},{"NoteNumber":52,"Velocity":34,"Duration":127118,"SoundDuration":127118,"Delta":231959516},{"NoteNumber":73,"Velocity":44,"Duration":114482,"SoundDuration":114482,"Delta":232086635},{"NoteNumber":69,"Velocity":43,"Duration":114482,"SoundDuration":114482,"Delta":232086635},{"NoteNumber":76,"Velocity":39,"Duration":114481,"SoundDuration":114481,"Delta":232201117},{"NoteNumber":64,"Velocity":36,"Duration":114481,"SoundDuration":114481,"Delta":232201117},{"NoteNumber":73,"Velocity":39,"Duration":114482,"SoundDuration":114482,"Delta":232315599},{"NoteNumber":69,"Velocity":36,"Duration":114482,"SoundDuration":114482,"Delta":232315599},{"NoteNumber":76,"Velocity":46,"Duration":114482,"SoundDuration":114482,"Delta":232430081},{"NoteNumber":61,"Velocity":42,"Duration":171722,"SoundDuration":171722,"Delta":232430081},{"NoteNumber":81,"Velocity":39,"Duration":114481,"SoundDuration":114481,"Delta":232544563},{"NoteNumber":76,"Velocity":40,"Duration":115894,"SoundDuration":115894,"Delta":232659045},{"NoteNumber":76,"Velocity":47,"Duration":114482,"SoundDuration":114482,"Delta":232791495},{"NoteNumber":71,"Velocity":44,"Duration":114482,"SoundDuration":114482,"Delta":232791495},{"NoteNumber":80,"Velocity":41,"Duration":114481,"SoundDuration":114481,"Delta":232905977},{"NoteNumber":68,"Velocity":38,"Duration":114481,"SoundDuration":114481,"Delta":232905977},{"NoteNumber":76,"Velocity":42,"Duration":114482,"SoundDuration":114482,"Delta":233020459},{"NoteNumber":71,"Velocity":38,"Duration":114482,"SoundDuration":114482,"Delta":233020459},{"NoteNumber":80,"Velocity":49,"Duration":114482,"SoundDuration":114482,"Delta":233134941},{"NoteNumber":64,"Velocity":44,"Duration":171722,"SoundDuration":171722,"Delta":233134941},{"NoteNumber":83,"Velocity":44,"Duration":114481,"SoundDuration":114481,"Delta":233249423},{"NoteNumber":80,"Velocity":45,"Duration":131579,"SoundDuration":131579,"Delta":233363905},{"NoteNumber":76,"Velocity":50,"Duration":116278,"SoundDuration":116278,"Delta":233495484},{"NoteNumber":73,"Velocity":49,"Duration":116278,"SoundDuration":116278,"Delta":233495484},{"NoteNumber":81,"Velocity":44,"Duration":116279,"SoundDuration":116279,"Delta":233611763},{"NoteNumber":71,"Velocity":41,"Duration":116279,"SoundDuration":116279,"Delta":233611763},{"NoteNumber":76,"Velocity":45,"Duration":116278,"SoundDuration":116278,"Delta":233728042},{"NoteNumber":73,"Velocity":41,"Duration":116278,"SoundDuration":116278,"Delta":233728042},{"NoteNumber":81,"Velocity":51,"Duration":116278,"SoundDuration":116278,"Delta":233844321},{"NoteNumber":69,"Velocity":49,"Duration":174418,"SoundDuration":174418,"Delta":233844321},{"NoteNumber":85,"Velocity":45,"Duration":116278,"SoundDuration":116278,"Delta":233960600},{"NoteNumber":81,"Velocity":46,"Duration":112903,"SoundDuration":112903,"Delta":234076879},{"NoteNumber":81,"Velocity":52,"Duration":119760,"SoundDuration":119760,"Delta":234205912},{"NoteNumber":78,"Velocity":49,"Duration":269460,"SoundDuration":269460,"Delta":234205912},{"NoteNumber":84,"Velocity":45,"Duration":119760,"SoundDuration":119760,"Delta":234325672},{"NoteNumber":81,"Velocity":46,"Duration":119760,"SoundDuration":119760,"Delta":234445432},{"NoteNumber":75,"Velocity":37,"Duration":89820,"SoundDuration":89820,"Delta":234475372},{"NoteNumber":84,"Velocity":54,"Duration":119760,"SoundDuration":119760,"Delta":234565193},{"NoteNumber":78,"Velocity":46,"Duration":272743,"SoundDuration":272743,"Delta":234565193},{"NoteNumber":87,"Velocity":46,"Duration":119760,"SoundDuration":119760,"Delta":234684953},{"NoteNumber":84,"Velocity":47,"Duration":132890,"SoundDuration":132890,"Delta":234804713},{"NoteNumber":75,"Velocity":43,"Duration":99667,"SoundDuration":99667,"Delta":234837936},{"NoteNumber":81,"Velocity":55,"Duration":121951,"SoundDuration":121951,"Delta":234937604},{"NoteNumber":78,"Velocity":54,"Duration":365854,"SoundDuration":365854,"Delta":234937604},{"NoteNumber":84,"Velocity":49,"Duration":121951,"SoundDuration":121951,"Delta":235059555},{"NoteNumber":81,"Velocity":49,"Duration":121951,"SoundDuration":121951,"Delta":235181506},{"NoteNumber":84,"Velocity":55,"Duration":121951,"SoundDuration":121951,"Delta":235303458},{"NoteNumber":75,"Velocity":44,"Duration":182926,"SoundDuration":182926,"Delta":235303458},{"NoteNumber":87,"Velocity":49,"Duration":121951,"SoundDuration":121951,"Delta":235425409},{"NoteNumber":84,"Velocity":49,"Duration":112903,"SoundDuration":112903,"Delta":235547360},{"NoteNumber":81,"Velocity":43,"Duration":121951,"SoundDuration":121951,"Delta":235676393},{"NoteNumber":78,"Velocity":42,"Duration":365854,"SoundDuration":365854,"Delta":235676393},{"NoteNumber":84,"Velocity":37,"Duration":121951,"SoundDuration":121951,"Delta":235798344},{"NoteNumber":81,"Velocity":37,"Duration":121951,"SoundDuration":121951,"Delta":235920295},{"NoteNumber":84,"Velocity":43,"Duration":121951,"SoundDuration":121951,"Delta":236042247},{"NoteNumber":75,"Velocity":34,"Duration":182926,"SoundDuration":182926,"Delta":236042247},{"NoteNumber":87,"Velocity":37,"Duration":121951,"SoundDuration":121951,"Delta":236164198},{"NoteNumber":84,"Velocity":37,"Duration":145985,"SoundDuration":145985,"Delta":236286149},{"NoteNumber":81,"Velocity":43,"Duration":120846,"SoundDuration":120846,"Delta":236432135},{"NoteNumber":78,"Velocity":42,"Duration":362538,"SoundDuration":362538,"Delta":236432135},{"NoteNumber":84,"Velocity":38,"Duration":120846,"SoundDuration":120846,"Delta":236552981},{"NoteNumber":81,"Velocity":38,"Duration":120846,"SoundDuration":120846,"Delta":236673827},{"NoteNumber":84,"Velocity":43,"Duration":120846,"SoundDuration":120846,"Delta":236794673},{"NoteNumber":75,"Velocity":41,"Duration":181268,"SoundDuration":181268,"Delta":236794673},{"NoteNumber":87,"Velocity":38,"Duration":120845,"SoundDuration":120845,"Delta":236915519},{"NoteNumber":84,"Velocity":38,"Duration":112903,"SoundDuration":112903,"Delta":237036365},{"NoteNumber":81,"Velocity":43,"Duration":119760,"SoundDuration":119760,"Delta":237165397},{"NoteNumber":77,"Velocity":40,"Duration":269460,"SoundDuration":269460,"Delta":237165397},{"NoteNumber":84,"Velocity":37,"Duration":119760,"SoundDuration":119760,"Delta":237285157},{"NoteNumber":81,"Velocity":37,"Duration":119760,"SoundDuration":119760,"Delta":237404918},{"NoteNumber":75,"Velocity":30,"Duration":89820,"SoundDuration":89820,"Delta":237434858},{"NoteNumber":84,"Velocity":43,"Duration":119760,"SoundDuration":119760,"Delta":237524678},{"NoteNumber":77,"Velocity":37,"Duration":272743,"SoundDuration":272743,"Delta":237524678},{"NoteNumber":89,"Velocity":37,"Duration":119760,"SoundDuration":119760,"Delta":237644438},{"NoteNumber":84,"Velocity":37,"Duration":132890,"SoundDuration":132890,"Delta":237764199},{"NoteNumber":75,"Velocity":34,"Duration":99667,"SoundDuration":99667,"Delta":237797421},{"NoteNumber":81,"Velocity":43,"Duration":122323,"SoundDuration":122323,"Delta":237897089},{"NoteNumber":77,"Velocity":42,"Duration":366972,"SoundDuration":366972,"Delta":237897089},{"NoteNumber":84,"Velocity":38,"Duration":122324,"SoundDuration":122324,"Delta":238019413},{"NoteNumber":81,"Velocity":38,"Duration":122323,"SoundDuration":122323,"Delta":238141737},{"NoteNumber":84,"Velocity":43,"Duration":122323,"SoundDuration":122323,"Delta":238264061},{"NoteNumber":75,"Velocity":34,"Duration":183485,"SoundDuration":183485,"Delta":238264061},{"NoteNumber":89,"Velocity":38,"Duration":122323,"SoundDuration":122323,"Delta":238386385},{"NoteNumber":84,"Velocity":38,"Duration":112903,"SoundDuration":112903,"Delta":238508709},{"NoteNumber":81,"Velocity":43,"Duration":122323,"SoundDuration":122323,"Delta":238637741},{"NoteNumber":77,"Velocity":42,"Duration":366972,"SoundDuration":366972,"Delta":238637741},{"NoteNumber":84,"Velocity":37,"Duration":122324,"SoundDuration":122324,"Delta":238760065},{"NoteNumber":81,"Velocity":36,"Duration":122323,"SoundDuration":122323,"Delta":238882389},{"NoteNumber":84,"Velocity":42,"Duration":122323,"SoundDuration":122323,"Delta":239004713},{"NoteNumber":75,"Velocity":33,"Duration":183485,"SoundDuration":183485,"Delta":239004713},{"NoteNumber":89,"Velocity":36,"Duration":122323,"SoundDuration":122323,"Delta":239127037},{"NoteNumber":84,"Velocity":36,"Duration":145985,"SoundDuration":145985,"Delta":239249361},{"NoteNumber":82,"Velocity":41,"Duration":123839,"SoundDuration":123839,"Delta":239395347},{"NoteNumber":77,"Velocity":40,"Duration":371517,"SoundDuration":371517,"Delta":239395347},{"NoteNumber":86,"Velocity":36,"Duration":123839,"SoundDuration":123839,"Delta":239519186},{"NoteNumber":82,"Velocity":36,"Duration":123839,"SoundDuration":123839,"Delta":239643025},{"NoteNumber":86,"Velocity":40,"Duration":123838,"SoundDuration":123838,"Delta":239766864},{"NoteNumber":74,"Velocity":32,"Duration":185758,"SoundDuration":185758,"Delta":239766864},{"NoteNumber":89,"Velocity":36,"Duration":123839,"SoundDuration":123839,"Delta":239890703},{"NoteNumber":86,"Velocity":35,"Duration":117056,"SoundDuration":117056,"Delta":240014542},{"NoteNumber":80,"Velocity":39,"Duration":124610,"SoundDuration":124610,"Delta":240148321},{"NoteNumber":76,"Velocity":39,"Duration":373831,"SoundDuration":373831,"Delta":240148321},{"NoteNumber":83,"Velocity":34,"Duration":124610,"SoundDuration":124610,"Delta":240272932},{"NoteNumber":80,"Velocity":34,"Duration":124610,"SoundDuration":124610,"Delta":240397542},{"NoteNumber":83,"Velocity":39,"Duration":124610,"SoundDuration":124610,"Delta":240522153},{"NoteNumber":74,"Velocity":31,"Duration":186915,"SoundDuration":186915,"Delta":240522153},{"NoteNumber":88,"Velocity":33,"Duration":124610,"SoundDuration":124610,"Delta":240646764},{"NoteNumber":83,"Velocity":33,"Duration":145985,"SoundDuration":145985,"Delta":240771374},{"NoteNumber":81,"Velocity":38,"Duration":126182,"SoundDuration":126182,"Delta":240917360},{"NoteNumber":73,"Velocity":37,"Duration":378548,"SoundDuration":378548,"Delta":240917360},{"NoteNumber":85,"Velocity":33,"Duration":126182,"SoundDuration":126182,"Delta":241043543},{"NoteNumber":81,"Velocity":33,"Duration":126182,"SoundDuration":126182,"Delta":241169726},{"NoteNumber":85,"Velocity":37,"Duration":126182,"SoundDuration":126182,"Delta":241295909},{"NoteNumber":76,"Velocity":29,"Duration":189274,"SoundDuration":189274,"Delta":241295909},{"NoteNumber":88,"Velocity":33,"Duration":126182,"SoundDuration":126182,"Delta":241422092},{"NoteNumber":85,"Velocity":33,"Duration":120274,"SoundDuration":120274,"Delta":241548275},{"NoteNumber":74,"Velocity":36,"Duration":126582,"SoundDuration":126582,"Delta":241685732},{"NoteNumber":66,"Velocity":36,"Duration":379747,"SoundDuration":379747,"Delta":241685732},{"NoteNumber":81,"Velocity":31,"Duration":126582,"SoundDuration":126582,"Delta":241812314},{"NoteNumber":74,"Velocity":31,"Duration":118670,"SoundDuration":118670,"Delta":241938896},{"NoteNumber":81,"Velocity":36,"Duration":126582,"SoundDuration":126582,"Delta":242065479},{"NoteNumber":74,"Velocity":28,"Duration":189873,"SoundDuration":189873,"Delta":242065479},{"NoteNumber":69,"Velocity":25,"Duration":189873,"SoundDuration":189873,"Delta":242065479},{"NoteNumber":86,"Velocity":31,"Duration":126582,"SoundDuration":126582,"Delta":242192061},{"NoteNumber":81,"Velocity":30,"Duration":145985,"SoundDuration":145985,"Delta":242318643},{"NoteNumber":76,"Velocity":35,"Duration":126582,"SoundDuration":126582,"Delta":242464629},{"NoteNumber":64,"Velocity":34,"Duration":379747,"SoundDuration":379747,"Delta":242464629},{"NoteNumber":81,"Velocity":31,"Duration":126582,"SoundDuration":126582,"Delta":242591211},{"NoteNumber":76,"Velocity":30,"Duration":126582,"SoundDuration":126582,"Delta":242717793},{"NoteNumber":81,"Velocity":34,"Duration":126582,"SoundDuration":126582,"Delta":242844376},{"NoteNumber":69,"Velocity":25,"Duration":189873,"SoundDuration":189873,"Delta":242844376},{"NoteNumber":73,"Velocity":27,"Duration":189873,"SoundDuration":189873,"Delta":242844376},{"NoteNumber":85,"Velocity":30,"Duration":126582,"SoundDuration":126582,"Delta":242970958},{"NoteNumber":81,"Velocity":30,"Duration":117844,"SoundDuration":117844,"Delta":243097540},{"NoteNumber":76,"Velocity":33,"Duration":128452,"SoundDuration":128452,"Delta":243232220},{"NoteNumber":64,"Velocity":33,"Duration":385356,"SoundDuration":385356,"Delta":243232220},{"NoteNumber":83,"Velocity":28,"Duration":128451,"SoundDuration":128451,"Delta":243360672},{"NoteNumber":80,"Velocity":28,"Duration":120423,"SoundDuration":120423,"Delta":243489124},{"NoteNumber":76,"Velocity":33,"Duration":128452,"SoundDuration":128452,"Delta":243617576},{"NoteNumber":68,"Velocity":22,"Duration":192678,"SoundDuration":192678,"Delta":243617576},{"NoteNumber":71,"Velocity":26,"Duration":192678,"SoundDuration":192678,"Delta":243617576},{"NoteNumber":74,"Velocity":28,"Duration":128451,"SoundDuration":128451,"Delta":243746028},{"NoteNumber":71,"Velocity":28,"Duration":145985,"SoundDuration":145985,"Delta":243874480},{"NoteNumber":67,"Velocity":87,"Duration":108518,"SoundDuration":108518,"Delta":244020466},{"NoteNumber":55,"Velocity":74,"Duration":108518,"SoundDuration":108518,"Delta":244020466},{"NoteNumber":69,"Velocity":55,"Duration":108518,"SoundDuration":108518,"Delta":244128984},{"NoteNumber":57,"Velocity":42,"Duration":108518,"SoundDuration":108518,"Delta":244128984},{"NoteNumber":67,"Velocity":55,"Duration":108518,"SoundDuration":108518,"Delta":244237503},{"NoteNumber":55,"Velocity":42,"Duration":108518,"SoundDuration":108518,"Delta":244237503},{"NoteNumber":64,"Velocity":61,"Duration":108518,"SoundDuration":108518,"Delta":244346022},{"NoteNumber":52,"Velocity":48,"Duration":108518,"SoundDuration":108518,"Delta":244346022},{"NoteNumber":61,"Velocity":55,"Duration":108518,"SoundDuration":108518,"Delta":244454540},{"NoteNumber":49,"Velocity":41,"Duration":108518,"SoundDuration":108518,"Delta":244454540},{"NoteNumber":57,"Velocity":55,"Duration":113765,"SoundDuration":113765,"Delta":244563059},{"NoteNumber":45,"Velocity":41,"Duration":113765,"SoundDuration":113765,"Delta":244563059},{"NoteNumber":55,"Velocity":75,"Duration":108225,"SoundDuration":108225,"Delta":244676825},{"NoteNumber":43,"Velocity":60,"Duration":108225,"SoundDuration":108225,"Delta":244676825},{"NoteNumber":57,"Velocity":48,"Duration":108225,"SoundDuration":108225,"Delta":244785050},{"NoteNumber":45,"Velocity":36,"Duration":108225,"SoundDuration":108225,"Delta":244785050},{"NoteNumber":55,"Velocity":48,"Duration":108225,"SoundDuration":108225,"Delta":244893275},{"NoteNumber":43,"Velocity":36,"Duration":108225,"SoundDuration":108225,"Delta":244893275},{"NoteNumber":57,"Velocity":54,"Duration":106269,"SoundDuration":106269,"Delta":245001500},{"NoteNumber":45,"Velocity":44,"Duration":106269,"SoundDuration":106269,"Delta":245001500},{"NoteNumber":55,"Velocity":50,"Duration":106269,"SoundDuration":106269,"Delta":245107770},{"NoteNumber":43,"Velocity":37,"Duration":106269,"SoundDuration":106269,"Delta":245107770},{"NoteNumber":57,"Velocity":50,"Duration":120482,"SoundDuration":120482,"Delta":245214040},{"NoteNumber":45,"Velocity":37,"Duration":120482,"SoundDuration":120482,"Delta":245214040},{"NoteNumber":65,"Velocity":84,"Duration":108518,"SoundDuration":108518,"Delta":245334522},{"NoteNumber":53,"Velocity":73,"Duration":108518,"SoundDuration":108518,"Delta":245334522},{"NoteNumber":69,"Velocity":55,"Duration":108518,"SoundDuration":108518,"Delta":245443040},{"NoteNumber":57,"Velocity":42,"Duration":108518,"SoundDuration":108518,"Delta":245443040},{"NoteNumber":65,"Velocity":55,"Duration":108518,"SoundDuration":108518,"Delta":245551559},{"NoteNumber":53,"Velocity":42,"Duration":108518,"SoundDuration":108518,"Delta":245551559},{"NoteNumber":60,"Velocity":61,"Duration":108518,"SoundDuration":108518,"Delta":245660078},{"NoteNumber":48,"Velocity":48,"Duration":108518,"SoundDuration":108518,"Delta":245660078},{"NoteNumber":57,"Velocity":55,"Duration":108518,"SoundDuration":108518,"Delta":245768596},{"NoteNumber":45,"Velocity":41,"Duration":108518,"SoundDuration":108518,"Delta":245768596},{"NoteNumber":53,"Velocity":55,"Duration":113765,"SoundDuration":113765,"Delta":245877115},{"NoteNumber":41,"Velocity":41,"Duration":113765,"SoundDuration":113765,"Delta":245877115},{"NoteNumber":57,"Velocity":77,"Duration":108225,"SoundDuration":108225,"Delta":245990881},{"NoteNumber":45,"Velocity":62,"Duration":108225,"SoundDuration":108225,"Delta":245990881},{"NoteNumber":53,"Velocity":48,"Duration":108225,"SoundDuration":108225,"Delta":246099106},{"NoteNumber":41,"Velocity":36,"Duration":108225,"SoundDuration":108225,"Delta":246099106},{"NoteNumber":57,"Velocity":48,"Duration":108225,"SoundDuration":108225,"Delta":246207331},{"NoteNumber":45,"Velocity":36,"Duration":108225,"SoundDuration":108225,"Delta":246207331},{"NoteNumber":53,"Velocity":54,"Duration":106837,"SoundDuration":106837,"Delta":246315556},{"NoteNumber":41,"Velocity":44,"Duration":106837,"SoundDuration":106837,"Delta":246315556},{"NoteNumber":57,"Velocity":50,"Duration":106837,"SoundDuration":106837,"Delta":246422393},{"NoteNumber":45,"Velocity":37,"Duration":106837,"SoundDuration":106837,"Delta":246422393},{"NoteNumber":53,"Velocity":50,"Duration":132013,"SoundDuration":132013,"Delta":246529231},{"NoteNumber":41,"Velocity":37,"Duration":132013,"SoundDuration":132013,"Delta":246529231},{"NoteNumber":67,"Velocity":88,"Duration":108518,"SoundDuration":108518,"Delta":246661244},{"NoteNumber":55,"Velocity":73,"Duration":108518,"SoundDuration":108518,"Delta":246661244},{"NoteNumber":69,"Velocity":55,"Duration":108518,"SoundDuration":108518,"Delta":246769763},{"NoteNumber":57,"Velocity":42,"Duration":108518,"SoundDuration":108518,"Delta":246769763},{"NoteNumber":67,"Velocity":55,"Duration":108518,"SoundDuration":108518,"Delta":246878282},{"NoteNumber":55,"Velocity":42,"Duration":108518,"SoundDuration":108518,"Delta":246878282},{"NoteNumber":64,"Velocity":61,"Duration":108518,"SoundDuration":108518,"Delta":246986800},{"NoteNumber":52,"Velocity":48,"Duration":108518,"SoundDuration":108518,"Delta":246986800},{"NoteNumber":61,"Velocity":55,"Duration":108518,"SoundDuration":108518,"Delta":247095319},{"NoteNumber":49,"Velocity":41,"Duration":108518,"SoundDuration":108518,"Delta":247095319},{"NoteNumber":57,"Velocity":55,"Duration":113765,"SoundDuration":113765,"Delta":247203838},{"NoteNumber":45,"Velocity":41,"Duration":113765,"SoundDuration":113765,"Delta":247203838},{"NoteNumber":55,"Velocity":75,"Duration":108225,"SoundDuration":108225,"Delta":247317603},{"NoteNumber":43,"Velocity":60,"Duration":108225,"SoundDuration":108225,"Delta":247317603},{"NoteNumber":57,"Velocity":48,"Duration":108225,"SoundDuration":108225,"Delta":247425828},{"NoteNumber":45,"Velocity":36,"Duration":108225,"SoundDuration":108225,"Delta":247425828},{"NoteNumber":55,"Velocity":48,"Duration":108225,"SoundDuration":108225,"Delta":247534053},{"NoteNumber":43,"Velocity":36,"Duration":108225,"SoundDuration":108225,"Delta":247534053},{"NoteNumber":57,"Velocity":54,"Duration":106837,"SoundDuration":106837,"Delta":247642278},{"NoteNumber":45,"Velocity":44,"Duration":106837,"SoundDuration":106837,"Delta":247642278},{"NoteNumber":55,"Velocity":50,"Duration":106837,"SoundDuration":106837,"Delta":247749116},{"NoteNumber":43,"Velocity":37,"Duration":106837,"SoundDuration":106837,"Delta":247749116},{"NoteNumber":57,"Velocity":50,"Duration":122324,"SoundDuration":122324,"Delta":247855954},{"NoteNumber":45,"Velocity":37,"Duration":122324,"SoundDuration":122324,"Delta":247855954},{"NoteNumber":65,"Velocity":87,"Duration":108518,"SoundDuration":108518,"Delta":247978278},{"NoteNumber":53,"Velocity":74,"Duration":108518,"SoundDuration":108518,"Delta":247978278},{"NoteNumber":69,"Velocity":55,"Duration":108518,"SoundDuration":108518,"Delta":248086796},{"NoteNumber":57,"Velocity":42,"Duration":108518,"SoundDuration":108518,"Delta":248086796},{"NoteNumber":65,"Velocity":55,"Duration":108518,"SoundDuration":108518,"Delta":248195315},{"NoteNumber":53,"Velocity":42,"Duration":108518,"SoundDuration":108518,"Delta":248195315},{"NoteNumber":60,"Velocity":61,"Duration":108518,"SoundDuration":108518,"Delta":248303834},{"NoteNumber":48,"Velocity":48,"Duration":108518,"SoundDuration":108518,"Delta":248303834},{"NoteNumber":57,"Velocity":55,"Duration":108518,"SoundDuration":108518,"Delta":248412352},{"NoteNumber":45,"Velocity":41,"Duration":108518,"SoundDuration":108518,"Delta":248412352},{"NoteNumber":53,"Velocity":55,"Duration":113765,"SoundDuration":113765,"Delta":248520871},{"NoteNumber":41,"Velocity":41,"Duration":113765,"SoundDuration":113765,"Delta":248520871},{"NoteNumber":57,"Velocity":77,"Duration":108225,"SoundDuration":108225,"Delta":248634637},{"NoteNumber":45,"Velocity":62,"Duration":108225,"SoundDuration":108225,"Delta":248634637},{"NoteNumber":53,"Velocity":48,"Duration":108224,"SoundDuration":108224,"Delta":248742862},{"NoteNumber":41,"Velocity":36,"Duration":108224,"SoundDuration":108224,"Delta":248742862},{"NoteNumber":57,"Velocity":48,"Duration":106552,"SoundDuration":106552,"Delta":248851087},{"NoteNumber":45,"Velocity":36,"Duration":106552,"SoundDuration":106552,"Delta":248851087},{"NoteNumber":53,"Velocity":54,"Duration":106553,"SoundDuration":106553,"Delta":248957640},{"NoteNumber":41,"Velocity":44,"Duration":106553,"SoundDuration":106553,"Delta":248957640},{"NoteNumber":57,"Velocity":50,"Duration":106552,"SoundDuration":106552,"Delta":249064193},{"NoteNumber":45,"Velocity":37,"Duration":106552,"SoundDuration":106552,"Delta":249064193},{"NoteNumber":53,"Velocity":50,"Duration":114090,"SoundDuration":114090,"Delta":249170746},{"NoteNumber":41,"Velocity":37,"Duration":114090,"SoundDuration":114090,"Delta":249170746},{"NoteNumber":52,"Velocity":37,"Duration":117994,"SoundDuration":117994,"Delta":249284836},{"NoteNumber":40,"Velocity":35,"Duration":176990,"SoundDuration":176990,"Delta":249284836},{"NoteNumber":54,"Velocity":32,"Duration":117993,"SoundDuration":117993,"Delta":249402830},{"NoteNumber":56,"Velocity":32,"Duration":117994,"SoundDuration":117994,"Delta":249520824},{"NoteNumber":73,"Velocity":44,"Duration":274724,"SoundDuration":274724,"Delta":249638818},{"NoteNumber":76,"Velocity":44,"Duration":274724,"SoundDuration":274724,"Delta":249638818},{"NoteNumber":57,"Velocity":37,"Duration":122099,"SoundDuration":122099,"Delta":249638818},{"NoteNumber":59,"Velocity":33,"Duration":122100,"SoundDuration":122100,"Delta":249760918},{"NoteNumber":61,"Velocity":33,"Duration":132357,"SoundDuration":132357,"Delta":249883018},{"NoteNumber":73,"Velocity":39,"Duration":101832,"SoundDuration":101832,"Delta":249913543},{"NoteNumber":76,"Velocity":39,"Duration":101832,"SoundDuration":101832,"Delta":249913543},{"NoteNumber":71,"Velocity":44,"Duration":178571,"SoundDuration":178571,"Delta":250015376},{"NoteNumber":74,"Velocity":44,"Duration":178571,"SoundDuration":178571,"Delta":250015376},{"NoteNumber":62,"Velocity":44,"Duration":119047,"SoundDuration":119047,"Delta":250015376},{"NoteNumber":64,"Velocity":44,"Duration":119047,"SoundDuration":119047,"Delta":250134423},{"NoteNumber":66,"Velocity":43,"Duration":119047,"SoundDuration":119047,"Delta":250253471},{"NoteNumber":68,"Velocity":45,"Duration":119047,"SoundDuration":119047,"Delta":250372519},{"NoteNumber":59,"Velocity":35,"Duration":178571,"SoundDuration":178571,"Delta":250372519},{"NoteNumber":52,"Velocity":35,"Duration":178571,"SoundDuration":178571,"Delta":250372519},{"NoteNumber":69,"Velocity":48,"Duration":119047,"SoundDuration":119047,"Delta":250491566},{"NoteNumber":71,"Velocity":49,"Duration":127705,"SoundDuration":127705,"Delta":250610614},{"NoteNumber":73,"Velocity":45,"Duration":117954,"SoundDuration":117954,"Delta":250738319},{"NoteNumber":45,"Velocity":33,"Duration":176778,"SoundDuration":176778,"Delta":250738319},{"NoteNumber":49,"Velocity":33,"Duration":176778,"SoundDuration":176778,"Delta":250738319},{"NoteNumber":57,"Velocity":40,"Duration":176765,"SoundDuration":176765,"Delta":250742744},{"NoteNumber":74,"Velocity":48,"Duration":117595,"SoundDuration":117595,"Delta":250856274},{"NoteNumber":76,"Velocity":48,"Duration":114352,"SoundDuration":114352,"Delta":250973869},{"NoteNumber":78,"Velocity":50,"Duration":116920,"SoundDuration":116920,"Delta":251091146},{"NoteNumber":76,"Velocity":44,"Duration":262557,"SoundDuration":262557,"Delta":251091146},{"NoteNumber":73,"Velocity":44,"Duration":262557,"SoundDuration":262557,"Delta":251091146},{"NoteNumber":80,"Velocity":52,"Duration":116567,"SoundDuration":116567,"Delta":251208066},{"NoteNumber":81,"Velocity":52,"Duration":121949,"SoundDuration":121949,"Delta":251324633},{"NoteNumber":73,"Velocity":39,"Duration":92879,"SoundDuration":92879,"Delta":251353703},{"NoteNumber":76,"Velocity":39,"Duration":92879,"SoundDuration":92879,"Delta":251353703},{"NoteNumber":83,"Velocity":54,"Duration":115736,"SoundDuration":115736,"Delta":251446582},{"NoteNumber":71,"Velocity":44,"Duration":173831,"SoundDuration":173831,"Delta":251446582},{"NoteNumber":74,"Velocity":44,"Duration":173831,"SoundDuration":173831,"Delta":251446582},{"NoteNumber":85,"Velocity":56,"Duration":116066,"SoundDuration":116066,"Delta":251562319},{"NoteNumber":86,"Velocity":56,"Duration":115715,"SoundDuration":115715,"Delta":251678385},{"NoteNumber":88,"Velocity":58,"Duration":115831,"SoundDuration":115831,"Delta":251794101},{"NoteNumber":52,"Velocity":40,"Duration":174070,"SoundDuration":174070,"Delta":251794101},{"NoteNumber":59,"Velocity":40,"Duration":174070,"SoundDuration":174070,"Delta":251794101},{"NoteNumber":90,"Velocity":60,"Duration":116720,"SoundDuration":116720,"Delta":251909932},{"NoteNumber":92,"Velocity":60,"Duration":133737,"SoundDuration":133737,"Delta":252026653},{"NoteNumber":93,"Velocity":62,"Duration":117878,"SoundDuration":117878,"Delta":252160390},{"NoteNumber":45,"Velocity":38,"Duration":174655,"SoundDuration":174655,"Delta":252160390},{"NoteNumber":49,"Velocity":38,"Duration":174655,"SoundDuration":174655,"Delta":252160390},{"NoteNumber":57,"Velocity":45,"Duration":174655,"SoundDuration":174655,"Delta":252160390},{"NoteNumber":92,"Velocity":62,"Duration":113723,"SoundDuration":113723,"Delta":252278268},{"NoteNumber":90,"Velocity":60,"Duration":114398,"SoundDuration":114398,"Delta":252391992},{"NoteNumber":88,"Velocity":60,"Duration":115002,"SoundDuration":115002,"Delta":252506390},{"NoteNumber":73,"Velocity":44,"Duration":259740,"SoundDuration":259740,"Delta":252506390},{"NoteNumber":76,"Velocity":44,"Duration":259740,"SoundDuration":259740,"Delta":252506390},{"NoteNumber":86,"Velocity":58,"Duration":115697,"SoundDuration":115697,"Delta":252621393},{"NoteNumber":85,"Velocity":56,"Duration":122208,"SoundDuration":122208,"Delta":252737091},{"NoteNumber":73,"Velocity":39,"Duration":93167,"SoundDuration":93167,"Delta":252766131},{"NoteNumber":76,"Velocity":39,"Duration":93167,"SoundDuration":93167,"Delta":252766131},{"NoteNumber":83,"Velocity":55,"Duration":113303,"SoundDuration":113303,"Delta":252859299},{"NoteNumber":71,"Velocity":44,"Duration":169964,"SoundDuration":169964,"Delta":252859299},{"NoteNumber":74,"Velocity":44,"Duration":169964,"SoundDuration":169964,"Delta":252859299},{"NoteNumber":81,"Velocity":54,"Duration":113479,"SoundDuration":113479,"Delta":252972602},{"NoteNumber":80,"Velocity":52,"Duration":113994,"SoundDuration":113994,"Delta":253086081},{"NoteNumber":78,"Velocity":51,"Duration":114480,"SoundDuration":114480,"Delta":253200076},{"NoteNumber":52,"Velocity":40,"Duration":171949,"SoundDuration":171949,"Delta":253200076},{"NoteNumber":59,"Velocity":40,"Duration":171949,"SoundDuration":171949,"Delta":253200076},{"NoteNumber":76,"Velocity":50,"Duration":115031,"SoundDuration":115031,"Delta":253314556},{"NoteNumber":74,"Velocity":48,"Duration":114992,"SoundDuration":114992,"Delta":253429588},{"NoteNumber":73,"Velocity":46,"Duration":114321,"SoundDuration":114321,"Delta":253544581},{"NoteNumber":49,"Velocity":38,"Duration":171776,"SoundDuration":171776,"Delta":253544581},{"NoteNumber":57,"Velocity":45,"Duration":171776,"SoundDuration":171776,"Delta":253544581},{"NoteNumber":45,"Velocity":38,"Duration":171776,"SoundDuration":171776,"Delta":253544581},{"NoteNumber":71,"Velocity":45,"Duration":115120,"SoundDuration":115120,"Delta":253658902},{"NoteNumber":69,"Velocity":44,"Duration":115923,"SoundDuration":115923,"Delta":253774023},{"NoteNumber":68,"Velocity":43,"Duration":116774,"SoundDuration":116774,"Delta":253889947},{"NoteNumber":73,"Velocity":44,"Duration":263693,"SoundDuration":263693,"Delta":253889947},{"NoteNumber":76,"Velocity":44,"Duration":263693,"SoundDuration":263693,"Delta":253889947},{"NoteNumber":66,"Velocity":41,"Duration":117587,"SoundDuration":117587,"Delta":254006721},{"NoteNumber":64,"Velocity":40,"Duration":121639,"SoundDuration":121639,"Delta":254124308},{"NoteNumber":73,"Velocity":39,"Duration":92307,"SoundDuration":92307,"Delta":254153640},{"NoteNumber":76,"Velocity":39,"Duration":92307,"SoundDuration":92307,"Delta":254153640},{"NoteNumber":62,"Velocity":40,"Duration":116232,"SoundDuration":116232,"Delta":254245948},{"NoteNumber":71,"Velocity":44,"Duration":174802,"SoundDuration":174802,"Delta":254245948},{"NoteNumber":74,"Velocity":44,"Duration":174802,"SoundDuration":174802,"Delta":254245948},{"NoteNumber":66,"Velocity":39,"Duration":117488,"SoundDuration":117488,"Delta":254362180},{"NoteNumber":64,"Velocity":37,"Duration":118770,"SoundDuration":118770,"Delta":254479669},{"NoteNumber":62,"Velocity":35,"Duration":120040,"SoundDuration":120040,"Delta":254598440},{"NoteNumber":52,"Velocity":35,"Duration":180557,"SoundDuration":180557,"Delta":254598440},{"NoteNumber":61,"Velocity":33,"Duration":120888,"SoundDuration":120888,"Delta":254718480},{"NoteNumber":59,"Velocity":31,"Duration":140351,"SoundDuration":140351,"Delta":254839369},{"NoteNumber":67,"Velocity":87,"Duration":108518,"SoundDuration":108518,"Delta":254979720},{"NoteNumber":55,"Velocity":74,"Duration":108518,"SoundDuration":108518,"Delta":254979720},{"NoteNumber":69,"Velocity":55,"Duration":108518,"SoundDuration":108518,"Delta":255088238},{"NoteNumber":57,"Velocity":42,"Duration":108518,"SoundDuration":108518,"Delta":255088238},{"NoteNumber":67,"Velocity":55,"Duration":108518,"SoundDuration":108518,"Delta":255196757},{"NoteNumber":55,"Velocity":42,"Duration":108518,"SoundDuration":108518,"Delta":255196757},{"NoteNumber":64,"Velocity":61,"Duration":108518,"SoundDuration":108518,"Delta":255305276},{"NoteNumber":52,"Velocity":48,"Duration":108518,"SoundDuration":108518,"Delta":255305276},{"NoteNumber":61,"Velocity":55,"Duration":108518,"SoundDuration":108518,"Delta":255413794},{"NoteNumber":49,"Velocity":41,"Duration":108518,"SoundDuration":108518,"Delta":255413794},{"NoteNumber":57,"Velocity":55,"Duration":113765,"SoundDuration":113765,"Delta":255522313},{"NoteNumber":45,"Velocity":41,"Duration":113765,"SoundDuration":113765,"Delta":255522313},{"NoteNumber":55,"Velocity":75,"Duration":108225,"SoundDuration":108225,"Delta":255636079},{"NoteNumber":43,"Velocity":60,"Duration":108225,"SoundDuration":108225,"Delta":255636079},{"NoteNumber":57,"Velocity":48,"Duration":108225,"SoundDuration":108225,"Delta":255744304},{"NoteNumber":45,"Velocity":36,"Duration":108225,"SoundDuration":108225,"Delta":255744304},{"NoteNumber":55,"Velocity":48,"Duration":108225,"SoundDuration":108225,"Delta":255852529},{"NoteNumber":43,"Velocity":36,"Duration":108225,"SoundDuration":108225,"Delta":255852529},{"NoteNumber":57,"Velocity":54,"Duration":108224,"SoundDuration":108224,"Delta":255960754},{"NoteNumber":45,"Velocity":44,"Duration":108224,"SoundDuration":108224,"Delta":255960754},{"NoteNumber":55,"Velocity":50,"Duration":108225,"SoundDuration":108225,"Delta":256068979},{"NoteNumber":43,"Velocity":37,"Duration":108225,"SoundDuration":108225,"Delta":256068979},{"NoteNumber":57,"Velocity":50,"Duration":120846,"SoundDuration":120846,"Delta":256177204},{"NoteNumber":45,"Velocity":37,"Duration":120846,"SoundDuration":120846,"Delta":256177204},{"NoteNumber":65,"Velocity":84,"Duration":108518,"SoundDuration":108518,"Delta":256298050},{"NoteNumber":53,"Velocity":73,"Duration":108518,"SoundDuration":108518,"Delta":256298050},{"NoteNumber":69,"Velocity":55,"Duration":108518,"SoundDuration":108518,"Delta":256406568},{"NoteNumber":57,"Velocity":42,"Duration":108518,"SoundDuration":108518,"Delta":256406568},{"NoteNumber":65,"Velocity":55,"Duration":108518,"SoundDuration":108518,"Delta":256515087},{"NoteNumber":53,"Velocity":42,"Duration":108518,"SoundDuration":108518,"Delta":256515087},{"NoteNumber":60,"Velocity":61,"Duration":108518,"SoundDuration":108518,"Delta":256623606},{"NoteNumber":48,"Velocity":48,"Duration":108518,"SoundDuration":108518,"Delta":256623606},{"NoteNumber":57,"Velocity":55,"Duration":108518,"SoundDuration":108518,"Delta":256732124},{"NoteNumber":45,"Velocity":41,"Duration":108518,"SoundDuration":108518,"Delta":256732124},{"NoteNumber":53,"Velocity":55,"Duration":113765,"SoundDuration":113765,"Delta":256840643},{"NoteNumber":41,"Velocity":41,"Duration":113765,"SoundDuration":113765,"Delta":256840643},{"NoteNumber":57,"Velocity":77,"Duration":108225,"SoundDuration":108225,"Delta":256954409},{"NoteNumber":45,"Velocity":62,"Duration":108225,"SoundDuration":108225,"Delta":256954409},{"NoteNumber":53,"Velocity":48,"Duration":108225,"SoundDuration":108225,"Delta":257062634},{"NoteNumber":41,"Velocity":36,"Duration":108225,"SoundDuration":108225,"Delta":257062634},{"NoteNumber":57,"Velocity":48,"Duration":108225,"SoundDuration":108225,"Delta":257170859},{"NoteNumber":45,"Velocity":36,"Duration":108225,"SoundDuration":108225,"Delta":257170859},{"NoteNumber":53,"Velocity":54,"Duration":108225,"SoundDuration":108225,"Delta":257279084},{"NoteNumber":41,"Velocity":44,"Duration":108225,"SoundDuration":108225,"Delta":257279084},{"NoteNumber":57,"Velocity":50,"Duration":108224,"SoundDuration":108224,"Delta":257387309},{"NoteNumber":45,"Velocity":37,"Duration":108224,"SoundDuration":108224,"Delta":257387309},{"NoteNumber":53,"Velocity":50,"Duration":132013,"SoundDuration":132013,"Delta":257495534},{"NoteNumber":41,"Velocity":37,"Duration":132013,"SoundDuration":132013,"Delta":257495534},{"NoteNumber":65,"Velocity":84,"Duration":108518,"SoundDuration":108518,"Delta":257627547},{"NoteNumber":53,"Velocity":73,"Duration":108518,"SoundDuration":108518,"Delta":257627547},{"NoteNumber":67,"Velocity":55,"Duration":108518,"SoundDuration":108518,"Delta":257736066},{"NoteNumber":55,"Velocity":42,"Duration":108518,"SoundDuration":108518,"Delta":257736066},{"NoteNumber":65,"Velocity":55,"Duration":108518,"SoundDuration":108518,"Delta":257844584},{"NoteNumber":53,"Velocity":42,"Duration":108518,"SoundDuration":108518,"Delta":257844584},{"NoteNumber":62,"Velocity":61,"Duration":108518,"SoundDuration":108518,"Delta":257953103},{"NoteNumber":50,"Velocity":48,"Duration":108518,"SoundDuration":108518,"Delta":257953103},{"NoteNumber":59,"Velocity":55,"Duration":108518,"SoundDuration":108518,"Delta":258061622},{"NoteNumber":47,"Velocity":41,"Duration":108518,"SoundDuration":108518,"Delta":258061622},{"NoteNumber":55,"Velocity":55,"Duration":113765,"SoundDuration":113765,"Delta":258170140},{"NoteNumber":43,"Velocity":41,"Duration":113765,"SoundDuration":113765,"Delta":258170140},{"NoteNumber":53,"Velocity":77,"Duration":108225,"SoundDuration":108225,"Delta":258283906},{"NoteNumber":41,"Velocity":62,"Duration":108225,"SoundDuration":108225,"Delta":258283906},{"NoteNumber":55,"Velocity":48,"Duration":108225,"SoundDuration":108225,"Delta":258392131},{"NoteNumber":43,"Velocity":36,"Duration":108225,"SoundDuration":108225,"Delta":258392131},{"NoteNumber":53,"Velocity":48,"Duration":108225,"SoundDuration":108225,"Delta":258500356},{"NoteNumber":41,"Velocity":36,"Duration":108225,"SoundDuration":108225,"Delta":258500356},{"NoteNumber":55,"Velocity":54,"Duration":108225,"SoundDuration":108225,"Delta":258608581},{"NoteNumber":43,"Velocity":44,"Duration":108225,"SoundDuration":108225,"Delta":258608581},{"NoteNumber":53,"Velocity":50,"Duration":108224,"SoundDuration":108224,"Delta":258716806},{"NoteNumber":41,"Velocity":37,"Duration":108224,"SoundDuration":108224,"Delta":258716806},{"NoteNumber":55,"Velocity":50,"Duration":132013,"SoundDuration":132013,"Delta":258825031},{"NoteNumber":43,"Velocity":37,"Duration":132013,"SoundDuration":132013,"Delta":258825031},{"NoteNumber":63,"Velocity":84,"Duration":108518,"SoundDuration":108518,"Delta":258957044},{"NoteNumber":51,"Velocity":73,"Duration":108518,"SoundDuration":108518,"Delta":258957044},{"NoteNumber":67,"Velocity":55,"Duration":108518,"SoundDuration":108518,"Delta":259065563},{"NoteNumber":55,"Velocity":42,"Duration":108518,"SoundDuration":108518,"Delta":259065563},{"NoteNumber":63,"Velocity":55,"Duration":108518,"SoundDuration":108518,"Delta":259174082},{"NoteNumber":51,"Velocity":42,"Duration":108518,"SoundDuration":108518,"Delta":259174082},{"NoteNumber":58,"Velocity":61,"Duration":108518,"SoundDuration":108518,"Delta":259282600},{"NoteNumber":46,"Velocity":48,"Duration":108518,"SoundDuration":108518,"Delta":259282600},{"NoteNumber":55,"Velocity":55,"Duration":108518,"SoundDuration":108518,"Delta":259391119},{"NoteNumber":43,"Velocity":41,"Duration":108518,"SoundDuration":108518,"Delta":259391119},{"NoteNumber":51,"Velocity":55,"Duration":113765,"SoundDuration":113765,"Delta":259499638},{"NoteNumber":39,"Velocity":41,"Duration":113765,"SoundDuration":113765,"Delta":259499638},{"NoteNumber":55,"Velocity":77,"Duration":108225,"SoundDuration":108225,"Delta":259613403},{"NoteNumber":43,"Velocity":62,"Duration":108225,"SoundDuration":108225,"Delta":259613403},{"NoteNumber":51,"Velocity":48,"Duration":108225,"SoundDuration":108225,"Delta":259721628},{"NoteNumber":39,"Velocity":36,"Duration":108225,"SoundDuration":108225,"Delta":259721628},{"NoteNumber":55,"Velocity":48,"Duration":108225,"SoundDuration":108225,"Delta":259829853},{"NoteNumber":43,"Velocity":36,"Duration":108225,"SoundDuration":108225,"Delta":259829853},{"NoteNumber":51,"Velocity":54,"Duration":108225,"SoundDuration":108225,"Delta":259938078},{"NoteNumber":39,"Velocity":44,"Duration":108225,"SoundDuration":108225,"Delta":259938078},{"NoteNumber":55,"Velocity":50,"Duration":108224,"SoundDuration":108224,"Delta":260046303},{"NoteNumber":43,"Velocity":37,"Duration":108224,"SoundDuration":108224,"Delta":260046303},{"NoteNumber":51,"Velocity":50,"Duration":132013,"SoundDuration":132013,"Delta":260154528},{"NoteNumber":39,"Velocity":37,"Duration":132013,"SoundDuration":132013,"Delta":260154528},{"NoteNumber":63,"Velocity":84,"Duration":108518,"SoundDuration":108518,"Delta":260286542},{"NoteNumber":51,"Velocity":73,"Duration":108518,"SoundDuration":108518,"Delta":260286542},{"NoteNumber":65,"Velocity":55,"Duration":108518,"SoundDuration":108518,"Delta":260395060},{"NoteNumber":53,"Velocity":42,"Duration":108518,"SoundDuration":108518,"Delta":260395060},{"NoteNumber":63,"Velocity":55,"Duration":108518,"SoundDuration":108518,"Delta":260503579},{"NoteNumber":51,"Velocity":42,"Duration":108518,"SoundDuration":108518,"Delta":260503579},{"NoteNumber":60,"Velocity":61,"Duration":108518,"SoundDuration":108518,"Delta":260612098},{"NoteNumber":48,"Velocity":48,"Duration":108518,"SoundDuration":108518,"Delta":260612098},{"NoteNumber":57,"Velocity":55,"Duration":108518,"SoundDuration":108518,"Delta":260720616},{"NoteNumber":45,"Velocity":41,"Duration":108518,"SoundDuration":108518,"Delta":260720616},{"NoteNumber":53,"Velocity":55,"Duration":113765,"SoundDuration":113765,"Delta":260829135},{"NoteNumber":41,"Velocity":41,"Duration":113765,"SoundDuration":113765,"Delta":260829135},{"NoteNumber":61,"Velocity":84,"Duration":108518,"SoundDuration":108518,"Delta":260942901},{"NoteNumber":49,"Velocity":73,"Duration":108518,"SoundDuration":108518,"Delta":260942901},{"NoteNumber":65,"Velocity":55,"Duration":108518,"SoundDuration":108518,"Delta":261051419},{"NoteNumber":53,"Velocity":42,"Duration":108518,"SoundDuration":108518,"Delta":261051419},{"NoteNumber":61,"Velocity":55,"Duration":108518,"SoundDuration":108518,"Delta":261159938},{"NoteNumber":49,"Velocity":42,"Duration":108518,"SoundDuration":108518,"Delta":261159938},{"NoteNumber":56,"Velocity":61,"Duration":108518,"SoundDuration":108518,"Delta":261268457},{"NoteNumber":44,"Velocity":48,"Duration":108518,"SoundDuration":108518,"Delta":261268457},{"NoteNumber":53,"Velocity":55,"Duration":108518,"SoundDuration":108518,"Delta":261376975},{"NoteNumber":41,"Velocity":41,"Duration":108518,"SoundDuration":108518,"Delta":261376975},{"NoteNumber":49,"Velocity":55,"Duration":113765,"SoundDuration":113765,"Delta":261485494},{"NoteNumber":37,"Velocity":41,"Duration":113765,"SoundDuration":113765,"Delta":261485494},{"NoteNumber":62,"Velocity":84,"Duration":107123,"SoundDuration":107123,"Delta":261599260},{"NoteNumber":50,"Velocity":73,"Duration":107123,"SoundDuration":107123,"Delta":261599260},{"NoteNumber":64,"Velocity":55,"Duration":107123,"SoundDuration":107123,"Delta":261706383},{"NoteNumber":52,"Velocity":42,"Duration":107123,"SoundDuration":107123,"Delta":261706383},{"NoteNumber":62,"Velocity":55,"Duration":107123,"SoundDuration":107123,"Delta":261813507},{"NoteNumber":50,"Velocity":42,"Duration":107123,"SoundDuration":107123,"Delta":261813507},{"NoteNumber":59,"Velocity":61,"Duration":107123,"SoundDuration":107123,"Delta":261920631},{"NoteNumber":47,"Velocity":48,"Duration":107123,"SoundDuration":107123,"Delta":261920631},{"NoteNumber":56,"Velocity":55,"Duration":107123,"SoundDuration":107123,"Delta":262027754},{"NoteNumber":44,"Velocity":41,"Duration":107123,"SoundDuration":107123,"Delta":262027754},{"NoteNumber":52,"Velocity":55,"Duration":113765,"SoundDuration":113765,"Delta":262134878},{"NoteNumber":40,"Velocity":41,"Duration":113765,"SoundDuration":113765,"Delta":262134878},{"NoteNumber":60,"Velocity":84,"Duration":108518,"SoundDuration":108518,"Delta":262248644},{"NoteNumber":48,"Velocity":73,"Duration":108518,"SoundDuration":108518,"Delta":262248644},{"NoteNumber":64,"Velocity":55,"Duration":108518,"SoundDuration":108518,"Delta":262357162},{"NoteNumber":52,"Velocity":42,"Duration":108518,"SoundDuration":108518,"Delta":262357162},{"NoteNumber":60,"Velocity":55,"Duration":108518,"SoundDuration":108518,"Delta":262465681},{"NoteNumber":48,"Velocity":42,"Duration":108518,"SoundDuration":108518,"Delta":262465681},{"NoteNumber":55,"Velocity":61,"Duration":108518,"SoundDuration":108518,"Delta":262574200},{"NoteNumber":43,"Velocity":48,"Duration":108518,"SoundDuration":108518,"Delta":262574200},{"NoteNumber":52,"Velocity":55,"Duration":108518,"SoundDuration":108518,"Delta":262682718},{"NoteNumber":40,"Velocity":41,"Duration":108518,"SoundDuration":108518,"Delta":262682718},{"NoteNumber":48,"Velocity":55,"Duration":113765,"SoundDuration":113765,"Delta":262791237},{"NoteNumber":36,"Velocity":41,"Duration":113765,"SoundDuration":113765,"Delta":262791237},{"NoteNumber":53,"Velocity":84,"Duration":107123,"SoundDuration":107123,"Delta":262905003},{"NoteNumber":41,"Velocity":73,"Duration":107123,"SoundDuration":107123,"Delta":262905003},{"NoteNumber":57,"Velocity":55,"Duration":107123,"SoundDuration":107123,"Delta":263012126},{"NoteNumber":45,"Velocity":42,"Duration":107123,"SoundDuration":107123,"Delta":263012126},{"NoteNumber":53,"Velocity":55,"Duration":107123,"SoundDuration":107123,"Delta":263119250},{"NoteNumber":41,"Velocity":42,"Duration":107123,"SoundDuration":107123,"Delta":263119250},{"NoteNumber":48,"Velocity":61,"Duration":107123,"SoundDuration":107123,"Delta":263226374},{"NoteNumber":36,"Velocity":48,"Duration":107123,"SoundDuration":107123,"Delta":263226374},{"NoteNumber":45,"Velocity":55,"Duration":107123,"SoundDuration":107123,"Delta":263333497},{"NoteNumber":33,"Velocity":41,"Duration":107123,"SoundDuration":107123,"Delta":263333497},{"NoteNumber":41,"Velocity":55,"Duration":113765,"SoundDuration":113765,"Delta":263440621},{"NoteNumber":29,"Velocity":41,"Duration":113765,"SoundDuration":113765,"Delta":263440621},{"NoteNumber":45,"Velocity":69,"Duration":108225,"SoundDuration":108225,"Delta":263554387},{"NoteNumber":33,"Velocity":55,"Duration":108225,"SoundDuration":108225,"Delta":263554387},{"NoteNumber":41,"Velocity":43,"Duration":108225,"SoundDuration":108225,"Delta":263662612},{"NoteNumber":29,"Velocity":32,"Duration":108225,"SoundDuration":108225,"Delta":263662612},{"NoteNumber":45,"Velocity":43,"Duration":108225,"SoundDuration":108225,"Delta":263770837},{"NoteNumber":33,"Velocity":32,"Duration":108225,"SoundDuration":108225,"Delta":263770837},{"NoteNumber":41,"Velocity":48,"Duration":108225,"SoundDuration":108225,"Delta":263879062},{"NoteNumber":29,"Velocity":39,"Duration":108225,"SoundDuration":108225,"Delta":263879062},{"NoteNumber":45,"Velocity":45,"Duration":108224,"SoundDuration":108224,"Delta":263987287},{"NoteNumber":33,"Velocity":33,"Duration":108224,"SoundDuration":108224,"Delta":263987287},{"NoteNumber":41,"Velocity":45,"Duration":132013,"SoundDuration":132013,"Delta":264095512},{"NoteNumber":29,"Velocity":33,"Duration":132013,"SoundDuration":132013,"Delta":264095512},{"NoteNumber":57,"Velocity":56,"Duration":108991,"SoundDuration":108991,"Delta":264227525},{"NoteNumber":45,"Velocity":45,"Duration":108991,"SoundDuration":108991,"Delta":264227525},{"NoteNumber":53,"Velocity":39,"Duration":108991,"SoundDuration":108991,"Delta":264336517},{"NoteNumber":41,"Velocity":29,"Duration":108991,"SoundDuration":108991,"Delta":264336517},{"NoteNumber":57,"Velocity":39,"Duration":108991,"SoundDuration":108991,"Delta":264445508},{"NoteNumber":45,"Velocity":29,"Duration":108991,"SoundDuration":108991,"Delta":264445508},{"NoteNumber":53,"Velocity":42,"Duration":108991,"SoundDuration":108991,"Delta":264554500},{"NoteNumber":41,"Velocity":34,"Duration":108991,"SoundDuration":108991,"Delta":264554500},{"NoteNumber":57,"Velocity":39,"Duration":108991,"SoundDuration":108991,"Delta":264663492},{"NoteNumber":45,"Velocity":28,"Duration":108991,"SoundDuration":108991,"Delta":264663492},{"NoteNumber":53,"Velocity":38,"Duration":132013,"SoundDuration":132013,"Delta":264772483},{"NoteNumber":41,"Velocity":28,"Duration":132013,"SoundDuration":132013,"Delta":264772483},{"NoteNumber":57,"Velocity":46,"Duration":109971,"SoundDuration":109971,"Delta":264904497},{"NoteNumber":45,"Velocity":38,"Duration":109971,"SoundDuration":109971,"Delta":264904497},{"NoteNumber":53,"Velocity":34,"Duration":111082,"SoundDuration":111082,"Delta":265014468},{"NoteNumber":41,"Velocity":25,"Duration":111082,"SoundDuration":111082,"Delta":265014468},{"NoteNumber":57,"Velocity":33,"Duration":112065,"SoundDuration":112065,"Delta":265125551},{"NoteNumber":45,"Velocity":25,"Duration":112065,"SoundDuration":112065,"Delta":265125551},{"NoteNumber":53,"Velocity":36,"Duration":113092,"SoundDuration":113092,"Delta":265237617},{"NoteNumber":41,"Velocity":30,"Duration":113092,"SoundDuration":113092,"Delta":265237617},{"NoteNumber":57,"Velocity":33,"Duration":114139,"SoundDuration":114139,"Delta":265350710},{"NoteNumber":45,"Velocity":24,"Duration":114139,"SoundDuration":114139,"Delta":265350710},{"NoteNumber":53,"Velocity":32,"Duration":132013,"SoundDuration":132013,"Delta":265464849},{"NoteNumber":41,"Velocity":24,"Duration":132013,"SoundDuration":132013,"Delta":265464849},{"NoteNumber":52,"Velocity":37,"Duration":117994,"SoundDuration":117994,"Delta":265596863},{"NoteNumber":40,"Velocity":35,"Duration":176990,"SoundDuration":176990,"Delta":265596863},{"NoteNumber":54,"Velocity":32,"Duration":117994,"SoundDuration":117994,"Delta":265714857},{"NoteNumber":56,"Velocity":32,"Duration":117993,"SoundDuration":117993,"Delta":265832851},{"NoteNumber":73,"Velocity":44,"Duration":282131,"SoundDuration":282131,"Delta":265950845},{"NoteNumber":76,"Velocity":44,"Duration":282131,"SoundDuration":282131,"Delta":265950845},{"NoteNumber":57,"Velocity":37,"Duration":125391,"SoundDuration":125391,"Delta":265950845},{"NoteNumber":59,"Velocity":33,"Duration":125392,"SoundDuration":125392,"Delta":266076237},{"NoteNumber":61,"Velocity":33,"Duration":133180,"SoundDuration":133180,"Delta":266201629},{"NoteNumber":73,"Velocity":39,"Duration":101832,"SoundDuration":101832,"Delta":266232977},{"NoteNumber":76,"Velocity":39,"Duration":101832,"SoundDuration":101832,"Delta":266232977},{"NoteNumber":71,"Velocity":44,"Duration":179104,"SoundDuration":179104,"Delta":266334810},{"NoteNumber":74,"Velocity":44,"Duration":179104,"SoundDuration":179104,"Delta":266334810},{"NoteNumber":62,"Velocity":44,"Duration":119402,"SoundDuration":119402,"Delta":266334810},{"NoteNumber":64,"Velocity":44,"Duration":119403,"SoundDuration":119403,"Delta":266454213},{"NoteNumber":66,"Velocity":43,"Duration":119402,"SoundDuration":119402,"Delta":266573616},{"NoteNumber":68,"Velocity":45,"Duration":119403,"SoundDuration":119403,"Delta":266693019},{"NoteNumber":52,"Velocity":35,"Duration":179104,"SoundDuration":179104,"Delta":266693019},{"NoteNumber":59,"Velocity":35,"Duration":179104,"SoundDuration":179104,"Delta":266693019},{"NoteNumber":69,"Velocity":48,"Duration":119402,"SoundDuration":119402,"Delta":266812422},{"NoteNumber":71,"Velocity":49,"Duration":129214,"SoundDuration":129214,"Delta":266931825},{"NoteNumber":73,"Velocity":45,"Duration":118965,"SoundDuration":118965,"Delta":267061039},{"NoteNumber":45,"Velocity":33,"Duration":178308,"SoundDuration":178308,"Delta":267061039},{"NoteNumber":49,"Velocity":33,"Duration":178308,"SoundDuration":178308,"Delta":267061039},{"NoteNumber":57,"Velocity":40,"Duration":178282,"SoundDuration":178282,"Delta":267065504},{"NoteNumber":74,"Velocity":48,"Duration":118514,"SoundDuration":118514,"Delta":267180005},{"NoteNumber":76,"Velocity":48,"Duration":115098,"SoundDuration":115098,"Delta":267298520},{"NoteNumber":78,"Velocity":50,"Duration":117526,"SoundDuration":117526,"Delta":267416560},{"NoteNumber":73,"Velocity":44,"Duration":263796,"SoundDuration":263796,"Delta":267416560},{"NoteNumber":76,"Velocity":44,"Duration":263796,"SoundDuration":263796,"Delta":267416560},{"NoteNumber":80,"Velocity":52,"Duration":117085,"SoundDuration":117085,"Delta":267534086},{"NoteNumber":81,"Velocity":52,"Duration":122063,"SoundDuration":122063,"Delta":267651172},{"NoteNumber":73,"Velocity":39,"Duration":92879,"SoundDuration":92879,"Delta":267680356},{"NoteNumber":76,"Velocity":39,"Duration":92879,"SoundDuration":92879,"Delta":267680356},{"NoteNumber":83,"Velocity":54,"Duration":116858,"SoundDuration":116858,"Delta":267773235},{"NoteNumber":71,"Velocity":44,"Duration":175169,"SoundDuration":175169,"Delta":267773235},{"NoteNumber":74,"Velocity":44,"Duration":175169,"SoundDuration":175169,"Delta":267773235},{"NoteNumber":85,"Velocity":56,"Duration":116569,"SoundDuration":116569,"Delta":267890093},{"NoteNumber":86,"Velocity":56,"Duration":116173,"SoundDuration":116173,"Delta":268006663},{"NoteNumber":88,"Velocity":58,"Duration":115942,"SoundDuration":115942,"Delta":268122836},{"NoteNumber":59,"Velocity":40,"Duration":174024,"SoundDuration":174024,"Delta":268122836},{"NoteNumber":52,"Velocity":40,"Duration":174024,"SoundDuration":174024,"Delta":268122836},{"NoteNumber":90,"Velocity":60,"Duration":116222,"SoundDuration":116222,"Delta":268238778},{"NoteNumber":92,"Velocity":60,"Duration":133568,"SoundDuration":133568,"Delta":268355000},{"NoteNumber":93,"Velocity":62,"Duration":117847,"SoundDuration":117847,"Delta":268488569},{"NoteNumber":57,"Velocity":45,"Duration":175499,"SoundDuration":175499,"Delta":268488569},{"NoteNumber":45,"Velocity":38,"Duration":175499,"SoundDuration":175499,"Delta":268488569},{"NoteNumber":49,"Velocity":38,"Duration":175499,"SoundDuration":175499,"Delta":268488569},{"NoteNumber":92,"Velocity":62,"Duration":115131,"SoundDuration":115131,"Delta":268606416},{"NoteNumber":90,"Velocity":60,"Duration":114447,"SoundDuration":114447,"Delta":268721548},{"NoteNumber":88,"Velocity":60,"Duration":115382,"SoundDuration":115382,"Delta":268835995},{"NoteNumber":73,"Velocity":44,"Duration":260660,"SoundDuration":260660,"Delta":268835995},{"NoteNumber":76,"Velocity":44,"Duration":260660,"SoundDuration":260660,"Delta":268835995},{"NoteNumber":86,"Velocity":58,"Duration":116123,"SoundDuration":116123,"Delta":268951378},{"NoteNumber":85,"Velocity":56,"Duration":122322,"SoundDuration":122322,"Delta":269067501},{"NoteNumber":73,"Velocity":39,"Duration":93167,"SoundDuration":93167,"Delta":269096655},{"NoteNumber":76,"Velocity":39,"Duration":93167,"SoundDuration":93167,"Delta":269096655},{"NoteNumber":83,"Velocity":55,"Duration":113755,"SoundDuration":113755,"Delta":269189823},{"NoteNumber":71,"Velocity":44,"Duration":170733,"SoundDuration":170733,"Delta":269189823},{"NoteNumber":74,"Velocity":44,"Duration":170733,"SoundDuration":170733,"Delta":269189823},{"NoteNumber":81,"Velocity":54,"Duration":114047,"SoundDuration":114047,"Delta":269303578},{"NoteNumber":80,"Velocity":52,"Duration":114465,"SoundDuration":114465,"Delta":269417626},{"NoteNumber":78,"Velocity":51,"Duration":114924,"SoundDuration":114924,"Delta":269532092},{"NoteNumber":52,"Velocity":40,"Duration":172561,"SoundDuration":172561,"Delta":269532092},{"NoteNumber":59,"Velocity":40,"Duration":172561,"SoundDuration":172561,"Delta":269532092},{"NoteNumber":76,"Velocity":50,"Duration":115404,"SoundDuration":115404,"Delta":269647016},{"NoteNumber":74,"Velocity":48,"Duration":115112,"SoundDuration":115112,"Delta":269762421},{"NoteNumber":73,"Velocity":46,"Duration":114212,"SoundDuration":114212,"Delta":269877534},{"NoteNumber":45,"Velocity":38,"Duration":171725,"SoundDuration":171725,"Delta":269877534},{"NoteNumber":49,"Velocity":38,"Duration":171725,"SoundDuration":171725,"Delta":269877534},{"NoteNumber":57,"Velocity":45,"Duration":171725,"SoundDuration":171725,"Delta":269877534},{"NoteNumber":71,"Velocity":45,"Duration":115251,"SoundDuration":115251,"Delta":269991747},{"NoteNumber":69,"Velocity":44,"Duration":116275,"SoundDuration":116275,"Delta":270106998},{"NoteNumber":68,"Velocity":43,"Duration":117307,"SoundDuration":117307,"Delta":270223274},{"NoteNumber":73,"Velocity":44,"Duration":265487,"SoundDuration":265487,"Delta":270223274},{"NoteNumber":76,"Velocity":44,"Duration":265487,"SoundDuration":265487,"Delta":270223274},{"NoteNumber":66,"Velocity":41,"Duration":118403,"SoundDuration":118403,"Delta":270340581},{"NoteNumber":64,"Velocity":40,"Duration":126211,"SoundDuration":126211,"Delta":270458984},{"NoteNumber":73,"Velocity":39,"Duration":96434,"SoundDuration":96434,"Delta":270488761},{"NoteNumber":76,"Velocity":39,"Duration":96434,"SoundDuration":96434,"Delta":270488761},{"NoteNumber":62,"Velocity":40,"Duration":117324,"SoundDuration":117324,"Delta":270585195},{"NoteNumber":71,"Velocity":44,"Duration":176364,"SoundDuration":176364,"Delta":270585195},{"NoteNumber":74,"Velocity":44,"Duration":176364,"SoundDuration":176364,"Delta":270585195},{"NoteNumber":66,"Velocity":39,"Duration":118361,"SoundDuration":118361,"Delta":270702520},{"NoteNumber":64,"Velocity":37,"Duration":119399,"SoundDuration":119399,"Delta":270820881},{"NoteNumber":62,"Velocity":35,"Duration":120487,"SoundDuration":120487,"Delta":270940280},{"NoteNumber":40,"Velocity":32,"Duration":181139,"SoundDuration":181139,"Delta":270940280},{"NoteNumber":61,"Velocity":33,"Duration":121556,"SoundDuration":121556,"Delta":271060768},{"NoteNumber":59,"Velocity":31,"Duration":146198,"SoundDuration":146198,"Delta":271182324},{"NoteNumber":57,"Velocity":39,"Duration":116618,"SoundDuration":116618,"Delta":271328523},{"NoteNumber":33,"Velocity":36,"Duration":699707,"SoundDuration":699707,"Delta":271328523},{"NoteNumber":61,"Velocity":34,"Duration":116617,"SoundDuration":116617,"Delta":271445141},{"NoteNumber":57,"Velocity":34,"Duration":116618,"SoundDuration":116618,"Delta":271561759},{"NoteNumber":61,"Velocity":39,"Duration":116618,"SoundDuration":116618,"Delta":271678377},{"NoteNumber":69,"Velocity":34,"Duration":116618,"SoundDuration":116618,"Delta":271794995},{"NoteNumber":61,"Velocity":34,"Duration":116617,"SoundDuration":116617,"Delta":271911613},{"NoteNumber":57,"Velocity":39,"Duration":115607,"SoundDuration":115607,"Delta":272028231},{"NoteNumber":45,"Velocity":33,"Duration":86705,"SoundDuration":86705,"Delta":272028231},{"NoteNumber":61,"Velocity":34,"Duration":115607,"SoundDuration":115607,"Delta":272143838},{"NoteNumber":45,"Velocity":28,"Duration":86705,"SoundDuration":86705,"Delta":272201641},{"NoteNumber":57,"Velocity":34,"Duration":115606,"SoundDuration":115606,"Delta":272259445},{"NoteNumber":61,"Velocity":39,"Duration":113507,"SoundDuration":113507,"Delta":272375052},{"NoteNumber":45,"Velocity":33,"Duration":85130,"SoundDuration":85130,"Delta":272375052},{"NoteNumber":69,"Velocity":34,"Duration":113507,"SoundDuration":113507,"Delta":272488559},{"NoteNumber":45,"Velocity":28,"Duration":88003,"SoundDuration":88003,"Delta":272545313},{"NoteNumber":61,"Velocity":34,"Duration":117187,"SoundDuration":117187,"Delta":272602066},{"NoteNumber":61,"Velocity":39,"Duration":116279,"SoundDuration":116279,"Delta":272727066},{"NoteNumber":45,"Velocity":36,"Duration":348837,"SoundDuration":348837,"Delta":272727066},{"NoteNumber":69,"Velocity":34,"Duration":116278,"SoundDuration":116278,"Delta":272843345},{"NoteNumber":61,"Velocity":34,"Duration":116279,"SoundDuration":116279,"Delta":272959624},{"NoteNumber":69,"Velocity":40,"Duration":119402,"SoundDuration":119402,"Delta":273075903},{"NoteNumber":55,"Velocity":37,"Duration":179104,"SoundDuration":179104,"Delta":273075903},{"NoteNumber":73,"Velocity":35,"Duration":119403,"SoundDuration":119403,"Delta":273195306},{"NoteNumber":69,"Velocity":35,"Duration":119402,"SoundDuration":119402,"Delta":273314709},{"NoteNumber":61,"Velocity":45,"Duration":114942,"SoundDuration":114942,"Delta":273434112},{"NoteNumber":45,"Velocity":43,"Duration":86207,"SoundDuration":86207,"Delta":273434112},{"NoteNumber":69,"Velocity":39,"Duration":114942,"SoundDuration":114942,"Delta":273549055},{"NoteNumber":45,"Velocity":38,"Duration":86207,"SoundDuration":86207,"Delta":273606526},{"NoteNumber":61,"Velocity":40,"Duration":114942,"SoundDuration":114942,"Delta":273663998},{"NoteNumber":69,"Velocity":48,"Duration":113507,"SoundDuration":113507,"Delta":273778940},{"NoteNumber":45,"Velocity":45,"Duration":85130,"SoundDuration":85130,"Delta":273778940},{"NoteNumber":73,"Velocity":43,"Duration":113507,"SoundDuration":113507,"Delta":273892448},{"NoteNumber":45,"Velocity":42,"Duration":87906,"SoundDuration":87906,"Delta":273949201},{"NoteNumber":69,"Velocity":43,"Duration":124610,"SoundDuration":124610,"Delta":274005955},{"NoteNumber":64,"Velocity":52,"Duration":115942,"SoundDuration":115942,"Delta":274130566},{"NoteNumber":45,"Velocity":55,"Duration":347825,"SoundDuration":347825,"Delta":274130566},{"NoteNumber":73,"Velocity":46,"Duration":115941,"SoundDuration":115941,"Delta":274246508},{"NoteNumber":64,"Velocity":46,"Duration":115942,"SoundDuration":115942,"Delta":274362450},{"NoteNumber":73,"Velocity":55,"Duration":118694,"SoundDuration":118694,"Delta":274478392},{"NoteNumber":55,"Velocity":51,"Duration":178041,"SoundDuration":178041,"Delta":274478392},{"NoteNumber":76,"Velocity":47,"Duration":118694,"SoundDuration":118694,"Delta":274597086},{"NoteNumber":73,"Velocity":48,"Duration":118694,"SoundDuration":118694,"Delta":274715780},{"NoteNumber":64,"Velocity":57,"Duration":115607,"SoundDuration":115607,"Delta":274834475},{"NoteNumber":57,"Velocity":57,"Duration":346820,"SoundDuration":346820,"Delta":274834475},{"NoteNumber":73,"Velocity":49,"Duration":115607,"SoundDuration":115607,"Delta":274950082},{"NoteNumber":64,"Velocity":50,"Duration":115606,"SoundDuration":115606,"Delta":275065689},{"NoteNumber":73,"Velocity":59,"Duration":118694,"SoundDuration":118694,"Delta":275181296},{"NoteNumber":67,"Velocity":53,"Duration":178041,"SoundDuration":178041,"Delta":275181296},{"NoteNumber":76,"Velocity":51,"Duration":118694,"SoundDuration":118694,"Delta":275299990},{"NoteNumber":73,"Velocity":52,"Duration":118694,"SoundDuration":118694,"Delta":275418684},{"NoteNumber":69,"Velocity":61,"Duration":116618,"SoundDuration":116618,"Delta":275537379},{"NoteNumber":57,"Velocity":70,"Duration":349853,"SoundDuration":349853,"Delta":275537379},{"NoteNumber":73,"Velocity":53,"Duration":116617,"SoundDuration":116617,"Delta":275653997},{"NoteNumber":69,"Velocity":55,"Duration":116618,"SoundDuration":116618,"Delta":275770615},{"NoteNumber":73,"Velocity":64,"Duration":119047,"SoundDuration":119047,"Delta":275887233},{"NoteNumber":67,"Velocity":68,"Duration":178571,"SoundDuration":178571,"Delta":275887233},{"NoteNumber":81,"Velocity":57,"Duration":119047,"SoundDuration":119047,"Delta":276006280},{"NoteNumber":73,"Velocity":59,"Duration":111607,"SoundDuration":111607,"Delta":276125328},{"NoteNumber":73,"Velocity":70,"Duration":116618,"SoundDuration":116618,"Delta":276244376},{"NoteNumber":57,"Velocity":74,"Duration":349853,"SoundDuration":349853,"Delta":276244376},{"NoteNumber":81,"Velocity":61,"Duration":116617,"SoundDuration":116617,"Delta":276360994},{"NoteNumber":73,"Velocity":63,"Duration":116618,"SoundDuration":116618,"Delta":276477612},{"NoteNumber":81,"Velocity":75,"Duration":118694,"SoundDuration":118694,"Delta":276594230},{"NoteNumber":67,"Velocity":73,"Duration":178041,"SoundDuration":178041,"Delta":276594230},{"NoteNumber":85,"Velocity":66,"Duration":118694,"SoundDuration":118694,"Delta":276712924},{"NoteNumber":81,"Velocity":67,"Duration":160000,"SoundDuration":160000,"Delta":276831618},{"NoteNumber":86,"Velocity":110,"Duration":829876,"SoundDuration":829876,"Delta":276991618},{"NoteNumber":82,"Velocity":93,"Duration":829876,"SoundDuration":829876,"Delta":276991618},{"NoteNumber":77,"Velocity":93,"Duration":829876,"SoundDuration":829876,"Delta":276991618},{"NoteNumber":74,"Velocity":93,"Duration":829876,"SoundDuration":829876,"Delta":276991618},{"NoteNumber":34,"Velocity":76,"Duration":829876,"SoundDuration":829876,"Delta":276991618},{"NoteNumber":46,"Velocity":90,"Duration":829876,"SoundDuration":829876,"Delta":276991618},{"NoteNumber":62,"Velocity":67,"Duration":86207,"SoundDuration":86207,"Delta":277821494},{"NoteNumber":70,"Velocity":79,"Duration":86207,"SoundDuration":86207,"Delta":277821494},{"NoteNumber":50,"Velocity":54,"Duration":86207,"SoundDuration":86207,"Delta":277821494},{"NoteNumber":58,"Velocity":63,"Duration":86207,"SoundDuration":86207,"Delta":277821494},{"NoteNumber":62,"Velocity":61,"Duration":86207,"SoundDuration":86207,"Delta":277993908},{"NoteNumber":70,"Velocity":73,"Duration":86207,"SoundDuration":86207,"Delta":277993908},{"NoteNumber":50,"Velocity":48,"Duration":86207,"SoundDuration":86207,"Delta":277993908},{"NoteNumber":58,"Velocity":57,"Duration":86207,"SoundDuration":86207,"Delta":277993908},{"NoteNumber":62,"Velocity":67,"Duration":84033,"SoundDuration":84033,"Delta":278166322},{"NoteNumber":70,"Velocity":79,"Duration":84033,"SoundDuration":84033,"Delta":278166322},{"NoteNumber":50,"Velocity":54,"Duration":84033,"SoundDuration":84033,"Delta":278166322},{"NoteNumber":58,"Velocity":63,"Duration":84033,"SoundDuration":84033,"Delta":278166322},{"NoteNumber":62,"Velocity":61,"Duration":103377,"SoundDuration":103377,"Delta":278334389},{"NoteNumber":70,"Velocity":72,"Duration":103377,"SoundDuration":103377,"Delta":278334389},{"NoteNumber":50,"Velocity":48,"Duration":103377,"SoundDuration":103377,"Delta":278334389},{"NoteNumber":58,"Velocity":57,"Duration":103377,"SoundDuration":103377,"Delta":278334389},{"NoteNumber":62,"Velocity":74,"Duration":362537,"SoundDuration":362537,"Delta":278541143},{"NoteNumber":70,"Velocity":87,"Duration":362537,"SoundDuration":362537,"Delta":278541143},{"NoteNumber":50,"Velocity":58,"Duration":362537,"SoundDuration":362537,"Delta":278541143},{"NoteNumber":58,"Velocity":69,"Duration":362537,"SoundDuration":362537,"Delta":278541143},{"NoteNumber":65,"Velocity":63,"Duration":188087,"SoundDuration":188087,"Delta":278903681},{"NoteNumber":72,"Velocity":75,"Duration":188087,"SoundDuration":188087,"Delta":278903681},{"NoteNumber":53,"Velocity":54,"Duration":188087,"SoundDuration":188087,"Delta":278903681},{"NoteNumber":60,"Velocity":64,"Duration":188087,"SoundDuration":188087,"Delta":278903681},{"NoteNumber":65,"Velocity":74,"Duration":362537,"SoundDuration":362537,"Delta":279279857},{"NoteNumber":72,"Velocity":87,"Duration":362537,"SoundDuration":362537,"Delta":279279857},{"NoteNumber":53,"Velocity":58,"Duration":362537,"SoundDuration":362537,"Delta":279279857},{"NoteNumber":60,"Velocity":69,"Duration":362537,"SoundDuration":362537,"Delta":279279857},{"NoteNumber":70,"Velocity":63,"Duration":188087,"SoundDuration":188087,"Delta":279642395},{"NoteNumber":74,"Velocity":75,"Duration":188087,"SoundDuration":188087,"Delta":279642395},{"NoteNumber":58,"Velocity":54,"Duration":188087,"SoundDuration":188087,"Delta":279642395},{"NoteNumber":62,"Velocity":64,"Duration":188087,"SoundDuration":188087,"Delta":279642395},{"NoteNumber":70,"Velocity":74,"Duration":363635,"SoundDuration":363635,"Delta":280018571},{"NoteNumber":74,"Velocity":87,"Duration":363635,"SoundDuration":363635,"Delta":280018571},{"NoteNumber":58,"Velocity":58,"Duration":363635,"SoundDuration":363635,"Delta":280018571},{"NoteNumber":62,"Velocity":69,"Duration":363635,"SoundDuration":363635,"Delta":280018571},{"NoteNumber":65,"Velocity":63,"Duration":186915,"SoundDuration":186915,"Delta":280382207},{"NoteNumber":72,"Velocity":75,"Duration":186915,"SoundDuration":186915,"Delta":280382207},{"NoteNumber":53,"Velocity":54,"Duration":186915,"SoundDuration":186915,"Delta":280382207},{"NoteNumber":60,"Velocity":64,"Duration":186915,"SoundDuration":186915,"Delta":280382207},{"NoteNumber":65,"Velocity":67,"Duration":85714,"SoundDuration":85714,"Delta":280756039},{"NoteNumber":72,"Velocity":79,"Duration":85714,"SoundDuration":85714,"Delta":280756039},{"NoteNumber":53,"Velocity":54,"Duration":85714,"SoundDuration":85714,"Delta":280756039},{"NoteNumber":60,"Velocity":63,"Duration":85714,"SoundDuration":85714,"Delta":280756039},{"NoteNumber":65,"Velocity":61,"Duration":85714,"SoundDuration":85714,"Delta":280927468},{"NoteNumber":72,"Velocity":73,"Duration":85714,"SoundDuration":85714,"Delta":280927468},{"NoteNumber":53,"Velocity":48,"Duration":85714,"SoundDuration":85714,"Delta":280927468},{"NoteNumber":60,"Velocity":57,"Duration":85714,"SoundDuration":85714,"Delta":280927468},{"NoteNumber":65,"Velocity":67,"Duration":83798,"SoundDuration":83798,"Delta":281098896},{"NoteNumber":72,"Velocity":79,"Duration":83798,"SoundDuration":83798,"Delta":281098896},{"NoteNumber":53,"Velocity":54,"Duration":83798,"SoundDuration":83798,"Delta":281098896},{"NoteNumber":60,"Velocity":63,"Duration":83798,"SoundDuration":83798,"Delta":281098896},{"NoteNumber":65,"Velocity":61,"Duration":103377,"SoundDuration":103377,"Delta":281266494},{"NoteNumber":72,"Velocity":72,"Duration":103377,"SoundDuration":103377,"Delta":281266494},{"NoteNumber":53,"Velocity":48,"Duration":103377,"SoundDuration":103377,"Delta":281266494},{"NoteNumber":60,"Velocity":57,"Duration":103377,"SoundDuration":103377,"Delta":281266494},{"NoteNumber":65,"Velocity":74,"Duration":362537,"SoundDuration":362537,"Delta":281473248},{"NoteNumber":72,"Velocity":87,"Duration":362537,"SoundDuration":362537,"Delta":281473248},{"NoteNumber":53,"Velocity":58,"Duration":362537,"SoundDuration":362537,"Delta":281473248},{"NoteNumber":60,"Velocity":69,"Duration":362537,"SoundDuration":362537,"Delta":281473248},{"NoteNumber":74,"Velocity":63,"Duration":188087,"SoundDuration":188087,"Delta":281835786},{"NoteNumber":77,"Velocity":75,"Duration":188087,"SoundDuration":188087,"Delta":281835786},{"NoteNumber":62,"Velocity":54,"Duration":188087,"SoundDuration":188087,"Delta":281835786},{"NoteNumber":65,"Velocity":64,"Duration":188087,"SoundDuration":188087,"Delta":281835786},{"NoteNumber":74,"Velocity":74,"Duration":362537,"SoundDuration":362537,"Delta":282211962},{"NoteNumber":77,"Velocity":87,"Duration":362537,"SoundDuration":362537,"Delta":282211962},{"NoteNumber":62,"Velocity":58,"Duration":362537,"SoundDuration":362537,"Delta":282211962},{"NoteNumber":65,"Velocity":69,"Duration":362537,"SoundDuration":362537,"Delta":282211962},{"NoteNumber":69,"Velocity":63,"Duration":188087,"SoundDuration":188087,"Delta":282574500},{"NoteNumber":75,"Velocity":75,"Duration":188087,"SoundDuration":188087,"Delta":282574500},{"NoteNumber":57,"Velocity":54,"Duration":188087,"SoundDuration":188087,"Delta":282574500},{"NoteNumber":63,"Velocity":64,"Duration":188087,"SoundDuration":188087,"Delta":282574500},{"NoteNumber":69,"Velocity":74,"Duration":363635,"SoundDuration":363635,"Delta":282950676},{"NoteNumber":75,"Velocity":87,"Duration":363635,"SoundDuration":363635,"Delta":282950676},{"NoteNumber":57,"Velocity":58,"Duration":363635,"SoundDuration":363635,"Delta":282950676},{"NoteNumber":63,"Velocity":69,"Duration":363635,"SoundDuration":363635,"Delta":282950676},{"NoteNumber":70,"Velocity":63,"Duration":186915,"SoundDuration":186915,"Delta":283314312},{"NoteNumber":74,"Velocity":75,"Duration":186915,"SoundDuration":186915,"Delta":283314312},{"NoteNumber":58,"Velocity":54,"Duration":186915,"SoundDuration":186915,"Delta":283314312},{"NoteNumber":62,"Velocity":64,"Duration":186915,"SoundDuration":186915,"Delta":283314312},{"NoteNumber":70,"Velocity":67,"Duration":84175,"SoundDuration":84175,"Delta":283688144},{"NoteNumber":74,"Velocity":67,"Duration":84175,"SoundDuration":84175,"Delta":283688144},{"NoteNumber":79,"Velocity":67,"Duration":84175,"SoundDuration":84175,"Delta":283688144},{"NoteNumber":82,"Velocity":79,"Duration":84175,"SoundDuration":84175,"Delta":283688144},{"NoteNumber":31,"Velocity":54,"Duration":84175,"SoundDuration":84175,"Delta":283688144},{"NoteNumber":43,"Velocity":63,"Duration":84175,"SoundDuration":84175,"Delta":283688144},{"NoteNumber":70,"Velocity":61,"Duration":84175,"SoundDuration":84175,"Delta":283856494},{"NoteNumber":74,"Velocity":61,"Duration":84175,"SoundDuration":84175,"Delta":283856494},{"NoteNumber":79,"Velocity":61,"Duration":84175,"SoundDuration":84175,"Delta":283856494},{"NoteNumber":82,"Velocity":73,"Duration":84175,"SoundDuration":84175,"Delta":283856494},{"NoteNumber":31,"Velocity":48,"Duration":84175,"SoundDuration":84175,"Delta":283856494},{"NoteNumber":43,"Velocity":57,"Duration":84175,"SoundDuration":84175,"Delta":283856494},{"NoteNumber":70,"Velocity":67,"Duration":82327,"SoundDuration":82327,"Delta":284024844},{"NoteNumber":74,"Velocity":67,"Duration":82327,"SoundDuration":82327,"Delta":284024844},{"NoteNumber":79,"Velocity":67,"Duration":82327,"SoundDuration":82327,"Delta":284024844},{"NoteNumber":82,"Velocity":79,"Duration":82327,"SoundDuration":82327,"Delta":284024844},{"NoteNumber":31,"Velocity":54,"Duration":82327,"SoundDuration":82327,"Delta":284024844},{"NoteNumber":43,"Velocity":63,"Duration":82327,"SoundDuration":82327,"Delta":284024844},{"NoteNumber":70,"Velocity":61,"Duration":103377,"SoundDuration":103377,"Delta":284189498},{"NoteNumber":74,"Velocity":61,"Duration":103377,"SoundDuration":103377,"Delta":284189498},{"NoteNumber":79,"Velocity":61,"Duration":103377,"SoundDuration":103377,"Delta":284189498},{"NoteNumber":82,"Velocity":72,"Duration":103377,"SoundDuration":103377,"Delta":284189498},{"NoteNumber":31,"Velocity":48,"Duration":103377,"SoundDuration":103377,"Delta":284189498},{"NoteNumber":43,"Velocity":57,"Duration":103377,"SoundDuration":103377,"Delta":284189498},{"NoteNumber":70,"Velocity":74,"Duration":554231,"SoundDuration":554231,"Delta":284396252},{"NoteNumber":74,"Velocity":74,"Duration":362537,"SoundDuration":362537,"Delta":284396252},{"NoteNumber":79,"Velocity":74,"Duration":362537,"SoundDuration":362537,"Delta":284396252},{"NoteNumber":82,"Velocity":87,"Duration":362537,"SoundDuration":362537,"Delta":284396252},{"NoteNumber":31,"Velocity":58,"Duration":362537,"SoundDuration":362537,"Delta":284396252},{"NoteNumber":43,"Velocity":69,"Duration":362537,"SoundDuration":362537,"Delta":284396252},{"NoteNumber":74,"Velocity":63,"Duration":191693,"SoundDuration":191693,"Delta":284758790},{"NoteNumber":79,"Velocity":75,"Duration":191693,"SoundDuration":191693,"Delta":284758790},{"NoteNumber":34,"Velocity":54,"Duration":191693,"SoundDuration":191693,"Delta":284758790},{"NoteNumber":46,"Velocity":64,"Duration":191693,"SoundDuration":191693,"Delta":284758790},{"NoteNumber":65,"Velocity":70,"Duration":92879,"SoundDuration":92879,"Delta":285142177},{"NoteNumber":74,"Velocity":70,"Duration":92879,"SoundDuration":92879,"Delta":285142177},{"NoteNumber":77,"Velocity":82,"Duration":92879,"SoundDuration":92879,"Delta":285142177},{"NoteNumber":34,"Velocity":55,"Duration":92879,"SoundDuration":92879,"Delta":285142177},{"NoteNumber":46,"Velocity":65,"Duration":92879,"SoundDuration":92879,"Delta":285142177},{"NoteNumber":65,"Velocity":59,"Duration":103806,"SoundDuration":103806,"Delta":285513694},{"NoteNumber":70,"Velocity":59,"Duration":103806,"SoundDuration":103806,"Delta":285513694},{"NoteNumber":74,"Velocity":71,"Duration":103806,"SoundDuration":103806,"Delta":285513694},{"NoteNumber":38,"Velocity":51,"Duration":103806,"SoundDuration":103806,"Delta":285513694},{"NoteNumber":50,"Velocity":60,"Duration":103806,"SoundDuration":103806,"Delta":285513694},{"NoteNumber":65,"Velocity":69,"Duration":750000,"SoundDuration":750000,"Delta":285928919},{"NoteNumber":69,"Velocity":69,"Duration":750000,"SoundDuration":750000,"Delta":285928919},{"NoteNumber":72,"Velocity":82,"Duration":750000,"SoundDuration":750000,"Delta":285928919},{"NoteNumber":41,"Velocity":58,"Duration":750000,"SoundDuration":750000,"Delta":285928919},{"NoteNumber":53,"Velocity":69,"Duration":750000,"SoundDuration":750000,"Delta":285928919},{"NoteNumber":61,"Velocity":63,"Duration":89020,"SoundDuration":89020,"Delta":286678919},{"NoteNumber":73,"Velocity":75,"Duration":89020,"SoundDuration":89020,"Delta":286678919},{"NoteNumber":37,"Velocity":51,"Duration":89020,"SoundDuration":89020,"Delta":286678919},{"NoteNumber":49,"Velocity":59,"Duration":89020,"SoundDuration":89020,"Delta":286678919},{"NoteNumber":61,"Velocity":57,"Duration":89020,"SoundDuration":89020,"Delta":286856961},{"NoteNumber":73,"Velocity":69,"Duration":89020,"SoundDuration":89020,"Delta":286856961},{"NoteNumber":37,"Velocity":45,"Duration":89020,"SoundDuration":89020,"Delta":286856961},{"NoteNumber":49,"Velocity":54,"Duration":89020,"SoundDuration":89020,"Delta":286856961},{"NoteNumber":61,"Velocity":63,"Duration":87209,"SoundDuration":87209,"Delta":287035002},{"NoteNumber":73,"Velocity":75,"Duration":87209,"SoundDuration":87209,"Delta":287035002},{"NoteNumber":37,"Velocity":51,"Duration":87209,"SoundDuration":87209,"Delta":287035002},{"NoteNumber":49,"Velocity":59,"Duration":87209,"SoundDuration":87209,"Delta":287035002},{"NoteNumber":61,"Velocity":57,"Duration":101009,"SoundDuration":101009,"Delta":287209421},{"NoteNumber":73,"Velocity":68,"Duration":101009,"SoundDuration":101009,"Delta":287209421},{"NoteNumber":37,"Velocity":45,"Duration":101009,"SoundDuration":101009,"Delta":287209421},{"NoteNumber":49,"Velocity":54,"Duration":101009,"SoundDuration":101009,"Delta":287209421},{"NoteNumber":65,"Velocity":70,"Duration":554718,"SoundDuration":554718,"Delta":287411441},{"NoteNumber":74,"Velocity":70,"Duration":363635,"SoundDuration":363635,"Delta":287411441},{"NoteNumber":77,"Velocity":82,"Duration":363635,"SoundDuration":363635,"Delta":287411441},{"NoteNumber":41,"Velocity":55,"Duration":745801,"SoundDuration":745801,"Delta":287411441},{"NoteNumber":50,"Velocity":55,"Duration":745801,"SoundDuration":745801,"Delta":287411441},{"NoteNumber":53,"Velocity":65,"Duration":745801,"SoundDuration":745801,"Delta":287411441},{"NoteNumber":70,"Velocity":59,"Duration":191082,"SoundDuration":191082,"Delta":287775077},{"NoteNumber":74,"Velocity":71,"Duration":191082,"SoundDuration":191082,"Delta":287775077},{"NoteNumber":65,"Velocity":70,"Duration":93750,"SoundDuration":93750,"Delta":288157243},{"NoteNumber":70,"Velocity":70,"Duration":93750,"SoundDuration":93750,"Delta":288157243},{"NoteNumber":74,"Velocity":82,"Duration":93750,"SoundDuration":93750,"Delta":288157243},{"NoteNumber":58,"Velocity":55,"Duration":93750,"SoundDuration":93750,"Delta":288157243},{"NoteNumber":50,"Velocity":55,"Duration":93750,"SoundDuration":93750,"Delta":288157243},{"NoteNumber":62,"Velocity":65,"Duration":93750,"SoundDuration":93750,"Delta":288157243},{"NoteNumber":65,"Velocity":59,"Duration":107142,"SoundDuration":107142,"Delta":288532243},{"NoteNumber":69,"Velocity":59,"Duration":107142,"SoundDuration":107142,"Delta":288532243},{"NoteNumber":72,"Velocity":71,"Duration":107142,"SoundDuration":107142,"Delta":288532243},{"NoteNumber":53,"Velocity":51,"Duration":107142,"SoundDuration":107142,"Delta":288532243},{"NoteNumber":57,"Velocity":51,"Duration":107142,"SoundDuration":107142,"Delta":288532243},{"NoteNumber":60,"Velocity":60,"Duration":107142,"SoundDuration":107142,"Delta":288532243},{"NoteNumber":74,"Velocity":82,"Duration":750000,"SoundDuration":750000,"Delta":288960814},{"NoteNumber":77,"Velocity":82,"Duration":750000,"SoundDuration":750000,"Delta":288960814},{"NoteNumber":82,"Velocity":82,"Duration":750000,"SoundDuration":750000,"Delta":288960814},{"NoteNumber":86,"Velocity":98,"Duration":750000,"SoundDuration":750000,"Delta":288960814},{"NoteNumber":34,"Velocity":69,"Duration":750000,"SoundDuration":750000,"Delta":288960814},{"NoteNumber":46,"Velocity":82,"Duration":750000,"SoundDuration":750000,"Delta":288960814},{"NoteNumber":65,"Velocity":67,"Duration":116211,"SoundDuration":116211,"Delta":289710814},{"NoteNumber":50,"Velocity":54,"Duration":87158,"SoundDuration":87158,"Delta":289710814},{"NoteNumber":58,"Velocity":63,"Duration":87158,"SoundDuration":87158,"Delta":289710814},{"NoteNumber":63,"Velocity":61,"Duration":116211,"SoundDuration":116211,"Delta":289827025},{"NoteNumber":50,"Velocity":48,"Duration":87158,"SoundDuration":87158,"Delta":289885131},{"NoteNumber":58,"Velocity":57,"Duration":87158,"SoundDuration":87158,"Delta":289885131},{"NoteNumber":62,"Velocity":61,"Duration":116211,"SoundDuration":116211,"Delta":289943237},{"NoteNumber":70,"Velocity":67,"Duration":113960,"SoundDuration":113960,"Delta":290059449},{"NoteNumber":50,"Velocity":54,"Duration":85469,"SoundDuration":85469,"Delta":290059449},{"NoteNumber":58,"Velocity":63,"Duration":85469,"SoundDuration":85469,"Delta":290059449},{"NoteNumber":69,"Velocity":61,"Duration":125897,"SoundDuration":125897,"Delta":290173409},{"NoteNumber":50,"Velocity":48,"Duration":103377,"SoundDuration":103377,"Delta":290230389},{"NoteNumber":58,"Velocity":57,"Duration":103377,"SoundDuration":103377,"Delta":290230389},{"NoteNumber":67,"Velocity":61,"Duration":137835,"SoundDuration":137835,"Delta":290299307},{"NoteNumber":65,"Velocity":73,"Duration":738713,"SoundDuration":738713,"Delta":290437143},{"NoteNumber":50,"Velocity":58,"Duration":362537,"SoundDuration":362537,"Delta":290437143},{"NoteNumber":58,"Velocity":69,"Duration":362537,"SoundDuration":362537,"Delta":290437143},{"NoteNumber":53,"Velocity":54,"Duration":188087,"SoundDuration":188087,"Delta":290799681},{"NoteNumber":60,"Velocity":64,"Duration":188087,"SoundDuration":188087,"Delta":290799681},{"NoteNumber":77,"Velocity":67,"Duration":120845,"SoundDuration":120845,"Delta":291175857},{"NoteNumber":53,"Velocity":58,"Duration":362537,"SoundDuration":362537,"Delta":291175857},{"NoteNumber":60,"Velocity":69,"Duration":362537,"SoundDuration":362537,"Delta":291175857},{"NoteNumber":75,"Velocity":61,"Duration":120846,"SoundDuration":120846,"Delta":291296703},{"NoteNumber":74,"Velocity":61,"Duration":120845,"SoundDuration":120845,"Delta":291417549},{"NoteNumber":82,"Velocity":67,"Duration":125391,"SoundDuration":125391,"Delta":291538395},{"NoteNumber":58,"Velocity":54,"Duration":188087,"SoundDuration":188087,"Delta":291538395},{"NoteNumber":62,"Velocity":64,"Duration":188087,"SoundDuration":188087,"Delta":291538395},{"NoteNumber":81,"Velocity":61,"Duration":125392,"SoundDuration":125392,"Delta":291663787},{"NoteNumber":79,"Velocity":61,"Duration":125391,"SoundDuration":125391,"Delta":291789179},{"NoteNumber":77,"Velocity":73,"Duration":737467,"SoundDuration":737467,"Delta":291914571},{"NoteNumber":58,"Velocity":58,"Duration":363635,"SoundDuration":363635,"Delta":291914571},{"NoteNumber":62,"Velocity":69,"Duration":363635,"SoundDuration":363635,"Delta":291914571},{"NoteNumber":53,"Velocity":54,"Duration":186915,"SoundDuration":186915,"Delta":292278207},{"NoteNumber":60,"Velocity":64,"Duration":186915,"SoundDuration":186915,"Delta":292278207},{"NoteNumber":77,"Velocity":71,"Duration":116211,"SoundDuration":116211,"Delta":292652039},{"NoteNumber":53,"Velocity":54,"Duration":87158,"SoundDuration":87158,"Delta":292652039},{"NoteNumber":60,"Velocity":63,"Duration":87158,"SoundDuration":87158,"Delta":292652039},{"NoteNumber":81,"Velocity":60,"Duration":116211,"SoundDuration":116211,"Delta":292768250},{"NoteNumber":53,"Velocity":48,"Duration":87158,"SoundDuration":87158,"Delta":292826356},{"NoteNumber":60,"Velocity":57,"Duration":87158,"SoundDuration":87158,"Delta":292826356},{"NoteNumber":82,"Velocity":60,"Duration":116211,"SoundDuration":116211,"Delta":292884462},{"NoteNumber":84,"Velocity":67,"Duration":113960,"SoundDuration":113960,"Delta":293000674},{"NoteNumber":53,"Velocity":54,"Duration":85469,"SoundDuration":85469,"Delta":293000674},{"NoteNumber":60,"Velocity":63,"Duration":85469,"SoundDuration":85469,"Delta":293000674},{"NoteNumber":86,"Velocity":70,"Duration":125897,"SoundDuration":125897,"Delta":293114634},{"NoteNumber":53,"Velocity":48,"Duration":103377,"SoundDuration":103377,"Delta":293171614},{"NoteNumber":60,"Velocity":57,"Duration":103377,"SoundDuration":103377,"Delta":293171614},{"NoteNumber":87,"Velocity":72,"Duration":137835,"SoundDuration":137835,"Delta":293240532},{"NoteNumber":89,"Velocity":78,"Duration":738713,"SoundDuration":738713,"Delta":293378368},{"NoteNumber":53,"Velocity":58,"Duration":362537,"SoundDuration":362537,"Delta":293378368},{"NoteNumber":60,"Velocity":69,"Duration":362537,"SoundDuration":362537,"Delta":293378368},{"NoteNumber":62,"Velocity":54,"Duration":188087,"SoundDuration":188087,"Delta":293740906},{"NoteNumber":65,"Velocity":64,"Duration":188087,"SoundDuration":188087,"Delta":293740906},{"NoteNumber":81,"Velocity":67,"Duration":120464,"SoundDuration":120464,"Delta":294117082},{"NoteNumber":62,"Velocity":58,"Duration":364175,"SoundDuration":364175,"Delta":294117082},{"NoteNumber":65,"Velocity":69,"Duration":364175,"SoundDuration":364175,"Delta":294117082},{"NoteNumber":82,"Velocity":59,"Duration":121249,"SoundDuration":121249,"Delta":294237546},{"NoteNumber":84,"Velocity":59,"Duration":122461,"SoundDuration":122461,"Delta":294358796},{"NoteNumber":86,"Velocity":63,"Duration":126983,"SoundDuration":126983,"Delta":294481257},{"NoteNumber":57,"Velocity":54,"Duration":190475,"SoundDuration":190475,"Delta":294481257},{"NoteNumber":63,"Velocity":64,"Duration":190475,"SoundDuration":190475,"Delta":294481257},{"NoteNumber":87,"Velocity":66,"Duration":126983,"SoundDuration":126983,"Delta":294608241},{"NoteNumber":89,"Velocity":70,"Duration":144927,"SoundDuration":144927,"Delta":294735225},{"NoteNumber":90,"Velocity":72,"Duration":363635,"SoundDuration":363635,"Delta":294880153},{"NoteNumber":57,"Velocity":58,"Duration":363635,"SoundDuration":363635,"Delta":294880153},{"NoteNumber":63,"Velocity":69,"Duration":363635,"SoundDuration":363635,"Delta":294880153},{"NoteNumber":91,"Velocity":66,"Duration":186915,"SoundDuration":186915,"Delta":295243789},{"NoteNumber":58,"Velocity":54,"Duration":186915,"SoundDuration":186915,"Delta":295243789},{"NoteNumber":62,"Velocity":64,"Duration":186915,"SoundDuration":186915,"Delta":295243789},{"NoteNumber":79,"Velocity":67,"Duration":84889,"SoundDuration":84889,"Delta":295617621},{"NoteNumber":74,"Velocity":67,"Duration":84889,"SoundDuration":84889,"Delta":295617621},{"NoteNumber":70,"Velocity":67,"Duration":84889,"SoundDuration":84889,"Delta":295617621},{"NoteNumber":82,"Velocity":79,"Duration":84889,"SoundDuration":84889,"Delta":295617621},{"NoteNumber":31,"Velocity":63,"Duration":113186,"SoundDuration":113186,"Delta":295617621},{"NoteNumber":34,"Velocity":58,"Duration":113186,"SoundDuration":113186,"Delta":295730807},{"NoteNumber":79,"Velocity":61,"Duration":84889,"SoundDuration":84889,"Delta":295787400},{"NoteNumber":82,"Velocity":73,"Duration":84889,"SoundDuration":84889,"Delta":295787400},{"NoteNumber":74,"Velocity":61,"Duration":84889,"SoundDuration":84889,"Delta":295787400},{"NoteNumber":70,"Velocity":61,"Duration":84889,"SoundDuration":84889,"Delta":295787400},{"NoteNumber":36,"Velocity":58,"Duration":113186,"SoundDuration":113186,"Delta":295843993},{"NoteNumber":79,"Velocity":67,"Duration":82327,"SoundDuration":82327,"Delta":295957180},{"NoteNumber":82,"Velocity":79,"Duration":82327,"SoundDuration":82327,"Delta":295957180},{"NoteNumber":70,"Velocity":67,"Duration":82327,"SoundDuration":82327,"Delta":295957180},{"NoteNumber":74,"Velocity":67,"Duration":82327,"SoundDuration":82327,"Delta":295957180},{"NoteNumber":38,"Velocity":63,"Duration":109769,"SoundDuration":109769,"Delta":295957180},{"NoteNumber":40,"Velocity":59,"Duration":123802,"SoundDuration":123802,"Delta":296066949},{"NoteNumber":70,"Velocity":61,"Duration":103377,"SoundDuration":103377,"Delta":296121834},{"NoteNumber":74,"Velocity":61,"Duration":103377,"SoundDuration":103377,"Delta":296121834},{"NoteNumber":79,"Velocity":61,"Duration":103377,"SoundDuration":103377,"Delta":296121834},{"NoteNumber":82,"Velocity":72,"Duration":103377,"SoundDuration":103377,"Delta":296121834},{"NoteNumber":42,"Velocity":59,"Duration":137835,"SoundDuration":137835,"Delta":296190752},{"NoteNumber":70,"Velocity":74,"Duration":554231,"SoundDuration":554231,"Delta":296328588},{"NoteNumber":74,"Velocity":74,"Duration":362537,"SoundDuration":362537,"Delta":296328588},{"NoteNumber":79,"Velocity":74,"Duration":362537,"SoundDuration":362537,"Delta":296328588},{"NoteNumber":82,"Velocity":87,"Duration":362537,"SoundDuration":362537,"Delta":296328588},{"NoteNumber":43,"Velocity":69,"Duration":362537,"SoundDuration":362537,"Delta":296328588},{"NoteNumber":74,"Velocity":63,"Duration":191693,"SoundDuration":191693,"Delta":296691126},{"NoteNumber":79,"Velocity":75,"Duration":191693,"SoundDuration":191693,"Delta":296691126},{"NoteNumber":46,"Velocity":64,"Duration":191693,"SoundDuration":191693,"Delta":296691126},{"NoteNumber":65,"Velocity":70,"Duration":92307,"SoundDuration":92307,"Delta":297074513},{"NoteNumber":74,"Velocity":70,"Duration":92307,"SoundDuration":92307,"Delta":297074513},{"NoteNumber":77,"Velocity":82,"Duration":92307,"SoundDuration":92307,"Delta":297074513},{"NoteNumber":46,"Velocity":65,"Duration":123077,"SoundDuration":123077,"Delta":297074513},{"NoteNumber":45,"Velocity":61,"Duration":123076,"SoundDuration":123076,"Delta":297197590},{"NoteNumber":46,"Velocity":61,"Duration":123077,"SoundDuration":123077,"Delta":297320667},{"NoteNumber":70,"Velocity":59,"Duration":99337,"SoundDuration":99337,"Delta":297443744},{"NoteNumber":65,"Velocity":59,"Duration":99337,"SoundDuration":99337,"Delta":297443744},{"NoteNumber":74,"Velocity":71,"Duration":99337,"SoundDuration":99337,"Delta":297443744},{"NoteNumber":50,"Velocity":65,"Duration":132450,"SoundDuration":132450,"Delta":297443744},{"NoteNumber":48,"Velocity":61,"Duration":132450,"SoundDuration":132450,"Delta":297576194},{"NoteNumber":46,"Velocity":61,"Duration":132450,"SoundDuration":132450,"Delta":297708644},{"NoteNumber":72,"Velocity":82,"Duration":750000,"SoundDuration":750000,"Delta":297841095},{"NoteNumber":69,"Velocity":69,"Duration":750000,"SoundDuration":750000,"Delta":297841095},{"NoteNumber":65,"Velocity":69,"Duration":750000,"SoundDuration":750000,"Delta":297841095},{"NoteNumber":53,"Velocity":69,"Duration":750000,"SoundDuration":750000,"Delta":297841095},{"NoteNumber":68,"Velocity":75,"Duration":120481,"SoundDuration":120481,"Delta":298591095},{"NoteNumber":44,"Velocity":51,"Duration":90361,"SoundDuration":90361,"Delta":298591095},{"NoteNumber":56,"Velocity":59,"Duration":90361,"SoundDuration":90361,"Delta":298591095},{"NoteNumber":72,"Velocity":68,"Duration":120482,"SoundDuration":120482,"Delta":298711577},{"NoteNumber":44,"Velocity":45,"Duration":90361,"SoundDuration":90361,"Delta":298771818},{"NoteNumber":56,"Velocity":54,"Duration":90361,"SoundDuration":90361,"Delta":298771818},{"NoteNumber":76,"Velocity":69,"Duration":120481,"SoundDuration":120481,"Delta":298832059},{"NoteNumber":77,"Velocity":75,"Duration":118694,"SoundDuration":118694,"Delta":298952541},{"NoteNumber":44,"Velocity":51,"Duration":89020,"SoundDuration":89020,"Delta":298952541},{"NoteNumber":56,"Velocity":59,"Duration":89020,"SoundDuration":89020,"Delta":298952541},{"NoteNumber":79,"Velocity":67,"Duration":118694,"SoundDuration":118694,"Delta":299071235},{"NoteNumber":44,"Velocity":45,"Duration":97370,"SoundDuration":97370,"Delta":299130582},{"NoteNumber":56,"Velocity":54,"Duration":97370,"SoundDuration":97370,"Delta":299130582},{"NoteNumber":80,"Velocity":67,"Duration":152091,"SoundDuration":152091,"Delta":299189929},{"NoteNumber":72,"Velocity":70,"Duration":559279,"SoundDuration":559279,"Delta":299342021},{"NoteNumber":81,"Velocity":70,"Duration":366971,"SoundDuration":366971,"Delta":299342021},{"NoteNumber":84,"Velocity":82,"Duration":366971,"SoundDuration":366971,"Delta":299342021},{"NoteNumber":48,"Velocity":55,"Duration":751586,"SoundDuration":751586,"Delta":299342021},{"NoteNumber":57,"Velocity":55,"Duration":751586,"SoundDuration":751586,"Delta":299342021},{"NoteNumber":60,"Velocity":65,"Duration":751586,"SoundDuration":751586,"Delta":299342021},{"NoteNumber":81,"Velocity":71,"Duration":192307,"SoundDuration":192307,"Delta":299708993},{"NoteNumber":77,"Velocity":59,"Duration":192307,"SoundDuration":192307,"Delta":299708993},{"NoteNumber":72,"Velocity":70,"Duration":99010,"SoundDuration":99010,"Delta":300093608},{"NoteNumber":77,"Velocity":70,"Duration":99010,"SoundDuration":99010,"Delta":300093608},{"NoteNumber":81,"Velocity":82,"Duration":99010,"SoundDuration":99010,"Delta":300093608},{"NoteNumber":65,"Velocity":55,"Duration":99010,"SoundDuration":99010,"Delta":300093608},{"NoteNumber":57,"Velocity":55,"Duration":99010,"SoundDuration":99010,"Delta":300093608},{"NoteNumber":69,"Velocity":65,"Duration":99010,"SoundDuration":99010,"Delta":300093608},{"NoteNumber":72,"Velocity":59,"Duration":113207,"SoundDuration":113207,"Delta":300489648},{"NoteNumber":76,"Velocity":59,"Duration":113207,"SoundDuration":113207,"Delta":300489648},{"NoteNumber":79,"Velocity":71,"Duration":113207,"SoundDuration":113207,"Delta":300489648},{"NoteNumber":60,"Velocity":51,"Duration":113207,"SoundDuration":113207,"Delta":300489648},{"NoteNumber":64,"Velocity":51,"Duration":113207,"SoundDuration":113207,"Delta":300489648},{"NoteNumber":67,"Velocity":60,"Duration":113207,"SoundDuration":113207,"Delta":300489648},{"NoteNumber":77,"Velocity":98,"Duration":697467,"SoundDuration":697467,"Delta":300942478},{"NoteNumber":72,"Velocity":82,"Duration":697467,"SoundDuration":697467,"Delta":300942478},{"NoteNumber":69,"Velocity":82,"Duration":697467,"SoundDuration":697467,"Delta":300942478},{"NoteNumber":41,"Velocity":76,"Duration":119403,"SoundDuration":119403,"Delta":300942478},{"NoteNumber":43,"Velocity":46,"Duration":116618,"SoundDuration":116618,"Delta":301061881},{"NoteNumber":45,"Velocity":46,"Duration":116617,"SoundDuration":116617,"Delta":301178499},{"NoteNumber":46,"Velocity":54,"Duration":114942,"SoundDuration":114942,"Delta":301295117},{"NoteNumber":48,"Velocity":46,"Duration":114942,"SoundDuration":114942,"Delta":301410059},{"NoteNumber":50,"Velocity":46,"Duration":114942,"SoundDuration":114942,"Delta":301525002},{"NoteNumber":82,"Velocity":64,"Duration":122323,"SoundDuration":122323,"Delta":301639945},{"NoteNumber":52,"Velocity":55,"Duration":179795,"SoundDuration":179795,"Delta":301639945},{"NoteNumber":81,"Velocity":57,"Duration":114942,"SoundDuration":114942,"Delta":301762269},{"NoteNumber":79,"Velocity":57,"Duration":114942,"SoundDuration":114942,"Delta":301877211},{"NoteNumber":86,"Velocity":63,"Duration":114942,"SoundDuration":114942,"Delta":301992154},{"NoteNumber":60,"Velocity":55,"Duration":86207,"SoundDuration":86207,"Delta":301992154},{"NoteNumber":52,"Velocity":46,"Duration":86207,"SoundDuration":86207,"Delta":301992154},{"NoteNumber":84,"Velocity":58,"Duration":114942,"SoundDuration":114942,"Delta":302107097},{"NoteNumber":60,"Velocity":50,"Duration":91255,"SoundDuration":91255,"Delta":302164568},{"NoteNumber":52,"Velocity":42,"Duration":91255,"SoundDuration":91255,"Delta":302164568},{"NoteNumber":82,"Velocity":58,"Duration":135134,"SoundDuration":135134,"Delta":302222039},{"NoteNumber":81,"Velocity":63,"Duration":114942,"SoundDuration":114942,"Delta":302357174},{"NoteNumber":53,"Velocity":46,"Duration":344828,"SoundDuration":344828,"Delta":302357174},{"NoteNumber":60,"Velocity":55,"Duration":344828,"SoundDuration":344828,"Delta":302357174},{"NoteNumber":79,"Velocity":57,"Duration":114942,"SoundDuration":114942,"Delta":302472117},{"NoteNumber":77,"Velocity":58,"Duration":114942,"SoundDuration":114942,"Delta":302587060},{"NoteNumber":76,"Velocity":65,"Duration":114942,"SoundDuration":114942,"Delta":302702002},{"NoteNumber":57,"Velocity":53,"Duration":172414,"SoundDuration":172414,"Delta":302702002},{"NoteNumber":74,"Velocity":54,"Duration":114942,"SoundDuration":114942,"Delta":302816945},{"NoteNumber":72,"Velocity":54,"Duration":134228,"SoundDuration":134228,"Delta":302931888},{"NoteNumber":70,"Velocity":61,"Duration":114285,"SoundDuration":114285,"Delta":303066116},{"NoteNumber":43,"Velocity":46,"Duration":85714,"SoundDuration":85714,"Delta":303066116},{"NoteNumber":48,"Velocity":55,"Duration":85714,"SoundDuration":85714,"Delta":303066116},{"NoteNumber":69,"Velocity":52,"Duration":114285,"SoundDuration":114285,"Delta":303180402},{"NoteNumber":67,"Velocity":52,"Duration":114285,"SoundDuration":114285,"Delta":303294687},{"NoteNumber":74,"Velocity":61,"Duration":114285,"SoundDuration":114285,"Delta":303408973},{"NoteNumber":40,"Velocity":43,"Duration":85714,"SoundDuration":85714,"Delta":303408973},{"NoteNumber":48,"Velocity":51,"Duration":85714,"SoundDuration":85714,"Delta":303408973},{"NoteNumber":72,"Velocity":54,"Duration":114285,"SoundDuration":114285,"Delta":303523259},{"NoteNumber":70,"Velocity":54,"Duration":125392,"SoundDuration":125392,"Delta":303637544},{"NoteNumber":65,"Velocity":57,"Duration":697467,"SoundDuration":697467,"Delta":303762936},{"NoteNumber":77,"Velocity":68,"Duration":697467,"SoundDuration":697467,"Delta":303762936},{"NoteNumber":72,"Velocity":57,"Duration":697467,"SoundDuration":697467,"Delta":303762936},{"NoteNumber":69,"Velocity":57,"Duration":697467,"SoundDuration":697467,"Delta":303762936},{"NoteNumber":41,"Velocity":76,"Duration":119403,"SoundDuration":119403,"Delta":303762936},{"NoteNumber":43,"Velocity":46,"Duration":116618,"SoundDuration":116618,"Delta":303882339},{"NoteNumber":45,"Velocity":46,"Duration":116617,"SoundDuration":116617,"Delta":303998957},{"NoteNumber":46,"Velocity":54,"Duration":114942,"SoundDuration":114942,"Delta":304115575},{"NoteNumber":48,"Velocity":46,"Duration":114942,"SoundDuration":114942,"Delta":304230518},{"NoteNumber":50,"Velocity":46,"Duration":114942,"SoundDuration":114942,"Delta":304345461},{"NoteNumber":82,"Velocity":64,"Duration":122323,"SoundDuration":122323,"Delta":304460403},{"NoteNumber":52,"Velocity":55,"Duration":179795,"SoundDuration":179795,"Delta":304460403},{"NoteNumber":81,"Velocity":57,"Duration":114942,"SoundDuration":114942,"Delta":304582727},{"NoteNumber":79,"Velocity":57,"Duration":114942,"SoundDuration":114942,"Delta":304697670},{"NoteNumber":86,"Velocity":63,"Duration":114942,"SoundDuration":114942,"Delta":304812613},{"NoteNumber":60,"Velocity":55,"Duration":86207,"SoundDuration":86207,"Delta":304812613},{"NoteNumber":52,"Velocity":46,"Duration":86207,"SoundDuration":86207,"Delta":304812613},{"NoteNumber":84,"Velocity":58,"Duration":114942,"SoundDuration":114942,"Delta":304927555},{"NoteNumber":60,"Velocity":50,"Duration":91255,"SoundDuration":91255,"Delta":304985027},{"NoteNumber":52,"Velocity":42,"Duration":91255,"SoundDuration":91255,"Delta":304985027},{"NoteNumber":82,"Velocity":58,"Duration":135134,"SoundDuration":135134,"Delta":305042498},{"NoteNumber":81,"Velocity":63,"Duration":114942,"SoundDuration":114942,"Delta":305177633},{"NoteNumber":53,"Velocity":46,"Duration":344828,"SoundDuration":344828,"Delta":305177633},{"NoteNumber":60,"Velocity":55,"Duration":344828,"SoundDuration":344828,"Delta":305177633},{"NoteNumber":79,"Velocity":57,"Duration":114942,"SoundDuration":114942,"Delta":305292576},{"NoteNumber":77,"Velocity":58,"Duration":114942,"SoundDuration":114942,"Delta":305407518},{"NoteNumber":76,"Velocity":65,"Duration":114942,"SoundDuration":114942,"Delta":305522461},{"NoteNumber":57,"Velocity":53,"Duration":172414,"SoundDuration":172414,"Delta":305522461},{"NoteNumber":74,"Velocity":54,"Duration":114942,"SoundDuration":114942,"Delta":305637404},{"NoteNumber":72,"Velocity":54,"Duration":134228,"SoundDuration":134228,"Delta":305752346},{"NoteNumber":70,"Velocity":61,"Duration":114285,"SoundDuration":114285,"Delta":305886575},{"NoteNumber":43,"Velocity":46,"Duration":85714,"SoundDuration":85714,"Delta":305886575},{"NoteNumber":48,"Velocity":55,"Duration":85714,"SoundDuration":85714,"Delta":305886575},{"NoteNumber":69,"Velocity":52,"Duration":114285,"SoundDuration":114285,"Delta":306000860},{"NoteNumber":67,"Velocity":52,"Duration":114285,"SoundDuration":114285,"Delta":306115146},{"NoteNumber":74,"Velocity":61,"Duration":114285,"SoundDuration":114285,"Delta":306229432},{"NoteNumber":40,"Velocity":43,"Duration":85714,"SoundDuration":85714,"Delta":306229432},{"NoteNumber":48,"Velocity":51,"Duration":85714,"SoundDuration":85714,"Delta":306229432},{"NoteNumber":72,"Velocity":54,"Duration":114285,"SoundDuration":114285,"Delta":306343717},{"NoteNumber":70,"Velocity":54,"Duration":125392,"SoundDuration":125392,"Delta":306458003},{"NoteNumber":69,"Velocity":61,"Duration":115273,"SoundDuration":115273,"Delta":306583395},{"NoteNumber":41,"Velocity":46,"Duration":345821,"SoundDuration":345821,"Delta":306583395},{"NoteNumber":48,"Velocity":55,"Duration":345821,"SoundDuration":345821,"Delta":306583395},{"NoteNumber":67,"Velocity":50,"Duration":115273,"SoundDuration":115273,"Delta":306698669},{"NoteNumber":65,"Velocity":51,"Duration":115273,"SoundDuration":115273,"Delta":306813942},{"NoteNumber":64,"Velocity":58,"Duration":115273,"SoundDuration":115273,"Delta":306929216},{"NoteNumber":45,"Velocity":51,"Duration":172910,"SoundDuration":172910,"Delta":306929216},{"NoteNumber":62,"Velocity":44,"Duration":115273,"SoundDuration":115273,"Delta":307044490},{"NoteNumber":60,"Velocity":44,"Duration":123077,"SoundDuration":123077,"Delta":307159763},{"NoteNumber":58,"Velocity":51,"Duration":114285,"SoundDuration":114285,"Delta":307282840},{"NoteNumber":46,"Velocity":43,"Duration":114285,"SoundDuration":114285,"Delta":307282840},{"NoteNumber":57,"Velocity":46,"Duration":114285,"SoundDuration":114285,"Delta":307397126},{"NoteNumber":45,"Velocity":39,"Duration":114285,"SoundDuration":114285,"Delta":307397126},{"NoteNumber":55,"Velocity":46,"Duration":114285,"SoundDuration":114285,"Delta":307511412},{"NoteNumber":43,"Velocity":39,"Duration":114285,"SoundDuration":114285,"Delta":307511412},{"NoteNumber":61,"Velocity":52,"Duration":114285,"SoundDuration":114285,"Delta":307625697},{"NoteNumber":49,"Velocity":44,"Duration":114285,"SoundDuration":114285,"Delta":307625697},{"NoteNumber":60,"Velocity":46,"Duration":114285,"SoundDuration":114285,"Delta":307739983},{"NoteNumber":48,"Velocity":39,"Duration":114285,"SoundDuration":114285,"Delta":307739983},{"NoteNumber":58,"Velocity":46,"Duration":114257,"SoundDuration":114257,"Delta":307854269},{"NoteNumber":46,"Velocity":39,"Duration":114257,"SoundDuration":114257,"Delta":307854269},{"NoteNumber":61,"Velocity":52,"Duration":113429,"SoundDuration":113429,"Delta":307968526},{"NoteNumber":49,"Velocity":44,"Duration":113429,"SoundDuration":113429,"Delta":307968526},{"NoteNumber":60,"Velocity":47,"Duration":112765,"SoundDuration":112765,"Delta":308081955},{"NoteNumber":48,"Velocity":39,"Duration":112765,"SoundDuration":112765,"Delta":308081955},{"NoteNumber":58,"Velocity":48,"Duration":112106,"SoundDuration":112106,"Delta":308194721},{"NoteNumber":46,"Velocity":39,"Duration":112106,"SoundDuration":112106,"Delta":308194721},{"NoteNumber":61,"Velocity":57,"Duration":111421,"SoundDuration":111421,"Delta":308306827},{"NoteNumber":49,"Velocity":49,"Duration":111421,"SoundDuration":111421,"Delta":308306827},{"NoteNumber":60,"Velocity":51,"Duration":111111,"SoundDuration":111111,"Delta":308418248},{"NoteNumber":48,"Velocity":44,"Duration":111111,"SoundDuration":111111,"Delta":308418248},{"NoteNumber":58,"Velocity":53,"Duration":111110,"SoundDuration":111110,"Delta":308529359},{"NoteNumber":46,"Velocity":48,"Duration":111110,"SoundDuration":111110,"Delta":308529359},{"NoteNumber":61,"Velocity":63,"Duration":111110,"SoundDuration":111110,"Delta":308640470},{"NoteNumber":49,"Velocity":55,"Duration":111110,"SoundDuration":111110,"Delta":308640470},{"NoteNumber":60,"Velocity":59,"Duration":111110,"SoundDuration":111110,"Delta":308751581},{"NoteNumber":48,"Velocity":46,"Duration":111110,"SoundDuration":111110,"Delta":308751581},{"NoteNumber":58,"Velocity":53,"Duration":111061,"SoundDuration":111061,"Delta":308862692},{"NoteNumber":46,"Velocity":42,"Duration":111061,"SoundDuration":111061,"Delta":308862692},{"NoteNumber":61,"Velocity":57,"Duration":111212,"SoundDuration":111212,"Delta":308973753},{"NoteNumber":49,"Velocity":49,"Duration":111212,"SoundDuration":111212,"Delta":308973753},{"NoteNumber":60,"Velocity":51,"Duration":112145,"SoundDuration":112145,"Delta":309084965},{"NoteNumber":48,"Velocity":39,"Duration":112145,"SoundDuration":112145,"Delta":309084965},{"NoteNumber":59,"Velocity":48,"Duration":113099,"SoundDuration":113099,"Delta":309197111},{"NoteNumber":47,"Velocity":39,"Duration":113099,"SoundDuration":113099,"Delta":309197111},{"NoteNumber":60,"Velocity":57,"Duration":114460,"SoundDuration":114460,"Delta":309310210},{"NoteNumber":48,"Velocity":37,"Duration":683821,"SoundDuration":683821,"Delta":309310210},{"NoteNumber":51,"Velocity":37,"Duration":683821,"SoundDuration":683821,"Delta":309310210},{"NoteNumber":56,"Velocity":44,"Duration":683821,"SoundDuration":683821,"Delta":309310210},{"NoteNumber":61,"Velocity":43,"Duration":114402,"SoundDuration":114402,"Delta":309424671},{"NoteNumber":63,"Velocity":43,"Duration":114141,"SoundDuration":114141,"Delta":309539073},{"NoteNumber":65,"Velocity":51,"Duration":113881,"SoundDuration":113881,"Delta":309653214},{"NoteNumber":67,"Velocity":43,"Duration":113622,"SoundDuration":113622,"Delta":309767096},{"NoteNumber":68,"Velocity":43,"Duration":113314,"SoundDuration":113314,"Delta":309880718},{"NoteNumber":70,"Velocity":49,"Duration":113044,"SoundDuration":113044,"Delta":309994032},{"NoteNumber":51,"Velocity":34,"Duration":682860,"SoundDuration":682860,"Delta":309994032},{"NoteNumber":55,"Velocity":34,"Duration":682860,"SoundDuration":682860,"Delta":309994032},{"NoteNumber":61,"Velocity":41,"Duration":682860,"SoundDuration":682860,"Delta":309994032},{"NoteNumber":58,"Velocity":34,"Duration":682860,"SoundDuration":682860,"Delta":309994032},{"NoteNumber":72,"Velocity":43,"Duration":112994,"SoundDuration":112994,"Delta":310107077},{"NoteNumber":73,"Velocity":43,"Duration":112994,"SoundDuration":112994,"Delta":310220071},{"NoteNumber":75,"Velocity":50,"Duration":113574,"SoundDuration":113574,"Delta":310333065},{"NoteNumber":77,"Velocity":43,"Duration":114603,"SoundDuration":114603,"Delta":310446640},{"NoteNumber":79,"Velocity":43,"Duration":115649,"SoundDuration":115649,"Delta":310561243},{"NoteNumber":68,"Velocity":45,"Duration":697467,"SoundDuration":697467,"Delta":310676893},{"NoteNumber":80,"Velocity":53,"Duration":697467,"SoundDuration":697467,"Delta":310676893},{"NoteNumber":75,"Velocity":45,"Duration":697467,"SoundDuration":697467,"Delta":310676893},{"NoteNumber":72,"Velocity":45,"Duration":697467,"SoundDuration":697467,"Delta":310676893},{"NoteNumber":44,"Velocity":52,"Duration":119403,"SoundDuration":119403,"Delta":310676893},{"NoteNumber":46,"Velocity":34,"Duration":116618,"SoundDuration":116618,"Delta":310796296},{"NoteNumber":48,"Velocity":34,"Duration":116617,"SoundDuration":116617,"Delta":310912914},{"NoteNumber":49,"Velocity":40,"Duration":114942,"SoundDuration":114942,"Delta":311029532},{"NoteNumber":51,"Velocity":34,"Duration":114942,"SoundDuration":114942,"Delta":311144474},{"NoteNumber":53,"Velocity":34,"Duration":114942,"SoundDuration":114942,"Delta":311259417},{"NoteNumber":85,"Velocity":48,"Duration":122323,"SoundDuration":122323,"Delta":311374360},{"NoteNumber":55,"Velocity":41,"Duration":179795,"SoundDuration":179795,"Delta":311374360},{"NoteNumber":84,"Velocity":42,"Duration":114942,"SoundDuration":114942,"Delta":311496684},{"NoteNumber":82,"Velocity":42,"Duration":114942,"SoundDuration":114942,"Delta":311611626},{"NoteNumber":89,"Velocity":47,"Duration":114942,"SoundDuration":114942,"Delta":311726569},{"NoteNumber":63,"Velocity":41,"Duration":86207,"SoundDuration":86207,"Delta":311726569},{"NoteNumber":55,"Velocity":34,"Duration":86207,"SoundDuration":86207,"Delta":311726569},{"NoteNumber":87,"Velocity":43,"Duration":114942,"SoundDuration":114942,"Delta":311841512},{"NoteNumber":63,"Velocity":37,"Duration":91255,"SoundDuration":91255,"Delta":311898983},{"NoteNumber":55,"Velocity":31,"Duration":91255,"SoundDuration":91255,"Delta":311898983},{"NoteNumber":85,"Velocity":43,"Duration":135134,"SoundDuration":135134,"Delta":311956454},{"NoteNumber":84,"Velocity":47,"Duration":114942,"SoundDuration":114942,"Delta":312091589},{"NoteNumber":56,"Velocity":34,"Duration":344828,"SoundDuration":344828,"Delta":312091589},{"NoteNumber":63,"Velocity":41,"Duration":344828,"SoundDuration":344828,"Delta":312091589},{"NoteNumber":82,"Velocity":42,"Duration":114942,"SoundDuration":114942,"Delta":312206532},{"NoteNumber":80,"Velocity":43,"Duration":114942,"SoundDuration":114942,"Delta":312321475},{"NoteNumber":79,"Velocity":48,"Duration":114942,"SoundDuration":114942,"Delta":312436417},{"NoteNumber":60,"Velocity":39,"Duration":172414,"SoundDuration":172414,"Delta":312436417},{"NoteNumber":77,"Velocity":40,"Duration":114942,"SoundDuration":114942,"Delta":312551360},{"NoteNumber":75,"Velocity":40,"Duration":134228,"SoundDuration":134228,"Delta":312666303},{"NoteNumber":73,"Velocity":45,"Duration":114285,"SoundDuration":114285,"Delta":312800531},{"NoteNumber":46,"Velocity":34,"Duration":85714,"SoundDuration":85714,"Delta":312800531},{"NoteNumber":51,"Velocity":41,"Duration":85714,"SoundDuration":85714,"Delta":312800531},{"NoteNumber":72,"Velocity":39,"Duration":114285,"SoundDuration":114285,"Delta":312914817},{"NoteNumber":70,"Velocity":39,"Duration":114285,"SoundDuration":114285,"Delta":313029102},{"NoteNumber":77,"Velocity":45,"Duration":114285,"SoundDuration":114285,"Delta":313143388},{"NoteNumber":43,"Velocity":32,"Duration":85714,"SoundDuration":85714,"Delta":313143388},{"NoteNumber":51,"Velocity":38,"Duration":85714,"SoundDuration":85714,"Delta":313143388},{"NoteNumber":75,"Velocity":40,"Duration":114285,"SoundDuration":114285,"Delta":313257674},{"NoteNumber":73,"Velocity":40,"Duration":125392,"SoundDuration":125392,"Delta":313371959},{"NoteNumber":68,"Velocity":45,"Duration":697467,"SoundDuration":697467,"Delta":313497351},{"NoteNumber":80,"Velocity":53,"Duration":697467,"SoundDuration":697467,"Delta":313497351},{"NoteNumber":75,"Velocity":45,"Duration":697467,"SoundDuration":697467,"Delta":313497351},{"NoteNumber":72,"Velocity":45,"Duration":697467,"SoundDuration":697467,"Delta":313497351},{"NoteNumber":44,"Velocity":52,"Duration":119403,"SoundDuration":119403,"Delta":313497351},{"NoteNumber":46,"Velocity":34,"Duration":116618,"SoundDuration":116618,"Delta":313616754},{"NoteNumber":48,"Velocity":34,"Duration":116617,"SoundDuration":116617,"Delta":313733372},{"NoteNumber":49,"Velocity":40,"Duration":114942,"SoundDuration":114942,"Delta":313849990},{"NoteNumber":51,"Velocity":34,"Duration":114942,"SoundDuration":114942,"Delta":313964933},{"NoteNumber":53,"Velocity":34,"Duration":114942,"SoundDuration":114942,"Delta":314079876},{"NoteNumber":85,"Velocity":48,"Duration":122323,"SoundDuration":122323,"Delta":314194818},{"NoteNumber":55,"Velocity":41,"Duration":179795,"SoundDuration":179795,"Delta":314194818},{"NoteNumber":84,"Velocity":42,"Duration":114942,"SoundDuration":114942,"Delta":314317142},{"NoteNumber":82,"Velocity":42,"Duration":114942,"SoundDuration":114942,"Delta":314432085},{"NoteNumber":89,"Velocity":47,"Duration":114942,"SoundDuration":114942,"Delta":314547028},{"NoteNumber":63,"Velocity":41,"Duration":86207,"SoundDuration":86207,"Delta":314547028},{"NoteNumber":55,"Velocity":34,"Duration":86207,"SoundDuration":86207,"Delta":314547028},{"NoteNumber":87,"Velocity":43,"Duration":114942,"SoundDuration":114942,"Delta":314661970},{"NoteNumber":63,"Velocity":37,"Duration":91255,"SoundDuration":91255,"Delta":314719442},{"NoteNumber":55,"Velocity":31,"Duration":91255,"SoundDuration":91255,"Delta":314719442},{"NoteNumber":85,"Velocity":43,"Duration":135134,"SoundDuration":135134,"Delta":314776913},{"NoteNumber":84,"Velocity":47,"Duration":114942,"SoundDuration":114942,"Delta":314912048},{"NoteNumber":56,"Velocity":34,"Duration":344828,"SoundDuration":344828,"Delta":314912048},{"NoteNumber":63,"Velocity":41,"Duration":344828,"SoundDuration":344828,"Delta":314912048},{"NoteNumber":82,"Velocity":42,"Duration":114942,"SoundDuration":114942,"Delta":315026991},{"NoteNumber":80,"Velocity":43,"Duration":114942,"SoundDuration":114942,"Delta":315141933},{"NoteNumber":79,"Velocity":48,"Duration":114942,"SoundDuration":114942,"Delta":315256876},{"NoteNumber":60,"Velocity":39,"Duration":172414,"SoundDuration":172414,"Delta":315256876},{"NoteNumber":77,"Velocity":40,"Duration":114942,"SoundDuration":114942,"Delta":315371819},{"NoteNumber":75,"Velocity":40,"Duration":134228,"SoundDuration":134228,"Delta":315486761},{"NoteNumber":73,"Velocity":45,"Duration":114285,"SoundDuration":114285,"Delta":315620990},{"NoteNumber":46,"Velocity":34,"Duration":85714,"SoundDuration":85714,"Delta":315620990},{"NoteNumber":51,"Velocity":41,"Duration":85714,"SoundDuration":85714,"Delta":315620990},{"NoteNumber":72,"Velocity":39,"Duration":114285,"SoundDuration":114285,"Delta":315735275},{"NoteNumber":70,"Velocity":39,"Duration":114285,"SoundDuration":114285,"Delta":315849561},{"NoteNumber":77,"Velocity":45,"Duration":114285,"SoundDuration":114285,"Delta":315963847},{"NoteNumber":43,"Velocity":32,"Duration":85714,"SoundDuration":85714,"Delta":315963847},{"NoteNumber":51,"Velocity":38,"Duration":85714,"SoundDuration":85714,"Delta":315963847},{"NoteNumber":75,"Velocity":40,"Duration":114285,"SoundDuration":114285,"Delta":316078132},{"NoteNumber":73,"Velocity":40,"Duration":125392,"SoundDuration":125392,"Delta":316192418},{"NoteNumber":72,"Velocity":45,"Duration":115273,"SoundDuration":115273,"Delta":316317810},{"NoteNumber":44,"Velocity":34,"Duration":345821,"SoundDuration":345821,"Delta":316317810},{"NoteNumber":51,"Velocity":41,"Duration":699445,"SoundDuration":699445,"Delta":316317810},{"NoteNumber":70,"Velocity":37,"Duration":115273,"SoundDuration":115273,"Delta":316433084},{"NoteNumber":68,"Velocity":38,"Duration":115273,"SoundDuration":115273,"Delta":316548357},{"NoteNumber":67,"Velocity":43,"Duration":115273,"SoundDuration":115273,"Delta":316663631},{"NoteNumber":48,"Velocity":38,"Duration":172910,"SoundDuration":172910,"Delta":316663631},{"NoteNumber":65,"Velocity":33,"Duration":115273,"SoundDuration":115273,"Delta":316778905},{"NoteNumber":63,"Velocity":33,"Duration":123077,"SoundDuration":123077,"Delta":316894178},{"NoteNumber":61,"Velocity":38,"Duration":114285,"SoundDuration":114285,"Delta":317017255},{"NoteNumber":49,"Velocity":32,"Duration":114285,"SoundDuration":114285,"Delta":317017255},{"NoteNumber":60,"Velocity":34,"Duration":114285,"SoundDuration":114285,"Delta":317131541},{"NoteNumber":48,"Velocity":29,"Duration":114285,"SoundDuration":114285,"Delta":317131541},{"NoteNumber":58,"Velocity":34,"Duration":114285,"SoundDuration":114285,"Delta":317245827},{"NoteNumber":46,"Velocity":29,"Duration":114285,"SoundDuration":114285,"Delta":317245827},{"NoteNumber":64,"Velocity":39,"Duration":114285,"SoundDuration":114285,"Delta":317360112},{"NoteNumber":52,"Velocity":33,"Duration":114285,"SoundDuration":114285,"Delta":317360112},{"NoteNumber":63,"Velocity":34,"Duration":114285,"SoundDuration":114285,"Delta":317474398},{"NoteNumber":51,"Velocity":29,"Duration":114285,"SoundDuration":114285,"Delta":317474398},{"NoteNumber":61,"Velocity":34,"Duration":114257,"SoundDuration":114257,"Delta":317588684},{"NoteNumber":49,"Velocity":29,"Duration":114257,"SoundDuration":114257,"Delta":317588684},{"NoteNumber":64,"Velocity":39,"Duration":113429,"SoundDuration":113429,"Delta":317702941},{"NoteNumber":52,"Velocity":33,"Duration":113429,"SoundDuration":113429,"Delta":317702941},{"NoteNumber":63,"Velocity":35,"Duration":112765,"SoundDuration":112765,"Delta":317816370},{"NoteNumber":51,"Velocity":29,"Duration":112765,"SoundDuration":112765,"Delta":317816370},{"NoteNumber":61,"Velocity":36,"Duration":112106,"SoundDuration":112106,"Delta":317929136},{"NoteNumber":49,"Velocity":29,"Duration":112106,"SoundDuration":112106,"Delta":317929136},{"NoteNumber":64,"Velocity":42,"Duration":111421,"SoundDuration":111421,"Delta":318041242},{"NoteNumber":52,"Velocity":36,"Duration":111421,"SoundDuration":111421,"Delta":318041242},{"NoteNumber":63,"Velocity":38,"Duration":111111,"SoundDuration":111111,"Delta":318152663},{"NoteNumber":51,"Velocity":33,"Duration":111111,"SoundDuration":111111,"Delta":318152663},{"NoteNumber":61,"Velocity":39,"Duration":111110,"SoundDuration":111110,"Delta":318263774},{"NoteNumber":49,"Velocity":36,"Duration":111110,"SoundDuration":111110,"Delta":318263774},{"NoteNumber":64,"Velocity":47,"Duration":111110,"SoundDuration":111110,"Delta":318374885},{"NoteNumber":52,"Velocity":41,"Duration":111110,"SoundDuration":111110,"Delta":318374885},{"NoteNumber":63,"Velocity":44,"Duration":111110,"SoundDuration":111110,"Delta":318485996},{"NoteNumber":51,"Velocity":34,"Duration":111110,"SoundDuration":111110,"Delta":318485996},{"NoteNumber":61,"Velocity":39,"Duration":111061,"SoundDuration":111061,"Delta":318597107},{"NoteNumber":49,"Velocity":31,"Duration":111061,"SoundDuration":111061,"Delta":318597107},{"NoteNumber":64,"Velocity":42,"Duration":111212,"SoundDuration":111212,"Delta":318708168},{"NoteNumber":52,"Velocity":36,"Duration":111212,"SoundDuration":111212,"Delta":318708168},{"NoteNumber":63,"Velocity":38,"Duration":112145,"SoundDuration":112145,"Delta":318819380},{"NoteNumber":51,"Velocity":29,"Duration":112145,"SoundDuration":112145,"Delta":318819380},{"NoteNumber":62,"Velocity":36,"Duration":113256,"SoundDuration":113256,"Delta":318931526},{"NoteNumber":50,"Velocity":29,"Duration":113256,"SoundDuration":113256,"Delta":318931526},{"NoteNumber":63,"Velocity":57,"Duration":113960,"SoundDuration":113960,"Delta":319044783},{"NoteNumber":51,"Velocity":44,"Duration":679511,"SoundDuration":679511,"Delta":319044783},{"NoteNumber":54,"Velocity":44,"Duration":679511,"SoundDuration":679511,"Delta":319044783},{"NoteNumber":59,"Velocity":52,"Duration":679511,"SoundDuration":679511,"Delta":319044783},{"NoteNumber":64,"Velocity":43,"Duration":113636,"SoundDuration":113636,"Delta":319158743},{"NoteNumber":66,"Velocity":46,"Duration":113378,"SoundDuration":113378,"Delta":319272379},{"NoteNumber":68,"Velocity":48,"Duration":113160,"SoundDuration":113160,"Delta":319385758},{"NoteNumber":70,"Velocity":51,"Duration":112904,"SoundDuration":112904,"Delta":319498918},{"NoteNumber":71,"Velocity":53,"Duration":112470,"SoundDuration":112470,"Delta":319611823},{"NoteNumber":73,"Velocity":55,"Duration":112808,"SoundDuration":112808,"Delta":319724294},{"NoteNumber":54,"Velocity":51,"Duration":737417,"SoundDuration":737417,"Delta":319724294},{"NoteNumber":64,"Velocity":60,"Duration":737417,"SoundDuration":737417,"Delta":319724294},{"NoteNumber":61,"Velocity":51,"Duration":737417,"SoundDuration":737417,"Delta":319724294},{"NoteNumber":75,"Velocity":60,"Duration":114160,"SoundDuration":114160,"Delta":319837102},{"NoteNumber":76,"Velocity":64,"Duration":115598,"SoundDuration":115598,"Delta":319951263},{"NoteNumber":78,"Velocity":68,"Duration":118715,"SoundDuration":118715,"Delta":320066862},{"NoteNumber":80,"Velocity":72,"Duration":122642,"SoundDuration":122642,"Delta":320185577},{"NoteNumber":82,"Velocity":76,"Duration":153492,"SoundDuration":153492,"Delta":320308219},{"NoteNumber":71,"Velocity":81,"Duration":678571,"SoundDuration":678571,"Delta":320461711},{"NoteNumber":74,"Velocity":81,"Duration":678571,"SoundDuration":678571,"Delta":320461711},{"NoteNumber":78,"Velocity":81,"Duration":678571,"SoundDuration":678571,"Delta":320461711},{"NoteNumber":83,"Velocity":96,"Duration":678571,"SoundDuration":678571,"Delta":320461711},{"NoteNumber":35,"Velocity":63,"Duration":114285,"SoundDuration":114285,"Delta":320461711},{"NoteNumber":34,"Velocity":52,"Duration":114285,"SoundDuration":114285,"Delta":320575997},{"NoteNumber":35,"Velocity":56,"Duration":114285,"SoundDuration":114285,"Delta":320690283},{"NoteNumber":38,"Velocity":63,"Duration":114285,"SoundDuration":114285,"Delta":320804568},{"NoteNumber":37,"Velocity":53,"Duration":114285,"SoundDuration":114285,"Delta":320918854},{"NoteNumber":35,"Velocity":53,"Duration":114285,"SoundDuration":114285,"Delta":321033140},{"NoteNumber":71,"Velocity":73,"Duration":87158,"SoundDuration":87158,"Delta":321147425},{"NoteNumber":74,"Velocity":73,"Duration":87158,"SoundDuration":87158,"Delta":321147425},{"NoteNumber":78,"Velocity":73,"Duration":87158,"SoundDuration":87158,"Delta":321147425},{"NoteNumber":83,"Velocity":86,"Duration":87158,"SoundDuration":87158,"Delta":321147425},{"NoteNumber":40,"Velocity":63,"Duration":116211,"SoundDuration":116211,"Delta":321147425},{"NoteNumber":38,"Velocity":52,"Duration":116211,"SoundDuration":116211,"Delta":321263637},{"NoteNumber":71,"Velocity":67,"Duration":87158,"SoundDuration":87158,"Delta":321321743},{"NoteNumber":74,"Velocity":67,"Duration":87158,"SoundDuration":87158,"Delta":321321743},{"NoteNumber":78,"Velocity":67,"Duration":87158,"SoundDuration":87158,"Delta":321321743},{"NoteNumber":83,"Velocity":80,"Duration":87158,"SoundDuration":87158,"Delta":321321743},{"NoteNumber":37,"Velocity":52,"Duration":116211,"SoundDuration":116211,"Delta":321379849},{"NoteNumber":71,"Velocity":73,"Duration":85469,"SoundDuration":85469,"Delta":321496060},{"NoteNumber":74,"Velocity":73,"Duration":85469,"SoundDuration":85469,"Delta":321496060},{"NoteNumber":78,"Velocity":73,"Duration":85469,"SoundDuration":85469,"Delta":321496060},{"NoteNumber":83,"Velocity":86,"Duration":85469,"SoundDuration":85469,"Delta":321496060},{"NoteNumber":42,"Velocity":63,"Duration":113960,"SoundDuration":113960,"Delta":321496060},{"NoteNumber":40,"Velocity":55,"Duration":125897,"SoundDuration":125897,"Delta":321610020},{"NoteNumber":71,"Velocity":67,"Duration":103377,"SoundDuration":103377,"Delta":321667000},{"NoteNumber":74,"Velocity":67,"Duration":103377,"SoundDuration":103377,"Delta":321667000},{"NoteNumber":78,"Velocity":67,"Duration":103377,"SoundDuration":103377,"Delta":321667000},{"NoteNumber":83,"Velocity":79,"Duration":103377,"SoundDuration":103377,"Delta":321667000},{"NoteNumber":38,"Velocity":55,"Duration":137835,"SoundDuration":137835,"Delta":321735918},{"NoteNumber":71,"Velocity":81,"Duration":554231,"SoundDuration":554231,"Delta":321873754},{"NoteNumber":74,"Velocity":81,"Duration":362537,"SoundDuration":362537,"Delta":321873754},{"NoteNumber":78,"Velocity":81,"Duration":362537,"SoundDuration":362537,"Delta":321873754},{"NoteNumber":83,"Velocity":95,"Duration":362537,"SoundDuration":362537,"Delta":321873754},{"NoteNumber":47,"Velocity":63,"Duration":120845,"SoundDuration":120845,"Delta":321873754},{"NoteNumber":46,"Velocity":55,"Duration":120846,"SoundDuration":120846,"Delta":321994600},{"NoteNumber":47,"Velocity":55,"Duration":120845,"SoundDuration":120845,"Delta":322115446},{"NoteNumber":74,"Velocity":69,"Duration":191693,"SoundDuration":191693,"Delta":322236292},{"NoteNumber":78,"Velocity":82,"Duration":191693,"SoundDuration":191693,"Delta":322236292},{"NoteNumber":50,"Velocity":63,"Duration":127795,"SoundDuration":127795,"Delta":322236292},{"NoteNumber":49,"Velocity":56,"Duration":127795,"SoundDuration":127795,"Delta":322364088},{"NoteNumber":47,"Velocity":56,"Duration":127795,"SoundDuration":127795,"Delta":322491884},{"NoteNumber":71,"Velocity":77,"Duration":92879,"SoundDuration":92879,"Delta":322619679},{"NoteNumber":73,"Velocity":77,"Duration":92879,"SoundDuration":92879,"Delta":322619679},{"NoteNumber":79,"Velocity":90,"Duration":92879,"SoundDuration":92879,"Delta":322619679},{"NoteNumber":52,"Velocity":63,"Duration":123838,"SoundDuration":123838,"Delta":322619679},{"NoteNumber":50,"Velocity":56,"Duration":123839,"SoundDuration":123839,"Delta":322743518},{"NoteNumber":49,"Velocity":56,"Duration":123838,"SoundDuration":123838,"Delta":322867357},{"NoteNumber":71,"Velocity":64,"Duration":94637,"SoundDuration":94637,"Delta":322991196},{"NoteNumber":73,"Velocity":64,"Duration":94637,"SoundDuration":94637,"Delta":322991196},{"NoteNumber":76,"Velocity":78,"Duration":94637,"SoundDuration":94637,"Delta":322991196},{"NoteNumber":55,"Velocity":63,"Duration":126183,"SoundDuration":126183,"Delta":322991196},{"NoteNumber":54,"Velocity":56,"Duration":126182,"SoundDuration":126182,"Delta":323117379},{"NoteNumber":52,"Velocity":56,"Duration":157109,"SoundDuration":157109,"Delta":323243562},{"NoteNumber":71,"Velocity":75,"Duration":738462,"SoundDuration":738462,"Delta":323400672},{"NoteNumber":74,"Velocity":75,"Duration":738462,"SoundDuration":738462,"Delta":323400672},{"NoteNumber":78,"Velocity":90,"Duration":738462,"SoundDuration":738462,"Delta":323400672},{"NoteNumber":59,"Velocity":70,"Duration":123077,"SoundDuration":123077,"Delta":323400672},{"NoteNumber":58,"Velocity":56,"Duration":123076,"SoundDuration":123076,"Delta":323523749},{"NoteNumber":59,"Velocity":56,"Duration":123077,"SoundDuration":123077,"Delta":323646826},{"NoteNumber":61,"Velocity":60,"Duration":123076,"SoundDuration":123076,"Delta":323769903},{"NoteNumber":62,"Velocity":56,"Duration":123077,"SoundDuration":123077,"Delta":323892980},{"NoteNumber":64,"Velocity":52,"Duration":123077,"SoundDuration":123077,"Delta":324016057},{"NoteNumber":71,"Velocity":69,"Duration":116211,"SoundDuration":116211,"Delta":324139134},{"NoteNumber":62,"Velocity":58,"Duration":87158,"SoundDuration":87158,"Delta":324139134},{"NoteNumber":54,"Velocity":58,"Duration":87158,"SoundDuration":87158,"Delta":324139134},{"NoteNumber":66,"Velocity":69,"Duration":87158,"SoundDuration":87158,"Delta":324139134},{"NoteNumber":70,"Velocity":57,"Duration":116211,"SoundDuration":116211,"Delta":324255345},{"NoteNumber":62,"Velocity":52,"Duration":87158,"SoundDuration":87158,"Delta":324313451},{"NoteNumber":54,"Velocity":52,"Duration":87158,"SoundDuration":87158,"Delta":324313451},{"NoteNumber":66,"Velocity":64,"Duration":87158,"SoundDuration":87158,"Delta":324313451},{"NoteNumber":71,"Velocity":57,"Duration":116211,"SoundDuration":116211,"Delta":324371557},{"NoteNumber":73,"Velocity":69,"Duration":113960,"SoundDuration":113960,"Delta":324487769},{"NoteNumber":62,"Velocity":58,"Duration":85469,"SoundDuration":85469,"Delta":324487769},{"NoteNumber":54,"Velocity":58,"Duration":85469,"SoundDuration":85469,"Delta":324487769},{"NoteNumber":66,"Velocity":69,"Duration":85469,"SoundDuration":85469,"Delta":324487769},{"NoteNumber":71,"Velocity":59,"Duration":125897,"SoundDuration":125897,"Delta":324601729},{"NoteNumber":62,"Velocity":52,"Duration":103377,"SoundDuration":103377,"Delta":324658709},{"NoteNumber":54,"Velocity":52,"Duration":103377,"SoundDuration":103377,"Delta":324658709},{"NoteNumber":66,"Velocity":63,"Duration":103377,"SoundDuration":103377,"Delta":324658709},{"NoteNumber":70,"Velocity":59,"Duration":137835,"SoundDuration":137835,"Delta":324727627},{"NoteNumber":74,"Velocity":69,"Duration":120845,"SoundDuration":120845,"Delta":324865463},{"NoteNumber":54,"Velocity":64,"Duration":554231,"SoundDuration":554231,"Delta":324865463},{"NoteNumber":62,"Velocity":64,"Duration":362537,"SoundDuration":362537,"Delta":324865463},{"NoteNumber":66,"Velocity":75,"Duration":362537,"SoundDuration":362537,"Delta":324865463},{"NoteNumber":73,"Velocity":61,"Duration":120846,"SoundDuration":120846,"Delta":324986309},{"NoteNumber":71,"Velocity":61,"Duration":120845,"SoundDuration":120845,"Delta":325107155},{"NoteNumber":78,"Velocity":69,"Duration":127795,"SoundDuration":127795,"Delta":325228001},{"NoteNumber":59,"Velocity":55,"Duration":191693,"SoundDuration":191693,"Delta":325228001},{"NoteNumber":62,"Velocity":65,"Duration":191693,"SoundDuration":191693,"Delta":325228001},{"NoteNumber":76,"Velocity":62,"Duration":127795,"SoundDuration":127795,"Delta":325355796},{"NoteNumber":74,"Velocity":62,"Duration":127795,"SoundDuration":127795,"Delta":325483592},{"NoteNumber":79,"Velocity":69,"Duration":123838,"SoundDuration":123838,"Delta":325611388},{"NoteNumber":54,"Velocity":60,"Duration":92879,"SoundDuration":92879,"Delta":325611388},{"NoteNumber":59,"Velocity":60,"Duration":92879,"SoundDuration":92879,"Delta":325611388},{"NoteNumber":61,"Velocity":72,"Duration":92879,"SoundDuration":92879,"Delta":325611388},{"NoteNumber":78,"Velocity":60,"Duration":123839,"SoundDuration":123839,"Delta":325735227},{"NoteNumber":76,"Velocity":60,"Duration":123838,"SoundDuration":123838,"Delta":325859066},{"NoteNumber":82,"Velocity":69,"Duration":126183,"SoundDuration":126183,"Delta":325982905},{"NoteNumber":54,"Velocity":50,"Duration":94637,"SoundDuration":94637,"Delta":325982905},{"NoteNumber":58,"Velocity":50,"Duration":94637,"SoundDuration":94637,"Delta":325982905},{"NoteNumber":66,"Velocity":62,"Duration":94637,"SoundDuration":94637,"Delta":325982905},{"NoteNumber":80,"Velocity":60,"Duration":126182,"SoundDuration":126182,"Delta":326109088},{"NoteNumber":78,"Velocity":60,"Duration":126183,"SoundDuration":126183,"Delta":326235271},{"NoteNumber":71,"Velocity":73,"Duration":682836,"SoundDuration":682836,"Delta":326361454},{"NoteNumber":74,"Velocity":73,"Duration":682836,"SoundDuration":682836,"Delta":326361454},{"NoteNumber":78,"Velocity":73,"Duration":682836,"SoundDuration":682836,"Delta":326361454},{"NoteNumber":83,"Velocity":73,"Duration":682836,"SoundDuration":682836,"Delta":326361454},{"NoteNumber":35,"Velocity":68,"Duration":114285,"SoundDuration":114285,"Delta":326361454},{"NoteNumber":34,"Velocity":48,"Duration":114285,"SoundDuration":114285,"Delta":326475739},{"NoteNumber":35,"Velocity":51,"Duration":114285,"SoundDuration":114285,"Delta":326590025},{"NoteNumber":38,"Velocity":68,"Duration":114285,"SoundDuration":114285,"Delta":326704311},{"NoteNumber":37,"Velocity":49,"Duration":114285,"SoundDuration":114285,"Delta":326818596},{"NoteNumber":35,"Velocity":49,"Duration":118835,"SoundDuration":118835,"Delta":326932882},{"NoteNumber":40,"Velocity":67,"Duration":113765,"SoundDuration":113765,"Delta":327051717},{"NoteNumber":38,"Velocity":48,"Duration":113765,"SoundDuration":113765,"Delta":327165483},{"NoteNumber":37,"Velocity":48,"Duration":113765,"SoundDuration":113765,"Delta":327279249},{"NoteNumber":43,"Velocity":67,"Duration":113953,"SoundDuration":113953,"Delta":327389459},{"NoteNumber":42,"Velocity":50,"Duration":113959,"SoundDuration":113959,"Delta":327506974},{"NoteNumber":40,"Velocity":50,"Duration":125156,"SoundDuration":125156,"Delta":327620934},{"NoteNumber":59,"Velocity":67,"Duration":114744,"SoundDuration":114744,"Delta":327746091},{"NoteNumber":38,"Velocity":60,"Duration":114744,"SoundDuration":114744,"Delta":327746091},{"NoteNumber":58,"Velocity":50,"Duration":114744,"SoundDuration":114744,"Delta":327860835},{"NoteNumber":37,"Velocity":45,"Duration":114744,"SoundDuration":114744,"Delta":327860835},{"NoteNumber":59,"Velocity":50,"Duration":114744,"SoundDuration":114744,"Delta":327975580},{"NoteNumber":38,"Velocity":45,"Duration":114744,"SoundDuration":114744,"Delta":327975580},{"NoteNumber":62,"Velocity":68,"Duration":114744,"SoundDuration":114744,"Delta":328090325},{"NoteNumber":42,"Velocity":61,"Duration":114744,"SoundDuration":114744,"Delta":328090325},{"NoteNumber":61,"Velocity":51,"Duration":114744,"SoundDuration":114744,"Delta":328205069},{"NoteNumber":40,"Velocity":45,"Duration":114744,"SoundDuration":114744,"Delta":328205069},{"NoteNumber":59,"Velocity":51,"Duration":123228,"SoundDuration":123228,"Delta":328319814},{"NoteNumber":38,"Velocity":45,"Duration":123228,"SoundDuration":123228,"Delta":328319814},{"NoteNumber":64,"Velocity":68,"Duration":114416,"SoundDuration":114416,"Delta":328443043},{"NoteNumber":43,"Velocity":61,"Duration":114416,"SoundDuration":114416,"Delta":328443043},{"NoteNumber":62,"Velocity":51,"Duration":114416,"SoundDuration":114416,"Delta":328557459},{"NoteNumber":42,"Velocity":45,"Duration":114416,"SoundDuration":114416,"Delta":328557459},{"NoteNumber":61,"Velocity":51,"Duration":114416,"SoundDuration":114416,"Delta":328671875},{"NoteNumber":40,"Velocity":45,"Duration":114416,"SoundDuration":114416,"Delta":328671875},{"NoteNumber":67,"Velocity":69,"Duration":114416,"SoundDuration":114416,"Delta":328786292},{"NoteNumber":46,"Velocity":62,"Duration":114416,"SoundDuration":114416,"Delta":328786292},{"NoteNumber":66,"Velocity":51,"Duration":114416,"SoundDuration":114416,"Delta":328900708},{"NoteNumber":45,"Velocity":45,"Duration":114416,"SoundDuration":114416,"Delta":328900708},{"NoteNumber":64,"Velocity":51,"Duration":114416,"SoundDuration":114416,"Delta":329015124},{"NoteNumber":43,"Velocity":45,"Duration":114416,"SoundDuration":114416,"Delta":329015124},{"NoteNumber":66,"Velocity":67,"Duration":114744,"SoundDuration":114744,"Delta":329129541},{"NoteNumber":45,"Velocity":60,"Duration":114744,"SoundDuration":114744,"Delta":329129541},{"NoteNumber":65,"Velocity":50,"Duration":114744,"SoundDuration":114744,"Delta":329244285},{"NoteNumber":44,"Velocity":45,"Duration":114744,"SoundDuration":114744,"Delta":329244285},{"NoteNumber":66,"Velocity":50,"Duration":114744,"SoundDuration":114744,"Delta":329359030},{"NoteNumber":45,"Velocity":45,"Duration":114744,"SoundDuration":114744,"Delta":329359030},{"NoteNumber":69,"Velocity":68,"Duration":114744,"SoundDuration":114744,"Delta":329473775},{"NoteNumber":42,"Velocity":61,"Duration":114744,"SoundDuration":114744,"Delta":329473775},{"NoteNumber":68,"Velocity":51,"Duration":114744,"SoundDuration":114744,"Delta":329588519},{"NoteNumber":41,"Velocity":45,"Duration":114744,"SoundDuration":114744,"Delta":329588519},{"NoteNumber":69,"Velocity":51,"Duration":123228,"SoundDuration":123228,"Delta":329703264},{"NoteNumber":42,"Velocity":45,"Duration":123228,"SoundDuration":123228,"Delta":329703264},{"NoteNumber":72,"Velocity":68,"Duration":114416,"SoundDuration":114416,"Delta":329826493},{"NoteNumber":39,"Velocity":61,"Duration":114416,"SoundDuration":114416,"Delta":329826493},{"NoteNumber":71,"Velocity":51,"Duration":114416,"SoundDuration":114416,"Delta":329940909},{"NoteNumber":38,"Velocity":45,"Duration":114416,"SoundDuration":114416,"Delta":329940909},{"NoteNumber":72,"Velocity":51,"Duration":114416,"SoundDuration":114416,"Delta":330055325},{"NoteNumber":39,"Velocity":45,"Duration":114416,"SoundDuration":114416,"Delta":330055325},{"NoteNumber":75,"Velocity":69,"Duration":114416,"SoundDuration":114416,"Delta":330169742},{"NoteNumber":36,"Velocity":62,"Duration":114416,"SoundDuration":114416,"Delta":330169742},{"NoteNumber":74,"Velocity":51,"Duration":114416,"SoundDuration":114416,"Delta":330284158},{"NoteNumber":35,"Velocity":45,"Duration":114416,"SoundDuration":114416,"Delta":330284158},{"NoteNumber":75,"Velocity":51,"Duration":122850,"SoundDuration":122850,"Delta":330398574},{"NoteNumber":36,"Velocity":45,"Duration":122850,"SoundDuration":122850,"Delta":330398574},{"NoteNumber":78,"Velocity":89,"Duration":178252,"SoundDuration":178252,"Delta":330521424},{"NoteNumber":33,"Velocity":70,"Duration":178252,"SoundDuration":178252,"Delta":330521424},{"NoteNumber":72,"Velocity":68,"Duration":365185,"SoundDuration":365185,"Delta":330877930},{"NoteNumber":75,"Velocity":68,"Duration":365185,"SoundDuration":365185,"Delta":330877930},{"NoteNumber":78,"Velocity":68,"Duration":365185,"SoundDuration":365185,"Delta":330877930},{"NoteNumber":84,"Velocity":81,"Duration":365185,"SoundDuration":365185,"Delta":330877930},{"NoteNumber":80,"Velocity":68,"Duration":365185,"SoundDuration":365185,"Delta":330877930},{"NoteNumber":32,"Velocity":62,"Duration":121728,"SoundDuration":121728,"Delta":330877930},{"NoteNumber":31,"Velocity":57,"Duration":121728,"SoundDuration":121728,"Delta":330999659},{"NoteNumber":32,"Velocity":57,"Duration":114120,"SoundDuration":114120,"Delta":331121388},{"NoteNumber":72,"Velocity":68,"Duration":365185,"SoundDuration":365185,"Delta":331243116},{"NoteNumber":75,"Velocity":68,"Duration":365185,"SoundDuration":365185,"Delta":331243116},{"NoteNumber":78,"Velocity":68,"Duration":365185,"SoundDuration":365185,"Delta":331243116},{"NoteNumber":84,"Velocity":81,"Duration":365185,"SoundDuration":365185,"Delta":331243116},{"NoteNumber":80,"Velocity":68,"Duration":365185,"SoundDuration":365185,"Delta":331243116},{"NoteNumber":32,"Velocity":62,"Duration":121728,"SoundDuration":121728,"Delta":331243116},{"NoteNumber":31,"Velocity":57,"Duration":121728,"SoundDuration":121728,"Delta":331364845},{"NoteNumber":32,"Velocity":57,"Duration":114120,"SoundDuration":114120,"Delta":331486574},{"NoteNumber":72,"Velocity":68,"Duration":372352,"SoundDuration":372352,"Delta":331608302},{"NoteNumber":75,"Velocity":68,"Duration":372352,"SoundDuration":372352,"Delta":331608302},{"NoteNumber":78,"Velocity":68,"Duration":372352,"SoundDuration":372352,"Delta":331608302},{"NoteNumber":84,"Velocity":81,"Duration":372352,"SoundDuration":372352,"Delta":331608302},{"NoteNumber":80,"Velocity":68,"Duration":372352,"SoundDuration":372352,"Delta":331608302},{"NoteNumber":32,"Velocity":62,"Duration":122407,"SoundDuration":122407,"Delta":331608302},{"NoteNumber":31,"Velocity":57,"Duration":124083,"SoundDuration":124083,"Delta":331730710},{"NoteNumber":32,"Velocity":58,"Duration":117938,"SoundDuration":117938,"Delta":331854794},{"NoteNumber":73,"Velocity":81,"Duration":678571,"SoundDuration":678571,"Delta":331980654},{"NoteNumber":76,"Velocity":81,"Duration":678571,"SoundDuration":678571,"Delta":331980654},{"NoteNumber":80,"Velocity":81,"Duration":678571,"SoundDuration":678571,"Delta":331980654},{"NoteNumber":85,"Velocity":96,"Duration":678571,"SoundDuration":678571,"Delta":331980654},{"NoteNumber":37,"Velocity":63,"Duration":114285,"SoundDuration":114285,"Delta":331980654},{"NoteNumber":36,"Velocity":52,"Duration":114285,"SoundDuration":114285,"Delta":332094940},{"NoteNumber":37,"Velocity":56,"Duration":114285,"SoundDuration":114285,"Delta":332209226},{"NoteNumber":40,"Velocity":63,"Duration":114285,"SoundDuration":114285,"Delta":332323511},{"NoteNumber":39,"Velocity":53,"Duration":114285,"SoundDuration":114285,"Delta":332437797},{"NoteNumber":37,"Velocity":53,"Duration":114285,"SoundDuration":114285,"Delta":332552083},{"NoteNumber":73,"Velocity":73,"Duration":87158,"SoundDuration":87158,"Delta":332666368},{"NoteNumber":76,"Velocity":73,"Duration":87158,"SoundDuration":87158,"Delta":332666368},{"NoteNumber":80,"Velocity":73,"Duration":87158,"SoundDuration":87158,"Delta":332666368},{"NoteNumber":85,"Velocity":86,"Duration":87158,"SoundDuration":87158,"Delta":332666368},{"NoteNumber":42,"Velocity":70,"Duration":116211,"SoundDuration":116211,"Delta":332666368},{"NoteNumber":40,"Velocity":52,"Duration":116211,"SoundDuration":116211,"Delta":332782580},{"NoteNumber":73,"Velocity":67,"Duration":87158,"SoundDuration":87158,"Delta":332840686},{"NoteNumber":76,"Velocity":67,"Duration":87158,"SoundDuration":87158,"Delta":332840686},{"NoteNumber":80,"Velocity":67,"Duration":87158,"SoundDuration":87158,"Delta":332840686},{"NoteNumber":85,"Velocity":80,"Duration":87158,"SoundDuration":87158,"Delta":332840686},{"NoteNumber":39,"Velocity":56,"Duration":116211,"SoundDuration":116211,"Delta":332898792},{"NoteNumber":73,"Velocity":73,"Duration":83565,"SoundDuration":83565,"Delta":333015003},{"NoteNumber":76,"Velocity":73,"Duration":83565,"SoundDuration":83565,"Delta":333015003},{"NoteNumber":80,"Velocity":73,"Duration":83565,"SoundDuration":83565,"Delta":333015003},{"NoteNumber":85,"Velocity":86,"Duration":83565,"SoundDuration":83565,"Delta":333015003},{"NoteNumber":44,"Velocity":69,"Duration":111420,"SoundDuration":111420,"Delta":333015003},{"NoteNumber":42,"Velocity":58,"Duration":124628,"SoundDuration":124628,"Delta":333126424},{"NoteNumber":73,"Velocity":67,"Duration":103377,"SoundDuration":103377,"Delta":333182134},{"NoteNumber":76,"Velocity":67,"Duration":103377,"SoundDuration":103377,"Delta":333182134},{"NoteNumber":80,"Velocity":67,"Duration":103377,"SoundDuration":103377,"Delta":333182134},{"NoteNumber":85,"Velocity":79,"Duration":103377,"SoundDuration":103377,"Delta":333182134},{"NoteNumber":40,"Velocity":59,"Duration":137835,"SoundDuration":137835,"Delta":333251052},{"NoteNumber":73,"Velocity":81,"Duration":554231,"SoundDuration":554231,"Delta":333388888},{"NoteNumber":76,"Velocity":81,"Duration":362537,"SoundDuration":362537,"Delta":333388888},{"NoteNumber":80,"Velocity":81,"Duration":362537,"SoundDuration":362537,"Delta":333388888},{"NoteNumber":85,"Velocity":95,"Duration":362537,"SoundDuration":362537,"Delta":333388888},{"NoteNumber":49,"Velocity":74,"Duration":120845,"SoundDuration":120845,"Delta":333388888},{"NoteNumber":48,"Velocity":55,"Duration":120846,"SoundDuration":120846,"Delta":333509734},{"NoteNumber":49,"Velocity":55,"Duration":120845,"SoundDuration":120845,"Delta":333630580},{"NoteNumber":76,"Velocity":69,"Duration":191693,"SoundDuration":191693,"Delta":333751426},{"NoteNumber":80,"Velocity":82,"Duration":191693,"SoundDuration":191693,"Delta":333751426},{"NoteNumber":52,"Velocity":63,"Duration":127795,"SoundDuration":127795,"Delta":333751426},{"NoteNumber":51,"Velocity":56,"Duration":127795,"SoundDuration":127795,"Delta":333879222},{"NoteNumber":49,"Velocity":56,"Duration":127795,"SoundDuration":127795,"Delta":334007018},{"NoteNumber":73,"Velocity":77,"Duration":92879,"SoundDuration":92879,"Delta":334134813},{"NoteNumber":75,"Velocity":77,"Duration":92879,"SoundDuration":92879,"Delta":334134813},{"NoteNumber":81,"Velocity":90,"Duration":92879,"SoundDuration":92879,"Delta":334134813},{"NoteNumber":54,"Velocity":69,"Duration":123838,"SoundDuration":123838,"Delta":334134813},{"NoteNumber":52,"Velocity":56,"Duration":123839,"SoundDuration":123839,"Delta":334258652},{"NoteNumber":51,"Velocity":56,"Duration":123838,"SoundDuration":123838,"Delta":334382491},{"NoteNumber":73,"Velocity":64,"Duration":94637,"SoundDuration":94637,"Delta":334506330},{"NoteNumber":75,"Velocity":64,"Duration":94637,"SoundDuration":94637,"Delta":334506330},{"NoteNumber":78,"Velocity":78,"Duration":94637,"SoundDuration":94637,"Delta":334506330},{"NoteNumber":57,"Velocity":63,"Duration":126183,"SoundDuration":126183,"Delta":334506330},{"NoteNumber":56,"Velocity":56,"Duration":126182,"SoundDuration":126182,"Delta":334632513},{"NoteNumber":54,"Velocity":56,"Duration":157109,"SoundDuration":157109,"Delta":334758696},{"NoteNumber":73,"Velocity":75,"Duration":738462,"SoundDuration":738462,"Delta":334915806},{"NoteNumber":76,"Velocity":75,"Duration":738462,"SoundDuration":738462,"Delta":334915806},{"NoteNumber":80,"Velocity":90,"Duration":738462,"SoundDuration":738462,"Delta":334915806},{"NoteNumber":61,"Velocity":75,"Duration":123077,"SoundDuration":123077,"Delta":334915806},{"NoteNumber":60,"Velocity":56,"Duration":123076,"SoundDuration":123076,"Delta":335038883},{"NoteNumber":61,"Velocity":56,"Duration":123077,"SoundDuration":123077,"Delta":335161960},{"NoteNumber":63,"Velocity":60,"Duration":123076,"SoundDuration":123076,"Delta":335285037},{"NoteNumber":64,"Velocity":56,"Duration":123077,"SoundDuration":123077,"Delta":335408114},{"NoteNumber":66,"Velocity":52,"Duration":123077,"SoundDuration":123077,"Delta":335531191},{"NoteNumber":73,"Velocity":63,"Duration":114942,"SoundDuration":114942,"Delta":335654268},{"NoteNumber":64,"Velocity":58,"Duration":86207,"SoundDuration":86207,"Delta":335654268},{"NoteNumber":56,"Velocity":58,"Duration":86207,"SoundDuration":86207,"Delta":335654268},{"NoteNumber":68,"Velocity":69,"Duration":86207,"SoundDuration":86207,"Delta":335654268},{"NoteNumber":72,"Velocity":52,"Duration":114942,"SoundDuration":114942,"Delta":335769210},{"NoteNumber":64,"Velocity":52,"Duration":86207,"SoundDuration":86207,"Delta":335826682},{"NoteNumber":56,"Velocity":52,"Duration":86207,"SoundDuration":86207,"Delta":335826682},{"NoteNumber":68,"Velocity":64,"Duration":86207,"SoundDuration":86207,"Delta":335826682},{"NoteNumber":73,"Velocity":52,"Duration":114942,"SoundDuration":114942,"Delta":335884153},{"NoteNumber":75,"Velocity":63,"Duration":112359,"SoundDuration":112359,"Delta":335999096},{"NoteNumber":64,"Velocity":58,"Duration":84269,"SoundDuration":84269,"Delta":335999096},{"NoteNumber":56,"Velocity":58,"Duration":84269,"SoundDuration":84269,"Delta":335999096},{"NoteNumber":68,"Velocity":69,"Duration":84269,"SoundDuration":84269,"Delta":335999096},{"NoteNumber":73,"Velocity":54,"Duration":125097,"SoundDuration":125097,"Delta":336111455},{"NoteNumber":64,"Velocity":52,"Duration":103377,"SoundDuration":103377,"Delta":336167635},{"NoteNumber":56,"Velocity":52,"Duration":103377,"SoundDuration":103377,"Delta":336167635},{"NoteNumber":68,"Velocity":63,"Duration":103377,"SoundDuration":103377,"Delta":336167635},{"NoteNumber":72,"Velocity":54,"Duration":137835,"SoundDuration":137835,"Delta":336236553},{"NoteNumber":76,"Velocity":63,"Duration":120845,"SoundDuration":120845,"Delta":336374389},{"NoteNumber":56,"Velocity":64,"Duration":554231,"SoundDuration":554231,"Delta":336374389},{"NoteNumber":64,"Velocity":64,"Duration":362537,"SoundDuration":362537,"Delta":336374389},{"NoteNumber":68,"Velocity":75,"Duration":362537,"SoundDuration":362537,"Delta":336374389},{"NoteNumber":75,"Velocity":56,"Duration":120846,"SoundDuration":120846,"Delta":336495235},{"NoteNumber":73,"Velocity":56,"Duration":120845,"SoundDuration":120845,"Delta":336616081},{"NoteNumber":80,"Velocity":63,"Duration":127795,"SoundDuration":127795,"Delta":336736927},{"NoteNumber":61,"Velocity":55,"Duration":191693,"SoundDuration":191693,"Delta":336736927},{"NoteNumber":64,"Velocity":65,"Duration":191693,"SoundDuration":191693,"Delta":336736927},{"NoteNumber":78,"Velocity":57,"Duration":127795,"SoundDuration":127795,"Delta":336864723},{"NoteNumber":76,"Velocity":57,"Duration":127795,"SoundDuration":127795,"Delta":336992519},{"NoteNumber":81,"Velocity":63,"Duration":123838,"SoundDuration":123838,"Delta":337120314},{"NoteNumber":56,"Velocity":60,"Duration":92879,"SoundDuration":92879,"Delta":337120314},{"NoteNumber":61,"Velocity":60,"Duration":92879,"SoundDuration":92879,"Delta":337120314},{"NoteNumber":63,"Velocity":72,"Duration":92879,"SoundDuration":92879,"Delta":337120314},{"NoteNumber":80,"Velocity":55,"Duration":123839,"SoundDuration":123839,"Delta":337244153},{"NoteNumber":78,"Velocity":55,"Duration":123838,"SoundDuration":123838,"Delta":337367992},{"NoteNumber":84,"Velocity":63,"Duration":126183,"SoundDuration":126183,"Delta":337491831},{"NoteNumber":56,"Velocity":50,"Duration":94637,"SoundDuration":94637,"Delta":337491831},{"NoteNumber":60,"Velocity":50,"Duration":94637,"SoundDuration":94637,"Delta":337491831},{"NoteNumber":68,"Velocity":62,"Duration":94637,"SoundDuration":94637,"Delta":337491831},{"NoteNumber":82,"Velocity":55,"Duration":126182,"SoundDuration":126182,"Delta":337618014},{"NoteNumber":80,"Velocity":55,"Duration":126183,"SoundDuration":126183,"Delta":337744197},{"NoteNumber":73,"Velocity":67,"Duration":682836,"SoundDuration":682836,"Delta":337870380},{"NoteNumber":76,"Velocity":67,"Duration":682836,"SoundDuration":682836,"Delta":337870380},{"NoteNumber":80,"Velocity":67,"Duration":682836,"SoundDuration":682836,"Delta":337870380},{"NoteNumber":85,"Velocity":67,"Duration":682836,"SoundDuration":682836,"Delta":337870380},{"NoteNumber":37,"Velocity":68,"Duration":114285,"SoundDuration":114285,"Delta":337870380},{"NoteNumber":36,"Velocity":48,"Duration":114285,"SoundDuration":114285,"Delta":337984666},{"NoteNumber":37,"Velocity":51,"Duration":114285,"SoundDuration":114285,"Delta":338098952},{"NoteNumber":40,"Velocity":68,"Duration":114285,"SoundDuration":114285,"Delta":338213237},{"NoteNumber":39,"Velocity":49,"Duration":114285,"SoundDuration":114285,"Delta":338327523},{"NoteNumber":37,"Velocity":49,"Duration":118835,"SoundDuration":118835,"Delta":338441809},{"NoteNumber":42,"Velocity":67,"Duration":113765,"SoundDuration":113765,"Delta":338560644},{"NoteNumber":40,"Velocity":48,"Duration":113765,"SoundDuration":113765,"Delta":338674410},{"NoteNumber":39,"Velocity":48,"Duration":113765,"SoundDuration":113765,"Delta":338788175},{"NoteNumber":45,"Velocity":67,"Duration":113959,"SoundDuration":113959,"Delta":338906214},{"NoteNumber":44,"Velocity":50,"Duration":113959,"SoundDuration":113959,"Delta":339015901},{"NoteNumber":42,"Velocity":50,"Duration":125156,"SoundDuration":125156,"Delta":339129861},{"NoteNumber":61,"Velocity":67,"Duration":114744,"SoundDuration":114744,"Delta":339255017},{"NoteNumber":40,"Velocity":60,"Duration":114744,"SoundDuration":114744,"Delta":339255017},{"NoteNumber":60,"Velocity":50,"Duration":114744,"SoundDuration":114744,"Delta":339369762},{"NoteNumber":39,"Velocity":45,"Duration":114744,"SoundDuration":114744,"Delta":339369762},{"NoteNumber":61,"Velocity":50,"Duration":114744,"SoundDuration":114744,"Delta":339484507},{"NoteNumber":40,"Velocity":45,"Duration":114744,"SoundDuration":114744,"Delta":339484507},{"NoteNumber":64,"Velocity":68,"Duration":114744,"SoundDuration":114744,"Delta":339599251},{"NoteNumber":44,"Velocity":61,"Duration":114744,"SoundDuration":114744,"Delta":339599251},{"NoteNumber":63,"Velocity":51,"Duration":114744,"SoundDuration":114744,"Delta":339713996},{"NoteNumber":42,"Velocity":45,"Duration":114744,"SoundDuration":114744,"Delta":339713996},{"NoteNumber":61,"Velocity":51,"Duration":123228,"SoundDuration":123228,"Delta":339828741},{"NoteNumber":40,"Velocity":45,"Duration":123228,"SoundDuration":123228,"Delta":339828741},{"NoteNumber":66,"Velocity":68,"Duration":114416,"SoundDuration":114416,"Delta":339951969},{"NoteNumber":45,"Velocity":61,"Duration":114416,"SoundDuration":114416,"Delta":339951969},{"NoteNumber":64,"Velocity":51,"Duration":114416,"SoundDuration":114416,"Delta":340066386},{"NoteNumber":44,"Velocity":45,"Duration":114416,"SoundDuration":114416,"Delta":340066386},{"NoteNumber":63,"Velocity":51,"Duration":114416,"SoundDuration":114416,"Delta":340180802},{"NoteNumber":42,"Velocity":45,"Duration":114416,"SoundDuration":114416,"Delta":340180802},{"NoteNumber":69,"Velocity":69,"Duration":114416,"SoundDuration":114416,"Delta":340295218},{"NoteNumber":48,"Velocity":62,"Duration":114416,"SoundDuration":114416,"Delta":340295218},{"NoteNumber":68,"Velocity":51,"Duration":114416,"SoundDuration":114416,"Delta":340409635},{"NoteNumber":47,"Velocity":45,"Duration":114416,"SoundDuration":114416,"Delta":340409635},{"NoteNumber":66,"Velocity":51,"Duration":114416,"SoundDuration":114416,"Delta":340524051},{"NoteNumber":45,"Velocity":45,"Duration":114416,"SoundDuration":114416,"Delta":340524051},{"NoteNumber":68,"Velocity":67,"Duration":114744,"SoundDuration":114744,"Delta":340638467},{"NoteNumber":47,"Velocity":60,"Duration":114744,"SoundDuration":114744,"Delta":340638467},{"NoteNumber":67,"Velocity":50,"Duration":114744,"SoundDuration":114744,"Delta":340753212},{"NoteNumber":46,"Velocity":45,"Duration":114744,"SoundDuration":114744,"Delta":340753212},{"NoteNumber":68,"Velocity":50,"Duration":114744,"SoundDuration":114744,"Delta":340867957},{"NoteNumber":47,"Velocity":45,"Duration":114744,"SoundDuration":114744,"Delta":340867957},{"NoteNumber":71,"Velocity":68,"Duration":114744,"SoundDuration":114744,"Delta":340982701},{"NoteNumber":44,"Velocity":61,"Duration":114744,"SoundDuration":114744,"Delta":340982701},{"NoteNumber":70,"Velocity":51,"Duration":114744,"SoundDuration":114744,"Delta":341097446},{"NoteNumber":43,"Velocity":45,"Duration":114744,"SoundDuration":114744,"Delta":341097446},{"NoteNumber":71,"Velocity":53,"Duration":123228,"SoundDuration":123228,"Delta":341212191},{"NoteNumber":44,"Velocity":45,"Duration":123228,"SoundDuration":123228,"Delta":341212191},{"NoteNumber":74,"Velocity":72,"Duration":114416,"SoundDuration":114416,"Delta":341335419},{"NoteNumber":41,"Velocity":61,"Duration":114416,"SoundDuration":114416,"Delta":341335419},{"NoteNumber":73,"Velocity":51,"Duration":114416,"SoundDuration":114416,"Delta":341449836},{"NoteNumber":40,"Velocity":49,"Duration":114416,"SoundDuration":114416,"Delta":341449836},{"NoteNumber":74,"Velocity":56,"Duration":114416,"SoundDuration":114416,"Delta":341564252},{"NoteNumber":41,"Velocity":49,"Duration":114416,"SoundDuration":114416,"Delta":341564252},{"NoteNumber":77,"Velocity":72,"Duration":114416,"SoundDuration":114416,"Delta":341678668},{"NoteNumber":38,"Velocity":62,"Duration":114416,"SoundDuration":114416,"Delta":341678668},{"NoteNumber":76,"Velocity":57,"Duration":114416,"SoundDuration":114416,"Delta":341793085},{"NoteNumber":37,"Velocity":45,"Duration":114416,"SoundDuration":114416,"Delta":341793085},{"NoteNumber":77,"Velocity":58,"Duration":122850,"SoundDuration":122850,"Delta":341907501},{"NoteNumber":38,"Velocity":51,"Duration":122850,"SoundDuration":122850,"Delta":341907501},{"NoteNumber":80,"Velocity":86,"Duration":178252,"SoundDuration":178252,"Delta":342030351},{"NoteNumber":35,"Velocity":71,"Duration":178252,"SoundDuration":178252,"Delta":342030351},{"NoteNumber":74,"Velocity":68,"Duration":328667,"SoundDuration":328667,"Delta":342386857},{"NoteNumber":77,"Velocity":68,"Duration":328667,"SoundDuration":328667,"Delta":342386857},{"NoteNumber":80,"Velocity":68,"Duration":328667,"SoundDuration":328667,"Delta":342386857},{"NoteNumber":86,"Velocity":81,"Duration":328667,"SoundDuration":328667,"Delta":342386857},{"NoteNumber":82,"Velocity":68,"Duration":328667,"SoundDuration":328667,"Delta":342386857},{"NoteNumber":34,"Velocity":62,"Duration":121728,"SoundDuration":121728,"Delta":342386857},{"NoteNumber":33,"Velocity":57,"Duration":121728,"SoundDuration":121728,"Delta":342508586},{"NoteNumber":34,"Velocity":57,"Duration":114120,"SoundDuration":114120,"Delta":342630314},{"NoteNumber":74,"Velocity":68,"Duration":328667,"SoundDuration":328667,"Delta":342752043},{"NoteNumber":77,"Velocity":68,"Duration":328667,"SoundDuration":328667,"Delta":342752043},{"NoteNumber":80,"Velocity":68,"Duration":328667,"SoundDuration":328667,"Delta":342752043},{"NoteNumber":86,"Velocity":81,"Duration":328667,"SoundDuration":328667,"Delta":342752043},{"NoteNumber":82,"Velocity":68,"Duration":328667,"SoundDuration":328667,"Delta":342752043},{"NoteNumber":34,"Velocity":62,"Duration":121728,"SoundDuration":121728,"Delta":342752043},{"NoteNumber":33,"Velocity":57,"Duration":121728,"SoundDuration":121728,"Delta":342873772},{"NoteNumber":34,"Velocity":57,"Duration":114120,"SoundDuration":114120,"Delta":342995500},{"NoteNumber":74,"Velocity":68,"Duration":334381,"SoundDuration":334381,"Delta":343117229},{"NoteNumber":77,"Velocity":68,"Duration":334381,"SoundDuration":334381,"Delta":343117229},{"NoteNumber":80,"Velocity":68,"Duration":334381,"SoundDuration":334381,"Delta":343117229},{"NoteNumber":86,"Velocity":81,"Duration":334381,"SoundDuration":334381,"Delta":343117229},{"NoteNumber":82,"Velocity":68,"Duration":334381,"SoundDuration":334381,"Delta":343117229},{"NoteNumber":34,"Velocity":62,"Duration":122407,"SoundDuration":122407,"Delta":343117229},{"NoteNumber":33,"Velocity":57,"Duration":124083,"SoundDuration":124083,"Delta":343239637},{"NoteNumber":34,"Velocity":58,"Duration":117938,"SoundDuration":117938,"Delta":343363721},{"NoteNumber":75,"Velocity":75,"Duration":178252,"SoundDuration":178252,"Delta":343489581},{"NoteNumber":79,"Velocity":75,"Duration":178252,"SoundDuration":178252,"Delta":343489581},{"NoteNumber":82,"Velocity":75,"Duration":178252,"SoundDuration":178252,"Delta":343489581},{"NoteNumber":87,"Velocity":89,"Duration":178252,"SoundDuration":178252,"Delta":343489581},{"NoteNumber":39,"Velocity":71,"Duration":178252,"SoundDuration":178252,"Delta":343489581},{"NoteNumber":66,"Velocity":68,"Duration":328667,"SoundDuration":328667,"Delta":343846087},{"NoteNumber":69,"Velocity":68,"Duration":328667,"SoundDuration":328667,"Delta":343846087},{"NoteNumber":75,"Velocity":81,"Duration":328667,"SoundDuration":328667,"Delta":343846087},{"NoteNumber":71,"Velocity":68,"Duration":328667,"SoundDuration":328667,"Delta":343846087},{"NoteNumber":45,"Velocity":70,"Duration":121728,"SoundDuration":121728,"Delta":343846087},{"NoteNumber":47,"Velocity":57,"Duration":121728,"SoundDuration":121728,"Delta":343967816},{"NoteNumber":45,"Velocity":57,"Duration":114120,"SoundDuration":114120,"Delta":344089544},{"NoteNumber":66,"Velocity":68,"Duration":328667,"SoundDuration":328667,"Delta":344211273},{"NoteNumber":69,"Velocity":68,"Duration":328667,"SoundDuration":328667,"Delta":344211273},{"NoteNumber":75,"Velocity":81,"Duration":328667,"SoundDuration":328667,"Delta":344211273},{"NoteNumber":71,"Velocity":68,"Duration":328667,"SoundDuration":328667,"Delta":344211273},{"NoteNumber":43,"Velocity":62,"Duration":121728,"SoundDuration":121728,"Delta":344211273},{"NoteNumber":45,"Velocity":57,"Duration":121728,"SoundDuration":121728,"Delta":344333002},{"NoteNumber":43,"Velocity":57,"Duration":114120,"SoundDuration":114120,"Delta":344454730},{"NoteNumber":66,"Velocity":68,"Duration":334381,"SoundDuration":334381,"Delta":344576459},{"NoteNumber":69,"Velocity":68,"Duration":334381,"SoundDuration":334381,"Delta":344576459},{"NoteNumber":75,"Velocity":81,"Duration":334381,"SoundDuration":334381,"Delta":344576459},{"NoteNumber":71,"Velocity":68,"Duration":334381,"SoundDuration":334381,"Delta":344576459},{"NoteNumber":42,"Velocity":62,"Duration":122407,"SoundDuration":122407,"Delta":344576459},{"NoteNumber":43,"Velocity":57,"Duration":124083,"SoundDuration":124083,"Delta":344698867},{"NoteNumber":42,"Velocity":58,"Duration":117938,"SoundDuration":117938,"Delta":344822951},{"NoteNumber":67,"Velocity":75,"Duration":178252,"SoundDuration":178252,"Delta":344948811},{"NoteNumber":71,"Velocity":75,"Duration":178252,"SoundDuration":178252,"Delta":344948811},{"NoteNumber":76,"Velocity":89,"Duration":178252,"SoundDuration":178252,"Delta":344948811},{"NoteNumber":40,"Velocity":71,"Duration":178252,"SoundDuration":178252,"Delta":344948811},{"NoteNumber":76,"Velocity":68,"Duration":345489,"SoundDuration":345489,"Delta":345305317},{"NoteNumber":79,"Velocity":68,"Duration":345489,"SoundDuration":345489,"Delta":345305317},{"NoteNumber":82,"Velocity":68,"Duration":345489,"SoundDuration":345489,"Delta":345305317},{"NoteNumber":88,"Velocity":81,"Duration":345489,"SoundDuration":345489,"Delta":345305317},{"NoteNumber":84,"Velocity":68,"Duration":345489,"SoundDuration":345489,"Delta":345305317},{"NoteNumber":36,"Velocity":71,"Duration":127958,"SoundDuration":127958,"Delta":345305317},{"NoteNumber":35,"Velocity":57,"Duration":127959,"SoundDuration":127959,"Delta":345433276},{"NoteNumber":36,"Velocity":57,"Duration":119961,"SoundDuration":119961,"Delta":345561235},{"NoteNumber":76,"Velocity":68,"Duration":345489,"SoundDuration":345489,"Delta":345689194},{"NoteNumber":79,"Velocity":68,"Duration":345489,"SoundDuration":345489,"Delta":345689194},{"NoteNumber":82,"Velocity":68,"Duration":345489,"SoundDuration":345489,"Delta":345689194},{"NoteNumber":88,"Velocity":81,"Duration":345489,"SoundDuration":345489,"Delta":345689194},{"NoteNumber":84,"Velocity":68,"Duration":345489,"SoundDuration":345489,"Delta":345689194},{"NoteNumber":36,"Velocity":62,"Duration":127959,"SoundDuration":127959,"Delta":345689194},{"NoteNumber":35,"Velocity":57,"Duration":127958,"SoundDuration":127958,"Delta":345817153},{"NoteNumber":36,"Velocity":57,"Duration":120041,"SoundDuration":120041,"Delta":345945112},{"NoteNumber":76,"Velocity":68,"Duration":357377,"SoundDuration":357377,"Delta":346073184},{"NoteNumber":79,"Velocity":68,"Duration":357377,"SoundDuration":357377,"Delta":346073184},{"NoteNumber":82,"Velocity":68,"Duration":357377,"SoundDuration":357377,"Delta":346073184},{"NoteNumber":88,"Velocity":81,"Duration":357377,"SoundDuration":357377,"Delta":346073184},{"NoteNumber":84,"Velocity":68,"Duration":357377,"SoundDuration":357377,"Delta":346073184},{"NoteNumber":36,"Velocity":62,"Duration":130040,"SoundDuration":130040,"Delta":346073184},{"NoteNumber":35,"Velocity":57,"Duration":132732,"SoundDuration":132732,"Delta":346203225},{"NoteNumber":36,"Velocity":58,"Duration":125930,"SoundDuration":125930,"Delta":346335957},{"NoteNumber":77,"Velocity":75,"Duration":181488,"SoundDuration":181488,"Delta":346469809},{"NoteNumber":80,"Velocity":75,"Duration":181488,"SoundDuration":181488,"Delta":346469809},{"NoteNumber":84,"Velocity":75,"Duration":181488,"SoundDuration":181488,"Delta":346469809},{"NoteNumber":89,"Velocity":89,"Duration":181488,"SoundDuration":181488,"Delta":346469809},{"NoteNumber":29,"Velocity":71,"Duration":181488,"SoundDuration":181488,"Delta":346469809},{"NoteNumber":68,"Velocity":68,"Duration":372928,"SoundDuration":372928,"Delta":346832785},{"NoteNumber":71,"Velocity":68,"Duration":372928,"SoundDuration":372928,"Delta":346832785},{"NoteNumber":77,"Velocity":81,"Duration":372928,"SoundDuration":372928,"Delta":346832785},{"NoteNumber":73,"Velocity":68,"Duration":372928,"SoundDuration":372928,"Delta":346832785},{"NoteNumber":47,"Velocity":62,"Duration":138121,"SoundDuration":138121,"Delta":346832785},{"NoteNumber":49,"Velocity":55,"Duration":138121,"SoundDuration":138121,"Delta":346970907},{"NoteNumber":47,"Velocity":54,"Duration":129489,"SoundDuration":129489,"Delta":347109029},{"NoteNumber":68,"Velocity":62,"Duration":372928,"SoundDuration":372928,"Delta":347247150},{"NoteNumber":71,"Velocity":62,"Duration":372928,"SoundDuration":372928,"Delta":347247150},{"NoteNumber":77,"Velocity":74,"Duration":372928,"SoundDuration":372928,"Delta":347247150},{"NoteNumber":73,"Velocity":62,"Duration":372928,"SoundDuration":372928,"Delta":347247150},{"NoteNumber":45,"Velocity":57,"Duration":138121,"SoundDuration":138121,"Delta":347247150},{"NoteNumber":47,"Velocity":50,"Duration":138121,"SoundDuration":138121,"Delta":347385272},{"NoteNumber":45,"Velocity":49,"Duration":129313,"SoundDuration":129313,"Delta":347523394},{"NoteNumber":68,"Velocity":57,"Duration":382917,"SoundDuration":382917,"Delta":347661202},{"NoteNumber":71,"Velocity":57,"Duration":382917,"SoundDuration":382917,"Delta":347661202},{"NoteNumber":77,"Velocity":68,"Duration":382917,"SoundDuration":382917,"Delta":347661202},{"NoteNumber":73,"Velocity":57,"Duration":382917,"SoundDuration":382917,"Delta":347661202},{"NoteNumber":44,"Velocity":52,"Duration":138050,"SoundDuration":138050,"Delta":347661202},{"NoteNumber":45,"Velocity":46,"Duration":142430,"SoundDuration":142430,"Delta":347799253},{"NoteNumber":44,"Velocity":45,"Duration":137529,"SoundDuration":137529,"Delta":347941683},{"NoteNumber":69,"Velocity":56,"Duration":178252,"SoundDuration":178252,"Delta":348087874},{"NoteNumber":74,"Velocity":56,"Duration":178252,"SoundDuration":178252,"Delta":348087874},{"NoteNumber":78,"Velocity":66,"Duration":178252,"SoundDuration":178252,"Delta":348087874},{"NoteNumber":45,"Velocity":42,"Duration":2776286,"SoundDuration":2776286,"Delta":348087874},{"NoteNumber":42,"Velocity":42,"Duration":2776286,"SoundDuration":2776286,"Delta":348087874},{"NoteNumber":50,"Velocity":53,"Duration":2776286,"SoundDuration":2776286,"Delta":348087874},{"NoteNumber":74,"Velocity":64,"Duration":114744,"SoundDuration":114744,"Delta":348444380},{"NoteNumber":73,"Velocity":54,"Duration":114744,"SoundDuration":114744,"Delta":348559125},{"NoteNumber":74,"Velocity":54,"Duration":114744,"SoundDuration":114744,"Delta":348673870},{"NoteNumber":78,"Velocity":65,"Duration":114744,"SoundDuration":114744,"Delta":348788614},{"NoteNumber":76,"Velocity":56,"Duration":114744,"SoundDuration":114744,"Delta":348903359},{"NoteNumber":74,"Velocity":56,"Duration":123992,"SoundDuration":123992,"Delta":349018104},{"NoteNumber":81,"Velocity":66,"Duration":114416,"SoundDuration":114416,"Delta":349142096},{"NoteNumber":79,"Velocity":58,"Duration":114416,"SoundDuration":114416,"Delta":349256513},{"NoteNumber":78,"Velocity":58,"Duration":114416,"SoundDuration":114416,"Delta":349370929},{"NoteNumber":76,"Velocity":65,"Duration":114416,"SoundDuration":114416,"Delta":349485345},{"NoteNumber":74,"Velocity":58,"Duration":114416,"SoundDuration":114416,"Delta":349599762},{"NoteNumber":73,"Velocity":58,"Duration":119189,"SoundDuration":119189,"Delta":349714178},{"NoteNumber":74,"Velocity":66,"Duration":114089,"SoundDuration":114089,"Delta":349833368},{"NoteNumber":73,"Velocity":55,"Duration":114090,"SoundDuration":114090,"Delta":349947458},{"NoteNumber":71,"Velocity":55,"Duration":114089,"SoundDuration":114089,"Delta":350061548},{"NoteNumber":69,"Velocity":60,"Duration":114090,"SoundDuration":114090,"Delta":350175638},{"NoteNumber":67,"Velocity":51,"Duration":114089,"SoundDuration":114089,"Delta":350289728},{"NoteNumber":66,"Velocity":51,"Duration":114090,"SoundDuration":114090,"Delta":350403818},{"NoteNumber":64,"Velocity":58,"Duration":114089,"SoundDuration":114089,"Delta":350517908},{"NoteNumber":62,"Velocity":51,"Duration":114089,"SoundDuration":114089,"Delta":350631998},{"NoteNumber":66,"Velocity":51,"Duration":125944,"SoundDuration":125944,"Delta":350746088},{"NoteNumber":64,"Velocity":61,"Duration":178252,"SoundDuration":178252,"Delta":350872032},{"NoteNumber":43,"Velocity":42,"Duration":2784221,"SoundDuration":2784221,"Delta":350872032},{"NoteNumber":50,"Velocity":42,"Duration":2784221,"SoundDuration":2784221,"Delta":350872032},{"NoteNumber":47,"Velocity":42,"Duration":2784221,"SoundDuration":2784221,"Delta":350872032},{"NoteNumber":52,"Velocity":53,"Duration":2784221,"SoundDuration":2784221,"Delta":350872032},{"NoteNumber":76,"Velocity":64,"Duration":114744,"SoundDuration":114744,"Delta":351228538},{"NoteNumber":75,"Velocity":54,"Duration":114744,"SoundDuration":114744,"Delta":351343283},{"NoteNumber":76,"Velocity":54,"Duration":114744,"SoundDuration":114744,"Delta":351458028},{"NoteNumber":79,"Velocity":65,"Duration":114744,"SoundDuration":114744,"Delta":351572772},{"NoteNumber":78,"Velocity":56,"Duration":114744,"SoundDuration":114744,"Delta":351687517},{"NoteNumber":76,"Velocity":56,"Duration":123992,"SoundDuration":123992,"Delta":351802262},{"NoteNumber":83,"Velocity":66,"Duration":114416,"SoundDuration":114416,"Delta":351926254},{"NoteNumber":81,"Velocity":58,"Duration":114416,"SoundDuration":114416,"Delta":352040671},{"NoteNumber":79,"Velocity":58,"Duration":114416,"SoundDuration":114416,"Delta":352155087},{"NoteNumber":78,"Velocity":65,"Duration":114416,"SoundDuration":114416,"Delta":352269503},{"NoteNumber":76,"Velocity":58,"Duration":114416,"SoundDuration":114416,"Delta":352383920},{"NoteNumber":75,"Velocity":58,"Duration":119189,"SoundDuration":119189,"Delta":352498336},{"NoteNumber":76,"Velocity":66,"Duration":114089,"SoundDuration":114089,"Delta":352617526},{"NoteNumber":74,"Velocity":55,"Duration":114090,"SoundDuration":114090,"Delta":352731616},{"NoteNumber":73,"Velocity":55,"Duration":114089,"SoundDuration":114089,"Delta":352845706},{"NoteNumber":71,"Velocity":60,"Duration":114090,"SoundDuration":114090,"Delta":352959796},{"NoteNumber":69,"Velocity":51,"Duration":114089,"SoundDuration":114089,"Delta":353073886},{"NoteNumber":67,"Velocity":51,"Duration":114090,"SoundDuration":114090,"Delta":353187976},{"NoteNumber":66,"Velocity":58,"Duration":114089,"SoundDuration":114089,"Delta":353302066},{"NoteNumber":64,"Velocity":51,"Duration":114089,"SoundDuration":114089,"Delta":353416156},{"NoteNumber":67,"Velocity":51,"Duration":134408,"SoundDuration":134408,"Delta":353530246},{"NoteNumber":66,"Velocity":61,"Duration":178252,"SoundDuration":178252,"Delta":353664654},{"NoteNumber":45,"Velocity":42,"Duration":2782963,"SoundDuration":2782963,"Delta":353664654},{"NoteNumber":50,"Velocity":42,"Duration":2782963,"SoundDuration":2782963,"Delta":353664654},{"NoteNumber":48,"Velocity":42,"Duration":2782963,"SoundDuration":2782963,"Delta":353664654},{"NoteNumber":54,"Velocity":53,"Duration":2782963,"SoundDuration":2782963,"Delta":353664654},{"NoteNumber":78,"Velocity":64,"Duration":114744,"SoundDuration":114744,"Delta":354021160},{"NoteNumber":77,"Velocity":54,"Duration":114744,"SoundDuration":114744,"Delta":354135905},{"NoteNumber":78,"Velocity":54,"Duration":114744,"SoundDuration":114744,"Delta":354250650},{"NoteNumber":81,"Velocity":65,"Duration":114744,"SoundDuration":114744,"Delta":354365394},{"NoteNumber":79,"Velocity":56,"Duration":114744,"SoundDuration":114744,"Delta":354480139},{"NoteNumber":78,"Velocity":56,"Duration":123992,"SoundDuration":123992,"Delta":354594884},{"NoteNumber":84,"Velocity":66,"Duration":114416,"SoundDuration":114416,"Delta":354718876},{"NoteNumber":83,"Velocity":58,"Duration":114416,"SoundDuration":114416,"Delta":354833293},{"NoteNumber":81,"Velocity":58,"Duration":114416,"SoundDuration":114416,"Delta":354947709},{"NoteNumber":79,"Velocity":65,"Duration":114416,"SoundDuration":114416,"Delta":355062125},{"NoteNumber":78,"Velocity":58,"Duration":114416,"SoundDuration":114416,"Delta":355176542},{"NoteNumber":76,"Velocity":58,"Duration":119189,"SoundDuration":119189,"Delta":355290958},{"NoteNumber":78,"Velocity":66,"Duration":114089,"SoundDuration":114089,"Delta":355410148},{"NoteNumber":76,"Velocity":55,"Duration":114090,"SoundDuration":114090,"Delta":355524238},{"NoteNumber":74,"Velocity":55,"Duration":114089,"SoundDuration":114089,"Delta":355638328},{"NoteNumber":72,"Velocity":60,"Duration":114090,"SoundDuration":114090,"Delta":355752418},{"NoteNumber":71,"Velocity":51,"Duration":114089,"SoundDuration":114089,"Delta":355866508},{"NoteNumber":69,"Velocity":51,"Duration":114090,"SoundDuration":114090,"Delta":355980598},{"NoteNumber":67,"Velocity":58,"Duration":114089,"SoundDuration":114089,"Delta":356094688},{"NoteNumber":66,"Velocity":51,"Duration":114089,"SoundDuration":114089,"Delta":356208778},{"NoteNumber":69,"Velocity":51,"Duration":133067,"SoundDuration":133067,"Delta":356322868},{"NoteNumber":67,"Velocity":65,"Duration":114416,"SoundDuration":114416,"Delta":356455935},{"NoteNumber":50,"Velocity":42,"Duration":2122237,"SoundDuration":2122237,"Delta":356455935},{"NoteNumber":47,"Velocity":42,"Duration":2122237,"SoundDuration":2122237,"Delta":356455935},{"NoteNumber":55,"Velocity":53,"Duration":2122237,"SoundDuration":2122237,"Delta":356455935},{"NoteNumber":66,"Velocity":58,"Duration":114416,"SoundDuration":114416,"Delta":356570351},{"NoteNumber":67,"Velocity":58,"Duration":119189,"SoundDuration":119189,"Delta":356684768},{"NoteNumber":71,"Velocity":64,"Duration":119189,"SoundDuration":119189,"Delta":356803957},{"NoteNumber":70,"Velocity":54,"Duration":119189,"SoundDuration":119189,"Delta":356923147},{"NoteNumber":71,"Velocity":54,"Duration":119189,"SoundDuration":119189,"Delta":357042337},{"NoteNumber":74,"Velocity":65,"Duration":119189,"SoundDuration":119189,"Delta":357161526},{"NoteNumber":73,"Velocity":56,"Duration":119189,"SoundDuration":119189,"Delta":357280716},{"NoteNumber":74,"Velocity":56,"Duration":123992,"SoundDuration":123992,"Delta":357399906},{"NoteNumber":79,"Velocity":66,"Duration":114416,"SoundDuration":114416,"Delta":357523898},{"NoteNumber":78,"Velocity":58,"Duration":114416,"SoundDuration":114416,"Delta":357638315},{"NoteNumber":79,"Velocity":58,"Duration":114416,"SoundDuration":114416,"Delta":357752731},{"NoteNumber":83,"Velocity":65,"Duration":114416,"SoundDuration":114416,"Delta":357867147},{"NoteNumber":82,"Velocity":58,"Duration":114416,"SoundDuration":114416,"Delta":357981564},{"NoteNumber":83,"Velocity":58,"Duration":126742,"SoundDuration":126742,"Delta":358095980},{"NoteNumber":86,"Velocity":66,"Duration":118483,"SoundDuration":118483,"Delta":358222723},{"NoteNumber":85,"Velocity":55,"Duration":118483,"SoundDuration":118483,"Delta":358341206},{"NoteNumber":86,"Velocity":55,"Duration":118483,"SoundDuration":118483,"Delta":358459689},{"NoteNumber":89,"Velocity":67,"Duration":118483,"SoundDuration":118483,"Delta":358578173},{"NoteNumber":46,"Velocity":45,"Duration":768316,"SoundDuration":768316,"Delta":358578173},{"NoteNumber":50,"Velocity":45,"Duration":768316,"SoundDuration":768316,"Delta":358578173},{"NoteNumber":56,"Velocity":53,"Duration":768316,"SoundDuration":768316,"Delta":358578173},{"NoteNumber":88,"Velocity":51,"Duration":118483,"SoundDuration":118483,"Delta":358696656},{"NoteNumber":89,"Velocity":52,"Duration":135318,"SoundDuration":135318,"Delta":358815139},{"NoteNumber":80,"Velocity":63,"Duration":124377,"SoundDuration":124377,"Delta":358950457},{"NoteNumber":79,"Velocity":41,"Duration":124377,"SoundDuration":124377,"Delta":359074835},{"NoteNumber":80,"Velocity":40,"Duration":147275,"SoundDuration":147275,"Delta":359199213},{"NoteNumber":81,"Velocity":52,"Duration":118835,"SoundDuration":118835,"Delta":359346489},{"NoteNumber":45,"Velocity":31,"Duration":356506,"SoundDuration":356506,"Delta":359346489},{"NoteNumber":49,"Velocity":31,"Duration":356506,"SoundDuration":356506,"Delta":359346489},{"NoteNumber":57,"Velocity":37,"Duration":356506,"SoundDuration":356506,"Delta":359346489},{"NoteNumber":80,"Velocity":41,"Duration":118835,"SoundDuration":118835,"Delta":359465324},{"NoteNumber":81,"Velocity":41,"Duration":118835,"SoundDuration":118835,"Delta":359584159},{"NoteNumber":85,"Velocity":52,"Duration":117096,"SoundDuration":117096,"Delta":359702995},{"NoteNumber":83,"Velocity":42,"Duration":117096,"SoundDuration":117096,"Delta":359820091},{"NoteNumber":81,"Velocity":42,"Duration":117096,"SoundDuration":117096,"Delta":359937187},{"NoteNumber":83,"Velocity":52,"Duration":115740,"SoundDuration":115740,"Delta":360054283},{"NoteNumber":62,"Velocity":31,"Duration":86805,"SoundDuration":86805,"Delta":360054283},{"NoteNumber":64,"Velocity":37,"Duration":86805,"SoundDuration":86805,"Delta":360054283},{"NoteNumber":81,"Velocity":40,"Duration":115740,"SoundDuration":115740,"Delta":360170023},{"NoteNumber":62,"Velocity":27,"Duration":86805,"SoundDuration":86805,"Delta":360227894},{"NoteNumber":64,"Velocity":32,"Duration":86805,"SoundDuration":86805,"Delta":360227894},{"NoteNumber":80,"Velocity":40,"Duration":115740,"SoundDuration":115740,"Delta":360285764},{"NoteNumber":86,"Velocity":58,"Duration":119189,"SoundDuration":119189,"Delta":360401505},{"NoteNumber":62,"Velocity":31,"Duration":89392,"SoundDuration":89392,"Delta":360401505},{"NoteNumber":64,"Velocity":37,"Duration":89392,"SoundDuration":89392,"Delta":360401505},{"NoteNumber":85,"Velocity":44,"Duration":119189,"SoundDuration":119189,"Delta":360520694},{"NoteNumber":64,"Velocity":32,"Duration":89392,"SoundDuration":89392,"Delta":360580289},{"NoteNumber":62,"Velocity":27,"Duration":89392,"SoundDuration":89392,"Delta":360580289},{"NoteNumber":83,"Velocity":44,"Duration":134108,"SoundDuration":134108,"Delta":360639884},{"NoteNumber":81,"Velocity":52,"Duration":117096,"SoundDuration":117096,"Delta":360773993},{"NoteNumber":61,"Velocity":31,"Duration":351288,"SoundDuration":351288,"Delta":360773993},{"NoteNumber":64,"Velocity":37,"Duration":530072,"SoundDuration":530072,"Delta":360773993},{"NoteNumber":80,"Velocity":41,"Duration":117096,"SoundDuration":117096,"Delta":360891089},{"NoteNumber":78,"Velocity":41,"Duration":117096,"SoundDuration":117096,"Delta":361008185},{"NoteNumber":76,"Velocity":52,"Duration":119189,"SoundDuration":119189,"Delta":361125281},{"NoteNumber":57,"Velocity":33,"Duration":178784,"SoundDuration":178784,"Delta":361125281},{"NoteNumber":74,"Velocity":41,"Duration":119189,"SoundDuration":119189,"Delta":361244471},{"NoteNumber":73,"Velocity":41,"Duration":119189,"SoundDuration":119189,"Delta":361363660},{"NoteNumber":74,"Velocity":52,"Duration":115074,"SoundDuration":115074,"Delta":361482850},{"NoteNumber":35,"Velocity":31,"Duration":86305,"SoundDuration":86305,"Delta":361482850},{"NoteNumber":40,"Velocity":37,"Duration":86305,"SoundDuration":86305,"Delta":361482850},{"NoteNumber":73,"Velocity":40,"Duration":115074,"SoundDuration":115074,"Delta":361597925},{"NoteNumber":35,"Velocity":27,"Duration":86305,"SoundDuration":86305,"Delta":361655462},{"NoteNumber":40,"Velocity":32,"Duration":86305,"SoundDuration":86305,"Delta":361655462},{"NoteNumber":71,"Velocity":40,"Duration":115074,"SoundDuration":115074,"Delta":361712999},{"NoteNumber":78,"Velocity":58,"Duration":119189,"SoundDuration":119189,"Delta":361828074},{"NoteNumber":32,"Velocity":31,"Duration":89392,"SoundDuration":89392,"Delta":361828074},{"NoteNumber":40,"Velocity":37,"Duration":89392,"SoundDuration":89392,"Delta":361828074},{"NoteNumber":76,"Velocity":44,"Duration":119189,"SoundDuration":119189,"Delta":361947264},{"NoteNumber":40,"Velocity":32,"Duration":89392,"SoundDuration":89392,"Delta":362006859},{"NoteNumber":32,"Velocity":27,"Duration":89392,"SoundDuration":89392,"Delta":362006859},{"NoteNumber":74,"Velocity":44,"Duration":134108,"SoundDuration":134108,"Delta":362066453},{"NoteNumber":73,"Velocity":52,"Duration":117096,"SoundDuration":117096,"Delta":362200562},{"NoteNumber":33,"Velocity":31,"Duration":351288,"SoundDuration":351288,"Delta":362200562},{"NoteNumber":40,"Velocity":37,"Duration":530072,"SoundDuration":530072,"Delta":362200562},{"NoteNumber":76,"Velocity":41,"Duration":117096,"SoundDuration":117096,"Delta":362317658},{"NoteNumber":81,"Velocity":41,"Duration":117096,"SoundDuration":117096,"Delta":362434754},{"NoteNumber":85,"Velocity":52,"Duration":119189,"SoundDuration":119189,"Delta":362551850},{"NoteNumber":45,"Velocity":33,"Duration":178784,"SoundDuration":178784,"Delta":362551850},{"NoteNumber":83,"Velocity":41,"Duration":119189,"SoundDuration":119189,"Delta":362671040},{"NoteNumber":81,"Velocity":41,"Duration":119189,"SoundDuration":119189,"Delta":362790230},{"NoteNumber":83,"Velocity":52,"Duration":115406,"SoundDuration":115406,"Delta":362909419},{"NoteNumber":62,"Velocity":31,"Duration":86554,"SoundDuration":86554,"Delta":362909419},{"NoteNumber":64,"Velocity":37,"Duration":86554,"SoundDuration":86554,"Delta":362909419},{"NoteNumber":81,"Velocity":40,"Duration":115406,"SoundDuration":115406,"Delta":363024826},{"NoteNumber":62,"Velocity":27,"Duration":86554,"SoundDuration":86554,"Delta":363082529},{"NoteNumber":64,"Velocity":32,"Duration":86554,"SoundDuration":86554,"Delta":363082529},{"NoteNumber":80,"Velocity":40,"Duration":115406,"SoundDuration":115406,"Delta":363140233},{"NoteNumber":86,"Velocity":58,"Duration":119189,"SoundDuration":119189,"Delta":363255639},{"NoteNumber":62,"Velocity":31,"Duration":89392,"SoundDuration":89392,"Delta":363255639},{"NoteNumber":64,"Velocity":37,"Duration":89392,"SoundDuration":89392,"Delta":363255639},{"NoteNumber":85,"Velocity":44,"Duration":119189,"SoundDuration":119189,"Delta":363374829},{"NoteNumber":64,"Velocity":32,"Duration":89392,"SoundDuration":89392,"Delta":363434424},{"NoteNumber":62,"Velocity":27,"Duration":89392,"SoundDuration":89392,"Delta":363434424},{"NoteNumber":83,"Velocity":44,"Duration":134108,"SoundDuration":134108,"Delta":363494019},{"NoteNumber":81,"Velocity":52,"Duration":117096,"SoundDuration":117096,"Delta":363628128},{"NoteNumber":61,"Velocity":31,"Duration":351288,"SoundDuration":351288,"Delta":363628128},{"NoteNumber":64,"Velocity":37,"Duration":530072,"SoundDuration":530072,"Delta":363628128},{"NoteNumber":80,"Velocity":41,"Duration":117096,"SoundDuration":117096,"Delta":363745224},{"NoteNumber":78,"Velocity":41,"Duration":117096,"SoundDuration":117096,"Delta":363862320},{"NoteNumber":76,"Velocity":52,"Duration":119189,"SoundDuration":119189,"Delta":363979416},{"NoteNumber":57,"Velocity":33,"Duration":178784,"SoundDuration":178784,"Delta":363979416},{"NoteNumber":74,"Velocity":41,"Duration":119189,"SoundDuration":119189,"Delta":364098605},{"NoteNumber":73,"Velocity":41,"Duration":119189,"SoundDuration":119189,"Delta":364217795},{"NoteNumber":74,"Velocity":52,"Duration":115074,"SoundDuration":115074,"Delta":364336985},{"NoteNumber":35,"Velocity":31,"Duration":86305,"SoundDuration":86305,"Delta":364336985},{"NoteNumber":40,"Velocity":37,"Duration":86305,"SoundDuration":86305,"Delta":364336985},{"NoteNumber":73,"Velocity":40,"Duration":115074,"SoundDuration":115074,"Delta":364452059},{"NoteNumber":35,"Velocity":27,"Duration":86305,"SoundDuration":86305,"Delta":364509597},{"NoteNumber":40,"Velocity":32,"Duration":86305,"SoundDuration":86305,"Delta":364509597},{"NoteNumber":71,"Velocity":40,"Duration":115074,"SoundDuration":115074,"Delta":364567134},{"NoteNumber":78,"Velocity":58,"Duration":119189,"SoundDuration":119189,"Delta":364682209},{"NoteNumber":32,"Velocity":31,"Duration":89392,"SoundDuration":89392,"Delta":364682209},{"NoteNumber":40,"Velocity":37,"Duration":89392,"SoundDuration":89392,"Delta":364682209},{"NoteNumber":76,"Velocity":44,"Duration":119189,"SoundDuration":119189,"Delta":364801398},{"NoteNumber":40,"Velocity":32,"Duration":89392,"SoundDuration":89392,"Delta":364860993},{"NoteNumber":32,"Velocity":27,"Duration":89392,"SoundDuration":89392,"Delta":364860993},{"NoteNumber":74,"Velocity":44,"Duration":134108,"SoundDuration":134108,"Delta":364920588},{"NoteNumber":73,"Velocity":52,"Duration":117096,"SoundDuration":117096,"Delta":365054697},{"NoteNumber":33,"Velocity":31,"Duration":351288,"SoundDuration":351288,"Delta":365054697},{"NoteNumber":40,"Velocity":37,"Duration":530072,"SoundDuration":530072,"Delta":365054697},{"NoteNumber":71,"Velocity":41,"Duration":117096,"SoundDuration":117096,"Delta":365171793},{"NoteNumber":69,"Velocity":41,"Duration":117096,"SoundDuration":117096,"Delta":365288889},{"NoteNumber":76,"Velocity":52,"Duration":119189,"SoundDuration":119189,"Delta":365405985},{"NoteNumber":45,"Velocity":33,"Duration":178784,"SoundDuration":178784,"Delta":365405985},{"NoteNumber":74,"Velocity":41,"Duration":119189,"SoundDuration":119189,"Delta":365525174},{"NoteNumber":73,"Velocity":42,"Duration":119189,"SoundDuration":119189,"Delta":365644364},{"NoteNumber":79,"Velocity":53,"Duration":115406,"SoundDuration":115406,"Delta":365763554},{"NoteNumber":57,"Velocity":31,"Duration":86554,"SoundDuration":86554,"Delta":365763554},{"NoteNumber":61,"Velocity":38,"Duration":86554,"SoundDuration":86554,"Delta":365763554},{"NoteNumber":78,"Velocity":41,"Duration":115406,"SoundDuration":115406,"Delta":365878960},{"NoteNumber":57,"Velocity":28,"Duration":86554,"SoundDuration":86554,"Delta":365936664},{"NoteNumber":61,"Velocity":33,"Duration":86554,"SoundDuration":86554,"Delta":365936664},{"NoteNumber":76,"Velocity":42,"Duration":115406,"SoundDuration":115406,"Delta":365994367},{"NoteNumber":83,"Velocity":60,"Duration":119189,"SoundDuration":119189,"Delta":366109774},{"NoteNumber":57,"Velocity":32,"Duration":89392,"SoundDuration":89392,"Delta":366109774},{"NoteNumber":61,"Velocity":38,"Duration":89392,"SoundDuration":89392,"Delta":366109774},{"NoteNumber":81,"Velocity":46,"Duration":119189,"SoundDuration":119189,"Delta":366228963},{"NoteNumber":61,"Velocity":33,"Duration":89392,"SoundDuration":89392,"Delta":366288558},{"NoteNumber":57,"Velocity":28,"Duration":89392,"SoundDuration":89392,"Delta":366288558},{"NoteNumber":79,"Velocity":46,"Duration":134108,"SoundDuration":134108,"Delta":366348153},{"NoteNumber":78,"Velocity":55,"Duration":115740,"SoundDuration":115740,"Delta":366482262},{"NoteNumber":57,"Velocity":33,"Duration":347221,"SoundDuration":347221,"Delta":366482262},{"NoteNumber":61,"Velocity":39,"Duration":526006,"SoundDuration":526006,"Delta":366482262},{"NoteNumber":76,"Velocity":44,"Duration":115740,"SoundDuration":115740,"Delta":366598003},{"NoteNumber":74,"Velocity":44,"Duration":115740,"SoundDuration":115740,"Delta":366713743},{"NoteNumber":73,"Velocity":56,"Duration":119189,"SoundDuration":119189,"Delta":366829484},{"NoteNumber":67,"Velocity":35,"Duration":178784,"SoundDuration":178784,"Delta":366829484},{"NoteNumber":71,"Velocity":45,"Duration":119189,"SoundDuration":119189,"Delta":366948674},{"NoteNumber":69,"Velocity":45,"Duration":119189,"SoundDuration":119189,"Delta":367067863},{"NoteNumber":67,"Velocity":57,"Duration":115740,"SoundDuration":115740,"Delta":367187053},{"NoteNumber":40,"Velocity":34,"Duration":86805,"SoundDuration":86805,"Delta":367187053},{"NoteNumber":45,"Velocity":41,"Duration":86805,"SoundDuration":86805,"Delta":367187053},{"NoteNumber":64,"Velocity":44,"Duration":115740,"SoundDuration":115740,"Delta":367302794},{"NoteNumber":40,"Velocity":30,"Duration":86805,"SoundDuration":86805,"Delta":367360664},{"NoteNumber":45,"Velocity":35,"Duration":86805,"SoundDuration":86805,"Delta":367360664},{"NoteNumber":66,"Velocity":44,"Duration":115740,"SoundDuration":115740,"Delta":367418534},{"NoteNumber":67,"Velocity":65,"Duration":119189,"SoundDuration":119189,"Delta":367534275},{"NoteNumber":40,"Velocity":35,"Duration":89392,"SoundDuration":89392,"Delta":367534275},{"NoteNumber":45,"Velocity":41,"Duration":89392,"SoundDuration":89392,"Delta":367534275},{"NoteNumber":69,"Velocity":49,"Duration":119189,"SoundDuration":119189,"Delta":367653465},{"NoteNumber":45,"Velocity":36,"Duration":89392,"SoundDuration":89392,"Delta":367713060},{"NoteNumber":40,"Velocity":30,"Duration":89392,"SoundDuration":89392,"Delta":367713060},{"NoteNumber":71,"Velocity":50,"Duration":134108,"SoundDuration":134108,"Delta":367772654},{"NoteNumber":73,"Velocity":59,"Duration":115406,"SoundDuration":115406,"Delta":367906763},{"NoteNumber":40,"Velocity":35,"Duration":346220,"SoundDuration":346220,"Delta":367906763},{"NoteNumber":45,"Velocity":42,"Duration":346220,"SoundDuration":346220,"Delta":367906763},{"NoteNumber":71,"Velocity":47,"Duration":115406,"SoundDuration":115406,"Delta":368022170},{"NoteNumber":69,"Velocity":47,"Duration":115406,"SoundDuration":115406,"Delta":368137577},{"NoteNumber":76,"Velocity":60,"Duration":119189,"SoundDuration":119189,"Delta":368252983},{"NoteNumber":33,"Velocity":38,"Duration":178784,"SoundDuration":178784,"Delta":368252983},{"NoteNumber":74,"Velocity":47,"Duration":119189,"SoundDuration":119189,"Delta":368372173},{"NoteNumber":73,"Velocity":48,"Duration":119189,"SoundDuration":119189,"Delta":368491363},{"NoteNumber":79,"Velocity":61,"Duration":115074,"SoundDuration":115074,"Delta":368610552},{"NoteNumber":57,"Velocity":36,"Duration":86305,"SoundDuration":86305,"Delta":368610552},{"NoteNumber":61,"Velocity":43,"Duration":86305,"SoundDuration":86305,"Delta":368610552},{"NoteNumber":78,"Velocity":47,"Duration":115074,"SoundDuration":115074,"Delta":368725627},{"NoteNumber":57,"Velocity":32,"Duration":86305,"SoundDuration":86305,"Delta":368783164},{"NoteNumber":61,"Velocity":38,"Duration":86305,"SoundDuration":86305,"Delta":368783164},{"NoteNumber":76,"Velocity":48,"Duration":115074,"SoundDuration":115074,"Delta":368840702},{"NoteNumber":82,"Velocity":66,"Duration":119189,"SoundDuration":119189,"Delta":368955776},{"NoteNumber":57,"Velocity":37,"Duration":89392,"SoundDuration":89392,"Delta":368955776},{"NoteNumber":61,"Velocity":44,"Duration":89392,"SoundDuration":89392,"Delta":368955776},{"NoteNumber":81,"Velocity":53,"Duration":119189,"SoundDuration":119189,"Delta":369074966},{"NoteNumber":61,"Velocity":38,"Duration":89392,"SoundDuration":89392,"Delta":369134561},{"NoteNumber":57,"Velocity":32,"Duration":89392,"SoundDuration":89392,"Delta":369134561},{"NoteNumber":79,"Velocity":53,"Duration":134108,"SoundDuration":134108,"Delta":369194156},{"NoteNumber":78,"Velocity":63,"Duration":115406,"SoundDuration":115406,"Delta":369328265},{"NoteNumber":57,"Velocity":37,"Duration":346220,"SoundDuration":346220,"Delta":369328265},{"NoteNumber":61,"Velocity":45,"Duration":525004,"SoundDuration":525004,"Delta":369328265},{"NoteNumber":76,"Velocity":50,"Duration":115406,"SoundDuration":115406,"Delta":369443671},{"NoteNumber":74,"Velocity":50,"Duration":115406,"SoundDuration":115406,"Delta":369559078},{"NoteNumber":73,"Velocity":64,"Duration":119189,"SoundDuration":119189,"Delta":369674485},{"NoteNumber":67,"Velocity":40,"Duration":178784,"SoundDuration":178784,"Delta":369674485},{"NoteNumber":71,"Velocity":51,"Duration":119189,"SoundDuration":119189,"Delta":369793674},{"NoteNumber":69,"Velocity":51,"Duration":119189,"SoundDuration":119189,"Delta":369912864},{"NoteNumber":67,"Velocity":65,"Duration":115406,"SoundDuration":115406,"Delta":370032054},{"NoteNumber":40,"Velocity":39,"Duration":86554,"SoundDuration":86554,"Delta":370032054},{"NoteNumber":45,"Velocity":46,"Duration":86554,"SoundDuration":86554,"Delta":370032054},{"NoteNumber":64,"Velocity":50,"Duration":115406,"SoundDuration":115406,"Delta":370147460},{"NoteNumber":40,"Velocity":34,"Duration":86554,"SoundDuration":86554,"Delta":370205164},{"NoteNumber":45,"Velocity":40,"Duration":86554,"SoundDuration":86554,"Delta":370205164},{"NoteNumber":66,"Velocity":50,"Duration":115406,"SoundDuration":115406,"Delta":370262867},{"NoteNumber":67,"Velocity":66,"Duration":119189,"SoundDuration":119189,"Delta":370378274},{"NoteNumber":40,"Velocity":39,"Duration":89392,"SoundDuration":89392,"Delta":370378274},{"NoteNumber":45,"Velocity":47,"Duration":89392,"SoundDuration":89392,"Delta":370378274},{"NoteNumber":69,"Velocity":54,"Duration":119189,"SoundDuration":119189,"Delta":370497463},{"NoteNumber":45,"Velocity":41,"Duration":89392,"SoundDuration":89392,"Delta":370557058},{"NoteNumber":40,"Velocity":34,"Duration":89392,"SoundDuration":89392,"Delta":370557058},{"NoteNumber":71,"Velocity":54,"Duration":134108,"SoundDuration":134108,"Delta":370616653},{"NoteNumber":73,"Velocity":75,"Duration":115740,"SoundDuration":115740,"Delta":370750762},{"NoteNumber":40,"Velocity":56,"Duration":347221,"SoundDuration":347221,"Delta":370750762},{"NoteNumber":45,"Velocity":56,"Duration":347221,"SoundDuration":347221,"Delta":370750762},{"NoteNumber":71,"Velocity":61,"Duration":115740,"SoundDuration":115740,"Delta":370866502},{"NoteNumber":69,"Velocity":61,"Duration":115740,"SoundDuration":115740,"Delta":370982243},{"NoteNumber":76,"Velocity":75,"Duration":118835,"SoundDuration":118835,"Delta":371097984},{"NoteNumber":33,"Velocity":46,"Duration":178252,"SoundDuration":178252,"Delta":371097984},{"NoteNumber":74,"Velocity":61,"Duration":118835,"SoundDuration":118835,"Delta":371216819},{"NoteNumber":73,"Velocity":61,"Duration":118835,"SoundDuration":118835,"Delta":371335654},{"NoteNumber":79,"Velocity":76,"Duration":115406,"SoundDuration":115406,"Delta":371454490},{"NoteNumber":49,"Velocity":63,"Duration":346220,"SoundDuration":346220,"Delta":371454490},{"NoteNumber":78,"Velocity":62,"Duration":115406,"SoundDuration":115406,"Delta":371569896},{"NoteNumber":76,"Velocity":62,"Duration":108193,"SoundDuration":108193,"Delta":371685303},{"NoteNumber":76,"Velocity":77,"Duration":118133,"SoundDuration":118133,"Delta":371800710},{"NoteNumber":33,"Velocity":62,"Duration":177200,"SoundDuration":177200,"Delta":371800710},{"NoteNumber":74,"Velocity":63,"Duration":118133,"SoundDuration":118133,"Delta":371918843},{"NoteNumber":73,"Velocity":64,"Duration":118133,"SoundDuration":118133,"Delta":372036976},{"NoteNumber":79,"Velocity":81,"Duration":115406,"SoundDuration":115406,"Delta":372155110},{"NoteNumber":52,"Velocity":69,"Duration":346220,"SoundDuration":346220,"Delta":372155110},{"NoteNumber":78,"Velocity":67,"Duration":115406,"SoundDuration":115406,"Delta":372270516},{"NoteNumber":76,"Velocity":67,"Duration":115406,"SoundDuration":115406,"Delta":372385923},{"NoteNumber":83,"Velocity":82,"Duration":118133,"SoundDuration":118133,"Delta":372501330},{"NoteNumber":49,"Velocity":62,"Duration":177200,"SoundDuration":177200,"Delta":372501330},{"NoteNumber":81,"Velocity":67,"Duration":118133,"SoundDuration":118133,"Delta":372619463},{"NoteNumber":79,"Velocity":67,"Duration":110749,"SoundDuration":110749,"Delta":372737596},{"NoteNumber":79,"Velocity":81,"Duration":114416,"SoundDuration":114416,"Delta":372855730},{"NoteNumber":61,"Velocity":73,"Duration":343249,"SoundDuration":343249,"Delta":372855730},{"NoteNumber":78,"Velocity":68,"Duration":114416,"SoundDuration":114416,"Delta":372970146},{"NoteNumber":76,"Velocity":68,"Duration":107265,"SoundDuration":107265,"Delta":373084562},{"NoteNumber":83,"Velocity":80,"Duration":119189,"SoundDuration":119189,"Delta":373198979},{"NoteNumber":57,"Velocity":61,"Duration":178784,"SoundDuration":178784,"Delta":373198979},{"NoteNumber":81,"Velocity":65,"Duration":119189,"SoundDuration":119189,"Delta":373318168},{"NoteNumber":79,"Velocity":66,"Duration":119189,"SoundDuration":119189,"Delta":373437358},{"NoteNumber":85,"Velocity":86,"Duration":115740,"SoundDuration":115740,"Delta":373556548},{"NoteNumber":64,"Velocity":75,"Duration":347221,"SoundDuration":347221,"Delta":373556548},{"NoteNumber":83,"Velocity":65,"Duration":115740,"SoundDuration":115740,"Delta":373672288},{"NoteNumber":81,"Velocity":65,"Duration":115740,"SoundDuration":115740,"Delta":373788029},{"NoteNumber":85,"Velocity":84,"Duration":119189,"SoundDuration":119189,"Delta":373903770},{"NoteNumber":57,"Velocity":65,"Duration":178784,"SoundDuration":178784,"Delta":373903770},{"NoteNumber":83,"Velocity":66,"Duration":119189,"SoundDuration":119189,"Delta":374022959},{"NoteNumber":81,"Velocity":71,"Duration":111740,"SoundDuration":111740,"Delta":374142149},{"NoteNumber":85,"Velocity":91,"Duration":122474,"SoundDuration":122474,"Delta":374261339},{"NoteNumber":67,"Velocity":74,"Duration":367421,"SoundDuration":367421,"Delta":374261339},{"NoteNumber":83,"Velocity":74,"Duration":122474,"SoundDuration":122474,"Delta":374383813},{"NoteNumber":81,"Velocity":76,"Duration":114819,"SoundDuration":114819,"Delta":374506287},{"NoteNumber":85,"Velocity":93,"Duration":126742,"SoundDuration":126742,"Delta":374628761},{"NoteNumber":64,"Velocity":67,"Duration":190113,"SoundDuration":190113,"Delta":374628761},{"NoteNumber":83,"Velocity":80,"Duration":126742,"SoundDuration":126742,"Delta":374755503},{"NoteNumber":81,"Velocity":85,"Duration":173460,"SoundDuration":173460,"Delta":374882246},{"NoteNumber":86,"Velocity":105,"Duration":829876,"SoundDuration":829876,"Delta":375055707},{"NoteNumber":81,"Velocity":89,"Duration":829876,"SoundDuration":829876,"Delta":375055707},{"NoteNumber":78,"Velocity":89,"Duration":829876,"SoundDuration":829876,"Delta":375055707},{"NoteNumber":74,"Velocity":89,"Duration":829876,"SoundDuration":829876,"Delta":375055707},{"NoteNumber":38,"Velocity":73,"Duration":829876,"SoundDuration":829876,"Delta":375055707},{"NoteNumber":50,"Velocity":86,"Duration":829876,"SoundDuration":829876,"Delta":375055707},{"NoteNumber":57,"Velocity":61,"Duration":84506,"SoundDuration":84506,"Delta":375885583},{"NoteNumber":62,"Velocity":72,"Duration":84506,"SoundDuration":84506,"Delta":375885583},{"NoteNumber":42,"Velocity":49,"Duration":84506,"SoundDuration":84506,"Delta":375885583},{"NoteNumber":50,"Velocity":58,"Duration":84506,"SoundDuration":84506,"Delta":375885583},{"NoteNumber":57,"Velocity":56,"Duration":84506,"SoundDuration":84506,"Delta":376054597},{"NoteNumber":62,"Velocity":67,"Duration":84506,"SoundDuration":84506,"Delta":376054597},{"NoteNumber":42,"Velocity":44,"Duration":84506,"SoundDuration":84506,"Delta":376054597},{"NoteNumber":50,"Velocity":52,"Duration":84506,"SoundDuration":84506,"Delta":376054597},{"NoteNumber":57,"Velocity":61,"Duration":81967,"SoundDuration":81967,"Delta":376223611},{"NoteNumber":62,"Velocity":72,"Duration":81967,"SoundDuration":81967,"Delta":376223611},{"NoteNumber":42,"Velocity":49,"Duration":81967,"SoundDuration":81967,"Delta":376223611},{"NoteNumber":50,"Velocity":58,"Duration":81967,"SoundDuration":81967,"Delta":376223611},{"NoteNumber":57,"Velocity":56,"Duration":103377,"SoundDuration":103377,"Delta":376387545},{"NoteNumber":62,"Velocity":66,"Duration":103377,"SoundDuration":103377,"Delta":376387545},{"NoteNumber":42,"Velocity":44,"Duration":103377,"SoundDuration":103377,"Delta":376387545},{"NoteNumber":50,"Velocity":52,"Duration":103377,"SoundDuration":103377,"Delta":376387545},{"NoteNumber":57,"Velocity":68,"Duration":367871,"SoundDuration":367871,"Delta":376594299},{"NoteNumber":62,"Velocity":80,"Duration":551807,"SoundDuration":551807,"Delta":376594299},{"NoteNumber":42,"Velocity":53,"Duration":367871,"SoundDuration":367871,"Delta":376594299},{"NoteNumber":50,"Velocity":63,"Duration":551807,"SoundDuration":551807,"Delta":376594299},{"NoteNumber":59,"Velocity":58,"Duration":183936,"SoundDuration":183936,"Delta":376962171},{"NoteNumber":64,"Velocity":69,"Duration":183936,"SoundDuration":183936,"Delta":376962171},{"NoteNumber":43,"Velocity":49,"Duration":183936,"SoundDuration":183936,"Delta":376962171},{"NoteNumber":52,"Velocity":59,"Duration":183936,"SoundDuration":183936,"Delta":376962171},{"NoteNumber":60,"Velocity":61,"Duration":85227,"SoundDuration":85227,"Delta":377330043},{"NoteNumber":62,"Velocity":61,"Duration":85227,"SoundDuration":85227,"Delta":377330043},{"NoteNumber":66,"Velocity":72,"Duration":85227,"SoundDuration":85227,"Delta":377330043},{"NoteNumber":45,"Velocity":49,"Duration":85227,"SoundDuration":85227,"Delta":377330043},{"NoteNumber":50,"Velocity":49,"Duration":85227,"SoundDuration":85227,"Delta":377330043},{"NoteNumber":54,"Velocity":58,"Duration":85227,"SoundDuration":85227,"Delta":377330043},{"NoteNumber":60,"Velocity":56,"Duration":85227,"SoundDuration":85227,"Delta":377500498},{"NoteNumber":62,"Velocity":56,"Duration":85227,"SoundDuration":85227,"Delta":377500498},{"NoteNumber":66,"Velocity":67,"Duration":85227,"SoundDuration":85227,"Delta":377500498},{"NoteNumber":45,"Velocity":44,"Duration":85227,"SoundDuration":85227,"Delta":377500498},{"NoteNumber":50,"Velocity":44,"Duration":85227,"SoundDuration":85227,"Delta":377500498},{"NoteNumber":54,"Velocity":52,"Duration":85227,"SoundDuration":85227,"Delta":377500498},{"NoteNumber":60,"Velocity":61,"Duration":82873,"SoundDuration":82873,"Delta":377670952},{"NoteNumber":62,"Velocity":61,"Duration":82873,"SoundDuration":82873,"Delta":377670952},{"NoteNumber":66,"Velocity":72,"Duration":82873,"SoundDuration":82873,"Delta":377670952},{"NoteNumber":45,"Velocity":49,"Duration":82873,"SoundDuration":82873,"Delta":377670952},{"NoteNumber":50,"Velocity":49,"Duration":82873,"SoundDuration":82873,"Delta":377670952},{"NoteNumber":54,"Velocity":58,"Duration":82873,"SoundDuration":82873,"Delta":377670952},{"NoteNumber":60,"Velocity":56,"Duration":104094,"SoundDuration":104094,"Delta":377836698},{"NoteNumber":62,"Velocity":56,"Duration":104094,"SoundDuration":104094,"Delta":377836698},{"NoteNumber":66,"Velocity":66,"Duration":104094,"SoundDuration":104094,"Delta":377836698},{"NoteNumber":45,"Velocity":44,"Duration":104094,"SoundDuration":104094,"Delta":377836698},{"NoteNumber":50,"Velocity":44,"Duration":104094,"SoundDuration":104094,"Delta":377836698},{"NoteNumber":54,"Velocity":52,"Duration":104094,"SoundDuration":104094,"Delta":377836698},{"NoteNumber":60,"Velocity":68,"Duration":377120,"SoundDuration":377120,"Delta":378044887},{"NoteNumber":62,"Velocity":68,"Duration":565681,"SoundDuration":565681,"Delta":378044887},{"NoteNumber":66,"Velocity":80,"Duration":377120,"SoundDuration":377120,"Delta":378044887},{"NoteNumber":50,"Velocity":53,"Duration":565681,"SoundDuration":565681,"Delta":378044887},{"NoteNumber":45,"Velocity":53,"Duration":377120,"SoundDuration":377120,"Delta":378044887},{"NoteNumber":54,"Velocity":63,"Duration":377120,"SoundDuration":377120,"Delta":378044887},{"NoteNumber":59,"Velocity":58,"Duration":188560,"SoundDuration":188560,"Delta":378422008},{"NoteNumber":67,"Velocity":69,"Duration":188560,"SoundDuration":188560,"Delta":378422008},{"NoteNumber":47,"Velocity":49,"Duration":188560,"SoundDuration":188560,"Delta":378422008},{"NoteNumber":55,"Velocity":59,"Duration":188560,"SoundDuration":188560,"Delta":378422008},{"NoteNumber":64,"Velocity":57,"Duration":177935,"SoundDuration":177935,"Delta":378610569},{"NoteNumber":52,"Velocity":46,"Duration":177935,"SoundDuration":177935,"Delta":378610569},{"NoteNumber":67,"Velocity":63,"Duration":114794,"SoundDuration":114794,"Delta":378788505},{"NoteNumber":55,"Velocity":54,"Duration":114794,"SoundDuration":114794,"Delta":378788505},{"NoteNumber":66,"Velocity":57,"Duration":114547,"SoundDuration":114547,"Delta":378903299},{"NoteNumber":54,"Velocity":47,"Duration":114547,"SoundDuration":114547,"Delta":378903299},{"NoteNumber":64,"Velocity":57,"Duration":114547,"SoundDuration":114547,"Delta":379017847},{"NoteNumber":52,"Velocity":48,"Duration":114547,"SoundDuration":114547,"Delta":379017847},{"NoteNumber":70,"Velocity":63,"Duration":112612,"SoundDuration":112612,"Delta":379132395},{"NoteNumber":58,"Velocity":54,"Duration":112612,"SoundDuration":112612,"Delta":379132395},{"NoteNumber":69,"Velocity":58,"Duration":112612,"SoundDuration":112612,"Delta":379245007},{"NoteNumber":57,"Velocity":49,"Duration":112612,"SoundDuration":112612,"Delta":379245007},{"NoteNumber":67,"Velocity":58,"Duration":131492,"SoundDuration":131492,"Delta":379357620},{"NoteNumber":55,"Velocity":49,"Duration":131492,"SoundDuration":131492,"Delta":379357620},{"NoteNumber":69,"Velocity":63,"Duration":176367,"SoundDuration":176367,"Delta":379489112},{"NoteNumber":57,"Velocity":54,"Duration":176367,"SoundDuration":176367,"Delta":379489112},{"NoteNumber":78,"Velocity":56,"Duration":115540,"SoundDuration":115540,"Delta":379841846},{"NoteNumber":62,"Velocity":42,"Duration":115540,"SoundDuration":115540,"Delta":379841846},{"NoteNumber":76,"Velocity":46,"Duration":115540,"SoundDuration":115540,"Delta":379957386},{"NoteNumber":64,"Velocity":35,"Duration":115540,"SoundDuration":115540,"Delta":379957386},{"NoteNumber":74,"Velocity":46,"Duration":115539,"SoundDuration":115539,"Delta":380072926},{"NoteNumber":66,"Velocity":35,"Duration":115539,"SoundDuration":115539,"Delta":380072926},{"NoteNumber":81,"Velocity":57,"Duration":113895,"SoundDuration":113895,"Delta":380188466},{"NoteNumber":57,"Velocity":43,"Duration":113895,"SoundDuration":113895,"Delta":380188466},{"NoteNumber":79,"Velocity":47,"Duration":113895,"SoundDuration":113895,"Delta":380302362},{"NoteNumber":61,"Velocity":36,"Duration":113895,"SoundDuration":113895,"Delta":380302362},{"NoteNumber":78,"Velocity":47,"Duration":113895,"SoundDuration":113895,"Delta":380416257},{"NoteNumber":62,"Velocity":36,"Duration":113895,"SoundDuration":113895,"Delta":380416257},{"NoteNumber":76,"Velocity":58,"Duration":113895,"SoundDuration":113895,"Delta":380530152},{"NoteNumber":64,"Velocity":43,"Duration":113895,"SoundDuration":113895,"Delta":380530152},{"NoteNumber":74,"Velocity":50,"Duration":113895,"SoundDuration":113895,"Delta":380644048},{"NoteNumber":66,"Velocity":37,"Duration":113895,"SoundDuration":113895,"Delta":380644048},{"NoteNumber":73,"Velocity":50,"Duration":154918,"SoundDuration":154918,"Delta":380757943},{"NoteNumber":67,"Velocity":37,"Duration":154918,"SoundDuration":154918,"Delta":380757943},{"NoteNumber":86,"Velocity":105,"Duration":829876,"SoundDuration":829876,"Delta":380912862},{"NoteNumber":81,"Velocity":89,"Duration":829876,"SoundDuration":829876,"Delta":380912862},{"NoteNumber":78,"Velocity":89,"Duration":829876,"SoundDuration":829876,"Delta":380912862},{"NoteNumber":74,"Velocity":89,"Duration":829876,"SoundDuration":829876,"Delta":380912862},{"NoteNumber":45,"Velocity":73,"Duration":829876,"SoundDuration":829876,"Delta":380912862},{"NoteNumber":42,"Velocity":73,"Duration":829876,"SoundDuration":829876,"Delta":380912862},{"NoteNumber":38,"Velocity":73,"Duration":829876,"SoundDuration":829876,"Delta":380912862},{"NoteNumber":50,"Velocity":86,"Duration":829876,"SoundDuration":829876,"Delta":380912862},{"NoteNumber":57,"Velocity":54,"Duration":85227,"SoundDuration":85227,"Delta":381742738},{"NoteNumber":62,"Velocity":63,"Duration":85227,"SoundDuration":85227,"Delta":381742738},{"NoteNumber":42,"Velocity":43,"Duration":85227,"SoundDuration":85227,"Delta":381742738},{"NoteNumber":50,"Velocity":51,"Duration":85227,"SoundDuration":85227,"Delta":381742738},{"NoteNumber":57,"Velocity":49,"Duration":85227,"SoundDuration":85227,"Delta":381913192},{"NoteNumber":62,"Velocity":59,"Duration":85227,"SoundDuration":85227,"Delta":381913192},{"NoteNumber":42,"Velocity":39,"Duration":85227,"SoundDuration":85227,"Delta":381913192},{"NoteNumber":50,"Velocity":46,"Duration":85227,"SoundDuration":85227,"Delta":381913192},{"NoteNumber":57,"Velocity":54,"Duration":82644,"SoundDuration":82644,"Delta":382083647},{"NoteNumber":62,"Velocity":63,"Duration":82644,"SoundDuration":82644,"Delta":382083647},{"NoteNumber":42,"Velocity":43,"Duration":82644,"SoundDuration":82644,"Delta":382083647},{"NoteNumber":50,"Velocity":51,"Duration":82644,"SoundDuration":82644,"Delta":382083647},{"NoteNumber":57,"Velocity":49,"Duration":103377,"SoundDuration":103377,"Delta":382248936},{"NoteNumber":62,"Velocity":58,"Duration":103377,"SoundDuration":103377,"Delta":382248936},{"NoteNumber":42,"Velocity":39,"Duration":103377,"SoundDuration":103377,"Delta":382248936},{"NoteNumber":50,"Velocity":46,"Duration":103377,"SoundDuration":103377,"Delta":382248936},{"NoteNumber":57,"Velocity":60,"Duration":367871,"SoundDuration":367871,"Delta":382455690},{"NoteNumber":62,"Velocity":70,"Duration":551807,"SoundDuration":551807,"Delta":382455690},{"NoteNumber":42,"Velocity":47,"Duration":367871,"SoundDuration":367871,"Delta":382455690},{"NoteNumber":50,"Velocity":56,"Duration":551807,"SoundDuration":551807,"Delta":382455690},{"NoteNumber":59,"Velocity":51,"Duration":183936,"SoundDuration":183936,"Delta":382823562},{"NoteNumber":64,"Velocity":61,"Duration":183936,"SoundDuration":183936,"Delta":382823562},{"NoteNumber":43,"Velocity":43,"Duration":183936,"SoundDuration":183936,"Delta":382823562},{"NoteNumber":52,"Velocity":52,"Duration":183936,"SoundDuration":183936,"Delta":382823562},{"NoteNumber":57,"Velocity":61,"Duration":112612,"SoundDuration":112612,"Delta":383191434},{"NoteNumber":45,"Velocity":53,"Duration":112612,"SoundDuration":112612,"Delta":383191434},{"NoteNumber":59,"Velocity":55,"Duration":112612,"SoundDuration":112612,"Delta":383304047},{"NoteNumber":47,"Velocity":48,"Duration":112612,"SoundDuration":112612,"Delta":383304047},{"NoteNumber":60,"Velocity":55,"Duration":112612,"SoundDuration":112612,"Delta":383416659},{"NoteNumber":48,"Velocity":48,"Duration":112612,"SoundDuration":112612,"Delta":383416659},{"NoteNumber":62,"Velocity":61,"Duration":108991,"SoundDuration":108991,"Delta":383529272},{"NoteNumber":50,"Velocity":53,"Duration":108991,"SoundDuration":108991,"Delta":383529272},{"NoteNumber":64,"Velocity":56,"Duration":108991,"SoundDuration":108991,"Delta":383638264},{"NoteNumber":52,"Velocity":49,"Duration":108991,"SoundDuration":108991,"Delta":383638264},{"NoteNumber":66,"Velocity":56,"Duration":140745,"SoundDuration":140745,"Delta":383747255},{"NoteNumber":54,"Velocity":48,"Duration":140745,"SoundDuration":140745,"Delta":383747255},{"NoteNumber":58,"Velocity":61,"Duration":174418,"SoundDuration":174418,"Delta":383888001},{"NoteNumber":46,"Velocity":53,"Duration":174418,"SoundDuration":174418,"Delta":383888001},{"NoteNumber":66,"Velocity":52,"Duration":174418,"SoundDuration":174418,"Delta":384062420},{"NoteNumber":54,"Velocity":49,"Duration":174418,"SoundDuration":174418,"Delta":384062420},{"NoteNumber":59,"Velocity":61,"Duration":174418,"SoundDuration":174418,"Delta":384236838},{"NoteNumber":47,"Velocity":53,"Duration":174418,"SoundDuration":174418,"Delta":384236838},{"NoteNumber":67,"Velocity":55,"Duration":199203,"SoundDuration":199203,"Delta":384411257},{"NoteNumber":55,"Velocity":48,"Duration":199203,"SoundDuration":199203,"Delta":384411257},{"NoteNumber":64,"Velocity":54,"Duration":84985,"SoundDuration":84985,"Delta":384610460},{"NoteNumber":67,"Velocity":54,"Duration":84985,"SoundDuration":84985,"Delta":384610460},{"NoteNumber":69,"Velocity":63,"Duration":84985,"SoundDuration":84985,"Delta":384610460},{"NoteNumber":49,"Velocity":43,"Duration":84985,"SoundDuration":84985,"Delta":384610460},{"NoteNumber":55,"Velocity":43,"Duration":84985,"SoundDuration":84985,"Delta":384610460},{"NoteNumber":57,"Velocity":51,"Duration":84985,"SoundDuration":84985,"Delta":384610460},{"NoteNumber":64,"Velocity":49,"Duration":84985,"SoundDuration":84985,"Delta":384780431},{"NoteNumber":67,"Velocity":49,"Duration":84985,"SoundDuration":84985,"Delta":384780431},{"NoteNumber":69,"Velocity":59,"Duration":84985,"SoundDuration":84985,"Delta":384780431},{"NoteNumber":49,"Velocity":39,"Duration":84985,"SoundDuration":84985,"Delta":384780431},{"NoteNumber":55,"Velocity":39,"Duration":84985,"SoundDuration":84985,"Delta":384780431},{"NoteNumber":57,"Velocity":46,"Duration":84985,"SoundDuration":84985,"Delta":384780431},{"NoteNumber":64,"Velocity":54,"Duration":83102,"SoundDuration":83102,"Delta":384950403},{"NoteNumber":67,"Velocity":54,"Duration":83102,"SoundDuration":83102,"Delta":384950403},{"NoteNumber":69,"Velocity":63,"Duration":83102,"SoundDuration":83102,"Delta":384950403},{"NoteNumber":49,"Velocity":43,"Duration":83102,"SoundDuration":83102,"Delta":384950403},{"NoteNumber":55,"Velocity":43,"Duration":83102,"SoundDuration":83102,"Delta":384950403},{"NoteNumber":57,"Velocity":51,"Duration":83102,"SoundDuration":83102,"Delta":384950403},{"NoteNumber":64,"Velocity":49,"Duration":103377,"SoundDuration":103377,"Delta":385116608},{"NoteNumber":67,"Velocity":49,"Duration":103377,"SoundDuration":103377,"Delta":385116608},{"NoteNumber":69,"Velocity":58,"Duration":103377,"SoundDuration":103377,"Delta":385116608},{"NoteNumber":49,"Velocity":39,"Duration":103377,"SoundDuration":103377,"Delta":385116608},{"NoteNumber":55,"Velocity":39,"Duration":103377,"SoundDuration":103377,"Delta":385116608},{"NoteNumber":57,"Velocity":46,"Duration":103377,"SoundDuration":103377,"Delta":385116608},{"NoteNumber":67,"Velocity":60,"Duration":551807,"SoundDuration":551807,"Delta":385323362},{"NoteNumber":64,"Velocity":60,"Duration":367871,"SoundDuration":367871,"Delta":385323362},{"NoteNumber":69,"Velocity":70,"Duration":367871,"SoundDuration":367871,"Delta":385323362},{"NoteNumber":55,"Velocity":47,"Duration":551807,"SoundDuration":551807,"Delta":385323362},{"NoteNumber":49,"Velocity":47,"Duration":367871,"SoundDuration":367871,"Delta":385323362},{"NoteNumber":57,"Velocity":56,"Duration":367871,"SoundDuration":367871,"Delta":385323362},{"NoteNumber":62,"Velocity":51,"Duration":183936,"SoundDuration":183936,"Delta":385691234},{"NoteNumber":71,"Velocity":61,"Duration":183936,"SoundDuration":183936,"Delta":385691234},{"NoteNumber":50,"Velocity":43,"Duration":183936,"SoundDuration":183936,"Delta":385691234},{"NoteNumber":59,"Velocity":52,"Duration":183936,"SoundDuration":183936,"Delta":385691234},{"NoteNumber":62,"Velocity":61,"Duration":112612,"SoundDuration":112612,"Delta":386059106},{"NoteNumber":50,"Velocity":53,"Duration":112612,"SoundDuration":112612,"Delta":386059106},{"NoteNumber":64,"Velocity":55,"Duration":112612,"SoundDuration":112612,"Delta":386171719},{"NoteNumber":52,"Velocity":48,"Duration":112612,"SoundDuration":112612,"Delta":386171719},{"NoteNumber":66,"Velocity":55,"Duration":112612,"SoundDuration":112612,"Delta":386284331},{"NoteNumber":54,"Velocity":48,"Duration":112612,"SoundDuration":112612,"Delta":386284331},{"NoteNumber":67,"Velocity":61,"Duration":108991,"SoundDuration":108991,"Delta":386396944},{"NoteNumber":55,"Velocity":53,"Duration":108991,"SoundDuration":108991,"Delta":386396944},{"NoteNumber":69,"Velocity":56,"Duration":108991,"SoundDuration":108991,"Delta":386505936},{"NoteNumber":57,"Velocity":49,"Duration":108991,"SoundDuration":108991,"Delta":386505936},{"NoteNumber":71,"Velocity":56,"Duration":140745,"SoundDuration":140745,"Delta":386614927},{"NoteNumber":59,"Velocity":48,"Duration":140745,"SoundDuration":140745,"Delta":386614927},{"NoteNumber":63,"Velocity":61,"Duration":174927,"SoundDuration":174927,"Delta":386755673},{"NoteNumber":51,"Velocity":53,"Duration":174927,"SoundDuration":174927,"Delta":386755673},{"NoteNumber":71,"Velocity":52,"Duration":174926,"SoundDuration":174926,"Delta":386930600},{"NoteNumber":59,"Velocity":49,"Duration":174926,"SoundDuration":174926,"Delta":386930600},{"NoteNumber":64,"Velocity":61,"Duration":174927,"SoundDuration":174927,"Delta":387105527},{"NoteNumber":52,"Velocity":53,"Duration":174927,"SoundDuration":174927,"Delta":387105527},{"NoteNumber":72,"Velocity":55,"Duration":174926,"SoundDuration":174926,"Delta":387280454},{"NoteNumber":60,"Velocity":48,"Duration":174926,"SoundDuration":174926,"Delta":387280454},{"NoteNumber":67,"Velocity":54,"Duration":85227,"SoundDuration":85227,"Delta":387455381},{"NoteNumber":70,"Velocity":54,"Duration":85227,"SoundDuration":85227,"Delta":387455381},{"NoteNumber":73,"Velocity":63,"Duration":85227,"SoundDuration":85227,"Delta":387455381},{"NoteNumber":52,"Velocity":43,"Duration":85227,"SoundDuration":85227,"Delta":387455381},{"NoteNumber":58,"Velocity":43,"Duration":85227,"SoundDuration":85227,"Delta":387455381},{"NoteNumber":61,"Velocity":51,"Duration":85227,"SoundDuration":85227,"Delta":387455381},{"NoteNumber":67,"Velocity":49,"Duration":85227,"SoundDuration":85227,"Delta":387625836},{"NoteNumber":70,"Velocity":49,"Duration":85227,"SoundDuration":85227,"Delta":387625836},{"NoteNumber":73,"Velocity":59,"Duration":85227,"SoundDuration":85227,"Delta":387625836},{"NoteNumber":52,"Velocity":39,"Duration":85227,"SoundDuration":85227,"Delta":387625836},{"NoteNumber":58,"Velocity":39,"Duration":85227,"SoundDuration":85227,"Delta":387625836},{"NoteNumber":61,"Velocity":46,"Duration":85227,"SoundDuration":85227,"Delta":387625836},{"NoteNumber":67,"Velocity":54,"Duration":83333,"SoundDuration":83333,"Delta":387796290},{"NoteNumber":70,"Velocity":54,"Duration":83333,"SoundDuration":83333,"Delta":387796290},{"NoteNumber":73,"Velocity":63,"Duration":83333,"SoundDuration":83333,"Delta":387796290},{"NoteNumber":52,"Velocity":43,"Duration":83333,"SoundDuration":83333,"Delta":387796290},{"NoteNumber":58,"Velocity":43,"Duration":83333,"SoundDuration":83333,"Delta":387796290},{"NoteNumber":61,"Velocity":51,"Duration":83333,"SoundDuration":83333,"Delta":387796290},{"NoteNumber":67,"Velocity":49,"Duration":103377,"SoundDuration":103377,"Delta":387962957},{"NoteNumber":70,"Velocity":49,"Duration":103377,"SoundDuration":103377,"Delta":387962957},{"NoteNumber":73,"Velocity":58,"Duration":103377,"SoundDuration":103377,"Delta":387962957},{"NoteNumber":52,"Velocity":39,"Duration":103377,"SoundDuration":103377,"Delta":387962957},{"NoteNumber":58,"Velocity":39,"Duration":103377,"SoundDuration":103377,"Delta":387962957},{"NoteNumber":61,"Velocity":46,"Duration":103377,"SoundDuration":103377,"Delta":387962957},{"NoteNumber":70,"Velocity":60,"Duration":551807,"SoundDuration":551807,"Delta":388169711},{"NoteNumber":67,"Velocity":60,"Duration":367871,"SoundDuration":367871,"Delta":388169711},{"NoteNumber":73,"Velocity":70,"Duration":367871,"SoundDuration":367871,"Delta":388169711},{"NoteNumber":58,"Velocity":47,"Duration":551807,"SoundDuration":551807,"Delta":388169711},{"NoteNumber":52,"Velocity":47,"Duration":367871,"SoundDuration":367871,"Delta":388169711},{"NoteNumber":61,"Velocity":56,"Duration":367871,"SoundDuration":367871,"Delta":388169711},{"NoteNumber":65,"Velocity":51,"Duration":183936,"SoundDuration":183936,"Delta":388537583},{"NoteNumber":74,"Velocity":61,"Duration":183936,"SoundDuration":183936,"Delta":388537583},{"NoteNumber":53,"Velocity":43,"Duration":183936,"SoundDuration":183936,"Delta":388537583},{"NoteNumber":62,"Velocity":52,"Duration":183936,"SoundDuration":183936,"Delta":388537583},{"NoteNumber":65,"Velocity":61,"Duration":112612,"SoundDuration":112612,"Delta":388905455},{"NoteNumber":53,"Velocity":53,"Duration":112612,"SoundDuration":112612,"Delta":388905455},{"NoteNumber":67,"Velocity":55,"Duration":112612,"SoundDuration":112612,"Delta":389018067},{"NoteNumber":55,"Velocity":48,"Duration":112612,"SoundDuration":112612,"Delta":389018067},{"NoteNumber":69,"Velocity":55,"Duration":112612,"SoundDuration":112612,"Delta":389130680},{"NoteNumber":57,"Velocity":48,"Duration":112612,"SoundDuration":112612,"Delta":389130680},{"NoteNumber":71,"Velocity":61,"Duration":109890,"SoundDuration":109890,"Delta":389243293},{"NoteNumber":59,"Velocity":53,"Duration":109890,"SoundDuration":109890,"Delta":389243293},{"NoteNumber":72,"Velocity":56,"Duration":109890,"SoundDuration":109890,"Delta":389353183},{"NoteNumber":60,"Velocity":49,"Duration":109890,"SoundDuration":109890,"Delta":389353183},{"NoteNumber":74,"Velocity":56,"Duration":162601,"SoundDuration":162601,"Delta":389463073},{"NoteNumber":62,"Velocity":48,"Duration":162601,"SoundDuration":162601,"Delta":389463073},{"NoteNumber":75,"Velocity":61,"Duration":173913,"SoundDuration":173913,"Delta":389625674},{"NoteNumber":51,"Velocity":53,"Duration":173913,"SoundDuration":173913,"Delta":389625674},{"NoteNumber":67,"Velocity":50,"Duration":173912,"SoundDuration":173912,"Delta":389799587},{"NoteNumber":63,"Velocity":42,"Duration":173912,"SoundDuration":173912,"Delta":389799587},{"NoteNumber":74,"Velocity":61,"Duration":176470,"SoundDuration":176470,"Delta":389973500},{"NoteNumber":58,"Velocity":53,"Duration":176470,"SoundDuration":176470,"Delta":389973500},{"NoteNumber":65,"Velocity":51,"Duration":176470,"SoundDuration":176470,"Delta":390149971},{"NoteNumber":62,"Velocity":44,"Duration":176470,"SoundDuration":176470,"Delta":390149971},{"NoteNumber":64,"Velocity":45,"Duration":85469,"SoundDuration":85469,"Delta":390326441},{"NoteNumber":67,"Velocity":45,"Duration":85469,"SoundDuration":85469,"Delta":390326441},{"NoteNumber":70,"Velocity":45,"Duration":85469,"SoundDuration":85469,"Delta":390326441},{"NoteNumber":73,"Velocity":53,"Duration":85469,"SoundDuration":85469,"Delta":390326441},{"NoteNumber":34,"Velocity":36,"Duration":85469,"SoundDuration":85469,"Delta":390326441},{"NoteNumber":46,"Velocity":43,"Duration":85469,"SoundDuration":85469,"Delta":390326441},{"NoteNumber":64,"Velocity":41,"Duration":85470,"SoundDuration":85470,"Delta":390497381},{"NoteNumber":67,"Velocity":41,"Duration":85470,"SoundDuration":85470,"Delta":390497381},{"NoteNumber":70,"Velocity":41,"Duration":85470,"SoundDuration":85470,"Delta":390497381},{"NoteNumber":73,"Velocity":50,"Duration":85470,"SoundDuration":85470,"Delta":390497381},{"NoteNumber":34,"Velocity":33,"Duration":85470,"SoundDuration":85470,"Delta":390497381},{"NoteNumber":46,"Velocity":39,"Duration":85470,"SoundDuration":85470,"Delta":390497381},{"NoteNumber":64,"Velocity":45,"Duration":83102,"SoundDuration":83102,"Delta":390668321},{"NoteNumber":67,"Velocity":45,"Duration":83102,"SoundDuration":83102,"Delta":390668321},{"NoteNumber":70,"Velocity":45,"Duration":83102,"SoundDuration":83102,"Delta":390668321},{"NoteNumber":73,"Velocity":53,"Duration":83102,"SoundDuration":83102,"Delta":390668321},{"NoteNumber":34,"Velocity":36,"Duration":83102,"SoundDuration":83102,"Delta":390668321},{"NoteNumber":46,"Velocity":43,"Duration":83102,"SoundDuration":83102,"Delta":390668321},{"NoteNumber":64,"Velocity":41,"Duration":103377,"SoundDuration":103377,"Delta":390834526},{"NoteNumber":67,"Velocity":41,"Duration":103377,"SoundDuration":103377,"Delta":390834526},{"NoteNumber":70,"Velocity":41,"Duration":103377,"SoundDuration":103377,"Delta":390834526},{"NoteNumber":73,"Velocity":49,"Duration":103377,"SoundDuration":103377,"Delta":390834526},{"NoteNumber":34,"Velocity":33,"Duration":103377,"SoundDuration":103377,"Delta":390834526},{"NoteNumber":46,"Velocity":39,"Duration":103377,"SoundDuration":103377,"Delta":390834526},{"NoteNumber":64,"Velocity":51,"Duration":367871,"SoundDuration":367871,"Delta":391041280},{"NoteNumber":70,"Velocity":51,"Duration":551807,"SoundDuration":551807,"Delta":391041280},{"NoteNumber":67,"Velocity":51,"Duration":367871,"SoundDuration":367871,"Delta":391041280},{"NoteNumber":73,"Velocity":59,"Duration":367871,"SoundDuration":367871,"Delta":391041280},{"NoteNumber":34,"Velocity":39,"Duration":551807,"SoundDuration":551807,"Delta":391041280},{"NoteNumber":46,"Velocity":47,"Duration":551807,"SoundDuration":551807,"Delta":391041280},{"NoteNumber":65,"Velocity":43,"Duration":183936,"SoundDuration":183936,"Delta":391409152},{"NoteNumber":74,"Velocity":51,"Duration":183936,"SoundDuration":183936,"Delta":391409152},{"NoteNumber":65,"Velocity":51,"Duration":112612,"SoundDuration":112612,"Delta":391777024},{"NoteNumber":53,"Velocity":45,"Duration":112612,"SoundDuration":112612,"Delta":391777024},{"NoteNumber":67,"Velocity":46,"Duration":112612,"SoundDuration":112612,"Delta":391889637},{"NoteNumber":55,"Velocity":40,"Duration":112612,"SoundDuration":112612,"Delta":391889637},{"NoteNumber":69,"Velocity":46,"Duration":112612,"SoundDuration":112612,"Delta":392002250},{"NoteNumber":57,"Velocity":40,"Duration":112612,"SoundDuration":112612,"Delta":392002250},{"NoteNumber":70,"Velocity":51,"Duration":109890,"SoundDuration":109890,"Delta":392114862},{"NoteNumber":58,"Velocity":45,"Duration":109890,"SoundDuration":109890,"Delta":392114862},{"NoteNumber":72,"Velocity":47,"Duration":109890,"SoundDuration":109890,"Delta":392224752},{"NoteNumber":60,"Velocity":41,"Duration":109890,"SoundDuration":109890,"Delta":392224752},{"NoteNumber":74,"Velocity":47,"Duration":140745,"SoundDuration":140745,"Delta":392334642},{"NoteNumber":62,"Velocity":40,"Duration":140745,"SoundDuration":140745,"Delta":392334642},{"NoteNumber":79,"Velocity":51,"Duration":177935,"SoundDuration":177935,"Delta":392475388},{"NoteNumber":75,"Velocity":43,"Duration":177935,"SoundDuration":177935,"Delta":392475388},{"NoteNumber":51,"Velocity":45,"Duration":177935,"SoundDuration":177935,"Delta":392475388},{"NoteNumber":67,"Velocity":44,"Duration":177935,"SoundDuration":177935,"Delta":392653324},{"NoteNumber":58,"Velocity":41,"Duration":133452,"SoundDuration":133452,"Delta":392653324},{"NoteNumber":77,"Velocity":51,"Duration":177936,"SoundDuration":177936,"Delta":392831260},{"NoteNumber":74,"Velocity":43,"Duration":177936,"SoundDuration":177936,"Delta":392831260},{"NoteNumber":58,"Velocity":45,"Duration":177936,"SoundDuration":177936,"Delta":392831260},{"NoteNumber":65,"Velocity":46,"Duration":177935,"SoundDuration":177935,"Delta":393009196},{"NoteNumber":62,"Velocity":40,"Duration":177935,"SoundDuration":177935,"Delta":393009196},{"NoteNumber":64,"Velocity":40,"Duration":84506,"SoundDuration":84506,"Delta":393187132},{"NoteNumber":67,"Velocity":40,"Duration":84506,"SoundDuration":84506,"Delta":393187132},{"NoteNumber":70,"Velocity":40,"Duration":84506,"SoundDuration":84506,"Delta":393187132},{"NoteNumber":73,"Velocity":53,"Duration":84506,"SoundDuration":84506,"Delta":393187132},{"NoteNumber":34,"Velocity":36,"Duration":84506,"SoundDuration":84506,"Delta":393187132},{"NoteNumber":46,"Velocity":43,"Duration":84506,"SoundDuration":84506,"Delta":393187132},{"NoteNumber":64,"Velocity":37,"Duration":84506,"SoundDuration":84506,"Delta":393356146},{"NoteNumber":67,"Velocity":37,"Duration":84506,"SoundDuration":84506,"Delta":393356146},{"NoteNumber":70,"Velocity":37,"Duration":84506,"SoundDuration":84506,"Delta":393356146},{"NoteNumber":73,"Velocity":50,"Duration":84506,"SoundDuration":84506,"Delta":393356146},{"NoteNumber":34,"Velocity":33,"Duration":84506,"SoundDuration":84506,"Delta":393356146},{"NoteNumber":46,"Velocity":39,"Duration":84506,"SoundDuration":84506,"Delta":393356146},{"NoteNumber":64,"Velocity":40,"Duration":81743,"SoundDuration":81743,"Delta":393525160},{"NoteNumber":67,"Velocity":40,"Duration":81743,"SoundDuration":81743,"Delta":393525160},{"NoteNumber":70,"Velocity":40,"Duration":81743,"SoundDuration":81743,"Delta":393525160},{"NoteNumber":73,"Velocity":53,"Duration":81743,"SoundDuration":81743,"Delta":393525160},{"NoteNumber":34,"Velocity":36,"Duration":81743,"SoundDuration":81743,"Delta":393525160},{"NoteNumber":46,"Velocity":43,"Duration":81743,"SoundDuration":81743,"Delta":393525160},{"NoteNumber":64,"Velocity":37,"Duration":103377,"SoundDuration":103377,"Delta":393688648},{"NoteNumber":67,"Velocity":37,"Duration":103377,"SoundDuration":103377,"Delta":393688648},{"NoteNumber":70,"Velocity":37,"Duration":103377,"SoundDuration":103377,"Delta":393688648},{"NoteNumber":73,"Velocity":49,"Duration":103377,"SoundDuration":103377,"Delta":393688648},{"NoteNumber":34,"Velocity":33,"Duration":103377,"SoundDuration":103377,"Delta":393688648},{"NoteNumber":46,"Velocity":39,"Duration":103377,"SoundDuration":103377,"Delta":393688648},{"NoteNumber":64,"Velocity":51,"Duration":367871,"SoundDuration":367871,"Delta":393895402},{"NoteNumber":70,"Velocity":51,"Duration":551807,"SoundDuration":551807,"Delta":393895402},{"NoteNumber":67,"Velocity":51,"Duration":367871,"SoundDuration":367871,"Delta":393895402},{"NoteNumber":73,"Velocity":59,"Duration":367871,"SoundDuration":367871,"Delta":393895402},{"NoteNumber":34,"Velocity":39,"Duration":551807,"SoundDuration":551807,"Delta":393895402},{"NoteNumber":46,"Velocity":47,"Duration":551807,"SoundDuration":551807,"Delta":393895402},{"NoteNumber":65,"Velocity":43,"Duration":183936,"SoundDuration":183936,"Delta":394263274},{"NoteNumber":74,"Velocity":51,"Duration":183936,"SoundDuration":183936,"Delta":394263274},{"NoteNumber":65,"Velocity":49,"Duration":112612,"SoundDuration":112612,"Delta":394631146},{"NoteNumber":53,"Velocity":43,"Duration":112612,"SoundDuration":112612,"Delta":394631146},{"NoteNumber":67,"Velocity":50,"Duration":112612,"SoundDuration":112612,"Delta":394743759},{"NoteNumber":55,"Velocity":44,"Duration":112612,"SoundDuration":112612,"Delta":394743759},{"NoteNumber":69,"Velocity":52,"Duration":112612,"SoundDuration":112612,"Delta":394856371},{"NoteNumber":57,"Velocity":45,"Duration":112612,"SoundDuration":112612,"Delta":394856371},{"NoteNumber":70,"Velocity":53,"Duration":112612,"SoundDuration":112612,"Delta":394968984},{"NoteNumber":58,"Velocity":46,"Duration":112612,"SoundDuration":112612,"Delta":394968984},{"NoteNumber":72,"Velocity":55,"Duration":112612,"SoundDuration":112612,"Delta":395081597},{"NoteNumber":60,"Velocity":47,"Duration":112612,"SoundDuration":112612,"Delta":395081597},{"NoteNumber":74,"Velocity":56,"Duration":112425,"SoundDuration":112425,"Delta":395194209},{"NoteNumber":62,"Velocity":48,"Duration":112425,"SoundDuration":112425,"Delta":395194209},{"NoteNumber":75,"Velocity":61,"Duration":111654,"SoundDuration":111654,"Delta":395306635},{"NoteNumber":63,"Velocity":51,"Duration":111654,"SoundDuration":111654,"Delta":395306635},{"NoteNumber":77,"Velocity":52,"Duration":111292,"SoundDuration":111292,"Delta":395418289},{"NoteNumber":65,"Velocity":44,"Duration":111292,"SoundDuration":111292,"Delta":395418289},{"NoteNumber":79,"Velocity":52,"Duration":110936,"SoundDuration":110936,"Delta":395529582},{"NoteNumber":67,"Velocity":44,"Duration":110936,"SoundDuration":110936,"Delta":395529582},{"NoteNumber":77,"Velocity":61,"Duration":110615,"SoundDuration":110615,"Delta":395640518},{"NoteNumber":65,"Velocity":51,"Duration":110615,"SoundDuration":110615,"Delta":395640518},{"NoteNumber":75,"Velocity":53,"Duration":110263,"SoundDuration":110263,"Delta":395751134},{"NoteNumber":63,"Velocity":45,"Duration":110263,"SoundDuration":110263,"Delta":395751134},{"NoteNumber":74,"Velocity":53,"Duration":109858,"SoundDuration":109858,"Delta":395861397},{"NoteNumber":62,"Velocity":45,"Duration":109858,"SoundDuration":109858,"Delta":395861397},{"NoteNumber":73,"Velocity":57,"Duration":109435,"SoundDuration":109435,"Delta":395971255},{"NoteNumber":61,"Velocity":48,"Duration":109435,"SoundDuration":109435,"Delta":395971255},{"NoteNumber":70,"Velocity":47,"Duration":109981,"SoundDuration":109981,"Delta":396080691},{"NoteNumber":58,"Velocity":39,"Duration":109981,"SoundDuration":109981,"Delta":396080691},{"NoteNumber":67,"Velocity":47,"Duration":110541,"SoundDuration":110541,"Delta":396190672},{"NoteNumber":55,"Velocity":39,"Duration":110541,"SoundDuration":110541,"Delta":396190672},{"NoteNumber":64,"Velocity":49,"Duration":111105,"SoundDuration":111105,"Delta":396301214},{"NoteNumber":52,"Velocity":41,"Duration":111105,"SoundDuration":111105,"Delta":396301214},{"NoteNumber":61,"Velocity":47,"Duration":111675,"SoundDuration":111675,"Delta":396412320},{"NoteNumber":49,"Velocity":39,"Duration":111675,"SoundDuration":111675,"Delta":396412320},{"NoteNumber":64,"Velocity":48,"Duration":116754,"SoundDuration":116754,"Delta":396523995},{"NoteNumber":52,"Velocity":40,"Duration":116754,"SoundDuration":116754,"Delta":396523995},{"NoteNumber":65,"Velocity":50,"Duration":111234,"SoundDuration":111234,"Delta":396640750},{"NoteNumber":53,"Velocity":42,"Duration":111234,"SoundDuration":111234,"Delta":396640750},{"NoteNumber":62,"Velocity":45,"Duration":111234,"SoundDuration":111234,"Delta":396751984},{"NoteNumber":50,"Velocity":38,"Duration":111234,"SoundDuration":111234,"Delta":396751984},{"NoteNumber":65,"Velocity":45,"Duration":111234,"SoundDuration":111234,"Delta":396863219},{"NoteNumber":53,"Velocity":38,"Duration":111234,"SoundDuration":111234,"Delta":396863219},{"NoteNumber":62,"Velocity":50,"Duration":111234,"SoundDuration":111234,"Delta":396974454},{"NoteNumber":50,"Velocity":42,"Duration":111234,"SoundDuration":111234,"Delta":396974454},{"NoteNumber":58,"Velocity":45,"Duration":111234,"SoundDuration":111234,"Delta":397085688},{"NoteNumber":46,"Velocity":38,"Duration":111234,"SoundDuration":111234,"Delta":397085688},{"NoteNumber":62,"Velocity":45,"Duration":110642,"SoundDuration":110642,"Delta":397196923},{"NoteNumber":50,"Velocity":38,"Duration":110642,"SoundDuration":110642,"Delta":397196923},{"NoteNumber":65,"Velocity":45,"Duration":110192,"SoundDuration":110192,"Delta":397307565},{"NoteNumber":41,"Velocity":38,"Duration":110192,"SoundDuration":110192,"Delta":397307565},{"NoteNumber":67,"Velocity":47,"Duration":110032,"SoundDuration":110032,"Delta":397417758},{"NoteNumber":43,"Velocity":39,"Duration":110032,"SoundDuration":110032,"Delta":397417758},{"NoteNumber":69,"Velocity":49,"Duration":109889,"SoundDuration":109889,"Delta":397527790},{"NoteNumber":45,"Velocity":41,"Duration":109889,"SoundDuration":109889,"Delta":397527790},{"NoteNumber":70,"Velocity":51,"Duration":109743,"SoundDuration":109743,"Delta":397637680},{"NoteNumber":46,"Velocity":43,"Duration":109743,"SoundDuration":109743,"Delta":397637680},{"NoteNumber":72,"Velocity":53,"Duration":109589,"SoundDuration":109589,"Delta":397747423},{"NoteNumber":48,"Velocity":45,"Duration":109589,"SoundDuration":109589,"Delta":397747423},{"NoteNumber":74,"Velocity":55,"Duration":115074,"SoundDuration":115074,"Delta":397857012},{"NoteNumber":50,"Velocity":46,"Duration":115074,"SoundDuration":115074,"Delta":397857012},{"NoteNumber":75,"Velocity":57,"Duration":108623,"SoundDuration":108623,"Delta":397972087},{"NoteNumber":51,"Velocity":48,"Duration":108623,"SoundDuration":108623,"Delta":397972087},{"NoteNumber":77,"Velocity":59,"Duration":108108,"SoundDuration":108108,"Delta":398080711},{"NoteNumber":53,"Velocity":50,"Duration":108108,"SoundDuration":108108,"Delta":398080711},{"NoteNumber":79,"Velocity":61,"Duration":108108,"SoundDuration":108108,"Delta":398188819},{"NoteNumber":55,"Velocity":51,"Duration":108108,"SoundDuration":108108,"Delta":398188819},{"NoteNumber":77,"Velocity":63,"Duration":108107,"SoundDuration":108107,"Delta":398296927},{"NoteNumber":53,"Velocity":53,"Duration":108107,"SoundDuration":108107,"Delta":398296927},{"NoteNumber":75,"Velocity":58,"Duration":108263,"SoundDuration":108263,"Delta":398405035},{"NoteNumber":51,"Velocity":49,"Duration":108263,"SoundDuration":108263,"Delta":398405035},{"NoteNumber":74,"Velocity":61,"Duration":108498,"SoundDuration":108498,"Delta":398513298},{"NoteNumber":50,"Velocity":51,"Duration":108498,"SoundDuration":108498,"Delta":398513298},{"NoteNumber":73,"Velocity":57,"Duration":108734,"SoundDuration":108734,"Delta":398621797},{"NoteNumber":49,"Velocity":48,"Duration":108734,"SoundDuration":108734,"Delta":398621797},{"NoteNumber":70,"Velocity":55,"Duration":108991,"SoundDuration":108991,"Delta":398730531},{"NoteNumber":46,"Velocity":46,"Duration":108991,"SoundDuration":108991,"Delta":398730531},{"NoteNumber":67,"Velocity":53,"Duration":109233,"SoundDuration":109233,"Delta":398839523},{"NoteNumber":43,"Velocity":45,"Duration":109233,"SoundDuration":109233,"Delta":398839523},{"NoteNumber":64,"Velocity":51,"Duration":109473,"SoundDuration":109473,"Delta":398948757},{"NoteNumber":40,"Velocity":43,"Duration":109473,"SoundDuration":109473,"Delta":398948757},{"NoteNumber":61,"Velocity":47,"Duration":109713,"SoundDuration":109713,"Delta":399058230},{"NoteNumber":37,"Velocity":39,"Duration":109713,"SoundDuration":109713,"Delta":399058230},{"NoteNumber":64,"Velocity":43,"Duration":109879,"SoundDuration":109879,"Delta":399167943},{"NoteNumber":40,"Velocity":36,"Duration":109879,"SoundDuration":109879,"Delta":399167943},{"NoteNumber":67,"Velocity":59,"Duration":108169,"SoundDuration":108169,"Delta":399277823},{"NoteNumber":43,"Velocity":50,"Duration":108169,"SoundDuration":108169,"Delta":399277823},{"NoteNumber":64,"Velocity":43,"Duration":106965,"SoundDuration":106965,"Delta":399385992},{"NoteNumber":40,"Velocity":36,"Duration":106965,"SoundDuration":106965,"Delta":399385992},{"NoteNumber":67,"Velocity":43,"Duration":105710,"SoundDuration":105710,"Delta":399492958},{"NoteNumber":43,"Velocity":36,"Duration":105710,"SoundDuration":105710,"Delta":399492958},{"NoteNumber":64,"Velocity":44,"Duration":106124,"SoundDuration":106124,"Delta":399598668},{"NoteNumber":40,"Velocity":37,"Duration":106124,"SoundDuration":106124,"Delta":399598668},{"NoteNumber":61,"Velocity":45,"Duration":108557,"SoundDuration":108557,"Delta":399704793},{"NoteNumber":37,"Velocity":37,"Duration":108557,"SoundDuration":108557,"Delta":399704793},{"NoteNumber":64,"Velocity":45,"Duration":114416,"SoundDuration":114416,"Delta":399813350},{"NoteNumber":40,"Velocity":38,"Duration":114416,"SoundDuration":114416,"Delta":399813350},{"NoteNumber":68,"Velocity":62,"Duration":108597,"SoundDuration":108597,"Delta":399927766},{"NoteNumber":44,"Velocity":52,"Duration":108597,"SoundDuration":108597,"Delta":399927766},{"NoteNumber":64,"Velocity":46,"Duration":107965,"SoundDuration":107965,"Delta":400036363},{"NoteNumber":40,"Velocity":38,"Duration":107965,"SoundDuration":107965,"Delta":400036363},{"NoteNumber":68,"Velocity":47,"Duration":107476,"SoundDuration":107476,"Delta":400144329},{"NoteNumber":44,"Velocity":39,"Duration":107476,"SoundDuration":107476,"Delta":400144329},{"NoteNumber":64,"Velocity":47,"Duration":107115,"SoundDuration":107115,"Delta":400251806},{"NoteNumber":40,"Velocity":39,"Duration":107115,"SoundDuration":107115,"Delta":400251806},{"NoteNumber":61,"Velocity":48,"Duration":108424,"SoundDuration":108424,"Delta":400358922},{"NoteNumber":37,"Velocity":40,"Duration":108424,"SoundDuration":108424,"Delta":400358922},{"NoteNumber":64,"Velocity":48,"Duration":115344,"SoundDuration":115344,"Delta":400467347},{"NoteNumber":40,"Velocity":40,"Duration":115344,"SoundDuration":115344,"Delta":400467347},{"NoteNumber":69,"Velocity":65,"Duration":107462,"SoundDuration":107462,"Delta":400582691},{"NoteNumber":45,"Velocity":55,"Duration":107462,"SoundDuration":107462,"Delta":400582691},{"NoteNumber":64,"Velocity":49,"Duration":106500,"SoundDuration":106500,"Delta":400690154},{"NoteNumber":40,"Velocity":41,"Duration":106500,"SoundDuration":106500,"Delta":400690154},{"NoteNumber":69,"Velocity":50,"Duration":105543,"SoundDuration":105543,"Delta":400796654},{"NoteNumber":45,"Velocity":42,"Duration":105543,"SoundDuration":105543,"Delta":400796654},{"NoteNumber":64,"Velocity":50,"Duration":105836,"SoundDuration":105836,"Delta":400902198},{"NoteNumber":40,"Velocity":42,"Duration":105836,"SoundDuration":105836,"Delta":400902198},{"NoteNumber":61,"Velocity":51,"Duration":107545,"SoundDuration":107545,"Delta":401008034},{"NoteNumber":37,"Velocity":43,"Duration":107545,"SoundDuration":107545,"Delta":401008034},{"NoteNumber":64,"Velocity":52,"Duration":113396,"SoundDuration":113396,"Delta":401115580},{"NoteNumber":40,"Velocity":43,"Duration":113396,"SoundDuration":113396,"Delta":401115580},{"NoteNumber":69,"Velocity":68,"Duration":106095,"SoundDuration":106095,"Delta":401228976},{"NoteNumber":45,"Velocity":57,"Duration":106095,"SoundDuration":106095,"Delta":401228976},{"NoteNumber":64,"Velocity":52,"Duration":105277,"SoundDuration":105277,"Delta":401335072},{"NoteNumber":40,"Velocity":44,"Duration":105277,"SoundDuration":105277,"Delta":401335072},{"NoteNumber":69,"Velocity":53,"Duration":104429,"SoundDuration":104429,"Delta":401440350},{"NoteNumber":45,"Velocity":45,"Duration":104429,"SoundDuration":104429,"Delta":401440350},{"NoteNumber":64,"Velocity":54,"Duration":104266,"SoundDuration":104266,"Delta":401544779},{"NoteNumber":40,"Velocity":45,"Duration":104266,"SoundDuration":104266,"Delta":401544779},{"NoteNumber":60,"Velocity":54,"Duration":105800,"SoundDuration":105800,"Delta":401649046},{"NoteNumber":36,"Velocity":45,"Duration":105800,"SoundDuration":105800,"Delta":401649046},{"NoteNumber":64,"Velocity":55,"Duration":113662,"SoundDuration":113662,"Delta":401754847},{"NoteNumber":40,"Velocity":46,"Duration":113662,"SoundDuration":113662,"Delta":401754847},{"NoteNumber":74,"Velocity":74,"Duration":105415,"SoundDuration":105415,"Delta":401868510},{"NoteNumber":35,"Velocity":62,"Duration":105415,"SoundDuration":105415,"Delta":401868510},{"NoteNumber":69,"Velocity":59,"Duration":104959,"SoundDuration":104959,"Delta":401973926},{"NoteNumber":41,"Velocity":50,"Duration":104959,"SoundDuration":104959,"Delta":401973926},{"NoteNumber":74,"Velocity":60,"Duration":104488,"SoundDuration":104488,"Delta":402078885},{"NoteNumber":35,"Velocity":51,"Duration":104488,"SoundDuration":104488,"Delta":402078885},{"NoteNumber":69,"Velocity":61,"Duration":105286,"SoundDuration":105286,"Delta":402183374},{"NoteNumber":41,"Velocity":52,"Duration":105286,"SoundDuration":105286,"Delta":402183374},{"NoteNumber":62,"Velocity":62,"Duration":107533,"SoundDuration":107533,"Delta":402288660},{"NoteNumber":47,"Velocity":53,"Duration":107533,"SoundDuration":107533,"Delta":402288660},{"NoteNumber":69,"Velocity":63,"Duration":113765,"SoundDuration":113765,"Delta":402396194},{"NoteNumber":41,"Velocity":54,"Duration":113765,"SoundDuration":113765,"Delta":402396194},{"NoteNumber":80,"Velocity":82,"Duration":109110,"SoundDuration":109110,"Delta":402509959},{"NoteNumber":34,"Velocity":69,"Duration":109110,"SoundDuration":109110,"Delta":402509959},{"NoteNumber":74,"Velocity":67,"Duration":109144,"SoundDuration":109144,"Delta":402619070},{"NoteNumber":41,"Velocity":56,"Duration":109144,"SoundDuration":109144,"Delta":402619070},{"NoteNumber":80,"Velocity":69,"Duration":109409,"SoundDuration":109409,"Delta":402728214},{"NoteNumber":34,"Velocity":58,"Duration":109409,"SoundDuration":109409,"Delta":402728214},{"NoteNumber":74,"Velocity":70,"Duration":109645,"SoundDuration":109645,"Delta":402837623},{"NoteNumber":41,"Velocity":59,"Duration":109645,"SoundDuration":109645,"Delta":402837623},{"NoteNumber":68,"Velocity":72,"Duration":109850,"SoundDuration":109850,"Delta":402947269},{"NoteNumber":46,"Velocity":61,"Duration":109850,"SoundDuration":109850,"Delta":402947269},{"NoteNumber":74,"Velocity":74,"Duration":119702,"SoundDuration":119702,"Delta":403057120},{"NoteNumber":34,"Velocity":62,"Duration":119702,"SoundDuration":119702,"Delta":403057120},{"NoteNumber":81,"Velocity":105,"Duration":872727,"SoundDuration":872727,"Delta":403176822},{"NoteNumber":76,"Velocity":89,"Duration":872727,"SoundDuration":872727,"Delta":403176822},{"NoteNumber":73,"Velocity":89,"Duration":872727,"SoundDuration":872727,"Delta":403176822},{"NoteNumber":69,"Velocity":89,"Duration":872727,"SoundDuration":872727,"Delta":403176822},{"NoteNumber":33,"Velocity":73,"Duration":872727,"SoundDuration":872727,"Delta":403176822},{"NoteNumber":45,"Velocity":86,"Duration":872727,"SoundDuration":872727,"Delta":403176822},{"NoteNumber":72,"Velocity":54,"Duration":174418,"SoundDuration":174418,"Delta":404049550},{"NoteNumber":75,"Velocity":63,"Duration":174418,"SoundDuration":174418,"Delta":404049550},{"NoteNumber":57,"Velocity":43,"Duration":174418,"SoundDuration":174418,"Delta":404049550},{"NoteNumber":66,"Velocity":51,"Duration":174418,"SoundDuration":174418,"Delta":404049550},{"NoteNumber":72,"Velocity":49,"Duration":174418,"SoundDuration":174418,"Delta":404282108},{"NoteNumber":75,"Velocity":59,"Duration":174418,"SoundDuration":174418,"Delta":404282108},{"NoteNumber":57,"Velocity":39,"Duration":174418,"SoundDuration":174418,"Delta":404282108},{"NoteNumber":66,"Velocity":46,"Duration":174418,"SoundDuration":174418,"Delta":404282108},{"NoteNumber":72,"Velocity":54,"Duration":174418,"SoundDuration":174418,"Delta":404514666},{"NoteNumber":75,"Velocity":63,"Duration":174418,"SoundDuration":174418,"Delta":404514666},{"NoteNumber":57,"Velocity":43,"Duration":174418,"SoundDuration":174418,"Delta":404514666},{"NoteNumber":66,"Velocity":51,"Duration":174418,"SoundDuration":174418,"Delta":404514666},{"NoteNumber":72,"Velocity":49,"Duration":189873,"SoundDuration":189873,"Delta":404747224},{"NoteNumber":75,"Velocity":58,"Duration":189873,"SoundDuration":189873,"Delta":404747224},{"NoteNumber":57,"Velocity":39,"Duration":189873,"SoundDuration":189873,"Delta":404747224},{"NoteNumber":66,"Velocity":46,"Duration":189873,"SoundDuration":189873,"Delta":404747224},{"NoteNumber":73,"Velocity":60,"Duration":437955,"SoundDuration":437955,"Delta":405000389},{"NoteNumber":76,"Velocity":70,"Duration":437955,"SoundDuration":437955,"Delta":405000389},{"NoteNumber":57,"Velocity":47,"Duration":690056,"SoundDuration":690056,"Delta":405000389},{"NoteNumber":69,"Velocity":56,"Duration":437955,"SoundDuration":437955,"Delta":405000389},{"NoteNumber":85,"Velocity":49,"Duration":252100,"SoundDuration":252100,"Delta":405438345},{"NoteNumber":64,"Velocity":37,"Duration":252100,"SoundDuration":252100,"Delta":405438345},{"NoteNumber":49,"Velocity":64,"Duration":185413,"SoundDuration":185413,"Delta":405690446},{"NoteNumber":37,"Velocity":49,"Duration":185413,"SoundDuration":185413,"Delta":405690446},{"NoteNumber":50,"Velocity":66,"Duration":112612,"SoundDuration":112612,"Delta":405875860},{"NoteNumber":38,"Velocity":53,"Duration":112612,"SoundDuration":112612,"Delta":405875860},{"NoteNumber":49,"Velocity":62,"Duration":112612,"SoundDuration":112612,"Delta":405988473},{"NoteNumber":37,"Velocity":49,"Duration":112612,"SoundDuration":112612,"Delta":405988473},{"NoteNumber":47,"Velocity":64,"Duration":112612,"SoundDuration":112612,"Delta":406101085},{"NoteNumber":35,"Velocity":53,"Duration":112612,"SoundDuration":112612,"Delta":406101085},{"NoteNumber":53,"Velocity":65,"Duration":112612,"SoundDuration":112612,"Delta":406213698},{"NoteNumber":41,"Velocity":56,"Duration":112612,"SoundDuration":112612,"Delta":406213698},{"NoteNumber":52,"Velocity":60,"Duration":112612,"SoundDuration":112612,"Delta":406326311},{"NoteNumber":40,"Velocity":51,"Duration":112612,"SoundDuration":112612,"Delta":406326311},{"NoteNumber":50,"Velocity":49,"Duration":140745,"SoundDuration":140745,"Delta":406438923},{"NoteNumber":38,"Velocity":38,"Duration":140745,"SoundDuration":140745,"Delta":406438923},{"NoteNumber":40,"Velocity":43,"Duration":170648,"SoundDuration":170648,"Delta":406579669},{"NoteNumber":49,"Velocity":47,"Duration":113765,"SoundDuration":113765,"Delta":406579669},{"NoteNumber":50,"Velocity":41,"Duration":113765,"SoundDuration":113765,"Delta":406693435},{"NoteNumber":52,"Velocity":41,"Duration":113765,"SoundDuration":113765,"Delta":406807201},{"NoteNumber":73,"Velocity":56,"Duration":274724,"SoundDuration":274724,"Delta":406920966},{"NoteNumber":76,"Velocity":56,"Duration":274724,"SoundDuration":274724,"Delta":406920966},{"NoteNumber":54,"Velocity":47,"Duration":122099,"SoundDuration":122099,"Delta":406920966},{"NoteNumber":56,"Velocity":42,"Duration":122099,"SoundDuration":122099,"Delta":407043066},{"NoteNumber":57,"Velocity":42,"Duration":132358,"SoundDuration":132358,"Delta":407165166},{"NoteNumber":73,"Velocity":49,"Duration":101832,"SoundDuration":101832,"Delta":407195691},{"NoteNumber":76,"Velocity":49,"Duration":101832,"SoundDuration":101832,"Delta":407195691},{"NoteNumber":71,"Velocity":55,"Duration":171134,"SoundDuration":171134,"Delta":407297524},{"NoteNumber":74,"Velocity":55,"Duration":171134,"SoundDuration":171134,"Delta":407297524},{"NoteNumber":59,"Velocity":55,"Duration":114089,"SoundDuration":114089,"Delta":407297524},{"NoteNumber":61,"Velocity":56,"Duration":114090,"SoundDuration":114090,"Delta":407411614},{"NoteNumber":62,"Velocity":54,"Duration":114089,"SoundDuration":114089,"Delta":407525704},{"NoteNumber":52,"Velocity":44,"Duration":114089,"SoundDuration":114089,"Delta":407525704},{"NoteNumber":64,"Velocity":57,"Duration":114090,"SoundDuration":114090,"Delta":407639794},{"NoteNumber":50,"Velocity":50,"Duration":114090,"SoundDuration":114090,"Delta":407639794},{"NoteNumber":66,"Velocity":60,"Duration":114089,"SoundDuration":114089,"Delta":407753884},{"NoteNumber":49,"Velocity":53,"Duration":114089,"SoundDuration":114089,"Delta":407753884},{"NoteNumber":68,"Velocity":62,"Duration":114090,"SoundDuration":114090,"Delta":407867974},{"NoteNumber":47,"Velocity":56,"Duration":114090,"SoundDuration":114090,"Delta":407867974},{"NoteNumber":81,"Velocity":94,"Duration":869566,"SoundDuration":869566,"Delta":407982064},{"NoteNumber":76,"Velocity":80,"Duration":869566,"SoundDuration":869566,"Delta":407982064},{"NoteNumber":73,"Velocity":80,"Duration":869566,"SoundDuration":869566,"Delta":407982064},{"NoteNumber":69,"Velocity":80,"Duration":869566,"SoundDuration":869566,"Delta":407982064},{"NoteNumber":33,"Velocity":65,"Duration":869566,"SoundDuration":869566,"Delta":407982064},{"NoteNumber":45,"Velocity":77,"Duration":869566,"SoundDuration":869566,"Delta":407982064},{"NoteNumber":72,"Velocity":54,"Duration":317307,"SoundDuration":317307,"Delta":408851630},{"NoteNumber":75,"Velocity":63,"Duration":317307,"SoundDuration":317307,"Delta":408851630},{"NoteNumber":57,"Velocity":43,"Duration":317307,"SoundDuration":317307,"Delta":408851630},{"NoteNumber":66,"Velocity":51,"Duration":317307,"SoundDuration":317307,"Delta":408851630},{"NoteNumber":72,"Velocity":49,"Duration":86538,"SoundDuration":86538,"Delta":409197784},{"NoteNumber":75,"Velocity":59,"Duration":86538,"SoundDuration":86538,"Delta":409197784},{"NoteNumber":57,"Velocity":39,"Duration":86538,"SoundDuration":86538,"Delta":409197784},{"NoteNumber":66,"Velocity":46,"Duration":86538,"SoundDuration":86538,"Delta":409197784},{"NoteNumber":72,"Velocity":54,"Duration":326108,"SoundDuration":326108,"Delta":409313168},{"NoteNumber":75,"Velocity":63,"Duration":326108,"SoundDuration":326108,"Delta":409313168},{"NoteNumber":57,"Velocity":43,"Duration":326108,"SoundDuration":326108,"Delta":409313168},{"NoteNumber":66,"Velocity":51,"Duration":326108,"SoundDuration":326108,"Delta":409313168},{"NoteNumber":72,"Velocity":49,"Duration":95339,"SoundDuration":95339,"Delta":409671056},{"NoteNumber":75,"Velocity":58,"Duration":95339,"SoundDuration":95339,"Delta":409671056},{"NoteNumber":57,"Velocity":39,"Duration":95339,"SoundDuration":95339,"Delta":409671056},{"NoteNumber":66,"Velocity":46,"Duration":95339,"SoundDuration":95339,"Delta":409671056},{"NoteNumber":73,"Velocity":60,"Duration":437955,"SoundDuration":437955,"Delta":409798175},{"NoteNumber":76,"Velocity":70,"Duration":437955,"SoundDuration":437955,"Delta":409798175},{"NoteNumber":57,"Velocity":47,"Duration":692193,"SoundDuration":692193,"Delta":409798175},{"NoteNumber":69,"Velocity":56,"Duration":437955,"SoundDuration":437955,"Delta":409798175},{"NoteNumber":85,"Velocity":49,"Duration":254237,"SoundDuration":254237,"Delta":410236131},{"NoteNumber":64,"Velocity":37,"Duration":254237,"SoundDuration":254237,"Delta":410236131},{"NoteNumber":49,"Velocity":64,"Duration":185413,"SoundDuration":185413,"Delta":410490368},{"NoteNumber":37,"Velocity":49,"Duration":185413,"SoundDuration":185413,"Delta":410490368},{"NoteNumber":50,"Velocity":66,"Duration":112612,"SoundDuration":112612,"Delta":410675782},{"NoteNumber":38,"Velocity":53,"Duration":112612,"SoundDuration":112612,"Delta":410675782},{"NoteNumber":49,"Velocity":62,"Duration":112612,"SoundDuration":112612,"Delta":410788395},{"NoteNumber":37,"Velocity":49,"Duration":112612,"SoundDuration":112612,"Delta":410788395},{"NoteNumber":47,"Velocity":64,"Duration":112612,"SoundDuration":112612,"Delta":410901008},{"NoteNumber":35,"Velocity":53,"Duration":112612,"SoundDuration":112612,"Delta":410901008},{"NoteNumber":53,"Velocity":65,"Duration":112612,"SoundDuration":112612,"Delta":411013620},{"NoteNumber":41,"Velocity":56,"Duration":112612,"SoundDuration":112612,"Delta":411013620},{"NoteNumber":52,"Velocity":60,"Duration":112612,"SoundDuration":112612,"Delta":411126233},{"NoteNumber":40,"Velocity":51,"Duration":112612,"SoundDuration":112612,"Delta":411126233},{"NoteNumber":50,"Velocity":49,"Duration":140745,"SoundDuration":140745,"Delta":411238846},{"NoteNumber":38,"Velocity":38,"Duration":140745,"SoundDuration":140745,"Delta":411238846},{"NoteNumber":40,"Velocity":43,"Duration":170648,"SoundDuration":170648,"Delta":411379592},{"NoteNumber":49,"Velocity":47,"Duration":113765,"SoundDuration":113765,"Delta":411379592},{"NoteNumber":50,"Velocity":41,"Duration":113765,"SoundDuration":113765,"Delta":411493357},{"NoteNumber":52,"Velocity":41,"Duration":113765,"SoundDuration":113765,"Delta":411607123},{"NoteNumber":73,"Velocity":56,"Duration":274724,"SoundDuration":274724,"Delta":411720889},{"NoteNumber":76,"Velocity":56,"Duration":274724,"SoundDuration":274724,"Delta":411720889},{"NoteNumber":54,"Velocity":47,"Duration":122099,"SoundDuration":122099,"Delta":411720889},{"NoteNumber":56,"Velocity":42,"Duration":122099,"SoundDuration":122099,"Delta":411842989},{"NoteNumber":57,"Velocity":42,"Duration":132358,"SoundDuration":132358,"Delta":411965089},{"NoteNumber":73,"Velocity":49,"Duration":101832,"SoundDuration":101832,"Delta":411995614},{"NoteNumber":76,"Velocity":49,"Duration":101832,"SoundDuration":101832,"Delta":411995614},{"NoteNumber":71,"Velocity":55,"Duration":171134,"SoundDuration":171134,"Delta":412097447},{"NoteNumber":74,"Velocity":55,"Duration":171134,"SoundDuration":171134,"Delta":412097447},{"NoteNumber":59,"Velocity":55,"Duration":114089,"SoundDuration":114089,"Delta":412097447},{"NoteNumber":61,"Velocity":56,"Duration":114090,"SoundDuration":114090,"Delta":412211537},{"NoteNumber":62,"Velocity":54,"Duration":114089,"SoundDuration":114089,"Delta":412325627},{"NoteNumber":52,"Velocity":44,"Duration":114089,"SoundDuration":114089,"Delta":412325627},{"NoteNumber":64,"Velocity":57,"Duration":114090,"SoundDuration":114090,"Delta":412439717},{"NoteNumber":50,"Velocity":50,"Duration":114090,"SoundDuration":114090,"Delta":412439717},{"NoteNumber":66,"Velocity":60,"Duration":114090,"SoundDuration":114090,"Delta":412553807},{"NoteNumber":49,"Velocity":53,"Duration":114090,"SoundDuration":114090,"Delta":412553807},{"NoteNumber":68,"Velocity":62,"Duration":129602,"SoundDuration":129602,"Delta":412667897},{"NoteNumber":47,"Velocity":56,"Duration":129602,"SoundDuration":129602,"Delta":412667897},{"NoteNumber":69,"Velocity":57,"Duration":116076,"SoundDuration":116076,"Delta":412797499},{"NoteNumber":45,"Velocity":50,"Duration":174045,"SoundDuration":174045,"Delta":412797499},{"NoteNumber":71,"Velocity":61,"Duration":115839,"SoundDuration":115839,"Delta":412913576},{"NoteNumber":73,"Velocity":62,"Duration":115611,"SoundDuration":115611,"Delta":413029415},{"NoteNumber":74,"Velocity":63,"Duration":115383,"SoundDuration":115383,"Delta":413145026},{"NoteNumber":76,"Velocity":64,"Duration":115074,"SoundDuration":115074,"Delta":413260410},{"NoteNumber":78,"Velocity":65,"Duration":114827,"SoundDuration":114827,"Delta":413375485},{"NoteNumber":79,"Velocity":66,"Duration":114603,"SoundDuration":114603,"Delta":413490312},{"NoteNumber":80,"Velocity":67,"Duration":114381,"SoundDuration":114381,"Delta":413604915},{"NoteNumber":81,"Velocity":68,"Duration":114089,"SoundDuration":114089,"Delta":413719297},{"NoteNumber":83,"Velocity":69,"Duration":113834,"SoundDuration":113834,"Delta":413833387},{"NoteNumber":85,"Velocity":70,"Duration":113614,"SoundDuration":113614,"Delta":413947221},{"NoteNumber":86,"Velocity":71,"Duration":113270,"SoundDuration":113270,"Delta":414060836},{"NoteNumber":88,"Velocity":75,"Duration":112862,"SoundDuration":112862,"Delta":414174107},{"NoteNumber":90,"Velocity":71,"Duration":113196,"SoundDuration":113196,"Delta":414286970},{"NoteNumber":88,"Velocity":67,"Duration":113529,"SoundDuration":113529,"Delta":414400166},{"NoteNumber":86,"Velocity":63,"Duration":113826,"SoundDuration":113826,"Delta":414513696},{"NoteNumber":85,"Velocity":60,"Duration":114165,"SoundDuration":114165,"Delta":414627522},{"NoteNumber":83,"Velocity":58,"Duration":114504,"SoundDuration":114504,"Delta":414741688},{"NoteNumber":81,"Velocity":55,"Duration":114806,"SoundDuration":114806,"Delta":414856192},{"NoteNumber":83,"Velocity":53,"Duration":115151,"SoundDuration":115151,"Delta":414970999},{"NoteNumber":81,"Velocity":50,"Duration":115496,"SoundDuration":115496,"Delta":415086150},{"NoteNumber":79,"Velocity":48,"Duration":115803,"SoundDuration":115803,"Delta":415201647},{"NoteNumber":78,"Velocity":45,"Duration":116154,"SoundDuration":116154,"Delta":415317451},{"NoteNumber":76,"Velocity":43,"Duration":116505,"SoundDuration":116505,"Delta":415433605},{"NoteNumber":74,"Velocity":50,"Duration":364741,"SoundDuration":364741,"Delta":415550111},{"NoteNumber":62,"Velocity":41,"Duration":364741,"SoundDuration":364741,"Delta":415550111},{"NoteNumber":66,"Velocity":39,"Duration":95846,"SoundDuration":95846,"Delta":415914853},{"NoteNumber":54,"Velocity":35,"Duration":95846,"SoundDuration":95846,"Delta":415914853},{"NoteNumber":76,"Velocity":49,"Duration":363635,"SoundDuration":363635,"Delta":416298240},{"NoteNumber":64,"Velocity":41,"Duration":363635,"SoundDuration":363635,"Delta":416298240},{"NoteNumber":69,"Velocity":39,"Duration":90909,"SoundDuration":90909,"Delta":416661876},{"NoteNumber":57,"Velocity":35,"Duration":90909,"SoundDuration":90909,"Delta":416661876},{"NoteNumber":69,"Velocity":40,"Duration":47679,"SoundDuration":47679,"Delta":416989700},{"NoteNumber":57,"Velocity":33,"Duration":47679,"SoundDuration":47679,"Delta":416989700},{"NoteNumber":78,"Velocity":49,"Duration":362976,"SoundDuration":362976,"Delta":417037379},{"NoteNumber":66,"Velocity":41,"Duration":362976,"SoundDuration":362976,"Delta":417037379},{"NoteNumber":74,"Velocity":39,"Duration":94458,"SoundDuration":94458,"Delta":417400355},{"NoteNumber":62,"Velocity":34,"Duration":94458,"SoundDuration":94458,"Delta":417400355},{"NoteNumber":74,"Velocity":40,"Duration":47229,"SoundDuration":47229,"Delta":417730960},{"NoteNumber":62,"Velocity":33,"Duration":47229,"SoundDuration":47229,"Delta":417730960},{"NoteNumber":83,"Velocity":55,"Duration":275566,"SoundDuration":275566,"Delta":417778189},{"NoteNumber":71,"Velocity":45,"Duration":275566,"SoundDuration":275566,"Delta":417778189},{"NoteNumber":80,"Velocity":45,"Duration":91855,"SoundDuration":91855,"Delta":418053756},{"NoteNumber":68,"Velocity":36,"Duration":91855,"SoundDuration":91855,"Delta":418053756},{"NoteNumber":83,"Velocity":53,"Duration":275566,"SoundDuration":275566,"Delta":418145611},{"NoteNumber":71,"Velocity":43,"Duration":275566,"SoundDuration":275566,"Delta":418145611},{"NoteNumber":80,"Velocity":46,"Duration":99140,"SoundDuration":99140,"Delta":418421178},{"NoteNumber":68,"Velocity":35,"Duration":99140,"SoundDuration":99140,"Delta":418421178},{"NoteNumber":69,"Velocity":41,"Duration":364678,"SoundDuration":364678,"Delta":418520319},{"NoteNumber":81,"Velocity":50,"Duration":367339,"SoundDuration":367339,"Delta":418525670},{"NoteNumber":69,"Velocity":39,"Duration":98039,"SoundDuration":98039,"Delta":418887291},{"NoteNumber":57,"Velocity":35,"Duration":98039,"SoundDuration":98039,"Delta":418890559},{"NoteNumber":69,"Velocity":40,"Duration":49019,"SoundDuration":49019,"Delta":419230428},{"NoteNumber":57,"Velocity":33,"Duration":49019,"SoundDuration":49019,"Delta":419230428},{"NoteNumber":79,"Velocity":49,"Duration":368097,"SoundDuration":368097,"Delta":419279448},{"NoteNumber":67,"Velocity":41,"Duration":368097,"SoundDuration":368097,"Delta":419279448},{"NoteNumber":76,"Velocity":39,"Duration":98039,"SoundDuration":98039,"Delta":419647546},{"NoteNumber":64,"Velocity":35,"Duration":98039,"SoundDuration":98039,"Delta":419647546},{"NoteNumber":76,"Velocity":40,"Duration":49019,"SoundDuration":49019,"Delta":419990683},{"NoteNumber":64,"Velocity":33,"Duration":49019,"SoundDuration":49019,"Delta":419990683},{"NoteNumber":78,"Velocity":49,"Duration":362976,"SoundDuration":362976,"Delta":420039703},{"NoteNumber":66,"Velocity":41,"Duration":362976,"SoundDuration":362976,"Delta":420039703},{"NoteNumber":69,"Velocity":39,"Duration":94458,"SoundDuration":94458,"Delta":420402679},{"NoteNumber":57,"Velocity":34,"Duration":94458,"SoundDuration":94458,"Delta":420402679},{"NoteNumber":69,"Velocity":40,"Duration":47229,"SoundDuration":47229,"Delta":420733283},{"NoteNumber":57,"Velocity":33,"Duration":47229,"SoundDuration":47229,"Delta":420733283},{"NoteNumber":76,"Velocity":55,"Duration":275566,"SoundDuration":275566,"Delta":420780513},{"NoteNumber":64,"Velocity":45,"Duration":275566,"SoundDuration":275566,"Delta":420780513},{"NoteNumber":73,"Velocity":45,"Duration":91855,"SoundDuration":91855,"Delta":421056079},{"NoteNumber":61,"Velocity":36,"Duration":91855,"SoundDuration":91855,"Delta":421056079},{"NoteNumber":76,"Velocity":53,"Duration":275566,"SoundDuration":275566,"Delta":421147935},{"NoteNumber":64,"Velocity":43,"Duration":275566,"SoundDuration":275566,"Delta":421147935},{"NoteNumber":73,"Velocity":46,"Duration":99140,"SoundDuration":99140,"Delta":421423501},{"NoteNumber":61,"Velocity":35,"Duration":99140,"SoundDuration":99140,"Delta":421423501},{"NoteNumber":74,"Velocity":50,"Duration":115740,"SoundDuration":115740,"Delta":421522642},{"NoteNumber":54,"Velocity":41,"Duration":347221,"SoundDuration":347221,"Delta":421522642},{"NoteNumber":62,"Velocity":41,"Duration":347221,"SoundDuration":347221,"Delta":421522642},{"NoteNumber":69,"Velocity":44,"Duration":115740,"SoundDuration":115740,"Delta":421638383},{"NoteNumber":74,"Velocity":38,"Duration":115740,"SoundDuration":115740,"Delta":421754123},{"NoteNumber":66,"Velocity":39,"Duration":97087,"SoundDuration":97087,"Delta":421869864},{"NoteNumber":57,"Velocity":35,"Duration":97087,"SoundDuration":97087,"Delta":421873100},{"NoteNumber":76,"Velocity":50,"Duration":115740,"SoundDuration":115740,"Delta":422258214},{"NoteNumber":61,"Velocity":41,"Duration":347221,"SoundDuration":347221,"Delta":422258214},{"NoteNumber":64,"Velocity":41,"Duration":347221,"SoundDuration":347221,"Delta":422258214},{"NoteNumber":73,"Velocity":44,"Duration":115740,"SoundDuration":115740,"Delta":422373955},{"NoteNumber":76,"Velocity":38,"Duration":115740,"SoundDuration":115740,"Delta":422489695},{"NoteNumber":69,"Velocity":39,"Duration":97402,"SoundDuration":97402,"Delta":422605436},{"NoteNumber":57,"Velocity":35,"Duration":97402,"SoundDuration":97402,"Delta":422608683},{"NoteNumber":78,"Velocity":50,"Duration":115740,"SoundDuration":115740,"Delta":422995046},{"NoteNumber":57,"Velocity":41,"Duration":347221,"SoundDuration":347221,"Delta":422995046},{"NoteNumber":66,"Velocity":41,"Duration":347221,"SoundDuration":347221,"Delta":422995046},{"NoteNumber":76,"Velocity":44,"Duration":115740,"SoundDuration":115740,"Delta":423110787},{"NoteNumber":78,"Velocity":38,"Duration":115740,"SoundDuration":115740,"Delta":423226527},{"NoteNumber":74,"Velocity":39,"Duration":90743,"SoundDuration":90743,"Delta":423342268},{"NoteNumber":62,"Velocity":35,"Duration":90743,"SoundDuration":90743,"Delta":423342268},{"NoteNumber":83,"Velocity":55,"Duration":122474,"SoundDuration":122474,"Delta":423705244},{"NoteNumber":68,"Velocity":45,"Duration":275566,"SoundDuration":275566,"Delta":423705244},{"NoteNumber":65,"Velocity":38,"Duration":275566,"SoundDuration":275566,"Delta":423705244},{"NoteNumber":80,"Velocity":47,"Duration":122474,"SoundDuration":122474,"Delta":423827718},{"NoteNumber":83,"Velocity":47,"Duration":122473,"SoundDuration":122473,"Delta":423950192},{"NoteNumber":62,"Velocity":36,"Duration":91855,"SoundDuration":91855,"Delta":423980810},{"NoteNumber":86,"Velocity":55,"Duration":122474,"SoundDuration":122474,"Delta":424072666},{"NoteNumber":68,"Velocity":43,"Duration":275566,"SoundDuration":275566,"Delta":424072666},{"NoteNumber":65,"Velocity":36,"Duration":275566,"SoundDuration":275566,"Delta":424072666},{"NoteNumber":83,"Velocity":47,"Duration":122474,"SoundDuration":122474,"Delta":424195140},{"NoteNumber":80,"Velocity":47,"Duration":129759,"SoundDuration":129759,"Delta":424317614},{"NoteNumber":62,"Velocity":35,"Duration":99140,"SoundDuration":99140,"Delta":424348232},{"NoteNumber":81,"Velocity":50,"Duration":115740,"SoundDuration":115740,"Delta":424447373},{"NoteNumber":69,"Velocity":41,"Duration":345051,"SoundDuration":345051,"Delta":424447373},{"NoteNumber":66,"Velocity":41,"Duration":347221,"SoundDuration":347221,"Delta":424447373},{"NoteNumber":78,"Velocity":44,"Duration":115740,"SoundDuration":115740,"Delta":424563114},{"NoteNumber":81,"Velocity":38,"Duration":115740,"SoundDuration":115740,"Delta":424678854},{"NoteNumber":69,"Velocity":39,"Duration":97719,"SoundDuration":97719,"Delta":424794595},{"NoteNumber":57,"Velocity":35,"Duration":97719,"SoundDuration":97719,"Delta":424797852},{"NoteNumber":79,"Velocity":50,"Duration":115740,"SoundDuration":115740,"Delta":425185474},{"NoteNumber":64,"Velocity":41,"Duration":347221,"SoundDuration":347221,"Delta":425185474},{"NoteNumber":67,"Velocity":41,"Duration":347221,"SoundDuration":347221,"Delta":425185474},{"NoteNumber":78,"Velocity":44,"Duration":115740,"SoundDuration":115740,"Delta":425301215},{"NoteNumber":79,"Velocity":38,"Duration":115740,"SoundDuration":115740,"Delta":425416955},{"NoteNumber":76,"Velocity":39,"Duration":97719,"SoundDuration":97719,"Delta":425532696},{"NoteNumber":57,"Velocity":35,"Duration":97719,"SoundDuration":97719,"Delta":425535953},{"NoteNumber":78,"Velocity":50,"Duration":115740,"SoundDuration":115740,"Delta":425923575},{"NoteNumber":62,"Velocity":41,"Duration":347221,"SoundDuration":347221,"Delta":425923575},{"NoteNumber":66,"Velocity":41,"Duration":347221,"SoundDuration":347221,"Delta":425923575},{"NoteNumber":74,"Velocity":44,"Duration":115740,"SoundDuration":115740,"Delta":426039316},{"NoteNumber":78,"Velocity":38,"Duration":115740,"SoundDuration":115740,"Delta":426155056},{"NoteNumber":69,"Velocity":39,"Duration":97402,"SoundDuration":97402,"Delta":426270797},{"NoteNumber":57,"Velocity":35,"Duration":97402,"SoundDuration":97402,"Delta":426270797},{"NoteNumber":76,"Velocity":55,"Duration":275566,"SoundDuration":275566,"Delta":426660407},{"NoteNumber":61,"Velocity":38,"Duration":275566,"SoundDuration":275566,"Delta":426660407},{"NoteNumber":64,"Velocity":45,"Duration":275566,"SoundDuration":275566,"Delta":426660407},{"NoteNumber":73,"Velocity":45,"Duration":91855,"SoundDuration":91855,"Delta":426935974},{"NoteNumber":57,"Velocity":36,"Duration":91855,"SoundDuration":91855,"Delta":426935974},{"NoteNumber":76,"Velocity":53,"Duration":275566,"SoundDuration":275566,"Delta":427027829},{"NoteNumber":61,"Velocity":36,"Duration":275566,"SoundDuration":275566,"Delta":427027829},{"NoteNumber":64,"Velocity":43,"Duration":275566,"SoundDuration":275566,"Delta":427027829},{"NoteNumber":73,"Velocity":46,"Duration":125733,"SoundDuration":125733,"Delta":427303396},{"NoteNumber":57,"Velocity":35,"Duration":125733,"SoundDuration":125733,"Delta":427303396},{"NoteNumber":76,"Velocity":78,"Duration":156250,"SoundDuration":156250,"Delta":427429129},{"NoteNumber":64,"Velocity":69,"Duration":156250,"SoundDuration":156250,"Delta":427429129},{"NoteNumber":67,"Velocity":62,"Duration":156250,"SoundDuration":156250,"Delta":427585379},{"NoteNumber":55,"Velocity":53,"Duration":156250,"SoundDuration":156250,"Delta":427585379},{"NoteNumber":76,"Velocity":62,"Duration":176211,"SoundDuration":176211,"Delta":427741629},{"NoteNumber":64,"Velocity":53,"Duration":176211,"SoundDuration":176211,"Delta":427741629},{"NoteNumber":60,"Velocity":78,"Duration":820312,"SoundDuration":820312,"Delta":427917840},{"NoteNumber":48,"Velocity":71,"Duration":820312,"SoundDuration":820312,"Delta":427917840},{"NoteNumber":76,"Velocity":59,"Duration":117187,"SoundDuration":117187,"Delta":428738153},{"NoteNumber":67,"Velocity":59,"Duration":117187,"SoundDuration":117187,"Delta":428738153},{"NoteNumber":55,"Velocity":48,"Duration":117187,"SoundDuration":117187,"Delta":428738153},{"NoteNumber":64,"Velocity":48,"Duration":117187,"SoundDuration":117187,"Delta":428738153},{"NoteNumber":60,"Velocity":78,"Duration":351562,"SoundDuration":351562,"Delta":428855340},{"NoteNumber":48,"Velocity":62,"Duration":351562,"SoundDuration":351562,"Delta":428855340},{"NoteNumber":67,"Velocity":62,"Duration":131578,"SoundDuration":131578,"Delta":429206903},{"NoteNumber":55,"Velocity":53,"Duration":131578,"SoundDuration":131578,"Delta":429206903},{"NoteNumber":76,"Velocity":75,"Duration":143574,"SoundDuration":143574,"Delta":429338482},{"NoteNumber":64,"Velocity":71,"Duration":143574,"SoundDuration":143574,"Delta":429338482},{"NoteNumber":67,"Velocity":56,"Duration":143575,"SoundDuration":143575,"Delta":429482057},{"NoteNumber":55,"Velocity":53,"Duration":143575,"SoundDuration":143575,"Delta":429482057},{"NoteNumber":76,"Velocity":56,"Duration":166944,"SoundDuration":166944,"Delta":429625632},{"NoteNumber":64,"Velocity":53,"Duration":166944,"SoundDuration":166944,"Delta":429625632},{"NoteNumber":60,"Velocity":74,"Duration":820312,"SoundDuration":820312,"Delta":429792577},{"NoteNumber":48,"Velocity":68,"Duration":820312,"SoundDuration":820312,"Delta":429792577},{"NoteNumber":76,"Velocity":59,"Duration":117187,"SoundDuration":117187,"Delta":430612889},{"NoteNumber":67,"Velocity":59,"Duration":117187,"SoundDuration":117187,"Delta":430612889},{"NoteNumber":55,"Velocity":48,"Duration":117187,"SoundDuration":117187,"Delta":430612889},{"NoteNumber":64,"Velocity":48,"Duration":117187,"SoundDuration":117187,"Delta":430612889},{"NoteNumber":60,"Velocity":74,"Duration":820312,"SoundDuration":820312,"Delta":430730077},{"NoteNumber":48,"Velocity":62,"Duration":820312,"SoundDuration":820312,"Delta":430730077},{"NoteNumber":67,"Velocity":52,"Duration":132158,"SoundDuration":132158,"Delta":431550389},{"NoteNumber":76,"Velocity":62,"Duration":132158,"SoundDuration":132158,"Delta":431550389},{"NoteNumber":55,"Velocity":45,"Duration":132158,"SoundDuration":132158,"Delta":431550389},{"NoteNumber":64,"Velocity":53,"Duration":132158,"SoundDuration":132158,"Delta":431550389},{"NoteNumber":60,"Velocity":74,"Duration":796661,"SoundDuration":796661,"Delta":431682548},{"NoteNumber":48,"Velocity":62,"Duration":796661,"SoundDuration":796661,"Delta":431682548},{"NoteNumber":67,"Velocity":52,"Duration":113808,"SoundDuration":113808,"Delta":432479209},{"NoteNumber":76,"Velocity":62,"Duration":113808,"SoundDuration":113808,"Delta":432479209},{"NoteNumber":55,"Velocity":45,"Duration":113808,"SoundDuration":113808,"Delta":432479209},{"NoteNumber":64,"Velocity":53,"Duration":113808,"SoundDuration":113808,"Delta":432479209},{"NoteNumber":60,"Velocity":74,"Duration":341426,"SoundDuration":341426,"Delta":432593018},{"NoteNumber":48,"Velocity":62,"Duration":341426,"SoundDuration":341426,"Delta":432593018},{"NoteNumber":76,"Velocity":62,"Duration":113808,"SoundDuration":113808,"Delta":432934444},{"NoteNumber":67,"Velocity":52,"Duration":113808,"SoundDuration":113808,"Delta":432934444},{"NoteNumber":60,"Velocity":53,"Duration":113808,"SoundDuration":113808,"Delta":432934444},{"NoteNumber":77,"Velocity":79,"Duration":145666,"SoundDuration":145666,"Delta":433048253},{"NoteNumber":53,"Velocity":71,"Duration":145666,"SoundDuration":145666,"Delta":433048253},{"NoteNumber":69,"Velocity":62,"Duration":145666,"SoundDuration":145666,"Delta":433193919},{"NoteNumber":60,"Velocity":53,"Duration":145666,"SoundDuration":145666,"Delta":433193919},{"NoteNumber":77,"Velocity":62,"Duration":182648,"SoundDuration":182648,"Delta":433339586},{"NoteNumber":53,"Velocity":53,"Duration":182648,"SoundDuration":182648,"Delta":433339586},{"NoteNumber":81,"Velocity":81,"Duration":810810,"SoundDuration":810810,"Delta":433522234},{"NoteNumber":41,"Velocity":69,"Duration":810810,"SoundDuration":810810,"Delta":433522234},{"NoteNumber":69,"Velocity":59,"Duration":115830,"SoundDuration":115830,"Delta":434333044},{"NoteNumber":53,"Velocity":48,"Duration":115830,"SoundDuration":115830,"Delta":434333044},{"NoteNumber":60,"Velocity":48,"Duration":115830,"SoundDuration":115830,"Delta":434333044},{"NoteNumber":77,"Velocity":62,"Duration":347489,"SoundDuration":347489,"Delta":434448874},{"NoteNumber":81,"Velocity":74,"Duration":347489,"SoundDuration":347489,"Delta":434448874},{"NoteNumber":41,"Velocity":62,"Duration":347489,"SoundDuration":347489,"Delta":434448874},{"NoteNumber":69,"Velocity":62,"Duration":136986,"SoundDuration":136986,"Delta":434796364},{"NoteNumber":60,"Velocity":53,"Duration":136986,"SoundDuration":136986,"Delta":434796364},{"NoteNumber":77,"Velocity":71,"Duration":147275,"SoundDuration":147275,"Delta":434933350},{"NoteNumber":53,"Velocity":62,"Duration":147275,"SoundDuration":147275,"Delta":434933350},{"NoteNumber":69,"Velocity":56,"Duration":147275,"SoundDuration":147275,"Delta":435080626},{"NoteNumber":60,"Velocity":53,"Duration":147275,"SoundDuration":147275,"Delta":435080626},{"NoteNumber":77,"Velocity":56,"Duration":178571,"SoundDuration":178571,"Delta":435227901},{"NoteNumber":53,"Velocity":53,"Duration":178571,"SoundDuration":178571,"Delta":435227901},{"NoteNumber":81,"Velocity":74,"Duration":820312,"SoundDuration":820312,"Delta":435406472},{"NoteNumber":41,"Velocity":62,"Duration":820312,"SoundDuration":820312,"Delta":435406472},{"NoteNumber":69,"Velocity":59,"Duration":126050,"SoundDuration":126050,"Delta":436226785},{"NoteNumber":53,"Velocity":48,"Duration":126050,"SoundDuration":126050,"Delta":436226785},{"NoteNumber":60,"Velocity":48,"Duration":126050,"SoundDuration":126050,"Delta":436226785},{"NoteNumber":77,"Velocity":74,"Duration":820312,"SoundDuration":820312,"Delta":436352835},{"NoteNumber":81,"Velocity":74,"Duration":820312,"SoundDuration":820312,"Delta":436352835},{"NoteNumber":41,"Velocity":62,"Duration":820312,"SoundDuration":820312,"Delta":436352835},{"NoteNumber":69,"Velocity":62,"Duration":125208,"SoundDuration":125208,"Delta":437173148},{"NoteNumber":53,"Velocity":45,"Duration":125208,"SoundDuration":125208,"Delta":437173148},{"NoteNumber":60,"Velocity":53,"Duration":125208,"SoundDuration":125208,"Delta":437173148},{"NoteNumber":77,"Velocity":74,"Duration":826771,"SoundDuration":826771,"Delta":437298356},{"NoteNumber":81,"Velocity":80,"Duration":826771,"SoundDuration":826771,"Delta":437298356},{"NoteNumber":41,"Velocity":62,"Duration":826771,"SoundDuration":826771,"Delta":437298356},{"NoteNumber":69,"Velocity":53,"Duration":143816,"SoundDuration":143816,"Delta":438125128},{"NoteNumber":45,"Velocity":41,"Duration":143816,"SoundDuration":143816,"Delta":438125128},{"NoteNumber":73,"Velocity":57,"Duration":860655,"SoundDuration":860655,"Delta":438268944},{"NoteNumber":79,"Velocity":57,"Duration":860655,"SoundDuration":860655,"Delta":438268944},{"NoteNumber":81,"Velocity":63,"Duration":860655,"SoundDuration":860655,"Delta":438268944},{"NoteNumber":40,"Velocity":45,"Duration":860655,"SoundDuration":860655,"Delta":438268944},{"NoteNumber":69,"Velocity":42,"Duration":149999,"SoundDuration":149999,"Delta":439129599},{"NoteNumber":45,"Velocity":33,"Duration":149999,"SoundDuration":149999,"Delta":439129599},{"NoteNumber":73,"Velocity":44,"Duration":407239,"SoundDuration":407239,"Delta":439279599},{"NoteNumber":79,"Velocity":44,"Duration":407239,"SoundDuration":407239,"Delta":439279599},{"NoteNumber":81,"Velocity":53,"Duration":407239,"SoundDuration":407239,"Delta":439279599},{"NoteNumber":40,"Velocity":37,"Duration":407239,"SoundDuration":407239,"Delta":439279599},{"NoteNumber":69,"Velocity":42,"Duration":135746,"SoundDuration":135746,"Delta":439686839},{"NoteNumber":45,"Velocity":32,"Duration":135746,"SoundDuration":135746,"Delta":439686839},{"NoteNumber":73,"Velocity":41,"Duration":428571,"SoundDuration":428571,"Delta":439822585},{"NoteNumber":79,"Velocity":41,"Duration":428571,"SoundDuration":428571,"Delta":439822585},{"NoteNumber":81,"Velocity":48,"Duration":428571,"SoundDuration":428571,"Delta":439822585},{"NoteNumber":40,"Velocity":34,"Duration":428571,"SoundDuration":428571,"Delta":439822585},{"NoteNumber":69,"Velocity":39,"Duration":171428,"SoundDuration":171428,"Delta":440251157},{"NoteNumber":45,"Velocity":29,"Duration":171428,"SoundDuration":171428,"Delta":440251157},{"NoteNumber":73,"Velocity":37,"Duration":443349,"SoundDuration":443349,"Delta":440422586},{"NoteNumber":79,"Velocity":37,"Duration":443349,"SoundDuration":443349,"Delta":440422586},{"NoteNumber":81,"Velocity":44,"Duration":443349,"SoundDuration":443349,"Delta":440422586},{"NoteNumber":40,"Velocity":31,"Duration":443349,"SoundDuration":443349,"Delta":440422586},{"NoteNumber":69,"Velocity":35,"Duration":189873,"SoundDuration":189873,"Delta":440865935},{"NoteNumber":45,"Velocity":27,"Duration":189873,"SoundDuration":189873,"Delta":440865935},{"NoteNumber":74,"Velocity":42,"Duration":87209,"SoundDuration":87209,"Delta":441055809},{"NoteNumber":78,"Velocity":42,"Duration":87209,"SoundDuration":87209,"Delta":441055809},{"NoteNumber":81,"Velocity":50,"Duration":87209,"SoundDuration":87209,"Delta":441055809},{"NoteNumber":38,"Velocity":31,"Duration":87209,"SoundDuration":87209,"Delta":441055809},{"NoteNumber":69,"Velocity":39,"Duration":116278,"SoundDuration":116278,"Delta":441172088},{"NoteNumber":74,"Velocity":41,"Duration":116174,"SoundDuration":116174,"Delta":441288367},{"NoteNumber":78,"Velocity":42,"Duration":115607,"SoundDuration":115607,"Delta":441404541},{"NoteNumber":81,"Velocity":44,"Duration":115288,"SoundDuration":115288,"Delta":441520148},{"NoteNumber":86,"Velocity":45,"Duration":115023,"SoundDuration":115023,"Delta":441635436},{"NoteNumber":81,"Velocity":47,"Duration":114759,"SoundDuration":114759,"Delta":441750460},{"NoteNumber":74,"Velocity":45,"Duration":114496,"SoundDuration":114496,"Delta":441865219},{"NoteNumber":62,"Velocity":38,"Duration":114496,"SoundDuration":114496,"Delta":441865219},{"NoteNumber":78,"Velocity":49,"Duration":114208,"SoundDuration":114208,"Delta":441979716},{"NoteNumber":66,"Velocity":40,"Duration":114208,"SoundDuration":114208,"Delta":441979716},{"NoteNumber":81,"Velocity":52,"Duration":115160,"SoundDuration":115160,"Delta":442093924},{"NoteNumber":69,"Velocity":42,"Duration":115160,"SoundDuration":115160,"Delta":442093924},{"NoteNumber":86,"Velocity":52,"Duration":115942,"SoundDuration":115942,"Delta":442209084},{"NoteNumber":74,"Velocity":41,"Duration":115942,"SoundDuration":115942,"Delta":442209084},{"NoteNumber":90,"Velocity":47,"Duration":126182,"SoundDuration":126182,"Delta":442325026},{"NoteNumber":78,"Velocity":38,"Duration":126182,"SoundDuration":126182,"Delta":442325026},{"NoteNumber":81,"Velocity":52,"Duration":113960,"SoundDuration":113960,"Delta":442451209},{"NoteNumber":69,"Velocity":42,"Duration":170939,"SoundDuration":170939,"Delta":442451209},{"NoteNumber":83,"Velocity":45,"Duration":113959,"SoundDuration":113959,"Delta":442565169},{"NoteNumber":81,"Velocity":45,"Duration":113960,"SoundDuration":113960,"Delta":442679129},{"NoteNumber":79,"Velocity":52,"Duration":115942,"SoundDuration":115942,"Delta":442793089},{"NoteNumber":67,"Velocity":34,"Duration":86956,"SoundDuration":86956,"Delta":442793089},{"NoteNumber":64,"Velocity":28,"Duration":86956,"SoundDuration":86956,"Delta":442793089},{"NoteNumber":57,"Velocity":28,"Duration":86956,"SoundDuration":86956,"Delta":442793089},{"NoteNumber":83,"Velocity":47,"Duration":115941,"SoundDuration":115941,"Delta":442909031},{"NoteNumber":79,"Velocity":47,"Duration":115942,"SoundDuration":115942,"Delta":443024973},{"NoteNumber":78,"Velocity":53,"Duration":115942,"SoundDuration":115942,"Delta":443140915},{"NoteNumber":66,"Velocity":34,"Duration":86956,"SoundDuration":86956,"Delta":443140915},{"NoteNumber":62,"Velocity":28,"Duration":86956,"SoundDuration":86956,"Delta":443140915},{"NoteNumber":57,"Velocity":28,"Duration":86956,"SoundDuration":86956,"Delta":443140915},{"NoteNumber":81,"Velocity":47,"Duration":115941,"SoundDuration":115941,"Delta":443256857},{"NoteNumber":78,"Velocity":47,"Duration":115942,"SoundDuration":115942,"Delta":443372799},{"NoteNumber":76,"Velocity":52,"Duration":115942,"SoundDuration":115942,"Delta":443488741},{"NoteNumber":64,"Velocity":34,"Duration":86956,"SoundDuration":86956,"Delta":443488741},{"NoteNumber":61,"Velocity":28,"Duration":86956,"SoundDuration":86956,"Delta":443488741},{"NoteNumber":57,"Velocity":28,"Duration":86956,"SoundDuration":86956,"Delta":443488741},{"NoteNumber":79,"Velocity":47,"Duration":115942,"SoundDuration":115942,"Delta":443604683},{"NoteNumber":76,"Velocity":47,"Duration":124999,"SoundDuration":124999,"Delta":443720625},{"NoteNumber":74,"Velocity":50,"Duration":116279,"SoundDuration":116279,"Delta":443845625},{"NoteNumber":50,"Velocity":31,"Duration":174418,"SoundDuration":174418,"Delta":443845625},{"NoteNumber":54,"Velocity":31,"Duration":174418,"SoundDuration":174418,"Delta":443845625},{"NoteNumber":62,"Velocity":37,"Duration":174418,"SoundDuration":174418,"Delta":443845625},{"NoteNumber":69,"Velocity":39,"Duration":116278,"SoundDuration":116278,"Delta":443961904},{"NoteNumber":74,"Velocity":41,"Duration":116174,"SoundDuration":116174,"Delta":444078183},{"NoteNumber":78,"Velocity":42,"Duration":115607,"SoundDuration":115607,"Delta":444194357},{"NoteNumber":81,"Velocity":44,"Duration":115288,"SoundDuration":115288,"Delta":444309964},{"NoteNumber":86,"Velocity":45,"Duration":115023,"SoundDuration":115023,"Delta":444425252},{"NoteNumber":81,"Velocity":47,"Duration":114759,"SoundDuration":114759,"Delta":444540276},{"NoteNumber":74,"Velocity":45,"Duration":114496,"SoundDuration":114496,"Delta":444655035},{"NoteNumber":62,"Velocity":38,"Duration":114496,"SoundDuration":114496,"Delta":444655035},{"NoteNumber":78,"Velocity":49,"Duration":114208,"SoundDuration":114208,"Delta":444769532},{"NoteNumber":66,"Velocity":40,"Duration":114208,"SoundDuration":114208,"Delta":444769532},{"NoteNumber":81,"Velocity":52,"Duration":115160,"SoundDuration":115160,"Delta":444883740},{"NoteNumber":69,"Velocity":42,"Duration":115160,"SoundDuration":115160,"Delta":444883740},{"NoteNumber":86,"Velocity":52,"Duration":115942,"SoundDuration":115942,"Delta":444998900},{"NoteNumber":74,"Velocity":41,"Duration":115942,"SoundDuration":115942,"Delta":444998900},{"NoteNumber":90,"Velocity":47,"Duration":126182,"SoundDuration":126182,"Delta":445114842},{"NoteNumber":78,"Velocity":38,"Duration":126182,"SoundDuration":126182,"Delta":445114842},{"NoteNumber":81,"Velocity":52,"Duration":113960,"SoundDuration":113960,"Delta":445241025},{"NoteNumber":69,"Velocity":42,"Duration":170939,"SoundDuration":170939,"Delta":445241025},{"NoteNumber":83,"Velocity":45,"Duration":113959,"SoundDuration":113959,"Delta":445354985},{"NoteNumber":81,"Velocity":45,"Duration":113960,"SoundDuration":113960,"Delta":445468945},{"NoteNumber":79,"Velocity":52,"Duration":115942,"SoundDuration":115942,"Delta":445582905},{"NoteNumber":67,"Velocity":34,"Duration":86956,"SoundDuration":86956,"Delta":445582905},{"NoteNumber":64,"Velocity":28,"Duration":86956,"SoundDuration":86956,"Delta":445582905},{"NoteNumber":57,"Velocity":28,"Duration":86956,"SoundDuration":86956,"Delta":445582905},{"NoteNumber":81,"Velocity":47,"Duration":115941,"SoundDuration":115941,"Delta":445698847},{"NoteNumber":79,"Velocity":47,"Duration":115942,"SoundDuration":115942,"Delta":445814789},{"NoteNumber":78,"Velocity":53,"Duration":115942,"SoundDuration":115942,"Delta":445930731},{"NoteNumber":66,"Velocity":34,"Duration":86956,"SoundDuration":86956,"Delta":445930731},{"NoteNumber":62,"Velocity":28,"Duration":86956,"SoundDuration":86956,"Delta":445930731},{"NoteNumber":57,"Velocity":28,"Duration":86956,"SoundDuration":86956,"Delta":445930731},{"NoteNumber":79,"Velocity":47,"Duration":115941,"SoundDuration":115941,"Delta":446046673},{"NoteNumber":78,"Velocity":47,"Duration":115942,"SoundDuration":115942,"Delta":446162615},{"NoteNumber":76,"Velocity":52,"Duration":115942,"SoundDuration":115942,"Delta":446278557},{"NoteNumber":64,"Velocity":34,"Duration":86956,"SoundDuration":86956,"Delta":446278557},{"NoteNumber":61,"Velocity":28,"Duration":86956,"SoundDuration":86956,"Delta":446278557},{"NoteNumber":57,"Velocity":28,"Duration":86956,"SoundDuration":86956,"Delta":446278557},{"NoteNumber":78,"Velocity":47,"Duration":115942,"SoundDuration":115942,"Delta":446394499},{"NoteNumber":76,"Velocity":47,"Duration":148147,"SoundDuration":148147,"Delta":446510441},{"NoteNumber":66,"Velocity":42,"Duration":125786,"SoundDuration":125786,"Delta":446658589},{"NoteNumber":62,"Velocity":41,"Duration":377358,"SoundDuration":377358,"Delta":446658589},{"NoteNumber":69,"Velocity":37,"Duration":125786,"SoundDuration":125786,"Delta":446784375},{"NoteNumber":66,"Velocity":37,"Duration":125786,"SoundDuration":125786,"Delta":446910161},{"NoteNumber":69,"Velocity":43,"Duration":125786,"SoundDuration":125786,"Delta":447035947},{"NoteNumber":54,"Velocity":35,"Duration":188678,"SoundDuration":188678,"Delta":447035947},{"NoteNumber":74,"Velocity":36,"Duration":125786,"SoundDuration":125786,"Delta":447161733},{"NoteNumber":69,"Velocity":37,"Duration":123674,"SoundDuration":123674,"Delta":447287519},{"NoteNumber":69,"Velocity":43,"Duration":126183,"SoundDuration":126183,"Delta":447428862},{"NoteNumber":64,"Velocity":40,"Duration":378549,"SoundDuration":378549,"Delta":447428862},{"NoteNumber":73,"Velocity":37,"Duration":126182,"SoundDuration":126182,"Delta":447555045},{"NoteNumber":69,"Velocity":38,"Duration":126183,"SoundDuration":126183,"Delta":447681228},{"NoteNumber":73,"Velocity":43,"Duration":126182,"SoundDuration":126182,"Delta":447807411},{"NoteNumber":57,"Velocity":33,"Duration":189274,"SoundDuration":189274,"Delta":447807411},{"NoteNumber":76,"Velocity":39,"Duration":126183,"SoundDuration":126183,"Delta":447933594},{"NoteNumber":73,"Velocity":39,"Duration":141342,"SoundDuration":141342,"Delta":448059777},{"NoteNumber":69,"Velocity":43,"Duration":125000,"SoundDuration":125000,"Delta":448201120},{"NoteNumber":66,"Velocity":42,"Duration":375000,"SoundDuration":375000,"Delta":448201120},{"NoteNumber":74,"Velocity":38,"Duration":125000,"SoundDuration":125000,"Delta":448326120},{"NoteNumber":69,"Velocity":38,"Duration":125000,"SoundDuration":125000,"Delta":448451120},{"NoteNumber":74,"Velocity":43,"Duration":125000,"SoundDuration":125000,"Delta":448576120},{"NoteNumber":62,"Velocity":34,"Duration":187500,"SoundDuration":187500,"Delta":448576120},{"NoteNumber":78,"Velocity":38,"Duration":125000,"SoundDuration":125000,"Delta":448701120},{"NoteNumber":74,"Velocity":38,"Duration":120274,"SoundDuration":120274,"Delta":448826120},{"NoteNumber":74,"Velocity":43,"Duration":121951,"SoundDuration":121951,"Delta":448963577},{"NoteNumber":71,"Velocity":40,"Duration":274390,"SoundDuration":274390,"Delta":448963577},{"NoteNumber":77,"Velocity":37,"Duration":121951,"SoundDuration":121951,"Delta":449085528},{"NoteNumber":74,"Velocity":37,"Duration":121951,"SoundDuration":121951,"Delta":449207479},{"NoteNumber":68,"Velocity":30,"Duration":91463,"SoundDuration":91463,"Delta":449237967},{"NoteNumber":77,"Velocity":43,"Duration":121951,"SoundDuration":121951,"Delta":449329431},{"NoteNumber":71,"Velocity":37,"Duration":277125,"SoundDuration":277125,"Delta":449329431},{"NoteNumber":80,"Velocity":37,"Duration":121951,"SoundDuration":121951,"Delta":449451382},{"NoteNumber":77,"Velocity":37,"Duration":132890,"SoundDuration":132890,"Delta":449573333},{"NoteNumber":68,"Velocity":34,"Duration":99667,"SoundDuration":99667,"Delta":449606556},{"NoteNumber":74,"Velocity":42,"Duration":123838,"SoundDuration":123838,"Delta":449706224},{"NoteNumber":69,"Velocity":41,"Duration":371516,"SoundDuration":371516,"Delta":449706224},{"NoteNumber":78,"Velocity":37,"Duration":123839,"SoundDuration":123839,"Delta":449830063},{"NoteNumber":74,"Velocity":37,"Duration":123838,"SoundDuration":123838,"Delta":449953902},{"NoteNumber":78,"Velocity":43,"Duration":123839,"SoundDuration":123839,"Delta":450077741},{"NoteNumber":57,"Velocity":35,"Duration":185758,"SoundDuration":185758,"Delta":450077741},{"NoteNumber":81,"Velocity":36,"Duration":123839,"SoundDuration":123839,"Delta":450201580},{"NoteNumber":78,"Velocity":37,"Duration":122377,"SoundDuration":122377,"Delta":450325419},{"NoteNumber":69,"Velocity":43,"Duration":123838,"SoundDuration":123838,"Delta":450465279},{"NoteNumber":67,"Velocity":40,"Duration":371516,"SoundDuration":371516,"Delta":450465279},{"NoteNumber":76,"Velocity":37,"Duration":123839,"SoundDuration":123839,"Delta":450589118},{"NoteNumber":69,"Velocity":38,"Duration":123838,"SoundDuration":123838,"Delta":450712957},{"NoteNumber":76,"Velocity":43,"Duration":123839,"SoundDuration":123839,"Delta":450836796},{"NoteNumber":64,"Velocity":33,"Duration":185758,"SoundDuration":185758,"Delta":450836796},{"NoteNumber":79,"Velocity":39,"Duration":123839,"SoundDuration":123839,"Delta":450960635},{"NoteNumber":76,"Velocity":39,"Duration":139372,"SoundDuration":139372,"Delta":451084474},{"NoteNumber":69,"Velocity":43,"Duration":123838,"SoundDuration":123838,"Delta":451223846},{"NoteNumber":66,"Velocity":42,"Duration":371516,"SoundDuration":371516,"Delta":451223846},{"NoteNumber":74,"Velocity":38,"Duration":123839,"SoundDuration":123839,"Delta":451347685},{"NoteNumber":69,"Velocity":38,"Duration":123838,"SoundDuration":123838,"Delta":451471524},{"NoteNumber":74,"Velocity":43,"Duration":123839,"SoundDuration":123839,"Delta":451595363},{"NoteNumber":57,"Velocity":34,"Duration":185758,"SoundDuration":185758,"Delta":451595363},{"NoteNumber":78,"Velocity":38,"Duration":123839,"SoundDuration":123839,"Delta":451719202},{"NoteNumber":74,"Velocity":38,"Duration":120274,"SoundDuration":120274,"Delta":451843041},{"NoteNumber":69,"Velocity":43,"Duration":119760,"SoundDuration":119760,"Delta":451980498},{"NoteNumber":64,"Velocity":40,"Duration":269460,"SoundDuration":269460,"Delta":451980498},{"NoteNumber":73,"Velocity":37,"Duration":119760,"SoundDuration":119760,"Delta":452100259},{"NoteNumber":69,"Velocity":37,"Duration":119760,"SoundDuration":119760,"Delta":452220019},{"NoteNumber":61,"Velocity":30,"Duration":89820,"SoundDuration":89820,"Delta":452249959},{"NoteNumber":73,"Velocity":43,"Duration":119760,"SoundDuration":119760,"Delta":452339779},{"NoteNumber":64,"Velocity":37,"Duration":281893,"SoundDuration":281893,"Delta":452339779},{"NoteNumber":76,"Velocity":37,"Duration":119760,"SoundDuration":119760,"Delta":452459540},{"NoteNumber":73,"Velocity":37,"Duration":169491,"SoundDuration":169491,"Delta":452579300},{"NoteNumber":57,"Velocity":34,"Duration":127118,"SoundDuration":127118,"Delta":452621673},{"NoteNumber":78,"Velocity":42,"Duration":123838,"SoundDuration":123838,"Delta":452748792},{"NoteNumber":74,"Velocity":41,"Duration":371516,"SoundDuration":371516,"Delta":452748792},{"NoteNumber":81,"Velocity":37,"Duration":123839,"SoundDuration":123839,"Delta":452872631},{"NoteNumber":78,"Velocity":37,"Duration":123838,"SoundDuration":123838,"Delta":452996470},{"NoteNumber":81,"Velocity":43,"Duration":123839,"SoundDuration":123839,"Delta":453120309},{"NoteNumber":66,"Velocity":35,"Duration":185758,"SoundDuration":185758,"Delta":453120309},{"NoteNumber":86,"Velocity":36,"Duration":123839,"SoundDuration":123839,"Delta":453244148},{"NoteNumber":81,"Velocity":37,"Duration":122377,"SoundDuration":122377,"Delta":453367987},{"NoteNumber":81,"Velocity":43,"Duration":123838,"SoundDuration":123838,"Delta":453507847},{"NoteNumber":76,"Velocity":46,"Duration":371516,"SoundDuration":371516,"Delta":453507847},{"NoteNumber":85,"Velocity":37,"Duration":123839,"SoundDuration":123839,"Delta":453631686},{"NoteNumber":81,"Velocity":38,"Duration":123838,"SoundDuration":123838,"Delta":453755525},{"NoteNumber":85,"Velocity":43,"Duration":123839,"SoundDuration":123839,"Delta":453879364},{"NoteNumber":69,"Velocity":39,"Duration":185758,"SoundDuration":185758,"Delta":453879364},{"NoteNumber":88,"Velocity":39,"Duration":123839,"SoundDuration":123839,"Delta":454003203},{"NoteNumber":85,"Velocity":39,"Duration":139372,"SoundDuration":139372,"Delta":454127042},{"NoteNumber":81,"Velocity":50,"Duration":123838,"SoundDuration":123838,"Delta":454266414},{"NoteNumber":78,"Velocity":46,"Duration":371516,"SoundDuration":371516,"Delta":454266414},{"NoteNumber":86,"Velocity":41,"Duration":123839,"SoundDuration":123839,"Delta":454390253},{"NoteNumber":81,"Velocity":41,"Duration":123838,"SoundDuration":123838,"Delta":454514092},{"NoteNumber":86,"Velocity":48,"Duration":123839,"SoundDuration":123839,"Delta":454637931},{"NoteNumber":74,"Velocity":43,"Duration":185758,"SoundDuration":185758,"Delta":454637931},{"NoteNumber":90,"Velocity":38,"Duration":123839,"SoundDuration":123839,"Delta":454761770},{"NoteNumber":86,"Velocity":38,"Duration":120274,"SoundDuration":120274,"Delta":454885609},{"NoteNumber":86,"Velocity":47,"Duration":119760,"SoundDuration":119760,"Delta":455023066},{"NoteNumber":83,"Velocity":53,"Duration":269460,"SoundDuration":269460,"Delta":455023066},{"NoteNumber":89,"Velocity":40,"Duration":119760,"SoundDuration":119760,"Delta":455142827},{"NoteNumber":86,"Velocity":40,"Duration":119760,"SoundDuration":119760,"Delta":455262587},{"NoteNumber":80,"Velocity":39,"Duration":89820,"SoundDuration":89820,"Delta":455292527},{"NoteNumber":89,"Velocity":49,"Duration":119760,"SoundDuration":119760,"Delta":455382347},{"NoteNumber":83,"Velocity":51,"Duration":281893,"SoundDuration":281893,"Delta":455382347},{"NoteNumber":92,"Velocity":43,"Duration":119760,"SoundDuration":119760,"Delta":455502108},{"NoteNumber":89,"Velocity":43,"Duration":169491,"SoundDuration":169491,"Delta":455621868},{"NoteNumber":80,"Velocity":40,"Duration":127118,"SoundDuration":127118,"Delta":455664241},{"NoteNumber":86,"Velocity":55,"Duration":121951,"SoundDuration":121951,"Delta":455791360},{"NoteNumber":83,"Velocity":53,"Duration":365854,"SoundDuration":365854,"Delta":455791360},{"NoteNumber":89,"Velocity":49,"Duration":121951,"SoundDuration":121951,"Delta":455913311},{"NoteNumber":86,"Velocity":49,"Duration":121951,"SoundDuration":121951,"Delta":456035262},{"NoteNumber":89,"Velocity":55,"Duration":121951,"SoundDuration":121951,"Delta":456157214},{"NoteNumber":80,"Velocity":44,"Duration":182927,"SoundDuration":182927,"Delta":456157214},{"NoteNumber":92,"Velocity":49,"Duration":121951,"SoundDuration":121951,"Delta":456279165},{"NoteNumber":89,"Velocity":49,"Duration":112903,"SoundDuration":112903,"Delta":456401116},{"NoteNumber":86,"Velocity":43,"Duration":121951,"SoundDuration":121951,"Delta":456530149},{"NoteNumber":83,"Velocity":51,"Duration":365854,"SoundDuration":365854,"Delta":456530149},{"NoteNumber":89,"Velocity":37,"Duration":121951,"SoundDuration":121951,"Delta":456652100},{"NoteNumber":86,"Velocity":37,"Duration":121951,"SoundDuration":121951,"Delta":456774051},{"NoteNumber":89,"Velocity":43,"Duration":121951,"SoundDuration":121951,"Delta":456896003},{"NoteNumber":80,"Velocity":37,"Duration":182927,"SoundDuration":182927,"Delta":456896003},{"NoteNumber":92,"Velocity":37,"Duration":121951,"SoundDuration":121951,"Delta":457017954},{"NoteNumber":89,"Velocity":37,"Duration":145985,"SoundDuration":145985,"Delta":457139905},{"NoteNumber":86,"Velocity":43,"Duration":120845,"SoundDuration":120845,"Delta":457285891},{"NoteNumber":83,"Velocity":52,"Duration":362537,"SoundDuration":362537,"Delta":457285891},{"NoteNumber":89,"Velocity":38,"Duration":120846,"SoundDuration":120846,"Delta":457406737},{"NoteNumber":86,"Velocity":38,"Duration":120845,"SoundDuration":120845,"Delta":457527583},{"NoteNumber":89,"Velocity":43,"Duration":120846,"SoundDuration":120846,"Delta":457648429},{"NoteNumber":80,"Velocity":41,"Duration":181269,"SoundDuration":181269,"Delta":457648429},{"NoteNumber":92,"Velocity":38,"Duration":120846,"SoundDuration":120846,"Delta":457769275},{"NoteNumber":89,"Velocity":38,"Duration":112903,"SoundDuration":112903,"Delta":457890121},{"NoteNumber":86,"Velocity":43,"Duration":119760,"SoundDuration":119760,"Delta":458019153},{"NoteNumber":82,"Velocity":46,"Duration":269460,"SoundDuration":269460,"Delta":458019153},{"NoteNumber":89,"Velocity":37,"Duration":119760,"SoundDuration":119760,"Delta":458138913},{"NoteNumber":86,"Velocity":37,"Duration":119760,"SoundDuration":119760,"Delta":458258674},{"NoteNumber":80,"Velocity":30,"Duration":89820,"SoundDuration":89820,"Delta":458288614},{"NoteNumber":89,"Velocity":43,"Duration":119760,"SoundDuration":119760,"Delta":458378434},{"NoteNumber":82,"Velocity":42,"Duration":272743,"SoundDuration":272743,"Delta":458378434},{"NoteNumber":94,"Velocity":37,"Duration":119760,"SoundDuration":119760,"Delta":458498194},{"NoteNumber":89,"Velocity":37,"Duration":132890,"SoundDuration":132890,"Delta":458617955},{"NoteNumber":80,"Velocity":34,"Duration":99667,"SoundDuration":99667,"Delta":458651177},{"NoteNumber":86,"Velocity":43,"Duration":122323,"SoundDuration":122323,"Delta":458750845},{"NoteNumber":82,"Velocity":48,"Duration":366971,"SoundDuration":366971,"Delta":458750845},{"NoteNumber":89,"Velocity":38,"Duration":122323,"SoundDuration":122323,"Delta":458873169},{"NoteNumber":86,"Velocity":38,"Duration":122323,"SoundDuration":122323,"Delta":458995493},{"NoteNumber":89,"Velocity":43,"Duration":122324,"SoundDuration":122324,"Delta":459117817},{"NoteNumber":80,"Velocity":34,"Duration":183486,"SoundDuration":183486,"Delta":459117817},{"NoteNumber":94,"Velocity":38,"Duration":122323,"SoundDuration":122323,"Delta":459240141},{"NoteNumber":89,"Velocity":38,"Duration":112903,"SoundDuration":112903,"Delta":459362465},{"NoteNumber":86,"Velocity":43,"Duration":122323,"SoundDuration":122323,"Delta":459491497},{"NoteNumber":82,"Velocity":42,"Duration":366971,"SoundDuration":366971,"Delta":459491497},{"NoteNumber":89,"Velocity":37,"Duration":122323,"SoundDuration":122323,"Delta":459613821},{"NoteNumber":86,"Velocity":36,"Duration":122323,"SoundDuration":122323,"Delta":459736145},{"NoteNumber":89,"Velocity":42,"Duration":122324,"SoundDuration":122324,"Delta":459858469},{"NoteNumber":80,"Velocity":33,"Duration":183486,"SoundDuration":183486,"Delta":459858469},{"NoteNumber":94,"Velocity":36,"Duration":122323,"SoundDuration":122323,"Delta":459980793},{"NoteNumber":89,"Velocity":36,"Duration":145985,"SoundDuration":145985,"Delta":460103117},{"NoteNumber":87,"Velocity":41,"Duration":123838,"SoundDuration":123838,"Delta":460249103},{"NoteNumber":82,"Velocity":40,"Duration":371516,"SoundDuration":371516,"Delta":460249103},{"NoteNumber":91,"Velocity":36,"Duration":123839,"SoundDuration":123839,"Delta":460372942},{"NoteNumber":87,"Velocity":36,"Duration":123838,"SoundDuration":123838,"Delta":460496781},{"NoteNumber":91,"Velocity":40,"Duration":123839,"SoundDuration":123839,"Delta":460620620},{"NoteNumber":79,"Velocity":32,"Duration":185758,"SoundDuration":185758,"Delta":460620620},{"NoteNumber":94,"Velocity":36,"Duration":123839,"SoundDuration":123839,"Delta":460744459},{"NoteNumber":91,"Velocity":35,"Duration":117056,"SoundDuration":117056,"Delta":460868298},{"NoteNumber":85,"Velocity":39,"Duration":124610,"SoundDuration":124610,"Delta":461002077},{"NoteNumber":81,"Velocity":39,"Duration":373831,"SoundDuration":373831,"Delta":461002077},{"NoteNumber":88,"Velocity":34,"Duration":124610,"SoundDuration":124610,"Delta":461126688},{"NoteNumber":85,"Velocity":34,"Duration":124610,"SoundDuration":124610,"Delta":461251298},{"NoteNumber":88,"Velocity":39,"Duration":124610,"SoundDuration":124610,"Delta":461375909},{"NoteNumber":79,"Velocity":31,"Duration":186915,"SoundDuration":186915,"Delta":461375909},{"NoteNumber":93,"Velocity":33,"Duration":124610,"SoundDuration":124610,"Delta":461500520},{"NoteNumber":88,"Velocity":33,"Duration":145985,"SoundDuration":145985,"Delta":461625130},{"NoteNumber":86,"Velocity":38,"Duration":126183,"SoundDuration":126183,"Delta":461771116},{"NoteNumber":78,"Velocity":37,"Duration":378549,"SoundDuration":378549,"Delta":461771116},{"NoteNumber":90,"Velocity":33,"Duration":126182,"SoundDuration":126182,"Delta":461897299},{"NoteNumber":86,"Velocity":33,"Duration":126183,"SoundDuration":126183,"Delta":462023482},{"NoteNumber":90,"Velocity":37,"Duration":126182,"SoundDuration":126182,"Delta":462149665},{"NoteNumber":81,"Velocity":29,"Duration":189274,"SoundDuration":189274,"Delta":462149665},{"NoteNumber":93,"Velocity":33,"Duration":126183,"SoundDuration":126183,"Delta":462275848},{"NoteNumber":90,"Velocity":33,"Duration":120274,"SoundDuration":120274,"Delta":462402031},{"NoteNumber":79,"Velocity":36,"Duration":126582,"SoundDuration":126582,"Delta":462539488},{"NoteNumber":71,"Velocity":36,"Duration":379747,"SoundDuration":379747,"Delta":462539488},{"NoteNumber":86,"Velocity":31,"Duration":126582,"SoundDuration":126582,"Delta":462666070},{"NoteNumber":79,"Velocity":31,"Duration":118670,"SoundDuration":118670,"Delta":462792652},{"NoteNumber":86,"Velocity":36,"Duration":126582,"SoundDuration":126582,"Delta":462919235},{"NoteNumber":74,"Velocity":25,"Duration":189873,"SoundDuration":189873,"Delta":462919235},{"NoteNumber":79,"Velocity":28,"Duration":189873,"SoundDuration":189873,"Delta":462919235},{"NoteNumber":91,"Velocity":31,"Duration":126582,"SoundDuration":126582,"Delta":463045817},{"NoteNumber":86,"Velocity":30,"Duration":145985,"SoundDuration":145985,"Delta":463172399},{"NoteNumber":81,"Velocity":35,"Duration":126582,"SoundDuration":126582,"Delta":463318385},{"NoteNumber":69,"Velocity":34,"Duration":379747,"SoundDuration":379747,"Delta":463318385},{"NoteNumber":86,"Velocity":31,"Duration":126582,"SoundDuration":126582,"Delta":463444967},{"NoteNumber":81,"Velocity":30,"Duration":126582,"SoundDuration":126582,"Delta":463571549},{"NoteNumber":86,"Velocity":34,"Duration":126582,"SoundDuration":126582,"Delta":463698132},{"NoteNumber":74,"Velocity":25,"Duration":189873,"SoundDuration":189873,"Delta":463698132},{"NoteNumber":78,"Velocity":27,"Duration":189873,"SoundDuration":189873,"Delta":463698132},{"NoteNumber":90,"Velocity":30,"Duration":126582,"SoundDuration":126582,"Delta":463824714},{"NoteNumber":86,"Velocity":30,"Duration":117844,"SoundDuration":117844,"Delta":463951296},{"NoteNumber":81,"Velocity":33,"Duration":126983,"SoundDuration":126983,"Delta":464085976},{"NoteNumber":69,"Velocity":33,"Duration":380951,"SoundDuration":380951,"Delta":464085976},{"NoteNumber":88,"Velocity":28,"Duration":126983,"SoundDuration":126983,"Delta":464212960},{"NoteNumber":85,"Velocity":28,"Duration":119047,"SoundDuration":119047,"Delta":464339944},{"NoteNumber":81,"Velocity":33,"Duration":126983,"SoundDuration":126983,"Delta":464466928},{"NoteNumber":73,"Velocity":22,"Duration":190476,"SoundDuration":190476,"Delta":464466928},{"NoteNumber":76,"Velocity":26,"Duration":190476,"SoundDuration":190476,"Delta":464466928},{"NoteNumber":79,"Velocity":28,"Duration":126984,"SoundDuration":126984,"Delta":464593912},{"NoteNumber":76,"Velocity":28,"Duration":145985,"SoundDuration":145985,"Delta":464720896},{"NoteNumber":72,"Velocity":87,"Duration":108518,"SoundDuration":108518,"Delta":464866882},{"NoteNumber":60,"Velocity":74,"Duration":108518,"SoundDuration":108518,"Delta":464866882},{"NoteNumber":74,"Velocity":55,"Duration":108518,"SoundDuration":108518,"Delta":464975400},{"NoteNumber":62,"Velocity":42,"Duration":108518,"SoundDuration":108518,"Delta":464975400},{"NoteNumber":72,"Velocity":55,"Duration":108518,"SoundDuration":108518,"Delta":465083919},{"NoteNumber":60,"Velocity":42,"Duration":108518,"SoundDuration":108518,"Delta":465083919},{"NoteNumber":69,"Velocity":61,"Duration":108518,"SoundDuration":108518,"Delta":465192438},{"NoteNumber":57,"Velocity":48,"Duration":108518,"SoundDuration":108518,"Delta":465192438},{"NoteNumber":66,"Velocity":55,"Duration":108518,"SoundDuration":108518,"Delta":465300956},{"NoteNumber":54,"Velocity":41,"Duration":108518,"SoundDuration":108518,"Delta":465300956},{"NoteNumber":62,"Velocity":55,"Duration":113765,"SoundDuration":113765,"Delta":465409475},{"NoteNumber":50,"Velocity":41,"Duration":113765,"SoundDuration":113765,"Delta":465409475},{"NoteNumber":60,"Velocity":75,"Duration":108225,"SoundDuration":108225,"Delta":465523241},{"NoteNumber":48,"Velocity":60,"Duration":108225,"SoundDuration":108225,"Delta":465523241},{"NoteNumber":62,"Velocity":48,"Duration":108225,"SoundDuration":108225,"Delta":465631466},{"NoteNumber":50,"Velocity":36,"Duration":108225,"SoundDuration":108225,"Delta":465631466},{"NoteNumber":60,"Velocity":48,"Duration":108225,"SoundDuration":108225,"Delta":465739691},{"NoteNumber":48,"Velocity":36,"Duration":108225,"SoundDuration":108225,"Delta":465739691},{"NoteNumber":62,"Velocity":54,"Duration":108225,"SoundDuration":108225,"Delta":465847916},{"NoteNumber":50,"Velocity":44,"Duration":108225,"SoundDuration":108225,"Delta":465847916},{"NoteNumber":60,"Velocity":50,"Duration":108225,"SoundDuration":108225,"Delta":465956141},{"NoteNumber":48,"Velocity":37,"Duration":108225,"SoundDuration":108225,"Delta":465956141},{"NoteNumber":62,"Velocity":50,"Duration":120481,"SoundDuration":120481,"Delta":466064366},{"NoteNumber":50,"Velocity":37,"Duration":120481,"SoundDuration":120481,"Delta":466064366},{"NoteNumber":70,"Velocity":84,"Duration":108518,"SoundDuration":108518,"Delta":466184848},{"NoteNumber":58,"Velocity":73,"Duration":108518,"SoundDuration":108518,"Delta":466184848},{"NoteNumber":74,"Velocity":55,"Duration":108518,"SoundDuration":108518,"Delta":466293366},{"NoteNumber":62,"Velocity":42,"Duration":108518,"SoundDuration":108518,"Delta":466293366},{"NoteNumber":72,"Velocity":55,"Duration":108518,"SoundDuration":108518,"Delta":466401885},{"NoteNumber":60,"Velocity":42,"Duration":108518,"SoundDuration":108518,"Delta":466401885},{"NoteNumber":70,"Velocity":61,"Duration":108518,"SoundDuration":108518,"Delta":466510404},{"NoteNumber":58,"Velocity":48,"Duration":108518,"SoundDuration":108518,"Delta":466510404},{"NoteNumber":65,"Velocity":55,"Duration":108518,"SoundDuration":108518,"Delta":466618922},{"NoteNumber":53,"Velocity":41,"Duration":108518,"SoundDuration":108518,"Delta":466618922},{"NoteNumber":62,"Velocity":55,"Duration":113765,"SoundDuration":113765,"Delta":466727441},{"NoteNumber":50,"Velocity":41,"Duration":113765,"SoundDuration":113765,"Delta":466727441},{"NoteNumber":58,"Velocity":77,"Duration":108225,"SoundDuration":108225,"Delta":466841207},{"NoteNumber":46,"Velocity":62,"Duration":108225,"SoundDuration":108225,"Delta":466841207},{"NoteNumber":62,"Velocity":48,"Duration":108225,"SoundDuration":108225,"Delta":466949432},{"NoteNumber":50,"Velocity":36,"Duration":108225,"SoundDuration":108225,"Delta":466949432},{"NoteNumber":58,"Velocity":48,"Duration":108225,"SoundDuration":108225,"Delta":467057657},{"NoteNumber":46,"Velocity":36,"Duration":108225,"SoundDuration":108225,"Delta":467057657},{"NoteNumber":62,"Velocity":54,"Duration":108225,"SoundDuration":108225,"Delta":467165882},{"NoteNumber":50,"Velocity":44,"Duration":108225,"SoundDuration":108225,"Delta":467165882},{"NoteNumber":58,"Velocity":50,"Duration":108225,"SoundDuration":108225,"Delta":467274107},{"NoteNumber":46,"Velocity":37,"Duration":108225,"SoundDuration":108225,"Delta":467274107},{"NoteNumber":62,"Velocity":50,"Duration":132013,"SoundDuration":132013,"Delta":467382332},{"NoteNumber":50,"Velocity":37,"Duration":132013,"SoundDuration":132013,"Delta":467382332},{"NoteNumber":72,"Velocity":88,"Duration":108518,"SoundDuration":108518,"Delta":467514345},{"NoteNumber":60,"Velocity":73,"Duration":108518,"SoundDuration":108518,"Delta":467514345},{"NoteNumber":74,"Velocity":55,"Duration":108518,"SoundDuration":108518,"Delta":467622864},{"NoteNumber":62,"Velocity":42,"Duration":108518,"SoundDuration":108518,"Delta":467622864},{"NoteNumber":72,"Velocity":55,"Duration":108518,"SoundDuration":108518,"Delta":467731382},{"NoteNumber":60,"Velocity":42,"Duration":108518,"SoundDuration":108518,"Delta":467731382},{"NoteNumber":69,"Velocity":61,"Duration":108518,"SoundDuration":108518,"Delta":467839901},{"NoteNumber":57,"Velocity":48,"Duration":108518,"SoundDuration":108518,"Delta":467839901},{"NoteNumber":66,"Velocity":55,"Duration":108518,"SoundDuration":108518,"Delta":467948420},{"NoteNumber":54,"Velocity":41,"Duration":108518,"SoundDuration":108518,"Delta":467948420},{"NoteNumber":62,"Velocity":55,"Duration":113765,"SoundDuration":113765,"Delta":468056938},{"NoteNumber":50,"Velocity":41,"Duration":113765,"SoundDuration":113765,"Delta":468056938},{"NoteNumber":60,"Velocity":75,"Duration":108225,"SoundDuration":108225,"Delta":468170704},{"NoteNumber":48,"Velocity":60,"Duration":108225,"SoundDuration":108225,"Delta":468170704},{"NoteNumber":62,"Velocity":48,"Duration":108225,"SoundDuration":108225,"Delta":468278929},{"NoteNumber":50,"Velocity":36,"Duration":108225,"SoundDuration":108225,"Delta":468278929},{"NoteNumber":60,"Velocity":48,"Duration":108225,"SoundDuration":108225,"Delta":468387154},{"NoteNumber":48,"Velocity":36,"Duration":108225,"SoundDuration":108225,"Delta":468387154},{"NoteNumber":62,"Velocity":54,"Duration":108225,"SoundDuration":108225,"Delta":468495379},{"NoteNumber":50,"Velocity":44,"Duration":108225,"SoundDuration":108225,"Delta":468495379},{"NoteNumber":60,"Velocity":50,"Duration":108225,"SoundDuration":108225,"Delta":468603604},{"NoteNumber":48,"Velocity":37,"Duration":108225,"SoundDuration":108225,"Delta":468603604},{"NoteNumber":62,"Velocity":50,"Duration":122323,"SoundDuration":122323,"Delta":468711829},{"NoteNumber":50,"Velocity":37,"Duration":122323,"SoundDuration":122323,"Delta":468711829},{"NoteNumber":70,"Velocity":87,"Duration":108518,"SoundDuration":108518,"Delta":468834153},{"NoteNumber":58,"Velocity":74,"Duration":108518,"SoundDuration":108518,"Delta":468834153},{"NoteNumber":74,"Velocity":55,"Duration":108518,"SoundDuration":108518,"Delta":468942672},{"NoteNumber":62,"Velocity":42,"Duration":108518,"SoundDuration":108518,"Delta":468942672},{"NoteNumber":72,"Velocity":55,"Duration":108518,"SoundDuration":108518,"Delta":469051190},{"NoteNumber":60,"Velocity":42,"Duration":108518,"SoundDuration":108518,"Delta":469051190},{"NoteNumber":70,"Velocity":61,"Duration":108518,"SoundDuration":108518,"Delta":469159709},{"NoteNumber":58,"Velocity":48,"Duration":108518,"SoundDuration":108518,"Delta":469159709},{"NoteNumber":65,"Velocity":55,"Duration":108518,"SoundDuration":108518,"Delta":469268228},{"NoteNumber":53,"Velocity":41,"Duration":108518,"SoundDuration":108518,"Delta":469268228},{"NoteNumber":62,"Velocity":55,"Duration":113765,"SoundDuration":113765,"Delta":469376746},{"NoteNumber":50,"Velocity":41,"Duration":113765,"SoundDuration":113765,"Delta":469376746},{"NoteNumber":58,"Velocity":77,"Duration":108225,"SoundDuration":108225,"Delta":469490512},{"NoteNumber":46,"Velocity":62,"Duration":108225,"SoundDuration":108225,"Delta":469490512},{"NoteNumber":62,"Velocity":48,"Duration":108225,"SoundDuration":108225,"Delta":469598737},{"NoteNumber":50,"Velocity":36,"Duration":108225,"SoundDuration":108225,"Delta":469598737},{"NoteNumber":58,"Velocity":48,"Duration":108225,"SoundDuration":108225,"Delta":469706962},{"NoteNumber":46,"Velocity":36,"Duration":108225,"SoundDuration":108225,"Delta":469706962},{"NoteNumber":62,"Velocity":54,"Duration":108225,"SoundDuration":108225,"Delta":469815187},{"NoteNumber":50,"Velocity":44,"Duration":108225,"SoundDuration":108225,"Delta":469815187},{"NoteNumber":58,"Velocity":50,"Duration":108225,"SoundDuration":108225,"Delta":469923412},{"NoteNumber":46,"Velocity":37,"Duration":108225,"SoundDuration":108225,"Delta":469923412},{"NoteNumber":62,"Velocity":50,"Duration":114089,"SoundDuration":114089,"Delta":470031637},{"NoteNumber":50,"Velocity":37,"Duration":114089,"SoundDuration":114089,"Delta":470031637},{"NoteNumber":45,"Velocity":35,"Duration":176990,"SoundDuration":176990,"Delta":470145727},{"NoteNumber":57,"Velocity":37,"Duration":117994,"SoundDuration":117994,"Delta":470145727},{"NoteNumber":59,"Velocity":32,"Duration":117994,"SoundDuration":117994,"Delta":470263721},{"NoteNumber":61,"Velocity":32,"Duration":117993,"SoundDuration":117993,"Delta":470381715},{"NoteNumber":78,"Velocity":44,"Duration":274724,"SoundDuration":274724,"Delta":470499709},{"NoteNumber":81,"Velocity":44,"Duration":274724,"SoundDuration":274724,"Delta":470499709},{"NoteNumber":62,"Velocity":37,"Duration":122099,"SoundDuration":122099,"Delta":470499709},{"NoteNumber":64,"Velocity":33,"Duration":122099,"SoundDuration":122099,"Delta":470621809},{"NoteNumber":66,"Velocity":33,"Duration":132358,"SoundDuration":132358,"Delta":470743909},{"NoteNumber":78,"Velocity":39,"Duration":101832,"SoundDuration":101832,"Delta":470774434},{"NoteNumber":81,"Velocity":39,"Duration":101832,"SoundDuration":101832,"Delta":470774434},{"NoteNumber":76,"Velocity":44,"Duration":178571,"SoundDuration":178571,"Delta":470876267},{"NoteNumber":79,"Velocity":44,"Duration":178571,"SoundDuration":178571,"Delta":470876267},{"NoteNumber":67,"Velocity":44,"Duration":119047,"SoundDuration":119047,"Delta":470876267},{"NoteNumber":69,"Velocity":44,"Duration":119047,"SoundDuration":119047,"Delta":470995315},{"NoteNumber":71,"Velocity":43,"Duration":119047,"SoundDuration":119047,"Delta":471114362},{"NoteNumber":73,"Velocity":45,"Duration":119047,"SoundDuration":119047,"Delta":471233410},{"NoteNumber":64,"Velocity":35,"Duration":178571,"SoundDuration":178571,"Delta":471233410},{"NoteNumber":57,"Velocity":35,"Duration":178571,"SoundDuration":178571,"Delta":471233410},{"NoteNumber":74,"Velocity":48,"Duration":119047,"SoundDuration":119047,"Delta":471352458},{"NoteNumber":76,"Velocity":49,"Duration":127705,"SoundDuration":127705,"Delta":471471505},{"NoteNumber":78,"Velocity":45,"Duration":117954,"SoundDuration":117954,"Delta":471599211},{"NoteNumber":54,"Velocity":33,"Duration":176778,"SoundDuration":176778,"Delta":471599211},{"NoteNumber":50,"Velocity":33,"Duration":176778,"SoundDuration":176778,"Delta":471599211},{"NoteNumber":62,"Velocity":40,"Duration":176765,"SoundDuration":176765,"Delta":471603635},{"NoteNumber":79,"Velocity":48,"Duration":117595,"SoundDuration":117595,"Delta":471717165},{"NoteNumber":81,"Velocity":48,"Duration":115083,"SoundDuration":115083,"Delta":471834761},{"NoteNumber":83,"Velocity":50,"Duration":116920,"SoundDuration":116920,"Delta":471952037},{"NoteNumber":78,"Velocity":44,"Duration":262557,"SoundDuration":262557,"Delta":471952037},{"NoteNumber":81,"Velocity":44,"Duration":262557,"SoundDuration":262557,"Delta":471952037},{"NoteNumber":85,"Velocity":52,"Duration":116567,"SoundDuration":116567,"Delta":472068958},{"NoteNumber":86,"Velocity":52,"Duration":121949,"SoundDuration":121949,"Delta":472185525},{"NoteNumber":78,"Velocity":39,"Duration":92879,"SoundDuration":92879,"Delta":472214595},{"NoteNumber":81,"Velocity":39,"Duration":92879,"SoundDuration":92879,"Delta":472214595},{"NoteNumber":88,"Velocity":54,"Duration":115736,"SoundDuration":115736,"Delta":472307474},{"NoteNumber":76,"Velocity":44,"Duration":173831,"SoundDuration":173831,"Delta":472307474},{"NoteNumber":79,"Velocity":44,"Duration":173831,"SoundDuration":173831,"Delta":472307474},{"NoteNumber":90,"Velocity":56,"Duration":116066,"SoundDuration":116066,"Delta":472423210},{"NoteNumber":91,"Velocity":56,"Duration":115715,"SoundDuration":115715,"Delta":472539276},{"NoteNumber":93,"Velocity":58,"Duration":115831,"SoundDuration":115831,"Delta":472654992},{"NoteNumber":57,"Velocity":40,"Duration":174070,"SoundDuration":174070,"Delta":472654992},{"NoteNumber":64,"Velocity":40,"Duration":174070,"SoundDuration":174070,"Delta":472654992},{"NoteNumber":95,"Velocity":60,"Duration":116720,"SoundDuration":116720,"Delta":472770823},{"NoteNumber":97,"Velocity":60,"Duration":133737,"SoundDuration":133737,"Delta":472887544},{"NoteNumber":98,"Velocity":62,"Duration":117878,"SoundDuration":117878,"Delta":473021282},{"NoteNumber":50,"Velocity":38,"Duration":174655,"SoundDuration":174655,"Delta":473021282},{"NoteNumber":54,"Velocity":38,"Duration":174655,"SoundDuration":174655,"Delta":473021282},{"NoteNumber":62,"Velocity":45,"Duration":174655,"SoundDuration":174655,"Delta":473021282},{"NoteNumber":97,"Velocity":62,"Duration":113723,"SoundDuration":113723,"Delta":473139160},{"NoteNumber":95,"Velocity":60,"Duration":114398,"SoundDuration":114398,"Delta":473252883},{"NoteNumber":93,"Velocity":60,"Duration":115002,"SoundDuration":115002,"Delta":473367282},{"NoteNumber":78,"Velocity":44,"Duration":259740,"SoundDuration":259740,"Delta":473367282},{"NoteNumber":81,"Velocity":44,"Duration":259740,"SoundDuration":259740,"Delta":473367282},{"NoteNumber":91,"Velocity":58,"Duration":115697,"SoundDuration":115697,"Delta":473482285},{"NoteNumber":90,"Velocity":56,"Duration":122208,"SoundDuration":122208,"Delta":473597982},{"NoteNumber":78,"Velocity":39,"Duration":93167,"SoundDuration":93167,"Delta":473627022},{"NoteNumber":81,"Velocity":39,"Duration":93167,"SoundDuration":93167,"Delta":473627022},{"NoteNumber":88,"Velocity":55,"Duration":113303,"SoundDuration":113303,"Delta":473720190},{"NoteNumber":79,"Velocity":44,"Duration":169964,"SoundDuration":169964,"Delta":473720190},{"NoteNumber":76,"Velocity":44,"Duration":169964,"SoundDuration":169964,"Delta":473720190},{"NoteNumber":86,"Velocity":54,"Duration":113479,"SoundDuration":113479,"Delta":473833493},{"NoteNumber":85,"Velocity":52,"Duration":113994,"SoundDuration":113994,"Delta":473946973},{"NoteNumber":83,"Velocity":51,"Duration":114480,"SoundDuration":114480,"Delta":474060968},{"NoteNumber":57,"Velocity":40,"Duration":171949,"SoundDuration":171949,"Delta":474060968},{"NoteNumber":64,"Velocity":40,"Duration":171949,"SoundDuration":171949,"Delta":474060968},{"NoteNumber":81,"Velocity":50,"Duration":115031,"SoundDuration":115031,"Delta":474175448},{"NoteNumber":79,"Velocity":48,"Duration":114992,"SoundDuration":114992,"Delta":474290479},{"NoteNumber":78,"Velocity":46,"Duration":113335,"SoundDuration":113335,"Delta":474405472},{"NoteNumber":54,"Velocity":38,"Duration":170355,"SoundDuration":170355,"Delta":474405472},{"NoteNumber":50,"Velocity":38,"Duration":170355,"SoundDuration":170355,"Delta":474405472},{"NoteNumber":62,"Velocity":45,"Duration":170355,"SoundDuration":170355,"Delta":474405472},{"NoteNumber":76,"Velocity":45,"Duration":114253,"SoundDuration":114253,"Delta":474518807},{"NoteNumber":74,"Velocity":44,"Duration":115120,"SoundDuration":115120,"Delta":474633061},{"NoteNumber":73,"Velocity":43,"Duration":115963,"SoundDuration":115963,"Delta":474748182},{"NoteNumber":78,"Velocity":44,"Duration":262142,"SoundDuration":262142,"Delta":474748182},{"NoteNumber":81,"Velocity":44,"Duration":262142,"SoundDuration":262142,"Delta":474748182},{"NoteNumber":71,"Velocity":41,"Duration":116925,"SoundDuration":116925,"Delta":474864145},{"NoteNumber":69,"Velocity":40,"Duration":121560,"SoundDuration":121560,"Delta":474981071},{"NoteNumber":78,"Velocity":39,"Duration":92307,"SoundDuration":92307,"Delta":475010324},{"NoteNumber":81,"Velocity":39,"Duration":92307,"SoundDuration":92307,"Delta":475010324},{"NoteNumber":67,"Velocity":40,"Duration":116232,"SoundDuration":116232,"Delta":475102631},{"NoteNumber":76,"Velocity":44,"Duration":174802,"SoundDuration":174802,"Delta":475102631},{"NoteNumber":79,"Velocity":44,"Duration":174802,"SoundDuration":174802,"Delta":475102631},{"NoteNumber":71,"Velocity":39,"Duration":117488,"SoundDuration":117488,"Delta":475218864},{"NoteNumber":69,"Velocity":37,"Duration":118770,"SoundDuration":118770,"Delta":475336352},{"NoteNumber":67,"Velocity":35,"Duration":120040,"SoundDuration":120040,"Delta":475455123},{"NoteNumber":57,"Velocity":35,"Duration":180557,"SoundDuration":180557,"Delta":475455123},{"NoteNumber":66,"Velocity":33,"Duration":120888,"SoundDuration":120888,"Delta":475575164},{"NoteNumber":64,"Velocity":31,"Duration":140350,"SoundDuration":140350,"Delta":475696052},{"NoteNumber":72,"Velocity":83,"Duration":108518,"SoundDuration":108518,"Delta":475836403},{"NoteNumber":60,"Velocity":74,"Duration":108518,"SoundDuration":108518,"Delta":475836403},{"NoteNumber":74,"Velocity":55,"Duration":108518,"SoundDuration":108518,"Delta":475944922},{"NoteNumber":62,"Velocity":42,"Duration":108518,"SoundDuration":108518,"Delta":475944922},{"NoteNumber":72,"Velocity":55,"Duration":108518,"SoundDuration":108518,"Delta":476053441},{"NoteNumber":60,"Velocity":42,"Duration":108518,"SoundDuration":108518,"Delta":476053441},{"NoteNumber":69,"Velocity":61,"Duration":108518,"SoundDuration":108518,"Delta":476161959},{"NoteNumber":57,"Velocity":48,"Duration":108518,"SoundDuration":108518,"Delta":476161959},{"NoteNumber":66,"Velocity":55,"Duration":108518,"SoundDuration":108518,"Delta":476270478},{"NoteNumber":54,"Velocity":41,"Duration":108518,"SoundDuration":108518,"Delta":476270478},{"NoteNumber":62,"Velocity":55,"Duration":113765,"SoundDuration":113765,"Delta":476378997},{"NoteNumber":50,"Velocity":41,"Duration":113765,"SoundDuration":113765,"Delta":476378997},{"NoteNumber":60,"Velocity":75,"Duration":108225,"SoundDuration":108225,"Delta":476492762},{"NoteNumber":48,"Velocity":60,"Duration":108225,"SoundDuration":108225,"Delta":476492762},{"NoteNumber":62,"Velocity":48,"Duration":108225,"SoundDuration":108225,"Delta":476600987},{"NoteNumber":50,"Velocity":36,"Duration":108225,"SoundDuration":108225,"Delta":476600987},{"NoteNumber":60,"Velocity":48,"Duration":108225,"SoundDuration":108225,"Delta":476709212},{"NoteNumber":48,"Velocity":36,"Duration":108225,"SoundDuration":108225,"Delta":476709212},{"NoteNumber":62,"Velocity":54,"Duration":108225,"SoundDuration":108225,"Delta":476817437},{"NoteNumber":50,"Velocity":44,"Duration":108225,"SoundDuration":108225,"Delta":476817437},{"NoteNumber":60,"Velocity":50,"Duration":108225,"SoundDuration":108225,"Delta":476925662},{"NoteNumber":48,"Velocity":37,"Duration":108225,"SoundDuration":108225,"Delta":476925662},{"NoteNumber":62,"Velocity":50,"Duration":120845,"SoundDuration":120845,"Delta":477033887},{"NoteNumber":50,"Velocity":37,"Duration":120845,"SoundDuration":120845,"Delta":477033887},{"NoteNumber":70,"Velocity":84,"Duration":108518,"SoundDuration":108518,"Delta":477154733},{"NoteNumber":58,"Velocity":73,"Duration":108518,"SoundDuration":108518,"Delta":477154733},{"NoteNumber":74,"Velocity":55,"Duration":108518,"SoundDuration":108518,"Delta":477263252},{"NoteNumber":62,"Velocity":42,"Duration":108518,"SoundDuration":108518,"Delta":477263252},{"NoteNumber":72,"Velocity":55,"Duration":108518,"SoundDuration":108518,"Delta":477371771},{"NoteNumber":60,"Velocity":42,"Duration":108518,"SoundDuration":108518,"Delta":477371771},{"NoteNumber":70,"Velocity":61,"Duration":108518,"SoundDuration":108518,"Delta":477480289},{"NoteNumber":58,"Velocity":48,"Duration":108518,"SoundDuration":108518,"Delta":477480289},{"NoteNumber":65,"Velocity":55,"Duration":108518,"SoundDuration":108518,"Delta":477588808},{"NoteNumber":53,"Velocity":41,"Duration":108518,"SoundDuration":108518,"Delta":477588808},{"NoteNumber":62,"Velocity":55,"Duration":113765,"SoundDuration":113765,"Delta":477697327},{"NoteNumber":50,"Velocity":41,"Duration":113765,"SoundDuration":113765,"Delta":477697327},{"NoteNumber":58,"Velocity":77,"Duration":108225,"SoundDuration":108225,"Delta":477811092},{"NoteNumber":46,"Velocity":62,"Duration":108225,"SoundDuration":108225,"Delta":477811092},{"NoteNumber":62,"Velocity":48,"Duration":108225,"SoundDuration":108225,"Delta":477919317},{"NoteNumber":50,"Velocity":36,"Duration":108225,"SoundDuration":108225,"Delta":477919317},{"NoteNumber":58,"Velocity":48,"Duration":108225,"SoundDuration":108225,"Delta":478027542},{"NoteNumber":46,"Velocity":36,"Duration":108225,"SoundDuration":108225,"Delta":478027542},{"NoteNumber":62,"Velocity":54,"Duration":108225,"SoundDuration":108225,"Delta":478135767},{"NoteNumber":50,"Velocity":44,"Duration":108225,"SoundDuration":108225,"Delta":478135767},{"NoteNumber":58,"Velocity":50,"Duration":108225,"SoundDuration":108225,"Delta":478243992},{"NoteNumber":46,"Velocity":37,"Duration":108225,"SoundDuration":108225,"Delta":478243992},{"NoteNumber":62,"Velocity":50,"Duration":132013,"SoundDuration":132013,"Delta":478352217},{"NoteNumber":50,"Velocity":37,"Duration":132013,"SoundDuration":132013,"Delta":478352217},{"NoteNumber":70,"Velocity":84,"Duration":108401,"SoundDuration":108401,"Delta":478484231},{"NoteNumber":58,"Velocity":73,"Duration":108401,"SoundDuration":108401,"Delta":478484231},{"NoteNumber":72,"Velocity":55,"Duration":108400,"SoundDuration":108400,"Delta":478592632},{"NoteNumber":60,"Velocity":42,"Duration":108400,"SoundDuration":108400,"Delta":478592632},{"NoteNumber":70,"Velocity":55,"Duration":108401,"SoundDuration":108401,"Delta":478701033},{"NoteNumber":58,"Velocity":42,"Duration":108401,"SoundDuration":108401,"Delta":478701033},{"NoteNumber":67,"Velocity":61,"Duration":108401,"SoundDuration":108401,"Delta":478809434},{"NoteNumber":55,"Velocity":48,"Duration":108401,"SoundDuration":108401,"Delta":478809434},{"NoteNumber":64,"Velocity":55,"Duration":108401,"SoundDuration":108401,"Delta":478917835},{"NoteNumber":52,"Velocity":41,"Duration":108401,"SoundDuration":108401,"Delta":478917835},{"NoteNumber":60,"Velocity":55,"Duration":113765,"SoundDuration":113765,"Delta":479026236},{"NoteNumber":48,"Velocity":41,"Duration":113765,"SoundDuration":113765,"Delta":479026236},{"NoteNumber":58,"Velocity":77,"Duration":108225,"SoundDuration":108225,"Delta":479140001},{"NoteNumber":46,"Velocity":62,"Duration":108225,"SoundDuration":108225,"Delta":479140001},{"NoteNumber":60,"Velocity":48,"Duration":108225,"SoundDuration":108225,"Delta":479248226},{"NoteNumber":48,"Velocity":36,"Duration":108225,"SoundDuration":108225,"Delta":479248226},{"NoteNumber":58,"Velocity":48,"Duration":108225,"SoundDuration":108225,"Delta":479356451},{"NoteNumber":46,"Velocity":36,"Duration":108225,"SoundDuration":108225,"Delta":479356451},{"NoteNumber":60,"Velocity":54,"Duration":108225,"SoundDuration":108225,"Delta":479464676},{"NoteNumber":48,"Velocity":44,"Duration":108225,"SoundDuration":108225,"Delta":479464676},{"NoteNumber":58,"Velocity":50,"Duration":108225,"SoundDuration":108225,"Delta":479572901},{"NoteNumber":46,"Velocity":37,"Duration":108225,"SoundDuration":108225,"Delta":479572901},{"NoteNumber":60,"Velocity":50,"Duration":132013,"SoundDuration":132013,"Delta":479681126},{"NoteNumber":48,"Velocity":37,"Duration":132013,"SoundDuration":132013,"Delta":479681126},{"NoteNumber":68,"Velocity":84,"Duration":108518,"SoundDuration":108518,"Delta":479813140},{"NoteNumber":56,"Velocity":73,"Duration":108518,"SoundDuration":108518,"Delta":479813140},{"NoteNumber":72,"Velocity":55,"Duration":108518,"SoundDuration":108518,"Delta":479921658},{"NoteNumber":60,"Velocity":42,"Duration":108518,"SoundDuration":108518,"Delta":479921658},{"NoteNumber":70,"Velocity":55,"Duration":108518,"SoundDuration":108518,"Delta":480030177},{"NoteNumber":58,"Velocity":42,"Duration":108518,"SoundDuration":108518,"Delta":480030177},{"NoteNumber":68,"Velocity":70,"Duration":108518,"SoundDuration":108518,"Delta":480138696},{"NoteNumber":56,"Velocity":48,"Duration":108518,"SoundDuration":108518,"Delta":480138696},{"NoteNumber":63,"Velocity":55,"Duration":108518,"SoundDuration":108518,"Delta":480247214},{"NoteNumber":51,"Velocity":41,"Duration":108518,"SoundDuration":108518,"Delta":480247214},{"NoteNumber":60,"Velocity":55,"Duration":113765,"SoundDuration":113765,"Delta":480355733},{"NoteNumber":48,"Velocity":41,"Duration":113765,"SoundDuration":113765,"Delta":480355733},{"NoteNumber":56,"Velocity":77,"Duration":108225,"SoundDuration":108225,"Delta":480469499},{"NoteNumber":44,"Velocity":62,"Duration":108225,"SoundDuration":108225,"Delta":480469499},{"NoteNumber":60,"Velocity":48,"Duration":108225,"SoundDuration":108225,"Delta":480577724},{"NoteNumber":48,"Velocity":36,"Duration":108225,"SoundDuration":108225,"Delta":480577724},{"NoteNumber":56,"Velocity":48,"Duration":108225,"SoundDuration":108225,"Delta":480685949},{"NoteNumber":44,"Velocity":36,"Duration":108225,"SoundDuration":108225,"Delta":480685949},{"NoteNumber":60,"Velocity":54,"Duration":108225,"SoundDuration":108225,"Delta":480794174},{"NoteNumber":48,"Velocity":44,"Duration":108225,"SoundDuration":108225,"Delta":480794174},{"NoteNumber":56,"Velocity":50,"Duration":108225,"SoundDuration":108225,"Delta":480902399},{"NoteNumber":44,"Velocity":37,"Duration":108225,"SoundDuration":108225,"Delta":480902399},{"NoteNumber":60,"Velocity":50,"Duration":132013,"SoundDuration":132013,"Delta":481010624},{"NoteNumber":48,"Velocity":37,"Duration":132013,"SoundDuration":132013,"Delta":481010624},{"NoteNumber":68,"Velocity":84,"Duration":108518,"SoundDuration":108518,"Delta":481142637},{"NoteNumber":56,"Velocity":73,"Duration":108518,"SoundDuration":108518,"Delta":481142637},{"NoteNumber":70,"Velocity":55,"Duration":108518,"SoundDuration":108518,"Delta":481251156},{"NoteNumber":58,"Velocity":42,"Duration":108518,"SoundDuration":108518,"Delta":481251156},{"NoteNumber":68,"Velocity":55,"Duration":108518,"SoundDuration":108518,"Delta":481359674},{"NoteNumber":56,"Velocity":42,"Duration":108518,"SoundDuration":108518,"Delta":481359674},{"NoteNumber":65,"Velocity":71,"Duration":108518,"SoundDuration":108518,"Delta":481468193},{"NoteNumber":53,"Velocity":48,"Duration":108518,"SoundDuration":108518,"Delta":481468193},{"NoteNumber":62,"Velocity":55,"Duration":108518,"SoundDuration":108518,"Delta":481576712},{"NoteNumber":50,"Velocity":41,"Duration":108518,"SoundDuration":108518,"Delta":481576712},{"NoteNumber":58,"Velocity":55,"Duration":113765,"SoundDuration":113765,"Delta":481685230},{"NoteNumber":46,"Velocity":41,"Duration":113765,"SoundDuration":113765,"Delta":481685230},{"NoteNumber":66,"Velocity":84,"Duration":108518,"SoundDuration":108518,"Delta":481798996},{"NoteNumber":54,"Velocity":73,"Duration":108518,"SoundDuration":108518,"Delta":481798996},{"NoteNumber":70,"Velocity":55,"Duration":108518,"SoundDuration":108518,"Delta":481907515},{"NoteNumber":58,"Velocity":42,"Duration":108518,"SoundDuration":108518,"Delta":481907515},{"NoteNumber":66,"Velocity":55,"Duration":108518,"SoundDuration":108518,"Delta":482016033},{"NoteNumber":54,"Velocity":42,"Duration":108518,"SoundDuration":108518,"Delta":482016033},{"NoteNumber":61,"Velocity":61,"Duration":108518,"SoundDuration":108518,"Delta":482124552},{"NoteNumber":49,"Velocity":48,"Duration":108518,"SoundDuration":108518,"Delta":482124552},{"NoteNumber":58,"Velocity":55,"Duration":108518,"SoundDuration":108518,"Delta":482233071},{"NoteNumber":46,"Velocity":41,"Duration":108518,"SoundDuration":108518,"Delta":482233071},{"NoteNumber":54,"Velocity":55,"Duration":113765,"SoundDuration":113765,"Delta":482341589},{"NoteNumber":42,"Velocity":41,"Duration":113765,"SoundDuration":113765,"Delta":482341589},{"NoteNumber":67,"Velocity":84,"Duration":108518,"SoundDuration":108518,"Delta":482455355},{"NoteNumber":55,"Velocity":73,"Duration":108518,"SoundDuration":108518,"Delta":482455355},{"NoteNumber":69,"Velocity":55,"Duration":108518,"SoundDuration":108518,"Delta":482563874},{"NoteNumber":57,"Velocity":42,"Duration":108518,"SoundDuration":108518,"Delta":482563874},{"NoteNumber":67,"Velocity":55,"Duration":108518,"SoundDuration":108518,"Delta":482672392},{"NoteNumber":55,"Velocity":42,"Duration":108518,"SoundDuration":108518,"Delta":482672392},{"NoteNumber":64,"Velocity":61,"Duration":108518,"SoundDuration":108518,"Delta":482780911},{"NoteNumber":52,"Velocity":48,"Duration":108518,"SoundDuration":108518,"Delta":482780911},{"NoteNumber":61,"Velocity":55,"Duration":108518,"SoundDuration":108518,"Delta":482889430},{"NoteNumber":49,"Velocity":41,"Duration":108518,"SoundDuration":108518,"Delta":482889430},{"NoteNumber":57,"Velocity":55,"Duration":113765,"SoundDuration":113765,"Delta":482997948},{"NoteNumber":45,"Velocity":41,"Duration":113765,"SoundDuration":113765,"Delta":482997948},{"NoteNumber":65,"Velocity":84,"Duration":108518,"SoundDuration":108518,"Delta":483111714},{"NoteNumber":53,"Velocity":73,"Duration":108518,"SoundDuration":108518,"Delta":483111714},{"NoteNumber":69,"Velocity":55,"Duration":108518,"SoundDuration":108518,"Delta":483220233},{"NoteNumber":57,"Velocity":42,"Duration":108518,"SoundDuration":108518,"Delta":483220233},{"NoteNumber":65,"Velocity":55,"Duration":108518,"SoundDuration":108518,"Delta":483328751},{"NoteNumber":53,"Velocity":42,"Duration":108518,"SoundDuration":108518,"Delta":483328751},{"NoteNumber":60,"Velocity":61,"Duration":108518,"SoundDuration":108518,"Delta":483437270},{"NoteNumber":48,"Velocity":48,"Duration":108518,"SoundDuration":108518,"Delta":483437270},{"NoteNumber":57,"Velocity":55,"Duration":108518,"SoundDuration":108518,"Delta":483545789},{"NoteNumber":45,"Velocity":41,"Duration":108518,"SoundDuration":108518,"Delta":483545789},{"NoteNumber":53,"Velocity":55,"Duration":113765,"SoundDuration":113765,"Delta":483654307},{"NoteNumber":41,"Velocity":41,"Duration":113765,"SoundDuration":113765,"Delta":483654307},{"NoteNumber":58,"Velocity":84,"Duration":108518,"SoundDuration":108518,"Delta":483768073},{"NoteNumber":46,"Velocity":73,"Duration":108518,"SoundDuration":108518,"Delta":483768073},{"NoteNumber":62,"Velocity":55,"Duration":108518,"SoundDuration":108518,"Delta":483876592},{"NoteNumber":50,"Velocity":42,"Duration":108518,"SoundDuration":108518,"Delta":483876592},{"NoteNumber":58,"Velocity":55,"Duration":108518,"SoundDuration":108518,"Delta":483985110},{"NoteNumber":46,"Velocity":42,"Duration":108518,"SoundDuration":108518,"Delta":483985110},{"NoteNumber":53,"Velocity":61,"Duration":108518,"SoundDuration":108518,"Delta":484093629},{"NoteNumber":41,"Velocity":48,"Duration":108518,"SoundDuration":108518,"Delta":484093629},{"NoteNumber":50,"Velocity":55,"Duration":108518,"SoundDuration":108518,"Delta":484202148},{"NoteNumber":38,"Velocity":41,"Duration":108518,"SoundDuration":108518,"Delta":484202148},{"NoteNumber":46,"Velocity":55,"Duration":113765,"SoundDuration":113765,"Delta":484310666},{"NoteNumber":34,"Velocity":41,"Duration":113765,"SoundDuration":113765,"Delta":484310666},{"NoteNumber":50,"Velocity":69,"Duration":108225,"SoundDuration":108225,"Delta":484424432},{"NoteNumber":38,"Velocity":55,"Duration":108225,"SoundDuration":108225,"Delta":484424432},{"NoteNumber":46,"Velocity":43,"Duration":108225,"SoundDuration":108225,"Delta":484532657},{"NoteNumber":34,"Velocity":32,"Duration":108225,"SoundDuration":108225,"Delta":484532657},{"NoteNumber":50,"Velocity":43,"Duration":108225,"SoundDuration":108225,"Delta":484640882},{"NoteNumber":38,"Velocity":32,"Duration":108225,"SoundDuration":108225,"Delta":484640882},{"NoteNumber":46,"Velocity":48,"Duration":108225,"SoundDuration":108225,"Delta":484749107},{"NoteNumber":34,"Velocity":39,"Duration":108225,"SoundDuration":108225,"Delta":484749107},{"NoteNumber":50,"Velocity":45,"Duration":108225,"SoundDuration":108225,"Delta":484857332},{"NoteNumber":38,"Velocity":33,"Duration":108225,"SoundDuration":108225,"Delta":484857332},{"NoteNumber":46,"Velocity":45,"Duration":132013,"SoundDuration":132013,"Delta":484965557},{"NoteNumber":34,"Velocity":33,"Duration":132013,"SoundDuration":132013,"Delta":484965557},{"NoteNumber":50,"Velocity":56,"Duration":108991,"SoundDuration":108991,"Delta":485097570},{"NoteNumber":38,"Velocity":45,"Duration":108991,"SoundDuration":108991,"Delta":485097570},{"NoteNumber":46,"Velocity":39,"Duration":108991,"SoundDuration":108991,"Delta":485206562},{"NoteNumber":34,"Velocity":29,"Duration":108991,"SoundDuration":108991,"Delta":485206562},{"NoteNumber":50,"Velocity":39,"Duration":108991,"SoundDuration":108991,"Delta":485315554},{"NoteNumber":38,"Velocity":29,"Duration":108991,"SoundDuration":108991,"Delta":485315554},{"NoteNumber":46,"Velocity":42,"Duration":108991,"SoundDuration":108991,"Delta":485424545},{"NoteNumber":34,"Velocity":34,"Duration":108991,"SoundDuration":108991,"Delta":485424545},{"NoteNumber":50,"Velocity":39,"Duration":108991,"SoundDuration":108991,"Delta":485533537},{"NoteNumber":38,"Velocity":28,"Duration":108991,"SoundDuration":108991,"Delta":485533537},{"NoteNumber":46,"Velocity":38,"Duration":132013,"SoundDuration":132013,"Delta":485642529},{"NoteNumber":34,"Velocity":28,"Duration":132013,"SoundDuration":132013,"Delta":485642529},{"NoteNumber":50,"Velocity":46,"Duration":109971,"SoundDuration":109971,"Delta":485774542},{"NoteNumber":38,"Velocity":38,"Duration":109971,"SoundDuration":109971,"Delta":485774542},{"NoteNumber":46,"Velocity":34,"Duration":111082,"SoundDuration":111082,"Delta":485884514},{"NoteNumber":34,"Velocity":25,"Duration":111082,"SoundDuration":111082,"Delta":485884514},{"NoteNumber":50,"Velocity":33,"Duration":112065,"SoundDuration":112065,"Delta":485995597},{"NoteNumber":38,"Velocity":25,"Duration":112065,"SoundDuration":112065,"Delta":485995597},{"NoteNumber":46,"Velocity":36,"Duration":113092,"SoundDuration":113092,"Delta":486107662},{"NoteNumber":34,"Velocity":30,"Duration":113092,"SoundDuration":113092,"Delta":486107662},{"NoteNumber":50,"Velocity":33,"Duration":114139,"SoundDuration":114139,"Delta":486220755},{"NoteNumber":38,"Velocity":24,"Duration":114139,"SoundDuration":114139,"Delta":486220755},{"NoteNumber":46,"Velocity":32,"Duration":132013,"SoundDuration":132013,"Delta":486334895},{"NoteNumber":34,"Velocity":24,"Duration":132013,"SoundDuration":132013,"Delta":486334895},{"NoteNumber":33,"Velocity":35,"Duration":176990,"SoundDuration":176990,"Delta":486466908},{"NoteNumber":45,"Velocity":37,"Duration":117994,"SoundDuration":117994,"Delta":486466908},{"NoteNumber":47,"Velocity":32,"Duration":117994,"SoundDuration":117994,"Delta":486584902},{"NoteNumber":49,"Velocity":32,"Duration":117993,"SoundDuration":117993,"Delta":486702896},{"NoteNumber":69,"Velocity":44,"Duration":282131,"SoundDuration":282131,"Delta":486820890},{"NoteNumber":66,"Velocity":44,"Duration":282131,"SoundDuration":282131,"Delta":486820890},{"NoteNumber":50,"Velocity":37,"Duration":125391,"SoundDuration":125391,"Delta":486820890},{"NoteNumber":52,"Velocity":33,"Duration":125392,"SoundDuration":125392,"Delta":486946282},{"NoteNumber":54,"Velocity":33,"Duration":133180,"SoundDuration":133180,"Delta":487071674},{"NoteNumber":66,"Velocity":39,"Duration":101832,"SoundDuration":101832,"Delta":487103022},{"NoteNumber":69,"Velocity":39,"Duration":101832,"SoundDuration":101832,"Delta":487103022},{"NoteNumber":55,"Velocity":44,"Duration":119402,"SoundDuration":119402,"Delta":487204855},{"NoteNumber":64,"Velocity":44,"Duration":179104,"SoundDuration":179104,"Delta":487204855},{"NoteNumber":67,"Velocity":44,"Duration":179104,"SoundDuration":179104,"Delta":487204855},{"NoteNumber":57,"Velocity":44,"Duration":119403,"SoundDuration":119403,"Delta":487324258},{"NoteNumber":59,"Velocity":43,"Duration":119402,"SoundDuration":119402,"Delta":487443661},{"NoteNumber":61,"Velocity":45,"Duration":119403,"SoundDuration":119403,"Delta":487563064},{"NoteNumber":52,"Velocity":35,"Duration":179104,"SoundDuration":179104,"Delta":487563064},{"NoteNumber":45,"Velocity":35,"Duration":179104,"SoundDuration":179104,"Delta":487563064},{"NoteNumber":62,"Velocity":48,"Duration":119402,"SoundDuration":119402,"Delta":487682467},{"NoteNumber":64,"Velocity":49,"Duration":129214,"SoundDuration":129214,"Delta":487801870},{"NoteNumber":66,"Velocity":45,"Duration":118965,"SoundDuration":118965,"Delta":487931085},{"NoteNumber":54,"Velocity":40,"Duration":178308,"SoundDuration":178308,"Delta":487931085},{"NoteNumber":50,"Velocity":33,"Duration":178308,"SoundDuration":178308,"Delta":487931085},{"NoteNumber":67,"Velocity":48,"Duration":118514,"SoundDuration":118514,"Delta":488050051},{"NoteNumber":69,"Velocity":48,"Duration":115834,"SoundDuration":115834,"Delta":488168565},{"NoteNumber":71,"Velocity":50,"Duration":117526,"SoundDuration":117526,"Delta":488286605},{"NoteNumber":69,"Velocity":44,"Duration":263796,"SoundDuration":263796,"Delta":488286605},{"NoteNumber":66,"Velocity":44,"Duration":263796,"SoundDuration":263796,"Delta":488286605},{"NoteNumber":73,"Velocity":52,"Duration":117085,"SoundDuration":117085,"Delta":488404131},{"NoteNumber":74,"Velocity":52,"Duration":122063,"SoundDuration":122063,"Delta":488521217},{"NoteNumber":69,"Velocity":39,"Duration":92879,"SoundDuration":92879,"Delta":488550401},{"NoteNumber":66,"Velocity":39,"Duration":92879,"SoundDuration":92879,"Delta":488550401},{"NoteNumber":76,"Velocity":54,"Duration":116858,"SoundDuration":116858,"Delta":488643281},{"NoteNumber":67,"Velocity":44,"Duration":175169,"SoundDuration":175169,"Delta":488643281},{"NoteNumber":64,"Velocity":44,"Duration":175169,"SoundDuration":175169,"Delta":488643281},{"NoteNumber":78,"Velocity":56,"Duration":116569,"SoundDuration":116569,"Delta":488760139},{"NoteNumber":79,"Velocity":56,"Duration":116173,"SoundDuration":116173,"Delta":488876708},{"NoteNumber":81,"Velocity":58,"Duration":115942,"SoundDuration":115942,"Delta":488992882},{"NoteNumber":45,"Velocity":40,"Duration":174024,"SoundDuration":174024,"Delta":488992882},{"NoteNumber":52,"Velocity":40,"Duration":174024,"SoundDuration":174024,"Delta":488992882},{"NoteNumber":83,"Velocity":60,"Duration":116222,"SoundDuration":116222,"Delta":489108824},{"NoteNumber":85,"Velocity":60,"Duration":133568,"SoundDuration":133568,"Delta":489225046},{"NoteNumber":74,"Velocity":51,"Duration":117847,"SoundDuration":117847,"Delta":489358614},{"NoteNumber":54,"Velocity":38,"Duration":175499,"SoundDuration":175499,"Delta":489358614},{"NoteNumber":50,"Velocity":38,"Duration":175499,"SoundDuration":175499,"Delta":489358614},{"NoteNumber":76,"Velocity":51,"Duration":115131,"SoundDuration":115131,"Delta":489476462},{"NoteNumber":78,"Velocity":52,"Duration":114447,"SoundDuration":114447,"Delta":489591593},{"NoteNumber":79,"Velocity":53,"Duration":115382,"SoundDuration":115382,"Delta":489706040},{"NoteNumber":69,"Velocity":44,"Duration":260660,"SoundDuration":260660,"Delta":489706040},{"NoteNumber":66,"Velocity":44,"Duration":260660,"SoundDuration":260660,"Delta":489706040},{"NoteNumber":81,"Velocity":53,"Duration":116123,"SoundDuration":116123,"Delta":489821423},{"NoteNumber":83,"Velocity":54,"Duration":122322,"SoundDuration":122322,"Delta":489937546},{"NoteNumber":69,"Velocity":39,"Duration":93167,"SoundDuration":93167,"Delta":489966701},{"NoteNumber":66,"Velocity":39,"Duration":93167,"SoundDuration":93167,"Delta":489966701},{"NoteNumber":85,"Velocity":55,"Duration":113755,"SoundDuration":113755,"Delta":490059868},{"NoteNumber":64,"Velocity":44,"Duration":170733,"SoundDuration":170733,"Delta":490059868},{"NoteNumber":67,"Velocity":44,"Duration":170733,"SoundDuration":170733,"Delta":490059868},{"NoteNumber":86,"Velocity":55,"Duration":114047,"SoundDuration":114047,"Delta":490173624},{"NoteNumber":88,"Velocity":56,"Duration":114465,"SoundDuration":114465,"Delta":490287671},{"NoteNumber":90,"Velocity":56,"Duration":114924,"SoundDuration":114924,"Delta":490402137},{"NoteNumber":57,"Velocity":40,"Duration":172561,"SoundDuration":172561,"Delta":490402137},{"NoteNumber":64,"Velocity":40,"Duration":172561,"SoundDuration":172561,"Delta":490402137},{"NoteNumber":91,"Velocity":57,"Duration":115404,"SoundDuration":115404,"Delta":490517062},{"NoteNumber":93,"Velocity":58,"Duration":115112,"SoundDuration":115112,"Delta":490632466},{"NoteNumber":81,"Velocity":58,"Duration":114212,"SoundDuration":114212,"Delta":490747579},{"NoteNumber":54,"Velocity":38,"Duration":171725,"SoundDuration":171725,"Delta":490747579},{"NoteNumber":50,"Velocity":38,"Duration":171725,"SoundDuration":171725,"Delta":490747579},{"NoteNumber":83,"Velocity":59,"Duration":115251,"SoundDuration":115251,"Delta":490861792},{"NoteNumber":85,"Velocity":60,"Duration":116275,"SoundDuration":116275,"Delta":490977044},{"NoteNumber":86,"Velocity":60,"Duration":117307,"SoundDuration":117307,"Delta":491093319},{"NoteNumber":66,"Velocity":44,"Duration":265487,"SoundDuration":265487,"Delta":491093319},{"NoteNumber":69,"Velocity":44,"Duration":265487,"SoundDuration":265487,"Delta":491093319},{"NoteNumber":88,"Velocity":61,"Duration":118403,"SoundDuration":118403,"Delta":491210626},{"NoteNumber":90,"Velocity":62,"Duration":126211,"SoundDuration":126211,"Delta":491329029},{"NoteNumber":66,"Velocity":39,"Duration":96434,"SoundDuration":96434,"Delta":491358807},{"NoteNumber":69,"Velocity":39,"Duration":96434,"SoundDuration":96434,"Delta":491358807},{"NoteNumber":91,"Velocity":62,"Duration":117324,"SoundDuration":117324,"Delta":491455241},{"NoteNumber":64,"Velocity":44,"Duration":176364,"SoundDuration":176364,"Delta":491455241},{"NoteNumber":67,"Velocity":44,"Duration":176364,"SoundDuration":176364,"Delta":491455241},{"NoteNumber":93,"Velocity":63,"Duration":118361,"SoundDuration":118361,"Delta":491572565},{"NoteNumber":95,"Velocity":64,"Duration":119399,"SoundDuration":119399,"Delta":491690927},{"NoteNumber":97,"Velocity":64,"Duration":120487,"SoundDuration":120487,"Delta":491810326},{"NoteNumber":52,"Velocity":40,"Duration":181139,"SoundDuration":181139,"Delta":491810326},{"NoteNumber":45,"Velocity":32,"Duration":181139,"SoundDuration":181139,"Delta":491810326},{"NoteNumber":98,"Velocity":65,"Duration":121556,"SoundDuration":121556,"Delta":491930813},{"NoteNumber":100,"Velocity":65,"Duration":146198,"SoundDuration":146198,"Delta":492052369},{"NoteNumber":86,"Velocity":73,"Duration":116618,"SoundDuration":116618,"Delta":492198568},{"NoteNumber":50,"Velocity":61,"Duration":699707,"SoundDuration":699707,"Delta":492198568},{"NoteNumber":38,"Velocity":51,"Duration":699707,"SoundDuration":699707,"Delta":492198568},{"NoteNumber":88,"Velocity":62,"Duration":116617,"SoundDuration":116617,"Delta":492315186},{"NoteNumber":86,"Velocity":63,"Duration":116618,"SoundDuration":116618,"Delta":492431804},{"NoteNumber":90,"Velocity":73,"Duration":116618,"SoundDuration":116618,"Delta":492548422},{"NoteNumber":98,"Velocity":63,"Duration":116618,"SoundDuration":116618,"Delta":492665040},{"NoteNumber":90,"Velocity":64,"Duration":116617,"SoundDuration":116617,"Delta":492781658},{"NoteNumber":86,"Velocity":71,"Duration":115607,"SoundDuration":115607,"Delta":492898276},{"NoteNumber":54,"Velocity":55,"Duration":86705,"SoundDuration":86705,"Delta":492898276},{"NoteNumber":50,"Velocity":46,"Duration":86705,"SoundDuration":86705,"Delta":492898276},{"NoteNumber":88,"Velocity":65,"Duration":115607,"SoundDuration":115607,"Delta":493013883},{"NoteNumber":54,"Velocity":45,"Duration":86705,"SoundDuration":86705,"Delta":493071686},{"NoteNumber":50,"Velocity":37,"Duration":86705,"SoundDuration":86705,"Delta":493071686},{"NoteNumber":86,"Velocity":66,"Duration":115606,"SoundDuration":115606,"Delta":493129490},{"NoteNumber":86,"Velocity":71,"Duration":115607,"SoundDuration":115607,"Delta":493245097},{"NoteNumber":54,"Velocity":57,"Duration":86705,"SoundDuration":86705,"Delta":493245097},{"NoteNumber":50,"Velocity":47,"Duration":86705,"SoundDuration":86705,"Delta":493245097},{"NoteNumber":98,"Velocity":63,"Duration":115607,"SoundDuration":115607,"Delta":493360704},{"NoteNumber":54,"Velocity":45,"Duration":89053,"SoundDuration":89053,"Delta":493418507},{"NoteNumber":50,"Velocity":37,"Duration":89053,"SoundDuration":89053,"Delta":493418507},{"NoteNumber":86,"Velocity":63,"Duration":117187,"SoundDuration":117187,"Delta":493476311},{"NoteNumber":81,"Velocity":72,"Duration":116279,"SoundDuration":116279,"Delta":493601311},{"NoteNumber":54,"Velocity":61,"Duration":348837,"SoundDuration":348837,"Delta":493601311},{"NoteNumber":50,"Velocity":51,"Duration":348837,"SoundDuration":348837,"Delta":493601311},{"NoteNumber":90,"Velocity":61,"Duration":116278,"SoundDuration":116278,"Delta":493717590},{"NoteNumber":81,"Velocity":61,"Duration":116279,"SoundDuration":116279,"Delta":493833869},{"NoteNumber":90,"Velocity":66,"Duration":119402,"SoundDuration":119402,"Delta":493950148},{"NoteNumber":54,"Velocity":45,"Duration":179104,"SoundDuration":179104,"Delta":493950148},{"NoteNumber":62,"Velocity":52,"Duration":179104,"SoundDuration":179104,"Delta":493950148},{"NoteNumber":93,"Velocity":67,"Duration":119403,"SoundDuration":119403,"Delta":494069551},{"NoteNumber":90,"Velocity":62,"Duration":119402,"SoundDuration":119402,"Delta":494188954},{"NoteNumber":81,"Velocity":72,"Duration":114942,"SoundDuration":114942,"Delta":494308357},{"NoteNumber":62,"Velocity":65,"Duration":86207,"SoundDuration":86207,"Delta":494308357},{"NoteNumber":54,"Velocity":55,"Duration":86207,"SoundDuration":86207,"Delta":494308357},{"NoteNumber":90,"Velocity":62,"Duration":114942,"SoundDuration":114942,"Delta":494423300},{"NoteNumber":62,"Velocity":55,"Duration":86207,"SoundDuration":86207,"Delta":494480771},{"NoteNumber":54,"Velocity":46,"Duration":86207,"SoundDuration":86207,"Delta":494480771},{"NoteNumber":81,"Velocity":62,"Duration":114942,"SoundDuration":114942,"Delta":494538242},{"NoteNumber":90,"Velocity":73,"Duration":115607,"SoundDuration":115607,"Delta":494653185},{"NoteNumber":62,"Velocity":66,"Duration":86705,"SoundDuration":86705,"Delta":494653185},{"NoteNumber":54,"Velocity":56,"Duration":86705,"SoundDuration":86705,"Delta":494653185},{"NoteNumber":93,"Velocity":64,"Duration":115607,"SoundDuration":115607,"Delta":494768792},{"NoteNumber":62,"Velocity":58,"Duration":88956,"SoundDuration":88956,"Delta":494826595},{"NoteNumber":54,"Velocity":48,"Duration":88956,"SoundDuration":88956,"Delta":494826595},{"NoteNumber":90,"Velocity":64,"Duration":124610,"SoundDuration":124610,"Delta":494884399},{"NoteNumber":78,"Velocity":73,"Duration":115607,"SoundDuration":115607,"Delta":495009010},{"NoteNumber":62,"Velocity":76,"Duration":346820,"SoundDuration":346820,"Delta":495009010},{"NoteNumber":50,"Velocity":63,"Duration":346820,"SoundDuration":346820,"Delta":495009010},{"NoteNumber":86,"Velocity":65,"Duration":115607,"SoundDuration":115607,"Delta":495124617},{"NoteNumber":78,"Velocity":65,"Duration":115606,"SoundDuration":115606,"Delta":495240224},{"NoteNumber":86,"Velocity":73,"Duration":117646,"SoundDuration":117646,"Delta":495355831},{"NoteNumber":66,"Velocity":66,"Duration":176470,"SoundDuration":176470,"Delta":495355831},{"NoteNumber":62,"Velocity":56,"Duration":176470,"SoundDuration":176470,"Delta":495355831},{"NoteNumber":90,"Velocity":65,"Duration":117647,"SoundDuration":117647,"Delta":495473478},{"NoteNumber":86,"Velocity":65,"Duration":117646,"SoundDuration":117646,"Delta":495591125},{"NoteNumber":78,"Velocity":75,"Duration":114613,"SoundDuration":114613,"Delta":495708772},{"NoteNumber":66,"Velocity":80,"Duration":85960,"SoundDuration":85960,"Delta":495708772},{"NoteNumber":62,"Velocity":67,"Duration":85960,"SoundDuration":85960,"Delta":495708772},{"NoteNumber":86,"Velocity":67,"Duration":114613,"SoundDuration":114613,"Delta":495823385},{"NoteNumber":66,"Velocity":70,"Duration":85960,"SoundDuration":85960,"Delta":495880692},{"NoteNumber":62,"Velocity":58,"Duration":85960,"SoundDuration":85960,"Delta":495880692},{"NoteNumber":78,"Velocity":67,"Duration":114613,"SoundDuration":114613,"Delta":495937998},{"NoteNumber":86,"Velocity":76,"Duration":116279,"SoundDuration":116279,"Delta":496052612},{"NoteNumber":66,"Velocity":82,"Duration":87209,"SoundDuration":87209,"Delta":496052612},{"NoteNumber":62,"Velocity":70,"Duration":87209,"SoundDuration":87209,"Delta":496052612},{"NoteNumber":90,"Velocity":70,"Duration":116278,"SoundDuration":116278,"Delta":496168891},{"NoteNumber":66,"Velocity":73,"Duration":87209,"SoundDuration":87209,"Delta":496227030},{"NoteNumber":62,"Velocity":62,"Duration":87209,"SoundDuration":87209,"Delta":496227030},{"NoteNumber":86,"Velocity":70,"Duration":116279,"SoundDuration":116279,"Delta":496285170},{"NoteNumber":74,"Velocity":76,"Duration":115273,"SoundDuration":115273,"Delta":496401449},{"NoteNumber":66,"Velocity":85,"Duration":345821,"SoundDuration":345821,"Delta":496401449},{"NoteNumber":62,"Velocity":71,"Duration":345821,"SoundDuration":345821,"Delta":496401449},{"NoteNumber":78,"Velocity":70,"Duration":115273,"SoundDuration":115273,"Delta":496516722},{"NoteNumber":74,"Velocity":70,"Duration":115273,"SoundDuration":115273,"Delta":496631996},{"NoteNumber":78,"Velocity":79,"Duration":116618,"SoundDuration":116618,"Delta":496747270},{"NoteNumber":69,"Velocity":76,"Duration":174927,"SoundDuration":174927,"Delta":496747270},{"NoteNumber":66,"Velocity":63,"Duration":174927,"SoundDuration":174927,"Delta":496747270},{"NoteNumber":86,"Velocity":71,"Duration":116617,"SoundDuration":116617,"Delta":496863888},{"NoteNumber":78,"Velocity":71,"Duration":109329,"SoundDuration":109329,"Delta":496980506},{"NoteNumber":74,"Velocity":80,"Duration":114942,"SoundDuration":114942,"Delta":497097124},{"NoteNumber":69,"Velocity":85,"Duration":86207,"SoundDuration":86207,"Delta":497097124},{"NoteNumber":66,"Velocity":71,"Duration":86207,"SoundDuration":86207,"Delta":497097124},{"NoteNumber":78,"Velocity":72,"Duration":114942,"SoundDuration":114942,"Delta":497212066},{"NoteNumber":69,"Velocity":76,"Duration":86207,"SoundDuration":86207,"Delta":497269538},{"NoteNumber":66,"Velocity":63,"Duration":86207,"SoundDuration":86207,"Delta":497269538},{"NoteNumber":74,"Velocity":73,"Duration":114942,"SoundDuration":114942,"Delta":497327009},{"NoteNumber":78,"Velocity":81,"Duration":118694,"SoundDuration":118694,"Delta":497441952},{"NoteNumber":69,"Velocity":87,"Duration":89020,"SoundDuration":89020,"Delta":497441952},{"NoteNumber":66,"Velocity":73,"Duration":89020,"SoundDuration":89020,"Delta":497441952},{"NoteNumber":86,"Velocity":74,"Duration":118694,"SoundDuration":118694,"Delta":497560646},{"NoteNumber":69,"Velocity":80,"Duration":102825,"SoundDuration":102825,"Delta":497619993},{"NoteNumber":66,"Velocity":67,"Duration":102825,"SoundDuration":102825,"Delta":497619993},{"NoteNumber":78,"Velocity":74,"Duration":173912,"SoundDuration":173912,"Delta":497679340},{"NoteNumber":86,"Velocity":105,"Duration":829876,"SoundDuration":829876,"Delta":497853253},{"NoteNumber":81,"Velocity":89,"Duration":829876,"SoundDuration":829876,"Delta":497853253},{"NoteNumber":78,"Velocity":89,"Duration":829876,"SoundDuration":829876,"Delta":497853253},{"NoteNumber":74,"Velocity":89,"Duration":829876,"SoundDuration":829876,"Delta":497853253},{"NoteNumber":38,"Velocity":73,"Duration":829876,"SoundDuration":829876,"Delta":497853253},{"NoteNumber":50,"Velocity":86,"Duration":829876,"SoundDuration":829876,"Delta":497853253},{"NoteNumber":66,"Velocity":73,"Duration":84985,"SoundDuration":84985,"Delta":498683129},{"NoteNumber":74,"Velocity":86,"Duration":84985,"SoundDuration":84985,"Delta":498683129},{"NoteNumber":54,"Velocity":58,"Duration":84985,"SoundDuration":84985,"Delta":498683129},{"NoteNumber":62,"Velocity":69,"Duration":84985,"SoundDuration":84985,"Delta":498683129},{"NoteNumber":66,"Velocity":66,"Duration":84985,"SoundDuration":84985,"Delta":498853101},{"NoteNumber":74,"Velocity":80,"Duration":84985,"SoundDuration":84985,"Delta":498853101},{"NoteNumber":54,"Velocity":52,"Duration":84985,"SoundDuration":84985,"Delta":498853101},{"NoteNumber":62,"Velocity":63,"Duration":84985,"SoundDuration":84985,"Delta":498853101},{"NoteNumber":66,"Velocity":73,"Duration":81743,"SoundDuration":81743,"Delta":499023072},{"NoteNumber":74,"Velocity":86,"Duration":81743,"SoundDuration":81743,"Delta":499023072},{"NoteNumber":54,"Velocity":58,"Duration":81743,"SoundDuration":81743,"Delta":499023072},{"NoteNumber":62,"Velocity":69,"Duration":81743,"SoundDuration":81743,"Delta":499023072},{"NoteNumber":66,"Velocity":66,"Duration":91743,"SoundDuration":91743,"Delta":499186560},{"NoteNumber":74,"Velocity":79,"Duration":91743,"SoundDuration":91743,"Delta":499186560},{"NoteNumber":54,"Velocity":52,"Duration":91743,"SoundDuration":91743,"Delta":499186560},{"NoteNumber":62,"Velocity":63,"Duration":91743,"SoundDuration":91743,"Delta":499186560},{"NoteNumber":66,"Velocity":81,"Duration":326086,"SoundDuration":326086,"Delta":499370046},{"NoteNumber":74,"Velocity":95,"Duration":326086,"SoundDuration":326086,"Delta":499370046},{"NoteNumber":54,"Velocity":64,"Duration":326086,"SoundDuration":326086,"Delta":499370046},{"NoteNumber":62,"Velocity":75,"Duration":326086,"SoundDuration":326086,"Delta":499370046},{"NoteNumber":69,"Velocity":69,"Duration":175952,"SoundDuration":175952,"Delta":499696133},{"NoteNumber":76,"Velocity":82,"Duration":175952,"SoundDuration":175952,"Delta":499696133},{"NoteNumber":57,"Velocity":58,"Duration":175952,"SoundDuration":175952,"Delta":499696133},{"NoteNumber":64,"Velocity":71,"Duration":175952,"SoundDuration":175952,"Delta":499696133},{"NoteNumber":69,"Velocity":81,"Duration":327869,"SoundDuration":327869,"Delta":500048039},{"NoteNumber":76,"Velocity":95,"Duration":327869,"SoundDuration":327869,"Delta":500048039},{"NoteNumber":57,"Velocity":64,"Duration":327869,"SoundDuration":327869,"Delta":500048039},{"NoteNumber":64,"Velocity":75,"Duration":327869,"SoundDuration":327869,"Delta":500048039},{"NoteNumber":74,"Velocity":69,"Duration":174418,"SoundDuration":174418,"Delta":500375908},{"NoteNumber":78,"Velocity":82,"Duration":174418,"SoundDuration":174418,"Delta":500375908},{"NoteNumber":62,"Velocity":58,"Duration":174418,"SoundDuration":174418,"Delta":500375908},{"NoteNumber":66,"Velocity":71,"Duration":174418,"SoundDuration":174418,"Delta":500375908},{"NoteNumber":74,"Velocity":81,"Duration":326975,"SoundDuration":326975,"Delta":500724745},{"NoteNumber":78,"Velocity":95,"Duration":326975,"SoundDuration":326975,"Delta":500724745},{"NoteNumber":62,"Velocity":64,"Duration":326975,"SoundDuration":326975,"Delta":500724745},{"NoteNumber":66,"Velocity":75,"Duration":326975,"SoundDuration":326975,"Delta":500724745},{"NoteNumber":69,"Velocity":69,"Duration":173410,"SoundDuration":173410,"Delta":501051720},{"NoteNumber":76,"Velocity":82,"Duration":173410,"SoundDuration":173410,"Delta":501051720},{"NoteNumber":57,"Velocity":58,"Duration":173410,"SoundDuration":173410,"Delta":501051720},{"NoteNumber":64,"Velocity":71,"Duration":173410,"SoundDuration":173410,"Delta":501051720},{"NoteNumber":69,"Velocity":73,"Duration":81521,"SoundDuration":81521,"Delta":501398541},{"NoteNumber":76,"Velocity":86,"Duration":81521,"SoundDuration":81521,"Delta":501398541},{"NoteNumber":57,"Velocity":58,"Duration":81521,"SoundDuration":81521,"Delta":501398541},{"NoteNumber":64,"Velocity":69,"Duration":81521,"SoundDuration":81521,"Delta":501398541},{"NoteNumber":69,"Velocity":66,"Duration":81521,"SoundDuration":81521,"Delta":501561584},{"NoteNumber":76,"Velocity":80,"Duration":81521,"SoundDuration":81521,"Delta":501561584},{"NoteNumber":57,"Velocity":52,"Duration":81521,"SoundDuration":81521,"Delta":501561584},{"NoteNumber":64,"Velocity":63,"Duration":81521,"SoundDuration":81521,"Delta":501561584},{"NoteNumber":69,"Velocity":73,"Duration":78740,"SoundDuration":78740,"Delta":501724628},{"NoteNumber":76,"Velocity":86,"Duration":78740,"SoundDuration":78740,"Delta":501724628},{"NoteNumber":57,"Velocity":58,"Duration":78740,"SoundDuration":78740,"Delta":501724628},{"NoteNumber":64,"Velocity":69,"Duration":78740,"SoundDuration":78740,"Delta":501724628},{"NoteNumber":69,"Velocity":66,"Duration":89820,"SoundDuration":89820,"Delta":501882108},{"NoteNumber":76,"Velocity":79,"Duration":89820,"SoundDuration":89820,"Delta":501882108},{"NoteNumber":57,"Velocity":52,"Duration":89820,"SoundDuration":89820,"Delta":501882108},{"NoteNumber":64,"Velocity":63,"Duration":89820,"SoundDuration":89820,"Delta":501882108},{"NoteNumber":69,"Velocity":81,"Duration":319999,"SoundDuration":319999,"Delta":502061749},{"NoteNumber":76,"Velocity":95,"Duration":319999,"SoundDuration":319999,"Delta":502061749},{"NoteNumber":57,"Velocity":64,"Duration":319999,"SoundDuration":319999,"Delta":502061749},{"NoteNumber":64,"Velocity":75,"Duration":319999,"SoundDuration":319999,"Delta":502061749},{"NoteNumber":78,"Velocity":69,"Duration":173410,"SoundDuration":173410,"Delta":502381749},{"NoteNumber":81,"Velocity":82,"Duration":173410,"SoundDuration":173410,"Delta":502381749},{"NoteNumber":66,"Velocity":58,"Duration":173410,"SoundDuration":173410,"Delta":502381749},{"NoteNumber":69,"Velocity":71,"Duration":173410,"SoundDuration":173410,"Delta":502381749},{"NoteNumber":78,"Velocity":81,"Duration":319148,"SoundDuration":319148,"Delta":502728570},{"NoteNumber":81,"Velocity":95,"Duration":319148,"SoundDuration":319148,"Delta":502728570},{"NoteNumber":66,"Velocity":64,"Duration":319148,"SoundDuration":319148,"Delta":502728570},{"NoteNumber":69,"Velocity":75,"Duration":319148,"SoundDuration":319148,"Delta":502728570},{"NoteNumber":73,"Velocity":69,"Duration":173410,"SoundDuration":173410,"Delta":503047719},{"NoteNumber":79,"Velocity":82,"Duration":173410,"SoundDuration":173410,"Delta":503047719},{"NoteNumber":61,"Velocity":58,"Duration":173410,"SoundDuration":173410,"Delta":503047719},{"NoteNumber":67,"Velocity":71,"Duration":173410,"SoundDuration":173410,"Delta":503047719},{"NoteNumber":73,"Velocity":81,"Duration":316622,"SoundDuration":316622,"Delta":503394540},{"NoteNumber":79,"Velocity":95,"Duration":316622,"SoundDuration":316622,"Delta":503394540},{"NoteNumber":61,"Velocity":64,"Duration":316622,"SoundDuration":316622,"Delta":503394540},{"NoteNumber":67,"Velocity":75,"Duration":316622,"SoundDuration":316622,"Delta":503394540},{"NoteNumber":74,"Velocity":69,"Duration":173410,"SoundDuration":173410,"Delta":503711163},{"NoteNumber":78,"Velocity":82,"Duration":173410,"SoundDuration":173410,"Delta":503711163},{"NoteNumber":62,"Velocity":58,"Duration":173410,"SoundDuration":173410,"Delta":503711163},{"NoteNumber":66,"Velocity":71,"Duration":173410,"SoundDuration":173410,"Delta":503711163},{"NoteNumber":74,"Velocity":76,"Duration":76142,"SoundDuration":76142,"Delta":504057984},{"NoteNumber":78,"Velocity":76,"Duration":76142,"SoundDuration":76142,"Delta":504057984},{"NoteNumber":83,"Velocity":76,"Duration":76142,"SoundDuration":76142,"Delta":504057984},{"NoteNumber":86,"Velocity":90,"Duration":76142,"SoundDuration":76142,"Delta":504057984},{"NoteNumber":35,"Velocity":58,"Duration":76142,"SoundDuration":76142,"Delta":504057984},{"NoteNumber":47,"Velocity":69,"Duration":76142,"SoundDuration":76142,"Delta":504057984},{"NoteNumber":74,"Velocity":69,"Duration":76142,"SoundDuration":76142,"Delta":504210268},{"NoteNumber":78,"Velocity":69,"Duration":76142,"SoundDuration":76142,"Delta":504210268},{"NoteNumber":83,"Velocity":69,"Duration":76142,"SoundDuration":76142,"Delta":504210268},{"NoteNumber":86,"Velocity":84,"Duration":76142,"SoundDuration":76142,"Delta":504210268},{"NoteNumber":35,"Velocity":52,"Duration":76142,"SoundDuration":76142,"Delta":504210268},{"NoteNumber":47,"Velocity":63,"Duration":76142,"SoundDuration":76142,"Delta":504210268},{"NoteNumber":74,"Velocity":76,"Duration":76142,"SoundDuration":76142,"Delta":504362553},{"NoteNumber":78,"Velocity":76,"Duration":76142,"SoundDuration":76142,"Delta":504362553},{"NoteNumber":83,"Velocity":76,"Duration":76142,"SoundDuration":76142,"Delta":504362553},{"NoteNumber":86,"Velocity":90,"Duration":76142,"SoundDuration":76142,"Delta":504362553},{"NoteNumber":35,"Velocity":58,"Duration":76142,"SoundDuration":76142,"Delta":504362553},{"NoteNumber":47,"Velocity":69,"Duration":76142,"SoundDuration":76142,"Delta":504362553},{"NoteNumber":74,"Velocity":69,"Duration":85469,"SoundDuration":85469,"Delta":504514837},{"NoteNumber":78,"Velocity":69,"Duration":85469,"SoundDuration":85469,"Delta":504514837},{"NoteNumber":83,"Velocity":69,"Duration":85469,"SoundDuration":85469,"Delta":504514837},{"NoteNumber":86,"Velocity":82,"Duration":85469,"SoundDuration":85469,"Delta":504514837},{"NoteNumber":35,"Velocity":52,"Duration":85469,"SoundDuration":85469,"Delta":504514837},{"NoteNumber":47,"Velocity":63,"Duration":85469,"SoundDuration":85469,"Delta":504514837},{"NoteNumber":74,"Velocity":85,"Duration":315788,"SoundDuration":315788,"Delta":504685777},{"NoteNumber":78,"Velocity":85,"Duration":315788,"SoundDuration":315788,"Delta":504685777},{"NoteNumber":83,"Velocity":85,"Duration":315788,"SoundDuration":315788,"Delta":504685777},{"NoteNumber":86,"Velocity":99,"Duration":315788,"SoundDuration":315788,"Delta":504685777},{"NoteNumber":35,"Velocity":64,"Duration":315788,"SoundDuration":315788,"Delta":504685777},{"NoteNumber":47,"Velocity":75,"Duration":315788,"SoundDuration":315788,"Delta":504685777},{"NoteNumber":71,"Velocity":72,"Duration":167597,"SoundDuration":167597,"Delta":505001566},{"NoteNumber":78,"Velocity":72,"Duration":167597,"SoundDuration":167597,"Delta":505001566},{"NoteNumber":83,"Velocity":86,"Duration":167597,"SoundDuration":167597,"Delta":505001566},{"NoteNumber":38,"Velocity":58,"Duration":167597,"SoundDuration":167597,"Delta":505001566},{"NoteNumber":50,"Velocity":71,"Duration":167597,"SoundDuration":167597,"Delta":505001566},{"NoteNumber":69,"Velocity":74,"Duration":86705,"SoundDuration":86705,"Delta":505336762},{"NoteNumber":74,"Velocity":74,"Duration":86705,"SoundDuration":86705,"Delta":505336762},{"NoteNumber":78,"Velocity":74,"Duration":86705,"SoundDuration":86705,"Delta":505336762},{"NoteNumber":81,"Velocity":87,"Duration":86705,"SoundDuration":86705,"Delta":505336762},{"NoteNumber":38,"Velocity":56,"Duration":86705,"SoundDuration":86705,"Delta":505336762},{"NoteNumber":50,"Velocity":66,"Duration":86705,"SoundDuration":86705,"Delta":505336762},{"NoteNumber":69,"Velocity":63,"Duration":91185,"SoundDuration":91185,"Delta":505683583},{"NoteNumber":74,"Velocity":63,"Duration":91185,"SoundDuration":91185,"Delta":505683583},{"NoteNumber":78,"Velocity":75,"Duration":91185,"SoundDuration":91185,"Delta":505683583},{"NoteNumber":42,"Velocity":51,"Duration":91185,"SoundDuration":91185,"Delta":505683583},{"NoteNumber":54,"Velocity":62,"Duration":91185,"SoundDuration":91185,"Delta":505683583},{"NoteNumber":69,"Velocity":74,"Duration":670391,"SoundDuration":670391,"Delta":506048325},{"NoteNumber":73,"Velocity":74,"Duration":670391,"SoundDuration":670391,"Delta":506048325},{"NoteNumber":76,"Velocity":87,"Duration":670391,"SoundDuration":670391,"Delta":506048325},{"NoteNumber":45,"Velocity":56,"Duration":670391,"SoundDuration":670391,"Delta":506048325},{"NoteNumber":57,"Velocity":66,"Duration":670391,"SoundDuration":670391,"Delta":506048325},{"NoteNumber":65,"Velocity":69,"Duration":76142,"SoundDuration":76142,"Delta":506718717},{"NoteNumber":77,"Velocity":90,"Duration":76142,"SoundDuration":76142,"Delta":506718717},{"NoteNumber":41,"Velocity":58,"Duration":76142,"SoundDuration":76142,"Delta":506718717},{"NoteNumber":53,"Velocity":69,"Duration":76142,"SoundDuration":76142,"Delta":506718717},{"NoteNumber":65,"Velocity":69,"Duration":76142,"SoundDuration":76142,"Delta":506871002},{"NoteNumber":77,"Velocity":84,"Duration":76142,"SoundDuration":76142,"Delta":506871002},{"NoteNumber":41,"Velocity":52,"Duration":76142,"SoundDuration":76142,"Delta":506871002},{"NoteNumber":53,"Velocity":63,"Duration":76142,"SoundDuration":76142,"Delta":506871002},{"NoteNumber":65,"Velocity":76,"Duration":76142,"SoundDuration":76142,"Delta":507023286},{"NoteNumber":77,"Velocity":90,"Duration":76142,"SoundDuration":76142,"Delta":507023286},{"NoteNumber":41,"Velocity":58,"Duration":76142,"SoundDuration":76142,"Delta":507023286},{"NoteNumber":53,"Velocity":69,"Duration":76142,"SoundDuration":76142,"Delta":507023286},{"NoteNumber":65,"Velocity":69,"Duration":85469,"SoundDuration":85469,"Delta":507175571},{"NoteNumber":77,"Velocity":82,"Duration":85469,"SoundDuration":85469,"Delta":507175571},{"NoteNumber":41,"Velocity":52,"Duration":85469,"SoundDuration":85469,"Delta":507175571},{"NoteNumber":53,"Velocity":63,"Duration":85469,"SoundDuration":85469,"Delta":507175571},{"NoteNumber":69,"Velocity":85,"Duration":483386,"SoundDuration":483386,"Delta":507346511},{"NoteNumber":78,"Velocity":85,"Duration":315788,"SoundDuration":315788,"Delta":507346511},{"NoteNumber":81,"Velocity":99,"Duration":315788,"SoundDuration":315788,"Delta":507346511},{"NoteNumber":45,"Velocity":64,"Duration":650984,"SoundDuration":650984,"Delta":507346511},{"NoteNumber":54,"Velocity":64,"Duration":650984,"SoundDuration":650984,"Delta":507346511},{"NoteNumber":57,"Velocity":75,"Duration":650984,"SoundDuration":650984,"Delta":507346511},{"NoteNumber":74,"Velocity":72,"Duration":167597,"SoundDuration":167597,"Delta":507662300},{"NoteNumber":78,"Velocity":86,"Duration":167597,"SoundDuration":167597,"Delta":507662300},{"NoteNumber":69,"Velocity":74,"Duration":86705,"SoundDuration":86705,"Delta":507997496},{"NoteNumber":74,"Velocity":74,"Duration":86705,"SoundDuration":86705,"Delta":507997496},{"NoteNumber":78,"Velocity":87,"Duration":86705,"SoundDuration":86705,"Delta":507997496},{"NoteNumber":62,"Velocity":56,"Duration":86705,"SoundDuration":86705,"Delta":507997496},{"NoteNumber":57,"Velocity":56,"Duration":86705,"SoundDuration":86705,"Delta":507997496},{"NoteNumber":66,"Velocity":66,"Duration":86705,"SoundDuration":86705,"Delta":507997496},{"NoteNumber":69,"Velocity":63,"Duration":91185,"SoundDuration":91185,"Delta":508344317},{"NoteNumber":73,"Velocity":63,"Duration":91185,"SoundDuration":91185,"Delta":508344317},{"NoteNumber":76,"Velocity":75,"Duration":91185,"SoundDuration":91185,"Delta":508344317},{"NoteNumber":61,"Velocity":51,"Duration":91185,"SoundDuration":91185,"Delta":508344317},{"NoteNumber":57,"Velocity":51,"Duration":91185,"SoundDuration":91185,"Delta":508344317},{"NoteNumber":64,"Velocity":62,"Duration":91185,"SoundDuration":91185,"Delta":508344317},{"NoteNumber":66,"Velocity":74,"Duration":335195,"SoundDuration":335195,"Delta":508709059},{"NoteNumber":69,"Velocity":74,"Duration":335195,"SoundDuration":335195,"Delta":508709059},{"NoteNumber":74,"Velocity":87,"Duration":335195,"SoundDuration":335195,"Delta":508709059},{"NoteNumber":50,"Velocity":56,"Duration":335195,"SoundDuration":335195,"Delta":508709059},{"NoteNumber":54,"Velocity":56,"Duration":335195,"SoundDuration":335195,"Delta":508709059},{"NoteNumber":57,"Velocity":56,"Duration":335195,"SoundDuration":335195,"Delta":508709059},{"NoteNumber":62,"Velocity":66,"Duration":335195,"SoundDuration":335195,"Delta":508709059},{"NoteNumber":65,"Velocity":69,"Duration":487480,"SoundDuration":487480,"Delta":509044255},{"NoteNumber":77,"Velocity":90,"Duration":487480,"SoundDuration":487480,"Delta":509044255},{"NoteNumber":41,"Velocity":58,"Duration":487480,"SoundDuration":487480,"Delta":509044255},{"NoteNumber":53,"Velocity":69,"Duration":487480,"SoundDuration":487480,"Delta":509044255},{"NoteNumber":65,"Velocity":69,"Duration":76142,"SoundDuration":76142,"Delta":509531735},{"NoteNumber":77,"Velocity":84,"Duration":76142,"SoundDuration":76142,"Delta":509531735},{"NoteNumber":41,"Velocity":52,"Duration":76142,"SoundDuration":76142,"Delta":509531735},{"NoteNumber":53,"Velocity":63,"Duration":76142,"SoundDuration":76142,"Delta":509531735},{"NoteNumber":65,"Velocity":76,"Duration":76142,"SoundDuration":76142,"Delta":509684020},{"NoteNumber":77,"Velocity":90,"Duration":76142,"SoundDuration":76142,"Delta":509684020},{"NoteNumber":41,"Velocity":58,"Duration":76142,"SoundDuration":76142,"Delta":509684020},{"NoteNumber":53,"Velocity":69,"Duration":76142,"SoundDuration":76142,"Delta":509684020},{"NoteNumber":65,"Velocity":69,"Duration":85469,"SoundDuration":85469,"Delta":509836304},{"NoteNumber":77,"Velocity":82,"Duration":85469,"SoundDuration":85469,"Delta":509836304},{"NoteNumber":41,"Velocity":52,"Duration":85469,"SoundDuration":85469,"Delta":509836304},{"NoteNumber":53,"Velocity":63,"Duration":85469,"SoundDuration":85469,"Delta":509836304},{"NoteNumber":69,"Velocity":85,"Duration":483386,"SoundDuration":483386,"Delta":510007244},{"NoteNumber":78,"Velocity":85,"Duration":315788,"SoundDuration":315788,"Delta":510007244},{"NoteNumber":81,"Velocity":99,"Duration":315788,"SoundDuration":315788,"Delta":510007244},{"NoteNumber":45,"Velocity":64,"Duration":650984,"SoundDuration":650984,"Delta":510007244},{"NoteNumber":54,"Velocity":64,"Duration":650984,"SoundDuration":650984,"Delta":510007244},{"NoteNumber":57,"Velocity":75,"Duration":650984,"SoundDuration":650984,"Delta":510007244},{"NoteNumber":74,"Velocity":72,"Duration":167597,"SoundDuration":167597,"Delta":510323033},{"NoteNumber":78,"Velocity":86,"Duration":167597,"SoundDuration":167597,"Delta":510323033},{"NoteNumber":69,"Velocity":74,"Duration":86705,"SoundDuration":86705,"Delta":510658229},{"NoteNumber":74,"Velocity":74,"Duration":86705,"SoundDuration":86705,"Delta":510658229},{"NoteNumber":78,"Velocity":87,"Duration":86705,"SoundDuration":86705,"Delta":510658229},{"NoteNumber":62,"Velocity":56,"Duration":86705,"SoundDuration":86705,"Delta":510658229},{"NoteNumber":57,"Velocity":56,"Duration":86705,"SoundDuration":86705,"Delta":510658229},{"NoteNumber":66,"Velocity":66,"Duration":86705,"SoundDuration":86705,"Delta":510658229},{"NoteNumber":69,"Velocity":63,"Duration":91185,"SoundDuration":91185,"Delta":511005050},{"NoteNumber":73,"Velocity":63,"Duration":91185,"SoundDuration":91185,"Delta":511005050},{"NoteNumber":76,"Velocity":75,"Duration":91185,"SoundDuration":91185,"Delta":511005050},{"NoteNumber":61,"Velocity":51,"Duration":91185,"SoundDuration":91185,"Delta":511005050},{"NoteNumber":57,"Velocity":51,"Duration":91185,"SoundDuration":91185,"Delta":511005050},{"NoteNumber":64,"Velocity":62,"Duration":91185,"SoundDuration":91185,"Delta":511005050},{"NoteNumber":66,"Velocity":74,"Duration":335195,"SoundDuration":335195,"Delta":511369792},{"NoteNumber":69,"Velocity":74,"Duration":335195,"SoundDuration":335195,"Delta":511369792},{"NoteNumber":74,"Velocity":87,"Duration":335195,"SoundDuration":335195,"Delta":511369792},{"NoteNumber":50,"Velocity":56,"Duration":335195,"SoundDuration":335195,"Delta":511369792},{"NoteNumber":54,"Velocity":56,"Duration":335195,"SoundDuration":335195,"Delta":511369792},{"NoteNumber":57,"Velocity":56,"Duration":335195,"SoundDuration":335195,"Delta":511369792},{"NoteNumber":62,"Velocity":66,"Duration":335195,"SoundDuration":335195,"Delta":511369792},{"NoteNumber":80,"Velocity":75,"Duration":487480,"SoundDuration":487480,"Delta":511704988},{"NoteNumber":86,"Velocity":75,"Duration":487480,"SoundDuration":487480,"Delta":511704988},{"NoteNumber":89,"Velocity":98,"Duration":487480,"SoundDuration":487480,"Delta":511704988},{"NoteNumber":34,"Velocity":58,"Duration":487480,"SoundDuration":487480,"Delta":511704988},{"NoteNumber":46,"Velocity":69,"Duration":487480,"SoundDuration":487480,"Delta":511704988},{"NoteNumber":80,"Velocity":75,"Duration":76142,"SoundDuration":76142,"Delta":512192469},{"NoteNumber":86,"Velocity":75,"Duration":76142,"SoundDuration":76142,"Delta":512192469},{"NoteNumber":89,"Velocity":92,"Duration":76142,"SoundDuration":76142,"Delta":512192469},{"NoteNumber":34,"Velocity":52,"Duration":76142,"SoundDuration":76142,"Delta":512192469},{"NoteNumber":46,"Velocity":63,"Duration":76142,"SoundDuration":76142,"Delta":512192469},{"NoteNumber":80,"Velocity":83,"Duration":76142,"SoundDuration":76142,"Delta":512344753},{"NoteNumber":86,"Velocity":83,"Duration":76142,"SoundDuration":76142,"Delta":512344753},{"NoteNumber":89,"Velocity":98,"Duration":76142,"SoundDuration":76142,"Delta":512344753},{"NoteNumber":34,"Velocity":58,"Duration":76142,"SoundDuration":76142,"Delta":512344753},{"NoteNumber":46,"Velocity":69,"Duration":76142,"SoundDuration":76142,"Delta":512344753},{"NoteNumber":80,"Velocity":75,"Duration":85469,"SoundDuration":85469,"Delta":512497038},{"NoteNumber":86,"Velocity":75,"Duration":85469,"SoundDuration":85469,"Delta":512497038},{"NoteNumber":89,"Velocity":90,"Duration":85469,"SoundDuration":85469,"Delta":512497038},{"NoteNumber":34,"Velocity":52,"Duration":85469,"SoundDuration":85469,"Delta":512497038},{"NoteNumber":46,"Velocity":63,"Duration":85469,"SoundDuration":85469,"Delta":512497038},{"NoteNumber":81,"Velocity":93,"Duration":483386,"SoundDuration":483386,"Delta":512667978},{"NoteNumber":90,"Velocity":93,"Duration":315788,"SoundDuration":315788,"Delta":512667978},{"NoteNumber":93,"Velocity":109,"Duration":315788,"SoundDuration":315788,"Delta":512667978},{"NoteNumber":45,"Velocity":64,"Duration":650984,"SoundDuration":650984,"Delta":512667978},{"NoteNumber":54,"Velocity":64,"Duration":650984,"SoundDuration":650984,"Delta":512667978},{"NoteNumber":57,"Velocity":75,"Duration":650984,"SoundDuration":650984,"Delta":512667978},{"NoteNumber":86,"Velocity":79,"Duration":167597,"SoundDuration":167597,"Delta":512983767},{"NoteNumber":90,"Velocity":94,"Duration":167597,"SoundDuration":167597,"Delta":512983767},{"NoteNumber":81,"Velocity":81,"Duration":86705,"SoundDuration":86705,"Delta":513318963},{"NoteNumber":86,"Velocity":81,"Duration":86705,"SoundDuration":86705,"Delta":513318963},{"NoteNumber":90,"Velocity":95,"Duration":86705,"SoundDuration":86705,"Delta":513318963},{"NoteNumber":62,"Velocity":56,"Duration":86705,"SoundDuration":86705,"Delta":513318963},{"NoteNumber":57,"Velocity":56,"Duration":86705,"SoundDuration":86705,"Delta":513318963},{"NoteNumber":66,"Velocity":66,"Duration":86705,"SoundDuration":86705,"Delta":513318963},{"NoteNumber":81,"Velocity":69,"Duration":91185,"SoundDuration":91185,"Delta":513665784},{"NoteNumber":85,"Velocity":69,"Duration":91185,"SoundDuration":91185,"Delta":513665784},{"NoteNumber":88,"Velocity":82,"Duration":91185,"SoundDuration":91185,"Delta":513665784},{"NoteNumber":61,"Velocity":51,"Duration":91185,"SoundDuration":91185,"Delta":513665784},{"NoteNumber":57,"Velocity":51,"Duration":91185,"SoundDuration":91185,"Delta":513665784},{"NoteNumber":64,"Velocity":62,"Duration":91185,"SoundDuration":91185,"Delta":513665784},{"NoteNumber":93,"Velocity":69,"Duration":101265,"SoundDuration":101265,"Delta":514030526},{"NoteNumber":57,"Velocity":67,"Duration":460047,"SoundDuration":460047,"Delta":514030526},{"NoteNumber":66,"Velocity":73,"Duration":303797,"SoundDuration":303797,"Delta":514030526},{"NoteNumber":69,"Velocity":88,"Duration":303797,"SoundDuration":303797,"Delta":514030526},{"NoteNumber":90,"Velocity":61,"Duration":101265,"SoundDuration":101265,"Delta":514131791},{"NoteNumber":81,"Velocity":61,"Duration":101265,"SoundDuration":101265,"Delta":514233057},{"NoteNumber":86,"Velocity":69,"Duration":104166,"SoundDuration":104166,"Delta":514334323},{"NoteNumber":62,"Velocity":57,"Duration":156250,"SoundDuration":156250,"Delta":514334323},{"NoteNumber":66,"Velocity":68,"Duration":156250,"SoundDuration":156250,"Delta":514334323},{"NoteNumber":90,"Velocity":62,"Duration":104166,"SoundDuration":104166,"Delta":514438489},{"NoteNumber":95,"Velocity":62,"Duration":104166,"SoundDuration":104166,"Delta":514542656},{"NoteNumber":93,"Velocity":69,"Duration":102040,"SoundDuration":102040,"Delta":514646823},{"NoteNumber":57,"Velocity":62,"Duration":76530,"SoundDuration":76530,"Delta":514646823},{"NoteNumber":62,"Velocity":62,"Duration":76530,"SoundDuration":76530,"Delta":514646823},{"NoteNumber":66,"Velocity":73,"Duration":76530,"SoundDuration":76530,"Delta":514646823},{"NoteNumber":90,"Velocity":62,"Duration":102040,"SoundDuration":102040,"Delta":514748863},{"NoteNumber":81,"Velocity":62,"Duration":102040,"SoundDuration":102040,"Delta":514850904},{"NoteNumber":88,"Velocity":69,"Duration":106100,"SoundDuration":106100,"Delta":514952945},{"NoteNumber":57,"Velocity":54,"Duration":79575,"SoundDuration":79575,"Delta":514952945},{"NoteNumber":61,"Velocity":54,"Duration":79575,"SoundDuration":79575,"Delta":514952945},{"NoteNumber":64,"Velocity":63,"Duration":79575,"SoundDuration":79575,"Delta":514952945},{"NoteNumber":85,"Velocity":62,"Duration":106100,"SoundDuration":106100,"Delta":515059045},{"NoteNumber":81,"Velocity":62,"Duration":106100,"SoundDuration":106100,"Delta":515165146},{"NoteNumber":93,"Velocity":69,"Duration":99010,"SoundDuration":99010,"Delta":515271247},{"NoteNumber":57,"Velocity":67,"Duration":452873,"SoundDuration":452873,"Delta":515271247},{"NoteNumber":66,"Velocity":73,"Duration":297029,"SoundDuration":297029,"Delta":515271247},{"NoteNumber":69,"Velocity":88,"Duration":297029,"SoundDuration":297029,"Delta":515271247},{"NoteNumber":90,"Velocity":61,"Duration":99010,"SoundDuration":99010,"Delta":515370257},{"NoteNumber":81,"Velocity":61,"Duration":99009,"SoundDuration":99009,"Delta":515469267},{"NoteNumber":86,"Velocity":69,"Duration":103895,"SoundDuration":103895,"Delta":515568277},{"NoteNumber":62,"Velocity":57,"Duration":155844,"SoundDuration":155844,"Delta":515568277},{"NoteNumber":66,"Velocity":68,"Duration":155844,"SoundDuration":155844,"Delta":515568277},{"NoteNumber":90,"Velocity":62,"Duration":103896,"SoundDuration":103896,"Delta":515672173},{"NoteNumber":95,"Velocity":62,"Duration":103895,"SoundDuration":103895,"Delta":515776069},{"NoteNumber":93,"Velocity":69,"Duration":101265,"SoundDuration":101265,"Delta":515879965},{"NoteNumber":57,"Velocity":62,"Duration":75949,"SoundDuration":75949,"Delta":515879965},{"NoteNumber":62,"Velocity":62,"Duration":75949,"SoundDuration":75949,"Delta":515879965},{"NoteNumber":66,"Velocity":73,"Duration":75949,"SoundDuration":75949,"Delta":515879965},{"NoteNumber":90,"Velocity":62,"Duration":101265,"SoundDuration":101265,"Delta":515981230},{"NoteNumber":81,"Velocity":62,"Duration":101265,"SoundDuration":101265,"Delta":516082496},{"NoteNumber":88,"Velocity":69,"Duration":105541,"SoundDuration":105541,"Delta":516183762},{"NoteNumber":57,"Velocity":54,"Duration":79155,"SoundDuration":79155,"Delta":516183762},{"NoteNumber":61,"Velocity":54,"Duration":79155,"SoundDuration":79155,"Delta":516183762},{"NoteNumber":64,"Velocity":63,"Duration":79155,"SoundDuration":79155,"Delta":516183762},{"NoteNumber":85,"Velocity":62,"Duration":105541,"SoundDuration":105541,"Delta":516289303},{"NoteNumber":81,"Velocity":62,"Duration":105541,"SoundDuration":105541,"Delta":516394844},{"NoteNumber":93,"Velocity":69,"Duration":99010,"SoundDuration":99010,"Delta":516500385},{"NoteNumber":57,"Velocity":67,"Duration":452470,"SoundDuration":452470,"Delta":516500385},{"NoteNumber":66,"Velocity":73,"Duration":297029,"SoundDuration":297029,"Delta":516500385},{"NoteNumber":69,"Velocity":88,"Duration":297029,"SoundDuration":297029,"Delta":516500385},{"NoteNumber":81,"Velocity":61,"Duration":99010,"SoundDuration":99010,"Delta":516599395},{"NoteNumber":86,"Velocity":61,"Duration":99009,"SoundDuration":99009,"Delta":516698405},{"NoteNumber":90,"Velocity":69,"Duration":103626,"SoundDuration":103626,"Delta":516797415},{"NoteNumber":62,"Velocity":57,"Duration":155440,"SoundDuration":155440,"Delta":516797415},{"NoteNumber":66,"Velocity":68,"Duration":155440,"SoundDuration":155440,"Delta":516797415},{"NoteNumber":93,"Velocity":62,"Duration":103627,"SoundDuration":103627,"Delta":516901042},{"NoteNumber":98,"Velocity":62,"Duration":103626,"SoundDuration":103626,"Delta":517004669},{"NoteNumber":93,"Velocity":69,"Duration":100755,"SoundDuration":100755,"Delta":517108296},{"NoteNumber":57,"Velocity":62,"Duration":75566,"SoundDuration":75566,"Delta":517108296},{"NoteNumber":62,"Velocity":62,"Duration":75566,"SoundDuration":75566,"Delta":517108296},{"NoteNumber":66,"Velocity":73,"Duration":75566,"SoundDuration":75566,"Delta":517108296},{"NoteNumber":90,"Velocity":62,"Duration":100755,"SoundDuration":100755,"Delta":517209051},{"NoteNumber":95,"Velocity":62,"Duration":100755,"SoundDuration":100755,"Delta":517309807},{"NoteNumber":93,"Velocity":69,"Duration":109289,"SoundDuration":109289,"Delta":517410563},{"NoteNumber":57,"Velocity":54,"Duration":81967,"SoundDuration":81967,"Delta":517410563},{"NoteNumber":61,"Velocity":54,"Duration":81967,"SoundDuration":81967,"Delta":517410563},{"NoteNumber":64,"Velocity":63,"Duration":81967,"SoundDuration":81967,"Delta":517410563},{"NoteNumber":91,"Velocity":62,"Duration":109289,"SoundDuration":109289,"Delta":517519852},{"NoteNumber":88,"Velocity":62,"Duration":109289,"SoundDuration":109289,"Delta":517629142},{"NoteNumber":86,"Velocity":93,"Duration":76726,"SoundDuration":76726,"Delta":517738432},{"NoteNumber":50,"Velocity":71,"Duration":76726,"SoundDuration":76726,"Delta":517738432},{"NoteNumber":54,"Velocity":71,"Duration":76726,"SoundDuration":76726,"Delta":517738432},{"NoteNumber":62,"Velocity":83,"Duration":76726,"SoundDuration":76726,"Delta":517738432},{"NoteNumber":52,"Velocity":50,"Duration":102301,"SoundDuration":102301,"Delta":517943035},{"NoteNumber":40,"Velocity":42,"Duration":102301,"SoundDuration":102301,"Delta":517943035},{"NoteNumber":54,"Velocity":54,"Duration":100502,"SoundDuration":100502,"Delta":518045337},{"NoteNumber":42,"Velocity":46,"Duration":100502,"SoundDuration":100502,"Delta":518045337},{"NoteNumber":52,"Velocity":50,"Duration":100502,"SoundDuration":100502,"Delta":518145839},{"NoteNumber":40,"Velocity":42,"Duration":100502,"SoundDuration":100502,"Delta":518145839},{"NoteNumber":50,"Velocity":51,"Duration":100502,"SoundDuration":100502,"Delta":518246342},{"NoteNumber":38,"Velocity":43,"Duration":100502,"SoundDuration":100502,"Delta":518246342},{"NoteNumber":55,"Velocity":57,"Duration":100031,"SoundDuration":100031,"Delta":518346845},{"NoteNumber":43,"Velocity":48,"Duration":100031,"SoundDuration":100031,"Delta":518346845},{"NoteNumber":54,"Velocity":53,"Duration":99786,"SoundDuration":99786,"Delta":518446876},{"NoteNumber":42,"Velocity":44,"Duration":99786,"SoundDuration":99786,"Delta":518446876},{"NoteNumber":52,"Velocity":53,"Duration":99527,"SoundDuration":99527,"Delta":518546663},{"NoteNumber":40,"Velocity":45,"Duration":99527,"SoundDuration":99527,"Delta":518546663},{"NoteNumber":57,"Velocity":59,"Duration":99271,"SoundDuration":99271,"Delta":518646190},{"NoteNumber":45,"Velocity":50,"Duration":99271,"SoundDuration":99271,"Delta":518646190},{"NoteNumber":55,"Velocity":55,"Duration":99011,"SoundDuration":99011,"Delta":518745461},{"NoteNumber":43,"Velocity":46,"Duration":99011,"SoundDuration":99011,"Delta":518745461},{"NoteNumber":54,"Velocity":56,"Duration":98751,"SoundDuration":98751,"Delta":518844472},{"NoteNumber":42,"Velocity":46,"Duration":98751,"SoundDuration":98751,"Delta":518844472},{"NoteNumber":59,"Velocity":61,"Duration":98425,"SoundDuration":98425,"Delta":518943224},{"NoteNumber":47,"Velocity":52,"Duration":98425,"SoundDuration":98425,"Delta":518943224},{"NoteNumber":57,"Velocity":57,"Duration":98425,"SoundDuration":98425,"Delta":519041649},{"NoteNumber":45,"Velocity":48,"Duration":98425,"SoundDuration":98425,"Delta":519041649},{"NoteNumber":55,"Velocity":58,"Duration":98425,"SoundDuration":98425,"Delta":519140075},{"NoteNumber":43,"Velocity":48,"Duration":98425,"SoundDuration":98425,"Delta":519140075},{"NoteNumber":61,"Velocity":65,"Duration":98425,"SoundDuration":98425,"Delta":519238500},{"NoteNumber":49,"Velocity":55,"Duration":98425,"SoundDuration":98425,"Delta":519238500},{"NoteNumber":59,"Velocity":60,"Duration":98425,"SoundDuration":98425,"Delta":519336925},{"NoteNumber":47,"Velocity":51,"Duration":98425,"SoundDuration":98425,"Delta":519336925},{"NoteNumber":57,"Velocity":62,"Duration":98425,"SoundDuration":98425,"Delta":519435351},{"NoteNumber":45,"Velocity":52,"Duration":98425,"SoundDuration":98425,"Delta":519435351},{"NoteNumber":62,"Velocity":69,"Duration":97704,"SoundDuration":97704,"Delta":519533776},{"NoteNumber":50,"Velocity":58,"Duration":97704,"SoundDuration":97704,"Delta":519533776},{"NoteNumber":61,"Velocity":65,"Duration":97704,"SoundDuration":97704,"Delta":519631480},{"NoteNumber":49,"Velocity":53,"Duration":97704,"SoundDuration":97704,"Delta":519631480},{"NoteNumber":59,"Velocity":65,"Duration":97703,"SoundDuration":97703,"Delta":519729184},{"NoteNumber":47,"Velocity":55,"Duration":97703,"SoundDuration":97703,"Delta":519729184},{"NoteNumber":64,"Velocity":73,"Duration":97704,"SoundDuration":97704,"Delta":519826888},{"NoteNumber":52,"Velocity":62,"Duration":97704,"SoundDuration":97704,"Delta":519826888},{"NoteNumber":62,"Velocity":68,"Duration":97704,"SoundDuration":97704,"Delta":519924592},{"NoteNumber":50,"Velocity":56,"Duration":97704,"SoundDuration":97704,"Delta":519924592},{"NoteNumber":61,"Velocity":68,"Duration":117508,"SoundDuration":117508,"Delta":520022296},{"NoteNumber":49,"Velocity":57,"Duration":117508,"SoundDuration":117508,"Delta":520022296},{"NoteNumber":58,"Velocity":86,"Duration":589102,"SoundDuration":589102,"Delta":520139805},{"NoteNumber":61,"Velocity":86,"Duration":589102,"SoundDuration":589102,"Delta":520139805},{"NoteNumber":66,"Velocity":86,"Duration":589102,"SoundDuration":589102,"Delta":520139805},{"NoteNumber":42,"Velocity":73,"Duration":589102,"SoundDuration":589102,"Delta":520139805},{"NoteNumber":54,"Velocity":73,"Duration":589102,"SoundDuration":589102,"Delta":520139805},{"NoteNumber":67,"Velocity":94,"Duration":589102,"SoundDuration":589102,"Delta":521318009},{"NoteNumber":69,"Velocity":94,"Duration":589102,"SoundDuration":589102,"Delta":521318009},{"NoteNumber":73,"Velocity":94,"Duration":589102,"SoundDuration":589102,"Delta":521318009},{"NoteNumber":76,"Velocity":94,"Duration":589102,"SoundDuration":589102,"Delta":521318009},{"NoteNumber":81,"Velocity":94,"Duration":589102,"SoundDuration":589102,"Delta":521318009},{"NoteNumber":33,"Velocity":80,"Duration":589102,"SoundDuration":589102,"Delta":521318009},{"NoteNumber":45,"Velocity":80,"Duration":589102,"SoundDuration":589102,"Delta":521318009},{"NoteNumber":54,"Velocity":73,"Duration":614753,"SoundDuration":614753,"Delta":522496213},{"NoteNumber":57,"Velocity":73,"Duration":614753,"SoundDuration":614753,"Delta":522496213},{"NoteNumber":62,"Velocity":86,"Duration":614753,"SoundDuration":614753,"Delta":522496213},{"NoteNumber":38,"Velocity":68,"Duration":461065,"SoundDuration":461065,"Delta":522496213},{"NoteNumber":50,"Velocity":80,"Duration":461065,"SoundDuration":461065,"Delta":522496213},{"NoteNumber":38,"Velocity":72,"Duration":153688,"SoundDuration":153688,"Delta":522957278},{"NoteNumber":54,"Velocity":70,"Duration":323101,"SoundDuration":323101,"Delta":523110967},{"NoteNumber":57,"Velocity":70,"Duration":323101,"SoundDuration":323101,"Delta":523110967},{"NoteNumber":62,"Velocity":83,"Duration":323101,"SoundDuration":323101,"Delta":523110967},{"NoteNumber":42,"Velocity":80,"Duration":107700,"SoundDuration":107700,"Delta":523110967},{"NoteNumber":40,"Velocity":73,"Duration":107700,"SoundDuration":107700,"Delta":523218667},{"NoteNumber":38,"Velocity":73,"Duration":107700,"SoundDuration":107700,"Delta":523326368},{"NoteNumber":54,"Velocity":68,"Duration":347423,"SoundDuration":347423,"Delta":523434069},{"NoteNumber":57,"Velocity":68,"Duration":347423,"SoundDuration":347423,"Delta":523434069},{"NoteNumber":62,"Velocity":81,"Duration":347423,"SoundDuration":347423,"Delta":523434069},{"NoteNumber":45,"Velocity":80,"Duration":115807,"SoundDuration":115807,"Delta":523434069},{"NoteNumber":43,"Velocity":73,"Duration":115807,"SoundDuration":115807,"Delta":523549876},{"NoteNumber":42,"Velocity":73,"Duration":115807,"SoundDuration":115807,"Delta":523665684},{"NoteNumber":54,"Velocity":80,"Duration":184957,"SoundDuration":184957,"Delta":523781492},{"NoteNumber":57,"Velocity":80,"Duration":184957,"SoundDuration":184957,"Delta":523781492},{"NoteNumber":62,"Velocity":94,"Duration":184957,"SoundDuration":184957,"Delta":523781492},{"NoteNumber":50,"Velocity":88,"Duration":184957,"SoundDuration":184957,"Delta":523781492},{"NoteNumber":74,"Velocity":91,"Duration":184957,"SoundDuration":184957,"Delta":524521320},{"NoteNumber":78,"Velocity":91,"Duration":184957,"SoundDuration":184957,"Delta":524521320},{"NoteNumber":81,"Velocity":91,"Duration":184957,"SoundDuration":184957,"Delta":524521320},{"NoteNumber":86,"Velocity":108,"Duration":184957,"SoundDuration":184957,"Delta":524521320},{"NoteNumber":50,"Velocity":74,"Duration":184957,"SoundDuration":184957,"Delta":524521320},{"NoteNumber":54,"Velocity":74,"Duration":184957,"SoundDuration":184957,"Delta":524521320},{"NoteNumber":57,"Velocity":74,"Duration":184957,"SoundDuration":184957,"Delta":524521320},{"NoteNumber":62,"Velocity":88,"Duration":184957,"SoundDuration":184957,"Delta":524521320},{"NoteNumber":54,"Velocity":94,"Duration":739827,"SoundDuration":739827,"Delta":525261148},{"NoteNumber":57,"Velocity":94,"Duration":739827,"SoundDuration":739827,"Delta":525261148},{"NoteNumber":62,"Velocity":94,"Duration":739827,"SoundDuration":739827,"Delta":525261148},{"NoteNumber":45,"Velocity":80,"Duration":739827,"SoundDuration":739827,"Delta":525261148},{"NoteNumber":38,"Velocity":80,"Duration":739827,"SoundDuration":739827,"Delta":525261148},{"NoteNumber":50,"Velocity":80,"Duration":739827,"SoundDuration":739827,"Delta":525261148}],"license":{"name":"Creative Commons Attribution-ShareAlike 3.0 Germany","url":"http://creativecommons.org/licenses/by-sa/3.0/de/deed.en","text":"The MIDI, audio (MP3, OGG) and video files of Bernd Krueger are licensed under the cc-by-sa Germany License. This means that you can use and adapt the files, as long as you attribute the copyright holder.\n\nName: Bernd Krueger\nSource: http://www.piano-midi.de\n\nThe distribution or public playback of the files is only allowed under identical license conditions.\n\nThe scores are open source.","attribution":"MIDI files by Bernd Krueger (piano-midi.de)","attributionUrl":"http://www.piano-midi.de"}}