{"title":"Wandererfantasie D760, 2. Satz","artist":"Schubert","durationMs":417900,"midiSha256":"d76c4f8e83796887ff19f3359d8f886265222405052ea502b7822fb90864df42","midiObject":[{"NoteNumber":56,"Velocity":29,"Duration":2108222,"SoundDuration":2108222,"Delta":0},{"NoteNumber":61,"Velocity":29,"Duration":2108222,"SoundDuration":2108222,"Delta":0},{"NoteNumber":64,"Velocity":29,"Duration":2108222,"SoundDuration":2108222,"Delta":0},{"NoteNumber":68,"Velocity":35,"Duration":2108222,"SoundDuration":2108222,"Delta":0},{"NoteNumber":37,"Velocity":20,"Duration":2108222,"SoundDuration":2108222,"Delta":0},{"NoteNumber":40,"Velocity":20,"Duration":2108222,"SoundDuration":2108222,"Delta":0},{"NoteNumber":44,"Velocity":20,"Duration":2108222,"SoundDuration":2108222,"Delta":0},{"NoteNumber":49,"Velocity":26,"Duration":2108222,"SoundDuration":2108222,"Delta":0},{"NoteNumber":56,"Velocity":28,"Duration":1009607,"SoundDuration":1009607,"Delta":2108222},{"NoteNumber":61,"Velocity":28,"Duration":1009607,"SoundDuration":1009607,"Delta":2108222},{"NoteNumber":64,"Velocity":28,"Duration":1009607,"SoundDuration":1009607,"Delta":2108222},{"NoteNumber":68,"Velocity":35,"Duration":1009607,"SoundDuration":1009607,"Delta":2108222},{"NoteNumber":37,"Velocity":22,"Duration":1009607,"SoundDuration":1009607,"Delta":2108222},{"NoteNumber":40,"Velocity":22,"Duration":1009607,"SoundDuration":1009607,"Delta":2108222},{"NoteNumber":44,"Velocity":22,"Duration":1009607,"SoundDuration":1009607,"Delta":2108222},{"NoteNumber":49,"Velocity":26,"Duration":1009607,"SoundDuration":1009607,"Delta":2108222},{"NoteNumber":56,"Velocity":29,"Duration":1180886,"SoundDuration":1180886,"Delta":3128457},{"NoteNumber":64,"Velocity":29,"Duration":1180886,"SoundDuration":1180886,"Delta":3128457},{"NoteNumber":61,"Velocity":29,"Duration":1180886,"SoundDuration":1180886,"Delta":3128457},{"NoteNumber":68,"Velocity":35,"Duration":1180886,"SoundDuration":1180886,"Delta":3128457},{"NoteNumber":37,"Velocity":23,"Duration":1180886,"SoundDuration":1180886,"Delta":3128457},{"NoteNumber":40,"Velocity":23,"Duration":1180886,"SoundDuration":1180886,"Delta":3128457},{"NoteNumber":44,"Velocity":23,"Duration":1180886,"SoundDuration":1180886,"Delta":3128457},{"NoteNumber":49,"Velocity":27,"Duration":1180886,"SoundDuration":1180886,"Delta":3128457},{"NoteNumber":63,"Velocity":37,"Duration":4262241,"SoundDuration":4262241,"Delta":4321774},{"NoteNumber":66,"Velocity":37,"Duration":4262241,"SoundDuration":4262241,"Delta":4321774},{"NoteNumber":56,"Velocity":37,"Duration":1581166,"SoundDuration":1581166,"Delta":4321774},{"NoteNumber":68,"Velocity":44,"Duration":1581166,"SoundDuration":1581166,"Delta":4321774},{"NoteNumber":44,"Velocity":25,"Duration":4262241,"SoundDuration":4262241,"Delta":4321774},{"NoteNumber":48,"Velocity":30,"Duration":4262241,"SoundDuration":4262241,"Delta":4321774},{"NoteNumber":36,"Velocity":25,"Duration":4262241,"SoundDuration":4262241,"Delta":4321774},{"NoteNumber":39,"Velocity":25,"Duration":4262241,"SoundDuration":4262241,"Delta":4321774},{"NoteNumber":57,"Velocity":39,"Duration":527055,"SoundDuration":527055,"Delta":5902940},{"NoteNumber":69,"Velocity":39,"Duration":527055,"SoundDuration":527055,"Delta":5902940},{"NoteNumber":68,"Velocity":39,"Duration":2154019,"SoundDuration":2154019,"Delta":6429995},{"NoteNumber":56,"Velocity":39,"Duration":2154019,"SoundDuration":2154019,"Delta":6429995},{"NoteNumber":64,"Velocity":44,"Duration":2108221,"SoundDuration":2108221,"Delta":8584015},{"NoteNumber":52,"Velocity":37,"Duration":2108221,"SoundDuration":2108221,"Delta":8584015},{"NoteNumber":56,"Velocity":37,"Duration":2108221,"SoundDuration":2108221,"Delta":8584015},{"NoteNumber":61,"Velocity":37,"Duration":2108221,"SoundDuration":2108221,"Delta":8584015},{"NoteNumber":37,"Velocity":27,"Duration":2108221,"SoundDuration":2108221,"Delta":8584015},{"NoteNumber":44,"Velocity":27,"Duration":2108221,"SoundDuration":2108221,"Delta":8584015},{"NoteNumber":49,"Velocity":33,"Duration":2108221,"SoundDuration":2108221,"Delta":8584015},{"NoteNumber":40,"Velocity":27,"Duration":2108221,"SoundDuration":2108221,"Delta":8584015},{"NoteNumber":54,"Velocity":42,"Duration":2238806,"SoundDuration":2238806,"Delta":10692237},{"NoteNumber":57,"Velocity":42,"Duration":2238806,"SoundDuration":2238806,"Delta":10692237},{"NoteNumber":61,"Velocity":42,"Duration":2238806,"SoundDuration":2238806,"Delta":10692237},{"NoteNumber":66,"Velocity":51,"Duration":2238806,"SoundDuration":2238806,"Delta":10692237},{"NoteNumber":33,"Velocity":33,"Duration":2238806,"SoundDuration":2238806,"Delta":10692237},{"NoteNumber":37,"Velocity":33,"Duration":2238806,"SoundDuration":2238806,"Delta":10692237},{"NoteNumber":42,"Velocity":33,"Duration":2238806,"SoundDuration":2238806,"Delta":10692237},{"NoteNumber":45,"Velocity":39,"Duration":2238806,"SoundDuration":2238806,"Delta":10692237},{"NoteNumber":32,"Velocity":29,"Duration":4793274,"SoundDuration":4793274,"Delta":12931043},{"NoteNumber":36,"Velocity":30,"Duration":4702387,"SoundDuration":4702387,"Delta":13021930},{"NoteNumber":39,"Velocity":34,"Duration":4614168,"SoundDuration":4614168,"Delta":13110149},{"NoteNumber":44,"Velocity":36,"Duration":4528503,"SoundDuration":4528503,"Delta":13195814},{"NoteNumber":56,"Velocity":39,"Duration":4445280,"SoundDuration":4445280,"Delta":13279036},{"NoteNumber":60,"Velocity":41,"Duration":4365425,"SoundDuration":4365425,"Delta":13358892},{"NoteNumber":63,"Velocity":46,"Duration":4287630,"SoundDuration":4287630,"Delta":13436687},{"NoteNumber":68,"Velocity":48,"Duration":4162561,"SoundDuration":4162561,"Delta":13512495},{"NoteNumber":56,"Velocity":33,"Duration":2108222,"SoundDuration":2108222,"Delta":17724317},{"NoteNumber":61,"Velocity":33,"Duration":2108222,"SoundDuration":2108222,"Delta":17724317},{"NoteNumber":64,"Velocity":33,"Duration":2108222,"SoundDuration":2108222,"Delta":17724317},{"NoteNumber":68,"Velocity":39,"Duration":2108222,"SoundDuration":2108222,"Delta":17724317},{"NoteNumber":37,"Velocity":24,"Duration":2108222,"SoundDuration":2108222,"Delta":17724317},{"NoteNumber":40,"Velocity":24,"Duration":2108222,"SoundDuration":2108222,"Delta":17724317},{"NoteNumber":44,"Velocity":24,"Duration":2108222,"SoundDuration":2108222,"Delta":17724317},{"NoteNumber":49,"Velocity":29,"Duration":2108222,"SoundDuration":2108222,"Delta":17724317},{"NoteNumber":56,"Velocity":33,"Duration":1017740,"SoundDuration":1017740,"Delta":19832539},{"NoteNumber":61,"Velocity":33,"Duration":1017740,"SoundDuration":1017740,"Delta":19832539},{"NoteNumber":64,"Velocity":33,"Duration":1017740,"SoundDuration":1017740,"Delta":19832539},{"NoteNumber":68,"Velocity":40,"Duration":1017740,"SoundDuration":1017740,"Delta":19832539},{"NoteNumber":37,"Velocity":26,"Duration":1017740,"SoundDuration":1017740,"Delta":19832539},{"NoteNumber":40,"Velocity":26,"Duration":1017740,"SoundDuration":1017740,"Delta":19832539},{"NoteNumber":44,"Velocity":26,"Duration":1017740,"SoundDuration":1017740,"Delta":19832539},{"NoteNumber":49,"Velocity":30,"Duration":1017740,"SoundDuration":1017740,"Delta":19832539},{"NoteNumber":56,"Velocity":36,"Duration":1180886,"SoundDuration":1180886,"Delta":20860993},{"NoteNumber":64,"Velocity":36,"Duration":1180886,"SoundDuration":1180886,"Delta":20860993},{"NoteNumber":61,"Velocity":36,"Duration":1180886,"SoundDuration":1180886,"Delta":20860993},{"NoteNumber":68,"Velocity":44,"Duration":1180886,"SoundDuration":1180886,"Delta":20860993},{"NoteNumber":37,"Velocity":28,"Duration":1180886,"SoundDuration":1180886,"Delta":20860993},{"NoteNumber":40,"Velocity":28,"Duration":1180886,"SoundDuration":1180886,"Delta":20860993},{"NoteNumber":44,"Velocity":28,"Duration":1180886,"SoundDuration":1180886,"Delta":20860993},{"NoteNumber":49,"Velocity":34,"Duration":1180886,"SoundDuration":1180886,"Delta":20860993},{"NoteNumber":65,"Velocity":40,"Duration":2108222,"SoundDuration":2108222,"Delta":22054310},{"NoteNumber":62,"Velocity":40,"Duration":2108222,"SoundDuration":2108222,"Delta":22054310},{"NoteNumber":68,"Velocity":44,"Duration":2108222,"SoundDuration":2108222,"Delta":22054310},{"NoteNumber":71,"Velocity":51,"Duration":2108222,"SoundDuration":2108222,"Delta":22054310},{"NoteNumber":42,"Velocity":33,"Duration":3136676,"SoundDuration":3136676,"Delta":22054310},{"NoteNumber":30,"Velocity":27,"Duration":3136676,"SoundDuration":3136676,"Delta":22054310},{"NoteNumber":61,"Velocity":39,"Duration":1028454,"SoundDuration":1028454,"Delta":24162532},{"NoteNumber":69,"Velocity":39,"Duration":1028454,"SoundDuration":1028454,"Delta":24162532},{"NoteNumber":66,"Velocity":39,"Duration":1028454,"SoundDuration":1028454,"Delta":24162532},{"NoteNumber":54,"Velocity":35,"Duration":1099907,"SoundDuration":1099907,"Delta":25190986},{"NoteNumber":61,"Velocity":35,"Duration":1099907,"SoundDuration":1099907,"Delta":25190986},{"NoteNumber":66,"Velocity":35,"Duration":1099907,"SoundDuration":1099907,"Delta":25190986},{"NoteNumber":33,"Velocity":22,"Duration":1099907,"SoundDuration":1099907,"Delta":25190986},{"NoteNumber":45,"Velocity":27,"Duration":1099907,"SoundDuration":1099907,"Delta":25190986},{"NoteNumber":64,"Velocity":39,"Duration":2108222,"SoundDuration":2108222,"Delta":26290894},{"NoteNumber":56,"Velocity":33,"Duration":2108222,"SoundDuration":2108222,"Delta":26290894},{"NoteNumber":61,"Velocity":33,"Duration":2108222,"SoundDuration":2108222,"Delta":26290894},{"NoteNumber":32,"Velocity":24,"Duration":2108222,"SoundDuration":2108222,"Delta":26290894},{"NoteNumber":44,"Velocity":29,"Duration":2108222,"SoundDuration":2108222,"Delta":26290894},{"NoteNumber":54,"Velocity":34,"Duration":2238806,"SoundDuration":2238806,"Delta":28399116},{"NoteNumber":60,"Velocity":34,"Duration":2238806,"SoundDuration":2238806,"Delta":28399116},{"NoteNumber":63,"Velocity":34,"Duration":2238806,"SoundDuration":2238806,"Delta":28399116},{"NoteNumber":68,"Velocity":40,"Duration":2238806,"SoundDuration":2238806,"Delta":28399116},{"NoteNumber":32,"Velocity":26,"Duration":2238806,"SoundDuration":2238806,"Delta":28399116},{"NoteNumber":44,"Velocity":31,"Duration":2238806,"SoundDuration":2238806,"Delta":28399116},{"NoteNumber":52,"Velocity":30,"Duration":3474205,"SoundDuration":3474205,"Delta":30637922},{"NoteNumber":56,"Velocity":30,"Duration":3474205,"SoundDuration":3474205,"Delta":30637922},{"NoteNumber":61,"Velocity":37,"Duration":2808401,"SoundDuration":2808401,"Delta":30637922},{"NoteNumber":40,"Velocity":25,"Duration":3474205,"SoundDuration":3474205,"Delta":30637922},{"NoteNumber":44,"Velocity":25,"Duration":3474205,"SoundDuration":3474205,"Delta":30637922},{"NoteNumber":49,"Velocity":30,"Duration":3474205,"SoundDuration":3474205,"Delta":30637922},{"NoteNumber":37,"Velocity":25,"Duration":3474205,"SoundDuration":3474205,"Delta":30637922},{"NoteNumber":63,"Velocity":35,"Duration":443869,"SoundDuration":443869,"Delta":33446324},{"NoteNumber":64,"Velocity":36,"Duration":443869,"SoundDuration":443869,"Delta":33890193},{"NoteNumber":66,"Velocity":37,"Duration":459404,"SoundDuration":459404,"Delta":34334062},{"NoteNumber":69,"Velocity":37,"Duration":506008,"SoundDuration":506008,"Delta":34793466},{"NoteNumber":56,"Velocity":29,"Duration":2108221,"SoundDuration":2108221,"Delta":35299475},{"NoteNumber":61,"Velocity":29,"Duration":2108221,"SoundDuration":2108221,"Delta":35299475},{"NoteNumber":64,"Velocity":29,"Duration":2108221,"SoundDuration":2108221,"Delta":35299475},{"NoteNumber":68,"Velocity":35,"Duration":2108221,"SoundDuration":2108221,"Delta":35299475},{"NoteNumber":37,"Velocity":20,"Duration":2108221,"SoundDuration":2108221,"Delta":35299475},{"NoteNumber":40,"Velocity":20,"Duration":2108221,"SoundDuration":2108221,"Delta":35299475},{"NoteNumber":44,"Velocity":20,"Duration":2108221,"SoundDuration":2108221,"Delta":35299475},{"NoteNumber":49,"Velocity":26,"Duration":2108221,"SoundDuration":2108221,"Delta":35299475},{"NoteNumber":56,"Velocity":28,"Duration":1009607,"SoundDuration":1009607,"Delta":37407697},{"NoteNumber":61,"Velocity":28,"Duration":1009607,"SoundDuration":1009607,"Delta":37407697},{"NoteNumber":64,"Velocity":28,"Duration":1009607,"SoundDuration":1009607,"Delta":37407697},{"NoteNumber":68,"Velocity":35,"Duration":1009607,"SoundDuration":1009607,"Delta":37407697},{"NoteNumber":37,"Velocity":22,"Duration":1009607,"SoundDuration":1009607,"Delta":37407697},{"NoteNumber":40,"Velocity":22,"Duration":1009607,"SoundDuration":1009607,"Delta":37407697},{"NoteNumber":44,"Velocity":22,"Duration":1009607,"SoundDuration":1009607,"Delta":37407697},{"NoteNumber":49,"Velocity":26,"Duration":1009607,"SoundDuration":1009607,"Delta":37407697},{"NoteNumber":56,"Velocity":29,"Duration":1180886,"SoundDuration":1180886,"Delta":38427932},{"NoteNumber":64,"Velocity":29,"Duration":1180886,"SoundDuration":1180886,"Delta":38427932},{"NoteNumber":61,"Velocity":29,"Duration":1180886,"SoundDuration":1180886,"Delta":38427932},{"NoteNumber":68,"Velocity":35,"Duration":1180886,"SoundDuration":1180886,"Delta":38427932},{"NoteNumber":37,"Velocity":23,"Duration":1180886,"SoundDuration":1180886,"Delta":38427932},{"NoteNumber":40,"Velocity":23,"Duration":1180886,"SoundDuration":1180886,"Delta":38427932},{"NoteNumber":44,"Velocity":23,"Duration":1180886,"SoundDuration":1180886,"Delta":38427932},{"NoteNumber":49,"Velocity":27,"Duration":1180886,"SoundDuration":1180886,"Delta":38427932},{"NoteNumber":63,"Velocity":37,"Duration":4262241,"SoundDuration":4262241,"Delta":39621249},{"NoteNumber":66,"Velocity":37,"Duration":4262241,"SoundDuration":4262241,"Delta":39621249},{"NoteNumber":56,"Velocity":37,"Duration":1581166,"SoundDuration":1581166,"Delta":39621249},{"NoteNumber":68,"Velocity":44,"Duration":1581166,"SoundDuration":1581166,"Delta":39621249},{"NoteNumber":44,"Velocity":25,"Duration":4262241,"SoundDuration":4262241,"Delta":39621249},{"NoteNumber":48,"Velocity":30,"Duration":4262241,"SoundDuration":4262241,"Delta":39621249},{"NoteNumber":36,"Velocity":25,"Duration":4262241,"SoundDuration":4262241,"Delta":39621249},{"NoteNumber":39,"Velocity":25,"Duration":4262241,"SoundDuration":4262241,"Delta":39621249},{"NoteNumber":57,"Velocity":39,"Duration":527055,"SoundDuration":527055,"Delta":41202415},{"NoteNumber":69,"Velocity":39,"Duration":527055,"SoundDuration":527055,"Delta":41202415},{"NoteNumber":68,"Velocity":39,"Duration":2154019,"SoundDuration":2154019,"Delta":41729471},{"NoteNumber":56,"Velocity":39,"Duration":2154019,"SoundDuration":2154019,"Delta":41729471},{"NoteNumber":64,"Velocity":44,"Duration":2108221,"SoundDuration":2108221,"Delta":43883490},{"NoteNumber":52,"Velocity":37,"Duration":2108221,"SoundDuration":2108221,"Delta":43883490},{"NoteNumber":56,"Velocity":37,"Duration":2108221,"SoundDuration":2108221,"Delta":43883490},{"NoteNumber":61,"Velocity":37,"Duration":2108221,"SoundDuration":2108221,"Delta":43883490},{"NoteNumber":37,"Velocity":27,"Duration":2108221,"SoundDuration":2108221,"Delta":43883490},{"NoteNumber":44,"Velocity":27,"Duration":2108221,"SoundDuration":2108221,"Delta":43883490},{"NoteNumber":49,"Velocity":33,"Duration":2108221,"SoundDuration":2108221,"Delta":43883490},{"NoteNumber":40,"Velocity":27,"Duration":2108221,"SoundDuration":2108221,"Delta":43883490},{"NoteNumber":54,"Velocity":42,"Duration":2238805,"SoundDuration":2238805,"Delta":45991712},{"NoteNumber":57,"Velocity":42,"Duration":2238805,"SoundDuration":2238805,"Delta":45991712},{"NoteNumber":61,"Velocity":42,"Duration":2238805,"SoundDuration":2238805,"Delta":45991712},{"NoteNumber":66,"Velocity":51,"Duration":2238805,"SoundDuration":2238805,"Delta":45991712},{"NoteNumber":33,"Velocity":33,"Duration":2238805,"SoundDuration":2238805,"Delta":45991712},{"NoteNumber":37,"Velocity":33,"Duration":2238805,"SoundDuration":2238805,"Delta":45991712},{"NoteNumber":42,"Velocity":33,"Duration":2238805,"SoundDuration":2238805,"Delta":45991712},{"NoteNumber":45,"Velocity":39,"Duration":2238805,"SoundDuration":2238805,"Delta":45991712},{"NoteNumber":32,"Velocity":29,"Duration":4793274,"SoundDuration":4793274,"Delta":48230518},{"NoteNumber":36,"Velocity":30,"Duration":4702387,"SoundDuration":4702387,"Delta":48321405},{"NoteNumber":39,"Velocity":34,"Duration":4614168,"SoundDuration":4614168,"Delta":48409625},{"NoteNumber":44,"Velocity":36,"Duration":4528503,"SoundDuration":4528503,"Delta":48495289},{"NoteNumber":56,"Velocity":39,"Duration":4445280,"SoundDuration":4445280,"Delta":48578512},{"NoteNumber":60,"Velocity":41,"Duration":4365425,"SoundDuration":4365425,"Delta":48658367},{"NoteNumber":63,"Velocity":46,"Duration":4287630,"SoundDuration":4287630,"Delta":48736162},{"NoteNumber":68,"Velocity":48,"Duration":4162561,"SoundDuration":4162561,"Delta":48811970},{"NoteNumber":56,"Velocity":33,"Duration":2108221,"SoundDuration":2108221,"Delta":53023793},{"NoteNumber":61,"Velocity":33,"Duration":2108221,"SoundDuration":2108221,"Delta":53023793},{"NoteNumber":64,"Velocity":33,"Duration":2108221,"SoundDuration":2108221,"Delta":53023793},{"NoteNumber":68,"Velocity":39,"Duration":2108221,"SoundDuration":2108221,"Delta":53023793},{"NoteNumber":37,"Velocity":24,"Duration":2108221,"SoundDuration":2108221,"Delta":53023793},{"NoteNumber":49,"Velocity":29,"Duration":2108221,"SoundDuration":2108221,"Delta":53023793},{"NoteNumber":59,"Velocity":33,"Duration":973361,"SoundDuration":973361,"Delta":55132015},{"NoteNumber":61,"Velocity":33,"Duration":973361,"SoundDuration":973361,"Delta":55132015},{"NoteNumber":65,"Velocity":33,"Duration":973361,"SoundDuration":973361,"Delta":55132015},{"NoteNumber":68,"Velocity":40,"Duration":973361,"SoundDuration":973361,"Delta":55132015},{"NoteNumber":37,"Velocity":26,"Duration":973361,"SoundDuration":973361,"Delta":55132015},{"NoteNumber":49,"Velocity":30,"Duration":973361,"SoundDuration":973361,"Delta":55132015},{"NoteNumber":59,"Velocity":36,"Duration":1180886,"SoundDuration":1180886,"Delta":56115622},{"NoteNumber":65,"Velocity":36,"Duration":1180886,"SoundDuration":1180886,"Delta":56115622},{"NoteNumber":61,"Velocity":36,"Duration":1180886,"SoundDuration":1180886,"Delta":56115622},{"NoteNumber":68,"Velocity":44,"Duration":1180886,"SoundDuration":1180886,"Delta":56115622},{"NoteNumber":37,"Velocity":28,"Duration":1180886,"SoundDuration":1180886,"Delta":56115622},{"NoteNumber":49,"Velocity":34,"Duration":1180886,"SoundDuration":1180886,"Delta":56115622},{"NoteNumber":61,"Velocity":40,"Duration":3162333,"SoundDuration":3162333,"Delta":57308939},{"NoteNumber":57,"Velocity":40,"Duration":3162333,"SoundDuration":3162333,"Delta":57308939},{"NoteNumber":66,"Velocity":44,"Duration":2108221,"SoundDuration":2108221,"Delta":57308939},{"NoteNumber":73,"Velocity":51,"Duration":2108221,"SoundDuration":2108221,"Delta":57308939},{"NoteNumber":42,"Velocity":33,"Duration":3162333,"SoundDuration":3162333,"Delta":57308939},{"NoteNumber":30,"Velocity":27,"Duration":3162333,"SoundDuration":3162333,"Delta":57308939},{"NoteNumber":69,"Velocity":39,"Duration":1054111,"SoundDuration":1054111,"Delta":59417161},{"NoteNumber":57,"Velocity":35,"Duration":1099907,"SoundDuration":1099907,"Delta":60471272},{"NoteNumber":60,"Velocity":35,"Duration":1099907,"SoundDuration":1099907,"Delta":60471272},{"NoteNumber":66,"Velocity":35,"Duration":1099907,"SoundDuration":1099907,"Delta":60471272},{"NoteNumber":33,"Velocity":22,"Duration":1099907,"SoundDuration":1099907,"Delta":60471272},{"NoteNumber":45,"Velocity":27,"Duration":1099907,"SoundDuration":1099907,"Delta":60471272},{"NoteNumber":71,"Velocity":39,"Duration":2108221,"SoundDuration":2108221,"Delta":61571180},{"NoteNumber":56,"Velocity":33,"Duration":2108221,"SoundDuration":2108221,"Delta":61571180},{"NoteNumber":64,"Velocity":33,"Duration":2108221,"SoundDuration":2108221,"Delta":61571180},{"NoteNumber":35,"Velocity":24,"Duration":2108221,"SoundDuration":2108221,"Delta":61571180},{"NoteNumber":47,"Velocity":29,"Duration":2108221,"SoundDuration":2108221,"Delta":61571180},{"NoteNumber":57,"Velocity":34,"Duration":2238805,"SoundDuration":2238805,"Delta":63679402},{"NoteNumber":59,"Velocity":34,"Duration":2238805,"SoundDuration":2238805,"Delta":63679402},{"NoteNumber":63,"Velocity":40,"Duration":2238805,"SoundDuration":2238805,"Delta":63679402},{"NoteNumber":47,"Velocity":26,"Duration":2238805,"SoundDuration":2238805,"Delta":63679402},{"NoteNumber":54,"Velocity":31,"Duration":2238805,"SoundDuration":2238805,"Delta":63679402},{"NoteNumber":56,"Velocity":30,"Duration":3474204,"SoundDuration":3474204,"Delta":65918208},{"NoteNumber":59,"Velocity":30,"Duration":3474204,"SoundDuration":3474204,"Delta":65918208},{"NoteNumber":64,"Velocity":37,"Duration":2808401,"SoundDuration":2808401,"Delta":65918208},{"NoteNumber":40,"Velocity":25,"Duration":3474204,"SoundDuration":3474204,"Delta":65918208},{"NoteNumber":47,"Velocity":25,"Duration":3474204,"SoundDuration":3474204,"Delta":65918208},{"NoteNumber":52,"Velocity":30,"Duration":3474204,"SoundDuration":3474204,"Delta":65918208},{"NoteNumber":66,"Velocity":35,"Duration":443869,"SoundDuration":443869,"Delta":68726609},{"NoteNumber":68,"Velocity":36,"Duration":443869,"SoundDuration":443869,"Delta":69170478},{"NoteNumber":69,"Velocity":37,"Duration":443869,"SoundDuration":443869,"Delta":69614347},{"NoteNumber":73,"Velocity":37,"Duration":443869,"SoundDuration":443869,"Delta":70058216},{"NoteNumber":71,"Velocity":38,"Duration":1912350,"SoundDuration":1912350,"Delta":70502086},{"NoteNumber":64,"Velocity":31,"Duration":517928,"SoundDuration":517928,"Delta":70502086},{"NoteNumber":52,"Velocity":26,"Duration":3878349,"SoundDuration":3878349,"Delta":70502086},{"NoteNumber":56,"Velocity":27,"Duration":517928,"SoundDuration":517928,"Delta":70502086},{"NoteNumber":66,"Velocity":25,"Duration":517928,"SoundDuration":517928,"Delta":70980173},{"NoteNumber":57,"Velocity":22,"Duration":517928,"SoundDuration":517928,"Delta":70980173},{"NoteNumber":64,"Velocity":31,"Duration":517928,"SoundDuration":517928,"Delta":71458261},{"NoteNumber":56,"Velocity":27,"Duration":517928,"SoundDuration":517928,"Delta":71458261},{"NoteNumber":66,"Velocity":25,"Duration":516643,"SoundDuration":516643,"Delta":71936348},{"NoteNumber":57,"Velocity":19,"Duration":516643,"SoundDuration":516643,"Delta":71936348},{"NoteNumber":68,"Velocity":31,"Duration":501233,"SoundDuration":501233,"Delta":72414436},{"NoteNumber":71,"Velocity":38,"Duration":925354,"SoundDuration":925354,"Delta":72414436},{"NoteNumber":59,"Velocity":27,"Duration":501233,"SoundDuration":501233,"Delta":72414436},{"NoteNumber":66,"Velocity":24,"Duration":503890,"SoundDuration":503890,"Delta":72877113},{"NoteNumber":57,"Velocity":19,"Duration":503890,"SoundDuration":503890,"Delta":72877113},{"NoteNumber":71,"Velocity":38,"Duration":1040644,"SoundDuration":1040644,"Delta":73339791},{"NoteNumber":68,"Velocity":31,"Duration":535773,"SoundDuration":535773,"Delta":73339791},{"NoteNumber":59,"Velocity":27,"Duration":535773,"SoundDuration":535773,"Delta":73339791},{"NoteNumber":64,"Velocity":24,"Duration":546084,"SoundDuration":546084,"Delta":73834351},{"NoteNumber":56,"Velocity":20,"Duration":546084,"SoundDuration":546084,"Delta":73834351},{"NoteNumber":63,"Velocity":31,"Duration":517928,"SoundDuration":517928,"Delta":74380435},{"NoteNumber":71,"Velocity":48,"Duration":1423944,"SoundDuration":1423944,"Delta":74380435},{"NoteNumber":47,"Velocity":30,"Duration":3840041,"SoundDuration":3840041,"Delta":74380435},{"NoteNumber":54,"Velocity":27,"Duration":517928,"SoundDuration":517928,"Delta":74380435},{"NoteNumber":64,"Velocity":24,"Duration":517928,"SoundDuration":517928,"Delta":74858523},{"NoteNumber":56,"Velocity":19,"Duration":517928,"SoundDuration":517928,"Delta":74858523},{"NoteNumber":63,"Velocity":31,"Duration":506019,"SoundDuration":506019,"Delta":75336610},{"NoteNumber":54,"Velocity":27,"Duration":506019,"SoundDuration":506019,"Delta":75336610},{"NoteNumber":64,"Velocity":25,"Duration":505994,"SoundDuration":505994,"Delta":75804380},{"NoteNumber":73,"Velocity":42,"Duration":466481,"SoundDuration":466481,"Delta":75804380},{"NoteNumber":56,"Velocity":18,"Duration":505994,"SoundDuration":505994,"Delta":75804380},{"NoteNumber":71,"Velocity":42,"Duration":1949615,"SoundDuration":1949615,"Delta":76270862},{"NoteNumber":66,"Velocity":31,"Duration":513671,"SoundDuration":513671,"Delta":76270862},{"NoteNumber":57,"Velocity":27,"Duration":513671,"SoundDuration":513671,"Delta":76270862},{"NoteNumber":65,"Velocity":25,"Duration":513671,"SoundDuration":513671,"Delta":76745020},{"NoteNumber":56,"Velocity":19,"Duration":513671,"SoundDuration":513671,"Delta":76745020},{"NoteNumber":66,"Velocity":31,"Duration":522057,"SoundDuration":522057,"Delta":77219179},{"NoteNumber":57,"Velocity":27,"Duration":522057,"SoundDuration":522057,"Delta":77219179},{"NoteNumber":63,"Velocity":25,"Duration":520454,"SoundDuration":520454,"Delta":77700023},{"NoteNumber":54,"Velocity":19,"Duration":520454,"SoundDuration":520454,"Delta":77700023},{"NoteNumber":64,"Velocity":31,"Duration":517928,"SoundDuration":517928,"Delta":78220477},{"NoteNumber":71,"Velocity":48,"Duration":1912350,"SoundDuration":1912350,"Delta":78220477},{"NoteNumber":56,"Velocity":27,"Duration":517928,"SoundDuration":517928,"Delta":78220477},{"NoteNumber":52,"Velocity":33,"Duration":3450265,"SoundDuration":3450265,"Delta":78220477},{"NoteNumber":66,"Velocity":26,"Duration":517928,"SoundDuration":517928,"Delta":78698565},{"NoteNumber":57,"Velocity":18,"Duration":517928,"SoundDuration":517928,"Delta":78698565},{"NoteNumber":64,"Velocity":31,"Duration":517928,"SoundDuration":517928,"Delta":79176652},{"NoteNumber":56,"Velocity":27,"Duration":517928,"SoundDuration":517928,"Delta":79176652},{"NoteNumber":66,"Velocity":25,"Duration":518606,"SoundDuration":518606,"Delta":79654740},{"NoteNumber":57,"Velocity":19,"Duration":518606,"SoundDuration":518606,"Delta":79654740},{"NoteNumber":73,"Velocity":50,"Duration":530203,"SoundDuration":530203,"Delta":80132827},{"NoteNumber":68,"Velocity":31,"Duration":530203,"SoundDuration":530203,"Delta":80132827},{"NoteNumber":59,"Velocity":27,"Duration":530203,"SoundDuration":530203,"Delta":80132827},{"NoteNumber":64,"Velocity":25,"Duration":541225,"SoundDuration":541225,"Delta":80621818},{"NoteNumber":71,"Velocity":48,"Duration":541225,"SoundDuration":541225,"Delta":80621818},{"NoteNumber":56,"Velocity":19,"Duration":541225,"SoundDuration":541225,"Delta":80621818},{"NoteNumber":59,"Velocity":31,"Duration":550008,"SoundDuration":550008,"Delta":81120735},{"NoteNumber":68,"Velocity":46,"Duration":550008,"SoundDuration":550008,"Delta":81120735},{"NoteNumber":52,"Velocity":27,"Duration":1015399,"SoundDuration":1015399,"Delta":81120735},{"NoteNumber":64,"Velocity":44,"Duration":507699,"SoundDuration":507699,"Delta":81628435},{"NoteNumber":56,"Velocity":19,"Duration":507699,"SoundDuration":507699,"Delta":81628435},{"NoteNumber":66,"Velocity":49,"Duration":3009773,"SoundDuration":3009773,"Delta":82136135},{"NoteNumber":63,"Velocity":31,"Duration":540495,"SoundDuration":540495,"Delta":82136135},{"NoteNumber":59,"Velocity":27,"Duration":540495,"SoundDuration":540495,"Delta":82136135},{"NoteNumber":47,"Velocity":30,"Duration":4052888,"SoundDuration":4052888,"Delta":82136135},{"NoteNumber":64,"Velocity":26,"Duration":498919,"SoundDuration":498919,"Delta":82635054},{"NoteNumber":61,"Velocity":22,"Duration":540495,"SoundDuration":540495,"Delta":82635054},{"NoteNumber":63,"Velocity":31,"Duration":540495,"SoundDuration":540495,"Delta":83133973},{"NoteNumber":59,"Velocity":27,"Duration":540495,"SoundDuration":540495,"Delta":83133973},{"NoteNumber":61,"Velocity":25,"Duration":540495,"SoundDuration":540495,"Delta":83632892},{"NoteNumber":54,"Velocity":19,"Duration":540495,"SoundDuration":540495,"Delta":83632892},{"NoteNumber":59,"Velocity":31,"Duration":544141,"SoundDuration":544141,"Delta":84131811},{"NoteNumber":51,"Velocity":27,"Duration":544141,"SoundDuration":544141,"Delta":84131811},{"NoteNumber":58,"Velocity":25,"Duration":555727,"SoundDuration":555727,"Delta":84633644},{"NoteNumber":50,"Velocity":19,"Duration":555727,"SoundDuration":555727,"Delta":84633644},{"NoteNumber":67,"Velocity":50,"Duration":1043115,"SoundDuration":1043115,"Delta":85145908},{"NoteNumber":59,"Velocity":31,"Duration":565020,"SoundDuration":565020,"Delta":85145908},{"NoteNumber":51,"Velocity":27,"Duration":565020,"SoundDuration":565020,"Delta":85145908},{"NoteNumber":63,"Velocity":26,"Duration":521557,"SoundDuration":521557,"Delta":85667466},{"NoteNumber":57,"Velocity":20,"Duration":521557,"SoundDuration":521557,"Delta":85667466},{"NoteNumber":64,"Velocity":31,"Duration":517928,"SoundDuration":517928,"Delta":86189023},{"NoteNumber":68,"Velocity":45,"Duration":1912350,"SoundDuration":1912350,"Delta":86189023},{"NoteNumber":56,"Velocity":27,"Duration":517928,"SoundDuration":517928,"Delta":86189023},{"NoteNumber":52,"Velocity":26,"Duration":1474103,"SoundDuration":1474103,"Delta":86189023},{"NoteNumber":63,"Velocity":25,"Duration":517928,"SoundDuration":517928,"Delta":86667111},{"NoteNumber":54,"Velocity":22,"Duration":517928,"SoundDuration":517928,"Delta":86667111},{"NoteNumber":61,"Velocity":31,"Duration":517928,"SoundDuration":517928,"Delta":87145198},{"NoteNumber":52,"Velocity":27,"Duration":2922174,"SoundDuration":2922174,"Delta":87145198},{"NoteNumber":63,"Velocity":25,"Duration":516643,"SoundDuration":516643,"Delta":87623286},{"NoteNumber":54,"Velocity":19,"Duration":516643,"SoundDuration":516643,"Delta":87623286},{"NoteNumber":64,"Velocity":31,"Duration":501233,"SoundDuration":501233,"Delta":88101373},{"NoteNumber":68,"Velocity":39,"Duration":925354,"SoundDuration":925354,"Delta":88101373},{"NoteNumber":56,"Velocity":27,"Duration":501233,"SoundDuration":501233,"Delta":88101373},{"NoteNumber":63,"Velocity":24,"Duration":503890,"SoundDuration":503890,"Delta":88564051},{"NoteNumber":55,"Velocity":19,"Duration":503890,"SoundDuration":503890,"Delta":88564051},{"NoteNumber":68,"Velocity":40,"Duration":1040644,"SoundDuration":1040644,"Delta":89026728},{"NoteNumber":64,"Velocity":31,"Duration":535773,"SoundDuration":535773,"Delta":89026728},{"NoteNumber":56,"Velocity":27,"Duration":535773,"SoundDuration":535773,"Delta":89026728},{"NoteNumber":61,"Velocity":24,"Duration":546084,"SoundDuration":546084,"Delta":89521288},{"NoteNumber":52,"Velocity":20,"Duration":546084,"SoundDuration":546084,"Delta":89521288},{"NoteNumber":63,"Velocity":31,"Duration":517928,"SoundDuration":517928,"Delta":90067373},{"NoteNumber":68,"Velocity":48,"Duration":1423944,"SoundDuration":1423944,"Delta":90067373},{"NoteNumber":44,"Velocity":30,"Duration":3840041,"SoundDuration":3840041,"Delta":90067373},{"NoteNumber":54,"Velocity":27,"Duration":517928,"SoundDuration":517928,"Delta":90067373},{"NoteNumber":61,"Velocity":24,"Duration":517928,"SoundDuration":517928,"Delta":90545460},{"NoteNumber":52,"Velocity":19,"Duration":517928,"SoundDuration":517928,"Delta":90545460},{"NoteNumber":60,"Velocity":31,"Duration":506019,"SoundDuration":506019,"Delta":91023548},{"NoteNumber":51,"Velocity":27,"Duration":506019,"SoundDuration":506019,"Delta":91023548},{"NoteNumber":69,"Velocity":42,"Duration":466481,"SoundDuration":466481,"Delta":91491318},{"NoteNumber":61,"Velocity":25,"Duration":505994,"SoundDuration":505994,"Delta":91491318},{"NoteNumber":52,"Velocity":18,"Duration":505994,"SoundDuration":505994,"Delta":91491318},{"NoteNumber":63,"Velocity":31,"Duration":513671,"SoundDuration":513671,"Delta":91957799},{"NoteNumber":68,"Velocity":42,"Duration":1949615,"SoundDuration":1949615,"Delta":91957799},{"NoteNumber":54,"Velocity":27,"Duration":513671,"SoundDuration":513671,"Delta":91957799},{"NoteNumber":61,"Velocity":25,"Duration":513671,"SoundDuration":513671,"Delta":92431958},{"NoteNumber":52,"Velocity":19,"Duration":513671,"SoundDuration":513671,"Delta":92431958},{"NoteNumber":63,"Velocity":31,"Duration":522057,"SoundDuration":522057,"Delta":92906116},{"NoteNumber":54,"Velocity":27,"Duration":522057,"SoundDuration":522057,"Delta":92906116},{"NoteNumber":60,"Velocity":25,"Duration":520454,"SoundDuration":520454,"Delta":93386961},{"NoteNumber":51,"Velocity":19,"Duration":520454,"SoundDuration":520454,"Delta":93386961},{"NoteNumber":73,"Velocity":48,"Duration":2442553,"SoundDuration":2442553,"Delta":93907415},{"NoteNumber":61,"Velocity":37,"Duration":517928,"SoundDuration":517928,"Delta":93907415},{"NoteNumber":49,"Velocity":39,"Duration":1434262,"SoundDuration":1434262,"Delta":93907415},{"NoteNumber":45,"Velocity":33,"Duration":3915657,"SoundDuration":3915657,"Delta":93907415},{"NoteNumber":63,"Velocity":41,"Duration":517928,"SoundDuration":517928,"Delta":94385502},{"NoteNumber":64,"Velocity":43,"Duration":517928,"SoundDuration":517928,"Delta":94863590},{"NoteNumber":66,"Velocity":44,"Duration":518606,"SoundDuration":518606,"Delta":95341677},{"NoteNumber":51,"Velocity":36,"Duration":478087,"SoundDuration":478087,"Delta":95341677},{"NoteNumber":67,"Velocity":51,"Duration":2003307,"SoundDuration":2003307,"Delta":95819765},{"NoteNumber":52,"Velocity":41,"Duration":2497867,"SoundDuration":2497867,"Delta":95819765},{"NoteNumber":72,"Velocity":55,"Duration":541225,"SoundDuration":541225,"Delta":96308755},{"NoteNumber":75,"Velocity":60,"Duration":550008,"SoundDuration":550008,"Delta":96807672},{"NoteNumber":73,"Velocity":55,"Duration":548913,"SoundDuration":548913,"Delta":97315372},{"NoteNumber":72,"Velocity":51,"Duration":2014996,"SoundDuration":2014996,"Delta":97823072},{"NoteNumber":68,"Velocity":29,"Duration":2014996,"SoundDuration":2014996,"Delta":97823072},{"NoteNumber":44,"Velocity":33,"Duration":1483680,"SoundDuration":1483680,"Delta":97823072},{"NoteNumber":51,"Velocity":40,"Duration":494559,"SoundDuration":494559,"Delta":98317632},{"NoteNumber":48,"Velocity":40,"Duration":494560,"SoundDuration":494560,"Delta":98812192},{"NoteNumber":44,"Velocity":40,"Duration":531316,"SoundDuration":531316,"Delta":99306752},{"NoteNumber":67,"Velocity":29,"Duration":2004134,"SoundDuration":2004134,"Delta":99838069},{"NoteNumber":73,"Velocity":53,"Duration":535773,"SoundDuration":535773,"Delta":99838069},{"NoteNumber":52,"Velocity":45,"Duration":2498694,"SoundDuration":2498694,"Delta":99838069},{"NoteNumber":45,"Velocity":33,"Duration":2004134,"SoundDuration":2004134,"Delta":99838069},{"NoteNumber":72,"Velocity":45,"Duration":535773,"SoundDuration":535773,"Delta":100332629},{"NoteNumber":75,"Velocity":49,"Duration":535773,"SoundDuration":535773,"Delta":100827189},{"NoteNumber":73,"Velocity":45,"Duration":561667,"SoundDuration":561667,"Delta":101321749},{"NoteNumber":72,"Velocity":48,"Duration":2006796,"SoundDuration":2006796,"Delta":101842203},{"NoteNumber":68,"Velocity":29,"Duration":2006796,"SoundDuration":2006796,"Delta":101842203},{"NoteNumber":44,"Velocity":33,"Duration":1479558,"SoundDuration":1479558,"Delta":101842203},{"NoteNumber":51,"Velocity":37,"Duration":494559,"SoundDuration":494559,"Delta":102336763},{"NoteNumber":48,"Velocity":37,"Duration":494560,"SoundDuration":494560,"Delta":102831323},{"NoteNumber":44,"Velocity":36,"Duration":3624918,"SoundDuration":3624918,"Delta":103325883},{"NoteNumber":67,"Velocity":29,"Duration":2068032,"SoundDuration":2068032,"Delta":103849000},{"NoteNumber":73,"Velocity":50,"Duration":550008,"SoundDuration":550008,"Delta":103849000},{"NoteNumber":52,"Velocity":42,"Duration":2584917,"SoundDuration":2584917,"Delta":103849000},{"NoteNumber":45,"Velocity":31,"Duration":2068032,"SoundDuration":2068032,"Delta":103849000},{"NoteNumber":72,"Velocity":42,"Duration":551559,"SoundDuration":551559,"Delta":104356700},{"NoteNumber":75,"Velocity":50,"Duration":394737,"SoundDuration":394737,"Delta":104864400},{"NoteNumber":73,"Velocity":42,"Duration":394737,"SoundDuration":394737,"Delta":105215277},{"NoteNumber":72,"Velocity":42,"Duration":342105,"SoundDuration":342105,"Delta":105566155},{"NoteNumber":68,"Velocity":29,"Duration":3155645,"SoundDuration":3155645,"Delta":105917032},{"NoteNumber":72,"Velocity":50,"Duration":3155645,"SoundDuration":3155645,"Delta":105917032},{"NoteNumber":51,"Velocity":31,"Duration":559958,"SoundDuration":559958,"Delta":106433917},{"NoteNumber":48,"Velocity":35,"Duration":559958,"SoundDuration":559958,"Delta":106950802},{"NoteNumber":44,"Velocity":38,"Duration":542479,"SoundDuration":542479,"Delta":107467687},{"NoteNumber":56,"Velocity":45,"Duration":575526,"SoundDuration":575526,"Delta":108010167},{"NoteNumber":54,"Velocity":38,"Duration":578124,"SoundDuration":578124,"Delta":108541422},{"NoteNumber":69,"Velocity":29,"Duration":562429,"SoundDuration":562429,"Delta":109072678},{"NoteNumber":71,"Velocity":42,"Duration":1107202,"SoundDuration":1107202,"Delta":109072678},{"NoteNumber":47,"Velocity":33,"Duration":1107202,"SoundDuration":1107202,"Delta":109072678},{"NoteNumber":51,"Velocity":30,"Duration":609298,"SoundDuration":609298,"Delta":109072678},{"NoteNumber":63,"Velocity":29,"Duration":544773,"SoundDuration":544773,"Delta":109635107},{"NoteNumber":57,"Velocity":31,"Duration":544773,"SoundDuration":544773,"Delta":109635107},{"NoteNumber":71,"Velocity":38,"Duration":1932702,"SoundDuration":1932702,"Delta":110179880},{"NoteNumber":64,"Velocity":31,"Duration":530121,"SoundDuration":530121,"Delta":110179880},{"NoteNumber":56,"Velocity":27,"Duration":530121,"SoundDuration":530121,"Delta":110179880},{"NoteNumber":52,"Velocity":26,"Duration":3898701,"SoundDuration":3898701,"Delta":110179880},{"NoteNumber":66,"Velocity":25,"Duration":523231,"SoundDuration":523231,"Delta":110669351},{"NoteNumber":57,"Velocity":22,"Duration":523231,"SoundDuration":523231,"Delta":110669351},{"NoteNumber":64,"Velocity":31,"Duration":519999,"SoundDuration":519999,"Delta":111152582},{"NoteNumber":56,"Velocity":27,"Duration":519999,"SoundDuration":519999,"Delta":111152582},{"NoteNumber":66,"Velocity":25,"Duration":518556,"SoundDuration":518556,"Delta":111632582},{"NoteNumber":57,"Velocity":19,"Duration":518556,"SoundDuration":518556,"Delta":111632582},{"NoteNumber":71,"Velocity":38,"Duration":925354,"SoundDuration":925354,"Delta":112112582},{"NoteNumber":68,"Velocity":31,"Duration":501233,"SoundDuration":501233,"Delta":112112582},{"NoteNumber":59,"Velocity":27,"Duration":501233,"SoundDuration":501233,"Delta":112112582},{"NoteNumber":66,"Velocity":24,"Duration":503890,"SoundDuration":503890,"Delta":112575260},{"NoteNumber":57,"Velocity":19,"Duration":503890,"SoundDuration":503890,"Delta":112575260},{"NoteNumber":71,"Velocity":38,"Duration":1040644,"SoundDuration":1040644,"Delta":113037937},{"NoteNumber":68,"Velocity":31,"Duration":535773,"SoundDuration":535773,"Delta":113037937},{"NoteNumber":59,"Velocity":27,"Duration":535773,"SoundDuration":535773,"Delta":113037937},{"NoteNumber":64,"Velocity":24,"Duration":546084,"SoundDuration":546084,"Delta":113532497},{"NoteNumber":56,"Velocity":20,"Duration":546084,"SoundDuration":546084,"Delta":113532497},{"NoteNumber":63,"Velocity":31,"Duration":517928,"SoundDuration":517928,"Delta":114078582},{"NoteNumber":71,"Velocity":48,"Duration":1423944,"SoundDuration":1423944,"Delta":114078582},{"NoteNumber":54,"Velocity":27,"Duration":478087,"SoundDuration":478087,"Delta":114078582},{"NoteNumber":47,"Velocity":30,"Duration":3840041,"SoundDuration":3840041,"Delta":114078582},{"NoteNumber":64,"Velocity":24,"Duration":517928,"SoundDuration":517928,"Delta":114556670},{"NoteNumber":56,"Velocity":19,"Duration":517928,"SoundDuration":517928,"Delta":114556670},{"NoteNumber":63,"Velocity":31,"Duration":506019,"SoundDuration":506019,"Delta":115034757},{"NoteNumber":54,"Velocity":27,"Duration":467769,"SoundDuration":467769,"Delta":115034757},{"NoteNumber":64,"Velocity":25,"Duration":505994,"SoundDuration":505994,"Delta":115502527},{"NoteNumber":73,"Velocity":42,"Duration":466481,"SoundDuration":466481,"Delta":115502527},{"NoteNumber":56,"Velocity":18,"Duration":505994,"SoundDuration":505994,"Delta":115502527},{"NoteNumber":66,"Velocity":31,"Duration":513671,"SoundDuration":513671,"Delta":115969008},{"NoteNumber":71,"Velocity":42,"Duration":1949615,"SoundDuration":1949615,"Delta":115969008},{"NoteNumber":57,"Velocity":27,"Duration":513671,"SoundDuration":513671,"Delta":115969008},{"NoteNumber":65,"Velocity":25,"Duration":513671,"SoundDuration":513671,"Delta":116443167},{"NoteNumber":56,"Velocity":19,"Duration":513671,"SoundDuration":513671,"Delta":116443167},{"NoteNumber":66,"Velocity":31,"Duration":522057,"SoundDuration":522057,"Delta":116917325},{"NoteNumber":57,"Velocity":27,"Duration":522057,"SoundDuration":522057,"Delta":116917325},{"NoteNumber":63,"Velocity":25,"Duration":520454,"SoundDuration":520454,"Delta":117398170},{"NoteNumber":54,"Velocity":19,"Duration":520454,"SoundDuration":520454,"Delta":117398170},{"NoteNumber":71,"Velocity":48,"Duration":1912350,"SoundDuration":1912350,"Delta":117918624},{"NoteNumber":64,"Velocity":31,"Duration":517928,"SoundDuration":517928,"Delta":117918624},{"NoteNumber":56,"Velocity":27,"Duration":517928,"SoundDuration":517928,"Delta":117918624},{"NoteNumber":52,"Velocity":33,"Duration":3450265,"SoundDuration":3450265,"Delta":117918624},{"NoteNumber":66,"Velocity":26,"Duration":517928,"SoundDuration":517928,"Delta":118396711},{"NoteNumber":57,"Velocity":18,"Duration":517928,"SoundDuration":517928,"Delta":118396711},{"NoteNumber":64,"Velocity":31,"Duration":517928,"SoundDuration":517928,"Delta":118874799},{"NoteNumber":56,"Velocity":27,"Duration":517928,"SoundDuration":517928,"Delta":118874799},{"NoteNumber":66,"Velocity":25,"Duration":518606,"SoundDuration":518606,"Delta":119352886},{"NoteNumber":57,"Velocity":19,"Duration":518606,"SoundDuration":518606,"Delta":119352886},{"NoteNumber":73,"Velocity":50,"Duration":530203,"SoundDuration":530203,"Delta":119830974},{"NoteNumber":68,"Velocity":31,"Duration":530203,"SoundDuration":530203,"Delta":119830974},{"NoteNumber":59,"Velocity":27,"Duration":530203,"SoundDuration":530203,"Delta":119830974},{"NoteNumber":64,"Velocity":25,"Duration":541225,"SoundDuration":541225,"Delta":120319964},{"NoteNumber":71,"Velocity":48,"Duration":541225,"SoundDuration":541225,"Delta":120319964},{"NoteNumber":56,"Velocity":19,"Duration":541225,"SoundDuration":541225,"Delta":120319964},{"NoteNumber":68,"Velocity":46,"Duration":550008,"SoundDuration":550008,"Delta":120818881},{"NoteNumber":59,"Velocity":31,"Duration":550008,"SoundDuration":550008,"Delta":120818881},{"NoteNumber":52,"Velocity":27,"Duration":1015399,"SoundDuration":1015399,"Delta":120818881},{"NoteNumber":64,"Velocity":44,"Duration":507699,"SoundDuration":507699,"Delta":121326581},{"NoteNumber":56,"Velocity":19,"Duration":507699,"SoundDuration":507699,"Delta":121326581},{"NoteNumber":63,"Velocity":31,"Duration":540495,"SoundDuration":540495,"Delta":121834281},{"NoteNumber":66,"Velocity":49,"Duration":3009773,"SoundDuration":3009773,"Delta":121834281},{"NoteNumber":59,"Velocity":27,"Duration":540495,"SoundDuration":540495,"Delta":121834281},{"NoteNumber":47,"Velocity":30,"Duration":3009773,"SoundDuration":3009773,"Delta":121834281},{"NoteNumber":64,"Velocity":26,"Duration":540495,"SoundDuration":540495,"Delta":122333200},{"NoteNumber":61,"Velocity":22,"Duration":540495,"SoundDuration":540495,"Delta":122333200},{"NoteNumber":63,"Velocity":31,"Duration":540495,"SoundDuration":540495,"Delta":122832119},{"NoteNumber":59,"Velocity":27,"Duration":540495,"SoundDuration":540495,"Delta":122832119},{"NoteNumber":61,"Velocity":25,"Duration":540495,"SoundDuration":540495,"Delta":123331038},{"NoteNumber":54,"Velocity":19,"Duration":540495,"SoundDuration":540495,"Delta":123331038},{"NoteNumber":63,"Velocity":31,"Duration":544141,"SoundDuration":544141,"Delta":123829957},{"NoteNumber":59,"Velocity":27,"Duration":499717,"SoundDuration":499717,"Delta":123829957},{"NoteNumber":59,"Velocity":25,"Duration":555727,"SoundDuration":555727,"Delta":124331791},{"NoteNumber":51,"Velocity":19,"Duration":512264,"SoundDuration":512264,"Delta":124331791},{"NoteNumber":67,"Velocity":50,"Duration":1043115,"SoundDuration":1043115,"Delta":124844055},{"NoteNumber":61,"Velocity":31,"Duration":565020,"SoundDuration":565020,"Delta":124844055},{"NoteNumber":45,"Velocity":30,"Duration":1043115,"SoundDuration":1043115,"Delta":124844055},{"NoteNumber":52,"Velocity":27,"Duration":565020,"SoundDuration":565020,"Delta":124844055},{"NoteNumber":63,"Velocity":26,"Duration":521557,"SoundDuration":521557,"Delta":125365612},{"NoteNumber":51,"Velocity":20,"Duration":521557,"SoundDuration":521557,"Delta":125365612},{"NoteNumber":68,"Velocity":56,"Duration":1912350,"SoundDuration":1912350,"Delta":125887170},{"NoteNumber":60,"Velocity":31,"Duration":517928,"SoundDuration":517928,"Delta":125887170},{"NoteNumber":51,"Velocity":27,"Duration":517928,"SoundDuration":517928,"Delta":125887170},{"NoteNumber":44,"Velocity":26,"Duration":1912350,"SoundDuration":1912350,"Delta":125887170},{"NoteNumber":63,"Velocity":25,"Duration":517928,"SoundDuration":517928,"Delta":126365257},{"NoteNumber":48,"Velocity":22,"Duration":517928,"SoundDuration":517928,"Delta":126365257},{"NoteNumber":62,"Velocity":31,"Duration":517928,"SoundDuration":517928,"Delta":126843345},{"NoteNumber":47,"Velocity":27,"Duration":517928,"SoundDuration":517928,"Delta":126843345},{"NoteNumber":63,"Velocity":25,"Duration":478087,"SoundDuration":478087,"Delta":127321432},{"NoteNumber":48,"Velocity":19,"Duration":478087,"SoundDuration":478087,"Delta":127321432},{"NoteNumber":69,"Velocity":53,"Duration":925355,"SoundDuration":925355,"Delta":127799520},{"NoteNumber":64,"Velocity":39,"Duration":501233,"SoundDuration":501233,"Delta":127799520},{"NoteNumber":42,"Velocity":26,"Duration":925355,"SoundDuration":925355,"Delta":127799520},{"NoteNumber":49,"Velocity":30,"Duration":501233,"SoundDuration":501233,"Delta":127799520},{"NoteNumber":61,"Velocity":33,"Duration":503890,"SoundDuration":503890,"Delta":128262197},{"NoteNumber":52,"Velocity":25,"Duration":503890,"SoundDuration":503890,"Delta":128262197},{"NoteNumber":60,"Velocity":37,"Duration":535773,"SoundDuration":535773,"Delta":128724875},{"NoteNumber":69,"Velocity":51,"Duration":989120,"SoundDuration":989120,"Delta":128724875},{"NoteNumber":51,"Velocity":30,"Duration":535773,"SoundDuration":535773,"Delta":128724875},{"NoteNumber":42,"Velocity":26,"Duration":989120,"SoundDuration":989120,"Delta":128724875},{"NoteNumber":61,"Velocity":30,"Duration":494560,"SoundDuration":494560,"Delta":129219435},{"NoteNumber":52,"Velocity":25,"Duration":494560,"SoundDuration":494560,"Delta":129219435},{"NoteNumber":68,"Velocity":56,"Duration":1912350,"SoundDuration":1912350,"Delta":129713995},{"NoteNumber":60,"Velocity":31,"Duration":517928,"SoundDuration":517928,"Delta":129713995},{"NoteNumber":44,"Velocity":30,"Duration":1912350,"SoundDuration":1912350,"Delta":129713995},{"NoteNumber":51,"Velocity":27,"Duration":517928,"SoundDuration":517928,"Delta":129713995},{"NoteNumber":63,"Velocity":24,"Duration":517928,"SoundDuration":517928,"Delta":130192082},{"NoteNumber":48,"Velocity":19,"Duration":517928,"SoundDuration":517928,"Delta":130192082},{"NoteNumber":62,"Velocity":31,"Duration":517928,"SoundDuration":517928,"Delta":130670170},{"NoteNumber":47,"Velocity":27,"Duration":517928,"SoundDuration":517928,"Delta":130670170},{"NoteNumber":63,"Velocity":25,"Duration":516955,"SoundDuration":516955,"Delta":131148257},{"NoteNumber":48,"Velocity":18,"Duration":516955,"SoundDuration":516955,"Delta":131148257},{"NoteNumber":64,"Velocity":39,"Duration":505286,"SoundDuration":505286,"Delta":131626345},{"NoteNumber":69,"Velocity":57,"Duration":932836,"SoundDuration":932836,"Delta":131626345},{"NoteNumber":42,"Velocity":26,"Duration":932836,"SoundDuration":932836,"Delta":131626345},{"NoteNumber":49,"Velocity":33,"Duration":505286,"SoundDuration":505286,"Delta":131626345},{"NoteNumber":61,"Velocity":31,"Duration":505931,"SoundDuration":505931,"Delta":132092763},{"NoteNumber":52,"Velocity":22,"Duration":505931,"SoundDuration":505931,"Delta":132092763},{"NoteNumber":60,"Velocity":38,"Duration":522057,"SoundDuration":522057,"Delta":132559181},{"NoteNumber":69,"Velocity":52,"Duration":975404,"SoundDuration":975404,"Delta":132559181},{"NoteNumber":42,"Velocity":26,"Duration":975404,"SoundDuration":975404,"Delta":132559181},{"NoteNumber":51,"Velocity":29,"Duration":522057,"SoundDuration":522057,"Delta":132559181},{"NoteNumber":61,"Velocity":30,"Duration":494560,"SoundDuration":494560,"Delta":133040025},{"NoteNumber":52,"Velocity":20,"Duration":494560,"SoundDuration":494560,"Delta":133040025},{"NoteNumber":68,"Velocity":53,"Duration":448229,"SoundDuration":448229,"Delta":133534585},{"NoteNumber":60,"Velocity":38,"Duration":918449,"SoundDuration":918449,"Delta":133534585},{"NoteNumber":44,"Velocity":26,"Duration":918449,"SoundDuration":918449,"Delta":133534585},{"NoteNumber":51,"Velocity":26,"Duration":918449,"SoundDuration":918449,"Delta":133534585},{"NoteNumber":75,"Velocity":58,"Duration":470219,"SoundDuration":470219,"Delta":133982815},{"NoteNumber":64,"Velocity":37,"Duration":910608,"SoundDuration":910608,"Delta":134453034},{"NoteNumber":73,"Velocity":53,"Duration":455304,"SoundDuration":455304,"Delta":134453034},{"NoteNumber":68,"Velocity":37,"Duration":910608,"SoundDuration":910608,"Delta":134453034},{"NoteNumber":56,"Velocity":26,"Duration":3699407,"SoundDuration":3699407,"Delta":134453034},{"NoteNumber":75,"Velocity":56,"Duration":455304,"SoundDuration":455304,"Delta":134908339},{"NoteNumber":63,"Velocity":36,"Duration":919218,"SoundDuration":919218,"Delta":135363643},{"NoteNumber":72,"Velocity":53,"Duration":458381,"SoundDuration":458381,"Delta":135363643},{"NoteNumber":66,"Velocity":36,"Duration":919218,"SoundDuration":919218,"Delta":135363643},{"NoteNumber":73,"Velocity":50,"Duration":460836,"SoundDuration":460836,"Delta":135822024},{"NoteNumber":61,"Velocity":35,"Duration":929095,"SoundDuration":929095,"Delta":136282861},{"NoteNumber":64,"Velocity":35,"Duration":929095,"SoundDuration":929095,"Delta":136282861},{"NoteNumber":69,"Velocity":51,"Duration":462677,"SoundDuration":462677,"Delta":136282861},{"NoteNumber":71,"Velocity":46,"Duration":466418,"SoundDuration":466418,"Delta":136745539},{"NoteNumber":68,"Velocity":49,"Duration":468952,"SoundDuration":468952,"Delta":137211957},{"NoteNumber":60,"Velocity":34,"Duration":940484,"SoundDuration":940484,"Delta":137211957},{"NoteNumber":63,"Velocity":34,"Duration":940484,"SoundDuration":940484,"Delta":137211957},{"NoteNumber":69,"Velocity":41,"Duration":471532,"SoundDuration":471532,"Delta":137680909},{"NoteNumber":66,"Velocity":47,"Duration":474158,"SoundDuration":474158,"Delta":138152442},{"NoteNumber":57,"Velocity":33,"Duration":952245,"SoundDuration":952245,"Delta":138152442},{"NoteNumber":61,"Velocity":33,"Duration":952245,"SoundDuration":952245,"Delta":138152442},{"NoteNumber":44,"Velocity":26,"Duration":2921297,"SoundDuration":2921297,"Delta":138152442},{"NoteNumber":68,"Velocity":41,"Duration":478087,"SoundDuration":478087,"Delta":138626600},{"NoteNumber":56,"Velocity":31,"Duration":969040,"SoundDuration":969040,"Delta":139104688},{"NoteNumber":64,"Velocity":47,"Duration":480750,"SoundDuration":480750,"Delta":139104688},{"NoteNumber":61,"Velocity":31,"Duration":969040,"SoundDuration":969040,"Delta":139104688},{"NoteNumber":66,"Velocity":40,"Duration":488290,"SoundDuration":488290,"Delta":139585439},{"NoteNumber":54,"Velocity":30,"Duration":1000011,"SoundDuration":1000011,"Delta":140073729},{"NoteNumber":63,"Velocity":45,"Duration":496739,"SoundDuration":496739,"Delta":140073729},{"NoteNumber":60,"Velocity":30,"Duration":1000011,"SoundDuration":1000011,"Delta":140073729},{"NoteNumber":64,"Velocity":40,"Duration":503271,"SoundDuration":503271,"Delta":140570468},{"NoteNumber":52,"Velocity":33,"Duration":1831817,"SoundDuration":1831817,"Delta":141073740},{"NoteNumber":56,"Velocity":33,"Duration":1831817,"SoundDuration":1831817,"Delta":141073740},{"NoteNumber":61,"Velocity":40,"Duration":1831817,"SoundDuration":1831817,"Delta":141073740},{"NoteNumber":37,"Velocity":27,"Duration":271992,"SoundDuration":271992,"Delta":141073740},{"NoteNumber":36,"Velocity":22,"Duration":270722,"SoundDuration":270722,"Delta":141306876},{"NoteNumber":37,"Velocity":27,"Duration":269452,"SoundDuration":269452,"Delta":141539060},{"NoteNumber":36,"Velocity":23,"Duration":267543,"SoundDuration":267543,"Delta":141770292},{"NoteNumber":37,"Velocity":28,"Duration":266314,"SoundDuration":266314,"Delta":141999615},{"NoteNumber":36,"Velocity":25,"Duration":265084,"SoundDuration":265084,"Delta":142228016},{"NoteNumber":37,"Velocity":28,"Duration":263237,"SoundDuration":263237,"Delta":142455495},{"NoteNumber":36,"Velocity":26,"Duration":261439,"SoundDuration":261439,"Delta":142681127},{"NoteNumber":52,"Velocity":35,"Duration":888523,"SoundDuration":888523,"Delta":142905557},{"NoteNumber":56,"Velocity":35,"Duration":888523,"SoundDuration":888523,"Delta":142905557},{"NoteNumber":61,"Velocity":43,"Duration":888523,"SoundDuration":888523,"Delta":142905557},{"NoteNumber":37,"Velocity":29,"Duration":259067,"SoundDuration":259067,"Delta":142905557},{"NoteNumber":36,"Velocity":23,"Duration":259067,"SoundDuration":259067,"Delta":143127615},{"NoteNumber":37,"Velocity":29,"Duration":261747,"SoundDuration":261747,"Delta":143349673},{"NoteNumber":36,"Velocity":25,"Duration":269472,"SoundDuration":269472,"Delta":143573507},{"NoteNumber":52,"Velocity":36,"Duration":930642,"SoundDuration":930642,"Delta":143803795},{"NoteNumber":56,"Velocity":36,"Duration":930642,"SoundDuration":930642,"Delta":143803795},{"NoteNumber":61,"Velocity":45,"Duration":930642,"SoundDuration":930642,"Delta":143803795},{"NoteNumber":37,"Velocity":30,"Duration":274294,"SoundDuration":274294,"Delta":143803795},{"NoteNumber":36,"Velocity":27,"Duration":274294,"SoundDuration":274294,"Delta":144038904},{"NoteNumber":37,"Velocity":30,"Duration":274294,"SoundDuration":274294,"Delta":144274014},{"NoteNumber":36,"Velocity":28,"Duration":235109,"SoundDuration":235109,"Delta":144509124},{"NoteNumber":52,"Velocity":38,"Duration":3640899,"SoundDuration":3640899,"Delta":144744234},{"NoteNumber":56,"Velocity":38,"Duration":3640899,"SoundDuration":3640899,"Delta":144744234},{"NoteNumber":61,"Velocity":38,"Duration":3640899,"SoundDuration":3640899,"Delta":144744234},{"NoteNumber":64,"Velocity":48,"Duration":3640899,"SoundDuration":3640899,"Delta":144744234},{"NoteNumber":37,"Velocity":31,"Duration":263237,"SoundDuration":263237,"Delta":144744234},{"NoteNumber":36,"Velocity":25,"Duration":263237,"SoundDuration":263237,"Delta":144969865},{"NoteNumber":37,"Velocity":31,"Duration":263237,"SoundDuration":263237,"Delta":145195497},{"NoteNumber":36,"Velocity":27,"Duration":263237,"SoundDuration":263237,"Delta":145421129},{"NoteNumber":37,"Velocity":32,"Duration":263237,"SoundDuration":263237,"Delta":145646761},{"NoteNumber":36,"Velocity":28,"Duration":263237,"SoundDuration":263237,"Delta":145872392},{"NoteNumber":37,"Velocity":31,"Duration":263237,"SoundDuration":263237,"Delta":146098024},{"NoteNumber":36,"Velocity":29,"Duration":263237,"SoundDuration":263237,"Delta":146323656},{"NoteNumber":37,"Velocity":30,"Duration":263237,"SoundDuration":263237,"Delta":146549288},{"NoteNumber":36,"Velocity":24,"Duration":263237,"SoundDuration":263237,"Delta":146774919},{"NoteNumber":37,"Velocity":29,"Duration":263237,"SoundDuration":263237,"Delta":147000551},{"NoteNumber":36,"Velocity":25,"Duration":263237,"SoundDuration":263237,"Delta":147226183},{"NoteNumber":37,"Velocity":28,"Duration":265391,"SoundDuration":265391,"Delta":147451815},{"NoteNumber":36,"Velocity":25,"Duration":270404,"SoundDuration":270404,"Delta":147678985},{"NoteNumber":37,"Velocity":28,"Duration":275637,"SoundDuration":275637,"Delta":147910534},{"NoteNumber":35,"Velocity":25,"Duration":276728,"SoundDuration":276728,"Delta":148146318},{"NoteNumber":52,"Velocity":37,"Duration":1764890,"SoundDuration":1764890,"Delta":148385133},{"NoteNumber":57,"Velocity":37,"Duration":1764890,"SoundDuration":1764890,"Delta":148385133},{"NoteNumber":61,"Velocity":45,"Duration":1764890,"SoundDuration":1764890,"Delta":148385133},{"NoteNumber":33,"Velocity":27,"Duration":265084,"SoundDuration":265084,"Delta":148385133},{"NoteNumber":32,"Velocity":22,"Duration":262934,"SoundDuration":262934,"Delta":148612613},{"NoteNumber":33,"Velocity":27,"Duration":260238,"SoundDuration":260238,"Delta":148838244},{"NoteNumber":32,"Velocity":23,"Duration":258186,"SoundDuration":258186,"Delta":149061473},{"NoteNumber":33,"Velocity":27,"Duration":256162,"SoundDuration":256162,"Delta":149282944},{"NoteNumber":32,"Velocity":25,"Duration":253605,"SoundDuration":253605,"Delta":149502673},{"NoteNumber":33,"Velocity":29,"Duration":251636,"SoundDuration":251636,"Delta":149720130},{"NoteNumber":32,"Velocity":26,"Duration":249722,"SoundDuration":249722,"Delta":149935898},{"NoteNumber":52,"Velocity":37,"Duration":845436,"SoundDuration":845436,"Delta":150150024},{"NoteNumber":57,"Velocity":37,"Duration":845436,"SoundDuration":845436,"Delta":150150024},{"NoteNumber":61,"Velocity":45,"Duration":845436,"SoundDuration":845436,"Delta":150150024},{"NoteNumber":33,"Velocity":30,"Duration":249181,"SoundDuration":249181,"Delta":150150024},{"NoteNumber":32,"Velocity":23,"Duration":249181,"SoundDuration":249181,"Delta":150363608},{"NoteNumber":33,"Velocity":30,"Duration":249181,"SoundDuration":249181,"Delta":150577192},{"NoteNumber":32,"Velocity":25,"Duration":249181,"SoundDuration":249181,"Delta":150790776},{"NoteNumber":52,"Velocity":44,"Duration":856252,"SoundDuration":856252,"Delta":151004360},{"NoteNumber":57,"Velocity":44,"Duration":856252,"SoundDuration":856252,"Delta":151004360},{"NoteNumber":61,"Velocity":52,"Duration":856252,"SoundDuration":856252,"Delta":151004360},{"NoteNumber":33,"Velocity":31,"Duration":249181,"SoundDuration":249181,"Delta":151004360},{"NoteNumber":32,"Velocity":27,"Duration":248908,"SoundDuration":248908,"Delta":151217944},{"NoteNumber":33,"Velocity":31,"Duration":253613,"SoundDuration":253613,"Delta":151430985},{"NoteNumber":32,"Velocity":27,"Duration":222056,"SoundDuration":222056,"Delta":151647882},{"NoteNumber":52,"Velocity":44,"Duration":3417344,"SoundDuration":3417344,"Delta":151869938},{"NoteNumber":57,"Velocity":44,"Duration":3417344,"SoundDuration":3417344,"Delta":151869938},{"NoteNumber":61,"Velocity":44,"Duration":3417344,"SoundDuration":3417344,"Delta":151869938},{"NoteNumber":64,"Velocity":52,"Duration":3417344,"SoundDuration":3417344,"Delta":151869938},{"NoteNumber":33,"Velocity":32,"Duration":249181,"SoundDuration":249181,"Delta":151869938},{"NoteNumber":32,"Velocity":25,"Duration":249181,"SoundDuration":249181,"Delta":152083522},{"NoteNumber":33,"Velocity":32,"Duration":249181,"SoundDuration":249181,"Delta":152297106},{"NoteNumber":32,"Velocity":26,"Duration":249181,"SoundDuration":249181,"Delta":152510690},{"NoteNumber":33,"Velocity":32,"Duration":249181,"SoundDuration":249181,"Delta":152724274},{"NoteNumber":32,"Velocity":27,"Duration":249181,"SoundDuration":249181,"Delta":152937858},{"NoteNumber":33,"Velocity":32,"Duration":249181,"SoundDuration":249181,"Delta":153151442},{"NoteNumber":32,"Velocity":27,"Duration":249181,"SoundDuration":249181,"Delta":153365026},{"NoteNumber":33,"Velocity":32,"Duration":249181,"SoundDuration":249181,"Delta":153578610},{"NoteNumber":32,"Velocity":25,"Duration":249181,"SoundDuration":249181,"Delta":153792194},{"NoteNumber":33,"Velocity":32,"Duration":249181,"SoundDuration":249181,"Delta":154005778},{"NoteNumber":32,"Velocity":26,"Duration":249181,"SoundDuration":249181,"Delta":154219362},{"NoteNumber":33,"Velocity":32,"Duration":249181,"SoundDuration":249181,"Delta":154432946},{"NoteNumber":32,"Velocity":27,"Duration":249181,"SoundDuration":249181,"Delta":154646530},{"NoteNumber":33,"Velocity":32,"Duration":249181,"SoundDuration":249181,"Delta":154860114},{"NoteNumber":32,"Velocity":27,"Duration":249815,"SoundDuration":249815,"Delta":155073698},{"NoteNumber":54,"Velocity":42,"Duration":1693656,"SoundDuration":1693656,"Delta":155287282},{"NoteNumber":57,"Velocity":42,"Duration":1693656,"SoundDuration":1693656,"Delta":155287282},{"NoteNumber":62,"Velocity":50,"Duration":1693656,"SoundDuration":1693656,"Delta":155287282},{"NoteNumber":30,"Velocity":32,"Duration":253362,"SoundDuration":253362,"Delta":155287282},{"NoteNumber":29,"Velocity":25,"Duration":251541,"SoundDuration":251541,"Delta":155504673},{"NoteNumber":30,"Velocity":32,"Duration":249746,"SoundDuration":249746,"Delta":155720500},{"NoteNumber":29,"Velocity":26,"Duration":247477,"SoundDuration":247477,"Delta":155934786},{"NoteNumber":30,"Velocity":33,"Duration":245740,"SoundDuration":245740,"Delta":156147053},{"NoteNumber":29,"Velocity":27,"Duration":244026,"SoundDuration":244026,"Delta":156357828},{"NoteNumber":30,"Velocity":33,"Duration":242337,"SoundDuration":242337,"Delta":156567132},{"NoteNumber":29,"Velocity":29,"Duration":240198,"SoundDuration":240198,"Delta":156774987},{"NoteNumber":54,"Velocity":44,"Duration":800718,"SoundDuration":800718,"Delta":156980938},{"NoteNumber":57,"Velocity":44,"Duration":800718,"SoundDuration":800718,"Delta":156980938},{"NoteNumber":62,"Velocity":52,"Duration":800718,"SoundDuration":800718,"Delta":156980938},{"NoteNumber":30,"Velocity":34,"Duration":238561,"SoundDuration":238561,"Delta":156980938},{"NoteNumber":29,"Velocity":26,"Duration":236719,"SoundDuration":236719,"Delta":157185486},{"NoteNumber":30,"Velocity":34,"Duration":234675,"SoundDuration":234675,"Delta":157388648},{"NoteNumber":29,"Velocity":28,"Duration":233112,"SoundDuration":233112,"Delta":157589991},{"NoteNumber":54,"Velocity":44,"Duration":777589,"SoundDuration":777589,"Delta":157789991},{"NoteNumber":57,"Velocity":44,"Duration":777589,"SoundDuration":777589,"Delta":157789991},{"NoteNumber":62,"Velocity":52,"Duration":777589,"SoundDuration":777589,"Delta":157789991},{"NoteNumber":30,"Velocity":35,"Duration":231570,"SoundDuration":231570,"Delta":157789991},{"NoteNumber":29,"Velocity":30,"Duration":229618,"SoundDuration":229618,"Delta":157988666},{"NoteNumber":30,"Velocity":37,"Duration":228121,"SoundDuration":228121,"Delta":158185605},{"NoteNumber":29,"Velocity":33,"Duration":194386,"SoundDuration":194386,"Delta":158381259},{"NoteNumber":57,"Velocity":47,"Duration":2963401,"SoundDuration":2963401,"Delta":158575645},{"NoteNumber":62,"Velocity":47,"Duration":2963401,"SoundDuration":2963401,"Delta":158575645},{"NoteNumber":66,"Velocity":47,"Duration":2963401,"SoundDuration":2963401,"Delta":158575645},{"NoteNumber":69,"Velocity":56,"Duration":2963401,"SoundDuration":2963401,"Delta":158575645},{"NoteNumber":30,"Velocity":38,"Duration":193134,"SoundDuration":193134,"Delta":158575645},{"NoteNumber":29,"Velocity":30,"Duration":191491,"SoundDuration":191491,"Delta":158768780},{"NoteNumber":30,"Velocity":39,"Duration":190276,"SoundDuration":190276,"Delta":158960271},{"NoteNumber":32,"Velocity":33,"Duration":189873,"SoundDuration":189873,"Delta":159150548},{"NoteNumber":33,"Velocity":40,"Duration":188679,"SoundDuration":188679,"Delta":159340421},{"NoteNumber":32,"Velocity":35,"Duration":187893,"SoundDuration":187893,"Delta":159529100},{"NoteNumber":33,"Velocity":41,"Duration":186723,"SoundDuration":186723,"Delta":159716994},{"NoteNumber":37,"Velocity":37,"Duration":185952,"SoundDuration":185952,"Delta":159903717},{"NoteNumber":38,"Velocity":42,"Duration":184806,"SoundDuration":184806,"Delta":160089669},{"NoteNumber":37,"Velocity":34,"Duration":183674,"SoundDuration":183674,"Delta":160274476},{"NoteNumber":38,"Velocity":44,"Duration":182926,"SoundDuration":182926,"Delta":160458151},{"NoteNumber":41,"Velocity":36,"Duration":181818,"SoundDuration":181818,"Delta":160641077},{"NoteNumber":42,"Velocity":45,"Duration":180723,"SoundDuration":180723,"Delta":160822896},{"NoteNumber":41,"Velocity":38,"Duration":180001,"SoundDuration":180001,"Delta":161003619},{"NoteNumber":42,"Velocity":45,"Duration":178927,"SoundDuration":178927,"Delta":161183620},{"NoteNumber":45,"Velocity":40,"Duration":176498,"SoundDuration":176498,"Delta":161362548},{"NoteNumber":60,"Velocity":59,"Duration":1340400,"SoundDuration":1340400,"Delta":161539047},{"NoteNumber":63,"Velocity":59,"Duration":1340400,"SoundDuration":1340400,"Delta":161539047},{"NoteNumber":66,"Velocity":59,"Duration":1340400,"SoundDuration":1340400,"Delta":161539047},{"NoteNumber":68,"Velocity":59,"Duration":1340400,"SoundDuration":1340400,"Delta":161539047},{"NoteNumber":72,"Velocity":70,"Duration":1340400,"SoundDuration":1340400,"Delta":161539047},{"NoteNumber":44,"Velocity":50,"Duration":172745,"SoundDuration":172745,"Delta":161539047},{"NoteNumber":43,"Velocity":51,"Duration":171103,"SoundDuration":171103,"Delta":161711793},{"NoteNumber":44,"Velocity":51,"Duration":169812,"SoundDuration":169812,"Delta":161882897},{"NoteNumber":43,"Velocity":52,"Duration":168225,"SoundDuration":168225,"Delta":162052709},{"NoteNumber":44,"Velocity":53,"Duration":166977,"SoundDuration":166977,"Delta":162220935},{"NoteNumber":43,"Velocity":55,"Duration":165442,"SoundDuration":165442,"Delta":162387912},{"NoteNumber":44,"Velocity":55,"Duration":163637,"SoundDuration":163637,"Delta":162553354},{"NoteNumber":42,"Velocity":57,"Duration":162455,"SoundDuration":162455,"Delta":162716992},{"NoteNumber":61,"Velocity":66,"Duration":1262747,"SoundDuration":1262747,"Delta":162879448},{"NoteNumber":64,"Velocity":66,"Duration":1262747,"SoundDuration":1262747,"Delta":162879448},{"NoteNumber":68,"Velocity":66,"Duration":1262747,"SoundDuration":1262747,"Delta":162879448},{"NoteNumber":73,"Velocity":78,"Duration":1262747,"SoundDuration":1262747,"Delta":162879448},{"NoteNumber":40,"Velocity":58,"Duration":161002,"SoundDuration":161002,"Delta":162879448},{"NoteNumber":39,"Velocity":59,"Duration":159858,"SoundDuration":159858,"Delta":163040450},{"NoteNumber":40,"Velocity":59,"Duration":158451,"SoundDuration":158451,"Delta":163200309},{"NoteNumber":39,"Velocity":60,"Duration":157070,"SoundDuration":157070,"Delta":163358761},{"NoteNumber":40,"Velocity":61,"Duration":156795,"SoundDuration":156795,"Delta":163515832},{"NoteNumber":39,"Velocity":63,"Duration":157067,"SoundDuration":157067,"Delta":163672627},{"NoteNumber":40,"Velocity":64,"Duration":156250,"SoundDuration":156250,"Delta":163829695},{"NoteNumber":39,"Velocity":64,"Duration":156250,"SoundDuration":156250,"Delta":163985945},{"NoteNumber":64,"Velocity":74,"Duration":1228532,"SoundDuration":1228532,"Delta":164142195},{"NoteNumber":68,"Velocity":74,"Duration":1228532,"SoundDuration":1228532,"Delta":164142195},{"NoteNumber":73,"Velocity":74,"Duration":1228532,"SoundDuration":1228532,"Delta":164142195},{"NoteNumber":76,"Velocity":88,"Duration":1228532,"SoundDuration":1228532,"Delta":164142195},{"NoteNumber":37,"Velocity":66,"Duration":155440,"SoundDuration":155440,"Delta":164142195},{"NoteNumber":36,"Velocity":67,"Duration":155173,"SoundDuration":155173,"Delta":164297636},{"NoteNumber":37,"Velocity":69,"Duration":154639,"SoundDuration":154639,"Delta":164452809},{"NoteNumber":36,"Velocity":69,"Duration":154110,"SoundDuration":154110,"Delta":164607448},{"NoteNumber":37,"Velocity":70,"Duration":153846,"SoundDuration":153846,"Delta":164761559},{"NoteNumber":36,"Velocity":71,"Duration":152543,"SoundDuration":152543,"Delta":164915405},{"NoteNumber":37,"Velocity":72,"Duration":151771,"SoundDuration":151771,"Delta":165067949},{"NoteNumber":35,"Velocity":74,"Duration":151007,"SoundDuration":151007,"Delta":165219720},{"NoteNumber":67,"Velocity":85,"Duration":1182894,"SoundDuration":1182894,"Delta":165370728},{"NoteNumber":73,"Velocity":85,"Duration":1182894,"SoundDuration":1182894,"Delta":165370728},{"NoteNumber":75,"Velocity":85,"Duration":1182894,"SoundDuration":1182894,"Delta":165370728},{"NoteNumber":79,"Velocity":101,"Duration":1182894,"SoundDuration":1182894,"Delta":165370728},{"NoteNumber":33,"Velocity":74,"Duration":150251,"SoundDuration":150251,"Delta":165370728},{"NoteNumber":32,"Velocity":75,"Duration":149502,"SoundDuration":149502,"Delta":165520979},{"NoteNumber":33,"Velocity":78,"Duration":149007,"SoundDuration":149007,"Delta":165670481},{"NoteNumber":32,"Velocity":79,"Duration":148270,"SoundDuration":148270,"Delta":165819489},{"NoteNumber":33,"Velocity":79,"Duration":147541,"SoundDuration":147541,"Delta":165967760},{"NoteNumber":37,"Velocity":81,"Duration":146819,"SoundDuration":146819,"Delta":166115302},{"NoteNumber":39,"Velocity":82,"Duration":146104,"SoundDuration":146104,"Delta":166262121},{"NoteNumber":45,"Velocity":83,"Duration":145396,"SoundDuration":145396,"Delta":166408226},{"NoteNumber":68,"Velocity":88,"Duration":276497,"SoundDuration":276497,"Delta":166553622},{"NoteNumber":72,"Velocity":88,"Duration":276497,"SoundDuration":276497,"Delta":166553622},{"NoteNumber":75,"Velocity":88,"Duration":276497,"SoundDuration":276497,"Delta":166553622},{"NoteNumber":80,"Velocity":103,"Duration":276497,"SoundDuration":276497,"Delta":166553622},{"NoteNumber":32,"Velocity":80,"Duration":552995,"SoundDuration":552995,"Delta":166553622},{"NoteNumber":44,"Velocity":94,"Duration":552995,"SoundDuration":552995,"Delta":166553622},{"NoteNumber":60,"Velocity":74,"Duration":138248,"SoundDuration":138248,"Delta":166830120},{"NoteNumber":63,"Velocity":74,"Duration":138248,"SoundDuration":138248,"Delta":166830120},{"NoteNumber":68,"Velocity":89,"Duration":138248,"SoundDuration":138248,"Delta":166830120},{"NoteNumber":60,"Velocity":79,"Duration":144969,"SoundDuration":144969,"Delta":167106617},{"NoteNumber":63,"Velocity":79,"Duration":144969,"SoundDuration":144969,"Delta":167106617},{"NoteNumber":69,"Velocity":93,"Duration":144969,"SoundDuration":144969,"Delta":167106617},{"NoteNumber":32,"Velocity":69,"Duration":134771,"SoundDuration":134771,"Delta":167396556},{"NoteNumber":44,"Velocity":82,"Duration":134771,"SoundDuration":134771,"Delta":167396556},{"NoteNumber":40,"Velocity":74,"Duration":134771,"SoundDuration":134771,"Delta":167666098},{"NoteNumber":52,"Velocity":88,"Duration":134771,"SoundDuration":134771,"Delta":167666098},{"NoteNumber":61,"Velocity":74,"Duration":269542,"SoundDuration":269542,"Delta":167935640},{"NoteNumber":68,"Velocity":89,"Duration":269542,"SoundDuration":269542,"Delta":167935640},{"NoteNumber":64,"Velocity":74,"Duration":269542,"SoundDuration":269542,"Delta":167935640},{"NoteNumber":61,"Velocity":81,"Duration":279355,"SoundDuration":279355,"Delta":168205182},{"NoteNumber":64,"Velocity":81,"Duration":279355,"SoundDuration":279355,"Delta":168205182},{"NoteNumber":73,"Velocity":97,"Duration":279355,"SoundDuration":279355,"Delta":168205182},{"NoteNumber":32,"Velocity":67,"Duration":268192,"SoundDuration":268192,"Delta":168484538},{"NoteNumber":44,"Velocity":80,"Duration":268192,"SoundDuration":268192,"Delta":168484538},{"NoteNumber":57,"Velocity":88,"Duration":268192,"SoundDuration":268192,"Delta":168752730},{"NoteNumber":45,"Velocity":74,"Duration":268192,"SoundDuration":268192,"Delta":168752730},{"NoteNumber":63,"Velocity":74,"Duration":268192,"SoundDuration":268192,"Delta":169020923},{"NoteNumber":67,"Velocity":74,"Duration":268192,"SoundDuration":268192,"Delta":169020923},{"NoteNumber":73,"Velocity":89,"Duration":268192,"SoundDuration":268192,"Delta":169020923},{"NoteNumber":63,"Velocity":81,"Duration":268192,"SoundDuration":268192,"Delta":169289115},{"NoteNumber":67,"Velocity":81,"Duration":268192,"SoundDuration":268192,"Delta":169289115},{"NoteNumber":75,"Velocity":97,"Duration":268192,"SoundDuration":268192,"Delta":169289115},{"NoteNumber":73,"Velocity":81,"Duration":268192,"SoundDuration":268192,"Delta":169289115},{"NoteNumber":32,"Velocity":74,"Duration":277931,"SoundDuration":277931,"Delta":169557308},{"NoteNumber":44,"Velocity":89,"Duration":277931,"SoundDuration":277931,"Delta":169557308},{"NoteNumber":44,"Velocity":79,"Duration":277932,"SoundDuration":277932,"Delta":169835240},{"NoteNumber":56,"Velocity":93,"Duration":277932,"SoundDuration":277932,"Delta":169835240},{"NoteNumber":68,"Velocity":74,"Duration":270904,"SoundDuration":270904,"Delta":170113172},{"NoteNumber":72,"Velocity":74,"Duration":270904,"SoundDuration":270904,"Delta":170113172},{"NoteNumber":75,"Velocity":88,"Duration":270904,"SoundDuration":270904,"Delta":170113172},{"NoteNumber":68,"Velocity":81,"Duration":270904,"SoundDuration":270904,"Delta":170384077},{"NoteNumber":72,"Velocity":81,"Duration":270904,"SoundDuration":270904,"Delta":170384077},{"NoteNumber":80,"Velocity":97,"Duration":270904,"SoundDuration":270904,"Delta":170384077},{"NoteNumber":44,"Velocity":79,"Duration":135452,"SoundDuration":135452,"Delta":170654982},{"NoteNumber":56,"Velocity":93,"Duration":135452,"SoundDuration":135452,"Delta":170654982},{"NoteNumber":44,"Velocity":79,"Duration":135452,"SoundDuration":135452,"Delta":170790434},{"NoteNumber":56,"Velocity":93,"Duration":135452,"SoundDuration":135452,"Delta":170790434},{"NoteNumber":54,"Velocity":80,"Duration":523286,"SoundDuration":523286,"Delta":170925887},{"NoteNumber":66,"Velocity":94,"Duration":523286,"SoundDuration":523286,"Delta":170925887},{"NoteNumber":72,"Velocity":74,"Duration":124280,"SoundDuration":124280,"Delta":171187530},{"NoteNumber":75,"Velocity":74,"Duration":124280,"SoundDuration":124280,"Delta":171187530},{"NoteNumber":80,"Velocity":89,"Duration":124280,"SoundDuration":124280,"Delta":171187530},{"NoteNumber":72,"Velocity":74,"Duration":124280,"SoundDuration":124280,"Delta":171318351},{"NoteNumber":75,"Velocity":74,"Duration":124280,"SoundDuration":124280,"Delta":171318351},{"NoteNumber":80,"Velocity":89,"Duration":124280,"SoundDuration":124280,"Delta":171318351},{"NoteNumber":72,"Velocity":79,"Duration":273672,"SoundDuration":273672,"Delta":171449173},{"NoteNumber":75,"Velocity":79,"Duration":273672,"SoundDuration":273672,"Delta":171449173},{"NoteNumber":81,"Velocity":93,"Duration":273672,"SoundDuration":273672,"Delta":171449173},{"NoteNumber":44,"Velocity":69,"Duration":125506,"SoundDuration":125506,"Delta":171722845},{"NoteNumber":56,"Velocity":82,"Duration":125506,"SoundDuration":125506,"Delta":171722845},{"NoteNumber":44,"Velocity":69,"Duration":125506,"SoundDuration":125506,"Delta":171854957},{"NoteNumber":56,"Velocity":82,"Duration":125506,"SoundDuration":125506,"Delta":171854957},{"NoteNumber":52,"Velocity":74,"Duration":264223,"SoundDuration":264223,"Delta":171987069},{"NoteNumber":64,"Velocity":88,"Duration":264223,"SoundDuration":264223,"Delta":171987069},{"NoteNumber":73,"Velocity":74,"Duration":125506,"SoundDuration":125506,"Delta":172251293},{"NoteNumber":80,"Velocity":89,"Duration":125506,"SoundDuration":125506,"Delta":172251293},{"NoteNumber":76,"Velocity":74,"Duration":125506,"SoundDuration":125506,"Delta":172251293},{"NoteNumber":73,"Velocity":74,"Duration":125506,"SoundDuration":125506,"Delta":172383405},{"NoteNumber":76,"Velocity":74,"Duration":125506,"SoundDuration":125506,"Delta":172383405},{"NoteNumber":80,"Velocity":89,"Duration":125506,"SoundDuration":125506,"Delta":172383405},{"NoteNumber":73,"Velocity":81,"Duration":272281,"SoundDuration":272281,"Delta":172515517},{"NoteNumber":76,"Velocity":81,"Duration":272281,"SoundDuration":272281,"Delta":172515517},{"NoteNumber":85,"Velocity":97,"Duration":272281,"SoundDuration":272281,"Delta":172515517},{"NoteNumber":44,"Velocity":67,"Duration":124280,"SoundDuration":124280,"Delta":172787799},{"NoteNumber":56,"Velocity":80,"Duration":124280,"SoundDuration":124280,"Delta":172787799},{"NoteNumber":44,"Velocity":67,"Duration":124280,"SoundDuration":124280,"Delta":172918620},{"NoteNumber":56,"Velocity":80,"Duration":124280,"SoundDuration":124280,"Delta":172918620},{"NoteNumber":69,"Velocity":88,"Duration":261643,"SoundDuration":261643,"Delta":173049442},{"NoteNumber":57,"Velocity":74,"Duration":261643,"SoundDuration":261643,"Delta":173049442},{"NoteNumber":75,"Velocity":74,"Duration":124280,"SoundDuration":124280,"Delta":173311085},{"NoteNumber":79,"Velocity":74,"Duration":124280,"SoundDuration":124280,"Delta":173311085},{"NoteNumber":85,"Velocity":89,"Duration":124280,"SoundDuration":124280,"Delta":173311085},{"NoteNumber":75,"Velocity":74,"Duration":124280,"SoundDuration":124280,"Delta":173441906},{"NoteNumber":79,"Velocity":74,"Duration":124280,"SoundDuration":124280,"Delta":173441906},{"NoteNumber":85,"Velocity":89,"Duration":124280,"SoundDuration":124280,"Delta":173441906},{"NoteNumber":75,"Velocity":81,"Duration":261642,"SoundDuration":261642,"Delta":173572728},{"NoteNumber":79,"Velocity":81,"Duration":261642,"SoundDuration":261642,"Delta":173572728},{"NoteNumber":87,"Velocity":97,"Duration":261642,"SoundDuration":261642,"Delta":173572728},{"NoteNumber":85,"Velocity":97,"Duration":261642,"SoundDuration":261642,"Delta":173572728},{"NoteNumber":44,"Velocity":74,"Duration":129333,"SoundDuration":129333,"Delta":173834371},{"NoteNumber":56,"Velocity":89,"Duration":129333,"SoundDuration":129333,"Delta":173834371},{"NoteNumber":44,"Velocity":74,"Duration":129333,"SoundDuration":129333,"Delta":173970512},{"NoteNumber":56,"Velocity":89,"Duration":129333,"SoundDuration":129333,"Delta":173970512},{"NoteNumber":56,"Velocity":79,"Duration":265533,"SoundDuration":265533,"Delta":174106652},{"NoteNumber":68,"Velocity":93,"Duration":265533,"SoundDuration":265533,"Delta":174106652},{"NoteNumber":80,"Velocity":74,"Duration":128679,"SoundDuration":128679,"Delta":174372186},{"NoteNumber":84,"Velocity":74,"Duration":128679,"SoundDuration":128679,"Delta":174372186},{"NoteNumber":87,"Velocity":88,"Duration":128679,"SoundDuration":128679,"Delta":174372186},{"NoteNumber":80,"Velocity":74,"Duration":128679,"SoundDuration":128679,"Delta":174507638},{"NoteNumber":84,"Velocity":74,"Duration":128679,"SoundDuration":128679,"Delta":174507638},{"NoteNumber":87,"Velocity":88,"Duration":128679,"SoundDuration":128679,"Delta":174507638},{"NoteNumber":80,"Velocity":81,"Duration":265533,"SoundDuration":265533,"Delta":174643091},{"NoteNumber":84,"Velocity":81,"Duration":265533,"SoundDuration":265533,"Delta":174643091},{"NoteNumber":92,"Velocity":97,"Duration":265533,"SoundDuration":265533,"Delta":174643091},{"NoteNumber":56,"Velocity":74,"Duration":135071,"SoundDuration":135071,"Delta":174908624},{"NoteNumber":68,"Velocity":89,"Duration":135071,"SoundDuration":135071,"Delta":174908624},{"NoteNumber":56,"Velocity":75,"Duration":135071,"SoundDuration":135071,"Delta":175050804},{"NoteNumber":68,"Velocity":90,"Duration":135071,"SoundDuration":135071,"Delta":175050804},{"NoteNumber":66,"Velocity":93,"Duration":267856,"SoundDuration":267856,"Delta":175192984},{"NoteNumber":54,"Velocity":79,"Duration":267856,"SoundDuration":267856,"Delta":175192984},{"NoteNumber":93,"Velocity":81,"Duration":131944,"SoundDuration":131944,"Delta":175460841},{"NoteNumber":87,"Velocity":68,"Duration":131944,"SoundDuration":131944,"Delta":175460841},{"NoteNumber":84,"Velocity":68,"Duration":131944,"SoundDuration":131944,"Delta":175460841},{"NoteNumber":81,"Velocity":68,"Duration":131944,"SoundDuration":131944,"Delta":175460841},{"NoteNumber":81,"Velocity":67,"Duration":131944,"SoundDuration":131944,"Delta":175599730},{"NoteNumber":84,"Velocity":67,"Duration":131944,"SoundDuration":131944,"Delta":175599730},{"NoteNumber":87,"Velocity":67,"Duration":131944,"SoundDuration":131944,"Delta":175599730},{"NoteNumber":93,"Velocity":80,"Duration":131944,"SoundDuration":131944,"Delta":175599730},{"NoteNumber":54,"Velocity":69,"Duration":138889,"SoundDuration":138889,"Delta":175599730},{"NoteNumber":66,"Velocity":82,"Duration":138889,"SoundDuration":138889,"Delta":175599730},{"NoteNumber":51,"Velocity":75,"Duration":266666,"SoundDuration":266666,"Delta":175738619},{"NoteNumber":63,"Velocity":90,"Duration":266666,"SoundDuration":266666,"Delta":175738619},{"NoteNumber":90,"Velocity":80,"Duration":126666,"SoundDuration":126666,"Delta":176005286},{"NoteNumber":84,"Velocity":67,"Duration":126666,"SoundDuration":126666,"Delta":176005286},{"NoteNumber":81,"Velocity":67,"Duration":126666,"SoundDuration":126666,"Delta":176005286},{"NoteNumber":78,"Velocity":67,"Duration":126666,"SoundDuration":126666,"Delta":176005286},{"NoteNumber":78,"Velocity":67,"Duration":126666,"SoundDuration":126666,"Delta":176138619},{"NoteNumber":81,"Velocity":67,"Duration":126666,"SoundDuration":126666,"Delta":176138619},{"NoteNumber":84,"Velocity":67,"Duration":126666,"SoundDuration":126666,"Delta":176138619},{"NoteNumber":90,"Velocity":79,"Duration":126666,"SoundDuration":126666,"Delta":176138619},{"NoteNumber":63,"Velocity":78,"Duration":133333,"SoundDuration":133333,"Delta":176138619},{"NoteNumber":51,"Velocity":66,"Duration":133333,"SoundDuration":133333,"Delta":176138619},{"NoteNumber":48,"Velocity":73,"Duration":266666,"SoundDuration":266666,"Delta":176271952},{"NoteNumber":60,"Velocity":86,"Duration":266666,"SoundDuration":266666,"Delta":176271952},{"NoteNumber":87,"Velocity":75,"Duration":126666,"SoundDuration":126666,"Delta":176538619},{"NoteNumber":81,"Velocity":63,"Duration":126666,"SoundDuration":126666,"Delta":176538619},{"NoteNumber":78,"Velocity":63,"Duration":126666,"SoundDuration":126666,"Delta":176538619},{"NoteNumber":75,"Velocity":63,"Duration":126666,"SoundDuration":126666,"Delta":176538619},{"NoteNumber":75,"Velocity":63,"Duration":126666,"SoundDuration":126666,"Delta":176671952},{"NoteNumber":78,"Velocity":63,"Duration":126666,"SoundDuration":126666,"Delta":176671952},{"NoteNumber":81,"Velocity":63,"Duration":126666,"SoundDuration":126666,"Delta":176671952},{"NoteNumber":87,"Velocity":75,"Duration":126666,"SoundDuration":126666,"Delta":176671952},{"NoteNumber":48,"Velocity":63,"Duration":133333,"SoundDuration":133333,"Delta":176671952},{"NoteNumber":60,"Velocity":75,"Duration":133333,"SoundDuration":133333,"Delta":176671952},{"NoteNumber":44,"Velocity":69,"Duration":266666,"SoundDuration":266666,"Delta":176805285},{"NoteNumber":56,"Velocity":82,"Duration":266666,"SoundDuration":266666,"Delta":176805285},{"NoteNumber":84,"Velocity":72,"Duration":129545,"SoundDuration":129545,"Delta":177071952},{"NoteNumber":78,"Velocity":61,"Duration":129545,"SoundDuration":129545,"Delta":177071952},{"NoteNumber":75,"Velocity":61,"Duration":129545,"SoundDuration":129545,"Delta":177071952},{"NoteNumber":72,"Velocity":61,"Duration":129545,"SoundDuration":129545,"Delta":177071952},{"NoteNumber":72,"Velocity":61,"Duration":129545,"SoundDuration":129545,"Delta":177208316},{"NoteNumber":75,"Velocity":61,"Duration":129545,"SoundDuration":129545,"Delta":177208316},{"NoteNumber":78,"Velocity":61,"Duration":129545,"SoundDuration":129545,"Delta":177208316},{"NoteNumber":84,"Velocity":72,"Duration":129545,"SoundDuration":129545,"Delta":177208316},{"NoteNumber":44,"Velocity":61,"Duration":136363,"SoundDuration":136363,"Delta":177208316},{"NoteNumber":56,"Velocity":73,"Duration":136363,"SoundDuration":136363,"Delta":177208316},{"NoteNumber":45,"Velocity":70,"Duration":272727,"SoundDuration":272727,"Delta":177344679},{"NoteNumber":57,"Velocity":84,"Duration":272727,"SoundDuration":272727,"Delta":177344679},{"NoteNumber":72,"Velocity":64,"Duration":129545,"SoundDuration":129545,"Delta":177617407},{"NoteNumber":75,"Velocity":64,"Duration":129545,"SoundDuration":129545,"Delta":177617407},{"NoteNumber":78,"Velocity":64,"Duration":129545,"SoundDuration":129545,"Delta":177617407},{"NoteNumber":84,"Velocity":77,"Duration":129545,"SoundDuration":129545,"Delta":177617407},{"NoteNumber":84,"Velocity":78,"Duration":128959,"SoundDuration":128959,"Delta":177753771},{"NoteNumber":78,"Velocity":66,"Duration":128959,"SoundDuration":128959,"Delta":177753771},{"NoteNumber":75,"Velocity":66,"Duration":128959,"SoundDuration":128959,"Delta":177753771},{"NoteNumber":72,"Velocity":66,"Duration":128959,"SoundDuration":128959,"Delta":177753771},{"NoteNumber":33,"Velocity":67,"Duration":128959,"SoundDuration":128959,"Delta":177753771},{"NoteNumber":45,"Velocity":79,"Duration":128959,"SoundDuration":128959,"Delta":177753771},{"NoteNumber":33,"Velocity":74,"Duration":272729,"SoundDuration":272729,"Delta":177889517},{"NoteNumber":45,"Velocity":89,"Duration":272729,"SoundDuration":272729,"Delta":177889517},{"NoteNumber":85,"Velocity":81,"Duration":130136,"SoundDuration":130136,"Delta":178162246},{"NoteNumber":79,"Velocity":68,"Duration":130136,"SoundDuration":130136,"Delta":178162246},{"NoteNumber":76,"Velocity":68,"Duration":130136,"SoundDuration":130136,"Delta":178162246},{"NoteNumber":73,"Velocity":68,"Duration":130136,"SoundDuration":130136,"Delta":178162246},{"NoteNumber":73,"Velocity":70,"Duration":130734,"SoundDuration":130734,"Delta":178299233},{"NoteNumber":76,"Velocity":70,"Duration":130734,"SoundDuration":130734,"Delta":178299233},{"NoteNumber":79,"Velocity":70,"Duration":130734,"SoundDuration":130734,"Delta":178299233},{"NoteNumber":85,"Velocity":84,"Duration":130734,"SoundDuration":130734,"Delta":178299233},{"NoteNumber":33,"Velocity":72,"Duration":130734,"SoundDuration":130734,"Delta":178299233},{"NoteNumber":45,"Velocity":85,"Duration":130734,"SoundDuration":130734,"Delta":178299233},{"NoteNumber":33,"Velocity":79,"Duration":276497,"SoundDuration":276497,"Delta":178436847},{"NoteNumber":45,"Velocity":93,"Duration":276497,"SoundDuration":276497,"Delta":178436847},{"NoteNumber":87,"Velocity":89,"Duration":136363,"SoundDuration":136363,"Delta":178713345},{"NoteNumber":85,"Velocity":89,"Duration":136363,"SoundDuration":136363,"Delta":178713345},{"NoteNumber":79,"Velocity":74,"Duration":136363,"SoundDuration":136363,"Delta":178713345},{"NoteNumber":75,"Velocity":74,"Duration":136363,"SoundDuration":136363,"Delta":178713345},{"NoteNumber":75,"Velocity":75,"Duration":136363,"SoundDuration":136363,"Delta":178856886},{"NoteNumber":79,"Velocity":75,"Duration":136363,"SoundDuration":136363,"Delta":178856886},{"NoteNumber":85,"Velocity":90,"Duration":136363,"SoundDuration":136363,"Delta":178856886},{"NoteNumber":87,"Velocity":90,"Duration":136363,"SoundDuration":136363,"Delta":178856886},{"NoteNumber":33,"Velocity":74,"Duration":143540,"SoundDuration":143540,"Delta":178856886},{"NoteNumber":45,"Velocity":88,"Duration":143540,"SoundDuration":143540,"Delta":178856886},{"NoteNumber":92,"Velocity":106,"Duration":272727,"SoundDuration":272727,"Delta":179000426},{"NoteNumber":87,"Velocity":90,"Duration":272727,"SoundDuration":272727,"Delta":179000426},{"NoteNumber":84,"Velocity":90,"Duration":272727,"SoundDuration":272727,"Delta":179000426},{"NoteNumber":80,"Velocity":90,"Duration":272727,"SoundDuration":272727,"Delta":179000426},{"NoteNumber":32,"Velocity":84,"Duration":272727,"SoundDuration":272727,"Delta":179000426},{"NoteNumber":44,"Velocity":100,"Duration":272727,"SoundDuration":272727,"Delta":179000426},{"NoteNumber":44,"Velocity":45,"Duration":133333,"SoundDuration":133333,"Delta":179273154},{"NoteNumber":56,"Velocity":53,"Duration":133333,"SoundDuration":133333,"Delta":179273154},{"NoteNumber":44,"Velocity":45,"Duration":133333,"SoundDuration":133333,"Delta":179406487},{"NoteNumber":56,"Velocity":53,"Duration":133333,"SoundDuration":133333,"Delta":179406487},{"NoteNumber":54,"Velocity":58,"Duration":266666,"SoundDuration":266666,"Delta":179539820},{"NoteNumber":42,"Velocity":49,"Duration":266666,"SoundDuration":266666,"Delta":179539820},{"NoteNumber":81,"Velocity":53,"Duration":126666,"SoundDuration":126666,"Delta":179806487},{"NoteNumber":75,"Velocity":45,"Duration":126666,"SoundDuration":126666,"Delta":179806487},{"NoteNumber":72,"Velocity":45,"Duration":126666,"SoundDuration":126666,"Delta":179806487},{"NoteNumber":69,"Velocity":45,"Duration":126666,"SoundDuration":126666,"Delta":179806487},{"NoteNumber":69,"Velocity":45,"Duration":126666,"SoundDuration":126666,"Delta":179939820},{"NoteNumber":72,"Velocity":45,"Duration":126666,"SoundDuration":126666,"Delta":179939820},{"NoteNumber":75,"Velocity":45,"Duration":126666,"SoundDuration":126666,"Delta":179939820},{"NoteNumber":81,"Velocity":53,"Duration":126666,"SoundDuration":126666,"Delta":179939820},{"NoteNumber":42,"Velocity":45,"Duration":126666,"SoundDuration":126666,"Delta":179939820},{"NoteNumber":54,"Velocity":53,"Duration":126666,"SoundDuration":126666,"Delta":179939820},{"NoteNumber":39,"Velocity":48,"Duration":266666,"SoundDuration":266666,"Delta":180073153},{"NoteNumber":51,"Velocity":57,"Duration":266666,"SoundDuration":266666,"Delta":180073153},{"NoteNumber":78,"Velocity":52,"Duration":126666,"SoundDuration":126666,"Delta":180339820},{"NoteNumber":72,"Velocity":44,"Duration":126666,"SoundDuration":126666,"Delta":180339820},{"NoteNumber":69,"Velocity":44,"Duration":126666,"SoundDuration":126666,"Delta":180339820},{"NoteNumber":66,"Velocity":44,"Duration":126666,"SoundDuration":126666,"Delta":180339820},{"NoteNumber":66,"Velocity":44,"Duration":126666,"SoundDuration":126666,"Delta":180473153},{"NoteNumber":69,"Velocity":44,"Duration":126666,"SoundDuration":126666,"Delta":180473153},{"NoteNumber":72,"Velocity":44,"Duration":126666,"SoundDuration":126666,"Delta":180473153},{"NoteNumber":78,"Velocity":52,"Duration":126666,"SoundDuration":126666,"Delta":180473153},{"NoteNumber":51,"Velocity":51,"Duration":126666,"SoundDuration":126666,"Delta":180473153},{"NoteNumber":39,"Velocity":42,"Duration":126666,"SoundDuration":126666,"Delta":180473153},{"NoteNumber":36,"Velocity":47,"Duration":265683,"SoundDuration":265683,"Delta":180606486},{"NoteNumber":48,"Velocity":56,"Duration":265683,"SoundDuration":265683,"Delta":180606486},{"NoteNumber":75,"Velocity":51,"Duration":126666,"SoundDuration":126666,"Delta":180872170},{"NoteNumber":69,"Velocity":42,"Duration":126666,"SoundDuration":126666,"Delta":180872170},{"NoteNumber":66,"Velocity":42,"Duration":126666,"SoundDuration":126666,"Delta":180872170},{"NoteNumber":63,"Velocity":42,"Duration":126666,"SoundDuration":126666,"Delta":180872170},{"NoteNumber":63,"Velocity":42,"Duration":127232,"SoundDuration":127232,"Delta":181005503},{"NoteNumber":66,"Velocity":42,"Duration":127232,"SoundDuration":127232,"Delta":181005503},{"NoteNumber":69,"Velocity":42,"Duration":127232,"SoundDuration":127232,"Delta":181005503},{"NoteNumber":75,"Velocity":51,"Duration":127232,"SoundDuration":127232,"Delta":181005503},{"NoteNumber":36,"Velocity":42,"Duration":127232,"SoundDuration":127232,"Delta":181005503},{"NoteNumber":48,"Velocity":50,"Duration":127232,"SoundDuration":127232,"Delta":181005503},{"NoteNumber":32,"Velocity":46,"Duration":269060,"SoundDuration":269060,"Delta":181139431},{"NoteNumber":44,"Velocity":55,"Duration":269060,"SoundDuration":269060,"Delta":181139431},{"NoteNumber":72,"Velocity":50,"Duration":133177,"SoundDuration":133177,"Delta":181408492},{"NoteNumber":66,"Velocity":42,"Duration":133177,"SoundDuration":133177,"Delta":181408492},{"NoteNumber":63,"Velocity":42,"Duration":133177,"SoundDuration":133177,"Delta":181408492},{"NoteNumber":60,"Velocity":42,"Duration":133177,"SoundDuration":133177,"Delta":181408492},{"NoteNumber":60,"Velocity":42,"Duration":133177,"SoundDuration":133177,"Delta":181548679},{"NoteNumber":63,"Velocity":42,"Duration":133177,"SoundDuration":133177,"Delta":181548679},{"NoteNumber":66,"Velocity":42,"Duration":133177,"SoundDuration":133177,"Delta":181548679},{"NoteNumber":72,"Velocity":50,"Duration":133177,"SoundDuration":133177,"Delta":181548679},{"NoteNumber":32,"Velocity":41,"Duration":133177,"SoundDuration":133177,"Delta":181548679},{"NoteNumber":44,"Velocity":49,"Duration":133177,"SoundDuration":133177,"Delta":181548679},{"NoteNumber":33,"Velocity":45,"Duration":281032,"SoundDuration":281032,"Delta":181688866},{"NoteNumber":45,"Velocity":53,"Duration":281032,"SoundDuration":281032,"Delta":181688866},{"NoteNumber":60,"Velocity":41,"Duration":134212,"SoundDuration":134212,"Delta":181969898},{"NoteNumber":63,"Velocity":41,"Duration":134212,"SoundDuration":134212,"Delta":181969898},{"NoteNumber":66,"Velocity":41,"Duration":134212,"SoundDuration":134212,"Delta":181969898},{"NoteNumber":72,"Velocity":49,"Duration":134212,"SoundDuration":134212,"Delta":181969898},{"NoteNumber":72,"Velocity":49,"Duration":134624,"SoundDuration":134624,"Delta":182111186},{"NoteNumber":66,"Velocity":41,"Duration":134624,"SoundDuration":134624,"Delta":182111186},{"NoteNumber":63,"Velocity":41,"Duration":134624,"SoundDuration":134624,"Delta":182111186},{"NoteNumber":60,"Velocity":41,"Duration":134624,"SoundDuration":134624,"Delta":182111186},{"NoteNumber":33,"Velocity":39,"Duration":134624,"SoundDuration":134624,"Delta":182111186},{"NoteNumber":45,"Velocity":47,"Duration":134624,"SoundDuration":134624,"Delta":182111186},{"NoteNumber":33,"Velocity":44,"Duration":285037,"SoundDuration":285037,"Delta":182252919},{"NoteNumber":45,"Velocity":52,"Duration":285037,"SoundDuration":285037,"Delta":182252919},{"NoteNumber":73,"Velocity":48,"Duration":136135,"SoundDuration":136135,"Delta":182537956},{"NoteNumber":67,"Velocity":40,"Duration":136135,"SoundDuration":136135,"Delta":182537956},{"NoteNumber":64,"Velocity":40,"Duration":136135,"SoundDuration":136135,"Delta":182537956},{"NoteNumber":61,"Velocity":40,"Duration":136135,"SoundDuration":136135,"Delta":182537956},{"NoteNumber":61,"Velocity":39,"Duration":136559,"SoundDuration":136559,"Delta":182681269},{"NoteNumber":64,"Velocity":39,"Duration":136559,"SoundDuration":136559,"Delta":182681269},{"NoteNumber":67,"Velocity":39,"Duration":136559,"SoundDuration":136559,"Delta":182681269},{"NoteNumber":73,"Velocity":47,"Duration":136559,"SoundDuration":136559,"Delta":182681269},{"NoteNumber":33,"Velocity":39,"Duration":136559,"SoundDuration":136559,"Delta":182681269},{"NoteNumber":45,"Velocity":47,"Duration":136559,"SoundDuration":136559,"Delta":182681269},{"NoteNumber":33,"Velocity":42,"Duration":294117,"SoundDuration":294117,"Delta":182825039},{"NoteNumber":45,"Velocity":50,"Duration":294117,"SoundDuration":294117,"Delta":182825039},{"NoteNumber":75,"Velocity":67,"Duration":131944,"SoundDuration":131944,"Delta":183119157},{"NoteNumber":73,"Velocity":56,"Duration":131944,"SoundDuration":131944,"Delta":183119157},{"NoteNumber":67,"Velocity":56,"Duration":131944,"SoundDuration":131944,"Delta":183119157},{"NoteNumber":63,"Velocity":56,"Duration":131944,"SoundDuration":131944,"Delta":183119157},{"NoteNumber":63,"Velocity":56,"Duration":131944,"SoundDuration":131944,"Delta":183258046},{"NoteNumber":67,"Velocity":56,"Duration":131944,"SoundDuration":131944,"Delta":183258046},{"NoteNumber":73,"Velocity":56,"Duration":131944,"SoundDuration":131944,"Delta":183258046},{"NoteNumber":75,"Velocity":67,"Duration":131944,"SoundDuration":131944,"Delta":183258046},{"NoteNumber":33,"Velocity":56,"Duration":131944,"SoundDuration":131944,"Delta":183258046},{"NoteNumber":45,"Velocity":66,"Duration":131944,"SoundDuration":131944,"Delta":183258046},{"NoteNumber":80,"Velocity":73,"Duration":279069,"SoundDuration":279069,"Delta":183396935},{"NoteNumber":75,"Velocity":61,"Duration":279069,"SoundDuration":279069,"Delta":183396935},{"NoteNumber":72,"Velocity":61,"Duration":279069,"SoundDuration":279069,"Delta":183396935},{"NoteNumber":68,"Velocity":61,"Duration":279069,"SoundDuration":279069,"Delta":183396935},{"NoteNumber":32,"Velocity":59,"Duration":279069,"SoundDuration":279069,"Delta":183396935},{"NoteNumber":44,"Velocity":70,"Duration":279069,"SoundDuration":279069,"Delta":183396935},{"NoteNumber":44,"Velocity":56,"Duration":132558,"SoundDuration":132558,"Delta":183676005},{"NoteNumber":44,"Velocity":56,"Duration":132558,"SoundDuration":132558,"Delta":183815540},{"NoteNumber":45,"Velocity":49,"Duration":149253,"SoundDuration":149253,"Delta":183955075},{"NoteNumber":66,"Velocity":51,"Duration":70754,"SoundDuration":70754,"Delta":184253582},{"NoteNumber":63,"Velocity":36,"Duration":70754,"SoundDuration":70754,"Delta":184253582},{"NoteNumber":60,"Velocity":36,"Duration":70754,"SoundDuration":70754,"Delta":184253582},{"NoteNumber":60,"Velocity":36,"Duration":70754,"SoundDuration":70754,"Delta":184395092},{"NoteNumber":63,"Velocity":36,"Duration":70754,"SoundDuration":70754,"Delta":184395092},{"NoteNumber":66,"Velocity":51,"Duration":70754,"SoundDuration":70754,"Delta":184395092},{"NoteNumber":48,"Velocity":53,"Duration":146341,"SoundDuration":146341,"Delta":184536601},{"NoteNumber":66,"Velocity":48,"Duration":73170,"SoundDuration":73170,"Delta":184829284},{"NoteNumber":63,"Velocity":33,"Duration":73170,"SoundDuration":73170,"Delta":184829284},{"NoteNumber":57,"Velocity":33,"Duration":73170,"SoundDuration":73170,"Delta":184829284},{"NoteNumber":57,"Velocity":33,"Duration":73170,"SoundDuration":73170,"Delta":184975626},{"NoteNumber":63,"Velocity":33,"Duration":73170,"SoundDuration":73170,"Delta":184975626},{"NoteNumber":66,"Velocity":48,"Duration":73170,"SoundDuration":73170,"Delta":184975626},{"NoteNumber":45,"Velocity":49,"Duration":149253,"SoundDuration":149253,"Delta":185121967},{"NoteNumber":66,"Velocity":45,"Duration":76923,"SoundDuration":76923,"Delta":185420475},{"NoteNumber":63,"Velocity":31,"Duration":76923,"SoundDuration":76923,"Delta":185420475},{"NoteNumber":60,"Velocity":31,"Duration":76923,"SoundDuration":76923,"Delta":185420475},{"NoteNumber":60,"Velocity":31,"Duration":76923,"SoundDuration":76923,"Delta":185574321},{"NoteNumber":63,"Velocity":31,"Duration":76923,"SoundDuration":76923,"Delta":185574321},{"NoteNumber":66,"Velocity":45,"Duration":76923,"SoundDuration":76923,"Delta":185574321},{"NoteNumber":48,"Velocity":46,"Duration":161290,"SoundDuration":161290,"Delta":185728167},{"NoteNumber":66,"Velocity":42,"Duration":76923,"SoundDuration":76923,"Delta":186050748},{"NoteNumber":63,"Velocity":28,"Duration":76923,"SoundDuration":76923,"Delta":186050748},{"NoteNumber":57,"Velocity":28,"Duration":76923,"SoundDuration":76923,"Delta":186050748},{"NoteNumber":57,"Velocity":28,"Duration":76923,"SoundDuration":76923,"Delta":186204594},{"NoteNumber":63,"Velocity":28,"Duration":76923,"SoundDuration":76923,"Delta":186204594},{"NoteNumber":66,"Velocity":40,"Duration":76923,"SoundDuration":76923,"Delta":186204594},{"NoteNumber":44,"Velocity":39,"Duration":157343,"SoundDuration":157343,"Delta":186358440},{"NoteNumber":60,"Velocity":26,"Duration":79929,"SoundDuration":79929,"Delta":186674236},{"NoteNumber":66,"Velocity":26,"Duration":79929,"SoundDuration":79929,"Delta":186674236},{"NoteNumber":68,"Velocity":39,"Duration":79929,"SoundDuration":79929,"Delta":186674236},{"NoteNumber":68,"Velocity":39,"Duration":80645,"SoundDuration":80645,"Delta":186834379},{"NoteNumber":66,"Velocity":26,"Duration":80645,"SoundDuration":80645,"Delta":186834379},{"NoteNumber":60,"Velocity":26,"Duration":80645,"SoundDuration":80645,"Delta":186834379},{"NoteNumber":51,"Velocity":36,"Duration":163046,"SoundDuration":163046,"Delta":186995960},{"NoteNumber":56,"Velocity":26,"Duration":82872,"SoundDuration":82872,"Delta":187323542},{"NoteNumber":68,"Velocity":35,"Duration":82872,"SoundDuration":82872,"Delta":187323542},{"NoteNumber":66,"Velocity":30,"Duration":82872,"SoundDuration":82872,"Delta":187323542},{"NoteNumber":60,"Velocity":25,"Duration":82872,"SoundDuration":82872,"Delta":187323542},{"NoteNumber":56,"Velocity":24,"Duration":83798,"SoundDuration":83798,"Delta":187489595},{"NoteNumber":60,"Velocity":23,"Duration":83798,"SoundDuration":83798,"Delta":187489595},{"NoteNumber":66,"Velocity":28,"Duration":83798,"SoundDuration":83798,"Delta":187489595},{"NoteNumber":68,"Velocity":33,"Duration":83798,"SoundDuration":83798,"Delta":187489595},{"NoteNumber":44,"Velocity":33,"Duration":172440,"SoundDuration":172440,"Delta":187657506},{"NoteNumber":60,"Velocity":23,"Duration":93951,"SoundDuration":93951,"Delta":188011070},{"NoteNumber":66,"Velocity":28,"Duration":93951,"SoundDuration":93951,"Delta":188011070},{"NoteNumber":68,"Velocity":33,"Duration":93951,"SoundDuration":93951,"Delta":188011070},{"NoteNumber":68,"Velocity":33,"Duration":99125,"SoundDuration":99125,"Delta":188201594},{"NoteNumber":66,"Velocity":28,"Duration":99125,"SoundDuration":99125,"Delta":188201594},{"NoteNumber":60,"Velocity":23,"Duration":99125,"SoundDuration":99125,"Delta":188201594},{"NoteNumber":51,"Velocity":29,"Duration":208333,"SoundDuration":208333,"Delta":188402537},{"NoteNumber":56,"Velocity":22,"Duration":116279,"SoundDuration":116279,"Delta":188819203},{"NoteNumber":68,"Velocity":31,"Duration":116279,"SoundDuration":116279,"Delta":188819203},{"NoteNumber":66,"Velocity":27,"Duration":116279,"SoundDuration":116279,"Delta":188819203},{"NoteNumber":60,"Velocity":22,"Duration":116279,"SoundDuration":116279,"Delta":188819203},{"NoteNumber":56,"Velocity":21,"Duration":164835,"SoundDuration":164835,"Delta":189051762},{"NoteNumber":60,"Velocity":21,"Duration":164835,"SoundDuration":164835,"Delta":189051762},{"NoteNumber":66,"Velocity":25,"Duration":164835,"SoundDuration":164835,"Delta":189051762},{"NoteNumber":68,"Velocity":29,"Duration":164835,"SoundDuration":164835,"Delta":189051762},{"NoteNumber":68,"Velocity":28,"Duration":1974984,"SoundDuration":1974984,"Delta":189381432},{"NoteNumber":80,"Velocity":37,"Duration":1974984,"SoundDuration":1974984,"Delta":189381432},{"NoteNumber":49,"Velocity":34,"Duration":164581,"SoundDuration":164581,"Delta":189381432},{"NoteNumber":56,"Velocity":29,"Duration":329164,"SoundDuration":329164,"Delta":189710596},{"NoteNumber":61,"Velocity":29,"Duration":329163,"SoundDuration":329163,"Delta":190039760},{"NoteNumber":65,"Velocity":29,"Duration":329163,"SoundDuration":329163,"Delta":190368924},{"NoteNumber":61,"Velocity":29,"Duration":329163,"SoundDuration":329163,"Delta":190698088},{"NoteNumber":56,"Velocity":29,"Duration":329164,"SoundDuration":329164,"Delta":191027252},{"NoteNumber":68,"Velocity":27,"Duration":937105,"SoundDuration":937105,"Delta":191356416},{"NoteNumber":80,"Velocity":37,"Duration":937105,"SoundDuration":937105,"Delta":191356416},{"NoteNumber":49,"Velocity":34,"Duration":157828,"SoundDuration":157828,"Delta":191356416},{"NoteNumber":56,"Velocity":29,"Duration":315656,"SoundDuration":315656,"Delta":191672073},{"NoteNumber":61,"Velocity":29,"Duration":315656,"SoundDuration":315656,"Delta":191987729},{"NoteNumber":68,"Velocity":28,"Duration":1001400,"SoundDuration":1001400,"Delta":192303386},{"NoteNumber":80,"Velocity":37,"Duration":1001400,"SoundDuration":1001400,"Delta":192303386},{"NoteNumber":65,"Velocity":29,"Duration":326370,"SoundDuration":326370,"Delta":192303386},{"NoteNumber":61,"Velocity":29,"Duration":326370,"SoundDuration":326370,"Delta":192629757},{"NoteNumber":56,"Velocity":29,"Duration":359906,"SoundDuration":359906,"Delta":192956127},{"NoteNumber":68,"Velocity":36,"Duration":1464895,"SoundDuration":1464895,"Delta":193316034},{"NoteNumber":80,"Velocity":47,"Duration":1464895,"SoundDuration":1464895,"Delta":193316034},{"NoteNumber":48,"Velocity":34,"Duration":164581,"SoundDuration":164581,"Delta":193316034},{"NoteNumber":56,"Velocity":30,"Duration":329164,"SoundDuration":329164,"Delta":193645198},{"NoteNumber":63,"Velocity":30,"Duration":329163,"SoundDuration":329163,"Delta":193974362},{"NoteNumber":66,"Velocity":30,"Duration":318268,"SoundDuration":318268,"Delta":194303526},{"NoteNumber":63,"Velocity":30,"Duration":318268,"SoundDuration":318268,"Delta":194621794},{"NoteNumber":70,"Velocity":38,"Duration":477402,"SoundDuration":477402,"Delta":194780929},{"NoteNumber":82,"Velocity":40,"Duration":477402,"SoundDuration":477402,"Delta":194780929},{"NoteNumber":56,"Velocity":30,"Duration":318268,"SoundDuration":318268,"Delta":194940063},{"NoteNumber":80,"Velocity":40,"Duration":1992181,"SoundDuration":1992181,"Delta":195258332},{"NoteNumber":68,"Velocity":38,"Duration":1992181,"SoundDuration":1992181,"Delta":195258332},{"NoteNumber":48,"Velocity":34,"Duration":164581,"SoundDuration":164581,"Delta":195258332},{"NoteNumber":56,"Velocity":30,"Duration":329164,"SoundDuration":329164,"Delta":195587496},{"NoteNumber":63,"Velocity":30,"Duration":329163,"SoundDuration":329163,"Delta":195916660},{"NoteNumber":66,"Velocity":29,"Duration":334896,"SoundDuration":334896,"Delta":196245824},{"NoteNumber":63,"Velocity":29,"Duration":334896,"SoundDuration":334896,"Delta":196580720},{"NoteNumber":56,"Velocity":29,"Duration":334896,"SoundDuration":334896,"Delta":196915616},{"NoteNumber":65,"Velocity":28,"Duration":1974984,"SoundDuration":1974984,"Delta":197250513},{"NoteNumber":77,"Velocity":37,"Duration":1974984,"SoundDuration":1974984,"Delta":197250513},{"NoteNumber":49,"Velocity":34,"Duration":164581,"SoundDuration":164581,"Delta":197250513},{"NoteNumber":56,"Velocity":29,"Duration":329164,"SoundDuration":329164,"Delta":197579677},{"NoteNumber":61,"Velocity":29,"Duration":329163,"SoundDuration":329163,"Delta":197908841},{"NoteNumber":65,"Velocity":29,"Duration":329163,"SoundDuration":329163,"Delta":198238005},{"NoteNumber":61,"Velocity":29,"Duration":329163,"SoundDuration":329163,"Delta":198567169},{"NoteNumber":56,"Velocity":29,"Duration":329164,"SoundDuration":329164,"Delta":198896333},{"NoteNumber":68,"Velocity":27,"Duration":473485,"SoundDuration":473485,"Delta":199225497},{"NoteNumber":80,"Velocity":37,"Duration":473485,"SoundDuration":473485,"Delta":199225497},{"NoteNumber":46,"Velocity":34,"Duration":157828,"SoundDuration":157828,"Delta":199225497},{"NoteNumber":61,"Velocity":29,"Duration":315656,"SoundDuration":315656,"Delta":199541153},{"NoteNumber":67,"Velocity":27,"Duration":473484,"SoundDuration":473484,"Delta":199698982},{"NoteNumber":79,"Velocity":37,"Duration":473484,"SoundDuration":473484,"Delta":199698982},{"NoteNumber":63,"Velocity":29,"Duration":315656,"SoundDuration":315656,"Delta":199856810},{"NoteNumber":65,"Velocity":28,"Duration":489555,"SoundDuration":489555,"Delta":200172467},{"NoteNumber":77,"Velocity":37,"Duration":489555,"SoundDuration":489555,"Delta":200172467},{"NoteNumber":51,"Velocity":29,"Duration":326370,"SoundDuration":326370,"Delta":200172467},{"NoteNumber":61,"Velocity":29,"Duration":326370,"SoundDuration":326370,"Delta":200498837},{"NoteNumber":67,"Velocity":27,"Duration":523091,"SoundDuration":523091,"Delta":200662023},{"NoteNumber":79,"Velocity":37,"Duration":523091,"SoundDuration":523091,"Delta":200662023},{"NoteNumber":63,"Velocity":29,"Duration":359906,"SoundDuration":359906,"Delta":200825208},{"NoteNumber":68,"Velocity":36,"Duration":2929789,"SoundDuration":2929789,"Delta":201185114},{"NoteNumber":80,"Velocity":47,"Duration":2929789,"SoundDuration":2929789,"Delta":201185114},{"NoteNumber":44,"Velocity":34,"Duration":164581,"SoundDuration":164581,"Delta":201185114},{"NoteNumber":56,"Velocity":30,"Duration":329164,"SoundDuration":329164,"Delta":201514278},{"NoteNumber":60,"Velocity":30,"Duration":329163,"SoundDuration":329163,"Delta":201843442},{"NoteNumber":63,"Velocity":30,"Duration":318268,"SoundDuration":318268,"Delta":202172606},{"NoteNumber":60,"Velocity":30,"Duration":318268,"SoundDuration":318268,"Delta":202490875},{"NoteNumber":56,"Velocity":30,"Duration":318268,"SoundDuration":318268,"Delta":202809144},{"NoteNumber":44,"Velocity":42,"Duration":164581,"SoundDuration":164581,"Delta":203127412},{"NoteNumber":60,"Velocity":30,"Duration":329164,"SoundDuration":329164,"Delta":203456576},{"NoteNumber":63,"Velocity":30,"Duration":329163,"SoundDuration":329163,"Delta":203785740},{"NoteNumber":70,"Velocity":39,"Duration":747012,"SoundDuration":747012,"Delta":204114904},{"NoteNumber":82,"Velocity":44,"Duration":747012,"SoundDuration":747012,"Delta":204114904},{"NoteNumber":66,"Velocity":36,"Duration":332005,"SoundDuration":332005,"Delta":204114904},{"NoteNumber":63,"Velocity":33,"Duration":332005,"SoundDuration":332005,"Delta":204446910},{"NoteNumber":60,"Velocity":30,"Duration":380031,"SoundDuration":380031,"Delta":204778915},{"NoteNumber":68,"Velocity":38,"Duration":282178,"SoundDuration":282178,"Delta":204861916},{"NoteNumber":80,"Velocity":40,"Duration":282178,"SoundDuration":282178,"Delta":204861916},{"NoteNumber":68,"Velocity":28,"Duration":1974984,"SoundDuration":1974984,"Delta":205158946},{"NoteNumber":80,"Velocity":37,"Duration":1974984,"SoundDuration":1974984,"Delta":205158946},{"NoteNumber":49,"Velocity":34,"Duration":164581,"SoundDuration":164581,"Delta":205158946},{"NoteNumber":56,"Velocity":29,"Duration":329164,"SoundDuration":329164,"Delta":205488110},{"NoteNumber":61,"Velocity":29,"Duration":329163,"SoundDuration":329163,"Delta":205817274},{"NoteNumber":65,"Velocity":29,"Duration":329163,"SoundDuration":329163,"Delta":206146438},{"NoteNumber":61,"Velocity":29,"Duration":329163,"SoundDuration":329163,"Delta":206475602},{"NoteNumber":56,"Velocity":29,"Duration":329164,"SoundDuration":329164,"Delta":206804766},{"NoteNumber":68,"Velocity":28,"Duration":937105,"SoundDuration":937105,"Delta":207133930},{"NoteNumber":80,"Velocity":38,"Duration":937105,"SoundDuration":937105,"Delta":207133930},{"NoteNumber":49,"Velocity":39,"Duration":157828,"SoundDuration":157828,"Delta":207133930},{"NoteNumber":59,"Velocity":33,"Duration":315656,"SoundDuration":315656,"Delta":207449587},{"NoteNumber":61,"Velocity":33,"Duration":315656,"SoundDuration":315656,"Delta":207765243},{"NoteNumber":68,"Velocity":29,"Duration":1001400,"SoundDuration":1001400,"Delta":208080900},{"NoteNumber":80,"Velocity":39,"Duration":1001400,"SoundDuration":1001400,"Delta":208080900},{"NoteNumber":65,"Velocity":41,"Duration":326370,"SoundDuration":326370,"Delta":208080900},{"NoteNumber":61,"Velocity":35,"Duration":326370,"SoundDuration":326370,"Delta":208407271},{"NoteNumber":59,"Velocity":36,"Duration":359906,"SoundDuration":359906,"Delta":208733641},{"NoteNumber":71,"Velocity":38,"Duration":1942297,"SoundDuration":1942297,"Delta":209093548},{"NoteNumber":83,"Velocity":49,"Duration":1942297,"SoundDuration":1942297,"Delta":209093548},{"NoteNumber":42,"Velocity":42,"Duration":164581,"SoundDuration":164581,"Delta":209093548},{"NoteNumber":56,"Velocity":33,"Duration":329164,"SoundDuration":329164,"Delta":209422712},{"NoteNumber":62,"Velocity":33,"Duration":329163,"SoundDuration":329163,"Delta":209751876},{"NoteNumber":65,"Velocity":34,"Duration":318268,"SoundDuration":318268,"Delta":210081040},{"NoteNumber":62,"Velocity":31,"Duration":318268,"SoundDuration":318268,"Delta":210399308},{"NoteNumber":56,"Velocity":30,"Duration":318268,"SoundDuration":318268,"Delta":210717577},{"NoteNumber":82,"Velocity":40,"Duration":987492,"SoundDuration":987492,"Delta":211035846},{"NoteNumber":70,"Velocity":38,"Duration":987492,"SoundDuration":987492,"Delta":211035846},{"NoteNumber":42,"Velocity":40,"Duration":164581,"SoundDuration":164581,"Delta":211035846},{"NoteNumber":58,"Velocity":34,"Duration":329164,"SoundDuration":329164,"Delta":211365010},{"NoteNumber":61,"Velocity":30,"Duration":329163,"SoundDuration":329163,"Delta":211694174},{"NoteNumber":68,"Velocity":38,"Duration":502344,"SoundDuration":502344,"Delta":212023338},{"NoteNumber":80,"Velocity":40,"Duration":502344,"SoundDuration":502344,"Delta":212023338},{"NoteNumber":66,"Velocity":29,"Duration":334896,"SoundDuration":334896,"Delta":212023338},{"NoteNumber":61,"Velocity":29,"Duration":334896,"SoundDuration":334896,"Delta":212358234},{"NoteNumber":66,"Velocity":36,"Duration":502344,"SoundDuration":502344,"Delta":212525682},{"NoteNumber":78,"Velocity":39,"Duration":502344,"SoundDuration":502344,"Delta":212525682},{"NoteNumber":58,"Velocity":29,"Duration":334896,"SoundDuration":334896,"Delta":212693130},{"NoteNumber":65,"Velocity":28,"Duration":1974984,"SoundDuration":1974984,"Delta":213028027},{"NoteNumber":77,"Velocity":37,"Duration":1974984,"SoundDuration":1974984,"Delta":213028027},{"NoteNumber":49,"Velocity":34,"Duration":164581,"SoundDuration":164581,"Delta":213028027},{"NoteNumber":53,"Velocity":29,"Duration":329164,"SoundDuration":329164,"Delta":213357191},{"NoteNumber":56,"Velocity":29,"Duration":329163,"SoundDuration":329163,"Delta":213686355},{"NoteNumber":61,"Velocity":29,"Duration":329163,"SoundDuration":329163,"Delta":214015519},{"NoteNumber":56,"Velocity":29,"Duration":329163,"SoundDuration":329163,"Delta":214344683},{"NoteNumber":53,"Velocity":29,"Duration":329164,"SoundDuration":329164,"Delta":214673847},{"NoteNumber":63,"Velocity":27,"Duration":473485,"SoundDuration":473485,"Delta":215003011},{"NoteNumber":75,"Velocity":37,"Duration":473485,"SoundDuration":473485,"Delta":215003011},{"NoteNumber":44,"Velocity":34,"Duration":157828,"SoundDuration":157828,"Delta":215003011},{"NoteNumber":54,"Velocity":29,"Duration":315656,"SoundDuration":315656,"Delta":215318667},{"NoteNumber":65,"Velocity":27,"Duration":473484,"SoundDuration":473484,"Delta":215476496},{"NoteNumber":77,"Velocity":37,"Duration":473484,"SoundDuration":473484,"Delta":215476496},{"NoteNumber":56,"Velocity":29,"Duration":315656,"SoundDuration":315656,"Delta":215634324},{"NoteNumber":66,"Velocity":28,"Duration":489555,"SoundDuration":489555,"Delta":215949981},{"NoteNumber":78,"Velocity":37,"Duration":489555,"SoundDuration":489555,"Delta":215949981},{"NoteNumber":60,"Velocity":29,"Duration":326370,"SoundDuration":326370,"Delta":215949981},{"NoteNumber":56,"Velocity":29,"Duration":326370,"SoundDuration":326370,"Delta":216276351},{"NoteNumber":68,"Velocity":24,"Duration":523091,"SoundDuration":523091,"Delta":216439537},{"NoteNumber":80,"Velocity":37,"Duration":523091,"SoundDuration":523091,"Delta":216439537},{"NoteNumber":54,"Velocity":29,"Duration":359906,"SoundDuration":359906,"Delta":216602722},{"NoteNumber":61,"Velocity":36,"Duration":3941772,"SoundDuration":3941772,"Delta":216962628},{"NoteNumber":73,"Velocity":47,"Duration":3941772,"SoundDuration":3941772,"Delta":216962628},{"NoteNumber":49,"Velocity":34,"Duration":164581,"SoundDuration":164581,"Delta":216962628},{"NoteNumber":53,"Velocity":30,"Duration":329164,"SoundDuration":329164,"Delta":217291792},{"NoteNumber":56,"Velocity":30,"Duration":329163,"SoundDuration":329163,"Delta":217620956},{"NoteNumber":61,"Velocity":30,"Duration":318268,"SoundDuration":318268,"Delta":217950120},{"NoteNumber":56,"Velocity":30,"Duration":318268,"SoundDuration":318268,"Delta":218268389},{"NoteNumber":53,"Velocity":30,"Duration":318268,"SoundDuration":318268,"Delta":218586658},{"NoteNumber":56,"Velocity":34,"Duration":329163,"SoundDuration":329163,"Delta":218904926},{"NoteNumber":53,"Velocity":30,"Duration":329164,"SoundDuration":329164,"Delta":219234090},{"NoteNumber":49,"Velocity":30,"Duration":329163,"SoundDuration":329163,"Delta":219563254},{"NoteNumber":53,"Velocity":29,"Duration":332005,"SoundDuration":332005,"Delta":219892418},{"NoteNumber":49,"Velocity":29,"Duration":332005,"SoundDuration":332005,"Delta":220224424},{"NoteNumber":44,"Velocity":29,"Duration":347972,"SoundDuration":347972,"Delta":220556429},{"NoteNumber":68,"Velocity":33,"Duration":1845319,"SoundDuration":1845319,"Delta":220904401},{"NoteNumber":80,"Velocity":44,"Duration":1845319,"SoundDuration":1845319,"Delta":220904401},{"NoteNumber":37,"Velocity":37,"Duration":338409,"SoundDuration":338409,"Delta":220904401},{"NoteNumber":64,"Velocity":31,"Duration":169204,"SoundDuration":169204,"Delta":221242810},{"NoteNumber":61,"Velocity":24,"Duration":169204,"SoundDuration":169204,"Delta":221242810},{"NoteNumber":56,"Velocity":24,"Duration":169204,"SoundDuration":169204,"Delta":221242810},{"NoteNumber":64,"Velocity":31,"Duration":150375,"SoundDuration":150375,"Delta":221562391},{"NoteNumber":61,"Velocity":24,"Duration":150375,"SoundDuration":150375,"Delta":221562391},{"NoteNumber":56,"Velocity":24,"Duration":150375,"SoundDuration":150375,"Delta":221562391},{"NoteNumber":61,"Velocity":37,"Duration":608025,"SoundDuration":608025,"Delta":221863143},{"NoteNumber":56,"Velocity":29,"Duration":608025,"SoundDuration":608025,"Delta":221863143},{"NoteNumber":63,"Velocity":31,"Duration":312500,"SoundDuration":312500,"Delta":221863143},{"NoteNumber":64,"Velocity":40,"Duration":295525,"SoundDuration":295525,"Delta":222175643},{"NoteNumber":61,"Velocity":24,"Duration":139275,"SoundDuration":139275,"Delta":222471169},{"NoteNumber":56,"Velocity":24,"Duration":139275,"SoundDuration":139275,"Delta":222471169},{"NoteNumber":64,"Velocity":31,"Duration":139275,"SoundDuration":139275,"Delta":222471169},{"NoteNumber":68,"Velocity":31,"Duration":830883,"SoundDuration":830883,"Delta":222749721},{"NoteNumber":80,"Velocity":44,"Duration":830883,"SoundDuration":830883,"Delta":222749721},{"NoteNumber":37,"Velocity":37,"Duration":286327,"SoundDuration":286327,"Delta":222749721},{"NoteNumber":64,"Velocity":31,"Duration":143164,"SoundDuration":143164,"Delta":223036049},{"NoteNumber":61,"Velocity":24,"Duration":143164,"SoundDuration":143164,"Delta":223036049},{"NoteNumber":56,"Velocity":24,"Duration":143164,"SoundDuration":143164,"Delta":223036049},{"NoteNumber":64,"Velocity":31,"Duration":133797,"SoundDuration":133797,"Delta":223313010},{"NoteNumber":61,"Velocity":24,"Duration":133797,"SoundDuration":133797,"Delta":223313010},{"NoteNumber":56,"Velocity":24,"Duration":133797,"SoundDuration":133797,"Delta":223313010},{"NoteNumber":68,"Velocity":33,"Duration":871659,"SoundDuration":871659,"Delta":223580604},{"NoteNumber":80,"Velocity":44,"Duration":871659,"SoundDuration":871659,"Delta":223580604},{"NoteNumber":61,"Velocity":29,"Duration":569007,"SoundDuration":569007,"Delta":223580604},{"NoteNumber":56,"Velocity":29,"Duration":569007,"SoundDuration":569007,"Delta":223580604},{"NoteNumber":63,"Velocity":40,"Duration":288350,"SoundDuration":288350,"Delta":223580604},{"NoteNumber":64,"Velocity":40,"Duration":280656,"SoundDuration":280656,"Delta":223868955},{"NoteNumber":61,"Velocity":24,"Duration":146377,"SoundDuration":146377,"Delta":224149612},{"NoteNumber":56,"Velocity":24,"Duration":146377,"SoundDuration":146377,"Delta":224149612},{"NoteNumber":64,"Velocity":31,"Duration":146377,"SoundDuration":146377,"Delta":224149612},{"NoteNumber":68,"Velocity":42,"Duration":1265520,"SoundDuration":1265520,"Delta":224452264},{"NoteNumber":80,"Velocity":56,"Duration":1265520,"SoundDuration":1265520,"Delta":224452264},{"NoteNumber":37,"Velocity":37,"Duration":288350,"SoundDuration":288350,"Delta":224452264},{"NoteNumber":56,"Velocity":24,"Duration":144175,"SoundDuration":144175,"Delta":224740615},{"NoteNumber":66,"Velocity":31,"Duration":144175,"SoundDuration":144175,"Delta":224740615},{"NoteNumber":63,"Velocity":24,"Duration":144175,"SoundDuration":144175,"Delta":224740615},{"NoteNumber":60,"Velocity":24,"Duration":144175,"SoundDuration":144175,"Delta":224740615},{"NoteNumber":56,"Velocity":24,"Duration":136481,"SoundDuration":136481,"Delta":225021272},{"NoteNumber":66,"Velocity":31,"Duration":136481,"SoundDuration":136481,"Delta":225021272},{"NoteNumber":63,"Velocity":24,"Duration":136481,"SoundDuration":136481,"Delta":225021272},{"NoteNumber":60,"Velocity":24,"Duration":136481,"SoundDuration":136481,"Delta":225021272},{"NoteNumber":60,"Velocity":29,"Duration":558247,"SoundDuration":558247,"Delta":225294235},{"NoteNumber":63,"Velocity":29,"Duration":558247,"SoundDuration":558247,"Delta":225294235},{"NoteNumber":56,"Velocity":29,"Duration":558247,"SoundDuration":558247,"Delta":225294235},{"NoteNumber":65,"Velocity":40,"Duration":282366,"SoundDuration":282366,"Delta":225294235},{"NoteNumber":66,"Velocity":40,"Duration":275881,"SoundDuration":275881,"Delta":225576601},{"NoteNumber":69,"Velocity":45,"Duration":404095,"SoundDuration":404095,"Delta":225717784},{"NoteNumber":81,"Velocity":49,"Duration":404095,"SoundDuration":404095,"Delta":225717784},{"NoteNumber":60,"Velocity":29,"Duration":134698,"SoundDuration":134698,"Delta":225852482},{"NoteNumber":63,"Velocity":24,"Duration":134698,"SoundDuration":134698,"Delta":225852482},{"NoteNumber":56,"Velocity":24,"Duration":134698,"SoundDuration":134698,"Delta":225852482},{"NoteNumber":66,"Velocity":31,"Duration":134698,"SoundDuration":134698,"Delta":225852482},{"NoteNumber":80,"Velocity":49,"Duration":1722968,"SoundDuration":1722968,"Delta":226121879},{"NoteNumber":68,"Velocity":45,"Duration":1722968,"SoundDuration":1722968,"Delta":226121879},{"NoteNumber":37,"Velocity":37,"Duration":290402,"SoundDuration":290402,"Delta":226121879},{"NoteNumber":56,"Velocity":24,"Duration":145201,"SoundDuration":145201,"Delta":226412281},{"NoteNumber":66,"Velocity":31,"Duration":145201,"SoundDuration":145201,"Delta":226412281},{"NoteNumber":63,"Velocity":24,"Duration":145201,"SoundDuration":145201,"Delta":226412281},{"NoteNumber":60,"Velocity":24,"Duration":145201,"SoundDuration":145201,"Delta":226412281},{"NoteNumber":56,"Velocity":24,"Duration":136481,"SoundDuration":136481,"Delta":226693964},{"NoteNumber":66,"Velocity":31,"Duration":136481,"SoundDuration":136481,"Delta":226693964},{"NoteNumber":63,"Velocity":24,"Duration":136481,"SoundDuration":136481,"Delta":226693964},{"NoteNumber":60,"Velocity":24,"Duration":136481,"SoundDuration":136481,"Delta":226693964},{"NoteNumber":60,"Velocity":29,"Duration":577466,"SoundDuration":577466,"Delta":226966927},{"NoteNumber":63,"Velocity":29,"Duration":577466,"SoundDuration":577466,"Delta":226966927},{"NoteNumber":56,"Velocity":29,"Duration":577466,"SoundDuration":577466,"Delta":226966927},{"NoteNumber":65,"Velocity":40,"Duration":294594,"SoundDuration":294594,"Delta":226966927},{"NoteNumber":66,"Velocity":40,"Duration":282871,"SoundDuration":282871,"Delta":227261521},{"NoteNumber":60,"Velocity":29,"Duration":145342,"SoundDuration":145342,"Delta":227544393},{"NoteNumber":63,"Velocity":24,"Duration":145342,"SoundDuration":145342,"Delta":227544393},{"NoteNumber":56,"Velocity":24,"Duration":145342,"SoundDuration":145342,"Delta":227544393},{"NoteNumber":66,"Velocity":31,"Duration":145342,"SoundDuration":145342,"Delta":227544393},{"NoteNumber":64,"Velocity":33,"Duration":1712491,"SoundDuration":1712491,"Delta":227844847},{"NoteNumber":76,"Velocity":44,"Duration":1712491,"SoundDuration":1712491,"Delta":227844847},{"NoteNumber":37,"Velocity":37,"Duration":298909,"SoundDuration":298909,"Delta":227844847},{"NoteNumber":64,"Velocity":29,"Duration":149454,"SoundDuration":149454,"Delta":228143756},{"NoteNumber":61,"Velocity":24,"Duration":149454,"SoundDuration":149454,"Delta":228143756},{"NoteNumber":56,"Velocity":26,"Duration":149454,"SoundDuration":149454,"Delta":228143756},{"NoteNumber":64,"Velocity":29,"Duration":134698,"SoundDuration":134698,"Delta":228427909},{"NoteNumber":61,"Velocity":24,"Duration":134698,"SoundDuration":134698,"Delta":228427909},{"NoteNumber":56,"Velocity":26,"Duration":134698,"SoundDuration":134698,"Delta":228427909},{"NoteNumber":61,"Velocity":29,"Duration":583369,"SoundDuration":583369,"Delta":228697306},{"NoteNumber":55,"Velocity":40,"Duration":296692,"SoundDuration":296692,"Delta":228697306},{"NoteNumber":64,"Velocity":29,"Duration":583369,"SoundDuration":583369,"Delta":228697306},{"NoteNumber":56,"Velocity":40,"Duration":286677,"SoundDuration":286677,"Delta":228993998},{"NoteNumber":61,"Velocity":24,"Duration":138331,"SoundDuration":138331,"Delta":229280675},{"NoteNumber":56,"Velocity":26,"Duration":138331,"SoundDuration":138331,"Delta":229280675},{"NoteNumber":64,"Velocity":29,"Duration":138331,"SoundDuration":138331,"Delta":229280675},{"NoteNumber":68,"Velocity":31,"Duration":448363,"SoundDuration":448363,"Delta":229557339},{"NoteNumber":80,"Velocity":44,"Duration":448363,"SoundDuration":448363,"Delta":229557339},{"NoteNumber":45,"Velocity":37,"Duration":298909,"SoundDuration":298909,"Delta":229557339},{"NoteNumber":61,"Velocity":31,"Duration":149454,"SoundDuration":149454,"Delta":229856248},{"NoteNumber":57,"Velocity":24,"Duration":149454,"SoundDuration":149454,"Delta":229856248},{"NoteNumber":66,"Velocity":31,"Duration":414995,"SoundDuration":414995,"Delta":230005702},{"NoteNumber":78,"Velocity":44,"Duration":414995,"SoundDuration":414995,"Delta":230005702},{"NoteNumber":61,"Velocity":31,"Duration":138331,"SoundDuration":138331,"Delta":230144034},{"NoteNumber":57,"Velocity":24,"Duration":138331,"SoundDuration":138331,"Delta":230144034},{"NoteNumber":64,"Velocity":33,"Duration":441891,"SoundDuration":441891,"Delta":230420697},{"NoteNumber":76,"Velocity":44,"Duration":441891,"SoundDuration":441891,"Delta":230420697},{"NoteNumber":57,"Velocity":29,"Duration":589188,"SoundDuration":589188,"Delta":230420697},{"NoteNumber":60,"Velocity":40,"Duration":294594,"SoundDuration":294594,"Delta":230420697},{"NoteNumber":61,"Velocity":40,"Duration":294594,"SoundDuration":294594,"Delta":230715291},{"NoteNumber":66,"Velocity":31,"Duration":469721,"SoundDuration":469721,"Delta":230862589},{"NoteNumber":78,"Velocity":44,"Duration":469721,"SoundDuration":469721,"Delta":230862589},{"NoteNumber":57,"Velocity":24,"Duration":161212,"SoundDuration":161212,"Delta":231009886},{"NoteNumber":61,"Velocity":31,"Duration":161212,"SoundDuration":161212,"Delta":231009886},{"NoteNumber":68,"Velocity":42,"Duration":2567589,"SoundDuration":2567589,"Delta":231332310},{"NoteNumber":80,"Velocity":56,"Duration":2567589,"SoundDuration":2567589,"Delta":231332310},{"NoteNumber":44,"Velocity":37,"Duration":303305,"SoundDuration":303305,"Delta":231332310},{"NoteNumber":56,"Velocity":26,"Duration":151653,"SoundDuration":151653,"Delta":231635616},{"NoteNumber":63,"Velocity":29,"Duration":151653,"SoundDuration":151653,"Delta":231635616},{"NoteNumber":60,"Velocity":24,"Duration":151653,"SoundDuration":151653,"Delta":231635616},{"NoteNumber":56,"Velocity":26,"Duration":136481,"SoundDuration":136481,"Delta":231923751},{"NoteNumber":63,"Velocity":29,"Duration":136481,"SoundDuration":136481,"Delta":231923751},{"NoteNumber":60,"Velocity":24,"Duration":136481,"SoundDuration":136481,"Delta":231923751},{"NoteNumber":60,"Velocity":29,"Duration":569400,"SoundDuration":569400,"Delta":232196714},{"NoteNumber":55,"Velocity":40,"Duration":290402,"SoundDuration":290402,"Delta":232196714},{"NoteNumber":63,"Velocity":29,"Duration":569400,"SoundDuration":569400,"Delta":232196714},{"NoteNumber":56,"Velocity":31,"Duration":278998,"SoundDuration":278998,"Delta":232487116},{"NoteNumber":60,"Velocity":24,"Duration":133797,"SoundDuration":133797,"Delta":232766115},{"NoteNumber":56,"Velocity":31,"Duration":133797,"SoundDuration":133797,"Delta":232766115},{"NoteNumber":63,"Velocity":24,"Duration":133797,"SoundDuration":133797,"Delta":232766115},{"NoteNumber":48,"Velocity":37,"Duration":298909,"SoundDuration":298909,"Delta":233033709},{"NoteNumber":56,"Velocity":24,"Duration":149454,"SoundDuration":149454,"Delta":233332618},{"NoteNumber":66,"Velocity":31,"Duration":149454,"SoundDuration":149454,"Delta":233332618},{"NoteNumber":63,"Velocity":24,"Duration":149454,"SoundDuration":149454,"Delta":233332618},{"NoteNumber":56,"Velocity":24,"Duration":139275,"SoundDuration":139275,"Delta":233621348},{"NoteNumber":66,"Velocity":31,"Duration":139275,"SoundDuration":139275,"Delta":233621348},{"NoteNumber":63,"Velocity":24,"Duration":139275,"SoundDuration":139275,"Delta":233621348},{"NoteNumber":69,"Velocity":48,"Duration":659100,"SoundDuration":659100,"Delta":233899900},{"NoteNumber":81,"Velocity":51,"Duration":659100,"SoundDuration":659100,"Delta":233899900},{"NoteNumber":63,"Velocity":29,"Duration":301068,"SoundDuration":301068,"Delta":233899900},{"NoteNumber":56,"Velocity":29,"Duration":301068,"SoundDuration":301068,"Delta":233899900},{"NoteNumber":65,"Velocity":40,"Duration":301068,"SoundDuration":301068,"Delta":233899900},{"NoteNumber":56,"Velocity":29,"Duration":288865,"SoundDuration":288865,"Delta":234200969},{"NoteNumber":63,"Velocity":29,"Duration":288865,"SoundDuration":288865,"Delta":234200969},{"NoteNumber":66,"Velocity":40,"Duration":288865,"SoundDuration":288865,"Delta":234200969},{"NoteNumber":63,"Velocity":24,"Duration":148518,"SoundDuration":148518,"Delta":234489835},{"NoteNumber":56,"Velocity":24,"Duration":148518,"SoundDuration":148518,"Delta":234489835},{"NoteNumber":66,"Velocity":31,"Duration":148518,"SoundDuration":148518,"Delta":234489835},{"NoteNumber":68,"Velocity":45,"Duration":226154,"SoundDuration":226154,"Delta":234559000},{"NoteNumber":80,"Velocity":49,"Duration":226154,"SoundDuration":226154,"Delta":234559000},{"NoteNumber":68,"Velocity":33,"Duration":1676296,"SoundDuration":1676296,"Delta":234797058},{"NoteNumber":80,"Velocity":44,"Duration":1676296,"SoundDuration":1676296,"Delta":234797058},{"NoteNumber":49,"Velocity":37,"Duration":288350,"SoundDuration":288350,"Delta":234797058},{"NoteNumber":64,"Velocity":31,"Duration":144175,"SoundDuration":144175,"Delta":235085409},{"NoteNumber":61,"Velocity":24,"Duration":144175,"SoundDuration":144175,"Delta":235085409},{"NoteNumber":56,"Velocity":24,"Duration":144175,"SoundDuration":144175,"Delta":235085409},{"NoteNumber":64,"Velocity":31,"Duration":138331,"SoundDuration":138331,"Delta":235367916},{"NoteNumber":61,"Velocity":24,"Duration":138331,"SoundDuration":138331,"Delta":235367916},{"NoteNumber":56,"Velocity":24,"Duration":138331,"SoundDuration":138331,"Delta":235367916},{"NoteNumber":61,"Velocity":30,"Duration":564608,"SoundDuration":564608,"Delta":235644579},{"NoteNumber":56,"Velocity":30,"Duration":564608,"SoundDuration":564608,"Delta":235644579},{"NoteNumber":63,"Velocity":40,"Duration":288350,"SoundDuration":288350,"Delta":235644579},{"NoteNumber":64,"Velocity":41,"Duration":276258,"SoundDuration":276258,"Delta":235932930},{"NoteNumber":61,"Velocity":25,"Duration":132082,"SoundDuration":132082,"Delta":236209188},{"NoteNumber":56,"Velocity":25,"Duration":132082,"SoundDuration":132082,"Delta":236209188},{"NoteNumber":64,"Velocity":33,"Duration":132082,"SoundDuration":132082,"Delta":236209188},{"NoteNumber":68,"Velocity":35,"Duration":875598,"SoundDuration":875598,"Delta":236473354},{"NoteNumber":80,"Velocity":47,"Duration":875598,"SoundDuration":875598,"Delta":236473354},{"NoteNumber":49,"Velocity":39,"Duration":303305,"SoundDuration":303305,"Delta":236473354},{"NoteNumber":59,"Velocity":25,"Duration":151653,"SoundDuration":151653,"Delta":236776660},{"NoteNumber":65,"Velocity":30,"Duration":151653,"SoundDuration":151653,"Delta":236776660},{"NoteNumber":61,"Velocity":27,"Duration":151653,"SoundDuration":151653,"Delta":236776660},{"NoteNumber":56,"Velocity":25,"Duration":151653,"SoundDuration":151653,"Delta":236776660},{"NoteNumber":59,"Velocity":27,"Duration":140213,"SoundDuration":140213,"Delta":237068526},{"NoteNumber":65,"Velocity":31,"Duration":140213,"SoundDuration":140213,"Delta":237068526},{"NoteNumber":61,"Velocity":29,"Duration":140213,"SoundDuration":140213,"Delta":237068526},{"NoteNumber":56,"Velocity":27,"Duration":140213,"SoundDuration":140213,"Delta":237068526},{"NoteNumber":68,"Velocity":37,"Duration":935745,"SoundDuration":935745,"Delta":237348952},{"NoteNumber":80,"Velocity":50,"Duration":935745,"SoundDuration":935745,"Delta":237348952},{"NoteNumber":65,"Velocity":35,"Duration":590878,"SoundDuration":590878,"Delta":237348952},{"NoteNumber":59,"Velocity":35,"Duration":590878,"SoundDuration":590878,"Delta":237348952},{"NoteNumber":56,"Velocity":35,"Duration":590878,"SoundDuration":590878,"Delta":237348952},{"NoteNumber":62,"Velocity":44,"Duration":301068,"SoundDuration":301068,"Delta":237348952},{"NoteNumber":61,"Velocity":47,"Duration":289810,"SoundDuration":289810,"Delta":237650021},{"NoteNumber":59,"Velocity":36,"Duration":161381,"SoundDuration":161381,"Delta":237939831},{"NoteNumber":61,"Velocity":38,"Duration":161381,"SoundDuration":161381,"Delta":237939831},{"NoteNumber":56,"Velocity":29,"Duration":161381,"SoundDuration":161381,"Delta":237939831},{"NoteNumber":65,"Velocity":29,"Duration":161381,"SoundDuration":161381,"Delta":237939831},{"NoteNumber":73,"Velocity":50,"Duration":1700425,"SoundDuration":1700425,"Delta":238284698},{"NoteNumber":85,"Velocity":67,"Duration":1700425,"SoundDuration":1700425,"Delta":238284698},{"NoteNumber":42,"Velocity":64,"Duration":301068,"SoundDuration":301068,"Delta":238284698},{"NoteNumber":57,"Velocity":31,"Duration":150534,"SoundDuration":150534,"Delta":238585767},{"NoteNumber":66,"Velocity":37,"Duration":150534,"SoundDuration":150534,"Delta":238585767},{"NoteNumber":61,"Velocity":33,"Duration":150534,"SoundDuration":150534,"Delta":238585767},{"NoteNumber":57,"Velocity":31,"Duration":137400,"SoundDuration":137400,"Delta":238873702},{"NoteNumber":66,"Velocity":37,"Duration":137400,"SoundDuration":137400,"Delta":238873702},{"NoteNumber":61,"Velocity":33,"Duration":137400,"SoundDuration":137400,"Delta":238873702},{"NoteNumber":66,"Velocity":34,"Duration":567224,"SoundDuration":567224,"Delta":239148502},{"NoteNumber":57,"Velocity":34,"Duration":567224,"SoundDuration":567224,"Delta":239148502},{"NoteNumber":60,"Velocity":45,"Duration":288350,"SoundDuration":288350,"Delta":239148502},{"NoteNumber":61,"Velocity":45,"Duration":278873,"SoundDuration":278873,"Delta":239436853},{"NoteNumber":57,"Velocity":34,"Duration":134698,"SoundDuration":134698,"Delta":239715727},{"NoteNumber":61,"Velocity":36,"Duration":134698,"SoundDuration":134698,"Delta":239715727},{"NoteNumber":66,"Velocity":27,"Duration":134698,"SoundDuration":134698,"Delta":239715727},{"NoteNumber":81,"Velocity":55,"Duration":872242,"SoundDuration":872242,"Delta":239985123},{"NoteNumber":69,"Velocity":50,"Duration":872242,"SoundDuration":872242,"Delta":239985123},{"NoteNumber":45,"Velocity":41,"Duration":301068,"SoundDuration":301068,"Delta":239985123},{"NoteNumber":66,"Velocity":33,"Duration":150534,"SoundDuration":150534,"Delta":240286192},{"NoteNumber":60,"Velocity":29,"Duration":150534,"SoundDuration":150534,"Delta":240286192},{"NoteNumber":57,"Velocity":27,"Duration":150534,"SoundDuration":150534,"Delta":240286192},{"NoteNumber":66,"Velocity":33,"Duration":140213,"SoundDuration":140213,"Delta":240576940},{"NoteNumber":60,"Velocity":29,"Duration":140213,"SoundDuration":140213,"Delta":240576940},{"NoteNumber":57,"Velocity":27,"Duration":140213,"SoundDuration":140213,"Delta":240576940},{"NoteNumber":68,"Velocity":50,"Duration":451603,"SoundDuration":451603,"Delta":240857366},{"NoteNumber":80,"Velocity":55,"Duration":451603,"SoundDuration":451603,"Delta":240857366},{"NoteNumber":66,"Velocity":34,"Duration":591816,"SoundDuration":591816,"Delta":240857366},{"NoteNumber":57,"Velocity":34,"Duration":591816,"SoundDuration":591816,"Delta":240857366},{"NoteNumber":59,"Velocity":45,"Duration":301068,"SoundDuration":301068,"Delta":240857366},{"NoteNumber":60,"Velocity":45,"Duration":290747,"SoundDuration":290747,"Delta":241158435},{"NoteNumber":66,"Velocity":48,"Duration":420639,"SoundDuration":420639,"Delta":241308969},{"NoteNumber":78,"Velocity":52,"Duration":420639,"SoundDuration":420639,"Delta":241308969},{"NoteNumber":60,"Velocity":36,"Duration":140213,"SoundDuration":140213,"Delta":241449182},{"NoteNumber":57,"Velocity":27,"Duration":140213,"SoundDuration":140213,"Delta":241449182},{"NoteNumber":66,"Velocity":27,"Duration":140213,"SoundDuration":140213,"Delta":241449182},{"NoteNumber":71,"Velocity":37,"Duration":1768580,"SoundDuration":1768580,"Delta":241729608},{"NoteNumber":83,"Velocity":49,"Duration":1768580,"SoundDuration":1768580,"Delta":241729608},{"NoteNumber":47,"Velocity":41,"Duration":301068,"SoundDuration":301068,"Delta":241729608},{"NoteNumber":64,"Velocity":33,"Duration":150534,"SoundDuration":150534,"Delta":242030677},{"NoteNumber":59,"Velocity":27,"Duration":150534,"SoundDuration":150534,"Delta":242030677},{"NoteNumber":56,"Velocity":27,"Duration":150534,"SoundDuration":150534,"Delta":242030677},{"NoteNumber":64,"Velocity":33,"Duration":144175,"SoundDuration":144175,"Delta":242325387},{"NoteNumber":59,"Velocity":27,"Duration":144175,"SoundDuration":144175,"Delta":242325387},{"NoteNumber":56,"Velocity":27,"Duration":144175,"SoundDuration":144175,"Delta":242325387},{"NoteNumber":59,"Velocity":34,"Duration":598123,"SoundDuration":598123,"Delta":242613737},{"NoteNumber":56,"Velocity":34,"Duration":598123,"SoundDuration":598123,"Delta":242613737},{"NoteNumber":66,"Velocity":41,"Duration":303305,"SoundDuration":303305,"Delta":242613737},{"NoteNumber":64,"Velocity":41,"Duration":294817,"SoundDuration":294817,"Delta":242917043},{"NoteNumber":59,"Velocity":27,"Duration":143163,"SoundDuration":143163,"Delta":243211860},{"NoteNumber":56,"Velocity":27,"Duration":143163,"SoundDuration":143163,"Delta":243211860},{"NoteNumber":64,"Velocity":33,"Duration":143163,"SoundDuration":143163,"Delta":243211860},{"NoteNumber":63,"Velocity":36,"Duration":429491,"SoundDuration":429491,"Delta":243498188},{"NoteNumber":75,"Velocity":49,"Duration":429491,"SoundDuration":429491,"Delta":243498188},{"NoteNumber":47,"Velocity":41,"Duration":286327,"SoundDuration":286327,"Delta":243498188},{"NoteNumber":59,"Velocity":27,"Duration":143163,"SoundDuration":143163,"Delta":243784516},{"NoteNumber":63,"Velocity":33,"Duration":143163,"SoundDuration":143163,"Delta":243784516},{"NoteNumber":57,"Velocity":27,"Duration":143163,"SoundDuration":143163,"Delta":243784516},{"NoteNumber":64,"Velocity":36,"Duration":429492,"SoundDuration":429492,"Delta":243927680},{"NoteNumber":76,"Velocity":49,"Duration":429492,"SoundDuration":429492,"Delta":243927680},{"NoteNumber":59,"Velocity":27,"Duration":143163,"SoundDuration":143163,"Delta":244070844},{"NoteNumber":63,"Velocity":33,"Duration":143163,"SoundDuration":143163,"Delta":244070844},{"NoteNumber":57,"Velocity":27,"Duration":143163,"SoundDuration":143163,"Delta":244070844},{"NoteNumber":66,"Velocity":37,"Duration":429526,"SoundDuration":429526,"Delta":244357172},{"NoteNumber":78,"Velocity":49,"Duration":429526,"SoundDuration":429526,"Delta":244357172},{"NoteNumber":59,"Velocity":34,"Duration":574727,"SoundDuration":574727,"Delta":244357172},{"NoteNumber":57,"Velocity":34,"Duration":574727,"SoundDuration":574727,"Delta":244357172},{"NoteNumber":64,"Velocity":41,"Duration":285350,"SoundDuration":285350,"Delta":244357172},{"NoteNumber":63,"Velocity":41,"Duration":289376,"SoundDuration":289376,"Delta":244642523},{"NoteNumber":68,"Velocity":36,"Duration":438739,"SoundDuration":438739,"Delta":244786699},{"NoteNumber":80,"Velocity":49,"Duration":438739,"SoundDuration":438739,"Delta":244786699},{"NoteNumber":59,"Velocity":34,"Duration":146241,"SoundDuration":146241,"Delta":244931900},{"NoteNumber":57,"Velocity":27,"Duration":146241,"SoundDuration":146241,"Delta":244931900},{"NoteNumber":63,"Velocity":33,"Duration":146241,"SoundDuration":146241,"Delta":244931900},{"NoteNumber":64,"Velocity":45,"Duration":1725159,"SoundDuration":1725159,"Delta":245225439},{"NoteNumber":76,"Velocity":58,"Duration":1725159,"SoundDuration":1725159,"Delta":245225439},{"NoteNumber":52,"Velocity":41,"Duration":294594,"SoundDuration":294594,"Delta":245225439},{"NoteNumber":56,"Velocity":27,"Duration":147297,"SoundDuration":147297,"Delta":245520033},{"NoteNumber":59,"Velocity":33,"Duration":147297,"SoundDuration":147297,"Delta":245520033},{"NoteNumber":56,"Velocity":26,"Duration":139275,"SoundDuration":139275,"Delta":245806606},{"NoteNumber":59,"Velocity":31,"Duration":139275,"SoundDuration":139275,"Delta":245806606},{"NoteNumber":58,"Velocity":33,"Duration":294594,"SoundDuration":294594,"Delta":246085158},{"NoteNumber":56,"Velocity":40,"Duration":583074,"SoundDuration":583074,"Delta":246085158},{"NoteNumber":59,"Velocity":33,"Duration":288480,"SoundDuration":288480,"Delta":246379752},{"NoteNumber":59,"Velocity":26,"Duration":141183,"SoundDuration":141183,"Delta":246668232},{"NoteNumber":56,"Velocity":30,"Duration":141183,"SoundDuration":141183,"Delta":246668232},{"NoteNumber":63,"Velocity":40,"Duration":1910320,"SoundDuration":1910320,"Delta":246950599},{"NoteNumber":75,"Velocity":51,"Duration":1910320,"SoundDuration":1910320,"Delta":246950599},{"NoteNumber":44,"Velocity":39,"Duration":295223,"SoundDuration":295223,"Delta":246950599},{"NoteNumber":54,"Velocity":24,"Duration":150945,"SoundDuration":150945,"Delta":247245822},{"NoteNumber":60,"Velocity":29,"Duration":150945,"SoundDuration":150945,"Delta":247245822},{"NoteNumber":56,"Velocity":24,"Duration":150945,"SoundDuration":150945,"Delta":247245822},{"NoteNumber":54,"Velocity":23,"Duration":155644,"SoundDuration":155644,"Delta":247550026},{"NoteNumber":60,"Velocity":28,"Duration":155644,"SoundDuration":155644,"Delta":247550026},{"NoteNumber":56,"Velocity":23,"Duration":155644,"SoundDuration":155644,"Delta":247550026},{"NoteNumber":56,"Velocity":27,"Duration":640000,"SoundDuration":640000,"Delta":247863776},{"NoteNumber":54,"Velocity":27,"Duration":640000,"SoundDuration":640000,"Delta":247863776},{"NoteNumber":61,"Velocity":34,"Duration":319999,"SoundDuration":319999,"Delta":247863776},{"NoteNumber":60,"Velocity":32,"Duration":320000,"SoundDuration":320000,"Delta":248183776},{"NoteNumber":56,"Velocity":20,"Duration":178571,"SoundDuration":178571,"Delta":248503776},{"NoteNumber":54,"Velocity":20,"Duration":178571,"SoundDuration":178571,"Delta":248503776},{"NoteNumber":60,"Velocity":24,"Duration":178571,"SoundDuration":178571,"Delta":248503776},{"NoteNumber":68,"Velocity":41,"Duration":1974984,"SoundDuration":1974984,"Delta":248860919},{"NoteNumber":37,"Velocity":33,"Duration":246872,"SoundDuration":246872,"Delta":248860919},{"NoteNumber":56,"Velocity":22,"Duration":246872,"SoundDuration":246872,"Delta":249107792},{"NoteNumber":65,"Velocity":22,"Duration":246873,"SoundDuration":246873,"Delta":249354665},{"NoteNumber":61,"Velocity":17,"Duration":246873,"SoundDuration":246873,"Delta":249354665},{"NoteNumber":44,"Velocity":27,"Duration":246873,"SoundDuration":246873,"Delta":249354665},{"NoteNumber":56,"Velocity":22,"Duration":246872,"SoundDuration":246872,"Delta":249601538},{"NoteNumber":61,"Velocity":17,"Duration":246872,"SoundDuration":246872,"Delta":249848411},{"NoteNumber":65,"Velocity":22,"Duration":246872,"SoundDuration":246872,"Delta":249848411},{"NoteNumber":49,"Velocity":27,"Duration":246872,"SoundDuration":246872,"Delta":249848411},{"NoteNumber":56,"Velocity":22,"Duration":246872,"SoundDuration":246872,"Delta":250095284},{"NoteNumber":61,"Velocity":17,"Duration":246873,"SoundDuration":246873,"Delta":250342157},{"NoteNumber":65,"Velocity":22,"Duration":246873,"SoundDuration":246873,"Delta":250342157},{"NoteNumber":53,"Velocity":27,"Duration":246873,"SoundDuration":246873,"Delta":250342157},{"NoteNumber":56,"Velocity":22,"Duration":246872,"SoundDuration":246872,"Delta":250589030},{"NoteNumber":68,"Velocity":41,"Duration":946969,"SoundDuration":946969,"Delta":250835903},{"NoteNumber":37,"Velocity":33,"Duration":236742,"SoundDuration":236742,"Delta":250835903},{"NoteNumber":56,"Velocity":24,"Duration":236742,"SoundDuration":236742,"Delta":251072645},{"NoteNumber":65,"Velocity":24,"Duration":236742,"SoundDuration":236742,"Delta":251309388},{"NoteNumber":61,"Velocity":18,"Duration":236742,"SoundDuration":236742,"Delta":251309388},{"NoteNumber":44,"Velocity":29,"Duration":236742,"SoundDuration":236742,"Delta":251309388},{"NoteNumber":56,"Velocity":24,"Duration":236742,"SoundDuration":236742,"Delta":251546130},{"NoteNumber":68,"Velocity":41,"Duration":1012647,"SoundDuration":1012647,"Delta":251782873},{"NoteNumber":65,"Velocity":22,"Duration":244777,"SoundDuration":244777,"Delta":251782873},{"NoteNumber":61,"Velocity":17,"Duration":244777,"SoundDuration":244777,"Delta":251782873},{"NoteNumber":49,"Velocity":29,"Duration":244777,"SoundDuration":244777,"Delta":251782873},{"NoteNumber":56,"Velocity":27,"Duration":244777,"SoundDuration":244777,"Delta":252027651},{"NoteNumber":65,"Velocity":27,"Duration":253161,"SoundDuration":253161,"Delta":252272429},{"NoteNumber":61,"Velocity":21,"Duration":253161,"SoundDuration":253161,"Delta":252272429},{"NoteNumber":53,"Velocity":29,"Duration":253161,"SoundDuration":253161,"Delta":252272429},{"NoteNumber":56,"Velocity":27,"Duration":269929,"SoundDuration":269929,"Delta":252525591},{"NoteNumber":68,"Velocity":52,"Duration":1446153,"SoundDuration":1446153,"Delta":252795520},{"NoteNumber":32,"Velocity":33,"Duration":250000,"SoundDuration":250000,"Delta":252795520},{"NoteNumber":56,"Velocity":26,"Duration":250000,"SoundDuration":250000,"Delta":253045520},{"NoteNumber":66,"Velocity":26,"Duration":234375,"SoundDuration":234375,"Delta":253295520},{"NoteNumber":60,"Velocity":20,"Duration":234375,"SoundDuration":234375,"Delta":253295520},{"NoteNumber":44,"Velocity":33,"Duration":234375,"SoundDuration":234375,"Delta":253295520},{"NoteNumber":56,"Velocity":26,"Duration":234375,"SoundDuration":234375,"Delta":253529895},{"NoteNumber":60,"Velocity":20,"Duration":238701,"SoundDuration":238701,"Delta":253764270},{"NoteNumber":66,"Velocity":26,"Duration":238701,"SoundDuration":238701,"Delta":253764270},{"NoteNumber":51,"Velocity":28,"Duration":238701,"SoundDuration":238701,"Delta":253764270},{"NoteNumber":56,"Velocity":26,"Duration":238701,"SoundDuration":238701,"Delta":254002972},{"NoteNumber":60,"Velocity":17,"Duration":258620,"SoundDuration":258620,"Delta":254241673},{"NoteNumber":66,"Velocity":22,"Duration":258620,"SoundDuration":258620,"Delta":254241673},{"NoteNumber":70,"Velocity":46,"Duration":517241,"SoundDuration":517241,"Delta":254241673},{"NoteNumber":54,"Velocity":28,"Duration":258620,"SoundDuration":258620,"Delta":254241673},{"NoteNumber":56,"Velocity":22,"Duration":258620,"SoundDuration":258620,"Delta":254500294},{"NoteNumber":68,"Velocity":46,"Duration":1992180,"SoundDuration":1992180,"Delta":254758915},{"NoteNumber":32,"Velocity":33,"Duration":246872,"SoundDuration":246872,"Delta":254758915},{"NoteNumber":56,"Velocity":22,"Duration":246872,"SoundDuration":246872,"Delta":255005788},{"NoteNumber":60,"Velocity":17,"Duration":246873,"SoundDuration":246873,"Delta":255252661},{"NoteNumber":66,"Velocity":22,"Duration":246873,"SoundDuration":246873,"Delta":255252661},{"NoteNumber":44,"Velocity":27,"Duration":246873,"SoundDuration":246873,"Delta":255252661},{"NoteNumber":56,"Velocity":22,"Duration":246872,"SoundDuration":246872,"Delta":255499534},{"NoteNumber":60,"Velocity":17,"Duration":251172,"SoundDuration":251172,"Delta":255746407},{"NoteNumber":66,"Velocity":22,"Duration":251172,"SoundDuration":251172,"Delta":255746407},{"NoteNumber":51,"Velocity":27,"Duration":251172,"SoundDuration":251172,"Delta":255746407},{"NoteNumber":56,"Velocity":22,"Duration":251172,"SoundDuration":251172,"Delta":255997579},{"NoteNumber":60,"Velocity":17,"Duration":251172,"SoundDuration":251172,"Delta":256248751},{"NoteNumber":66,"Velocity":22,"Duration":251172,"SoundDuration":251172,"Delta":256248751},{"NoteNumber":54,"Velocity":27,"Duration":251172,"SoundDuration":251172,"Delta":256248751},{"NoteNumber":56,"Velocity":22,"Duration":251172,"SoundDuration":251172,"Delta":256499924},{"NoteNumber":65,"Velocity":41,"Duration":1985861,"SoundDuration":1985861,"Delta":256751096},{"NoteNumber":37,"Velocity":33,"Duration":263157,"SoundDuration":263157,"Delta":256751096},{"NoteNumber":53,"Velocity":22,"Duration":263158,"SoundDuration":263158,"Delta":257014254},{"NoteNumber":61,"Velocity":22,"Duration":245901,"SoundDuration":245901,"Delta":257277412},{"NoteNumber":56,"Velocity":17,"Duration":245901,"SoundDuration":245901,"Delta":257277412},{"NoteNumber":44,"Velocity":27,"Duration":491803,"SoundDuration":491803,"Delta":257277412},{"NoteNumber":53,"Velocity":22,"Duration":245901,"SoundDuration":245901,"Delta":257523314},{"NoteNumber":61,"Velocity":22,"Duration":241935,"SoundDuration":241935,"Delta":257769215},{"NoteNumber":56,"Velocity":17,"Duration":241935,"SoundDuration":241935,"Delta":257769215},{"NoteNumber":49,"Velocity":27,"Duration":483871,"SoundDuration":483871,"Delta":257769215},{"NoteNumber":53,"Velocity":22,"Duration":241935,"SoundDuration":241935,"Delta":258011151},{"NoteNumber":61,"Velocity":22,"Duration":241935,"SoundDuration":241935,"Delta":258253086},{"NoteNumber":56,"Velocity":17,"Duration":241935,"SoundDuration":241935,"Delta":258253086},{"NoteNumber":53,"Velocity":27,"Duration":483870,"SoundDuration":483870,"Delta":258253086},{"NoteNumber":53,"Velocity":22,"Duration":241935,"SoundDuration":241935,"Delta":258495022},{"NoteNumber":68,"Velocity":41,"Duration":473484,"SoundDuration":473484,"Delta":258736957},{"NoteNumber":34,"Velocity":33,"Duration":473484,"SoundDuration":473484,"Delta":258736957},{"NoteNumber":58,"Velocity":25,"Duration":236742,"SoundDuration":236742,"Delta":258973700},{"NoteNumber":61,"Velocity":17,"Duration":236742,"SoundDuration":236742,"Delta":259210442},{"NoteNumber":63,"Velocity":22,"Duration":236742,"SoundDuration":236742,"Delta":259210442},{"NoteNumber":67,"Velocity":41,"Duration":473485,"SoundDuration":473485,"Delta":259210442},{"NoteNumber":49,"Velocity":33,"Duration":473485,"SoundDuration":473485,"Delta":259210442},{"NoteNumber":58,"Velocity":26,"Duration":236742,"SoundDuration":236742,"Delta":259447185},{"NoteNumber":61,"Velocity":17,"Duration":244777,"SoundDuration":244777,"Delta":259683927},{"NoteNumber":63,"Velocity":22,"Duration":244777,"SoundDuration":244777,"Delta":259683927},{"NoteNumber":65,"Velocity":41,"Duration":489555,"SoundDuration":489555,"Delta":259683927},{"NoteNumber":39,"Velocity":28,"Duration":489555,"SoundDuration":489555,"Delta":259683927},{"NoteNumber":58,"Velocity":28,"Duration":244777,"SoundDuration":244777,"Delta":259928705},{"NoteNumber":61,"Velocity":17,"Duration":253161,"SoundDuration":253161,"Delta":260173483},{"NoteNumber":63,"Velocity":22,"Duration":253161,"SoundDuration":253161,"Delta":260173483},{"NoteNumber":67,"Velocity":41,"Duration":523091,"SoundDuration":523091,"Delta":260173483},{"NoteNumber":51,"Velocity":28,"Duration":523091,"SoundDuration":523091,"Delta":260173483},{"NoteNumber":58,"Velocity":30,"Duration":269929,"SoundDuration":269929,"Delta":260426645},{"NoteNumber":68,"Velocity":52,"Duration":2929789,"SoundDuration":2929789,"Delta":260696575},{"NoteNumber":32,"Velocity":33,"Duration":493745,"SoundDuration":493745,"Delta":260696575},{"NoteNumber":56,"Velocity":22,"Duration":246872,"SoundDuration":246872,"Delta":260943448},{"NoteNumber":60,"Velocity":17,"Duration":246872,"SoundDuration":246872,"Delta":261190321},{"NoteNumber":63,"Velocity":23,"Duration":246872,"SoundDuration":246872,"Delta":261190321},{"NoteNumber":44,"Velocity":27,"Duration":493745,"SoundDuration":493745,"Delta":261190321},{"NoteNumber":56,"Velocity":23,"Duration":246872,"SoundDuration":246872,"Delta":261437194},{"NoteNumber":63,"Velocity":24,"Duration":238701,"SoundDuration":238701,"Delta":261684067},{"NoteNumber":60,"Velocity":19,"Duration":238701,"SoundDuration":238701,"Delta":261684067},{"NoteNumber":48,"Velocity":29,"Duration":477402,"SoundDuration":477402,"Delta":261684067},{"NoteNumber":56,"Velocity":25,"Duration":238701,"SoundDuration":238701,"Delta":261922769},{"NoteNumber":63,"Velocity":26,"Duration":238701,"SoundDuration":238701,"Delta":262161470},{"NoteNumber":60,"Velocity":20,"Duration":238701,"SoundDuration":238701,"Delta":262161470},{"NoteNumber":51,"Velocity":31,"Duration":477403,"SoundDuration":477403,"Delta":262161470},{"NoteNumber":56,"Velocity":27,"Duration":238701,"SoundDuration":238701,"Delta":262400172},{"NoteNumber":32,"Velocity":36,"Duration":493745,"SoundDuration":493745,"Delta":262638873},{"NoteNumber":56,"Velocity":28,"Duration":246872,"SoundDuration":246872,"Delta":262885746},{"NoteNumber":60,"Velocity":22,"Duration":246872,"SoundDuration":246872,"Delta":263132619},{"NoteNumber":66,"Velocity":28,"Duration":246872,"SoundDuration":246872,"Delta":263132619},{"NoteNumber":44,"Velocity":33,"Duration":493745,"SoundDuration":493745,"Delta":263132619},{"NoteNumber":56,"Velocity":28,"Duration":246872,"SoundDuration":246872,"Delta":263379492},{"NoteNumber":70,"Velocity":49,"Duration":762711,"SoundDuration":762711,"Delta":263626365},{"NoteNumber":60,"Velocity":17,"Duration":254237,"SoundDuration":254237,"Delta":263626365},{"NoteNumber":66,"Velocity":22,"Duration":254237,"SoundDuration":254237,"Delta":263626365},{"NoteNumber":51,"Velocity":33,"Duration":508474,"SoundDuration":508474,"Delta":263626365},{"NoteNumber":56,"Velocity":22,"Duration":254237,"SoundDuration":254237,"Delta":263880602},{"NoteNumber":60,"Velocity":17,"Duration":254237,"SoundDuration":254237,"Delta":264134840},{"NoteNumber":66,"Velocity":22,"Duration":254237,"SoundDuration":254237,"Delta":264134840},{"NoteNumber":54,"Velocity":29,"Duration":551266,"SoundDuration":551266,"Delta":264134840},{"NoteNumber":68,"Velocity":42,"Duration":297029,"SoundDuration":297029,"Delta":264389077},{"NoteNumber":56,"Velocity":22,"Duration":297029,"SoundDuration":297029,"Delta":264389077},{"NoteNumber":68,"Velocity":41,"Duration":1963682,"SoundDuration":1963682,"Delta":264686107},{"NoteNumber":37,"Velocity":33,"Duration":493745,"SoundDuration":493745,"Delta":264686107},{"NoteNumber":56,"Velocity":22,"Duration":246872,"SoundDuration":246872,"Delta":264932980},{"NoteNumber":61,"Velocity":17,"Duration":246872,"SoundDuration":246872,"Delta":265179853},{"NoteNumber":65,"Velocity":22,"Duration":246872,"SoundDuration":246872,"Delta":265179853},{"NoteNumber":44,"Velocity":28,"Duration":493745,"SoundDuration":493745,"Delta":265179853},{"NoteNumber":56,"Velocity":22,"Duration":246872,"SoundDuration":246872,"Delta":265426726},{"NoteNumber":65,"Velocity":22,"Duration":238095,"SoundDuration":238095,"Delta":265673599},{"NoteNumber":61,"Velocity":17,"Duration":238095,"SoundDuration":238095,"Delta":265673599},{"NoteNumber":49,"Velocity":29,"Duration":476190,"SoundDuration":476190,"Delta":265673599},{"NoteNumber":56,"Velocity":22,"Duration":238095,"SoundDuration":238095,"Delta":265911694},{"NoteNumber":65,"Velocity":22,"Duration":250000,"SoundDuration":250000,"Delta":266149789},{"NoteNumber":61,"Velocity":17,"Duration":250000,"SoundDuration":250000,"Delta":266149789},{"NoteNumber":53,"Velocity":29,"Duration":500000,"SoundDuration":500000,"Delta":266149789},{"NoteNumber":56,"Velocity":22,"Duration":250000,"SoundDuration":250000,"Delta":266399789},{"NoteNumber":68,"Velocity":42,"Duration":946970,"SoundDuration":946970,"Delta":266649789},{"NoteNumber":37,"Velocity":34,"Duration":473484,"SoundDuration":473484,"Delta":266649789},{"NoteNumber":56,"Velocity":22,"Duration":236742,"SoundDuration":236742,"Delta":266886532},{"NoteNumber":61,"Velocity":18,"Duration":236742,"SoundDuration":236742,"Delta":267123274},{"NoteNumber":65,"Velocity":23,"Duration":236742,"SoundDuration":236742,"Delta":267123274},{"NoteNumber":47,"Velocity":30,"Duration":473485,"SoundDuration":473485,"Delta":267123274},{"NoteNumber":56,"Velocity":26,"Duration":236742,"SoundDuration":236742,"Delta":267360017},{"NoteNumber":65,"Velocity":24,"Duration":244777,"SoundDuration":244777,"Delta":267596759},{"NoteNumber":61,"Velocity":18,"Duration":244777,"SoundDuration":244777,"Delta":267596759},{"NoteNumber":68,"Velocity":44,"Duration":1012647,"SoundDuration":1012647,"Delta":267596759},{"NoteNumber":49,"Velocity":30,"Duration":489555,"SoundDuration":489555,"Delta":267596759},{"NoteNumber":56,"Velocity":29,"Duration":244777,"SoundDuration":244777,"Delta":267841537},{"NoteNumber":61,"Velocity":24,"Duration":253161,"SoundDuration":253161,"Delta":268086315},{"NoteNumber":65,"Velocity":32,"Duration":253161,"SoundDuration":253161,"Delta":268086315},{"NoteNumber":53,"Velocity":30,"Duration":523091,"SoundDuration":523091,"Delta":268086315},{"NoteNumber":56,"Velocity":35,"Duration":269929,"SoundDuration":269929,"Delta":268339477},{"NoteNumber":71,"Velocity":56,"Duration":1942297,"SoundDuration":1942297,"Delta":268609407},{"NoteNumber":30,"Velocity":35,"Duration":493745,"SoundDuration":493745,"Delta":268609407},{"NoteNumber":59,"Velocity":35,"Duration":246872,"SoundDuration":246872,"Delta":268856280},{"NoteNumber":62,"Velocity":24,"Duration":246872,"SoundDuration":246872,"Delta":269103153},{"NoteNumber":65,"Velocity":24,"Duration":246872,"SoundDuration":246872,"Delta":269103153},{"NoteNumber":68,"Velocity":32,"Duration":246872,"SoundDuration":246872,"Delta":269103153},{"NoteNumber":47,"Velocity":29,"Duration":493745,"SoundDuration":493745,"Delta":269103153},{"NoteNumber":59,"Velocity":30,"Duration":246872,"SoundDuration":246872,"Delta":269350026},{"NoteNumber":62,"Velocity":21,"Duration":238701,"SoundDuration":238701,"Delta":269596899},{"NoteNumber":65,"Velocity":21,"Duration":238701,"SoundDuration":238701,"Delta":269596899},{"NoteNumber":68,"Velocity":28,"Duration":238701,"SoundDuration":238701,"Delta":269596899},{"NoteNumber":50,"Velocity":29,"Duration":477402,"SoundDuration":477402,"Delta":269596899},{"NoteNumber":59,"Velocity":26,"Duration":238701,"SoundDuration":238701,"Delta":269835600},{"NoteNumber":62,"Velocity":18,"Duration":238701,"SoundDuration":238701,"Delta":270074302},{"NoteNumber":65,"Velocity":18,"Duration":238701,"SoundDuration":238701,"Delta":270074302},{"NoteNumber":68,"Velocity":24,"Duration":238701,"SoundDuration":238701,"Delta":270074302},{"NoteNumber":53,"Velocity":29,"Duration":477403,"SoundDuration":477403,"Delta":270074302},{"NoteNumber":59,"Velocity":23,"Duration":238701,"SoundDuration":238701,"Delta":270313003},{"NoteNumber":70,"Velocity":46,"Duration":987491,"SoundDuration":987491,"Delta":270551705},{"NoteNumber":30,"Velocity":33,"Duration":493745,"SoundDuration":493745,"Delta":270551705},{"NoteNumber":58,"Velocity":26,"Duration":246872,"SoundDuration":246872,"Delta":270798578},{"NoteNumber":66,"Velocity":26,"Duration":246872,"SoundDuration":246872,"Delta":271045451},{"NoteNumber":61,"Velocity":20,"Duration":246872,"SoundDuration":246872,"Delta":271045451},{"NoteNumber":46,"Velocity":29,"Duration":493745,"SoundDuration":493745,"Delta":271045451},{"NoteNumber":58,"Velocity":26,"Duration":246872,"SoundDuration":246872,"Delta":271292324},{"NoteNumber":68,"Velocity":46,"Duration":502344,"SoundDuration":502344,"Delta":271539197},{"NoteNumber":61,"Velocity":17,"Duration":251172,"SoundDuration":251172,"Delta":271539197},{"NoteNumber":49,"Velocity":28,"Duration":502344,"SoundDuration":502344,"Delta":271539197},{"NoteNumber":58,"Velocity":27,"Duration":251172,"SoundDuration":251172,"Delta":271790369},{"NoteNumber":66,"Velocity":40,"Duration":502344,"SoundDuration":502344,"Delta":272041541},{"NoteNumber":61,"Velocity":17,"Duration":251172,"SoundDuration":251172,"Delta":272041541},{"NoteNumber":54,"Velocity":28,"Duration":502344,"SoundDuration":502344,"Delta":272041541},{"NoteNumber":58,"Velocity":25,"Duration":251172,"SoundDuration":251172,"Delta":272292714},{"NoteNumber":65,"Velocity":41,"Duration":1974984,"SoundDuration":1974984,"Delta":272543886},{"NoteNumber":32,"Velocity":33,"Duration":493745,"SoundDuration":493745,"Delta":272543886},{"NoteNumber":53,"Velocity":22,"Duration":246872,"SoundDuration":246872,"Delta":272790759},{"NoteNumber":56,"Velocity":22,"Duration":246872,"SoundDuration":246872,"Delta":273037632},{"NoteNumber":61,"Velocity":22,"Duration":246872,"SoundDuration":246872,"Delta":273037632},{"NoteNumber":41,"Velocity":29,"Duration":493745,"SoundDuration":493745,"Delta":273037632},{"NoteNumber":53,"Velocity":22,"Duration":246872,"SoundDuration":246872,"Delta":273284505},{"NoteNumber":56,"Velocity":22,"Duration":246873,"SoundDuration":246873,"Delta":273531378},{"NoteNumber":61,"Velocity":22,"Duration":246873,"SoundDuration":246873,"Delta":273531378},{"NoteNumber":44,"Velocity":29,"Duration":493746,"SoundDuration":493746,"Delta":273531378},{"NoteNumber":53,"Velocity":22,"Duration":246872,"SoundDuration":246872,"Delta":273778251},{"NoteNumber":56,"Velocity":22,"Duration":246872,"SoundDuration":246872,"Delta":274025124},{"NoteNumber":61,"Velocity":22,"Duration":246872,"SoundDuration":246872,"Delta":274025124},{"NoteNumber":49,"Velocity":29,"Duration":493745,"SoundDuration":493745,"Delta":274025124},{"NoteNumber":53,"Velocity":22,"Duration":246872,"SoundDuration":246872,"Delta":274271997},{"NoteNumber":60,"Velocity":17,"Duration":236742,"SoundDuration":236742,"Delta":274518870},{"NoteNumber":63,"Velocity":41,"Duration":473484,"SoundDuration":473484,"Delta":274518870},{"NoteNumber":32,"Velocity":33,"Duration":473484,"SoundDuration":473484,"Delta":274518870},{"NoteNumber":54,"Velocity":29,"Duration":236742,"SoundDuration":236742,"Delta":274755612},{"NoteNumber":60,"Velocity":17,"Duration":236742,"SoundDuration":236742,"Delta":274992355},{"NoteNumber":65,"Velocity":41,"Duration":473485,"SoundDuration":473485,"Delta":274992355},{"NoteNumber":42,"Velocity":29,"Duration":473485,"SoundDuration":473485,"Delta":274992355},{"NoteNumber":54,"Velocity":28,"Duration":236742,"SoundDuration":236742,"Delta":275229097},{"NoteNumber":60,"Velocity":17,"Duration":244777,"SoundDuration":244777,"Delta":275465840},{"NoteNumber":66,"Velocity":41,"Duration":489555,"SoundDuration":489555,"Delta":275465840},{"NoteNumber":44,"Velocity":29,"Duration":489555,"SoundDuration":489555,"Delta":275465840},{"NoteNumber":54,"Velocity":28,"Duration":244777,"SoundDuration":244777,"Delta":275710618},{"NoteNumber":60,"Velocity":17,"Duration":253161,"SoundDuration":253161,"Delta":275955396},{"NoteNumber":68,"Velocity":41,"Duration":523091,"SoundDuration":523091,"Delta":275955396},{"NoteNumber":48,"Velocity":29,"Duration":523091,"SoundDuration":523091,"Delta":275955396},{"NoteNumber":54,"Velocity":30,"Duration":269929,"SoundDuration":269929,"Delta":276208558},{"NoteNumber":61,"Velocity":52,"Duration":3022655,"SoundDuration":3022655,"Delta":276478487},{"NoteNumber":37,"Velocity":33,"Duration":493745,"SoundDuration":493745,"Delta":276478487},{"NoteNumber":49,"Velocity":22,"Duration":246872,"SoundDuration":246872,"Delta":276725360},{"NoteNumber":56,"Velocity":22,"Duration":246872,"SoundDuration":246872,"Delta":276972233},{"NoteNumber":53,"Velocity":17,"Duration":246872,"SoundDuration":246872,"Delta":276972233},{"NoteNumber":41,"Velocity":30,"Duration":493745,"SoundDuration":493745,"Delta":276972233},{"NoteNumber":49,"Velocity":24,"Duration":246872,"SoundDuration":246872,"Delta":277219106},{"NoteNumber":53,"Velocity":19,"Duration":246873,"SoundDuration":246873,"Delta":277465979},{"NoteNumber":56,"Velocity":25,"Duration":246873,"SoundDuration":246873,"Delta":277465979},{"NoteNumber":44,"Velocity":31,"Duration":493746,"SoundDuration":493746,"Delta":277465979},{"NoteNumber":49,"Velocity":26,"Duration":246872,"SoundDuration":246872,"Delta":277712852},{"NoteNumber":53,"Velocity":21,"Duration":246872,"SoundDuration":246872,"Delta":277959725},{"NoteNumber":56,"Velocity":27,"Duration":246872,"SoundDuration":246872,"Delta":277959725},{"NoteNumber":49,"Velocity":34,"Duration":527246,"SoundDuration":527246,"Delta":277959725},{"NoteNumber":49,"Velocity":29,"Duration":280373,"SoundDuration":280373,"Delta":278206598},{"NoteNumber":54,"Velocity":22,"Duration":254237,"SoundDuration":254237,"Delta":278486972},{"NoteNumber":57,"Velocity":29,"Duration":254237,"SoundDuration":254237,"Delta":278486972},{"NoteNumber":33,"Velocity":40,"Duration":508474,"SoundDuration":508474,"Delta":278486972},{"NoteNumber":49,"Velocity":28,"Duration":254237,"SoundDuration":254237,"Delta":278741209},{"NoteNumber":54,"Velocity":20,"Duration":254237,"SoundDuration":254237,"Delta":278995447},{"NoteNumber":57,"Velocity":25,"Duration":254237,"SoundDuration":254237,"Delta":278995447},{"NoteNumber":45,"Velocity":35,"Duration":505696,"SoundDuration":505696,"Delta":278995447},{"NoteNumber":49,"Velocity":23,"Duration":251458,"SoundDuration":251458,"Delta":279249684},{"NoteNumber":54,"Velocity":13,"Duration":252812,"SoundDuration":252812,"Delta":279501143},{"NoteNumber":56,"Velocity":17,"Duration":252812,"SoundDuration":252812,"Delta":279501143},{"NoteNumber":60,"Velocity":38,"Duration":1057669,"SoundDuration":1057669,"Delta":279501143},{"NoteNumber":63,"Velocity":41,"Duration":1057669,"SoundDuration":1057669,"Delta":279501143},{"NoteNumber":32,"Velocity":31,"Duration":509229,"SoundDuration":509229,"Delta":279501143},{"NoteNumber":51,"Velocity":22,"Duration":256416,"SoundDuration":256416,"Delta":279753956},{"NoteNumber":54,"Velocity":17,"Duration":262449,"SoundDuration":262449,"Delta":280010372},{"NoteNumber":56,"Velocity":22,"Duration":262449,"SoundDuration":262449,"Delta":280010372},{"NoteNumber":44,"Velocity":28,"Duration":548440,"SoundDuration":548440,"Delta":280010372},{"NoteNumber":51,"Velocity":22,"Duration":285991,"SoundDuration":285991,"Delta":280272821},{"NoteNumber":37,"Velocity":33,"Duration":246872,"SoundDuration":246872,"Delta":280558812},{"NoteNumber":56,"Velocity":22,"Duration":246872,"SoundDuration":246872,"Delta":280805685},{"NoteNumber":92,"Velocity":38,"Duration":123436,"SoundDuration":123436,"Delta":281052558},{"NoteNumber":64,"Velocity":17,"Duration":246872,"SoundDuration":246872,"Delta":281052558},{"NoteNumber":68,"Velocity":33,"Duration":246872,"SoundDuration":246872,"Delta":281052558},{"NoteNumber":61,"Velocity":17,"Duration":246872,"SoundDuration":246872,"Delta":281052558},{"NoteNumber":90,"Velocity":38,"Duration":123436,"SoundDuration":123436,"Delta":281175995},{"NoteNumber":88,"Velocity":38,"Duration":123436,"SoundDuration":123436,"Delta":281299431},{"NoteNumber":56,"Velocity":22,"Duration":246872,"SoundDuration":246872,"Delta":281299431},{"NoteNumber":87,"Velocity":37,"Duration":123436,"SoundDuration":123436,"Delta":281422868},{"NoteNumber":85,"Velocity":37,"Duration":121951,"SoundDuration":121951,"Delta":281546304},{"NoteNumber":64,"Velocity":17,"Duration":243902,"SoundDuration":243902,"Delta":281546304},{"NoteNumber":68,"Velocity":33,"Duration":243902,"SoundDuration":243902,"Delta":281546304},{"NoteNumber":61,"Velocity":17,"Duration":243902,"SoundDuration":243902,"Delta":281546304},{"NoteNumber":83,"Velocity":37,"Duration":121951,"SoundDuration":121951,"Delta":281668256},{"NoteNumber":81,"Velocity":36,"Duration":120967,"SoundDuration":120967,"Delta":281790207},{"NoteNumber":56,"Velocity":22,"Duration":241290,"SoundDuration":241290,"Delta":281790207},{"NoteNumber":80,"Velocity":36,"Duration":120322,"SoundDuration":120322,"Delta":281911175},{"NoteNumber":78,"Velocity":35,"Duration":119682,"SoundDuration":119682,"Delta":282031497},{"NoteNumber":64,"Velocity":17,"Duration":238730,"SoundDuration":238730,"Delta":282031497},{"NoteNumber":61,"Velocity":17,"Duration":238730,"SoundDuration":238730,"Delta":282031497},{"NoteNumber":68,"Velocity":33,"Duration":238730,"SoundDuration":238730,"Delta":282031497},{"NoteNumber":76,"Velocity":35,"Duration":119047,"SoundDuration":119047,"Delta":282151180},{"NoteNumber":75,"Velocity":34,"Duration":119047,"SoundDuration":119047,"Delta":282270227},{"NoteNumber":56,"Velocity":22,"Duration":238095,"SoundDuration":238095,"Delta":282270227},{"NoteNumber":73,"Velocity":33,"Duration":119047,"SoundDuration":119047,"Delta":282389275},{"NoteNumber":72,"Velocity":31,"Duration":118371,"SoundDuration":118371,"Delta":282508323},{"NoteNumber":37,"Velocity":33,"Duration":236742,"SoundDuration":236742,"Delta":282508323},{"NoteNumber":73,"Velocity":31,"Duration":118371,"SoundDuration":118371,"Delta":282626694},{"NoteNumber":75,"Velocity":33,"Duration":118371,"SoundDuration":118371,"Delta":282745065},{"NoteNumber":56,"Velocity":22,"Duration":236742,"SoundDuration":236742,"Delta":282745065},{"NoteNumber":73,"Velocity":33,"Duration":118371,"SoundDuration":118371,"Delta":282863436},{"NoteNumber":76,"Velocity":34,"Duration":118371,"SoundDuration":118371,"Delta":282981808},{"NoteNumber":64,"Velocity":17,"Duration":236742,"SoundDuration":236742,"Delta":282981808},{"NoteNumber":68,"Velocity":33,"Duration":236742,"SoundDuration":236742,"Delta":282981808},{"NoteNumber":61,"Velocity":17,"Duration":236742,"SoundDuration":236742,"Delta":282981808},{"NoteNumber":75,"Velocity":34,"Duration":118371,"SoundDuration":118371,"Delta":283100179},{"NoteNumber":78,"Velocity":35,"Duration":118371,"SoundDuration":118371,"Delta":283218550},{"NoteNumber":56,"Velocity":22,"Duration":236742,"SoundDuration":236742,"Delta":283218550},{"NoteNumber":76,"Velocity":35,"Duration":118371,"SoundDuration":118371,"Delta":283336921},{"NoteNumber":80,"Velocity":36,"Duration":122388,"SoundDuration":122388,"Delta":283455293},{"NoteNumber":64,"Velocity":17,"Duration":244777,"SoundDuration":244777,"Delta":283455293},{"NoteNumber":68,"Velocity":33,"Duration":244777,"SoundDuration":244777,"Delta":283455293},{"NoteNumber":61,"Velocity":17,"Duration":244777,"SoundDuration":244777,"Delta":283455293},{"NoteNumber":78,"Velocity":36,"Duration":122388,"SoundDuration":122388,"Delta":283577682},{"NoteNumber":81,"Velocity":37,"Duration":122388,"SoundDuration":122388,"Delta":283700071},{"NoteNumber":56,"Velocity":22,"Duration":244777,"SoundDuration":244777,"Delta":283700071},{"NoteNumber":80,"Velocity":37,"Duration":122388,"SoundDuration":122388,"Delta":283822460},{"NoteNumber":85,"Velocity":38,"Duration":122388,"SoundDuration":122388,"Delta":283944849},{"NoteNumber":61,"Velocity":17,"Duration":246541,"SoundDuration":246541,"Delta":283944849},{"NoteNumber":68,"Velocity":33,"Duration":246541,"SoundDuration":246541,"Delta":283944849},{"NoteNumber":64,"Velocity":17,"Duration":246541,"SoundDuration":246541,"Delta":283944849},{"NoteNumber":84,"Velocity":38,"Duration":124152,"SoundDuration":124152,"Delta":284067238},{"NoteNumber":87,"Velocity":39,"Duration":136483,"SoundDuration":136483,"Delta":284191390},{"NoteNumber":56,"Velocity":22,"Duration":290287,"SoundDuration":290287,"Delta":284191390},{"NoteNumber":85,"Velocity":39,"Duration":153803,"SoundDuration":153803,"Delta":284327874},{"NoteNumber":44,"Velocity":33,"Duration":246872,"SoundDuration":246872,"Delta":284481678},{"NoteNumber":32,"Velocity":27,"Duration":246872,"SoundDuration":246872,"Delta":284481678},{"NoteNumber":56,"Velocity":22,"Duration":246872,"SoundDuration":246872,"Delta":284728551},{"NoteNumber":93,"Velocity":38,"Duration":123436,"SoundDuration":123436,"Delta":284975424},{"NoteNumber":66,"Velocity":17,"Duration":246872,"SoundDuration":246872,"Delta":284975424},{"NoteNumber":68,"Velocity":37,"Duration":246872,"SoundDuration":246872,"Delta":284975424},{"NoteNumber":60,"Velocity":17,"Duration":246872,"SoundDuration":246872,"Delta":284975424},{"NoteNumber":92,"Velocity":38,"Duration":123436,"SoundDuration":123436,"Delta":285098860},{"NoteNumber":90,"Velocity":38,"Duration":123436,"SoundDuration":123436,"Delta":285222297},{"NoteNumber":56,"Velocity":22,"Duration":246872,"SoundDuration":246872,"Delta":285222297},{"NoteNumber":88,"Velocity":37,"Duration":123436,"SoundDuration":123436,"Delta":285345733},{"NoteNumber":87,"Velocity":37,"Duration":119350,"SoundDuration":119350,"Delta":285469170},{"NoteNumber":66,"Velocity":17,"Duration":238701,"SoundDuration":238701,"Delta":285469170},{"NoteNumber":68,"Velocity":40,"Duration":238701,"SoundDuration":238701,"Delta":285469170},{"NoteNumber":60,"Velocity":17,"Duration":238701,"SoundDuration":238701,"Delta":285469170},{"NoteNumber":85,"Velocity":37,"Duration":119350,"SoundDuration":119350,"Delta":285588521},{"NoteNumber":84,"Velocity":36,"Duration":119350,"SoundDuration":119350,"Delta":285707871},{"NoteNumber":56,"Velocity":22,"Duration":238701,"SoundDuration":238701,"Delta":285707871},{"NoteNumber":81,"Velocity":36,"Duration":119350,"SoundDuration":119350,"Delta":285827222},{"NoteNumber":80,"Velocity":35,"Duration":119350,"SoundDuration":119350,"Delta":285946573},{"NoteNumber":66,"Velocity":17,"Duration":238701,"SoundDuration":238701,"Delta":285946573},{"NoteNumber":60,"Velocity":17,"Duration":238701,"SoundDuration":238701,"Delta":285946573},{"NoteNumber":69,"Velocity":41,"Duration":238701,"SoundDuration":238701,"Delta":285946573},{"NoteNumber":78,"Velocity":35,"Duration":119350,"SoundDuration":119350,"Delta":286065924},{"NoteNumber":76,"Velocity":34,"Duration":132743,"SoundDuration":132743,"Delta":286185274},{"NoteNumber":56,"Velocity":22,"Duration":297578,"SoundDuration":297578,"Delta":286185274},{"NoteNumber":75,"Velocity":33,"Duration":164835,"SoundDuration":164835,"Delta":286318018},{"NoteNumber":73,"Velocity":31,"Duration":123436,"SoundDuration":123436,"Delta":286482853},{"NoteNumber":44,"Velocity":33,"Duration":246872,"SoundDuration":246872,"Delta":286482853},{"NoteNumber":32,"Velocity":27,"Duration":246872,"SoundDuration":246872,"Delta":286482853},{"NoteNumber":72,"Velocity":31,"Duration":123436,"SoundDuration":123436,"Delta":286606289},{"NoteNumber":75,"Velocity":33,"Duration":123436,"SoundDuration":123436,"Delta":286729726},{"NoteNumber":56,"Velocity":22,"Duration":246872,"SoundDuration":246872,"Delta":286729726},{"NoteNumber":73,"Velocity":33,"Duration":123436,"SoundDuration":123436,"Delta":286853162},{"NoteNumber":76,"Velocity":34,"Duration":123436,"SoundDuration":123436,"Delta":286976599},{"NoteNumber":66,"Velocity":17,"Duration":246872,"SoundDuration":246872,"Delta":286976599},{"NoteNumber":60,"Velocity":17,"Duration":246872,"SoundDuration":246872,"Delta":286976599},{"NoteNumber":68,"Velocity":33,"Duration":246872,"SoundDuration":246872,"Delta":286976599},{"NoteNumber":75,"Velocity":34,"Duration":123436,"SoundDuration":123436,"Delta":287100035},{"NoteNumber":78,"Velocity":35,"Duration":123436,"SoundDuration":123436,"Delta":287223472},{"NoteNumber":56,"Velocity":22,"Duration":246872,"SoundDuration":246872,"Delta":287223472},{"NoteNumber":76,"Velocity":35,"Duration":123436,"SoundDuration":123436,"Delta":287346908},{"NoteNumber":80,"Velocity":36,"Duration":125586,"SoundDuration":125586,"Delta":287470345},{"NoteNumber":66,"Velocity":17,"Duration":251172,"SoundDuration":251172,"Delta":287470345},{"NoteNumber":60,"Velocity":17,"Duration":251172,"SoundDuration":251172,"Delta":287470345},{"NoteNumber":68,"Velocity":33,"Duration":251172,"SoundDuration":251172,"Delta":287470345},{"NoteNumber":78,"Velocity":36,"Duration":125586,"SoundDuration":125586,"Delta":287595931},{"NoteNumber":81,"Velocity":37,"Duration":125586,"SoundDuration":125586,"Delta":287721517},{"NoteNumber":56,"Velocity":22,"Duration":251172,"SoundDuration":251172,"Delta":287721517},{"NoteNumber":80,"Velocity":37,"Duration":125586,"SoundDuration":125586,"Delta":287847103},{"NoteNumber":85,"Velocity":38,"Duration":125586,"SoundDuration":125586,"Delta":287972689},{"NoteNumber":66,"Velocity":17,"Duration":251172,"SoundDuration":251172,"Delta":287972689},{"NoteNumber":60,"Velocity":17,"Duration":251172,"SoundDuration":251172,"Delta":287972689},{"NoteNumber":68,"Velocity":33,"Duration":251172,"SoundDuration":251172,"Delta":287972689},{"NoteNumber":84,"Velocity":38,"Duration":125586,"SoundDuration":125586,"Delta":288098276},{"NoteNumber":88,"Velocity":39,"Duration":125586,"SoundDuration":125586,"Delta":288223862},{"NoteNumber":56,"Velocity":22,"Duration":251172,"SoundDuration":251172,"Delta":288223862},{"NoteNumber":87,"Velocity":39,"Duration":125586,"SoundDuration":125586,"Delta":288349448},{"NoteNumber":37,"Velocity":33,"Duration":246872,"SoundDuration":246872,"Delta":288475034},{"NoteNumber":56,"Velocity":22,"Duration":246872,"SoundDuration":246872,"Delta":288721907},{"NoteNumber":100,"Velocity":38,"Duration":120000,"SoundDuration":120000,"Delta":288968780},{"NoteNumber":64,"Velocity":33,"Duration":240000,"SoundDuration":240000,"Delta":288968780},{"NoteNumber":61,"Velocity":17,"Duration":240000,"SoundDuration":240000,"Delta":288968780},{"NoteNumber":99,"Velocity":38,"Duration":120000,"SoundDuration":120000,"Delta":289088780},{"NoteNumber":97,"Velocity":38,"Duration":120000,"SoundDuration":120000,"Delta":289208780},{"NoteNumber":56,"Velocity":22,"Duration":240000,"SoundDuration":240000,"Delta":289208780},{"NoteNumber":95,"Velocity":37,"Duration":120000,"SoundDuration":120000,"Delta":289328780},{"NoteNumber":93,"Velocity":37,"Duration":119682,"SoundDuration":119682,"Delta":289448780},{"NoteNumber":64,"Velocity":33,"Duration":238730,"SoundDuration":238730,"Delta":289448780},{"NoteNumber":61,"Velocity":17,"Duration":238730,"SoundDuration":238730,"Delta":289448780},{"NoteNumber":92,"Velocity":37,"Duration":119047,"SoundDuration":119047,"Delta":289568462},{"NoteNumber":90,"Velocity":36,"Duration":119047,"SoundDuration":119047,"Delta":289687510},{"NoteNumber":56,"Velocity":22,"Duration":238095,"SoundDuration":238095,"Delta":289687510},{"NoteNumber":88,"Velocity":36,"Duration":119047,"SoundDuration":119047,"Delta":289806558},{"NoteNumber":87,"Velocity":35,"Duration":118735,"SoundDuration":118735,"Delta":289925605},{"NoteNumber":61,"Velocity":17,"Duration":236845,"SoundDuration":236845,"Delta":289925605},{"NoteNumber":64,"Velocity":33,"Duration":236845,"SoundDuration":236845,"Delta":289925605},{"NoteNumber":85,"Velocity":35,"Duration":118110,"SoundDuration":118110,"Delta":290044341},{"NoteNumber":84,"Velocity":34,"Duration":118110,"SoundDuration":118110,"Delta":290162451},{"NoteNumber":56,"Velocity":22,"Duration":236220,"SoundDuration":236220,"Delta":290162451},{"NoteNumber":85,"Velocity":33,"Duration":118110,"SoundDuration":118110,"Delta":290280561},{"NoteNumber":45,"Velocity":41,"Duration":236742,"SoundDuration":236742,"Delta":290398671},{"NoteNumber":57,"Velocity":24,"Duration":236742,"SoundDuration":236742,"Delta":290635414},{"NoteNumber":97,"Velocity":38,"Duration":118371,"SoundDuration":118371,"Delta":290872156},{"NoteNumber":66,"Velocity":45,"Duration":236742,"SoundDuration":236742,"Delta":290872156},{"NoteNumber":61,"Velocity":19,"Duration":236742,"SoundDuration":236742,"Delta":290872156},{"NoteNumber":93,"Velocity":38,"Duration":118371,"SoundDuration":118371,"Delta":290990528},{"NoteNumber":92,"Velocity":38,"Duration":118371,"SoundDuration":118371,"Delta":291108899},{"NoteNumber":57,"Velocity":25,"Duration":236742,"SoundDuration":236742,"Delta":291108899},{"NoteNumber":90,"Velocity":37,"Duration":118371,"SoundDuration":118371,"Delta":291227270},{"NoteNumber":88,"Velocity":36,"Duration":122388,"SoundDuration":122388,"Delta":291345641},{"NoteNumber":64,"Velocity":51,"Duration":244777,"SoundDuration":244777,"Delta":291345641},{"NoteNumber":61,"Velocity":20,"Duration":244777,"SoundDuration":244777,"Delta":291345641},{"NoteNumber":85,"Velocity":37,"Duration":122388,"SoundDuration":122388,"Delta":291468030},{"NoteNumber":83,"Velocity":38,"Duration":122388,"SoundDuration":122388,"Delta":291590419},{"NoteNumber":57,"Velocity":26,"Duration":244777,"SoundDuration":244777,"Delta":291590419},{"NoteNumber":81,"Velocity":39,"Duration":122388,"SoundDuration":122388,"Delta":291712808},{"NoteNumber":78,"Velocity":40,"Duration":122388,"SoundDuration":122388,"Delta":291835197},{"NoteNumber":61,"Velocity":22,"Duration":246518,"SoundDuration":246518,"Delta":291835197},{"NoteNumber":66,"Velocity":52,"Duration":246518,"SoundDuration":246518,"Delta":291835197},{"NoteNumber":76,"Velocity":41,"Duration":124129,"SoundDuration":124129,"Delta":291957586},{"NoteNumber":75,"Velocity":42,"Duration":135665,"SoundDuration":135665,"Delta":292081716},{"NoteNumber":57,"Velocity":28,"Duration":277174,"SoundDuration":277174,"Delta":292081716},{"NoteNumber":73,"Velocity":45,"Duration":141509,"SoundDuration":141509,"Delta":292217381},{"NoteNumber":44,"Velocity":49,"Duration":246872,"SoundDuration":246872,"Delta":292358891},{"NoteNumber":56,"Velocity":27,"Duration":246872,"SoundDuration":246872,"Delta":292605764},{"NoteNumber":92,"Velocity":47,"Duration":123436,"SoundDuration":123436,"Delta":292852637},{"NoteNumber":63,"Velocity":22,"Duration":246872,"SoundDuration":246872,"Delta":292852637},{"NoteNumber":68,"Velocity":45,"Duration":246872,"SoundDuration":246872,"Delta":292852637},{"NoteNumber":60,"Velocity":22,"Duration":246872,"SoundDuration":246872,"Delta":292852637},{"NoteNumber":91,"Velocity":45,"Duration":123436,"SoundDuration":123436,"Delta":292976073},{"NoteNumber":92,"Velocity":44,"Duration":123436,"SoundDuration":123436,"Delta":293099510},{"NoteNumber":56,"Velocity":26,"Duration":246872,"SoundDuration":246872,"Delta":293099510},{"NoteNumber":87,"Velocity":41,"Duration":123436,"SoundDuration":123436,"Delta":293222946},{"NoteNumber":84,"Velocity":40,"Duration":119350,"SoundDuration":119350,"Delta":293346383},{"NoteNumber":63,"Velocity":20,"Duration":238701,"SoundDuration":238701,"Delta":293346383},{"NoteNumber":68,"Velocity":43,"Duration":238701,"SoundDuration":238701,"Delta":293346383},{"NoteNumber":60,"Velocity":20,"Duration":238701,"SoundDuration":238701,"Delta":293346383},{"NoteNumber":87,"Velocity":38,"Duration":119350,"SoundDuration":119350,"Delta":293465733},{"NoteNumber":84,"Velocity":36,"Duration":119350,"SoundDuration":119350,"Delta":293585084},{"NoteNumber":56,"Velocity":25,"Duration":238701,"SoundDuration":238701,"Delta":293585084},{"NoteNumber":80,"Velocity":36,"Duration":119350,"SoundDuration":119350,"Delta":293704435},{"NoteNumber":75,"Velocity":35,"Duration":119350,"SoundDuration":119350,"Delta":293823786},{"NoteNumber":63,"Velocity":19,"Duration":238701,"SoundDuration":238701,"Delta":293823786},{"NoteNumber":60,"Velocity":19,"Duration":238701,"SoundDuration":238701,"Delta":293823786},{"NoteNumber":68,"Velocity":42,"Duration":238701,"SoundDuration":238701,"Delta":293823786},{"NoteNumber":80,"Velocity":35,"Duration":119350,"SoundDuration":119350,"Delta":293943136},{"NoteNumber":75,"Velocity":34,"Duration":119350,"SoundDuration":119350,"Delta":294062487},{"NoteNumber":56,"Velocity":24,"Duration":238701,"SoundDuration":238701,"Delta":294062487},{"NoteNumber":72,"Velocity":33,"Duration":119350,"SoundDuration":119350,"Delta":294181838},{"NoteNumber":68,"Velocity":31,"Duration":123436,"SoundDuration":123436,"Delta":294301189},{"NoteNumber":44,"Velocity":37,"Duration":246872,"SoundDuration":246872,"Delta":294301189},{"NoteNumber":70,"Velocity":31,"Duration":123436,"SoundDuration":123436,"Delta":294424625},{"NoteNumber":72,"Velocity":33,"Duration":123436,"SoundDuration":123436,"Delta":294548062},{"NoteNumber":56,"Velocity":22,"Duration":246872,"SoundDuration":246872,"Delta":294548062},{"NoteNumber":73,"Velocity":33,"Duration":123436,"SoundDuration":123436,"Delta":294671498},{"NoteNumber":75,"Velocity":34,"Duration":123436,"SoundDuration":123436,"Delta":294794935},{"NoteNumber":66,"Velocity":17,"Duration":246872,"SoundDuration":246872,"Delta":294794935},{"NoteNumber":60,"Velocity":17,"Duration":246872,"SoundDuration":246872,"Delta":294794935},{"NoteNumber":68,"Velocity":40,"Duration":246872,"SoundDuration":246872,"Delta":294794935},{"NoteNumber":76,"Velocity":34,"Duration":123436,"SoundDuration":123436,"Delta":294918371},{"NoteNumber":78,"Velocity":35,"Duration":123436,"SoundDuration":123436,"Delta":295041808},{"NoteNumber":56,"Velocity":22,"Duration":246872,"SoundDuration":246872,"Delta":295041808},{"NoteNumber":80,"Velocity":35,"Duration":123436,"SoundDuration":123436,"Delta":295165244},{"NoteNumber":81,"Velocity":36,"Duration":125586,"SoundDuration":125586,"Delta":295288681},{"NoteNumber":66,"Velocity":17,"Duration":251172,"SoundDuration":251172,"Delta":295288681},{"NoteNumber":60,"Velocity":17,"Duration":251172,"SoundDuration":251172,"Delta":295288681},{"NoteNumber":69,"Velocity":42,"Duration":251172,"SoundDuration":251172,"Delta":295288681},{"NoteNumber":84,"Velocity":36,"Duration":125586,"SoundDuration":125586,"Delta":295414267},{"NoteNumber":85,"Velocity":37,"Duration":125586,"SoundDuration":125586,"Delta":295539853},{"NoteNumber":56,"Velocity":22,"Duration":251172,"SoundDuration":251172,"Delta":295539853},{"NoteNumber":87,"Velocity":37,"Duration":125586,"SoundDuration":125586,"Delta":295665439},{"NoteNumber":88,"Velocity":38,"Duration":125586,"SoundDuration":125586,"Delta":295791025},{"NoteNumber":66,"Velocity":17,"Duration":250092,"SoundDuration":250092,"Delta":295791025},{"NoteNumber":60,"Velocity":17,"Duration":250092,"SoundDuration":250092,"Delta":295791025},{"NoteNumber":68,"Velocity":40,"Duration":250092,"SoundDuration":250092,"Delta":295791025},{"NoteNumber":90,"Velocity":38,"Duration":124506,"SoundDuration":124506,"Delta":295916611},{"NoteNumber":92,"Velocity":39,"Duration":135365,"SoundDuration":135365,"Delta":296041118},{"NoteNumber":56,"Velocity":22,"Duration":304819,"SoundDuration":304819,"Delta":296041118},{"NoteNumber":93,"Velocity":39,"Duration":169454,"SoundDuration":169454,"Delta":296176483},{"NoteNumber":37,"Velocity":33,"Duration":246872,"SoundDuration":246872,"Delta":296345938},{"NoteNumber":56,"Velocity":22,"Duration":246872,"SoundDuration":246872,"Delta":296592811},{"NoteNumber":92,"Velocity":38,"Duration":122291,"SoundDuration":122291,"Delta":296839684},{"NoteNumber":64,"Velocity":17,"Duration":242291,"SoundDuration":242291,"Delta":296839684},{"NoteNumber":68,"Velocity":33,"Duration":242291,"SoundDuration":242291,"Delta":296839684},{"NoteNumber":61,"Velocity":17,"Duration":242291,"SoundDuration":242291,"Delta":296839684},{"NoteNumber":90,"Velocity":38,"Duration":120000,"SoundDuration":120000,"Delta":296961975},{"NoteNumber":88,"Velocity":38,"Duration":119999,"SoundDuration":119999,"Delta":297081975},{"NoteNumber":56,"Velocity":22,"Duration":239999,"SoundDuration":239999,"Delta":297081975},{"NoteNumber":87,"Velocity":37,"Duration":120000,"SoundDuration":120000,"Delta":297201975},{"NoteNumber":85,"Velocity":37,"Duration":120000,"SoundDuration":120000,"Delta":297321975},{"NoteNumber":64,"Velocity":17,"Duration":240000,"SoundDuration":240000,"Delta":297321975},{"NoteNumber":68,"Velocity":33,"Duration":240000,"SoundDuration":240000,"Delta":297321975},{"NoteNumber":61,"Velocity":17,"Duration":240000,"SoundDuration":240000,"Delta":297321975},{"NoteNumber":83,"Velocity":37,"Duration":120000,"SoundDuration":120000,"Delta":297441975},{"NoteNumber":81,"Velocity":36,"Duration":119047,"SoundDuration":119047,"Delta":297561975},{"NoteNumber":56,"Velocity":22,"Duration":238095,"SoundDuration":238095,"Delta":297561975},{"NoteNumber":80,"Velocity":36,"Duration":119047,"SoundDuration":119047,"Delta":297681023},{"NoteNumber":78,"Velocity":35,"Duration":119047,"SoundDuration":119047,"Delta":297800070},{"NoteNumber":64,"Velocity":17,"Duration":238095,"SoundDuration":238095,"Delta":297800070},{"NoteNumber":61,"Velocity":17,"Duration":238095,"SoundDuration":238095,"Delta":297800070},{"NoteNumber":68,"Velocity":33,"Duration":238095,"SoundDuration":238095,"Delta":297800070},{"NoteNumber":76,"Velocity":35,"Duration":119047,"SoundDuration":119047,"Delta":297919118},{"NoteNumber":75,"Velocity":34,"Duration":119047,"SoundDuration":119047,"Delta":298038165},{"NoteNumber":56,"Velocity":22,"Duration":237470,"SoundDuration":237470,"Delta":298038165},{"NoteNumber":73,"Velocity":33,"Duration":118422,"SoundDuration":118422,"Delta":298157213},{"NoteNumber":72,"Velocity":31,"Duration":118371,"SoundDuration":118371,"Delta":298275636},{"NoteNumber":37,"Velocity":33,"Duration":236742,"SoundDuration":236742,"Delta":298275636},{"NoteNumber":73,"Velocity":31,"Duration":118371,"SoundDuration":118371,"Delta":298394007},{"NoteNumber":75,"Velocity":33,"Duration":118371,"SoundDuration":118371,"Delta":298512378},{"NoteNumber":56,"Velocity":22,"Duration":236742,"SoundDuration":236742,"Delta":298512378},{"NoteNumber":73,"Velocity":33,"Duration":118371,"SoundDuration":118371,"Delta":298630750},{"NoteNumber":76,"Velocity":34,"Duration":118371,"SoundDuration":118371,"Delta":298749121},{"NoteNumber":64,"Velocity":17,"Duration":236742,"SoundDuration":236742,"Delta":298749121},{"NoteNumber":68,"Velocity":33,"Duration":236742,"SoundDuration":236742,"Delta":298749121},{"NoteNumber":61,"Velocity":17,"Duration":236742,"SoundDuration":236742,"Delta":298749121},{"NoteNumber":75,"Velocity":34,"Duration":118371,"SoundDuration":118371,"Delta":298867492},{"NoteNumber":78,"Velocity":35,"Duration":118371,"SoundDuration":118371,"Delta":298985863},{"NoteNumber":56,"Velocity":22,"Duration":236742,"SoundDuration":236742,"Delta":298985863},{"NoteNumber":76,"Velocity":35,"Duration":118371,"SoundDuration":118371,"Delta":299104235},{"NoteNumber":80,"Velocity":35,"Duration":122388,"SoundDuration":122388,"Delta":299222606},{"NoteNumber":64,"Velocity":17,"Duration":244777,"SoundDuration":244777,"Delta":299222606},{"NoteNumber":68,"Velocity":33,"Duration":244777,"SoundDuration":244777,"Delta":299222606},{"NoteNumber":61,"Velocity":17,"Duration":244777,"SoundDuration":244777,"Delta":299222606},{"NoteNumber":78,"Velocity":36,"Duration":122388,"SoundDuration":122388,"Delta":299344995},{"NoteNumber":81,"Velocity":37,"Duration":122388,"SoundDuration":122388,"Delta":299467384},{"NoteNumber":56,"Velocity":22,"Duration":244777,"SoundDuration":244777,"Delta":299467384},{"NoteNumber":80,"Velocity":39,"Duration":122388,"SoundDuration":122388,"Delta":299589773},{"NoteNumber":85,"Velocity":40,"Duration":122388,"SoundDuration":122388,"Delta":299712162},{"NoteNumber":61,"Velocity":17,"Duration":247955,"SoundDuration":247955,"Delta":299712162},{"NoteNumber":68,"Velocity":33,"Duration":247955,"SoundDuration":247955,"Delta":299712162},{"NoteNumber":64,"Velocity":17,"Duration":247955,"SoundDuration":247955,"Delta":299712162},{"NoteNumber":84,"Velocity":42,"Duration":125566,"SoundDuration":125566,"Delta":299834551},{"NoteNumber":87,"Velocity":44,"Duration":139016,"SoundDuration":139016,"Delta":299960117},{"NoteNumber":56,"Velocity":22,"Duration":293182,"SoundDuration":293182,"Delta":299960117},{"NoteNumber":85,"Velocity":46,"Duration":154166,"SoundDuration":154166,"Delta":300099133},{"NoteNumber":42,"Velocity":46,"Duration":246872,"SoundDuration":246872,"Delta":300253300},{"NoteNumber":62,"Velocity":28,"Duration":246872,"SoundDuration":246872,"Delta":300500173},{"NoteNumber":98,"Velocity":42,"Duration":118110,"SoundDuration":118110,"Delta":300747046},{"NoteNumber":68,"Velocity":22,"Duration":236220,"SoundDuration":236220,"Delta":300747046},{"NoteNumber":71,"Velocity":46,"Duration":236220,"SoundDuration":236220,"Delta":300747046},{"NoteNumber":65,"Velocity":22,"Duration":236220,"SoundDuration":236220,"Delta":300747046},{"NoteNumber":97,"Velocity":41,"Duration":118110,"SoundDuration":118110,"Delta":300865156},{"NoteNumber":95,"Velocity":40,"Duration":118110,"SoundDuration":118110,"Delta":300983266},{"NoteNumber":62,"Velocity":26,"Duration":235605,"SoundDuration":235605,"Delta":300983266},{"NoteNumber":93,"Velocity":39,"Duration":117495,"SoundDuration":117495,"Delta":301101377},{"NoteNumber":92,"Velocity":38,"Duration":119350,"SoundDuration":119350,"Delta":301218872},{"NoteNumber":68,"Velocity":20,"Duration":238701,"SoundDuration":238701,"Delta":301218872},{"NoteNumber":71,"Velocity":43,"Duration":238701,"SoundDuration":238701,"Delta":301218872},{"NoteNumber":65,"Velocity":20,"Duration":238701,"SoundDuration":238701,"Delta":301218872},{"NoteNumber":90,"Velocity":37,"Duration":119350,"SoundDuration":119350,"Delta":301338223},{"NoteNumber":89,"Velocity":36,"Duration":119350,"SoundDuration":119350,"Delta":301457573},{"NoteNumber":62,"Velocity":25,"Duration":238701,"SoundDuration":238701,"Delta":301457573},{"NoteNumber":86,"Velocity":36,"Duration":119350,"SoundDuration":119350,"Delta":301576924},{"NoteNumber":85,"Velocity":35,"Duration":119350,"SoundDuration":119350,"Delta":301696275},{"NoteNumber":68,"Velocity":19,"Duration":238701,"SoundDuration":238701,"Delta":301696275},{"NoteNumber":65,"Velocity":19,"Duration":238701,"SoundDuration":238701,"Delta":301696275},{"NoteNumber":71,"Velocity":42,"Duration":238701,"SoundDuration":238701,"Delta":301696275},{"NoteNumber":83,"Velocity":35,"Duration":119350,"SoundDuration":119350,"Delta":301815626},{"NoteNumber":81,"Velocity":34,"Duration":119350,"SoundDuration":119350,"Delta":301934976},{"NoteNumber":62,"Velocity":24,"Duration":238701,"SoundDuration":238701,"Delta":301934976},{"NoteNumber":80,"Velocity":33,"Duration":119350,"SoundDuration":119350,"Delta":302054327},{"NoteNumber":78,"Velocity":31,"Duration":120510,"SoundDuration":120510,"Delta":302173678},{"NoteNumber":42,"Velocity":33,"Duration":239558,"SoundDuration":239558,"Delta":302173678},{"NoteNumber":77,"Velocity":31,"Duration":119047,"SoundDuration":119047,"Delta":302294188},{"NoteNumber":80,"Velocity":33,"Duration":119047,"SoundDuration":119047,"Delta":302413236},{"NoteNumber":61,"Velocity":22,"Duration":238095,"SoundDuration":238095,"Delta":302413236},{"NoteNumber":78,"Velocity":33,"Duration":119047,"SoundDuration":119047,"Delta":302532284},{"NoteNumber":81,"Velocity":34,"Duration":120000,"SoundDuration":120000,"Delta":302651331},{"NoteNumber":66,"Velocity":17,"Duration":240000,"SoundDuration":240000,"Delta":302651331},{"NoteNumber":69,"Velocity":33,"Duration":240000,"SoundDuration":240000,"Delta":302651331},{"NoteNumber":80,"Velocity":34,"Duration":120000,"SoundDuration":120000,"Delta":302771331},{"NoteNumber":83,"Velocity":35,"Duration":120000,"SoundDuration":120000,"Delta":302891331},{"NoteNumber":61,"Velocity":22,"Duration":240645,"SoundDuration":240645,"Delta":302891331},{"NoteNumber":81,"Velocity":35,"Duration":120645,"SoundDuration":120645,"Delta":303011331},{"NoteNumber":85,"Velocity":36,"Duration":120967,"SoundDuration":120967,"Delta":303131976},{"NoteNumber":57,"Velocity":17,"Duration":241935,"SoundDuration":241935,"Delta":303131976},{"NoteNumber":66,"Velocity":33,"Duration":241935,"SoundDuration":241935,"Delta":303131976},{"NoteNumber":83,"Velocity":36,"Duration":120967,"SoundDuration":120967,"Delta":303252944},{"NoteNumber":86,"Velocity":37,"Duration":121951,"SoundDuration":121951,"Delta":303373912},{"NoteNumber":61,"Velocity":22,"Duration":243902,"SoundDuration":243902,"Delta":303373912},{"NoteNumber":85,"Velocity":37,"Duration":121951,"SoundDuration":121951,"Delta":303495863},{"NoteNumber":90,"Velocity":38,"Duration":122617,"SoundDuration":122617,"Delta":303617814},{"NoteNumber":57,"Velocity":17,"Duration":246251,"SoundDuration":246251,"Delta":303617814},{"NoteNumber":66,"Velocity":33,"Duration":246251,"SoundDuration":246251,"Delta":303617814},{"NoteNumber":89,"Velocity":38,"Duration":123633,"SoundDuration":123633,"Delta":303740432},{"NoteNumber":92,"Velocity":39,"Duration":129724,"SoundDuration":129724,"Delta":303864066},{"NoteNumber":60,"Velocity":22,"Duration":267810,"SoundDuration":267810,"Delta":303864066},{"NoteNumber":90,"Velocity":39,"Duration":138086,"SoundDuration":138086,"Delta":303993790},{"NoteNumber":47,"Velocity":33,"Duration":246872,"SoundDuration":246872,"Delta":304131877},{"NoteNumber":59,"Velocity":22,"Duration":246872,"SoundDuration":246872,"Delta":304378750},{"NoteNumber":95,"Velocity":38,"Duration":120000,"SoundDuration":120000,"Delta":304625623},{"NoteNumber":64,"Velocity":33,"Duration":240000,"SoundDuration":240000,"Delta":304625623},{"NoteNumber":56,"Velocity":17,"Duration":240000,"SoundDuration":240000,"Delta":304625623},{"NoteNumber":100,"Velocity":38,"Duration":120000,"SoundDuration":120000,"Delta":304745623},{"NoteNumber":99,"Velocity":38,"Duration":120000,"SoundDuration":120000,"Delta":304865623},{"NoteNumber":59,"Velocity":22,"Duration":240000,"SoundDuration":240000,"Delta":304865623},{"NoteNumber":97,"Velocity":37,"Duration":120000,"SoundDuration":120000,"Delta":304985623},{"NoteNumber":95,"Velocity":37,"Duration":119047,"SoundDuration":119047,"Delta":305105623},{"NoteNumber":64,"Velocity":33,"Duration":238095,"SoundDuration":238095,"Delta":305105623},{"NoteNumber":56,"Velocity":17,"Duration":238095,"SoundDuration":238095,"Delta":305105623},{"NoteNumber":93,"Velocity":37,"Duration":119047,"SoundDuration":119047,"Delta":305224670},{"NoteNumber":92,"Velocity":36,"Duration":119047,"SoundDuration":119047,"Delta":305343718},{"NoteNumber":59,"Velocity":22,"Duration":237782,"SoundDuration":237782,"Delta":305343718},{"NoteNumber":90,"Velocity":36,"Duration":118735,"SoundDuration":118735,"Delta":305462765},{"NoteNumber":88,"Velocity":35,"Duration":118110,"SoundDuration":118110,"Delta":305581501},{"NoteNumber":56,"Velocity":17,"Duration":236220,"SoundDuration":236220,"Delta":305581501},{"NoteNumber":64,"Velocity":33,"Duration":236220,"SoundDuration":236220,"Delta":305581501},{"NoteNumber":87,"Velocity":35,"Duration":118110,"SoundDuration":118110,"Delta":305699611},{"NoteNumber":85,"Velocity":34,"Duration":118110,"SoundDuration":118110,"Delta":305817721},{"NoteNumber":59,"Velocity":22,"Duration":235605,"SoundDuration":235605,"Delta":305817721},{"NoteNumber":83,"Velocity":33,"Duration":117495,"SoundDuration":117495,"Delta":305935831},{"NoteNumber":47,"Velocity":41,"Duration":236742,"SoundDuration":236742,"Delta":306053326},{"NoteNumber":59,"Velocity":24,"Duration":236742,"SoundDuration":236742,"Delta":306290069},{"NoteNumber":83,"Velocity":38,"Duration":118371,"SoundDuration":118371,"Delta":306526811},{"NoteNumber":63,"Velocity":19,"Duration":236742,"SoundDuration":236742,"Delta":306526811},{"NoteNumber":68,"Velocity":45,"Duration":236742,"SoundDuration":236742,"Delta":306526811},{"NoteNumber":57,"Velocity":19,"Duration":236742,"SoundDuration":236742,"Delta":306526811},{"NoteNumber":93,"Velocity":38,"Duration":118371,"SoundDuration":118371,"Delta":306645183},{"NoteNumber":92,"Velocity":38,"Duration":118371,"SoundDuration":118371,"Delta":306763554},{"NoteNumber":59,"Velocity":25,"Duration":236742,"SoundDuration":236742,"Delta":306763554},{"NoteNumber":90,"Velocity":37,"Duration":118371,"SoundDuration":118371,"Delta":306881925},{"NoteNumber":88,"Velocity":36,"Duration":122388,"SoundDuration":122388,"Delta":307000296},{"NoteNumber":63,"Velocity":20,"Duration":244777,"SoundDuration":244777,"Delta":307000296},{"NoteNumber":68,"Velocity":51,"Duration":244777,"SoundDuration":244777,"Delta":307000296},{"NoteNumber":57,"Velocity":20,"Duration":244777,"SoundDuration":244777,"Delta":307000296},{"NoteNumber":87,"Velocity":37,"Duration":122388,"SoundDuration":122388,"Delta":307122685},{"NoteNumber":85,"Velocity":38,"Duration":122388,"SoundDuration":122388,"Delta":307245074},{"NoteNumber":59,"Velocity":26,"Duration":244777,"SoundDuration":244777,"Delta":307245074},{"NoteNumber":83,"Velocity":39,"Duration":122388,"SoundDuration":122388,"Delta":307367463},{"NoteNumber":82,"Velocity":40,"Duration":122243,"SoundDuration":122243,"Delta":307489852},{"NoteNumber":63,"Velocity":22,"Duration":251260,"SoundDuration":251260,"Delta":307489852},{"NoteNumber":57,"Velocity":22,"Duration":251260,"SoundDuration":251260,"Delta":307489852},{"NoteNumber":66,"Velocity":52,"Duration":251260,"SoundDuration":251260,"Delta":307489852},{"NoteNumber":83,"Velocity":41,"Duration":129017,"SoundDuration":129017,"Delta":307612096},{"NoteNumber":81,"Velocity":42,"Duration":142060,"SoundDuration":142060,"Delta":307741113},{"NoteNumber":59,"Velocity":28,"Duration":297829,"SoundDuration":297829,"Delta":307741113},{"NoteNumber":78,"Velocity":45,"Duration":155768,"SoundDuration":155768,"Delta":307883174},{"NoteNumber":76,"Velocity":45,"Duration":114503,"SoundDuration":114503,"Delta":308038943},{"NoteNumber":40,"Velocity":42,"Duration":229007,"SoundDuration":229007,"Delta":308038943},{"NoteNumber":75,"Velocity":45,"Duration":114503,"SoundDuration":114503,"Delta":308153446},{"NoteNumber":73,"Velocity":45,"Duration":114503,"SoundDuration":114503,"Delta":308267950},{"NoteNumber":59,"Velocity":27,"Duration":229007,"SoundDuration":229007,"Delta":308267950},{"NoteNumber":71,"Velocity":45,"Duration":114503,"SoundDuration":114503,"Delta":308382454},{"NoteNumber":70,"Velocity":47,"Duration":114503,"SoundDuration":114503,"Delta":308496958},{"NoteNumber":64,"Velocity":45,"Duration":229007,"SoundDuration":229007,"Delta":308496958},{"NoteNumber":56,"Velocity":22,"Duration":229007,"SoundDuration":229007,"Delta":308496958},{"NoteNumber":71,"Velocity":45,"Duration":114503,"SoundDuration":114503,"Delta":308611462},{"NoteNumber":73,"Velocity":44,"Duration":114503,"SoundDuration":114503,"Delta":308725966},{"NoteNumber":59,"Velocity":26,"Duration":229007,"SoundDuration":229007,"Delta":308725966},{"NoteNumber":75,"Velocity":41,"Duration":114503,"SoundDuration":114503,"Delta":308840470},{"NoteNumber":76,"Velocity":44,"Duration":113636,"SoundDuration":113636,"Delta":308954974},{"NoteNumber":64,"Velocity":43,"Duration":227272,"SoundDuration":227272,"Delta":308954974},{"NoteNumber":56,"Velocity":20,"Duration":227272,"SoundDuration":227272,"Delta":308954974},{"NoteNumber":75,"Velocity":45,"Duration":113636,"SoundDuration":113636,"Delta":309068610},{"NoteNumber":76,"Velocity":46,"Duration":113351,"SoundDuration":113351,"Delta":309182246},{"NoteNumber":59,"Velocity":25,"Duration":226133,"SoundDuration":226133,"Delta":309182246},{"NoteNumber":78,"Velocity":47,"Duration":112781,"SoundDuration":112781,"Delta":309295598},{"NoteNumber":80,"Velocity":50,"Duration":112781,"SoundDuration":112781,"Delta":309408380},{"NoteNumber":56,"Velocity":19,"Duration":225002,"SoundDuration":225002,"Delta":309408380},{"NoteNumber":64,"Velocity":42,"Duration":225002,"SoundDuration":225002,"Delta":309408380},{"NoteNumber":79,"Velocity":51,"Duration":112220,"SoundDuration":112220,"Delta":309521162},{"NoteNumber":80,"Velocity":53,"Duration":111940,"SoundDuration":111940,"Delta":309633383},{"NoteNumber":59,"Velocity":24,"Duration":223880,"SoundDuration":223880,"Delta":309633383},{"NoteNumber":82,"Velocity":55,"Duration":111940,"SoundDuration":111940,"Delta":309745323},{"NoteNumber":83,"Velocity":57,"Duration":111111,"SoundDuration":111111,"Delta":309857263},{"NoteNumber":56,"Velocity":22,"Duration":222222,"SoundDuration":222222,"Delta":309857263},{"NoteNumber":64,"Velocity":49,"Duration":222222,"SoundDuration":222222,"Delta":309857263},{"NoteNumber":82,"Velocity":58,"Duration":111111,"SoundDuration":111111,"Delta":309968374},{"NoteNumber":83,"Velocity":59,"Duration":110838,"SoundDuration":110838,"Delta":310079486},{"NoteNumber":87,"Velocity":61,"Duration":110294,"SoundDuration":110294,"Delta":310190324},{"NoteNumber":88,"Velocity":62,"Duration":110294,"SoundDuration":110294,"Delta":310300618},{"NoteNumber":87,"Velocity":63,"Duration":109757,"SoundDuration":109757,"Delta":310410913},{"NoteNumber":88,"Velocity":64,"Duration":109488,"SoundDuration":109488,"Delta":310520670},{"NoteNumber":90,"Velocity":67,"Duration":109488,"SoundDuration":109488,"Delta":310630159},{"NoteNumber":92,"Velocity":70,"Duration":108695,"SoundDuration":108695,"Delta":310739648},{"NoteNumber":91,"Velocity":69,"Duration":108695,"SoundDuration":108695,"Delta":310848344},{"NoteNumber":92,"Velocity":71,"Duration":108434,"SoundDuration":108434,"Delta":310957039},{"NoteNumber":93,"Velocity":72,"Duration":107913,"SoundDuration":107913,"Delta":311065474},{"NoteNumber":92,"Velocity":74,"Duration":107913,"SoundDuration":107913,"Delta":311173388},{"NoteNumber":80,"Velocity":67,"Duration":107913,"SoundDuration":107913,"Delta":311173388},{"NoteNumber":91,"Velocity":75,"Duration":107399,"SoundDuration":107399,"Delta":311281301},{"NoteNumber":79,"Velocity":68,"Duration":107399,"SoundDuration":107399,"Delta":311281301},{"NoteNumber":92,"Velocity":78,"Duration":107142,"SoundDuration":107142,"Delta":311388701},{"NoteNumber":80,"Velocity":69,"Duration":107142,"SoundDuration":107142,"Delta":311388701},{"NoteNumber":93,"Velocity":80,"Duration":106636,"SoundDuration":106636,"Delta":311495844},{"NoteNumber":81,"Velocity":70,"Duration":106636,"SoundDuration":106636,"Delta":311495844},{"NoteNumber":90,"Velocity":85,"Duration":208333,"SoundDuration":208333,"Delta":311602480},{"NoteNumber":78,"Velocity":72,"Duration":208333,"SoundDuration":208333,"Delta":311602480},{"NoteNumber":93,"Velocity":77,"Duration":104166,"SoundDuration":104166,"Delta":311706647},{"NoteNumber":81,"Velocity":64,"Duration":104166,"SoundDuration":104166,"Delta":311706647},{"NoteNumber":88,"Velocity":81,"Duration":208333,"SoundDuration":208333,"Delta":311810814},{"NoteNumber":76,"Velocity":68,"Duration":208333,"SoundDuration":208333,"Delta":311810814},{"NoteNumber":93,"Velocity":77,"Duration":104166,"SoundDuration":104166,"Delta":311914980},{"NoteNumber":81,"Velocity":64,"Duration":104166,"SoundDuration":104166,"Delta":311914980},{"NoteNumber":87,"Velocity":81,"Duration":206896,"SoundDuration":206896,"Delta":312019147},{"NoteNumber":75,"Velocity":68,"Duration":206896,"SoundDuration":206896,"Delta":312019147},{"NoteNumber":93,"Velocity":77,"Duration":103448,"SoundDuration":103448,"Delta":312122595},{"NoteNumber":81,"Velocity":64,"Duration":103448,"SoundDuration":103448,"Delta":312122595},{"NoteNumber":85,"Velocity":81,"Duration":206424,"SoundDuration":206424,"Delta":312226043},{"NoteNumber":73,"Velocity":68,"Duration":206424,"SoundDuration":206424,"Delta":312226043},{"NoteNumber":93,"Velocity":77,"Duration":102975,"SoundDuration":102975,"Delta":312329492},{"NoteNumber":81,"Velocity":64,"Duration":102975,"SoundDuration":102975,"Delta":312329492},{"NoteNumber":84,"Velocity":85,"Duration":205479,"SoundDuration":205479,"Delta":312432468},{"NoteNumber":72,"Velocity":72,"Duration":205479,"SoundDuration":205479,"Delta":312432468},{"NoteNumber":87,"Velocity":77,"Duration":102739,"SoundDuration":102739,"Delta":312535207},{"NoteNumber":75,"Velocity":64,"Duration":102739,"SoundDuration":102739,"Delta":312535207},{"NoteNumber":81,"Velocity":81,"Duration":204547,"SoundDuration":204547,"Delta":312637947},{"NoteNumber":69,"Velocity":68,"Duration":204547,"SoundDuration":204547,"Delta":312637947},{"NoteNumber":87,"Velocity":77,"Duration":102040,"SoundDuration":102040,"Delta":312740454},{"NoteNumber":75,"Velocity":64,"Duration":102040,"SoundDuration":102040,"Delta":312740454},{"NoteNumber":80,"Velocity":81,"Duration":204081,"SoundDuration":204081,"Delta":312842495},{"NoteNumber":68,"Velocity":68,"Duration":204081,"SoundDuration":204081,"Delta":312842495},{"NoteNumber":87,"Velocity":77,"Duration":102040,"SoundDuration":102040,"Delta":312944536},{"NoteNumber":75,"Velocity":64,"Duration":102040,"SoundDuration":102040,"Delta":312944536},{"NoteNumber":79,"Velocity":81,"Duration":202702,"SoundDuration":202702,"Delta":313046576},{"NoteNumber":67,"Velocity":68,"Duration":202702,"SoundDuration":202702,"Delta":313046576},{"NoteNumber":87,"Velocity":77,"Duration":101351,"SoundDuration":101351,"Delta":313147928},{"NoteNumber":75,"Velocity":64,"Duration":101351,"SoundDuration":101351,"Delta":313147928},{"NoteNumber":78,"Velocity":85,"Duration":202249,"SoundDuration":202249,"Delta":313249279},{"NoteNumber":66,"Velocity":72,"Duration":202249,"SoundDuration":202249,"Delta":313249279},{"NoteNumber":81,"Velocity":77,"Duration":100897,"SoundDuration":100897,"Delta":313350631},{"NoteNumber":69,"Velocity":64,"Duration":100897,"SoundDuration":100897,"Delta":313350631},{"NoteNumber":76,"Velocity":81,"Duration":201342,"SoundDuration":201342,"Delta":313451528},{"NoteNumber":64,"Velocity":68,"Duration":201342,"SoundDuration":201342,"Delta":313451528},{"NoteNumber":81,"Velocity":77,"Duration":100671,"SoundDuration":100671,"Delta":313552200},{"NoteNumber":69,"Velocity":64,"Duration":100671,"SoundDuration":100671,"Delta":313552200},{"NoteNumber":75,"Velocity":81,"Duration":200447,"SoundDuration":200447,"Delta":313652871},{"NoteNumber":63,"Velocity":68,"Duration":200447,"SoundDuration":200447,"Delta":313652871},{"NoteNumber":81,"Velocity":78,"Duration":99999,"SoundDuration":99999,"Delta":313753318},{"NoteNumber":69,"Velocity":66,"Duration":99999,"SoundDuration":99999,"Delta":313753318},{"NoteNumber":73,"Velocity":82,"Duration":200000,"SoundDuration":200000,"Delta":313853318},{"NoteNumber":61,"Velocity":69,"Duration":200000,"SoundDuration":200000,"Delta":313853318},{"NoteNumber":81,"Velocity":79,"Duration":100000,"SoundDuration":100000,"Delta":313953318},{"NoteNumber":69,"Velocity":66,"Duration":100000,"SoundDuration":100000,"Delta":313953318},{"NoteNumber":72,"Velocity":88,"Duration":198675,"SoundDuration":198675,"Delta":314053318},{"NoteNumber":60,"Velocity":73,"Duration":198675,"SoundDuration":198675,"Delta":314053318},{"NoteNumber":75,"Velocity":79,"Duration":99337,"SoundDuration":99337,"Delta":314152656},{"NoteNumber":63,"Velocity":67,"Duration":99337,"SoundDuration":99337,"Delta":314152656},{"NoteNumber":69,"Velocity":83,"Duration":198675,"SoundDuration":198675,"Delta":314251994},{"NoteNumber":57,"Velocity":70,"Duration":198675,"SoundDuration":198675,"Delta":314251994},{"NoteNumber":75,"Velocity":80,"Duration":99337,"SoundDuration":99337,"Delta":314351331},{"NoteNumber":63,"Velocity":67,"Duration":99337,"SoundDuration":99337,"Delta":314351331},{"NoteNumber":68,"Velocity":84,"Duration":198675,"SoundDuration":198675,"Delta":314450669},{"NoteNumber":56,"Velocity":71,"Duration":198675,"SoundDuration":198675,"Delta":314450669},{"NoteNumber":75,"Velocity":81,"Duration":99337,"SoundDuration":99337,"Delta":314550007},{"NoteNumber":63,"Velocity":68,"Duration":99337,"SoundDuration":99337,"Delta":314550007},{"NoteNumber":67,"Velocity":85,"Duration":198675,"SoundDuration":198675,"Delta":314649345},{"NoteNumber":55,"Velocity":71,"Duration":198675,"SoundDuration":198675,"Delta":314649345},{"NoteNumber":75,"Velocity":81,"Duration":99337,"SoundDuration":99337,"Delta":314748682},{"NoteNumber":63,"Velocity":69,"Duration":99337,"SoundDuration":99337,"Delta":314748682},{"NoteNumber":66,"Velocity":91,"Duration":99337,"SoundDuration":99337,"Delta":314848020},{"NoteNumber":54,"Velocity":77,"Duration":99337,"SoundDuration":99337,"Delta":314848020},{"NoteNumber":69,"Velocity":81,"Duration":99337,"SoundDuration":99337,"Delta":314947358},{"NoteNumber":57,"Velocity":69,"Duration":99337,"SoundDuration":99337,"Delta":314947358},{"NoteNumber":64,"Velocity":86,"Duration":99337,"SoundDuration":99337,"Delta":315046696},{"NoteNumber":52,"Velocity":72,"Duration":99337,"SoundDuration":99337,"Delta":315046696},{"NoteNumber":69,"Velocity":82,"Duration":99337,"SoundDuration":99337,"Delta":315146033},{"NoteNumber":57,"Velocity":69,"Duration":99337,"SoundDuration":99337,"Delta":315146033},{"NoteNumber":63,"Velocity":88,"Duration":99337,"SoundDuration":99337,"Delta":315245371},{"NoteNumber":51,"Velocity":73,"Duration":99337,"SoundDuration":99337,"Delta":315245371},{"NoteNumber":69,"Velocity":83,"Duration":99337,"SoundDuration":99337,"Delta":315344709},{"NoteNumber":57,"Velocity":70,"Duration":99337,"SoundDuration":99337,"Delta":315344709},{"NoteNumber":61,"Velocity":89,"Duration":99337,"SoundDuration":99337,"Delta":315444047},{"NoteNumber":49,"Velocity":74,"Duration":99337,"SoundDuration":99337,"Delta":315444047},{"NoteNumber":69,"Velocity":84,"Duration":99337,"SoundDuration":99337,"Delta":315543384},{"NoteNumber":57,"Velocity":70,"Duration":99337,"SoundDuration":99337,"Delta":315543384},{"NoteNumber":60,"Velocity":94,"Duration":99337,"SoundDuration":99337,"Delta":315642722},{"NoteNumber":48,"Velocity":80,"Duration":99337,"SoundDuration":99337,"Delta":315642722},{"NoteNumber":63,"Velocity":84,"Duration":99337,"SoundDuration":99337,"Delta":315742060},{"NoteNumber":51,"Velocity":71,"Duration":99337,"SoundDuration":99337,"Delta":315742060},{"NoteNumber":57,"Velocity":90,"Duration":99337,"SoundDuration":99337,"Delta":315841398},{"NoteNumber":45,"Velocity":75,"Duration":99337,"SoundDuration":99337,"Delta":315841398},{"NoteNumber":63,"Velocity":85,"Duration":99337,"SoundDuration":99337,"Delta":315940735},{"NoteNumber":51,"Velocity":72,"Duration":99337,"SoundDuration":99337,"Delta":315940735},{"NoteNumber":56,"Velocity":91,"Duration":99337,"SoundDuration":99337,"Delta":316040073},{"NoteNumber":44,"Velocity":77,"Duration":99337,"SoundDuration":99337,"Delta":316040073},{"NoteNumber":63,"Velocity":86,"Duration":99337,"SoundDuration":99337,"Delta":316139411},{"NoteNumber":51,"Velocity":72,"Duration":99337,"SoundDuration":99337,"Delta":316139411},{"NoteNumber":55,"Velocity":92,"Duration":99337,"SoundDuration":99337,"Delta":316238749},{"NoteNumber":43,"Velocity":77,"Duration":99337,"SoundDuration":99337,"Delta":316238749},{"NoteNumber":63,"Velocity":86,"Duration":99337,"SoundDuration":99337,"Delta":316338086},{"NoteNumber":51,"Velocity":73,"Duration":99337,"SoundDuration":99337,"Delta":316338086},{"NoteNumber":54,"Velocity":88,"Duration":99337,"SoundDuration":99337,"Delta":316437424},{"NoteNumber":42,"Velocity":73,"Duration":99337,"SoundDuration":99337,"Delta":316437424},{"NoteNumber":57,"Velocity":79,"Duration":99337,"SoundDuration":99337,"Delta":316536762},{"NoteNumber":45,"Velocity":66,"Duration":99337,"SoundDuration":99337,"Delta":316536762},{"NoteNumber":51,"Velocity":85,"Duration":99337,"SoundDuration":99337,"Delta":316636100},{"NoteNumber":39,"Velocity":71,"Duration":99337,"SoundDuration":99337,"Delta":316636100},{"NoteNumber":57,"Velocity":81,"Duration":99337,"SoundDuration":99337,"Delta":316735437},{"NoteNumber":45,"Velocity":68,"Duration":99337,"SoundDuration":99337,"Delta":316735437},{"NoteNumber":49,"Velocity":88,"Duration":99337,"SoundDuration":99337,"Delta":316834775},{"NoteNumber":37,"Velocity":73,"Duration":99337,"SoundDuration":99337,"Delta":316834775},{"NoteNumber":57,"Velocity":83,"Duration":99337,"SoundDuration":99337,"Delta":316934113},{"NoteNumber":45,"Velocity":70,"Duration":99337,"SoundDuration":99337,"Delta":316934113},{"NoteNumber":48,"Velocity":90,"Duration":99337,"SoundDuration":99337,"Delta":317033451},{"NoteNumber":36,"Velocity":74,"Duration":99337,"SoundDuration":99337,"Delta":317033451},{"NoteNumber":57,"Velocity":85,"Duration":99337,"SoundDuration":99337,"Delta":317132788},{"NoteNumber":45,"Velocity":71,"Duration":99337,"SoundDuration":99337,"Delta":317132788},{"NoteNumber":54,"Velocity":88,"Duration":99337,"SoundDuration":99337,"Delta":317232126},{"NoteNumber":42,"Velocity":73,"Duration":99337,"SoundDuration":99337,"Delta":317232126},{"NoteNumber":57,"Velocity":79,"Duration":99337,"SoundDuration":99337,"Delta":317331464},{"NoteNumber":45,"Velocity":66,"Duration":99337,"SoundDuration":99337,"Delta":317331464},{"NoteNumber":51,"Velocity":85,"Duration":99337,"SoundDuration":99337,"Delta":317430802},{"NoteNumber":39,"Velocity":71,"Duration":99337,"SoundDuration":99337,"Delta":317430802},{"NoteNumber":57,"Velocity":81,"Duration":99337,"SoundDuration":99337,"Delta":317530139},{"NoteNumber":45,"Velocity":68,"Duration":99337,"SoundDuration":99337,"Delta":317530139},{"NoteNumber":49,"Velocity":88,"Duration":99558,"SoundDuration":99558,"Delta":317629477},{"NoteNumber":37,"Velocity":73,"Duration":99558,"SoundDuration":99558,"Delta":317629477},{"NoteNumber":57,"Velocity":83,"Duration":99999,"SoundDuration":99999,"Delta":317729036},{"NoteNumber":45,"Velocity":70,"Duration":99999,"SoundDuration":99999,"Delta":317729036},{"NoteNumber":48,"Velocity":90,"Duration":100000,"SoundDuration":100000,"Delta":317829036},{"NoteNumber":36,"Velocity":74,"Duration":100000,"SoundDuration":100000,"Delta":317829036},{"NoteNumber":57,"Velocity":85,"Duration":100000,"SoundDuration":100000,"Delta":317929036},{"NoteNumber":45,"Velocity":71,"Duration":100000,"SoundDuration":100000,"Delta":317929036},{"NoteNumber":54,"Velocity":88,"Duration":100671,"SoundDuration":100671,"Delta":318029036},{"NoteNumber":42,"Velocity":73,"Duration":100671,"SoundDuration":100671,"Delta":318029036},{"NoteNumber":57,"Velocity":79,"Duration":100671,"SoundDuration":100671,"Delta":318129707},{"NoteNumber":45,"Velocity":66,"Duration":100671,"SoundDuration":100671,"Delta":318129707},{"NoteNumber":50,"Velocity":84,"Duration":100897,"SoundDuration":100897,"Delta":318230378},{"NoteNumber":38,"Velocity":70,"Duration":100897,"SoundDuration":100897,"Delta":318230378},{"NoteNumber":57,"Velocity":80,"Duration":101351,"SoundDuration":101351,"Delta":318331276},{"NoteNumber":45,"Velocity":67,"Duration":101351,"SoundDuration":101351,"Delta":318331276},{"NoteNumber":49,"Velocity":85,"Duration":101581,"SoundDuration":101581,"Delta":318432627},{"NoteNumber":37,"Velocity":71,"Duration":101581,"SoundDuration":101581,"Delta":318432627},{"NoteNumber":57,"Velocity":80,"Duration":102040,"SoundDuration":102040,"Delta":318534208},{"NoteNumber":45,"Velocity":67,"Duration":102040,"SoundDuration":102040,"Delta":318534208},{"NoteNumber":48,"Velocity":86,"Duration":102273,"SoundDuration":102273,"Delta":318636249},{"NoteNumber":36,"Velocity":71,"Duration":102273,"SoundDuration":102273,"Delta":318636249},{"NoteNumber":57,"Velocity":81,"Duration":102739,"SoundDuration":102739,"Delta":318738523},{"NoteNumber":45,"Velocity":68,"Duration":102739,"SoundDuration":102739,"Delta":318738523},{"NoteNumber":54,"Velocity":82,"Duration":102739,"SoundDuration":102739,"Delta":318841263},{"NoteNumber":42,"Velocity":69,"Duration":102739,"SoundDuration":102739,"Delta":318841263},{"NoteNumber":57,"Velocity":75,"Duration":103212,"SoundDuration":103212,"Delta":318944003},{"NoteNumber":45,"Velocity":62,"Duration":103212,"SoundDuration":103212,"Delta":318944003},{"NoteNumber":50,"Velocity":79,"Duration":103448,"SoundDuration":103448,"Delta":319047215},{"NoteNumber":38,"Velocity":66,"Duration":103448,"SoundDuration":103448,"Delta":319047215},{"NoteNumber":57,"Velocity":75,"Duration":103927,"SoundDuration":103927,"Delta":319150663},{"NoteNumber":45,"Velocity":62,"Duration":103927,"SoundDuration":103927,"Delta":319150663},{"NoteNumber":49,"Velocity":82,"Duration":104166,"SoundDuration":104166,"Delta":319254590},{"NoteNumber":37,"Velocity":68,"Duration":104166,"SoundDuration":104166,"Delta":319254590},{"NoteNumber":57,"Velocity":77,"Duration":104652,"SoundDuration":104652,"Delta":319358757},{"NoteNumber":45,"Velocity":63,"Duration":104652,"SoundDuration":104652,"Delta":319358757},{"NoteNumber":48,"Velocity":82,"Duration":104895,"SoundDuration":104895,"Delta":319463409},{"NoteNumber":36,"Velocity":69,"Duration":104895,"SoundDuration":104895,"Delta":319463409},{"NoteNumber":57,"Velocity":77,"Duration":105387,"SoundDuration":105387,"Delta":319568304},{"NoteNumber":45,"Velocity":63,"Duration":105387,"SoundDuration":105387,"Delta":319568304},{"NoteNumber":49,"Velocity":79,"Duration":105633,"SoundDuration":105633,"Delta":319673692},{"NoteNumber":37,"Velocity":66,"Duration":105633,"SoundDuration":105633,"Delta":319673692},{"NoteNumber":57,"Velocity":71,"Duration":105633,"SoundDuration":105633,"Delta":319779325},{"NoteNumber":45,"Velocity":59,"Duration":105633,"SoundDuration":105633,"Delta":319779325},{"NoteNumber":52,"Velocity":77,"Duration":105633,"SoundDuration":105633,"Delta":319884959},{"NoteNumber":40,"Velocity":63,"Duration":105633,"SoundDuration":105633,"Delta":319884959},{"NoteNumber":57,"Velocity":74,"Duration":105633,"SoundDuration":105633,"Delta":319990593},{"NoteNumber":45,"Velocity":62,"Duration":105633,"SoundDuration":105633,"Delta":319990593},{"NoteNumber":54,"Velocity":80,"Duration":105633,"SoundDuration":105633,"Delta":320096227},{"NoteNumber":42,"Velocity":67,"Duration":105633,"SoundDuration":105633,"Delta":320096227},{"NoteNumber":57,"Velocity":78,"Duration":105633,"SoundDuration":105633,"Delta":320201860},{"NoteNumber":45,"Velocity":64,"Duration":105633,"SoundDuration":105633,"Delta":320201860},{"NoteNumber":55,"Velocity":83,"Duration":105633,"SoundDuration":105633,"Delta":320307494},{"NoteNumber":43,"Velocity":69,"Duration":105633,"SoundDuration":105633,"Delta":320307494},{"NoteNumber":57,"Velocity":81,"Duration":105633,"SoundDuration":105633,"Delta":320413128},{"NoteNumber":45,"Velocity":67,"Duration":105633,"SoundDuration":105633,"Delta":320413128},{"NoteNumber":54,"Velocity":88,"Duration":105633,"SoundDuration":105633,"Delta":320518762},{"NoteNumber":42,"Velocity":73,"Duration":105633,"SoundDuration":105633,"Delta":320518762},{"NoteNumber":57,"Velocity":78,"Duration":105633,"SoundDuration":105633,"Delta":320624395},{"NoteNumber":45,"Velocity":64,"Duration":105633,"SoundDuration":105633,"Delta":320624395},{"NoteNumber":52,"Velocity":81,"Duration":105633,"SoundDuration":105633,"Delta":320730029},{"NoteNumber":40,"Velocity":67,"Duration":105633,"SoundDuration":105633,"Delta":320730029},{"NoteNumber":57,"Velocity":75,"Duration":105633,"SoundDuration":105633,"Delta":320835663},{"NoteNumber":45,"Velocity":63,"Duration":105633,"SoundDuration":105633,"Delta":320835663},{"NoteNumber":50,"Velocity":79,"Duration":105633,"SoundDuration":105633,"Delta":320941297},{"NoteNumber":38,"Velocity":64,"Duration":105633,"SoundDuration":105633,"Delta":320941297},{"NoteNumber":57,"Velocity":73,"Duration":105633,"SoundDuration":105633,"Delta":321046930},{"NoteNumber":45,"Velocity":61,"Duration":105633,"SoundDuration":105633,"Delta":321046930},{"NoteNumber":48,"Velocity":77,"Duration":105633,"SoundDuration":105633,"Delta":321152564},{"NoteNumber":36,"Velocity":63,"Duration":105633,"SoundDuration":105633,"Delta":321152564},{"NoteNumber":58,"Velocity":72,"Duration":105387,"SoundDuration":105387,"Delta":321258198},{"NoteNumber":46,"Velocity":60,"Duration":105387,"SoundDuration":105387,"Delta":321258198},{"NoteNumber":47,"Velocity":79,"Duration":104895,"SoundDuration":104895,"Delta":321363585},{"NoteNumber":35,"Velocity":66,"Duration":104895,"SoundDuration":104895,"Delta":321363585},{"NoteNumber":59,"Velocity":71,"Duration":104652,"SoundDuration":104652,"Delta":321468481},{"NoteNumber":47,"Velocity":59,"Duration":104652,"SoundDuration":104652,"Delta":321468481},{"NoteNumber":51,"Velocity":77,"Duration":104166,"SoundDuration":104166,"Delta":321573133},{"NoteNumber":39,"Velocity":63,"Duration":104166,"SoundDuration":104166,"Delta":321573133},{"NoteNumber":59,"Velocity":74,"Duration":103927,"SoundDuration":103927,"Delta":321677299},{"NoteNumber":47,"Velocity":62,"Duration":103927,"SoundDuration":103927,"Delta":321677299},{"NoteNumber":54,"Velocity":80,"Duration":103448,"SoundDuration":103448,"Delta":321781227},{"NoteNumber":42,"Velocity":67,"Duration":103448,"SoundDuration":103448,"Delta":321781227},{"NoteNumber":59,"Velocity":78,"Duration":103212,"SoundDuration":103212,"Delta":321884675},{"NoteNumber":47,"Velocity":64,"Duration":103212,"SoundDuration":103212,"Delta":321884675},{"NoteNumber":57,"Velocity":83,"Duration":102739,"SoundDuration":102739,"Delta":321987887},{"NoteNumber":45,"Velocity":69,"Duration":102739,"SoundDuration":102739,"Delta":321987887},{"NoteNumber":59,"Velocity":81,"Duration":102273,"SoundDuration":102273,"Delta":322090627},{"NoteNumber":47,"Velocity":67,"Duration":102273,"SoundDuration":102273,"Delta":322090627},{"NoteNumber":56,"Velocity":88,"Duration":102040,"SoundDuration":102040,"Delta":322192901},{"NoteNumber":44,"Velocity":73,"Duration":102040,"SoundDuration":102040,"Delta":322192901},{"NoteNumber":59,"Velocity":78,"Duration":102739,"SoundDuration":102739,"Delta":322294941},{"NoteNumber":47,"Velocity":64,"Duration":102739,"SoundDuration":102739,"Delta":322294941},{"NoteNumber":54,"Velocity":81,"Duration":102975,"SoundDuration":102975,"Delta":322397681},{"NoteNumber":42,"Velocity":67,"Duration":102975,"SoundDuration":102975,"Delta":322397681},{"NoteNumber":59,"Velocity":75,"Duration":103448,"SoundDuration":103448,"Delta":322500657},{"NoteNumber":47,"Velocity":63,"Duration":103448,"SoundDuration":103448,"Delta":322500657},{"NoteNumber":52,"Velocity":79,"Duration":104655,"SoundDuration":104655,"Delta":322604105},{"NoteNumber":40,"Velocity":64,"Duration":104655,"SoundDuration":104655,"Delta":322604105},{"NoteNumber":59,"Velocity":73,"Duration":108203,"SoundDuration":108203,"Delta":322708761},{"NoteNumber":47,"Velocity":61,"Duration":108203,"SoundDuration":108203,"Delta":322708761},{"NoteNumber":50,"Velocity":77,"Duration":115440,"SoundDuration":115440,"Delta":322816965},{"NoteNumber":38,"Velocity":63,"Duration":115440,"SoundDuration":115440,"Delta":322816965},{"NoteNumber":60,"Velocity":72,"Duration":119047,"SoundDuration":119047,"Delta":322932405},{"NoteNumber":48,"Velocity":60,"Duration":119047,"SoundDuration":119047,"Delta":322932405},{"NoteNumber":49,"Velocity":79,"Duration":105633,"SoundDuration":105633,"Delta":323051453},{"NoteNumber":37,"Velocity":66,"Duration":105633,"SoundDuration":105633,"Delta":323051453},{"NoteNumber":61,"Velocity":71,"Duration":105141,"SoundDuration":105141,"Delta":323157086},{"NoteNumber":49,"Velocity":59,"Duration":105141,"SoundDuration":105141,"Delta":323157086},{"NoteNumber":53,"Velocity":77,"Duration":104652,"SoundDuration":104652,"Delta":323262228},{"NoteNumber":41,"Velocity":63,"Duration":104652,"SoundDuration":104652,"Delta":323262228},{"NoteNumber":61,"Velocity":74,"Duration":104166,"SoundDuration":104166,"Delta":323366880},{"NoteNumber":49,"Velocity":62,"Duration":104166,"SoundDuration":104166,"Delta":323366880},{"NoteNumber":56,"Velocity":80,"Duration":103448,"SoundDuration":103448,"Delta":323471047},{"NoteNumber":44,"Velocity":67,"Duration":103448,"SoundDuration":103448,"Delta":323471047},{"NoteNumber":61,"Velocity":78,"Duration":102975,"SoundDuration":102975,"Delta":323574495},{"NoteNumber":49,"Velocity":64,"Duration":102975,"SoundDuration":102975,"Delta":323574495},{"NoteNumber":59,"Velocity":83,"Duration":102506,"SoundDuration":102506,"Delta":323677471},{"NoteNumber":47,"Velocity":69,"Duration":102506,"SoundDuration":102506,"Delta":323677471},{"NoteNumber":61,"Velocity":81,"Duration":102040,"SoundDuration":102040,"Delta":323779978},{"NoteNumber":49,"Velocity":67,"Duration":102040,"SoundDuration":102040,"Delta":323779978},{"NoteNumber":58,"Velocity":88,"Duration":101351,"SoundDuration":101351,"Delta":323882018},{"NoteNumber":46,"Velocity":73,"Duration":101351,"SoundDuration":101351,"Delta":323882018},{"NoteNumber":61,"Velocity":78,"Duration":102040,"SoundDuration":102040,"Delta":323983370},{"NoteNumber":49,"Velocity":64,"Duration":102040,"SoundDuration":102040,"Delta":323983370},{"NoteNumber":56,"Velocity":81,"Duration":102739,"SoundDuration":102739,"Delta":324085411},{"NoteNumber":44,"Velocity":67,"Duration":102739,"SoundDuration":102739,"Delta":324085411},{"NoteNumber":61,"Velocity":75,"Duration":103448,"SoundDuration":103448,"Delta":324188150},{"NoteNumber":49,"Velocity":63,"Duration":103448,"SoundDuration":103448,"Delta":324188150},{"NoteNumber":54,"Velocity":79,"Duration":103691,"SoundDuration":103691,"Delta":324291599},{"NoteNumber":42,"Velocity":64,"Duration":103691,"SoundDuration":103691,"Delta":324291599},{"NoteNumber":61,"Velocity":73,"Duration":104669,"SoundDuration":104669,"Delta":324395290},{"NoteNumber":49,"Velocity":61,"Duration":104669,"SoundDuration":104669,"Delta":324395290},{"NoteNumber":52,"Velocity":77,"Duration":110586,"SoundDuration":110586,"Delta":324499959},{"NoteNumber":40,"Velocity":63,"Duration":110586,"SoundDuration":110586,"Delta":324499959},{"NoteNumber":62,"Velocity":72,"Duration":115719,"SoundDuration":115719,"Delta":324610545},{"NoteNumber":50,"Velocity":60,"Duration":115719,"SoundDuration":115719,"Delta":324610545},{"NoteNumber":51,"Velocity":79,"Duration":105633,"SoundDuration":105633,"Delta":324726264},{"NoteNumber":39,"Velocity":66,"Duration":105633,"SoundDuration":105633,"Delta":324726264},{"NoteNumber":63,"Velocity":71,"Duration":105633,"SoundDuration":105633,"Delta":324831898},{"NoteNumber":51,"Velocity":59,"Duration":105633,"SoundDuration":105633,"Delta":324831898},{"NoteNumber":55,"Velocity":77,"Duration":105633,"SoundDuration":105633,"Delta":324937532},{"NoteNumber":43,"Velocity":63,"Duration":105633,"SoundDuration":105633,"Delta":324937532},{"NoteNumber":63,"Velocity":74,"Duration":105633,"SoundDuration":105633,"Delta":325043166},{"NoteNumber":51,"Velocity":62,"Duration":105633,"SoundDuration":105633,"Delta":325043166},{"NoteNumber":58,"Velocity":80,"Duration":105633,"SoundDuration":105633,"Delta":325148799},{"NoteNumber":46,"Velocity":67,"Duration":105633,"SoundDuration":105633,"Delta":325148799},{"NoteNumber":63,"Velocity":78,"Duration":105633,"SoundDuration":105633,"Delta":325254433},{"NoteNumber":51,"Velocity":64,"Duration":105633,"SoundDuration":105633,"Delta":325254433},{"NoteNumber":61,"Velocity":83,"Duration":105633,"SoundDuration":105633,"Delta":325360067},{"NoteNumber":49,"Velocity":69,"Duration":105633,"SoundDuration":105633,"Delta":325360067},{"NoteNumber":63,"Velocity":81,"Duration":105633,"SoundDuration":105633,"Delta":325465701},{"NoteNumber":51,"Velocity":67,"Duration":105633,"SoundDuration":105633,"Delta":325465701},{"NoteNumber":60,"Velocity":88,"Duration":102739,"SoundDuration":102739,"Delta":325571334},{"NoteNumber":48,"Velocity":74,"Duration":102739,"SoundDuration":102739,"Delta":325571334},{"NoteNumber":63,"Velocity":79,"Duration":102739,"SoundDuration":102739,"Delta":325674074},{"NoteNumber":51,"Velocity":66,"Duration":102739,"SoundDuration":102739,"Delta":325674074},{"NoteNumber":58,"Velocity":83,"Duration":102739,"SoundDuration":102739,"Delta":325776814},{"NoteNumber":46,"Velocity":69,"Duration":102739,"SoundDuration":102739,"Delta":325776814},{"NoteNumber":63,"Velocity":77,"Duration":102739,"SoundDuration":102739,"Delta":325879554},{"NoteNumber":51,"Velocity":64,"Duration":102739,"SoundDuration":102739,"Delta":325879554},{"NoteNumber":56,"Velocity":81,"Duration":102739,"SoundDuration":102739,"Delta":325982293},{"NoteNumber":44,"Velocity":67,"Duration":102739,"SoundDuration":102739,"Delta":325982293},{"NoteNumber":63,"Velocity":77,"Duration":102739,"SoundDuration":102739,"Delta":326085033},{"NoteNumber":51,"Velocity":64,"Duration":102739,"SoundDuration":102739,"Delta":326085033},{"NoteNumber":54,"Velocity":81,"Duration":102739,"SoundDuration":102739,"Delta":326187773},{"NoteNumber":42,"Velocity":68,"Duration":102739,"SoundDuration":102739,"Delta":326187773},{"NoteNumber":64,"Velocity":75,"Duration":102739,"SoundDuration":102739,"Delta":326290513},{"NoteNumber":52,"Velocity":62,"Duration":102739,"SoundDuration":102739,"Delta":326290513},{"NoteNumber":53,"Velocity":81,"Duration":103448,"SoundDuration":103448,"Delta":326393252},{"NoteNumber":41,"Velocity":69,"Duration":103448,"SoundDuration":103448,"Delta":326393252},{"NoteNumber":65,"Velocity":74,"Duration":103448,"SoundDuration":103448,"Delta":326496701},{"NoteNumber":53,"Velocity":62,"Duration":103448,"SoundDuration":103448,"Delta":326496701},{"NoteNumber":57,"Velocity":81,"Duration":102739,"SoundDuration":102739,"Delta":326600149},{"NoteNumber":45,"Velocity":68,"Duration":102739,"SoundDuration":102739,"Delta":326600149},{"NoteNumber":65,"Velocity":79,"Duration":102739,"SoundDuration":102739,"Delta":326702889},{"NoteNumber":53,"Velocity":64,"Duration":102739,"SoundDuration":102739,"Delta":326702889},{"NoteNumber":60,"Velocity":85,"Duration":102040,"SoundDuration":102040,"Delta":326805628},{"NoteNumber":48,"Velocity":70,"Duration":102040,"SoundDuration":102040,"Delta":326805628},{"NoteNumber":65,"Velocity":83,"Duration":102040,"SoundDuration":102040,"Delta":326907669},{"NoteNumber":53,"Velocity":69,"Duration":102040,"SoundDuration":102040,"Delta":326907669},{"NoteNumber":63,"Velocity":90,"Duration":101351,"SoundDuration":101351,"Delta":327009710},{"NoteNumber":51,"Velocity":74,"Duration":101351,"SoundDuration":101351,"Delta":327009710},{"NoteNumber":65,"Velocity":88,"Duration":101351,"SoundDuration":101351,"Delta":327111062},{"NoteNumber":53,"Velocity":72,"Duration":101351,"SoundDuration":101351,"Delta":327111062},{"NoteNumber":62,"Velocity":94,"Duration":100671,"SoundDuration":100671,"Delta":327212413},{"NoteNumber":50,"Velocity":79,"Duration":100671,"SoundDuration":100671,"Delta":327212413},{"NoteNumber":65,"Velocity":85,"Duration":100897,"SoundDuration":100897,"Delta":327313084},{"NoteNumber":53,"Velocity":71,"Duration":100897,"SoundDuration":100897,"Delta":327313084},{"NoteNumber":60,"Velocity":92,"Duration":101351,"SoundDuration":101351,"Delta":327413982},{"NoteNumber":48,"Velocity":77,"Duration":101351,"SoundDuration":101351,"Delta":327413982},{"NoteNumber":66,"Velocity":85,"Duration":102040,"SoundDuration":102040,"Delta":327515333},{"NoteNumber":54,"Velocity":72,"Duration":102040,"SoundDuration":102040,"Delta":327515333},{"NoteNumber":59,"Velocity":92,"Duration":102506,"SoundDuration":102506,"Delta":327617374},{"NoteNumber":47,"Velocity":77,"Duration":102506,"SoundDuration":102506,"Delta":327617374},{"NoteNumber":67,"Velocity":85,"Duration":102975,"SoundDuration":102975,"Delta":327719881},{"NoteNumber":55,"Velocity":72,"Duration":102975,"SoundDuration":102975,"Delta":327719881},{"NoteNumber":65,"Velocity":92,"Duration":105158,"SoundDuration":105158,"Delta":327822857},{"NoteNumber":53,"Velocity":77,"Duration":105158,"SoundDuration":105158,"Delta":327822857},{"NoteNumber":67,"Velocity":86,"Duration":109243,"SoundDuration":109243,"Delta":327928016},{"NoteNumber":55,"Velocity":72,"Duration":109243,"SoundDuration":109243,"Delta":327928016},{"NoteNumber":64,"Velocity":99,"Duration":102040,"SoundDuration":102040,"Delta":328037259},{"NoteNumber":52,"Velocity":83,"Duration":102040,"SoundDuration":102040,"Delta":328037259},{"NoteNumber":67,"Velocity":88,"Duration":102040,"SoundDuration":102040,"Delta":328139300},{"NoteNumber":55,"Velocity":73,"Duration":102040,"SoundDuration":102040,"Delta":328139300},{"NoteNumber":62,"Velocity":93,"Duration":102040,"SoundDuration":102040,"Delta":328241341},{"NoteNumber":50,"Velocity":78,"Duration":102040,"SoundDuration":102040,"Delta":328241341},{"NoteNumber":68,"Velocity":89,"Duration":102040,"SoundDuration":102040,"Delta":328343382},{"NoteNumber":56,"Velocity":74,"Duration":102040,"SoundDuration":102040,"Delta":328343382},{"NoteNumber":61,"Velocity":94,"Duration":102040,"SoundDuration":102040,"Delta":328445423},{"NoteNumber":49,"Velocity":79,"Duration":102040,"SoundDuration":102040,"Delta":328445423},{"NoteNumber":69,"Velocity":89,"Duration":102040,"SoundDuration":102040,"Delta":328547464},{"NoteNumber":57,"Velocity":74,"Duration":102040,"SoundDuration":102040,"Delta":328547464},{"NoteNumber":67,"Velocity":94,"Duration":102040,"SoundDuration":102040,"Delta":328649505},{"NoteNumber":55,"Velocity":79,"Duration":102040,"SoundDuration":102040,"Delta":328649505},{"NoteNumber":69,"Velocity":91,"Duration":102040,"SoundDuration":102040,"Delta":328751545},{"NoteNumber":57,"Velocity":77,"Duration":102040,"SoundDuration":102040,"Delta":328751545},{"NoteNumber":66,"Velocity":102,"Duration":102739,"SoundDuration":102739,"Delta":328853586},{"NoteNumber":54,"Velocity":84,"Duration":102739,"SoundDuration":102739,"Delta":328853586},{"NoteNumber":69,"Velocity":91,"Duration":102739,"SoundDuration":102739,"Delta":328956326},{"NoteNumber":57,"Velocity":77,"Duration":102739,"SoundDuration":102739,"Delta":328956326},{"NoteNumber":64,"Velocity":96,"Duration":102040,"SoundDuration":102040,"Delta":329059066},{"NoteNumber":52,"Velocity":80,"Duration":102040,"SoundDuration":102040,"Delta":329059066},{"NoteNumber":70,"Velocity":92,"Duration":102040,"SoundDuration":102040,"Delta":329161107},{"NoteNumber":58,"Velocity":77,"Duration":102040,"SoundDuration":102040,"Delta":329161107},{"NoteNumber":63,"Velocity":97,"Duration":101351,"SoundDuration":101351,"Delta":329263148},{"NoteNumber":51,"Velocity":81,"Duration":101351,"SoundDuration":101351,"Delta":329263148},{"NoteNumber":71,"Velocity":93,"Duration":100897,"SoundDuration":100897,"Delta":329364499},{"NoteNumber":59,"Velocity":77,"Duration":100897,"SoundDuration":100897,"Delta":329364499},{"NoteNumber":69,"Velocity":99,"Duration":100671,"SoundDuration":100671,"Delta":329465397},{"NoteNumber":57,"Velocity":82,"Duration":100671,"SoundDuration":100671,"Delta":329465397},{"NoteNumber":71,"Velocity":93,"Duration":100223,"SoundDuration":100223,"Delta":329566068},{"NoteNumber":59,"Velocity":78,"Duration":100223,"SoundDuration":100223,"Delta":329566068},{"NoteNumber":68,"Velocity":104,"Duration":99779,"SoundDuration":99779,"Delta":329666292},{"NoteNumber":56,"Velocity":88,"Duration":99779,"SoundDuration":99779,"Delta":329666292},{"NoteNumber":71,"Velocity":93,"Duration":99337,"SoundDuration":99337,"Delta":329766071},{"NoteNumber":59,"Velocity":78,"Duration":99337,"SoundDuration":99337,"Delta":329766071},{"NoteNumber":66,"Velocity":100,"Duration":99337,"SoundDuration":99337,"Delta":329865409},{"NoteNumber":54,"Velocity":82,"Duration":99337,"SoundDuration":99337,"Delta":329865409},{"NoteNumber":72,"Velocity":93,"Duration":99337,"SoundDuration":99337,"Delta":329964746},{"NoteNumber":60,"Velocity":78,"Duration":99337,"SoundDuration":99337,"Delta":329964746},{"NoteNumber":65,"Velocity":102,"Duration":99337,"SoundDuration":99337,"Delta":330064084},{"NoteNumber":53,"Velocity":84,"Duration":99337,"SoundDuration":99337,"Delta":330064084},{"NoteNumber":73,"Velocity":95,"Duration":99337,"SoundDuration":99337,"Delta":330163422},{"NoteNumber":61,"Velocity":80,"Duration":99337,"SoundDuration":99337,"Delta":330163422},{"NoteNumber":71,"Velocity":102,"Duration":99337,"SoundDuration":99337,"Delta":330262760},{"NoteNumber":59,"Velocity":84,"Duration":99337,"SoundDuration":99337,"Delta":330262760},{"NoteNumber":73,"Velocity":95,"Duration":99337,"SoundDuration":99337,"Delta":330362097},{"NoteNumber":61,"Velocity":80,"Duration":99337,"SoundDuration":99337,"Delta":330362097},{"NoteNumber":71,"Velocity":100,"Duration":99558,"SoundDuration":99558,"Delta":330461435},{"NoteNumber":59,"Velocity":79,"Duration":99558,"SoundDuration":99558,"Delta":330461435},{"NoteNumber":73,"Velocity":95,"Duration":100036,"SoundDuration":100036,"Delta":330560994},{"NoteNumber":61,"Velocity":80,"Duration":100036,"SoundDuration":100036,"Delta":330560994},{"NoteNumber":71,"Velocity":96,"Duration":102276,"SoundDuration":102276,"Delta":330661030},{"NoteNumber":59,"Velocity":80,"Duration":102276,"SoundDuration":102276,"Delta":330661030},{"NoteNumber":73,"Velocity":97,"Duration":99125,"SoundDuration":99125,"Delta":330763307},{"NoteNumber":61,"Velocity":81,"Duration":99125,"SoundDuration":99125,"Delta":330763307},{"NoteNumber":71,"Velocity":97,"Duration":100259,"SoundDuration":100259,"Delta":330862432},{"NoteNumber":59,"Velocity":82,"Duration":100259,"SoundDuration":100259,"Delta":330862432},{"NoteNumber":73,"Velocity":95,"Duration":102050,"SoundDuration":102050,"Delta":330962692},{"NoteNumber":61,"Velocity":79,"Duration":102050,"SoundDuration":102050,"Delta":330962692},{"NoteNumber":71,"Velocity":91,"Duration":100922,"SoundDuration":100922,"Delta":331064742},{"NoteNumber":59,"Velocity":77,"Duration":100922,"SoundDuration":100922,"Delta":331064742},{"NoteNumber":73,"Velocity":89,"Duration":102040,"SoundDuration":102040,"Delta":331165664},{"NoteNumber":61,"Velocity":75,"Duration":102040,"SoundDuration":102040,"Delta":331165664},{"NoteNumber":71,"Velocity":100,"Duration":100000,"SoundDuration":100000,"Delta":331267705},{"NoteNumber":59,"Velocity":84,"Duration":100000,"SoundDuration":100000,"Delta":331267705},{"NoteNumber":73,"Velocity":90,"Duration":99999,"SoundDuration":99999,"Delta":331367705},{"NoteNumber":61,"Velocity":75,"Duration":99999,"SoundDuration":99999,"Delta":331367705},{"NoteNumber":68,"Velocity":96,"Duration":100000,"SoundDuration":100000,"Delta":331467705},{"NoteNumber":56,"Velocity":80,"Duration":100000,"SoundDuration":100000,"Delta":331467705},{"NoteNumber":73,"Velocity":91,"Duration":99999,"SoundDuration":99999,"Delta":331567705},{"NoteNumber":61,"Velocity":77,"Duration":99999,"SoundDuration":99999,"Delta":331567705},{"NoteNumber":66,"Velocity":97,"Duration":100000,"SoundDuration":100000,"Delta":331667705},{"NoteNumber":54,"Velocity":81,"Duration":100000,"SoundDuration":100000,"Delta":331667705},{"NoteNumber":73,"Velocity":93,"Duration":100000,"SoundDuration":100000,"Delta":331767705},{"NoteNumber":61,"Velocity":78,"Duration":100000,"SoundDuration":100000,"Delta":331767705},{"NoteNumber":65,"Velocity":99,"Duration":99999,"SoundDuration":99999,"Delta":331867705},{"NoteNumber":53,"Velocity":82,"Duration":99999,"SoundDuration":99999,"Delta":331867705},{"NoteNumber":73,"Velocity":94,"Duration":100000,"SoundDuration":100000,"Delta":331967705},{"NoteNumber":61,"Velocity":79,"Duration":100000,"SoundDuration":100000,"Delta":331967705},{"NoteNumber":71,"Velocity":105,"Duration":98039,"SoundDuration":98039,"Delta":332067705},{"NoteNumber":59,"Velocity":89,"Duration":98039,"SoundDuration":98039,"Delta":332067705},{"NoteNumber":74,"Velocity":95,"Duration":98039,"SoundDuration":98039,"Delta":332165744},{"NoteNumber":62,"Velocity":80,"Duration":98039,"SoundDuration":98039,"Delta":332165744},{"NoteNumber":68,"Velocity":102,"Duration":98039,"SoundDuration":98039,"Delta":332263784},{"NoteNumber":56,"Velocity":84,"Duration":98039,"SoundDuration":98039,"Delta":332263784},{"NoteNumber":74,"Velocity":96,"Duration":98039,"SoundDuration":98039,"Delta":332361823},{"NoteNumber":62,"Velocity":80,"Duration":98039,"SoundDuration":98039,"Delta":332361823},{"NoteNumber":66,"Velocity":103,"Duration":106382,"SoundDuration":106382,"Delta":332459862},{"NoteNumber":54,"Velocity":85,"Duration":106382,"SoundDuration":106382,"Delta":332459862},{"NoteNumber":74,"Velocity":99,"Duration":106382,"SoundDuration":106382,"Delta":332566245},{"NoteNumber":62,"Velocity":82,"Duration":106382,"SoundDuration":106382,"Delta":332566245},{"NoteNumber":65,"Velocity":104,"Duration":131578,"SoundDuration":131578,"Delta":332672628},{"NoteNumber":53,"Velocity":86,"Duration":131578,"SoundDuration":131578,"Delta":332672628},{"NoteNumber":74,"Velocity":100,"Duration":131578,"SoundDuration":131578,"Delta":332804207},{"NoteNumber":62,"Velocity":83,"Duration":131578,"SoundDuration":131578,"Delta":332804207},{"NoteNumber":77,"Velocity":93,"Duration":308219,"SoundDuration":308219,"Delta":332935786},{"NoteNumber":86,"Velocity":111,"Duration":308219,"SoundDuration":308219,"Delta":332935786},{"NoteNumber":83,"Velocity":93,"Duration":308219,"SoundDuration":308219,"Delta":332935786},{"NoteNumber":80,"Velocity":93,"Duration":308219,"SoundDuration":308219,"Delta":332935786},{"NoteNumber":68,"Velocity":78,"Duration":308219,"SoundDuration":308219,"Delta":332935786},{"NoteNumber":74,"Velocity":93,"Duration":308219,"SoundDuration":308219,"Delta":332935786},{"NoteNumber":71,"Velocity":78,"Duration":308219,"SoundDuration":308219,"Delta":332935786},{"NoteNumber":65,"Velocity":78,"Duration":308219,"SoundDuration":308219,"Delta":332935786},{"NoteNumber":83,"Velocity":99,"Duration":97602,"SoundDuration":97602,"Delta":333244005},{"NoteNumber":80,"Velocity":84,"Duration":97602,"SoundDuration":97602,"Delta":333244005},{"NoteNumber":74,"Velocity":84,"Duration":97602,"SoundDuration":97602,"Delta":333244005},{"NoteNumber":77,"Velocity":84,"Duration":97602,"SoundDuration":97602,"Delta":333244005},{"NoteNumber":68,"Velocity":70,"Duration":97602,"SoundDuration":97602,"Delta":333244005},{"NoteNumber":71,"Velocity":84,"Duration":97602,"SoundDuration":97602,"Delta":333244005},{"NoteNumber":62,"Velocity":70,"Duration":97602,"SoundDuration":97602,"Delta":333244005},{"NoteNumber":65,"Velocity":70,"Duration":97602,"SoundDuration":97602,"Delta":333244005},{"NoteNumber":74,"Velocity":91,"Duration":308219,"SoundDuration":308219,"Delta":333346745},{"NoteNumber":77,"Velocity":91,"Duration":308219,"SoundDuration":308219,"Delta":333346745},{"NoteNumber":80,"Velocity":91,"Duration":308219,"SoundDuration":308219,"Delta":333346745},{"NoteNumber":83,"Velocity":107,"Duration":308219,"SoundDuration":308219,"Delta":333346745},{"NoteNumber":71,"Velocity":91,"Duration":308219,"SoundDuration":308219,"Delta":333346745},{"NoteNumber":62,"Velocity":78,"Duration":308219,"SoundDuration":308219,"Delta":333346745},{"NoteNumber":65,"Velocity":78,"Duration":308219,"SoundDuration":308219,"Delta":333346745},{"NoteNumber":68,"Velocity":78,"Duration":308219,"SoundDuration":308219,"Delta":333346745},{"NoteNumber":71,"Velocity":84,"Duration":97602,"SoundDuration":97602,"Delta":333654964},{"NoteNumber":74,"Velocity":84,"Duration":97602,"SoundDuration":97602,"Delta":333654964},{"NoteNumber":77,"Velocity":84,"Duration":97602,"SoundDuration":97602,"Delta":333654964},{"NoteNumber":80,"Velocity":99,"Duration":97602,"SoundDuration":97602,"Delta":333654964},{"NoteNumber":65,"Velocity":70,"Duration":97602,"SoundDuration":97602,"Delta":333654964},{"NoteNumber":59,"Velocity":70,"Duration":97602,"SoundDuration":97602,"Delta":333654964},{"NoteNumber":62,"Velocity":70,"Duration":97602,"SoundDuration":97602,"Delta":333654964},{"NoteNumber":68,"Velocity":84,"Duration":97602,"SoundDuration":97602,"Delta":333654964},{"NoteNumber":71,"Velocity":91,"Duration":316901,"SoundDuration":316901,"Delta":333757704},{"NoteNumber":74,"Velocity":91,"Duration":316901,"SoundDuration":316901,"Delta":333757704},{"NoteNumber":77,"Velocity":91,"Duration":316901,"SoundDuration":316901,"Delta":333757704},{"NoteNumber":80,"Velocity":107,"Duration":316901,"SoundDuration":316901,"Delta":333757704},{"NoteNumber":62,"Velocity":78,"Duration":316901,"SoundDuration":316901,"Delta":333757704},{"NoteNumber":59,"Velocity":78,"Duration":316901,"SoundDuration":316901,"Delta":333757704},{"NoteNumber":65,"Velocity":78,"Duration":316901,"SoundDuration":316901,"Delta":333757704},{"NoteNumber":68,"Velocity":91,"Duration":316901,"SoundDuration":316901,"Delta":333757704},{"NoteNumber":68,"Velocity":80,"Duration":100352,"SoundDuration":100352,"Delta":334074605},{"NoteNumber":71,"Velocity":80,"Duration":100352,"SoundDuration":100352,"Delta":334074605},{"NoteNumber":74,"Velocity":80,"Duration":100352,"SoundDuration":100352,"Delta":334074605},{"NoteNumber":77,"Velocity":95,"Duration":100352,"SoundDuration":100352,"Delta":334074605},{"NoteNumber":65,"Velocity":80,"Duration":100352,"SoundDuration":100352,"Delta":334074605},{"NoteNumber":56,"Velocity":68,"Duration":100352,"SoundDuration":100352,"Delta":334074605},{"NoteNumber":59,"Velocity":68,"Duration":100352,"SoundDuration":100352,"Delta":334074605},{"NoteNumber":62,"Velocity":68,"Duration":100352,"SoundDuration":100352,"Delta":334074605},{"NoteNumber":68,"Velocity":88,"Duration":112781,"SoundDuration":112781,"Delta":334180239},{"NoteNumber":71,"Velocity":88,"Duration":112781,"SoundDuration":112781,"Delta":334180239},{"NoteNumber":74,"Velocity":88,"Duration":112781,"SoundDuration":112781,"Delta":334180239},{"NoteNumber":77,"Velocity":104,"Duration":112781,"SoundDuration":112781,"Delta":334180239},{"NoteNumber":62,"Velocity":73,"Duration":112781,"SoundDuration":112781,"Delta":334180239},{"NoteNumber":56,"Velocity":73,"Duration":112781,"SoundDuration":112781,"Delta":334180239},{"NoteNumber":59,"Velocity":73,"Duration":112781,"SoundDuration":112781,"Delta":334180239},{"NoteNumber":65,"Velocity":88,"Duration":112781,"SoundDuration":112781,"Delta":334180239},{"NoteNumber":65,"Velocity":80,"Duration":129310,"SoundDuration":129310,"Delta":334405803},{"NoteNumber":68,"Velocity":80,"Duration":129310,"SoundDuration":129310,"Delta":334405803},{"NoteNumber":71,"Velocity":80,"Duration":129310,"SoundDuration":129310,"Delta":334405803},{"NoteNumber":74,"Velocity":95,"Duration":129310,"SoundDuration":129310,"Delta":334405803},{"NoteNumber":53,"Velocity":68,"Duration":129310,"SoundDuration":129310,"Delta":334405803},{"NoteNumber":56,"Velocity":68,"Duration":129310,"SoundDuration":129310,"Delta":334405803},{"NoteNumber":59,"Velocity":68,"Duration":129310,"SoundDuration":129310,"Delta":334405803},{"NoteNumber":62,"Velocity":80,"Duration":129310,"SoundDuration":129310,"Delta":334405803},{"NoteNumber":71,"Velocity":100,"Duration":101351,"SoundDuration":101351,"Delta":334664424},{"NoteNumber":59,"Velocity":84,"Duration":101351,"SoundDuration":101351,"Delta":334664424},{"NoteNumber":73,"Velocity":90,"Duration":101351,"SoundDuration":101351,"Delta":334765775},{"NoteNumber":61,"Velocity":75,"Duration":101351,"SoundDuration":101351,"Delta":334765775},{"NoteNumber":68,"Velocity":96,"Duration":101351,"SoundDuration":101351,"Delta":334867127},{"NoteNumber":56,"Velocity":80,"Duration":101351,"SoundDuration":101351,"Delta":334867127},{"NoteNumber":73,"Velocity":91,"Duration":101351,"SoundDuration":101351,"Delta":334968478},{"NoteNumber":61,"Velocity":77,"Duration":101351,"SoundDuration":101351,"Delta":334968478},{"NoteNumber":66,"Velocity":97,"Duration":99337,"SoundDuration":99337,"Delta":335069829},{"NoteNumber":54,"Velocity":81,"Duration":99337,"SoundDuration":99337,"Delta":335069829},{"NoteNumber":73,"Velocity":93,"Duration":99337,"SoundDuration":99337,"Delta":335169167},{"NoteNumber":61,"Velocity":78,"Duration":99337,"SoundDuration":99337,"Delta":335169167},{"NoteNumber":65,"Velocity":99,"Duration":99337,"SoundDuration":99337,"Delta":335268505},{"NoteNumber":53,"Velocity":82,"Duration":99337,"SoundDuration":99337,"Delta":335268505},{"NoteNumber":73,"Velocity":94,"Duration":99337,"SoundDuration":99337,"Delta":335367843},{"NoteNumber":61,"Velocity":79,"Duration":99337,"SoundDuration":99337,"Delta":335367843},{"NoteNumber":71,"Velocity":105,"Duration":100671,"SoundDuration":100671,"Delta":335467180},{"NoteNumber":59,"Velocity":89,"Duration":100671,"SoundDuration":100671,"Delta":335467180},{"NoteNumber":74,"Velocity":95,"Duration":100671,"SoundDuration":100671,"Delta":335567852},{"NoteNumber":62,"Velocity":80,"Duration":100671,"SoundDuration":100671,"Delta":335567852},{"NoteNumber":68,"Velocity":102,"Duration":100671,"SoundDuration":100671,"Delta":335668523},{"NoteNumber":56,"Velocity":84,"Duration":100671,"SoundDuration":100671,"Delta":335668523},{"NoteNumber":74,"Velocity":96,"Duration":100671,"SoundDuration":100671,"Delta":335769194},{"NoteNumber":62,"Velocity":80,"Duration":100671,"SoundDuration":100671,"Delta":335769194},{"NoteNumber":66,"Velocity":103,"Duration":100671,"SoundDuration":100671,"Delta":335869865},{"NoteNumber":54,"Velocity":85,"Duration":100671,"SoundDuration":100671,"Delta":335869865},{"NoteNumber":74,"Velocity":99,"Duration":100671,"SoundDuration":100671,"Delta":335970536},{"NoteNumber":62,"Velocity":82,"Duration":100671,"SoundDuration":100671,"Delta":335970536},{"NoteNumber":65,"Velocity":104,"Duration":116279,"SoundDuration":116279,"Delta":336071207},{"NoteNumber":53,"Velocity":86,"Duration":116279,"SoundDuration":116279,"Delta":336071207},{"NoteNumber":74,"Velocity":100,"Duration":116279,"SoundDuration":116279,"Delta":336187486},{"NoteNumber":62,"Velocity":83,"Duration":116279,"SoundDuration":116279,"Delta":336187486},{"NoteNumber":77,"Velocity":93,"Duration":304054,"SoundDuration":304054,"Delta":336303765},{"NoteNumber":86,"Velocity":111,"Duration":304054,"SoundDuration":304054,"Delta":336303765},{"NoteNumber":83,"Velocity":93,"Duration":304054,"SoundDuration":304054,"Delta":336303765},{"NoteNumber":80,"Velocity":93,"Duration":304054,"SoundDuration":304054,"Delta":336303765},{"NoteNumber":68,"Velocity":78,"Duration":304054,"SoundDuration":304054,"Delta":336303765},{"NoteNumber":74,"Velocity":93,"Duration":304054,"SoundDuration":304054,"Delta":336303765},{"NoteNumber":71,"Velocity":78,"Duration":304054,"SoundDuration":304054,"Delta":336303765},{"NoteNumber":65,"Velocity":78,"Duration":304054,"SoundDuration":304054,"Delta":336303765},{"NoteNumber":83,"Velocity":99,"Duration":96283,"SoundDuration":96283,"Delta":336607820},{"NoteNumber":80,"Velocity":84,"Duration":96283,"SoundDuration":96283,"Delta":336607820},{"NoteNumber":74,"Velocity":84,"Duration":96283,"SoundDuration":96283,"Delta":336607820},{"NoteNumber":77,"Velocity":84,"Duration":96283,"SoundDuration":96283,"Delta":336607820},{"NoteNumber":68,"Velocity":70,"Duration":96283,"SoundDuration":96283,"Delta":336607820},{"NoteNumber":71,"Velocity":84,"Duration":96283,"SoundDuration":96283,"Delta":336607820},{"NoteNumber":62,"Velocity":70,"Duration":96283,"SoundDuration":96283,"Delta":336607820},{"NoteNumber":65,"Velocity":70,"Duration":96283,"SoundDuration":96283,"Delta":336607820},{"NoteNumber":74,"Velocity":91,"Duration":304054,"SoundDuration":304054,"Delta":336709171},{"NoteNumber":77,"Velocity":91,"Duration":304054,"SoundDuration":304054,"Delta":336709171},{"NoteNumber":80,"Velocity":91,"Duration":304054,"SoundDuration":304054,"Delta":336709171},{"NoteNumber":83,"Velocity":107,"Duration":304054,"SoundDuration":304054,"Delta":336709171},{"NoteNumber":71,"Velocity":91,"Duration":304054,"SoundDuration":304054,"Delta":336709171},{"NoteNumber":62,"Velocity":78,"Duration":304054,"SoundDuration":304054,"Delta":336709171},{"NoteNumber":65,"Velocity":78,"Duration":304054,"SoundDuration":304054,"Delta":336709171},{"NoteNumber":68,"Velocity":78,"Duration":304054,"SoundDuration":304054,"Delta":336709171},{"NoteNumber":71,"Velocity":84,"Duration":96283,"SoundDuration":96283,"Delta":337013225},{"NoteNumber":74,"Velocity":84,"Duration":96283,"SoundDuration":96283,"Delta":337013225},{"NoteNumber":77,"Velocity":84,"Duration":96283,"SoundDuration":96283,"Delta":337013225},{"NoteNumber":80,"Velocity":99,"Duration":96283,"SoundDuration":96283,"Delta":337013225},{"NoteNumber":65,"Velocity":70,"Duration":96283,"SoundDuration":96283,"Delta":337013225},{"NoteNumber":59,"Velocity":70,"Duration":96283,"SoundDuration":96283,"Delta":337013225},{"NoteNumber":62,"Velocity":70,"Duration":96283,"SoundDuration":96283,"Delta":337013225},{"NoteNumber":68,"Velocity":84,"Duration":96283,"SoundDuration":96283,"Delta":337013225},{"NoteNumber":71,"Velocity":91,"Duration":312499,"SoundDuration":312499,"Delta":337114576},{"NoteNumber":74,"Velocity":91,"Duration":312499,"SoundDuration":312499,"Delta":337114576},{"NoteNumber":77,"Velocity":91,"Duration":312499,"SoundDuration":312499,"Delta":337114576},{"NoteNumber":80,"Velocity":107,"Duration":312499,"SoundDuration":312499,"Delta":337114576},{"NoteNumber":62,"Velocity":78,"Duration":312499,"SoundDuration":312499,"Delta":337114576},{"NoteNumber":59,"Velocity":78,"Duration":312499,"SoundDuration":312499,"Delta":337114576},{"NoteNumber":65,"Velocity":78,"Duration":312499,"SoundDuration":312499,"Delta":337114576},{"NoteNumber":68,"Velocity":91,"Duration":312499,"SoundDuration":312499,"Delta":337114576},{"NoteNumber":68,"Velocity":80,"Duration":98958,"SoundDuration":98958,"Delta":337427076},{"NoteNumber":71,"Velocity":80,"Duration":98958,"SoundDuration":98958,"Delta":337427076},{"NoteNumber":74,"Velocity":80,"Duration":98958,"SoundDuration":98958,"Delta":337427076},{"NoteNumber":77,"Velocity":95,"Duration":98958,"SoundDuration":98958,"Delta":337427076},{"NoteNumber":65,"Velocity":80,"Duration":98958,"SoundDuration":98958,"Delta":337427076},{"NoteNumber":56,"Velocity":68,"Duration":98958,"SoundDuration":98958,"Delta":337427076},{"NoteNumber":59,"Velocity":68,"Duration":98958,"SoundDuration":98958,"Delta":337427076},{"NoteNumber":62,"Velocity":68,"Duration":98958,"SoundDuration":98958,"Delta":337427076},{"NoteNumber":68,"Velocity":88,"Duration":109488,"SoundDuration":109488,"Delta":337531243},{"NoteNumber":71,"Velocity":88,"Duration":109488,"SoundDuration":109488,"Delta":337531243},{"NoteNumber":74,"Velocity":88,"Duration":109488,"SoundDuration":109488,"Delta":337531243},{"NoteNumber":77,"Velocity":104,"Duration":109488,"SoundDuration":109488,"Delta":337531243},{"NoteNumber":62,"Velocity":73,"Duration":109488,"SoundDuration":109488,"Delta":337531243},{"NoteNumber":56,"Velocity":73,"Duration":109488,"SoundDuration":109488,"Delta":337531243},{"NoteNumber":59,"Velocity":73,"Duration":109488,"SoundDuration":109488,"Delta":337531243},{"NoteNumber":65,"Velocity":88,"Duration":109488,"SoundDuration":109488,"Delta":337531243},{"NoteNumber":65,"Velocity":80,"Duration":121951,"SoundDuration":121951,"Delta":337750221},{"NoteNumber":68,"Velocity":80,"Duration":121951,"SoundDuration":121951,"Delta":337750221},{"NoteNumber":71,"Velocity":80,"Duration":121951,"SoundDuration":121951,"Delta":337750221},{"NoteNumber":74,"Velocity":95,"Duration":121951,"SoundDuration":121951,"Delta":337750221},{"NoteNumber":53,"Velocity":68,"Duration":121951,"SoundDuration":121951,"Delta":337750221},{"NoteNumber":56,"Velocity":68,"Duration":121951,"SoundDuration":121951,"Delta":337750221},{"NoteNumber":59,"Velocity":68,"Duration":121951,"SoundDuration":121951,"Delta":337750221},{"NoteNumber":62,"Velocity":80,"Duration":121951,"SoundDuration":121951,"Delta":337750221},{"NoteNumber":78,"Velocity":93,"Duration":304054,"SoundDuration":304054,"Delta":337994123},{"NoteNumber":90,"Velocity":111,"Duration":304054,"SoundDuration":304054,"Delta":337994123},{"NoteNumber":87,"Velocity":93,"Duration":304054,"SoundDuration":304054,"Delta":337994123},{"NoteNumber":81,"Velocity":93,"Duration":304054,"SoundDuration":304054,"Delta":337994123},{"NoteNumber":48,"Velocity":79,"Duration":304054,"SoundDuration":304054,"Delta":337994123},{"NoteNumber":36,"Velocity":66,"Duration":304054,"SoundDuration":304054,"Delta":337994123},{"NoteNumber":87,"Velocity":99,"Duration":96283,"SoundDuration":96283,"Delta":338298178},{"NoteNumber":83,"Velocity":84,"Duration":96283,"SoundDuration":96283,"Delta":338298178},{"NoteNumber":75,"Velocity":84,"Duration":96283,"SoundDuration":96283,"Delta":338298178},{"NoteNumber":78,"Velocity":84,"Duration":96283,"SoundDuration":96283,"Delta":338298178},{"NoteNumber":51,"Velocity":71,"Duration":96283,"SoundDuration":96283,"Delta":338298178},{"NoteNumber":39,"Velocity":59,"Duration":96283,"SoundDuration":96283,"Delta":338298178},{"NoteNumber":75,"Velocity":91,"Duration":304054,"SoundDuration":304054,"Delta":338399529},{"NoteNumber":78,"Velocity":91,"Duration":304054,"SoundDuration":304054,"Delta":338399529},{"NoteNumber":83,"Velocity":91,"Duration":304054,"SoundDuration":304054,"Delta":338399529},{"NoteNumber":87,"Velocity":107,"Duration":304054,"SoundDuration":304054,"Delta":338399529},{"NoteNumber":51,"Velocity":77,"Duration":304054,"SoundDuration":304054,"Delta":338399529},{"NoteNumber":39,"Velocity":66,"Duration":304054,"SoundDuration":304054,"Delta":338399529},{"NoteNumber":69,"Velocity":84,"Duration":96283,"SoundDuration":96283,"Delta":338703583},{"NoteNumber":75,"Velocity":84,"Duration":96283,"SoundDuration":96283,"Delta":338703583},{"NoteNumber":78,"Velocity":84,"Duration":96283,"SoundDuration":96283,"Delta":338703583},{"NoteNumber":81,"Velocity":99,"Duration":96283,"SoundDuration":96283,"Delta":338703583},{"NoteNumber":42,"Velocity":59,"Duration":96283,"SoundDuration":96283,"Delta":338703583},{"NoteNumber":54,"Velocity":71,"Duration":96283,"SoundDuration":96283,"Delta":338703583},{"NoteNumber":69,"Velocity":91,"Duration":300000,"SoundDuration":300000,"Delta":338804934},{"NoteNumber":75,"Velocity":91,"Duration":300000,"SoundDuration":300000,"Delta":338804934},{"NoteNumber":78,"Velocity":91,"Duration":300000,"SoundDuration":300000,"Delta":338804934},{"NoteNumber":81,"Velocity":107,"Duration":300000,"SoundDuration":300000,"Delta":338804934},{"NoteNumber":42,"Velocity":66,"Duration":300000,"SoundDuration":300000,"Delta":338804934},{"NoteNumber":54,"Velocity":77,"Duration":300000,"SoundDuration":300000,"Delta":338804934},{"NoteNumber":66,"Velocity":80,"Duration":94999,"SoundDuration":94999,"Delta":339104934},{"NoteNumber":69,"Velocity":80,"Duration":94999,"SoundDuration":94999,"Delta":339104934},{"NoteNumber":75,"Velocity":80,"Duration":94999,"SoundDuration":94999,"Delta":339104934},{"NoteNumber":78,"Velocity":95,"Duration":94999,"SoundDuration":94999,"Delta":339104934},{"NoteNumber":57,"Velocity":68,"Duration":94999,"SoundDuration":94999,"Delta":339104934},{"NoteNumber":45,"Velocity":57,"Duration":94999,"SoundDuration":94999,"Delta":339104934},{"NoteNumber":66,"Velocity":88,"Duration":105633,"SoundDuration":105633,"Delta":339204934},{"NoteNumber":69,"Velocity":88,"Duration":105633,"SoundDuration":105633,"Delta":339204934},{"NoteNumber":75,"Velocity":88,"Duration":105633,"SoundDuration":105633,"Delta":339204934},{"NoteNumber":78,"Velocity":104,"Duration":105633,"SoundDuration":105633,"Delta":339204934},{"NoteNumber":45,"Velocity":61,"Duration":105633,"SoundDuration":105633,"Delta":339204934},{"NoteNumber":57,"Velocity":74,"Duration":105633,"SoundDuration":105633,"Delta":339204934},{"NoteNumber":63,"Velocity":80,"Duration":111940,"SoundDuration":111940,"Delta":339416202},{"NoteNumber":66,"Velocity":80,"Duration":111940,"SoundDuration":111940,"Delta":339416202},{"NoteNumber":69,"Velocity":80,"Duration":111940,"SoundDuration":111940,"Delta":339416202},{"NoteNumber":75,"Velocity":95,"Duration":111940,"SoundDuration":111940,"Delta":339416202},{"NoteNumber":48,"Velocity":57,"Duration":111940,"SoundDuration":111940,"Delta":339416202},{"NoteNumber":60,"Velocity":68,"Duration":111940,"SoundDuration":111940,"Delta":339416202},{"NoteNumber":78,"Velocity":93,"Duration":304054,"SoundDuration":304054,"Delta":339640082},{"NoteNumber":90,"Velocity":111,"Duration":304054,"SoundDuration":304054,"Delta":339640082},{"NoteNumber":85,"Velocity":93,"Duration":304054,"SoundDuration":304054,"Delta":339640082},{"NoteNumber":81,"Velocity":93,"Duration":304054,"SoundDuration":304054,"Delta":339640082},{"NoteNumber":49,"Velocity":79,"Duration":304054,"SoundDuration":304054,"Delta":339640082},{"NoteNumber":37,"Velocity":66,"Duration":304054,"SoundDuration":304054,"Delta":339640082},{"NoteNumber":87,"Velocity":99,"Duration":96283,"SoundDuration":96283,"Delta":339944137},{"NoteNumber":81,"Velocity":84,"Duration":96283,"SoundDuration":96283,"Delta":339944137},{"NoteNumber":75,"Velocity":84,"Duration":96283,"SoundDuration":96283,"Delta":339944137},{"NoteNumber":78,"Velocity":84,"Duration":96283,"SoundDuration":96283,"Delta":339944137},{"NoteNumber":54,"Velocity":71,"Duration":96283,"SoundDuration":96283,"Delta":339944137},{"NoteNumber":42,"Velocity":59,"Duration":96283,"SoundDuration":96283,"Delta":339944137},{"NoteNumber":75,"Velocity":91,"Duration":304054,"SoundDuration":304054,"Delta":340045488},{"NoteNumber":78,"Velocity":91,"Duration":304054,"SoundDuration":304054,"Delta":340045488},{"NoteNumber":81,"Velocity":91,"Duration":304054,"SoundDuration":304054,"Delta":340045488},{"NoteNumber":87,"Velocity":107,"Duration":304054,"SoundDuration":304054,"Delta":340045488},{"NoteNumber":54,"Velocity":77,"Duration":304054,"SoundDuration":304054,"Delta":340045488},{"NoteNumber":42,"Velocity":66,"Duration":304054,"SoundDuration":304054,"Delta":340045488},{"NoteNumber":69,"Velocity":84,"Duration":96283,"SoundDuration":96283,"Delta":340349542},{"NoteNumber":73,"Velocity":84,"Duration":96283,"SoundDuration":96283,"Delta":340349542},{"NoteNumber":78,"Velocity":84,"Duration":96283,"SoundDuration":96283,"Delta":340349542},{"NoteNumber":81,"Velocity":99,"Duration":96283,"SoundDuration":96283,"Delta":340349542},{"NoteNumber":45,"Velocity":59,"Duration":96283,"SoundDuration":96283,"Delta":340349542},{"NoteNumber":57,"Velocity":71,"Duration":96283,"SoundDuration":96283,"Delta":340349542},{"NoteNumber":69,"Velocity":91,"Duration":308219,"SoundDuration":308219,"Delta":340450893},{"NoteNumber":73,"Velocity":91,"Duration":308219,"SoundDuration":308219,"Delta":340450893},{"NoteNumber":78,"Velocity":91,"Duration":308219,"SoundDuration":308219,"Delta":340450893},{"NoteNumber":81,"Velocity":107,"Duration":308219,"SoundDuration":308219,"Delta":340450893},{"NoteNumber":45,"Velocity":66,"Duration":308219,"SoundDuration":308219,"Delta":340450893},{"NoteNumber":57,"Velocity":77,"Duration":308219,"SoundDuration":308219,"Delta":340450893},{"NoteNumber":66,"Velocity":80,"Duration":97602,"SoundDuration":97602,"Delta":340759113},{"NoteNumber":69,"Velocity":80,"Duration":97602,"SoundDuration":97602,"Delta":340759113},{"NoteNumber":73,"Velocity":80,"Duration":97602,"SoundDuration":97602,"Delta":340759113},{"NoteNumber":78,"Velocity":95,"Duration":97602,"SoundDuration":97602,"Delta":340759113},{"NoteNumber":61,"Velocity":68,"Duration":97602,"SoundDuration":97602,"Delta":340759113},{"NoteNumber":49,"Velocity":57,"Duration":97602,"SoundDuration":97602,"Delta":340759113},{"NoteNumber":66,"Velocity":88,"Duration":110294,"SoundDuration":110294,"Delta":340861852},{"NoteNumber":69,"Velocity":88,"Duration":110294,"SoundDuration":110294,"Delta":340861852},{"NoteNumber":73,"Velocity":88,"Duration":110294,"SoundDuration":110294,"Delta":340861852},{"NoteNumber":78,"Velocity":104,"Duration":110294,"SoundDuration":110294,"Delta":340861852},{"NoteNumber":49,"Velocity":61,"Duration":110294,"SoundDuration":110294,"Delta":340861852},{"NoteNumber":61,"Velocity":74,"Duration":110294,"SoundDuration":110294,"Delta":340861852},{"NoteNumber":61,"Velocity":80,"Duration":122950,"SoundDuration":122950,"Delta":341082441},{"NoteNumber":66,"Velocity":80,"Duration":122950,"SoundDuration":122950,"Delta":341082441},{"NoteNumber":69,"Velocity":80,"Duration":122950,"SoundDuration":122950,"Delta":341082441},{"NoteNumber":73,"Velocity":95,"Duration":122950,"SoundDuration":122950,"Delta":341082441},{"NoteNumber":54,"Velocity":68,"Duration":122950,"SoundDuration":122950,"Delta":341082441},{"NoteNumber":78,"Velocity":93,"Duration":308219,"SoundDuration":308219,"Delta":341328342},{"NoteNumber":90,"Velocity":111,"Duration":308219,"SoundDuration":308219,"Delta":341328342},{"NoteNumber":87,"Velocity":93,"Duration":308219,"SoundDuration":308219,"Delta":341328342},{"NoteNumber":81,"Velocity":93,"Duration":308219,"SoundDuration":308219,"Delta":341328342},{"NoteNumber":48,"Velocity":79,"Duration":308219,"SoundDuration":308219,"Delta":341328342},{"NoteNumber":36,"Velocity":66,"Duration":308219,"SoundDuration":308219,"Delta":341328342},{"NoteNumber":87,"Velocity":99,"Duration":97602,"SoundDuration":97602,"Delta":341636562},{"NoteNumber":83,"Velocity":84,"Duration":97602,"SoundDuration":97602,"Delta":341636562},{"NoteNumber":75,"Velocity":84,"Duration":97602,"SoundDuration":97602,"Delta":341636562},{"NoteNumber":78,"Velocity":84,"Duration":97602,"SoundDuration":97602,"Delta":341636562},{"NoteNumber":51,"Velocity":71,"Duration":97602,"SoundDuration":97602,"Delta":341636562},{"NoteNumber":39,"Velocity":59,"Duration":97602,"SoundDuration":97602,"Delta":341636562},{"NoteNumber":75,"Velocity":91,"Duration":308219,"SoundDuration":308219,"Delta":341739301},{"NoteNumber":78,"Velocity":91,"Duration":308219,"SoundDuration":308219,"Delta":341739301},{"NoteNumber":83,"Velocity":91,"Duration":308219,"SoundDuration":308219,"Delta":341739301},{"NoteNumber":87,"Velocity":107,"Duration":308219,"SoundDuration":308219,"Delta":341739301},{"NoteNumber":51,"Velocity":77,"Duration":308219,"SoundDuration":308219,"Delta":341739301},{"NoteNumber":39,"Velocity":66,"Duration":308219,"SoundDuration":308219,"Delta":341739301},{"NoteNumber":69,"Velocity":84,"Duration":97602,"SoundDuration":97602,"Delta":342047521},{"NoteNumber":75,"Velocity":84,"Duration":97602,"SoundDuration":97602,"Delta":342047521},{"NoteNumber":78,"Velocity":84,"Duration":97602,"SoundDuration":97602,"Delta":342047521},{"NoteNumber":81,"Velocity":99,"Duration":97602,"SoundDuration":97602,"Delta":342047521},{"NoteNumber":42,"Velocity":59,"Duration":97602,"SoundDuration":97602,"Delta":342047521},{"NoteNumber":54,"Velocity":71,"Duration":97602,"SoundDuration":97602,"Delta":342047521},{"NoteNumber":69,"Velocity":91,"Duration":316901,"SoundDuration":316901,"Delta":342150260},{"NoteNumber":75,"Velocity":91,"Duration":316901,"SoundDuration":316901,"Delta":342150260},{"NoteNumber":78,"Velocity":91,"Duration":316901,"SoundDuration":316901,"Delta":342150260},{"NoteNumber":81,"Velocity":107,"Duration":316901,"SoundDuration":316901,"Delta":342150260},{"NoteNumber":42,"Velocity":66,"Duration":316901,"SoundDuration":316901,"Delta":342150260},{"NoteNumber":54,"Velocity":77,"Duration":316901,"SoundDuration":316901,"Delta":342150260},{"NoteNumber":66,"Velocity":80,"Duration":100352,"SoundDuration":100352,"Delta":342467162},{"NoteNumber":69,"Velocity":80,"Duration":100352,"SoundDuration":100352,"Delta":342467162},{"NoteNumber":75,"Velocity":80,"Duration":100352,"SoundDuration":100352,"Delta":342467162},{"NoteNumber":78,"Velocity":95,"Duration":100352,"SoundDuration":100352,"Delta":342467162},{"NoteNumber":57,"Velocity":68,"Duration":100352,"SoundDuration":100352,"Delta":342467162},{"NoteNumber":45,"Velocity":57,"Duration":100352,"SoundDuration":100352,"Delta":342467162},{"NoteNumber":66,"Velocity":88,"Duration":115384,"SoundDuration":115384,"Delta":342572795},{"NoteNumber":69,"Velocity":88,"Duration":115384,"SoundDuration":115384,"Delta":342572795},{"NoteNumber":75,"Velocity":88,"Duration":115384,"SoundDuration":115384,"Delta":342572795},{"NoteNumber":78,"Velocity":104,"Duration":115384,"SoundDuration":115384,"Delta":342572795},{"NoteNumber":45,"Velocity":61,"Duration":115384,"SoundDuration":115384,"Delta":342572795},{"NoteNumber":57,"Velocity":74,"Duration":115384,"SoundDuration":115384,"Delta":342572795},{"NoteNumber":63,"Velocity":80,"Duration":147058,"SoundDuration":147058,"Delta":342803565},{"NoteNumber":66,"Velocity":80,"Duration":147058,"SoundDuration":147058,"Delta":342803565},{"NoteNumber":69,"Velocity":80,"Duration":147058,"SoundDuration":147058,"Delta":342803565},{"NoteNumber":75,"Velocity":95,"Duration":147058,"SoundDuration":147058,"Delta":342803565},{"NoteNumber":48,"Velocity":57,"Duration":147058,"SoundDuration":147058,"Delta":342803565},{"NoteNumber":60,"Velocity":68,"Duration":147058,"SoundDuration":147058,"Delta":342803565},{"NoteNumber":80,"Velocity":97,"Duration":333333,"SoundDuration":333333,"Delta":343097682},{"NoteNumber":92,"Velocity":116,"Duration":333333,"SoundDuration":333333,"Delta":343097682},{"NoteNumber":90,"Velocity":97,"Duration":333333,"SoundDuration":333333,"Delta":343097682},{"NoteNumber":87,"Velocity":97,"Duration":333333,"SoundDuration":333333,"Delta":343097682},{"NoteNumber":44,"Velocity":82,"Duration":333333,"SoundDuration":333333,"Delta":343097682},{"NoteNumber":32,"Velocity":69,"Duration":333333,"SoundDuration":333333,"Delta":343097682},{"NoteNumber":90,"Velocity":103,"Duration":105555,"SoundDuration":105555,"Delta":343431016},{"NoteNumber":87,"Velocity":88,"Duration":105555,"SoundDuration":105555,"Delta":343431016},{"NoteNumber":78,"Velocity":88,"Duration":105555,"SoundDuration":105555,"Delta":343431016},{"NoteNumber":80,"Velocity":88,"Duration":105555,"SoundDuration":105555,"Delta":343431016},{"NoteNumber":48,"Velocity":74,"Duration":105555,"SoundDuration":105555,"Delta":343431016},{"NoteNumber":36,"Velocity":61,"Duration":105555,"SoundDuration":105555,"Delta":343431016},{"NoteNumber":78,"Velocity":94,"Duration":333333,"SoundDuration":333333,"Delta":343542127},{"NoteNumber":80,"Velocity":94,"Duration":333333,"SoundDuration":333333,"Delta":343542127},{"NoteNumber":87,"Velocity":94,"Duration":333333,"SoundDuration":333333,"Delta":343542127},{"NoteNumber":90,"Velocity":111,"Duration":333333,"SoundDuration":333333,"Delta":343542127},{"NoteNumber":48,"Velocity":79,"Duration":333333,"SoundDuration":333333,"Delta":343542127},{"NoteNumber":36,"Velocity":68,"Duration":333333,"SoundDuration":333333,"Delta":343542127},{"NoteNumber":75,"Velocity":86,"Duration":105555,"SoundDuration":105555,"Delta":343875460},{"NoteNumber":78,"Velocity":86,"Duration":105555,"SoundDuration":105555,"Delta":343875460},{"NoteNumber":80,"Velocity":86,"Duration":105555,"SoundDuration":105555,"Delta":343875460},{"NoteNumber":87,"Velocity":101,"Duration":105555,"SoundDuration":105555,"Delta":343875460},{"NoteNumber":39,"Velocity":60,"Duration":111111,"SoundDuration":111111,"Delta":343875460},{"NoteNumber":51,"Velocity":72,"Duration":105555,"SoundDuration":105555,"Delta":343875460},{"NoteNumber":75,"Velocity":93,"Duration":318656,"SoundDuration":318656,"Delta":343986571},{"NoteNumber":78,"Velocity":93,"Duration":318656,"SoundDuration":318656,"Delta":343986571},{"NoteNumber":80,"Velocity":93,"Duration":318656,"SoundDuration":318656,"Delta":343986571},{"NoteNumber":87,"Velocity":110,"Duration":318656,"SoundDuration":318656,"Delta":343986571},{"NoteNumber":39,"Velocity":67,"Duration":318656,"SoundDuration":318656,"Delta":343986571},{"NoteNumber":51,"Velocity":79,"Duration":318656,"SoundDuration":318656,"Delta":343986571},{"NoteNumber":68,"Velocity":81,"Duration":102004,"SoundDuration":102004,"Delta":344305228},{"NoteNumber":75,"Velocity":81,"Duration":102004,"SoundDuration":102004,"Delta":344305228},{"NoteNumber":78,"Velocity":81,"Duration":102004,"SoundDuration":102004,"Delta":344305228},{"NoteNumber":80,"Velocity":96,"Duration":102004,"SoundDuration":102004,"Delta":344305228},{"NoteNumber":56,"Velocity":69,"Duration":102004,"SoundDuration":102004,"Delta":344305228},{"NoteNumber":44,"Velocity":58,"Duration":102004,"SoundDuration":102004,"Delta":344305228},{"NoteNumber":68,"Velocity":89,"Duration":109492,"SoundDuration":109492,"Delta":344412628},{"NoteNumber":75,"Velocity":89,"Duration":109492,"SoundDuration":109492,"Delta":344412628},{"NoteNumber":78,"Velocity":89,"Duration":109492,"SoundDuration":109492,"Delta":344412628},{"NoteNumber":80,"Velocity":105,"Duration":109492,"SoundDuration":109492,"Delta":344412628},{"NoteNumber":44,"Velocity":62,"Duration":109492,"SoundDuration":109492,"Delta":344412628},{"NoteNumber":56,"Velocity":75,"Duration":109492,"SoundDuration":109492,"Delta":344412628},{"NoteNumber":66,"Velocity":80,"Duration":114508,"SoundDuration":114508,"Delta":344634065},{"NoteNumber":68,"Velocity":80,"Duration":114508,"SoundDuration":114508,"Delta":344634065},{"NoteNumber":75,"Velocity":80,"Duration":114508,"SoundDuration":114508,"Delta":344634065},{"NoteNumber":78,"Velocity":95,"Duration":114508,"SoundDuration":114508,"Delta":344634065},{"NoteNumber":48,"Velocity":61,"Duration":114508,"SoundDuration":114508,"Delta":344634065},{"NoteNumber":60,"Velocity":68,"Duration":114508,"SoundDuration":114508,"Delta":344634065},{"NoteNumber":65,"Velocity":81,"Duration":222222,"SoundDuration":222222,"Delta":344865766},{"NoteNumber":68,"Velocity":81,"Duration":222222,"SoundDuration":222222,"Delta":344865766},{"NoteNumber":73,"Velocity":81,"Duration":222222,"SoundDuration":222222,"Delta":344865766},{"NoteNumber":77,"Velocity":105,"Duration":222222,"SoundDuration":222222,"Delta":344865766},{"NoteNumber":49,"Velocity":62,"Duration":222222,"SoundDuration":222222,"Delta":344865766},{"NoteNumber":61,"Velocity":75,"Duration":222222,"SoundDuration":222222,"Delta":344865766},{"NoteNumber":44,"Velocity":75,"Duration":111111,"SoundDuration":111111,"Delta":345087988},{"NoteNumber":49,"Velocity":66,"Duration":111111,"SoundDuration":111111,"Delta":345199099},{"NoteNumber":41,"Velocity":75,"Duration":111111,"SoundDuration":111111,"Delta":345310210},{"NoteNumber":49,"Velocity":66,"Duration":111111,"SoundDuration":111111,"Delta":345421321},{"NoteNumber":37,"Velocity":74,"Duration":111111,"SoundDuration":111111,"Delta":345532432},{"NoteNumber":49,"Velocity":67,"Duration":111111,"SoundDuration":111111,"Delta":345643544},{"NoteNumber":48,"Velocity":75,"Duration":111111,"SoundDuration":111111,"Delta":345754655},{"NoteNumber":49,"Velocity":64,"Duration":111111,"SoundDuration":111111,"Delta":345865766},{"NoteNumber":44,"Velocity":72,"Duration":111111,"SoundDuration":111111,"Delta":345976877},{"NoteNumber":49,"Velocity":62,"Duration":111940,"SoundDuration":111940,"Delta":346087988},{"NoteNumber":41,"Velocity":69,"Duration":111940,"SoundDuration":111940,"Delta":346199928},{"NoteNumber":49,"Velocity":59,"Duration":112220,"SoundDuration":112220,"Delta":346311869},{"NoteNumber":37,"Velocity":66,"Duration":112781,"SoundDuration":112781,"Delta":346424089},{"NoteNumber":49,"Velocity":56,"Duration":112781,"SoundDuration":112781,"Delta":346536871},{"NoteNumber":48,"Velocity":62,"Duration":113351,"SoundDuration":113351,"Delta":346649653},{"NoteNumber":49,"Velocity":55,"Duration":113636,"SoundDuration":113636,"Delta":346763005},{"NoteNumber":44,"Velocity":60,"Duration":113636,"SoundDuration":113636,"Delta":346876641},{"NoteNumber":49,"Velocity":51,"Duration":114503,"SoundDuration":114503,"Delta":346990278},{"NoteNumber":41,"Velocity":56,"Duration":114503,"SoundDuration":114503,"Delta":347104782},{"NoteNumber":49,"Velocity":47,"Duration":114797,"SoundDuration":114797,"Delta":347219286},{"NoteNumber":37,"Velocity":52,"Duration":115384,"SoundDuration":115384,"Delta":347334083},{"NoteNumber":49,"Velocity":45,"Duration":115384,"SoundDuration":115384,"Delta":347449468},{"NoteNumber":48,"Velocity":50,"Duration":115980,"SoundDuration":115980,"Delta":347564852},{"NoteNumber":49,"Velocity":42,"Duration":115384,"SoundDuration":115384,"Delta":347680833},{"NoteNumber":44,"Velocity":47,"Duration":116581,"SoundDuration":116581,"Delta":347796218},{"NoteNumber":49,"Velocity":40,"Duration":117802,"SoundDuration":117802,"Delta":347912800},{"NoteNumber":41,"Velocity":44,"Duration":120650,"SoundDuration":120650,"Delta":348030602},{"NoteNumber":49,"Velocity":37,"Duration":123295,"SoundDuration":123295,"Delta":348151253},{"NoteNumber":37,"Velocity":40,"Duration":130200,"SoundDuration":130200,"Delta":348274548},{"NoteNumber":49,"Velocity":34,"Duration":144464,"SoundDuration":144464,"Delta":348404748},{"NoteNumber":59,"Velocity":29,"Duration":72815,"SoundDuration":72815,"Delta":348549213},{"NoteNumber":48,"Velocity":33,"Duration":144257,"SoundDuration":144257,"Delta":348549213},{"NoteNumber":62,"Velocity":25,"Duration":71441,"SoundDuration":71441,"Delta":348622028},{"NoteNumber":59,"Velocity":29,"Duration":70105,"SoundDuration":70105,"Delta":348693470},{"NoteNumber":49,"Velocity":29,"Duration":138912,"SoundDuration":138912,"Delta":348693470},{"NoteNumber":62,"Velocity":25,"Duration":68807,"SoundDuration":68807,"Delta":348763575},{"NoteNumber":59,"Velocity":30,"Duration":67567,"SoundDuration":67567,"Delta":348832383},{"NoteNumber":44,"Velocity":33,"Duration":133949,"SoundDuration":133949,"Delta":348832383},{"NoteNumber":62,"Velocity":25,"Duration":66382,"SoundDuration":66382,"Delta":348899950},{"NoteNumber":59,"Velocity":30,"Duration":65046,"SoundDuration":65046,"Delta":348966332},{"NoteNumber":49,"Velocity":29,"Duration":128605,"SoundDuration":128605,"Delta":348966332},{"NoteNumber":62,"Velocity":24,"Duration":63559,"SoundDuration":63559,"Delta":349031379},{"NoteNumber":59,"Velocity":30,"Duration":63559,"SoundDuration":63559,"Delta":349094938},{"NoteNumber":41,"Velocity":33,"Duration":127118,"SoundDuration":127118,"Delta":349094938},{"NoteNumber":62,"Velocity":26,"Duration":63559,"SoundDuration":63559,"Delta":349158497},{"NoteNumber":59,"Velocity":31,"Duration":63381,"SoundDuration":63381,"Delta":349222057},{"NoteNumber":49,"Velocity":29,"Duration":126406,"SoundDuration":126406,"Delta":349222057},{"NoteNumber":62,"Velocity":27,"Duration":63025,"SoundDuration":63025,"Delta":349285438},{"NoteNumber":59,"Velocity":31,"Duration":63025,"SoundDuration":63025,"Delta":349348463},{"NoteNumber":37,"Velocity":33,"Duration":126050,"SoundDuration":126050,"Delta":349348463},{"NoteNumber":62,"Velocity":26,"Duration":63025,"SoundDuration":63025,"Delta":349411488},{"NoteNumber":59,"Velocity":33,"Duration":62850,"SoundDuration":62850,"Delta":349474513},{"NoteNumber":49,"Velocity":29,"Duration":125350,"SoundDuration":125350,"Delta":349474513},{"NoteNumber":62,"Velocity":26,"Duration":62500,"SoundDuration":62500,"Delta":349537363},{"NoteNumber":59,"Velocity":33,"Duration":62500,"SoundDuration":62500,"Delta":349599863},{"NoteNumber":48,"Velocity":33,"Duration":125000,"SoundDuration":125000,"Delta":349599863},{"NoteNumber":62,"Velocity":28,"Duration":62500,"SoundDuration":62500,"Delta":349662363},{"NoteNumber":59,"Velocity":33,"Duration":62327,"SoundDuration":62327,"Delta":349724863},{"NoteNumber":49,"Velocity":29,"Duration":124311,"SoundDuration":124311,"Delta":349724863},{"NoteNumber":62,"Velocity":28,"Duration":61983,"SoundDuration":61983,"Delta":349787191},{"NoteNumber":59,"Velocity":34,"Duration":61983,"SoundDuration":61983,"Delta":349849175},{"NoteNumber":44,"Velocity":33,"Duration":123966,"SoundDuration":123966,"Delta":349849175},{"NoteNumber":62,"Velocity":28,"Duration":61983,"SoundDuration":61983,"Delta":349911158},{"NoteNumber":59,"Velocity":34,"Duration":61814,"SoundDuration":61814,"Delta":349973142},{"NoteNumber":49,"Velocity":29,"Duration":123289,"SoundDuration":123289,"Delta":349973142},{"NoteNumber":62,"Velocity":27,"Duration":61475,"SoundDuration":61475,"Delta":350034956},{"NoteNumber":59,"Velocity":35,"Duration":61475,"SoundDuration":61475,"Delta":350096431},{"NoteNumber":41,"Velocity":33,"Duration":122950,"SoundDuration":122950,"Delta":350096431},{"NoteNumber":62,"Velocity":29,"Duration":61475,"SoundDuration":61475,"Delta":350157907},{"NoteNumber":59,"Velocity":35,"Duration":61308,"SoundDuration":61308,"Delta":350219382},{"NoteNumber":49,"Velocity":29,"Duration":122284,"SoundDuration":122284,"Delta":350219382},{"NoteNumber":62,"Velocity":30,"Duration":60975,"SoundDuration":60975,"Delta":350280691},{"NoteNumber":59,"Velocity":36,"Duration":60975,"SoundDuration":60975,"Delta":350341667},{"NoteNumber":37,"Velocity":33,"Duration":121951,"SoundDuration":121951,"Delta":350341667},{"NoteNumber":62,"Velocity":29,"Duration":60975,"SoundDuration":60975,"Delta":350402642},{"NoteNumber":59,"Velocity":36,"Duration":60811,"SoundDuration":60811,"Delta":350463618},{"NoteNumber":49,"Velocity":29,"Duration":121295,"SoundDuration":121295,"Delta":350463618},{"NoteNumber":62,"Velocity":28,"Duration":60483,"SoundDuration":60483,"Delta":350524430},{"NoteNumber":59,"Velocity":37,"Duration":60483,"SoundDuration":60483,"Delta":350584914},{"NoteNumber":48,"Velocity":33,"Duration":120645,"SoundDuration":120645,"Delta":350584914},{"NoteNumber":62,"Velocity":30,"Duration":60161,"SoundDuration":60161,"Delta":350645397},{"NoteNumber":59,"Velocity":36,"Duration":60000,"SoundDuration":60000,"Delta":350705559},{"NoteNumber":49,"Velocity":29,"Duration":120000,"SoundDuration":120000,"Delta":350705559},{"NoteNumber":62,"Velocity":30,"Duration":60000,"SoundDuration":60000,"Delta":350765559},{"NoteNumber":59,"Velocity":36,"Duration":60000,"SoundDuration":60000,"Delta":350825559},{"NoteNumber":44,"Velocity":33,"Duration":119999,"SoundDuration":119999,"Delta":350825559},{"NoteNumber":62,"Velocity":29,"Duration":59999,"SoundDuration":59999,"Delta":350885559},{"NoteNumber":59,"Velocity":35,"Duration":60000,"SoundDuration":60000,"Delta":350945559},{"NoteNumber":49,"Velocity":29,"Duration":120000,"SoundDuration":120000,"Delta":350945559},{"NoteNumber":62,"Velocity":27,"Duration":60000,"SoundDuration":60000,"Delta":351005559},{"NoteNumber":59,"Velocity":35,"Duration":60483,"SoundDuration":60483,"Delta":351065559},{"NoteNumber":41,"Velocity":33,"Duration":120967,"SoundDuration":120967,"Delta":351065559},{"NoteNumber":62,"Velocity":29,"Duration":60483,"SoundDuration":60483,"Delta":351126043},{"NoteNumber":59,"Velocity":34,"Duration":60483,"SoundDuration":60483,"Delta":351186526},{"NoteNumber":49,"Velocity":29,"Duration":120967,"SoundDuration":120967,"Delta":351186526},{"NoteNumber":62,"Velocity":28,"Duration":60483,"SoundDuration":60483,"Delta":351247010},{"NoteNumber":59,"Velocity":34,"Duration":60483,"SoundDuration":60483,"Delta":351307494},{"NoteNumber":37,"Velocity":33,"Duration":120967,"SoundDuration":120967,"Delta":351307494},{"NoteNumber":62,"Velocity":27,"Duration":60483,"SoundDuration":60483,"Delta":351367978},{"NoteNumber":59,"Velocity":33,"Duration":60647,"SoundDuration":60647,"Delta":351428462},{"NoteNumber":49,"Velocity":29,"Duration":121623,"SoundDuration":121623,"Delta":351428462},{"NoteNumber":62,"Velocity":26,"Duration":60975,"SoundDuration":60975,"Delta":351489110},{"NoteNumber":59,"Velocity":33,"Duration":60975,"SoundDuration":60975,"Delta":351550085},{"NoteNumber":48,"Velocity":33,"Duration":121951,"SoundDuration":121951,"Delta":351550085},{"NoteNumber":62,"Velocity":28,"Duration":60975,"SoundDuration":60975,"Delta":351611061},{"NoteNumber":59,"Velocity":33,"Duration":60975,"SoundDuration":60975,"Delta":351672037},{"NoteNumber":49,"Velocity":28,"Duration":121951,"SoundDuration":121951,"Delta":351672037},{"NoteNumber":62,"Velocity":27,"Duration":60975,"SoundDuration":60975,"Delta":351733012},{"NoteNumber":59,"Velocity":31,"Duration":60975,"SoundDuration":60975,"Delta":351793988},{"NoteNumber":44,"Velocity":29,"Duration":122284,"SoundDuration":122284,"Delta":351793988},{"NoteNumber":62,"Velocity":26,"Duration":61308,"SoundDuration":61308,"Delta":351854964},{"NoteNumber":59,"Velocity":31,"Duration":62572,"SoundDuration":62572,"Delta":351916272},{"NoteNumber":49,"Velocity":26,"Duration":126715,"SoundDuration":126715,"Delta":351916272},{"NoteNumber":62,"Velocity":25,"Duration":64142,"SoundDuration":64142,"Delta":351978845},{"NoteNumber":59,"Velocity":30,"Duration":65870,"SoundDuration":65870,"Delta":352042988},{"NoteNumber":41,"Velocity":27,"Duration":133482,"SoundDuration":133482,"Delta":352042988},{"NoteNumber":62,"Velocity":26,"Duration":67612,"SoundDuration":67612,"Delta":352108858},{"NoteNumber":59,"Velocity":30,"Duration":69534,"SoundDuration":69534,"Delta":352176470},{"NoteNumber":49,"Velocity":23,"Duration":141762,"SoundDuration":141762,"Delta":352176470},{"NoteNumber":62,"Velocity":26,"Duration":72227,"SoundDuration":72227,"Delta":352246005},{"NoteNumber":59,"Velocity":30,"Duration":77415,"SoundDuration":77415,"Delta":352318233},{"NoteNumber":37,"Velocity":25,"Duration":160902,"SoundDuration":160902,"Delta":352318233},{"NoteNumber":62,"Velocity":24,"Duration":83487,"SoundDuration":83487,"Delta":352395648},{"NoteNumber":59,"Velocity":29,"Duration":91084,"SoundDuration":91084,"Delta":352479135},{"NoteNumber":49,"Velocity":20,"Duration":189802,"SoundDuration":189802,"Delta":352479135},{"NoteNumber":62,"Velocity":25,"Duration":98717,"SoundDuration":98717,"Delta":352570219},{"NoteNumber":68,"Velocity":33,"Duration":1967214,"SoundDuration":1967214,"Delta":352668937},{"NoteNumber":80,"Velocity":49,"Duration":1967214,"SoundDuration":1967214,"Delta":352668937},{"NoteNumber":47,"Velocity":39,"Duration":122950,"SoundDuration":122950,"Delta":352668937},{"NoteNumber":50,"Velocity":32,"Duration":122950,"SoundDuration":122950,"Delta":352791888},{"NoteNumber":44,"Velocity":36,"Duration":122950,"SoundDuration":122950,"Delta":352914839},{"NoteNumber":50,"Velocity":30,"Duration":122950,"SoundDuration":122950,"Delta":353037790},{"NoteNumber":42,"Velocity":34,"Duration":122950,"SoundDuration":122950,"Delta":353160741},{"NoteNumber":50,"Velocity":27,"Duration":122950,"SoundDuration":122950,"Delta":353283692},{"NoteNumber":41,"Velocity":32,"Duration":122950,"SoundDuration":122950,"Delta":353406643},{"NoteNumber":50,"Velocity":26,"Duration":122950,"SoundDuration":122950,"Delta":353529593},{"NoteNumber":47,"Velocity":39,"Duration":122950,"SoundDuration":122950,"Delta":353652544},{"NoteNumber":50,"Velocity":33,"Duration":122950,"SoundDuration":122950,"Delta":353775495},{"NoteNumber":44,"Velocity":36,"Duration":122950,"SoundDuration":122950,"Delta":353898446},{"NoteNumber":50,"Velocity":30,"Duration":122950,"SoundDuration":122950,"Delta":354021397},{"NoteNumber":42,"Velocity":34,"Duration":122950,"SoundDuration":122950,"Delta":354144348},{"NoteNumber":50,"Velocity":28,"Duration":122950,"SoundDuration":122950,"Delta":354267299},{"NoteNumber":41,"Velocity":32,"Duration":122950,"SoundDuration":122950,"Delta":354390250},{"NoteNumber":50,"Velocity":26,"Duration":122950,"SoundDuration":122950,"Delta":354513200},{"NoteNumber":68,"Velocity":31,"Duration":937105,"SoundDuration":937105,"Delta":354636151},{"NoteNumber":80,"Velocity":44,"Duration":937105,"SoundDuration":937105,"Delta":354636151},{"NoteNumber":47,"Velocity":33,"Duration":118371,"SoundDuration":118371,"Delta":354636151},{"NoteNumber":50,"Velocity":28,"Duration":118371,"SoundDuration":118371,"Delta":354754523},{"NoteNumber":44,"Velocity":32,"Duration":118371,"SoundDuration":118371,"Delta":354872894},{"NoteNumber":50,"Velocity":27,"Duration":118371,"SoundDuration":118371,"Delta":354991265},{"NoteNumber":42,"Velocity":31,"Duration":118371,"SoundDuration":118371,"Delta":355109636},{"NoteNumber":50,"Velocity":26,"Duration":118371,"SoundDuration":118371,"Delta":355228008},{"NoteNumber":41,"Velocity":31,"Duration":118371,"SoundDuration":118371,"Delta":355346379},{"NoteNumber":50,"Velocity":26,"Duration":118371,"SoundDuration":118371,"Delta":355464750},{"NoteNumber":68,"Velocity":33,"Duration":1077742,"SoundDuration":1077742,"Delta":355583121},{"NoteNumber":80,"Velocity":44,"Duration":1077742,"SoundDuration":1077742,"Delta":355583121},{"NoteNumber":47,"Velocity":30,"Duration":122388,"SoundDuration":122388,"Delta":355583121},{"NoteNumber":50,"Velocity":26,"Duration":122388,"SoundDuration":122388,"Delta":355705510},{"NoteNumber":44,"Velocity":30,"Duration":122243,"SoundDuration":122243,"Delta":355827899},{"NoteNumber":50,"Velocity":26,"Duration":123295,"SoundDuration":123295,"Delta":355950142},{"NoteNumber":42,"Velocity":30,"Duration":128223,"SoundDuration":128223,"Delta":356073438},{"NoteNumber":50,"Velocity":25,"Duration":133992,"SoundDuration":133992,"Delta":356201662},{"NoteNumber":40,"Velocity":31,"Duration":156806,"SoundDuration":156806,"Delta":356335654},{"NoteNumber":49,"Velocity":26,"Duration":168403,"SoundDuration":168403,"Delta":356492461},{"NoteNumber":68,"Velocity":39,"Duration":1695026,"SoundDuration":1695026,"Delta":356660864},{"NoteNumber":80,"Velocity":50,"Duration":1695026,"SoundDuration":1695026,"Delta":356660864},{"NoteNumber":39,"Velocity":32,"Duration":126406,"SoundDuration":126406,"Delta":356660864},{"NoteNumber":48,"Velocity":28,"Duration":124655,"SoundDuration":124655,"Delta":356787271},{"NoteNumber":42,"Velocity":32,"Duration":123289,"SoundDuration":123289,"Delta":356911926},{"NoteNumber":48,"Velocity":27,"Duration":121295,"SoundDuration":121295,"Delta":357035216},{"NoteNumber":44,"Velocity":33,"Duration":120967,"SoundDuration":120967,"Delta":357156512},{"NoteNumber":48,"Velocity":26,"Duration":120967,"SoundDuration":120967,"Delta":357277479},{"NoteNumber":36,"Velocity":31,"Duration":120967,"SoundDuration":120967,"Delta":357398447},{"NoteNumber":48,"Velocity":26,"Duration":120967,"SoundDuration":120967,"Delta":357519415},{"NoteNumber":39,"Velocity":30,"Duration":119350,"SoundDuration":119350,"Delta":357640383},{"NoteNumber":48,"Velocity":26,"Duration":119350,"SoundDuration":119350,"Delta":357759733},{"NoteNumber":42,"Velocity":30,"Duration":119350,"SoundDuration":119350,"Delta":357879084},{"NoteNumber":48,"Velocity":26,"Duration":119350,"SoundDuration":119350,"Delta":357998435},{"NoteNumber":44,"Velocity":35,"Duration":118422,"SoundDuration":118422,"Delta":358117786},{"NoteNumber":48,"Velocity":25,"Duration":119682,"SoundDuration":119682,"Delta":358236208},{"NoteNumber":69,"Velocity":40,"Duration":243913,"SoundDuration":243913,"Delta":358355891},{"NoteNumber":81,"Velocity":45,"Duration":243913,"SoundDuration":243913,"Delta":358355891},{"NoteNumber":36,"Velocity":31,"Duration":121295,"SoundDuration":121295,"Delta":358355891},{"NoteNumber":48,"Velocity":26,"Duration":122617,"SoundDuration":122617,"Delta":358477186},{"NoteNumber":80,"Velocity":45,"Duration":2048177,"SoundDuration":2048177,"Delta":358599804},{"NoteNumber":68,"Velocity":40,"Duration":2048177,"SoundDuration":2048177,"Delta":358599804},{"NoteNumber":39,"Velocity":30,"Duration":123966,"SoundDuration":123966,"Delta":358599804},{"NoteNumber":48,"Velocity":26,"Duration":123966,"SoundDuration":123966,"Delta":358723771},{"NoteNumber":42,"Velocity":30,"Duration":123966,"SoundDuration":123966,"Delta":358847738},{"NoteNumber":48,"Velocity":26,"Duration":123966,"SoundDuration":123966,"Delta":358971705},{"NoteNumber":44,"Velocity":34,"Duration":123967,"SoundDuration":123967,"Delta":359095672},{"NoteNumber":48,"Velocity":25,"Duration":123966,"SoundDuration":123966,"Delta":359219639},{"NoteNumber":36,"Velocity":31,"Duration":123966,"SoundDuration":123966,"Delta":359343606},{"NoteNumber":48,"Velocity":26,"Duration":125000,"SoundDuration":125000,"Delta":359467573},{"NoteNumber":39,"Velocity":30,"Duration":125586,"SoundDuration":125586,"Delta":359592573},{"NoteNumber":48,"Velocity":26,"Duration":125586,"SoundDuration":125586,"Delta":359718159},{"NoteNumber":42,"Velocity":30,"Duration":125586,"SoundDuration":125586,"Delta":359843745},{"NoteNumber":48,"Velocity":26,"Duration":125586,"SoundDuration":125586,"Delta":359969331},{"NoteNumber":44,"Velocity":33,"Duration":124851,"SoundDuration":124851,"Delta":360094918},{"NoteNumber":48,"Velocity":25,"Duration":128954,"SoundDuration":128954,"Delta":360219769},{"NoteNumber":36,"Velocity":31,"Duration":135164,"SoundDuration":135164,"Delta":360348723},{"NoteNumber":48,"Velocity":26,"Duration":164093,"SoundDuration":164093,"Delta":360483888},{"NoteNumber":65,"Velocity":33,"Duration":1974984,"SoundDuration":1974984,"Delta":360647981},{"NoteNumber":77,"Velocity":44,"Duration":1974984,"SoundDuration":1974984,"Delta":360647981},{"NoteNumber":37,"Velocity":30,"Duration":123436,"SoundDuration":123436,"Delta":360647981},{"NoteNumber":49,"Velocity":26,"Duration":123436,"SoundDuration":123436,"Delta":360771418},{"NoteNumber":41,"Velocity":31,"Duration":123436,"SoundDuration":123436,"Delta":360894854},{"NoteNumber":49,"Velocity":29,"Duration":123436,"SoundDuration":123436,"Delta":361018291},{"NoteNumber":44,"Velocity":34,"Duration":123436,"SoundDuration":123436,"Delta":361141727},{"NoteNumber":49,"Velocity":29,"Duration":123436,"SoundDuration":123436,"Delta":361265164},{"NoteNumber":48,"Velocity":37,"Duration":123436,"SoundDuration":123436,"Delta":361388600},{"NoteNumber":49,"Velocity":32,"Duration":123436,"SoundDuration":123436,"Delta":361512037},{"NoteNumber":37,"Velocity":30,"Duration":123436,"SoundDuration":123436,"Delta":361635473},{"NoteNumber":49,"Velocity":26,"Duration":123436,"SoundDuration":123436,"Delta":361758910},{"NoteNumber":41,"Velocity":31,"Duration":123436,"SoundDuration":123436,"Delta":361882346},{"NoteNumber":49,"Velocity":28,"Duration":123436,"SoundDuration":123436,"Delta":362005783},{"NoteNumber":44,"Velocity":34,"Duration":123436,"SoundDuration":123436,"Delta":362129219},{"NoteNumber":49,"Velocity":29,"Duration":123436,"SoundDuration":123436,"Delta":362252656},{"NoteNumber":48,"Velocity":37,"Duration":123436,"SoundDuration":123436,"Delta":362376092},{"NoteNumber":49,"Velocity":33,"Duration":123436,"SoundDuration":123436,"Delta":362499529},{"NoteNumber":68,"Velocity":31,"Duration":473484,"SoundDuration":473484,"Delta":362622965},{"NoteNumber":80,"Velocity":44,"Duration":473484,"SoundDuration":473484,"Delta":362622965},{"NoteNumber":46,"Velocity":30,"Duration":118371,"SoundDuration":118371,"Delta":362622965},{"NoteNumber":58,"Velocity":26,"Duration":118371,"SoundDuration":118371,"Delta":362741337},{"NoteNumber":49,"Velocity":30,"Duration":118371,"SoundDuration":118371,"Delta":362859708},{"NoteNumber":58,"Velocity":26,"Duration":118371,"SoundDuration":118371,"Delta":362978079},{"NoteNumber":66,"Velocity":31,"Duration":473485,"SoundDuration":473485,"Delta":363096450},{"NoteNumber":78,"Velocity":44,"Duration":473485,"SoundDuration":473485,"Delta":363096450},{"NoteNumber":54,"Velocity":31,"Duration":118371,"SoundDuration":118371,"Delta":363096450},{"NoteNumber":58,"Velocity":26,"Duration":118371,"SoundDuration":118371,"Delta":363214822},{"NoteNumber":57,"Velocity":33,"Duration":118371,"SoundDuration":118371,"Delta":363333193},{"NoteNumber":58,"Velocity":28,"Duration":118371,"SoundDuration":118371,"Delta":363451564},{"NoteNumber":65,"Velocity":33,"Duration":489555,"SoundDuration":489555,"Delta":363569935},{"NoteNumber":77,"Velocity":44,"Duration":489555,"SoundDuration":489555,"Delta":363569935},{"NoteNumber":46,"Velocity":32,"Duration":122388,"SoundDuration":122388,"Delta":363569935},{"NoteNumber":58,"Velocity":26,"Duration":122388,"SoundDuration":122388,"Delta":363692324},{"NoteNumber":49,"Velocity":30,"Duration":122388,"SoundDuration":122388,"Delta":363814713},{"NoteNumber":58,"Velocity":27,"Duration":122388,"SoundDuration":122388,"Delta":363937102},{"NoteNumber":66,"Velocity":31,"Duration":550657,"SoundDuration":550657,"Delta":364059491},{"NoteNumber":78,"Velocity":44,"Duration":550657,"SoundDuration":550657,"Delta":364059491},{"NoteNumber":54,"Velocity":31,"Duration":122388,"SoundDuration":122388,"Delta":364059491},{"NoteNumber":58,"Velocity":26,"Duration":127124,"SoundDuration":127124,"Delta":364181880},{"NoteNumber":57,"Velocity":33,"Duration":131980,"SoundDuration":131980,"Delta":364309005},{"NoteNumber":58,"Velocity":28,"Duration":169163,"SoundDuration":169163,"Delta":364440986},{"NoteNumber":68,"Velocity":39,"Duration":1942297,"SoundDuration":1942297,"Delta":364610149},{"NoteNumber":80,"Velocity":50,"Duration":1942297,"SoundDuration":1942297,"Delta":364610149},{"NoteNumber":44,"Velocity":30,"Duration":123436,"SoundDuration":123436,"Delta":364610149},{"NoteNumber":56,"Velocity":26,"Duration":123436,"SoundDuration":123436,"Delta":364733585},{"NoteNumber":49,"Velocity":31,"Duration":123436,"SoundDuration":123436,"Delta":364857022},{"NoteNumber":56,"Velocity":27,"Duration":123436,"SoundDuration":123436,"Delta":364980458},{"NoteNumber":53,"Velocity":32,"Duration":123436,"SoundDuration":123436,"Delta":365103895},{"NoteNumber":56,"Velocity":27,"Duration":123436,"SoundDuration":123436,"Delta":365227331},{"NoteNumber":55,"Velocity":34,"Duration":123436,"SoundDuration":123436,"Delta":365350768},{"NoteNumber":56,"Velocity":29,"Duration":123436,"SoundDuration":123436,"Delta":365474204},{"NoteNumber":44,"Velocity":30,"Duration":119350,"SoundDuration":119350,"Delta":365597641},{"NoteNumber":56,"Velocity":26,"Duration":119350,"SoundDuration":119350,"Delta":365716992},{"NoteNumber":49,"Velocity":31,"Duration":119350,"SoundDuration":119350,"Delta":365836342},{"NoteNumber":56,"Velocity":27,"Duration":119350,"SoundDuration":119350,"Delta":365955693},{"NoteNumber":53,"Velocity":32,"Duration":119350,"SoundDuration":119350,"Delta":366075044},{"NoteNumber":56,"Velocity":27,"Duration":119350,"SoundDuration":119350,"Delta":366194395},{"NoteNumber":55,"Velocity":34,"Duration":119350,"SoundDuration":119350,"Delta":366313745},{"NoteNumber":56,"Velocity":29,"Duration":119350,"SoundDuration":119350,"Delta":366433096},{"NoteNumber":85,"Velocity":53,"Duration":493745,"SoundDuration":493745,"Delta":366552447},{"NoteNumber":73,"Velocity":40,"Duration":493745,"SoundDuration":493745,"Delta":366552447},{"NoteNumber":44,"Velocity":30,"Duration":123436,"SoundDuration":123436,"Delta":366552447},{"NoteNumber":56,"Velocity":26,"Duration":123436,"SoundDuration":123436,"Delta":366675883},{"NoteNumber":51,"Velocity":30,"Duration":123436,"SoundDuration":123436,"Delta":366799320},{"NoteNumber":56,"Velocity":27,"Duration":123436,"SoundDuration":123436,"Delta":366922756},{"NoteNumber":72,"Velocity":38,"Duration":493745,"SoundDuration":493745,"Delta":367046193},{"NoteNumber":84,"Velocity":49,"Duration":493745,"SoundDuration":493745,"Delta":367046193},{"NoteNumber":54,"Velocity":31,"Duration":123436,"SoundDuration":123436,"Delta":367046193},{"NoteNumber":56,"Velocity":26,"Duration":123436,"SoundDuration":123436,"Delta":367169629},{"NoteNumber":55,"Velocity":33,"Duration":123436,"SoundDuration":123436,"Delta":367293066},{"NoteNumber":56,"Velocity":28,"Duration":123436,"SoundDuration":123436,"Delta":367416502},{"NoteNumber":75,"Velocity":41,"Duration":498008,"SoundDuration":498008,"Delta":367539939},{"NoteNumber":87,"Velocity":55,"Duration":498008,"SoundDuration":498008,"Delta":367539939},{"NoteNumber":44,"Velocity":30,"Duration":124502,"SoundDuration":124502,"Delta":367539939},{"NoteNumber":56,"Velocity":26,"Duration":124502,"SoundDuration":124502,"Delta":367664441},{"NoteNumber":51,"Velocity":30,"Duration":124502,"SoundDuration":124502,"Delta":367788943},{"NoteNumber":56,"Velocity":27,"Duration":124502,"SoundDuration":124502,"Delta":367913445},{"NoteNumber":89,"Velocity":50,"Duration":528324,"SoundDuration":528324,"Delta":368037947},{"NoteNumber":77,"Velocity":39,"Duration":528324,"SoundDuration":528324,"Delta":368037947},{"NoteNumber":54,"Velocity":31,"Duration":124501,"SoundDuration":124501,"Delta":368037947},{"NoteNumber":56,"Velocity":26,"Duration":124502,"SoundDuration":124502,"Delta":368162449},{"NoteNumber":55,"Velocity":33,"Duration":148514,"SoundDuration":148514,"Delta":368286951},{"NoteNumber":56,"Velocity":28,"Duration":130805,"SoundDuration":130805,"Delta":368435466},{"NoteNumber":85,"Velocity":50,"Duration":1908923,"SoundDuration":1908923,"Delta":368566272},{"NoteNumber":73,"Velocity":47,"Duration":1908923,"SoundDuration":1908923,"Delta":368566272},{"NoteNumber":48,"Velocity":37,"Duration":121951,"SoundDuration":121951,"Delta":368566272},{"NoteNumber":49,"Velocity":32,"Duration":121951,"SoundDuration":121951,"Delta":368688223},{"NoteNumber":44,"Velocity":35,"Duration":120967,"SoundDuration":120967,"Delta":368810174},{"NoteNumber":49,"Velocity":30,"Duration":120967,"SoundDuration":120967,"Delta":368931142},{"NoteNumber":41,"Velocity":33,"Duration":120645,"SoundDuration":120645,"Delta":369052110},{"NoteNumber":49,"Velocity":29,"Duration":120000,"SoundDuration":120000,"Delta":369172755},{"NoteNumber":37,"Velocity":30,"Duration":119999,"SoundDuration":119999,"Delta":369292755},{"NoteNumber":49,"Velocity":26,"Duration":119365,"SoundDuration":119365,"Delta":369412755},{"NoteNumber":48,"Velocity":36,"Duration":119047,"SoundDuration":119047,"Delta":369532120},{"NoteNumber":49,"Velocity":32,"Duration":119047,"SoundDuration":119047,"Delta":369651167},{"NoteNumber":44,"Velocity":35,"Duration":118110,"SoundDuration":118110,"Delta":369770215},{"NoteNumber":49,"Velocity":30,"Duration":118110,"SoundDuration":118110,"Delta":369888325},{"NoteNumber":41,"Velocity":33,"Duration":117802,"SoundDuration":117802,"Delta":370006436},{"NoteNumber":49,"Velocity":29,"Duration":117187,"SoundDuration":117187,"Delta":370124238},{"NoteNumber":37,"Velocity":30,"Duration":117187,"SoundDuration":117187,"Delta":370241426},{"NoteNumber":49,"Velocity":26,"Duration":116581,"SoundDuration":116581,"Delta":370358613},{"NoteNumber":48,"Velocity":31,"Duration":116279,"SoundDuration":116279,"Delta":370475195},{"NoteNumber":49,"Velocity":28,"Duration":116279,"SoundDuration":116279,"Delta":370591474},{"NoteNumber":44,"Velocity":31,"Duration":116279,"SoundDuration":116279,"Delta":370707753},{"NoteNumber":49,"Velocity":27,"Duration":116279,"SoundDuration":116279,"Delta":370824033},{"NoteNumber":41,"Velocity":30,"Duration":116279,"SoundDuration":116279,"Delta":370940312},{"NoteNumber":49,"Velocity":27,"Duration":116279,"SoundDuration":116279,"Delta":371056591},{"NoteNumber":37,"Velocity":29,"Duration":116279,"SoundDuration":116279,"Delta":371172870},{"NoteNumber":49,"Velocity":26,"Duration":116279,"SoundDuration":116279,"Delta":371289149},{"NoteNumber":48,"Velocity":31,"Duration":116279,"SoundDuration":116279,"Delta":371405428},{"NoteNumber":49,"Velocity":28,"Duration":116279,"SoundDuration":116279,"Delta":371521707},{"NoteNumber":44,"Velocity":31,"Duration":116581,"SoundDuration":116581,"Delta":371637986},{"NoteNumber":49,"Velocity":27,"Duration":117802,"SoundDuration":117802,"Delta":371754568},{"NoteNumber":41,"Velocity":30,"Duration":120650,"SoundDuration":120650,"Delta":371872371},{"NoteNumber":49,"Velocity":27,"Duration":123295,"SoundDuration":123295,"Delta":371993021},{"NoteNumber":37,"Velocity":29,"Duration":130200,"SoundDuration":130200,"Delta":372116317},{"NoteNumber":49,"Velocity":26,"Duration":144464,"SoundDuration":144464,"Delta":372246517},{"NoteNumber":59,"Velocity":26,"Duration":72815,"SoundDuration":72815,"Delta":372390981},{"NoteNumber":48,"Velocity":29,"Duration":144257,"SoundDuration":144257,"Delta":372390981},{"NoteNumber":62,"Velocity":22,"Duration":71441,"SoundDuration":71441,"Delta":372463797},{"NoteNumber":59,"Velocity":26,"Duration":70105,"SoundDuration":70105,"Delta":372535238},{"NoteNumber":49,"Velocity":28,"Duration":138912,"SoundDuration":138912,"Delta":372535238},{"NoteNumber":62,"Velocity":22,"Duration":68807,"SoundDuration":68807,"Delta":372605344},{"NoteNumber":59,"Velocity":27,"Duration":67567,"SoundDuration":67567,"Delta":372674151},{"NoteNumber":44,"Velocity":31,"Duration":133949,"SoundDuration":133949,"Delta":372674151},{"NoteNumber":62,"Velocity":22,"Duration":66382,"SoundDuration":66382,"Delta":372741719},{"NoteNumber":59,"Velocity":27,"Duration":65046,"SoundDuration":65046,"Delta":372808101},{"NoteNumber":49,"Velocity":27,"Duration":128605,"SoundDuration":128605,"Delta":372808101},{"NoteNumber":62,"Velocity":20,"Duration":63559,"SoundDuration":63559,"Delta":372873147},{"NoteNumber":59,"Velocity":27,"Duration":63559,"SoundDuration":63559,"Delta":372936707},{"NoteNumber":41,"Velocity":30,"Duration":127118,"SoundDuration":127118,"Delta":372936707},{"NoteNumber":62,"Velocity":23,"Duration":63559,"SoundDuration":63559,"Delta":373000266},{"NoteNumber":59,"Velocity":28,"Duration":63381,"SoundDuration":63381,"Delta":373063825},{"NoteNumber":49,"Velocity":27,"Duration":126406,"SoundDuration":126406,"Delta":373063825},{"NoteNumber":62,"Velocity":24,"Duration":63025,"SoundDuration":63025,"Delta":373127206},{"NoteNumber":59,"Velocity":28,"Duration":63025,"SoundDuration":63025,"Delta":373190232},{"NoteNumber":37,"Velocity":29,"Duration":126050,"SoundDuration":126050,"Delta":373190232},{"NoteNumber":62,"Velocity":23,"Duration":63025,"SoundDuration":63025,"Delta":373253257},{"NoteNumber":59,"Velocity":29,"Duration":62850,"SoundDuration":62850,"Delta":373316282},{"NoteNumber":49,"Velocity":26,"Duration":125350,"SoundDuration":125350,"Delta":373316282},{"NoteNumber":62,"Velocity":23,"Duration":62500,"SoundDuration":62500,"Delta":373379132},{"NoteNumber":59,"Velocity":29,"Duration":62500,"SoundDuration":62500,"Delta":373441632},{"NoteNumber":48,"Velocity":31,"Duration":125000,"SoundDuration":125000,"Delta":373441632},{"NoteNumber":62,"Velocity":25,"Duration":62500,"SoundDuration":62500,"Delta":373504132},{"NoteNumber":59,"Velocity":29,"Duration":62327,"SoundDuration":62327,"Delta":373566632},{"NoteNumber":49,"Velocity":28,"Duration":124311,"SoundDuration":124311,"Delta":373566632},{"NoteNumber":62,"Velocity":25,"Duration":61983,"SoundDuration":61983,"Delta":373628960},{"NoteNumber":59,"Velocity":29,"Duration":61983,"SoundDuration":61983,"Delta":373690943},{"NoteNumber":44,"Velocity":31,"Duration":123966,"SoundDuration":123966,"Delta":373690943},{"NoteNumber":62,"Velocity":25,"Duration":61983,"SoundDuration":61983,"Delta":373752927},{"NoteNumber":59,"Velocity":29,"Duration":61814,"SoundDuration":61814,"Delta":373814910},{"NoteNumber":49,"Velocity":27,"Duration":123289,"SoundDuration":123289,"Delta":373814910},{"NoteNumber":62,"Velocity":24,"Duration":61475,"SoundDuration":61475,"Delta":373876725},{"NoteNumber":59,"Velocity":30,"Duration":61475,"SoundDuration":61475,"Delta":373938200},{"NoteNumber":41,"Velocity":30,"Duration":122950,"SoundDuration":122950,"Delta":373938200},{"NoteNumber":62,"Velocity":26,"Duration":61475,"SoundDuration":61475,"Delta":373999675},{"NoteNumber":59,"Velocity":30,"Duration":61308,"SoundDuration":61308,"Delta":374061151},{"NoteNumber":49,"Velocity":27,"Duration":122284,"SoundDuration":122284,"Delta":374061151},{"NoteNumber":62,"Velocity":27,"Duration":60975,"SoundDuration":60975,"Delta":374122460},{"NoteNumber":59,"Velocity":31,"Duration":60975,"SoundDuration":60975,"Delta":374183435},{"NoteNumber":37,"Velocity":29,"Duration":121951,"SoundDuration":121951,"Delta":374183435},{"NoteNumber":62,"Velocity":26,"Duration":60975,"SoundDuration":60975,"Delta":374244411},{"NoteNumber":59,"Velocity":31,"Duration":60811,"SoundDuration":60811,"Delta":374305387},{"NoteNumber":49,"Velocity":26,"Duration":121295,"SoundDuration":121295,"Delta":374305387},{"NoteNumber":62,"Velocity":25,"Duration":60483,"SoundDuration":60483,"Delta":374366198},{"NoteNumber":59,"Velocity":33,"Duration":60483,"SoundDuration":60483,"Delta":374426682},{"NoteNumber":48,"Velocity":29,"Duration":120645,"SoundDuration":120645,"Delta":374426682},{"NoteNumber":62,"Velocity":27,"Duration":60161,"SoundDuration":60161,"Delta":374487166},{"NoteNumber":59,"Velocity":31,"Duration":60000,"SoundDuration":60000,"Delta":374547327},{"NoteNumber":49,"Velocity":26,"Duration":120000,"SoundDuration":120000,"Delta":374547327},{"NoteNumber":62,"Velocity":27,"Duration":60000,"SoundDuration":60000,"Delta":374607327},{"NoteNumber":59,"Velocity":31,"Duration":60000,"SoundDuration":60000,"Delta":374667327},{"NoteNumber":44,"Velocity":29,"Duration":119999,"SoundDuration":119999,"Delta":374667327},{"NoteNumber":62,"Velocity":26,"Duration":59999,"SoundDuration":59999,"Delta":374727327},{"NoteNumber":59,"Velocity":30,"Duration":60000,"SoundDuration":60000,"Delta":374787327},{"NoteNumber":49,"Velocity":26,"Duration":120000,"SoundDuration":120000,"Delta":374787327},{"NoteNumber":62,"Velocity":24,"Duration":60000,"SoundDuration":60000,"Delta":374847327},{"NoteNumber":59,"Velocity":30,"Duration":60483,"SoundDuration":60483,"Delta":374907327},{"NoteNumber":41,"Velocity":29,"Duration":120967,"SoundDuration":120967,"Delta":374907327},{"NoteNumber":62,"Velocity":26,"Duration":60483,"SoundDuration":60483,"Delta":374967811},{"NoteNumber":59,"Velocity":29,"Duration":60483,"SoundDuration":60483,"Delta":375028295},{"NoteNumber":49,"Velocity":26,"Duration":120967,"SoundDuration":120967,"Delta":375028295},{"NoteNumber":62,"Velocity":25,"Duration":60483,"SoundDuration":60483,"Delta":375088779},{"NoteNumber":59,"Velocity":29,"Duration":60483,"SoundDuration":60483,"Delta":375149263},{"NoteNumber":37,"Velocity":29,"Duration":120967,"SoundDuration":120967,"Delta":375149263},{"NoteNumber":62,"Velocity":24,"Duration":60483,"SoundDuration":60483,"Delta":375209747},{"NoteNumber":59,"Velocity":29,"Duration":60647,"SoundDuration":60647,"Delta":375270231},{"NoteNumber":49,"Velocity":26,"Duration":121623,"SoundDuration":121623,"Delta":375270231},{"NoteNumber":62,"Velocity":23,"Duration":60975,"SoundDuration":60975,"Delta":375330878},{"NoteNumber":59,"Velocity":29,"Duration":60975,"SoundDuration":60975,"Delta":375391854},{"NoteNumber":48,"Velocity":29,"Duration":121951,"SoundDuration":121951,"Delta":375391854},{"NoteNumber":62,"Velocity":25,"Duration":60975,"SoundDuration":60975,"Delta":375452830},{"NoteNumber":59,"Velocity":29,"Duration":60975,"SoundDuration":60975,"Delta":375513805},{"NoteNumber":49,"Velocity":25,"Duration":121951,"SoundDuration":121951,"Delta":375513805},{"NoteNumber":62,"Velocity":24,"Duration":60975,"SoundDuration":60975,"Delta":375574781},{"NoteNumber":59,"Velocity":28,"Duration":61376,"SoundDuration":61376,"Delta":375635757},{"NoteNumber":44,"Velocity":26,"Duration":123913,"SoundDuration":123913,"Delta":375635757},{"NoteNumber":62,"Velocity":23,"Duration":62537,"SoundDuration":62537,"Delta":375697133},{"NoteNumber":59,"Velocity":28,"Duration":63777,"SoundDuration":63777,"Delta":375759670},{"NoteNumber":49,"Velocity":23,"Duration":129036,"SoundDuration":129036,"Delta":375759670},{"NoteNumber":62,"Velocity":22,"Duration":65258,"SoundDuration":65258,"Delta":375823448},{"NoteNumber":59,"Velocity":27,"Duration":66609,"SoundDuration":66609,"Delta":375888707},{"NoteNumber":41,"Velocity":24,"Duration":134836,"SoundDuration":134836,"Delta":375888707},{"NoteNumber":62,"Velocity":23,"Duration":68227,"SoundDuration":68227,"Delta":375955316},{"NoteNumber":59,"Velocity":27,"Duration":71001,"SoundDuration":71001,"Delta":376023543},{"NoteNumber":49,"Velocity":19,"Duration":146883,"SoundDuration":146883,"Delta":376023543},{"NoteNumber":62,"Velocity":23,"Duration":75882,"SoundDuration":75882,"Delta":376094545},{"NoteNumber":59,"Velocity":27,"Duration":81854,"SoundDuration":81854,"Delta":376170427},{"NoteNumber":37,"Velocity":22,"Duration":171899,"SoundDuration":171899,"Delta":376170427},{"NoteNumber":62,"Velocity":20,"Duration":90045,"SoundDuration":90045,"Delta":376252282},{"NoteNumber":59,"Velocity":26,"Duration":61475,"SoundDuration":61475,"Delta":376342327},{"NoteNumber":49,"Velocity":18,"Duration":122950,"SoundDuration":122950,"Delta":376342327},{"NoteNumber":62,"Velocity":22,"Duration":61475,"SoundDuration":61475,"Delta":376403802},{"NoteNumber":71,"Velocity":33,"Duration":1932702,"SoundDuration":1932702,"Delta":376465278},{"NoteNumber":83,"Velocity":49,"Duration":1932702,"SoundDuration":1932702,"Delta":376465278},{"NoteNumber":47,"Velocity":39,"Duration":122950,"SoundDuration":122950,"Delta":376465278},{"NoteNumber":50,"Velocity":32,"Duration":122617,"SoundDuration":122617,"Delta":376588229},{"NoteNumber":44,"Velocity":36,"Duration":121951,"SoundDuration":121951,"Delta":376710846},{"NoteNumber":50,"Velocity":30,"Duration":121951,"SoundDuration":121951,"Delta":376832798},{"NoteNumber":42,"Velocity":33,"Duration":121295,"SoundDuration":121295,"Delta":376954749},{"NoteNumber":50,"Velocity":27,"Duration":120967,"SoundDuration":120967,"Delta":377076044},{"NoteNumber":41,"Velocity":32,"Duration":120967,"SoundDuration":120967,"Delta":377197012},{"NoteNumber":50,"Velocity":26,"Duration":120000,"SoundDuration":120000,"Delta":377317980},{"NoteNumber":47,"Velocity":39,"Duration":120000,"SoundDuration":120000,"Delta":377437980},{"NoteNumber":50,"Velocity":32,"Duration":120000,"SoundDuration":120000,"Delta":377557980},{"NoteNumber":44,"Velocity":36,"Duration":120000,"SoundDuration":120000,"Delta":377677980},{"NoteNumber":50,"Velocity":30,"Duration":120000,"SoundDuration":120000,"Delta":377797980},{"NoteNumber":42,"Velocity":34,"Duration":120000,"SoundDuration":120000,"Delta":377917980},{"NoteNumber":50,"Velocity":28,"Duration":119999,"SoundDuration":119999,"Delta":378037980},{"NoteNumber":41,"Velocity":32,"Duration":120000,"SoundDuration":120000,"Delta":378157980},{"NoteNumber":50,"Velocity":26,"Duration":120000,"SoundDuration":120000,"Delta":378277980},{"NoteNumber":71,"Velocity":31,"Duration":937105,"SoundDuration":937105,"Delta":378397980},{"NoteNumber":83,"Velocity":44,"Duration":937105,"SoundDuration":937105,"Delta":378397980},{"NoteNumber":47,"Velocity":33,"Duration":118371,"SoundDuration":118371,"Delta":378397980},{"NoteNumber":50,"Velocity":28,"Duration":118371,"SoundDuration":118371,"Delta":378516351},{"NoteNumber":44,"Velocity":32,"Duration":118371,"SoundDuration":118371,"Delta":378634722},{"NoteNumber":50,"Velocity":27,"Duration":118371,"SoundDuration":118371,"Delta":378753094},{"NoteNumber":42,"Velocity":31,"Duration":118371,"SoundDuration":118371,"Delta":378871465},{"NoteNumber":50,"Velocity":26,"Duration":118371,"SoundDuration":118371,"Delta":378989836},{"NoteNumber":41,"Velocity":31,"Duration":118371,"SoundDuration":118371,"Delta":379108207},{"NoteNumber":50,"Velocity":26,"Duration":118371,"SoundDuration":118371,"Delta":379226579},{"NoteNumber":71,"Velocity":33,"Duration":1067149,"SoundDuration":1067149,"Delta":379344950},{"NoteNumber":83,"Velocity":44,"Duration":1067149,"SoundDuration":1067149,"Delta":379344950},{"NoteNumber":47,"Velocity":33,"Duration":122388,"SoundDuration":122388,"Delta":379344950},{"NoteNumber":50,"Velocity":28,"Duration":122388,"SoundDuration":122388,"Delta":379467339},{"NoteNumber":44,"Velocity":32,"Duration":122243,"SoundDuration":122243,"Delta":379589728},{"NoteNumber":50,"Velocity":27,"Duration":123295,"SoundDuration":123295,"Delta":379711971},{"NoteNumber":42,"Velocity":31,"Duration":128223,"SoundDuration":128223,"Delta":379835266},{"NoteNumber":50,"Velocity":26,"Duration":133992,"SoundDuration":133992,"Delta":379963490},{"NoteNumber":41,"Velocity":31,"Duration":156806,"SoundDuration":156806,"Delta":380097483},{"NoteNumber":50,"Velocity":26,"Duration":168403,"SoundDuration":168403,"Delta":380254290},{"NoteNumber":71,"Velocity":39,"Duration":1695026,"SoundDuration":1695026,"Delta":380422693},{"NoteNumber":83,"Velocity":50,"Duration":1695026,"SoundDuration":1695026,"Delta":380422693},{"NoteNumber":42,"Velocity":30,"Duration":126406,"SoundDuration":126406,"Delta":380422693},{"NoteNumber":51,"Velocity":26,"Duration":124655,"SoundDuration":124655,"Delta":380549099},{"NoteNumber":45,"Velocity":31,"Duration":123289,"SoundDuration":123289,"Delta":380673755},{"NoteNumber":51,"Velocity":26,"Duration":121295,"SoundDuration":121295,"Delta":380797045},{"NoteNumber":47,"Velocity":34,"Duration":120967,"SoundDuration":120967,"Delta":380918340},{"NoteNumber":51,"Velocity":25,"Duration":120967,"SoundDuration":120967,"Delta":381039308},{"NoteNumber":39,"Velocity":31,"Duration":120967,"SoundDuration":120967,"Delta":381160276},{"NoteNumber":51,"Velocity":26,"Duration":120967,"SoundDuration":120967,"Delta":381281243},{"NoteNumber":42,"Velocity":30,"Duration":119350,"SoundDuration":119350,"Delta":381402211},{"NoteNumber":51,"Velocity":26,"Duration":119350,"SoundDuration":119350,"Delta":381521562},{"NoteNumber":45,"Velocity":31,"Duration":119350,"SoundDuration":119350,"Delta":381640913},{"NoteNumber":51,"Velocity":26,"Duration":119350,"SoundDuration":119350,"Delta":381760263},{"NoteNumber":47,"Velocity":35,"Duration":118422,"SoundDuration":118422,"Delta":381879614},{"NoteNumber":51,"Velocity":25,"Duration":119682,"SoundDuration":119682,"Delta":381998037},{"NoteNumber":72,"Velocity":40,"Duration":243913,"SoundDuration":243913,"Delta":382117719},{"NoteNumber":84,"Velocity":45,"Duration":243913,"SoundDuration":243913,"Delta":382117719},{"NoteNumber":39,"Velocity":31,"Duration":121295,"SoundDuration":121295,"Delta":382117719},{"NoteNumber":51,"Velocity":26,"Duration":122617,"SoundDuration":122617,"Delta":382239015},{"NoteNumber":83,"Velocity":45,"Duration":2048177,"SoundDuration":2048177,"Delta":382361633},{"NoteNumber":71,"Velocity":40,"Duration":2048177,"SoundDuration":2048177,"Delta":382361633},{"NoteNumber":42,"Velocity":30,"Duration":123966,"SoundDuration":123966,"Delta":382361633},{"NoteNumber":51,"Velocity":26,"Duration":123966,"SoundDuration":123966,"Delta":382485600},{"NoteNumber":45,"Velocity":32,"Duration":123966,"SoundDuration":123966,"Delta":382609567},{"NoteNumber":51,"Velocity":26,"Duration":123966,"SoundDuration":123966,"Delta":382733534},{"NoteNumber":47,"Velocity":35,"Duration":123967,"SoundDuration":123967,"Delta":382857501},{"NoteNumber":51,"Velocity":25,"Duration":123966,"SoundDuration":123966,"Delta":382981468},{"NoteNumber":39,"Velocity":31,"Duration":123966,"SoundDuration":123966,"Delta":383105435},{"NoteNumber":51,"Velocity":26,"Duration":125000,"SoundDuration":125000,"Delta":383229402},{"NoteNumber":42,"Velocity":30,"Duration":125586,"SoundDuration":125586,"Delta":383354402},{"NoteNumber":51,"Velocity":26,"Duration":125586,"SoundDuration":125586,"Delta":383479988},{"NoteNumber":45,"Velocity":33,"Duration":125586,"SoundDuration":125586,"Delta":383605574},{"NoteNumber":51,"Velocity":26,"Duration":125586,"SoundDuration":125586,"Delta":383731160},{"NoteNumber":47,"Velocity":35,"Duration":124851,"SoundDuration":124851,"Delta":383856746},{"NoteNumber":51,"Velocity":25,"Duration":128954,"SoundDuration":128954,"Delta":383981597},{"NoteNumber":39,"Velocity":31,"Duration":135164,"SoundDuration":135164,"Delta":384110552},{"NoteNumber":51,"Velocity":26,"Duration":164093,"SoundDuration":164093,"Delta":384245716},{"NoteNumber":68,"Velocity":33,"Duration":1946346,"SoundDuration":1946346,"Delta":384409810},{"NoteNumber":80,"Velocity":44,"Duration":1946346,"SoundDuration":1946346,"Delta":384409810},{"NoteNumber":40,"Velocity":30,"Duration":123436,"SoundDuration":123436,"Delta":384409810},{"NoteNumber":52,"Velocity":26,"Duration":123436,"SoundDuration":123436,"Delta":384533246},{"NoteNumber":44,"Velocity":32,"Duration":123436,"SoundDuration":123436,"Delta":384656683},{"NoteNumber":52,"Velocity":30,"Duration":123436,"SoundDuration":123436,"Delta":384780119},{"NoteNumber":47,"Velocity":36,"Duration":123436,"SoundDuration":123436,"Delta":384903556},{"NoteNumber":52,"Velocity":31,"Duration":123436,"SoundDuration":123436,"Delta":385026992},{"NoteNumber":51,"Velocity":40,"Duration":123436,"SoundDuration":123436,"Delta":385150429},{"NoteNumber":52,"Velocity":35,"Duration":122291,"SoundDuration":122291,"Delta":385273865},{"NoteNumber":40,"Velocity":30,"Duration":120000,"SoundDuration":120000,"Delta":385396156},{"NoteNumber":52,"Velocity":26,"Duration":119999,"SoundDuration":119999,"Delta":385516156},{"NoteNumber":44,"Velocity":32,"Duration":120000,"SoundDuration":120000,"Delta":385636156},{"NoteNumber":52,"Velocity":29,"Duration":120000,"SoundDuration":120000,"Delta":385756156},{"NoteNumber":47,"Velocity":36,"Duration":120000,"SoundDuration":120000,"Delta":385876156},{"NoteNumber":52,"Velocity":31,"Duration":120000,"SoundDuration":120000,"Delta":385996156},{"NoteNumber":51,"Velocity":40,"Duration":120000,"SoundDuration":120000,"Delta":386116156},{"NoteNumber":52,"Velocity":35,"Duration":120000,"SoundDuration":120000,"Delta":386236156},{"NoteNumber":71,"Velocity":31,"Duration":473484,"SoundDuration":473484,"Delta":386356156},{"NoteNumber":83,"Velocity":44,"Duration":473484,"SoundDuration":473484,"Delta":386356156},{"NoteNumber":49,"Velocity":30,"Duration":118371,"SoundDuration":118371,"Delta":386356156},{"NoteNumber":61,"Velocity":26,"Duration":118371,"SoundDuration":118371,"Delta":386474528},{"NoteNumber":52,"Velocity":31,"Duration":118371,"SoundDuration":118371,"Delta":386592899},{"NoteNumber":61,"Velocity":27,"Duration":118371,"SoundDuration":118371,"Delta":386711270},{"NoteNumber":69,"Velocity":31,"Duration":473485,"SoundDuration":473485,"Delta":386829641},{"NoteNumber":81,"Velocity":44,"Duration":473485,"SoundDuration":473485,"Delta":386829641},{"NoteNumber":57,"Velocity":33,"Duration":118371,"SoundDuration":118371,"Delta":386829641},{"NoteNumber":61,"Velocity":28,"Duration":118371,"SoundDuration":118371,"Delta":386948013},{"NoteNumber":60,"Velocity":35,"Duration":118371,"SoundDuration":118371,"Delta":387066384},{"NoteNumber":61,"Velocity":30,"Duration":118371,"SoundDuration":118371,"Delta":387184755},{"NoteNumber":68,"Velocity":33,"Duration":489555,"SoundDuration":489555,"Delta":387303126},{"NoteNumber":80,"Velocity":44,"Duration":489555,"SoundDuration":489555,"Delta":387303126},{"NoteNumber":49,"Velocity":35,"Duration":122388,"SoundDuration":122388,"Delta":387303126},{"NoteNumber":61,"Velocity":26,"Duration":122388,"SoundDuration":122388,"Delta":387425515},{"NoteNumber":52,"Velocity":31,"Duration":122388,"SoundDuration":122388,"Delta":387547904},{"NoteNumber":61,"Velocity":27,"Duration":122388,"SoundDuration":122388,"Delta":387670293},{"NoteNumber":69,"Velocity":31,"Duration":550657,"SoundDuration":550657,"Delta":387792682},{"NoteNumber":81,"Velocity":44,"Duration":550657,"SoundDuration":550657,"Delta":387792682},{"NoteNumber":57,"Velocity":33,"Duration":122388,"SoundDuration":122388,"Delta":387792682},{"NoteNumber":61,"Velocity":28,"Duration":127124,"SoundDuration":127124,"Delta":387915071},{"NoteNumber":60,"Velocity":35,"Duration":131980,"SoundDuration":131980,"Delta":388042196},{"NoteNumber":61,"Velocity":30,"Duration":169163,"SoundDuration":169163,"Delta":388174177},{"NoteNumber":71,"Velocity":39,"Duration":1950615,"SoundDuration":1950615,"Delta":388343340},{"NoteNumber":83,"Velocity":50,"Duration":1950615,"SoundDuration":1950615,"Delta":388343340},{"NoteNumber":47,"Velocity":30,"Duration":123436,"SoundDuration":123436,"Delta":388343340},{"NoteNumber":59,"Velocity":26,"Duration":123436,"SoundDuration":123436,"Delta":388466777},{"NoteNumber":52,"Velocity":31,"Duration":123436,"SoundDuration":123436,"Delta":388590213},{"NoteNumber":59,"Velocity":27,"Duration":123436,"SoundDuration":123436,"Delta":388713650},{"NoteNumber":56,"Velocity":32,"Duration":123436,"SoundDuration":123436,"Delta":388837086},{"NoteNumber":59,"Velocity":28,"Duration":123436,"SoundDuration":123436,"Delta":388960523},{"NoteNumber":58,"Velocity":35,"Duration":123436,"SoundDuration":123436,"Delta":389083959},{"NoteNumber":59,"Velocity":30,"Duration":123436,"SoundDuration":123436,"Delta":389207396},{"NoteNumber":47,"Velocity":30,"Duration":119350,"SoundDuration":119350,"Delta":389330832},{"NoteNumber":59,"Velocity":26,"Duration":119350,"SoundDuration":119350,"Delta":389450183},{"NoteNumber":52,"Velocity":31,"Duration":119350,"SoundDuration":119350,"Delta":389569534},{"NoteNumber":59,"Velocity":28,"Duration":119148,"SoundDuration":119148,"Delta":389688884},{"NoteNumber":56,"Velocity":33,"Duration":119365,"SoundDuration":119365,"Delta":389808033},{"NoteNumber":59,"Velocity":28,"Duration":120645,"SoundDuration":120645,"Delta":389927398},{"NoteNumber":58,"Velocity":35,"Duration":122284,"SoundDuration":122284,"Delta":390048043},{"NoteNumber":59,"Velocity":30,"Duration":123628,"SoundDuration":123628,"Delta":390170328},{"NoteNumber":88,"Velocity":53,"Duration":526316,"SoundDuration":526316,"Delta":390293956},{"NoteNumber":76,"Velocity":40,"Duration":526316,"SoundDuration":526316,"Delta":390293956},{"NoteNumber":47,"Velocity":30,"Duration":131578,"SoundDuration":131578,"Delta":390293956},{"NoteNumber":59,"Velocity":26,"Duration":131578,"SoundDuration":131578,"Delta":390425535},{"NoteNumber":54,"Velocity":31,"Duration":131579,"SoundDuration":131579,"Delta":390557114},{"NoteNumber":59,"Velocity":27,"Duration":131578,"SoundDuration":131578,"Delta":390688693},{"NoteNumber":75,"Velocity":38,"Duration":526316,"SoundDuration":526316,"Delta":390820272},{"NoteNumber":87,"Velocity":49,"Duration":526316,"SoundDuration":526316,"Delta":390820272},{"NoteNumber":57,"Velocity":33,"Duration":131578,"SoundDuration":131578,"Delta":390820272},{"NoteNumber":59,"Velocity":28,"Duration":131578,"SoundDuration":131578,"Delta":390951851},{"NoteNumber":58,"Velocity":35,"Duration":131578,"SoundDuration":131578,"Delta":391083430},{"NoteNumber":59,"Velocity":30,"Duration":131579,"SoundDuration":131579,"Delta":391215009},{"NoteNumber":78,"Velocity":41,"Duration":545454,"SoundDuration":545454,"Delta":391346588},{"NoteNumber":90,"Velocity":55,"Duration":545454,"SoundDuration":545454,"Delta":391346588},{"NoteNumber":47,"Velocity":30,"Duration":136363,"SoundDuration":136363,"Delta":391346588},{"NoteNumber":59,"Velocity":26,"Duration":136363,"SoundDuration":136363,"Delta":391482952},{"NoteNumber":54,"Velocity":31,"Duration":136363,"SoundDuration":136363,"Delta":391619315},{"NoteNumber":59,"Velocity":28,"Duration":136363,"SoundDuration":136363,"Delta":391755679},{"NoteNumber":92,"Velocity":50,"Duration":545209,"SoundDuration":545209,"Delta":391892042},{"NoteNumber":80,"Velocity":39,"Duration":545209,"SoundDuration":545209,"Delta":391892042},{"NoteNumber":57,"Velocity":33,"Duration":136363,"SoundDuration":136363,"Delta":391892042},{"NoteNumber":59,"Velocity":28,"Duration":136363,"SoundDuration":136363,"Delta":392028406},{"NoteNumber":58,"Velocity":35,"Duration":148514,"SoundDuration":148514,"Delta":392164770},{"NoteNumber":59,"Velocity":30,"Duration":123966,"SoundDuration":123966,"Delta":392313285},{"NoteNumber":88,"Velocity":50,"Duration":1977070,"SoundDuration":1977070,"Delta":392437252},{"NoteNumber":76,"Velocity":47,"Duration":1977070,"SoundDuration":1977070,"Delta":392437252},{"NoteNumber":63,"Velocity":43,"Duration":123966,"SoundDuration":123966,"Delta":392437252},{"NoteNumber":64,"Velocity":35,"Duration":123966,"SoundDuration":123966,"Delta":392561219},{"NoteNumber":59,"Velocity":39,"Duration":123966,"SoundDuration":123966,"Delta":392685186},{"NoteNumber":64,"Velocity":32,"Duration":123628,"SoundDuration":123628,"Delta":392809153},{"NoteNumber":56,"Velocity":36,"Duration":122950,"SoundDuration":122950,"Delta":392932781},{"NoteNumber":64,"Velocity":27,"Duration":122950,"SoundDuration":122950,"Delta":393055732},{"NoteNumber":52,"Velocity":33,"Duration":122950,"SoundDuration":122950,"Delta":393178683},{"NoteNumber":64,"Velocity":26,"Duration":122950,"SoundDuration":122950,"Delta":393301634},{"NoteNumber":63,"Velocity":42,"Duration":122950,"SoundDuration":122950,"Delta":393424584},{"NoteNumber":64,"Velocity":34,"Duration":122950,"SoundDuration":122950,"Delta":393547535},{"NoteNumber":59,"Velocity":38,"Duration":122950,"SoundDuration":122950,"Delta":393670486},{"NoteNumber":64,"Velocity":32,"Duration":124316,"SoundDuration":124316,"Delta":393793437},{"NoteNumber":56,"Velocity":35,"Duration":125000,"SoundDuration":125000,"Delta":393917754},{"NoteNumber":64,"Velocity":27,"Duration":124311,"SoundDuration":124311,"Delta":394042754},{"NoteNumber":52,"Velocity":33,"Duration":123966,"SoundDuration":123966,"Delta":394167065},{"NoteNumber":64,"Velocity":26,"Duration":123289,"SoundDuration":123289,"Delta":394291032},{"NoteNumber":63,"Velocity":36,"Duration":118371,"SoundDuration":118371,"Delta":394414322},{"NoteNumber":64,"Velocity":30,"Duration":118371,"SoundDuration":118371,"Delta":394532693},{"NoteNumber":59,"Velocity":34,"Duration":118371,"SoundDuration":118371,"Delta":394651064},{"NoteNumber":64,"Velocity":28,"Duration":118371,"SoundDuration":118371,"Delta":394769436},{"NoteNumber":56,"Velocity":32,"Duration":118371,"SoundDuration":118371,"Delta":394887807},{"NoteNumber":64,"Velocity":27,"Duration":118371,"SoundDuration":118371,"Delta":395006178},{"NoteNumber":52,"Velocity":31,"Duration":118371,"SoundDuration":118371,"Delta":395124549},{"NoteNumber":64,"Velocity":26,"Duration":118371,"SoundDuration":118371,"Delta":395242921},{"NoteNumber":63,"Velocity":33,"Duration":122388,"SoundDuration":122388,"Delta":395361292},{"NoteNumber":64,"Velocity":28,"Duration":122388,"SoundDuration":122388,"Delta":395483681},{"NoteNumber":59,"Velocity":32,"Duration":122388,"SoundDuration":122388,"Delta":395606070},{"NoteNumber":64,"Velocity":27,"Duration":122388,"SoundDuration":122388,"Delta":395728459},{"NoteNumber":56,"Velocity":31,"Duration":122388,"SoundDuration":122388,"Delta":395850848},{"NoteNumber":64,"Velocity":26,"Duration":127124,"SoundDuration":127124,"Delta":395973237},{"NoteNumber":52,"Velocity":31,"Duration":131980,"SoundDuration":131980,"Delta":396100362},{"NoteNumber":64,"Velocity":26,"Duration":169163,"SoundDuration":169163,"Delta":396232342},{"NoteNumber":69,"Velocity":33,"Duration":1942297,"SoundDuration":1942297,"Delta":396401505},{"NoteNumber":72,"Velocity":33,"Duration":1942297,"SoundDuration":1942297,"Delta":396401505},{"NoteNumber":76,"Velocity":50,"Duration":1942297,"SoundDuration":1942297,"Delta":396401505},{"NoteNumber":63,"Velocity":33,"Duration":123436,"SoundDuration":123436,"Delta":396401505},{"NoteNumber":64,"Velocity":28,"Duration":123436,"SoundDuration":123436,"Delta":396524942},{"NoteNumber":60,"Velocity":32,"Duration":123436,"SoundDuration":123436,"Delta":396648378},{"NoteNumber":64,"Velocity":27,"Duration":123436,"SoundDuration":123436,"Delta":396771815},{"NoteNumber":57,"Velocity":31,"Duration":123436,"SoundDuration":123436,"Delta":396895251},{"NoteNumber":64,"Velocity":26,"Duration":123436,"SoundDuration":123436,"Delta":397018688},{"NoteNumber":52,"Velocity":31,"Duration":123436,"SoundDuration":123436,"Delta":397142124},{"NoteNumber":64,"Velocity":26,"Duration":123436,"SoundDuration":123436,"Delta":397265561},{"NoteNumber":63,"Velocity":33,"Duration":119350,"SoundDuration":119350,"Delta":397388997},{"NoteNumber":64,"Velocity":28,"Duration":119350,"SoundDuration":119350,"Delta":397508348},{"NoteNumber":60,"Velocity":32,"Duration":119350,"SoundDuration":119350,"Delta":397627699},{"NoteNumber":64,"Velocity":27,"Duration":119350,"SoundDuration":119350,"Delta":397747050},{"NoteNumber":57,"Velocity":31,"Duration":119350,"SoundDuration":119350,"Delta":397866400},{"NoteNumber":64,"Velocity":26,"Duration":119350,"SoundDuration":119350,"Delta":397985751},{"NoteNumber":52,"Velocity":31,"Duration":119350,"SoundDuration":119350,"Delta":398105102},{"NoteNumber":64,"Velocity":26,"Duration":119350,"SoundDuration":119350,"Delta":398224453},{"NoteNumber":69,"Velocity":34,"Duration":2031533,"SoundDuration":2031533,"Delta":398343803},{"NoteNumber":76,"Velocity":53,"Duration":493745,"SoundDuration":493745,"Delta":398343803},{"NoteNumber":72,"Velocity":34,"Duration":2031533,"SoundDuration":2031533,"Delta":398343803},{"NoteNumber":63,"Velocity":33,"Duration":123436,"SoundDuration":123436,"Delta":398343803},{"NoteNumber":64,"Velocity":28,"Duration":123436,"SoundDuration":123436,"Delta":398467240},{"NoteNumber":60,"Velocity":32,"Duration":123436,"SoundDuration":123436,"Delta":398590676},{"NoteNumber":64,"Velocity":27,"Duration":123436,"SoundDuration":123436,"Delta":398714113},{"NoteNumber":75,"Velocity":49,"Duration":493745,"SoundDuration":493745,"Delta":398837549},{"NoteNumber":57,"Velocity":31,"Duration":123436,"SoundDuration":123436,"Delta":398837549},{"NoteNumber":64,"Velocity":26,"Duration":123436,"SoundDuration":123436,"Delta":398960986},{"NoteNumber":52,"Velocity":31,"Duration":123436,"SoundDuration":123436,"Delta":399084422},{"NoteNumber":64,"Velocity":26,"Duration":123436,"SoundDuration":123436,"Delta":399207859},{"NoteNumber":76,"Velocity":55,"Duration":498008,"SoundDuration":498008,"Delta":399331295},{"NoteNumber":63,"Velocity":33,"Duration":124502,"SoundDuration":124502,"Delta":399331295},{"NoteNumber":64,"Velocity":28,"Duration":124502,"SoundDuration":124502,"Delta":399455797},{"NoteNumber":60,"Velocity":32,"Duration":124502,"SoundDuration":124502,"Delta":399580299},{"NoteNumber":64,"Velocity":27,"Duration":124502,"SoundDuration":124502,"Delta":399704801},{"NoteNumber":78,"Velocity":50,"Duration":546033,"SoundDuration":546033,"Delta":399829303},{"NoteNumber":57,"Velocity":31,"Duration":124501,"SoundDuration":124501,"Delta":399829303},{"NoteNumber":64,"Velocity":26,"Duration":124502,"SoundDuration":124502,"Delta":399953805},{"NoteNumber":52,"Velocity":31,"Duration":148514,"SoundDuration":148514,"Delta":400078307},{"NoteNumber":64,"Velocity":26,"Duration":148514,"SoundDuration":148514,"Delta":400226822},{"NoteNumber":71,"Velocity":47,"Duration":1974984,"SoundDuration":1974984,"Delta":400375337},{"NoteNumber":80,"Velocity":50,"Duration":1974984,"SoundDuration":1974984,"Delta":400375337},{"NoteNumber":68,"Velocity":47,"Duration":1974984,"SoundDuration":1974984,"Delta":400375337},{"NoteNumber":51,"Velocity":34,"Duration":123436,"SoundDuration":123436,"Delta":400375337},{"NoteNumber":52,"Velocity":29,"Duration":123436,"SoundDuration":123436,"Delta":400498774},{"NoteNumber":47,"Velocity":33,"Duration":123436,"SoundDuration":123436,"Delta":400622210},{"NoteNumber":52,"Velocity":26,"Duration":123436,"SoundDuration":123436,"Delta":400745647},{"NoteNumber":44,"Velocity":30,"Duration":123436,"SoundDuration":123436,"Delta":400869083},{"NoteNumber":52,"Velocity":23,"Duration":123436,"SoundDuration":123436,"Delta":400992520},{"NoteNumber":40,"Velocity":29,"Duration":123436,"SoundDuration":123436,"Delta":401115956},{"NoteNumber":52,"Velocity":23,"Duration":123436,"SoundDuration":123436,"Delta":401239393},{"NoteNumber":51,"Velocity":34,"Duration":123436,"SoundDuration":123436,"Delta":401362829},{"NoteNumber":52,"Velocity":29,"Duration":123436,"SoundDuration":123436,"Delta":401486266},{"NoteNumber":47,"Velocity":33,"Duration":123436,"SoundDuration":123436,"Delta":401609702},{"NoteNumber":52,"Velocity":26,"Duration":123436,"SoundDuration":123436,"Delta":401733139},{"NoteNumber":44,"Velocity":30,"Duration":123436,"SoundDuration":123436,"Delta":401856575},{"NoteNumber":52,"Velocity":23,"Duration":123436,"SoundDuration":123436,"Delta":401980012},{"NoteNumber":40,"Velocity":29,"Duration":123436,"SoundDuration":123436,"Delta":402103448},{"NoteNumber":52,"Velocity":23,"Duration":123436,"SoundDuration":123436,"Delta":402226885},{"NoteNumber":51,"Velocity":31,"Duration":118371,"SoundDuration":118371,"Delta":402350321},{"NoteNumber":52,"Velocity":27,"Duration":118371,"SoundDuration":118371,"Delta":402468692},{"NoteNumber":47,"Velocity":31,"Duration":118371,"SoundDuration":118371,"Delta":402587064},{"NoteNumber":52,"Velocity":25,"Duration":118371,"SoundDuration":118371,"Delta":402705435},{"NoteNumber":44,"Velocity":29,"Duration":118371,"SoundDuration":118371,"Delta":402823806},{"NoteNumber":52,"Velocity":22,"Duration":118371,"SoundDuration":118371,"Delta":402942177},{"NoteNumber":40,"Velocity":28,"Duration":118371,"SoundDuration":118371,"Delta":403060549},{"NoteNumber":52,"Velocity":23,"Duration":118371,"SoundDuration":118371,"Delta":403178920},{"NoteNumber":51,"Velocity":29,"Duration":122388,"SoundDuration":122388,"Delta":403297291},{"NoteNumber":52,"Velocity":25,"Duration":122388,"SoundDuration":122388,"Delta":403419680},{"NoteNumber":47,"Velocity":29,"Duration":122388,"SoundDuration":122388,"Delta":403542069},{"NoteNumber":52,"Velocity":24,"Duration":122388,"SoundDuration":122388,"Delta":403664458},{"NoteNumber":44,"Velocity":28,"Duration":122388,"SoundDuration":122388,"Delta":403786847},{"NoteNumber":52,"Velocity":22,"Duration":127124,"SoundDuration":127124,"Delta":403909236},{"NoteNumber":40,"Velocity":28,"Duration":131980,"SoundDuration":131980,"Delta":404036361},{"NoteNumber":52,"Velocity":23,"Duration":169163,"SoundDuration":169163,"Delta":404168342},{"NoteNumber":57,"Velocity":26,"Duration":1942297,"SoundDuration":1942297,"Delta":404337505},{"NoteNumber":60,"Velocity":26,"Duration":1942297,"SoundDuration":1942297,"Delta":404337505},{"NoteNumber":64,"Velocity":39,"Duration":1942297,"SoundDuration":1942297,"Delta":404337505},{"NoteNumber":51,"Velocity":29,"Duration":123436,"SoundDuration":123436,"Delta":404337505},{"NoteNumber":52,"Velocity":25,"Duration":123436,"SoundDuration":123436,"Delta":404460941},{"NoteNumber":48,"Velocity":29,"Duration":123436,"SoundDuration":123436,"Delta":404584378},{"NoteNumber":52,"Velocity":24,"Duration":123436,"SoundDuration":123436,"Delta":404707814},{"NoteNumber":45,"Velocity":28,"Duration":123436,"SoundDuration":123436,"Delta":404831251},{"NoteNumber":52,"Velocity":22,"Duration":123436,"SoundDuration":123436,"Delta":404954687},{"NoteNumber":40,"Velocity":28,"Duration":123436,"SoundDuration":123436,"Delta":405078124},{"NoteNumber":52,"Velocity":23,"Duration":123436,"SoundDuration":123436,"Delta":405201560},{"NoteNumber":51,"Velocity":29,"Duration":119350,"SoundDuration":119350,"Delta":405324997},{"NoteNumber":52,"Velocity":25,"Duration":119350,"SoundDuration":119350,"Delta":405444348},{"NoteNumber":48,"Velocity":29,"Duration":119350,"SoundDuration":119350,"Delta":405563698},{"NoteNumber":52,"Velocity":24,"Duration":119350,"SoundDuration":119350,"Delta":405683049},{"NoteNumber":45,"Velocity":28,"Duration":119350,"SoundDuration":119350,"Delta":405802400},{"NoteNumber":52,"Velocity":22,"Duration":119350,"SoundDuration":119350,"Delta":405921751},{"NoteNumber":40,"Velocity":28,"Duration":119350,"SoundDuration":119350,"Delta":406041101},{"NoteNumber":52,"Velocity":23,"Duration":119350,"SoundDuration":119350,"Delta":406160452},{"NoteNumber":57,"Velocity":26,"Duration":2040082,"SoundDuration":2040082,"Delta":406279803},{"NoteNumber":64,"Velocity":42,"Duration":493745,"SoundDuration":493745,"Delta":406279803},{"NoteNumber":60,"Velocity":26,"Duration":2040082,"SoundDuration":2040082,"Delta":406279803},{"NoteNumber":51,"Velocity":29,"Duration":123436,"SoundDuration":123436,"Delta":406279803},{"NoteNumber":52,"Velocity":25,"Duration":123436,"SoundDuration":123436,"Delta":406403239},{"NoteNumber":48,"Velocity":29,"Duration":123436,"SoundDuration":123436,"Delta":406526676},{"NoteNumber":52,"Velocity":24,"Duration":123436,"SoundDuration":123436,"Delta":406650112},{"NoteNumber":63,"Velocity":39,"Duration":493745,"SoundDuration":493745,"Delta":406773549},{"NoteNumber":45,"Velocity":28,"Duration":123436,"SoundDuration":123436,"Delta":406773549},{"NoteNumber":52,"Velocity":22,"Duration":123436,"SoundDuration":123436,"Delta":406896985},{"NoteNumber":40,"Velocity":28,"Duration":123436,"SoundDuration":123436,"Delta":407020422},{"NoteNumber":52,"Velocity":23,"Duration":123436,"SoundDuration":123436,"Delta":407143858},{"NoteNumber":64,"Velocity":44,"Duration":498008,"SoundDuration":498008,"Delta":407267295},{"NoteNumber":51,"Velocity":29,"Duration":124502,"SoundDuration":124502,"Delta":407267295},{"NoteNumber":52,"Velocity":25,"Duration":124502,"SoundDuration":124502,"Delta":407391797},{"NoteNumber":48,"Velocity":29,"Duration":124502,"SoundDuration":124502,"Delta":407516299},{"NoteNumber":52,"Velocity":24,"Duration":124502,"SoundDuration":124502,"Delta":407640801},{"NoteNumber":66,"Velocity":39,"Duration":554582,"SoundDuration":554582,"Delta":407765303},{"NoteNumber":45,"Velocity":28,"Duration":124501,"SoundDuration":124501,"Delta":407765303},{"NoteNumber":52,"Velocity":22,"Duration":124502,"SoundDuration":124502,"Delta":407889805},{"NoteNumber":40,"Velocity":28,"Duration":132172,"SoundDuration":132172,"Delta":408014307},{"NoteNumber":52,"Velocity":23,"Duration":173405,"SoundDuration":173405,"Delta":408146480},{"NoteNumber":59,"Velocity":29,"Duration":1974984,"SoundDuration":1974984,"Delta":408319885},{"NoteNumber":68,"Velocity":39,"Duration":1974984,"SoundDuration":1974984,"Delta":408319885},{"NoteNumber":56,"Velocity":26,"Duration":1974984,"SoundDuration":1974984,"Delta":408319885},{"NoteNumber":51,"Velocity":34,"Duration":123436,"SoundDuration":123436,"Delta":408319885},{"NoteNumber":52,"Velocity":29,"Duration":123436,"SoundDuration":123436,"Delta":408443321},{"NoteNumber":47,"Velocity":33,"Duration":123436,"SoundDuration":123436,"Delta":408566758},{"NoteNumber":52,"Velocity":26,"Duration":123436,"SoundDuration":123436,"Delta":408690194},{"NoteNumber":44,"Velocity":30,"Duration":123436,"SoundDuration":123436,"Delta":408813631},{"NoteNumber":52,"Velocity":23,"Duration":123436,"SoundDuration":123436,"Delta":408937067},{"NoteNumber":40,"Velocity":29,"Duration":123436,"SoundDuration":123436,"Delta":409060504},{"NoteNumber":52,"Velocity":23,"Duration":123436,"SoundDuration":123436,"Delta":409183940},{"NoteNumber":51,"Velocity":34,"Duration":123436,"SoundDuration":123436,"Delta":409307377},{"NoteNumber":52,"Velocity":29,"Duration":123436,"SoundDuration":123436,"Delta":409430813},{"NoteNumber":47,"Velocity":33,"Duration":123436,"SoundDuration":123436,"Delta":409554250},{"NoteNumber":52,"Velocity":26,"Duration":123436,"SoundDuration":123436,"Delta":409677686},{"NoteNumber":44,"Velocity":30,"Duration":123436,"SoundDuration":123436,"Delta":409801123},{"NoteNumber":52,"Velocity":23,"Duration":123436,"SoundDuration":123436,"Delta":409924559},{"NoteNumber":40,"Velocity":29,"Duration":123436,"SoundDuration":123436,"Delta":410047996},{"NoteNumber":52,"Velocity":23,"Duration":123436,"SoundDuration":123436,"Delta":410171432},{"NoteNumber":51,"Velocity":29,"Duration":118371,"SoundDuration":118371,"Delta":410294869},{"NoteNumber":52,"Velocity":25,"Duration":118371,"SoundDuration":118371,"Delta":410413240},{"NoteNumber":47,"Velocity":29,"Duration":118371,"SoundDuration":118371,"Delta":410531611},{"NoteNumber":52,"Velocity":24,"Duration":118371,"SoundDuration":118371,"Delta":410649983},{"NoteNumber":44,"Velocity":28,"Duration":118371,"SoundDuration":118371,"Delta":410768354},{"NoteNumber":52,"Velocity":22,"Duration":118371,"SoundDuration":118371,"Delta":410886725},{"NoteNumber":40,"Velocity":28,"Duration":118371,"SoundDuration":118371,"Delta":411005096},{"NoteNumber":52,"Velocity":23,"Duration":118371,"SoundDuration":118371,"Delta":411123468},{"NoteNumber":51,"Velocity":29,"Duration":122388,"SoundDuration":122388,"Delta":411241839},{"NoteNumber":52,"Velocity":25,"Duration":122388,"SoundDuration":122388,"Delta":411364228},{"NoteNumber":47,"Velocity":29,"Duration":122388,"SoundDuration":122388,"Delta":411486617},{"NoteNumber":52,"Velocity":24,"Duration":122388,"SoundDuration":122388,"Delta":411609006},{"NoteNumber":44,"Velocity":28,"Duration":122388,"SoundDuration":122388,"Delta":411731395},{"NoteNumber":52,"Velocity":22,"Duration":127124,"SoundDuration":127124,"Delta":411853784},{"NoteNumber":40,"Velocity":28,"Duration":131980,"SoundDuration":131980,"Delta":411980909},{"NoteNumber":52,"Velocity":23,"Duration":169163,"SoundDuration":169163,"Delta":412112889},{"NoteNumber":50,"Velocity":27,"Duration":127118,"SoundDuration":127118,"Delta":412282053},{"NoteNumber":52,"Velocity":21,"Duration":127118,"SoundDuration":127118,"Delta":412409171},{"NoteNumber":47,"Velocity":26,"Duration":127480,"SoundDuration":127480,"Delta":412536290},{"NoteNumber":52,"Velocity":21,"Duration":128205,"SoundDuration":128205,"Delta":412663771},{"NoteNumber":44,"Velocity":26,"Duration":128573,"SoundDuration":128573,"Delta":412791976},{"NoteNumber":52,"Velocity":19,"Duration":129310,"SoundDuration":129310,"Delta":412920549},{"NoteNumber":40,"Velocity":25,"Duration":128579,"SoundDuration":128579,"Delta":413049860},{"NoteNumber":52,"Velocity":20,"Duration":127118,"SoundDuration":127118,"Delta":413178439},{"NoteNumber":50,"Velocity":26,"Duration":130434,"SoundDuration":130434,"Delta":413305558},{"NoteNumber":52,"Velocity":20,"Duration":131967,"SoundDuration":131967,"Delta":413435993},{"NoteNumber":47,"Velocity":25,"Duration":133533,"SoundDuration":133533,"Delta":413567960},{"NoteNumber":52,"Velocity":20,"Duration":135544,"SoundDuration":135544,"Delta":413701493},{"NoteNumber":44,"Velocity":25,"Duration":136780,"SoundDuration":136780,"Delta":413837038},{"NoteNumber":52,"Velocity":19,"Duration":138464,"SoundDuration":138464,"Delta":413973819},{"NoteNumber":40,"Velocity":24,"Duration":140627,"SoundDuration":140627,"Delta":414112283},{"NoteNumber":52,"Velocity":19,"Duration":142407,"SoundDuration":142407,"Delta":414252911},{"NoteNumber":50,"Velocity":25,"Duration":144697,"SoundDuration":144697,"Delta":414395318},{"NoteNumber":52,"Velocity":20,"Duration":147068,"SoundDuration":147068,"Delta":414540016},{"NoteNumber":47,"Velocity":24,"Duration":150010,"SoundDuration":150010,"Delta":414687084},{"NoteNumber":52,"Velocity":20,"Duration":152545,"SoundDuration":152545,"Delta":414837094},{"NoteNumber":44,"Velocity":24,"Duration":155713,"SoundDuration":155713,"Delta":414989640},{"NoteNumber":52,"Velocity":18,"Duration":159014,"SoundDuration":159014,"Delta":415145353},{"NoteNumber":40,"Velocity":23,"Duration":161874,"SoundDuration":161874,"Delta":415304368},{"NoteNumber":52,"Velocity":19,"Duration":165445,"SoundDuration":165445,"Delta":415466242},{"NoteNumber":50,"Velocity":24,"Duration":171137,"SoundDuration":171137,"Delta":415631688},{"NoteNumber":52,"Velocity":20,"Duration":180040,"SoundDuration":180040,"Delta":415802826},{"NoteNumber":47,"Velocity":23,"Duration":190726,"SoundDuration":190726,"Delta":415982866},{"NoteNumber":52,"Velocity":19,"Duration":201850,"SoundDuration":201850,"Delta":416173592},{"NoteNumber":44,"Velocity":23,"Duration":215380,"SoundDuration":215380,"Delta":416375442},{"NoteNumber":52,"Velocity":17,"Duration":229513,"SoundDuration":229513,"Delta":416590823},{"NoteNumber":40,"Velocity":22,"Duration":366301,"SoundDuration":366301,"Delta":416820337},{"NoteNumber":52,"Velocity":14,"Duration":714285,"SoundDuration":714285,"Delta":417186638}]}