{"title":"Wandererfantasie D760, 4 Satz","artist":"Schubert","durationMs":205012,"midiSha256":"4080c65dd723c4b47a00a54f35efb3e8f49a406c09218b83591a28cff492f885","midiObject":[{"NoteNumber":36,"Velocity":71,"Duration":412371,"SoundDuration":412371,"Delta":0},{"NoteNumber":48,"Velocity":84,"Duration":412371,"SoundDuration":412371,"Delta":0},{"NoteNumber":36,"Velocity":67,"Duration":76271,"SoundDuration":76271,"Delta":412371},{"NoteNumber":48,"Velocity":79,"Duration":76271,"SoundDuration":76271,"Delta":412371},{"NoteNumber":36,"Velocity":67,"Duration":76271,"SoundDuration":76271,"Delta":615761},{"NoteNumber":48,"Velocity":79,"Duration":76271,"SoundDuration":76271,"Delta":615761},{"NoteNumber":36,"Velocity":67,"Duration":412371,"SoundDuration":412371,"Delta":819151},{"NoteNumber":48,"Velocity":79,"Duration":412371,"SoundDuration":412371,"Delta":819151},{"NoteNumber":36,"Velocity":68,"Duration":76271,"SoundDuration":76271,"Delta":1231522},{"NoteNumber":48,"Velocity":80,"Duration":76271,"SoundDuration":76271,"Delta":1231522},{"NoteNumber":36,"Velocity":69,"Duration":76271,"SoundDuration":76271,"Delta":1434912},{"NoteNumber":48,"Velocity":81,"Duration":76271,"SoundDuration":76271,"Delta":1434912},{"NoteNumber":37,"Velocity":76,"Duration":80645,"SoundDuration":80645,"Delta":1638302},{"NoteNumber":49,"Velocity":90,"Duration":80645,"SoundDuration":80645,"Delta":1638302},{"NoteNumber":38,"Velocity":75,"Duration":618556,"SoundDuration":618556,"Delta":2068410},{"NoteNumber":50,"Velocity":89,"Duration":618556,"SoundDuration":618556,"Delta":2068410},{"NoteNumber":40,"Velocity":68,"Duration":76013,"SoundDuration":76013,"Delta":2686966},{"NoteNumber":52,"Velocity":80,"Duration":76013,"SoundDuration":76013,"Delta":2686966},{"NoteNumber":41,"Velocity":67,"Duration":76013,"SoundDuration":76013,"Delta":2889669},{"NoteNumber":53,"Velocity":79,"Duration":76013,"SoundDuration":76013,"Delta":2889669},{"NoteNumber":40,"Velocity":68,"Duration":76013,"SoundDuration":76013,"Delta":3092371},{"NoteNumber":52,"Velocity":80,"Duration":76013,"SoundDuration":76013,"Delta":3092371},{"NoteNumber":38,"Velocity":71,"Duration":412370,"SoundDuration":412370,"Delta":3295074},{"NoteNumber":50,"Velocity":84,"Duration":412370,"SoundDuration":412370,"Delta":3295074},{"NoteNumber":38,"Velocity":71,"Duration":76013,"SoundDuration":76013,"Delta":3707445},{"NoteNumber":50,"Velocity":84,"Duration":76013,"SoundDuration":76013,"Delta":3707445},{"NoteNumber":38,"Velocity":68,"Duration":76013,"SoundDuration":76013,"Delta":3910147},{"NoteNumber":50,"Velocity":80,"Duration":76013,"SoundDuration":76013,"Delta":3910147},{"NoteNumber":38,"Velocity":68,"Duration":412371,"SoundDuration":412371,"Delta":4112850},{"NoteNumber":50,"Velocity":80,"Duration":412371,"SoundDuration":412371,"Delta":4112850},{"NoteNumber":38,"Velocity":69,"Duration":76271,"SoundDuration":76271,"Delta":4525221},{"NoteNumber":50,"Velocity":81,"Duration":76271,"SoundDuration":76271,"Delta":4525221},{"NoteNumber":38,"Velocity":69,"Duration":76271,"SoundDuration":76271,"Delta":4728611},{"NoteNumber":50,"Velocity":81,"Duration":76271,"SoundDuration":76271,"Delta":4728611},{"NoteNumber":39,"Velocity":76,"Duration":82116,"SoundDuration":82116,"Delta":4932001},{"NoteNumber":51,"Velocity":90,"Duration":82116,"SoundDuration":82116,"Delta":4932001},{"NoteNumber":40,"Velocity":75,"Duration":618556,"SoundDuration":618556,"Delta":5369957},{"NoteNumber":52,"Velocity":89,"Duration":618556,"SoundDuration":618556,"Delta":5369957},{"NoteNumber":42,"Velocity":80,"Duration":78397,"SoundDuration":78397,"Delta":5988513},{"NoteNumber":54,"Velocity":80,"Duration":78397,"SoundDuration":78397,"Delta":5988513},{"NoteNumber":43,"Velocity":68,"Duration":78397,"SoundDuration":78397,"Delta":6197572},{"NoteNumber":55,"Velocity":80,"Duration":78397,"SoundDuration":78397,"Delta":6197572},{"NoteNumber":45,"Velocity":69,"Duration":78397,"SoundDuration":78397,"Delta":6406631},{"NoteNumber":57,"Velocity":82,"Duration":78397,"SoundDuration":78397,"Delta":6406631},{"NoteNumber":46,"Velocity":78,"Duration":412371,"SoundDuration":412371,"Delta":6615690},{"NoteNumber":58,"Velocity":93,"Duration":412371,"SoundDuration":412371,"Delta":6615690},{"NoteNumber":46,"Velocity":71,"Duration":78125,"SoundDuration":78125,"Delta":7028061},{"NoteNumber":58,"Velocity":84,"Duration":78125,"SoundDuration":78125,"Delta":7028061},{"NoteNumber":46,"Velocity":71,"Duration":81818,"SoundDuration":81818,"Delta":7236395},{"NoteNumber":58,"Velocity":84,"Duration":81818,"SoundDuration":81818,"Delta":7236395},{"NoteNumber":37,"Velocity":79,"Duration":618556,"SoundDuration":618556,"Delta":7454577},{"NoteNumber":49,"Velocity":94,"Duration":618556,"SoundDuration":618556,"Delta":7454577},{"NoteNumber":37,"Velocity":73,"Duration":78671,"SoundDuration":78671,"Delta":8073133},{"NoteNumber":49,"Velocity":86,"Duration":78671,"SoundDuration":78671,"Delta":8073133},{"NoteNumber":45,"Velocity":79,"Duration":415224,"SoundDuration":415224,"Delta":8282923},{"NoteNumber":57,"Velocity":94,"Duration":415224,"SoundDuration":415224,"Delta":8282923},{"NoteNumber":45,"Velocity":71,"Duration":77854,"SoundDuration":77854,"Delta":8698148},{"NoteNumber":57,"Velocity":84,"Duration":77854,"SoundDuration":77854,"Delta":8698148},{"NoteNumber":45,"Velocity":72,"Duration":82417,"SoundDuration":82417,"Delta":8905760},{"NoteNumber":57,"Velocity":85,"Duration":82417,"SoundDuration":82417,"Delta":8905760},{"NoteNumber":36,"Velocity":79,"Duration":618556,"SoundDuration":618556,"Delta":9125540},{"NoteNumber":48,"Velocity":94,"Duration":618556,"SoundDuration":618556,"Delta":9125540},{"NoteNumber":36,"Velocity":72,"Duration":77319,"SoundDuration":77319,"Delta":9744097},{"NoteNumber":48,"Velocity":85,"Duration":77319,"SoundDuration":77319,"Delta":9744097},{"NoteNumber":35,"Velocity":72,"Duration":77319,"SoundDuration":77319,"Delta":9950282},{"NoteNumber":47,"Velocity":85,"Duration":77319,"SoundDuration":77319,"Delta":9950282},{"NoteNumber":38,"Velocity":72,"Duration":76271,"SoundDuration":76271,"Delta":10156468},{"NoteNumber":50,"Velocity":86,"Duration":76271,"SoundDuration":76271,"Delta":10156468},{"NoteNumber":43,"Velocity":75,"Duration":76271,"SoundDuration":76271,"Delta":10359858},{"NoteNumber":55,"Velocity":90,"Duration":76271,"SoundDuration":76271,"Delta":10359858},{"NoteNumber":41,"Velocity":72,"Duration":76271,"SoundDuration":76271,"Delta":10563248},{"NoteNumber":53,"Velocity":85,"Duration":76271,"SoundDuration":76271,"Delta":10563248},{"NoteNumber":40,"Velocity":73,"Duration":77319,"SoundDuration":77319,"Delta":10766638},{"NoteNumber":52,"Velocity":86,"Duration":77319,"SoundDuration":77319,"Delta":10766638},{"NoteNumber":36,"Velocity":70,"Duration":77319,"SoundDuration":77319,"Delta":10972824},{"NoteNumber":48,"Velocity":82,"Duration":77319,"SoundDuration":77319,"Delta":10972824},{"NoteNumber":35,"Velocity":70,"Duration":77319,"SoundDuration":77319,"Delta":11179009},{"NoteNumber":47,"Velocity":82,"Duration":77319,"SoundDuration":77319,"Delta":11179009},{"NoteNumber":33,"Velocity":69,"Duration":77319,"SoundDuration":77319,"Delta":11385195},{"NoteNumber":45,"Velocity":81,"Duration":77319,"SoundDuration":77319,"Delta":11385195},{"NoteNumber":41,"Velocity":71,"Duration":416667,"SoundDuration":416667,"Delta":11591380},{"NoteNumber":53,"Velocity":84,"Duration":416667,"SoundDuration":416667,"Delta":11591380},{"NoteNumber":40,"Velocity":69,"Duration":424027,"SoundDuration":424027,"Delta":12008047},{"NoteNumber":52,"Velocity":81,"Duration":424027,"SoundDuration":424027,"Delta":12008047},{"NoteNumber":38,"Velocity":71,"Duration":887613,"SoundDuration":887613,"Delta":12432075},{"NoteNumber":50,"Velocity":84,"Duration":887613,"SoundDuration":887613,"Delta":12432075},{"NoteNumber":55,"Velocity":71,"Duration":409556,"SoundDuration":409556,"Delta":13319688},{"NoteNumber":67,"Velocity":84,"Duration":409556,"SoundDuration":409556,"Delta":13319688},{"NoteNumber":36,"Velocity":65,"Duration":1012865,"SoundDuration":1012865,"Delta":13319688},{"NoteNumber":48,"Velocity":77,"Duration":1012865,"SoundDuration":1012865,"Delta":13319688},{"NoteNumber":55,"Velocity":67,"Duration":75070,"SoundDuration":75070,"Delta":13729244},{"NoteNumber":67,"Velocity":79,"Duration":75070,"SoundDuration":75070,"Delta":13729244},{"NoteNumber":55,"Velocity":67,"Duration":75070,"SoundDuration":75070,"Delta":13929431},{"NoteNumber":67,"Velocity":79,"Duration":75070,"SoundDuration":75070,"Delta":13929431},{"NoteNumber":55,"Velocity":67,"Duration":405872,"SoundDuration":405872,"Delta":14129618},{"NoteNumber":67,"Velocity":79,"Duration":405872,"SoundDuration":405872,"Delta":14129618},{"NoteNumber":38,"Velocity":61,"Duration":76101,"SoundDuration":76101,"Delta":14332554},{"NoteNumber":50,"Velocity":73,"Duration":76101,"SoundDuration":76101,"Delta":14332554},{"NoteNumber":55,"Velocity":68,"Duration":75070,"SoundDuration":75070,"Delta":14535490},{"NoteNumber":67,"Velocity":80,"Duration":75070,"SoundDuration":75070,"Delta":14535490},{"NoteNumber":40,"Velocity":61,"Duration":75070,"SoundDuration":75070,"Delta":14535490},{"NoteNumber":52,"Velocity":73,"Duration":75070,"SoundDuration":75070,"Delta":14535490},{"NoteNumber":55,"Velocity":69,"Duration":75070,"SoundDuration":75070,"Delta":14735677},{"NoteNumber":67,"Velocity":81,"Duration":75070,"SoundDuration":75070,"Delta":14735677},{"NoteNumber":41,"Velocity":61,"Duration":75070,"SoundDuration":75070,"Delta":14735677},{"NoteNumber":53,"Velocity":73,"Duration":75070,"SoundDuration":75070,"Delta":14735677},{"NoteNumber":56,"Velocity":76,"Duration":76891,"SoundDuration":76891,"Delta":14935864},{"NoteNumber":68,"Velocity":90,"Duration":76891,"SoundDuration":76891,"Delta":14935864},{"NoteNumber":40,"Velocity":65,"Duration":76891,"SoundDuration":76891,"Delta":14935864},{"NoteNumber":52,"Velocity":77,"Duration":76891,"SoundDuration":76891,"Delta":14935864},{"NoteNumber":38,"Velocity":63,"Duration":76891,"SoundDuration":76891,"Delta":15140908},{"NoteNumber":50,"Velocity":74,"Duration":76891,"SoundDuration":76891,"Delta":15140908},{"NoteNumber":57,"Velocity":75,"Duration":608807,"SoundDuration":608807,"Delta":15345952},{"NoteNumber":69,"Velocity":89,"Duration":608807,"SoundDuration":608807,"Delta":15345952},{"NoteNumber":36,"Velocity":63,"Duration":76100,"SoundDuration":76100,"Delta":15345952},{"NoteNumber":48,"Velocity":74,"Duration":76100,"SoundDuration":76100,"Delta":15345952},{"NoteNumber":35,"Velocity":63,"Duration":76101,"SoundDuration":76101,"Delta":15548888},{"NoteNumber":47,"Velocity":74,"Duration":76101,"SoundDuration":76101,"Delta":15548888},{"NoteNumber":33,"Velocity":67,"Duration":601951,"SoundDuration":601951,"Delta":15751824},{"NoteNumber":45,"Velocity":79,"Duration":601951,"SoundDuration":601951,"Delta":15751824},{"NoteNumber":59,"Velocity":68,"Duration":74815,"SoundDuration":74815,"Delta":15954760},{"NoteNumber":71,"Velocity":80,"Duration":74815,"SoundDuration":74815,"Delta":15954760},{"NoteNumber":60,"Velocity":67,"Duration":74815,"SoundDuration":74815,"Delta":16154268},{"NoteNumber":72,"Velocity":79,"Duration":74815,"SoundDuration":74815,"Delta":16154268},{"NoteNumber":59,"Velocity":68,"Duration":74815,"SoundDuration":74815,"Delta":16353776},{"NoteNumber":71,"Velocity":80,"Duration":74815,"SoundDuration":74815,"Delta":16353776},{"NoteNumber":40,"Velocity":64,"Duration":74815,"SoundDuration":74815,"Delta":16353776},{"NoteNumber":52,"Velocity":75,"Duration":74815,"SoundDuration":74815,"Delta":16353776},{"NoteNumber":57,"Velocity":71,"Duration":405871,"SoundDuration":405871,"Delta":16553284},{"NoteNumber":69,"Velocity":84,"Duration":405871,"SoundDuration":405871,"Delta":16553284},{"NoteNumber":41,"Velocity":65,"Duration":1007823,"SoundDuration":1007823,"Delta":16553284},{"NoteNumber":53,"Velocity":77,"Duration":1007823,"SoundDuration":1007823,"Delta":16553284},{"NoteNumber":57,"Velocity":71,"Duration":74815,"SoundDuration":74815,"Delta":16959156},{"NoteNumber":69,"Velocity":84,"Duration":74815,"SoundDuration":74815,"Delta":16959156},{"NoteNumber":57,"Velocity":68,"Duration":74815,"SoundDuration":74815,"Delta":17158664},{"NoteNumber":69,"Velocity":80,"Duration":74815,"SoundDuration":74815,"Delta":17158664},{"NoteNumber":57,"Velocity":68,"Duration":405871,"SoundDuration":405871,"Delta":17358172},{"NoteNumber":69,"Velocity":80,"Duration":405871,"SoundDuration":405871,"Delta":17358172},{"NoteNumber":40,"Velocity":61,"Duration":76100,"SoundDuration":76100,"Delta":17561108},{"NoteNumber":52,"Velocity":73,"Duration":76100,"SoundDuration":76100,"Delta":17561108},{"NoteNumber":57,"Velocity":69,"Duration":75070,"SoundDuration":75070,"Delta":17764044},{"NoteNumber":69,"Velocity":81,"Duration":75070,"SoundDuration":75070,"Delta":17764044},{"NoteNumber":41,"Velocity":61,"Duration":75070,"SoundDuration":75070,"Delta":17764044},{"NoteNumber":53,"Velocity":73,"Duration":75070,"SoundDuration":75070,"Delta":17764044},{"NoteNumber":57,"Velocity":69,"Duration":75070,"SoundDuration":75070,"Delta":17964231},{"NoteNumber":69,"Velocity":81,"Duration":75070,"SoundDuration":75070,"Delta":17964231},{"NoteNumber":43,"Velocity":61,"Duration":75070,"SoundDuration":75070,"Delta":17964231},{"NoteNumber":55,"Velocity":73,"Duration":75070,"SoundDuration":75070,"Delta":17964231},{"NoteNumber":58,"Velocity":76,"Duration":77160,"SoundDuration":77160,"Delta":18164418},{"NoteNumber":70,"Velocity":90,"Duration":77160,"SoundDuration":77160,"Delta":18164418},{"NoteNumber":42,"Velocity":65,"Duration":77160,"SoundDuration":77160,"Delta":18164418},{"NoteNumber":54,"Velocity":77,"Duration":77160,"SoundDuration":77160,"Delta":18164418},{"NoteNumber":40,"Velocity":63,"Duration":77160,"SoundDuration":77160,"Delta":18370179},{"NoteNumber":52,"Velocity":74,"Duration":77160,"SoundDuration":77160,"Delta":18370179},{"NoteNumber":59,"Velocity":75,"Duration":608807,"SoundDuration":608807,"Delta":18575941},{"NoteNumber":71,"Velocity":89,"Duration":608807,"SoundDuration":608807,"Delta":18575941},{"NoteNumber":38,"Velocity":63,"Duration":76101,"SoundDuration":76101,"Delta":18575941},{"NoteNumber":50,"Velocity":74,"Duration":76101,"SoundDuration":76101,"Delta":18575941},{"NoteNumber":37,"Velocity":63,"Duration":76100,"SoundDuration":76100,"Delta":18778877},{"NoteNumber":49,"Velocity":74,"Duration":76100,"SoundDuration":76100,"Delta":18778877},{"NoteNumber":35,"Velocity":67,"Duration":597690,"SoundDuration":597690,"Delta":18981813},{"NoteNumber":47,"Velocity":79,"Duration":597690,"SoundDuration":597690,"Delta":18981813},{"NoteNumber":61,"Velocity":76,"Duration":73529,"SoundDuration":73529,"Delta":19184749},{"NoteNumber":73,"Velocity":76,"Duration":73529,"SoundDuration":73529,"Delta":19184749},{"NoteNumber":62,"Velocity":63,"Duration":74503,"SoundDuration":74503,"Delta":19380827},{"NoteNumber":74,"Velocity":75,"Duration":74503,"SoundDuration":74503,"Delta":19380827},{"NoteNumber":64,"Velocity":64,"Duration":77319,"SoundDuration":77319,"Delta":19579503},{"NoteNumber":76,"Velocity":76,"Duration":77319,"SoundDuration":77319,"Delta":19579503},{"NoteNumber":33,"Velocity":59,"Duration":77319,"SoundDuration":77319,"Delta":19579503},{"NoteNumber":45,"Velocity":71,"Duration":77319,"SoundDuration":77319,"Delta":19579503},{"NoteNumber":65,"Velocity":72,"Duration":405871,"SoundDuration":405871,"Delta":19785688},{"NoteNumber":77,"Velocity":85,"Duration":405871,"SoundDuration":405871,"Delta":19785688},{"NoteNumber":32,"Velocity":60,"Duration":76101,"SoundDuration":76101,"Delta":19785688},{"NoteNumber":44,"Velocity":73,"Duration":76101,"SoundDuration":76101,"Delta":19785688},{"NoteNumber":35,"Velocity":57,"Duration":76100,"SoundDuration":76100,"Delta":19988624},{"NoteNumber":47,"Velocity":68,"Duration":76100,"SoundDuration":76100,"Delta":19988624},{"NoteNumber":65,"Velocity":64,"Duration":76101,"SoundDuration":76101,"Delta":20191560},{"NoteNumber":77,"Velocity":76,"Duration":76101,"SoundDuration":76101,"Delta":20191560},{"NoteNumber":32,"Velocity":60,"Duration":76101,"SoundDuration":76101,"Delta":20191560},{"NoteNumber":44,"Velocity":73,"Duration":76101,"SoundDuration":76101,"Delta":20191560},{"NoteNumber":65,"Velocity":64,"Duration":80529,"SoundDuration":80529,"Delta":20394496},{"NoteNumber":77,"Velocity":76,"Duration":80529,"SoundDuration":80529,"Delta":20394496},{"NoteNumber":35,"Velocity":55,"Duration":80529,"SoundDuration":80529,"Delta":20394496},{"NoteNumber":47,"Velocity":66,"Duration":80529,"SoundDuration":80529,"Delta":20394496},{"NoteNumber":56,"Velocity":76,"Duration":602709,"SoundDuration":602709,"Delta":20609242},{"NoteNumber":68,"Velocity":90,"Duration":602709,"SoundDuration":602709,"Delta":20609242},{"NoteNumber":41,"Velocity":65,"Duration":73814,"SoundDuration":73814,"Delta":20609242},{"NoteNumber":53,"Velocity":77,"Duration":73814,"SoundDuration":73814,"Delta":20609242},{"NoteNumber":41,"Velocity":64,"Duration":608807,"SoundDuration":608807,"Delta":20806080},{"NoteNumber":53,"Velocity":75,"Duration":608807,"SoundDuration":608807,"Delta":20806080},{"NoteNumber":56,"Velocity":70,"Duration":76101,"SoundDuration":76101,"Delta":21211952},{"NoteNumber":68,"Velocity":82,"Duration":76101,"SoundDuration":76101,"Delta":21211952},{"NoteNumber":64,"Velocity":72,"Duration":405871,"SoundDuration":405871,"Delta":21414888},{"NoteNumber":76,"Velocity":85,"Duration":405871,"SoundDuration":405871,"Delta":21414888},{"NoteNumber":31,"Velocity":60,"Duration":76101,"SoundDuration":76101,"Delta":21414888},{"NoteNumber":43,"Velocity":73,"Duration":76101,"SoundDuration":76101,"Delta":21414888},{"NoteNumber":34,"Velocity":57,"Duration":76100,"SoundDuration":76100,"Delta":21617824},{"NoteNumber":46,"Velocity":68,"Duration":76100,"SoundDuration":76100,"Delta":21617824},{"NoteNumber":64,"Velocity":64,"Duration":74257,"SoundDuration":74257,"Delta":21820760},{"NoteNumber":76,"Velocity":76,"Duration":74257,"SoundDuration":74257,"Delta":21820760},{"NoteNumber":31,"Velocity":60,"Duration":74257,"SoundDuration":74257,"Delta":21820760},{"NoteNumber":43,"Velocity":73,"Duration":74257,"SoundDuration":74257,"Delta":21820760},{"NoteNumber":64,"Velocity":65,"Duration":81116,"SoundDuration":81116,"Delta":22018780},{"NoteNumber":76,"Velocity":77,"Duration":81116,"SoundDuration":81116,"Delta":22018780},{"NoteNumber":34,"Velocity":55,"Duration":81116,"SoundDuration":81116,"Delta":22018780},{"NoteNumber":46,"Velocity":66,"Duration":81116,"SoundDuration":81116,"Delta":22018780},{"NoteNumber":55,"Velocity":76,"Duration":601313,"SoundDuration":601313,"Delta":22235090},{"NoteNumber":67,"Velocity":90,"Duration":601313,"SoundDuration":601313,"Delta":22235090},{"NoteNumber":40,"Velocity":65,"Duration":73814,"SoundDuration":73814,"Delta":22235090},{"NoteNumber":52,"Velocity":77,"Duration":73814,"SoundDuration":73814,"Delta":22235090},{"NoteNumber":40,"Velocity":64,"Duration":606714,"SoundDuration":606714,"Delta":22431927},{"NoteNumber":52,"Velocity":75,"Duration":606714,"SoundDuration":606714,"Delta":22431927},{"NoteNumber":55,"Velocity":69,"Duration":75839,"SoundDuration":75839,"Delta":22836403},{"NoteNumber":67,"Velocity":81,"Duration":75839,"SoundDuration":75839,"Delta":22836403},{"NoteNumber":54,"Velocity":69,"Duration":75839,"SoundDuration":75839,"Delta":23038641},{"NoteNumber":66,"Velocity":81,"Duration":75839,"SoundDuration":75839,"Delta":23038641},{"NoteNumber":38,"Velocity":64,"Duration":402425,"SoundDuration":402425,"Delta":23038641},{"NoteNumber":50,"Velocity":75,"Duration":402425,"SoundDuration":402425,"Delta":23038641},{"NoteNumber":57,"Velocity":70,"Duration":75070,"SoundDuration":75070,"Delta":23240879},{"NoteNumber":69,"Velocity":82,"Duration":75070,"SoundDuration":75070,"Delta":23240879},{"NoteNumber":62,"Velocity":73,"Duration":75070,"SoundDuration":75070,"Delta":23441066},{"NoteNumber":74,"Velocity":87,"Duration":75070,"SoundDuration":75070,"Delta":23441066},{"NoteNumber":30,"Velocity":59,"Duration":400373,"SoundDuration":400373,"Delta":23441066},{"NoteNumber":42,"Velocity":71,"Duration":400373,"SoundDuration":400373,"Delta":23441066},{"NoteNumber":60,"Velocity":70,"Duration":75070,"SoundDuration":75070,"Delta":23641253},{"NoteNumber":72,"Velocity":82,"Duration":75070,"SoundDuration":75070,"Delta":23641253},{"NoteNumber":59,"Velocity":71,"Duration":76101,"SoundDuration":76101,"Delta":23841440},{"NoteNumber":71,"Velocity":84,"Duration":76101,"SoundDuration":76101,"Delta":23841440},{"NoteNumber":31,"Velocity":58,"Duration":76101,"SoundDuration":76101,"Delta":23841440},{"NoteNumber":43,"Velocity":69,"Duration":76101,"SoundDuration":76101,"Delta":23841440},{"NoteNumber":55,"Velocity":69,"Duration":76100,"SoundDuration":76100,"Delta":24044376},{"NoteNumber":67,"Velocity":81,"Duration":76100,"SoundDuration":76100,"Delta":24044376},{"NoteNumber":33,"Velocity":59,"Duration":76100,"SoundDuration":76100,"Delta":24044376},{"NoteNumber":45,"Velocity":71,"Duration":76100,"SoundDuration":76100,"Delta":24044376},{"NoteNumber":54,"Velocity":69,"Duration":76101,"SoundDuration":76101,"Delta":24247312},{"NoteNumber":66,"Velocity":81,"Duration":76101,"SoundDuration":76101,"Delta":24247312},{"NoteNumber":35,"Velocity":61,"Duration":76101,"SoundDuration":76101,"Delta":24247312},{"NoteNumber":47,"Velocity":73,"Duration":76101,"SoundDuration":76101,"Delta":24247312},{"NoteNumber":52,"Velocity":69,"Duration":76101,"SoundDuration":76101,"Delta":24450248},{"NoteNumber":64,"Velocity":81,"Duration":76101,"SoundDuration":76101,"Delta":24450248},{"NoteNumber":36,"Velocity":64,"Duration":76101,"SoundDuration":76101,"Delta":24450248},{"NoteNumber":48,"Velocity":75,"Duration":76101,"SoundDuration":76101,"Delta":24450248},{"NoteNumber":60,"Velocity":71,"Duration":410087,"SoundDuration":410087,"Delta":24653184},{"NoteNumber":72,"Velocity":84,"Duration":410087,"SoundDuration":410087,"Delta":24653184},{"NoteNumber":38,"Velocity":65,"Duration":76891,"SoundDuration":76891,"Delta":24653184},{"NoteNumber":50,"Velocity":77,"Duration":76891,"SoundDuration":76891,"Delta":24653184},{"NoteNumber":42,"Velocity":64,"Duration":76891,"SoundDuration":76891,"Delta":24858228},{"NoteNumber":54,"Velocity":75,"Duration":76891,"SoundDuration":76891,"Delta":24858228},{"NoteNumber":59,"Velocity":69,"Duration":417332,"SoundDuration":417332,"Delta":25063272},{"NoteNumber":71,"Velocity":81,"Duration":417332,"SoundDuration":417332,"Delta":25063272},{"NoteNumber":43,"Velocity":65,"Duration":845262,"SoundDuration":845262,"Delta":25063272},{"NoteNumber":55,"Velocity":76,"Duration":845262,"SoundDuration":845262,"Delta":25063272},{"NoteNumber":57,"Velocity":71,"Duration":855859,"SoundDuration":855859,"Delta":25480605},{"NoteNumber":69,"Velocity":84,"Duration":855859,"SoundDuration":855859,"Delta":25480605},{"NoteNumber":42,"Velocity":64,"Duration":427929,"SoundDuration":427929,"Delta":25908535},{"NoteNumber":54,"Velocity":75,"Duration":427929,"SoundDuration":427929,"Delta":25908535},{"NoteNumber":59,"Velocity":69,"Duration":78528,"SoundDuration":78528,"Delta":26336465},{"NoteNumber":71,"Velocity":81,"Duration":78528,"SoundDuration":78528,"Delta":26336465},{"NoteNumber":41,"Velocity":64,"Duration":418818,"SoundDuration":418818,"Delta":26336465},{"NoteNumber":53,"Velocity":75,"Duration":418818,"SoundDuration":418818,"Delta":26336465},{"NoteNumber":55,"Velocity":64,"Duration":78528,"SoundDuration":78528,"Delta":26545875},{"NoteNumber":67,"Velocity":75,"Duration":78528,"SoundDuration":78528,"Delta":26545875},{"NoteNumber":60,"Velocity":68,"Duration":874342,"SoundDuration":874342,"Delta":26755284},{"NoteNumber":72,"Velocity":80,"Duration":874342,"SoundDuration":874342,"Delta":26755284},{"NoteNumber":40,"Velocity":63,"Duration":434782,"SoundDuration":434782,"Delta":26755284},{"NoteNumber":52,"Velocity":74,"Duration":434782,"SoundDuration":434782,"Delta":26755284},{"NoteNumber":38,"Velocity":60,"Duration":879120,"SoundDuration":879120,"Delta":27190067},{"NoteNumber":50,"Velocity":72,"Duration":879120,"SoundDuration":879120,"Delta":27190067},{"NoteNumber":59,"Velocity":65,"Duration":439560,"SoundDuration":439560,"Delta":27629627},{"NoteNumber":71,"Velocity":77,"Duration":439560,"SoundDuration":439560,"Delta":27629627},{"NoteNumber":60,"Velocity":71,"Duration":413792,"SoundDuration":413792,"Delta":28069187},{"NoteNumber":72,"Velocity":84,"Duration":413792,"SoundDuration":413792,"Delta":28069187},{"NoteNumber":48,"Velocity":65,"Duration":1023509,"SoundDuration":1023509,"Delta":28069187},{"NoteNumber":52,"Velocity":77,"Duration":1023509,"SoundDuration":1023509,"Delta":28069187},{"NoteNumber":60,"Velocity":67,"Duration":76271,"SoundDuration":76271,"Delta":28482980},{"NoteNumber":72,"Velocity":79,"Duration":76271,"SoundDuration":76271,"Delta":28482980},{"NoteNumber":60,"Velocity":67,"Duration":76271,"SoundDuration":76271,"Delta":28686370},{"NoteNumber":72,"Velocity":79,"Duration":76271,"SoundDuration":76271,"Delta":28686370},{"NoteNumber":60,"Velocity":67,"Duration":405871,"SoundDuration":405871,"Delta":28889760},{"NoteNumber":72,"Velocity":79,"Duration":405871,"SoundDuration":405871,"Delta":28889760},{"NoteNumber":52,"Velocity":61,"Duration":76100,"SoundDuration":76100,"Delta":29092696},{"NoteNumber":55,"Velocity":73,"Duration":76100,"SoundDuration":76100,"Delta":29092696},{"NoteNumber":60,"Velocity":68,"Duration":75070,"SoundDuration":75070,"Delta":29295632},{"NoteNumber":72,"Velocity":80,"Duration":75070,"SoundDuration":75070,"Delta":29295632},{"NoteNumber":53,"Velocity":61,"Duration":75070,"SoundDuration":75070,"Delta":29295632},{"NoteNumber":57,"Velocity":73,"Duration":75070,"SoundDuration":75070,"Delta":29295632},{"NoteNumber":60,"Velocity":69,"Duration":75070,"SoundDuration":75070,"Delta":29495819},{"NoteNumber":72,"Velocity":81,"Duration":75070,"SoundDuration":75070,"Delta":29495819},{"NoteNumber":55,"Velocity":61,"Duration":75070,"SoundDuration":75070,"Delta":29495819},{"NoteNumber":58,"Velocity":73,"Duration":75070,"SoundDuration":75070,"Delta":29495819},{"NoteNumber":61,"Velocity":76,"Duration":79370,"SoundDuration":79370,"Delta":29696006},{"NoteNumber":73,"Velocity":90,"Duration":79370,"SoundDuration":79370,"Delta":29696006},{"NoteNumber":53,"Velocity":65,"Duration":79370,"SoundDuration":79370,"Delta":29696006},{"NoteNumber":57,"Velocity":77,"Duration":79370,"SoundDuration":79370,"Delta":29696006},{"NoteNumber":52,"Velocity":63,"Duration":77160,"SoundDuration":77160,"Delta":29907661},{"NoteNumber":55,"Velocity":74,"Duration":77160,"SoundDuration":77160,"Delta":29907661},{"NoteNumber":62,"Velocity":75,"Duration":608807,"SoundDuration":608807,"Delta":30113423},{"NoteNumber":74,"Velocity":89,"Duration":608807,"SoundDuration":608807,"Delta":30113423},{"NoteNumber":50,"Velocity":63,"Duration":76101,"SoundDuration":76101,"Delta":30113423},{"NoteNumber":53,"Velocity":74,"Duration":76101,"SoundDuration":76101,"Delta":30113423},{"NoteNumber":45,"Velocity":63,"Duration":76100,"SoundDuration":76100,"Delta":30316359},{"NoteNumber":52,"Velocity":74,"Duration":76100,"SoundDuration":76100,"Delta":30316359},{"NoteNumber":41,"Velocity":67,"Duration":599812,"SoundDuration":599812,"Delta":30519295},{"NoteNumber":50,"Velocity":79,"Duration":599812,"SoundDuration":599812,"Delta":30519295},{"NoteNumber":64,"Velocity":68,"Duration":74815,"SoundDuration":74815,"Delta":30722231},{"NoteNumber":76,"Velocity":80,"Duration":74815,"SoundDuration":74815,"Delta":30722231},{"NoteNumber":65,"Velocity":67,"Duration":74013,"SoundDuration":74013,"Delta":30921739},{"NoteNumber":77,"Velocity":79,"Duration":74013,"SoundDuration":74013,"Delta":30921739},{"NoteNumber":64,"Velocity":68,"Duration":74013,"SoundDuration":74013,"Delta":31119107},{"NoteNumber":76,"Velocity":80,"Duration":74013,"SoundDuration":74013,"Delta":31119107},{"NoteNumber":45,"Velocity":64,"Duration":74013,"SoundDuration":74013,"Delta":31119107},{"NoteNumber":49,"Velocity":75,"Duration":74013,"SoundDuration":74013,"Delta":31119107},{"NoteNumber":62,"Velocity":71,"Duration":405871,"SoundDuration":405871,"Delta":31316476},{"NoteNumber":74,"Velocity":84,"Duration":405871,"SoundDuration":405871,"Delta":31316476},{"NoteNumber":46,"Velocity":65,"Duration":1007823,"SoundDuration":1007823,"Delta":31316476},{"NoteNumber":50,"Velocity":77,"Duration":1007823,"SoundDuration":1007823,"Delta":31316476},{"NoteNumber":62,"Velocity":71,"Duration":74815,"SoundDuration":74815,"Delta":31722348},{"NoteNumber":74,"Velocity":84,"Duration":74815,"SoundDuration":74815,"Delta":31722348},{"NoteNumber":62,"Velocity":68,"Duration":74815,"SoundDuration":74815,"Delta":31921856},{"NoteNumber":74,"Velocity":80,"Duration":74815,"SoundDuration":74815,"Delta":31921856},{"NoteNumber":62,"Velocity":68,"Duration":405872,"SoundDuration":405872,"Delta":32121364},{"NoteNumber":74,"Velocity":80,"Duration":405872,"SoundDuration":405872,"Delta":32121364},{"NoteNumber":50,"Velocity":61,"Duration":76101,"SoundDuration":76101,"Delta":32324300},{"NoteNumber":58,"Velocity":73,"Duration":76101,"SoundDuration":76101,"Delta":32324300},{"NoteNumber":62,"Velocity":69,"Duration":75070,"SoundDuration":75070,"Delta":32527236},{"NoteNumber":74,"Velocity":81,"Duration":75070,"SoundDuration":75070,"Delta":32527236},{"NoteNumber":58,"Velocity":61,"Duration":75070,"SoundDuration":75070,"Delta":32527236},{"NoteNumber":62,"Velocity":73,"Duration":75070,"SoundDuration":75070,"Delta":32527236},{"NoteNumber":62,"Velocity":69,"Duration":75070,"SoundDuration":75070,"Delta":32727423},{"NoteNumber":74,"Velocity":81,"Duration":75070,"SoundDuration":75070,"Delta":32727423},{"NoteNumber":57,"Velocity":61,"Duration":75070,"SoundDuration":75070,"Delta":32727423},{"NoteNumber":60,"Velocity":73,"Duration":75070,"SoundDuration":75070,"Delta":32727423},{"NoteNumber":63,"Velocity":76,"Duration":80818,"SoundDuration":80818,"Delta":32927610},{"NoteNumber":75,"Velocity":90,"Duration":80818,"SoundDuration":80818,"Delta":32927610},{"NoteNumber":55,"Velocity":65,"Duration":80818,"SoundDuration":80818,"Delta":32927610},{"NoteNumber":59,"Velocity":77,"Duration":80818,"SoundDuration":80818,"Delta":32927610},{"NoteNumber":54,"Velocity":63,"Duration":77431,"SoundDuration":77431,"Delta":33143127},{"NoteNumber":57,"Velocity":74,"Duration":77431,"SoundDuration":77431,"Delta":33143127},{"NoteNumber":64,"Velocity":75,"Duration":608808,"SoundDuration":608808,"Delta":33349610},{"NoteNumber":76,"Velocity":89,"Duration":608808,"SoundDuration":608808,"Delta":33349610},{"NoteNumber":52,"Velocity":63,"Duration":76101,"SoundDuration":76101,"Delta":33349610},{"NoteNumber":55,"Velocity":74,"Duration":76101,"SoundDuration":76101,"Delta":33349610},{"NoteNumber":47,"Velocity":63,"Duration":76101,"SoundDuration":76101,"Delta":33552546},{"NoteNumber":54,"Velocity":74,"Duration":76101,"SoundDuration":76101,"Delta":33552546},{"NoteNumber":43,"Velocity":67,"Duration":596378,"SoundDuration":596378,"Delta":33755482},{"NoteNumber":52,"Velocity":79,"Duration":596378,"SoundDuration":596378,"Delta":33755482},{"NoteNumber":66,"Velocity":72,"Duration":73770,"SoundDuration":73770,"Delta":33958418},{"NoteNumber":78,"Velocity":72,"Duration":73770,"SoundDuration":73770,"Delta":33958418},{"NoteNumber":67,"Velocity":59,"Duration":73770,"SoundDuration":73770,"Delta":34155140},{"NoteNumber":79,"Velocity":71,"Duration":73770,"SoundDuration":73770,"Delta":34155140},{"NoteNumber":69,"Velocity":60,"Duration":73770,"SoundDuration":73770,"Delta":34351861},{"NoteNumber":81,"Velocity":72,"Duration":73770,"SoundDuration":73770,"Delta":34351861},{"NoteNumber":41,"Velocity":56,"Duration":73770,"SoundDuration":73770,"Delta":34351861},{"NoteNumber":50,"Velocity":67,"Duration":73770,"SoundDuration":73770,"Delta":34351861},{"NoteNumber":70,"Velocity":68,"Duration":405872,"SoundDuration":405872,"Delta":34548583},{"NoteNumber":82,"Velocity":80,"Duration":405872,"SoundDuration":405872,"Delta":34548583},{"NoteNumber":40,"Velocity":57,"Duration":76101,"SoundDuration":76101,"Delta":34548583},{"NoteNumber":49,"Velocity":69,"Duration":76101,"SoundDuration":76101,"Delta":34548583},{"NoteNumber":43,"Velocity":54,"Duration":76101,"SoundDuration":76101,"Delta":34751519},{"NoteNumber":52,"Velocity":65,"Duration":76101,"SoundDuration":76101,"Delta":34751519},{"NoteNumber":70,"Velocity":60,"Duration":76100,"SoundDuration":76100,"Delta":34954455},{"NoteNumber":82,"Velocity":72,"Duration":76100,"SoundDuration":76100,"Delta":34954455},{"NoteNumber":40,"Velocity":57,"Duration":76100,"SoundDuration":76100,"Delta":34954455},{"NoteNumber":49,"Velocity":69,"Duration":76100,"SoundDuration":76100,"Delta":34954455},{"NoteNumber":70,"Velocity":60,"Duration":80529,"SoundDuration":80529,"Delta":35157391},{"NoteNumber":82,"Velocity":72,"Duration":80529,"SoundDuration":80529,"Delta":35157391},{"NoteNumber":43,"Velocity":52,"Duration":80529,"SoundDuration":80529,"Delta":35157391},{"NoteNumber":52,"Velocity":63,"Duration":80529,"SoundDuration":80529,"Delta":35157391},{"NoteNumber":61,"Velocity":71,"Duration":600761,"SoundDuration":600761,"Delta":35372137},{"NoteNumber":73,"Velocity":84,"Duration":600761,"SoundDuration":600761,"Delta":35372137},{"NoteNumber":55,"Velocity":59,"Duration":73770,"SoundDuration":73770,"Delta":35372137},{"NoteNumber":58,"Velocity":72,"Duration":73770,"SoundDuration":73770,"Delta":35372137},{"NoteNumber":55,"Velocity":58,"Duration":602715,"SoundDuration":602715,"Delta":35568858},{"NoteNumber":58,"Velocity":70,"Duration":602715,"SoundDuration":602715,"Delta":35568858},{"NoteNumber":61,"Velocity":66,"Duration":74503,"SoundDuration":74503,"Delta":35972899},{"NoteNumber":73,"Velocity":77,"Duration":74503,"SoundDuration":74503,"Delta":35972899},{"NoteNumber":69,"Velocity":68,"Duration":405405,"SoundDuration":405405,"Delta":36171574},{"NoteNumber":81,"Velocity":80,"Duration":405405,"SoundDuration":405405,"Delta":36171574},{"NoteNumber":39,"Velocity":57,"Duration":76013,"SoundDuration":76013,"Delta":36171574},{"NoteNumber":48,"Velocity":69,"Duration":76013,"SoundDuration":76013,"Delta":36171574},{"NoteNumber":42,"Velocity":54,"Duration":76013,"SoundDuration":76013,"Delta":36374277},{"NoteNumber":51,"Velocity":65,"Duration":76013,"SoundDuration":76013,"Delta":36374277},{"NoteNumber":69,"Velocity":60,"Duration":76013,"SoundDuration":76013,"Delta":36576979},{"NoteNumber":81,"Velocity":72,"Duration":76013,"SoundDuration":76013,"Delta":36576979},{"NoteNumber":39,"Velocity":57,"Duration":76013,"SoundDuration":76013,"Delta":36576979},{"NoteNumber":48,"Velocity":69,"Duration":76013,"SoundDuration":76013,"Delta":36576979},{"NoteNumber":69,"Velocity":61,"Duration":81116,"SoundDuration":81116,"Delta":36779682},{"NoteNumber":81,"Velocity":73,"Duration":81116,"SoundDuration":81116,"Delta":36779682},{"NoteNumber":42,"Velocity":52,"Duration":81116,"SoundDuration":81116,"Delta":36779682},{"NoteNumber":51,"Velocity":63,"Duration":81116,"SoundDuration":81116,"Delta":36779682},{"NoteNumber":60,"Velocity":71,"Duration":601884,"SoundDuration":601884,"Delta":36995992},{"NoteNumber":72,"Velocity":84,"Duration":601884,"SoundDuration":601884,"Delta":36995992},{"NoteNumber":54,"Velocity":59,"Duration":74013,"SoundDuration":74013,"Delta":36995992},{"NoteNumber":57,"Velocity":72,"Duration":74013,"SoundDuration":74013,"Delta":36995992},{"NoteNumber":54,"Velocity":58,"Duration":607218,"SoundDuration":607218,"Delta":37193360},{"NoteNumber":57,"Velocity":70,"Duration":607218,"SoundDuration":607218,"Delta":37193360},{"NoteNumber":60,"Velocity":61,"Duration":76013,"SoundDuration":76013,"Delta":37597876},{"NoteNumber":72,"Velocity":73,"Duration":76013,"SoundDuration":76013,"Delta":37597876},{"NoteNumber":59,"Velocity":63,"Duration":76013,"SoundDuration":76013,"Delta":37800579},{"NoteNumber":71,"Velocity":73,"Duration":76013,"SoundDuration":76013,"Delta":37800579},{"NoteNumber":55,"Velocity":71,"Duration":402889,"SoundDuration":402889,"Delta":37800579},{"NoteNumber":62,"Velocity":64,"Duration":75070,"SoundDuration":75070,"Delta":38003281},{"NoteNumber":74,"Velocity":75,"Duration":75070,"SoundDuration":75070,"Delta":38003281},{"NoteNumber":67,"Velocity":68,"Duration":75070,"SoundDuration":75070,"Delta":38203468},{"NoteNumber":79,"Velocity":80,"Duration":75070,"SoundDuration":75070,"Delta":38203468},{"NoteNumber":47,"Velocity":55,"Duration":400373,"SoundDuration":400373,"Delta":38203468},{"NoteNumber":50,"Velocity":66,"Duration":400373,"SoundDuration":400373,"Delta":38203468},{"NoteNumber":65,"Velocity":65,"Duration":75070,"SoundDuration":75070,"Delta":38403655},{"NoteNumber":77,"Velocity":77,"Duration":75070,"SoundDuration":75070,"Delta":38403655},{"NoteNumber":64,"Velocity":67,"Duration":76101,"SoundDuration":76101,"Delta":38603842},{"NoteNumber":76,"Velocity":79,"Duration":76101,"SoundDuration":76101,"Delta":38603842},{"NoteNumber":48,"Velocity":55,"Duration":76101,"SoundDuration":76101,"Delta":38603842},{"NoteNumber":52,"Velocity":65,"Duration":76101,"SoundDuration":76101,"Delta":38603842},{"NoteNumber":60,"Velocity":66,"Duration":76101,"SoundDuration":76101,"Delta":38806778},{"NoteNumber":72,"Velocity":77,"Duration":76101,"SoundDuration":76101,"Delta":38806778},{"NoteNumber":50,"Velocity":56,"Duration":76101,"SoundDuration":76101,"Delta":38806778},{"NoteNumber":53,"Velocity":68,"Duration":76101,"SoundDuration":76101,"Delta":38806778},{"NoteNumber":59,"Velocity":67,"Duration":76100,"SoundDuration":76100,"Delta":39009714},{"NoteNumber":71,"Velocity":78,"Duration":76100,"SoundDuration":76100,"Delta":39009714},{"NoteNumber":52,"Velocity":59,"Duration":76100,"SoundDuration":76100,"Delta":39009714},{"NoteNumber":55,"Velocity":70,"Duration":76100,"SoundDuration":76100,"Delta":39009714},{"NoteNumber":57,"Velocity":67,"Duration":76100,"SoundDuration":76100,"Delta":39212650},{"NoteNumber":69,"Velocity":79,"Duration":76100,"SoundDuration":76100,"Delta":39212650},{"NoteNumber":53,"Velocity":61,"Duration":76100,"SoundDuration":76100,"Delta":39212650},{"NoteNumber":57,"Velocity":73,"Duration":76100,"SoundDuration":76100,"Delta":39212650},{"NoteNumber":65,"Velocity":71,"Duration":410088,"SoundDuration":410088,"Delta":39415586},{"NoteNumber":77,"Velocity":84,"Duration":410088,"SoundDuration":410088,"Delta":39415586},{"NoteNumber":50,"Velocity":65,"Duration":410088,"SoundDuration":410088,"Delta":39415586},{"NoteNumber":55,"Velocity":77,"Duration":76891,"SoundDuration":76891,"Delta":39415586},{"NoteNumber":59,"Velocity":75,"Duration":76891,"SoundDuration":76891,"Delta":39620630},{"NoteNumber":64,"Velocity":69,"Duration":417332,"SoundDuration":417332,"Delta":39825674},{"NoteNumber":76,"Velocity":81,"Duration":417332,"SoundDuration":417332,"Delta":39825674},{"NoteNumber":48,"Velocity":77,"Duration":78249,"SoundDuration":78249,"Delta":39825674},{"NoteNumber":60,"Velocity":76,"Duration":852116,"SoundDuration":852116,"Delta":39825674},{"NoteNumber":52,"Velocity":75,"Duration":78249,"SoundDuration":78249,"Delta":40034341},{"NoteNumber":62,"Velocity":71,"Duration":880421,"SoundDuration":880421,"Delta":40243007},{"NoteNumber":74,"Velocity":84,"Duration":880421,"SoundDuration":880421,"Delta":40243007},{"NoteNumber":55,"Velocity":65,"Duration":880421,"SoundDuration":880421,"Delta":40243007},{"NoteNumber":59,"Velocity":75,"Duration":445638,"SoundDuration":445638,"Delta":40677790},{"NoteNumber":76,"Velocity":74,"Duration":1012632,"SoundDuration":1012632,"Delta":41123428},{"NoteNumber":72,"Velocity":74,"Duration":1012632,"SoundDuration":1012632,"Delta":41123428},{"NoteNumber":84,"Velocity":89,"Duration":1012632,"SoundDuration":1012632,"Delta":41123428},{"NoteNumber":36,"Velocity":81,"Duration":410958,"SoundDuration":410958,"Delta":41123428},{"NoteNumber":48,"Velocity":96,"Duration":410958,"SoundDuration":410958,"Delta":41123428},{"NoteNumber":36,"Velocity":77,"Duration":76271,"SoundDuration":76271,"Delta":41534387},{"NoteNumber":48,"Velocity":91,"Duration":76271,"SoundDuration":76271,"Delta":41534387},{"NoteNumber":36,"Velocity":77,"Duration":76271,"SoundDuration":76271,"Delta":41737777},{"NoteNumber":48,"Velocity":91,"Duration":76271,"SoundDuration":76271,"Delta":41737777},{"NoteNumber":36,"Velocity":77,"Duration":393727,"SoundDuration":393727,"Delta":41941167},{"NoteNumber":48,"Velocity":91,"Duration":393727,"SoundDuration":393727,"Delta":41941167},{"NoteNumber":67,"Velocity":70,"Duration":74562,"SoundDuration":74562,"Delta":42136061},{"NoteNumber":76,"Velocity":70,"Duration":74562,"SoundDuration":74562,"Delta":42136061},{"NoteNumber":79,"Velocity":84,"Duration":74562,"SoundDuration":74562,"Delta":42136061},{"NoteNumber":69,"Velocity":70,"Duration":75839,"SoundDuration":75839,"Delta":42334894},{"NoteNumber":77,"Velocity":70,"Duration":75839,"SoundDuration":75839,"Delta":42334894},{"NoteNumber":81,"Velocity":84,"Duration":75839,"SoundDuration":75839,"Delta":42334894},{"NoteNumber":36,"Velocity":78,"Duration":75839,"SoundDuration":75839,"Delta":42334894},{"NoteNumber":48,"Velocity":92,"Duration":75839,"SoundDuration":75839,"Delta":42334894},{"NoteNumber":70,"Velocity":70,"Duration":75839,"SoundDuration":75839,"Delta":42537133},{"NoteNumber":79,"Velocity":70,"Duration":75839,"SoundDuration":75839,"Delta":42537133},{"NoteNumber":82,"Velocity":84,"Duration":75839,"SoundDuration":75839,"Delta":42537133},{"NoteNumber":36,"Velocity":79,"Duration":75839,"SoundDuration":75839,"Delta":42537133},{"NoteNumber":48,"Velocity":93,"Duration":75839,"SoundDuration":75839,"Delta":42537133},{"NoteNumber":69,"Velocity":74,"Duration":74562,"SoundDuration":74562,"Delta":42739371},{"NoteNumber":77,"Velocity":74,"Duration":74562,"SoundDuration":74562,"Delta":42739371},{"NoteNumber":81,"Velocity":89,"Duration":74562,"SoundDuration":74562,"Delta":42739371},{"NoteNumber":37,"Velocity":85,"Duration":74562,"SoundDuration":74562,"Delta":42739371},{"NoteNumber":49,"Velocity":100,"Duration":74562,"SoundDuration":74562,"Delta":42739371},{"NoteNumber":67,"Velocity":70,"Duration":74562,"SoundDuration":74562,"Delta":42938204},{"NoteNumber":76,"Velocity":70,"Duration":74562,"SoundDuration":74562,"Delta":42938204},{"NoteNumber":79,"Velocity":83,"Duration":74562,"SoundDuration":74562,"Delta":42938204},{"NoteNumber":65,"Velocity":70,"Duration":76101,"SoundDuration":76101,"Delta":43137038},{"NoteNumber":74,"Velocity":70,"Duration":76101,"SoundDuration":76101,"Delta":43137038},{"NoteNumber":77,"Velocity":83,"Duration":76101,"SoundDuration":76101,"Delta":43137038},{"NoteNumber":38,"Velocity":81,"Duration":608808,"SoundDuration":608808,"Delta":43137038},{"NoteNumber":50,"Velocity":99,"Duration":608808,"SoundDuration":608808,"Delta":43137038},{"NoteNumber":64,"Velocity":70,"Duration":76101,"SoundDuration":76101,"Delta":43339974},{"NoteNumber":69,"Velocity":70,"Duration":76101,"SoundDuration":76101,"Delta":43339974},{"NoteNumber":76,"Velocity":83,"Duration":76101,"SoundDuration":76101,"Delta":43339974},{"NoteNumber":62,"Velocity":75,"Duration":599812,"SoundDuration":599812,"Delta":43542910},{"NoteNumber":65,"Velocity":75,"Duration":599812,"SoundDuration":599812,"Delta":43542910},{"NoteNumber":74,"Velocity":89,"Duration":599812,"SoundDuration":599812,"Delta":43542910},{"NoteNumber":40,"Velocity":78,"Duration":74815,"SoundDuration":74815,"Delta":43745846},{"NoteNumber":52,"Velocity":92,"Duration":74815,"SoundDuration":74815,"Delta":43745846},{"NoteNumber":41,"Velocity":77,"Duration":74013,"SoundDuration":74013,"Delta":43945354},{"NoteNumber":53,"Velocity":91,"Duration":74013,"SoundDuration":74013,"Delta":43945354},{"NoteNumber":73,"Velocity":73,"Duration":74013,"SoundDuration":74013,"Delta":44142722},{"NoteNumber":76,"Velocity":73,"Duration":74013,"SoundDuration":74013,"Delta":44142722},{"NoteNumber":85,"Velocity":86,"Duration":74013,"SoundDuration":74013,"Delta":44142722},{"NoteNumber":40,"Velocity":78,"Duration":74013,"SoundDuration":74013,"Delta":44142722},{"NoteNumber":52,"Velocity":92,"Duration":74013,"SoundDuration":74013,"Delta":44142722},{"NoteNumber":74,"Velocity":74,"Duration":1007824,"SoundDuration":1007824,"Delta":44340091},{"NoteNumber":77,"Velocity":74,"Duration":1007824,"SoundDuration":1007824,"Delta":44340091},{"NoteNumber":86,"Velocity":89,"Duration":1007824,"SoundDuration":1007824,"Delta":44340091},{"NoteNumber":38,"Velocity":81,"Duration":405872,"SoundDuration":405872,"Delta":44340091},{"NoteNumber":50,"Velocity":96,"Duration":405872,"SoundDuration":405872,"Delta":44340091},{"NoteNumber":38,"Velocity":81,"Duration":74815,"SoundDuration":74815,"Delta":44745963},{"NoteNumber":50,"Velocity":96,"Duration":74815,"SoundDuration":74815,"Delta":44745963},{"NoteNumber":38,"Velocity":78,"Duration":74815,"SoundDuration":74815,"Delta":44945471},{"NoteNumber":50,"Velocity":92,"Duration":74815,"SoundDuration":74815,"Delta":44945471},{"NoteNumber":38,"Velocity":78,"Duration":397829,"SoundDuration":397829,"Delta":45144979},{"NoteNumber":50,"Velocity":92,"Duration":397829,"SoundDuration":397829,"Delta":45144979},{"NoteNumber":69,"Velocity":70,"Duration":73085,"SoundDuration":73085,"Delta":45347915},{"NoteNumber":77,"Velocity":70,"Duration":73085,"SoundDuration":73085,"Delta":45347915},{"NoteNumber":81,"Velocity":84,"Duration":73085,"SoundDuration":73085,"Delta":45347915},{"NoteNumber":79,"Velocity":70,"Duration":75321,"SoundDuration":75321,"Delta":45542809},{"NoteNumber":71,"Velocity":70,"Duration":75321,"SoundDuration":75321,"Delta":45542809},{"NoteNumber":83,"Velocity":84,"Duration":75321,"SoundDuration":75321,"Delta":45542809},{"NoteNumber":38,"Velocity":79,"Duration":75321,"SoundDuration":75321,"Delta":45542809},{"NoteNumber":50,"Velocity":93,"Duration":75321,"SoundDuration":75321,"Delta":45542809},{"NoteNumber":72,"Velocity":70,"Duration":75321,"SoundDuration":75321,"Delta":45743666},{"NoteNumber":81,"Velocity":70,"Duration":75321,"SoundDuration":75321,"Delta":45743666},{"NoteNumber":84,"Velocity":84,"Duration":75321,"SoundDuration":75321,"Delta":45743666},{"NoteNumber":38,"Velocity":79,"Duration":75321,"SoundDuration":75321,"Delta":45743666},{"NoteNumber":50,"Velocity":93,"Duration":75321,"SoundDuration":75321,"Delta":45743666},{"NoteNumber":71,"Velocity":74,"Duration":74621,"SoundDuration":74621,"Delta":45944523},{"NoteNumber":79,"Velocity":74,"Duration":74621,"SoundDuration":74621,"Delta":45944523},{"NoteNumber":83,"Velocity":89,"Duration":74621,"SoundDuration":74621,"Delta":45944523},{"NoteNumber":39,"Velocity":85,"Duration":74621,"SoundDuration":74621,"Delta":45944523},{"NoteNumber":51,"Velocity":100,"Duration":74621,"SoundDuration":74621,"Delta":45944523},{"NoteNumber":69,"Velocity":70,"Duration":74061,"SoundDuration":74061,"Delta":46142581},{"NoteNumber":78,"Velocity":70,"Duration":74061,"SoundDuration":74061,"Delta":46142581},{"NoteNumber":81,"Velocity":83,"Duration":74061,"SoundDuration":74061,"Delta":46142581},{"NoteNumber":67,"Velocity":70,"Duration":76101,"SoundDuration":76101,"Delta":46340079},{"NoteNumber":76,"Velocity":70,"Duration":76101,"SoundDuration":76101,"Delta":46340079},{"NoteNumber":79,"Velocity":83,"Duration":76101,"SoundDuration":76101,"Delta":46340079},{"NoteNumber":40,"Velocity":80,"Duration":608808,"SoundDuration":608808,"Delta":46340079},{"NoteNumber":52,"Velocity":99,"Duration":608808,"SoundDuration":608808,"Delta":46340079},{"NoteNumber":66,"Velocity":70,"Duration":76101,"SoundDuration":76101,"Delta":46543015},{"NoteNumber":71,"Velocity":70,"Duration":76101,"SoundDuration":76101,"Delta":46543015},{"NoteNumber":78,"Velocity":83,"Duration":76101,"SoundDuration":76101,"Delta":46543015},{"NoteNumber":64,"Velocity":75,"Duration":600602,"SoundDuration":600602,"Delta":46745951},{"NoteNumber":67,"Velocity":75,"Duration":600602,"SoundDuration":600602,"Delta":46745951},{"NoteNumber":76,"Velocity":89,"Duration":600602,"SoundDuration":600602,"Delta":46745951},{"NoteNumber":42,"Velocity":92,"Duration":74562,"SoundDuration":74562,"Delta":46948887},{"NoteNumber":54,"Velocity":92,"Duration":74562,"SoundDuration":74562,"Delta":46948887},{"NoteNumber":43,"Velocity":77,"Duration":74562,"SoundDuration":74562,"Delta":47147721},{"NoteNumber":55,"Velocity":91,"Duration":74562,"SoundDuration":74562,"Delta":47147721},{"NoteNumber":62,"Velocity":73,"Duration":74562,"SoundDuration":74562,"Delta":47346554},{"NoteNumber":65,"Velocity":73,"Duration":74562,"SoundDuration":74562,"Delta":47346554},{"NoteNumber":74,"Velocity":86,"Duration":74562,"SoundDuration":74562,"Delta":47346554},{"NoteNumber":45,"Velocity":78,"Duration":74562,"SoundDuration":74562,"Delta":47346554},{"NoteNumber":57,"Velocity":92,"Duration":74562,"SoundDuration":74562,"Delta":47346554},{"NoteNumber":61,"Velocity":74,"Duration":75070,"SoundDuration":75070,"Delta":47545388},{"NoteNumber":64,"Velocity":74,"Duration":75070,"SoundDuration":75070,"Delta":47545388},{"NoteNumber":73,"Velocity":89,"Duration":75070,"SoundDuration":75070,"Delta":47545388},{"NoteNumber":46,"Velocity":87,"Duration":400832,"SoundDuration":400832,"Delta":47545388},{"NoteNumber":58,"Velocity":103,"Duration":400832,"SoundDuration":400832,"Delta":47545388},{"NoteNumber":64,"Velocity":69,"Duration":75070,"SoundDuration":75070,"Delta":47745575},{"NoteNumber":67,"Velocity":69,"Duration":75070,"SoundDuration":75070,"Delta":47745575},{"NoteNumber":76,"Velocity":82,"Duration":75070,"SoundDuration":75070,"Delta":47745575},{"NoteNumber":61,"Velocity":74,"Duration":76101,"SoundDuration":76101,"Delta":47946220},{"NoteNumber":64,"Velocity":74,"Duration":76101,"SoundDuration":76101,"Delta":47946220},{"NoteNumber":73,"Velocity":89,"Duration":76101,"SoundDuration":76101,"Delta":47946220},{"NoteNumber":46,"Velocity":78,"Duration":76101,"SoundDuration":76101,"Delta":47946220},{"NoteNumber":58,"Velocity":92,"Duration":76101,"SoundDuration":76101,"Delta":47946220},{"NoteNumber":64,"Velocity":67,"Duration":80529,"SoundDuration":80529,"Delta":48149156},{"NoteNumber":67,"Velocity":67,"Duration":80529,"SoundDuration":80529,"Delta":48149156},{"NoteNumber":76,"Velocity":80,"Duration":80529,"SoundDuration":80529,"Delta":48149156},{"NoteNumber":46,"Velocity":78,"Duration":80529,"SoundDuration":80529,"Delta":48149156},{"NoteNumber":58,"Velocity":92,"Duration":80529,"SoundDuration":80529,"Delta":48149156},{"NoteNumber":70,"Velocity":74,"Duration":72815,"SoundDuration":72815,"Delta":48363902},{"NoteNumber":79,"Velocity":74,"Duration":72815,"SoundDuration":72815,"Delta":48363902},{"NoteNumber":82,"Velocity":89,"Duration":72815,"SoundDuration":72815,"Delta":48363902},{"NoteNumber":37,"Velocity":85,"Duration":599580,"SoundDuration":599580,"Delta":48363902},{"NoteNumber":49,"Velocity":100,"Duration":599580,"SoundDuration":599580,"Delta":48363902},{"NoteNumber":70,"Velocity":73,"Duration":608107,"SoundDuration":608107,"Delta":48558077},{"NoteNumber":79,"Velocity":73,"Duration":608107,"SoundDuration":608107,"Delta":48558077},{"NoteNumber":82,"Velocity":86,"Duration":608107,"SoundDuration":608107,"Delta":48558077},{"NoteNumber":37,"Velocity":80,"Duration":76013,"SoundDuration":76013,"Delta":48963482},{"NoteNumber":49,"Velocity":94,"Duration":76013,"SoundDuration":76013,"Delta":48963482},{"NoteNumber":60,"Velocity":72,"Duration":74815,"SoundDuration":74815,"Delta":49166184},{"NoteNumber":63,"Velocity":72,"Duration":74815,"SoundDuration":74815,"Delta":49166184},{"NoteNumber":72,"Velocity":87,"Duration":74815,"SoundDuration":74815,"Delta":49166184},{"NoteNumber":45,"Velocity":85,"Duration":399016,"SoundDuration":399016,"Delta":49166184},{"NoteNumber":57,"Velocity":100,"Duration":399016,"SoundDuration":399016,"Delta":49166184},{"NoteNumber":63,"Velocity":67,"Duration":74815,"SoundDuration":74815,"Delta":49365692},{"NoteNumber":66,"Velocity":67,"Duration":74815,"SoundDuration":74815,"Delta":49365692},{"NoteNumber":75,"Velocity":80,"Duration":74815,"SoundDuration":74815,"Delta":49365692},{"NoteNumber":60,"Velocity":72,"Duration":74815,"SoundDuration":74815,"Delta":49565200},{"NoteNumber":63,"Velocity":72,"Duration":74815,"SoundDuration":74815,"Delta":49565200},{"NoteNumber":72,"Velocity":87,"Duration":74815,"SoundDuration":74815,"Delta":49565200},{"NoteNumber":45,"Velocity":76,"Duration":74815,"SoundDuration":74815,"Delta":49565200},{"NoteNumber":57,"Velocity":90,"Duration":74815,"SoundDuration":74815,"Delta":49565200},{"NoteNumber":63,"Velocity":65,"Duration":81116,"SoundDuration":81116,"Delta":49764708},{"NoteNumber":66,"Velocity":65,"Duration":81116,"SoundDuration":81116,"Delta":49764708},{"NoteNumber":75,"Velocity":78,"Duration":81116,"SoundDuration":81116,"Delta":49764708},{"NoteNumber":45,"Velocity":77,"Duration":81116,"SoundDuration":81116,"Delta":49764708},{"NoteNumber":57,"Velocity":91,"Duration":81116,"SoundDuration":81116,"Delta":49764708},{"NoteNumber":69,"Velocity":72,"Duration":73289,"SoundDuration":73289,"Delta":49981018},{"NoteNumber":78,"Velocity":72,"Duration":73289,"SoundDuration":73289,"Delta":49981018},{"NoteNumber":81,"Velocity":87,"Duration":73289,"SoundDuration":73289,"Delta":49981018},{"NoteNumber":36,"Velocity":83,"Duration":602219,"SoundDuration":602219,"Delta":49981018},{"NoteNumber":48,"Velocity":98,"Duration":602219,"SoundDuration":602219,"Delta":49981018},{"NoteNumber":69,"Velocity":71,"Duration":610169,"SoundDuration":610169,"Delta":50176458},{"NoteNumber":78,"Velocity":71,"Duration":610169,"SoundDuration":610169,"Delta":50176458},{"NoteNumber":81,"Velocity":84,"Duration":610169,"SoundDuration":610169,"Delta":50176458},{"NoteNumber":36,"Velocity":77,"Duration":76271,"SoundDuration":76271,"Delta":50583238},{"NoteNumber":48,"Velocity":91,"Duration":76271,"SoundDuration":76271,"Delta":50583238},{"NoteNumber":67,"Velocity":84,"Duration":403577,"SoundDuration":403577,"Delta":50786628},{"NoteNumber":79,"Velocity":90,"Duration":403577,"SoundDuration":403577,"Delta":50786628},{"NoteNumber":35,"Velocity":79,"Duration":76271,"SoundDuration":76271,"Delta":50786628},{"NoteNumber":47,"Velocity":93,"Duration":76271,"SoundDuration":76271,"Delta":50786628},{"NoteNumber":38,"Velocity":80,"Duration":75070,"SoundDuration":75070,"Delta":50990018},{"NoteNumber":50,"Velocity":94,"Duration":75070,"SoundDuration":75070,"Delta":50990018},{"NoteNumber":62,"Velocity":68,"Duration":400373,"SoundDuration":400373,"Delta":51190205},{"NoteNumber":71,"Velocity":68,"Duration":400373,"SoundDuration":400373,"Delta":51190205},{"NoteNumber":74,"Velocity":81,"Duration":400373,"SoundDuration":400373,"Delta":51190205},{"NoteNumber":43,"Velocity":84,"Duration":75070,"SoundDuration":75070,"Delta":51190205},{"NoteNumber":55,"Velocity":100,"Duration":75070,"SoundDuration":75070,"Delta":51190205},{"NoteNumber":41,"Velocity":80,"Duration":75070,"SoundDuration":75070,"Delta":51390392},{"NoteNumber":53,"Velocity":94,"Duration":75070,"SoundDuration":75070,"Delta":51390392},{"NoteNumber":64,"Velocity":67,"Duration":76101,"SoundDuration":76101,"Delta":51590579},{"NoteNumber":72,"Velocity":67,"Duration":76101,"SoundDuration":76101,"Delta":51590579},{"NoteNumber":76,"Velocity":79,"Duration":76101,"SoundDuration":76101,"Delta":51590579},{"NoteNumber":40,"Velocity":81,"Duration":76101,"SoundDuration":76101,"Delta":51590579},{"NoteNumber":52,"Velocity":96,"Duration":76101,"SoundDuration":76101,"Delta":51590579},{"NoteNumber":65,"Velocity":68,"Duration":76101,"SoundDuration":76101,"Delta":51793515},{"NoteNumber":74,"Velocity":68,"Duration":76101,"SoundDuration":76101,"Delta":51793515},{"NoteNumber":77,"Velocity":81,"Duration":76101,"SoundDuration":76101,"Delta":51793515},{"NoteNumber":36,"Velocity":79,"Duration":76101,"SoundDuration":76101,"Delta":51793515},{"NoteNumber":48,"Velocity":93,"Duration":76101,"SoundDuration":76101,"Delta":51793515},{"NoteNumber":67,"Velocity":70,"Duration":76101,"SoundDuration":76101,"Delta":51996451},{"NoteNumber":76,"Velocity":70,"Duration":76101,"SoundDuration":76101,"Delta":51996451},{"NoteNumber":79,"Velocity":84,"Duration":76101,"SoundDuration":76101,"Delta":51996451},{"NoteNumber":35,"Velocity":79,"Duration":76101,"SoundDuration":76101,"Delta":51996451},{"NoteNumber":47,"Velocity":93,"Duration":76101,"SoundDuration":76101,"Delta":51996451},{"NoteNumber":69,"Velocity":73,"Duration":76100,"SoundDuration":76100,"Delta":52199387},{"NoteNumber":77,"Velocity":73,"Duration":76100,"SoundDuration":76100,"Delta":52199387},{"NoteNumber":81,"Velocity":86,"Duration":76100,"SoundDuration":76100,"Delta":52199387},{"NoteNumber":33,"Velocity":79,"Duration":76100,"SoundDuration":76100,"Delta":52199387},{"NoteNumber":45,"Velocity":93,"Duration":76100,"SoundDuration":76100,"Delta":52199387},{"NoteNumber":71,"Velocity":74,"Duration":410088,"SoundDuration":410088,"Delta":52402323},{"NoteNumber":74,"Velocity":74,"Duration":410088,"SoundDuration":410088,"Delta":52402323},{"NoteNumber":79,"Velocity":89,"Duration":410088,"SoundDuration":410088,"Delta":52402323},{"NoteNumber":41,"Velocity":81,"Duration":410088,"SoundDuration":410088,"Delta":52402323},{"NoteNumber":53,"Velocity":96,"Duration":410088,"SoundDuration":410088,"Delta":52402323},{"NoteNumber":72,"Velocity":74,"Duration":454270,"SoundDuration":454270,"Delta":52812411},{"NoteNumber":79,"Velocity":74,"Duration":454270,"SoundDuration":454270,"Delta":52812411},{"NoteNumber":84,"Velocity":88,"Duration":454270,"SoundDuration":454270,"Delta":52812411},{"NoteNumber":40,"Velocity":79,"Duration":454270,"SoundDuration":454270,"Delta":52812411},{"NoteNumber":52,"Velocity":93,"Duration":454270,"SoundDuration":454270,"Delta":52812411},{"NoteNumber":83,"Velocity":82,"Duration":427930,"SoundDuration":427930,"Delta":53266681},{"NoteNumber":77,"Velocity":82,"Duration":855859,"SoundDuration":855859,"Delta":53266681},{"NoteNumber":89,"Velocity":97,"Duration":855859,"SoundDuration":855859,"Delta":53266681},{"NoteNumber":38,"Velocity":81,"Duration":855859,"SoundDuration":855859,"Delta":53266681},{"NoteNumber":50,"Velocity":96,"Duration":855859,"SoundDuration":855859,"Delta":53266681},{"NoteNumber":83,"Velocity":94,"Duration":427929,"SoundDuration":427929,"Delta":53694611},{"NoteNumber":49,"Velocity":80,"Duration":389609,"SoundDuration":389609,"Delta":54122541},{"NoteNumber":61,"Velocity":96,"Duration":389609,"SoundDuration":389609,"Delta":54122541},{"NoteNumber":67,"Velocity":74,"Duration":97402,"SoundDuration":97402,"Delta":54219943},{"NoteNumber":70,"Velocity":75,"Duration":97402,"SoundDuration":97402,"Delta":54317346},{"NoteNumber":73,"Velocity":75,"Duration":97402,"SoundDuration":97402,"Delta":54414748},{"NoteNumber":76,"Velocity":76,"Duration":111465,"SoundDuration":111465,"Delta":54512151},{"NoteNumber":49,"Velocity":77,"Duration":95541,"SoundDuration":95541,"Delta":54512151},{"NoteNumber":61,"Velocity":92,"Duration":95541,"SoundDuration":95541,"Delta":54512151},{"NoteNumber":79,"Velocity":77,"Duration":111465,"SoundDuration":111465,"Delta":54607692},{"NoteNumber":82,"Velocity":78,"Duration":113592,"SoundDuration":113592,"Delta":54703234},{"NoteNumber":49,"Velocity":74,"Duration":95541,"SoundDuration":95541,"Delta":54703234},{"NoteNumber":61,"Velocity":88,"Duration":95541,"SoundDuration":95541,"Delta":54703234},{"NoteNumber":85,"Velocity":79,"Duration":124484,"SoundDuration":124484,"Delta":54798775},{"NoteNumber":91,"Velocity":79,"Duration":97297,"SoundDuration":97297,"Delta":54907079},{"NoteNumber":40,"Velocity":77,"Duration":817558,"SoundDuration":817558,"Delta":54907079},{"NoteNumber":52,"Velocity":92,"Duration":817558,"SoundDuration":817558,"Delta":54907079},{"NoteNumber":88,"Velocity":78,"Duration":97402,"SoundDuration":97402,"Delta":55004376},{"NoteNumber":85,"Velocity":77,"Duration":97192,"SoundDuration":97192,"Delta":55101779},{"NoteNumber":82,"Velocity":76,"Duration":97087,"SoundDuration":97087,"Delta":55198971},{"NoteNumber":79,"Velocity":75,"Duration":96878,"SoundDuration":96878,"Delta":55296059},{"NoteNumber":76,"Velocity":74,"Duration":97403,"SoundDuration":97403,"Delta":55392937},{"NoteNumber":73,"Velocity":73,"Duration":97932,"SoundDuration":97932,"Delta":55490341},{"NoteNumber":70,"Velocity":72,"Duration":136363,"SoundDuration":136363,"Delta":55588273},{"NoteNumber":62,"Velocity":96,"Duration":388350,"SoundDuration":388350,"Delta":55724637},{"NoteNumber":50,"Velocity":80,"Duration":388350,"SoundDuration":388350,"Delta":55724637},{"NoteNumber":67,"Velocity":74,"Duration":97087,"SoundDuration":97087,"Delta":55821725},{"NoteNumber":71,"Velocity":75,"Duration":97087,"SoundDuration":97087,"Delta":55918812},{"NoteNumber":77,"Velocity":75,"Duration":97087,"SoundDuration":97087,"Delta":56015900},{"NoteNumber":79,"Velocity":76,"Duration":110410,"SoundDuration":110410,"Delta":56112987},{"NoteNumber":50,"Velocity":77,"Duration":94637,"SoundDuration":94637,"Delta":56112987},{"NoteNumber":62,"Velocity":92,"Duration":94637,"SoundDuration":94637,"Delta":56112987},{"NoteNumber":83,"Velocity":77,"Duration":110410,"SoundDuration":110410,"Delta":56207624},{"NoteNumber":89,"Velocity":78,"Duration":112305,"SoundDuration":112305,"Delta":56302262},{"NoteNumber":50,"Velocity":74,"Duration":94637,"SoundDuration":94637,"Delta":56302262},{"NoteNumber":62,"Velocity":88,"Duration":94637,"SoundDuration":94637,"Delta":56302262},{"NoteNumber":83,"Velocity":79,"Duration":122293,"SoundDuration":122293,"Delta":56396899},{"NoteNumber":91,"Velocity":79,"Duration":97614,"SoundDuration":97614,"Delta":56502906},{"NoteNumber":41,"Velocity":77,"Duration":814585,"SoundDuration":814585,"Delta":56502906},{"NoteNumber":53,"Velocity":92,"Duration":814585,"SoundDuration":814585,"Delta":56502906},{"NoteNumber":86,"Velocity":78,"Duration":97087,"SoundDuration":97087,"Delta":56600520},{"NoteNumber":83,"Velocity":77,"Duration":96566,"SoundDuration":96566,"Delta":56697608},{"NoteNumber":79,"Velocity":76,"Duration":96000,"SoundDuration":96000,"Delta":56794174},{"NoteNumber":74,"Velocity":75,"Duration":96205,"SoundDuration":96205,"Delta":56890175},{"NoteNumber":71,"Velocity":74,"Duration":96774,"SoundDuration":96774,"Delta":56986380},{"NoteNumber":67,"Velocity":73,"Duration":97350,"SoundDuration":97350,"Delta":57083155},{"NoteNumber":71,"Velocity":72,"Duration":136986,"SoundDuration":136986,"Delta":57180505},{"NoteNumber":49,"Velocity":80,"Duration":385851,"SoundDuration":385851,"Delta":57317492},{"NoteNumber":61,"Velocity":96,"Duration":385851,"SoundDuration":385851,"Delta":57317492},{"NoteNumber":67,"Velocity":74,"Duration":96462,"SoundDuration":96462,"Delta":57413955},{"NoteNumber":70,"Velocity":75,"Duration":96462,"SoundDuration":96462,"Delta":57510418},{"NoteNumber":73,"Velocity":75,"Duration":96462,"SoundDuration":96462,"Delta":57606881},{"NoteNumber":76,"Velocity":76,"Duration":110410,"SoundDuration":110410,"Delta":57703344},{"NoteNumber":49,"Velocity":77,"Duration":94637,"SoundDuration":94637,"Delta":57703344},{"NoteNumber":61,"Velocity":92,"Duration":94637,"SoundDuration":94637,"Delta":57703344},{"NoteNumber":79,"Velocity":77,"Duration":110410,"SoundDuration":110410,"Delta":57797981},{"NoteNumber":82,"Velocity":78,"Duration":111998,"SoundDuration":111998,"Delta":57892618},{"NoteNumber":49,"Velocity":74,"Duration":94637,"SoundDuration":94637,"Delta":57892618},{"NoteNumber":61,"Velocity":88,"Duration":94637,"SoundDuration":94637,"Delta":57892618},{"NoteNumber":85,"Velocity":79,"Duration":120347,"SoundDuration":120347,"Delta":57987255},{"NoteNumber":91,"Velocity":79,"Duration":97297,"SoundDuration":97297,"Delta":58091422},{"NoteNumber":40,"Velocity":77,"Duration":817558,"SoundDuration":817558,"Delta":58091422},{"NoteNumber":52,"Velocity":92,"Duration":817558,"SoundDuration":817558,"Delta":58091422},{"NoteNumber":88,"Velocity":78,"Duration":97402,"SoundDuration":97402,"Delta":58188720},{"NoteNumber":85,"Velocity":77,"Duration":97192,"SoundDuration":97192,"Delta":58286122},{"NoteNumber":82,"Velocity":76,"Duration":97087,"SoundDuration":97087,"Delta":58383315},{"NoteNumber":79,"Velocity":75,"Duration":96878,"SoundDuration":96878,"Delta":58480402},{"NoteNumber":76,"Velocity":74,"Duration":97403,"SoundDuration":97403,"Delta":58577281},{"NoteNumber":73,"Velocity":73,"Duration":97932,"SoundDuration":97932,"Delta":58674684},{"NoteNumber":70,"Velocity":72,"Duration":136363,"SoundDuration":136363,"Delta":58772617},{"NoteNumber":62,"Velocity":96,"Duration":389609,"SoundDuration":389609,"Delta":58908980},{"NoteNumber":50,"Velocity":80,"Duration":389609,"SoundDuration":389609,"Delta":58908980},{"NoteNumber":67,"Velocity":74,"Duration":97402,"SoundDuration":97402,"Delta":59006383},{"NoteNumber":71,"Velocity":75,"Duration":97402,"SoundDuration":97402,"Delta":59103785},{"NoteNumber":77,"Velocity":75,"Duration":97402,"SoundDuration":97402,"Delta":59201188},{"NoteNumber":79,"Velocity":76,"Duration":111465,"SoundDuration":111465,"Delta":59298590},{"NoteNumber":50,"Velocity":77,"Duration":71656,"SoundDuration":71656,"Delta":59298590},{"NoteNumber":62,"Velocity":92,"Duration":71656,"SoundDuration":71656,"Delta":59298590},{"NoteNumber":83,"Velocity":77,"Duration":111465,"SoundDuration":111465,"Delta":59394132},{"NoteNumber":89,"Velocity":78,"Duration":112782,"SoundDuration":112782,"Delta":59489673},{"NoteNumber":50,"Velocity":74,"Duration":71656,"SoundDuration":71656,"Delta":59489673},{"NoteNumber":62,"Velocity":88,"Duration":71656,"SoundDuration":71656,"Delta":59489673},{"NoteNumber":83,"Velocity":79,"Duration":119734,"SoundDuration":119734,"Delta":59585215},{"NoteNumber":91,"Velocity":79,"Duration":97614,"SoundDuration":97614,"Delta":59688663},{"NoteNumber":41,"Velocity":77,"Duration":814585,"SoundDuration":814585,"Delta":59688663},{"NoteNumber":53,"Velocity":92,"Duration":814585,"SoundDuration":814585,"Delta":59688663},{"NoteNumber":86,"Velocity":78,"Duration":97087,"SoundDuration":97087,"Delta":59786277},{"NoteNumber":83,"Velocity":77,"Duration":96566,"SoundDuration":96566,"Delta":59883365},{"NoteNumber":79,"Velocity":76,"Duration":96000,"SoundDuration":96000,"Delta":59979932},{"NoteNumber":74,"Velocity":75,"Duration":96205,"SoundDuration":96205,"Delta":60075932},{"NoteNumber":71,"Velocity":74,"Duration":96774,"SoundDuration":96774,"Delta":60172138},{"NoteNumber":67,"Velocity":73,"Duration":97350,"SoundDuration":97350,"Delta":60268912},{"NoteNumber":71,"Velocity":72,"Duration":136986,"SoundDuration":136986,"Delta":60366263},{"NoteNumber":73,"Velocity":71,"Duration":119571,"SoundDuration":119571,"Delta":60503249},{"NoteNumber":40,"Velocity":58,"Duration":406115,"SoundDuration":406115,"Delta":60503249},{"NoteNumber":52,"Velocity":69,"Duration":406115,"SoundDuration":406115,"Delta":60503249},{"NoteNumber":79,"Velocity":65,"Duration":118759,"SoundDuration":118759,"Delta":60605813},{"NoteNumber":82,"Velocity":65,"Duration":117959,"SoundDuration":117959,"Delta":60707681},{"NoteNumber":85,"Velocity":65,"Duration":117169,"SoundDuration":117169,"Delta":60808862},{"NoteNumber":74,"Velocity":74,"Duration":116390,"SoundDuration":116390,"Delta":60909365},{"NoteNumber":38,"Velocity":62,"Duration":395356,"SoundDuration":395356,"Delta":60909365},{"NoteNumber":50,"Velocity":73,"Duration":395356,"SoundDuration":395356,"Delta":60909365},{"NoteNumber":79,"Velocity":70,"Duration":115621,"SoundDuration":115621,"Delta":61009198},{"NoteNumber":83,"Velocity":70,"Duration":114862,"SoundDuration":114862,"Delta":61108372},{"NoteNumber":86,"Velocity":70,"Duration":114060,"SoundDuration":114060,"Delta":61206895},{"NoteNumber":76,"Velocity":79,"Duration":113636,"SoundDuration":113636,"Delta":61304721},{"NoteNumber":37,"Velocity":66,"Duration":389609,"SoundDuration":389609,"Delta":61304721},{"NoteNumber":49,"Velocity":79,"Duration":389609,"SoundDuration":389609,"Delta":61304721},{"NoteNumber":79,"Velocity":72,"Duration":113636,"SoundDuration":113636,"Delta":61402124},{"NoteNumber":82,"Velocity":72,"Duration":113636,"SoundDuration":113636,"Delta":61499526},{"NoteNumber":88,"Velocity":72,"Duration":113636,"SoundDuration":113636,"Delta":61596929},{"NoteNumber":78,"Velocity":83,"Duration":114381,"SoundDuration":114381,"Delta":61694331},{"NoteNumber":38,"Velocity":70,"Duration":430466,"SoundDuration":430466,"Delta":61694331},{"NoteNumber":50,"Velocity":84,"Duration":430466,"SoundDuration":430466,"Delta":61694331},{"NoteNumber":81,"Velocity":73,"Duration":115896,"SoundDuration":115896,"Delta":61792265},{"NoteNumber":84,"Velocity":73,"Duration":122683,"SoundDuration":122683,"Delta":61891495},{"NoteNumber":90,"Velocity":73,"Duration":148820,"SoundDuration":148820,"Delta":61992055},{"NoteNumber":59,"Velocity":88,"Duration":385851,"SoundDuration":385851,"Delta":62124798},{"NoteNumber":55,"Velocity":74,"Duration":385851,"SoundDuration":385851,"Delta":62124798},{"NoteNumber":67,"Velocity":74,"Duration":96462,"SoundDuration":96462,"Delta":62221261},{"NoteNumber":71,"Velocity":75,"Duration":96462,"SoundDuration":96462,"Delta":62317724},{"NoteNumber":76,"Velocity":75,"Duration":96462,"SoundDuration":96462,"Delta":62414187},{"NoteNumber":79,"Velocity":76,"Duration":94043,"SoundDuration":94043,"Delta":62510650},{"NoteNumber":55,"Velocity":74,"Duration":188088,"SoundDuration":188088,"Delta":62510650},{"NoteNumber":59,"Velocity":88,"Duration":188088,"SoundDuration":188088,"Delta":62510650},{"NoteNumber":83,"Velocity":77,"Duration":94044,"SoundDuration":94044,"Delta":62604694},{"NoteNumber":88,"Velocity":78,"Duration":94043,"SoundDuration":94043,"Delta":62698738},{"NoteNumber":55,"Velocity":71,"Duration":200050,"SoundDuration":200050,"Delta":62698738},{"NoteNumber":59,"Velocity":84,"Duration":200050,"SoundDuration":200050,"Delta":62698738},{"NoteNumber":91,"Velocity":79,"Duration":106006,"SoundDuration":106006,"Delta":62792782},{"NoteNumber":95,"Velocity":79,"Duration":96930,"SoundDuration":96930,"Delta":62898789},{"NoteNumber":43,"Velocity":74,"Duration":806789,"SoundDuration":806789,"Delta":62898789},{"NoteNumber":52,"Velocity":88,"Duration":806789,"SoundDuration":806789,"Delta":62898789},{"NoteNumber":91,"Velocity":78,"Duration":96205,"SoundDuration":96205,"Delta":62995720},{"NoteNumber":88,"Velocity":77,"Duration":95542,"SoundDuration":95542,"Delta":63091926},{"NoteNumber":83,"Velocity":76,"Duration":94887,"SoundDuration":94887,"Delta":63187468},{"NoteNumber":79,"Velocity":75,"Duration":94538,"SoundDuration":94538,"Delta":63282355},{"NoteNumber":76,"Velocity":74,"Duration":95390,"SoundDuration":95390,"Delta":63376893},{"NoteNumber":71,"Velocity":73,"Duration":96309,"SoundDuration":96309,"Delta":63472284},{"NoteNumber":67,"Velocity":72,"Duration":136986,"SoundDuration":136986,"Delta":63568593},{"NoteNumber":59,"Velocity":88,"Duration":385851,"SoundDuration":385851,"Delta":63705579},{"NoteNumber":55,"Velocity":74,"Duration":385851,"SoundDuration":385851,"Delta":63705579},{"NoteNumber":67,"Velocity":74,"Duration":96462,"SoundDuration":96462,"Delta":63802042},{"NoteNumber":71,"Velocity":75,"Duration":96462,"SoundDuration":96462,"Delta":63898505},{"NoteNumber":75,"Velocity":75,"Duration":96462,"SoundDuration":96462,"Delta":63994968},{"NoteNumber":79,"Velocity":76,"Duration":94339,"SoundDuration":94339,"Delta":64091431},{"NoteNumber":55,"Velocity":74,"Duration":188678,"SoundDuration":188678,"Delta":64091431},{"NoteNumber":59,"Velocity":88,"Duration":188678,"SoundDuration":188678,"Delta":64091431},{"NoteNumber":83,"Velocity":77,"Duration":94339,"SoundDuration":94339,"Delta":64185770},{"NoteNumber":87,"Velocity":78,"Duration":94339,"SoundDuration":94339,"Delta":64280110},{"NoteNumber":55,"Velocity":71,"Duration":200346,"SoundDuration":200346,"Delta":64280110},{"NoteNumber":59,"Velocity":84,"Duration":200346,"SoundDuration":200346,"Delta":64280110},{"NoteNumber":91,"Velocity":79,"Duration":106007,"SoundDuration":106007,"Delta":64374449},{"NoteNumber":95,"Velocity":79,"Duration":96618,"SoundDuration":96618,"Delta":64480456},{"NoteNumber":43,"Velocity":74,"Duration":806840,"SoundDuration":806840,"Delta":64480456},{"NoteNumber":51,"Velocity":88,"Duration":806840,"SoundDuration":806840,"Delta":64480456},{"NoteNumber":91,"Velocity":78,"Duration":96000,"SoundDuration":96000,"Delta":64577075},{"NoteNumber":87,"Velocity":77,"Duration":95389,"SoundDuration":95389,"Delta":64673075},{"NoteNumber":83,"Velocity":76,"Duration":94786,"SoundDuration":94786,"Delta":64768465},{"NoteNumber":79,"Velocity":75,"Duration":94637,"SoundDuration":94637,"Delta":64863252},{"NoteNumber":75,"Velocity":74,"Duration":95644,"SoundDuration":95644,"Delta":64957890},{"NoteNumber":71,"Velocity":73,"Duration":96776,"SoundDuration":96776,"Delta":65053534},{"NoteNumber":67,"Velocity":72,"Duration":136986,"SoundDuration":136986,"Delta":65150311},{"NoteNumber":59,"Velocity":88,"Duration":389610,"SoundDuration":389610,"Delta":65287297},{"NoteNumber":55,"Velocity":74,"Duration":389610,"SoundDuration":389610,"Delta":65287297},{"NoteNumber":67,"Velocity":74,"Duration":97402,"SoundDuration":97402,"Delta":65384700},{"NoteNumber":71,"Velocity":75,"Duration":97402,"SoundDuration":97402,"Delta":65482102},{"NoteNumber":76,"Velocity":75,"Duration":97402,"SoundDuration":97402,"Delta":65579505},{"NoteNumber":79,"Velocity":76,"Duration":95541,"SoundDuration":95541,"Delta":65676907},{"NoteNumber":55,"Velocity":74,"Duration":191083,"SoundDuration":191083,"Delta":65676907},{"NoteNumber":59,"Velocity":88,"Duration":191083,"SoundDuration":191083,"Delta":65676907},{"NoteNumber":83,"Velocity":77,"Duration":95541,"SoundDuration":95541,"Delta":65772449},{"NoteNumber":88,"Velocity":78,"Duration":95541,"SoundDuration":95541,"Delta":65867990},{"NoteNumber":55,"Velocity":71,"Duration":201548,"SoundDuration":201548,"Delta":65867990},{"NoteNumber":59,"Velocity":84,"Duration":201548,"SoundDuration":201548,"Delta":65867990},{"NoteNumber":91,"Velocity":79,"Duration":106007,"SoundDuration":106007,"Delta":65963532},{"NoteNumber":95,"Velocity":79,"Duration":97613,"SoundDuration":97613,"Delta":66069539},{"NoteNumber":43,"Velocity":74,"Duration":814585,"SoundDuration":814585,"Delta":66069539},{"NoteNumber":52,"Velocity":88,"Duration":814585,"SoundDuration":814585,"Delta":66069539},{"NoteNumber":91,"Velocity":78,"Duration":97087,"SoundDuration":97087,"Delta":66167153},{"NoteNumber":88,"Velocity":77,"Duration":96566,"SoundDuration":96566,"Delta":66264240},{"NoteNumber":83,"Velocity":76,"Duration":96000,"SoundDuration":96000,"Delta":66360807},{"NoteNumber":79,"Velocity":75,"Duration":96205,"SoundDuration":96205,"Delta":66456807},{"NoteNumber":76,"Velocity":74,"Duration":96774,"SoundDuration":96774,"Delta":66553013},{"NoteNumber":71,"Velocity":73,"Duration":97350,"SoundDuration":97350,"Delta":66649788},{"NoteNumber":67,"Velocity":72,"Duration":136986,"SoundDuration":136986,"Delta":66747138},{"NoteNumber":59,"Velocity":92,"Duration":402685,"SoundDuration":402685,"Delta":66884124},{"NoteNumber":55,"Velocity":77,"Duration":402685,"SoundDuration":402685,"Delta":66884124},{"NoteNumber":67,"Velocity":77,"Duration":100671,"SoundDuration":100671,"Delta":66984796},{"NoteNumber":71,"Velocity":78,"Duration":100671,"SoundDuration":100671,"Delta":67085467},{"NoteNumber":74,"Velocity":78,"Duration":100671,"SoundDuration":100671,"Delta":67186138},{"NoteNumber":77,"Velocity":79,"Duration":98360,"SoundDuration":98360,"Delta":67286809},{"NoteNumber":55,"Velocity":77,"Duration":196721,"SoundDuration":196721,"Delta":67286809},{"NoteNumber":59,"Velocity":92,"Duration":196721,"SoundDuration":196721,"Delta":67286809},{"NoteNumber":83,"Velocity":80,"Duration":98360,"SoundDuration":98360,"Delta":67385170},{"NoteNumber":86,"Velocity":81,"Duration":98360,"SoundDuration":98360,"Delta":67483531},{"NoteNumber":55,"Velocity":74,"Duration":222327,"SoundDuration":222327,"Delta":67483531},{"NoteNumber":59,"Velocity":88,"Duration":222327,"SoundDuration":222327,"Delta":67483531},{"NoteNumber":89,"Velocity":82,"Duration":123966,"SoundDuration":123966,"Delta":67581892},{"NoteNumber":95,"Velocity":82,"Duration":99502,"SoundDuration":99502,"Delta":67705859},{"NoteNumber":43,"Velocity":77,"Duration":820403,"SoundDuration":820403,"Delta":67705859},{"NoteNumber":53,"Velocity":92,"Duration":820403,"SoundDuration":820403,"Delta":67705859},{"NoteNumber":89,"Velocity":81,"Duration":98847,"SoundDuration":98847,"Delta":67805361},{"NoteNumber":86,"Velocity":80,"Duration":98200,"SoundDuration":98200,"Delta":67904208},{"NoteNumber":83,"Velocity":79,"Duration":97561,"SoundDuration":97561,"Delta":68002408},{"NoteNumber":77,"Velocity":78,"Duration":97509,"SoundDuration":97509,"Delta":68099970},{"NoteNumber":74,"Velocity":77,"Duration":98848,"SoundDuration":98848,"Delta":68197479},{"NoteNumber":71,"Velocity":76,"Duration":100280,"SoundDuration":100280,"Delta":68296327},{"NoteNumber":65,"Velocity":75,"Duration":129653,"SoundDuration":129653,"Delta":68396608},{"NoteNumber":77,"Velocity":80,"Duration":107752,"SoundDuration":107752,"Delta":68526262},{"NoteNumber":43,"Velocity":71,"Duration":427036,"SoundDuration":427036,"Delta":68526262},{"NoteNumber":55,"Velocity":84,"Duration":427036,"SoundDuration":427036,"Delta":68526262},{"NoteNumber":83,"Velocity":73,"Duration":107079,"SoundDuration":107079,"Delta":68634014},{"NoteNumber":86,"Velocity":73,"Duration":106446,"SoundDuration":106446,"Delta":68741094},{"NoteNumber":89,"Velocity":73,"Duration":105758,"SoundDuration":105758,"Delta":68847540},{"NoteNumber":78,"Velocity":78,"Duration":105109,"SoundDuration":105109,"Delta":68953298},{"NoteNumber":42,"Velocity":64,"Duration":416657,"SoundDuration":416657,"Delta":68953298},{"NoteNumber":54,"Velocity":77,"Duration":416657,"SoundDuration":416657,"Delta":68953298},{"NoteNumber":83,"Velocity":74,"Duration":104469,"SoundDuration":104469,"Delta":69058408},{"NoteNumber":86,"Velocity":74,"Duration":103866,"SoundDuration":103866,"Delta":69162878},{"NoteNumber":90,"Velocity":75,"Duration":103211,"SoundDuration":103211,"Delta":69266744},{"NoteNumber":80,"Velocity":85,"Duration":102739,"SoundDuration":102739,"Delta":69369956},{"NoteNumber":41,"Velocity":77,"Duration":410842,"SoundDuration":410842,"Delta":69369956},{"NoteNumber":53,"Velocity":90,"Duration":410842,"SoundDuration":410842,"Delta":69369956},{"NoteNumber":83,"Velocity":78,"Duration":102739,"SoundDuration":102739,"Delta":69472695},{"NoteNumber":86,"Velocity":79,"Duration":102739,"SoundDuration":102739,"Delta":69575435},{"NoteNumber":92,"Velocity":79,"Duration":102622,"SoundDuration":102622,"Delta":69678175},{"NoteNumber":82,"Velocity":91,"Duration":103719,"SoundDuration":103719,"Delta":69780798},{"NoteNumber":42,"Velocity":72,"Duration":448340,"SoundDuration":448340,"Delta":69780798},{"NoteNumber":54,"Velocity":86,"Duration":448340,"SoundDuration":448340,"Delta":69780798},{"NoteNumber":85,"Velocity":81,"Duration":105543,"SoundDuration":105543,"Delta":69884517},{"NoteNumber":88,"Velocity":81,"Duration":106334,"SoundDuration":106334,"Delta":69990061},{"NoteNumber":94,"Velocity":81,"Duration":132743,"SoundDuration":132743,"Delta":70096395},{"NoteNumber":74,"Velocity":77,"Duration":415225,"SoundDuration":415225,"Delta":70229138},{"NoteNumber":78,"Velocity":77,"Duration":415225,"SoundDuration":415225,"Delta":70229138},{"NoteNumber":83,"Velocity":77,"Duration":415225,"SoundDuration":415225,"Delta":70229138},{"NoteNumber":86,"Velocity":92,"Duration":415225,"SoundDuration":415225,"Delta":70229138},{"NoteNumber":47,"Velocity":78,"Duration":103806,"SoundDuration":103806,"Delta":70229138},{"NoteNumber":59,"Velocity":68,"Duration":103806,"SoundDuration":103806,"Delta":70332944},{"NoteNumber":62,"Velocity":69,"Duration":103806,"SoundDuration":103806,"Delta":70436750},{"NoteNumber":59,"Velocity":69,"Duration":103806,"SoundDuration":103806,"Delta":70540557},{"NoteNumber":74,"Velocity":77,"Duration":202020,"SoundDuration":202020,"Delta":70644363},{"NoteNumber":78,"Velocity":77,"Duration":202020,"SoundDuration":202020,"Delta":70644363},{"NoteNumber":83,"Velocity":77,"Duration":202020,"SoundDuration":202020,"Delta":70644363},{"NoteNumber":86,"Velocity":92,"Duration":202020,"SoundDuration":202020,"Delta":70644363},{"NoteNumber":54,"Velocity":79,"Duration":101010,"SoundDuration":101010,"Delta":70644363},{"NoteNumber":59,"Velocity":71,"Duration":101010,"SoundDuration":101010,"Delta":70745373},{"NoteNumber":74,"Velocity":74,"Duration":212120,"SoundDuration":212120,"Delta":70846383},{"NoteNumber":78,"Velocity":74,"Duration":212120,"SoundDuration":212120,"Delta":70846383},{"NoteNumber":83,"Velocity":74,"Duration":212120,"SoundDuration":212120,"Delta":70846383},{"NoteNumber":86,"Velocity":88,"Duration":212120,"SoundDuration":212120,"Delta":70846383},{"NoteNumber":50,"Velocity":75,"Duration":101010,"SoundDuration":101010,"Delta":70846383},{"NoteNumber":54,"Velocity":71,"Duration":111110,"SoundDuration":111110,"Delta":70947393},{"NoteNumber":78,"Velocity":77,"Duration":830449,"SoundDuration":830449,"Delta":71058504},{"NoteNumber":82,"Velocity":77,"Duration":830449,"SoundDuration":830449,"Delta":71058504},{"NoteNumber":85,"Velocity":77,"Duration":830449,"SoundDuration":830449,"Delta":71058504},{"NoteNumber":90,"Velocity":92,"Duration":830449,"SoundDuration":830449,"Delta":71058504},{"NoteNumber":42,"Velocity":78,"Duration":103806,"SoundDuration":103806,"Delta":71058504},{"NoteNumber":54,"Velocity":68,"Duration":103806,"SoundDuration":103806,"Delta":71162310},{"NoteNumber":58,"Velocity":73,"Duration":103806,"SoundDuration":103806,"Delta":71266116},{"NoteNumber":54,"Velocity":67,"Duration":103806,"SoundDuration":103806,"Delta":71369923},{"NoteNumber":49,"Velocity":74,"Duration":103806,"SoundDuration":103806,"Delta":71473729},{"NoteNumber":54,"Velocity":65,"Duration":103806,"SoundDuration":103806,"Delta":71577535},{"NoteNumber":46,"Velocity":71,"Duration":103806,"SoundDuration":103806,"Delta":71681341},{"NoteNumber":49,"Velocity":65,"Duration":103806,"SoundDuration":103806,"Delta":71785148},{"NoteNumber":73,"Velocity":77,"Duration":415225,"SoundDuration":415225,"Delta":71888954},{"NoteNumber":76,"Velocity":77,"Duration":415225,"SoundDuration":415225,"Delta":71888954},{"NoteNumber":81,"Velocity":77,"Duration":415225,"SoundDuration":415225,"Delta":71888954},{"NoteNumber":85,"Velocity":92,"Duration":415225,"SoundDuration":415225,"Delta":71888954},{"NoteNumber":45,"Velocity":78,"Duration":103806,"SoundDuration":103806,"Delta":71888954},{"NoteNumber":57,"Velocity":68,"Duration":103806,"SoundDuration":103806,"Delta":71992760},{"NoteNumber":61,"Velocity":69,"Duration":103806,"SoundDuration":103806,"Delta":72096566},{"NoteNumber":57,"Velocity":69,"Duration":103806,"SoundDuration":103806,"Delta":72200373},{"NoteNumber":73,"Velocity":77,"Duration":202020,"SoundDuration":202020,"Delta":72304179},{"NoteNumber":76,"Velocity":77,"Duration":202020,"SoundDuration":202020,"Delta":72304179},{"NoteNumber":81,"Velocity":77,"Duration":202020,"SoundDuration":202020,"Delta":72304179},{"NoteNumber":85,"Velocity":92,"Duration":202020,"SoundDuration":202020,"Delta":72304179},{"NoteNumber":52,"Velocity":79,"Duration":101010,"SoundDuration":101010,"Delta":72304179},{"NoteNumber":57,"Velocity":71,"Duration":101010,"SoundDuration":101010,"Delta":72405189},{"NoteNumber":73,"Velocity":74,"Duration":212120,"SoundDuration":212120,"Delta":72506199},{"NoteNumber":76,"Velocity":74,"Duration":212120,"SoundDuration":212120,"Delta":72506199},{"NoteNumber":81,"Velocity":74,"Duration":212120,"SoundDuration":212120,"Delta":72506199},{"NoteNumber":85,"Velocity":88,"Duration":212120,"SoundDuration":212120,"Delta":72506199},{"NoteNumber":49,"Velocity":75,"Duration":101010,"SoundDuration":101010,"Delta":72506199},{"NoteNumber":52,"Velocity":71,"Duration":111110,"SoundDuration":111110,"Delta":72607209},{"NoteNumber":76,"Velocity":77,"Duration":830449,"SoundDuration":830449,"Delta":72718320},{"NoteNumber":80,"Velocity":77,"Duration":830449,"SoundDuration":830449,"Delta":72718320},{"NoteNumber":83,"Velocity":77,"Duration":830449,"SoundDuration":830449,"Delta":72718320},{"NoteNumber":88,"Velocity":92,"Duration":830449,"SoundDuration":830449,"Delta":72718320},{"NoteNumber":40,"Velocity":78,"Duration":103806,"SoundDuration":103806,"Delta":72718320},{"NoteNumber":52,"Velocity":68,"Duration":103806,"SoundDuration":103806,"Delta":72822126},{"NoteNumber":56,"Velocity":73,"Duration":103806,"SoundDuration":103806,"Delta":72925932},{"NoteNumber":52,"Velocity":67,"Duration":103806,"SoundDuration":103806,"Delta":73029739},{"NoteNumber":47,"Velocity":74,"Duration":103806,"SoundDuration":103806,"Delta":73133545},{"NoteNumber":52,"Velocity":65,"Duration":103806,"SoundDuration":103806,"Delta":73237351},{"NoteNumber":44,"Velocity":71,"Duration":103806,"SoundDuration":103806,"Delta":73341157},{"NoteNumber":47,"Velocity":65,"Duration":103806,"SoundDuration":103806,"Delta":73444964},{"NoteNumber":71,"Velocity":70,"Duration":415225,"SoundDuration":415225,"Delta":73548770},{"NoteNumber":74,"Velocity":70,"Duration":415225,"SoundDuration":415225,"Delta":73548770},{"NoteNumber":79,"Velocity":70,"Duration":415225,"SoundDuration":415225,"Delta":73548770},{"NoteNumber":83,"Velocity":83,"Duration":415225,"SoundDuration":415225,"Delta":73548770},{"NoteNumber":43,"Velocity":71,"Duration":103806,"SoundDuration":103806,"Delta":73548770},{"NoteNumber":55,"Velocity":61,"Duration":103806,"SoundDuration":103806,"Delta":73652576},{"NoteNumber":59,"Velocity":62,"Duration":103806,"SoundDuration":103806,"Delta":73756382},{"NoteNumber":55,"Velocity":62,"Duration":103806,"SoundDuration":103806,"Delta":73860189},{"NoteNumber":71,"Velocity":69,"Duration":205479,"SoundDuration":205479,"Delta":73963995},{"NoteNumber":74,"Velocity":69,"Duration":205479,"SoundDuration":205479,"Delta":73963995},{"NoteNumber":79,"Velocity":69,"Duration":205479,"SoundDuration":205479,"Delta":73963995},{"NoteNumber":83,"Velocity":82,"Duration":205479,"SoundDuration":205479,"Delta":73963995},{"NoteNumber":50,"Velocity":71,"Duration":102739,"SoundDuration":102739,"Delta":73963995},{"NoteNumber":55,"Velocity":63,"Duration":102739,"SoundDuration":102739,"Delta":74066735},{"NoteNumber":71,"Velocity":66,"Duration":213850,"SoundDuration":213850,"Delta":74169474},{"NoteNumber":74,"Velocity":66,"Duration":213850,"SoundDuration":213850,"Delta":74169474},{"NoteNumber":79,"Velocity":66,"Duration":213850,"SoundDuration":213850,"Delta":74169474},{"NoteNumber":83,"Velocity":78,"Duration":213850,"SoundDuration":213850,"Delta":74169474},{"NoteNumber":47,"Velocity":66,"Duration":102739,"SoundDuration":102739,"Delta":74169474},{"NoteNumber":50,"Velocity":62,"Duration":111110,"SoundDuration":111110,"Delta":74272214},{"NoteNumber":74,"Velocity":68,"Duration":415225,"SoundDuration":415225,"Delta":74383325},{"NoteNumber":78,"Velocity":68,"Duration":415225,"SoundDuration":415225,"Delta":74383325},{"NoteNumber":81,"Velocity":68,"Duration":415225,"SoundDuration":415225,"Delta":74383325},{"NoteNumber":86,"Velocity":80,"Duration":415225,"SoundDuration":415225,"Delta":74383325},{"NoteNumber":38,"Velocity":69,"Duration":103806,"SoundDuration":103806,"Delta":74383325},{"NoteNumber":50,"Velocity":59,"Duration":103806,"SoundDuration":103806,"Delta":74487131},{"NoteNumber":54,"Velocity":58,"Duration":103806,"SoundDuration":103806,"Delta":74590938},{"NoteNumber":57,"Velocity":57,"Duration":103806,"SoundDuration":103806,"Delta":74694744},{"NoteNumber":71,"Velocity":63,"Duration":421053,"SoundDuration":421053,"Delta":74798550},{"NoteNumber":74,"Velocity":63,"Duration":421053,"SoundDuration":421053,"Delta":74798550},{"NoteNumber":79,"Velocity":63,"Duration":421053,"SoundDuration":421053,"Delta":74798550},{"NoteNumber":83,"Velocity":76,"Duration":421053,"SoundDuration":421053,"Delta":74798550},{"NoteNumber":43,"Velocity":63,"Duration":105263,"SoundDuration":105263,"Delta":74798550},{"NoteNumber":47,"Velocity":55,"Duration":105263,"SoundDuration":105263,"Delta":74903813},{"NoteNumber":55,"Velocity":55,"Duration":105263,"SoundDuration":105263,"Delta":75009077},{"NoteNumber":59,"Velocity":54,"Duration":105263,"SoundDuration":105263,"Delta":75114340},{"NoteNumber":69,"Velocity":65,"Duration":415225,"SoundDuration":415225,"Delta":75219603},{"NoteNumber":74,"Velocity":65,"Duration":415225,"SoundDuration":415225,"Delta":75219603},{"NoteNumber":79,"Velocity":65,"Duration":415225,"SoundDuration":415225,"Delta":75219603},{"NoteNumber":81,"Velocity":77,"Duration":415225,"SoundDuration":415225,"Delta":75219603},{"NoteNumber":38,"Velocity":66,"Duration":103806,"SoundDuration":103806,"Delta":75219603},{"NoteNumber":50,"Velocity":57,"Duration":103806,"SoundDuration":103806,"Delta":75323409},{"NoteNumber":55,"Velocity":57,"Duration":103806,"SoundDuration":103806,"Delta":75427216},{"NoteNumber":57,"Velocity":57,"Duration":103806,"SoundDuration":103806,"Delta":75531022},{"NoteNumber":69,"Velocity":63,"Duration":422534,"SoundDuration":422534,"Delta":75634828},{"NoteNumber":74,"Velocity":63,"Duration":422534,"SoundDuration":422534,"Delta":75634828},{"NoteNumber":78,"Velocity":63,"Duration":422534,"SoundDuration":422534,"Delta":75634828},{"NoteNumber":81,"Velocity":75,"Duration":422534,"SoundDuration":422534,"Delta":75634828},{"NoteNumber":38,"Velocity":65,"Duration":105633,"SoundDuration":105633,"Delta":75634828},{"NoteNumber":50,"Velocity":58,"Duration":105633,"SoundDuration":105633,"Delta":75740462},{"NoteNumber":54,"Velocity":61,"Duration":105633,"SoundDuration":105633,"Delta":75846096},{"NoteNumber":57,"Velocity":57,"Duration":105633,"SoundDuration":105633,"Delta":75951729},{"NoteNumber":71,"Velocity":62,"Duration":830449,"SoundDuration":830449,"Delta":76057363},{"NoteNumber":74,"Velocity":62,"Duration":830449,"SoundDuration":830449,"Delta":76057363},{"NoteNumber":79,"Velocity":62,"Duration":830449,"SoundDuration":830449,"Delta":76057363},{"NoteNumber":83,"Velocity":73,"Duration":830449,"SoundDuration":830449,"Delta":76057363},{"NoteNumber":31,"Velocity":63,"Duration":103806,"SoundDuration":103806,"Delta":76057363},{"NoteNumber":43,"Velocity":54,"Duration":103806,"SoundDuration":103806,"Delta":76161169},{"NoteNumber":47,"Velocity":53,"Duration":103806,"SoundDuration":103806,"Delta":76264976},{"NoteNumber":50,"Velocity":53,"Duration":103806,"SoundDuration":103806,"Delta":76368782},{"NoteNumber":55,"Velocity":58,"Duration":103806,"SoundDuration":103806,"Delta":76472588},{"NoteNumber":50,"Velocity":50,"Duration":103806,"SoundDuration":103806,"Delta":76576394},{"NoteNumber":47,"Velocity":50,"Duration":103806,"SoundDuration":103806,"Delta":76680201},{"NoteNumber":43,"Velocity":50,"Duration":103806,"SoundDuration":103806,"Delta":76784007},{"NoteNumber":71,"Velocity":62,"Duration":415225,"SoundDuration":415225,"Delta":76887813},{"NoteNumber":74,"Velocity":62,"Duration":415225,"SoundDuration":415225,"Delta":76887813},{"NoteNumber":79,"Velocity":62,"Duration":415225,"SoundDuration":415225,"Delta":76887813},{"NoteNumber":83,"Velocity":74,"Duration":415225,"SoundDuration":415225,"Delta":76887813},{"NoteNumber":31,"Velocity":63,"Duration":103806,"SoundDuration":103806,"Delta":76887813},{"NoteNumber":55,"Velocity":55,"Duration":103806,"SoundDuration":103806,"Delta":76991619},{"NoteNumber":59,"Velocity":56,"Duration":103806,"SoundDuration":103806,"Delta":77095426},{"NoteNumber":55,"Velocity":56,"Duration":103806,"SoundDuration":103806,"Delta":77199232},{"NoteNumber":71,"Velocity":62,"Duration":202020,"SoundDuration":202020,"Delta":77303038},{"NoteNumber":74,"Velocity":62,"Duration":202020,"SoundDuration":202020,"Delta":77303038},{"NoteNumber":79,"Velocity":62,"Duration":202020,"SoundDuration":202020,"Delta":77303038},{"NoteNumber":83,"Velocity":74,"Duration":202020,"SoundDuration":202020,"Delta":77303038},{"NoteNumber":50,"Velocity":64,"Duration":101010,"SoundDuration":101010,"Delta":77303038},{"NoteNumber":55,"Velocity":57,"Duration":101010,"SoundDuration":101010,"Delta":77404048},{"NoteNumber":71,"Velocity":60,"Duration":212120,"SoundDuration":212120,"Delta":77505058},{"NoteNumber":74,"Velocity":60,"Duration":212120,"SoundDuration":212120,"Delta":77505058},{"NoteNumber":79,"Velocity":60,"Duration":212120,"SoundDuration":212120,"Delta":77505058},{"NoteNumber":83,"Velocity":71,"Duration":212120,"SoundDuration":212120,"Delta":77505058},{"NoteNumber":47,"Velocity":61,"Duration":101010,"SoundDuration":101010,"Delta":77505058},{"NoteNumber":50,"Velocity":57,"Duration":111110,"SoundDuration":111110,"Delta":77606068},{"NoteNumber":74,"Velocity":62,"Duration":830449,"SoundDuration":830449,"Delta":77717179},{"NoteNumber":78,"Velocity":62,"Duration":830449,"SoundDuration":830449,"Delta":77717179},{"NoteNumber":81,"Velocity":62,"Duration":830449,"SoundDuration":830449,"Delta":77717179},{"NoteNumber":86,"Velocity":74,"Duration":830449,"SoundDuration":830449,"Delta":77717179},{"NoteNumber":38,"Velocity":63,"Duration":103806,"SoundDuration":103806,"Delta":77717179},{"NoteNumber":50,"Velocity":55,"Duration":103806,"SoundDuration":103806,"Delta":77820985},{"NoteNumber":54,"Velocity":59,"Duration":103806,"SoundDuration":103806,"Delta":77924792},{"NoteNumber":50,"Velocity":54,"Duration":103806,"SoundDuration":103806,"Delta":78028598},{"NoteNumber":45,"Velocity":60,"Duration":103806,"SoundDuration":103806,"Delta":78132404},{"NoteNumber":50,"Velocity":52,"Duration":103806,"SoundDuration":103806,"Delta":78236210},{"NoteNumber":42,"Velocity":57,"Duration":103806,"SoundDuration":103806,"Delta":78340017},{"NoteNumber":45,"Velocity":52,"Duration":103806,"SoundDuration":103806,"Delta":78443823},{"NoteNumber":69,"Velocity":62,"Duration":415225,"SoundDuration":415225,"Delta":78547629},{"NoteNumber":72,"Velocity":62,"Duration":415225,"SoundDuration":415225,"Delta":78547629},{"NoteNumber":77,"Velocity":62,"Duration":415225,"SoundDuration":415225,"Delta":78547629},{"NoteNumber":81,"Velocity":74,"Duration":415225,"SoundDuration":415225,"Delta":78547629},{"NoteNumber":41,"Velocity":63,"Duration":103806,"SoundDuration":103806,"Delta":78547629},{"NoteNumber":53,"Velocity":55,"Duration":103806,"SoundDuration":103806,"Delta":78651435},{"NoteNumber":57,"Velocity":56,"Duration":103806,"SoundDuration":103806,"Delta":78755242},{"NoteNumber":53,"Velocity":56,"Duration":103806,"SoundDuration":103806,"Delta":78859048},{"NoteNumber":69,"Velocity":62,"Duration":202020,"SoundDuration":202020,"Delta":78962854},{"NoteNumber":72,"Velocity":62,"Duration":202020,"SoundDuration":202020,"Delta":78962854},{"NoteNumber":77,"Velocity":62,"Duration":202020,"SoundDuration":202020,"Delta":78962854},{"NoteNumber":81,"Velocity":74,"Duration":202020,"SoundDuration":202020,"Delta":78962854},{"NoteNumber":48,"Velocity":64,"Duration":101010,"SoundDuration":101010,"Delta":78962854},{"NoteNumber":53,"Velocity":57,"Duration":101010,"SoundDuration":101010,"Delta":79063864},{"NoteNumber":69,"Velocity":60,"Duration":212120,"SoundDuration":212120,"Delta":79164874},{"NoteNumber":72,"Velocity":60,"Duration":212120,"SoundDuration":212120,"Delta":79164874},{"NoteNumber":77,"Velocity":60,"Duration":212120,"SoundDuration":212120,"Delta":79164874},{"NoteNumber":81,"Velocity":71,"Duration":212120,"SoundDuration":212120,"Delta":79164874},{"NoteNumber":45,"Velocity":61,"Duration":101010,"SoundDuration":101010,"Delta":79164874},{"NoteNumber":48,"Velocity":57,"Duration":111110,"SoundDuration":111110,"Delta":79265884},{"NoteNumber":72,"Velocity":62,"Duration":830449,"SoundDuration":830449,"Delta":79376995},{"NoteNumber":76,"Velocity":62,"Duration":830449,"SoundDuration":830449,"Delta":79376995},{"NoteNumber":79,"Velocity":62,"Duration":830449,"SoundDuration":830449,"Delta":79376995},{"NoteNumber":84,"Velocity":74,"Duration":830449,"SoundDuration":830449,"Delta":79376995},{"NoteNumber":36,"Velocity":63,"Duration":103806,"SoundDuration":103806,"Delta":79376995},{"NoteNumber":48,"Velocity":55,"Duration":103806,"SoundDuration":103806,"Delta":79480801},{"NoteNumber":52,"Velocity":59,"Duration":103806,"SoundDuration":103806,"Delta":79584608},{"NoteNumber":48,"Velocity":54,"Duration":103806,"SoundDuration":103806,"Delta":79688414},{"NoteNumber":43,"Velocity":60,"Duration":103806,"SoundDuration":103806,"Delta":79792220},{"NoteNumber":48,"Velocity":52,"Duration":103806,"SoundDuration":103806,"Delta":79896026},{"NoteNumber":40,"Velocity":57,"Duration":103806,"SoundDuration":103806,"Delta":79999833},{"NoteNumber":43,"Velocity":52,"Duration":103806,"SoundDuration":103806,"Delta":80103639},{"NoteNumber":67,"Velocity":59,"Duration":415225,"SoundDuration":415225,"Delta":80207445},{"NoteNumber":71,"Velocity":59,"Duration":415225,"SoundDuration":415225,"Delta":80207445},{"NoteNumber":76,"Velocity":59,"Duration":415225,"SoundDuration":415225,"Delta":80207445},{"NoteNumber":79,"Velocity":70,"Duration":415225,"SoundDuration":415225,"Delta":80207445},{"NoteNumber":40,"Velocity":60,"Duration":103806,"SoundDuration":103806,"Delta":80207445},{"NoteNumber":52,"Velocity":51,"Duration":103806,"SoundDuration":103806,"Delta":80311251},{"NoteNumber":55,"Velocity":52,"Duration":103806,"SoundDuration":103806,"Delta":80415058},{"NoteNumber":52,"Velocity":52,"Duration":103806,"SoundDuration":103806,"Delta":80518864},{"NoteNumber":67,"Velocity":58,"Duration":206185,"SoundDuration":206185,"Delta":80622670},{"NoteNumber":71,"Velocity":58,"Duration":206185,"SoundDuration":206185,"Delta":80622670},{"NoteNumber":76,"Velocity":58,"Duration":206185,"SoundDuration":206185,"Delta":80622670},{"NoteNumber":79,"Velocity":69,"Duration":206185,"SoundDuration":206185,"Delta":80622670},{"NoteNumber":47,"Velocity":60,"Duration":103092,"SoundDuration":103092,"Delta":80622670},{"NoteNumber":52,"Velocity":53,"Duration":103092,"SoundDuration":103092,"Delta":80725763},{"NoteNumber":67,"Velocity":56,"Duration":214203,"SoundDuration":214203,"Delta":80828856},{"NoteNumber":71,"Velocity":56,"Duration":214203,"SoundDuration":214203,"Delta":80828856},{"NoteNumber":76,"Velocity":56,"Duration":214203,"SoundDuration":214203,"Delta":80828856},{"NoteNumber":79,"Velocity":66,"Duration":214203,"SoundDuration":214203,"Delta":80828856},{"NoteNumber":43,"Velocity":56,"Duration":103092,"SoundDuration":103092,"Delta":80828856},{"NoteNumber":47,"Velocity":52,"Duration":111110,"SoundDuration":111110,"Delta":80931948},{"NoteNumber":71,"Velocity":57,"Duration":422534,"SoundDuration":422534,"Delta":81043059},{"NoteNumber":75,"Velocity":57,"Duration":422534,"SoundDuration":422534,"Delta":81043059},{"NoteNumber":78,"Velocity":57,"Duration":422534,"SoundDuration":422534,"Delta":81043059},{"NoteNumber":83,"Velocity":68,"Duration":422534,"SoundDuration":422534,"Delta":81043059},{"NoteNumber":35,"Velocity":58,"Duration":105633,"SoundDuration":105633,"Delta":81043059},{"NoteNumber":47,"Velocity":50,"Duration":105633,"SoundDuration":105633,"Delta":81148693},{"NoteNumber":51,"Velocity":49,"Duration":105633,"SoundDuration":105633,"Delta":81254327},{"NoteNumber":54,"Velocity":48,"Duration":105633,"SoundDuration":105633,"Delta":81359961},{"NoteNumber":67,"Velocity":53,"Duration":422535,"SoundDuration":422535,"Delta":81465594},{"NoteNumber":71,"Velocity":53,"Duration":422535,"SoundDuration":422535,"Delta":81465594},{"NoteNumber":76,"Velocity":53,"Duration":422535,"SoundDuration":422535,"Delta":81465594},{"NoteNumber":79,"Velocity":64,"Duration":422535,"SoundDuration":422535,"Delta":81465594},{"NoteNumber":40,"Velocity":53,"Duration":105633,"SoundDuration":105633,"Delta":81465594},{"NoteNumber":47,"Velocity":46,"Duration":105633,"SoundDuration":105633,"Delta":81571228},{"NoteNumber":52,"Velocity":46,"Duration":105633,"SoundDuration":105633,"Delta":81676862},{"NoteNumber":55,"Velocity":45,"Duration":105633,"SoundDuration":105633,"Delta":81782496},{"NoteNumber":66,"Velocity":55,"Duration":424028,"SoundDuration":424028,"Delta":81888129},{"NoteNumber":71,"Velocity":55,"Duration":424028,"SoundDuration":424028,"Delta":81888129},{"NoteNumber":76,"Velocity":55,"Duration":424028,"SoundDuration":424028,"Delta":81888129},{"NoteNumber":78,"Velocity":65,"Duration":424028,"SoundDuration":424028,"Delta":81888129},{"NoteNumber":35,"Velocity":56,"Duration":106007,"SoundDuration":106007,"Delta":81888129},{"NoteNumber":47,"Velocity":48,"Duration":106006,"SoundDuration":106006,"Delta":81994136},{"NoteNumber":52,"Velocity":48,"Duration":106007,"SoundDuration":106007,"Delta":82100143},{"NoteNumber":54,"Velocity":48,"Duration":106007,"SoundDuration":106007,"Delta":82206150},{"NoteNumber":66,"Velocity":53,"Duration":424027,"SoundDuration":424027,"Delta":82312157},{"NoteNumber":71,"Velocity":53,"Duration":424027,"SoundDuration":424027,"Delta":82312157},{"NoteNumber":75,"Velocity":53,"Duration":424027,"SoundDuration":424027,"Delta":82312157},{"NoteNumber":78,"Velocity":63,"Duration":424027,"SoundDuration":424027,"Delta":82312157},{"NoteNumber":35,"Velocity":55,"Duration":106006,"SoundDuration":106006,"Delta":82312157},{"NoteNumber":47,"Velocity":49,"Duration":106007,"SoundDuration":106007,"Delta":82418164},{"NoteNumber":51,"Velocity":51,"Duration":106006,"SoundDuration":106006,"Delta":82524171},{"NoteNumber":54,"Velocity":48,"Duration":106007,"SoundDuration":106007,"Delta":82630178},{"NoteNumber":67,"Velocity":52,"Duration":830449,"SoundDuration":830449,"Delta":82736185},{"NoteNumber":71,"Velocity":52,"Duration":830449,"SoundDuration":830449,"Delta":82736185},{"NoteNumber":76,"Velocity":52,"Duration":830449,"SoundDuration":830449,"Delta":82736185},{"NoteNumber":79,"Velocity":62,"Duration":830449,"SoundDuration":830449,"Delta":82736185},{"NoteNumber":40,"Velocity":53,"Duration":103806,"SoundDuration":103806,"Delta":82736185},{"NoteNumber":52,"Velocity":45,"Duration":103806,"SoundDuration":103806,"Delta":82839992},{"NoteNumber":55,"Velocity":45,"Duration":103806,"SoundDuration":103806,"Delta":82943798},{"NoteNumber":59,"Velocity":45,"Duration":103806,"SoundDuration":103806,"Delta":83047604},{"NoteNumber":64,"Velocity":49,"Duration":103806,"SoundDuration":103806,"Delta":83151410},{"NoteNumber":59,"Velocity":42,"Duration":103806,"SoundDuration":103806,"Delta":83255217},{"NoteNumber":55,"Velocity":42,"Duration":103806,"SoundDuration":103806,"Delta":83359023},{"NoteNumber":52,"Velocity":42,"Duration":103806,"SoundDuration":103806,"Delta":83462829},{"NoteNumber":68,"Velocity":54,"Duration":78847,"SoundDuration":78847,"Delta":83566635},{"NoteNumber":80,"Velocity":64,"Duration":78847,"SoundDuration":78847,"Delta":83566635},{"NoteNumber":60,"Velocity":49,"Duration":78847,"SoundDuration":78847,"Delta":83566635},{"NoteNumber":64,"Velocity":59,"Duration":78847,"SoundDuration":78847,"Delta":83566635},{"NoteNumber":59,"Velocity":48,"Duration":76650,"SoundDuration":76650,"Delta":83776896},{"NoteNumber":62,"Velocity":56,"Duration":76650,"SoundDuration":76650,"Delta":83776896},{"NoteNumber":69,"Velocity":57,"Duration":604758,"SoundDuration":604758,"Delta":83981297},{"NoteNumber":81,"Velocity":68,"Duration":604758,"SoundDuration":604758,"Delta":83981297},{"NoteNumber":57,"Velocity":48,"Duration":75594,"SoundDuration":75594,"Delta":83981297},{"NoteNumber":60,"Velocity":56,"Duration":75594,"SoundDuration":75594,"Delta":83981297},{"NoteNumber":52,"Velocity":48,"Duration":75594,"SoundDuration":75594,"Delta":84182883},{"NoteNumber":59,"Velocity":56,"Duration":75594,"SoundDuration":75594,"Delta":84182883},{"NoteNumber":48,"Velocity":51,"Duration":597965,"SoundDuration":597965,"Delta":84384469},{"NoteNumber":57,"Velocity":60,"Duration":597965,"SoundDuration":597965,"Delta":84384469},{"NoteNumber":71,"Velocity":52,"Duration":74321,"SoundDuration":74321,"Delta":84586055},{"NoteNumber":83,"Velocity":61,"Duration":74321,"SoundDuration":74321,"Delta":84586055},{"NoteNumber":72,"Velocity":51,"Duration":74321,"SoundDuration":74321,"Delta":84784245},{"NoteNumber":84,"Velocity":60,"Duration":74321,"SoundDuration":74321,"Delta":84784245},{"NoteNumber":71,"Velocity":52,"Duration":74321,"SoundDuration":74321,"Delta":84982435},{"NoteNumber":83,"Velocity":61,"Duration":74321,"SoundDuration":74321,"Delta":84982435},{"NoteNumber":55,"Velocity":48,"Duration":74321,"SoundDuration":74321,"Delta":84982435},{"NoteNumber":65,"Velocity":57,"Duration":74321,"SoundDuration":74321,"Delta":84982435},{"NoteNumber":70,"Velocity":54,"Duration":80288,"SoundDuration":80288,"Delta":85180625},{"NoteNumber":82,"Velocity":64,"Duration":80288,"SoundDuration":80288,"Delta":85180625},{"NoteNumber":54,"Velocity":49,"Duration":80288,"SoundDuration":80288,"Delta":85180625},{"NoteNumber":66,"Velocity":59,"Duration":80288,"SoundDuration":80288,"Delta":85180625},{"NoteNumber":61,"Velocity":48,"Duration":76917,"SoundDuration":76917,"Delta":85394727},{"NoteNumber":64,"Velocity":56,"Duration":76917,"SoundDuration":76917,"Delta":85394727},{"NoteNumber":71,"Velocity":57,"Duration":604758,"SoundDuration":604758,"Delta":85599841},{"NoteNumber":83,"Velocity":68,"Duration":604758,"SoundDuration":604758,"Delta":85599841},{"NoteNumber":59,"Velocity":48,"Duration":75594,"SoundDuration":75594,"Delta":85599841},{"NoteNumber":62,"Velocity":56,"Duration":75594,"SoundDuration":75594,"Delta":85599841},{"NoteNumber":54,"Velocity":48,"Duration":75594,"SoundDuration":75594,"Delta":85801427},{"NoteNumber":61,"Velocity":56,"Duration":75594,"SoundDuration":75594,"Delta":85801427},{"NoteNumber":50,"Velocity":51,"Duration":596635,"SoundDuration":596635,"Delta":86003013},{"NoteNumber":59,"Velocity":60,"Duration":596635,"SoundDuration":596635,"Delta":86003013},{"NoteNumber":73,"Velocity":61,"Duration":74071,"SoundDuration":74071,"Delta":86204599},{"NoteNumber":85,"Velocity":61,"Duration":74071,"SoundDuration":74071,"Delta":86204599},{"NoteNumber":74,"Velocity":51,"Duration":74071,"SoundDuration":74071,"Delta":86402124},{"NoteNumber":86,"Velocity":60,"Duration":74071,"SoundDuration":74071,"Delta":86402124},{"NoteNumber":76,"Velocity":52,"Duration":74071,"SoundDuration":74071,"Delta":86599648},{"NoteNumber":88,"Velocity":61,"Duration":74071,"SoundDuration":74071,"Delta":86599648},{"NoteNumber":48,"Velocity":48,"Duration":74071,"SoundDuration":74071,"Delta":86599648},{"NoteNumber":57,"Velocity":57,"Duration":74071,"SoundDuration":74071,"Delta":86599648},{"NoteNumber":77,"Velocity":54,"Duration":403171,"SoundDuration":403171,"Delta":86797173},{"NoteNumber":89,"Velocity":64,"Duration":403171,"SoundDuration":403171,"Delta":86797173},{"NoteNumber":47,"Velocity":49,"Duration":75594,"SoundDuration":75594,"Delta":86797173},{"NoteNumber":56,"Velocity":59,"Duration":75594,"SoundDuration":75594,"Delta":86797173},{"NoteNumber":50,"Velocity":46,"Duration":75594,"SoundDuration":75594,"Delta":86998759},{"NoteNumber":59,"Velocity":55,"Duration":75594,"SoundDuration":75594,"Delta":86998759},{"NoteNumber":77,"Velocity":52,"Duration":75594,"SoundDuration":75594,"Delta":87200345},{"NoteNumber":89,"Velocity":61,"Duration":75594,"SoundDuration":75594,"Delta":87200345},{"NoteNumber":47,"Velocity":49,"Duration":75594,"SoundDuration":75594,"Delta":87200345},{"NoteNumber":56,"Velocity":59,"Duration":75594,"SoundDuration":75594,"Delta":87200345},{"NoteNumber":77,"Velocity":52,"Duration":79997,"SoundDuration":79997,"Delta":87401931},{"NoteNumber":89,"Velocity":61,"Duration":79997,"SoundDuration":79997,"Delta":87401931},{"NoteNumber":50,"Velocity":44,"Duration":79997,"SoundDuration":79997,"Delta":87401931},{"NoteNumber":59,"Velocity":53,"Duration":79997,"SoundDuration":79997,"Delta":87401931},{"NoteNumber":68,"Velocity":64,"Duration":71202,"SoundDuration":71202,"Delta":87615256},{"NoteNumber":80,"Velocity":77,"Duration":71202,"SoundDuration":71202,"Delta":87615256},{"NoteNumber":62,"Velocity":59,"Duration":71202,"SoundDuration":71202,"Delta":87615256},{"NoteNumber":65,"Velocity":70,"Duration":71202,"SoundDuration":71202,"Delta":87615256},{"NoteNumber":71,"Velocity":57,"Duration":78671,"SoundDuration":78671,"Delta":87805130},{"NoteNumber":83,"Velocity":67,"Duration":78671,"SoundDuration":78671,"Delta":87805130},{"NoteNumber":62,"Velocity":57,"Duration":612961,"SoundDuration":612961,"Delta":87805130},{"NoteNumber":65,"Velocity":68,"Duration":612961,"SoundDuration":612961,"Delta":87805130},{"NoteNumber":68,"Velocity":57,"Duration":75594,"SoundDuration":75594,"Delta":88014920},{"NoteNumber":80,"Velocity":67,"Duration":75594,"SoundDuration":75594,"Delta":88014920},{"NoteNumber":71,"Velocity":57,"Duration":75594,"SoundDuration":75594,"Delta":88216506},{"NoteNumber":83,"Velocity":67,"Duration":75594,"SoundDuration":75594,"Delta":88216506},{"NoteNumber":76,"Velocity":54,"Duration":403171,"SoundDuration":403171,"Delta":88418092},{"NoteNumber":88,"Velocity":64,"Duration":403171,"SoundDuration":403171,"Delta":88418092},{"NoteNumber":46,"Velocity":49,"Duration":75594,"SoundDuration":75594,"Delta":88418092},{"NoteNumber":55,"Velocity":59,"Duration":75594,"SoundDuration":75594,"Delta":88418092},{"NoteNumber":49,"Velocity":46,"Duration":75594,"SoundDuration":75594,"Delta":88619678},{"NoteNumber":58,"Velocity":55,"Duration":75594,"SoundDuration":75594,"Delta":88619678},{"NoteNumber":76,"Velocity":52,"Duration":75594,"SoundDuration":75594,"Delta":88821264},{"NoteNumber":88,"Velocity":61,"Duration":75594,"SoundDuration":75594,"Delta":88821264},{"NoteNumber":46,"Velocity":49,"Duration":75594,"SoundDuration":75594,"Delta":88821264},{"NoteNumber":55,"Velocity":59,"Duration":75594,"SoundDuration":75594,"Delta":88821264},{"NoteNumber":76,"Velocity":52,"Duration":80581,"SoundDuration":80581,"Delta":89022850},{"NoteNumber":88,"Velocity":62,"Duration":80581,"SoundDuration":80581,"Delta":89022850},{"NoteNumber":49,"Velocity":44,"Duration":80581,"SoundDuration":80581,"Delta":89022850},{"NoteNumber":58,"Velocity":53,"Duration":80581,"SoundDuration":80581,"Delta":89022850},{"NoteNumber":67,"Velocity":61,"Duration":71656,"SoundDuration":71656,"Delta":89237734},{"NoteNumber":79,"Velocity":73,"Duration":71656,"SoundDuration":71656,"Delta":89237734},{"NoteNumber":61,"Velocity":59,"Duration":71656,"SoundDuration":71656,"Delta":89237734},{"NoteNumber":64,"Velocity":70,"Duration":71656,"SoundDuration":71656,"Delta":89237734},{"NoteNumber":70,"Velocity":56,"Duration":78671,"SoundDuration":78671,"Delta":89428817},{"NoteNumber":82,"Velocity":67,"Duration":78671,"SoundDuration":78671,"Delta":89428817},{"NoteNumber":61,"Velocity":56,"Duration":612961,"SoundDuration":612961,"Delta":89428817},{"NoteNumber":64,"Velocity":67,"Duration":612961,"SoundDuration":612961,"Delta":89428817},{"NoteNumber":67,"Velocity":56,"Duration":75594,"SoundDuration":75594,"Delta":89638607},{"NoteNumber":79,"Velocity":67,"Duration":75594,"SoundDuration":75594,"Delta":89638607},{"NoteNumber":70,"Velocity":57,"Duration":75594,"SoundDuration":75594,"Delta":89840193},{"NoteNumber":82,"Velocity":68,"Duration":75594,"SoundDuration":75594,"Delta":89840193},{"NoteNumber":75,"Velocity":54,"Duration":404584,"SoundDuration":404584,"Delta":90041779},{"NoteNumber":87,"Velocity":64,"Duration":404584,"SoundDuration":404584,"Delta":90041779},{"NoteNumber":45,"Velocity":49,"Duration":75859,"SoundDuration":75859,"Delta":90041779},{"NoteNumber":54,"Velocity":59,"Duration":75859,"SoundDuration":75859,"Delta":90041779},{"NoteNumber":48,"Velocity":46,"Duration":75859,"SoundDuration":75859,"Delta":90244072},{"NoteNumber":57,"Velocity":55,"Duration":75859,"SoundDuration":75859,"Delta":90244072},{"NoteNumber":66,"Velocity":52,"Duration":74572,"SoundDuration":74572,"Delta":90446364},{"NoteNumber":78,"Velocity":61,"Duration":74572,"SoundDuration":74572,"Delta":90446364},{"NoteNumber":60,"Velocity":52,"Duration":403973,"SoundDuration":403973,"Delta":90446364},{"NoteNumber":63,"Velocity":59,"Duration":403973,"SoundDuration":403973,"Delta":90446364},{"NoteNumber":69,"Velocity":52,"Duration":76917,"SoundDuration":76917,"Delta":90645224},{"NoteNumber":81,"Velocity":62,"Duration":76917,"SoundDuration":76917,"Delta":90645224},{"NoteNumber":74,"Velocity":54,"Duration":404584,"SoundDuration":404584,"Delta":90850338},{"NoteNumber":86,"Velocity":64,"Duration":404584,"SoundDuration":404584,"Delta":90850338},{"NoteNumber":44,"Velocity":49,"Duration":75859,"SoundDuration":75859,"Delta":90850338},{"NoteNumber":53,"Velocity":59,"Duration":75859,"SoundDuration":75859,"Delta":90850338},{"NoteNumber":47,"Velocity":46,"Duration":75859,"SoundDuration":75859,"Delta":91052631},{"NoteNumber":56,"Velocity":55,"Duration":75859,"SoundDuration":75859,"Delta":91052631},{"NoteNumber":65,"Velocity":52,"Duration":76530,"SoundDuration":76530,"Delta":91254923},{"NoteNumber":77,"Velocity":61,"Duration":76530,"SoundDuration":76530,"Delta":91254923},{"NoteNumber":59,"Velocity":52,"Duration":414608,"SoundDuration":414608,"Delta":91254923},{"NoteNumber":62,"Velocity":59,"Duration":414608,"SoundDuration":414608,"Delta":91254923},{"NoteNumber":68,"Velocity":52,"Duration":78947,"SoundDuration":78947,"Delta":91459005},{"NoteNumber":80,"Velocity":62,"Duration":78947,"SoundDuration":78947,"Delta":91459005},{"NoteNumber":73,"Velocity":51,"Duration":413792,"SoundDuration":413792,"Delta":91669531},{"NoteNumber":85,"Velocity":60,"Duration":413792,"SoundDuration":413792,"Delta":91669531},{"NoteNumber":43,"Velocity":46,"Duration":77586,"SoundDuration":77586,"Delta":91669531},{"NoteNumber":52,"Velocity":56,"Duration":77586,"SoundDuration":77586,"Delta":91669531},{"NoteNumber":46,"Velocity":43,"Duration":77586,"SoundDuration":77586,"Delta":91876428},{"NoteNumber":55,"Velocity":51,"Duration":77586,"SoundDuration":77586,"Delta":91876428},{"NoteNumber":64,"Velocity":47,"Duration":78947,"SoundDuration":78947,"Delta":92083324},{"NoteNumber":76,"Velocity":56,"Duration":78947,"SoundDuration":78947,"Delta":92083324},{"NoteNumber":58,"Velocity":47,"Duration":428708,"SoundDuration":428708,"Delta":92083324},{"NoteNumber":61,"Velocity":54,"Duration":428708,"SoundDuration":428708,"Delta":92083324},{"NoteNumber":67,"Velocity":46,"Duration":81818,"SoundDuration":81818,"Delta":92293851},{"NoteNumber":79,"Velocity":55,"Duration":81818,"SoundDuration":81818,"Delta":92293851},{"NoteNumber":72,"Velocity":47,"Duration":425532,"SoundDuration":425532,"Delta":92512033},{"NoteNumber":84,"Velocity":56,"Duration":425532,"SoundDuration":425532,"Delta":92512033},{"NoteNumber":42,"Velocity":43,"Duration":79787,"SoundDuration":79787,"Delta":92512033},{"NoteNumber":51,"Velocity":51,"Duration":79787,"SoundDuration":79787,"Delta":92512033},{"NoteNumber":45,"Velocity":39,"Duration":79787,"SoundDuration":79787,"Delta":92724799},{"NoteNumber":54,"Velocity":47,"Duration":79787,"SoundDuration":79787,"Delta":92724799},{"NoteNumber":63,"Velocity":43,"Duration":83955,"SoundDuration":83955,"Delta":92937565},{"NoteNumber":75,"Velocity":51,"Duration":83955,"SoundDuration":83955,"Delta":92937565},{"NoteNumber":57,"Velocity":43,"Duration":461975,"SoundDuration":461975,"Delta":92937565},{"NoteNumber":60,"Velocity":49,"Duration":461975,"SoundDuration":461975,"Delta":92937565},{"NoteNumber":66,"Velocity":42,"Duration":89285,"SoundDuration":89285,"Delta":93161445},{"NoteNumber":78,"Velocity":50,"Duration":89285,"SoundDuration":89285,"Delta":93161445},{"NoteNumber":60,"Velocity":35,"Duration":106382,"SoundDuration":106382,"Delta":93399540},{"NoteNumber":66,"Velocity":42,"Duration":106382,"SoundDuration":106382,"Delta":93399540},{"NoteNumber":32,"Velocity":38,"Duration":106382,"SoundDuration":106382,"Delta":93399540},{"NoteNumber":72,"Velocity":38,"Duration":106383,"SoundDuration":106383,"Delta":93505923},{"NoteNumber":44,"Velocity":36,"Duration":106383,"SoundDuration":106383,"Delta":93505923},{"NoteNumber":60,"Velocity":35,"Duration":106132,"SoundDuration":106132,"Delta":93612306},{"NoteNumber":66,"Velocity":42,"Duration":106132,"SoundDuration":106132,"Delta":93612306},{"NoteNumber":32,"Velocity":39,"Duration":106132,"SoundDuration":106132,"Delta":93612306},{"NoteNumber":72,"Velocity":40,"Duration":106006,"SoundDuration":106006,"Delta":93718439},{"NoteNumber":44,"Velocity":36,"Duration":106006,"SoundDuration":106006,"Delta":93718439},{"NoteNumber":60,"Velocity":38,"Duration":105758,"SoundDuration":105758,"Delta":93824446},{"NoteNumber":66,"Velocity":45,"Duration":105758,"SoundDuration":105758,"Delta":93824446},{"NoteNumber":32,"Velocity":41,"Duration":105758,"SoundDuration":105758,"Delta":93824446},{"NoteNumber":72,"Velocity":41,"Duration":105633,"SoundDuration":105633,"Delta":93930204},{"NoteNumber":44,"Velocity":38,"Duration":105633,"SoundDuration":105633,"Delta":93930204},{"NoteNumber":60,"Velocity":40,"Duration":105510,"SoundDuration":105510,"Delta":94035838},{"NoteNumber":66,"Velocity":47,"Duration":105510,"SoundDuration":105510,"Delta":94035838},{"NoteNumber":32,"Velocity":42,"Duration":105510,"SoundDuration":105510,"Delta":94035838},{"NoteNumber":72,"Velocity":43,"Duration":105263,"SoundDuration":105263,"Delta":94141348},{"NoteNumber":44,"Velocity":39,"Duration":105263,"SoundDuration":105263,"Delta":94141348},{"NoteNumber":60,"Velocity":41,"Duration":105140,"SoundDuration":105140,"Delta":94246611},{"NoteNumber":66,"Velocity":49,"Duration":105140,"SoundDuration":105140,"Delta":94246611},{"NoteNumber":32,"Velocity":44,"Duration":105140,"SoundDuration":105140,"Delta":94246611},{"NoteNumber":72,"Velocity":45,"Duration":104894,"SoundDuration":104894,"Delta":94351752},{"NoteNumber":44,"Velocity":41,"Duration":104894,"SoundDuration":104894,"Delta":94351752},{"NoteNumber":60,"Velocity":43,"Duration":104773,"SoundDuration":104773,"Delta":94456647},{"NoteNumber":66,"Velocity":51,"Duration":104773,"SoundDuration":104773,"Delta":94456647},{"NoteNumber":32,"Velocity":45,"Duration":104773,"SoundDuration":104773,"Delta":94456647},{"NoteNumber":72,"Velocity":46,"Duration":104529,"SoundDuration":104529,"Delta":94561420},{"NoteNumber":44,"Velocity":44,"Duration":104529,"SoundDuration":104529,"Delta":94561420},{"NoteNumber":60,"Velocity":43,"Duration":104529,"SoundDuration":104529,"Delta":94665949},{"NoteNumber":66,"Velocity":52,"Duration":104529,"SoundDuration":104529,"Delta":94665949},{"NoteNumber":32,"Velocity":47,"Duration":104529,"SoundDuration":104529,"Delta":94665949},{"NoteNumber":72,"Velocity":48,"Duration":104166,"SoundDuration":104166,"Delta":94770479},{"NoteNumber":44,"Velocity":44,"Duration":104166,"SoundDuration":104166,"Delta":94770479},{"NoteNumber":60,"Velocity":45,"Duration":104166,"SoundDuration":104166,"Delta":94874646},{"NoteNumber":66,"Velocity":53,"Duration":104166,"SoundDuration":104166,"Delta":94874646},{"NoteNumber":32,"Velocity":48,"Duration":104166,"SoundDuration":104166,"Delta":94874646},{"NoteNumber":72,"Velocity":52,"Duration":103448,"SoundDuration":103448,"Delta":94978812},{"NoteNumber":44,"Velocity":47,"Duration":103448,"SoundDuration":103448,"Delta":94978812},{"NoteNumber":72,"Velocity":51,"Duration":103448,"SoundDuration":103448,"Delta":95082261},{"NoteNumber":78,"Velocity":61,"Duration":103448,"SoundDuration":103448,"Delta":95082261},{"NoteNumber":45,"Velocity":56,"Duration":103448,"SoundDuration":103448,"Delta":95082261},{"NoteNumber":84,"Velocity":56,"Duration":103092,"SoundDuration":103092,"Delta":95185709},{"NoteNumber":46,"Velocity":53,"Duration":103092,"SoundDuration":103092,"Delta":95185709},{"NoteNumber":72,"Velocity":52,"Duration":103092,"SoundDuration":103092,"Delta":95288802},{"NoteNumber":78,"Velocity":62,"Duration":103092,"SoundDuration":103092,"Delta":95288802},{"NoteNumber":47,"Velocity":54,"Duration":103092,"SoundDuration":103092,"Delta":95288802},{"NoteNumber":84,"Velocity":59,"Duration":102739,"SoundDuration":102739,"Delta":95391894},{"NoteNumber":48,"Velocity":55,"Duration":102739,"SoundDuration":102739,"Delta":95391894},{"NoteNumber":72,"Velocity":56,"Duration":102739,"SoundDuration":102739,"Delta":95494634},{"NoteNumber":78,"Velocity":67,"Duration":102739,"SoundDuration":102739,"Delta":95494634},{"NoteNumber":49,"Velocity":57,"Duration":102739,"SoundDuration":102739,"Delta":95494634},{"NoteNumber":84,"Velocity":62,"Duration":102389,"SoundDuration":102389,"Delta":95597374},{"NoteNumber":50,"Velocity":59,"Duration":102389,"SoundDuration":102389,"Delta":95597374},{"NoteNumber":72,"Velocity":59,"Duration":102389,"SoundDuration":102389,"Delta":95699763},{"NoteNumber":78,"Velocity":70,"Duration":102389,"SoundDuration":102389,"Delta":95699763},{"NoteNumber":51,"Velocity":60,"Duration":102389,"SoundDuration":102389,"Delta":95699763},{"NoteNumber":84,"Velocity":66,"Duration":102040,"SoundDuration":102040,"Delta":95802152},{"NoteNumber":52,"Velocity":61,"Duration":102040,"SoundDuration":102040,"Delta":95802152},{"NoteNumber":72,"Velocity":62,"Duration":102040,"SoundDuration":102040,"Delta":95904193},{"NoteNumber":78,"Velocity":74,"Duration":102040,"SoundDuration":102040,"Delta":95904193},{"NoteNumber":53,"Velocity":63,"Duration":102040,"SoundDuration":102040,"Delta":95904193},{"NoteNumber":84,"Velocity":69,"Duration":101695,"SoundDuration":101695,"Delta":96006233},{"NoteNumber":54,"Velocity":65,"Duration":101695,"SoundDuration":101695,"Delta":96006233},{"NoteNumber":72,"Velocity":64,"Duration":101694,"SoundDuration":101694,"Delta":96107928},{"NoteNumber":78,"Velocity":76,"Duration":101694,"SoundDuration":101694,"Delta":96107928},{"NoteNumber":55,"Velocity":67,"Duration":101694,"SoundDuration":101694,"Delta":96107928},{"NoteNumber":84,"Velocity":70,"Duration":101351,"SoundDuration":101351,"Delta":96209623},{"NoteNumber":56,"Velocity":68,"Duration":101351,"SoundDuration":101351,"Delta":96209623},{"NoteNumber":84,"Velocity":78,"Duration":101237,"SoundDuration":101237,"Delta":96310975},{"NoteNumber":72,"Velocity":66,"Duration":101237,"SoundDuration":101237,"Delta":96310975},{"NoteNumber":78,"Velocity":66,"Duration":101237,"SoundDuration":101237,"Delta":96310975},{"NoteNumber":44,"Velocity":61,"Duration":101237,"SoundDuration":101237,"Delta":96310975},{"NoteNumber":56,"Velocity":72,"Duration":101237,"SoundDuration":101237,"Delta":96310975},{"NoteNumber":84,"Velocity":77,"Duration":101010,"SoundDuration":101010,"Delta":96513222},{"NoteNumber":72,"Velocity":65,"Duration":101010,"SoundDuration":101010,"Delta":96513222},{"NoteNumber":78,"Velocity":65,"Duration":101010,"SoundDuration":101010,"Delta":96513222},{"NoteNumber":44,"Velocity":62,"Duration":101010,"SoundDuration":101010,"Delta":96513222},{"NoteNumber":56,"Velocity":73,"Duration":101010,"SoundDuration":101010,"Delta":96513222},{"NoteNumber":72,"Velocity":75,"Duration":99999,"SoundDuration":99999,"Delta":96714567},{"NoteNumber":78,"Velocity":75,"Duration":99999,"SoundDuration":99999,"Delta":96714567},{"NoteNumber":84,"Velocity":89,"Duration":99999,"SoundDuration":99999,"Delta":96714567},{"NoteNumber":44,"Velocity":63,"Duration":99999,"SoundDuration":99999,"Delta":96714567},{"NoteNumber":56,"Velocity":75,"Duration":99999,"SoundDuration":99999,"Delta":96714567},{"NoteNumber":74,"Velocity":76,"Duration":198239,"SoundDuration":198239,"Delta":96914234},{"NoteNumber":78,"Velocity":76,"Duration":198239,"SoundDuration":198239,"Delta":96914234},{"NoteNumber":84,"Velocity":90,"Duration":198239,"SoundDuration":198239,"Delta":96914234},{"NoteNumber":86,"Velocity":90,"Duration":198239,"SoundDuration":198239,"Delta":96914234},{"NoteNumber":56,"Velocity":65,"Duration":198239,"SoundDuration":198239,"Delta":96914234},{"NoteNumber":68,"Velocity":77,"Duration":198239,"SoundDuration":198239,"Delta":96914234},{"NoteNumber":74,"Velocity":78,"Duration":197368,"SoundDuration":197368,"Delta":97112473},{"NoteNumber":78,"Velocity":78,"Duration":197368,"SoundDuration":197368,"Delta":97112473},{"NoteNumber":84,"Velocity":92,"Duration":197368,"SoundDuration":197368,"Delta":97112473},{"NoteNumber":86,"Velocity":92,"Duration":197368,"SoundDuration":197368,"Delta":97112473},{"NoteNumber":56,"Velocity":68,"Duration":197368,"SoundDuration":197368,"Delta":97112473},{"NoteNumber":68,"Velocity":80,"Duration":197368,"SoundDuration":197368,"Delta":97112473},{"NoteNumber":74,"Velocity":80,"Duration":197368,"SoundDuration":197368,"Delta":97309842},{"NoteNumber":78,"Velocity":80,"Duration":197368,"SoundDuration":197368,"Delta":97309842},{"NoteNumber":84,"Velocity":94,"Duration":197368,"SoundDuration":197368,"Delta":97309842},{"NoteNumber":86,"Velocity":94,"Duration":197368,"SoundDuration":197368,"Delta":97309842},{"NoteNumber":56,"Velocity":70,"Duration":197368,"SoundDuration":197368,"Delta":97309842},{"NoteNumber":68,"Velocity":83,"Duration":197368,"SoundDuration":197368,"Delta":97309842},{"NoteNumber":74,"Velocity":82,"Duration":197368,"SoundDuration":197368,"Delta":97507210},{"NoteNumber":78,"Velocity":82,"Duration":197368,"SoundDuration":197368,"Delta":97507210},{"NoteNumber":84,"Velocity":97,"Duration":197368,"SoundDuration":197368,"Delta":97507210},{"NoteNumber":86,"Velocity":97,"Duration":197368,"SoundDuration":197368,"Delta":97507210},{"NoteNumber":56,"Velocity":73,"Duration":197368,"SoundDuration":197368,"Delta":97507210},{"NoteNumber":68,"Velocity":87,"Duration":197368,"SoundDuration":197368,"Delta":97507210},{"NoteNumber":74,"Velocity":82,"Duration":197368,"SoundDuration":197368,"Delta":97704579},{"NoteNumber":78,"Velocity":82,"Duration":197368,"SoundDuration":197368,"Delta":97704579},{"NoteNumber":84,"Velocity":97,"Duration":197368,"SoundDuration":197368,"Delta":97704579},{"NoteNumber":86,"Velocity":97,"Duration":197368,"SoundDuration":197368,"Delta":97704579},{"NoteNumber":56,"Velocity":75,"Duration":197368,"SoundDuration":197368,"Delta":97704579},{"NoteNumber":68,"Velocity":90,"Duration":197368,"SoundDuration":197368,"Delta":97704579},{"NoteNumber":74,"Velocity":84,"Duration":101695,"SoundDuration":101695,"Delta":97901947},{"NoteNumber":78,"Velocity":84,"Duration":101695,"SoundDuration":101695,"Delta":97901947},{"NoteNumber":84,"Velocity":99,"Duration":101695,"SoundDuration":101695,"Delta":97901947},{"NoteNumber":86,"Velocity":99,"Duration":101695,"SoundDuration":101695,"Delta":97901947},{"NoteNumber":56,"Velocity":78,"Duration":101695,"SoundDuration":101695,"Delta":97901947},{"NoteNumber":68,"Velocity":93,"Duration":101695,"SoundDuration":101695,"Delta":97901947},{"NoteNumber":74,"Velocity":86,"Duration":108303,"SoundDuration":108303,"Delta":98105337},{"NoteNumber":78,"Velocity":86,"Duration":108303,"SoundDuration":108303,"Delta":98105337},{"NoteNumber":84,"Velocity":101,"Duration":108303,"SoundDuration":108303,"Delta":98105337},{"NoteNumber":86,"Velocity":101,"Duration":108303,"SoundDuration":108303,"Delta":98105337},{"NoteNumber":56,"Velocity":81,"Duration":108303,"SoundDuration":108303,"Delta":98105337},{"NoteNumber":68,"Velocity":96,"Duration":108303,"SoundDuration":108303,"Delta":98105337},{"NoteNumber":76,"Velocity":88,"Duration":200704,"SoundDuration":200704,"Delta":98321944},{"NoteNumber":79,"Velocity":88,"Duration":200704,"SoundDuration":200704,"Delta":98321944},{"NoteNumber":84,"Velocity":88,"Duration":200704,"SoundDuration":200704,"Delta":98321944},{"NoteNumber":88,"Velocity":104,"Duration":200704,"SoundDuration":200704,"Delta":98321944},{"NoteNumber":55,"Velocity":87,"Duration":200704,"SoundDuration":200704,"Delta":98321944},{"NoteNumber":67,"Velocity":102,"Duration":200704,"SoundDuration":200704,"Delta":98321944},{"NoteNumber":77,"Velocity":81,"Duration":200704,"SoundDuration":200704,"Delta":98533211},{"NoteNumber":83,"Velocity":81,"Duration":200704,"SoundDuration":200704,"Delta":98533211},{"NoteNumber":86,"Velocity":81,"Duration":200704,"SoundDuration":200704,"Delta":98533211},{"NoteNumber":91,"Velocity":97,"Duration":200704,"SoundDuration":200704,"Delta":98533211},{"NoteNumber":31,"Velocity":81,"Duration":200704,"SoundDuration":200704,"Delta":98533211},{"NoteNumber":43,"Velocity":97,"Duration":200704,"SoundDuration":200704,"Delta":98533211},{"NoteNumber":77,"Velocity":83,"Duration":201040,"SoundDuration":201040,"Delta":98744479},{"NoteNumber":83,"Velocity":83,"Duration":201040,"SoundDuration":201040,"Delta":98744479},{"NoteNumber":86,"Velocity":83,"Duration":201040,"SoundDuration":201040,"Delta":98744479},{"NoteNumber":91,"Velocity":98,"Duration":201040,"SoundDuration":201040,"Delta":98744479},{"NoteNumber":31,"Velocity":81,"Duration":201040,"SoundDuration":201040,"Delta":98744479},{"NoteNumber":43,"Velocity":97,"Duration":201040,"SoundDuration":201040,"Delta":98744479},{"NoteNumber":77,"Velocity":83,"Duration":202468,"SoundDuration":202468,"Delta":98956120},{"NoteNumber":83,"Velocity":83,"Duration":202468,"SoundDuration":202468,"Delta":98956120},{"NoteNumber":86,"Velocity":83,"Duration":202468,"SoundDuration":202468,"Delta":98956120},{"NoteNumber":91,"Velocity":98,"Duration":202468,"SoundDuration":202468,"Delta":98956120},{"NoteNumber":31,"Velocity":81,"Duration":202468,"SoundDuration":202468,"Delta":98956120},{"NoteNumber":43,"Velocity":97,"Duration":202468,"SoundDuration":202468,"Delta":98956120},{"NoteNumber":77,"Velocity":83,"Duration":203917,"SoundDuration":203917,"Delta":99169264},{"NoteNumber":83,"Velocity":83,"Duration":203917,"SoundDuration":203917,"Delta":99169264},{"NoteNumber":86,"Velocity":83,"Duration":203917,"SoundDuration":203917,"Delta":99169264},{"NoteNumber":91,"Velocity":98,"Duration":203917,"SoundDuration":203917,"Delta":99169264},{"NoteNumber":31,"Velocity":81,"Duration":203917,"SoundDuration":203917,"Delta":99169264},{"NoteNumber":43,"Velocity":97,"Duration":203917,"SoundDuration":203917,"Delta":99169264},{"NoteNumber":77,"Velocity":81,"Duration":205386,"SoundDuration":205386,"Delta":99383934},{"NoteNumber":83,"Velocity":81,"Duration":205386,"SoundDuration":205386,"Delta":99383934},{"NoteNumber":86,"Velocity":81,"Duration":205386,"SoundDuration":205386,"Delta":99383934},{"NoteNumber":91,"Velocity":97,"Duration":205386,"SoundDuration":205386,"Delta":99383934},{"NoteNumber":31,"Velocity":81,"Duration":205386,"SoundDuration":205386,"Delta":99383934},{"NoteNumber":43,"Velocity":97,"Duration":205386,"SoundDuration":205386,"Delta":99383934},{"NoteNumber":77,"Velocity":81,"Duration":213483,"SoundDuration":213483,"Delta":99600151},{"NoteNumber":83,"Velocity":81,"Duration":213483,"SoundDuration":213483,"Delta":99600151},{"NoteNumber":86,"Velocity":81,"Duration":213483,"SoundDuration":213483,"Delta":99600151},{"NoteNumber":91,"Velocity":97,"Duration":213483,"SoundDuration":213483,"Delta":99600151},{"NoteNumber":31,"Velocity":81,"Duration":213483,"SoundDuration":213483,"Delta":99600151},{"NoteNumber":43,"Velocity":97,"Duration":213483,"SoundDuration":213483,"Delta":99600151},{"NoteNumber":77,"Velocity":81,"Duration":228915,"SoundDuration":228915,"Delta":99824870},{"NoteNumber":83,"Velocity":81,"Duration":228915,"SoundDuration":228915,"Delta":99824870},{"NoteNumber":86,"Velocity":81,"Duration":228915,"SoundDuration":228915,"Delta":99824870},{"NoteNumber":91,"Velocity":97,"Duration":228915,"SoundDuration":228915,"Delta":99824870},{"NoteNumber":31,"Velocity":81,"Duration":228915,"SoundDuration":228915,"Delta":99824870},{"NoteNumber":43,"Velocity":97,"Duration":228915,"SoundDuration":228915,"Delta":99824870},{"NoteNumber":84,"Velocity":76,"Duration":106007,"SoundDuration":106007,"Delta":100065834},{"NoteNumber":88,"Velocity":90,"Duration":106007,"SoundDuration":106007,"Delta":100065834},{"NoteNumber":36,"Velocity":85,"Duration":424028,"SoundDuration":424028,"Delta":100065834},{"NoteNumber":48,"Velocity":100,"Duration":424028,"SoundDuration":424028,"Delta":100065834},{"NoteNumber":96,"Velocity":95,"Duration":106006,"SoundDuration":106006,"Delta":100171841},{"NoteNumber":91,"Velocity":95,"Duration":106007,"SoundDuration":106007,"Delta":100277848},{"NoteNumber":88,"Velocity":94,"Duration":106007,"SoundDuration":106007,"Delta":100383855},{"NoteNumber":84,"Velocity":93,"Duration":103092,"SoundDuration":103092,"Delta":100489862},{"NoteNumber":36,"Velocity":79,"Duration":77319,"SoundDuration":77319,"Delta":100489862},{"NoteNumber":48,"Velocity":95,"Duration":77319,"SoundDuration":77319,"Delta":100489862},{"NoteNumber":79,"Velocity":92,"Duration":103092,"SoundDuration":103092,"Delta":100592955},{"NoteNumber":76,"Velocity":91,"Duration":103092,"SoundDuration":103092,"Delta":100696047},{"NoteNumber":36,"Velocity":79,"Duration":77319,"SoundDuration":77319,"Delta":100696047},{"NoteNumber":48,"Velocity":95,"Duration":77319,"SoundDuration":77319,"Delta":100696047},{"NoteNumber":79,"Velocity":90,"Duration":103092,"SoundDuration":103092,"Delta":100799140},{"NoteNumber":72,"Velocity":90,"Duration":209058,"SoundDuration":209058,"Delta":100902233},{"NoteNumber":36,"Velocity":79,"Duration":418118,"SoundDuration":418118,"Delta":100902233},{"NoteNumber":48,"Velocity":95,"Duration":418118,"SoundDuration":418118,"Delta":100902233},{"NoteNumber":88,"Velocity":76,"Duration":104529,"SoundDuration":104529,"Delta":101111292},{"NoteNumber":91,"Velocity":90,"Duration":104529,"SoundDuration":104529,"Delta":101111292},{"NoteNumber":79,"Velocity":86,"Duration":104529,"SoundDuration":104529,"Delta":101215821},{"NoteNumber":89,"Velocity":79,"Duration":108695,"SoundDuration":108695,"Delta":101320351},{"NoteNumber":93,"Velocity":93,"Duration":108695,"SoundDuration":108695,"Delta":101320351},{"NoteNumber":36,"Velocity":81,"Duration":81521,"SoundDuration":81521,"Delta":101320351},{"NoteNumber":48,"Velocity":96,"Duration":81521,"SoundDuration":81521,"Delta":101320351},{"NoteNumber":81,"Velocity":86,"Duration":108695,"SoundDuration":108695,"Delta":101429047},{"NoteNumber":91,"Velocity":79,"Duration":114068,"SoundDuration":114068,"Delta":101537742},{"NoteNumber":94,"Velocity":93,"Duration":114068,"SoundDuration":114068,"Delta":101537742},{"NoteNumber":36,"Velocity":82,"Duration":85551,"SoundDuration":85551,"Delta":101537742},{"NoteNumber":48,"Velocity":97,"Duration":85551,"SoundDuration":85551,"Delta":101537742},{"NoteNumber":82,"Velocity":89,"Duration":120967,"SoundDuration":120967,"Delta":101651811},{"NoteNumber":89,"Velocity":83,"Duration":107527,"SoundDuration":107527,"Delta":101772779},{"NoteNumber":93,"Velocity":98,"Duration":107527,"SoundDuration":107527,"Delta":101772779},{"NoteNumber":37,"Velocity":89,"Duration":80645,"SoundDuration":80645,"Delta":101772779},{"NoteNumber":49,"Velocity":105,"Duration":80645,"SoundDuration":80645,"Delta":101772779},{"NoteNumber":81,"Velocity":89,"Duration":107526,"SoundDuration":107526,"Delta":101880306},{"NoteNumber":88,"Velocity":79,"Duration":107527,"SoundDuration":107527,"Delta":101987833},{"NoteNumber":91,"Velocity":94,"Duration":107527,"SoundDuration":107527,"Delta":101987833},{"NoteNumber":79,"Velocity":87,"Duration":107527,"SoundDuration":107527,"Delta":102095360},{"NoteNumber":86,"Velocity":79,"Duration":103092,"SoundDuration":103092,"Delta":102202887},{"NoteNumber":89,"Velocity":93,"Duration":103092,"SoundDuration":103092,"Delta":102202887},{"NoteNumber":38,"Velocity":86,"Duration":621429,"SoundDuration":621429,"Delta":102202887},{"NoteNumber":50,"Velocity":102,"Duration":621429,"SoundDuration":621429,"Delta":102202887},{"NoteNumber":77,"Velocity":86,"Duration":103092,"SoundDuration":103092,"Delta":102305979},{"NoteNumber":81,"Velocity":77,"Duration":103092,"SoundDuration":103092,"Delta":102409072},{"NoteNumber":88,"Velocity":91,"Duration":103092,"SoundDuration":103092,"Delta":102409072},{"NoteNumber":76,"Velocity":77,"Duration":103092,"SoundDuration":103092,"Delta":102512165},{"NoteNumber":77,"Velocity":73,"Duration":104529,"SoundDuration":104529,"Delta":102615258},{"NoteNumber":86,"Velocity":86,"Duration":104529,"SoundDuration":104529,"Delta":102615258},{"NoteNumber":74,"Velocity":76,"Duration":104529,"SoundDuration":104529,"Delta":102719787},{"NoteNumber":81,"Velocity":73,"Duration":104529,"SoundDuration":104529,"Delta":102824317},{"NoteNumber":85,"Velocity":87,"Duration":104529,"SoundDuration":104529,"Delta":102824317},{"NoteNumber":40,"Velocity":81,"Duration":78397,"SoundDuration":78397,"Delta":102824317},{"NoteNumber":52,"Velocity":96,"Duration":78397,"SoundDuration":78397,"Delta":102824317},{"NoteNumber":73,"Velocity":79,"Duration":104529,"SoundDuration":104529,"Delta":102928846},{"NoteNumber":81,"Velocity":78,"Duration":106007,"SoundDuration":106007,"Delta":103033376},{"NoteNumber":86,"Velocity":92,"Duration":106007,"SoundDuration":106007,"Delta":103033376},{"NoteNumber":41,"Velocity":79,"Duration":79505,"SoundDuration":79505,"Delta":103033376},{"NoteNumber":53,"Velocity":95,"Duration":79505,"SoundDuration":79505,"Delta":103033376},{"NoteNumber":74,"Velocity":81,"Duration":106006,"SoundDuration":106006,"Delta":103139383},{"NoteNumber":88,"Velocity":80,"Duration":106007,"SoundDuration":106007,"Delta":103245390},{"NoteNumber":97,"Velocity":95,"Duration":106007,"SoundDuration":106007,"Delta":103245390},{"NoteNumber":40,"Velocity":81,"Duration":79505,"SoundDuration":79505,"Delta":103245390},{"NoteNumber":52,"Velocity":96,"Duration":79505,"SoundDuration":79505,"Delta":103245390},{"NoteNumber":85,"Velocity":86,"Duration":114503,"SoundDuration":114503,"Delta":103351397},{"NoteNumber":86,"Velocity":90,"Duration":106382,"SoundDuration":106382,"Delta":103465900},{"NoteNumber":38,"Velocity":85,"Duration":425532,"SoundDuration":425532,"Delta":103465900},{"NoteNumber":50,"Velocity":100,"Duration":425532,"SoundDuration":425532,"Delta":103465900},{"NoteNumber":98,"Velocity":95,"Duration":106383,"SoundDuration":106383,"Delta":103572283},{"NoteNumber":93,"Velocity":95,"Duration":106382,"SoundDuration":106382,"Delta":103678666},{"NoteNumber":89,"Velocity":94,"Duration":106383,"SoundDuration":106383,"Delta":103785049},{"NoteNumber":86,"Velocity":93,"Duration":103092,"SoundDuration":103092,"Delta":103891432},{"NoteNumber":38,"Velocity":85,"Duration":77319,"SoundDuration":77319,"Delta":103891432},{"NoteNumber":50,"Velocity":100,"Duration":77319,"SoundDuration":77319,"Delta":103891432},{"NoteNumber":81,"Velocity":92,"Duration":103092,"SoundDuration":103092,"Delta":103994525},{"NoteNumber":77,"Velocity":91,"Duration":103092,"SoundDuration":103092,"Delta":104097618},{"NoteNumber":38,"Velocity":81,"Duration":77319,"SoundDuration":77319,"Delta":104097618},{"NoteNumber":50,"Velocity":96,"Duration":77319,"SoundDuration":77319,"Delta":104097618},{"NoteNumber":81,"Velocity":90,"Duration":103092,"SoundDuration":103092,"Delta":104200711},{"NoteNumber":74,"Velocity":90,"Duration":209789,"SoundDuration":209789,"Delta":104303803},{"NoteNumber":38,"Velocity":81,"Duration":419579,"SoundDuration":419579,"Delta":104303803},{"NoteNumber":50,"Velocity":96,"Duration":419579,"SoundDuration":419579,"Delta":104303803},{"NoteNumber":89,"Velocity":76,"Duration":104894,"SoundDuration":104894,"Delta":104513593},{"NoteNumber":93,"Velocity":90,"Duration":104894,"SoundDuration":104894,"Delta":104513593},{"NoteNumber":81,"Velocity":86,"Duration":104894,"SoundDuration":104894,"Delta":104618488},{"NoteNumber":91,"Velocity":79,"Duration":106382,"SoundDuration":106382,"Delta":104723383},{"NoteNumber":95,"Velocity":93,"Duration":106382,"SoundDuration":106382,"Delta":104723383},{"NoteNumber":38,"Velocity":82,"Duration":79787,"SoundDuration":79787,"Delta":104723383},{"NoteNumber":50,"Velocity":97,"Duration":79787,"SoundDuration":79787,"Delta":104723383},{"NoteNumber":83,"Velocity":86,"Duration":106383,"SoundDuration":106383,"Delta":104829766},{"NoteNumber":93,"Velocity":79,"Duration":110701,"SoundDuration":110701,"Delta":104936149},{"NoteNumber":96,"Velocity":93,"Duration":110701,"SoundDuration":110701,"Delta":104936149},{"NoteNumber":38,"Velocity":82,"Duration":83025,"SoundDuration":83025,"Delta":104936149},{"NoteNumber":50,"Velocity":97,"Duration":83025,"SoundDuration":83025,"Delta":104936149},{"NoteNumber":84,"Velocity":89,"Duration":114068,"SoundDuration":114068,"Delta":105046850},{"NoteNumber":91,"Velocity":83,"Duration":109488,"SoundDuration":109488,"Delta":105160919},{"NoteNumber":95,"Velocity":98,"Duration":109488,"SoundDuration":109488,"Delta":105160919},{"NoteNumber":39,"Velocity":89,"Duration":82116,"SoundDuration":82116,"Delta":105160919},{"NoteNumber":51,"Velocity":105,"Duration":82116,"SoundDuration":82116,"Delta":105160919},{"NoteNumber":83,"Velocity":89,"Duration":109489,"SoundDuration":109489,"Delta":105270408},{"NoteNumber":90,"Velocity":79,"Duration":109488,"SoundDuration":109488,"Delta":105379897},{"NoteNumber":93,"Velocity":94,"Duration":109488,"SoundDuration":109488,"Delta":105379897},{"NoteNumber":81,"Velocity":87,"Duration":109488,"SoundDuration":109488,"Delta":105489386},{"NoteNumber":88,"Velocity":79,"Duration":103092,"SoundDuration":103092,"Delta":105598875},{"NoteNumber":91,"Velocity":93,"Duration":103092,"SoundDuration":103092,"Delta":105598875},{"NoteNumber":40,"Velocity":86,"Duration":621429,"SoundDuration":621429,"Delta":105598875},{"NoteNumber":52,"Velocity":102,"Duration":621429,"SoundDuration":621429,"Delta":105598875},{"NoteNumber":79,"Velocity":86,"Duration":103092,"SoundDuration":103092,"Delta":105701968},{"NoteNumber":83,"Velocity":77,"Duration":103092,"SoundDuration":103092,"Delta":105805060},{"NoteNumber":90,"Velocity":91,"Duration":103092,"SoundDuration":103092,"Delta":105805060},{"NoteNumber":78,"Velocity":77,"Duration":103092,"SoundDuration":103092,"Delta":105908153},{"NoteNumber":79,"Velocity":73,"Duration":104529,"SoundDuration":104529,"Delta":106011246},{"NoteNumber":88,"Velocity":86,"Duration":104529,"SoundDuration":104529,"Delta":106011246},{"NoteNumber":76,"Velocity":76,"Duration":104529,"SoundDuration":104529,"Delta":106115775},{"NoteNumber":83,"Velocity":73,"Duration":104529,"SoundDuration":104529,"Delta":106220305},{"NoteNumber":87,"Velocity":87,"Duration":104529,"SoundDuration":104529,"Delta":106220305},{"NoteNumber":42,"Velocity":93,"Duration":78397,"SoundDuration":78397,"Delta":106220305},{"NoteNumber":54,"Velocity":93,"Duration":78397,"SoundDuration":78397,"Delta":106220305},{"NoteNumber":75,"Velocity":79,"Duration":104529,"SoundDuration":104529,"Delta":106324834},{"NoteNumber":83,"Velocity":78,"Duration":106007,"SoundDuration":106007,"Delta":106429364},{"NoteNumber":88,"Velocity":92,"Duration":106007,"SoundDuration":106007,"Delta":106429364},{"NoteNumber":43,"Velocity":77,"Duration":79505,"SoundDuration":79505,"Delta":106429364},{"NoteNumber":55,"Velocity":92,"Duration":79505,"SoundDuration":79505,"Delta":106429364},{"NoteNumber":76,"Velocity":81,"Duration":106006,"SoundDuration":106006,"Delta":106535371},{"NoteNumber":77,"Velocity":80,"Duration":106007,"SoundDuration":106007,"Delta":106641378},{"NoteNumber":86,"Velocity":95,"Duration":106007,"SoundDuration":106007,"Delta":106641378},{"NoteNumber":45,"Velocity":79,"Duration":79505,"SoundDuration":79505,"Delta":106641378},{"NoteNumber":57,"Velocity":93,"Duration":79505,"SoundDuration":79505,"Delta":106641378},{"NoteNumber":74,"Velocity":86,"Duration":106007,"SoundDuration":106007,"Delta":106747385},{"NoteNumber":73,"Velocity":93,"Duration":104529,"SoundDuration":104529,"Delta":106853392},{"NoteNumber":76,"Velocity":93,"Duration":104529,"SoundDuration":104529,"Delta":106853392},{"NoteNumber":46,"Velocity":86,"Duration":418118,"SoundDuration":418118,"Delta":106853392},{"NoteNumber":58,"Velocity":101,"Duration":418118,"SoundDuration":418118,"Delta":106853392},{"NoteNumber":85,"Velocity":87,"Duration":104529,"SoundDuration":104529,"Delta":106957921},{"NoteNumber":76,"Velocity":87,"Duration":104529,"SoundDuration":104529,"Delta":107062451},{"NoteNumber":79,"Velocity":87,"Duration":104529,"SoundDuration":104529,"Delta":107062451},{"NoteNumber":88,"Velocity":87,"Duration":104529,"SoundDuration":104529,"Delta":107166980},{"NoteNumber":73,"Velocity":93,"Duration":104529,"SoundDuration":104529,"Delta":107271510},{"NoteNumber":76,"Velocity":93,"Duration":104529,"SoundDuration":104529,"Delta":107271510},{"NoteNumber":46,"Velocity":79,"Duration":78397,"SoundDuration":78397,"Delta":107271510},{"NoteNumber":58,"Velocity":93,"Duration":78397,"SoundDuration":78397,"Delta":107271510},{"NoteNumber":85,"Velocity":86,"Duration":104529,"SoundDuration":104529,"Delta":107376039},{"NoteNumber":76,"Velocity":88,"Duration":109091,"SoundDuration":109091,"Delta":107480569},{"NoteNumber":79,"Velocity":88,"Duration":109091,"SoundDuration":109091,"Delta":107480569},{"NoteNumber":46,"Velocity":79,"Duration":81818,"SoundDuration":81818,"Delta":107480569},{"NoteNumber":58,"Velocity":93,"Duration":81818,"SoundDuration":81818,"Delta":107480569},{"NoteNumber":88,"Velocity":88,"Duration":109090,"SoundDuration":109090,"Delta":107589660},{"NoteNumber":82,"Velocity":95,"Duration":104529,"SoundDuration":104529,"Delta":107698751},{"NoteNumber":37,"Velocity":82,"Duration":846689,"SoundDuration":846689,"Delta":107698751},{"NoteNumber":49,"Velocity":97,"Duration":846689,"SoundDuration":846689,"Delta":107698751},{"NoteNumber":94,"Velocity":90,"Duration":104529,"SoundDuration":104529,"Delta":107803280},{"NoteNumber":91,"Velocity":88,"Duration":104529,"SoundDuration":104529,"Delta":107907810},{"NoteNumber":88,"Velocity":86,"Duration":104529,"SoundDuration":104529,"Delta":108012339},{"NoteNumber":82,"Velocity":85,"Duration":107142,"SoundDuration":107142,"Delta":108116869},{"NoteNumber":79,"Velocity":85,"Duration":107142,"SoundDuration":107142,"Delta":108224012},{"NoteNumber":76,"Velocity":84,"Duration":107142,"SoundDuration":107142,"Delta":108331154},{"NoteNumber":70,"Velocity":83,"Duration":107142,"SoundDuration":107142,"Delta":108438297},{"NoteNumber":72,"Velocity":91,"Duration":106007,"SoundDuration":106007,"Delta":108545440},{"NoteNumber":75,"Velocity":91,"Duration":106007,"SoundDuration":106007,"Delta":108545440},{"NoteNumber":45,"Velocity":84,"Duration":424028,"SoundDuration":424028,"Delta":108545440},{"NoteNumber":57,"Velocity":98,"Duration":424028,"SoundDuration":424028,"Delta":108545440},{"NoteNumber":84,"Velocity":85,"Duration":106006,"SoundDuration":106006,"Delta":108651447},{"NoteNumber":75,"Velocity":85,"Duration":106007,"SoundDuration":106007,"Delta":108757454},{"NoteNumber":78,"Velocity":85,"Duration":106007,"SoundDuration":106007,"Delta":108757454},{"NoteNumber":87,"Velocity":85,"Duration":106007,"SoundDuration":106007,"Delta":108863461},{"NoteNumber":72,"Velocity":91,"Duration":106006,"SoundDuration":106006,"Delta":108969468},{"NoteNumber":75,"Velocity":91,"Duration":106006,"SoundDuration":106006,"Delta":108969468},{"NoteNumber":45,"Velocity":77,"Duration":79505,"SoundDuration":79505,"Delta":108969468},{"NoteNumber":57,"Velocity":91,"Duration":79505,"SoundDuration":79505,"Delta":108969468},{"NoteNumber":84,"Velocity":84,"Duration":106007,"SoundDuration":106007,"Delta":109075475},{"NoteNumber":75,"Velocity":86,"Duration":109889,"SoundDuration":109889,"Delta":109181482},{"NoteNumber":78,"Velocity":86,"Duration":109889,"SoundDuration":109889,"Delta":109181482},{"NoteNumber":45,"Velocity":78,"Duration":82417,"SoundDuration":82417,"Delta":109181482},{"NoteNumber":57,"Velocity":92,"Duration":82417,"SoundDuration":82417,"Delta":109181482},{"NoteNumber":87,"Velocity":86,"Duration":109890,"SoundDuration":109890,"Delta":109291372},{"NoteNumber":81,"Velocity":93,"Duration":105633,"SoundDuration":105633,"Delta":109401262},{"NoteNumber":36,"Velocity":80,"Duration":845070,"SoundDuration":845070,"Delta":109401262},{"NoteNumber":48,"Velocity":95,"Duration":845070,"SoundDuration":845070,"Delta":109401262},{"NoteNumber":93,"Velocity":88,"Duration":105633,"SoundDuration":105633,"Delta":109506896},{"NoteNumber":90,"Velocity":86,"Duration":105633,"SoundDuration":105633,"Delta":109612529},{"NoteNumber":87,"Velocity":84,"Duration":105633,"SoundDuration":105633,"Delta":109718163},{"NoteNumber":81,"Velocity":83,"Duration":105633,"SoundDuration":105633,"Delta":109823797},{"NoteNumber":78,"Velocity":83,"Duration":105633,"SoundDuration":105633,"Delta":109929431},{"NoteNumber":75,"Velocity":82,"Duration":105633,"SoundDuration":105633,"Delta":110035064},{"NoteNumber":69,"Velocity":81,"Duration":105633,"SoundDuration":105633,"Delta":110140698},{"NoteNumber":67,"Velocity":84,"Duration":104894,"SoundDuration":104894,"Delta":110246332},{"NoteNumber":35,"Velocity":79,"Duration":78671,"SoundDuration":78671,"Delta":110246332},{"NoteNumber":47,"Velocity":93,"Duration":78671,"SoundDuration":78671,"Delta":110246332},{"NoteNumber":79,"Velocity":75,"Duration":104894,"SoundDuration":104894,"Delta":110351227},{"NoteNumber":74,"Velocity":75,"Duration":104894,"SoundDuration":104894,"Delta":110456122},{"NoteNumber":38,"Velocity":80,"Duration":78671,"SoundDuration":78671,"Delta":110456122},{"NoteNumber":50,"Velocity":94,"Duration":78671,"SoundDuration":78671,"Delta":110456122},{"NoteNumber":71,"Velocity":74,"Duration":104894,"SoundDuration":104894,"Delta":110561017},{"NoteNumber":74,"Velocity":80,"Duration":104894,"SoundDuration":104894,"Delta":110665912},{"NoteNumber":43,"Velocity":84,"Duration":78671,"SoundDuration":78671,"Delta":110665912},{"NoteNumber":55,"Velocity":99,"Duration":78671,"SoundDuration":78671,"Delta":110665912},{"NoteNumber":86,"Velocity":75,"Duration":104894,"SoundDuration":104894,"Delta":110770807},{"NoteNumber":83,"Velocity":75,"Duration":104894,"SoundDuration":104894,"Delta":110875702},{"NoteNumber":41,"Velocity":80,"Duration":78671,"SoundDuration":78671,"Delta":110875702},{"NoteNumber":53,"Velocity":94,"Duration":78671,"SoundDuration":78671,"Delta":110875702},{"NoteNumber":79,"Velocity":75,"Duration":104895,"SoundDuration":104895,"Delta":110980597},{"NoteNumber":84,"Velocity":62,"Duration":104894,"SoundDuration":104894,"Delta":111085492},{"NoteNumber":88,"Velocity":73,"Duration":104894,"SoundDuration":104894,"Delta":111085492},{"NoteNumber":40,"Velocity":81,"Duration":78671,"SoundDuration":78671,"Delta":111085492},{"NoteNumber":52,"Velocity":96,"Duration":78671,"SoundDuration":78671,"Delta":111085492},{"NoteNumber":76,"Velocity":74,"Duration":104894,"SoundDuration":104894,"Delta":111190387},{"NoteNumber":86,"Velocity":64,"Duration":104894,"SoundDuration":104894,"Delta":111295282},{"NoteNumber":89,"Velocity":76,"Duration":104894,"SoundDuration":104894,"Delta":111295282},{"NoteNumber":36,"Velocity":79,"Duration":78671,"SoundDuration":78671,"Delta":111295282},{"NoteNumber":48,"Velocity":93,"Duration":78671,"SoundDuration":78671,"Delta":111295282},{"NoteNumber":77,"Velocity":78,"Duration":104894,"SoundDuration":104894,"Delta":111400177},{"NoteNumber":88,"Velocity":67,"Duration":104894,"SoundDuration":104894,"Delta":111505072},{"NoteNumber":91,"Velocity":79,"Duration":104894,"SoundDuration":104894,"Delta":111505072},{"NoteNumber":35,"Velocity":79,"Duration":78671,"SoundDuration":78671,"Delta":111505072},{"NoteNumber":47,"Velocity":93,"Duration":78671,"SoundDuration":78671,"Delta":111505072},{"NoteNumber":79,"Velocity":81,"Duration":104894,"SoundDuration":104894,"Delta":111609967},{"NoteNumber":89,"Velocity":70,"Duration":104894,"SoundDuration":104894,"Delta":111714862},{"NoteNumber":93,"Velocity":83,"Duration":104894,"SoundDuration":104894,"Delta":111714862},{"NoteNumber":33,"Velocity":79,"Duration":78671,"SoundDuration":78671,"Delta":111714862},{"NoteNumber":45,"Velocity":93,"Duration":78671,"SoundDuration":78671,"Delta":111714862},{"NoteNumber":81,"Velocity":84,"Duration":104894,"SoundDuration":104894,"Delta":111819757},{"NoteNumber":86,"Velocity":72,"Duration":104894,"SoundDuration":104894,"Delta":111924652},{"NoteNumber":91,"Velocity":72,"Duration":104894,"SoundDuration":104894,"Delta":111924652},{"NoteNumber":95,"Velocity":85,"Duration":104894,"SoundDuration":104894,"Delta":111924652},{"NoteNumber":41,"Velocity":87,"Duration":78671,"SoundDuration":78671,"Delta":111924652},{"NoteNumber":83,"Velocity":86,"Duration":105140,"SoundDuration":105140,"Delta":112029547},{"NoteNumber":53,"Velocity":88,"Duration":78824,"SoundDuration":78824,"Delta":112029547},{"NoteNumber":86,"Velocity":73,"Duration":105758,"SoundDuration":105758,"Delta":112134687},{"NoteNumber":91,"Velocity":73,"Duration":105758,"SoundDuration":105758,"Delta":112134687},{"NoteNumber":95,"Velocity":87,"Duration":105758,"SoundDuration":105758,"Delta":112134687},{"NoteNumber":41,"Velocity":89,"Duration":79256,"SoundDuration":79256,"Delta":112134687},{"NoteNumber":83,"Velocity":89,"Duration":106257,"SoundDuration":106257,"Delta":112240446},{"NoteNumber":53,"Velocity":91,"Duration":79661,"SoundDuration":79661,"Delta":112240446},{"NoteNumber":96,"Velocity":90,"Duration":106888,"SoundDuration":106888,"Delta":112346703},{"NoteNumber":91,"Velocity":76,"Duration":106888,"SoundDuration":106888,"Delta":112346703},{"NoteNumber":40,"Velocity":92,"Duration":80102,"SoundDuration":80102,"Delta":112346703},{"NoteNumber":84,"Velocity":92,"Duration":107398,"SoundDuration":107398,"Delta":112453592},{"NoteNumber":52,"Velocity":93,"Duration":80517,"SoundDuration":80517,"Delta":112453592},{"NoteNumber":96,"Velocity":93,"Duration":108043,"SoundDuration":108043,"Delta":112560991},{"NoteNumber":91,"Velocity":79,"Duration":108043,"SoundDuration":108043,"Delta":112560991},{"NoteNumber":40,"Velocity":94,"Duration":80967,"SoundDuration":80967,"Delta":112560991},{"NoteNumber":84,"Velocity":94,"Duration":108564,"SoundDuration":108564,"Delta":112669034},{"NoteNumber":52,"Velocity":96,"Duration":81390,"SoundDuration":81390,"Delta":112669034},{"NoteNumber":101,"Velocity":94,"Duration":109091,"SoundDuration":109091,"Delta":112777599},{"NoteNumber":96,"Velocity":79,"Duration":109091,"SoundDuration":109091,"Delta":112777599},{"NoteNumber":38,"Velocity":97,"Duration":81818,"SoundDuration":81818,"Delta":112777599},{"NoteNumber":89,"Velocity":94,"Duration":109090,"SoundDuration":109090,"Delta":112886690},{"NoteNumber":50,"Velocity":94,"Duration":81818,"SoundDuration":81818,"Delta":112886690},{"NoteNumber":101,"Velocity":94,"Duration":109091,"SoundDuration":109091,"Delta":112995781},{"NoteNumber":96,"Velocity":79,"Duration":109091,"SoundDuration":109091,"Delta":112995781},{"NoteNumber":38,"Velocity":97,"Duration":81818,"SoundDuration":81818,"Delta":112995781},{"NoteNumber":89,"Velocity":94,"Duration":109090,"SoundDuration":109090,"Delta":113104872},{"NoteNumber":50,"Velocity":92,"Duration":81818,"SoundDuration":81818,"Delta":113104872},{"NoteNumber":95,"Velocity":79,"Duration":111675,"SoundDuration":111675,"Delta":113213963},{"NoteNumber":101,"Velocity":94,"Duration":111675,"SoundDuration":111675,"Delta":113213963},{"NoteNumber":43,"Velocity":97,"Duration":83373,"SoundDuration":83373,"Delta":113213963},{"NoteNumber":89,"Velocity":94,"Duration":116750,"SoundDuration":116750,"Delta":113325639},{"NoteNumber":55,"Velocity":92,"Duration":87106,"SoundDuration":87106,"Delta":113325639},{"NoteNumber":95,"Velocity":79,"Duration":122133,"SoundDuration":122133,"Delta":113442389},{"NoteNumber":101,"Velocity":94,"Duration":122133,"SoundDuration":122133,"Delta":113442389},{"NoteNumber":43,"Velocity":92,"Duration":91141,"SoundDuration":91141,"Delta":113442389},{"NoteNumber":89,"Velocity":94,"Duration":128230,"SoundDuration":128230,"Delta":113564522},{"NoteNumber":55,"Velocity":92,"Duration":95621,"SoundDuration":95621,"Delta":113564522},{"NoteNumber":88,"Velocity":80,"Duration":410447,"SoundDuration":410447,"Delta":113692752},{"NoteNumber":95,"Velocity":84,"Duration":410447,"SoundDuration":410447,"Delta":113692752},{"NoteNumber":100,"Velocity":99,"Duration":410447,"SoundDuration":410447,"Delta":113692752},{"NoteNumber":44,"Velocity":82,"Duration":410447,"SoundDuration":410447,"Delta":113692752},{"NoteNumber":56,"Velocity":101,"Duration":410447,"SoundDuration":410447,"Delta":113692752},{"NoteNumber":52,"Velocity":79,"Duration":111940,"SoundDuration":111940,"Delta":114140514},{"NoteNumber":59,"Velocity":79,"Duration":111940,"SoundDuration":111940,"Delta":114140514},{"NoteNumber":64,"Velocity":94,"Duration":111940,"SoundDuration":111940,"Delta":114140514},{"NoteNumber":32,"Velocity":78,"Duration":111940,"SoundDuration":111940,"Delta":114140514},{"NoteNumber":44,"Velocity":92,"Duration":111940,"SoundDuration":111940,"Delta":114140514},{"NoteNumber":64,"Velocity":88,"Duration":1153846,"SoundDuration":1153846,"Delta":114289767},{"NoteNumber":52,"Velocity":74,"Duration":1730768,"SoundDuration":1730768,"Delta":114289767},{"NoteNumber":59,"Velocity":74,"Duration":1730768,"SoundDuration":1730768,"Delta":114289767},{"NoteNumber":32,"Velocity":73,"Duration":1730768,"SoundDuration":1730768,"Delta":114289767},{"NoteNumber":44,"Velocity":86,"Duration":1730768,"SoundDuration":1730768,"Delta":114289767},{"NoteNumber":62,"Velocity":65,"Duration":576922,"SoundDuration":576922,"Delta":115443613},{"NoteNumber":58,"Velocity":35,"Duration":111110,"SoundDuration":111110,"Delta":116020536},{"NoteNumber":61,"Velocity":42,"Duration":111110,"SoundDuration":111110,"Delta":116020536},{"NoteNumber":31,"Velocity":34,"Duration":111110,"SoundDuration":111110,"Delta":116020536},{"NoteNumber":52,"Velocity":42,"Duration":110633,"SoundDuration":110633,"Delta":116131647},{"NoteNumber":43,"Velocity":34,"Duration":110633,"SoundDuration":110633,"Delta":116131647},{"NoteNumber":58,"Velocity":36,"Duration":110159,"SoundDuration":110159,"Delta":116242281},{"NoteNumber":61,"Velocity":43,"Duration":110159,"SoundDuration":110159,"Delta":116242281},{"NoteNumber":31,"Velocity":35,"Duration":110159,"SoundDuration":110159,"Delta":116242281},{"NoteNumber":52,"Velocity":43,"Duration":109689,"SoundDuration":109689,"Delta":116352440},{"NoteNumber":43,"Velocity":35,"Duration":109689,"SoundDuration":109689,"Delta":116352440},{"NoteNumber":61,"Velocity":44,"Duration":109223,"SoundDuration":109223,"Delta":116462129},{"NoteNumber":58,"Velocity":37,"Duration":109223,"SoundDuration":109223,"Delta":116462129},{"NoteNumber":31,"Velocity":36,"Duration":109223,"SoundDuration":109223,"Delta":116462129},{"NoteNumber":52,"Velocity":45,"Duration":108761,"SoundDuration":108761,"Delta":116571353},{"NoteNumber":43,"Velocity":36,"Duration":108761,"SoundDuration":108761,"Delta":116571353},{"NoteNumber":58,"Velocity":38,"Duration":108238,"SoundDuration":108238,"Delta":116680115},{"NoteNumber":61,"Velocity":45,"Duration":108238,"SoundDuration":108238,"Delta":116680115},{"NoteNumber":31,"Velocity":37,"Duration":108238,"SoundDuration":108238,"Delta":116680115},{"NoteNumber":52,"Velocity":46,"Duration":107784,"SoundDuration":107784,"Delta":116788353},{"NoteNumber":43,"Velocity":37,"Duration":107784,"SoundDuration":107784,"Delta":116788353},{"NoteNumber":61,"Velocity":39,"Duration":107334,"SoundDuration":107334,"Delta":116896138},{"NoteNumber":64,"Velocity":46,"Duration":107334,"SoundDuration":107334,"Delta":116896138},{"NoteNumber":31,"Velocity":38,"Duration":107334,"SoundDuration":107334,"Delta":116896138},{"NoteNumber":58,"Velocity":47,"Duration":106888,"SoundDuration":106888,"Delta":117003473},{"NoteNumber":43,"Velocity":38,"Duration":106888,"SoundDuration":106888,"Delta":117003473},{"NoteNumber":61,"Velocity":39,"Duration":106446,"SoundDuration":106446,"Delta":117110361},{"NoteNumber":64,"Velocity":47,"Duration":106446,"SoundDuration":106446,"Delta":117110361},{"NoteNumber":31,"Velocity":39,"Duration":106446,"SoundDuration":106446,"Delta":117110361},{"NoteNumber":58,"Velocity":48,"Duration":105944,"SoundDuration":105944,"Delta":117216807},{"NoteNumber":43,"Velocity":39,"Duration":105944,"SoundDuration":105944,"Delta":117216807},{"NoteNumber":61,"Velocity":40,"Duration":105510,"SoundDuration":105510,"Delta":117322752},{"NoteNumber":64,"Velocity":48,"Duration":105510,"SoundDuration":105510,"Delta":117322752},{"NoteNumber":31,"Velocity":40,"Duration":105510,"SoundDuration":105510,"Delta":117322752},{"NoteNumber":58,"Velocity":49,"Duration":105079,"SoundDuration":105079,"Delta":117428262},{"NoteNumber":43,"Velocity":40,"Duration":105079,"SoundDuration":105079,"Delta":117428262},{"NoteNumber":61,"Velocity":42,"Duration":104651,"SoundDuration":104651,"Delta":117533342},{"NoteNumber":64,"Velocity":50,"Duration":104651,"SoundDuration":104651,"Delta":117533342},{"NoteNumber":31,"Velocity":41,"Duration":104651,"SoundDuration":104651,"Delta":117533342},{"NoteNumber":58,"Velocity":50,"Duration":104227,"SoundDuration":104227,"Delta":117637993},{"NoteNumber":43,"Velocity":41,"Duration":104227,"SoundDuration":104227,"Delta":117637993},{"NoteNumber":64,"Velocity":42,"Duration":103033,"SoundDuration":103033,"Delta":117742220},{"NoteNumber":70,"Velocity":50,"Duration":103033,"SoundDuration":103033,"Delta":117742220},{"NoteNumber":43,"Velocity":46,"Duration":103033,"SoundDuration":103033,"Delta":117742220},{"NoteNumber":61,"Velocity":52,"Duration":102622,"SoundDuration":102622,"Delta":117845254},{"NoteNumber":55,"Velocity":43,"Duration":102622,"SoundDuration":102622,"Delta":117845254},{"NoteNumber":64,"Velocity":45,"Duration":102214,"SoundDuration":102214,"Delta":117947877},{"NoteNumber":70,"Velocity":54,"Duration":102214,"SoundDuration":102214,"Delta":117947877},{"NoteNumber":43,"Velocity":45,"Duration":102214,"SoundDuration":102214,"Delta":117947877},{"NoteNumber":61,"Velocity":56,"Duration":101752,"SoundDuration":101752,"Delta":118050092},{"NoteNumber":55,"Velocity":47,"Duration":101752,"SoundDuration":101752,"Delta":118050092},{"NoteNumber":70,"Velocity":51,"Duration":101294,"SoundDuration":101294,"Delta":118151844},{"NoteNumber":73,"Velocity":61,"Duration":101294,"SoundDuration":101294,"Delta":118151844},{"NoteNumber":43,"Velocity":49,"Duration":101294,"SoundDuration":101294,"Delta":118151844},{"NoteNumber":64,"Velocity":64,"Duration":100840,"SoundDuration":100840,"Delta":118253139},{"NoteNumber":55,"Velocity":51,"Duration":100840,"SoundDuration":100840,"Delta":118253139},{"NoteNumber":70,"Velocity":56,"Duration":100446,"SoundDuration":100446,"Delta":118353979},{"NoteNumber":73,"Velocity":66,"Duration":100446,"SoundDuration":100446,"Delta":118353979},{"NoteNumber":43,"Velocity":53,"Duration":100446,"SoundDuration":100446,"Delta":118353979},{"NoteNumber":64,"Velocity":70,"Duration":100000,"SoundDuration":100000,"Delta":118454426},{"NoteNumber":55,"Velocity":56,"Duration":100000,"SoundDuration":100000,"Delta":118454426},{"NoteNumber":73,"Velocity":61,"Duration":99557,"SoundDuration":99557,"Delta":118554427},{"NoteNumber":76,"Velocity":72,"Duration":99557,"SoundDuration":99557,"Delta":118554427},{"NoteNumber":55,"Velocity":57,"Duration":99557,"SoundDuration":99557,"Delta":118554427},{"NoteNumber":70,"Velocity":75,"Duration":99173,"SoundDuration":99173,"Delta":118653984},{"NoteNumber":67,"Velocity":59,"Duration":99173,"SoundDuration":99173,"Delta":118653984},{"NoteNumber":76,"Velocity":65,"Duration":98738,"SoundDuration":98738,"Delta":118753158},{"NoteNumber":82,"Velocity":78,"Duration":98738,"SoundDuration":98738,"Delta":118753158},{"NoteNumber":55,"Velocity":61,"Duration":98738,"SoundDuration":98738,"Delta":118753158},{"NoteNumber":73,"Velocity":81,"Duration":98307,"SoundDuration":98307,"Delta":118851897},{"NoteNumber":67,"Velocity":63,"Duration":98307,"SoundDuration":98307,"Delta":118851897},{"NoteNumber":82,"Velocity":70,"Duration":97879,"SoundDuration":97879,"Delta":118950204},{"NoteNumber":85,"Velocity":83,"Duration":97879,"SoundDuration":97879,"Delta":118950204},{"NoteNumber":55,"Velocity":65,"Duration":97879,"SoundDuration":97879,"Delta":118950204},{"NoteNumber":76,"Velocity":87,"Duration":97508,"SoundDuration":97508,"Delta":119048083},{"NoteNumber":67,"Velocity":68,"Duration":97508,"SoundDuration":97508,"Delta":119048083},{"NoteNumber":88,"Velocity":89,"Duration":97473,"SoundDuration":97473,"Delta":119145592},{"NoteNumber":85,"Velocity":75,"Duration":97473,"SoundDuration":97473,"Delta":119145592},{"NoteNumber":55,"Velocity":70,"Duration":97473,"SoundDuration":97473,"Delta":119145592},{"NoteNumber":82,"Velocity":92,"Duration":150000,"SoundDuration":150000,"Delta":119243065},{"NoteNumber":67,"Velocity":72,"Duration":150000,"SoundDuration":150000,"Delta":119243065},{"NoteNumber":89,"Velocity":104,"Duration":449438,"SoundDuration":449438,"Delta":119393065},{"NoteNumber":86,"Velocity":88,"Duration":449438,"SoundDuration":449438,"Delta":119393065},{"NoteNumber":81,"Velocity":88,"Duration":449438,"SoundDuration":449438,"Delta":119393065},{"NoteNumber":65,"Velocity":85,"Duration":449438,"SoundDuration":449438,"Delta":119393065},{"NoteNumber":53,"Velocity":72,"Duration":449438,"SoundDuration":449438,"Delta":119393065},{"NoteNumber":93,"Velocity":99,"Duration":466926,"SoundDuration":466926,"Delta":119842503},{"NoteNumber":89,"Velocity":83,"Duration":466926,"SoundDuration":466926,"Delta":119842503},{"NoteNumber":86,"Velocity":83,"Duration":466926,"SoundDuration":466926,"Delta":119842503},{"NoteNumber":81,"Velocity":83,"Duration":466926,"SoundDuration":466926,"Delta":119842503},{"NoteNumber":62,"Velocity":83,"Duration":466926,"SoundDuration":466926,"Delta":119842503},{"NoteNumber":50,"Velocity":71,"Duration":466926,"SoundDuration":466926,"Delta":119842503},{"NoteNumber":88,"Velocity":104,"Duration":451127,"SoundDuration":451127,"Delta":120309429},{"NoteNumber":84,"Velocity":88,"Duration":451127,"SoundDuration":451127,"Delta":120309429},{"NoteNumber":79,"Velocity":88,"Duration":451127,"SoundDuration":451127,"Delta":120309429},{"NoteNumber":76,"Velocity":88,"Duration":451127,"SoundDuration":451127,"Delta":120309429},{"NoteNumber":67,"Velocity":86,"Duration":451127,"SoundDuration":451127,"Delta":120309429},{"NoteNumber":55,"Velocity":73,"Duration":451127,"SoundDuration":451127,"Delta":120309429},{"NoteNumber":86,"Velocity":101,"Duration":481927,"SoundDuration":481927,"Delta":120760557},{"NoteNumber":83,"Velocity":84,"Duration":481927,"SoundDuration":481927,"Delta":120760557},{"NoteNumber":79,"Velocity":84,"Duration":481927,"SoundDuration":481927,"Delta":120760557},{"NoteNumber":74,"Velocity":84,"Duration":481927,"SoundDuration":481927,"Delta":120760557},{"NoteNumber":43,"Velocity":70,"Duration":481927,"SoundDuration":481927,"Delta":120760557},{"NoteNumber":55,"Velocity":82,"Duration":481927,"SoundDuration":481927,"Delta":120760557},{"NoteNumber":76,"Velocity":89,"Duration":365043,"SoundDuration":365043,"Delta":121242485},{"NoteNumber":83,"Velocity":92,"Duration":365043,"SoundDuration":365043,"Delta":121242485},{"NoteNumber":88,"Velocity":108,"Duration":365043,"SoundDuration":365043,"Delta":121242485},{"NoteNumber":44,"Velocity":82,"Duration":365043,"SoundDuration":365043,"Delta":121242485},{"NoteNumber":56,"Velocity":99,"Duration":365043,"SoundDuration":365043,"Delta":121242485},{"NoteNumber":52,"Velocity":85,"Duration":99557,"SoundDuration":99557,"Delta":121640715},{"NoteNumber":59,"Velocity":85,"Duration":99557,"SoundDuration":99557,"Delta":121640715},{"NoteNumber":64,"Velocity":100,"Duration":99557,"SoundDuration":99557,"Delta":121640715},{"NoteNumber":32,"Velocity":79,"Duration":99557,"SoundDuration":99557,"Delta":121640715},{"NoteNumber":44,"Velocity":94,"Duration":99557,"SoundDuration":99557,"Delta":121640715},{"NoteNumber":64,"Velocity":94,"Duration":1061945,"SoundDuration":1061945,"Delta":121773458},{"NoteNumber":52,"Velocity":79,"Duration":1592918,"SoundDuration":1592918,"Delta":121773458},{"NoteNumber":59,"Velocity":79,"Duration":1592918,"SoundDuration":1592918,"Delta":121773458},{"NoteNumber":32,"Velocity":70,"Duration":1592918,"SoundDuration":1592918,"Delta":121773458},{"NoteNumber":44,"Velocity":83,"Duration":1592918,"SoundDuration":1592918,"Delta":121773458},{"NoteNumber":62,"Velocity":65,"Duration":530973,"SoundDuration":530973,"Delta":122835404},{"NoteNumber":58,"Velocity":35,"Duration":111110,"SoundDuration":111110,"Delta":123366377},{"NoteNumber":61,"Velocity":42,"Duration":111110,"SoundDuration":111110,"Delta":123366377},{"NoteNumber":31,"Velocity":34,"Duration":111110,"SoundDuration":111110,"Delta":123366377},{"NoteNumber":52,"Velocity":42,"Duration":110633,"SoundDuration":110633,"Delta":123477488},{"NoteNumber":43,"Velocity":34,"Duration":110633,"SoundDuration":110633,"Delta":123477488},{"NoteNumber":58,"Velocity":36,"Duration":110159,"SoundDuration":110159,"Delta":123588121},{"NoteNumber":61,"Velocity":43,"Duration":110159,"SoundDuration":110159,"Delta":123588121},{"NoteNumber":31,"Velocity":35,"Duration":110159,"SoundDuration":110159,"Delta":123588121},{"NoteNumber":52,"Velocity":43,"Duration":109689,"SoundDuration":109689,"Delta":123698281},{"NoteNumber":43,"Velocity":35,"Duration":109689,"SoundDuration":109689,"Delta":123698281},{"NoteNumber":61,"Velocity":44,"Duration":109223,"SoundDuration":109223,"Delta":123807970},{"NoteNumber":58,"Velocity":37,"Duration":109223,"SoundDuration":109223,"Delta":123807970},{"NoteNumber":31,"Velocity":36,"Duration":109223,"SoundDuration":109223,"Delta":123807970},{"NoteNumber":52,"Velocity":45,"Duration":108761,"SoundDuration":108761,"Delta":123917194},{"NoteNumber":43,"Velocity":36,"Duration":108761,"SoundDuration":108761,"Delta":123917194},{"NoteNumber":58,"Velocity":38,"Duration":108238,"SoundDuration":108238,"Delta":124025955},{"NoteNumber":61,"Velocity":45,"Duration":108238,"SoundDuration":108238,"Delta":124025955},{"NoteNumber":31,"Velocity":37,"Duration":108238,"SoundDuration":108238,"Delta":124025955},{"NoteNumber":52,"Velocity":46,"Duration":107784,"SoundDuration":107784,"Delta":124134194},{"NoteNumber":43,"Velocity":37,"Duration":107784,"SoundDuration":107784,"Delta":124134194},{"NoteNumber":61,"Velocity":39,"Duration":107334,"SoundDuration":107334,"Delta":124241979},{"NoteNumber":64,"Velocity":46,"Duration":107334,"SoundDuration":107334,"Delta":124241979},{"NoteNumber":31,"Velocity":38,"Duration":107334,"SoundDuration":107334,"Delta":124241979},{"NoteNumber":58,"Velocity":47,"Duration":106888,"SoundDuration":106888,"Delta":124349314},{"NoteNumber":43,"Velocity":38,"Duration":106888,"SoundDuration":106888,"Delta":124349314},{"NoteNumber":61,"Velocity":39,"Duration":106446,"SoundDuration":106446,"Delta":124456202},{"NoteNumber":64,"Velocity":47,"Duration":106446,"SoundDuration":106446,"Delta":124456202},{"NoteNumber":31,"Velocity":39,"Duration":106446,"SoundDuration":106446,"Delta":124456202},{"NoteNumber":58,"Velocity":48,"Duration":105944,"SoundDuration":105944,"Delta":124562648},{"NoteNumber":43,"Velocity":39,"Duration":105944,"SoundDuration":105944,"Delta":124562648},{"NoteNumber":61,"Velocity":40,"Duration":105510,"SoundDuration":105510,"Delta":124668593},{"NoteNumber":64,"Velocity":48,"Duration":105510,"SoundDuration":105510,"Delta":124668593},{"NoteNumber":31,"Velocity":40,"Duration":105510,"SoundDuration":105510,"Delta":124668593},{"NoteNumber":58,"Velocity":49,"Duration":105079,"SoundDuration":105079,"Delta":124774103},{"NoteNumber":43,"Velocity":40,"Duration":105079,"SoundDuration":105079,"Delta":124774103},{"NoteNumber":61,"Velocity":42,"Duration":104651,"SoundDuration":104651,"Delta":124879182},{"NoteNumber":64,"Velocity":50,"Duration":104651,"SoundDuration":104651,"Delta":124879182},{"NoteNumber":31,"Velocity":41,"Duration":104651,"SoundDuration":104651,"Delta":124879182},{"NoteNumber":58,"Velocity":50,"Duration":104227,"SoundDuration":104227,"Delta":124983834},{"NoteNumber":43,"Velocity":41,"Duration":104227,"SoundDuration":104227,"Delta":124983834},{"NoteNumber":64,"Velocity":42,"Duration":103033,"SoundDuration":103033,"Delta":125088061},{"NoteNumber":70,"Velocity":50,"Duration":103033,"SoundDuration":103033,"Delta":125088061},{"NoteNumber":43,"Velocity":46,"Duration":103033,"SoundDuration":103033,"Delta":125088061},{"NoteNumber":61,"Velocity":52,"Duration":102622,"SoundDuration":102622,"Delta":125191095},{"NoteNumber":55,"Velocity":43,"Duration":102622,"SoundDuration":102622,"Delta":125191095},{"NoteNumber":64,"Velocity":45,"Duration":102214,"SoundDuration":102214,"Delta":125293718},{"NoteNumber":70,"Velocity":54,"Duration":102214,"SoundDuration":102214,"Delta":125293718},{"NoteNumber":43,"Velocity":45,"Duration":102214,"SoundDuration":102214,"Delta":125293718},{"NoteNumber":61,"Velocity":56,"Duration":101752,"SoundDuration":101752,"Delta":125395933},{"NoteNumber":55,"Velocity":47,"Duration":101752,"SoundDuration":101752,"Delta":125395933},{"NoteNumber":70,"Velocity":51,"Duration":101294,"SoundDuration":101294,"Delta":125497685},{"NoteNumber":73,"Velocity":61,"Duration":101294,"SoundDuration":101294,"Delta":125497685},{"NoteNumber":43,"Velocity":49,"Duration":101294,"SoundDuration":101294,"Delta":125497685},{"NoteNumber":64,"Velocity":64,"Duration":100840,"SoundDuration":100840,"Delta":125598980},{"NoteNumber":55,"Velocity":51,"Duration":100840,"SoundDuration":100840,"Delta":125598980},{"NoteNumber":70,"Velocity":56,"Duration":100446,"SoundDuration":100446,"Delta":125699820},{"NoteNumber":73,"Velocity":66,"Duration":100446,"SoundDuration":100446,"Delta":125699820},{"NoteNumber":43,"Velocity":53,"Duration":100446,"SoundDuration":100446,"Delta":125699820},{"NoteNumber":64,"Velocity":70,"Duration":100000,"SoundDuration":100000,"Delta":125800267},{"NoteNumber":55,"Velocity":56,"Duration":100000,"SoundDuration":100000,"Delta":125800267},{"NoteNumber":73,"Velocity":61,"Duration":99557,"SoundDuration":99557,"Delta":125900267},{"NoteNumber":76,"Velocity":72,"Duration":99557,"SoundDuration":99557,"Delta":125900267},{"NoteNumber":55,"Velocity":57,"Duration":99557,"SoundDuration":99557,"Delta":125900267},{"NoteNumber":70,"Velocity":75,"Duration":99173,"SoundDuration":99173,"Delta":125999825},{"NoteNumber":67,"Velocity":59,"Duration":99173,"SoundDuration":99173,"Delta":125999825},{"NoteNumber":76,"Velocity":65,"Duration":98738,"SoundDuration":98738,"Delta":126098999},{"NoteNumber":82,"Velocity":78,"Duration":98738,"SoundDuration":98738,"Delta":126098999},{"NoteNumber":55,"Velocity":61,"Duration":98738,"SoundDuration":98738,"Delta":126098999},{"NoteNumber":73,"Velocity":81,"Duration":98307,"SoundDuration":98307,"Delta":126197737},{"NoteNumber":67,"Velocity":63,"Duration":98307,"SoundDuration":98307,"Delta":126197737},{"NoteNumber":82,"Velocity":70,"Duration":97879,"SoundDuration":97879,"Delta":126296045},{"NoteNumber":85,"Velocity":83,"Duration":97879,"SoundDuration":97879,"Delta":126296045},{"NoteNumber":55,"Velocity":65,"Duration":97879,"SoundDuration":97879,"Delta":126296045},{"NoteNumber":76,"Velocity":87,"Duration":97508,"SoundDuration":97508,"Delta":126393924},{"NoteNumber":67,"Velocity":68,"Duration":97508,"SoundDuration":97508,"Delta":126393924},{"NoteNumber":88,"Velocity":89,"Duration":97473,"SoundDuration":97473,"Delta":126491432},{"NoteNumber":85,"Velocity":75,"Duration":97473,"SoundDuration":97473,"Delta":126491432},{"NoteNumber":55,"Velocity":70,"Duration":97473,"SoundDuration":97473,"Delta":126491432},{"NoteNumber":82,"Velocity":92,"Duration":150000,"SoundDuration":150000,"Delta":126588906},{"NoteNumber":67,"Velocity":72,"Duration":150000,"SoundDuration":150000,"Delta":126588906},{"NoteNumber":82,"Velocity":82,"Duration":321428,"SoundDuration":321428,"Delta":126738906},{"NoteNumber":77,"Velocity":82,"Duration":321428,"SoundDuration":321428,"Delta":126738906},{"NoteNumber":86,"Velocity":82,"Duration":321428,"SoundDuration":321428,"Delta":126738906},{"NoteNumber":89,"Velocity":98,"Duration":321428,"SoundDuration":321428,"Delta":126738906},{"NoteNumber":29,"Velocity":72,"Duration":321428,"SoundDuration":321428,"Delta":126738906},{"NoteNumber":41,"Velocity":86,"Duration":321428,"SoundDuration":321428,"Delta":126738906},{"NoteNumber":70,"Velocity":71,"Duration":74257,"SoundDuration":74257,"Delta":127060334},{"NoteNumber":65,"Velocity":71,"Duration":74257,"SoundDuration":74257,"Delta":127060334},{"NoteNumber":74,"Velocity":84,"Duration":74257,"SoundDuration":74257,"Delta":127060334},{"NoteNumber":77,"Velocity":84,"Duration":74257,"SoundDuration":74257,"Delta":127060334},{"NoteNumber":41,"Velocity":64,"Duration":74257,"SoundDuration":74257,"Delta":127060334},{"NoteNumber":53,"Velocity":75,"Duration":74257,"SoundDuration":74257,"Delta":127060334},{"NoteNumber":65,"Velocity":74,"Duration":396039,"SoundDuration":396039,"Delta":127159344},{"NoteNumber":70,"Velocity":74,"Duration":396039,"SoundDuration":396039,"Delta":127159344},{"NoteNumber":77,"Velocity":88,"Duration":396039,"SoundDuration":396039,"Delta":127159344},{"NoteNumber":74,"Velocity":88,"Duration":396039,"SoundDuration":396039,"Delta":127159344},{"NoteNumber":41,"Velocity":65,"Duration":396039,"SoundDuration":396039,"Delta":127159344},{"NoteNumber":53,"Velocity":76,"Duration":396039,"SoundDuration":396039,"Delta":127159344},{"NoteNumber":82,"Velocity":82,"Duration":318021,"SoundDuration":318021,"Delta":127555384},{"NoteNumber":76,"Velocity":82,"Duration":318021,"SoundDuration":318021,"Delta":127555384},{"NoteNumber":85,"Velocity":82,"Duration":318021,"SoundDuration":318021,"Delta":127555384},{"NoteNumber":88,"Velocity":97,"Duration":318021,"SoundDuration":318021,"Delta":127555384},{"NoteNumber":31,"Velocity":72,"Duration":318021,"SoundDuration":318021,"Delta":127555384},{"NoteNumber":43,"Velocity":86,"Duration":318021,"SoundDuration":318021,"Delta":127555384},{"NoteNumber":70,"Velocity":74,"Duration":75000,"SoundDuration":75000,"Delta":127873405},{"NoteNumber":64,"Velocity":74,"Duration":75000,"SoundDuration":75000,"Delta":127873405},{"NoteNumber":73,"Velocity":74,"Duration":75000,"SoundDuration":75000,"Delta":127873405},{"NoteNumber":76,"Velocity":88,"Duration":75000,"SoundDuration":75000,"Delta":127873405},{"NoteNumber":43,"Velocity":63,"Duration":75000,"SoundDuration":75000,"Delta":127873405},{"NoteNumber":55,"Velocity":74,"Duration":75000,"SoundDuration":75000,"Delta":127873405},{"NoteNumber":64,"Velocity":76,"Duration":400000,"SoundDuration":400000,"Delta":127973405},{"NoteNumber":70,"Velocity":76,"Duration":400000,"SoundDuration":400000,"Delta":127973405},{"NoteNumber":76,"Velocity":91,"Duration":400000,"SoundDuration":400000,"Delta":127973405},{"NoteNumber":73,"Velocity":76,"Duration":400000,"SoundDuration":400000,"Delta":127973405},{"NoteNumber":43,"Velocity":63,"Duration":400000,"SoundDuration":400000,"Delta":127973405},{"NoteNumber":55,"Velocity":74,"Duration":400000,"SoundDuration":400000,"Delta":127973405},{"NoteNumber":78,"Velocity":87,"Duration":316901,"SoundDuration":316901,"Delta":128373405},{"NoteNumber":75,"Velocity":87,"Duration":316901,"SoundDuration":316901,"Delta":128373405},{"NoteNumber":84,"Velocity":87,"Duration":316901,"SoundDuration":316901,"Delta":128373405},{"NoteNumber":87,"Velocity":102,"Duration":316901,"SoundDuration":316901,"Delta":128373405},{"NoteNumber":33,"Velocity":76,"Duration":316901,"SoundDuration":316901,"Delta":128373405},{"NoteNumber":45,"Velocity":90,"Duration":316901,"SoundDuration":316901,"Delta":128373405},{"NoteNumber":66,"Velocity":77,"Duration":75757,"SoundDuration":75757,"Delta":128690306},{"NoteNumber":63,"Velocity":77,"Duration":75757,"SoundDuration":75757,"Delta":128690306},{"NoteNumber":72,"Velocity":77,"Duration":75757,"SoundDuration":75757,"Delta":128690306},{"NoteNumber":75,"Velocity":92,"Duration":75757,"SoundDuration":75757,"Delta":128690306},{"NoteNumber":45,"Velocity":65,"Duration":75757,"SoundDuration":75757,"Delta":128690306},{"NoteNumber":57,"Velocity":76,"Duration":75757,"SoundDuration":75757,"Delta":128690306},{"NoteNumber":63,"Velocity":77,"Duration":404040,"SoundDuration":404040,"Delta":128791316},{"NoteNumber":66,"Velocity":77,"Duration":404040,"SoundDuration":404040,"Delta":128791316},{"NoteNumber":75,"Velocity":92,"Duration":404040,"SoundDuration":404040,"Delta":128791316},{"NoteNumber":72,"Velocity":77,"Duration":404040,"SoundDuration":404040,"Delta":128791316},{"NoteNumber":45,"Velocity":65,"Duration":404040,"SoundDuration":404040,"Delta":128791316},{"NoteNumber":57,"Velocity":76,"Duration":404040,"SoundDuration":404040,"Delta":128791316},{"NoteNumber":77,"Velocity":89,"Duration":319149,"SoundDuration":319149,"Delta":129195356},{"NoteNumber":74,"Velocity":89,"Duration":319149,"SoundDuration":319149,"Delta":129195356},{"NoteNumber":82,"Velocity":89,"Duration":319149,"SoundDuration":319149,"Delta":129195356},{"NoteNumber":86,"Velocity":106,"Duration":319149,"SoundDuration":319149,"Delta":129195356},{"NoteNumber":34,"Velocity":76,"Duration":319149,"SoundDuration":319149,"Delta":129195356},{"NoteNumber":46,"Velocity":91,"Duration":319149,"SoundDuration":319149,"Delta":129195356},{"NoteNumber":65,"Velocity":80,"Duration":76530,"SoundDuration":76530,"Delta":129514505},{"NoteNumber":62,"Velocity":80,"Duration":76530,"SoundDuration":76530,"Delta":129514505},{"NoteNumber":70,"Velocity":80,"Duration":76530,"SoundDuration":76530,"Delta":129514505},{"NoteNumber":74,"Velocity":95,"Duration":76530,"SoundDuration":76530,"Delta":129514505},{"NoteNumber":46,"Velocity":65,"Duration":76530,"SoundDuration":76530,"Delta":129514505},{"NoteNumber":58,"Velocity":77,"Duration":76530,"SoundDuration":76530,"Delta":129514505},{"NoteNumber":62,"Velocity":80,"Duration":408163,"SoundDuration":408163,"Delta":129616546},{"NoteNumber":65,"Velocity":80,"Duration":408163,"SoundDuration":408163,"Delta":129616546},{"NoteNumber":74,"Velocity":95,"Duration":408163,"SoundDuration":408163,"Delta":129616546},{"NoteNumber":70,"Velocity":80,"Duration":408163,"SoundDuration":408163,"Delta":129616546},{"NoteNumber":46,"Velocity":67,"Duration":408163,"SoundDuration":408163,"Delta":129616546},{"NoteNumber":58,"Velocity":79,"Duration":408163,"SoundDuration":408163,"Delta":129616546},{"NoteNumber":66,"Velocity":86,"Duration":320284,"SoundDuration":320284,"Delta":130024709},{"NoteNumber":62,"Velocity":86,"Duration":320284,"SoundDuration":320284,"Delta":130024709},{"NoteNumber":72,"Velocity":86,"Duration":320284,"SoundDuration":320284,"Delta":130024709},{"NoteNumber":74,"Velocity":101,"Duration":320284,"SoundDuration":320284,"Delta":130024709},{"NoteNumber":44,"Velocity":75,"Duration":320284,"SoundDuration":320284,"Delta":130024709},{"NoteNumber":56,"Velocity":89,"Duration":320284,"SoundDuration":320284,"Delta":130024709},{"NoteNumber":78,"Velocity":77,"Duration":76791,"SoundDuration":76791,"Delta":130344994},{"NoteNumber":74,"Velocity":77,"Duration":76791,"SoundDuration":76791,"Delta":130344994},{"NoteNumber":84,"Velocity":77,"Duration":76791,"SoundDuration":76791,"Delta":130344994},{"NoteNumber":86,"Velocity":92,"Duration":76791,"SoundDuration":76791,"Delta":130344994},{"NoteNumber":32,"Velocity":64,"Duration":76791,"SoundDuration":76791,"Delta":130344994},{"NoteNumber":44,"Velocity":75,"Duration":76791,"SoundDuration":76791,"Delta":130344994},{"NoteNumber":74,"Velocity":87,"Duration":409556,"SoundDuration":409556,"Delta":130447383},{"NoteNumber":78,"Velocity":87,"Duration":409556,"SoundDuration":409556,"Delta":130447383},{"NoteNumber":86,"Velocity":103,"Duration":409556,"SoundDuration":409556,"Delta":130447383},{"NoteNumber":84,"Velocity":87,"Duration":409556,"SoundDuration":409556,"Delta":130447383},{"NoteNumber":32,"Velocity":73,"Duration":409556,"SoundDuration":409556,"Delta":130447383},{"NoteNumber":44,"Velocity":87,"Duration":409556,"SoundDuration":409556,"Delta":130447383},{"NoteNumber":67,"Velocity":82,"Duration":326087,"SoundDuration":326087,"Delta":130856939},{"NoteNumber":62,"Velocity":82,"Duration":326087,"SoundDuration":326087,"Delta":130856939},{"NoteNumber":71,"Velocity":82,"Duration":326087,"SoundDuration":326087,"Delta":130856939},{"NoteNumber":74,"Velocity":97,"Duration":326087,"SoundDuration":326087,"Delta":130856939},{"NoteNumber":43,"Velocity":72,"Duration":326087,"SoundDuration":326087,"Delta":130856939},{"NoteNumber":55,"Velocity":86,"Duration":326087,"SoundDuration":326087,"Delta":130856939},{"NoteNumber":79,"Velocity":79,"Duration":77319,"SoundDuration":77319,"Delta":131183026},{"NoteNumber":74,"Velocity":79,"Duration":77319,"SoundDuration":77319,"Delta":131183026},{"NoteNumber":83,"Velocity":79,"Duration":77319,"SoundDuration":77319,"Delta":131183026},{"NoteNumber":86,"Velocity":95,"Duration":77319,"SoundDuration":77319,"Delta":131183026},{"NoteNumber":31,"Velocity":63,"Duration":77319,"SoundDuration":77319,"Delta":131183026},{"NoteNumber":43,"Velocity":74,"Duration":77319,"SoundDuration":77319,"Delta":131183026},{"NoteNumber":74,"Velocity":84,"Duration":425163,"SoundDuration":425163,"Delta":131286119},{"NoteNumber":79,"Velocity":84,"Duration":425163,"SoundDuration":425163,"Delta":131286119},{"NoteNumber":86,"Velocity":99,"Duration":425163,"SoundDuration":425163,"Delta":131286119},{"NoteNumber":83,"Velocity":84,"Duration":425163,"SoundDuration":425163,"Delta":131286119},{"NoteNumber":31,"Velocity":72,"Duration":425163,"SoundDuration":425163,"Delta":131286119},{"NoteNumber":43,"Velocity":86,"Duration":425163,"SoundDuration":425163,"Delta":131286119},{"NoteNumber":67,"Velocity":82,"Duration":343511,"SoundDuration":343511,"Delta":131711282},{"NoteNumber":64,"Velocity":82,"Duration":343511,"SoundDuration":343511,"Delta":131711282},{"NoteNumber":72,"Velocity":82,"Duration":343511,"SoundDuration":343511,"Delta":131711282},{"NoteNumber":76,"Velocity":98,"Duration":343511,"SoundDuration":343511,"Delta":131711282},{"NoteNumber":43,"Velocity":70,"Duration":343511,"SoundDuration":343511,"Delta":131711282},{"NoteNumber":55,"Velocity":82,"Duration":343511,"SoundDuration":343511,"Delta":131711282},{"NoteNumber":79,"Velocity":75,"Duration":82116,"SoundDuration":82116,"Delta":132054793},{"NoteNumber":76,"Velocity":75,"Duration":82116,"SoundDuration":82116,"Delta":132054793},{"NoteNumber":84,"Velocity":75,"Duration":82116,"SoundDuration":82116,"Delta":132054793},{"NoteNumber":88,"Velocity":89,"Duration":82116,"SoundDuration":82116,"Delta":132054793},{"NoteNumber":31,"Velocity":64,"Duration":82116,"SoundDuration":82116,"Delta":132054793},{"NoteNumber":43,"Velocity":76,"Duration":82116,"SoundDuration":82116,"Delta":132054793},{"NoteNumber":76,"Velocity":86,"Duration":484464,"SoundDuration":484464,"Delta":132164282},{"NoteNumber":79,"Velocity":86,"Duration":484464,"SoundDuration":484464,"Delta":132164282},{"NoteNumber":88,"Velocity":102,"Duration":484464,"SoundDuration":484464,"Delta":132164282},{"NoteNumber":84,"Velocity":86,"Duration":484464,"SoundDuration":484464,"Delta":132164282},{"NoteNumber":31,"Velocity":74,"Duration":484464,"SoundDuration":484464,"Delta":132164282},{"NoteNumber":43,"Velocity":88,"Duration":484464,"SoundDuration":484464,"Delta":132164282},{"NoteNumber":71,"Velocity":86,"Duration":370370,"SoundDuration":370370,"Delta":132648747},{"NoteNumber":67,"Velocity":86,"Duration":370370,"SoundDuration":370370,"Delta":132648747},{"NoteNumber":77,"Velocity":86,"Duration":370370,"SoundDuration":370370,"Delta":132648747},{"NoteNumber":79,"Velocity":101,"Duration":370370,"SoundDuration":370370,"Delta":132648747},{"NoteNumber":43,"Velocity":72,"Duration":370370,"SoundDuration":370370,"Delta":132648747},{"NoteNumber":55,"Velocity":85,"Duration":370370,"SoundDuration":370370,"Delta":132648747},{"NoteNumber":83,"Velocity":80,"Duration":107142,"SoundDuration":107142,"Delta":133019117},{"NoteNumber":79,"Velocity":80,"Duration":107142,"SoundDuration":107142,"Delta":133019117},{"NoteNumber":89,"Velocity":80,"Duration":107142,"SoundDuration":107142,"Delta":133019117},{"NoteNumber":91,"Velocity":96,"Duration":107142,"SoundDuration":107142,"Delta":133019117},{"NoteNumber":31,"Velocity":66,"Duration":107142,"SoundDuration":107142,"Delta":133019117},{"NoteNumber":43,"Velocity":78,"Duration":107142,"SoundDuration":107142,"Delta":133019117},{"NoteNumber":79,"Velocity":86,"Duration":800000,"SoundDuration":800000,"Delta":133161974},{"NoteNumber":83,"Velocity":86,"Duration":800000,"SoundDuration":800000,"Delta":133161974},{"NoteNumber":91,"Velocity":103,"Duration":800000,"SoundDuration":800000,"Delta":133161974},{"NoteNumber":89,"Velocity":86,"Duration":800000,"SoundDuration":800000,"Delta":133161974},{"NoteNumber":31,"Velocity":77,"Duration":800000,"SoundDuration":800000,"Delta":133161974},{"NoteNumber":43,"Velocity":92,"Duration":800000,"SoundDuration":800000,"Delta":133161974},{"NoteNumber":55,"Velocity":50,"Duration":120689,"SoundDuration":120689,"Delta":133961974},{"NoteNumber":35,"Velocity":42,"Duration":77586,"SoundDuration":77586,"Delta":133961974},{"NoteNumber":47,"Velocity":50,"Duration":77586,"SoundDuration":77586,"Delta":133961974},{"NoteNumber":67,"Velocity":46,"Duration":120397,"SoundDuration":120397,"Delta":134065423},{"NoteNumber":62,"Velocity":46,"Duration":118644,"SoundDuration":118644,"Delta":134168871},{"NoteNumber":38,"Velocity":43,"Duration":76271,"SoundDuration":76271,"Delta":134168871},{"NoteNumber":50,"Velocity":51,"Duration":76271,"SoundDuration":76271,"Delta":134168871},{"NoteNumber":59,"Velocity":46,"Duration":118644,"SoundDuration":118644,"Delta":134270566},{"NoteNumber":62,"Velocity":50,"Duration":118644,"SoundDuration":118644,"Delta":134372261},{"NoteNumber":43,"Velocity":45,"Duration":76271,"SoundDuration":76271,"Delta":134372261},{"NoteNumber":55,"Velocity":53,"Duration":76271,"SoundDuration":76271,"Delta":134372261},{"NoteNumber":74,"Velocity":46,"Duration":118644,"SoundDuration":118644,"Delta":134473956},{"NoteNumber":71,"Velocity":46,"Duration":118644,"SoundDuration":118644,"Delta":134575651},{"NoteNumber":41,"Velocity":43,"Duration":76271,"SoundDuration":76271,"Delta":134575651},{"NoteNumber":53,"Velocity":51,"Duration":76271,"SoundDuration":76271,"Delta":134575651},{"NoteNumber":67,"Velocity":46,"Duration":118877,"SoundDuration":118877,"Delta":134677346},{"NoteNumber":72,"Velocity":51,"Duration":120274,"SoundDuration":120274,"Delta":134779041},{"NoteNumber":76,"Velocity":51,"Duration":120274,"SoundDuration":120274,"Delta":134779041},{"NoteNumber":40,"Velocity":44,"Duration":77319,"SoundDuration":77319,"Delta":134779041},{"NoteNumber":52,"Velocity":52,"Duration":77319,"SoundDuration":77319,"Delta":134779041},{"NoteNumber":64,"Velocity":47,"Duration":120274,"SoundDuration":120274,"Delta":134882134},{"NoteNumber":74,"Velocity":51,"Duration":120274,"SoundDuration":120274,"Delta":134985226},{"NoteNumber":77,"Velocity":51,"Duration":120274,"SoundDuration":120274,"Delta":134985226},{"NoteNumber":36,"Velocity":42,"Duration":77319,"SoundDuration":77319,"Delta":134985226},{"NoteNumber":48,"Velocity":50,"Duration":77319,"SoundDuration":77319,"Delta":134985226},{"NoteNumber":65,"Velocity":47,"Duration":120274,"SoundDuration":120274,"Delta":135088319},{"NoteNumber":76,"Velocity":53,"Duration":120274,"SoundDuration":120274,"Delta":135191412},{"NoteNumber":79,"Velocity":53,"Duration":120274,"SoundDuration":120274,"Delta":135191412},{"NoteNumber":35,"Velocity":42,"Duration":77319,"SoundDuration":77319,"Delta":135191412},{"NoteNumber":47,"Velocity":50,"Duration":77319,"SoundDuration":77319,"Delta":135191412},{"NoteNumber":67,"Velocity":47,"Duration":120274,"SoundDuration":120274,"Delta":135294505},{"NoteNumber":77,"Velocity":53,"Duration":120274,"SoundDuration":120274,"Delta":135397597},{"NoteNumber":81,"Velocity":53,"Duration":120274,"SoundDuration":120274,"Delta":135397597},{"NoteNumber":33,"Velocity":42,"Duration":77319,"SoundDuration":77319,"Delta":135397597},{"NoteNumber":45,"Velocity":50,"Duration":77319,"SoundDuration":77319,"Delta":135397597},{"NoteNumber":69,"Velocity":48,"Duration":120274,"SoundDuration":120274,"Delta":135500690},{"NoteNumber":74,"Velocity":51,"Duration":103092,"SoundDuration":103092,"Delta":135603783},{"NoteNumber":79,"Velocity":51,"Duration":103092,"SoundDuration":103092,"Delta":135603783},{"NoteNumber":83,"Velocity":51,"Duration":103092,"SoundDuration":103092,"Delta":135603783},{"NoteNumber":41,"Velocity":54,"Duration":103092,"SoundDuration":103092,"Delta":135603783},{"NoteNumber":71,"Velocity":53,"Duration":103092,"SoundDuration":103092,"Delta":135706876},{"NoteNumber":53,"Velocity":56,"Duration":103092,"SoundDuration":103092,"Delta":135706876},{"NoteNumber":74,"Velocity":55,"Duration":102739,"SoundDuration":102739,"Delta":135809968},{"NoteNumber":79,"Velocity":55,"Duration":102739,"SoundDuration":102739,"Delta":135809968},{"NoteNumber":83,"Velocity":55,"Duration":102739,"SoundDuration":102739,"Delta":135809968},{"NoteNumber":41,"Velocity":57,"Duration":102739,"SoundDuration":102739,"Delta":135809968},{"NoteNumber":71,"Velocity":56,"Duration":102739,"SoundDuration":102739,"Delta":135912708},{"NoteNumber":53,"Velocity":59,"Duration":102739,"SoundDuration":102739,"Delta":135912708},{"NoteNumber":79,"Velocity":58,"Duration":102388,"SoundDuration":102388,"Delta":136015448},{"NoteNumber":84,"Velocity":58,"Duration":102388,"SoundDuration":102388,"Delta":136015448},{"NoteNumber":40,"Velocity":60,"Duration":102388,"SoundDuration":102388,"Delta":136015448},{"NoteNumber":72,"Velocity":60,"Duration":102389,"SoundDuration":102389,"Delta":136117837},{"NoteNumber":52,"Velocity":62,"Duration":102389,"SoundDuration":102389,"Delta":136117837},{"NoteNumber":84,"Velocity":62,"Duration":102040,"SoundDuration":102040,"Delta":136220226},{"NoteNumber":79,"Velocity":62,"Duration":102040,"SoundDuration":102040,"Delta":136220226},{"NoteNumber":40,"Velocity":63,"Duration":102040,"SoundDuration":102040,"Delta":136220226},{"NoteNumber":72,"Velocity":63,"Duration":102040,"SoundDuration":102040,"Delta":136322267},{"NoteNumber":52,"Velocity":65,"Duration":102040,"SoundDuration":102040,"Delta":136322267},{"NoteNumber":89,"Velocity":65,"Duration":101695,"SoundDuration":101695,"Delta":136424307},{"NoteNumber":84,"Velocity":65,"Duration":101695,"SoundDuration":101695,"Delta":136424307},{"NoteNumber":38,"Velocity":66,"Duration":101695,"SoundDuration":101695,"Delta":136424307},{"NoteNumber":77,"Velocity":65,"Duration":101695,"SoundDuration":101695,"Delta":136526002},{"NoteNumber":50,"Velocity":66,"Duration":101695,"SoundDuration":101695,"Delta":136526002},{"NoteNumber":89,"Velocity":66,"Duration":101694,"SoundDuration":101694,"Delta":136627697},{"NoteNumber":84,"Velocity":66,"Duration":101694,"SoundDuration":101694,"Delta":136627697},{"NoteNumber":38,"Velocity":67,"Duration":101694,"SoundDuration":101694,"Delta":136627697},{"NoteNumber":77,"Velocity":66,"Duration":101466,"SoundDuration":101466,"Delta":136729392},{"NoteNumber":50,"Velocity":68,"Duration":101466,"SoundDuration":101466,"Delta":136729392},{"NoteNumber":89,"Velocity":67,"Duration":101237,"SoundDuration":101237,"Delta":136830859},{"NoteNumber":83,"Velocity":67,"Duration":101237,"SoundDuration":101237,"Delta":136830859},{"NoteNumber":32,"Velocity":69,"Duration":101237,"SoundDuration":101237,"Delta":136830859},{"NoteNumber":77,"Velocity":67,"Duration":101810,"SoundDuration":101810,"Delta":136932097},{"NoteNumber":44,"Velocity":69,"Duration":101810,"SoundDuration":101810,"Delta":136932097},{"NoteNumber":89,"Velocity":68,"Duration":102272,"SoundDuration":102272,"Delta":137033907},{"NoteNumber":83,"Velocity":68,"Duration":102272,"SoundDuration":102272,"Delta":137033907},{"NoteNumber":32,"Velocity":70,"Duration":102272,"SoundDuration":102272,"Delta":137033907},{"NoteNumber":77,"Velocity":68,"Duration":102857,"SoundDuration":102857,"Delta":137136180},{"NoteNumber":44,"Velocity":71,"Duration":102857,"SoundDuration":102857,"Delta":137136180},{"NoteNumber":57,"Velocity":60,"Duration":120689,"SoundDuration":120689,"Delta":137239037},{"NoteNumber":33,"Velocity":50,"Duration":77586,"SoundDuration":77586,"Delta":137239037},{"NoteNumber":45,"Velocity":60,"Duration":77586,"SoundDuration":77586,"Delta":137239037},{"NoteNumber":69,"Velocity":55,"Duration":120226,"SoundDuration":120226,"Delta":137342485},{"NoteNumber":64,"Velocity":55,"Duration":117449,"SoundDuration":117449,"Delta":137445934},{"NoteNumber":40,"Velocity":51,"Duration":75503,"SoundDuration":75503,"Delta":137445934},{"NoteNumber":52,"Velocity":61,"Duration":75503,"SoundDuration":75503,"Delta":137445934},{"NoteNumber":61,"Velocity":55,"Duration":117449,"SoundDuration":117449,"Delta":137546605},{"NoteNumber":64,"Velocity":60,"Duration":117449,"SoundDuration":117449,"Delta":137647276},{"NoteNumber":45,"Velocity":54,"Duration":75503,"SoundDuration":75503,"Delta":137647276},{"NoteNumber":57,"Velocity":63,"Duration":75503,"SoundDuration":75503,"Delta":137647276},{"NoteNumber":76,"Velocity":55,"Duration":117449,"SoundDuration":117449,"Delta":137747947},{"NoteNumber":73,"Velocity":55,"Duration":117449,"SoundDuration":117449,"Delta":137848619},{"NoteNumber":43,"Velocity":51,"Duration":75503,"SoundDuration":75503,"Delta":137848619},{"NoteNumber":55,"Velocity":61,"Duration":75503,"SoundDuration":75503,"Delta":137848619},{"NoteNumber":69,"Velocity":55,"Duration":117736,"SoundDuration":117736,"Delta":137949290},{"NoteNumber":74,"Velocity":51,"Duration":119453,"SoundDuration":119453,"Delta":138049961},{"NoteNumber":77,"Velocity":61,"Duration":119453,"SoundDuration":119453,"Delta":138049961},{"NoteNumber":41,"Velocity":52,"Duration":76791,"SoundDuration":76791,"Delta":138049961},{"NoteNumber":53,"Velocity":62,"Duration":76791,"SoundDuration":76791,"Delta":138049961},{"NoteNumber":65,"Velocity":56,"Duration":119453,"SoundDuration":119453,"Delta":138152350},{"NoteNumber":76,"Velocity":51,"Duration":119453,"SoundDuration":119453,"Delta":138254739},{"NoteNumber":79,"Velocity":61,"Duration":119453,"SoundDuration":119453,"Delta":138254739},{"NoteNumber":38,"Velocity":50,"Duration":76791,"SoundDuration":76791,"Delta":138254739},{"NoteNumber":50,"Velocity":60,"Duration":76791,"SoundDuration":76791,"Delta":138254739},{"NoteNumber":67,"Velocity":56,"Duration":119453,"SoundDuration":119453,"Delta":138357128},{"NoteNumber":77,"Velocity":53,"Duration":119453,"SoundDuration":119453,"Delta":138459517},{"NoteNumber":81,"Velocity":63,"Duration":119453,"SoundDuration":119453,"Delta":138459517},{"NoteNumber":36,"Velocity":50,"Duration":76791,"SoundDuration":76791,"Delta":138459517},{"NoteNumber":48,"Velocity":60,"Duration":76791,"SoundDuration":76791,"Delta":138459517},{"NoteNumber":69,"Velocity":56,"Duration":119453,"SoundDuration":119453,"Delta":138561906},{"NoteNumber":79,"Velocity":53,"Duration":119453,"SoundDuration":119453,"Delta":138664295},{"NoteNumber":82,"Velocity":63,"Duration":119453,"SoundDuration":119453,"Delta":138664295},{"NoteNumber":34,"Velocity":50,"Duration":76791,"SoundDuration":76791,"Delta":138664295},{"NoteNumber":46,"Velocity":60,"Duration":76791,"SoundDuration":76791,"Delta":138664295},{"NoteNumber":70,"Velocity":57,"Duration":119338,"SoundDuration":119338,"Delta":138766684},{"NoteNumber":76,"Velocity":51,"Duration":101695,"SoundDuration":101695,"Delta":138869073},{"NoteNumber":81,"Velocity":51,"Duration":101695,"SoundDuration":101695,"Delta":138869073},{"NoteNumber":85,"Velocity":61,"Duration":101695,"SoundDuration":101695,"Delta":138869073},{"NoteNumber":43,"Velocity":61,"Duration":101695,"SoundDuration":101695,"Delta":138869073},{"NoteNumber":73,"Velocity":62,"Duration":101695,"SoundDuration":101695,"Delta":138970768},{"NoteNumber":55,"Velocity":62,"Duration":101695,"SoundDuration":101695,"Delta":138970768},{"NoteNumber":76,"Velocity":54,"Duration":101465,"SoundDuration":101465,"Delta":139072463},{"NoteNumber":81,"Velocity":54,"Duration":101465,"SoundDuration":101465,"Delta":139072463},{"NoteNumber":85,"Velocity":64,"Duration":101465,"SoundDuration":101465,"Delta":139072463},{"NoteNumber":43,"Velocity":64,"Duration":101465,"SoundDuration":101465,"Delta":139072463},{"NoteNumber":73,"Velocity":66,"Duration":101351,"SoundDuration":101351,"Delta":139173929},{"NoteNumber":55,"Velocity":66,"Duration":101351,"SoundDuration":101351,"Delta":139173929},{"NoteNumber":81,"Velocity":56,"Duration":101237,"SoundDuration":101237,"Delta":139275280},{"NoteNumber":86,"Velocity":67,"Duration":101237,"SoundDuration":101237,"Delta":139275280},{"NoteNumber":41,"Velocity":67,"Duration":101237,"SoundDuration":101237,"Delta":139275280},{"NoteNumber":74,"Velocity":69,"Duration":101010,"SoundDuration":101010,"Delta":139376518},{"NoteNumber":53,"Velocity":69,"Duration":101010,"SoundDuration":101010,"Delta":139376518},{"NoteNumber":86,"Velocity":70,"Duration":101010,"SoundDuration":101010,"Delta":139477528},{"NoteNumber":81,"Velocity":59,"Duration":101010,"SoundDuration":101010,"Delta":139477528},{"NoteNumber":41,"Velocity":71,"Duration":101010,"SoundDuration":101010,"Delta":139477528},{"NoteNumber":74,"Velocity":72,"Duration":100671,"SoundDuration":100671,"Delta":139578538},{"NoteNumber":53,"Velocity":73,"Duration":100671,"SoundDuration":100671,"Delta":139578538},{"NoteNumber":91,"Velocity":74,"Duration":100671,"SoundDuration":100671,"Delta":139679209},{"NoteNumber":86,"Velocity":62,"Duration":100671,"SoundDuration":100671,"Delta":139679209},{"NoteNumber":40,"Velocity":76,"Duration":100671,"SoundDuration":100671,"Delta":139679209},{"NoteNumber":79,"Velocity":70,"Duration":100446,"SoundDuration":100446,"Delta":139779880},{"NoteNumber":52,"Velocity":72,"Duration":100446,"SoundDuration":100446,"Delta":139779880},{"NoteNumber":91,"Velocity":74,"Duration":100334,"SoundDuration":100334,"Delta":139880327},{"NoteNumber":86,"Velocity":62,"Duration":100334,"SoundDuration":100334,"Delta":139880327},{"NoteNumber":40,"Velocity":76,"Duration":100334,"SoundDuration":100334,"Delta":139880327},{"NoteNumber":79,"Velocity":70,"Duration":100111,"SoundDuration":100111,"Delta":139980662},{"NoteNumber":52,"Velocity":71,"Duration":100111,"SoundDuration":100111,"Delta":139980662},{"NoteNumber":91,"Velocity":74,"Duration":100222,"SoundDuration":100222,"Delta":140080773},{"NoteNumber":85,"Velocity":62,"Duration":100222,"SoundDuration":100222,"Delta":140080773},{"NoteNumber":33,"Velocity":76,"Duration":100222,"SoundDuration":100222,"Delta":140080773},{"NoteNumber":79,"Velocity":70,"Duration":100559,"SoundDuration":100559,"Delta":140180996},{"NoteNumber":45,"Velocity":72,"Duration":100559,"SoundDuration":100559,"Delta":140180996},{"NoteNumber":91,"Velocity":74,"Duration":100897,"SoundDuration":100897,"Delta":140281555},{"NoteNumber":85,"Velocity":62,"Duration":100897,"SoundDuration":100897,"Delta":140281555},{"NoteNumber":33,"Velocity":76,"Duration":100897,"SoundDuration":100897,"Delta":140281555},{"NoteNumber":79,"Velocity":70,"Duration":101237,"SoundDuration":101237,"Delta":140382452},{"NoteNumber":45,"Velocity":71,"Duration":101237,"SoundDuration":101237,"Delta":140382452},{"NoteNumber":62,"Velocity":79,"Duration":101695,"SoundDuration":101695,"Delta":140483690},{"NoteNumber":38,"Velocity":71,"Duration":203390,"SoundDuration":203390,"Delta":140483690},{"NoteNumber":50,"Velocity":84,"Duration":203390,"SoundDuration":203390,"Delta":140483690},{"NoteNumber":74,"Velocity":70,"Duration":101695,"SoundDuration":101695,"Delta":140585385},{"NoteNumber":69,"Velocity":70,"Duration":99337,"SoundDuration":99337,"Delta":140687080},{"NoteNumber":45,"Velocity":65,"Duration":198675,"SoundDuration":198675,"Delta":140687080},{"NoteNumber":57,"Velocity":77,"Duration":198675,"SoundDuration":198675,"Delta":140687080},{"NoteNumber":66,"Velocity":70,"Duration":99337,"SoundDuration":99337,"Delta":140786417},{"NoteNumber":69,"Velocity":79,"Duration":99337,"SoundDuration":99337,"Delta":140885755},{"NoteNumber":50,"Velocity":72,"Duration":74503,"SoundDuration":74503,"Delta":140885755},{"NoteNumber":62,"Velocity":85,"Duration":74503,"SoundDuration":74503,"Delta":140885755},{"NoteNumber":81,"Velocity":70,"Duration":99337,"SoundDuration":99337,"Delta":140985093},{"NoteNumber":78,"Velocity":70,"Duration":99337,"SoundDuration":99337,"Delta":141084431},{"NoteNumber":48,"Velocity":64,"Duration":74503,"SoundDuration":74503,"Delta":141084431},{"NoteNumber":60,"Velocity":76,"Duration":74503,"SoundDuration":74503,"Delta":141084431},{"NoteNumber":74,"Velocity":71,"Duration":99337,"SoundDuration":99337,"Delta":141183768},{"NoteNumber":79,"Velocity":67,"Duration":102040,"SoundDuration":102040,"Delta":141283106},{"NoteNumber":83,"Velocity":79,"Duration":102040,"SoundDuration":102040,"Delta":141283106},{"NoteNumber":47,"Velocity":69,"Duration":204081,"SoundDuration":204081,"Delta":141283106},{"NoteNumber":59,"Velocity":82,"Duration":204081,"SoundDuration":204081,"Delta":141283106},{"NoteNumber":71,"Velocity":72,"Duration":102040,"SoundDuration":102040,"Delta":141385147},{"NoteNumber":81,"Velocity":67,"Duration":102040,"SoundDuration":102040,"Delta":141487188},{"NoteNumber":84,"Velocity":79,"Duration":102040,"SoundDuration":102040,"Delta":141487188},{"NoteNumber":43,"Velocity":62,"Duration":204081,"SoundDuration":204081,"Delta":141487188},{"NoteNumber":55,"Velocity":74,"Duration":204081,"SoundDuration":204081,"Delta":141487188},{"NoteNumber":72,"Velocity":73,"Duration":102040,"SoundDuration":102040,"Delta":141589228},{"NoteNumber":83,"Velocity":68,"Duration":102040,"SoundDuration":102040,"Delta":141691269},{"NoteNumber":86,"Velocity":80,"Duration":102040,"SoundDuration":102040,"Delta":141691269},{"NoteNumber":42,"Velocity":63,"Duration":76530,"SoundDuration":76530,"Delta":141691269},{"NoteNumber":54,"Velocity":75,"Duration":76530,"SoundDuration":76530,"Delta":141691269},{"NoteNumber":74,"Velocity":71,"Duration":102040,"SoundDuration":102040,"Delta":141793310},{"NoteNumber":84,"Velocity":67,"Duration":102040,"SoundDuration":102040,"Delta":141895351},{"NoteNumber":88,"Velocity":79,"Duration":102040,"SoundDuration":102040,"Delta":141895351},{"NoteNumber":40,"Velocity":63,"Duration":76530,"SoundDuration":76530,"Delta":141895351},{"NoteNumber":52,"Velocity":75,"Duration":76530,"SoundDuration":76530,"Delta":141895351},{"NoteNumber":76,"Velocity":72,"Duration":102040,"SoundDuration":102040,"Delta":141997391},{"NoteNumber":81,"Velocity":60,"Duration":102857,"SoundDuration":102857,"Delta":142099432},{"NoteNumber":86,"Velocity":60,"Duration":102857,"SoundDuration":102857,"Delta":142099432},{"NoteNumber":90,"Velocity":71,"Duration":102857,"SoundDuration":102857,"Delta":142099432},{"NoteNumber":48,"Velocity":66,"Duration":102857,"SoundDuration":102857,"Delta":142099432},{"NoteNumber":78,"Velocity":72,"Duration":102739,"SoundDuration":102739,"Delta":142202290},{"NoteNumber":60,"Velocity":67,"Duration":102739,"SoundDuration":102739,"Delta":142202290},{"NoteNumber":81,"Velocity":62,"Duration":102622,"SoundDuration":102622,"Delta":142305029},{"NoteNumber":86,"Velocity":62,"Duration":102622,"SoundDuration":102622,"Delta":142305029},{"NoteNumber":90,"Velocity":73,"Duration":102622,"SoundDuration":102622,"Delta":142305029},{"NoteNumber":48,"Velocity":68,"Duration":102622,"SoundDuration":102622,"Delta":142305029},{"NoteNumber":78,"Velocity":74,"Duration":102388,"SoundDuration":102388,"Delta":142407652},{"NoteNumber":60,"Velocity":69,"Duration":102388,"SoundDuration":102388,"Delta":142407652},{"NoteNumber":86,"Velocity":63,"Duration":102272,"SoundDuration":102272,"Delta":142510041},{"NoteNumber":91,"Velocity":75,"Duration":102272,"SoundDuration":102272,"Delta":142510041},{"NoteNumber":47,"Velocity":71,"Duration":102272,"SoundDuration":102272,"Delta":142510041},{"NoteNumber":79,"Velocity":76,"Duration":102040,"SoundDuration":102040,"Delta":142612314},{"NoteNumber":59,"Velocity":72,"Duration":102040,"SoundDuration":102040,"Delta":142612314},{"NoteNumber":91,"Velocity":77,"Duration":101925,"SoundDuration":101925,"Delta":142714355},{"NoteNumber":86,"Velocity":65,"Duration":101925,"SoundDuration":101925,"Delta":142714355},{"NoteNumber":47,"Velocity":73,"Duration":101925,"SoundDuration":101925,"Delta":142714355},{"NoteNumber":79,"Velocity":78,"Duration":101695,"SoundDuration":101695,"Delta":142816280},{"NoteNumber":59,"Velocity":74,"Duration":101695,"SoundDuration":101695,"Delta":142816280},{"NoteNumber":96,"Velocity":82,"Duration":101580,"SoundDuration":101580,"Delta":142917975},{"NoteNumber":91,"Velocity":69,"Duration":101580,"SoundDuration":101580,"Delta":142917975},{"NoteNumber":45,"Velocity":75,"Duration":101580,"SoundDuration":101580,"Delta":142917975},{"NoteNumber":84,"Velocity":75,"Duration":101351,"SoundDuration":101351,"Delta":143019556},{"NoteNumber":57,"Velocity":73,"Duration":101351,"SoundDuration":101351,"Delta":143019556},{"NoteNumber":96,"Velocity":80,"Duration":101237,"SoundDuration":101237,"Delta":143120907},{"NoteNumber":91,"Velocity":68,"Duration":101237,"SoundDuration":101237,"Delta":143120907},{"NoteNumber":45,"Velocity":78,"Duration":101237,"SoundDuration":101237,"Delta":143120907},{"NoteNumber":84,"Velocity":74,"Duration":101010,"SoundDuration":101010,"Delta":143222144},{"NoteNumber":57,"Velocity":71,"Duration":101010,"SoundDuration":101010,"Delta":143222144},{"NoteNumber":96,"Velocity":80,"Duration":100897,"SoundDuration":100897,"Delta":143323154},{"NoteNumber":90,"Velocity":68,"Duration":100897,"SoundDuration":100897,"Delta":143323154},{"NoteNumber":38,"Velocity":78,"Duration":100897,"SoundDuration":100897,"Delta":143323154},{"NoteNumber":84,"Velocity":75,"Duration":101810,"SoundDuration":101810,"Delta":143424052},{"NoteNumber":50,"Velocity":70,"Duration":101810,"SoundDuration":101810,"Delta":143424052},{"NoteNumber":96,"Velocity":79,"Duration":102272,"SoundDuration":102272,"Delta":143525862},{"NoteNumber":90,"Velocity":67,"Duration":102272,"SoundDuration":102272,"Delta":143525862},{"NoteNumber":38,"Velocity":76,"Duration":102272,"SoundDuration":102272,"Delta":143525862},{"NoteNumber":84,"Velocity":74,"Duration":102857,"SoundDuration":102857,"Delta":143628135},{"NoteNumber":50,"Velocity":70,"Duration":102857,"SoundDuration":102857,"Delta":143628135},{"NoteNumber":67,"Velocity":79,"Duration":103448,"SoundDuration":103448,"Delta":143730992},{"NoteNumber":43,"Velocity":71,"Duration":206896,"SoundDuration":206896,"Delta":143730992},{"NoteNumber":55,"Velocity":84,"Duration":206896,"SoundDuration":206896,"Delta":143730992},{"NoteNumber":79,"Velocity":70,"Duration":103448,"SoundDuration":103448,"Delta":143834440},{"NoteNumber":74,"Velocity":70,"Duration":101010,"SoundDuration":101010,"Delta":143937889},{"NoteNumber":50,"Velocity":65,"Duration":202020,"SoundDuration":202020,"Delta":143937889},{"NoteNumber":62,"Velocity":77,"Duration":202020,"SoundDuration":202020,"Delta":143937889},{"NoteNumber":71,"Velocity":70,"Duration":101010,"SoundDuration":101010,"Delta":144038899},{"NoteNumber":74,"Velocity":79,"Duration":101010,"SoundDuration":101010,"Delta":144139909},{"NoteNumber":55,"Velocity":72,"Duration":202020,"SoundDuration":202020,"Delta":144139909},{"NoteNumber":67,"Velocity":85,"Duration":202020,"SoundDuration":202020,"Delta":144139909},{"NoteNumber":86,"Velocity":70,"Duration":101010,"SoundDuration":101010,"Delta":144240919},{"NoteNumber":83,"Velocity":70,"Duration":101010,"SoundDuration":101010,"Delta":144341929},{"NoteNumber":53,"Velocity":64,"Duration":202020,"SoundDuration":202020,"Delta":144341929},{"NoteNumber":65,"Velocity":76,"Duration":202020,"SoundDuration":202020,"Delta":144341929},{"NoteNumber":79,"Velocity":71,"Duration":101010,"SoundDuration":101010,"Delta":144442939},{"NoteNumber":84,"Velocity":67,"Duration":103092,"SoundDuration":103092,"Delta":144543949},{"NoteNumber":88,"Velocity":79,"Duration":103092,"SoundDuration":103092,"Delta":144543949},{"NoteNumber":52,"Velocity":69,"Duration":206185,"SoundDuration":206185,"Delta":144543949},{"NoteNumber":64,"Velocity":82,"Duration":206185,"SoundDuration":206185,"Delta":144543949},{"NoteNumber":76,"Velocity":72,"Duration":103092,"SoundDuration":103092,"Delta":144647041},{"NoteNumber":86,"Velocity":67,"Duration":103092,"SoundDuration":103092,"Delta":144750134},{"NoteNumber":89,"Velocity":79,"Duration":103092,"SoundDuration":103092,"Delta":144750134},{"NoteNumber":48,"Velocity":62,"Duration":206185,"SoundDuration":206185,"Delta":144750134},{"NoteNumber":60,"Velocity":74,"Duration":206185,"SoundDuration":206185,"Delta":144750134},{"NoteNumber":77,"Velocity":73,"Duration":103092,"SoundDuration":103092,"Delta":144853227},{"NoteNumber":88,"Velocity":68,"Duration":103092,"SoundDuration":103092,"Delta":144956320},{"NoteNumber":91,"Velocity":80,"Duration":103092,"SoundDuration":103092,"Delta":144956320},{"NoteNumber":47,"Velocity":63,"Duration":206185,"SoundDuration":206185,"Delta":144956320},{"NoteNumber":59,"Velocity":75,"Duration":206185,"SoundDuration":206185,"Delta":144956320},{"NoteNumber":79,"Velocity":71,"Duration":103092,"SoundDuration":103092,"Delta":145059412},{"NoteNumber":89,"Velocity":67,"Duration":103092,"SoundDuration":103092,"Delta":145162505},{"NoteNumber":93,"Velocity":79,"Duration":103092,"SoundDuration":103092,"Delta":145162505},{"NoteNumber":45,"Velocity":63,"Duration":206185,"SoundDuration":206185,"Delta":145162505},{"NoteNumber":57,"Velocity":75,"Duration":206185,"SoundDuration":206185,"Delta":145162505},{"NoteNumber":81,"Velocity":72,"Duration":103092,"SoundDuration":103092,"Delta":145265598},{"NoteNumber":86,"Velocity":60,"Duration":103806,"SoundDuration":103806,"Delta":145368691},{"NoteNumber":91,"Velocity":60,"Duration":103806,"SoundDuration":103806,"Delta":145368691},{"NoteNumber":95,"Velocity":71,"Duration":103806,"SoundDuration":103806,"Delta":145368691},{"NoteNumber":53,"Velocity":66,"Duration":103806,"SoundDuration":103806,"Delta":145368691},{"NoteNumber":83,"Velocity":72,"Duration":103448,"SoundDuration":103448,"Delta":145472497},{"NoteNumber":65,"Velocity":67,"Duration":103448,"SoundDuration":103448,"Delta":145472497},{"NoteNumber":86,"Velocity":62,"Duration":103448,"SoundDuration":103448,"Delta":145575945},{"NoteNumber":91,"Velocity":62,"Duration":103448,"SoundDuration":103448,"Delta":145575945},{"NoteNumber":95,"Velocity":73,"Duration":103448,"SoundDuration":103448,"Delta":145575945},{"NoteNumber":53,"Velocity":68,"Duration":103448,"SoundDuration":103448,"Delta":145575945},{"NoteNumber":83,"Velocity":74,"Duration":103448,"SoundDuration":103448,"Delta":145679393},{"NoteNumber":65,"Velocity":69,"Duration":103448,"SoundDuration":103448,"Delta":145679393},{"NoteNumber":91,"Velocity":63,"Duration":104898,"SoundDuration":104898,"Delta":145782842},{"NoteNumber":96,"Velocity":75,"Duration":104898,"SoundDuration":104898,"Delta":145782842},{"NoteNumber":52,"Velocity":71,"Duration":104898,"SoundDuration":104898,"Delta":145782842},{"NoteNumber":84,"Velocity":76,"Duration":107146,"SoundDuration":107146,"Delta":145887740},{"NoteNumber":64,"Velocity":72,"Duration":107146,"SoundDuration":107146,"Delta":145887740},{"NoteNumber":96,"Velocity":77,"Duration":109224,"SoundDuration":109224,"Delta":145994887},{"NoteNumber":91,"Velocity":65,"Duration":109224,"SoundDuration":109224,"Delta":145994887},{"NoteNumber":52,"Velocity":73,"Duration":109224,"SoundDuration":109224,"Delta":145994887},{"NoteNumber":84,"Velocity":78,"Duration":140845,"SoundDuration":140845,"Delta":146104111},{"NoteNumber":64,"Velocity":74,"Duration":140845,"SoundDuration":140845,"Delta":146104111},{"NoteNumber":101,"Velocity":82,"Duration":107142,"SoundDuration":107142,"Delta":146244956},{"NoteNumber":96,"Velocity":69,"Duration":107142,"SoundDuration":107142,"Delta":146244956},{"NoteNumber":50,"Velocity":75,"Duration":107142,"SoundDuration":107142,"Delta":146244956},{"NoteNumber":89,"Velocity":75,"Duration":107142,"SoundDuration":107142,"Delta":146352099},{"NoteNumber":62,"Velocity":73,"Duration":107142,"SoundDuration":107142,"Delta":146352099},{"NoteNumber":101,"Velocity":82,"Duration":107142,"SoundDuration":107142,"Delta":146459242},{"NoteNumber":96,"Velocity":70,"Duration":107142,"SoundDuration":107142,"Delta":146459242},{"NoteNumber":50,"Velocity":80,"Duration":107142,"SoundDuration":107142,"Delta":146459242},{"NoteNumber":89,"Velocity":77,"Duration":107142,"SoundDuration":107142,"Delta":146566384},{"NoteNumber":62,"Velocity":74,"Duration":107142,"SoundDuration":107142,"Delta":146566384},{"NoteNumber":101,"Velocity":85,"Duration":107142,"SoundDuration":107142,"Delta":146673527},{"NoteNumber":95,"Velocity":72,"Duration":107142,"SoundDuration":107142,"Delta":146673527},{"NoteNumber":43,"Velocity":83,"Duration":107142,"SoundDuration":107142,"Delta":146673527},{"NoteNumber":89,"Velocity":81,"Duration":107142,"SoundDuration":107142,"Delta":146780670},{"NoteNumber":55,"Velocity":75,"Duration":107142,"SoundDuration":107142,"Delta":146780670},{"NoteNumber":101,"Velocity":86,"Duration":107142,"SoundDuration":107142,"Delta":146887813},{"NoteNumber":95,"Velocity":73,"Duration":107142,"SoundDuration":107142,"Delta":146887813},{"NoteNumber":43,"Velocity":83,"Duration":107142,"SoundDuration":107142,"Delta":146887813},{"NoteNumber":89,"Velocity":82,"Duration":107142,"SoundDuration":107142,"Delta":146994955},{"NoteNumber":55,"Velocity":78,"Duration":107142,"SoundDuration":107142,"Delta":146994955},{"NoteNumber":100,"Velocity":78,"Duration":101695,"SoundDuration":101695,"Delta":147102098},{"NoteNumber":95,"Velocity":66,"Duration":101695,"SoundDuration":101695,"Delta":147102098},{"NoteNumber":48,"Velocity":64,"Duration":101695,"SoundDuration":101695,"Delta":147102098},{"NoteNumber":88,"Velocity":70,"Duration":101695,"SoundDuration":101695,"Delta":147203793},{"NoteNumber":60,"Velocity":54,"Duration":101695,"SoundDuration":101695,"Delta":147203793},{"NoteNumber":100,"Velocity":77,"Duration":101694,"SoundDuration":101694,"Delta":147305488},{"NoteNumber":95,"Velocity":65,"Duration":101694,"SoundDuration":101694,"Delta":147305488},{"NoteNumber":48,"Velocity":64,"Duration":101694,"SoundDuration":101694,"Delta":147305488},{"NoteNumber":88,"Velocity":70,"Duration":101695,"SoundDuration":101695,"Delta":147407183},{"NoteNumber":60,"Velocity":53,"Duration":101695,"SoundDuration":101695,"Delta":147407183},{"NoteNumber":100,"Velocity":75,"Duration":101695,"SoundDuration":101695,"Delta":147508878},{"NoteNumber":93,"Velocity":64,"Duration":101695,"SoundDuration":101695,"Delta":147508878},{"NoteNumber":41,"Velocity":64,"Duration":101695,"SoundDuration":101695,"Delta":147508878},{"NoteNumber":88,"Velocity":68,"Duration":101695,"SoundDuration":101695,"Delta":147610573},{"NoteNumber":53,"Velocity":55,"Duration":101695,"SoundDuration":101695,"Delta":147610573},{"NoteNumber":100,"Velocity":72,"Duration":101694,"SoundDuration":101694,"Delta":147712268},{"NoteNumber":93,"Velocity":60,"Duration":101694,"SoundDuration":101694,"Delta":147712268},{"NoteNumber":41,"Velocity":64,"Duration":101694,"SoundDuration":101694,"Delta":147712268},{"NoteNumber":88,"Velocity":67,"Duration":101695,"SoundDuration":101695,"Delta":147813963},{"NoteNumber":53,"Velocity":54,"Duration":101695,"SoundDuration":101695,"Delta":147813963},{"NoteNumber":98,"Velocity":74,"Duration":100671,"SoundDuration":100671,"Delta":147915658},{"NoteNumber":93,"Velocity":63,"Duration":100671,"SoundDuration":100671,"Delta":147915658},{"NoteNumber":47,"Velocity":64,"Duration":100671,"SoundDuration":100671,"Delta":147915658},{"NoteNumber":86,"Velocity":68,"Duration":100671,"SoundDuration":100671,"Delta":148016329},{"NoteNumber":59,"Velocity":54,"Duration":100671,"SoundDuration":100671,"Delta":148016329},{"NoteNumber":98,"Velocity":74,"Duration":100671,"SoundDuration":100671,"Delta":148117001},{"NoteNumber":93,"Velocity":63,"Duration":100671,"SoundDuration":100671,"Delta":148117001},{"NoteNumber":47,"Velocity":64,"Duration":100671,"SoundDuration":100671,"Delta":148117001},{"NoteNumber":86,"Velocity":67,"Duration":100671,"SoundDuration":100671,"Delta":148217672},{"NoteNumber":59,"Velocity":54,"Duration":100671,"SoundDuration":100671,"Delta":148217672},{"NoteNumber":98,"Velocity":74,"Duration":100671,"SoundDuration":100671,"Delta":148318343},{"NoteNumber":92,"Velocity":63,"Duration":100671,"SoundDuration":100671,"Delta":148318343},{"NoteNumber":40,"Velocity":64,"Duration":100671,"SoundDuration":100671,"Delta":148318343},{"NoteNumber":86,"Velocity":66,"Duration":100671,"SoundDuration":100671,"Delta":148419014},{"NoteNumber":52,"Velocity":53,"Duration":100671,"SoundDuration":100671,"Delta":148419014},{"NoteNumber":98,"Velocity":74,"Duration":100671,"SoundDuration":100671,"Delta":148519686},{"NoteNumber":92,"Velocity":63,"Duration":100671,"SoundDuration":100671,"Delta":148519686},{"NoteNumber":40,"Velocity":64,"Duration":100671,"SoundDuration":100671,"Delta":148519686},{"NoteNumber":86,"Velocity":68,"Duration":100671,"SoundDuration":100671,"Delta":148620357},{"NoteNumber":52,"Velocity":55,"Duration":100671,"SoundDuration":100671,"Delta":148620357},{"NoteNumber":96,"Velocity":74,"Duration":100334,"SoundDuration":100334,"Delta":148721028},{"NoteNumber":93,"Velocity":63,"Duration":100334,"SoundDuration":100334,"Delta":148721028},{"NoteNumber":41,"Velocity":64,"Duration":100334,"SoundDuration":100334,"Delta":148721028},{"NoteNumber":84,"Velocity":68,"Duration":100334,"SoundDuration":100334,"Delta":148821363},{"NoteNumber":53,"Velocity":56,"Duration":100334,"SoundDuration":100334,"Delta":148821363},{"NoteNumber":96,"Velocity":74,"Duration":99999,"SoundDuration":99999,"Delta":148921697},{"NoteNumber":93,"Velocity":63,"Duration":99999,"SoundDuration":99999,"Delta":148921697},{"NoteNumber":41,"Velocity":64,"Duration":99999,"SoundDuration":99999,"Delta":148921697},{"NoteNumber":84,"Velocity":67,"Duration":99889,"SoundDuration":99889,"Delta":149021697},{"NoteNumber":53,"Velocity":54,"Duration":99889,"SoundDuration":99889,"Delta":149021697},{"NoteNumber":89,"Velocity":65,"Duration":98684,"SoundDuration":98684,"Delta":149121586},{"NoteNumber":93,"Velocity":65,"Duration":98684,"SoundDuration":98684,"Delta":149121586},{"NoteNumber":98,"Velocity":77,"Duration":98684,"SoundDuration":98684,"Delta":149121586},{"NoteNumber":50,"Velocity":67,"Duration":98684,"SoundDuration":98684,"Delta":149121586},{"NoteNumber":45,"Velocity":56,"Duration":98684,"SoundDuration":98684,"Delta":149121586},{"NoteNumber":41,"Velocity":56,"Duration":98684,"SoundDuration":98684,"Delta":149121586},{"NoteNumber":86,"Velocity":70,"Duration":98684,"SoundDuration":98684,"Delta":149220271},{"NoteNumber":53,"Velocity":59,"Duration":98684,"SoundDuration":98684,"Delta":149220271},{"NoteNumber":98,"Velocity":76,"Duration":98684,"SoundDuration":98684,"Delta":149318955},{"NoteNumber":93,"Velocity":65,"Duration":98684,"SoundDuration":98684,"Delta":149318955},{"NoteNumber":89,"Velocity":65,"Duration":98684,"SoundDuration":98684,"Delta":149318955},{"NoteNumber":41,"Velocity":56,"Duration":98684,"SoundDuration":98684,"Delta":149318955},{"NoteNumber":45,"Velocity":56,"Duration":98684,"SoundDuration":98684,"Delta":149318955},{"NoteNumber":50,"Velocity":67,"Duration":98684,"SoundDuration":98684,"Delta":149318955},{"NoteNumber":86,"Velocity":70,"Duration":98684,"SoundDuration":98684,"Delta":149417639},{"NoteNumber":53,"Velocity":57,"Duration":98684,"SoundDuration":98684,"Delta":149417639},{"NoteNumber":96,"Velocity":74,"Duration":99119,"SoundDuration":99119,"Delta":149516323},{"NoteNumber":91,"Velocity":63,"Duration":99119,"SoundDuration":99119,"Delta":149516323},{"NoteNumber":88,"Velocity":63,"Duration":99119,"SoundDuration":99119,"Delta":149516323},{"NoteNumber":43,"Velocity":53,"Duration":99119,"SoundDuration":99119,"Delta":149516323},{"NoteNumber":48,"Velocity":53,"Duration":99119,"SoundDuration":99119,"Delta":149516323},{"NoteNumber":52,"Velocity":64,"Duration":99119,"SoundDuration":99119,"Delta":149516323},{"NoteNumber":84,"Velocity":68,"Duration":99337,"SoundDuration":99337,"Delta":149615443},{"NoteNumber":55,"Velocity":57,"Duration":99337,"SoundDuration":99337,"Delta":149615443},{"NoteNumber":96,"Velocity":74,"Duration":99337,"SoundDuration":99337,"Delta":149714781},{"NoteNumber":91,"Velocity":63,"Duration":99337,"SoundDuration":99337,"Delta":149714781},{"NoteNumber":88,"Velocity":63,"Duration":99337,"SoundDuration":99337,"Delta":149714781},{"NoteNumber":43,"Velocity":53,"Duration":99337,"SoundDuration":99337,"Delta":149714781},{"NoteNumber":48,"Velocity":53,"Duration":99337,"SoundDuration":99337,"Delta":149714781},{"NoteNumber":52,"Velocity":64,"Duration":99337,"SoundDuration":99337,"Delta":149714781},{"NoteNumber":84,"Velocity":68,"Duration":99337,"SoundDuration":99337,"Delta":149814119},{"NoteNumber":55,"Velocity":56,"Duration":99337,"SoundDuration":99337,"Delta":149814119},{"NoteNumber":95,"Velocity":74,"Duration":99999,"SoundDuration":99999,"Delta":149913457},{"NoteNumber":91,"Velocity":63,"Duration":99999,"SoundDuration":99999,"Delta":149913457},{"NoteNumber":86,"Velocity":63,"Duration":99999,"SoundDuration":99999,"Delta":149913457},{"NoteNumber":43,"Velocity":53,"Duration":99999,"SoundDuration":99999,"Delta":149913457},{"NoteNumber":47,"Velocity":53,"Duration":99999,"SoundDuration":99999,"Delta":149913457},{"NoteNumber":50,"Velocity":64,"Duration":99999,"SoundDuration":99999,"Delta":149913457},{"NoteNumber":83,"Velocity":69,"Duration":100222,"SoundDuration":100222,"Delta":150013457},{"NoteNumber":55,"Velocity":57,"Duration":100222,"SoundDuration":100222,"Delta":150013457},{"NoteNumber":95,"Velocity":74,"Duration":100446,"SoundDuration":100446,"Delta":150113680},{"NoteNumber":91,"Velocity":63,"Duration":100446,"SoundDuration":100446,"Delta":150113680},{"NoteNumber":86,"Velocity":63,"Duration":100446,"SoundDuration":100446,"Delta":150113680},{"NoteNumber":43,"Velocity":53,"Duration":100446,"SoundDuration":100446,"Delta":150113680},{"NoteNumber":47,"Velocity":53,"Duration":100446,"SoundDuration":100446,"Delta":150113680},{"NoteNumber":50,"Velocity":64,"Duration":100446,"SoundDuration":100446,"Delta":150113680},{"NoteNumber":83,"Velocity":68,"Duration":100671,"SoundDuration":100671,"Delta":150214126},{"NoteNumber":55,"Velocity":57,"Duration":100671,"SoundDuration":100671,"Delta":150214126},{"NoteNumber":84,"Velocity":63,"Duration":101010,"SoundDuration":101010,"Delta":150314798},{"NoteNumber":88,"Velocity":63,"Duration":101010,"SoundDuration":101010,"Delta":150314798},{"NoteNumber":91,"Velocity":74,"Duration":101010,"SoundDuration":101010,"Delta":150314798},{"NoteNumber":60,"Velocity":64,"Duration":101010,"SoundDuration":101010,"Delta":150314798},{"NoteNumber":55,"Velocity":53,"Duration":101010,"SoundDuration":101010,"Delta":150314798},{"NoteNumber":52,"Velocity":53,"Duration":101010,"SoundDuration":101010,"Delta":150314798},{"NoteNumber":79,"Velocity":66,"Duration":101010,"SoundDuration":101010,"Delta":150415808},{"NoteNumber":64,"Velocity":55,"Duration":101010,"SoundDuration":101010,"Delta":150415808},{"NoteNumber":91,"Velocity":74,"Duration":101010,"SoundDuration":101010,"Delta":150516818},{"NoteNumber":88,"Velocity":63,"Duration":101010,"SoundDuration":101010,"Delta":150516818},{"NoteNumber":84,"Velocity":63,"Duration":101010,"SoundDuration":101010,"Delta":150516818},{"NoteNumber":60,"Velocity":64,"Duration":101010,"SoundDuration":101010,"Delta":150516818},{"NoteNumber":55,"Velocity":53,"Duration":101010,"SoundDuration":101010,"Delta":150516818},{"NoteNumber":52,"Velocity":53,"Duration":101010,"SoundDuration":101010,"Delta":150516818},{"NoteNumber":79,"Velocity":66,"Duration":101697,"SoundDuration":101697,"Delta":150617828},{"NoteNumber":64,"Velocity":55,"Duration":101697,"SoundDuration":101697,"Delta":150617828},{"NoteNumber":81,"Velocity":65,"Duration":102272,"SoundDuration":102272,"Delta":150719525},{"NoteNumber":86,"Velocity":65,"Duration":102272,"SoundDuration":102272,"Delta":150719525},{"NoteNumber":89,"Velocity":77,"Duration":102272,"SoundDuration":102272,"Delta":150719525},{"NoteNumber":62,"Velocity":67,"Duration":102272,"SoundDuration":102272,"Delta":150719525},{"NoteNumber":57,"Velocity":56,"Duration":102272,"SoundDuration":102272,"Delta":150719525},{"NoteNumber":53,"Velocity":56,"Duration":102272,"SoundDuration":102272,"Delta":150719525},{"NoteNumber":77,"Velocity":69,"Duration":102622,"SoundDuration":102622,"Delta":150821798},{"NoteNumber":65,"Velocity":58,"Duration":102622,"SoundDuration":102622,"Delta":150821798},{"NoteNumber":89,"Velocity":76,"Duration":102975,"SoundDuration":102975,"Delta":150924421},{"NoteNumber":86,"Velocity":65,"Duration":102975,"SoundDuration":102975,"Delta":150924421},{"NoteNumber":81,"Velocity":65,"Duration":102975,"SoundDuration":102975,"Delta":150924421},{"NoteNumber":62,"Velocity":67,"Duration":102975,"SoundDuration":102975,"Delta":150924421},{"NoteNumber":57,"Velocity":56,"Duration":102975,"SoundDuration":102975,"Delta":150924421},{"NoteNumber":53,"Velocity":56,"Duration":102975,"SoundDuration":102975,"Delta":150924421},{"NoteNumber":77,"Velocity":70,"Duration":103329,"SoundDuration":103329,"Delta":151027396},{"NoteNumber":65,"Velocity":56,"Duration":103329,"SoundDuration":103329,"Delta":151027396},{"NoteNumber":79,"Velocity":66,"Duration":103329,"SoundDuration":103329,"Delta":151130725},{"NoteNumber":84,"Velocity":66,"Duration":103329,"SoundDuration":103329,"Delta":151130725},{"NoteNumber":88,"Velocity":78,"Duration":103329,"SoundDuration":103329,"Delta":151130725},{"NoteNumber":64,"Velocity":71,"Duration":103329,"SoundDuration":103329,"Delta":151130725},{"NoteNumber":60,"Velocity":59,"Duration":103329,"SoundDuration":103329,"Delta":151130725},{"NoteNumber":55,"Velocity":59,"Duration":103329,"SoundDuration":103329,"Delta":151130725},{"NoteNumber":76,"Velocity":71,"Duration":104167,"SoundDuration":104167,"Delta":151234055},{"NoteNumber":67,"Velocity":61,"Duration":104167,"SoundDuration":104167,"Delta":151234055},{"NoteNumber":79,"Velocity":67,"Duration":105264,"SoundDuration":105264,"Delta":151338223},{"NoteNumber":84,"Velocity":67,"Duration":105264,"SoundDuration":105264,"Delta":151338223},{"NoteNumber":88,"Velocity":79,"Duration":105264,"SoundDuration":105264,"Delta":151338223},{"NoteNumber":64,"Velocity":70,"Duration":105264,"SoundDuration":105264,"Delta":151338223},{"NoteNumber":60,"Velocity":58,"Duration":105264,"SoundDuration":105264,"Delta":151338223},{"NoteNumber":55,"Velocity":58,"Duration":105264,"SoundDuration":105264,"Delta":151338223},{"NoteNumber":76,"Velocity":70,"Duration":106383,"SoundDuration":106383,"Delta":151443487},{"NoteNumber":67,"Velocity":59,"Duration":106383,"SoundDuration":106383,"Delta":151443487},{"NoteNumber":79,"Velocity":67,"Duration":107398,"SoundDuration":107398,"Delta":151549870},{"NoteNumber":83,"Velocity":67,"Duration":107398,"SoundDuration":107398,"Delta":151549870},{"NoteNumber":86,"Velocity":79,"Duration":107398,"SoundDuration":107398,"Delta":151549870},{"NoteNumber":65,"Velocity":71,"Duration":107398,"SoundDuration":107398,"Delta":151549870},{"NoteNumber":62,"Velocity":59,"Duration":107398,"SoundDuration":107398,"Delta":151549870},{"NoteNumber":55,"Velocity":59,"Duration":107398,"SoundDuration":107398,"Delta":151549870},{"NoteNumber":74,"Velocity":74,"Duration":107270,"SoundDuration":107270,"Delta":151657269},{"NoteNumber":67,"Velocity":64,"Duration":107270,"SoundDuration":107270,"Delta":151657269},{"NoteNumber":79,"Velocity":68,"Duration":107655,"SoundDuration":107655,"Delta":151764540},{"NoteNumber":83,"Velocity":68,"Duration":107655,"SoundDuration":107655,"Delta":151764540},{"NoteNumber":86,"Velocity":80,"Duration":107655,"SoundDuration":107655,"Delta":151764540},{"NoteNumber":65,"Velocity":74,"Duration":107655,"SoundDuration":107655,"Delta":151764540},{"NoteNumber":62,"Velocity":63,"Duration":107655,"SoundDuration":107655,"Delta":151764540},{"NoteNumber":55,"Velocity":63,"Duration":107655,"SoundDuration":107655,"Delta":151764540},{"NoteNumber":74,"Velocity":74,"Duration":107913,"SoundDuration":107913,"Delta":151872196},{"NoteNumber":67,"Velocity":63,"Duration":107913,"SoundDuration":107913,"Delta":151872196},{"NoteNumber":88,"Velocity":78,"Duration":103092,"SoundDuration":103092,"Delta":151980110},{"NoteNumber":36,"Velocity":70,"Duration":412371,"SoundDuration":412371,"Delta":151980110},{"NoteNumber":48,"Velocity":82,"Duration":412371,"SoundDuration":412371,"Delta":151980110},{"NoteNumber":96,"Velocity":76,"Duration":103092,"SoundDuration":103092,"Delta":152083203},{"NoteNumber":91,"Velocity":76,"Duration":103092,"SoundDuration":103092,"Delta":152186295},{"NoteNumber":88,"Velocity":75,"Duration":103092,"SoundDuration":103092,"Delta":152289388},{"NoteNumber":84,"Velocity":74,"Duration":117056,"SoundDuration":117056,"Delta":152392481},{"NoteNumber":40,"Velocity":60,"Duration":75250,"SoundDuration":75250,"Delta":152392481},{"NoteNumber":52,"Velocity":72,"Duration":75250,"SoundDuration":75250,"Delta":152392481},{"NoteNumber":79,"Velocity":73,"Duration":117283,"SoundDuration":117283,"Delta":152492815},{"NoteNumber":76,"Velocity":72,"Duration":118644,"SoundDuration":118644,"Delta":152593150},{"NoteNumber":40,"Velocity":60,"Duration":76271,"SoundDuration":76271,"Delta":152593150},{"NoteNumber":52,"Velocity":72,"Duration":76271,"SoundDuration":76271,"Delta":152593150},{"NoteNumber":72,"Velocity":72,"Duration":118644,"SoundDuration":118644,"Delta":152694845},{"NoteNumber":86,"Velocity":72,"Duration":101695,"SoundDuration":101695,"Delta":152796540},{"NoteNumber":43,"Velocity":66,"Duration":406779,"SoundDuration":406779,"Delta":152796540},{"NoteNumber":55,"Velocity":78,"Duration":406779,"SoundDuration":406779,"Delta":152796540},{"NoteNumber":95,"Velocity":76,"Duration":101695,"SoundDuration":101695,"Delta":152898235},{"NoteNumber":91,"Velocity":72,"Duration":101694,"SoundDuration":101694,"Delta":152999930},{"NoteNumber":89,"Velocity":68,"Duration":101695,"SoundDuration":101695,"Delta":153101625},{"NoteNumber":83,"Velocity":74,"Duration":118644,"SoundDuration":118644,"Delta":153203320},{"NoteNumber":31,"Velocity":62,"Duration":76271,"SoundDuration":76271,"Delta":153203320},{"NoteNumber":43,"Velocity":73,"Duration":76271,"SoundDuration":76271,"Delta":153203320},{"NoteNumber":79,"Velocity":68,"Duration":119238,"SoundDuration":119238,"Delta":153305015},{"NoteNumber":77,"Velocity":74,"Duration":124493,"SoundDuration":124493,"Delta":153406710},{"NoteNumber":31,"Velocity":63,"Duration":78947,"SoundDuration":78947,"Delta":153406710},{"NoteNumber":43,"Velocity":74,"Duration":78947,"SoundDuration":78947,"Delta":153406710},{"NoteNumber":71,"Velocity":71,"Duration":132566,"SoundDuration":132566,"Delta":153511973},{"NoteNumber":86,"Velocity":72,"Duration":103092,"SoundDuration":103092,"Delta":153627358},{"NoteNumber":38,"Velocity":67,"Duration":412371,"SoundDuration":412371,"Delta":153627358},{"NoteNumber":50,"Velocity":79,"Duration":412371,"SoundDuration":412371,"Delta":153627358},{"NoteNumber":98,"Velocity":76,"Duration":103092,"SoundDuration":103092,"Delta":153730450},{"NoteNumber":93,"Velocity":76,"Duration":103092,"SoundDuration":103092,"Delta":153833543},{"NoteNumber":89,"Velocity":75,"Duration":103092,"SoundDuration":103092,"Delta":153936636},{"NoteNumber":86,"Velocity":74,"Duration":117056,"SoundDuration":117056,"Delta":154039729},{"NoteNumber":41,"Velocity":60,"Duration":75250,"SoundDuration":75250,"Delta":154039729},{"NoteNumber":53,"Velocity":72,"Duration":75250,"SoundDuration":75250,"Delta":154039729},{"NoteNumber":81,"Velocity":73,"Duration":117283,"SoundDuration":117283,"Delta":154140063},{"NoteNumber":77,"Velocity":72,"Duration":118644,"SoundDuration":118644,"Delta":154240398},{"NoteNumber":41,"Velocity":60,"Duration":76271,"SoundDuration":76271,"Delta":154240398},{"NoteNumber":53,"Velocity":72,"Duration":76271,"SoundDuration":76271,"Delta":154240398},{"NoteNumber":74,"Velocity":72,"Duration":118701,"SoundDuration":118701,"Delta":154342093},{"NoteNumber":85,"Velocity":72,"Duration":102040,"SoundDuration":102040,"Delta":154443788},{"NoteNumber":45,"Velocity":66,"Duration":408163,"SoundDuration":408163,"Delta":154443788},{"NoteNumber":57,"Velocity":78,"Duration":408163,"SoundDuration":408163,"Delta":154443788},{"NoteNumber":97,"Velocity":76,"Duration":102040,"SoundDuration":102040,"Delta":154545828},{"NoteNumber":93,"Velocity":72,"Duration":102040,"SoundDuration":102040,"Delta":154647869},{"NoteNumber":91,"Velocity":68,"Duration":102040,"SoundDuration":102040,"Delta":154749910},{"NoteNumber":85,"Velocity":74,"Duration":119453,"SoundDuration":119453,"Delta":154851951},{"NoteNumber":33,"Velocity":62,"Duration":76791,"SoundDuration":76791,"Delta":154851951},{"NoteNumber":45,"Velocity":73,"Duration":76791,"SoundDuration":76791,"Delta":154851951},{"NoteNumber":81,"Velocity":68,"Duration":119871,"SoundDuration":119871,"Delta":154954340},{"NoteNumber":79,"Velocity":74,"Duration":124125,"SoundDuration":124125,"Delta":155056729},{"NoteNumber":33,"Velocity":63,"Duration":78671,"SoundDuration":78671,"Delta":155056729},{"NoteNumber":45,"Velocity":74,"Duration":78671,"SoundDuration":78671,"Delta":155056729},{"NoteNumber":73,"Velocity":71,"Duration":132566,"SoundDuration":132566,"Delta":155161624},{"NoteNumber":89,"Velocity":72,"Duration":103092,"SoundDuration":103092,"Delta":155277008},{"NoteNumber":41,"Velocity":67,"Duration":412371,"SoundDuration":412371,"Delta":155277008},{"NoteNumber":53,"Velocity":79,"Duration":412371,"SoundDuration":412371,"Delta":155277008},{"NoteNumber":101,"Velocity":76,"Duration":103092,"SoundDuration":103092,"Delta":155380101},{"NoteNumber":96,"Velocity":76,"Duration":103092,"SoundDuration":103092,"Delta":155483194},{"NoteNumber":93,"Velocity":75,"Duration":103092,"SoundDuration":103092,"Delta":155586286},{"NoteNumber":89,"Velocity":74,"Duration":115894,"SoundDuration":115894,"Delta":155689379},{"NoteNumber":45,"Velocity":60,"Duration":74503,"SoundDuration":74503,"Delta":155689379},{"NoteNumber":57,"Velocity":72,"Duration":74503,"SoundDuration":74503,"Delta":155689379},{"NoteNumber":84,"Velocity":73,"Duration":116344,"SoundDuration":116344,"Delta":155788717},{"NoteNumber":81,"Velocity":72,"Duration":119047,"SoundDuration":119047,"Delta":155888055},{"NoteNumber":45,"Velocity":60,"Duration":76530,"SoundDuration":76530,"Delta":155888055},{"NoteNumber":57,"Velocity":72,"Duration":76530,"SoundDuration":76530,"Delta":155888055},{"NoteNumber":77,"Velocity":72,"Duration":118819,"SoundDuration":118819,"Delta":155990095},{"NoteNumber":88,"Velocity":72,"Duration":100671,"SoundDuration":100671,"Delta":156092136},{"NoteNumber":48,"Velocity":66,"Duration":402684,"SoundDuration":402684,"Delta":156092136},{"NoteNumber":60,"Velocity":78,"Duration":402684,"SoundDuration":402684,"Delta":156092136},{"NoteNumber":100,"Velocity":76,"Duration":100671,"SoundDuration":100671,"Delta":156192807},{"NoteNumber":96,"Velocity":72,"Duration":100671,"SoundDuration":100671,"Delta":156293479},{"NoteNumber":91,"Velocity":68,"Duration":100671,"SoundDuration":100671,"Delta":156394150},{"NoteNumber":88,"Velocity":74,"Duration":120274,"SoundDuration":120274,"Delta":156494821},{"NoteNumber":36,"Velocity":62,"Duration":77319,"SoundDuration":77319,"Delta":156494821},{"NoteNumber":48,"Velocity":73,"Duration":77319,"SoundDuration":77319,"Delta":156494821},{"NoteNumber":84,"Velocity":68,"Duration":120575,"SoundDuration":120575,"Delta":156597914},{"NoteNumber":79,"Velocity":74,"Duration":124125,"SoundDuration":124125,"Delta":156701007},{"NoteNumber":36,"Velocity":63,"Duration":78671,"SoundDuration":78671,"Delta":156701007},{"NoteNumber":48,"Velocity":74,"Duration":78671,"SoundDuration":78671,"Delta":156701007},{"NoteNumber":76,"Velocity":71,"Duration":132566,"SoundDuration":132566,"Delta":156805902},{"NoteNumber":85,"Velocity":73,"Duration":412371,"SoundDuration":412371,"Delta":156921286},{"NoteNumber":82,"Velocity":73,"Duration":412371,"SoundDuration":412371,"Delta":156921286},{"NoteNumber":79,"Velocity":73,"Duration":412371,"SoundDuration":412371,"Delta":156921286},{"NoteNumber":91,"Velocity":87,"Duration":412371,"SoundDuration":412371,"Delta":156921286},{"NoteNumber":40,"Velocity":71,"Duration":120274,"SoundDuration":120274,"Delta":156921286},{"NoteNumber":46,"Velocity":64,"Duration":120274,"SoundDuration":120274,"Delta":157024379},{"NoteNumber":49,"Velocity":64,"Duration":120274,"SoundDuration":120274,"Delta":157127472},{"NoteNumber":52,"Velocity":64,"Duration":119815,"SoundDuration":119815,"Delta":157230564},{"NoteNumber":73,"Velocity":60,"Duration":200669,"SoundDuration":200669,"Delta":157333657},{"NoteNumber":70,"Velocity":60,"Duration":200669,"SoundDuration":200669,"Delta":157333657},{"NoteNumber":67,"Velocity":60,"Duration":200669,"SoundDuration":200669,"Delta":157333657},{"NoteNumber":79,"Velocity":72,"Duration":200669,"SoundDuration":200669,"Delta":157333657},{"NoteNumber":52,"Velocity":71,"Duration":117056,"SoundDuration":117056,"Delta":157333657},{"NoteNumber":58,"Velocity":66,"Duration":117056,"SoundDuration":117056,"Delta":157433992},{"NoteNumber":73,"Velocity":60,"Duration":218911,"SoundDuration":218911,"Delta":157534326},{"NoteNumber":70,"Velocity":60,"Duration":218911,"SoundDuration":218911,"Delta":157534326},{"NoteNumber":67,"Velocity":60,"Duration":218911,"SoundDuration":218911,"Delta":157534326},{"NoteNumber":79,"Velocity":72,"Duration":218911,"SoundDuration":218911,"Delta":157534326},{"NoteNumber":61,"Velocity":66,"Duration":120097,"SoundDuration":120097,"Delta":157534326},{"NoteNumber":64,"Velocity":66,"Duration":135759,"SoundDuration":135759,"Delta":157634661},{"NoteNumber":86,"Velocity":69,"Duration":412371,"SoundDuration":412371,"Delta":157753238},{"NoteNumber":83,"Velocity":69,"Duration":412371,"SoundDuration":412371,"Delta":157753238},{"NoteNumber":79,"Velocity":69,"Duration":412371,"SoundDuration":412371,"Delta":157753238},{"NoteNumber":91,"Velocity":82,"Duration":412371,"SoundDuration":412371,"Delta":157753238},{"NoteNumber":41,"Velocity":71,"Duration":120274,"SoundDuration":120274,"Delta":157753238},{"NoteNumber":47,"Velocity":65,"Duration":120274,"SoundDuration":120274,"Delta":157856330},{"NoteNumber":50,"Velocity":66,"Duration":120274,"SoundDuration":120274,"Delta":157959423},{"NoteNumber":53,"Velocity":66,"Duration":120041,"SoundDuration":120041,"Delta":158062516},{"NoteNumber":74,"Velocity":62,"Duration":203390,"SoundDuration":203390,"Delta":158165609},{"NoteNumber":71,"Velocity":62,"Duration":203390,"SoundDuration":203390,"Delta":158165609},{"NoteNumber":67,"Velocity":62,"Duration":203390,"SoundDuration":203390,"Delta":158165609},{"NoteNumber":79,"Velocity":73,"Duration":203390,"SoundDuration":203390,"Delta":158165609},{"NoteNumber":53,"Velocity":71,"Duration":118644,"SoundDuration":118644,"Delta":158165609},{"NoteNumber":59,"Velocity":65,"Duration":118644,"SoundDuration":118644,"Delta":158267304},{"NoteNumber":74,"Velocity":63,"Duration":220271,"SoundDuration":220271,"Delta":158368999},{"NoteNumber":71,"Velocity":63,"Duration":220271,"SoundDuration":220271,"Delta":158368999},{"NoteNumber":67,"Velocity":63,"Duration":220271,"SoundDuration":220271,"Delta":158368999},{"NoteNumber":79,"Velocity":74,"Duration":220271,"SoundDuration":220271,"Delta":158368999},{"NoteNumber":62,"Velocity":65,"Duration":121457,"SoundDuration":121457,"Delta":158368999},{"NoteNumber":65,"Velocity":65,"Duration":135759,"SoundDuration":135759,"Delta":158470694},{"NoteNumber":85,"Velocity":73,"Duration":412371,"SoundDuration":412371,"Delta":158589271},{"NoteNumber":82,"Velocity":73,"Duration":412371,"SoundDuration":412371,"Delta":158589271},{"NoteNumber":79,"Velocity":73,"Duration":412371,"SoundDuration":412371,"Delta":158589271},{"NoteNumber":91,"Velocity":87,"Duration":412371,"SoundDuration":412371,"Delta":158589271},{"NoteNumber":40,"Velocity":71,"Duration":120274,"SoundDuration":120274,"Delta":158589271},{"NoteNumber":46,"Velocity":64,"Duration":120274,"SoundDuration":120274,"Delta":158692363},{"NoteNumber":49,"Velocity":64,"Duration":120274,"SoundDuration":120274,"Delta":158795456},{"NoteNumber":52,"Velocity":64,"Duration":119815,"SoundDuration":119815,"Delta":158898549},{"NoteNumber":73,"Velocity":60,"Duration":200669,"SoundDuration":200669,"Delta":159001642},{"NoteNumber":70,"Velocity":60,"Duration":200669,"SoundDuration":200669,"Delta":159001642},{"NoteNumber":67,"Velocity":60,"Duration":200669,"SoundDuration":200669,"Delta":159001642},{"NoteNumber":79,"Velocity":72,"Duration":200669,"SoundDuration":200669,"Delta":159001642},{"NoteNumber":52,"Velocity":71,"Duration":117056,"SoundDuration":117056,"Delta":159001642},{"NoteNumber":58,"Velocity":66,"Duration":117056,"SoundDuration":117056,"Delta":159101976},{"NoteNumber":73,"Velocity":60,"Duration":218911,"SoundDuration":218911,"Delta":159202311},{"NoteNumber":70,"Velocity":60,"Duration":218911,"SoundDuration":218911,"Delta":159202311},{"NoteNumber":67,"Velocity":60,"Duration":218911,"SoundDuration":218911,"Delta":159202311},{"NoteNumber":79,"Velocity":72,"Duration":218911,"SoundDuration":218911,"Delta":159202311},{"NoteNumber":61,"Velocity":66,"Duration":120097,"SoundDuration":120097,"Delta":159202311},{"NoteNumber":64,"Velocity":66,"Duration":135759,"SoundDuration":135759,"Delta":159302645},{"NoteNumber":86,"Velocity":69,"Duration":412371,"SoundDuration":412371,"Delta":159421222},{"NoteNumber":83,"Velocity":69,"Duration":412371,"SoundDuration":412371,"Delta":159421222},{"NoteNumber":79,"Velocity":69,"Duration":412371,"SoundDuration":412371,"Delta":159421222},{"NoteNumber":91,"Velocity":82,"Duration":412371,"SoundDuration":412371,"Delta":159421222},{"NoteNumber":41,"Velocity":71,"Duration":120274,"SoundDuration":120274,"Delta":159421222},{"NoteNumber":47,"Velocity":65,"Duration":120274,"SoundDuration":120274,"Delta":159524315},{"NoteNumber":50,"Velocity":66,"Duration":120274,"SoundDuration":120274,"Delta":159627408},{"NoteNumber":53,"Velocity":66,"Duration":120041,"SoundDuration":120041,"Delta":159730500},{"NoteNumber":74,"Velocity":62,"Duration":203390,"SoundDuration":203390,"Delta":159833593},{"NoteNumber":71,"Velocity":62,"Duration":203390,"SoundDuration":203390,"Delta":159833593},{"NoteNumber":67,"Velocity":62,"Duration":203390,"SoundDuration":203390,"Delta":159833593},{"NoteNumber":79,"Velocity":73,"Duration":203390,"SoundDuration":203390,"Delta":159833593},{"NoteNumber":53,"Velocity":71,"Duration":118644,"SoundDuration":118644,"Delta":159833593},{"NoteNumber":59,"Velocity":65,"Duration":118644,"SoundDuration":118644,"Delta":159935288},{"NoteNumber":74,"Velocity":63,"Duration":220271,"SoundDuration":220271,"Delta":160036983},{"NoteNumber":71,"Velocity":63,"Duration":220271,"SoundDuration":220271,"Delta":160036983},{"NoteNumber":67,"Velocity":63,"Duration":220271,"SoundDuration":220271,"Delta":160036983},{"NoteNumber":79,"Velocity":74,"Duration":220271,"SoundDuration":220271,"Delta":160036983},{"NoteNumber":62,"Velocity":65,"Duration":121457,"SoundDuration":121457,"Delta":160036983},{"NoteNumber":65,"Velocity":65,"Duration":135411,"SoundDuration":135411,"Delta":160138678},{"NoteNumber":91,"Velocity":64,"Duration":101010,"SoundDuration":101010,"Delta":160257255},{"NoteNumber":96,"Velocity":76,"Duration":101010,"SoundDuration":101010,"Delta":160257255},{"NoteNumber":60,"Velocity":67,"Duration":101010,"SoundDuration":101010,"Delta":160257255},{"NoteNumber":55,"Velocity":56,"Duration":101010,"SoundDuration":101010,"Delta":160257255},{"NoteNumber":52,"Velocity":56,"Duration":101010,"SoundDuration":101010,"Delta":160257255},{"NoteNumber":84,"Velocity":71,"Duration":101010,"SoundDuration":101010,"Delta":160358265},{"NoteNumber":64,"Velocity":58,"Duration":101010,"SoundDuration":101010,"Delta":160358265},{"NoteNumber":96,"Velocity":76,"Duration":101010,"SoundDuration":101010,"Delta":160459275},{"NoteNumber":91,"Velocity":64,"Duration":101010,"SoundDuration":101010,"Delta":160459275},{"NoteNumber":60,"Velocity":67,"Duration":101010,"SoundDuration":101010,"Delta":160459275},{"NoteNumber":55,"Velocity":56,"Duration":101010,"SoundDuration":101010,"Delta":160459275},{"NoteNumber":52,"Velocity":56,"Duration":101010,"SoundDuration":101010,"Delta":160459275},{"NoteNumber":84,"Velocity":69,"Duration":101697,"SoundDuration":101697,"Delta":160560285},{"NoteNumber":64,"Velocity":57,"Duration":101697,"SoundDuration":101697,"Delta":160560285},{"NoteNumber":84,"Velocity":63,"Duration":102272,"SoundDuration":102272,"Delta":160661982},{"NoteNumber":89,"Velocity":63,"Duration":102272,"SoundDuration":102272,"Delta":160661982},{"NoteNumber":93,"Velocity":75,"Duration":102272,"SoundDuration":102272,"Delta":160661982},{"NoteNumber":60,"Velocity":66,"Duration":102272,"SoundDuration":102272,"Delta":160661982},{"NoteNumber":57,"Velocity":56,"Duration":102272,"SoundDuration":102272,"Delta":160661982},{"NoteNumber":53,"Velocity":56,"Duration":102272,"SoundDuration":102272,"Delta":160661982},{"NoteNumber":81,"Velocity":68,"Duration":102622,"SoundDuration":102622,"Delta":160764255},{"NoteNumber":65,"Velocity":57,"Duration":102622,"SoundDuration":102622,"Delta":160764255},{"NoteNumber":93,"Velocity":74,"Duration":102975,"SoundDuration":102975,"Delta":160866878},{"NoteNumber":89,"Velocity":62,"Duration":102975,"SoundDuration":102975,"Delta":160866878},{"NoteNumber":84,"Velocity":62,"Duration":102975,"SoundDuration":102975,"Delta":160866878},{"NoteNumber":60,"Velocity":66,"Duration":102975,"SoundDuration":102975,"Delta":160866878},{"NoteNumber":57,"Velocity":56,"Duration":102975,"SoundDuration":102975,"Delta":160866878},{"NoteNumber":53,"Velocity":56,"Duration":102975,"SoundDuration":102975,"Delta":160866878},{"NoteNumber":81,"Velocity":67,"Duration":103329,"SoundDuration":103329,"Delta":160969853},{"NoteNumber":65,"Velocity":55,"Duration":103329,"SoundDuration":103329,"Delta":160969853},{"NoteNumber":84,"Velocity":62,"Duration":103329,"SoundDuration":103329,"Delta":161073183},{"NoteNumber":88,"Velocity":62,"Duration":103329,"SoundDuration":103329,"Delta":161073183},{"NoteNumber":91,"Velocity":73,"Duration":103329,"SoundDuration":103329,"Delta":161073183},{"NoteNumber":64,"Velocity":65,"Duration":103329,"SoundDuration":103329,"Delta":161073183},{"NoteNumber":60,"Velocity":55,"Duration":103329,"SoundDuration":103329,"Delta":161073183},{"NoteNumber":55,"Velocity":55,"Duration":103329,"SoundDuration":103329,"Delta":161073183},{"NoteNumber":79,"Velocity":67,"Duration":104167,"SoundDuration":104167,"Delta":161176513},{"NoteNumber":67,"Velocity":55,"Duration":104167,"SoundDuration":104167,"Delta":161176513},{"NoteNumber":84,"Velocity":62,"Duration":105264,"SoundDuration":105264,"Delta":161280680},{"NoteNumber":88,"Velocity":62,"Duration":105264,"SoundDuration":105264,"Delta":161280680},{"NoteNumber":91,"Velocity":73,"Duration":105264,"SoundDuration":105264,"Delta":161280680},{"NoteNumber":64,"Velocity":65,"Duration":105264,"SoundDuration":105264,"Delta":161280680},{"NoteNumber":60,"Velocity":55,"Duration":105264,"SoundDuration":105264,"Delta":161280680},{"NoteNumber":55,"Velocity":55,"Duration":105264,"SoundDuration":105264,"Delta":161280680},{"NoteNumber":79,"Velocity":66,"Duration":106383,"SoundDuration":106383,"Delta":161385944},{"NoteNumber":67,"Velocity":56,"Duration":106383,"SoundDuration":106383,"Delta":161385944},{"NoteNumber":83,"Velocity":61,"Duration":107398,"SoundDuration":107398,"Delta":161492328},{"NoteNumber":86,"Velocity":61,"Duration":107398,"SoundDuration":107398,"Delta":161492328},{"NoteNumber":91,"Velocity":72,"Duration":107398,"SoundDuration":107398,"Delta":161492328},{"NoteNumber":65,"Velocity":64,"Duration":107398,"SoundDuration":107398,"Delta":161492328},{"NoteNumber":62,"Velocity":54,"Duration":107398,"SoundDuration":107398,"Delta":161492328},{"NoteNumber":55,"Velocity":54,"Duration":107398,"SoundDuration":107398,"Delta":161492328},{"NoteNumber":79,"Velocity":65,"Duration":107982,"SoundDuration":107982,"Delta":161599727},{"NoteNumber":67,"Velocity":55,"Duration":107982,"SoundDuration":107982,"Delta":161599727},{"NoteNumber":83,"Velocity":60,"Duration":110367,"SoundDuration":110367,"Delta":161707709},{"NoteNumber":86,"Velocity":60,"Duration":110367,"SoundDuration":110367,"Delta":161707709},{"NoteNumber":91,"Velocity":71,"Duration":110367,"SoundDuration":110367,"Delta":161707709},{"NoteNumber":65,"Velocity":63,"Duration":110367,"SoundDuration":110367,"Delta":161707709},{"NoteNumber":62,"Velocity":53,"Duration":110367,"SoundDuration":110367,"Delta":161707709},{"NoteNumber":55,"Velocity":53,"Duration":110367,"SoundDuration":110367,"Delta":161707709},{"NoteNumber":79,"Velocity":65,"Duration":166666,"SoundDuration":166666,"Delta":161818077},{"NoteNumber":67,"Velocity":54,"Duration":166666,"SoundDuration":166666,"Delta":161818077},{"NoteNumber":88,"Velocity":46,"Duration":102388,"SoundDuration":102388,"Delta":161984743},{"NoteNumber":36,"Velocity":49,"Duration":409556,"SoundDuration":409556,"Delta":161984743},{"NoteNumber":96,"Velocity":49,"Duration":102389,"SoundDuration":102389,"Delta":162087132},{"NoteNumber":91,"Velocity":49,"Duration":102388,"SoundDuration":102388,"Delta":162189521},{"NoteNumber":88,"Velocity":48,"Duration":102389,"SoundDuration":102389,"Delta":162291910},{"NoteNumber":84,"Velocity":48,"Duration":115511,"SoundDuration":115511,"Delta":162394299},{"NoteNumber":52,"Velocity":39,"Duration":74257,"SoundDuration":74257,"Delta":162394299},{"NoteNumber":60,"Velocity":46,"Duration":74257,"SoundDuration":74257,"Delta":162394299},{"NoteNumber":79,"Velocity":47,"Duration":115511,"SoundDuration":115511,"Delta":162493309},{"NoteNumber":76,"Velocity":46,"Duration":115511,"SoundDuration":115511,"Delta":162592319},{"NoteNumber":52,"Velocity":39,"Duration":74257,"SoundDuration":74257,"Delta":162592319},{"NoteNumber":60,"Velocity":46,"Duration":74257,"SoundDuration":74257,"Delta":162592319},{"NoteNumber":72,"Velocity":46,"Duration":115901,"SoundDuration":115901,"Delta":162691329},{"NoteNumber":86,"Velocity":46,"Duration":101351,"SoundDuration":101351,"Delta":162790339},{"NoteNumber":55,"Velocity":39,"Duration":405405,"SoundDuration":405405,"Delta":162790339},{"NoteNumber":62,"Velocity":46,"Duration":405405,"SoundDuration":405405,"Delta":162790339},{"NoteNumber":95,"Velocity":49,"Duration":101351,"SoundDuration":101351,"Delta":162891691},{"NoteNumber":91,"Velocity":46,"Duration":101351,"SoundDuration":101351,"Delta":162993042},{"NoteNumber":89,"Velocity":44,"Duration":101351,"SoundDuration":101351,"Delta":163094393},{"NoteNumber":83,"Velocity":48,"Duration":119453,"SoundDuration":119453,"Delta":163195744},{"NoteNumber":43,"Velocity":47,"Duration":76791,"SoundDuration":76791,"Delta":163195744},{"NoteNumber":79,"Velocity":44,"Duration":119453,"SoundDuration":119453,"Delta":163298133},{"NoteNumber":77,"Velocity":48,"Duration":121619,"SoundDuration":121619,"Delta":163400522},{"NoteNumber":43,"Velocity":48,"Duration":76791,"SoundDuration":76791,"Delta":163400522},{"NoteNumber":71,"Velocity":46,"Duration":132391,"SoundDuration":132391,"Delta":163502911},{"NoteNumber":86,"Velocity":46,"Duration":102040,"SoundDuration":102040,"Delta":163618296},{"NoteNumber":38,"Velocity":49,"Duration":408163,"SoundDuration":408163,"Delta":163618296},{"NoteNumber":98,"Velocity":49,"Duration":102040,"SoundDuration":102040,"Delta":163720337},{"NoteNumber":93,"Velocity":49,"Duration":102040,"SoundDuration":102040,"Delta":163822377},{"NoteNumber":89,"Velocity":48,"Duration":102040,"SoundDuration":102040,"Delta":163924418},{"NoteNumber":86,"Velocity":48,"Duration":114379,"SoundDuration":114379,"Delta":164026459},{"NoteNumber":53,"Velocity":39,"Duration":73529,"SoundDuration":73529,"Delta":164026459},{"NoteNumber":62,"Velocity":46,"Duration":73529,"SoundDuration":73529,"Delta":164026459},{"NoteNumber":81,"Velocity":47,"Duration":114817,"SoundDuration":114817,"Delta":164124498},{"NoteNumber":77,"Velocity":46,"Duration":117449,"SoundDuration":117449,"Delta":164222537},{"NoteNumber":53,"Velocity":39,"Duration":75503,"SoundDuration":75503,"Delta":164222537},{"NoteNumber":62,"Velocity":46,"Duration":75503,"SoundDuration":75503,"Delta":164222537},{"NoteNumber":74,"Velocity":46,"Duration":117678,"SoundDuration":117678,"Delta":164323209},{"NoteNumber":85,"Velocity":46,"Duration":102040,"SoundDuration":102040,"Delta":164423880},{"NoteNumber":57,"Velocity":39,"Duration":408163,"SoundDuration":408163,"Delta":164423880},{"NoteNumber":64,"Velocity":46,"Duration":408163,"SoundDuration":408163,"Delta":164423880},{"NoteNumber":97,"Velocity":49,"Duration":102040,"SoundDuration":102040,"Delta":164525921},{"NoteNumber":93,"Velocity":46,"Duration":102040,"SoundDuration":102040,"Delta":164627961},{"NoteNumber":91,"Velocity":44,"Duration":102040,"SoundDuration":102040,"Delta":164730002},{"NoteNumber":85,"Velocity":48,"Duration":119453,"SoundDuration":119453,"Delta":164832043},{"NoteNumber":45,"Velocity":47,"Duration":76791,"SoundDuration":76791,"Delta":164832043},{"NoteNumber":81,"Velocity":44,"Duration":119453,"SoundDuration":119453,"Delta":164934432},{"NoteNumber":79,"Velocity":48,"Duration":121619,"SoundDuration":121619,"Delta":165036821},{"NoteNumber":45,"Velocity":48,"Duration":76791,"SoundDuration":76791,"Delta":165036821},{"NoteNumber":73,"Velocity":46,"Duration":132391,"SoundDuration":132391,"Delta":165139210},{"NoteNumber":89,"Velocity":50,"Duration":102040,"SoundDuration":102040,"Delta":165254594},{"NoteNumber":41,"Velocity":53,"Duration":408163,"SoundDuration":408163,"Delta":165254594},{"NoteNumber":101,"Velocity":55,"Duration":102040,"SoundDuration":102040,"Delta":165356635},{"NoteNumber":96,"Velocity":56,"Duration":102040,"SoundDuration":102040,"Delta":165458676},{"NoteNumber":93,"Velocity":57,"Duration":102040,"SoundDuration":102040,"Delta":165560717},{"NoteNumber":89,"Velocity":58,"Duration":115894,"SoundDuration":115894,"Delta":165662757},{"NoteNumber":57,"Velocity":47,"Duration":74503,"SoundDuration":74503,"Delta":165662757},{"NoteNumber":65,"Velocity":56,"Duration":74503,"SoundDuration":74503,"Delta":165662757},{"NoteNumber":84,"Velocity":58,"Duration":115894,"SoundDuration":115894,"Delta":165762095},{"NoteNumber":81,"Velocity":58,"Duration":115894,"SoundDuration":115894,"Delta":165861433},{"NoteNumber":57,"Velocity":49,"Duration":74503,"SoundDuration":74503,"Delta":165861433},{"NoteNumber":65,"Velocity":58,"Duration":74503,"SoundDuration":74503,"Delta":165861433},{"NoteNumber":77,"Velocity":60,"Duration":116286,"SoundDuration":116286,"Delta":165960771},{"NoteNumber":88,"Velocity":62,"Duration":101695,"SoundDuration":101695,"Delta":166060108},{"NoteNumber":60,"Velocity":52,"Duration":406779,"SoundDuration":406779,"Delta":166060108},{"NoteNumber":67,"Velocity":62,"Duration":406779,"SoundDuration":406779,"Delta":166060108},{"NoteNumber":100,"Velocity":67,"Duration":101695,"SoundDuration":101695,"Delta":166161803},{"NoteNumber":96,"Velocity":64,"Duration":101694,"SoundDuration":101694,"Delta":166263498},{"NoteNumber":91,"Velocity":63,"Duration":101695,"SoundDuration":101695,"Delta":166365193},{"NoteNumber":88,"Velocity":70,"Duration":119863,"SoundDuration":119863,"Delta":166466888},{"NoteNumber":48,"Velocity":69,"Duration":77054,"SoundDuration":77054,"Delta":166466888},{"NoteNumber":84,"Velocity":66,"Duration":119863,"SoundDuration":119863,"Delta":166569628},{"NoteNumber":79,"Velocity":73,"Duration":121970,"SoundDuration":121970,"Delta":166672368},{"NoteNumber":48,"Velocity":73,"Duration":77054,"SoundDuration":77054,"Delta":166672368},{"NoteNumber":76,"Velocity":71,"Duration":132391,"SoundDuration":132391,"Delta":166775108},{"NoteNumber":85,"Velocity":73,"Duration":408163,"SoundDuration":408163,"Delta":166890492},{"NoteNumber":82,"Velocity":73,"Duration":408163,"SoundDuration":408163,"Delta":166890492},{"NoteNumber":79,"Velocity":73,"Duration":408163,"SoundDuration":408163,"Delta":166890492},{"NoteNumber":91,"Velocity":87,"Duration":408163,"SoundDuration":408163,"Delta":166890492},{"NoteNumber":40,"Velocity":71,"Duration":102040,"SoundDuration":102040,"Delta":166890492},{"NoteNumber":46,"Velocity":64,"Duration":102040,"SoundDuration":102040,"Delta":166992533},{"NoteNumber":49,"Velocity":64,"Duration":102040,"SoundDuration":102040,"Delta":167094574},{"NoteNumber":52,"Velocity":64,"Duration":102040,"SoundDuration":102040,"Delta":167196614},{"NoteNumber":73,"Velocity":60,"Duration":198675,"SoundDuration":198675,"Delta":167298655},{"NoteNumber":70,"Velocity":60,"Duration":198675,"SoundDuration":198675,"Delta":167298655},{"NoteNumber":67,"Velocity":60,"Duration":198675,"SoundDuration":198675,"Delta":167298655},{"NoteNumber":79,"Velocity":72,"Duration":198675,"SoundDuration":198675,"Delta":167298655},{"NoteNumber":52,"Velocity":71,"Duration":99337,"SoundDuration":99337,"Delta":167298655},{"NoteNumber":58,"Velocity":66,"Duration":99337,"SoundDuration":99337,"Delta":167397993},{"NoteNumber":73,"Velocity":60,"Duration":217914,"SoundDuration":217914,"Delta":167497331},{"NoteNumber":70,"Velocity":60,"Duration":217914,"SoundDuration":217914,"Delta":167497331},{"NoteNumber":67,"Velocity":60,"Duration":217914,"SoundDuration":217914,"Delta":167497331},{"NoteNumber":79,"Velocity":72,"Duration":217914,"SoundDuration":217914,"Delta":167497331},{"NoteNumber":61,"Velocity":66,"Duration":99337,"SoundDuration":99337,"Delta":167497331},{"NoteNumber":64,"Velocity":66,"Duration":118576,"SoundDuration":118576,"Delta":167596668},{"NoteNumber":86,"Velocity":72,"Duration":408163,"SoundDuration":408163,"Delta":167715245},{"NoteNumber":83,"Velocity":72,"Duration":408163,"SoundDuration":408163,"Delta":167715245},{"NoteNumber":80,"Velocity":72,"Duration":408163,"SoundDuration":408163,"Delta":167715245},{"NoteNumber":92,"Velocity":86,"Duration":408163,"SoundDuration":408163,"Delta":167715245},{"NoteNumber":41,"Velocity":71,"Duration":102040,"SoundDuration":102040,"Delta":167715245},{"NoteNumber":47,"Velocity":65,"Duration":102040,"SoundDuration":102040,"Delta":167817286},{"NoteNumber":50,"Velocity":66,"Duration":102040,"SoundDuration":102040,"Delta":167919327},{"NoteNumber":53,"Velocity":66,"Duration":102040,"SoundDuration":102040,"Delta":168021368},{"NoteNumber":74,"Velocity":62,"Duration":198675,"SoundDuration":198675,"Delta":168123408},{"NoteNumber":71,"Velocity":62,"Duration":198675,"SoundDuration":198675,"Delta":168123408},{"NoteNumber":68,"Velocity":62,"Duration":198675,"SoundDuration":198675,"Delta":168123408},{"NoteNumber":80,"Velocity":73,"Duration":198675,"SoundDuration":198675,"Delta":168123408},{"NoteNumber":53,"Velocity":71,"Duration":99337,"SoundDuration":99337,"Delta":168123408},{"NoteNumber":59,"Velocity":65,"Duration":99337,"SoundDuration":99337,"Delta":168222746},{"NoteNumber":74,"Velocity":63,"Duration":217914,"SoundDuration":217914,"Delta":168322084},{"NoteNumber":71,"Velocity":63,"Duration":217914,"SoundDuration":217914,"Delta":168322084},{"NoteNumber":68,"Velocity":63,"Duration":217914,"SoundDuration":217914,"Delta":168322084},{"NoteNumber":80,"Velocity":74,"Duration":217914,"SoundDuration":217914,"Delta":168322084},{"NoteNumber":62,"Velocity":65,"Duration":99337,"SoundDuration":99337,"Delta":168322084},{"NoteNumber":65,"Velocity":65,"Duration":118576,"SoundDuration":118576,"Delta":168421422},{"NoteNumber":87,"Velocity":73,"Duration":404040,"SoundDuration":404040,"Delta":168539999},{"NoteNumber":84,"Velocity":73,"Duration":404040,"SoundDuration":404040,"Delta":168539999},{"NoteNumber":81,"Velocity":73,"Duration":404040,"SoundDuration":404040,"Delta":168539999},{"NoteNumber":93,"Velocity":87,"Duration":404040,"SoundDuration":404040,"Delta":168539999},{"NoteNumber":42,"Velocity":71,"Duration":101010,"SoundDuration":101010,"Delta":168539999},{"NoteNumber":48,"Velocity":64,"Duration":101010,"SoundDuration":101010,"Delta":168641009},{"NoteNumber":51,"Velocity":64,"Duration":101010,"SoundDuration":101010,"Delta":168742019},{"NoteNumber":54,"Velocity":64,"Duration":101010,"SoundDuration":101010,"Delta":168843029},{"NoteNumber":75,"Velocity":60,"Duration":198020,"SoundDuration":198020,"Delta":168944039},{"NoteNumber":72,"Velocity":60,"Duration":198020,"SoundDuration":198020,"Delta":168944039},{"NoteNumber":69,"Velocity":60,"Duration":198020,"SoundDuration":198020,"Delta":168944039},{"NoteNumber":81,"Velocity":72,"Duration":198020,"SoundDuration":198020,"Delta":168944039},{"NoteNumber":54,"Velocity":71,"Duration":99009,"SoundDuration":99009,"Delta":168944039},{"NoteNumber":60,"Velocity":66,"Duration":99010,"SoundDuration":99010,"Delta":169043049},{"NoteNumber":75,"Velocity":60,"Duration":217586,"SoundDuration":217586,"Delta":169142059},{"NoteNumber":72,"Velocity":60,"Duration":217586,"SoundDuration":217586,"Delta":169142059},{"NoteNumber":69,"Velocity":60,"Duration":217586,"SoundDuration":217586,"Delta":169142059},{"NoteNumber":81,"Velocity":72,"Duration":217586,"SoundDuration":217586,"Delta":169142059},{"NoteNumber":63,"Velocity":66,"Duration":99009,"SoundDuration":99009,"Delta":169142059},{"NoteNumber":66,"Velocity":66,"Duration":118576,"SoundDuration":118576,"Delta":169241069},{"NoteNumber":88,"Velocity":74,"Duration":402684,"SoundDuration":402684,"Delta":169359646},{"NoteNumber":85,"Velocity":74,"Duration":402684,"SoundDuration":402684,"Delta":169359646},{"NoteNumber":82,"Velocity":74,"Duration":402684,"SoundDuration":402684,"Delta":169359646},{"NoteNumber":94,"Velocity":88,"Duration":402684,"SoundDuration":402684,"Delta":169359646},{"NoteNumber":43,"Velocity":71,"Duration":100671,"SoundDuration":100671,"Delta":169359646},{"NoteNumber":49,"Velocity":65,"Duration":100671,"SoundDuration":100671,"Delta":169460317},{"NoteNumber":52,"Velocity":66,"Duration":100671,"SoundDuration":100671,"Delta":169560988},{"NoteNumber":55,"Velocity":66,"Duration":100671,"SoundDuration":100671,"Delta":169661659},{"NoteNumber":76,"Velocity":63,"Duration":199335,"SoundDuration":199335,"Delta":169762331},{"NoteNumber":73,"Velocity":63,"Duration":199335,"SoundDuration":199335,"Delta":169762331},{"NoteNumber":70,"Velocity":63,"Duration":199335,"SoundDuration":199335,"Delta":169762331},{"NoteNumber":82,"Velocity":74,"Duration":199335,"SoundDuration":199335,"Delta":169762331},{"NoteNumber":55,"Velocity":71,"Duration":99667,"SoundDuration":99667,"Delta":169762331},{"NoteNumber":61,"Velocity":65,"Duration":99667,"SoundDuration":99667,"Delta":169861998},{"NoteNumber":76,"Velocity":64,"Duration":218244,"SoundDuration":218244,"Delta":169961666},{"NoteNumber":73,"Velocity":64,"Duration":218244,"SoundDuration":218244,"Delta":169961666},{"NoteNumber":70,"Velocity":64,"Duration":218244,"SoundDuration":218244,"Delta":169961666},{"NoteNumber":82,"Velocity":75,"Duration":218244,"SoundDuration":218244,"Delta":169961666},{"NoteNumber":64,"Velocity":65,"Duration":99667,"SoundDuration":99667,"Delta":169961666},{"NoteNumber":67,"Velocity":65,"Duration":118576,"SoundDuration":118576,"Delta":170061334},{"NoteNumber":77,"Velocity":71,"Duration":402684,"SoundDuration":402684,"Delta":170179911},{"NoteNumber":74,"Velocity":71,"Duration":402684,"SoundDuration":402684,"Delta":170179911},{"NoteNumber":71,"Velocity":71,"Duration":402684,"SoundDuration":402684,"Delta":170179911},{"NoteNumber":83,"Velocity":85,"Duration":402684,"SoundDuration":402684,"Delta":170179911},{"NoteNumber":44,"Velocity":63,"Duration":100671,"SoundDuration":100671,"Delta":170179911},{"NoteNumber":50,"Velocity":57,"Duration":100671,"SoundDuration":100671,"Delta":170280582},{"NoteNumber":53,"Velocity":58,"Duration":100671,"SoundDuration":100671,"Delta":170381253},{"NoteNumber":56,"Velocity":58,"Duration":100671,"SoundDuration":100671,"Delta":170481925},{"NoteNumber":78,"Velocity":61,"Duration":198020,"SoundDuration":198020,"Delta":170582596},{"NoteNumber":75,"Velocity":61,"Duration":198020,"SoundDuration":198020,"Delta":170582596},{"NoteNumber":72,"Velocity":61,"Duration":198020,"SoundDuration":198020,"Delta":170582596},{"NoteNumber":84,"Velocity":73,"Duration":198020,"SoundDuration":198020,"Delta":170582596},{"NoteNumber":57,"Velocity":66,"Duration":99009,"SoundDuration":99009,"Delta":170582596},{"NoteNumber":63,"Velocity":62,"Duration":99010,"SoundDuration":99010,"Delta":170681606},{"NoteNumber":75,"Velocity":63,"Duration":217586,"SoundDuration":217586,"Delta":170780616},{"NoteNumber":78,"Velocity":63,"Duration":217586,"SoundDuration":217586,"Delta":170780616},{"NoteNumber":72,"Velocity":63,"Duration":217586,"SoundDuration":217586,"Delta":170780616},{"NoteNumber":84,"Velocity":75,"Duration":217586,"SoundDuration":217586,"Delta":170780616},{"NoteNumber":66,"Velocity":62,"Duration":99009,"SoundDuration":99009,"Delta":170780616},{"NoteNumber":69,"Velocity":63,"Duration":118576,"SoundDuration":118576,"Delta":170879626},{"NoteNumber":79,"Velocity":72,"Duration":402684,"SoundDuration":402684,"Delta":170998203},{"NoteNumber":76,"Velocity":72,"Duration":402684,"SoundDuration":402684,"Delta":170998203},{"NoteNumber":73,"Velocity":72,"Duration":402684,"SoundDuration":402684,"Delta":170998203},{"NoteNumber":85,"Velocity":86,"Duration":402684,"SoundDuration":402684,"Delta":170998203},{"NoteNumber":46,"Velocity":68,"Duration":100671,"SoundDuration":100671,"Delta":170998203},{"NoteNumber":52,"Velocity":63,"Duration":100671,"SoundDuration":100671,"Delta":171098874},{"NoteNumber":55,"Velocity":65,"Duration":100671,"SoundDuration":100671,"Delta":171199545},{"NoteNumber":58,"Velocity":66,"Duration":100671,"SoundDuration":100671,"Delta":171300217},{"NoteNumber":80,"Velocity":62,"Duration":198675,"SoundDuration":198675,"Delta":171400888},{"NoteNumber":77,"Velocity":62,"Duration":198675,"SoundDuration":198675,"Delta":171400888},{"NoteNumber":74,"Velocity":62,"Duration":198675,"SoundDuration":198675,"Delta":171400888},{"NoteNumber":86,"Velocity":73,"Duration":198675,"SoundDuration":198675,"Delta":171400888},{"NoteNumber":59,"Velocity":71,"Duration":99337,"SoundDuration":99337,"Delta":171400888},{"NoteNumber":65,"Velocity":66,"Duration":99337,"SoundDuration":99337,"Delta":171500226},{"NoteNumber":80,"Velocity":64,"Duration":205720,"SoundDuration":205720,"Delta":171599563},{"NoteNumber":77,"Velocity":64,"Duration":205720,"SoundDuration":205720,"Delta":171599563},{"NoteNumber":74,"Velocity":64,"Duration":205720,"SoundDuration":205720,"Delta":171599563},{"NoteNumber":86,"Velocity":76,"Duration":205720,"SoundDuration":205720,"Delta":171599563},{"NoteNumber":68,"Velocity":66,"Duration":99337,"SoundDuration":99337,"Delta":171599563},{"NoteNumber":71,"Velocity":67,"Duration":106382,"SoundDuration":106382,"Delta":171698901},{"NoteNumber":75,"Velocity":71,"Duration":200669,"SoundDuration":200669,"Delta":171805284},{"NoteNumber":78,"Velocity":71,"Duration":200669,"SoundDuration":200669,"Delta":171805284},{"NoteNumber":81,"Velocity":71,"Duration":200669,"SoundDuration":200669,"Delta":171805284},{"NoteNumber":87,"Velocity":82,"Duration":200669,"SoundDuration":200669,"Delta":171805284},{"NoteNumber":48,"Velocity":74,"Duration":100334,"SoundDuration":100334,"Delta":171805284},{"NoteNumber":54,"Velocity":67,"Duration":100334,"SoundDuration":100334,"Delta":171905619},{"NoteNumber":75,"Velocity":71,"Duration":200669,"SoundDuration":200669,"Delta":172005953},{"NoteNumber":78,"Velocity":71,"Duration":200669,"SoundDuration":200669,"Delta":172005953},{"NoteNumber":81,"Velocity":71,"Duration":200669,"SoundDuration":200669,"Delta":172005953},{"NoteNumber":87,"Velocity":83,"Duration":200669,"SoundDuration":200669,"Delta":172005953},{"NoteNumber":57,"Velocity":67,"Duration":100334,"SoundDuration":100334,"Delta":172005953},{"NoteNumber":60,"Velocity":68,"Duration":100334,"SoundDuration":100334,"Delta":172106288},{"NoteNumber":76,"Velocity":73,"Duration":204081,"SoundDuration":204081,"Delta":172206622},{"NoteNumber":79,"Velocity":73,"Duration":204081,"SoundDuration":204081,"Delta":172206622},{"NoteNumber":82,"Velocity":73,"Duration":204081,"SoundDuration":204081,"Delta":172206622},{"NoteNumber":88,"Velocity":84,"Duration":204081,"SoundDuration":204081,"Delta":172206622},{"NoteNumber":49,"Velocity":76,"Duration":102040,"SoundDuration":102040,"Delta":172206622},{"NoteNumber":55,"Velocity":71,"Duration":102040,"SoundDuration":102040,"Delta":172308663},{"NoteNumber":76,"Velocity":74,"Duration":204081,"SoundDuration":204081,"Delta":172410704},{"NoteNumber":79,"Velocity":74,"Duration":204081,"SoundDuration":204081,"Delta":172410704},{"NoteNumber":82,"Velocity":74,"Duration":204081,"SoundDuration":204081,"Delta":172410704},{"NoteNumber":88,"Velocity":86,"Duration":204081,"SoundDuration":204081,"Delta":172410704},{"NoteNumber":58,"Velocity":72,"Duration":102040,"SoundDuration":102040,"Delta":172410704},{"NoteNumber":61,"Velocity":73,"Duration":102040,"SoundDuration":102040,"Delta":172512744},{"NoteNumber":77,"Velocity":75,"Duration":202702,"SoundDuration":202702,"Delta":172614785},{"NoteNumber":80,"Velocity":75,"Duration":202702,"SoundDuration":202702,"Delta":172614785},{"NoteNumber":83,"Velocity":75,"Duration":202702,"SoundDuration":202702,"Delta":172614785},{"NoteNumber":89,"Velocity":87,"Duration":202702,"SoundDuration":202702,"Delta":172614785},{"NoteNumber":50,"Velocity":79,"Duration":101351,"SoundDuration":101351,"Delta":172614785},{"NoteNumber":56,"Velocity":73,"Duration":101351,"SoundDuration":101351,"Delta":172716136},{"NoteNumber":77,"Velocity":76,"Duration":202702,"SoundDuration":202702,"Delta":172817488},{"NoteNumber":80,"Velocity":76,"Duration":202702,"SoundDuration":202702,"Delta":172817488},{"NoteNumber":83,"Velocity":76,"Duration":202702,"SoundDuration":202702,"Delta":172817488},{"NoteNumber":89,"Velocity":89,"Duration":202702,"SoundDuration":202702,"Delta":172817488},{"NoteNumber":59,"Velocity":75,"Duration":101351,"SoundDuration":101351,"Delta":172817488},{"NoteNumber":62,"Velocity":75,"Duration":101351,"SoundDuration":101351,"Delta":172918839},{"NoteNumber":77,"Velocity":78,"Duration":203390,"SoundDuration":203390,"Delta":173020190},{"NoteNumber":80,"Velocity":78,"Duration":203390,"SoundDuration":203390,"Delta":173020190},{"NoteNumber":83,"Velocity":78,"Duration":203390,"SoundDuration":203390,"Delta":173020190},{"NoteNumber":89,"Velocity":90,"Duration":203390,"SoundDuration":203390,"Delta":173020190},{"NoteNumber":65,"Velocity":82,"Duration":101695,"SoundDuration":101695,"Delta":173020190},{"NoteNumber":59,"Velocity":76,"Duration":101695,"SoundDuration":101695,"Delta":173121885},{"NoteNumber":77,"Velocity":79,"Duration":220271,"SoundDuration":220271,"Delta":173223580},{"NoteNumber":80,"Velocity":79,"Duration":220271,"SoundDuration":220271,"Delta":173223580},{"NoteNumber":83,"Velocity":79,"Duration":220271,"SoundDuration":220271,"Delta":173223580},{"NoteNumber":89,"Velocity":92,"Duration":220271,"SoundDuration":220271,"Delta":173223580},{"NoteNumber":62,"Velocity":76,"Duration":101694,"SoundDuration":101694,"Delta":173223580},{"NoteNumber":65,"Velocity":77,"Duration":118576,"SoundDuration":118576,"Delta":173325275},{"NoteNumber":77,"Velocity":85,"Duration":444444,"SoundDuration":444444,"Delta":173443852},{"NoteNumber":83,"Velocity":85,"Duration":444444,"SoundDuration":444444,"Delta":173443852},{"NoteNumber":86,"Velocity":85,"Duration":444444,"SoundDuration":444444,"Delta":173443852},{"NoteNumber":89,"Velocity":98,"Duration":444444,"SoundDuration":444444,"Delta":173443852},{"NoteNumber":56,"Velocity":65,"Duration":444444,"SoundDuration":444444,"Delta":173443852},{"NoteNumber":68,"Velocity":78,"Duration":444444,"SoundDuration":444444,"Delta":173443852},{"NoteNumber":76,"Velocity":85,"Duration":444444,"SoundDuration":444444,"Delta":174332740},{"NoteNumber":81,"Velocity":85,"Duration":444444,"SoundDuration":444444,"Delta":174332740},{"NoteNumber":84,"Velocity":85,"Duration":444444,"SoundDuration":444444,"Delta":174332740},{"NoteNumber":88,"Velocity":98,"Duration":444444,"SoundDuration":444444,"Delta":174332740},{"NoteNumber":57,"Velocity":65,"Duration":444444,"SoundDuration":444444,"Delta":174332740},{"NoteNumber":69,"Velocity":78,"Duration":444444,"SoundDuration":444444,"Delta":174332740},{"NoteNumber":74,"Velocity":85,"Duration":444444,"SoundDuration":444444,"Delta":175221628},{"NoteNumber":81,"Velocity":85,"Duration":444444,"SoundDuration":444444,"Delta":175221628},{"NoteNumber":84,"Velocity":85,"Duration":444444,"SoundDuration":444444,"Delta":175221628},{"NoteNumber":86,"Velocity":98,"Duration":444444,"SoundDuration":444444,"Delta":175221628},{"NoteNumber":41,"Velocity":65,"Duration":444444,"SoundDuration":444444,"Delta":175221628},{"NoteNumber":45,"Velocity":65,"Duration":444444,"SoundDuration":444444,"Delta":175221628},{"NoteNumber":50,"Velocity":65,"Duration":444444,"SoundDuration":444444,"Delta":175221628},{"NoteNumber":53,"Velocity":78,"Duration":444444,"SoundDuration":444444,"Delta":175221628},{"NoteNumber":74,"Velocity":85,"Duration":444444,"SoundDuration":444444,"Delta":176110516},{"NoteNumber":79,"Velocity":85,"Duration":444444,"SoundDuration":444444,"Delta":176110516},{"NoteNumber":83,"Velocity":85,"Duration":444444,"SoundDuration":444444,"Delta":176110516},{"NoteNumber":86,"Velocity":98,"Duration":444444,"SoundDuration":444444,"Delta":176110516},{"NoteNumber":43,"Velocity":65,"Duration":444444,"SoundDuration":444444,"Delta":176110516},{"NoteNumber":47,"Velocity":65,"Duration":444444,"SoundDuration":444444,"Delta":176110516},{"NoteNumber":50,"Velocity":65,"Duration":444444,"SoundDuration":444444,"Delta":176110516},{"NoteNumber":55,"Velocity":78,"Duration":444444,"SoundDuration":444444,"Delta":176110516},{"NoteNumber":52,"Velocity":50,"Duration":106761,"SoundDuration":106761,"Delta":176999404},{"NoteNumber":36,"Velocity":32,"Duration":106761,"SoundDuration":106761,"Delta":176999404},{"NoteNumber":64,"Velocity":32,"Duration":106761,"SoundDuration":106761,"Delta":177106166},{"NoteNumber":48,"Velocity":26,"Duration":106761,"SoundDuration":106761,"Delta":177106166},{"NoteNumber":60,"Velocity":32,"Duration":106761,"SoundDuration":106761,"Delta":177212927},{"NoteNumber":55,"Velocity":32,"Duration":106761,"SoundDuration":106761,"Delta":177212927},{"NoteNumber":43,"Velocity":26,"Duration":106761,"SoundDuration":106761,"Delta":177212927},{"NoteNumber":64,"Velocity":32,"Duration":106761,"SoundDuration":106761,"Delta":177319689},{"NoteNumber":48,"Velocity":26,"Duration":106761,"SoundDuration":106761,"Delta":177319689},{"NoteNumber":54,"Velocity":50,"Duration":104529,"SoundDuration":104529,"Delta":177426450},{"NoteNumber":44,"Velocity":32,"Duration":104529,"SoundDuration":104529,"Delta":177426450},{"NoteNumber":66,"Velocity":32,"Duration":104529,"SoundDuration":104529,"Delta":177530980},{"NoteNumber":51,"Velocity":26,"Duration":104529,"SoundDuration":104529,"Delta":177530980},{"NoteNumber":60,"Velocity":32,"Duration":104529,"SoundDuration":104529,"Delta":177635509},{"NoteNumber":63,"Velocity":32,"Duration":104529,"SoundDuration":104529,"Delta":177635509},{"NoteNumber":48,"Velocity":25,"Duration":104529,"SoundDuration":104529,"Delta":177635509},{"NoteNumber":66,"Velocity":32,"Duration":104529,"SoundDuration":104529,"Delta":177740039},{"NoteNumber":51,"Velocity":25,"Duration":104529,"SoundDuration":104529,"Delta":177740039},{"NoteNumber":55,"Velocity":51,"Duration":104529,"SoundDuration":104529,"Delta":177844568},{"NoteNumber":43,"Velocity":32,"Duration":104529,"SoundDuration":104529,"Delta":177844568},{"NoteNumber":67,"Velocity":32,"Duration":104529,"SoundDuration":104529,"Delta":177949098},{"NoteNumber":52,"Velocity":26,"Duration":104529,"SoundDuration":104529,"Delta":177949098},{"NoteNumber":60,"Velocity":32,"Duration":104529,"SoundDuration":104529,"Delta":178053627},{"NoteNumber":64,"Velocity":32,"Duration":104529,"SoundDuration":104529,"Delta":178053627},{"NoteNumber":48,"Velocity":26,"Duration":104529,"SoundDuration":104529,"Delta":178053627},{"NoteNumber":67,"Velocity":32,"Duration":104529,"SoundDuration":104529,"Delta":178158157},{"NoteNumber":52,"Velocity":27,"Duration":104529,"SoundDuration":104529,"Delta":178158157},{"NoteNumber":55,"Velocity":50,"Duration":105263,"SoundDuration":105263,"Delta":178262686},{"NoteNumber":43,"Velocity":33,"Duration":105263,"SoundDuration":105263,"Delta":178262686},{"NoteNumber":67,"Velocity":33,"Duration":105263,"SoundDuration":105263,"Delta":178367949},{"NoteNumber":53,"Velocity":27,"Duration":105263,"SoundDuration":105263,"Delta":178367949},{"NoteNumber":59,"Velocity":33,"Duration":105263,"SoundDuration":105263,"Delta":178473213},{"NoteNumber":62,"Velocity":33,"Duration":105263,"SoundDuration":105263,"Delta":178473213},{"NoteNumber":50,"Velocity":27,"Duration":105263,"SoundDuration":105263,"Delta":178473213},{"NoteNumber":67,"Velocity":33,"Duration":105263,"SoundDuration":105263,"Delta":178578476},{"NoteNumber":53,"Velocity":27,"Duration":105263,"SoundDuration":105263,"Delta":178578476},{"NoteNumber":60,"Velocity":59,"Duration":102388,"SoundDuration":102388,"Delta":178683739},{"NoteNumber":48,"Velocity":33,"Duration":102388,"SoundDuration":102388,"Delta":178683739},{"NoteNumber":72,"Velocity":33,"Duration":102389,"SoundDuration":102389,"Delta":178786128},{"NoteNumber":55,"Velocity":27,"Duration":102389,"SoundDuration":102389,"Delta":178786128},{"NoteNumber":67,"Velocity":33,"Duration":102388,"SoundDuration":102388,"Delta":178888517},{"NoteNumber":64,"Velocity":33,"Duration":102388,"SoundDuration":102388,"Delta":178888517},{"NoteNumber":52,"Velocity":27,"Duration":102388,"SoundDuration":102388,"Delta":178888517},{"NoteNumber":72,"Velocity":33,"Duration":102389,"SoundDuration":102389,"Delta":178990906},{"NoteNumber":55,"Velocity":27,"Duration":102389,"SoundDuration":102389,"Delta":178990906},{"NoteNumber":60,"Velocity":55,"Duration":102388,"SoundDuration":102388,"Delta":179093295},{"NoteNumber":44,"Velocity":33,"Duration":102388,"SoundDuration":102388,"Delta":179093295},{"NoteNumber":72,"Velocity":33,"Duration":102389,"SoundDuration":102389,"Delta":179195684},{"NoteNumber":54,"Velocity":27,"Duration":102389,"SoundDuration":102389,"Delta":179195684},{"NoteNumber":63,"Velocity":33,"Duration":102388,"SoundDuration":102388,"Delta":179298073},{"NoteNumber":66,"Velocity":33,"Duration":102388,"SoundDuration":102388,"Delta":179298073},{"NoteNumber":51,"Velocity":26,"Duration":102388,"SoundDuration":102388,"Delta":179298073},{"NoteNumber":72,"Velocity":34,"Duration":102388,"SoundDuration":102388,"Delta":179400462},{"NoteNumber":54,"Velocity":26,"Duration":102388,"SoundDuration":102388,"Delta":179400462},{"NoteNumber":60,"Velocity":55,"Duration":102389,"SoundDuration":102389,"Delta":179502851},{"NoteNumber":43,"Velocity":34,"Duration":102389,"SoundDuration":102389,"Delta":179502851},{"NoteNumber":72,"Velocity":34,"Duration":102388,"SoundDuration":102388,"Delta":179605240},{"NoteNumber":55,"Velocity":27,"Duration":102388,"SoundDuration":102388,"Delta":179605240},{"NoteNumber":64,"Velocity":34,"Duration":102389,"SoundDuration":102389,"Delta":179707629},{"NoteNumber":67,"Velocity":34,"Duration":102389,"SoundDuration":102389,"Delta":179707629},{"NoteNumber":48,"Velocity":28,"Duration":102389,"SoundDuration":102389,"Delta":179707629},{"NoteNumber":52,"Velocity":28,"Duration":102389,"SoundDuration":102389,"Delta":179707629},{"NoteNumber":72,"Velocity":34,"Duration":102388,"SoundDuration":102388,"Delta":179810018},{"NoteNumber":55,"Velocity":29,"Duration":102388,"SoundDuration":102388,"Delta":179810018},{"NoteNumber":59,"Velocity":53,"Duration":104166,"SoundDuration":104166,"Delta":179912407},{"NoteNumber":43,"Velocity":35,"Duration":104166,"SoundDuration":104166,"Delta":179912407},{"NoteNumber":71,"Velocity":34,"Duration":104166,"SoundDuration":104166,"Delta":180016574},{"NoteNumber":55,"Velocity":28,"Duration":104166,"SoundDuration":104166,"Delta":180016574},{"NoteNumber":62,"Velocity":34,"Duration":104166,"SoundDuration":104166,"Delta":180120741},{"NoteNumber":67,"Velocity":34,"Duration":104166,"SoundDuration":104166,"Delta":180120741},{"NoteNumber":47,"Velocity":28,"Duration":104166,"SoundDuration":104166,"Delta":180120741},{"NoteNumber":50,"Velocity":28,"Duration":104166,"SoundDuration":104166,"Delta":180120741},{"NoteNumber":71,"Velocity":34,"Duration":104166,"SoundDuration":104166,"Delta":180224907},{"NoteNumber":55,"Velocity":28,"Duration":104166,"SoundDuration":104166,"Delta":180224907},{"NoteNumber":64,"Velocity":61,"Duration":105263,"SoundDuration":105263,"Delta":180329074},{"NoteNumber":48,"Velocity":41,"Duration":105263,"SoundDuration":105263,"Delta":180329074},{"NoteNumber":76,"Velocity":41,"Duration":105263,"SoundDuration":105263,"Delta":180434337},{"NoteNumber":60,"Velocity":33,"Duration":105263,"SoundDuration":105263,"Delta":180434337},{"NoteNumber":72,"Velocity":41,"Duration":105263,"SoundDuration":105263,"Delta":180539601},{"NoteNumber":67,"Velocity":41,"Duration":105263,"SoundDuration":105263,"Delta":180539601},{"NoteNumber":55,"Velocity":33,"Duration":105263,"SoundDuration":105263,"Delta":180539601},{"NoteNumber":76,"Velocity":41,"Duration":105263,"SoundDuration":105263,"Delta":180644864},{"NoteNumber":60,"Velocity":33,"Duration":105263,"SoundDuration":105263,"Delta":180644864},{"NoteNumber":66,"Velocity":63,"Duration":102739,"SoundDuration":102739,"Delta":180750127},{"NoteNumber":56,"Velocity":42,"Duration":102739,"SoundDuration":102739,"Delta":180750127},{"NoteNumber":78,"Velocity":42,"Duration":102739,"SoundDuration":102739,"Delta":180852867},{"NoteNumber":63,"Velocity":34,"Duration":102739,"SoundDuration":102739,"Delta":180852867},{"NoteNumber":72,"Velocity":42,"Duration":102739,"SoundDuration":102739,"Delta":180955607},{"NoteNumber":75,"Velocity":42,"Duration":102739,"SoundDuration":102739,"Delta":180955607},{"NoteNumber":60,"Velocity":33,"Duration":102739,"SoundDuration":102739,"Delta":180955607},{"NoteNumber":78,"Velocity":42,"Duration":102739,"SoundDuration":102739,"Delta":181058346},{"NoteNumber":63,"Velocity":33,"Duration":102739,"SoundDuration":102739,"Delta":181058346},{"NoteNumber":67,"Velocity":66,"Duration":102739,"SoundDuration":102739,"Delta":181161086},{"NoteNumber":55,"Velocity":43,"Duration":102739,"SoundDuration":102739,"Delta":181161086},{"NoteNumber":79,"Velocity":43,"Duration":102739,"SoundDuration":102739,"Delta":181263826},{"NoteNumber":64,"Velocity":35,"Duration":102739,"SoundDuration":102739,"Delta":181263826},{"NoteNumber":72,"Velocity":43,"Duration":102739,"SoundDuration":102739,"Delta":181366566},{"NoteNumber":76,"Velocity":43,"Duration":102739,"SoundDuration":102739,"Delta":181366566},{"NoteNumber":60,"Velocity":35,"Duration":102739,"SoundDuration":102739,"Delta":181366566},{"NoteNumber":79,"Velocity":44,"Duration":102739,"SoundDuration":102739,"Delta":181469305},{"NoteNumber":64,"Velocity":37,"Duration":102739,"SoundDuration":102739,"Delta":181469305},{"NoteNumber":67,"Velocity":67,"Duration":104894,"SoundDuration":104894,"Delta":181572045},{"NoteNumber":55,"Velocity":46,"Duration":104894,"SoundDuration":104894,"Delta":181572045},{"NoteNumber":79,"Velocity":44,"Duration":104894,"SoundDuration":104894,"Delta":181676940},{"NoteNumber":65,"Velocity":36,"Duration":104894,"SoundDuration":104894,"Delta":181676940},{"NoteNumber":71,"Velocity":45,"Duration":104894,"SoundDuration":104894,"Delta":181781835},{"NoteNumber":74,"Velocity":45,"Duration":104894,"SoundDuration":104894,"Delta":181781835},{"NoteNumber":62,"Velocity":37,"Duration":104894,"SoundDuration":104894,"Delta":181781835},{"NoteNumber":79,"Velocity":46,"Duration":104894,"SoundDuration":104894,"Delta":181886730},{"NoteNumber":65,"Velocity":37,"Duration":104894,"SoundDuration":104894,"Delta":181886730},{"NoteNumber":72,"Velocity":73,"Duration":102739,"SoundDuration":102739,"Delta":181991625},{"NoteNumber":60,"Velocity":47,"Duration":102739,"SoundDuration":102739,"Delta":181991625},{"NoteNumber":84,"Velocity":47,"Duration":102739,"SoundDuration":102739,"Delta":182094365},{"NoteNumber":67,"Velocity":37,"Duration":102739,"SoundDuration":102739,"Delta":182094365},{"NoteNumber":79,"Velocity":47,"Duration":102739,"SoundDuration":102739,"Delta":182197105},{"NoteNumber":76,"Velocity":47,"Duration":102739,"SoundDuration":102739,"Delta":182197105},{"NoteNumber":64,"Velocity":38,"Duration":102739,"SoundDuration":102739,"Delta":182197105},{"NoteNumber":84,"Velocity":47,"Duration":102739,"SoundDuration":102739,"Delta":182299844},{"NoteNumber":67,"Velocity":38,"Duration":102739,"SoundDuration":102739,"Delta":182299844},{"NoteNumber":72,"Velocity":72,"Duration":102739,"SoundDuration":102739,"Delta":182402584},{"NoteNumber":56,"Velocity":48,"Duration":102739,"SoundDuration":102739,"Delta":182402584},{"NoteNumber":84,"Velocity":48,"Duration":102739,"SoundDuration":102739,"Delta":182505324},{"NoteNumber":66,"Velocity":39,"Duration":102739,"SoundDuration":102739,"Delta":182505324},{"NoteNumber":75,"Velocity":48,"Duration":102739,"SoundDuration":102739,"Delta":182608064},{"NoteNumber":78,"Velocity":48,"Duration":102739,"SoundDuration":102739,"Delta":182608064},{"NoteNumber":63,"Velocity":38,"Duration":102739,"SoundDuration":102739,"Delta":182608064},{"NoteNumber":84,"Velocity":48,"Duration":102739,"SoundDuration":102739,"Delta":182710803},{"NoteNumber":66,"Velocity":38,"Duration":102739,"SoundDuration":102739,"Delta":182710803},{"NoteNumber":72,"Velocity":74,"Duration":102739,"SoundDuration":102739,"Delta":182813543},{"NoteNumber":55,"Velocity":50,"Duration":102739,"SoundDuration":102739,"Delta":182813543},{"NoteNumber":84,"Velocity":49,"Duration":102739,"SoundDuration":102739,"Delta":182916283},{"NoteNumber":67,"Velocity":40,"Duration":102739,"SoundDuration":102739,"Delta":182916283},{"NoteNumber":76,"Velocity":49,"Duration":102739,"SoundDuration":102739,"Delta":183019023},{"NoteNumber":79,"Velocity":49,"Duration":102739,"SoundDuration":102739,"Delta":183019023},{"NoteNumber":60,"Velocity":40,"Duration":102739,"SoundDuration":102739,"Delta":183019023},{"NoteNumber":64,"Velocity":40,"Duration":102739,"SoundDuration":102739,"Delta":183019023},{"NoteNumber":84,"Velocity":50,"Duration":102739,"SoundDuration":102739,"Delta":183121762},{"NoteNumber":67,"Velocity":42,"Duration":102739,"SoundDuration":102739,"Delta":183121762},{"NoteNumber":71,"Velocity":69,"Duration":104529,"SoundDuration":104529,"Delta":183224502},{"NoteNumber":55,"Velocity":52,"Duration":104529,"SoundDuration":104529,"Delta":183224502},{"NoteNumber":83,"Velocity":50,"Duration":104529,"SoundDuration":104529,"Delta":183329032},{"NoteNumber":67,"Velocity":41,"Duration":104529,"SoundDuration":104529,"Delta":183329032},{"NoteNumber":74,"Velocity":51,"Duration":104529,"SoundDuration":104529,"Delta":183433561},{"NoteNumber":79,"Velocity":51,"Duration":104529,"SoundDuration":104529,"Delta":183433561},{"NoteNumber":59,"Velocity":42,"Duration":104529,"SoundDuration":104529,"Delta":183433561},{"NoteNumber":62,"Velocity":42,"Duration":104529,"SoundDuration":104529,"Delta":183433561},{"NoteNumber":83,"Velocity":52,"Duration":104529,"SoundDuration":104529,"Delta":183538091},{"NoteNumber":67,"Velocity":42,"Duration":104529,"SoundDuration":104529,"Delta":183538091},{"NoteNumber":76,"Velocity":71,"Duration":103092,"SoundDuration":103092,"Delta":183642620},{"NoteNumber":60,"Velocity":49,"Duration":103092,"SoundDuration":103092,"Delta":183642620},{"NoteNumber":88,"Velocity":49,"Duration":103092,"SoundDuration":103092,"Delta":183745713},{"NoteNumber":72,"Velocity":39,"Duration":103092,"SoundDuration":103092,"Delta":183745713},{"NoteNumber":84,"Velocity":49,"Duration":103092,"SoundDuration":103092,"Delta":183848806},{"NoteNumber":79,"Velocity":49,"Duration":103092,"SoundDuration":103092,"Delta":183848806},{"NoteNumber":67,"Velocity":39,"Duration":103092,"SoundDuration":103092,"Delta":183848806},{"NoteNumber":88,"Velocity":50,"Duration":103092,"SoundDuration":103092,"Delta":183951898},{"NoteNumber":72,"Velocity":40,"Duration":103092,"SoundDuration":103092,"Delta":183951898},{"NoteNumber":78,"Velocity":72,"Duration":101351,"SoundDuration":101351,"Delta":184054991},{"NoteNumber":68,"Velocity":50,"Duration":101351,"SoundDuration":101351,"Delta":184054991},{"NoteNumber":90,"Velocity":50,"Duration":101351,"SoundDuration":101351,"Delta":184156342},{"NoteNumber":75,"Velocity":40,"Duration":101351,"SoundDuration":101351,"Delta":184156342},{"NoteNumber":84,"Velocity":50,"Duration":101351,"SoundDuration":101351,"Delta":184257694},{"NoteNumber":87,"Velocity":50,"Duration":101351,"SoundDuration":101351,"Delta":184257694},{"NoteNumber":72,"Velocity":40,"Duration":101351,"SoundDuration":101351,"Delta":184257694},{"NoteNumber":90,"Velocity":50,"Duration":101351,"SoundDuration":101351,"Delta":184359045},{"NoteNumber":75,"Velocity":40,"Duration":101351,"SoundDuration":101351,"Delta":184359045},{"NoteNumber":79,"Velocity":74,"Duration":101351,"SoundDuration":101351,"Delta":184460396},{"NoteNumber":67,"Velocity":52,"Duration":101351,"SoundDuration":101351,"Delta":184460396},{"NoteNumber":91,"Velocity":51,"Duration":101351,"SoundDuration":101351,"Delta":184561747},{"NoteNumber":76,"Velocity":42,"Duration":101351,"SoundDuration":101351,"Delta":184561747},{"NoteNumber":84,"Velocity":51,"Duration":101351,"SoundDuration":101351,"Delta":184663099},{"NoteNumber":88,"Velocity":51,"Duration":101351,"SoundDuration":101351,"Delta":184663099},{"NoteNumber":72,"Velocity":42,"Duration":101351,"SoundDuration":101351,"Delta":184663099},{"NoteNumber":91,"Velocity":52,"Duration":101351,"SoundDuration":101351,"Delta":184764450},{"NoteNumber":76,"Velocity":44,"Duration":101351,"SoundDuration":101351,"Delta":184764450},{"NoteNumber":79,"Velocity":75,"Duration":103092,"SoundDuration":103092,"Delta":184865801},{"NoteNumber":67,"Velocity":55,"Duration":103092,"SoundDuration":103092,"Delta":184865801},{"NoteNumber":91,"Velocity":52,"Duration":103092,"SoundDuration":103092,"Delta":184968894},{"NoteNumber":74,"Velocity":43,"Duration":103092,"SoundDuration":103092,"Delta":184968894},{"NoteNumber":83,"Velocity":53,"Duration":103092,"SoundDuration":103092,"Delta":185071987},{"NoteNumber":86,"Velocity":53,"Duration":103092,"SoundDuration":103092,"Delta":185071987},{"NoteNumber":71,"Velocity":43,"Duration":103092,"SoundDuration":103092,"Delta":185071987},{"NoteNumber":91,"Velocity":54,"Duration":103092,"SoundDuration":103092,"Delta":185175079},{"NoteNumber":74,"Velocity":44,"Duration":103092,"SoundDuration":103092,"Delta":185175079},{"NoteNumber":79,"Velocity":79,"Duration":100671,"SoundDuration":100671,"Delta":185278172},{"NoteNumber":55,"Velocity":60,"Duration":100671,"SoundDuration":100671,"Delta":185278172},{"NoteNumber":91,"Velocity":60,"Duration":100671,"SoundDuration":100671,"Delta":185378843},{"NoteNumber":67,"Velocity":48,"Duration":100671,"SoundDuration":100671,"Delta":185378843},{"NoteNumber":88,"Velocity":61,"Duration":100671,"SoundDuration":100671,"Delta":185479515},{"NoteNumber":84,"Velocity":61,"Duration":100671,"SoundDuration":100671,"Delta":185479515},{"NoteNumber":60,"Velocity":48,"Duration":100671,"SoundDuration":100671,"Delta":185479515},{"NoteNumber":64,"Velocity":48,"Duration":100671,"SoundDuration":100671,"Delta":185479515},{"NoteNumber":91,"Velocity":62,"Duration":100671,"SoundDuration":100671,"Delta":185580186},{"NoteNumber":67,"Velocity":49,"Duration":100671,"SoundDuration":100671,"Delta":185580186},{"NoteNumber":79,"Velocity":84,"Duration":99009,"SoundDuration":99009,"Delta":185680857},{"NoteNumber":55,"Velocity":62,"Duration":99009,"SoundDuration":99009,"Delta":185680857},{"NoteNumber":91,"Velocity":63,"Duration":99010,"SoundDuration":99010,"Delta":185779867},{"NoteNumber":67,"Velocity":50,"Duration":99010,"SoundDuration":99010,"Delta":185779867},{"NoteNumber":83,"Velocity":63,"Duration":99009,"SoundDuration":99009,"Delta":185878877},{"NoteNumber":86,"Velocity":63,"Duration":99009,"SoundDuration":99009,"Delta":185878877},{"NoteNumber":59,"Velocity":49,"Duration":99009,"SoundDuration":99009,"Delta":185878877},{"NoteNumber":62,"Velocity":49,"Duration":99009,"SoundDuration":99009,"Delta":185878877},{"NoteNumber":91,"Velocity":64,"Duration":99009,"SoundDuration":99009,"Delta":185977887},{"NoteNumber":67,"Velocity":52,"Duration":99009,"SoundDuration":99009,"Delta":185977887},{"NoteNumber":79,"Velocity":90,"Duration":99009,"SoundDuration":99009,"Delta":186076897},{"NoteNumber":43,"Velocity":67,"Duration":99009,"SoundDuration":99009,"Delta":186076897},{"NoteNumber":91,"Velocity":66,"Duration":99010,"SoundDuration":99010,"Delta":186175907},{"NoteNumber":55,"Velocity":55,"Duration":99010,"SoundDuration":99010,"Delta":186175907},{"NoteNumber":84,"Velocity":67,"Duration":99009,"SoundDuration":99009,"Delta":186274917},{"NoteNumber":88,"Velocity":67,"Duration":99009,"SoundDuration":99009,"Delta":186274917},{"NoteNumber":48,"Velocity":55,"Duration":99009,"SoundDuration":99009,"Delta":186274917},{"NoteNumber":52,"Velocity":55,"Duration":99009,"SoundDuration":99009,"Delta":186274917},{"NoteNumber":91,"Velocity":69,"Duration":99009,"SoundDuration":99009,"Delta":186373927},{"NoteNumber":55,"Velocity":57,"Duration":99009,"SoundDuration":99009,"Delta":186373927},{"NoteNumber":79,"Velocity":93,"Duration":100671,"SoundDuration":100671,"Delta":186472937},{"NoteNumber":43,"Velocity":73,"Duration":100671,"SoundDuration":100671,"Delta":186472937},{"NoteNumber":91,"Velocity":70,"Duration":100671,"SoundDuration":100671,"Delta":186573608},{"NoteNumber":55,"Velocity":58,"Duration":100671,"SoundDuration":100671,"Delta":186573608},{"NoteNumber":83,"Velocity":71,"Duration":100671,"SoundDuration":100671,"Delta":186674280},{"NoteNumber":86,"Velocity":71,"Duration":100671,"SoundDuration":100671,"Delta":186674280},{"NoteNumber":47,"Velocity":58,"Duration":100671,"SoundDuration":100671,"Delta":186674280},{"NoteNumber":50,"Velocity":58,"Duration":100671,"SoundDuration":100671,"Delta":186674280},{"NoteNumber":91,"Velocity":74,"Duration":100671,"SoundDuration":100671,"Delta":186774951},{"NoteNumber":55,"Velocity":60,"Duration":100671,"SoundDuration":100671,"Delta":186774951},{"NoteNumber":88,"Velocity":97,"Duration":101695,"SoundDuration":101695,"Delta":186875622},{"NoteNumber":84,"Velocity":82,"Duration":101695,"SoundDuration":101695,"Delta":186875622},{"NoteNumber":79,"Velocity":82,"Duration":101695,"SoundDuration":101695,"Delta":186875622},{"NoteNumber":36,"Velocity":64,"Duration":203275,"SoundDuration":203275,"Delta":186875622},{"NoteNumber":48,"Velocity":76,"Duration":203275,"SoundDuration":203275,"Delta":186875622},{"NoteNumber":91,"Velocity":89,"Duration":101580,"SoundDuration":101580,"Delta":186977317},{"NoteNumber":86,"Velocity":98,"Duration":101351,"SoundDuration":101351,"Delta":187078897},{"NoteNumber":83,"Velocity":82,"Duration":101351,"SoundDuration":101351,"Delta":187078897},{"NoteNumber":79,"Velocity":82,"Duration":101351,"SoundDuration":101351,"Delta":187078897},{"NoteNumber":31,"Velocity":58,"Duration":202474,"SoundDuration":202474,"Delta":187078897},{"NoteNumber":43,"Velocity":70,"Duration":202474,"SoundDuration":202474,"Delta":187078897},{"NoteNumber":91,"Velocity":91,"Duration":101123,"SoundDuration":101123,"Delta":187180249},{"NoteNumber":88,"Velocity":99,"Duration":100953,"SoundDuration":100953,"Delta":187281372},{"NoteNumber":84,"Velocity":85,"Duration":100953,"SoundDuration":100953,"Delta":187281372},{"NoteNumber":79,"Velocity":85,"Duration":100953,"SoundDuration":100953,"Delta":187281372},{"NoteNumber":36,"Velocity":66,"Duration":201624,"SoundDuration":201624,"Delta":187281372},{"NoteNumber":48,"Velocity":79,"Duration":201624,"SoundDuration":201624,"Delta":187281372},{"NoteNumber":91,"Velocity":93,"Duration":100671,"SoundDuration":100671,"Delta":187382326},{"NoteNumber":86,"Velocity":101,"Duration":100502,"SoundDuration":100502,"Delta":187482997},{"NoteNumber":83,"Velocity":86,"Duration":100502,"SoundDuration":100502,"Delta":187482997},{"NoteNumber":79,"Velocity":86,"Duration":100502,"SoundDuration":100502,"Delta":187482997},{"NoteNumber":31,"Velocity":60,"Duration":200837,"SoundDuration":200837,"Delta":187482997},{"NoteNumber":43,"Velocity":73,"Duration":200837,"SoundDuration":200837,"Delta":187482997},{"NoteNumber":91,"Velocity":94,"Duration":100334,"SoundDuration":100334,"Delta":187583500},{"NoteNumber":88,"Velocity":103,"Duration":100897,"SoundDuration":100897,"Delta":187683835},{"NoteNumber":84,"Velocity":87,"Duration":100897,"SoundDuration":100897,"Delta":187683835},{"NoteNumber":79,"Velocity":87,"Duration":100897,"SoundDuration":100897,"Delta":187683835},{"NoteNumber":36,"Velocity":69,"Duration":202766,"SoundDuration":202766,"Delta":187683835},{"NoteNumber":48,"Velocity":81,"Duration":202766,"SoundDuration":202766,"Delta":187683835},{"NoteNumber":91,"Velocity":96,"Duration":101868,"SoundDuration":101868,"Delta":187784732},{"NoteNumber":86,"Velocity":105,"Duration":102917,"SoundDuration":102917,"Delta":187886601},{"NoteNumber":83,"Velocity":89,"Duration":102917,"SoundDuration":102917,"Delta":187886601},{"NoteNumber":79,"Velocity":89,"Duration":102917,"SoundDuration":102917,"Delta":187886601},{"NoteNumber":31,"Velocity":63,"Duration":206904,"SoundDuration":206904,"Delta":187886601},{"NoteNumber":43,"Velocity":75,"Duration":206904,"SoundDuration":206904,"Delta":187886601},{"NoteNumber":91,"Velocity":101,"Duration":103987,"SoundDuration":103987,"Delta":187989518},{"NoteNumber":88,"Velocity":107,"Duration":105512,"SoundDuration":105512,"Delta":188093505},{"NoteNumber":84,"Velocity":90,"Duration":105512,"SoundDuration":105512,"Delta":188093505},{"NoteNumber":79,"Velocity":90,"Duration":105512,"SoundDuration":105512,"Delta":188093505},{"NoteNumber":36,"Velocity":71,"Duration":212914,"SoundDuration":212914,"Delta":188093505},{"NoteNumber":48,"Velocity":85,"Duration":212914,"SoundDuration":212914,"Delta":188093505},{"NoteNumber":91,"Velocity":99,"Duration":107401,"SoundDuration":107401,"Delta":188199018},{"NoteNumber":86,"Velocity":108,"Duration":109359,"SoundDuration":109359,"Delta":188306420},{"NoteNumber":83,"Velocity":91,"Duration":109359,"SoundDuration":109359,"Delta":188306420},{"NoteNumber":79,"Velocity":91,"Duration":109359,"SoundDuration":109359,"Delta":188306420},{"NoteNumber":31,"Velocity":64,"Duration":221730,"SoundDuration":221730,"Delta":188306420},{"NoteNumber":43,"Velocity":76,"Duration":221730,"SoundDuration":221730,"Delta":188306420},{"NoteNumber":91,"Velocity":100,"Duration":112371,"SoundDuration":112371,"Delta":188415779},{"NoteNumber":72,"Velocity":83,"Duration":110294,"SoundDuration":110294,"Delta":188528150},{"NoteNumber":76,"Velocity":83,"Duration":110294,"SoundDuration":110294,"Delta":188528150},{"NoteNumber":79,"Velocity":93,"Duration":110294,"SoundDuration":110294,"Delta":188528150},{"NoteNumber":84,"Velocity":110,"Duration":110294,"SoundDuration":110294,"Delta":188528150},{"NoteNumber":36,"Velocity":68,"Duration":110294,"SoundDuration":110294,"Delta":188528150},{"NoteNumber":40,"Velocity":76,"Duration":110294,"SoundDuration":110294,"Delta":188528150},{"NoteNumber":43,"Velocity":76,"Duration":110294,"SoundDuration":110294,"Delta":188528150},{"NoteNumber":48,"Velocity":90,"Duration":110294,"SoundDuration":110294,"Delta":188528150},{"NoteNumber":84,"Velocity":83,"Duration":102040,"SoundDuration":102040,"Delta":188748738},{"NoteNumber":72,"Velocity":68,"Duration":102040,"SoundDuration":102040,"Delta":188748738},{"NoteNumber":79,"Velocity":81,"Duration":101925,"SoundDuration":101925,"Delta":188850779},{"NoteNumber":67,"Velocity":67,"Duration":101925,"SoundDuration":101925,"Delta":188850779},{"NoteNumber":76,"Velocity":81,"Duration":101695,"SoundDuration":101695,"Delta":188952705},{"NoteNumber":64,"Velocity":65,"Duration":101695,"SoundDuration":101695,"Delta":188952705},{"NoteNumber":72,"Velocity":80,"Duration":101465,"SoundDuration":101465,"Delta":189054400},{"NoteNumber":60,"Velocity":64,"Duration":101465,"SoundDuration":101465,"Delta":189054400},{"NoteNumber":67,"Velocity":78,"Duration":101351,"SoundDuration":101351,"Delta":189155865},{"NoteNumber":55,"Velocity":63,"Duration":101351,"SoundDuration":101351,"Delta":189155865},{"NoteNumber":64,"Velocity":76,"Duration":101010,"SoundDuration":101010,"Delta":189257217},{"NoteNumber":52,"Velocity":63,"Duration":101010,"SoundDuration":101010,"Delta":189257217},{"NoteNumber":60,"Velocity":73,"Duration":100784,"SoundDuration":100784,"Delta":189358227},{"NoteNumber":48,"Velocity":60,"Duration":100784,"SoundDuration":100784,"Delta":189358227},{"NoteNumber":55,"Velocity":74,"Duration":101123,"SoundDuration":101123,"Delta":189459011},{"NoteNumber":43,"Velocity":61,"Duration":101123,"SoundDuration":101123,"Delta":189459011},{"NoteNumber":60,"Velocity":75,"Duration":101580,"SoundDuration":101580,"Delta":189560135},{"NoteNumber":48,"Velocity":62,"Duration":101580,"SoundDuration":101580,"Delta":189560135},{"NoteNumber":64,"Velocity":76,"Duration":102156,"SoundDuration":102156,"Delta":189661715},{"NoteNumber":52,"Velocity":63,"Duration":102156,"SoundDuration":102156,"Delta":189661715},{"NoteNumber":67,"Velocity":77,"Duration":102505,"SoundDuration":102505,"Delta":189763872},{"NoteNumber":55,"Velocity":64,"Duration":102505,"SoundDuration":102505,"Delta":189763872},{"NoteNumber":72,"Velocity":78,"Duration":103449,"SoundDuration":103449,"Delta":189866378},{"NoteNumber":60,"Velocity":65,"Duration":103449,"SoundDuration":103449,"Delta":189866378},{"NoteNumber":76,"Velocity":79,"Duration":104530,"SoundDuration":104530,"Delta":189969827},{"NoteNumber":64,"Velocity":66,"Duration":104530,"SoundDuration":104530,"Delta":189969827},{"NoteNumber":79,"Velocity":80,"Duration":105634,"SoundDuration":105634,"Delta":190074357},{"NoteNumber":67,"Velocity":67,"Duration":105634,"SoundDuration":105634,"Delta":190074357},{"NoteNumber":72,"Velocity":85,"Duration":110294,"SoundDuration":110294,"Delta":190179992},{"NoteNumber":76,"Velocity":85,"Duration":110294,"SoundDuration":110294,"Delta":190179992},{"NoteNumber":79,"Velocity":85,"Duration":110294,"SoundDuration":110294,"Delta":190179992},{"NoteNumber":84,"Velocity":101,"Duration":110294,"SoundDuration":110294,"Delta":190179992},{"NoteNumber":60,"Velocity":68,"Duration":110294,"SoundDuration":110294,"Delta":190179992},{"NoteNumber":64,"Velocity":68,"Duration":110294,"SoundDuration":110294,"Delta":190179992},{"NoteNumber":67,"Velocity":68,"Duration":110294,"SoundDuration":110294,"Delta":190179992},{"NoteNumber":72,"Velocity":80,"Duration":110294,"SoundDuration":110294,"Delta":190179992},{"NoteNumber":88,"Velocity":83,"Duration":102040,"SoundDuration":102040,"Delta":190400580},{"NoteNumber":76,"Velocity":68,"Duration":102040,"SoundDuration":102040,"Delta":190400580},{"NoteNumber":84,"Velocity":81,"Duration":101810,"SoundDuration":101810,"Delta":190502621},{"NoteNumber":72,"Velocity":67,"Duration":101810,"SoundDuration":101810,"Delta":190502621},{"NoteNumber":79,"Velocity":81,"Duration":101580,"SoundDuration":101580,"Delta":190604431},{"NoteNumber":67,"Velocity":65,"Duration":101580,"SoundDuration":101580,"Delta":190604431},{"NoteNumber":76,"Velocity":80,"Duration":101237,"SoundDuration":101237,"Delta":190706011},{"NoteNumber":64,"Velocity":64,"Duration":101237,"SoundDuration":101237,"Delta":190706011},{"NoteNumber":72,"Velocity":78,"Duration":101010,"SoundDuration":101010,"Delta":190807249},{"NoteNumber":60,"Velocity":63,"Duration":101010,"SoundDuration":101010,"Delta":190807249},{"NoteNumber":67,"Velocity":76,"Duration":100671,"SoundDuration":100671,"Delta":190908259},{"NoteNumber":55,"Velocity":63,"Duration":100671,"SoundDuration":100671,"Delta":190908259},{"NoteNumber":64,"Velocity":73,"Duration":100446,"SoundDuration":100446,"Delta":191008930},{"NoteNumber":52,"Velocity":60,"Duration":100446,"SoundDuration":100446,"Delta":191008930},{"NoteNumber":60,"Velocity":74,"Duration":100897,"SoundDuration":100897,"Delta":191109377},{"NoteNumber":48,"Velocity":61,"Duration":100897,"SoundDuration":100897,"Delta":191109377},{"NoteNumber":64,"Velocity":75,"Duration":101465,"SoundDuration":101465,"Delta":191210274},{"NoteNumber":52,"Velocity":62,"Duration":101465,"SoundDuration":101465,"Delta":191210274},{"NoteNumber":67,"Velocity":76,"Duration":101925,"SoundDuration":101925,"Delta":191311740},{"NoteNumber":55,"Velocity":63,"Duration":101925,"SoundDuration":101925,"Delta":191311740},{"NoteNumber":72,"Velocity":77,"Duration":102505,"SoundDuration":102505,"Delta":191413665},{"NoteNumber":60,"Velocity":64,"Duration":102505,"SoundDuration":102505,"Delta":191413665},{"NoteNumber":76,"Velocity":78,"Duration":103449,"SoundDuration":103449,"Delta":191516171},{"NoteNumber":64,"Velocity":65,"Duration":103449,"SoundDuration":103449,"Delta":191516171},{"NoteNumber":79,"Velocity":79,"Duration":104530,"SoundDuration":104530,"Delta":191619620},{"NoteNumber":67,"Velocity":66,"Duration":104530,"SoundDuration":104530,"Delta":191619620},{"NoteNumber":84,"Velocity":80,"Duration":105634,"SoundDuration":105634,"Delta":191724151},{"NoteNumber":72,"Velocity":67,"Duration":105634,"SoundDuration":105634,"Delta":191724151},{"NoteNumber":76,"Velocity":85,"Duration":110294,"SoundDuration":110294,"Delta":191829785},{"NoteNumber":79,"Velocity":85,"Duration":110294,"SoundDuration":110294,"Delta":191829785},{"NoteNumber":84,"Velocity":85,"Duration":110294,"SoundDuration":110294,"Delta":191829785},{"NoteNumber":88,"Velocity":101,"Duration":110294,"SoundDuration":110294,"Delta":191829785},{"NoteNumber":64,"Velocity":68,"Duration":110294,"SoundDuration":110294,"Delta":191829785},{"NoteNumber":67,"Velocity":68,"Duration":110294,"SoundDuration":110294,"Delta":191829785},{"NoteNumber":72,"Velocity":68,"Duration":110294,"SoundDuration":110294,"Delta":191829785},{"NoteNumber":76,"Velocity":80,"Duration":110294,"SoundDuration":110294,"Delta":191829785},{"NoteNumber":91,"Velocity":83,"Duration":102040,"SoundDuration":102040,"Delta":192050373},{"NoteNumber":79,"Velocity":68,"Duration":102040,"SoundDuration":102040,"Delta":192050373},{"NoteNumber":88,"Velocity":81,"Duration":101810,"SoundDuration":101810,"Delta":192152414},{"NoteNumber":76,"Velocity":67,"Duration":101810,"SoundDuration":101810,"Delta":192152414},{"NoteNumber":84,"Velocity":81,"Duration":101465,"SoundDuration":101465,"Delta":192254224},{"NoteNumber":72,"Velocity":65,"Duration":101465,"SoundDuration":101465,"Delta":192254224},{"NoteNumber":79,"Velocity":80,"Duration":101237,"SoundDuration":101237,"Delta":192355690},{"NoteNumber":67,"Velocity":64,"Duration":101237,"SoundDuration":101237,"Delta":192355690},{"NoteNumber":76,"Velocity":78,"Duration":100897,"SoundDuration":100897,"Delta":192456928},{"NoteNumber":64,"Velocity":63,"Duration":100897,"SoundDuration":100897,"Delta":192456928},{"NoteNumber":72,"Velocity":76,"Duration":100559,"SoundDuration":100559,"Delta":192557825},{"NoteNumber":60,"Velocity":63,"Duration":100559,"SoundDuration":100559,"Delta":192557825},{"NoteNumber":67,"Velocity":73,"Duration":100446,"SoundDuration":100446,"Delta":192658384},{"NoteNumber":55,"Velocity":60,"Duration":100446,"SoundDuration":100446,"Delta":192658384},{"NoteNumber":64,"Velocity":74,"Duration":100897,"SoundDuration":100897,"Delta":192758831},{"NoteNumber":52,"Velocity":61,"Duration":100897,"SoundDuration":100897,"Delta":192758831},{"NoteNumber":67,"Velocity":75,"Duration":101237,"SoundDuration":101237,"Delta":192859728},{"NoteNumber":55,"Velocity":62,"Duration":101237,"SoundDuration":101237,"Delta":192859728},{"NoteNumber":72,"Velocity":76,"Duration":101695,"SoundDuration":101695,"Delta":192960965},{"NoteNumber":60,"Velocity":63,"Duration":101695,"SoundDuration":101695,"Delta":192960965},{"NoteNumber":76,"Velocity":77,"Duration":102156,"SoundDuration":102156,"Delta":193062660},{"NoteNumber":64,"Velocity":64,"Duration":102156,"SoundDuration":102156,"Delta":193062660},{"NoteNumber":79,"Velocity":78,"Duration":102859,"SoundDuration":102859,"Delta":193164817},{"NoteNumber":67,"Velocity":65,"Duration":102859,"SoundDuration":102859,"Delta":193164817},{"NoteNumber":84,"Velocity":79,"Duration":104410,"SoundDuration":104410,"Delta":193267676},{"NoteNumber":72,"Velocity":66,"Duration":104410,"SoundDuration":104410,"Delta":193267676},{"NoteNumber":88,"Velocity":80,"Duration":108073,"SoundDuration":108073,"Delta":193372086},{"NoteNumber":76,"Velocity":67,"Duration":108073,"SoundDuration":108073,"Delta":193372086},{"NoteNumber":79,"Velocity":85,"Duration":110294,"SoundDuration":110294,"Delta":193480159},{"NoteNumber":84,"Velocity":85,"Duration":110294,"SoundDuration":110294,"Delta":193480159},{"NoteNumber":88,"Velocity":85,"Duration":110294,"SoundDuration":110294,"Delta":193480159},{"NoteNumber":91,"Velocity":101,"Duration":110294,"SoundDuration":110294,"Delta":193480159},{"NoteNumber":67,"Velocity":68,"Duration":110294,"SoundDuration":110294,"Delta":193480159},{"NoteNumber":72,"Velocity":68,"Duration":110294,"SoundDuration":110294,"Delta":193480159},{"NoteNumber":76,"Velocity":68,"Duration":110294,"SoundDuration":110294,"Delta":193480159},{"NoteNumber":79,"Velocity":80,"Duration":110294,"SoundDuration":110294,"Delta":193480159},{"NoteNumber":96,"Velocity":83,"Duration":102388,"SoundDuration":102388,"Delta":193700747},{"NoteNumber":84,"Velocity":68,"Duration":102388,"SoundDuration":102388,"Delta":193700747},{"NoteNumber":91,"Velocity":81,"Duration":102156,"SoundDuration":102156,"Delta":193803136},{"NoteNumber":79,"Velocity":67,"Duration":102156,"SoundDuration":102156,"Delta":193803136},{"NoteNumber":88,"Velocity":81,"Duration":101810,"SoundDuration":101810,"Delta":193905293},{"NoteNumber":76,"Velocity":65,"Duration":101810,"SoundDuration":101810,"Delta":193905293},{"NoteNumber":84,"Velocity":80,"Duration":101580,"SoundDuration":101580,"Delta":194007103},{"NoteNumber":72,"Velocity":64,"Duration":101580,"SoundDuration":101580,"Delta":194007103},{"NoteNumber":79,"Velocity":78,"Duration":101237,"SoundDuration":101237,"Delta":194108684},{"NoteNumber":67,"Velocity":63,"Duration":101237,"SoundDuration":101237,"Delta":194108684},{"NoteNumber":76,"Velocity":76,"Duration":100897,"SoundDuration":100897,"Delta":194209921},{"NoteNumber":64,"Velocity":63,"Duration":100897,"SoundDuration":100897,"Delta":194209921},{"NoteNumber":72,"Velocity":73,"Duration":100784,"SoundDuration":100784,"Delta":194310818},{"NoteNumber":60,"Velocity":60,"Duration":100784,"SoundDuration":100784,"Delta":194310818},{"NoteNumber":67,"Velocity":74,"Duration":101123,"SoundDuration":101123,"Delta":194411603},{"NoteNumber":55,"Velocity":61,"Duration":101123,"SoundDuration":101123,"Delta":194411603},{"NoteNumber":72,"Velocity":75,"Duration":101465,"SoundDuration":101465,"Delta":194512726},{"NoteNumber":60,"Velocity":62,"Duration":101465,"SoundDuration":101465,"Delta":194512726},{"NoteNumber":76,"Velocity":76,"Duration":101810,"SoundDuration":101810,"Delta":194614192},{"NoteNumber":64,"Velocity":63,"Duration":101810,"SoundDuration":101810,"Delta":194614192},{"NoteNumber":79,"Velocity":77,"Duration":102156,"SoundDuration":102156,"Delta":194716002},{"NoteNumber":67,"Velocity":64,"Duration":102156,"SoundDuration":102156,"Delta":194716002},{"NoteNumber":84,"Velocity":78,"Duration":103095,"SoundDuration":103095,"Delta":194818159},{"NoteNumber":72,"Velocity":65,"Duration":103095,"SoundDuration":103095,"Delta":194818159},{"NoteNumber":88,"Velocity":79,"Duration":105266,"SoundDuration":105266,"Delta":194921255},{"NoteNumber":76,"Velocity":66,"Duration":105266,"SoundDuration":105266,"Delta":194921255},{"NoteNumber":91,"Velocity":80,"Duration":107530,"SoundDuration":107530,"Delta":195026522},{"NoteNumber":79,"Velocity":67,"Duration":107530,"SoundDuration":107530,"Delta":195026522},{"NoteNumber":84,"Velocity":85,"Duration":114503,"SoundDuration":114503,"Delta":195134052},{"NoteNumber":88,"Velocity":85,"Duration":114503,"SoundDuration":114503,"Delta":195134052},{"NoteNumber":91,"Velocity":85,"Duration":114503,"SoundDuration":114503,"Delta":195134052},{"NoteNumber":96,"Velocity":101,"Duration":114503,"SoundDuration":114503,"Delta":195134052},{"NoteNumber":72,"Velocity":68,"Duration":114503,"SoundDuration":114503,"Delta":195134052},{"NoteNumber":76,"Velocity":68,"Duration":114503,"SoundDuration":114503,"Delta":195134052},{"NoteNumber":79,"Velocity":68,"Duration":114503,"SoundDuration":114503,"Delta":195134052},{"NoteNumber":84,"Velocity":80,"Duration":114503,"SoundDuration":114503,"Delta":195134052},{"NoteNumber":100,"Velocity":89,"Duration":102388,"SoundDuration":102388,"Delta":195363060},{"NoteNumber":60,"Velocity":73,"Duration":102388,"SoundDuration":102388,"Delta":195363060},{"NoteNumber":96,"Velocity":87,"Duration":102156,"SoundDuration":102156,"Delta":195465449},{"NoteNumber":55,"Velocity":71,"Duration":102156,"SoundDuration":102156,"Delta":195465449},{"NoteNumber":91,"Velocity":84,"Duration":101925,"SoundDuration":101925,"Delta":195567606},{"NoteNumber":52,"Velocity":69,"Duration":101925,"SoundDuration":101925,"Delta":195567606},{"NoteNumber":88,"Velocity":81,"Duration":101580,"SoundDuration":101580,"Delta":195669531},{"NoteNumber":48,"Velocity":67,"Duration":101580,"SoundDuration":101580,"Delta":195669531},{"NoteNumber":84,"Velocity":79,"Duration":101351,"SoundDuration":101351,"Delta":195771112},{"NoteNumber":43,"Velocity":65,"Duration":101351,"SoundDuration":101351,"Delta":195771112},{"NoteNumber":79,"Velocity":76,"Duration":101010,"SoundDuration":101010,"Delta":195872463},{"NoteNumber":40,"Velocity":63,"Duration":101010,"SoundDuration":101010,"Delta":195872463},{"NoteNumber":76,"Velocity":73,"Duration":100671,"SoundDuration":100671,"Delta":195973473},{"NoteNumber":36,"Velocity":60,"Duration":100671,"SoundDuration":100671,"Delta":195973473},{"NoteNumber":72,"Velocity":74,"Duration":101123,"SoundDuration":101123,"Delta":196074144},{"NoteNumber":31,"Velocity":61,"Duration":101123,"SoundDuration":101123,"Delta":196074144},{"NoteNumber":76,"Velocity":75,"Duration":101580,"SoundDuration":101580,"Delta":196175268},{"NoteNumber":36,"Velocity":62,"Duration":101580,"SoundDuration":101580,"Delta":196175268},{"NoteNumber":79,"Velocity":76,"Duration":102156,"SoundDuration":102156,"Delta":196276848},{"NoteNumber":40,"Velocity":63,"Duration":102156,"SoundDuration":102156,"Delta":196276848},{"NoteNumber":84,"Velocity":77,"Duration":102740,"SoundDuration":102740,"Delta":196379005},{"NoteNumber":43,"Velocity":64,"Duration":102740,"SoundDuration":102740,"Delta":196379005},{"NoteNumber":88,"Velocity":78,"Duration":103212,"SoundDuration":103212,"Delta":196481746},{"NoteNumber":48,"Velocity":65,"Duration":103212,"SoundDuration":103212,"Delta":196481746},{"NoteNumber":91,"Velocity":79,"Duration":105266,"SoundDuration":105266,"Delta":196584959},{"NoteNumber":52,"Velocity":66,"Duration":105266,"SoundDuration":105266,"Delta":196584959},{"NoteNumber":96,"Velocity":80,"Duration":107530,"SoundDuration":107530,"Delta":196690225},{"NoteNumber":55,"Velocity":67,"Duration":107530,"SoundDuration":107530,"Delta":196690225},{"NoteNumber":88,"Velocity":87,"Duration":436363,"SoundDuration":436363,"Delta":196797756},{"NoteNumber":91,"Velocity":87,"Duration":436363,"SoundDuration":436363,"Delta":196797756},{"NoteNumber":96,"Velocity":87,"Duration":436363,"SoundDuration":436363,"Delta":196797756},{"NoteNumber":100,"Velocity":103,"Duration":436363,"SoundDuration":436363,"Delta":196797756},{"NoteNumber":48,"Velocity":71,"Duration":436363,"SoundDuration":436363,"Delta":196797756},{"NoteNumber":52,"Velocity":71,"Duration":436363,"SoundDuration":436363,"Delta":196797756},{"NoteNumber":55,"Velocity":71,"Duration":436363,"SoundDuration":436363,"Delta":196797756},{"NoteNumber":60,"Velocity":84,"Duration":436363,"SoundDuration":436363,"Delta":196797756},{"NoteNumber":79,"Velocity":89,"Duration":436363,"SoundDuration":436363,"Delta":197670484},{"NoteNumber":83,"Velocity":89,"Duration":436363,"SoundDuration":436363,"Delta":197670484},{"NoteNumber":86,"Velocity":89,"Duration":436363,"SoundDuration":436363,"Delta":197670484},{"NoteNumber":91,"Velocity":106,"Duration":436363,"SoundDuration":436363,"Delta":197670484},{"NoteNumber":43,"Velocity":71,"Duration":436363,"SoundDuration":436363,"Delta":197670484},{"NoteNumber":47,"Velocity":71,"Duration":436363,"SoundDuration":436363,"Delta":197670484},{"NoteNumber":50,"Velocity":71,"Duration":436363,"SoundDuration":436363,"Delta":197670484},{"NoteNumber":55,"Velocity":84,"Duration":436363,"SoundDuration":436363,"Delta":197670484},{"NoteNumber":76,"Velocity":89,"Duration":436363,"SoundDuration":436363,"Delta":198543212},{"NoteNumber":79,"Velocity":89,"Duration":436363,"SoundDuration":436363,"Delta":198543212},{"NoteNumber":84,"Velocity":89,"Duration":436363,"SoundDuration":436363,"Delta":198543212},{"NoteNumber":88,"Velocity":106,"Duration":436363,"SoundDuration":436363,"Delta":198543212},{"NoteNumber":48,"Velocity":71,"Duration":436363,"SoundDuration":436363,"Delta":198543212},{"NoteNumber":52,"Velocity":71,"Duration":436363,"SoundDuration":436363,"Delta":198543212},{"NoteNumber":55,"Velocity":71,"Duration":436363,"SoundDuration":436363,"Delta":198543212},{"NoteNumber":60,"Velocity":84,"Duration":436363,"SoundDuration":436363,"Delta":198543212},{"NoteNumber":79,"Velocity":89,"Duration":436363,"SoundDuration":436363,"Delta":199415940},{"NoteNumber":83,"Velocity":89,"Duration":436363,"SoundDuration":436363,"Delta":199415940},{"NoteNumber":86,"Velocity":89,"Duration":436363,"SoundDuration":436363,"Delta":199415940},{"NoteNumber":91,"Velocity":106,"Duration":436363,"SoundDuration":436363,"Delta":199415940},{"NoteNumber":43,"Velocity":71,"Duration":436363,"SoundDuration":436363,"Delta":199415940},{"NoteNumber":47,"Velocity":71,"Duration":436363,"SoundDuration":436363,"Delta":199415940},{"NoteNumber":50,"Velocity":71,"Duration":436363,"SoundDuration":436363,"Delta":199415940},{"NoteNumber":55,"Velocity":84,"Duration":436363,"SoundDuration":436363,"Delta":199415940},{"NoteNumber":72,"Velocity":56,"Duration":104167,"SoundDuration":104167,"Delta":200287147},{"NoteNumber":48,"Velocity":45,"Duration":104167,"SoundDuration":104167,"Delta":200287147},{"NoteNumber":84,"Velocity":57,"Duration":103449,"SoundDuration":103449,"Delta":200391315},{"NoteNumber":60,"Velocity":48,"Duration":103449,"SoundDuration":103449,"Delta":200391315},{"NoteNumber":78,"Velocity":60,"Duration":102740,"SoundDuration":102740,"Delta":200494764},{"NoteNumber":75,"Velocity":50,"Duration":102740,"SoundDuration":102740,"Delta":200494764},{"NoteNumber":72,"Velocity":50,"Duration":102740,"SoundDuration":102740,"Delta":200494764},{"NoteNumber":54,"Velocity":50,"Duration":102740,"SoundDuration":102740,"Delta":200494764},{"NoteNumber":51,"Velocity":43,"Duration":102740,"SoundDuration":102740,"Delta":200494764},{"NoteNumber":48,"Velocity":43,"Duration":102740,"SoundDuration":102740,"Delta":200494764},{"NoteNumber":84,"Velocity":63,"Duration":102041,"SoundDuration":102041,"Delta":200597504},{"NoteNumber":60,"Velocity":53,"Duration":102041,"SoundDuration":102041,"Delta":200597504},{"NoteNumber":72,"Velocity":54,"Duration":101465,"SoundDuration":101465,"Delta":200699546},{"NoteNumber":76,"Velocity":54,"Duration":101465,"SoundDuration":101465,"Delta":200699546},{"NoteNumber":79,"Velocity":65,"Duration":101465,"SoundDuration":101465,"Delta":200699546},{"NoteNumber":48,"Velocity":47,"Duration":101465,"SoundDuration":101465,"Delta":200699546},{"NoteNumber":52,"Velocity":47,"Duration":101465,"SoundDuration":101465,"Delta":200699546},{"NoteNumber":55,"Velocity":55,"Duration":101465,"SoundDuration":101465,"Delta":200699546},{"NoteNumber":84,"Velocity":67,"Duration":101695,"SoundDuration":101695,"Delta":200801012},{"NoteNumber":60,"Velocity":59,"Duration":101695,"SoundDuration":101695,"Delta":200801012},{"NoteNumber":78,"Velocity":70,"Duration":101695,"SoundDuration":101695,"Delta":200902707},{"NoteNumber":75,"Velocity":59,"Duration":101695,"SoundDuration":101695,"Delta":200902707},{"NoteNumber":72,"Velocity":59,"Duration":101695,"SoundDuration":101695,"Delta":200902707},{"NoteNumber":54,"Velocity":62,"Duration":101695,"SoundDuration":101695,"Delta":200902707},{"NoteNumber":51,"Velocity":52,"Duration":101695,"SoundDuration":101695,"Delta":200902707},{"NoteNumber":48,"Velocity":52,"Duration":101695,"SoundDuration":101695,"Delta":200902707},{"NoteNumber":84,"Velocity":72,"Duration":101580,"SoundDuration":101580,"Delta":201004402},{"NoteNumber":60,"Velocity":64,"Duration":101580,"SoundDuration":101580,"Delta":201004402},{"NoteNumber":72,"Velocity":62,"Duration":101810,"SoundDuration":101810,"Delta":201105982},{"NoteNumber":76,"Velocity":62,"Duration":101810,"SoundDuration":101810,"Delta":201105982},{"NoteNumber":79,"Velocity":74,"Duration":101810,"SoundDuration":101810,"Delta":201105982},{"NoteNumber":48,"Velocity":56,"Duration":101810,"SoundDuration":101810,"Delta":201105982},{"NoteNumber":52,"Velocity":56,"Duration":101810,"SoundDuration":101810,"Delta":201105982},{"NoteNumber":55,"Velocity":66,"Duration":101810,"SoundDuration":101810,"Delta":201105982},{"NoteNumber":84,"Velocity":77,"Duration":102389,"SoundDuration":102389,"Delta":201207792},{"NoteNumber":60,"Velocity":70,"Duration":102389,"SoundDuration":102389,"Delta":201207792},{"NoteNumber":78,"Velocity":80,"Duration":102975,"SoundDuration":102975,"Delta":201310182},{"NoteNumber":75,"Velocity":67,"Duration":102975,"SoundDuration":102975,"Delta":201310182},{"NoteNumber":72,"Velocity":67,"Duration":102975,"SoundDuration":102975,"Delta":201310182},{"NoteNumber":54,"Velocity":73,"Duration":102975,"SoundDuration":102975,"Delta":201310182},{"NoteNumber":51,"Velocity":61,"Duration":102975,"SoundDuration":102975,"Delta":201310182},{"NoteNumber":48,"Velocity":61,"Duration":102975,"SoundDuration":102975,"Delta":201310182},{"NoteNumber":84,"Velocity":83,"Duration":102983,"SoundDuration":102983,"Delta":201413157},{"NoteNumber":60,"Velocity":75,"Duration":102983,"SoundDuration":102983,"Delta":201413157},{"NoteNumber":72,"Velocity":71,"Duration":104895,"SoundDuration":104895,"Delta":201516141},{"NoteNumber":76,"Velocity":71,"Duration":104895,"SoundDuration":104895,"Delta":201516141},{"NoteNumber":79,"Velocity":85,"Duration":104895,"SoundDuration":104895,"Delta":201516141},{"NoteNumber":48,"Velocity":65,"Duration":104895,"SoundDuration":104895,"Delta":201516141},{"NoteNumber":52,"Velocity":65,"Duration":104895,"SoundDuration":104895,"Delta":201516141},{"NoteNumber":55,"Velocity":76,"Duration":104895,"SoundDuration":104895,"Delta":201516141},{"NoteNumber":84,"Velocity":82,"Duration":106642,"SoundDuration":106642,"Delta":201621036},{"NoteNumber":60,"Velocity":74,"Duration":106642,"SoundDuration":106642,"Delta":201621036},{"NoteNumber":78,"Velocity":80,"Duration":110032,"SoundDuration":110032,"Delta":201727679},{"NoteNumber":75,"Velocity":68,"Duration":110032,"SoundDuration":110032,"Delta":201727679},{"NoteNumber":72,"Velocity":68,"Duration":110032,"SoundDuration":110032,"Delta":201727679},{"NoteNumber":54,"Velocity":72,"Duration":110032,"SoundDuration":110032,"Delta":201727679},{"NoteNumber":51,"Velocity":60,"Duration":110032,"SoundDuration":110032,"Delta":201727679},{"NoteNumber":48,"Velocity":60,"Duration":110032,"SoundDuration":110032,"Delta":201727679},{"NoteNumber":84,"Velocity":78,"Duration":111564,"SoundDuration":111564,"Delta":201837712},{"NoteNumber":60,"Velocity":70,"Duration":111564,"SoundDuration":111564,"Delta":201837712},{"NoteNumber":72,"Velocity":81,"Duration":474308,"SoundDuration":474308,"Delta":201949277},{"NoteNumber":76,"Velocity":81,"Duration":474308,"SoundDuration":474308,"Delta":201949277},{"NoteNumber":79,"Velocity":81,"Duration":474308,"SoundDuration":474308,"Delta":201949277},{"NoteNumber":84,"Velocity":97,"Duration":474308,"SoundDuration":474308,"Delta":201949277},{"NoteNumber":48,"Velocity":64,"Duration":474308,"SoundDuration":474308,"Delta":201949277},{"NoteNumber":52,"Velocity":64,"Duration":474308,"SoundDuration":474308,"Delta":201949277},{"NoteNumber":55,"Velocity":64,"Duration":474308,"SoundDuration":474308,"Delta":201949277},{"NoteNumber":60,"Velocity":77,"Duration":474308,"SoundDuration":474308,"Delta":201949277},{"NoteNumber":84,"Velocity":89,"Duration":528634,"SoundDuration":528634,"Delta":202897893},{"NoteNumber":88,"Velocity":89,"Duration":528634,"SoundDuration":528634,"Delta":202897893},{"NoteNumber":91,"Velocity":89,"Duration":528634,"SoundDuration":528634,"Delta":202897893},{"NoteNumber":96,"Velocity":106,"Duration":528634,"SoundDuration":528634,"Delta":202897893},{"NoteNumber":60,"Velocity":71,"Duration":528634,"SoundDuration":528634,"Delta":202897893},{"NoteNumber":64,"Velocity":71,"Duration":528634,"SoundDuration":528634,"Delta":202897893},{"NoteNumber":67,"Velocity":71,"Duration":528634,"SoundDuration":528634,"Delta":202897893},{"NoteNumber":72,"Velocity":84,"Duration":528634,"SoundDuration":528634,"Delta":202897893},{"NoteNumber":52,"Velocity":89,"Duration":1057267,"SoundDuration":1057267,"Delta":203955161},{"NoteNumber":55,"Velocity":89,"Duration":1057267,"SoundDuration":1057267,"Delta":203955161},{"NoteNumber":60,"Velocity":106,"Duration":1057267,"SoundDuration":1057267,"Delta":203955161},{"NoteNumber":36,"Velocity":71,"Duration":1057267,"SoundDuration":1057267,"Delta":203955161},{"NoteNumber":40,"Velocity":71,"Duration":1057267,"SoundDuration":1057267,"Delta":203955161},{"NoteNumber":43,"Velocity":71,"Duration":1057267,"SoundDuration":1057267,"Delta":203955161},{"NoteNumber":48,"Velocity":84,"Duration":1057267,"SoundDuration":1057267,"Delta":203955161}],"license":{"name":"Creative Commons Attribution-ShareAlike 3.0 Germany","url":"http://creativecommons.org/licenses/by-sa/3.0/de/deed.en","text":"The MIDI, audio (MP3, OGG) and video files of Bernd Krueger are licensed under the cc-by-sa Germany License. This means that you can use and adapt the files, as long as you attribute the copyright holder.\n\nName: Bernd Krueger\nSource: http://www.piano-midi.de\n\nThe distribution or public playback of the files is only allowed under identical license conditions.\n\nThe scores are open source.","attribution":"MIDI files by Bernd Krueger (piano-midi.de)","attributionUrl":"http://www.piano-midi.de"}}