{"title":"Wandererfantasie D760, 3 Satz","artist":"Schubert","durationMs":258483,"midiSha256":"34366cd5ca8b1ccd5f8a42da016a0a49739cd2dd69d910a87ec91c0b23880ac2","midiObject":[{"NoteNumber":67,"Velocity":84,"Duration":103092,"SoundDuration":103092,"Delta":0},{"NoteNumber":55,"Velocity":74,"Duration":103092,"SoundDuration":103092,"Delta":0},{"NoteNumber":68,"Velocity":70,"Duration":103092,"SoundDuration":103092,"Delta":103092},{"NoteNumber":56,"Velocity":67,"Duration":103092,"SoundDuration":103092,"Delta":103092},{"NoteNumber":63,"Velocity":75,"Duration":107142,"SoundDuration":107142,"Delta":206185},{"NoteNumber":51,"Velocity":70,"Duration":107142,"SoundDuration":107142,"Delta":206185},{"NoteNumber":60,"Velocity":70,"Duration":107142,"SoundDuration":107142,"Delta":313328},{"NoteNumber":48,"Velocity":67,"Duration":107142,"SoundDuration":107142,"Delta":313328},{"NoteNumber":56,"Velocity":76,"Duration":121457,"SoundDuration":121457,"Delta":420471},{"NoteNumber":44,"Velocity":70,"Duration":121457,"SoundDuration":121457,"Delta":420471},{"NoteNumber":67,"Velocity":85,"Duration":103806,"SoundDuration":103806,"Delta":663386},{"NoteNumber":55,"Velocity":73,"Duration":103806,"SoundDuration":103806,"Delta":663386},{"NoteNumber":68,"Velocity":70,"Duration":103806,"SoundDuration":103806,"Delta":767192},{"NoteNumber":56,"Velocity":67,"Duration":103806,"SoundDuration":103806,"Delta":767192},{"NoteNumber":63,"Velocity":75,"Duration":106761,"SoundDuration":106761,"Delta":870998},{"NoteNumber":51,"Velocity":70,"Duration":106761,"SoundDuration":106761,"Delta":870998},{"NoteNumber":60,"Velocity":70,"Duration":106761,"SoundDuration":106761,"Delta":977760},{"NoteNumber":48,"Velocity":67,"Duration":106761,"SoundDuration":106761,"Delta":977760},{"NoteNumber":56,"Velocity":76,"Duration":119047,"SoundDuration":119047,"Delta":1084521},{"NoteNumber":44,"Velocity":70,"Duration":119047,"SoundDuration":119047,"Delta":1084521},{"NoteNumber":63,"Velocity":75,"Duration":327272,"SoundDuration":327272,"Delta":1322616},{"NoteNumber":72,"Velocity":75,"Duration":327272,"SoundDuration":327272,"Delta":1322616},{"NoteNumber":75,"Velocity":89,"Duration":327272,"SoundDuration":327272,"Delta":1322616},{"NoteNumber":44,"Velocity":61,"Duration":327272,"SoundDuration":327272,"Delta":1322616},{"NoteNumber":51,"Velocity":61,"Duration":327272,"SoundDuration":327272,"Delta":1322616},{"NoteNumber":56,"Velocity":72,"Duration":327272,"SoundDuration":327272,"Delta":1322616},{"NoteNumber":63,"Velocity":72,"Duration":103636,"SoundDuration":103636,"Delta":1649889},{"NoteNumber":72,"Velocity":72,"Duration":103636,"SoundDuration":103636,"Delta":1649889},{"NoteNumber":75,"Velocity":85,"Duration":103636,"SoundDuration":103636,"Delta":1649889},{"NoteNumber":44,"Velocity":56,"Duration":103636,"SoundDuration":103636,"Delta":1649889},{"NoteNumber":51,"Velocity":56,"Duration":103636,"SoundDuration":103636,"Delta":1649889},{"NoteNumber":56,"Velocity":67,"Duration":103636,"SoundDuration":103636,"Delta":1649889},{"NoteNumber":63,"Velocity":75,"Duration":119047,"SoundDuration":119047,"Delta":1758980},{"NoteNumber":72,"Velocity":75,"Duration":119047,"SoundDuration":119047,"Delta":1758980},{"NoteNumber":75,"Velocity":89,"Duration":119047,"SoundDuration":119047,"Delta":1758980},{"NoteNumber":44,"Velocity":62,"Duration":119047,"SoundDuration":119047,"Delta":1758980},{"NoteNumber":51,"Velocity":62,"Duration":119047,"SoundDuration":119047,"Delta":1758980},{"NoteNumber":56,"Velocity":73,"Duration":119047,"SoundDuration":119047,"Delta":1758980},{"NoteNumber":63,"Velocity":75,"Duration":327273,"SoundDuration":327273,"Delta":1997075},{"NoteNumber":72,"Velocity":75,"Duration":327273,"SoundDuration":327273,"Delta":1997075},{"NoteNumber":75,"Velocity":89,"Duration":327273,"SoundDuration":327273,"Delta":1997075},{"NoteNumber":44,"Velocity":61,"Duration":327273,"SoundDuration":327273,"Delta":1997075},{"NoteNumber":51,"Velocity":61,"Duration":327273,"SoundDuration":327273,"Delta":1997075},{"NoteNumber":56,"Velocity":72,"Duration":327273,"SoundDuration":327273,"Delta":1997075},{"NoteNumber":63,"Velocity":72,"Duration":103636,"SoundDuration":103636,"Delta":2324348},{"NoteNumber":72,"Velocity":72,"Duration":103636,"SoundDuration":103636,"Delta":2324348},{"NoteNumber":75,"Velocity":85,"Duration":103636,"SoundDuration":103636,"Delta":2324348},{"NoteNumber":44,"Velocity":56,"Duration":103636,"SoundDuration":103636,"Delta":2324348},{"NoteNumber":51,"Velocity":56,"Duration":103636,"SoundDuration":103636,"Delta":2324348},{"NoteNumber":56,"Velocity":67,"Duration":103636,"SoundDuration":103636,"Delta":2324348},{"NoteNumber":63,"Velocity":75,"Duration":118577,"SoundDuration":118577,"Delta":2433439},{"NoteNumber":72,"Velocity":75,"Duration":118577,"SoundDuration":118577,"Delta":2433439},{"NoteNumber":75,"Velocity":89,"Duration":118577,"SoundDuration":118577,"Delta":2433439},{"NoteNumber":44,"Velocity":62,"Duration":118577,"SoundDuration":118577,"Delta":2433439},{"NoteNumber":51,"Velocity":62,"Duration":118577,"SoundDuration":118577,"Delta":2433439},{"NoteNumber":56,"Velocity":73,"Duration":118577,"SoundDuration":118577,"Delta":2433439},{"NoteNumber":63,"Velocity":68,"Duration":103448,"SoundDuration":103448,"Delta":2670593},{"NoteNumber":71,"Velocity":68,"Duration":103448,"SoundDuration":103448,"Delta":2670593},{"NoteNumber":75,"Velocity":80,"Duration":103448,"SoundDuration":103448,"Delta":2670593},{"NoteNumber":44,"Velocity":62,"Duration":206896,"SoundDuration":206896,"Delta":2670593},{"NoteNumber":51,"Velocity":62,"Duration":206896,"SoundDuration":206896,"Delta":2670593},{"NoteNumber":56,"Velocity":74,"Duration":206896,"SoundDuration":206896,"Delta":2670593},{"NoteNumber":72,"Velocity":73,"Duration":103448,"SoundDuration":103448,"Delta":2774041},{"NoteNumber":68,"Velocity":73,"Duration":106761,"SoundDuration":106761,"Delta":2877490},{"NoteNumber":63,"Velocity":73,"Duration":106761,"SoundDuration":106761,"Delta":2984251},{"NoteNumber":60,"Velocity":80,"Duration":116279,"SoundDuration":116279,"Delta":3091013},{"NoteNumber":63,"Velocity":84,"Duration":104529,"SoundDuration":104529,"Delta":3323571},{"NoteNumber":68,"Velocity":74,"Duration":104529,"SoundDuration":104529,"Delta":3428100},{"NoteNumber":72,"Velocity":74,"Duration":106761,"SoundDuration":106761,"Delta":3532629},{"NoteNumber":75,"Velocity":74,"Duration":106761,"SoundDuration":106761,"Delta":3639391},{"NoteNumber":80,"Velocity":79,"Duration":118577,"SoundDuration":118577,"Delta":3746152},{"NoteNumber":81,"Velocity":77,"Duration":63291,"SoundDuration":63291,"Delta":3983306},{"NoteNumber":69,"Velocity":65,"Duration":63291,"SoundDuration":63291,"Delta":3983306},{"NoteNumber":63,"Velocity":74,"Duration":63291,"SoundDuration":63291,"Delta":3983306},{"NoteNumber":61,"Velocity":62,"Duration":63291,"SoundDuration":63291,"Delta":3983306},{"NoteNumber":55,"Velocity":62,"Duration":63291,"SoundDuration":63291,"Delta":3983306},{"NoteNumber":70,"Velocity":73,"Duration":456273,"SoundDuration":456273,"Delta":4236471},{"NoteNumber":82,"Velocity":86,"Duration":456273,"SoundDuration":456273,"Delta":4236471},{"NoteNumber":63,"Velocity":74,"Duration":456273,"SoundDuration":456273,"Delta":4236471},{"NoteNumber":61,"Velocity":62,"Duration":456273,"SoundDuration":456273,"Delta":4236471},{"NoteNumber":55,"Velocity":62,"Duration":456273,"SoundDuration":456273,"Delta":4236471},{"NoteNumber":62,"Velocity":85,"Duration":103806,"SoundDuration":103806,"Delta":4692745},{"NoteNumber":50,"Velocity":73,"Duration":103806,"SoundDuration":103806,"Delta":4692745},{"NoteNumber":63,"Velocity":70,"Duration":103806,"SoundDuration":103806,"Delta":4796551},{"NoteNumber":51,"Velocity":67,"Duration":103806,"SoundDuration":103806,"Delta":4796551},{"NoteNumber":58,"Velocity":75,"Duration":106761,"SoundDuration":106761,"Delta":4900357},{"NoteNumber":46,"Velocity":70,"Duration":106761,"SoundDuration":106761,"Delta":4900357},{"NoteNumber":55,"Velocity":70,"Duration":106761,"SoundDuration":106761,"Delta":5007119},{"NoteNumber":43,"Velocity":67,"Duration":106761,"SoundDuration":106761,"Delta":5007119},{"NoteNumber":51,"Velocity":76,"Duration":119047,"SoundDuration":119047,"Delta":5113880},{"NoteNumber":39,"Velocity":70,"Duration":119047,"SoundDuration":119047,"Delta":5113880},{"NoteNumber":63,"Velocity":75,"Duration":327272,"SoundDuration":327272,"Delta":5351976},{"NoteNumber":73,"Velocity":75,"Duration":327272,"SoundDuration":327272,"Delta":5351976},{"NoteNumber":75,"Velocity":89,"Duration":327272,"SoundDuration":327272,"Delta":5351976},{"NoteNumber":46,"Velocity":61,"Duration":327272,"SoundDuration":327272,"Delta":5351976},{"NoteNumber":51,"Velocity":61,"Duration":327272,"SoundDuration":327272,"Delta":5351976},{"NoteNumber":58,"Velocity":72,"Duration":327272,"SoundDuration":327272,"Delta":5351976},{"NoteNumber":63,"Velocity":72,"Duration":103636,"SoundDuration":103636,"Delta":5679249},{"NoteNumber":73,"Velocity":72,"Duration":103636,"SoundDuration":103636,"Delta":5679249},{"NoteNumber":75,"Velocity":85,"Duration":103636,"SoundDuration":103636,"Delta":5679249},{"NoteNumber":46,"Velocity":56,"Duration":103636,"SoundDuration":103636,"Delta":5679249},{"NoteNumber":51,"Velocity":56,"Duration":103636,"SoundDuration":103636,"Delta":5679249},{"NoteNumber":58,"Velocity":67,"Duration":103636,"SoundDuration":103636,"Delta":5679249},{"NoteNumber":63,"Velocity":75,"Duration":119047,"SoundDuration":119047,"Delta":5788340},{"NoteNumber":73,"Velocity":75,"Duration":119047,"SoundDuration":119047,"Delta":5788340},{"NoteNumber":75,"Velocity":89,"Duration":119047,"SoundDuration":119047,"Delta":5788340},{"NoteNumber":46,"Velocity":62,"Duration":119047,"SoundDuration":119047,"Delta":5788340},{"NoteNumber":51,"Velocity":62,"Duration":119047,"SoundDuration":119047,"Delta":5788340},{"NoteNumber":58,"Velocity":73,"Duration":119047,"SoundDuration":119047,"Delta":5788340},{"NoteNumber":63,"Velocity":75,"Duration":327272,"SoundDuration":327272,"Delta":6026435},{"NoteNumber":73,"Velocity":75,"Duration":327272,"SoundDuration":327272,"Delta":6026435},{"NoteNumber":75,"Velocity":89,"Duration":327272,"SoundDuration":327272,"Delta":6026435},{"NoteNumber":46,"Velocity":61,"Duration":327272,"SoundDuration":327272,"Delta":6026435},{"NoteNumber":51,"Velocity":61,"Duration":327272,"SoundDuration":327272,"Delta":6026435},{"NoteNumber":58,"Velocity":72,"Duration":327272,"SoundDuration":327272,"Delta":6026435},{"NoteNumber":63,"Velocity":72,"Duration":103636,"SoundDuration":103636,"Delta":6353708},{"NoteNumber":73,"Velocity":72,"Duration":103636,"SoundDuration":103636,"Delta":6353708},{"NoteNumber":75,"Velocity":85,"Duration":103636,"SoundDuration":103636,"Delta":6353708},{"NoteNumber":46,"Velocity":56,"Duration":103636,"SoundDuration":103636,"Delta":6353708},{"NoteNumber":51,"Velocity":56,"Duration":103636,"SoundDuration":103636,"Delta":6353708},{"NoteNumber":58,"Velocity":67,"Duration":103636,"SoundDuration":103636,"Delta":6353708},{"NoteNumber":63,"Velocity":75,"Duration":118577,"SoundDuration":118577,"Delta":6462799},{"NoteNumber":73,"Velocity":75,"Duration":118577,"SoundDuration":118577,"Delta":6462799},{"NoteNumber":75,"Velocity":89,"Duration":118577,"SoundDuration":118577,"Delta":6462799},{"NoteNumber":46,"Velocity":62,"Duration":118577,"SoundDuration":118577,"Delta":6462799},{"NoteNumber":51,"Velocity":62,"Duration":118577,"SoundDuration":118577,"Delta":6462799},{"NoteNumber":58,"Velocity":73,"Duration":118577,"SoundDuration":118577,"Delta":6462799},{"NoteNumber":63,"Velocity":68,"Duration":103448,"SoundDuration":103448,"Delta":6699953},{"NoteNumber":72,"Velocity":68,"Duration":103448,"SoundDuration":103448,"Delta":6699953},{"NoteNumber":75,"Velocity":80,"Duration":103448,"SoundDuration":103448,"Delta":6699953},{"NoteNumber":46,"Velocity":62,"Duration":206896,"SoundDuration":206896,"Delta":6699953},{"NoteNumber":51,"Velocity":62,"Duration":206896,"SoundDuration":206896,"Delta":6699953},{"NoteNumber":58,"Velocity":74,"Duration":206896,"SoundDuration":206896,"Delta":6699953},{"NoteNumber":73,"Velocity":73,"Duration":103448,"SoundDuration":103448,"Delta":6803401},{"NoteNumber":70,"Velocity":73,"Duration":106761,"SoundDuration":106761,"Delta":6906849},{"NoteNumber":67,"Velocity":73,"Duration":106761,"SoundDuration":106761,"Delta":7013611},{"NoteNumber":63,"Velocity":80,"Duration":116278,"SoundDuration":116278,"Delta":7120372},{"NoteNumber":67,"Velocity":84,"Duration":104529,"SoundDuration":104529,"Delta":7352930},{"NoteNumber":70,"Velocity":74,"Duration":104529,"SoundDuration":104529,"Delta":7457460},{"NoteNumber":73,"Velocity":74,"Duration":106761,"SoundDuration":106761,"Delta":7561989},{"NoteNumber":75,"Velocity":74,"Duration":106761,"SoundDuration":106761,"Delta":7668751},{"NoteNumber":79,"Velocity":79,"Duration":118577,"SoundDuration":118577,"Delta":7775512},{"NoteNumber":83,"Velocity":77,"Duration":63291,"SoundDuration":63291,"Delta":8012666},{"NoteNumber":71,"Velocity":65,"Duration":63291,"SoundDuration":63291,"Delta":8012666},{"NoteNumber":67,"Velocity":74,"Duration":63291,"SoundDuration":63291,"Delta":8012666},{"NoteNumber":63,"Velocity":62,"Duration":63291,"SoundDuration":63291,"Delta":8012666},{"NoteNumber":56,"Velocity":62,"Duration":63291,"SoundDuration":63291,"Delta":8012666},{"NoteNumber":72,"Velocity":73,"Duration":456274,"SoundDuration":456274,"Delta":8265831},{"NoteNumber":84,"Velocity":86,"Duration":456274,"SoundDuration":456274,"Delta":8265831},{"NoteNumber":68,"Velocity":74,"Duration":456274,"SoundDuration":456274,"Delta":8265831},{"NoteNumber":63,"Velocity":62,"Duration":456274,"SoundDuration":456274,"Delta":8265831},{"NoteNumber":56,"Velocity":62,"Duration":456274,"SoundDuration":456274,"Delta":8265831},{"NoteNumber":67,"Velocity":85,"Duration":103806,"SoundDuration":103806,"Delta":8722105},{"NoteNumber":55,"Velocity":73,"Duration":103806,"SoundDuration":103806,"Delta":8722105},{"NoteNumber":68,"Velocity":70,"Duration":103806,"SoundDuration":103806,"Delta":8825911},{"NoteNumber":56,"Velocity":67,"Duration":103806,"SoundDuration":103806,"Delta":8825911},{"NoteNumber":63,"Velocity":75,"Duration":106761,"SoundDuration":106761,"Delta":8929717},{"NoteNumber":51,"Velocity":70,"Duration":106761,"SoundDuration":106761,"Delta":8929717},{"NoteNumber":60,"Velocity":70,"Duration":106761,"SoundDuration":106761,"Delta":9036479},{"NoteNumber":48,"Velocity":67,"Duration":106761,"SoundDuration":106761,"Delta":9036479},{"NoteNumber":56,"Velocity":76,"Duration":119047,"SoundDuration":119047,"Delta":9143240},{"NoteNumber":44,"Velocity":70,"Duration":119047,"SoundDuration":119047,"Delta":9143240},{"NoteNumber":66,"Velocity":75,"Duration":327272,"SoundDuration":327272,"Delta":9381335},{"NoteNumber":68,"Velocity":75,"Duration":327272,"SoundDuration":327272,"Delta":9381335},{"NoteNumber":75,"Velocity":75,"Duration":327272,"SoundDuration":327272,"Delta":9381335},{"NoteNumber":78,"Velocity":89,"Duration":327272,"SoundDuration":327272,"Delta":9381335},{"NoteNumber":44,"Velocity":73,"Duration":109090,"SoundDuration":109090,"Delta":9381335},{"NoteNumber":45,"Velocity":71,"Duration":109091,"SoundDuration":109091,"Delta":9490426},{"NoteNumber":46,"Velocity":75,"Duration":109090,"SoundDuration":109090,"Delta":9599517},{"NoteNumber":66,"Velocity":72,"Duration":103636,"SoundDuration":103636,"Delta":9708608},{"NoteNumber":68,"Velocity":72,"Duration":103636,"SoundDuration":103636,"Delta":9708608},{"NoteNumber":75,"Velocity":72,"Duration":103636,"SoundDuration":103636,"Delta":9708608},{"NoteNumber":78,"Velocity":85,"Duration":103636,"SoundDuration":103636,"Delta":9708608},{"NoteNumber":47,"Velocity":79,"Duration":109090,"SoundDuration":109090,"Delta":9708608},{"NoteNumber":66,"Velocity":75,"Duration":119047,"SoundDuration":119047,"Delta":9817699},{"NoteNumber":68,"Velocity":75,"Duration":119047,"SoundDuration":119047,"Delta":9817699},{"NoteNumber":75,"Velocity":75,"Duration":119047,"SoundDuration":119047,"Delta":9817699},{"NoteNumber":78,"Velocity":89,"Duration":119047,"SoundDuration":119047,"Delta":9817699},{"NoteNumber":48,"Velocity":83,"Duration":119047,"SoundDuration":119047,"Delta":9817699},{"NoteNumber":76,"Velocity":85,"Duration":103806,"SoundDuration":103806,"Delta":10055794},{"NoteNumber":49,"Velocity":73,"Duration":103806,"SoundDuration":103806,"Delta":10055794},{"NoteNumber":77,"Velocity":70,"Duration":103806,"SoundDuration":103806,"Delta":10159600},{"NoteNumber":61,"Velocity":67,"Duration":103806,"SoundDuration":103806,"Delta":10159600},{"NoteNumber":73,"Velocity":75,"Duration":106761,"SoundDuration":106761,"Delta":10263407},{"NoteNumber":56,"Velocity":70,"Duration":106761,"SoundDuration":106761,"Delta":10263407},{"NoteNumber":68,"Velocity":70,"Duration":106761,"SoundDuration":106761,"Delta":10370168},{"NoteNumber":53,"Velocity":67,"Duration":106761,"SoundDuration":106761,"Delta":10370168},{"NoteNumber":65,"Velocity":76,"Duration":119047,"SoundDuration":119047,"Delta":10476930},{"NoteNumber":49,"Velocity":70,"Duration":119047,"SoundDuration":119047,"Delta":10476930},{"NoteNumber":63,"Velocity":75,"Duration":327272,"SoundDuration":327272,"Delta":10715025},{"NoteNumber":65,"Velocity":75,"Duration":327272,"SoundDuration":327272,"Delta":10715025},{"NoteNumber":72,"Velocity":75,"Duration":327272,"SoundDuration":327272,"Delta":10715025},{"NoteNumber":75,"Velocity":89,"Duration":327272,"SoundDuration":327272,"Delta":10715025},{"NoteNumber":41,"Velocity":73,"Duration":109090,"SoundDuration":109090,"Delta":10715025},{"NoteNumber":42,"Velocity":71,"Duration":109091,"SoundDuration":109091,"Delta":10824116},{"NoteNumber":43,"Velocity":74,"Duration":109090,"SoundDuration":109090,"Delta":10933207},{"NoteNumber":63,"Velocity":72,"Duration":103636,"SoundDuration":103636,"Delta":11042298},{"NoteNumber":65,"Velocity":72,"Duration":103636,"SoundDuration":103636,"Delta":11042298},{"NoteNumber":72,"Velocity":72,"Duration":103636,"SoundDuration":103636,"Delta":11042298},{"NoteNumber":75,"Velocity":85,"Duration":103636,"SoundDuration":103636,"Delta":11042298},{"NoteNumber":44,"Velocity":77,"Duration":109090,"SoundDuration":109090,"Delta":11042298},{"NoteNumber":63,"Velocity":75,"Duration":119047,"SoundDuration":119047,"Delta":11151389},{"NoteNumber":65,"Velocity":75,"Duration":119047,"SoundDuration":119047,"Delta":11151389},{"NoteNumber":72,"Velocity":75,"Duration":119047,"SoundDuration":119047,"Delta":11151389},{"NoteNumber":75,"Velocity":89,"Duration":119047,"SoundDuration":119047,"Delta":11151389},{"NoteNumber":45,"Velocity":80,"Duration":119047,"SoundDuration":119047,"Delta":11151389},{"NoteNumber":72,"Velocity":85,"Duration":103806,"SoundDuration":103806,"Delta":11389484},{"NoteNumber":46,"Velocity":73,"Duration":103806,"SoundDuration":103806,"Delta":11389484},{"NoteNumber":73,"Velocity":70,"Duration":103806,"SoundDuration":103806,"Delta":11493290},{"NoteNumber":58,"Velocity":67,"Duration":103806,"SoundDuration":103806,"Delta":11493290},{"NoteNumber":70,"Velocity":75,"Duration":106761,"SoundDuration":106761,"Delta":11597096},{"NoteNumber":53,"Velocity":70,"Duration":106761,"SoundDuration":106761,"Delta":11597096},{"NoteNumber":65,"Velocity":70,"Duration":106761,"SoundDuration":106761,"Delta":11703857},{"NoteNumber":49,"Velocity":67,"Duration":106761,"SoundDuration":106761,"Delta":11703857},{"NoteNumber":61,"Velocity":76,"Duration":126050,"SoundDuration":126050,"Delta":11810619},{"NoteNumber":46,"Velocity":70,"Duration":126050,"SoundDuration":126050,"Delta":11810619},{"NoteNumber":84,"Velocity":59,"Duration":103806,"SoundDuration":103806,"Delta":12062720},{"NoteNumber":43,"Velocity":37,"Duration":421135,"SoundDuration":421135,"Delta":12062720},{"NoteNumber":55,"Velocity":45,"Duration":421135,"SoundDuration":421135,"Delta":12062720},{"NoteNumber":85,"Velocity":49,"Duration":103806,"SoundDuration":103806,"Delta":12166526},{"NoteNumber":82,"Velocity":52,"Duration":106761,"SoundDuration":106761,"Delta":12270332},{"NoteNumber":79,"Velocity":49,"Duration":106761,"SoundDuration":106761,"Delta":12377094},{"NoteNumber":73,"Velocity":53,"Duration":119047,"SoundDuration":119047,"Delta":12483856},{"NoteNumber":64,"Velocity":37,"Duration":119047,"SoundDuration":119047,"Delta":12483856},{"NoteNumber":61,"Velocity":31,"Duration":119047,"SoundDuration":119047,"Delta":12483856},{"NoteNumber":58,"Velocity":31,"Duration":119047,"SoundDuration":119047,"Delta":12483856},{"NoteNumber":55,"Velocity":31,"Duration":119047,"SoundDuration":119047,"Delta":12483856},{"NoteNumber":83,"Velocity":59,"Duration":103806,"SoundDuration":103806,"Delta":12721950},{"NoteNumber":44,"Velocity":37,"Duration":421135,"SoundDuration":421135,"Delta":12721950},{"NoteNumber":56,"Velocity":45,"Duration":421135,"SoundDuration":421135,"Delta":12721950},{"NoteNumber":84,"Velocity":49,"Duration":103806,"SoundDuration":103806,"Delta":12825757},{"NoteNumber":80,"Velocity":52,"Duration":106761,"SoundDuration":106761,"Delta":12929563},{"NoteNumber":75,"Velocity":49,"Duration":106761,"SoundDuration":106761,"Delta":13036324},{"NoteNumber":72,"Velocity":53,"Duration":119047,"SoundDuration":119047,"Delta":13143086},{"NoteNumber":63,"Velocity":37,"Duration":119047,"SoundDuration":119047,"Delta":13143086},{"NoteNumber":60,"Velocity":31,"Duration":119047,"SoundDuration":119047,"Delta":13143086},{"NoteNumber":56,"Velocity":31,"Duration":119047,"SoundDuration":119047,"Delta":13143086},{"NoteNumber":75,"Velocity":64,"Duration":103806,"SoundDuration":103806,"Delta":13381181},{"NoteNumber":34,"Velocity":41,"Duration":421135,"SoundDuration":421135,"Delta":13381181},{"NoteNumber":46,"Velocity":49,"Duration":421135,"SoundDuration":421135,"Delta":13381181},{"NoteNumber":76,"Velocity":53,"Duration":103806,"SoundDuration":103806,"Delta":13484987},{"NoteNumber":73,"Velocity":57,"Duration":106761,"SoundDuration":106761,"Delta":13588793},{"NoteNumber":70,"Velocity":53,"Duration":106761,"SoundDuration":106761,"Delta":13695555},{"NoteNumber":64,"Velocity":58,"Duration":119047,"SoundDuration":119047,"Delta":13802316},{"NoteNumber":55,"Velocity":41,"Duration":119047,"SoundDuration":119047,"Delta":13802316},{"NoteNumber":49,"Velocity":34,"Duration":119047,"SoundDuration":119047,"Delta":13802316},{"NoteNumber":46,"Velocity":34,"Duration":119047,"SoundDuration":119047,"Delta":13802316},{"NoteNumber":74,"Velocity":70,"Duration":103806,"SoundDuration":103806,"Delta":14040411},{"NoteNumber":35,"Velocity":45,"Duration":421135,"SoundDuration":421135,"Delta":14040411},{"NoteNumber":47,"Velocity":54,"Duration":421135,"SoundDuration":421135,"Delta":14040411},{"NoteNumber":75,"Velocity":58,"Duration":103806,"SoundDuration":103806,"Delta":14144218},{"NoteNumber":71,"Velocity":62,"Duration":106761,"SoundDuration":106761,"Delta":14248024},{"NoteNumber":68,"Velocity":58,"Duration":106761,"SoundDuration":106761,"Delta":14354785},{"NoteNumber":63,"Velocity":63,"Duration":119047,"SoundDuration":119047,"Delta":14461547},{"NoteNumber":56,"Velocity":45,"Duration":119047,"SoundDuration":119047,"Delta":14461547},{"NoteNumber":51,"Velocity":37,"Duration":119047,"SoundDuration":119047,"Delta":14461547},{"NoteNumber":47,"Velocity":37,"Duration":119047,"SoundDuration":119047,"Delta":14461547},{"NoteNumber":68,"Velocity":47,"Duration":110701,"SoundDuration":110701,"Delta":14699642},{"NoteNumber":75,"Velocity":56,"Duration":110701,"SoundDuration":110701,"Delta":14699642},{"NoteNumber":40,"Velocity":32,"Duration":110701,"SoundDuration":110701,"Delta":14699642},{"NoteNumber":80,"Velocity":58,"Duration":110293,"SoundDuration":110293,"Delta":14810343},{"NoteNumber":52,"Velocity":38,"Duration":110293,"SoundDuration":110293,"Delta":14810343},{"NoteNumber":68,"Velocity":50,"Duration":109823,"SoundDuration":109823,"Delta":14920637},{"NoteNumber":75,"Velocity":59,"Duration":109823,"SoundDuration":109823,"Delta":14920637},{"NoteNumber":40,"Velocity":40,"Duration":109823,"SoundDuration":109823,"Delta":14920637},{"NoteNumber":80,"Velocity":61,"Duration":109422,"SoundDuration":109422,"Delta":15030460},{"NoteNumber":52,"Velocity":41,"Duration":109422,"SoundDuration":109422,"Delta":15030460},{"NoteNumber":68,"Velocity":53,"Duration":108959,"SoundDuration":108959,"Delta":15139883},{"NoteNumber":75,"Velocity":63,"Duration":108959,"SoundDuration":108959,"Delta":15139883},{"NoteNumber":40,"Velocity":43,"Duration":108959,"SoundDuration":108959,"Delta":15139883},{"NoteNumber":80,"Velocity":65,"Duration":108564,"SoundDuration":108564,"Delta":15248842},{"NoteNumber":52,"Velocity":45,"Duration":108564,"SoundDuration":108564,"Delta":15248842},{"NoteNumber":68,"Velocity":56,"Duration":108108,"SoundDuration":108108,"Delta":15357407},{"NoteNumber":75,"Velocity":67,"Duration":108108,"SoundDuration":108108,"Delta":15357407},{"NoteNumber":40,"Velocity":47,"Duration":108108,"SoundDuration":108108,"Delta":15357407},{"NoteNumber":80,"Velocity":68,"Duration":107720,"SoundDuration":107720,"Delta":15465516},{"NoteNumber":52,"Velocity":48,"Duration":107720,"SoundDuration":107720,"Delta":15465516},{"NoteNumber":68,"Velocity":59,"Duration":107270,"SoundDuration":107270,"Delta":15573236},{"NoteNumber":75,"Velocity":70,"Duration":107270,"SoundDuration":107270,"Delta":15573236},{"NoteNumber":40,"Velocity":50,"Duration":107270,"SoundDuration":107270,"Delta":15573236},{"NoteNumber":80,"Velocity":72,"Duration":106888,"SoundDuration":106888,"Delta":15680507},{"NoteNumber":52,"Velocity":52,"Duration":106888,"SoundDuration":106888,"Delta":15680507},{"NoteNumber":68,"Velocity":62,"Duration":106446,"SoundDuration":106446,"Delta":15787395},{"NoteNumber":75,"Velocity":74,"Duration":106446,"SoundDuration":106446,"Delta":15787395},{"NoteNumber":40,"Velocity":54,"Duration":106446,"SoundDuration":106446,"Delta":15787395},{"NoteNumber":80,"Velocity":76,"Duration":105945,"SoundDuration":105945,"Delta":15893841},{"NoteNumber":52,"Velocity":55,"Duration":105945,"SoundDuration":105945,"Delta":15893841},{"NoteNumber":68,"Velocity":65,"Duration":105140,"SoundDuration":105140,"Delta":15999787},{"NoteNumber":74,"Velocity":77,"Duration":105140,"SoundDuration":105140,"Delta":15999787},{"NoteNumber":41,"Velocity":57,"Duration":105140,"SoundDuration":105140,"Delta":15999787},{"NoteNumber":80,"Velocity":79,"Duration":104651,"SoundDuration":104651,"Delta":16104928},{"NoteNumber":42,"Velocity":59,"Duration":104651,"SoundDuration":104651,"Delta":16104928},{"NoteNumber":68,"Velocity":68,"Duration":104046,"SoundDuration":104046,"Delta":16209579},{"NoteNumber":74,"Velocity":81,"Duration":104046,"SoundDuration":104046,"Delta":16209579},{"NoteNumber":43,"Velocity":61,"Duration":104046,"SoundDuration":104046,"Delta":16209579},{"NoteNumber":80,"Velocity":83,"Duration":103627,"SoundDuration":103627,"Delta":16313625},{"NoteNumber":44,"Velocity":62,"Duration":103627,"SoundDuration":103627,"Delta":16313625},{"NoteNumber":68,"Velocity":72,"Duration":103093,"SoundDuration":103093,"Delta":16417253},{"NoteNumber":74,"Velocity":85,"Duration":103093,"SoundDuration":103093,"Delta":16417253},{"NoteNumber":45,"Velocity":64,"Duration":103093,"SoundDuration":103093,"Delta":16417253},{"NoteNumber":80,"Velocity":86,"Duration":102564,"SoundDuration":102564,"Delta":16520346},{"NoteNumber":46,"Velocity":66,"Duration":102564,"SoundDuration":102564,"Delta":16520346},{"NoteNumber":68,"Velocity":74,"Duration":102388,"SoundDuration":102388,"Delta":16622910},{"NoteNumber":74,"Velocity":88,"Duration":102388,"SoundDuration":102388,"Delta":16622910},{"NoteNumber":47,"Velocity":68,"Duration":102388,"SoundDuration":102388,"Delta":16622910},{"NoteNumber":80,"Velocity":90,"Duration":102388,"SoundDuration":102388,"Delta":16725299},{"NoteNumber":48,"Velocity":70,"Duration":102388,"SoundDuration":102388,"Delta":16725299},{"NoteNumber":68,"Velocity":78,"Duration":102389,"SoundDuration":102389,"Delta":16827688},{"NoteNumber":74,"Velocity":92,"Duration":102389,"SoundDuration":102389,"Delta":16827688},{"NoteNumber":49,"Velocity":71,"Duration":102389,"SoundDuration":102389,"Delta":16827688},{"NoteNumber":80,"Velocity":94,"Duration":102388,"SoundDuration":102388,"Delta":16930077},{"NoteNumber":50,"Velocity":73,"Duration":102388,"SoundDuration":102388,"Delta":16930077},{"NoteNumber":68,"Velocity":80,"Duration":102388,"SoundDuration":102388,"Delta":17032466},{"NoteNumber":74,"Velocity":95,"Duration":102388,"SoundDuration":102388,"Delta":17032466},{"NoteNumber":51,"Velocity":75,"Duration":102388,"SoundDuration":102388,"Delta":17032466},{"NoteNumber":80,"Velocity":97,"Duration":102389,"SoundDuration":102389,"Delta":17134855},{"NoteNumber":52,"Velocity":77,"Duration":102389,"SoundDuration":102389,"Delta":17134855},{"NoteNumber":68,"Velocity":90,"Duration":222221,"SoundDuration":222221,"Delta":17237244},{"NoteNumber":74,"Velocity":90,"Duration":222221,"SoundDuration":222221,"Delta":17237244},{"NoteNumber":80,"Velocity":106,"Duration":222221,"SoundDuration":222221,"Delta":17237244},{"NoteNumber":52,"Velocity":72,"Duration":222221,"SoundDuration":222221,"Delta":17237244},{"NoteNumber":64,"Velocity":85,"Duration":222221,"SoundDuration":222221,"Delta":17237244},{"NoteNumber":70,"Velocity":80,"Duration":106007,"SoundDuration":106007,"Delta":17459466},{"NoteNumber":74,"Velocity":80,"Duration":106007,"SoundDuration":106007,"Delta":17459466},{"NoteNumber":80,"Velocity":80,"Duration":106007,"SoundDuration":106007,"Delta":17459466},{"NoteNumber":82,"Velocity":95,"Duration":106007,"SoundDuration":106007,"Delta":17459466},{"NoteNumber":52,"Velocity":65,"Duration":106007,"SoundDuration":106007,"Delta":17459466},{"NoteNumber":64,"Velocity":77,"Duration":106007,"SoundDuration":106007,"Delta":17459466},{"NoteNumber":70,"Velocity":80,"Duration":108695,"SoundDuration":108695,"Delta":17671480},{"NoteNumber":74,"Velocity":80,"Duration":108695,"SoundDuration":108695,"Delta":17671480},{"NoteNumber":80,"Velocity":80,"Duration":108695,"SoundDuration":108695,"Delta":17671480},{"NoteNumber":82,"Velocity":95,"Duration":108695,"SoundDuration":108695,"Delta":17671480},{"NoteNumber":52,"Velocity":65,"Duration":108695,"SoundDuration":108695,"Delta":17671480},{"NoteNumber":64,"Velocity":77,"Duration":108695,"SoundDuration":108695,"Delta":17671480},{"NoteNumber":70,"Velocity":85,"Duration":108695,"SoundDuration":108695,"Delta":17888872},{"NoteNumber":74,"Velocity":85,"Duration":108695,"SoundDuration":108695,"Delta":17888872},{"NoteNumber":80,"Velocity":85,"Duration":108695,"SoundDuration":108695,"Delta":17888872},{"NoteNumber":82,"Velocity":100,"Duration":108695,"SoundDuration":108695,"Delta":17888872},{"NoteNumber":52,"Velocity":72,"Duration":108695,"SoundDuration":108695,"Delta":17888872},{"NoteNumber":64,"Velocity":85,"Duration":108695,"SoundDuration":108695,"Delta":17888872},{"NoteNumber":70,"Velocity":76,"Duration":105633,"SoundDuration":105633,"Delta":18106263},{"NoteNumber":74,"Velocity":76,"Duration":105633,"SoundDuration":105633,"Delta":18106263},{"NoteNumber":80,"Velocity":76,"Duration":105633,"SoundDuration":105633,"Delta":18106263},{"NoteNumber":82,"Velocity":90,"Duration":105633,"SoundDuration":105633,"Delta":18106263},{"NoteNumber":52,"Velocity":65,"Duration":105633,"SoundDuration":105633,"Delta":18106263},{"NoteNumber":64,"Velocity":77,"Duration":105633,"SoundDuration":105633,"Delta":18106263},{"NoteNumber":70,"Velocity":76,"Duration":108303,"SoundDuration":108303,"Delta":18317531},{"NoteNumber":74,"Velocity":76,"Duration":108303,"SoundDuration":108303,"Delta":18317531},{"NoteNumber":80,"Velocity":76,"Duration":108303,"SoundDuration":108303,"Delta":18317531},{"NoteNumber":82,"Velocity":90,"Duration":108303,"SoundDuration":108303,"Delta":18317531},{"NoteNumber":52,"Velocity":65,"Duration":108303,"SoundDuration":108303,"Delta":18317531},{"NoteNumber":64,"Velocity":77,"Duration":108303,"SoundDuration":108303,"Delta":18317531},{"NoteNumber":70,"Velocity":80,"Duration":236220,"SoundDuration":236220,"Delta":18534137},{"NoteNumber":75,"Velocity":80,"Duration":236220,"SoundDuration":236220,"Delta":18534137},{"NoteNumber":79,"Velocity":80,"Duration":236220,"SoundDuration":236220,"Delta":18534137},{"NoteNumber":82,"Velocity":95,"Duration":236220,"SoundDuration":236220,"Delta":18534137},{"NoteNumber":51,"Velocity":73,"Duration":236220,"SoundDuration":236220,"Delta":18534137},{"NoteNumber":63,"Velocity":87,"Duration":236220,"SoundDuration":236220,"Delta":18534137},{"NoteNumber":87,"Velocity":95,"Duration":111524,"SoundDuration":111524,"Delta":18770358},{"NoteNumber":82,"Velocity":80,"Duration":111524,"SoundDuration":111524,"Delta":18770358},{"NoteNumber":79,"Velocity":80,"Duration":111524,"SoundDuration":111524,"Delta":18770358},{"NoteNumber":75,"Velocity":80,"Duration":111524,"SoundDuration":111524,"Delta":18770358},{"NoteNumber":39,"Velocity":65,"Duration":111524,"SoundDuration":111524,"Delta":18770358},{"NoteNumber":51,"Velocity":77,"Duration":111524,"SoundDuration":111524,"Delta":18770358},{"NoteNumber":63,"Velocity":70,"Duration":123456,"SoundDuration":123456,"Delta":19216455},{"NoteNumber":67,"Velocity":70,"Duration":123456,"SoundDuration":123456,"Delta":19216455},{"NoteNumber":70,"Velocity":83,"Duration":123456,"SoundDuration":123456,"Delta":19216455},{"NoteNumber":39,"Velocity":57,"Duration":123456,"SoundDuration":123456,"Delta":19216455},{"NoteNumber":51,"Velocity":68,"Duration":123456,"SoundDuration":123456,"Delta":19216455},{"NoteNumber":63,"Velocity":64,"Duration":110293,"SoundDuration":110293,"Delta":19463368},{"NoteNumber":67,"Velocity":64,"Duration":110293,"SoundDuration":110293,"Delta":19463368},{"NoteNumber":70,"Velocity":64,"Duration":110293,"SoundDuration":110293,"Delta":19463368},{"NoteNumber":75,"Velocity":76,"Duration":110293,"SoundDuration":110293,"Delta":19463368},{"NoteNumber":27,"Velocity":52,"Duration":110293,"SoundDuration":110293,"Delta":19463368},{"NoteNumber":39,"Velocity":61,"Duration":110293,"SoundDuration":110293,"Delta":19463368},{"NoteNumber":63,"Velocity":45,"Duration":327273,"SoundDuration":327273,"Delta":20017290},{"NoteNumber":72,"Velocity":45,"Duration":327273,"SoundDuration":327273,"Delta":20017290},{"NoteNumber":75,"Velocity":53,"Duration":327273,"SoundDuration":327273,"Delta":20017290},{"NoteNumber":44,"Velocity":36,"Duration":327273,"SoundDuration":327273,"Delta":20017290},{"NoteNumber":51,"Velocity":36,"Duration":327273,"SoundDuration":327273,"Delta":20017290},{"NoteNumber":56,"Velocity":43,"Duration":327273,"SoundDuration":327273,"Delta":20017290},{"NoteNumber":63,"Velocity":43,"Duration":103636,"SoundDuration":103636,"Delta":20344563},{"NoteNumber":72,"Velocity":43,"Duration":103636,"SoundDuration":103636,"Delta":20344563},{"NoteNumber":75,"Velocity":51,"Duration":103636,"SoundDuration":103636,"Delta":20344563},{"NoteNumber":44,"Velocity":33,"Duration":103636,"SoundDuration":103636,"Delta":20344563},{"NoteNumber":51,"Velocity":33,"Duration":103636,"SoundDuration":103636,"Delta":20344563},{"NoteNumber":56,"Velocity":40,"Duration":103636,"SoundDuration":103636,"Delta":20344563},{"NoteNumber":63,"Velocity":45,"Duration":119047,"SoundDuration":119047,"Delta":20453654},{"NoteNumber":72,"Velocity":45,"Duration":119047,"SoundDuration":119047,"Delta":20453654},{"NoteNumber":75,"Velocity":53,"Duration":119047,"SoundDuration":119047,"Delta":20453654},{"NoteNumber":44,"Velocity":37,"Duration":119047,"SoundDuration":119047,"Delta":20453654},{"NoteNumber":51,"Velocity":37,"Duration":119047,"SoundDuration":119047,"Delta":20453654},{"NoteNumber":56,"Velocity":43,"Duration":119047,"SoundDuration":119047,"Delta":20453654},{"NoteNumber":63,"Velocity":45,"Duration":327273,"SoundDuration":327273,"Delta":20691749},{"NoteNumber":72,"Velocity":45,"Duration":327273,"SoundDuration":327273,"Delta":20691749},{"NoteNumber":75,"Velocity":53,"Duration":327273,"SoundDuration":327273,"Delta":20691749},{"NoteNumber":44,"Velocity":36,"Duration":327273,"SoundDuration":327273,"Delta":20691749},{"NoteNumber":51,"Velocity":36,"Duration":327273,"SoundDuration":327273,"Delta":20691749},{"NoteNumber":56,"Velocity":43,"Duration":327273,"SoundDuration":327273,"Delta":20691749},{"NoteNumber":63,"Velocity":43,"Duration":103636,"SoundDuration":103636,"Delta":21019022},{"NoteNumber":72,"Velocity":43,"Duration":103636,"SoundDuration":103636,"Delta":21019022},{"NoteNumber":75,"Velocity":51,"Duration":103636,"SoundDuration":103636,"Delta":21019022},{"NoteNumber":44,"Velocity":33,"Duration":103636,"SoundDuration":103636,"Delta":21019022},{"NoteNumber":51,"Velocity":33,"Duration":103636,"SoundDuration":103636,"Delta":21019022},{"NoteNumber":56,"Velocity":40,"Duration":103636,"SoundDuration":103636,"Delta":21019022},{"NoteNumber":63,"Velocity":45,"Duration":118576,"SoundDuration":118576,"Delta":21128113},{"NoteNumber":72,"Velocity":45,"Duration":118576,"SoundDuration":118576,"Delta":21128113},{"NoteNumber":75,"Velocity":53,"Duration":118576,"SoundDuration":118576,"Delta":21128113},{"NoteNumber":44,"Velocity":37,"Duration":118576,"SoundDuration":118576,"Delta":21128113},{"NoteNumber":51,"Velocity":37,"Duration":118576,"SoundDuration":118576,"Delta":21128113},{"NoteNumber":56,"Velocity":43,"Duration":118576,"SoundDuration":118576,"Delta":21128113},{"NoteNumber":63,"Velocity":40,"Duration":103448,"SoundDuration":103448,"Delta":21365267},{"NoteNumber":71,"Velocity":40,"Duration":103448,"SoundDuration":103448,"Delta":21365267},{"NoteNumber":75,"Velocity":48,"Duration":103448,"SoundDuration":103448,"Delta":21365267},{"NoteNumber":44,"Velocity":37,"Duration":206896,"SoundDuration":206896,"Delta":21365267},{"NoteNumber":51,"Velocity":37,"Duration":206896,"SoundDuration":206896,"Delta":21365267},{"NoteNumber":56,"Velocity":44,"Duration":206896,"SoundDuration":206896,"Delta":21365267},{"NoteNumber":72,"Velocity":43,"Duration":103448,"SoundDuration":103448,"Delta":21468715},{"NoteNumber":68,"Velocity":43,"Duration":106761,"SoundDuration":106761,"Delta":21572163},{"NoteNumber":63,"Velocity":43,"Duration":106761,"SoundDuration":106761,"Delta":21678925},{"NoteNumber":60,"Velocity":48,"Duration":116278,"SoundDuration":116278,"Delta":21785686},{"NoteNumber":63,"Velocity":50,"Duration":104529,"SoundDuration":104529,"Delta":22018244},{"NoteNumber":68,"Velocity":44,"Duration":104529,"SoundDuration":104529,"Delta":22122774},{"NoteNumber":72,"Velocity":44,"Duration":106761,"SoundDuration":106761,"Delta":22227303},{"NoteNumber":75,"Velocity":44,"Duration":106761,"SoundDuration":106761,"Delta":22334065},{"NoteNumber":80,"Velocity":47,"Duration":118576,"SoundDuration":118576,"Delta":22440826},{"NoteNumber":81,"Velocity":46,"Duration":63291,"SoundDuration":63291,"Delta":22677980},{"NoteNumber":69,"Velocity":39,"Duration":63291,"SoundDuration":63291,"Delta":22677980},{"NoteNumber":63,"Velocity":44,"Duration":63291,"SoundDuration":63291,"Delta":22677980},{"NoteNumber":61,"Velocity":37,"Duration":63291,"SoundDuration":63291,"Delta":22677980},{"NoteNumber":55,"Velocity":37,"Duration":63291,"SoundDuration":63291,"Delta":22677980},{"NoteNumber":70,"Velocity":43,"Duration":456274,"SoundDuration":456274,"Delta":22931145},{"NoteNumber":82,"Velocity":51,"Duration":456274,"SoundDuration":456274,"Delta":22931145},{"NoteNumber":63,"Velocity":44,"Duration":456274,"SoundDuration":456274,"Delta":22931145},{"NoteNumber":61,"Velocity":37,"Duration":456274,"SoundDuration":456274,"Delta":22931145},{"NoteNumber":55,"Velocity":37,"Duration":456274,"SoundDuration":456274,"Delta":22931145},{"NoteNumber":62,"Velocity":51,"Duration":103806,"SoundDuration":103806,"Delta":23387419},{"NoteNumber":50,"Velocity":43,"Duration":103806,"SoundDuration":103806,"Delta":23387419},{"NoteNumber":63,"Velocity":42,"Duration":103806,"SoundDuration":103806,"Delta":23491225},{"NoteNumber":51,"Velocity":40,"Duration":103806,"SoundDuration":103806,"Delta":23491225},{"NoteNumber":58,"Velocity":45,"Duration":106761,"SoundDuration":106761,"Delta":23595031},{"NoteNumber":46,"Velocity":42,"Duration":106761,"SoundDuration":106761,"Delta":23595031},{"NoteNumber":55,"Velocity":42,"Duration":106761,"SoundDuration":106761,"Delta":23701793},{"NoteNumber":43,"Velocity":40,"Duration":106761,"SoundDuration":106761,"Delta":23701793},{"NoteNumber":51,"Velocity":45,"Duration":119047,"SoundDuration":119047,"Delta":23808554},{"NoteNumber":39,"Velocity":42,"Duration":119047,"SoundDuration":119047,"Delta":23808554},{"NoteNumber":63,"Velocity":45,"Duration":327273,"SoundDuration":327273,"Delta":24046649},{"NoteNumber":73,"Velocity":45,"Duration":327273,"SoundDuration":327273,"Delta":24046649},{"NoteNumber":75,"Velocity":53,"Duration":327273,"SoundDuration":327273,"Delta":24046649},{"NoteNumber":46,"Velocity":36,"Duration":327273,"SoundDuration":327273,"Delta":24046649},{"NoteNumber":51,"Velocity":36,"Duration":327273,"SoundDuration":327273,"Delta":24046649},{"NoteNumber":58,"Velocity":43,"Duration":327273,"SoundDuration":327273,"Delta":24046649},{"NoteNumber":63,"Velocity":43,"Duration":103636,"SoundDuration":103636,"Delta":24373922},{"NoteNumber":73,"Velocity":43,"Duration":103636,"SoundDuration":103636,"Delta":24373922},{"NoteNumber":75,"Velocity":51,"Duration":103636,"SoundDuration":103636,"Delta":24373922},{"NoteNumber":46,"Velocity":33,"Duration":103636,"SoundDuration":103636,"Delta":24373922},{"NoteNumber":51,"Velocity":33,"Duration":103636,"SoundDuration":103636,"Delta":24373922},{"NoteNumber":58,"Velocity":40,"Duration":103636,"SoundDuration":103636,"Delta":24373922},{"NoteNumber":63,"Velocity":45,"Duration":119047,"SoundDuration":119047,"Delta":24483013},{"NoteNumber":73,"Velocity":45,"Duration":119047,"SoundDuration":119047,"Delta":24483013},{"NoteNumber":75,"Velocity":53,"Duration":119047,"SoundDuration":119047,"Delta":24483013},{"NoteNumber":46,"Velocity":37,"Duration":119047,"SoundDuration":119047,"Delta":24483013},{"NoteNumber":51,"Velocity":37,"Duration":119047,"SoundDuration":119047,"Delta":24483013},{"NoteNumber":58,"Velocity":43,"Duration":119047,"SoundDuration":119047,"Delta":24483013},{"NoteNumber":63,"Velocity":45,"Duration":327273,"SoundDuration":327273,"Delta":24721108},{"NoteNumber":73,"Velocity":45,"Duration":327273,"SoundDuration":327273,"Delta":24721108},{"NoteNumber":75,"Velocity":53,"Duration":327273,"SoundDuration":327273,"Delta":24721108},{"NoteNumber":46,"Velocity":36,"Duration":327273,"SoundDuration":327273,"Delta":24721108},{"NoteNumber":51,"Velocity":36,"Duration":327273,"SoundDuration":327273,"Delta":24721108},{"NoteNumber":58,"Velocity":43,"Duration":327273,"SoundDuration":327273,"Delta":24721108},{"NoteNumber":63,"Velocity":43,"Duration":103636,"SoundDuration":103636,"Delta":25048381},{"NoteNumber":73,"Velocity":43,"Duration":103636,"SoundDuration":103636,"Delta":25048381},{"NoteNumber":75,"Velocity":51,"Duration":103636,"SoundDuration":103636,"Delta":25048381},{"NoteNumber":46,"Velocity":33,"Duration":103636,"SoundDuration":103636,"Delta":25048381},{"NoteNumber":51,"Velocity":33,"Duration":103636,"SoundDuration":103636,"Delta":25048381},{"NoteNumber":58,"Velocity":40,"Duration":103636,"SoundDuration":103636,"Delta":25048381},{"NoteNumber":63,"Velocity":45,"Duration":118576,"SoundDuration":118576,"Delta":25157472},{"NoteNumber":73,"Velocity":45,"Duration":118576,"SoundDuration":118576,"Delta":25157472},{"NoteNumber":75,"Velocity":53,"Duration":118576,"SoundDuration":118576,"Delta":25157472},{"NoteNumber":46,"Velocity":37,"Duration":118576,"SoundDuration":118576,"Delta":25157472},{"NoteNumber":51,"Velocity":37,"Duration":118576,"SoundDuration":118576,"Delta":25157472},{"NoteNumber":58,"Velocity":43,"Duration":118576,"SoundDuration":118576,"Delta":25157472},{"NoteNumber":63,"Velocity":40,"Duration":103448,"SoundDuration":103448,"Delta":25394626},{"NoteNumber":72,"Velocity":40,"Duration":103448,"SoundDuration":103448,"Delta":25394626},{"NoteNumber":75,"Velocity":48,"Duration":103448,"SoundDuration":103448,"Delta":25394626},{"NoteNumber":46,"Velocity":37,"Duration":206896,"SoundDuration":206896,"Delta":25394626},{"NoteNumber":51,"Velocity":37,"Duration":206896,"SoundDuration":206896,"Delta":25394626},{"NoteNumber":58,"Velocity":44,"Duration":206896,"SoundDuration":206896,"Delta":25394626},{"NoteNumber":73,"Velocity":43,"Duration":103448,"SoundDuration":103448,"Delta":25498075},{"NoteNumber":70,"Velocity":43,"Duration":106761,"SoundDuration":106761,"Delta":25601523},{"NoteNumber":67,"Velocity":43,"Duration":106761,"SoundDuration":106761,"Delta":25708284},{"NoteNumber":63,"Velocity":48,"Duration":116278,"SoundDuration":116278,"Delta":25815046},{"NoteNumber":67,"Velocity":50,"Duration":104529,"SoundDuration":104529,"Delta":26047604},{"NoteNumber":70,"Velocity":44,"Duration":104529,"SoundDuration":104529,"Delta":26152133},{"NoteNumber":73,"Velocity":44,"Duration":106761,"SoundDuration":106761,"Delta":26256663},{"NoteNumber":75,"Velocity":44,"Duration":106761,"SoundDuration":106761,"Delta":26363424},{"NoteNumber":79,"Velocity":47,"Duration":118576,"SoundDuration":118576,"Delta":26470186},{"NoteNumber":83,"Velocity":46,"Duration":63291,"SoundDuration":63291,"Delta":26707340},{"NoteNumber":71,"Velocity":39,"Duration":63291,"SoundDuration":63291,"Delta":26707340},{"NoteNumber":67,"Velocity":44,"Duration":63291,"SoundDuration":63291,"Delta":26707340},{"NoteNumber":63,"Velocity":37,"Duration":63291,"SoundDuration":63291,"Delta":26707340},{"NoteNumber":56,"Velocity":37,"Duration":63291,"SoundDuration":63291,"Delta":26707340},{"NoteNumber":72,"Velocity":43,"Duration":456274,"SoundDuration":456274,"Delta":26960504},{"NoteNumber":84,"Velocity":51,"Duration":456274,"SoundDuration":456274,"Delta":26960504},{"NoteNumber":68,"Velocity":44,"Duration":456274,"SoundDuration":456274,"Delta":26960504},{"NoteNumber":63,"Velocity":37,"Duration":456274,"SoundDuration":456274,"Delta":26960504},{"NoteNumber":56,"Velocity":37,"Duration":456274,"SoundDuration":456274,"Delta":26960504},{"NoteNumber":67,"Velocity":51,"Duration":103806,"SoundDuration":103806,"Delta":27416778},{"NoteNumber":55,"Velocity":43,"Duration":103806,"SoundDuration":103806,"Delta":27416778},{"NoteNumber":68,"Velocity":42,"Duration":103806,"SoundDuration":103806,"Delta":27520585},{"NoteNumber":56,"Velocity":40,"Duration":103806,"SoundDuration":103806,"Delta":27520585},{"NoteNumber":63,"Velocity":45,"Duration":106761,"SoundDuration":106761,"Delta":27624391},{"NoteNumber":51,"Velocity":42,"Duration":106761,"SoundDuration":106761,"Delta":27624391},{"NoteNumber":60,"Velocity":42,"Duration":106761,"SoundDuration":106761,"Delta":27731152},{"NoteNumber":48,"Velocity":40,"Duration":106761,"SoundDuration":106761,"Delta":27731152},{"NoteNumber":56,"Velocity":45,"Duration":119047,"SoundDuration":119047,"Delta":27837914},{"NoteNumber":44,"Velocity":42,"Duration":119047,"SoundDuration":119047,"Delta":27837914},{"NoteNumber":68,"Velocity":49,"Duration":109488,"SoundDuration":109488,"Delta":28076009},{"NoteNumber":54,"Velocity":36,"Duration":328466,"SoundDuration":328466,"Delta":28076009},{"NoteNumber":56,"Velocity":36,"Duration":328466,"SoundDuration":328466,"Delta":28076009},{"NoteNumber":63,"Velocity":43,"Duration":328466,"SoundDuration":328466,"Delta":28076009},{"NoteNumber":69,"Velocity":48,"Duration":109488,"SoundDuration":109488,"Delta":28185498},{"NoteNumber":70,"Velocity":51,"Duration":109488,"SoundDuration":109488,"Delta":28294987},{"NoteNumber":71,"Velocity":54,"Duration":109488,"SoundDuration":109488,"Delta":28404476},{"NoteNumber":54,"Velocity":29,"Duration":109488,"SoundDuration":109488,"Delta":28404476},{"NoteNumber":56,"Velocity":29,"Duration":109488,"SoundDuration":109488,"Delta":28404476},{"NoteNumber":63,"Velocity":35,"Duration":109488,"SoundDuration":109488,"Delta":28404476},{"NoteNumber":72,"Velocity":57,"Duration":138888,"SoundDuration":138888,"Delta":28513965},{"NoteNumber":54,"Velocity":32,"Duration":138888,"SoundDuration":138888,"Delta":28513965},{"NoteNumber":56,"Velocity":32,"Duration":138888,"SoundDuration":138888,"Delta":28513965},{"NoteNumber":63,"Velocity":38,"Duration":138888,"SoundDuration":138888,"Delta":28513965},{"NoteNumber":72,"Velocity":51,"Duration":124481,"SoundDuration":124481,"Delta":28791743},{"NoteNumber":53,"Velocity":33,"Duration":251063,"SoundDuration":251063,"Delta":28791743},{"NoteNumber":56,"Velocity":33,"Duration":251063,"SoundDuration":251063,"Delta":28791743},{"NoteNumber":61,"Velocity":39,"Duration":251063,"SoundDuration":251063,"Delta":28791743},{"NoteNumber":73,"Velocity":49,"Duration":94936,"SoundDuration":94936,"Delta":28916224},{"NoteNumber":80,"Velocity":57,"Duration":526316,"SoundDuration":526316,"Delta":29042806},{"NoteNumber":49,"Velocity":33,"Duration":526316,"SoundDuration":526316,"Delta":29042806},{"NoteNumber":53,"Velocity":33,"Duration":526316,"SoundDuration":526316,"Delta":29042806},{"NoteNumber":61,"Velocity":39,"Duration":526316,"SoundDuration":526316,"Delta":29042806},{"NoteNumber":65,"Velocity":45,"Duration":119521,"SoundDuration":119521,"Delta":29569122},{"NoteNumber":51,"Velocity":36,"Duration":358565,"SoundDuration":358565,"Delta":29569122},{"NoteNumber":53,"Velocity":36,"Duration":358565,"SoundDuration":358565,"Delta":29569122},{"NoteNumber":60,"Velocity":43,"Duration":358565,"SoundDuration":358565,"Delta":29569122},{"NoteNumber":66,"Velocity":46,"Duration":119521,"SoundDuration":119521,"Delta":29688644},{"NoteNumber":67,"Velocity":47,"Duration":119521,"SoundDuration":119521,"Delta":29808166},{"NoteNumber":68,"Velocity":49,"Duration":119521,"SoundDuration":119521,"Delta":29927688},{"NoteNumber":51,"Velocity":29,"Duration":119521,"SoundDuration":119521,"Delta":29927688},{"NoteNumber":53,"Velocity":29,"Duration":119521,"SoundDuration":119521,"Delta":29927688},{"NoteNumber":60,"Velocity":35,"Duration":119521,"SoundDuration":119521,"Delta":29927688},{"NoteNumber":69,"Velocity":50,"Duration":138248,"SoundDuration":138248,"Delta":30047210},{"NoteNumber":51,"Velocity":32,"Duration":138248,"SoundDuration":138248,"Delta":30047210},{"NoteNumber":53,"Velocity":32,"Duration":138248,"SoundDuration":138248,"Delta":30047210},{"NoteNumber":60,"Velocity":38,"Duration":138248,"SoundDuration":138248,"Delta":30047210},{"NoteNumber":69,"Velocity":51,"Duration":124481,"SoundDuration":124481,"Delta":30323708},{"NoteNumber":49,"Velocity":33,"Duration":251063,"SoundDuration":251063,"Delta":30323708},{"NoteNumber":53,"Velocity":33,"Duration":251063,"SoundDuration":251063,"Delta":30323708},{"NoteNumber":58,"Velocity":39,"Duration":251063,"SoundDuration":251063,"Delta":30323708},{"NoteNumber":70,"Velocity":49,"Duration":94936,"SoundDuration":94936,"Delta":30448189},{"NoteNumber":77,"Velocity":57,"Duration":526316,"SoundDuration":526316,"Delta":30574771},{"NoteNumber":46,"Velocity":33,"Duration":526316,"SoundDuration":526316,"Delta":30574771},{"NoteNumber":49,"Velocity":33,"Duration":526316,"SoundDuration":526316,"Delta":30574771},{"NoteNumber":58,"Velocity":39,"Duration":526316,"SoundDuration":526316,"Delta":30574771},{"NoteNumber":74,"Velocity":56,"Duration":110700,"SoundDuration":110700,"Delta":31101087},{"NoteNumber":51,"Velocity":42,"Duration":221402,"SoundDuration":221402,"Delta":31101087},{"NoteNumber":75,"Velocity":56,"Duration":83025,"SoundDuration":83025,"Delta":31211788},{"NoteNumber":73,"Velocity":53,"Duration":453148,"SoundDuration":453148,"Delta":31322489},{"NoteNumber":75,"Velocity":53,"Duration":453148,"SoundDuration":453148,"Delta":31322489},{"NoteNumber":85,"Velocity":63,"Duration":453148,"SoundDuration":453148,"Delta":31322489},{"NoteNumber":62,"Velocity":51,"Duration":107527,"SoundDuration":107527,"Delta":31322489},{"NoteNumber":55,"Velocity":43,"Duration":453148,"SoundDuration":453148,"Delta":31322489},{"NoteNumber":63,"Velocity":43,"Duration":107526,"SoundDuration":107526,"Delta":31430016},{"NoteNumber":70,"Velocity":51,"Duration":119047,"SoundDuration":119047,"Delta":31537543},{"NoteNumber":71,"Velocity":59,"Duration":109488,"SoundDuration":109488,"Delta":31775638},{"NoteNumber":51,"Velocity":44,"Duration":218977,"SoundDuration":218977,"Delta":31775638},{"NoteNumber":72,"Velocity":59,"Duration":82116,"SoundDuration":82116,"Delta":31885127},{"NoteNumber":72,"Velocity":57,"Duration":450676,"SoundDuration":450676,"Delta":31994616},{"NoteNumber":75,"Velocity":57,"Duration":450676,"SoundDuration":450676,"Delta":31994616},{"NoteNumber":84,"Velocity":67,"Duration":450676,"SoundDuration":450676,"Delta":31994616},{"NoteNumber":62,"Velocity":54,"Duration":106761,"SoundDuration":106761,"Delta":31994616},{"NoteNumber":56,"Velocity":46,"Duration":450676,"SoundDuration":450676,"Delta":31994616},{"NoteNumber":63,"Velocity":46,"Duration":106761,"SoundDuration":106761,"Delta":32101378},{"NoteNumber":68,"Velocity":56,"Duration":118577,"SoundDuration":118577,"Delta":32208139},{"NoteNumber":74,"Velocity":64,"Duration":108303,"SoundDuration":108303,"Delta":32445293},{"NoteNumber":51,"Velocity":48,"Duration":216606,"SoundDuration":216606,"Delta":32445293},{"NoteNumber":75,"Velocity":64,"Duration":81227,"SoundDuration":81227,"Delta":32553597},{"NoteNumber":73,"Velocity":59,"Duration":443825,"SoundDuration":443825,"Delta":32661900},{"NoteNumber":75,"Velocity":59,"Duration":443825,"SoundDuration":443825,"Delta":32661900},{"NoteNumber":85,"Velocity":71,"Duration":443825,"SoundDuration":443825,"Delta":32661900},{"NoteNumber":62,"Velocity":57,"Duration":105633,"SoundDuration":105633,"Delta":32661900},{"NoteNumber":55,"Velocity":48,"Duration":443825,"SoundDuration":443825,"Delta":32661900},{"NoteNumber":63,"Velocity":49,"Duration":105633,"SoundDuration":105633,"Delta":32767534},{"NoteNumber":70,"Velocity":59,"Duration":116278,"SoundDuration":116278,"Delta":32873167},{"NoteNumber":71,"Velocity":67,"Duration":107913,"SoundDuration":107913,"Delta":33105725},{"NoteNumber":51,"Velocity":51,"Duration":215827,"SoundDuration":215827,"Delta":33105725},{"NoteNumber":72,"Velocity":67,"Duration":80935,"SoundDuration":80935,"Delta":33213639},{"NoteNumber":72,"Velocity":64,"Duration":442036,"SoundDuration":442036,"Delta":33321553},{"NoteNumber":75,"Velocity":64,"Duration":442036,"SoundDuration":442036,"Delta":33321553},{"NoteNumber":84,"Velocity":76,"Duration":442036,"SoundDuration":442036,"Delta":33321553},{"NoteNumber":62,"Velocity":61,"Duration":105633,"SoundDuration":105633,"Delta":33321553},{"NoteNumber":56,"Velocity":51,"Duration":442036,"SoundDuration":442036,"Delta":33321553},{"NoteNumber":63,"Velocity":52,"Duration":105633,"SoundDuration":105633,"Delta":33427187},{"NoteNumber":68,"Velocity":63,"Duration":115384,"SoundDuration":115384,"Delta":33532820},{"NoteNumber":75,"Velocity":67,"Duration":330818,"SoundDuration":330818,"Delta":33763589},{"NoteNumber":68,"Velocity":67,"Duration":330818,"SoundDuration":330818,"Delta":33763589},{"NoteNumber":80,"Velocity":79,"Duration":330818,"SoundDuration":330818,"Delta":33763589},{"NoteNumber":52,"Velocity":50,"Duration":330818,"SoundDuration":330818,"Delta":33763589},{"NoteNumber":64,"Velocity":59,"Duration":330818,"SoundDuration":330818,"Delta":33763589},{"NoteNumber":68,"Velocity":64,"Duration":103968,"SoundDuration":103968,"Delta":34094407},{"NoteNumber":75,"Velocity":64,"Duration":103968,"SoundDuration":103968,"Delta":34094407},{"NoteNumber":80,"Velocity":76,"Duration":103968,"SoundDuration":103968,"Delta":34094407},{"NoteNumber":40,"Velocity":45,"Duration":103968,"SoundDuration":103968,"Delta":34094407},{"NoteNumber":52,"Velocity":54,"Duration":103968,"SoundDuration":103968,"Delta":34094407},{"NoteNumber":75,"Velocity":64,"Duration":108959,"SoundDuration":108959,"Delta":34203830},{"NoteNumber":68,"Velocity":64,"Duration":108959,"SoundDuration":108959,"Delta":34203830},{"NoteNumber":80,"Velocity":76,"Duration":108959,"SoundDuration":108959,"Delta":34203830},{"NoteNumber":40,"Velocity":45,"Duration":108959,"SoundDuration":108959,"Delta":34203830},{"NoteNumber":52,"Velocity":54,"Duration":108959,"SoundDuration":108959,"Delta":34203830},{"NoteNumber":75,"Velocity":68,"Duration":108108,"SoundDuration":108108,"Delta":34421354},{"NoteNumber":68,"Velocity":68,"Duration":108108,"SoundDuration":108108,"Delta":34421354},{"NoteNumber":80,"Velocity":81,"Duration":108108,"SoundDuration":108108,"Delta":34421354},{"NoteNumber":40,"Velocity":51,"Duration":108108,"SoundDuration":108108,"Delta":34421354},{"NoteNumber":52,"Velocity":60,"Duration":108108,"SoundDuration":108108,"Delta":34421354},{"NoteNumber":68,"Velocity":63,"Duration":107270,"SoundDuration":107270,"Delta":34637183},{"NoteNumber":75,"Velocity":63,"Duration":107270,"SoundDuration":107270,"Delta":34637183},{"NoteNumber":80,"Velocity":75,"Duration":107270,"SoundDuration":107270,"Delta":34637183},{"NoteNumber":40,"Velocity":46,"Duration":107270,"SoundDuration":107270,"Delta":34637183},{"NoteNumber":52,"Velocity":55,"Duration":107270,"SoundDuration":107270,"Delta":34637183},{"NoteNumber":75,"Velocity":63,"Duration":106446,"SoundDuration":106446,"Delta":34851343},{"NoteNumber":68,"Velocity":63,"Duration":106446,"SoundDuration":106446,"Delta":34851343},{"NoteNumber":80,"Velocity":75,"Duration":106446,"SoundDuration":106446,"Delta":34851343},{"NoteNumber":40,"Velocity":46,"Duration":106446,"SoundDuration":106446,"Delta":34851343},{"NoteNumber":52,"Velocity":55,"Duration":106446,"SoundDuration":106446,"Delta":34851343},{"NoteNumber":68,"Velocity":65,"Duration":105140,"SoundDuration":105140,"Delta":35063734},{"NoteNumber":74,"Velocity":77,"Duration":105140,"SoundDuration":105140,"Delta":35063734},{"NoteNumber":41,"Velocity":57,"Duration":105140,"SoundDuration":105140,"Delta":35063734},{"NoteNumber":80,"Velocity":79,"Duration":104651,"SoundDuration":104651,"Delta":35168875},{"NoteNumber":42,"Velocity":59,"Duration":104651,"SoundDuration":104651,"Delta":35168875},{"NoteNumber":68,"Velocity":68,"Duration":104046,"SoundDuration":104046,"Delta":35273526},{"NoteNumber":74,"Velocity":81,"Duration":104046,"SoundDuration":104046,"Delta":35273526},{"NoteNumber":43,"Velocity":61,"Duration":104046,"SoundDuration":104046,"Delta":35273526},{"NoteNumber":80,"Velocity":83,"Duration":103627,"SoundDuration":103627,"Delta":35377573},{"NoteNumber":44,"Velocity":62,"Duration":103627,"SoundDuration":103627,"Delta":35377573},{"NoteNumber":68,"Velocity":72,"Duration":103093,"SoundDuration":103093,"Delta":35481200},{"NoteNumber":74,"Velocity":85,"Duration":103093,"SoundDuration":103093,"Delta":35481200},{"NoteNumber":45,"Velocity":64,"Duration":103093,"SoundDuration":103093,"Delta":35481200},{"NoteNumber":80,"Velocity":86,"Duration":102564,"SoundDuration":102564,"Delta":35584293},{"NoteNumber":46,"Velocity":66,"Duration":102564,"SoundDuration":102564,"Delta":35584293},{"NoteNumber":68,"Velocity":74,"Duration":102389,"SoundDuration":102389,"Delta":35686858},{"NoteNumber":74,"Velocity":88,"Duration":102389,"SoundDuration":102389,"Delta":35686858},{"NoteNumber":47,"Velocity":68,"Duration":102389,"SoundDuration":102389,"Delta":35686858},{"NoteNumber":80,"Velocity":90,"Duration":102388,"SoundDuration":102388,"Delta":35789247},{"NoteNumber":48,"Velocity":70,"Duration":102388,"SoundDuration":102388,"Delta":35789247},{"NoteNumber":68,"Velocity":78,"Duration":102389,"SoundDuration":102389,"Delta":35891636},{"NoteNumber":74,"Velocity":92,"Duration":102389,"SoundDuration":102389,"Delta":35891636},{"NoteNumber":49,"Velocity":71,"Duration":102389,"SoundDuration":102389,"Delta":35891636},{"NoteNumber":80,"Velocity":94,"Duration":102389,"SoundDuration":102389,"Delta":35994025},{"NoteNumber":50,"Velocity":73,"Duration":102389,"SoundDuration":102389,"Delta":35994025},{"NoteNumber":68,"Velocity":80,"Duration":102388,"SoundDuration":102388,"Delta":36096414},{"NoteNumber":74,"Velocity":95,"Duration":102388,"SoundDuration":102388,"Delta":36096414},{"NoteNumber":51,"Velocity":75,"Duration":102388,"SoundDuration":102388,"Delta":36096414},{"NoteNumber":80,"Velocity":97,"Duration":102389,"SoundDuration":102389,"Delta":36198803},{"NoteNumber":52,"Velocity":77,"Duration":102389,"SoundDuration":102389,"Delta":36198803},{"NoteNumber":68,"Velocity":90,"Duration":222222,"SoundDuration":222222,"Delta":36301192},{"NoteNumber":74,"Velocity":90,"Duration":222222,"SoundDuration":222222,"Delta":36301192},{"NoteNumber":80,"Velocity":106,"Duration":222222,"SoundDuration":222222,"Delta":36301192},{"NoteNumber":40,"Velocity":72,"Duration":222222,"SoundDuration":222222,"Delta":36301192},{"NoteNumber":52,"Velocity":85,"Duration":222222,"SoundDuration":222222,"Delta":36301192},{"NoteNumber":70,"Velocity":80,"Duration":105263,"SoundDuration":105263,"Delta":36523414},{"NoteNumber":74,"Velocity":80,"Duration":105263,"SoundDuration":105263,"Delta":36523414},{"NoteNumber":80,"Velocity":80,"Duration":105263,"SoundDuration":105263,"Delta":36523414},{"NoteNumber":82,"Velocity":95,"Duration":105263,"SoundDuration":105263,"Delta":36523414},{"NoteNumber":52,"Velocity":65,"Duration":105263,"SoundDuration":105263,"Delta":36523414},{"NoteNumber":64,"Velocity":77,"Duration":105263,"SoundDuration":105263,"Delta":36523414},{"NoteNumber":70,"Velocity":80,"Duration":108695,"SoundDuration":108695,"Delta":36733940},{"NoteNumber":74,"Velocity":80,"Duration":108695,"SoundDuration":108695,"Delta":36733940},{"NoteNumber":80,"Velocity":80,"Duration":108695,"SoundDuration":108695,"Delta":36733940},{"NoteNumber":82,"Velocity":95,"Duration":108695,"SoundDuration":108695,"Delta":36733940},{"NoteNumber":64,"Velocity":77,"Duration":108695,"SoundDuration":108695,"Delta":36733940},{"NoteNumber":52,"Velocity":65,"Duration":108695,"SoundDuration":108695,"Delta":36733940},{"NoteNumber":70,"Velocity":85,"Duration":108695,"SoundDuration":108695,"Delta":36951332},{"NoteNumber":74,"Velocity":85,"Duration":108695,"SoundDuration":108695,"Delta":36951332},{"NoteNumber":80,"Velocity":85,"Duration":108695,"SoundDuration":108695,"Delta":36951332},{"NoteNumber":82,"Velocity":100,"Duration":108695,"SoundDuration":108695,"Delta":36951332},{"NoteNumber":52,"Velocity":72,"Duration":108695,"SoundDuration":108695,"Delta":36951332},{"NoteNumber":64,"Velocity":85,"Duration":108695,"SoundDuration":108695,"Delta":36951332},{"NoteNumber":70,"Velocity":77,"Duration":106383,"SoundDuration":106383,"Delta":37168723},{"NoteNumber":74,"Velocity":77,"Duration":106383,"SoundDuration":106383,"Delta":37168723},{"NoteNumber":80,"Velocity":77,"Duration":106383,"SoundDuration":106383,"Delta":37168723},{"NoteNumber":82,"Velocity":92,"Duration":106383,"SoundDuration":106383,"Delta":37168723},{"NoteNumber":52,"Velocity":65,"Duration":106383,"SoundDuration":106383,"Delta":37168723},{"NoteNumber":64,"Velocity":77,"Duration":106383,"SoundDuration":106383,"Delta":37168723},{"NoteNumber":70,"Velocity":77,"Duration":108303,"SoundDuration":108303,"Delta":37381489},{"NoteNumber":74,"Velocity":77,"Duration":108303,"SoundDuration":108303,"Delta":37381489},{"NoteNumber":80,"Velocity":77,"Duration":108303,"SoundDuration":108303,"Delta":37381489},{"NoteNumber":82,"Velocity":92,"Duration":108303,"SoundDuration":108303,"Delta":37381489},{"NoteNumber":52,"Velocity":65,"Duration":108303,"SoundDuration":108303,"Delta":37381489},{"NoteNumber":64,"Velocity":77,"Duration":108303,"SoundDuration":108303,"Delta":37381489},{"NoteNumber":70,"Velocity":80,"Duration":118110,"SoundDuration":118110,"Delta":37598096},{"NoteNumber":75,"Velocity":80,"Duration":118110,"SoundDuration":118110,"Delta":37598096},{"NoteNumber":79,"Velocity":80,"Duration":118110,"SoundDuration":118110,"Delta":37598096},{"NoteNumber":82,"Velocity":95,"Duration":118110,"SoundDuration":118110,"Delta":37598096},{"NoteNumber":51,"Velocity":73,"Duration":118110,"SoundDuration":118110,"Delta":37598096},{"NoteNumber":63,"Velocity":87,"Duration":118110,"SoundDuration":118110,"Delta":37598096},{"NoteNumber":87,"Velocity":95,"Duration":110294,"SoundDuration":110294,"Delta":37834316},{"NoteNumber":82,"Velocity":80,"Duration":110294,"SoundDuration":110294,"Delta":37834316},{"NoteNumber":79,"Velocity":80,"Duration":110294,"SoundDuration":110294,"Delta":37834316},{"NoteNumber":75,"Velocity":80,"Duration":110294,"SoundDuration":110294,"Delta":37834316},{"NoteNumber":51,"Velocity":77,"Duration":110294,"SoundDuration":110294,"Delta":37834316},{"NoteNumber":39,"Velocity":65,"Duration":110294,"SoundDuration":110294,"Delta":37834316},{"NoteNumber":63,"Velocity":70,"Duration":118110,"SoundDuration":118110,"Delta":38275492},{"NoteNumber":67,"Velocity":70,"Duration":118110,"SoundDuration":118110,"Delta":38275492},{"NoteNumber":70,"Velocity":83,"Duration":118110,"SoundDuration":118110,"Delta":38275492},{"NoteNumber":51,"Velocity":68,"Duration":118110,"SoundDuration":118110,"Delta":38275492},{"NoteNumber":39,"Velocity":57,"Duration":118110,"SoundDuration":118110,"Delta":38275492},{"NoteNumber":63,"Velocity":64,"Duration":110294,"SoundDuration":110294,"Delta":38511713},{"NoteNumber":67,"Velocity":64,"Duration":110294,"SoundDuration":110294,"Delta":38511713},{"NoteNumber":75,"Velocity":76,"Duration":110294,"SoundDuration":110294,"Delta":38511713},{"NoteNumber":39,"Velocity":61,"Duration":110294,"SoundDuration":110294,"Delta":38511713},{"NoteNumber":27,"Velocity":52,"Duration":110294,"SoundDuration":110294,"Delta":38511713},{"NoteNumber":37,"Velocity":73,"Duration":327272,"SoundDuration":327272,"Delta":39065634},{"NoteNumber":49,"Velocity":86,"Duration":327272,"SoundDuration":327272,"Delta":39065634},{"NoteNumber":37,"Velocity":68,"Duration":109090,"SoundDuration":109090,"Delta":39392907},{"NoteNumber":49,"Velocity":80,"Duration":109090,"SoundDuration":109090,"Delta":39392907},{"NoteNumber":37,"Velocity":73,"Duration":238095,"SoundDuration":238095,"Delta":39501998},{"NoteNumber":49,"Velocity":87,"Duration":238095,"SoundDuration":238095,"Delta":39501998},{"NoteNumber":37,"Velocity":73,"Duration":327272,"SoundDuration":327272,"Delta":39740093},{"NoteNumber":49,"Velocity":86,"Duration":327272,"SoundDuration":327272,"Delta":39740093},{"NoteNumber":37,"Velocity":68,"Duration":109090,"SoundDuration":109090,"Delta":40067366},{"NoteNumber":49,"Velocity":80,"Duration":109090,"SoundDuration":109090,"Delta":40067366},{"NoteNumber":37,"Velocity":73,"Duration":235262,"SoundDuration":235262,"Delta":40176457},{"NoteNumber":49,"Velocity":87,"Duration":235262,"SoundDuration":235262,"Delta":40176457},{"NoteNumber":79,"Velocity":71,"Duration":74906,"SoundDuration":74906,"Delta":40411719},{"NoteNumber":37,"Velocity":73,"Duration":993945,"SoundDuration":993945,"Delta":40411719},{"NoteNumber":49,"Velocity":86,"Duration":993945,"SoundDuration":993945,"Delta":40411719},{"NoteNumber":76,"Velocity":69,"Duration":74626,"SoundDuration":74626,"Delta":40486625},{"NoteNumber":73,"Velocity":66,"Duration":74349,"SoundDuration":74349,"Delta":40561252},{"NoteNumber":70,"Velocity":64,"Duration":74142,"SoundDuration":74142,"Delta":40635602},{"NoteNumber":67,"Velocity":62,"Duration":73869,"SoundDuration":73869,"Delta":40709745},{"NoteNumber":64,"Velocity":59,"Duration":73665,"SoundDuration":73665,"Delta":40783614},{"NoteNumber":61,"Velocity":56,"Duration":73394,"SoundDuration":73394,"Delta":40857279},{"NoteNumber":58,"Velocity":56,"Duration":73193,"SoundDuration":73193,"Delta":40930673},{"NoteNumber":55,"Velocity":56,"Duration":72926,"SoundDuration":72926,"Delta":41003867},{"NoteNumber":52,"Velocity":56,"Duration":72727,"SoundDuration":72727,"Delta":41076793},{"NoteNumber":55,"Velocity":55,"Duration":72926,"SoundDuration":72926,"Delta":41149520},{"NoteNumber":58,"Velocity":56,"Duration":73126,"SoundDuration":73126,"Delta":41222447},{"NoteNumber":61,"Velocity":56,"Duration":73327,"SoundDuration":73327,"Delta":41295573},{"NoteNumber":64,"Velocity":57,"Duration":73529,"SoundDuration":73529,"Delta":41368900},{"NoteNumber":37,"Velocity":68,"Duration":104962,"SoundDuration":104962,"Delta":41405665},{"NoteNumber":49,"Velocity":80,"Duration":104962,"SoundDuration":104962,"Delta":41405665},{"NoteNumber":67,"Velocity":58,"Duration":73732,"SoundDuration":73732,"Delta":41442430},{"NoteNumber":70,"Velocity":60,"Duration":73937,"SoundDuration":73937,"Delta":41516162},{"NoteNumber":37,"Velocity":73,"Duration":222429,"SoundDuration":222429,"Delta":41516162},{"NoteNumber":49,"Velocity":87,"Duration":222429,"SoundDuration":222429,"Delta":41516162},{"NoteNumber":73,"Velocity":63,"Duration":74142,"SoundDuration":74142,"Delta":41590100},{"NoteNumber":76,"Velocity":64,"Duration":74349,"SoundDuration":74349,"Delta":41664243},{"NoteNumber":79,"Velocity":67,"Duration":74906,"SoundDuration":74906,"Delta":41738592},{"NoteNumber":37,"Velocity":73,"Duration":994827,"SoundDuration":994827,"Delta":41738592},{"NoteNumber":49,"Velocity":86,"Duration":994827,"SoundDuration":994827,"Delta":41738592},{"NoteNumber":76,"Velocity":66,"Duration":74696,"SoundDuration":74696,"Delta":41813498},{"NoteNumber":73,"Velocity":65,"Duration":74418,"SoundDuration":74418,"Delta":41888195},{"NoteNumber":70,"Velocity":64,"Duration":74211,"SoundDuration":74211,"Delta":41962614},{"NoteNumber":67,"Velocity":63,"Duration":73937,"SoundDuration":73937,"Delta":42036826},{"NoteNumber":64,"Velocity":62,"Duration":73665,"SoundDuration":73665,"Delta":42110763},{"NoteNumber":61,"Velocity":61,"Duration":73461,"SoundDuration":73461,"Delta":42184428},{"NoteNumber":58,"Velocity":60,"Duration":73193,"SoundDuration":73193,"Delta":42257890},{"NoteNumber":55,"Velocity":59,"Duration":72926,"SoundDuration":72926,"Delta":42331083},{"NoteNumber":52,"Velocity":58,"Duration":72727,"SoundDuration":72727,"Delta":42404010},{"NoteNumber":55,"Velocity":55,"Duration":72992,"SoundDuration":72992,"Delta":42476737},{"NoteNumber":58,"Velocity":56,"Duration":73260,"SoundDuration":73260,"Delta":42549730},{"NoteNumber":61,"Velocity":56,"Duration":73529,"SoundDuration":73529,"Delta":42622990},{"NoteNumber":64,"Velocity":57,"Duration":73800,"SoundDuration":73800,"Delta":42696519},{"NoteNumber":37,"Velocity":68,"Duration":105418,"SoundDuration":105418,"Delta":42733419},{"NoteNumber":49,"Velocity":80,"Duration":105418,"SoundDuration":105418,"Delta":42733419},{"NoteNumber":67,"Velocity":58,"Duration":74074,"SoundDuration":74074,"Delta":42770320},{"NoteNumber":70,"Velocity":59,"Duration":74349,"SoundDuration":74349,"Delta":42844394},{"NoteNumber":37,"Velocity":73,"Duration":223882,"SoundDuration":223882,"Delta":42844394},{"NoteNumber":49,"Velocity":87,"Duration":223882,"SoundDuration":223882,"Delta":42844394},{"NoteNumber":73,"Velocity":59,"Duration":74626,"SoundDuration":74626,"Delta":42918743},{"NoteNumber":76,"Velocity":62,"Duration":74906,"SoundDuration":74906,"Delta":42993370},{"NoteNumber":67,"Velocity":60,"Duration":327272,"SoundDuration":327272,"Delta":43068276},{"NoteNumber":76,"Velocity":60,"Duration":327272,"SoundDuration":327272,"Delta":43068276},{"NoteNumber":79,"Velocity":72,"Duration":327272,"SoundDuration":327272,"Delta":43068276},{"NoteNumber":37,"Velocity":54,"Duration":327272,"SoundDuration":327272,"Delta":43068276},{"NoteNumber":49,"Velocity":64,"Duration":327272,"SoundDuration":327272,"Delta":43068276},{"NoteNumber":79,"Velocity":76,"Duration":103636,"SoundDuration":103636,"Delta":43395549},{"NoteNumber":67,"Velocity":64,"Duration":103636,"SoundDuration":103636,"Delta":43395549},{"NoteNumber":76,"Velocity":64,"Duration":103636,"SoundDuration":103636,"Delta":43395549},{"NoteNumber":37,"Velocity":50,"Duration":103636,"SoundDuration":103636,"Delta":43395549},{"NoteNumber":49,"Velocity":60,"Duration":103636,"SoundDuration":103636,"Delta":43395549},{"NoteNumber":67,"Velocity":67,"Duration":119047,"SoundDuration":119047,"Delta":43504640},{"NoteNumber":76,"Velocity":67,"Duration":119047,"SoundDuration":119047,"Delta":43504640},{"NoteNumber":79,"Velocity":80,"Duration":119047,"SoundDuration":119047,"Delta":43504640},{"NoteNumber":37,"Velocity":55,"Duration":119047,"SoundDuration":119047,"Delta":43504640},{"NoteNumber":49,"Velocity":65,"Duration":119047,"SoundDuration":119047,"Delta":43504640},{"NoteNumber":68,"Velocity":67,"Duration":327272,"SoundDuration":327272,"Delta":43742735},{"NoteNumber":76,"Velocity":67,"Duration":327272,"SoundDuration":327272,"Delta":43742735},{"NoteNumber":80,"Velocity":80,"Duration":327272,"SoundDuration":327272,"Delta":43742735},{"NoteNumber":37,"Velocity":54,"Duration":327272,"SoundDuration":327272,"Delta":43742735},{"NoteNumber":49,"Velocity":64,"Duration":327272,"SoundDuration":327272,"Delta":43742735},{"NoteNumber":80,"Velocity":76,"Duration":103636,"SoundDuration":103636,"Delta":44070008},{"NoteNumber":68,"Velocity":64,"Duration":103636,"SoundDuration":103636,"Delta":44070008},{"NoteNumber":76,"Velocity":64,"Duration":103636,"SoundDuration":103636,"Delta":44070008},{"NoteNumber":37,"Velocity":50,"Duration":103636,"SoundDuration":103636,"Delta":44070008},{"NoteNumber":49,"Velocity":60,"Duration":103636,"SoundDuration":103636,"Delta":44070008},{"NoteNumber":68,"Velocity":67,"Duration":119047,"SoundDuration":119047,"Delta":44179099},{"NoteNumber":76,"Velocity":67,"Duration":119047,"SoundDuration":119047,"Delta":44179099},{"NoteNumber":80,"Velocity":80,"Duration":119047,"SoundDuration":119047,"Delta":44179099},{"NoteNumber":37,"Velocity":55,"Duration":119047,"SoundDuration":119047,"Delta":44179099},{"NoteNumber":49,"Velocity":65,"Duration":119047,"SoundDuration":119047,"Delta":44179099},{"NoteNumber":67,"Velocity":67,"Duration":327272,"SoundDuration":327272,"Delta":44417194},{"NoteNumber":76,"Velocity":67,"Duration":327272,"SoundDuration":327272,"Delta":44417194},{"NoteNumber":79,"Velocity":80,"Duration":327272,"SoundDuration":327272,"Delta":44417194},{"NoteNumber":37,"Velocity":54,"Duration":327272,"SoundDuration":327272,"Delta":44417194},{"NoteNumber":49,"Velocity":64,"Duration":327272,"SoundDuration":327272,"Delta":44417194},{"NoteNumber":79,"Velocity":76,"Duration":103636,"SoundDuration":103636,"Delta":44744467},{"NoteNumber":67,"Velocity":64,"Duration":103636,"SoundDuration":103636,"Delta":44744467},{"NoteNumber":76,"Velocity":64,"Duration":103636,"SoundDuration":103636,"Delta":44744467},{"NoteNumber":37,"Velocity":50,"Duration":103636,"SoundDuration":103636,"Delta":44744467},{"NoteNumber":49,"Velocity":60,"Duration":103636,"SoundDuration":103636,"Delta":44744467},{"NoteNumber":67,"Velocity":67,"Duration":119047,"SoundDuration":119047,"Delta":44853558},{"NoteNumber":76,"Velocity":67,"Duration":119047,"SoundDuration":119047,"Delta":44853558},{"NoteNumber":79,"Velocity":80,"Duration":119047,"SoundDuration":119047,"Delta":44853558},{"NoteNumber":37,"Velocity":55,"Duration":119047,"SoundDuration":119047,"Delta":44853558},{"NoteNumber":49,"Velocity":65,"Duration":119047,"SoundDuration":119047,"Delta":44853558},{"NoteNumber":68,"Velocity":67,"Duration":327272,"SoundDuration":327272,"Delta":45091653},{"NoteNumber":76,"Velocity":67,"Duration":327272,"SoundDuration":327272,"Delta":45091653},{"NoteNumber":80,"Velocity":80,"Duration":327272,"SoundDuration":327272,"Delta":45091653},{"NoteNumber":37,"Velocity":54,"Duration":327272,"SoundDuration":327272,"Delta":45091653},{"NoteNumber":49,"Velocity":64,"Duration":327272,"SoundDuration":327272,"Delta":45091653},{"NoteNumber":80,"Velocity":76,"Duration":103636,"SoundDuration":103636,"Delta":45418926},{"NoteNumber":68,"Velocity":64,"Duration":103636,"SoundDuration":103636,"Delta":45418926},{"NoteNumber":76,"Velocity":64,"Duration":103636,"SoundDuration":103636,"Delta":45418926},{"NoteNumber":37,"Velocity":50,"Duration":103636,"SoundDuration":103636,"Delta":45418926},{"NoteNumber":49,"Velocity":60,"Duration":103636,"SoundDuration":103636,"Delta":45418926},{"NoteNumber":68,"Velocity":67,"Duration":119047,"SoundDuration":119047,"Delta":45528017},{"NoteNumber":76,"Velocity":67,"Duration":119047,"SoundDuration":119047,"Delta":45528017},{"NoteNumber":80,"Velocity":80,"Duration":119047,"SoundDuration":119047,"Delta":45528017},{"NoteNumber":37,"Velocity":55,"Duration":119047,"SoundDuration":119047,"Delta":45528017},{"NoteNumber":49,"Velocity":65,"Duration":119047,"SoundDuration":119047,"Delta":45528017},{"NoteNumber":78,"Velocity":67,"Duration":327272,"SoundDuration":327272,"Delta":45766112},{"NoteNumber":70,"Velocity":67,"Duration":327272,"SoundDuration":327272,"Delta":45766112},{"NoteNumber":76,"Velocity":67,"Duration":327272,"SoundDuration":327272,"Delta":45766112},{"NoteNumber":82,"Velocity":80,"Duration":327272,"SoundDuration":327272,"Delta":45766112},{"NoteNumber":49,"Velocity":54,"Duration":327272,"SoundDuration":327272,"Delta":45766112},{"NoteNumber":61,"Velocity":64,"Duration":327272,"SoundDuration":327272,"Delta":45766112},{"NoteNumber":78,"Velocity":64,"Duration":103636,"SoundDuration":103636,"Delta":46093385},{"NoteNumber":82,"Velocity":76,"Duration":103636,"SoundDuration":103636,"Delta":46093385},{"NoteNumber":70,"Velocity":64,"Duration":103636,"SoundDuration":103636,"Delta":46093385},{"NoteNumber":76,"Velocity":64,"Duration":103636,"SoundDuration":103636,"Delta":46093385},{"NoteNumber":49,"Velocity":50,"Duration":103636,"SoundDuration":103636,"Delta":46093385},{"NoteNumber":61,"Velocity":60,"Duration":103636,"SoundDuration":103636,"Delta":46093385},{"NoteNumber":78,"Velocity":67,"Duration":119047,"SoundDuration":119047,"Delta":46202476},{"NoteNumber":70,"Velocity":67,"Duration":119047,"SoundDuration":119047,"Delta":46202476},{"NoteNumber":76,"Velocity":67,"Duration":119047,"SoundDuration":119047,"Delta":46202476},{"NoteNumber":82,"Velocity":80,"Duration":119047,"SoundDuration":119047,"Delta":46202476},{"NoteNumber":49,"Velocity":55,"Duration":119047,"SoundDuration":119047,"Delta":46202476},{"NoteNumber":61,"Velocity":65,"Duration":119047,"SoundDuration":119047,"Delta":46202476},{"NoteNumber":71,"Velocity":67,"Duration":327272,"SoundDuration":327272,"Delta":46440571},{"NoteNumber":78,"Velocity":67,"Duration":327272,"SoundDuration":327272,"Delta":46440571},{"NoteNumber":83,"Velocity":80,"Duration":327272,"SoundDuration":327272,"Delta":46440571},{"NoteNumber":51,"Velocity":54,"Duration":327272,"SoundDuration":327272,"Delta":46440571},{"NoteNumber":63,"Velocity":64,"Duration":327272,"SoundDuration":327272,"Delta":46440571},{"NoteNumber":83,"Velocity":81,"Duration":103636,"SoundDuration":103636,"Delta":46767844},{"NoteNumber":71,"Velocity":68,"Duration":103636,"SoundDuration":103636,"Delta":46767844},{"NoteNumber":78,"Velocity":68,"Duration":103636,"SoundDuration":103636,"Delta":46767844},{"NoteNumber":51,"Velocity":53,"Duration":103636,"SoundDuration":103636,"Delta":46767844},{"NoteNumber":63,"Velocity":64,"Duration":103636,"SoundDuration":103636,"Delta":46767844},{"NoteNumber":71,"Velocity":73,"Duration":119047,"SoundDuration":119047,"Delta":46876935},{"NoteNumber":78,"Velocity":73,"Duration":119047,"SoundDuration":119047,"Delta":46876935},{"NoteNumber":83,"Velocity":88,"Duration":119047,"SoundDuration":119047,"Delta":46876935},{"NoteNumber":51,"Velocity":60,"Duration":119047,"SoundDuration":119047,"Delta":46876935},{"NoteNumber":63,"Velocity":71,"Duration":119047,"SoundDuration":119047,"Delta":46876935},{"NoteNumber":75,"Velocity":77,"Duration":327272,"SoundDuration":327272,"Delta":47115030},{"NoteNumber":83,"Velocity":77,"Duration":327272,"SoundDuration":327272,"Delta":47115030},{"NoteNumber":78,"Velocity":77,"Duration":327272,"SoundDuration":327272,"Delta":47115030},{"NoteNumber":87,"Velocity":92,"Duration":327272,"SoundDuration":327272,"Delta":47115030},{"NoteNumber":54,"Velocity":62,"Duration":327272,"SoundDuration":327272,"Delta":47115030},{"NoteNumber":66,"Velocity":73,"Duration":327272,"SoundDuration":327272,"Delta":47115030},{"NoteNumber":75,"Velocity":69,"Duration":103636,"SoundDuration":103636,"Delta":47442303},{"NoteNumber":87,"Velocity":82,"Duration":103636,"SoundDuration":103636,"Delta":47442303},{"NoteNumber":83,"Velocity":69,"Duration":103636,"SoundDuration":103636,"Delta":47442303},{"NoteNumber":78,"Velocity":69,"Duration":103636,"SoundDuration":103636,"Delta":47442303},{"NoteNumber":54,"Velocity":54,"Duration":103636,"SoundDuration":103636,"Delta":47442303},{"NoteNumber":66,"Velocity":64,"Duration":103636,"SoundDuration":103636,"Delta":47442303},{"NoteNumber":75,"Velocity":70,"Duration":119047,"SoundDuration":119047,"Delta":47551394},{"NoteNumber":83,"Velocity":70,"Duration":119047,"SoundDuration":119047,"Delta":47551394},{"NoteNumber":78,"Velocity":70,"Duration":119047,"SoundDuration":119047,"Delta":47551394},{"NoteNumber":87,"Velocity":84,"Duration":119047,"SoundDuration":119047,"Delta":47551394},{"NoteNumber":54,"Velocity":57,"Duration":119047,"SoundDuration":119047,"Delta":47551394},{"NoteNumber":66,"Velocity":68,"Duration":119047,"SoundDuration":119047,"Delta":47551394},{"NoteNumber":82,"Velocity":67,"Duration":327272,"SoundDuration":327272,"Delta":47789489},{"NoteNumber":78,"Velocity":67,"Duration":327272,"SoundDuration":327272,"Delta":47789489},{"NoteNumber":76,"Velocity":67,"Duration":327272,"SoundDuration":327272,"Delta":47789489},{"NoteNumber":85,"Velocity":80,"Duration":327272,"SoundDuration":327272,"Delta":47789489},{"NoteNumber":42,"Velocity":54,"Duration":327272,"SoundDuration":327272,"Delta":47789489},{"NoteNumber":54,"Velocity":64,"Duration":327272,"SoundDuration":327272,"Delta":47789489},{"NoteNumber":82,"Velocity":64,"Duration":103636,"SoundDuration":103636,"Delta":48116762},{"NoteNumber":85,"Velocity":76,"Duration":103636,"SoundDuration":103636,"Delta":48116762},{"NoteNumber":78,"Velocity":64,"Duration":103636,"SoundDuration":103636,"Delta":48116762},{"NoteNumber":76,"Velocity":64,"Duration":103636,"SoundDuration":103636,"Delta":48116762},{"NoteNumber":42,"Velocity":50,"Duration":103636,"SoundDuration":103636,"Delta":48116762},{"NoteNumber":54,"Velocity":60,"Duration":103636,"SoundDuration":103636,"Delta":48116762},{"NoteNumber":82,"Velocity":67,"Duration":119047,"SoundDuration":119047,"Delta":48225853},{"NoteNumber":78,"Velocity":67,"Duration":119047,"SoundDuration":119047,"Delta":48225853},{"NoteNumber":76,"Velocity":67,"Duration":119047,"SoundDuration":119047,"Delta":48225853},{"NoteNumber":85,"Velocity":80,"Duration":119047,"SoundDuration":119047,"Delta":48225853},{"NoteNumber":42,"Velocity":55,"Duration":119047,"SoundDuration":119047,"Delta":48225853},{"NoteNumber":54,"Velocity":65,"Duration":119047,"SoundDuration":119047,"Delta":48225853},{"NoteNumber":75,"Velocity":74,"Duration":218181,"SoundDuration":218181,"Delta":48463948},{"NoteNumber":78,"Velocity":74,"Duration":218181,"SoundDuration":218181,"Delta":48463948},{"NoteNumber":83,"Velocity":88,"Duration":218181,"SoundDuration":218181,"Delta":48463948},{"NoteNumber":35,"Velocity":73,"Duration":327272,"SoundDuration":327272,"Delta":48463948},{"NoteNumber":47,"Velocity":86,"Duration":327272,"SoundDuration":327272,"Delta":48463948},{"NoteNumber":35,"Velocity":68,"Duration":103636,"SoundDuration":103636,"Delta":48791221},{"NoteNumber":47,"Velocity":80,"Duration":103636,"SoundDuration":103636,"Delta":48791221},{"NoteNumber":35,"Velocity":73,"Duration":238095,"SoundDuration":238095,"Delta":48900312},{"NoteNumber":47,"Velocity":87,"Duration":238095,"SoundDuration":238095,"Delta":48900312},{"NoteNumber":35,"Velocity":73,"Duration":327272,"SoundDuration":327272,"Delta":49138407},{"NoteNumber":47,"Velocity":86,"Duration":327272,"SoundDuration":327272,"Delta":49138407},{"NoteNumber":35,"Velocity":68,"Duration":103636,"SoundDuration":103636,"Delta":49465680},{"NoteNumber":47,"Velocity":80,"Duration":103636,"SoundDuration":103636,"Delta":49465680},{"NoteNumber":35,"Velocity":73,"Duration":235262,"SoundDuration":235262,"Delta":49574771},{"NoteNumber":47,"Velocity":87,"Duration":235262,"SoundDuration":235262,"Delta":49574771},{"NoteNumber":77,"Velocity":70,"Duration":74906,"SoundDuration":74906,"Delta":49810033},{"NoteNumber":35,"Velocity":73,"Duration":993945,"SoundDuration":993945,"Delta":49810033},{"NoteNumber":47,"Velocity":86,"Duration":993945,"SoundDuration":993945,"Delta":49810033},{"NoteNumber":74,"Velocity":68,"Duration":74626,"SoundDuration":74626,"Delta":49884940},{"NoteNumber":71,"Velocity":67,"Duration":74349,"SoundDuration":74349,"Delta":49959566},{"NoteNumber":68,"Velocity":65,"Duration":74142,"SoundDuration":74142,"Delta":50033916},{"NoteNumber":65,"Velocity":64,"Duration":73869,"SoundDuration":73869,"Delta":50108059},{"NoteNumber":62,"Velocity":62,"Duration":73665,"SoundDuration":73665,"Delta":50181928},{"NoteNumber":59,"Velocity":61,"Duration":73394,"SoundDuration":73394,"Delta":50255593},{"NoteNumber":56,"Velocity":59,"Duration":73193,"SoundDuration":73193,"Delta":50328987},{"NoteNumber":53,"Velocity":58,"Duration":72926,"SoundDuration":72926,"Delta":50402181},{"NoteNumber":50,"Velocity":56,"Duration":72727,"SoundDuration":72727,"Delta":50475107},{"NoteNumber":53,"Velocity":55,"Duration":72926,"SoundDuration":72926,"Delta":50547834},{"NoteNumber":56,"Velocity":56,"Duration":73126,"SoundDuration":73126,"Delta":50620761},{"NoteNumber":59,"Velocity":56,"Duration":73327,"SoundDuration":73327,"Delta":50693887},{"NoteNumber":62,"Velocity":57,"Duration":73529,"SoundDuration":73529,"Delta":50767214},{"NoteNumber":35,"Velocity":68,"Duration":104962,"SoundDuration":104962,"Delta":50803979},{"NoteNumber":47,"Velocity":80,"Duration":104962,"SoundDuration":104962,"Delta":50803979},{"NoteNumber":65,"Velocity":58,"Duration":73732,"SoundDuration":73732,"Delta":50840744},{"NoteNumber":68,"Velocity":59,"Duration":73937,"SoundDuration":73937,"Delta":50914476},{"NoteNumber":35,"Velocity":73,"Duration":222429,"SoundDuration":222429,"Delta":50914476},{"NoteNumber":47,"Velocity":87,"Duration":222429,"SoundDuration":222429,"Delta":50914476},{"NoteNumber":71,"Velocity":60,"Duration":74142,"SoundDuration":74142,"Delta":50988414},{"NoteNumber":74,"Velocity":63,"Duration":74349,"SoundDuration":74349,"Delta":51062557},{"NoteNumber":77,"Velocity":65,"Duration":74906,"SoundDuration":74906,"Delta":51136906},{"NoteNumber":35,"Velocity":73,"Duration":995652,"SoundDuration":995652,"Delta":51136906},{"NoteNumber":47,"Velocity":86,"Duration":995652,"SoundDuration":995652,"Delta":51136906},{"NoteNumber":74,"Velocity":64,"Duration":74696,"SoundDuration":74696,"Delta":51211812},{"NoteNumber":71,"Velocity":63,"Duration":74418,"SoundDuration":74418,"Delta":51286509},{"NoteNumber":68,"Velocity":62,"Duration":74211,"SoundDuration":74211,"Delta":51360928},{"NoteNumber":65,"Velocity":61,"Duration":73937,"SoundDuration":73937,"Delta":51435140},{"NoteNumber":62,"Velocity":59,"Duration":73665,"SoundDuration":73665,"Delta":51509077},{"NoteNumber":59,"Velocity":58,"Duration":73461,"SoundDuration":73461,"Delta":51582742},{"NoteNumber":56,"Velocity":57,"Duration":73193,"SoundDuration":73193,"Delta":51656204},{"NoteNumber":53,"Velocity":56,"Duration":72926,"SoundDuration":72926,"Delta":51729397},{"NoteNumber":50,"Velocity":56,"Duration":72727,"SoundDuration":72727,"Delta":51802324},{"NoteNumber":53,"Velocity":55,"Duration":72992,"SoundDuration":72992,"Delta":51875051},{"NoteNumber":56,"Velocity":56,"Duration":73193,"SoundDuration":73193,"Delta":51948044},{"NoteNumber":59,"Velocity":56,"Duration":73938,"SoundDuration":73938,"Delta":52021237},{"NoteNumber":62,"Velocity":57,"Duration":75048,"SoundDuration":75048,"Delta":52095175},{"NoteNumber":35,"Velocity":68,"Duration":108109,"SoundDuration":108109,"Delta":52132558},{"NoteNumber":47,"Velocity":80,"Duration":108109,"SoundDuration":108109,"Delta":52132558},{"NoteNumber":65,"Velocity":58,"Duration":76191,"SoundDuration":76191,"Delta":52170223},{"NoteNumber":68,"Velocity":60,"Duration":57991,"SoundDuration":57991,"Delta":52246415},{"NoteNumber":35,"Velocity":73,"Duration":245974,"SoundDuration":245974,"Delta":52246415},{"NoteNumber":47,"Velocity":87,"Duration":245974,"SoundDuration":245974,"Delta":52246415},{"NoteNumber":71,"Velocity":62,"Duration":58979,"SoundDuration":58979,"Delta":52304406},{"NoteNumber":74,"Velocity":63,"Duration":62234,"SoundDuration":62234,"Delta":52363385},{"NoteNumber":77,"Velocity":66,"Duration":66769,"SoundDuration":66769,"Delta":52425620},{"NoteNumber":66,"Velocity":65,"Duration":365853,"SoundDuration":365853,"Delta":52492390},{"NoteNumber":78,"Velocity":77,"Duration":365853,"SoundDuration":365853,"Delta":52492390},{"NoteNumber":47,"Velocity":49,"Duration":182926,"SoundDuration":182926,"Delta":52492390},{"NoteNumber":63,"Velocity":38,"Duration":501413,"SoundDuration":501413,"Delta":52736292},{"NoteNumber":59,"Velocity":32,"Duration":501413,"SoundDuration":501413,"Delta":52736292},{"NoteNumber":54,"Velocity":32,"Duration":501413,"SoundDuration":501413,"Delta":52736292},{"NoteNumber":78,"Velocity":49,"Duration":115853,"SoundDuration":115853,"Delta":52858244},{"NoteNumber":66,"Velocity":41,"Duration":115853,"SoundDuration":115853,"Delta":52858244},{"NoteNumber":66,"Velocity":44,"Duration":257510,"SoundDuration":257510,"Delta":52980195},{"NoteNumber":78,"Velocity":52,"Duration":257510,"SoundDuration":257510,"Delta":52980195},{"NoteNumber":71,"Velocity":46,"Duration":365853,"SoundDuration":365853,"Delta":53237705},{"NoteNumber":83,"Velocity":55,"Duration":365853,"SoundDuration":365853,"Delta":53237705},{"NoteNumber":51,"Velocity":49,"Duration":182926,"SoundDuration":182926,"Delta":53237705},{"NoteNumber":66,"Velocity":36,"Duration":499221,"SoundDuration":499221,"Delta":53481608},{"NoteNumber":63,"Velocity":30,"Duration":499221,"SoundDuration":499221,"Delta":53481608},{"NoteNumber":59,"Velocity":30,"Duration":499221,"SoundDuration":499221,"Delta":53481608},{"NoteNumber":83,"Velocity":49,"Duration":115853,"SoundDuration":115853,"Delta":53603559},{"NoteNumber":71,"Velocity":41,"Duration":115853,"SoundDuration":115853,"Delta":53603559},{"NoteNumber":71,"Velocity":45,"Duration":255319,"SoundDuration":255319,"Delta":53725510},{"NoteNumber":83,"Velocity":54,"Duration":255319,"SoundDuration":255319,"Delta":53725510},{"NoteNumber":70,"Velocity":46,"Duration":365853,"SoundDuration":365853,"Delta":53980829},{"NoteNumber":82,"Velocity":55,"Duration":365853,"SoundDuration":365853,"Delta":53980829},{"NoteNumber":49,"Velocity":49,"Duration":182926,"SoundDuration":182926,"Delta":53980829},{"NoteNumber":66,"Velocity":36,"Duration":533757,"SoundDuration":533757,"Delta":54224732},{"NoteNumber":64,"Velocity":30,"Duration":533757,"SoundDuration":533757,"Delta":54224732},{"NoteNumber":58,"Velocity":30,"Duration":533757,"SoundDuration":533757,"Delta":54224732},{"NoteNumber":82,"Velocity":49,"Duration":115853,"SoundDuration":115853,"Delta":54346683},{"NoteNumber":70,"Velocity":41,"Duration":115853,"SoundDuration":115853,"Delta":54346683},{"NoteNumber":70,"Velocity":45,"Duration":289855,"SoundDuration":289855,"Delta":54468634},{"NoteNumber":82,"Velocity":54,"Duration":289855,"SoundDuration":289855,"Delta":54468634},{"NoteNumber":76,"Velocity":46,"Duration":812451,"SoundDuration":812451,"Delta":54758489},{"NoteNumber":88,"Velocity":55,"Duration":812451,"SoundDuration":812451,"Delta":54758489},{"NoteNumber":42,"Velocity":49,"Duration":229591,"SoundDuration":229591,"Delta":54758489},{"NoteNumber":66,"Velocity":36,"Duration":506329,"SoundDuration":506329,"Delta":55064612},{"NoteNumber":61,"Velocity":30,"Duration":506329,"SoundDuration":506329,"Delta":55064612},{"NoteNumber":58,"Velocity":30,"Duration":506329,"SoundDuration":506329,"Delta":55064612},{"NoteNumber":75,"Velocity":46,"Duration":365853,"SoundDuration":365853,"Delta":55570941},{"NoteNumber":87,"Velocity":55,"Duration":365853,"SoundDuration":365853,"Delta":55570941},{"NoteNumber":47,"Velocity":49,"Duration":182926,"SoundDuration":182926,"Delta":55570941},{"NoteNumber":66,"Velocity":36,"Duration":499221,"SoundDuration":499221,"Delta":55814843},{"NoteNumber":63,"Velocity":30,"Duration":499221,"SoundDuration":499221,"Delta":55814843},{"NoteNumber":59,"Velocity":30,"Duration":499221,"SoundDuration":499221,"Delta":55814843},{"NoteNumber":87,"Velocity":49,"Duration":115853,"SoundDuration":115853,"Delta":55936795},{"NoteNumber":75,"Velocity":41,"Duration":115853,"SoundDuration":115853,"Delta":55936795},{"NoteNumber":71,"Velocity":45,"Duration":255319,"SoundDuration":255319,"Delta":56058746},{"NoteNumber":83,"Velocity":54,"Duration":255319,"SoundDuration":255319,"Delta":56058746},{"NoteNumber":68,"Velocity":46,"Duration":365853,"SoundDuration":365853,"Delta":56314065},{"NoteNumber":80,"Velocity":55,"Duration":365853,"SoundDuration":365853,"Delta":56314065},{"NoteNumber":40,"Velocity":49,"Duration":182926,"SoundDuration":182926,"Delta":56314065},{"NoteNumber":64,"Velocity":36,"Duration":500313,"SoundDuration":500313,"Delta":56557967},{"NoteNumber":61,"Velocity":30,"Duration":500313,"SoundDuration":500313,"Delta":56557967},{"NoteNumber":56,"Velocity":30,"Duration":500313,"SoundDuration":500313,"Delta":56557967},{"NoteNumber":80,"Velocity":49,"Duration":115853,"SoundDuration":115853,"Delta":56679919},{"NoteNumber":68,"Velocity":41,"Duration":115853,"SoundDuration":115853,"Delta":56679919},{"NoteNumber":73,"Velocity":45,"Duration":256410,"SoundDuration":256410,"Delta":56801870},{"NoteNumber":85,"Velocity":54,"Duration":256410,"SoundDuration":256410,"Delta":56801870},{"NoteNumber":70,"Velocity":46,"Duration":365853,"SoundDuration":365853,"Delta":57058280},{"NoteNumber":82,"Velocity":55,"Duration":365853,"SoundDuration":365853,"Delta":57058280},{"NoteNumber":42,"Velocity":49,"Duration":182926,"SoundDuration":182926,"Delta":57058280},{"NoteNumber":64,"Velocity":36,"Duration":517875,"SoundDuration":517875,"Delta":57302183},{"NoteNumber":58,"Velocity":30,"Duration":517875,"SoundDuration":517875,"Delta":57302183},{"NoteNumber":54,"Velocity":30,"Duration":517875,"SoundDuration":517875,"Delta":57302183},{"NoteNumber":82,"Velocity":49,"Duration":115853,"SoundDuration":115853,"Delta":57424134},{"NoteNumber":70,"Velocity":41,"Duration":115853,"SoundDuration":115853,"Delta":57424134},{"NoteNumber":73,"Velocity":45,"Duration":273972,"SoundDuration":273972,"Delta":57546085},{"NoteNumber":85,"Velocity":54,"Duration":273972,"SoundDuration":273972,"Delta":57546085},{"NoteNumber":66,"Velocity":46,"Duration":385411,"SoundDuration":385411,"Delta":57820058},{"NoteNumber":78,"Velocity":55,"Duration":385411,"SoundDuration":385411,"Delta":57820058},{"NoteNumber":46,"Velocity":49,"Duration":182926,"SoundDuration":182926,"Delta":57820058},{"NoteNumber":64,"Velocity":36,"Duration":545790,"SoundDuration":545790,"Delta":58063960},{"NoteNumber":61,"Velocity":30,"Duration":545790,"SoundDuration":545790,"Delta":58063960},{"NoteNumber":54,"Velocity":30,"Duration":545790,"SoundDuration":545790,"Delta":58063960},{"NoteNumber":87,"Velocity":53,"Duration":137614,"SoundDuration":137614,"Delta":58205470},{"NoteNumber":88,"Velocity":53,"Duration":133333,"SoundDuration":133333,"Delta":58343085},{"NoteNumber":89,"Velocity":53,"Duration":133333,"SoundDuration":133333,"Delta":58476418},{"NoteNumber":78,"Velocity":50,"Duration":371901,"SoundDuration":371901,"Delta":58609751},{"NoteNumber":90,"Velocity":60,"Duration":371901,"SoundDuration":371901,"Delta":58609751},{"NoteNumber":47,"Velocity":45,"Duration":61983,"SoundDuration":61983,"Delta":58609751},{"NoteNumber":54,"Velocity":35,"Duration":123967,"SoundDuration":123967,"Delta":58733718},{"NoteNumber":59,"Velocity":35,"Duration":123967,"SoundDuration":123967,"Delta":58857685},{"NoteNumber":90,"Velocity":53,"Duration":123967,"SoundDuration":123967,"Delta":58981652},{"NoteNumber":78,"Velocity":45,"Duration":123967,"SoundDuration":123967,"Delta":58981652},{"NoteNumber":63,"Velocity":35,"Duration":123967,"SoundDuration":123967,"Delta":58981652},{"NoteNumber":78,"Velocity":48,"Duration":257510,"SoundDuration":257510,"Delta":59105619},{"NoteNumber":90,"Velocity":57,"Duration":257510,"SoundDuration":257510,"Delta":59105619},{"NoteNumber":59,"Velocity":35,"Duration":128755,"SoundDuration":128755,"Delta":59105619},{"NoteNumber":54,"Velocity":35,"Duration":128755,"SoundDuration":128755,"Delta":59234374},{"NoteNumber":83,"Velocity":50,"Duration":370370,"SoundDuration":370370,"Delta":59363130},{"NoteNumber":95,"Velocity":60,"Duration":370370,"SoundDuration":370370,"Delta":59363130},{"NoteNumber":51,"Velocity":45,"Duration":61728,"SoundDuration":61728,"Delta":59363130},{"NoteNumber":59,"Velocity":35,"Duration":123456,"SoundDuration":123456,"Delta":59486586},{"NoteNumber":63,"Velocity":35,"Duration":123456,"SoundDuration":123456,"Delta":59610043},{"NoteNumber":95,"Velocity":53,"Duration":123456,"SoundDuration":123456,"Delta":59733500},{"NoteNumber":83,"Velocity":45,"Duration":123456,"SoundDuration":123456,"Delta":59733500},{"NoteNumber":66,"Velocity":35,"Duration":123456,"SoundDuration":123456,"Delta":59733500},{"NoteNumber":83,"Velocity":49,"Duration":255319,"SoundDuration":255319,"Delta":59856957},{"NoteNumber":95,"Velocity":59,"Duration":255319,"SoundDuration":255319,"Delta":59856957},{"NoteNumber":63,"Velocity":35,"Duration":127659,"SoundDuration":127659,"Delta":59856957},{"NoteNumber":59,"Velocity":35,"Duration":127659,"SoundDuration":127659,"Delta":59984616},{"NoteNumber":82,"Velocity":50,"Duration":365853,"SoundDuration":365853,"Delta":60112276},{"NoteNumber":94,"Velocity":60,"Duration":365853,"SoundDuration":365853,"Delta":60112276},{"NoteNumber":49,"Velocity":50,"Duration":60975,"SoundDuration":60975,"Delta":60112276},{"NoteNumber":58,"Velocity":35,"Duration":121951,"SoundDuration":121951,"Delta":60234227},{"NoteNumber":64,"Velocity":35,"Duration":121951,"SoundDuration":121951,"Delta":60356178},{"NoteNumber":94,"Velocity":53,"Duration":121951,"SoundDuration":121951,"Delta":60478129},{"NoteNumber":82,"Velocity":45,"Duration":121951,"SoundDuration":121951,"Delta":60478129},{"NoteNumber":66,"Velocity":35,"Duration":121951,"SoundDuration":121951,"Delta":60478129},{"NoteNumber":82,"Velocity":49,"Duration":273972,"SoundDuration":273972,"Delta":60600081},{"NoteNumber":94,"Velocity":59,"Duration":273972,"SoundDuration":273972,"Delta":60600081},{"NoteNumber":64,"Velocity":35,"Duration":136986,"SoundDuration":136986,"Delta":60600081},{"NoteNumber":58,"Velocity":35,"Duration":136986,"SoundDuration":136986,"Delta":60737067},{"NoteNumber":88,"Velocity":50,"Duration":768337,"SoundDuration":768337,"Delta":60874053},{"NoteNumber":100,"Velocity":60,"Duration":768337,"SoundDuration":768337,"Delta":60874053},{"NoteNumber":42,"Velocity":47,"Duration":65502,"SoundDuration":65502,"Delta":60874053},{"NoteNumber":58,"Velocity":35,"Duration":131004,"SoundDuration":131004,"Delta":61005057},{"NoteNumber":61,"Velocity":35,"Duration":126582,"SoundDuration":126582,"Delta":61136062},{"NoteNumber":66,"Velocity":35,"Duration":126582,"SoundDuration":126582,"Delta":61262644},{"NoteNumber":61,"Velocity":35,"Duration":126582,"SoundDuration":126582,"Delta":61389226},{"NoteNumber":58,"Velocity":35,"Duration":126582,"SoundDuration":126582,"Delta":61515808},{"NoteNumber":87,"Velocity":50,"Duration":365853,"SoundDuration":365853,"Delta":61642391},{"NoteNumber":99,"Velocity":60,"Duration":365853,"SoundDuration":365853,"Delta":61642391},{"NoteNumber":47,"Velocity":46,"Duration":60975,"SoundDuration":60975,"Delta":61642391},{"NoteNumber":59,"Velocity":35,"Duration":121951,"SoundDuration":121951,"Delta":61764342},{"NoteNumber":63,"Velocity":35,"Duration":121951,"SoundDuration":121951,"Delta":61886293},{"NoteNumber":99,"Velocity":53,"Duration":121951,"SoundDuration":121951,"Delta":62008244},{"NoteNumber":87,"Velocity":45,"Duration":121951,"SoundDuration":121951,"Delta":62008244},{"NoteNumber":66,"Velocity":35,"Duration":121951,"SoundDuration":121951,"Delta":62008244},{"NoteNumber":83,"Velocity":49,"Duration":255319,"SoundDuration":255319,"Delta":62130196},{"NoteNumber":95,"Velocity":59,"Duration":255319,"SoundDuration":255319,"Delta":62130196},{"NoteNumber":63,"Velocity":35,"Duration":127659,"SoundDuration":127659,"Delta":62130196},{"NoteNumber":59,"Velocity":35,"Duration":127659,"SoundDuration":127659,"Delta":62257855},{"NoteNumber":80,"Velocity":50,"Duration":365853,"SoundDuration":365853,"Delta":62385515},{"NoteNumber":92,"Velocity":60,"Duration":365853,"SoundDuration":365853,"Delta":62385515},{"NoteNumber":40,"Velocity":49,"Duration":60975,"SoundDuration":60975,"Delta":62385515},{"NoteNumber":56,"Velocity":35,"Duration":121951,"SoundDuration":121951,"Delta":62507466},{"NoteNumber":61,"Velocity":35,"Duration":121951,"SoundDuration":121951,"Delta":62629417},{"NoteNumber":92,"Velocity":53,"Duration":121951,"SoundDuration":121951,"Delta":62751368},{"NoteNumber":80,"Velocity":45,"Duration":121951,"SoundDuration":121951,"Delta":62751368},{"NoteNumber":64,"Velocity":35,"Duration":121951,"SoundDuration":121951,"Delta":62751368},{"NoteNumber":85,"Velocity":49,"Duration":256410,"SoundDuration":256410,"Delta":62873320},{"NoteNumber":97,"Velocity":59,"Duration":256410,"SoundDuration":256410,"Delta":62873320},{"NoteNumber":61,"Velocity":35,"Duration":128205,"SoundDuration":128205,"Delta":62873320},{"NoteNumber":56,"Velocity":35,"Duration":128205,"SoundDuration":128205,"Delta":63001525},{"NoteNumber":82,"Velocity":50,"Duration":371901,"SoundDuration":371901,"Delta":63129730},{"NoteNumber":94,"Velocity":60,"Duration":371901,"SoundDuration":371901,"Delta":63129730},{"NoteNumber":42,"Velocity":52,"Duration":61983,"SoundDuration":61983,"Delta":63129730},{"NoteNumber":54,"Velocity":35,"Duration":123967,"SoundDuration":123967,"Delta":63253697},{"NoteNumber":58,"Velocity":35,"Duration":123967,"SoundDuration":123967,"Delta":63377664},{"NoteNumber":94,"Velocity":53,"Duration":123967,"SoundDuration":123967,"Delta":63501631},{"NoteNumber":82,"Velocity":45,"Duration":123967,"SoundDuration":123967,"Delta":63501631},{"NoteNumber":64,"Velocity":35,"Duration":123967,"SoundDuration":123967,"Delta":63501631},{"NoteNumber":85,"Velocity":49,"Duration":273972,"SoundDuration":273972,"Delta":63625598},{"NoteNumber":97,"Velocity":59,"Duration":273972,"SoundDuration":273972,"Delta":63625598},{"NoteNumber":58,"Velocity":35,"Duration":136986,"SoundDuration":136986,"Delta":63625598},{"NoteNumber":54,"Velocity":35,"Duration":136986,"SoundDuration":136986,"Delta":63762584},{"NoteNumber":83,"Velocity":50,"Duration":778174,"SoundDuration":778174,"Delta":63899571},{"NoteNumber":95,"Velocity":60,"Duration":778174,"SoundDuration":778174,"Delta":63899571},{"NoteNumber":47,"Velocity":49,"Duration":63025,"SoundDuration":63025,"Delta":63899571},{"NoteNumber":54,"Velocity":35,"Duration":126050,"SoundDuration":126050,"Delta":64025621},{"NoteNumber":59,"Velocity":35,"Duration":126050,"SoundDuration":126050,"Delta":64151672},{"NoteNumber":63,"Velocity":35,"Duration":126050,"SoundDuration":126050,"Delta":64277722},{"NoteNumber":59,"Velocity":35,"Duration":136986,"SoundDuration":136986,"Delta":64403773},{"NoteNumber":54,"Velocity":35,"Duration":136986,"SoundDuration":136986,"Delta":64540759},{"NoteNumber":35,"Velocity":74,"Duration":355731,"SoundDuration":355731,"Delta":64677745},{"NoteNumber":47,"Velocity":88,"Duration":355731,"SoundDuration":355731,"Delta":64677745},{"NoteNumber":66,"Velocity":67,"Duration":118577,"SoundDuration":118577,"Delta":64796322},{"NoteNumber":78,"Velocity":75,"Duration":118577,"SoundDuration":118577,"Delta":64914899},{"NoteNumber":75,"Velocity":63,"Duration":118577,"SoundDuration":118577,"Delta":64914899},{"NoteNumber":71,"Velocity":63,"Duration":118576,"SoundDuration":118576,"Delta":65033476},{"NoteNumber":47,"Velocity":77,"Duration":112648,"SoundDuration":112648,"Delta":65033476},{"NoteNumber":35,"Velocity":65,"Duration":112648,"SoundDuration":112648,"Delta":65033476},{"NoteNumber":75,"Velocity":67,"Duration":123456,"SoundDuration":123456,"Delta":65152053},{"NoteNumber":71,"Velocity":56,"Duration":123456,"SoundDuration":123456,"Delta":65152053},{"NoteNumber":35,"Velocity":71,"Duration":123456,"SoundDuration":123456,"Delta":65152053},{"NoteNumber":47,"Velocity":84,"Duration":123456,"SoundDuration":123456,"Delta":65152053},{"NoteNumber":66,"Velocity":63,"Duration":123456,"SoundDuration":123456,"Delta":65275510},{"NoteNumber":38,"Velocity":75,"Duration":350194,"SoundDuration":350194,"Delta":65398967},{"NoteNumber":50,"Velocity":89,"Duration":350194,"SoundDuration":350194,"Delta":65398967},{"NoteNumber":71,"Velocity":67,"Duration":116731,"SoundDuration":116731,"Delta":65515698},{"NoteNumber":83,"Velocity":76,"Duration":116731,"SoundDuration":116731,"Delta":65632430},{"NoteNumber":80,"Velocity":64,"Duration":116731,"SoundDuration":116731,"Delta":65632430},{"NoteNumber":77,"Velocity":64,"Duration":116731,"SoundDuration":116731,"Delta":65749161},{"NoteNumber":50,"Velocity":77,"Duration":110894,"SoundDuration":110894,"Delta":65749161},{"NoteNumber":38,"Velocity":65,"Duration":110894,"SoundDuration":110894,"Delta":65749161},{"NoteNumber":80,"Velocity":67,"Duration":127659,"SoundDuration":127659,"Delta":65865893},{"NoteNumber":77,"Velocity":56,"Duration":127659,"SoundDuration":127659,"Delta":65865893},{"NoteNumber":38,"Velocity":68,"Duration":127659,"SoundDuration":127659,"Delta":65865893},{"NoteNumber":50,"Velocity":80,"Duration":127659,"SoundDuration":127659,"Delta":65865893},{"NoteNumber":71,"Velocity":63,"Duration":127659,"SoundDuration":127659,"Delta":65993552},{"NoteNumber":39,"Velocity":72,"Duration":358565,"SoundDuration":358565,"Delta":66121212},{"NoteNumber":51,"Velocity":85,"Duration":358565,"SoundDuration":358565,"Delta":66121212},{"NoteNumber":70,"Velocity":67,"Duration":119522,"SoundDuration":119522,"Delta":66240734},{"NoteNumber":82,"Velocity":76,"Duration":119521,"SoundDuration":119521,"Delta":66360256},{"NoteNumber":80,"Velocity":64,"Duration":119521,"SoundDuration":119521,"Delta":66360256},{"NoteNumber":75,"Velocity":64,"Duration":119521,"SoundDuration":119521,"Delta":66360256},{"NoteNumber":70,"Velocity":63,"Duration":119522,"SoundDuration":119522,"Delta":66479778},{"NoteNumber":51,"Velocity":81,"Duration":119522,"SoundDuration":119522,"Delta":66479778},{"NoteNumber":39,"Velocity":69,"Duration":119522,"SoundDuration":119522,"Delta":66479778},{"NoteNumber":78,"Velocity":67,"Duration":136986,"SoundDuration":136986,"Delta":66599300},{"NoteNumber":75,"Velocity":56,"Duration":136986,"SoundDuration":136986,"Delta":66599300},{"NoteNumber":42,"Velocity":70,"Duration":136986,"SoundDuration":136986,"Delta":66599300},{"NoteNumber":54,"Velocity":83,"Duration":136986,"SoundDuration":136986,"Delta":66599300},{"NoteNumber":70,"Velocity":63,"Duration":136986,"SoundDuration":136986,"Delta":66736286},{"NoteNumber":46,"Velocity":75,"Duration":738850,"SoundDuration":738850,"Delta":66873272},{"NoteNumber":58,"Velocity":89,"Duration":738850,"SoundDuration":738850,"Delta":66873272},{"NoteNumber":65,"Velocity":67,"Duration":125523,"SoundDuration":125523,"Delta":66998795},{"NoteNumber":77,"Velocity":77,"Duration":121951,"SoundDuration":121951,"Delta":67124318},{"NoteNumber":75,"Velocity":65,"Duration":121951,"SoundDuration":121951,"Delta":67124318},{"NoteNumber":70,"Velocity":65,"Duration":121951,"SoundDuration":121951,"Delta":67124318},{"NoteNumber":65,"Velocity":64,"Duration":121951,"SoundDuration":121951,"Delta":67246269},{"NoteNumber":70,"Velocity":56,"Duration":121951,"SoundDuration":121951,"Delta":67368221},{"NoteNumber":74,"Velocity":67,"Duration":121951,"SoundDuration":121951,"Delta":67368221},{"NoteNumber":65,"Velocity":63,"Duration":121951,"SoundDuration":121951,"Delta":67490172},{"NoteNumber":37,"Velocity":74,"Duration":355731,"SoundDuration":355731,"Delta":67612123},{"NoteNumber":49,"Velocity":88,"Duration":355731,"SoundDuration":355731,"Delta":67612123},{"NoteNumber":68,"Velocity":67,"Duration":118577,"SoundDuration":118577,"Delta":67730700},{"NoteNumber":80,"Velocity":75,"Duration":118577,"SoundDuration":118577,"Delta":67849277},{"NoteNumber":77,"Velocity":63,"Duration":118577,"SoundDuration":118577,"Delta":67849277},{"NoteNumber":73,"Velocity":63,"Duration":118576,"SoundDuration":118576,"Delta":67967854},{"NoteNumber":49,"Velocity":77,"Duration":112648,"SoundDuration":112648,"Delta":67967854},{"NoteNumber":37,"Velocity":65,"Duration":112648,"SoundDuration":112648,"Delta":67967854},{"NoteNumber":77,"Velocity":67,"Duration":123456,"SoundDuration":123456,"Delta":68086431},{"NoteNumber":73,"Velocity":56,"Duration":123456,"SoundDuration":123456,"Delta":68086431},{"NoteNumber":37,"Velocity":71,"Duration":123456,"SoundDuration":123456,"Delta":68086431},{"NoteNumber":49,"Velocity":84,"Duration":123456,"SoundDuration":123456,"Delta":68086431},{"NoteNumber":68,"Velocity":63,"Duration":123456,"SoundDuration":123456,"Delta":68209888},{"NoteNumber":40,"Velocity":75,"Duration":350194,"SoundDuration":350194,"Delta":68333345},{"NoteNumber":52,"Velocity":89,"Duration":350194,"SoundDuration":350194,"Delta":68333345},{"NoteNumber":73,"Velocity":67,"Duration":116731,"SoundDuration":116731,"Delta":68450076},{"NoteNumber":85,"Velocity":76,"Duration":116731,"SoundDuration":116731,"Delta":68566808},{"NoteNumber":82,"Velocity":64,"Duration":116731,"SoundDuration":116731,"Delta":68566808},{"NoteNumber":79,"Velocity":64,"Duration":116731,"SoundDuration":116731,"Delta":68683539},{"NoteNumber":52,"Velocity":77,"Duration":110894,"SoundDuration":110894,"Delta":68683539},{"NoteNumber":40,"Velocity":65,"Duration":110894,"SoundDuration":110894,"Delta":68683539},{"NoteNumber":82,"Velocity":67,"Duration":127659,"SoundDuration":127659,"Delta":68800271},{"NoteNumber":79,"Velocity":56,"Duration":127659,"SoundDuration":127659,"Delta":68800271},{"NoteNumber":40,"Velocity":68,"Duration":127659,"SoundDuration":127659,"Delta":68800271},{"NoteNumber":52,"Velocity":80,"Duration":127659,"SoundDuration":127659,"Delta":68800271},{"NoteNumber":73,"Velocity":63,"Duration":127659,"SoundDuration":127659,"Delta":68927930},{"NoteNumber":41,"Velocity":72,"Duration":358565,"SoundDuration":358565,"Delta":69055590},{"NoteNumber":53,"Velocity":85,"Duration":358565,"SoundDuration":358565,"Delta":69055590},{"NoteNumber":72,"Velocity":67,"Duration":119522,"SoundDuration":119522,"Delta":69175112},{"NoteNumber":84,"Velocity":76,"Duration":119521,"SoundDuration":119521,"Delta":69294634},{"NoteNumber":82,"Velocity":64,"Duration":119521,"SoundDuration":119521,"Delta":69294634},{"NoteNumber":79,"Velocity":64,"Duration":119521,"SoundDuration":119521,"Delta":69294634},{"NoteNumber":72,"Velocity":63,"Duration":119522,"SoundDuration":119522,"Delta":69414156},{"NoteNumber":53,"Velocity":81,"Duration":119522,"SoundDuration":119522,"Delta":69414156},{"NoteNumber":41,"Velocity":69,"Duration":119522,"SoundDuration":119522,"Delta":69414156},{"NoteNumber":80,"Velocity":67,"Duration":136986,"SoundDuration":136986,"Delta":69533678},{"NoteNumber":77,"Velocity":56,"Duration":136986,"SoundDuration":136986,"Delta":69533678},{"NoteNumber":44,"Velocity":70,"Duration":136986,"SoundDuration":136986,"Delta":69533678},{"NoteNumber":56,"Velocity":83,"Duration":136986,"SoundDuration":136986,"Delta":69533678},{"NoteNumber":72,"Velocity":63,"Duration":136986,"SoundDuration":136986,"Delta":69670664},{"NoteNumber":48,"Velocity":75,"Duration":738850,"SoundDuration":738850,"Delta":69807650},{"NoteNumber":60,"Velocity":89,"Duration":738850,"SoundDuration":738850,"Delta":69807650},{"NoteNumber":67,"Velocity":67,"Duration":125523,"SoundDuration":125523,"Delta":69933173},{"NoteNumber":79,"Velocity":77,"Duration":121951,"SoundDuration":121951,"Delta":70058696},{"NoteNumber":77,"Velocity":65,"Duration":121951,"SoundDuration":121951,"Delta":70058696},{"NoteNumber":72,"Velocity":65,"Duration":121951,"SoundDuration":121951,"Delta":70058696},{"NoteNumber":67,"Velocity":64,"Duration":121951,"SoundDuration":121951,"Delta":70180647},{"NoteNumber":72,"Velocity":56,"Duration":121951,"SoundDuration":121951,"Delta":70302599},{"NoteNumber":76,"Velocity":67,"Duration":121951,"SoundDuration":121951,"Delta":70302599},{"NoteNumber":67,"Velocity":63,"Duration":121951,"SoundDuration":121951,"Delta":70424550},{"NoteNumber":39,"Velocity":77,"Duration":355731,"SoundDuration":355731,"Delta":70546501},{"NoteNumber":51,"Velocity":92,"Duration":355731,"SoundDuration":355731,"Delta":70546501},{"NoteNumber":70,"Velocity":70,"Duration":118577,"SoundDuration":118577,"Delta":70665078},{"NoteNumber":82,"Velocity":78,"Duration":118577,"SoundDuration":118577,"Delta":70783655},{"NoteNumber":79,"Velocity":66,"Duration":118577,"SoundDuration":118577,"Delta":70783655},{"NoteNumber":75,"Velocity":66,"Duration":118576,"SoundDuration":118576,"Delta":70902232},{"NoteNumber":51,"Velocity":80,"Duration":112648,"SoundDuration":112648,"Delta":70902232},{"NoteNumber":39,"Velocity":68,"Duration":112648,"SoundDuration":112648,"Delta":70902232},{"NoteNumber":79,"Velocity":71,"Duration":123456,"SoundDuration":123456,"Delta":71020809},{"NoteNumber":75,"Velocity":59,"Duration":123456,"SoundDuration":123456,"Delta":71020809},{"NoteNumber":39,"Velocity":75,"Duration":123456,"SoundDuration":123456,"Delta":71020809},{"NoteNumber":51,"Velocity":89,"Duration":123456,"SoundDuration":123456,"Delta":71020809},{"NoteNumber":70,"Velocity":66,"Duration":123456,"SoundDuration":123456,"Delta":71144266},{"NoteNumber":43,"Velocity":79,"Duration":350194,"SoundDuration":350194,"Delta":71267723},{"NoteNumber":55,"Velocity":94,"Duration":350194,"SoundDuration":350194,"Delta":71267723},{"NoteNumber":76,"Velocity":71,"Duration":116731,"SoundDuration":116731,"Delta":71384454},{"NoteNumber":88,"Velocity":81,"Duration":116731,"SoundDuration":116731,"Delta":71501186},{"NoteNumber":85,"Velocity":68,"Duration":116731,"SoundDuration":116731,"Delta":71501186},{"NoteNumber":82,"Velocity":68,"Duration":116731,"SoundDuration":116731,"Delta":71617917},{"NoteNumber":55,"Velocity":82,"Duration":110894,"SoundDuration":110894,"Delta":71617917},{"NoteNumber":43,"Velocity":69,"Duration":110894,"SoundDuration":110894,"Delta":71617917},{"NoteNumber":85,"Velocity":71,"Duration":127659,"SoundDuration":127659,"Delta":71734649},{"NoteNumber":82,"Velocity":59,"Duration":127659,"SoundDuration":127659,"Delta":71734649},{"NoteNumber":43,"Velocity":72,"Duration":127659,"SoundDuration":127659,"Delta":71734649},{"NoteNumber":55,"Velocity":85,"Duration":127659,"SoundDuration":127659,"Delta":71734649},{"NoteNumber":76,"Velocity":68,"Duration":127659,"SoundDuration":127659,"Delta":71862308},{"NoteNumber":44,"Velocity":77,"Duration":358565,"SoundDuration":358565,"Delta":71989968},{"NoteNumber":56,"Velocity":91,"Duration":358565,"SoundDuration":358565,"Delta":71989968},{"NoteNumber":75,"Velocity":72,"Duration":119522,"SoundDuration":119522,"Delta":72109490},{"NoteNumber":87,"Velocity":82,"Duration":119521,"SoundDuration":119521,"Delta":72229012},{"NoteNumber":85,"Velocity":69,"Duration":119521,"SoundDuration":119521,"Delta":72229012},{"NoteNumber":82,"Velocity":69,"Duration":119521,"SoundDuration":119521,"Delta":72229012},{"NoteNumber":75,"Velocity":68,"Duration":119522,"SoundDuration":119522,"Delta":72348534},{"NoteNumber":56,"Velocity":88,"Duration":119522,"SoundDuration":119522,"Delta":72348534},{"NoteNumber":44,"Velocity":75,"Duration":119522,"SoundDuration":119522,"Delta":72348534},{"NoteNumber":83,"Velocity":73,"Duration":136986,"SoundDuration":136986,"Delta":72468056},{"NoteNumber":80,"Velocity":61,"Duration":136986,"SoundDuration":136986,"Delta":72468056},{"NoteNumber":47,"Velocity":76,"Duration":136986,"SoundDuration":136986,"Delta":72468056},{"NoteNumber":59,"Velocity":90,"Duration":136986,"SoundDuration":136986,"Delta":72468056},{"NoteNumber":75,"Velocity":68,"Duration":136986,"SoundDuration":136986,"Delta":72605042},{"NoteNumber":51,"Velocity":78,"Duration":731927,"SoundDuration":731927,"Delta":72742028},{"NoteNumber":63,"Velocity":93,"Duration":731927,"SoundDuration":731927,"Delta":72742028},{"NoteNumber":70,"Velocity":70,"Duration":125000,"SoundDuration":125000,"Delta":72867028},{"NoteNumber":82,"Velocity":80,"Duration":120481,"SoundDuration":120481,"Delta":72992028},{"NoteNumber":80,"Velocity":68,"Duration":120481,"SoundDuration":120481,"Delta":72992028},{"NoteNumber":75,"Velocity":68,"Duration":120481,"SoundDuration":120481,"Delta":72992028},{"NoteNumber":70,"Velocity":67,"Duration":120482,"SoundDuration":120482,"Delta":73112510},{"NoteNumber":75,"Velocity":58,"Duration":120481,"SoundDuration":120481,"Delta":73232992},{"NoteNumber":79,"Velocity":70,"Duration":120481,"SoundDuration":120481,"Delta":73232992},{"NoteNumber":70,"Velocity":66,"Duration":120481,"SoundDuration":120481,"Delta":73353474},{"NoteNumber":76,"Velocity":80,"Duration":319148,"SoundDuration":319148,"Delta":73473956},{"NoteNumber":79,"Velocity":80,"Duration":319148,"SoundDuration":319148,"Delta":73473956},{"NoteNumber":82,"Velocity":80,"Duration":319148,"SoundDuration":319148,"Delta":73473956},{"NoteNumber":88,"Velocity":95,"Duration":319148,"SoundDuration":319148,"Delta":73473956},{"NoteNumber":49,"Velocity":68,"Duration":319148,"SoundDuration":319148,"Delta":73473956},{"NoteNumber":61,"Velocity":81,"Duration":319148,"SoundDuration":319148,"Delta":73473956},{"NoteNumber":76,"Velocity":76,"Duration":101063,"SoundDuration":101063,"Delta":73793105},{"NoteNumber":79,"Velocity":76,"Duration":101063,"SoundDuration":101063,"Delta":73793105},{"NoteNumber":82,"Velocity":76,"Duration":101063,"SoundDuration":101063,"Delta":73793105},{"NoteNumber":88,"Velocity":90,"Duration":101063,"SoundDuration":101063,"Delta":73793105},{"NoteNumber":49,"Velocity":62,"Duration":101063,"SoundDuration":101063,"Delta":73793105},{"NoteNumber":61,"Velocity":73,"Duration":101063,"SoundDuration":101063,"Delta":73793105},{"NoteNumber":76,"Velocity":79,"Duration":238095,"SoundDuration":238095,"Delta":73899488},{"NoteNumber":79,"Velocity":79,"Duration":238095,"SoundDuration":238095,"Delta":73899488},{"NoteNumber":82,"Velocity":79,"Duration":238095,"SoundDuration":238095,"Delta":73899488},{"NoteNumber":88,"Velocity":94,"Duration":238095,"SoundDuration":238095,"Delta":73899488},{"NoteNumber":49,"Velocity":69,"Duration":238095,"SoundDuration":238095,"Delta":73899488},{"NoteNumber":61,"Velocity":82,"Duration":238095,"SoundDuration":238095,"Delta":73899488},{"NoteNumber":76,"Velocity":80,"Duration":316901,"SoundDuration":316901,"Delta":74137583},{"NoteNumber":79,"Velocity":80,"Duration":316901,"SoundDuration":316901,"Delta":74137583},{"NoteNumber":82,"Velocity":80,"Duration":316901,"SoundDuration":316901,"Delta":74137583},{"NoteNumber":88,"Velocity":95,"Duration":316901,"SoundDuration":316901,"Delta":74137583},{"NoteNumber":49,"Velocity":62,"Duration":316901,"SoundDuration":316901,"Delta":74137583},{"NoteNumber":61,"Velocity":86,"Duration":316901,"SoundDuration":316901,"Delta":74137583},{"NoteNumber":76,"Velocity":76,"Duration":100352,"SoundDuration":100352,"Delta":74454484},{"NoteNumber":79,"Velocity":76,"Duration":100352,"SoundDuration":100352,"Delta":74454484},{"NoteNumber":82,"Velocity":76,"Duration":100352,"SoundDuration":100352,"Delta":74454484},{"NoteNumber":88,"Velocity":90,"Duration":100352,"SoundDuration":100352,"Delta":74454484},{"NoteNumber":49,"Velocity":61,"Duration":100352,"SoundDuration":100352,"Delta":74454484},{"NoteNumber":61,"Velocity":72,"Duration":100352,"SoundDuration":100352,"Delta":74454484},{"NoteNumber":76,"Velocity":79,"Duration":238095,"SoundDuration":238095,"Delta":74560118},{"NoteNumber":79,"Velocity":79,"Duration":238095,"SoundDuration":238095,"Delta":74560118},{"NoteNumber":82,"Velocity":79,"Duration":238095,"SoundDuration":238095,"Delta":74560118},{"NoteNumber":88,"Velocity":94,"Duration":238095,"SoundDuration":238095,"Delta":74560118},{"NoteNumber":49,"Velocity":67,"Duration":238095,"SoundDuration":238095,"Delta":74560118},{"NoteNumber":61,"Velocity":79,"Duration":238095,"SoundDuration":238095,"Delta":74560118},{"NoteNumber":76,"Velocity":62,"Duration":79364,"SoundDuration":79364,"Delta":74798213},{"NoteNumber":82,"Velocity":62,"Duration":79364,"SoundDuration":79364,"Delta":74798213},{"NoteNumber":79,"Velocity":62,"Duration":79364,"SoundDuration":79364,"Delta":74798213},{"NoteNumber":88,"Velocity":74,"Duration":79364,"SoundDuration":79364,"Delta":74798213},{"NoteNumber":49,"Velocity":89,"Duration":339452,"SoundDuration":339452,"Delta":74798213},{"NoteNumber":61,"Velocity":89,"Duration":339452,"SoundDuration":339452,"Delta":74798213},{"NoteNumber":85,"Velocity":67,"Duration":74626,"SoundDuration":74626,"Delta":74877578},{"NoteNumber":82,"Velocity":66,"Duration":74349,"SoundDuration":74349,"Delta":74952205},{"NoteNumber":79,"Velocity":65,"Duration":74142,"SoundDuration":74142,"Delta":75026554},{"NoteNumber":76,"Velocity":65,"Duration":73869,"SoundDuration":73869,"Delta":75100697},{"NoteNumber":37,"Velocity":78,"Duration":110565,"SoundDuration":110565,"Delta":75137666},{"NoteNumber":49,"Velocity":78,"Duration":110565,"SoundDuration":110565,"Delta":75137666},{"NoteNumber":73,"Velocity":64,"Duration":73664,"SoundDuration":73664,"Delta":75174566},{"NoteNumber":70,"Velocity":63,"Duration":73394,"SoundDuration":73394,"Delta":75248231},{"NoteNumber":37,"Velocity":86,"Duration":881313,"SoundDuration":881313,"Delta":75248231},{"NoteNumber":49,"Velocity":86,"Duration":881313,"SoundDuration":881313,"Delta":75248231},{"NoteNumber":67,"Velocity":63,"Duration":73193,"SoundDuration":73193,"Delta":75321626},{"NoteNumber":64,"Velocity":63,"Duration":72926,"SoundDuration":72926,"Delta":75394819},{"NoteNumber":61,"Velocity":63,"Duration":72727,"SoundDuration":72727,"Delta":75467745},{"NoteNumber":64,"Velocity":62,"Duration":72926,"SoundDuration":72926,"Delta":75540473},{"NoteNumber":67,"Velocity":63,"Duration":73126,"SoundDuration":73126,"Delta":75613399},{"NoteNumber":70,"Velocity":63,"Duration":73327,"SoundDuration":73327,"Delta":75686525},{"NoteNumber":73,"Velocity":64,"Duration":73529,"SoundDuration":73529,"Delta":75759853},{"NoteNumber":76,"Velocity":65,"Duration":73732,"SoundDuration":73732,"Delta":75833382},{"NoteNumber":79,"Velocity":66,"Duration":73937,"SoundDuration":73937,"Delta":75907115},{"NoteNumber":82,"Velocity":67,"Duration":74142,"SoundDuration":74142,"Delta":75981052},{"NoteNumber":85,"Velocity":70,"Duration":74349,"SoundDuration":74349,"Delta":76055195},{"NoteNumber":77,"Velocity":80,"Duration":320284,"SoundDuration":320284,"Delta":76129545},{"NoteNumber":80,"Velocity":80,"Duration":320284,"SoundDuration":320284,"Delta":76129545},{"NoteNumber":83,"Velocity":80,"Duration":320284,"SoundDuration":320284,"Delta":76129545},{"NoteNumber":89,"Velocity":95,"Duration":320284,"SoundDuration":320284,"Delta":76129545},{"NoteNumber":50,"Velocity":68,"Duration":320284,"SoundDuration":320284,"Delta":76129545},{"NoteNumber":62,"Velocity":81,"Duration":320284,"SoundDuration":320284,"Delta":76129545},{"NoteNumber":77,"Velocity":76,"Duration":101423,"SoundDuration":101423,"Delta":76449829},{"NoteNumber":80,"Velocity":76,"Duration":101423,"SoundDuration":101423,"Delta":76449829},{"NoteNumber":83,"Velocity":76,"Duration":101423,"SoundDuration":101423,"Delta":76449829},{"NoteNumber":89,"Velocity":90,"Duration":101423,"SoundDuration":101423,"Delta":76449829},{"NoteNumber":50,"Velocity":62,"Duration":101423,"SoundDuration":101423,"Delta":76449829},{"NoteNumber":62,"Velocity":73,"Duration":101423,"SoundDuration":101423,"Delta":76449829},{"NoteNumber":77,"Velocity":79,"Duration":238095,"SoundDuration":238095,"Delta":76556591},{"NoteNumber":80,"Velocity":79,"Duration":238095,"SoundDuration":238095,"Delta":76556591},{"NoteNumber":83,"Velocity":79,"Duration":238095,"SoundDuration":238095,"Delta":76556591},{"NoteNumber":89,"Velocity":94,"Duration":238095,"SoundDuration":238095,"Delta":76556591},{"NoteNumber":50,"Velocity":69,"Duration":238095,"SoundDuration":238095,"Delta":76556591},{"NoteNumber":62,"Velocity":82,"Duration":238095,"SoundDuration":238095,"Delta":76556591},{"NoteNumber":77,"Velocity":80,"Duration":318021,"SoundDuration":318021,"Delta":76794686},{"NoteNumber":80,"Velocity":80,"Duration":318021,"SoundDuration":318021,"Delta":76794686},{"NoteNumber":83,"Velocity":80,"Duration":318021,"SoundDuration":318021,"Delta":76794686},{"NoteNumber":89,"Velocity":95,"Duration":318021,"SoundDuration":318021,"Delta":76794686},{"NoteNumber":50,"Velocity":62,"Duration":318021,"SoundDuration":318021,"Delta":76794686},{"NoteNumber":62,"Velocity":86,"Duration":318021,"SoundDuration":318021,"Delta":76794686},{"NoteNumber":77,"Velocity":76,"Duration":100706,"SoundDuration":100706,"Delta":77112707},{"NoteNumber":80,"Velocity":76,"Duration":100706,"SoundDuration":100706,"Delta":77112707},{"NoteNumber":83,"Velocity":76,"Duration":100706,"SoundDuration":100706,"Delta":77112707},{"NoteNumber":89,"Velocity":90,"Duration":100706,"SoundDuration":100706,"Delta":77112707},{"NoteNumber":50,"Velocity":61,"Duration":100706,"SoundDuration":100706,"Delta":77112707},{"NoteNumber":62,"Velocity":72,"Duration":100706,"SoundDuration":100706,"Delta":77112707},{"NoteNumber":77,"Velocity":79,"Duration":238095,"SoundDuration":238095,"Delta":77218714},{"NoteNumber":80,"Velocity":79,"Duration":238095,"SoundDuration":238095,"Delta":77218714},{"NoteNumber":83,"Velocity":79,"Duration":238095,"SoundDuration":238095,"Delta":77218714},{"NoteNumber":89,"Velocity":94,"Duration":238095,"SoundDuration":238095,"Delta":77218714},{"NoteNumber":50,"Velocity":67,"Duration":238095,"SoundDuration":238095,"Delta":77218714},{"NoteNumber":62,"Velocity":79,"Duration":238095,"SoundDuration":238095,"Delta":77218714},{"NoteNumber":77,"Velocity":62,"Duration":79364,"SoundDuration":79364,"Delta":77456809},{"NoteNumber":80,"Velocity":62,"Duration":79364,"SoundDuration":79364,"Delta":77456809},{"NoteNumber":89,"Velocity":74,"Duration":79364,"SoundDuration":79364,"Delta":77456809},{"NoteNumber":50,"Velocity":89,"Duration":339452,"SoundDuration":339452,"Delta":77456809},{"NoteNumber":62,"Velocity":89,"Duration":339452,"SoundDuration":339452,"Delta":77456809},{"NoteNumber":83,"Velocity":67,"Duration":74626,"SoundDuration":74626,"Delta":77536174},{"NoteNumber":80,"Velocity":66,"Duration":74349,"SoundDuration":74349,"Delta":77610800},{"NoteNumber":77,"Velocity":65,"Duration":74142,"SoundDuration":74142,"Delta":77685150},{"NoteNumber":71,"Velocity":65,"Duration":73869,"SoundDuration":73869,"Delta":77759293},{"NoteNumber":38,"Velocity":78,"Duration":110565,"SoundDuration":110565,"Delta":77796262},{"NoteNumber":50,"Velocity":78,"Duration":110565,"SoundDuration":110565,"Delta":77796262},{"NoteNumber":68,"Velocity":64,"Duration":73664,"SoundDuration":73664,"Delta":77833162},{"NoteNumber":65,"Velocity":63,"Duration":73394,"SoundDuration":73394,"Delta":77906827},{"NoteNumber":38,"Velocity":86,"Duration":881313,"SoundDuration":881313,"Delta":77906827},{"NoteNumber":50,"Velocity":86,"Duration":881313,"SoundDuration":881313,"Delta":77906827},{"NoteNumber":59,"Velocity":63,"Duration":73193,"SoundDuration":73193,"Delta":77980222},{"NoteNumber":56,"Velocity":63,"Duration":72926,"SoundDuration":72926,"Delta":78053415},{"NoteNumber":53,"Velocity":63,"Duration":72727,"SoundDuration":72727,"Delta":78126341},{"NoteNumber":56,"Velocity":62,"Duration":72926,"SoundDuration":72926,"Delta":78199068},{"NoteNumber":59,"Velocity":63,"Duration":73126,"SoundDuration":73126,"Delta":78271995},{"NoteNumber":65,"Velocity":63,"Duration":73327,"SoundDuration":73327,"Delta":78345121},{"NoteNumber":68,"Velocity":64,"Duration":73529,"SoundDuration":73529,"Delta":78418448},{"NoteNumber":71,"Velocity":65,"Duration":73732,"SoundDuration":73732,"Delta":78491978},{"NoteNumber":77,"Velocity":66,"Duration":73937,"SoundDuration":73937,"Delta":78565711},{"NoteNumber":80,"Velocity":67,"Duration":74142,"SoundDuration":74142,"Delta":78639648},{"NoteNumber":83,"Velocity":70,"Duration":74349,"SoundDuration":74349,"Delta":78713791},{"NoteNumber":80,"Velocity":80,"Duration":319148,"SoundDuration":319148,"Delta":78788140},{"NoteNumber":83,"Velocity":80,"Duration":319148,"SoundDuration":319148,"Delta":78788140},{"NoteNumber":86,"Velocity":80,"Duration":319148,"SoundDuration":319148,"Delta":78788140},{"NoteNumber":92,"Velocity":95,"Duration":319148,"SoundDuration":319148,"Delta":78788140},{"NoteNumber":52,"Velocity":68,"Duration":319148,"SoundDuration":319148,"Delta":78788140},{"NoteNumber":64,"Velocity":81,"Duration":319148,"SoundDuration":319148,"Delta":78788140},{"NoteNumber":80,"Velocity":76,"Duration":101063,"SoundDuration":101063,"Delta":79107289},{"NoteNumber":83,"Velocity":76,"Duration":101063,"SoundDuration":101063,"Delta":79107289},{"NoteNumber":86,"Velocity":76,"Duration":101063,"SoundDuration":101063,"Delta":79107289},{"NoteNumber":92,"Velocity":90,"Duration":101063,"SoundDuration":101063,"Delta":79107289},{"NoteNumber":52,"Velocity":62,"Duration":101063,"SoundDuration":101063,"Delta":79107289},{"NoteNumber":64,"Velocity":73,"Duration":101063,"SoundDuration":101063,"Delta":79107289},{"NoteNumber":80,"Velocity":79,"Duration":238095,"SoundDuration":238095,"Delta":79213672},{"NoteNumber":83,"Velocity":79,"Duration":238095,"SoundDuration":238095,"Delta":79213672},{"NoteNumber":86,"Velocity":79,"Duration":238095,"SoundDuration":238095,"Delta":79213672},{"NoteNumber":92,"Velocity":94,"Duration":238095,"SoundDuration":238095,"Delta":79213672},{"NoteNumber":52,"Velocity":69,"Duration":238095,"SoundDuration":238095,"Delta":79213672},{"NoteNumber":64,"Velocity":82,"Duration":238095,"SoundDuration":238095,"Delta":79213672},{"NoteNumber":80,"Velocity":80,"Duration":316901,"SoundDuration":316901,"Delta":79451767},{"NoteNumber":83,"Velocity":80,"Duration":316901,"SoundDuration":316901,"Delta":79451767},{"NoteNumber":86,"Velocity":80,"Duration":316901,"SoundDuration":316901,"Delta":79451767},{"NoteNumber":92,"Velocity":95,"Duration":316901,"SoundDuration":316901,"Delta":79451767},{"NoteNumber":52,"Velocity":62,"Duration":316901,"SoundDuration":316901,"Delta":79451767},{"NoteNumber":64,"Velocity":86,"Duration":316901,"SoundDuration":316901,"Delta":79451767},{"NoteNumber":80,"Velocity":76,"Duration":100352,"SoundDuration":100352,"Delta":79768668},{"NoteNumber":83,"Velocity":76,"Duration":100352,"SoundDuration":100352,"Delta":79768668},{"NoteNumber":86,"Velocity":76,"Duration":100352,"SoundDuration":100352,"Delta":79768668},{"NoteNumber":92,"Velocity":90,"Duration":100352,"SoundDuration":100352,"Delta":79768668},{"NoteNumber":52,"Velocity":61,"Duration":100352,"SoundDuration":100352,"Delta":79768668},{"NoteNumber":64,"Velocity":72,"Duration":100352,"SoundDuration":100352,"Delta":79768668},{"NoteNumber":80,"Velocity":79,"Duration":238095,"SoundDuration":238095,"Delta":79874302},{"NoteNumber":83,"Velocity":79,"Duration":238095,"SoundDuration":238095,"Delta":79874302},{"NoteNumber":86,"Velocity":79,"Duration":238095,"SoundDuration":238095,"Delta":79874302},{"NoteNumber":92,"Velocity":94,"Duration":238095,"SoundDuration":238095,"Delta":79874302},{"NoteNumber":52,"Velocity":67,"Duration":238095,"SoundDuration":238095,"Delta":79874302},{"NoteNumber":64,"Velocity":79,"Duration":238095,"SoundDuration":238095,"Delta":79874302},{"NoteNumber":80,"Velocity":62,"Duration":79364,"SoundDuration":79364,"Delta":80112397},{"NoteNumber":83,"Velocity":62,"Duration":79364,"SoundDuration":79364,"Delta":80112397},{"NoteNumber":92,"Velocity":74,"Duration":79364,"SoundDuration":79364,"Delta":80112397},{"NoteNumber":52,"Velocity":89,"Duration":339452,"SoundDuration":339452,"Delta":80112397},{"NoteNumber":64,"Velocity":89,"Duration":339452,"SoundDuration":339452,"Delta":80112397},{"NoteNumber":86,"Velocity":67,"Duration":74626,"SoundDuration":74626,"Delta":80191762},{"NoteNumber":83,"Velocity":66,"Duration":74349,"SoundDuration":74349,"Delta":80266389},{"NoteNumber":80,"Velocity":65,"Duration":74142,"SoundDuration":74142,"Delta":80340739},{"NoteNumber":74,"Velocity":65,"Duration":73869,"SoundDuration":73869,"Delta":80414881},{"NoteNumber":40,"Velocity":78,"Duration":110565,"SoundDuration":110565,"Delta":80451850},{"NoteNumber":52,"Velocity":78,"Duration":110565,"SoundDuration":110565,"Delta":80451850},{"NoteNumber":71,"Velocity":64,"Duration":73664,"SoundDuration":73664,"Delta":80488750},{"NoteNumber":68,"Velocity":63,"Duration":73394,"SoundDuration":73394,"Delta":80562415},{"NoteNumber":40,"Velocity":86,"Duration":899987,"SoundDuration":899987,"Delta":80562415},{"NoteNumber":52,"Velocity":86,"Duration":899987,"SoundDuration":899987,"Delta":80562415},{"NoteNumber":62,"Velocity":63,"Duration":73193,"SoundDuration":73193,"Delta":80635810},{"NoteNumber":59,"Velocity":63,"Duration":72926,"SoundDuration":72926,"Delta":80709003},{"NoteNumber":56,"Velocity":63,"Duration":72727,"SoundDuration":72727,"Delta":80781930},{"NoteNumber":59,"Velocity":62,"Duration":72926,"SoundDuration":72926,"Delta":80854657},{"NoteNumber":62,"Velocity":63,"Duration":73126,"SoundDuration":73126,"Delta":80927583},{"NoteNumber":68,"Velocity":63,"Duration":73327,"SoundDuration":73327,"Delta":81000710},{"NoteNumber":71,"Velocity":64,"Duration":73529,"SoundDuration":73529,"Delta":81074037},{"NoteNumber":74,"Velocity":65,"Duration":73732,"SoundDuration":73732,"Delta":81147566},{"NoteNumber":80,"Velocity":66,"Duration":73937,"SoundDuration":73937,"Delta":81221299},{"NoteNumber":83,"Velocity":67,"Duration":74142,"SoundDuration":74142,"Delta":81295236},{"NoteNumber":92,"Velocity":70,"Duration":93023,"SoundDuration":93023,"Delta":81369379},{"NoteNumber":75,"Velocity":80,"Duration":318021,"SoundDuration":318021,"Delta":81462403},{"NoteNumber":79,"Velocity":80,"Duration":318021,"SoundDuration":318021,"Delta":81462403},{"NoteNumber":82,"Velocity":80,"Duration":318021,"SoundDuration":318021,"Delta":81462403},{"NoteNumber":87,"Velocity":95,"Duration":318021,"SoundDuration":318021,"Delta":81462403},{"NoteNumber":58,"Velocity":68,"Duration":318021,"SoundDuration":318021,"Delta":81462403},{"NoteNumber":51,"Velocity":68,"Duration":318021,"SoundDuration":318021,"Delta":81462403},{"NoteNumber":55,"Velocity":68,"Duration":318021,"SoundDuration":318021,"Delta":81462403},{"NoteNumber":63,"Velocity":81,"Duration":318021,"SoundDuration":318021,"Delta":81462403},{"NoteNumber":75,"Velocity":90,"Duration":100706,"SoundDuration":100706,"Delta":81780424},{"NoteNumber":63,"Velocity":73,"Duration":100706,"SoundDuration":100706,"Delta":81780424},{"NoteNumber":75,"Velocity":94,"Duration":119047,"SoundDuration":119047,"Delta":81886431},{"NoteNumber":63,"Velocity":82,"Duration":119047,"SoundDuration":119047,"Delta":81886431},{"NoteNumber":75,"Velocity":80,"Duration":316901,"SoundDuration":316901,"Delta":82124526},{"NoteNumber":80,"Velocity":80,"Duration":316901,"SoundDuration":316901,"Delta":82124526},{"NoteNumber":83,"Velocity":80,"Duration":316901,"SoundDuration":316901,"Delta":82124526},{"NoteNumber":87,"Velocity":95,"Duration":316901,"SoundDuration":316901,"Delta":82124526},{"NoteNumber":59,"Velocity":68,"Duration":316901,"SoundDuration":316901,"Delta":82124526},{"NoteNumber":51,"Velocity":68,"Duration":316901,"SoundDuration":316901,"Delta":82124526},{"NoteNumber":56,"Velocity":68,"Duration":316901,"SoundDuration":316901,"Delta":82124526},{"NoteNumber":63,"Velocity":81,"Duration":316901,"SoundDuration":316901,"Delta":82124526},{"NoteNumber":75,"Velocity":90,"Duration":100352,"SoundDuration":100352,"Delta":82441427},{"NoteNumber":63,"Velocity":73,"Duration":100352,"SoundDuration":100352,"Delta":82441427},{"NoteNumber":75,"Velocity":94,"Duration":119047,"SoundDuration":119047,"Delta":82547061},{"NoteNumber":63,"Velocity":82,"Duration":119047,"SoundDuration":119047,"Delta":82547061},{"NoteNumber":75,"Velocity":80,"Duration":318021,"SoundDuration":318021,"Delta":82785156},{"NoteNumber":79,"Velocity":80,"Duration":318021,"SoundDuration":318021,"Delta":82785156},{"NoteNumber":82,"Velocity":80,"Duration":318021,"SoundDuration":318021,"Delta":82785156},{"NoteNumber":87,"Velocity":95,"Duration":318021,"SoundDuration":318021,"Delta":82785156},{"NoteNumber":58,"Velocity":68,"Duration":318021,"SoundDuration":318021,"Delta":82785156},{"NoteNumber":51,"Velocity":68,"Duration":318021,"SoundDuration":318021,"Delta":82785156},{"NoteNumber":55,"Velocity":68,"Duration":318021,"SoundDuration":318021,"Delta":82785156},{"NoteNumber":63,"Velocity":81,"Duration":318021,"SoundDuration":318021,"Delta":82785156},{"NoteNumber":75,"Velocity":90,"Duration":100706,"SoundDuration":100706,"Delta":83103177},{"NoteNumber":63,"Velocity":73,"Duration":100706,"SoundDuration":100706,"Delta":83103177},{"NoteNumber":75,"Velocity":94,"Duration":119047,"SoundDuration":119047,"Delta":83209184},{"NoteNumber":63,"Velocity":82,"Duration":119047,"SoundDuration":119047,"Delta":83209184},{"NoteNumber":75,"Velocity":80,"Duration":314684,"SoundDuration":314684,"Delta":83447279},{"NoteNumber":80,"Velocity":80,"Duration":314684,"SoundDuration":314684,"Delta":83447279},{"NoteNumber":83,"Velocity":80,"Duration":314684,"SoundDuration":314684,"Delta":83447279},{"NoteNumber":87,"Velocity":95,"Duration":314684,"SoundDuration":314684,"Delta":83447279},{"NoteNumber":59,"Velocity":68,"Duration":314684,"SoundDuration":314684,"Delta":83447279},{"NoteNumber":51,"Velocity":68,"Duration":314684,"SoundDuration":314684,"Delta":83447279},{"NoteNumber":56,"Velocity":68,"Duration":314684,"SoundDuration":314684,"Delta":83447279},{"NoteNumber":63,"Velocity":81,"Duration":314684,"SoundDuration":314684,"Delta":83447279},{"NoteNumber":75,"Velocity":90,"Duration":99650,"SoundDuration":99650,"Delta":83761964},{"NoteNumber":63,"Velocity":73,"Duration":99650,"SoundDuration":99650,"Delta":83761964},{"NoteNumber":75,"Velocity":94,"Duration":119047,"SoundDuration":119047,"Delta":83866859},{"NoteNumber":63,"Velocity":82,"Duration":119047,"SoundDuration":119047,"Delta":83866859},{"NoteNumber":63,"Velocity":40,"Duration":337078,"SoundDuration":337078,"Delta":84104954},{"NoteNumber":67,"Velocity":40,"Duration":337078,"SoundDuration":337078,"Delta":84104954},{"NoteNumber":70,"Velocity":40,"Duration":337078,"SoundDuration":337078,"Delta":84104954},{"NoteNumber":75,"Velocity":54,"Duration":337078,"SoundDuration":337078,"Delta":84104954},{"NoteNumber":39,"Velocity":34,"Duration":337078,"SoundDuration":337078,"Delta":84104954},{"NoteNumber":51,"Velocity":46,"Duration":337078,"SoundDuration":337078,"Delta":84104954},{"NoteNumber":63,"Velocity":54,"Duration":106741,"SoundDuration":106741,"Delta":84442032},{"NoteNumber":51,"Velocity":43,"Duration":106741,"SoundDuration":106741,"Delta":84442032},{"NoteNumber":63,"Velocity":54,"Duration":131579,"SoundDuration":131579,"Delta":84554392},{"NoteNumber":51,"Velocity":48,"Duration":131579,"SoundDuration":131579,"Delta":84554392},{"NoteNumber":63,"Velocity":40,"Duration":342205,"SoundDuration":342205,"Delta":84817550},{"NoteNumber":68,"Velocity":40,"Duration":342205,"SoundDuration":342205,"Delta":84817550},{"NoteNumber":71,"Velocity":40,"Duration":342205,"SoundDuration":342205,"Delta":84817550},{"NoteNumber":75,"Velocity":54,"Duration":342205,"SoundDuration":342205,"Delta":84817550},{"NoteNumber":39,"Velocity":34,"Duration":342205,"SoundDuration":342205,"Delta":84817550},{"NoteNumber":51,"Velocity":46,"Duration":342205,"SoundDuration":342205,"Delta":84817550},{"NoteNumber":63,"Velocity":53,"Duration":108365,"SoundDuration":108365,"Delta":85159755},{"NoteNumber":51,"Velocity":41,"Duration":108365,"SoundDuration":108365,"Delta":85159755},{"NoteNumber":63,"Velocity":55,"Duration":128755,"SoundDuration":128755,"Delta":85273824},{"NoteNumber":51,"Velocity":47,"Duration":128755,"SoundDuration":128755,"Delta":85273824},{"NoteNumber":63,"Velocity":40,"Duration":346153,"SoundDuration":346153,"Delta":85531334},{"NoteNumber":67,"Velocity":40,"Duration":346153,"SoundDuration":346153,"Delta":85531334},{"NoteNumber":70,"Velocity":40,"Duration":346153,"SoundDuration":346153,"Delta":85531334},{"NoteNumber":75,"Velocity":54,"Duration":346153,"SoundDuration":346153,"Delta":85531334},{"NoteNumber":39,"Velocity":34,"Duration":346153,"SoundDuration":346153,"Delta":85531334},{"NoteNumber":51,"Velocity":46,"Duration":346153,"SoundDuration":346153,"Delta":85531334},{"NoteNumber":63,"Velocity":54,"Duration":109615,"SoundDuration":109615,"Delta":85877488},{"NoteNumber":51,"Velocity":43,"Duration":109615,"SoundDuration":109615,"Delta":85877488},{"NoteNumber":63,"Velocity":54,"Duration":131579,"SoundDuration":131579,"Delta":85992872},{"NoteNumber":51,"Velocity":48,"Duration":131579,"SoundDuration":131579,"Delta":85992872},{"NoteNumber":63,"Velocity":40,"Duration":352941,"SoundDuration":352941,"Delta":86256030},{"NoteNumber":68,"Velocity":40,"Duration":352941,"SoundDuration":352941,"Delta":86256030},{"NoteNumber":71,"Velocity":40,"Duration":352941,"SoundDuration":352941,"Delta":86256030},{"NoteNumber":75,"Velocity":54,"Duration":352941,"SoundDuration":352941,"Delta":86256030},{"NoteNumber":39,"Velocity":34,"Duration":352941,"SoundDuration":352941,"Delta":86256030},{"NoteNumber":51,"Velocity":46,"Duration":352941,"SoundDuration":352941,"Delta":86256030},{"NoteNumber":63,"Velocity":53,"Duration":111764,"SoundDuration":111764,"Delta":86608971},{"NoteNumber":51,"Velocity":41,"Duration":111764,"SoundDuration":111764,"Delta":86608971},{"NoteNumber":63,"Velocity":55,"Duration":147783,"SoundDuration":147783,"Delta":86726618},{"NoteNumber":51,"Velocity":47,"Duration":147783,"SoundDuration":147783,"Delta":86726618},{"NoteNumber":51,"Velocity":32,"Duration":382978,"SoundDuration":382978,"Delta":87022185},{"NoteNumber":55,"Velocity":32,"Duration":382978,"SoundDuration":382978,"Delta":87022185},{"NoteNumber":58,"Velocity":32,"Duration":382978,"SoundDuration":382978,"Delta":87022185},{"NoteNumber":63,"Velocity":37,"Duration":382978,"SoundDuration":382978,"Delta":87022185},{"NoteNumber":39,"Velocity":32,"Duration":255319,"SoundDuration":255319,"Delta":87022185},{"NoteNumber":51,"Velocity":41,"Duration":121276,"SoundDuration":121276,"Delta":87405163},{"NoteNumber":51,"Velocity":41,"Duration":155440,"SoundDuration":155440,"Delta":87532823},{"NoteNumber":51,"Velocity":30,"Duration":416667,"SoundDuration":416667,"Delta":87843704},{"NoteNumber":56,"Velocity":30,"Duration":416667,"SoundDuration":416667,"Delta":87843704},{"NoteNumber":59,"Velocity":30,"Duration":416667,"SoundDuration":416667,"Delta":87843704},{"NoteNumber":63,"Velocity":34,"Duration":416667,"SoundDuration":416667,"Delta":87843704},{"NoteNumber":39,"Velocity":30,"Duration":277777,"SoundDuration":277777,"Delta":87843704},{"NoteNumber":51,"Velocity":37,"Duration":131944,"SoundDuration":131944,"Delta":88260371},{"NoteNumber":51,"Velocity":39,"Duration":156250,"SoundDuration":156250,"Delta":88399260},{"NoteNumber":51,"Velocity":27,"Duration":436892,"SoundDuration":436892,"Delta":88711760},{"NoteNumber":56,"Velocity":27,"Duration":436892,"SoundDuration":436892,"Delta":88711760},{"NoteNumber":58,"Velocity":27,"Duration":436892,"SoundDuration":436892,"Delta":88711760},{"NoteNumber":63,"Velocity":32,"Duration":436892,"SoundDuration":436892,"Delta":88711760},{"NoteNumber":39,"Velocity":27,"Duration":291262,"SoundDuration":291262,"Delta":88711760},{"NoteNumber":51,"Velocity":36,"Duration":138349,"SoundDuration":138349,"Delta":89148653},{"NoteNumber":51,"Velocity":35,"Duration":169491,"SoundDuration":169491,"Delta":89294284},{"NoteNumber":51,"Velocity":25,"Duration":461538,"SoundDuration":461538,"Delta":89633267},{"NoteNumber":55,"Velocity":25,"Duration":461538,"SoundDuration":461538,"Delta":89633267},{"NoteNumber":58,"Velocity":25,"Duration":461538,"SoundDuration":461538,"Delta":89633267},{"NoteNumber":63,"Velocity":29,"Duration":461538,"SoundDuration":461538,"Delta":89633267},{"NoteNumber":39,"Velocity":25,"Duration":307692,"SoundDuration":307692,"Delta":89633267},{"NoteNumber":51,"Velocity":32,"Duration":146153,"SoundDuration":146153,"Delta":90094805},{"NoteNumber":51,"Velocity":33,"Duration":181818,"SoundDuration":181818,"Delta":90248652},{"NoteNumber":63,"Velocity":36,"Duration":327273,"SoundDuration":327273,"Delta":90612288},{"NoteNumber":72,"Velocity":36,"Duration":327273,"SoundDuration":327273,"Delta":90612288},{"NoteNumber":75,"Velocity":42,"Duration":327273,"SoundDuration":327273,"Delta":90612288},{"NoteNumber":44,"Velocity":28,"Duration":327273,"SoundDuration":327273,"Delta":90612288},{"NoteNumber":51,"Velocity":28,"Duration":327273,"SoundDuration":327273,"Delta":90612288},{"NoteNumber":56,"Velocity":34,"Duration":327273,"SoundDuration":327273,"Delta":90612288},{"NoteNumber":63,"Velocity":34,"Duration":103636,"SoundDuration":103636,"Delta":90939561},{"NoteNumber":72,"Velocity":34,"Duration":103636,"SoundDuration":103636,"Delta":90939561},{"NoteNumber":75,"Velocity":40,"Duration":103636,"SoundDuration":103636,"Delta":90939561},{"NoteNumber":44,"Velocity":26,"Duration":103636,"SoundDuration":103636,"Delta":90939561},{"NoteNumber":51,"Velocity":26,"Duration":103636,"SoundDuration":103636,"Delta":90939561},{"NoteNumber":56,"Velocity":32,"Duration":103636,"SoundDuration":103636,"Delta":90939561},{"NoteNumber":63,"Velocity":36,"Duration":119047,"SoundDuration":119047,"Delta":91048652},{"NoteNumber":72,"Velocity":36,"Duration":119047,"SoundDuration":119047,"Delta":91048652},{"NoteNumber":75,"Velocity":42,"Duration":119047,"SoundDuration":119047,"Delta":91048652},{"NoteNumber":44,"Velocity":29,"Duration":119047,"SoundDuration":119047,"Delta":91048652},{"NoteNumber":51,"Velocity":29,"Duration":119047,"SoundDuration":119047,"Delta":91048652},{"NoteNumber":56,"Velocity":34,"Duration":119047,"SoundDuration":119047,"Delta":91048652},{"NoteNumber":63,"Velocity":36,"Duration":327273,"SoundDuration":327273,"Delta":91286747},{"NoteNumber":72,"Velocity":36,"Duration":327273,"SoundDuration":327273,"Delta":91286747},{"NoteNumber":75,"Velocity":42,"Duration":327273,"SoundDuration":327273,"Delta":91286747},{"NoteNumber":44,"Velocity":28,"Duration":327273,"SoundDuration":327273,"Delta":91286747},{"NoteNumber":51,"Velocity":28,"Duration":327273,"SoundDuration":327273,"Delta":91286747},{"NoteNumber":56,"Velocity":34,"Duration":327273,"SoundDuration":327273,"Delta":91286747},{"NoteNumber":63,"Velocity":34,"Duration":103636,"SoundDuration":103636,"Delta":91614020},{"NoteNumber":72,"Velocity":34,"Duration":103636,"SoundDuration":103636,"Delta":91614020},{"NoteNumber":75,"Velocity":40,"Duration":103636,"SoundDuration":103636,"Delta":91614020},{"NoteNumber":44,"Velocity":26,"Duration":103636,"SoundDuration":103636,"Delta":91614020},{"NoteNumber":51,"Velocity":26,"Duration":103636,"SoundDuration":103636,"Delta":91614020},{"NoteNumber":56,"Velocity":32,"Duration":103636,"SoundDuration":103636,"Delta":91614020},{"NoteNumber":63,"Velocity":36,"Duration":118577,"SoundDuration":118577,"Delta":91723111},{"NoteNumber":72,"Velocity":36,"Duration":118577,"SoundDuration":118577,"Delta":91723111},{"NoteNumber":75,"Velocity":42,"Duration":118577,"SoundDuration":118577,"Delta":91723111},{"NoteNumber":44,"Velocity":29,"Duration":118577,"SoundDuration":118577,"Delta":91723111},{"NoteNumber":51,"Velocity":29,"Duration":118577,"SoundDuration":118577,"Delta":91723111},{"NoteNumber":56,"Velocity":34,"Duration":118577,"SoundDuration":118577,"Delta":91723111},{"NoteNumber":63,"Velocity":40,"Duration":103448,"SoundDuration":103448,"Delta":91960265},{"NoteNumber":71,"Velocity":40,"Duration":103448,"SoundDuration":103448,"Delta":91960265},{"NoteNumber":75,"Velocity":48,"Duration":103448,"SoundDuration":103448,"Delta":91960265},{"NoteNumber":44,"Velocity":33,"Duration":206896,"SoundDuration":206896,"Delta":91960265},{"NoteNumber":51,"Velocity":33,"Duration":206896,"SoundDuration":206896,"Delta":91960265},{"NoteNumber":56,"Velocity":39,"Duration":206896,"SoundDuration":206896,"Delta":91960265},{"NoteNumber":72,"Velocity":43,"Duration":103448,"SoundDuration":103448,"Delta":92063713},{"NoteNumber":68,"Velocity":43,"Duration":106761,"SoundDuration":106761,"Delta":92167162},{"NoteNumber":63,"Velocity":43,"Duration":106761,"SoundDuration":106761,"Delta":92273923},{"NoteNumber":60,"Velocity":48,"Duration":116279,"SoundDuration":116279,"Delta":92380685},{"NoteNumber":63,"Velocity":50,"Duration":104529,"SoundDuration":104529,"Delta":92613243},{"NoteNumber":68,"Velocity":44,"Duration":104529,"SoundDuration":104529,"Delta":92717772},{"NoteNumber":72,"Velocity":44,"Duration":106761,"SoundDuration":106761,"Delta":92822302},{"NoteNumber":75,"Velocity":44,"Duration":106761,"SoundDuration":106761,"Delta":92929063},{"NoteNumber":80,"Velocity":47,"Duration":118577,"SoundDuration":118577,"Delta":93035825},{"NoteNumber":81,"Velocity":46,"Duration":63291,"SoundDuration":63291,"Delta":93272979},{"NoteNumber":69,"Velocity":39,"Duration":63291,"SoundDuration":63291,"Delta":93272979},{"NoteNumber":63,"Velocity":44,"Duration":63291,"SoundDuration":63291,"Delta":93272979},{"NoteNumber":61,"Velocity":37,"Duration":63291,"SoundDuration":63291,"Delta":93272979},{"NoteNumber":55,"Velocity":37,"Duration":63291,"SoundDuration":63291,"Delta":93272979},{"NoteNumber":70,"Velocity":43,"Duration":456273,"SoundDuration":456273,"Delta":93526143},{"NoteNumber":82,"Velocity":51,"Duration":456273,"SoundDuration":456273,"Delta":93526143},{"NoteNumber":63,"Velocity":44,"Duration":456273,"SoundDuration":456273,"Delta":93526143},{"NoteNumber":61,"Velocity":37,"Duration":456273,"SoundDuration":456273,"Delta":93526143},{"NoteNumber":55,"Velocity":37,"Duration":456273,"SoundDuration":456273,"Delta":93526143},{"NoteNumber":62,"Velocity":51,"Duration":102040,"SoundDuration":102040,"Delta":93982417},{"NoteNumber":50,"Velocity":43,"Duration":102040,"SoundDuration":102040,"Delta":93982417},{"NoteNumber":63,"Velocity":42,"Duration":102040,"SoundDuration":102040,"Delta":94084458},{"NoteNumber":51,"Velocity":40,"Duration":102040,"SoundDuration":102040,"Delta":94084458},{"NoteNumber":58,"Velocity":45,"Duration":106761,"SoundDuration":106761,"Delta":94186499},{"NoteNumber":46,"Velocity":42,"Duration":106761,"SoundDuration":106761,"Delta":94186499},{"NoteNumber":55,"Velocity":42,"Duration":106761,"SoundDuration":106761,"Delta":94293260},{"NoteNumber":43,"Velocity":40,"Duration":106761,"SoundDuration":106761,"Delta":94293260},{"NoteNumber":51,"Velocity":45,"Duration":119047,"SoundDuration":119047,"Delta":94400022},{"NoteNumber":39,"Velocity":42,"Duration":119047,"SoundDuration":119047,"Delta":94400022},{"NoteNumber":63,"Velocity":45,"Duration":327273,"SoundDuration":327273,"Delta":94638117},{"NoteNumber":73,"Velocity":45,"Duration":327273,"SoundDuration":327273,"Delta":94638117},{"NoteNumber":75,"Velocity":53,"Duration":327273,"SoundDuration":327273,"Delta":94638117},{"NoteNumber":46,"Velocity":36,"Duration":327273,"SoundDuration":327273,"Delta":94638117},{"NoteNumber":51,"Velocity":36,"Duration":327273,"SoundDuration":327273,"Delta":94638117},{"NoteNumber":58,"Velocity":43,"Duration":327273,"SoundDuration":327273,"Delta":94638117},{"NoteNumber":63,"Velocity":43,"Duration":103636,"SoundDuration":103636,"Delta":94965390},{"NoteNumber":73,"Velocity":43,"Duration":103636,"SoundDuration":103636,"Delta":94965390},{"NoteNumber":75,"Velocity":51,"Duration":103636,"SoundDuration":103636,"Delta":94965390},{"NoteNumber":46,"Velocity":33,"Duration":103636,"SoundDuration":103636,"Delta":94965390},{"NoteNumber":51,"Velocity":33,"Duration":103636,"SoundDuration":103636,"Delta":94965390},{"NoteNumber":58,"Velocity":40,"Duration":103636,"SoundDuration":103636,"Delta":94965390},{"NoteNumber":63,"Velocity":45,"Duration":119047,"SoundDuration":119047,"Delta":95074481},{"NoteNumber":73,"Velocity":45,"Duration":119047,"SoundDuration":119047,"Delta":95074481},{"NoteNumber":75,"Velocity":53,"Duration":119047,"SoundDuration":119047,"Delta":95074481},{"NoteNumber":46,"Velocity":37,"Duration":119047,"SoundDuration":119047,"Delta":95074481},{"NoteNumber":51,"Velocity":37,"Duration":119047,"SoundDuration":119047,"Delta":95074481},{"NoteNumber":58,"Velocity":43,"Duration":119047,"SoundDuration":119047,"Delta":95074481},{"NoteNumber":63,"Velocity":45,"Duration":327273,"SoundDuration":327273,"Delta":95312576},{"NoteNumber":73,"Velocity":45,"Duration":327273,"SoundDuration":327273,"Delta":95312576},{"NoteNumber":75,"Velocity":53,"Duration":327273,"SoundDuration":327273,"Delta":95312576},{"NoteNumber":46,"Velocity":36,"Duration":327273,"SoundDuration":327273,"Delta":95312576},{"NoteNumber":51,"Velocity":36,"Duration":327273,"SoundDuration":327273,"Delta":95312576},{"NoteNumber":58,"Velocity":43,"Duration":327273,"SoundDuration":327273,"Delta":95312576},{"NoteNumber":63,"Velocity":43,"Duration":103636,"SoundDuration":103636,"Delta":95639849},{"NoteNumber":73,"Velocity":43,"Duration":103636,"SoundDuration":103636,"Delta":95639849},{"NoteNumber":75,"Velocity":51,"Duration":103636,"SoundDuration":103636,"Delta":95639849},{"NoteNumber":46,"Velocity":33,"Duration":103636,"SoundDuration":103636,"Delta":95639849},{"NoteNumber":51,"Velocity":33,"Duration":103636,"SoundDuration":103636,"Delta":95639849},{"NoteNumber":58,"Velocity":40,"Duration":103636,"SoundDuration":103636,"Delta":95639849},{"NoteNumber":63,"Velocity":45,"Duration":118577,"SoundDuration":118577,"Delta":95748940},{"NoteNumber":73,"Velocity":45,"Duration":118577,"SoundDuration":118577,"Delta":95748940},{"NoteNumber":75,"Velocity":53,"Duration":118577,"SoundDuration":118577,"Delta":95748940},{"NoteNumber":46,"Velocity":37,"Duration":118577,"SoundDuration":118577,"Delta":95748940},{"NoteNumber":51,"Velocity":37,"Duration":118577,"SoundDuration":118577,"Delta":95748940},{"NoteNumber":58,"Velocity":43,"Duration":118577,"SoundDuration":118577,"Delta":95748940},{"NoteNumber":63,"Velocity":40,"Duration":103448,"SoundDuration":103448,"Delta":95986094},{"NoteNumber":72,"Velocity":40,"Duration":103448,"SoundDuration":103448,"Delta":95986094},{"NoteNumber":75,"Velocity":48,"Duration":103448,"SoundDuration":103448,"Delta":95986094},{"NoteNumber":46,"Velocity":37,"Duration":206896,"SoundDuration":206896,"Delta":95986094},{"NoteNumber":51,"Velocity":37,"Duration":206896,"SoundDuration":206896,"Delta":95986094},{"NoteNumber":58,"Velocity":44,"Duration":206896,"SoundDuration":206896,"Delta":95986094},{"NoteNumber":73,"Velocity":43,"Duration":103448,"SoundDuration":103448,"Delta":96089542},{"NoteNumber":70,"Velocity":43,"Duration":106761,"SoundDuration":106761,"Delta":96192990},{"NoteNumber":67,"Velocity":43,"Duration":106761,"SoundDuration":106761,"Delta":96299752},{"NoteNumber":63,"Velocity":48,"Duration":116279,"SoundDuration":116279,"Delta":96406513},{"NoteNumber":67,"Velocity":50,"Duration":104529,"SoundDuration":104529,"Delta":96639071},{"NoteNumber":70,"Velocity":44,"Duration":104529,"SoundDuration":104529,"Delta":96743601},{"NoteNumber":73,"Velocity":44,"Duration":106761,"SoundDuration":106761,"Delta":96848130},{"NoteNumber":75,"Velocity":44,"Duration":106761,"SoundDuration":106761,"Delta":96954892},{"NoteNumber":79,"Velocity":47,"Duration":118577,"SoundDuration":118577,"Delta":97061653},{"NoteNumber":83,"Velocity":46,"Duration":63291,"SoundDuration":63291,"Delta":97298807},{"NoteNumber":71,"Velocity":39,"Duration":63291,"SoundDuration":63291,"Delta":97298807},{"NoteNumber":67,"Velocity":44,"Duration":63291,"SoundDuration":63291,"Delta":97298807},{"NoteNumber":63,"Velocity":37,"Duration":63291,"SoundDuration":63291,"Delta":97298807},{"NoteNumber":56,"Velocity":37,"Duration":63291,"SoundDuration":63291,"Delta":97298807},{"NoteNumber":72,"Velocity":43,"Duration":456273,"SoundDuration":456273,"Delta":97551972},{"NoteNumber":84,"Velocity":51,"Duration":456273,"SoundDuration":456273,"Delta":97551972},{"NoteNumber":68,"Velocity":44,"Duration":456273,"SoundDuration":456273,"Delta":97551972},{"NoteNumber":63,"Velocity":37,"Duration":456273,"SoundDuration":456273,"Delta":97551972},{"NoteNumber":56,"Velocity":37,"Duration":456273,"SoundDuration":456273,"Delta":97551972},{"NoteNumber":67,"Velocity":51,"Duration":101351,"SoundDuration":101351,"Delta":98008246},{"NoteNumber":55,"Velocity":43,"Duration":101351,"SoundDuration":101351,"Delta":98008246},{"NoteNumber":68,"Velocity":42,"Duration":101351,"SoundDuration":101351,"Delta":98109597},{"NoteNumber":56,"Velocity":40,"Duration":101351,"SoundDuration":101351,"Delta":98109597},{"NoteNumber":63,"Velocity":45,"Duration":106761,"SoundDuration":106761,"Delta":98210948},{"NoteNumber":51,"Velocity":42,"Duration":106761,"SoundDuration":106761,"Delta":98210948},{"NoteNumber":60,"Velocity":42,"Duration":106761,"SoundDuration":106761,"Delta":98317710},{"NoteNumber":48,"Velocity":40,"Duration":106761,"SoundDuration":106761,"Delta":98317710},{"NoteNumber":56,"Velocity":45,"Duration":119047,"SoundDuration":119047,"Delta":98424471},{"NoteNumber":44,"Velocity":42,"Duration":119047,"SoundDuration":119047,"Delta":98424471},{"NoteNumber":66,"Velocity":75,"Duration":327273,"SoundDuration":327273,"Delta":98662566},{"NoteNumber":68,"Velocity":75,"Duration":327273,"SoundDuration":327273,"Delta":98662566},{"NoteNumber":75,"Velocity":75,"Duration":327273,"SoundDuration":327273,"Delta":98662566},{"NoteNumber":78,"Velocity":89,"Duration":327273,"SoundDuration":327273,"Delta":98662566},{"NoteNumber":44,"Velocity":73,"Duration":109091,"SoundDuration":109091,"Delta":98662566},{"NoteNumber":45,"Velocity":68,"Duration":109090,"SoundDuration":109090,"Delta":98771657},{"NoteNumber":46,"Velocity":72,"Duration":109091,"SoundDuration":109091,"Delta":98880748},{"NoteNumber":66,"Velocity":72,"Duration":103636,"SoundDuration":103636,"Delta":98989839},{"NoteNumber":68,"Velocity":72,"Duration":103636,"SoundDuration":103636,"Delta":98989839},{"NoteNumber":75,"Velocity":72,"Duration":103636,"SoundDuration":103636,"Delta":98989839},{"NoteNumber":78,"Velocity":85,"Duration":103636,"SoundDuration":103636,"Delta":98989839},{"NoteNumber":47,"Velocity":76,"Duration":109090,"SoundDuration":109090,"Delta":98989839},{"NoteNumber":66,"Velocity":75,"Duration":119047,"SoundDuration":119047,"Delta":99098930},{"NoteNumber":68,"Velocity":75,"Duration":119047,"SoundDuration":119047,"Delta":99098930},{"NoteNumber":75,"Velocity":75,"Duration":119047,"SoundDuration":119047,"Delta":99098930},{"NoteNumber":78,"Velocity":89,"Duration":119047,"SoundDuration":119047,"Delta":99098930},{"NoteNumber":48,"Velocity":80,"Duration":119047,"SoundDuration":119047,"Delta":99098930},{"NoteNumber":76,"Velocity":85,"Duration":103806,"SoundDuration":103806,"Delta":99337025},{"NoteNumber":49,"Velocity":73,"Duration":103806,"SoundDuration":103806,"Delta":99337025},{"NoteNumber":77,"Velocity":70,"Duration":103806,"SoundDuration":103806,"Delta":99440831},{"NoteNumber":61,"Velocity":67,"Duration":103806,"SoundDuration":103806,"Delta":99440831},{"NoteNumber":73,"Velocity":75,"Duration":106761,"SoundDuration":106761,"Delta":99544638},{"NoteNumber":56,"Velocity":70,"Duration":106761,"SoundDuration":106761,"Delta":99544638},{"NoteNumber":68,"Velocity":70,"Duration":106761,"SoundDuration":106761,"Delta":99651399},{"NoteNumber":53,"Velocity":67,"Duration":106761,"SoundDuration":106761,"Delta":99651399},{"NoteNumber":65,"Velocity":76,"Duration":119047,"SoundDuration":119047,"Delta":99758161},{"NoteNumber":49,"Velocity":70,"Duration":119047,"SoundDuration":119047,"Delta":99758161},{"NoteNumber":63,"Velocity":75,"Duration":327273,"SoundDuration":327273,"Delta":99996256},{"NoteNumber":65,"Velocity":75,"Duration":327273,"SoundDuration":327273,"Delta":99996256},{"NoteNumber":72,"Velocity":75,"Duration":327273,"SoundDuration":327273,"Delta":99996256},{"NoteNumber":75,"Velocity":89,"Duration":327273,"SoundDuration":327273,"Delta":99996256},{"NoteNumber":41,"Velocity":73,"Duration":109091,"SoundDuration":109091,"Delta":99996256},{"NoteNumber":42,"Velocity":70,"Duration":109090,"SoundDuration":109090,"Delta":100105347},{"NoteNumber":43,"Velocity":74,"Duration":109091,"SoundDuration":109091,"Delta":100214438},{"NoteNumber":63,"Velocity":72,"Duration":103636,"SoundDuration":103636,"Delta":100323529},{"NoteNumber":65,"Velocity":72,"Duration":103636,"SoundDuration":103636,"Delta":100323529},{"NoteNumber":72,"Velocity":72,"Duration":103636,"SoundDuration":103636,"Delta":100323529},{"NoteNumber":75,"Velocity":85,"Duration":103636,"SoundDuration":103636,"Delta":100323529},{"NoteNumber":44,"Velocity":77,"Duration":109090,"SoundDuration":109090,"Delta":100323529},{"NoteNumber":63,"Velocity":75,"Duration":119047,"SoundDuration":119047,"Delta":100432620},{"NoteNumber":65,"Velocity":75,"Duration":119047,"SoundDuration":119047,"Delta":100432620},{"NoteNumber":72,"Velocity":75,"Duration":119047,"SoundDuration":119047,"Delta":100432620},{"NoteNumber":75,"Velocity":89,"Duration":119047,"SoundDuration":119047,"Delta":100432620},{"NoteNumber":45,"Velocity":81,"Duration":119047,"SoundDuration":119047,"Delta":100432620},{"NoteNumber":72,"Velocity":85,"Duration":103806,"SoundDuration":103806,"Delta":100670715},{"NoteNumber":46,"Velocity":73,"Duration":103806,"SoundDuration":103806,"Delta":100670715},{"NoteNumber":73,"Velocity":70,"Duration":103806,"SoundDuration":103806,"Delta":100774521},{"NoteNumber":58,"Velocity":67,"Duration":103806,"SoundDuration":103806,"Delta":100774521},{"NoteNumber":70,"Velocity":75,"Duration":106761,"SoundDuration":106761,"Delta":100878327},{"NoteNumber":53,"Velocity":70,"Duration":106761,"SoundDuration":106761,"Delta":100878327},{"NoteNumber":65,"Velocity":70,"Duration":106761,"SoundDuration":106761,"Delta":100985089},{"NoteNumber":49,"Velocity":67,"Duration":106761,"SoundDuration":106761,"Delta":100985089},{"NoteNumber":61,"Velocity":76,"Duration":126050,"SoundDuration":126050,"Delta":101091850},{"NoteNumber":46,"Velocity":70,"Duration":126050,"SoundDuration":126050,"Delta":101091850},{"NoteNumber":84,"Velocity":59,"Duration":103806,"SoundDuration":103806,"Delta":101343951},{"NoteNumber":43,"Velocity":37,"Duration":421135,"SoundDuration":421135,"Delta":101343951},{"NoteNumber":55,"Velocity":45,"Duration":421135,"SoundDuration":421135,"Delta":101343951},{"NoteNumber":85,"Velocity":49,"Duration":103806,"SoundDuration":103806,"Delta":101447757},{"NoteNumber":82,"Velocity":52,"Duration":106761,"SoundDuration":106761,"Delta":101551564},{"NoteNumber":79,"Velocity":49,"Duration":106761,"SoundDuration":106761,"Delta":101658325},{"NoteNumber":73,"Velocity":53,"Duration":119047,"SoundDuration":119047,"Delta":101765087},{"NoteNumber":64,"Velocity":37,"Duration":119047,"SoundDuration":119047,"Delta":101765087},{"NoteNumber":61,"Velocity":31,"Duration":119047,"SoundDuration":119047,"Delta":101765087},{"NoteNumber":58,"Velocity":31,"Duration":119047,"SoundDuration":119047,"Delta":101765087},{"NoteNumber":55,"Velocity":31,"Duration":119047,"SoundDuration":119047,"Delta":101765087},{"NoteNumber":83,"Velocity":64,"Duration":103806,"SoundDuration":103806,"Delta":102003182},{"NoteNumber":44,"Velocity":40,"Duration":421135,"SoundDuration":421135,"Delta":102003182},{"NoteNumber":56,"Velocity":49,"Duration":421135,"SoundDuration":421135,"Delta":102003182},{"NoteNumber":84,"Velocity":53,"Duration":103806,"SoundDuration":103806,"Delta":102106988},{"NoteNumber":80,"Velocity":57,"Duration":106761,"SoundDuration":106761,"Delta":102210794},{"NoteNumber":75,"Velocity":53,"Duration":106761,"SoundDuration":106761,"Delta":102317556},{"NoteNumber":72,"Velocity":58,"Duration":119047,"SoundDuration":119047,"Delta":102424317},{"NoteNumber":63,"Velocity":40,"Duration":119047,"SoundDuration":119047,"Delta":102424317},{"NoteNumber":60,"Velocity":34,"Duration":119047,"SoundDuration":119047,"Delta":102424317},{"NoteNumber":56,"Velocity":34,"Duration":119047,"SoundDuration":119047,"Delta":102424317},{"NoteNumber":75,"Velocity":76,"Duration":102389,"SoundDuration":102389,"Delta":102662412},{"NoteNumber":34,"Velocity":49,"Duration":418300,"SoundDuration":418300,"Delta":102662412},{"NoteNumber":46,"Velocity":58,"Duration":418300,"SoundDuration":418300,"Delta":102662412},{"NoteNumber":76,"Velocity":63,"Duration":102389,"SoundDuration":102389,"Delta":102764801},{"NoteNumber":73,"Velocity":68,"Duration":106761,"SoundDuration":106761,"Delta":102867190},{"NoteNumber":70,"Velocity":63,"Duration":106761,"SoundDuration":106761,"Delta":102973952},{"NoteNumber":64,"Velocity":69,"Duration":113207,"SoundDuration":113207,"Delta":103080713},{"NoteNumber":55,"Velocity":49,"Duration":113207,"SoundDuration":113207,"Delta":103080713},{"NoteNumber":49,"Velocity":40,"Duration":113207,"SoundDuration":113207,"Delta":103080713},{"NoteNumber":46,"Velocity":40,"Duration":113207,"SoundDuration":113207,"Delta":103080713},{"NoteNumber":74,"Velocity":84,"Duration":102040,"SoundDuration":102040,"Delta":103307128},{"NoteNumber":35,"Velocity":54,"Duration":417604,"SoundDuration":417604,"Delta":103307128},{"NoteNumber":47,"Velocity":64,"Duration":417604,"SoundDuration":417604,"Delta":103307128},{"NoteNumber":75,"Velocity":69,"Duration":102040,"SoundDuration":102040,"Delta":103409169},{"NoteNumber":71,"Velocity":74,"Duration":106761,"SoundDuration":106761,"Delta":103511210},{"NoteNumber":68,"Velocity":69,"Duration":106761,"SoundDuration":106761,"Delta":103617971},{"NoteNumber":63,"Velocity":75,"Duration":119047,"SoundDuration":119047,"Delta":103724733},{"NoteNumber":56,"Velocity":54,"Duration":119047,"SoundDuration":119047,"Delta":103724733},{"NoteNumber":51,"Velocity":44,"Duration":119047,"SoundDuration":119047,"Delta":103724733},{"NoteNumber":47,"Velocity":44,"Duration":119047,"SoundDuration":119047,"Delta":103724733},{"NoteNumber":75,"Velocity":80,"Duration":330818,"SoundDuration":330818,"Delta":103962828},{"NoteNumber":68,"Velocity":80,"Duration":330818,"SoundDuration":330818,"Delta":103962828},{"NoteNumber":80,"Velocity":94,"Duration":330818,"SoundDuration":330818,"Delta":103962828},{"NoteNumber":40,"Velocity":60,"Duration":330818,"SoundDuration":330818,"Delta":103962828},{"NoteNumber":52,"Velocity":70,"Duration":330818,"SoundDuration":330818,"Delta":103962828},{"NoteNumber":68,"Velocity":76,"Duration":103968,"SoundDuration":103968,"Delta":104293646},{"NoteNumber":75,"Velocity":76,"Duration":103968,"SoundDuration":103968,"Delta":104293646},{"NoteNumber":80,"Velocity":91,"Duration":103968,"SoundDuration":103968,"Delta":104293646},{"NoteNumber":28,"Velocity":54,"Duration":103968,"SoundDuration":103968,"Delta":104293646},{"NoteNumber":40,"Velocity":64,"Duration":103968,"SoundDuration":103968,"Delta":104293646},{"NoteNumber":75,"Velocity":76,"Duration":217524,"SoundDuration":217524,"Delta":104403068},{"NoteNumber":68,"Velocity":76,"Duration":217524,"SoundDuration":217524,"Delta":104403068},{"NoteNumber":80,"Velocity":91,"Duration":217524,"SoundDuration":217524,"Delta":104403068},{"NoteNumber":28,"Velocity":54,"Duration":217524,"SoundDuration":217524,"Delta":104403068},{"NoteNumber":40,"Velocity":64,"Duration":217524,"SoundDuration":217524,"Delta":104403068},{"NoteNumber":75,"Velocity":81,"Duration":205076,"SoundDuration":205076,"Delta":104620593},{"NoteNumber":68,"Velocity":81,"Duration":205076,"SoundDuration":205076,"Delta":104620593},{"NoteNumber":80,"Velocity":97,"Duration":205076,"SoundDuration":205076,"Delta":104620593},{"NoteNumber":28,"Velocity":61,"Duration":205076,"SoundDuration":205076,"Delta":104620593},{"NoteNumber":40,"Velocity":72,"Duration":205076,"SoundDuration":205076,"Delta":104620593},{"NoteNumber":68,"Velocity":75,"Duration":203483,"SoundDuration":203483,"Delta":104836422},{"NoteNumber":75,"Velocity":75,"Duration":203483,"SoundDuration":203483,"Delta":104836422},{"NoteNumber":80,"Velocity":90,"Duration":203483,"SoundDuration":203483,"Delta":104836422},{"NoteNumber":28,"Velocity":55,"Duration":203483,"SoundDuration":203483,"Delta":104836422},{"NoteNumber":40,"Velocity":66,"Duration":203483,"SoundDuration":203483,"Delta":104836422},{"NoteNumber":75,"Velocity":75,"Duration":201865,"SoundDuration":201865,"Delta":105050581},{"NoteNumber":68,"Velocity":75,"Duration":201865,"SoundDuration":201865,"Delta":105050581},{"NoteNumber":80,"Velocity":90,"Duration":201865,"SoundDuration":201865,"Delta":105050581},{"NoteNumber":28,"Velocity":55,"Duration":201865,"SoundDuration":201865,"Delta":105050581},{"NoteNumber":40,"Velocity":66,"Duration":201865,"SoundDuration":201865,"Delta":105050581},{"NoteNumber":68,"Velocity":65,"Duration":105140,"SoundDuration":105140,"Delta":105262973},{"NoteNumber":74,"Velocity":77,"Duration":105140,"SoundDuration":105140,"Delta":105262973},{"NoteNumber":41,"Velocity":57,"Duration":105140,"SoundDuration":105140,"Delta":105262973},{"NoteNumber":80,"Velocity":79,"Duration":104651,"SoundDuration":104651,"Delta":105368113},{"NoteNumber":42,"Velocity":59,"Duration":104651,"SoundDuration":104651,"Delta":105368113},{"NoteNumber":68,"Velocity":68,"Duration":104046,"SoundDuration":104046,"Delta":105472765},{"NoteNumber":74,"Velocity":81,"Duration":104046,"SoundDuration":104046,"Delta":105472765},{"NoteNumber":43,"Velocity":61,"Duration":104046,"SoundDuration":104046,"Delta":105472765},{"NoteNumber":80,"Velocity":83,"Duration":103627,"SoundDuration":103627,"Delta":105576811},{"NoteNumber":44,"Velocity":62,"Duration":103627,"SoundDuration":103627,"Delta":105576811},{"NoteNumber":68,"Velocity":72,"Duration":103093,"SoundDuration":103093,"Delta":105680438},{"NoteNumber":74,"Velocity":85,"Duration":103093,"SoundDuration":103093,"Delta":105680438},{"NoteNumber":45,"Velocity":64,"Duration":103093,"SoundDuration":103093,"Delta":105680438},{"NoteNumber":80,"Velocity":86,"Duration":102564,"SoundDuration":102564,"Delta":105783532},{"NoteNumber":46,"Velocity":66,"Duration":102564,"SoundDuration":102564,"Delta":105783532},{"NoteNumber":68,"Velocity":74,"Duration":102389,"SoundDuration":102389,"Delta":105886096},{"NoteNumber":74,"Velocity":88,"Duration":102389,"SoundDuration":102389,"Delta":105886096},{"NoteNumber":47,"Velocity":68,"Duration":102389,"SoundDuration":102389,"Delta":105886096},{"NoteNumber":80,"Velocity":90,"Duration":102389,"SoundDuration":102389,"Delta":105988485},{"NoteNumber":48,"Velocity":70,"Duration":102389,"SoundDuration":102389,"Delta":105988485},{"NoteNumber":68,"Velocity":78,"Duration":102389,"SoundDuration":102389,"Delta":106090874},{"NoteNumber":74,"Velocity":92,"Duration":102389,"SoundDuration":102389,"Delta":106090874},{"NoteNumber":49,"Velocity":71,"Duration":102389,"SoundDuration":102389,"Delta":106090874},{"NoteNumber":80,"Velocity":94,"Duration":102389,"SoundDuration":102389,"Delta":106193263},{"NoteNumber":50,"Velocity":73,"Duration":102389,"SoundDuration":102389,"Delta":106193263},{"NoteNumber":68,"Velocity":80,"Duration":102389,"SoundDuration":102389,"Delta":106295652},{"NoteNumber":74,"Velocity":95,"Duration":102389,"SoundDuration":102389,"Delta":106295652},{"NoteNumber":51,"Velocity":75,"Duration":102389,"SoundDuration":102389,"Delta":106295652},{"NoteNumber":80,"Velocity":97,"Duration":102388,"SoundDuration":102388,"Delta":106398041},{"NoteNumber":52,"Velocity":77,"Duration":102388,"SoundDuration":102388,"Delta":106398041},{"NoteNumber":68,"Velocity":90,"Duration":222222,"SoundDuration":222222,"Delta":106500430},{"NoteNumber":74,"Velocity":90,"Duration":222222,"SoundDuration":222222,"Delta":106500430},{"NoteNumber":80,"Velocity":106,"Duration":222222,"SoundDuration":222222,"Delta":106500430},{"NoteNumber":40,"Velocity":72,"Duration":222222,"SoundDuration":222222,"Delta":106500430},{"NoteNumber":52,"Velocity":85,"Duration":222222,"SoundDuration":222222,"Delta":106500430},{"NoteNumber":70,"Velocity":80,"Duration":104894,"SoundDuration":104894,"Delta":106722652},{"NoteNumber":74,"Velocity":80,"Duration":104894,"SoundDuration":104894,"Delta":106722652},{"NoteNumber":80,"Velocity":80,"Duration":104894,"SoundDuration":104894,"Delta":106722652},{"NoteNumber":82,"Velocity":95,"Duration":104894,"SoundDuration":104894,"Delta":106722652},{"NoteNumber":52,"Velocity":65,"Duration":104894,"SoundDuration":104894,"Delta":106722652},{"NoteNumber":64,"Velocity":77,"Duration":104894,"SoundDuration":104894,"Delta":106722652},{"NoteNumber":70,"Velocity":80,"Duration":108695,"SoundDuration":108695,"Delta":106932442},{"NoteNumber":74,"Velocity":80,"Duration":108695,"SoundDuration":108695,"Delta":106932442},{"NoteNumber":80,"Velocity":80,"Duration":108695,"SoundDuration":108695,"Delta":106932442},{"NoteNumber":82,"Velocity":95,"Duration":108695,"SoundDuration":108695,"Delta":106932442},{"NoteNumber":64,"Velocity":77,"Duration":108695,"SoundDuration":108695,"Delta":106932442},{"NoteNumber":52,"Velocity":65,"Duration":108695,"SoundDuration":108695,"Delta":106932442},{"NoteNumber":70,"Velocity":88,"Duration":108695,"SoundDuration":108695,"Delta":107149833},{"NoteNumber":74,"Velocity":88,"Duration":108695,"SoundDuration":108695,"Delta":107149833},{"NoteNumber":80,"Velocity":88,"Duration":108695,"SoundDuration":108695,"Delta":107149833},{"NoteNumber":82,"Velocity":104,"Duration":108695,"SoundDuration":108695,"Delta":107149833},{"NoteNumber":52,"Velocity":72,"Duration":108695,"SoundDuration":108695,"Delta":107149833},{"NoteNumber":64,"Velocity":85,"Duration":108695,"SoundDuration":108695,"Delta":107149833},{"NoteNumber":70,"Velocity":80,"Duration":105633,"SoundDuration":105633,"Delta":107367225},{"NoteNumber":74,"Velocity":80,"Duration":105633,"SoundDuration":105633,"Delta":107367225},{"NoteNumber":80,"Velocity":80,"Duration":105633,"SoundDuration":105633,"Delta":107367225},{"NoteNumber":82,"Velocity":95,"Duration":105633,"SoundDuration":105633,"Delta":107367225},{"NoteNumber":52,"Velocity":65,"Duration":105633,"SoundDuration":105633,"Delta":107367225},{"NoteNumber":64,"Velocity":77,"Duration":105633,"SoundDuration":105633,"Delta":107367225},{"NoteNumber":70,"Velocity":80,"Duration":108695,"SoundDuration":108695,"Delta":107578492},{"NoteNumber":74,"Velocity":80,"Duration":108695,"SoundDuration":108695,"Delta":107578492},{"NoteNumber":80,"Velocity":80,"Duration":108695,"SoundDuration":108695,"Delta":107578492},{"NoteNumber":82,"Velocity":95,"Duration":108695,"SoundDuration":108695,"Delta":107578492},{"NoteNumber":52,"Velocity":65,"Duration":108695,"SoundDuration":108695,"Delta":107578492},{"NoteNumber":64,"Velocity":77,"Duration":108695,"SoundDuration":108695,"Delta":107578492},{"NoteNumber":72,"Velocity":80,"Duration":118110,"SoundDuration":118110,"Delta":107795884},{"NoteNumber":75,"Velocity":80,"Duration":118110,"SoundDuration":118110,"Delta":107795884},{"NoteNumber":80,"Velocity":80,"Duration":118110,"SoundDuration":118110,"Delta":107795884},{"NoteNumber":84,"Velocity":95,"Duration":118110,"SoundDuration":118110,"Delta":107795884},{"NoteNumber":51,"Velocity":73,"Duration":118110,"SoundDuration":118110,"Delta":107795884},{"NoteNumber":63,"Velocity":87,"Duration":118110,"SoundDuration":118110,"Delta":107795884},{"NoteNumber":87,"Velocity":95,"Duration":110293,"SoundDuration":110293,"Delta":108032104},{"NoteNumber":84,"Velocity":80,"Duration":110293,"SoundDuration":110293,"Delta":108032104},{"NoteNumber":80,"Velocity":80,"Duration":110293,"SoundDuration":110293,"Delta":108032104},{"NoteNumber":75,"Velocity":80,"Duration":110293,"SoundDuration":110293,"Delta":108032104},{"NoteNumber":51,"Velocity":77,"Duration":110293,"SoundDuration":110293,"Delta":108032104},{"NoteNumber":39,"Velocity":65,"Duration":110293,"SoundDuration":110293,"Delta":108032104},{"NoteNumber":75,"Velocity":80,"Duration":118110,"SoundDuration":118110,"Delta":108473280},{"NoteNumber":79,"Velocity":80,"Duration":118110,"SoundDuration":118110,"Delta":108473280},{"NoteNumber":82,"Velocity":95,"Duration":118110,"SoundDuration":118110,"Delta":108473280},{"NoteNumber":51,"Velocity":73,"Duration":118110,"SoundDuration":118110,"Delta":108473280},{"NoteNumber":63,"Velocity":87,"Duration":118110,"SoundDuration":118110,"Delta":108473280},{"NoteNumber":87,"Velocity":95,"Duration":110293,"SoundDuration":110293,"Delta":108709501},{"NoteNumber":79,"Velocity":80,"Duration":110293,"SoundDuration":110293,"Delta":108709501},{"NoteNumber":75,"Velocity":80,"Duration":110293,"SoundDuration":110293,"Delta":108709501},{"NoteNumber":51,"Velocity":77,"Duration":110293,"SoundDuration":110293,"Delta":108709501},{"NoteNumber":39,"Velocity":65,"Duration":110293,"SoundDuration":110293,"Delta":108709501},{"NoteNumber":63,"Velocity":40,"Duration":110294,"SoundDuration":110294,"Delta":109199147},{"NoteNumber":68,"Velocity":40,"Duration":110294,"SoundDuration":110294,"Delta":109199147},{"NoteNumber":72,"Velocity":47,"Duration":110294,"SoundDuration":110294,"Delta":109199147},{"NoteNumber":51,"Velocity":43,"Duration":110294,"SoundDuration":110294,"Delta":109199147},{"NoteNumber":75,"Velocity":47,"Duration":102739,"SoundDuration":102739,"Delta":109493265},{"NoteNumber":72,"Velocity":40,"Duration":102739,"SoundDuration":102739,"Delta":109493265},{"NoteNumber":63,"Velocity":40,"Duration":102739,"SoundDuration":102739,"Delta":109493265},{"NoteNumber":39,"Velocity":38,"Duration":102739,"SoundDuration":102739,"Delta":109493265},{"NoteNumber":63,"Velocity":40,"Duration":130813,"SoundDuration":130813,"Delta":110089818},{"NoteNumber":67,"Velocity":40,"Duration":130813,"SoundDuration":130813,"Delta":110089818},{"NoteNumber":70,"Velocity":47,"Duration":130813,"SoundDuration":130813,"Delta":110089818},{"NoteNumber":51,"Velocity":43,"Duration":130813,"SoundDuration":130813,"Delta":110089818},{"NoteNumber":75,"Velocity":47,"Duration":119680,"SoundDuration":119680,"Delta":110438655},{"NoteNumber":67,"Velocity":40,"Duration":119680,"SoundDuration":119680,"Delta":110438655},{"NoteNumber":63,"Velocity":40,"Duration":119680,"SoundDuration":119680,"Delta":110438655},{"NoteNumber":39,"Velocity":38,"Duration":119680,"SoundDuration":119680,"Delta":110438655},{"NoteNumber":63,"Velocity":41,"Duration":393253,"SoundDuration":393253,"Delta":111076953},{"NoteNumber":75,"Velocity":49,"Duration":393253,"SoundDuration":393253,"Delta":111076953},{"NoteNumber":44,"Velocity":35,"Duration":196626,"SoundDuration":196626,"Delta":111076953},{"NoteNumber":60,"Velocity":30,"Duration":539356,"SoundDuration":539356,"Delta":111339122},{"NoteNumber":56,"Velocity":25,"Duration":539356,"SoundDuration":539356,"Delta":111339122},{"NoteNumber":51,"Velocity":25,"Duration":539356,"SoundDuration":539356,"Delta":111339122},{"NoteNumber":75,"Velocity":44,"Duration":124530,"SoundDuration":124530,"Delta":111470206},{"NoteNumber":63,"Velocity":36,"Duration":124530,"SoundDuration":124530,"Delta":111470206},{"NoteNumber":63,"Velocity":39,"Duration":277187,"SoundDuration":277187,"Delta":111601291},{"NoteNumber":75,"Velocity":46,"Duration":277187,"SoundDuration":277187,"Delta":111601291},{"NoteNumber":68,"Velocity":41,"Duration":391644,"SoundDuration":391644,"Delta":111878478},{"NoteNumber":80,"Velocity":49,"Duration":391644,"SoundDuration":391644,"Delta":111878478},{"NoteNumber":48,"Velocity":35,"Duration":195822,"SoundDuration":195822,"Delta":111878478},{"NoteNumber":63,"Velocity":28,"Duration":528858,"SoundDuration":528858,"Delta":112139575},{"NoteNumber":60,"Velocity":24,"Duration":528858,"SoundDuration":528858,"Delta":112139575},{"NoteNumber":56,"Velocity":24,"Duration":528858,"SoundDuration":528858,"Delta":112139575},{"NoteNumber":80,"Velocity":44,"Duration":124020,"SoundDuration":124020,"Delta":112270123},{"NoteNumber":68,"Velocity":36,"Duration":124020,"SoundDuration":124020,"Delta":112270123},{"NoteNumber":68,"Velocity":40,"Duration":267761,"SoundDuration":267761,"Delta":112400671},{"NoteNumber":80,"Velocity":48,"Duration":267761,"SoundDuration":267761,"Delta":112400671},{"NoteNumber":67,"Velocity":41,"Duration":388399,"SoundDuration":388399,"Delta":112668433},{"NoteNumber":79,"Velocity":49,"Duration":388399,"SoundDuration":388399,"Delta":112668433},{"NoteNumber":46,"Velocity":35,"Duration":194199,"SoundDuration":194199,"Delta":112668433},{"NoteNumber":63,"Velocity":28,"Duration":546234,"SoundDuration":546234,"Delta":112927366},{"NoteNumber":61,"Velocity":24,"Duration":546234,"SoundDuration":546234,"Delta":112927366},{"NoteNumber":55,"Velocity":24,"Duration":546234,"SoundDuration":546234,"Delta":112927366},{"NoteNumber":79,"Velocity":44,"Duration":122993,"SoundDuration":122993,"Delta":113056832},{"NoteNumber":67,"Velocity":36,"Duration":122993,"SoundDuration":122993,"Delta":113056832},{"NoteNumber":67,"Velocity":40,"Duration":287301,"SoundDuration":287301,"Delta":113186299},{"NoteNumber":79,"Velocity":48,"Duration":287301,"SoundDuration":287301,"Delta":113186299},{"NoteNumber":73,"Velocity":41,"Duration":841853,"SoundDuration":841853,"Delta":113473600},{"NoteNumber":85,"Velocity":49,"Duration":841853,"SoundDuration":841853,"Delta":113473600},{"NoteNumber":39,"Velocity":37,"Duration":233160,"SoundDuration":233160,"Delta":113473600},{"NoteNumber":63,"Velocity":28,"Duration":530973,"SoundDuration":530973,"Delta":113784481},{"NoteNumber":58,"Velocity":24,"Duration":530973,"SoundDuration":530973,"Delta":113784481},{"NoteNumber":55,"Velocity":24,"Duration":530973,"SoundDuration":530973,"Delta":113784481},{"NoteNumber":72,"Velocity":41,"Duration":388399,"SoundDuration":388399,"Delta":114315454},{"NoteNumber":84,"Velocity":49,"Duration":388399,"SoundDuration":388399,"Delta":114315454},{"NoteNumber":44,"Velocity":36,"Duration":194199,"SoundDuration":194199,"Delta":114315454},{"NoteNumber":63,"Velocity":28,"Duration":526694,"SoundDuration":526694,"Delta":114574387},{"NoteNumber":60,"Velocity":24,"Duration":526694,"SoundDuration":526694,"Delta":114574387},{"NoteNumber":56,"Velocity":24,"Duration":526694,"SoundDuration":526694,"Delta":114574387},{"NoteNumber":84,"Velocity":44,"Duration":129466,"SoundDuration":129466,"Delta":114703854},{"NoteNumber":72,"Velocity":36,"Duration":129466,"SoundDuration":129466,"Delta":114703854},{"NoteNumber":68,"Velocity":40,"Duration":267761,"SoundDuration":267761,"Delta":114833320},{"NoteNumber":80,"Velocity":48,"Duration":267761,"SoundDuration":267761,"Delta":114833320},{"NoteNumber":65,"Velocity":41,"Duration":383664,"SoundDuration":383664,"Delta":115101082},{"NoteNumber":77,"Velocity":49,"Duration":383664,"SoundDuration":383664,"Delta":115101082},{"NoteNumber":37,"Velocity":36,"Duration":191832,"SoundDuration":191832,"Delta":115101082},{"NoteNumber":61,"Velocity":28,"Duration":524666,"SoundDuration":524666,"Delta":115356858},{"NoteNumber":58,"Velocity":24,"Duration":524666,"SoundDuration":524666,"Delta":115356858},{"NoteNumber":53,"Velocity":24,"Duration":524666,"SoundDuration":524666,"Delta":115356858},{"NoteNumber":77,"Velocity":44,"Duration":127888,"SoundDuration":127888,"Delta":115484747},{"NoteNumber":65,"Velocity":36,"Duration":127888,"SoundDuration":127888,"Delta":115484747},{"NoteNumber":70,"Velocity":40,"Duration":268889,"SoundDuration":268889,"Delta":115612635},{"NoteNumber":82,"Velocity":48,"Duration":268889,"SoundDuration":268889,"Delta":115612635},{"NoteNumber":67,"Velocity":41,"Duration":383664,"SoundDuration":383664,"Delta":115881524},{"NoteNumber":79,"Velocity":49,"Duration":383664,"SoundDuration":383664,"Delta":115881524},{"NoteNumber":39,"Velocity":36,"Duration":191832,"SoundDuration":191832,"Delta":115881524},{"NoteNumber":58,"Velocity":28,"Duration":543078,"SoundDuration":543078,"Delta":116137301},{"NoteNumber":55,"Velocity":24,"Duration":543078,"SoundDuration":543078,"Delta":116137301},{"NoteNumber":51,"Velocity":24,"Duration":543078,"SoundDuration":543078,"Delta":116137301},{"NoteNumber":79,"Velocity":44,"Duration":127888,"SoundDuration":127888,"Delta":116265189},{"NoteNumber":67,"Velocity":36,"Duration":127888,"SoundDuration":127888,"Delta":116265189},{"NoteNumber":70,"Velocity":40,"Duration":287301,"SoundDuration":287301,"Delta":116393077},{"NoteNumber":82,"Velocity":48,"Duration":287301,"SoundDuration":287301,"Delta":116393077},{"NoteNumber":63,"Velocity":41,"Duration":398633,"SoundDuration":398633,"Delta":116680379},{"NoteNumber":75,"Velocity":49,"Duration":398633,"SoundDuration":398633,"Delta":116680379},{"NoteNumber":43,"Velocity":35,"Duration":191832,"SoundDuration":191832,"Delta":116680379},{"NoteNumber":61,"Velocity":28,"Duration":551465,"SoundDuration":551465,"Delta":116936155},{"NoteNumber":58,"Velocity":24,"Duration":551465,"SoundDuration":551465,"Delta":116936155},{"NoteNumber":51,"Velocity":24,"Duration":551465,"SoundDuration":551465,"Delta":116936155},{"NoteNumber":84,"Velocity":47,"Duration":136202,"SoundDuration":136202,"Delta":117079013},{"NoteNumber":85,"Velocity":47,"Duration":136202,"SoundDuration":136202,"Delta":117215215},{"NoteNumber":86,"Velocity":47,"Duration":136202,"SoundDuration":136202,"Delta":117351418},{"NoteNumber":75,"Velocity":45,"Duration":389982,"SoundDuration":389982,"Delta":117487621},{"NoteNumber":87,"Velocity":54,"Duration":389982,"SoundDuration":389982,"Delta":117487621},{"NoteNumber":44,"Velocity":36,"Duration":64997,"SoundDuration":64997,"Delta":117487621},{"NoteNumber":51,"Velocity":28,"Duration":129994,"SoundDuration":129994,"Delta":117617615},{"NoteNumber":56,"Velocity":28,"Duration":129993,"SoundDuration":129993,"Delta":117747609},{"NoteNumber":87,"Velocity":47,"Duration":123494,"SoundDuration":123494,"Delta":117877603},{"NoteNumber":75,"Velocity":40,"Duration":123494,"SoundDuration":123494,"Delta":117877603},{"NoteNumber":60,"Velocity":28,"Duration":129993,"SoundDuration":129993,"Delta":117877603},{"NoteNumber":75,"Velocity":43,"Duration":270051,"SoundDuration":270051,"Delta":118007597},{"NoteNumber":87,"Velocity":51,"Duration":270051,"SoundDuration":270051,"Delta":118007597},{"NoteNumber":56,"Velocity":28,"Duration":135025,"SoundDuration":135025,"Delta":118007597},{"NoteNumber":51,"Velocity":28,"Duration":135025,"SoundDuration":135025,"Delta":118142623},{"NoteNumber":80,"Velocity":45,"Duration":388399,"SoundDuration":388399,"Delta":118277648},{"NoteNumber":92,"Velocity":54,"Duration":388399,"SoundDuration":388399,"Delta":118277648},{"NoteNumber":48,"Velocity":36,"Duration":64733,"SoundDuration":64733,"Delta":118277648},{"NoteNumber":56,"Velocity":28,"Duration":129466,"SoundDuration":129466,"Delta":118407115},{"NoteNumber":60,"Velocity":28,"Duration":129466,"SoundDuration":129466,"Delta":118536581},{"NoteNumber":92,"Velocity":47,"Duration":122993,"SoundDuration":122993,"Delta":118666048},{"NoteNumber":80,"Velocity":40,"Duration":122993,"SoundDuration":122993,"Delta":118666048},{"NoteNumber":63,"Velocity":28,"Duration":129466,"SoundDuration":129466,"Delta":118666048},{"NoteNumber":80,"Velocity":44,"Duration":267761,"SoundDuration":267761,"Delta":118795514},{"NoteNumber":92,"Velocity":53,"Duration":267761,"SoundDuration":267761,"Delta":118795514},{"NoteNumber":60,"Velocity":28,"Duration":133880,"SoundDuration":133880,"Delta":118795514},{"NoteNumber":56,"Velocity":28,"Duration":133880,"SoundDuration":133880,"Delta":118929395},{"NoteNumber":79,"Velocity":45,"Duration":383664,"SoundDuration":383664,"Delta":119063276},{"NoteNumber":91,"Velocity":54,"Duration":383664,"SoundDuration":383664,"Delta":119063276},{"NoteNumber":46,"Velocity":40,"Duration":63944,"SoundDuration":63944,"Delta":119063276},{"NoteNumber":55,"Velocity":28,"Duration":127888,"SoundDuration":127888,"Delta":119191164},{"NoteNumber":61,"Velocity":28,"Duration":127888,"SoundDuration":127888,"Delta":119319052},{"NoteNumber":91,"Velocity":47,"Duration":121493,"SoundDuration":121493,"Delta":119446941},{"NoteNumber":79,"Velocity":40,"Duration":121493,"SoundDuration":121493,"Delta":119446941},{"NoteNumber":63,"Velocity":28,"Duration":127888,"SoundDuration":127888,"Delta":119446941},{"NoteNumber":79,"Velocity":44,"Duration":287301,"SoundDuration":287301,"Delta":119574829},{"NoteNumber":91,"Velocity":53,"Duration":287301,"SoundDuration":287301,"Delta":119574829},{"NoteNumber":61,"Velocity":28,"Duration":143650,"SoundDuration":143650,"Delta":119574829},{"NoteNumber":55,"Velocity":28,"Duration":143650,"SoundDuration":143650,"Delta":119718480},{"NoteNumber":85,"Velocity":45,"Duration":805723,"SoundDuration":805723,"Delta":119862130},{"NoteNumber":97,"Velocity":54,"Duration":805723,"SoundDuration":805723,"Delta":119862130},{"NoteNumber":39,"Velocity":37,"Duration":68687,"SoundDuration":68687,"Delta":119862130},{"NoteNumber":55,"Velocity":28,"Duration":137375,"SoundDuration":137375,"Delta":119999506},{"NoteNumber":58,"Velocity":28,"Duration":132743,"SoundDuration":132743,"Delta":120136881},{"NoteNumber":63,"Velocity":28,"Duration":132743,"SoundDuration":132743,"Delta":120269624},{"NoteNumber":58,"Velocity":28,"Duration":132743,"SoundDuration":132743,"Delta":120402367},{"NoteNumber":55,"Velocity":28,"Duration":132743,"SoundDuration":132743,"Delta":120535111},{"NoteNumber":84,"Velocity":45,"Duration":383664,"SoundDuration":383664,"Delta":120667854},{"NoteNumber":96,"Velocity":54,"Duration":383664,"SoundDuration":383664,"Delta":120667854},{"NoteNumber":44,"Velocity":36,"Duration":63944,"SoundDuration":63944,"Delta":120667854},{"NoteNumber":56,"Velocity":28,"Duration":127888,"SoundDuration":127888,"Delta":120795742},{"NoteNumber":60,"Velocity":28,"Duration":127888,"SoundDuration":127888,"Delta":120923630},{"NoteNumber":96,"Velocity":47,"Duration":127888,"SoundDuration":127888,"Delta":121051519},{"NoteNumber":84,"Velocity":40,"Duration":127888,"SoundDuration":127888,"Delta":121051519},{"NoteNumber":63,"Velocity":28,"Duration":127888,"SoundDuration":127888,"Delta":121051519},{"NoteNumber":80,"Velocity":44,"Duration":267761,"SoundDuration":267761,"Delta":121179407},{"NoteNumber":92,"Velocity":53,"Duration":267761,"SoundDuration":267761,"Delta":121179407},{"NoteNumber":60,"Velocity":28,"Duration":133880,"SoundDuration":133880,"Delta":121179407},{"NoteNumber":56,"Velocity":28,"Duration":133880,"SoundDuration":133880,"Delta":121313288},{"NoteNumber":77,"Velocity":45,"Duration":383664,"SoundDuration":383664,"Delta":121447168},{"NoteNumber":89,"Velocity":54,"Duration":383664,"SoundDuration":383664,"Delta":121447168},{"NoteNumber":37,"Velocity":39,"Duration":63944,"SoundDuration":63944,"Delta":121447168},{"NoteNumber":53,"Velocity":28,"Duration":127888,"SoundDuration":127888,"Delta":121575057},{"NoteNumber":58,"Velocity":28,"Duration":127888,"SoundDuration":127888,"Delta":121702945},{"NoteNumber":89,"Velocity":47,"Duration":127888,"SoundDuration":127888,"Delta":121830833},{"NoteNumber":77,"Velocity":40,"Duration":127888,"SoundDuration":127888,"Delta":121830833},{"NoteNumber":61,"Velocity":28,"Duration":127888,"SoundDuration":127888,"Delta":121830833},{"NoteNumber":82,"Velocity":44,"Duration":268889,"SoundDuration":268889,"Delta":121958721},{"NoteNumber":94,"Velocity":53,"Duration":268889,"SoundDuration":268889,"Delta":121958721},{"NoteNumber":58,"Velocity":28,"Duration":134444,"SoundDuration":134444,"Delta":121958721},{"NoteNumber":53,"Velocity":28,"Duration":134444,"SoundDuration":134444,"Delta":122093166},{"NoteNumber":79,"Velocity":45,"Duration":389982,"SoundDuration":389982,"Delta":122227611},{"NoteNumber":91,"Velocity":54,"Duration":389982,"SoundDuration":389982,"Delta":122227611},{"NoteNumber":39,"Velocity":41,"Duration":64997,"SoundDuration":64997,"Delta":122227611},{"NoteNumber":51,"Velocity":28,"Duration":129994,"SoundDuration":129994,"Delta":122357605},{"NoteNumber":55,"Velocity":28,"Duration":129993,"SoundDuration":129993,"Delta":122487599},{"NoteNumber":91,"Velocity":47,"Duration":129993,"SoundDuration":129993,"Delta":122617593},{"NoteNumber":79,"Velocity":40,"Duration":129993,"SoundDuration":129993,"Delta":122617593},{"NoteNumber":61,"Velocity":28,"Duration":129993,"SoundDuration":129993,"Delta":122617593},{"NoteNumber":82,"Velocity":44,"Duration":287301,"SoundDuration":287301,"Delta":122747587},{"NoteNumber":94,"Velocity":53,"Duration":287301,"SoundDuration":287301,"Delta":122747587},{"NoteNumber":55,"Velocity":28,"Duration":143650,"SoundDuration":143650,"Delta":122747587},{"NoteNumber":51,"Velocity":28,"Duration":143650,"SoundDuration":143650,"Delta":122891238},{"NoteNumber":80,"Velocity":45,"Duration":849186,"SoundDuration":849186,"Delta":123034888},{"NoteNumber":92,"Velocity":54,"Duration":849186,"SoundDuration":849186,"Delta":123034888},{"NoteNumber":44,"Velocity":39,"Duration":66096,"SoundDuration":66096,"Delta":123034888},{"NoteNumber":51,"Velocity":28,"Duration":132193,"SoundDuration":132193,"Delta":123167082},{"NoteNumber":56,"Velocity":28,"Duration":132193,"SoundDuration":132193,"Delta":123299275},{"NoteNumber":60,"Velocity":28,"Duration":132193,"SoundDuration":132193,"Delta":123431469},{"NoteNumber":56,"Velocity":28,"Duration":143650,"SoundDuration":143650,"Delta":123563662},{"NoteNumber":51,"Velocity":28,"Duration":176761,"SoundDuration":176761,"Delta":123707313},{"NoteNumber":67,"Velocity":75,"Duration":287301,"SoundDuration":287301,"Delta":123884075},{"NoteNumber":70,"Velocity":75,"Duration":287301,"SoundDuration":287301,"Delta":123884075},{"NoteNumber":73,"Velocity":75,"Duration":287301,"SoundDuration":287301,"Delta":123884075},{"NoteNumber":75,"Velocity":75,"Duration":287301,"SoundDuration":287301,"Delta":123884075},{"NoteNumber":79,"Velocity":89,"Duration":287301,"SoundDuration":287301,"Delta":123884075},{"NoteNumber":39,"Velocity":63,"Duration":287301,"SoundDuration":287301,"Delta":123884075},{"NoteNumber":51,"Velocity":75,"Duration":287301,"SoundDuration":287301,"Delta":123884075},{"NoteNumber":68,"Velocity":77,"Duration":287301,"SoundDuration":287301,"Delta":124745979},{"NoteNumber":72,"Velocity":77,"Duration":287301,"SoundDuration":287301,"Delta":124745979},{"NoteNumber":75,"Velocity":77,"Duration":287301,"SoundDuration":287301,"Delta":124745979},{"NoteNumber":80,"Velocity":91,"Duration":287301,"SoundDuration":287301,"Delta":124745979},{"NoteNumber":32,"Velocity":68,"Duration":287301,"SoundDuration":287301,"Delta":124745979},{"NoteNumber":44,"Velocity":81,"Duration":287301,"SoundDuration":287301,"Delta":124745979},{"NoteNumber":68,"Velocity":45,"Duration":824251,"SoundDuration":824251,"Delta":125607884},{"NoteNumber":68,"Velocity":45,"Duration":806668,"SoundDuration":806668,"Delta":126432135},{"NoteNumber":67,"Velocity":46,"Duration":294031,"SoundDuration":294031,"Delta":127238804},{"NoteNumber":70,"Velocity":42,"Duration":261096,"SoundDuration":261096,"Delta":127532835},{"NoteNumber":68,"Velocity":45,"Duration":540103,"SoundDuration":540103,"Delta":127793931},{"NoteNumber":68,"Velocity":42,"Duration":247547,"SoundDuration":247547,"Delta":128334034},{"NoteNumber":68,"Velocity":43,"Duration":247547,"SoundDuration":247547,"Delta":128604086},{"NoteNumber":67,"Velocity":46,"Duration":280899,"SoundDuration":280899,"Delta":128874137},{"NoteNumber":63,"Velocity":36,"Duration":808837,"SoundDuration":808837,"Delta":128874137},{"NoteNumber":60,"Velocity":30,"Duration":1612128,"SoundDuration":1612128,"Delta":128874137},{"NoteNumber":70,"Velocity":42,"Duration":257887,"SoundDuration":257887,"Delta":129155036},{"NoteNumber":68,"Velocity":45,"Duration":540102,"SoundDuration":540102,"Delta":129412923},{"NoteNumber":64,"Velocity":36,"Duration":803290,"SoundDuration":803290,"Delta":129682975},{"NoteNumber":68,"Velocity":43,"Duration":244401,"SoundDuration":244401,"Delta":129953026},{"NoteNumber":68,"Velocity":43,"Duration":244401,"SoundDuration":244401,"Delta":130219646},{"NoteNumber":67,"Velocity":47,"Duration":280899,"SoundDuration":280899,"Delta":130486265},{"NoteNumber":65,"Velocity":36,"Duration":838808,"SoundDuration":838808,"Delta":130486265},{"NoteNumber":61,"Velocity":30,"Duration":838808,"SoundDuration":838808,"Delta":130486265},{"NoteNumber":70,"Velocity":44,"Duration":266619,"SoundDuration":266619,"Delta":130767164},{"NoteNumber":68,"Velocity":44,"Duration":291290,"SoundDuration":291290,"Delta":131033784},{"NoteNumber":67,"Velocity":49,"Duration":305437,"SoundDuration":305437,"Delta":131325074},{"NoteNumber":63,"Velocity":36,"Duration":880835,"SoundDuration":880835,"Delta":131325074},{"NoteNumber":56,"Velocity":30,"Duration":880835,"SoundDuration":880835,"Delta":131325074},{"NoteNumber":70,"Velocity":44,"Duration":277187,"SoundDuration":277187,"Delta":131630511},{"NoteNumber":68,"Velocity":44,"Duration":298210,"SoundDuration":298210,"Delta":131907699},{"NoteNumber":67,"Velocity":48,"Duration":282166,"SoundDuration":282166,"Delta":132205909},{"NoteNumber":49,"Velocity":30,"Duration":1090819,"SoundDuration":1090819,"Delta":132205909},{"NoteNumber":53,"Velocity":30,"Duration":1090819,"SoundDuration":1090819,"Delta":132205909},{"NoteNumber":61,"Velocity":36,"Duration":1090819,"SoundDuration":1090819,"Delta":132205909},{"NoteNumber":70,"Velocity":45,"Duration":258933,"SoundDuration":258933,"Delta":132488076},{"NoteNumber":68,"Velocity":45,"Duration":270051,"SoundDuration":270051,"Delta":132747009},{"NoteNumber":73,"Velocity":48,"Duration":809707,"SoundDuration":809707,"Delta":133017061},{"NoteNumber":61,"Velocity":36,"Duration":259987,"SoundDuration":259987,"Delta":133296729},{"NoteNumber":65,"Velocity":43,"Duration":259987,"SoundDuration":259987,"Delta":133296729},{"NoteNumber":56,"Velocity":30,"Duration":135025,"SoundDuration":135025,"Delta":133556717},{"NoteNumber":67,"Velocity":48,"Duration":282166,"SoundDuration":282166,"Delta":133826768},{"NoteNumber":49,"Velocity":30,"Duration":1090819,"SoundDuration":1090819,"Delta":133826768},{"NoteNumber":53,"Velocity":30,"Duration":1090819,"SoundDuration":1090819,"Delta":133826768},{"NoteNumber":61,"Velocity":36,"Duration":1090819,"SoundDuration":1090819,"Delta":133826768},{"NoteNumber":70,"Velocity":45,"Duration":258933,"SoundDuration":258933,"Delta":134108935},{"NoteNumber":68,"Velocity":45,"Duration":270051,"SoundDuration":270051,"Delta":134367868},{"NoteNumber":73,"Velocity":48,"Duration":809707,"SoundDuration":809707,"Delta":134637920},{"NoteNumber":61,"Velocity":36,"Duration":259987,"SoundDuration":259987,"Delta":134917588},{"NoteNumber":65,"Velocity":43,"Duration":259987,"SoundDuration":259987,"Delta":134917588},{"NoteNumber":56,"Velocity":29,"Duration":135025,"SoundDuration":135025,"Delta":135177576},{"NoteNumber":74,"Velocity":48,"Duration":265486,"SoundDuration":265486,"Delta":135447627},{"NoteNumber":48,"Velocity":30,"Duration":1074139,"SoundDuration":1074139,"Delta":135447627},{"NoteNumber":54,"Velocity":30,"Duration":1074139,"SoundDuration":1074139,"Delta":135447627},{"NoteNumber":56,"Velocity":36,"Duration":1074139,"SoundDuration":1074139,"Delta":135447627},{"NoteNumber":77,"Velocity":45,"Duration":258933,"SoundDuration":258933,"Delta":135713114},{"NoteNumber":75,"Velocity":45,"Duration":270051,"SoundDuration":270051,"Delta":135972047},{"NoteNumber":68,"Velocity":48,"Duration":809707,"SoundDuration":809707,"Delta":136242098},{"NoteNumber":63,"Velocity":36,"Duration":259987,"SoundDuration":259987,"Delta":136521766},{"NoteNumber":66,"Velocity":43,"Duration":259987,"SoundDuration":259987,"Delta":136521766},{"NoteNumber":56,"Velocity":31,"Duration":135025,"SoundDuration":135025,"Delta":136781754},{"NoteNumber":74,"Velocity":48,"Duration":265486,"SoundDuration":265486,"Delta":137051806},{"NoteNumber":48,"Velocity":30,"Duration":1074139,"SoundDuration":1074139,"Delta":137051806},{"NoteNumber":54,"Velocity":30,"Duration":1074139,"SoundDuration":1074139,"Delta":137051806},{"NoteNumber":56,"Velocity":36,"Duration":1074139,"SoundDuration":1074139,"Delta":137051806},{"NoteNumber":77,"Velocity":45,"Duration":258933,"SoundDuration":258933,"Delta":137317292},{"NoteNumber":75,"Velocity":45,"Duration":270051,"SoundDuration":270051,"Delta":137576225},{"NoteNumber":68,"Velocity":48,"Duration":809707,"SoundDuration":809707,"Delta":137846277},{"NoteNumber":63,"Velocity":36,"Duration":259987,"SoundDuration":259987,"Delta":138125945},{"NoteNumber":66,"Velocity":43,"Duration":259987,"SoundDuration":259987,"Delta":138125945},{"NoteNumber":56,"Velocity":31,"Duration":135025,"SoundDuration":135025,"Delta":138385933},{"NoteNumber":68,"Velocity":51,"Duration":277187,"SoundDuration":277187,"Delta":138655984},{"NoteNumber":49,"Velocity":30,"Duration":1354082,"SoundDuration":1354082,"Delta":138655984},{"NoteNumber":56,"Velocity":36,"Duration":541574,"SoundDuration":541574,"Delta":138655984},{"NoteNumber":78,"Velocity":55,"Duration":264386,"SoundDuration":264386,"Delta":138933172},{"NoteNumber":77,"Velocity":53,"Duration":272405,"SoundDuration":272405,"Delta":139197559},{"NoteNumber":57,"Velocity":45,"Duration":272405,"SoundDuration":272405,"Delta":139197559},{"NoteNumber":75,"Velocity":59,"Duration":270051,"SoundDuration":270051,"Delta":139469964},{"NoteNumber":58,"Velocity":48,"Duration":540102,"SoundDuration":540102,"Delta":139469964},{"NoteNumber":73,"Velocity":56,"Duration":270051,"SoundDuration":270051,"Delta":139740016},{"NoteNumber":65,"Velocity":43,"Duration":270051,"SoundDuration":270051,"Delta":140010067},{"NoteNumber":72,"Velocity":51,"Duration":546040,"SoundDuration":546040,"Delta":140010067},{"NoteNumber":50,"Velocity":35,"Duration":270051,"SoundDuration":270051,"Delta":140010067},{"NoteNumber":56,"Velocity":41,"Duration":270051,"SoundDuration":270051,"Delta":140010067},{"NoteNumber":61,"Velocity":40,"Duration":854730,"SoundDuration":854730,"Delta":140280119},{"NoteNumber":51,"Velocity":30,"Duration":1304102,"SoundDuration":1304102,"Delta":140280119},{"NoteNumber":55,"Velocity":36,"Duration":854730,"SoundDuration":854730,"Delta":140280119},{"NoteNumber":70,"Velocity":45,"Duration":284710,"SoundDuration":284710,"Delta":140556108},{"NoteNumber":75,"Velocity":45,"Duration":294030,"SoundDuration":294030,"Delta":140840819},{"NoteNumber":60,"Velocity":40,"Duration":449372,"SoundDuration":449372,"Delta":141134850},{"NoteNumber":68,"Velocity":48,"Duration":449372,"SoundDuration":449372,"Delta":141134850},{"NoteNumber":44,"Velocity":29,"Duration":449372,"SoundDuration":449372,"Delta":141134850},{"NoteNumber":56,"Velocity":36,"Duration":449372,"SoundDuration":449372,"Delta":141134850},{"NoteNumber":68,"Velocity":43,"Duration":144230,"SoundDuration":144230,"Delta":141584222},{"NoteNumber":70,"Velocity":43,"Duration":144927,"SoundDuration":144927,"Delta":141728453},{"NoteNumber":68,"Velocity":43,"Duration":144927,"SoundDuration":144927,"Delta":141873380},{"NoteNumber":67,"Velocity":48,"Duration":282166,"SoundDuration":282166,"Delta":142018308},{"NoteNumber":49,"Velocity":30,"Duration":1090819,"SoundDuration":1090819,"Delta":142018308},{"NoteNumber":53,"Velocity":30,"Duration":1090819,"SoundDuration":1090819,"Delta":142018308},{"NoteNumber":61,"Velocity":36,"Duration":1090819,"SoundDuration":1090819,"Delta":142018308},{"NoteNumber":70,"Velocity":45,"Duration":258933,"SoundDuration":258933,"Delta":142300475},{"NoteNumber":68,"Velocity":45,"Duration":270051,"SoundDuration":270051,"Delta":142559408},{"NoteNumber":73,"Velocity":48,"Duration":809707,"SoundDuration":809707,"Delta":142829459},{"NoteNumber":61,"Velocity":36,"Duration":259987,"SoundDuration":259987,"Delta":143109127},{"NoteNumber":65,"Velocity":43,"Duration":259987,"SoundDuration":259987,"Delta":143109127},{"NoteNumber":53,"Velocity":25,"Duration":135025,"SoundDuration":135025,"Delta":143369115},{"NoteNumber":61,"Velocity":30,"Duration":135025,"SoundDuration":135025,"Delta":143369115},{"NoteNumber":67,"Velocity":48,"Duration":282166,"SoundDuration":282166,"Delta":143639167},{"NoteNumber":49,"Velocity":30,"Duration":1090819,"SoundDuration":1090819,"Delta":143639167},{"NoteNumber":53,"Velocity":30,"Duration":1090819,"SoundDuration":1090819,"Delta":143639167},{"NoteNumber":61,"Velocity":36,"Duration":1090819,"SoundDuration":1090819,"Delta":143639167},{"NoteNumber":70,"Velocity":45,"Duration":258933,"SoundDuration":258933,"Delta":143921334},{"NoteNumber":68,"Velocity":45,"Duration":270051,"SoundDuration":270051,"Delta":144180267},{"NoteNumber":73,"Velocity":48,"Duration":809707,"SoundDuration":809707,"Delta":144450318},{"NoteNumber":61,"Velocity":36,"Duration":259987,"SoundDuration":259987,"Delta":144729986},{"NoteNumber":65,"Velocity":43,"Duration":259987,"SoundDuration":259987,"Delta":144729986},{"NoteNumber":53,"Velocity":25,"Duration":135025,"SoundDuration":135025,"Delta":144989974},{"NoteNumber":61,"Velocity":29,"Duration":135025,"SoundDuration":135025,"Delta":144989974},{"NoteNumber":74,"Velocity":48,"Duration":265486,"SoundDuration":265486,"Delta":145260026},{"NoteNumber":48,"Velocity":30,"Duration":1074139,"SoundDuration":1074139,"Delta":145260026},{"NoteNumber":54,"Velocity":30,"Duration":1074139,"SoundDuration":1074139,"Delta":145260026},{"NoteNumber":56,"Velocity":36,"Duration":1074139,"SoundDuration":1074139,"Delta":145260026},{"NoteNumber":77,"Velocity":45,"Duration":258933,"SoundDuration":258933,"Delta":145525512},{"NoteNumber":75,"Velocity":45,"Duration":270051,"SoundDuration":270051,"Delta":145784445},{"NoteNumber":68,"Velocity":48,"Duration":809707,"SoundDuration":809707,"Delta":146054497},{"NoteNumber":63,"Velocity":36,"Duration":259987,"SoundDuration":259987,"Delta":146334165},{"NoteNumber":66,"Velocity":43,"Duration":259987,"SoundDuration":259987,"Delta":146334165},{"NoteNumber":63,"Velocity":31,"Duration":135025,"SoundDuration":135025,"Delta":146594153},{"NoteNumber":56,"Velocity":26,"Duration":135025,"SoundDuration":135025,"Delta":146594153},{"NoteNumber":74,"Velocity":48,"Duration":265486,"SoundDuration":265486,"Delta":146864204},{"NoteNumber":48,"Velocity":30,"Duration":1074139,"SoundDuration":1074139,"Delta":146864204},{"NoteNumber":54,"Velocity":30,"Duration":1074139,"SoundDuration":1074139,"Delta":146864204},{"NoteNumber":56,"Velocity":36,"Duration":1074139,"SoundDuration":1074139,"Delta":146864204},{"NoteNumber":77,"Velocity":45,"Duration":258933,"SoundDuration":258933,"Delta":147129691},{"NoteNumber":75,"Velocity":45,"Duration":270051,"SoundDuration":270051,"Delta":147388624},{"NoteNumber":68,"Velocity":48,"Duration":809707,"SoundDuration":809707,"Delta":147658675},{"NoteNumber":63,"Velocity":36,"Duration":259987,"SoundDuration":259987,"Delta":147938343},{"NoteNumber":66,"Velocity":43,"Duration":259987,"SoundDuration":259987,"Delta":147938343},{"NoteNumber":63,"Velocity":31,"Duration":135025,"SoundDuration":135025,"Delta":148198331},{"NoteNumber":56,"Velocity":26,"Duration":135025,"SoundDuration":135025,"Delta":148198331},{"NoteNumber":68,"Velocity":51,"Duration":277187,"SoundDuration":277187,"Delta":148468383},{"NoteNumber":49,"Velocity":30,"Duration":3248405,"SoundDuration":3248405,"Delta":148468383},{"NoteNumber":56,"Velocity":36,"Duration":541574,"SoundDuration":541574,"Delta":148468383},{"NoteNumber":78,"Velocity":55,"Duration":264386,"SoundDuration":264386,"Delta":148745570},{"NoteNumber":77,"Velocity":53,"Duration":272405,"SoundDuration":272405,"Delta":149009957},{"NoteNumber":57,"Velocity":45,"Duration":272405,"SoundDuration":272405,"Delta":149009957},{"NoteNumber":75,"Velocity":59,"Duration":266619,"SoundDuration":266619,"Delta":149282363},{"NoteNumber":58,"Velocity":48,"Duration":536670,"SoundDuration":536670,"Delta":149282363},{"NoteNumber":73,"Velocity":56,"Duration":270051,"SoundDuration":270051,"Delta":149548982},{"NoteNumber":66,"Velocity":43,"Duration":270051,"SoundDuration":270051,"Delta":149819034},{"NoteNumber":72,"Velocity":51,"Duration":270051,"SoundDuration":270051,"Delta":149819034},{"NoteNumber":57,"Velocity":41,"Duration":270051,"SoundDuration":270051,"Delta":149819034},{"NoteNumber":70,"Velocity":51,"Duration":275989,"SoundDuration":275989,"Delta":150089085},{"NoteNumber":65,"Velocity":40,"Duration":1627703,"SoundDuration":1627703,"Delta":150089085},{"NoteNumber":58,"Velocity":48,"Duration":539262,"SoundDuration":539262,"Delta":150089085},{"NoteNumber":75,"Velocity":55,"Duration":263273,"SoundDuration":263273,"Delta":150365074},{"NoteNumber":73,"Velocity":53,"Duration":272405,"SoundDuration":272405,"Delta":150628348},{"NoteNumber":53,"Velocity":45,"Duration":272405,"SoundDuration":272405,"Delta":150628348},{"NoteNumber":72,"Velocity":52,"Duration":268889,"SoundDuration":268889,"Delta":150900753},{"NoteNumber":61,"Velocity":48,"Duration":542462,"SoundDuration":542462,"Delta":150900753},{"NoteNumber":70,"Velocity":49,"Duration":273572,"SoundDuration":273572,"Delta":151169643},{"NoteNumber":68,"Velocity":45,"Duration":551995,"SoundDuration":551995,"Delta":151443216},{"NoteNumber":59,"Velocity":44,"Duration":273572,"SoundDuration":273572,"Delta":151443216},{"NoteNumber":64,"Velocity":42,"Duration":819696,"SoundDuration":819696,"Delta":151716789},{"NoteNumber":48,"Velocity":30,"Duration":2457829,"SoundDuration":2457829,"Delta":151716789},{"NoteNumber":58,"Velocity":48,"Duration":819696,"SoundDuration":819696,"Delta":151716789},{"NoteNumber":67,"Velocity":45,"Duration":270051,"SoundDuration":270051,"Delta":151995211},{"NoteNumber":72,"Velocity":45,"Duration":271222,"SoundDuration":271222,"Delta":152265263},{"NoteNumber":68,"Velocity":45,"Duration":270051,"SoundDuration":270051,"Delta":152536486},{"NoteNumber":60,"Velocity":42,"Duration":817263,"SoundDuration":817263,"Delta":152536486},{"NoteNumber":56,"Velocity":48,"Duration":817263,"SoundDuration":817263,"Delta":152536486},{"NoteNumber":67,"Velocity":45,"Duration":271222,"SoundDuration":271222,"Delta":152806537},{"NoteNumber":73,"Velocity":45,"Duration":275989,"SoundDuration":275989,"Delta":153077760},{"NoteNumber":68,"Velocity":45,"Duration":271222,"SoundDuration":271222,"Delta":153353749},{"NoteNumber":64,"Velocity":42,"Duration":820868,"SoundDuration":820868,"Delta":153353749},{"NoteNumber":58,"Velocity":48,"Duration":820868,"SoundDuration":820868,"Delta":153353749},{"NoteNumber":67,"Velocity":45,"Duration":271223,"SoundDuration":271223,"Delta":153624972},{"NoteNumber":72,"Velocity":45,"Duration":278422,"SoundDuration":278422,"Delta":153896195},{"NoteNumber":65,"Velocity":45,"Duration":278422,"SoundDuration":278422,"Delta":154174618},{"NoteNumber":53,"Velocity":36,"Duration":278422,"SoundDuration":278422,"Delta":154174618},{"NoteNumber":56,"Velocity":40,"Duration":278422,"SoundDuration":278422,"Delta":154174618},{"NoteNumber":53,"Velocity":51,"Duration":136786,"SoundDuration":136786,"Delta":154592251},{"NoteNumber":54,"Velocity":51,"Duration":136786,"SoundDuration":136786,"Delta":154729038},{"NoteNumber":53,"Velocity":51,"Duration":136786,"SoundDuration":136786,"Delta":154865824},{"NoteNumber":51,"Velocity":57,"Duration":270051,"SoundDuration":270051,"Delta":155002611},{"NoteNumber":42,"Velocity":50,"Duration":286169,"SoundDuration":286169,"Delta":155272662},{"NoteNumber":54,"Velocity":60,"Duration":286169,"SoundDuration":286169,"Delta":155272662},{"NoteNumber":41,"Velocity":46,"Duration":297646,"SoundDuration":297646,"Delta":155535936},{"NoteNumber":53,"Velocity":55,"Duration":297646,"SoundDuration":297646,"Delta":155535936},{"NoteNumber":39,"Velocity":51,"Duration":296968,"SoundDuration":296968,"Delta":155810686},{"NoteNumber":51,"Velocity":61,"Duration":296968,"SoundDuration":296968,"Delta":155810686},{"NoteNumber":37,"Velocity":45,"Duration":289925,"SoundDuration":289925,"Delta":156085437},{"NoteNumber":49,"Velocity":53,"Duration":289925,"SoundDuration":289925,"Delta":156085437},{"NoteNumber":36,"Velocity":48,"Duration":302973,"SoundDuration":302973,"Delta":156352056},{"NoteNumber":48,"Velocity":58,"Duration":302973,"SoundDuration":302973,"Delta":156352056},{"NoteNumber":34,"Velocity":53,"Duration":839004,"SoundDuration":839004,"Delta":156631724},{"NoteNumber":46,"Velocity":64,"Duration":839004,"SoundDuration":839004,"Delta":156631724},{"NoteNumber":60,"Velocity":42,"Duration":856468,"SoundDuration":856468,"Delta":157051226},{"NoteNumber":63,"Velocity":42,"Duration":856468,"SoundDuration":856468,"Delta":157051226},{"NoteNumber":66,"Velocity":50,"Duration":139833,"SoundDuration":139833,"Delta":157051226},{"NoteNumber":68,"Velocity":55,"Duration":139834,"SoundDuration":139834,"Delta":157191060},{"NoteNumber":66,"Velocity":51,"Duration":139834,"SoundDuration":139834,"Delta":157330894},{"NoteNumber":65,"Velocity":61,"Duration":279667,"SoundDuration":279667,"Delta":157470728},{"NoteNumber":33,"Velocity":59,"Duration":279667,"SoundDuration":279667,"Delta":157470728},{"NoteNumber":45,"Velocity":69,"Duration":279667,"SoundDuration":279667,"Delta":157470728},{"NoteNumber":72,"Velocity":55,"Duration":157298,"SoundDuration":157298,"Delta":157750396},{"NoteNumber":53,"Velocity":51,"Duration":136786,"SoundDuration":136786,"Delta":157907695},{"NoteNumber":54,"Velocity":51,"Duration":136786,"SoundDuration":136786,"Delta":158044482},{"NoteNumber":53,"Velocity":51,"Duration":136786,"SoundDuration":136786,"Delta":158181268},{"NoteNumber":51,"Velocity":57,"Duration":270051,"SoundDuration":270051,"Delta":158318055},{"NoteNumber":42,"Velocity":50,"Duration":286169,"SoundDuration":286169,"Delta":158588106},{"NoteNumber":54,"Velocity":60,"Duration":286169,"SoundDuration":286169,"Delta":158588106},{"NoteNumber":39,"Velocity":46,"Duration":297646,"SoundDuration":297646,"Delta":158851380},{"NoteNumber":51,"Velocity":55,"Duration":297646,"SoundDuration":297646,"Delta":158851380},{"NoteNumber":37,"Velocity":51,"Duration":296968,"SoundDuration":296968,"Delta":159126130},{"NoteNumber":49,"Velocity":61,"Duration":296968,"SoundDuration":296968,"Delta":159126130},{"NoteNumber":36,"Velocity":45,"Duration":289925,"SoundDuration":289925,"Delta":159400881},{"NoteNumber":48,"Velocity":53,"Duration":289925,"SoundDuration":289925,"Delta":159400881},{"NoteNumber":34,"Velocity":48,"Duration":302973,"SoundDuration":302973,"Delta":159667500},{"NoteNumber":46,"Velocity":58,"Duration":302973,"SoundDuration":302973,"Delta":159667500},{"NoteNumber":33,"Velocity":53,"Duration":839004,"SoundDuration":839004,"Delta":159947168},{"NoteNumber":45,"Velocity":64,"Duration":839004,"SoundDuration":839004,"Delta":159947168},{"NoteNumber":61,"Velocity":42,"Duration":419501,"SoundDuration":419501,"Delta":160366670},{"NoteNumber":67,"Velocity":50,"Duration":139833,"SoundDuration":139833,"Delta":160366670},{"NoteNumber":68,"Velocity":55,"Duration":139834,"SoundDuration":139834,"Delta":160506504},{"NoteNumber":67,"Velocity":51,"Duration":139834,"SoundDuration":139834,"Delta":160646338},{"NoteNumber":60,"Velocity":42,"Duration":419501,"SoundDuration":419501,"Delta":160786172},{"NoteNumber":68,"Velocity":61,"Duration":279667,"SoundDuration":279667,"Delta":160786172},{"NoteNumber":32,"Velocity":59,"Duration":279667,"SoundDuration":279667,"Delta":160786172},{"NoteNumber":44,"Velocity":69,"Duration":279667,"SoundDuration":279667,"Delta":160786172},{"NoteNumber":75,"Velocity":55,"Duration":139834,"SoundDuration":139834,"Delta":161065840},{"NoteNumber":53,"Velocity":51,"Duration":144983,"SoundDuration":144983,"Delta":161205674},{"NoteNumber":54,"Velocity":51,"Duration":144983,"SoundDuration":144983,"Delta":161350658},{"NoteNumber":53,"Velocity":51,"Duration":144983,"SoundDuration":144983,"Delta":161495641},{"NoteNumber":51,"Velocity":57,"Duration":294030,"SoundDuration":294030,"Delta":161640625},{"NoteNumber":42,"Velocity":44,"Duration":303609,"SoundDuration":303609,"Delta":161934656},{"NoteNumber":54,"Velocity":52,"Duration":303609,"SoundDuration":303609,"Delta":161934656},{"NoteNumber":39,"Velocity":39,"Duration":312036,"SoundDuration":312036,"Delta":162214324},{"NoteNumber":51,"Velocity":47,"Duration":312036,"SoundDuration":312036,"Delta":162214324},{"NoteNumber":36,"Velocity":37,"Duration":322784,"SoundDuration":322784,"Delta":162501625},{"NoteNumber":48,"Velocity":44,"Duration":322784,"SoundDuration":322784,"Delta":162501625},{"NoteNumber":33,"Velocity":34,"Duration":338980,"SoundDuration":338980,"Delta":162798449},{"NoteNumber":45,"Velocity":41,"Duration":338980,"SoundDuration":338980,"Delta":162798449},{"NoteNumber":32,"Velocity":32,"Duration":355031,"SoundDuration":355031,"Delta":163109976},{"NoteNumber":44,"Velocity":38,"Duration":355031,"SoundDuration":355031,"Delta":163109976},{"NoteNumber":30,"Velocity":29,"Duration":10217532,"SoundDuration":10217532,"Delta":163439429},{"NoteNumber":42,"Velocity":35,"Duration":10217532,"SoundDuration":10217532,"Delta":163439429},{"NoteNumber":60,"Velocity":31,"Duration":424764,"SoundDuration":424764,"Delta":163899834},{"NoteNumber":69,"Velocity":38,"Duration":139211,"SoundDuration":139211,"Delta":163899834},{"NoteNumber":70,"Velocity":41,"Duration":139211,"SoundDuration":139211,"Delta":164039045},{"NoteNumber":69,"Velocity":38,"Duration":146341,"SoundDuration":146341,"Delta":164178257},{"NoteNumber":61,"Velocity":31,"Duration":833334,"SoundDuration":833334,"Delta":164324598},{"NoteNumber":70,"Velocity":46,"Duration":833334,"SoundDuration":833334,"Delta":164324598},{"NoteNumber":60,"Velocity":31,"Duration":416597,"SoundDuration":416597,"Delta":165574599},{"NoteNumber":69,"Velocity":38,"Duration":139211,"SoundDuration":139211,"Delta":165574599},{"NoteNumber":70,"Velocity":41,"Duration":134529,"SoundDuration":134529,"Delta":165713810},{"NoteNumber":69,"Velocity":38,"Duration":142857,"SoundDuration":142857,"Delta":165848340},{"NoteNumber":61,"Velocity":31,"Duration":833334,"SoundDuration":833334,"Delta":165991197},{"NoteNumber":70,"Velocity":46,"Duration":833334,"SoundDuration":833334,"Delta":165991197},{"NoteNumber":60,"Velocity":31,"Duration":421205,"SoundDuration":421205,"Delta":167241270},{"NoteNumber":69,"Velocity":38,"Duration":139211,"SoundDuration":139211,"Delta":167241270},{"NoteNumber":70,"Velocity":41,"Duration":136363,"SoundDuration":136363,"Delta":167380482},{"NoteNumber":69,"Velocity":38,"Duration":143545,"SoundDuration":143545,"Delta":167486164},{"NoteNumber":61,"Velocity":31,"Duration":545635,"SoundDuration":545635,"Delta":167662476},{"NoteNumber":70,"Velocity":46,"Duration":836925,"SoundDuration":836925,"Delta":167662476},{"NoteNumber":62,"Velocity":48,"Duration":291290,"SoundDuration":291290,"Delta":168208111},{"NoteNumber":63,"Velocity":45,"Duration":570865,"SoundDuration":570865,"Delta":168499402},{"NoteNumber":73,"Velocity":53,"Duration":280899,"SoundDuration":280899,"Delta":168499402},{"NoteNumber":71,"Velocity":47,"Duration":289966,"SoundDuration":289966,"Delta":168780301},{"NoteNumber":61,"Velocity":40,"Duration":289967,"SoundDuration":289967,"Delta":169070268},{"NoteNumber":70,"Velocity":48,"Duration":570866,"SoundDuration":570866,"Delta":169070268},{"NoteNumber":60,"Velocity":41,"Duration":570865,"SoundDuration":570865,"Delta":169360235},{"NoteNumber":68,"Velocity":42,"Duration":289966,"SoundDuration":289966,"Delta":169641134},{"NoteNumber":61,"Velocity":36,"Duration":289967,"SoundDuration":289967,"Delta":169931101},{"NoteNumber":70,"Velocity":42,"Duration":289967,"SoundDuration":289967,"Delta":169931101},{"NoteNumber":58,"Velocity":41,"Duration":579933,"SoundDuration":579933,"Delta":170221068},{"NoteNumber":66,"Velocity":49,"Duration":579933,"SoundDuration":579933,"Delta":170221068},{"NoteNumber":61,"Velocity":40,"Duration":289967,"SoundDuration":289967,"Delta":170801002},{"NoteNumber":70,"Velocity":48,"Duration":289967,"SoundDuration":289967,"Delta":170801002},{"NoteNumber":64,"Velocity":45,"Duration":291290,"SoundDuration":291290,"Delta":171090969},{"NoteNumber":73,"Velocity":53,"Duration":1149501,"SoundDuration":1149501,"Delta":171090969},{"NoteNumber":67,"Velocity":49,"Duration":280899,"SoundDuration":280899,"Delta":171382259},{"NoteNumber":66,"Velocity":50,"Duration":288656,"SoundDuration":288656,"Delta":171663158},{"NoteNumber":64,"Velocity":44,"Duration":288656,"SoundDuration":288656,"Delta":171951814},{"NoteNumber":71,"Velocity":44,"Duration":283446,"SoundDuration":283446,"Delta":172240470},{"NoteNumber":63,"Velocity":37,"Duration":283446,"SoundDuration":283446,"Delta":172240470},{"NoteNumber":70,"Velocity":44,"Duration":559586,"SoundDuration":559586,"Delta":172523917},{"NoteNumber":61,"Velocity":37,"Duration":273572,"SoundDuration":273572,"Delta":172523917},{"NoteNumber":60,"Velocity":40,"Duration":568180,"SoundDuration":568180,"Delta":172797490},{"NoteNumber":68,"Velocity":44,"Duration":282166,"SoundDuration":282166,"Delta":173083504},{"NoteNumber":70,"Velocity":44,"Duration":291290,"SoundDuration":291290,"Delta":173365671},{"NoteNumber":61,"Velocity":37,"Duration":291290,"SoundDuration":291290,"Delta":173365671},{"NoteNumber":58,"Velocity":41,"Duration":864747,"SoundDuration":864747,"Delta":173656961},{"NoteNumber":66,"Velocity":49,"Duration":582581,"SoundDuration":582581,"Delta":173656961},{"NoteNumber":42,"Velocity":35,"Duration":3477513,"SoundDuration":3477513,"Delta":173656961},{"NoteNumber":70,"Velocity":49,"Duration":282166,"SoundDuration":282166,"Delta":174239542},{"NoteNumber":59,"Velocity":41,"Duration":866027,"SoundDuration":866027,"Delta":174521709},{"NoteNumber":68,"Velocity":49,"Duration":582581,"SoundDuration":582581,"Delta":174521709},{"NoteNumber":50,"Velocity":40,"Duration":866027,"SoundDuration":866027,"Delta":174521709},{"NoteNumber":70,"Velocity":47,"Duration":283446,"SoundDuration":283446,"Delta":175104290},{"NoteNumber":58,"Velocity":39,"Duration":864644,"SoundDuration":864644,"Delta":175387737},{"NoteNumber":66,"Velocity":46,"Duration":579934,"SoundDuration":579934,"Delta":175387737},{"NoteNumber":49,"Velocity":38,"Duration":864644,"SoundDuration":864644,"Delta":175387737},{"NoteNumber":70,"Velocity":45,"Duration":284710,"SoundDuration":284710,"Delta":175967671},{"NoteNumber":59,"Velocity":37,"Duration":882092,"SoundDuration":882092,"Delta":176252382},{"NoteNumber":68,"Velocity":44,"Duration":588062,"SoundDuration":588062,"Delta":176252382},{"NoteNumber":50,"Velocity":36,"Duration":882092,"SoundDuration":882092,"Delta":176252382},{"NoteNumber":70,"Velocity":42,"Duration":294030,"SoundDuration":294030,"Delta":176840444},{"NoteNumber":58,"Velocity":37,"Duration":2787709,"SoundDuration":2787709,"Delta":177134475},{"NoteNumber":66,"Velocity":40,"Duration":882092,"SoundDuration":882092,"Delta":177134475},{"NoteNumber":42,"Velocity":32,"Duration":1814736,"SoundDuration":1814736,"Delta":177134475},{"NoteNumber":49,"Velocity":36,"Duration":2787709,"SoundDuration":2787709,"Delta":177134475},{"NoteNumber":65,"Velocity":40,"Duration":932643,"SoundDuration":932643,"Delta":178016568},{"NoteNumber":64,"Velocity":38,"Duration":972973,"SoundDuration":972973,"Delta":178949211},{"NoteNumber":43,"Velocity":34,"Duration":972973,"SoundDuration":972973,"Delta":178949211},{"NoteNumber":63,"Velocity":37,"Duration":648649,"SoundDuration":648649,"Delta":179922184},{"NoteNumber":44,"Velocity":26,"Duration":948649,"SoundDuration":948649,"Delta":179922184},{"NoteNumber":48,"Velocity":26,"Duration":948649,"SoundDuration":948649,"Delta":179922184},{"NoteNumber":54,"Velocity":31,"Duration":948649,"SoundDuration":948649,"Delta":179922184},{"NoteNumber":68,"Velocity":35,"Duration":300000,"SoundDuration":300000,"Delta":180570833},{"NoteNumber":67,"Velocity":47,"Duration":282166,"SoundDuration":282166,"Delta":180870833},{"NoteNumber":49,"Velocity":29,"Duration":1097372,"SoundDuration":1097372,"Delta":180870833},{"NoteNumber":53,"Velocity":29,"Duration":1097372,"SoundDuration":1097372,"Delta":180870833},{"NoteNumber":61,"Velocity":35,"Duration":1097372,"SoundDuration":1097372,"Delta":180870833},{"NoteNumber":70,"Velocity":44,"Duration":265486,"SoundDuration":265486,"Delta":181153000},{"NoteNumber":68,"Velocity":44,"Duration":270051,"SoundDuration":270051,"Delta":181418487},{"NoteNumber":73,"Velocity":47,"Duration":809707,"SoundDuration":809707,"Delta":181688538},{"NoteNumber":61,"Velocity":35,"Duration":259987,"SoundDuration":259987,"Delta":181968206},{"NoteNumber":65,"Velocity":41,"Duration":259987,"SoundDuration":259987,"Delta":181968206},{"NoteNumber":56,"Velocity":28,"Duration":135025,"SoundDuration":135025,"Delta":182228194},{"NoteNumber":67,"Velocity":47,"Duration":282166,"SoundDuration":282166,"Delta":182498246},{"NoteNumber":53,"Velocity":29,"Duration":1090819,"SoundDuration":1090819,"Delta":182498246},{"NoteNumber":49,"Velocity":29,"Duration":1090819,"SoundDuration":1090819,"Delta":182498246},{"NoteNumber":61,"Velocity":35,"Duration":1090819,"SoundDuration":1090819,"Delta":182498246},{"NoteNumber":70,"Velocity":44,"Duration":258933,"SoundDuration":258933,"Delta":182780413},{"NoteNumber":68,"Velocity":44,"Duration":270051,"SoundDuration":270051,"Delta":183039346},{"NoteNumber":73,"Velocity":47,"Duration":809707,"SoundDuration":809707,"Delta":183309397},{"NoteNumber":61,"Velocity":35,"Duration":259987,"SoundDuration":259987,"Delta":183589065},{"NoteNumber":65,"Velocity":41,"Duration":259987,"SoundDuration":259987,"Delta":183589065},{"NoteNumber":56,"Velocity":28,"Duration":135025,"SoundDuration":135025,"Delta":183849053},{"NoteNumber":74,"Velocity":47,"Duration":270051,"SoundDuration":270051,"Delta":184119105},{"NoteNumber":48,"Velocity":29,"Duration":1078703,"SoundDuration":1078703,"Delta":184119105},{"NoteNumber":54,"Velocity":29,"Duration":1078703,"SoundDuration":1078703,"Delta":184119105},{"NoteNumber":56,"Velocity":35,"Duration":1078703,"SoundDuration":1078703,"Delta":184119105},{"NoteNumber":77,"Velocity":44,"Duration":258933,"SoundDuration":258933,"Delta":184389156},{"NoteNumber":75,"Velocity":44,"Duration":270051,"SoundDuration":270051,"Delta":184648089},{"NoteNumber":68,"Velocity":47,"Duration":809707,"SoundDuration":809707,"Delta":184918141},{"NoteNumber":66,"Velocity":41,"Duration":259987,"SoundDuration":259987,"Delta":185197809},{"NoteNumber":63,"Velocity":35,"Duration":259987,"SoundDuration":259987,"Delta":185197809},{"NoteNumber":56,"Velocity":30,"Duration":135025,"SoundDuration":135025,"Delta":185457797},{"NoteNumber":74,"Velocity":47,"Duration":265486,"SoundDuration":265486,"Delta":185727848},{"NoteNumber":54,"Velocity":29,"Duration":1074139,"SoundDuration":1074139,"Delta":185727848},{"NoteNumber":56,"Velocity":35,"Duration":1074139,"SoundDuration":1074139,"Delta":185727848},{"NoteNumber":48,"Velocity":29,"Duration":1074139,"SoundDuration":1074139,"Delta":185727848},{"NoteNumber":77,"Velocity":44,"Duration":258933,"SoundDuration":258933,"Delta":185993335},{"NoteNumber":75,"Velocity":44,"Duration":270051,"SoundDuration":270051,"Delta":186252268},{"NoteNumber":68,"Velocity":47,"Duration":809707,"SoundDuration":809707,"Delta":186522319},{"NoteNumber":63,"Velocity":35,"Duration":259987,"SoundDuration":259987,"Delta":186801987},{"NoteNumber":66,"Velocity":41,"Duration":259987,"SoundDuration":259987,"Delta":186801987},{"NoteNumber":56,"Velocity":30,"Duration":135025,"SoundDuration":135025,"Delta":187061975},{"NoteNumber":68,"Velocity":49,"Duration":277187,"SoundDuration":277187,"Delta":187332027},{"NoteNumber":56,"Velocity":29,"Duration":813979,"SoundDuration":813979,"Delta":187332027},{"NoteNumber":49,"Velocity":29,"Duration":813979,"SoundDuration":813979,"Delta":187332027},{"NoteNumber":61,"Velocity":35,"Duration":813979,"SoundDuration":813979,"Delta":187332027},{"NoteNumber":78,"Velocity":53,"Duration":264386,"SoundDuration":264386,"Delta":187609214},{"NoteNumber":77,"Velocity":51,"Duration":272405,"SoundDuration":272405,"Delta":187873601},{"NoteNumber":73,"Velocity":49,"Duration":277187,"SoundDuration":277187,"Delta":188146007},{"NoteNumber":53,"Velocity":29,"Duration":813979,"SoundDuration":813979,"Delta":188146007},{"NoteNumber":56,"Velocity":29,"Duration":813979,"SoundDuration":813979,"Delta":188146007},{"NoteNumber":61,"Velocity":35,"Duration":813979,"SoundDuration":813979,"Delta":188146007},{"NoteNumber":82,"Velocity":53,"Duration":264386,"SoundDuration":264386,"Delta":188423194},{"NoteNumber":80,"Velocity":51,"Duration":272405,"SoundDuration":272405,"Delta":188687581},{"NoteNumber":66,"Velocity":41,"Duration":291290,"SoundDuration":291290,"Delta":188959987},{"NoteNumber":75,"Velocity":49,"Duration":291290,"SoundDuration":291290,"Delta":188959987},{"NoteNumber":56,"Velocity":29,"Duration":869168,"SoundDuration":869168,"Delta":188959987},{"NoteNumber":60,"Velocity":35,"Duration":869168,"SoundDuration":869168,"Delta":188959987},{"NoteNumber":70,"Velocity":45,"Duration":279667,"SoundDuration":279667,"Delta":189251277},{"NoteNumber":78,"Velocity":53,"Duration":279667,"SoundDuration":279667,"Delta":189251277},{"NoteNumber":68,"Velocity":43,"Duration":298210,"SoundDuration":298210,"Delta":189530945},{"NoteNumber":77,"Velocity":51,"Duration":298210,"SoundDuration":298210,"Delta":189530945},{"NoteNumber":73,"Velocity":49,"Duration":447315,"SoundDuration":447315,"Delta":189829156},{"NoteNumber":65,"Velocity":35,"Duration":590172,"SoundDuration":590172,"Delta":189829156},{"NoteNumber":61,"Velocity":29,"Duration":590172,"SoundDuration":590172,"Delta":189829156},{"NoteNumber":80,"Velocity":49,"Duration":142857,"SoundDuration":142857,"Delta":190276472},{"NoteNumber":82,"Velocity":49,"Duration":148514,"SoundDuration":148514,"Delta":190419329},{"NoteNumber":80,"Velocity":49,"Duration":148514,"SoundDuration":148514,"Delta":190567844},{"NoteNumber":67,"Velocity":39,"Duration":288461,"SoundDuration":288461,"Delta":190716358},{"NoteNumber":79,"Velocity":47,"Duration":288461,"SoundDuration":288461,"Delta":190716358},{"NoteNumber":49,"Velocity":29,"Duration":1097114,"SoundDuration":1097114,"Delta":190716358},{"NoteNumber":53,"Velocity":29,"Duration":1097114,"SoundDuration":1097114,"Delta":190716358},{"NoteNumber":61,"Velocity":35,"Duration":1097114,"SoundDuration":1097114,"Delta":190716358},{"NoteNumber":70,"Velocity":37,"Duration":258933,"SoundDuration":258933,"Delta":191004820},{"NoteNumber":82,"Velocity":44,"Duration":258933,"SoundDuration":258933,"Delta":191004820},{"NoteNumber":68,"Velocity":37,"Duration":270051,"SoundDuration":270051,"Delta":191263753},{"NoteNumber":80,"Velocity":44,"Duration":270051,"SoundDuration":270051,"Delta":191263753},{"NoteNumber":73,"Velocity":39,"Duration":809707,"SoundDuration":809707,"Delta":191533804},{"NoteNumber":85,"Velocity":47,"Duration":809707,"SoundDuration":809707,"Delta":191533804},{"NoteNumber":61,"Velocity":35,"Duration":259987,"SoundDuration":259987,"Delta":191813472},{"NoteNumber":65,"Velocity":41,"Duration":259987,"SoundDuration":259987,"Delta":191813472},{"NoteNumber":56,"Velocity":28,"Duration":135025,"SoundDuration":135025,"Delta":192073460},{"NoteNumber":67,"Velocity":39,"Duration":282166,"SoundDuration":282166,"Delta":192343512},{"NoteNumber":79,"Velocity":47,"Duration":282166,"SoundDuration":282166,"Delta":192343512},{"NoteNumber":53,"Velocity":29,"Duration":1090819,"SoundDuration":1090819,"Delta":192343512},{"NoteNumber":49,"Velocity":29,"Duration":1090819,"SoundDuration":1090819,"Delta":192343512},{"NoteNumber":61,"Velocity":35,"Duration":1090819,"SoundDuration":1090819,"Delta":192343512},{"NoteNumber":70,"Velocity":37,"Duration":258933,"SoundDuration":258933,"Delta":192625679},{"NoteNumber":82,"Velocity":44,"Duration":258933,"SoundDuration":258933,"Delta":192625679},{"NoteNumber":68,"Velocity":37,"Duration":270051,"SoundDuration":270051,"Delta":192884612},{"NoteNumber":80,"Velocity":44,"Duration":270051,"SoundDuration":270051,"Delta":192884612},{"NoteNumber":73,"Velocity":39,"Duration":809707,"SoundDuration":809707,"Delta":193154663},{"NoteNumber":85,"Velocity":47,"Duration":809707,"SoundDuration":809707,"Delta":193154663},{"NoteNumber":61,"Velocity":35,"Duration":259987,"SoundDuration":259987,"Delta":193434331},{"NoteNumber":65,"Velocity":41,"Duration":259987,"SoundDuration":259987,"Delta":193434331},{"NoteNumber":56,"Velocity":28,"Duration":135025,"SoundDuration":135025,"Delta":193694319},{"NoteNumber":74,"Velocity":39,"Duration":270051,"SoundDuration":270051,"Delta":193964371},{"NoteNumber":86,"Velocity":47,"Duration":270051,"SoundDuration":270051,"Delta":193964371},{"NoteNumber":48,"Velocity":29,"Duration":1078703,"SoundDuration":1078703,"Delta":193964371},{"NoteNumber":54,"Velocity":29,"Duration":1078703,"SoundDuration":1078703,"Delta":193964371},{"NoteNumber":56,"Velocity":35,"Duration":1078703,"SoundDuration":1078703,"Delta":193964371},{"NoteNumber":77,"Velocity":37,"Duration":258933,"SoundDuration":258933,"Delta":194234422},{"NoteNumber":89,"Velocity":44,"Duration":258933,"SoundDuration":258933,"Delta":194234422},{"NoteNumber":75,"Velocity":37,"Duration":270051,"SoundDuration":270051,"Delta":194493355},{"NoteNumber":87,"Velocity":44,"Duration":270051,"SoundDuration":270051,"Delta":194493355},{"NoteNumber":68,"Velocity":39,"Duration":809707,"SoundDuration":809707,"Delta":194763407},{"NoteNumber":80,"Velocity":47,"Duration":809707,"SoundDuration":809707,"Delta":194763407},{"NoteNumber":66,"Velocity":41,"Duration":259987,"SoundDuration":259987,"Delta":195043075},{"NoteNumber":63,"Velocity":35,"Duration":259987,"SoundDuration":259987,"Delta":195043075},{"NoteNumber":56,"Velocity":30,"Duration":135025,"SoundDuration":135025,"Delta":195303063},{"NoteNumber":74,"Velocity":39,"Duration":265486,"SoundDuration":265486,"Delta":195573114},{"NoteNumber":86,"Velocity":47,"Duration":265486,"SoundDuration":265486,"Delta":195573114},{"NoteNumber":54,"Velocity":29,"Duration":1074139,"SoundDuration":1074139,"Delta":195573114},{"NoteNumber":56,"Velocity":35,"Duration":1074139,"SoundDuration":1074139,"Delta":195573114},{"NoteNumber":48,"Velocity":29,"Duration":1074139,"SoundDuration":1074139,"Delta":195573114},{"NoteNumber":77,"Velocity":37,"Duration":258933,"SoundDuration":258933,"Delta":195838601},{"NoteNumber":89,"Velocity":44,"Duration":258933,"SoundDuration":258933,"Delta":195838601},{"NoteNumber":75,"Velocity":37,"Duration":270051,"SoundDuration":270051,"Delta":196097534},{"NoteNumber":87,"Velocity":44,"Duration":270051,"SoundDuration":270051,"Delta":196097534},{"NoteNumber":68,"Velocity":39,"Duration":809707,"SoundDuration":809707,"Delta":196367585},{"NoteNumber":80,"Velocity":47,"Duration":809707,"SoundDuration":809707,"Delta":196367585},{"NoteNumber":63,"Velocity":35,"Duration":259987,"SoundDuration":259987,"Delta":196647253},{"NoteNumber":66,"Velocity":41,"Duration":259987,"SoundDuration":259987,"Delta":196647253},{"NoteNumber":56,"Velocity":30,"Duration":135025,"SoundDuration":135025,"Delta":196907241},{"NoteNumber":68,"Velocity":41,"Duration":138593,"SoundDuration":138593,"Delta":197177293},{"NoteNumber":80,"Velocity":49,"Duration":138593,"SoundDuration":138593,"Delta":197177293},{"NoteNumber":56,"Velocity":29,"Duration":813979,"SoundDuration":813979,"Delta":197177293},{"NoteNumber":49,"Velocity":29,"Duration":813979,"SoundDuration":813979,"Delta":197177293},{"NoteNumber":61,"Velocity":35,"Duration":813979,"SoundDuration":813979,"Delta":197177293},{"NoteNumber":78,"Velocity":45,"Duration":264386,"SoundDuration":264386,"Delta":197454480},{"NoteNumber":90,"Velocity":53,"Duration":264386,"SoundDuration":264386,"Delta":197454480},{"NoteNumber":77,"Velocity":43,"Duration":272405,"SoundDuration":272405,"Delta":197718867},{"NoteNumber":89,"Velocity":51,"Duration":272405,"SoundDuration":272405,"Delta":197718867},{"NoteNumber":73,"Velocity":41,"Duration":147015,"SoundDuration":147015,"Delta":197991273},{"NoteNumber":85,"Velocity":49,"Duration":147015,"SoundDuration":147015,"Delta":197991273},{"NoteNumber":53,"Velocity":29,"Duration":861310,"SoundDuration":861310,"Delta":197991273},{"NoteNumber":56,"Velocity":29,"Duration":861310,"SoundDuration":861310,"Delta":197991273},{"NoteNumber":61,"Velocity":35,"Duration":861310,"SoundDuration":861310,"Delta":197991273},{"NoteNumber":82,"Velocity":45,"Duration":275989,"SoundDuration":275989,"Delta":198285304},{"NoteNumber":94,"Velocity":53,"Duration":275989,"SoundDuration":275989,"Delta":198285304},{"NoteNumber":80,"Velocity":43,"Duration":291290,"SoundDuration":291290,"Delta":198561293},{"NoteNumber":92,"Velocity":51,"Duration":291290,"SoundDuration":291290,"Delta":198561293},{"NoteNumber":75,"Velocity":41,"Duration":157298,"SoundDuration":157298,"Delta":198852583},{"NoteNumber":87,"Velocity":49,"Duration":157298,"SoundDuration":157298,"Delta":198852583},{"NoteNumber":66,"Velocity":34,"Duration":157298,"SoundDuration":157298,"Delta":198852583},{"NoteNumber":56,"Velocity":29,"Duration":946050,"SoundDuration":946050,"Delta":198852583},{"NoteNumber":60,"Velocity":35,"Duration":946050,"SoundDuration":946050,"Delta":198852583},{"NoteNumber":78,"Velocity":45,"Duration":305437,"SoundDuration":305437,"Delta":199167181},{"NoteNumber":90,"Velocity":53,"Duration":305437,"SoundDuration":305437,"Delta":199167181},{"NoteNumber":70,"Velocity":38,"Duration":305437,"SoundDuration":305437,"Delta":199167181},{"NoteNumber":77,"Velocity":43,"Duration":326016,"SoundDuration":326016,"Delta":199472618},{"NoteNumber":89,"Velocity":51,"Duration":326016,"SoundDuration":326016,"Delta":199472618},{"NoteNumber":68,"Velocity":36,"Duration":326016,"SoundDuration":326016,"Delta":199472618},{"NoteNumber":73,"Velocity":41,"Duration":652031,"SoundDuration":652031,"Delta":199798634},{"NoteNumber":85,"Velocity":49,"Duration":652031,"SoundDuration":652031,"Delta":199798634},{"NoteNumber":65,"Velocity":35,"Duration":652031,"SoundDuration":652031,"Delta":199798634},{"NoteNumber":61,"Velocity":29,"Duration":652031,"SoundDuration":652031,"Delta":199798634},{"NoteNumber":73,"Velocity":49,"Duration":328466,"SoundDuration":328466,"Delta":200776682},{"NoteNumber":73,"Velocity":45,"Duration":104014,"SoundDuration":104014,"Delta":201105149},{"NoteNumber":73,"Velocity":49,"Duration":234375,"SoundDuration":234375,"Delta":201214638},{"NoteNumber":73,"Velocity":49,"Duration":328466,"SoundDuration":328466,"Delta":201449013},{"NoteNumber":73,"Velocity":43,"Duration":104014,"SoundDuration":104014,"Delta":201777480},{"NoteNumber":73,"Velocity":49,"Duration":234375,"SoundDuration":234375,"Delta":201886969},{"NoteNumber":73,"Velocity":44,"Duration":332102,"SoundDuration":332102,"Delta":202121344},{"NoteNumber":76,"Velocity":52,"Duration":332102,"SoundDuration":332102,"Delta":202121344},{"NoteNumber":73,"Velocity":41,"Duration":105165,"SoundDuration":105165,"Delta":202453447},{"NoteNumber":76,"Velocity":49,"Duration":105165,"SoundDuration":105165,"Delta":202453447},{"NoteNumber":73,"Velocity":45,"Duration":232558,"SoundDuration":232558,"Delta":202564148},{"NoteNumber":76,"Velocity":53,"Duration":232558,"SoundDuration":232558,"Delta":202564148},{"NoteNumber":73,"Velocity":44,"Duration":328466,"SoundDuration":328466,"Delta":202796706},{"NoteNumber":76,"Velocity":52,"Duration":328466,"SoundDuration":328466,"Delta":202796706},{"NoteNumber":73,"Velocity":39,"Duration":104014,"SoundDuration":104014,"Delta":203125173},{"NoteNumber":76,"Velocity":47,"Duration":104014,"SoundDuration":104014,"Delta":203125173},{"NoteNumber":73,"Velocity":45,"Duration":235294,"SoundDuration":235294,"Delta":203234662},{"NoteNumber":76,"Velocity":53,"Duration":235294,"SoundDuration":235294,"Delta":203234662},{"NoteNumber":73,"Velocity":45,"Duration":326087,"SoundDuration":326087,"Delta":203469956},{"NoteNumber":76,"Velocity":54,"Duration":326087,"SoundDuration":326087,"Delta":203469956},{"NoteNumber":69,"Velocity":49,"Duration":326087,"SoundDuration":326087,"Delta":203469956},{"NoteNumber":73,"Velocity":41,"Duration":103260,"SoundDuration":103260,"Delta":203796043},{"NoteNumber":76,"Velocity":49,"Duration":103260,"SoundDuration":103260,"Delta":203796043},{"NoteNumber":69,"Velocity":44,"Duration":103260,"SoundDuration":103260,"Delta":203796043},{"NoteNumber":73,"Velocity":45,"Duration":234375,"SoundDuration":234375,"Delta":203904739},{"NoteNumber":76,"Velocity":54,"Duration":234375,"SoundDuration":234375,"Delta":203904739},{"NoteNumber":69,"Velocity":49,"Duration":234375,"SoundDuration":234375,"Delta":203904739},{"NoteNumber":73,"Velocity":45,"Duration":329669,"SoundDuration":329669,"Delta":204139114},{"NoteNumber":76,"Velocity":53,"Duration":329669,"SoundDuration":329669,"Delta":204139114},{"NoteNumber":69,"Velocity":49,"Duration":329669,"SoundDuration":329669,"Delta":204139114},{"NoteNumber":73,"Velocity":41,"Duration":104395,"SoundDuration":104395,"Delta":204468784},{"NoteNumber":76,"Velocity":49,"Duration":104395,"SoundDuration":104395,"Delta":204468784},{"NoteNumber":69,"Velocity":45,"Duration":104395,"SoundDuration":104395,"Delta":204468784},{"NoteNumber":73,"Velocity":45,"Duration":236220,"SoundDuration":236220,"Delta":204578674},{"NoteNumber":76,"Velocity":54,"Duration":236220,"SoundDuration":236220,"Delta":204578674},{"NoteNumber":69,"Velocity":49,"Duration":236220,"SoundDuration":236220,"Delta":204578674},{"NoteNumber":73,"Velocity":59,"Duration":326087,"SoundDuration":326087,"Delta":204814894},{"NoteNumber":75,"Velocity":70,"Duration":326087,"SoundDuration":326087,"Delta":204814894},{"NoteNumber":67,"Velocity":50,"Duration":326087,"SoundDuration":326087,"Delta":204814894},{"NoteNumber":70,"Velocity":60,"Duration":326087,"SoundDuration":326087,"Delta":204814894},{"NoteNumber":73,"Velocity":51,"Duration":103260,"SoundDuration":103260,"Delta":205140982},{"NoteNumber":75,"Velocity":61,"Duration":103260,"SoundDuration":103260,"Delta":205140982},{"NoteNumber":67,"Velocity":45,"Duration":103260,"SoundDuration":103260,"Delta":205140982},{"NoteNumber":70,"Velocity":54,"Duration":103260,"SoundDuration":103260,"Delta":205140982},{"NoteNumber":73,"Velocity":61,"Duration":236220,"SoundDuration":236220,"Delta":205249677},{"NoteNumber":75,"Velocity":72,"Duration":236220,"SoundDuration":236220,"Delta":205249677},{"NoteNumber":67,"Velocity":53,"Duration":236220,"SoundDuration":236220,"Delta":205249677},{"NoteNumber":70,"Velocity":63,"Duration":236220,"SoundDuration":236220,"Delta":205249677},{"NoteNumber":73,"Velocity":75,"Duration":328466,"SoundDuration":328466,"Delta":205485898},{"NoteNumber":75,"Velocity":89,"Duration":328466,"SoundDuration":328466,"Delta":205485898},{"NoteNumber":63,"Velocity":58,"Duration":328466,"SoundDuration":328466,"Delta":205485898},{"NoteNumber":67,"Velocity":58,"Duration":328466,"SoundDuration":328466,"Delta":205485898},{"NoteNumber":70,"Velocity":69,"Duration":328466,"SoundDuration":328466,"Delta":205485898},{"NoteNumber":73,"Velocity":69,"Duration":104014,"SoundDuration":104014,"Delta":205814365},{"NoteNumber":75,"Velocity":81,"Duration":104014,"SoundDuration":104014,"Delta":205814365},{"NoteNumber":63,"Velocity":53,"Duration":104014,"SoundDuration":104014,"Delta":205814365},{"NoteNumber":67,"Velocity":53,"Duration":104014,"SoundDuration":104014,"Delta":205814365},{"NoteNumber":70,"Velocity":64,"Duration":104014,"SoundDuration":104014,"Delta":205814365},{"NoteNumber":73,"Velocity":77,"Duration":233463,"SoundDuration":233463,"Delta":205923854},{"NoteNumber":75,"Velocity":83,"Duration":233463,"SoundDuration":233463,"Delta":205923854},{"NoteNumber":63,"Velocity":60,"Duration":233463,"SoundDuration":233463,"Delta":205923854},{"NoteNumber":67,"Velocity":60,"Duration":233463,"SoundDuration":233463,"Delta":205923854},{"NoteNumber":70,"Velocity":70,"Duration":233463,"SoundDuration":233463,"Delta":205923854},{"NoteNumber":63,"Velocity":75,"Duration":327272,"SoundDuration":327272,"Delta":206157317},{"NoteNumber":72,"Velocity":75,"Duration":327272,"SoundDuration":327272,"Delta":206157317},{"NoteNumber":75,"Velocity":89,"Duration":327272,"SoundDuration":327272,"Delta":206157317},{"NoteNumber":44,"Velocity":61,"Duration":327272,"SoundDuration":327272,"Delta":206157317},{"NoteNumber":51,"Velocity":61,"Duration":327272,"SoundDuration":327272,"Delta":206157317},{"NoteNumber":56,"Velocity":72,"Duration":327272,"SoundDuration":327272,"Delta":206157317},{"NoteNumber":63,"Velocity":72,"Duration":103636,"SoundDuration":103636,"Delta":206484590},{"NoteNumber":72,"Velocity":72,"Duration":103636,"SoundDuration":103636,"Delta":206484590},{"NoteNumber":75,"Velocity":85,"Duration":103636,"SoundDuration":103636,"Delta":206484590},{"NoteNumber":44,"Velocity":56,"Duration":103636,"SoundDuration":103636,"Delta":206484590},{"NoteNumber":51,"Velocity":56,"Duration":103636,"SoundDuration":103636,"Delta":206484590},{"NoteNumber":56,"Velocity":67,"Duration":103636,"SoundDuration":103636,"Delta":206484590},{"NoteNumber":72,"Velocity":75,"Duration":119047,"SoundDuration":119047,"Delta":206593681},{"NoteNumber":75,"Velocity":89,"Duration":119047,"SoundDuration":119047,"Delta":206593681},{"NoteNumber":63,"Velocity":75,"Duration":119047,"SoundDuration":119047,"Delta":206593681},{"NoteNumber":44,"Velocity":62,"Duration":119047,"SoundDuration":119047,"Delta":206593681},{"NoteNumber":51,"Velocity":62,"Duration":119047,"SoundDuration":119047,"Delta":206593681},{"NoteNumber":56,"Velocity":73,"Duration":119047,"SoundDuration":119047,"Delta":206593681},{"NoteNumber":72,"Velocity":75,"Duration":327272,"SoundDuration":327272,"Delta":206831776},{"NoteNumber":75,"Velocity":89,"Duration":327272,"SoundDuration":327272,"Delta":206831776},{"NoteNumber":63,"Velocity":75,"Duration":327272,"SoundDuration":327272,"Delta":206831776},{"NoteNumber":44,"Velocity":61,"Duration":327272,"SoundDuration":327272,"Delta":206831776},{"NoteNumber":51,"Velocity":61,"Duration":327272,"SoundDuration":327272,"Delta":206831776},{"NoteNumber":56,"Velocity":72,"Duration":327272,"SoundDuration":327272,"Delta":206831776},{"NoteNumber":75,"Velocity":85,"Duration":103636,"SoundDuration":103636,"Delta":207159049},{"NoteNumber":63,"Velocity":72,"Duration":103636,"SoundDuration":103636,"Delta":207159049},{"NoteNumber":72,"Velocity":72,"Duration":103636,"SoundDuration":103636,"Delta":207159049},{"NoteNumber":44,"Velocity":56,"Duration":103636,"SoundDuration":103636,"Delta":207159049},{"NoteNumber":51,"Velocity":56,"Duration":103636,"SoundDuration":103636,"Delta":207159049},{"NoteNumber":56,"Velocity":67,"Duration":103636,"SoundDuration":103636,"Delta":207159049},{"NoteNumber":75,"Velocity":89,"Duration":118576,"SoundDuration":118576,"Delta":207268140},{"NoteNumber":63,"Velocity":75,"Duration":118576,"SoundDuration":118576,"Delta":207268140},{"NoteNumber":72,"Velocity":75,"Duration":118576,"SoundDuration":118576,"Delta":207268140},{"NoteNumber":44,"Velocity":62,"Duration":118576,"SoundDuration":118576,"Delta":207268140},{"NoteNumber":51,"Velocity":62,"Duration":118576,"SoundDuration":118576,"Delta":207268140},{"NoteNumber":56,"Velocity":73,"Duration":118576,"SoundDuration":118576,"Delta":207268140},{"NoteNumber":63,"Velocity":68,"Duration":103448,"SoundDuration":103448,"Delta":207505294},{"NoteNumber":71,"Velocity":68,"Duration":103448,"SoundDuration":103448,"Delta":207505294},{"NoteNumber":75,"Velocity":80,"Duration":103448,"SoundDuration":103448,"Delta":207505294},{"NoteNumber":44,"Velocity":62,"Duration":206896,"SoundDuration":206896,"Delta":207505294},{"NoteNumber":51,"Velocity":62,"Duration":206896,"SoundDuration":206896,"Delta":207505294},{"NoteNumber":56,"Velocity":74,"Duration":206896,"SoundDuration":206896,"Delta":207505294},{"NoteNumber":72,"Velocity":73,"Duration":103448,"SoundDuration":103448,"Delta":207608742},{"NoteNumber":68,"Velocity":73,"Duration":106761,"SoundDuration":106761,"Delta":207712190},{"NoteNumber":63,"Velocity":73,"Duration":106761,"SoundDuration":106761,"Delta":207818952},{"NoteNumber":60,"Velocity":80,"Duration":116278,"SoundDuration":116278,"Delta":207925713},{"NoteNumber":63,"Velocity":84,"Duration":104529,"SoundDuration":104529,"Delta":208158271},{"NoteNumber":68,"Velocity":74,"Duration":104529,"SoundDuration":104529,"Delta":208262801},{"NoteNumber":72,"Velocity":74,"Duration":106761,"SoundDuration":106761,"Delta":208367330},{"NoteNumber":75,"Velocity":74,"Duration":106761,"SoundDuration":106761,"Delta":208474092},{"NoteNumber":80,"Velocity":79,"Duration":118576,"SoundDuration":118576,"Delta":208580853},{"NoteNumber":81,"Velocity":77,"Duration":63291,"SoundDuration":63291,"Delta":208818007},{"NoteNumber":69,"Velocity":65,"Duration":63291,"SoundDuration":63291,"Delta":208818007},{"NoteNumber":63,"Velocity":74,"Duration":63291,"SoundDuration":63291,"Delta":208818007},{"NoteNumber":61,"Velocity":62,"Duration":63291,"SoundDuration":63291,"Delta":208818007},{"NoteNumber":55,"Velocity":62,"Duration":63291,"SoundDuration":63291,"Delta":208818007},{"NoteNumber":70,"Velocity":73,"Duration":456274,"SoundDuration":456274,"Delta":209071172},{"NoteNumber":82,"Velocity":86,"Duration":456274,"SoundDuration":456274,"Delta":209071172},{"NoteNumber":63,"Velocity":74,"Duration":456274,"SoundDuration":456274,"Delta":209071172},{"NoteNumber":61,"Velocity":62,"Duration":456274,"SoundDuration":456274,"Delta":209071172},{"NoteNumber":55,"Velocity":62,"Duration":456274,"SoundDuration":456274,"Delta":209071172},{"NoteNumber":62,"Velocity":85,"Duration":103806,"SoundDuration":103806,"Delta":209527446},{"NoteNumber":50,"Velocity":73,"Duration":103806,"SoundDuration":103806,"Delta":209527446},{"NoteNumber":63,"Velocity":70,"Duration":103806,"SoundDuration":103806,"Delta":209631252},{"NoteNumber":51,"Velocity":67,"Duration":103806,"SoundDuration":103806,"Delta":209631252},{"NoteNumber":58,"Velocity":75,"Duration":106761,"SoundDuration":106761,"Delta":209735058},{"NoteNumber":46,"Velocity":70,"Duration":106761,"SoundDuration":106761,"Delta":209735058},{"NoteNumber":55,"Velocity":70,"Duration":106761,"SoundDuration":106761,"Delta":209841820},{"NoteNumber":43,"Velocity":67,"Duration":106761,"SoundDuration":106761,"Delta":209841820},{"NoteNumber":51,"Velocity":76,"Duration":119047,"SoundDuration":119047,"Delta":209948581},{"NoteNumber":39,"Velocity":70,"Duration":119047,"SoundDuration":119047,"Delta":209948581},{"NoteNumber":75,"Velocity":89,"Duration":327272,"SoundDuration":327272,"Delta":210186676},{"NoteNumber":73,"Velocity":75,"Duration":327272,"SoundDuration":327272,"Delta":210186676},{"NoteNumber":63,"Velocity":75,"Duration":327272,"SoundDuration":327272,"Delta":210186676},{"NoteNumber":46,"Velocity":61,"Duration":327272,"SoundDuration":327272,"Delta":210186676},{"NoteNumber":51,"Velocity":61,"Duration":327272,"SoundDuration":327272,"Delta":210186676},{"NoteNumber":58,"Velocity":72,"Duration":327272,"SoundDuration":327272,"Delta":210186676},{"NoteNumber":63,"Velocity":72,"Duration":103636,"SoundDuration":103636,"Delta":210513949},{"NoteNumber":73,"Velocity":72,"Duration":103636,"SoundDuration":103636,"Delta":210513949},{"NoteNumber":75,"Velocity":85,"Duration":103636,"SoundDuration":103636,"Delta":210513949},{"NoteNumber":46,"Velocity":56,"Duration":103636,"SoundDuration":103636,"Delta":210513949},{"NoteNumber":51,"Velocity":56,"Duration":103636,"SoundDuration":103636,"Delta":210513949},{"NoteNumber":58,"Velocity":67,"Duration":103636,"SoundDuration":103636,"Delta":210513949},{"NoteNumber":63,"Velocity":75,"Duration":119047,"SoundDuration":119047,"Delta":210623040},{"NoteNumber":73,"Velocity":75,"Duration":119047,"SoundDuration":119047,"Delta":210623040},{"NoteNumber":75,"Velocity":89,"Duration":119047,"SoundDuration":119047,"Delta":210623040},{"NoteNumber":46,"Velocity":62,"Duration":119047,"SoundDuration":119047,"Delta":210623040},{"NoteNumber":51,"Velocity":62,"Duration":119047,"SoundDuration":119047,"Delta":210623040},{"NoteNumber":58,"Velocity":73,"Duration":119047,"SoundDuration":119047,"Delta":210623040},{"NoteNumber":63,"Velocity":75,"Duration":327272,"SoundDuration":327272,"Delta":210861135},{"NoteNumber":73,"Velocity":75,"Duration":327272,"SoundDuration":327272,"Delta":210861135},{"NoteNumber":75,"Velocity":89,"Duration":327272,"SoundDuration":327272,"Delta":210861135},{"NoteNumber":46,"Velocity":61,"Duration":327272,"SoundDuration":327272,"Delta":210861135},{"NoteNumber":51,"Velocity":61,"Duration":327272,"SoundDuration":327272,"Delta":210861135},{"NoteNumber":58,"Velocity":72,"Duration":327272,"SoundDuration":327272,"Delta":210861135},{"NoteNumber":63,"Velocity":72,"Duration":103636,"SoundDuration":103636,"Delta":211188408},{"NoteNumber":73,"Velocity":72,"Duration":103636,"SoundDuration":103636,"Delta":211188408},{"NoteNumber":75,"Velocity":85,"Duration":103636,"SoundDuration":103636,"Delta":211188408},{"NoteNumber":46,"Velocity":56,"Duration":103636,"SoundDuration":103636,"Delta":211188408},{"NoteNumber":51,"Velocity":56,"Duration":103636,"SoundDuration":103636,"Delta":211188408},{"NoteNumber":58,"Velocity":67,"Duration":103636,"SoundDuration":103636,"Delta":211188408},{"NoteNumber":63,"Velocity":75,"Duration":118576,"SoundDuration":118576,"Delta":211297499},{"NoteNumber":73,"Velocity":75,"Duration":118576,"SoundDuration":118576,"Delta":211297499},{"NoteNumber":75,"Velocity":89,"Duration":118576,"SoundDuration":118576,"Delta":211297499},{"NoteNumber":46,"Velocity":62,"Duration":118576,"SoundDuration":118576,"Delta":211297499},{"NoteNumber":51,"Velocity":62,"Duration":118576,"SoundDuration":118576,"Delta":211297499},{"NoteNumber":58,"Velocity":73,"Duration":118576,"SoundDuration":118576,"Delta":211297499},{"NoteNumber":63,"Velocity":68,"Duration":103448,"SoundDuration":103448,"Delta":211534653},{"NoteNumber":72,"Velocity":68,"Duration":103448,"SoundDuration":103448,"Delta":211534653},{"NoteNumber":75,"Velocity":80,"Duration":103448,"SoundDuration":103448,"Delta":211534653},{"NoteNumber":46,"Velocity":62,"Duration":206896,"SoundDuration":206896,"Delta":211534653},{"NoteNumber":51,"Velocity":62,"Duration":206896,"SoundDuration":206896,"Delta":211534653},{"NoteNumber":58,"Velocity":74,"Duration":206896,"SoundDuration":206896,"Delta":211534653},{"NoteNumber":73,"Velocity":73,"Duration":103448,"SoundDuration":103448,"Delta":211638102},{"NoteNumber":70,"Velocity":73,"Duration":106761,"SoundDuration":106761,"Delta":211741550},{"NoteNumber":67,"Velocity":73,"Duration":106761,"SoundDuration":106761,"Delta":211848311},{"NoteNumber":63,"Velocity":80,"Duration":116278,"SoundDuration":116278,"Delta":211955073},{"NoteNumber":67,"Velocity":84,"Duration":104529,"SoundDuration":104529,"Delta":212187631},{"NoteNumber":70,"Velocity":74,"Duration":104529,"SoundDuration":104529,"Delta":212292160},{"NoteNumber":73,"Velocity":74,"Duration":106761,"SoundDuration":106761,"Delta":212396690},{"NoteNumber":75,"Velocity":74,"Duration":106761,"SoundDuration":106761,"Delta":212503451},{"NoteNumber":79,"Velocity":79,"Duration":118576,"SoundDuration":118576,"Delta":212610213},{"NoteNumber":83,"Velocity":77,"Duration":63291,"SoundDuration":63291,"Delta":212847367},{"NoteNumber":71,"Velocity":65,"Duration":63291,"SoundDuration":63291,"Delta":212847367},{"NoteNumber":67,"Velocity":74,"Duration":63291,"SoundDuration":63291,"Delta":212847367},{"NoteNumber":63,"Velocity":62,"Duration":63291,"SoundDuration":63291,"Delta":212847367},{"NoteNumber":56,"Velocity":62,"Duration":63291,"SoundDuration":63291,"Delta":212847367},{"NoteNumber":72,"Velocity":73,"Duration":456274,"SoundDuration":456274,"Delta":213100531},{"NoteNumber":84,"Velocity":86,"Duration":456274,"SoundDuration":456274,"Delta":213100531},{"NoteNumber":68,"Velocity":74,"Duration":456274,"SoundDuration":456274,"Delta":213100531},{"NoteNumber":63,"Velocity":62,"Duration":456274,"SoundDuration":456274,"Delta":213100531},{"NoteNumber":56,"Velocity":62,"Duration":456274,"SoundDuration":456274,"Delta":213100531},{"NoteNumber":67,"Velocity":85,"Duration":103806,"SoundDuration":103806,"Delta":213556805},{"NoteNumber":55,"Velocity":73,"Duration":103806,"SoundDuration":103806,"Delta":213556805},{"NoteNumber":68,"Velocity":70,"Duration":103806,"SoundDuration":103806,"Delta":213660612},{"NoteNumber":56,"Velocity":67,"Duration":103806,"SoundDuration":103806,"Delta":213660612},{"NoteNumber":63,"Velocity":75,"Duration":106761,"SoundDuration":106761,"Delta":213764418},{"NoteNumber":51,"Velocity":70,"Duration":106761,"SoundDuration":106761,"Delta":213764418},{"NoteNumber":60,"Velocity":70,"Duration":106761,"SoundDuration":106761,"Delta":213871179},{"NoteNumber":48,"Velocity":67,"Duration":106761,"SoundDuration":106761,"Delta":213871179},{"NoteNumber":56,"Velocity":76,"Duration":119047,"SoundDuration":119047,"Delta":213977941},{"NoteNumber":44,"Velocity":70,"Duration":119047,"SoundDuration":119047,"Delta":213977941},{"NoteNumber":75,"Velocity":89,"Duration":327272,"SoundDuration":327272,"Delta":214216036},{"NoteNumber":71,"Velocity":75,"Duration":327272,"SoundDuration":327272,"Delta":214216036},{"NoteNumber":63,"Velocity":75,"Duration":327272,"SoundDuration":327272,"Delta":214216036},{"NoteNumber":44,"Velocity":61,"Duration":327272,"SoundDuration":327272,"Delta":214216036},{"NoteNumber":51,"Velocity":61,"Duration":327272,"SoundDuration":327272,"Delta":214216036},{"NoteNumber":56,"Velocity":72,"Duration":327272,"SoundDuration":327272,"Delta":214216036},{"NoteNumber":63,"Velocity":72,"Duration":103636,"SoundDuration":103636,"Delta":214543309},{"NoteNumber":71,"Velocity":72,"Duration":103636,"SoundDuration":103636,"Delta":214543309},{"NoteNumber":75,"Velocity":85,"Duration":103636,"SoundDuration":103636,"Delta":214543309},{"NoteNumber":44,"Velocity":56,"Duration":103636,"SoundDuration":103636,"Delta":214543309},{"NoteNumber":51,"Velocity":56,"Duration":103636,"SoundDuration":103636,"Delta":214543309},{"NoteNumber":56,"Velocity":67,"Duration":103636,"SoundDuration":103636,"Delta":214543309},{"NoteNumber":63,"Velocity":75,"Duration":119047,"SoundDuration":119047,"Delta":214652400},{"NoteNumber":71,"Velocity":75,"Duration":119047,"SoundDuration":119047,"Delta":214652400},{"NoteNumber":75,"Velocity":89,"Duration":119047,"SoundDuration":119047,"Delta":214652400},{"NoteNumber":44,"Velocity":62,"Duration":119047,"SoundDuration":119047,"Delta":214652400},{"NoteNumber":51,"Velocity":62,"Duration":119047,"SoundDuration":119047,"Delta":214652400},{"NoteNumber":56,"Velocity":73,"Duration":119047,"SoundDuration":119047,"Delta":214652400},{"NoteNumber":71,"Velocity":75,"Duration":327272,"SoundDuration":327272,"Delta":214890495},{"NoteNumber":64,"Velocity":75,"Duration":327272,"SoundDuration":327272,"Delta":214890495},{"NoteNumber":74,"Velocity":75,"Duration":327272,"SoundDuration":327272,"Delta":214890495},{"NoteNumber":76,"Velocity":89,"Duration":327272,"SoundDuration":327272,"Delta":214890495},{"NoteNumber":44,"Velocity":61,"Duration":327272,"SoundDuration":327272,"Delta":214890495},{"NoteNumber":52,"Velocity":61,"Duration":327272,"SoundDuration":327272,"Delta":214890495},{"NoteNumber":56,"Velocity":72,"Duration":327272,"SoundDuration":327272,"Delta":214890495},{"NoteNumber":71,"Velocity":72,"Duration":103636,"SoundDuration":103636,"Delta":215217768},{"NoteNumber":64,"Velocity":72,"Duration":103636,"SoundDuration":103636,"Delta":215217768},{"NoteNumber":74,"Velocity":72,"Duration":103636,"SoundDuration":103636,"Delta":215217768},{"NoteNumber":76,"Velocity":85,"Duration":103636,"SoundDuration":103636,"Delta":215217768},{"NoteNumber":44,"Velocity":56,"Duration":103636,"SoundDuration":103636,"Delta":215217768},{"NoteNumber":52,"Velocity":56,"Duration":103636,"SoundDuration":103636,"Delta":215217768},{"NoteNumber":56,"Velocity":67,"Duration":103636,"SoundDuration":103636,"Delta":215217768},{"NoteNumber":71,"Velocity":75,"Duration":118576,"SoundDuration":118576,"Delta":215326859},{"NoteNumber":64,"Velocity":75,"Duration":118576,"SoundDuration":118576,"Delta":215326859},{"NoteNumber":74,"Velocity":75,"Duration":118576,"SoundDuration":118576,"Delta":215326859},{"NoteNumber":76,"Velocity":89,"Duration":118576,"SoundDuration":118576,"Delta":215326859},{"NoteNumber":44,"Velocity":62,"Duration":118576,"SoundDuration":118576,"Delta":215326859},{"NoteNumber":52,"Velocity":62,"Duration":118576,"SoundDuration":118576,"Delta":215326859},{"NoteNumber":56,"Velocity":73,"Duration":118576,"SoundDuration":118576,"Delta":215326859},{"NoteNumber":64,"Velocity":68,"Duration":103448,"SoundDuration":103448,"Delta":215564013},{"NoteNumber":71,"Velocity":68,"Duration":103448,"SoundDuration":103448,"Delta":215564013},{"NoteNumber":76,"Velocity":80,"Duration":103448,"SoundDuration":103448,"Delta":215564013},{"NoteNumber":45,"Velocity":62,"Duration":206896,"SoundDuration":206896,"Delta":215564013},{"NoteNumber":52,"Velocity":62,"Duration":206896,"SoundDuration":206896,"Delta":215564013},{"NoteNumber":57,"Velocity":74,"Duration":206896,"SoundDuration":206896,"Delta":215564013},{"NoteNumber":72,"Velocity":73,"Duration":103448,"SoundDuration":103448,"Delta":215667461},{"NoteNumber":69,"Velocity":73,"Duration":104529,"SoundDuration":104529,"Delta":215770909},{"NoteNumber":64,"Velocity":73,"Duration":104529,"SoundDuration":104529,"Delta":215875439},{"NoteNumber":60,"Velocity":80,"Duration":113636,"SoundDuration":113636,"Delta":215979968},{"NoteNumber":69,"Velocity":84,"Duration":103806,"SoundDuration":103806,"Delta":216207241},{"NoteNumber":48,"Velocity":63,"Duration":103806,"SoundDuration":103806,"Delta":216207241},{"NoteNumber":72,"Velocity":74,"Duration":103388,"SoundDuration":103388,"Delta":216311047},{"NoteNumber":45,"Velocity":55,"Duration":103388,"SoundDuration":103388,"Delta":216311047},{"NoteNumber":76,"Velocity":76,"Duration":103033,"SoundDuration":103033,"Delta":216414436},{"NoteNumber":40,"Velocity":56,"Duration":103033,"SoundDuration":103033,"Delta":216414436},{"NoteNumber":81,"Velocity":77,"Duration":102622,"SoundDuration":102622,"Delta":216517470},{"NoteNumber":36,"Velocity":57,"Duration":102622,"SoundDuration":102622,"Delta":216517470},{"NoteNumber":84,"Velocity":83,"Duration":118576,"SoundDuration":118576,"Delta":216620093},{"NoteNumber":33,"Velocity":62,"Duration":118576,"SoundDuration":118576,"Delta":216620093},{"NoteNumber":76,"Velocity":89,"Duration":327272,"SoundDuration":327272,"Delta":216857247},{"NoteNumber":72,"Velocity":75,"Duration":327272,"SoundDuration":327272,"Delta":216857247},{"NoteNumber":64,"Velocity":75,"Duration":327272,"SoundDuration":327272,"Delta":216857247},{"NoteNumber":45,"Velocity":61,"Duration":327272,"SoundDuration":327272,"Delta":216857247},{"NoteNumber":52,"Velocity":61,"Duration":327272,"SoundDuration":327272,"Delta":216857247},{"NoteNumber":57,"Velocity":72,"Duration":327272,"SoundDuration":327272,"Delta":216857247},{"NoteNumber":64,"Velocity":72,"Duration":103636,"SoundDuration":103636,"Delta":217184520},{"NoteNumber":72,"Velocity":72,"Duration":103636,"SoundDuration":103636,"Delta":217184520},{"NoteNumber":76,"Velocity":85,"Duration":103636,"SoundDuration":103636,"Delta":217184520},{"NoteNumber":45,"Velocity":56,"Duration":103636,"SoundDuration":103636,"Delta":217184520},{"NoteNumber":52,"Velocity":56,"Duration":103636,"SoundDuration":103636,"Delta":217184520},{"NoteNumber":57,"Velocity":67,"Duration":103636,"SoundDuration":103636,"Delta":217184520},{"NoteNumber":64,"Velocity":75,"Duration":119047,"SoundDuration":119047,"Delta":217293611},{"NoteNumber":72,"Velocity":75,"Duration":119047,"SoundDuration":119047,"Delta":217293611},{"NoteNumber":76,"Velocity":89,"Duration":119047,"SoundDuration":119047,"Delta":217293611},{"NoteNumber":45,"Velocity":62,"Duration":119047,"SoundDuration":119047,"Delta":217293611},{"NoteNumber":52,"Velocity":62,"Duration":119047,"SoundDuration":119047,"Delta":217293611},{"NoteNumber":57,"Velocity":73,"Duration":119047,"SoundDuration":119047,"Delta":217293611},{"NoteNumber":72,"Velocity":75,"Duration":327272,"SoundDuration":327272,"Delta":217531706},{"NoteNumber":65,"Velocity":75,"Duration":327272,"SoundDuration":327272,"Delta":217531706},{"NoteNumber":75,"Velocity":75,"Duration":327272,"SoundDuration":327272,"Delta":217531706},{"NoteNumber":77,"Velocity":89,"Duration":327272,"SoundDuration":327272,"Delta":217531706},{"NoteNumber":45,"Velocity":61,"Duration":327272,"SoundDuration":327272,"Delta":217531706},{"NoteNumber":53,"Velocity":61,"Duration":327272,"SoundDuration":327272,"Delta":217531706},{"NoteNumber":57,"Velocity":72,"Duration":327272,"SoundDuration":327272,"Delta":217531706},{"NoteNumber":72,"Velocity":72,"Duration":103636,"SoundDuration":103636,"Delta":217858979},{"NoteNumber":65,"Velocity":72,"Duration":103636,"SoundDuration":103636,"Delta":217858979},{"NoteNumber":75,"Velocity":72,"Duration":103636,"SoundDuration":103636,"Delta":217858979},{"NoteNumber":77,"Velocity":85,"Duration":103636,"SoundDuration":103636,"Delta":217858979},{"NoteNumber":45,"Velocity":56,"Duration":103636,"SoundDuration":103636,"Delta":217858979},{"NoteNumber":53,"Velocity":56,"Duration":103636,"SoundDuration":103636,"Delta":217858979},{"NoteNumber":57,"Velocity":67,"Duration":103636,"SoundDuration":103636,"Delta":217858979},{"NoteNumber":72,"Velocity":75,"Duration":118576,"SoundDuration":118576,"Delta":217968070},{"NoteNumber":65,"Velocity":75,"Duration":118576,"SoundDuration":118576,"Delta":217968070},{"NoteNumber":75,"Velocity":75,"Duration":118576,"SoundDuration":118576,"Delta":217968070},{"NoteNumber":77,"Velocity":89,"Duration":118576,"SoundDuration":118576,"Delta":217968070},{"NoteNumber":45,"Velocity":62,"Duration":118576,"SoundDuration":118576,"Delta":217968070},{"NoteNumber":53,"Velocity":62,"Duration":118576,"SoundDuration":118576,"Delta":217968070},{"NoteNumber":57,"Velocity":73,"Duration":118576,"SoundDuration":118576,"Delta":217968070},{"NoteNumber":65,"Velocity":68,"Duration":103448,"SoundDuration":103448,"Delta":218205224},{"NoteNumber":72,"Velocity":68,"Duration":103448,"SoundDuration":103448,"Delta":218205224},{"NoteNumber":77,"Velocity":80,"Duration":103448,"SoundDuration":103448,"Delta":218205224},{"NoteNumber":46,"Velocity":62,"Duration":206896,"SoundDuration":206896,"Delta":218205224},{"NoteNumber":53,"Velocity":62,"Duration":206896,"SoundDuration":206896,"Delta":218205224},{"NoteNumber":58,"Velocity":74,"Duration":206896,"SoundDuration":206896,"Delta":218205224},{"NoteNumber":73,"Velocity":73,"Duration":103448,"SoundDuration":103448,"Delta":218308672},{"NoteNumber":70,"Velocity":73,"Duration":104166,"SoundDuration":104166,"Delta":218412120},{"NoteNumber":65,"Velocity":73,"Duration":104166,"SoundDuration":104166,"Delta":218516287},{"NoteNumber":61,"Velocity":80,"Duration":117647,"SoundDuration":117647,"Delta":218620454},{"NoteNumber":70,"Velocity":84,"Duration":104529,"SoundDuration":104529,"Delta":218855748},{"NoteNumber":49,"Velocity":63,"Duration":104529,"SoundDuration":104529,"Delta":218855748},{"NoteNumber":73,"Velocity":75,"Duration":104227,"SoundDuration":104227,"Delta":218960277},{"NoteNumber":46,"Velocity":56,"Duration":104227,"SoundDuration":104227,"Delta":218960277},{"NoteNumber":77,"Velocity":76,"Duration":103806,"SoundDuration":103806,"Delta":219064505},{"NoteNumber":41,"Velocity":57,"Duration":103806,"SoundDuration":103806,"Delta":219064505},{"NoteNumber":82,"Velocity":78,"Duration":103388,"SoundDuration":103388,"Delta":219168311},{"NoteNumber":37,"Velocity":58,"Duration":103388,"SoundDuration":103388,"Delta":219168311},{"NoteNumber":85,"Velocity":85,"Duration":118576,"SoundDuration":118576,"Delta":219271700},{"NoteNumber":34,"Velocity":63,"Duration":118576,"SoundDuration":118576,"Delta":219271700},{"NoteNumber":76,"Velocity":75,"Duration":327272,"SoundDuration":327272,"Delta":219508854},{"NoteNumber":78,"Velocity":89,"Duration":327272,"SoundDuration":327272,"Delta":219508854},{"NoteNumber":73,"Velocity":75,"Duration":327272,"SoundDuration":327272,"Delta":219508854},{"NoteNumber":66,"Velocity":75,"Duration":327272,"SoundDuration":327272,"Delta":219508854},{"NoteNumber":46,"Velocity":61,"Duration":327272,"SoundDuration":327272,"Delta":219508854},{"NoteNumber":54,"Velocity":61,"Duration":327272,"SoundDuration":327272,"Delta":219508854},{"NoteNumber":58,"Velocity":72,"Duration":327272,"SoundDuration":327272,"Delta":219508854},{"NoteNumber":76,"Velocity":72,"Duration":103636,"SoundDuration":103636,"Delta":219836127},{"NoteNumber":66,"Velocity":72,"Duration":103636,"SoundDuration":103636,"Delta":219836127},{"NoteNumber":73,"Velocity":72,"Duration":103636,"SoundDuration":103636,"Delta":219836127},{"NoteNumber":78,"Velocity":85,"Duration":103636,"SoundDuration":103636,"Delta":219836127},{"NoteNumber":46,"Velocity":56,"Duration":103636,"SoundDuration":103636,"Delta":219836127},{"NoteNumber":54,"Velocity":56,"Duration":103636,"SoundDuration":103636,"Delta":219836127},{"NoteNumber":58,"Velocity":67,"Duration":103636,"SoundDuration":103636,"Delta":219836127},{"NoteNumber":76,"Velocity":75,"Duration":119047,"SoundDuration":119047,"Delta":219945218},{"NoteNumber":66,"Velocity":75,"Duration":119047,"SoundDuration":119047,"Delta":219945218},{"NoteNumber":73,"Velocity":75,"Duration":119047,"SoundDuration":119047,"Delta":219945218},{"NoteNumber":78,"Velocity":89,"Duration":119047,"SoundDuration":119047,"Delta":219945218},{"NoteNumber":46,"Velocity":62,"Duration":119047,"SoundDuration":119047,"Delta":219945218},{"NoteNumber":54,"Velocity":62,"Duration":119047,"SoundDuration":119047,"Delta":219945218},{"NoteNumber":58,"Velocity":73,"Duration":119047,"SoundDuration":119047,"Delta":219945218},{"NoteNumber":66,"Velocity":68,"Duration":103448,"SoundDuration":103448,"Delta":220183313},{"NoteNumber":73,"Velocity":68,"Duration":103448,"SoundDuration":103448,"Delta":220183313},{"NoteNumber":78,"Velocity":80,"Duration":103448,"SoundDuration":103448,"Delta":220183313},{"NoteNumber":47,"Velocity":62,"Duration":206896,"SoundDuration":206896,"Delta":220183313},{"NoteNumber":54,"Velocity":62,"Duration":206896,"SoundDuration":206896,"Delta":220183313},{"NoteNumber":59,"Velocity":74,"Duration":206896,"SoundDuration":206896,"Delta":220183313},{"NoteNumber":74,"Velocity":73,"Duration":103448,"SoundDuration":103448,"Delta":220286761},{"NoteNumber":71,"Velocity":73,"Duration":104894,"SoundDuration":104894,"Delta":220390209},{"NoteNumber":66,"Velocity":73,"Duration":104894,"SoundDuration":104894,"Delta":220495104},{"NoteNumber":62,"Velocity":80,"Duration":116278,"SoundDuration":116278,"Delta":220599999},{"NoteNumber":77,"Velocity":75,"Duration":327272,"SoundDuration":327272,"Delta":220832557},{"NoteNumber":79,"Velocity":89,"Duration":327272,"SoundDuration":327272,"Delta":220832557},{"NoteNumber":74,"Velocity":75,"Duration":327272,"SoundDuration":327272,"Delta":220832557},{"NoteNumber":67,"Velocity":75,"Duration":327272,"SoundDuration":327272,"Delta":220832557},{"NoteNumber":47,"Velocity":61,"Duration":327272,"SoundDuration":327272,"Delta":220832557},{"NoteNumber":55,"Velocity":61,"Duration":327272,"SoundDuration":327272,"Delta":220832557},{"NoteNumber":59,"Velocity":72,"Duration":327272,"SoundDuration":327272,"Delta":220832557},{"NoteNumber":77,"Velocity":72,"Duration":103636,"SoundDuration":103636,"Delta":221159830},{"NoteNumber":67,"Velocity":72,"Duration":103636,"SoundDuration":103636,"Delta":221159830},{"NoteNumber":74,"Velocity":72,"Duration":103636,"SoundDuration":103636,"Delta":221159830},{"NoteNumber":79,"Velocity":85,"Duration":103636,"SoundDuration":103636,"Delta":221159830},{"NoteNumber":47,"Velocity":56,"Duration":103636,"SoundDuration":103636,"Delta":221159830},{"NoteNumber":55,"Velocity":56,"Duration":103636,"SoundDuration":103636,"Delta":221159830},{"NoteNumber":59,"Velocity":67,"Duration":103636,"SoundDuration":103636,"Delta":221159830},{"NoteNumber":77,"Velocity":75,"Duration":119047,"SoundDuration":119047,"Delta":221268921},{"NoteNumber":67,"Velocity":75,"Duration":119047,"SoundDuration":119047,"Delta":221268921},{"NoteNumber":74,"Velocity":75,"Duration":119047,"SoundDuration":119047,"Delta":221268921},{"NoteNumber":79,"Velocity":89,"Duration":119047,"SoundDuration":119047,"Delta":221268921},{"NoteNumber":47,"Velocity":62,"Duration":119047,"SoundDuration":119047,"Delta":221268921},{"NoteNumber":55,"Velocity":62,"Duration":119047,"SoundDuration":119047,"Delta":221268921},{"NoteNumber":59,"Velocity":73,"Duration":119047,"SoundDuration":119047,"Delta":221268921},{"NoteNumber":67,"Velocity":68,"Duration":103448,"SoundDuration":103448,"Delta":221507016},{"NoteNumber":74,"Velocity":68,"Duration":103448,"SoundDuration":103448,"Delta":221507016},{"NoteNumber":79,"Velocity":80,"Duration":103448,"SoundDuration":103448,"Delta":221507016},{"NoteNumber":48,"Velocity":62,"Duration":206896,"SoundDuration":206896,"Delta":221507016},{"NoteNumber":55,"Velocity":62,"Duration":206896,"SoundDuration":206896,"Delta":221507016},{"NoteNumber":60,"Velocity":74,"Duration":206896,"SoundDuration":206896,"Delta":221507016},{"NoteNumber":75,"Velocity":73,"Duration":103448,"SoundDuration":103448,"Delta":221610465},{"NoteNumber":72,"Velocity":73,"Duration":105263,"SoundDuration":105263,"Delta":221713913},{"NoteNumber":67,"Velocity":73,"Duration":105263,"SoundDuration":105263,"Delta":221819176},{"NoteNumber":63,"Velocity":80,"Duration":116278,"SoundDuration":116278,"Delta":221924439},{"NoteNumber":72,"Velocity":45,"Duration":106139,"SoundDuration":106139,"Delta":222156997},{"NoteNumber":79,"Velocity":53,"Duration":106139,"SoundDuration":106139,"Delta":222156997},{"NoteNumber":32,"Velocity":39,"Duration":106139,"SoundDuration":106139,"Delta":222156997},{"NoteNumber":84,"Velocity":55,"Duration":104651,"SoundDuration":104651,"Delta":222263137},{"NoteNumber":44,"Velocity":41,"Duration":104651,"SoundDuration":104651,"Delta":222263137},{"NoteNumber":72,"Velocity":47,"Duration":104046,"SoundDuration":104046,"Delta":222367788},{"NoteNumber":79,"Velocity":56,"Duration":104046,"SoundDuration":104046,"Delta":222367788},{"NoteNumber":32,"Velocity":42,"Duration":104046,"SoundDuration":104046,"Delta":222367788},{"NoteNumber":84,"Velocity":58,"Duration":103627,"SoundDuration":103627,"Delta":222471835},{"NoteNumber":44,"Velocity":43,"Duration":103627,"SoundDuration":103627,"Delta":222471835},{"NoteNumber":72,"Velocity":50,"Duration":103093,"SoundDuration":103093,"Delta":222575462},{"NoteNumber":79,"Velocity":59,"Duration":103093,"SoundDuration":103093,"Delta":222575462},{"NoteNumber":32,"Velocity":44,"Duration":103093,"SoundDuration":103093,"Delta":222575462},{"NoteNumber":84,"Velocity":60,"Duration":102564,"SoundDuration":102564,"Delta":222678555},{"NoteNumber":44,"Velocity":46,"Duration":102564,"SoundDuration":102564,"Delta":222678555},{"NoteNumber":72,"Velocity":51,"Duration":102388,"SoundDuration":102388,"Delta":222781119},{"NoteNumber":79,"Velocity":61,"Duration":102388,"SoundDuration":102388,"Delta":222781119},{"NoteNumber":32,"Velocity":47,"Duration":102388,"SoundDuration":102388,"Delta":222781119},{"NoteNumber":84,"Velocity":63,"Duration":102389,"SoundDuration":102389,"Delta":222883508},{"NoteNumber":44,"Velocity":49,"Duration":102389,"SoundDuration":102389,"Delta":222883508},{"NoteNumber":72,"Velocity":54,"Duration":102388,"SoundDuration":102388,"Delta":222985897},{"NoteNumber":79,"Velocity":64,"Duration":102388,"SoundDuration":102388,"Delta":222985897},{"NoteNumber":32,"Velocity":49,"Duration":102388,"SoundDuration":102388,"Delta":222985897},{"NoteNumber":84,"Velocity":65,"Duration":102388,"SoundDuration":102388,"Delta":223088286},{"NoteNumber":44,"Velocity":51,"Duration":102388,"SoundDuration":102388,"Delta":223088286},{"NoteNumber":72,"Velocity":56,"Duration":102389,"SoundDuration":102389,"Delta":223190675},{"NoteNumber":79,"Velocity":66,"Duration":102389,"SoundDuration":102389,"Delta":223190675},{"NoteNumber":32,"Velocity":52,"Duration":102389,"SoundDuration":102389,"Delta":223190675},{"NoteNumber":84,"Velocity":67,"Duration":102388,"SoundDuration":102388,"Delta":223293064},{"NoteNumber":44,"Velocity":53,"Duration":102388,"SoundDuration":102388,"Delta":223293064},{"NoteNumber":72,"Velocity":58,"Duration":103224,"SoundDuration":103224,"Delta":223395453},{"NoteNumber":78,"Velocity":69,"Duration":103224,"SoundDuration":103224,"Delta":223395453},{"NoteNumber":45,"Velocity":51,"Duration":103224,"SoundDuration":103224,"Delta":223395453},{"NoteNumber":84,"Velocity":71,"Duration":104651,"SoundDuration":104651,"Delta":223498678},{"NoteNumber":46,"Velocity":53,"Duration":104651,"SoundDuration":104651,"Delta":223498678},{"NoteNumber":72,"Velocity":61,"Duration":104046,"SoundDuration":104046,"Delta":223603329},{"NoteNumber":78,"Velocity":72,"Duration":104046,"SoundDuration":104046,"Delta":223603329},{"NoteNumber":47,"Velocity":54,"Duration":104046,"SoundDuration":104046,"Delta":223603329},{"NoteNumber":84,"Velocity":74,"Duration":103627,"SoundDuration":103627,"Delta":223707376},{"NoteNumber":48,"Velocity":55,"Duration":103627,"SoundDuration":103627,"Delta":223707376},{"NoteNumber":72,"Velocity":64,"Duration":103093,"SoundDuration":103093,"Delta":223811003},{"NoteNumber":78,"Velocity":76,"Duration":103093,"SoundDuration":103093,"Delta":223811003},{"NoteNumber":49,"Velocity":57,"Duration":103093,"SoundDuration":103093,"Delta":223811003},{"NoteNumber":84,"Velocity":77,"Duration":102564,"SoundDuration":102564,"Delta":223914096},{"NoteNumber":50,"Velocity":59,"Duration":102564,"SoundDuration":102564,"Delta":223914096},{"NoteNumber":78,"Velocity":79,"Duration":102388,"SoundDuration":102388,"Delta":224016660},{"NoteNumber":72,"Velocity":66,"Duration":102388,"SoundDuration":102388,"Delta":224016660},{"NoteNumber":51,"Velocity":61,"Duration":102388,"SoundDuration":102388,"Delta":224016660},{"NoteNumber":84,"Velocity":81,"Duration":102389,"SoundDuration":102389,"Delta":224119049},{"NoteNumber":52,"Velocity":63,"Duration":102389,"SoundDuration":102389,"Delta":224119049},{"NoteNumber":72,"Velocity":70,"Duration":102388,"SoundDuration":102388,"Delta":224221438},{"NoteNumber":78,"Velocity":82,"Duration":102388,"SoundDuration":102388,"Delta":224221438},{"NoteNumber":53,"Velocity":63,"Duration":102388,"SoundDuration":102388,"Delta":224221438},{"NoteNumber":84,"Velocity":84,"Duration":102388,"SoundDuration":102388,"Delta":224323827},{"NoteNumber":54,"Velocity":65,"Duration":102388,"SoundDuration":102388,"Delta":224323827},{"NoteNumber":78,"Velocity":85,"Duration":102389,"SoundDuration":102389,"Delta":224426216},{"NoteNumber":72,"Velocity":72,"Duration":102389,"SoundDuration":102389,"Delta":224426216},{"NoteNumber":55,"Velocity":67,"Duration":102389,"SoundDuration":102389,"Delta":224426216},{"NoteNumber":84,"Velocity":87,"Duration":102388,"SoundDuration":102388,"Delta":224528605},{"NoteNumber":56,"Velocity":69,"Duration":102388,"SoundDuration":102388,"Delta":224528605},{"NoteNumber":78,"Velocity":81,"Duration":222221,"SoundDuration":222221,"Delta":224630994},{"NoteNumber":84,"Velocity":95,"Duration":222221,"SoundDuration":222221,"Delta":224630994},{"NoteNumber":72,"Velocity":81,"Duration":222221,"SoundDuration":222221,"Delta":224630994},{"NoteNumber":56,"Velocity":76,"Duration":222221,"SoundDuration":222221,"Delta":224630994},{"NoteNumber":44,"Velocity":64,"Duration":222221,"SoundDuration":222221,"Delta":224630994},{"NoteNumber":74,"Velocity":72,"Duration":108695,"SoundDuration":108695,"Delta":224853216},{"NoteNumber":78,"Velocity":72,"Duration":108695,"SoundDuration":108695,"Delta":224853216},{"NoteNumber":84,"Velocity":72,"Duration":108695,"SoundDuration":108695,"Delta":224853216},{"NoteNumber":86,"Velocity":85,"Duration":108695,"SoundDuration":108695,"Delta":224853216},{"NoteNumber":68,"Velocity":69,"Duration":108695,"SoundDuration":108695,"Delta":224853216},{"NoteNumber":56,"Velocity":58,"Duration":108695,"SoundDuration":108695,"Delta":224853216},{"NoteNumber":78,"Velocity":72,"Duration":106382,"SoundDuration":106382,"Delta":225070608},{"NoteNumber":84,"Velocity":72,"Duration":106382,"SoundDuration":106382,"Delta":225070608},{"NoteNumber":86,"Velocity":85,"Duration":106382,"SoundDuration":106382,"Delta":225070608},{"NoteNumber":74,"Velocity":72,"Duration":106382,"SoundDuration":106382,"Delta":225070608},{"NoteNumber":68,"Velocity":69,"Duration":106382,"SoundDuration":106382,"Delta":225070608},{"NoteNumber":56,"Velocity":58,"Duration":106382,"SoundDuration":106382,"Delta":225070608},{"NoteNumber":74,"Velocity":79,"Duration":109890,"SoundDuration":109890,"Delta":225283374},{"NoteNumber":78,"Velocity":79,"Duration":109890,"SoundDuration":109890,"Delta":225283374},{"NoteNumber":84,"Velocity":79,"Duration":109890,"SoundDuration":109890,"Delta":225283374},{"NoteNumber":86,"Velocity":93,"Duration":109890,"SoundDuration":109890,"Delta":225283374},{"NoteNumber":56,"Velocity":64,"Duration":109890,"SoundDuration":109890,"Delta":225283374},{"NoteNumber":68,"Velocity":76,"Duration":109890,"SoundDuration":109890,"Delta":225283374},{"NoteNumber":78,"Velocity":72,"Duration":106761,"SoundDuration":106761,"Delta":225503154},{"NoteNumber":84,"Velocity":72,"Duration":106761,"SoundDuration":106761,"Delta":225503154},{"NoteNumber":74,"Velocity":72,"Duration":106761,"SoundDuration":106761,"Delta":225503154},{"NoteNumber":86,"Velocity":85,"Duration":106761,"SoundDuration":106761,"Delta":225503154},{"NoteNumber":68,"Velocity":69,"Duration":106761,"SoundDuration":106761,"Delta":225503154},{"NoteNumber":56,"Velocity":58,"Duration":106761,"SoundDuration":106761,"Delta":225503154},{"NoteNumber":74,"Velocity":72,"Duration":106761,"SoundDuration":106761,"Delta":225716677},{"NoteNumber":78,"Velocity":72,"Duration":106761,"SoundDuration":106761,"Delta":225716677},{"NoteNumber":86,"Velocity":85,"Duration":106761,"SoundDuration":106761,"Delta":225716677},{"NoteNumber":84,"Velocity":72,"Duration":106761,"SoundDuration":106761,"Delta":225716677},{"NoteNumber":56,"Velocity":58,"Duration":106761,"SoundDuration":106761,"Delta":225716677},{"NoteNumber":68,"Velocity":69,"Duration":106761,"SoundDuration":106761,"Delta":225716677},{"NoteNumber":74,"Velocity":72,"Duration":228137,"SoundDuration":228137,"Delta":225930200},{"NoteNumber":79,"Velocity":72,"Duration":228137,"SoundDuration":228137,"Delta":225930200},{"NoteNumber":83,"Velocity":72,"Duration":228137,"SoundDuration":228137,"Delta":225930200},{"NoteNumber":86,"Velocity":85,"Duration":228137,"SoundDuration":228137,"Delta":225930200},{"NoteNumber":55,"Velocity":65,"Duration":228137,"SoundDuration":228137,"Delta":225930200},{"NoteNumber":67,"Velocity":78,"Duration":228137,"SoundDuration":228137,"Delta":225930200},{"NoteNumber":91,"Velocity":85,"Duration":104166,"SoundDuration":104166,"Delta":226158337},{"NoteNumber":83,"Velocity":72,"Duration":104166,"SoundDuration":104166,"Delta":226158337},{"NoteNumber":79,"Velocity":72,"Duration":104166,"SoundDuration":104166,"Delta":226158337},{"NoteNumber":86,"Velocity":72,"Duration":104166,"SoundDuration":104166,"Delta":226158337},{"NoteNumber":43,"Velocity":58,"Duration":104166,"SoundDuration":104166,"Delta":226158337},{"NoteNumber":55,"Velocity":69,"Duration":104166,"SoundDuration":104166,"Delta":226158337},{"NoteNumber":31,"Velocity":52,"Duration":107527,"SoundDuration":107527,"Delta":226366670},{"NoteNumber":43,"Velocity":62,"Duration":107527,"SoundDuration":107527,"Delta":226366670},{"NoteNumber":67,"Velocity":72,"Duration":225563,"SoundDuration":225563,"Delta":226581724},{"NoteNumber":62,"Velocity":72,"Duration":225563,"SoundDuration":225563,"Delta":226581724},{"NoteNumber":71,"Velocity":72,"Duration":225563,"SoundDuration":225563,"Delta":226581724},{"NoteNumber":74,"Velocity":85,"Duration":225563,"SoundDuration":225563,"Delta":226581724},{"NoteNumber":79,"Velocity":85,"Duration":104529,"SoundDuration":104529,"Delta":226807288},{"NoteNumber":74,"Velocity":72,"Duration":104529,"SoundDuration":104529,"Delta":226807288},{"NoteNumber":67,"Velocity":72,"Duration":104529,"SoundDuration":104529,"Delta":226807288},{"NoteNumber":71,"Velocity":72,"Duration":104529,"SoundDuration":104529,"Delta":226807288},{"NoteNumber":65,"Velocity":69,"Duration":104529,"SoundDuration":104529,"Delta":226807288},{"NoteNumber":53,"Velocity":58,"Duration":104529,"SoundDuration":104529,"Delta":226807288},{"NoteNumber":53,"Velocity":62,"Duration":107142,"SoundDuration":107142,"Delta":227016347},{"NoteNumber":41,"Velocity":52,"Duration":107142,"SoundDuration":107142,"Delta":227016347},{"NoteNumber":71,"Velocity":72,"Duration":223880,"SoundDuration":223880,"Delta":227230633},{"NoteNumber":68,"Velocity":72,"Duration":223880,"SoundDuration":223880,"Delta":227230633},{"NoteNumber":74,"Velocity":72,"Duration":223880,"SoundDuration":223880,"Delta":227230633},{"NoteNumber":80,"Velocity":85,"Duration":223880,"SoundDuration":223880,"Delta":227230633},{"NoteNumber":83,"Velocity":85,"Duration":103448,"SoundDuration":103448,"Delta":227454513},{"NoteNumber":80,"Velocity":72,"Duration":103448,"SoundDuration":103448,"Delta":227454513},{"NoteNumber":71,"Velocity":72,"Duration":103448,"SoundDuration":103448,"Delta":227454513},{"NoteNumber":74,"Velocity":72,"Duration":103448,"SoundDuration":103448,"Delta":227454513},{"NoteNumber":64,"Velocity":69,"Duration":103448,"SoundDuration":103448,"Delta":227454513},{"NoteNumber":52,"Velocity":58,"Duration":103448,"SoundDuration":103448,"Delta":227454513},{"NoteNumber":52,"Velocity":63,"Duration":106382,"SoundDuration":106382,"Delta":227661410},{"NoteNumber":40,"Velocity":53,"Duration":106382,"SoundDuration":106382,"Delta":227661410},{"NoteNumber":72,"Velocity":73,"Duration":223048,"SoundDuration":223048,"Delta":227874176},{"NoteNumber":69,"Velocity":73,"Duration":223048,"SoundDuration":223048,"Delta":227874176},{"NoteNumber":76,"Velocity":73,"Duration":223048,"SoundDuration":223048,"Delta":227874176},{"NoteNumber":81,"Velocity":86,"Duration":223048,"SoundDuration":223048,"Delta":227874176},{"NoteNumber":84,"Velocity":86,"Duration":103448,"SoundDuration":103448,"Delta":228097224},{"NoteNumber":81,"Velocity":73,"Duration":103448,"SoundDuration":103448,"Delta":228097224},{"NoteNumber":72,"Velocity":73,"Duration":103448,"SoundDuration":103448,"Delta":228097224},{"NoteNumber":76,"Velocity":73,"Duration":103448,"SoundDuration":103448,"Delta":228097224},{"NoteNumber":69,"Velocity":70,"Duration":103448,"SoundDuration":103448,"Delta":228097224},{"NoteNumber":57,"Velocity":59,"Duration":103448,"SoundDuration":103448,"Delta":228097224},{"NoteNumber":57,"Velocity":63,"Duration":106382,"SoundDuration":106382,"Delta":228304121},{"NoteNumber":45,"Velocity":53,"Duration":106382,"SoundDuration":106382,"Delta":228304121},{"NoteNumber":81,"Velocity":87,"Duration":223048,"SoundDuration":223048,"Delta":228516887},{"NoteNumber":72,"Velocity":74,"Duration":223048,"SoundDuration":223048,"Delta":228516887},{"NoteNumber":69,"Velocity":74,"Duration":223048,"SoundDuration":223048,"Delta":228516887},{"NoteNumber":76,"Velocity":74,"Duration":223048,"SoundDuration":223048,"Delta":228516887},{"NoteNumber":84,"Velocity":88,"Duration":103092,"SoundDuration":103092,"Delta":228739935},{"NoteNumber":81,"Velocity":74,"Duration":103092,"SoundDuration":103092,"Delta":228739935},{"NoteNumber":72,"Velocity":74,"Duration":103092,"SoundDuration":103092,"Delta":228739935},{"NoteNumber":76,"Velocity":74,"Duration":103092,"SoundDuration":103092,"Delta":228739935},{"NoteNumber":67,"Velocity":71,"Duration":103092,"SoundDuration":103092,"Delta":228739935},{"NoteNumber":55,"Velocity":60,"Duration":103092,"SoundDuration":103092,"Delta":228739935},{"NoteNumber":43,"Velocity":54,"Duration":106007,"SoundDuration":106007,"Delta":228946121},{"NoteNumber":55,"Velocity":64,"Duration":106007,"SoundDuration":106007,"Delta":228946121},{"NoteNumber":73,"Velocity":75,"Duration":222221,"SoundDuration":222221,"Delta":229158135},{"NoteNumber":76,"Velocity":75,"Duration":222221,"SoundDuration":222221,"Delta":229158135},{"NoteNumber":82,"Velocity":89,"Duration":222221,"SoundDuration":222221,"Delta":229158135},{"NoteNumber":70,"Velocity":75,"Duration":222221,"SoundDuration":222221,"Delta":229158135},{"NoteNumber":85,"Velocity":89,"Duration":104166,"SoundDuration":104166,"Delta":229380357},{"NoteNumber":82,"Velocity":75,"Duration":104166,"SoundDuration":104166,"Delta":229380357},{"NoteNumber":73,"Velocity":75,"Duration":104166,"SoundDuration":104166,"Delta":229380357},{"NoteNumber":76,"Velocity":75,"Duration":104166,"SoundDuration":104166,"Delta":229380357},{"NoteNumber":54,"Velocity":60,"Duration":104166,"SoundDuration":104166,"Delta":229380357},{"NoteNumber":66,"Velocity":72,"Duration":104166,"SoundDuration":104166,"Delta":229380357},{"NoteNumber":54,"Velocity":65,"Duration":106382,"SoundDuration":106382,"Delta":229588690},{"NoteNumber":42,"Velocity":54,"Duration":106382,"SoundDuration":106382,"Delta":229588690},{"NoteNumber":74,"Velocity":76,"Duration":223048,"SoundDuration":223048,"Delta":229801456},{"NoteNumber":71,"Velocity":76,"Duration":223048,"SoundDuration":223048,"Delta":229801456},{"NoteNumber":78,"Velocity":76,"Duration":223048,"SoundDuration":223048,"Delta":229801456},{"NoteNumber":83,"Velocity":90,"Duration":223048,"SoundDuration":223048,"Delta":229801456},{"NoteNumber":83,"Velocity":76,"Duration":104166,"SoundDuration":104166,"Delta":230024505},{"NoteNumber":74,"Velocity":76,"Duration":104166,"SoundDuration":104166,"Delta":230024505},{"NoteNumber":78,"Velocity":76,"Duration":104166,"SoundDuration":104166,"Delta":230024505},{"NoteNumber":86,"Velocity":90,"Duration":104166,"SoundDuration":104166,"Delta":230024505},{"NoteNumber":59,"Velocity":73,"Duration":104166,"SoundDuration":104166,"Delta":230024505},{"NoteNumber":47,"Velocity":61,"Duration":104166,"SoundDuration":104166,"Delta":230024505},{"NoteNumber":35,"Velocity":55,"Duration":106007,"SoundDuration":106007,"Delta":230232838},{"NoteNumber":47,"Velocity":66,"Duration":106007,"SoundDuration":106007,"Delta":230232838},{"NoteNumber":74,"Velocity":77,"Duration":223048,"SoundDuration":223048,"Delta":230444852},{"NoteNumber":71,"Velocity":77,"Duration":223048,"SoundDuration":223048,"Delta":230444852},{"NoteNumber":83,"Velocity":90,"Duration":223048,"SoundDuration":223048,"Delta":230444852},{"NoteNumber":78,"Velocity":77,"Duration":223048,"SoundDuration":223048,"Delta":230444852},{"NoteNumber":86,"Velocity":90,"Duration":103806,"SoundDuration":103806,"Delta":230667901},{"NoteNumber":83,"Velocity":77,"Duration":103806,"SoundDuration":103806,"Delta":230667901},{"NoteNumber":74,"Velocity":77,"Duration":103806,"SoundDuration":103806,"Delta":230667901},{"NoteNumber":78,"Velocity":77,"Duration":103806,"SoundDuration":103806,"Delta":230667901},{"NoteNumber":45,"Velocity":62,"Duration":103806,"SoundDuration":103806,"Delta":230667901},{"NoteNumber":57,"Velocity":73,"Duration":103806,"SoundDuration":103806,"Delta":230667901},{"NoteNumber":45,"Velocity":66,"Duration":105633,"SoundDuration":105633,"Delta":230875513},{"NoteNumber":33,"Velocity":56,"Duration":105633,"SoundDuration":105633,"Delta":230875513},{"NoteNumber":75,"Velocity":77,"Duration":221402,"SoundDuration":221402,"Delta":231086781},{"NoteNumber":78,"Velocity":77,"Duration":221402,"SoundDuration":221402,"Delta":231086781},{"NoteNumber":72,"Velocity":77,"Duration":221402,"SoundDuration":221402,"Delta":231086781},{"NoteNumber":84,"Velocity":91,"Duration":221402,"SoundDuration":221402,"Delta":231086781},{"NoteNumber":75,"Velocity":78,"Duration":104894,"SoundDuration":104894,"Delta":231308183},{"NoteNumber":78,"Velocity":78,"Duration":104894,"SoundDuration":104894,"Delta":231308183},{"NoteNumber":84,"Velocity":78,"Duration":104894,"SoundDuration":104894,"Delta":231308183},{"NoteNumber":87,"Velocity":92,"Duration":104894,"SoundDuration":104894,"Delta":231308183},{"NoteNumber":56,"Velocity":75,"Duration":104894,"SoundDuration":104894,"Delta":231308183},{"NoteNumber":44,"Velocity":63,"Duration":104894,"SoundDuration":104894,"Delta":231308183},{"NoteNumber":44,"Velocity":67,"Duration":106761,"SoundDuration":106761,"Delta":231517973},{"NoteNumber":32,"Velocity":56,"Duration":106761,"SoundDuration":106761,"Delta":231517973},{"NoteNumber":73,"Velocity":79,"Duration":225563,"SoundDuration":225563,"Delta":231731496},{"NoteNumber":80,"Velocity":79,"Duration":225563,"SoundDuration":225563,"Delta":231731496},{"NoteNumber":76,"Velocity":79,"Duration":225563,"SoundDuration":225563,"Delta":231731496},{"NoteNumber":85,"Velocity":93,"Duration":225563,"SoundDuration":225563,"Delta":231731496},{"NoteNumber":88,"Velocity":93,"Duration":106382,"SoundDuration":106382,"Delta":231957060},{"NoteNumber":85,"Velocity":79,"Duration":106382,"SoundDuration":106382,"Delta":231957060},{"NoteNumber":76,"Velocity":79,"Duration":106382,"SoundDuration":106382,"Delta":231957060},{"NoteNumber":80,"Velocity":79,"Duration":106382,"SoundDuration":106382,"Delta":231957060},{"NoteNumber":61,"Velocity":75,"Duration":106382,"SoundDuration":106382,"Delta":231957060},{"NoteNumber":49,"Velocity":63,"Duration":106382,"SoundDuration":106382,"Delta":231957060},{"NoteNumber":37,"Velocity":57,"Duration":107913,"SoundDuration":107913,"Delta":232169826},{"NoteNumber":49,"Velocity":68,"Duration":107913,"SoundDuration":107913,"Delta":232169826},{"NoteNumber":76,"Velocity":79,"Duration":233463,"SoundDuration":233463,"Delta":232385653},{"NoteNumber":85,"Velocity":94,"Duration":233463,"SoundDuration":233463,"Delta":232385653},{"NoteNumber":80,"Velocity":79,"Duration":233463,"SoundDuration":233463,"Delta":232385653},{"NoteNumber":73,"Velocity":79,"Duration":233463,"SoundDuration":233463,"Delta":232385653},{"NoteNumber":85,"Velocity":79,"Duration":108303,"SoundDuration":108303,"Delta":232619116},{"NoteNumber":76,"Velocity":79,"Duration":108303,"SoundDuration":108303,"Delta":232619116},{"NoteNumber":80,"Velocity":79,"Duration":108303,"SoundDuration":108303,"Delta":232619116},{"NoteNumber":88,"Velocity":94,"Duration":108303,"SoundDuration":108303,"Delta":232619116},{"NoteNumber":59,"Velocity":76,"Duration":108303,"SoundDuration":108303,"Delta":232619116},{"NoteNumber":47,"Velocity":64,"Duration":108303,"SoundDuration":108303,"Delta":232619116},{"NoteNumber":47,"Velocity":69,"Duration":109890,"SoundDuration":109890,"Delta":232835723},{"NoteNumber":35,"Velocity":58,"Duration":109890,"SoundDuration":109890,"Delta":232835723},{"NoteNumber":76,"Velocity":80,"Duration":236220,"SoundDuration":236220,"Delta":233055503},{"NoteNumber":73,"Velocity":80,"Duration":236220,"SoundDuration":236220,"Delta":233055503},{"NoteNumber":85,"Velocity":95,"Duration":236220,"SoundDuration":236220,"Delta":233055503},{"NoteNumber":81,"Velocity":80,"Duration":236220,"SoundDuration":236220,"Delta":233055503},{"NoteNumber":88,"Velocity":95,"Duration":108695,"SoundDuration":108695,"Delta":233291723},{"NoteNumber":85,"Velocity":80,"Duration":108695,"SoundDuration":108695,"Delta":233291723},{"NoteNumber":81,"Velocity":80,"Duration":108695,"SoundDuration":108695,"Delta":233291723},{"NoteNumber":76,"Velocity":80,"Duration":108695,"SoundDuration":108695,"Delta":233291723},{"NoteNumber":57,"Velocity":77,"Duration":108695,"SoundDuration":108695,"Delta":233291723},{"NoteNumber":45,"Velocity":64,"Duration":108695,"SoundDuration":108695,"Delta":233291723},{"NoteNumber":33,"Velocity":58,"Duration":109890,"SoundDuration":109890,"Delta":233509115},{"NoteNumber":45,"Velocity":70,"Duration":109890,"SoundDuration":109890,"Delta":233509115},{"NoteNumber":81,"Velocity":81,"Duration":258620,"SoundDuration":258620,"Delta":233728895},{"NoteNumber":86,"Velocity":96,"Duration":258620,"SoundDuration":258620,"Delta":233728895},{"NoteNumber":74,"Velocity":81,"Duration":258620,"SoundDuration":258620,"Delta":233728895},{"NoteNumber":77,"Velocity":81,"Duration":258620,"SoundDuration":258620,"Delta":233728895},{"NoteNumber":89,"Velocity":96,"Duration":123966,"SoundDuration":123966,"Delta":233987515},{"NoteNumber":81,"Velocity":82,"Duration":123966,"SoundDuration":123966,"Delta":233987515},{"NoteNumber":86,"Velocity":82,"Duration":123966,"SoundDuration":123966,"Delta":233987515},{"NoteNumber":77,"Velocity":82,"Duration":123966,"SoundDuration":123966,"Delta":233987515},{"NoteNumber":57,"Velocity":78,"Duration":123966,"SoundDuration":123966,"Delta":233987515},{"NoteNumber":45,"Velocity":66,"Duration":123966,"SoundDuration":123966,"Delta":233987515},{"NoteNumber":45,"Velocity":86,"Duration":130434,"SoundDuration":130434,"Delta":234235449},{"NoteNumber":33,"Velocity":70,"Duration":130434,"SoundDuration":130434,"Delta":234235449},{"NoteNumber":84,"Velocity":62,"Duration":82128,"SoundDuration":82128,"Delta":234496319},{"NoteNumber":81,"Velocity":62,"Duration":82128,"SoundDuration":82128,"Delta":234496319},{"NoteNumber":78,"Velocity":62,"Duration":82128,"SoundDuration":82128,"Delta":234496319},{"NoteNumber":90,"Velocity":74,"Duration":82128,"SoundDuration":82128,"Delta":234496319},{"NoteNumber":33,"Velocity":78,"Duration":1082262,"SoundDuration":1082262,"Delta":234496319},{"NoteNumber":45,"Velocity":92,"Duration":1082262,"SoundDuration":1082262,"Delta":234496319},{"NoteNumber":87,"Velocity":67,"Duration":81208,"SoundDuration":81208,"Delta":234578448},{"NoteNumber":84,"Velocity":66,"Duration":80906,"SoundDuration":80906,"Delta":234659656},{"NoteNumber":81,"Velocity":65,"Duration":80681,"SoundDuration":80681,"Delta":234740562},{"NoteNumber":78,"Velocity":65,"Duration":80387,"SoundDuration":80387,"Delta":234821243},{"NoteNumber":75,"Velocity":64,"Duration":80167,"SoundDuration":80167,"Delta":234901631},{"NoteNumber":72,"Velocity":63,"Duration":79872,"SoundDuration":79872,"Delta":234981798},{"NoteNumber":69,"Velocity":63,"Duration":79652,"SoundDuration":79652,"Delta":235061671},{"NoteNumber":66,"Velocity":63,"Duration":79362,"SoundDuration":79362,"Delta":235141323},{"NoteNumber":63,"Velocity":63,"Duration":79145,"SoundDuration":79145,"Delta":235220686},{"NoteNumber":66,"Velocity":62,"Duration":79362,"SoundDuration":79362,"Delta":235299831},{"NoteNumber":69,"Velocity":63,"Duration":79580,"SoundDuration":79580,"Delta":235379193},{"NoteNumber":72,"Velocity":63,"Duration":79799,"SoundDuration":79799,"Delta":235458773},{"NoteNumber":75,"Velocity":64,"Duration":80019,"SoundDuration":80019,"Delta":235538572},{"NoteNumber":45,"Velocity":71,"Duration":114226,"SoundDuration":114226,"Delta":235578582},{"NoteNumber":57,"Velocity":84,"Duration":114226,"SoundDuration":114226,"Delta":235578582},{"NoteNumber":78,"Velocity":65,"Duration":80240,"SoundDuration":80240,"Delta":235618591},{"NoteNumber":81,"Velocity":66,"Duration":80460,"SoundDuration":80460,"Delta":235698832},{"NoteNumber":45,"Velocity":76,"Duration":253900,"SoundDuration":253900,"Delta":235698832},{"NoteNumber":57,"Velocity":91,"Duration":253900,"SoundDuration":253900,"Delta":235698832},{"NoteNumber":84,"Velocity":67,"Duration":80681,"SoundDuration":80681,"Delta":235779293},{"NoteNumber":87,"Velocity":70,"Duration":92758,"SoundDuration":92758,"Delta":235859974},{"NoteNumber":90,"Velocity":74,"Duration":81819,"SoundDuration":81819,"Delta":235952733},{"NoteNumber":33,"Velocity":76,"Duration":1081953,"SoundDuration":1081953,"Delta":235952733},{"NoteNumber":45,"Velocity":90,"Duration":1081953,"SoundDuration":1081953,"Delta":235952733},{"NoteNumber":87,"Velocity":67,"Duration":81208,"SoundDuration":81208,"Delta":236034552},{"NoteNumber":84,"Velocity":66,"Duration":80906,"SoundDuration":80906,"Delta":236115761},{"NoteNumber":81,"Velocity":65,"Duration":80681,"SoundDuration":80681,"Delta":236196667},{"NoteNumber":78,"Velocity":65,"Duration":80387,"SoundDuration":80387,"Delta":236277348},{"NoteNumber":75,"Velocity":64,"Duration":80167,"SoundDuration":80167,"Delta":236357736},{"NoteNumber":72,"Velocity":63,"Duration":79872,"SoundDuration":79872,"Delta":236437903},{"NoteNumber":69,"Velocity":63,"Duration":79652,"SoundDuration":79652,"Delta":236517775},{"NoteNumber":66,"Velocity":63,"Duration":79362,"SoundDuration":79362,"Delta":236597428},{"NoteNumber":63,"Velocity":63,"Duration":79145,"SoundDuration":79145,"Delta":236676790},{"NoteNumber":66,"Velocity":62,"Duration":79362,"SoundDuration":79362,"Delta":236755935},{"NoteNumber":69,"Velocity":63,"Duration":79580,"SoundDuration":79580,"Delta":236835297},{"NoteNumber":72,"Velocity":63,"Duration":79799,"SoundDuration":79799,"Delta":236914877},{"NoteNumber":75,"Velocity":64,"Duration":80019,"SoundDuration":80019,"Delta":236994676},{"NoteNumber":45,"Velocity":71,"Duration":120250,"SoundDuration":120250,"Delta":237034686},{"NoteNumber":57,"Velocity":84,"Duration":120250,"SoundDuration":120250,"Delta":237034686},{"NoteNumber":78,"Velocity":65,"Duration":80240,"SoundDuration":80240,"Delta":237074696},{"NoteNumber":81,"Velocity":66,"Duration":80460,"SoundDuration":80460,"Delta":237154937},{"NoteNumber":45,"Velocity":76,"Duration":276748,"SoundDuration":276748,"Delta":237154937},{"NoteNumber":57,"Velocity":91,"Duration":276748,"SoundDuration":276748,"Delta":237154937},{"NoteNumber":84,"Velocity":67,"Duration":80681,"SoundDuration":80681,"Delta":237235397},{"NoteNumber":87,"Velocity":70,"Duration":115607,"SoundDuration":115607,"Delta":237316078},{"NoteNumber":90,"Velocity":74,"Duration":82128,"SoundDuration":82128,"Delta":237431685},{"NoteNumber":34,"Velocity":76,"Duration":1082262,"SoundDuration":1082262,"Delta":237431685},{"NoteNumber":46,"Velocity":90,"Duration":1082262,"SoundDuration":1082262,"Delta":237431685},{"NoteNumber":87,"Velocity":67,"Duration":81208,"SoundDuration":81208,"Delta":237513814},{"NoteNumber":82,"Velocity":66,"Duration":80906,"SoundDuration":80906,"Delta":237595022},{"NoteNumber":78,"Velocity":65,"Duration":80681,"SoundDuration":80681,"Delta":237675929},{"NoteNumber":75,"Velocity":65,"Duration":80387,"SoundDuration":80387,"Delta":237756610},{"NoteNumber":70,"Velocity":64,"Duration":80167,"SoundDuration":80167,"Delta":237836997},{"NoteNumber":66,"Velocity":63,"Duration":79872,"SoundDuration":79872,"Delta":237917164},{"NoteNumber":63,"Velocity":63,"Duration":79652,"SoundDuration":79652,"Delta":237997037},{"NoteNumber":58,"Velocity":63,"Duration":79362,"SoundDuration":79362,"Delta":238076690},{"NoteNumber":54,"Velocity":63,"Duration":79145,"SoundDuration":79145,"Delta":238156052},{"NoteNumber":58,"Velocity":62,"Duration":79362,"SoundDuration":79362,"Delta":238235197},{"NoteNumber":63,"Velocity":63,"Duration":79580,"SoundDuration":79580,"Delta":238314559},{"NoteNumber":66,"Velocity":63,"Duration":79799,"SoundDuration":79799,"Delta":238394139},{"NoteNumber":70,"Velocity":64,"Duration":80019,"SoundDuration":80019,"Delta":238473938},{"NoteNumber":46,"Velocity":71,"Duration":114226,"SoundDuration":114226,"Delta":238513948},{"NoteNumber":58,"Velocity":84,"Duration":114226,"SoundDuration":114226,"Delta":238513948},{"NoteNumber":75,"Velocity":65,"Duration":80240,"SoundDuration":80240,"Delta":238553957},{"NoteNumber":78,"Velocity":66,"Duration":80460,"SoundDuration":80460,"Delta":238634198},{"NoteNumber":46,"Velocity":76,"Duration":263328,"SoundDuration":263328,"Delta":238634198},{"NoteNumber":58,"Velocity":91,"Duration":263328,"SoundDuration":263328,"Delta":238634198},{"NoteNumber":82,"Velocity":67,"Duration":80681,"SoundDuration":80681,"Delta":238714659},{"NoteNumber":87,"Velocity":70,"Duration":102186,"SoundDuration":102186,"Delta":238795340},{"NoteNumber":90,"Velocity":74,"Duration":82440,"SoundDuration":82440,"Delta":238897527},{"NoteNumber":34,"Velocity":76,"Duration":1082574,"SoundDuration":1082574,"Delta":238897527},{"NoteNumber":46,"Velocity":90,"Duration":1082574,"SoundDuration":1082574,"Delta":238897527},{"NoteNumber":87,"Velocity":67,"Duration":81208,"SoundDuration":81208,"Delta":238979967},{"NoteNumber":82,"Velocity":66,"Duration":80906,"SoundDuration":80906,"Delta":239061175},{"NoteNumber":78,"Velocity":65,"Duration":80681,"SoundDuration":80681,"Delta":239142082},{"NoteNumber":75,"Velocity":65,"Duration":80387,"SoundDuration":80387,"Delta":239222763},{"NoteNumber":70,"Velocity":64,"Duration":80167,"SoundDuration":80167,"Delta":239303150},{"NoteNumber":66,"Velocity":63,"Duration":79872,"SoundDuration":79872,"Delta":239383317},{"NoteNumber":63,"Velocity":63,"Duration":79652,"SoundDuration":79652,"Delta":239463190},{"NoteNumber":58,"Velocity":63,"Duration":79362,"SoundDuration":79362,"Delta":239542843},{"NoteNumber":54,"Velocity":63,"Duration":79145,"SoundDuration":79145,"Delta":239622205},{"NoteNumber":58,"Velocity":62,"Duration":79362,"SoundDuration":79362,"Delta":239701350},{"NoteNumber":63,"Velocity":63,"Duration":79580,"SoundDuration":79580,"Delta":239780712},{"NoteNumber":66,"Velocity":63,"Duration":79799,"SoundDuration":79799,"Delta":239860292},{"NoteNumber":70,"Velocity":64,"Duration":80019,"SoundDuration":80019,"Delta":239940091},{"NoteNumber":46,"Velocity":71,"Duration":114226,"SoundDuration":114226,"Delta":239980101},{"NoteNumber":58,"Velocity":84,"Duration":114226,"SoundDuration":114226,"Delta":239980101},{"NoteNumber":75,"Velocity":65,"Duration":80240,"SoundDuration":80240,"Delta":240020110},{"NoteNumber":78,"Velocity":66,"Duration":80460,"SoundDuration":80460,"Delta":240100351},{"NoteNumber":46,"Velocity":76,"Duration":288530,"SoundDuration":288530,"Delta":240100351},{"NoteNumber":58,"Velocity":91,"Duration":288530,"SoundDuration":288530,"Delta":240100351},{"NoteNumber":82,"Velocity":67,"Duration":80681,"SoundDuration":80681,"Delta":240180812},{"NoteNumber":87,"Velocity":70,"Duration":127388,"SoundDuration":127388,"Delta":240261493},{"NoteNumber":90,"Velocity":74,"Duration":82128,"SoundDuration":82128,"Delta":240388882},{"NoteNumber":35,"Velocity":79,"Duration":1082262,"SoundDuration":1082262,"Delta":240388882},{"NoteNumber":47,"Velocity":93,"Duration":1082262,"SoundDuration":1082262,"Delta":240388882},{"NoteNumber":87,"Velocity":67,"Duration":81208,"SoundDuration":81208,"Delta":240471010},{"NoteNumber":81,"Velocity":66,"Duration":80906,"SoundDuration":80906,"Delta":240552219},{"NoteNumber":78,"Velocity":65,"Duration":80681,"SoundDuration":80681,"Delta":240633125},{"NoteNumber":75,"Velocity":65,"Duration":80387,"SoundDuration":80387,"Delta":240713806},{"NoteNumber":69,"Velocity":64,"Duration":80167,"SoundDuration":80167,"Delta":240794194},{"NoteNumber":66,"Velocity":63,"Duration":79872,"SoundDuration":79872,"Delta":240874361},{"NoteNumber":63,"Velocity":63,"Duration":79652,"SoundDuration":79652,"Delta":240954233},{"NoteNumber":57,"Velocity":63,"Duration":79362,"SoundDuration":79362,"Delta":241033886},{"NoteNumber":54,"Velocity":63,"Duration":79145,"SoundDuration":79145,"Delta":241113248},{"NoteNumber":57,"Velocity":62,"Duration":79362,"SoundDuration":79362,"Delta":241192393},{"NoteNumber":63,"Velocity":63,"Duration":79580,"SoundDuration":79580,"Delta":241271755},{"NoteNumber":66,"Velocity":63,"Duration":79799,"SoundDuration":79799,"Delta":241351336},{"NoteNumber":69,"Velocity":64,"Duration":80019,"SoundDuration":80019,"Delta":241431135},{"NoteNumber":47,"Velocity":71,"Duration":114226,"SoundDuration":114226,"Delta":241471144},{"NoteNumber":59,"Velocity":84,"Duration":114226,"SoundDuration":114226,"Delta":241471144},{"NoteNumber":75,"Velocity":65,"Duration":80240,"SoundDuration":80240,"Delta":241511154},{"NoteNumber":78,"Velocity":66,"Duration":80460,"SoundDuration":80460,"Delta":241591395},{"NoteNumber":47,"Velocity":76,"Duration":255203,"SoundDuration":255203,"Delta":241591395},{"NoteNumber":59,"Velocity":91,"Duration":255203,"SoundDuration":255203,"Delta":241591395},{"NoteNumber":81,"Velocity":67,"Duration":80681,"SoundDuration":80681,"Delta":241671855},{"NoteNumber":87,"Velocity":70,"Duration":94061,"SoundDuration":94061,"Delta":241752536},{"NoteNumber":90,"Velocity":74,"Duration":82128,"SoundDuration":82128,"Delta":241846598},{"NoteNumber":36,"Velocity":76,"Duration":1082262,"SoundDuration":1082262,"Delta":241846598},{"NoteNumber":48,"Velocity":91,"Duration":1082262,"SoundDuration":1082262,"Delta":241846598},{"NoteNumber":86,"Velocity":67,"Duration":81208,"SoundDuration":81208,"Delta":241928727},{"NoteNumber":81,"Velocity":66,"Duration":80906,"SoundDuration":80906,"Delta":242009935},{"NoteNumber":78,"Velocity":65,"Duration":80681,"SoundDuration":80681,"Delta":242090841},{"NoteNumber":74,"Velocity":65,"Duration":80387,"SoundDuration":80387,"Delta":242171522},{"NoteNumber":69,"Velocity":64,"Duration":80167,"SoundDuration":80167,"Delta":242251910},{"NoteNumber":66,"Velocity":63,"Duration":79872,"SoundDuration":79872,"Delta":242332077},{"NoteNumber":62,"Velocity":63,"Duration":79652,"SoundDuration":79652,"Delta":242411950},{"NoteNumber":57,"Velocity":63,"Duration":79362,"SoundDuration":79362,"Delta":242491602},{"NoteNumber":54,"Velocity":63,"Duration":79145,"SoundDuration":79145,"Delta":242570965},{"NoteNumber":57,"Velocity":62,"Duration":79362,"SoundDuration":79362,"Delta":242650110},{"NoteNumber":62,"Velocity":63,"Duration":79580,"SoundDuration":79580,"Delta":242729472},{"NoteNumber":66,"Velocity":63,"Duration":79799,"SoundDuration":79799,"Delta":242809052},{"NoteNumber":69,"Velocity":64,"Duration":80019,"SoundDuration":80019,"Delta":242888851},{"NoteNumber":48,"Velocity":71,"Duration":114226,"SoundDuration":114226,"Delta":242928861},{"NoteNumber":60,"Velocity":84,"Duration":114226,"SoundDuration":114226,"Delta":242928861},{"NoteNumber":74,"Velocity":65,"Duration":80240,"SoundDuration":80240,"Delta":242968870},{"NoteNumber":78,"Velocity":66,"Duration":80460,"SoundDuration":80460,"Delta":243049111},{"NoteNumber":48,"Velocity":76,"Duration":260525,"SoundDuration":260525,"Delta":243049111},{"NoteNumber":60,"Velocity":91,"Duration":260525,"SoundDuration":260525,"Delta":243049111},{"NoteNumber":81,"Velocity":67,"Duration":80681,"SoundDuration":80681,"Delta":243129572},{"NoteNumber":86,"Velocity":70,"Duration":99383,"SoundDuration":99383,"Delta":243210253},{"NoteNumber":93,"Velocity":74,"Duration":81819,"SoundDuration":81819,"Delta":243309637},{"NoteNumber":37,"Velocity":76,"Duration":1081953,"SoundDuration":1081953,"Delta":243309637},{"NoteNumber":49,"Velocity":90,"Duration":1081953,"SoundDuration":1081953,"Delta":243309637},{"NoteNumber":90,"Velocity":67,"Duration":81208,"SoundDuration":81208,"Delta":243391456},{"NoteNumber":85,"Velocity":66,"Duration":80906,"SoundDuration":80906,"Delta":243472665},{"NoteNumber":81,"Velocity":65,"Duration":80681,"SoundDuration":80681,"Delta":243553571},{"NoteNumber":78,"Velocity":65,"Duration":80387,"SoundDuration":80387,"Delta":243634252},{"NoteNumber":73,"Velocity":64,"Duration":80167,"SoundDuration":80167,"Delta":243714640},{"NoteNumber":69,"Velocity":63,"Duration":79872,"SoundDuration":79872,"Delta":243794807},{"NoteNumber":66,"Velocity":63,"Duration":79652,"SoundDuration":79652,"Delta":243874679},{"NoteNumber":61,"Velocity":63,"Duration":79362,"SoundDuration":79362,"Delta":243954332},{"NoteNumber":57,"Velocity":63,"Duration":79145,"SoundDuration":79145,"Delta":244033694},{"NoteNumber":61,"Velocity":62,"Duration":79362,"SoundDuration":79362,"Delta":244112839},{"NoteNumber":66,"Velocity":63,"Duration":79580,"SoundDuration":79580,"Delta":244192201},{"NoteNumber":69,"Velocity":63,"Duration":79799,"SoundDuration":79799,"Delta":244271781},{"NoteNumber":73,"Velocity":64,"Duration":80019,"SoundDuration":80019,"Delta":244351581},{"NoteNumber":49,"Velocity":71,"Duration":114226,"SoundDuration":114226,"Delta":244391590},{"NoteNumber":61,"Velocity":84,"Duration":114226,"SoundDuration":114226,"Delta":244391590},{"NoteNumber":78,"Velocity":65,"Duration":80240,"SoundDuration":80240,"Delta":244431600},{"NoteNumber":81,"Velocity":66,"Duration":80460,"SoundDuration":80460,"Delta":244511841},{"NoteNumber":49,"Velocity":76,"Duration":260525,"SoundDuration":260525,"Delta":244511841},{"NoteNumber":61,"Velocity":91,"Duration":260525,"SoundDuration":260525,"Delta":244511841},{"NoteNumber":85,"Velocity":67,"Duration":80681,"SoundDuration":80681,"Delta":244592301},{"NoteNumber":90,"Velocity":70,"Duration":99383,"SoundDuration":99383,"Delta":244672982},{"NoteNumber":93,"Velocity":74,"Duration":81819,"SoundDuration":81819,"Delta":244772366},{"NoteNumber":37,"Velocity":76,"Duration":1081953,"SoundDuration":1081953,"Delta":244772366},{"NoteNumber":49,"Velocity":90,"Duration":1081953,"SoundDuration":1081953,"Delta":244772366},{"NoteNumber":91,"Velocity":67,"Duration":81208,"SoundDuration":81208,"Delta":244854186},{"NoteNumber":88,"Velocity":66,"Duration":80906,"SoundDuration":80906,"Delta":244935394},{"NoteNumber":81,"Velocity":65,"Duration":80681,"SoundDuration":80681,"Delta":245016300},{"NoteNumber":79,"Velocity":65,"Duration":80387,"SoundDuration":80387,"Delta":245096981},{"NoteNumber":76,"Velocity":64,"Duration":80167,"SoundDuration":80167,"Delta":245177369},{"NoteNumber":69,"Velocity":63,"Duration":79872,"SoundDuration":79872,"Delta":245257536},{"NoteNumber":67,"Velocity":63,"Duration":79652,"SoundDuration":79652,"Delta":245337409},{"NoteNumber":64,"Velocity":63,"Duration":79362,"SoundDuration":79362,"Delta":245417061},{"NoteNumber":57,"Velocity":63,"Duration":79145,"SoundDuration":79145,"Delta":245496424},{"NoteNumber":64,"Velocity":62,"Duration":79362,"SoundDuration":79362,"Delta":245575569},{"NoteNumber":67,"Velocity":63,"Duration":79580,"SoundDuration":79580,"Delta":245654931},{"NoteNumber":69,"Velocity":63,"Duration":79799,"SoundDuration":79799,"Delta":245734511},{"NoteNumber":76,"Velocity":64,"Duration":80019,"SoundDuration":80019,"Delta":245814310},{"NoteNumber":49,"Velocity":71,"Duration":114226,"SoundDuration":114226,"Delta":245854320},{"NoteNumber":61,"Velocity":84,"Duration":114226,"SoundDuration":114226,"Delta":245854320},{"NoteNumber":79,"Velocity":65,"Duration":80240,"SoundDuration":80240,"Delta":245894329},{"NoteNumber":81,"Velocity":66,"Duration":80460,"SoundDuration":80460,"Delta":245974570},{"NoteNumber":49,"Velocity":76,"Duration":310395,"SoundDuration":310395,"Delta":245974570},{"NoteNumber":61,"Velocity":91,"Duration":310395,"SoundDuration":310395,"Delta":245974570},{"NoteNumber":85,"Velocity":67,"Duration":80681,"SoundDuration":80681,"Delta":246055031},{"NoteNumber":88,"Velocity":70,"Duration":149253,"SoundDuration":149253,"Delta":246135712},{"NoteNumber":93,"Velocity":74,"Duration":84257,"SoundDuration":84257,"Delta":246284965},{"NoteNumber":38,"Velocity":76,"Duration":370016,"SoundDuration":370016,"Delta":246284965},{"NoteNumber":50,"Velocity":90,"Duration":370016,"SoundDuration":370016,"Delta":246284965},{"NoteNumber":89,"Velocity":67,"Duration":82420,"SoundDuration":82420,"Delta":246369223},{"NoteNumber":86,"Velocity":66,"Duration":81795,"SoundDuration":81795,"Delta":246451644},{"NoteNumber":81,"Velocity":65,"Duration":81180,"SoundDuration":81180,"Delta":246533439},{"NoteNumber":77,"Velocity":65,"Duration":80723,"SoundDuration":80723,"Delta":246614620},{"NoteNumber":50,"Velocity":71,"Duration":115714,"SoundDuration":115714,"Delta":246654982},{"NoteNumber":62,"Velocity":84,"Duration":115714,"SoundDuration":115714,"Delta":246654982},{"NoteNumber":74,"Velocity":64,"Duration":81486,"SoundDuration":81486,"Delta":246695343},{"NoteNumber":69,"Velocity":63,"Duration":82420,"SoundDuration":82420,"Delta":246776830},{"NoteNumber":50,"Velocity":76,"Duration":300416,"SoundDuration":300416,"Delta":246776830},{"NoteNumber":62,"Velocity":91,"Duration":300416,"SoundDuration":300416,"Delta":246776830},{"NoteNumber":65,"Velocity":63,"Duration":82648,"SoundDuration":82648,"Delta":246859251},{"NoteNumber":62,"Velocity":63,"Duration":135347,"SoundDuration":135347,"Delta":246941899},{"NoteNumber":91,"Velocity":74,"Duration":83215,"SoundDuration":83215,"Delta":247077247},{"NoteNumber":35,"Velocity":76,"Duration":370599,"SoundDuration":370599,"Delta":247077247},{"NoteNumber":47,"Velocity":90,"Duration":370599,"SoundDuration":370599,"Delta":247077247},{"NoteNumber":89,"Velocity":67,"Duration":82735,"SoundDuration":82735,"Delta":247160463},{"NoteNumber":86,"Velocity":66,"Duration":82264,"SoundDuration":82264,"Delta":247243199},{"NoteNumber":79,"Velocity":65,"Duration":81716,"SoundDuration":81716,"Delta":247325463},{"NoteNumber":77,"Velocity":65,"Duration":81334,"SoundDuration":81334,"Delta":247407179},{"NoteNumber":47,"Velocity":71,"Duration":116593,"SoundDuration":116593,"Delta":247447846},{"NoteNumber":59,"Velocity":84,"Duration":116593,"SoundDuration":116593,"Delta":247447846},{"NoteNumber":74,"Velocity":64,"Duration":82107,"SoundDuration":82107,"Delta":247488513},{"NoteNumber":67,"Velocity":63,"Duration":83134,"SoundDuration":83134,"Delta":247570621},{"NoteNumber":47,"Velocity":76,"Duration":315470,"SoundDuration":315470,"Delta":247570621},{"NoteNumber":59,"Velocity":91,"Duration":315470,"SoundDuration":315470,"Delta":247570621},{"NoteNumber":65,"Velocity":63,"Duration":84187,"SoundDuration":84187,"Delta":247653756},{"NoteNumber":62,"Velocity":63,"Duration":148148,"SoundDuration":148148,"Delta":247737943},{"NoteNumber":91,"Velocity":74,"Duration":82655,"SoundDuration":82655,"Delta":247886091},{"NoteNumber":36,"Velocity":76,"Duration":368406,"SoundDuration":368406,"Delta":247886091},{"NoteNumber":48,"Velocity":90,"Duration":368406,"SoundDuration":368406,"Delta":247886091},{"NoteNumber":88,"Velocity":67,"Duration":82264,"SoundDuration":82264,"Delta":247968746},{"NoteNumber":84,"Velocity":66,"Duration":81716,"SoundDuration":81716,"Delta":248051010},{"NoteNumber":79,"Velocity":65,"Duration":81334,"SoundDuration":81334,"Delta":248132726},{"NoteNumber":76,"Velocity":65,"Duration":81103,"SoundDuration":81103,"Delta":248214061},{"NoteNumber":48,"Velocity":71,"Duration":116382,"SoundDuration":116382,"Delta":248254497},{"NoteNumber":60,"Velocity":84,"Duration":116382,"SoundDuration":116382,"Delta":248254497},{"NoteNumber":72,"Velocity":64,"Duration":81874,"SoundDuration":81874,"Delta":248295164},{"NoteNumber":67,"Velocity":63,"Duration":82735,"SoundDuration":82735,"Delta":248377039},{"NoteNumber":48,"Velocity":76,"Duration":310237,"SoundDuration":310237,"Delta":248377039},{"NoteNumber":60,"Velocity":91,"Duration":310237,"SoundDuration":310237,"Delta":248377039},{"NoteNumber":64,"Velocity":63,"Duration":83616,"SoundDuration":83616,"Delta":248459774},{"NoteNumber":60,"Velocity":63,"Duration":143884,"SoundDuration":143884,"Delta":248543391},{"NoteNumber":96,"Velocity":74,"Duration":83938,"SoundDuration":83938,"Delta":248687276},{"NoteNumber":33,"Velocity":76,"Duration":372977,"SoundDuration":372977,"Delta":248687276},{"NoteNumber":45,"Velocity":90,"Duration":372977,"SoundDuration":372977,"Delta":248687276},{"NoteNumber":93,"Velocity":67,"Duration":83375,"SoundDuration":83375,"Delta":248771214},{"NoteNumber":88,"Velocity":66,"Duration":82735,"SoundDuration":82735,"Delta":248854590},{"NoteNumber":84,"Velocity":65,"Duration":82107,"SoundDuration":82107,"Delta":248937326},{"NoteNumber":81,"Velocity":65,"Duration":81639,"SoundDuration":81639,"Delta":249019433},{"NoteNumber":45,"Velocity":71,"Duration":117035,"SoundDuration":117035,"Delta":249060253},{"NoteNumber":57,"Velocity":84,"Duration":117035,"SoundDuration":117035,"Delta":249060253},{"NoteNumber":76,"Velocity":64,"Duration":82420,"SoundDuration":82420,"Delta":249101073},{"NoteNumber":72,"Velocity":63,"Duration":83455,"SoundDuration":83455,"Delta":249183493},{"NoteNumber":45,"Velocity":76,"Duration":349790,"SoundDuration":349790,"Delta":249183493},{"NoteNumber":57,"Velocity":91,"Duration":349790,"SoundDuration":349790,"Delta":249183493},{"NoteNumber":69,"Velocity":63,"Duration":84516,"SoundDuration":84516,"Delta":249266949},{"NoteNumber":64,"Velocity":63,"Duration":181818,"SoundDuration":181818,"Delta":249351465},{"NoteNumber":93,"Velocity":74,"Duration":82507,"SoundDuration":82507,"Delta":249533284},{"NoteNumber":29,"Velocity":76,"Duration":368417,"SoundDuration":368417,"Delta":249533284},{"NoteNumber":41,"Velocity":90,"Duration":368417,"SoundDuration":368417,"Delta":249533284},{"NoteNumber":86,"Velocity":67,"Duration":82420,"SoundDuration":82420,"Delta":249615791},{"NoteNumber":84,"Velocity":66,"Duration":81795,"SoundDuration":81795,"Delta":249698211},{"NoteNumber":81,"Velocity":65,"Duration":81180,"SoundDuration":81180,"Delta":249780006},{"NoteNumber":74,"Velocity":65,"Duration":81257,"SoundDuration":81257,"Delta":249861187},{"NoteNumber":41,"Velocity":71,"Duration":116669,"SoundDuration":116669,"Delta":249901701},{"NoteNumber":53,"Velocity":84,"Duration":116669,"SoundDuration":116669,"Delta":249901701},{"NoteNumber":72,"Velocity":64,"Duration":82107,"SoundDuration":82107,"Delta":249942444},{"NoteNumber":69,"Velocity":63,"Duration":82974,"SoundDuration":82974,"Delta":250024552},{"NoteNumber":41,"Velocity":76,"Duration":310720,"SoundDuration":310720,"Delta":250024552},{"NoteNumber":53,"Velocity":91,"Duration":310720,"SoundDuration":310720,"Delta":250024552},{"NoteNumber":62,"Velocity":63,"Duration":83860,"SoundDuration":83860,"Delta":250107526},{"NoteNumber":60,"Velocity":63,"Duration":143884,"SoundDuration":143884,"Delta":250191387},{"NoteNumber":91,"Velocity":74,"Duration":82975,"SoundDuration":82975,"Delta":250335272},{"NoteNumber":31,"Velocity":76,"Duration":370122,"SoundDuration":370122,"Delta":250335272},{"NoteNumber":43,"Velocity":90,"Duration":370122,"SoundDuration":370122,"Delta":250335272},{"NoteNumber":86,"Velocity":67,"Duration":82576,"SoundDuration":82576,"Delta":250418248},{"NoteNumber":83,"Velocity":66,"Duration":82186,"SoundDuration":82186,"Delta":250500824},{"NoteNumber":79,"Velocity":65,"Duration":81716,"SoundDuration":81716,"Delta":250583011},{"NoteNumber":74,"Velocity":65,"Duration":81334,"SoundDuration":81334,"Delta":250664727},{"NoteNumber":43,"Velocity":71,"Duration":116725,"SoundDuration":116725,"Delta":250705394},{"NoteNumber":55,"Velocity":84,"Duration":116725,"SoundDuration":116725,"Delta":250705394},{"NoteNumber":71,"Velocity":64,"Duration":82263,"SoundDuration":82263,"Delta":250746061},{"NoteNumber":67,"Velocity":63,"Duration":83536,"SoundDuration":83536,"Delta":250828325},{"NoteNumber":43,"Velocity":76,"Duration":309231,"SoundDuration":309231,"Delta":250828325},{"NoteNumber":55,"Velocity":91,"Duration":309231,"SoundDuration":309231,"Delta":250828325},{"NoteNumber":62,"Velocity":63,"Duration":84849,"SoundDuration":84849,"Delta":250911861},{"NoteNumber":59,"Velocity":63,"Duration":140845,"SoundDuration":140845,"Delta":250996711},{"NoteNumber":75,"Velocity":76,"Duration":329669,"SoundDuration":329669,"Delta":251137556},{"NoteNumber":78,"Velocity":76,"Duration":329669,"SoundDuration":329669,"Delta":251137556},{"NoteNumber":84,"Velocity":76,"Duration":329669,"SoundDuration":329669,"Delta":251137556},{"NoteNumber":87,"Velocity":90,"Duration":329669,"SoundDuration":329669,"Delta":251137556},{"NoteNumber":32,"Velocity":81,"Duration":109890,"SoundDuration":109890,"Delta":251137556},{"NoteNumber":44,"Velocity":72,"Duration":109889,"SoundDuration":109889,"Delta":251247446},{"NoteNumber":36,"Velocity":81,"Duration":109890,"SoundDuration":109890,"Delta":251357336},{"NoteNumber":75,"Velocity":71,"Duration":104395,"SoundDuration":104395,"Delta":251467226},{"NoteNumber":78,"Velocity":71,"Duration":104395,"SoundDuration":104395,"Delta":251467226},{"NoteNumber":84,"Velocity":71,"Duration":104395,"SoundDuration":104395,"Delta":251467226},{"NoteNumber":87,"Velocity":84,"Duration":104395,"SoundDuration":104395,"Delta":251467226},{"NoteNumber":48,"Velocity":69,"Duration":109890,"SoundDuration":109890,"Delta":251467226},{"NoteNumber":75,"Velocity":76,"Duration":242915,"SoundDuration":242915,"Delta":251577116},{"NoteNumber":78,"Velocity":76,"Duration":242915,"SoundDuration":242915,"Delta":251577116},{"NoteNumber":84,"Velocity":76,"Duration":242915,"SoundDuration":242915,"Delta":251577116},{"NoteNumber":87,"Velocity":91,"Duration":242915,"SoundDuration":242915,"Delta":251577116},{"NoteNumber":32,"Velocity":81,"Duration":121457,"SoundDuration":121457,"Delta":251577116},{"NoteNumber":44,"Velocity":69,"Duration":121457,"SoundDuration":121457,"Delta":251698574},{"NoteNumber":75,"Velocity":76,"Duration":329669,"SoundDuration":329669,"Delta":251820031},{"NoteNumber":78,"Velocity":76,"Duration":329669,"SoundDuration":329669,"Delta":251820031},{"NoteNumber":84,"Velocity":76,"Duration":329669,"SoundDuration":329669,"Delta":251820031},{"NoteNumber":87,"Velocity":90,"Duration":329669,"SoundDuration":329669,"Delta":251820031},{"NoteNumber":39,"Velocity":81,"Duration":109890,"SoundDuration":109890,"Delta":251820031},{"NoteNumber":51,"Velocity":72,"Duration":109889,"SoundDuration":109889,"Delta":251929921},{"NoteNumber":36,"Velocity":81,"Duration":109890,"SoundDuration":109890,"Delta":252039811},{"NoteNumber":75,"Velocity":71,"Duration":104395,"SoundDuration":104395,"Delta":252149701},{"NoteNumber":78,"Velocity":71,"Duration":104395,"SoundDuration":104395,"Delta":252149701},{"NoteNumber":84,"Velocity":71,"Duration":104395,"SoundDuration":104395,"Delta":252149701},{"NoteNumber":87,"Velocity":84,"Duration":104395,"SoundDuration":104395,"Delta":252149701},{"NoteNumber":48,"Velocity":69,"Duration":109890,"SoundDuration":109890,"Delta":252149701},{"NoteNumber":75,"Velocity":76,"Duration":242915,"SoundDuration":242915,"Delta":252259591},{"NoteNumber":78,"Velocity":76,"Duration":242915,"SoundDuration":242915,"Delta":252259591},{"NoteNumber":84,"Velocity":76,"Duration":242915,"SoundDuration":242915,"Delta":252259591},{"NoteNumber":87,"Velocity":91,"Duration":242915,"SoundDuration":242915,"Delta":252259591},{"NoteNumber":44,"Velocity":81,"Duration":121457,"SoundDuration":121457,"Delta":252259591},{"NoteNumber":56,"Velocity":69,"Duration":121457,"SoundDuration":121457,"Delta":252381049},{"NoteNumber":75,"Velocity":76,"Duration":329669,"SoundDuration":329669,"Delta":252502506},{"NoteNumber":78,"Velocity":76,"Duration":329669,"SoundDuration":329669,"Delta":252502506},{"NoteNumber":84,"Velocity":76,"Duration":329669,"SoundDuration":329669,"Delta":252502506},{"NoteNumber":87,"Velocity":90,"Duration":329669,"SoundDuration":329669,"Delta":252502506},{"NoteNumber":32,"Velocity":81,"Duration":109890,"SoundDuration":109890,"Delta":252502506},{"NoteNumber":44,"Velocity":72,"Duration":109889,"SoundDuration":109889,"Delta":252612396},{"NoteNumber":39,"Velocity":81,"Duration":109890,"SoundDuration":109890,"Delta":252722286},{"NoteNumber":75,"Velocity":71,"Duration":104395,"SoundDuration":104395,"Delta":252832176},{"NoteNumber":78,"Velocity":71,"Duration":104395,"SoundDuration":104395,"Delta":252832176},{"NoteNumber":84,"Velocity":71,"Duration":104395,"SoundDuration":104395,"Delta":252832176},{"NoteNumber":87,"Velocity":84,"Duration":104395,"SoundDuration":104395,"Delta":252832176},{"NoteNumber":51,"Velocity":69,"Duration":109890,"SoundDuration":109890,"Delta":252832176},{"NoteNumber":75,"Velocity":76,"Duration":242915,"SoundDuration":242915,"Delta":252942066},{"NoteNumber":78,"Velocity":76,"Duration":242915,"SoundDuration":242915,"Delta":252942066},{"NoteNumber":84,"Velocity":76,"Duration":242915,"SoundDuration":242915,"Delta":252942066},{"NoteNumber":87,"Velocity":91,"Duration":242915,"SoundDuration":242915,"Delta":252942066},{"NoteNumber":36,"Velocity":81,"Duration":121457,"SoundDuration":121457,"Delta":252942066},{"NoteNumber":48,"Velocity":69,"Duration":121457,"SoundDuration":121457,"Delta":253063524},{"NoteNumber":75,"Velocity":76,"Duration":329669,"SoundDuration":329669,"Delta":253184981},{"NoteNumber":78,"Velocity":76,"Duration":329669,"SoundDuration":329669,"Delta":253184981},{"NoteNumber":84,"Velocity":76,"Duration":329669,"SoundDuration":329669,"Delta":253184981},{"NoteNumber":87,"Velocity":90,"Duration":329669,"SoundDuration":329669,"Delta":253184981},{"NoteNumber":44,"Velocity":81,"Duration":109890,"SoundDuration":109890,"Delta":253184981},{"NoteNumber":56,"Velocity":72,"Duration":109889,"SoundDuration":109889,"Delta":253294871},{"NoteNumber":39,"Velocity":81,"Duration":109890,"SoundDuration":109890,"Delta":253404761},{"NoteNumber":75,"Velocity":71,"Duration":104395,"SoundDuration":104395,"Delta":253514651},{"NoteNumber":78,"Velocity":71,"Duration":104395,"SoundDuration":104395,"Delta":253514651},{"NoteNumber":84,"Velocity":71,"Duration":104395,"SoundDuration":104395,"Delta":253514651},{"NoteNumber":87,"Velocity":84,"Duration":104395,"SoundDuration":104395,"Delta":253514651},{"NoteNumber":51,"Velocity":69,"Duration":109890,"SoundDuration":109890,"Delta":253514651},{"NoteNumber":75,"Velocity":76,"Duration":242915,"SoundDuration":242915,"Delta":253624541},{"NoteNumber":78,"Velocity":76,"Duration":242915,"SoundDuration":242915,"Delta":253624541},{"NoteNumber":84,"Velocity":76,"Duration":242915,"SoundDuration":242915,"Delta":253624541},{"NoteNumber":87,"Velocity":91,"Duration":242915,"SoundDuration":242915,"Delta":253624541},{"NoteNumber":48,"Velocity":81,"Duration":121457,"SoundDuration":121457,"Delta":253624541},{"NoteNumber":60,"Velocity":69,"Duration":121457,"SoundDuration":121457,"Delta":253745999},{"NoteNumber":75,"Velocity":71,"Duration":208790,"SoundDuration":208790,"Delta":253867456},{"NoteNumber":78,"Velocity":71,"Duration":208790,"SoundDuration":208790,"Delta":253867456},{"NoteNumber":84,"Velocity":71,"Duration":208790,"SoundDuration":208790,"Delta":253867456},{"NoteNumber":87,"Velocity":85,"Duration":208790,"SoundDuration":208790,"Delta":253867456},{"NoteNumber":44,"Velocity":83,"Duration":109890,"SoundDuration":109890,"Delta":253867456},{"NoteNumber":56,"Velocity":73,"Duration":109889,"SoundDuration":109889,"Delta":253977346},{"NoteNumber":78,"Velocity":67,"Duration":208791,"SoundDuration":208791,"Delta":254087236},{"NoteNumber":75,"Velocity":67,"Duration":208791,"SoundDuration":208791,"Delta":254087236},{"NoteNumber":84,"Velocity":67,"Duration":208791,"SoundDuration":208791,"Delta":254087236},{"NoteNumber":87,"Velocity":79,"Duration":208791,"SoundDuration":208791,"Delta":254087236},{"NoteNumber":51,"Velocity":81,"Duration":109890,"SoundDuration":109890,"Delta":254087236},{"NoteNumber":63,"Velocity":71,"Duration":109890,"SoundDuration":109890,"Delta":254197126},{"NoteNumber":75,"Velocity":69,"Duration":215094,"SoundDuration":215094,"Delta":254307016},{"NoteNumber":78,"Velocity":69,"Duration":215094,"SoundDuration":215094,"Delta":254307016},{"NoteNumber":84,"Velocity":69,"Duration":215094,"SoundDuration":215094,"Delta":254307016},{"NoteNumber":87,"Velocity":81,"Duration":215094,"SoundDuration":215094,"Delta":254307016},{"NoteNumber":48,"Velocity":81,"Duration":113207,"SoundDuration":113207,"Delta":254307016},{"NoteNumber":60,"Velocity":70,"Duration":113207,"SoundDuration":113207,"Delta":254420224},{"NoteNumber":75,"Velocity":75,"Duration":213483,"SoundDuration":213483,"Delta":254533431},{"NoteNumber":78,"Velocity":75,"Duration":213483,"SoundDuration":213483,"Delta":254533431},{"NoteNumber":84,"Velocity":75,"Duration":213483,"SoundDuration":213483,"Delta":254533431},{"NoteNumber":87,"Velocity":90,"Duration":213483,"SoundDuration":213483,"Delta":254533431},{"NoteNumber":44,"Velocity":80,"Duration":112359,"SoundDuration":112359,"Delta":254533431},{"NoteNumber":56,"Velocity":72,"Duration":112359,"SoundDuration":112359,"Delta":254645791},{"NoteNumber":75,"Velocity":72,"Duration":213483,"SoundDuration":213483,"Delta":254758150},{"NoteNumber":78,"Velocity":72,"Duration":213483,"SoundDuration":213483,"Delta":254758150},{"NoteNumber":84,"Velocity":72,"Duration":213483,"SoundDuration":213483,"Delta":254758150},{"NoteNumber":87,"Velocity":86,"Duration":213483,"SoundDuration":213483,"Delta":254758150},{"NoteNumber":39,"Velocity":82,"Duration":112359,"SoundDuration":112359,"Delta":254758150},{"NoteNumber":51,"Velocity":71,"Duration":112359,"SoundDuration":112359,"Delta":254870510},{"NoteNumber":75,"Velocity":72,"Duration":222565,"SoundDuration":222565,"Delta":254982869},{"NoteNumber":78,"Velocity":72,"Duration":222565,"SoundDuration":222565,"Delta":254982869},{"NoteNumber":84,"Velocity":72,"Duration":222565,"SoundDuration":222565,"Delta":254982869},{"NoteNumber":87,"Velocity":86,"Duration":222565,"SoundDuration":222565,"Delta":254982869},{"NoteNumber":36,"Velocity":84,"Duration":117187,"SoundDuration":117187,"Delta":254982869},{"NoteNumber":48,"Velocity":72,"Duration":116961,"SoundDuration":116961,"Delta":255100057},{"NoteNumber":87,"Velocity":78,"Duration":221963,"SoundDuration":221963,"Delta":255217018},{"NoteNumber":78,"Velocity":78,"Duration":221963,"SoundDuration":221963,"Delta":255217018},{"NoteNumber":84,"Velocity":78,"Duration":221963,"SoundDuration":221963,"Delta":255217018},{"NoteNumber":90,"Velocity":93,"Duration":221963,"SoundDuration":221963,"Delta":255217018},{"NoteNumber":39,"Velocity":82,"Duration":116280,"SoundDuration":116280,"Delta":255217018},{"NoteNumber":51,"Velocity":74,"Duration":117494,"SoundDuration":117494,"Delta":255333298},{"NoteNumber":78,"Velocity":73,"Duration":226609,"SoundDuration":226609,"Delta":255450793},{"NoteNumber":87,"Velocity":73,"Duration":226609,"SoundDuration":226609,"Delta":255450793},{"NoteNumber":84,"Velocity":73,"Duration":226609,"SoundDuration":226609,"Delta":255450793},{"NoteNumber":90,"Velocity":87,"Duration":226609,"SoundDuration":226609,"Delta":255450793},{"NoteNumber":48,"Velocity":84,"Duration":118656,"SoundDuration":118656,"Delta":255450793},{"NoteNumber":60,"Velocity":72,"Duration":120001,"SoundDuration":120001,"Delta":255569449},{"NoteNumber":87,"Velocity":77,"Duration":231369,"SoundDuration":231369,"Delta":255689450},{"NoteNumber":78,"Velocity":77,"Duration":231369,"SoundDuration":231369,"Delta":255689450},{"NoteNumber":84,"Velocity":77,"Duration":231369,"SoundDuration":231369,"Delta":255689450},{"NoteNumber":90,"Velocity":92,"Duration":231369,"SoundDuration":231369,"Delta":255689450},{"NoteNumber":44,"Velocity":87,"Duration":121213,"SoundDuration":121213,"Delta":255689450},{"NoteNumber":56,"Velocity":73,"Duration":122450,"SoundDuration":122450,"Delta":255810664},{"NoteNumber":87,"Velocity":84,"Duration":236420,"SoundDuration":236420,"Delta":255933114},{"NoteNumber":78,"Velocity":84,"Duration":236420,"SoundDuration":236420,"Delta":255933114},{"NoteNumber":84,"Velocity":84,"Duration":236420,"SoundDuration":236420,"Delta":255933114},{"NoteNumber":90,"Velocity":99,"Duration":236420,"SoundDuration":236420,"Delta":255933114},{"NoteNumber":39,"Velocity":90,"Duration":123797,"SoundDuration":123797,"Delta":255933114},{"NoteNumber":51,"Velocity":80,"Duration":125175,"SoundDuration":125175,"Delta":256056912},{"NoteNumber":87,"Velocity":79,"Duration":241642,"SoundDuration":241642,"Delta":256182087},{"NoteNumber":78,"Velocity":79,"Duration":241642,"SoundDuration":241642,"Delta":256182087},{"NoteNumber":84,"Velocity":79,"Duration":241642,"SoundDuration":241642,"Delta":256182087},{"NoteNumber":90,"Velocity":95,"Duration":241642,"SoundDuration":241642,"Delta":256182087},{"NoteNumber":36,"Velocity":92,"Duration":126583,"SoundDuration":126583,"Delta":256182087},{"NoteNumber":48,"Velocity":79,"Duration":127933,"SoundDuration":127933,"Delta":256308671},{"NoteNumber":87,"Velocity":82,"Duration":282178,"SoundDuration":282178,"Delta":256436605},{"NoteNumber":78,"Velocity":82,"Duration":282178,"SoundDuration":282178,"Delta":256436605},{"NoteNumber":84,"Velocity":82,"Duration":282178,"SoundDuration":282178,"Delta":256436605},{"NoteNumber":90,"Velocity":97,"Duration":282178,"SoundDuration":282178,"Delta":256436605},{"NoteNumber":32,"Velocity":94,"Duration":148514,"SoundDuration":148514,"Delta":256436605},{"NoteNumber":44,"Velocity":81,"Duration":148514,"SoundDuration":148514,"Delta":256585119},{"NoteNumber":79,"Velocity":87,"Duration":250000,"SoundDuration":250000,"Delta":256733634},{"NoteNumber":84,"Velocity":87,"Duration":250000,"SoundDuration":250000,"Delta":256733634},{"NoteNumber":88,"Velocity":87,"Duration":250000,"SoundDuration":250000,"Delta":256733634},{"NoteNumber":91,"Velocity":103,"Duration":250000,"SoundDuration":250000,"Delta":256733634},{"NoteNumber":31,"Velocity":75,"Duration":250000,"SoundDuration":250000,"Delta":256733634},{"NoteNumber":43,"Velocity":91,"Duration":250000,"SoundDuration":250000,"Delta":256733634},{"NoteNumber":91,"Velocity":108,"Duration":250000,"SoundDuration":250000,"Delta":258233634},{"NoteNumber":79,"Velocity":91,"Duration":250000,"SoundDuration":250000,"Delta":258233634},{"NoteNumber":86,"Velocity":91,"Duration":250000,"SoundDuration":250000,"Delta":258233634},{"NoteNumber":83,"Velocity":91,"Duration":250000,"SoundDuration":250000,"Delta":258233634},{"NoteNumber":50,"Velocity":79,"Duration":250000,"SoundDuration":250000,"Delta":258233634},{"NoteNumber":47,"Velocity":79,"Duration":250000,"SoundDuration":250000,"Delta":258233634},{"NoteNumber":43,"Velocity":79,"Duration":250000,"SoundDuration":250000,"Delta":258233634},{"NoteNumber":55,"Velocity":95,"Duration":250000,"SoundDuration":250000,"Delta":258233634}],"license":{"name":"Creative Commons Attribution-ShareAlike 3.0 Germany","url":"http://creativecommons.org/licenses/by-sa/3.0/de/deed.en","text":"The MIDI, audio (MP3, OGG) and video files of Bernd Krueger are licensed under the cc-by-sa Germany License. This means that you can use and adapt the files, as long as you attribute the copyright holder.\n\nName: Bernd Krueger\nSource: http://www.piano-midi.de\n\nThe distribution or public playback of the files is only allowed under identical license conditions.\n\nThe scores are open source.","attribution":"MIDI files by Bernd Krueger (piano-midi.de)","attributionUrl":"http://www.piano-midi.de"}}