{"title":"2. Intermezzo","artist":"Borodin","durationMs":162440,"midiSha256":"08a9ca47955ae79f1ae524c787f317ac967db8d920286976e6c8aab5c8bc718b","midiObject":[{"NoteNumber":57,"Velocity":48,"Duration":1395974,"SoundDuration":1395974,"Delta":0},{"NoteNumber":64,"Velocity":55,"Duration":359338,"SoundDuration":359338,"Delta":0},{"NoteNumber":48,"Velocity":48,"Duration":932272,"SoundDuration":932272,"Delta":0},{"NoteNumber":41,"Velocity":44,"Duration":1395974,"SoundDuration":1395974,"Delta":0},{"NoteNumber":65,"Velocity":51,"Duration":123122,"SoundDuration":123122,"Delta":359338},{"NoteNumber":69,"Velocity":55,"Duration":148964,"SoundDuration":148964,"Delta":482461},{"NoteNumber":67,"Velocity":51,"Duration":149937,"SoundDuration":149937,"Delta":631425},{"NoteNumber":65,"Velocity":51,"Duration":150909,"SoundDuration":150909,"Delta":781362},{"NoteNumber":64,"Velocity":53,"Duration":230202,"SoundDuration":230202,"Delta":932272},{"NoteNumber":49,"Velocity":45,"Duration":463701,"SoundDuration":463701,"Delta":932272},{"NoteNumber":65,"Velocity":52,"Duration":233499,"SoundDuration":233499,"Delta":1162474},{"NoteNumber":62,"Velocity":52,"Duration":355422,"SoundDuration":355422,"Delta":1395974},{"NoteNumber":57,"Velocity":48,"Duration":1389693,"SoundDuration":1389693,"Delta":1395974},{"NoteNumber":50,"Velocity":48,"Duration":924685,"SoundDuration":924685,"Delta":1395974},{"NoteNumber":41,"Velocity":44,"Duration":1389693,"SoundDuration":1389693,"Delta":1395974},{"NoteNumber":69,"Velocity":58,"Duration":915797,"SoundDuration":915797,"Delta":1869870},{"NoteNumber":49,"Velocity":39,"Duration":465008,"SoundDuration":465008,"Delta":2320659},{"NoteNumber":55,"Velocity":48,"Duration":1399573,"SoundDuration":1399573,"Delta":2785667},{"NoteNumber":62,"Velocity":55,"Duration":352526,"SoundDuration":352526,"Delta":2785667},{"NoteNumber":50,"Velocity":48,"Duration":473718,"SoundDuration":473718,"Delta":2785667},{"NoteNumber":46,"Velocity":44,"Duration":1399573,"SoundDuration":1399573,"Delta":2785667},{"NoteNumber":64,"Velocity":50,"Duration":121192,"SoundDuration":121192,"Delta":3138193},{"NoteNumber":67,"Velocity":55,"Duration":149611,"SoundDuration":149611,"Delta":3259385},{"NoteNumber":52,"Velocity":48,"Duration":1392853,"SoundDuration":1392853,"Delta":3259385},{"NoteNumber":65,"Velocity":51,"Duration":150260,"SoundDuration":150260,"Delta":3408996},{"NoteNumber":64,"Velocity":51,"Duration":150909,"SoundDuration":150909,"Delta":3559256},{"NoteNumber":62,"Velocity":55,"Duration":234631,"SoundDuration":234631,"Delta":3710166},{"NoteNumber":64,"Velocity":52,"Duration":240442,"SoundDuration":240442,"Delta":3944797},{"NoteNumber":62,"Velocity":51,"Duration":233499,"SoundDuration":233499,"Delta":4185240},{"NoteNumber":64,"Velocity":55,"Duration":1403646,"SoundDuration":1403646,"Delta":4185240},{"NoteNumber":45,"Velocity":44,"Duration":928896,"SoundDuration":928896,"Delta":4185240},{"NoteNumber":61,"Velocity":44,"Duration":233499,"SoundDuration":233499,"Delta":4418739},{"NoteNumber":59,"Velocity":47,"Duration":229392,"SoundDuration":229392,"Delta":4652239},{"NoteNumber":55,"Velocity":45,"Duration":461896,"SoundDuration":461896,"Delta":4652239},{"NoteNumber":61,"Velocity":42,"Duration":232503,"SoundDuration":232503,"Delta":4881632},{"NoteNumber":59,"Velocity":47,"Duration":233553,"SoundDuration":233553,"Delta":5114136},{"NoteNumber":45,"Velocity":45,"Duration":474750,"SoundDuration":474750,"Delta":5114136},{"NoteNumber":57,"Velocity":42,"Duration":241196,"SoundDuration":241196,"Delta":5347690},{"NoteNumber":57,"Velocity":48,"Duration":1390492,"SoundDuration":1390492,"Delta":5588886},{"NoteNumber":64,"Velocity":55,"Duration":353856,"SoundDuration":353856,"Delta":5588886},{"NoteNumber":48,"Velocity":48,"Duration":926790,"SoundDuration":926790,"Delta":5588886},{"NoteNumber":41,"Velocity":44,"Duration":1390492,"SoundDuration":1390492,"Delta":5588886},{"NoteNumber":65,"Velocity":51,"Duration":123122,"SoundDuration":123122,"Delta":5942743},{"NoteNumber":69,"Velocity":55,"Duration":148964,"SoundDuration":148964,"Delta":6065866},{"NoteNumber":67,"Velocity":51,"Duration":149936,"SoundDuration":149936,"Delta":6214830},{"NoteNumber":65,"Velocity":51,"Duration":150909,"SoundDuration":150909,"Delta":6364767},{"NoteNumber":64,"Velocity":53,"Duration":230202,"SoundDuration":230202,"Delta":6515677},{"NoteNumber":49,"Velocity":45,"Duration":463701,"SoundDuration":463701,"Delta":6515677},{"NoteNumber":65,"Velocity":52,"Duration":233499,"SoundDuration":233499,"Delta":6745879},{"NoteNumber":57,"Velocity":48,"Duration":1381937,"SoundDuration":1381937,"Delta":6979379},{"NoteNumber":62,"Velocity":52,"Duration":352526,"SoundDuration":352526,"Delta":6979379},{"NoteNumber":50,"Velocity":48,"Duration":916929,"SoundDuration":916929,"Delta":6979379},{"NoteNumber":41,"Velocity":44,"Duration":1381937,"SoundDuration":1381937,"Delta":6979379},{"NoteNumber":69,"Velocity":57,"Duration":911902,"SoundDuration":911902,"Delta":7449414},{"NoteNumber":52,"Velocity":39,"Duration":465008,"SoundDuration":465008,"Delta":7896308},{"NoteNumber":69,"Velocity":57,"Duration":353856,"SoundDuration":353856,"Delta":8361316},{"NoteNumber":62,"Velocity":50,"Duration":1857535,"SoundDuration":1857535,"Delta":8361316},{"NoteNumber":53,"Velocity":47,"Duration":475531,"SoundDuration":475531,"Delta":8361316},{"NoteNumber":71,"Velocity":52,"Duration":121674,"SoundDuration":121674,"Delta":8715172},{"NoteNumber":74,"Velocity":57,"Duration":152022,"SoundDuration":152022,"Delta":8836847},{"NoteNumber":55,"Velocity":53,"Duration":456065,"SoundDuration":456065,"Delta":8836847},{"NoteNumber":72,"Velocity":53,"Duration":152021,"SoundDuration":152021,"Delta":8988869},{"NoteNumber":71,"Velocity":53,"Duration":152022,"SoundDuration":152022,"Delta":9140891},{"NoteNumber":69,"Velocity":57,"Duration":231463,"SoundDuration":231463,"Delta":9292913},{"NoteNumber":53,"Velocity":50,"Duration":466058,"SoundDuration":466058,"Delta":9292913},{"NoteNumber":71,"Velocity":55,"Duration":234595,"SoundDuration":234595,"Delta":9524376},{"NoteNumber":67,"Velocity":57,"Duration":227375,"SoundDuration":227375,"Delta":9758971},{"NoteNumber":52,"Velocity":44,"Duration":459880,"SoundDuration":459880,"Delta":9758971},{"NoteNumber":69,"Velocity":51,"Duration":232504,"SoundDuration":232504,"Delta":9986347},{"NoteNumber":60,"Velocity":47,"Duration":939975,"SoundDuration":939975,"Delta":10218851},{"NoteNumber":67,"Velocity":59,"Duration":228379,"SoundDuration":228379,"Delta":10218851},{"NoteNumber":57,"Velocity":51,"Duration":462975,"SoundDuration":462975,"Delta":10218851},{"NoteNumber":69,"Velocity":53,"Duration":234595,"SoundDuration":234595,"Delta":10447231},{"NoteNumber":71,"Velocity":59,"Duration":233553,"SoundDuration":233553,"Delta":10681826},{"NoteNumber":55,"Velocity":47,"Duration":477000,"SoundDuration":477000,"Delta":10681826},{"NoteNumber":72,"Velocity":55,"Duration":243446,"SoundDuration":243446,"Delta":10915380},{"NoteNumber":65,"Velocity":57,"Duration":347195,"SoundDuration":347195,"Delta":11158827},{"NoteNumber":59,"Velocity":50,"Duration":924200,"SoundDuration":924200,"Delta":11158827},{"NoteNumber":50,"Velocity":47,"Duration":464704,"SoundDuration":464704,"Delta":11158827},{"NoteNumber":67,"Velocity":52,"Duration":117508,"SoundDuration":117508,"Delta":11506022},{"NoteNumber":71,"Velocity":57,"Duration":152022,"SoundDuration":152022,"Delta":11623531},{"NoteNumber":55,"Velocity":53,"Duration":459496,"SoundDuration":459496,"Delta":11623531},{"NoteNumber":69,"Velocity":53,"Duration":153165,"SoundDuration":153165,"Delta":11775553},{"NoteNumber":67,"Velocity":53,"Duration":154308,"SoundDuration":154308,"Delta":11928719},{"NoteNumber":65,"Velocity":57,"Duration":240102,"SoundDuration":240102,"Delta":12083028},{"NoteNumber":59,"Velocity":48,"Duration":485883,"SoundDuration":485883,"Delta":12083028},{"NoteNumber":50,"Velocity":47,"Duration":966037,"SoundDuration":966037,"Delta":12083028},{"NoteNumber":67,"Velocity":55,"Duration":245780,"SoundDuration":245780,"Delta":12323130},{"NoteNumber":59,"Velocity":50,"Duration":969390,"SoundDuration":969390,"Delta":12568911},{"NoteNumber":64,"Velocity":57,"Duration":1458628,"SoundDuration":1458628,"Delta":12568911},{"NoteNumber":56,"Velocity":50,"Duration":969390,"SoundDuration":969390,"Delta":12568911},{"NoteNumber":50,"Velocity":47,"Duration":489236,"SoundDuration":489236,"Delta":13049065},{"NoteNumber":48,"Velocity":38,"Duration":489237,"SoundDuration":489237,"Delta":13538302},{"NoteNumber":57,"Velocity":45,"Duration":489237,"SoundDuration":489237,"Delta":13538302},{"NoteNumber":53,"Velocity":45,"Duration":1402867,"SoundDuration":1402867,"Delta":14027539},{"NoteNumber":57,"Velocity":57,"Duration":351178,"SoundDuration":351178,"Delta":14027539},{"NoteNumber":59,"Velocity":53,"Duration":121192,"SoundDuration":121192,"Delta":14378717},{"NoteNumber":69,"Velocity":47,"Duration":1837405,"SoundDuration":1837405,"Delta":14499910},{"NoteNumber":74,"Velocity":62,"Duration":455422,"SoundDuration":455422,"Delta":14499910},{"NoteNumber":62,"Velocity":56,"Duration":150943,"SoundDuration":150943,"Delta":14499910},{"NoteNumber":60,"Velocity":55,"Duration":151807,"SoundDuration":151807,"Delta":14650853},{"NoteNumber":59,"Velocity":55,"Duration":152671,"SoundDuration":152671,"Delta":14802661},{"NoteNumber":81,"Velocity":66,"Duration":930830,"SoundDuration":930830,"Delta":14955332},{"NoteNumber":57,"Velocity":57,"Duration":234631,"SoundDuration":234631,"Delta":14955332},{"NoteNumber":59,"Velocity":56,"Duration":240442,"SoundDuration":240442,"Delta":15189964},{"NoteNumber":52,"Velocity":41,"Duration":1383910,"SoundDuration":1383910,"Delta":15430406},{"NoteNumber":55,"Velocity":55,"Duration":227375,"SoundDuration":227375,"Delta":15430406},{"NoteNumber":57,"Velocity":52,"Duration":228379,"SoundDuration":228379,"Delta":15657782},{"NoteNumber":72,"Velocity":60,"Duration":451153,"SoundDuration":451153,"Delta":15886162},{"NoteNumber":55,"Velocity":59,"Duration":223880,"SoundDuration":223880,"Delta":15886162},{"NoteNumber":57,"Velocity":55,"Duration":227272,"SoundDuration":227272,"Delta":16110043},{"NoteNumber":67,"Velocity":47,"Duration":477001,"SoundDuration":477001,"Delta":16337315},{"NoteNumber":79,"Velocity":62,"Duration":477001,"SoundDuration":477001,"Delta":16337315},{"NoteNumber":59,"Velocity":59,"Duration":233554,"SoundDuration":233554,"Delta":16337315},{"NoteNumber":60,"Velocity":51,"Duration":243446,"SoundDuration":243446,"Delta":16570869},{"NoteNumber":50,"Velocity":45,"Duration":913305,"SoundDuration":913305,"Delta":16814316},{"NoteNumber":53,"Velocity":57,"Duration":348539,"SoundDuration":348539,"Delta":16814316},{"NoteNumber":55,"Velocity":53,"Duration":116179,"SoundDuration":116179,"Delta":17162856},{"NoteNumber":77,"Velocity":62,"Duration":448585,"SoundDuration":448585,"Delta":17279036},{"NoteNumber":71,"Velocity":48,"Duration":448585,"SoundDuration":448585,"Delta":17279036},{"NoteNumber":59,"Velocity":59,"Duration":148147,"SoundDuration":148147,"Delta":17279036},{"NoteNumber":57,"Velocity":57,"Duration":149528,"SoundDuration":149528,"Delta":17427184},{"NoteNumber":55,"Velocity":57,"Duration":150909,"SoundDuration":150909,"Delta":17576713},{"NoteNumber":67,"Velocity":46,"Duration":457815,"SoundDuration":457815,"Delta":17727622},{"NoteNumber":79,"Velocity":60,"Duration":457815,"SoundDuration":457815,"Delta":17727622},{"NoteNumber":43,"Velocity":42,"Duration":478009,"SoundDuration":478009,"Delta":17727622},{"NoteNumber":53,"Velocity":59,"Duration":235682,"SoundDuration":235682,"Delta":17727622},{"NoteNumber":55,"Velocity":58,"Duration":242326,"SoundDuration":242326,"Delta":17963305},{"NoteNumber":67,"Velocity":48,"Duration":455808,"SoundDuration":455808,"Delta":18205631},{"NoteNumber":79,"Velocity":62,"Duration":455808,"SoundDuration":455808,"Delta":18205631},{"NoteNumber":48,"Velocity":45,"Duration":929439,"SoundDuration":929439,"Delta":18205631},{"NoteNumber":53,"Velocity":53,"Duration":225394,"SoundDuration":225394,"Delta":18205631},{"NoteNumber":52,"Velocity":51,"Duration":230414,"SoundDuration":230414,"Delta":18431026},{"NoteNumber":72,"Velocity":57,"Duration":473631,"SoundDuration":473631,"Delta":18661440},{"NoteNumber":50,"Velocity":55,"Duration":233554,"SoundDuration":233554,"Delta":18661440},{"NoteNumber":52,"Velocity":51,"Duration":240076,"SoundDuration":240076,"Delta":18894994},{"NoteNumber":50,"Velocity":47,"Duration":236761,"SoundDuration":236761,"Delta":19135071},{"NoteNumber":48,"Velocity":41,"Duration":236760,"SoundDuration":236760,"Delta":19371832},{"NoteNumber":53,"Velocity":69,"Duration":340151,"SoundDuration":340151,"Delta":19608593},{"NoteNumber":41,"Velocity":57,"Duration":340151,"SoundDuration":340151,"Delta":19608593},{"NoteNumber":55,"Velocity":63,"Duration":119832,"SoundDuration":119832,"Delta":19948745},{"NoteNumber":43,"Velocity":53,"Duration":119832,"SoundDuration":119832,"Delta":19948745},{"NoteNumber":58,"Velocity":69,"Duration":154265,"SoundDuration":154265,"Delta":20059503},{"NoteNumber":46,"Velocity":56,"Duration":154265,"SoundDuration":154265,"Delta":20059503},{"NoteNumber":56,"Velocity":64,"Duration":158237,"SoundDuration":158237,"Delta":20204694},{"NoteNumber":44,"Velocity":55,"Duration":158237,"SoundDuration":158237,"Delta":20204694},{"NoteNumber":55,"Velocity":64,"Duration":161941,"SoundDuration":161941,"Delta":20353416},{"NoteNumber":43,"Velocity":55,"Duration":161941,"SoundDuration":161941,"Delta":20353416},{"NoteNumber":53,"Velocity":69,"Duration":242460,"SoundDuration":242460,"Delta":20505669},{"NoteNumber":41,"Velocity":57,"Duration":242460,"SoundDuration":242460,"Delta":20505669},{"NoteNumber":55,"Velocity":66,"Duration":238948,"SoundDuration":238948,"Delta":20738173},{"NoteNumber":43,"Velocity":56,"Duration":238948,"SoundDuration":238948,"Delta":20738173},{"NoteNumber":75,"Velocity":72,"Duration":343671,"SoundDuration":343671,"Delta":20977121},{"NoteNumber":68,"Velocity":59,"Duration":1374182,"SoundDuration":1374182,"Delta":20977121},{"NoteNumber":39,"Velocity":55,"Duration":455880,"SoundDuration":455880,"Delta":20977121},{"NoteNumber":51,"Velocity":59,"Duration":455880,"SoundDuration":455880,"Delta":20977121},{"NoteNumber":77,"Velocity":66,"Duration":112208,"SoundDuration":112208,"Delta":21320793},{"NoteNumber":80,"Velocity":71,"Duration":147048,"SoundDuration":147048,"Delta":21433001},{"NoteNumber":48,"Velocity":55,"Duration":918302,"SoundDuration":918302,"Delta":21433001},{"NoteNumber":60,"Velocity":59,"Duration":918302,"SoundDuration":918302,"Delta":21433001},{"NoteNumber":79,"Velocity":69,"Duration":149315,"SoundDuration":149315,"Delta":21580049},{"NoteNumber":77,"Velocity":69,"Duration":151583,"SoundDuration":151583,"Delta":21729365},{"NoteNumber":75,"Velocity":71,"Duration":232503,"SoundDuration":232503,"Delta":21880949},{"NoteNumber":77,"Velocity":70,"Duration":237850,"SoundDuration":237850,"Delta":22113453},{"NoteNumber":67,"Velocity":55,"Duration":1373931,"SoundDuration":1373931,"Delta":22351303},{"NoteNumber":73,"Velocity":71,"Duration":341116,"SoundDuration":341116,"Delta":22351303},{"NoteNumber":46,"Velocity":55,"Duration":452840,"SoundDuration":452840,"Delta":22351303},{"NoteNumber":58,"Velocity":59,"Duration":452840,"SoundDuration":452840,"Delta":22351303},{"NoteNumber":75,"Velocity":66,"Duration":111723,"SoundDuration":111723,"Delta":22692420},{"NoteNumber":79,"Velocity":71,"Duration":146423,"SoundDuration":146423,"Delta":22804143},{"NoteNumber":39,"Velocity":55,"Duration":921091,"SoundDuration":921091,"Delta":22804143},{"NoteNumber":51,"Velocity":59,"Duration":921091,"SoundDuration":921091,"Delta":22804143},{"NoteNumber":77,"Velocity":69,"Duration":147694,"SoundDuration":147694,"Delta":22950567},{"NoteNumber":75,"Velocity":69,"Duration":148964,"SoundDuration":148964,"Delta":23098261},{"NoteNumber":73,"Velocity":71,"Duration":235682,"SoundDuration":235682,"Delta":23247226},{"NoteNumber":75,"Velocity":70,"Duration":242326,"SoundDuration":242326,"Delta":23482908},{"NoteNumber":63,"Velocity":55,"Duration":1413319,"SoundDuration":1413319,"Delta":23725235},{"NoteNumber":60,"Velocity":55,"Duration":1413319,"SoundDuration":1413319,"Delta":23725235},{"NoteNumber":72,"Velocity":61,"Duration":1413319,"SoundDuration":1413319,"Delta":23725235},{"NoteNumber":44,"Velocity":52,"Duration":1413319,"SoundDuration":1413319,"Delta":23725235},{"NoteNumber":51,"Velocity":59,"Duration":232503,"SoundDuration":232503,"Delta":23725235},{"NoteNumber":53,"Velocity":55,"Duration":240076,"SoundDuration":240076,"Delta":23957739},{"NoteNumber":51,"Velocity":56,"Duration":233554,"SoundDuration":233554,"Delta":24197816},{"NoteNumber":53,"Velocity":58,"Duration":240076,"SoundDuration":240076,"Delta":24431370},{"NoteNumber":55,"Velocity":61,"Duration":233554,"SoundDuration":233554,"Delta":24671447},{"NoteNumber":56,"Velocity":63,"Duration":175165,"SoundDuration":175165,"Delta":24905001},{"NoteNumber":43,"Velocity":64,"Duration":399016,"SoundDuration":399016,"Delta":25080166},{"NoteNumber":60,"Velocity":55,"Duration":1374708,"SoundDuration":1374708,"Delta":25138555},{"NoteNumber":64,"Velocity":55,"Duration":1374708,"SoundDuration":1374708,"Delta":25138555},{"NoteNumber":72,"Velocity":61,"Duration":1374708,"SoundDuration":1374708,"Delta":25138555},{"NoteNumber":58,"Velocity":63,"Duration":451862,"SoundDuration":451862,"Delta":25138555},{"NoteNumber":44,"Velocity":61,"Duration":111234,"SoundDuration":111234,"Delta":25479183},{"NoteNumber":48,"Velocity":64,"Duration":155575,"SoundDuration":155575,"Delta":25590417},{"NoteNumber":46,"Velocity":62,"Duration":158854,"SoundDuration":158854,"Delta":25736841},{"NoteNumber":44,"Velocity":62,"Duration":161941,"SoundDuration":161941,"Delta":25886180},{"NoteNumber":43,"Velocity":64,"Duration":242600,"SoundDuration":242600,"Delta":26038433},{"NoteNumber":44,"Velocity":63,"Duration":242326,"SoundDuration":242326,"Delta":26270937},{"NoteNumber":68,"Velocity":66,"Duration":231463,"SoundDuration":231463,"Delta":26513263},{"NoteNumber":65,"Velocity":51,"Duration":1404673,"SoundDuration":1404673,"Delta":26513263},{"NoteNumber":60,"Velocity":51,"Duration":1404673,"SoundDuration":1404673,"Delta":26513263},{"NoteNumber":41,"Velocity":59,"Duration":936449,"SoundDuration":936449,"Delta":26513263},{"NoteNumber":53,"Velocity":66,"Duration":936449,"SoundDuration":936449,"Delta":26513263},{"NoteNumber":70,"Velocity":61,"Duration":236761,"SoundDuration":236761,"Delta":26744727},{"NoteNumber":68,"Velocity":66,"Duration":231463,"SoundDuration":231463,"Delta":26981488},{"NoteNumber":70,"Velocity":62,"Duration":236761,"SoundDuration":236761,"Delta":27212951},{"NoteNumber":72,"Velocity":66,"Duration":231463,"SoundDuration":231463,"Delta":27449712},{"NoteNumber":39,"Velocity":51,"Duration":468224,"SoundDuration":468224,"Delta":27449712},{"NoteNumber":51,"Velocity":57,"Duration":468224,"SoundDuration":468224,"Delta":27449712},{"NoteNumber":73,"Velocity":62,"Duration":236761,"SoundDuration":236761,"Delta":27681176},{"NoteNumber":70,"Velocity":72,"Duration":231463,"SoundDuration":231463,"Delta":27917937},{"NoteNumber":65,"Velocity":51,"Duration":1405914,"SoundDuration":1405914,"Delta":27917937},{"NoteNumber":37,"Velocity":53,"Duration":467145,"SoundDuration":467145,"Delta":27917937},{"NoteNumber":49,"Velocity":60,"Duration":467145,"SoundDuration":467145,"Delta":27917937},{"NoteNumber":72,"Velocity":63,"Duration":235682,"SoundDuration":235682,"Delta":28149400},{"NoteNumber":70,"Velocity":70,"Duration":231463,"SoundDuration":231463,"Delta":28385083},{"NoteNumber":43,"Velocity":57,"Duration":467145,"SoundDuration":467145,"Delta":28385083},{"NoteNumber":55,"Velocity":63,"Duration":467145,"SoundDuration":467145,"Delta":28385083},{"NoteNumber":72,"Velocity":66,"Duration":235682,"SoundDuration":235682,"Delta":28616546},{"NoteNumber":73,"Velocity":64,"Duration":152938,"SoundDuration":152938,"Delta":28852229},{"NoteNumber":37,"Velocity":51,"Duration":471622,"SoundDuration":471622,"Delta":28852229},{"NoteNumber":49,"Velocity":58,"Duration":471622,"SoundDuration":471622,"Delta":28852229},{"NoteNumber":75,"Velocity":70,"Duration":157126,"SoundDuration":157126,"Delta":29005168},{"NoteNumber":77,"Velocity":73,"Duration":161556,"SoundDuration":161556,"Delta":29162295},{"NoteNumber":79,"Velocity":78,"Duration":1481723,"SoundDuration":1481723,"Delta":29323851},{"NoteNumber":65,"Velocity":59,"Duration":493908,"SoundDuration":493908,"Delta":29323851},{"NoteNumber":70,"Velocity":58,"Duration":1481723,"SoundDuration":1481723,"Delta":29323851},{"NoteNumber":36,"Velocity":50,"Duration":987815,"SoundDuration":987815,"Delta":29323851},{"NoteNumber":48,"Velocity":57,"Duration":987815,"SoundDuration":987815,"Delta":29323851},{"NoteNumber":64,"Velocity":59,"Duration":987815,"SoundDuration":987815,"Delta":29817759},{"NoteNumber":60,"Velocity":57,"Duration":493908,"SoundDuration":493908,"Delta":30311667},{"NoteNumber":69,"Velocity":68,"Duration":1837698,"SoundDuration":1837698,"Delta":30805575},{"NoteNumber":76,"Velocity":83,"Duration":352526,"SoundDuration":352526,"Delta":30805575},{"NoteNumber":29,"Velocity":60,"Duration":1857444,"SoundDuration":1857444,"Delta":30805575},{"NoteNumber":41,"Velocity":68,"Duration":1857444,"SoundDuration":1857444,"Delta":30805575},{"NoteNumber":77,"Velocity":77,"Duration":117508,"SoundDuration":117508,"Delta":31158101},{"NoteNumber":81,"Velocity":73,"Duration":148964,"SoundDuration":148964,"Delta":31275610},{"NoteNumber":60,"Velocity":66,"Duration":449811,"SoundDuration":449811,"Delta":31275610},{"NoteNumber":48,"Velocity":59,"Duration":449811,"SoundDuration":449811,"Delta":31275610},{"NoteNumber":79,"Velocity":74,"Duration":149936,"SoundDuration":149936,"Delta":31424575},{"NoteNumber":77,"Velocity":73,"Duration":150909,"SoundDuration":150909,"Delta":31574512},{"NoteNumber":76,"Velocity":77,"Duration":230202,"SoundDuration":230202,"Delta":31725421},{"NoteNumber":61,"Velocity":63,"Duration":463701,"SoundDuration":463701,"Delta":31725421},{"NoteNumber":49,"Velocity":56,"Duration":463701,"SoundDuration":463701,"Delta":31725421},{"NoteNumber":77,"Velocity":75,"Duration":233499,"SoundDuration":233499,"Delta":31955624},{"NoteNumber":74,"Velocity":78,"Duration":454150,"SoundDuration":454150,"Delta":32189123},{"NoteNumber":62,"Velocity":68,"Duration":1389693,"SoundDuration":1389693,"Delta":32189123},{"NoteNumber":50,"Velocity":68,"Duration":1389693,"SoundDuration":1389693,"Delta":32189123},{"NoteNumber":69,"Velocity":63,"Duration":915796,"SoundDuration":915796,"Delta":32663019},{"NoteNumber":81,"Velocity":84,"Duration":915796,"SoundDuration":915796,"Delta":32663019},{"NoteNumber":29,"Velocity":53,"Duration":465007,"SoundDuration":465007,"Delta":33113808},{"NoteNumber":41,"Velocity":60,"Duration":465007,"SoundDuration":465007,"Delta":33113808},{"NoteNumber":74,"Velocity":84,"Duration":352526,"SoundDuration":352526,"Delta":33578816},{"NoteNumber":67,"Velocity":68,"Duration":920815,"SoundDuration":920815,"Delta":33578816},{"NoteNumber":34,"Velocity":68,"Duration":920815,"SoundDuration":920815,"Delta":33578816},{"NoteNumber":46,"Velocity":68,"Duration":920815,"SoundDuration":920815,"Delta":33578816},{"NoteNumber":76,"Velocity":73,"Duration":117508,"SoundDuration":117508,"Delta":33931342},{"NoteNumber":79,"Velocity":73,"Duration":149611,"SoundDuration":149611,"Delta":34048851},{"NoteNumber":64,"Velocity":68,"Duration":925854,"SoundDuration":925854,"Delta":34048851},{"NoteNumber":52,"Velocity":61,"Duration":925854,"SoundDuration":925854,"Delta":34048851},{"NoteNumber":77,"Velocity":73,"Duration":150260,"SoundDuration":150260,"Delta":34198462},{"NoteNumber":76,"Velocity":72,"Duration":150909,"SoundDuration":150909,"Delta":34348722},{"NoteNumber":67,"Velocity":62,"Duration":475073,"SoundDuration":475073,"Delta":34499632},{"NoteNumber":74,"Velocity":78,"Duration":234631,"SoundDuration":234631,"Delta":34499632},{"NoteNumber":34,"Velocity":53,"Duration":475073,"SoundDuration":475073,"Delta":34499632},{"NoteNumber":46,"Velocity":60,"Duration":475073,"SoundDuration":475073,"Delta":34499632},{"NoteNumber":76,"Velocity":74,"Duration":240442,"SoundDuration":240442,"Delta":34734263},{"NoteNumber":74,"Velocity":77,"Duration":233499,"SoundDuration":233499,"Delta":34974706},{"NoteNumber":67,"Velocity":68,"Duration":928896,"SoundDuration":928896,"Delta":34974706},{"NoteNumber":76,"Velocity":71,"Duration":928896,"SoundDuration":928896,"Delta":34974706},{"NoteNumber":33,"Velocity":55,"Duration":928896,"SoundDuration":928896,"Delta":34974706},{"NoteNumber":45,"Velocity":62,"Duration":928896,"SoundDuration":928896,"Delta":34974706},{"NoteNumber":73,"Velocity":64,"Duration":233499,"SoundDuration":233499,"Delta":35208205},{"NoteNumber":71,"Velocity":69,"Duration":229393,"SoundDuration":229393,"Delta":35441705},{"NoteNumber":57,"Velocity":67,"Duration":936647,"SoundDuration":936647,"Delta":35441705},{"NoteNumber":73,"Velocity":62,"Duration":232503,"SoundDuration":232503,"Delta":35671098},{"NoteNumber":71,"Velocity":69,"Duration":233553,"SoundDuration":233553,"Delta":35903602},{"NoteNumber":33,"Velocity":56,"Duration":474750,"SoundDuration":474750,"Delta":35903602},{"NoteNumber":45,"Velocity":63,"Duration":474750,"SoundDuration":474750,"Delta":35903602},{"NoteNumber":69,"Velocity":62,"Duration":241196,"SoundDuration":241196,"Delta":36137156},{"NoteNumber":76,"Velocity":84,"Duration":353856,"SoundDuration":353856,"Delta":36378352},{"NoteNumber":69,"Velocity":68,"Duration":1848248,"SoundDuration":1848248,"Delta":36378352},{"NoteNumber":29,"Velocity":60,"Duration":2760150,"SoundDuration":2760150,"Delta":36378352},{"NoteNumber":41,"Velocity":68,"Duration":2760150,"SoundDuration":2760150,"Delta":36378352},{"NoteNumber":77,"Velocity":77,"Duration":117952,"SoundDuration":117952,"Delta":36732209},{"NoteNumber":81,"Velocity":75,"Duration":148964,"SoundDuration":148964,"Delta":36850161},{"NoteNumber":48,"Velocity":59,"Duration":449810,"SoundDuration":449810,"Delta":36850161},{"NoteNumber":60,"Velocity":66,"Duration":449810,"SoundDuration":449810,"Delta":36850161},{"NoteNumber":79,"Velocity":73,"Duration":149937,"SoundDuration":149937,"Delta":36999126},{"NoteNumber":77,"Velocity":72,"Duration":150909,"SoundDuration":150909,"Delta":37149063},{"NoteNumber":76,"Velocity":75,"Duration":230202,"SoundDuration":230202,"Delta":37299972},{"NoteNumber":61,"Velocity":63,"Duration":463701,"SoundDuration":463701,"Delta":37299972},{"NoteNumber":49,"Velocity":56,"Duration":463701,"SoundDuration":463701,"Delta":37299972},{"NoteNumber":77,"Velocity":74,"Duration":233499,"SoundDuration":233499,"Delta":37530174},{"NoteNumber":74,"Velocity":78,"Duration":433994,"SoundDuration":433994,"Delta":37763674},{"NoteNumber":62,"Velocity":68,"Duration":909821,"SoundDuration":909821,"Delta":37763674},{"NoteNumber":50,"Velocity":62,"Duration":909821,"SoundDuration":909821,"Delta":37763674},{"NoteNumber":69,"Velocity":73,"Duration":911901,"SoundDuration":911901,"Delta":38226601},{"NoteNumber":81,"Velocity":80,"Duration":911901,"SoundDuration":911901,"Delta":38226601},{"NoteNumber":65,"Velocity":63,"Duration":465007,"SoundDuration":465007,"Delta":38673495},{"NoteNumber":53,"Velocity":55,"Duration":465007,"SoundDuration":465007,"Delta":38673495},{"NoteNumber":65,"Velocity":57,"Duration":1393933,"SoundDuration":1393933,"Delta":39138503},{"NoteNumber":74,"Velocity":71,"Duration":353856,"SoundDuration":353856,"Delta":39138503},{"NoteNumber":67,"Velocity":57,"Duration":1393933,"SoundDuration":1393933,"Delta":39138503},{"NoteNumber":46,"Velocity":53,"Duration":471809,"SoundDuration":471809,"Delta":39138503},{"NoteNumber":76,"Velocity":62,"Duration":117952,"SoundDuration":117952,"Delta":39492360},{"NoteNumber":79,"Velocity":67,"Duration":152022,"SoundDuration":152022,"Delta":39610312},{"NoteNumber":58,"Velocity":60,"Duration":922124,"SoundDuration":922124,"Delta":39610312},{"NoteNumber":77,"Velocity":62,"Duration":152021,"SoundDuration":152021,"Delta":39762334},{"NoteNumber":76,"Velocity":60,"Duration":152022,"SoundDuration":152022,"Delta":39914356},{"NoteNumber":74,"Velocity":62,"Duration":231463,"SoundDuration":231463,"Delta":40066378},{"NoteNumber":76,"Velocity":58,"Duration":234594,"SoundDuration":234594,"Delta":40297841},{"NoteNumber":72,"Velocity":57,"Duration":227375,"SoundDuration":227375,"Delta":40532436},{"NoteNumber":69,"Velocity":47,"Duration":1399855,"SoundDuration":1399855,"Delta":40532436},{"NoteNumber":65,"Velocity":47,"Duration":1399855,"SoundDuration":1399855,"Delta":40532436},{"NoteNumber":60,"Velocity":44,"Duration":459879,"SoundDuration":459879,"Delta":40532436},{"NoteNumber":74,"Velocity":51,"Duration":232503,"SoundDuration":232503,"Delta":40759812},{"NoteNumber":72,"Velocity":59,"Duration":228380,"SoundDuration":228380,"Delta":40992316},{"NoteNumber":48,"Velocity":51,"Duration":939976,"SoundDuration":939976,"Delta":40992316},{"NoteNumber":74,"Velocity":53,"Duration":234594,"SoundDuration":234594,"Delta":41220696},{"NoteNumber":76,"Velocity":59,"Duration":233553,"SoundDuration":233553,"Delta":41455291},{"NoteNumber":77,"Velocity":55,"Duration":243447,"SoundDuration":243447,"Delta":41688845},{"NoteNumber":64,"Velocity":50,"Duration":1408306,"SoundDuration":1408306,"Delta":41932292},{"NoteNumber":70,"Velocity":57,"Duration":347195,"SoundDuration":347195,"Delta":41932292},{"NoteNumber":55,"Velocity":47,"Duration":462927,"SoundDuration":462927,"Delta":41932292},{"NoteNumber":72,"Velocity":52,"Duration":115731,"SoundDuration":115731,"Delta":42279488},{"NoteNumber":76,"Velocity":57,"Duration":152022,"SoundDuration":152022,"Delta":42395219},{"NoteNumber":48,"Velocity":53,"Duration":945379,"SoundDuration":945379,"Delta":42395219},{"NoteNumber":74,"Velocity":53,"Duration":153165,"SoundDuration":153165,"Delta":42547241},{"NoteNumber":72,"Velocity":53,"Duration":154308,"SoundDuration":154308,"Delta":42700407},{"NoteNumber":70,"Velocity":57,"Duration":240102,"SoundDuration":240102,"Delta":42854716},{"NoteNumber":72,"Velocity":55,"Duration":245781,"SoundDuration":245781,"Delta":43094818},{"NoteNumber":63,"Velocity":42,"Duration":1458627,"SoundDuration":1458627,"Delta":43340599},{"NoteNumber":69,"Velocity":48,"Duration":1458627,"SoundDuration":1458627,"Delta":43340599},{"NoteNumber":54,"Velocity":42,"Duration":480153,"SoundDuration":480153,"Delta":43340599},{"NoteNumber":48,"Velocity":39,"Duration":978473,"SoundDuration":978473,"Delta":43820753},{"NoteNumber":62,"Velocity":55,"Duration":359338,"SoundDuration":359338,"Delta":44799227},{"NoteNumber":69,"Velocity":52,"Duration":479117,"SoundDuration":479117,"Delta":44799227},{"NoteNumber":46,"Velocity":53,"Duration":479117,"SoundDuration":479117,"Delta":44799227},{"NoteNumber":64,"Velocity":53,"Duration":119779,"SoundDuration":119779,"Delta":45158566},{"NoteNumber":67,"Velocity":57,"Duration":464719,"SoundDuration":464719,"Delta":45278345},{"NoteNumber":58,"Velocity":60,"Duration":933433,"SoundDuration":933433,"Delta":45278345},{"NoteNumber":65,"Velocity":53,"Duration":154906,"SoundDuration":154906,"Delta":45433252},{"NoteNumber":64,"Velocity":50,"Duration":154906,"SoundDuration":154906,"Delta":45588159},{"NoteNumber":74,"Velocity":60,"Duration":930979,"SoundDuration":930979,"Delta":45743065},{"NoteNumber":62,"Velocity":53,"Duration":234118,"SoundDuration":234118,"Delta":45743065},{"NoteNumber":64,"Velocity":50,"Duration":234594,"SoundDuration":234594,"Delta":45977184},{"NoteNumber":57,"Velocity":47,"Duration":1403624,"SoundDuration":1403624,"Delta":46211779},{"NoteNumber":65,"Velocity":47,"Duration":926622,"SoundDuration":926622,"Delta":46211779},{"NoteNumber":60,"Velocity":53,"Duration":229762,"SoundDuration":229762,"Delta":46211779},{"NoteNumber":57,"Velocity":44,"Duration":1403624,"SoundDuration":1403624,"Delta":46211779},{"NoteNumber":62,"Velocity":48,"Duration":232503,"SoundDuration":232503,"Delta":46441541},{"NoteNumber":65,"Velocity":60,"Duration":941358,"SoundDuration":941358,"Delta":46674045},{"NoteNumber":60,"Velocity":56,"Duration":229762,"SoundDuration":229762,"Delta":46674045},{"NoteNumber":62,"Velocity":50,"Duration":234594,"SoundDuration":234594,"Delta":46903807},{"NoteNumber":72,"Velocity":60,"Duration":943491,"SoundDuration":943491,"Delta":47138402},{"NoteNumber":64,"Velocity":56,"Duration":233553,"SoundDuration":233553,"Delta":47138402},{"NoteNumber":65,"Velocity":51,"Duration":243447,"SoundDuration":243447,"Delta":47371956},{"NoteNumber":58,"Velocity":53,"Duration":349867,"SoundDuration":349867,"Delta":47615403},{"NoteNumber":55,"Velocity":47,"Duration":930371,"SoundDuration":930371,"Delta":47615403},{"NoteNumber":60,"Velocity":49,"Duration":116622,"SoundDuration":116622,"Delta":47965271},{"NoteNumber":70,"Velocity":60,"Duration":463881,"SoundDuration":463881,"Delta":48081893},{"NoteNumber":64,"Velocity":53,"Duration":153174,"SoundDuration":153174,"Delta":48081893},{"NoteNumber":62,"Velocity":50,"Duration":154627,"SoundDuration":154627,"Delta":48235068},{"NoteNumber":60,"Velocity":50,"Duration":156079,"SoundDuration":156079,"Delta":48389695},{"NoteNumber":64,"Velocity":60,"Duration":485883,"SoundDuration":485883,"Delta":48545774},{"NoteNumber":72,"Velocity":60,"Duration":485883,"SoundDuration":485883,"Delta":48545774},{"NoteNumber":58,"Velocity":49,"Duration":240102,"SoundDuration":240102,"Delta":48545774},{"NoteNumber":48,"Velocity":47,"Duration":485883,"SoundDuration":485883,"Delta":48545774},{"NoteNumber":60,"Velocity":47,"Duration":245781,"SoundDuration":245781,"Delta":48785877},{"NoteNumber":72,"Velocity":48,"Duration":1453050,"SoundDuration":1453050,"Delta":49031658},{"NoteNumber":65,"Velocity":42,"Duration":1453050,"SoundDuration":1453050,"Delta":49031658},{"NoteNumber":58,"Velocity":46,"Duration":235017,"SoundDuration":235017,"Delta":49031658},{"NoteNumber":53,"Velocity":46,"Duration":963813,"SoundDuration":963813,"Delta":49031658},{"NoteNumber":57,"Velocity":41,"Duration":239558,"SoundDuration":239558,"Delta":49266675},{"NoteNumber":55,"Velocity":45,"Duration":244618,"SoundDuration":244618,"Delta":49506234},{"NoteNumber":57,"Velocity":40,"Duration":244618,"SoundDuration":244618,"Delta":49750853},{"NoteNumber":55,"Velocity":40,"Duration":244618,"SoundDuration":244618,"Delta":49995471},{"NoteNumber":53,"Velocity":40,"Duration":244618,"SoundDuration":244618,"Delta":50240090},{"NoteNumber":79,"Velocity":57,"Duration":353856,"SoundDuration":353856,"Delta":50484708},{"NoteNumber":75,"Velocity":47,"Duration":1393933,"SoundDuration":1393933,"Delta":50484708},{"NoteNumber":81,"Velocity":52,"Duration":117952,"SoundDuration":117952,"Delta":50838565},{"NoteNumber":84,"Velocity":57,"Duration":152022,"SoundDuration":152022,"Delta":50956517},{"NoteNumber":65,"Velocity":42,"Duration":1844979,"SoundDuration":1844979,"Delta":50956517},{"NoteNumber":82,"Velocity":53,"Duration":152021,"SoundDuration":152021,"Delta":51108539},{"NoteNumber":81,"Velocity":53,"Duration":152022,"SoundDuration":152022,"Delta":51260561},{"NoteNumber":79,"Velocity":57,"Duration":231463,"SoundDuration":231463,"Delta":51412583},{"NoteNumber":81,"Velocity":55,"Duration":234594,"SoundDuration":234594,"Delta":51644047},{"NoteNumber":77,"Velocity":57,"Duration":227375,"SoundDuration":227375,"Delta":51878642},{"NoteNumber":75,"Velocity":44,"Duration":459879,"SoundDuration":459879,"Delta":51878642},{"NoteNumber":79,"Velocity":51,"Duration":232503,"SoundDuration":232503,"Delta":52106018},{"NoteNumber":77,"Velocity":59,"Duration":228380,"SoundDuration":228380,"Delta":52338522},{"NoteNumber":74,"Velocity":51,"Duration":939976,"SoundDuration":939976,"Delta":52338522},{"NoteNumber":79,"Velocity":53,"Duration":234594,"SoundDuration":234594,"Delta":52566902},{"NoteNumber":81,"Velocity":59,"Duration":233553,"SoundDuration":233553,"Delta":52801497},{"NoteNumber":65,"Velocity":42,"Duration":943491,"SoundDuration":943491,"Delta":52801497},{"NoteNumber":82,"Velocity":55,"Duration":243447,"SoundDuration":243447,"Delta":53035051},{"NoteNumber":74,"Velocity":57,"Duration":349867,"SoundDuration":349867,"Delta":53278498},{"NoteNumber":70,"Velocity":47,"Duration":1415380,"SoundDuration":1415380,"Delta":53278498},{"NoteNumber":76,"Velocity":52,"Duration":116622,"SoundDuration":116622,"Delta":53628365},{"NoteNumber":79,"Velocity":57,"Duration":153174,"SoundDuration":153174,"Delta":53744988},{"NoteNumber":65,"Velocity":42,"Duration":1889958,"SoundDuration":1889958,"Delta":53744988},{"NoteNumber":77,"Velocity":53,"Duration":154335,"SoundDuration":154335,"Delta":53898162},{"NoteNumber":76,"Velocity":53,"Duration":155496,"SoundDuration":155496,"Delta":54052498},{"NoteNumber":74,"Velocity":57,"Duration":240102,"SoundDuration":240102,"Delta":54207995},{"NoteNumber":76,"Velocity":55,"Duration":245781,"SoundDuration":245781,"Delta":54448097},{"NoteNumber":77,"Velocity":57,"Duration":1412877,"SoundDuration":1412877,"Delta":54693878},{"NoteNumber":72,"Velocity":57,"Duration":1412877,"SoundDuration":1412877,"Delta":54693878},{"NoteNumber":70,"Velocity":48,"Duration":232359,"SoundDuration":232359,"Delta":54693878},{"NoteNumber":69,"Velocity":42,"Duration":235904,"SoundDuration":235904,"Delta":54926238},{"NoteNumber":67,"Velocity":46,"Duration":233244,"SoundDuration":233244,"Delta":55162142},{"NoteNumber":69,"Velocity":41,"Duration":239558,"SoundDuration":239558,"Delta":55395387},{"NoteNumber":67,"Velocity":41,"Duration":235904,"SoundDuration":235904,"Delta":55634946},{"NoteNumber":65,"Velocity":38,"Duration":235904,"SoundDuration":235904,"Delta":55870851},{"NoteNumber":70,"Velocity":50,"Duration":1412044,"SoundDuration":1412044,"Delta":56106755},{"NoteNumber":65,"Velocity":50,"Duration":1412044,"SoundDuration":1412044,"Delta":56106755},{"NoteNumber":77,"Velocity":57,"Duration":1412044,"SoundDuration":1412044,"Delta":56106755},{"NoteNumber":63,"Velocity":44,"Duration":231499,"SoundDuration":231499,"Delta":56106755},{"NoteNumber":62,"Velocity":39,"Duration":236817,"SoundDuration":236817,"Delta":56338255},{"NoteNumber":60,"Velocity":42,"Duration":232359,"SoundDuration":232359,"Delta":56575072},{"NoteNumber":62,"Velocity":38,"Duration":239558,"SoundDuration":239558,"Delta":56807432},{"NoteNumber":60,"Velocity":38,"Duration":235904,"SoundDuration":235904,"Delta":57046991},{"NoteNumber":58,"Velocity":35,"Duration":235904,"SoundDuration":235904,"Delta":57282895},{"NoteNumber":84,"Velocity":57,"Duration":1408389,"SoundDuration":1408389,"Delta":57518800},{"NoteNumber":72,"Velocity":50,"Duration":1408389,"SoundDuration":1408389,"Delta":57518800},{"NoteNumber":77,"Velocity":50,"Duration":1408389,"SoundDuration":1408389,"Delta":57518800},{"NoteNumber":58,"Velocity":44,"Duration":231499,"SoundDuration":231499,"Delta":57518800},{"NoteNumber":57,"Velocity":39,"Duration":235904,"SoundDuration":235904,"Delta":57750299},{"NoteNumber":55,"Velocity":41,"Duration":232359,"SoundDuration":232359,"Delta":57986204},{"NoteNumber":57,"Velocity":37,"Duration":236817,"SoundDuration":236817,"Delta":58218564},{"NoteNumber":55,"Velocity":37,"Duration":235904,"SoundDuration":235904,"Delta":58455381},{"NoteNumber":53,"Velocity":34,"Duration":235904,"SoundDuration":235904,"Delta":58691285},{"NoteNumber":77,"Velocity":49,"Duration":1411546,"SoundDuration":1411546,"Delta":58927190},{"NoteNumber":89,"Velocity":56,"Duration":1411546,"SoundDuration":1411546,"Delta":58927190},{"NoteNumber":82,"Velocity":49,"Duration":1411546,"SoundDuration":1411546,"Delta":58927190},{"NoteNumber":51,"Velocity":41,"Duration":232359,"SoundDuration":232359,"Delta":58927190},{"NoteNumber":50,"Velocity":37,"Duration":235904,"SoundDuration":235904,"Delta":59159550},{"NoteNumber":48,"Velocity":40,"Duration":233688,"SoundDuration":233688,"Delta":59395454},{"NoteNumber":50,"Velocity":36,"Duration":239558,"SoundDuration":239558,"Delta":59629143},{"NoteNumber":48,"Velocity":36,"Duration":235017,"SoundDuration":235017,"Delta":59868702},{"NoteNumber":46,"Velocity":33,"Duration":235017,"SoundDuration":235017,"Delta":60103719},{"NoteNumber":96,"Velocity":55,"Duration":1915576,"SoundDuration":1915576,"Delta":60338737},{"NoteNumber":89,"Velocity":49,"Duration":1915576,"SoundDuration":1915576,"Delta":60338737},{"NoteNumber":84,"Velocity":49,"Duration":1915576,"SoundDuration":1915576,"Delta":60338737},{"NoteNumber":46,"Velocity":40,"Duration":232359,"SoundDuration":232359,"Delta":60338737},{"NoteNumber":45,"Velocity":36,"Duration":236817,"SoundDuration":236817,"Delta":60571097},{"NoteNumber":43,"Velocity":39,"Duration":233244,"SoundDuration":233244,"Delta":60807914},{"NoteNumber":45,"Velocity":35,"Duration":239558,"SoundDuration":239558,"Delta":61041159},{"NoteNumber":43,"Velocity":35,"Duration":239558,"SoundDuration":239558,"Delta":61280718},{"NoteNumber":41,"Velocity":31,"Duration":239558,"SoundDuration":239558,"Delta":61520277},{"NoteNumber":41,"Velocity":34,"Duration":494478,"SoundDuration":494478,"Delta":61759836},{"NoteNumber":29,"Velocity":20,"Duration":247239,"SoundDuration":247239,"Delta":62254314},{"NoteNumber":29,"Velocity":19,"Duration":250229,"SoundDuration":250229,"Delta":62748792},{"NoteNumber":29,"Velocity":19,"Duration":250229,"SoundDuration":250229,"Delta":63249251},{"NoteNumber":37,"Velocity":38,"Duration":2880412,"SoundDuration":2880412,"Delta":64717560},{"NoteNumber":58,"Velocity":45,"Duration":479117,"SoundDuration":479117,"Delta":65205802},{"NoteNumber":63,"Velocity":50,"Duration":479117,"SoundDuration":479117,"Delta":65205802},{"NoteNumber":42,"Velocity":40,"Duration":479117,"SoundDuration":479117,"Delta":65205802},{"NoteNumber":60,"Velocity":48,"Duration":473783,"SoundDuration":473783,"Delta":65684920},{"NoteNumber":65,"Velocity":53,"Duration":473783,"SoundDuration":473783,"Delta":65684920},{"NoteNumber":44,"Velocity":44,"Duration":473783,"SoundDuration":473783,"Delta":65684920},{"NoteNumber":61,"Velocity":50,"Duration":473784,"SoundDuration":473784,"Delta":66158704},{"NoteNumber":65,"Velocity":57,"Duration":473784,"SoundDuration":473784,"Delta":66158704},{"NoteNumber":46,"Velocity":46,"Duration":473784,"SoundDuration":473784,"Delta":66158704},{"NoteNumber":58,"Velocity":44,"Duration":482742,"SoundDuration":482742,"Delta":66632488},{"NoteNumber":68,"Velocity":49,"Duration":482742,"SoundDuration":482742,"Delta":66632488},{"NoteNumber":53,"Velocity":42,"Duration":482742,"SoundDuration":482742,"Delta":66632488},{"NoteNumber":61,"Velocity":42,"Duration":482742,"SoundDuration":482742,"Delta":67115230},{"NoteNumber":65,"Velocity":48,"Duration":482742,"SoundDuration":482742,"Delta":67115230},{"NoteNumber":46,"Velocity":38,"Duration":482742,"SoundDuration":482742,"Delta":67115230},{"NoteNumber":37,"Velocity":38,"Duration":2880412,"SoundDuration":2880412,"Delta":67597972},{"NoteNumber":58,"Velocity":45,"Duration":479117,"SoundDuration":479117,"Delta":68086214},{"NoteNumber":63,"Velocity":50,"Duration":479117,"SoundDuration":479117,"Delta":68086214},{"NoteNumber":42,"Velocity":40,"Duration":479117,"SoundDuration":479117,"Delta":68086214},{"NoteNumber":60,"Velocity":48,"Duration":473783,"SoundDuration":473783,"Delta":68565332},{"NoteNumber":65,"Velocity":53,"Duration":473783,"SoundDuration":473783,"Delta":68565332},{"NoteNumber":44,"Velocity":44,"Duration":473783,"SoundDuration":473783,"Delta":68565332},{"NoteNumber":61,"Velocity":50,"Duration":473784,"SoundDuration":473784,"Delta":69039116},{"NoteNumber":65,"Velocity":57,"Duration":473784,"SoundDuration":473784,"Delta":69039116},{"NoteNumber":46,"Velocity":46,"Duration":473784,"SoundDuration":473784,"Delta":69039116},{"NoteNumber":58,"Velocity":44,"Duration":482742,"SoundDuration":482742,"Delta":69512900},{"NoteNumber":68,"Velocity":49,"Duration":482742,"SoundDuration":482742,"Delta":69512900},{"NoteNumber":53,"Velocity":42,"Duration":482742,"SoundDuration":482742,"Delta":69512900},{"NoteNumber":65,"Velocity":42,"Duration":482742,"SoundDuration":482742,"Delta":69995642},{"NoteNumber":70,"Velocity":48,"Duration":482742,"SoundDuration":482742,"Delta":69995642},{"NoteNumber":49,"Velocity":38,"Duration":482742,"SoundDuration":482742,"Delta":69995642},{"NoteNumber":37,"Velocity":41,"Duration":2829693,"SoundDuration":2829693,"Delta":70478384},{"NoteNumber":63,"Velocity":49,"Duration":471549,"SoundDuration":471549,"Delta":70958961},{"NoteNumber":68,"Velocity":55,"Duration":471549,"SoundDuration":471549,"Delta":70958961},{"NoteNumber":47,"Velocity":44,"Duration":471549,"SoundDuration":471549,"Delta":70958961},{"NoteNumber":65,"Velocity":52,"Duration":466308,"SoundDuration":466308,"Delta":71430511},{"NoteNumber":70,"Velocity":58,"Duration":466308,"SoundDuration":466308,"Delta":71430511},{"NoteNumber":49,"Velocity":48,"Duration":466308,"SoundDuration":466308,"Delta":71430511},{"NoteNumber":66,"Velocity":55,"Duration":466309,"SoundDuration":466309,"Delta":71896820},{"NoteNumber":70,"Velocity":62,"Duration":466309,"SoundDuration":466309,"Delta":71896820},{"NoteNumber":51,"Velocity":50,"Duration":466309,"SoundDuration":466309,"Delta":71896820},{"NoteNumber":63,"Velocity":48,"Duration":475134,"SoundDuration":475134,"Delta":72363129},{"NoteNumber":73,"Velocity":53,"Duration":475134,"SoundDuration":475134,"Delta":72363129},{"NoteNumber":58,"Velocity":46,"Duration":475134,"SoundDuration":475134,"Delta":72363129},{"NoteNumber":66,"Velocity":46,"Duration":469813,"SoundDuration":469813,"Delta":72838264},{"NoteNumber":70,"Velocity":52,"Duration":469813,"SoundDuration":469813,"Delta":72838264},{"NoteNumber":51,"Velocity":41,"Duration":469813,"SoundDuration":469813,"Delta":72838264},{"NoteNumber":63,"Velocity":49,"Duration":466308,"SoundDuration":466308,"Delta":73308078},{"NoteNumber":68,"Velocity":55,"Duration":466308,"SoundDuration":466308,"Delta":73308078},{"NoteNumber":37,"Velocity":44,"Duration":939644,"SoundDuration":939644,"Delta":73308078},{"NoteNumber":48,"Velocity":44,"Duration":466308,"SoundDuration":466308,"Delta":73308078},{"NoteNumber":58,"Velocity":42,"Duration":473335,"SoundDuration":473335,"Delta":73774387},{"NoteNumber":65,"Velocity":48,"Duration":473335,"SoundDuration":473335,"Delta":73774387},{"NoteNumber":49,"Velocity":38,"Duration":473335,"SoundDuration":473335,"Delta":73774387},{"NoteNumber":63,"Velocity":48,"Duration":464612,"SoundDuration":464612,"Delta":74247722},{"NoteNumber":68,"Velocity":55,"Duration":464612,"SoundDuration":464612,"Delta":74247722},{"NoteNumber":37,"Velocity":42,"Duration":936161,"SoundDuration":936161,"Delta":74247722},{"NoteNumber":48,"Velocity":42,"Duration":464612,"SoundDuration":464612,"Delta":74247722},{"NoteNumber":61,"Velocity":44,"Duration":471549,"SoundDuration":471549,"Delta":74712334},{"NoteNumber":65,"Velocity":49,"Duration":471549,"SoundDuration":471549,"Delta":74712334},{"NoteNumber":46,"Velocity":37,"Duration":471549,"SoundDuration":471549,"Delta":74712334},{"NoteNumber":58,"Velocity":47,"Duration":466308,"SoundDuration":466308,"Delta":75183884},{"NoteNumber":66,"Velocity":52,"Duration":466308,"SoundDuration":466308,"Delta":75183884},{"NoteNumber":37,"Velocity":41,"Duration":937858,"SoundDuration":937858,"Delta":75183884},{"NoteNumber":51,"Velocity":41,"Duration":466308,"SoundDuration":466308,"Delta":75183884},{"NoteNumber":60,"Velocity":42,"Duration":471549,"SoundDuration":471549,"Delta":75650193},{"NoteNumber":63,"Velocity":48,"Duration":471549,"SoundDuration":471549,"Delta":75650193},{"NoteNumber":44,"Velocity":41,"Duration":471549,"SoundDuration":471549,"Delta":75650193},{"NoteNumber":37,"Velocity":38,"Duration":2731391,"SoundDuration":2731391,"Delta":76121743},{"NoteNumber":58,"Velocity":50,"Duration":451332,"SoundDuration":451332,"Delta":76588052},{"NoteNumber":42,"Velocity":40,"Duration":451332,"SoundDuration":451332,"Delta":76588052},{"NoteNumber":63,"Velocity":39,"Duration":228084,"SoundDuration":228084,"Delta":76811300},{"NoteNumber":60,"Velocity":53,"Duration":446545,"SoundDuration":446545,"Delta":77039385},{"NoteNumber":44,"Velocity":44,"Duration":446545,"SoundDuration":446545,"Delta":77039385},{"NoteNumber":65,"Velocity":41,"Duration":225648,"SoundDuration":225648,"Delta":77260282},{"NoteNumber":61,"Velocity":55,"Duration":909309,"SoundDuration":909309,"Delta":77485930},{"NoteNumber":46,"Velocity":46,"Duration":452214,"SoundDuration":452214,"Delta":77485930},{"NoteNumber":65,"Velocity":42,"Duration":229761,"SoundDuration":229761,"Delta":77708383},{"NoteNumber":58,"Velocity":49,"Duration":225648,"SoundDuration":225648,"Delta":77938145},{"NoteNumber":53,"Velocity":42,"Duration":457094,"SoundDuration":457094,"Delta":77938145},{"NoteNumber":68,"Velocity":37,"Duration":231446,"SoundDuration":231446,"Delta":78163794},{"NoteNumber":61,"Velocity":47,"Duration":457895,"SoundDuration":457895,"Delta":78395240},{"NoteNumber":46,"Velocity":38,"Duration":457895,"SoundDuration":457895,"Delta":78395240},{"NoteNumber":65,"Velocity":35,"Duration":231446,"SoundDuration":231446,"Delta":78621689},{"NoteNumber":37,"Velocity":34,"Duration":2726384,"SoundDuration":2726384,"Delta":78853135},{"NoteNumber":58,"Velocity":45,"Duration":452115,"SoundDuration":452115,"Delta":79319444},{"NoteNumber":42,"Velocity":36,"Duration":452115,"SoundDuration":452115,"Delta":79319444},{"NoteNumber":63,"Velocity":35,"Duration":228084,"SoundDuration":228084,"Delta":79543475},{"NoteNumber":60,"Velocity":48,"Duration":448101,"SoundDuration":448101,"Delta":79771560},{"NoteNumber":44,"Velocity":39,"Duration":448101,"SoundDuration":448101,"Delta":79771560},{"NoteNumber":65,"Velocity":37,"Duration":225648,"SoundDuration":225648,"Delta":79994013},{"NoteNumber":61,"Velocity":49,"Duration":903574,"SoundDuration":903574,"Delta":80219662},{"NoteNumber":46,"Velocity":40,"Duration":449817,"SoundDuration":449817,"Delta":80219662},{"NoteNumber":65,"Velocity":38,"Duration":228920,"SoundDuration":228920,"Delta":80440559},{"NoteNumber":58,"Velocity":44,"Duration":224836,"SoundDuration":224836,"Delta":80669479},{"NoteNumber":53,"Velocity":38,"Duration":453757,"SoundDuration":453757,"Delta":80669479},{"NoteNumber":68,"Velocity":33,"Duration":228920,"SoundDuration":228920,"Delta":80894316},{"NoteNumber":65,"Velocity":41,"Duration":456282,"SoundDuration":456282,"Delta":81123237},{"NoteNumber":49,"Velocity":34,"Duration":456282,"SoundDuration":456282,"Delta":81123237},{"NoteNumber":70,"Velocity":30,"Duration":231446,"SoundDuration":231446,"Delta":81348074},{"NoteNumber":36,"Velocity":41,"Duration":2717414,"SoundDuration":2717414,"Delta":81579520},{"NoteNumber":62,"Velocity":49,"Duration":456170,"SoundDuration":456170,"Delta":82045829},{"NoteNumber":67,"Velocity":55,"Duration":456170,"SoundDuration":456170,"Delta":82045829},{"NoteNumber":58,"Velocity":50,"Duration":456170,"SoundDuration":456170,"Delta":82045829},{"NoteNumber":64,"Velocity":52,"Duration":448061,"SoundDuration":448061,"Delta":82501999},{"NoteNumber":69,"Velocity":58,"Duration":448061,"SoundDuration":448061,"Delta":82501999},{"NoteNumber":60,"Velocity":55,"Duration":448061,"SoundDuration":448061,"Delta":82501999},{"NoteNumber":65,"Velocity":55,"Duration":443327,"SoundDuration":443327,"Delta":82950061},{"NoteNumber":69,"Velocity":62,"Duration":443327,"SoundDuration":443327,"Delta":82950061},{"NoteNumber":62,"Velocity":57,"Duration":895100,"SoundDuration":895100,"Delta":82950061},{"NoteNumber":65,"Velocity":48,"Duration":451773,"SoundDuration":451773,"Delta":83393389},{"NoteNumber":72,"Velocity":53,"Duration":451773,"SoundDuration":451773,"Delta":83393389},{"NoteNumber":57,"Velocity":46,"Duration":451773,"SoundDuration":451773,"Delta":83393389},{"NoteNumber":65,"Velocity":46,"Duration":451773,"SoundDuration":451773,"Delta":83845162},{"NoteNumber":69,"Velocity":52,"Duration":451773,"SoundDuration":451773,"Delta":83845162},{"NoteNumber":60,"Velocity":41,"Duration":451773,"SoundDuration":451773,"Delta":83845162},{"NoteNumber":36,"Velocity":41,"Duration":2653516,"SoundDuration":2653516,"Delta":84296935},{"NoteNumber":62,"Velocity":55,"Duration":439497,"SoundDuration":439497,"Delta":84754776},{"NoteNumber":58,"Velocity":50,"Duration":439497,"SoundDuration":439497,"Delta":84754776},{"NoteNumber":67,"Velocity":44,"Duration":221664,"SoundDuration":221664,"Delta":84972609},{"NoteNumber":64,"Velocity":57,"Duration":435713,"SoundDuration":435713,"Delta":85194273},{"NoteNumber":60,"Velocity":55,"Duration":435713,"SoundDuration":435713,"Delta":85194273},{"NoteNumber":69,"Velocity":45,"Duration":220118,"SoundDuration":220118,"Delta":85409868},{"NoteNumber":65,"Velocity":60,"Duration":436491,"SoundDuration":436491,"Delta":85629987},{"NoteNumber":62,"Velocity":55,"Duration":875231,"SoundDuration":875231,"Delta":85629987},{"NoteNumber":69,"Velocity":47,"Duration":220896,"SoundDuration":220896,"Delta":85845581},{"NoteNumber":65,"Velocity":57,"Duration":438740,"SoundDuration":438740,"Delta":86066478},{"NoteNumber":57,"Velocity":46,"Duration":438740,"SoundDuration":438740,"Delta":86066478},{"NoteNumber":72,"Velocity":45,"Duration":221664,"SoundDuration":221664,"Delta":86283555},{"NoteNumber":69,"Velocity":53,"Duration":445233,"SoundDuration":445233,"Delta":86505219},{"NoteNumber":60,"Velocity":41,"Duration":445233,"SoundDuration":445233,"Delta":86505219},{"NoteNumber":74,"Velocity":42,"Duration":225886,"SoundDuration":225886,"Delta":86724565},{"NoteNumber":36,"Velocity":38,"Duration":3132252,"SoundDuration":3132252,"Delta":86950452},{"NoteNumber":84,"Velocity":51,"Duration":442706,"SoundDuration":442706,"Delta":87403180},{"NoteNumber":79,"Velocity":45,"Duration":442706,"SoundDuration":442706,"Delta":87403180},{"NoteNumber":64,"Velocity":41,"Duration":442706,"SoundDuration":442706,"Delta":87403180},{"NoteNumber":74,"Velocity":39,"Duration":449336,"SoundDuration":449336,"Delta":87845886},{"NoteNumber":81,"Velocity":44,"Duration":449336,"SoundDuration":449336,"Delta":87845886},{"NoteNumber":65,"Velocity":36,"Duration":449336,"SoundDuration":449336,"Delta":87845886},{"NoteNumber":84,"Velocity":51,"Duration":442706,"SoundDuration":442706,"Delta":88295223},{"NoteNumber":79,"Velocity":45,"Duration":442706,"SoundDuration":442706,"Delta":88295223},{"NoteNumber":64,"Velocity":41,"Duration":442706,"SoundDuration":442706,"Delta":88295223},{"NoteNumber":77,"Velocity":39,"Duration":449336,"SoundDuration":449336,"Delta":88737929},{"NoteNumber":81,"Velocity":44,"Duration":449336,"SoundDuration":449336,"Delta":88737929},{"NoteNumber":62,"Velocity":34,"Duration":449336,"SoundDuration":449336,"Delta":88737929},{"NoteNumber":74,"Velocity":45,"Duration":444378,"SoundDuration":444378,"Delta":89187266},{"NoteNumber":82,"Velocity":51,"Duration":444378,"SoundDuration":444378,"Delta":89187266},{"NoteNumber":67,"Velocity":41,"Duration":444378,"SoundDuration":444378,"Delta":89187266},{"NoteNumber":76,"Velocity":37,"Duration":451059,"SoundDuration":451059,"Delta":89631645},{"NoteNumber":79,"Velocity":41,"Duration":451059,"SoundDuration":451059,"Delta":89631645},{"NoteNumber":60,"Velocity":36,"Duration":451059,"SoundDuration":451059,"Delta":89631645},{"NoteNumber":72,"Velocity":51,"Duration":442706,"SoundDuration":442706,"Delta":90082705},{"NoteNumber":67,"Velocity":45,"Duration":442706,"SoundDuration":442706,"Delta":90082705},{"NoteNumber":52,"Velocity":41,"Duration":442706,"SoundDuration":442706,"Delta":90082705},{"NoteNumber":62,"Velocity":39,"Duration":449336,"SoundDuration":449336,"Delta":90525411},{"NoteNumber":69,"Velocity":44,"Duration":449336,"SoundDuration":449336,"Delta":90525411},{"NoteNumber":53,"Velocity":36,"Duration":449336,"SoundDuration":449336,"Delta":90525411},{"NoteNumber":72,"Velocity":51,"Duration":442706,"SoundDuration":442706,"Delta":90974748},{"NoteNumber":67,"Velocity":45,"Duration":442706,"SoundDuration":442706,"Delta":90974748},{"NoteNumber":52,"Velocity":41,"Duration":442706,"SoundDuration":442706,"Delta":90974748},{"NoteNumber":65,"Velocity":39,"Duration":449336,"SoundDuration":449336,"Delta":91417454},{"NoteNumber":69,"Velocity":44,"Duration":449336,"SoundDuration":449336,"Delta":91417454},{"NoteNumber":50,"Velocity":34,"Duration":449336,"SoundDuration":449336,"Delta":91417454},{"NoteNumber":62,"Velocity":45,"Duration":444378,"SoundDuration":444378,"Delta":91866791},{"NoteNumber":70,"Velocity":51,"Duration":444378,"SoundDuration":444378,"Delta":91866791},{"NoteNumber":55,"Velocity":41,"Duration":444378,"SoundDuration":444378,"Delta":91866791},{"NoteNumber":64,"Velocity":37,"Duration":451059,"SoundDuration":451059,"Delta":92311170},{"NoteNumber":67,"Velocity":41,"Duration":451059,"SoundDuration":451059,"Delta":92311170},{"NoteNumber":48,"Velocity":36,"Duration":451059,"SoundDuration":451059,"Delta":92311170},{"NoteNumber":60,"Velocity":48,"Duration":902119,"SoundDuration":902119,"Delta":92762230},{"NoteNumber":69,"Velocity":51,"Duration":902119,"SoundDuration":902119,"Delta":92762230},{"NoteNumber":45,"Velocity":41,"Duration":902119,"SoundDuration":902119,"Delta":92762230},{"NoteNumber":62,"Velocity":40,"Duration":481849,"SoundDuration":481849,"Delta":93664350},{"NoteNumber":65,"Velocity":44,"Duration":481849,"SoundDuration":481849,"Delta":93664350},{"NoteNumber":46,"Velocity":36,"Duration":481849,"SoundDuration":481849,"Delta":93664350},{"NoteNumber":58,"Velocity":48,"Duration":925783,"SoundDuration":925783,"Delta":94146200},{"NoteNumber":67,"Velocity":51,"Duration":925783,"SoundDuration":925783,"Delta":94146200},{"NoteNumber":43,"Velocity":41,"Duration":925783,"SoundDuration":925783,"Delta":94146200},{"NoteNumber":58,"Velocity":40,"Duration":1511701,"SoundDuration":1511701,"Delta":95071984},{"NoteNumber":67,"Velocity":44,"Duration":1511701,"SoundDuration":1511701,"Delta":95071984},{"NoteNumber":48,"Velocity":36,"Duration":2665576,"SoundDuration":2665576,"Delta":95071984},{"NoteNumber":62,"Velocity":42,"Duration":510901,"SoundDuration":510901,"Delta":95590119},{"NoteNumber":64,"Velocity":42,"Duration":525064,"SoundDuration":525064,"Delta":96080035},{"NoteNumber":65,"Velocity":45,"Duration":539636,"SoundDuration":539636,"Delta":96583686},{"NoteNumber":64,"Velocity":39,"Duration":336222,"SoundDuration":336222,"Delta":97097605},{"NoteNumber":62,"Velocity":30,"Duration":376188,"SoundDuration":376188,"Delta":97406215},{"NoteNumber":64,"Velocity":33,"Duration":1076233,"SoundDuration":1076233,"Delta":97737560},{"NoteNumber":57,"Velocity":48,"Duration":1396023,"SoundDuration":1396023,"Delta":98813793},{"NoteNumber":64,"Velocity":55,"Duration":359387,"SoundDuration":359387,"Delta":98813793},{"NoteNumber":48,"Velocity":48,"Duration":932321,"SoundDuration":932321,"Delta":98813793},{"NoteNumber":41,"Velocity":44,"Duration":1396023,"SoundDuration":1396023,"Delta":98813793},{"NoteNumber":65,"Velocity":51,"Duration":123122,"SoundDuration":123122,"Delta":99173181},{"NoteNumber":69,"Velocity":55,"Duration":148964,"SoundDuration":148964,"Delta":99296303},{"NoteNumber":67,"Velocity":51,"Duration":149936,"SoundDuration":149936,"Delta":99445268},{"NoteNumber":65,"Velocity":51,"Duration":150909,"SoundDuration":150909,"Delta":99595205},{"NoteNumber":64,"Velocity":53,"Duration":230202,"SoundDuration":230202,"Delta":99746114},{"NoteNumber":49,"Velocity":45,"Duration":463701,"SoundDuration":463701,"Delta":99746114},{"NoteNumber":65,"Velocity":52,"Duration":233499,"SoundDuration":233499,"Delta":99976317},{"NoteNumber":57,"Velocity":48,"Duration":1389692,"SoundDuration":1389692,"Delta":100209816},{"NoteNumber":62,"Velocity":52,"Duration":355422,"SoundDuration":355422,"Delta":100209816},{"NoteNumber":50,"Velocity":48,"Duration":924684,"SoundDuration":924684,"Delta":100209816},{"NoteNumber":41,"Velocity":44,"Duration":1389692,"SoundDuration":1389692,"Delta":100209816},{"NoteNumber":69,"Velocity":58,"Duration":915796,"SoundDuration":915796,"Delta":100683712},{"NoteNumber":49,"Velocity":39,"Duration":465007,"SoundDuration":465007,"Delta":101134501},{"NoteNumber":55,"Velocity":48,"Duration":1399573,"SoundDuration":1399573,"Delta":101599509},{"NoteNumber":62,"Velocity":55,"Duration":352526,"SoundDuration":352526,"Delta":101599509},{"NoteNumber":50,"Velocity":48,"Duration":473718,"SoundDuration":473718,"Delta":101599509},{"NoteNumber":46,"Velocity":44,"Duration":1399573,"SoundDuration":1399573,"Delta":101599509},{"NoteNumber":64,"Velocity":50,"Duration":121192,"SoundDuration":121192,"Delta":101952036},{"NoteNumber":67,"Velocity":55,"Duration":149610,"SoundDuration":149610,"Delta":102073228},{"NoteNumber":52,"Velocity":48,"Duration":1392853,"SoundDuration":1392853,"Delta":102073228},{"NoteNumber":65,"Velocity":51,"Duration":150260,"SoundDuration":150260,"Delta":102222839},{"NoteNumber":64,"Velocity":51,"Duration":150909,"SoundDuration":150909,"Delta":102373099},{"NoteNumber":62,"Velocity":55,"Duration":234631,"SoundDuration":234631,"Delta":102524009},{"NoteNumber":64,"Velocity":52,"Duration":240442,"SoundDuration":240442,"Delta":102758640},{"NoteNumber":62,"Velocity":51,"Duration":233499,"SoundDuration":233499,"Delta":102999083},{"NoteNumber":64,"Velocity":55,"Duration":1403646,"SoundDuration":1403646,"Delta":102999083},{"NoteNumber":45,"Velocity":44,"Duration":928896,"SoundDuration":928896,"Delta":102999083},{"NoteNumber":61,"Velocity":44,"Duration":233499,"SoundDuration":233499,"Delta":103232582},{"NoteNumber":59,"Velocity":47,"Duration":229393,"SoundDuration":229393,"Delta":103466082},{"NoteNumber":55,"Velocity":45,"Duration":461897,"SoundDuration":461897,"Delta":103466082},{"NoteNumber":61,"Velocity":42,"Duration":232504,"SoundDuration":232504,"Delta":103695475},{"NoteNumber":59,"Velocity":47,"Duration":233553,"SoundDuration":233553,"Delta":103927979},{"NoteNumber":45,"Velocity":45,"Duration":474750,"SoundDuration":474750,"Delta":103927979},{"NoteNumber":57,"Velocity":42,"Duration":241196,"SoundDuration":241196,"Delta":104161533},{"NoteNumber":57,"Velocity":48,"Duration":1390492,"SoundDuration":1390492,"Delta":104402729},{"NoteNumber":64,"Velocity":55,"Duration":353856,"SoundDuration":353856,"Delta":104402729},{"NoteNumber":48,"Velocity":48,"Duration":926790,"SoundDuration":926790,"Delta":104402729},{"NoteNumber":41,"Velocity":44,"Duration":1390492,"SoundDuration":1390492,"Delta":104402729},{"NoteNumber":65,"Velocity":51,"Duration":123122,"SoundDuration":123122,"Delta":104756586},{"NoteNumber":69,"Velocity":55,"Duration":148964,"SoundDuration":148964,"Delta":104879708},{"NoteNumber":67,"Velocity":51,"Duration":149936,"SoundDuration":149936,"Delta":105028673},{"NoteNumber":65,"Velocity":51,"Duration":150909,"SoundDuration":150909,"Delta":105178610},{"NoteNumber":64,"Velocity":53,"Duration":230202,"SoundDuration":230202,"Delta":105329519},{"NoteNumber":49,"Velocity":45,"Duration":463701,"SoundDuration":463701,"Delta":105329519},{"NoteNumber":65,"Velocity":52,"Duration":233499,"SoundDuration":233499,"Delta":105559722},{"NoteNumber":57,"Velocity":48,"Duration":1381936,"SoundDuration":1381936,"Delta":105793221},{"NoteNumber":62,"Velocity":52,"Duration":352526,"SoundDuration":352526,"Delta":105793221},{"NoteNumber":50,"Velocity":48,"Duration":916928,"SoundDuration":916928,"Delta":105793221},{"NoteNumber":41,"Velocity":44,"Duration":1381936,"SoundDuration":1381936,"Delta":105793221},{"NoteNumber":69,"Velocity":57,"Duration":911901,"SoundDuration":911901,"Delta":106263256},{"NoteNumber":52,"Velocity":39,"Duration":465007,"SoundDuration":465007,"Delta":106710150},{"NoteNumber":62,"Velocity":50,"Duration":1857535,"SoundDuration":1857535,"Delta":107175158},{"NoteNumber":69,"Velocity":57,"Duration":353856,"SoundDuration":353856,"Delta":107175158},{"NoteNumber":53,"Velocity":47,"Duration":475531,"SoundDuration":475531,"Delta":107175158},{"NoteNumber":71,"Velocity":52,"Duration":121674,"SoundDuration":121674,"Delta":107529015},{"NoteNumber":74,"Velocity":57,"Duration":152022,"SoundDuration":152022,"Delta":107650689},{"NoteNumber":55,"Velocity":53,"Duration":456066,"SoundDuration":456066,"Delta":107650689},{"NoteNumber":72,"Velocity":53,"Duration":152022,"SoundDuration":152022,"Delta":107802711},{"NoteNumber":71,"Velocity":53,"Duration":152022,"SoundDuration":152022,"Delta":107954733},{"NoteNumber":69,"Velocity":57,"Duration":231463,"SoundDuration":231463,"Delta":108106755},{"NoteNumber":53,"Velocity":50,"Duration":466058,"SoundDuration":466058,"Delta":108106755},{"NoteNumber":71,"Velocity":55,"Duration":234594,"SoundDuration":234594,"Delta":108338219},{"NoteNumber":67,"Velocity":57,"Duration":227376,"SoundDuration":227376,"Delta":108572814},{"NoteNumber":52,"Velocity":44,"Duration":459880,"SoundDuration":459880,"Delta":108572814},{"NoteNumber":69,"Velocity":51,"Duration":232504,"SoundDuration":232504,"Delta":108800190},{"NoteNumber":60,"Velocity":47,"Duration":939976,"SoundDuration":939976,"Delta":109032694},{"NoteNumber":67,"Velocity":59,"Duration":228380,"SoundDuration":228380,"Delta":109032694},{"NoteNumber":57,"Velocity":51,"Duration":462975,"SoundDuration":462975,"Delta":109032694},{"NoteNumber":69,"Velocity":53,"Duration":234594,"SoundDuration":234594,"Delta":109261074},{"NoteNumber":71,"Velocity":59,"Duration":233553,"SoundDuration":233553,"Delta":109495669},{"NoteNumber":55,"Velocity":47,"Duration":477001,"SoundDuration":477001,"Delta":109495669},{"NoteNumber":72,"Velocity":55,"Duration":243447,"SoundDuration":243447,"Delta":109729223},{"NoteNumber":59,"Velocity":50,"Duration":924200,"SoundDuration":924200,"Delta":109972670},{"NoteNumber":65,"Velocity":57,"Duration":347195,"SoundDuration":347195,"Delta":109972670},{"NoteNumber":50,"Velocity":47,"Duration":464703,"SoundDuration":464703,"Delta":109972670},{"NoteNumber":67,"Velocity":52,"Duration":117508,"SoundDuration":117508,"Delta":110319865},{"NoteNumber":71,"Velocity":57,"Duration":152022,"SoundDuration":152022,"Delta":110437374},{"NoteNumber":55,"Velocity":53,"Duration":459496,"SoundDuration":459496,"Delta":110437374},{"NoteNumber":69,"Velocity":53,"Duration":153165,"SoundDuration":153165,"Delta":110589396},{"NoteNumber":67,"Velocity":53,"Duration":154308,"SoundDuration":154308,"Delta":110742561},{"NoteNumber":59,"Velocity":48,"Duration":485883,"SoundDuration":485883,"Delta":110896870},{"NoteNumber":65,"Velocity":57,"Duration":240102,"SoundDuration":240102,"Delta":110896870},{"NoteNumber":50,"Velocity":47,"Duration":966037,"SoundDuration":966037,"Delta":110896870},{"NoteNumber":67,"Velocity":55,"Duration":245780,"SoundDuration":245780,"Delta":111136973},{"NoteNumber":59,"Velocity":50,"Duration":969391,"SoundDuration":969391,"Delta":111382754},{"NoteNumber":64,"Velocity":57,"Duration":1458628,"SoundDuration":1458628,"Delta":111382754},{"NoteNumber":56,"Velocity":50,"Duration":969391,"SoundDuration":969391,"Delta":111382754},{"NoteNumber":50,"Velocity":47,"Duration":489237,"SoundDuration":489237,"Delta":111862908},{"NoteNumber":48,"Velocity":38,"Duration":489237,"SoundDuration":489237,"Delta":112352145},{"NoteNumber":57,"Velocity":45,"Duration":489237,"SoundDuration":489237,"Delta":112352145},{"NoteNumber":53,"Velocity":45,"Duration":1402867,"SoundDuration":1402867,"Delta":112841382},{"NoteNumber":57,"Velocity":57,"Duration":351178,"SoundDuration":351178,"Delta":112841382},{"NoteNumber":59,"Velocity":53,"Duration":121192,"SoundDuration":121192,"Delta":113192560},{"NoteNumber":69,"Velocity":47,"Duration":1837405,"SoundDuration":1837405,"Delta":113313753},{"NoteNumber":74,"Velocity":62,"Duration":455422,"SoundDuration":455422,"Delta":113313753},{"NoteNumber":62,"Velocity":56,"Duration":150943,"SoundDuration":150943,"Delta":113313753},{"NoteNumber":60,"Velocity":55,"Duration":151807,"SoundDuration":151807,"Delta":113464696},{"NoteNumber":59,"Velocity":55,"Duration":152671,"SoundDuration":152671,"Delta":113616503},{"NoteNumber":81,"Velocity":67,"Duration":930830,"SoundDuration":930830,"Delta":113769175},{"NoteNumber":57,"Velocity":57,"Duration":234631,"SoundDuration":234631,"Delta":113769175},{"NoteNumber":59,"Velocity":56,"Duration":240442,"SoundDuration":240442,"Delta":114003807},{"NoteNumber":52,"Velocity":41,"Duration":1383910,"SoundDuration":1383910,"Delta":114244249},{"NoteNumber":55,"Velocity":55,"Duration":227376,"SoundDuration":227376,"Delta":114244249},{"NoteNumber":57,"Velocity":52,"Duration":228380,"SoundDuration":228380,"Delta":114471625},{"NoteNumber":72,"Velocity":60,"Duration":451153,"SoundDuration":451153,"Delta":114700005},{"NoteNumber":55,"Velocity":59,"Duration":223880,"SoundDuration":223880,"Delta":114700005},{"NoteNumber":57,"Velocity":55,"Duration":227272,"SoundDuration":227272,"Delta":114923886},{"NoteNumber":67,"Velocity":47,"Duration":477001,"SoundDuration":477001,"Delta":115151158},{"NoteNumber":79,"Velocity":62,"Duration":477001,"SoundDuration":477001,"Delta":115151158},{"NoteNumber":59,"Velocity":59,"Duration":233553,"SoundDuration":233553,"Delta":115151158},{"NoteNumber":60,"Velocity":51,"Duration":243447,"SoundDuration":243447,"Delta":115384712},{"NoteNumber":50,"Velocity":45,"Duration":913306,"SoundDuration":913306,"Delta":115628159},{"NoteNumber":53,"Velocity":57,"Duration":348539,"SoundDuration":348539,"Delta":115628159},{"NoteNumber":55,"Velocity":53,"Duration":116179,"SoundDuration":116179,"Delta":115976699},{"NoteNumber":71,"Velocity":48,"Duration":448586,"SoundDuration":448586,"Delta":116092879},{"NoteNumber":77,"Velocity":62,"Duration":448586,"SoundDuration":448586,"Delta":116092879},{"NoteNumber":59,"Velocity":59,"Duration":148148,"SoundDuration":148148,"Delta":116092879},{"NoteNumber":57,"Velocity":57,"Duration":149528,"SoundDuration":149528,"Delta":116241027},{"NoteNumber":55,"Velocity":57,"Duration":150909,"SoundDuration":150909,"Delta":116390556},{"NoteNumber":67,"Velocity":46,"Duration":457815,"SoundDuration":457815,"Delta":116541465},{"NoteNumber":79,"Velocity":60,"Duration":457815,"SoundDuration":457815,"Delta":116541465},{"NoteNumber":43,"Velocity":42,"Duration":478009,"SoundDuration":478009,"Delta":116541465},{"NoteNumber":53,"Velocity":59,"Duration":235682,"SoundDuration":235682,"Delta":116541465},{"NoteNumber":55,"Velocity":58,"Duration":242326,"SoundDuration":242326,"Delta":116777148},{"NoteNumber":67,"Velocity":48,"Duration":455808,"SoundDuration":455808,"Delta":117019474},{"NoteNumber":79,"Velocity":62,"Duration":455808,"SoundDuration":455808,"Delta":117019474},{"NoteNumber":48,"Velocity":45,"Duration":929439,"SoundDuration":929439,"Delta":117019474},{"NoteNumber":53,"Velocity":53,"Duration":225394,"SoundDuration":225394,"Delta":117019474},{"NoteNumber":52,"Velocity":51,"Duration":230414,"SoundDuration":230414,"Delta":117244869},{"NoteNumber":72,"Velocity":57,"Duration":473630,"SoundDuration":473630,"Delta":117475283},{"NoteNumber":50,"Velocity":55,"Duration":233553,"SoundDuration":233553,"Delta":117475283},{"NoteNumber":52,"Velocity":51,"Duration":240076,"SoundDuration":240076,"Delta":117708837},{"NoteNumber":50,"Velocity":47,"Duration":236761,"SoundDuration":236761,"Delta":117948914},{"NoteNumber":48,"Velocity":41,"Duration":236761,"SoundDuration":236761,"Delta":118185675},{"NoteNumber":53,"Velocity":69,"Duration":340151,"SoundDuration":340151,"Delta":118422436},{"NoteNumber":41,"Velocity":57,"Duration":340151,"SoundDuration":340151,"Delta":118422436},{"NoteNumber":55,"Velocity":63,"Duration":119832,"SoundDuration":119832,"Delta":118762587},{"NoteNumber":43,"Velocity":53,"Duration":119832,"SoundDuration":119832,"Delta":118762587},{"NoteNumber":58,"Velocity":69,"Duration":154265,"SoundDuration":154265,"Delta":118873346},{"NoteNumber":46,"Velocity":56,"Duration":154265,"SoundDuration":154265,"Delta":118873346},{"NoteNumber":56,"Velocity":64,"Duration":158237,"SoundDuration":158237,"Delta":119018536},{"NoteNumber":44,"Velocity":55,"Duration":158237,"SoundDuration":158237,"Delta":119018536},{"NoteNumber":55,"Velocity":64,"Duration":161940,"SoundDuration":161940,"Delta":119167258},{"NoteNumber":43,"Velocity":55,"Duration":161940,"SoundDuration":161940,"Delta":119167258},{"NoteNumber":53,"Velocity":69,"Duration":242460,"SoundDuration":242460,"Delta":119319512},{"NoteNumber":41,"Velocity":57,"Duration":242460,"SoundDuration":242460,"Delta":119319512},{"NoteNumber":55,"Velocity":66,"Duration":238948,"SoundDuration":238948,"Delta":119552016},{"NoteNumber":43,"Velocity":56,"Duration":238948,"SoundDuration":238948,"Delta":119552016},{"NoteNumber":68,"Velocity":59,"Duration":1374182,"SoundDuration":1374182,"Delta":119790964},{"NoteNumber":75,"Velocity":72,"Duration":343671,"SoundDuration":343671,"Delta":119790964},{"NoteNumber":39,"Velocity":55,"Duration":455880,"SoundDuration":455880,"Delta":119790964},{"NoteNumber":51,"Velocity":59,"Duration":455880,"SoundDuration":455880,"Delta":119790964},{"NoteNumber":77,"Velocity":66,"Duration":112208,"SoundDuration":112208,"Delta":120134636},{"NoteNumber":80,"Velocity":71,"Duration":147047,"SoundDuration":147047,"Delta":120246844},{"NoteNumber":48,"Velocity":55,"Duration":918302,"SoundDuration":918302,"Delta":120246844},{"NoteNumber":60,"Velocity":59,"Duration":918302,"SoundDuration":918302,"Delta":120246844},{"NoteNumber":79,"Velocity":69,"Duration":149316,"SoundDuration":149316,"Delta":120393892},{"NoteNumber":77,"Velocity":69,"Duration":151583,"SoundDuration":151583,"Delta":120543208},{"NoteNumber":75,"Velocity":71,"Duration":232504,"SoundDuration":232504,"Delta":120694792},{"NoteNumber":77,"Velocity":70,"Duration":237849,"SoundDuration":237849,"Delta":120927296},{"NoteNumber":67,"Velocity":55,"Duration":1373931,"SoundDuration":1373931,"Delta":121165146},{"NoteNumber":73,"Velocity":71,"Duration":341116,"SoundDuration":341116,"Delta":121165146},{"NoteNumber":46,"Velocity":55,"Duration":452839,"SoundDuration":452839,"Delta":121165146},{"NoteNumber":58,"Velocity":59,"Duration":452839,"SoundDuration":452839,"Delta":121165146},{"NoteNumber":75,"Velocity":66,"Duration":111723,"SoundDuration":111723,"Delta":121506263},{"NoteNumber":79,"Velocity":71,"Duration":146423,"SoundDuration":146423,"Delta":121617986},{"NoteNumber":39,"Velocity":55,"Duration":921091,"SoundDuration":921091,"Delta":121617986},{"NoteNumber":51,"Velocity":59,"Duration":921091,"SoundDuration":921091,"Delta":121617986},{"NoteNumber":77,"Velocity":69,"Duration":147694,"SoundDuration":147694,"Delta":121764410},{"NoteNumber":75,"Velocity":69,"Duration":148964,"SoundDuration":148964,"Delta":121912104},{"NoteNumber":73,"Velocity":71,"Duration":235682,"SoundDuration":235682,"Delta":122061069},{"NoteNumber":75,"Velocity":70,"Duration":242326,"SoundDuration":242326,"Delta":122296751},{"NoteNumber":60,"Velocity":55,"Duration":1413319,"SoundDuration":1413319,"Delta":122539078},{"NoteNumber":63,"Velocity":55,"Duration":1413319,"SoundDuration":1413319,"Delta":122539078},{"NoteNumber":72,"Velocity":61,"Duration":1413319,"SoundDuration":1413319,"Delta":122539078},{"NoteNumber":44,"Velocity":52,"Duration":1413319,"SoundDuration":1413319,"Delta":122539078},{"NoteNumber":51,"Velocity":59,"Duration":232504,"SoundDuration":232504,"Delta":122539078},{"NoteNumber":53,"Velocity":55,"Duration":240076,"SoundDuration":240076,"Delta":122771582},{"NoteNumber":51,"Velocity":56,"Duration":233553,"SoundDuration":233553,"Delta":123011659},{"NoteNumber":53,"Velocity":58,"Duration":240076,"SoundDuration":240076,"Delta":123245213},{"NoteNumber":55,"Velocity":61,"Duration":233553,"SoundDuration":233553,"Delta":123485290},{"NoteNumber":56,"Velocity":63,"Duration":175165,"SoundDuration":175165,"Delta":123718844},{"NoteNumber":43,"Velocity":64,"Duration":399016,"SoundDuration":399016,"Delta":123894009},{"NoteNumber":60,"Velocity":55,"Duration":1374708,"SoundDuration":1374708,"Delta":123952398},{"NoteNumber":64,"Velocity":55,"Duration":1374708,"SoundDuration":1374708,"Delta":123952398},{"NoteNumber":72,"Velocity":61,"Duration":1374708,"SoundDuration":1374708,"Delta":123952398},{"NoteNumber":58,"Velocity":63,"Duration":451862,"SoundDuration":451862,"Delta":123952398},{"NoteNumber":44,"Velocity":61,"Duration":111234,"SoundDuration":111234,"Delta":124293025},{"NoteNumber":48,"Velocity":64,"Duration":155575,"SoundDuration":155575,"Delta":124404260},{"NoteNumber":46,"Velocity":62,"Duration":158854,"SoundDuration":158854,"Delta":124550684},{"NoteNumber":44,"Velocity":62,"Duration":161940,"SoundDuration":161940,"Delta":124700022},{"NoteNumber":43,"Velocity":64,"Duration":242600,"SoundDuration":242600,"Delta":124852276},{"NoteNumber":44,"Velocity":63,"Duration":242326,"SoundDuration":242326,"Delta":125084780},{"NoteNumber":60,"Velocity":51,"Duration":1404673,"SoundDuration":1404673,"Delta":125327106},{"NoteNumber":65,"Velocity":51,"Duration":1404673,"SoundDuration":1404673,"Delta":125327106},{"NoteNumber":68,"Velocity":66,"Duration":231463,"SoundDuration":231463,"Delta":125327106},{"NoteNumber":41,"Velocity":59,"Duration":936449,"SoundDuration":936449,"Delta":125327106},{"NoteNumber":53,"Velocity":66,"Duration":936449,"SoundDuration":936449,"Delta":125327106},{"NoteNumber":70,"Velocity":61,"Duration":236761,"SoundDuration":236761,"Delta":125558570},{"NoteNumber":68,"Velocity":66,"Duration":231463,"SoundDuration":231463,"Delta":125795331},{"NoteNumber":70,"Velocity":62,"Duration":236761,"SoundDuration":236761,"Delta":126026794},{"NoteNumber":72,"Velocity":66,"Duration":231463,"SoundDuration":231463,"Delta":126263555},{"NoteNumber":39,"Velocity":51,"Duration":468224,"SoundDuration":468224,"Delta":126263555},{"NoteNumber":51,"Velocity":57,"Duration":468224,"SoundDuration":468224,"Delta":126263555},{"NoteNumber":73,"Velocity":62,"Duration":236761,"SoundDuration":236761,"Delta":126495019},{"NoteNumber":65,"Velocity":51,"Duration":1405914,"SoundDuration":1405914,"Delta":126731780},{"NoteNumber":70,"Velocity":72,"Duration":231463,"SoundDuration":231463,"Delta":126731780},{"NoteNumber":37,"Velocity":53,"Duration":467145,"SoundDuration":467145,"Delta":126731780},{"NoteNumber":49,"Velocity":60,"Duration":467145,"SoundDuration":467145,"Delta":126731780},{"NoteNumber":72,"Velocity":63,"Duration":235682,"SoundDuration":235682,"Delta":126963243},{"NoteNumber":70,"Velocity":70,"Duration":231463,"SoundDuration":231463,"Delta":127198926},{"NoteNumber":43,"Velocity":57,"Duration":467145,"SoundDuration":467145,"Delta":127198926},{"NoteNumber":55,"Velocity":63,"Duration":467145,"SoundDuration":467145,"Delta":127198926},{"NoteNumber":72,"Velocity":66,"Duration":235682,"SoundDuration":235682,"Delta":127430389},{"NoteNumber":73,"Velocity":64,"Duration":152938,"SoundDuration":152938,"Delta":127666072},{"NoteNumber":37,"Velocity":51,"Duration":471622,"SoundDuration":471622,"Delta":127666072},{"NoteNumber":49,"Velocity":58,"Duration":471622,"SoundDuration":471622,"Delta":127666072},{"NoteNumber":75,"Velocity":70,"Duration":157126,"SoundDuration":157126,"Delta":127819011},{"NoteNumber":77,"Velocity":73,"Duration":161556,"SoundDuration":161556,"Delta":127976137},{"NoteNumber":65,"Velocity":59,"Duration":493908,"SoundDuration":493908,"Delta":128137694},{"NoteNumber":70,"Velocity":58,"Duration":1481724,"SoundDuration":1481724,"Delta":128137694},{"NoteNumber":79,"Velocity":78,"Duration":1481724,"SoundDuration":1481724,"Delta":128137694},{"NoteNumber":36,"Velocity":50,"Duration":987816,"SoundDuration":987816,"Delta":128137694},{"NoteNumber":48,"Velocity":57,"Duration":987816,"SoundDuration":987816,"Delta":128137694},{"NoteNumber":64,"Velocity":59,"Duration":987816,"SoundDuration":987816,"Delta":128631602},{"NoteNumber":60,"Velocity":57,"Duration":493908,"SoundDuration":493908,"Delta":129125510},{"NoteNumber":69,"Velocity":68,"Duration":1837698,"SoundDuration":1837698,"Delta":129619418},{"NoteNumber":76,"Velocity":83,"Duration":352526,"SoundDuration":352526,"Delta":129619418},{"NoteNumber":29,"Velocity":60,"Duration":1857443,"SoundDuration":1857443,"Delta":129619418},{"NoteNumber":41,"Velocity":68,"Duration":1857443,"SoundDuration":1857443,"Delta":129619418},{"NoteNumber":77,"Velocity":77,"Duration":117508,"SoundDuration":117508,"Delta":129971944},{"NoteNumber":81,"Velocity":73,"Duration":148964,"SoundDuration":148964,"Delta":130089453},{"NoteNumber":60,"Velocity":68,"Duration":449810,"SoundDuration":449810,"Delta":130089453},{"NoteNumber":48,"Velocity":61,"Duration":449810,"SoundDuration":449810,"Delta":130089453},{"NoteNumber":79,"Velocity":74,"Duration":149936,"SoundDuration":149936,"Delta":130238417},{"NoteNumber":77,"Velocity":73,"Duration":150909,"SoundDuration":150909,"Delta":130388354},{"NoteNumber":76,"Velocity":77,"Duration":230202,"SoundDuration":230202,"Delta":130539264},{"NoteNumber":61,"Velocity":63,"Duration":463701,"SoundDuration":463701,"Delta":130539264},{"NoteNumber":49,"Velocity":56,"Duration":463701,"SoundDuration":463701,"Delta":130539264},{"NoteNumber":77,"Velocity":75,"Duration":233499,"SoundDuration":233499,"Delta":130769466},{"NoteNumber":74,"Velocity":78,"Duration":454150,"SoundDuration":454150,"Delta":131002966},{"NoteNumber":62,"Velocity":68,"Duration":1389692,"SoundDuration":1389692,"Delta":131002966},{"NoteNumber":50,"Velocity":68,"Duration":1389692,"SoundDuration":1389692,"Delta":131002966},{"NoteNumber":69,"Velocity":63,"Duration":915796,"SoundDuration":915796,"Delta":131476862},{"NoteNumber":81,"Velocity":84,"Duration":915796,"SoundDuration":915796,"Delta":131476862},{"NoteNumber":29,"Velocity":53,"Duration":465008,"SoundDuration":465008,"Delta":131927651},{"NoteNumber":41,"Velocity":60,"Duration":465008,"SoundDuration":465008,"Delta":131927651},{"NoteNumber":67,"Velocity":68,"Duration":920815,"SoundDuration":920815,"Delta":132392659},{"NoteNumber":74,"Velocity":84,"Duration":352526,"SoundDuration":352526,"Delta":132392659},{"NoteNumber":34,"Velocity":68,"Duration":920815,"SoundDuration":920815,"Delta":132392659},{"NoteNumber":46,"Velocity":68,"Duration":920815,"SoundDuration":920815,"Delta":132392659},{"NoteNumber":76,"Velocity":73,"Duration":117508,"SoundDuration":117508,"Delta":132745185},{"NoteNumber":79,"Velocity":73,"Duration":149610,"SoundDuration":149610,"Delta":132862694},{"NoteNumber":64,"Velocity":68,"Duration":925854,"SoundDuration":925854,"Delta":132862694},{"NoteNumber":52,"Velocity":61,"Duration":925854,"SoundDuration":925854,"Delta":132862694},{"NoteNumber":77,"Velocity":73,"Duration":150260,"SoundDuration":150260,"Delta":133012305},{"NoteNumber":76,"Velocity":72,"Duration":150909,"SoundDuration":150909,"Delta":133162565},{"NoteNumber":67,"Velocity":62,"Duration":475074,"SoundDuration":475074,"Delta":133313474},{"NoteNumber":74,"Velocity":78,"Duration":234631,"SoundDuration":234631,"Delta":133313474},{"NoteNumber":34,"Velocity":53,"Duration":475074,"SoundDuration":475074,"Delta":133313474},{"NoteNumber":46,"Velocity":60,"Duration":475074,"SoundDuration":475074,"Delta":133313474},{"NoteNumber":76,"Velocity":74,"Duration":240442,"SoundDuration":240442,"Delta":133548106},{"NoteNumber":67,"Velocity":68,"Duration":928895,"SoundDuration":928895,"Delta":133788548},{"NoteNumber":74,"Velocity":77,"Duration":233499,"SoundDuration":233499,"Delta":133788548},{"NoteNumber":76,"Velocity":71,"Duration":928895,"SoundDuration":928895,"Delta":133788548},{"NoteNumber":33,"Velocity":55,"Duration":928895,"SoundDuration":928895,"Delta":133788548},{"NoteNumber":45,"Velocity":62,"Duration":928895,"SoundDuration":928895,"Delta":133788548},{"NoteNumber":73,"Velocity":64,"Duration":233499,"SoundDuration":233499,"Delta":134022048},{"NoteNumber":71,"Velocity":69,"Duration":229392,"SoundDuration":229392,"Delta":134255547},{"NoteNumber":57,"Velocity":67,"Duration":936647,"SoundDuration":936647,"Delta":134255547},{"NoteNumber":73,"Velocity":62,"Duration":232504,"SoundDuration":232504,"Delta":134484940},{"NoteNumber":71,"Velocity":69,"Duration":233553,"SoundDuration":233553,"Delta":134717444},{"NoteNumber":33,"Velocity":56,"Duration":474750,"SoundDuration":474750,"Delta":134717444},{"NoteNumber":45,"Velocity":63,"Duration":474750,"SoundDuration":474750,"Delta":134717444},{"NoteNumber":69,"Velocity":62,"Duration":241196,"SoundDuration":241196,"Delta":134950998},{"NoteNumber":69,"Velocity":68,"Duration":1848248,"SoundDuration":1848248,"Delta":135192195},{"NoteNumber":76,"Velocity":84,"Duration":353856,"SoundDuration":353856,"Delta":135192195},{"NoteNumber":29,"Velocity":60,"Duration":2760150,"SoundDuration":2760150,"Delta":135192195},{"NoteNumber":41,"Velocity":68,"Duration":2760150,"SoundDuration":2760150,"Delta":135192195},{"NoteNumber":77,"Velocity":77,"Duration":117952,"SoundDuration":117952,"Delta":135546052},{"NoteNumber":81,"Velocity":75,"Duration":148964,"SoundDuration":148964,"Delta":135664004},{"NoteNumber":48,"Velocity":61,"Duration":449810,"SoundDuration":449810,"Delta":135664004},{"NoteNumber":60,"Velocity":68,"Duration":449810,"SoundDuration":449810,"Delta":135664004},{"NoteNumber":79,"Velocity":73,"Duration":149936,"SoundDuration":149936,"Delta":135812968},{"NoteNumber":77,"Velocity":72,"Duration":150909,"SoundDuration":150909,"Delta":135962905},{"NoteNumber":76,"Velocity":75,"Duration":230202,"SoundDuration":230202,"Delta":136113815},{"NoteNumber":61,"Velocity":63,"Duration":463701,"SoundDuration":463701,"Delta":136113815},{"NoteNumber":49,"Velocity":56,"Duration":463701,"SoundDuration":463701,"Delta":136113815},{"NoteNumber":77,"Velocity":74,"Duration":233499,"SoundDuration":233499,"Delta":136344017},{"NoteNumber":74,"Velocity":78,"Duration":433994,"SoundDuration":433994,"Delta":136577517},{"NoteNumber":62,"Velocity":68,"Duration":909820,"SoundDuration":909820,"Delta":136577517},{"NoteNumber":50,"Velocity":62,"Duration":909820,"SoundDuration":909820,"Delta":136577517},{"NoteNumber":69,"Velocity":73,"Duration":911901,"SoundDuration":911901,"Delta":137040444},{"NoteNumber":81,"Velocity":80,"Duration":911901,"SoundDuration":911901,"Delta":137040444},{"NoteNumber":65,"Velocity":63,"Duration":465008,"SoundDuration":465008,"Delta":137487338},{"NoteNumber":53,"Velocity":55,"Duration":465008,"SoundDuration":465008,"Delta":137487338},{"NoteNumber":65,"Velocity":57,"Duration":1393933,"SoundDuration":1393933,"Delta":137952346},{"NoteNumber":67,"Velocity":57,"Duration":1393933,"SoundDuration":1393933,"Delta":137952346},{"NoteNumber":74,"Velocity":71,"Duration":353856,"SoundDuration":353856,"Delta":137952346},{"NoteNumber":46,"Velocity":53,"Duration":471809,"SoundDuration":471809,"Delta":137952346},{"NoteNumber":76,"Velocity":62,"Duration":117952,"SoundDuration":117952,"Delta":138306203},{"NoteNumber":79,"Velocity":67,"Duration":152021,"SoundDuration":152021,"Delta":138424155},{"NoteNumber":58,"Velocity":60,"Duration":922124,"SoundDuration":922124,"Delta":138424155},{"NoteNumber":77,"Velocity":62,"Duration":152022,"SoundDuration":152022,"Delta":138576177},{"NoteNumber":76,"Velocity":60,"Duration":152021,"SoundDuration":152021,"Delta":138728199},{"NoteNumber":74,"Velocity":62,"Duration":231463,"SoundDuration":231463,"Delta":138880221},{"NoteNumber":76,"Velocity":58,"Duration":234595,"SoundDuration":234595,"Delta":139111684},{"NoteNumber":69,"Velocity":47,"Duration":1399855,"SoundDuration":1399855,"Delta":139346279},{"NoteNumber":65,"Velocity":47,"Duration":1399855,"SoundDuration":1399855,"Delta":139346279},{"NoteNumber":72,"Velocity":57,"Duration":227375,"SoundDuration":227375,"Delta":139346279},{"NoteNumber":60,"Velocity":44,"Duration":459879,"SoundDuration":459879,"Delta":139346279},{"NoteNumber":74,"Velocity":51,"Duration":232504,"SoundDuration":232504,"Delta":139573655},{"NoteNumber":72,"Velocity":59,"Duration":228379,"SoundDuration":228379,"Delta":139806159},{"NoteNumber":48,"Velocity":51,"Duration":939976,"SoundDuration":939976,"Delta":139806159},{"NoteNumber":74,"Velocity":53,"Duration":234595,"SoundDuration":234595,"Delta":140034539},{"NoteNumber":76,"Velocity":59,"Duration":233553,"SoundDuration":233553,"Delta":140269134},{"NoteNumber":77,"Velocity":55,"Duration":243447,"SoundDuration":243447,"Delta":140502688},{"NoteNumber":64,"Velocity":50,"Duration":1408306,"SoundDuration":1408306,"Delta":140746135},{"NoteNumber":70,"Velocity":57,"Duration":347195,"SoundDuration":347195,"Delta":140746135},{"NoteNumber":55,"Velocity":47,"Duration":462927,"SoundDuration":462927,"Delta":140746135},{"NoteNumber":72,"Velocity":52,"Duration":115731,"SoundDuration":115731,"Delta":141093331},{"NoteNumber":76,"Velocity":57,"Duration":152021,"SoundDuration":152021,"Delta":141209062},{"NoteNumber":48,"Velocity":53,"Duration":945379,"SoundDuration":945379,"Delta":141209062},{"NoteNumber":74,"Velocity":53,"Duration":153165,"SoundDuration":153165,"Delta":141361084},{"NoteNumber":72,"Velocity":53,"Duration":154308,"SoundDuration":154308,"Delta":141514250},{"NoteNumber":70,"Velocity":57,"Duration":240102,"SoundDuration":240102,"Delta":141668559},{"NoteNumber":72,"Velocity":55,"Duration":245780,"SoundDuration":245780,"Delta":141908661},{"NoteNumber":63,"Velocity":42,"Duration":1458628,"SoundDuration":1458628,"Delta":142154442},{"NoteNumber":69,"Velocity":48,"Duration":1458628,"SoundDuration":1458628,"Delta":142154442},{"NoteNumber":54,"Velocity":42,"Duration":480153,"SoundDuration":480153,"Delta":142154442},{"NoteNumber":48,"Velocity":39,"Duration":978474,"SoundDuration":978474,"Delta":142634596},{"NoteNumber":69,"Velocity":52,"Duration":479117,"SoundDuration":479117,"Delta":143613070},{"NoteNumber":62,"Velocity":55,"Duration":359338,"SoundDuration":359338,"Delta":143613070},{"NoteNumber":46,"Velocity":53,"Duration":479117,"SoundDuration":479117,"Delta":143613070},{"NoteNumber":64,"Velocity":53,"Duration":119779,"SoundDuration":119779,"Delta":143972409},{"NoteNumber":67,"Velocity":57,"Duration":464719,"SoundDuration":464719,"Delta":144092188},{"NoteNumber":58,"Velocity":60,"Duration":933434,"SoundDuration":933434,"Delta":144092188},{"NoteNumber":65,"Velocity":53,"Duration":154906,"SoundDuration":154906,"Delta":144247095},{"NoteNumber":64,"Velocity":50,"Duration":154906,"SoundDuration":154906,"Delta":144402001},{"NoteNumber":74,"Velocity":60,"Duration":930980,"SoundDuration":930980,"Delta":144556908},{"NoteNumber":62,"Velocity":53,"Duration":234118,"SoundDuration":234118,"Delta":144556908},{"NoteNumber":64,"Velocity":50,"Duration":234595,"SoundDuration":234595,"Delta":144791027},{"NoteNumber":57,"Velocity":47,"Duration":1403624,"SoundDuration":1403624,"Delta":145025622},{"NoteNumber":65,"Velocity":47,"Duration":926623,"SoundDuration":926623,"Delta":145025622},{"NoteNumber":60,"Velocity":53,"Duration":229761,"SoundDuration":229761,"Delta":145025622},{"NoteNumber":57,"Velocity":44,"Duration":1403624,"SoundDuration":1403624,"Delta":145025622},{"NoteNumber":62,"Velocity":48,"Duration":232504,"SoundDuration":232504,"Delta":145255384},{"NoteNumber":65,"Velocity":60,"Duration":941358,"SoundDuration":941358,"Delta":145487888},{"NoteNumber":60,"Velocity":56,"Duration":229761,"SoundDuration":229761,"Delta":145487888},{"NoteNumber":62,"Velocity":50,"Duration":234595,"SoundDuration":234595,"Delta":145717650},{"NoteNumber":72,"Velocity":60,"Duration":943490,"SoundDuration":943490,"Delta":145952245},{"NoteNumber":64,"Velocity":56,"Duration":233553,"SoundDuration":233553,"Delta":145952245},{"NoteNumber":65,"Velocity":51,"Duration":243447,"SoundDuration":243447,"Delta":146185799},{"NoteNumber":58,"Velocity":53,"Duration":349867,"SoundDuration":349867,"Delta":146429246},{"NoteNumber":55,"Velocity":47,"Duration":930370,"SoundDuration":930370,"Delta":146429246},{"NoteNumber":60,"Velocity":49,"Duration":116622,"SoundDuration":116622,"Delta":146779114},{"NoteNumber":70,"Velocity":60,"Duration":463880,"SoundDuration":463880,"Delta":146895736},{"NoteNumber":64,"Velocity":53,"Duration":153174,"SoundDuration":153174,"Delta":146895736},{"NoteNumber":62,"Velocity":50,"Duration":154626,"SoundDuration":154626,"Delta":147048911},{"NoteNumber":60,"Velocity":50,"Duration":156079,"SoundDuration":156079,"Delta":147203538},{"NoteNumber":64,"Velocity":60,"Duration":485883,"SoundDuration":485883,"Delta":147359617},{"NoteNumber":72,"Velocity":60,"Duration":485883,"SoundDuration":485883,"Delta":147359617},{"NoteNumber":58,"Velocity":49,"Duration":240102,"SoundDuration":240102,"Delta":147359617},{"NoteNumber":48,"Velocity":47,"Duration":485883,"SoundDuration":485883,"Delta":147359617},{"NoteNumber":60,"Velocity":47,"Duration":245780,"SoundDuration":245780,"Delta":147599719},{"NoteNumber":65,"Velocity":42,"Duration":1453050,"SoundDuration":1453050,"Delta":147845500},{"NoteNumber":72,"Velocity":48,"Duration":1453050,"SoundDuration":1453050,"Delta":147845500},{"NoteNumber":58,"Velocity":46,"Duration":235017,"SoundDuration":235017,"Delta":147845500},{"NoteNumber":53,"Velocity":46,"Duration":963813,"SoundDuration":963813,"Delta":147845500},{"NoteNumber":57,"Velocity":41,"Duration":239559,"SoundDuration":239559,"Delta":148080518},{"NoteNumber":55,"Velocity":45,"Duration":244618,"SoundDuration":244618,"Delta":148320077},{"NoteNumber":57,"Velocity":40,"Duration":244618,"SoundDuration":244618,"Delta":148564695},{"NoteNumber":55,"Velocity":40,"Duration":244618,"SoundDuration":244618,"Delta":148809314},{"NoteNumber":53,"Velocity":40,"Duration":244618,"SoundDuration":244618,"Delta":149053932},{"NoteNumber":79,"Velocity":57,"Duration":353856,"SoundDuration":353856,"Delta":149298551},{"NoteNumber":75,"Velocity":47,"Duration":1393933,"SoundDuration":1393933,"Delta":149298551},{"NoteNumber":81,"Velocity":52,"Duration":117952,"SoundDuration":117952,"Delta":149652408},{"NoteNumber":84,"Velocity":57,"Duration":152021,"SoundDuration":152021,"Delta":149770360},{"NoteNumber":65,"Velocity":42,"Duration":1844979,"SoundDuration":1844979,"Delta":149770360},{"NoteNumber":82,"Velocity":53,"Duration":152022,"SoundDuration":152022,"Delta":149922382},{"NoteNumber":81,"Velocity":53,"Duration":152021,"SoundDuration":152021,"Delta":150074404},{"NoteNumber":79,"Velocity":57,"Duration":231463,"SoundDuration":231463,"Delta":150226426},{"NoteNumber":81,"Velocity":55,"Duration":234595,"SoundDuration":234595,"Delta":150457889},{"NoteNumber":77,"Velocity":57,"Duration":227375,"SoundDuration":227375,"Delta":150692484},{"NoteNumber":75,"Velocity":44,"Duration":459879,"SoundDuration":459879,"Delta":150692484},{"NoteNumber":79,"Velocity":51,"Duration":232504,"SoundDuration":232504,"Delta":150919860},{"NoteNumber":77,"Velocity":59,"Duration":228379,"SoundDuration":228379,"Delta":151152364},{"NoteNumber":74,"Velocity":51,"Duration":939976,"SoundDuration":939976,"Delta":151152364},{"NoteNumber":79,"Velocity":53,"Duration":234595,"SoundDuration":234595,"Delta":151380744},{"NoteNumber":81,"Velocity":59,"Duration":233553,"SoundDuration":233553,"Delta":151615339},{"NoteNumber":65,"Velocity":42,"Duration":943490,"SoundDuration":943490,"Delta":151615339},{"NoteNumber":82,"Velocity":55,"Duration":243447,"SoundDuration":243447,"Delta":151848893},{"NoteNumber":74,"Velocity":57,"Duration":349867,"SoundDuration":349867,"Delta":152092340},{"NoteNumber":70,"Velocity":47,"Duration":1415380,"SoundDuration":1415380,"Delta":152092340},{"NoteNumber":76,"Velocity":52,"Duration":116622,"SoundDuration":116622,"Delta":152442208},{"NoteNumber":79,"Velocity":57,"Duration":153174,"SoundDuration":153174,"Delta":152558830},{"NoteNumber":65,"Velocity":42,"Duration":1889958,"SoundDuration":1889958,"Delta":152558830},{"NoteNumber":77,"Velocity":53,"Duration":154335,"SoundDuration":154335,"Delta":152712005},{"NoteNumber":76,"Velocity":53,"Duration":155496,"SoundDuration":155496,"Delta":152866341},{"NoteNumber":74,"Velocity":57,"Duration":240102,"SoundDuration":240102,"Delta":153021837},{"NoteNumber":76,"Velocity":55,"Duration":245780,"SoundDuration":245780,"Delta":153261940},{"NoteNumber":72,"Velocity":57,"Duration":1412877,"SoundDuration":1412877,"Delta":153507721},{"NoteNumber":77,"Velocity":57,"Duration":1412877,"SoundDuration":1412877,"Delta":153507721},{"NoteNumber":70,"Velocity":48,"Duration":232359,"SoundDuration":232359,"Delta":153507721},{"NoteNumber":69,"Velocity":42,"Duration":235904,"SoundDuration":235904,"Delta":153740081},{"NoteNumber":67,"Velocity":46,"Duration":233245,"SoundDuration":233245,"Delta":153975985},{"NoteNumber":69,"Velocity":41,"Duration":239559,"SoundDuration":239559,"Delta":154209230},{"NoteNumber":67,"Velocity":41,"Duration":235904,"SoundDuration":235904,"Delta":154448789},{"NoteNumber":65,"Velocity":38,"Duration":235904,"SoundDuration":235904,"Delta":154684694},{"NoteNumber":65,"Velocity":50,"Duration":1412044,"SoundDuration":1412044,"Delta":154920598},{"NoteNumber":70,"Velocity":50,"Duration":1412044,"SoundDuration":1412044,"Delta":154920598},{"NoteNumber":77,"Velocity":57,"Duration":1412044,"SoundDuration":1412044,"Delta":154920598},{"NoteNumber":63,"Velocity":44,"Duration":231499,"SoundDuration":231499,"Delta":154920598},{"NoteNumber":62,"Velocity":39,"Duration":236817,"SoundDuration":236817,"Delta":155152098},{"NoteNumber":60,"Velocity":42,"Duration":232359,"SoundDuration":232359,"Delta":155388915},{"NoteNumber":62,"Velocity":38,"Duration":239559,"SoundDuration":239559,"Delta":155621275},{"NoteNumber":60,"Velocity":38,"Duration":235904,"SoundDuration":235904,"Delta":155860834},{"NoteNumber":58,"Velocity":35,"Duration":235904,"SoundDuration":235904,"Delta":156096738},{"NoteNumber":84,"Velocity":57,"Duration":1408390,"SoundDuration":1408390,"Delta":156332643},{"NoteNumber":72,"Velocity":50,"Duration":1408390,"SoundDuration":1408390,"Delta":156332643},{"NoteNumber":77,"Velocity":50,"Duration":1408390,"SoundDuration":1408390,"Delta":156332643},{"NoteNumber":58,"Velocity":44,"Duration":231499,"SoundDuration":231499,"Delta":156332643},{"NoteNumber":57,"Velocity":39,"Duration":235904,"SoundDuration":235904,"Delta":156564142},{"NoteNumber":55,"Velocity":41,"Duration":232359,"SoundDuration":232359,"Delta":156800047},{"NoteNumber":57,"Velocity":37,"Duration":236817,"SoundDuration":236817,"Delta":157032407},{"NoteNumber":55,"Velocity":37,"Duration":235904,"SoundDuration":235904,"Delta":157269224},{"NoteNumber":53,"Velocity":34,"Duration":235904,"SoundDuration":235904,"Delta":157505128},{"NoteNumber":89,"Velocity":56,"Duration":1411546,"SoundDuration":1411546,"Delta":157741033},{"NoteNumber":82,"Velocity":49,"Duration":1411546,"SoundDuration":1411546,"Delta":157741033},{"NoteNumber":77,"Velocity":49,"Duration":1411546,"SoundDuration":1411546,"Delta":157741033},{"NoteNumber":51,"Velocity":41,"Duration":232359,"SoundDuration":232359,"Delta":157741033},{"NoteNumber":50,"Velocity":37,"Duration":235904,"SoundDuration":235904,"Delta":157973393},{"NoteNumber":48,"Velocity":40,"Duration":233688,"SoundDuration":233688,"Delta":158209297},{"NoteNumber":50,"Velocity":36,"Duration":239559,"SoundDuration":239559,"Delta":158442986},{"NoteNumber":48,"Velocity":36,"Duration":235017,"SoundDuration":235017,"Delta":158682545},{"NoteNumber":46,"Velocity":33,"Duration":235017,"SoundDuration":235017,"Delta":158917562},{"NoteNumber":96,"Velocity":55,"Duration":1954432,"SoundDuration":1954432,"Delta":159152580},{"NoteNumber":89,"Velocity":49,"Duration":1954432,"SoundDuration":1954432,"Delta":159152580},{"NoteNumber":84,"Velocity":49,"Duration":1954432,"SoundDuration":1954432,"Delta":159152580},{"NoteNumber":46,"Velocity":40,"Duration":232359,"SoundDuration":232359,"Delta":159152580},{"NoteNumber":45,"Velocity":36,"Duration":236817,"SoundDuration":236817,"Delta":159384940},{"NoteNumber":43,"Velocity":39,"Duration":233245,"SoundDuration":233245,"Delta":159621757},{"NoteNumber":45,"Velocity":35,"Duration":239559,"SoundDuration":239559,"Delta":159855002},{"NoteNumber":43,"Velocity":35,"Duration":239558,"SoundDuration":239558,"Delta":160094561},{"NoteNumber":41,"Velocity":31,"Duration":239559,"SoundDuration":239559,"Delta":160334120},{"NoteNumber":41,"Velocity":34,"Duration":533332,"SoundDuration":533332,"Delta":160573679},{"NoteNumber":29,"Velocity":20,"Duration":266666,"SoundDuration":266666,"Delta":161107012},{"NoteNumber":29,"Velocity":19,"Duration":266666,"SoundDuration":266666,"Delta":161640345},{"NoteNumber":29,"Velocity":19,"Duration":266666,"SoundDuration":266666,"Delta":162173678}],"license":{"name":"Creative Commons Attribution-ShareAlike 3.0 Germany","url":"http://creativecommons.org/licenses/by-sa/3.0/de/deed.en","text":"The MIDI, audio (MP3, OGG) and video files of Bernd Krueger are licensed under the cc-by-sa Germany License. This means that you can use and adapt the files, as long as you attribute the copyright holder.\n\nName: Bernd Krueger\nSource: http://www.piano-midi.de\n\nThe distribution or public playback of the files is only allowed under identical license conditions.\n\nThe scores are open source.","attribution":"MIDI files by Bernd Krueger (piano-midi.de)","attributionUrl":"http://www.piano-midi.de"}}