{"title":"3. Mazurka","artist":"Borodin","durationMs":158118,"midiSha256":"1b7868264da1a69937b8ee3e3f6274964e410001adce1ab6eccef98a26eb98a4","midiObject":[{"NoteNumber":65,"Velocity":38,"Duration":1044686,"SoundDuration":1044686,"Delta":0},{"NoteNumber":67,"Velocity":47,"Duration":689656,"SoundDuration":689656,"Delta":355030},{"NoteNumber":65,"Velocity":44,"Duration":1034484,"SoundDuration":1034484,"Delta":1044686},{"NoteNumber":67,"Velocity":53,"Duration":689656,"SoundDuration":689656,"Delta":1389514},{"NoteNumber":65,"Velocity":48,"Duration":673777,"SoundDuration":673777,"Delta":2079170},{"NoteNumber":67,"Velocity":58,"Duration":667740,"SoundDuration":667740,"Delta":2417581},{"NoteNumber":65,"Velocity":51,"Duration":661805,"SoundDuration":661805,"Delta":2752947},{"NoteNumber":67,"Velocity":63,"Duration":655968,"SoundDuration":655968,"Delta":3085322},{"NoteNumber":65,"Velocity":55,"Duration":657411,"SoundDuration":657411,"Delta":3414752},{"NoteNumber":67,"Velocity":67,"Duration":644062,"SoundDuration":644062,"Delta":3741291},{"NoteNumber":36,"Velocity":73,"Duration":357930,"SoundDuration":357930,"Delta":4072164},{"NoteNumber":43,"Velocity":73,"Duration":357930,"SoundDuration":357930,"Delta":4072164},{"NoteNumber":65,"Velocity":59,"Duration":722800,"SoundDuration":722800,"Delta":4385353},{"NoteNumber":71,"Velocity":69,"Duration":722800,"SoundDuration":722800,"Delta":4385353},{"NoteNumber":76,"Velocity":78,"Duration":505714,"SoundDuration":505714,"Delta":4430095},{"NoteNumber":67,"Velocity":63,"Duration":678059,"SoundDuration":678059,"Delta":4430095},{"NoteNumber":74,"Velocity":74,"Duration":129258,"SoundDuration":129258,"Delta":4935809},{"NoteNumber":72,"Velocity":64,"Duration":43086,"SoundDuration":43086,"Delta":5065068},{"NoteNumber":64,"Velocity":70,"Duration":172344,"SoundDuration":172344,"Delta":5108154},{"NoteNumber":76,"Velocity":79,"Duration":172344,"SoundDuration":172344,"Delta":5108154},{"NoteNumber":36,"Velocity":73,"Duration":344688,"SoundDuration":344688,"Delta":5108154},{"NoteNumber":43,"Velocity":73,"Duration":344688,"SoundDuration":344688,"Delta":5108154},{"NoteNumber":71,"Velocity":73,"Duration":64629,"SoundDuration":64629,"Delta":5366670},{"NoteNumber":72,"Velocity":79,"Duration":172344,"SoundDuration":172344,"Delta":5452843},{"NoteNumber":64,"Velocity":66,"Duration":172344,"SoundDuration":172344,"Delta":5452843},{"NoteNumber":55,"Velocity":60,"Duration":344689,"SoundDuration":344689,"Delta":5452843},{"NoteNumber":74,"Velocity":69,"Duration":64629,"SoundDuration":64629,"Delta":5711359},{"NoteNumber":64,"Velocity":73,"Duration":307286,"SoundDuration":307286,"Delta":5797532},{"NoteNumber":76,"Velocity":81,"Duration":307286,"SoundDuration":307286,"Delta":5797532},{"NoteNumber":60,"Velocity":67,"Duration":351185,"SoundDuration":351185,"Delta":5797532},{"NoteNumber":72,"Velocity":55,"Duration":213619,"SoundDuration":213619,"Delta":6104819},{"NoteNumber":76,"Velocity":59,"Duration":169721,"SoundDuration":169721,"Delta":6148717},{"NoteNumber":50,"Velocity":55,"Duration":339184,"SoundDuration":339184,"Delta":6148717},{"NoteNumber":78,"Velocity":53,"Duration":63451,"SoundDuration":63451,"Delta":6403299},{"NoteNumber":72,"Velocity":52,"Duration":85905,"SoundDuration":85905,"Delta":6487901},{"NoteNumber":79,"Velocity":59,"Duration":85905,"SoundDuration":85905,"Delta":6487901},{"NoteNumber":64,"Velocity":53,"Duration":85905,"SoundDuration":85905,"Delta":6487901},{"NoteNumber":81,"Velocity":61,"Duration":90062,"SoundDuration":90062,"Delta":6831524},{"NoteNumber":72,"Velocity":55,"Duration":90062,"SoundDuration":90062,"Delta":6831524},{"NoteNumber":66,"Velocity":56,"Duration":90062,"SoundDuration":90062,"Delta":6831524},{"NoteNumber":79,"Velocity":57,"Duration":45031,"SoundDuration":45031,"Delta":7146745},{"NoteNumber":83,"Velocity":64,"Duration":691530,"SoundDuration":691530,"Delta":7191776},{"NoteNumber":71,"Velocity":58,"Duration":691530,"SoundDuration":691530,"Delta":7191776},{"NoteNumber":67,"Velocity":63,"Duration":343623,"SoundDuration":343623,"Delta":7191776},{"NoteNumber":62,"Velocity":56,"Duration":347907,"SoundDuration":347907,"Delta":7535399},{"NoteNumber":71,"Velocity":53,"Duration":300670,"SoundDuration":300670,"Delta":7883306},{"NoteNumber":79,"Velocity":60,"Duration":300670,"SoundDuration":300670,"Delta":7883306},{"NoteNumber":55,"Velocity":57,"Duration":300670,"SoundDuration":300670,"Delta":7883306},{"NoteNumber":77,"Velocity":62,"Duration":42952,"SoundDuration":42952,"Delta":8183976},{"NoteNumber":81,"Velocity":71,"Duration":171811,"SoundDuration":171811,"Delta":8226929},{"NoteNumber":60,"Velocity":62,"Duration":348511,"SoundDuration":348511,"Delta":8226929},{"NoteNumber":53,"Velocity":62,"Duration":348511,"SoundDuration":348511,"Delta":8226929},{"NoteNumber":83,"Velocity":70,"Duration":176699,"SoundDuration":176699,"Delta":8398741},{"NoteNumber":84,"Velocity":75,"Duration":113147,"SoundDuration":113147,"Delta":8575440},{"NoteNumber":77,"Velocity":67,"Duration":685184,"SoundDuration":685184,"Delta":8575440},{"NoteNumber":69,"Velocity":67,"Duration":685184,"SoundDuration":685184,"Delta":8575440},{"NoteNumber":62,"Velocity":60,"Duration":685184,"SoundDuration":685184,"Delta":8575440},{"NoteNumber":86,"Velocity":67,"Duration":113147,"SoundDuration":113147,"Delta":8688588},{"NoteNumber":84,"Velocity":67,"Duration":113147,"SoundDuration":113147,"Delta":8801736},{"NoteNumber":83,"Velocity":72,"Duration":172871,"SoundDuration":172871,"Delta":8914883},{"NoteNumber":81,"Velocity":63,"Duration":172870,"SoundDuration":172870,"Delta":9087754},{"NoteNumber":76,"Velocity":67,"Duration":256923,"SoundDuration":256923,"Delta":9260625},{"NoteNumber":79,"Velocity":75,"Duration":256923,"SoundDuration":256923,"Delta":9260625},{"NoteNumber":55,"Velocity":56,"Duration":345418,"SoundDuration":345418,"Delta":9260625},{"NoteNumber":79,"Velocity":66,"Duration":66371,"SoundDuration":66371,"Delta":9517548},{"NoteNumber":76,"Velocity":59,"Duration":66371,"SoundDuration":66371,"Delta":9517548},{"NoteNumber":74,"Velocity":60,"Duration":347906,"SoundDuration":347906,"Delta":9606044},{"NoteNumber":77,"Velocity":67,"Duration":347906,"SoundDuration":347906,"Delta":9606044},{"NoteNumber":67,"Velocity":58,"Duration":695814,"SoundDuration":695814,"Delta":9606044},{"NoteNumber":72,"Velocity":56,"Duration":347907,"SoundDuration":347907,"Delta":9953951},{"NoteNumber":76,"Velocity":62,"Duration":347907,"SoundDuration":347907,"Delta":9953951},{"NoteNumber":74,"Velocity":66,"Duration":256923,"SoundDuration":256923,"Delta":10301858},{"NoteNumber":71,"Velocity":59,"Duration":256923,"SoundDuration":256923,"Delta":10301858},{"NoteNumber":55,"Velocity":50,"Duration":344899,"SoundDuration":344899,"Delta":10301858},{"NoteNumber":71,"Velocity":53,"Duration":65982,"SoundDuration":65982,"Delta":10558781},{"NoteNumber":74,"Velocity":60,"Duration":65982,"SoundDuration":65982,"Delta":10558781},{"NoteNumber":79,"Velocity":64,"Duration":693642,"SoundDuration":693642,"Delta":10646757},{"NoteNumber":72,"Velocity":50,"Duration":346821,"SoundDuration":346821,"Delta":10993578},{"NoteNumber":76,"Velocity":56,"Duration":346821,"SoundDuration":346821,"Delta":10993578},{"NoteNumber":69,"Velocity":50,"Duration":346821,"SoundDuration":346821,"Delta":10993578},{"NoteNumber":67,"Velocity":57,"Duration":346821,"SoundDuration":346821,"Delta":10993578},{"NoteNumber":72,"Velocity":60,"Duration":260115,"SoundDuration":260115,"Delta":11340399},{"NoteNumber":69,"Velocity":53,"Duration":260115,"SoundDuration":260115,"Delta":11340399},{"NoteNumber":55,"Velocity":51,"Duration":349667,"SoundDuration":349667,"Delta":11340399},{"NoteNumber":72,"Velocity":57,"Duration":67164,"SoundDuration":67164,"Delta":11600515},{"NoteNumber":69,"Velocity":51,"Duration":67164,"SoundDuration":67164,"Delta":11600515},{"NoteNumber":79,"Velocity":61,"Duration":693642,"SoundDuration":693642,"Delta":11690067},{"NoteNumber":71,"Velocity":48,"Duration":346821,"SoundDuration":346821,"Delta":12036888},{"NoteNumber":74,"Velocity":53,"Duration":346821,"SoundDuration":346821,"Delta":12036888},{"NoteNumber":67,"Velocity":56,"Duration":346821,"SoundDuration":346821,"Delta":12036888},{"NoteNumber":43,"Velocity":73,"Duration":357931,"SoundDuration":357931,"Delta":12383709},{"NoteNumber":36,"Velocity":73,"Duration":357931,"SoundDuration":357931,"Delta":12383709},{"NoteNumber":65,"Velocity":60,"Duration":722800,"SoundDuration":722800,"Delta":12696899},{"NoteNumber":71,"Velocity":69,"Duration":722800,"SoundDuration":722800,"Delta":12696899},{"NoteNumber":76,"Velocity":78,"Duration":505714,"SoundDuration":505714,"Delta":12741640},{"NoteNumber":67,"Velocity":63,"Duration":678059,"SoundDuration":678059,"Delta":12741640},{"NoteNumber":74,"Velocity":74,"Duration":129258,"SoundDuration":129258,"Delta":13247355},{"NoteNumber":72,"Velocity":64,"Duration":43086,"SoundDuration":43086,"Delta":13376613},{"NoteNumber":76,"Velocity":79,"Duration":172344,"SoundDuration":172344,"Delta":13419699},{"NoteNumber":64,"Velocity":70,"Duration":172344,"SoundDuration":172344,"Delta":13419699},{"NoteNumber":36,"Velocity":73,"Duration":344688,"SoundDuration":344688,"Delta":13419699},{"NoteNumber":43,"Velocity":73,"Duration":344688,"SoundDuration":344688,"Delta":13419699},{"NoteNumber":71,"Velocity":73,"Duration":64629,"SoundDuration":64629,"Delta":13678216},{"NoteNumber":72,"Velocity":79,"Duration":172344,"SoundDuration":172344,"Delta":13764388},{"NoteNumber":64,"Velocity":68,"Duration":172344,"SoundDuration":172344,"Delta":13764388},{"NoteNumber":55,"Velocity":57,"Duration":344689,"SoundDuration":344689,"Delta":13764388},{"NoteNumber":74,"Velocity":69,"Duration":64629,"SoundDuration":64629,"Delta":14022905},{"NoteNumber":64,"Velocity":73,"Duration":307286,"SoundDuration":307286,"Delta":14109077},{"NoteNumber":76,"Velocity":81,"Duration":307286,"SoundDuration":307286,"Delta":14109077},{"NoteNumber":60,"Velocity":67,"Duration":351184,"SoundDuration":351184,"Delta":14109077},{"NoteNumber":72,"Velocity":55,"Duration":213619,"SoundDuration":213619,"Delta":14416364},{"NoteNumber":76,"Velocity":59,"Duration":169721,"SoundDuration":169721,"Delta":14460262},{"NoteNumber":50,"Velocity":55,"Duration":339184,"SoundDuration":339184,"Delta":14460262},{"NoteNumber":78,"Velocity":53,"Duration":63451,"SoundDuration":63451,"Delta":14714844},{"NoteNumber":79,"Velocity":59,"Duration":85905,"SoundDuration":85905,"Delta":14799447},{"NoteNumber":72,"Velocity":52,"Duration":85905,"SoundDuration":85905,"Delta":14799447},{"NoteNumber":64,"Velocity":53,"Duration":85905,"SoundDuration":85905,"Delta":14799447},{"NoteNumber":81,"Velocity":61,"Duration":90063,"SoundDuration":90063,"Delta":15143070},{"NoteNumber":72,"Velocity":55,"Duration":90063,"SoundDuration":90063,"Delta":15143070},{"NoteNumber":66,"Velocity":56,"Duration":90063,"SoundDuration":90063,"Delta":15143070},{"NoteNumber":79,"Velocity":59,"Duration":45031,"SoundDuration":45031,"Delta":15458290},{"NoteNumber":71,"Velocity":58,"Duration":691530,"SoundDuration":691530,"Delta":15503322},{"NoteNumber":83,"Velocity":64,"Duration":691530,"SoundDuration":691530,"Delta":15503322},{"NoteNumber":67,"Velocity":63,"Duration":343623,"SoundDuration":343623,"Delta":15503322},{"NoteNumber":62,"Velocity":58,"Duration":347906,"SoundDuration":347906,"Delta":15846945},{"NoteNumber":79,"Velocity":60,"Duration":300670,"SoundDuration":300670,"Delta":16194852},{"NoteNumber":71,"Velocity":53,"Duration":300670,"SoundDuration":300670,"Delta":16194852},{"NoteNumber":55,"Velocity":57,"Duration":300670,"SoundDuration":300670,"Delta":16194852},{"NoteNumber":77,"Velocity":63,"Duration":42952,"SoundDuration":42952,"Delta":16495522},{"NoteNumber":81,"Velocity":70,"Duration":178965,"SoundDuration":178965,"Delta":16538475},{"NoteNumber":60,"Velocity":62,"Duration":355665,"SoundDuration":355665,"Delta":16538475},{"NoteNumber":53,"Velocity":62,"Duration":355665,"SoundDuration":355665,"Delta":16538475},{"NoteNumber":83,"Velocity":67,"Duration":176699,"SoundDuration":176699,"Delta":16717440},{"NoteNumber":77,"Velocity":67,"Duration":685185,"SoundDuration":685185,"Delta":16894140},{"NoteNumber":84,"Velocity":75,"Duration":113147,"SoundDuration":113147,"Delta":16894140},{"NoteNumber":69,"Velocity":67,"Duration":685185,"SoundDuration":685185,"Delta":16894140},{"NoteNumber":62,"Velocity":60,"Duration":685185,"SoundDuration":685185,"Delta":16894140},{"NoteNumber":86,"Velocity":67,"Duration":113147,"SoundDuration":113147,"Delta":17007287},{"NoteNumber":84,"Velocity":67,"Duration":113147,"SoundDuration":113147,"Delta":17120435},{"NoteNumber":83,"Velocity":72,"Duration":172871,"SoundDuration":172871,"Delta":17233583},{"NoteNumber":81,"Velocity":63,"Duration":172871,"SoundDuration":172871,"Delta":17406454},{"NoteNumber":76,"Velocity":67,"Duration":256923,"SoundDuration":256923,"Delta":17579325},{"NoteNumber":79,"Velocity":75,"Duration":256923,"SoundDuration":256923,"Delta":17579325},{"NoteNumber":55,"Velocity":56,"Duration":344899,"SoundDuration":344899,"Delta":17579325},{"NoteNumber":79,"Velocity":66,"Duration":65982,"SoundDuration":65982,"Delta":17836248},{"NoteNumber":76,"Velocity":59,"Duration":65982,"SoundDuration":65982,"Delta":17836248},{"NoteNumber":77,"Velocity":67,"Duration":347906,"SoundDuration":347906,"Delta":17924224},{"NoteNumber":74,"Velocity":60,"Duration":347906,"SoundDuration":347906,"Delta":17924224},{"NoteNumber":67,"Velocity":58,"Duration":695813,"SoundDuration":695813,"Delta":17924224},{"NoteNumber":72,"Velocity":56,"Duration":347906,"SoundDuration":347906,"Delta":18272131},{"NoteNumber":76,"Velocity":62,"Duration":347906,"SoundDuration":347906,"Delta":18272131},{"NoteNumber":74,"Velocity":66,"Duration":256923,"SoundDuration":256923,"Delta":18620038},{"NoteNumber":71,"Velocity":59,"Duration":256923,"SoundDuration":256923,"Delta":18620038},{"NoteNumber":55,"Velocity":50,"Duration":344120,"SoundDuration":344120,"Delta":18620038},{"NoteNumber":71,"Velocity":53,"Duration":65203,"SoundDuration":65203,"Delta":18876961},{"NoteNumber":74,"Velocity":60,"Duration":65203,"SoundDuration":65203,"Delta":18876961},{"NoteNumber":79,"Velocity":64,"Duration":693642,"SoundDuration":693642,"Delta":18964159},{"NoteNumber":72,"Velocity":50,"Duration":346821,"SoundDuration":346821,"Delta":19310980},{"NoteNumber":69,"Velocity":50,"Duration":346821,"SoundDuration":346821,"Delta":19310980},{"NoteNumber":76,"Velocity":56,"Duration":346821,"SoundDuration":346821,"Delta":19310980},{"NoteNumber":67,"Velocity":50,"Duration":346821,"SoundDuration":346821,"Delta":19310980},{"NoteNumber":71,"Velocity":51,"Duration":696380,"SoundDuration":696380,"Delta":19657801},{"NoteNumber":74,"Velocity":57,"Duration":346820,"SoundDuration":346820,"Delta":19657801},{"NoteNumber":65,"Velocity":51,"Duration":696380,"SoundDuration":696380,"Delta":19657801},{"NoteNumber":67,"Velocity":55,"Duration":696380,"SoundDuration":696380,"Delta":19657801},{"NoteNumber":76,"Velocity":56,"Duration":173410,"SoundDuration":173410,"Delta":20004622},{"NoteNumber":74,"Velocity":52,"Duration":176149,"SoundDuration":176149,"Delta":20178033},{"NoteNumber":72,"Velocity":50,"Duration":361423,"SoundDuration":361423,"Delta":20354182},{"NoteNumber":64,"Velocity":44,"Duration":361423,"SoundDuration":361423,"Delta":20354182},{"NoteNumber":60,"Velocity":42,"Duration":361423,"SoundDuration":361423,"Delta":20354182},{"NoteNumber":43,"Velocity":49,"Duration":1051555,"SoundDuration":1051555,"Delta":20715606},{"NoteNumber":67,"Velocity":49,"Duration":173953,"SoundDuration":173953,"Delta":20886362},{"NoteNumber":59,"Velocity":44,"Duration":351185,"SoundDuration":351185,"Delta":21060315},{"NoteNumber":55,"Velocity":44,"Duration":351185,"SoundDuration":351185,"Delta":21060315},{"NoteNumber":67,"Velocity":49,"Duration":175592,"SoundDuration":175592,"Delta":21060315},{"NoteNumber":50,"Velocity":38,"Duration":351185,"SoundDuration":351185,"Delta":21060315},{"NoteNumber":67,"Velocity":50,"Duration":355661,"SoundDuration":355661,"Delta":21411500},{"NoteNumber":57,"Velocity":45,"Duration":355661,"SoundDuration":355661,"Delta":21411500},{"NoteNumber":60,"Velocity":45,"Duration":355661,"SoundDuration":355661,"Delta":21411500},{"NoteNumber":52,"Velocity":42,"Duration":355661,"SoundDuration":355661,"Delta":21411500},{"NoteNumber":43,"Velocity":49,"Duration":1051493,"SoundDuration":1051493,"Delta":21767161},{"NoteNumber":67,"Velocity":49,"Duration":174499,"SoundDuration":174499,"Delta":21938443},{"NoteNumber":55,"Velocity":44,"Duration":351185,"SoundDuration":351185,"Delta":22112943},{"NoteNumber":59,"Velocity":44,"Duration":351185,"SoundDuration":351185,"Delta":22112943},{"NoteNumber":67,"Velocity":49,"Duration":175592,"SoundDuration":175592,"Delta":22112943},{"NoteNumber":50,"Velocity":38,"Duration":351185,"SoundDuration":351185,"Delta":22112943},{"NoteNumber":57,"Velocity":45,"Duration":354525,"SoundDuration":354525,"Delta":22464128},{"NoteNumber":60,"Velocity":45,"Duration":354525,"SoundDuration":354525,"Delta":22464128},{"NoteNumber":67,"Velocity":50,"Duration":354525,"SoundDuration":354525,"Delta":22464128},{"NoteNumber":52,"Velocity":39,"Duration":354525,"SoundDuration":354525,"Delta":22464128},{"NoteNumber":43,"Velocity":49,"Duration":1041616,"SoundDuration":1041616,"Delta":22818654},{"NoteNumber":67,"Velocity":49,"Duration":348463,"SoundDuration":348463,"Delta":23163343},{"NoteNumber":57,"Velocity":44,"Duration":172871,"SoundDuration":172871,"Delta":23163343},{"NoteNumber":60,"Velocity":44,"Duration":172871,"SoundDuration":172871,"Delta":23163343},{"NoteNumber":52,"Velocity":40,"Duration":348463,"SoundDuration":348463,"Delta":23163343},{"NoteNumber":64,"Velocity":40,"Duration":175592,"SoundDuration":175592,"Delta":23336214},{"NoteNumber":67,"Velocity":50,"Duration":348463,"SoundDuration":348463,"Delta":23511807},{"NoteNumber":62,"Velocity":45,"Duration":172871,"SoundDuration":172871,"Delta":23511807},{"NoteNumber":54,"Velocity":40,"Duration":348463,"SoundDuration":348463,"Delta":23511807},{"NoteNumber":60,"Velocity":44,"Duration":175592,"SoundDuration":175592,"Delta":23684678},{"NoteNumber":59,"Velocity":47,"Duration":175592,"SoundDuration":175592,"Delta":23860270},{"NoteNumber":67,"Velocity":52,"Duration":351185,"SoundDuration":351185,"Delta":23860270},{"NoteNumber":43,"Velocity":49,"Duration":1058198,"SoundDuration":1058198,"Delta":23860270},{"NoteNumber":60,"Velocity":42,"Duration":175592,"SoundDuration":175592,"Delta":24035863},{"NoteNumber":59,"Velocity":41,"Duration":175778,"SoundDuration":175778,"Delta":24211455},{"NoteNumber":55,"Velocity":44,"Duration":352202,"SoundDuration":352202,"Delta":24211455},{"NoteNumber":58,"Velocity":40,"Duration":176424,"SoundDuration":176424,"Delta":24387233},{"NoteNumber":57,"Velocity":39,"Duration":177075,"SoundDuration":177075,"Delta":24563658},{"NoteNumber":56,"Velocity":39,"Duration":177735,"SoundDuration":177735,"Delta":24740733},{"NoteNumber":55,"Velocity":49,"Duration":1040405,"SoundDuration":1040405,"Delta":24918469},{"NoteNumber":79,"Velocity":49,"Duration":170241,"SoundDuration":170241,"Delta":25086151},{"NoteNumber":71,"Velocity":44,"Duration":346820,"SoundDuration":346820,"Delta":25256392},{"NoteNumber":67,"Velocity":44,"Duration":346820,"SoundDuration":346820,"Delta":25256392},{"NoteNumber":79,"Velocity":49,"Duration":173410,"SoundDuration":173410,"Delta":25256392},{"NoteNumber":62,"Velocity":38,"Duration":346820,"SoundDuration":346820,"Delta":25256392},{"NoteNumber":69,"Velocity":45,"Duration":355661,"SoundDuration":355661,"Delta":25603213},{"NoteNumber":79,"Velocity":50,"Duration":355661,"SoundDuration":355661,"Delta":25603213},{"NoteNumber":72,"Velocity":45,"Duration":355661,"SoundDuration":355661,"Delta":25603213},{"NoteNumber":64,"Velocity":42,"Duration":355661,"SoundDuration":355661,"Delta":25603213},{"NoteNumber":55,"Velocity":49,"Duration":1044541,"SoundDuration":1044541,"Delta":25958874},{"NoteNumber":79,"Velocity":49,"Duration":171811,"SoundDuration":171811,"Delta":26128079},{"NoteNumber":79,"Velocity":49,"Duration":174499,"SoundDuration":174499,"Delta":26299890},{"NoteNumber":67,"Velocity":44,"Duration":349000,"SoundDuration":349000,"Delta":26299890},{"NoteNumber":71,"Velocity":44,"Duration":349000,"SoundDuration":349000,"Delta":26299890},{"NoteNumber":62,"Velocity":38,"Duration":349000,"SoundDuration":349000,"Delta":26299890},{"NoteNumber":69,"Velocity":45,"Duration":354525,"SoundDuration":354525,"Delta":26648890},{"NoteNumber":72,"Velocity":45,"Duration":354525,"SoundDuration":354525,"Delta":26648890},{"NoteNumber":79,"Velocity":50,"Duration":354525,"SoundDuration":354525,"Delta":26648890},{"NoteNumber":64,"Velocity":39,"Duration":354525,"SoundDuration":354525,"Delta":26648890},{"NoteNumber":55,"Velocity":49,"Duration":1039491,"SoundDuration":1039491,"Delta":27003416},{"NoteNumber":69,"Velocity":44,"Duration":172871,"SoundDuration":172871,"Delta":27345980},{"NoteNumber":72,"Velocity":44,"Duration":172871,"SoundDuration":172871,"Delta":27345980},{"NoteNumber":79,"Velocity":49,"Duration":348463,"SoundDuration":348463,"Delta":27345980},{"NoteNumber":64,"Velocity":40,"Duration":348463,"SoundDuration":348463,"Delta":27345980},{"NoteNumber":76,"Velocity":40,"Duration":175592,"SoundDuration":175592,"Delta":27518851},{"NoteNumber":74,"Velocity":45,"Duration":172871,"SoundDuration":172871,"Delta":27694444},{"NoteNumber":79,"Velocity":50,"Duration":348463,"SoundDuration":348463,"Delta":27694444},{"NoteNumber":66,"Velocity":40,"Duration":348463,"SoundDuration":348463,"Delta":27694444},{"NoteNumber":72,"Velocity":44,"Duration":175592,"SoundDuration":175592,"Delta":27867315},{"NoteNumber":79,"Velocity":52,"Duration":351185,"SoundDuration":351185,"Delta":28042907},{"NoteNumber":71,"Velocity":47,"Duration":175592,"SoundDuration":175592,"Delta":28042907},{"NoteNumber":67,"Velocity":44,"Duration":351185,"SoundDuration":351185,"Delta":28042907},{"NoteNumber":72,"Velocity":42,"Duration":175592,"SoundDuration":175592,"Delta":28218500},{"NoteNumber":71,"Velocity":41,"Duration":175778,"SoundDuration":175778,"Delta":28394092},{"NoteNumber":70,"Velocity":40,"Duration":176424,"SoundDuration":176424,"Delta":28569871},{"NoteNumber":69,"Velocity":39,"Duration":177075,"SoundDuration":177075,"Delta":28746295},{"NoteNumber":68,"Velocity":39,"Duration":177735,"SoundDuration":177735,"Delta":28923370},{"NoteNumber":43,"Velocity":49,"Duration":1051555,"SoundDuration":1051555,"Delta":29101106},{"NoteNumber":67,"Velocity":49,"Duration":173953,"SoundDuration":173953,"Delta":29271862},{"NoteNumber":55,"Velocity":44,"Duration":351185,"SoundDuration":351185,"Delta":29445815},{"NoteNumber":67,"Velocity":49,"Duration":175592,"SoundDuration":175592,"Delta":29445815},{"NoteNumber":59,"Velocity":44,"Duration":351185,"SoundDuration":351185,"Delta":29445815},{"NoteNumber":50,"Velocity":38,"Duration":351185,"SoundDuration":351185,"Delta":29445815},{"NoteNumber":57,"Velocity":45,"Duration":355661,"SoundDuration":355661,"Delta":29797000},{"NoteNumber":67,"Velocity":50,"Duration":355661,"SoundDuration":355661,"Delta":29797000},{"NoteNumber":60,"Velocity":45,"Duration":355661,"SoundDuration":355661,"Delta":29797000},{"NoteNumber":52,"Velocity":42,"Duration":355661,"SoundDuration":355661,"Delta":29797000},{"NoteNumber":43,"Velocity":49,"Duration":1051493,"SoundDuration":1051493,"Delta":30152661},{"NoteNumber":67,"Velocity":49,"Duration":174499,"SoundDuration":174499,"Delta":30323943},{"NoteNumber":59,"Velocity":44,"Duration":351185,"SoundDuration":351185,"Delta":30498443},{"NoteNumber":55,"Velocity":44,"Duration":351185,"SoundDuration":351185,"Delta":30498443},{"NoteNumber":67,"Velocity":49,"Duration":175592,"SoundDuration":175592,"Delta":30498443},{"NoteNumber":50,"Velocity":38,"Duration":351185,"SoundDuration":351185,"Delta":30498443},{"NoteNumber":67,"Velocity":50,"Duration":354525,"SoundDuration":354525,"Delta":30849628},{"NoteNumber":60,"Velocity":45,"Duration":354525,"SoundDuration":354525,"Delta":30849628},{"NoteNumber":57,"Velocity":45,"Duration":354525,"SoundDuration":354525,"Delta":30849628},{"NoteNumber":52,"Velocity":39,"Duration":354525,"SoundDuration":354525,"Delta":30849628},{"NoteNumber":43,"Velocity":49,"Duration":1041615,"SoundDuration":1041615,"Delta":31204154},{"NoteNumber":57,"Velocity":44,"Duration":172871,"SoundDuration":172871,"Delta":31548843},{"NoteNumber":67,"Velocity":49,"Duration":348463,"SoundDuration":348463,"Delta":31548843},{"NoteNumber":60,"Velocity":44,"Duration":172871,"SoundDuration":172871,"Delta":31548843},{"NoteNumber":52,"Velocity":40,"Duration":348463,"SoundDuration":348463,"Delta":31548843},{"NoteNumber":64,"Velocity":40,"Duration":175592,"SoundDuration":175592,"Delta":31721714},{"NoteNumber":67,"Velocity":50,"Duration":348463,"SoundDuration":348463,"Delta":31897307},{"NoteNumber":62,"Velocity":45,"Duration":172870,"SoundDuration":172870,"Delta":31897307},{"NoteNumber":54,"Velocity":40,"Duration":348463,"SoundDuration":348463,"Delta":31897307},{"NoteNumber":60,"Velocity":44,"Duration":175592,"SoundDuration":175592,"Delta":32070178},{"NoteNumber":59,"Velocity":47,"Duration":175592,"SoundDuration":175592,"Delta":32245770},{"NoteNumber":67,"Velocity":52,"Duration":351185,"SoundDuration":351185,"Delta":32245770},{"NoteNumber":43,"Velocity":49,"Duration":1058198,"SoundDuration":1058198,"Delta":32245770},{"NoteNumber":60,"Velocity":42,"Duration":175592,"SoundDuration":175592,"Delta":32421363},{"NoteNumber":59,"Velocity":41,"Duration":175778,"SoundDuration":175778,"Delta":32596955},{"NoteNumber":55,"Velocity":44,"Duration":352202,"SoundDuration":352202,"Delta":32596955},{"NoteNumber":58,"Velocity":40,"Duration":176424,"SoundDuration":176424,"Delta":32772733},{"NoteNumber":57,"Velocity":39,"Duration":177075,"SoundDuration":177075,"Delta":32949158},{"NoteNumber":56,"Velocity":39,"Duration":177735,"SoundDuration":177735,"Delta":33126233},{"NoteNumber":55,"Velocity":49,"Duration":1040405,"SoundDuration":1040405,"Delta":33303969},{"NoteNumber":79,"Velocity":49,"Duration":170241,"SoundDuration":170241,"Delta":33471651},{"NoteNumber":71,"Velocity":44,"Duration":346820,"SoundDuration":346820,"Delta":33641892},{"NoteNumber":79,"Velocity":49,"Duration":173410,"SoundDuration":173410,"Delta":33641892},{"NoteNumber":67,"Velocity":44,"Duration":346820,"SoundDuration":346820,"Delta":33641892},{"NoteNumber":62,"Velocity":38,"Duration":346820,"SoundDuration":346820,"Delta":33641892},{"NoteNumber":69,"Velocity":45,"Duration":355660,"SoundDuration":355660,"Delta":33988713},{"NoteNumber":72,"Velocity":45,"Duration":355660,"SoundDuration":355660,"Delta":33988713},{"NoteNumber":79,"Velocity":50,"Duration":355660,"SoundDuration":355660,"Delta":33988713},{"NoteNumber":64,"Velocity":42,"Duration":355660,"SoundDuration":355660,"Delta":33988713},{"NoteNumber":55,"Velocity":49,"Duration":1044541,"SoundDuration":1044541,"Delta":34344374},{"NoteNumber":79,"Velocity":49,"Duration":171811,"SoundDuration":171811,"Delta":34513579},{"NoteNumber":67,"Velocity":44,"Duration":348999,"SoundDuration":348999,"Delta":34685390},{"NoteNumber":79,"Velocity":49,"Duration":174500,"SoundDuration":174500,"Delta":34685390},{"NoteNumber":71,"Velocity":44,"Duration":348999,"SoundDuration":348999,"Delta":34685390},{"NoteNumber":62,"Velocity":38,"Duration":348999,"SoundDuration":348999,"Delta":34685390},{"NoteNumber":69,"Velocity":45,"Duration":354525,"SoundDuration":354525,"Delta":35034390},{"NoteNumber":72,"Velocity":45,"Duration":354525,"SoundDuration":354525,"Delta":35034390},{"NoteNumber":79,"Velocity":50,"Duration":354525,"SoundDuration":354525,"Delta":35034390},{"NoteNumber":64,"Velocity":39,"Duration":354525,"SoundDuration":354525,"Delta":35034390},{"NoteNumber":55,"Velocity":49,"Duration":1039491,"SoundDuration":1039491,"Delta":35388916},{"NoteNumber":69,"Velocity":55,"Duration":172871,"SoundDuration":172871,"Delta":35731480},{"NoteNumber":72,"Velocity":55,"Duration":172871,"SoundDuration":172871,"Delta":35731480},{"NoteNumber":79,"Velocity":55,"Duration":696927,"SoundDuration":696927,"Delta":35731480},{"NoteNumber":64,"Velocity":58,"Duration":696927,"SoundDuration":696927,"Delta":35731480},{"NoteNumber":76,"Velocity":52,"Duration":175592,"SoundDuration":175592,"Delta":35904351},{"NoteNumber":74,"Velocity":59,"Duration":172871,"SoundDuration":172871,"Delta":36079944},{"NoteNumber":72,"Velocity":55,"Duration":175592,"SoundDuration":175592,"Delta":36252815},{"NoteNumber":79,"Velocity":71,"Duration":1050893,"SoundDuration":1050893,"Delta":36428407},{"NoteNumber":71,"Velocity":71,"Duration":175592,"SoundDuration":175592,"Delta":36428407},{"NoteNumber":65,"Velocity":57,"Duration":3556264,"SoundDuration":3556264,"Delta":36428407},{"NoteNumber":76,"Velocity":62,"Duration":178401,"SoundDuration":178401,"Delta":36604000},{"NoteNumber":74,"Velocity":69,"Duration":175039,"SoundDuration":175039,"Delta":36782401},{"NoteNumber":72,"Velocity":61,"Duration":175039,"SoundDuration":175039,"Delta":36957441},{"NoteNumber":71,"Velocity":64,"Duration":520231,"SoundDuration":520231,"Delta":37132480},{"NoteNumber":74,"Velocity":58,"Duration":172871,"SoundDuration":172871,"Delta":37652712},{"NoteNumber":72,"Velocity":61,"Duration":172871,"SoundDuration":172871,"Delta":37825583},{"NoteNumber":71,"Velocity":56,"Duration":172871,"SoundDuration":172871,"Delta":37998454},{"NoteNumber":69,"Velocity":59,"Duration":524857,"SoundDuration":524857,"Delta":38171325},{"NoteNumber":72,"Velocity":48,"Duration":177647,"SoundDuration":177647,"Delta":38696183},{"NoteNumber":71,"Velocity":53,"Duration":179545,"SoundDuration":179545,"Delta":38873831},{"NoteNumber":69,"Velocity":50,"Duration":181295,"SoundDuration":181295,"Delta":39053376},{"NoteNumber":67,"Velocity":44,"Duration":750000,"SoundDuration":750000,"Delta":39234671},{"NoteNumber":65,"Velocity":38,"Duration":1051735,"SoundDuration":1051735,"Delta":39984671},{"NoteNumber":67,"Velocity":47,"Duration":695652,"SoundDuration":695652,"Delta":40340754},{"NoteNumber":65,"Velocity":44,"Duration":1034483,"SoundDuration":1034483,"Delta":41036407},{"NoteNumber":67,"Velocity":53,"Duration":689655,"SoundDuration":689655,"Delta":41381235},{"NoteNumber":65,"Velocity":48,"Duration":673777,"SoundDuration":673777,"Delta":42070890},{"NoteNumber":67,"Velocity":58,"Duration":667741,"SoundDuration":667741,"Delta":42409302},{"NoteNumber":65,"Velocity":51,"Duration":661805,"SoundDuration":661805,"Delta":42744668},{"NoteNumber":67,"Velocity":63,"Duration":655969,"SoundDuration":655969,"Delta":43077043},{"NoteNumber":65,"Velocity":55,"Duration":657411,"SoundDuration":657411,"Delta":43406474},{"NoteNumber":67,"Velocity":67,"Duration":644062,"SoundDuration":644062,"Delta":43733012},{"NoteNumber":36,"Velocity":73,"Duration":357931,"SoundDuration":357931,"Delta":44063885},{"NoteNumber":43,"Velocity":73,"Duration":357931,"SoundDuration":357931,"Delta":44063885},{"NoteNumber":71,"Velocity":69,"Duration":722800,"SoundDuration":722800,"Delta":44377074},{"NoteNumber":65,"Velocity":61,"Duration":722800,"SoundDuration":722800,"Delta":44377074},{"NoteNumber":76,"Velocity":78,"Duration":505714,"SoundDuration":505714,"Delta":44421816},{"NoteNumber":67,"Velocity":63,"Duration":678059,"SoundDuration":678059,"Delta":44421816},{"NoteNumber":74,"Velocity":74,"Duration":129258,"SoundDuration":129258,"Delta":44927530},{"NoteNumber":72,"Velocity":64,"Duration":43086,"SoundDuration":43086,"Delta":45056789},{"NoteNumber":76,"Velocity":79,"Duration":172344,"SoundDuration":172344,"Delta":45099875},{"NoteNumber":64,"Velocity":70,"Duration":172344,"SoundDuration":172344,"Delta":45099875},{"NoteNumber":36,"Velocity":73,"Duration":344688,"SoundDuration":344688,"Delta":45099875},{"NoteNumber":43,"Velocity":73,"Duration":344688,"SoundDuration":344688,"Delta":45099875},{"NoteNumber":71,"Velocity":73,"Duration":64629,"SoundDuration":64629,"Delta":45358391},{"NoteNumber":64,"Velocity":66,"Duration":172344,"SoundDuration":172344,"Delta":45444564},{"NoteNumber":72,"Velocity":79,"Duration":172344,"SoundDuration":172344,"Delta":45444564},{"NoteNumber":55,"Velocity":59,"Duration":344689,"SoundDuration":344689,"Delta":45444564},{"NoteNumber":74,"Velocity":69,"Duration":64629,"SoundDuration":64629,"Delta":45703080},{"NoteNumber":76,"Velocity":81,"Duration":307286,"SoundDuration":307286,"Delta":45789253},{"NoteNumber":64,"Velocity":73,"Duration":307286,"SoundDuration":307286,"Delta":45789253},{"NoteNumber":60,"Velocity":67,"Duration":351185,"SoundDuration":351185,"Delta":45789253},{"NoteNumber":72,"Velocity":55,"Duration":213619,"SoundDuration":213619,"Delta":46096540},{"NoteNumber":76,"Velocity":59,"Duration":169721,"SoundDuration":169721,"Delta":46140438},{"NoteNumber":50,"Velocity":55,"Duration":339184,"SoundDuration":339184,"Delta":46140438},{"NoteNumber":78,"Velocity":53,"Duration":63451,"SoundDuration":63451,"Delta":46395020},{"NoteNumber":79,"Velocity":59,"Duration":85905,"SoundDuration":85905,"Delta":46479622},{"NoteNumber":72,"Velocity":52,"Duration":85905,"SoundDuration":85905,"Delta":46479622},{"NoteNumber":64,"Velocity":53,"Duration":85905,"SoundDuration":85905,"Delta":46479622},{"NoteNumber":81,"Velocity":61,"Duration":90063,"SoundDuration":90063,"Delta":46823245},{"NoteNumber":72,"Velocity":55,"Duration":90063,"SoundDuration":90063,"Delta":46823245},{"NoteNumber":66,"Velocity":56,"Duration":90063,"SoundDuration":90063,"Delta":46823245},{"NoteNumber":79,"Velocity":57,"Duration":45031,"SoundDuration":45031,"Delta":47138466},{"NoteNumber":71,"Velocity":58,"Duration":691530,"SoundDuration":691530,"Delta":47183497},{"NoteNumber":83,"Velocity":64,"Duration":691530,"SoundDuration":691530,"Delta":47183497},{"NoteNumber":67,"Velocity":63,"Duration":343623,"SoundDuration":343623,"Delta":47183497},{"NoteNumber":62,"Velocity":58,"Duration":347906,"SoundDuration":347906,"Delta":47527120},{"NoteNumber":79,"Velocity":60,"Duration":300670,"SoundDuration":300670,"Delta":47875027},{"NoteNumber":71,"Velocity":53,"Duration":300670,"SoundDuration":300670,"Delta":47875027},{"NoteNumber":55,"Velocity":57,"Duration":300670,"SoundDuration":300670,"Delta":47875027},{"NoteNumber":77,"Velocity":61,"Duration":42952,"SoundDuration":42952,"Delta":48175697},{"NoteNumber":81,"Velocity":73,"Duration":171811,"SoundDuration":171811,"Delta":48218650},{"NoteNumber":60,"Velocity":62,"Duration":348510,"SoundDuration":348510,"Delta":48218650},{"NoteNumber":53,"Velocity":62,"Duration":348510,"SoundDuration":348510,"Delta":48218650},{"NoteNumber":83,"Velocity":70,"Duration":176699,"SoundDuration":176699,"Delta":48390462},{"NoteNumber":84,"Velocity":75,"Duration":113147,"SoundDuration":113147,"Delta":48567161},{"NoteNumber":77,"Velocity":67,"Duration":685185,"SoundDuration":685185,"Delta":48567161},{"NoteNumber":69,"Velocity":67,"Duration":685185,"SoundDuration":685185,"Delta":48567161},{"NoteNumber":62,"Velocity":60,"Duration":685185,"SoundDuration":685185,"Delta":48567161},{"NoteNumber":86,"Velocity":67,"Duration":113147,"SoundDuration":113147,"Delta":48680309},{"NoteNumber":84,"Velocity":67,"Duration":113147,"SoundDuration":113147,"Delta":48793457},{"NoteNumber":83,"Velocity":72,"Duration":172871,"SoundDuration":172871,"Delta":48906604},{"NoteNumber":81,"Velocity":63,"Duration":172871,"SoundDuration":172871,"Delta":49079475},{"NoteNumber":79,"Velocity":75,"Duration":256923,"SoundDuration":256923,"Delta":49252346},{"NoteNumber":76,"Velocity":67,"Duration":256923,"SoundDuration":256923,"Delta":49252346},{"NoteNumber":55,"Velocity":56,"Duration":344899,"SoundDuration":344899,"Delta":49252346},{"NoteNumber":76,"Velocity":59,"Duration":65982,"SoundDuration":65982,"Delta":49509269},{"NoteNumber":79,"Velocity":66,"Duration":65982,"SoundDuration":65982,"Delta":49509269},{"NoteNumber":77,"Velocity":67,"Duration":347906,"SoundDuration":347906,"Delta":49597246},{"NoteNumber":74,"Velocity":60,"Duration":347906,"SoundDuration":347906,"Delta":49597246},{"NoteNumber":67,"Velocity":58,"Duration":695813,"SoundDuration":695813,"Delta":49597246},{"NoteNumber":72,"Velocity":56,"Duration":347906,"SoundDuration":347906,"Delta":49945153},{"NoteNumber":76,"Velocity":62,"Duration":347906,"SoundDuration":347906,"Delta":49945153},{"NoteNumber":71,"Velocity":59,"Duration":256923,"SoundDuration":256923,"Delta":50293060},{"NoteNumber":74,"Velocity":66,"Duration":256923,"SoundDuration":256923,"Delta":50293060},{"NoteNumber":55,"Velocity":50,"Duration":345158,"SoundDuration":345158,"Delta":50293060},{"NoteNumber":71,"Velocity":53,"Duration":66176,"SoundDuration":66176,"Delta":50549983},{"NoteNumber":74,"Velocity":60,"Duration":66176,"SoundDuration":66176,"Delta":50549983},{"NoteNumber":79,"Velocity":64,"Duration":693641,"SoundDuration":693641,"Delta":50638218},{"NoteNumber":69,"Velocity":50,"Duration":346820,"SoundDuration":346820,"Delta":50985039},{"NoteNumber":76,"Velocity":56,"Duration":346820,"SoundDuration":346820,"Delta":50985039},{"NoteNumber":72,"Velocity":50,"Duration":346820,"SoundDuration":346820,"Delta":50985039},{"NoteNumber":67,"Velocity":57,"Duration":346820,"SoundDuration":346820,"Delta":50985039},{"NoteNumber":72,"Velocity":60,"Duration":260115,"SoundDuration":260115,"Delta":51331860},{"NoteNumber":69,"Velocity":53,"Duration":260115,"SoundDuration":260115,"Delta":51331860},{"NoteNumber":55,"Velocity":51,"Duration":349668,"SoundDuration":349668,"Delta":51331860},{"NoteNumber":72,"Velocity":57,"Duration":67164,"SoundDuration":67164,"Delta":51591976},{"NoteNumber":69,"Velocity":51,"Duration":67164,"SoundDuration":67164,"Delta":51591976},{"NoteNumber":79,"Velocity":61,"Duration":693641,"SoundDuration":693641,"Delta":51681528},{"NoteNumber":71,"Velocity":48,"Duration":346820,"SoundDuration":346820,"Delta":52028349},{"NoteNumber":74,"Velocity":53,"Duration":346820,"SoundDuration":346820,"Delta":52028349},{"NoteNumber":67,"Velocity":56,"Duration":346820,"SoundDuration":346820,"Delta":52028349},{"NoteNumber":43,"Velocity":73,"Duration":357931,"SoundDuration":357931,"Delta":52375170},{"NoteNumber":36,"Velocity":73,"Duration":357931,"SoundDuration":357931,"Delta":52375170},{"NoteNumber":71,"Velocity":69,"Duration":722800,"SoundDuration":722800,"Delta":52688360},{"NoteNumber":65,"Velocity":62,"Duration":722800,"SoundDuration":722800,"Delta":52688360},{"NoteNumber":76,"Velocity":78,"Duration":505714,"SoundDuration":505714,"Delta":52733101},{"NoteNumber":67,"Velocity":63,"Duration":678059,"SoundDuration":678059,"Delta":52733101},{"NoteNumber":74,"Velocity":74,"Duration":129258,"SoundDuration":129258,"Delta":53238815},{"NoteNumber":72,"Velocity":64,"Duration":43086,"SoundDuration":43086,"Delta":53368074},{"NoteNumber":76,"Velocity":79,"Duration":172344,"SoundDuration":172344,"Delta":53411160},{"NoteNumber":64,"Velocity":70,"Duration":172344,"SoundDuration":172344,"Delta":53411160},{"NoteNumber":36,"Velocity":73,"Duration":344688,"SoundDuration":344688,"Delta":53411160},{"NoteNumber":43,"Velocity":73,"Duration":344688,"SoundDuration":344688,"Delta":53411160},{"NoteNumber":71,"Velocity":73,"Duration":64629,"SoundDuration":64629,"Delta":53669677},{"NoteNumber":64,"Velocity":67,"Duration":172344,"SoundDuration":172344,"Delta":53755849},{"NoteNumber":72,"Velocity":79,"Duration":172344,"SoundDuration":172344,"Delta":53755849},{"NoteNumber":55,"Velocity":59,"Duration":344689,"SoundDuration":344689,"Delta":53755849},{"NoteNumber":74,"Velocity":69,"Duration":64629,"SoundDuration":64629,"Delta":54014366},{"NoteNumber":76,"Velocity":81,"Duration":307286,"SoundDuration":307286,"Delta":54100538},{"NoteNumber":64,"Velocity":73,"Duration":307286,"SoundDuration":307286,"Delta":54100538},{"NoteNumber":60,"Velocity":67,"Duration":351185,"SoundDuration":351185,"Delta":54100538},{"NoteNumber":72,"Velocity":52,"Duration":213619,"SoundDuration":213619,"Delta":54407825},{"NoteNumber":76,"Velocity":59,"Duration":169721,"SoundDuration":169721,"Delta":54451723},{"NoteNumber":50,"Velocity":55,"Duration":339184,"SoundDuration":339184,"Delta":54451723},{"NoteNumber":78,"Velocity":53,"Duration":63451,"SoundDuration":63451,"Delta":54706305},{"NoteNumber":79,"Velocity":59,"Duration":85905,"SoundDuration":85905,"Delta":54790907},{"NoteNumber":72,"Velocity":52,"Duration":85905,"SoundDuration":85905,"Delta":54790907},{"NoteNumber":64,"Velocity":53,"Duration":85905,"SoundDuration":85905,"Delta":54790907},{"NoteNumber":72,"Velocity":55,"Duration":90063,"SoundDuration":90063,"Delta":55134530},{"NoteNumber":81,"Velocity":61,"Duration":90063,"SoundDuration":90063,"Delta":55134530},{"NoteNumber":66,"Velocity":56,"Duration":90063,"SoundDuration":90063,"Delta":55134530},{"NoteNumber":79,"Velocity":59,"Duration":45031,"SoundDuration":45031,"Delta":55449751},{"NoteNumber":83,"Velocity":64,"Duration":691530,"SoundDuration":691530,"Delta":55494782},{"NoteNumber":71,"Velocity":58,"Duration":691530,"SoundDuration":691530,"Delta":55494782},{"NoteNumber":67,"Velocity":63,"Duration":343623,"SoundDuration":343623,"Delta":55494782},{"NoteNumber":62,"Velocity":57,"Duration":347906,"SoundDuration":347906,"Delta":55838405},{"NoteNumber":71,"Velocity":53,"Duration":300670,"SoundDuration":300670,"Delta":56186312},{"NoteNumber":79,"Velocity":60,"Duration":300670,"SoundDuration":300670,"Delta":56186312},{"NoteNumber":55,"Velocity":57,"Duration":300670,"SoundDuration":300670,"Delta":56186312},{"NoteNumber":77,"Velocity":66,"Duration":42952,"SoundDuration":42952,"Delta":56486983},{"NoteNumber":81,"Velocity":73,"Duration":178965,"SoundDuration":178965,"Delta":56529935},{"NoteNumber":60,"Velocity":62,"Duration":355664,"SoundDuration":355664,"Delta":56529935},{"NoteNumber":53,"Velocity":62,"Duration":355664,"SoundDuration":355664,"Delta":56529935},{"NoteNumber":83,"Velocity":70,"Duration":176699,"SoundDuration":176699,"Delta":56708901},{"NoteNumber":84,"Velocity":75,"Duration":113147,"SoundDuration":113147,"Delta":56885600},{"NoteNumber":77,"Velocity":67,"Duration":685185,"SoundDuration":685185,"Delta":56885600},{"NoteNumber":69,"Velocity":67,"Duration":685185,"SoundDuration":685185,"Delta":56885600},{"NoteNumber":62,"Velocity":60,"Duration":685185,"SoundDuration":685185,"Delta":56885600},{"NoteNumber":86,"Velocity":67,"Duration":113147,"SoundDuration":113147,"Delta":56998748},{"NoteNumber":84,"Velocity":67,"Duration":113147,"SoundDuration":113147,"Delta":57111896},{"NoteNumber":83,"Velocity":72,"Duration":172871,"SoundDuration":172871,"Delta":57225043},{"NoteNumber":81,"Velocity":63,"Duration":172871,"SoundDuration":172871,"Delta":57397914},{"NoteNumber":76,"Velocity":67,"Duration":256923,"SoundDuration":256923,"Delta":57570785},{"NoteNumber":79,"Velocity":75,"Duration":256923,"SoundDuration":256923,"Delta":57570785},{"NoteNumber":55,"Velocity":56,"Duration":345418,"SoundDuration":345418,"Delta":57570785},{"NoteNumber":79,"Velocity":66,"Duration":66371,"SoundDuration":66371,"Delta":57827708},{"NoteNumber":76,"Velocity":59,"Duration":66371,"SoundDuration":66371,"Delta":57827708},{"NoteNumber":77,"Velocity":67,"Duration":347906,"SoundDuration":347906,"Delta":57916204},{"NoteNumber":74,"Velocity":60,"Duration":347906,"SoundDuration":347906,"Delta":57916204},{"NoteNumber":67,"Velocity":58,"Duration":695813,"SoundDuration":695813,"Delta":57916204},{"NoteNumber":76,"Velocity":62,"Duration":347906,"SoundDuration":347906,"Delta":58264111},{"NoteNumber":72,"Velocity":56,"Duration":347906,"SoundDuration":347906,"Delta":58264111},{"NoteNumber":71,"Velocity":59,"Duration":256923,"SoundDuration":256923,"Delta":58612018},{"NoteNumber":74,"Velocity":66,"Duration":256923,"SoundDuration":256923,"Delta":58612018},{"NoteNumber":55,"Velocity":50,"Duration":345158,"SoundDuration":345158,"Delta":58612018},{"NoteNumber":74,"Velocity":60,"Duration":66176,"SoundDuration":66176,"Delta":58868941},{"NoteNumber":71,"Velocity":53,"Duration":66176,"SoundDuration":66176,"Delta":58868941},{"NoteNumber":79,"Velocity":64,"Duration":693641,"SoundDuration":693641,"Delta":58957176},{"NoteNumber":76,"Velocity":56,"Duration":346820,"SoundDuration":346820,"Delta":59303997},{"NoteNumber":69,"Velocity":50,"Duration":346820,"SoundDuration":346820,"Delta":59303997},{"NoteNumber":72,"Velocity":50,"Duration":346820,"SoundDuration":346820,"Delta":59303997},{"NoteNumber":67,"Velocity":50,"Duration":346820,"SoundDuration":346820,"Delta":59303997},{"NoteNumber":65,"Velocity":51,"Duration":696381,"SoundDuration":696381,"Delta":59650818},{"NoteNumber":74,"Velocity":57,"Duration":346821,"SoundDuration":346821,"Delta":59650818},{"NoteNumber":71,"Velocity":51,"Duration":696381,"SoundDuration":696381,"Delta":59650818},{"NoteNumber":67,"Velocity":55,"Duration":696381,"SoundDuration":696381,"Delta":59650818},{"NoteNumber":76,"Velocity":57,"Duration":173410,"SoundDuration":173410,"Delta":59997639},{"NoteNumber":74,"Velocity":55,"Duration":176149,"SoundDuration":176149,"Delta":60171050},{"NoteNumber":64,"Velocity":48,"Duration":361423,"SoundDuration":361423,"Delta":60347199},{"NoteNumber":72,"Velocity":53,"Duration":361423,"SoundDuration":361423,"Delta":60347199},{"NoteNumber":60,"Velocity":46,"Duration":361423,"SoundDuration":361423,"Delta":60347199},{"NoteNumber":51,"Velocity":46,"Duration":1135485,"SoundDuration":1135485,"Delta":60708623},{"NoteNumber":63,"Velocity":55,"Duration":752588,"SoundDuration":752588,"Delta":61091520},{"NoteNumber":62,"Velocity":39,"Duration":376294,"SoundDuration":376294,"Delta":61467814},{"NoteNumber":51,"Velocity":46,"Duration":1137747,"SoundDuration":1137747,"Delta":61844108},{"NoteNumber":63,"Velocity":55,"Duration":752588,"SoundDuration":752588,"Delta":62229267},{"NoteNumber":62,"Velocity":40,"Duration":376294,"SoundDuration":376294,"Delta":62605561},{"NoteNumber":51,"Velocity":46,"Duration":1133249,"SoundDuration":1133249,"Delta":62981855},{"NoteNumber":63,"Velocity":52,"Duration":752587,"SoundDuration":752587,"Delta":63362517},{"NoteNumber":62,"Velocity":40,"Duration":376293,"SoundDuration":376293,"Delta":63738811},{"NoteNumber":51,"Velocity":45,"Duration":1132278,"SoundDuration":1132278,"Delta":64115105},{"NoteNumber":65,"Velocity":55,"Duration":376294,"SoundDuration":376294,"Delta":64498002},{"NoteNumber":63,"Velocity":46,"Duration":376294,"SoundDuration":376294,"Delta":64498002},{"NoteNumber":63,"Velocity":49,"Duration":1131433,"SoundDuration":1131433,"Delta":64498002},{"NoteNumber":67,"Velocity":55,"Duration":186543,"SoundDuration":186543,"Delta":64874296},{"NoteNumber":62,"Velocity":45,"Duration":373087,"SoundDuration":373087,"Delta":64874296},{"NoteNumber":68,"Velocity":53,"Duration":186543,"SoundDuration":186543,"Delta":65060840},{"NoteNumber":70,"Velocity":57,"Duration":186012,"SoundDuration":186012,"Delta":65247384},{"NoteNumber":51,"Velocity":47,"Duration":1130370,"SoundDuration":1130370,"Delta":65247384},{"NoteNumber":72,"Velocity":57,"Duration":196039,"SoundDuration":196039,"Delta":65433396},{"NoteNumber":70,"Velocity":60,"Duration":376294,"SoundDuration":376294,"Delta":65629436},{"NoteNumber":63,"Velocity":50,"Duration":1128154,"SoundDuration":1128154,"Delta":65629436},{"NoteNumber":61,"Velocity":49,"Duration":376294,"SoundDuration":376294,"Delta":65629436},{"NoteNumber":68,"Velocity":60,"Duration":186012,"SoundDuration":186012,"Delta":66005730},{"NoteNumber":60,"Velocity":44,"Duration":372024,"SoundDuration":372024,"Delta":66005730},{"NoteNumber":67,"Velocity":59,"Duration":186012,"SoundDuration":186012,"Delta":66191742},{"NoteNumber":65,"Velocity":56,"Duration":184967,"SoundDuration":184967,"Delta":66377754},{"NoteNumber":51,"Velocity":45,"Duration":1127096,"SoundDuration":1127096,"Delta":66377754},{"NoteNumber":67,"Velocity":57,"Duration":194868,"SoundDuration":194868,"Delta":66562722},{"NoteNumber":68,"Velocity":56,"Duration":376294,"SoundDuration":376294,"Delta":66757591},{"NoteNumber":63,"Velocity":47,"Duration":1131284,"SoundDuration":1131284,"Delta":66757591},{"NoteNumber":60,"Velocity":49,"Duration":376294,"SoundDuration":376294,"Delta":66757591},{"NoteNumber":67,"Velocity":53,"Duration":185483,"SoundDuration":185483,"Delta":67133885},{"NoteNumber":59,"Velocity":45,"Duration":370965,"SoundDuration":370965,"Delta":67133885},{"NoteNumber":65,"Velocity":50,"Duration":185482,"SoundDuration":185482,"Delta":67319368},{"NoteNumber":67,"Velocity":55,"Duration":96006,"SoundDuration":96006,"Delta":67504851},{"NoteNumber":51,"Velocity":44,"Duration":1147258,"SoundDuration":1147258,"Delta":67504851},{"NoteNumber":63,"Velocity":50,"Duration":763233,"SoundDuration":763233,"Delta":67888876},{"NoteNumber":58,"Velocity":45,"Duration":377381,"SoundDuration":377381,"Delta":67888876},{"NoteNumber":59,"Velocity":34,"Duration":385851,"SoundDuration":385851,"Delta":68266258},{"NoteNumber":51,"Velocity":42,"Duration":1129176,"SoundDuration":1129176,"Delta":68652110},{"NoteNumber":65,"Velocity":55,"Duration":376294,"SoundDuration":376294,"Delta":69035007},{"NoteNumber":63,"Velocity":46,"Duration":376294,"SoundDuration":376294,"Delta":69035007},{"NoteNumber":63,"Velocity":44,"Duration":1128331,"SoundDuration":1128331,"Delta":69035007},{"NoteNumber":67,"Velocity":55,"Duration":186543,"SoundDuration":186543,"Delta":69411301},{"NoteNumber":62,"Velocity":39,"Duration":369985,"SoundDuration":369985,"Delta":69411301},{"NoteNumber":68,"Velocity":53,"Duration":183441,"SoundDuration":183441,"Delta":69597845},{"NoteNumber":70,"Velocity":57,"Duration":186012,"SoundDuration":186012,"Delta":69781286},{"NoteNumber":51,"Velocity":41,"Duration":1126122,"SoundDuration":1126122,"Delta":69781286},{"NoteNumber":72,"Velocity":57,"Duration":196039,"SoundDuration":196039,"Delta":69967298},{"NoteNumber":70,"Velocity":60,"Duration":283553,"SoundDuration":283553,"Delta":70163338},{"NoteNumber":63,"Velocity":50,"Duration":1124021,"SoundDuration":1124021,"Delta":70163338},{"NoteNumber":61,"Velocity":44,"Duration":375006,"SoundDuration":375006,"Delta":70163338},{"NoteNumber":72,"Velocity":57,"Duration":45726,"SoundDuration":45726,"Delta":70446892},{"NoteNumber":70,"Velocity":52,"Duration":45726,"SoundDuration":45726,"Delta":70492618},{"NoteNumber":68,"Velocity":60,"Duration":183981,"SoundDuration":183981,"Delta":70538344},{"NoteNumber":60,"Velocity":39,"Duration":369063,"SoundDuration":369063,"Delta":70538344},{"NoteNumber":67,"Velocity":59,"Duration":185082,"SoundDuration":185082,"Delta":70722326},{"NoteNumber":65,"Velocity":58,"Duration":185082,"SoundDuration":185082,"Delta":70907408},{"NoteNumber":51,"Velocity":39,"Duration":1126191,"SoundDuration":1126191,"Delta":70907408},{"NoteNumber":67,"Velocity":57,"Duration":194868,"SoundDuration":194868,"Delta":71092491},{"NoteNumber":68,"Velocity":56,"Duration":283553,"SoundDuration":283553,"Delta":71287359},{"NoteNumber":63,"Velocity":47,"Duration":1130265,"SoundDuration":1130265,"Delta":71287359},{"NoteNumber":60,"Velocity":44,"Duration":375274,"SoundDuration":375274,"Delta":71287359},{"NoteNumber":67,"Velocity":48,"Duration":45860,"SoundDuration":45860,"Delta":71570913},{"NoteNumber":68,"Velocity":45,"Duration":45860,"SoundDuration":45860,"Delta":71616774},{"NoteNumber":67,"Velocity":53,"Duration":185483,"SoundDuration":185483,"Delta":71662634},{"NoteNumber":59,"Velocity":39,"Duration":370965,"SoundDuration":370965,"Delta":71662634},{"NoteNumber":65,"Velocity":50,"Duration":185482,"SoundDuration":185482,"Delta":71848117},{"NoteNumber":67,"Velocity":55,"Duration":96006,"SoundDuration":96006,"Delta":72033600},{"NoteNumber":51,"Velocity":39,"Duration":1138788,"SoundDuration":1138788,"Delta":72033600},{"NoteNumber":63,"Velocity":50,"Duration":754763,"SoundDuration":754763,"Delta":72417625},{"NoteNumber":59,"Velocity":39,"Duration":377381,"SoundDuration":377381,"Delta":72417625},{"NoteNumber":60,"Velocity":31,"Duration":377381,"SoundDuration":377381,"Delta":72795007},{"NoteNumber":44,"Velocity":48,"Duration":759191,"SoundDuration":759191,"Delta":73172389},{"NoteNumber":65,"Velocity":66,"Duration":376294,"SoundDuration":376294,"Delta":73555286},{"NoteNumber":63,"Velocity":55,"Duration":1128331,"SoundDuration":1128331,"Delta":73555286},{"NoteNumber":51,"Velocity":52,"Duration":746279,"SoundDuration":746279,"Delta":73555286},{"NoteNumber":67,"Velocity":66,"Duration":186543,"SoundDuration":186543,"Delta":73931580},{"NoteNumber":44,"Velocity":48,"Duration":369985,"SoundDuration":369985,"Delta":73931580},{"NoteNumber":68,"Velocity":63,"Duration":183441,"SoundDuration":183441,"Delta":74118124},{"NoteNumber":70,"Velocity":68,"Duration":186012,"SoundDuration":186012,"Delta":74301566},{"NoteNumber":43,"Velocity":49,"Duration":754491,"SoundDuration":754491,"Delta":74301566},{"NoteNumber":72,"Velocity":68,"Duration":196039,"SoundDuration":196039,"Delta":74487578},{"NoteNumber":70,"Velocity":72,"Duration":372438,"SoundDuration":372438,"Delta":74683618},{"NoteNumber":63,"Velocity":60,"Duration":1121453,"SoundDuration":1121453,"Delta":74683618},{"NoteNumber":51,"Velocity":52,"Duration":741502,"SoundDuration":741502,"Delta":74683618},{"NoteNumber":68,"Velocity":73,"Duration":183981,"SoundDuration":183981,"Delta":75056057},{"NoteNumber":43,"Velocity":49,"Duration":369063,"SoundDuration":369063,"Delta":75056057},{"NoteNumber":67,"Velocity":70,"Duration":185082,"SoundDuration":185082,"Delta":75240038},{"NoteNumber":65,"Velocity":71,"Duration":185082,"SoundDuration":185082,"Delta":75425121},{"NoteNumber":44,"Velocity":52,"Duration":755225,"SoundDuration":755225,"Delta":75425121},{"NoteNumber":67,"Velocity":69,"Duration":194868,"SoundDuration":194868,"Delta":75610203},{"NoteNumber":68,"Velocity":73,"Duration":283553,"SoundDuration":283553,"Delta":75805072},{"NoteNumber":63,"Velocity":61,"Duration":1130265,"SoundDuration":1130265,"Delta":75805072},{"NoteNumber":51,"Velocity":55,"Duration":746240,"SoundDuration":746240,"Delta":75805072},{"NoteNumber":67,"Velocity":68,"Duration":45860,"SoundDuration":45860,"Delta":76088626},{"NoteNumber":68,"Velocity":68,"Duration":45860,"SoundDuration":45860,"Delta":76134486},{"NoteNumber":67,"Velocity":77,"Duration":185483,"SoundDuration":185483,"Delta":76180346},{"NoteNumber":44,"Velocity":52,"Duration":370965,"SoundDuration":370965,"Delta":76180346},{"NoteNumber":65,"Velocity":72,"Duration":185482,"SoundDuration":185482,"Delta":76365829},{"NoteNumber":67,"Velocity":77,"Duration":96006,"SoundDuration":96006,"Delta":76551312},{"NoteNumber":46,"Velocity":53,"Duration":761406,"SoundDuration":761406,"Delta":76551312},{"NoteNumber":63,"Velocity":70,"Duration":754763,"SoundDuration":754763,"Delta":76935337},{"NoteNumber":51,"Velocity":59,"Duration":754763,"SoundDuration":754763,"Delta":76935337},{"NoteNumber":46,"Velocity":52,"Duration":377381,"SoundDuration":377381,"Delta":77312719},{"NoteNumber":47,"Velocity":52,"Duration":759191,"SoundDuration":759191,"Delta":77690101},{"NoteNumber":65,"Velocity":66,"Duration":376294,"SoundDuration":376294,"Delta":78072998},{"NoteNumber":63,"Velocity":55,"Duration":1128331,"SoundDuration":1128331,"Delta":78072998},{"NoteNumber":51,"Velocity":52,"Duration":746279,"SoundDuration":746279,"Delta":78072998},{"NoteNumber":67,"Velocity":66,"Duration":186543,"SoundDuration":186543,"Delta":78449292},{"NoteNumber":47,"Velocity":48,"Duration":369985,"SoundDuration":369985,"Delta":78449292},{"NoteNumber":68,"Velocity":63,"Duration":183441,"SoundDuration":183441,"Delta":78635836},{"NoteNumber":70,"Velocity":68,"Duration":186012,"SoundDuration":186012,"Delta":78819278},{"NoteNumber":46,"Velocity":49,"Duration":757058,"SoundDuration":757058,"Delta":78819278},{"NoteNumber":72,"Velocity":68,"Duration":196039,"SoundDuration":196039,"Delta":79005290},{"NoteNumber":70,"Velocity":72,"Duration":283553,"SoundDuration":283553,"Delta":79201330},{"NoteNumber":63,"Velocity":60,"Duration":1124021,"SoundDuration":1124021,"Delta":79201330},{"NoteNumber":51,"Velocity":52,"Duration":744070,"SoundDuration":744070,"Delta":79201330},{"NoteNumber":72,"Velocity":61,"Duration":45726,"SoundDuration":45726,"Delta":79484884},{"NoteNumber":70,"Velocity":61,"Duration":45726,"SoundDuration":45726,"Delta":79530610},{"NoteNumber":68,"Velocity":69,"Duration":183981,"SoundDuration":183981,"Delta":79576336},{"NoteNumber":46,"Velocity":49,"Duration":369063,"SoundDuration":369063,"Delta":79576336},{"NoteNumber":67,"Velocity":60,"Duration":185082,"SoundDuration":185082,"Delta":79760318},{"NoteNumber":65,"Velocity":62,"Duration":185082,"SoundDuration":185082,"Delta":79945400},{"NoteNumber":46,"Velocity":46,"Duration":755225,"SoundDuration":755225,"Delta":79945400},{"NoteNumber":67,"Velocity":57,"Duration":194868,"SoundDuration":194868,"Delta":80130483},{"NoteNumber":68,"Velocity":61,"Duration":283553,"SoundDuration":283553,"Delta":80325351},{"NoteNumber":63,"Velocity":61,"Duration":1130265,"SoundDuration":1130265,"Delta":80325351},{"NoteNumber":51,"Velocity":47,"Duration":746240,"SoundDuration":746240,"Delta":80325351},{"NoteNumber":67,"Velocity":53,"Duration":45860,"SoundDuration":45860,"Delta":80608905},{"NoteNumber":68,"Velocity":55,"Duration":45860,"SoundDuration":45860,"Delta":80654766},{"NoteNumber":67,"Velocity":62,"Duration":185483,"SoundDuration":185483,"Delta":80700626},{"NoteNumber":46,"Velocity":44,"Duration":370965,"SoundDuration":370965,"Delta":80700626},{"NoteNumber":65,"Velocity":53,"Duration":185482,"SoundDuration":185482,"Delta":80886109},{"NoteNumber":67,"Velocity":61,"Duration":96006,"SoundDuration":96006,"Delta":81071592},{"NoteNumber":39,"Velocity":44,"Duration":761406,"SoundDuration":761406,"Delta":81071592},{"NoteNumber":58,"Velocity":46,"Duration":754763,"SoundDuration":754763,"Delta":81455617},{"NoteNumber":63,"Velocity":55,"Duration":1132146,"SoundDuration":1132146,"Delta":81455617},{"NoteNumber":51,"Velocity":46,"Duration":754763,"SoundDuration":754763,"Delta":81455617},{"NoteNumber":39,"Velocity":39,"Duration":188691,"SoundDuration":188691,"Delta":81832999},{"NoteNumber":44,"Velocity":41,"Duration":754764,"SoundDuration":754764,"Delta":82210381},{"NoteNumber":60,"Velocity":48,"Duration":754763,"SoundDuration":754763,"Delta":82587763},{"NoteNumber":63,"Velocity":57,"Duration":754763,"SoundDuration":754763,"Delta":82587763},{"NoteNumber":53,"Velocity":45,"Duration":754763,"SoundDuration":754763,"Delta":82587763},{"NoteNumber":44,"Velocity":38,"Duration":188690,"SoundDuration":188690,"Delta":82965145},{"NoteNumber":67,"Velocity":51,"Duration":96581,"SoundDuration":96581,"Delta":83342527},{"NoteNumber":39,"Velocity":40,"Duration":764038,"SoundDuration":764038,"Delta":83342527},{"NoteNumber":58,"Velocity":42,"Duration":754646,"SoundDuration":754646,"Delta":83728851},{"NoteNumber":63,"Velocity":51,"Duration":1131578,"SoundDuration":1131578,"Delta":83728851},{"NoteNumber":51,"Velocity":42,"Duration":754646,"SoundDuration":754646,"Delta":83728851},{"NoteNumber":39,"Velocity":37,"Duration":188465,"SoundDuration":188465,"Delta":84106566},{"NoteNumber":44,"Velocity":39,"Duration":753863,"SoundDuration":753863,"Delta":84483498},{"NoteNumber":60,"Velocity":44,"Duration":753863,"SoundDuration":753863,"Delta":84860430},{"NoteNumber":63,"Velocity":52,"Duration":753863,"SoundDuration":753863,"Delta":84860430},{"NoteNumber":53,"Velocity":41,"Duration":753863,"SoundDuration":753863,"Delta":84860430},{"NoteNumber":44,"Velocity":35,"Duration":188466,"SoundDuration":188466,"Delta":85237362},{"NoteNumber":58,"Velocity":40,"Duration":392438,"SoundDuration":392438,"Delta":85614294},{"NoteNumber":67,"Velocity":48,"Duration":98109,"SoundDuration":98109,"Delta":85614294},{"NoteNumber":51,"Velocity":40,"Duration":392438,"SoundDuration":392438,"Delta":85614294},{"NoteNumber":39,"Velocity":31,"Duration":392438,"SoundDuration":392438,"Delta":85614294},{"NoteNumber":63,"Velocity":50,"Duration":765451,"SoundDuration":765451,"Delta":86006733},{"NoteNumber":51,"Velocity":30,"Duration":1160326,"SoundDuration":1160326,"Delta":86389459},{"NoteNumber":58,"Velocity":36,"Duration":1160326,"SoundDuration":1160326,"Delta":86389459},{"NoteNumber":67,"Velocity":47,"Duration":98418,"SoundDuration":98418,"Delta":86772185},{"NoteNumber":63,"Velocity":49,"Duration":772653,"SoundDuration":772653,"Delta":87165860},{"NoteNumber":51,"Velocity":30,"Duration":1190115,"SoundDuration":1190115,"Delta":87549786},{"NoteNumber":58,"Velocity":36,"Duration":1190115,"SoundDuration":1190115,"Delta":87549786},{"NoteNumber":67,"Velocity":45,"Duration":100982,"SoundDuration":100982,"Delta":87938513},{"NoteNumber":59,"Velocity":37,"Duration":800087,"SoundDuration":800087,"Delta":88342445},{"NoteNumber":65,"Velocity":45,"Duration":800087,"SoundDuration":800087,"Delta":88342445},{"NoteNumber":50,"Velocity":35,"Duration":2093537,"SoundDuration":2093537,"Delta":88739901},{"NoteNumber":67,"Velocity":44,"Duration":109544,"SoundDuration":109544,"Delta":89142532},{"NoteNumber":59,"Velocity":34,"Duration":1252726,"SoundDuration":1252726,"Delta":89580712},{"NoteNumber":65,"Velocity":39,"Duration":482508,"SoundDuration":482508,"Delta":89580712},{"NoteNumber":67,"Velocity":36,"Duration":770217,"SoundDuration":770217,"Delta":90063221},{"NoteNumber":43,"Velocity":30,"Duration":770217,"SoundDuration":770217,"Delta":90063221},{"NoteNumber":65,"Velocity":38,"Duration":1152379,"SoundDuration":1152379,"Delta":90833439},{"NoteNumber":67,"Velocity":47,"Duration":752352,"SoundDuration":752352,"Delta":91233466},{"NoteNumber":65,"Velocity":44,"Duration":1092594,"SoundDuration":1092594,"Delta":91985818},{"NoteNumber":67,"Velocity":53,"Duration":716418,"SoundDuration":716418,"Delta":92361994},{"NoteNumber":65,"Velocity":48,"Duration":673777,"SoundDuration":673777,"Delta":93078412},{"NoteNumber":67,"Velocity":58,"Duration":667740,"SoundDuration":667740,"Delta":93416824},{"NoteNumber":65,"Velocity":51,"Duration":661805,"SoundDuration":661805,"Delta":93752190},{"NoteNumber":67,"Velocity":63,"Duration":655968,"SoundDuration":655968,"Delta":94084565},{"NoteNumber":65,"Velocity":55,"Duration":657411,"SoundDuration":657411,"Delta":94413995},{"NoteNumber":67,"Velocity":67,"Duration":644062,"SoundDuration":644062,"Delta":94740534},{"NoteNumber":36,"Velocity":73,"Duration":357930,"SoundDuration":357930,"Delta":95071407},{"NoteNumber":43,"Velocity":73,"Duration":357930,"SoundDuration":357930,"Delta":95071407},{"NoteNumber":65,"Velocity":61,"Duration":722800,"SoundDuration":722800,"Delta":95384596},{"NoteNumber":71,"Velocity":69,"Duration":722800,"SoundDuration":722800,"Delta":95384596},{"NoteNumber":76,"Velocity":78,"Duration":505714,"SoundDuration":505714,"Delta":95429338},{"NoteNumber":67,"Velocity":63,"Duration":678059,"SoundDuration":678059,"Delta":95429338},{"NoteNumber":74,"Velocity":74,"Duration":129258,"SoundDuration":129258,"Delta":95935052},{"NoteNumber":72,"Velocity":64,"Duration":43086,"SoundDuration":43086,"Delta":96064310},{"NoteNumber":64,"Velocity":70,"Duration":172344,"SoundDuration":172344,"Delta":96107397},{"NoteNumber":76,"Velocity":79,"Duration":172344,"SoundDuration":172344,"Delta":96107397},{"NoteNumber":36,"Velocity":73,"Duration":344689,"SoundDuration":344689,"Delta":96107397},{"NoteNumber":43,"Velocity":73,"Duration":344689,"SoundDuration":344689,"Delta":96107397},{"NoteNumber":71,"Velocity":73,"Duration":64629,"SoundDuration":64629,"Delta":96365913},{"NoteNumber":64,"Velocity":79,"Duration":172344,"SoundDuration":172344,"Delta":96452086},{"NoteNumber":72,"Velocity":79,"Duration":172344,"SoundDuration":172344,"Delta":96452086},{"NoteNumber":55,"Velocity":67,"Duration":344688,"SoundDuration":344688,"Delta":96452086},{"NoteNumber":74,"Velocity":69,"Duration":64629,"SoundDuration":64629,"Delta":96710602},{"NoteNumber":64,"Velocity":73,"Duration":307286,"SoundDuration":307286,"Delta":96796775},{"NoteNumber":76,"Velocity":81,"Duration":307286,"SoundDuration":307286,"Delta":96796775},{"NoteNumber":60,"Velocity":67,"Duration":351185,"SoundDuration":351185,"Delta":96796775},{"NoteNumber":72,"Velocity":55,"Duration":213619,"SoundDuration":213619,"Delta":97104061},{"NoteNumber":76,"Velocity":59,"Duration":169721,"SoundDuration":169721,"Delta":97147960},{"NoteNumber":50,"Velocity":55,"Duration":339184,"SoundDuration":339184,"Delta":97147960},{"NoteNumber":78,"Velocity":53,"Duration":63451,"SoundDuration":63451,"Delta":97402542},{"NoteNumber":72,"Velocity":52,"Duration":85905,"SoundDuration":85905,"Delta":97487144},{"NoteNumber":79,"Velocity":59,"Duration":85905,"SoundDuration":85905,"Delta":97487144},{"NoteNumber":64,"Velocity":53,"Duration":85905,"SoundDuration":85905,"Delta":97487144},{"NoteNumber":72,"Velocity":55,"Duration":90063,"SoundDuration":90063,"Delta":97830767},{"NoteNumber":81,"Velocity":61,"Duration":90063,"SoundDuration":90063,"Delta":97830767},{"NoteNumber":66,"Velocity":56,"Duration":90063,"SoundDuration":90063,"Delta":97830767},{"NoteNumber":79,"Velocity":57,"Duration":45031,"SoundDuration":45031,"Delta":98145988},{"NoteNumber":71,"Velocity":58,"Duration":691530,"SoundDuration":691530,"Delta":98191019},{"NoteNumber":83,"Velocity":64,"Duration":691530,"SoundDuration":691530,"Delta":98191019},{"NoteNumber":67,"Velocity":63,"Duration":343622,"SoundDuration":343622,"Delta":98191019},{"NoteNumber":62,"Velocity":57,"Duration":347907,"SoundDuration":347907,"Delta":98534642},{"NoteNumber":71,"Velocity":53,"Duration":300670,"SoundDuration":300670,"Delta":98882549},{"NoteNumber":79,"Velocity":60,"Duration":300670,"SoundDuration":300670,"Delta":98882549},{"NoteNumber":55,"Velocity":57,"Duration":300670,"SoundDuration":300670,"Delta":98882549},{"NoteNumber":77,"Velocity":62,"Duration":42952,"SoundDuration":42952,"Delta":99183219},{"NoteNumber":81,"Velocity":72,"Duration":171811,"SoundDuration":171811,"Delta":99226172},{"NoteNumber":60,"Velocity":62,"Duration":348511,"SoundDuration":348511,"Delta":99226172},{"NoteNumber":53,"Velocity":62,"Duration":348511,"SoundDuration":348511,"Delta":99226172},{"NoteNumber":83,"Velocity":70,"Duration":176699,"SoundDuration":176699,"Delta":99397984},{"NoteNumber":77,"Velocity":67,"Duration":685185,"SoundDuration":685185,"Delta":99574683},{"NoteNumber":84,"Velocity":75,"Duration":113147,"SoundDuration":113147,"Delta":99574683},{"NoteNumber":69,"Velocity":67,"Duration":685185,"SoundDuration":685185,"Delta":99574683},{"NoteNumber":62,"Velocity":60,"Duration":685185,"SoundDuration":685185,"Delta":99574683},{"NoteNumber":86,"Velocity":67,"Duration":113147,"SoundDuration":113147,"Delta":99687831},{"NoteNumber":84,"Velocity":67,"Duration":113147,"SoundDuration":113147,"Delta":99800978},{"NoteNumber":83,"Velocity":72,"Duration":172871,"SoundDuration":172871,"Delta":99914126},{"NoteNumber":81,"Velocity":63,"Duration":172871,"SoundDuration":172871,"Delta":100086997},{"NoteNumber":76,"Velocity":67,"Duration":256923,"SoundDuration":256923,"Delta":100259868},{"NoteNumber":79,"Velocity":75,"Duration":256923,"SoundDuration":256923,"Delta":100259868},{"NoteNumber":55,"Velocity":56,"Duration":344899,"SoundDuration":344899,"Delta":100259868},{"NoteNumber":76,"Velocity":59,"Duration":65982,"SoundDuration":65982,"Delta":100516791},{"NoteNumber":79,"Velocity":66,"Duration":65982,"SoundDuration":65982,"Delta":100516791},{"NoteNumber":74,"Velocity":60,"Duration":347907,"SoundDuration":347907,"Delta":100604768},{"NoteNumber":77,"Velocity":67,"Duration":347907,"SoundDuration":347907,"Delta":100604768},{"NoteNumber":67,"Velocity":58,"Duration":695813,"SoundDuration":695813,"Delta":100604768},{"NoteNumber":76,"Velocity":62,"Duration":347906,"SoundDuration":347906,"Delta":100952675},{"NoteNumber":72,"Velocity":56,"Duration":347906,"SoundDuration":347906,"Delta":100952675},{"NoteNumber":71,"Velocity":59,"Duration":256923,"SoundDuration":256923,"Delta":101300582},{"NoteNumber":74,"Velocity":66,"Duration":256923,"SoundDuration":256923,"Delta":101300582},{"NoteNumber":55,"Velocity":50,"Duration":345418,"SoundDuration":345418,"Delta":101300582},{"NoteNumber":71,"Velocity":53,"Duration":66371,"SoundDuration":66371,"Delta":101557505},{"NoteNumber":74,"Velocity":60,"Duration":66371,"SoundDuration":66371,"Delta":101557505},{"NoteNumber":79,"Velocity":64,"Duration":693641,"SoundDuration":693641,"Delta":101646000},{"NoteNumber":69,"Velocity":50,"Duration":346820,"SoundDuration":346820,"Delta":101992821},{"NoteNumber":72,"Velocity":50,"Duration":346820,"SoundDuration":346820,"Delta":101992821},{"NoteNumber":76,"Velocity":56,"Duration":346820,"SoundDuration":346820,"Delta":101992821},{"NoteNumber":67,"Velocity":57,"Duration":346820,"SoundDuration":346820,"Delta":101992821},{"NoteNumber":69,"Velocity":53,"Duration":260115,"SoundDuration":260115,"Delta":102339642},{"NoteNumber":72,"Velocity":60,"Duration":260115,"SoundDuration":260115,"Delta":102339642},{"NoteNumber":55,"Velocity":51,"Duration":349136,"SoundDuration":349136,"Delta":102339642},{"NoteNumber":69,"Velocity":51,"Duration":66765,"SoundDuration":66765,"Delta":102599758},{"NoteNumber":72,"Velocity":57,"Duration":66765,"SoundDuration":66765,"Delta":102599758},{"NoteNumber":79,"Velocity":61,"Duration":694413,"SoundDuration":694413,"Delta":102688779},{"NoteNumber":71,"Velocity":48,"Duration":346821,"SoundDuration":346821,"Delta":103036371},{"NoteNumber":74,"Velocity":53,"Duration":346821,"SoundDuration":346821,"Delta":103036371},{"NoteNumber":67,"Velocity":56,"Duration":346821,"SoundDuration":346821,"Delta":103036371},{"NoteNumber":43,"Velocity":73,"Duration":357930,"SoundDuration":357930,"Delta":103383192},{"NoteNumber":36,"Velocity":73,"Duration":357930,"SoundDuration":357930,"Delta":103383192},{"NoteNumber":65,"Velocity":61,"Duration":722800,"SoundDuration":722800,"Delta":103696382},{"NoteNumber":71,"Velocity":69,"Duration":722800,"SoundDuration":722800,"Delta":103696382},{"NoteNumber":76,"Velocity":78,"Duration":505714,"SoundDuration":505714,"Delta":103741123},{"NoteNumber":67,"Velocity":63,"Duration":678059,"SoundDuration":678059,"Delta":103741123},{"NoteNumber":74,"Velocity":74,"Duration":129258,"SoundDuration":129258,"Delta":104246838},{"NoteNumber":72,"Velocity":64,"Duration":43086,"SoundDuration":43086,"Delta":104376096},{"NoteNumber":64,"Velocity":70,"Duration":172344,"SoundDuration":172344,"Delta":104419182},{"NoteNumber":76,"Velocity":79,"Duration":172344,"SoundDuration":172344,"Delta":104419182},{"NoteNumber":36,"Velocity":73,"Duration":344689,"SoundDuration":344689,"Delta":104419182},{"NoteNumber":43,"Velocity":73,"Duration":344689,"SoundDuration":344689,"Delta":104419182},{"NoteNumber":71,"Velocity":73,"Duration":64629,"SoundDuration":64629,"Delta":104677699},{"NoteNumber":64,"Velocity":79,"Duration":172344,"SoundDuration":172344,"Delta":104763871},{"NoteNumber":72,"Velocity":79,"Duration":172344,"SoundDuration":172344,"Delta":104763871},{"NoteNumber":55,"Velocity":67,"Duration":344688,"SoundDuration":344688,"Delta":104763871},{"NoteNumber":74,"Velocity":69,"Duration":64629,"SoundDuration":64629,"Delta":105022388},{"NoteNumber":64,"Velocity":73,"Duration":307286,"SoundDuration":307286,"Delta":105108560},{"NoteNumber":76,"Velocity":81,"Duration":307286,"SoundDuration":307286,"Delta":105108560},{"NoteNumber":60,"Velocity":67,"Duration":351185,"SoundDuration":351185,"Delta":105108560},{"NoteNumber":72,"Velocity":52,"Duration":213619,"SoundDuration":213619,"Delta":105415847},{"NoteNumber":76,"Velocity":59,"Duration":169721,"SoundDuration":169721,"Delta":105459745},{"NoteNumber":50,"Velocity":55,"Duration":339184,"SoundDuration":339184,"Delta":105459745},{"NoteNumber":78,"Velocity":53,"Duration":63451,"SoundDuration":63451,"Delta":105714328},{"NoteNumber":72,"Velocity":52,"Duration":85905,"SoundDuration":85905,"Delta":105798930},{"NoteNumber":79,"Velocity":59,"Duration":85905,"SoundDuration":85905,"Delta":105798930},{"NoteNumber":64,"Velocity":53,"Duration":85905,"SoundDuration":85905,"Delta":105798930},{"NoteNumber":72,"Velocity":55,"Duration":90063,"SoundDuration":90063,"Delta":106142553},{"NoteNumber":81,"Velocity":61,"Duration":90063,"SoundDuration":90063,"Delta":106142553},{"NoteNumber":66,"Velocity":56,"Duration":90063,"SoundDuration":90063,"Delta":106142553},{"NoteNumber":79,"Velocity":59,"Duration":45031,"SoundDuration":45031,"Delta":106457773},{"NoteNumber":71,"Velocity":58,"Duration":691530,"SoundDuration":691530,"Delta":106502805},{"NoteNumber":83,"Velocity":64,"Duration":691530,"SoundDuration":691530,"Delta":106502805},{"NoteNumber":67,"Velocity":63,"Duration":343622,"SoundDuration":343622,"Delta":106502805},{"NoteNumber":62,"Velocity":58,"Duration":347907,"SoundDuration":347907,"Delta":106846428},{"NoteNumber":71,"Velocity":53,"Duration":300670,"SoundDuration":300670,"Delta":107194335},{"NoteNumber":79,"Velocity":60,"Duration":300670,"SoundDuration":300670,"Delta":107194335},{"NoteNumber":55,"Velocity":57,"Duration":300670,"SoundDuration":300670,"Delta":107194335},{"NoteNumber":77,"Velocity":66,"Duration":42952,"SoundDuration":42952,"Delta":107495005},{"NoteNumber":81,"Velocity":72,"Duration":178965,"SoundDuration":178965,"Delta":107537958},{"NoteNumber":60,"Velocity":62,"Duration":355665,"SoundDuration":355665,"Delta":107537958},{"NoteNumber":53,"Velocity":62,"Duration":355665,"SoundDuration":355665,"Delta":107537958},{"NoteNumber":83,"Velocity":70,"Duration":176699,"SoundDuration":176699,"Delta":107716923},{"NoteNumber":77,"Velocity":67,"Duration":685185,"SoundDuration":685185,"Delta":107893623},{"NoteNumber":84,"Velocity":75,"Duration":113147,"SoundDuration":113147,"Delta":107893623},{"NoteNumber":69,"Velocity":67,"Duration":685185,"SoundDuration":685185,"Delta":107893623},{"NoteNumber":62,"Velocity":60,"Duration":685185,"SoundDuration":685185,"Delta":107893623},{"NoteNumber":86,"Velocity":67,"Duration":113147,"SoundDuration":113147,"Delta":108006771},{"NoteNumber":84,"Velocity":67,"Duration":113147,"SoundDuration":113147,"Delta":108119918},{"NoteNumber":83,"Velocity":72,"Duration":172871,"SoundDuration":172871,"Delta":108233066},{"NoteNumber":81,"Velocity":63,"Duration":172871,"SoundDuration":172871,"Delta":108405937},{"NoteNumber":76,"Velocity":67,"Duration":256923,"SoundDuration":256923,"Delta":108578808},{"NoteNumber":79,"Velocity":75,"Duration":256923,"SoundDuration":256923,"Delta":108578808},{"NoteNumber":55,"Velocity":56,"Duration":344899,"SoundDuration":344899,"Delta":108578808},{"NoteNumber":76,"Velocity":59,"Duration":65982,"SoundDuration":65982,"Delta":108835731},{"NoteNumber":79,"Velocity":66,"Duration":65982,"SoundDuration":65982,"Delta":108835731},{"NoteNumber":74,"Velocity":60,"Duration":347907,"SoundDuration":347907,"Delta":108923707},{"NoteNumber":77,"Velocity":67,"Duration":347907,"SoundDuration":347907,"Delta":108923707},{"NoteNumber":67,"Velocity":58,"Duration":695813,"SoundDuration":695813,"Delta":108923707},{"NoteNumber":76,"Velocity":62,"Duration":347906,"SoundDuration":347906,"Delta":109271614},{"NoteNumber":72,"Velocity":56,"Duration":347906,"SoundDuration":347906,"Delta":109271614},{"NoteNumber":71,"Velocity":59,"Duration":256923,"SoundDuration":256923,"Delta":109619521},{"NoteNumber":74,"Velocity":66,"Duration":256923,"SoundDuration":256923,"Delta":109619521},{"NoteNumber":55,"Velocity":50,"Duration":345158,"SoundDuration":345158,"Delta":109619521},{"NoteNumber":71,"Velocity":53,"Duration":66176,"SoundDuration":66176,"Delta":109876444},{"NoteNumber":74,"Velocity":60,"Duration":66176,"SoundDuration":66176,"Delta":109876444},{"NoteNumber":79,"Velocity":64,"Duration":693641,"SoundDuration":693641,"Delta":109964680},{"NoteNumber":69,"Velocity":50,"Duration":346820,"SoundDuration":346820,"Delta":110311501},{"NoteNumber":72,"Velocity":50,"Duration":346820,"SoundDuration":346820,"Delta":110311501},{"NoteNumber":76,"Velocity":56,"Duration":346820,"SoundDuration":346820,"Delta":110311501},{"NoteNumber":67,"Velocity":50,"Duration":346820,"SoundDuration":346820,"Delta":110311501},{"NoteNumber":74,"Velocity":57,"Duration":346821,"SoundDuration":346821,"Delta":110658322},{"NoteNumber":65,"Velocity":51,"Duration":696381,"SoundDuration":696381,"Delta":110658322},{"NoteNumber":71,"Velocity":51,"Duration":696381,"SoundDuration":696381,"Delta":110658322},{"NoteNumber":67,"Velocity":55,"Duration":696381,"SoundDuration":696381,"Delta":110658322},{"NoteNumber":76,"Velocity":53,"Duration":173410,"SoundDuration":173410,"Delta":111005143},{"NoteNumber":74,"Velocity":51,"Duration":176149,"SoundDuration":176149,"Delta":111178553},{"NoteNumber":72,"Velocity":50,"Duration":361423,"SoundDuration":361423,"Delta":111354703},{"NoteNumber":64,"Velocity":44,"Duration":361423,"SoundDuration":361423,"Delta":111354703},{"NoteNumber":60,"Velocity":42,"Duration":361423,"SoundDuration":361423,"Delta":111354703},{"NoteNumber":43,"Velocity":49,"Duration":1051554,"SoundDuration":1051554,"Delta":111716127},{"NoteNumber":67,"Velocity":49,"Duration":173953,"SoundDuration":173953,"Delta":111886882},{"NoteNumber":55,"Velocity":44,"Duration":351185,"SoundDuration":351185,"Delta":112060836},{"NoteNumber":59,"Velocity":44,"Duration":351185,"SoundDuration":351185,"Delta":112060836},{"NoteNumber":67,"Velocity":49,"Duration":175592,"SoundDuration":175592,"Delta":112060836},{"NoteNumber":50,"Velocity":38,"Duration":351185,"SoundDuration":351185,"Delta":112060836},{"NoteNumber":57,"Velocity":45,"Duration":355660,"SoundDuration":355660,"Delta":112412021},{"NoteNumber":60,"Velocity":45,"Duration":355660,"SoundDuration":355660,"Delta":112412021},{"NoteNumber":67,"Velocity":50,"Duration":355660,"SoundDuration":355660,"Delta":112412021},{"NoteNumber":52,"Velocity":42,"Duration":355660,"SoundDuration":355660,"Delta":112412021},{"NoteNumber":43,"Velocity":49,"Duration":1051493,"SoundDuration":1051493,"Delta":112767682},{"NoteNumber":67,"Velocity":49,"Duration":174499,"SoundDuration":174499,"Delta":112938964},{"NoteNumber":55,"Velocity":44,"Duration":351185,"SoundDuration":351185,"Delta":113113464},{"NoteNumber":59,"Velocity":44,"Duration":351185,"SoundDuration":351185,"Delta":113113464},{"NoteNumber":67,"Velocity":49,"Duration":175592,"SoundDuration":175592,"Delta":113113464},{"NoteNumber":50,"Velocity":38,"Duration":351185,"SoundDuration":351185,"Delta":113113464},{"NoteNumber":67,"Velocity":50,"Duration":354526,"SoundDuration":354526,"Delta":113464649},{"NoteNumber":57,"Velocity":45,"Duration":354526,"SoundDuration":354526,"Delta":113464649},{"NoteNumber":60,"Velocity":45,"Duration":354526,"SoundDuration":354526,"Delta":113464649},{"NoteNumber":52,"Velocity":39,"Duration":354526,"SoundDuration":354526,"Delta":113464649},{"NoteNumber":43,"Velocity":49,"Duration":1041615,"SoundDuration":1041615,"Delta":113819175},{"NoteNumber":57,"Velocity":44,"Duration":172871,"SoundDuration":172871,"Delta":114163864},{"NoteNumber":60,"Velocity":44,"Duration":172871,"SoundDuration":172871,"Delta":114163864},{"NoteNumber":67,"Velocity":49,"Duration":348463,"SoundDuration":348463,"Delta":114163864},{"NoteNumber":52,"Velocity":40,"Duration":348463,"SoundDuration":348463,"Delta":114163864},{"NoteNumber":64,"Velocity":40,"Duration":175592,"SoundDuration":175592,"Delta":114336735},{"NoteNumber":62,"Velocity":45,"Duration":172871,"SoundDuration":172871,"Delta":114512327},{"NoteNumber":67,"Velocity":50,"Duration":348463,"SoundDuration":348463,"Delta":114512327},{"NoteNumber":54,"Velocity":40,"Duration":348463,"SoundDuration":348463,"Delta":114512327},{"NoteNumber":60,"Velocity":44,"Duration":175592,"SoundDuration":175592,"Delta":114685198},{"NoteNumber":59,"Velocity":47,"Duration":175592,"SoundDuration":175592,"Delta":114860791},{"NoteNumber":67,"Velocity":52,"Duration":351185,"SoundDuration":351185,"Delta":114860791},{"NoteNumber":43,"Velocity":49,"Duration":1058198,"SoundDuration":1058198,"Delta":114860791},{"NoteNumber":60,"Velocity":42,"Duration":175592,"SoundDuration":175592,"Delta":115036383},{"NoteNumber":59,"Velocity":41,"Duration":175778,"SoundDuration":175778,"Delta":115211976},{"NoteNumber":55,"Velocity":44,"Duration":352202,"SoundDuration":352202,"Delta":115211976},{"NoteNumber":58,"Velocity":40,"Duration":176424,"SoundDuration":176424,"Delta":115387754},{"NoteNumber":57,"Velocity":39,"Duration":177075,"SoundDuration":177075,"Delta":115564178},{"NoteNumber":56,"Velocity":39,"Duration":177735,"SoundDuration":177735,"Delta":115741254},{"NoteNumber":55,"Velocity":49,"Duration":1040405,"SoundDuration":1040405,"Delta":115918989},{"NoteNumber":79,"Velocity":49,"Duration":170241,"SoundDuration":170241,"Delta":116086671},{"NoteNumber":67,"Velocity":44,"Duration":346821,"SoundDuration":346821,"Delta":116256913},{"NoteNumber":71,"Velocity":44,"Duration":346821,"SoundDuration":346821,"Delta":116256913},{"NoteNumber":79,"Velocity":49,"Duration":173410,"SoundDuration":173410,"Delta":116256913},{"NoteNumber":62,"Velocity":38,"Duration":346821,"SoundDuration":346821,"Delta":116256913},{"NoteNumber":69,"Velocity":45,"Duration":355660,"SoundDuration":355660,"Delta":116603734},{"NoteNumber":72,"Velocity":45,"Duration":355660,"SoundDuration":355660,"Delta":116603734},{"NoteNumber":79,"Velocity":50,"Duration":355660,"SoundDuration":355660,"Delta":116603734},{"NoteNumber":64,"Velocity":42,"Duration":355660,"SoundDuration":355660,"Delta":116603734},{"NoteNumber":55,"Velocity":49,"Duration":1044542,"SoundDuration":1044542,"Delta":116959395},{"NoteNumber":79,"Velocity":49,"Duration":171811,"SoundDuration":171811,"Delta":117128599},{"NoteNumber":67,"Velocity":44,"Duration":349000,"SoundDuration":349000,"Delta":117300411},{"NoteNumber":71,"Velocity":44,"Duration":349000,"SoundDuration":349000,"Delta":117300411},{"NoteNumber":79,"Velocity":49,"Duration":174499,"SoundDuration":174499,"Delta":117300411},{"NoteNumber":62,"Velocity":38,"Duration":349000,"SoundDuration":349000,"Delta":117300411},{"NoteNumber":79,"Velocity":50,"Duration":354526,"SoundDuration":354526,"Delta":117649411},{"NoteNumber":69,"Velocity":45,"Duration":354526,"SoundDuration":354526,"Delta":117649411},{"NoteNumber":72,"Velocity":45,"Duration":354526,"SoundDuration":354526,"Delta":117649411},{"NoteNumber":64,"Velocity":39,"Duration":354526,"SoundDuration":354526,"Delta":117649411},{"NoteNumber":55,"Velocity":49,"Duration":1039490,"SoundDuration":1039490,"Delta":118003937},{"NoteNumber":69,"Velocity":44,"Duration":172871,"SoundDuration":172871,"Delta":118346501},{"NoteNumber":72,"Velocity":44,"Duration":172871,"SoundDuration":172871,"Delta":118346501},{"NoteNumber":79,"Velocity":49,"Duration":348463,"SoundDuration":348463,"Delta":118346501},{"NoteNumber":64,"Velocity":40,"Duration":348463,"SoundDuration":348463,"Delta":118346501},{"NoteNumber":76,"Velocity":40,"Duration":175592,"SoundDuration":175592,"Delta":118519372},{"NoteNumber":74,"Velocity":45,"Duration":172871,"SoundDuration":172871,"Delta":118694964},{"NoteNumber":79,"Velocity":50,"Duration":348463,"SoundDuration":348463,"Delta":118694964},{"NoteNumber":66,"Velocity":40,"Duration":348463,"SoundDuration":348463,"Delta":118694964},{"NoteNumber":72,"Velocity":44,"Duration":175592,"SoundDuration":175592,"Delta":118867835},{"NoteNumber":71,"Velocity":47,"Duration":175592,"SoundDuration":175592,"Delta":119043428},{"NoteNumber":79,"Velocity":52,"Duration":351185,"SoundDuration":351185,"Delta":119043428},{"NoteNumber":67,"Velocity":44,"Duration":351185,"SoundDuration":351185,"Delta":119043428},{"NoteNumber":72,"Velocity":42,"Duration":175592,"SoundDuration":175592,"Delta":119219020},{"NoteNumber":71,"Velocity":41,"Duration":175778,"SoundDuration":175778,"Delta":119394613},{"NoteNumber":70,"Velocity":40,"Duration":176424,"SoundDuration":176424,"Delta":119570391},{"NoteNumber":69,"Velocity":39,"Duration":177075,"SoundDuration":177075,"Delta":119746816},{"NoteNumber":68,"Velocity":39,"Duration":177735,"SoundDuration":177735,"Delta":119923891},{"NoteNumber":43,"Velocity":49,"Duration":1051554,"SoundDuration":1051554,"Delta":120101627},{"NoteNumber":67,"Velocity":49,"Duration":173953,"SoundDuration":173953,"Delta":120272382},{"NoteNumber":55,"Velocity":44,"Duration":351185,"SoundDuration":351185,"Delta":120446336},{"NoteNumber":59,"Velocity":44,"Duration":351185,"SoundDuration":351185,"Delta":120446336},{"NoteNumber":67,"Velocity":49,"Duration":175592,"SoundDuration":175592,"Delta":120446336},{"NoteNumber":50,"Velocity":38,"Duration":351185,"SoundDuration":351185,"Delta":120446336},{"NoteNumber":57,"Velocity":45,"Duration":355660,"SoundDuration":355660,"Delta":120797521},{"NoteNumber":60,"Velocity":45,"Duration":355660,"SoundDuration":355660,"Delta":120797521},{"NoteNumber":67,"Velocity":50,"Duration":355660,"SoundDuration":355660,"Delta":120797521},{"NoteNumber":52,"Velocity":42,"Duration":355660,"SoundDuration":355660,"Delta":120797521},{"NoteNumber":43,"Velocity":49,"Duration":1051493,"SoundDuration":1051493,"Delta":121153182},{"NoteNumber":67,"Velocity":49,"Duration":174499,"SoundDuration":174499,"Delta":121324464},{"NoteNumber":55,"Velocity":44,"Duration":351185,"SoundDuration":351185,"Delta":121498964},{"NoteNumber":59,"Velocity":44,"Duration":351185,"SoundDuration":351185,"Delta":121498964},{"NoteNumber":67,"Velocity":49,"Duration":175592,"SoundDuration":175592,"Delta":121498964},{"NoteNumber":50,"Velocity":38,"Duration":351185,"SoundDuration":351185,"Delta":121498964},{"NoteNumber":67,"Velocity":50,"Duration":354526,"SoundDuration":354526,"Delta":121850149},{"NoteNumber":57,"Velocity":45,"Duration":354526,"SoundDuration":354526,"Delta":121850149},{"NoteNumber":60,"Velocity":45,"Duration":354526,"SoundDuration":354526,"Delta":121850149},{"NoteNumber":52,"Velocity":39,"Duration":354526,"SoundDuration":354526,"Delta":121850149},{"NoteNumber":43,"Velocity":49,"Duration":1041615,"SoundDuration":1041615,"Delta":122204675},{"NoteNumber":57,"Velocity":44,"Duration":172871,"SoundDuration":172871,"Delta":122549364},{"NoteNumber":60,"Velocity":44,"Duration":172871,"SoundDuration":172871,"Delta":122549364},{"NoteNumber":67,"Velocity":49,"Duration":348463,"SoundDuration":348463,"Delta":122549364},{"NoteNumber":52,"Velocity":40,"Duration":348463,"SoundDuration":348463,"Delta":122549364},{"NoteNumber":64,"Velocity":40,"Duration":175592,"SoundDuration":175592,"Delta":122722235},{"NoteNumber":62,"Velocity":45,"Duration":172871,"SoundDuration":172871,"Delta":122897827},{"NoteNumber":67,"Velocity":50,"Duration":348463,"SoundDuration":348463,"Delta":122897827},{"NoteNumber":54,"Velocity":40,"Duration":348463,"SoundDuration":348463,"Delta":122897827},{"NoteNumber":60,"Velocity":44,"Duration":175592,"SoundDuration":175592,"Delta":123070698},{"NoteNumber":59,"Velocity":47,"Duration":175592,"SoundDuration":175592,"Delta":123246291},{"NoteNumber":67,"Velocity":52,"Duration":351185,"SoundDuration":351185,"Delta":123246291},{"NoteNumber":43,"Velocity":49,"Duration":1058198,"SoundDuration":1058198,"Delta":123246291},{"NoteNumber":60,"Velocity":42,"Duration":175592,"SoundDuration":175592,"Delta":123421883},{"NoteNumber":59,"Velocity":41,"Duration":175778,"SoundDuration":175778,"Delta":123597476},{"NoteNumber":55,"Velocity":44,"Duration":352202,"SoundDuration":352202,"Delta":123597476},{"NoteNumber":58,"Velocity":40,"Duration":176424,"SoundDuration":176424,"Delta":123773254},{"NoteNumber":57,"Velocity":39,"Duration":177075,"SoundDuration":177075,"Delta":123949678},{"NoteNumber":56,"Velocity":39,"Duration":177735,"SoundDuration":177735,"Delta":124126754},{"NoteNumber":55,"Velocity":49,"Duration":1040405,"SoundDuration":1040405,"Delta":124304489},{"NoteNumber":79,"Velocity":49,"Duration":170241,"SoundDuration":170241,"Delta":124472171},{"NoteNumber":67,"Velocity":44,"Duration":346821,"SoundDuration":346821,"Delta":124642413},{"NoteNumber":71,"Velocity":44,"Duration":346821,"SoundDuration":346821,"Delta":124642413},{"NoteNumber":79,"Velocity":49,"Duration":173410,"SoundDuration":173410,"Delta":124642413},{"NoteNumber":62,"Velocity":38,"Duration":346821,"SoundDuration":346821,"Delta":124642413},{"NoteNumber":69,"Velocity":45,"Duration":355660,"SoundDuration":355660,"Delta":124989234},{"NoteNumber":72,"Velocity":45,"Duration":355660,"SoundDuration":355660,"Delta":124989234},{"NoteNumber":79,"Velocity":50,"Duration":355660,"SoundDuration":355660,"Delta":124989234},{"NoteNumber":64,"Velocity":42,"Duration":355660,"SoundDuration":355660,"Delta":124989234},{"NoteNumber":55,"Velocity":49,"Duration":1044542,"SoundDuration":1044542,"Delta":125344895},{"NoteNumber":79,"Velocity":49,"Duration":171811,"SoundDuration":171811,"Delta":125514099},{"NoteNumber":67,"Velocity":44,"Duration":349000,"SoundDuration":349000,"Delta":125685911},{"NoteNumber":71,"Velocity":44,"Duration":349000,"SoundDuration":349000,"Delta":125685911},{"NoteNumber":79,"Velocity":49,"Duration":174499,"SoundDuration":174499,"Delta":125685911},{"NoteNumber":62,"Velocity":38,"Duration":349000,"SoundDuration":349000,"Delta":125685911},{"NoteNumber":79,"Velocity":50,"Duration":354526,"SoundDuration":354526,"Delta":126034911},{"NoteNumber":69,"Velocity":45,"Duration":354526,"SoundDuration":354526,"Delta":126034911},{"NoteNumber":72,"Velocity":45,"Duration":354526,"SoundDuration":354526,"Delta":126034911},{"NoteNumber":64,"Velocity":39,"Duration":354526,"SoundDuration":354526,"Delta":126034911},{"NoteNumber":55,"Velocity":49,"Duration":1039490,"SoundDuration":1039490,"Delta":126389437},{"NoteNumber":69,"Velocity":55,"Duration":172871,"SoundDuration":172871,"Delta":126732001},{"NoteNumber":72,"Velocity":55,"Duration":172871,"SoundDuration":172871,"Delta":126732001},{"NoteNumber":79,"Velocity":55,"Duration":696926,"SoundDuration":696926,"Delta":126732001},{"NoteNumber":64,"Velocity":58,"Duration":696926,"SoundDuration":696926,"Delta":126732001},{"NoteNumber":76,"Velocity":52,"Duration":175592,"SoundDuration":175592,"Delta":126904872},{"NoteNumber":74,"Velocity":59,"Duration":172871,"SoundDuration":172871,"Delta":127080464},{"NoteNumber":72,"Velocity":55,"Duration":175592,"SoundDuration":175592,"Delta":127253335},{"NoteNumber":71,"Velocity":71,"Duration":175592,"SoundDuration":175592,"Delta":127428928},{"NoteNumber":79,"Velocity":71,"Duration":1050894,"SoundDuration":1050894,"Delta":127428928},{"NoteNumber":65,"Velocity":57,"Duration":3556264,"SoundDuration":3556264,"Delta":127428928},{"NoteNumber":76,"Velocity":62,"Duration":178401,"SoundDuration":178401,"Delta":127604520},{"NoteNumber":74,"Velocity":69,"Duration":175039,"SoundDuration":175039,"Delta":127782922},{"NoteNumber":72,"Velocity":61,"Duration":175039,"SoundDuration":175039,"Delta":127957961},{"NoteNumber":71,"Velocity":64,"Duration":520231,"SoundDuration":520231,"Delta":128133001},{"NoteNumber":74,"Velocity":58,"Duration":172870,"SoundDuration":172870,"Delta":128653232},{"NoteNumber":72,"Velocity":61,"Duration":172871,"SoundDuration":172871,"Delta":128826103},{"NoteNumber":71,"Velocity":56,"Duration":172870,"SoundDuration":172870,"Delta":128998974},{"NoteNumber":69,"Velocity":59,"Duration":524857,"SoundDuration":524857,"Delta":129171845},{"NoteNumber":72,"Velocity":48,"Duration":177647,"SoundDuration":177647,"Delta":129696703},{"NoteNumber":71,"Velocity":53,"Duration":179545,"SoundDuration":179545,"Delta":129874351},{"NoteNumber":69,"Velocity":50,"Duration":181295,"SoundDuration":181295,"Delta":130053896},{"NoteNumber":67,"Velocity":44,"Duration":750000,"SoundDuration":750000,"Delta":130235192},{"NoteNumber":65,"Velocity":38,"Duration":1044686,"SoundDuration":1044686,"Delta":130985192},{"NoteNumber":67,"Velocity":47,"Duration":689656,"SoundDuration":689656,"Delta":131340222},{"NoteNumber":65,"Velocity":44,"Duration":1034483,"SoundDuration":1034483,"Delta":132029878},{"NoteNumber":67,"Velocity":53,"Duration":689656,"SoundDuration":689656,"Delta":132374706},{"NoteNumber":65,"Velocity":48,"Duration":673777,"SoundDuration":673777,"Delta":133064362},{"NoteNumber":67,"Velocity":58,"Duration":667740,"SoundDuration":667740,"Delta":133402773},{"NoteNumber":65,"Velocity":51,"Duration":661805,"SoundDuration":661805,"Delta":133738139},{"NoteNumber":67,"Velocity":63,"Duration":655968,"SoundDuration":655968,"Delta":134070514},{"NoteNumber":65,"Velocity":55,"Duration":657411,"SoundDuration":657411,"Delta":134399945},{"NoteNumber":67,"Velocity":67,"Duration":644062,"SoundDuration":644062,"Delta":134726483},{"NoteNumber":36,"Velocity":73,"Duration":357931,"SoundDuration":357931,"Delta":135057356},{"NoteNumber":43,"Velocity":73,"Duration":357931,"SoundDuration":357931,"Delta":135057356},{"NoteNumber":65,"Velocity":60,"Duration":722800,"SoundDuration":722800,"Delta":135370546},{"NoteNumber":71,"Velocity":69,"Duration":722800,"SoundDuration":722800,"Delta":135370546},{"NoteNumber":76,"Velocity":78,"Duration":505714,"SoundDuration":505714,"Delta":135415287},{"NoteNumber":67,"Velocity":63,"Duration":678058,"SoundDuration":678058,"Delta":135415287},{"NoteNumber":74,"Velocity":74,"Duration":129258,"SoundDuration":129258,"Delta":135921002},{"NoteNumber":72,"Velocity":64,"Duration":43086,"SoundDuration":43086,"Delta":136050260},{"NoteNumber":64,"Velocity":70,"Duration":172344,"SoundDuration":172344,"Delta":136093346},{"NoteNumber":76,"Velocity":79,"Duration":172344,"SoundDuration":172344,"Delta":136093346},{"NoteNumber":36,"Velocity":73,"Duration":344689,"SoundDuration":344689,"Delta":136093346},{"NoteNumber":43,"Velocity":73,"Duration":344689,"SoundDuration":344689,"Delta":136093346},{"NoteNumber":71,"Velocity":73,"Duration":64629,"SoundDuration":64629,"Delta":136351863},{"NoteNumber":64,"Velocity":79,"Duration":172344,"SoundDuration":172344,"Delta":136438035},{"NoteNumber":72,"Velocity":79,"Duration":172344,"SoundDuration":172344,"Delta":136438035},{"NoteNumber":55,"Velocity":67,"Duration":344688,"SoundDuration":344688,"Delta":136438035},{"NoteNumber":74,"Velocity":69,"Duration":64629,"SoundDuration":64629,"Delta":136696552},{"NoteNumber":64,"Velocity":73,"Duration":307286,"SoundDuration":307286,"Delta":136782724},{"NoteNumber":76,"Velocity":81,"Duration":307286,"SoundDuration":307286,"Delta":136782724},{"NoteNumber":60,"Velocity":67,"Duration":351184,"SoundDuration":351184,"Delta":136782724},{"NoteNumber":72,"Velocity":52,"Duration":213619,"SoundDuration":213619,"Delta":137090011},{"NoteNumber":76,"Velocity":59,"Duration":169721,"SoundDuration":169721,"Delta":137133909},{"NoteNumber":50,"Velocity":55,"Duration":339184,"SoundDuration":339184,"Delta":137133909},{"NoteNumber":78,"Velocity":53,"Duration":63451,"SoundDuration":63451,"Delta":137388491},{"NoteNumber":72,"Velocity":52,"Duration":85905,"SoundDuration":85905,"Delta":137473094},{"NoteNumber":79,"Velocity":59,"Duration":85905,"SoundDuration":85905,"Delta":137473094},{"NoteNumber":64,"Velocity":53,"Duration":85905,"SoundDuration":85905,"Delta":137473094},{"NoteNumber":72,"Velocity":55,"Duration":90062,"SoundDuration":90062,"Delta":137816717},{"NoteNumber":81,"Velocity":61,"Duration":90062,"SoundDuration":90062,"Delta":137816717},{"NoteNumber":66,"Velocity":56,"Duration":90062,"SoundDuration":90062,"Delta":137816717},{"NoteNumber":79,"Velocity":57,"Duration":45031,"SoundDuration":45031,"Delta":138131937},{"NoteNumber":71,"Velocity":58,"Duration":691530,"SoundDuration":691530,"Delta":138176969},{"NoteNumber":83,"Velocity":64,"Duration":691530,"SoundDuration":691530,"Delta":138176969},{"NoteNumber":67,"Velocity":63,"Duration":343623,"SoundDuration":343623,"Delta":138176969},{"NoteNumber":62,"Velocity":58,"Duration":347906,"SoundDuration":347906,"Delta":138520592},{"NoteNumber":71,"Velocity":53,"Duration":300670,"SoundDuration":300670,"Delta":138868499},{"NoteNumber":79,"Velocity":60,"Duration":300670,"SoundDuration":300670,"Delta":138868499},{"NoteNumber":55,"Velocity":57,"Duration":300670,"SoundDuration":300670,"Delta":138868499},{"NoteNumber":77,"Velocity":64,"Duration":42952,"SoundDuration":42952,"Delta":139169169},{"NoteNumber":81,"Velocity":70,"Duration":171811,"SoundDuration":171811,"Delta":139212122},{"NoteNumber":60,"Velocity":62,"Duration":348511,"SoundDuration":348511,"Delta":139212122},{"NoteNumber":53,"Velocity":62,"Duration":348511,"SoundDuration":348511,"Delta":139212122},{"NoteNumber":83,"Velocity":70,"Duration":176699,"SoundDuration":176699,"Delta":139383933},{"NoteNumber":77,"Velocity":67,"Duration":685184,"SoundDuration":685184,"Delta":139560633},{"NoteNumber":84,"Velocity":75,"Duration":113147,"SoundDuration":113147,"Delta":139560633},{"NoteNumber":69,"Velocity":67,"Duration":685184,"SoundDuration":685184,"Delta":139560633},{"NoteNumber":62,"Velocity":60,"Duration":685184,"SoundDuration":685184,"Delta":139560633},{"NoteNumber":86,"Velocity":67,"Duration":113147,"SoundDuration":113147,"Delta":139673780},{"NoteNumber":84,"Velocity":67,"Duration":113147,"SoundDuration":113147,"Delta":139786928},{"NoteNumber":83,"Velocity":72,"Duration":172870,"SoundDuration":172870,"Delta":139900076},{"NoteNumber":81,"Velocity":63,"Duration":172871,"SoundDuration":172871,"Delta":140072947},{"NoteNumber":76,"Velocity":67,"Duration":256923,"SoundDuration":256923,"Delta":140245818},{"NoteNumber":79,"Velocity":75,"Duration":256923,"SoundDuration":256923,"Delta":140245818},{"NoteNumber":55,"Velocity":56,"Duration":345418,"SoundDuration":345418,"Delta":140245818},{"NoteNumber":76,"Velocity":59,"Duration":66371,"SoundDuration":66371,"Delta":140502741},{"NoteNumber":79,"Velocity":66,"Duration":66371,"SoundDuration":66371,"Delta":140502741},{"NoteNumber":74,"Velocity":60,"Duration":347906,"SoundDuration":347906,"Delta":140591236},{"NoteNumber":77,"Velocity":67,"Duration":347906,"SoundDuration":347906,"Delta":140591236},{"NoteNumber":67,"Velocity":58,"Duration":695814,"SoundDuration":695814,"Delta":140591236},{"NoteNumber":76,"Velocity":62,"Duration":347907,"SoundDuration":347907,"Delta":140939143},{"NoteNumber":72,"Velocity":56,"Duration":347907,"SoundDuration":347907,"Delta":140939143},{"NoteNumber":71,"Velocity":59,"Duration":256923,"SoundDuration":256923,"Delta":141287050},{"NoteNumber":74,"Velocity":66,"Duration":256923,"SoundDuration":256923,"Delta":141287050},{"NoteNumber":55,"Velocity":50,"Duration":345943,"SoundDuration":345943,"Delta":141287050},{"NoteNumber":71,"Velocity":53,"Duration":66765,"SoundDuration":66765,"Delta":141543973},{"NoteNumber":74,"Velocity":60,"Duration":66765,"SoundDuration":66765,"Delta":141543973},{"NoteNumber":79,"Velocity":64,"Duration":693642,"SoundDuration":693642,"Delta":141632994},{"NoteNumber":69,"Velocity":50,"Duration":346821,"SoundDuration":346821,"Delta":141979815},{"NoteNumber":72,"Velocity":50,"Duration":346821,"SoundDuration":346821,"Delta":141979815},{"NoteNumber":76,"Velocity":56,"Duration":346821,"SoundDuration":346821,"Delta":141979815},{"NoteNumber":67,"Velocity":57,"Duration":346821,"SoundDuration":346821,"Delta":141979815},{"NoteNumber":69,"Velocity":53,"Duration":260115,"SoundDuration":260115,"Delta":142326636},{"NoteNumber":72,"Velocity":60,"Duration":260115,"SoundDuration":260115,"Delta":142326636},{"NoteNumber":55,"Velocity":51,"Duration":350750,"SoundDuration":350750,"Delta":142326636},{"NoteNumber":69,"Velocity":51,"Duration":67975,"SoundDuration":67975,"Delta":142586752},{"NoteNumber":72,"Velocity":57,"Duration":67975,"SoundDuration":67975,"Delta":142586752},{"NoteNumber":79,"Velocity":61,"Duration":693642,"SoundDuration":693642,"Delta":142677386},{"NoteNumber":71,"Velocity":48,"Duration":346821,"SoundDuration":346821,"Delta":143024207},{"NoteNumber":74,"Velocity":53,"Duration":346821,"SoundDuration":346821,"Delta":143024207},{"NoteNumber":67,"Velocity":56,"Duration":346821,"SoundDuration":346821,"Delta":143024207},{"NoteNumber":43,"Velocity":73,"Duration":357931,"SoundDuration":357931,"Delta":143371028},{"NoteNumber":36,"Velocity":73,"Duration":357931,"SoundDuration":357931,"Delta":143371028},{"NoteNumber":65,"Velocity":61,"Duration":722800,"SoundDuration":722800,"Delta":143684218},{"NoteNumber":71,"Velocity":69,"Duration":722800,"SoundDuration":722800,"Delta":143684218},{"NoteNumber":76,"Velocity":78,"Duration":505714,"SoundDuration":505714,"Delta":143728959},{"NoteNumber":67,"Velocity":63,"Duration":678058,"SoundDuration":678058,"Delta":143728959},{"NoteNumber":74,"Velocity":74,"Duration":129258,"SoundDuration":129258,"Delta":144234674},{"NoteNumber":72,"Velocity":64,"Duration":43086,"SoundDuration":43086,"Delta":144363932},{"NoteNumber":64,"Velocity":70,"Duration":172344,"SoundDuration":172344,"Delta":144407018},{"NoteNumber":76,"Velocity":79,"Duration":172344,"SoundDuration":172344,"Delta":144407018},{"NoteNumber":36,"Velocity":73,"Duration":344689,"SoundDuration":344689,"Delta":144407018},{"NoteNumber":43,"Velocity":73,"Duration":344689,"SoundDuration":344689,"Delta":144407018},{"NoteNumber":71,"Velocity":73,"Duration":64629,"SoundDuration":64629,"Delta":144665535},{"NoteNumber":64,"Velocity":79,"Duration":172344,"SoundDuration":172344,"Delta":144751707},{"NoteNumber":72,"Velocity":79,"Duration":172344,"SoundDuration":172344,"Delta":144751707},{"NoteNumber":55,"Velocity":67,"Duration":344688,"SoundDuration":344688,"Delta":144751707},{"NoteNumber":74,"Velocity":69,"Duration":64629,"SoundDuration":64629,"Delta":145010224},{"NoteNumber":64,"Velocity":73,"Duration":307286,"SoundDuration":307286,"Delta":145096396},{"NoteNumber":76,"Velocity":81,"Duration":307286,"SoundDuration":307286,"Delta":145096396},{"NoteNumber":60,"Velocity":67,"Duration":351184,"SoundDuration":351184,"Delta":145096396},{"NoteNumber":72,"Velocity":52,"Duration":213619,"SoundDuration":213619,"Delta":145403683},{"NoteNumber":76,"Velocity":59,"Duration":169721,"SoundDuration":169721,"Delta":145447581},{"NoteNumber":50,"Velocity":55,"Duration":339184,"SoundDuration":339184,"Delta":145447581},{"NoteNumber":78,"Velocity":53,"Duration":63451,"SoundDuration":63451,"Delta":145702163},{"NoteNumber":72,"Velocity":52,"Duration":85905,"SoundDuration":85905,"Delta":145786766},{"NoteNumber":79,"Velocity":59,"Duration":85905,"SoundDuration":85905,"Delta":145786766},{"NoteNumber":64,"Velocity":53,"Duration":85905,"SoundDuration":85905,"Delta":145786766},{"NoteNumber":72,"Velocity":55,"Duration":90062,"SoundDuration":90062,"Delta":146130389},{"NoteNumber":81,"Velocity":61,"Duration":90062,"SoundDuration":90062,"Delta":146130389},{"NoteNumber":66,"Velocity":56,"Duration":90062,"SoundDuration":90062,"Delta":146130389},{"NoteNumber":79,"Velocity":59,"Duration":45031,"SoundDuration":45031,"Delta":146445609},{"NoteNumber":71,"Velocity":58,"Duration":691530,"SoundDuration":691530,"Delta":146490641},{"NoteNumber":83,"Velocity":64,"Duration":691530,"SoundDuration":691530,"Delta":146490641},{"NoteNumber":67,"Velocity":63,"Duration":343623,"SoundDuration":343623,"Delta":146490641},{"NoteNumber":62,"Velocity":58,"Duration":347906,"SoundDuration":347906,"Delta":146834264},{"NoteNumber":71,"Velocity":53,"Duration":300670,"SoundDuration":300670,"Delta":147182171},{"NoteNumber":79,"Velocity":60,"Duration":300670,"SoundDuration":300670,"Delta":147182171},{"NoteNumber":55,"Velocity":57,"Duration":300670,"SoundDuration":300670,"Delta":147182171},{"NoteNumber":77,"Velocity":62,"Duration":42952,"SoundDuration":42952,"Delta":147482841},{"NoteNumber":81,"Velocity":69,"Duration":178965,"SoundDuration":178965,"Delta":147525794},{"NoteNumber":60,"Velocity":62,"Duration":355665,"SoundDuration":355665,"Delta":147525794},{"NoteNumber":53,"Velocity":62,"Duration":355665,"SoundDuration":355665,"Delta":147525794},{"NoteNumber":83,"Velocity":70,"Duration":176699,"SoundDuration":176699,"Delta":147704759},{"NoteNumber":77,"Velocity":67,"Duration":685184,"SoundDuration":685184,"Delta":147881459},{"NoteNumber":84,"Velocity":75,"Duration":113147,"SoundDuration":113147,"Delta":147881459},{"NoteNumber":69,"Velocity":67,"Duration":685184,"SoundDuration":685184,"Delta":147881459},{"NoteNumber":62,"Velocity":60,"Duration":685184,"SoundDuration":685184,"Delta":147881459},{"NoteNumber":86,"Velocity":67,"Duration":113147,"SoundDuration":113147,"Delta":147994606},{"NoteNumber":84,"Velocity":67,"Duration":113147,"SoundDuration":113147,"Delta":148107754},{"NoteNumber":83,"Velocity":72,"Duration":172870,"SoundDuration":172870,"Delta":148220902},{"NoteNumber":81,"Velocity":63,"Duration":172871,"SoundDuration":172871,"Delta":148393773},{"NoteNumber":76,"Velocity":67,"Duration":256923,"SoundDuration":256923,"Delta":148566644},{"NoteNumber":79,"Velocity":75,"Duration":256923,"SoundDuration":256923,"Delta":148566644},{"NoteNumber":55,"Velocity":56,"Duration":345158,"SoundDuration":345158,"Delta":148566644},{"NoteNumber":76,"Velocity":59,"Duration":66176,"SoundDuration":66176,"Delta":148823567},{"NoteNumber":79,"Velocity":66,"Duration":66176,"SoundDuration":66176,"Delta":148823567},{"NoteNumber":74,"Velocity":60,"Duration":347906,"SoundDuration":347906,"Delta":148911802},{"NoteNumber":77,"Velocity":67,"Duration":347906,"SoundDuration":347906,"Delta":148911802},{"NoteNumber":67,"Velocity":58,"Duration":695814,"SoundDuration":695814,"Delta":148911802},{"NoteNumber":76,"Velocity":62,"Duration":347907,"SoundDuration":347907,"Delta":149259709},{"NoteNumber":72,"Velocity":56,"Duration":347907,"SoundDuration":347907,"Delta":149259709},{"NoteNumber":71,"Velocity":59,"Duration":256923,"SoundDuration":256923,"Delta":149607616},{"NoteNumber":74,"Velocity":66,"Duration":256923,"SoundDuration":256923,"Delta":149607616},{"NoteNumber":55,"Velocity":50,"Duration":345158,"SoundDuration":345158,"Delta":149607616},{"NoteNumber":71,"Velocity":53,"Duration":66176,"SoundDuration":66176,"Delta":149864539},{"NoteNumber":74,"Velocity":60,"Duration":66176,"SoundDuration":66176,"Delta":149864539},{"NoteNumber":79,"Velocity":64,"Duration":693642,"SoundDuration":693642,"Delta":149952774},{"NoteNumber":69,"Velocity":50,"Duration":346821,"SoundDuration":346821,"Delta":150299595},{"NoteNumber":72,"Velocity":50,"Duration":346821,"SoundDuration":346821,"Delta":150299595},{"NoteNumber":76,"Velocity":56,"Duration":346821,"SoundDuration":346821,"Delta":150299595},{"NoteNumber":67,"Velocity":50,"Duration":346821,"SoundDuration":346821,"Delta":150299595},{"NoteNumber":74,"Velocity":57,"Duration":346820,"SoundDuration":346820,"Delta":150646416},{"NoteNumber":65,"Velocity":51,"Duration":696381,"SoundDuration":696381,"Delta":150646416},{"NoteNumber":71,"Velocity":51,"Duration":696381,"SoundDuration":696381,"Delta":150646416},{"NoteNumber":67,"Velocity":55,"Duration":696381,"SoundDuration":696381,"Delta":150646416},{"NoteNumber":76,"Velocity":53,"Duration":173410,"SoundDuration":173410,"Delta":150993237},{"NoteNumber":74,"Velocity":51,"Duration":176149,"SoundDuration":176149,"Delta":151166648},{"NoteNumber":72,"Velocity":50,"Duration":361423,"SoundDuration":361423,"Delta":151342797},{"NoteNumber":64,"Velocity":44,"Duration":361423,"SoundDuration":361423,"Delta":151342797},{"NoteNumber":60,"Velocity":42,"Duration":361423,"SoundDuration":361423,"Delta":151342797},{"NoteNumber":69,"Velocity":48,"Duration":270270,"SoundDuration":270270,"Delta":151704221},{"NoteNumber":72,"Velocity":48,"Duration":270270,"SoundDuration":270270,"Delta":151704221},{"NoteNumber":76,"Velocity":57,"Duration":270270,"SoundDuration":270270,"Delta":151704221},{"NoteNumber":69,"Velocity":42,"Duration":96153,"SoundDuration":96153,"Delta":151974491},{"NoteNumber":72,"Velocity":42,"Duration":96153,"SoundDuration":96153,"Delta":151974491},{"NoteNumber":76,"Velocity":51,"Duration":96153,"SoundDuration":96153,"Delta":151974491},{"NoteNumber":79,"Velocity":58,"Duration":731084,"SoundDuration":731084,"Delta":152070645},{"NoteNumber":71,"Velocity":40,"Duration":365542,"SoundDuration":365542,"Delta":152436187},{"NoteNumber":74,"Velocity":45,"Duration":365542,"SoundDuration":365542,"Delta":152436187},{"NoteNumber":60,"Velocity":51,"Duration":1100036,"SoundDuration":1100036,"Delta":152436187},{"NoteNumber":69,"Velocity":48,"Duration":271084,"SoundDuration":271084,"Delta":152801729},{"NoteNumber":72,"Velocity":48,"Duration":271084,"SoundDuration":271084,"Delta":152801729},{"NoteNumber":76,"Velocity":57,"Duration":271084,"SoundDuration":271084,"Delta":152801729},{"NoteNumber":69,"Velocity":42,"Duration":96774,"SoundDuration":96774,"Delta":153072813},{"NoteNumber":72,"Velocity":42,"Duration":96774,"SoundDuration":96774,"Delta":153072813},{"NoteNumber":76,"Velocity":51,"Duration":96774,"SoundDuration":96774,"Delta":153072813},{"NoteNumber":79,"Velocity":58,"Duration":733271,"SoundDuration":733271,"Delta":153169588},{"NoteNumber":71,"Velocity":40,"Duration":366635,"SoundDuration":366635,"Delta":153536224},{"NoteNumber":74,"Velocity":45,"Duration":366635,"SoundDuration":366635,"Delta":153536224},{"NoteNumber":60,"Velocity":51,"Duration":1114047,"SoundDuration":1114047,"Delta":153536224},{"NoteNumber":62,"Velocity":45,"Duration":277777,"SoundDuration":277777,"Delta":153902860},{"NoteNumber":65,"Velocity":45,"Duration":277777,"SoundDuration":277777,"Delta":153902860},{"NoteNumber":69,"Velocity":53,"Duration":277777,"SoundDuration":277777,"Delta":153902860},{"NoteNumber":62,"Velocity":40,"Duration":97402,"SoundDuration":97402,"Delta":154180637},{"NoteNumber":65,"Velocity":40,"Duration":97402,"SoundDuration":97402,"Delta":154180637},{"NoteNumber":69,"Velocity":48,"Duration":97402,"SoundDuration":97402,"Delta":154180637},{"NoteNumber":72,"Velocity":55,"Duration":744463,"SoundDuration":744463,"Delta":154278040},{"NoteNumber":64,"Velocity":38,"Duration":372231,"SoundDuration":372231,"Delta":154650272},{"NoteNumber":67,"Velocity":41,"Duration":372231,"SoundDuration":372231,"Delta":154650272},{"NoteNumber":60,"Velocity":51,"Duration":1123375,"SoundDuration":1123375,"Delta":154650272},{"NoteNumber":62,"Velocity":45,"Duration":280373,"SoundDuration":280373,"Delta":155022504},{"NoteNumber":65,"Velocity":45,"Duration":280373,"SoundDuration":280373,"Delta":155022504},{"NoteNumber":69,"Velocity":53,"Duration":280373,"SoundDuration":280373,"Delta":155022504},{"NoteNumber":62,"Velocity":40,"Duration":97402,"SoundDuration":97402,"Delta":155302878},{"NoteNumber":65,"Velocity":40,"Duration":97402,"SoundDuration":97402,"Delta":155302878},{"NoteNumber":69,"Velocity":48,"Duration":97402,"SoundDuration":97402,"Delta":155302878},{"NoteNumber":72,"Velocity":55,"Duration":753715,"SoundDuration":753715,"Delta":155400280},{"NoteNumber":64,"Velocity":38,"Duration":380348,"SoundDuration":380348,"Delta":155773647},{"NoteNumber":67,"Velocity":41,"Duration":380348,"SoundDuration":380348,"Delta":155773647},{"NoteNumber":60,"Velocity":48,"Duration":1561699,"SoundDuration":1561699,"Delta":155773647},{"NoteNumber":65,"Velocity":41,"Duration":285714,"SoundDuration":285714,"Delta":156153996},{"NoteNumber":69,"Velocity":50,"Duration":285714,"SoundDuration":285714,"Delta":156153996},{"NoteNumber":62,"Velocity":41,"Duration":285714,"SoundDuration":285714,"Delta":156153996},{"NoteNumber":65,"Velocity":38,"Duration":103806,"SoundDuration":103806,"Delta":156439710},{"NoteNumber":69,"Velocity":45,"Duration":103806,"SoundDuration":103806,"Delta":156439710},{"NoteNumber":62,"Velocity":38,"Duration":103806,"SoundDuration":103806,"Delta":156439710},{"NoteNumber":72,"Velocity":51,"Duration":791830,"SoundDuration":791830,"Delta":156543516},{"NoteNumber":64,"Velocity":36,"Duration":404257,"SoundDuration":404257,"Delta":156931088},{"NoteNumber":67,"Velocity":39,"Duration":404257,"SoundDuration":404257,"Delta":156931088},{"NoteNumber":36,"Velocity":81,"Duration":392567,"SoundDuration":392567,"Delta":157335346},{"NoteNumber":84,"Velocity":86,"Duration":390342,"SoundDuration":390342,"Delta":157727913},{"NoteNumber":76,"Velocity":77,"Duration":390342,"SoundDuration":390342,"Delta":157727913},{"NoteNumber":67,"Velocity":75,"Duration":390342,"SoundDuration":390342,"Delta":157727913},{"NoteNumber":60,"Velocity":68,"Duration":390342,"SoundDuration":390342,"Delta":157727913}],"license":{"name":"Creative Commons Attribution-ShareAlike 3.0 Germany","url":"http://creativecommons.org/licenses/by-sa/3.0/de/deed.en","text":"The MIDI, audio (MP3, OGG) and video files of Bernd Krueger are licensed under the cc-by-sa Germany License. This means that you can use and adapt the files, as long as you attribute the copyright holder.\n\nName: Bernd Krueger\nSource: http://www.piano-midi.de\n\nThe distribution or public playback of the files is only allowed under identical license conditions.\n\nThe scores are open source.","attribution":"MIDI files by Bernd Krueger (piano-midi.de)","attributionUrl":"http://www.piano-midi.de"}}