{"title":"6. Serenade","artist":"Borodin","durationMs":109929,"midiSha256":"ac130f7d235a37c3b7740399e54c96ebbe4f05a97febd47b5e014eaefc4274aa","midiObject":[{"NoteNumber":44,"Velocity":29,"Duration":428939,"SoundDuration":428939,"Delta":0},{"NoteNumber":49,"Velocity":35,"Duration":428939,"SoundDuration":428939,"Delta":0},{"NoteNumber":54,"Velocity":29,"Duration":415999,"SoundDuration":415999,"Delta":428939},{"NoteNumber":58,"Velocity":36,"Duration":415999,"SoundDuration":415999,"Delta":428939},{"NoteNumber":49,"Velocity":29,"Duration":415999,"SoundDuration":415999,"Delta":428939},{"NoteNumber":44,"Velocity":26,"Duration":204694,"SoundDuration":204694,"Delta":844938},{"NoteNumber":49,"Velocity":31,"Duration":204694,"SoundDuration":204694,"Delta":844938},{"NoteNumber":49,"Velocity":24,"Duration":215920,"SoundDuration":215920,"Delta":1049632},{"NoteNumber":54,"Velocity":24,"Duration":215920,"SoundDuration":215920,"Delta":1049632},{"NoteNumber":58,"Velocity":29,"Duration":215920,"SoundDuration":215920,"Delta":1049632},{"NoteNumber":44,"Velocity":29,"Duration":420344,"SoundDuration":420344,"Delta":1265553},{"NoteNumber":49,"Velocity":35,"Duration":420344,"SoundDuration":420344,"Delta":1265553},{"NoteNumber":54,"Velocity":29,"Duration":412087,"SoundDuration":412087,"Delta":1685897},{"NoteNumber":61,"Velocity":36,"Duration":412087,"SoundDuration":412087,"Delta":1685897},{"NoteNumber":58,"Velocity":29,"Duration":412087,"SoundDuration":412087,"Delta":1685897},{"NoteNumber":49,"Velocity":29,"Duration":412087,"SoundDuration":412087,"Delta":1685897},{"NoteNumber":44,"Velocity":27,"Duration":204694,"SoundDuration":204694,"Delta":2097985},{"NoteNumber":49,"Velocity":33,"Duration":204694,"SoundDuration":204694,"Delta":2097985},{"NoteNumber":61,"Velocity":29,"Duration":215920,"SoundDuration":215920,"Delta":2302679},{"NoteNumber":58,"Velocity":25,"Duration":215920,"SoundDuration":215920,"Delta":2302679},{"NoteNumber":54,"Velocity":25,"Duration":215920,"SoundDuration":215920,"Delta":2302679},{"NoteNumber":49,"Velocity":25,"Duration":215920,"SoundDuration":215920,"Delta":2302679},{"NoteNumber":44,"Velocity":29,"Duration":431840,"SoundDuration":431840,"Delta":2518600},{"NoteNumber":49,"Velocity":35,"Duration":431840,"SoundDuration":431840,"Delta":2518600},{"NoteNumber":53,"Velocity":30,"Duration":414823,"SoundDuration":414823,"Delta":2950441},{"NoteNumber":56,"Velocity":37,"Duration":414823,"SoundDuration":414823,"Delta":2950441},{"NoteNumber":49,"Velocity":30,"Duration":414823,"SoundDuration":414823,"Delta":2950441},{"NoteNumber":44,"Velocity":26,"Duration":206043,"SoundDuration":206043,"Delta":3365264},{"NoteNumber":49,"Velocity":31,"Duration":206043,"SoundDuration":206043,"Delta":3365264},{"NoteNumber":49,"Velocity":25,"Duration":217422,"SoundDuration":217422,"Delta":3571308},{"NoteNumber":53,"Velocity":25,"Duration":217422,"SoundDuration":217422,"Delta":3571308},{"NoteNumber":56,"Velocity":29,"Duration":217422,"SoundDuration":217422,"Delta":3571308},{"NoteNumber":44,"Velocity":29,"Duration":420344,"SoundDuration":420344,"Delta":3788731},{"NoteNumber":49,"Velocity":35,"Duration":420344,"SoundDuration":420344,"Delta":3788731},{"NoteNumber":49,"Velocity":29,"Duration":412087,"SoundDuration":412087,"Delta":4209075},{"NoteNumber":61,"Velocity":36,"Duration":412087,"SoundDuration":412087,"Delta":4209075},{"NoteNumber":53,"Velocity":29,"Duration":412087,"SoundDuration":412087,"Delta":4209075},{"NoteNumber":44,"Velocity":26,"Duration":203389,"SoundDuration":203389,"Delta":4621163},{"NoteNumber":49,"Velocity":31,"Duration":203389,"SoundDuration":203389,"Delta":4621163},{"NoteNumber":61,"Velocity":29,"Duration":217422,"SoundDuration":217422,"Delta":4824553},{"NoteNumber":53,"Velocity":24,"Duration":217422,"SoundDuration":217422,"Delta":4824553},{"NoteNumber":49,"Velocity":24,"Duration":217422,"SoundDuration":217422,"Delta":4824553},{"NoteNumber":44,"Velocity":29,"Duration":431841,"SoundDuration":431841,"Delta":5041976},{"NoteNumber":49,"Velocity":35,"Duration":431841,"SoundDuration":431841,"Delta":5041976},{"NoteNumber":49,"Velocity":30,"Duration":414823,"SoundDuration":414823,"Delta":5473817},{"NoteNumber":54,"Velocity":37,"Duration":414823,"SoundDuration":414823,"Delta":5473817},{"NoteNumber":51,"Velocity":30,"Duration":414823,"SoundDuration":414823,"Delta":5473817},{"NoteNumber":44,"Velocity":27,"Duration":204694,"SoundDuration":204694,"Delta":5888640},{"NoteNumber":49,"Velocity":33,"Duration":204694,"SoundDuration":204694,"Delta":5888640},{"NoteNumber":51,"Velocity":25,"Duration":214049,"SoundDuration":214049,"Delta":6093334},{"NoteNumber":49,"Velocity":25,"Duration":214049,"SoundDuration":214049,"Delta":6093334},{"NoteNumber":54,"Velocity":29,"Duration":214049,"SoundDuration":214049,"Delta":6093334},{"NoteNumber":44,"Velocity":29,"Duration":420344,"SoundDuration":420344,"Delta":6307383},{"NoteNumber":49,"Velocity":35,"Duration":420344,"SoundDuration":420344,"Delta":6307383},{"NoteNumber":61,"Velocity":37,"Duration":412087,"SoundDuration":412087,"Delta":6727728},{"NoteNumber":54,"Velocity":30,"Duration":412087,"SoundDuration":412087,"Delta":6727728},{"NoteNumber":51,"Velocity":30,"Duration":412087,"SoundDuration":412087,"Delta":6727728},{"NoteNumber":49,"Velocity":30,"Duration":412087,"SoundDuration":412087,"Delta":6727728},{"NoteNumber":44,"Velocity":27,"Duration":203389,"SoundDuration":203389,"Delta":7139816},{"NoteNumber":49,"Velocity":33,"Duration":203389,"SoundDuration":203389,"Delta":7139816},{"NoteNumber":54,"Velocity":25,"Duration":215920,"SoundDuration":215920,"Delta":7343206},{"NoteNumber":61,"Velocity":29,"Duration":215920,"SoundDuration":215920,"Delta":7343206},{"NoteNumber":51,"Velocity":25,"Duration":215920,"SoundDuration":215920,"Delta":7343206},{"NoteNumber":49,"Velocity":25,"Duration":215920,"SoundDuration":215920,"Delta":7343206},{"NoteNumber":44,"Velocity":29,"Duration":447160,"SoundDuration":447160,"Delta":7559126},{"NoteNumber":49,"Velocity":35,"Duration":447160,"SoundDuration":447160,"Delta":7559126},{"NoteNumber":61,"Velocity":34,"Duration":447429,"SoundDuration":447429,"Delta":8006287},{"NoteNumber":53,"Velocity":28,"Duration":447429,"SoundDuration":447429,"Delta":8006287},{"NoteNumber":49,"Velocity":28,"Duration":447429,"SoundDuration":447429,"Delta":8006287},{"NoteNumber":44,"Velocity":26,"Duration":451183,"SoundDuration":451183,"Delta":8453716},{"NoteNumber":49,"Velocity":30,"Duration":451183,"SoundDuration":451183,"Delta":8453716},{"NoteNumber":53,"Velocity":25,"Duration":455241,"SoundDuration":455241,"Delta":8904899},{"NoteNumber":61,"Velocity":30,"Duration":455241,"SoundDuration":455241,"Delta":8904899},{"NoteNumber":49,"Velocity":25,"Duration":455241,"SoundDuration":455241,"Delta":8904899},{"NoteNumber":44,"Velocity":23,"Duration":459095,"SoundDuration":459095,"Delta":9360140},{"NoteNumber":49,"Velocity":28,"Duration":459095,"SoundDuration":459095,"Delta":9360140},{"NoteNumber":61,"Velocity":28,"Duration":463611,"SoundDuration":463611,"Delta":9819235},{"NoteNumber":53,"Velocity":23,"Duration":463611,"SoundDuration":463611,"Delta":9819235},{"NoteNumber":49,"Velocity":23,"Duration":463611,"SoundDuration":463611,"Delta":9819235},{"NoteNumber":44,"Velocity":20,"Duration":468219,"SoundDuration":468219,"Delta":10282847},{"NoteNumber":49,"Velocity":26,"Duration":468219,"SoundDuration":468219,"Delta":10282847},{"NoteNumber":49,"Velocity":19,"Duration":472298,"SoundDuration":472298,"Delta":10751066},{"NoteNumber":61,"Velocity":24,"Duration":472298,"SoundDuration":472298,"Delta":10751066},{"NoteNumber":53,"Velocity":19,"Duration":472298,"SoundDuration":472298,"Delta":10751066},{"NoteNumber":44,"Velocity":19,"Duration":492611,"SoundDuration":492611,"Delta":11223365},{"NoteNumber":49,"Velocity":23,"Duration":492611,"SoundDuration":492611,"Delta":11223365},{"NoteNumber":61,"Velocity":22,"Duration":521104,"SoundDuration":521104,"Delta":11715976},{"NoteNumber":53,"Velocity":18,"Duration":521104,"SoundDuration":521104,"Delta":11715976},{"NoteNumber":49,"Velocity":18,"Duration":521104,"SoundDuration":521104,"Delta":11715976},{"NoteNumber":44,"Velocity":17,"Duration":423130,"SoundDuration":423130,"Delta":12237080},{"NoteNumber":49,"Velocity":19,"Duration":423130,"SoundDuration":423130,"Delta":12237080},{"NoteNumber":54,"Velocity":38,"Duration":215920,"SoundDuration":215920,"Delta":15605409},{"NoteNumber":58,"Velocity":49,"Duration":215920,"SoundDuration":215920,"Delta":15605409},{"NoteNumber":44,"Velocity":34,"Duration":466409,"SoundDuration":466409,"Delta":15605409},{"NoteNumber":49,"Velocity":41,"Duration":466409,"SoundDuration":466409,"Delta":15605409},{"NoteNumber":54,"Velocity":40,"Duration":1259918,"SoundDuration":1259918,"Delta":16037250},{"NoteNumber":58,"Velocity":53,"Duration":1259918,"SoundDuration":1259918,"Delta":16037250},{"NoteNumber":56,"Velocity":33,"Duration":414822,"SoundDuration":414822,"Delta":16037250},{"NoteNumber":60,"Velocity":48,"Duration":421964,"SoundDuration":421964,"Delta":16452073},{"NoteNumber":44,"Velocity":31,"Duration":206043,"SoundDuration":206043,"Delta":16452073},{"NoteNumber":49,"Velocity":38,"Duration":206043,"SoundDuration":206043,"Delta":16452073},{"NoteNumber":56,"Velocity":34,"Duration":215920,"SoundDuration":215920,"Delta":16658117},{"NoteNumber":63,"Velocity":50,"Duration":211565,"SoundDuration":211565,"Delta":16874038},{"NoteNumber":44,"Velocity":34,"Duration":457699,"SoundDuration":457699,"Delta":16874038},{"NoteNumber":49,"Velocity":41,"Duration":457699,"SoundDuration":457699,"Delta":16874038},{"NoteNumber":58,"Velocity":41,"Duration":834133,"SoundDuration":834133,"Delta":17297169},{"NoteNumber":54,"Velocity":41,"Duration":834133,"SoundDuration":834133,"Delta":17297169},{"NoteNumber":63,"Velocity":55,"Duration":414822,"SoundDuration":414822,"Delta":17297169},{"NoteNumber":56,"Velocity":34,"Duration":414822,"SoundDuration":414822,"Delta":17297169},{"NoteNumber":60,"Velocity":48,"Duration":419310,"SoundDuration":419310,"Delta":17711992},{"NoteNumber":44,"Velocity":31,"Duration":203389,"SoundDuration":203389,"Delta":17711992},{"NoteNumber":49,"Velocity":38,"Duration":203389,"SoundDuration":203389,"Delta":17711992},{"NoteNumber":56,"Velocity":33,"Duration":215920,"SoundDuration":215920,"Delta":17915381},{"NoteNumber":53,"Velocity":38,"Duration":215920,"SoundDuration":215920,"Delta":18131302},{"NoteNumber":56,"Velocity":38,"Duration":215920,"SoundDuration":215920,"Delta":18131302},{"NoteNumber":61,"Velocity":46,"Duration":215920,"SoundDuration":215920,"Delta":18131302},{"NoteNumber":44,"Velocity":34,"Duration":466409,"SoundDuration":466409,"Delta":18131302},{"NoteNumber":49,"Velocity":41,"Duration":466409,"SoundDuration":466409,"Delta":18131302},{"NoteNumber":53,"Velocity":39,"Duration":1268628,"SoundDuration":1268628,"Delta":18563143},{"NoteNumber":61,"Velocity":48,"Duration":414822,"SoundDuration":414822,"Delta":18563143},{"NoteNumber":56,"Velocity":33,"Duration":414822,"SoundDuration":414822,"Delta":18563143},{"NoteNumber":60,"Velocity":47,"Duration":421964,"SoundDuration":421964,"Delta":18977966},{"NoteNumber":44,"Velocity":31,"Duration":206043,"SoundDuration":206043,"Delta":18977966},{"NoteNumber":49,"Velocity":39,"Duration":206043,"SoundDuration":206043,"Delta":18977966},{"NoteNumber":56,"Velocity":34,"Duration":212321,"SoundDuration":212321,"Delta":19184010},{"NoteNumber":56,"Velocity":45,"Duration":431840,"SoundDuration":431840,"Delta":19399930},{"NoteNumber":44,"Velocity":30,"Duration":431840,"SoundDuration":431840,"Delta":19399930},{"NoteNumber":49,"Velocity":37,"Duration":467101,"SoundDuration":467101,"Delta":19399930},{"NoteNumber":53,"Velocity":42,"Duration":851001,"SoundDuration":851001,"Delta":19831771},{"NoteNumber":56,"Velocity":29,"Duration":423131,"SoundDuration":423131,"Delta":19831771},{"NoteNumber":44,"Velocity":28,"Duration":207411,"SoundDuration":207411,"Delta":20254902},{"NoteNumber":49,"Velocity":34,"Duration":207411,"SoundDuration":207411,"Delta":20254902},{"NoteNumber":56,"Velocity":31,"Duration":220458,"SoundDuration":220458,"Delta":20462314},{"NoteNumber":51,"Velocity":38,"Duration":215920,"SoundDuration":215920,"Delta":20682772},{"NoteNumber":54,"Velocity":49,"Duration":215920,"SoundDuration":215920,"Delta":20682772},{"NoteNumber":44,"Velocity":34,"Duration":466409,"SoundDuration":466409,"Delta":20682772},{"NoteNumber":49,"Velocity":41,"Duration":466409,"SoundDuration":466409,"Delta":20682772},{"NoteNumber":51,"Velocity":40,"Duration":1259918,"SoundDuration":1259918,"Delta":21114613},{"NoteNumber":54,"Velocity":53,"Duration":1259918,"SoundDuration":1259918,"Delta":21114613},{"NoteNumber":56,"Velocity":33,"Duration":414822,"SoundDuration":414822,"Delta":21114613},{"NoteNumber":58,"Velocity":48,"Duration":421964,"SoundDuration":421964,"Delta":21529436},{"NoteNumber":44,"Velocity":31,"Duration":206043,"SoundDuration":206043,"Delta":21529436},{"NoteNumber":49,"Velocity":38,"Duration":206043,"SoundDuration":206043,"Delta":21529436},{"NoteNumber":56,"Velocity":34,"Duration":215920,"SoundDuration":215920,"Delta":21735480},{"NoteNumber":60,"Velocity":50,"Duration":211565,"SoundDuration":211565,"Delta":21951401},{"NoteNumber":44,"Velocity":34,"Duration":457699,"SoundDuration":457699,"Delta":21951401},{"NoteNumber":49,"Velocity":41,"Duration":457699,"SoundDuration":457699,"Delta":21951401},{"NoteNumber":54,"Velocity":41,"Duration":834133,"SoundDuration":834133,"Delta":22374532},{"NoteNumber":51,"Velocity":41,"Duration":834133,"SoundDuration":834133,"Delta":22374532},{"NoteNumber":60,"Velocity":55,"Duration":414822,"SoundDuration":414822,"Delta":22374532},{"NoteNumber":56,"Velocity":34,"Duration":414822,"SoundDuration":414822,"Delta":22374532},{"NoteNumber":56,"Velocity":48,"Duration":419310,"SoundDuration":419310,"Delta":22789355},{"NoteNumber":44,"Velocity":31,"Duration":203389,"SoundDuration":203389,"Delta":22789355},{"NoteNumber":49,"Velocity":38,"Duration":203389,"SoundDuration":203389,"Delta":22789355},{"NoteNumber":56,"Velocity":33,"Duration":215920,"SoundDuration":215920,"Delta":22992745},{"NoteNumber":56,"Velocity":38,"Duration":215920,"SoundDuration":215920,"Delta":23208665},{"NoteNumber":61,"Velocity":46,"Duration":215920,"SoundDuration":215920,"Delta":23208665},{"NoteNumber":44,"Velocity":34,"Duration":466409,"SoundDuration":466409,"Delta":23208665},{"NoteNumber":49,"Velocity":41,"Duration":466409,"SoundDuration":466409,"Delta":23208665},{"NoteNumber":53,"Velocity":39,"Duration":1268628,"SoundDuration":1268628,"Delta":23640506},{"NoteNumber":61,"Velocity":48,"Duration":836787,"SoundDuration":836787,"Delta":23640506},{"NoteNumber":56,"Velocity":33,"Duration":414822,"SoundDuration":414822,"Delta":23640506},{"NoteNumber":44,"Velocity":31,"Duration":206043,"SoundDuration":206043,"Delta":24055329},{"NoteNumber":49,"Velocity":39,"Duration":206043,"SoundDuration":206043,"Delta":24055329},{"NoteNumber":56,"Velocity":34,"Duration":215920,"SoundDuration":215920,"Delta":24261373},{"NoteNumber":60,"Velocity":45,"Duration":215920,"SoundDuration":215920,"Delta":24477294},{"NoteNumber":44,"Velocity":31,"Duration":466869,"SoundDuration":466869,"Delta":24477294},{"NoteNumber":49,"Velocity":38,"Duration":466869,"SoundDuration":466869,"Delta":24477294},{"NoteNumber":53,"Velocity":39,"Duration":848214,"SoundDuration":848214,"Delta":24909135},{"NoteNumber":60,"Velocity":47,"Duration":848214,"SoundDuration":848214,"Delta":24909135},{"NoteNumber":56,"Velocity":30,"Duration":420344,"SoundDuration":420344,"Delta":24909135},{"NoteNumber":44,"Velocity":29,"Duration":207411,"SoundDuration":207411,"Delta":25329479},{"NoteNumber":49,"Velocity":36,"Duration":207411,"SoundDuration":207411,"Delta":25329479},{"NoteNumber":56,"Velocity":31,"Duration":220458,"SoundDuration":220458,"Delta":25536891},{"NoteNumber":54,"Velocity":38,"Duration":215920,"SoundDuration":215920,"Delta":25757349},{"NoteNumber":58,"Velocity":49,"Duration":215920,"SoundDuration":215920,"Delta":25757349},{"NoteNumber":44,"Velocity":34,"Duration":466409,"SoundDuration":466409,"Delta":25757349},{"NoteNumber":49,"Velocity":41,"Duration":466409,"SoundDuration":466409,"Delta":25757349},{"NoteNumber":54,"Velocity":40,"Duration":1259918,"SoundDuration":1259918,"Delta":26189190},{"NoteNumber":58,"Velocity":53,"Duration":1259918,"SoundDuration":1259918,"Delta":26189190},{"NoteNumber":56,"Velocity":33,"Duration":414822,"SoundDuration":414822,"Delta":26189190},{"NoteNumber":60,"Velocity":48,"Duration":421964,"SoundDuration":421964,"Delta":26604013},{"NoteNumber":44,"Velocity":31,"Duration":206043,"SoundDuration":206043,"Delta":26604013},{"NoteNumber":49,"Velocity":38,"Duration":206043,"SoundDuration":206043,"Delta":26604013},{"NoteNumber":56,"Velocity":34,"Duration":215920,"SoundDuration":215920,"Delta":26810057},{"NoteNumber":63,"Velocity":50,"Duration":211565,"SoundDuration":211565,"Delta":27025978},{"NoteNumber":44,"Velocity":34,"Duration":457699,"SoundDuration":457699,"Delta":27025978},{"NoteNumber":49,"Velocity":41,"Duration":457699,"SoundDuration":457699,"Delta":27025978},{"NoteNumber":58,"Velocity":41,"Duration":834133,"SoundDuration":834133,"Delta":27449109},{"NoteNumber":54,"Velocity":41,"Duration":834133,"SoundDuration":834133,"Delta":27449109},{"NoteNumber":63,"Velocity":55,"Duration":414822,"SoundDuration":414822,"Delta":27449109},{"NoteNumber":56,"Velocity":34,"Duration":414822,"SoundDuration":414822,"Delta":27449109},{"NoteNumber":60,"Velocity":48,"Duration":419310,"SoundDuration":419310,"Delta":27863932},{"NoteNumber":44,"Velocity":31,"Duration":203389,"SoundDuration":203389,"Delta":27863932},{"NoteNumber":49,"Velocity":38,"Duration":203389,"SoundDuration":203389,"Delta":27863932},{"NoteNumber":56,"Velocity":33,"Duration":215920,"SoundDuration":215920,"Delta":28067321},{"NoteNumber":53,"Velocity":38,"Duration":215920,"SoundDuration":215920,"Delta":28283242},{"NoteNumber":56,"Velocity":38,"Duration":215920,"SoundDuration":215920,"Delta":28283242},{"NoteNumber":61,"Velocity":46,"Duration":215920,"SoundDuration":215920,"Delta":28283242},{"NoteNumber":44,"Velocity":34,"Duration":466409,"SoundDuration":466409,"Delta":28283242},{"NoteNumber":49,"Velocity":41,"Duration":466409,"SoundDuration":466409,"Delta":28283242},{"NoteNumber":53,"Velocity":39,"Duration":1268628,"SoundDuration":1268628,"Delta":28715083},{"NoteNumber":61,"Velocity":48,"Duration":414822,"SoundDuration":414822,"Delta":28715083},{"NoteNumber":56,"Velocity":33,"Duration":414822,"SoundDuration":414822,"Delta":28715083},{"NoteNumber":60,"Velocity":47,"Duration":206043,"SoundDuration":206043,"Delta":29129906},{"NoteNumber":44,"Velocity":31,"Duration":206043,"SoundDuration":206043,"Delta":29129906},{"NoteNumber":49,"Velocity":39,"Duration":206043,"SoundDuration":206043,"Delta":29129906},{"NoteNumber":61,"Velocity":42,"Duration":107960,"SoundDuration":107960,"Delta":29335950},{"NoteNumber":56,"Velocity":34,"Duration":212321,"SoundDuration":212321,"Delta":29335950},{"NoteNumber":60,"Velocity":38,"Duration":107960,"SoundDuration":107960,"Delta":29443910},{"NoteNumber":56,"Velocity":45,"Duration":431840,"SoundDuration":431840,"Delta":29551870},{"NoteNumber":44,"Velocity":30,"Duration":431840,"SoundDuration":431840,"Delta":29551870},{"NoteNumber":49,"Velocity":37,"Duration":431840,"SoundDuration":431840,"Delta":29551870},{"NoteNumber":53,"Velocity":42,"Duration":851001,"SoundDuration":851001,"Delta":29983711},{"NoteNumber":56,"Velocity":29,"Duration":423131,"SoundDuration":423131,"Delta":29983711},{"NoteNumber":44,"Velocity":28,"Duration":207411,"SoundDuration":207411,"Delta":30406842},{"NoteNumber":49,"Velocity":34,"Duration":207411,"SoundDuration":207411,"Delta":30406842},{"NoteNumber":56,"Velocity":31,"Duration":220458,"SoundDuration":220458,"Delta":30614254},{"NoteNumber":58,"Velocity":38,"Duration":215920,"SoundDuration":215920,"Delta":30834712},{"NoteNumber":54,"Velocity":38,"Duration":215920,"SoundDuration":215920,"Delta":30834712},{"NoteNumber":63,"Velocity":49,"Duration":215920,"SoundDuration":215920,"Delta":30834712},{"NoteNumber":44,"Velocity":36,"Duration":466409,"SoundDuration":466409,"Delta":30834712},{"NoteNumber":49,"Velocity":42,"Duration":466409,"SoundDuration":466409,"Delta":30834712},{"NoteNumber":63,"Velocity":53,"Duration":414822,"SoundDuration":414822,"Delta":31266553},{"NoteNumber":54,"Velocity":40,"Duration":1259918,"SoundDuration":1259918,"Delta":31266553},{"NoteNumber":58,"Velocity":53,"Duration":1259918,"SoundDuration":1259918,"Delta":31266553},{"NoteNumber":56,"Velocity":34,"Duration":414822,"SoundDuration":414822,"Delta":31266553},{"NoteNumber":65,"Velocity":53,"Duration":421964,"SoundDuration":421964,"Delta":31681376},{"NoteNumber":44,"Velocity":31,"Duration":206043,"SoundDuration":206043,"Delta":31681376},{"NoteNumber":49,"Velocity":39,"Duration":206043,"SoundDuration":206043,"Delta":31681376},{"NoteNumber":56,"Velocity":36,"Duration":215920,"SoundDuration":215920,"Delta":31887420},{"NoteNumber":66,"Velocity":59,"Duration":211565,"SoundDuration":211565,"Delta":32103341},{"NoteNumber":44,"Velocity":36,"Duration":457699,"SoundDuration":457699,"Delta":32103341},{"NoteNumber":49,"Velocity":42,"Duration":457699,"SoundDuration":457699,"Delta":32103341},{"NoteNumber":58,"Velocity":41,"Duration":414822,"SoundDuration":414822,"Delta":32526472},{"NoteNumber":66,"Velocity":57,"Duration":414822,"SoundDuration":414822,"Delta":32526472},{"NoteNumber":56,"Velocity":36,"Duration":414822,"SoundDuration":414822,"Delta":32526472},{"NoteNumber":60,"Velocity":41,"Duration":419310,"SoundDuration":419310,"Delta":32941295},{"NoteNumber":65,"Velocity":52,"Duration":419310,"SoundDuration":419310,"Delta":32941295},{"NoteNumber":44,"Velocity":31,"Duration":203389,"SoundDuration":203389,"Delta":32941295},{"NoteNumber":49,"Velocity":39,"Duration":203389,"SoundDuration":203389,"Delta":32941295},{"NoteNumber":56,"Velocity":34,"Duration":215920,"SoundDuration":215920,"Delta":33144685},{"NoteNumber":53,"Velocity":38,"Duration":2571897,"SoundDuration":2571897,"Delta":33360605},{"NoteNumber":61,"Velocity":46,"Duration":2571897,"SoundDuration":2571897,"Delta":33360605},{"NoteNumber":44,"Velocity":31,"Duration":431840,"SoundDuration":431840,"Delta":33360605},{"NoteNumber":49,"Velocity":42,"Duration":431840,"SoundDuration":431840,"Delta":33360605},{"NoteNumber":56,"Velocity":36,"Duration":414822,"SoundDuration":414822,"Delta":33792446},{"NoteNumber":44,"Velocity":37,"Duration":206043,"SoundDuration":206043,"Delta":34207269},{"NoteNumber":49,"Velocity":41,"Duration":206043,"SoundDuration":206043,"Delta":34207269},{"NoteNumber":56,"Velocity":38,"Duration":215920,"SoundDuration":215920,"Delta":34413313},{"NoteNumber":44,"Velocity":40,"Duration":431840,"SoundDuration":431840,"Delta":34629234},{"NoteNumber":49,"Velocity":45,"Duration":431840,"SoundDuration":431840,"Delta":34629234},{"NoteNumber":56,"Velocity":40,"Duration":420344,"SoundDuration":420344,"Delta":35061075},{"NoteNumber":44,"Velocity":42,"Duration":207411,"SoundDuration":207411,"Delta":35481419},{"NoteNumber":49,"Velocity":53,"Duration":207411,"SoundDuration":207411,"Delta":35481419},{"NoteNumber":56,"Velocity":55,"Duration":130276,"SoundDuration":130276,"Delta":35688831},{"NoteNumber":37,"Velocity":51,"Duration":960059,"SoundDuration":960059,"Delta":35819107},{"NoteNumber":59,"Velocity":56,"Duration":431840,"SoundDuration":431840,"Delta":35932503},{"NoteNumber":62,"Velocity":56,"Duration":431840,"SoundDuration":431840,"Delta":35932503},{"NoteNumber":65,"Velocity":56,"Duration":431840,"SoundDuration":431840,"Delta":35932503},{"NoteNumber":68,"Velocity":72,"Duration":431840,"SoundDuration":431840,"Delta":35932503},{"NoteNumber":49,"Velocity":56,"Duration":846663,"SoundDuration":846663,"Delta":35932503},{"NoteNumber":59,"Velocity":60,"Duration":1259918,"SoundDuration":1259918,"Delta":36364344},{"NoteNumber":62,"Velocity":60,"Duration":1259918,"SoundDuration":1259918,"Delta":36364344},{"NoteNumber":65,"Velocity":60,"Duration":1259918,"SoundDuration":1259918,"Delta":36364344},{"NoteNumber":68,"Velocity":79,"Duration":620866,"SoundDuration":620866,"Delta":36364344},{"NoteNumber":49,"Velocity":45,"Duration":421964,"SoundDuration":421964,"Delta":36779167},{"NoteNumber":70,"Velocity":71,"Duration":215920,"SoundDuration":215920,"Delta":36985211},{"NoteNumber":68,"Velocity":73,"Duration":211565,"SoundDuration":211565,"Delta":37201131},{"NoteNumber":37,"Velocity":56,"Duration":1257264,"SoundDuration":1257264,"Delta":37201131},{"NoteNumber":62,"Velocity":55,"Duration":207411,"SoundDuration":207411,"Delta":37624262},{"NoteNumber":59,"Velocity":55,"Duration":207411,"SoundDuration":207411,"Delta":37624262},{"NoteNumber":66,"Velocity":72,"Duration":207411,"SoundDuration":207411,"Delta":37624262},{"NoteNumber":49,"Velocity":46,"Duration":414822,"SoundDuration":414822,"Delta":37624262},{"NoteNumber":59,"Velocity":55,"Duration":203389,"SoundDuration":203389,"Delta":38039085},{"NoteNumber":62,"Velocity":57,"Duration":203389,"SoundDuration":203389,"Delta":38039085},{"NoteNumber":65,"Velocity":71,"Duration":203389,"SoundDuration":203389,"Delta":38039085},{"NoteNumber":49,"Velocity":51,"Duration":203389,"SoundDuration":203389,"Delta":38039085},{"NoteNumber":66,"Velocity":68,"Duration":431840,"SoundDuration":431840,"Delta":38458395},{"NoteNumber":37,"Velocity":56,"Duration":431840,"SoundDuration":431840,"Delta":38458395},{"NoteNumber":58,"Velocity":57,"Duration":414822,"SoundDuration":414822,"Delta":38890236},{"NoteNumber":63,"Velocity":57,"Duration":414822,"SoundDuration":414822,"Delta":38890236},{"NoteNumber":66,"Velocity":71,"Duration":414822,"SoundDuration":414822,"Delta":38890236},{"NoteNumber":49,"Velocity":45,"Duration":414822,"SoundDuration":414822,"Delta":38890236},{"NoteNumber":65,"Velocity":61,"Duration":103022,"SoundDuration":103022,"Delta":39305059},{"NoteNumber":37,"Velocity":52,"Duration":206043,"SoundDuration":206043,"Delta":39305059},{"NoteNumber":66,"Velocity":55,"Duration":103021,"SoundDuration":103021,"Delta":39408081},{"NoteNumber":65,"Velocity":61,"Duration":107960,"SoundDuration":107960,"Delta":39511103},{"NoteNumber":49,"Velocity":46,"Duration":215920,"SoundDuration":215920,"Delta":39511103},{"NoteNumber":63,"Velocity":52,"Duration":102562,"SoundDuration":102562,"Delta":39619064},{"NoteNumber":63,"Velocity":66,"Duration":1282841,"SoundDuration":1282841,"Delta":39727024},{"NoteNumber":37,"Velocity":50,"Duration":431840,"SoundDuration":431840,"Delta":39727024},{"NoteNumber":58,"Velocity":51,"Duration":851000,"SoundDuration":851000,"Delta":40158865},{"NoteNumber":54,"Velocity":48,"Duration":851000,"SoundDuration":851000,"Delta":40158865},{"NoteNumber":49,"Velocity":39,"Duration":423130,"SoundDuration":423130,"Delta":40158865},{"NoteNumber":37,"Velocity":46,"Duration":207411,"SoundDuration":207411,"Delta":40581996},{"NoteNumber":49,"Velocity":44,"Duration":220458,"SoundDuration":220458,"Delta":40789407},{"NoteNumber":57,"Velocity":72,"Duration":1691759,"SoundDuration":1691759,"Delta":41009866},{"NoteNumber":37,"Velocity":56,"Duration":431840,"SoundDuration":431840,"Delta":41009866},{"NoteNumber":65,"Velocity":72,"Duration":620866,"SoundDuration":620866,"Delta":41441707},{"NoteNumber":49,"Velocity":45,"Duration":414822,"SoundDuration":414822,"Delta":41441707},{"NoteNumber":37,"Velocity":51,"Duration":206043,"SoundDuration":206043,"Delta":41856530},{"NoteNumber":63,"Velocity":66,"Duration":107960,"SoundDuration":107960,"Delta":42062574},{"NoteNumber":49,"Velocity":46,"Duration":215920,"SoundDuration":215920,"Delta":42062574},{"NoteNumber":65,"Velocity":57,"Duration":107960,"SoundDuration":107960,"Delta":42170534},{"NoteNumber":63,"Velocity":73,"Duration":423130,"SoundDuration":423130,"Delta":42278494},{"NoteNumber":37,"Velocity":56,"Duration":423130,"SoundDuration":423130,"Delta":42278494},{"NoteNumber":65,"Velocity":57,"Duration":834133,"SoundDuration":834133,"Delta":42701625},{"NoteNumber":57,"Velocity":55,"Duration":834133,"SoundDuration":834133,"Delta":42701625},{"NoteNumber":61,"Velocity":69,"Duration":414822,"SoundDuration":414822,"Delta":42701625},{"NoteNumber":49,"Velocity":46,"Duration":414822,"SoundDuration":414822,"Delta":42701625},{"NoteNumber":60,"Velocity":69,"Duration":419310,"SoundDuration":419310,"Delta":43116448},{"NoteNumber":37,"Velocity":51,"Duration":203389,"SoundDuration":203389,"Delta":43116448},{"NoteNumber":49,"Velocity":45,"Duration":215920,"SoundDuration":215920,"Delta":43319838},{"NoteNumber":61,"Velocity":68,"Duration":215920,"SoundDuration":215920,"Delta":43535759},{"NoteNumber":37,"Velocity":56,"Duration":466409,"SoundDuration":466409,"Delta":43535759},{"NoteNumber":65,"Velocity":52,"Duration":836787,"SoundDuration":836787,"Delta":43967600},{"NoteNumber":58,"Velocity":52,"Duration":836787,"SoundDuration":836787,"Delta":43967600},{"NoteNumber":61,"Velocity":71,"Duration":836787,"SoundDuration":836787,"Delta":43967600},{"NoteNumber":49,"Velocity":45,"Duration":414822,"SoundDuration":414822,"Delta":43967600},{"NoteNumber":37,"Velocity":52,"Duration":206043,"SoundDuration":206043,"Delta":44382423},{"NoteNumber":49,"Velocity":46,"Duration":215920,"SoundDuration":215920,"Delta":44588467},{"NoteNumber":60,"Velocity":66,"Duration":215920,"SoundDuration":215920,"Delta":44804387},{"NoteNumber":37,"Velocity":51,"Duration":466869,"SoundDuration":466869,"Delta":44804387},{"NoteNumber":65,"Velocity":53,"Duration":869313,"SoundDuration":869313,"Delta":45236228},{"NoteNumber":56,"Velocity":51,"Duration":869313,"SoundDuration":869313,"Delta":45236228},{"NoteNumber":60,"Velocity":69,"Duration":869313,"SoundDuration":869313,"Delta":45236228},{"NoteNumber":49,"Velocity":40,"Duration":420344,"SoundDuration":420344,"Delta":45236228},{"NoteNumber":37,"Velocity":48,"Duration":207411,"SoundDuration":207411,"Delta":45656573},{"NoteNumber":49,"Velocity":44,"Duration":128161,"SoundDuration":128161,"Delta":45863984},{"NoteNumber":37,"Velocity":46,"Duration":960059,"SoundDuration":960059,"Delta":45992145},{"NoteNumber":59,"Velocity":56,"Duration":431840,"SoundDuration":431840,"Delta":46105541},{"NoteNumber":62,"Velocity":56,"Duration":431840,"SoundDuration":431840,"Delta":46105541},{"NoteNumber":65,"Velocity":56,"Duration":431840,"SoundDuration":431840,"Delta":46105541},{"NoteNumber":68,"Velocity":72,"Duration":431840,"SoundDuration":431840,"Delta":46105541},{"NoteNumber":49,"Velocity":56,"Duration":846663,"SoundDuration":846663,"Delta":46105541},{"NoteNumber":59,"Velocity":60,"Duration":1259918,"SoundDuration":1259918,"Delta":46537382},{"NoteNumber":62,"Velocity":60,"Duration":1259918,"SoundDuration":1259918,"Delta":46537382},{"NoteNumber":65,"Velocity":60,"Duration":1259918,"SoundDuration":1259918,"Delta":46537382},{"NoteNumber":68,"Velocity":79,"Duration":620866,"SoundDuration":620866,"Delta":46537382},{"NoteNumber":49,"Velocity":45,"Duration":421964,"SoundDuration":421964,"Delta":46952205},{"NoteNumber":70,"Velocity":71,"Duration":215920,"SoundDuration":215920,"Delta":47158249},{"NoteNumber":68,"Velocity":73,"Duration":211565,"SoundDuration":211565,"Delta":47374170},{"NoteNumber":37,"Velocity":56,"Duration":1257264,"SoundDuration":1257264,"Delta":47374170},{"NoteNumber":62,"Velocity":55,"Duration":207411,"SoundDuration":207411,"Delta":47797301},{"NoteNumber":59,"Velocity":55,"Duration":207411,"SoundDuration":207411,"Delta":47797301},{"NoteNumber":66,"Velocity":72,"Duration":207411,"SoundDuration":207411,"Delta":47797301},{"NoteNumber":49,"Velocity":46,"Duration":414822,"SoundDuration":414822,"Delta":47797301},{"NoteNumber":59,"Velocity":55,"Duration":203389,"SoundDuration":203389,"Delta":48212124},{"NoteNumber":62,"Velocity":57,"Duration":203389,"SoundDuration":203389,"Delta":48212124},{"NoteNumber":65,"Velocity":71,"Duration":203389,"SoundDuration":203389,"Delta":48212124},{"NoteNumber":49,"Velocity":51,"Duration":203389,"SoundDuration":203389,"Delta":48212124},{"NoteNumber":66,"Velocity":68,"Duration":431840,"SoundDuration":431840,"Delta":48631434},{"NoteNumber":37,"Velocity":56,"Duration":431840,"SoundDuration":431840,"Delta":48631434},{"NoteNumber":58,"Velocity":57,"Duration":414822,"SoundDuration":414822,"Delta":49063275},{"NoteNumber":63,"Velocity":57,"Duration":414822,"SoundDuration":414822,"Delta":49063275},{"NoteNumber":66,"Velocity":71,"Duration":414822,"SoundDuration":414822,"Delta":49063275},{"NoteNumber":49,"Velocity":45,"Duration":414822,"SoundDuration":414822,"Delta":49063275},{"NoteNumber":65,"Velocity":61,"Duration":103022,"SoundDuration":103022,"Delta":49478098},{"NoteNumber":37,"Velocity":52,"Duration":206043,"SoundDuration":206043,"Delta":49478098},{"NoteNumber":66,"Velocity":55,"Duration":103021,"SoundDuration":103021,"Delta":49581120},{"NoteNumber":65,"Velocity":61,"Duration":107960,"SoundDuration":107960,"Delta":49684142},{"NoteNumber":49,"Velocity":46,"Duration":215920,"SoundDuration":215920,"Delta":49684142},{"NoteNumber":63,"Velocity":52,"Duration":102562,"SoundDuration":102562,"Delta":49792102},{"NoteNumber":63,"Velocity":66,"Duration":1282841,"SoundDuration":1282841,"Delta":49900063},{"NoteNumber":37,"Velocity":50,"Duration":431840,"SoundDuration":431840,"Delta":49900063},{"NoteNumber":58,"Velocity":51,"Duration":851000,"SoundDuration":851000,"Delta":50331904},{"NoteNumber":54,"Velocity":48,"Duration":851000,"SoundDuration":851000,"Delta":50331904},{"NoteNumber":49,"Velocity":39,"Duration":423130,"SoundDuration":423130,"Delta":50331904},{"NoteNumber":37,"Velocity":46,"Duration":207411,"SoundDuration":207411,"Delta":50755035},{"NoteNumber":49,"Velocity":44,"Duration":220458,"SoundDuration":220458,"Delta":50962446},{"NoteNumber":57,"Velocity":72,"Duration":1691759,"SoundDuration":1691759,"Delta":51182905},{"NoteNumber":37,"Velocity":56,"Duration":431840,"SoundDuration":431840,"Delta":51182905},{"NoteNumber":65,"Velocity":73,"Duration":620866,"SoundDuration":620866,"Delta":51614746},{"NoteNumber":49,"Velocity":45,"Duration":414822,"SoundDuration":414822,"Delta":51614746},{"NoteNumber":37,"Velocity":51,"Duration":206043,"SoundDuration":206043,"Delta":52029569},{"NoteNumber":63,"Velocity":66,"Duration":107960,"SoundDuration":107960,"Delta":52235613},{"NoteNumber":49,"Velocity":46,"Duration":215920,"SoundDuration":215920,"Delta":52235613},{"NoteNumber":65,"Velocity":57,"Duration":107960,"SoundDuration":107960,"Delta":52343573},{"NoteNumber":63,"Velocity":73,"Duration":423130,"SoundDuration":423130,"Delta":52451533},{"NoteNumber":37,"Velocity":56,"Duration":423130,"SoundDuration":423130,"Delta":52451533},{"NoteNumber":65,"Velocity":57,"Duration":834133,"SoundDuration":834133,"Delta":52874664},{"NoteNumber":57,"Velocity":55,"Duration":834133,"SoundDuration":834133,"Delta":52874664},{"NoteNumber":61,"Velocity":69,"Duration":414822,"SoundDuration":414822,"Delta":52874664},{"NoteNumber":49,"Velocity":46,"Duration":414822,"SoundDuration":414822,"Delta":52874664},{"NoteNumber":60,"Velocity":69,"Duration":419310,"SoundDuration":419310,"Delta":53289487},{"NoteNumber":37,"Velocity":51,"Duration":203389,"SoundDuration":203389,"Delta":53289487},{"NoteNumber":49,"Velocity":45,"Duration":215920,"SoundDuration":215920,"Delta":53492877},{"NoteNumber":61,"Velocity":68,"Duration":215920,"SoundDuration":215920,"Delta":53708797},{"NoteNumber":37,"Velocity":56,"Duration":466409,"SoundDuration":466409,"Delta":53708797},{"NoteNumber":65,"Velocity":52,"Duration":836787,"SoundDuration":836787,"Delta":54140638},{"NoteNumber":58,"Velocity":52,"Duration":836787,"SoundDuration":836787,"Delta":54140638},{"NoteNumber":61,"Velocity":71,"Duration":836787,"SoundDuration":836787,"Delta":54140638},{"NoteNumber":49,"Velocity":45,"Duration":414822,"SoundDuration":414822,"Delta":54140638},{"NoteNumber":37,"Velocity":52,"Duration":206043,"SoundDuration":206043,"Delta":54555461},{"NoteNumber":49,"Velocity":46,"Duration":215920,"SoundDuration":215920,"Delta":54761505},{"NoteNumber":60,"Velocity":66,"Duration":215920,"SoundDuration":215920,"Delta":54977426},{"NoteNumber":37,"Velocity":51,"Duration":466869,"SoundDuration":466869,"Delta":54977426},{"NoteNumber":65,"Velocity":53,"Duration":848214,"SoundDuration":848214,"Delta":55409267},{"NoteNumber":56,"Velocity":51,"Duration":848214,"SoundDuration":848214,"Delta":55409267},{"NoteNumber":60,"Velocity":69,"Duration":848214,"SoundDuration":848214,"Delta":55409267},{"NoteNumber":49,"Velocity":40,"Duration":420344,"SoundDuration":420344,"Delta":55409267},{"NoteNumber":37,"Velocity":48,"Duration":207411,"SoundDuration":207411,"Delta":55829611},{"NoteNumber":49,"Velocity":44,"Duration":220458,"SoundDuration":220458,"Delta":56037023},{"NoteNumber":66,"Velocity":50,"Duration":215920,"SoundDuration":215920,"Delta":56257481},{"NoteNumber":70,"Velocity":64,"Duration":215920,"SoundDuration":215920,"Delta":56257481},{"NoteNumber":44,"Velocity":40,"Duration":251907,"SoundDuration":251907,"Delta":56257481},{"NoteNumber":49,"Velocity":50,"Duration":251907,"SoundDuration":251907,"Delta":56257481},{"NoteNumber":54,"Velocity":40,"Duration":250489,"SoundDuration":250489,"Delta":56473402},{"NoteNumber":66,"Velocity":52,"Duration":1254170,"SoundDuration":1254170,"Delta":56689322},{"NoteNumber":70,"Velocity":69,"Duration":1254170,"SoundDuration":1254170,"Delta":56689322},{"NoteNumber":58,"Velocity":39,"Duration":207411,"SoundDuration":207411,"Delta":56689322},{"NoteNumber":54,"Velocity":39,"Duration":207411,"SoundDuration":207411,"Delta":56896734},{"NoteNumber":72,"Velocity":62,"Duration":416216,"SoundDuration":416216,"Delta":57104145},{"NoteNumber":44,"Velocity":38,"Duration":206043,"SoundDuration":206043,"Delta":57104145},{"NoteNumber":49,"Velocity":45,"Duration":206043,"SoundDuration":206043,"Delta":57104145},{"NoteNumber":54,"Velocity":40,"Duration":210172,"SoundDuration":210172,"Delta":57310189},{"NoteNumber":75,"Velocity":66,"Duration":211565,"SoundDuration":211565,"Delta":57520362},{"NoteNumber":44,"Velocity":40,"Duration":246826,"SoundDuration":246826,"Delta":57520362},{"NoteNumber":49,"Velocity":50,"Duration":246826,"SoundDuration":246826,"Delta":57520362},{"NoteNumber":54,"Velocity":40,"Duration":246134,"SoundDuration":246134,"Delta":57731927},{"NoteNumber":70,"Velocity":53,"Duration":834133,"SoundDuration":834133,"Delta":57943493},{"NoteNumber":66,"Velocity":53,"Duration":834133,"SoundDuration":834133,"Delta":57943493},{"NoteNumber":75,"Velocity":72,"Duration":414822,"SoundDuration":414822,"Delta":57943493},{"NoteNumber":60,"Velocity":40,"Duration":207411,"SoundDuration":207411,"Delta":57943493},{"NoteNumber":54,"Velocity":40,"Duration":207411,"SoundDuration":207411,"Delta":58150904},{"NoteNumber":72,"Velocity":62,"Duration":419310,"SoundDuration":419310,"Delta":58358316},{"NoteNumber":44,"Velocity":38,"Duration":203389,"SoundDuration":203389,"Delta":58358316},{"NoteNumber":49,"Velocity":45,"Duration":203389,"SoundDuration":203389,"Delta":58358316},{"NoteNumber":54,"Velocity":39,"Duration":215920,"SoundDuration":215920,"Delta":58561705},{"NoteNumber":65,"Velocity":50,"Duration":215920,"SoundDuration":215920,"Delta":58777626},{"NoteNumber":68,"Velocity":50,"Duration":215920,"SoundDuration":215920,"Delta":58777626},{"NoteNumber":73,"Velocity":60,"Duration":215920,"SoundDuration":215920,"Delta":58777626},{"NoteNumber":44,"Velocity":40,"Duration":251907,"SoundDuration":251907,"Delta":58777626},{"NoteNumber":49,"Velocity":50,"Duration":251907,"SoundDuration":251907,"Delta":58777626},{"NoteNumber":53,"Velocity":39,"Duration":250489,"SoundDuration":250489,"Delta":58993546},{"NoteNumber":68,"Velocity":51,"Duration":836787,"SoundDuration":836787,"Delta":59209467},{"NoteNumber":65,"Velocity":51,"Duration":836787,"SoundDuration":836787,"Delta":59209467},{"NoteNumber":73,"Velocity":62,"Duration":414822,"SoundDuration":414822,"Delta":59209467},{"NoteNumber":61,"Velocity":39,"Duration":207411,"SoundDuration":207411,"Delta":59209467},{"NoteNumber":53,"Velocity":39,"Duration":207411,"SoundDuration":207411,"Delta":59416878},{"NoteNumber":72,"Velocity":56,"Duration":137362,"SoundDuration":137362,"Delta":59624290},{"NoteNumber":44,"Velocity":38,"Duration":206043,"SoundDuration":206043,"Delta":59624290},{"NoteNumber":49,"Velocity":46,"Duration":206043,"SoundDuration":206043,"Delta":59624290},{"NoteNumber":73,"Velocity":52,"Duration":140654,"SoundDuration":140654,"Delta":59761652},{"NoteNumber":53,"Velocity":40,"Duration":215920,"SoundDuration":215920,"Delta":59830334},{"NoteNumber":72,"Velocity":52,"Duration":143947,"SoundDuration":143947,"Delta":59902307},{"NoteNumber":68,"Velocity":58,"Duration":1282841,"SoundDuration":1282841,"Delta":60046254},{"NoteNumber":44,"Velocity":31,"Duration":215920,"SoundDuration":215920,"Delta":60046254},{"NoteNumber":49,"Velocity":39,"Duration":215920,"SoundDuration":215920,"Delta":60046254},{"NoteNumber":53,"Velocity":36,"Duration":215920,"SoundDuration":215920,"Delta":60262175},{"NoteNumber":65,"Velocity":55,"Duration":851000,"SoundDuration":851000,"Delta":60478095},{"NoteNumber":56,"Velocity":31,"Duration":211565,"SoundDuration":211565,"Delta":60478095},{"NoteNumber":53,"Velocity":36,"Duration":211565,"SoundDuration":211565,"Delta":60689661},{"NoteNumber":44,"Velocity":29,"Duration":207411,"SoundDuration":207411,"Delta":60901226},{"NoteNumber":49,"Velocity":36,"Duration":207411,"SoundDuration":207411,"Delta":60901226},{"NoteNumber":53,"Velocity":33,"Duration":220458,"SoundDuration":220458,"Delta":61108638},{"NoteNumber":63,"Velocity":50,"Duration":211565,"SoundDuration":211565,"Delta":61329096},{"NoteNumber":66,"Velocity":64,"Duration":211565,"SoundDuration":211565,"Delta":61329096},{"NoteNumber":44,"Velocity":40,"Duration":246826,"SoundDuration":246826,"Delta":61329096},{"NoteNumber":49,"Velocity":50,"Duration":246826,"SoundDuration":246826,"Delta":61329096},{"NoteNumber":54,"Velocity":40,"Duration":246134,"SoundDuration":246134,"Delta":61540662},{"NoteNumber":63,"Velocity":52,"Duration":1254170,"SoundDuration":1254170,"Delta":61752227},{"NoteNumber":66,"Velocity":69,"Duration":1254170,"SoundDuration":1254170,"Delta":61752227},{"NoteNumber":58,"Velocity":39,"Duration":207411,"SoundDuration":207411,"Delta":61752227},{"NoteNumber":54,"Velocity":40,"Duration":207411,"SoundDuration":207411,"Delta":61959639},{"NoteNumber":70,"Velocity":62,"Duration":416216,"SoundDuration":416216,"Delta":62167050},{"NoteNumber":44,"Velocity":38,"Duration":206043,"SoundDuration":206043,"Delta":62167050},{"NoteNumber":49,"Velocity":45,"Duration":206043,"SoundDuration":206043,"Delta":62167050},{"NoteNumber":54,"Velocity":40,"Duration":210172,"SoundDuration":210172,"Delta":62373094},{"NoteNumber":72,"Velocity":66,"Duration":211565,"SoundDuration":211565,"Delta":62583267},{"NoteNumber":44,"Velocity":40,"Duration":246826,"SoundDuration":246826,"Delta":62583267},{"NoteNumber":49,"Velocity":50,"Duration":246826,"SoundDuration":246826,"Delta":62583267},{"NoteNumber":54,"Velocity":40,"Duration":246134,"SoundDuration":246134,"Delta":62794832},{"NoteNumber":66,"Velocity":53,"Duration":834133,"SoundDuration":834133,"Delta":63006398},{"NoteNumber":63,"Velocity":53,"Duration":834133,"SoundDuration":834133,"Delta":63006398},{"NoteNumber":72,"Velocity":69,"Duration":414822,"SoundDuration":414822,"Delta":63006398},{"NoteNumber":60,"Velocity":40,"Duration":207411,"SoundDuration":207411,"Delta":63006398},{"NoteNumber":54,"Velocity":40,"Duration":207411,"SoundDuration":207411,"Delta":63213809},{"NoteNumber":68,"Velocity":62,"Duration":419310,"SoundDuration":419310,"Delta":63421221},{"NoteNumber":44,"Velocity":38,"Duration":203389,"SoundDuration":203389,"Delta":63421221},{"NoteNumber":49,"Velocity":45,"Duration":203389,"SoundDuration":203389,"Delta":63421221},{"NoteNumber":54,"Velocity":39,"Duration":215920,"SoundDuration":215920,"Delta":63624610},{"NoteNumber":65,"Velocity":50,"Duration":215920,"SoundDuration":215920,"Delta":63840531},{"NoteNumber":73,"Velocity":60,"Duration":215920,"SoundDuration":215920,"Delta":63840531},{"NoteNumber":44,"Velocity":40,"Duration":251907,"SoundDuration":251907,"Delta":63840531},{"NoteNumber":49,"Velocity":50,"Duration":251907,"SoundDuration":251907,"Delta":63840531},{"NoteNumber":53,"Velocity":39,"Duration":250489,"SoundDuration":250489,"Delta":64056451},{"NoteNumber":68,"Velocity":51,"Duration":1268628,"SoundDuration":1268628,"Delta":64272372},{"NoteNumber":65,"Velocity":51,"Duration":1268628,"SoundDuration":1268628,"Delta":64272372},{"NoteNumber":73,"Velocity":62,"Duration":836787,"SoundDuration":836787,"Delta":64272372},{"NoteNumber":61,"Velocity":39,"Duration":207411,"SoundDuration":207411,"Delta":64272372},{"NoteNumber":53,"Velocity":39,"Duration":207411,"SoundDuration":207411,"Delta":64479783},{"NoteNumber":44,"Velocity":38,"Duration":206044,"SoundDuration":206044,"Delta":64687195},{"NoteNumber":49,"Velocity":46,"Duration":206044,"SoundDuration":206044,"Delta":64687195},{"NoteNumber":53,"Velocity":40,"Duration":215920,"SoundDuration":215920,"Delta":64893239},{"NoteNumber":72,"Velocity":58,"Duration":215920,"SoundDuration":215920,"Delta":65109159},{"NoteNumber":44,"Velocity":38,"Duration":251907,"SoundDuration":251907,"Delta":65109159},{"NoteNumber":49,"Velocity":45,"Duration":251907,"SoundDuration":251907,"Delta":65109159},{"NoteNumber":53,"Velocity":40,"Duration":250949,"SoundDuration":250949,"Delta":65325080},{"NoteNumber":68,"Velocity":51,"Duration":848214,"SoundDuration":848214,"Delta":65541000},{"NoteNumber":65,"Velocity":51,"Duration":848214,"SoundDuration":848214,"Delta":65541000},{"NoteNumber":72,"Velocity":61,"Duration":848214,"SoundDuration":848214,"Delta":65541000},{"NoteNumber":56,"Velocity":37,"Duration":210172,"SoundDuration":210172,"Delta":65541000},{"NoteNumber":53,"Velocity":40,"Duration":210172,"SoundDuration":210172,"Delta":65751173},{"NoteNumber":44,"Velocity":36,"Duration":207411,"SoundDuration":207411,"Delta":65961345},{"NoteNumber":49,"Velocity":42,"Duration":207411,"SoundDuration":207411,"Delta":65961345},{"NoteNumber":53,"Velocity":38,"Duration":220458,"SoundDuration":220458,"Delta":66168756},{"NoteNumber":66,"Velocity":50,"Duration":215920,"SoundDuration":215920,"Delta":66389215},{"NoteNumber":70,"Velocity":64,"Duration":215920,"SoundDuration":215920,"Delta":66389215},{"NoteNumber":44,"Velocity":40,"Duration":251907,"SoundDuration":251907,"Delta":66389215},{"NoteNumber":49,"Velocity":50,"Duration":251907,"SoundDuration":251907,"Delta":66389215},{"NoteNumber":54,"Velocity":40,"Duration":250489,"SoundDuration":250489,"Delta":66605135},{"NoteNumber":66,"Velocity":52,"Duration":1255563,"SoundDuration":1255563,"Delta":66821056},{"NoteNumber":70,"Velocity":69,"Duration":1255563,"SoundDuration":1255563,"Delta":66821056},{"NoteNumber":58,"Velocity":39,"Duration":207411,"SoundDuration":207411,"Delta":66821056},{"NoteNumber":54,"Velocity":39,"Duration":207411,"SoundDuration":207411,"Delta":67028467},{"NoteNumber":72,"Velocity":62,"Duration":417609,"SoundDuration":417609,"Delta":67235879},{"NoteNumber":44,"Velocity":38,"Duration":206044,"SoundDuration":206044,"Delta":67235879},{"NoteNumber":49,"Velocity":45,"Duration":206044,"SoundDuration":206044,"Delta":67235879},{"NoteNumber":54,"Velocity":40,"Duration":211565,"SoundDuration":211565,"Delta":67441923},{"NoteNumber":75,"Velocity":66,"Duration":211565,"SoundDuration":211565,"Delta":67653488},{"NoteNumber":44,"Velocity":40,"Duration":246826,"SoundDuration":246826,"Delta":67653488},{"NoteNumber":49,"Velocity":50,"Duration":246826,"SoundDuration":246826,"Delta":67653488},{"NoteNumber":54,"Velocity":40,"Duration":246134,"SoundDuration":246134,"Delta":67865054},{"NoteNumber":70,"Velocity":53,"Duration":834133,"SoundDuration":834133,"Delta":68076619},{"NoteNumber":66,"Velocity":53,"Duration":834133,"SoundDuration":834133,"Delta":68076619},{"NoteNumber":75,"Velocity":71,"Duration":414822,"SoundDuration":414822,"Delta":68076619},{"NoteNumber":60,"Velocity":40,"Duration":207411,"SoundDuration":207411,"Delta":68076619},{"NoteNumber":54,"Velocity":40,"Duration":207411,"SoundDuration":207411,"Delta":68284031},{"NoteNumber":72,"Velocity":62,"Duration":419310,"SoundDuration":419310,"Delta":68491442},{"NoteNumber":44,"Velocity":38,"Duration":203389,"SoundDuration":203389,"Delta":68491442},{"NoteNumber":49,"Velocity":45,"Duration":203389,"SoundDuration":203389,"Delta":68491442},{"NoteNumber":54,"Velocity":39,"Duration":215920,"SoundDuration":215920,"Delta":68694832},{"NoteNumber":65,"Velocity":50,"Duration":215920,"SoundDuration":215920,"Delta":68910753},{"NoteNumber":68,"Velocity":50,"Duration":215920,"SoundDuration":215920,"Delta":68910753},{"NoteNumber":73,"Velocity":60,"Duration":215920,"SoundDuration":215920,"Delta":68910753},{"NoteNumber":44,"Velocity":40,"Duration":251907,"SoundDuration":251907,"Delta":68910753},{"NoteNumber":49,"Velocity":50,"Duration":251907,"SoundDuration":251907,"Delta":68910753},{"NoteNumber":53,"Velocity":39,"Duration":250489,"SoundDuration":250489,"Delta":69126673},{"NoteNumber":68,"Velocity":51,"Duration":836787,"SoundDuration":836787,"Delta":69342594},{"NoteNumber":65,"Velocity":51,"Duration":836787,"SoundDuration":836787,"Delta":69342594},{"NoteNumber":73,"Velocity":62,"Duration":414822,"SoundDuration":414822,"Delta":69342594},{"NoteNumber":61,"Velocity":39,"Duration":207411,"SoundDuration":207411,"Delta":69342594},{"NoteNumber":53,"Velocity":39,"Duration":207411,"SoundDuration":207411,"Delta":69550005},{"NoteNumber":72,"Velocity":56,"Duration":137362,"SoundDuration":137362,"Delta":69757417},{"NoteNumber":44,"Velocity":38,"Duration":206044,"SoundDuration":206044,"Delta":69757417},{"NoteNumber":49,"Velocity":46,"Duration":206044,"SoundDuration":206044,"Delta":69757417},{"NoteNumber":73,"Velocity":52,"Duration":140654,"SoundDuration":140654,"Delta":69894779},{"NoteNumber":53,"Velocity":40,"Duration":215920,"SoundDuration":215920,"Delta":69963461},{"NoteNumber":72,"Velocity":52,"Duration":143946,"SoundDuration":143946,"Delta":70035434},{"NoteNumber":68,"Velocity":58,"Duration":1282842,"SoundDuration":1282842,"Delta":70179381},{"NoteNumber":44,"Velocity":31,"Duration":215920,"SoundDuration":215920,"Delta":70179381},{"NoteNumber":49,"Velocity":39,"Duration":215920,"SoundDuration":215920,"Delta":70179381},{"NoteNumber":53,"Velocity":36,"Duration":215920,"SoundDuration":215920,"Delta":70395302},{"NoteNumber":65,"Velocity":55,"Duration":851001,"SoundDuration":851001,"Delta":70611222},{"NoteNumber":56,"Velocity":31,"Duration":211565,"SoundDuration":211565,"Delta":70611222},{"NoteNumber":53,"Velocity":36,"Duration":211565,"SoundDuration":211565,"Delta":70822788},{"NoteNumber":44,"Velocity":29,"Duration":207411,"SoundDuration":207411,"Delta":71034353},{"NoteNumber":49,"Velocity":36,"Duration":207411,"SoundDuration":207411,"Delta":71034353},{"NoteNumber":53,"Velocity":33,"Duration":220458,"SoundDuration":220458,"Delta":71241765},{"NoteNumber":70,"Velocity":50,"Duration":215920,"SoundDuration":215920,"Delta":71462223},{"NoteNumber":66,"Velocity":50,"Duration":215920,"SoundDuration":215920,"Delta":71462223},{"NoteNumber":75,"Velocity":64,"Duration":215920,"SoundDuration":215920,"Delta":71462223},{"NoteNumber":44,"Velocity":40,"Duration":251907,"SoundDuration":251907,"Delta":71462223},{"NoteNumber":49,"Velocity":50,"Duration":251907,"SoundDuration":251907,"Delta":71462223},{"NoteNumber":54,"Velocity":40,"Duration":250489,"SoundDuration":250489,"Delta":71678144},{"NoteNumber":70,"Velocity":52,"Duration":1259918,"SoundDuration":1259918,"Delta":71894064},{"NoteNumber":66,"Velocity":52,"Duration":1259918,"SoundDuration":1259918,"Delta":71894064},{"NoteNumber":75,"Velocity":70,"Duration":414822,"SoundDuration":414822,"Delta":71894064},{"NoteNumber":58,"Velocity":39,"Duration":207411,"SoundDuration":207411,"Delta":71894064},{"NoteNumber":54,"Velocity":40,"Duration":207411,"SoundDuration":207411,"Delta":72101476},{"NoteNumber":77,"Velocity":70,"Duration":421964,"SoundDuration":421964,"Delta":72308887},{"NoteNumber":44,"Velocity":38,"Duration":206044,"SoundDuration":206044,"Delta":72308887},{"NoteNumber":49,"Velocity":45,"Duration":206044,"SoundDuration":206044,"Delta":72308887},{"NoteNumber":54,"Velocity":40,"Duration":215920,"SoundDuration":215920,"Delta":72514931},{"NoteNumber":78,"Velocity":72,"Duration":211565,"SoundDuration":211565,"Delta":72730852},{"NoteNumber":44,"Velocity":40,"Duration":246826,"SoundDuration":246826,"Delta":72730852},{"NoteNumber":49,"Velocity":50,"Duration":246826,"SoundDuration":246826,"Delta":72730852},{"NoteNumber":54,"Velocity":40,"Duration":246134,"SoundDuration":246134,"Delta":72942417},{"NoteNumber":70,"Velocity":53,"Duration":414822,"SoundDuration":414822,"Delta":73153983},{"NoteNumber":78,"Velocity":72,"Duration":414822,"SoundDuration":414822,"Delta":73153983},{"NoteNumber":60,"Velocity":40,"Duration":207411,"SoundDuration":207411,"Delta":73153983},{"NoteNumber":54,"Velocity":40,"Duration":207411,"SoundDuration":207411,"Delta":73361394},{"NoteNumber":68,"Velocity":51,"Duration":419310,"SoundDuration":419310,"Delta":73568806},{"NoteNumber":77,"Velocity":66,"Duration":419310,"SoundDuration":419310,"Delta":73568806},{"NoteNumber":44,"Velocity":38,"Duration":203389,"SoundDuration":203389,"Delta":73568806},{"NoteNumber":49,"Velocity":45,"Duration":203389,"SoundDuration":203389,"Delta":73568806},{"NoteNumber":54,"Velocity":39,"Duration":215920,"SoundDuration":215920,"Delta":73772195},{"NoteNumber":65,"Velocity":50,"Duration":1160668,"SoundDuration":1160668,"Delta":73988116},{"NoteNumber":73,"Velocity":60,"Duration":1268628,"SoundDuration":1268628,"Delta":73988116},{"NoteNumber":37,"Velocity":40,"Duration":215920,"SoundDuration":215920,"Delta":73988116},{"NoteNumber":44,"Velocity":50,"Duration":215920,"SoundDuration":215920,"Delta":73988116},{"NoteNumber":49,"Velocity":39,"Duration":215920,"SoundDuration":215920,"Delta":74204036},{"NoteNumber":53,"Velocity":45,"Duration":207411,"SoundDuration":207411,"Delta":74419957},{"NoteNumber":56,"Velocity":39,"Duration":207411,"SoundDuration":207411,"Delta":74627368},{"NoteNumber":61,"Velocity":46,"Duration":206044,"SoundDuration":206044,"Delta":74834780},{"NoteNumber":65,"Velocity":37,"Duration":215920,"SoundDuration":215920,"Delta":75040824},{"NoteNumber":73,"Velocity":51,"Duration":1280055,"SoundDuration":1280055,"Delta":75256744},{"NoteNumber":65,"Velocity":40,"Duration":420344,"SoundDuration":420344,"Delta":75688585},{"NoteNumber":56,"Velocity":36,"Duration":427870,"SoundDuration":427870,"Delta":76108930},{"NoteNumber":73,"Velocity":46,"Duration":210172,"SoundDuration":210172,"Delta":76536800},{"NoteNumber":78,"Velocity":46,"Duration":210172,"SoundDuration":210172,"Delta":76536800},{"NoteNumber":82,"Velocity":55,"Duration":210172,"SoundDuration":210172,"Delta":76536800},{"NoteNumber":49,"Velocity":35,"Duration":420344,"SoundDuration":420344,"Delta":76536800},{"NoteNumber":73,"Velocity":47,"Duration":836787,"SoundDuration":836787,"Delta":76957144},{"NoteNumber":78,"Velocity":47,"Duration":836787,"SoundDuration":836787,"Delta":76957144},{"NoteNumber":82,"Velocity":57,"Duration":836787,"SoundDuration":836787,"Delta":76957144},{"NoteNumber":58,"Velocity":40,"Duration":836787,"SoundDuration":836787,"Delta":76957144},{"NoteNumber":49,"Velocity":34,"Duration":421964,"SoundDuration":421964,"Delta":77371967},{"NoteNumber":72,"Velocity":47,"Duration":213007,"SoundDuration":213007,"Delta":77793932},{"NoteNumber":75,"Velocity":47,"Duration":213007,"SoundDuration":213007,"Delta":77793932},{"NoteNumber":80,"Velocity":53,"Duration":213007,"SoundDuration":213007,"Delta":77793932},{"NoteNumber":49,"Velocity":37,"Duration":426015,"SoundDuration":426015,"Delta":77793932},{"NoteNumber":72,"Velocity":47,"Duration":846360,"SoundDuration":846360,"Delta":78219947},{"NoteNumber":75,"Velocity":47,"Duration":846360,"SoundDuration":846360,"Delta":78219947},{"NoteNumber":80,"Velocity":56,"Duration":846360,"SoundDuration":846360,"Delta":78219947},{"NoteNumber":60,"Velocity":41,"Duration":846360,"SoundDuration":846360,"Delta":78219947},{"NoteNumber":49,"Velocity":36,"Duration":426015,"SoundDuration":426015,"Delta":78640292},{"NoteNumber":77,"Velocity":55,"Duration":208768,"SoundDuration":208768,"Delta":79066307},{"NoteNumber":70,"Velocity":46,"Duration":208768,"SoundDuration":208768,"Delta":79066307},{"NoteNumber":73,"Velocity":46,"Duration":208768,"SoundDuration":208768,"Delta":79066307},{"NoteNumber":49,"Velocity":37,"Duration":417536,"SoundDuration":417536,"Delta":79066307},{"NoteNumber":70,"Velocity":47,"Duration":836787,"SoundDuration":836787,"Delta":79483844},{"NoteNumber":73,"Velocity":47,"Duration":836787,"SoundDuration":836787,"Delta":79483844},{"NoteNumber":77,"Velocity":57,"Duration":836787,"SoundDuration":836787,"Delta":79483844},{"NoteNumber":61,"Velocity":44,"Duration":836787,"SoundDuration":836787,"Delta":79483844},{"NoteNumber":49,"Velocity":37,"Duration":421964,"SoundDuration":421964,"Delta":79898667},{"NoteNumber":71,"Velocity":47,"Duration":404149,"SoundDuration":404149,"Delta":80320631},{"NoteNumber":77,"Velocity":47,"Duration":404149,"SoundDuration":404149,"Delta":80320631},{"NoteNumber":80,"Velocity":53,"Duration":202074,"SoundDuration":202074,"Delta":80320631},{"NoteNumber":49,"Velocity":39,"Duration":404149,"SoundDuration":404149,"Delta":80320631},{"NoteNumber":82,"Velocity":51,"Duration":202074,"SoundDuration":202074,"Delta":80522706},{"NoteNumber":80,"Velocity":53,"Duration":206044,"SoundDuration":206044,"Delta":80724781},{"NoteNumber":71,"Velocity":47,"Duration":824175,"SoundDuration":824175,"Delta":80724781},{"NoteNumber":62,"Velocity":45,"Duration":824175,"SoundDuration":824175,"Delta":80724781},{"NoteNumber":77,"Velocity":47,"Duration":813873,"SoundDuration":813873,"Delta":80735083},{"NoteNumber":78,"Velocity":50,"Duration":103021,"SoundDuration":103021,"Delta":80930825},{"NoteNumber":80,"Velocity":50,"Duration":103021,"SoundDuration":103021,"Delta":81033847},{"NoteNumber":78,"Velocity":53,"Duration":206044,"SoundDuration":206044,"Delta":81136869},{"NoteNumber":49,"Velocity":39,"Duration":412087,"SoundDuration":412087,"Delta":81136869},{"NoteNumber":77,"Velocity":51,"Duration":216552,"SoundDuration":216552,"Delta":81342913},{"NoteNumber":70,"Velocity":46,"Duration":210172,"SoundDuration":210172,"Delta":81548957},{"NoteNumber":75,"Velocity":46,"Duration":210172,"SoundDuration":210172,"Delta":81548957},{"NoteNumber":78,"Velocity":55,"Duration":210172,"SoundDuration":210172,"Delta":81548957},{"NoteNumber":49,"Velocity":39,"Duration":420344,"SoundDuration":420344,"Delta":81548957},{"NoteNumber":70,"Velocity":47,"Duration":836787,"SoundDuration":836787,"Delta":81969301},{"NoteNumber":75,"Velocity":47,"Duration":836787,"SoundDuration":836787,"Delta":81969301},{"NoteNumber":78,"Velocity":57,"Duration":836787,"SoundDuration":836787,"Delta":81969301},{"NoteNumber":63,"Velocity":46,"Duration":836787,"SoundDuration":836787,"Delta":81969301},{"NoteNumber":49,"Velocity":38,"Duration":421964,"SoundDuration":421964,"Delta":82384124},{"NoteNumber":68,"Velocity":47,"Duration":213007,"SoundDuration":213007,"Delta":82806089},{"NoteNumber":72,"Velocity":47,"Duration":213007,"SoundDuration":213007,"Delta":82806089},{"NoteNumber":77,"Velocity":53,"Duration":213007,"SoundDuration":213007,"Delta":82806089},{"NoteNumber":49,"Velocity":39,"Duration":426015,"SoundDuration":426015,"Delta":82806089},{"NoteNumber":68,"Velocity":47,"Duration":846360,"SoundDuration":846360,"Delta":83232104},{"NoteNumber":72,"Velocity":47,"Duration":846360,"SoundDuration":846360,"Delta":83232104},{"NoteNumber":77,"Velocity":56,"Duration":846360,"SoundDuration":846360,"Delta":83232104},{"NoteNumber":56,"Velocity":44,"Duration":846360,"SoundDuration":846360,"Delta":83232104},{"NoteNumber":49,"Velocity":37,"Duration":426015,"SoundDuration":426015,"Delta":83652449},{"NoteNumber":73,"Velocity":55,"Duration":208768,"SoundDuration":208768,"Delta":84078464},{"NoteNumber":65,"Velocity":46,"Duration":208768,"SoundDuration":208768,"Delta":84078464},{"NoteNumber":68,"Velocity":46,"Duration":208768,"SoundDuration":208768,"Delta":84078464},{"NoteNumber":49,"Velocity":37,"Duration":417536,"SoundDuration":417536,"Delta":84078464},{"NoteNumber":65,"Velocity":47,"Duration":836787,"SoundDuration":836787,"Delta":84496001},{"NoteNumber":68,"Velocity":47,"Duration":836787,"SoundDuration":836787,"Delta":84496001},{"NoteNumber":73,"Velocity":57,"Duration":836787,"SoundDuration":836787,"Delta":84496001},{"NoteNumber":61,"Velocity":42,"Duration":836787,"SoundDuration":836787,"Delta":84496001},{"NoteNumber":49,"Velocity":35,"Duration":421964,"SoundDuration":421964,"Delta":84910824},{"NoteNumber":49,"Velocity":36,"Duration":420344,"SoundDuration":420344,"Delta":85332788},{"NoteNumber":61,"Velocity":56,"Duration":206044,"SoundDuration":206044,"Delta":85753133},{"NoteNumber":65,"Velocity":62,"Duration":206044,"SoundDuration":206044,"Delta":85753133},{"NoteNumber":56,"Velocity":46,"Duration":824175,"SoundDuration":824175,"Delta":85753133},{"NoteNumber":61,"Velocity":52,"Duration":206044,"SoundDuration":206044,"Delta":86165221},{"NoteNumber":65,"Velocity":52,"Duration":206044,"SoundDuration":206044,"Delta":86165221},{"NoteNumber":68,"Velocity":59,"Duration":206044,"SoundDuration":206044,"Delta":86165221},{"NoteNumber":49,"Velocity":39,"Duration":412087,"SoundDuration":412087,"Delta":86165221},{"NoteNumber":61,"Velocity":55,"Duration":210172,"SoundDuration":210172,"Delta":86577309},{"NoteNumber":66,"Velocity":55,"Duration":210172,"SoundDuration":210172,"Delta":86577309},{"NoteNumber":70,"Velocity":66,"Duration":210172,"SoundDuration":210172,"Delta":86577309},{"NoteNumber":54,"Velocity":48,"Duration":1257131,"SoundDuration":1257131,"Delta":86577309},{"NoteNumber":61,"Velocity":56,"Duration":836787,"SoundDuration":836787,"Delta":86997653},{"NoteNumber":66,"Velocity":56,"Duration":836787,"SoundDuration":836787,"Delta":86997653},{"NoteNumber":70,"Velocity":68,"Duration":836787,"SoundDuration":836787,"Delta":86997653},{"NoteNumber":44,"Velocity":41,"Duration":414822,"SoundDuration":414822,"Delta":86997653},{"NoteNumber":44,"Velocity":40,"Duration":421964,"SoundDuration":421964,"Delta":87412476},{"NoteNumber":60,"Velocity":57,"Duration":213007,"SoundDuration":213007,"Delta":87834441},{"NoteNumber":63,"Velocity":57,"Duration":213007,"SoundDuration":213007,"Delta":87834441},{"NoteNumber":68,"Velocity":64,"Duration":213007,"SoundDuration":213007,"Delta":87834441},{"NoteNumber":56,"Velocity":51,"Duration":1272375,"SoundDuration":1272375,"Delta":87834441},{"NoteNumber":60,"Velocity":58,"Duration":846360,"SoundDuration":846360,"Delta":88260456},{"NoteNumber":63,"Velocity":58,"Duration":846360,"SoundDuration":846360,"Delta":88260456},{"NoteNumber":68,"Velocity":70,"Duration":846360,"SoundDuration":846360,"Delta":88260456},{"NoteNumber":44,"Velocity":44,"Duration":420344,"SoundDuration":420344,"Delta":88260456},{"NoteNumber":44,"Velocity":42,"Duration":426015,"SoundDuration":426015,"Delta":88680801},{"NoteNumber":65,"Velocity":70,"Duration":208768,"SoundDuration":208768,"Delta":89106816},{"NoteNumber":61,"Velocity":58,"Duration":208768,"SoundDuration":208768,"Delta":89106816},{"NoteNumber":58,"Velocity":56,"Duration":1254323,"SoundDuration":1254323,"Delta":89106816},{"NoteNumber":61,"Velocity":58,"Duration":836787,"SoundDuration":836787,"Delta":89524353},{"NoteNumber":65,"Velocity":71,"Duration":836787,"SoundDuration":836787,"Delta":89524353},{"NoteNumber":44,"Velocity":44,"Duration":414822,"SoundDuration":414822,"Delta":89524353},{"NoteNumber":44,"Velocity":44,"Duration":421964,"SoundDuration":421964,"Delta":89939176},{"NoteNumber":62,"Velocity":63,"Duration":409388,"SoundDuration":409388,"Delta":90361140},{"NoteNumber":68,"Velocity":72,"Duration":204694,"SoundDuration":204694,"Delta":90361140},{"NoteNumber":59,"Velocity":59,"Duration":1233564,"SoundDuration":1233564,"Delta":90361140},{"NoteNumber":70,"Velocity":70,"Duration":204694,"SoundDuration":204694,"Delta":90565835},{"NoteNumber":68,"Velocity":72,"Duration":206044,"SoundDuration":206044,"Delta":90770529},{"NoteNumber":44,"Velocity":47,"Duration":412087,"SoundDuration":412087,"Delta":90770529},{"NoteNumber":62,"Velocity":63,"Duration":824382,"SoundDuration":824382,"Delta":90780831},{"NoteNumber":66,"Velocity":69,"Duration":103021,"SoundDuration":103021,"Delta":90976573},{"NoteNumber":68,"Velocity":64,"Duration":103021,"SoundDuration":103021,"Delta":91079595},{"NoteNumber":66,"Velocity":69,"Duration":206044,"SoundDuration":206044,"Delta":91182617},{"NoteNumber":44,"Velocity":47,"Duration":412087,"SoundDuration":412087,"Delta":91182617},{"NoteNumber":65,"Velocity":66,"Duration":206043,"SoundDuration":206043,"Delta":91388661},{"NoteNumber":61,"Velocity":57,"Duration":210172,"SoundDuration":210172,"Delta":91594705},{"NoteNumber":66,"Velocity":64,"Duration":210172,"SoundDuration":210172,"Delta":91594705},{"NoteNumber":58,"Velocity":49,"Duration":1257131,"SoundDuration":1257131,"Delta":91594705},{"NoteNumber":61,"Velocity":58,"Duration":836787,"SoundDuration":836787,"Delta":92015049},{"NoteNumber":66,"Velocity":64,"Duration":836787,"SoundDuration":836787,"Delta":92015049},{"NoteNumber":44,"Velocity":44,"Duration":414822,"SoundDuration":414822,"Delta":92015049},{"NoteNumber":44,"Velocity":40,"Duration":421964,"SoundDuration":421964,"Delta":92429872},{"NoteNumber":60,"Velocity":46,"Duration":213007,"SoundDuration":213007,"Delta":92851837},{"NoteNumber":65,"Velocity":53,"Duration":213007,"SoundDuration":213007,"Delta":92851837},{"NoteNumber":56,"Velocity":44,"Duration":846360,"SoundDuration":846360,"Delta":92851837},{"NoteNumber":60,"Velocity":44,"Duration":846360,"SoundDuration":846360,"Delta":93277852},{"NoteNumber":65,"Velocity":52,"Duration":846360,"SoundDuration":846360,"Delta":93277852},{"NoteNumber":44,"Velocity":37,"Duration":846360,"SoundDuration":846360,"Delta":93277852},{"NoteNumber":54,"Velocity":33,"Duration":426015,"SoundDuration":426015,"Delta":93698197},{"NoteNumber":61,"Velocity":46,"Duration":442017,"SoundDuration":442017,"Delta":94124212},{"NoteNumber":53,"Velocity":38,"Duration":442017,"SoundDuration":442017,"Delta":94124212},{"NoteNumber":37,"Velocity":30,"Duration":219514,"SoundDuration":219514,"Delta":94124212},{"NoteNumber":44,"Velocity":38,"Duration":219514,"SoundDuration":219514,"Delta":94124212},{"NoteNumber":49,"Velocity":30,"Duration":222502,"SoundDuration":222502,"Delta":94343727},{"NoteNumber":53,"Velocity":35,"Duration":225287,"SoundDuration":225287,"Delta":94566230},{"NoteNumber":56,"Velocity":30,"Duration":228723,"SoundDuration":228723,"Delta":94791517},{"NoteNumber":61,"Velocity":36,"Duration":239999,"SoundDuration":239999,"Delta":95020240},{"NoteNumber":65,"Velocity":30,"Duration":1958981,"SoundDuration":1958981,"Delta":95260240},{"NoteNumber":73,"Velocity":41,"Duration":1698112,"SoundDuration":1698112,"Delta":95521110},{"NoteNumber":44,"Velocity":29,"Duration":428938,"SoundDuration":428938,"Delta":97219222},{"NoteNumber":49,"Velocity":35,"Duration":428938,"SoundDuration":428938,"Delta":97219222},{"NoteNumber":58,"Velocity":36,"Duration":415999,"SoundDuration":415999,"Delta":97648161},{"NoteNumber":54,"Velocity":29,"Duration":415999,"SoundDuration":415999,"Delta":97648161},{"NoteNumber":49,"Velocity":29,"Duration":415999,"SoundDuration":415999,"Delta":97648161},{"NoteNumber":44,"Velocity":26,"Duration":204694,"SoundDuration":204694,"Delta":98064161},{"NoteNumber":49,"Velocity":31,"Duration":204694,"SoundDuration":204694,"Delta":98064161},{"NoteNumber":49,"Velocity":24,"Duration":215920,"SoundDuration":215920,"Delta":98268855},{"NoteNumber":54,"Velocity":24,"Duration":215920,"SoundDuration":215920,"Delta":98268855},{"NoteNumber":58,"Velocity":29,"Duration":215920,"SoundDuration":215920,"Delta":98268855},{"NoteNumber":44,"Velocity":29,"Duration":420344,"SoundDuration":420344,"Delta":98484775},{"NoteNumber":49,"Velocity":35,"Duration":420344,"SoundDuration":420344,"Delta":98484775},{"NoteNumber":61,"Velocity":36,"Duration":412087,"SoundDuration":412087,"Delta":98905120},{"NoteNumber":58,"Velocity":29,"Duration":412087,"SoundDuration":412087,"Delta":98905120},{"NoteNumber":54,"Velocity":29,"Duration":412087,"SoundDuration":412087,"Delta":98905120},{"NoteNumber":49,"Velocity":29,"Duration":412087,"SoundDuration":412087,"Delta":98905120},{"NoteNumber":44,"Velocity":27,"Duration":204694,"SoundDuration":204694,"Delta":99317208},{"NoteNumber":49,"Velocity":33,"Duration":204694,"SoundDuration":204694,"Delta":99317208},{"NoteNumber":61,"Velocity":29,"Duration":215920,"SoundDuration":215920,"Delta":99521902},{"NoteNumber":58,"Velocity":25,"Duration":215920,"SoundDuration":215920,"Delta":99521902},{"NoteNumber":54,"Velocity":25,"Duration":215920,"SoundDuration":215920,"Delta":99521902},{"NoteNumber":49,"Velocity":25,"Duration":215920,"SoundDuration":215920,"Delta":99521902},{"NoteNumber":44,"Velocity":29,"Duration":431841,"SoundDuration":431841,"Delta":99737823},{"NoteNumber":49,"Velocity":35,"Duration":431841,"SoundDuration":431841,"Delta":99737823},{"NoteNumber":56,"Velocity":37,"Duration":414822,"SoundDuration":414822,"Delta":100169664},{"NoteNumber":53,"Velocity":30,"Duration":414822,"SoundDuration":414822,"Delta":100169664},{"NoteNumber":49,"Velocity":30,"Duration":414822,"SoundDuration":414822,"Delta":100169664},{"NoteNumber":44,"Velocity":26,"Duration":206044,"SoundDuration":206044,"Delta":100584487},{"NoteNumber":49,"Velocity":31,"Duration":206044,"SoundDuration":206044,"Delta":100584487},{"NoteNumber":49,"Velocity":25,"Duration":217422,"SoundDuration":217422,"Delta":100790531},{"NoteNumber":53,"Velocity":25,"Duration":217422,"SoundDuration":217422,"Delta":100790531},{"NoteNumber":56,"Velocity":29,"Duration":217422,"SoundDuration":217422,"Delta":100790531},{"NoteNumber":44,"Velocity":29,"Duration":420344,"SoundDuration":420344,"Delta":101007953},{"NoteNumber":49,"Velocity":35,"Duration":420344,"SoundDuration":420344,"Delta":101007953},{"NoteNumber":61,"Velocity":36,"Duration":412087,"SoundDuration":412087,"Delta":101428298},{"NoteNumber":53,"Velocity":29,"Duration":412087,"SoundDuration":412087,"Delta":101428298},{"NoteNumber":49,"Velocity":29,"Duration":412087,"SoundDuration":412087,"Delta":101428298},{"NoteNumber":44,"Velocity":26,"Duration":203389,"SoundDuration":203389,"Delta":101840386},{"NoteNumber":49,"Velocity":31,"Duration":203389,"SoundDuration":203389,"Delta":101840386},{"NoteNumber":61,"Velocity":29,"Duration":217422,"SoundDuration":217422,"Delta":102043776},{"NoteNumber":53,"Velocity":24,"Duration":217422,"SoundDuration":217422,"Delta":102043776},{"NoteNumber":49,"Velocity":24,"Duration":217422,"SoundDuration":217422,"Delta":102043776},{"NoteNumber":44,"Velocity":29,"Duration":431841,"SoundDuration":431841,"Delta":102261198},{"NoteNumber":49,"Velocity":35,"Duration":431841,"SoundDuration":431841,"Delta":102261198},{"NoteNumber":54,"Velocity":37,"Duration":414822,"SoundDuration":414822,"Delta":102693039},{"NoteNumber":51,"Velocity":30,"Duration":414822,"SoundDuration":414822,"Delta":102693039},{"NoteNumber":49,"Velocity":30,"Duration":414822,"SoundDuration":414822,"Delta":102693039},{"NoteNumber":44,"Velocity":27,"Duration":204694,"SoundDuration":204694,"Delta":103107862},{"NoteNumber":49,"Velocity":33,"Duration":204694,"SoundDuration":204694,"Delta":103107862},{"NoteNumber":49,"Velocity":25,"Duration":214049,"SoundDuration":214049,"Delta":103312557},{"NoteNumber":51,"Velocity":25,"Duration":214049,"SoundDuration":214049,"Delta":103312557},{"NoteNumber":54,"Velocity":29,"Duration":214049,"SoundDuration":214049,"Delta":103312557},{"NoteNumber":44,"Velocity":29,"Duration":420344,"SoundDuration":420344,"Delta":103526606},{"NoteNumber":49,"Velocity":35,"Duration":420344,"SoundDuration":420344,"Delta":103526606},{"NoteNumber":61,"Velocity":37,"Duration":412087,"SoundDuration":412087,"Delta":103946951},{"NoteNumber":54,"Velocity":30,"Duration":412087,"SoundDuration":412087,"Delta":103946951},{"NoteNumber":51,"Velocity":30,"Duration":412087,"SoundDuration":412087,"Delta":103946951},{"NoteNumber":49,"Velocity":30,"Duration":412087,"SoundDuration":412087,"Delta":103946951},{"NoteNumber":44,"Velocity":27,"Duration":203389,"SoundDuration":203389,"Delta":104359039},{"NoteNumber":49,"Velocity":33,"Duration":203389,"SoundDuration":203389,"Delta":104359039},{"NoteNumber":61,"Velocity":29,"Duration":215920,"SoundDuration":215920,"Delta":104562428},{"NoteNumber":54,"Velocity":25,"Duration":215920,"SoundDuration":215920,"Delta":104562428},{"NoteNumber":51,"Velocity":25,"Duration":215920,"SoundDuration":215920,"Delta":104562428},{"NoteNumber":49,"Velocity":25,"Duration":215920,"SoundDuration":215920,"Delta":104562428},{"NoteNumber":44,"Velocity":29,"Duration":447160,"SoundDuration":447160,"Delta":104778349},{"NoteNumber":49,"Velocity":35,"Duration":447160,"SoundDuration":447160,"Delta":104778349},{"NoteNumber":61,"Velocity":34,"Duration":447429,"SoundDuration":447429,"Delta":105225509},{"NoteNumber":53,"Velocity":28,"Duration":447429,"SoundDuration":447429,"Delta":105225509},{"NoteNumber":49,"Velocity":28,"Duration":447429,"SoundDuration":447429,"Delta":105225509},{"NoteNumber":44,"Velocity":26,"Duration":451183,"SoundDuration":451183,"Delta":105672938},{"NoteNumber":49,"Velocity":30,"Duration":451183,"SoundDuration":451183,"Delta":105672938},{"NoteNumber":61,"Velocity":30,"Duration":455241,"SoundDuration":455241,"Delta":106124122},{"NoteNumber":53,"Velocity":25,"Duration":455241,"SoundDuration":455241,"Delta":106124122},{"NoteNumber":49,"Velocity":25,"Duration":455241,"SoundDuration":455241,"Delta":106124122},{"NoteNumber":44,"Velocity":23,"Duration":459095,"SoundDuration":459095,"Delta":106579363},{"NoteNumber":49,"Velocity":28,"Duration":459095,"SoundDuration":459095,"Delta":106579363},{"NoteNumber":61,"Velocity":28,"Duration":463611,"SoundDuration":463611,"Delta":107038458},{"NoteNumber":53,"Velocity":23,"Duration":463611,"SoundDuration":463611,"Delta":107038458},{"NoteNumber":49,"Velocity":23,"Duration":463611,"SoundDuration":463611,"Delta":107038458},{"NoteNumber":44,"Velocity":20,"Duration":463355,"SoundDuration":463355,"Delta":107502069},{"NoteNumber":49,"Velocity":26,"Duration":463355,"SoundDuration":463355,"Delta":107502069},{"NoteNumber":61,"Velocity":24,"Duration":478125,"SoundDuration":478125,"Delta":107965425},{"NoteNumber":53,"Velocity":19,"Duration":478125,"SoundDuration":478125,"Delta":107965425},{"NoteNumber":49,"Velocity":19,"Duration":478125,"SoundDuration":478125,"Delta":107965425},{"NoteNumber":44,"Velocity":19,"Duration":517241,"SoundDuration":517241,"Delta":108443550},{"NoteNumber":49,"Velocity":23,"Duration":517241,"SoundDuration":517241,"Delta":108443550},{"NoteNumber":61,"Velocity":22,"Duration":545454,"SoundDuration":545454,"Delta":108960792},{"NoteNumber":53,"Velocity":18,"Duration":545454,"SoundDuration":545454,"Delta":108960792},{"NoteNumber":49,"Velocity":18,"Duration":545454,"SoundDuration":545454,"Delta":108960792},{"NoteNumber":44,"Velocity":17,"Duration":423130,"SoundDuration":423130,"Delta":109506246},{"NoteNumber":49,"Velocity":19,"Duration":423130,"SoundDuration":423130,"Delta":109506246}],"license":{"name":"Creative Commons Attribution-ShareAlike 3.0 Germany","url":"http://creativecommons.org/licenses/by-sa/3.0/de/deed.en","text":"The MIDI, audio (MP3, OGG) and video files of Bernd Krueger are licensed under the cc-by-sa Germany License. This means that you can use and adapt the files, as long as you attribute the copyright holder.\n\nName: Bernd Krueger\nSource: http://www.piano-midi.de\n\nThe distribution or public playback of the files is only allowed under identical license conditions.\n\nThe scores are open source.","attribution":"MIDI files by Bernd Krueger (piano-midi.de)","attributionUrl":"http://www.piano-midi.de"}}