{"title":"Chopin Prelude No. 6, Opus 28","artist":"Chopin","durationMs":91539,"midiSha256":"4c5f66982a31237043e8bb7976492be7098a6f5df7a7210edf44bfce0f1b0ad1","midiObject":[{"NoteNumber":66,"Velocity":28,"Duration":1165761,"SoundDuration":1165761,"Delta":0},{"NoteNumber":62,"Velocity":28,"Duration":1165761,"SoundDuration":1165761,"Delta":0},{"NoteNumber":71,"Velocity":35,"Duration":601836,"SoundDuration":601836,"Delta":0},{"NoteNumber":47,"Velocity":38,"Duration":310089,"SoundDuration":310089,"Delta":0},{"NoteNumber":50,"Velocity":32,"Duration":291747,"SoundDuration":291747,"Delta":310090},{"NoteNumber":71,"Velocity":32,"Duration":563924,"SoundDuration":563924,"Delta":601837},{"NoteNumber":54,"Velocity":36,"Duration":285273,"SoundDuration":285273,"Delta":601837},{"NoteNumber":59,"Velocity":41,"Duration":278651,"SoundDuration":278651,"Delta":887111},{"NoteNumber":66,"Velocity":28,"Duration":1166944,"SoundDuration":1166944,"Delta":1165762},{"NoteNumber":71,"Velocity":35,"Duration":566944,"SoundDuration":566944,"Delta":1165762},{"NoteNumber":62,"Velocity":46,"Duration":1166944,"SoundDuration":1166944,"Delta":1165762},{"NoteNumber":71,"Velocity":33,"Duration":600000,"SoundDuration":600000,"Delta":1732706},{"NoteNumber":71,"Velocity":35,"Duration":560747,"SoundDuration":560747,"Delta":2332706},{"NoteNumber":66,"Velocity":28,"Duration":1165465,"SoundDuration":1165465,"Delta":2332706},{"NoteNumber":61,"Velocity":45,"Duration":849675,"SoundDuration":849675,"Delta":2332706},{"NoteNumber":71,"Velocity":32,"Duration":604717,"SoundDuration":604717,"Delta":2893454},{"NoteNumber":62,"Velocity":35,"Duration":310526,"SoundDuration":310526,"Delta":3182382},{"NoteNumber":62,"Velocity":28,"Duration":1159447,"SoundDuration":1159447,"Delta":3498171},{"NoteNumber":71,"Velocity":35,"Duration":582524,"SoundDuration":582524,"Delta":3498171},{"NoteNumber":66,"Velocity":28,"Duration":1159447,"SoundDuration":1159447,"Delta":3498171},{"NoteNumber":59,"Velocity":44,"Duration":1720195,"SoundDuration":1720195,"Delta":3498171},{"NoteNumber":71,"Velocity":33,"Duration":576922,"SoundDuration":576922,"Delta":4080696},{"NoteNumber":62,"Velocity":28,"Duration":1148982,"SoundDuration":1148982,"Delta":4657619},{"NoteNumber":66,"Velocity":28,"Duration":1148982,"SoundDuration":1148982,"Delta":4657619},{"NoteNumber":71,"Velocity":35,"Duration":560747,"SoundDuration":560747,"Delta":4657619},{"NoteNumber":71,"Velocity":32,"Duration":588235,"SoundDuration":588235,"Delta":5218366},{"NoteNumber":54,"Velocity":40,"Duration":588235,"SoundDuration":588235,"Delta":5218366},{"NoteNumber":66,"Velocity":27,"Duration":1200000,"SoundDuration":1200000,"Delta":5806602},{"NoteNumber":62,"Velocity":27,"Duration":1200000,"SoundDuration":1200000,"Delta":5806602},{"NoteNumber":71,"Velocity":33,"Duration":599999,"SoundDuration":599999,"Delta":5806602},{"NoteNumber":50,"Velocity":35,"Duration":599999,"SoundDuration":599999,"Delta":5806602},{"NoteNumber":71,"Velocity":32,"Duration":600000,"SoundDuration":600000,"Delta":6406602},{"NoteNumber":49,"Velocity":31,"Duration":600000,"SoundDuration":600000,"Delta":6406602},{"NoteNumber":66,"Velocity":28,"Duration":1156173,"SoundDuration":1156173,"Delta":7006602},{"NoteNumber":62,"Velocity":28,"Duration":1156173,"SoundDuration":1156173,"Delta":7006602},{"NoteNumber":71,"Velocity":35,"Duration":596691,"SoundDuration":596691,"Delta":7006602},{"NoteNumber":47,"Velocity":38,"Duration":311426,"SoundDuration":311426,"Delta":7006602},{"NoteNumber":54,"Velocity":32,"Duration":285264,"SoundDuration":285264,"Delta":7318028},{"NoteNumber":71,"Velocity":35,"Duration":559481,"SoundDuration":559481,"Delta":7603293},{"NoteNumber":59,"Velocity":36,"Duration":281696,"SoundDuration":281696,"Delta":7603293},{"NoteNumber":62,"Velocity":41,"Duration":277785,"SoundDuration":277785,"Delta":7884989},{"NoteNumber":74,"Velocity":36,"Duration":566037,"SoundDuration":566037,"Delta":8162775},{"NoteNumber":71,"Velocity":28,"Duration":1166037,"SoundDuration":1166037,"Delta":8162775},{"NoteNumber":66,"Velocity":46,"Duration":1166037,"SoundDuration":1166037,"Delta":8162775},{"NoteNumber":74,"Velocity":35,"Duration":599999,"SoundDuration":599999,"Delta":8728812},{"NoteNumber":71,"Velocity":28,"Duration":1167365,"SoundDuration":1167365,"Delta":9328812},{"NoteNumber":74,"Velocity":36,"Duration":560747,"SoundDuration":560747,"Delta":9328812},{"NoteNumber":64,"Velocity":46,"Duration":854865,"SoundDuration":854865,"Delta":9328812},{"NoteNumber":74,"Velocity":35,"Duration":606617,"SoundDuration":606617,"Delta":9889560},{"NoteNumber":66,"Velocity":41,"Duration":307291,"SoundDuration":307291,"Delta":10183678},{"NoteNumber":74,"Velocity":35,"Duration":588235,"SoundDuration":588235,"Delta":10496178},{"NoteNumber":66,"Velocity":28,"Duration":1154272,"SoundDuration":1154272,"Delta":10496178},{"NoteNumber":71,"Velocity":28,"Duration":1154272,"SoundDuration":1154272,"Delta":10496178},{"NoteNumber":62,"Velocity":44,"Duration":1704731,"SoundDuration":1704731,"Delta":10496178},{"NoteNumber":74,"Velocity":35,"Duration":566037,"SoundDuration":566037,"Delta":11084413},{"NoteNumber":71,"Velocity":28,"Duration":1121886,"SoundDuration":1121886,"Delta":11650451},{"NoteNumber":66,"Velocity":28,"Duration":1121886,"SoundDuration":1121886,"Delta":11650451},{"NoteNumber":74,"Velocity":35,"Duration":550458,"SoundDuration":550458,"Delta":11650451},{"NoteNumber":74,"Velocity":31,"Duration":571428,"SoundDuration":571428,"Delta":12200909},{"NoteNumber":59,"Velocity":44,"Duration":571428,"SoundDuration":571428,"Delta":12200909},{"NoteNumber":71,"Velocity":26,"Duration":1249423,"SoundDuration":1249423,"Delta":12772338},{"NoteNumber":66,"Velocity":26,"Duration":1249423,"SoundDuration":1249423,"Delta":12772338},{"NoteNumber":74,"Velocity":32,"Duration":612244,"SoundDuration":612244,"Delta":12772338},{"NoteNumber":54,"Velocity":39,"Duration":612244,"SoundDuration":612244,"Delta":12772338},{"NoteNumber":74,"Velocity":32,"Duration":637178,"SoundDuration":637178,"Delta":13384583},{"NoteNumber":50,"Velocity":38,"Duration":637178,"SoundDuration":637178,"Delta":13384583},{"NoteNumber":71,"Velocity":28,"Duration":1193196,"SoundDuration":1193196,"Delta":14021761},{"NoteNumber":67,"Velocity":28,"Duration":1193196,"SoundDuration":1193196,"Delta":14021761},{"NoteNumber":74,"Velocity":35,"Duration":611532,"SoundDuration":611532,"Delta":14021761},{"NoteNumber":43,"Velocity":45,"Duration":312522,"SoundDuration":312522,"Delta":14021761},{"NoteNumber":50,"Velocity":39,"Duration":299009,"SoundDuration":299009,"Delta":14334283},{"NoteNumber":74,"Velocity":36,"Duration":581663,"SoundDuration":581663,"Delta":14633293},{"NoteNumber":59,"Velocity":42,"Duration":293651,"SoundDuration":293651,"Delta":14633293},{"NoteNumber":62,"Velocity":45,"Duration":288012,"SoundDuration":288012,"Delta":14926945},{"NoteNumber":74,"Velocity":40,"Duration":560747,"SoundDuration":560747,"Delta":15214957},{"NoteNumber":71,"Velocity":31,"Duration":1143272,"SoundDuration":1143272,"Delta":15214957},{"NoteNumber":67,"Velocity":49,"Duration":1143272,"SoundDuration":1143272,"Delta":15214957},{"NoteNumber":74,"Velocity":38,"Duration":582524,"SoundDuration":582524,"Delta":15775705},{"NoteNumber":71,"Velocity":31,"Duration":1171428,"SoundDuration":1171428,"Delta":16358229},{"NoteNumber":74,"Velocity":40,"Duration":571428,"SoundDuration":571428,"Delta":16358229},{"NoteNumber":66,"Velocity":48,"Duration":1171428,"SoundDuration":1171428,"Delta":16358229},{"NoteNumber":74,"Velocity":38,"Duration":600000,"SoundDuration":600000,"Delta":16929658},{"NoteNumber":68,"Velocity":30,"Duration":1170982,"SoundDuration":1170982,"Delta":17529658},{"NoteNumber":74,"Velocity":38,"Duration":576923,"SoundDuration":576923,"Delta":17529658},{"NoteNumber":71,"Velocity":30,"Duration":1170982,"SoundDuration":1170982,"Delta":17529658},{"NoteNumber":66,"Velocity":49,"Duration":1170982,"SoundDuration":1170982,"Delta":17529658},{"NoteNumber":74,"Velocity":32,"Duration":594059,"SoundDuration":594059,"Delta":18106581},{"NoteNumber":68,"Velocity":28,"Duration":1176923,"SoundDuration":1176923,"Delta":18700640},{"NoteNumber":73,"Velocity":36,"Duration":576923,"SoundDuration":576923,"Delta":18700640},{"NoteNumber":71,"Velocity":28,"Duration":1176923,"SoundDuration":1176923,"Delta":18700640},{"NoteNumber":65,"Velocity":48,"Duration":1176923,"SoundDuration":1176923,"Delta":18700640},{"NoteNumber":73,"Velocity":31,"Duration":600000,"SoundDuration":600000,"Delta":19277563},{"NoteNumber":70,"Velocity":31,"Duration":555555,"SoundDuration":555555,"Delta":19877563},{"NoteNumber":73,"Velocity":37,"Duration":555555,"SoundDuration":555555,"Delta":19877563},{"NoteNumber":67,"Velocity":29,"Duration":1111111,"SoundDuration":1111111,"Delta":19877563},{"NoteNumber":64,"Velocity":49,"Duration":555555,"SoundDuration":555555,"Delta":19877563},{"NoteNumber":74,"Velocity":42,"Duration":555555,"SoundDuration":555555,"Delta":20433119},{"NoteNumber":71,"Velocity":36,"Duration":555555,"SoundDuration":555555,"Delta":20433119},{"NoteNumber":62,"Velocity":44,"Duration":555555,"SoundDuration":555555,"Delta":20433119},{"NoteNumber":76,"Velocity":47,"Duration":1705474,"SoundDuration":1705474,"Delta":20988674},{"NoteNumber":67,"Velocity":35,"Duration":551201,"SoundDuration":551201,"Delta":20988674},{"NoteNumber":70,"Velocity":40,"Duration":551201,"SoundDuration":551201,"Delta":20988674},{"NoteNumber":61,"Velocity":49,"Duration":462705,"SoundDuration":462705,"Delta":20988674},{"NoteNumber":64,"Velocity":28,"Duration":88495,"SoundDuration":88495,"Delta":21451380},{"NoteNumber":67,"Velocity":35,"Duration":588235,"SoundDuration":588235,"Delta":21539875},{"NoteNumber":71,"Velocity":40,"Duration":588235,"SoundDuration":588235,"Delta":21539875},{"NoteNumber":62,"Velocity":41,"Duration":588235,"SoundDuration":588235,"Delta":21539875},{"NoteNumber":67,"Velocity":36,"Duration":566037,"SoundDuration":566037,"Delta":22128111},{"NoteNumber":70,"Velocity":40,"Duration":566037,"SoundDuration":566037,"Delta":22128111},{"NoteNumber":61,"Velocity":49,"Duration":566037,"SoundDuration":566037,"Delta":22128111},{"NoteNumber":73,"Velocity":45,"Duration":566037,"SoundDuration":566037,"Delta":22694148},{"NoteNumber":66,"Velocity":45,"Duration":566037,"SoundDuration":566037,"Delta":22694148},{"NoteNumber":78,"Velocity":54,"Duration":566037,"SoundDuration":566037,"Delta":22694148},{"NoteNumber":58,"Velocity":40,"Duration":566037,"SoundDuration":566037,"Delta":22694148},{"NoteNumber":66,"Velocity":41,"Duration":571428,"SoundDuration":571428,"Delta":23260186},{"NoteNumber":76,"Velocity":49,"Duration":285714,"SoundDuration":285714,"Delta":23260186},{"NoteNumber":71,"Velocity":41,"Duration":571428,"SoundDuration":571428,"Delta":23260186},{"NoteNumber":59,"Velocity":47,"Duration":571428,"SoundDuration":571428,"Delta":23260186},{"NoteNumber":74,"Velocity":45,"Duration":190476,"SoundDuration":190476,"Delta":23545900},{"NoteNumber":74,"Velocity":42,"Duration":71428,"SoundDuration":71428,"Delta":23760186},{"NoteNumber":73,"Velocity":50,"Duration":285714,"SoundDuration":285714,"Delta":23831614},{"NoteNumber":66,"Velocity":42,"Duration":571428,"SoundDuration":571428,"Delta":23831614},{"NoteNumber":50,"Velocity":42,"Duration":571428,"SoundDuration":571428,"Delta":23831614},{"NoteNumber":71,"Velocity":44,"Duration":285714,"SoundDuration":285714,"Delta":24117328},{"NoteNumber":61,"Velocity":40,"Duration":582524,"SoundDuration":582524,"Delta":24403043},{"NoteNumber":67,"Velocity":40,"Duration":582524,"SoundDuration":582524,"Delta":24403043},{"NoteNumber":70,"Velocity":48,"Duration":582524,"SoundDuration":582524,"Delta":24403043},{"NoteNumber":52,"Velocity":48,"Duration":582524,"SoundDuration":582524,"Delta":24403043},{"NoteNumber":68,"Velocity":41,"Duration":582524,"SoundDuration":582524,"Delta":24985567},{"NoteNumber":71,"Velocity":48,"Duration":582524,"SoundDuration":582524,"Delta":24985567},{"NoteNumber":62,"Velocity":41,"Duration":582524,"SoundDuration":582524,"Delta":24985567},{"NoteNumber":53,"Velocity":39,"Duration":582524,"SoundDuration":582524,"Delta":24985567},{"NoteNumber":71,"Velocity":44,"Duration":582524,"SoundDuration":582524,"Delta":25568092},{"NoteNumber":62,"Velocity":44,"Duration":582524,"SoundDuration":582524,"Delta":25568092},{"NoteNumber":74,"Velocity":53,"Duration":582524,"SoundDuration":582524,"Delta":25568092},{"NoteNumber":54,"Velocity":46,"Duration":1165048,"SoundDuration":1165048,"Delta":25568092},{"NoteNumber":61,"Velocity":40,"Duration":582524,"SoundDuration":582524,"Delta":26150616},{"NoteNumber":73,"Velocity":48,"Duration":582524,"SoundDuration":582524,"Delta":26150616},{"NoteNumber":70,"Velocity":40,"Duration":582524,"SoundDuration":582524,"Delta":26150616},{"NoteNumber":50,"Velocity":41,"Duration":604163,"SoundDuration":604163,"Delta":26733141},{"NoteNumber":49,"Velocity":35,"Duration":636202,"SoundDuration":636202,"Delta":27337304},{"NoteNumber":66,"Velocity":28,"Duration":1173057,"SoundDuration":1173057,"Delta":27973506},{"NoteNumber":62,"Velocity":28,"Duration":1173057,"SoundDuration":1173057,"Delta":27973506},{"NoteNumber":71,"Velocity":35,"Duration":609949,"SoundDuration":609949,"Delta":27973506},{"NoteNumber":47,"Velocity":38,"Duration":315812,"SoundDuration":315812,"Delta":27973506},{"NoteNumber":50,"Velocity":32,"Duration":294136,"SoundDuration":294136,"Delta":28289319},{"NoteNumber":71,"Velocity":32,"Duration":563108,"SoundDuration":563108,"Delta":28583456},{"NoteNumber":54,"Velocity":36,"Duration":285731,"SoundDuration":285731,"Delta":28583456},{"NoteNumber":59,"Velocity":41,"Duration":277376,"SoundDuration":277376,"Delta":28869187},{"NoteNumber":71,"Velocity":35,"Duration":576923,"SoundDuration":576923,"Delta":29146564},{"NoteNumber":66,"Velocity":28,"Duration":1176923,"SoundDuration":1176923,"Delta":29146564},{"NoteNumber":62,"Velocity":46,"Duration":1176923,"SoundDuration":1176923,"Delta":29146564},{"NoteNumber":71,"Velocity":33,"Duration":600000,"SoundDuration":600000,"Delta":29723487},{"NoteNumber":71,"Velocity":35,"Duration":560747,"SoundDuration":560747,"Delta":30323487},{"NoteNumber":66,"Velocity":28,"Duration":1186834,"SoundDuration":1186834,"Delta":30323487},{"NoteNumber":61,"Velocity":45,"Duration":860747,"SoundDuration":860747,"Delta":30323487},{"NoteNumber":71,"Velocity":32,"Duration":626087,"SoundDuration":626087,"Delta":30884234},{"NoteNumber":62,"Velocity":33,"Duration":320652,"SoundDuration":320652,"Delta":31184234},{"NoteNumber":66,"Velocity":28,"Duration":1176923,"SoundDuration":1176923,"Delta":31510321},{"NoteNumber":62,"Velocity":28,"Duration":1176923,"SoundDuration":1176923,"Delta":31510321},{"NoteNumber":71,"Velocity":35,"Duration":600000,"SoundDuration":600000,"Delta":31510321},{"NoteNumber":59,"Velocity":44,"Duration":1732478,"SoundDuration":1732478,"Delta":31510321},{"NoteNumber":71,"Velocity":33,"Duration":576923,"SoundDuration":576923,"Delta":32110321},{"NoteNumber":66,"Velocity":28,"Duration":1138079,"SoundDuration":1138079,"Delta":32687244},{"NoteNumber":62,"Velocity":28,"Duration":1138079,"SoundDuration":1138079,"Delta":32687244},{"NoteNumber":71,"Velocity":35,"Duration":555555,"SoundDuration":555555,"Delta":32687244},{"NoteNumber":71,"Velocity":32,"Duration":582524,"SoundDuration":582524,"Delta":33242800},{"NoteNumber":54,"Velocity":41,"Duration":582524,"SoundDuration":582524,"Delta":33242800},{"NoteNumber":66,"Velocity":27,"Duration":1200000,"SoundDuration":1200000,"Delta":33825324},{"NoteNumber":62,"Velocity":27,"Duration":1200000,"SoundDuration":1200000,"Delta":33825324},{"NoteNumber":71,"Velocity":33,"Duration":600000,"SoundDuration":600000,"Delta":33825324},{"NoteNumber":50,"Velocity":35,"Duration":600000,"SoundDuration":600000,"Delta":33825324},{"NoteNumber":71,"Velocity":32,"Duration":600000,"SoundDuration":600000,"Delta":34425324},{"NoteNumber":47,"Velocity":32,"Duration":600000,"SoundDuration":600000,"Delta":34425324},{"NoteNumber":67,"Velocity":32,"Duration":1199015,"SoundDuration":1199015,"Delta":35025324},{"NoteNumber":62,"Velocity":32,"Duration":1199015,"SoundDuration":1199015,"Delta":35025324},{"NoteNumber":71,"Velocity":41,"Duration":614477,"SoundDuration":614477,"Delta":35025324},{"NoteNumber":43,"Velocity":51,"Duration":311426,"SoundDuration":311426,"Delta":35025324},{"NoteNumber":50,"Velocity":46,"Duration":303050,"SoundDuration":303050,"Delta":35336750},{"NoteNumber":71,"Velocity":41,"Duration":584538,"SoundDuration":584538,"Delta":35639801},{"NoteNumber":55,"Velocity":48,"Duration":296059,"SoundDuration":296059,"Delta":35639801},{"NoteNumber":59,"Velocity":49,"Duration":288479,"SoundDuration":288479,"Delta":35935860},{"NoteNumber":71,"Velocity":44,"Duration":560747,"SoundDuration":560747,"Delta":36224340},{"NoteNumber":67,"Velocity":33,"Duration":1154806,"SoundDuration":1154806,"Delta":36224340},{"NoteNumber":62,"Velocity":50,"Duration":1154806,"SoundDuration":1154806,"Delta":36224340},{"NoteNumber":71,"Velocity":41,"Duration":594059,"SoundDuration":594059,"Delta":36785087},{"NoteNumber":71,"Velocity":48,"Duration":576923,"SoundDuration":576923,"Delta":37379147},{"NoteNumber":67,"Velocity":36,"Duration":1170982,"SoundDuration":1170982,"Delta":37379147},{"NoteNumber":64,"Velocity":56,"Duration":576923,"SoundDuration":576923,"Delta":37379147},{"NoteNumber":71,"Velocity":45,"Duration":594059,"SoundDuration":594059,"Delta":37956070},{"NoteNumber":65,"Velocity":52,"Duration":594059,"SoundDuration":594059,"Delta":37956070},{"NoteNumber":67,"Velocity":39,"Duration":1132478,"SoundDuration":1132478,"Delta":38550129},{"NoteNumber":72,"Velocity":49,"Duration":555555,"SoundDuration":555555,"Delta":38550129},{"NoteNumber":64,"Velocity":56,"Duration":1127670,"SoundDuration":1127670,"Delta":38550129},{"NoteNumber":72,"Velocity":49,"Duration":576923,"SoundDuration":576923,"Delta":39105685},{"NoteNumber":67,"Velocity":39,"Duration":1127381,"SoundDuration":1127381,"Delta":39682608},{"NoteNumber":64,"Velocity":39,"Duration":1127381,"SoundDuration":1127381,"Delta":39682608},{"NoteNumber":72,"Velocity":49,"Duration":576923,"SoundDuration":576923,"Delta":39682608},{"NoteNumber":72,"Velocity":44,"Duration":550458,"SoundDuration":550458,"Delta":40259531},{"NoteNumber":60,"Velocity":54,"Duration":550458,"SoundDuration":550458,"Delta":40259531},{"NoteNumber":67,"Velocity":36,"Duration":1208606,"SoundDuration":1208606,"Delta":40809989},{"NoteNumber":64,"Velocity":36,"Duration":1208606,"SoundDuration":1208606,"Delta":40809989},{"NoteNumber":72,"Velocity":46,"Duration":571428,"SoundDuration":571428,"Delta":40809989},{"NoteNumber":55,"Velocity":50,"Duration":571428,"SoundDuration":571428,"Delta":40809989},{"NoteNumber":72,"Velocity":45,"Duration":637178,"SoundDuration":637178,"Delta":41381418},{"NoteNumber":48,"Velocity":48,"Duration":637178,"SoundDuration":637178,"Delta":41381418},{"NoteNumber":64,"Velocity":36,"Duration":1212822,"SoundDuration":1212822,"Delta":42018596},{"NoteNumber":72,"Velocity":45,"Duration":618666,"SoundDuration":618666,"Delta":42018596},{"NoteNumber":67,"Velocity":36,"Duration":1212822,"SoundDuration":1212822,"Delta":42018596},{"NoteNumber":36,"Velocity":57,"Duration":312522,"SoundDuration":312522,"Delta":42018596},{"NoteNumber":43,"Velocity":50,"Duration":306143,"SoundDuration":306143,"Delta":42331118},{"NoteNumber":72,"Velocity":45,"Duration":594156,"SoundDuration":594156,"Delta":42637262},{"NoteNumber":52,"Velocity":53,"Duration":300019,"SoundDuration":300019,"Delta":42637262},{"NoteNumber":55,"Velocity":56,"Duration":294136,"SoundDuration":294136,"Delta":42937282},{"NoteNumber":72,"Velocity":48,"Duration":582524,"SoundDuration":582524,"Delta":43231419},{"NoteNumber":67,"Velocity":36,"Duration":1166209,"SoundDuration":1166209,"Delta":43231419},{"NoteNumber":64,"Velocity":58,"Duration":1160775,"SoundDuration":1160775,"Delta":43231419},{"NoteNumber":72,"Velocity":45,"Duration":583685,"SoundDuration":583685,"Delta":43813943},{"NoteNumber":72,"Velocity":45,"Duration":622491,"SoundDuration":622491,"Delta":44397628},{"NoteNumber":64,"Velocity":36,"Duration":1216648,"SoundDuration":1216648,"Delta":44397628},{"NoteNumber":67,"Velocity":36,"Duration":1216648,"SoundDuration":1216648,"Delta":44397628},{"NoteNumber":36,"Velocity":59,"Duration":316347,"SoundDuration":316347,"Delta":44397628},{"NoteNumber":43,"Velocity":47,"Duration":306143,"SoundDuration":306143,"Delta":44713976},{"NoteNumber":72,"Velocity":45,"Duration":594156,"SoundDuration":594156,"Delta":45020120},{"NoteNumber":52,"Velocity":51,"Duration":300019,"SoundDuration":300019,"Delta":45020120},{"NoteNumber":55,"Velocity":55,"Duration":294136,"SoundDuration":294136,"Delta":45320140},{"NoteNumber":67,"Velocity":36,"Duration":1165048,"SoundDuration":1165048,"Delta":45614277},{"NoteNumber":72,"Velocity":48,"Duration":582524,"SoundDuration":582524,"Delta":45614277},{"NoteNumber":64,"Velocity":59,"Duration":2308320,"SoundDuration":2308320,"Delta":45614277},{"NoteNumber":72,"Velocity":44,"Duration":582524,"SoundDuration":582524,"Delta":46196801},{"NoteNumber":67,"Velocity":32,"Duration":1143271,"SoundDuration":1143271,"Delta":46779326},{"NoteNumber":72,"Velocity":40,"Duration":560747,"SoundDuration":560747,"Delta":46779326},{"NoteNumber":72,"Velocity":40,"Duration":582524,"SoundDuration":582524,"Delta":47340073},{"NoteNumber":71,"Velocity":38,"Duration":582524,"SoundDuration":582524,"Delta":47922598},{"NoteNumber":67,"Velocity":30,"Duration":1182524,"SoundDuration":1182524,"Delta":47922598},{"NoteNumber":71,"Velocity":32,"Duration":600000,"SoundDuration":600000,"Delta":48505122},{"NoteNumber":67,"Velocity":28,"Duration":1165158,"SoundDuration":1165158,"Delta":49105122},{"NoteNumber":70,"Velocity":36,"Duration":576923,"SoundDuration":576923,"Delta":49105122},{"NoteNumber":61,"Velocity":28,"Duration":1165158,"SoundDuration":1165158,"Delta":49105122},{"NoteNumber":52,"Velocity":48,"Duration":1765158,"SoundDuration":1765158,"Delta":49105122},{"NoteNumber":70,"Velocity":35,"Duration":588235,"SoundDuration":588235,"Delta":49682045},{"NoteNumber":70,"Velocity":36,"Duration":600000,"SoundDuration":600000,"Delta":50270281},{"NoteNumber":61,"Velocity":28,"Duration":1176923,"SoundDuration":1176923,"Delta":50270281},{"NoteNumber":66,"Velocity":28,"Duration":1176923,"SoundDuration":1176923,"Delta":50270281},{"NoteNumber":70,"Velocity":36,"Duration":576923,"SoundDuration":576923,"Delta":50870281},{"NoteNumber":54,"Velocity":38,"Duration":576923,"SoundDuration":576923,"Delta":50870281},{"NoteNumber":66,"Velocity":28,"Duration":1156700,"SoundDuration":1156700,"Delta":51447204},{"NoteNumber":62,"Velocity":24,"Duration":1156700,"SoundDuration":1156700,"Delta":51447204},{"NoteNumber":71,"Velocity":36,"Duration":574175,"SoundDuration":574175,"Delta":51447204},{"NoteNumber":52,"Velocity":48,"Duration":285714,"SoundDuration":285714,"Delta":51447204},{"NoteNumber":50,"Velocity":40,"Duration":288461,"SoundDuration":288461,"Delta":51732918},{"NoteNumber":71,"Velocity":32,"Duration":582524,"SoundDuration":582524,"Delta":52021379},{"NoteNumber":49,"Velocity":41,"Duration":291262,"SoundDuration":291262,"Delta":52021379},{"NoteNumber":47,"Velocity":36,"Duration":291262,"SoundDuration":291262,"Delta":52312642},{"NoteNumber":71,"Velocity":36,"Duration":571428,"SoundDuration":571428,"Delta":52603904},{"NoteNumber":61,"Velocity":28,"Duration":1148351,"SoundDuration":1148351,"Delta":52603904},{"NoteNumber":67,"Velocity":28,"Duration":1148351,"SoundDuration":1148351,"Delta":52603904},{"NoteNumber":52,"Velocity":48,"Duration":1748351,"SoundDuration":1748351,"Delta":52603904},{"NoteNumber":71,"Velocity":35,"Duration":576923,"SoundDuration":576923,"Delta":53175332},{"NoteNumber":70,"Velocity":36,"Duration":600000,"SoundDuration":600000,"Delta":53752255},{"NoteNumber":61,"Velocity":28,"Duration":1176923,"SoundDuration":1176923,"Delta":53752255},{"NoteNumber":67,"Velocity":28,"Duration":1176923,"SoundDuration":1176923,"Delta":53752255},{"NoteNumber":70,"Velocity":36,"Duration":576923,"SoundDuration":576923,"Delta":54352255},{"NoteNumber":54,"Velocity":38,"Duration":576923,"SoundDuration":576923,"Delta":54352255},{"NoteNumber":62,"Velocity":26,"Duration":1129870,"SoundDuration":1129870,"Delta":54929178},{"NoteNumber":67,"Velocity":28,"Duration":1129870,"SoundDuration":1129870,"Delta":54929178},{"NoteNumber":71,"Velocity":36,"Duration":571428,"SoundDuration":571428,"Delta":54929178},{"NoteNumber":52,"Velocity":48,"Duration":285714,"SoundDuration":285714,"Delta":54929178},{"NoteNumber":50,"Velocity":40,"Duration":285714,"SoundDuration":285714,"Delta":55214893},{"NoteNumber":71,"Velocity":32,"Duration":558441,"SoundDuration":558441,"Delta":55500607},{"NoteNumber":49,"Velocity":41,"Duration":285714,"SoundDuration":285714,"Delta":55500607},{"NoteNumber":47,"Velocity":36,"Duration":272727,"SoundDuration":272727,"Delta":55786321},{"NoteNumber":62,"Velocity":26,"Duration":1200495,"SoundDuration":1200495,"Delta":56059048},{"NoteNumber":71,"Velocity":36,"Duration":573257,"SoundDuration":573257,"Delta":56059048},{"NoteNumber":67,"Velocity":28,"Duration":1200495,"SoundDuration":1200495,"Delta":56059048},{"NoteNumber":45,"Velocity":45,"Duration":284956,"SoundDuration":284956,"Delta":56059048},{"NoteNumber":43,"Velocity":40,"Duration":288301,"SoundDuration":288301,"Delta":56344005},{"NoteNumber":71,"Velocity":32,"Duration":627237,"SoundDuration":627237,"Delta":56632306},{"NoteNumber":38,"Velocity":41,"Duration":301172,"SoundDuration":301172,"Delta":56632306},{"NoteNumber":40,"Velocity":36,"Duration":326065,"SoundDuration":326065,"Delta":56933478},{"NoteNumber":61,"Velocity":28,"Duration":1188119,"SoundDuration":1188119,"Delta":57259544},{"NoteNumber":71,"Velocity":36,"Duration":594059,"SoundDuration":594059,"Delta":57259544},{"NoteNumber":66,"Velocity":28,"Duration":1188119,"SoundDuration":1188119,"Delta":57259544},{"NoteNumber":42,"Velocity":48,"Duration":2376238,"SoundDuration":2376238,"Delta":57259544},{"NoteNumber":71,"Velocity":31,"Duration":594059,"SoundDuration":594059,"Delta":57853603},{"NoteNumber":61,"Velocity":26,"Duration":1188119,"SoundDuration":1188119,"Delta":58447663},{"NoteNumber":70,"Velocity":36,"Duration":594059,"SoundDuration":594059,"Delta":58447663},{"NoteNumber":64,"Velocity":28,"Duration":1188119,"SoundDuration":1188119,"Delta":58447663},{"NoteNumber":70,"Velocity":32,"Duration":594059,"SoundDuration":594059,"Delta":59041722},{"NoteNumber":64,"Velocity":28,"Duration":1188119,"SoundDuration":1188119,"Delta":59635782},{"NoteNumber":61,"Velocity":28,"Duration":1188119,"SoundDuration":1188119,"Delta":59635782},{"NoteNumber":70,"Velocity":36,"Duration":594059,"SoundDuration":594059,"Delta":59635782},{"NoteNumber":43,"Velocity":36,"Duration":2376238,"SoundDuration":2376238,"Delta":59635782},{"NoteNumber":70,"Velocity":31,"Duration":594059,"SoundDuration":594059,"Delta":60229841},{"NoteNumber":71,"Velocity":36,"Duration":594059,"SoundDuration":594059,"Delta":60823901},{"NoteNumber":59,"Velocity":26,"Duration":1188119,"SoundDuration":1188119,"Delta":60823901},{"NoteNumber":62,"Velocity":28,"Duration":1188119,"SoundDuration":1188119,"Delta":60823901},{"NoteNumber":71,"Velocity":32,"Duration":594059,"SoundDuration":594059,"Delta":61417960},{"NoteNumber":71,"Velocity":36,"Duration":576923,"SoundDuration":576923,"Delta":62012020},{"NoteNumber":62,"Velocity":27,"Duration":1176923,"SoundDuration":1176923,"Delta":62012020},{"NoteNumber":67,"Velocity":28,"Duration":1176923,"SoundDuration":1176923,"Delta":62012020},{"NoteNumber":55,"Velocity":35,"Duration":1176923,"SoundDuration":1176923,"Delta":62012020},{"NoteNumber":71,"Velocity":32,"Duration":600000,"SoundDuration":600000,"Delta":62588943},{"NoteNumber":67,"Velocity":28,"Duration":1159447,"SoundDuration":1159447,"Delta":63188943},{"NoteNumber":61,"Velocity":28,"Duration":1159447,"SoundDuration":1159447,"Delta":63188943},{"NoteNumber":71,"Velocity":36,"Duration":582524,"SoundDuration":582524,"Delta":63188943},{"NoteNumber":52,"Velocity":48,"Duration":1759447,"SoundDuration":1759447,"Delta":63188943},{"NoteNumber":71,"Velocity":35,"Duration":576922,"SoundDuration":576922,"Delta":63771467},{"NoteNumber":70,"Velocity":36,"Duration":599999,"SoundDuration":599999,"Delta":64348390},{"NoteNumber":67,"Velocity":28,"Duration":1176922,"SoundDuration":1176922,"Delta":64348390},{"NoteNumber":61,"Velocity":28,"Duration":1176922,"SoundDuration":1176922,"Delta":64348390},{"NoteNumber":70,"Velocity":36,"Duration":576922,"SoundDuration":576922,"Delta":64948390},{"NoteNumber":54,"Velocity":38,"Duration":576922,"SoundDuration":576922,"Delta":64948390},{"NoteNumber":62,"Velocity":24,"Duration":1156700,"SoundDuration":1156700,"Delta":65525313},{"NoteNumber":66,"Velocity":28,"Duration":1156700,"SoundDuration":1156700,"Delta":65525313},{"NoteNumber":71,"Velocity":36,"Duration":574175,"SoundDuration":574175,"Delta":65525313},{"NoteNumber":52,"Velocity":47,"Duration":285714,"SoundDuration":285714,"Delta":65525313},{"NoteNumber":50,"Velocity":40,"Duration":288461,"SoundDuration":288461,"Delta":65811027},{"NoteNumber":71,"Velocity":32,"Duration":582524,"SoundDuration":582524,"Delta":66099489},{"NoteNumber":49,"Velocity":41,"Duration":291262,"SoundDuration":291262,"Delta":66099489},{"NoteNumber":47,"Velocity":36,"Duration":291262,"SoundDuration":291262,"Delta":66390751},{"NoteNumber":61,"Velocity":28,"Duration":1153845,"SoundDuration":1153845,"Delta":66682013},{"NoteNumber":71,"Velocity":36,"Duration":576922,"SoundDuration":576922,"Delta":66682013},{"NoteNumber":67,"Velocity":28,"Duration":1153845,"SoundDuration":1153845,"Delta":66682013},{"NoteNumber":52,"Velocity":48,"Duration":1753845,"SoundDuration":1753845,"Delta":66682013},{"NoteNumber":71,"Velocity":35,"Duration":576922,"SoundDuration":576922,"Delta":67258936},{"NoteNumber":61,"Velocity":28,"Duration":1176922,"SoundDuration":1176922,"Delta":67835859},{"NoteNumber":70,"Velocity":36,"Duration":599999,"SoundDuration":599999,"Delta":67835859},{"NoteNumber":67,"Velocity":28,"Duration":1176922,"SoundDuration":1176922,"Delta":67835859},{"NoteNumber":70,"Velocity":36,"Duration":576922,"SoundDuration":576922,"Delta":68435859},{"NoteNumber":54,"Velocity":38,"Duration":576922,"SoundDuration":576922,"Delta":68435859},{"NoteNumber":62,"Velocity":26,"Duration":1129869,"SoundDuration":1129869,"Delta":69012782},{"NoteNumber":71,"Velocity":36,"Duration":571428,"SoundDuration":571428,"Delta":69012782},{"NoteNumber":67,"Velocity":28,"Duration":1129869,"SoundDuration":1129869,"Delta":69012782},{"NoteNumber":52,"Velocity":48,"Duration":285714,"SoundDuration":285714,"Delta":69012782},{"NoteNumber":50,"Velocity":40,"Duration":285714,"SoundDuration":285714,"Delta":69298497},{"NoteNumber":71,"Velocity":32,"Duration":558441,"SoundDuration":558441,"Delta":69584211},{"NoteNumber":49,"Velocity":41,"Duration":285714,"SoundDuration":285714,"Delta":69584211},{"NoteNumber":47,"Velocity":36,"Duration":272727,"SoundDuration":272727,"Delta":69869925},{"NoteNumber":67,"Velocity":28,"Duration":1200495,"SoundDuration":1200495,"Delta":70142652},{"NoteNumber":62,"Velocity":26,"Duration":1200495,"SoundDuration":1200495,"Delta":70142652},{"NoteNumber":71,"Velocity":36,"Duration":573257,"SoundDuration":573257,"Delta":70142652},{"NoteNumber":45,"Velocity":45,"Duration":284956,"SoundDuration":284956,"Delta":70142652},{"NoteNumber":43,"Velocity":40,"Duration":288301,"SoundDuration":288301,"Delta":70427609},{"NoteNumber":71,"Velocity":32,"Duration":627237,"SoundDuration":627237,"Delta":70715910},{"NoteNumber":38,"Velocity":41,"Duration":301172,"SoundDuration":301172,"Delta":70715910},{"NoteNumber":40,"Velocity":36,"Duration":326065,"SoundDuration":326065,"Delta":71017083},{"NoteNumber":66,"Velocity":28,"Duration":1165487,"SoundDuration":1165487,"Delta":71343148},{"NoteNumber":61,"Velocity":28,"Duration":1165487,"SoundDuration":1165487,"Delta":71343148},{"NoteNumber":71,"Velocity":36,"Duration":571428,"SoundDuration":571428,"Delta":71343148},{"NoteNumber":42,"Velocity":48,"Duration":2404708,"SoundDuration":2404708,"Delta":71343148},{"NoteNumber":71,"Velocity":31,"Duration":594059,"SoundDuration":594059,"Delta":71914576},{"NoteNumber":70,"Velocity":32,"Duration":594059,"SoundDuration":594059,"Delta":72508636},{"NoteNumber":61,"Velocity":23,"Duration":1239221,"SoundDuration":1239221,"Delta":72508636},{"NoteNumber":66,"Velocity":24,"Duration":1239221,"SoundDuration":1239221,"Delta":72508636},{"NoteNumber":70,"Velocity":28,"Duration":645161,"SoundDuration":645161,"Delta":73102695},{"NoteNumber":66,"Velocity":24,"Duration":1176584,"SoundDuration":1176584,"Delta":73747857},{"NoteNumber":62,"Velocity":24,"Duration":1176584,"SoundDuration":1176584,"Delta":73747857},{"NoteNumber":71,"Velocity":30,"Duration":582524,"SoundDuration":582524,"Delta":73747857},{"NoteNumber":35,"Velocity":31,"Duration":3934383,"SoundDuration":3934383,"Delta":73747857},{"NoteNumber":71,"Velocity":26,"Duration":594059,"SoundDuration":594059,"Delta":74330381},{"NoteNumber":71,"Velocity":30,"Duration":571428,"SoundDuration":571428,"Delta":74924441},{"NoteNumber":66,"Velocity":24,"Duration":1165487,"SoundDuration":1165487,"Delta":74924441},{"NoteNumber":62,"Velocity":21,"Duration":1165487,"SoundDuration":1165487,"Delta":74924441},{"NoteNumber":71,"Velocity":27,"Duration":594059,"SoundDuration":594059,"Delta":75495869},{"NoteNumber":69,"Velocity":30,"Duration":601082,"SoundDuration":601082,"Delta":76089929},{"NoteNumber":62,"Velocity":21,"Duration":1270874,"SoundDuration":1270874,"Delta":76089929},{"NoteNumber":66,"Velocity":24,"Duration":1270874,"SoundDuration":1270874,"Delta":76089929},{"NoteNumber":69,"Velocity":27,"Duration":669792,"SoundDuration":669792,"Delta":76691011},{"NoteNumber":66,"Velocity":29,"Duration":637249,"SoundDuration":637249,"Delta":77360803},{"NoteNumber":62,"Velocity":23,"Duration":1249600,"SoundDuration":1249600,"Delta":77360803},{"NoteNumber":50,"Velocity":27,"Duration":315812,"SoundDuration":315812,"Delta":77682240},{"NoteNumber":66,"Velocity":27,"Duration":612351,"SoundDuration":612351,"Delta":77998053},{"NoteNumber":54,"Velocity":31,"Duration":309300,"SoundDuration":309300,"Delta":77998053},{"NoteNumber":59,"Velocity":35,"Duration":303050,"SoundDuration":303050,"Delta":78307353},{"NoteNumber":66,"Velocity":29,"Duration":588235,"SoundDuration":588235,"Delta":78610404},{"NoteNumber":62,"Velocity":40,"Duration":1188235,"SoundDuration":1188235,"Delta":78610404},{"NoteNumber":66,"Velocity":28,"Duration":599999,"SoundDuration":599999,"Delta":79198640},{"NoteNumber":66,"Velocity":29,"Duration":582524,"SoundDuration":582524,"Delta":79798640},{"NoteNumber":61,"Velocity":38,"Duration":882524,"SoundDuration":882524,"Delta":79798640},{"NoteNumber":66,"Velocity":28,"Duration":599999,"SoundDuration":599999,"Delta":80381164},{"NoteNumber":62,"Velocity":33,"Duration":295000,"SoundDuration":295000,"Delta":80681164},{"NoteNumber":62,"Velocity":23,"Duration":1182524,"SoundDuration":1182524,"Delta":80981164},{"NoteNumber":66,"Velocity":29,"Duration":600000,"SoundDuration":600000,"Delta":80981164},{"NoteNumber":59,"Velocity":36,"Duration":1765049,"SoundDuration":1765049,"Delta":80981164},{"NoteNumber":66,"Velocity":27,"Duration":582524,"SoundDuration":582524,"Delta":81581164},{"NoteNumber":66,"Velocity":27,"Duration":582524,"SoundDuration":582524,"Delta":82163689},{"NoteNumber":62,"Velocity":21,"Duration":1233707,"SoundDuration":1233707,"Delta":82163689},{"NoteNumber":66,"Velocity":25,"Duration":651183,"SoundDuration":651183,"Delta":82746213},{"NoteNumber":54,"Velocity":28,"Duration":651183,"SoundDuration":651183,"Delta":82746213},{"NoteNumber":66,"Velocity":24,"Duration":653776,"SoundDuration":653776,"Delta":83397396},{"NoteNumber":62,"Velocity":19,"Duration":1352922,"SoundDuration":1352922,"Delta":83397396},{"NoteNumber":50,"Velocity":25,"Duration":653776,"SoundDuration":653776,"Delta":83397396},{"NoteNumber":66,"Velocity":22,"Duration":699146,"SoundDuration":699146,"Delta":84051172},{"NoteNumber":49,"Velocity":21,"Duration":699146,"SoundDuration":699146,"Delta":84051172},{"NoteNumber":62,"Velocity":16,"Duration":1399580,"SoundDuration":1399580,"Delta":84750319},{"NoteNumber":66,"Velocity":20,"Duration":699790,"SoundDuration":699790,"Delta":84750319},{"NoteNumber":47,"Velocity":21,"Duration":6789349,"SoundDuration":6789349,"Delta":84750319},{"NoteNumber":66,"Velocity":19,"Duration":699789,"SoundDuration":699789,"Delta":85450109},{"NoteNumber":66,"Velocity":19,"Duration":794702,"SoundDuration":794702,"Delta":87538110},{"NoteNumber":62,"Velocity":15,"Duration":1714101,"SoundDuration":1714101,"Delta":87538110},{"NoteNumber":66,"Velocity":17,"Duration":919399,"SoundDuration":919399,"Delta":88332812},{"NoteNumber":62,"Velocity":15,"Duration":2287457,"SoundDuration":2287457,"Delta":89252212},{"NoteNumber":66,"Velocity":19,"Duration":1143728,"SoundDuration":1143728,"Delta":89252212},{"NoteNumber":66,"Velocity":17,"Duration":1143728,"SoundDuration":1143728,"Delta":90395940}],"license":{"name":"Creative Commons Attribution-ShareAlike 3.0 Germany","url":"http://creativecommons.org/licenses/by-sa/3.0/de/deed.en","text":"The MIDI, audio (MP3, OGG) and video files of Bernd Krueger are licensed under the cc-by-sa Germany License. This means that you can use and adapt the files, as long as you attribute the copyright holder.\n\nName: Bernd Krueger\nSource: http://www.piano-midi.de\n\nThe distribution or public playback of the files is only allowed under identical license conditions.\n\nThe scores are open source.","attribution":"MIDI files by Bernd Krueger (piano-midi.de)"}}