{"title":"Prelude No. 12, Opus 28","artist":"Chopin","durationMs":56471,"midiSha256":"b56c0e439e5ed044c0f5777873d01e612de4e6165dc438efa466a0f8afaf000f","midiObject":[{"NoteNumber":63,"Velocity":56,"Duration":115794,"SoundDuration":115794,"Delta":0},{"NoteNumber":59,"Velocity":48,"Duration":172726,"SoundDuration":172726,"Delta":0},{"NoteNumber":56,"Velocity":54,"Duration":172726,"SoundDuration":172726,"Delta":0},{"NoteNumber":51,"Velocity":45,"Duration":172726,"SoundDuration":172726,"Delta":0},{"NoteNumber":44,"Velocity":45,"Duration":172726,"SoundDuration":172726,"Delta":0},{"NoteNumber":64,"Velocity":42,"Duration":57897,"SoundDuration":57897,"Delta":114830},{"NoteNumber":59,"Velocity":43,"Duration":169529,"SoundDuration":169529,"Delta":230624},{"NoteNumber":64,"Velocity":51,"Duration":113019,"SoundDuration":113019,"Delta":230624},{"NoteNumber":44,"Velocity":36,"Duration":56509,"SoundDuration":56509,"Delta":230624},{"NoteNumber":32,"Velocity":30,"Duration":56509,"SoundDuration":56509,"Delta":230624},{"NoteNumber":65,"Velocity":43,"Duration":56509,"SoundDuration":56509,"Delta":343644},{"NoteNumber":59,"Velocity":44,"Duration":169989,"SoundDuration":169989,"Delta":456664},{"NoteNumber":63,"Velocity":44,"Duration":169989,"SoundDuration":169989,"Delta":456664},{"NoteNumber":65,"Velocity":52,"Duration":113019,"SoundDuration":113019,"Delta":456664},{"NoteNumber":39,"Velocity":30,"Duration":56509,"SoundDuration":56509,"Delta":456664},{"NoteNumber":51,"Velocity":36,"Duration":56509,"SoundDuration":56509,"Delta":456664},{"NoteNumber":66,"Velocity":44,"Duration":56969,"SoundDuration":56969,"Delta":569684},{"NoteNumber":59,"Velocity":44,"Duration":168880,"SoundDuration":168880,"Delta":683622},{"NoteNumber":63,"Velocity":44,"Duration":168880,"SoundDuration":168880,"Delta":683622},{"NoteNumber":66,"Velocity":53,"Duration":112587,"SoundDuration":112587,"Delta":683622},{"NoteNumber":51,"Velocity":37,"Duration":168880,"SoundDuration":168880,"Delta":683622},{"NoteNumber":44,"Velocity":37,"Duration":168880,"SoundDuration":168880,"Delta":683622},{"NoteNumber":56,"Velocity":44,"Duration":168880,"SoundDuration":168880,"Delta":683622},{"NoteNumber":67,"Velocity":46,"Duration":56293,"SoundDuration":56293,"Delta":796210},{"NoteNumber":59,"Velocity":47,"Duration":168880,"SoundDuration":168880,"Delta":908797},{"NoteNumber":63,"Velocity":47,"Duration":168880,"SoundDuration":168880,"Delta":908797},{"NoteNumber":67,"Velocity":56,"Duration":112587,"SoundDuration":112587,"Delta":908797},{"NoteNumber":32,"Velocity":32,"Duration":56293,"SoundDuration":56293,"Delta":908797},{"NoteNumber":44,"Velocity":39,"Duration":56293,"SoundDuration":56293,"Delta":908797},{"NoteNumber":68,"Velocity":47,"Duration":56293,"SoundDuration":56293,"Delta":1021384},{"NoteNumber":59,"Velocity":48,"Duration":171598,"SoundDuration":171598,"Delta":1133971},{"NoteNumber":63,"Velocity":48,"Duration":171598,"SoundDuration":171598,"Delta":1133971},{"NoteNumber":68,"Velocity":57,"Duration":114398,"SoundDuration":114398,"Delta":1133971},{"NoteNumber":39,"Velocity":33,"Duration":57199,"SoundDuration":57199,"Delta":1133971},{"NoteNumber":51,"Velocity":40,"Duration":57199,"SoundDuration":57199,"Delta":1133971},{"NoteNumber":69,"Velocity":48,"Duration":57199,"SoundDuration":57199,"Delta":1248370},{"NoteNumber":63,"Velocity":50,"Duration":168880,"SoundDuration":168880,"Delta":1362769},{"NoteNumber":69,"Velocity":59,"Duration":112587,"SoundDuration":112587,"Delta":1362769},{"NoteNumber":59,"Velocity":49,"Duration":168880,"SoundDuration":168880,"Delta":1362769},{"NoteNumber":51,"Velocity":41,"Duration":168880,"SoundDuration":168880,"Delta":1362769},{"NoteNumber":56,"Velocity":41,"Duration":168880,"SoundDuration":168880,"Delta":1362769},{"NoteNumber":70,"Velocity":52,"Duration":56293,"SoundDuration":56293,"Delta":1475357},{"NoteNumber":63,"Velocity":52,"Duration":168880,"SoundDuration":168880,"Delta":1587944},{"NoteNumber":70,"Velocity":61,"Duration":112587,"SoundDuration":112587,"Delta":1587944},{"NoteNumber":32,"Velocity":36,"Duration":56293,"SoundDuration":56293,"Delta":1587944},{"NoteNumber":44,"Velocity":43,"Duration":56293,"SoundDuration":56293,"Delta":1587944},{"NoteNumber":71,"Velocity":54,"Duration":56293,"SoundDuration":56293,"Delta":1700531},{"NoteNumber":63,"Velocity":55,"Duration":168880,"SoundDuration":168880,"Delta":1813118},{"NoteNumber":68,"Velocity":66,"Duration":168880,"SoundDuration":168880,"Delta":1813118},{"NoteNumber":71,"Velocity":66,"Duration":112587,"SoundDuration":112587,"Delta":1813118},{"NoteNumber":39,"Velocity":38,"Duration":56293,"SoundDuration":56293,"Delta":1813118},{"NoteNumber":51,"Velocity":46,"Duration":56293,"SoundDuration":56293,"Delta":1813118},{"NoteNumber":72,"Velocity":56,"Duration":56293,"SoundDuration":56293,"Delta":1925706},{"NoteNumber":68,"Velocity":58,"Duration":168211,"SoundDuration":168211,"Delta":2038293},{"NoteNumber":63,"Velocity":58,"Duration":168211,"SoundDuration":168211,"Delta":2038293},{"NoteNumber":72,"Velocity":69,"Duration":112141,"SoundDuration":112141,"Delta":2038293},{"NoteNumber":59,"Velocity":57,"Duration":168211,"SoundDuration":168211,"Delta":2038293},{"NoteNumber":51,"Velocity":48,"Duration":168211,"SoundDuration":168211,"Delta":2038293},{"NoteNumber":56,"Velocity":48,"Duration":168211,"SoundDuration":168211,"Delta":2038293},{"NoteNumber":73,"Velocity":59,"Duration":56070,"SoundDuration":56070,"Delta":2150434},{"NoteNumber":63,"Velocity":61,"Duration":166462,"SoundDuration":166462,"Delta":2261995},{"NoteNumber":68,"Velocity":61,"Duration":166462,"SoundDuration":166462,"Delta":2261995},{"NoteNumber":73,"Velocity":71,"Duration":110833,"SoundDuration":110833,"Delta":2261995},{"NoteNumber":32,"Velocity":41,"Duration":55273,"SoundDuration":55273,"Delta":2261995},{"NoteNumber":44,"Velocity":50,"Duration":55273,"SoundDuration":55273,"Delta":2261995},{"NoteNumber":74,"Velocity":62,"Duration":55629,"SoundDuration":55629,"Delta":2372828},{"NoteNumber":63,"Velocity":62,"Duration":174348,"SoundDuration":174348,"Delta":2484088},{"NoteNumber":68,"Velocity":62,"Duration":174348,"SoundDuration":174348,"Delta":2484088},{"NoteNumber":74,"Velocity":75,"Duration":113481,"SoundDuration":113481,"Delta":2484088},{"NoteNumber":51,"Velocity":51,"Duration":56740,"SoundDuration":56740,"Delta":2484088},{"NoteNumber":39,"Velocity":44,"Duration":56740,"SoundDuration":56740,"Delta":2484088},{"NoteNumber":75,"Velocity":66,"Duration":60866,"SoundDuration":60866,"Delta":2597569},{"NoteNumber":63,"Velocity":68,"Duration":168439,"SoundDuration":168439,"Delta":2719303},{"NoteNumber":70,"Velocity":68,"Duration":168439,"SoundDuration":168439,"Delta":2719303},{"NoteNumber":75,"Velocity":81,"Duration":111698,"SoundDuration":111698,"Delta":2719303},{"NoteNumber":51,"Velocity":47,"Duration":55849,"SoundDuration":55849,"Delta":2719303},{"NoteNumber":58,"Velocity":56,"Duration":55849,"SoundDuration":55849,"Delta":2719303},{"NoteNumber":76,"Velocity":77,"Duration":56740,"SoundDuration":56740,"Delta":2831001},{"NoteNumber":70,"Velocity":69,"Duration":164956,"SoundDuration":164956,"Delta":2944483},{"NoteNumber":76,"Velocity":82,"Duration":109970,"SoundDuration":109970,"Delta":2944483},{"NoteNumber":43,"Velocity":48,"Duration":54985,"SoundDuration":54985,"Delta":2944483},{"NoteNumber":51,"Velocity":57,"Duration":54985,"SoundDuration":54985,"Delta":2944483},{"NoteNumber":75,"Velocity":78,"Duration":54985,"SoundDuration":54985,"Delta":3054453},{"NoteNumber":63,"Velocity":70,"Duration":169529,"SoundDuration":169529,"Delta":3164424},{"NoteNumber":70,"Velocity":70,"Duration":169529,"SoundDuration":169529,"Delta":3164424},{"NoteNumber":75,"Velocity":84,"Duration":113020,"SoundDuration":113020,"Delta":3164424},{"NoteNumber":51,"Velocity":50,"Duration":56509,"SoundDuration":56509,"Delta":3164424},{"NoteNumber":58,"Velocity":59,"Duration":56509,"SoundDuration":56509,"Delta":3164424},{"NoteNumber":73,"Velocity":84,"Duration":56509,"SoundDuration":56509,"Delta":3277444},{"NoteNumber":63,"Velocity":69,"Duration":170907,"SoundDuration":170907,"Delta":3390464},{"NoteNumber":68,"Velocity":69,"Duration":170907,"SoundDuration":170907,"Delta":3390464},{"NoteNumber":73,"Velocity":82,"Duration":113938,"SoundDuration":113938,"Delta":3390464},{"NoteNumber":44,"Velocity":47,"Duration":56969,"SoundDuration":56969,"Delta":3390464},{"NoteNumber":51,"Velocity":56,"Duration":56969,"SoundDuration":56969,"Delta":3390464},{"NoteNumber":71,"Velocity":79,"Duration":56969,"SoundDuration":56969,"Delta":3504403},{"NoteNumber":63,"Velocity":70,"Duration":168211,"SoundDuration":168211,"Delta":3618341},{"NoteNumber":68,"Velocity":70,"Duration":168211,"SoundDuration":168211,"Delta":3618341},{"NoteNumber":71,"Velocity":83,"Duration":112141,"SoundDuration":112141,"Delta":3618341},{"NoteNumber":59,"Velocity":57,"Duration":56070,"SoundDuration":56070,"Delta":3618341},{"NoteNumber":51,"Velocity":48,"Duration":56070,"SoundDuration":56070,"Delta":3618341},{"NoteNumber":73,"Velocity":79,"Duration":56070,"SoundDuration":56070,"Delta":3730482},{"NoteNumber":63,"Velocity":72,"Duration":168211,"SoundDuration":168211,"Delta":3842624},{"NoteNumber":68,"Velocity":72,"Duration":168211,"SoundDuration":168211,"Delta":3842624},{"NoteNumber":73,"Velocity":85,"Duration":112141,"SoundDuration":112141,"Delta":3842624},{"NoteNumber":44,"Velocity":50,"Duration":56070,"SoundDuration":56070,"Delta":3842624},{"NoteNumber":51,"Velocity":59,"Duration":56070,"SoundDuration":56070,"Delta":3842624},{"NoteNumber":75,"Velocity":86,"Duration":56070,"SoundDuration":56070,"Delta":3954765},{"NoteNumber":64,"Velocity":73,"Duration":169529,"SoundDuration":169529,"Delta":4066906},{"NoteNumber":68,"Velocity":73,"Duration":169529,"SoundDuration":169529,"Delta":4066906},{"NoteNumber":75,"Velocity":87,"Duration":113019,"SoundDuration":113019,"Delta":4066906},{"NoteNumber":56,"Velocity":60,"Duration":56510,"SoundDuration":56510,"Delta":4066906},{"NoteNumber":49,"Velocity":50,"Duration":56510,"SoundDuration":56510,"Delta":4066906},{"NoteNumber":73,"Velocity":86,"Duration":56510,"SoundDuration":56510,"Delta":4179926},{"NoteNumber":64,"Velocity":71,"Duration":169529,"SoundDuration":169529,"Delta":4292946},{"NoteNumber":68,"Velocity":71,"Duration":169529,"SoundDuration":169529,"Delta":4292946},{"NoteNumber":73,"Velocity":84,"Duration":113019,"SoundDuration":113019,"Delta":4292946},{"NoteNumber":37,"Velocity":49,"Duration":56509,"SoundDuration":56509,"Delta":4292946},{"NoteNumber":49,"Velocity":58,"Duration":56509,"SoundDuration":56509,"Delta":4292946},{"NoteNumber":71,"Velocity":83,"Duration":56510,"SoundDuration":56510,"Delta":4405966},{"NoteNumber":61,"Velocity":68,"Duration":173691,"SoundDuration":173691,"Delta":4518986},{"NoteNumber":64,"Velocity":68,"Duration":173691,"SoundDuration":173691,"Delta":4518986},{"NoteNumber":71,"Velocity":81,"Duration":115794,"SoundDuration":115794,"Delta":4518986},{"NoteNumber":49,"Velocity":47,"Duration":57897,"SoundDuration":57897,"Delta":4518986},{"NoteNumber":56,"Velocity":56,"Duration":57897,"SoundDuration":57897,"Delta":4518986},{"NoteNumber":70,"Velocity":80,"Duration":57897,"SoundDuration":57897,"Delta":4634780},{"NoteNumber":61,"Velocity":79,"Duration":228644,"SoundDuration":228644,"Delta":4750575},{"NoteNumber":51,"Velocity":42,"Duration":57199,"SoundDuration":57199,"Delta":4750575},{"NoteNumber":55,"Velocity":51,"Duration":57199,"SoundDuration":57199,"Delta":4750575},{"NoteNumber":71,"Velocity":69,"Duration":114245,"SoundDuration":114245,"Delta":4864974},{"NoteNumber":71,"Velocity":66,"Duration":114245,"SoundDuration":114245,"Delta":4979219},{"NoteNumber":61,"Velocity":55,"Duration":229406,"SoundDuration":229406,"Delta":4979219},{"NoteNumber":39,"Velocity":38,"Duration":57046,"SoundDuration":57046,"Delta":4979219},{"NoteNumber":51,"Velocity":46,"Duration":57046,"SoundDuration":57046,"Delta":4979219},{"NoteNumber":70,"Velocity":62,"Duration":115160,"SoundDuration":115160,"Delta":5093465},{"NoteNumber":70,"Velocity":57,"Duration":118959,"SoundDuration":118959,"Delta":5208625},{"NoteNumber":61,"Velocity":48,"Duration":242896,"SoundDuration":242896,"Delta":5208625},{"NoteNumber":51,"Velocity":34,"Duration":58608,"SoundDuration":58608,"Delta":5208625},{"NoteNumber":55,"Velocity":40,"Duration":58608,"SoundDuration":58608,"Delta":5208625},{"NoteNumber":63,"Velocity":54,"Duration":123937,"SoundDuration":123937,"Delta":5327584},{"NoteNumber":59,"Velocity":45,"Duration":173691,"SoundDuration":173691,"Delta":5451522},{"NoteNumber":63,"Velocity":53,"Duration":115794,"SoundDuration":115794,"Delta":5451522},{"NoteNumber":44,"Velocity":37,"Duration":173691,"SoundDuration":173691,"Delta":5451522},{"NoteNumber":51,"Velocity":37,"Duration":173691,"SoundDuration":173691,"Delta":5451522},{"NoteNumber":56,"Velocity":45,"Duration":173691,"SoundDuration":173691,"Delta":5451522},{"NoteNumber":64,"Velocity":45,"Duration":57897,"SoundDuration":57897,"Delta":5567316},{"NoteNumber":59,"Velocity":45,"Duration":170907,"SoundDuration":170907,"Delta":5683110},{"NoteNumber":64,"Velocity":54,"Duration":113938,"SoundDuration":113938,"Delta":5683110},{"NoteNumber":32,"Velocity":31,"Duration":56969,"SoundDuration":56969,"Delta":5683110},{"NoteNumber":44,"Velocity":37,"Duration":56969,"SoundDuration":56969,"Delta":5683110},{"NoteNumber":65,"Velocity":45,"Duration":56969,"SoundDuration":56969,"Delta":5797049},{"NoteNumber":59,"Velocity":46,"Duration":173700,"SoundDuration":173700,"Delta":5910987},{"NoteNumber":63,"Velocity":46,"Duration":173700,"SoundDuration":173700,"Delta":5910987},{"NoteNumber":65,"Velocity":55,"Duration":116731,"SoundDuration":116731,"Delta":5910987},{"NoteNumber":39,"Velocity":32,"Duration":58365,"SoundDuration":58365,"Delta":5910987},{"NoteNumber":51,"Velocity":39,"Duration":58365,"SoundDuration":58365,"Delta":5910987},{"NoteNumber":66,"Velocity":47,"Duration":56969,"SoundDuration":56969,"Delta":6027719},{"NoteNumber":59,"Velocity":47,"Duration":168880,"SoundDuration":168880,"Delta":6141657},{"NoteNumber":63,"Velocity":47,"Duration":168880,"SoundDuration":168880,"Delta":6141657},{"NoteNumber":66,"Velocity":57,"Duration":112587,"SoundDuration":112587,"Delta":6141657},{"NoteNumber":44,"Velocity":39,"Duration":168880,"SoundDuration":168880,"Delta":6141657},{"NoteNumber":51,"Velocity":39,"Duration":168880,"SoundDuration":168880,"Delta":6141657},{"NoteNumber":56,"Velocity":47,"Duration":168880,"SoundDuration":168880,"Delta":6141657},{"NoteNumber":67,"Velocity":48,"Duration":56293,"SoundDuration":56293,"Delta":6254244},{"NoteNumber":59,"Velocity":49,"Duration":168880,"SoundDuration":168880,"Delta":6366832},{"NoteNumber":63,"Velocity":49,"Duration":168880,"SoundDuration":168880,"Delta":6366832},{"NoteNumber":67,"Velocity":58,"Duration":112587,"SoundDuration":112587,"Delta":6366832},{"NoteNumber":44,"Velocity":41,"Duration":56293,"SoundDuration":56293,"Delta":6366832},{"NoteNumber":32,"Velocity":34,"Duration":56293,"SoundDuration":56293,"Delta":6366832},{"NoteNumber":68,"Velocity":50,"Duration":56293,"SoundDuration":56293,"Delta":6479419},{"NoteNumber":59,"Velocity":50,"Duration":171598,"SoundDuration":171598,"Delta":6592006},{"NoteNumber":63,"Velocity":50,"Duration":171598,"SoundDuration":171598,"Delta":6592006},{"NoteNumber":68,"Velocity":60,"Duration":114398,"SoundDuration":114398,"Delta":6592006},{"NoteNumber":39,"Velocity":34,"Duration":57199,"SoundDuration":57199,"Delta":6592006},{"NoteNumber":51,"Velocity":41,"Duration":57199,"SoundDuration":57199,"Delta":6592006},{"NoteNumber":69,"Velocity":50,"Duration":57199,"SoundDuration":57199,"Delta":6706405},{"NoteNumber":59,"Velocity":52,"Duration":168880,"SoundDuration":168880,"Delta":6820804},{"NoteNumber":64,"Velocity":52,"Duration":168880,"SoundDuration":168880,"Delta":6820804},{"NoteNumber":69,"Velocity":62,"Duration":112587,"SoundDuration":112587,"Delta":6820804},{"NoteNumber":43,"Velocity":43,"Duration":168880,"SoundDuration":168880,"Delta":6820804},{"NoteNumber":52,"Velocity":43,"Duration":168880,"SoundDuration":168880,"Delta":6820804},{"NoteNumber":55,"Velocity":51,"Duration":168880,"SoundDuration":168880,"Delta":6820804},{"NoteNumber":70,"Velocity":54,"Duration":56293,"SoundDuration":56293,"Delta":6933391},{"NoteNumber":59,"Velocity":54,"Duration":168880,"SoundDuration":168880,"Delta":7045979},{"NoteNumber":64,"Velocity":54,"Duration":168880,"SoundDuration":168880,"Delta":7045979},{"NoteNumber":70,"Velocity":64,"Duration":112587,"SoundDuration":112587,"Delta":7045979},{"NoteNumber":43,"Velocity":45,"Duration":56293,"SoundDuration":56293,"Delta":7045979},{"NoteNumber":31,"Velocity":38,"Duration":56293,"SoundDuration":56293,"Delta":7045979},{"NoteNumber":71,"Velocity":56,"Duration":56293,"SoundDuration":56293,"Delta":7158566},{"NoteNumber":59,"Velocity":57,"Duration":168880,"SoundDuration":168880,"Delta":7271153},{"NoteNumber":64,"Velocity":68,"Duration":168880,"SoundDuration":168880,"Delta":7271153},{"NoteNumber":71,"Velocity":68,"Duration":112587,"SoundDuration":112587,"Delta":7271153},{"NoteNumber":40,"Velocity":40,"Duration":56293,"SoundDuration":56293,"Delta":7271153},{"NoteNumber":52,"Velocity":47,"Duration":56293,"SoundDuration":56293,"Delta":7271153},{"NoteNumber":72,"Velocity":59,"Duration":56293,"SoundDuration":56293,"Delta":7383740},{"NoteNumber":65,"Velocity":62,"Duration":168211,"SoundDuration":168211,"Delta":7496328},{"NoteNumber":72,"Velocity":73,"Duration":112141,"SoundDuration":112141,"Delta":7496328},{"NoteNumber":55,"Velocity":52,"Duration":168211,"SoundDuration":168211,"Delta":7496328},{"NoteNumber":50,"Velocity":52,"Duration":168211,"SoundDuration":168211,"Delta":7496328},{"NoteNumber":59,"Velocity":61,"Duration":168211,"SoundDuration":168211,"Delta":7496328},{"NoteNumber":73,"Velocity":69,"Duration":56070,"SoundDuration":56070,"Delta":7608469},{"NoteNumber":65,"Velocity":64,"Duration":166462,"SoundDuration":166462,"Delta":7720030},{"NoteNumber":73,"Velocity":76,"Duration":110833,"SoundDuration":110833,"Delta":7720030},{"NoteNumber":31,"Velocity":44,"Duration":55273,"SoundDuration":55273,"Delta":7720030},{"NoteNumber":43,"Velocity":53,"Duration":55273,"SoundDuration":55273,"Delta":7720030},{"NoteNumber":74,"Velocity":71,"Duration":55629,"SoundDuration":55629,"Delta":7830863},{"NoteNumber":65,"Velocity":66,"Duration":172623,"SoundDuration":172623,"Delta":7942122},{"NoteNumber":71,"Velocity":80,"Duration":172623,"SoundDuration":172623,"Delta":7942122},{"NoteNumber":43,"Velocity":47,"Duration":56740,"SoundDuration":56740,"Delta":7942122},{"NoteNumber":55,"Velocity":55,"Duration":56740,"SoundDuration":56740,"Delta":7942122},{"NoteNumber":74,"Velocity":75,"Duration":59142,"SoundDuration":59142,"Delta":8055604},{"NoteNumber":66,"Velocity":76,"Duration":170038,"SoundDuration":170038,"Delta":8175089},{"NoteNumber":71,"Velocity":76,"Duration":170038,"SoundDuration":170038,"Delta":8175089},{"NoteNumber":75,"Velocity":90,"Duration":112141,"SoundDuration":112141,"Delta":8175089},{"NoteNumber":54,"Velocity":61,"Duration":56070,"SoundDuration":56070,"Delta":8175089},{"NoteNumber":42,"Velocity":51,"Duration":56070,"SoundDuration":56070,"Delta":8175089},{"NoteNumber":76,"Velocity":85,"Duration":57897,"SoundDuration":57897,"Delta":8287230},{"NoteNumber":66,"Velocity":75,"Duration":169529,"SoundDuration":169529,"Delta":8403024},{"NoteNumber":71,"Velocity":75,"Duration":169529,"SoundDuration":169529,"Delta":8403024},{"NoteNumber":76,"Velocity":89,"Duration":113020,"SoundDuration":113020,"Delta":8403024},{"NoteNumber":54,"Velocity":50,"Duration":56509,"SoundDuration":56509,"Delta":8403024},{"NoteNumber":63,"Velocity":60,"Duration":56509,"SoundDuration":56509,"Delta":8403024},{"NoteNumber":75,"Velocity":87,"Duration":56509,"SoundDuration":56509,"Delta":8516044},{"NoteNumber":66,"Velocity":76,"Duration":169529,"SoundDuration":169529,"Delta":8629064},{"NoteNumber":71,"Velocity":76,"Duration":169529,"SoundDuration":169529,"Delta":8629064},{"NoteNumber":75,"Velocity":90,"Duration":113020,"SoundDuration":113020,"Delta":8629064},{"NoteNumber":54,"Velocity":61,"Duration":56509,"SoundDuration":56509,"Delta":8629064},{"NoteNumber":42,"Velocity":51,"Duration":56509,"SoundDuration":56509,"Delta":8629064},{"NoteNumber":78,"Velocity":88,"Duration":56509,"SoundDuration":56509,"Delta":8742084},{"NoteNumber":66,"Velocity":76,"Duration":166889,"SoundDuration":166889,"Delta":8855104},{"NoteNumber":70,"Velocity":76,"Duration":166889,"SoundDuration":166889,"Delta":8855104},{"NoteNumber":78,"Velocity":90,"Duration":111259,"SoundDuration":111259,"Delta":8855104},{"NoteNumber":54,"Velocity":51,"Duration":55629,"SoundDuration":55629,"Delta":8855104},{"NoteNumber":64,"Velocity":61,"Duration":55629,"SoundDuration":55629,"Delta":8855104},{"NoteNumber":73,"Velocity":85,"Duration":55629,"SoundDuration":55629,"Delta":8966364},{"NoteNumber":66,"Velocity":75,"Duration":164956,"SoundDuration":164956,"Delta":9077623},{"NoteNumber":70,"Velocity":75,"Duration":164956,"SoundDuration":164956,"Delta":9077623},{"NoteNumber":73,"Velocity":89,"Duration":109970,"SoundDuration":109970,"Delta":9077623},{"NoteNumber":42,"Velocity":50,"Duration":54985,"SoundDuration":54985,"Delta":9077623},{"NoteNumber":54,"Velocity":60,"Duration":54985,"SoundDuration":54985,"Delta":9077623},{"NoteNumber":75,"Velocity":87,"Duration":54985,"SoundDuration":54985,"Delta":9187594},{"NoteNumber":66,"Velocity":76,"Duration":169529,"SoundDuration":169529,"Delta":9297565},{"NoteNumber":70,"Velocity":76,"Duration":169529,"SoundDuration":169529,"Delta":9297565},{"NoteNumber":75,"Velocity":90,"Duration":113020,"SoundDuration":113020,"Delta":9297565},{"NoteNumber":54,"Velocity":51,"Duration":56509,"SoundDuration":56509,"Delta":9297565},{"NoteNumber":64,"Velocity":61,"Duration":56509,"SoundDuration":56509,"Delta":9297565},{"NoteNumber":76,"Velocity":88,"Duration":56509,"SoundDuration":56509,"Delta":9410585},{"NoteNumber":66,"Velocity":68,"Duration":166889,"SoundDuration":166889,"Delta":9523605},{"NoteNumber":71,"Velocity":68,"Duration":166889,"SoundDuration":166889,"Delta":9523605},{"NoteNumber":76,"Velocity":81,"Duration":111259,"SoundDuration":111259,"Delta":9523605},{"NoteNumber":42,"Velocity":45,"Duration":55629,"SoundDuration":55629,"Delta":9523605},{"NoteNumber":54,"Velocity":54,"Duration":55629,"SoundDuration":55629,"Delta":9523605},{"NoteNumber":75,"Velocity":75,"Duration":55629,"SoundDuration":55629,"Delta":9634864},{"NoteNumber":66,"Velocity":66,"Duration":166889,"SoundDuration":166889,"Delta":9746124},{"NoteNumber":71,"Velocity":66,"Duration":166889,"SoundDuration":166889,"Delta":9746124},{"NoteNumber":75,"Velocity":78,"Duration":111259,"SoundDuration":111259,"Delta":9746124},{"NoteNumber":54,"Velocity":44,"Duration":55629,"SoundDuration":55629,"Delta":9746124},{"NoteNumber":63,"Velocity":52,"Duration":55629,"SoundDuration":55629,"Delta":9746124},{"NoteNumber":80,"Velocity":75,"Duration":55629,"SoundDuration":55629,"Delta":9857383},{"NoteNumber":66,"Velocity":64,"Duration":169529,"SoundDuration":169529,"Delta":9968643},{"NoteNumber":80,"Velocity":76,"Duration":113020,"SoundDuration":113020,"Delta":9968643},{"NoteNumber":42,"Velocity":43,"Duration":56509,"SoundDuration":56509,"Delta":9968643},{"NoteNumber":54,"Velocity":51,"Duration":56509,"SoundDuration":56509,"Delta":9968643},{"NoteNumber":78,"Velocity":73,"Duration":56509,"SoundDuration":56509,"Delta":10081663},{"NoteNumber":66,"Velocity":63,"Duration":166260,"SoundDuration":166260,"Delta":10194683},{"NoteNumber":70,"Velocity":63,"Duration":166260,"SoundDuration":166260,"Delta":10194683},{"NoteNumber":78,"Velocity":74,"Duration":110840,"SoundDuration":110840,"Delta":10194683},{"NoteNumber":64,"Velocity":50,"Duration":55420,"SoundDuration":55420,"Delta":10194683},{"NoteNumber":54,"Velocity":42,"Duration":55420,"SoundDuration":55420,"Delta":10194683},{"NoteNumber":73,"Velocity":69,"Duration":55420,"SoundDuration":55420,"Delta":10305523},{"NoteNumber":64,"Velocity":60,"Duration":166260,"SoundDuration":166260,"Delta":10416363},{"NoteNumber":70,"Velocity":60,"Duration":166260,"SoundDuration":166260,"Delta":10416363},{"NoteNumber":73,"Velocity":71,"Duration":110840,"SoundDuration":110840,"Delta":10416363},{"NoteNumber":42,"Velocity":40,"Duration":55420,"SoundDuration":55420,"Delta":10416363},{"NoteNumber":54,"Velocity":47,"Duration":55420,"SoundDuration":55420,"Delta":10416363},{"NoteNumber":75,"Velocity":68,"Duration":55420,"SoundDuration":55420,"Delta":10527203},{"NoteNumber":64,"Velocity":59,"Duration":169529,"SoundDuration":169529,"Delta":10638044},{"NoteNumber":70,"Velocity":59,"Duration":169529,"SoundDuration":169529,"Delta":10638044},{"NoteNumber":75,"Velocity":70,"Duration":113020,"SoundDuration":113020,"Delta":10638044},{"NoteNumber":61,"Velocity":47,"Duration":56509,"SoundDuration":56509,"Delta":10638044},{"NoteNumber":54,"Velocity":40,"Duration":56509,"SoundDuration":56509,"Delta":10638044},{"NoteNumber":76,"Velocity":67,"Duration":56509,"SoundDuration":56509,"Delta":10751064},{"NoteNumber":63,"Velocity":60,"Duration":166480,"SoundDuration":166480,"Delta":10864084},{"NoteNumber":71,"Velocity":60,"Duration":166480,"SoundDuration":166480,"Delta":10864084},{"NoteNumber":76,"Velocity":72,"Duration":109970,"SoundDuration":109970,"Delta":10864084},{"NoteNumber":47,"Velocity":40,"Duration":54985,"SoundDuration":54985,"Delta":10864084},{"NoteNumber":54,"Velocity":48,"Duration":54985,"SoundDuration":54985,"Delta":10864084},{"NoteNumber":75,"Velocity":68,"Duration":56509,"SoundDuration":56509,"Delta":10974054},{"NoteNumber":63,"Velocity":61,"Duration":164329,"SoundDuration":164329,"Delta":11087074},{"NoteNumber":75,"Velocity":72,"Duration":109553,"SoundDuration":109553,"Delta":11087074},{"NoteNumber":47,"Velocity":40,"Duration":54776,"SoundDuration":54776,"Delta":11087074},{"NoteNumber":54,"Velocity":40,"Duration":54776,"SoundDuration":54776,"Delta":11087074},{"NoteNumber":59,"Velocity":48,"Duration":54776,"SoundDuration":54776,"Delta":11087074},{"NoteNumber":71,"Velocity":72,"Duration":54776,"SoundDuration":54776,"Delta":11196627},{"NoteNumber":64,"Velocity":64,"Duration":168211,"SoundDuration":168211,"Delta":11306180},{"NoteNumber":71,"Velocity":76,"Duration":112141,"SoundDuration":112141,"Delta":11306180},{"NoteNumber":59,"Velocity":51,"Duration":56070,"SoundDuration":56070,"Delta":11306180},{"NoteNumber":47,"Velocity":43,"Duration":56070,"SoundDuration":56070,"Delta":11306180},{"NoteNumber":55,"Velocity":43,"Duration":56070,"SoundDuration":56070,"Delta":11306180},{"NoteNumber":67,"Velocity":75,"Duration":56070,"SoundDuration":56070,"Delta":11418322},{"NoteNumber":63,"Velocity":66,"Duration":172281,"SoundDuration":172281,"Delta":11530463},{"NoteNumber":67,"Velocity":78,"Duration":114854,"SoundDuration":114854,"Delta":11530463},{"NoteNumber":59,"Velocity":53,"Duration":57427,"SoundDuration":57427,"Delta":11530463},{"NoteNumber":47,"Velocity":45,"Duration":57427,"SoundDuration":57427,"Delta":11530463},{"NoteNumber":54,"Velocity":45,"Duration":57427,"SoundDuration":57427,"Delta":11530463},{"NoteNumber":66,"Velocity":74,"Duration":57427,"SoundDuration":57427,"Delta":11645317},{"NoteNumber":63,"Velocity":67,"Duration":166889,"SoundDuration":166889,"Delta":11760172},{"NoteNumber":66,"Velocity":80,"Duration":111259,"SoundDuration":111259,"Delta":11760172},{"NoteNumber":47,"Velocity":45,"Duration":55629,"SoundDuration":55629,"Delta":11760172},{"NoteNumber":54,"Velocity":45,"Duration":55629,"SoundDuration":55629,"Delta":11760172},{"NoteNumber":59,"Velocity":54,"Duration":55629,"SoundDuration":55629,"Delta":11760172},{"NoteNumber":71,"Velocity":75,"Duration":55629,"SoundDuration":55629,"Delta":11871431},{"NoteNumber":64,"Velocity":69,"Duration":175097,"SoundDuration":175097,"Delta":11982691},{"NoteNumber":71,"Velocity":82,"Duration":116731,"SoundDuration":116731,"Delta":11982691},{"NoteNumber":55,"Velocity":46,"Duration":58365,"SoundDuration":58365,"Delta":11982691},{"NoteNumber":47,"Velocity":46,"Duration":58365,"SoundDuration":58365,"Delta":11982691},{"NoteNumber":59,"Velocity":55,"Duration":58365,"SoundDuration":58365,"Delta":11982691},{"NoteNumber":67,"Velocity":78,"Duration":58365,"SoundDuration":58365,"Delta":12099422},{"NoteNumber":63,"Velocity":72,"Duration":170222,"SoundDuration":170222,"Delta":12216154},{"NoteNumber":66,"Velocity":85,"Duration":113481,"SoundDuration":113481,"Delta":12216154},{"NoteNumber":59,"Velocity":57,"Duration":56740,"SoundDuration":56740,"Delta":12216154},{"NoteNumber":47,"Velocity":48,"Duration":56740,"SoundDuration":56740,"Delta":12216154},{"NoteNumber":54,"Velocity":48,"Duration":56740,"SoundDuration":56740,"Delta":12216154},{"NoteNumber":71,"Velocity":81,"Duration":56740,"SoundDuration":56740,"Delta":12329635},{"NoteNumber":64,"Velocity":72,"Duration":179640,"SoundDuration":179640,"Delta":12443117},{"NoteNumber":71,"Velocity":86,"Duration":119760,"SoundDuration":119760,"Delta":12443117},{"NoteNumber":52,"Velocity":48,"Duration":59880,"SoundDuration":59880,"Delta":12443117},{"NoteNumber":55,"Velocity":48,"Duration":59880,"SoundDuration":59880,"Delta":12443117},{"NoteNumber":59,"Velocity":57,"Duration":59880,"SoundDuration":59880,"Delta":12443117},{"NoteNumber":67,"Velocity":85,"Duration":59880,"SoundDuration":59880,"Delta":12562877},{"NoteNumber":63,"Velocity":76,"Duration":174081,"SoundDuration":174081,"Delta":12682638},{"NoteNumber":66,"Velocity":90,"Duration":116054,"SoundDuration":116054,"Delta":12682638},{"NoteNumber":47,"Velocity":51,"Duration":58027,"SoundDuration":58027,"Delta":12682638},{"NoteNumber":54,"Velocity":51,"Duration":58027,"SoundDuration":58027,"Delta":12682638},{"NoteNumber":59,"Velocity":61,"Duration":58027,"SoundDuration":58027,"Delta":12682638},{"NoteNumber":71,"Velocity":88,"Duration":58027,"SoundDuration":58027,"Delta":12798692},{"NoteNumber":64,"Velocity":77,"Duration":183149,"SoundDuration":183149,"Delta":12914746},{"NoteNumber":71,"Velocity":91,"Duration":122099,"SoundDuration":122099,"Delta":12914746},{"NoteNumber":55,"Velocity":52,"Duration":61049,"SoundDuration":61049,"Delta":12914746},{"NoteNumber":52,"Velocity":52,"Duration":61049,"SoundDuration":61049,"Delta":12914746},{"NoteNumber":59,"Velocity":62,"Duration":61049,"SoundDuration":61049,"Delta":12914746},{"NoteNumber":67,"Velocity":87,"Duration":61049,"SoundDuration":61049,"Delta":13036846},{"NoteNumber":62,"Velocity":78,"Duration":175165,"SoundDuration":175165,"Delta":13158946},{"NoteNumber":66,"Velocity":93,"Duration":116777,"SoundDuration":116777,"Delta":13158946},{"NoteNumber":59,"Velocity":63,"Duration":58388,"SoundDuration":58388,"Delta":13158946},{"NoteNumber":47,"Velocity":53,"Duration":58388,"SoundDuration":58388,"Delta":13158946},{"NoteNumber":54,"Velocity":53,"Duration":58388,"SoundDuration":58388,"Delta":13158946},{"NoteNumber":71,"Velocity":92,"Duration":58388,"SoundDuration":58388,"Delta":13275723},{"NoteNumber":64,"Velocity":81,"Duration":195557,"SoundDuration":195557,"Delta":13392500},{"NoteNumber":71,"Velocity":96,"Duration":125365,"SoundDuration":125365,"Delta":13392500},{"NoteNumber":52,"Velocity":54,"Duration":62682,"SoundDuration":62682,"Delta":13392500},{"NoteNumber":55,"Velocity":54,"Duration":62682,"SoundDuration":62682,"Delta":13392500},{"NoteNumber":59,"Velocity":64,"Duration":62682,"SoundDuration":62682,"Delta":13392500},{"NoteNumber":67,"Velocity":95,"Duration":70191,"SoundDuration":70191,"Delta":13517866},{"NoteNumber":71,"Velocity":92,"Duration":1408235,"SoundDuration":1408235,"Delta":13658250},{"NoteNumber":64,"Velocity":77,"Duration":117444,"SoundDuration":117444,"Delta":13658250},{"NoteNumber":67,"Velocity":92,"Duration":117444,"SoundDuration":117444,"Delta":13658250},{"NoteNumber":47,"Velocity":60,"Duration":234889,"SoundDuration":234889,"Delta":13658250},{"NoteNumber":54,"Velocity":60,"Duration":234889,"SoundDuration":234889,"Delta":13658250},{"NoteNumber":59,"Velocity":72,"Duration":234889,"SoundDuration":234889,"Delta":13658250},{"NoteNumber":62,"Velocity":74,"Duration":117444,"SoundDuration":117444,"Delta":13775694},{"NoteNumber":66,"Velocity":87,"Duration":117444,"SoundDuration":117444,"Delta":13775694},{"NoteNumber":67,"Velocity":72,"Duration":29361,"SoundDuration":29361,"Delta":13863778},{"NoteNumber":62,"Velocity":77,"Duration":114731,"SoundDuration":114731,"Delta":13893139},{"NoteNumber":66,"Velocity":92,"Duration":114731,"SoundDuration":114731,"Delta":13893139},{"NoteNumber":35,"Velocity":56,"Duration":57365,"SoundDuration":57365,"Delta":13893139},{"NoteNumber":47,"Velocity":66,"Duration":57365,"SoundDuration":57365,"Delta":13893139},{"NoteNumber":61,"Velocity":72,"Duration":114731,"SoundDuration":114731,"Delta":14007870},{"NoteNumber":64,"Velocity":85,"Duration":114731,"SoundDuration":114731,"Delta":14007870},{"NoteNumber":62,"Velocity":77,"Duration":237360,"SoundDuration":237360,"Delta":14122602},{"NoteNumber":66,"Velocity":92,"Duration":237360,"SoundDuration":237360,"Delta":14122602},{"NoteNumber":47,"Velocity":56,"Duration":471314,"SoundDuration":471314,"Delta":14122602},{"NoteNumber":54,"Velocity":66,"Duration":237360,"SoundDuration":237360,"Delta":14122602},{"NoteNumber":64,"Velocity":73,"Duration":116977,"SoundDuration":116977,"Delta":14359962},{"NoteNumber":67,"Velocity":87,"Duration":116977,"SoundDuration":116977,"Delta":14359962},{"NoteNumber":59,"Velocity":68,"Duration":233954,"SoundDuration":233954,"Delta":14359962},{"NoteNumber":54,"Velocity":57,"Duration":233954,"SoundDuration":233954,"Delta":14359962},{"NoteNumber":62,"Velocity":70,"Duration":116977,"SoundDuration":116977,"Delta":14476940},{"NoteNumber":66,"Velocity":82,"Duration":116977,"SoundDuration":116977,"Delta":14476940},{"NoteNumber":67,"Velocity":71,"Duration":29244,"SoundDuration":29244,"Delta":14564673},{"NoteNumber":62,"Velocity":73,"Duration":113851,"SoundDuration":113851,"Delta":14593917},{"NoteNumber":66,"Velocity":87,"Duration":113851,"SoundDuration":113851,"Delta":14593917},{"NoteNumber":35,"Velocity":53,"Duration":56926,"SoundDuration":56926,"Delta":14593917},{"NoteNumber":47,"Velocity":62,"Duration":56926,"SoundDuration":56926,"Delta":14593917},{"NoteNumber":61,"Velocity":68,"Duration":113851,"SoundDuration":113851,"Delta":14707769},{"NoteNumber":64,"Velocity":80,"Duration":113851,"SoundDuration":113851,"Delta":14707769},{"NoteNumber":62,"Velocity":73,"Duration":244864,"SoundDuration":244864,"Delta":14821621},{"NoteNumber":66,"Velocity":87,"Duration":244864,"SoundDuration":244864,"Delta":14821621},{"NoteNumber":54,"Velocity":62,"Duration":244864,"SoundDuration":244864,"Delta":14821621},{"NoteNumber":47,"Velocity":53,"Duration":244864,"SoundDuration":244864,"Delta":14821621},{"NoteNumber":62,"Velocity":61,"Duration":115794,"SoundDuration":115794,"Delta":15066485},{"NoteNumber":68,"Velocity":61,"Duration":173691,"SoundDuration":173691,"Delta":15066485},{"NoteNumber":71,"Velocity":72,"Duration":115794,"SoundDuration":115794,"Delta":15066485},{"NoteNumber":52,"Velocity":54,"Duration":115794,"SoundDuration":115794,"Delta":15066485},{"NoteNumber":59,"Velocity":64,"Duration":115794,"SoundDuration":115794,"Delta":15066485},{"NoteNumber":64,"Velocity":61,"Duration":57897,"SoundDuration":57897,"Delta":15182279},{"NoteNumber":72,"Velocity":72,"Duration":57897,"SoundDuration":57897,"Delta":15182279},{"NoteNumber":68,"Velocity":61,"Duration":171598,"SoundDuration":171598,"Delta":15298074},{"NoteNumber":64,"Velocity":61,"Duration":114399,"SoundDuration":114399,"Delta":15298074},{"NoteNumber":72,"Velocity":72,"Duration":114399,"SoundDuration":114399,"Delta":15298074},{"NoteNumber":40,"Velocity":54,"Duration":114399,"SoundDuration":114399,"Delta":15298074},{"NoteNumber":52,"Velocity":64,"Duration":114399,"SoundDuration":114399,"Delta":15298074},{"NoteNumber":62,"Velocity":61,"Duration":57199,"SoundDuration":57199,"Delta":15412473},{"NoteNumber":71,"Velocity":72,"Duration":57199,"SoundDuration":57199,"Delta":15412473},{"NoteNumber":68,"Velocity":61,"Duration":182490,"SoundDuration":182490,"Delta":15526872},{"NoteNumber":62,"Velocity":61,"Duration":115794,"SoundDuration":115794,"Delta":15526872},{"NoteNumber":71,"Velocity":72,"Duration":115794,"SoundDuration":115794,"Delta":15526872},{"NoteNumber":59,"Velocity":64,"Duration":115794,"SoundDuration":115794,"Delta":15526872},{"NoteNumber":52,"Velocity":54,"Duration":115794,"SoundDuration":115794,"Delta":15526872},{"NoteNumber":64,"Velocity":61,"Duration":66696,"SoundDuration":66696,"Delta":15642666},{"NoteNumber":72,"Velocity":72,"Duration":66696,"SoundDuration":66696,"Delta":15642666},{"NoteNumber":69,"Velocity":87,"Duration":700778,"SoundDuration":700778,"Delta":15776058},{"NoteNumber":62,"Velocity":73,"Duration":116977,"SoundDuration":116977,"Delta":15776058},{"NoteNumber":65,"Velocity":87,"Duration":116977,"SoundDuration":116977,"Delta":15776058},{"NoteNumber":45,"Velocity":57,"Duration":233954,"SoundDuration":233954,"Delta":15776058},{"NoteNumber":52,"Velocity":57,"Duration":233954,"SoundDuration":233954,"Delta":15776058},{"NoteNumber":57,"Velocity":68,"Duration":233954,"SoundDuration":233954,"Delta":15776058},{"NoteNumber":60,"Velocity":70,"Duration":116977,"SoundDuration":116977,"Delta":15893036},{"NoteNumber":64,"Velocity":82,"Duration":116977,"SoundDuration":116977,"Delta":15893036},{"NoteNumber":65,"Velocity":63,"Duration":29244,"SoundDuration":29244,"Delta":15980769},{"NoteNumber":60,"Velocity":73,"Duration":114731,"SoundDuration":114731,"Delta":16010013},{"NoteNumber":64,"Velocity":87,"Duration":114731,"SoundDuration":114731,"Delta":16010013},{"NoteNumber":33,"Velocity":53,"Duration":57365,"SoundDuration":57365,"Delta":16010013},{"NoteNumber":45,"Velocity":62,"Duration":57365,"SoundDuration":57365,"Delta":16010013},{"NoteNumber":59,"Velocity":68,"Duration":114731,"SoundDuration":114731,"Delta":16124744},{"NoteNumber":62,"Velocity":80,"Duration":114731,"SoundDuration":114731,"Delta":16124744},{"NoteNumber":60,"Velocity":73,"Duration":237360,"SoundDuration":237360,"Delta":16239476},{"NoteNumber":64,"Velocity":87,"Duration":237360,"SoundDuration":237360,"Delta":16239476},{"NoteNumber":45,"Velocity":53,"Duration":468949,"SoundDuration":468949,"Delta":16239476},{"NoteNumber":52,"Velocity":62,"Duration":237360,"SoundDuration":237360,"Delta":16239476},{"NoteNumber":69,"Velocity":84,"Duration":1396789,"SoundDuration":1396789,"Delta":16476836},{"NoteNumber":62,"Velocity":69,"Duration":115794,"SoundDuration":115794,"Delta":16476836},{"NoteNumber":65,"Velocity":82,"Duration":115794,"SoundDuration":115794,"Delta":16476836},{"NoteNumber":52,"Velocity":54,"Duration":231588,"SoundDuration":231588,"Delta":16476836},{"NoteNumber":57,"Velocity":64,"Duration":231588,"SoundDuration":231588,"Delta":16476836},{"NoteNumber":60,"Velocity":66,"Duration":115794,"SoundDuration":115794,"Delta":16592631},{"NoteNumber":64,"Velocity":77,"Duration":115794,"SoundDuration":115794,"Delta":16592631},{"NoteNumber":65,"Velocity":59,"Duration":28948,"SoundDuration":28948,"Delta":16679476},{"NoteNumber":60,"Velocity":69,"Duration":113019,"SoundDuration":113019,"Delta":16708425},{"NoteNumber":64,"Velocity":82,"Duration":113019,"SoundDuration":113019,"Delta":16708425},{"NoteNumber":45,"Velocity":58,"Duration":56509,"SoundDuration":56509,"Delta":16708425},{"NoteNumber":33,"Velocity":50,"Duration":56509,"SoundDuration":56509,"Delta":16708425},{"NoteNumber":59,"Velocity":64,"Duration":113020,"SoundDuration":113020,"Delta":16821445},{"NoteNumber":62,"Velocity":76,"Duration":113020,"SoundDuration":113020,"Delta":16821445},{"NoteNumber":60,"Velocity":69,"Duration":237360,"SoundDuration":237360,"Delta":16934465},{"NoteNumber":64,"Velocity":82,"Duration":237360,"SoundDuration":237360,"Delta":16934465},{"NoteNumber":45,"Velocity":50,"Duration":468949,"SoundDuration":468949,"Delta":16934465},{"NoteNumber":52,"Velocity":58,"Duration":237360,"SoundDuration":237360,"Delta":16934465},{"NoteNumber":62,"Velocity":69,"Duration":115794,"SoundDuration":115794,"Delta":17171825},{"NoteNumber":65,"Velocity":82,"Duration":115794,"SoundDuration":115794,"Delta":17171825},{"NoteNumber":57,"Velocity":64,"Duration":231588,"SoundDuration":231588,"Delta":17171825},{"NoteNumber":52,"Velocity":54,"Duration":231588,"SoundDuration":231588,"Delta":17171825},{"NoteNumber":60,"Velocity":66,"Duration":115794,"SoundDuration":115794,"Delta":17287620},{"NoteNumber":64,"Velocity":77,"Duration":115794,"SoundDuration":115794,"Delta":17287620},{"NoteNumber":65,"Velocity":59,"Duration":28948,"SoundDuration":28948,"Delta":17374465},{"NoteNumber":60,"Velocity":69,"Duration":113019,"SoundDuration":113019,"Delta":17403414},{"NoteNumber":64,"Velocity":82,"Duration":113019,"SoundDuration":113019,"Delta":17403414},{"NoteNumber":33,"Velocity":50,"Duration":56509,"SoundDuration":56509,"Delta":17403414},{"NoteNumber":45,"Velocity":58,"Duration":56509,"SoundDuration":56509,"Delta":17403414},{"NoteNumber":59,"Velocity":64,"Duration":113020,"SoundDuration":113020,"Delta":17516434},{"NoteNumber":62,"Velocity":76,"Duration":113020,"SoundDuration":113020,"Delta":17516434},{"NoteNumber":60,"Velocity":69,"Duration":244171,"SoundDuration":244171,"Delta":17629454},{"NoteNumber":64,"Velocity":82,"Duration":244171,"SoundDuration":244171,"Delta":17629454},{"NoteNumber":52,"Velocity":58,"Duration":118680,"SoundDuration":118680,"Delta":17629454},{"NoteNumber":45,"Velocity":50,"Duration":118680,"SoundDuration":118680,"Delta":17629454},{"NoteNumber":60,"Velocity":61,"Duration":115794,"SoundDuration":115794,"Delta":17873626},{"NoteNumber":66,"Velocity":61,"Duration":173691,"SoundDuration":173691,"Delta":17873626},{"NoteNumber":69,"Velocity":72,"Duration":115794,"SoundDuration":115794,"Delta":17873626},{"NoteNumber":57,"Velocity":64,"Duration":115794,"SoundDuration":115794,"Delta":17873626},{"NoteNumber":50,"Velocity":54,"Duration":115794,"SoundDuration":115794,"Delta":17873626},{"NoteNumber":62,"Velocity":61,"Duration":57897,"SoundDuration":57897,"Delta":17989420},{"NoteNumber":71,"Velocity":72,"Duration":57897,"SoundDuration":57897,"Delta":17989420},{"NoteNumber":66,"Velocity":61,"Duration":171598,"SoundDuration":171598,"Delta":18105214},{"NoteNumber":62,"Velocity":61,"Duration":114398,"SoundDuration":114398,"Delta":18105214},{"NoteNumber":71,"Velocity":72,"Duration":114398,"SoundDuration":114398,"Delta":18105214},{"NoteNumber":38,"Velocity":54,"Duration":114398,"SoundDuration":114398,"Delta":18105214},{"NoteNumber":50,"Velocity":64,"Duration":114398,"SoundDuration":114398,"Delta":18105214},{"NoteNumber":60,"Velocity":61,"Duration":57199,"SoundDuration":57199,"Delta":18219613},{"NoteNumber":69,"Velocity":72,"Duration":57199,"SoundDuration":57199,"Delta":18219613},{"NoteNumber":66,"Velocity":61,"Duration":173691,"SoundDuration":173691,"Delta":18334012},{"NoteNumber":60,"Velocity":61,"Duration":115794,"SoundDuration":115794,"Delta":18334012},{"NoteNumber":69,"Velocity":72,"Duration":115794,"SoundDuration":115794,"Delta":18334012},{"NoteNumber":57,"Velocity":64,"Duration":115794,"SoundDuration":115794,"Delta":18334012},{"NoteNumber":50,"Velocity":54,"Duration":115794,"SoundDuration":115794,"Delta":18334012},{"NoteNumber":62,"Velocity":61,"Duration":57897,"SoundDuration":57897,"Delta":18449806},{"NoteNumber":71,"Velocity":72,"Duration":57897,"SoundDuration":57897,"Delta":18449806},{"NoteNumber":67,"Velocity":78,"Duration":721026,"SoundDuration":721026,"Delta":18565601},{"NoteNumber":60,"Velocity":65,"Duration":115794,"SoundDuration":115794,"Delta":18565601},{"NoteNumber":64,"Velocity":78,"Duration":115794,"SoundDuration":115794,"Delta":18565601},{"NoteNumber":43,"Velocity":51,"Duration":231588,"SoundDuration":231588,"Delta":18565601},{"NoteNumber":50,"Velocity":51,"Duration":231588,"SoundDuration":231588,"Delta":18565601},{"NoteNumber":55,"Velocity":61,"Duration":231588,"SoundDuration":231588,"Delta":18565601},{"NoteNumber":59,"Velocity":63,"Duration":115794,"SoundDuration":115794,"Delta":18681395},{"NoteNumber":62,"Velocity":73,"Duration":115794,"SoundDuration":115794,"Delta":18681395},{"NoteNumber":64,"Velocity":56,"Duration":28948,"SoundDuration":28948,"Delta":18768241},{"NoteNumber":59,"Velocity":65,"Duration":113019,"SoundDuration":113019,"Delta":18797189},{"NoteNumber":62,"Velocity":78,"Duration":113019,"SoundDuration":113019,"Delta":18797189},{"NoteNumber":31,"Velocity":47,"Duration":56509,"SoundDuration":56509,"Delta":18797189},{"NoteNumber":43,"Velocity":55,"Duration":56509,"SoundDuration":56509,"Delta":18797189},{"NoteNumber":57,"Velocity":61,"Duration":113020,"SoundDuration":113020,"Delta":18910209},{"NoteNumber":60,"Velocity":72,"Duration":113020,"SoundDuration":113020,"Delta":18910209},{"NoteNumber":59,"Velocity":65,"Duration":263398,"SoundDuration":263398,"Delta":19023229},{"NoteNumber":62,"Velocity":78,"Duration":263398,"SoundDuration":263398,"Delta":19023229},{"NoteNumber":43,"Velocity":47,"Duration":118680,"SoundDuration":118680,"Delta":19023229},{"NoteNumber":55,"Velocity":55,"Duration":118680,"SoundDuration":118680,"Delta":19023229},{"NoteNumber":64,"Velocity":37,"Duration":173691,"SoundDuration":173691,"Delta":19286627},{"NoteNumber":67,"Velocity":44,"Duration":115794,"SoundDuration":115794,"Delta":19286627},{"NoteNumber":48,"Velocity":32,"Duration":57897,"SoundDuration":57897,"Delta":19286627},{"NoteNumber":55,"Velocity":38,"Duration":57897,"SoundDuration":57897,"Delta":19286627},{"NoteNumber":69,"Velocity":45,"Duration":57897,"SoundDuration":57897,"Delta":19402421},{"NoteNumber":64,"Velocity":40,"Duration":172281,"SoundDuration":172281,"Delta":19518216},{"NoteNumber":69,"Velocity":49,"Duration":114854,"SoundDuration":114854,"Delta":19518216},{"NoteNumber":60,"Velocity":38,"Duration":57427,"SoundDuration":57427,"Delta":19518216},{"NoteNumber":48,"Velocity":32,"Duration":57427,"SoundDuration":57427,"Delta":19518216},{"NoteNumber":55,"Velocity":32,"Duration":57427,"SoundDuration":57427,"Delta":19518216},{"NoteNumber":71,"Velocity":51,"Duration":57427,"SoundDuration":57427,"Delta":19633070},{"NoteNumber":64,"Velocity":45,"Duration":171823,"SoundDuration":171823,"Delta":19747925},{"NoteNumber":71,"Velocity":54,"Duration":114854,"SoundDuration":114854,"Delta":19747925},{"NoteNumber":48,"Velocity":35,"Duration":57427,"SoundDuration":57427,"Delta":19747925},{"NoteNumber":55,"Velocity":35,"Duration":57427,"SoundDuration":57427,"Delta":19747925},{"NoteNumber":60,"Velocity":42,"Duration":57427,"SoundDuration":57427,"Delta":19747925},{"NoteNumber":72,"Velocity":57,"Duration":56969,"SoundDuration":56969,"Delta":19862779},{"NoteNumber":64,"Velocity":51,"Duration":168880,"SoundDuration":168880,"Delta":19976718},{"NoteNumber":72,"Velocity":61,"Duration":112587,"SoundDuration":112587,"Delta":19976718},{"NoteNumber":48,"Velocity":43,"Duration":56293,"SoundDuration":56293,"Delta":19976718},{"NoteNumber":55,"Velocity":43,"Duration":56293,"SoundDuration":56293,"Delta":19976718},{"NoteNumber":60,"Velocity":52,"Duration":56293,"SoundDuration":56293,"Delta":19976718},{"NoteNumber":74,"Velocity":63,"Duration":56293,"SoundDuration":56293,"Delta":20089305},{"NoteNumber":64,"Velocity":55,"Duration":168880,"SoundDuration":168880,"Delta":20201892},{"NoteNumber":69,"Velocity":55,"Duration":168880,"SoundDuration":168880,"Delta":20201892},{"NoteNumber":74,"Velocity":66,"Duration":112587,"SoundDuration":112587,"Delta":20201892},{"NoteNumber":60,"Velocity":52,"Duration":56293,"SoundDuration":56293,"Delta":20201892},{"NoteNumber":48,"Velocity":43,"Duration":56293,"SoundDuration":56293,"Delta":20201892},{"NoteNumber":54,"Velocity":43,"Duration":56293,"SoundDuration":56293,"Delta":20201892},{"NoteNumber":76,"Velocity":69,"Duration":56293,"SoundDuration":56293,"Delta":20314479},{"NoteNumber":64,"Velocity":60,"Duration":189472,"SoundDuration":189472,"Delta":20427067},{"NoteNumber":69,"Velocity":60,"Duration":189472,"SoundDuration":189472,"Delta":20427067},{"NoteNumber":76,"Velocity":72,"Duration":123416,"SoundDuration":123416,"Delta":20427067},{"NoteNumber":59,"Velocity":56,"Duration":61708,"SoundDuration":61708,"Delta":20427067},{"NoteNumber":47,"Velocity":47,"Duration":61708,"SoundDuration":61708,"Delta":20427067},{"NoteNumber":54,"Velocity":47,"Duration":61708,"SoundDuration":61708,"Delta":20427067},{"NoteNumber":62,"Velocity":57,"Duration":66055,"SoundDuration":66055,"Delta":20550483},{"NoteNumber":74,"Velocity":68,"Duration":66055,"SoundDuration":66055,"Delta":20550483},{"NoteNumber":64,"Velocity":39,"Duration":173691,"SoundDuration":173691,"Delta":20682595},{"NoteNumber":67,"Velocity":47,"Duration":115794,"SoundDuration":115794,"Delta":20682595},{"NoteNumber":52,"Velocity":34,"Duration":57897,"SoundDuration":57897,"Delta":20682595},{"NoteNumber":59,"Velocity":40,"Duration":57897,"SoundDuration":57897,"Delta":20682595},{"NoteNumber":69,"Velocity":48,"Duration":57897,"SoundDuration":57897,"Delta":20798389},{"NoteNumber":64,"Velocity":41,"Duration":171598,"SoundDuration":171598,"Delta":20914183},{"NoteNumber":69,"Velocity":50,"Duration":114398,"SoundDuration":114398,"Delta":20914183},{"NoteNumber":55,"Velocity":33,"Duration":57199,"SoundDuration":57199,"Delta":20914183},{"NoteNumber":48,"Velocity":33,"Duration":57199,"SoundDuration":57199,"Delta":20914183},{"NoteNumber":60,"Velocity":39,"Duration":57199,"SoundDuration":57199,"Delta":20914183},{"NoteNumber":71,"Velocity":51,"Duration":57199,"SoundDuration":57199,"Delta":21028582},{"NoteNumber":64,"Velocity":45,"Duration":171368,"SoundDuration":171368,"Delta":21142981},{"NoteNumber":71,"Velocity":54,"Duration":114398,"SoundDuration":114398,"Delta":21142981},{"NoteNumber":60,"Velocity":42,"Duration":57199,"SoundDuration":57199,"Delta":21142981},{"NoteNumber":48,"Velocity":35,"Duration":57199,"SoundDuration":57199,"Delta":21142981},{"NoteNumber":55,"Velocity":35,"Duration":57199,"SoundDuration":57199,"Delta":21142981},{"NoteNumber":72,"Velocity":55,"Duration":56969,"SoundDuration":56969,"Delta":21257380},{"NoteNumber":64,"Velocity":48,"Duration":168880,"SoundDuration":168880,"Delta":21371319},{"NoteNumber":72,"Velocity":57,"Duration":112587,"SoundDuration":112587,"Delta":21371319},{"NoteNumber":48,"Velocity":41,"Duration":56293,"SoundDuration":56293,"Delta":21371319},{"NoteNumber":55,"Velocity":41,"Duration":56293,"SoundDuration":56293,"Delta":21371319},{"NoteNumber":60,"Velocity":49,"Duration":56293,"SoundDuration":56293,"Delta":21371319},{"NoteNumber":74,"Velocity":58,"Duration":56293,"SoundDuration":56293,"Delta":21483906},{"NoteNumber":64,"Velocity":51,"Duration":168880,"SoundDuration":168880,"Delta":21596493},{"NoteNumber":69,"Velocity":51,"Duration":168880,"SoundDuration":168880,"Delta":21596493},{"NoteNumber":74,"Velocity":61,"Duration":112587,"SoundDuration":112587,"Delta":21596493},{"NoteNumber":54,"Velocity":39,"Duration":493207,"SoundDuration":493207,"Delta":21596493},{"NoteNumber":48,"Velocity":39,"Duration":56293,"SoundDuration":56293,"Delta":21596493},{"NoteNumber":60,"Velocity":48,"Duration":56293,"SoundDuration":56293,"Delta":21596493},{"NoteNumber":76,"Velocity":63,"Duration":56293,"SoundDuration":56293,"Delta":21709081},{"NoteNumber":69,"Velocity":54,"Duration":192382,"SoundDuration":192382,"Delta":21821668},{"NoteNumber":76,"Velocity":64,"Duration":116731,"SoundDuration":116731,"Delta":21821668},{"NoteNumber":59,"Velocity":50,"Duration":58365,"SoundDuration":58365,"Delta":21821668},{"NoteNumber":47,"Velocity":42,"Duration":58365,"SoundDuration":58365,"Delta":21821668},{"NoteNumber":78,"Velocity":66,"Duration":75650,"SoundDuration":75650,"Delta":21938399},{"NoteNumber":75,"Velocity":66,"Duration":75650,"SoundDuration":75650,"Delta":21938399},{"NoteNumber":67,"Velocity":56,"Duration":114398,"SoundDuration":114398,"Delta":22089701},{"NoteNumber":76,"Velocity":56,"Duration":114398,"SoundDuration":114398,"Delta":22089701},{"NoteNumber":79,"Velocity":67,"Duration":114398,"SoundDuration":114398,"Delta":22089701},{"NoteNumber":52,"Velocity":43,"Duration":114398,"SoundDuration":114398,"Delta":22089701},{"NoteNumber":59,"Velocity":51,"Duration":114398,"SoundDuration":114398,"Delta":22089701},{"NoteNumber":69,"Velocity":56,"Duration":171598,"SoundDuration":171598,"Delta":22318499},{"NoteNumber":76,"Velocity":56,"Duration":114398,"SoundDuration":114398,"Delta":22318499},{"NoteNumber":79,"Velocity":67,"Duration":114398,"SoundDuration":114398,"Delta":22318499},{"NoteNumber":59,"Velocity":49,"Duration":171598,"SoundDuration":171598,"Delta":22318499},{"NoteNumber":47,"Velocity":41,"Duration":171598,"SoundDuration":171598,"Delta":22318499},{"NoteNumber":75,"Velocity":54,"Duration":57199,"SoundDuration":57199,"Delta":22432898},{"NoteNumber":78,"Velocity":64,"Duration":57199,"SoundDuration":57199,"Delta":22432898},{"NoteNumber":67,"Velocity":56,"Duration":171598,"SoundDuration":171598,"Delta":22547297},{"NoteNumber":75,"Velocity":56,"Duration":114399,"SoundDuration":114399,"Delta":22547297},{"NoteNumber":78,"Velocity":67,"Duration":114399,"SoundDuration":114399,"Delta":22547297},{"NoteNumber":52,"Velocity":41,"Duration":171598,"SoundDuration":171598,"Delta":22547297},{"NoteNumber":59,"Velocity":49,"Duration":171598,"SoundDuration":171598,"Delta":22547297},{"NoteNumber":76,"Velocity":55,"Duration":57199,"SoundDuration":57199,"Delta":22661696},{"NoteNumber":79,"Velocity":65,"Duration":57199,"SoundDuration":57199,"Delta":22661696},{"NoteNumber":69,"Velocity":58,"Duration":174378,"SoundDuration":174378,"Delta":22775942},{"NoteNumber":76,"Velocity":58,"Duration":116251,"SoundDuration":116251,"Delta":22775942},{"NoteNumber":79,"Velocity":70,"Duration":116251,"SoundDuration":116251,"Delta":22775942},{"NoteNumber":47,"Velocity":43,"Duration":174378,"SoundDuration":174378,"Delta":22775942},{"NoteNumber":59,"Velocity":51,"Duration":174378,"SoundDuration":174378,"Delta":22775942},{"NoteNumber":75,"Velocity":58,"Duration":58126,"SoundDuration":58126,"Delta":22892194},{"NoteNumber":78,"Velocity":69,"Duration":58126,"SoundDuration":58126,"Delta":22892194},{"NoteNumber":67,"Velocity":62,"Duration":175344,"SoundDuration":175344,"Delta":23008446},{"NoteNumber":75,"Velocity":62,"Duration":116252,"SoundDuration":116252,"Delta":23008446},{"NoteNumber":78,"Velocity":74,"Duration":116252,"SoundDuration":116252,"Delta":23008446},{"NoteNumber":52,"Velocity":45,"Duration":175344,"SoundDuration":175344,"Delta":23008446},{"NoteNumber":59,"Velocity":54,"Duration":175344,"SoundDuration":175344,"Delta":23008446},{"NoteNumber":76,"Velocity":61,"Duration":59092,"SoundDuration":59092,"Delta":23124698},{"NoteNumber":79,"Velocity":72,"Duration":59092,"SoundDuration":59092,"Delta":23124698},{"NoteNumber":67,"Velocity":64,"Duration":115794,"SoundDuration":115794,"Delta":23242883},{"NoteNumber":79,"Velocity":77,"Duration":115794,"SoundDuration":115794,"Delta":23242883},{"NoteNumber":76,"Velocity":64,"Duration":115794,"SoundDuration":115794,"Delta":23242883},{"NoteNumber":59,"Velocity":56,"Duration":173691,"SoundDuration":173691,"Delta":23242883},{"NoteNumber":47,"Velocity":47,"Duration":173691,"SoundDuration":173691,"Delta":23242883},{"NoteNumber":77,"Velocity":62,"Duration":57897,"SoundDuration":57897,"Delta":23358677},{"NoteNumber":80,"Velocity":73,"Duration":57897,"SoundDuration":57897,"Delta":23358677},{"NoteNumber":68,"Velocity":62,"Duration":57897,"SoundDuration":57897,"Delta":23358677},{"NoteNumber":68,"Velocity":64,"Duration":113877,"SoundDuration":113877,"Delta":23474471},{"NoteNumber":80,"Velocity":77,"Duration":113877,"SoundDuration":113877,"Delta":23474471},{"NoteNumber":77,"Velocity":64,"Duration":113877,"SoundDuration":113877,"Delta":23474471},{"NoteNumber":47,"Velocity":56,"Duration":170694,"SoundDuration":170694,"Delta":23474471},{"NoteNumber":35,"Velocity":47,"Duration":170694,"SoundDuration":170694,"Delta":23474471},{"NoteNumber":78,"Velocity":62,"Duration":56816,"SoundDuration":56816,"Delta":23588348},{"NoteNumber":81,"Velocity":73,"Duration":56816,"SoundDuration":56816,"Delta":23588348},{"NoteNumber":69,"Velocity":62,"Duration":56816,"SoundDuration":56816,"Delta":23588348},{"NoteNumber":69,"Velocity":65,"Duration":114626,"SoundDuration":114626,"Delta":23702135},{"NoteNumber":81,"Velocity":78,"Duration":114626,"SoundDuration":114626,"Delta":23702135},{"NoteNumber":78,"Velocity":65,"Duration":114626,"SoundDuration":114626,"Delta":23702135},{"NoteNumber":59,"Velocity":47,"Duration":172207,"SoundDuration":172207,"Delta":23702135},{"NoteNumber":62,"Velocity":57,"Duration":172207,"SoundDuration":172207,"Delta":23702135},{"NoteNumber":53,"Velocity":47,"Duration":172207,"SoundDuration":172207,"Delta":23702135},{"NoteNumber":77,"Velocity":63,"Duration":57580,"SoundDuration":57580,"Delta":23816761},{"NoteNumber":80,"Velocity":75,"Duration":57580,"SoundDuration":57580,"Delta":23816761},{"NoteNumber":68,"Velocity":63,"Duration":57580,"SoundDuration":57580,"Delta":23816761},{"NoteNumber":68,"Velocity":67,"Duration":116179,"SoundDuration":116179,"Delta":23932159},{"NoteNumber":80,"Velocity":80,"Duration":116179,"SoundDuration":116179,"Delta":23932159},{"NoteNumber":77,"Velocity":67,"Duration":116179,"SoundDuration":116179,"Delta":23932159},{"NoteNumber":63,"Velocity":58,"Duration":174545,"SoundDuration":174545,"Delta":23932159},{"NoteNumber":59,"Velocity":49,"Duration":174545,"SoundDuration":174545,"Delta":23932159},{"NoteNumber":54,"Velocity":49,"Duration":174545,"SoundDuration":174545,"Delta":23932159},{"NoteNumber":78,"Velocity":65,"Duration":58365,"SoundDuration":58365,"Delta":24048338},{"NoteNumber":81,"Velocity":77,"Duration":58365,"SoundDuration":58365,"Delta":24048338},{"NoteNumber":69,"Velocity":65,"Duration":58365,"SoundDuration":58365,"Delta":24048338},{"NoteNumber":69,"Velocity":68,"Duration":116974,"SoundDuration":116974,"Delta":24164990},{"NoteNumber":81,"Velocity":82,"Duration":116974,"SoundDuration":116974,"Delta":24164990},{"NoteNumber":78,"Velocity":68,"Duration":116974,"SoundDuration":116974,"Delta":24164990},{"NoteNumber":53,"Velocity":50,"Duration":175906,"SoundDuration":175906,"Delta":24164990},{"NoteNumber":59,"Velocity":50,"Duration":175906,"SoundDuration":175906,"Delta":24164990},{"NoteNumber":62,"Velocity":59,"Duration":175906,"SoundDuration":175906,"Delta":24164990},{"NoteNumber":77,"Velocity":66,"Duration":58931,"SoundDuration":58931,"Delta":24281965},{"NoteNumber":80,"Velocity":78,"Duration":58931,"SoundDuration":58931,"Delta":24281965},{"NoteNumber":68,"Velocity":66,"Duration":58931,"SoundDuration":58931,"Delta":24281965},{"NoteNumber":68,"Velocity":70,"Duration":119599,"SoundDuration":119599,"Delta":24400154},{"NoteNumber":80,"Velocity":84,"Duration":119599,"SoundDuration":119599,"Delta":24400154},{"NoteNumber":77,"Velocity":70,"Duration":119599,"SoundDuration":119599,"Delta":24400154},{"NoteNumber":59,"Velocity":51,"Duration":179858,"SoundDuration":179858,"Delta":24400154},{"NoteNumber":63,"Velocity":61,"Duration":179858,"SoundDuration":179858,"Delta":24400154},{"NoteNumber":54,"Velocity":51,"Duration":179858,"SoundDuration":179858,"Delta":24400154},{"NoteNumber":78,"Velocity":68,"Duration":60258,"SoundDuration":60258,"Delta":24519753},{"NoteNumber":81,"Velocity":81,"Duration":60258,"SoundDuration":60258,"Delta":24519753},{"NoteNumber":69,"Velocity":68,"Duration":60258,"SoundDuration":60258,"Delta":24519753},{"NoteNumber":69,"Velocity":71,"Duration":127357,"SoundDuration":127357,"Delta":24640705},{"NoteNumber":81,"Velocity":86,"Duration":127357,"SoundDuration":127357,"Delta":24640705},{"NoteNumber":78,"Velocity":71,"Duration":203623,"SoundDuration":203623,"Delta":24640705},{"NoteNumber":47,"Velocity":62,"Duration":203623,"SoundDuration":203623,"Delta":24640705},{"NoteNumber":35,"Velocity":52,"Duration":203623,"SoundDuration":203623,"Delta":24640705},{"NoteNumber":82,"Velocity":82,"Duration":76266,"SoundDuration":76266,"Delta":24768062},{"NoteNumber":70,"Velocity":70,"Duration":76266,"SoundDuration":76266,"Delta":24768062},{"NoteNumber":70,"Velocity":73,"Duration":244478,"SoundDuration":244478,"Delta":24920594},{"NoteNumber":78,"Velocity":73,"Duration":244478,"SoundDuration":244478,"Delta":24920594},{"NoteNumber":82,"Velocity":88,"Duration":244478,"SoundDuration":244478,"Delta":24920594},{"NoteNumber":34,"Velocity":56,"Duration":244478,"SoundDuration":244478,"Delta":24920594},{"NoteNumber":46,"Velocity":66,"Duration":244478,"SoundDuration":244478,"Delta":24920594},{"NoteNumber":70,"Velocity":70,"Duration":179525,"SoundDuration":179525,"Delta":25165073},{"NoteNumber":82,"Velocity":83,"Duration":179525,"SoundDuration":179525,"Delta":25165073},{"NoteNumber":78,"Velocity":70,"Duration":119683,"SoundDuration":119683,"Delta":25165073},{"NoteNumber":54,"Velocity":49,"Duration":179525,"SoundDuration":179525,"Delta":25165073},{"NoteNumber":58,"Velocity":49,"Duration":179525,"SoundDuration":179525,"Delta":25165073},{"NoteNumber":63,"Velocity":58,"Duration":179525,"SoundDuration":179525,"Delta":25165073},{"NoteNumber":77,"Velocity":65,"Duration":59841,"SoundDuration":59841,"Delta":25284757},{"NoteNumber":80,"Velocity":77,"Duration":59841,"SoundDuration":59841,"Delta":25284757},{"NoteNumber":70,"Velocity":63,"Duration":180229,"SoundDuration":180229,"Delta":25404441},{"NoteNumber":82,"Velocity":75,"Duration":180229,"SoundDuration":180229,"Delta":25404441},{"NoteNumber":77,"Velocity":63,"Duration":117215,"SoundDuration":117215,"Delta":25404441},{"NoteNumber":80,"Velocity":75,"Duration":117215,"SoundDuration":117215,"Delta":25404441},{"NoteNumber":63,"Velocity":44,"Duration":180229,"SoundDuration":180229,"Delta":25404441},{"NoteNumber":66,"Velocity":52,"Duration":180229,"SoundDuration":180229,"Delta":25404441},{"NoteNumber":58,"Velocity":44,"Duration":180229,"SoundDuration":180229,"Delta":25404441},{"NoteNumber":75,"Velocity":58,"Duration":63014,"SoundDuration":63014,"Delta":25521656},{"NoteNumber":78,"Velocity":69,"Duration":63014,"SoundDuration":63014,"Delta":25521656},{"NoteNumber":77,"Velocity":73,"Duration":242423,"SoundDuration":242423,"Delta":25647686},{"NoteNumber":70,"Velocity":73,"Duration":242423,"SoundDuration":242423,"Delta":25647686},{"NoteNumber":80,"Velocity":73,"Duration":242423,"SoundDuration":242423,"Delta":25647686},{"NoteNumber":82,"Velocity":88,"Duration":242423,"SoundDuration":242423,"Delta":25647686},{"NoteNumber":46,"Velocity":56,"Duration":242423,"SoundDuration":242423,"Delta":25647686},{"NoteNumber":58,"Velocity":66,"Duration":242423,"SoundDuration":242423,"Delta":25647686},{"NoteNumber":77,"Velocity":70,"Duration":122263,"SoundDuration":122263,"Delta":25890110},{"NoteNumber":70,"Velocity":70,"Duration":183653,"SoundDuration":183653,"Delta":25890110},{"NoteNumber":82,"Velocity":83,"Duration":183653,"SoundDuration":183653,"Delta":25890110},{"NoteNumber":80,"Velocity":70,"Duration":122263,"SoundDuration":122263,"Delta":25890110},{"NoteNumber":53,"Velocity":49,"Duration":183653,"SoundDuration":183653,"Delta":25890110},{"NoteNumber":62,"Velocity":58,"Duration":183653,"SoundDuration":183653,"Delta":25890110},{"NoteNumber":78,"Velocity":77,"Duration":61389,"SoundDuration":61389,"Delta":26012373},{"NoteNumber":75,"Velocity":65,"Duration":61389,"SoundDuration":61389,"Delta":26012373},{"NoteNumber":70,"Velocity":63,"Duration":184169,"SoundDuration":184169,"Delta":26135153},{"NoteNumber":82,"Velocity":75,"Duration":184169,"SoundDuration":184169,"Delta":26135153},{"NoteNumber":75,"Velocity":63,"Duration":122779,"SoundDuration":122779,"Delta":26135153},{"NoteNumber":78,"Velocity":75,"Duration":122779,"SoundDuration":122779,"Delta":26135153},{"NoteNumber":58,"Velocity":44,"Duration":184169,"SoundDuration":184169,"Delta":26135153},{"NoteNumber":68,"Velocity":52,"Duration":184169,"SoundDuration":184169,"Delta":26135153},{"NoteNumber":65,"Velocity":44,"Duration":184169,"SoundDuration":184169,"Delta":26135153},{"NoteNumber":74,"Velocity":58,"Duration":61389,"SoundDuration":61389,"Delta":26257933},{"NoteNumber":77,"Velocity":69,"Duration":61389,"SoundDuration":61389,"Delta":26257933},{"NoteNumber":75,"Velocity":65,"Duration":124136,"SoundDuration":124136,"Delta":26380713},{"NoteNumber":70,"Velocity":65,"Duration":124136,"SoundDuration":124136,"Delta":26380713},{"NoteNumber":78,"Velocity":65,"Duration":124136,"SoundDuration":124136,"Delta":26380713},{"NoteNumber":82,"Velocity":79,"Duration":124136,"SoundDuration":124136,"Delta":26380713},{"NoteNumber":39,"Velocity":50,"Duration":124136,"SoundDuration":124136,"Delta":26380713},{"NoteNumber":51,"Velocity":59,"Duration":124136,"SoundDuration":124136,"Delta":26380713},{"NoteNumber":70,"Velocity":63,"Duration":124378,"SoundDuration":124378,"Delta":26643802},{"NoteNumber":78,"Velocity":63,"Duration":124378,"SoundDuration":124378,"Delta":26643802},{"NoteNumber":51,"Velocity":44,"Duration":639739,"SoundDuration":639739,"Delta":26643802},{"NoteNumber":58,"Velocity":52,"Duration":248756,"SoundDuration":248756,"Delta":26643802},{"NoteNumber":77,"Velocity":68,"Duration":62189,"SoundDuration":62189,"Delta":26768180},{"NoteNumber":68,"Velocity":57,"Duration":62189,"SoundDuration":62189,"Delta":26768180},{"NoteNumber":68,"Velocity":54,"Duration":124378,"SoundDuration":124378,"Delta":26892558},{"NoteNumber":77,"Velocity":64,"Duration":124378,"SoundDuration":124378,"Delta":26892558},{"NoteNumber":62,"Velocity":44,"Duration":260321,"SoundDuration":260321,"Delta":26892558},{"NoteNumber":67,"Velocity":49,"Duration":67971,"SoundDuration":67971,"Delta":27016936},{"NoteNumber":75,"Velocity":59,"Duration":67971,"SoundDuration":67971,"Delta":27016936},{"NoteNumber":67,"Velocity":61,"Duration":130662,"SoundDuration":130662,"Delta":27152880},{"NoteNumber":75,"Velocity":74,"Duration":130662,"SoundDuration":130662,"Delta":27152880},{"NoteNumber":63,"Velocity":55,"Duration":130662,"SoundDuration":130662,"Delta":27152880},{"NoteNumber":67,"Velocity":52,"Duration":117946,"SoundDuration":117946,"Delta":27412716},{"NoteNumber":70,"Velocity":52,"Duration":177787,"SoundDuration":177787,"Delta":27412716},{"NoteNumber":39,"Velocity":36,"Duration":177787,"SoundDuration":177787,"Delta":27412716},{"NoteNumber":51,"Velocity":42,"Duration":177787,"SoundDuration":177787,"Delta":27412716},{"NoteNumber":64,"Velocity":45,"Duration":59841,"SoundDuration":59841,"Delta":27530662},{"NoteNumber":71,"Velocity":48,"Duration":182600,"SoundDuration":182600,"Delta":27650850},{"NoteNumber":64,"Velocity":41,"Duration":121733,"SoundDuration":121733,"Delta":27650850},{"NoteNumber":67,"Velocity":48,"Duration":182600,"SoundDuration":182600,"Delta":27650850},{"NoteNumber":51,"Velocity":31,"Duration":243466,"SoundDuration":243466,"Delta":27650850},{"NoteNumber":61,"Velocity":33,"Duration":182600,"SoundDuration":182600,"Delta":27650850},{"NoteNumber":63,"Velocity":35,"Duration":60866,"SoundDuration":60866,"Delta":27772583},{"NoteNumber":59,"Velocity":46,"Duration":174378,"SoundDuration":174378,"Delta":27894317},{"NoteNumber":63,"Velocity":54,"Duration":116251,"SoundDuration":116251,"Delta":27894317},{"NoteNumber":56,"Velocity":41,"Duration":174378,"SoundDuration":174378,"Delta":27894317},{"NoteNumber":44,"Velocity":34,"Duration":174378,"SoundDuration":174378,"Delta":27894317},{"NoteNumber":51,"Velocity":34,"Duration":174378,"SoundDuration":174378,"Delta":27894317},{"NoteNumber":64,"Velocity":42,"Duration":58126,"SoundDuration":58126,"Delta":28010569},{"NoteNumber":59,"Velocity":43,"Duration":170907,"SoundDuration":170907,"Delta":28126821},{"NoteNumber":64,"Velocity":51,"Duration":113938,"SoundDuration":113938,"Delta":28126821},{"NoteNumber":32,"Velocity":30,"Duration":56969,"SoundDuration":56969,"Delta":28126821},{"NoteNumber":44,"Velocity":36,"Duration":56969,"SoundDuration":56969,"Delta":28126821},{"NoteNumber":65,"Velocity":43,"Duration":56969,"SoundDuration":56969,"Delta":28240759},{"NoteNumber":59,"Velocity":44,"Duration":170907,"SoundDuration":170907,"Delta":28354698},{"NoteNumber":63,"Velocity":44,"Duration":170907,"SoundDuration":170907,"Delta":28354698},{"NoteNumber":65,"Velocity":52,"Duration":113938,"SoundDuration":113938,"Delta":28354698},{"NoteNumber":39,"Velocity":30,"Duration":56969,"SoundDuration":56969,"Delta":28354698},{"NoteNumber":51,"Velocity":36,"Duration":56969,"SoundDuration":56969,"Delta":28354698},{"NoteNumber":66,"Velocity":44,"Duration":56969,"SoundDuration":56969,"Delta":28468636},{"NoteNumber":59,"Velocity":44,"Duration":168880,"SoundDuration":168880,"Delta":28582575},{"NoteNumber":63,"Velocity":44,"Duration":168880,"SoundDuration":168880,"Delta":28582575},{"NoteNumber":66,"Velocity":53,"Duration":112587,"SoundDuration":112587,"Delta":28582575},{"NoteNumber":56,"Velocity":44,"Duration":168880,"SoundDuration":168880,"Delta":28582575},{"NoteNumber":44,"Velocity":37,"Duration":168880,"SoundDuration":168880,"Delta":28582575},{"NoteNumber":51,"Velocity":37,"Duration":168880,"SoundDuration":168880,"Delta":28582575},{"NoteNumber":67,"Velocity":46,"Duration":56293,"SoundDuration":56293,"Delta":28695162},{"NoteNumber":59,"Velocity":47,"Duration":168880,"SoundDuration":168880,"Delta":28807749},{"NoteNumber":63,"Velocity":47,"Duration":168880,"SoundDuration":168880,"Delta":28807749},{"NoteNumber":67,"Velocity":56,"Duration":112587,"SoundDuration":112587,"Delta":28807749},{"NoteNumber":32,"Velocity":32,"Duration":56293,"SoundDuration":56293,"Delta":28807749},{"NoteNumber":44,"Velocity":39,"Duration":56293,"SoundDuration":56293,"Delta":28807749},{"NoteNumber":68,"Velocity":47,"Duration":56293,"SoundDuration":56293,"Delta":28920337},{"NoteNumber":59,"Velocity":48,"Duration":171598,"SoundDuration":171598,"Delta":29032924},{"NoteNumber":63,"Velocity":48,"Duration":171598,"SoundDuration":171598,"Delta":29032924},{"NoteNumber":68,"Velocity":57,"Duration":114398,"SoundDuration":114398,"Delta":29032924},{"NoteNumber":51,"Velocity":40,"Duration":57199,"SoundDuration":57199,"Delta":29032924},{"NoteNumber":39,"Velocity":33,"Duration":57199,"SoundDuration":57199,"Delta":29032924},{"NoteNumber":69,"Velocity":49,"Duration":57199,"SoundDuration":57199,"Delta":29147323},{"NoteNumber":63,"Velocity":50,"Duration":168880,"SoundDuration":168880,"Delta":29261722},{"NoteNumber":69,"Velocity":59,"Duration":112587,"SoundDuration":112587,"Delta":29261722},{"NoteNumber":51,"Velocity":41,"Duration":168880,"SoundDuration":168880,"Delta":29261722},{"NoteNumber":56,"Velocity":41,"Duration":168880,"SoundDuration":168880,"Delta":29261722},{"NoteNumber":59,"Velocity":49,"Duration":168880,"SoundDuration":168880,"Delta":29261722},{"NoteNumber":70,"Velocity":52,"Duration":56293,"SoundDuration":56293,"Delta":29374309},{"NoteNumber":63,"Velocity":52,"Duration":168880,"SoundDuration":168880,"Delta":29486896},{"NoteNumber":70,"Velocity":61,"Duration":112587,"SoundDuration":112587,"Delta":29486896},{"NoteNumber":32,"Velocity":36,"Duration":56293,"SoundDuration":56293,"Delta":29486896},{"NoteNumber":44,"Velocity":43,"Duration":56293,"SoundDuration":56293,"Delta":29486896},{"NoteNumber":71,"Velocity":54,"Duration":56293,"SoundDuration":56293,"Delta":29599484},{"NoteNumber":63,"Velocity":55,"Duration":168880,"SoundDuration":168880,"Delta":29712071},{"NoteNumber":68,"Velocity":66,"Duration":168880,"SoundDuration":168880,"Delta":29712071},{"NoteNumber":71,"Velocity":66,"Duration":112587,"SoundDuration":112587,"Delta":29712071},{"NoteNumber":51,"Velocity":46,"Duration":56293,"SoundDuration":56293,"Delta":29712071},{"NoteNumber":39,"Velocity":38,"Duration":56293,"SoundDuration":56293,"Delta":29712071},{"NoteNumber":72,"Velocity":56,"Duration":56293,"SoundDuration":56293,"Delta":29824658},{"NoteNumber":68,"Velocity":58,"Duration":168211,"SoundDuration":168211,"Delta":29937245},{"NoteNumber":63,"Velocity":58,"Duration":168211,"SoundDuration":168211,"Delta":29937245},{"NoteNumber":72,"Velocity":69,"Duration":112141,"SoundDuration":112141,"Delta":29937245},{"NoteNumber":51,"Velocity":48,"Duration":168211,"SoundDuration":168211,"Delta":29937245},{"NoteNumber":56,"Velocity":48,"Duration":168211,"SoundDuration":168211,"Delta":29937245},{"NoteNumber":59,"Velocity":57,"Duration":168211,"SoundDuration":168211,"Delta":29937245},{"NoteNumber":73,"Velocity":60,"Duration":56070,"SoundDuration":56070,"Delta":30049387},{"NoteNumber":63,"Velocity":61,"Duration":166462,"SoundDuration":166462,"Delta":30160947},{"NoteNumber":68,"Velocity":61,"Duration":166462,"SoundDuration":166462,"Delta":30160947},{"NoteNumber":73,"Velocity":71,"Duration":110833,"SoundDuration":110833,"Delta":30160947},{"NoteNumber":32,"Velocity":41,"Duration":55273,"SoundDuration":55273,"Delta":30160947},{"NoteNumber":44,"Velocity":50,"Duration":55273,"SoundDuration":55273,"Delta":30160947},{"NoteNumber":74,"Velocity":62,"Duration":55629,"SoundDuration":55629,"Delta":30271781},{"NoteNumber":63,"Velocity":63,"Duration":170222,"SoundDuration":170222,"Delta":30383040},{"NoteNumber":68,"Velocity":63,"Duration":170222,"SoundDuration":170222,"Delta":30383040},{"NoteNumber":74,"Velocity":76,"Duration":113481,"SoundDuration":113481,"Delta":30383040},{"NoteNumber":39,"Velocity":44,"Duration":56740,"SoundDuration":56740,"Delta":30383040},{"NoteNumber":51,"Velocity":52,"Duration":56740,"SoundDuration":56740,"Delta":30383040},{"NoteNumber":75,"Velocity":66,"Duration":56740,"SoundDuration":56740,"Delta":30496522},{"NoteNumber":63,"Velocity":68,"Duration":166711,"SoundDuration":166711,"Delta":30610003},{"NoteNumber":70,"Velocity":68,"Duration":166711,"SoundDuration":166711,"Delta":30610003},{"NoteNumber":75,"Velocity":81,"Duration":109970,"SoundDuration":109970,"Delta":30610003},{"NoteNumber":51,"Velocity":47,"Duration":54985,"SoundDuration":54985,"Delta":30610003},{"NoteNumber":58,"Velocity":56,"Duration":54985,"SoundDuration":54985,"Delta":30610003},{"NoteNumber":76,"Velocity":77,"Duration":56740,"SoundDuration":56740,"Delta":30719974},{"NoteNumber":70,"Velocity":69,"Duration":164956,"SoundDuration":164956,"Delta":30833455},{"NoteNumber":76,"Velocity":82,"Duration":109970,"SoundDuration":109970,"Delta":30833455},{"NoteNumber":51,"Velocity":57,"Duration":54985,"SoundDuration":54985,"Delta":30833455},{"NoteNumber":43,"Velocity":48,"Duration":54985,"SoundDuration":54985,"Delta":30833455},{"NoteNumber":75,"Velocity":78,"Duration":54985,"SoundDuration":54985,"Delta":30943426},{"NoteNumber":63,"Velocity":70,"Duration":175551,"SoundDuration":175551,"Delta":31053397},{"NoteNumber":70,"Velocity":70,"Duration":175551,"SoundDuration":175551,"Delta":31053397},{"NoteNumber":75,"Velocity":84,"Duration":113019,"SoundDuration":113019,"Delta":31053397},{"NoteNumber":51,"Velocity":50,"Duration":56509,"SoundDuration":56509,"Delta":31053397},{"NoteNumber":58,"Velocity":59,"Duration":56509,"SoundDuration":56509,"Delta":31053397},{"NoteNumber":73,"Velocity":84,"Duration":62531,"SoundDuration":62531,"Delta":31166417},{"NoteNumber":63,"Velocity":69,"Duration":170907,"SoundDuration":170907,"Delta":31291479},{"NoteNumber":68,"Velocity":69,"Duration":170907,"SoundDuration":170907,"Delta":31291479},{"NoteNumber":73,"Velocity":82,"Duration":113938,"SoundDuration":113938,"Delta":31291479},{"NoteNumber":51,"Velocity":56,"Duration":56969,"SoundDuration":56969,"Delta":31291479},{"NoteNumber":44,"Velocity":47,"Duration":56969,"SoundDuration":56969,"Delta":31291479},{"NoteNumber":71,"Velocity":79,"Duration":56969,"SoundDuration":56969,"Delta":31405418},{"NoteNumber":63,"Velocity":70,"Duration":168211,"SoundDuration":168211,"Delta":31519356},{"NoteNumber":68,"Velocity":70,"Duration":168211,"SoundDuration":168211,"Delta":31519356},{"NoteNumber":71,"Velocity":83,"Duration":112141,"SoundDuration":112141,"Delta":31519356},{"NoteNumber":51,"Velocity":48,"Duration":56070,"SoundDuration":56070,"Delta":31519356},{"NoteNumber":59,"Velocity":57,"Duration":56070,"SoundDuration":56070,"Delta":31519356},{"NoteNumber":73,"Velocity":79,"Duration":56070,"SoundDuration":56070,"Delta":31631498},{"NoteNumber":63,"Velocity":72,"Duration":174672,"SoundDuration":174672,"Delta":31743639},{"NoteNumber":68,"Velocity":72,"Duration":174672,"SoundDuration":174672,"Delta":31743639},{"NoteNumber":73,"Velocity":85,"Duration":112141,"SoundDuration":112141,"Delta":31743639},{"NoteNumber":44,"Velocity":50,"Duration":56070,"SoundDuration":56070,"Delta":31743639},{"NoteNumber":51,"Velocity":59,"Duration":56070,"SoundDuration":56070,"Delta":31743639},{"NoteNumber":75,"Velocity":86,"Duration":62531,"SoundDuration":62531,"Delta":31855780},{"NoteNumber":64,"Velocity":73,"Duration":168489,"SoundDuration":168489,"Delta":31980843},{"NoteNumber":68,"Velocity":73,"Duration":168489,"SoundDuration":168489,"Delta":31980843},{"NoteNumber":75,"Velocity":87,"Duration":112326,"SoundDuration":112326,"Delta":31980843},{"NoteNumber":49,"Velocity":50,"Duration":56162,"SoundDuration":56162,"Delta":31980843},{"NoteNumber":56,"Velocity":60,"Duration":56162,"SoundDuration":56162,"Delta":31980843},{"NoteNumber":73,"Velocity":86,"Duration":56162,"SoundDuration":56162,"Delta":32093169},{"NoteNumber":64,"Velocity":71,"Duration":168489,"SoundDuration":168489,"Delta":32205495},{"NoteNumber":68,"Velocity":71,"Duration":168489,"SoundDuration":168489,"Delta":32205495},{"NoteNumber":73,"Velocity":84,"Duration":112326,"SoundDuration":112326,"Delta":32205495},{"NoteNumber":37,"Velocity":49,"Duration":56162,"SoundDuration":56162,"Delta":32205495},{"NoteNumber":49,"Velocity":58,"Duration":56162,"SoundDuration":56162,"Delta":32205495},{"NoteNumber":71,"Velocity":83,"Duration":56162,"SoundDuration":56162,"Delta":32317821},{"NoteNumber":61,"Velocity":68,"Duration":173691,"SoundDuration":173691,"Delta":32430147},{"NoteNumber":64,"Velocity":68,"Duration":173691,"SoundDuration":173691,"Delta":32430147},{"NoteNumber":71,"Velocity":81,"Duration":115794,"SoundDuration":115794,"Delta":32430147},{"NoteNumber":56,"Velocity":56,"Duration":57897,"SoundDuration":57897,"Delta":32430147},{"NoteNumber":49,"Velocity":47,"Duration":57897,"SoundDuration":57897,"Delta":32430147},{"NoteNumber":70,"Velocity":80,"Duration":57897,"SoundDuration":57897,"Delta":32545941},{"NoteNumber":61,"Velocity":79,"Duration":228644,"SoundDuration":228644,"Delta":32661735},{"NoteNumber":51,"Velocity":42,"Duration":57199,"SoundDuration":57199,"Delta":32661735},{"NoteNumber":55,"Velocity":51,"Duration":57199,"SoundDuration":57199,"Delta":32661735},{"NoteNumber":71,"Velocity":71,"Duration":114245,"SoundDuration":114245,"Delta":32776134},{"NoteNumber":71,"Velocity":70,"Duration":114245,"SoundDuration":114245,"Delta":32890380},{"NoteNumber":61,"Velocity":58,"Duration":229406,"SoundDuration":229406,"Delta":32890380},{"NoteNumber":51,"Velocity":49,"Duration":57045,"SoundDuration":57045,"Delta":32890380},{"NoteNumber":39,"Velocity":41,"Duration":57045,"SoundDuration":57045,"Delta":32890380},{"NoteNumber":70,"Velocity":67,"Duration":115160,"SoundDuration":115160,"Delta":33004625},{"NoteNumber":70,"Velocity":64,"Duration":120184,"SoundDuration":120184,"Delta":33119786},{"NoteNumber":61,"Velocity":54,"Duration":248680,"SoundDuration":248680,"Delta":33119786},{"NoteNumber":51,"Velocity":38,"Duration":58967,"SoundDuration":58967,"Delta":33119786},{"NoteNumber":55,"Velocity":45,"Duration":58967,"SoundDuration":58967,"Delta":33119786},{"NoteNumber":63,"Velocity":62,"Duration":128495,"SoundDuration":128495,"Delta":33239970},{"NoteNumber":59,"Velocity":45,"Duration":173691,"SoundDuration":173691,"Delta":33368466},{"NoteNumber":63,"Velocity":53,"Duration":115794,"SoundDuration":115794,"Delta":33368466},{"NoteNumber":44,"Velocity":54,"Duration":173691,"SoundDuration":173691,"Delta":33368466},{"NoteNumber":51,"Velocity":54,"Duration":173691,"SoundDuration":173691,"Delta":33368466},{"NoteNumber":56,"Velocity":63,"Duration":173691,"SoundDuration":173691,"Delta":33368466},{"NoteNumber":64,"Velocity":45,"Duration":57897,"SoundDuration":57897,"Delta":33484260},{"NoteNumber":59,"Velocity":46,"Duration":170907,"SoundDuration":170907,"Delta":33600054},{"NoteNumber":64,"Velocity":54,"Duration":113938,"SoundDuration":113938,"Delta":33600054},{"NoteNumber":44,"Velocity":81,"Duration":113938,"SoundDuration":113938,"Delta":33600054},{"NoteNumber":32,"Velocity":68,"Duration":113938,"SoundDuration":113938,"Delta":33600054},{"NoteNumber":65,"Velocity":46,"Duration":56969,"SoundDuration":56969,"Delta":33713993},{"NoteNumber":59,"Velocity":49,"Duration":173700,"SoundDuration":173700,"Delta":33827931},{"NoteNumber":63,"Velocity":49,"Duration":173700,"SoundDuration":173700,"Delta":33827931},{"NoteNumber":65,"Velocity":58,"Duration":116731,"SoundDuration":116731,"Delta":33827931},{"NoteNumber":39,"Velocity":40,"Duration":58365,"SoundDuration":58365,"Delta":33827931},{"NoteNumber":51,"Velocity":49,"Duration":58365,"SoundDuration":58365,"Delta":33827931},{"NoteNumber":66,"Velocity":49,"Duration":56969,"SoundDuration":56969,"Delta":33944663},{"NoteNumber":59,"Velocity":51,"Duration":168880,"SoundDuration":168880,"Delta":34058601},{"NoteNumber":63,"Velocity":51,"Duration":168880,"SoundDuration":168880,"Delta":34058601},{"NoteNumber":66,"Velocity":60,"Duration":112587,"SoundDuration":112587,"Delta":34058601},{"NoteNumber":51,"Velocity":60,"Duration":168880,"SoundDuration":168880,"Delta":34058601},{"NoteNumber":44,"Velocity":60,"Duration":168880,"SoundDuration":168880,"Delta":34058601},{"NoteNumber":56,"Velocity":73,"Duration":168880,"SoundDuration":168880,"Delta":34058601},{"NoteNumber":67,"Velocity":51,"Duration":56293,"SoundDuration":56293,"Delta":34171189},{"NoteNumber":59,"Velocity":53,"Duration":168880,"SoundDuration":168880,"Delta":34283776},{"NoteNumber":63,"Velocity":53,"Duration":168880,"SoundDuration":168880,"Delta":34283776},{"NoteNumber":67,"Velocity":63,"Duration":112587,"SoundDuration":112587,"Delta":34283776},{"NoteNumber":30,"Velocity":78,"Duration":112587,"SoundDuration":112587,"Delta":34283776},{"NoteNumber":42,"Velocity":95,"Duration":112587,"SoundDuration":112587,"Delta":34283776},{"NoteNumber":68,"Velocity":54,"Duration":56293,"SoundDuration":56293,"Delta":34396363},{"NoteNumber":59,"Velocity":55,"Duration":171598,"SoundDuration":171598,"Delta":34508950},{"NoteNumber":63,"Velocity":55,"Duration":171598,"SoundDuration":171598,"Delta":34508950},{"NoteNumber":68,"Velocity":65,"Duration":114398,"SoundDuration":114398,"Delta":34508950},{"NoteNumber":42,"Velocity":46,"Duration":57199,"SoundDuration":57199,"Delta":34508950},{"NoteNumber":51,"Velocity":55,"Duration":57199,"SoundDuration":57199,"Delta":34508950},{"NoteNumber":69,"Velocity":56,"Duration":57199,"SoundDuration":57199,"Delta":34623349},{"NoteNumber":59,"Velocity":60,"Duration":168880,"SoundDuration":168880,"Delta":34737748},{"NoteNumber":64,"Velocity":60,"Duration":168880,"SoundDuration":168880,"Delta":34737748},{"NoteNumber":69,"Velocity":71,"Duration":112587,"SoundDuration":112587,"Delta":34737748},{"NoteNumber":56,"Velocity":85,"Duration":168880,"SoundDuration":168880,"Delta":34737748},{"NoteNumber":52,"Velocity":71,"Duration":168880,"SoundDuration":168880,"Delta":34737748},{"NoteNumber":70,"Velocity":61,"Duration":56293,"SoundDuration":56293,"Delta":34850336},{"NoteNumber":59,"Velocity":61,"Duration":168880,"SoundDuration":168880,"Delta":34962923},{"NoteNumber":64,"Velocity":61,"Duration":168880,"SoundDuration":168880,"Delta":34962923},{"NoteNumber":70,"Velocity":72,"Duration":112587,"SoundDuration":112587,"Delta":34962923},{"NoteNumber":28,"Velocity":84,"Duration":112587,"SoundDuration":112587,"Delta":34962923},{"NoteNumber":40,"Velocity":101,"Duration":112587,"SoundDuration":112587,"Delta":34962923},{"NoteNumber":71,"Velocity":62,"Duration":56293,"SoundDuration":56293,"Delta":35075510},{"NoteNumber":59,"Velocity":62,"Duration":168880,"SoundDuration":168880,"Delta":35188097},{"NoteNumber":64,"Velocity":74,"Duration":168880,"SoundDuration":168880,"Delta":35188097},{"NoteNumber":71,"Velocity":74,"Duration":112587,"SoundDuration":112587,"Delta":35188097},{"NoteNumber":56,"Velocity":62,"Duration":56293,"SoundDuration":56293,"Delta":35188097},{"NoteNumber":52,"Velocity":52,"Duration":56293,"SoundDuration":56293,"Delta":35188097},{"NoteNumber":72,"Velocity":64,"Duration":56293,"SoundDuration":56293,"Delta":35300685},{"NoteNumber":63,"Velocity":65,"Duration":168211,"SoundDuration":168211,"Delta":35413272},{"NoteNumber":72,"Velocity":77,"Duration":112141,"SoundDuration":112141,"Delta":35413272},{"NoteNumber":51,"Velocity":71,"Duration":168211,"SoundDuration":168211,"Delta":35413272},{"NoteNumber":56,"Velocity":71,"Duration":168211,"SoundDuration":168211,"Delta":35413272},{"NoteNumber":59,"Velocity":84,"Duration":168211,"SoundDuration":168211,"Delta":35413272},{"NoteNumber":73,"Velocity":72,"Duration":56070,"SoundDuration":56070,"Delta":35525413},{"NoteNumber":63,"Velocity":66,"Duration":166462,"SoundDuration":166462,"Delta":35636974},{"NoteNumber":68,"Velocity":66,"Duration":166462,"SoundDuration":166462,"Delta":35636974},{"NoteNumber":73,"Velocity":79,"Duration":110833,"SoundDuration":110833,"Delta":35636974},{"NoteNumber":27,"Velocity":85,"Duration":110833,"SoundDuration":110833,"Delta":35636974},{"NoteNumber":39,"Velocity":103,"Duration":110833,"SoundDuration":110833,"Delta":35636974},{"NoteNumber":74,"Velocity":73,"Duration":55629,"SoundDuration":55629,"Delta":35747807},{"NoteNumber":63,"Velocity":68,"Duration":179225,"SoundDuration":179225,"Delta":35859066},{"NoteNumber":68,"Velocity":68,"Duration":179225,"SoundDuration":179225,"Delta":35859066},{"NoteNumber":74,"Velocity":82,"Duration":179225,"SoundDuration":179225,"Delta":35859066},{"NoteNumber":59,"Velocity":68,"Duration":59741,"SoundDuration":59741,"Delta":35859066},{"NoteNumber":56,"Velocity":57,"Duration":59741,"SoundDuration":59741,"Delta":35859066},{"NoteNumber":51,"Velocity":57,"Duration":59741,"SoundDuration":59741,"Delta":35859066},{"NoteNumber":75,"Velocity":76,"Duration":59741,"SoundDuration":59741,"Delta":35978550},{"NoteNumber":64,"Velocity":76,"Duration":170040,"SoundDuration":170040,"Delta":36098034},{"NoteNumber":68,"Velocity":76,"Duration":170040,"SoundDuration":170040,"Delta":36098034},{"NoteNumber":75,"Velocity":90,"Duration":112326,"SoundDuration":112326,"Delta":36098034},{"NoteNumber":56,"Velocity":66,"Duration":112326,"SoundDuration":112326,"Delta":36098034},{"NoteNumber":49,"Velocity":66,"Duration":112326,"SoundDuration":112326,"Delta":36098034},{"NoteNumber":59,"Velocity":80,"Duration":112326,"SoundDuration":112326,"Delta":36098034},{"NoteNumber":73,"Velocity":77,"Duration":57714,"SoundDuration":57714,"Delta":36210360},{"NoteNumber":73,"Velocity":81,"Duration":113627,"SoundDuration":113627,"Delta":36325789},{"NoteNumber":71,"Velocity":73,"Duration":56813,"SoundDuration":56813,"Delta":36439417},{"NoteNumber":71,"Velocity":78,"Duration":115428,"SoundDuration":115428,"Delta":36553044},{"NoteNumber":70,"Velocity":71,"Duration":57714,"SoundDuration":57714,"Delta":36668473},{"NoteNumber":63,"Velocity":76,"Duration":171342,"SoundDuration":171342,"Delta":36783902},{"NoteNumber":68,"Velocity":76,"Duration":171342,"SoundDuration":171342,"Delta":36783902},{"NoteNumber":73,"Velocity":90,"Duration":113627,"SoundDuration":113627,"Delta":36783902},{"NoteNumber":59,"Velocity":80,"Duration":113627,"SoundDuration":113627,"Delta":36783902},{"NoteNumber":56,"Velocity":66,"Duration":113627,"SoundDuration":113627,"Delta":36783902},{"NoteNumber":51,"Velocity":66,"Duration":113627,"SoundDuration":113627,"Delta":36783902},{"NoteNumber":71,"Velocity":77,"Duration":57714,"SoundDuration":57714,"Delta":36897530},{"NoteNumber":71,"Velocity":81,"Duration":113627,"SoundDuration":113627,"Delta":37012959},{"NoteNumber":70,"Velocity":73,"Duration":56813,"SoundDuration":56813,"Delta":37126587},{"NoteNumber":70,"Velocity":78,"Duration":121026,"SoundDuration":121026,"Delta":37240215},{"NoteNumber":68,"Velocity":71,"Duration":60513,"SoundDuration":60513,"Delta":37361241},{"NoteNumber":64,"Velocity":76,"Duration":172798,"SoundDuration":172798,"Delta":37482267},{"NoteNumber":68,"Velocity":76,"Duration":172798,"SoundDuration":172798,"Delta":37482267},{"NoteNumber":75,"Velocity":90,"Duration":115083,"SoundDuration":115083,"Delta":37482267},{"NoteNumber":49,"Velocity":66,"Duration":115083,"SoundDuration":115083,"Delta":37482267},{"NoteNumber":56,"Velocity":66,"Duration":115083,"SoundDuration":115083,"Delta":37482267},{"NoteNumber":59,"Velocity":80,"Duration":115083,"SoundDuration":115083,"Delta":37482267},{"NoteNumber":73,"Velocity":77,"Duration":57714,"SoundDuration":57714,"Delta":37597351},{"NoteNumber":73,"Velocity":81,"Duration":113627,"SoundDuration":113627,"Delta":37712780},{"NoteNumber":71,"Velocity":73,"Duration":56813,"SoundDuration":56813,"Delta":37826408},{"NoteNumber":71,"Velocity":78,"Duration":115428,"SoundDuration":115428,"Delta":37940035},{"NoteNumber":70,"Velocity":71,"Duration":57714,"SoundDuration":57714,"Delta":38055464},{"NoteNumber":63,"Velocity":76,"Duration":171342,"SoundDuration":171342,"Delta":38170893},{"NoteNumber":68,"Velocity":76,"Duration":171342,"SoundDuration":171342,"Delta":38170893},{"NoteNumber":73,"Velocity":90,"Duration":113627,"SoundDuration":113627,"Delta":38170893},{"NoteNumber":56,"Velocity":66,"Duration":113627,"SoundDuration":113627,"Delta":38170893},{"NoteNumber":51,"Velocity":66,"Duration":113627,"SoundDuration":113627,"Delta":38170893},{"NoteNumber":59,"Velocity":80,"Duration":113627,"SoundDuration":113627,"Delta":38170893},{"NoteNumber":71,"Velocity":77,"Duration":57714,"SoundDuration":57714,"Delta":38284521},{"NoteNumber":71,"Velocity":81,"Duration":113627,"SoundDuration":113627,"Delta":38399950},{"NoteNumber":70,"Velocity":73,"Duration":56813,"SoundDuration":56813,"Delta":38513578},{"NoteNumber":70,"Velocity":78,"Duration":121812,"SoundDuration":121812,"Delta":38627206},{"NoteNumber":68,"Velocity":71,"Duration":60906,"SoundDuration":60906,"Delta":38749018},{"NoteNumber":61,"Velocity":76,"Duration":173508,"SoundDuration":173508,"Delta":38870831},{"NoteNumber":68,"Velocity":76,"Duration":173508,"SoundDuration":173508,"Delta":38870831},{"NoteNumber":71,"Velocity":90,"Duration":115794,"SoundDuration":115794,"Delta":38870831},{"NoteNumber":52,"Velocity":61,"Duration":115794,"SoundDuration":115794,"Delta":38870831},{"NoteNumber":56,"Velocity":72,"Duration":115794,"SoundDuration":115794,"Delta":38870831},{"NoteNumber":70,"Velocity":77,"Duration":57714,"SoundDuration":57714,"Delta":38986625},{"NoteNumber":70,"Velocity":81,"Duration":113627,"SoundDuration":113627,"Delta":39102054},{"NoteNumber":71,"Velocity":73,"Duration":56813,"SoundDuration":56813,"Delta":39215682},{"NoteNumber":71,"Velocity":79,"Duration":115428,"SoundDuration":115428,"Delta":39329309},{"NoteNumber":70,"Velocity":73,"Duration":57714,"SoundDuration":57714,"Delta":39444738},{"NoteNumber":70,"Velocity":93,"Duration":113627,"SoundDuration":113627,"Delta":39560167},{"NoteNumber":71,"Velocity":80,"Duration":57714,"SoundDuration":57714,"Delta":39673795},{"NoteNumber":71,"Velocity":85,"Duration":113627,"SoundDuration":113627,"Delta":39789224},{"NoteNumber":70,"Velocity":78,"Duration":56813,"SoundDuration":56813,"Delta":39902852},{"NoteNumber":70,"Velocity":84,"Duration":115428,"SoundDuration":115428,"Delta":40016480},{"NoteNumber":71,"Velocity":77,"Duration":57714,"SoundDuration":57714,"Delta":40131909},{"NoteNumber":71,"Velocity":90,"Duration":113627,"SoundDuration":113627,"Delta":40247338},{"NoteNumber":70,"Velocity":83,"Duration":57714,"SoundDuration":57714,"Delta":40360965},{"NoteNumber":70,"Velocity":85,"Duration":113627,"SoundDuration":113627,"Delta":40476394},{"NoteNumber":71,"Velocity":75,"Duration":56813,"SoundDuration":56813,"Delta":40590022},{"NoteNumber":71,"Velocity":79,"Duration":115428,"SoundDuration":115428,"Delta":40703650},{"NoteNumber":70,"Velocity":71,"Duration":57714,"SoundDuration":57714,"Delta":40819079},{"NoteNumber":70,"Velocity":88,"Duration":113627,"SoundDuration":113627,"Delta":40934508},{"NoteNumber":71,"Velocity":73,"Duration":57714,"SoundDuration":57714,"Delta":41048136},{"NoteNumber":71,"Velocity":76,"Duration":113627,"SoundDuration":113627,"Delta":41163565},{"NoteNumber":70,"Velocity":67,"Duration":56813,"SoundDuration":56813,"Delta":41277192},{"NoteNumber":70,"Velocity":70,"Duration":117702,"SoundDuration":117702,"Delta":41390820},{"NoteNumber":71,"Velocity":62,"Duration":66056,"SoundDuration":66056,"Delta":41508523},{"NoteNumber":68,"Velocity":66,"Duration":2083998,"SoundDuration":2083998,"Delta":41640635},{"NoteNumber":70,"Velocity":66,"Duration":2541594,"SoundDuration":2541594,"Delta":41640635},{"NoteNumber":64,"Velocity":72,"Duration":114854,"SoundDuration":114854,"Delta":41640635},{"NoteNumber":63,"Velocity":60,"Duration":58607,"SoundDuration":58607,"Delta":41755489},{"NoteNumber":63,"Velocity":62,"Duration":114854,"SoundDuration":114854,"Delta":41872704},{"NoteNumber":61,"Velocity":55,"Duration":57427,"SoundDuration":57427,"Delta":41987559},{"NoteNumber":61,"Velocity":58,"Duration":115428,"SoundDuration":115428,"Delta":42102413},{"NoteNumber":59,"Velocity":53,"Duration":57714,"SoundDuration":57714,"Delta":42217842},{"NoteNumber":59,"Velocity":60,"Duration":113627,"SoundDuration":113627,"Delta":42333271},{"NoteNumber":58,"Velocity":52,"Duration":57714,"SoundDuration":57714,"Delta":42446899},{"NoteNumber":58,"Velocity":54,"Duration":113627,"SoundDuration":113627,"Delta":42562328},{"NoteNumber":56,"Velocity":47,"Duration":56813,"SoundDuration":56813,"Delta":42675956},{"NoteNumber":56,"Velocity":53,"Duration":115428,"SoundDuration":115428,"Delta":42789583},{"NoteNumber":54,"Velocity":45,"Duration":57714,"SoundDuration":57714,"Delta":42905012},{"NoteNumber":54,"Velocity":52,"Duration":113627,"SoundDuration":113627,"Delta":43020441},{"NoteNumber":52,"Velocity":44,"Duration":57714,"SoundDuration":57714,"Delta":43134069},{"NoteNumber":52,"Velocity":46,"Duration":113627,"SoundDuration":113627,"Delta":43249498},{"NoteNumber":51,"Velocity":40,"Duration":56813,"SoundDuration":56813,"Delta":43363126},{"NoteNumber":51,"Velocity":44,"Duration":115428,"SoundDuration":115428,"Delta":43476754},{"NoteNumber":49,"Velocity":40,"Duration":66225,"SoundDuration":66225,"Delta":43592183},{"NoteNumber":67,"Velocity":48,"Duration":686394,"SoundDuration":686394,"Delta":43724633},{"NoteNumber":61,"Velocity":48,"Duration":686394,"SoundDuration":686394,"Delta":43724633},{"NoteNumber":51,"Velocity":41,"Duration":937376,"SoundDuration":937376,"Delta":43724633},{"NoteNumber":71,"Velocity":48,"Duration":228797,"SoundDuration":228797,"Delta":44182229},{"NoteNumber":39,"Velocity":41,"Duration":228797,"SoundDuration":228797,"Delta":44182229},{"NoteNumber":59,"Velocity":48,"Duration":125491,"SoundDuration":125491,"Delta":44411027},{"NoteNumber":68,"Velocity":48,"Duration":125491,"SoundDuration":125491,"Delta":44411027},{"NoteNumber":44,"Velocity":41,"Duration":125491,"SoundDuration":125491,"Delta":44411027},{"NoteNumber":64,"Velocity":45,"Duration":181174,"SoundDuration":181174,"Delta":44662010},{"NoteNumber":61,"Velocity":45,"Duration":181174,"SoundDuration":181174,"Delta":44662010},{"NoteNumber":68,"Velocity":53,"Duration":120782,"SoundDuration":120782,"Delta":44662010},{"NoteNumber":37,"Velocity":34,"Duration":60391,"SoundDuration":60391,"Delta":44662010},{"NoteNumber":49,"Velocity":40,"Duration":60391,"SoundDuration":60391,"Delta":44662010},{"NoteNumber":71,"Velocity":45,"Duration":60391,"SoundDuration":60391,"Delta":44782793},{"NoteNumber":67,"Velocity":45,"Duration":175302,"SoundDuration":175302,"Delta":44903575},{"NoteNumber":61,"Velocity":45,"Duration":175302,"SoundDuration":175302,"Delta":44903575},{"NoteNumber":71,"Velocity":53,"Duration":116867,"SoundDuration":116867,"Delta":44903575},{"NoteNumber":39,"Velocity":30,"Duration":58433,"SoundDuration":58433,"Delta":44903575},{"NoteNumber":51,"Velocity":37,"Duration":58433,"SoundDuration":58433,"Delta":44903575},{"NoteNumber":70,"Velocity":45,"Duration":58434,"SoundDuration":58434,"Delta":45020443},{"NoteNumber":59,"Velocity":45,"Duration":178214,"SoundDuration":178214,"Delta":45137311},{"NoteNumber":70,"Velocity":53,"Duration":117822,"SoundDuration":117822,"Delta":45137311},{"NoteNumber":56,"Velocity":37,"Duration":58911,"SoundDuration":58911,"Delta":45137311},{"NoteNumber":44,"Velocity":30,"Duration":58911,"SoundDuration":58911,"Delta":45137311},{"NoteNumber":68,"Velocity":45,"Duration":60391,"SoundDuration":60391,"Delta":45255134},{"NoteNumber":64,"Velocity":45,"Duration":176574,"SoundDuration":176574,"Delta":45375917},{"NoteNumber":61,"Velocity":45,"Duration":176574,"SoundDuration":176574,"Delta":45375917},{"NoteNumber":68,"Velocity":53,"Duration":117663,"SoundDuration":117663,"Delta":45375917},{"NoteNumber":37,"Velocity":34,"Duration":58752,"SoundDuration":58752,"Delta":45375917},{"NoteNumber":49,"Velocity":40,"Duration":58752,"SoundDuration":58752,"Delta":45375917},{"NoteNumber":71,"Velocity":45,"Duration":58911,"SoundDuration":58911,"Delta":45493581},{"NoteNumber":67,"Velocity":45,"Duration":173866,"SoundDuration":173866,"Delta":45611403},{"NoteNumber":61,"Velocity":45,"Duration":173866,"SoundDuration":173866,"Delta":45611403},{"NoteNumber":71,"Velocity":53,"Duration":115910,"SoundDuration":115910,"Delta":45611403},{"NoteNumber":51,"Velocity":37,"Duration":57955,"SoundDuration":57955,"Delta":45611403},{"NoteNumber":39,"Velocity":30,"Duration":57955,"SoundDuration":57955,"Delta":45611403},{"NoteNumber":70,"Velocity":45,"Duration":57955,"SoundDuration":57955,"Delta":45727314},{"NoteNumber":59,"Velocity":45,"Duration":180589,"SoundDuration":180589,"Delta":45843225},{"NoteNumber":70,"Velocity":53,"Duration":117822,"SoundDuration":117822,"Delta":45843225},{"NoteNumber":40,"Velocity":30,"Duration":58911,"SoundDuration":58911,"Delta":45843225},{"NoteNumber":52,"Velocity":37,"Duration":58911,"SoundDuration":58911,"Delta":45843225},{"NoteNumber":68,"Velocity":45,"Duration":62766,"SoundDuration":62766,"Delta":45961048},{"NoteNumber":63,"Velocity":45,"Duration":175302,"SoundDuration":175302,"Delta":46086581},{"NoteNumber":66,"Velocity":53,"Duration":116867,"SoundDuration":116867,"Delta":46086581},{"NoteNumber":35,"Velocity":34,"Duration":58433,"SoundDuration":58433,"Delta":46086581},{"NoteNumber":47,"Velocity":40,"Duration":58433,"SoundDuration":58433,"Delta":46086581},{"NoteNumber":75,"Velocity":45,"Duration":58434,"SoundDuration":58434,"Delta":46203449},{"NoteNumber":70,"Velocity":45,"Duration":172493,"SoundDuration":172493,"Delta":46320317},{"NoteNumber":64,"Velocity":45,"Duration":172493,"SoundDuration":172493,"Delta":46320317},{"NoteNumber":75,"Velocity":53,"Duration":114995,"SoundDuration":114995,"Delta":46320317},{"NoteNumber":37,"Velocity":30,"Duration":57497,"SoundDuration":57497,"Delta":46320317},{"NoteNumber":49,"Velocity":37,"Duration":57497,"SoundDuration":57497,"Delta":46320317},{"NoteNumber":73,"Velocity":45,"Duration":57497,"SoundDuration":57497,"Delta":46435313},{"NoteNumber":68,"Velocity":45,"Duration":184685,"SoundDuration":184685,"Delta":46550308},{"NoteNumber":63,"Velocity":45,"Duration":184685,"SoundDuration":184685,"Delta":46550308},{"NoteNumber":73,"Velocity":53,"Duration":117822,"SoundDuration":117822,"Delta":46550308},{"NoteNumber":39,"Velocity":30,"Duration":58911,"SoundDuration":58911,"Delta":46550308},{"NoteNumber":51,"Velocity":37,"Duration":58911,"SoundDuration":58911,"Delta":46550308},{"NoteNumber":71,"Velocity":45,"Duration":66862,"SoundDuration":66862,"Delta":46668131},{"NoteNumber":63,"Velocity":53,"Duration":175302,"SoundDuration":175302,"Delta":46801856},{"NoteNumber":51,"Velocity":40,"Duration":58433,"SoundDuration":58433,"Delta":46801856},{"NoteNumber":71,"Velocity":45,"Duration":58434,"SoundDuration":58434,"Delta":46918724},{"NoteNumber":67,"Velocity":45,"Duration":178189,"SoundDuration":178189,"Delta":47035592},{"NoteNumber":61,"Velocity":45,"Duration":178189,"SoundDuration":178189,"Delta":47035592},{"NoteNumber":71,"Velocity":53,"Duration":118792,"SoundDuration":118792,"Delta":47035592},{"NoteNumber":39,"Velocity":30,"Duration":59396,"SoundDuration":59396,"Delta":47035592},{"NoteNumber":51,"Velocity":37,"Duration":59396,"SoundDuration":59396,"Delta":47035592},{"NoteNumber":70,"Velocity":45,"Duration":59396,"SoundDuration":59396,"Delta":47154385},{"NoteNumber":59,"Velocity":45,"Duration":134000,"SoundDuration":134000,"Delta":47273178},{"NoteNumber":68,"Velocity":53,"Duration":134000,"SoundDuration":134000,"Delta":47273178},{"NoteNumber":51,"Velocity":37,"Duration":67000,"SoundDuration":67000,"Delta":47273178},{"NoteNumber":44,"Velocity":30,"Duration":67000,"SoundDuration":67000,"Delta":47273178},{"NoteNumber":64,"Velocity":45,"Duration":178969,"SoundDuration":178969,"Delta":47541179},{"NoteNumber":61,"Velocity":45,"Duration":178969,"SoundDuration":178969,"Delta":47541179},{"NoteNumber":68,"Velocity":53,"Duration":119312,"SoundDuration":119312,"Delta":47541179},{"NoteNumber":37,"Velocity":34,"Duration":59656,"SoundDuration":59656,"Delta":47541179},{"NoteNumber":49,"Velocity":40,"Duration":59656,"SoundDuration":59656,"Delta":47541179},{"NoteNumber":71,"Velocity":45,"Duration":59656,"SoundDuration":59656,"Delta":47660492},{"NoteNumber":67,"Velocity":45,"Duration":176166,"SoundDuration":176166,"Delta":47779804},{"NoteNumber":61,"Velocity":45,"Duration":176166,"SoundDuration":176166,"Delta":47779804},{"NoteNumber":71,"Velocity":53,"Duration":117444,"SoundDuration":117444,"Delta":47779804},{"NoteNumber":51,"Velocity":37,"Duration":58722,"SoundDuration":58722,"Delta":47779804},{"NoteNumber":39,"Velocity":30,"Duration":58722,"SoundDuration":58722,"Delta":47779804},{"NoteNumber":70,"Velocity":45,"Duration":58722,"SoundDuration":58722,"Delta":47897249},{"NoteNumber":59,"Velocity":45,"Duration":179455,"SoundDuration":179455,"Delta":48014693},{"NoteNumber":70,"Velocity":53,"Duration":119064,"SoundDuration":119064,"Delta":48014693},{"NoteNumber":44,"Velocity":30,"Duration":59408,"SoundDuration":59408,"Delta":48014693},{"NoteNumber":56,"Velocity":37,"Duration":59408,"SoundDuration":59408,"Delta":48014693},{"NoteNumber":68,"Velocity":45,"Duration":60391,"SoundDuration":60391,"Delta":48133758},{"NoteNumber":64,"Velocity":45,"Duration":177458,"SoundDuration":177458,"Delta":48254540},{"NoteNumber":61,"Velocity":45,"Duration":177458,"SoundDuration":177458,"Delta":48254540},{"NoteNumber":68,"Velocity":53,"Duration":118305,"SoundDuration":118305,"Delta":48254540},{"NoteNumber":37,"Velocity":34,"Duration":59152,"SoundDuration":59152,"Delta":48254540},{"NoteNumber":49,"Velocity":40,"Duration":59152,"SoundDuration":59152,"Delta":48254540},{"NoteNumber":71,"Velocity":45,"Duration":59152,"SoundDuration":59152,"Delta":48372846},{"NoteNumber":67,"Velocity":45,"Duration":173713,"SoundDuration":173713,"Delta":48491152},{"NoteNumber":61,"Velocity":45,"Duration":173713,"SoundDuration":173713,"Delta":48491152},{"NoteNumber":71,"Velocity":53,"Duration":115758,"SoundDuration":115758,"Delta":48491152},{"NoteNumber":39,"Velocity":30,"Duration":57802,"SoundDuration":57802,"Delta":48491152},{"NoteNumber":51,"Velocity":37,"Duration":57802,"SoundDuration":57802,"Delta":48491152},{"NoteNumber":70,"Velocity":45,"Duration":57955,"SoundDuration":57955,"Delta":48606910},{"NoteNumber":59,"Velocity":45,"Duration":190504,"SoundDuration":190504,"Delta":48722821},{"NoteNumber":70,"Velocity":53,"Duration":120685,"SoundDuration":120685,"Delta":48722821},{"NoteNumber":40,"Velocity":30,"Duration":60342,"SoundDuration":60342,"Delta":48722821},{"NoteNumber":52,"Velocity":37,"Duration":60342,"SoundDuration":60342,"Delta":48722821},{"NoteNumber":68,"Velocity":45,"Duration":69819,"SoundDuration":69819,"Delta":48843506},{"NoteNumber":61,"Velocity":45,"Duration":183359,"SoundDuration":183359,"Delta":48983145},{"NoteNumber":64,"Velocity":53,"Duration":122239,"SoundDuration":122239,"Delta":48983145},{"NoteNumber":45,"Velocity":40,"Duration":61119,"SoundDuration":61119,"Delta":48983145},{"NoteNumber":33,"Velocity":34,"Duration":61119,"SoundDuration":61119,"Delta":48983145},{"NoteNumber":73,"Velocity":45,"Duration":61119,"SoundDuration":61119,"Delta":49105385},{"NoteNumber":68,"Velocity":45,"Duration":179526,"SoundDuration":179526,"Delta":49227624},{"NoteNumber":62,"Velocity":45,"Duration":179526,"SoundDuration":179526,"Delta":49227624},{"NoteNumber":73,"Velocity":53,"Duration":119683,"SoundDuration":119683,"Delta":49227624},{"NoteNumber":35,"Velocity":30,"Duration":59842,"SoundDuration":59842,"Delta":49227624},{"NoteNumber":47,"Velocity":37,"Duration":59842,"SoundDuration":59842,"Delta":49227624},{"NoteNumber":71,"Velocity":45,"Duration":59842,"SoundDuration":59842,"Delta":49347308},{"NoteNumber":64,"Velocity":45,"Duration":188596,"SoundDuration":188596,"Delta":49466992},{"NoteNumber":61,"Velocity":45,"Duration":188596,"SoundDuration":188596,"Delta":49466992},{"NoteNumber":71,"Velocity":53,"Duration":121733,"SoundDuration":121733,"Delta":49466992},{"NoteNumber":49,"Velocity":37,"Duration":60866,"SoundDuration":60866,"Delta":49466992},{"NoteNumber":37,"Velocity":30,"Duration":60866,"SoundDuration":60866,"Delta":49466992},{"NoteNumber":69,"Velocity":45,"Duration":66862,"SoundDuration":66862,"Delta":49588726},{"NoteNumber":59,"Velocity":45,"Duration":181834,"SoundDuration":181834,"Delta":49722451},{"NoteNumber":63,"Velocity":53,"Duration":181834,"SoundDuration":181834,"Delta":49722451},{"NoteNumber":39,"Velocity":38,"Duration":60091,"SoundDuration":60091,"Delta":49722451},{"NoteNumber":51,"Velocity":40,"Duration":60091,"SoundDuration":60091,"Delta":49722451},{"NoteNumber":71,"Velocity":45,"Duration":61652,"SoundDuration":61652,"Delta":49842634},{"NoteNumber":63,"Velocity":45,"Duration":378229,"SoundDuration":378229,"Delta":49965938},{"NoteNumber":58,"Velocity":45,"Duration":194330,"SoundDuration":194330,"Delta":49965938},{"NoteNumber":68,"Velocity":53,"Duration":127161,"SoundDuration":127161,"Delta":49965938},{"NoteNumber":27,"Velocity":30,"Duration":63580,"SoundDuration":63580,"Delta":49965938},{"NoteNumber":39,"Velocity":37,"Duration":63580,"SoundDuration":63580,"Delta":49965938},{"NoteNumber":67,"Velocity":45,"Duration":67168,"SoundDuration":67168,"Delta":50093100},{"NoteNumber":59,"Velocity":45,"Duration":116731,"SoundDuration":116731,"Delta":50227437},{"NoteNumber":68,"Velocity":53,"Duration":116731,"SoundDuration":116731,"Delta":50227437},{"NoteNumber":32,"Velocity":30,"Duration":58365,"SoundDuration":58365,"Delta":50227437},{"NoteNumber":44,"Velocity":37,"Duration":58365,"SoundDuration":58365,"Delta":50227437},{"NoteNumber":63,"Velocity":69,"Duration":1143330,"SoundDuration":1143330,"Delta":50927826},{"NoteNumber":39,"Velocity":63,"Duration":680153,"SoundDuration":680153,"Delta":50927826},{"NoteNumber":51,"Velocity":63,"Duration":911742,"SoundDuration":911742,"Delta":50927826},{"NoteNumber":59,"Velocity":59,"Duration":112141,"SoundDuration":112141,"Delta":51159414},{"NoteNumber":56,"Velocity":59,"Duration":112141,"SoundDuration":112141,"Delta":51159414},{"NoteNumber":55,"Velocity":55,"Duration":84105,"SoundDuration":84105,"Delta":51271555},{"NoteNumber":58,"Velocity":55,"Duration":84105,"SoundDuration":84105,"Delta":51271555},{"NoteNumber":55,"Velocity":55,"Duration":112141,"SoundDuration":112141,"Delta":51383697},{"NoteNumber":58,"Velocity":55,"Duration":112141,"SoundDuration":112141,"Delta":51383697},{"NoteNumber":58,"Velocity":55,"Duration":112141,"SoundDuration":112141,"Delta":51495838},{"NoteNumber":61,"Velocity":55,"Duration":112141,"SoundDuration":112141,"Delta":51495838},{"NoteNumber":44,"Velocity":63,"Duration":231588,"SoundDuration":231588,"Delta":51607979},{"NoteNumber":59,"Velocity":63,"Duration":231588,"SoundDuration":231588,"Delta":51607979},{"NoteNumber":56,"Velocity":63,"Duration":231588,"SoundDuration":231588,"Delta":51607979},{"NoteNumber":64,"Velocity":63,"Duration":247708,"SoundDuration":247708,"Delta":52071156},{"NoteNumber":63,"Velocity":69,"Duration":926864,"SoundDuration":926864,"Delta":52318865},{"NoteNumber":39,"Velocity":63,"Duration":680153,"SoundDuration":680153,"Delta":52318865},{"NoteNumber":51,"Velocity":63,"Duration":926864,"SoundDuration":926864,"Delta":52318865},{"NoteNumber":56,"Velocity":59,"Duration":112141,"SoundDuration":112141,"Delta":52550453},{"NoteNumber":59,"Velocity":59,"Duration":112141,"SoundDuration":112141,"Delta":52550453},{"NoteNumber":55,"Velocity":55,"Duration":84105,"SoundDuration":84105,"Delta":52662594},{"NoteNumber":58,"Velocity":55,"Duration":84105,"SoundDuration":84105,"Delta":52662594},{"NoteNumber":55,"Velocity":55,"Duration":112141,"SoundDuration":112141,"Delta":52774736},{"NoteNumber":58,"Velocity":55,"Duration":112141,"SoundDuration":112141,"Delta":52774736},{"NoteNumber":61,"Velocity":55,"Duration":112141,"SoundDuration":112141,"Delta":52886877},{"NoteNumber":58,"Velocity":55,"Duration":112141,"SoundDuration":112141,"Delta":52886877},{"NoteNumber":44,"Velocity":63,"Duration":246710,"SoundDuration":246710,"Delta":52999018},{"NoteNumber":59,"Velocity":63,"Duration":246710,"SoundDuration":246710,"Delta":52999018},{"NoteNumber":56,"Velocity":63,"Duration":246710,"SoundDuration":246710,"Delta":52999018},{"NoteNumber":66,"Velocity":63,"Duration":253378,"SoundDuration":253378,"Delta":53245729},{"NoteNumber":64,"Velocity":61,"Duration":260416,"SoundDuration":260416,"Delta":53499107},{"NoteNumber":63,"Velocity":70,"Duration":1022680,"SoundDuration":1022680,"Delta":53759524},{"NoteNumber":39,"Velocity":56,"Duration":739928,"SoundDuration":739928,"Delta":53759524},{"NoteNumber":51,"Velocity":56,"Duration":1022680,"SoundDuration":1022680,"Delta":53759524},{"NoteNumber":59,"Velocity":53,"Duration":123304,"SoundDuration":123304,"Delta":54006234},{"NoteNumber":56,"Velocity":53,"Duration":123304,"SoundDuration":123304,"Delta":54006234},{"NoteNumber":55,"Velocity":49,"Duration":92478,"SoundDuration":92478,"Delta":54129539},{"NoteNumber":58,"Velocity":49,"Duration":92478,"SoundDuration":92478,"Delta":54129539},{"NoteNumber":55,"Velocity":49,"Duration":123304,"SoundDuration":123304,"Delta":54252843},{"NoteNumber":58,"Velocity":49,"Duration":123304,"SoundDuration":123304,"Delta":54252843},{"NoteNumber":58,"Velocity":49,"Duration":123304,"SoundDuration":123304,"Delta":54376148},{"NoteNumber":61,"Velocity":49,"Duration":123304,"SoundDuration":123304,"Delta":54376148},{"NoteNumber":44,"Velocity":56,"Duration":282752,"SoundDuration":282752,"Delta":54499452},{"NoteNumber":59,"Velocity":56,"Duration":282752,"SoundDuration":282752,"Delta":54499452},{"NoteNumber":56,"Velocity":56,"Duration":282752,"SoundDuration":282752,"Delta":54499452},{"NoteNumber":68,"Velocity":54,"Duration":275735,"SoundDuration":275735,"Delta":54782204},{"NoteNumber":66,"Velocity":49,"Duration":288461,"SoundDuration":288461,"Delta":55057940},{"NoteNumber":64,"Velocity":48,"Duration":307377,"SoundDuration":307377,"Delta":55346401},{"NoteNumber":63,"Velocity":43,"Duration":667496,"SoundDuration":667496,"Delta":55653778},{"NoteNumber":27,"Velocity":81,"Duration":149925,"SoundDuration":149925,"Delta":56021425},{"NoteNumber":39,"Velocity":90,"Duration":149925,"SoundDuration":149925,"Delta":56021425},{"NoteNumber":51,"Velocity":99,"Duration":149925,"SoundDuration":149925,"Delta":56021425},{"NoteNumber":44,"Velocity":101,"Duration":149925,"SoundDuration":149925,"Delta":56321275},{"NoteNumber":32,"Velocity":90,"Duration":149925,"SoundDuration":149925,"Delta":56321275},{"NoteNumber":56,"Velocity":110,"Duration":149925,"SoundDuration":149925,"Delta":56321275}],"license":{"name":"Creative Commons Attribution-ShareAlike 3.0 Germany","url":"http://creativecommons.org/licenses/by-sa/3.0/de/deed.en","text":"The MIDI, audio (MP3, OGG) and video files of Bernd Krueger are licensed under the cc-by-sa Germany License. This means that you can use and adapt the files, as long as you attribute the copyright holder.\n\nName: Bernd Krueger\nSource: http://www.piano-midi.de\n\nThe distribution or public playback of the files is only allowed under identical license conditions.\n\nThe scores are open source.","attribution":"MIDI files by Bernd Krueger (piano-midi.de)","attributionUrl":"http://www.piano-midi.de"}}