{"title":"Chopin Mazurka Opus 33 Nr. 4","artist":"Chopin","durationMs":314562,"midiSha256":"c964f0eaf644387e90c534b1cf1f98fec0a941fea8908f9fa5c5af44352a49e0","midiObject":[{"NoteNumber":78,"Velocity":55,"Duration":750000,"SoundDuration":750000,"Delta":0},{"NoteNumber":47,"Velocity":50,"Duration":500000,"SoundDuration":500000,"Delta":500000},{"NoteNumber":83,"Velocity":50,"Duration":250000,"SoundDuration":250000,"Delta":750000},{"NoteNumber":79,"Velocity":50,"Duration":69124,"SoundDuration":69124,"Delta":1000000},{"NoteNumber":64,"Velocity":40,"Duration":507100,"SoundDuration":507100,"Delta":1000000},{"NoteNumber":59,"Velocity":34,"Duration":507100,"SoundDuration":507100,"Delta":1000000},{"NoteNumber":55,"Velocity":34,"Duration":507100,"SoundDuration":507100,"Delta":1000000},{"NoteNumber":81,"Velocity":50,"Duration":69124,"SoundDuration":69124,"Delta":1069124},{"NoteNumber":79,"Velocity":57,"Duration":368852,"SoundDuration":368852,"Delta":1138248},{"NoteNumber":78,"Velocity":53,"Duration":239043,"SoundDuration":239043,"Delta":1507100},{"NoteNumber":64,"Velocity":39,"Duration":489043,"SoundDuration":489043,"Delta":1507100},{"NoteNumber":59,"Velocity":33,"Duration":489043,"SoundDuration":489043,"Delta":1507100},{"NoteNumber":55,"Velocity":33,"Duration":489043,"SoundDuration":489043,"Delta":1507100},{"NoteNumber":76,"Velocity":50,"Duration":250000,"SoundDuration":250000,"Delta":1746144},{"NoteNumber":78,"Velocity":55,"Duration":252272,"SoundDuration":252272,"Delta":1996144},{"NoteNumber":47,"Velocity":50,"Duration":502272,"SoundDuration":502272,"Delta":1996144},{"NoteNumber":71,"Velocity":50,"Duration":1250000,"SoundDuration":1250000,"Delta":2248417},{"NoteNumber":62,"Velocity":31,"Duration":500000,"SoundDuration":500000,"Delta":2498417},{"NoteNumber":59,"Velocity":26,"Duration":500000,"SoundDuration":500000,"Delta":2498417},{"NoteNumber":54,"Velocity":26,"Duration":500000,"SoundDuration":500000,"Delta":2498417},{"NoteNumber":62,"Velocity":31,"Duration":500000,"SoundDuration":500000,"Delta":2998417},{"NoteNumber":59,"Velocity":26,"Duration":500000,"SoundDuration":500000,"Delta":2998417},{"NoteNumber":54,"Velocity":26,"Duration":500000,"SoundDuration":500000,"Delta":2998417},{"NoteNumber":73,"Velocity":58,"Duration":250000,"SoundDuration":250000,"Delta":3498417},{"NoteNumber":47,"Velocity":50,"Duration":500000,"SoundDuration":500000,"Delta":3498417},{"NoteNumber":76,"Velocity":50,"Duration":250000,"SoundDuration":250000,"Delta":3748417},{"NoteNumber":74,"Velocity":50,"Duration":70093,"SoundDuration":70093,"Delta":3998417},{"NoteNumber":64,"Velocity":40,"Duration":506040,"SoundDuration":506040,"Delta":3998417},{"NoteNumber":58,"Velocity":34,"Duration":506040,"SoundDuration":506040,"Delta":3998417},{"NoteNumber":54,"Velocity":34,"Duration":506040,"SoundDuration":506040,"Delta":3998417},{"NoteNumber":76,"Velocity":50,"Duration":70093,"SoundDuration":70093,"Delta":4068511},{"NoteNumber":74,"Velocity":57,"Duration":365853,"SoundDuration":365853,"Delta":4138604},{"NoteNumber":73,"Velocity":53,"Duration":489043,"SoundDuration":489043,"Delta":4504458},{"NoteNumber":64,"Velocity":39,"Duration":489043,"SoundDuration":489043,"Delta":4504458},{"NoteNumber":58,"Velocity":33,"Duration":489043,"SoundDuration":489043,"Delta":4504458},{"NoteNumber":54,"Velocity":33,"Duration":489043,"SoundDuration":489043,"Delta":4504458},{"NoteNumber":74,"Velocity":55,"Duration":252272,"SoundDuration":252272,"Delta":4993502},{"NoteNumber":47,"Velocity":50,"Duration":502272,"SoundDuration":502272,"Delta":4993502},{"NoteNumber":71,"Velocity":50,"Duration":1241803,"SoundDuration":1241803,"Delta":5245775},{"NoteNumber":62,"Velocity":31,"Duration":491803,"SoundDuration":491803,"Delta":5495775},{"NoteNumber":59,"Velocity":26,"Duration":491803,"SoundDuration":491803,"Delta":5495775},{"NoteNumber":54,"Velocity":26,"Duration":491803,"SoundDuration":491803,"Delta":5495775},{"NoteNumber":62,"Velocity":31,"Duration":500000,"SoundDuration":500000,"Delta":5987578},{"NoteNumber":59,"Velocity":26,"Duration":500000,"SoundDuration":500000,"Delta":5987578},{"NoteNumber":54,"Velocity":26,"Duration":500000,"SoundDuration":500000,"Delta":5987578},{"NoteNumber":73,"Velocity":58,"Duration":250000,"SoundDuration":250000,"Delta":6487578},{"NoteNumber":37,"Velocity":50,"Duration":500000,"SoundDuration":500000,"Delta":6487578},{"NoteNumber":71,"Velocity":50,"Duration":250000,"SoundDuration":250000,"Delta":6737578},{"NoteNumber":69,"Velocity":46,"Duration":73170,"SoundDuration":73170,"Delta":6987578},{"NoteNumber":59,"Velocity":40,"Duration":513688,"SoundDuration":513688,"Delta":6987578},{"NoteNumber":53,"Velocity":34,"Duration":513688,"SoundDuration":513688,"Delta":6987578},{"NoteNumber":49,"Velocity":34,"Duration":513688,"SoundDuration":513688,"Delta":6987578},{"NoteNumber":71,"Velocity":47,"Duration":73170,"SoundDuration":73170,"Delta":7060749},{"NoteNumber":69,"Velocity":55,"Duration":367347,"SoundDuration":367347,"Delta":7133919},{"NoteNumber":68,"Velocity":53,"Duration":489043,"SoundDuration":489043,"Delta":7501266},{"NoteNumber":59,"Velocity":39,"Duration":489043,"SoundDuration":489043,"Delta":7501266},{"NoteNumber":53,"Velocity":33,"Duration":489043,"SoundDuration":489043,"Delta":7501266},{"NoteNumber":49,"Velocity":33,"Duration":489043,"SoundDuration":489043,"Delta":7501266},{"NoteNumber":69,"Velocity":55,"Duration":252272,"SoundDuration":252272,"Delta":7990310},{"NoteNumber":42,"Velocity":50,"Duration":502272,"SoundDuration":502272,"Delta":7990310},{"NoteNumber":73,"Velocity":50,"Duration":500000,"SoundDuration":500000,"Delta":8242583},{"NoteNumber":57,"Velocity":37,"Duration":500000,"SoundDuration":500000,"Delta":8492583},{"NoteNumber":49,"Velocity":31,"Duration":500000,"SoundDuration":500000,"Delta":8492583},{"NoteNumber":61,"Velocity":68,"Duration":720000,"SoundDuration":720000,"Delta":8992583},{"NoteNumber":59,"Velocity":60,"Duration":248205,"SoundDuration":248205,"Delta":9712583},{"NoteNumber":57,"Velocity":57,"Duration":58823,"SoundDuration":58823,"Delta":9960789},{"NoteNumber":59,"Velocity":57,"Duration":58823,"SoundDuration":58823,"Delta":10019612},{"NoteNumber":57,"Velocity":68,"Duration":352940,"SoundDuration":352940,"Delta":10078436},{"NoteNumber":56,"Velocity":67,"Duration":485830,"SoundDuration":485830,"Delta":10431377},{"NoteNumber":57,"Velocity":71,"Duration":463319,"SoundDuration":463319,"Delta":10917207},{"NoteNumber":61,"Velocity":67,"Duration":943322,"SoundDuration":943322,"Delta":11380527},{"NoteNumber":59,"Velocity":71,"Duration":471660,"SoundDuration":471660,"Delta":12323849},{"NoteNumber":49,"Velocity":47,"Duration":1405357,"SoundDuration":1405357,"Delta":12323849},{"NoteNumber":56,"Velocity":58,"Duration":471660,"SoundDuration":471660,"Delta":12323849},{"NoteNumber":57,"Velocity":68,"Duration":462035,"SoundDuration":462035,"Delta":12795510},{"NoteNumber":54,"Velocity":55,"Duration":462035,"SoundDuration":462035,"Delta":12795510},{"NoteNumber":61,"Velocity":68,"Duration":471660,"SoundDuration":471660,"Delta":13257546},{"NoteNumber":57,"Velocity":55,"Duration":471660,"SoundDuration":471660,"Delta":13257546},{"NoteNumber":59,"Velocity":63,"Duration":66430,"SoundDuration":66430,"Delta":13729206},{"NoteNumber":49,"Velocity":47,"Duration":1412003,"SoundDuration":1412003,"Delta":13729206},{"NoteNumber":56,"Velocity":57,"Duration":244801,"SoundDuration":244801,"Delta":13729206},{"NoteNumber":61,"Velocity":63,"Duration":66430,"SoundDuration":66430,"Delta":13795637},{"NoteNumber":59,"Velocity":73,"Duration":111940,"SoundDuration":111940,"Delta":13862067},{"NoteNumber":57,"Velocity":66,"Duration":221081,"SoundDuration":221081,"Delta":13974008},{"NoteNumber":54,"Velocity":51,"Duration":223880,"SoundDuration":223880,"Delta":13974008},{"NoteNumber":61,"Velocity":72,"Duration":471660,"SoundDuration":471660,"Delta":14197888},{"NoteNumber":57,"Velocity":56,"Duration":471660,"SoundDuration":471660,"Delta":14197888},{"NoteNumber":61,"Velocity":68,"Duration":471661,"SoundDuration":471661,"Delta":14669549},{"NoteNumber":57,"Velocity":54,"Duration":471661,"SoundDuration":471661,"Delta":14669549},{"NoteNumber":59,"Velocity":61,"Duration":66120,"SoundDuration":66120,"Delta":15141210},{"NoteNumber":49,"Velocity":47,"Duration":1403015,"SoundDuration":1403015,"Delta":15141210},{"NoteNumber":56,"Velocity":57,"Duration":469318,"SoundDuration":469318,"Delta":15141210},{"NoteNumber":61,"Velocity":61,"Duration":66120,"SoundDuration":66120,"Delta":15207330},{"NoteNumber":59,"Velocity":72,"Duration":337078,"SoundDuration":337078,"Delta":15273450},{"NoteNumber":58,"Velocity":72,"Duration":462036,"SoundDuration":462036,"Delta":15610529},{"NoteNumber":54,"Velocity":56,"Duration":462036,"SoundDuration":462036,"Delta":15610529},{"NoteNumber":61,"Velocity":68,"Duration":471661,"SoundDuration":471661,"Delta":16072565},{"NoteNumber":58,"Velocity":54,"Duration":471661,"SoundDuration":471661,"Delta":16072565},{"NoteNumber":59,"Velocity":62,"Duration":66120,"SoundDuration":66120,"Delta":16544226},{"NoteNumber":49,"Velocity":47,"Duration":475961,"SoundDuration":475961,"Delta":16544226},{"NoteNumber":56,"Velocity":57,"Duration":246814,"SoundDuration":246814,"Delta":16544226},{"NoteNumber":61,"Velocity":63,"Duration":66120,"SoundDuration":66120,"Delta":16610346},{"NoteNumber":59,"Velocity":73,"Duration":114573,"SoundDuration":114573,"Delta":16676466},{"NoteNumber":58,"Velocity":66,"Duration":229147,"SoundDuration":229147,"Delta":16791040},{"NoteNumber":54,"Velocity":51,"Duration":700808,"SoundDuration":700808,"Delta":16791040},{"NoteNumber":66,"Velocity":72,"Duration":471661,"SoundDuration":471661,"Delta":17020188},{"NoteNumber":42,"Velocity":47,"Duration":971661,"SoundDuration":971661,"Delta":17020188},{"NoteNumber":78,"Velocity":58,"Duration":750000,"SoundDuration":750000,"Delta":17491849},{"NoteNumber":47,"Velocity":50,"Duration":500000,"SoundDuration":500000,"Delta":17991849},{"NoteNumber":83,"Velocity":50,"Duration":250000,"SoundDuration":250000,"Delta":18241849},{"NoteNumber":79,"Velocity":50,"Duration":69124,"SoundDuration":69124,"Delta":18491849},{"NoteNumber":64,"Velocity":40,"Duration":507100,"SoundDuration":507100,"Delta":18491849},{"NoteNumber":59,"Velocity":34,"Duration":507100,"SoundDuration":507100,"Delta":18491849},{"NoteNumber":55,"Velocity":34,"Duration":507100,"SoundDuration":507100,"Delta":18491849},{"NoteNumber":81,"Velocity":50,"Duration":69124,"SoundDuration":69124,"Delta":18560973},{"NoteNumber":79,"Velocity":57,"Duration":368852,"SoundDuration":368852,"Delta":18630097},{"NoteNumber":78,"Velocity":53,"Duration":239043,"SoundDuration":239043,"Delta":18998950},{"NoteNumber":64,"Velocity":39,"Duration":489043,"SoundDuration":489043,"Delta":18998950},{"NoteNumber":59,"Velocity":33,"Duration":489043,"SoundDuration":489043,"Delta":18998950},{"NoteNumber":55,"Velocity":33,"Duration":489043,"SoundDuration":489043,"Delta":18998950},{"NoteNumber":76,"Velocity":50,"Duration":250000,"SoundDuration":250000,"Delta":19237994},{"NoteNumber":78,"Velocity":55,"Duration":252272,"SoundDuration":252272,"Delta":19487994},{"NoteNumber":47,"Velocity":50,"Duration":502272,"SoundDuration":502272,"Delta":19487994},{"NoteNumber":71,"Velocity":50,"Duration":1250000,"SoundDuration":1250000,"Delta":19740266},{"NoteNumber":62,"Velocity":31,"Duration":500000,"SoundDuration":500000,"Delta":19990266},{"NoteNumber":59,"Velocity":26,"Duration":500000,"SoundDuration":500000,"Delta":19990266},{"NoteNumber":54,"Velocity":26,"Duration":500000,"SoundDuration":500000,"Delta":19990266},{"NoteNumber":62,"Velocity":31,"Duration":500000,"SoundDuration":500000,"Delta":20490266},{"NoteNumber":59,"Velocity":26,"Duration":500000,"SoundDuration":500000,"Delta":20490266},{"NoteNumber":54,"Velocity":26,"Duration":500000,"SoundDuration":500000,"Delta":20490266},{"NoteNumber":73,"Velocity":58,"Duration":250000,"SoundDuration":250000,"Delta":20990266},{"NoteNumber":47,"Velocity":50,"Duration":500000,"SoundDuration":500000,"Delta":20990266},{"NoteNumber":76,"Velocity":50,"Duration":250000,"SoundDuration":250000,"Delta":21240266},{"NoteNumber":74,"Velocity":50,"Duration":70093,"SoundDuration":70093,"Delta":21490266},{"NoteNumber":64,"Velocity":40,"Duration":506040,"SoundDuration":506040,"Delta":21490266},{"NoteNumber":58,"Velocity":34,"Duration":506040,"SoundDuration":506040,"Delta":21490266},{"NoteNumber":54,"Velocity":34,"Duration":506040,"SoundDuration":506040,"Delta":21490266},{"NoteNumber":76,"Velocity":50,"Duration":70093,"SoundDuration":70093,"Delta":21560360},{"NoteNumber":74,"Velocity":57,"Duration":365853,"SoundDuration":365853,"Delta":21630453},{"NoteNumber":73,"Velocity":53,"Duration":489043,"SoundDuration":489043,"Delta":21996307},{"NoteNumber":64,"Velocity":39,"Duration":489043,"SoundDuration":489043,"Delta":21996307},{"NoteNumber":58,"Velocity":33,"Duration":489043,"SoundDuration":489043,"Delta":21996307},{"NoteNumber":54,"Velocity":33,"Duration":489043,"SoundDuration":489043,"Delta":21996307},{"NoteNumber":74,"Velocity":55,"Duration":252272,"SoundDuration":252272,"Delta":22485351},{"NoteNumber":47,"Velocity":50,"Duration":502272,"SoundDuration":502272,"Delta":22485351},{"NoteNumber":71,"Velocity":50,"Duration":750000,"SoundDuration":750000,"Delta":22737624},{"NoteNumber":62,"Velocity":31,"Duration":500000,"SoundDuration":500000,"Delta":22987624},{"NoteNumber":59,"Velocity":26,"Duration":500000,"SoundDuration":500000,"Delta":22987624},{"NoteNumber":54,"Velocity":26,"Duration":500000,"SoundDuration":500000,"Delta":22987624},{"NoteNumber":50,"Velocity":66,"Duration":708661,"SoundDuration":708661,"Delta":23487624},{"NoteNumber":59,"Velocity":38,"Duration":472440,"SoundDuration":472440,"Delta":23960065},{"NoteNumber":65,"Velocity":43,"Duration":472440,"SoundDuration":472440,"Delta":23960065},{"NoteNumber":55,"Velocity":58,"Duration":236220,"SoundDuration":236220,"Delta":24196285},{"NoteNumber":52,"Velocity":65,"Duration":144404,"SoundDuration":144404,"Delta":24432506},{"NoteNumber":60,"Velocity":34,"Duration":433212,"SoundDuration":433212,"Delta":24432506},{"NoteNumber":64,"Velocity":38,"Duration":433212,"SoundDuration":433212,"Delta":24432506},{"NoteNumber":53,"Velocity":57,"Duration":144404,"SoundDuration":144404,"Delta":24576910},{"NoteNumber":52,"Velocity":55,"Duration":144404,"SoundDuration":144404,"Delta":24721315},{"NoteNumber":50,"Velocity":63,"Duration":236220,"SoundDuration":236220,"Delta":24865719},{"NoteNumber":60,"Velocity":34,"Duration":472440,"SoundDuration":472440,"Delta":24865719},{"NoteNumber":64,"Velocity":38,"Duration":472440,"SoundDuration":472440,"Delta":24865719},{"NoteNumber":48,"Velocity":57,"Duration":236220,"SoundDuration":236220,"Delta":25101939},{"NoteNumber":50,"Velocity":64,"Duration":357142,"SoundDuration":357142,"Delta":25338160},{"NoteNumber":55,"Velocity":41,"Duration":476189,"SoundDuration":476189,"Delta":25338160},{"NoteNumber":59,"Velocity":41,"Duration":476189,"SoundDuration":476189,"Delta":25338160},{"NoteNumber":65,"Velocity":46,"Duration":476189,"SoundDuration":476189,"Delta":25338160},{"NoteNumber":43,"Velocity":55,"Duration":119047,"SoundDuration":119047,"Delta":25695302},{"NoteNumber":50,"Velocity":64,"Duration":476190,"SoundDuration":476190,"Delta":25814350},{"NoteNumber":55,"Velocity":34,"Duration":476190,"SoundDuration":476190,"Delta":25814350},{"NoteNumber":59,"Velocity":34,"Duration":476190,"SoundDuration":476190,"Delta":25814350},{"NoteNumber":65,"Velocity":38,"Duration":476190,"SoundDuration":476190,"Delta":25814350},{"NoteNumber":48,"Velocity":59,"Duration":476189,"SoundDuration":476189,"Delta":26290540},{"NoteNumber":60,"Velocity":34,"Duration":476189,"SoundDuration":476189,"Delta":26290540},{"NoteNumber":64,"Velocity":38,"Duration":476189,"SoundDuration":476189,"Delta":26290540},{"NoteNumber":50,"Velocity":66,"Duration":236220,"SoundDuration":236220,"Delta":26766730},{"NoteNumber":59,"Velocity":38,"Duration":472440,"SoundDuration":472440,"Delta":26766730},{"NoteNumber":65,"Velocity":43,"Duration":472440,"SoundDuration":472440,"Delta":26766730},{"NoteNumber":55,"Velocity":58,"Duration":236220,"SoundDuration":236220,"Delta":27002950},{"NoteNumber":52,"Velocity":65,"Duration":144404,"SoundDuration":144404,"Delta":27239171},{"NoteNumber":60,"Velocity":34,"Duration":433212,"SoundDuration":433212,"Delta":27239171},{"NoteNumber":64,"Velocity":38,"Duration":433212,"SoundDuration":433212,"Delta":27239171},{"NoteNumber":53,"Velocity":57,"Duration":144404,"SoundDuration":144404,"Delta":27383575},{"NoteNumber":52,"Velocity":55,"Duration":144404,"SoundDuration":144404,"Delta":27527980},{"NoteNumber":50,"Velocity":63,"Duration":236220,"SoundDuration":236220,"Delta":27672384},{"NoteNumber":60,"Velocity":34,"Duration":472440,"SoundDuration":472440,"Delta":27672384},{"NoteNumber":64,"Velocity":38,"Duration":472440,"SoundDuration":472440,"Delta":27672384},{"NoteNumber":48,"Velocity":57,"Duration":236220,"SoundDuration":236220,"Delta":27908604},{"NoteNumber":50,"Velocity":64,"Duration":357142,"SoundDuration":357142,"Delta":28144825},{"NoteNumber":55,"Velocity":41,"Duration":476189,"SoundDuration":476189,"Delta":28144825},{"NoteNumber":59,"Velocity":41,"Duration":476189,"SoundDuration":476189,"Delta":28144825},{"NoteNumber":65,"Velocity":46,"Duration":476189,"SoundDuration":476189,"Delta":28144825},{"NoteNumber":43,"Velocity":54,"Duration":119047,"SoundDuration":119047,"Delta":28501967},{"NoteNumber":50,"Velocity":62,"Duration":476190,"SoundDuration":476190,"Delta":28621015},{"NoteNumber":55,"Velocity":33,"Duration":476190,"SoundDuration":476190,"Delta":28621015},{"NoteNumber":59,"Velocity":33,"Duration":476190,"SoundDuration":476190,"Delta":28621015},{"NoteNumber":65,"Velocity":37,"Duration":476190,"SoundDuration":476190,"Delta":28621015},{"NoteNumber":48,"Velocity":56,"Duration":476189,"SoundDuration":476189,"Delta":29097205},{"NoteNumber":60,"Velocity":32,"Duration":476189,"SoundDuration":476189,"Delta":29097205},{"NoteNumber":64,"Velocity":36,"Duration":476189,"SoundDuration":476189,"Delta":29097205},{"NoteNumber":50,"Velocity":60,"Duration":339622,"SoundDuration":339622,"Delta":29573395},{"NoteNumber":55,"Velocity":38,"Duration":452829,"SoundDuration":452829,"Delta":29573395},{"NoteNumber":59,"Velocity":38,"Duration":452829,"SoundDuration":452829,"Delta":29573395},{"NoteNumber":65,"Velocity":43,"Duration":452829,"SoundDuration":452829,"Delta":29573395},{"NoteNumber":43,"Velocity":51,"Duration":113207,"SoundDuration":113207,"Delta":29913017},{"NoteNumber":48,"Velocity":58,"Duration":487805,"SoundDuration":487805,"Delta":30026225},{"NoteNumber":60,"Velocity":31,"Duration":487805,"SoundDuration":487805,"Delta":30026225},{"NoteNumber":64,"Velocity":34,"Duration":487805,"SoundDuration":487805,"Delta":30026225},{"NoteNumber":50,"Velocity":57,"Duration":350194,"SoundDuration":350194,"Delta":30514030},{"NoteNumber":55,"Velocity":36,"Duration":466926,"SoundDuration":466926,"Delta":30514030},{"NoteNumber":59,"Velocity":36,"Duration":466926,"SoundDuration":466926,"Delta":30514030},{"NoteNumber":65,"Velocity":41,"Duration":466926,"SoundDuration":466926,"Delta":30514030},{"NoteNumber":43,"Velocity":48,"Duration":116731,"SoundDuration":116731,"Delta":30864224},{"NoteNumber":48,"Velocity":56,"Duration":493827,"SoundDuration":493827,"Delta":30980956},{"NoteNumber":60,"Velocity":29,"Duration":493827,"SoundDuration":493827,"Delta":30980956},{"NoteNumber":64,"Velocity":29,"Duration":493827,"SoundDuration":493827,"Delta":30980956},{"NoteNumber":50,"Velocity":55,"Duration":352941,"SoundDuration":352941,"Delta":31474783},{"NoteNumber":55,"Velocity":35,"Duration":470587,"SoundDuration":470587,"Delta":31474783},{"NoteNumber":59,"Velocity":35,"Duration":470587,"SoundDuration":470587,"Delta":31474783},{"NoteNumber":65,"Velocity":39,"Duration":470587,"SoundDuration":470587,"Delta":31474783},{"NoteNumber":43,"Velocity":46,"Duration":117646,"SoundDuration":117646,"Delta":31827724},{"NoteNumber":48,"Velocity":53,"Duration":502091,"SoundDuration":502091,"Delta":31945371},{"NoteNumber":60,"Velocity":28,"Duration":502091,"SoundDuration":502091,"Delta":31945371},{"NoteNumber":64,"Velocity":31,"Duration":502091,"SoundDuration":502091,"Delta":31945371},{"NoteNumber":43,"Velocity":52,"Duration":1506275,"SoundDuration":1506275,"Delta":32447463},{"NoteNumber":55,"Velocity":52,"Duration":1506275,"SoundDuration":1506275,"Delta":32447463},{"NoteNumber":42,"Velocity":48,"Duration":1506275,"SoundDuration":1506275,"Delta":33953739},{"NoteNumber":54,"Velocity":48,"Duration":1506275,"SoundDuration":1506275,"Delta":33953739},{"NoteNumber":78,"Velocity":55,"Duration":250000,"SoundDuration":250000,"Delta":35460015},{"NoteNumber":35,"Velocity":46,"Duration":500000,"SoundDuration":500000,"Delta":35460015},{"NoteNumber":47,"Velocity":50,"Duration":500000,"SoundDuration":500000,"Delta":35460015},{"NoteNumber":83,"Velocity":50,"Duration":250000,"SoundDuration":250000,"Delta":35710015},{"NoteNumber":79,"Velocity":50,"Duration":69124,"SoundDuration":69124,"Delta":35960015},{"NoteNumber":64,"Velocity":40,"Duration":507101,"SoundDuration":507101,"Delta":35960015},{"NoteNumber":59,"Velocity":34,"Duration":507101,"SoundDuration":507101,"Delta":35960015},{"NoteNumber":55,"Velocity":34,"Duration":507101,"SoundDuration":507101,"Delta":35960015},{"NoteNumber":81,"Velocity":50,"Duration":69124,"SoundDuration":69124,"Delta":36029139},{"NoteNumber":79,"Velocity":57,"Duration":368852,"SoundDuration":368852,"Delta":36098264},{"NoteNumber":78,"Velocity":53,"Duration":239043,"SoundDuration":239043,"Delta":36467116},{"NoteNumber":64,"Velocity":39,"Duration":489043,"SoundDuration":489043,"Delta":36467116},{"NoteNumber":59,"Velocity":33,"Duration":489043,"SoundDuration":489043,"Delta":36467116},{"NoteNumber":55,"Velocity":33,"Duration":489043,"SoundDuration":489043,"Delta":36467116},{"NoteNumber":76,"Velocity":50,"Duration":250000,"SoundDuration":250000,"Delta":36706160},{"NoteNumber":78,"Velocity":55,"Duration":252272,"SoundDuration":252272,"Delta":36956160},{"NoteNumber":47,"Velocity":50,"Duration":502272,"SoundDuration":502272,"Delta":36956160},{"NoteNumber":71,"Velocity":50,"Duration":1250000,"SoundDuration":1250000,"Delta":37208433},{"NoteNumber":62,"Velocity":31,"Duration":500000,"SoundDuration":500000,"Delta":37458433},{"NoteNumber":59,"Velocity":26,"Duration":500000,"SoundDuration":500000,"Delta":37458433},{"NoteNumber":54,"Velocity":26,"Duration":500000,"SoundDuration":500000,"Delta":37458433},{"NoteNumber":62,"Velocity":31,"Duration":500000,"SoundDuration":500000,"Delta":37958433},{"NoteNumber":59,"Velocity":26,"Duration":500000,"SoundDuration":500000,"Delta":37958433},{"NoteNumber":54,"Velocity":26,"Duration":500000,"SoundDuration":500000,"Delta":37958433},{"NoteNumber":73,"Velocity":58,"Duration":250000,"SoundDuration":250000,"Delta":38458433},{"NoteNumber":47,"Velocity":50,"Duration":500000,"SoundDuration":500000,"Delta":38458433},{"NoteNumber":76,"Velocity":50,"Duration":250000,"SoundDuration":250000,"Delta":38708433},{"NoteNumber":74,"Velocity":50,"Duration":70093,"SoundDuration":70093,"Delta":38958433},{"NoteNumber":64,"Velocity":40,"Duration":506040,"SoundDuration":506040,"Delta":38958433},{"NoteNumber":58,"Velocity":34,"Duration":506040,"SoundDuration":506040,"Delta":38958433},{"NoteNumber":54,"Velocity":34,"Duration":506040,"SoundDuration":506040,"Delta":38958433},{"NoteNumber":76,"Velocity":50,"Duration":70093,"SoundDuration":70093,"Delta":39028526},{"NoteNumber":74,"Velocity":57,"Duration":365853,"SoundDuration":365853,"Delta":39098620},{"NoteNumber":73,"Velocity":53,"Duration":489043,"SoundDuration":489043,"Delta":39464474},{"NoteNumber":64,"Velocity":39,"Duration":489043,"SoundDuration":489043,"Delta":39464474},{"NoteNumber":58,"Velocity":33,"Duration":489043,"SoundDuration":489043,"Delta":39464474},{"NoteNumber":54,"Velocity":33,"Duration":489043,"SoundDuration":489043,"Delta":39464474},{"NoteNumber":74,"Velocity":55,"Duration":252272,"SoundDuration":252272,"Delta":39953518},{"NoteNumber":47,"Velocity":50,"Duration":502272,"SoundDuration":502272,"Delta":39953518},{"NoteNumber":71,"Velocity":50,"Duration":1237653,"SoundDuration":1237653,"Delta":40205790},{"NoteNumber":62,"Velocity":31,"Duration":493827,"SoundDuration":493827,"Delta":40455790},{"NoteNumber":59,"Velocity":26,"Duration":493827,"SoundDuration":493827,"Delta":40455790},{"NoteNumber":54,"Velocity":26,"Duration":493827,"SoundDuration":493827,"Delta":40455790},{"NoteNumber":62,"Velocity":31,"Duration":493826,"SoundDuration":493826,"Delta":40949617},{"NoteNumber":59,"Velocity":26,"Duration":493826,"SoundDuration":493826,"Delta":40949617},{"NoteNumber":54,"Velocity":26,"Duration":493826,"SoundDuration":493826,"Delta":40949617},{"NoteNumber":73,"Velocity":58,"Duration":250000,"SoundDuration":250000,"Delta":41443444},{"NoteNumber":37,"Velocity":50,"Duration":500000,"SoundDuration":500000,"Delta":41443444},{"NoteNumber":71,"Velocity":50,"Duration":250000,"SoundDuration":250000,"Delta":41693444},{"NoteNumber":69,"Velocity":46,"Duration":73170,"SoundDuration":73170,"Delta":41943444},{"NoteNumber":59,"Velocity":40,"Duration":513688,"SoundDuration":513688,"Delta":41943444},{"NoteNumber":53,"Velocity":34,"Duration":513688,"SoundDuration":513688,"Delta":41943444},{"NoteNumber":49,"Velocity":34,"Duration":513688,"SoundDuration":513688,"Delta":41943444},{"NoteNumber":71,"Velocity":47,"Duration":73170,"SoundDuration":73170,"Delta":42016615},{"NoteNumber":69,"Velocity":55,"Duration":367347,"SoundDuration":367347,"Delta":42089786},{"NoteNumber":68,"Velocity":53,"Duration":489043,"SoundDuration":489043,"Delta":42457133},{"NoteNumber":59,"Velocity":39,"Duration":489043,"SoundDuration":489043,"Delta":42457133},{"NoteNumber":53,"Velocity":33,"Duration":489043,"SoundDuration":489043,"Delta":42457133},{"NoteNumber":49,"Velocity":33,"Duration":489043,"SoundDuration":489043,"Delta":42457133},{"NoteNumber":69,"Velocity":55,"Duration":252272,"SoundDuration":252272,"Delta":42946177},{"NoteNumber":42,"Velocity":50,"Duration":502272,"SoundDuration":502272,"Delta":42946177},{"NoteNumber":73,"Velocity":50,"Duration":500000,"SoundDuration":500000,"Delta":43198450},{"NoteNumber":57,"Velocity":37,"Duration":500000,"SoundDuration":500000,"Delta":43448450},{"NoteNumber":49,"Velocity":31,"Duration":500000,"SoundDuration":500000,"Delta":43448450},{"NoteNumber":61,"Velocity":68,"Duration":722892,"SoundDuration":722892,"Delta":43948450},{"NoteNumber":59,"Velocity":60,"Duration":248141,"SoundDuration":248141,"Delta":44671342},{"NoteNumber":57,"Velocity":57,"Duration":58139,"SoundDuration":58139,"Delta":44919483},{"NoteNumber":59,"Velocity":57,"Duration":58139,"SoundDuration":58139,"Delta":44977623},{"NoteNumber":57,"Velocity":68,"Duration":348837,"SoundDuration":348837,"Delta":45035762},{"NoteNumber":56,"Velocity":67,"Duration":485830,"SoundDuration":485830,"Delta":45384599},{"NoteNumber":57,"Velocity":71,"Duration":465116,"SoundDuration":465116,"Delta":45870429},{"NoteNumber":61,"Velocity":67,"Duration":945030,"SoundDuration":945030,"Delta":46335545},{"NoteNumber":59,"Velocity":71,"Duration":472514,"SoundDuration":472514,"Delta":47280575},{"NoteNumber":49,"Velocity":47,"Duration":1407921,"SoundDuration":1407921,"Delta":47280575},{"NoteNumber":56,"Velocity":58,"Duration":472514,"SoundDuration":472514,"Delta":47280575},{"NoteNumber":57,"Velocity":68,"Duration":462891,"SoundDuration":462891,"Delta":47753090},{"NoteNumber":54,"Velocity":55,"Duration":462891,"SoundDuration":462891,"Delta":47753090},{"NoteNumber":61,"Velocity":68,"Duration":472515,"SoundDuration":472515,"Delta":48215982},{"NoteNumber":57,"Velocity":55,"Duration":472515,"SoundDuration":472515,"Delta":48215982},{"NoteNumber":59,"Velocity":63,"Duration":66554,"SoundDuration":66554,"Delta":48688497},{"NoteNumber":49,"Velocity":47,"Duration":1415216,"SoundDuration":1415216,"Delta":48688497},{"NoteNumber":56,"Velocity":57,"Duration":245467,"SoundDuration":245467,"Delta":48688497},{"NoteNumber":61,"Velocity":63,"Duration":66554,"SoundDuration":66554,"Delta":48755051},{"NoteNumber":59,"Velocity":73,"Duration":112359,"SoundDuration":112359,"Delta":48821606},{"NoteNumber":57,"Velocity":66,"Duration":220973,"SoundDuration":220973,"Delta":48933965},{"NoteNumber":54,"Velocity":51,"Duration":224719,"SoundDuration":224719,"Delta":48933965},{"NoteNumber":61,"Velocity":72,"Duration":472515,"SoundDuration":472515,"Delta":49158684},{"NoteNumber":57,"Velocity":56,"Duration":472515,"SoundDuration":472515,"Delta":49158684},{"NoteNumber":61,"Velocity":68,"Duration":472515,"SoundDuration":472515,"Delta":49631199},{"NoteNumber":57,"Velocity":54,"Duration":472515,"SoundDuration":472515,"Delta":49631199},{"NoteNumber":59,"Velocity":61,"Duration":66242,"SoundDuration":66242,"Delta":50103714},{"NoteNumber":49,"Velocity":47,"Duration":1403713,"SoundDuration":1403713,"Delta":50103714},{"NoteNumber":56,"Velocity":57,"Duration":468306,"SoundDuration":468306,"Delta":50103714},{"NoteNumber":61,"Velocity":61,"Duration":66242,"SoundDuration":66242,"Delta":50169957},{"NoteNumber":59,"Velocity":72,"Duration":335820,"SoundDuration":335820,"Delta":50236200},{"NoteNumber":58,"Velocity":72,"Duration":462891,"SoundDuration":462891,"Delta":50572020},{"NoteNumber":54,"Velocity":56,"Duration":462891,"SoundDuration":462891,"Delta":50572020},{"NoteNumber":61,"Velocity":68,"Duration":472515,"SoundDuration":472515,"Delta":51034912},{"NoteNumber":58,"Velocity":54,"Duration":472515,"SoundDuration":472515,"Delta":51034912},{"NoteNumber":59,"Velocity":62,"Duration":66242,"SoundDuration":66242,"Delta":51507427},{"NoteNumber":49,"Velocity":47,"Duration":476838,"SoundDuration":476838,"Delta":51507427},{"NoteNumber":56,"Velocity":57,"Duration":247269,"SoundDuration":247269,"Delta":51507427},{"NoteNumber":61,"Velocity":63,"Duration":66242,"SoundDuration":66242,"Delta":51573670},{"NoteNumber":59,"Velocity":73,"Duration":114784,"SoundDuration":114784,"Delta":51639913},{"NoteNumber":58,"Velocity":66,"Duration":229568,"SoundDuration":229568,"Delta":51754697},{"NoteNumber":54,"Velocity":51,"Duration":702083,"SoundDuration":702083,"Delta":51754697},{"NoteNumber":66,"Velocity":72,"Duration":472515,"SoundDuration":472515,"Delta":51984266},{"NoteNumber":42,"Velocity":47,"Duration":972515,"SoundDuration":972515,"Delta":51984266},{"NoteNumber":78,"Velocity":58,"Duration":750000,"SoundDuration":750000,"Delta":52456781},{"NoteNumber":47,"Velocity":50,"Duration":500000,"SoundDuration":500000,"Delta":52956781},{"NoteNumber":83,"Velocity":50,"Duration":250000,"SoundDuration":250000,"Delta":53206781},{"NoteNumber":79,"Velocity":50,"Duration":69124,"SoundDuration":69124,"Delta":53456781},{"NoteNumber":64,"Velocity":40,"Duration":507101,"SoundDuration":507101,"Delta":53456781},{"NoteNumber":59,"Velocity":34,"Duration":507101,"SoundDuration":507101,"Delta":53456781},{"NoteNumber":55,"Velocity":34,"Duration":507101,"SoundDuration":507101,"Delta":53456781},{"NoteNumber":81,"Velocity":50,"Duration":69124,"SoundDuration":69124,"Delta":53525905},{"NoteNumber":79,"Velocity":57,"Duration":368852,"SoundDuration":368852,"Delta":53595029},{"NoteNumber":78,"Velocity":53,"Duration":239043,"SoundDuration":239043,"Delta":53963882},{"NoteNumber":64,"Velocity":39,"Duration":489043,"SoundDuration":489043,"Delta":53963882},{"NoteNumber":59,"Velocity":33,"Duration":489043,"SoundDuration":489043,"Delta":53963882},{"NoteNumber":55,"Velocity":33,"Duration":489043,"SoundDuration":489043,"Delta":53963882},{"NoteNumber":76,"Velocity":50,"Duration":250000,"SoundDuration":250000,"Delta":54202926},{"NoteNumber":78,"Velocity":55,"Duration":252272,"SoundDuration":252272,"Delta":54452926},{"NoteNumber":47,"Velocity":50,"Duration":502272,"SoundDuration":502272,"Delta":54452926},{"NoteNumber":71,"Velocity":50,"Duration":1237805,"SoundDuration":1237805,"Delta":54705199},{"NoteNumber":62,"Velocity":31,"Duration":487805,"SoundDuration":487805,"Delta":54955199},{"NoteNumber":59,"Velocity":26,"Duration":487805,"SoundDuration":487805,"Delta":54955199},{"NoteNumber":54,"Velocity":26,"Duration":487805,"SoundDuration":487805,"Delta":54955199},{"NoteNumber":62,"Velocity":31,"Duration":500000,"SoundDuration":500000,"Delta":55443004},{"NoteNumber":59,"Velocity":26,"Duration":500000,"SoundDuration":500000,"Delta":55443004},{"NoteNumber":54,"Velocity":26,"Duration":500000,"SoundDuration":500000,"Delta":55443004},{"NoteNumber":73,"Velocity":58,"Duration":250000,"SoundDuration":250000,"Delta":55943004},{"NoteNumber":47,"Velocity":50,"Duration":500000,"SoundDuration":500000,"Delta":55943004},{"NoteNumber":76,"Velocity":50,"Duration":250000,"SoundDuration":250000,"Delta":56193004},{"NoteNumber":74,"Velocity":50,"Duration":70093,"SoundDuration":70093,"Delta":56443004},{"NoteNumber":64,"Velocity":40,"Duration":506040,"SoundDuration":506040,"Delta":56443004},{"NoteNumber":58,"Velocity":34,"Duration":506040,"SoundDuration":506040,"Delta":56443004},{"NoteNumber":54,"Velocity":34,"Duration":506040,"SoundDuration":506040,"Delta":56443004},{"NoteNumber":76,"Velocity":50,"Duration":70093,"SoundDuration":70093,"Delta":56513097},{"NoteNumber":74,"Velocity":57,"Duration":365853,"SoundDuration":365853,"Delta":56583191},{"NoteNumber":73,"Velocity":53,"Duration":489043,"SoundDuration":489043,"Delta":56949044},{"NoteNumber":64,"Velocity":39,"Duration":489043,"SoundDuration":489043,"Delta":56949044},{"NoteNumber":58,"Velocity":33,"Duration":489043,"SoundDuration":489043,"Delta":56949044},{"NoteNumber":54,"Velocity":33,"Duration":489043,"SoundDuration":489043,"Delta":56949044},{"NoteNumber":74,"Velocity":55,"Duration":252272,"SoundDuration":252272,"Delta":57438088},{"NoteNumber":47,"Velocity":50,"Duration":502272,"SoundDuration":502272,"Delta":57438088},{"NoteNumber":71,"Velocity":50,"Duration":750000,"SoundDuration":750000,"Delta":57690361},{"NoteNumber":62,"Velocity":31,"Duration":500000,"SoundDuration":500000,"Delta":57940361},{"NoteNumber":59,"Velocity":26,"Duration":500000,"SoundDuration":500000,"Delta":57940361},{"NoteNumber":54,"Velocity":26,"Duration":500000,"SoundDuration":500000,"Delta":57940361},{"NoteNumber":50,"Velocity":66,"Duration":708661,"SoundDuration":708661,"Delta":58440361},{"NoteNumber":59,"Velocity":38,"Duration":472440,"SoundDuration":472440,"Delta":58912802},{"NoteNumber":65,"Velocity":43,"Duration":472440,"SoundDuration":472440,"Delta":58912802},{"NoteNumber":55,"Velocity":58,"Duration":236220,"SoundDuration":236220,"Delta":59149023},{"NoteNumber":52,"Velocity":65,"Duration":144404,"SoundDuration":144404,"Delta":59385243},{"NoteNumber":60,"Velocity":34,"Duration":433213,"SoundDuration":433213,"Delta":59385243},{"NoteNumber":64,"Velocity":38,"Duration":433213,"SoundDuration":433213,"Delta":59385243},{"NoteNumber":53,"Velocity":57,"Duration":144404,"SoundDuration":144404,"Delta":59529647},{"NoteNumber":52,"Velocity":55,"Duration":144404,"SoundDuration":144404,"Delta":59674052},{"NoteNumber":50,"Velocity":63,"Duration":236220,"SoundDuration":236220,"Delta":59818456},{"NoteNumber":60,"Velocity":34,"Duration":472441,"SoundDuration":472441,"Delta":59818456},{"NoteNumber":64,"Velocity":38,"Duration":472441,"SoundDuration":472441,"Delta":59818456},{"NoteNumber":48,"Velocity":57,"Duration":236220,"SoundDuration":236220,"Delta":60054677},{"NoteNumber":50,"Velocity":64,"Duration":357142,"SoundDuration":357142,"Delta":60290897},{"NoteNumber":55,"Velocity":41,"Duration":476190,"SoundDuration":476190,"Delta":60290897},{"NoteNumber":59,"Velocity":41,"Duration":476190,"SoundDuration":476190,"Delta":60290897},{"NoteNumber":65,"Velocity":46,"Duration":476190,"SoundDuration":476190,"Delta":60290897},{"NoteNumber":43,"Velocity":55,"Duration":119047,"SoundDuration":119047,"Delta":60648040},{"NoteNumber":50,"Velocity":64,"Duration":476189,"SoundDuration":476189,"Delta":60767087},{"NoteNumber":55,"Velocity":34,"Duration":476189,"SoundDuration":476189,"Delta":60767087},{"NoteNumber":59,"Velocity":34,"Duration":476189,"SoundDuration":476189,"Delta":60767087},{"NoteNumber":65,"Velocity":38,"Duration":476189,"SoundDuration":476189,"Delta":60767087},{"NoteNumber":48,"Velocity":59,"Duration":476190,"SoundDuration":476190,"Delta":61243277},{"NoteNumber":60,"Velocity":34,"Duration":476190,"SoundDuration":476190,"Delta":61243277},{"NoteNumber":64,"Velocity":38,"Duration":476190,"SoundDuration":476190,"Delta":61243277},{"NoteNumber":50,"Velocity":66,"Duration":236220,"SoundDuration":236220,"Delta":61719467},{"NoteNumber":59,"Velocity":38,"Duration":472441,"SoundDuration":472441,"Delta":61719467},{"NoteNumber":65,"Velocity":43,"Duration":472441,"SoundDuration":472441,"Delta":61719467},{"NoteNumber":55,"Velocity":58,"Duration":236220,"SoundDuration":236220,"Delta":61955688},{"NoteNumber":52,"Velocity":65,"Duration":144404,"SoundDuration":144404,"Delta":62191908},{"NoteNumber":60,"Velocity":34,"Duration":433213,"SoundDuration":433213,"Delta":62191908},{"NoteNumber":64,"Velocity":38,"Duration":433213,"SoundDuration":433213,"Delta":62191908},{"NoteNumber":53,"Velocity":57,"Duration":144404,"SoundDuration":144404,"Delta":62336312},{"NoteNumber":52,"Velocity":55,"Duration":144404,"SoundDuration":144404,"Delta":62480717},{"NoteNumber":50,"Velocity":63,"Duration":236220,"SoundDuration":236220,"Delta":62625121},{"NoteNumber":60,"Velocity":34,"Duration":472440,"SoundDuration":472440,"Delta":62625121},{"NoteNumber":64,"Velocity":38,"Duration":472440,"SoundDuration":472440,"Delta":62625121},{"NoteNumber":48,"Velocity":57,"Duration":236220,"SoundDuration":236220,"Delta":62861342},{"NoteNumber":50,"Velocity":64,"Duration":357142,"SoundDuration":357142,"Delta":63097562},{"NoteNumber":55,"Velocity":41,"Duration":476190,"SoundDuration":476190,"Delta":63097562},{"NoteNumber":59,"Velocity":41,"Duration":476190,"SoundDuration":476190,"Delta":63097562},{"NoteNumber":65,"Velocity":46,"Duration":476190,"SoundDuration":476190,"Delta":63097562},{"NoteNumber":43,"Velocity":54,"Duration":119047,"SoundDuration":119047,"Delta":63454705},{"NoteNumber":50,"Velocity":62,"Duration":476190,"SoundDuration":476190,"Delta":63573752},{"NoteNumber":55,"Velocity":33,"Duration":476190,"SoundDuration":476190,"Delta":63573752},{"NoteNumber":59,"Velocity":33,"Duration":476190,"SoundDuration":476190,"Delta":63573752},{"NoteNumber":65,"Velocity":37,"Duration":476190,"SoundDuration":476190,"Delta":63573752},{"NoteNumber":48,"Velocity":56,"Duration":476189,"SoundDuration":476189,"Delta":64049942},{"NoteNumber":60,"Velocity":32,"Duration":476189,"SoundDuration":476189,"Delta":64049942},{"NoteNumber":64,"Velocity":36,"Duration":476189,"SoundDuration":476189,"Delta":64049942},{"NoteNumber":50,"Velocity":60,"Duration":339622,"SoundDuration":339622,"Delta":64526132},{"NoteNumber":55,"Velocity":38,"Duration":452830,"SoundDuration":452830,"Delta":64526132},{"NoteNumber":59,"Velocity":38,"Duration":452830,"SoundDuration":452830,"Delta":64526132},{"NoteNumber":65,"Velocity":43,"Duration":452830,"SoundDuration":452830,"Delta":64526132},{"NoteNumber":43,"Velocity":51,"Duration":113207,"SoundDuration":113207,"Delta":64865755},{"NoteNumber":48,"Velocity":58,"Duration":487804,"SoundDuration":487804,"Delta":64978962},{"NoteNumber":60,"Velocity":31,"Duration":487804,"SoundDuration":487804,"Delta":64978962},{"NoteNumber":64,"Velocity":34,"Duration":487804,"SoundDuration":487804,"Delta":64978962},{"NoteNumber":50,"Velocity":57,"Duration":350194,"SoundDuration":350194,"Delta":65466767},{"NoteNumber":55,"Velocity":36,"Duration":466926,"SoundDuration":466926,"Delta":65466767},{"NoteNumber":59,"Velocity":36,"Duration":466926,"SoundDuration":466926,"Delta":65466767},{"NoteNumber":65,"Velocity":41,"Duration":466926,"SoundDuration":466926,"Delta":65466767},{"NoteNumber":43,"Velocity":48,"Duration":116731,"SoundDuration":116731,"Delta":65816962},{"NoteNumber":48,"Velocity":56,"Duration":493826,"SoundDuration":493826,"Delta":65933693},{"NoteNumber":60,"Velocity":29,"Duration":493826,"SoundDuration":493826,"Delta":65933693},{"NoteNumber":64,"Velocity":29,"Duration":493826,"SoundDuration":493826,"Delta":65933693},{"NoteNumber":50,"Velocity":55,"Duration":352941,"SoundDuration":352941,"Delta":66427520},{"NoteNumber":55,"Velocity":35,"Duration":470588,"SoundDuration":470588,"Delta":66427520},{"NoteNumber":59,"Velocity":35,"Duration":470588,"SoundDuration":470588,"Delta":66427520},{"NoteNumber":65,"Velocity":39,"Duration":470588,"SoundDuration":470588,"Delta":66427520},{"NoteNumber":43,"Velocity":46,"Duration":117647,"SoundDuration":117647,"Delta":66780461},{"NoteNumber":48,"Velocity":53,"Duration":502092,"SoundDuration":502092,"Delta":66898108},{"NoteNumber":60,"Velocity":28,"Duration":502092,"SoundDuration":502092,"Delta":66898108},{"NoteNumber":64,"Velocity":31,"Duration":502092,"SoundDuration":502092,"Delta":66898108},{"NoteNumber":43,"Velocity":52,"Duration":1506275,"SoundDuration":1506275,"Delta":67400200},{"NoteNumber":55,"Velocity":52,"Duration":1506275,"SoundDuration":1506275,"Delta":67400200},{"NoteNumber":42,"Velocity":60,"Duration":1030041,"SoundDuration":1030041,"Delta":68906476},{"NoteNumber":54,"Velocity":59,"Duration":1030041,"SoundDuration":1030041,"Delta":68906476},{"NoteNumber":41,"Velocity":66,"Duration":582524,"SoundDuration":582524,"Delta":69936518},{"NoteNumber":53,"Velocity":62,"Duration":582524,"SoundDuration":582524,"Delta":69936518},{"NoteNumber":34,"Velocity":74,"Duration":200000,"SoundDuration":200000,"Delta":70519042},{"NoteNumber":65,"Velocity":68,"Duration":377358,"SoundDuration":377358,"Delta":70919042},{"NoteNumber":70,"Velocity":68,"Duration":377358,"SoundDuration":377358,"Delta":70919042},{"NoteNumber":74,"Velocity":80,"Duration":377358,"SoundDuration":377358,"Delta":70919042},{"NoteNumber":53,"Velocity":54,"Duration":377358,"SoundDuration":377358,"Delta":70919042},{"NoteNumber":62,"Velocity":64,"Duration":377358,"SoundDuration":377358,"Delta":70919042},{"NoteNumber":58,"Velocity":54,"Duration":377358,"SoundDuration":377358,"Delta":70919042},{"NoteNumber":66,"Velocity":68,"Duration":377358,"SoundDuration":377358,"Delta":71296400},{"NoteNumber":70,"Velocity":68,"Duration":377358,"SoundDuration":377358,"Delta":71296400},{"NoteNumber":75,"Velocity":80,"Duration":377358,"SoundDuration":377358,"Delta":71296400},{"NoteNumber":63,"Velocity":64,"Duration":377358,"SoundDuration":377358,"Delta":71296400},{"NoteNumber":58,"Velocity":64,"Duration":377358,"SoundDuration":377358,"Delta":71296400},{"NoteNumber":54,"Velocity":64,"Duration":377358,"SoundDuration":377358,"Delta":71296400},{"NoteNumber":78,"Velocity":86,"Duration":90361,"SoundDuration":90361,"Delta":71673758},{"NoteNumber":46,"Velocity":73,"Duration":180723,"SoundDuration":180723,"Delta":71673758},{"NoteNumber":77,"Velocity":80,"Duration":348396,"SoundDuration":348396,"Delta":71944843},{"NoteNumber":74,"Velocity":61,"Duration":86005,"SoundDuration":86005,"Delta":71944843},{"NoteNumber":72,"Velocity":61,"Duration":262390,"SoundDuration":262390,"Delta":72030848},{"NoteNumber":65,"Velocity":68,"Duration":734468,"SoundDuration":734468,"Delta":72030848},{"NoteNumber":62,"Velocity":57,"Duration":734468,"SoundDuration":734468,"Delta":72030848},{"NoteNumber":58,"Velocity":57,"Duration":734468,"SoundDuration":734468,"Delta":72030848},{"NoteNumber":74,"Velocity":61,"Duration":87463,"SoundDuration":87463,"Delta":72293239},{"NoteNumber":77,"Velocity":80,"Duration":375924,"SoundDuration":375924,"Delta":72293239},{"NoteNumber":70,"Velocity":80,"Duration":384614,"SoundDuration":384614,"Delta":72380702},{"NoteNumber":53,"Velocity":68,"Duration":384614,"SoundDuration":384614,"Delta":72380702},{"NoteNumber":82,"Velocity":85,"Duration":192307,"SoundDuration":192307,"Delta":72765317},{"NoteNumber":34,"Velocity":72,"Duration":192307,"SoundDuration":192307,"Delta":72765317},{"NoteNumber":65,"Velocity":68,"Duration":377358,"SoundDuration":377358,"Delta":73149932},{"NoteNumber":70,"Velocity":68,"Duration":377358,"SoundDuration":377358,"Delta":73149932},{"NoteNumber":74,"Velocity":80,"Duration":377358,"SoundDuration":377358,"Delta":73149932},{"NoteNumber":53,"Velocity":54,"Duration":377358,"SoundDuration":377358,"Delta":73149932},{"NoteNumber":62,"Velocity":64,"Duration":377358,"SoundDuration":377358,"Delta":73149932},{"NoteNumber":58,"Velocity":54,"Duration":377358,"SoundDuration":377358,"Delta":73149932},{"NoteNumber":66,"Velocity":68,"Duration":377358,"SoundDuration":377358,"Delta":73527290},{"NoteNumber":70,"Velocity":68,"Duration":377358,"SoundDuration":377358,"Delta":73527290},{"NoteNumber":75,"Velocity":80,"Duration":377358,"SoundDuration":377358,"Delta":73527290},{"NoteNumber":63,"Velocity":64,"Duration":377358,"SoundDuration":377358,"Delta":73527290},{"NoteNumber":58,"Velocity":64,"Duration":377358,"SoundDuration":377358,"Delta":73527290},{"NoteNumber":54,"Velocity":64,"Duration":377358,"SoundDuration":377358,"Delta":73527290},{"NoteNumber":78,"Velocity":86,"Duration":90361,"SoundDuration":90361,"Delta":73904648},{"NoteNumber":46,"Velocity":73,"Duration":180723,"SoundDuration":180723,"Delta":73904648},{"NoteNumber":77,"Velocity":80,"Duration":349889,"SoundDuration":349889,"Delta":74175733},{"NoteNumber":74,"Velocity":61,"Duration":85960,"SoundDuration":85960,"Delta":74175733},{"NoteNumber":72,"Velocity":61,"Duration":263929,"SoundDuration":263929,"Delta":74261693},{"NoteNumber":65,"Velocity":68,"Duration":736520,"SoundDuration":736520,"Delta":74261693},{"NoteNumber":62,"Velocity":57,"Duration":736520,"SoundDuration":736520,"Delta":74261693},{"NoteNumber":58,"Velocity":57,"Duration":736520,"SoundDuration":736520,"Delta":74261693},{"NoteNumber":74,"Velocity":61,"Duration":87976,"SoundDuration":87976,"Delta":74525622},{"NoteNumber":77,"Velocity":80,"Duration":376437,"SoundDuration":376437,"Delta":74525622},{"NoteNumber":70,"Velocity":80,"Duration":384614,"SoundDuration":384614,"Delta":74613599},{"NoteNumber":53,"Velocity":68,"Duration":384614,"SoundDuration":384614,"Delta":74613599},{"NoteNumber":34,"Velocity":79,"Duration":200000,"SoundDuration":200000,"Delta":74998214},{"NoteNumber":65,"Velocity":68,"Duration":377358,"SoundDuration":377358,"Delta":75398214},{"NoteNumber":70,"Velocity":68,"Duration":377358,"SoundDuration":377358,"Delta":75398214},{"NoteNumber":74,"Velocity":80,"Duration":377358,"SoundDuration":377358,"Delta":75398214},{"NoteNumber":53,"Velocity":54,"Duration":377358,"SoundDuration":377358,"Delta":75398214},{"NoteNumber":62,"Velocity":64,"Duration":377358,"SoundDuration":377358,"Delta":75398214},{"NoteNumber":58,"Velocity":54,"Duration":377358,"SoundDuration":377358,"Delta":75398214},{"NoteNumber":66,"Velocity":68,"Duration":377358,"SoundDuration":377358,"Delta":75775572},{"NoteNumber":70,"Velocity":68,"Duration":377358,"SoundDuration":377358,"Delta":75775572},{"NoteNumber":75,"Velocity":80,"Duration":377358,"SoundDuration":377358,"Delta":75775572},{"NoteNumber":63,"Velocity":64,"Duration":377358,"SoundDuration":377358,"Delta":75775572},{"NoteNumber":58,"Velocity":64,"Duration":377358,"SoundDuration":377358,"Delta":75775572},{"NoteNumber":54,"Velocity":64,"Duration":377358,"SoundDuration":377358,"Delta":75775572},{"NoteNumber":78,"Velocity":86,"Duration":90361,"SoundDuration":90361,"Delta":76152930},{"NoteNumber":46,"Velocity":73,"Duration":180723,"SoundDuration":180723,"Delta":76152930},{"NoteNumber":77,"Velocity":80,"Duration":346583,"SoundDuration":346583,"Delta":76424014},{"NoteNumber":74,"Velocity":61,"Duration":85714,"SoundDuration":85714,"Delta":76424014},{"NoteNumber":72,"Velocity":61,"Duration":260869,"SoundDuration":260869,"Delta":76509729},{"NoteNumber":65,"Velocity":68,"Duration":732440,"SoundDuration":732440,"Delta":76509729},{"NoteNumber":62,"Velocity":57,"Duration":732440,"SoundDuration":732440,"Delta":76509729},{"NoteNumber":58,"Velocity":57,"Duration":732440,"SoundDuration":732440,"Delta":76509729},{"NoteNumber":74,"Velocity":61,"Duration":86956,"SoundDuration":86956,"Delta":76770598},{"NoteNumber":77,"Velocity":80,"Duration":375417,"SoundDuration":375417,"Delta":76770598},{"NoteNumber":70,"Velocity":80,"Duration":384614,"SoundDuration":384614,"Delta":76857555},{"NoteNumber":53,"Velocity":68,"Duration":384614,"SoundDuration":384614,"Delta":76857555},{"NoteNumber":94,"Velocity":85,"Duration":192307,"SoundDuration":192307,"Delta":77242170},{"NoteNumber":82,"Velocity":80,"Duration":192307,"SoundDuration":192307,"Delta":77242170},{"NoteNumber":46,"Velocity":72,"Duration":192307,"SoundDuration":192307,"Delta":77242170},{"NoteNumber":34,"Velocity":69,"Duration":192307,"SoundDuration":192307,"Delta":77242170},{"NoteNumber":65,"Velocity":68,"Duration":377358,"SoundDuration":377358,"Delta":77626785},{"NoteNumber":70,"Velocity":68,"Duration":377358,"SoundDuration":377358,"Delta":77626785},{"NoteNumber":74,"Velocity":80,"Duration":377358,"SoundDuration":377358,"Delta":77626785},{"NoteNumber":53,"Velocity":54,"Duration":377358,"SoundDuration":377358,"Delta":77626785},{"NoteNumber":62,"Velocity":64,"Duration":377358,"SoundDuration":377358,"Delta":77626785},{"NoteNumber":58,"Velocity":54,"Duration":377358,"SoundDuration":377358,"Delta":77626785},{"NoteNumber":66,"Velocity":68,"Duration":377358,"SoundDuration":377358,"Delta":78004143},{"NoteNumber":70,"Velocity":68,"Duration":377358,"SoundDuration":377358,"Delta":78004143},{"NoteNumber":75,"Velocity":80,"Duration":377358,"SoundDuration":377358,"Delta":78004143},{"NoteNumber":63,"Velocity":64,"Duration":377358,"SoundDuration":377358,"Delta":78004143},{"NoteNumber":58,"Velocity":64,"Duration":377358,"SoundDuration":377358,"Delta":78004143},{"NoteNumber":54,"Velocity":64,"Duration":377358,"SoundDuration":377358,"Delta":78004143},{"NoteNumber":78,"Velocity":86,"Duration":90361,"SoundDuration":90361,"Delta":78381501},{"NoteNumber":46,"Velocity":73,"Duration":180723,"SoundDuration":180723,"Delta":78381501},{"NoteNumber":77,"Velocity":80,"Duration":348597,"SoundDuration":348597,"Delta":78652585},{"NoteNumber":74,"Velocity":61,"Duration":86207,"SoundDuration":86207,"Delta":78652585},{"NoteNumber":72,"Velocity":61,"Duration":262390,"SoundDuration":262390,"Delta":78738792},{"NoteNumber":65,"Velocity":68,"Duration":734468,"SoundDuration":734468,"Delta":78738792},{"NoteNumber":62,"Velocity":57,"Duration":734468,"SoundDuration":734468,"Delta":78738792},{"NoteNumber":58,"Velocity":57,"Duration":734468,"SoundDuration":734468,"Delta":78738792},{"NoteNumber":74,"Velocity":61,"Duration":87463,"SoundDuration":87463,"Delta":79001183},{"NoteNumber":77,"Velocity":80,"Duration":375924,"SoundDuration":375924,"Delta":79001183},{"NoteNumber":70,"Velocity":80,"Duration":384614,"SoundDuration":384614,"Delta":79088646},{"NoteNumber":53,"Velocity":68,"Duration":384614,"SoundDuration":384614,"Delta":79088646},{"NoteNumber":39,"Velocity":81,"Duration":200000,"SoundDuration":200000,"Delta":79473261},{"NoteNumber":70,"Velocity":68,"Duration":377358,"SoundDuration":377358,"Delta":79873261},{"NoteNumber":75,"Velocity":68,"Duration":377358,"SoundDuration":377358,"Delta":79873261},{"NoteNumber":79,"Velocity":80,"Duration":377358,"SoundDuration":377358,"Delta":79873261},{"NoteNumber":58,"Velocity":54,"Duration":377358,"SoundDuration":377358,"Delta":79873261},{"NoteNumber":67,"Velocity":64,"Duration":377358,"SoundDuration":377358,"Delta":79873261},{"NoteNumber":63,"Velocity":54,"Duration":377358,"SoundDuration":377358,"Delta":79873261},{"NoteNumber":71,"Velocity":68,"Duration":377358,"SoundDuration":377358,"Delta":80250619},{"NoteNumber":75,"Velocity":68,"Duration":377358,"SoundDuration":377358,"Delta":80250619},{"NoteNumber":80,"Velocity":80,"Duration":377358,"SoundDuration":377358,"Delta":80250619},{"NoteNumber":68,"Velocity":64,"Duration":377358,"SoundDuration":377358,"Delta":80250619},{"NoteNumber":63,"Velocity":64,"Duration":377358,"SoundDuration":377358,"Delta":80250619},{"NoteNumber":59,"Velocity":64,"Duration":377358,"SoundDuration":377358,"Delta":80250619},{"NoteNumber":83,"Velocity":88,"Duration":90361,"SoundDuration":90361,"Delta":80627977},{"NoteNumber":51,"Velocity":73,"Duration":180723,"SoundDuration":180723,"Delta":80627977},{"NoteNumber":82,"Velocity":88,"Duration":353519,"SoundDuration":353519,"Delta":80899062},{"NoteNumber":79,"Velocity":61,"Duration":90361,"SoundDuration":90361,"Delta":80899062},{"NoteNumber":77,"Velocity":61,"Duration":263157,"SoundDuration":263157,"Delta":80989423},{"NoteNumber":67,"Velocity":68,"Duration":350876,"SoundDuration":350876,"Delta":80989423},{"NoteNumber":63,"Velocity":57,"Duration":350876,"SoundDuration":350876,"Delta":80989423},{"NoteNumber":58,"Velocity":57,"Duration":350876,"SoundDuration":350876,"Delta":80989423},{"NoteNumber":79,"Velocity":61,"Duration":87719,"SoundDuration":87719,"Delta":81252581},{"NoteNumber":82,"Velocity":88,"Duration":376180,"SoundDuration":376180,"Delta":81252581},{"NoteNumber":75,"Velocity":80,"Duration":384614,"SoundDuration":384614,"Delta":81340300},{"NoteNumber":51,"Velocity":68,"Duration":384614,"SoundDuration":384614,"Delta":81340300},{"NoteNumber":99,"Velocity":93,"Duration":192307,"SoundDuration":192307,"Delta":81724915},{"NoteNumber":87,"Velocity":88,"Duration":192307,"SoundDuration":192307,"Delta":81724915},{"NoteNumber":39,"Velocity":73,"Duration":192307,"SoundDuration":192307,"Delta":81724915},{"NoteNumber":70,"Velocity":68,"Duration":377358,"SoundDuration":377358,"Delta":82109530},{"NoteNumber":75,"Velocity":68,"Duration":377358,"SoundDuration":377358,"Delta":82109530},{"NoteNumber":79,"Velocity":80,"Duration":377358,"SoundDuration":377358,"Delta":82109530},{"NoteNumber":58,"Velocity":54,"Duration":377358,"SoundDuration":377358,"Delta":82109530},{"NoteNumber":67,"Velocity":64,"Duration":377358,"SoundDuration":377358,"Delta":82109530},{"NoteNumber":63,"Velocity":54,"Duration":377358,"SoundDuration":377358,"Delta":82109530},{"NoteNumber":71,"Velocity":68,"Duration":377358,"SoundDuration":377358,"Delta":82486888},{"NoteNumber":75,"Velocity":68,"Duration":377358,"SoundDuration":377358,"Delta":82486888},{"NoteNumber":80,"Velocity":80,"Duration":377358,"SoundDuration":377358,"Delta":82486888},{"NoteNumber":68,"Velocity":64,"Duration":377358,"SoundDuration":377358,"Delta":82486888},{"NoteNumber":63,"Velocity":64,"Duration":377358,"SoundDuration":377358,"Delta":82486888},{"NoteNumber":59,"Velocity":64,"Duration":377358,"SoundDuration":377358,"Delta":82486888},{"NoteNumber":83,"Velocity":87,"Duration":93457,"SoundDuration":93457,"Delta":82864246},{"NoteNumber":51,"Velocity":73,"Duration":186915,"SoundDuration":186915,"Delta":82864246},{"NoteNumber":82,"Velocity":88,"Duration":366185,"SoundDuration":366185,"Delta":83144620},{"NoteNumber":79,"Velocity":61,"Duration":93457,"SoundDuration":93457,"Delta":83144620},{"NoteNumber":77,"Velocity":61,"Duration":272727,"SoundDuration":272727,"Delta":83238078},{"NoteNumber":70,"Velocity":68,"Duration":363635,"SoundDuration":363635,"Delta":83238078},{"NoteNumber":67,"Velocity":57,"Duration":363635,"SoundDuration":363635,"Delta":83238078},{"NoteNumber":61,"Velocity":57,"Duration":363635,"SoundDuration":363635,"Delta":83238078},{"NoteNumber":79,"Velocity":61,"Duration":90908,"SoundDuration":90908,"Delta":83510805},{"NoteNumber":82,"Velocity":88,"Duration":379370,"SoundDuration":379370,"Delta":83510805},{"NoteNumber":76,"Velocity":80,"Duration":1525361,"SoundDuration":1525361,"Delta":83601714},{"NoteNumber":51,"Velocity":68,"Duration":384614,"SoundDuration":384614,"Delta":83601714},{"NoteNumber":39,"Velocity":73,"Duration":192307,"SoundDuration":192307,"Delta":83986329},{"NoteNumber":70,"Velocity":68,"Duration":371516,"SoundDuration":371516,"Delta":84370944},{"NoteNumber":79,"Velocity":80,"Duration":371516,"SoundDuration":371516,"Delta":84370944},{"NoteNumber":61,"Velocity":65,"Duration":371516,"SoundDuration":371516,"Delta":84370944},{"NoteNumber":71,"Velocity":65,"Duration":384614,"SoundDuration":384614,"Delta":84742461},{"NoteNumber":80,"Velocity":77,"Duration":384614,"SoundDuration":384614,"Delta":84742461},{"NoteNumber":62,"Velocity":57,"Duration":384614,"SoundDuration":384614,"Delta":84742461},{"NoteNumber":70,"Velocity":65,"Duration":2337945,"SoundDuration":2337945,"Delta":85127076},{"NoteNumber":75,"Velocity":65,"Duration":377963,"SoundDuration":377963,"Delta":85127076},{"NoteNumber":79,"Velocity":77,"Duration":377963,"SoundDuration":377963,"Delta":85127076},{"NoteNumber":63,"Velocity":59,"Duration":377963,"SoundDuration":377963,"Delta":85127076},{"NoteNumber":73,"Velocity":62,"Duration":1568563,"SoundDuration":1568563,"Delta":85505040},{"NoteNumber":78,"Velocity":74,"Duration":385557,"SoundDuration":385557,"Delta":85505040},{"NoteNumber":64,"Velocity":57,"Duration":385557,"SoundDuration":385557,"Delta":85505040},{"NoteNumber":77,"Velocity":71,"Duration":393456,"SoundDuration":393456,"Delta":85890597},{"NoteNumber":65,"Velocity":54,"Duration":393456,"SoundDuration":393456,"Delta":85890597},{"NoteNumber":76,"Velocity":69,"Duration":1180968,"SoundDuration":1180968,"Delta":86284054},{"NoteNumber":66,"Velocity":52,"Duration":398670,"SoundDuration":398670,"Delta":86284054},{"NoteNumber":54,"Velocity":59,"Duration":342019,"SoundDuration":342019,"Delta":86682725},{"NoteNumber":57,"Velocity":60,"Duration":48859,"SoundDuration":48859,"Delta":87024744},{"NoteNumber":55,"Velocity":68,"Duration":391418,"SoundDuration":391418,"Delta":87073604},{"NoteNumber":54,"Velocity":62,"Duration":404658,"SoundDuration":404658,"Delta":87465022},{"NoteNumber":49,"Velocity":55,"Duration":420249,"SoundDuration":420249,"Delta":87869681},{"NoteNumber":50,"Velocity":54,"Duration":437089,"SoundDuration":437089,"Delta":88289930},{"NoteNumber":78,"Velocity":55,"Duration":250000,"SoundDuration":250000,"Delta":88727020},{"NoteNumber":47,"Velocity":50,"Duration":500000,"SoundDuration":500000,"Delta":88727020},{"NoteNumber":83,"Velocity":50,"Duration":250000,"SoundDuration":250000,"Delta":88977020},{"NoteNumber":79,"Velocity":50,"Duration":69124,"SoundDuration":69124,"Delta":89227020},{"NoteNumber":64,"Velocity":40,"Duration":507101,"SoundDuration":507101,"Delta":89227020},{"NoteNumber":59,"Velocity":34,"Duration":507101,"SoundDuration":507101,"Delta":89227020},{"NoteNumber":55,"Velocity":34,"Duration":507101,"SoundDuration":507101,"Delta":89227020},{"NoteNumber":81,"Velocity":50,"Duration":69124,"SoundDuration":69124,"Delta":89296144},{"NoteNumber":79,"Velocity":57,"Duration":368852,"SoundDuration":368852,"Delta":89365269},{"NoteNumber":78,"Velocity":53,"Duration":239044,"SoundDuration":239044,"Delta":89734121},{"NoteNumber":64,"Velocity":39,"Duration":489044,"SoundDuration":489044,"Delta":89734121},{"NoteNumber":59,"Velocity":33,"Duration":489044,"SoundDuration":489044,"Delta":89734121},{"NoteNumber":55,"Velocity":33,"Duration":489044,"SoundDuration":489044,"Delta":89734121},{"NoteNumber":76,"Velocity":50,"Duration":250000,"SoundDuration":250000,"Delta":89973165},{"NoteNumber":78,"Velocity":55,"Duration":252272,"SoundDuration":252272,"Delta":90223165},{"NoteNumber":47,"Velocity":50,"Duration":502272,"SoundDuration":502272,"Delta":90223165},{"NoteNumber":71,"Velocity":50,"Duration":1215361,"SoundDuration":1215361,"Delta":90475438},{"NoteNumber":62,"Velocity":31,"Duration":483434,"SoundDuration":483434,"Delta":90725438},{"NoteNumber":59,"Velocity":26,"Duration":483434,"SoundDuration":483434,"Delta":90725438},{"NoteNumber":54,"Velocity":26,"Duration":483434,"SoundDuration":483434,"Delta":90725438},{"NoteNumber":62,"Velocity":31,"Duration":481927,"SoundDuration":481927,"Delta":91208872},{"NoteNumber":59,"Velocity":26,"Duration":481927,"SoundDuration":481927,"Delta":91208872},{"NoteNumber":54,"Velocity":26,"Duration":481927,"SoundDuration":481927,"Delta":91208872},{"NoteNumber":73,"Velocity":58,"Duration":250000,"SoundDuration":250000,"Delta":91690800},{"NoteNumber":47,"Velocity":50,"Duration":500000,"SoundDuration":500000,"Delta":91690800},{"NoteNumber":76,"Velocity":50,"Duration":250000,"SoundDuration":250000,"Delta":91940800},{"NoteNumber":74,"Velocity":50,"Duration":70093,"SoundDuration":70093,"Delta":92190800},{"NoteNumber":64,"Velocity":40,"Duration":506040,"SoundDuration":506040,"Delta":92190800},{"NoteNumber":58,"Velocity":34,"Duration":506040,"SoundDuration":506040,"Delta":92190800},{"NoteNumber":54,"Velocity":34,"Duration":506040,"SoundDuration":506040,"Delta":92190800},{"NoteNumber":76,"Velocity":50,"Duration":70093,"SoundDuration":70093,"Delta":92260893},{"NoteNumber":74,"Velocity":57,"Duration":365853,"SoundDuration":365853,"Delta":92330987},{"NoteNumber":73,"Velocity":53,"Duration":489044,"SoundDuration":489044,"Delta":92696841},{"NoteNumber":64,"Velocity":39,"Duration":489044,"SoundDuration":489044,"Delta":92696841},{"NoteNumber":58,"Velocity":33,"Duration":489044,"SoundDuration":489044,"Delta":92696841},{"NoteNumber":54,"Velocity":33,"Duration":489044,"SoundDuration":489044,"Delta":92696841},{"NoteNumber":74,"Velocity":55,"Duration":252272,"SoundDuration":252272,"Delta":93185885},{"NoteNumber":47,"Velocity":50,"Duration":502272,"SoundDuration":502272,"Delta":93185885},{"NoteNumber":71,"Velocity":50,"Duration":1229591,"SoundDuration":1229591,"Delta":93438158},{"NoteNumber":62,"Velocity":31,"Duration":489795,"SoundDuration":489795,"Delta":93688158},{"NoteNumber":59,"Velocity":26,"Duration":489795,"SoundDuration":489795,"Delta":93688158},{"NoteNumber":54,"Velocity":26,"Duration":489795,"SoundDuration":489795,"Delta":93688158},{"NoteNumber":62,"Velocity":31,"Duration":489795,"SoundDuration":489795,"Delta":94177954},{"NoteNumber":59,"Velocity":26,"Duration":489795,"SoundDuration":489795,"Delta":94177954},{"NoteNumber":54,"Velocity":26,"Duration":489795,"SoundDuration":489795,"Delta":94177954},{"NoteNumber":73,"Velocity":58,"Duration":250000,"SoundDuration":250000,"Delta":94667750},{"NoteNumber":37,"Velocity":50,"Duration":500000,"SoundDuration":500000,"Delta":94667750},{"NoteNumber":71,"Velocity":50,"Duration":250000,"SoundDuration":250000,"Delta":94917750},{"NoteNumber":69,"Velocity":46,"Duration":73170,"SoundDuration":73170,"Delta":95167750},{"NoteNumber":59,"Velocity":40,"Duration":513688,"SoundDuration":513688,"Delta":95167750},{"NoteNumber":53,"Velocity":34,"Duration":513688,"SoundDuration":513688,"Delta":95167750},{"NoteNumber":49,"Velocity":34,"Duration":513688,"SoundDuration":513688,"Delta":95167750},{"NoteNumber":71,"Velocity":47,"Duration":73170,"SoundDuration":73170,"Delta":95240920},{"NoteNumber":69,"Velocity":55,"Duration":367346,"SoundDuration":367346,"Delta":95314091},{"NoteNumber":68,"Velocity":53,"Duration":489044,"SoundDuration":489044,"Delta":95681438},{"NoteNumber":59,"Velocity":39,"Duration":489044,"SoundDuration":489044,"Delta":95681438},{"NoteNumber":53,"Velocity":33,"Duration":489044,"SoundDuration":489044,"Delta":95681438},{"NoteNumber":49,"Velocity":33,"Duration":489044,"SoundDuration":489044,"Delta":95681438},{"NoteNumber":69,"Velocity":55,"Duration":252272,"SoundDuration":252272,"Delta":96170482},{"NoteNumber":42,"Velocity":50,"Duration":502272,"SoundDuration":502272,"Delta":96170482},{"NoteNumber":73,"Velocity":50,"Duration":500000,"SoundDuration":500000,"Delta":96422755},{"NoteNumber":57,"Velocity":37,"Duration":500000,"SoundDuration":500000,"Delta":96672755},{"NoteNumber":49,"Velocity":31,"Duration":500000,"SoundDuration":500000,"Delta":96672755},{"NoteNumber":61,"Velocity":68,"Duration":722892,"SoundDuration":722892,"Delta":97172755},{"NoteNumber":59,"Velocity":60,"Duration":248141,"SoundDuration":248141,"Delta":97895647},{"NoteNumber":57,"Velocity":57,"Duration":58365,"SoundDuration":58365,"Delta":98143788},{"NoteNumber":59,"Velocity":57,"Duration":58365,"SoundDuration":58365,"Delta":98202154},{"NoteNumber":57,"Velocity":68,"Duration":350194,"SoundDuration":350194,"Delta":98260520},{"NoteNumber":56,"Velocity":67,"Duration":485830,"SoundDuration":485830,"Delta":98610714},{"NoteNumber":57,"Velocity":71,"Duration":465115,"SoundDuration":465115,"Delta":99096544},{"NoteNumber":61,"Velocity":67,"Duration":945626,"SoundDuration":945626,"Delta":99561660},{"NoteNumber":59,"Velocity":71,"Duration":472813,"SoundDuration":472813,"Delta":100507286},{"NoteNumber":49,"Velocity":47,"Duration":1408803,"SoundDuration":1408803,"Delta":100507286},{"NoteNumber":56,"Velocity":58,"Duration":472813,"SoundDuration":472813,"Delta":100507286},{"NoteNumber":57,"Velocity":68,"Duration":463177,"SoundDuration":463177,"Delta":100980099},{"NoteNumber":54,"Velocity":55,"Duration":463177,"SoundDuration":463177,"Delta":100980099},{"NoteNumber":61,"Velocity":68,"Duration":472813,"SoundDuration":472813,"Delta":101443276},{"NoteNumber":57,"Velocity":55,"Duration":472813,"SoundDuration":472813,"Delta":101443276},{"NoteNumber":59,"Velocity":63,"Duration":66595,"SoundDuration":66595,"Delta":101916089},{"NoteNumber":49,"Velocity":47,"Duration":1413390,"SoundDuration":1413390,"Delta":101916089},{"NoteNumber":56,"Velocity":57,"Duration":244715,"SoundDuration":244715,"Delta":101916089},{"NoteNumber":61,"Velocity":63,"Duration":66595,"SoundDuration":66595,"Delta":101982685},{"NoteNumber":59,"Velocity":73,"Duration":111524,"SoundDuration":111524,"Delta":102049281},{"NoteNumber":57,"Velocity":66,"Duration":220260,"SoundDuration":220260,"Delta":102160805},{"NoteNumber":54,"Velocity":51,"Duration":223048,"SoundDuration":223048,"Delta":102160805},{"NoteNumber":61,"Velocity":72,"Duration":472813,"SoundDuration":472813,"Delta":102383853},{"NoteNumber":57,"Velocity":56,"Duration":472813,"SoundDuration":472813,"Delta":102383853},{"NoteNumber":61,"Velocity":68,"Duration":472813,"SoundDuration":472813,"Delta":102856666},{"NoteNumber":57,"Velocity":54,"Duration":472813,"SoundDuration":472813,"Delta":102856666},{"NoteNumber":59,"Velocity":61,"Duration":66283,"SoundDuration":66283,"Delta":103329479},{"NoteNumber":49,"Velocity":47,"Duration":1397024,"SoundDuration":1397024,"Delta":103329479},{"NoteNumber":56,"Velocity":57,"Duration":461034,"SoundDuration":461034,"Delta":103329479},{"NoteNumber":61,"Velocity":61,"Duration":66283,"SoundDuration":66283,"Delta":103395763},{"NoteNumber":59,"Velocity":72,"Duration":328467,"SoundDuration":328467,"Delta":103462047},{"NoteNumber":58,"Velocity":72,"Duration":463177,"SoundDuration":463177,"Delta":103790514},{"NoteNumber":54,"Velocity":56,"Duration":463177,"SoundDuration":463177,"Delta":103790514},{"NoteNumber":61,"Velocity":68,"Duration":472813,"SoundDuration":472813,"Delta":104253691},{"NoteNumber":58,"Velocity":54,"Duration":472813,"SoundDuration":472813,"Delta":104253691},{"NoteNumber":59,"Velocity":62,"Duration":66283,"SoundDuration":66283,"Delta":104726504},{"NoteNumber":49,"Velocity":47,"Duration":477131,"SoundDuration":477131,"Delta":104726504},{"NoteNumber":56,"Velocity":57,"Duration":247422,"SoundDuration":247422,"Delta":104726504},{"NoteNumber":61,"Velocity":63,"Duration":66283,"SoundDuration":66283,"Delta":104792788},{"NoteNumber":59,"Velocity":73,"Duration":114854,"SoundDuration":114854,"Delta":104859071},{"NoteNumber":58,"Velocity":66,"Duration":229708,"SoundDuration":229708,"Delta":104973926},{"NoteNumber":54,"Velocity":51,"Duration":702522,"SoundDuration":702522,"Delta":104973926},{"NoteNumber":66,"Velocity":72,"Duration":472813,"SoundDuration":472813,"Delta":105203635},{"NoteNumber":42,"Velocity":47,"Duration":972813,"SoundDuration":972813,"Delta":105203635},{"NoteNumber":78,"Velocity":58,"Duration":750000,"SoundDuration":750000,"Delta":105676448},{"NoteNumber":47,"Velocity":50,"Duration":500000,"SoundDuration":500000,"Delta":106176448},{"NoteNumber":83,"Velocity":50,"Duration":250000,"SoundDuration":250000,"Delta":106426448},{"NoteNumber":79,"Velocity":50,"Duration":69124,"SoundDuration":69124,"Delta":106676448},{"NoteNumber":64,"Velocity":40,"Duration":507101,"SoundDuration":507101,"Delta":106676448},{"NoteNumber":59,"Velocity":34,"Duration":507101,"SoundDuration":507101,"Delta":106676448},{"NoteNumber":55,"Velocity":34,"Duration":507101,"SoundDuration":507101,"Delta":106676448},{"NoteNumber":81,"Velocity":50,"Duration":69124,"SoundDuration":69124,"Delta":106745572},{"NoteNumber":79,"Velocity":57,"Duration":368852,"SoundDuration":368852,"Delta":106814697},{"NoteNumber":78,"Velocity":53,"Duration":239044,"SoundDuration":239044,"Delta":107183549},{"NoteNumber":64,"Velocity":39,"Duration":489044,"SoundDuration":489044,"Delta":107183549},{"NoteNumber":59,"Velocity":33,"Duration":489044,"SoundDuration":489044,"Delta":107183549},{"NoteNumber":55,"Velocity":33,"Duration":489044,"SoundDuration":489044,"Delta":107183549},{"NoteNumber":76,"Velocity":50,"Duration":250000,"SoundDuration":250000,"Delta":107422593},{"NoteNumber":78,"Velocity":55,"Duration":252272,"SoundDuration":252272,"Delta":107672593},{"NoteNumber":47,"Velocity":50,"Duration":502272,"SoundDuration":502272,"Delta":107672593},{"NoteNumber":71,"Velocity":50,"Duration":1250000,"SoundDuration":1250000,"Delta":107924866},{"NoteNumber":62,"Velocity":31,"Duration":500000,"SoundDuration":500000,"Delta":108174866},{"NoteNumber":59,"Velocity":26,"Duration":500000,"SoundDuration":500000,"Delta":108174866},{"NoteNumber":54,"Velocity":26,"Duration":500000,"SoundDuration":500000,"Delta":108174866},{"NoteNumber":62,"Velocity":31,"Duration":500000,"SoundDuration":500000,"Delta":108674866},{"NoteNumber":59,"Velocity":26,"Duration":500000,"SoundDuration":500000,"Delta":108674866},{"NoteNumber":54,"Velocity":26,"Duration":500000,"SoundDuration":500000,"Delta":108674866},{"NoteNumber":73,"Velocity":58,"Duration":250000,"SoundDuration":250000,"Delta":109174866},{"NoteNumber":47,"Velocity":50,"Duration":500000,"SoundDuration":500000,"Delta":109174866},{"NoteNumber":76,"Velocity":50,"Duration":250000,"SoundDuration":250000,"Delta":109424866},{"NoteNumber":74,"Velocity":50,"Duration":70093,"SoundDuration":70093,"Delta":109674866},{"NoteNumber":64,"Velocity":40,"Duration":506040,"SoundDuration":506040,"Delta":109674866},{"NoteNumber":58,"Velocity":34,"Duration":506040,"SoundDuration":506040,"Delta":109674866},{"NoteNumber":54,"Velocity":34,"Duration":506040,"SoundDuration":506040,"Delta":109674866},{"NoteNumber":76,"Velocity":50,"Duration":70093,"SoundDuration":70093,"Delta":109744959},{"NoteNumber":74,"Velocity":57,"Duration":365853,"SoundDuration":365853,"Delta":109815053},{"NoteNumber":73,"Velocity":53,"Duration":489044,"SoundDuration":489044,"Delta":110180906},{"NoteNumber":64,"Velocity":39,"Duration":489044,"SoundDuration":489044,"Delta":110180906},{"NoteNumber":58,"Velocity":33,"Duration":489044,"SoundDuration":489044,"Delta":110180906},{"NoteNumber":54,"Velocity":33,"Duration":489044,"SoundDuration":489044,"Delta":110180906},{"NoteNumber":74,"Velocity":55,"Duration":252272,"SoundDuration":252272,"Delta":110669950},{"NoteNumber":47,"Velocity":50,"Duration":502272,"SoundDuration":502272,"Delta":110669950},{"NoteNumber":71,"Velocity":50,"Duration":739795,"SoundDuration":739795,"Delta":110922223},{"NoteNumber":62,"Velocity":31,"Duration":489795,"SoundDuration":489795,"Delta":111172223},{"NoteNumber":59,"Velocity":26,"Duration":489795,"SoundDuration":489795,"Delta":111172223},{"NoteNumber":54,"Velocity":26,"Duration":489795,"SoundDuration":489795,"Delta":111172223},{"NoteNumber":50,"Velocity":66,"Duration":708661,"SoundDuration":708661,"Delta":111662019},{"NoteNumber":59,"Velocity":38,"Duration":472441,"SoundDuration":472441,"Delta":112134460},{"NoteNumber":65,"Velocity":43,"Duration":472441,"SoundDuration":472441,"Delta":112134460},{"NoteNumber":55,"Velocity":58,"Duration":236220,"SoundDuration":236220,"Delta":112370681},{"NoteNumber":52,"Velocity":65,"Duration":144404,"SoundDuration":144404,"Delta":112606901},{"NoteNumber":60,"Velocity":34,"Duration":433212,"SoundDuration":433212,"Delta":112606901},{"NoteNumber":64,"Velocity":38,"Duration":433212,"SoundDuration":433212,"Delta":112606901},{"NoteNumber":53,"Velocity":57,"Duration":144404,"SoundDuration":144404,"Delta":112751306},{"NoteNumber":52,"Velocity":55,"Duration":144404,"SoundDuration":144404,"Delta":112895710},{"NoteNumber":50,"Velocity":63,"Duration":236220,"SoundDuration":236220,"Delta":113040114},{"NoteNumber":60,"Velocity":34,"Duration":472441,"SoundDuration":472441,"Delta":113040114},{"NoteNumber":64,"Velocity":38,"Duration":472441,"SoundDuration":472441,"Delta":113040114},{"NoteNumber":48,"Velocity":57,"Duration":236220,"SoundDuration":236220,"Delta":113276335},{"NoteNumber":50,"Velocity":64,"Duration":357142,"SoundDuration":357142,"Delta":113512555},{"NoteNumber":55,"Velocity":41,"Duration":476190,"SoundDuration":476190,"Delta":113512555},{"NoteNumber":59,"Velocity":41,"Duration":476190,"SoundDuration":476190,"Delta":113512555},{"NoteNumber":65,"Velocity":46,"Duration":476190,"SoundDuration":476190,"Delta":113512555},{"NoteNumber":43,"Velocity":55,"Duration":119047,"SoundDuration":119047,"Delta":113869698},{"NoteNumber":50,"Velocity":64,"Duration":476190,"SoundDuration":476190,"Delta":113988745},{"NoteNumber":55,"Velocity":34,"Duration":476190,"SoundDuration":476190,"Delta":113988745},{"NoteNumber":59,"Velocity":34,"Duration":476190,"SoundDuration":476190,"Delta":113988745},{"NoteNumber":65,"Velocity":38,"Duration":476190,"SoundDuration":476190,"Delta":113988745},{"NoteNumber":48,"Velocity":59,"Duration":476189,"SoundDuration":476189,"Delta":114464935},{"NoteNumber":60,"Velocity":34,"Duration":476189,"SoundDuration":476189,"Delta":114464935},{"NoteNumber":64,"Velocity":38,"Duration":476189,"SoundDuration":476189,"Delta":114464935},{"NoteNumber":50,"Velocity":66,"Duration":236220,"SoundDuration":236220,"Delta":114941125},{"NoteNumber":59,"Velocity":38,"Duration":472441,"SoundDuration":472441,"Delta":114941125},{"NoteNumber":65,"Velocity":43,"Duration":472441,"SoundDuration":472441,"Delta":114941125},{"NoteNumber":55,"Velocity":58,"Duration":236220,"SoundDuration":236220,"Delta":115177346},{"NoteNumber":52,"Velocity":65,"Duration":144404,"SoundDuration":144404,"Delta":115413566},{"NoteNumber":60,"Velocity":34,"Duration":433212,"SoundDuration":433212,"Delta":115413566},{"NoteNumber":64,"Velocity":38,"Duration":433212,"SoundDuration":433212,"Delta":115413566},{"NoteNumber":53,"Velocity":57,"Duration":144404,"SoundDuration":144404,"Delta":115557971},{"NoteNumber":52,"Velocity":55,"Duration":144404,"SoundDuration":144404,"Delta":115702375},{"NoteNumber":50,"Velocity":63,"Duration":236220,"SoundDuration":236220,"Delta":115846779},{"NoteNumber":60,"Velocity":34,"Duration":472441,"SoundDuration":472441,"Delta":115846779},{"NoteNumber":64,"Velocity":38,"Duration":472441,"SoundDuration":472441,"Delta":115846779},{"NoteNumber":48,"Velocity":57,"Duration":236220,"SoundDuration":236220,"Delta":116083000},{"NoteNumber":50,"Velocity":64,"Duration":357142,"SoundDuration":357142,"Delta":116319220},{"NoteNumber":55,"Velocity":41,"Duration":476190,"SoundDuration":476190,"Delta":116319220},{"NoteNumber":59,"Velocity":41,"Duration":476190,"SoundDuration":476190,"Delta":116319220},{"NoteNumber":65,"Velocity":46,"Duration":476190,"SoundDuration":476190,"Delta":116319220},{"NoteNumber":43,"Velocity":54,"Duration":119047,"SoundDuration":119047,"Delta":116676363},{"NoteNumber":50,"Velocity":62,"Duration":476190,"SoundDuration":476190,"Delta":116795410},{"NoteNumber":55,"Velocity":33,"Duration":476190,"SoundDuration":476190,"Delta":116795410},{"NoteNumber":59,"Velocity":33,"Duration":476190,"SoundDuration":476190,"Delta":116795410},{"NoteNumber":65,"Velocity":37,"Duration":476190,"SoundDuration":476190,"Delta":116795410},{"NoteNumber":48,"Velocity":56,"Duration":476189,"SoundDuration":476189,"Delta":117271600},{"NoteNumber":60,"Velocity":32,"Duration":476189,"SoundDuration":476189,"Delta":117271600},{"NoteNumber":64,"Velocity":36,"Duration":476189,"SoundDuration":476189,"Delta":117271600},{"NoteNumber":50,"Velocity":60,"Duration":339622,"SoundDuration":339622,"Delta":117747790},{"NoteNumber":55,"Velocity":38,"Duration":452830,"SoundDuration":452830,"Delta":117747790},{"NoteNumber":59,"Velocity":38,"Duration":452830,"SoundDuration":452830,"Delta":117747790},{"NoteNumber":65,"Velocity":43,"Duration":452830,"SoundDuration":452830,"Delta":117747790},{"NoteNumber":43,"Velocity":51,"Duration":113207,"SoundDuration":113207,"Delta":118087413},{"NoteNumber":48,"Velocity":58,"Duration":487804,"SoundDuration":487804,"Delta":118200620},{"NoteNumber":60,"Velocity":31,"Duration":487804,"SoundDuration":487804,"Delta":118200620},{"NoteNumber":64,"Velocity":34,"Duration":487804,"SoundDuration":487804,"Delta":118200620},{"NoteNumber":50,"Velocity":57,"Duration":350194,"SoundDuration":350194,"Delta":118688425},{"NoteNumber":55,"Velocity":36,"Duration":466926,"SoundDuration":466926,"Delta":118688425},{"NoteNumber":59,"Velocity":36,"Duration":466926,"SoundDuration":466926,"Delta":118688425},{"NoteNumber":65,"Velocity":41,"Duration":466926,"SoundDuration":466926,"Delta":118688425},{"NoteNumber":43,"Velocity":48,"Duration":116731,"SoundDuration":116731,"Delta":119038620},{"NoteNumber":48,"Velocity":56,"Duration":493826,"SoundDuration":493826,"Delta":119155351},{"NoteNumber":60,"Velocity":29,"Duration":493826,"SoundDuration":493826,"Delta":119155351},{"NoteNumber":64,"Velocity":29,"Duration":493826,"SoundDuration":493826,"Delta":119155351},{"NoteNumber":50,"Velocity":55,"Duration":352941,"SoundDuration":352941,"Delta":119649178},{"NoteNumber":55,"Velocity":35,"Duration":470588,"SoundDuration":470588,"Delta":119649178},{"NoteNumber":59,"Velocity":35,"Duration":470588,"SoundDuration":470588,"Delta":119649178},{"NoteNumber":65,"Velocity":39,"Duration":470588,"SoundDuration":470588,"Delta":119649178},{"NoteNumber":43,"Velocity":46,"Duration":117647,"SoundDuration":117647,"Delta":120002119},{"NoteNumber":48,"Velocity":53,"Duration":502092,"SoundDuration":502092,"Delta":120119766},{"NoteNumber":60,"Velocity":28,"Duration":502092,"SoundDuration":502092,"Delta":120119766},{"NoteNumber":64,"Velocity":31,"Duration":502092,"SoundDuration":502092,"Delta":120119766},{"NoteNumber":43,"Velocity":52,"Duration":1506275,"SoundDuration":1506275,"Delta":120621858},{"NoteNumber":55,"Velocity":52,"Duration":1506275,"SoundDuration":1506275,"Delta":120621858},{"NoteNumber":42,"Velocity":48,"Duration":1506275,"SoundDuration":1506275,"Delta":122128134},{"NoteNumber":54,"Velocity":48,"Duration":1506275,"SoundDuration":1506275,"Delta":122128134},{"NoteNumber":78,"Velocity":55,"Duration":250000,"SoundDuration":250000,"Delta":123634410},{"NoteNumber":35,"Velocity":46,"Duration":500000,"SoundDuration":500000,"Delta":123634410},{"NoteNumber":47,"Velocity":50,"Duration":500000,"SoundDuration":500000,"Delta":123634410},{"NoteNumber":83,"Velocity":50,"Duration":250000,"SoundDuration":250000,"Delta":123884410},{"NoteNumber":79,"Velocity":50,"Duration":69124,"SoundDuration":69124,"Delta":124134410},{"NoteNumber":64,"Velocity":40,"Duration":507101,"SoundDuration":507101,"Delta":124134410},{"NoteNumber":59,"Velocity":34,"Duration":507101,"SoundDuration":507101,"Delta":124134410},{"NoteNumber":55,"Velocity":34,"Duration":507101,"SoundDuration":507101,"Delta":124134410},{"NoteNumber":81,"Velocity":50,"Duration":69124,"SoundDuration":69124,"Delta":124203535},{"NoteNumber":79,"Velocity":57,"Duration":368852,"SoundDuration":368852,"Delta":124272659},{"NoteNumber":78,"Velocity":53,"Duration":239044,"SoundDuration":239044,"Delta":124641511},{"NoteNumber":64,"Velocity":39,"Duration":489044,"SoundDuration":489044,"Delta":124641511},{"NoteNumber":59,"Velocity":33,"Duration":489044,"SoundDuration":489044,"Delta":124641511},{"NoteNumber":55,"Velocity":33,"Duration":489044,"SoundDuration":489044,"Delta":124641511},{"NoteNumber":76,"Velocity":50,"Duration":250000,"SoundDuration":250000,"Delta":124880555},{"NoteNumber":78,"Velocity":55,"Duration":252272,"SoundDuration":252272,"Delta":125130555},{"NoteNumber":47,"Velocity":50,"Duration":502272,"SoundDuration":502272,"Delta":125130555},{"NoteNumber":71,"Velocity":50,"Duration":1250000,"SoundDuration":1250000,"Delta":125382828},{"NoteNumber":62,"Velocity":31,"Duration":500000,"SoundDuration":500000,"Delta":125632828},{"NoteNumber":59,"Velocity":26,"Duration":500000,"SoundDuration":500000,"Delta":125632828},{"NoteNumber":54,"Velocity":26,"Duration":500000,"SoundDuration":500000,"Delta":125632828},{"NoteNumber":62,"Velocity":31,"Duration":500000,"SoundDuration":500000,"Delta":126132828},{"NoteNumber":59,"Velocity":26,"Duration":500000,"SoundDuration":500000,"Delta":126132828},{"NoteNumber":54,"Velocity":26,"Duration":500000,"SoundDuration":500000,"Delta":126132828},{"NoteNumber":73,"Velocity":58,"Duration":250000,"SoundDuration":250000,"Delta":126632828},{"NoteNumber":47,"Velocity":50,"Duration":499999,"SoundDuration":499999,"Delta":126632828},{"NoteNumber":76,"Velocity":50,"Duration":249999,"SoundDuration":249999,"Delta":126882828},{"NoteNumber":74,"Velocity":50,"Duration":70093,"SoundDuration":70093,"Delta":127132828},{"NoteNumber":64,"Velocity":40,"Duration":506040,"SoundDuration":506040,"Delta":127132828},{"NoteNumber":58,"Velocity":34,"Duration":506040,"SoundDuration":506040,"Delta":127132828},{"NoteNumber":54,"Velocity":34,"Duration":506040,"SoundDuration":506040,"Delta":127132828},{"NoteNumber":76,"Velocity":50,"Duration":70093,"SoundDuration":70093,"Delta":127202922},{"NoteNumber":74,"Velocity":57,"Duration":365853,"SoundDuration":365853,"Delta":127273015},{"NoteNumber":73,"Velocity":53,"Duration":489044,"SoundDuration":489044,"Delta":127638869},{"NoteNumber":64,"Velocity":39,"Duration":489044,"SoundDuration":489044,"Delta":127638869},{"NoteNumber":58,"Velocity":33,"Duration":489044,"SoundDuration":489044,"Delta":127638869},{"NoteNumber":54,"Velocity":33,"Duration":489044,"SoundDuration":489044,"Delta":127638869},{"NoteNumber":74,"Velocity":55,"Duration":252272,"SoundDuration":252272,"Delta":128127913},{"NoteNumber":47,"Velocity":50,"Duration":502272,"SoundDuration":502272,"Delta":128127913},{"NoteNumber":71,"Velocity":50,"Duration":1250000,"SoundDuration":1250000,"Delta":128380186},{"NoteNumber":62,"Velocity":31,"Duration":500000,"SoundDuration":500000,"Delta":128630186},{"NoteNumber":59,"Velocity":26,"Duration":500000,"SoundDuration":500000,"Delta":128630186},{"NoteNumber":54,"Velocity":26,"Duration":500000,"SoundDuration":500000,"Delta":128630186},{"NoteNumber":62,"Velocity":31,"Duration":500000,"SoundDuration":500000,"Delta":129130186},{"NoteNumber":59,"Velocity":26,"Duration":500000,"SoundDuration":500000,"Delta":129130186},{"NoteNumber":54,"Velocity":26,"Duration":500000,"SoundDuration":500000,"Delta":129130186},{"NoteNumber":73,"Velocity":58,"Duration":250000,"SoundDuration":250000,"Delta":129630186},{"NoteNumber":37,"Velocity":50,"Duration":500000,"SoundDuration":500000,"Delta":129630186},{"NoteNumber":71,"Velocity":50,"Duration":250000,"SoundDuration":250000,"Delta":129880186},{"NoteNumber":69,"Velocity":46,"Duration":73170,"SoundDuration":73170,"Delta":130130186},{"NoteNumber":59,"Velocity":40,"Duration":513688,"SoundDuration":513688,"Delta":130130186},{"NoteNumber":53,"Velocity":34,"Duration":513688,"SoundDuration":513688,"Delta":130130186},{"NoteNumber":49,"Velocity":34,"Duration":513688,"SoundDuration":513688,"Delta":130130186},{"NoteNumber":71,"Velocity":47,"Duration":73170,"SoundDuration":73170,"Delta":130203356},{"NoteNumber":69,"Velocity":55,"Duration":367346,"SoundDuration":367346,"Delta":130276527},{"NoteNumber":68,"Velocity":53,"Duration":489044,"SoundDuration":489044,"Delta":130643874},{"NoteNumber":59,"Velocity":39,"Duration":489044,"SoundDuration":489044,"Delta":130643874},{"NoteNumber":53,"Velocity":33,"Duration":489044,"SoundDuration":489044,"Delta":130643874},{"NoteNumber":49,"Velocity":33,"Duration":489044,"SoundDuration":489044,"Delta":130643874},{"NoteNumber":69,"Velocity":55,"Duration":252272,"SoundDuration":252272,"Delta":131132918},{"NoteNumber":42,"Velocity":50,"Duration":502272,"SoundDuration":502272,"Delta":131132918},{"NoteNumber":73,"Velocity":50,"Duration":500000,"SoundDuration":500000,"Delta":131385191},{"NoteNumber":57,"Velocity":37,"Duration":500000,"SoundDuration":500000,"Delta":131635191},{"NoteNumber":49,"Velocity":31,"Duration":500000,"SoundDuration":500000,"Delta":131635191},{"NoteNumber":61,"Velocity":68,"Duration":725806,"SoundDuration":725806,"Delta":132135191},{"NoteNumber":59,"Velocity":60,"Duration":248086,"SoundDuration":248086,"Delta":132860998},{"NoteNumber":57,"Velocity":57,"Duration":59055,"SoundDuration":59055,"Delta":133109084},{"NoteNumber":59,"Velocity":57,"Duration":59055,"SoundDuration":59055,"Delta":133168139},{"NoteNumber":57,"Velocity":68,"Duration":354330,"SoundDuration":354330,"Delta":133227194},{"NoteNumber":56,"Velocity":67,"Duration":481928,"SoundDuration":481928,"Delta":133581525},{"NoteNumber":57,"Velocity":71,"Duration":463320,"SoundDuration":463320,"Delta":134063453},{"NoteNumber":61,"Velocity":67,"Duration":945402,"SoundDuration":945402,"Delta":134526773},{"NoteNumber":59,"Velocity":71,"Duration":472701,"SoundDuration":472701,"Delta":135472175},{"NoteNumber":49,"Velocity":47,"Duration":1408471,"SoundDuration":1408471,"Delta":135472175},{"NoteNumber":56,"Velocity":58,"Duration":472701,"SoundDuration":472701,"Delta":135472175},{"NoteNumber":57,"Velocity":68,"Duration":463069,"SoundDuration":463069,"Delta":135944876},{"NoteNumber":54,"Velocity":55,"Duration":463069,"SoundDuration":463069,"Delta":135944876},{"NoteNumber":61,"Velocity":68,"Duration":472701,"SoundDuration":472701,"Delta":136407946},{"NoteNumber":57,"Velocity":55,"Duration":472701,"SoundDuration":472701,"Delta":136407946},{"NoteNumber":59,"Velocity":63,"Duration":66577,"SoundDuration":66577,"Delta":136880647},{"NoteNumber":49,"Velocity":47,"Duration":1402298,"SoundDuration":1402298,"Delta":136880647},{"NoteNumber":56,"Velocity":57,"Duration":241069,"SoundDuration":241069,"Delta":136880647},{"NoteNumber":61,"Velocity":63,"Duration":66577,"SoundDuration":66577,"Delta":136947225},{"NoteNumber":59,"Velocity":73,"Duration":107913,"SoundDuration":107913,"Delta":137013803},{"NoteNumber":57,"Velocity":66,"Duration":215827,"SoundDuration":215827,"Delta":137121717},{"NoteNumber":54,"Velocity":51,"Duration":215827,"SoundDuration":215827,"Delta":137121717},{"NoteNumber":61,"Velocity":72,"Duration":472701,"SoundDuration":472701,"Delta":137337544},{"NoteNumber":57,"Velocity":56,"Duration":472701,"SoundDuration":472701,"Delta":137337544},{"NoteNumber":61,"Velocity":68,"Duration":472701,"SoundDuration":472701,"Delta":137810245},{"NoteNumber":57,"Velocity":54,"Duration":472701,"SoundDuration":472701,"Delta":137810245},{"NoteNumber":59,"Velocity":61,"Duration":66266,"SoundDuration":66266,"Delta":138282946},{"NoteNumber":49,"Velocity":47,"Duration":1397973,"SoundDuration":1397973,"Delta":138282946},{"NoteNumber":56,"Velocity":57,"Duration":462202,"SoundDuration":462202,"Delta":138282946},{"NoteNumber":61,"Velocity":61,"Duration":66266,"SoundDuration":66266,"Delta":138349212},{"NoteNumber":59,"Velocity":72,"Duration":329669,"SoundDuration":329669,"Delta":138415478},{"NoteNumber":58,"Velocity":72,"Duration":457281,"SoundDuration":457281,"Delta":138745148},{"NoteNumber":54,"Velocity":56,"Duration":463069,"SoundDuration":463069,"Delta":138745148},{"NoteNumber":61,"Velocity":68,"Duration":472701,"SoundDuration":472701,"Delta":139208218},{"NoteNumber":58,"Velocity":54,"Duration":472701,"SoundDuration":472701,"Delta":139208218},{"NoteNumber":59,"Velocity":62,"Duration":66266,"SoundDuration":66266,"Delta":139680919},{"NoteNumber":49,"Velocity":47,"Duration":477016,"SoundDuration":477016,"Delta":139680919},{"NoteNumber":56,"Velocity":57,"Duration":247360,"SoundDuration":247360,"Delta":139680919},{"NoteNumber":61,"Velocity":63,"Duration":66266,"SoundDuration":66266,"Delta":139747185},{"NoteNumber":59,"Velocity":73,"Duration":114828,"SoundDuration":114828,"Delta":139813452},{"NoteNumber":58,"Velocity":66,"Duration":229656,"SoundDuration":229656,"Delta":139928280},{"NoteNumber":54,"Velocity":51,"Duration":702357,"SoundDuration":702357,"Delta":139928280},{"NoteNumber":66,"Velocity":72,"Duration":472701,"SoundDuration":472701,"Delta":140157936},{"NoteNumber":42,"Velocity":47,"Duration":972701,"SoundDuration":972701,"Delta":140157936},{"NoteNumber":78,"Velocity":58,"Duration":750000,"SoundDuration":750000,"Delta":140630637},{"NoteNumber":47,"Velocity":50,"Duration":500000,"SoundDuration":500000,"Delta":141130637},{"NoteNumber":83,"Velocity":50,"Duration":250000,"SoundDuration":250000,"Delta":141380637},{"NoteNumber":79,"Velocity":50,"Duration":69124,"SoundDuration":69124,"Delta":141630637},{"NoteNumber":64,"Velocity":40,"Duration":507101,"SoundDuration":507101,"Delta":141630637},{"NoteNumber":59,"Velocity":34,"Duration":507101,"SoundDuration":507101,"Delta":141630637},{"NoteNumber":55,"Velocity":34,"Duration":507101,"SoundDuration":507101,"Delta":141630637},{"NoteNumber":81,"Velocity":50,"Duration":69124,"SoundDuration":69124,"Delta":141699762},{"NoteNumber":79,"Velocity":57,"Duration":368852,"SoundDuration":368852,"Delta":141768886},{"NoteNumber":78,"Velocity":53,"Duration":239044,"SoundDuration":239044,"Delta":142137738},{"NoteNumber":64,"Velocity":39,"Duration":489044,"SoundDuration":489044,"Delta":142137738},{"NoteNumber":59,"Velocity":33,"Duration":489044,"SoundDuration":489044,"Delta":142137738},{"NoteNumber":55,"Velocity":33,"Duration":489044,"SoundDuration":489044,"Delta":142137738},{"NoteNumber":76,"Velocity":50,"Duration":250000,"SoundDuration":250000,"Delta":142376782},{"NoteNumber":78,"Velocity":55,"Duration":252272,"SoundDuration":252272,"Delta":142626782},{"NoteNumber":47,"Velocity":50,"Duration":502272,"SoundDuration":502272,"Delta":142626782},{"NoteNumber":71,"Velocity":50,"Duration":1229591,"SoundDuration":1229591,"Delta":142879055},{"NoteNumber":62,"Velocity":31,"Duration":489796,"SoundDuration":489796,"Delta":143129055},{"NoteNumber":59,"Velocity":26,"Duration":489796,"SoundDuration":489796,"Delta":143129055},{"NoteNumber":54,"Velocity":26,"Duration":489796,"SoundDuration":489796,"Delta":143129055},{"NoteNumber":62,"Velocity":31,"Duration":489795,"SoundDuration":489795,"Delta":143618851},{"NoteNumber":59,"Velocity":26,"Duration":489795,"SoundDuration":489795,"Delta":143618851},{"NoteNumber":54,"Velocity":26,"Duration":489795,"SoundDuration":489795,"Delta":143618851},{"NoteNumber":73,"Velocity":58,"Duration":250000,"SoundDuration":250000,"Delta":144108647},{"NoteNumber":47,"Velocity":50,"Duration":500000,"SoundDuration":500000,"Delta":144108647},{"NoteNumber":76,"Velocity":50,"Duration":250000,"SoundDuration":250000,"Delta":144358647},{"NoteNumber":74,"Velocity":50,"Duration":70093,"SoundDuration":70093,"Delta":144608647},{"NoteNumber":64,"Velocity":40,"Duration":506040,"SoundDuration":506040,"Delta":144608647},{"NoteNumber":58,"Velocity":34,"Duration":506040,"SoundDuration":506040,"Delta":144608647},{"NoteNumber":54,"Velocity":34,"Duration":506040,"SoundDuration":506040,"Delta":144608647},{"NoteNumber":76,"Velocity":50,"Duration":70093,"SoundDuration":70093,"Delta":144678741},{"NoteNumber":74,"Velocity":57,"Duration":365853,"SoundDuration":365853,"Delta":144748834},{"NoteNumber":73,"Velocity":53,"Duration":489044,"SoundDuration":489044,"Delta":145114688},{"NoteNumber":64,"Velocity":39,"Duration":489044,"SoundDuration":489044,"Delta":145114688},{"NoteNumber":58,"Velocity":33,"Duration":489044,"SoundDuration":489044,"Delta":145114688},{"NoteNumber":54,"Velocity":33,"Duration":489044,"SoundDuration":489044,"Delta":145114688},{"NoteNumber":74,"Velocity":55,"Duration":252272,"SoundDuration":252272,"Delta":145603732},{"NoteNumber":47,"Velocity":50,"Duration":502272,"SoundDuration":502272,"Delta":145603732},{"NoteNumber":71,"Velocity":50,"Duration":739796,"SoundDuration":739796,"Delta":145856005},{"NoteNumber":62,"Velocity":31,"Duration":489796,"SoundDuration":489796,"Delta":146106005},{"NoteNumber":59,"Velocity":26,"Duration":489796,"SoundDuration":489796,"Delta":146106005},{"NoteNumber":54,"Velocity":26,"Duration":489796,"SoundDuration":489796,"Delta":146106005},{"NoteNumber":50,"Velocity":66,"Duration":708661,"SoundDuration":708661,"Delta":146595801},{"NoteNumber":59,"Velocity":38,"Duration":472441,"SoundDuration":472441,"Delta":147068242},{"NoteNumber":65,"Velocity":43,"Duration":472441,"SoundDuration":472441,"Delta":147068242},{"NoteNumber":55,"Velocity":58,"Duration":236220,"SoundDuration":236220,"Delta":147304462},{"NoteNumber":52,"Velocity":65,"Duration":144404,"SoundDuration":144404,"Delta":147540683},{"NoteNumber":60,"Velocity":34,"Duration":433212,"SoundDuration":433212,"Delta":147540683},{"NoteNumber":64,"Velocity":38,"Duration":433212,"SoundDuration":433212,"Delta":147540683},{"NoteNumber":53,"Velocity":57,"Duration":144404,"SoundDuration":144404,"Delta":147685087},{"NoteNumber":52,"Velocity":55,"Duration":144404,"SoundDuration":144404,"Delta":147829491},{"NoteNumber":50,"Velocity":63,"Duration":236220,"SoundDuration":236220,"Delta":147973896},{"NoteNumber":60,"Velocity":34,"Duration":472441,"SoundDuration":472441,"Delta":147973896},{"NoteNumber":64,"Velocity":38,"Duration":472441,"SoundDuration":472441,"Delta":147973896},{"NoteNumber":48,"Velocity":57,"Duration":236220,"SoundDuration":236220,"Delta":148210116},{"NoteNumber":50,"Velocity":64,"Duration":357142,"SoundDuration":357142,"Delta":148446337},{"NoteNumber":55,"Velocity":41,"Duration":476190,"SoundDuration":476190,"Delta":148446337},{"NoteNumber":59,"Velocity":41,"Duration":476190,"SoundDuration":476190,"Delta":148446337},{"NoteNumber":65,"Velocity":46,"Duration":476190,"SoundDuration":476190,"Delta":148446337},{"NoteNumber":43,"Velocity":55,"Duration":119047,"SoundDuration":119047,"Delta":148803479},{"NoteNumber":50,"Velocity":64,"Duration":476190,"SoundDuration":476190,"Delta":148922527},{"NoteNumber":55,"Velocity":34,"Duration":476190,"SoundDuration":476190,"Delta":148922527},{"NoteNumber":59,"Velocity":34,"Duration":476190,"SoundDuration":476190,"Delta":148922527},{"NoteNumber":65,"Velocity":38,"Duration":476190,"SoundDuration":476190,"Delta":148922527},{"NoteNumber":48,"Velocity":59,"Duration":476190,"SoundDuration":476190,"Delta":149398717},{"NoteNumber":60,"Velocity":34,"Duration":476190,"SoundDuration":476190,"Delta":149398717},{"NoteNumber":64,"Velocity":38,"Duration":476190,"SoundDuration":476190,"Delta":149398717},{"NoteNumber":50,"Velocity":66,"Duration":236220,"SoundDuration":236220,"Delta":149874907},{"NoteNumber":59,"Velocity":38,"Duration":472441,"SoundDuration":472441,"Delta":149874907},{"NoteNumber":65,"Velocity":43,"Duration":472441,"SoundDuration":472441,"Delta":149874907},{"NoteNumber":55,"Velocity":58,"Duration":236220,"SoundDuration":236220,"Delta":150111127},{"NoteNumber":52,"Velocity":65,"Duration":144404,"SoundDuration":144404,"Delta":150347348},{"NoteNumber":60,"Velocity":34,"Duration":433212,"SoundDuration":433212,"Delta":150347348},{"NoteNumber":64,"Velocity":38,"Duration":433212,"SoundDuration":433212,"Delta":150347348},{"NoteNumber":53,"Velocity":57,"Duration":144404,"SoundDuration":144404,"Delta":150491752},{"NoteNumber":52,"Velocity":55,"Duration":144404,"SoundDuration":144404,"Delta":150636156},{"NoteNumber":50,"Velocity":63,"Duration":236220,"SoundDuration":236220,"Delta":150780561},{"NoteNumber":60,"Velocity":34,"Duration":472441,"SoundDuration":472441,"Delta":150780561},{"NoteNumber":64,"Velocity":38,"Duration":472441,"SoundDuration":472441,"Delta":150780561},{"NoteNumber":48,"Velocity":57,"Duration":236220,"SoundDuration":236220,"Delta":151016781},{"NoteNumber":50,"Velocity":64,"Duration":357142,"SoundDuration":357142,"Delta":151253002},{"NoteNumber":55,"Velocity":41,"Duration":476190,"SoundDuration":476190,"Delta":151253002},{"NoteNumber":59,"Velocity":41,"Duration":476190,"SoundDuration":476190,"Delta":151253002},{"NoteNumber":65,"Velocity":46,"Duration":476190,"SoundDuration":476190,"Delta":151253002},{"NoteNumber":43,"Velocity":54,"Duration":119047,"SoundDuration":119047,"Delta":151610144},{"NoteNumber":50,"Velocity":62,"Duration":476190,"SoundDuration":476190,"Delta":151729192},{"NoteNumber":55,"Velocity":33,"Duration":476190,"SoundDuration":476190,"Delta":151729192},{"NoteNumber":59,"Velocity":33,"Duration":476190,"SoundDuration":476190,"Delta":151729192},{"NoteNumber":65,"Velocity":37,"Duration":476190,"SoundDuration":476190,"Delta":151729192},{"NoteNumber":48,"Velocity":56,"Duration":476190,"SoundDuration":476190,"Delta":152205382},{"NoteNumber":60,"Velocity":32,"Duration":476190,"SoundDuration":476190,"Delta":152205382},{"NoteNumber":64,"Velocity":36,"Duration":476190,"SoundDuration":476190,"Delta":152205382},{"NoteNumber":50,"Velocity":60,"Duration":339622,"SoundDuration":339622,"Delta":152681572},{"NoteNumber":55,"Velocity":38,"Duration":452830,"SoundDuration":452830,"Delta":152681572},{"NoteNumber":59,"Velocity":38,"Duration":452830,"SoundDuration":452830,"Delta":152681572},{"NoteNumber":65,"Velocity":43,"Duration":452830,"SoundDuration":452830,"Delta":152681572},{"NoteNumber":43,"Velocity":51,"Duration":113207,"SoundDuration":113207,"Delta":153021194},{"NoteNumber":48,"Velocity":58,"Duration":487805,"SoundDuration":487805,"Delta":153134402},{"NoteNumber":60,"Velocity":31,"Duration":487805,"SoundDuration":487805,"Delta":153134402},{"NoteNumber":64,"Velocity":34,"Duration":487805,"SoundDuration":487805,"Delta":153134402},{"NoteNumber":50,"Velocity":57,"Duration":350194,"SoundDuration":350194,"Delta":153622207},{"NoteNumber":55,"Velocity":36,"Duration":466926,"SoundDuration":466926,"Delta":153622207},{"NoteNumber":59,"Velocity":36,"Duration":466926,"SoundDuration":466926,"Delta":153622207},{"NoteNumber":65,"Velocity":41,"Duration":466926,"SoundDuration":466926,"Delta":153622207},{"NoteNumber":43,"Velocity":48,"Duration":116731,"SoundDuration":116731,"Delta":153972401},{"NoteNumber":48,"Velocity":56,"Duration":493827,"SoundDuration":493827,"Delta":154089133},{"NoteNumber":60,"Velocity":29,"Duration":493827,"SoundDuration":493827,"Delta":154089133},{"NoteNumber":64,"Velocity":29,"Duration":493827,"SoundDuration":493827,"Delta":154089133},{"NoteNumber":50,"Velocity":55,"Duration":352940,"SoundDuration":352940,"Delta":154582960},{"NoteNumber":55,"Velocity":35,"Duration":470587,"SoundDuration":470587,"Delta":154582960},{"NoteNumber":59,"Velocity":35,"Duration":470587,"SoundDuration":470587,"Delta":154582960},{"NoteNumber":65,"Velocity":39,"Duration":470587,"SoundDuration":470587,"Delta":154582960},{"NoteNumber":43,"Velocity":46,"Duration":117647,"SoundDuration":117647,"Delta":154935901},{"NoteNumber":48,"Velocity":53,"Duration":502092,"SoundDuration":502092,"Delta":155053548},{"NoteNumber":60,"Velocity":28,"Duration":502092,"SoundDuration":502092,"Delta":155053548},{"NoteNumber":64,"Velocity":31,"Duration":502092,"SoundDuration":502092,"Delta":155053548},{"NoteNumber":43,"Velocity":52,"Duration":1506275,"SoundDuration":1506275,"Delta":155555640},{"NoteNumber":55,"Velocity":52,"Duration":1506275,"SoundDuration":1506275,"Delta":155555640},{"NoteNumber":42,"Velocity":60,"Duration":1030042,"SoundDuration":1030042,"Delta":157061916},{"NoteNumber":54,"Velocity":59,"Duration":1030042,"SoundDuration":1030042,"Delta":157061916},{"NoteNumber":41,"Velocity":66,"Duration":582524,"SoundDuration":582524,"Delta":158091958},{"NoteNumber":53,"Velocity":62,"Duration":582524,"SoundDuration":582524,"Delta":158091958},{"NoteNumber":34,"Velocity":74,"Duration":199999,"SoundDuration":199999,"Delta":158674482},{"NoteNumber":65,"Velocity":68,"Duration":377357,"SoundDuration":377357,"Delta":159074482},{"NoteNumber":70,"Velocity":68,"Duration":377357,"SoundDuration":377357,"Delta":159074482},{"NoteNumber":74,"Velocity":80,"Duration":377357,"SoundDuration":377357,"Delta":159074482},{"NoteNumber":53,"Velocity":54,"Duration":377357,"SoundDuration":377357,"Delta":159074482},{"NoteNumber":62,"Velocity":64,"Duration":377357,"SoundDuration":377357,"Delta":159074482},{"NoteNumber":58,"Velocity":54,"Duration":377357,"SoundDuration":377357,"Delta":159074482},{"NoteNumber":66,"Velocity":68,"Duration":377358,"SoundDuration":377358,"Delta":159451840},{"NoteNumber":70,"Velocity":68,"Duration":377358,"SoundDuration":377358,"Delta":159451840},{"NoteNumber":75,"Velocity":80,"Duration":377358,"SoundDuration":377358,"Delta":159451840},{"NoteNumber":63,"Velocity":64,"Duration":377358,"SoundDuration":377358,"Delta":159451840},{"NoteNumber":58,"Velocity":64,"Duration":377358,"SoundDuration":377358,"Delta":159451840},{"NoteNumber":54,"Velocity":64,"Duration":377358,"SoundDuration":377358,"Delta":159451840},{"NoteNumber":78,"Velocity":86,"Duration":90361,"SoundDuration":90361,"Delta":159829198},{"NoteNumber":46,"Velocity":73,"Duration":180723,"SoundDuration":180723,"Delta":159829198},{"NoteNumber":77,"Velocity":80,"Duration":348754,"SoundDuration":348754,"Delta":160100282},{"NoteNumber":74,"Velocity":61,"Duration":86364,"SoundDuration":86364,"Delta":160100282},{"NoteNumber":72,"Velocity":61,"Duration":262390,"SoundDuration":262390,"Delta":160186647},{"NoteNumber":65,"Velocity":68,"Duration":734468,"SoundDuration":734468,"Delta":160186647},{"NoteNumber":62,"Velocity":57,"Duration":734468,"SoundDuration":734468,"Delta":160186647},{"NoteNumber":58,"Velocity":57,"Duration":734468,"SoundDuration":734468,"Delta":160186647},{"NoteNumber":74,"Velocity":61,"Duration":87463,"SoundDuration":87463,"Delta":160449037},{"NoteNumber":77,"Velocity":80,"Duration":375924,"SoundDuration":375924,"Delta":160449037},{"NoteNumber":70,"Velocity":80,"Duration":384614,"SoundDuration":384614,"Delta":160536501},{"NoteNumber":53,"Velocity":68,"Duration":384614,"SoundDuration":384614,"Delta":160536501},{"NoteNumber":82,"Velocity":85,"Duration":192307,"SoundDuration":192307,"Delta":160921116},{"NoteNumber":34,"Velocity":72,"Duration":192307,"SoundDuration":192307,"Delta":160921116},{"NoteNumber":65,"Velocity":68,"Duration":377357,"SoundDuration":377357,"Delta":161305731},{"NoteNumber":70,"Velocity":68,"Duration":377357,"SoundDuration":377357,"Delta":161305731},{"NoteNumber":74,"Velocity":80,"Duration":377357,"SoundDuration":377357,"Delta":161305731},{"NoteNumber":53,"Velocity":54,"Duration":377357,"SoundDuration":377357,"Delta":161305731},{"NoteNumber":62,"Velocity":64,"Duration":377357,"SoundDuration":377357,"Delta":161305731},{"NoteNumber":58,"Velocity":54,"Duration":377357,"SoundDuration":377357,"Delta":161305731},{"NoteNumber":66,"Velocity":68,"Duration":377358,"SoundDuration":377358,"Delta":161683089},{"NoteNumber":70,"Velocity":68,"Duration":377358,"SoundDuration":377358,"Delta":161683089},{"NoteNumber":75,"Velocity":80,"Duration":377358,"SoundDuration":377358,"Delta":161683089},{"NoteNumber":63,"Velocity":64,"Duration":377358,"SoundDuration":377358,"Delta":161683089},{"NoteNumber":58,"Velocity":64,"Duration":377358,"SoundDuration":377358,"Delta":161683089},{"NoteNumber":54,"Velocity":64,"Duration":377358,"SoundDuration":377358,"Delta":161683089},{"NoteNumber":78,"Velocity":86,"Duration":90361,"SoundDuration":90361,"Delta":162060447},{"NoteNumber":46,"Velocity":73,"Duration":180723,"SoundDuration":180723,"Delta":162060447},{"NoteNumber":77,"Velocity":80,"Duration":349915,"SoundDuration":349915,"Delta":162331531},{"NoteNumber":74,"Velocity":61,"Duration":85986,"SoundDuration":85986,"Delta":162331531},{"NoteNumber":72,"Velocity":61,"Duration":263929,"SoundDuration":263929,"Delta":162417518},{"NoteNumber":65,"Velocity":68,"Duration":736521,"SoundDuration":736521,"Delta":162417518},{"NoteNumber":62,"Velocity":57,"Duration":736521,"SoundDuration":736521,"Delta":162417518},{"NoteNumber":58,"Velocity":57,"Duration":736521,"SoundDuration":736521,"Delta":162417518},{"NoteNumber":74,"Velocity":61,"Duration":87976,"SoundDuration":87976,"Delta":162681447},{"NoteNumber":77,"Velocity":80,"Duration":376437,"SoundDuration":376437,"Delta":162681447},{"NoteNumber":70,"Velocity":80,"Duration":384614,"SoundDuration":384614,"Delta":162769424},{"NoteNumber":53,"Velocity":68,"Duration":384614,"SoundDuration":384614,"Delta":162769424},{"NoteNumber":34,"Velocity":79,"Duration":199999,"SoundDuration":199999,"Delta":163154039},{"NoteNumber":65,"Velocity":68,"Duration":377357,"SoundDuration":377357,"Delta":163554039},{"NoteNumber":70,"Velocity":68,"Duration":377357,"SoundDuration":377357,"Delta":163554039},{"NoteNumber":74,"Velocity":80,"Duration":377357,"SoundDuration":377357,"Delta":163554039},{"NoteNumber":53,"Velocity":54,"Duration":377357,"SoundDuration":377357,"Delta":163554039},{"NoteNumber":62,"Velocity":64,"Duration":377357,"SoundDuration":377357,"Delta":163554039},{"NoteNumber":58,"Velocity":54,"Duration":377357,"SoundDuration":377357,"Delta":163554039},{"NoteNumber":66,"Velocity":68,"Duration":377358,"SoundDuration":377358,"Delta":163931397},{"NoteNumber":70,"Velocity":68,"Duration":377358,"SoundDuration":377358,"Delta":163931397},{"NoteNumber":75,"Velocity":80,"Duration":377358,"SoundDuration":377358,"Delta":163931397},{"NoteNumber":63,"Velocity":64,"Duration":377358,"SoundDuration":377358,"Delta":163931397},{"NoteNumber":58,"Velocity":64,"Duration":377358,"SoundDuration":377358,"Delta":163931397},{"NoteNumber":54,"Velocity":64,"Duration":377358,"SoundDuration":377358,"Delta":163931397},{"NoteNumber":78,"Velocity":86,"Duration":90361,"SoundDuration":90361,"Delta":164308755},{"NoteNumber":46,"Velocity":73,"Duration":180723,"SoundDuration":180723,"Delta":164308755},{"NoteNumber":77,"Velocity":80,"Duration":344903,"SoundDuration":344903,"Delta":164579839},{"NoteNumber":74,"Velocity":61,"Duration":84033,"SoundDuration":84033,"Delta":164579839},{"NoteNumber":72,"Velocity":61,"Duration":260869,"SoundDuration":260869,"Delta":164663873},{"NoteNumber":65,"Velocity":68,"Duration":732440,"SoundDuration":732440,"Delta":164663873},{"NoteNumber":62,"Velocity":57,"Duration":732440,"SoundDuration":732440,"Delta":164663873},{"NoteNumber":58,"Velocity":57,"Duration":732440,"SoundDuration":732440,"Delta":164663873},{"NoteNumber":74,"Velocity":61,"Duration":86956,"SoundDuration":86956,"Delta":164924742},{"NoteNumber":77,"Velocity":80,"Duration":375417,"SoundDuration":375417,"Delta":164924742},{"NoteNumber":70,"Velocity":80,"Duration":384614,"SoundDuration":384614,"Delta":165011699},{"NoteNumber":53,"Velocity":68,"Duration":384614,"SoundDuration":384614,"Delta":165011699},{"NoteNumber":94,"Velocity":85,"Duration":192307,"SoundDuration":192307,"Delta":165396314},{"NoteNumber":82,"Velocity":80,"Duration":192307,"SoundDuration":192307,"Delta":165396314},{"NoteNumber":46,"Velocity":72,"Duration":192307,"SoundDuration":192307,"Delta":165396314},{"NoteNumber":34,"Velocity":69,"Duration":192307,"SoundDuration":192307,"Delta":165396314},{"NoteNumber":65,"Velocity":68,"Duration":377357,"SoundDuration":377357,"Delta":165780929},{"NoteNumber":70,"Velocity":68,"Duration":377357,"SoundDuration":377357,"Delta":165780929},{"NoteNumber":74,"Velocity":80,"Duration":377357,"SoundDuration":377357,"Delta":165780929},{"NoteNumber":53,"Velocity":54,"Duration":377357,"SoundDuration":377357,"Delta":165780929},{"NoteNumber":62,"Velocity":64,"Duration":377357,"SoundDuration":377357,"Delta":165780929},{"NoteNumber":58,"Velocity":54,"Duration":377357,"SoundDuration":377357,"Delta":165780929},{"NoteNumber":66,"Velocity":68,"Duration":377358,"SoundDuration":377358,"Delta":166158287},{"NoteNumber":70,"Velocity":68,"Duration":377358,"SoundDuration":377358,"Delta":166158287},{"NoteNumber":75,"Velocity":80,"Duration":377358,"SoundDuration":377358,"Delta":166158287},{"NoteNumber":63,"Velocity":64,"Duration":377358,"SoundDuration":377358,"Delta":166158287},{"NoteNumber":58,"Velocity":64,"Duration":377358,"SoundDuration":377358,"Delta":166158287},{"NoteNumber":54,"Velocity":64,"Duration":377358,"SoundDuration":377358,"Delta":166158287},{"NoteNumber":78,"Velocity":86,"Duration":90361,"SoundDuration":90361,"Delta":166535645},{"NoteNumber":46,"Velocity":73,"Duration":180723,"SoundDuration":180723,"Delta":166535645},{"NoteNumber":77,"Velocity":80,"Duration":346897,"SoundDuration":346897,"Delta":166806729},{"NoteNumber":74,"Velocity":61,"Duration":84507,"SoundDuration":84507,"Delta":166806729},{"NoteNumber":72,"Velocity":61,"Duration":262390,"SoundDuration":262390,"Delta":166891236},{"NoteNumber":65,"Velocity":68,"Duration":734468,"SoundDuration":734468,"Delta":166891236},{"NoteNumber":62,"Velocity":57,"Duration":734468,"SoundDuration":734468,"Delta":166891236},{"NoteNumber":58,"Velocity":57,"Duration":734468,"SoundDuration":734468,"Delta":166891236},{"NoteNumber":74,"Velocity":61,"Duration":87463,"SoundDuration":87463,"Delta":167153627},{"NoteNumber":77,"Velocity":80,"Duration":375924,"SoundDuration":375924,"Delta":167153627},{"NoteNumber":70,"Velocity":80,"Duration":384614,"SoundDuration":384614,"Delta":167241090},{"NoteNumber":53,"Velocity":68,"Duration":384614,"SoundDuration":384614,"Delta":167241090},{"NoteNumber":39,"Velocity":81,"Duration":199999,"SoundDuration":199999,"Delta":167625705},{"NoteNumber":70,"Velocity":68,"Duration":377357,"SoundDuration":377357,"Delta":168025705},{"NoteNumber":75,"Velocity":68,"Duration":377357,"SoundDuration":377357,"Delta":168025705},{"NoteNumber":79,"Velocity":80,"Duration":377357,"SoundDuration":377357,"Delta":168025705},{"NoteNumber":58,"Velocity":54,"Duration":377357,"SoundDuration":377357,"Delta":168025705},{"NoteNumber":67,"Velocity":64,"Duration":377357,"SoundDuration":377357,"Delta":168025705},{"NoteNumber":63,"Velocity":54,"Duration":377357,"SoundDuration":377357,"Delta":168025705},{"NoteNumber":71,"Velocity":68,"Duration":377358,"SoundDuration":377358,"Delta":168403063},{"NoteNumber":75,"Velocity":68,"Duration":377358,"SoundDuration":377358,"Delta":168403063},{"NoteNumber":80,"Velocity":80,"Duration":377358,"SoundDuration":377358,"Delta":168403063},{"NoteNumber":68,"Velocity":64,"Duration":377358,"SoundDuration":377358,"Delta":168403063},{"NoteNumber":63,"Velocity":64,"Duration":377358,"SoundDuration":377358,"Delta":168403063},{"NoteNumber":59,"Velocity":64,"Duration":377358,"SoundDuration":377358,"Delta":168403063},{"NoteNumber":83,"Velocity":88,"Duration":90361,"SoundDuration":90361,"Delta":168780421},{"NoteNumber":51,"Velocity":73,"Duration":180723,"SoundDuration":180723,"Delta":168780421},{"NoteNumber":82,"Velocity":88,"Duration":353519,"SoundDuration":353519,"Delta":169051506},{"NoteNumber":79,"Velocity":61,"Duration":90361,"SoundDuration":90361,"Delta":169051506},{"NoteNumber":77,"Velocity":61,"Duration":263157,"SoundDuration":263157,"Delta":169141867},{"NoteNumber":67,"Velocity":68,"Duration":350876,"SoundDuration":350876,"Delta":169141867},{"NoteNumber":63,"Velocity":57,"Duration":350876,"SoundDuration":350876,"Delta":169141867},{"NoteNumber":58,"Velocity":57,"Duration":350876,"SoundDuration":350876,"Delta":169141867},{"NoteNumber":79,"Velocity":61,"Duration":87719,"SoundDuration":87719,"Delta":169405025},{"NoteNumber":82,"Velocity":88,"Duration":376180,"SoundDuration":376180,"Delta":169405025},{"NoteNumber":75,"Velocity":80,"Duration":384614,"SoundDuration":384614,"Delta":169492744},{"NoteNumber":51,"Velocity":68,"Duration":384614,"SoundDuration":384614,"Delta":169492744},{"NoteNumber":99,"Velocity":93,"Duration":192307,"SoundDuration":192307,"Delta":169877359},{"NoteNumber":87,"Velocity":88,"Duration":192307,"SoundDuration":192307,"Delta":169877359},{"NoteNumber":39,"Velocity":73,"Duration":192307,"SoundDuration":192307,"Delta":169877359},{"NoteNumber":70,"Velocity":68,"Duration":377357,"SoundDuration":377357,"Delta":170261974},{"NoteNumber":75,"Velocity":68,"Duration":377357,"SoundDuration":377357,"Delta":170261974},{"NoteNumber":79,"Velocity":80,"Duration":377357,"SoundDuration":377357,"Delta":170261974},{"NoteNumber":58,"Velocity":54,"Duration":377357,"SoundDuration":377357,"Delta":170261974},{"NoteNumber":67,"Velocity":64,"Duration":377357,"SoundDuration":377357,"Delta":170261974},{"NoteNumber":63,"Velocity":54,"Duration":377357,"SoundDuration":377357,"Delta":170261974},{"NoteNumber":71,"Velocity":68,"Duration":377358,"SoundDuration":377358,"Delta":170639332},{"NoteNumber":75,"Velocity":68,"Duration":377358,"SoundDuration":377358,"Delta":170639332},{"NoteNumber":80,"Velocity":80,"Duration":377358,"SoundDuration":377358,"Delta":170639332},{"NoteNumber":68,"Velocity":64,"Duration":377358,"SoundDuration":377358,"Delta":170639332},{"NoteNumber":63,"Velocity":64,"Duration":377358,"SoundDuration":377358,"Delta":170639332},{"NoteNumber":59,"Velocity":64,"Duration":377358,"SoundDuration":377358,"Delta":170639332},{"NoteNumber":83,"Velocity":87,"Duration":93457,"SoundDuration":93457,"Delta":171016690},{"NoteNumber":51,"Velocity":73,"Duration":186915,"SoundDuration":186915,"Delta":171016690},{"NoteNumber":82,"Velocity":88,"Duration":366185,"SoundDuration":366185,"Delta":171297064},{"NoteNumber":79,"Velocity":61,"Duration":93457,"SoundDuration":93457,"Delta":171297064},{"NoteNumber":77,"Velocity":61,"Duration":272727,"SoundDuration":272727,"Delta":171390522},{"NoteNumber":70,"Velocity":68,"Duration":363636,"SoundDuration":363636,"Delta":171390522},{"NoteNumber":67,"Velocity":57,"Duration":363636,"SoundDuration":363636,"Delta":171390522},{"NoteNumber":61,"Velocity":57,"Duration":363636,"SoundDuration":363636,"Delta":171390522},{"NoteNumber":79,"Velocity":61,"Duration":90909,"SoundDuration":90909,"Delta":171663249},{"NoteNumber":82,"Velocity":88,"Duration":379370,"SoundDuration":379370,"Delta":171663249},{"NoteNumber":76,"Velocity":80,"Duration":1525362,"SoundDuration":1525362,"Delta":171754158},{"NoteNumber":51,"Velocity":68,"Duration":384614,"SoundDuration":384614,"Delta":171754158},{"NoteNumber":39,"Velocity":73,"Duration":192307,"SoundDuration":192307,"Delta":172138773},{"NoteNumber":70,"Velocity":68,"Duration":371517,"SoundDuration":371517,"Delta":172523388},{"NoteNumber":79,"Velocity":80,"Duration":371517,"SoundDuration":371517,"Delta":172523388},{"NoteNumber":61,"Velocity":65,"Duration":371517,"SoundDuration":371517,"Delta":172523388},{"NoteNumber":71,"Velocity":65,"Duration":384614,"SoundDuration":384614,"Delta":172894905},{"NoteNumber":80,"Velocity":77,"Duration":384614,"SoundDuration":384614,"Delta":172894905},{"NoteNumber":62,"Velocity":57,"Duration":384614,"SoundDuration":384614,"Delta":172894905},{"NoteNumber":70,"Velocity":65,"Duration":2338926,"SoundDuration":2338926,"Delta":173279520},{"NoteNumber":75,"Velocity":65,"Duration":377963,"SoundDuration":377963,"Delta":173279520},{"NoteNumber":79,"Velocity":77,"Duration":377963,"SoundDuration":377963,"Delta":173279520},{"NoteNumber":63,"Velocity":59,"Duration":377963,"SoundDuration":377963,"Delta":173279520},{"NoteNumber":73,"Velocity":62,"Duration":1960962,"SoundDuration":1960962,"Delta":173657484},{"NoteNumber":78,"Velocity":74,"Duration":385557,"SoundDuration":385557,"Delta":173657484},{"NoteNumber":64,"Velocity":57,"Duration":385557,"SoundDuration":385557,"Delta":173657484},{"NoteNumber":77,"Velocity":71,"Duration":393456,"SoundDuration":393456,"Delta":174043041},{"NoteNumber":65,"Velocity":54,"Duration":393456,"SoundDuration":393456,"Delta":174043041},{"NoteNumber":76,"Velocity":69,"Duration":1181949,"SoundDuration":1181949,"Delta":174436498},{"NoteNumber":66,"Velocity":52,"Duration":398671,"SoundDuration":398671,"Delta":174436498},{"NoteNumber":54,"Velocity":59,"Duration":342019,"SoundDuration":342019,"Delta":174835169},{"NoteNumber":58,"Velocity":60,"Duration":48859,"SoundDuration":48859,"Delta":175177188},{"NoteNumber":56,"Velocity":68,"Duration":392399,"SoundDuration":392399,"Delta":175226048},{"NoteNumber":54,"Velocity":63,"Duration":405194,"SoundDuration":405194,"Delta":175618447},{"NoteNumber":49,"Velocity":56,"Duration":414885,"SoundDuration":414885,"Delta":176023642},{"NoteNumber":54,"Velocity":53,"Duration":424798,"SoundDuration":424798,"Delta":176438527},{"NoteNumber":75,"Velocity":59,"Duration":246913,"SoundDuration":246913,"Delta":176863325},{"NoteNumber":47,"Velocity":50,"Duration":493827,"SoundDuration":493827,"Delta":176863325},{"NoteNumber":76,"Velocity":61,"Duration":246913,"SoundDuration":246913,"Delta":177110239},{"NoteNumber":77,"Velocity":63,"Duration":487805,"SoundDuration":487805,"Delta":177357152},{"NoteNumber":63,"Velocity":43,"Duration":487805,"SoundDuration":487805,"Delta":177357152},{"NoteNumber":59,"Velocity":36,"Duration":487805,"SoundDuration":487805,"Delta":177357152},{"NoteNumber":54,"Velocity":36,"Duration":487805,"SoundDuration":487805,"Delta":177357152},{"NoteNumber":78,"Velocity":70,"Duration":508475,"SoundDuration":508475,"Delta":177844957},{"NoteNumber":63,"Velocity":36,"Duration":508475,"SoundDuration":508475,"Delta":177844957},{"NoteNumber":71,"Velocity":43,"Duration":508475,"SoundDuration":508475,"Delta":177844957},{"NoteNumber":79,"Velocity":77,"Duration":376568,"SoundDuration":376568,"Delta":178353432},{"NoteNumber":40,"Velocity":53,"Duration":502092,"SoundDuration":502092,"Delta":178353432},{"NoteNumber":80,"Velocity":64,"Duration":125523,"SoundDuration":125523,"Delta":178730001},{"NoteNumber":76,"Velocity":76,"Duration":751186,"SoundDuration":751186,"Delta":178855524},{"NoteNumber":61,"Velocity":37,"Duration":495868,"SoundDuration":495868,"Delta":178855524},{"NoteNumber":59,"Velocity":37,"Duration":495868,"SoundDuration":495868,"Delta":178855524},{"NoteNumber":64,"Velocity":37,"Duration":495868,"SoundDuration":495868,"Delta":178855524},{"NoteNumber":68,"Velocity":44,"Duration":495868,"SoundDuration":495868,"Delta":178855524},{"NoteNumber":75,"Velocity":67,"Duration":255319,"SoundDuration":255319,"Delta":179606711},{"NoteNumber":75,"Velocity":71,"Duration":247933,"SoundDuration":247933,"Delta":179862030},{"NoteNumber":42,"Velocity":50,"Duration":500656,"SoundDuration":500656,"Delta":179862030},{"NoteNumber":73,"Velocity":59,"Duration":64377,"SoundDuration":64377,"Delta":180109964},{"NoteNumber":75,"Velocity":60,"Duration":64377,"SoundDuration":64377,"Delta":180174342},{"NoteNumber":73,"Velocity":69,"Duration":123966,"SoundDuration":123966,"Delta":180238719},{"NoteNumber":72,"Velocity":67,"Duration":495868,"SoundDuration":495868,"Delta":180362686},{"NoteNumber":64,"Velocity":43,"Duration":495868,"SoundDuration":495868,"Delta":180362686},{"NoteNumber":58,"Velocity":36,"Duration":495868,"SoundDuration":495868,"Delta":180362686},{"NoteNumber":54,"Velocity":36,"Duration":495868,"SoundDuration":495868,"Delta":180362686},{"NoteNumber":73,"Velocity":70,"Duration":535714,"SoundDuration":535714,"Delta":180858554},{"NoteNumber":54,"Velocity":38,"Duration":535714,"SoundDuration":535714,"Delta":180858554},{"NoteNumber":58,"Velocity":38,"Duration":535714,"SoundDuration":535714,"Delta":180858554},{"NoteNumber":64,"Velocity":45,"Duration":535714,"SoundDuration":535714,"Delta":180858554},{"NoteNumber":76,"Velocity":74,"Duration":998131,"SoundDuration":998131,"Delta":181394268},{"NoteNumber":43,"Velocity":54,"Duration":506328,"SoundDuration":506328,"Delta":181394268},{"NoteNumber":63,"Velocity":47,"Duration":491803,"SoundDuration":491803,"Delta":181900597},{"NoteNumber":58,"Velocity":39,"Duration":491803,"SoundDuration":491803,"Delta":181900597},{"NoteNumber":51,"Velocity":39,"Duration":491803,"SoundDuration":491803,"Delta":181900597},{"NoteNumber":75,"Velocity":64,"Duration":508475,"SoundDuration":508475,"Delta":182392400},{"NoteNumber":51,"Velocity":37,"Duration":508475,"SoundDuration":508475,"Delta":182392400},{"NoteNumber":58,"Velocity":37,"Duration":508475,"SoundDuration":508475,"Delta":182392400},{"NoteNumber":63,"Velocity":44,"Duration":508475,"SoundDuration":508475,"Delta":182392400},{"NoteNumber":71,"Velocity":58,"Duration":254237,"SoundDuration":254237,"Delta":182900875},{"NoteNumber":44,"Velocity":50,"Duration":508475,"SoundDuration":508475,"Delta":182900875},{"NoteNumber":73,"Velocity":60,"Duration":254237,"SoundDuration":254237,"Delta":183155113},{"NoteNumber":74,"Velocity":63,"Duration":497925,"SoundDuration":497925,"Delta":183409350},{"NoteNumber":59,"Velocity":43,"Duration":497925,"SoundDuration":497925,"Delta":183409350},{"NoteNumber":56,"Velocity":36,"Duration":497925,"SoundDuration":497925,"Delta":183409350},{"NoteNumber":51,"Velocity":36,"Duration":497925,"SoundDuration":497925,"Delta":183409350},{"NoteNumber":75,"Velocity":68,"Duration":515020,"SoundDuration":515020,"Delta":183907275},{"NoteNumber":51,"Velocity":36,"Duration":515020,"SoundDuration":515020,"Delta":183907275},{"NoteNumber":56,"Velocity":36,"Duration":515020,"SoundDuration":515020,"Delta":183907275},{"NoteNumber":59,"Velocity":43,"Duration":515020,"SoundDuration":515020,"Delta":183907275},{"NoteNumber":78,"Velocity":72,"Duration":257510,"SoundDuration":257510,"Delta":184422296},{"NoteNumber":37,"Velocity":53,"Duration":515021,"SoundDuration":515021,"Delta":184422296},{"NoteNumber":76,"Velocity":64,"Duration":257510,"SoundDuration":257510,"Delta":184679807},{"NoteNumber":73,"Velocity":70,"Duration":504201,"SoundDuration":504201,"Delta":184937317},{"NoteNumber":64,"Velocity":45,"Duration":504201,"SoundDuration":504201,"Delta":184937317},{"NoteNumber":61,"Velocity":38,"Duration":504201,"SoundDuration":504201,"Delta":184937317},{"NoteNumber":56,"Velocity":38,"Duration":504201,"SoundDuration":504201,"Delta":184937317},{"NoteNumber":68,"Velocity":56,"Duration":67567,"SoundDuration":67567,"Delta":185441519},{"NoteNumber":70,"Velocity":56,"Duration":67567,"SoundDuration":67567,"Delta":185509087},{"NoteNumber":68,"Velocity":64,"Duration":375351,"SoundDuration":375351,"Delta":185576655},{"NoteNumber":67,"Velocity":64,"Duration":387930,"SoundDuration":387930,"Delta":185952007},{"NoteNumber":50,"Velocity":50,"Duration":517240,"SoundDuration":517240,"Delta":185952007},{"NoteNumber":68,"Velocity":61,"Duration":129310,"SoundDuration":129310,"Delta":186339937},{"NoteNumber":71,"Velocity":64,"Duration":504201,"SoundDuration":504201,"Delta":186469248},{"NoteNumber":65,"Velocity":44,"Duration":504201,"SoundDuration":504201,"Delta":186469248},{"NoteNumber":59,"Velocity":37,"Duration":504201,"SoundDuration":504201,"Delta":186469248},{"NoteNumber":56,"Velocity":37,"Duration":504201,"SoundDuration":504201,"Delta":186469248},{"NoteNumber":70,"Velocity":64,"Duration":515020,"SoundDuration":515020,"Delta":186973450},{"NoteNumber":56,"Velocity":37,"Duration":515020,"SoundDuration":515020,"Delta":186973450},{"NoteNumber":58,"Velocity":37,"Duration":515020,"SoundDuration":515020,"Delta":186973450},{"NoteNumber":65,"Velocity":44,"Duration":515020,"SoundDuration":515020,"Delta":186973450},{"NoteNumber":67,"Velocity":69,"Duration":1041337,"SoundDuration":1041337,"Delta":187488471},{"NoteNumber":51,"Velocity":55,"Duration":515021,"SoundDuration":515021,"Delta":187488471},{"NoteNumber":63,"Velocity":47,"Duration":526316,"SoundDuration":526316,"Delta":188003492},{"NoteNumber":58,"Velocity":39,"Duration":526316,"SoundDuration":526316,"Delta":188003492},{"NoteNumber":55,"Velocity":39,"Duration":526316,"SoundDuration":526316,"Delta":188003492},{"NoteNumber":66,"Velocity":64,"Duration":568182,"SoundDuration":568182,"Delta":188529808},{"NoteNumber":49,"Velocity":39,"Duration":568182,"SoundDuration":568182,"Delta":188529808},{"NoteNumber":54,"Velocity":39,"Duration":568182,"SoundDuration":568182,"Delta":188529808},{"NoteNumber":58,"Velocity":39,"Duration":568182,"SoundDuration":568182,"Delta":188529808},{"NoteNumber":64,"Velocity":47,"Duration":568182,"SoundDuration":568182,"Delta":188529808},{"NoteNumber":75,"Velocity":59,"Duration":246913,"SoundDuration":246913,"Delta":189097990},{"NoteNumber":47,"Velocity":50,"Duration":493827,"SoundDuration":493827,"Delta":189097990},{"NoteNumber":76,"Velocity":61,"Duration":246913,"SoundDuration":246913,"Delta":189344903},{"NoteNumber":78,"Velocity":63,"Duration":513686,"SoundDuration":513686,"Delta":189591817},{"NoteNumber":63,"Velocity":43,"Duration":513686,"SoundDuration":513686,"Delta":189591817},{"NoteNumber":59,"Velocity":36,"Duration":513686,"SoundDuration":513686,"Delta":189591817},{"NoteNumber":54,"Velocity":36,"Duration":513686,"SoundDuration":513686,"Delta":189591817},{"NoteNumber":87,"Velocity":69,"Duration":555555,"SoundDuration":555555,"Delta":190105503},{"NoteNumber":85,"Velocity":69,"Duration":251046,"SoundDuration":251046,"Delta":190661059},{"NoteNumber":40,"Velocity":51,"Duration":502092,"SoundDuration":502092,"Delta":190661059},{"NoteNumber":83,"Velocity":64,"Duration":251046,"SoundDuration":251046,"Delta":190912105},{"NoteNumber":80,"Velocity":69,"Duration":495868,"SoundDuration":495868,"Delta":191163151},{"NoteNumber":61,"Velocity":37,"Duration":495868,"SoundDuration":495868,"Delta":191163151},{"NoteNumber":59,"Velocity":37,"Duration":495868,"SoundDuration":495868,"Delta":191163151},{"NoteNumber":64,"Velocity":37,"Duration":495868,"SoundDuration":495868,"Delta":191163151},{"NoteNumber":68,"Velocity":44,"Duration":495868,"SoundDuration":495868,"Delta":191163151},{"NoteNumber":76,"Velocity":67,"Duration":510638,"SoundDuration":510638,"Delta":191659019},{"NoteNumber":75,"Velocity":71,"Duration":247933,"SoundDuration":247933,"Delta":192169657},{"NoteNumber":42,"Velocity":50,"Duration":500656,"SoundDuration":500656,"Delta":192169657},{"NoteNumber":73,"Velocity":59,"Duration":64377,"SoundDuration":64377,"Delta":192417591},{"NoteNumber":75,"Velocity":60,"Duration":64377,"SoundDuration":64377,"Delta":192481969},{"NoteNumber":73,"Velocity":69,"Duration":123966,"SoundDuration":123966,"Delta":192546346},{"NoteNumber":72,"Velocity":67,"Duration":495868,"SoundDuration":495868,"Delta":192670313},{"NoteNumber":64,"Velocity":43,"Duration":495868,"SoundDuration":495868,"Delta":192670313},{"NoteNumber":58,"Velocity":36,"Duration":495868,"SoundDuration":495868,"Delta":192670313},{"NoteNumber":54,"Velocity":36,"Duration":495868,"SoundDuration":495868,"Delta":192670313},{"NoteNumber":73,"Velocity":70,"Duration":535714,"SoundDuration":535714,"Delta":193166181},{"NoteNumber":54,"Velocity":38,"Duration":535714,"SoundDuration":535714,"Delta":193166181},{"NoteNumber":58,"Velocity":38,"Duration":535714,"SoundDuration":535714,"Delta":193166181},{"NoteNumber":64,"Velocity":45,"Duration":535714,"SoundDuration":535714,"Delta":193166181},{"NoteNumber":76,"Velocity":71,"Duration":998131,"SoundDuration":998131,"Delta":193701895},{"NoteNumber":43,"Velocity":54,"Duration":506328,"SoundDuration":506328,"Delta":193701895},{"NoteNumber":63,"Velocity":47,"Duration":491803,"SoundDuration":491803,"Delta":194208224},{"NoteNumber":58,"Velocity":39,"Duration":491803,"SoundDuration":491803,"Delta":194208224},{"NoteNumber":51,"Velocity":39,"Duration":491803,"SoundDuration":491803,"Delta":194208224},{"NoteNumber":75,"Velocity":64,"Duration":543477,"SoundDuration":543477,"Delta":194700027},{"NoteNumber":51,"Velocity":37,"Duration":543477,"SoundDuration":543477,"Delta":194700027},{"NoteNumber":58,"Velocity":37,"Duration":543477,"SoundDuration":543477,"Delta":194700027},{"NoteNumber":63,"Velocity":44,"Duration":543477,"SoundDuration":543477,"Delta":194700027},{"NoteNumber":75,"Velocity":77,"Duration":755291,"SoundDuration":755291,"Delta":195243505},{"NoteNumber":44,"Velocity":55,"Duration":506328,"SoundDuration":506328,"Delta":195243505},{"NoteNumber":53,"Velocity":36,"Duration":497925,"SoundDuration":497925,"Delta":195749834},{"NoteNumber":63,"Velocity":43,"Duration":497925,"SoundDuration":497925,"Delta":195749834},{"NoteNumber":59,"Velocity":36,"Duration":497925,"SoundDuration":497925,"Delta":195749834},{"NoteNumber":56,"Velocity":36,"Duration":497925,"SoundDuration":497925,"Delta":195749834},{"NoteNumber":75,"Velocity":64,"Duration":62240,"SoundDuration":62240,"Delta":195998797},{"NoteNumber":77,"Velocity":64,"Duration":62240,"SoundDuration":62240,"Delta":196061037},{"NoteNumber":75,"Velocity":72,"Duration":124481,"SoundDuration":124481,"Delta":196123278},{"NoteNumber":73,"Velocity":74,"Duration":257510,"SoundDuration":257510,"Delta":196247759},{"NoteNumber":71,"Velocity":71,"Duration":257510,"SoundDuration":257510,"Delta":196505270},{"NoteNumber":70,"Velocity":79,"Duration":257510,"SoundDuration":257510,"Delta":196762780},{"NoteNumber":46,"Velocity":53,"Duration":515021,"SoundDuration":515021,"Delta":196762780},{"NoteNumber":75,"Velocity":73,"Duration":257510,"SoundDuration":257510,"Delta":197020291},{"NoteNumber":78,"Velocity":80,"Duration":504201,"SoundDuration":504201,"Delta":197277801},{"NoteNumber":63,"Velocity":45,"Duration":504201,"SoundDuration":504201,"Delta":197277801},{"NoteNumber":58,"Velocity":38,"Duration":504201,"SoundDuration":504201,"Delta":197277801},{"NoteNumber":54,"Velocity":38,"Duration":504201,"SoundDuration":504201,"Delta":197277801},{"NoteNumber":83,"Velocity":79,"Duration":513939,"SoundDuration":513939,"Delta":197782003},{"NoteNumber":54,"Velocity":38,"Duration":513939,"SoundDuration":513939,"Delta":197782003},{"NoteNumber":58,"Velocity":38,"Duration":513939,"SoundDuration":513939,"Delta":197782003},{"NoteNumber":63,"Velocity":45,"Duration":513939,"SoundDuration":513939,"Delta":197782003},{"NoteNumber":82,"Velocity":81,"Duration":258620,"SoundDuration":258620,"Delta":198295943},{"NoteNumber":46,"Velocity":50,"Duration":517240,"SoundDuration":517240,"Delta":198295943},{"NoteNumber":77,"Velocity":70,"Duration":258620,"SoundDuration":258620,"Delta":198554563},{"NoteNumber":80,"Velocity":80,"Duration":761712,"SoundDuration":761712,"Delta":198813184},{"NoteNumber":62,"Velocity":44,"Duration":504201,"SoundDuration":504201,"Delta":198813184},{"NoteNumber":58,"Velocity":37,"Duration":504201,"SoundDuration":504201,"Delta":198813184},{"NoteNumber":56,"Velocity":37,"Duration":504201,"SoundDuration":504201,"Delta":198813184},{"NoteNumber":56,"Velocity":37,"Duration":515020,"SoundDuration":515020,"Delta":199317386},{"NoteNumber":58,"Velocity":37,"Duration":515020,"SoundDuration":515020,"Delta":199317386},{"NoteNumber":65,"Velocity":44,"Duration":515020,"SoundDuration":515020,"Delta":199317386},{"NoteNumber":78,"Velocity":77,"Duration":257510,"SoundDuration":257510,"Delta":199574896},{"NoteNumber":75,"Velocity":81,"Duration":515021,"SoundDuration":515021,"Delta":199832407},{"NoteNumber":51,"Velocity":55,"Duration":515021,"SoundDuration":515021,"Delta":199832407},{"NoteNumber":66,"Velocity":80,"Duration":284090,"SoundDuration":284090,"Delta":200347428},{"NoteNumber":63,"Velocity":39,"Duration":555583,"SoundDuration":555583,"Delta":200347428},{"NoteNumber":58,"Velocity":33,"Duration":555583,"SoundDuration":555583,"Delta":200347428},{"NoteNumber":54,"Velocity":29,"Duration":555583,"SoundDuration":555583,"Delta":200347428},{"NoteNumber":78,"Velocity":79,"Duration":271492,"SoundDuration":271492,"Delta":200631519},{"NoteNumber":77,"Velocity":78,"Duration":273722,"SoundDuration":273722,"Delta":200903012},{"NoteNumber":49,"Velocity":23,"Duration":566691,"SoundDuration":566691,"Delta":200903012},{"NoteNumber":54,"Velocity":28,"Duration":566691,"SoundDuration":566691,"Delta":200903012},{"NoteNumber":58,"Velocity":30,"Duration":566691,"SoundDuration":566691,"Delta":200903012},{"NoteNumber":64,"Velocity":35,"Duration":566691,"SoundDuration":566691,"Delta":200903012},{"NoteNumber":76,"Velocity":70,"Duration":292968,"SoundDuration":292968,"Delta":201176734},{"NoteNumber":75,"Velocity":67,"Duration":246913,"SoundDuration":246913,"Delta":201469703},{"NoteNumber":47,"Velocity":50,"Duration":493827,"SoundDuration":493827,"Delta":201469703},{"NoteNumber":76,"Velocity":70,"Duration":246913,"SoundDuration":246913,"Delta":201716617},{"NoteNumber":77,"Velocity":72,"Duration":487805,"SoundDuration":487805,"Delta":201963530},{"NoteNumber":63,"Velocity":43,"Duration":487805,"SoundDuration":487805,"Delta":201963530},{"NoteNumber":59,"Velocity":36,"Duration":487805,"SoundDuration":487805,"Delta":201963530},{"NoteNumber":57,"Velocity":36,"Duration":487805,"SoundDuration":487805,"Delta":201963530},{"NoteNumber":78,"Velocity":75,"Duration":508475,"SoundDuration":508475,"Delta":202451335},{"NoteNumber":59,"Velocity":36,"Duration":508475,"SoundDuration":508475,"Delta":202451335},{"NoteNumber":63,"Velocity":36,"Duration":508475,"SoundDuration":508475,"Delta":202451335},{"NoteNumber":69,"Velocity":43,"Duration":508475,"SoundDuration":508475,"Delta":202451335},{"NoteNumber":79,"Velocity":75,"Duration":376568,"SoundDuration":376568,"Delta":202959810},{"NoteNumber":40,"Velocity":53,"Duration":502092,"SoundDuration":502092,"Delta":202959810},{"NoteNumber":80,"Velocity":64,"Duration":125523,"SoundDuration":125523,"Delta":203336379},{"NoteNumber":76,"Velocity":69,"Duration":751186,"SoundDuration":751186,"Delta":203461902},{"NoteNumber":61,"Velocity":37,"Duration":495868,"SoundDuration":495868,"Delta":203461902},{"NoteNumber":59,"Velocity":37,"Duration":495868,"SoundDuration":495868,"Delta":203461902},{"NoteNumber":64,"Velocity":37,"Duration":495868,"SoundDuration":495868,"Delta":203461902},{"NoteNumber":68,"Velocity":44,"Duration":495868,"SoundDuration":495868,"Delta":203461902},{"NoteNumber":75,"Velocity":67,"Duration":255319,"SoundDuration":255319,"Delta":204213089},{"NoteNumber":75,"Velocity":71,"Duration":247933,"SoundDuration":247933,"Delta":204468408},{"NoteNumber":42,"Velocity":50,"Duration":500656,"SoundDuration":500656,"Delta":204468408},{"NoteNumber":73,"Velocity":59,"Duration":64377,"SoundDuration":64377,"Delta":204716342},{"NoteNumber":75,"Velocity":60,"Duration":64377,"SoundDuration":64377,"Delta":204780720},{"NoteNumber":73,"Velocity":69,"Duration":123966,"SoundDuration":123966,"Delta":204845098},{"NoteNumber":72,"Velocity":67,"Duration":495868,"SoundDuration":495868,"Delta":204969065},{"NoteNumber":64,"Velocity":43,"Duration":495868,"SoundDuration":495868,"Delta":204969065},{"NoteNumber":58,"Velocity":36,"Duration":495868,"SoundDuration":495868,"Delta":204969065},{"NoteNumber":54,"Velocity":36,"Duration":495868,"SoundDuration":495868,"Delta":204969065},{"NoteNumber":73,"Velocity":70,"Duration":554977,"SoundDuration":554977,"Delta":205464933},{"NoteNumber":54,"Velocity":38,"Duration":554977,"SoundDuration":554977,"Delta":205464933},{"NoteNumber":58,"Velocity":38,"Duration":554977,"SoundDuration":554977,"Delta":205464933},{"NoteNumber":64,"Velocity":45,"Duration":554977,"SoundDuration":554977,"Delta":205464933},{"NoteNumber":76,"Velocity":73,"Duration":998131,"SoundDuration":998131,"Delta":206019910},{"NoteNumber":43,"Velocity":54,"Duration":506328,"SoundDuration":506328,"Delta":206019910},{"NoteNumber":63,"Velocity":47,"Duration":491803,"SoundDuration":491803,"Delta":206526239},{"NoteNumber":58,"Velocity":39,"Duration":491803,"SoundDuration":491803,"Delta":206526239},{"NoteNumber":51,"Velocity":39,"Duration":491803,"SoundDuration":491803,"Delta":206526239},{"NoteNumber":75,"Velocity":64,"Duration":508475,"SoundDuration":508475,"Delta":207018042},{"NoteNumber":51,"Velocity":37,"Duration":508475,"SoundDuration":508475,"Delta":207018042},{"NoteNumber":58,"Velocity":37,"Duration":508475,"SoundDuration":508475,"Delta":207018042},{"NoteNumber":63,"Velocity":44,"Duration":508475,"SoundDuration":508475,"Delta":207018042},{"NoteNumber":71,"Velocity":58,"Duration":254237,"SoundDuration":254237,"Delta":207526517},{"NoteNumber":44,"Velocity":50,"Duration":508475,"SoundDuration":508475,"Delta":207526517},{"NoteNumber":73,"Velocity":60,"Duration":254237,"SoundDuration":254237,"Delta":207780755},{"NoteNumber":74,"Velocity":63,"Duration":497925,"SoundDuration":497925,"Delta":208034992},{"NoteNumber":59,"Velocity":43,"Duration":497925,"SoundDuration":497925,"Delta":208034992},{"NoteNumber":56,"Velocity":36,"Duration":497925,"SoundDuration":497925,"Delta":208034992},{"NoteNumber":51,"Velocity":36,"Duration":497925,"SoundDuration":497925,"Delta":208034992},{"NoteNumber":75,"Velocity":67,"Duration":515020,"SoundDuration":515020,"Delta":208532917},{"NoteNumber":51,"Velocity":36,"Duration":515020,"SoundDuration":515020,"Delta":208532917},{"NoteNumber":56,"Velocity":36,"Duration":515020,"SoundDuration":515020,"Delta":208532917},{"NoteNumber":59,"Velocity":43,"Duration":515020,"SoundDuration":515020,"Delta":208532917},{"NoteNumber":78,"Velocity":69,"Duration":257510,"SoundDuration":257510,"Delta":209047938},{"NoteNumber":37,"Velocity":53,"Duration":515021,"SoundDuration":515021,"Delta":209047938},{"NoteNumber":76,"Velocity":64,"Duration":257510,"SoundDuration":257510,"Delta":209305449},{"NoteNumber":73,"Velocity":70,"Duration":504201,"SoundDuration":504201,"Delta":209562959},{"NoteNumber":64,"Velocity":45,"Duration":504201,"SoundDuration":504201,"Delta":209562959},{"NoteNumber":61,"Velocity":38,"Duration":504201,"SoundDuration":504201,"Delta":209562959},{"NoteNumber":56,"Velocity":38,"Duration":504201,"SoundDuration":504201,"Delta":209562959},{"NoteNumber":68,"Velocity":56,"Duration":67567,"SoundDuration":67567,"Delta":210067161},{"NoteNumber":70,"Velocity":56,"Duration":67567,"SoundDuration":67567,"Delta":210134729},{"NoteNumber":68,"Velocity":64,"Duration":375351,"SoundDuration":375351,"Delta":210202296},{"NoteNumber":67,"Velocity":64,"Duration":387930,"SoundDuration":387930,"Delta":210577648},{"NoteNumber":50,"Velocity":50,"Duration":517240,"SoundDuration":517240,"Delta":210577648},{"NoteNumber":68,"Velocity":61,"Duration":129310,"SoundDuration":129310,"Delta":210965579},{"NoteNumber":71,"Velocity":64,"Duration":504201,"SoundDuration":504201,"Delta":211094889},{"NoteNumber":65,"Velocity":44,"Duration":504201,"SoundDuration":504201,"Delta":211094889},{"NoteNumber":59,"Velocity":37,"Duration":504201,"SoundDuration":504201,"Delta":211094889},{"NoteNumber":56,"Velocity":37,"Duration":504201,"SoundDuration":504201,"Delta":211094889},{"NoteNumber":70,"Velocity":64,"Duration":515020,"SoundDuration":515020,"Delta":211599091},{"NoteNumber":56,"Velocity":37,"Duration":515020,"SoundDuration":515020,"Delta":211599091},{"NoteNumber":58,"Velocity":37,"Duration":515020,"SoundDuration":515020,"Delta":211599091},{"NoteNumber":65,"Velocity":44,"Duration":515020,"SoundDuration":515020,"Delta":211599091},{"NoteNumber":67,"Velocity":69,"Duration":1043190,"SoundDuration":1043190,"Delta":212114112},{"NoteNumber":51,"Velocity":55,"Duration":515021,"SoundDuration":515021,"Delta":212114112},{"NoteNumber":63,"Velocity":47,"Duration":528168,"SoundDuration":528168,"Delta":212629133},{"NoteNumber":58,"Velocity":39,"Duration":528168,"SoundDuration":528168,"Delta":212629133},{"NoteNumber":55,"Velocity":39,"Duration":528168,"SoundDuration":528168,"Delta":212629133},{"NoteNumber":66,"Velocity":64,"Duration":547445,"SoundDuration":547445,"Delta":213157302},{"NoteNumber":49,"Velocity":34,"Duration":547445,"SoundDuration":547445,"Delta":213157302},{"NoteNumber":54,"Velocity":35,"Duration":547445,"SoundDuration":547445,"Delta":213157302},{"NoteNumber":58,"Velocity":39,"Duration":547445,"SoundDuration":547445,"Delta":213157302},{"NoteNumber":64,"Velocity":47,"Duration":547445,"SoundDuration":547445,"Delta":213157302},{"NoteNumber":75,"Velocity":59,"Duration":246913,"SoundDuration":246913,"Delta":213704747},{"NoteNumber":47,"Velocity":50,"Duration":493827,"SoundDuration":493827,"Delta":213704747},{"NoteNumber":76,"Velocity":61,"Duration":246913,"SoundDuration":246913,"Delta":213951661},{"NoteNumber":78,"Velocity":63,"Duration":507986,"SoundDuration":507986,"Delta":214198574},{"NoteNumber":63,"Velocity":43,"Duration":507986,"SoundDuration":507986,"Delta":214198574},{"NoteNumber":59,"Velocity":36,"Duration":507986,"SoundDuration":507986,"Delta":214198574},{"NoteNumber":54,"Velocity":36,"Duration":507986,"SoundDuration":507986,"Delta":214198574},{"NoteNumber":87,"Velocity":69,"Duration":555555,"SoundDuration":555555,"Delta":214706561},{"NoteNumber":85,"Velocity":69,"Duration":251046,"SoundDuration":251046,"Delta":215262117},{"NoteNumber":40,"Velocity":51,"Duration":502092,"SoundDuration":502092,"Delta":215262117},{"NoteNumber":83,"Velocity":64,"Duration":251046,"SoundDuration":251046,"Delta":215513163},{"NoteNumber":80,"Velocity":69,"Duration":495868,"SoundDuration":495868,"Delta":215764209},{"NoteNumber":61,"Velocity":37,"Duration":495868,"SoundDuration":495868,"Delta":215764209},{"NoteNumber":59,"Velocity":37,"Duration":495868,"SoundDuration":495868,"Delta":215764209},{"NoteNumber":64,"Velocity":37,"Duration":495868,"SoundDuration":495868,"Delta":215764209},{"NoteNumber":68,"Velocity":44,"Duration":495868,"SoundDuration":495868,"Delta":215764209},{"NoteNumber":76,"Velocity":67,"Duration":510638,"SoundDuration":510638,"Delta":216260077},{"NoteNumber":75,"Velocity":71,"Duration":247933,"SoundDuration":247933,"Delta":216770715},{"NoteNumber":42,"Velocity":50,"Duration":500656,"SoundDuration":500656,"Delta":216770715},{"NoteNumber":73,"Velocity":59,"Duration":64377,"SoundDuration":64377,"Delta":217018649},{"NoteNumber":75,"Velocity":60,"Duration":64377,"SoundDuration":64377,"Delta":217083027},{"NoteNumber":73,"Velocity":69,"Duration":123966,"SoundDuration":123966,"Delta":217147405},{"NoteNumber":72,"Velocity":67,"Duration":495868,"SoundDuration":495868,"Delta":217271372},{"NoteNumber":64,"Velocity":43,"Duration":495868,"SoundDuration":495868,"Delta":217271372},{"NoteNumber":58,"Velocity":36,"Duration":495868,"SoundDuration":495868,"Delta":217271372},{"NoteNumber":54,"Velocity":36,"Duration":495868,"SoundDuration":495868,"Delta":217271372},{"NoteNumber":73,"Velocity":70,"Duration":539568,"SoundDuration":539568,"Delta":217767240},{"NoteNumber":54,"Velocity":38,"Duration":539568,"SoundDuration":539568,"Delta":217767240},{"NoteNumber":58,"Velocity":38,"Duration":539568,"SoundDuration":539568,"Delta":217767240},{"NoteNumber":64,"Velocity":45,"Duration":539568,"SoundDuration":539568,"Delta":217767240},{"NoteNumber":76,"Velocity":71,"Duration":998131,"SoundDuration":998131,"Delta":218306808},{"NoteNumber":43,"Velocity":54,"Duration":506328,"SoundDuration":506328,"Delta":218306808},{"NoteNumber":63,"Velocity":47,"Duration":491803,"SoundDuration":491803,"Delta":218813137},{"NoteNumber":58,"Velocity":39,"Duration":491803,"SoundDuration":491803,"Delta":218813137},{"NoteNumber":51,"Velocity":39,"Duration":491803,"SoundDuration":491803,"Delta":218813137},{"NoteNumber":75,"Velocity":64,"Duration":524016,"SoundDuration":524016,"Delta":219304940},{"NoteNumber":51,"Velocity":37,"Duration":524016,"SoundDuration":524016,"Delta":219304940},{"NoteNumber":58,"Velocity":37,"Duration":524016,"SoundDuration":524016,"Delta":219304940},{"NoteNumber":63,"Velocity":44,"Duration":524016,"SoundDuration":524016,"Delta":219304940},{"NoteNumber":75,"Velocity":67,"Duration":755291,"SoundDuration":755291,"Delta":219828957},{"NoteNumber":44,"Velocity":55,"Duration":506328,"SoundDuration":506328,"Delta":219828957},{"NoteNumber":53,"Velocity":36,"Duration":497925,"SoundDuration":497925,"Delta":220335286},{"NoteNumber":63,"Velocity":43,"Duration":497925,"SoundDuration":497925,"Delta":220335286},{"NoteNumber":59,"Velocity":36,"Duration":497925,"SoundDuration":497925,"Delta":220335286},{"NoteNumber":56,"Velocity":36,"Duration":497925,"SoundDuration":497925,"Delta":220335286},{"NoteNumber":75,"Velocity":56,"Duration":62240,"SoundDuration":62240,"Delta":220584248},{"NoteNumber":77,"Velocity":56,"Duration":62240,"SoundDuration":62240,"Delta":220646489},{"NoteNumber":75,"Velocity":63,"Duration":124481,"SoundDuration":124481,"Delta":220708729},{"NoteNumber":73,"Velocity":65,"Duration":257510,"SoundDuration":257510,"Delta":220833211},{"NoteNumber":71,"Velocity":62,"Duration":257510,"SoundDuration":257510,"Delta":221090721},{"NoteNumber":70,"Velocity":69,"Duration":257510,"SoundDuration":257510,"Delta":221348232},{"NoteNumber":46,"Velocity":53,"Duration":515021,"SoundDuration":515021,"Delta":221348232},{"NoteNumber":75,"Velocity":64,"Duration":257510,"SoundDuration":257510,"Delta":221605742},{"NoteNumber":78,"Velocity":70,"Duration":504201,"SoundDuration":504201,"Delta":221863253},{"NoteNumber":63,"Velocity":45,"Duration":504201,"SoundDuration":504201,"Delta":221863253},{"NoteNumber":58,"Velocity":38,"Duration":504201,"SoundDuration":504201,"Delta":221863253},{"NoteNumber":54,"Velocity":38,"Duration":504201,"SoundDuration":504201,"Delta":221863253},{"NoteNumber":83,"Velocity":69,"Duration":513939,"SoundDuration":513939,"Delta":222367455},{"NoteNumber":54,"Velocity":38,"Duration":513939,"SoundDuration":513939,"Delta":222367455},{"NoteNumber":58,"Velocity":38,"Duration":513939,"SoundDuration":513939,"Delta":222367455},{"NoteNumber":63,"Velocity":45,"Duration":513939,"SoundDuration":513939,"Delta":222367455},{"NoteNumber":82,"Velocity":71,"Duration":258620,"SoundDuration":258620,"Delta":222881394},{"NoteNumber":46,"Velocity":50,"Duration":517240,"SoundDuration":517240,"Delta":222881394},{"NoteNumber":77,"Velocity":61,"Duration":258620,"SoundDuration":258620,"Delta":223140015},{"NoteNumber":80,"Velocity":70,"Duration":761712,"SoundDuration":761712,"Delta":223398635},{"NoteNumber":62,"Velocity":44,"Duration":504201,"SoundDuration":504201,"Delta":223398635},{"NoteNumber":58,"Velocity":37,"Duration":504201,"SoundDuration":504201,"Delta":223398635},{"NoteNumber":56,"Velocity":37,"Duration":504201,"SoundDuration":504201,"Delta":223398635},{"NoteNumber":56,"Velocity":37,"Duration":515020,"SoundDuration":515020,"Delta":223902837},{"NoteNumber":58,"Velocity":37,"Duration":515020,"SoundDuration":515020,"Delta":223902837},{"NoteNumber":65,"Velocity":44,"Duration":515020,"SoundDuration":515020,"Delta":223902837},{"NoteNumber":78,"Velocity":67,"Duration":257510,"SoundDuration":257510,"Delta":224160348},{"NoteNumber":75,"Velocity":71,"Duration":1049672,"SoundDuration":1049672,"Delta":224417858},{"NoteNumber":51,"Velocity":55,"Duration":515021,"SoundDuration":515021,"Delta":224417858},{"NoteNumber":63,"Velocity":39,"Duration":534650,"SoundDuration":534650,"Delta":224932879},{"NoteNumber":58,"Velocity":33,"Duration":534650,"SoundDuration":534650,"Delta":224932879},{"NoteNumber":54,"Velocity":29,"Duration":534650,"SoundDuration":534650,"Delta":224932879},{"NoteNumber":78,"Velocity":75,"Duration":483870,"SoundDuration":483870,"Delta":225467530},{"NoteNumber":54,"Velocity":36,"Duration":483870,"SoundDuration":483870,"Delta":225467530},{"NoteNumber":58,"Velocity":42,"Duration":483870,"SoundDuration":483870,"Delta":225467530},{"NoteNumber":66,"Velocity":50,"Duration":483870,"SoundDuration":483870,"Delta":225467530},{"NoteNumber":92,"Velocity":82,"Duration":313589,"SoundDuration":313589,"Delta":225951401},{"NoteNumber":80,"Velocity":69,"Duration":313589,"SoundDuration":313589,"Delta":225951401},{"NoteNumber":70,"Velocity":54,"Duration":105255,"SoundDuration":105255,"Delta":225951401},{"NoteNumber":76,"Velocity":64,"Duration":105255,"SoundDuration":105255,"Delta":225951401},{"NoteNumber":90,"Velocity":77,"Duration":98684,"SoundDuration":98684,"Delta":226264990},{"NoteNumber":78,"Velocity":65,"Duration":98684,"SoundDuration":98684,"Delta":226264990},{"NoteNumber":66,"Velocity":60,"Duration":98684,"SoundDuration":98684,"Delta":226264990},{"NoteNumber":88,"Velocity":76,"Duration":321428,"SoundDuration":321428,"Delta":226363675},{"NoteNumber":76,"Velocity":64,"Duration":321428,"SoundDuration":321428,"Delta":226363675},{"NoteNumber":54,"Velocity":58,"Duration":428571,"SoundDuration":428571,"Delta":226363675},{"NoteNumber":64,"Velocity":63,"Duration":421053,"SoundDuration":421053,"Delta":226792246},{"NoteNumber":70,"Velocity":75,"Duration":421053,"SoundDuration":421053,"Delta":226792246},{"NoteNumber":42,"Velocity":60,"Duration":421053,"SoundDuration":421053,"Delta":226792246},{"NoteNumber":63,"Velocity":64,"Duration":206185,"SoundDuration":206185,"Delta":227213299},{"NoteNumber":71,"Velocity":76,"Duration":206185,"SoundDuration":206185,"Delta":227213299},{"NoteNumber":47,"Velocity":68,"Duration":206185,"SoundDuration":206185,"Delta":227213299},{"NoteNumber":66,"Velocity":62,"Duration":99337,"SoundDuration":99337,"Delta":227522577},{"NoteNumber":73,"Velocity":73,"Duration":99337,"SoundDuration":99337,"Delta":227522577},{"NoteNumber":54,"Velocity":59,"Duration":99337,"SoundDuration":99337,"Delta":227522577},{"NoteNumber":71,"Velocity":68,"Duration":412371,"SoundDuration":412371,"Delta":227621915},{"NoteNumber":75,"Velocity":81,"Duration":412371,"SoundDuration":412371,"Delta":227621915},{"NoteNumber":63,"Velocity":66,"Duration":412371,"SoundDuration":412371,"Delta":227621915},{"NoteNumber":59,"Velocity":56,"Duration":412371,"SoundDuration":412371,"Delta":227621915},{"NoteNumber":78,"Velocity":65,"Duration":421053,"SoundDuration":421053,"Delta":228034286},{"NoteNumber":90,"Velocity":77,"Duration":421053,"SoundDuration":421053,"Delta":228034286},{"NoteNumber":71,"Velocity":51,"Duration":421053,"SoundDuration":421053,"Delta":228034286},{"NoteNumber":75,"Velocity":60,"Duration":421053,"SoundDuration":421053,"Delta":228034286},{"NoteNumber":92,"Velocity":82,"Duration":309278,"SoundDuration":309278,"Delta":228455339},{"NoteNumber":80,"Velocity":69,"Duration":309278,"SoundDuration":309278,"Delta":228455339},{"NoteNumber":70,"Velocity":54,"Duration":103092,"SoundDuration":103092,"Delta":228455339},{"NoteNumber":76,"Velocity":64,"Duration":103092,"SoundDuration":103092,"Delta":228455339},{"NoteNumber":90,"Velocity":77,"Duration":98684,"SoundDuration":98684,"Delta":228764617},{"NoteNumber":78,"Velocity":65,"Duration":98684,"SoundDuration":98684,"Delta":228764617},{"NoteNumber":66,"Velocity":60,"Duration":98684,"SoundDuration":98684,"Delta":228764617},{"NoteNumber":88,"Velocity":76,"Duration":309278,"SoundDuration":309278,"Delta":228863301},{"NoteNumber":76,"Velocity":64,"Duration":309278,"SoundDuration":309278,"Delta":228863301},{"NoteNumber":54,"Velocity":58,"Duration":412371,"SoundDuration":412371,"Delta":228863301},{"NoteNumber":64,"Velocity":63,"Duration":422535,"SoundDuration":422535,"Delta":229275672},{"NoteNumber":70,"Velocity":75,"Duration":422535,"SoundDuration":422535,"Delta":229275672},{"NoteNumber":42,"Velocity":60,"Duration":422535,"SoundDuration":422535,"Delta":229275672},{"NoteNumber":63,"Velocity":64,"Duration":206185,"SoundDuration":206185,"Delta":229698207},{"NoteNumber":71,"Velocity":76,"Duration":206185,"SoundDuration":206185,"Delta":229698207},{"NoteNumber":47,"Velocity":68,"Duration":206185,"SoundDuration":206185,"Delta":229698207},{"NoteNumber":66,"Velocity":62,"Duration":99337,"SoundDuration":99337,"Delta":230007485},{"NoteNumber":73,"Velocity":73,"Duration":99337,"SoundDuration":99337,"Delta":230007485},{"NoteNumber":54,"Velocity":59,"Duration":99337,"SoundDuration":99337,"Delta":230007485},{"NoteNumber":71,"Velocity":68,"Duration":433212,"SoundDuration":433212,"Delta":230106823},{"NoteNumber":75,"Velocity":81,"Duration":433212,"SoundDuration":433212,"Delta":230106823},{"NoteNumber":63,"Velocity":66,"Duration":433212,"SoundDuration":433212,"Delta":230106823},{"NoteNumber":59,"Velocity":56,"Duration":433212,"SoundDuration":433212,"Delta":230106823},{"NoteNumber":75,"Velocity":65,"Duration":422535,"SoundDuration":422535,"Delta":230540036},{"NoteNumber":78,"Velocity":77,"Duration":422535,"SoundDuration":422535,"Delta":230540036},{"NoteNumber":85,"Velocity":69,"Duration":103448,"SoundDuration":103448,"Delta":230962571},{"NoteNumber":88,"Velocity":81,"Duration":103448,"SoundDuration":103448,"Delta":230962571},{"NoteNumber":52,"Velocity":68,"Duration":103448,"SoundDuration":103448,"Delta":230962571},{"NoteNumber":78,"Velocity":62,"Duration":95237,"SoundDuration":95237,"Delta":231272916},{"NoteNumber":82,"Velocity":73,"Duration":95237,"SoundDuration":95237,"Delta":231272916},{"NoteNumber":73,"Velocity":62,"Duration":95237,"SoundDuration":95237,"Delta":231272916},{"NoteNumber":76,"Velocity":66,"Duration":304053,"SoundDuration":304053,"Delta":231368154},{"NoteNumber":80,"Velocity":73,"Duration":304053,"SoundDuration":304053,"Delta":231368154},{"NoteNumber":64,"Velocity":56,"Duration":304053,"SoundDuration":304053,"Delta":231368154},{"NoteNumber":68,"Velocity":66,"Duration":304053,"SoundDuration":304053,"Delta":231368154},{"NoteNumber":78,"Velocity":62,"Duration":97402,"SoundDuration":97402,"Delta":231672208},{"NoteNumber":82,"Velocity":73,"Duration":97402,"SoundDuration":97402,"Delta":231672208},{"NoteNumber":73,"Velocity":62,"Duration":97402,"SoundDuration":97402,"Delta":231672208},{"NoteNumber":76,"Velocity":65,"Duration":427045,"SoundDuration":427045,"Delta":231769610},{"NoteNumber":80,"Velocity":77,"Duration":427045,"SoundDuration":427045,"Delta":231769610},{"NoteNumber":64,"Velocity":55,"Duration":427045,"SoundDuration":427045,"Delta":231769610},{"NoteNumber":68,"Velocity":65,"Duration":427045,"SoundDuration":427045,"Delta":231769610},{"NoteNumber":83,"Velocity":69,"Duration":103806,"SoundDuration":103806,"Delta":232196656},{"NoteNumber":87,"Velocity":81,"Duration":103806,"SoundDuration":103806,"Delta":232196656},{"NoteNumber":42,"Velocity":68,"Duration":103806,"SoundDuration":103806,"Delta":232196656},{"NoteNumber":76,"Velocity":62,"Duration":95541,"SoundDuration":95541,"Delta":232508075},{"NoteNumber":80,"Velocity":73,"Duration":95541,"SoundDuration":95541,"Delta":232508075},{"NoteNumber":71,"Velocity":62,"Duration":95541,"SoundDuration":95541,"Delta":232508075},{"NoteNumber":75,"Velocity":66,"Duration":306122,"SoundDuration":306122,"Delta":232603616},{"NoteNumber":78,"Velocity":73,"Duration":306122,"SoundDuration":306122,"Delta":232603616},{"NoteNumber":63,"Velocity":56,"Duration":306122,"SoundDuration":306122,"Delta":232603616},{"NoteNumber":66,"Velocity":66,"Duration":306122,"SoundDuration":306122,"Delta":232603616},{"NoteNumber":76,"Velocity":62,"Duration":97719,"SoundDuration":97719,"Delta":232909739},{"NoteNumber":80,"Velocity":73,"Duration":97719,"SoundDuration":97719,"Delta":232909739},{"NoteNumber":71,"Velocity":62,"Duration":97719,"SoundDuration":97719,"Delta":232909739},{"NoteNumber":75,"Velocity":65,"Duration":424027,"SoundDuration":424027,"Delta":233007458},{"NoteNumber":78,"Velocity":77,"Duration":424027,"SoundDuration":424027,"Delta":233007458},{"NoteNumber":63,"Velocity":55,"Duration":424027,"SoundDuration":424027,"Delta":233007458},{"NoteNumber":66,"Velocity":65,"Duration":424027,"SoundDuration":424027,"Delta":233007458},{"NoteNumber":82,"Velocity":69,"Duration":103448,"SoundDuration":103448,"Delta":233431486},{"NoteNumber":85,"Velocity":81,"Duration":103448,"SoundDuration":103448,"Delta":233431486},{"NoteNumber":42,"Velocity":68,"Duration":103448,"SoundDuration":103448,"Delta":233431486},{"NoteNumber":75,"Velocity":62,"Duration":99337,"SoundDuration":99337,"Delta":233741831},{"NoteNumber":78,"Velocity":73,"Duration":99337,"SoundDuration":99337,"Delta":233741831},{"NoteNumber":70,"Velocity":62,"Duration":99337,"SoundDuration":99337,"Delta":233741831},{"NoteNumber":73,"Velocity":66,"Duration":315789,"SoundDuration":315789,"Delta":233841169},{"NoteNumber":76,"Velocity":73,"Duration":315789,"SoundDuration":315789,"Delta":233841169},{"NoteNumber":61,"Velocity":56,"Duration":315789,"SoundDuration":315789,"Delta":233841169},{"NoteNumber":64,"Velocity":66,"Duration":315789,"SoundDuration":315789,"Delta":233841169},{"NoteNumber":75,"Velocity":62,"Duration":99999,"SoundDuration":99999,"Delta":234156959},{"NoteNumber":78,"Velocity":73,"Duration":99999,"SoundDuration":99999,"Delta":234156959},{"NoteNumber":70,"Velocity":62,"Duration":99999,"SoundDuration":99999,"Delta":234156959},{"NoteNumber":73,"Velocity":65,"Duration":468750,"SoundDuration":468750,"Delta":234256959},{"NoteNumber":76,"Velocity":77,"Duration":468750,"SoundDuration":468750,"Delta":234256959},{"NoteNumber":61,"Velocity":55,"Duration":468750,"SoundDuration":468750,"Delta":234256959},{"NoteNumber":64,"Velocity":65,"Duration":468750,"SoundDuration":468750,"Delta":234256959},{"NoteNumber":71,"Velocity":58,"Duration":114068,"SoundDuration":114068,"Delta":234725709},{"NoteNumber":75,"Velocity":69,"Duration":114068,"SoundDuration":114068,"Delta":234725709},{"NoteNumber":47,"Velocity":61,"Duration":228137,"SoundDuration":228137,"Delta":234725709},{"NoteNumber":73,"Velocity":52,"Duration":131578,"SoundDuration":131578,"Delta":235067914},{"NoteNumber":76,"Velocity":62,"Duration":131578,"SoundDuration":131578,"Delta":235067914},{"NoteNumber":74,"Velocity":56,"Duration":487805,"SoundDuration":487805,"Delta":235199493},{"NoteNumber":80,"Velocity":67,"Duration":487805,"SoundDuration":487805,"Delta":235199493},{"NoteNumber":59,"Velocity":46,"Duration":975609,"SoundDuration":975609,"Delta":235199493},{"NoteNumber":65,"Velocity":55,"Duration":487805,"SoundDuration":487805,"Delta":235199493},{"NoteNumber":75,"Velocity":50,"Duration":487804,"SoundDuration":487804,"Delta":235687298},{"NoteNumber":78,"Velocity":59,"Duration":487804,"SoundDuration":487804,"Delta":235687298},{"NoteNumber":66,"Velocity":50,"Duration":487804,"SoundDuration":487804,"Delta":235687298},{"NoteNumber":92,"Velocity":82,"Duration":313589,"SoundDuration":313589,"Delta":236175103},{"NoteNumber":80,"Velocity":69,"Duration":313589,"SoundDuration":313589,"Delta":236175103},{"NoteNumber":70,"Velocity":54,"Duration":105255,"SoundDuration":105255,"Delta":236175103},{"NoteNumber":76,"Velocity":64,"Duration":105255,"SoundDuration":105255,"Delta":236175103},{"NoteNumber":90,"Velocity":77,"Duration":98684,"SoundDuration":98684,"Delta":236488692},{"NoteNumber":78,"Velocity":65,"Duration":98684,"SoundDuration":98684,"Delta":236488692},{"NoteNumber":66,"Velocity":60,"Duration":98684,"SoundDuration":98684,"Delta":236488692},{"NoteNumber":88,"Velocity":76,"Duration":321428,"SoundDuration":321428,"Delta":236587377},{"NoteNumber":76,"Velocity":64,"Duration":321428,"SoundDuration":321428,"Delta":236587377},{"NoteNumber":54,"Velocity":58,"Duration":428571,"SoundDuration":428571,"Delta":236587377},{"NoteNumber":64,"Velocity":63,"Duration":421053,"SoundDuration":421053,"Delta":237015948},{"NoteNumber":70,"Velocity":75,"Duration":421053,"SoundDuration":421053,"Delta":237015948},{"NoteNumber":42,"Velocity":60,"Duration":421053,"SoundDuration":421053,"Delta":237015948},{"NoteNumber":63,"Velocity":64,"Duration":206185,"SoundDuration":206185,"Delta":237437001},{"NoteNumber":71,"Velocity":76,"Duration":206185,"SoundDuration":206185,"Delta":237437001},{"NoteNumber":47,"Velocity":68,"Duration":206185,"SoundDuration":206185,"Delta":237437001},{"NoteNumber":66,"Velocity":62,"Duration":99337,"SoundDuration":99337,"Delta":237746279},{"NoteNumber":73,"Velocity":73,"Duration":99337,"SoundDuration":99337,"Delta":237746279},{"NoteNumber":54,"Velocity":59,"Duration":99337,"SoundDuration":99337,"Delta":237746279},{"NoteNumber":71,"Velocity":68,"Duration":431655,"SoundDuration":431655,"Delta":237845617},{"NoteNumber":75,"Velocity":81,"Duration":431655,"SoundDuration":431655,"Delta":237845617},{"NoteNumber":63,"Velocity":66,"Duration":431655,"SoundDuration":431655,"Delta":237845617},{"NoteNumber":59,"Velocity":56,"Duration":431655,"SoundDuration":431655,"Delta":237845617},{"NoteNumber":78,"Velocity":65,"Duration":421053,"SoundDuration":421053,"Delta":238277272},{"NoteNumber":90,"Velocity":77,"Duration":421053,"SoundDuration":421053,"Delta":238277272},{"NoteNumber":71,"Velocity":51,"Duration":421053,"SoundDuration":421053,"Delta":238277272},{"NoteNumber":75,"Velocity":60,"Duration":421053,"SoundDuration":421053,"Delta":238277272},{"NoteNumber":92,"Velocity":82,"Duration":309278,"SoundDuration":309278,"Delta":238698325},{"NoteNumber":80,"Velocity":69,"Duration":309278,"SoundDuration":309278,"Delta":238698325},{"NoteNumber":70,"Velocity":54,"Duration":103092,"SoundDuration":103092,"Delta":238698325},{"NoteNumber":76,"Velocity":64,"Duration":103092,"SoundDuration":103092,"Delta":238698325},{"NoteNumber":90,"Velocity":77,"Duration":98684,"SoundDuration":98684,"Delta":239007603},{"NoteNumber":78,"Velocity":65,"Duration":98684,"SoundDuration":98684,"Delta":239007603},{"NoteNumber":66,"Velocity":60,"Duration":98684,"SoundDuration":98684,"Delta":239007603},{"NoteNumber":88,"Velocity":76,"Duration":310344,"SoundDuration":310344,"Delta":239106287},{"NoteNumber":76,"Velocity":64,"Duration":310344,"SoundDuration":310344,"Delta":239106287},{"NoteNumber":54,"Velocity":58,"Duration":413792,"SoundDuration":413792,"Delta":239106287},{"NoteNumber":64,"Velocity":63,"Duration":422535,"SoundDuration":422535,"Delta":239520080},{"NoteNumber":70,"Velocity":75,"Duration":422535,"SoundDuration":422535,"Delta":239520080},{"NoteNumber":42,"Velocity":60,"Duration":422535,"SoundDuration":422535,"Delta":239520080},{"NoteNumber":63,"Velocity":64,"Duration":206185,"SoundDuration":206185,"Delta":239942615},{"NoteNumber":71,"Velocity":76,"Duration":206185,"SoundDuration":206185,"Delta":239942615},{"NoteNumber":47,"Velocity":68,"Duration":206185,"SoundDuration":206185,"Delta":239942615},{"NoteNumber":66,"Velocity":62,"Duration":99337,"SoundDuration":99337,"Delta":240251893},{"NoteNumber":73,"Velocity":73,"Duration":99337,"SoundDuration":99337,"Delta":240251893},{"NoteNumber":54,"Velocity":59,"Duration":99337,"SoundDuration":99337,"Delta":240251893},{"NoteNumber":71,"Velocity":68,"Duration":433212,"SoundDuration":433212,"Delta":240351231},{"NoteNumber":75,"Velocity":81,"Duration":433212,"SoundDuration":433212,"Delta":240351231},{"NoteNumber":63,"Velocity":66,"Duration":433212,"SoundDuration":433212,"Delta":240351231},{"NoteNumber":59,"Velocity":56,"Duration":433212,"SoundDuration":433212,"Delta":240351231},{"NoteNumber":75,"Velocity":65,"Duration":422535,"SoundDuration":422535,"Delta":240784444},{"NoteNumber":78,"Velocity":77,"Duration":422535,"SoundDuration":422535,"Delta":240784444},{"NoteNumber":85,"Velocity":69,"Duration":103448,"SoundDuration":103448,"Delta":241206979},{"NoteNumber":88,"Velocity":81,"Duration":103448,"SoundDuration":103448,"Delta":241206979},{"NoteNumber":52,"Velocity":68,"Duration":103448,"SoundDuration":103448,"Delta":241206979},{"NoteNumber":78,"Velocity":62,"Duration":95237,"SoundDuration":95237,"Delta":241517324},{"NoteNumber":82,"Velocity":73,"Duration":95237,"SoundDuration":95237,"Delta":241517324},{"NoteNumber":73,"Velocity":62,"Duration":95237,"SoundDuration":95237,"Delta":241517324},{"NoteNumber":76,"Velocity":66,"Duration":304053,"SoundDuration":304053,"Delta":241612562},{"NoteNumber":80,"Velocity":73,"Duration":304053,"SoundDuration":304053,"Delta":241612562},{"NoteNumber":64,"Velocity":56,"Duration":304053,"SoundDuration":304053,"Delta":241612562},{"NoteNumber":68,"Velocity":66,"Duration":304053,"SoundDuration":304053,"Delta":241612562},{"NoteNumber":78,"Velocity":62,"Duration":97402,"SoundDuration":97402,"Delta":241916616},{"NoteNumber":82,"Velocity":73,"Duration":97402,"SoundDuration":97402,"Delta":241916616},{"NoteNumber":73,"Velocity":62,"Duration":97402,"SoundDuration":97402,"Delta":241916616},{"NoteNumber":76,"Velocity":65,"Duration":427045,"SoundDuration":427045,"Delta":242014018},{"NoteNumber":80,"Velocity":77,"Duration":427045,"SoundDuration":427045,"Delta":242014018},{"NoteNumber":64,"Velocity":55,"Duration":427045,"SoundDuration":427045,"Delta":242014018},{"NoteNumber":68,"Velocity":65,"Duration":427045,"SoundDuration":427045,"Delta":242014018},{"NoteNumber":83,"Velocity":69,"Duration":103806,"SoundDuration":103806,"Delta":242441064},{"NoteNumber":87,"Velocity":81,"Duration":103806,"SoundDuration":103806,"Delta":242441064},{"NoteNumber":42,"Velocity":68,"Duration":103806,"SoundDuration":103806,"Delta":242441064},{"NoteNumber":76,"Velocity":62,"Duration":95541,"SoundDuration":95541,"Delta":242752483},{"NoteNumber":80,"Velocity":73,"Duration":95541,"SoundDuration":95541,"Delta":242752483},{"NoteNumber":71,"Velocity":62,"Duration":95541,"SoundDuration":95541,"Delta":242752483},{"NoteNumber":75,"Velocity":66,"Duration":306122,"SoundDuration":306122,"Delta":242848024},{"NoteNumber":78,"Velocity":73,"Duration":306122,"SoundDuration":306122,"Delta":242848024},{"NoteNumber":63,"Velocity":56,"Duration":306122,"SoundDuration":306122,"Delta":242848024},{"NoteNumber":66,"Velocity":66,"Duration":306122,"SoundDuration":306122,"Delta":242848024},{"NoteNumber":76,"Velocity":62,"Duration":97719,"SoundDuration":97719,"Delta":243154147},{"NoteNumber":80,"Velocity":73,"Duration":97719,"SoundDuration":97719,"Delta":243154147},{"NoteNumber":71,"Velocity":62,"Duration":97719,"SoundDuration":97719,"Delta":243154147},{"NoteNumber":75,"Velocity":65,"Duration":424027,"SoundDuration":424027,"Delta":243251866},{"NoteNumber":78,"Velocity":77,"Duration":424027,"SoundDuration":424027,"Delta":243251866},{"NoteNumber":63,"Velocity":55,"Duration":424027,"SoundDuration":424027,"Delta":243251866},{"NoteNumber":66,"Velocity":65,"Duration":424027,"SoundDuration":424027,"Delta":243251866},{"NoteNumber":82,"Velocity":69,"Duration":103448,"SoundDuration":103448,"Delta":243675894},{"NoteNumber":85,"Velocity":81,"Duration":103448,"SoundDuration":103448,"Delta":243675894},{"NoteNumber":42,"Velocity":68,"Duration":103448,"SoundDuration":103448,"Delta":243675894},{"NoteNumber":75,"Velocity":62,"Duration":99337,"SoundDuration":99337,"Delta":243986239},{"NoteNumber":78,"Velocity":73,"Duration":99337,"SoundDuration":99337,"Delta":243986239},{"NoteNumber":70,"Velocity":62,"Duration":99337,"SoundDuration":99337,"Delta":243986239},{"NoteNumber":73,"Velocity":66,"Duration":315789,"SoundDuration":315789,"Delta":244085577},{"NoteNumber":76,"Velocity":73,"Duration":315789,"SoundDuration":315789,"Delta":244085577},{"NoteNumber":61,"Velocity":56,"Duration":315789,"SoundDuration":315789,"Delta":244085577},{"NoteNumber":64,"Velocity":66,"Duration":315789,"SoundDuration":315789,"Delta":244085577},{"NoteNumber":75,"Velocity":62,"Duration":99999,"SoundDuration":99999,"Delta":244401367},{"NoteNumber":78,"Velocity":73,"Duration":99999,"SoundDuration":99999,"Delta":244401367},{"NoteNumber":70,"Velocity":62,"Duration":99999,"SoundDuration":99999,"Delta":244401367},{"NoteNumber":73,"Velocity":65,"Duration":437956,"SoundDuration":437956,"Delta":244501367},{"NoteNumber":76,"Velocity":77,"Duration":437956,"SoundDuration":437956,"Delta":244501367},{"NoteNumber":61,"Velocity":55,"Duration":437956,"SoundDuration":437956,"Delta":244501367},{"NoteNumber":64,"Velocity":65,"Duration":437956,"SoundDuration":437956,"Delta":244501367},{"NoteNumber":56,"Velocity":41,"Duration":99009,"SoundDuration":99009,"Delta":245277669},{"NoteNumber":54,"Velocity":47,"Duration":332102,"SoundDuration":332102,"Delta":245376679},{"NoteNumber":56,"Velocity":41,"Duration":99667,"SoundDuration":99667,"Delta":245708782},{"NoteNumber":54,"Velocity":46,"Duration":456274,"SoundDuration":456274,"Delta":245808449},{"NoteNumber":56,"Velocity":44,"Duration":309278,"SoundDuration":309278,"Delta":246264723},{"NoteNumber":54,"Velocity":37,"Duration":98684,"SoundDuration":98684,"Delta":246574002},{"NoteNumber":52,"Velocity":44,"Duration":431655,"SoundDuration":431655,"Delta":246672686},{"NoteNumber":42,"Velocity":38,"Duration":422535,"SoundDuration":422535,"Delta":247104341},{"NoteNumber":47,"Velocity":44,"Duration":310344,"SoundDuration":310344,"Delta":247526876},{"NoteNumber":49,"Velocity":41,"Duration":98360,"SoundDuration":98360,"Delta":247837221},{"NoteNumber":51,"Velocity":45,"Duration":408761,"SoundDuration":408761,"Delta":247935581},{"NoteNumber":54,"Velocity":44,"Duration":412371,"SoundDuration":412371,"Delta":248344343},{"NoteNumber":56,"Velocity":46,"Duration":314684,"SoundDuration":314684,"Delta":248756714},{"NoteNumber":54,"Velocity":42,"Duration":98684,"SoundDuration":98684,"Delta":249071399},{"NoteNumber":52,"Velocity":45,"Duration":424027,"SoundDuration":424027,"Delta":249170084},{"NoteNumber":42,"Velocity":39,"Duration":415224,"SoundDuration":415224,"Delta":249594112},{"NoteNumber":47,"Velocity":44,"Duration":310344,"SoundDuration":310344,"Delta":250009337},{"NoteNumber":49,"Velocity":41,"Duration":98360,"SoundDuration":98360,"Delta":250319681},{"NoteNumber":51,"Velocity":45,"Duration":408761,"SoundDuration":408761,"Delta":250418042},{"NoteNumber":54,"Velocity":44,"Duration":412371,"SoundDuration":412371,"Delta":250826804},{"NoteNumber":64,"Velocity":49,"Duration":1234084,"SoundDuration":1234084,"Delta":251239175},{"NoteNumber":58,"Velocity":41,"Duration":95237,"SoundDuration":95237,"Delta":251549520},{"NoteNumber":56,"Velocity":44,"Duration":304053,"SoundDuration":304053,"Delta":251644758},{"NoteNumber":58,"Velocity":41,"Duration":97402,"SoundDuration":97402,"Delta":251948811},{"NoteNumber":56,"Velocity":45,"Duration":427045,"SoundDuration":427045,"Delta":252046214},{"NoteNumber":63,"Velocity":49,"Duration":1234084,"SoundDuration":1234084,"Delta":252473260},{"NoteNumber":56,"Velocity":41,"Duration":95237,"SoundDuration":95237,"Delta":252783605},{"NoteNumber":54,"Velocity":44,"Duration":304053,"SoundDuration":304053,"Delta":252878843},{"NoteNumber":56,"Velocity":41,"Duration":97402,"SoundDuration":97402,"Delta":253182896},{"NoteNumber":54,"Velocity":45,"Duration":427045,"SoundDuration":427045,"Delta":253280299},{"NoteNumber":61,"Velocity":49,"Duration":1234084,"SoundDuration":1234084,"Delta":253707345},{"NoteNumber":54,"Velocity":41,"Duration":95237,"SoundDuration":95237,"Delta":254017690},{"NoteNumber":52,"Velocity":44,"Duration":304053,"SoundDuration":304053,"Delta":254112928},{"NoteNumber":54,"Velocity":41,"Duration":97402,"SoundDuration":97402,"Delta":254416981},{"NoteNumber":52,"Velocity":45,"Duration":427045,"SoundDuration":427045,"Delta":254514384},{"NoteNumber":51,"Velocity":44,"Duration":342205,"SoundDuration":342205,"Delta":254941430},{"NoteNumber":52,"Velocity":41,"Duration":131578,"SoundDuration":131578,"Delta":255283635},{"NoteNumber":56,"Velocity":45,"Duration":487804,"SoundDuration":487804,"Delta":255415214},{"NoteNumber":54,"Velocity":44,"Duration":487805,"SoundDuration":487805,"Delta":255903019},{"NoteNumber":56,"Velocity":46,"Duration":365853,"SoundDuration":365853,"Delta":256390824},{"NoteNumber":54,"Velocity":42,"Duration":98684,"SoundDuration":98684,"Delta":256756678},{"NoteNumber":52,"Velocity":45,"Duration":424028,"SoundDuration":424028,"Delta":256855362},{"NoteNumber":42,"Velocity":39,"Duration":415225,"SoundDuration":415225,"Delta":257279390},{"NoteNumber":47,"Velocity":44,"Duration":310344,"SoundDuration":310344,"Delta":257694615},{"NoteNumber":49,"Velocity":41,"Duration":98360,"SoundDuration":98360,"Delta":258004960},{"NoteNumber":51,"Velocity":45,"Duration":408761,"SoundDuration":408761,"Delta":258103321},{"NoteNumber":54,"Velocity":44,"Duration":444443,"SoundDuration":444443,"Delta":258512083},{"NoteNumber":55,"Velocity":43,"Duration":367346,"SoundDuration":367346,"Delta":258956527},{"NoteNumber":54,"Velocity":39,"Duration":104894,"SoundDuration":104894,"Delta":259323874},{"NoteNumber":52,"Velocity":42,"Duration":437955,"SoundDuration":437955,"Delta":259428769},{"NoteNumber":42,"Velocity":36,"Duration":422534,"SoundDuration":422534,"Delta":259866725},{"NoteNumber":47,"Velocity":41,"Duration":340908,"SoundDuration":340908,"Delta":260289260},{"NoteNumber":49,"Velocity":38,"Duration":105633,"SoundDuration":105633,"Delta":260630168},{"NoteNumber":50,"Velocity":41,"Duration":444443,"SoundDuration":444443,"Delta":260735802},{"NoteNumber":54,"Velocity":40,"Duration":444443,"SoundDuration":444443,"Delta":261180246},{"NoteNumber":55,"Velocity":42,"Duration":228137,"SoundDuration":228137,"Delta":261624690},{"NoteNumber":54,"Velocity":38,"Duration":228137,"SoundDuration":228137,"Delta":261852827},{"NoteNumber":52,"Velocity":41,"Duration":437955,"SoundDuration":437955,"Delta":262080964},{"NoteNumber":43,"Velocity":35,"Duration":466926,"SoundDuration":466926,"Delta":262518920},{"NoteNumber":55,"Velocity":41,"Duration":228137,"SoundDuration":228137,"Delta":262985846},{"NoteNumber":54,"Velocity":37,"Duration":228137,"SoundDuration":228137,"Delta":263213983},{"NoteNumber":52,"Velocity":40,"Duration":437955,"SoundDuration":437955,"Delta":263442120},{"NoteNumber":44,"Velocity":34,"Duration":476189,"SoundDuration":476189,"Delta":263880076},{"NoteNumber":55,"Velocity":40,"Duration":350194,"SoundDuration":350194,"Delta":264356266},{"NoteNumber":54,"Velocity":36,"Duration":116731,"SoundDuration":116731,"Delta":264706461},{"NoteNumber":52,"Velocity":39,"Duration":454544,"SoundDuration":454544,"Delta":264823192},{"NoteNumber":45,"Velocity":34,"Duration":483871,"SoundDuration":483871,"Delta":265277737},{"NoteNumber":55,"Velocity":40,"Duration":368852,"SoundDuration":368852,"Delta":265761608},{"NoteNumber":54,"Velocity":36,"Duration":122950,"SoundDuration":122950,"Delta":266130460},{"NoteNumber":52,"Velocity":39,"Duration":474308,"SoundDuration":474308,"Delta":266253411},{"NoteNumber":46,"Velocity":33,"Duration":521739,"SoundDuration":521739,"Delta":266727719},{"NoteNumber":78,"Velocity":46,"Duration":252100,"SoundDuration":252100,"Delta":267249458},{"NoteNumber":47,"Velocity":42,"Duration":504202,"SoundDuration":504202,"Delta":267249458},{"NoteNumber":83,"Velocity":42,"Duration":252101,"SoundDuration":252101,"Delta":267501559},{"NoteNumber":79,"Velocity":42,"Duration":69124,"SoundDuration":69124,"Delta":267753660},{"NoteNumber":64,"Velocity":34,"Duration":507100,"SoundDuration":507100,"Delta":267753660},{"NoteNumber":59,"Velocity":28,"Duration":507100,"SoundDuration":507100,"Delta":267753660},{"NoteNumber":55,"Velocity":28,"Duration":507100,"SoundDuration":507100,"Delta":267753660},{"NoteNumber":81,"Velocity":42,"Duration":69124,"SoundDuration":69124,"Delta":267822785},{"NoteNumber":79,"Velocity":48,"Duration":368852,"SoundDuration":368852,"Delta":267891909},{"NoteNumber":78,"Velocity":45,"Duration":239043,"SoundDuration":239043,"Delta":268260761},{"NoteNumber":64,"Velocity":33,"Duration":489043,"SoundDuration":489043,"Delta":268260761},{"NoteNumber":59,"Velocity":28,"Duration":489043,"SoundDuration":489043,"Delta":268260761},{"NoteNumber":55,"Velocity":28,"Duration":489043,"SoundDuration":489043,"Delta":268260761},{"NoteNumber":76,"Velocity":42,"Duration":250000,"SoundDuration":250000,"Delta":268499805},{"NoteNumber":78,"Velocity":46,"Duration":252272,"SoundDuration":252272,"Delta":268749805},{"NoteNumber":47,"Velocity":42,"Duration":502272,"SoundDuration":502272,"Delta":268749805},{"NoteNumber":71,"Velocity":42,"Duration":1250000,"SoundDuration":1250000,"Delta":269002078},{"NoteNumber":62,"Velocity":26,"Duration":500000,"SoundDuration":500000,"Delta":269252078},{"NoteNumber":59,"Velocity":22,"Duration":500000,"SoundDuration":500000,"Delta":269252078},{"NoteNumber":54,"Velocity":22,"Duration":500000,"SoundDuration":500000,"Delta":269252078},{"NoteNumber":62,"Velocity":26,"Duration":500000,"SoundDuration":500000,"Delta":269752078},{"NoteNumber":59,"Velocity":22,"Duration":500000,"SoundDuration":500000,"Delta":269752078},{"NoteNumber":54,"Velocity":22,"Duration":500000,"SoundDuration":500000,"Delta":269752078},{"NoteNumber":73,"Velocity":49,"Duration":250000,"SoundDuration":250000,"Delta":270252078},{"NoteNumber":47,"Velocity":42,"Duration":500000,"SoundDuration":500000,"Delta":270252078},{"NoteNumber":76,"Velocity":42,"Duration":250000,"SoundDuration":250000,"Delta":270502078},{"NoteNumber":74,"Velocity":42,"Duration":70093,"SoundDuration":70093,"Delta":270752078},{"NoteNumber":64,"Velocity":34,"Duration":506040,"SoundDuration":506040,"Delta":270752078},{"NoteNumber":58,"Velocity":28,"Duration":506040,"SoundDuration":506040,"Delta":270752078},{"NoteNumber":54,"Velocity":28,"Duration":506040,"SoundDuration":506040,"Delta":270752078},{"NoteNumber":76,"Velocity":42,"Duration":70093,"SoundDuration":70093,"Delta":270822171},{"NoteNumber":74,"Velocity":48,"Duration":365853,"SoundDuration":365853,"Delta":270892265},{"NoteNumber":73,"Velocity":45,"Duration":489043,"SoundDuration":489043,"Delta":271258119},{"NoteNumber":64,"Velocity":33,"Duration":489043,"SoundDuration":489043,"Delta":271258119},{"NoteNumber":58,"Velocity":28,"Duration":489043,"SoundDuration":489043,"Delta":271258119},{"NoteNumber":54,"Velocity":28,"Duration":489043,"SoundDuration":489043,"Delta":271258119},{"NoteNumber":74,"Velocity":46,"Duration":252272,"SoundDuration":252272,"Delta":271747163},{"NoteNumber":47,"Velocity":42,"Duration":502272,"SoundDuration":502272,"Delta":271747163},{"NoteNumber":71,"Velocity":42,"Duration":1250000,"SoundDuration":1250000,"Delta":271999436},{"NoteNumber":62,"Velocity":26,"Duration":500000,"SoundDuration":500000,"Delta":272249436},{"NoteNumber":59,"Velocity":22,"Duration":500000,"SoundDuration":500000,"Delta":272249436},{"NoteNumber":54,"Velocity":22,"Duration":500000,"SoundDuration":500000,"Delta":272249436},{"NoteNumber":62,"Velocity":26,"Duration":500000,"SoundDuration":500000,"Delta":272749436},{"NoteNumber":59,"Velocity":22,"Duration":500000,"SoundDuration":500000,"Delta":272749436},{"NoteNumber":54,"Velocity":22,"Duration":500000,"SoundDuration":500000,"Delta":272749436},{"NoteNumber":73,"Velocity":55,"Duration":250000,"SoundDuration":250000,"Delta":273249436},{"NoteNumber":37,"Velocity":47,"Duration":500000,"SoundDuration":500000,"Delta":273249436},{"NoteNumber":71,"Velocity":47,"Duration":250000,"SoundDuration":250000,"Delta":273499436},{"NoteNumber":69,"Velocity":43,"Duration":73170,"SoundDuration":73170,"Delta":273749436},{"NoteNumber":59,"Velocity":38,"Duration":513688,"SoundDuration":513688,"Delta":273749436},{"NoteNumber":53,"Velocity":32,"Duration":513688,"SoundDuration":513688,"Delta":273749436},{"NoteNumber":49,"Velocity":32,"Duration":513688,"SoundDuration":513688,"Delta":273749436},{"NoteNumber":71,"Velocity":44,"Duration":73170,"SoundDuration":73170,"Delta":273822606},{"NoteNumber":69,"Velocity":52,"Duration":367346,"SoundDuration":367346,"Delta":273895777},{"NoteNumber":68,"Velocity":50,"Duration":489043,"SoundDuration":489043,"Delta":274263124},{"NoteNumber":59,"Velocity":37,"Duration":489043,"SoundDuration":489043,"Delta":274263124},{"NoteNumber":53,"Velocity":31,"Duration":489043,"SoundDuration":489043,"Delta":274263124},{"NoteNumber":49,"Velocity":31,"Duration":489043,"SoundDuration":489043,"Delta":274263124},{"NoteNumber":69,"Velocity":52,"Duration":252272,"SoundDuration":252272,"Delta":274752168},{"NoteNumber":42,"Velocity":47,"Duration":502272,"SoundDuration":502272,"Delta":274752168},{"NoteNumber":73,"Velocity":47,"Duration":500000,"SoundDuration":500000,"Delta":275004441},{"NoteNumber":57,"Velocity":35,"Duration":500000,"SoundDuration":500000,"Delta":275254441},{"NoteNumber":49,"Velocity":29,"Duration":500000,"SoundDuration":500000,"Delta":275254441},{"NoteNumber":61,"Velocity":68,"Duration":722892,"SoundDuration":722892,"Delta":275754441},{"NoteNumber":59,"Velocity":60,"Duration":247600,"SoundDuration":247600,"Delta":276477333},{"NoteNumber":57,"Velocity":57,"Duration":58593,"SoundDuration":58593,"Delta":276724934},{"NoteNumber":59,"Velocity":57,"Duration":58593,"SoundDuration":58593,"Delta":276783527},{"NoteNumber":57,"Velocity":68,"Duration":351562,"SoundDuration":351562,"Delta":276842121},{"NoteNumber":56,"Velocity":67,"Duration":491803,"SoundDuration":491803,"Delta":277193684},{"NoteNumber":57,"Velocity":71,"Duration":461538,"SoundDuration":461538,"Delta":277685487},{"NoteNumber":61,"Velocity":67,"Duration":946221,"SoundDuration":946221,"Delta":278147025},{"NoteNumber":59,"Velocity":71,"Duration":462502,"SoundDuration":462502,"Delta":279093247},{"NoteNumber":49,"Velocity":47,"Duration":1378866,"SoundDuration":1378866,"Delta":279093247},{"NoteNumber":56,"Velocity":58,"Duration":462502,"SoundDuration":462502,"Delta":279093247},{"NoteNumber":57,"Velocity":68,"Duration":445692,"SoundDuration":445692,"Delta":279555749},{"NoteNumber":54,"Velocity":55,"Duration":449437,"SoundDuration":449437,"Delta":279555749},{"NoteNumber":61,"Velocity":68,"Duration":466926,"SoundDuration":466926,"Delta":280005187},{"NoteNumber":57,"Velocity":55,"Duration":466926,"SoundDuration":466926,"Delta":280005187},{"NoteNumber":59,"Velocity":63,"Duration":66637,"SoundDuration":66637,"Delta":280472113},{"NoteNumber":49,"Velocity":47,"Duration":1408713,"SoundDuration":1408713,"Delta":280472113},{"NoteNumber":56,"Velocity":57,"Duration":244309,"SoundDuration":244309,"Delta":280472113},{"NoteNumber":61,"Velocity":63,"Duration":66636,"SoundDuration":66636,"Delta":280538750},{"NoteNumber":59,"Velocity":73,"Duration":111035,"SoundDuration":111035,"Delta":280605387},{"NoteNumber":57,"Velocity":66,"Duration":218182,"SoundDuration":218182,"Delta":280716423},{"NoteNumber":54,"Velocity":51,"Duration":218182,"SoundDuration":218182,"Delta":280716423},{"NoteNumber":61,"Velocity":72,"Duration":473111,"SoundDuration":473111,"Delta":280934605},{"NoteNumber":57,"Velocity":56,"Duration":473111,"SoundDuration":473111,"Delta":280934605},{"NoteNumber":61,"Velocity":68,"Duration":473110,"SoundDuration":473110,"Delta":281407716},{"NoteNumber":57,"Velocity":54,"Duration":473110,"SoundDuration":473110,"Delta":281407716},{"NoteNumber":59,"Velocity":61,"Duration":66324,"SoundDuration":66324,"Delta":281880827},{"NoteNumber":49,"Velocity":47,"Duration":1397233,"SoundDuration":1397233,"Delta":281880827},{"NoteNumber":56,"Velocity":57,"Duration":460658,"SoundDuration":460658,"Delta":281880827},{"NoteNumber":61,"Velocity":61,"Duration":66324,"SoundDuration":66324,"Delta":281947151},{"NoteNumber":59,"Velocity":72,"Duration":328008,"SoundDuration":328008,"Delta":282013476},{"NoteNumber":58,"Velocity":72,"Duration":458636,"SoundDuration":458636,"Delta":282341485},{"NoteNumber":54,"Velocity":56,"Duration":463463,"SoundDuration":463463,"Delta":282341485},{"NoteNumber":61,"Velocity":68,"Duration":473111,"SoundDuration":473111,"Delta":282804949},{"NoteNumber":58,"Velocity":54,"Duration":473111,"SoundDuration":473111,"Delta":282804949},{"NoteNumber":59,"Velocity":62,"Duration":66324,"SoundDuration":66324,"Delta":283278060},{"NoteNumber":49,"Velocity":47,"Duration":477424,"SoundDuration":477424,"Delta":283278060},{"NoteNumber":56,"Velocity":57,"Duration":247574,"SoundDuration":247574,"Delta":283278060},{"NoteNumber":61,"Velocity":63,"Duration":66324,"SoundDuration":66324,"Delta":283344385},{"NoteNumber":59,"Velocity":73,"Duration":114925,"SoundDuration":114925,"Delta":283410709},{"NoteNumber":58,"Velocity":66,"Duration":229849,"SoundDuration":229849,"Delta":283525634},{"NoteNumber":54,"Velocity":51,"Duration":702961,"SoundDuration":702961,"Delta":283525634},{"NoteNumber":66,"Velocity":72,"Duration":473111,"SoundDuration":473111,"Delta":283755484},{"NoteNumber":42,"Velocity":47,"Duration":973111,"SoundDuration":973111,"Delta":283755484},{"NoteNumber":78,"Velocity":58,"Duration":750000,"SoundDuration":750000,"Delta":284228595},{"NoteNumber":47,"Velocity":50,"Duration":500000,"SoundDuration":500000,"Delta":284728595},{"NoteNumber":83,"Velocity":50,"Duration":250000,"SoundDuration":250000,"Delta":284978595},{"NoteNumber":79,"Velocity":50,"Duration":69124,"SoundDuration":69124,"Delta":285228595},{"NoteNumber":64,"Velocity":40,"Duration":507100,"SoundDuration":507100,"Delta":285228595},{"NoteNumber":59,"Velocity":34,"Duration":507100,"SoundDuration":507100,"Delta":285228595},{"NoteNumber":55,"Velocity":34,"Duration":507100,"SoundDuration":507100,"Delta":285228595},{"NoteNumber":81,"Velocity":50,"Duration":69124,"SoundDuration":69124,"Delta":285297720},{"NoteNumber":79,"Velocity":57,"Duration":368852,"SoundDuration":368852,"Delta":285366844},{"NoteNumber":78,"Velocity":53,"Duration":239043,"SoundDuration":239043,"Delta":285735696},{"NoteNumber":64,"Velocity":39,"Duration":489043,"SoundDuration":489043,"Delta":285735696},{"NoteNumber":59,"Velocity":33,"Duration":489043,"SoundDuration":489043,"Delta":285735696},{"NoteNumber":55,"Velocity":33,"Duration":489043,"SoundDuration":489043,"Delta":285735696},{"NoteNumber":76,"Velocity":50,"Duration":250000,"SoundDuration":250000,"Delta":285974740},{"NoteNumber":78,"Velocity":55,"Duration":252272,"SoundDuration":252272,"Delta":286224740},{"NoteNumber":47,"Velocity":50,"Duration":502272,"SoundDuration":502272,"Delta":286224740},{"NoteNumber":71,"Velocity":50,"Duration":1228088,"SoundDuration":1228088,"Delta":286477013},{"NoteNumber":62,"Velocity":31,"Duration":478088,"SoundDuration":478088,"Delta":286727013},{"NoteNumber":59,"Velocity":26,"Duration":478088,"SoundDuration":478088,"Delta":286727013},{"NoteNumber":54,"Velocity":26,"Duration":478088,"SoundDuration":478088,"Delta":286727013},{"NoteNumber":62,"Velocity":31,"Duration":500000,"SoundDuration":500000,"Delta":287205101},{"NoteNumber":59,"Velocity":26,"Duration":500000,"SoundDuration":500000,"Delta":287205101},{"NoteNumber":54,"Velocity":26,"Duration":500000,"SoundDuration":500000,"Delta":287205101},{"NoteNumber":73,"Velocity":58,"Duration":250000,"SoundDuration":250000,"Delta":287705101},{"NoteNumber":47,"Velocity":50,"Duration":500000,"SoundDuration":500000,"Delta":287705101},{"NoteNumber":76,"Velocity":50,"Duration":250000,"SoundDuration":250000,"Delta":287955101},{"NoteNumber":74,"Velocity":50,"Duration":70093,"SoundDuration":70093,"Delta":288205101},{"NoteNumber":64,"Velocity":40,"Duration":506040,"SoundDuration":506040,"Delta":288205101},{"NoteNumber":58,"Velocity":34,"Duration":506040,"SoundDuration":506040,"Delta":288205101},{"NoteNumber":54,"Velocity":34,"Duration":506040,"SoundDuration":506040,"Delta":288205101},{"NoteNumber":76,"Velocity":50,"Duration":70093,"SoundDuration":70093,"Delta":288275195},{"NoteNumber":74,"Velocity":57,"Duration":365853,"SoundDuration":365853,"Delta":288345288},{"NoteNumber":73,"Velocity":53,"Duration":489043,"SoundDuration":489043,"Delta":288711142},{"NoteNumber":64,"Velocity":39,"Duration":489043,"SoundDuration":489043,"Delta":288711142},{"NoteNumber":58,"Velocity":33,"Duration":489043,"SoundDuration":489043,"Delta":288711142},{"NoteNumber":54,"Velocity":33,"Duration":489043,"SoundDuration":489043,"Delta":288711142},{"NoteNumber":74,"Velocity":55,"Duration":252272,"SoundDuration":252272,"Delta":289200186},{"NoteNumber":47,"Velocity":50,"Duration":502272,"SoundDuration":502272,"Delta":289200186},{"NoteNumber":71,"Velocity":50,"Duration":733871,"SoundDuration":733871,"Delta":289452459},{"NoteNumber":62,"Velocity":31,"Duration":483871,"SoundDuration":483871,"Delta":289702459},{"NoteNumber":59,"Velocity":26,"Duration":483871,"SoundDuration":483871,"Delta":289702459},{"NoteNumber":54,"Velocity":26,"Duration":483871,"SoundDuration":483871,"Delta":289702459},{"NoteNumber":50,"Velocity":66,"Duration":708661,"SoundDuration":708661,"Delta":290186330},{"NoteNumber":59,"Velocity":38,"Duration":472441,"SoundDuration":472441,"Delta":290658771},{"NoteNumber":65,"Velocity":43,"Duration":472441,"SoundDuration":472441,"Delta":290658771},{"NoteNumber":55,"Velocity":58,"Duration":236220,"SoundDuration":236220,"Delta":290894991},{"NoteNumber":52,"Velocity":65,"Duration":144404,"SoundDuration":144404,"Delta":291131212},{"NoteNumber":60,"Velocity":34,"Duration":433213,"SoundDuration":433213,"Delta":291131212},{"NoteNumber":64,"Velocity":38,"Duration":433213,"SoundDuration":433213,"Delta":291131212},{"NoteNumber":53,"Velocity":57,"Duration":144404,"SoundDuration":144404,"Delta":291275616},{"NoteNumber":52,"Velocity":55,"Duration":144404,"SoundDuration":144404,"Delta":291420021},{"NoteNumber":50,"Velocity":63,"Duration":236220,"SoundDuration":236220,"Delta":291564425},{"NoteNumber":60,"Velocity":34,"Duration":472441,"SoundDuration":472441,"Delta":291564425},{"NoteNumber":64,"Velocity":38,"Duration":472441,"SoundDuration":472441,"Delta":291564425},{"NoteNumber":48,"Velocity":57,"Duration":236220,"SoundDuration":236220,"Delta":291800645},{"NoteNumber":50,"Velocity":64,"Duration":357142,"SoundDuration":357142,"Delta":292036866},{"NoteNumber":55,"Velocity":41,"Duration":476189,"SoundDuration":476189,"Delta":292036866},{"NoteNumber":59,"Velocity":41,"Duration":476189,"SoundDuration":476189,"Delta":292036866},{"NoteNumber":65,"Velocity":46,"Duration":476189,"SoundDuration":476189,"Delta":292036866},{"NoteNumber":43,"Velocity":55,"Duration":119047,"SoundDuration":119047,"Delta":292394008},{"NoteNumber":50,"Velocity":64,"Duration":476190,"SoundDuration":476190,"Delta":292513056},{"NoteNumber":55,"Velocity":34,"Duration":476190,"SoundDuration":476190,"Delta":292513056},{"NoteNumber":59,"Velocity":34,"Duration":476190,"SoundDuration":476190,"Delta":292513056},{"NoteNumber":65,"Velocity":38,"Duration":476190,"SoundDuration":476190,"Delta":292513056},{"NoteNumber":48,"Velocity":59,"Duration":463320,"SoundDuration":463320,"Delta":292989246},{"NoteNumber":60,"Velocity":34,"Duration":463320,"SoundDuration":463320,"Delta":292989246},{"NoteNumber":64,"Velocity":38,"Duration":463320,"SoundDuration":463320,"Delta":292989246},{"NoteNumber":50,"Velocity":66,"Duration":231677,"SoundDuration":231677,"Delta":293452566},{"NoteNumber":59,"Velocity":38,"Duration":462446,"SoundDuration":462446,"Delta":293452566},{"NoteNumber":65,"Velocity":43,"Duration":462446,"SoundDuration":462446,"Delta":293452566},{"NoteNumber":55,"Velocity":58,"Duration":230768,"SoundDuration":230768,"Delta":293684244},{"NoteNumber":52,"Velocity":65,"Duration":144404,"SoundDuration":144404,"Delta":293915012},{"NoteNumber":60,"Velocity":34,"Duration":433213,"SoundDuration":433213,"Delta":293915012},{"NoteNumber":64,"Velocity":38,"Duration":433213,"SoundDuration":433213,"Delta":293915012},{"NoteNumber":53,"Velocity":57,"Duration":144404,"SoundDuration":144404,"Delta":294059417},{"NoteNumber":52,"Velocity":55,"Duration":144404,"SoundDuration":144404,"Delta":294203821},{"NoteNumber":50,"Velocity":63,"Duration":236220,"SoundDuration":236220,"Delta":294348225},{"NoteNumber":60,"Velocity":34,"Duration":472441,"SoundDuration":472441,"Delta":294348225},{"NoteNumber":64,"Velocity":38,"Duration":472441,"SoundDuration":472441,"Delta":294348225},{"NoteNumber":48,"Velocity":57,"Duration":236220,"SoundDuration":236220,"Delta":294584446},{"NoteNumber":50,"Velocity":64,"Duration":357142,"SoundDuration":357142,"Delta":294820666},{"NoteNumber":55,"Velocity":41,"Duration":476189,"SoundDuration":476189,"Delta":294820666},{"NoteNumber":59,"Velocity":41,"Duration":476189,"SoundDuration":476189,"Delta":294820666},{"NoteNumber":65,"Velocity":46,"Duration":476189,"SoundDuration":476189,"Delta":294820666},{"NoteNumber":43,"Velocity":54,"Duration":119047,"SoundDuration":119047,"Delta":295177809},{"NoteNumber":50,"Velocity":62,"Duration":476190,"SoundDuration":476190,"Delta":295296856},{"NoteNumber":55,"Velocity":33,"Duration":476190,"SoundDuration":476190,"Delta":295296856},{"NoteNumber":59,"Velocity":33,"Duration":476190,"SoundDuration":476190,"Delta":295296856},{"NoteNumber":65,"Velocity":37,"Duration":476190,"SoundDuration":476190,"Delta":295296856},{"NoteNumber":48,"Velocity":56,"Duration":476189,"SoundDuration":476189,"Delta":295773046},{"NoteNumber":60,"Velocity":32,"Duration":476189,"SoundDuration":476189,"Delta":295773046},{"NoteNumber":64,"Velocity":36,"Duration":476189,"SoundDuration":476189,"Delta":295773046},{"NoteNumber":50,"Velocity":60,"Duration":339622,"SoundDuration":339622,"Delta":296249236},{"NoteNumber":55,"Velocity":38,"Duration":452830,"SoundDuration":452830,"Delta":296249236},{"NoteNumber":59,"Velocity":38,"Duration":452830,"SoundDuration":452830,"Delta":296249236},{"NoteNumber":65,"Velocity":43,"Duration":452830,"SoundDuration":452830,"Delta":296249236},{"NoteNumber":43,"Velocity":51,"Duration":113207,"SoundDuration":113207,"Delta":296588859},{"NoteNumber":48,"Velocity":58,"Duration":487804,"SoundDuration":487804,"Delta":296702066},{"NoteNumber":60,"Velocity":31,"Duration":487804,"SoundDuration":487804,"Delta":296702066},{"NoteNumber":64,"Velocity":34,"Duration":487804,"SoundDuration":487804,"Delta":296702066},{"NoteNumber":50,"Velocity":57,"Duration":350194,"SoundDuration":350194,"Delta":297189871},{"NoteNumber":55,"Velocity":36,"Duration":466926,"SoundDuration":466926,"Delta":297189871},{"NoteNumber":59,"Velocity":36,"Duration":466926,"SoundDuration":466926,"Delta":297189871},{"NoteNumber":65,"Velocity":41,"Duration":466926,"SoundDuration":466926,"Delta":297189871},{"NoteNumber":43,"Velocity":48,"Duration":116731,"SoundDuration":116731,"Delta":297540066},{"NoteNumber":48,"Velocity":56,"Duration":493827,"SoundDuration":493827,"Delta":297656797},{"NoteNumber":60,"Velocity":29,"Duration":493827,"SoundDuration":493827,"Delta":297656797},{"NoteNumber":64,"Velocity":29,"Duration":493827,"SoundDuration":493827,"Delta":297656797},{"NoteNumber":50,"Velocity":55,"Duration":352940,"SoundDuration":352940,"Delta":298150624},{"NoteNumber":55,"Velocity":35,"Duration":470588,"SoundDuration":470588,"Delta":298150624},{"NoteNumber":59,"Velocity":35,"Duration":470588,"SoundDuration":470588,"Delta":298150624},{"NoteNumber":65,"Velocity":39,"Duration":470588,"SoundDuration":470588,"Delta":298150624},{"NoteNumber":43,"Velocity":46,"Duration":117647,"SoundDuration":117647,"Delta":298503565},{"NoteNumber":48,"Velocity":53,"Duration":502092,"SoundDuration":502092,"Delta":298621212},{"NoteNumber":60,"Velocity":28,"Duration":502092,"SoundDuration":502092,"Delta":298621212},{"NoteNumber":64,"Velocity":31,"Duration":502092,"SoundDuration":502092,"Delta":298621212},{"NoteNumber":50,"Velocity":54,"Duration":367346,"SoundDuration":367346,"Delta":299123304},{"NoteNumber":55,"Velocity":34,"Duration":489796,"SoundDuration":489796,"Delta":299123304},{"NoteNumber":59,"Velocity":34,"Duration":489796,"SoundDuration":489796,"Delta":299123304},{"NoteNumber":65,"Velocity":38,"Duration":489796,"SoundDuration":489796,"Delta":299123304},{"NoteNumber":43,"Velocity":45,"Duration":122449,"SoundDuration":122449,"Delta":299490651},{"NoteNumber":50,"Velocity":51,"Duration":489796,"SoundDuration":489796,"Delta":299613101},{"NoteNumber":55,"Velocity":26,"Duration":489796,"SoundDuration":489796,"Delta":299613101},{"NoteNumber":59,"Velocity":26,"Duration":489796,"SoundDuration":489796,"Delta":299613101},{"NoteNumber":65,"Velocity":30,"Duration":489796,"SoundDuration":489796,"Delta":299613101},{"NoteNumber":48,"Velocity":45,"Duration":510637,"SoundDuration":510637,"Delta":300102897},{"NoteNumber":60,"Velocity":25,"Duration":510637,"SoundDuration":510637,"Delta":300102897},{"NoteNumber":64,"Velocity":28,"Duration":510637,"SoundDuration":510637,"Delta":300102897},{"NoteNumber":50,"Velocity":50,"Duration":373443,"SoundDuration":373443,"Delta":300613534},{"NoteNumber":55,"Velocity":31,"Duration":497925,"SoundDuration":497925,"Delta":300613534},{"NoteNumber":59,"Velocity":31,"Duration":497925,"SoundDuration":497925,"Delta":300613534},{"NoteNumber":65,"Velocity":36,"Duration":497925,"SoundDuration":497925,"Delta":300613534},{"NoteNumber":43,"Velocity":41,"Duration":124481,"SoundDuration":124481,"Delta":300986978},{"NoteNumber":50,"Velocity":46,"Duration":512820,"SoundDuration":512820,"Delta":301111459},{"NoteNumber":55,"Velocity":24,"Duration":512820,"SoundDuration":512820,"Delta":301111459},{"NoteNumber":59,"Velocity":24,"Duration":512820,"SoundDuration":512820,"Delta":301111459},{"NoteNumber":65,"Velocity":28,"Duration":512820,"SoundDuration":512820,"Delta":301111459},{"NoteNumber":48,"Velocity":41,"Duration":530973,"SoundDuration":530973,"Delta":301624280},{"NoteNumber":60,"Velocity":23,"Duration":530973,"SoundDuration":530973,"Delta":301624280},{"NoteNumber":64,"Velocity":26,"Duration":530973,"SoundDuration":530973,"Delta":301624280},{"NoteNumber":67,"Velocity":40,"Duration":1558443,"SoundDuration":1558443,"Delta":302155253},{"NoteNumber":60,"Velocity":45,"Duration":1592918,"SoundDuration":1592918,"Delta":303713696},{"NoteNumber":67,"Velocity":40,"Duration":1558443,"SoundDuration":1558443,"Delta":305306615},{"NoteNumber":60,"Velocity":45,"Duration":1599999,"SoundDuration":1599999,"Delta":306865059},{"NoteNumber":67,"Velocity":41,"Duration":3124999,"SoundDuration":3124999,"Delta":308465058},{"NoteNumber":67,"Velocity":54,"Duration":493827,"SoundDuration":493827,"Delta":311595492},{"NoteNumber":60,"Velocity":59,"Duration":664205,"SoundDuration":664205,"Delta":312089319},{"NoteNumber":59,"Velocity":52,"Duration":243902,"SoundDuration":243902,"Delta":312753524},{"NoteNumber":52,"Velocity":50,"Duration":352940,"SoundDuration":352940,"Delta":312997427},{"NoteNumber":58,"Velocity":59,"Duration":352940,"SoundDuration":352940,"Delta":312997427},{"NoteNumber":61,"Velocity":59,"Duration":352940,"SoundDuration":352940,"Delta":312997427},{"NoteNumber":42,"Velocity":44,"Duration":470588,"SoundDuration":470588,"Delta":312997427},{"NoteNumber":54,"Velocity":45,"Duration":623976,"SoundDuration":623976,"Delta":313350368},{"NoteNumber":52,"Velocity":49,"Duration":506328,"SoundDuration":506328,"Delta":313468015},{"NoteNumber":58,"Velocity":58,"Duration":506328,"SoundDuration":506328,"Delta":313468015},{"NoteNumber":61,"Velocity":58,"Duration":506328,"SoundDuration":506328,"Delta":313468015},{"NoteNumber":42,"Velocity":39,"Duration":506328,"SoundDuration":506328,"Delta":313468015},{"NoteNumber":50,"Velocity":47,"Duration":588234,"SoundDuration":588234,"Delta":313974344},{"NoteNumber":54,"Velocity":47,"Duration":588234,"SoundDuration":588234,"Delta":313974344},{"NoteNumber":59,"Velocity":56,"Duration":588234,"SoundDuration":588234,"Delta":313974344},{"NoteNumber":35,"Velocity":37,"Duration":588234,"SoundDuration":588234,"Delta":313974344},{"NoteNumber":47,"Velocity":44,"Duration":588234,"SoundDuration":588234,"Delta":313974344}],"license":{"name":"Creative Commons Attribution-ShareAlike 3.0 Germany","url":"http://creativecommons.org/licenses/by-sa/3.0/de/deed.en","text":"The MIDI, audio (MP3, OGG) and video files of Bernd Krueger are licensed under the cc-by-sa Germany License. This means that you can use and adapt the files, as long as you attribute the copyright holder.\n\nName: Bernd Krueger\nSource: http://www.piano-midi.de\n\nThe distribution or public playback of the files is only allowed under identical license conditions.\n\nThe scores are open source.","attribution":"MIDI files by Bernd Krueger (piano-midi.de)","attributionUrl":"http://www.piano-midi.de"}}