{"title":"Chopin Etude No. 2, Opus 25","artist":"Chopin","durationMs":86457,"midiSha256":"2098e92dd42609aa960416d947c03d7f42b8e8c17be15bcea658a2a6677de6c8","midiObject":[{"NoteNumber":72,"Velocity":51,"Duration":325706,"SoundDuration":325706,"Delta":0},{"NoteNumber":72,"Velocity":55,"Duration":111463,"SoundDuration":111463,"Delta":325706},{"NoteNumber":52,"Velocity":39,"Duration":210260,"SoundDuration":210260,"Delta":325706},{"NoteNumber":73,"Velocity":46,"Duration":111182,"SoundDuration":111182,"Delta":424785},{"NoteNumber":71,"Velocity":46,"Duration":110898,"SoundDuration":110898,"Delta":523638},{"NoteNumber":67,"Velocity":31,"Duration":208608,"SoundDuration":208608,"Delta":523638},{"NoteNumber":72,"Velocity":46,"Duration":109979,"SoundDuration":109979,"Delta":622267},{"NoteNumber":75,"Velocity":50,"Duration":106423,"SoundDuration":106423,"Delta":720422},{"NoteNumber":60,"Velocity":27,"Duration":189856,"SoundDuration":189856,"Delta":720422},{"NoteNumber":73,"Velocity":46,"Duration":95258,"SoundDuration":95258,"Delta":815020},{"NoteNumber":72,"Velocity":53,"Duration":111003,"SoundDuration":111003,"Delta":910279},{"NoteNumber":58,"Velocity":39,"Duration":209800,"SoundDuration":209800,"Delta":910279},{"NoteNumber":73,"Velocity":49,"Duration":111182,"SoundDuration":111182,"Delta":1008897},{"NoteNumber":71,"Velocity":49,"Duration":110661,"SoundDuration":110661,"Delta":1107751},{"NoteNumber":67,"Velocity":33,"Duration":208311,"SoundDuration":208311,"Delta":1107751},{"NoteNumber":72,"Velocity":49,"Duration":109919,"SoundDuration":109919,"Delta":1206143},{"NoteNumber":78,"Velocity":51,"Duration":106898,"SoundDuration":106898,"Delta":1304185},{"NoteNumber":60,"Velocity":29,"Duration":190483,"SoundDuration":190483,"Delta":1304185},{"NoteNumber":79,"Velocity":48,"Duration":95462,"SoundDuration":95462,"Delta":1399206},{"NoteNumber":72,"Velocity":57,"Duration":109223,"SoundDuration":109223,"Delta":1494668},{"NoteNumber":53,"Velocity":41,"Duration":205457,"SoundDuration":205457,"Delta":1494668},{"NoteNumber":73,"Velocity":52,"Duration":108331,"SoundDuration":108331,"Delta":1591794},{"NoteNumber":71,"Velocity":48,"Duration":107558,"SoundDuration":107558,"Delta":1688138},{"NoteNumber":68,"Velocity":37,"Duration":202261,"SoundDuration":202261,"Delta":1688138},{"NoteNumber":72,"Velocity":49,"Duration":106581,"SoundDuration":106581,"Delta":1783819},{"NoteNumber":75,"Velocity":52,"Duration":106208,"SoundDuration":106208,"Delta":1878629},{"NoteNumber":60,"Velocity":35,"Duration":190472,"SoundDuration":190472,"Delta":1878629},{"NoteNumber":73,"Velocity":49,"Duration":96302,"SoundDuration":96302,"Delta":1972799},{"NoteNumber":72,"Velocity":58,"Duration":104993,"SoundDuration":104993,"Delta":2069101},{"NoteNumber":56,"Velocity":44,"Duration":198320,"SoundDuration":198320,"Delta":2069101},{"NoteNumber":73,"Velocity":50,"Duration":104993,"SoundDuration":104993,"Delta":2162429},{"NoteNumber":71,"Velocity":50,"Duration":104993,"SoundDuration":104993,"Delta":2255756},{"NoteNumber":68,"Velocity":38,"Duration":198320,"SoundDuration":198320,"Delta":2255756},{"NoteNumber":72,"Velocity":50,"Duration":104993,"SoundDuration":104993,"Delta":2349083},{"NoteNumber":80,"Velocity":53,"Duration":105596,"SoundDuration":105596,"Delta":2442410},{"NoteNumber":60,"Velocity":36,"Duration":191481,"SoundDuration":191481,"Delta":2442410},{"NoteNumber":77,"Velocity":49,"Duration":98154,"SoundDuration":98154,"Delta":2535737},{"NoteNumber":76,"Velocity":60,"Duration":104788,"SoundDuration":104788,"Delta":2633892},{"NoteNumber":55,"Velocity":48,"Duration":198115,"SoundDuration":198115,"Delta":2633892},{"NoteNumber":77,"Velocity":53,"Duration":104993,"SoundDuration":104993,"Delta":2727014},{"NoteNumber":76,"Velocity":55,"Duration":104532,"SoundDuration":104532,"Delta":2820341},{"NoteNumber":70,"Velocity":39,"Duration":197759,"SoundDuration":197759,"Delta":2820341},{"NoteNumber":75,"Velocity":56,"Duration":104842,"SoundDuration":104842,"Delta":2913258},{"NoteNumber":76,"Velocity":57,"Duration":106283,"SoundDuration":106283,"Delta":3006382},{"NoteNumber":64,"Velocity":36,"Duration":191774,"SoundDuration":191774,"Delta":3006382},{"NoteNumber":79,"Velocity":60,"Duration":97704,"SoundDuration":97704,"Delta":3100452},{"NoteNumber":82,"Velocity":64,"Duration":115528,"SoundDuration":115528,"Delta":3198156},{"NoteNumber":61,"Velocity":49,"Duration":207634,"SoundDuration":207634,"Delta":3198156},{"NoteNumber":84,"Velocity":60,"Duration":103619,"SoundDuration":103619,"Delta":3302171},{"NoteNumber":82,"Velocity":61,"Duration":103619,"SoundDuration":103619,"Delta":3394277},{"NoteNumber":70,"Velocity":44,"Duration":195726,"SoundDuration":195726,"Delta":3394277},{"NoteNumber":81,"Velocity":63,"Duration":103619,"SoundDuration":103619,"Delta":3486384},{"NoteNumber":82,"Velocity":62,"Duration":104039,"SoundDuration":104039,"Delta":3578490},{"NoteNumber":64,"Velocity":39,"Duration":187571,"SoundDuration":187571,"Delta":3578490},{"NoteNumber":85,"Velocity":66,"Duration":95465,"SoundDuration":95465,"Delta":3670597},{"NoteNumber":84,"Velocity":70,"Duration":117894,"SoundDuration":117894,"Delta":3766062},{"NoteNumber":56,"Velocity":55,"Duration":212065,"SoundDuration":212065,"Delta":3766062},{"NoteNumber":85,"Velocity":61,"Duration":105942,"SoundDuration":105942,"Delta":3872186},{"NoteNumber":84,"Velocity":61,"Duration":105942,"SoundDuration":105942,"Delta":3966356},{"NoteNumber":68,"Velocity":45,"Duration":200113,"SoundDuration":200113,"Delta":3966356},{"NoteNumber":83,"Velocity":61,"Duration":105942,"SoundDuration":105942,"Delta":4060527},{"NoteNumber":84,"Velocity":62,"Duration":106555,"SoundDuration":106555,"Delta":4154698},{"NoteNumber":65,"Velocity":44,"Duration":193249,"SoundDuration":193249,"Delta":4154698},{"NoteNumber":79,"Velocity":60,"Duration":99078,"SoundDuration":99078,"Delta":4248869},{"NoteNumber":80,"Velocity":62,"Duration":107882,"SoundDuration":107882,"Delta":4347947},{"NoteNumber":60,"Velocity":50,"Duration":203778,"SoundDuration":203778,"Delta":4347947},{"NoteNumber":82,"Velocity":56,"Duration":107882,"SoundDuration":107882,"Delta":4443843},{"NoteNumber":80,"Velocity":56,"Duration":107882,"SoundDuration":107882,"Delta":4539739},{"NoteNumber":68,"Velocity":40,"Duration":203778,"SoundDuration":203778,"Delta":4539739},{"NoteNumber":79,"Velocity":56,"Duration":107882,"SoundDuration":107882,"Delta":4635634},{"NoteNumber":80,"Velocity":57,"Duration":107882,"SoundDuration":107882,"Delta":4731530},{"NoteNumber":65,"Velocity":40,"Duration":191791,"SoundDuration":191791,"Delta":4731530},{"NoteNumber":76,"Velocity":52,"Duration":95895,"SoundDuration":95895,"Delta":4827426},{"NoteNumber":77,"Velocity":60,"Duration":107828,"SoundDuration":107828,"Delta":4923321},{"NoteNumber":46,"Velocity":48,"Duration":203238,"SoundDuration":203238,"Delta":4923321},{"NoteNumber":79,"Velocity":51,"Duration":107342,"SoundDuration":107342,"Delta":5019217},{"NoteNumber":77,"Velocity":51,"Duration":106845,"SoundDuration":106845,"Delta":5114682},{"NoteNumber":61,"Velocity":37,"Duration":201390,"SoundDuration":201390,"Delta":5114682},{"NoteNumber":76,"Velocity":52,"Duration":106369,"SoundDuration":106369,"Delta":5209703},{"NoteNumber":77,"Velocity":55,"Duration":105890,"SoundDuration":105890,"Delta":5304302},{"NoteNumber":55,"Velocity":36,"Duration":187926,"SoundDuration":187926,"Delta":5304302},{"NoteNumber":72,"Velocity":50,"Duration":93755,"SoundDuration":93755,"Delta":5398473},{"NoteNumber":73,"Velocity":60,"Duration":104993,"SoundDuration":104993,"Delta":5492228},{"NoteNumber":53,"Velocity":48,"Duration":198747,"SoundDuration":198747,"Delta":5492228},{"NoteNumber":75,"Velocity":51,"Duration":105420,"SoundDuration":105420,"Delta":5585556},{"NoteNumber":73,"Velocity":51,"Duration":106102,"SoundDuration":106102,"Delta":5679204},{"NoteNumber":61,"Velocity":37,"Duration":200965,"SoundDuration":200965,"Delta":5679204},{"NoteNumber":72,"Velocity":51,"Duration":106687,"SoundDuration":106687,"Delta":5773482},{"NoteNumber":73,"Velocity":55,"Duration":107799,"SoundDuration":107799,"Delta":5868292},{"NoteNumber":55,"Velocity":35,"Duration":194916,"SoundDuration":194916,"Delta":5868292},{"NoteNumber":71,"Velocity":51,"Duration":99561,"SoundDuration":99561,"Delta":5963646},{"NoteNumber":72,"Velocity":58,"Duration":107342,"SoundDuration":107342,"Delta":6063208},{"NoteNumber":48,"Velocity":48,"Duration":202310,"SoundDuration":202310,"Delta":6063208},{"NoteNumber":73,"Velocity":52,"Duration":106845,"SoundDuration":106845,"Delta":6158673},{"NoteNumber":72,"Velocity":48,"Duration":106369,"SoundDuration":106369,"Delta":6253694},{"NoteNumber":60,"Velocity":37,"Duration":200488,"SoundDuration":200488,"Delta":6253694},{"NoteNumber":71,"Velocity":48,"Duration":105890,"SoundDuration":105890,"Delta":6348293},{"NoteNumber":72,"Velocity":55,"Duration":105421,"SoundDuration":105421,"Delta":6442463},{"NoteNumber":56,"Velocity":37,"Duration":186981,"SoundDuration":186981,"Delta":6442463},{"NoteNumber":67,"Velocity":50,"Duration":93225,"SoundDuration":93225,"Delta":6536219},{"NoteNumber":68,"Velocity":56,"Duration":104534,"SoundDuration":104534,"Delta":6629444},{"NoteNumber":53,"Velocity":48,"Duration":197453,"SoundDuration":197453,"Delta":6629444},{"NoteNumber":70,"Velocity":49,"Duration":104534,"SoundDuration":104534,"Delta":6722364},{"NoteNumber":68,"Velocity":48,"Duration":104534,"SoundDuration":104534,"Delta":6815283},{"NoteNumber":60,"Velocity":39,"Duration":197453,"SoundDuration":197453,"Delta":6815283},{"NoteNumber":67,"Velocity":46,"Duration":104534,"SoundDuration":104534,"Delta":6908203},{"NoteNumber":68,"Velocity":55,"Duration":105188,"SoundDuration":105188,"Delta":7001122},{"NoteNumber":56,"Velocity":39,"Duration":191074,"SoundDuration":191074,"Delta":7001122},{"NoteNumber":65,"Velocity":46,"Duration":98154,"SoundDuration":98154,"Delta":7094042},{"NoteNumber":64,"Velocity":60,"Duration":106581,"SoundDuration":106581,"Delta":7192197},{"NoteNumber":48,"Velocity":48,"Duration":200438,"SoundDuration":200438,"Delta":7192197},{"NoteNumber":67,"Velocity":55,"Duration":105629,"SoundDuration":105629,"Delta":7287006},{"NoteNumber":70,"Velocity":56,"Duration":104636,"SoundDuration":104636,"Delta":7380970},{"NoteNumber":64,"Velocity":39,"Duration":197555,"SoundDuration":197555,"Delta":7380970},{"NoteNumber":73,"Velocity":58,"Duration":104534,"SoundDuration":104534,"Delta":7473991},{"NoteNumber":76,"Velocity":60,"Duration":105364,"SoundDuration":105364,"Delta":7566911},{"NoteNumber":60,"Velocity":40,"Duration":192481,"SoundDuration":192481,"Delta":7566911},{"NoteNumber":79,"Velocity":61,"Duration":99561,"SoundDuration":99561,"Delta":7659830},{"NoteNumber":82,"Velocity":67,"Duration":120406,"SoundDuration":120406,"Delta":7759392},{"NoteNumber":55,"Velocity":49,"Duration":220621,"SoundDuration":220621,"Delta":7759392},{"NoteNumber":85,"Velocity":60,"Duration":112838,"SoundDuration":112838,"Delta":7867175},{"NoteNumber":84,"Velocity":61,"Duration":111356,"SoundDuration":111356,"Delta":7967568},{"NoteNumber":64,"Velocity":44,"Duration":209054,"SoundDuration":209054,"Delta":7967568},{"NoteNumber":82,"Velocity":62,"Duration":109967,"SoundDuration":109967,"Delta":8066655},{"NoteNumber":80,"Velocity":61,"Duration":109505,"SoundDuration":109505,"Delta":8164468},{"NoteNumber":58,"Velocity":45,"Duration":200076,"SoundDuration":200076,"Delta":8164468},{"NoteNumber":79,"Velocity":62,"Duration":103508,"SoundDuration":103508,"Delta":8261035},{"NoteNumber":82,"Velocity":68,"Duration":115663,"SoundDuration":115663,"Delta":8364544},{"NoteNumber":53,"Velocity":55,"Duration":214512,"SoundDuration":214512,"Delta":8364544},{"NoteNumber":84,"Velocity":67,"Duration":111003,"SoundDuration":111003,"Delta":8468053},{"NoteNumber":80,"Velocity":63,"Duration":111463,"SoundDuration":111463,"Delta":8566672},{"NoteNumber":65,"Velocity":42,"Duration":210843,"SoundDuration":210843,"Delta":8566672},{"NoteNumber":79,"Velocity":63,"Duration":111765,"SoundDuration":111765,"Delta":8665750},{"NoteNumber":80,"Velocity":59,"Duration":112007,"SoundDuration":112007,"Delta":8765071},{"NoteNumber":60,"Velocity":35,"Duration":199481,"SoundDuration":199481,"Delta":8765071},{"NoteNumber":77,"Velocity":53,"Duration":99919,"SoundDuration":99919,"Delta":8864633},{"NoteNumber":76,"Velocity":61,"Duration":112305,"SoundDuration":112305,"Delta":8964552},{"NoteNumber":56,"Velocity":39,"Duration":212520,"SoundDuration":212520,"Delta":8964552},{"NoteNumber":79,"Velocity":49,"Duration":112718,"SoundDuration":112718,"Delta":9064354},{"NoteNumber":77,"Velocity":48,"Duration":113379,"SoundDuration":113379,"Delta":9164507},{"NoteNumber":65,"Velocity":35,"Duration":214871,"SoundDuration":214871,"Delta":9164507},{"NoteNumber":76,"Velocity":48,"Duration":114115,"SoundDuration":114115,"Delta":9265263},{"NoteNumber":77,"Velocity":48,"Duration":114929,"SoundDuration":114929,"Delta":9366630},{"NoteNumber":61,"Velocity":30,"Duration":204865,"SoundDuration":204865,"Delta":9366630},{"NoteNumber":73,"Velocity":45,"Duration":102749,"SoundDuration":102749,"Delta":9468746},{"NoteNumber":72,"Velocity":53,"Duration":111946,"SoundDuration":111946,"Delta":9571496},{"NoteNumber":52,"Velocity":37,"Duration":210969,"SoundDuration":210969,"Delta":9571496},{"NoteNumber":73,"Velocity":44,"Duration":111407,"SoundDuration":111407,"Delta":9671058},{"NoteNumber":71,"Velocity":44,"Duration":110898,"SoundDuration":110898,"Delta":9770136},{"NoteNumber":67,"Velocity":33,"Duration":208661,"SoundDuration":208661,"Delta":9770136},{"NoteNumber":72,"Velocity":44,"Duration":110032,"SoundDuration":110032,"Delta":9868765},{"NoteNumber":75,"Velocity":49,"Duration":107586,"SoundDuration":107586,"Delta":9966920},{"NoteNumber":60,"Velocity":29,"Duration":195543,"SoundDuration":195543,"Delta":9966920},{"NoteNumber":73,"Velocity":45,"Duration":100522,"SoundDuration":100522,"Delta":10061941},{"NoteNumber":72,"Velocity":55,"Duration":110424,"SoundDuration":110424,"Delta":10162463},{"NoteNumber":58,"Velocity":39,"Duration":208296,"SoundDuration":208296,"Delta":10162463},{"NoteNumber":73,"Velocity":46,"Duration":110142,"SoundDuration":110142,"Delta":10260618},{"NoteNumber":71,"Velocity":46,"Duration":109742,"SoundDuration":109742,"Delta":10358547},{"NoteNumber":67,"Velocity":34,"Duration":206924,"SoundDuration":206924,"Delta":10358547},{"NoteNumber":72,"Velocity":46,"Duration":109336,"SoundDuration":109336,"Delta":10456135},{"NoteNumber":78,"Velocity":51,"Duration":107270,"SoundDuration":107270,"Delta":10553373},{"NoteNumber":60,"Velocity":31,"Duration":194386,"SoundDuration":194386,"Delta":10553373},{"NoteNumber":79,"Velocity":46,"Duration":99562,"SoundDuration":99562,"Delta":10648198},{"NoteNumber":72,"Velocity":57,"Duration":109336,"SoundDuration":109336,"Delta":10747760},{"NoteNumber":53,"Velocity":40,"Duration":205959,"SoundDuration":205959,"Delta":10747760},{"NoteNumber":73,"Velocity":46,"Duration":108720,"SoundDuration":108720,"Delta":10844999},{"NoteNumber":71,"Velocity":46,"Duration":108108,"SoundDuration":108108,"Delta":10941676},{"NoteNumber":68,"Velocity":35,"Duration":203572,"SoundDuration":203572,"Delta":10941676},{"NoteNumber":72,"Velocity":47,"Duration":107450,"SoundDuration":107450,"Delta":11037798},{"NoteNumber":75,"Velocity":52,"Duration":106952,"SoundDuration":106952,"Delta":11133371},{"NoteNumber":60,"Velocity":31,"Duration":191217,"SoundDuration":191217,"Delta":11133371},{"NoteNumber":73,"Velocity":47,"Duration":96302,"SoundDuration":96302,"Delta":11228286},{"NoteNumber":72,"Velocity":58,"Duration":104070,"SoundDuration":104070,"Delta":11324588},{"NoteNumber":56,"Velocity":46,"Duration":196577,"SoundDuration":196577,"Delta":11324588},{"NoteNumber":73,"Velocity":48,"Duration":104070,"SoundDuration":104070,"Delta":11417095},{"NoteNumber":71,"Velocity":49,"Duration":104070,"SoundDuration":104070,"Delta":11509602},{"NoteNumber":68,"Velocity":38,"Duration":196577,"SoundDuration":196577,"Delta":11509602},{"NoteNumber":72,"Velocity":49,"Duration":104070,"SoundDuration":104070,"Delta":11602109},{"NoteNumber":80,"Velocity":53,"Duration":104776,"SoundDuration":104776,"Delta":11694616},{"NoteNumber":60,"Velocity":34,"Duration":190661,"SoundDuration":190661,"Delta":11694616},{"NoteNumber":77,"Velocity":50,"Duration":98154,"SoundDuration":98154,"Delta":11787123},{"NoteNumber":75,"Velocity":60,"Duration":104070,"SoundDuration":104070,"Delta":11885278},{"NoteNumber":55,"Velocity":48,"Duration":196577,"SoundDuration":196577,"Delta":11885278},{"NoteNumber":77,"Velocity":53,"Duration":104070,"SoundDuration":104070,"Delta":11977785},{"NoteNumber":75,"Velocity":56,"Duration":103870,"SoundDuration":103870,"Delta":12070292},{"NoteNumber":70,"Velocity":39,"Duration":196890,"SoundDuration":196890,"Delta":12070292},{"NoteNumber":74,"Velocity":57,"Duration":104584,"SoundDuration":104584,"Delta":12162598},{"NoteNumber":75,"Velocity":60,"Duration":105965,"SoundDuration":105965,"Delta":12255517},{"NoteNumber":63,"Velocity":42,"Duration":191456,"SoundDuration":191456,"Delta":12255517},{"NoteNumber":79,"Velocity":62,"Duration":97704,"SoundDuration":97704,"Delta":12349269},{"NoteNumber":82,"Velocity":70,"Duration":106534,"SoundDuration":106534,"Delta":12446973},{"NoteNumber":61,"Velocity":51,"Duration":198588,"SoundDuration":198588,"Delta":12446973},{"NoteNumber":84,"Velocity":62,"Duration":103568,"SoundDuration":103568,"Delta":12541994},{"NoteNumber":82,"Velocity":64,"Duration":103006,"SoundDuration":103006,"Delta":12634100},{"NoteNumber":70,"Velocity":46,"Duration":194153,"SoundDuration":194153,"Delta":12634100},{"NoteNumber":81,"Velocity":66,"Duration":102559,"SoundDuration":102559,"Delta":12725695},{"NoteNumber":82,"Velocity":64,"Duration":103051,"SoundDuration":103051,"Delta":12816892},{"NoteNumber":63,"Velocity":45,"Duration":189488,"SoundDuration":189488,"Delta":12816892},{"NoteNumber":89,"Velocity":66,"Duration":98785,"SoundDuration":98785,"Delta":12907596},{"NoteNumber":87,"Velocity":82,"Duration":129225,"SoundDuration":129225,"Delta":13006381},{"NoteNumber":56,"Velocity":59,"Duration":223395,"SoundDuration":223395,"Delta":13006381},{"NoteNumber":89,"Velocity":70,"Duration":105942,"SoundDuration":105942,"Delta":13123834},{"NoteNumber":87,"Velocity":70,"Duration":105942,"SoundDuration":105942,"Delta":13218005},{"NoteNumber":68,"Velocity":48,"Duration":200113,"SoundDuration":200113,"Delta":13218005},{"NoteNumber":86,"Velocity":70,"Duration":105942,"SoundDuration":105942,"Delta":13312176},{"NoteNumber":87,"Velocity":66,"Duration":106555,"SoundDuration":106555,"Delta":13406347},{"NoteNumber":63,"Velocity":48,"Duration":193249,"SoundDuration":193249,"Delta":13406347},{"NoteNumber":83,"Velocity":64,"Duration":99078,"SoundDuration":99078,"Delta":13500518},{"NoteNumber":84,"Velocity":68,"Duration":110084,"SoundDuration":110084,"Delta":13599596},{"NoteNumber":60,"Velocity":56,"Duration":206985,"SoundDuration":206985,"Delta":13599596},{"NoteNumber":85,"Velocity":61,"Duration":109056,"SoundDuration":109056,"Delta":13697525},{"NoteNumber":84,"Velocity":61,"Duration":108391,"SoundDuration":108391,"Delta":13794538},{"NoteNumber":68,"Velocity":45,"Duration":204740,"SoundDuration":204740,"Delta":13794538},{"NoteNumber":83,"Velocity":61,"Duration":108391,"SoundDuration":108391,"Delta":13890886},{"NoteNumber":84,"Velocity":61,"Duration":108391,"SoundDuration":108391,"Delta":13987235},{"NoteNumber":63,"Velocity":45,"Duration":192696,"SoundDuration":192696,"Delta":13987235},{"NoteNumber":79,"Velocity":60,"Duration":96348,"SoundDuration":96348,"Delta":14083583},{"NoteNumber":80,"Velocity":70,"Duration":116113,"SoundDuration":116113,"Delta":14179931},{"NoteNumber":49,"Velocity":51,"Duration":212900,"SoundDuration":212900,"Delta":14179931},{"NoteNumber":82,"Velocity":56,"Duration":108885,"SoundDuration":108885,"Delta":14283946},{"NoteNumber":80,"Velocity":56,"Duration":108885,"SoundDuration":108885,"Delta":14380733},{"NoteNumber":65,"Velocity":42,"Duration":205671,"SoundDuration":205671,"Delta":14380733},{"NoteNumber":79,"Velocity":56,"Duration":108885,"SoundDuration":108885,"Delta":14477520},{"NoteNumber":80,"Velocity":58,"Duration":109171,"SoundDuration":109171,"Delta":14574306},{"NoteNumber":58,"Velocity":39,"Duration":195865,"SoundDuration":195865,"Delta":14574306},{"NoteNumber":76,"Velocity":57,"Duration":99078,"SoundDuration":99078,"Delta":14671093},{"NoteNumber":77,"Velocity":61,"Duration":108278,"SoundDuration":108278,"Delta":14770171},{"NoteNumber":56,"Velocity":48,"Duration":204627,"SoundDuration":204627,"Delta":14770171},{"NoteNumber":79,"Velocity":52,"Duration":108391,"SoundDuration":108391,"Delta":14866407},{"NoteNumber":77,"Velocity":52,"Duration":107893,"SoundDuration":107893,"Delta":14962755},{"NoteNumber":65,"Velocity":38,"Duration":204406,"SoundDuration":204406,"Delta":14962755},{"NoteNumber":76,"Velocity":52,"Duration":108499,"SoundDuration":108499,"Delta":15058662},{"NoteNumber":77,"Velocity":53,"Duration":109853,"SoundDuration":109853,"Delta":15155007},{"NoteNumber":58,"Velocity":38,"Duration":195173,"SoundDuration":195173,"Delta":15155007},{"NoteNumber":73,"Velocity":52,"Duration":97589,"SoundDuration":97589,"Delta":15252590},{"NoteNumber":72,"Velocity":60,"Duration":108055,"SoundDuration":108055,"Delta":15350180},{"NoteNumber":51,"Velocity":48,"Duration":203189,"SoundDuration":203189,"Delta":15350180},{"NoteNumber":73,"Velocity":55,"Duration":107067,"SoundDuration":107067,"Delta":15446302},{"NoteNumber":70,"Velocity":52,"Duration":106476,"SoundDuration":106476,"Delta":15541545},{"NoteNumber":63,"Velocity":39,"Duration":201497,"SoundDuration":201497,"Delta":15541545},{"NoteNumber":67,"Velocity":56,"Duration":106898,"SoundDuration":106898,"Delta":15636144},{"NoteNumber":68,"Velocity":57,"Duration":107233,"SoundDuration":107233,"Delta":15731165},{"NoteNumber":60,"Velocity":40,"Duration":192724,"SoundDuration":192724,"Delta":15731165},{"NoteNumber":70,"Velocity":57,"Duration":97704,"SoundDuration":97704,"Delta":15826185},{"NoteNumber":72,"Velocity":60,"Duration":107882,"SoundDuration":107882,"Delta":15923889},{"NoteNumber":56,"Velocity":49,"Duration":203778,"SoundDuration":203778,"Delta":15923889},{"NoteNumber":73,"Velocity":58,"Duration":107882,"SoundDuration":107882,"Delta":16019785},{"NoteNumber":75,"Velocity":60,"Duration":107882,"SoundDuration":107882,"Delta":16115681},{"NoteNumber":63,"Velocity":44,"Duration":203778,"SoundDuration":203778,"Delta":16115681},{"NoteNumber":77,"Velocity":61,"Duration":107882,"SoundDuration":107882,"Delta":16211576},{"NoteNumber":79,"Velocity":61,"Duration":108243,"SoundDuration":108243,"Delta":16307472},{"NoteNumber":60,"Velocity":45,"Duration":194680,"SoundDuration":194680,"Delta":16307472},{"NoteNumber":80,"Velocity":61,"Duration":98784,"SoundDuration":98784,"Delta":16403368},{"NoteNumber":79,"Velocity":68,"Duration":106369,"SoundDuration":106369,"Delta":16502153},{"NoteNumber":51,"Velocity":55,"Duration":200540,"SoundDuration":200540,"Delta":16502153},{"NoteNumber":80,"Velocity":58,"Duration":105942,"SoundDuration":105942,"Delta":16596751},{"NoteNumber":77,"Velocity":58,"Duration":105942,"SoundDuration":105942,"Delta":16690922},{"NoteNumber":63,"Velocity":45,"Duration":200113,"SoundDuration":200113,"Delta":16690922},{"NoteNumber":75,"Velocity":58,"Duration":105942,"SoundDuration":105942,"Delta":16785093},{"NoteNumber":77,"Velocity":61,"Duration":106555,"SoundDuration":106555,"Delta":16879264},{"NoteNumber":61,"Velocity":39,"Duration":193249,"SoundDuration":193249,"Delta":16879264},{"NoteNumber":73,"Velocity":60,"Duration":99078,"SoundDuration":99078,"Delta":16973435},{"NoteNumber":72,"Velocity":64,"Duration":107882,"SoundDuration":107882,"Delta":17072513},{"NoteNumber":55,"Velocity":50,"Duration":203778,"SoundDuration":203778,"Delta":17072513},{"NoteNumber":73,"Velocity":56,"Duration":107882,"SoundDuration":107882,"Delta":17168409},{"NoteNumber":70,"Velocity":53,"Duration":107882,"SoundDuration":107882,"Delta":17264304},{"NoteNumber":63,"Velocity":40,"Duration":203778,"SoundDuration":203778,"Delta":17264304},{"NoteNumber":72,"Velocity":53,"Duration":107882,"SoundDuration":107882,"Delta":17360200},{"NoteNumber":65,"Velocity":57,"Duration":107882,"SoundDuration":107882,"Delta":17456096},{"NoteNumber":61,"Velocity":38,"Duration":191791,"SoundDuration":191791,"Delta":17456096},{"NoteNumber":67,"Velocity":52,"Duration":95895,"SoundDuration":95895,"Delta":17551991},{"NoteNumber":68,"Velocity":60,"Duration":104993,"SoundDuration":104993,"Delta":17647887},{"NoteNumber":44,"Velocity":48,"Duration":198320,"SoundDuration":198320,"Delta":17647887},{"NoteNumber":70,"Velocity":51,"Duration":104993,"SoundDuration":104993,"Delta":17741214},{"NoteNumber":68,"Velocity":51,"Duration":104993,"SoundDuration":104993,"Delta":17834541},{"NoteNumber":60,"Velocity":39,"Duration":198320,"SoundDuration":198320,"Delta":17834541},{"NoteNumber":67,"Velocity":49,"Duration":104993,"SoundDuration":104993,"Delta":17927869},{"NoteNumber":68,"Velocity":51,"Duration":105711,"SoundDuration":105711,"Delta":18021196},{"NoteNumber":51,"Velocity":36,"Duration":192405,"SoundDuration":192405,"Delta":18021196},{"NoteNumber":69,"Velocity":53,"Duration":99078,"SoundDuration":99078,"Delta":18114523},{"NoteNumber":70,"Velocity":60,"Duration":108885,"SoundDuration":108885,"Delta":18213601},{"NoteNumber":52,"Velocity":53,"Duration":205671,"SoundDuration":205671,"Delta":18213601},{"NoteNumber":72,"Velocity":52,"Duration":108885,"SoundDuration":108885,"Delta":18310388},{"NoteNumber":70,"Velocity":52,"Duration":108885,"SoundDuration":108885,"Delta":18407175},{"NoteNumber":61,"Velocity":39,"Duration":205671,"SoundDuration":205671,"Delta":18407175},{"NoteNumber":72,"Velocity":51,"Duration":108885,"SoundDuration":108885,"Delta":18503961},{"NoteNumber":65,"Velocity":49,"Duration":109056,"SoundDuration":109056,"Delta":18600748},{"NoteNumber":51,"Velocity":35,"Duration":194941,"SoundDuration":194941,"Delta":18600748},{"NoteNumber":67,"Velocity":55,"Duration":98154,"SoundDuration":98154,"Delta":18697535},{"NoteNumber":68,"Velocity":60,"Duration":104993,"SoundDuration":104993,"Delta":18795689},{"NoteNumber":44,"Velocity":48,"Duration":198320,"SoundDuration":198320,"Delta":18795689},{"NoteNumber":70,"Velocity":55,"Duration":104993,"SoundDuration":104993,"Delta":18889017},{"NoteNumber":68,"Velocity":49,"Duration":104993,"SoundDuration":104993,"Delta":18982344},{"NoteNumber":60,"Velocity":39,"Duration":198320,"SoundDuration":198320,"Delta":18982344},{"NoteNumber":67,"Velocity":49,"Duration":104993,"SoundDuration":104993,"Delta":19075671},{"NoteNumber":68,"Velocity":51,"Duration":105711,"SoundDuration":105711,"Delta":19168998},{"NoteNumber":51,"Velocity":35,"Duration":192405,"SoundDuration":192405,"Delta":19168998},{"NoteNumber":69,"Velocity":55,"Duration":99078,"SoundDuration":99078,"Delta":19262325},{"NoteNumber":70,"Velocity":60,"Duration":108885,"SoundDuration":108885,"Delta":19361404},{"NoteNumber":52,"Velocity":50,"Duration":205671,"SoundDuration":205671,"Delta":19361404},{"NoteNumber":72,"Velocity":55,"Duration":108885,"SoundDuration":108885,"Delta":19458190},{"NoteNumber":70,"Velocity":55,"Duration":108885,"SoundDuration":108885,"Delta":19554977},{"NoteNumber":61,"Velocity":39,"Duration":205671,"SoundDuration":205671,"Delta":19554977},{"NoteNumber":72,"Velocity":51,"Duration":108885,"SoundDuration":108885,"Delta":19651764},{"NoteNumber":65,"Velocity":51,"Duration":109056,"SoundDuration":109056,"Delta":19748550},{"NoteNumber":51,"Velocity":36,"Duration":194941,"SoundDuration":194941,"Delta":19748550},{"NoteNumber":67,"Velocity":51,"Duration":98154,"SoundDuration":98154,"Delta":19845337},{"NoteNumber":68,"Velocity":60,"Duration":104993,"SoundDuration":104993,"Delta":19943492},{"NoteNumber":44,"Velocity":48,"Duration":198320,"SoundDuration":198320,"Delta":19943492},{"NoteNumber":70,"Velocity":55,"Duration":104993,"SoundDuration":104993,"Delta":20036819},{"NoteNumber":68,"Velocity":50,"Duration":104993,"SoundDuration":104993,"Delta":20130146},{"NoteNumber":60,"Velocity":39,"Duration":198320,"SoundDuration":198320,"Delta":20130146},{"NoteNumber":67,"Velocity":48,"Duration":104993,"SoundDuration":104993,"Delta":20223473},{"NoteNumber":68,"Velocity":51,"Duration":105711,"SoundDuration":105711,"Delta":20316800},{"NoteNumber":51,"Velocity":34,"Duration":192405,"SoundDuration":192405,"Delta":20316800},{"NoteNumber":70,"Velocity":55,"Duration":99078,"SoundDuration":99078,"Delta":20410128},{"NoteNumber":72,"Velocity":60,"Duration":96567,"SoundDuration":96567,"Delta":20509206},{"NoteNumber":48,"Velocity":50,"Duration":205399,"SoundDuration":205399,"Delta":20509206},{"NoteNumber":73,"Velocity":55,"Duration":96677,"SoundDuration":96677,"Delta":20605774},{"NoteNumber":72,"Velocity":50,"Duration":97471,"SoundDuration":97471,"Delta":20702451},{"NoteNumber":55,"Velocity":38,"Duration":207841,"SoundDuration":207841,"Delta":20702451},{"NoteNumber":71,"Velocity":49,"Duration":98041,"SoundDuration":98041,"Delta":20799922},{"NoteNumber":72,"Velocity":52,"Duration":98853,"SoundDuration":98853,"Delta":20897964},{"NoteNumber":58,"Velocity":34,"Duration":197008,"SoundDuration":197008,"Delta":20897964},{"NoteNumber":73,"Velocity":49,"Duration":98154,"SoundDuration":98154,"Delta":20996818},{"NoteNumber":72,"Velocity":57,"Duration":101240,"SoundDuration":101240,"Delta":21094972},{"NoteNumber":63,"Velocity":47,"Duration":306865,"SoundDuration":306865,"Delta":21094972},{"NoteNumber":73,"Velocity":52,"Duration":102244,"SoundDuration":102244,"Delta":21196213},{"NoteNumber":72,"Velocity":51,"Duration":103379,"SoundDuration":103379,"Delta":21298458},{"NoteNumber":71,"Velocity":44,"Duration":104543,"SoundDuration":104543,"Delta":21401838},{"NoteNumber":72,"Velocity":46,"Duration":105595,"SoundDuration":105595,"Delta":21506381},{"NoteNumber":73,"Velocity":46,"Duration":106952,"SoundDuration":106952,"Delta":21611977},{"NoteNumber":72,"Velocity":48,"Duration":108056,"SoundDuration":108056,"Delta":21718929},{"NoteNumber":73,"Velocity":42,"Duration":109470,"SoundDuration":109470,"Delta":21826985},{"NoteNumber":72,"Velocity":39,"Duration":110485,"SoundDuration":110485,"Delta":21936456},{"NoteNumber":73,"Velocity":37,"Duration":115564,"SoundDuration":115564,"Delta":22046942},{"NoteNumber":72,"Velocity":36,"Duration":125077,"SoundDuration":125077,"Delta":22162506},{"NoteNumber":73,"Velocity":33,"Duration":124190,"SoundDuration":124190,"Delta":22287583},{"NoteNumber":72,"Velocity":53,"Duration":117616,"SoundDuration":117616,"Delta":22411774},{"NoteNumber":52,"Velocity":39,"Duration":216985,"SoundDuration":216985,"Delta":22411774},{"NoteNumber":73,"Velocity":45,"Duration":112437,"SoundDuration":112437,"Delta":22516322},{"NoteNumber":71,"Velocity":45,"Duration":110661,"SoundDuration":110661,"Delta":22616430},{"NoteNumber":67,"Velocity":31,"Duration":208716,"SoundDuration":208716,"Delta":22616430},{"NoteNumber":72,"Velocity":45,"Duration":110324,"SoundDuration":110324,"Delta":22714822},{"NoteNumber":75,"Velocity":49,"Duration":107398,"SoundDuration":107398,"Delta":22813214},{"NoteNumber":60,"Velocity":30,"Duration":193769,"SoundDuration":193769,"Delta":22813214},{"NoteNumber":73,"Velocity":46,"Duration":98304,"SoundDuration":98304,"Delta":22908679},{"NoteNumber":72,"Velocity":55,"Duration":110779,"SoundDuration":110779,"Delta":23006984},{"NoteNumber":58,"Velocity":40,"Duration":208540,"SoundDuration":208540,"Delta":23006984},{"NoteNumber":73,"Velocity":48,"Duration":110029,"SoundDuration":110029,"Delta":23105494},{"NoteNumber":71,"Velocity":48,"Duration":109453,"SoundDuration":109453,"Delta":23203311},{"NoteNumber":67,"Velocity":35,"Duration":205966,"SoundDuration":205966,"Delta":23203311},{"NoteNumber":72,"Velocity":48,"Duration":108611,"SoundDuration":108611,"Delta":23300666},{"NoteNumber":78,"Velocity":51,"Duration":107488,"SoundDuration":107488,"Delta":23397453},{"NoteNumber":60,"Velocity":30,"Duration":195084,"SoundDuration":195084,"Delta":23397453},{"NoteNumber":79,"Velocity":48,"Duration":100161,"SoundDuration":100161,"Delta":23492375},{"NoteNumber":72,"Velocity":57,"Duration":109223,"SoundDuration":109223,"Delta":23592537},{"NoteNumber":53,"Velocity":42,"Duration":205457,"SoundDuration":205457,"Delta":23592537},{"NoteNumber":73,"Velocity":51,"Duration":108331,"SoundDuration":108331,"Delta":23689663},{"NoteNumber":71,"Velocity":47,"Duration":107558,"SoundDuration":107558,"Delta":23786007},{"NoteNumber":68,"Velocity":37,"Duration":202261,"SoundDuration":202261,"Delta":23786007},{"NoteNumber":72,"Velocity":49,"Duration":106581,"SoundDuration":106581,"Delta":23881688},{"NoteNumber":75,"Velocity":52,"Duration":106208,"SoundDuration":106208,"Delta":23976497},{"NoteNumber":60,"Velocity":34,"Duration":190472,"SoundDuration":190472,"Delta":23976497},{"NoteNumber":73,"Velocity":49,"Duration":96301,"SoundDuration":96301,"Delta":24070668},{"NoteNumber":72,"Velocity":58,"Duration":104993,"SoundDuration":104993,"Delta":24166970},{"NoteNumber":56,"Velocity":46,"Duration":198320,"SoundDuration":198320,"Delta":24166970},{"NoteNumber":73,"Velocity":49,"Duration":104993,"SoundDuration":104993,"Delta":24260297},{"NoteNumber":71,"Velocity":50,"Duration":104993,"SoundDuration":104993,"Delta":24353625},{"NoteNumber":68,"Velocity":38,"Duration":198320,"SoundDuration":198320,"Delta":24353625},{"NoteNumber":72,"Velocity":50,"Duration":104993,"SoundDuration":104993,"Delta":24446952},{"NoteNumber":80,"Velocity":53,"Duration":105596,"SoundDuration":105596,"Delta":24540279},{"NoteNumber":60,"Velocity":36,"Duration":191481,"SoundDuration":191481,"Delta":24540279},{"NoteNumber":77,"Velocity":49,"Duration":98154,"SoundDuration":98154,"Delta":24633606},{"NoteNumber":76,"Velocity":60,"Duration":104788,"SoundDuration":104788,"Delta":24731761},{"NoteNumber":55,"Velocity":48,"Duration":198115,"SoundDuration":198115,"Delta":24731761},{"NoteNumber":77,"Velocity":53,"Duration":104993,"SoundDuration":104993,"Delta":24824883},{"NoteNumber":76,"Velocity":55,"Duration":104532,"SoundDuration":104532,"Delta":24918210},{"NoteNumber":70,"Velocity":39,"Duration":197759,"SoundDuration":197759,"Delta":24918210},{"NoteNumber":75,"Velocity":56,"Duration":104842,"SoundDuration":104842,"Delta":25011127},{"NoteNumber":76,"Velocity":57,"Duration":106283,"SoundDuration":106283,"Delta":25104251},{"NoteNumber":64,"Velocity":36,"Duration":191774,"SoundDuration":191774,"Delta":25104251},{"NoteNumber":79,"Velocity":60,"Duration":97704,"SoundDuration":97704,"Delta":25198321},{"NoteNumber":82,"Velocity":68,"Duration":115528,"SoundDuration":115528,"Delta":25296025},{"NoteNumber":61,"Velocity":49,"Duration":207634,"SoundDuration":207634,"Delta":25296025},{"NoteNumber":84,"Velocity":60,"Duration":103619,"SoundDuration":103619,"Delta":25400040},{"NoteNumber":82,"Velocity":61,"Duration":103619,"SoundDuration":103619,"Delta":25492146},{"NoteNumber":70,"Velocity":44,"Duration":195726,"SoundDuration":195726,"Delta":25492146},{"NoteNumber":81,"Velocity":63,"Duration":103619,"SoundDuration":103619,"Delta":25584253},{"NoteNumber":82,"Velocity":62,"Duration":104454,"SoundDuration":104454,"Delta":25676359},{"NoteNumber":64,"Velocity":39,"Duration":190891,"SoundDuration":190891,"Delta":25676359},{"NoteNumber":85,"Velocity":66,"Duration":98784,"SoundDuration":98784,"Delta":25768466},{"NoteNumber":84,"Velocity":70,"Duration":126647,"SoundDuration":126647,"Delta":25867251},{"NoteNumber":56,"Velocity":55,"Duration":220818,"SoundDuration":220818,"Delta":25867251},{"NoteNumber":85,"Velocity":61,"Duration":105942,"SoundDuration":105942,"Delta":25982127},{"NoteNumber":84,"Velocity":61,"Duration":105942,"SoundDuration":105942,"Delta":26076298},{"NoteNumber":68,"Velocity":45,"Duration":200113,"SoundDuration":200113,"Delta":26076298},{"NoteNumber":83,"Velocity":61,"Duration":105942,"SoundDuration":105942,"Delta":26170469},{"NoteNumber":84,"Velocity":62,"Duration":106555,"SoundDuration":106555,"Delta":26264640},{"NoteNumber":65,"Velocity":44,"Duration":193249,"SoundDuration":193249,"Delta":26264640},{"NoteNumber":79,"Velocity":60,"Duration":99078,"SoundDuration":99078,"Delta":26358811},{"NoteNumber":80,"Velocity":63,"Duration":107882,"SoundDuration":107882,"Delta":26457889},{"NoteNumber":60,"Velocity":50,"Duration":203778,"SoundDuration":203778,"Delta":26457889},{"NoteNumber":82,"Velocity":56,"Duration":107882,"SoundDuration":107882,"Delta":26553785},{"NoteNumber":80,"Velocity":56,"Duration":107882,"SoundDuration":107882,"Delta":26649680},{"NoteNumber":68,"Velocity":40,"Duration":203778,"SoundDuration":203778,"Delta":26649680},{"NoteNumber":79,"Velocity":56,"Duration":107882,"SoundDuration":107882,"Delta":26745576},{"NoteNumber":80,"Velocity":57,"Duration":107882,"SoundDuration":107882,"Delta":26841472},{"NoteNumber":65,"Velocity":40,"Duration":191791,"SoundDuration":191791,"Delta":26841472},{"NoteNumber":76,"Velocity":52,"Duration":95895,"SoundDuration":95895,"Delta":26937367},{"NoteNumber":77,"Velocity":59,"Duration":108662,"SoundDuration":108662,"Delta":27033263},{"NoteNumber":46,"Velocity":48,"Duration":205174,"SoundDuration":205174,"Delta":27033263},{"NoteNumber":79,"Velocity":51,"Duration":108611,"SoundDuration":108611,"Delta":27129827},{"NoteNumber":77,"Velocity":51,"Duration":108108,"SoundDuration":108108,"Delta":27226395},{"NoteNumber":61,"Velocity":36,"Duration":203843,"SoundDuration":203843,"Delta":27226395},{"NoteNumber":76,"Velocity":52,"Duration":107721,"SoundDuration":107721,"Delta":27322516},{"NoteNumber":77,"Velocity":55,"Duration":107231,"SoundDuration":107231,"Delta":27418305},{"NoteNumber":55,"Velocity":36,"Duration":190269,"SoundDuration":190269,"Delta":27418305},{"NoteNumber":72,"Velocity":50,"Duration":94915,"SoundDuration":94915,"Delta":27513659},{"NoteNumber":73,"Velocity":56,"Duration":106687,"SoundDuration":106687,"Delta":27608574},{"NoteNumber":53,"Velocity":48,"Duration":202150,"SoundDuration":202150,"Delta":27608574},{"NoteNumber":75,"Velocity":51,"Duration":107341,"SoundDuration":107341,"Delta":27703384},{"NoteNumber":73,"Velocity":51,"Duration":108052,"SoundDuration":108052,"Delta":27798738},{"NoteNumber":61,"Velocity":36,"Duration":204674,"SoundDuration":204674,"Delta":27798738},{"NoteNumber":72,"Velocity":51,"Duration":108665,"SoundDuration":108665,"Delta":27894747},{"NoteNumber":73,"Velocity":55,"Duration":109570,"SoundDuration":109570,"Delta":27991314},{"NoteNumber":55,"Velocity":36,"Duration":196687,"SoundDuration":196687,"Delta":27991314},{"NoteNumber":71,"Velocity":51,"Duration":99561,"SoundDuration":99561,"Delta":28088440},{"NoteNumber":72,"Velocity":58,"Duration":108391,"SoundDuration":108391,"Delta":28188002},{"NoteNumber":48,"Velocity":48,"Duration":204344,"SoundDuration":204344,"Delta":28188002},{"NoteNumber":73,"Velocity":52,"Duration":107995,"SoundDuration":107995,"Delta":28284350},{"NoteNumber":72,"Velocity":48,"Duration":107613,"SoundDuration":107613,"Delta":28380359},{"NoteNumber":60,"Velocity":39,"Duration":202912,"SoundDuration":202912,"Delta":28380359},{"NoteNumber":71,"Velocity":48,"Duration":107231,"SoundDuration":107231,"Delta":28476039},{"NoteNumber":72,"Velocity":55,"Duration":106845,"SoundDuration":106845,"Delta":28571394},{"NoteNumber":56,"Velocity":39,"Duration":189619,"SoundDuration":189619,"Delta":28571394},{"NoteNumber":67,"Velocity":50,"Duration":94598,"SoundDuration":94598,"Delta":28666415},{"NoteNumber":68,"Velocity":57,"Duration":105942,"SoundDuration":105942,"Delta":28761013},{"NoteNumber":53,"Velocity":48,"Duration":200113,"SoundDuration":200113,"Delta":28761013},{"NoteNumber":70,"Velocity":49,"Duration":105942,"SoundDuration":105942,"Delta":28855184},{"NoteNumber":68,"Velocity":48,"Duration":105942,"SoundDuration":105942,"Delta":28949355},{"NoteNumber":60,"Velocity":39,"Duration":200113,"SoundDuration":200113,"Delta":28949355},{"NoteNumber":67,"Velocity":46,"Duration":105942,"SoundDuration":105942,"Delta":29043526},{"NoteNumber":68,"Velocity":55,"Duration":106440,"SoundDuration":106440,"Delta":29137696},{"NoteNumber":56,"Velocity":39,"Duration":192325,"SoundDuration":192325,"Delta":29137696},{"NoteNumber":65,"Velocity":46,"Duration":98154,"SoundDuration":98154,"Delta":29231867},{"NoteNumber":64,"Velocity":60,"Duration":106581,"SoundDuration":106581,"Delta":29330022},{"NoteNumber":48,"Velocity":48,"Duration":200438,"SoundDuration":200438,"Delta":29330022},{"NoteNumber":67,"Velocity":55,"Duration":105629,"SoundDuration":105629,"Delta":29424832},{"NoteNumber":70,"Velocity":56,"Duration":104636,"SoundDuration":104636,"Delta":29518795},{"NoteNumber":64,"Velocity":39,"Duration":197555,"SoundDuration":197555,"Delta":29518795},{"NoteNumber":73,"Velocity":58,"Duration":104534,"SoundDuration":104534,"Delta":29611816},{"NoteNumber":76,"Velocity":60,"Duration":105364,"SoundDuration":105364,"Delta":29704736},{"NoteNumber":60,"Velocity":40,"Duration":192481,"SoundDuration":192481,"Delta":29704736},{"NoteNumber":79,"Velocity":61,"Duration":99561,"SoundDuration":99561,"Delta":29797655},{"NoteNumber":82,"Velocity":70,"Duration":120406,"SoundDuration":120406,"Delta":29897217},{"NoteNumber":55,"Velocity":49,"Duration":220621,"SoundDuration":220621,"Delta":29897217},{"NoteNumber":85,"Velocity":60,"Duration":112838,"SoundDuration":112838,"Delta":30005000},{"NoteNumber":84,"Velocity":61,"Duration":111356,"SoundDuration":111356,"Delta":30105393},{"NoteNumber":64,"Velocity":44,"Duration":209054,"SoundDuration":209054,"Delta":30105393},{"NoteNumber":82,"Velocity":62,"Duration":109967,"SoundDuration":109967,"Delta":30204480},{"NoteNumber":80,"Velocity":61,"Duration":109505,"SoundDuration":109505,"Delta":30302293},{"NoteNumber":58,"Velocity":45,"Duration":200076,"SoundDuration":200076,"Delta":30302293},{"NoteNumber":79,"Velocity":62,"Duration":103508,"SoundDuration":103508,"Delta":30398861},{"NoteNumber":82,"Velocity":70,"Duration":115663,"SoundDuration":115663,"Delta":30502370},{"NoteNumber":53,"Velocity":55,"Duration":213076,"SoundDuration":213076,"Delta":30502370},{"NoteNumber":84,"Velocity":67,"Duration":109567,"SoundDuration":109567,"Delta":30605879},{"NoteNumber":80,"Velocity":63,"Duration":110198,"SoundDuration":110198,"Delta":30703233},{"NoteNumber":65,"Velocity":42,"Duration":208936,"SoundDuration":208936,"Delta":30703233},{"NoteNumber":79,"Velocity":63,"Duration":111007,"SoundDuration":111007,"Delta":30801163},{"NoteNumber":80,"Velocity":59,"Duration":111765,"SoundDuration":111765,"Delta":30899786},{"NoteNumber":60,"Velocity":35,"Duration":199356,"SoundDuration":199356,"Delta":30899786},{"NoteNumber":77,"Velocity":53,"Duration":100036,"SoundDuration":100036,"Delta":30999106},{"NoteNumber":76,"Velocity":61,"Duration":112718,"SoundDuration":112718,"Delta":31099142},{"NoteNumber":56,"Velocity":41,"Duration":213533,"SoundDuration":213533,"Delta":31099142},{"NoteNumber":79,"Velocity":49,"Duration":113379,"SoundDuration":113379,"Delta":31199295},{"NoteNumber":77,"Velocity":48,"Duration":114239,"SoundDuration":114239,"Delta":31300051},{"NoteNumber":65,"Velocity":35,"Duration":216548,"SoundDuration":216548,"Delta":31300051},{"NoteNumber":76,"Velocity":48,"Duration":115057,"SoundDuration":115057,"Delta":31401542},{"NoteNumber":77,"Velocity":48,"Duration":116134,"SoundDuration":116134,"Delta":31503787},{"NoteNumber":61,"Velocity":30,"Duration":208065,"SoundDuration":208065,"Delta":31503787},{"NoteNumber":73,"Velocity":45,"Duration":105064,"SoundDuration":105064,"Delta":31606788},{"NoteNumber":72,"Velocity":53,"Duration":115249,"SoundDuration":115249,"Delta":31711852},{"NoteNumber":52,"Velocity":39,"Duration":217176,"SoundDuration":217176,"Delta":31711852},{"NoteNumber":73,"Velocity":44,"Duration":114675,"SoundDuration":114675,"Delta":31814353},{"NoteNumber":71,"Velocity":44,"Duration":114115,"SoundDuration":114115,"Delta":31916342},{"NoteNumber":67,"Velocity":31,"Duration":214468,"SoundDuration":214468,"Delta":31916342},{"NoteNumber":72,"Velocity":44,"Duration":112976,"SoundDuration":112976,"Delta":32017834},{"NoteNumber":75,"Velocity":49,"Duration":108399,"SoundDuration":108399,"Delta":32118824},{"NoteNumber":60,"Velocity":28,"Duration":195925,"SoundDuration":195925,"Delta":32118824},{"NoteNumber":73,"Velocity":45,"Duration":100029,"SoundDuration":100029,"Delta":32214719},{"NoteNumber":72,"Velocity":55,"Duration":111946,"SoundDuration":111946,"Delta":32314749},{"NoteNumber":58,"Velocity":39,"Duration":210856,"SoundDuration":210856,"Delta":32314749},{"NoteNumber":73,"Velocity":46,"Duration":111294,"SoundDuration":111294,"Delta":32414311},{"NoteNumber":71,"Velocity":46,"Duration":110661,"SoundDuration":110661,"Delta":32513277},{"NoteNumber":67,"Velocity":34,"Duration":208086,"SoundDuration":208086,"Delta":32513277},{"NoteNumber":72,"Velocity":46,"Duration":109694,"SoundDuration":109694,"Delta":32611669},{"NoteNumber":78,"Velocity":51,"Duration":108210,"SoundDuration":108210,"Delta":32709486},{"NoteNumber":60,"Velocity":30,"Duration":197451,"SoundDuration":197451,"Delta":32709486},{"NoteNumber":79,"Velocity":46,"Duration":101988,"SoundDuration":101988,"Delta":32804948},{"NoteNumber":72,"Velocity":57,"Duration":109336,"SoundDuration":109336,"Delta":32906937},{"NoteNumber":53,"Velocity":45,"Duration":205959,"SoundDuration":205959,"Delta":32906937},{"NoteNumber":73,"Velocity":46,"Duration":108720,"SoundDuration":108720,"Delta":33004175},{"NoteNumber":71,"Velocity":46,"Duration":108108,"SoundDuration":108108,"Delta":33100853},{"NoteNumber":68,"Velocity":36,"Duration":203572,"SoundDuration":203572,"Delta":33100853},{"NoteNumber":72,"Velocity":47,"Duration":107450,"SoundDuration":107450,"Delta":33196975},{"NoteNumber":75,"Velocity":52,"Duration":106953,"SoundDuration":106953,"Delta":33292547},{"NoteNumber":60,"Velocity":29,"Duration":191217,"SoundDuration":191217,"Delta":33292547},{"NoteNumber":73,"Velocity":47,"Duration":96302,"SoundDuration":96302,"Delta":33387463},{"NoteNumber":72,"Velocity":53,"Duration":106951,"SoundDuration":106951,"Delta":33483765},{"NoteNumber":56,"Velocity":46,"Duration":199458,"SoundDuration":199458,"Delta":33483765},{"NoteNumber":73,"Velocity":48,"Duration":104070,"SoundDuration":104070,"Delta":33579153},{"NoteNumber":71,"Velocity":49,"Duration":104070,"SoundDuration":104070,"Delta":33671660},{"NoteNumber":68,"Velocity":38,"Duration":196577,"SoundDuration":196577,"Delta":33671660},{"NoteNumber":72,"Velocity":49,"Duration":104070,"SoundDuration":104070,"Delta":33764167},{"NoteNumber":80,"Velocity":53,"Duration":104776,"SoundDuration":104776,"Delta":33856674},{"NoteNumber":60,"Velocity":34,"Duration":190661,"SoundDuration":190661,"Delta":33856674},{"NoteNumber":77,"Velocity":50,"Duration":98154,"SoundDuration":98154,"Delta":33949181},{"NoteNumber":75,"Velocity":60,"Duration":104070,"SoundDuration":104070,"Delta":34047335},{"NoteNumber":55,"Velocity":48,"Duration":196577,"SoundDuration":196577,"Delta":34047335},{"NoteNumber":77,"Velocity":53,"Duration":104070,"SoundDuration":104070,"Delta":34139842},{"NoteNumber":75,"Velocity":56,"Duration":103870,"SoundDuration":103870,"Delta":34232349},{"NoteNumber":70,"Velocity":39,"Duration":196890,"SoundDuration":196890,"Delta":34232349},{"NoteNumber":74,"Velocity":57,"Duration":104584,"SoundDuration":104584,"Delta":34324656},{"NoteNumber":75,"Velocity":60,"Duration":105965,"SoundDuration":105965,"Delta":34417574},{"NoteNumber":63,"Velocity":42,"Duration":191456,"SoundDuration":191456,"Delta":34417574},{"NoteNumber":79,"Velocity":62,"Duration":97704,"SoundDuration":97704,"Delta":34511327},{"NoteNumber":82,"Velocity":70,"Duration":106534,"SoundDuration":106534,"Delta":34609031},{"NoteNumber":61,"Velocity":51,"Duration":198588,"SoundDuration":198588,"Delta":34609031},{"NoteNumber":84,"Velocity":62,"Duration":103568,"SoundDuration":103568,"Delta":34704052},{"NoteNumber":82,"Velocity":64,"Duration":103006,"SoundDuration":103006,"Delta":34796158},{"NoteNumber":70,"Velocity":46,"Duration":194153,"SoundDuration":194153,"Delta":34796158},{"NoteNumber":81,"Velocity":66,"Duration":102559,"SoundDuration":102559,"Delta":34887752},{"NoteNumber":82,"Velocity":64,"Duration":103051,"SoundDuration":103051,"Delta":34978950},{"NoteNumber":63,"Velocity":45,"Duration":189488,"SoundDuration":189488,"Delta":34978950},{"NoteNumber":89,"Velocity":66,"Duration":98784,"SoundDuration":98784,"Delta":35069653},{"NoteNumber":87,"Velocity":82,"Duration":129225,"SoundDuration":129225,"Delta":35168438},{"NoteNumber":56,"Velocity":59,"Duration":223395,"SoundDuration":223395,"Delta":35168438},{"NoteNumber":89,"Velocity":70,"Duration":105942,"SoundDuration":105942,"Delta":35285892},{"NoteNumber":87,"Velocity":70,"Duration":105942,"SoundDuration":105942,"Delta":35380063},{"NoteNumber":68,"Velocity":48,"Duration":200113,"SoundDuration":200113,"Delta":35380063},{"NoteNumber":86,"Velocity":70,"Duration":105942,"SoundDuration":105942,"Delta":35474234},{"NoteNumber":87,"Velocity":66,"Duration":106555,"SoundDuration":106555,"Delta":35568404},{"NoteNumber":63,"Velocity":48,"Duration":193249,"SoundDuration":193249,"Delta":35568404},{"NoteNumber":83,"Velocity":64,"Duration":99078,"SoundDuration":99078,"Delta":35662575},{"NoteNumber":84,"Velocity":69,"Duration":110084,"SoundDuration":110084,"Delta":35761654},{"NoteNumber":60,"Velocity":56,"Duration":206985,"SoundDuration":206985,"Delta":35761654},{"NoteNumber":85,"Velocity":61,"Duration":109056,"SoundDuration":109056,"Delta":35859583},{"NoteNumber":84,"Velocity":61,"Duration":108391,"SoundDuration":108391,"Delta":35956596},{"NoteNumber":68,"Velocity":45,"Duration":204740,"SoundDuration":204740,"Delta":35956596},{"NoteNumber":83,"Velocity":61,"Duration":108391,"SoundDuration":108391,"Delta":36052944},{"NoteNumber":84,"Velocity":61,"Duration":108391,"SoundDuration":108391,"Delta":36149292},{"NoteNumber":63,"Velocity":45,"Duration":192696,"SoundDuration":192696,"Delta":36149292},{"NoteNumber":79,"Velocity":60,"Duration":96348,"SoundDuration":96348,"Delta":36245641},{"NoteNumber":80,"Velocity":66,"Duration":122981,"SoundDuration":122981,"Delta":36341989},{"NoteNumber":49,"Velocity":51,"Duration":218284,"SoundDuration":218284,"Delta":36341989},{"NoteNumber":82,"Velocity":56,"Duration":107074,"SoundDuration":107074,"Delta":36453199},{"NoteNumber":80,"Velocity":56,"Duration":107398,"SoundDuration":107398,"Delta":36548341},{"NoteNumber":65,"Velocity":42,"Duration":202863,"SoundDuration":202863,"Delta":36548341},{"NoteNumber":79,"Velocity":56,"Duration":107398,"SoundDuration":107398,"Delta":36643806},{"NoteNumber":80,"Velocity":58,"Duration":107850,"SoundDuration":107850,"Delta":36739271},{"NoteNumber":58,"Velocity":39,"Duration":194543,"SoundDuration":194543,"Delta":36739271},{"NoteNumber":76,"Velocity":57,"Duration":99078,"SoundDuration":99078,"Delta":36834737},{"NoteNumber":77,"Velocity":61,"Duration":107882,"SoundDuration":107882,"Delta":36933815},{"NoteNumber":56,"Velocity":48,"Duration":203778,"SoundDuration":203778,"Delta":36933815},{"NoteNumber":79,"Velocity":52,"Duration":107882,"SoundDuration":107882,"Delta":37029711},{"NoteNumber":77,"Velocity":52,"Duration":107667,"SoundDuration":107667,"Delta":37125607},{"NoteNumber":65,"Velocity":36,"Duration":204180,"SoundDuration":204180,"Delta":37125607},{"NoteNumber":76,"Velocity":52,"Duration":108499,"SoundDuration":108499,"Delta":37221287},{"NoteNumber":77,"Velocity":53,"Duration":109853,"SoundDuration":109853,"Delta":37317632},{"NoteNumber":58,"Velocity":36,"Duration":195415,"SoundDuration":195415,"Delta":37317632},{"NoteNumber":73,"Velocity":52,"Duration":97831,"SoundDuration":97831,"Delta":37415216},{"NoteNumber":72,"Velocity":60,"Duration":108499,"SoundDuration":108499,"Delta":37513048},{"NoteNumber":51,"Velocity":48,"Duration":204511,"SoundDuration":204511,"Delta":37513048},{"NoteNumber":73,"Velocity":55,"Duration":108055,"SoundDuration":108055,"Delta":37609504},{"NoteNumber":70,"Velocity":52,"Duration":107120,"SoundDuration":107120,"Delta":37705626},{"NoteNumber":63,"Velocity":39,"Duration":202141,"SoundDuration":202141,"Delta":37705626},{"NoteNumber":67,"Velocity":56,"Duration":106898,"SoundDuration":106898,"Delta":37800869},{"NoteNumber":68,"Velocity":57,"Duration":107233,"SoundDuration":107233,"Delta":37895890},{"NoteNumber":60,"Velocity":40,"Duration":192724,"SoundDuration":192724,"Delta":37895890},{"NoteNumber":70,"Velocity":57,"Duration":97704,"SoundDuration":97704,"Delta":37990911},{"NoteNumber":72,"Velocity":63,"Duration":107882,"SoundDuration":107882,"Delta":38088615},{"NoteNumber":56,"Velocity":49,"Duration":203778,"SoundDuration":203778,"Delta":38088615},{"NoteNumber":73,"Velocity":58,"Duration":107882,"SoundDuration":107882,"Delta":38184510},{"NoteNumber":75,"Velocity":60,"Duration":107882,"SoundDuration":107882,"Delta":38280406},{"NoteNumber":63,"Velocity":44,"Duration":203778,"SoundDuration":203778,"Delta":38280406},{"NoteNumber":77,"Velocity":61,"Duration":107882,"SoundDuration":107882,"Delta":38376302},{"NoteNumber":79,"Velocity":61,"Duration":108243,"SoundDuration":108243,"Delta":38472197},{"NoteNumber":60,"Velocity":45,"Duration":194680,"SoundDuration":194680,"Delta":38472197},{"NoteNumber":80,"Velocity":61,"Duration":98784,"SoundDuration":98784,"Delta":38568093},{"NoteNumber":79,"Velocity":68,"Duration":106369,"SoundDuration":106369,"Delta":38666878},{"NoteNumber":51,"Velocity":55,"Duration":200540,"SoundDuration":200540,"Delta":38666878},{"NoteNumber":80,"Velocity":58,"Duration":105942,"SoundDuration":105942,"Delta":38761477},{"NoteNumber":77,"Velocity":58,"Duration":105942,"SoundDuration":105942,"Delta":38855647},{"NoteNumber":63,"Velocity":45,"Duration":200113,"SoundDuration":200113,"Delta":38855647},{"NoteNumber":75,"Velocity":58,"Duration":105942,"SoundDuration":105942,"Delta":38949818},{"NoteNumber":77,"Velocity":61,"Duration":106555,"SoundDuration":106555,"Delta":39043989},{"NoteNumber":61,"Velocity":39,"Duration":193249,"SoundDuration":193249,"Delta":39043989},{"NoteNumber":73,"Velocity":60,"Duration":99078,"SoundDuration":99078,"Delta":39138160},{"NoteNumber":72,"Velocity":62,"Duration":107882,"SoundDuration":107882,"Delta":39237238},{"NoteNumber":55,"Velocity":50,"Duration":203778,"SoundDuration":203778,"Delta":39237238},{"NoteNumber":73,"Velocity":56,"Duration":107882,"SoundDuration":107882,"Delta":39333134},{"NoteNumber":70,"Velocity":53,"Duration":107882,"SoundDuration":107882,"Delta":39429030},{"NoteNumber":63,"Velocity":40,"Duration":203778,"SoundDuration":203778,"Delta":39429030},{"NoteNumber":72,"Velocity":53,"Duration":107882,"SoundDuration":107882,"Delta":39524925},{"NoteNumber":65,"Velocity":57,"Duration":107882,"SoundDuration":107882,"Delta":39620821},{"NoteNumber":61,"Velocity":38,"Duration":191791,"SoundDuration":191791,"Delta":39620821},{"NoteNumber":67,"Velocity":52,"Duration":95895,"SoundDuration":95895,"Delta":39716717},{"NoteNumber":68,"Velocity":60,"Duration":104993,"SoundDuration":104993,"Delta":39812612},{"NoteNumber":44,"Velocity":48,"Duration":198320,"SoundDuration":198320,"Delta":39812612},{"NoteNumber":70,"Velocity":51,"Duration":104993,"SoundDuration":104993,"Delta":39905940},{"NoteNumber":68,"Velocity":51,"Duration":104993,"SoundDuration":104993,"Delta":39999267},{"NoteNumber":60,"Velocity":39,"Duration":198320,"SoundDuration":198320,"Delta":39999267},{"NoteNumber":67,"Velocity":49,"Duration":104993,"SoundDuration":104993,"Delta":40092594},{"NoteNumber":68,"Velocity":51,"Duration":105711,"SoundDuration":105711,"Delta":40185921},{"NoteNumber":51,"Velocity":36,"Duration":192405,"SoundDuration":192405,"Delta":40185921},{"NoteNumber":69,"Velocity":53,"Duration":99078,"SoundDuration":99078,"Delta":40279248},{"NoteNumber":70,"Velocity":60,"Duration":108885,"SoundDuration":108885,"Delta":40378327},{"NoteNumber":52,"Velocity":53,"Duration":205671,"SoundDuration":205671,"Delta":40378327},{"NoteNumber":72,"Velocity":52,"Duration":108885,"SoundDuration":108885,"Delta":40475113},{"NoteNumber":70,"Velocity":52,"Duration":108885,"SoundDuration":108885,"Delta":40571900},{"NoteNumber":61,"Velocity":39,"Duration":205671,"SoundDuration":205671,"Delta":40571900},{"NoteNumber":72,"Velocity":51,"Duration":108885,"SoundDuration":108885,"Delta":40668687},{"NoteNumber":65,"Velocity":49,"Duration":109056,"SoundDuration":109056,"Delta":40765473},{"NoteNumber":51,"Velocity":35,"Duration":194941,"SoundDuration":194941,"Delta":40765473},{"NoteNumber":67,"Velocity":55,"Duration":98154,"SoundDuration":98154,"Delta":40862260},{"NoteNumber":68,"Velocity":60,"Duration":104993,"SoundDuration":104993,"Delta":40960415},{"NoteNumber":44,"Velocity":48,"Duration":198320,"SoundDuration":198320,"Delta":40960415},{"NoteNumber":70,"Velocity":55,"Duration":104993,"SoundDuration":104993,"Delta":41053742},{"NoteNumber":68,"Velocity":49,"Duration":104993,"SoundDuration":104993,"Delta":41147069},{"NoteNumber":60,"Velocity":39,"Duration":198320,"SoundDuration":198320,"Delta":41147069},{"NoteNumber":67,"Velocity":49,"Duration":104993,"SoundDuration":104993,"Delta":41240396},{"NoteNumber":68,"Velocity":51,"Duration":105711,"SoundDuration":105711,"Delta":41333723},{"NoteNumber":51,"Velocity":35,"Duration":192405,"SoundDuration":192405,"Delta":41333723},{"NoteNumber":69,"Velocity":55,"Duration":99078,"SoundDuration":99078,"Delta":41427051},{"NoteNumber":70,"Velocity":60,"Duration":108885,"SoundDuration":108885,"Delta":41526129},{"NoteNumber":52,"Velocity":50,"Duration":205671,"SoundDuration":205671,"Delta":41526129},{"NoteNumber":72,"Velocity":55,"Duration":108885,"SoundDuration":108885,"Delta":41622916},{"NoteNumber":70,"Velocity":55,"Duration":108885,"SoundDuration":108885,"Delta":41719702},{"NoteNumber":61,"Velocity":39,"Duration":205671,"SoundDuration":205671,"Delta":41719702},{"NoteNumber":72,"Velocity":51,"Duration":108885,"SoundDuration":108885,"Delta":41816489},{"NoteNumber":65,"Velocity":51,"Duration":109056,"SoundDuration":109056,"Delta":41913276},{"NoteNumber":51,"Velocity":36,"Duration":194941,"SoundDuration":194941,"Delta":41913276},{"NoteNumber":67,"Velocity":51,"Duration":98154,"SoundDuration":98154,"Delta":42010062},{"NoteNumber":68,"Velocity":60,"Duration":104993,"SoundDuration":104993,"Delta":42108217},{"NoteNumber":44,"Velocity":48,"Duration":198320,"SoundDuration":198320,"Delta":42108217},{"NoteNumber":70,"Velocity":55,"Duration":104993,"SoundDuration":104993,"Delta":42201544},{"NoteNumber":68,"Velocity":50,"Duration":104993,"SoundDuration":104993,"Delta":42294871},{"NoteNumber":60,"Velocity":39,"Duration":198320,"SoundDuration":198320,"Delta":42294871},{"NoteNumber":67,"Velocity":48,"Duration":104993,"SoundDuration":104993,"Delta":42388199},{"NoteNumber":68,"Velocity":51,"Duration":105711,"SoundDuration":105711,"Delta":42481526},{"NoteNumber":51,"Velocity":34,"Duration":192405,"SoundDuration":192405,"Delta":42481526},{"NoteNumber":70,"Velocity":55,"Duration":99078,"SoundDuration":99078,"Delta":42574853},{"NoteNumber":72,"Velocity":67,"Duration":96126,"SoundDuration":96126,"Delta":42673931},{"NoteNumber":42,"Velocity":51,"Duration":204517,"SoundDuration":204517,"Delta":42673931},{"NoteNumber":73,"Velocity":61,"Duration":96348,"SoundDuration":96348,"Delta":42770057},{"NoteNumber":72,"Velocity":55,"Duration":96348,"SoundDuration":96348,"Delta":42866406},{"NoteNumber":63,"Velocity":39,"Duration":204740,"SoundDuration":204740,"Delta":42866406},{"NoteNumber":71,"Velocity":55,"Duration":96348,"SoundDuration":96348,"Delta":42962754},{"NoteNumber":72,"Velocity":62,"Duration":96348,"SoundDuration":96348,"Delta":43059102},{"NoteNumber":58,"Velocity":35,"Duration":194503,"SoundDuration":194503,"Delta":43059102},{"NoteNumber":73,"Velocity":55,"Duration":98154,"SoundDuration":98154,"Delta":43155451},{"NoteNumber":75,"Velocity":64,"Duration":104993,"SoundDuration":104993,"Delta":43253605},{"NoteNumber":54,"Velocity":58,"Duration":198320,"SoundDuration":198320,"Delta":43253605},{"NoteNumber":77,"Velocity":61,"Duration":104993,"SoundDuration":104993,"Delta":43346933},{"NoteNumber":75,"Velocity":61,"Duration":104993,"SoundDuration":104993,"Delta":43440260},{"NoteNumber":63,"Velocity":49,"Duration":198320,"SoundDuration":198320,"Delta":43440260},{"NoteNumber":77,"Velocity":66,"Duration":104993,"SoundDuration":104993,"Delta":43533587},{"NoteNumber":75,"Velocity":61,"Duration":105711,"SoundDuration":105711,"Delta":43626914},{"NoteNumber":58,"Velocity":45,"Duration":192405,"SoundDuration":192405,"Delta":43626914},{"NoteNumber":73,"Velocity":61,"Duration":99078,"SoundDuration":99078,"Delta":43720241},{"NoteNumber":72,"Velocity":62,"Duration":96567,"SoundDuration":96567,"Delta":43819320},{"NoteNumber":53,"Velocity":51,"Duration":205399,"SoundDuration":205399,"Delta":43819320},{"NoteNumber":73,"Velocity":61,"Duration":96677,"SoundDuration":96677,"Delta":43915887},{"NoteNumber":72,"Velocity":60,"Duration":97471,"SoundDuration":97471,"Delta":44012564},{"NoteNumber":63,"Velocity":39,"Duration":207841,"SoundDuration":207841,"Delta":44012564},{"NoteNumber":73,"Velocity":58,"Duration":98042,"SoundDuration":98042,"Delta":44110036},{"NoteNumber":67,"Velocity":57,"Duration":98853,"SoundDuration":98853,"Delta":44208078},{"NoteNumber":57,"Velocity":36,"Duration":197008,"SoundDuration":197008,"Delta":44208078},{"NoteNumber":69,"Velocity":52,"Duration":98154,"SoundDuration":98154,"Delta":44306931},{"NoteNumber":70,"Velocity":68,"Duration":104993,"SoundDuration":104993,"Delta":44405086},{"NoteNumber":46,"Velocity":55,"Duration":198320,"SoundDuration":198320,"Delta":44405086},{"NoteNumber":72,"Velocity":57,"Duration":104993,"SoundDuration":104993,"Delta":44498413},{"NoteNumber":70,"Velocity":57,"Duration":104993,"SoundDuration":104993,"Delta":44591740},{"NoteNumber":61,"Velocity":45,"Duration":198320,"SoundDuration":198320,"Delta":44591740},{"NoteNumber":69,"Velocity":55,"Duration":104993,"SoundDuration":104993,"Delta":44685067},{"NoteNumber":70,"Velocity":57,"Duration":105711,"SoundDuration":105711,"Delta":44778395},{"NoteNumber":53,"Velocity":39,"Duration":192405,"SoundDuration":192405,"Delta":44778395},{"NoteNumber":71,"Velocity":60,"Duration":99078,"SoundDuration":99078,"Delta":44871722},{"NoteNumber":72,"Velocity":68,"Duration":108885,"SoundDuration":108885,"Delta":44970800},{"NoteNumber":54,"Velocity":55,"Duration":205671,"SoundDuration":205671,"Delta":44970800},{"NoteNumber":73,"Velocity":60,"Duration":108885,"SoundDuration":108885,"Delta":45067587},{"NoteNumber":72,"Velocity":60,"Duration":108885,"SoundDuration":108885,"Delta":45164374},{"NoteNumber":63,"Velocity":46,"Duration":205671,"SoundDuration":205671,"Delta":45164374},{"NoteNumber":73,"Velocity":58,"Duration":108885,"SoundDuration":108885,"Delta":45261160},{"NoteNumber":67,"Velocity":56,"Duration":109056,"SoundDuration":109056,"Delta":45357947},{"NoteNumber":53,"Velocity":39,"Duration":194941,"SoundDuration":194941,"Delta":45357947},{"NoteNumber":69,"Velocity":62,"Duration":98154,"SoundDuration":98154,"Delta":45454734},{"NoteNumber":70,"Velocity":68,"Duration":104993,"SoundDuration":104993,"Delta":45552888},{"NoteNumber":46,"Velocity":55,"Duration":198320,"SoundDuration":198320,"Delta":45552888},{"NoteNumber":72,"Velocity":58,"Duration":104993,"SoundDuration":104993,"Delta":45646215},{"NoteNumber":70,"Velocity":58,"Duration":104993,"SoundDuration":104993,"Delta":45739543},{"NoteNumber":61,"Velocity":46,"Duration":198320,"SoundDuration":198320,"Delta":45739543},{"NoteNumber":69,"Velocity":56,"Duration":104993,"SoundDuration":104993,"Delta":45832870},{"NoteNumber":70,"Velocity":58,"Duration":105711,"SoundDuration":105711,"Delta":45926197},{"NoteNumber":53,"Velocity":39,"Duration":192405,"SoundDuration":192405,"Delta":45926197},{"NoteNumber":71,"Velocity":61,"Duration":99078,"SoundDuration":99078,"Delta":46019524},{"NoteNumber":72,"Velocity":69,"Duration":108885,"SoundDuration":108885,"Delta":46118603},{"NoteNumber":54,"Velocity":56,"Duration":205671,"SoundDuration":205671,"Delta":46118603},{"NoteNumber":73,"Velocity":60,"Duration":108885,"SoundDuration":108885,"Delta":46215389},{"NoteNumber":72,"Velocity":60,"Duration":108885,"SoundDuration":108885,"Delta":46312176},{"NoteNumber":63,"Velocity":46,"Duration":205671,"SoundDuration":205671,"Delta":46312176},{"NoteNumber":73,"Velocity":58,"Duration":108885,"SoundDuration":108885,"Delta":46408963},{"NoteNumber":67,"Velocity":56,"Duration":109056,"SoundDuration":109056,"Delta":46505749},{"NoteNumber":53,"Velocity":39,"Duration":194941,"SoundDuration":194941,"Delta":46505749},{"NoteNumber":69,"Velocity":63,"Duration":98154,"SoundDuration":98154,"Delta":46602536},{"NoteNumber":70,"Velocity":69,"Duration":104993,"SoundDuration":104993,"Delta":46700691},{"NoteNumber":46,"Velocity":56,"Duration":198320,"SoundDuration":198320,"Delta":46700691},{"NoteNumber":72,"Velocity":60,"Duration":104993,"SoundDuration":104993,"Delta":46794018},{"NoteNumber":70,"Velocity":60,"Duration":104993,"SoundDuration":104993,"Delta":46887345},{"NoteNumber":61,"Velocity":47,"Duration":198320,"SoundDuration":198320,"Delta":46887345},{"NoteNumber":69,"Velocity":58,"Duration":104993,"SoundDuration":104993,"Delta":46980672},{"NoteNumber":70,"Velocity":62,"Duration":105711,"SoundDuration":105711,"Delta":47073999},{"NoteNumber":53,"Velocity":44,"Duration":192405,"SoundDuration":192405,"Delta":47073999},{"NoteNumber":72,"Velocity":64,"Duration":99078,"SoundDuration":99078,"Delta":47167326},{"NoteNumber":74,"Velocity":74,"Duration":106423,"SoundDuration":106423,"Delta":47266405},{"NoteNumber":44,"Velocity":67,"Duration":201021,"SoundDuration":201021,"Delta":47266405},{"NoteNumber":75,"Velocity":64,"Duration":106423,"SoundDuration":106423,"Delta":47361003},{"NoteNumber":74,"Velocity":67,"Duration":106423,"SoundDuration":106423,"Delta":47455602},{"NoteNumber":60,"Velocity":50,"Duration":201021,"SoundDuration":201021,"Delta":47455602},{"NoteNumber":73,"Velocity":67,"Duration":106423,"SoundDuration":106423,"Delta":47550200},{"NoteNumber":74,"Velocity":64,"Duration":106867,"SoundDuration":106867,"Delta":47644799},{"NoteNumber":53,"Velocity":45,"Duration":192753,"SoundDuration":192753,"Delta":47644799},{"NoteNumber":75,"Velocity":73,"Duration":98154,"SoundDuration":98154,"Delta":47739397},{"NoteNumber":77,"Velocity":81,"Duration":104993,"SoundDuration":104993,"Delta":47837552},{"NoteNumber":50,"Velocity":66,"Duration":198320,"SoundDuration":198320,"Delta":47837552},{"NoteNumber":79,"Velocity":69,"Duration":104993,"SoundDuration":104993,"Delta":47930879},{"NoteNumber":77,"Velocity":68,"Duration":104993,"SoundDuration":104993,"Delta":48024206},{"NoteNumber":60,"Velocity":53,"Duration":198320,"SoundDuration":198320,"Delta":48024206},{"NoteNumber":79,"Velocity":64,"Duration":104993,"SoundDuration":104993,"Delta":48117534},{"NoteNumber":77,"Velocity":67,"Duration":105711,"SoundDuration":105711,"Delta":48210861},{"NoteNumber":53,"Velocity":47,"Duration":192405,"SoundDuration":192405,"Delta":48210861},{"NoteNumber":75,"Velocity":69,"Duration":99078,"SoundDuration":99078,"Delta":48304188},{"NoteNumber":74,"Velocity":78,"Duration":108885,"SoundDuration":108885,"Delta":48403266},{"NoteNumber":43,"Velocity":66,"Duration":205671,"SoundDuration":205671,"Delta":48403266},{"NoteNumber":75,"Velocity":67,"Duration":108885,"SoundDuration":108885,"Delta":48500053},{"NoteNumber":74,"Velocity":67,"Duration":108885,"SoundDuration":108885,"Delta":48596840},{"NoteNumber":59,"Velocity":50,"Duration":205671,"SoundDuration":205671,"Delta":48596840},{"NoteNumber":75,"Velocity":64,"Duration":108885,"SoundDuration":108885,"Delta":48693626},{"NoteNumber":69,"Velocity":62,"Duration":109056,"SoundDuration":109056,"Delta":48790413},{"NoteNumber":53,"Velocity":42,"Duration":194941,"SoundDuration":194941,"Delta":48790413},{"NoteNumber":71,"Velocity":68,"Duration":98154,"SoundDuration":98154,"Delta":48887200},{"NoteNumber":72,"Velocity":78,"Duration":104993,"SoundDuration":104993,"Delta":48985354},{"NoteNumber":48,"Velocity":66,"Duration":198320,"SoundDuration":198320,"Delta":48985354},{"NoteNumber":73,"Velocity":69,"Duration":104993,"SoundDuration":104993,"Delta":49078682},{"NoteNumber":72,"Velocity":68,"Duration":104993,"SoundDuration":104993,"Delta":49172009},{"NoteNumber":64,"Velocity":53,"Duration":198320,"SoundDuration":198320,"Delta":49172009},{"NoteNumber":71,"Velocity":64,"Duration":104993,"SoundDuration":104993,"Delta":49265336},{"NoteNumber":72,"Velocity":67,"Duration":107928,"SoundDuration":107928,"Delta":49358663},{"NoteNumber":58,"Velocity":47,"Duration":210135,"SoundDuration":210135,"Delta":49358663},{"NoteNumber":79,"Velocity":69,"Duration":116808,"SoundDuration":116808,"Delta":49451990},{"NoteNumber":80,"Velocity":75,"Duration":104585,"SoundDuration":104585,"Delta":49568799},{"NoteNumber":56,"Velocity":64,"Duration":197966,"SoundDuration":197966,"Delta":49568799},{"NoteNumber":82,"Velocity":69,"Duration":105046,"SoundDuration":105046,"Delta":49661719},{"NoteNumber":80,"Velocity":69,"Duration":105630,"SoundDuration":105630,"Delta":49755046},{"NoteNumber":65,"Velocity":52,"Duration":199962,"SoundDuration":199962,"Delta":49755046},{"NoteNumber":79,"Velocity":66,"Duration":106102,"SoundDuration":106102,"Delta":49848905},{"NoteNumber":80,"Velocity":63,"Duration":107078,"SoundDuration":107078,"Delta":49943183},{"NoteNumber":60,"Velocity":44,"Duration":192964,"SoundDuration":192964,"Delta":49943183},{"NoteNumber":76,"Velocity":70,"Duration":98154,"SoundDuration":98154,"Delta":50037993},{"NoteNumber":77,"Velocity":73,"Duration":105942,"SoundDuration":105942,"Delta":50136147},{"NoteNumber":48,"Velocity":60,"Duration":200113,"SoundDuration":200113,"Delta":50136147},{"NoteNumber":79,"Velocity":69,"Duration":105942,"SoundDuration":105942,"Delta":50230318},{"NoteNumber":77,"Velocity":69,"Duration":105942,"SoundDuration":105942,"Delta":50324489},{"NoteNumber":61,"Velocity":51,"Duration":200113,"SoundDuration":200113,"Delta":50324489},{"NoteNumber":75,"Velocity":62,"Duration":105942,"SoundDuration":105942,"Delta":50418660},{"NoteNumber":73,"Velocity":68,"Duration":106555,"SoundDuration":106555,"Delta":50512831},{"NoteNumber":56,"Velocity":46,"Duration":193249,"SoundDuration":193249,"Delta":50512831},{"NoteNumber":72,"Velocity":68,"Duration":99078,"SoundDuration":99078,"Delta":50607002},{"NoteNumber":70,"Velocity":75,"Duration":105475,"SoundDuration":105475,"Delta":50706080},{"NoteNumber":53,"Velocity":59,"Duration":199594,"SoundDuration":199594,"Delta":50706080},{"NoteNumber":68,"Velocity":68,"Duration":105838,"SoundDuration":105838,"Delta":50799836},{"NoteNumber":67,"Velocity":64,"Duration":106316,"SoundDuration":106316,"Delta":50893903},{"NoteNumber":61,"Velocity":49,"Duration":201284,"SoundDuration":201284,"Delta":50893903},{"NoteNumber":65,"Velocity":62,"Duration":106792,"SoundDuration":106792,"Delta":50988395},{"NoteNumber":67,"Velocity":59,"Duration":107623,"SoundDuration":107623,"Delta":51083310},{"NoteNumber":56,"Velocity":44,"Duration":193508,"SoundDuration":193508,"Delta":51083310},{"NoteNumber":68,"Velocity":58,"Duration":98154,"SoundDuration":98154,"Delta":51178664},{"NoteNumber":67,"Velocity":74,"Duration":105475,"SoundDuration":105475,"Delta":51276819},{"NoteNumber":48,"Velocity":55,"Duration":199231,"SoundDuration":199231,"Delta":51276819},{"NoteNumber":73,"Velocity":58,"Duration":105475,"SoundDuration":105475,"Delta":51370575},{"NoteNumber":72,"Velocity":57,"Duration":105475,"SoundDuration":105475,"Delta":51464330},{"NoteNumber":64,"Velocity":45,"Duration":199231,"SoundDuration":199231,"Delta":51464330},{"NoteNumber":71,"Velocity":53,"Duration":105475,"SoundDuration":105475,"Delta":51558086},{"NoteNumber":72,"Velocity":56,"Duration":109187,"SoundDuration":109187,"Delta":51651842},{"NoteNumber":58,"Velocity":38,"Duration":217212,"SoundDuration":217212,"Delta":51651842},{"NoteNumber":79,"Velocity":58,"Duration":123456,"SoundDuration":123456,"Delta":51745598},{"NoteNumber":80,"Velocity":59,"Duration":108885,"SoundDuration":108885,"Delta":51869055},{"NoteNumber":56,"Velocity":48,"Duration":205671,"SoundDuration":205671,"Delta":51869055},{"NoteNumber":82,"Velocity":49,"Duration":108885,"SoundDuration":108885,"Delta":51965841},{"NoteNumber":80,"Velocity":49,"Duration":108885,"SoundDuration":108885,"Delta":52062628},{"NoteNumber":65,"Velocity":38,"Duration":205671,"SoundDuration":205671,"Delta":52062628},{"NoteNumber":79,"Velocity":48,"Duration":108885,"SoundDuration":108885,"Delta":52159415},{"NoteNumber":80,"Velocity":47,"Duration":109056,"SoundDuration":109056,"Delta":52256201},{"NoteNumber":60,"Velocity":31,"Duration":194941,"SoundDuration":194941,"Delta":52256201},{"NoteNumber":76,"Velocity":50,"Duration":98154,"SoundDuration":98154,"Delta":52352988},{"NoteNumber":77,"Velocity":56,"Duration":106316,"SoundDuration":106316,"Delta":52451143},{"NoteNumber":48,"Velocity":45,"Duration":200914,"SoundDuration":200914,"Delta":52451143},{"NoteNumber":79,"Velocity":49,"Duration":106423,"SoundDuration":106423,"Delta":52545634},{"NoteNumber":77,"Velocity":49,"Duration":106423,"SoundDuration":106423,"Delta":52640233},{"NoteNumber":61,"Velocity":38,"Duration":201021,"SoundDuration":201021,"Delta":52640233},{"NoteNumber":75,"Velocity":46,"Duration":106423,"SoundDuration":106423,"Delta":52734831},{"NoteNumber":73,"Velocity":49,"Duration":106983,"SoundDuration":106983,"Delta":52829430},{"NoteNumber":56,"Velocity":33,"Duration":193676,"SoundDuration":193676,"Delta":52829430},{"NoteNumber":72,"Velocity":49,"Duration":99078,"SoundDuration":99078,"Delta":52924028},{"NoteNumber":70,"Velocity":55,"Duration":105911,"SoundDuration":105911,"Delta":53023107},{"NoteNumber":53,"Velocity":42,"Duration":199822,"SoundDuration":199822,"Delta":53023107},{"NoteNumber":68,"Velocity":49,"Duration":105630,"SoundDuration":105630,"Delta":53117299},{"NoteNumber":67,"Velocity":48,"Duration":106209,"SoundDuration":106209,"Delta":53211158},{"NoteNumber":61,"Velocity":33,"Duration":201233,"SoundDuration":201233,"Delta":53211158},{"NoteNumber":65,"Velocity":45,"Duration":106848,"SoundDuration":106848,"Delta":53305543},{"NoteNumber":67,"Velocity":42,"Duration":107949,"SoundDuration":107949,"Delta":53400458},{"NoteNumber":56,"Velocity":31,"Duration":193835,"SoundDuration":193835,"Delta":53400458},{"NoteNumber":68,"Velocity":40,"Duration":98154,"SoundDuration":98154,"Delta":53496139},{"NoteNumber":67,"Velocity":56,"Duration":108885,"SoundDuration":108885,"Delta":53594294},{"NoteNumber":48,"Velocity":45,"Duration":205671,"SoundDuration":205671,"Delta":53594294},{"NoteNumber":79,"Velocity":48,"Duration":108885,"SoundDuration":108885,"Delta":53691080},{"NoteNumber":77,"Velocity":49,"Duration":108885,"SoundDuration":108885,"Delta":53787867},{"NoteNumber":64,"Velocity":34,"Duration":205671,"SoundDuration":205671,"Delta":53787867},{"NoteNumber":76,"Velocity":46,"Duration":108885,"SoundDuration":108885,"Delta":53884654},{"NoteNumber":73,"Velocity":49,"Duration":108885,"SoundDuration":108885,"Delta":53981440},{"NoteNumber":55,"Velocity":30,"Duration":193573,"SoundDuration":193573,"Delta":53981440},{"NoteNumber":72,"Velocity":49,"Duration":96786,"SoundDuration":96786,"Delta":54078227},{"NoteNumber":70,"Velocity":52,"Duration":107230,"SoundDuration":107230,"Delta":54175014},{"NoteNumber":53,"Velocity":38,"Duration":203463,"SoundDuration":203463,"Delta":54175014},{"NoteNumber":68,"Velocity":49,"Duration":108220,"SoundDuration":108220,"Delta":54270257},{"NoteNumber":67,"Velocity":48,"Duration":109454,"SoundDuration":109454,"Delta":54366379},{"NoteNumber":61,"Velocity":35,"Duration":207731,"SoundDuration":207731,"Delta":54366379},{"NoteNumber":65,"Velocity":45,"Duration":110489,"SoundDuration":110489,"Delta":54463621},{"NoteNumber":67,"Velocity":42,"Duration":112082,"SoundDuration":112082,"Delta":54561781},{"NoteNumber":56,"Velocity":31,"Duration":202205,"SoundDuration":202205,"Delta":54561781},{"NoteNumber":68,"Velocity":40,"Duration":102997,"SoundDuration":102997,"Delta":54660989},{"NoteNumber":67,"Velocity":50,"Duration":131121,"SoundDuration":131121,"Delta":54763986},{"NoteNumber":48,"Velocity":35,"Duration":229750,"SoundDuration":229750,"Delta":54763986},{"NoteNumber":79,"Velocity":48,"Duration":110957,"SoundDuration":110957,"Delta":54882779},{"NoteNumber":77,"Velocity":49,"Duration":110957,"SoundDuration":110957,"Delta":54981408},{"NoteNumber":64,"Velocity":34,"Duration":209586,"SoundDuration":209586,"Delta":54981408},{"NoteNumber":76,"Velocity":46,"Duration":110957,"SoundDuration":110957,"Delta":55080037},{"NoteNumber":73,"Velocity":49,"Duration":111013,"SoundDuration":111013,"Delta":55178666},{"NoteNumber":55,"Velocity":29,"Duration":197020,"SoundDuration":197020,"Delta":55178666},{"NoteNumber":72,"Velocity":49,"Duration":98391,"SoundDuration":98391,"Delta":55277295},{"NoteNumber":70,"Velocity":51,"Duration":110198,"SoundDuration":110198,"Delta":55375686},{"NoteNumber":53,"Velocity":35,"Duration":208649,"SoundDuration":208649,"Delta":55375686},{"NoteNumber":68,"Velocity":49,"Duration":110720,"SoundDuration":110720,"Delta":55473616},{"NoteNumber":67,"Velocity":48,"Duration":111350,"SoundDuration":111350,"Delta":55572008},{"NoteNumber":61,"Velocity":30,"Duration":210911,"SoundDuration":210911,"Delta":55572008},{"NoteNumber":65,"Velocity":45,"Duration":111944,"SoundDuration":111944,"Delta":55670974},{"NoteNumber":67,"Velocity":42,"Duration":112595,"SoundDuration":112595,"Delta":55770415},{"NoteNumber":56,"Velocity":28,"Duration":200669,"SoundDuration":200669,"Delta":55770415},{"NoteNumber":68,"Velocity":40,"Duration":100639,"SoundDuration":100639,"Delta":55870445},{"NoteNumber":67,"Velocity":53,"Duration":110957,"SoundDuration":110957,"Delta":55971084},{"NoteNumber":48,"Velocity":38,"Duration":209586,"SoundDuration":209586,"Delta":55971084},{"NoteNumber":73,"Velocity":49,"Duration":110957,"SoundDuration":110957,"Delta":56069713},{"NoteNumber":72,"Velocity":45,"Duration":110957,"SoundDuration":110957,"Delta":56168342},{"NoteNumber":60,"Velocity":30,"Duration":209586,"SoundDuration":209586,"Delta":56168342},{"NoteNumber":71,"Velocity":42,"Duration":110957,"SoundDuration":110957,"Delta":56266971},{"NoteNumber":72,"Velocity":46,"Duration":111013,"SoundDuration":111013,"Delta":56365600},{"NoteNumber":64,"Velocity":26,"Duration":197707,"SoundDuration":197707,"Delta":56365600},{"NoteNumber":73,"Velocity":49,"Duration":99078,"SoundDuration":99078,"Delta":56464229},{"NoteNumber":72,"Velocity":53,"Duration":96567,"SoundDuration":96567,"Delta":56563308},{"NoteNumber":73,"Velocity":49,"Duration":96677,"SoundDuration":96677,"Delta":56659875},{"NoteNumber":72,"Velocity":47,"Duration":97471,"SoundDuration":97471,"Delta":56756552},{"NoteNumber":71,"Velocity":47,"Duration":98042,"SoundDuration":98042,"Delta":56854024},{"NoteNumber":72,"Velocity":51,"Duration":98853,"SoundDuration":98853,"Delta":56952066},{"NoteNumber":73,"Velocity":49,"Duration":98154,"SoundDuration":98154,"Delta":57050919},{"NoteNumber":72,"Velocity":59,"Duration":101240,"SoundDuration":101240,"Delta":57149074},{"NoteNumber":73,"Velocity":56,"Duration":102244,"SoundDuration":102244,"Delta":57250315},{"NoteNumber":72,"Velocity":56,"Duration":103379,"SoundDuration":103379,"Delta":57352560},{"NoteNumber":71,"Velocity":49,"Duration":104543,"SoundDuration":104543,"Delta":57455939},{"NoteNumber":72,"Velocity":49,"Duration":105595,"SoundDuration":105595,"Delta":57560483},{"NoteNumber":73,"Velocity":50,"Duration":106952,"SoundDuration":106952,"Delta":57666078},{"NoteNumber":72,"Velocity":51,"Duration":108056,"SoundDuration":108056,"Delta":57773031},{"NoteNumber":73,"Velocity":46,"Duration":109470,"SoundDuration":109470,"Delta":57881087},{"NoteNumber":72,"Velocity":42,"Duration":110485,"SoundDuration":110485,"Delta":57990558},{"NoteNumber":73,"Velocity":39,"Duration":115564,"SoundDuration":115564,"Delta":58101043},{"NoteNumber":72,"Velocity":38,"Duration":125077,"SoundDuration":125077,"Delta":58216608},{"NoteNumber":73,"Velocity":35,"Duration":124190,"SoundDuration":124190,"Delta":58341685},{"NoteNumber":72,"Velocity":48,"Duration":117616,"SoundDuration":117616,"Delta":58465876},{"NoteNumber":52,"Velocity":39,"Duration":216985,"SoundDuration":216985,"Delta":58465876},{"NoteNumber":73,"Velocity":41,"Duration":112437,"SoundDuration":112437,"Delta":58570423},{"NoteNumber":71,"Velocity":41,"Duration":110661,"SoundDuration":110661,"Delta":58670532},{"NoteNumber":67,"Velocity":33,"Duration":208661,"SoundDuration":208661,"Delta":58670532},{"NoteNumber":72,"Velocity":40,"Duration":110269,"SoundDuration":110269,"Delta":58768924},{"NoteNumber":75,"Velocity":49,"Duration":106898,"SoundDuration":106898,"Delta":58867316},{"NoteNumber":60,"Velocity":31,"Duration":190943,"SoundDuration":190943,"Delta":58867316},{"NoteNumber":73,"Velocity":46,"Duration":95922,"SoundDuration":95922,"Delta":58962337},{"NoteNumber":72,"Velocity":55,"Duration":110898,"SoundDuration":110898,"Delta":59058259},{"NoteNumber":58,"Velocity":40,"Duration":208884,"SoundDuration":208884,"Delta":59058259},{"NoteNumber":73,"Velocity":48,"Duration":110255,"SoundDuration":110255,"Delta":59156888},{"NoteNumber":71,"Velocity":48,"Duration":109626,"SoundDuration":109626,"Delta":59254930},{"NoteNumber":67,"Velocity":33,"Duration":206414,"SoundDuration":206414,"Delta":59254930},{"NoteNumber":72,"Velocity":48,"Duration":108943,"SoundDuration":108943,"Delta":59352402},{"NoteNumber":78,"Velocity":51,"Duration":108389,"SoundDuration":108389,"Delta":59449301},{"NoteNumber":60,"Velocity":31,"Duration":193933,"SoundDuration":193933,"Delta":59449301},{"NoteNumber":79,"Velocity":48,"Duration":97698,"SoundDuration":97698,"Delta":59545536},{"NoteNumber":72,"Velocity":57,"Duration":109223,"SoundDuration":109223,"Delta":59643235},{"NoteNumber":53,"Velocity":45,"Duration":205457,"SoundDuration":205457,"Delta":59643235},{"NoteNumber":73,"Velocity":51,"Duration":108331,"SoundDuration":108331,"Delta":59740361},{"NoteNumber":71,"Velocity":47,"Duration":107558,"SoundDuration":107558,"Delta":59836705},{"NoteNumber":68,"Velocity":37,"Duration":202261,"SoundDuration":202261,"Delta":59836705},{"NoteNumber":72,"Velocity":49,"Duration":106581,"SoundDuration":106581,"Delta":59932386},{"NoteNumber":75,"Velocity":52,"Duration":106208,"SoundDuration":106208,"Delta":60027195},{"NoteNumber":60,"Velocity":34,"Duration":190472,"SoundDuration":190472,"Delta":60027195},{"NoteNumber":73,"Velocity":49,"Duration":96302,"SoundDuration":96302,"Delta":60121366},{"NoteNumber":72,"Velocity":58,"Duration":104993,"SoundDuration":104993,"Delta":60217668},{"NoteNumber":56,"Velocity":46,"Duration":198320,"SoundDuration":198320,"Delta":60217668},{"NoteNumber":73,"Velocity":49,"Duration":104993,"SoundDuration":104993,"Delta":60310995},{"NoteNumber":71,"Velocity":50,"Duration":104993,"SoundDuration":104993,"Delta":60404323},{"NoteNumber":68,"Velocity":38,"Duration":198320,"SoundDuration":198320,"Delta":60404323},{"NoteNumber":72,"Velocity":50,"Duration":104993,"SoundDuration":104993,"Delta":60497650},{"NoteNumber":80,"Velocity":53,"Duration":105596,"SoundDuration":105596,"Delta":60590977},{"NoteNumber":60,"Velocity":36,"Duration":191481,"SoundDuration":191481,"Delta":60590977},{"NoteNumber":77,"Velocity":49,"Duration":98154,"SoundDuration":98154,"Delta":60684304},{"NoteNumber":76,"Velocity":60,"Duration":104788,"SoundDuration":104788,"Delta":60782459},{"NoteNumber":55,"Velocity":48,"Duration":198115,"SoundDuration":198115,"Delta":60782459},{"NoteNumber":77,"Velocity":53,"Duration":104993,"SoundDuration":104993,"Delta":60875581},{"NoteNumber":76,"Velocity":55,"Duration":104532,"SoundDuration":104532,"Delta":60968908},{"NoteNumber":70,"Velocity":39,"Duration":197759,"SoundDuration":197759,"Delta":60968908},{"NoteNumber":75,"Velocity":56,"Duration":104842,"SoundDuration":104842,"Delta":61061825},{"NoteNumber":76,"Velocity":57,"Duration":106283,"SoundDuration":106283,"Delta":61154948},{"NoteNumber":64,"Velocity":36,"Duration":191774,"SoundDuration":191774,"Delta":61154948},{"NoteNumber":79,"Velocity":60,"Duration":97704,"SoundDuration":97704,"Delta":61249019},{"NoteNumber":82,"Velocity":68,"Duration":115528,"SoundDuration":115528,"Delta":61346723},{"NoteNumber":61,"Velocity":49,"Duration":207634,"SoundDuration":207634,"Delta":61346723},{"NoteNumber":84,"Velocity":60,"Duration":103619,"SoundDuration":103619,"Delta":61450738},{"NoteNumber":82,"Velocity":61,"Duration":103619,"SoundDuration":103619,"Delta":61542844},{"NoteNumber":70,"Velocity":44,"Duration":195726,"SoundDuration":195726,"Delta":61542844},{"NoteNumber":81,"Velocity":63,"Duration":103619,"SoundDuration":103619,"Delta":61634951},{"NoteNumber":82,"Velocity":62,"Duration":104454,"SoundDuration":104454,"Delta":61727057},{"NoteNumber":64,"Velocity":39,"Duration":190891,"SoundDuration":190891,"Delta":61727057},{"NoteNumber":85,"Velocity":66,"Duration":98784,"SoundDuration":98784,"Delta":61819164},{"NoteNumber":84,"Velocity":72,"Duration":126647,"SoundDuration":126647,"Delta":61917949},{"NoteNumber":56,"Velocity":55,"Duration":220818,"SoundDuration":220818,"Delta":61917949},{"NoteNumber":85,"Velocity":61,"Duration":105942,"SoundDuration":105942,"Delta":62032825},{"NoteNumber":84,"Velocity":61,"Duration":105942,"SoundDuration":105942,"Delta":62126996},{"NoteNumber":68,"Velocity":45,"Duration":200113,"SoundDuration":200113,"Delta":62126996},{"NoteNumber":83,"Velocity":61,"Duration":105942,"SoundDuration":105942,"Delta":62221167},{"NoteNumber":84,"Velocity":62,"Duration":106555,"SoundDuration":106555,"Delta":62315338},{"NoteNumber":65,"Velocity":44,"Duration":193249,"SoundDuration":193249,"Delta":62315338},{"NoteNumber":79,"Velocity":60,"Duration":99078,"SoundDuration":99078,"Delta":62409509},{"NoteNumber":80,"Velocity":64,"Duration":107882,"SoundDuration":107882,"Delta":62508587},{"NoteNumber":60,"Velocity":50,"Duration":203778,"SoundDuration":203778,"Delta":62508587},{"NoteNumber":82,"Velocity":56,"Duration":107882,"SoundDuration":107882,"Delta":62604483},{"NoteNumber":80,"Velocity":56,"Duration":107882,"SoundDuration":107882,"Delta":62700378},{"NoteNumber":68,"Velocity":40,"Duration":203778,"SoundDuration":203778,"Delta":62700378},{"NoteNumber":79,"Velocity":56,"Duration":107882,"SoundDuration":107882,"Delta":62796274},{"NoteNumber":80,"Velocity":57,"Duration":107882,"SoundDuration":107882,"Delta":62892170},{"NoteNumber":65,"Velocity":40,"Duration":191791,"SoundDuration":191791,"Delta":62892170},{"NoteNumber":76,"Velocity":52,"Duration":95895,"SoundDuration":95895,"Delta":62988065},{"NoteNumber":77,"Velocity":60,"Duration":107828,"SoundDuration":107828,"Delta":63083961},{"NoteNumber":46,"Velocity":48,"Duration":203238,"SoundDuration":203238,"Delta":63083961},{"NoteNumber":79,"Velocity":51,"Duration":107342,"SoundDuration":107342,"Delta":63179857},{"NoteNumber":77,"Velocity":51,"Duration":106845,"SoundDuration":106845,"Delta":63275322},{"NoteNumber":61,"Velocity":37,"Duration":201390,"SoundDuration":201390,"Delta":63275322},{"NoteNumber":76,"Velocity":52,"Duration":106369,"SoundDuration":106369,"Delta":63370343},{"NoteNumber":77,"Velocity":55,"Duration":105890,"SoundDuration":105890,"Delta":63464941},{"NoteNumber":55,"Velocity":37,"Duration":187926,"SoundDuration":187926,"Delta":63464941},{"NoteNumber":72,"Velocity":50,"Duration":93755,"SoundDuration":93755,"Delta":63559112},{"NoteNumber":73,"Velocity":60,"Duration":104993,"SoundDuration":104993,"Delta":63652868},{"NoteNumber":53,"Velocity":48,"Duration":198747,"SoundDuration":198747,"Delta":63652868},{"NoteNumber":75,"Velocity":51,"Duration":105420,"SoundDuration":105420,"Delta":63746195},{"NoteNumber":73,"Velocity":51,"Duration":106102,"SoundDuration":106102,"Delta":63839844},{"NoteNumber":61,"Velocity":37,"Duration":200965,"SoundDuration":200965,"Delta":63839844},{"NoteNumber":72,"Velocity":51,"Duration":106687,"SoundDuration":106687,"Delta":63934122},{"NoteNumber":73,"Velocity":55,"Duration":107799,"SoundDuration":107799,"Delta":64028931},{"NoteNumber":55,"Velocity":37,"Duration":194916,"SoundDuration":194916,"Delta":64028931},{"NoteNumber":71,"Velocity":51,"Duration":99562,"SoundDuration":99562,"Delta":64124286},{"NoteNumber":72,"Velocity":60,"Duration":107342,"SoundDuration":107342,"Delta":64223848},{"NoteNumber":48,"Velocity":48,"Duration":202310,"SoundDuration":202310,"Delta":64223848},{"NoteNumber":73,"Velocity":52,"Duration":106845,"SoundDuration":106845,"Delta":64319313},{"NoteNumber":72,"Velocity":48,"Duration":106369,"SoundDuration":106369,"Delta":64414334},{"NoteNumber":60,"Velocity":39,"Duration":200488,"SoundDuration":200488,"Delta":64414334},{"NoteNumber":71,"Velocity":48,"Duration":105890,"SoundDuration":105890,"Delta":64508932},{"NoteNumber":72,"Velocity":55,"Duration":105421,"SoundDuration":105421,"Delta":64603103},{"NoteNumber":56,"Velocity":39,"Duration":186981,"SoundDuration":186981,"Delta":64603103},{"NoteNumber":67,"Velocity":50,"Duration":93225,"SoundDuration":93225,"Delta":64696859},{"NoteNumber":68,"Velocity":57,"Duration":104534,"SoundDuration":104534,"Delta":64790084},{"NoteNumber":53,"Velocity":48,"Duration":197453,"SoundDuration":197453,"Delta":64790084},{"NoteNumber":70,"Velocity":49,"Duration":104534,"SoundDuration":104534,"Delta":64883004},{"NoteNumber":68,"Velocity":48,"Duration":104534,"SoundDuration":104534,"Delta":64975923},{"NoteNumber":60,"Velocity":39,"Duration":197453,"SoundDuration":197453,"Delta":64975923},{"NoteNumber":67,"Velocity":46,"Duration":104534,"SoundDuration":104534,"Delta":65068843},{"NoteNumber":68,"Velocity":55,"Duration":105188,"SoundDuration":105188,"Delta":65161762},{"NoteNumber":56,"Velocity":39,"Duration":191074,"SoundDuration":191074,"Delta":65161762},{"NoteNumber":65,"Velocity":46,"Duration":98154,"SoundDuration":98154,"Delta":65254682},{"NoteNumber":64,"Velocity":60,"Duration":106581,"SoundDuration":106581,"Delta":65352836},{"NoteNumber":48,"Velocity":48,"Duration":200438,"SoundDuration":200438,"Delta":65352836},{"NoteNumber":67,"Velocity":55,"Duration":105629,"SoundDuration":105629,"Delta":65447646},{"NoteNumber":70,"Velocity":56,"Duration":104636,"SoundDuration":104636,"Delta":65541609},{"NoteNumber":64,"Velocity":39,"Duration":197555,"SoundDuration":197555,"Delta":65541609},{"NoteNumber":73,"Velocity":58,"Duration":104534,"SoundDuration":104534,"Delta":65634631},{"NoteNumber":76,"Velocity":60,"Duration":105364,"SoundDuration":105364,"Delta":65727550},{"NoteNumber":60,"Velocity":40,"Duration":192481,"SoundDuration":192481,"Delta":65727550},{"NoteNumber":79,"Velocity":61,"Duration":99562,"SoundDuration":99562,"Delta":65820470},{"NoteNumber":82,"Velocity":70,"Duration":82535,"SoundDuration":82535,"Delta":65920032},{"NoteNumber":55,"Velocity":49,"Duration":220621,"SoundDuration":220621,"Delta":65920032},{"NoteNumber":85,"Velocity":60,"Duration":75385,"SoundDuration":75385,"Delta":66027815},{"NoteNumber":84,"Velocity":61,"Duration":74429,"SoundDuration":74429,"Delta":66128208},{"NoteNumber":64,"Velocity":44,"Duration":209054,"SoundDuration":209054,"Delta":66128208},{"NoteNumber":82,"Velocity":62,"Duration":73503,"SoundDuration":73503,"Delta":66227295},{"NoteNumber":80,"Velocity":61,"Duration":72593,"SoundDuration":72593,"Delta":66325108},{"NoteNumber":58,"Velocity":45,"Duration":200076,"SoundDuration":200076,"Delta":66325108},{"NoteNumber":79,"Velocity":62,"Duration":77631,"SoundDuration":77631,"Delta":66421675},{"NoteNumber":82,"Velocity":69,"Duration":115663,"SoundDuration":115663,"Delta":66525184},{"NoteNumber":53,"Velocity":51,"Duration":213076,"SoundDuration":213076,"Delta":66525184},{"NoteNumber":84,"Velocity":67,"Duration":109567,"SoundDuration":109567,"Delta":66628693},{"NoteNumber":80,"Velocity":64,"Duration":110198,"SoundDuration":110198,"Delta":66726048},{"NoteNumber":65,"Velocity":44,"Duration":208936,"SoundDuration":208936,"Delta":66726048},{"NoteNumber":79,"Velocity":66,"Duration":111007,"SoundDuration":111007,"Delta":66823977},{"NoteNumber":80,"Velocity":61,"Duration":111765,"SoundDuration":111765,"Delta":66922600},{"NoteNumber":60,"Velocity":37,"Duration":199356,"SoundDuration":199356,"Delta":66922600},{"NoteNumber":77,"Velocity":57,"Duration":100036,"SoundDuration":100036,"Delta":67021920},{"NoteNumber":76,"Velocity":64,"Duration":112718,"SoundDuration":112718,"Delta":67121956},{"NoteNumber":56,"Velocity":48,"Duration":214025,"SoundDuration":214025,"Delta":67121956},{"NoteNumber":79,"Velocity":52,"Duration":113872,"SoundDuration":113872,"Delta":67222110},{"NoteNumber":77,"Velocity":51,"Duration":115687,"SoundDuration":115687,"Delta":67323234},{"NoteNumber":65,"Velocity":38,"Duration":220166,"SoundDuration":220166,"Delta":67323234},{"NoteNumber":76,"Velocity":52,"Duration":117417,"SoundDuration":117417,"Delta":67425983},{"NoteNumber":77,"Velocity":52,"Duration":119065,"SoundDuration":119065,"Delta":67530267},{"NoteNumber":61,"Velocity":34,"Duration":211462,"SoundDuration":211462,"Delta":67530267},{"NoteNumber":73,"Velocity":50,"Duration":105596,"SoundDuration":105596,"Delta":67636132},{"NoteNumber":72,"Velocity":60,"Duration":115249,"SoundDuration":115249,"Delta":67741729},{"NoteNumber":52,"Velocity":48,"Duration":217176,"SoundDuration":217176,"Delta":67741729},{"NoteNumber":73,"Velocity":49,"Duration":114675,"SoundDuration":114675,"Delta":67844230},{"NoteNumber":71,"Velocity":49,"Duration":114115,"SoundDuration":114115,"Delta":67946219},{"NoteNumber":67,"Velocity":37,"Duration":214525,"SoundDuration":214525,"Delta":67946219},{"NoteNumber":72,"Velocity":49,"Duration":113033,"SoundDuration":113033,"Delta":68047711},{"NoteNumber":75,"Velocity":55,"Duration":108852,"SoundDuration":108852,"Delta":68148700},{"NoteNumber":60,"Velocity":31,"Duration":196378,"SoundDuration":196378,"Delta":68148700},{"NoteNumber":73,"Velocity":49,"Duration":100030,"SoundDuration":100030,"Delta":68245049},{"NoteNumber":72,"Velocity":60,"Duration":110898,"SoundDuration":110898,"Delta":68345079},{"NoteNumber":58,"Velocity":48,"Duration":208996,"SoundDuration":208996,"Delta":68345079},{"NoteNumber":73,"Velocity":50,"Duration":110367,"SoundDuration":110367,"Delta":68443708},{"NoteNumber":71,"Velocity":50,"Duration":109858,"SoundDuration":109858,"Delta":68541862},{"NoteNumber":67,"Velocity":37,"Duration":206929,"SoundDuration":206929,"Delta":68541862},{"NoteNumber":72,"Velocity":50,"Duration":109225,"SoundDuration":109225,"Delta":68639566},{"NoteNumber":78,"Velocity":55,"Duration":108757,"SoundDuration":108757,"Delta":68736805},{"NoteNumber":60,"Velocity":34,"Duration":197997,"SoundDuration":197997,"Delta":68736805},{"NoteNumber":79,"Velocity":49,"Duration":101988,"SoundDuration":101988,"Delta":68832814},{"NoteNumber":72,"Velocity":60,"Duration":109336,"SoundDuration":109336,"Delta":68934802},{"NoteNumber":53,"Velocity":48,"Duration":205959,"SoundDuration":205959,"Delta":68934802},{"NoteNumber":73,"Velocity":49,"Duration":108720,"SoundDuration":108720,"Delta":69032041},{"NoteNumber":71,"Velocity":49,"Duration":108108,"SoundDuration":108108,"Delta":69128718},{"NoteNumber":68,"Velocity":39,"Duration":203572,"SoundDuration":203572,"Delta":69128718},{"NoteNumber":72,"Velocity":49,"Duration":107450,"SoundDuration":107450,"Delta":69224840},{"NoteNumber":75,"Velocity":55,"Duration":106952,"SoundDuration":106952,"Delta":69320413},{"NoteNumber":60,"Velocity":34,"Duration":191217,"SoundDuration":191217,"Delta":69320413},{"NoteNumber":73,"Velocity":49,"Duration":96302,"SoundDuration":96302,"Delta":69415328},{"NoteNumber":72,"Velocity":57,"Duration":104070,"SoundDuration":104070,"Delta":69511630},{"NoteNumber":56,"Velocity":48,"Duration":196577,"SoundDuration":196577,"Delta":69511630},{"NoteNumber":73,"Velocity":50,"Duration":104070,"SoundDuration":104070,"Delta":69604137},{"NoteNumber":71,"Velocity":50,"Duration":104070,"SoundDuration":104070,"Delta":69696644},{"NoteNumber":68,"Velocity":39,"Duration":196577,"SoundDuration":196577,"Delta":69696644},{"NoteNumber":72,"Velocity":50,"Duration":104070,"SoundDuration":104070,"Delta":69789151},{"NoteNumber":80,"Velocity":55,"Duration":104776,"SoundDuration":104776,"Delta":69881658},{"NoteNumber":60,"Velocity":35,"Duration":190661,"SoundDuration":190661,"Delta":69881658},{"NoteNumber":77,"Velocity":51,"Duration":98154,"SoundDuration":98154,"Delta":69974165},{"NoteNumber":76,"Velocity":60,"Duration":105475,"SoundDuration":105475,"Delta":70072320},{"NoteNumber":55,"Velocity":48,"Duration":199126,"SoundDuration":199126,"Delta":70072320},{"NoteNumber":77,"Velocity":53,"Duration":105370,"SoundDuration":105370,"Delta":70166076},{"NoteNumber":76,"Velocity":56,"Duration":105368,"SoundDuration":105368,"Delta":70259832},{"NoteNumber":70,"Velocity":39,"Duration":200831,"SoundDuration":200831,"Delta":70259832},{"NoteNumber":75,"Velocity":57,"Duration":107288,"SoundDuration":107288,"Delta":70353375},{"NoteNumber":76,"Velocity":60,"Duration":109345,"SoundDuration":109345,"Delta":70448620},{"NoteNumber":64,"Velocity":42,"Duration":194836,"SoundDuration":194836,"Delta":70448620},{"NoteNumber":79,"Velocity":62,"Duration":97704,"SoundDuration":97704,"Delta":70545752},{"NoteNumber":82,"Velocity":70,"Duration":109009,"SoundDuration":109009,"Delta":70643456},{"NoteNumber":61,"Velocity":51,"Duration":203128,"SoundDuration":203128,"Delta":70643456},{"NoteNumber":84,"Velocity":62,"Duration":105890,"SoundDuration":105890,"Delta":70740695},{"NoteNumber":82,"Velocity":64,"Duration":105421,"SoundDuration":105421,"Delta":70834865},{"NoteNumber":70,"Velocity":46,"Duration":198697,"SoundDuration":198697,"Delta":70834865},{"NoteNumber":81,"Velocity":66,"Duration":104942,"SoundDuration":104942,"Delta":70928621},{"NoteNumber":82,"Velocity":64,"Duration":105164,"SoundDuration":105164,"Delta":71021948},{"NoteNumber":63,"Velocity":45,"Duration":191601,"SoundDuration":191601,"Delta":71021948},{"NoteNumber":85,"Velocity":66,"Duration":98785,"SoundDuration":98785,"Delta":71114765},{"NoteNumber":84,"Velocity":77,"Duration":135637,"SoundDuration":135637,"Delta":71213550},{"NoteNumber":56,"Velocity":59,"Duration":240944,"SoundDuration":240944,"Delta":71213550},{"NoteNumber":92,"Velocity":68,"Duration":118470,"SoundDuration":118470,"Delta":71336024},{"NoteNumber":91,"Velocity":67,"Duration":118470,"SoundDuration":118470,"Delta":71441331},{"NoteNumber":68,"Velocity":48,"Duration":223778,"SoundDuration":223778,"Delta":71441331},{"NoteNumber":90,"Velocity":70,"Duration":118470,"SoundDuration":118470,"Delta":71546639},{"NoteNumber":89,"Velocity":67,"Duration":118282,"SoundDuration":118282,"Delta":71651946},{"NoteNumber":65,"Velocity":48,"Duration":209106,"SoundDuration":209106,"Delta":71651946},{"NoteNumber":88,"Velocity":64,"Duration":103798,"SoundDuration":103798,"Delta":71757254},{"NoteNumber":87,"Velocity":69,"Duration":117085,"SoundDuration":117085,"Delta":71861053},{"NoteNumber":60,"Velocity":53,"Duration":221570,"SoundDuration":221570,"Delta":71861053},{"NoteNumber":86,"Velocity":61,"Duration":117522,"SoundDuration":117522,"Delta":71965101},{"NoteNumber":85,"Velocity":61,"Duration":117868,"SoundDuration":117868,"Delta":72069523},{"NoteNumber":68,"Velocity":45,"Duration":223467,"SoundDuration":223467,"Delta":72069523},{"NoteNumber":84,"Velocity":61,"Duration":118667,"SoundDuration":118667,"Delta":72174323},{"NoteNumber":83,"Velocity":61,"Duration":121466,"SoundDuration":121466,"Delta":72279656},{"NoteNumber":65,"Velocity":45,"Duration":218271,"SoundDuration":218271,"Delta":72279656},{"NoteNumber":82,"Velocity":60,"Duration":110488,"SoundDuration":110488,"Delta":72387439},{"NoteNumber":81,"Velocity":61,"Duration":129220,"SoundDuration":129220,"Delta":72497928},{"NoteNumber":46,"Velocity":51,"Duration":236310,"SoundDuration":236310,"Delta":72497928},{"NoteNumber":80,"Velocity":56,"Duration":120354,"SoundDuration":120354,"Delta":72613884},{"NoteNumber":79,"Velocity":56,"Duration":120630,"SoundDuration":120630,"Delta":72720835},{"NoteNumber":61,"Velocity":42,"Duration":227857,"SoundDuration":227857,"Delta":72720835},{"NoteNumber":89,"Velocity":59,"Duration":120630,"SoundDuration":120630,"Delta":72828062},{"NoteNumber":85,"Velocity":57,"Duration":120229,"SoundDuration":120229,"Delta":72935289},{"NoteNumber":55,"Velocity":39,"Duration":211375,"SoundDuration":211375,"Delta":72935289},{"NoteNumber":82,"Velocity":56,"Duration":104148,"SoundDuration":104148,"Delta":73042516},{"NoteNumber":79,"Velocity":57,"Duration":118267,"SoundDuration":118267,"Delta":73146665},{"NoteNumber":53,"Velocity":44,"Duration":224533,"SoundDuration":224533,"Delta":73146665},{"NoteNumber":77,"Velocity":52,"Duration":119465,"SoundDuration":119465,"Delta":73251733},{"NoteNumber":73,"Velocity":52,"Duration":120701,"SoundDuration":120701,"Delta":73357863},{"NoteNumber":61,"Velocity":36,"Duration":229175,"SoundDuration":229175,"Delta":73357863},{"NoteNumber":70,"Velocity":52,"Duration":121947,"SoundDuration":121947,"Delta":73465092},{"NoteNumber":67,"Velocity":53,"Duration":123226,"SoundDuration":123226,"Delta":73573427},{"NoteNumber":55,"Velocity":36,"Duration":218589,"SoundDuration":218589,"Delta":73573427},{"NoteNumber":73,"Velocity":52,"Duration":109118,"SoundDuration":109118,"Delta":73682897},{"NoteNumber":72,"Velocity":60,"Duration":120630,"SoundDuration":120630,"Delta":73792016},{"NoteNumber":48,"Velocity":42,"Duration":227857,"SoundDuration":227857,"Delta":73792016},{"NoteNumber":73,"Velocity":55,"Duration":120630,"SoundDuration":120630,"Delta":73899243},{"NoteNumber":71,"Velocity":52,"Duration":120630,"SoundDuration":120630,"Delta":74006470},{"NoteNumber":65,"Velocity":35,"Duration":227857,"SoundDuration":227857,"Delta":74006470},{"NoteNumber":72,"Velocity":55,"Duration":120630,"SoundDuration":120630,"Delta":74113697},{"NoteNumber":68,"Velocity":56,"Duration":121345,"SoundDuration":121345,"Delta":74220924},{"NoteNumber":60,"Velocity":35,"Duration":220170,"SoundDuration":220170,"Delta":74220924},{"NoteNumber":70,"Velocity":55,"Duration":112943,"SoundDuration":112943,"Delta":74328152},{"NoteNumber":72,"Velocity":59,"Duration":120278,"SoundDuration":120278,"Delta":74441095},{"NoteNumber":56,"Velocity":41,"Duration":227505,"SoundDuration":227505,"Delta":74441095},{"NoteNumber":73,"Velocity":55,"Duration":120630,"SoundDuration":120630,"Delta":74547970},{"NoteNumber":72,"Velocity":53,"Duration":120630,"SoundDuration":120630,"Delta":74655198},{"NoteNumber":65,"Velocity":35,"Duration":227857,"SoundDuration":227857,"Delta":74655198},{"NoteNumber":73,"Velocity":55,"Duration":120630,"SoundDuration":120630,"Delta":74762425},{"NoteNumber":77,"Velocity":58,"Duration":121060,"SoundDuration":121060,"Delta":74869652},{"NoteNumber":60,"Velocity":34,"Duration":217895,"SoundDuration":217895,"Delta":74869652},{"NoteNumber":75,"Velocity":52,"Duration":110668,"SoundDuration":110668,"Delta":74976879},{"NoteNumber":72,"Velocity":60,"Duration":120012,"SoundDuration":120012,"Delta":75087548},{"NoteNumber":48,"Velocity":40,"Duration":226690,"SoundDuration":226690,"Delta":75087548},{"NoteNumber":73,"Velocity":50,"Duration":120012,"SoundDuration":120012,"Delta":75194226},{"NoteNumber":70,"Velocity":50,"Duration":120012,"SoundDuration":120012,"Delta":75300904},{"NoteNumber":63,"Velocity":33,"Duration":226690,"SoundDuration":226690,"Delta":75300904},{"NoteNumber":72,"Velocity":51,"Duration":120012,"SoundDuration":120012,"Delta":75407582},{"NoteNumber":75,"Velocity":57,"Duration":120722,"SoundDuration":120722,"Delta":75514260},{"NoteNumber":55,"Velocity":33,"Duration":219037,"SoundDuration":219037,"Delta":75514260},{"NoteNumber":73,"Velocity":53,"Duration":112359,"SoundDuration":112359,"Delta":75620938},{"NoteNumber":70,"Velocity":59,"Duration":124185,"SoundDuration":124185,"Delta":75733297},{"NoteNumber":53,"Velocity":39,"Duration":234573,"SoundDuration":234573,"Delta":75733297},{"NoteNumber":72,"Velocity":46,"Duration":124185,"SoundDuration":124185,"Delta":75843685},{"NoteNumber":68,"Velocity":46,"Duration":124185,"SoundDuration":124185,"Delta":75954072},{"NoteNumber":61,"Velocity":33,"Duration":234573,"SoundDuration":234573,"Delta":75954072},{"NoteNumber":70,"Velocity":49,"Duration":124185,"SoundDuration":124185,"Delta":76064460},{"NoteNumber":73,"Velocity":51,"Duration":124185,"SoundDuration":124185,"Delta":76174847},{"NoteNumber":52,"Velocity":30,"Duration":220774,"SoundDuration":220774,"Delta":76174847},{"NoteNumber":72,"Velocity":47,"Duration":110387,"SoundDuration":110387,"Delta":76285235},{"NoteNumber":65,"Velocity":60,"Duration":165076,"SoundDuration":165076,"Delta":76395622},{"NoteNumber":53,"Velocity":39,"Duration":291658,"SoundDuration":291658,"Delta":76395622},{"NoteNumber":84,"Velocity":53,"Duration":142405,"SoundDuration":142405,"Delta":76544876},{"NoteNumber":82,"Velocity":52,"Duration":142405,"SoundDuration":142405,"Delta":76671458},{"NoteNumber":68,"Velocity":35,"Duration":268987,"SoundDuration":268987,"Delta":76671458},{"NoteNumber":80,"Velocity":51,"Duration":142405,"SoundDuration":142405,"Delta":76798040},{"NoteNumber":79,"Velocity":50,"Duration":142405,"SoundDuration":142405,"Delta":76924623},{"NoteNumber":60,"Velocity":31,"Duration":251977,"SoundDuration":251977,"Delta":76924623},{"NoteNumber":77,"Velocity":49,"Duration":125395,"SoundDuration":125395,"Delta":77051205},{"NoteNumber":75,"Velocity":52,"Duration":142107,"SoundDuration":142107,"Delta":77176601},{"NoteNumber":58,"Velocity":36,"Duration":270110,"SoundDuration":270110,"Delta":77176601},{"NoteNumber":73,"Velocity":44,"Duration":143925,"SoundDuration":143925,"Delta":77302785},{"NoteNumber":72,"Velocity":41,"Duration":145685,"SoundDuration":145685,"Delta":77430582},{"NoteNumber":67,"Velocity":27,"Duration":276620,"SoundDuration":276620,"Delta":77430582},{"NoteNumber":70,"Velocity":39,"Duration":147169,"SoundDuration":147169,"Delta":77560033},{"NoteNumber":72,"Velocity":37,"Duration":149119,"SoundDuration":149119,"Delta":77690755},{"NoteNumber":61,"Velocity":26,"Duration":266684,"SoundDuration":266684,"Delta":77690755},{"NoteNumber":73,"Velocity":35,"Duration":134231,"SoundDuration":134231,"Delta":77823208},{"NoteNumber":65,"Velocity":55,"Duration":169330,"SoundDuration":169330,"Delta":77957439},{"NoteNumber":53,"Velocity":36,"Duration":305157,"SoundDuration":305157,"Delta":77957439},{"NoteNumber":84,"Velocity":51,"Duration":152718,"SoundDuration":152718,"Delta":78109878},{"NoteNumber":82,"Velocity":51,"Duration":155416,"SoundDuration":155416,"Delta":78245473},{"NoteNumber":68,"Velocity":28,"Duration":296017,"SoundDuration":296017,"Delta":78245473},{"NoteNumber":80,"Velocity":50,"Duration":158083,"SoundDuration":158083,"Delta":78383407},{"NoteNumber":79,"Velocity":49,"Duration":160976,"SoundDuration":160976,"Delta":78523760},{"NoteNumber":60,"Velocity":28,"Duration":288317,"SoundDuration":288317,"Delta":78523760},{"NoteNumber":77,"Velocity":48,"Duration":145456,"SoundDuration":145456,"Delta":78666621},{"NoteNumber":75,"Velocity":42,"Duration":166949,"SoundDuration":166949,"Delta":78812077},{"NoteNumber":58,"Velocity":35,"Duration":318181,"SoundDuration":318181,"Delta":78812077},{"NoteNumber":73,"Velocity":41,"Duration":170029,"SoundDuration":170029,"Delta":78960229},{"NoteNumber":72,"Velocity":39,"Duration":173381,"SoundDuration":173381,"Delta":79111175},{"NoteNumber":67,"Velocity":31,"Duration":329631,"SoundDuration":329631,"Delta":79111175},{"NoteNumber":70,"Velocity":40,"Duration":175781,"SoundDuration":175781,"Delta":79265026},{"NoteNumber":72,"Velocity":40,"Duration":175781,"SoundDuration":175781,"Delta":79421276},{"NoteNumber":61,"Velocity":28,"Duration":842080,"SoundDuration":842080,"Delta":79421276},{"NoteNumber":75,"Velocity":50,"Duration":156250,"SoundDuration":156250,"Delta":79577526},{"NoteNumber":73,"Velocity":46,"Duration":215115,"SoundDuration":215115,"Delta":79733776},{"NoteNumber":72,"Velocity":44,"Duration":314465,"SoundDuration":314465,"Delta":79948891},{"NoteNumber":53,"Velocity":27,"Duration":6194267,"SoundDuration":6194267,"Delta":80263357},{"NoteNumber":60,"Velocity":33,"Duration":6079131,"SoundDuration":6079131,"Delta":80378493},{"NoteNumber":65,"Velocity":40,"Duration":5963994,"SoundDuration":5963994,"Delta":80493630},{"NoteNumber":68,"Velocity":40,"Duration":5848858,"SoundDuration":5848858,"Delta":80608767},{"NoteNumber":72,"Velocity":55,"Duration":1212120,"SoundDuration":1212120,"Delta":80723903},{"NoteNumber":72,"Velocity":44,"Duration":674460,"SoundDuration":674460,"Delta":81936024},{"NoteNumber":72,"Velocity":41,"Duration":769428,"SoundDuration":769428,"Delta":82610485},{"NoteNumber":72,"Velocity":40,"Duration":3077711,"SoundDuration":3077711,"Delta":83379913}],"license":{"name":"Creative Commons Attribution-ShareAlike 3.0 Germany","url":"http://creativecommons.org/licenses/by-sa/3.0/de/deed.en","text":"The MIDI, audio (MP3, OGG) and video files of Bernd Krueger are licensed under the cc-by-sa Germany License. This means that you can use and adapt the files, as long as you attribute the copyright holder.\n\nName: Bernd Krueger\nSource: http://www.piano-midi.de\n\nThe distribution or public playback of the files is only allowed under identical license conditions.\n\nThe scores are open source.","attribution":"MIDI files by Bernd Krueger (piano-midi.de)"}}