{"title":"Mazurka Opus 33 Nr. 2","artist":"Chopin","durationMs":140293,"midiSha256":"3833eba97b2f1d8458ef7872ef4969222ae793272ee3836668d09b8a3a225173","midiObject":[{"NoteNumber":69,"Velocity":77,"Duration":490954,"SoundDuration":490954,"Delta":0},{"NoteNumber":66,"Velocity":68,"Duration":294189,"SoundDuration":294189,"Delta":343860},{"NoteNumber":50,"Velocity":59,"Duration":147094,"SoundDuration":147094,"Delta":343860},{"NoteNumber":73,"Velocity":70,"Duration":147094,"SoundDuration":147094,"Delta":490955},{"NoteNumber":74,"Velocity":71,"Duration":143823,"SoundDuration":143823,"Delta":638050},{"NoteNumber":66,"Velocity":60,"Duration":287646,"SoundDuration":287646,"Delta":638050},{"NoteNumber":50,"Velocity":52,"Duration":287646,"SoundDuration":287646,"Delta":638050},{"NoteNumber":57,"Velocity":52,"Duration":287646,"SoundDuration":287646,"Delta":638050},{"NoteNumber":62,"Velocity":52,"Duration":287646,"SoundDuration":287646,"Delta":638050},{"NoteNumber":76,"Velocity":71,"Duration":143823,"SoundDuration":143823,"Delta":781873},{"NoteNumber":78,"Velocity":72,"Duration":148595,"SoundDuration":148595,"Delta":925696},{"NoteNumber":66,"Velocity":61,"Duration":315494,"SoundDuration":315494,"Delta":925696},{"NoteNumber":50,"Velocity":52,"Duration":315494,"SoundDuration":315494,"Delta":925696},{"NoteNumber":57,"Velocity":52,"Duration":315494,"SoundDuration":315494,"Delta":925696},{"NoteNumber":62,"Velocity":52,"Duration":315494,"SoundDuration":315494,"Delta":925696},{"NoteNumber":79,"Velocity":73,"Duration":83449,"SoundDuration":83449,"Delta":1074292},{"NoteNumber":78,"Velocity":70,"Duration":41724,"SoundDuration":41724,"Delta":1157741},{"NoteNumber":79,"Velocity":68,"Duration":41724,"SoundDuration":41724,"Delta":1199465},{"NoteNumber":78,"Velocity":76,"Duration":302495,"SoundDuration":302495,"Delta":1241190},{"NoteNumber":45,"Velocity":59,"Duration":151248,"SoundDuration":151248,"Delta":1241190},{"NoteNumber":67,"Velocity":62,"Duration":293039,"SoundDuration":293039,"Delta":1543686},{"NoteNumber":76,"Velocity":74,"Duration":146520,"SoundDuration":146520,"Delta":1543686},{"NoteNumber":52,"Velocity":54,"Duration":293039,"SoundDuration":293039,"Delta":1543686},{"NoteNumber":57,"Velocity":54,"Duration":293039,"SoundDuration":293039,"Delta":1543686},{"NoteNumber":61,"Velocity":54,"Duration":293039,"SoundDuration":293039,"Delta":1543686},{"NoteNumber":74,"Velocity":74,"Duration":146519,"SoundDuration":146519,"Delta":1690206},{"NoteNumber":67,"Velocity":62,"Duration":293039,"SoundDuration":293039,"Delta":1836726},{"NoteNumber":73,"Velocity":73,"Duration":146520,"SoundDuration":146520,"Delta":1836726},{"NoteNumber":52,"Velocity":54,"Duration":293039,"SoundDuration":293039,"Delta":1836726},{"NoteNumber":57,"Velocity":54,"Duration":293039,"SoundDuration":293039,"Delta":1836726},{"NoteNumber":61,"Velocity":54,"Duration":293039,"SoundDuration":293039,"Delta":1836726},{"NoteNumber":71,"Velocity":72,"Duration":146519,"SoundDuration":146519,"Delta":1983246},{"NoteNumber":69,"Velocity":74,"Duration":143822,"SoundDuration":143822,"Delta":2129766},{"NoteNumber":38,"Velocity":59,"Duration":143822,"SoundDuration":143822,"Delta":2129766},{"NoteNumber":74,"Velocity":70,"Duration":143823,"SoundDuration":143823,"Delta":2273589},{"NoteNumber":66,"Velocity":62,"Duration":309836,"SoundDuration":309836,"Delta":2417412},{"NoteNumber":74,"Velocity":74,"Duration":103279,"SoundDuration":103279,"Delta":2417412},{"NoteNumber":50,"Velocity":54,"Duration":309836,"SoundDuration":309836,"Delta":2417412},{"NoteNumber":57,"Velocity":54,"Duration":309836,"SoundDuration":309836,"Delta":2417412},{"NoteNumber":62,"Velocity":54,"Duration":309836,"SoundDuration":309836,"Delta":2417412},{"NoteNumber":76,"Velocity":70,"Duration":103278,"SoundDuration":103278,"Delta":2520691},{"NoteNumber":74,"Velocity":70,"Duration":103279,"SoundDuration":103279,"Delta":2623970},{"NoteNumber":66,"Velocity":59,"Duration":303383,"SoundDuration":303383,"Delta":2727249},{"NoteNumber":73,"Velocity":70,"Duration":151691,"SoundDuration":151691,"Delta":2727249},{"NoteNumber":50,"Velocity":54,"Duration":303383,"SoundDuration":303383,"Delta":2727249},{"NoteNumber":57,"Velocity":54,"Duration":303383,"SoundDuration":303383,"Delta":2727249},{"NoteNumber":62,"Velocity":54,"Duration":303383,"SoundDuration":303383,"Delta":2727249},{"NoteNumber":71,"Velocity":70,"Duration":151691,"SoundDuration":151691,"Delta":2878941},{"NoteNumber":73,"Velocity":73,"Duration":1014813,"SoundDuration":1014813,"Delta":3030632},{"NoteNumber":45,"Velocity":59,"Duration":158286,"SoundDuration":158286,"Delta":3030632},{"NoteNumber":64,"Velocity":44,"Duration":331895,"SoundDuration":331895,"Delta":3347205},{"NoteNumber":69,"Velocity":53,"Duration":331895,"SoundDuration":331895,"Delta":3347205},{"NoteNumber":57,"Velocity":43,"Duration":331895,"SoundDuration":331895,"Delta":3347205},{"NoteNumber":67,"Velocity":57,"Duration":366344,"SoundDuration":366344,"Delta":3679100},{"NoteNumber":69,"Velocity":68,"Duration":366344,"SoundDuration":366344,"Delta":3679100},{"NoteNumber":57,"Velocity":56,"Duration":366344,"SoundDuration":366344,"Delta":3679100},{"NoteNumber":64,"Velocity":56,"Duration":366344,"SoundDuration":366344,"Delta":3679100},{"NoteNumber":69,"Velocity":74,"Duration":147095,"SoundDuration":147095,"Delta":4045445},{"NoteNumber":50,"Velocity":59,"Duration":147095,"SoundDuration":147095,"Delta":4045445},{"NoteNumber":73,"Velocity":70,"Duration":147095,"SoundDuration":147095,"Delta":4192540},{"NoteNumber":74,"Velocity":71,"Duration":143823,"SoundDuration":143823,"Delta":4339635},{"NoteNumber":66,"Velocity":60,"Duration":287645,"SoundDuration":287645,"Delta":4339635},{"NoteNumber":57,"Velocity":52,"Duration":287645,"SoundDuration":287645,"Delta":4339635},{"NoteNumber":62,"Velocity":52,"Duration":287645,"SoundDuration":287645,"Delta":4339635},{"NoteNumber":76,"Velocity":71,"Duration":143822,"SoundDuration":143822,"Delta":4483458},{"NoteNumber":78,"Velocity":72,"Duration":148596,"SoundDuration":148596,"Delta":4627281},{"NoteNumber":66,"Velocity":61,"Duration":308179,"SoundDuration":308179,"Delta":4627281},{"NoteNumber":50,"Velocity":52,"Duration":308179,"SoundDuration":308179,"Delta":4627281},{"NoteNumber":57,"Velocity":52,"Duration":308179,"SoundDuration":308179,"Delta":4627281},{"NoteNumber":62,"Velocity":52,"Duration":308179,"SoundDuration":308179,"Delta":4627281},{"NoteNumber":79,"Velocity":73,"Duration":79791,"SoundDuration":79791,"Delta":4775877},{"NoteNumber":78,"Velocity":70,"Duration":39895,"SoundDuration":39895,"Delta":4855669},{"NoteNumber":79,"Velocity":68,"Duration":39895,"SoundDuration":39895,"Delta":4895564},{"NoteNumber":78,"Velocity":76,"Duration":302495,"SoundDuration":302495,"Delta":4935460},{"NoteNumber":43,"Velocity":59,"Duration":151247,"SoundDuration":151247,"Delta":4935460},{"NoteNumber":67,"Velocity":62,"Duration":293040,"SoundDuration":293040,"Delta":5237956},{"NoteNumber":76,"Velocity":74,"Duration":146519,"SoundDuration":146519,"Delta":5237956},{"NoteNumber":59,"Velocity":54,"Duration":293040,"SoundDuration":293040,"Delta":5237956},{"NoteNumber":64,"Velocity":54,"Duration":293040,"SoundDuration":293040,"Delta":5237956},{"NoteNumber":74,"Velocity":74,"Duration":146520,"SoundDuration":146520,"Delta":5384476},{"NoteNumber":67,"Velocity":62,"Duration":293039,"SoundDuration":293039,"Delta":5530996},{"NoteNumber":73,"Velocity":73,"Duration":146519,"SoundDuration":146519,"Delta":5530996},{"NoteNumber":52,"Velocity":54,"Duration":293039,"SoundDuration":293039,"Delta":5530996},{"NoteNumber":59,"Velocity":54,"Duration":293039,"SoundDuration":293039,"Delta":5530996},{"NoteNumber":64,"Velocity":54,"Duration":293039,"SoundDuration":293039,"Delta":5530996},{"NoteNumber":71,"Velocity":72,"Duration":146519,"SoundDuration":146519,"Delta":5677516},{"NoteNumber":69,"Velocity":74,"Duration":143823,"SoundDuration":143823,"Delta":5824036},{"NoteNumber":45,"Velocity":59,"Duration":143823,"SoundDuration":143823,"Delta":5824036},{"NoteNumber":73,"Velocity":70,"Duration":143822,"SoundDuration":143822,"Delta":5967859},{"NoteNumber":67,"Velocity":62,"Duration":309836,"SoundDuration":309836,"Delta":6111682},{"NoteNumber":73,"Velocity":74,"Duration":103278,"SoundDuration":103278,"Delta":6111682},{"NoteNumber":57,"Velocity":54,"Duration":309836,"SoundDuration":309836,"Delta":6111682},{"NoteNumber":64,"Velocity":54,"Duration":309836,"SoundDuration":309836,"Delta":6111682},{"NoteNumber":74,"Velocity":70,"Duration":103279,"SoundDuration":103279,"Delta":6214961},{"NoteNumber":73,"Velocity":70,"Duration":103278,"SoundDuration":103278,"Delta":6318240},{"NoteNumber":67,"Velocity":59,"Duration":303383,"SoundDuration":303383,"Delta":6421519},{"NoteNumber":71,"Velocity":70,"Duration":151691,"SoundDuration":151691,"Delta":6421519},{"NoteNumber":57,"Velocity":54,"Duration":303383,"SoundDuration":303383,"Delta":6421519},{"NoteNumber":64,"Velocity":54,"Duration":303383,"SoundDuration":303383,"Delta":6421519},{"NoteNumber":69,"Velocity":70,"Duration":151691,"SoundDuration":151691,"Delta":6573211},{"NoteNumber":74,"Velocity":73,"Duration":983620,"SoundDuration":983620,"Delta":6724902},{"NoteNumber":38,"Velocity":59,"Duration":156584,"SoundDuration":156584,"Delta":6724902},{"NoteNumber":66,"Velocity":53,"Duration":317427,"SoundDuration":317427,"Delta":7038071},{"NoteNumber":50,"Velocity":36,"Duration":317427,"SoundDuration":317427,"Delta":7038071},{"NoteNumber":57,"Velocity":36,"Duration":317427,"SoundDuration":317427,"Delta":7038071},{"NoteNumber":62,"Velocity":43,"Duration":317427,"SoundDuration":317427,"Delta":7038071},{"NoteNumber":66,"Velocity":47,"Duration":654107,"SoundDuration":654107,"Delta":7355498},{"NoteNumber":50,"Velocity":39,"Duration":654107,"SoundDuration":654107,"Delta":7355498},{"NoteNumber":57,"Velocity":39,"Duration":654107,"SoundDuration":654107,"Delta":7355498},{"NoteNumber":62,"Velocity":39,"Duration":654107,"SoundDuration":654107,"Delta":7355498},{"NoteNumber":69,"Velocity":40,"Duration":150541,"SoundDuration":150541,"Delta":7708522},{"NoteNumber":73,"Velocity":39,"Duration":150541,"SoundDuration":150541,"Delta":7859064},{"NoteNumber":74,"Velocity":39,"Duration":147195,"SoundDuration":147195,"Delta":8009606},{"NoteNumber":66,"Velocity":33,"Duration":294392,"SoundDuration":294392,"Delta":8009606},{"NoteNumber":50,"Velocity":23,"Duration":294392,"SoundDuration":294392,"Delta":8009606},{"NoteNumber":57,"Velocity":23,"Duration":294392,"SoundDuration":294392,"Delta":8009606},{"NoteNumber":62,"Velocity":23,"Duration":294392,"SoundDuration":294392,"Delta":8009606},{"NoteNumber":76,"Velocity":39,"Duration":147196,"SoundDuration":147196,"Delta":8156802},{"NoteNumber":78,"Velocity":40,"Duration":152075,"SoundDuration":152075,"Delta":8303998},{"NoteNumber":66,"Velocity":33,"Duration":319936,"SoundDuration":319936,"Delta":8303998},{"NoteNumber":50,"Velocity":23,"Duration":319936,"SoundDuration":319936,"Delta":8303998},{"NoteNumber":57,"Velocity":23,"Duration":319936,"SoundDuration":319936,"Delta":8303998},{"NoteNumber":62,"Velocity":23,"Duration":319936,"SoundDuration":319936,"Delta":8303998},{"NoteNumber":79,"Velocity":40,"Duration":83930,"SoundDuration":83930,"Delta":8456074},{"NoteNumber":78,"Velocity":39,"Duration":41965,"SoundDuration":41965,"Delta":8540004},{"NoteNumber":79,"Velocity":37,"Duration":41965,"SoundDuration":41965,"Delta":8581969},{"NoteNumber":78,"Velocity":42,"Duration":309597,"SoundDuration":309597,"Delta":8623934},{"NoteNumber":45,"Velocity":27,"Duration":154799,"SoundDuration":154799,"Delta":8623934},{"NoteNumber":67,"Velocity":34,"Duration":299925,"SoundDuration":299925,"Delta":8933532},{"NoteNumber":76,"Velocity":40,"Duration":149962,"SoundDuration":149962,"Delta":8933532},{"NoteNumber":52,"Velocity":24,"Duration":299925,"SoundDuration":299925,"Delta":8933532},{"NoteNumber":57,"Velocity":24,"Duration":299925,"SoundDuration":299925,"Delta":8933532},{"NoteNumber":61,"Velocity":24,"Duration":299925,"SoundDuration":299925,"Delta":8933532},{"NoteNumber":74,"Velocity":40,"Duration":149962,"SoundDuration":149962,"Delta":9083495},{"NoteNumber":67,"Velocity":34,"Duration":299925,"SoundDuration":299925,"Delta":9233457},{"NoteNumber":73,"Velocity":40,"Duration":149962,"SoundDuration":149962,"Delta":9233457},{"NoteNumber":52,"Velocity":24,"Duration":299925,"SoundDuration":299925,"Delta":9233457},{"NoteNumber":57,"Velocity":24,"Duration":299925,"SoundDuration":299925,"Delta":9233457},{"NoteNumber":61,"Velocity":24,"Duration":299925,"SoundDuration":299925,"Delta":9233457},{"NoteNumber":71,"Velocity":40,"Duration":149962,"SoundDuration":149962,"Delta":9383420},{"NoteNumber":69,"Velocity":40,"Duration":147195,"SoundDuration":147195,"Delta":9533382},{"NoteNumber":38,"Velocity":27,"Duration":147195,"SoundDuration":147195,"Delta":9533382},{"NoteNumber":74,"Velocity":39,"Duration":147196,"SoundDuration":147196,"Delta":9680578},{"NoteNumber":66,"Velocity":34,"Duration":317107,"SoundDuration":317107,"Delta":9827774},{"NoteNumber":74,"Velocity":40,"Duration":105702,"SoundDuration":105702,"Delta":9827774},{"NoteNumber":50,"Velocity":24,"Duration":317107,"SoundDuration":317107,"Delta":9827774},{"NoteNumber":57,"Velocity":24,"Duration":317107,"SoundDuration":317107,"Delta":9827774},{"NoteNumber":62,"Velocity":24,"Duration":317107,"SoundDuration":317107,"Delta":9827774},{"NoteNumber":76,"Velocity":39,"Duration":105702,"SoundDuration":105702,"Delta":9933477},{"NoteNumber":74,"Velocity":39,"Duration":105702,"SoundDuration":105702,"Delta":10039180},{"NoteNumber":66,"Velocity":32,"Duration":310494,"SoundDuration":310494,"Delta":10144882},{"NoteNumber":73,"Velocity":39,"Duration":155247,"SoundDuration":155247,"Delta":10144882},{"NoteNumber":50,"Velocity":24,"Duration":310494,"SoundDuration":310494,"Delta":10144882},{"NoteNumber":57,"Velocity":24,"Duration":310494,"SoundDuration":310494,"Delta":10144882},{"NoteNumber":62,"Velocity":24,"Duration":310494,"SoundDuration":310494,"Delta":10144882},{"NoteNumber":71,"Velocity":39,"Duration":155247,"SoundDuration":155247,"Delta":10300130},{"NoteNumber":73,"Velocity":40,"Duration":1017300,"SoundDuration":1017300,"Delta":10455377},{"NoteNumber":45,"Velocity":27,"Duration":160247,"SoundDuration":160247,"Delta":10455377},{"NoteNumber":64,"Velocity":24,"Duration":341627,"SoundDuration":341627,"Delta":10775873},{"NoteNumber":69,"Velocity":29,"Duration":341627,"SoundDuration":341627,"Delta":10775873},{"NoteNumber":61,"Velocity":20,"Duration":341627,"SoundDuration":341627,"Delta":10775873},{"NoteNumber":57,"Velocity":20,"Duration":341627,"SoundDuration":341627,"Delta":10775873},{"NoteNumber":67,"Velocity":31,"Duration":355176,"SoundDuration":355176,"Delta":11117500},{"NoteNumber":69,"Velocity":37,"Duration":355176,"SoundDuration":355176,"Delta":11117500},{"NoteNumber":57,"Velocity":26,"Duration":656260,"SoundDuration":656260,"Delta":11117500},{"NoteNumber":64,"Velocity":26,"Duration":355176,"SoundDuration":355176,"Delta":11117500},{"NoteNumber":69,"Velocity":40,"Duration":150541,"SoundDuration":150541,"Delta":11472677},{"NoteNumber":50,"Velocity":27,"Duration":301083,"SoundDuration":301083,"Delta":11472677},{"NoteNumber":73,"Velocity":39,"Duration":150541,"SoundDuration":150541,"Delta":11623219},{"NoteNumber":74,"Velocity":39,"Duration":147195,"SoundDuration":147195,"Delta":11773761},{"NoteNumber":66,"Velocity":33,"Duration":294392,"SoundDuration":294392,"Delta":11773761},{"NoteNumber":57,"Velocity":23,"Duration":294392,"SoundDuration":294392,"Delta":11773761},{"NoteNumber":62,"Velocity":23,"Duration":294392,"SoundDuration":294392,"Delta":11773761},{"NoteNumber":76,"Velocity":39,"Duration":147196,"SoundDuration":147196,"Delta":11920957},{"NoteNumber":78,"Velocity":40,"Duration":152075,"SoundDuration":152075,"Delta":12068153},{"NoteNumber":66,"Velocity":33,"Duration":318023,"SoundDuration":318023,"Delta":12068153},{"NoteNumber":50,"Velocity":23,"Duration":318023,"SoundDuration":318023,"Delta":12068153},{"NoteNumber":57,"Velocity":23,"Duration":318023,"SoundDuration":318023,"Delta":12068153},{"NoteNumber":62,"Velocity":23,"Duration":318023,"SoundDuration":318023,"Delta":12068153},{"NoteNumber":79,"Velocity":40,"Duration":82973,"SoundDuration":82973,"Delta":12220229},{"NoteNumber":78,"Velocity":39,"Duration":41486,"SoundDuration":41486,"Delta":12303203},{"NoteNumber":79,"Velocity":37,"Duration":41486,"SoundDuration":41486,"Delta":12344690},{"NoteNumber":78,"Velocity":42,"Duration":309597,"SoundDuration":309597,"Delta":12386177},{"NoteNumber":43,"Velocity":27,"Duration":154799,"SoundDuration":154799,"Delta":12386177},{"NoteNumber":67,"Velocity":34,"Duration":299925,"SoundDuration":299925,"Delta":12695775},{"NoteNumber":76,"Velocity":40,"Duration":149962,"SoundDuration":149962,"Delta":12695775},{"NoteNumber":59,"Velocity":24,"Duration":299925,"SoundDuration":299925,"Delta":12695775},{"NoteNumber":64,"Velocity":24,"Duration":299925,"SoundDuration":299925,"Delta":12695775},{"NoteNumber":74,"Velocity":40,"Duration":149962,"SoundDuration":149962,"Delta":12845737},{"NoteNumber":67,"Velocity":34,"Duration":299925,"SoundDuration":299925,"Delta":12995700},{"NoteNumber":73,"Velocity":40,"Duration":149962,"SoundDuration":149962,"Delta":12995700},{"NoteNumber":52,"Velocity":24,"Duration":299925,"SoundDuration":299925,"Delta":12995700},{"NoteNumber":59,"Velocity":24,"Duration":299925,"SoundDuration":299925,"Delta":12995700},{"NoteNumber":64,"Velocity":24,"Duration":299925,"SoundDuration":299925,"Delta":12995700},{"NoteNumber":71,"Velocity":40,"Duration":149962,"SoundDuration":149962,"Delta":13145662},{"NoteNumber":69,"Velocity":40,"Duration":147195,"SoundDuration":147195,"Delta":13295625},{"NoteNumber":45,"Velocity":27,"Duration":147195,"SoundDuration":147195,"Delta":13295625},{"NoteNumber":73,"Velocity":39,"Duration":147196,"SoundDuration":147196,"Delta":13442821},{"NoteNumber":67,"Velocity":34,"Duration":317107,"SoundDuration":317107,"Delta":13590017},{"NoteNumber":73,"Velocity":40,"Duration":105702,"SoundDuration":105702,"Delta":13590017},{"NoteNumber":57,"Velocity":24,"Duration":317107,"SoundDuration":317107,"Delta":13590017},{"NoteNumber":64,"Velocity":24,"Duration":317107,"SoundDuration":317107,"Delta":13590017},{"NoteNumber":74,"Velocity":39,"Duration":105702,"SoundDuration":105702,"Delta":13695720},{"NoteNumber":73,"Velocity":39,"Duration":105702,"SoundDuration":105702,"Delta":13801422},{"NoteNumber":67,"Velocity":32,"Duration":310494,"SoundDuration":310494,"Delta":13907125},{"NoteNumber":71,"Velocity":39,"Duration":155247,"SoundDuration":155247,"Delta":13907125},{"NoteNumber":57,"Velocity":24,"Duration":310494,"SoundDuration":310494,"Delta":13907125},{"NoteNumber":64,"Velocity":24,"Duration":310494,"SoundDuration":310494,"Delta":13907125},{"NoteNumber":69,"Velocity":39,"Duration":155247,"SoundDuration":155247,"Delta":14062372},{"NoteNumber":74,"Velocity":40,"Duration":985016,"SoundDuration":985016,"Delta":14217620},{"NoteNumber":38,"Velocity":27,"Duration":160247,"SoundDuration":160247,"Delta":14217620},{"NoteNumber":66,"Velocity":29,"Duration":324885,"SoundDuration":324885,"Delta":14538116},{"NoteNumber":50,"Velocity":17,"Duration":324885,"SoundDuration":324885,"Delta":14538116},{"NoteNumber":57,"Velocity":17,"Duration":324885,"SoundDuration":324885,"Delta":14538116},{"NoteNumber":62,"Velocity":20,"Duration":324885,"SoundDuration":324885,"Delta":14538116},{"NoteNumber":66,"Velocity":37,"Duration":339634,"SoundDuration":339634,"Delta":14863002},{"NoteNumber":50,"Velocity":26,"Duration":339634,"SoundDuration":339634,"Delta":14863002},{"NoteNumber":57,"Velocity":26,"Duration":339634,"SoundDuration":339634,"Delta":14863002},{"NoteNumber":62,"Velocity":26,"Duration":339634,"SoundDuration":339634,"Delta":14863002},{"NoteNumber":64,"Velocity":73,"Duration":147095,"SoundDuration":147095,"Delta":15202637},{"NoteNumber":45,"Velocity":59,"Duration":147095,"SoundDuration":147095,"Delta":15202637},{"NoteNumber":68,"Velocity":70,"Duration":147095,"SoundDuration":147095,"Delta":15349732},{"NoteNumber":69,"Velocity":71,"Duration":143823,"SoundDuration":143823,"Delta":15496827},{"NoteNumber":61,"Velocity":60,"Duration":287645,"SoundDuration":287645,"Delta":15496827},{"NoteNumber":45,"Velocity":52,"Duration":287645,"SoundDuration":287645,"Delta":15496827},{"NoteNumber":52,"Velocity":52,"Duration":287645,"SoundDuration":287645,"Delta":15496827},{"NoteNumber":57,"Velocity":52,"Duration":287645,"SoundDuration":287645,"Delta":15496827},{"NoteNumber":71,"Velocity":71,"Duration":143822,"SoundDuration":143822,"Delta":15640650},{"NoteNumber":73,"Velocity":72,"Duration":148596,"SoundDuration":148596,"Delta":15784473},{"NoteNumber":61,"Velocity":61,"Duration":316946,"SoundDuration":316946,"Delta":15784473},{"NoteNumber":45,"Velocity":52,"Duration":316946,"SoundDuration":316946,"Delta":15784473},{"NoteNumber":52,"Velocity":52,"Duration":316946,"SoundDuration":316946,"Delta":15784473},{"NoteNumber":57,"Velocity":52,"Duration":316946,"SoundDuration":316946,"Delta":15784473},{"NoteNumber":74,"Velocity":73,"Duration":84174,"SoundDuration":84174,"Delta":15933069},{"NoteNumber":73,"Velocity":70,"Duration":42087,"SoundDuration":42087,"Delta":16017244},{"NoteNumber":74,"Velocity":68,"Duration":42087,"SoundDuration":42087,"Delta":16059331},{"NoteNumber":73,"Velocity":76,"Duration":302496,"SoundDuration":302496,"Delta":16101419},{"NoteNumber":40,"Velocity":59,"Duration":151247,"SoundDuration":151247,"Delta":16101419},{"NoteNumber":62,"Velocity":62,"Duration":293040,"SoundDuration":293040,"Delta":16403915},{"NoteNumber":71,"Velocity":74,"Duration":146519,"SoundDuration":146519,"Delta":16403915},{"NoteNumber":52,"Velocity":54,"Duration":293040,"SoundDuration":293040,"Delta":16403915},{"NoteNumber":59,"Velocity":54,"Duration":293040,"SoundDuration":293040,"Delta":16403915},{"NoteNumber":69,"Velocity":74,"Duration":146520,"SoundDuration":146520,"Delta":16550435},{"NoteNumber":62,"Velocity":62,"Duration":293039,"SoundDuration":293039,"Delta":16696955},{"NoteNumber":68,"Velocity":73,"Duration":146519,"SoundDuration":146519,"Delta":16696955},{"NoteNumber":52,"Velocity":54,"Duration":293039,"SoundDuration":293039,"Delta":16696955},{"NoteNumber":59,"Velocity":54,"Duration":293039,"SoundDuration":293039,"Delta":16696955},{"NoteNumber":66,"Velocity":72,"Duration":146519,"SoundDuration":146519,"Delta":16843475},{"NoteNumber":64,"Velocity":74,"Duration":143823,"SoundDuration":143823,"Delta":16989995},{"NoteNumber":33,"Velocity":59,"Duration":143823,"SoundDuration":143823,"Delta":16989995},{"NoteNumber":69,"Velocity":70,"Duration":143822,"SoundDuration":143822,"Delta":17133818},{"NoteNumber":61,"Velocity":62,"Duration":309837,"SoundDuration":309837,"Delta":17277641},{"NoteNumber":69,"Velocity":74,"Duration":103279,"SoundDuration":103279,"Delta":17277641},{"NoteNumber":45,"Velocity":54,"Duration":309837,"SoundDuration":309837,"Delta":17277641},{"NoteNumber":52,"Velocity":54,"Duration":309837,"SoundDuration":309837,"Delta":17277641},{"NoteNumber":57,"Velocity":54,"Duration":309837,"SoundDuration":309837,"Delta":17277641},{"NoteNumber":71,"Velocity":70,"Duration":103279,"SoundDuration":103279,"Delta":17380920},{"NoteNumber":69,"Velocity":70,"Duration":103279,"SoundDuration":103279,"Delta":17484199},{"NoteNumber":61,"Velocity":59,"Duration":303383,"SoundDuration":303383,"Delta":17587478},{"NoteNumber":68,"Velocity":70,"Duration":151691,"SoundDuration":151691,"Delta":17587478},{"NoteNumber":45,"Velocity":54,"Duration":303383,"SoundDuration":303383,"Delta":17587478},{"NoteNumber":52,"Velocity":54,"Duration":303383,"SoundDuration":303383,"Delta":17587478},{"NoteNumber":57,"Velocity":54,"Duration":303383,"SoundDuration":303383,"Delta":17587478},{"NoteNumber":66,"Velocity":70,"Duration":151691,"SoundDuration":151691,"Delta":17739169},{"NoteNumber":68,"Velocity":73,"Duration":1005433,"SoundDuration":1005433,"Delta":17890861},{"NoteNumber":40,"Velocity":59,"Duration":159583,"SoundDuration":159583,"Delta":17890861},{"NoteNumber":59,"Velocity":44,"Duration":330014,"SoundDuration":330014,"Delta":18210027},{"NoteNumber":64,"Velocity":53,"Duration":330014,"SoundDuration":330014,"Delta":18210027},{"NoteNumber":52,"Velocity":43,"Duration":330014,"SoundDuration":330014,"Delta":18210027},{"NoteNumber":62,"Velocity":57,"Duration":356252,"SoundDuration":356252,"Delta":18540042},{"NoteNumber":64,"Velocity":68,"Duration":356252,"SoundDuration":356252,"Delta":18540042},{"NoteNumber":52,"Velocity":56,"Duration":356252,"SoundDuration":356252,"Delta":18540042},{"NoteNumber":59,"Velocity":56,"Duration":356252,"SoundDuration":356252,"Delta":18540042},{"NoteNumber":64,"Velocity":74,"Duration":147095,"SoundDuration":147095,"Delta":18896294},{"NoteNumber":45,"Velocity":59,"Duration":147095,"SoundDuration":147095,"Delta":18896294},{"NoteNumber":68,"Velocity":70,"Duration":147095,"SoundDuration":147095,"Delta":19043389},{"NoteNumber":69,"Velocity":71,"Duration":143823,"SoundDuration":143823,"Delta":19190484},{"NoteNumber":61,"Velocity":60,"Duration":287645,"SoundDuration":287645,"Delta":19190484},{"NoteNumber":52,"Velocity":52,"Duration":287645,"SoundDuration":287645,"Delta":19190484},{"NoteNumber":57,"Velocity":52,"Duration":287645,"SoundDuration":287645,"Delta":19190484},{"NoteNumber":71,"Velocity":71,"Duration":143822,"SoundDuration":143822,"Delta":19334307},{"NoteNumber":73,"Velocity":72,"Duration":148596,"SoundDuration":148596,"Delta":19478130},{"NoteNumber":61,"Velocity":61,"Duration":313603,"SoundDuration":313603,"Delta":19478130},{"NoteNumber":45,"Velocity":52,"Duration":313603,"SoundDuration":313603,"Delta":19478130},{"NoteNumber":52,"Velocity":52,"Duration":313603,"SoundDuration":313603,"Delta":19478130},{"NoteNumber":57,"Velocity":52,"Duration":313603,"SoundDuration":313603,"Delta":19478130},{"NoteNumber":74,"Velocity":73,"Duration":82503,"SoundDuration":82503,"Delta":19626726},{"NoteNumber":73,"Velocity":70,"Duration":41251,"SoundDuration":41251,"Delta":19709230},{"NoteNumber":74,"Velocity":68,"Duration":41251,"SoundDuration":41251,"Delta":19750482},{"NoteNumber":73,"Velocity":76,"Duration":302496,"SoundDuration":302496,"Delta":19791733},{"NoteNumber":38,"Velocity":59,"Duration":151247,"SoundDuration":151247,"Delta":19791733},{"NoteNumber":62,"Velocity":62,"Duration":293040,"SoundDuration":293040,"Delta":20094230},{"NoteNumber":71,"Velocity":74,"Duration":146519,"SoundDuration":146519,"Delta":20094230},{"NoteNumber":54,"Velocity":54,"Duration":293040,"SoundDuration":293040,"Delta":20094230},{"NoteNumber":59,"Velocity":54,"Duration":293040,"SoundDuration":293040,"Delta":20094230},{"NoteNumber":69,"Velocity":74,"Duration":146520,"SoundDuration":146520,"Delta":20240749},{"NoteNumber":62,"Velocity":62,"Duration":293039,"SoundDuration":293039,"Delta":20387270},{"NoteNumber":68,"Velocity":73,"Duration":146519,"SoundDuration":146519,"Delta":20387270},{"NoteNumber":47,"Velocity":54,"Duration":293039,"SoundDuration":293039,"Delta":20387270},{"NoteNumber":54,"Velocity":54,"Duration":293039,"SoundDuration":293039,"Delta":20387270},{"NoteNumber":59,"Velocity":54,"Duration":293039,"SoundDuration":293039,"Delta":20387270},{"NoteNumber":66,"Velocity":72,"Duration":146519,"SoundDuration":146519,"Delta":20533790},{"NoteNumber":64,"Velocity":74,"Duration":143823,"SoundDuration":143823,"Delta":20680309},{"NoteNumber":40,"Velocity":59,"Duration":143823,"SoundDuration":143823,"Delta":20680309},{"NoteNumber":68,"Velocity":70,"Duration":143822,"SoundDuration":143822,"Delta":20824133},{"NoteNumber":62,"Velocity":62,"Duration":309837,"SoundDuration":309837,"Delta":20967955},{"NoteNumber":68,"Velocity":74,"Duration":103279,"SoundDuration":103279,"Delta":20967955},{"NoteNumber":52,"Velocity":54,"Duration":309837,"SoundDuration":309837,"Delta":20967955},{"NoteNumber":59,"Velocity":54,"Duration":309837,"SoundDuration":309837,"Delta":20967955},{"NoteNumber":69,"Velocity":70,"Duration":103279,"SoundDuration":103279,"Delta":21071234},{"NoteNumber":68,"Velocity":70,"Duration":103279,"SoundDuration":103279,"Delta":21174513},{"NoteNumber":62,"Velocity":59,"Duration":303383,"SoundDuration":303383,"Delta":21277793},{"NoteNumber":66,"Velocity":70,"Duration":151691,"SoundDuration":151691,"Delta":21277793},{"NoteNumber":52,"Velocity":54,"Duration":303383,"SoundDuration":303383,"Delta":21277793},{"NoteNumber":59,"Velocity":54,"Duration":303383,"SoundDuration":303383,"Delta":21277793},{"NoteNumber":64,"Velocity":70,"Duration":151691,"SoundDuration":151691,"Delta":21429484},{"NoteNumber":69,"Velocity":73,"Duration":993760,"SoundDuration":993760,"Delta":21581176},{"NoteNumber":33,"Velocity":59,"Duration":156584,"SoundDuration":156584,"Delta":21581176},{"NoteNumber":61,"Velocity":53,"Duration":325414,"SoundDuration":325414,"Delta":21894344},{"NoteNumber":45,"Velocity":36,"Duration":325414,"SoundDuration":325414,"Delta":21894344},{"NoteNumber":52,"Velocity":36,"Duration":325414,"SoundDuration":325414,"Delta":21894344},{"NoteNumber":57,"Velocity":43,"Duration":325414,"SoundDuration":325414,"Delta":21894344},{"NoteNumber":61,"Velocity":47,"Duration":656774,"SoundDuration":656774,"Delta":22219759},{"NoteNumber":45,"Velocity":39,"Duration":656774,"SoundDuration":656774,"Delta":22219759},{"NoteNumber":52,"Velocity":39,"Duration":656774,"SoundDuration":656774,"Delta":22219759},{"NoteNumber":57,"Velocity":39,"Duration":656774,"SoundDuration":656774,"Delta":22219759},{"NoteNumber":64,"Velocity":40,"Duration":150798,"SoundDuration":150798,"Delta":22574936},{"NoteNumber":68,"Velocity":39,"Duration":150798,"SoundDuration":150798,"Delta":22725735},{"NoteNumber":69,"Velocity":39,"Duration":147449,"SoundDuration":147449,"Delta":22876534},{"NoteNumber":61,"Velocity":33,"Duration":294897,"SoundDuration":294897,"Delta":22876534},{"NoteNumber":45,"Velocity":23,"Duration":294897,"SoundDuration":294897,"Delta":22876534},{"NoteNumber":52,"Velocity":23,"Duration":294897,"SoundDuration":294897,"Delta":22876534},{"NoteNumber":57,"Velocity":23,"Duration":294897,"SoundDuration":294897,"Delta":22876534},{"NoteNumber":71,"Velocity":39,"Duration":147448,"SoundDuration":147448,"Delta":23023983},{"NoteNumber":73,"Velocity":40,"Duration":157002,"SoundDuration":157002,"Delta":23171432},{"NoteNumber":61,"Velocity":33,"Duration":329843,"SoundDuration":329843,"Delta":23171432},{"NoteNumber":45,"Velocity":23,"Duration":329843,"SoundDuration":329843,"Delta":23171432},{"NoteNumber":52,"Velocity":23,"Duration":329843,"SoundDuration":329843,"Delta":23171432},{"NoteNumber":57,"Velocity":23,"Duration":329843,"SoundDuration":329843,"Delta":23171432},{"NoteNumber":74,"Velocity":40,"Duration":86420,"SoundDuration":86420,"Delta":23328435},{"NoteNumber":73,"Velocity":39,"Duration":43210,"SoundDuration":43210,"Delta":23414855},{"NoteNumber":74,"Velocity":37,"Duration":43210,"SoundDuration":43210,"Delta":23458066},{"NoteNumber":73,"Velocity":42,"Duration":310110,"SoundDuration":310110,"Delta":23501276},{"NoteNumber":40,"Velocity":27,"Duration":155055,"SoundDuration":155055,"Delta":23501276},{"NoteNumber":62,"Velocity":34,"Duration":300436,"SoundDuration":300436,"Delta":23811386},{"NoteNumber":71,"Velocity":40,"Duration":150217,"SoundDuration":150217,"Delta":23811386},{"NoteNumber":52,"Velocity":24,"Duration":300436,"SoundDuration":300436,"Delta":23811386},{"NoteNumber":59,"Velocity":24,"Duration":300436,"SoundDuration":300436,"Delta":23811386},{"NoteNumber":69,"Velocity":40,"Duration":150218,"SoundDuration":150218,"Delta":23961604},{"NoteNumber":62,"Velocity":34,"Duration":300435,"SoundDuration":300435,"Delta":24111822},{"NoteNumber":68,"Velocity":40,"Duration":150217,"SoundDuration":150217,"Delta":24111822},{"NoteNumber":52,"Velocity":24,"Duration":300435,"SoundDuration":300435,"Delta":24111822},{"NoteNumber":59,"Velocity":24,"Duration":300435,"SoundDuration":300435,"Delta":24111822},{"NoteNumber":66,"Velocity":40,"Duration":150217,"SoundDuration":150217,"Delta":24262040},{"NoteNumber":64,"Velocity":40,"Duration":147449,"SoundDuration":147449,"Delta":24412258},{"NoteNumber":33,"Velocity":27,"Duration":147449,"SoundDuration":147449,"Delta":24412258},{"NoteNumber":69,"Velocity":39,"Duration":147448,"SoundDuration":147448,"Delta":24559707},{"NoteNumber":61,"Velocity":34,"Duration":317644,"SoundDuration":317644,"Delta":24707156},{"NoteNumber":69,"Velocity":40,"Duration":105881,"SoundDuration":105881,"Delta":24707156},{"NoteNumber":45,"Velocity":24,"Duration":317644,"SoundDuration":317644,"Delta":24707156},{"NoteNumber":52,"Velocity":24,"Duration":317644,"SoundDuration":317644,"Delta":24707156},{"NoteNumber":57,"Velocity":24,"Duration":317644,"SoundDuration":317644,"Delta":24707156},{"NoteNumber":71,"Velocity":39,"Duration":105881,"SoundDuration":105881,"Delta":24813038},{"NoteNumber":69,"Velocity":39,"Duration":105881,"SoundDuration":105881,"Delta":24918919},{"NoteNumber":61,"Velocity":32,"Duration":311025,"SoundDuration":311025,"Delta":25024801},{"NoteNumber":68,"Velocity":39,"Duration":155512,"SoundDuration":155512,"Delta":25024801},{"NoteNumber":45,"Velocity":24,"Duration":311025,"SoundDuration":311025,"Delta":25024801},{"NoteNumber":52,"Velocity":24,"Duration":311025,"SoundDuration":311025,"Delta":25024801},{"NoteNumber":57,"Velocity":24,"Duration":311025,"SoundDuration":311025,"Delta":25024801},{"NoteNumber":66,"Velocity":39,"Duration":155512,"SoundDuration":155512,"Delta":25180314},{"NoteNumber":68,"Velocity":40,"Duration":1029171,"SoundDuration":1029171,"Delta":25335827},{"NoteNumber":40,"Velocity":27,"Duration":163159,"SoundDuration":163159,"Delta":25335827},{"NoteNumber":59,"Velocity":24,"Duration":337666,"SoundDuration":337666,"Delta":25662145},{"NoteNumber":64,"Velocity":29,"Duration":337666,"SoundDuration":337666,"Delta":25662145},{"NoteNumber":52,"Velocity":20,"Duration":337666,"SoundDuration":337666,"Delta":25662145},{"NoteNumber":62,"Velocity":31,"Duration":365186,"SoundDuration":365186,"Delta":25999812},{"NoteNumber":64,"Velocity":37,"Duration":365186,"SoundDuration":365186,"Delta":25999812},{"NoteNumber":52,"Velocity":26,"Duration":674194,"SoundDuration":674194,"Delta":25999812},{"NoteNumber":59,"Velocity":26,"Duration":365186,"SoundDuration":365186,"Delta":25999812},{"NoteNumber":64,"Velocity":40,"Duration":154503,"SoundDuration":154503,"Delta":26364998},{"NoteNumber":45,"Velocity":27,"Duration":309007,"SoundDuration":309007,"Delta":26364998},{"NoteNumber":68,"Velocity":39,"Duration":154503,"SoundDuration":154503,"Delta":26519502},{"NoteNumber":69,"Velocity":39,"Duration":150905,"SoundDuration":150905,"Delta":26674006},{"NoteNumber":61,"Velocity":33,"Duration":301811,"SoundDuration":301811,"Delta":26674006},{"NoteNumber":52,"Velocity":23,"Duration":301811,"SoundDuration":301811,"Delta":26674006},{"NoteNumber":57,"Velocity":23,"Duration":301811,"SoundDuration":301811,"Delta":26674006},{"NoteNumber":71,"Velocity":39,"Duration":150905,"SoundDuration":150905,"Delta":26824911},{"NoteNumber":73,"Velocity":40,"Duration":155327,"SoundDuration":155327,"Delta":26975817},{"NoteNumber":61,"Velocity":33,"Duration":326648,"SoundDuration":326648,"Delta":26975817},{"NoteNumber":45,"Velocity":23,"Duration":326648,"SoundDuration":326648,"Delta":26975817},{"NoteNumber":52,"Velocity":23,"Duration":326648,"SoundDuration":326648,"Delta":26975817},{"NoteNumber":57,"Velocity":23,"Duration":326648,"SoundDuration":326648,"Delta":26975817},{"NoteNumber":74,"Velocity":40,"Duration":85660,"SoundDuration":85660,"Delta":27131144},{"NoteNumber":73,"Velocity":39,"Duration":42830,"SoundDuration":42830,"Delta":27216805},{"NoteNumber":74,"Velocity":37,"Duration":42830,"SoundDuration":42830,"Delta":27259635},{"NoteNumber":73,"Velocity":42,"Duration":316573,"SoundDuration":316573,"Delta":27302465},{"NoteNumber":38,"Velocity":27,"Duration":158286,"SoundDuration":158286,"Delta":27302465},{"NoteNumber":62,"Velocity":34,"Duration":309837,"SoundDuration":309837,"Delta":27619038},{"NoteNumber":71,"Velocity":40,"Duration":154918,"SoundDuration":154918,"Delta":27619038},{"NoteNumber":54,"Velocity":24,"Duration":309837,"SoundDuration":309837,"Delta":27619038},{"NoteNumber":59,"Velocity":24,"Duration":309837,"SoundDuration":309837,"Delta":27619038},{"NoteNumber":69,"Velocity":40,"Duration":154918,"SoundDuration":154918,"Delta":27773957},{"NoteNumber":62,"Velocity":34,"Duration":309836,"SoundDuration":309836,"Delta":27928875},{"NoteNumber":68,"Velocity":40,"Duration":154918,"SoundDuration":154918,"Delta":27928875},{"NoteNumber":47,"Velocity":24,"Duration":309836,"SoundDuration":309836,"Delta":27928875},{"NoteNumber":54,"Velocity":24,"Duration":309836,"SoundDuration":309836,"Delta":27928875},{"NoteNumber":59,"Velocity":24,"Duration":309836,"SoundDuration":309836,"Delta":27928875},{"NoteNumber":66,"Velocity":40,"Duration":154918,"SoundDuration":154918,"Delta":28083794},{"NoteNumber":64,"Velocity":40,"Duration":150905,"SoundDuration":150905,"Delta":28238712},{"NoteNumber":40,"Velocity":27,"Duration":150905,"SoundDuration":150905,"Delta":28238712},{"NoteNumber":68,"Velocity":39,"Duration":150905,"SoundDuration":150905,"Delta":28389618},{"NoteNumber":62,"Velocity":34,"Duration":327242,"SoundDuration":327242,"Delta":28540523},{"NoteNumber":68,"Velocity":40,"Duration":109080,"SoundDuration":109080,"Delta":28540523},{"NoteNumber":52,"Velocity":24,"Duration":327242,"SoundDuration":327242,"Delta":28540523},{"NoteNumber":59,"Velocity":24,"Duration":327242,"SoundDuration":327242,"Delta":28540523},{"NoteNumber":69,"Velocity":39,"Duration":109080,"SoundDuration":109080,"Delta":28649604},{"NoteNumber":68,"Velocity":39,"Duration":109080,"SoundDuration":109080,"Delta":28758685},{"NoteNumber":62,"Velocity":32,"Duration":315705,"SoundDuration":315705,"Delta":28867766},{"NoteNumber":66,"Velocity":39,"Duration":157852,"SoundDuration":157852,"Delta":28867766},{"NoteNumber":52,"Velocity":24,"Duration":315705,"SoundDuration":315705,"Delta":28867766},{"NoteNumber":59,"Velocity":24,"Duration":315705,"SoundDuration":315705,"Delta":28867766},{"NoteNumber":64,"Velocity":39,"Duration":157852,"SoundDuration":157852,"Delta":29025619},{"NoteNumber":69,"Velocity":40,"Duration":1162005,"SoundDuration":1162005,"Delta":29183472},{"NoteNumber":33,"Velocity":32,"Duration":163621,"SoundDuration":163621,"Delta":29183472},{"NoteNumber":61,"Velocity":37,"Duration":335720,"SoundDuration":335720,"Delta":29510715},{"NoteNumber":57,"Velocity":25,"Duration":335720,"SoundDuration":335720,"Delta":29510715},{"NoteNumber":64,"Velocity":30,"Duration":335720,"SoundDuration":335720,"Delta":29510715},{"NoteNumber":67,"Velocity":73,"Duration":351946,"SoundDuration":351946,"Delta":29846436},{"NoteNumber":61,"Velocity":73,"Duration":351946,"SoundDuration":351946,"Delta":29846436},{"NoteNumber":57,"Velocity":60,"Duration":351946,"SoundDuration":351946,"Delta":29846436},{"NoteNumber":64,"Velocity":60,"Duration":351946,"SoundDuration":351946,"Delta":29846436},{"NoteNumber":66,"Velocity":78,"Duration":294190,"SoundDuration":294190,"Delta":30198383},{"NoteNumber":50,"Velocity":67,"Duration":147095,"SoundDuration":147095,"Delta":30198383},{"NoteNumber":73,"Velocity":80,"Duration":147095,"SoundDuration":147095,"Delta":30345478},{"NoteNumber":74,"Velocity":81,"Duration":143823,"SoundDuration":143823,"Delta":30492573},{"NoteNumber":66,"Velocity":69,"Duration":287645,"SoundDuration":287645,"Delta":30492573},{"NoteNumber":50,"Velocity":59,"Duration":287645,"SoundDuration":287645,"Delta":30492573},{"NoteNumber":57,"Velocity":59,"Duration":287645,"SoundDuration":287645,"Delta":30492573},{"NoteNumber":62,"Velocity":59,"Duration":287645,"SoundDuration":287645,"Delta":30492573},{"NoteNumber":76,"Velocity":81,"Duration":143822,"SoundDuration":143822,"Delta":30636396},{"NoteNumber":78,"Velocity":82,"Duration":148596,"SoundDuration":148596,"Delta":30780219},{"NoteNumber":66,"Velocity":70,"Duration":308179,"SoundDuration":308179,"Delta":30780219},{"NoteNumber":50,"Velocity":59,"Duration":308179,"SoundDuration":308179,"Delta":30780219},{"NoteNumber":57,"Velocity":59,"Duration":308179,"SoundDuration":308179,"Delta":30780219},{"NoteNumber":62,"Velocity":59,"Duration":308179,"SoundDuration":308179,"Delta":30780219},{"NoteNumber":79,"Velocity":83,"Duration":79791,"SoundDuration":79791,"Delta":30928815},{"NoteNumber":78,"Velocity":80,"Duration":39895,"SoundDuration":39895,"Delta":31008607},{"NoteNumber":79,"Velocity":78,"Duration":39895,"SoundDuration":39895,"Delta":31048503},{"NoteNumber":78,"Velocity":87,"Duration":302496,"SoundDuration":302496,"Delta":31088398},{"NoteNumber":45,"Velocity":67,"Duration":151247,"SoundDuration":151247,"Delta":31088398},{"NoteNumber":67,"Velocity":71,"Duration":293039,"SoundDuration":293039,"Delta":31390894},{"NoteNumber":76,"Velocity":85,"Duration":146520,"SoundDuration":146520,"Delta":31390894},{"NoteNumber":52,"Velocity":62,"Duration":293039,"SoundDuration":293039,"Delta":31390894},{"NoteNumber":57,"Velocity":62,"Duration":293039,"SoundDuration":293039,"Delta":31390894},{"NoteNumber":61,"Velocity":62,"Duration":293039,"SoundDuration":293039,"Delta":31390894},{"NoteNumber":74,"Velocity":85,"Duration":146519,"SoundDuration":146519,"Delta":31537414},{"NoteNumber":67,"Velocity":71,"Duration":293040,"SoundDuration":293040,"Delta":31683934},{"NoteNumber":73,"Velocity":83,"Duration":146520,"SoundDuration":146520,"Delta":31683934},{"NoteNumber":52,"Velocity":62,"Duration":293040,"SoundDuration":293040,"Delta":31683934},{"NoteNumber":57,"Velocity":62,"Duration":293040,"SoundDuration":293040,"Delta":31683934},{"NoteNumber":61,"Velocity":62,"Duration":293040,"SoundDuration":293040,"Delta":31683934},{"NoteNumber":71,"Velocity":82,"Duration":146520,"SoundDuration":146520,"Delta":31830454},{"NoteNumber":69,"Velocity":85,"Duration":143822,"SoundDuration":143822,"Delta":31976974},{"NoteNumber":38,"Velocity":67,"Duration":143822,"SoundDuration":143822,"Delta":31976974},{"NoteNumber":74,"Velocity":80,"Duration":143823,"SoundDuration":143823,"Delta":32120797},{"NoteNumber":66,"Velocity":71,"Duration":309837,"SoundDuration":309837,"Delta":32264620},{"NoteNumber":74,"Velocity":85,"Duration":103279,"SoundDuration":103279,"Delta":32264620},{"NoteNumber":50,"Velocity":62,"Duration":309837,"SoundDuration":309837,"Delta":32264620},{"NoteNumber":57,"Velocity":62,"Duration":309837,"SoundDuration":309837,"Delta":32264620},{"NoteNumber":62,"Velocity":62,"Duration":309837,"SoundDuration":309837,"Delta":32264620},{"NoteNumber":76,"Velocity":80,"Duration":103279,"SoundDuration":103279,"Delta":32367899},{"NoteNumber":74,"Velocity":80,"Duration":103279,"SoundDuration":103279,"Delta":32471179},{"NoteNumber":66,"Velocity":67,"Duration":303382,"SoundDuration":303382,"Delta":32574458},{"NoteNumber":73,"Velocity":80,"Duration":151691,"SoundDuration":151691,"Delta":32574458},{"NoteNumber":50,"Velocity":62,"Duration":303382,"SoundDuration":303382,"Delta":32574458},{"NoteNumber":57,"Velocity":62,"Duration":303382,"SoundDuration":303382,"Delta":32574458},{"NoteNumber":62,"Velocity":62,"Duration":303382,"SoundDuration":303382,"Delta":32574458},{"NoteNumber":71,"Velocity":80,"Duration":151691,"SoundDuration":151691,"Delta":32726149},{"NoteNumber":73,"Velocity":83,"Duration":982543,"SoundDuration":982543,"Delta":32877840},{"NoteNumber":45,"Velocity":67,"Duration":156584,"SoundDuration":156584,"Delta":32877840},{"NoteNumber":64,"Velocity":50,"Duration":317427,"SoundDuration":317427,"Delta":33191010},{"NoteNumber":69,"Velocity":60,"Duration":317427,"SoundDuration":317427,"Delta":33191010},{"NoteNumber":57,"Velocity":49,"Duration":317427,"SoundDuration":317427,"Delta":33191010},{"NoteNumber":67,"Velocity":65,"Duration":351947,"SoundDuration":351947,"Delta":33508437},{"NoteNumber":69,"Velocity":78,"Duration":351947,"SoundDuration":351947,"Delta":33508437},{"NoteNumber":57,"Velocity":64,"Duration":351947,"SoundDuration":351947,"Delta":33508437},{"NoteNumber":64,"Velocity":64,"Duration":351947,"SoundDuration":351947,"Delta":33508437},{"NoteNumber":69,"Velocity":85,"Duration":147095,"SoundDuration":147095,"Delta":33860384},{"NoteNumber":50,"Velocity":67,"Duration":147095,"SoundDuration":147095,"Delta":33860384},{"NoteNumber":73,"Velocity":80,"Duration":147095,"SoundDuration":147095,"Delta":34007479},{"NoteNumber":74,"Velocity":81,"Duration":143822,"SoundDuration":143822,"Delta":34154574},{"NoteNumber":66,"Velocity":69,"Duration":287646,"SoundDuration":287646,"Delta":34154574},{"NoteNumber":57,"Velocity":59,"Duration":287646,"SoundDuration":287646,"Delta":34154574},{"NoteNumber":62,"Velocity":59,"Duration":287646,"SoundDuration":287646,"Delta":34154574},{"NoteNumber":76,"Velocity":81,"Duration":143823,"SoundDuration":143823,"Delta":34298397},{"NoteNumber":78,"Velocity":82,"Duration":148595,"SoundDuration":148595,"Delta":34442220},{"NoteNumber":66,"Velocity":70,"Duration":313603,"SoundDuration":313603,"Delta":34442220},{"NoteNumber":50,"Velocity":59,"Duration":313603,"SoundDuration":313603,"Delta":34442220},{"NoteNumber":57,"Velocity":59,"Duration":313603,"SoundDuration":313603,"Delta":34442220},{"NoteNumber":62,"Velocity":59,"Duration":313603,"SoundDuration":313603,"Delta":34442220},{"NoteNumber":79,"Velocity":83,"Duration":82503,"SoundDuration":82503,"Delta":34590816},{"NoteNumber":78,"Velocity":80,"Duration":41251,"SoundDuration":41251,"Delta":34673319},{"NoteNumber":79,"Velocity":78,"Duration":41251,"SoundDuration":41251,"Delta":34714571},{"NoteNumber":78,"Velocity":87,"Duration":302495,"SoundDuration":302495,"Delta":34755823},{"NoteNumber":43,"Velocity":67,"Duration":151248,"SoundDuration":151248,"Delta":34755823},{"NoteNumber":67,"Velocity":71,"Duration":293039,"SoundDuration":293039,"Delta":35058319},{"NoteNumber":76,"Velocity":85,"Duration":146520,"SoundDuration":146520,"Delta":35058319},{"NoteNumber":59,"Velocity":62,"Duration":293039,"SoundDuration":293039,"Delta":35058319},{"NoteNumber":64,"Velocity":62,"Duration":293039,"SoundDuration":293039,"Delta":35058319},{"NoteNumber":74,"Velocity":85,"Duration":146519,"SoundDuration":146519,"Delta":35204839},{"NoteNumber":67,"Velocity":71,"Duration":293040,"SoundDuration":293040,"Delta":35351359},{"NoteNumber":73,"Velocity":83,"Duration":146520,"SoundDuration":146520,"Delta":35351359},{"NoteNumber":52,"Velocity":62,"Duration":293040,"SoundDuration":293040,"Delta":35351359},{"NoteNumber":59,"Velocity":62,"Duration":293040,"SoundDuration":293040,"Delta":35351359},{"NoteNumber":64,"Velocity":62,"Duration":293040,"SoundDuration":293040,"Delta":35351359},{"NoteNumber":71,"Velocity":82,"Duration":146520,"SoundDuration":146520,"Delta":35497879},{"NoteNumber":69,"Velocity":85,"Duration":143822,"SoundDuration":143822,"Delta":35644399},{"NoteNumber":45,"Velocity":67,"Duration":143822,"SoundDuration":143822,"Delta":35644399},{"NoteNumber":73,"Velocity":80,"Duration":143823,"SoundDuration":143823,"Delta":35788222},{"NoteNumber":67,"Velocity":71,"Duration":309837,"SoundDuration":309837,"Delta":35932045},{"NoteNumber":73,"Velocity":85,"Duration":103279,"SoundDuration":103279,"Delta":35932045},{"NoteNumber":57,"Velocity":62,"Duration":309837,"SoundDuration":309837,"Delta":35932045},{"NoteNumber":64,"Velocity":62,"Duration":309837,"SoundDuration":309837,"Delta":35932045},{"NoteNumber":74,"Velocity":80,"Duration":103279,"SoundDuration":103279,"Delta":36035324},{"NoteNumber":73,"Velocity":80,"Duration":103279,"SoundDuration":103279,"Delta":36138603},{"NoteNumber":67,"Velocity":67,"Duration":303382,"SoundDuration":303382,"Delta":36241882},{"NoteNumber":71,"Velocity":80,"Duration":151691,"SoundDuration":151691,"Delta":36241882},{"NoteNumber":57,"Velocity":62,"Duration":303382,"SoundDuration":303382,"Delta":36241882},{"NoteNumber":64,"Velocity":62,"Duration":303382,"SoundDuration":303382,"Delta":36241882},{"NoteNumber":69,"Velocity":80,"Duration":151691,"SoundDuration":151691,"Delta":36393574},{"NoteNumber":74,"Velocity":83,"Duration":986610,"SoundDuration":986610,"Delta":36545265},{"NoteNumber":38,"Velocity":67,"Duration":156584,"SoundDuration":156584,"Delta":36545265},{"NoteNumber":66,"Velocity":60,"Duration":323607,"SoundDuration":323607,"Delta":36858434},{"NoteNumber":50,"Velocity":41,"Duration":323607,"SoundDuration":323607,"Delta":36858434},{"NoteNumber":57,"Velocity":41,"Duration":323607,"SoundDuration":323607,"Delta":36858434},{"NoteNumber":62,"Velocity":49,"Duration":323607,"SoundDuration":323607,"Delta":36858434},{"NoteNumber":66,"Velocity":54,"Duration":656002,"SoundDuration":656002,"Delta":37182041},{"NoteNumber":50,"Velocity":44,"Duration":656002,"SoundDuration":656002,"Delta":37182041},{"NoteNumber":57,"Velocity":44,"Duration":656002,"SoundDuration":656002,"Delta":37182041},{"NoteNumber":62,"Velocity":44,"Duration":656002,"SoundDuration":656002,"Delta":37182041},{"NoteNumber":69,"Velocity":40,"Duration":153084,"SoundDuration":153084,"Delta":37531875},{"NoteNumber":73,"Velocity":39,"Duration":153084,"SoundDuration":153084,"Delta":37684960},{"NoteNumber":74,"Velocity":39,"Duration":149685,"SoundDuration":149685,"Delta":37838044},{"NoteNumber":66,"Velocity":33,"Duration":299371,"SoundDuration":299371,"Delta":37838044},{"NoteNumber":50,"Velocity":23,"Duration":299371,"SoundDuration":299371,"Delta":37838044},{"NoteNumber":57,"Velocity":23,"Duration":299371,"SoundDuration":299371,"Delta":37838044},{"NoteNumber":62,"Velocity":23,"Duration":299371,"SoundDuration":299371,"Delta":37838044},{"NoteNumber":76,"Velocity":39,"Duration":149685,"SoundDuration":149685,"Delta":37987730},{"NoteNumber":78,"Velocity":40,"Duration":154646,"SoundDuration":154646,"Delta":38137415},{"NoteNumber":66,"Velocity":33,"Duration":336102,"SoundDuration":336102,"Delta":38137415},{"NoteNumber":50,"Velocity":23,"Duration":336102,"SoundDuration":336102,"Delta":38137415},{"NoteNumber":57,"Velocity":23,"Duration":336102,"SoundDuration":336102,"Delta":38137415},{"NoteNumber":62,"Velocity":23,"Duration":336102,"SoundDuration":336102,"Delta":38137415},{"NoteNumber":79,"Velocity":40,"Duration":90727,"SoundDuration":90727,"Delta":38292062},{"NoteNumber":78,"Velocity":39,"Duration":45363,"SoundDuration":45363,"Delta":38382790},{"NoteNumber":79,"Velocity":37,"Duration":45363,"SoundDuration":45363,"Delta":38428154},{"NoteNumber":78,"Velocity":42,"Duration":314827,"SoundDuration":314827,"Delta":38473518},{"NoteNumber":45,"Velocity":27,"Duration":157414,"SoundDuration":157414,"Delta":38473518},{"NoteNumber":67,"Velocity":34,"Duration":304986,"SoundDuration":304986,"Delta":38788346},{"NoteNumber":76,"Velocity":40,"Duration":152493,"SoundDuration":152493,"Delta":38788346},{"NoteNumber":52,"Velocity":24,"Duration":304986,"SoundDuration":304986,"Delta":38788346},{"NoteNumber":57,"Velocity":24,"Duration":304986,"SoundDuration":304986,"Delta":38788346},{"NoteNumber":61,"Velocity":24,"Duration":304986,"SoundDuration":304986,"Delta":38788346},{"NoteNumber":74,"Velocity":40,"Duration":152493,"SoundDuration":152493,"Delta":38940839},{"NoteNumber":67,"Velocity":34,"Duration":304987,"SoundDuration":304987,"Delta":39093333},{"NoteNumber":73,"Velocity":40,"Duration":152493,"SoundDuration":152493,"Delta":39093333},{"NoteNumber":52,"Velocity":24,"Duration":304987,"SoundDuration":304987,"Delta":39093333},{"NoteNumber":57,"Velocity":24,"Duration":304987,"SoundDuration":304987,"Delta":39093333},{"NoteNumber":61,"Velocity":24,"Duration":304987,"SoundDuration":304987,"Delta":39093333},{"NoteNumber":71,"Velocity":40,"Duration":152493,"SoundDuration":152493,"Delta":39245826},{"NoteNumber":69,"Velocity":40,"Duration":149685,"SoundDuration":149685,"Delta":39398320},{"NoteNumber":38,"Velocity":27,"Duration":149685,"SoundDuration":149685,"Delta":39398320},{"NoteNumber":74,"Velocity":39,"Duration":149685,"SoundDuration":149685,"Delta":39548005},{"NoteNumber":66,"Velocity":34,"Duration":322459,"SoundDuration":322459,"Delta":39697691},{"NoteNumber":74,"Velocity":40,"Duration":107486,"SoundDuration":107486,"Delta":39697691},{"NoteNumber":50,"Velocity":24,"Duration":322459,"SoundDuration":322459,"Delta":39697691},{"NoteNumber":57,"Velocity":24,"Duration":322459,"SoundDuration":322459,"Delta":39697691},{"NoteNumber":62,"Velocity":24,"Duration":322459,"SoundDuration":322459,"Delta":39697691},{"NoteNumber":76,"Velocity":39,"Duration":107486,"SoundDuration":107486,"Delta":39805177},{"NoteNumber":74,"Velocity":39,"Duration":107486,"SoundDuration":107486,"Delta":39912663},{"NoteNumber":66,"Velocity":32,"Duration":315739,"SoundDuration":315739,"Delta":40020150},{"NoteNumber":73,"Velocity":39,"Duration":157870,"SoundDuration":157870,"Delta":40020150},{"NoteNumber":50,"Velocity":24,"Duration":315739,"SoundDuration":315739,"Delta":40020150},{"NoteNumber":57,"Velocity":24,"Duration":315739,"SoundDuration":315739,"Delta":40020150},{"NoteNumber":62,"Velocity":24,"Duration":315739,"SoundDuration":315739,"Delta":40020150},{"NoteNumber":71,"Velocity":39,"Duration":157869,"SoundDuration":157869,"Delta":40178020},{"NoteNumber":73,"Velocity":40,"Duration":1047927,"SoundDuration":1047927,"Delta":40335890},{"NoteNumber":45,"Velocity":27,"Duration":165947,"SoundDuration":165947,"Delta":40335890},{"NoteNumber":64,"Velocity":24,"Duration":342641,"SoundDuration":342641,"Delta":40667785},{"NoteNumber":69,"Velocity":29,"Duration":342641,"SoundDuration":342641,"Delta":40667785},{"NoteNumber":61,"Velocity":20,"Duration":342641,"SoundDuration":342641,"Delta":40667785},{"NoteNumber":57,"Velocity":20,"Duration":342641,"SoundDuration":342641,"Delta":40667785},{"NoteNumber":67,"Velocity":31,"Duration":373390,"SoundDuration":373390,"Delta":41010427},{"NoteNumber":69,"Velocity":37,"Duration":373390,"SoundDuration":373390,"Delta":41010427},{"NoteNumber":57,"Velocity":26,"Duration":697890,"SoundDuration":697890,"Delta":41010427},{"NoteNumber":64,"Velocity":26,"Duration":373390,"SoundDuration":373390,"Delta":41010427},{"NoteNumber":69,"Velocity":40,"Duration":162250,"SoundDuration":162250,"Delta":41383817},{"NoteNumber":50,"Velocity":27,"Duration":324500,"SoundDuration":324500,"Delta":41383817},{"NoteNumber":73,"Velocity":39,"Duration":162250,"SoundDuration":162250,"Delta":41546067},{"NoteNumber":74,"Velocity":39,"Duration":155746,"SoundDuration":155746,"Delta":41708317},{"NoteNumber":66,"Velocity":33,"Duration":311494,"SoundDuration":311494,"Delta":41708317},{"NoteNumber":57,"Velocity":23,"Duration":311494,"SoundDuration":311494,"Delta":41708317},{"NoteNumber":62,"Velocity":23,"Duration":311494,"SoundDuration":311494,"Delta":41708317},{"NoteNumber":76,"Velocity":39,"Duration":155747,"SoundDuration":155747,"Delta":41864064},{"NoteNumber":78,"Velocity":40,"Duration":158713,"SoundDuration":158713,"Delta":42019811},{"NoteNumber":66,"Velocity":33,"Duration":331047,"SoundDuration":331047,"Delta":42019811},{"NoteNumber":50,"Velocity":23,"Duration":331047,"SoundDuration":331047,"Delta":42019811},{"NoteNumber":57,"Velocity":23,"Duration":331047,"SoundDuration":331047,"Delta":42019811},{"NoteNumber":62,"Velocity":23,"Duration":331047,"SoundDuration":331047,"Delta":42019811},{"NoteNumber":79,"Velocity":40,"Duration":86167,"SoundDuration":86167,"Delta":42178524},{"NoteNumber":78,"Velocity":39,"Duration":43083,"SoundDuration":43083,"Delta":42264691},{"NoteNumber":79,"Velocity":37,"Duration":43083,"SoundDuration":43083,"Delta":42307775},{"NoteNumber":78,"Velocity":42,"Duration":330015,"SoundDuration":330015,"Delta":42350859},{"NoteNumber":43,"Velocity":27,"Duration":165007,"SoundDuration":165007,"Delta":42350859},{"NoteNumber":67,"Velocity":34,"Duration":320923,"SoundDuration":320923,"Delta":42680874},{"NoteNumber":76,"Velocity":40,"Duration":160462,"SoundDuration":160462,"Delta":42680874},{"NoteNumber":59,"Velocity":24,"Duration":320923,"SoundDuration":320923,"Delta":42680874},{"NoteNumber":64,"Velocity":24,"Duration":320923,"SoundDuration":320923,"Delta":42680874},{"NoteNumber":74,"Velocity":40,"Duration":160461,"SoundDuration":160461,"Delta":42841336},{"NoteNumber":67,"Velocity":34,"Duration":320924,"SoundDuration":320924,"Delta":43001798},{"NoteNumber":73,"Velocity":40,"Duration":160462,"SoundDuration":160462,"Delta":43001798},{"NoteNumber":52,"Velocity":24,"Duration":320924,"SoundDuration":320924,"Delta":43001798},{"NoteNumber":59,"Velocity":24,"Duration":320924,"SoundDuration":320924,"Delta":43001798},{"NoteNumber":64,"Velocity":24,"Duration":320924,"SoundDuration":320924,"Delta":43001798},{"NoteNumber":71,"Velocity":40,"Duration":160462,"SoundDuration":160462,"Delta":43162260},{"NoteNumber":69,"Velocity":40,"Duration":156160,"SoundDuration":156160,"Delta":43322722},{"NoteNumber":45,"Velocity":27,"Duration":156160,"SoundDuration":156160,"Delta":43322722},{"NoteNumber":73,"Velocity":39,"Duration":156160,"SoundDuration":156160,"Delta":43478882},{"NoteNumber":67,"Velocity":34,"Duration":341627,"SoundDuration":341627,"Delta":43635043},{"NoteNumber":73,"Velocity":40,"Duration":113875,"SoundDuration":113875,"Delta":43635043},{"NoteNumber":57,"Velocity":24,"Duration":341627,"SoundDuration":341627,"Delta":43635043},{"NoteNumber":64,"Velocity":24,"Duration":341627,"SoundDuration":341627,"Delta":43635043},{"NoteNumber":74,"Velocity":39,"Duration":113875,"SoundDuration":113875,"Delta":43748918},{"NoteNumber":73,"Velocity":39,"Duration":113875,"SoundDuration":113875,"Delta":43862794},{"NoteNumber":67,"Velocity":32,"Duration":323607,"SoundDuration":323607,"Delta":43976670},{"NoteNumber":71,"Velocity":39,"Duration":161803,"SoundDuration":161803,"Delta":43976670},{"NoteNumber":57,"Velocity":24,"Duration":323607,"SoundDuration":323607,"Delta":43976670},{"NoteNumber":64,"Velocity":24,"Duration":323607,"SoundDuration":323607,"Delta":43976670},{"NoteNumber":69,"Velocity":39,"Duration":161803,"SoundDuration":161803,"Delta":44138473},{"NoteNumber":74,"Velocity":40,"Duration":1346667,"SoundDuration":1346667,"Delta":44300277},{"NoteNumber":38,"Velocity":27,"Duration":336700,"SoundDuration":336700,"Delta":44300277},{"NoteNumber":66,"Velocity":29,"Duration":354086,"SoundDuration":354086,"Delta":44636977},{"NoteNumber":50,"Velocity":17,"Duration":354086,"SoundDuration":354086,"Delta":44636977},{"NoteNumber":57,"Velocity":17,"Duration":354086,"SoundDuration":354086,"Delta":44636977},{"NoteNumber":62,"Velocity":20,"Duration":354086,"SoundDuration":354086,"Delta":44636977},{"NoteNumber":66,"Velocity":37,"Duration":387047,"SoundDuration":387047,"Delta":44991064},{"NoteNumber":50,"Velocity":26,"Duration":387047,"SoundDuration":387047,"Delta":44991064},{"NoteNumber":57,"Velocity":26,"Duration":387047,"SoundDuration":387047,"Delta":44991064},{"NoteNumber":62,"Velocity":26,"Duration":387047,"SoundDuration":387047,"Delta":44991064},{"NoteNumber":65,"Velocity":54,"Duration":716887,"SoundDuration":716887,"Delta":45378111},{"NoteNumber":46,"Velocity":44,"Duration":358443,"SoundDuration":358443,"Delta":45378111},{"NoteNumber":74,"Velocity":58,"Duration":89610,"SoundDuration":89610,"Delta":45646944},{"NoteNumber":75,"Velocity":62,"Duration":358443,"SoundDuration":358443,"Delta":45736555},{"NoteNumber":62,"Velocity":40,"Duration":358443,"SoundDuration":358443,"Delta":45736555},{"NoteNumber":58,"Velocity":33,"Duration":358443,"SoundDuration":358443,"Delta":45736555},{"NoteNumber":53,"Velocity":33,"Duration":358443,"SoundDuration":358443,"Delta":45736555},{"NoteNumber":70,"Velocity":42,"Duration":729649,"SoundDuration":729649,"Delta":46094999},{"NoteNumber":76,"Velocity":55,"Duration":375562,"SoundDuration":375562,"Delta":46094999},{"NoteNumber":53,"Velocity":34,"Duration":375562,"SoundDuration":375562,"Delta":46094999},{"NoteNumber":62,"Velocity":41,"Duration":375562,"SoundDuration":375562,"Delta":46094999},{"NoteNumber":58,"Velocity":34,"Duration":375562,"SoundDuration":375562,"Delta":46094999},{"NoteNumber":79,"Velocity":64,"Duration":265565,"SoundDuration":265565,"Delta":46470562},{"NoteNumber":41,"Velocity":46,"Duration":354086,"SoundDuration":354086,"Delta":46470562},{"NoteNumber":77,"Velocity":60,"Duration":88521,"SoundDuration":88521,"Delta":46736127},{"NoteNumber":69,"Velocity":49,"Duration":177043,"SoundDuration":177043,"Delta":46824649},{"NoteNumber":72,"Velocity":64,"Duration":354086,"SoundDuration":354086,"Delta":46824649},{"NoteNumber":63,"Velocity":43,"Duration":354086,"SoundDuration":354086,"Delta":46824649},{"NoteNumber":60,"Velocity":35,"Duration":354086,"SoundDuration":354086,"Delta":46824649},{"NoteNumber":53,"Velocity":35,"Duration":354086,"SoundDuration":354086,"Delta":46824649},{"NoteNumber":67,"Velocity":47,"Duration":177043,"SoundDuration":177043,"Delta":47001692},{"NoteNumber":65,"Velocity":48,"Duration":731926,"SoundDuration":731926,"Delta":47178736},{"NoteNumber":72,"Velocity":57,"Duration":379027,"SoundDuration":379027,"Delta":47178736},{"NoteNumber":63,"Velocity":44,"Duration":379027,"SoundDuration":379027,"Delta":47178736},{"NoteNumber":60,"Velocity":36,"Duration":379027,"SoundDuration":379027,"Delta":47178736},{"NoteNumber":53,"Velocity":36,"Duration":379027,"SoundDuration":379027,"Delta":47178736},{"NoteNumber":74,"Velocity":64,"Duration":264674,"SoundDuration":264674,"Delta":47557763},{"NoteNumber":46,"Velocity":49,"Duration":352899,"SoundDuration":352899,"Delta":47557763},{"NoteNumber":74,"Velocity":64,"Duration":88225,"SoundDuration":88225,"Delta":47822438},{"NoteNumber":65,"Velocity":50,"Duration":352899,"SoundDuration":352899,"Delta":47910663},{"NoteNumber":70,"Velocity":50,"Duration":352899,"SoundDuration":352899,"Delta":47910663},{"NoteNumber":75,"Velocity":69,"Duration":352899,"SoundDuration":352899,"Delta":47910663},{"NoteNumber":62,"Velocity":45,"Duration":352899,"SoundDuration":352899,"Delta":47910663},{"NoteNumber":58,"Velocity":37,"Duration":352899,"SoundDuration":352899,"Delta":47910663},{"NoteNumber":53,"Velocity":37,"Duration":352899,"SoundDuration":352899,"Delta":47910663},{"NoteNumber":65,"Velocity":51,"Duration":721676,"SoundDuration":721676,"Delta":48263563},{"NoteNumber":70,"Velocity":51,"Duration":368777,"SoundDuration":368777,"Delta":48263563},{"NoteNumber":76,"Velocity":61,"Duration":368777,"SoundDuration":368777,"Delta":48263563},{"NoteNumber":53,"Velocity":38,"Duration":368777,"SoundDuration":368777,"Delta":48263563},{"NoteNumber":62,"Velocity":46,"Duration":368777,"SoundDuration":368777,"Delta":48263563},{"NoteNumber":58,"Velocity":38,"Duration":368777,"SoundDuration":368777,"Delta":48263563},{"NoteNumber":72,"Velocity":52,"Duration":352899,"SoundDuration":352899,"Delta":48632340},{"NoteNumber":79,"Velocity":71,"Duration":264674,"SoundDuration":264674,"Delta":48632340},{"NoteNumber":45,"Velocity":51,"Duration":617575,"SoundDuration":617575,"Delta":48632340},{"NoteNumber":77,"Velocity":66,"Duration":88225,"SoundDuration":88225,"Delta":48897015},{"NoteNumber":65,"Velocity":59,"Duration":352900,"SoundDuration":352900,"Delta":48985240},{"NoteNumber":72,"Velocity":71,"Duration":734847,"SoundDuration":734847,"Delta":48985240},{"NoteNumber":60,"Velocity":47,"Duration":264675,"SoundDuration":264675,"Delta":48985240},{"NoteNumber":43,"Velocity":48,"Duration":88225,"SoundDuration":88225,"Delta":49249915},{"NoteNumber":69,"Velocity":67,"Duration":381946,"SoundDuration":381946,"Delta":49338140},{"NoteNumber":77,"Velocity":81,"Duration":381946,"SoundDuration":381946,"Delta":49338140},{"NoteNumber":41,"Velocity":62,"Duration":381946,"SoundDuration":381946,"Delta":49338140},{"NoteNumber":76,"Velocity":73,"Duration":186636,"SoundDuration":186636,"Delta":49720087},{"NoteNumber":70,"Velocity":69,"Duration":186636,"SoundDuration":186636,"Delta":49720087},{"NoteNumber":82,"Velocity":86,"Duration":186636,"SoundDuration":186636,"Delta":49720087},{"NoteNumber":36,"Velocity":55,"Duration":365713,"SoundDuration":365713,"Delta":49720087},{"NoteNumber":48,"Velocity":64,"Duration":365713,"SoundDuration":365713,"Delta":49720087},{"NoteNumber":70,"Velocity":66,"Duration":85758,"SoundDuration":85758,"Delta":50000042},{"NoteNumber":76,"Velocity":69,"Duration":85758,"SoundDuration":85758,"Delta":50000042},{"NoteNumber":82,"Velocity":82,"Duration":85758,"SoundDuration":85758,"Delta":50000042},{"NoteNumber":70,"Velocity":70,"Duration":369914,"SoundDuration":369914,"Delta":50085801},{"NoteNumber":76,"Velocity":72,"Duration":369914,"SoundDuration":369914,"Delta":50085801},{"NoteNumber":82,"Velocity":85,"Duration":369914,"SoundDuration":369914,"Delta":50085801},{"NoteNumber":67,"Velocity":64,"Duration":369914,"SoundDuration":369914,"Delta":50085801},{"NoteNumber":60,"Velocity":55,"Duration":369914,"SoundDuration":369914,"Delta":50085801},{"NoteNumber":70,"Velocity":70,"Duration":369914,"SoundDuration":369914,"Delta":50455715},{"NoteNumber":76,"Velocity":70,"Duration":369914,"SoundDuration":369914,"Delta":50455715},{"NoteNumber":82,"Velocity":83,"Duration":369914,"SoundDuration":369914,"Delta":50455715},{"NoteNumber":77,"Velocity":73,"Duration":186636,"SoundDuration":186636,"Delta":50825629},{"NoteNumber":70,"Velocity":73,"Duration":186636,"SoundDuration":186636,"Delta":50825629},{"NoteNumber":82,"Velocity":86,"Duration":186636,"SoundDuration":186636,"Delta":50825629},{"NoteNumber":41,"Velocity":64,"Duration":186636,"SoundDuration":186636,"Delta":50825629},{"NoteNumber":70,"Velocity":69,"Duration":85758,"SoundDuration":85758,"Delta":51105584},{"NoteNumber":77,"Velocity":69,"Duration":85758,"SoundDuration":85758,"Delta":51105584},{"NoteNumber":82,"Velocity":82,"Duration":85758,"SoundDuration":85758,"Delta":51105584},{"NoteNumber":59,"Velocity":65,"Duration":85758,"SoundDuration":85758,"Delta":51105584},{"NoteNumber":70,"Velocity":72,"Duration":369914,"SoundDuration":369914,"Delta":51191343},{"NoteNumber":77,"Velocity":72,"Duration":369914,"SoundDuration":369914,"Delta":51191343},{"NoteNumber":82,"Velocity":85,"Duration":369914,"SoundDuration":369914,"Delta":51191343},{"NoteNumber":60,"Velocity":72,"Duration":277435,"SoundDuration":277435,"Delta":51191343},{"NoteNumber":61,"Velocity":68,"Duration":92478,"SoundDuration":92478,"Delta":51468778},{"NoteNumber":69,"Velocity":67,"Duration":369914,"SoundDuration":369914,"Delta":51561257},{"NoteNumber":77,"Velocity":70,"Duration":369914,"SoundDuration":369914,"Delta":51561257},{"NoteNumber":81,"Velocity":83,"Duration":369914,"SoundDuration":369914,"Delta":51561257},{"NoteNumber":60,"Velocity":72,"Duration":369914,"SoundDuration":369914,"Delta":51561257},{"NoteNumber":76,"Velocity":64,"Duration":186636,"SoundDuration":186636,"Delta":51931171},{"NoteNumber":70,"Velocity":64,"Duration":186636,"SoundDuration":186636,"Delta":51931171},{"NoteNumber":81,"Velocity":78,"Duration":186636,"SoundDuration":186636,"Delta":51931171},{"NoteNumber":48,"Velocity":58,"Duration":186636,"SoundDuration":186636,"Delta":51931171},{"NoteNumber":70,"Velocity":61,"Duration":85758,"SoundDuration":85758,"Delta":52211126},{"NoteNumber":76,"Velocity":61,"Duration":85758,"SoundDuration":85758,"Delta":52211126},{"NoteNumber":81,"Velocity":73,"Duration":85758,"SoundDuration":85758,"Delta":52211126},{"NoteNumber":59,"Velocity":58,"Duration":85758,"SoundDuration":85758,"Delta":52211126},{"NoteNumber":70,"Velocity":63,"Duration":369914,"SoundDuration":369914,"Delta":52296885},{"NoteNumber":76,"Velocity":63,"Duration":369914,"SoundDuration":369914,"Delta":52296885},{"NoteNumber":81,"Velocity":76,"Duration":369914,"SoundDuration":369914,"Delta":52296885},{"NoteNumber":60,"Velocity":63,"Duration":277435,"SoundDuration":277435,"Delta":52296885},{"NoteNumber":62,"Velocity":58,"Duration":92478,"SoundDuration":92478,"Delta":52574320},{"NoteNumber":70,"Velocity":60,"Duration":380203,"SoundDuration":380203,"Delta":52666799},{"NoteNumber":76,"Velocity":60,"Duration":380203,"SoundDuration":380203,"Delta":52666799},{"NoteNumber":79,"Velocity":72,"Duration":380203,"SoundDuration":380203,"Delta":52666799},{"NoteNumber":60,"Velocity":62,"Duration":380203,"SoundDuration":380203,"Delta":52666799},{"NoteNumber":75,"Velocity":58,"Duration":190102,"SoundDuration":190102,"Delta":53047003},{"NoteNumber":69,"Velocity":58,"Duration":190102,"SoundDuration":190102,"Delta":53047003},{"NoteNumber":79,"Velocity":70,"Duration":190102,"SoundDuration":190102,"Delta":53047003},{"NoteNumber":53,"Velocity":52,"Duration":190102,"SoundDuration":190102,"Delta":53047003},{"NoteNumber":69,"Velocity":52,"Duration":87719,"SoundDuration":87719,"Delta":53332156},{"NoteNumber":75,"Velocity":52,"Duration":87719,"SoundDuration":87719,"Delta":53332156},{"NoteNumber":79,"Velocity":62,"Duration":87719,"SoundDuration":87719,"Delta":53332156},{"NoteNumber":59,"Velocity":46,"Duration":87719,"SoundDuration":87719,"Delta":53332156},{"NoteNumber":69,"Velocity":54,"Duration":376694,"SoundDuration":376694,"Delta":53419875},{"NoteNumber":75,"Velocity":54,"Duration":376694,"SoundDuration":376694,"Delta":53419875},{"NoteNumber":79,"Velocity":64,"Duration":376694,"SoundDuration":376694,"Delta":53419875},{"NoteNumber":60,"Velocity":54,"Duration":282521,"SoundDuration":282521,"Delta":53419875},{"NoteNumber":64,"Velocity":45,"Duration":94173,"SoundDuration":94173,"Delta":53702396},{"NoteNumber":69,"Velocity":46,"Duration":396143,"SoundDuration":396143,"Delta":53796570},{"NoteNumber":75,"Velocity":46,"Duration":396143,"SoundDuration":396143,"Delta":53796570},{"NoteNumber":77,"Velocity":56,"Duration":396143,"SoundDuration":396143,"Delta":53796570},{"NoteNumber":65,"Velocity":47,"Duration":396143,"SoundDuration":396143,"Delta":53796570},{"NoteNumber":74,"Velocity":61,"Duration":265424,"SoundDuration":265424,"Delta":54192714},{"NoteNumber":46,"Velocity":44,"Duration":353898,"SoundDuration":353898,"Delta":54192714},{"NoteNumber":74,"Velocity":58,"Duration":88474,"SoundDuration":88474,"Delta":54458138},{"NoteNumber":65,"Velocity":45,"Duration":353898,"SoundDuration":353898,"Delta":54546613},{"NoteNumber":70,"Velocity":45,"Duration":353898,"SoundDuration":353898,"Delta":54546613},{"NoteNumber":75,"Velocity":62,"Duration":353898,"SoundDuration":353898,"Delta":54546613},{"NoteNumber":62,"Velocity":40,"Duration":353898,"SoundDuration":353898,"Delta":54546613},{"NoteNumber":58,"Velocity":33,"Duration":353898,"SoundDuration":353898,"Delta":54546613},{"NoteNumber":53,"Velocity":33,"Duration":353898,"SoundDuration":353898,"Delta":54546613},{"NoteNumber":65,"Velocity":46,"Duration":381946,"SoundDuration":381946,"Delta":54900512},{"NoteNumber":70,"Velocity":46,"Duration":381946,"SoundDuration":381946,"Delta":54900512},{"NoteNumber":76,"Velocity":55,"Duration":381946,"SoundDuration":381946,"Delta":54900512},{"NoteNumber":53,"Velocity":34,"Duration":381946,"SoundDuration":381946,"Delta":54900512},{"NoteNumber":62,"Velocity":41,"Duration":381946,"SoundDuration":381946,"Delta":54900512},{"NoteNumber":58,"Velocity":34,"Duration":381946,"SoundDuration":381946,"Delta":54900512},{"NoteNumber":78,"Velocity":64,"Duration":264674,"SoundDuration":264674,"Delta":55282459},{"NoteNumber":45,"Velocity":46,"Duration":352899,"SoundDuration":352899,"Delta":55282459},{"NoteNumber":77,"Velocity":60,"Duration":88225,"SoundDuration":88225,"Delta":55547134},{"NoteNumber":65,"Velocity":53,"Duration":264675,"SoundDuration":264675,"Delta":55635359},{"NoteNumber":72,"Velocity":64,"Duration":352900,"SoundDuration":352900,"Delta":55635359},{"NoteNumber":63,"Velocity":43,"Duration":352900,"SoundDuration":352900,"Delta":55635359},{"NoteNumber":60,"Velocity":35,"Duration":352900,"SoundDuration":352900,"Delta":55635359},{"NoteNumber":53,"Velocity":35,"Duration":352900,"SoundDuration":352900,"Delta":55635359},{"NoteNumber":66,"Velocity":47,"Duration":88225,"SoundDuration":88225,"Delta":55900034},{"NoteNumber":65,"Velocity":48,"Duration":379027,"SoundDuration":379027,"Delta":55988259},{"NoteNumber":72,"Velocity":57,"Duration":379027,"SoundDuration":379027,"Delta":55988259},{"NoteNumber":63,"Velocity":44,"Duration":379027,"SoundDuration":379027,"Delta":55988259},{"NoteNumber":60,"Velocity":36,"Duration":379027,"SoundDuration":379027,"Delta":55988259},{"NoteNumber":53,"Velocity":36,"Duration":379027,"SoundDuration":379027,"Delta":55988259},{"NoteNumber":73,"Velocity":68,"Duration":264674,"SoundDuration":264674,"Delta":56367286},{"NoteNumber":46,"Velocity":49,"Duration":352899,"SoundDuration":352899,"Delta":56367286},{"NoteNumber":73,"Velocity":64,"Duration":88225,"SoundDuration":88225,"Delta":56631961},{"NoteNumber":65,"Velocity":50,"Duration":352900,"SoundDuration":352900,"Delta":56720186},{"NoteNumber":70,"Velocity":50,"Duration":352900,"SoundDuration":352900,"Delta":56720186},{"NoteNumber":75,"Velocity":69,"Duration":352900,"SoundDuration":352900,"Delta":56720186},{"NoteNumber":61,"Velocity":45,"Duration":352900,"SoundDuration":352900,"Delta":56720186},{"NoteNumber":58,"Velocity":37,"Duration":352900,"SoundDuration":352900,"Delta":56720186},{"NoteNumber":53,"Velocity":37,"Duration":352900,"SoundDuration":352900,"Delta":56720186},{"NoteNumber":65,"Velocity":50,"Duration":368777,"SoundDuration":368777,"Delta":57073086},{"NoteNumber":70,"Velocity":50,"Duration":368777,"SoundDuration":368777,"Delta":57073086},{"NoteNumber":76,"Velocity":60,"Duration":368777,"SoundDuration":368777,"Delta":57073086},{"NoteNumber":53,"Velocity":37,"Duration":368777,"SoundDuration":368777,"Delta":57073086},{"NoteNumber":61,"Velocity":45,"Duration":368777,"SoundDuration":368777,"Delta":57073086},{"NoteNumber":58,"Velocity":37,"Duration":368777,"SoundDuration":368777,"Delta":57073086},{"NoteNumber":78,"Velocity":74,"Duration":264674,"SoundDuration":264674,"Delta":57441863},{"NoteNumber":44,"Velocity":53,"Duration":352899,"SoundDuration":352899,"Delta":57441863},{"NoteNumber":77,"Velocity":72,"Duration":88225,"SoundDuration":88225,"Delta":57706538},{"NoteNumber":73,"Velocity":62,"Duration":367488,"SoundDuration":367488,"Delta":57794763},{"NoteNumber":68,"Velocity":62,"Duration":367488,"SoundDuration":367488,"Delta":57794763},{"NoteNumber":80,"Velocity":75,"Duration":367488,"SoundDuration":367488,"Delta":57794763},{"NoteNumber":53,"Velocity":46,"Duration":275616,"SoundDuration":275616,"Delta":57794763},{"NoteNumber":56,"Velocity":46,"Duration":275616,"SoundDuration":275616,"Delta":57794763},{"NoteNumber":65,"Velocity":54,"Duration":275616,"SoundDuration":275616,"Delta":57794763},{"NoteNumber":61,"Velocity":46,"Duration":275616,"SoundDuration":275616,"Delta":57794763},{"NoteNumber":46,"Velocity":54,"Duration":91872,"SoundDuration":91872,"Delta":58070380},{"NoteNumber":73,"Velocity":73,"Duration":389636,"SoundDuration":389636,"Delta":58162252},{"NoteNumber":85,"Velocity":89,"Duration":389636,"SoundDuration":389636,"Delta":58162252},{"NoteNumber":44,"Velocity":67,"Duration":389636,"SoundDuration":389636,"Delta":58162252},{"NoteNumber":72,"Velocity":80,"Duration":186636,"SoundDuration":186636,"Delta":58551888},{"NoteNumber":66,"Velocity":80,"Duration":186636,"SoundDuration":186636,"Delta":58551888},{"NoteNumber":78,"Velocity":94,"Duration":186636,"SoundDuration":186636,"Delta":58551888},{"NoteNumber":32,"Velocity":70,"Duration":365713,"SoundDuration":365713,"Delta":58551888},{"NoteNumber":66,"Velocity":75,"Duration":85758,"SoundDuration":85758,"Delta":58831843},{"NoteNumber":72,"Velocity":75,"Duration":85758,"SoundDuration":85758,"Delta":58831843},{"NoteNumber":78,"Velocity":90,"Duration":85758,"SoundDuration":85758,"Delta":58831843},{"NoteNumber":66,"Velocity":79,"Duration":369914,"SoundDuration":369914,"Delta":58917602},{"NoteNumber":72,"Velocity":79,"Duration":369914,"SoundDuration":369914,"Delta":58917602},{"NoteNumber":78,"Velocity":93,"Duration":369914,"SoundDuration":369914,"Delta":58917602},{"NoteNumber":63,"Velocity":70,"Duration":369914,"SoundDuration":369914,"Delta":58917602},{"NoteNumber":56,"Velocity":60,"Duration":369914,"SoundDuration":369914,"Delta":58917602},{"NoteNumber":66,"Velocity":75,"Duration":369914,"SoundDuration":369914,"Delta":59287516},{"NoteNumber":72,"Velocity":75,"Duration":369914,"SoundDuration":369914,"Delta":59287516},{"NoteNumber":78,"Velocity":90,"Duration":369914,"SoundDuration":369914,"Delta":59287516},{"NoteNumber":73,"Velocity":79,"Duration":186636,"SoundDuration":186636,"Delta":59657430},{"NoteNumber":66,"Velocity":79,"Duration":186636,"SoundDuration":186636,"Delta":59657430},{"NoteNumber":78,"Velocity":93,"Duration":186636,"SoundDuration":186636,"Delta":59657430},{"NoteNumber":37,"Velocity":69,"Duration":186636,"SoundDuration":186636,"Delta":59657430},{"NoteNumber":66,"Velocity":73,"Duration":85758,"SoundDuration":85758,"Delta":59937385},{"NoteNumber":73,"Velocity":73,"Duration":85758,"SoundDuration":85758,"Delta":59937385},{"NoteNumber":78,"Velocity":88,"Duration":85758,"SoundDuration":85758,"Delta":59937385},{"NoteNumber":55,"Velocity":73,"Duration":85758,"SoundDuration":85758,"Delta":59937385},{"NoteNumber":66,"Velocity":77,"Duration":369914,"SoundDuration":369914,"Delta":60023144},{"NoteNumber":73,"Velocity":77,"Duration":369914,"SoundDuration":369914,"Delta":60023144},{"NoteNumber":78,"Velocity":91,"Duration":369914,"SoundDuration":369914,"Delta":60023144},{"NoteNumber":56,"Velocity":77,"Duration":277435,"SoundDuration":277435,"Delta":60023144},{"NoteNumber":58,"Velocity":72,"Duration":92478,"SoundDuration":92478,"Delta":60300579},{"NoteNumber":65,"Velocity":73,"Duration":369914,"SoundDuration":369914,"Delta":60393058},{"NoteNumber":73,"Velocity":73,"Duration":369914,"SoundDuration":369914,"Delta":60393058},{"NoteNumber":77,"Velocity":88,"Duration":369914,"SoundDuration":369914,"Delta":60393058},{"NoteNumber":56,"Velocity":75,"Duration":369914,"SoundDuration":369914,"Delta":60393058},{"NoteNumber":72,"Velocity":67,"Duration":186636,"SoundDuration":186636,"Delta":60762972},{"NoteNumber":66,"Velocity":67,"Duration":186636,"SoundDuration":186636,"Delta":60762972},{"NoteNumber":77,"Velocity":81,"Duration":186636,"SoundDuration":186636,"Delta":60762972},{"NoteNumber":44,"Velocity":60,"Duration":186636,"SoundDuration":186636,"Delta":60762972},{"NoteNumber":66,"Velocity":63,"Duration":85758,"SoundDuration":85758,"Delta":61042927},{"NoteNumber":72,"Velocity":63,"Duration":85758,"SoundDuration":85758,"Delta":61042927},{"NoteNumber":77,"Velocity":76,"Duration":85758,"SoundDuration":85758,"Delta":61042927},{"NoteNumber":55,"Velocity":60,"Duration":85758,"SoundDuration":85758,"Delta":61042927},{"NoteNumber":66,"Velocity":59,"Duration":369914,"SoundDuration":369914,"Delta":61128686},{"NoteNumber":72,"Velocity":65,"Duration":369914,"SoundDuration":369914,"Delta":61128686},{"NoteNumber":77,"Velocity":77,"Duration":369914,"SoundDuration":369914,"Delta":61128686},{"NoteNumber":56,"Velocity":65,"Duration":277435,"SoundDuration":277435,"Delta":61128686},{"NoteNumber":57,"Velocity":63,"Duration":92478,"SoundDuration":92478,"Delta":61406121},{"NoteNumber":66,"Velocity":63,"Duration":380203,"SoundDuration":380203,"Delta":61498600},{"NoteNumber":72,"Velocity":63,"Duration":380203,"SoundDuration":380203,"Delta":61498600},{"NoteNumber":75,"Velocity":74,"Duration":380203,"SoundDuration":380203,"Delta":61498600},{"NoteNumber":56,"Velocity":64,"Duration":380203,"SoundDuration":380203,"Delta":61498600},{"NoteNumber":66,"Velocity":59,"Duration":190102,"SoundDuration":190102,"Delta":61878804},{"NoteNumber":75,"Velocity":72,"Duration":190102,"SoundDuration":190102,"Delta":61878804},{"NoteNumber":49,"Velocity":53,"Duration":190102,"SoundDuration":190102,"Delta":61878804},{"NoteNumber":66,"Velocity":53,"Duration":87719,"SoundDuration":87719,"Delta":62163957},{"NoteNumber":68,"Velocity":53,"Duration":87719,"SoundDuration":87719,"Delta":62163957},{"NoteNumber":75,"Velocity":63,"Duration":87719,"SoundDuration":87719,"Delta":62163957},{"NoteNumber":55,"Velocity":46,"Duration":87719,"SoundDuration":87719,"Delta":62163957},{"NoteNumber":66,"Velocity":55,"Duration":376694,"SoundDuration":376694,"Delta":62251676},{"NoteNumber":68,"Velocity":55,"Duration":772838,"SoundDuration":772838,"Delta":62251676},{"NoteNumber":75,"Velocity":65,"Duration":376694,"SoundDuration":376694,"Delta":62251676},{"NoteNumber":56,"Velocity":55,"Duration":282521,"SoundDuration":282521,"Delta":62251676},{"NoteNumber":60,"Velocity":45,"Duration":94173,"SoundDuration":94173,"Delta":62534197},{"NoteNumber":65,"Velocity":46,"Duration":396143,"SoundDuration":396143,"Delta":62628371},{"NoteNumber":73,"Velocity":56,"Duration":396143,"SoundDuration":396143,"Delta":62628371},{"NoteNumber":61,"Velocity":47,"Duration":396143,"SoundDuration":396143,"Delta":62628371},{"NoteNumber":68,"Velocity":52,"Duration":96121,"SoundDuration":96121,"Delta":63024515},{"NoteNumber":74,"Velocity":62,"Duration":96121,"SoundDuration":96121,"Delta":63024515},{"NoteNumber":41,"Velocity":40,"Duration":144182,"SoundDuration":144182,"Delta":63024515},{"NoteNumber":62,"Velocity":56,"Duration":96121,"SoundDuration":96121,"Delta":63120636},{"NoteNumber":68,"Velocity":47,"Duration":806424,"SoundDuration":806424,"Delta":63216758},{"NoteNumber":74,"Velocity":56,"Duration":447019,"SoundDuration":447019,"Delta":63216758},{"NoteNumber":62,"Velocity":66,"Duration":350898,"SoundDuration":350898,"Delta":63312879},{"NoteNumber":59,"Velocity":35,"Duration":350898,"SoundDuration":350898,"Delta":63312879},{"NoteNumber":53,"Velocity":29,"Duration":350898,"SoundDuration":350898,"Delta":63312879},{"NoteNumber":62,"Velocity":58,"Duration":359405,"SoundDuration":359405,"Delta":63663777},{"NoteNumber":74,"Velocity":63,"Duration":359405,"SoundDuration":359405,"Delta":63663777},{"NoteNumber":53,"Velocity":30,"Duration":359405,"SoundDuration":359405,"Delta":63663777},{"NoteNumber":59,"Velocity":36,"Duration":359405,"SoundDuration":359405,"Delta":63663777},{"NoteNumber":69,"Velocity":56,"Duration":101657,"SoundDuration":101657,"Delta":64023182},{"NoteNumber":74,"Velocity":66,"Duration":101657,"SoundDuration":101657,"Delta":64023182},{"NoteNumber":42,"Velocity":43,"Duration":152485,"SoundDuration":152485,"Delta":64023182},{"NoteNumber":62,"Velocity":59,"Duration":101657,"SoundDuration":101657,"Delta":64124839},{"NoteNumber":69,"Velocity":50,"Duration":822261,"SoundDuration":822261,"Delta":64226496},{"NoteNumber":74,"Velocity":60,"Duration":631288,"SoundDuration":631288,"Delta":64226496},{"NoteNumber":62,"Velocity":70,"Duration":529631,"SoundDuration":529631,"Delta":64328153},{"NoteNumber":57,"Velocity":37,"Duration":338657,"SoundDuration":338657,"Delta":64328153},{"NoteNumber":54,"Velocity":31,"Duration":338657,"SoundDuration":338657,"Delta":64328153},{"NoteNumber":54,"Velocity":32,"Duration":381946,"SoundDuration":381946,"Delta":64666811},{"NoteNumber":57,"Velocity":38,"Duration":381946,"SoundDuration":381946,"Delta":64666811},{"NoteNumber":61,"Velocity":60,"Duration":190973,"SoundDuration":190973,"Delta":64857785},{"NoteNumber":73,"Velocity":64,"Duration":190973,"SoundDuration":190973,"Delta":64857785},{"NoteNumber":68,"Velocity":59,"Duration":95882,"SoundDuration":95882,"Delta":65048758},{"NoteNumber":74,"Velocity":70,"Duration":95882,"SoundDuration":95882,"Delta":65048758},{"NoteNumber":41,"Velocity":45,"Duration":143822,"SoundDuration":143822,"Delta":65048758},{"NoteNumber":62,"Velocity":63,"Duration":95882,"SoundDuration":95882,"Delta":65144640},{"NoteNumber":68,"Velocity":53,"Duration":789716,"SoundDuration":789716,"Delta":65240522},{"NoteNumber":74,"Velocity":63,"Duration":434539,"SoundDuration":434539,"Delta":65240522},{"NoteNumber":62,"Velocity":74,"Duration":338657,"SoundDuration":338657,"Delta":65336404},{"NoteNumber":59,"Velocity":40,"Duration":338657,"SoundDuration":338657,"Delta":65336404},{"NoteNumber":53,"Velocity":33,"Duration":338657,"SoundDuration":338657,"Delta":65336404},{"NoteNumber":62,"Velocity":65,"Duration":355176,"SoundDuration":355176,"Delta":65675062},{"NoteNumber":74,"Velocity":70,"Duration":355176,"SoundDuration":355176,"Delta":65675062},{"NoteNumber":53,"Velocity":34,"Duration":355176,"SoundDuration":355176,"Delta":65675062},{"NoteNumber":59,"Velocity":40,"Duration":355176,"SoundDuration":355176,"Delta":65675062},{"NoteNumber":69,"Velocity":62,"Duration":100862,"SoundDuration":100862,"Delta":66030239},{"NoteNumber":74,"Velocity":74,"Duration":100862,"SoundDuration":100862,"Delta":66030239},{"NoteNumber":42,"Velocity":48,"Duration":151293,"SoundDuration":151293,"Delta":66030239},{"NoteNumber":62,"Velocity":66,"Duration":100862,"SoundDuration":100862,"Delta":66131102},{"NoteNumber":69,"Velocity":56,"Duration":796876,"SoundDuration":796876,"Delta":66231964},{"NoteNumber":74,"Velocity":67,"Duration":618198,"SoundDuration":618198,"Delta":66231964},{"NoteNumber":62,"Velocity":78,"Duration":517336,"SoundDuration":517336,"Delta":66332826},{"NoteNumber":57,"Velocity":42,"Duration":338657,"SoundDuration":338657,"Delta":66332826},{"NoteNumber":54,"Velocity":35,"Duration":338657,"SoundDuration":338657,"Delta":66332826},{"NoteNumber":54,"Velocity":36,"Duration":357355,"SoundDuration":357355,"Delta":66671484},{"NoteNumber":57,"Velocity":43,"Duration":357355,"SoundDuration":357355,"Delta":66671484},{"NoteNumber":61,"Velocity":67,"Duration":178677,"SoundDuration":178677,"Delta":66850162},{"NoteNumber":73,"Velocity":72,"Duration":178677,"SoundDuration":178677,"Delta":66850162},{"NoteNumber":68,"Velocity":66,"Duration":95174,"SoundDuration":95174,"Delta":67028840},{"NoteNumber":74,"Velocity":78,"Duration":95174,"SoundDuration":95174,"Delta":67028840},{"NoteNumber":40,"Velocity":51,"Duration":142762,"SoundDuration":142762,"Delta":67028840},{"NoteNumber":62,"Velocity":70,"Duration":95174,"SoundDuration":95174,"Delta":67124015},{"NoteNumber":68,"Velocity":59,"Duration":804346,"SoundDuration":804346,"Delta":67219190},{"NoteNumber":74,"Velocity":70,"Duration":442919,"SoundDuration":442919,"Delta":67219190},{"NoteNumber":62,"Velocity":82,"Duration":347745,"SoundDuration":347745,"Delta":67314364},{"NoteNumber":59,"Velocity":44,"Duration":347745,"SoundDuration":347745,"Delta":67314364},{"NoteNumber":52,"Velocity":37,"Duration":347745,"SoundDuration":347745,"Delta":67314364},{"NoteNumber":62,"Velocity":70,"Duration":361426,"SoundDuration":361426,"Delta":67662109},{"NoteNumber":74,"Velocity":76,"Duration":361426,"SoundDuration":361426,"Delta":67662109},{"NoteNumber":52,"Velocity":37,"Duration":361426,"SoundDuration":361426,"Delta":67662109},{"NoteNumber":59,"Velocity":44,"Duration":361426,"SoundDuration":361426,"Delta":67662109},{"NoteNumber":69,"Velocity":66,"Duration":101250,"SoundDuration":101250,"Delta":68023536},{"NoteNumber":74,"Velocity":78,"Duration":101250,"SoundDuration":101250,"Delta":68023536},{"NoteNumber":45,"Velocity":51,"Duration":151162,"SoundDuration":151162,"Delta":68023536},{"NoteNumber":62,"Velocity":70,"Duration":99825,"SoundDuration":99825,"Delta":68124786},{"NoteNumber":69,"Velocity":59,"Duration":796927,"SoundDuration":796927,"Delta":68224611},{"NoteNumber":74,"Velocity":70,"Duration":617705,"SoundDuration":617705,"Delta":68224611},{"NoteNumber":62,"Velocity":82,"Duration":517879,"SoundDuration":517879,"Delta":68324436},{"NoteNumber":57,"Velocity":44,"Duration":338657,"SoundDuration":338657,"Delta":68324436},{"NoteNumber":52,"Velocity":37,"Duration":338657,"SoundDuration":338657,"Delta":68324436},{"NoteNumber":52,"Velocity":37,"Duration":358444,"SoundDuration":358444,"Delta":68663094},{"NoteNumber":57,"Velocity":44,"Duration":358444,"SoundDuration":358444,"Delta":68663094},{"NoteNumber":61,"Velocity":68,"Duration":179222,"SoundDuration":179222,"Delta":68842316},{"NoteNumber":73,"Velocity":73,"Duration":179222,"SoundDuration":179222,"Delta":68842316},{"NoteNumber":68,"Velocity":66,"Duration":105524,"SoundDuration":105524,"Delta":69021538},{"NoteNumber":74,"Velocity":78,"Duration":105524,"SoundDuration":105524,"Delta":69021538},{"NoteNumber":40,"Velocity":51,"Duration":158286,"SoundDuration":158286,"Delta":69021538},{"NoteNumber":62,"Velocity":70,"Duration":105524,"SoundDuration":105524,"Delta":69127063},{"NoteNumber":68,"Velocity":59,"Duration":829935,"SoundDuration":829935,"Delta":69232587},{"NoteNumber":74,"Velocity":70,"Duration":444182,"SoundDuration":444182,"Delta":69232587},{"NoteNumber":62,"Velocity":82,"Duration":338657,"SoundDuration":338657,"Delta":69338111},{"NoteNumber":59,"Velocity":44,"Duration":338657,"SoundDuration":338657,"Delta":69338111},{"NoteNumber":52,"Velocity":37,"Duration":338657,"SoundDuration":338657,"Delta":69338111},{"NoteNumber":62,"Velocity":70,"Duration":385752,"SoundDuration":385752,"Delta":69676769},{"NoteNumber":74,"Velocity":76,"Duration":385752,"SoundDuration":385752,"Delta":69676769},{"NoteNumber":52,"Velocity":37,"Duration":385752,"SoundDuration":385752,"Delta":69676769},{"NoteNumber":59,"Velocity":44,"Duration":385752,"SoundDuration":385752,"Delta":69676769},{"NoteNumber":69,"Velocity":66,"Duration":114214,"SoundDuration":114214,"Delta":70062522},{"NoteNumber":74,"Velocity":78,"Duration":114214,"SoundDuration":114214,"Delta":70062522},{"NoteNumber":45,"Velocity":51,"Duration":171321,"SoundDuration":171321,"Delta":70062522},{"NoteNumber":62,"Velocity":70,"Duration":114213,"SoundDuration":114213,"Delta":70176736},{"NoteNumber":69,"Velocity":59,"Duration":881474,"SoundDuration":881474,"Delta":70290950},{"NoteNumber":74,"Velocity":70,"Duration":683350,"SoundDuration":683350,"Delta":70290950},{"NoteNumber":62,"Velocity":82,"Duration":569136,"SoundDuration":569136,"Delta":70405164},{"NoteNumber":57,"Velocity":44,"Duration":371011,"SoundDuration":371011,"Delta":70405164},{"NoteNumber":52,"Velocity":37,"Duration":371011,"SoundDuration":371011,"Delta":70405164},{"NoteNumber":52,"Velocity":37,"Duration":396248,"SoundDuration":396248,"Delta":70776176},{"NoteNumber":57,"Velocity":44,"Duration":396248,"SoundDuration":396248,"Delta":70776176},{"NoteNumber":61,"Velocity":68,"Duration":198124,"SoundDuration":198124,"Delta":70974301},{"NoteNumber":73,"Velocity":73,"Duration":198124,"SoundDuration":198124,"Delta":70974301},{"NoteNumber":68,"Velocity":52,"Duration":109697,"SoundDuration":109697,"Delta":71172425},{"NoteNumber":74,"Velocity":62,"Duration":109697,"SoundDuration":109697,"Delta":71172425},{"NoteNumber":41,"Velocity":40,"Duration":164546,"SoundDuration":164546,"Delta":71172425},{"NoteNumber":62,"Velocity":56,"Duration":109697,"SoundDuration":109697,"Delta":71282123},{"NoteNumber":68,"Velocity":47,"Duration":839389,"SoundDuration":839389,"Delta":71391820},{"NoteNumber":74,"Velocity":56,"Duration":457442,"SoundDuration":457442,"Delta":71391820},{"NoteNumber":62,"Velocity":65,"Duration":347745,"SoundDuration":347745,"Delta":71501517},{"NoteNumber":59,"Velocity":35,"Duration":347745,"SoundDuration":347745,"Delta":71501517},{"NoteNumber":53,"Velocity":29,"Duration":347745,"SoundDuration":347745,"Delta":71501517},{"NoteNumber":62,"Velocity":56,"Duration":381946,"SoundDuration":381946,"Delta":71849262},{"NoteNumber":74,"Velocity":61,"Duration":381946,"SoundDuration":381946,"Delta":71849262},{"NoteNumber":53,"Velocity":29,"Duration":381946,"SoundDuration":381946,"Delta":71849262},{"NoteNumber":59,"Velocity":35,"Duration":381946,"SoundDuration":381946,"Delta":71849262},{"NoteNumber":69,"Velocity":54,"Duration":106974,"SoundDuration":106974,"Delta":72231209},{"NoteNumber":74,"Velocity":63,"Duration":106974,"SoundDuration":106974,"Delta":72231209},{"NoteNumber":42,"Velocity":41,"Duration":160461,"SoundDuration":160461,"Delta":72231209},{"NoteNumber":62,"Velocity":57,"Duration":106974,"SoundDuration":106974,"Delta":72338184},{"NoteNumber":69,"Velocity":48,"Duration":812657,"SoundDuration":812657,"Delta":72445159},{"NoteNumber":74,"Velocity":58,"Duration":630629,"SoundDuration":630629,"Delta":72445159},{"NoteNumber":62,"Velocity":68,"Duration":523655,"SoundDuration":523655,"Delta":72552133},{"NoteNumber":57,"Velocity":36,"Duration":341627,"SoundDuration":341627,"Delta":72552133},{"NoteNumber":54,"Velocity":30,"Duration":341627,"SoundDuration":341627,"Delta":72552133},{"NoteNumber":54,"Velocity":31,"Duration":364056,"SoundDuration":364056,"Delta":72893760},{"NoteNumber":57,"Velocity":36,"Duration":364056,"SoundDuration":364056,"Delta":72893760},{"NoteNumber":61,"Velocity":57,"Duration":182028,"SoundDuration":182028,"Delta":73075788},{"NoteNumber":73,"Velocity":61,"Duration":182028,"SoundDuration":182028,"Delta":73075788},{"NoteNumber":68,"Velocity":56,"Duration":101657,"SoundDuration":101657,"Delta":73257816},{"NoteNumber":74,"Velocity":66,"Duration":101657,"SoundDuration":101657,"Delta":73257816},{"NoteNumber":41,"Velocity":43,"Duration":152485,"SoundDuration":152485,"Delta":73257816},{"NoteNumber":62,"Velocity":59,"Duration":101657,"SoundDuration":101657,"Delta":73359473},{"NoteNumber":68,"Velocity":50,"Duration":809008,"SoundDuration":809008,"Delta":73461130},{"NoteNumber":74,"Velocity":59,"Duration":440314,"SoundDuration":440314,"Delta":73461130},{"NoteNumber":62,"Velocity":69,"Duration":338657,"SoundDuration":338657,"Delta":73562787},{"NoteNumber":59,"Velocity":37,"Duration":338657,"SoundDuration":338657,"Delta":73562787},{"NoteNumber":53,"Velocity":31,"Duration":338657,"SoundDuration":338657,"Delta":73562787},{"NoteNumber":62,"Velocity":60,"Duration":368693,"SoundDuration":368693,"Delta":73901445},{"NoteNumber":74,"Velocity":65,"Duration":368693,"SoundDuration":368693,"Delta":73901445},{"NoteNumber":53,"Velocity":31,"Duration":368693,"SoundDuration":368693,"Delta":73901445},{"NoteNumber":59,"Velocity":37,"Duration":368693,"SoundDuration":368693,"Delta":73901445},{"NoteNumber":69,"Velocity":57,"Duration":111907,"SoundDuration":111907,"Delta":74270139},{"NoteNumber":74,"Velocity":67,"Duration":111907,"SoundDuration":111907,"Delta":74270139},{"NoteNumber":42,"Velocity":44,"Duration":167860,"SoundDuration":167860,"Delta":74270139},{"NoteNumber":62,"Velocity":60,"Duration":111907,"SoundDuration":111907,"Delta":74382046},{"NoteNumber":69,"Velocity":51,"Duration":840474,"SoundDuration":840474,"Delta":74493953},{"NoteNumber":74,"Velocity":61,"Duration":653779,"SoundDuration":653779,"Delta":74493953},{"NoteNumber":62,"Velocity":72,"Duration":541871,"SoundDuration":541871,"Delta":74605860},{"NoteNumber":57,"Velocity":38,"Duration":355176,"SoundDuration":355176,"Delta":74605860},{"NoteNumber":54,"Velocity":32,"Duration":355176,"SoundDuration":355176,"Delta":74605860},{"NoteNumber":54,"Velocity":32,"Duration":373390,"SoundDuration":373390,"Delta":74961037},{"NoteNumber":57,"Velocity":39,"Duration":373390,"SoundDuration":373390,"Delta":74961037},{"NoteNumber":61,"Velocity":60,"Duration":186695,"SoundDuration":186695,"Delta":75147732},{"NoteNumber":73,"Velocity":64,"Duration":186695,"SoundDuration":186695,"Delta":75147732},{"NoteNumber":68,"Velocity":59,"Duration":105524,"SoundDuration":105524,"Delta":75334427},{"NoteNumber":74,"Velocity":70,"Duration":105524,"SoundDuration":105524,"Delta":75334427},{"NoteNumber":40,"Velocity":45,"Duration":158286,"SoundDuration":158286,"Delta":75334427},{"NoteNumber":62,"Velocity":63,"Duration":105524,"SoundDuration":105524,"Delta":75439952},{"NoteNumber":68,"Velocity":53,"Duration":801538,"SoundDuration":801538,"Delta":75545476},{"NoteNumber":74,"Velocity":63,"Duration":444182,"SoundDuration":444182,"Delta":75545476},{"NoteNumber":62,"Velocity":73,"Duration":338657,"SoundDuration":338657,"Delta":75651000},{"NoteNumber":59,"Velocity":39,"Duration":338657,"SoundDuration":338657,"Delta":75651000},{"NoteNumber":52,"Velocity":33,"Duration":338657,"SoundDuration":338657,"Delta":75651000},{"NoteNumber":62,"Velocity":63,"Duration":357355,"SoundDuration":357355,"Delta":75989658},{"NoteNumber":74,"Velocity":68,"Duration":357355,"SoundDuration":357355,"Delta":75989658},{"NoteNumber":52,"Velocity":33,"Duration":357355,"SoundDuration":357355,"Delta":75989658},{"NoteNumber":59,"Velocity":39,"Duration":357355,"SoundDuration":357355,"Delta":75989658},{"NoteNumber":69,"Velocity":59,"Duration":107868,"SoundDuration":107868,"Delta":76347014},{"NoteNumber":74,"Velocity":70,"Duration":107868,"SoundDuration":107868,"Delta":76347014},{"NoteNumber":45,"Velocity":45,"Duration":161803,"SoundDuration":161803,"Delta":76347014},{"NoteNumber":62,"Velocity":63,"Duration":107869,"SoundDuration":107869,"Delta":76454883},{"NoteNumber":69,"Velocity":53,"Duration":836536,"SoundDuration":836536,"Delta":76562752},{"NoteNumber":74,"Velocity":63,"Duration":645563,"SoundDuration":645563,"Delta":76562752},{"NoteNumber":62,"Velocity":73,"Duration":537694,"SoundDuration":537694,"Delta":76670621},{"NoteNumber":57,"Velocity":39,"Duration":346721,"SoundDuration":346721,"Delta":76670621},{"NoteNumber":52,"Velocity":33,"Duration":346721,"SoundDuration":346721,"Delta":76670621},{"NoteNumber":52,"Velocity":33,"Duration":381946,"SoundDuration":381946,"Delta":77017342},{"NoteNumber":57,"Velocity":39,"Duration":381946,"SoundDuration":381946,"Delta":77017342},{"NoteNumber":61,"Velocity":61,"Duration":190973,"SoundDuration":190973,"Delta":77208316},{"NoteNumber":73,"Velocity":65,"Duration":190973,"SoundDuration":190973,"Delta":77208316},{"NoteNumber":68,"Velocity":59,"Duration":111588,"SoundDuration":111588,"Delta":77399289},{"NoteNumber":74,"Velocity":70,"Duration":111588,"SoundDuration":111588,"Delta":77399289},{"NoteNumber":40,"Velocity":45,"Duration":167382,"SoundDuration":167382,"Delta":77399289},{"NoteNumber":62,"Velocity":63,"Duration":111588,"SoundDuration":111588,"Delta":77510878},{"NoteNumber":68,"Velocity":52,"Duration":847622,"SoundDuration":847622,"Delta":77622466},{"NoteNumber":74,"Velocity":62,"Duration":465675,"SoundDuration":465675,"Delta":77622466},{"NoteNumber":62,"Velocity":72,"Duration":354087,"SoundDuration":354087,"Delta":77734054},{"NoteNumber":59,"Velocity":38,"Duration":354087,"SoundDuration":354087,"Delta":77734054},{"NoteNumber":52,"Velocity":32,"Duration":354087,"SoundDuration":354087,"Delta":77734054},{"NoteNumber":62,"Velocity":59,"Duration":381946,"SoundDuration":381946,"Delta":78088141},{"NoteNumber":74,"Velocity":64,"Duration":381946,"SoundDuration":381946,"Delta":78088141},{"NoteNumber":52,"Velocity":31,"Duration":381946,"SoundDuration":381946,"Delta":78088141},{"NoteNumber":59,"Velocity":36,"Duration":381946,"SoundDuration":381946,"Delta":78088141},{"NoteNumber":67,"Velocity":54,"Duration":116265,"SoundDuration":116265,"Delta":78470088},{"NoteNumber":74,"Velocity":64,"Duration":116265,"SoundDuration":116265,"Delta":78470088},{"NoteNumber":45,"Velocity":42,"Duration":174398,"SoundDuration":174398,"Delta":78470088},{"NoteNumber":62,"Velocity":57,"Duration":116265,"SoundDuration":116265,"Delta":78586354},{"NoteNumber":67,"Velocity":47,"Duration":903468,"SoundDuration":903468,"Delta":78702620},{"NoteNumber":74,"Velocity":56,"Duration":698368,"SoundDuration":698368,"Delta":78702620},{"NoteNumber":62,"Velocity":65,"Duration":377003,"SoundDuration":377003,"Delta":78818885},{"NoteNumber":64,"Velocity":35,"Duration":377003,"SoundDuration":377003,"Delta":78818885},{"NoteNumber":57,"Velocity":29,"Duration":377003,"SoundDuration":377003,"Delta":78818885},{"NoteNumber":61,"Velocity":53,"Duration":410200,"SoundDuration":410200,"Delta":79195888},{"NoteNumber":57,"Velocity":28,"Duration":410200,"SoundDuration":410200,"Delta":79195888},{"NoteNumber":64,"Velocity":34,"Duration":410200,"SoundDuration":410200,"Delta":79195888},{"NoteNumber":73,"Velocity":56,"Duration":205100,"SoundDuration":205100,"Delta":79400988},{"NoteNumber":69,"Velocity":68,"Duration":170319,"SoundDuration":170319,"Delta":79606088},{"NoteNumber":50,"Velocity":59,"Duration":170319,"SoundDuration":170319,"Delta":79606088},{"NoteNumber":73,"Velocity":70,"Duration":170318,"SoundDuration":170318,"Delta":79776407},{"NoteNumber":74,"Velocity":71,"Duration":154504,"SoundDuration":154504,"Delta":79946726},{"NoteNumber":66,"Velocity":60,"Duration":309008,"SoundDuration":309008,"Delta":79946726},{"NoteNumber":50,"Velocity":52,"Duration":309008,"SoundDuration":309008,"Delta":79946726},{"NoteNumber":57,"Velocity":52,"Duration":309008,"SoundDuration":309008,"Delta":79946726},{"NoteNumber":62,"Velocity":52,"Duration":309008,"SoundDuration":309008,"Delta":79946726},{"NoteNumber":76,"Velocity":71,"Duration":154504,"SoundDuration":154504,"Delta":80101230},{"NoteNumber":78,"Velocity":72,"Duration":158286,"SoundDuration":158286,"Delta":80255734},{"NoteNumber":66,"Velocity":61,"Duration":333203,"SoundDuration":333203,"Delta":80255734},{"NoteNumber":50,"Velocity":52,"Duration":333203,"SoundDuration":333203,"Delta":80255734},{"NoteNumber":57,"Velocity":52,"Duration":333203,"SoundDuration":333203,"Delta":80255734},{"NoteNumber":62,"Velocity":52,"Duration":333203,"SoundDuration":333203,"Delta":80255734},{"NoteNumber":79,"Velocity":73,"Duration":87458,"SoundDuration":87458,"Delta":80414021},{"NoteNumber":78,"Velocity":70,"Duration":43729,"SoundDuration":43729,"Delta":80501479},{"NoteNumber":79,"Velocity":68,"Duration":43729,"SoundDuration":43729,"Delta":80545209},{"NoteNumber":78,"Velocity":76,"Duration":310654,"SoundDuration":310654,"Delta":80588938},{"NoteNumber":45,"Velocity":59,"Duration":155327,"SoundDuration":155327,"Delta":80588938},{"NoteNumber":67,"Velocity":62,"Duration":304970,"SoundDuration":304970,"Delta":80899593},{"NoteNumber":76,"Velocity":74,"Duration":152485,"SoundDuration":152485,"Delta":80899593},{"NoteNumber":52,"Velocity":54,"Duration":304970,"SoundDuration":304970,"Delta":80899593},{"NoteNumber":57,"Velocity":54,"Duration":304970,"SoundDuration":304970,"Delta":80899593},{"NoteNumber":61,"Velocity":54,"Duration":304970,"SoundDuration":304970,"Delta":80899593},{"NoteNumber":74,"Velocity":74,"Duration":152485,"SoundDuration":152485,"Delta":81052078},{"NoteNumber":67,"Velocity":62,"Duration":304971,"SoundDuration":304971,"Delta":81204564},{"NoteNumber":73,"Velocity":73,"Duration":152485,"SoundDuration":152485,"Delta":81204564},{"NoteNumber":52,"Velocity":54,"Duration":304971,"SoundDuration":304971,"Delta":81204564},{"NoteNumber":57,"Velocity":54,"Duration":304971,"SoundDuration":304971,"Delta":81204564},{"NoteNumber":61,"Velocity":54,"Duration":304971,"SoundDuration":304971,"Delta":81204564},{"NoteNumber":71,"Velocity":72,"Duration":152485,"SoundDuration":152485,"Delta":81357049},{"NoteNumber":69,"Velocity":74,"Duration":149737,"SoundDuration":149737,"Delta":81509535},{"NoteNumber":38,"Velocity":59,"Duration":149737,"SoundDuration":149737,"Delta":81509535},{"NoteNumber":74,"Velocity":70,"Duration":149737,"SoundDuration":149737,"Delta":81659273},{"NoteNumber":66,"Velocity":62,"Duration":316573,"SoundDuration":316573,"Delta":81809011},{"NoteNumber":74,"Velocity":74,"Duration":105524,"SoundDuration":105524,"Delta":81809011},{"NoteNumber":50,"Velocity":54,"Duration":316573,"SoundDuration":316573,"Delta":81809011},{"NoteNumber":57,"Velocity":54,"Duration":316573,"SoundDuration":316573,"Delta":81809011},{"NoteNumber":62,"Velocity":54,"Duration":316573,"SoundDuration":316573,"Delta":81809011},{"NoteNumber":76,"Velocity":70,"Duration":105524,"SoundDuration":105524,"Delta":81914535},{"NoteNumber":74,"Velocity":70,"Duration":105524,"SoundDuration":105524,"Delta":82020059},{"NoteNumber":66,"Velocity":59,"Duration":307377,"SoundDuration":307377,"Delta":82125584},{"NoteNumber":73,"Velocity":70,"Duration":153688,"SoundDuration":153688,"Delta":82125584},{"NoteNumber":50,"Velocity":54,"Duration":307377,"SoundDuration":307377,"Delta":82125584},{"NoteNumber":57,"Velocity":54,"Duration":307377,"SoundDuration":307377,"Delta":82125584},{"NoteNumber":62,"Velocity":54,"Duration":307377,"SoundDuration":307377,"Delta":82125584},{"NoteNumber":71,"Velocity":70,"Duration":153688,"SoundDuration":153688,"Delta":82279272},{"NoteNumber":73,"Velocity":73,"Duration":997693,"SoundDuration":997693,"Delta":82432961},{"NoteNumber":45,"Velocity":59,"Duration":158713,"SoundDuration":158713,"Delta":82432961},{"NoteNumber":64,"Velocity":44,"Duration":327242,"SoundDuration":327242,"Delta":82750388},{"NoteNumber":69,"Velocity":53,"Duration":327242,"SoundDuration":327242,"Delta":82750388},{"NoteNumber":57,"Velocity":43,"Duration":327242,"SoundDuration":327242,"Delta":82750388},{"NoteNumber":67,"Velocity":57,"Duration":353024,"SoundDuration":353024,"Delta":83077631},{"NoteNumber":69,"Velocity":68,"Duration":353024,"SoundDuration":353024,"Delta":83077631},{"NoteNumber":57,"Velocity":56,"Duration":353024,"SoundDuration":353024,"Delta":83077631},{"NoteNumber":64,"Velocity":56,"Duration":353024,"SoundDuration":353024,"Delta":83077631},{"NoteNumber":69,"Velocity":74,"Duration":151293,"SoundDuration":151293,"Delta":83430655},{"NoteNumber":50,"Velocity":59,"Duration":151293,"SoundDuration":151293,"Delta":83430655},{"NoteNumber":73,"Velocity":70,"Duration":151293,"SoundDuration":151293,"Delta":83581948},{"NoteNumber":74,"Velocity":71,"Duration":147463,"SoundDuration":147463,"Delta":83733242},{"NoteNumber":66,"Velocity":60,"Duration":294927,"SoundDuration":294927,"Delta":83733242},{"NoteNumber":57,"Velocity":52,"Duration":294927,"SoundDuration":294927,"Delta":83733242},{"NoteNumber":62,"Velocity":52,"Duration":294927,"SoundDuration":294927,"Delta":83733242},{"NoteNumber":76,"Velocity":71,"Duration":147463,"SoundDuration":147463,"Delta":83880705},{"NoteNumber":78,"Velocity":72,"Duration":152083,"SoundDuration":152083,"Delta":84028169},{"NoteNumber":66,"Velocity":61,"Duration":320433,"SoundDuration":320433,"Delta":84028169},{"NoteNumber":50,"Velocity":52,"Duration":320433,"SoundDuration":320433,"Delta":84028169},{"NoteNumber":57,"Velocity":52,"Duration":320433,"SoundDuration":320433,"Delta":84028169},{"NoteNumber":62,"Velocity":52,"Duration":320433,"SoundDuration":320433,"Delta":84028169},{"NoteNumber":79,"Velocity":73,"Duration":84175,"SoundDuration":84175,"Delta":84180252},{"NoteNumber":78,"Velocity":70,"Duration":42087,"SoundDuration":42087,"Delta":84264427},{"NoteNumber":79,"Velocity":68,"Duration":42087,"SoundDuration":42087,"Delta":84306515},{"NoteNumber":78,"Velocity":76,"Duration":306576,"SoundDuration":306576,"Delta":84348602},{"NoteNumber":43,"Velocity":59,"Duration":153288,"SoundDuration":153288,"Delta":84348602},{"NoteNumber":67,"Velocity":62,"Duration":296428,"SoundDuration":296428,"Delta":84655178},{"NoteNumber":76,"Velocity":74,"Duration":148213,"SoundDuration":148213,"Delta":84655178},{"NoteNumber":59,"Velocity":54,"Duration":296428,"SoundDuration":296428,"Delta":84655178},{"NoteNumber":64,"Velocity":54,"Duration":296428,"SoundDuration":296428,"Delta":84655178},{"NoteNumber":74,"Velocity":74,"Duration":148214,"SoundDuration":148214,"Delta":84803392},{"NoteNumber":67,"Velocity":62,"Duration":296427,"SoundDuration":296427,"Delta":84951606},{"NoteNumber":73,"Velocity":73,"Duration":148213,"SoundDuration":148213,"Delta":84951606},{"NoteNumber":52,"Velocity":54,"Duration":296427,"SoundDuration":296427,"Delta":84951606},{"NoteNumber":59,"Velocity":54,"Duration":296427,"SoundDuration":296427,"Delta":84951606},{"NoteNumber":64,"Velocity":54,"Duration":296427,"SoundDuration":296427,"Delta":84951606},{"NoteNumber":71,"Velocity":72,"Duration":148213,"SoundDuration":148213,"Delta":85099820},{"NoteNumber":69,"Velocity":74,"Duration":145985,"SoundDuration":145985,"Delta":85248034},{"NoteNumber":45,"Velocity":59,"Duration":145985,"SoundDuration":145985,"Delta":85248034},{"NoteNumber":73,"Velocity":70,"Duration":145985,"SoundDuration":145985,"Delta":85394020},{"NoteNumber":67,"Velocity":62,"Duration":313169,"SoundDuration":313169,"Delta":85540005},{"NoteNumber":73,"Velocity":74,"Duration":104389,"SoundDuration":104389,"Delta":85540005},{"NoteNumber":57,"Velocity":54,"Duration":313169,"SoundDuration":313169,"Delta":85540005},{"NoteNumber":64,"Velocity":54,"Duration":313169,"SoundDuration":313169,"Delta":85540005},{"NoteNumber":74,"Velocity":70,"Duration":104389,"SoundDuration":104389,"Delta":85644395},{"NoteNumber":73,"Velocity":70,"Duration":104389,"SoundDuration":104389,"Delta":85748785},{"NoteNumber":67,"Velocity":59,"Duration":305763,"SoundDuration":305763,"Delta":85853174},{"NoteNumber":71,"Velocity":70,"Duration":152882,"SoundDuration":152882,"Delta":85853174},{"NoteNumber":57,"Velocity":54,"Duration":305763,"SoundDuration":305763,"Delta":85853174},{"NoteNumber":64,"Velocity":54,"Duration":305763,"SoundDuration":305763,"Delta":85853174},{"NoteNumber":69,"Velocity":70,"Duration":152881,"SoundDuration":152881,"Delta":86006056},{"NoteNumber":74,"Velocity":73,"Duration":999769,"SoundDuration":999769,"Delta":86158938},{"NoteNumber":38,"Velocity":59,"Duration":156584,"SoundDuration":156584,"Delta":86158938},{"NoteNumber":66,"Velocity":53,"Duration":328156,"SoundDuration":328156,"Delta":86472107},{"NoteNumber":50,"Velocity":36,"Duration":328156,"SoundDuration":328156,"Delta":86472107},{"NoteNumber":57,"Velocity":36,"Duration":328156,"SoundDuration":328156,"Delta":86472107},{"NoteNumber":62,"Velocity":43,"Duration":328156,"SoundDuration":328156,"Delta":86472107},{"NoteNumber":66,"Velocity":47,"Duration":659528,"SoundDuration":659528,"Delta":86800263},{"NoteNumber":50,"Velocity":39,"Duration":659528,"SoundDuration":659528,"Delta":86800263},{"NoteNumber":57,"Velocity":39,"Duration":659528,"SoundDuration":659528,"Delta":86800263},{"NoteNumber":62,"Velocity":39,"Duration":659528,"SoundDuration":659528,"Delta":86800263},{"NoteNumber":69,"Velocity":40,"Duration":150542,"SoundDuration":150542,"Delta":87158707},{"NoteNumber":73,"Velocity":39,"Duration":150542,"SoundDuration":150542,"Delta":87309249},{"NoteNumber":74,"Velocity":39,"Duration":147195,"SoundDuration":147195,"Delta":87459791},{"NoteNumber":66,"Velocity":33,"Duration":294392,"SoundDuration":294392,"Delta":87459791},{"NoteNumber":50,"Velocity":23,"Duration":294392,"SoundDuration":294392,"Delta":87459791},{"NoteNumber":57,"Velocity":23,"Duration":294392,"SoundDuration":294392,"Delta":87459791},{"NoteNumber":62,"Velocity":23,"Duration":294392,"SoundDuration":294392,"Delta":87459791},{"NoteNumber":76,"Velocity":39,"Duration":147196,"SoundDuration":147196,"Delta":87606987},{"NoteNumber":78,"Velocity":40,"Duration":152075,"SoundDuration":152075,"Delta":87754183},{"NoteNumber":66,"Velocity":33,"Duration":321893,"SoundDuration":321893,"Delta":87754183},{"NoteNumber":50,"Velocity":23,"Duration":321893,"SoundDuration":321893,"Delta":87754183},{"NoteNumber":57,"Velocity":23,"Duration":321893,"SoundDuration":321893,"Delta":87754183},{"NoteNumber":62,"Velocity":23,"Duration":321893,"SoundDuration":321893,"Delta":87754183},{"NoteNumber":79,"Velocity":40,"Duration":84908,"SoundDuration":84908,"Delta":87906259},{"NoteNumber":78,"Velocity":39,"Duration":42454,"SoundDuration":42454,"Delta":87991168},{"NoteNumber":79,"Velocity":37,"Duration":42454,"SoundDuration":42454,"Delta":88033622},{"NoteNumber":78,"Velocity":42,"Duration":309597,"SoundDuration":309597,"Delta":88076077},{"NoteNumber":45,"Velocity":27,"Duration":154798,"SoundDuration":154798,"Delta":88076077},{"NoteNumber":67,"Velocity":34,"Duration":299925,"SoundDuration":299925,"Delta":88385675},{"NoteNumber":76,"Velocity":40,"Duration":149962,"SoundDuration":149962,"Delta":88385675},{"NoteNumber":52,"Velocity":24,"Duration":299925,"SoundDuration":299925,"Delta":88385675},{"NoteNumber":57,"Velocity":24,"Duration":299925,"SoundDuration":299925,"Delta":88385675},{"NoteNumber":61,"Velocity":24,"Duration":299925,"SoundDuration":299925,"Delta":88385675},{"NoteNumber":74,"Velocity":40,"Duration":149962,"SoundDuration":149962,"Delta":88535637},{"NoteNumber":67,"Velocity":34,"Duration":299925,"SoundDuration":299925,"Delta":88685600},{"NoteNumber":73,"Velocity":40,"Duration":149962,"SoundDuration":149962,"Delta":88685600},{"NoteNumber":52,"Velocity":24,"Duration":299925,"SoundDuration":299925,"Delta":88685600},{"NoteNumber":57,"Velocity":24,"Duration":299925,"SoundDuration":299925,"Delta":88685600},{"NoteNumber":61,"Velocity":24,"Duration":299925,"SoundDuration":299925,"Delta":88685600},{"NoteNumber":71,"Velocity":40,"Duration":149962,"SoundDuration":149962,"Delta":88835562},{"NoteNumber":69,"Velocity":40,"Duration":147195,"SoundDuration":147195,"Delta":88985525},{"NoteNumber":38,"Velocity":27,"Duration":147195,"SoundDuration":147195,"Delta":88985525},{"NoteNumber":74,"Velocity":39,"Duration":147196,"SoundDuration":147196,"Delta":89132721},{"NoteNumber":66,"Velocity":34,"Duration":317108,"SoundDuration":317108,"Delta":89279917},{"NoteNumber":74,"Velocity":40,"Duration":105702,"SoundDuration":105702,"Delta":89279917},{"NoteNumber":50,"Velocity":24,"Duration":317108,"SoundDuration":317108,"Delta":89279917},{"NoteNumber":57,"Velocity":24,"Duration":317108,"SoundDuration":317108,"Delta":89279917},{"NoteNumber":62,"Velocity":24,"Duration":317108,"SoundDuration":317108,"Delta":89279917},{"NoteNumber":76,"Velocity":39,"Duration":105702,"SoundDuration":105702,"Delta":89385620},{"NoteNumber":74,"Velocity":39,"Duration":105702,"SoundDuration":105702,"Delta":89491322},{"NoteNumber":66,"Velocity":32,"Duration":310495,"SoundDuration":310495,"Delta":89597025},{"NoteNumber":73,"Velocity":39,"Duration":155247,"SoundDuration":155247,"Delta":89597025},{"NoteNumber":50,"Velocity":24,"Duration":310495,"SoundDuration":310495,"Delta":89597025},{"NoteNumber":57,"Velocity":24,"Duration":310495,"SoundDuration":310495,"Delta":89597025},{"NoteNumber":62,"Velocity":24,"Duration":310495,"SoundDuration":310495,"Delta":89597025},{"NoteNumber":71,"Velocity":39,"Duration":155247,"SoundDuration":155247,"Delta":89752272},{"NoteNumber":73,"Velocity":40,"Duration":1017774,"SoundDuration":1017774,"Delta":89907520},{"NoteNumber":45,"Velocity":27,"Duration":163158,"SoundDuration":163158,"Delta":89907520},{"NoteNumber":64,"Velocity":24,"Duration":331895,"SoundDuration":331895,"Delta":90233838},{"NoteNumber":69,"Velocity":29,"Duration":331895,"SoundDuration":331895,"Delta":90233838},{"NoteNumber":61,"Velocity":20,"Duration":331895,"SoundDuration":331895,"Delta":90233838},{"NoteNumber":57,"Velocity":20,"Duration":331895,"SoundDuration":331895,"Delta":90233838},{"NoteNumber":67,"Velocity":31,"Duration":359560,"SoundDuration":359560,"Delta":90565733},{"NoteNumber":69,"Velocity":37,"Duration":359560,"SoundDuration":359560,"Delta":90565733},{"NoteNumber":57,"Velocity":26,"Duration":660645,"SoundDuration":660645,"Delta":90565733},{"NoteNumber":64,"Velocity":26,"Duration":359560,"SoundDuration":359560,"Delta":90565733},{"NoteNumber":69,"Velocity":40,"Duration":150542,"SoundDuration":150542,"Delta":90925294},{"NoteNumber":50,"Velocity":27,"Duration":301084,"SoundDuration":301084,"Delta":90925294},{"NoteNumber":73,"Velocity":39,"Duration":150542,"SoundDuration":150542,"Delta":91075836},{"NoteNumber":74,"Velocity":39,"Duration":147195,"SoundDuration":147195,"Delta":91226378},{"NoteNumber":66,"Velocity":33,"Duration":294392,"SoundDuration":294392,"Delta":91226378},{"NoteNumber":57,"Velocity":23,"Duration":294392,"SoundDuration":294392,"Delta":91226378},{"NoteNumber":62,"Velocity":23,"Duration":294392,"SoundDuration":294392,"Delta":91226378},{"NoteNumber":76,"Velocity":39,"Duration":147196,"SoundDuration":147196,"Delta":91373574},{"NoteNumber":78,"Velocity":40,"Duration":152075,"SoundDuration":152075,"Delta":91520770},{"NoteNumber":66,"Velocity":33,"Duration":324916,"SoundDuration":324916,"Delta":91520770},{"NoteNumber":50,"Velocity":23,"Duration":324916,"SoundDuration":324916,"Delta":91520770},{"NoteNumber":57,"Velocity":23,"Duration":324916,"SoundDuration":324916,"Delta":91520770},{"NoteNumber":62,"Velocity":23,"Duration":324916,"SoundDuration":324916,"Delta":91520770},{"NoteNumber":79,"Velocity":40,"Duration":86420,"SoundDuration":86420,"Delta":91672846},{"NoteNumber":78,"Velocity":39,"Duration":43210,"SoundDuration":43210,"Delta":91759266},{"NoteNumber":79,"Velocity":37,"Duration":43210,"SoundDuration":43210,"Delta":91802477},{"NoteNumber":78,"Velocity":42,"Duration":309597,"SoundDuration":309597,"Delta":91845687},{"NoteNumber":43,"Velocity":27,"Duration":154798,"SoundDuration":154798,"Delta":91845687},{"NoteNumber":67,"Velocity":34,"Duration":299925,"SoundDuration":299925,"Delta":92155285},{"NoteNumber":76,"Velocity":40,"Duration":149962,"SoundDuration":149962,"Delta":92155285},{"NoteNumber":59,"Velocity":24,"Duration":299925,"SoundDuration":299925,"Delta":92155285},{"NoteNumber":64,"Velocity":24,"Duration":299925,"SoundDuration":299925,"Delta":92155285},{"NoteNumber":74,"Velocity":40,"Duration":149962,"SoundDuration":149962,"Delta":92305247},{"NoteNumber":67,"Velocity":34,"Duration":299925,"SoundDuration":299925,"Delta":92455210},{"NoteNumber":73,"Velocity":40,"Duration":149962,"SoundDuration":149962,"Delta":92455210},{"NoteNumber":52,"Velocity":24,"Duration":299925,"SoundDuration":299925,"Delta":92455210},{"NoteNumber":59,"Velocity":24,"Duration":299925,"SoundDuration":299925,"Delta":92455210},{"NoteNumber":64,"Velocity":24,"Duration":299925,"SoundDuration":299925,"Delta":92455210},{"NoteNumber":71,"Velocity":40,"Duration":149962,"SoundDuration":149962,"Delta":92605172},{"NoteNumber":69,"Velocity":40,"Duration":147195,"SoundDuration":147195,"Delta":92755135},{"NoteNumber":45,"Velocity":27,"Duration":147195,"SoundDuration":147195,"Delta":92755135},{"NoteNumber":73,"Velocity":39,"Duration":147196,"SoundDuration":147196,"Delta":92902331},{"NoteNumber":67,"Velocity":34,"Duration":317108,"SoundDuration":317108,"Delta":93049527},{"NoteNumber":73,"Velocity":40,"Duration":105702,"SoundDuration":105702,"Delta":93049527},{"NoteNumber":57,"Velocity":24,"Duration":317108,"SoundDuration":317108,"Delta":93049527},{"NoteNumber":64,"Velocity":24,"Duration":317108,"SoundDuration":317108,"Delta":93049527},{"NoteNumber":74,"Velocity":39,"Duration":105702,"SoundDuration":105702,"Delta":93155230},{"NoteNumber":73,"Velocity":39,"Duration":105702,"SoundDuration":105702,"Delta":93260932},{"NoteNumber":67,"Velocity":32,"Duration":310495,"SoundDuration":310495,"Delta":93366635},{"NoteNumber":71,"Velocity":39,"Duration":155247,"SoundDuration":155247,"Delta":93366635},{"NoteNumber":57,"Velocity":24,"Duration":310495,"SoundDuration":310495,"Delta":93366635},{"NoteNumber":64,"Velocity":24,"Duration":310495,"SoundDuration":310495,"Delta":93366635},{"NoteNumber":69,"Velocity":39,"Duration":155247,"SoundDuration":155247,"Delta":93521882},{"NoteNumber":74,"Velocity":40,"Duration":992103,"SoundDuration":992103,"Delta":93677130},{"NoteNumber":38,"Velocity":27,"Duration":160247,"SoundDuration":160247,"Delta":93677130},{"NoteNumber":66,"Velocity":29,"Duration":324886,"SoundDuration":324886,"Delta":93997626},{"NoteNumber":50,"Velocity":17,"Duration":324886,"SoundDuration":324886,"Delta":93997626},{"NoteNumber":57,"Velocity":17,"Duration":324886,"SoundDuration":324886,"Delta":93997626},{"NoteNumber":62,"Velocity":20,"Duration":324886,"SoundDuration":324886,"Delta":93997626},{"NoteNumber":66,"Velocity":37,"Duration":346721,"SoundDuration":346721,"Delta":94322512},{"NoteNumber":50,"Velocity":26,"Duration":346721,"SoundDuration":346721,"Delta":94322512},{"NoteNumber":57,"Velocity":26,"Duration":346721,"SoundDuration":346721,"Delta":94322512},{"NoteNumber":62,"Velocity":26,"Duration":346721,"SoundDuration":346721,"Delta":94322512},{"NoteNumber":64,"Velocity":73,"Duration":147094,"SoundDuration":147094,"Delta":94669233},{"NoteNumber":45,"Velocity":59,"Duration":147094,"SoundDuration":147094,"Delta":94669233},{"NoteNumber":68,"Velocity":70,"Duration":147095,"SoundDuration":147095,"Delta":94816328},{"NoteNumber":69,"Velocity":71,"Duration":143822,"SoundDuration":143822,"Delta":94963423},{"NoteNumber":61,"Velocity":60,"Duration":287645,"SoundDuration":287645,"Delta":94963423},{"NoteNumber":45,"Velocity":52,"Duration":287645,"SoundDuration":287645,"Delta":94963423},{"NoteNumber":52,"Velocity":52,"Duration":287645,"SoundDuration":287645,"Delta":94963423},{"NoteNumber":57,"Velocity":52,"Duration":287645,"SoundDuration":287645,"Delta":94963423},{"NoteNumber":71,"Velocity":71,"Duration":143822,"SoundDuration":143822,"Delta":95107246},{"NoteNumber":73,"Velocity":72,"Duration":148595,"SoundDuration":148595,"Delta":95251069},{"NoteNumber":61,"Velocity":61,"Duration":313603,"SoundDuration":313603,"Delta":95251069},{"NoteNumber":45,"Velocity":52,"Duration":313603,"SoundDuration":313603,"Delta":95251069},{"NoteNumber":52,"Velocity":52,"Duration":313603,"SoundDuration":313603,"Delta":95251069},{"NoteNumber":57,"Velocity":52,"Duration":313603,"SoundDuration":313603,"Delta":95251069},{"NoteNumber":74,"Velocity":73,"Duration":82503,"SoundDuration":82503,"Delta":95399665},{"NoteNumber":73,"Velocity":70,"Duration":41251,"SoundDuration":41251,"Delta":95482169},{"NoteNumber":74,"Velocity":68,"Duration":41251,"SoundDuration":41251,"Delta":95523420},{"NoteNumber":73,"Velocity":76,"Duration":302496,"SoundDuration":302496,"Delta":95564672},{"NoteNumber":40,"Velocity":59,"Duration":151247,"SoundDuration":151247,"Delta":95564672},{"NoteNumber":62,"Velocity":62,"Duration":293040,"SoundDuration":293040,"Delta":95867168},{"NoteNumber":71,"Velocity":74,"Duration":146519,"SoundDuration":146519,"Delta":95867168},{"NoteNumber":52,"Velocity":54,"Duration":293040,"SoundDuration":293040,"Delta":95867168},{"NoteNumber":59,"Velocity":54,"Duration":293040,"SoundDuration":293040,"Delta":95867168},{"NoteNumber":69,"Velocity":74,"Duration":146520,"SoundDuration":146520,"Delta":96013688},{"NoteNumber":62,"Velocity":62,"Duration":293039,"SoundDuration":293039,"Delta":96160208},{"NoteNumber":68,"Velocity":73,"Duration":146519,"SoundDuration":146519,"Delta":96160208},{"NoteNumber":52,"Velocity":54,"Duration":293039,"SoundDuration":293039,"Delta":96160208},{"NoteNumber":59,"Velocity":54,"Duration":293039,"SoundDuration":293039,"Delta":96160208},{"NoteNumber":66,"Velocity":72,"Duration":146519,"SoundDuration":146519,"Delta":96306728},{"NoteNumber":64,"Velocity":74,"Duration":143822,"SoundDuration":143822,"Delta":96453248},{"NoteNumber":33,"Velocity":59,"Duration":143822,"SoundDuration":143822,"Delta":96453248},{"NoteNumber":69,"Velocity":70,"Duration":143822,"SoundDuration":143822,"Delta":96597071},{"NoteNumber":61,"Velocity":62,"Duration":309837,"SoundDuration":309837,"Delta":96740894},{"NoteNumber":69,"Velocity":74,"Duration":103279,"SoundDuration":103279,"Delta":96740894},{"NoteNumber":45,"Velocity":54,"Duration":309837,"SoundDuration":309837,"Delta":96740894},{"NoteNumber":52,"Velocity":54,"Duration":309837,"SoundDuration":309837,"Delta":96740894},{"NoteNumber":57,"Velocity":54,"Duration":309837,"SoundDuration":309837,"Delta":96740894},{"NoteNumber":71,"Velocity":70,"Duration":103279,"SoundDuration":103279,"Delta":96844173},{"NoteNumber":69,"Velocity":70,"Duration":103279,"SoundDuration":103279,"Delta":96947452},{"NoteNumber":61,"Velocity":59,"Duration":303382,"SoundDuration":303382,"Delta":97050731},{"NoteNumber":68,"Velocity":70,"Duration":151691,"SoundDuration":151691,"Delta":97050731},{"NoteNumber":45,"Velocity":54,"Duration":303382,"SoundDuration":303382,"Delta":97050731},{"NoteNumber":52,"Velocity":54,"Duration":303382,"SoundDuration":303382,"Delta":97050731},{"NoteNumber":57,"Velocity":54,"Duration":303382,"SoundDuration":303382,"Delta":97050731},{"NoteNumber":66,"Velocity":70,"Duration":151691,"SoundDuration":151691,"Delta":97202423},{"NoteNumber":68,"Velocity":73,"Duration":989482,"SoundDuration":989482,"Delta":97354114},{"NoteNumber":40,"Velocity":59,"Duration":156584,"SoundDuration":156584,"Delta":97354114},{"NoteNumber":59,"Velocity":44,"Duration":325415,"SoundDuration":325415,"Delta":97667283},{"NoteNumber":64,"Velocity":53,"Duration":325415,"SoundDuration":325415,"Delta":97667283},{"NoteNumber":52,"Velocity":43,"Duration":325415,"SoundDuration":325415,"Delta":97667283},{"NoteNumber":62,"Velocity":57,"Duration":350898,"SoundDuration":350898,"Delta":97992698},{"NoteNumber":64,"Velocity":68,"Duration":350898,"SoundDuration":350898,"Delta":97992698},{"NoteNumber":52,"Velocity":56,"Duration":350898,"SoundDuration":350898,"Delta":97992698},{"NoteNumber":59,"Velocity":56,"Duration":350898,"SoundDuration":350898,"Delta":97992698},{"NoteNumber":64,"Velocity":74,"Duration":147094,"SoundDuration":147094,"Delta":98343596},{"NoteNumber":45,"Velocity":59,"Duration":147094,"SoundDuration":147094,"Delta":98343596},{"NoteNumber":68,"Velocity":70,"Duration":147095,"SoundDuration":147095,"Delta":98490691},{"NoteNumber":69,"Velocity":71,"Duration":143822,"SoundDuration":143822,"Delta":98637786},{"NoteNumber":61,"Velocity":60,"Duration":287645,"SoundDuration":287645,"Delta":98637786},{"NoteNumber":52,"Velocity":52,"Duration":287645,"SoundDuration":287645,"Delta":98637786},{"NoteNumber":57,"Velocity":52,"Duration":287645,"SoundDuration":287645,"Delta":98637786},{"NoteNumber":71,"Velocity":71,"Duration":143822,"SoundDuration":143822,"Delta":98781609},{"NoteNumber":73,"Velocity":72,"Duration":148595,"SoundDuration":148595,"Delta":98925432},{"NoteNumber":61,"Velocity":61,"Duration":312217,"SoundDuration":312217,"Delta":98925432},{"NoteNumber":45,"Velocity":52,"Duration":312217,"SoundDuration":312217,"Delta":98925432},{"NoteNumber":52,"Velocity":52,"Duration":312217,"SoundDuration":312217,"Delta":98925432},{"NoteNumber":57,"Velocity":52,"Duration":312217,"SoundDuration":312217,"Delta":98925432},{"NoteNumber":74,"Velocity":73,"Duration":81810,"SoundDuration":81810,"Delta":99074028},{"NoteNumber":73,"Velocity":70,"Duration":40905,"SoundDuration":40905,"Delta":99155839},{"NoteNumber":74,"Velocity":68,"Duration":40905,"SoundDuration":40905,"Delta":99196744},{"NoteNumber":73,"Velocity":76,"Duration":302496,"SoundDuration":302496,"Delta":99237650},{"NoteNumber":38,"Velocity":59,"Duration":151247,"SoundDuration":151247,"Delta":99237650},{"NoteNumber":62,"Velocity":62,"Duration":293040,"SoundDuration":293040,"Delta":99540146},{"NoteNumber":71,"Velocity":74,"Duration":146519,"SoundDuration":146519,"Delta":99540146},{"NoteNumber":54,"Velocity":54,"Duration":293040,"SoundDuration":293040,"Delta":99540146},{"NoteNumber":59,"Velocity":54,"Duration":293040,"SoundDuration":293040,"Delta":99540146},{"NoteNumber":69,"Velocity":74,"Duration":146520,"SoundDuration":146520,"Delta":99686666},{"NoteNumber":62,"Velocity":62,"Duration":293039,"SoundDuration":293039,"Delta":99833186},{"NoteNumber":68,"Velocity":73,"Duration":146519,"SoundDuration":146519,"Delta":99833186},{"NoteNumber":47,"Velocity":54,"Duration":293039,"SoundDuration":293039,"Delta":99833186},{"NoteNumber":54,"Velocity":54,"Duration":293039,"SoundDuration":293039,"Delta":99833186},{"NoteNumber":59,"Velocity":54,"Duration":293039,"SoundDuration":293039,"Delta":99833186},{"NoteNumber":66,"Velocity":72,"Duration":146519,"SoundDuration":146519,"Delta":99979706},{"NoteNumber":64,"Velocity":74,"Duration":143822,"SoundDuration":143822,"Delta":100126226},{"NoteNumber":40,"Velocity":59,"Duration":143822,"SoundDuration":143822,"Delta":100126226},{"NoteNumber":68,"Velocity":70,"Duration":143822,"SoundDuration":143822,"Delta":100270049},{"NoteNumber":62,"Velocity":62,"Duration":309837,"SoundDuration":309837,"Delta":100413872},{"NoteNumber":68,"Velocity":74,"Duration":103279,"SoundDuration":103279,"Delta":100413872},{"NoteNumber":52,"Velocity":54,"Duration":309837,"SoundDuration":309837,"Delta":100413872},{"NoteNumber":59,"Velocity":54,"Duration":309837,"SoundDuration":309837,"Delta":100413872},{"NoteNumber":69,"Velocity":70,"Duration":103279,"SoundDuration":103279,"Delta":100517151},{"NoteNumber":68,"Velocity":70,"Duration":103279,"SoundDuration":103279,"Delta":100620430},{"NoteNumber":62,"Velocity":59,"Duration":303382,"SoundDuration":303382,"Delta":100723709},{"NoteNumber":66,"Velocity":70,"Duration":151691,"SoundDuration":151691,"Delta":100723709},{"NoteNumber":52,"Velocity":54,"Duration":303382,"SoundDuration":303382,"Delta":100723709},{"NoteNumber":59,"Velocity":54,"Duration":303382,"SoundDuration":303382,"Delta":100723709},{"NoteNumber":64,"Velocity":70,"Duration":151691,"SoundDuration":151691,"Delta":100875400},{"NoteNumber":69,"Velocity":73,"Duration":990438,"SoundDuration":990438,"Delta":101027092},{"NoteNumber":33,"Velocity":59,"Duration":159150,"SoundDuration":159150,"Delta":101027092},{"NoteNumber":61,"Velocity":53,"Duration":325415,"SoundDuration":325415,"Delta":101345394},{"NoteNumber":45,"Velocity":36,"Duration":325415,"SoundDuration":325415,"Delta":101345394},{"NoteNumber":52,"Velocity":36,"Duration":325415,"SoundDuration":325415,"Delta":101345394},{"NoteNumber":57,"Velocity":43,"Duration":325415,"SoundDuration":325415,"Delta":101345394},{"NoteNumber":61,"Velocity":47,"Duration":648319,"SoundDuration":648319,"Delta":101670809},{"NoteNumber":45,"Velocity":39,"Duration":648319,"SoundDuration":648319,"Delta":101670809},{"NoteNumber":52,"Velocity":39,"Duration":648319,"SoundDuration":648319,"Delta":101670809},{"NoteNumber":57,"Velocity":39,"Duration":648319,"SoundDuration":648319,"Delta":101670809},{"NoteNumber":64,"Velocity":40,"Duration":150799,"SoundDuration":150799,"Delta":102017530},{"NoteNumber":68,"Velocity":39,"Duration":150798,"SoundDuration":150798,"Delta":102168329},{"NoteNumber":69,"Velocity":39,"Duration":147448,"SoundDuration":147448,"Delta":102319128},{"NoteNumber":61,"Velocity":33,"Duration":294898,"SoundDuration":294898,"Delta":102319128},{"NoteNumber":45,"Velocity":23,"Duration":294898,"SoundDuration":294898,"Delta":102319128},{"NoteNumber":52,"Velocity":23,"Duration":294898,"SoundDuration":294898,"Delta":102319128},{"NoteNumber":57,"Velocity":23,"Duration":294898,"SoundDuration":294898,"Delta":102319128},{"NoteNumber":71,"Velocity":39,"Duration":147449,"SoundDuration":147449,"Delta":102466577},{"NoteNumber":73,"Velocity":40,"Duration":152338,"SoundDuration":152338,"Delta":102614026},{"NoteNumber":61,"Velocity":33,"Duration":319721,"SoundDuration":319721,"Delta":102614026},{"NoteNumber":45,"Velocity":23,"Duration":319721,"SoundDuration":319721,"Delta":102614026},{"NoteNumber":52,"Velocity":23,"Duration":319721,"SoundDuration":319721,"Delta":102614026},{"NoteNumber":57,"Velocity":23,"Duration":319721,"SoundDuration":319721,"Delta":102614026},{"NoteNumber":74,"Velocity":40,"Duration":83691,"SoundDuration":83691,"Delta":102766364},{"NoteNumber":73,"Velocity":39,"Duration":41845,"SoundDuration":41845,"Delta":102850056},{"NoteNumber":74,"Velocity":37,"Duration":41845,"SoundDuration":41845,"Delta":102891901},{"NoteNumber":73,"Velocity":42,"Duration":310109,"SoundDuration":310109,"Delta":102933747},{"NoteNumber":40,"Velocity":27,"Duration":155055,"SoundDuration":155055,"Delta":102933747},{"NoteNumber":62,"Velocity":34,"Duration":300436,"SoundDuration":300436,"Delta":103243857},{"NoteNumber":71,"Velocity":40,"Duration":150217,"SoundDuration":150217,"Delta":103243857},{"NoteNumber":52,"Velocity":24,"Duration":300436,"SoundDuration":300436,"Delta":103243857},{"NoteNumber":59,"Velocity":24,"Duration":300436,"SoundDuration":300436,"Delta":103243857},{"NoteNumber":69,"Velocity":40,"Duration":150218,"SoundDuration":150218,"Delta":103394075},{"NoteNumber":62,"Velocity":34,"Duration":300435,"SoundDuration":300435,"Delta":103544293},{"NoteNumber":68,"Velocity":40,"Duration":150217,"SoundDuration":150217,"Delta":103544293},{"NoteNumber":52,"Velocity":24,"Duration":300435,"SoundDuration":300435,"Delta":103544293},{"NoteNumber":59,"Velocity":24,"Duration":300435,"SoundDuration":300435,"Delta":103544293},{"NoteNumber":66,"Velocity":40,"Duration":150217,"SoundDuration":150217,"Delta":103694511},{"NoteNumber":64,"Velocity":40,"Duration":147448,"SoundDuration":147448,"Delta":103844729},{"NoteNumber":33,"Velocity":27,"Duration":147448,"SoundDuration":147448,"Delta":103844729},{"NoteNumber":69,"Velocity":39,"Duration":147449,"SoundDuration":147449,"Delta":103992178},{"NoteNumber":61,"Velocity":34,"Duration":317644,"SoundDuration":317644,"Delta":104139627},{"NoteNumber":69,"Velocity":40,"Duration":105881,"SoundDuration":105881,"Delta":104139627},{"NoteNumber":45,"Velocity":24,"Duration":317644,"SoundDuration":317644,"Delta":104139627},{"NoteNumber":52,"Velocity":24,"Duration":317644,"SoundDuration":317644,"Delta":104139627},{"NoteNumber":57,"Velocity":24,"Duration":317644,"SoundDuration":317644,"Delta":104139627},{"NoteNumber":71,"Velocity":39,"Duration":105881,"SoundDuration":105881,"Delta":104245509},{"NoteNumber":69,"Velocity":39,"Duration":105881,"SoundDuration":105881,"Delta":104351390},{"NoteNumber":61,"Velocity":32,"Duration":311025,"SoundDuration":311025,"Delta":104457272},{"NoteNumber":68,"Velocity":39,"Duration":155512,"SoundDuration":155512,"Delta":104457272},{"NoteNumber":45,"Velocity":24,"Duration":311025,"SoundDuration":311025,"Delta":104457272},{"NoteNumber":52,"Velocity":24,"Duration":311025,"SoundDuration":311025,"Delta":104457272},{"NoteNumber":57,"Velocity":24,"Duration":311025,"SoundDuration":311025,"Delta":104457272},{"NoteNumber":66,"Velocity":39,"Duration":155512,"SoundDuration":155512,"Delta":104612785},{"NoteNumber":68,"Velocity":40,"Duration":1009608,"SoundDuration":1009608,"Delta":104768298},{"NoteNumber":40,"Velocity":27,"Duration":160522,"SoundDuration":160522,"Delta":104768298},{"NoteNumber":59,"Velocity":24,"Duration":337666,"SoundDuration":337666,"Delta":105089342},{"NoteNumber":64,"Velocity":29,"Duration":337666,"SoundDuration":337666,"Delta":105089342},{"NoteNumber":52,"Velocity":20,"Duration":337666,"SoundDuration":337666,"Delta":105089342},{"NoteNumber":62,"Velocity":31,"Duration":350898,"SoundDuration":350898,"Delta":105427009},{"NoteNumber":64,"Velocity":37,"Duration":350898,"SoundDuration":350898,"Delta":105427009},{"NoteNumber":52,"Velocity":26,"Duration":659096,"SoundDuration":659096,"Delta":105427009},{"NoteNumber":59,"Velocity":26,"Duration":350898,"SoundDuration":350898,"Delta":105427009},{"NoteNumber":64,"Velocity":40,"Duration":154099,"SoundDuration":154099,"Delta":105777907},{"NoteNumber":45,"Velocity":27,"Duration":308198,"SoundDuration":308198,"Delta":105777907},{"NoteNumber":68,"Velocity":39,"Duration":154099,"SoundDuration":154099,"Delta":105932006},{"NoteNumber":69,"Velocity":39,"Duration":149737,"SoundDuration":149737,"Delta":106086105},{"NoteNumber":61,"Velocity":33,"Duration":299475,"SoundDuration":299475,"Delta":106086105},{"NoteNumber":52,"Velocity":23,"Duration":299475,"SoundDuration":299475,"Delta":106086105},{"NoteNumber":57,"Velocity":23,"Duration":299475,"SoundDuration":299475,"Delta":106086105},{"NoteNumber":71,"Velocity":39,"Duration":149737,"SoundDuration":149737,"Delta":106235843},{"NoteNumber":73,"Velocity":40,"Duration":154918,"SoundDuration":154918,"Delta":106385581},{"NoteNumber":61,"Velocity":33,"Duration":321344,"SoundDuration":321344,"Delta":106385581},{"NoteNumber":45,"Velocity":23,"Duration":321344,"SoundDuration":321344,"Delta":106385581},{"NoteNumber":52,"Velocity":23,"Duration":321344,"SoundDuration":321344,"Delta":106385581},{"NoteNumber":57,"Velocity":23,"Duration":321344,"SoundDuration":321344,"Delta":106385581},{"NoteNumber":74,"Velocity":40,"Duration":83213,"SoundDuration":83213,"Delta":106540499},{"NoteNumber":73,"Velocity":39,"Duration":41606,"SoundDuration":41606,"Delta":106623713},{"NoteNumber":74,"Velocity":37,"Duration":41606,"SoundDuration":41606,"Delta":106665319},{"NoteNumber":73,"Velocity":42,"Duration":314004,"SoundDuration":314004,"Delta":106706926},{"NoteNumber":38,"Velocity":27,"Duration":157002,"SoundDuration":157002,"Delta":106706926},{"NoteNumber":62,"Velocity":34,"Duration":305763,"SoundDuration":305763,"Delta":107020931},{"NoteNumber":71,"Velocity":40,"Duration":152882,"SoundDuration":152882,"Delta":107020931},{"NoteNumber":54,"Velocity":24,"Duration":305763,"SoundDuration":305763,"Delta":107020931},{"NoteNumber":59,"Velocity":24,"Duration":305763,"SoundDuration":305763,"Delta":107020931},{"NoteNumber":69,"Velocity":40,"Duration":152881,"SoundDuration":152881,"Delta":107173813},{"NoteNumber":62,"Velocity":34,"Duration":305764,"SoundDuration":305764,"Delta":107326695},{"NoteNumber":68,"Velocity":40,"Duration":152882,"SoundDuration":152882,"Delta":107326695},{"NoteNumber":47,"Velocity":24,"Duration":305764,"SoundDuration":305764,"Delta":107326695},{"NoteNumber":54,"Velocity":24,"Duration":305764,"SoundDuration":305764,"Delta":107326695},{"NoteNumber":59,"Velocity":24,"Duration":305764,"SoundDuration":305764,"Delta":107326695},{"NoteNumber":66,"Velocity":40,"Duration":152882,"SoundDuration":152882,"Delta":107479577},{"NoteNumber":64,"Velocity":40,"Duration":150127,"SoundDuration":150127,"Delta":107632459},{"NoteNumber":40,"Velocity":27,"Duration":150127,"SoundDuration":150127,"Delta":107632459},{"NoteNumber":68,"Velocity":39,"Duration":150127,"SoundDuration":150127,"Delta":107782586},{"NoteNumber":62,"Velocity":34,"Duration":327242,"SoundDuration":327242,"Delta":107932714},{"NoteNumber":68,"Velocity":40,"Duration":109081,"SoundDuration":109081,"Delta":107932714},{"NoteNumber":52,"Velocity":24,"Duration":327242,"SoundDuration":327242,"Delta":107932714},{"NoteNumber":59,"Velocity":24,"Duration":327242,"SoundDuration":327242,"Delta":107932714},{"NoteNumber":69,"Velocity":39,"Duration":109081,"SoundDuration":109081,"Delta":108041795},{"NoteNumber":68,"Velocity":39,"Duration":109080,"SoundDuration":109080,"Delta":108150876},{"NoteNumber":62,"Velocity":32,"Duration":316573,"SoundDuration":316573,"Delta":108259957},{"NoteNumber":66,"Velocity":39,"Duration":158286,"SoundDuration":158286,"Delta":108259957},{"NoteNumber":52,"Velocity":24,"Duration":316573,"SoundDuration":316573,"Delta":108259957},{"NoteNumber":59,"Velocity":24,"Duration":316573,"SoundDuration":316573,"Delta":108259957},{"NoteNumber":64,"Velocity":39,"Duration":158286,"SoundDuration":158286,"Delta":108418243},{"NoteNumber":69,"Velocity":40,"Duration":1169827,"SoundDuration":1169827,"Delta":108576530},{"NoteNumber":33,"Velocity":27,"Duration":163621,"SoundDuration":163621,"Delta":108576530},{"NoteNumber":61,"Velocity":37,"Duration":347745,"SoundDuration":347745,"Delta":108903773},{"NoteNumber":57,"Velocity":21,"Duration":347745,"SoundDuration":347745,"Delta":108903773},{"NoteNumber":64,"Velocity":25,"Duration":347745,"SoundDuration":347745,"Delta":108903773},{"NoteNumber":67,"Velocity":73,"Duration":347745,"SoundDuration":347745,"Delta":109251518},{"NoteNumber":61,"Velocity":73,"Duration":347745,"SoundDuration":347745,"Delta":109251518},{"NoteNumber":57,"Velocity":60,"Duration":347745,"SoundDuration":347745,"Delta":109251518},{"NoteNumber":64,"Velocity":60,"Duration":347745,"SoundDuration":347745,"Delta":109251518},{"NoteNumber":66,"Velocity":78,"Duration":294190,"SoundDuration":294190,"Delta":109599263},{"NoteNumber":50,"Velocity":67,"Duration":147094,"SoundDuration":147094,"Delta":109599263},{"NoteNumber":73,"Velocity":80,"Duration":147095,"SoundDuration":147095,"Delta":109746358},{"NoteNumber":74,"Velocity":81,"Duration":143822,"SoundDuration":143822,"Delta":109893453},{"NoteNumber":66,"Velocity":69,"Duration":287645,"SoundDuration":287645,"Delta":109893453},{"NoteNumber":50,"Velocity":59,"Duration":287645,"SoundDuration":287645,"Delta":109893453},{"NoteNumber":57,"Velocity":59,"Duration":287645,"SoundDuration":287645,"Delta":109893453},{"NoteNumber":62,"Velocity":59,"Duration":287645,"SoundDuration":287645,"Delta":109893453},{"NoteNumber":76,"Velocity":81,"Duration":143822,"SoundDuration":143822,"Delta":110037276},{"NoteNumber":78,"Velocity":82,"Duration":148595,"SoundDuration":148595,"Delta":110181099},{"NoteNumber":66,"Velocity":70,"Duration":312217,"SoundDuration":312217,"Delta":110181099},{"NoteNumber":50,"Velocity":59,"Duration":312217,"SoundDuration":312217,"Delta":110181099},{"NoteNumber":57,"Velocity":59,"Duration":312217,"SoundDuration":312217,"Delta":110181099},{"NoteNumber":62,"Velocity":59,"Duration":312217,"SoundDuration":312217,"Delta":110181099},{"NoteNumber":79,"Velocity":83,"Duration":81810,"SoundDuration":81810,"Delta":110329695},{"NoteNumber":78,"Velocity":80,"Duration":40905,"SoundDuration":40905,"Delta":110411506},{"NoteNumber":79,"Velocity":78,"Duration":40905,"SoundDuration":40905,"Delta":110452411},{"NoteNumber":78,"Velocity":87,"Duration":302496,"SoundDuration":302496,"Delta":110493316},{"NoteNumber":45,"Velocity":67,"Duration":151247,"SoundDuration":151247,"Delta":110493316},{"NoteNumber":67,"Velocity":71,"Duration":293040,"SoundDuration":293040,"Delta":110795812},{"NoteNumber":76,"Velocity":85,"Duration":146519,"SoundDuration":146519,"Delta":110795812},{"NoteNumber":52,"Velocity":62,"Duration":293040,"SoundDuration":293040,"Delta":110795812},{"NoteNumber":57,"Velocity":62,"Duration":293040,"SoundDuration":293040,"Delta":110795812},{"NoteNumber":61,"Velocity":62,"Duration":293040,"SoundDuration":293040,"Delta":110795812},{"NoteNumber":74,"Velocity":85,"Duration":146520,"SoundDuration":146520,"Delta":110942332},{"NoteNumber":67,"Velocity":71,"Duration":293039,"SoundDuration":293039,"Delta":111088852},{"NoteNumber":73,"Velocity":83,"Duration":146519,"SoundDuration":146519,"Delta":111088852},{"NoteNumber":52,"Velocity":62,"Duration":293039,"SoundDuration":293039,"Delta":111088852},{"NoteNumber":57,"Velocity":62,"Duration":293039,"SoundDuration":293039,"Delta":111088852},{"NoteNumber":61,"Velocity":62,"Duration":293039,"SoundDuration":293039,"Delta":111088852},{"NoteNumber":71,"Velocity":82,"Duration":146519,"SoundDuration":146519,"Delta":111235372},{"NoteNumber":69,"Velocity":85,"Duration":143822,"SoundDuration":143822,"Delta":111381892},{"NoteNumber":38,"Velocity":67,"Duration":143822,"SoundDuration":143822,"Delta":111381892},{"NoteNumber":74,"Velocity":80,"Duration":143822,"SoundDuration":143822,"Delta":111525715},{"NoteNumber":66,"Velocity":71,"Duration":309837,"SoundDuration":309837,"Delta":111669538},{"NoteNumber":74,"Velocity":85,"Duration":103279,"SoundDuration":103279,"Delta":111669538},{"NoteNumber":50,"Velocity":62,"Duration":309837,"SoundDuration":309837,"Delta":111669538},{"NoteNumber":57,"Velocity":62,"Duration":309837,"SoundDuration":309837,"Delta":111669538},{"NoteNumber":62,"Velocity":62,"Duration":309837,"SoundDuration":309837,"Delta":111669538},{"NoteNumber":76,"Velocity":80,"Duration":103279,"SoundDuration":103279,"Delta":111772817},{"NoteNumber":74,"Velocity":80,"Duration":103279,"SoundDuration":103279,"Delta":111876096},{"NoteNumber":66,"Velocity":67,"Duration":303382,"SoundDuration":303382,"Delta":111979375},{"NoteNumber":73,"Velocity":80,"Duration":151691,"SoundDuration":151691,"Delta":111979375},{"NoteNumber":50,"Velocity":62,"Duration":303382,"SoundDuration":303382,"Delta":111979375},{"NoteNumber":57,"Velocity":62,"Duration":303382,"SoundDuration":303382,"Delta":111979375},{"NoteNumber":62,"Velocity":62,"Duration":303382,"SoundDuration":303382,"Delta":111979375},{"NoteNumber":71,"Velocity":80,"Duration":151691,"SoundDuration":151691,"Delta":112131067},{"NoteNumber":73,"Velocity":83,"Duration":999155,"SoundDuration":999155,"Delta":112282758},{"NoteNumber":45,"Velocity":67,"Duration":158713,"SoundDuration":158713,"Delta":112282758},{"NoteNumber":64,"Velocity":50,"Duration":331895,"SoundDuration":331895,"Delta":112600185},{"NoteNumber":69,"Velocity":60,"Duration":331895,"SoundDuration":331895,"Delta":112600185},{"NoteNumber":57,"Velocity":49,"Duration":331895,"SoundDuration":331895,"Delta":112600185},{"NoteNumber":67,"Velocity":65,"Duration":349834,"SoundDuration":349834,"Delta":112932080},{"NoteNumber":69,"Velocity":78,"Duration":349834,"SoundDuration":349834,"Delta":112932080},{"NoteNumber":57,"Velocity":64,"Duration":349834,"SoundDuration":349834,"Delta":112932080},{"NoteNumber":64,"Velocity":64,"Duration":349834,"SoundDuration":349834,"Delta":112932080},{"NoteNumber":69,"Velocity":85,"Duration":147094,"SoundDuration":147094,"Delta":113281914},{"NoteNumber":50,"Velocity":67,"Duration":147094,"SoundDuration":147094,"Delta":113281914},{"NoteNumber":73,"Velocity":80,"Duration":147095,"SoundDuration":147095,"Delta":113429009},{"NoteNumber":74,"Velocity":81,"Duration":143822,"SoundDuration":143822,"Delta":113576104},{"NoteNumber":66,"Velocity":69,"Duration":287645,"SoundDuration":287645,"Delta":113576104},{"NoteNumber":57,"Velocity":59,"Duration":287645,"SoundDuration":287645,"Delta":113576104},{"NoteNumber":62,"Velocity":59,"Duration":287645,"SoundDuration":287645,"Delta":113576104},{"NoteNumber":76,"Velocity":81,"Duration":143822,"SoundDuration":143822,"Delta":113719927},{"NoteNumber":78,"Velocity":82,"Duration":148595,"SoundDuration":148595,"Delta":113863750},{"NoteNumber":66,"Velocity":70,"Duration":312217,"SoundDuration":312217,"Delta":113863750},{"NoteNumber":50,"Velocity":59,"Duration":312217,"SoundDuration":312217,"Delta":113863750},{"NoteNumber":57,"Velocity":59,"Duration":312217,"SoundDuration":312217,"Delta":113863750},{"NoteNumber":62,"Velocity":59,"Duration":312217,"SoundDuration":312217,"Delta":113863750},{"NoteNumber":79,"Velocity":83,"Duration":81810,"SoundDuration":81810,"Delta":114012346},{"NoteNumber":78,"Velocity":80,"Duration":40905,"SoundDuration":40905,"Delta":114094157},{"NoteNumber":79,"Velocity":78,"Duration":40905,"SoundDuration":40905,"Delta":114135062},{"NoteNumber":78,"Velocity":87,"Duration":302496,"SoundDuration":302496,"Delta":114175968},{"NoteNumber":43,"Velocity":67,"Duration":151247,"SoundDuration":151247,"Delta":114175968},{"NoteNumber":67,"Velocity":71,"Duration":293040,"SoundDuration":293040,"Delta":114478464},{"NoteNumber":76,"Velocity":85,"Duration":146519,"SoundDuration":146519,"Delta":114478464},{"NoteNumber":59,"Velocity":62,"Duration":293040,"SoundDuration":293040,"Delta":114478464},{"NoteNumber":64,"Velocity":62,"Duration":293040,"SoundDuration":293040,"Delta":114478464},{"NoteNumber":74,"Velocity":85,"Duration":146520,"SoundDuration":146520,"Delta":114624984},{"NoteNumber":67,"Velocity":71,"Duration":293039,"SoundDuration":293039,"Delta":114771504},{"NoteNumber":73,"Velocity":83,"Duration":146519,"SoundDuration":146519,"Delta":114771504},{"NoteNumber":52,"Velocity":62,"Duration":293039,"SoundDuration":293039,"Delta":114771504},{"NoteNumber":59,"Velocity":62,"Duration":293039,"SoundDuration":293039,"Delta":114771504},{"NoteNumber":64,"Velocity":62,"Duration":293039,"SoundDuration":293039,"Delta":114771504},{"NoteNumber":71,"Velocity":82,"Duration":146519,"SoundDuration":146519,"Delta":114918024},{"NoteNumber":69,"Velocity":85,"Duration":143822,"SoundDuration":143822,"Delta":115064544},{"NoteNumber":45,"Velocity":67,"Duration":143822,"SoundDuration":143822,"Delta":115064544},{"NoteNumber":73,"Velocity":80,"Duration":143822,"SoundDuration":143822,"Delta":115208367},{"NoteNumber":67,"Velocity":71,"Duration":309837,"SoundDuration":309837,"Delta":115352190},{"NoteNumber":73,"Velocity":85,"Duration":103279,"SoundDuration":103279,"Delta":115352190},{"NoteNumber":57,"Velocity":62,"Duration":309837,"SoundDuration":309837,"Delta":115352190},{"NoteNumber":64,"Velocity":62,"Duration":309837,"SoundDuration":309837,"Delta":115352190},{"NoteNumber":74,"Velocity":80,"Duration":103279,"SoundDuration":103279,"Delta":115455469},{"NoteNumber":73,"Velocity":80,"Duration":103279,"SoundDuration":103279,"Delta":115558748},{"NoteNumber":67,"Velocity":67,"Duration":303382,"SoundDuration":303382,"Delta":115662027},{"NoteNumber":71,"Velocity":80,"Duration":151691,"SoundDuration":151691,"Delta":115662027},{"NoteNumber":57,"Velocity":62,"Duration":303382,"SoundDuration":303382,"Delta":115662027},{"NoteNumber":64,"Velocity":62,"Duration":303382,"SoundDuration":303382,"Delta":115662027},{"NoteNumber":69,"Velocity":80,"Duration":151691,"SoundDuration":151691,"Delta":115813718},{"NoteNumber":74,"Velocity":83,"Duration":971592,"SoundDuration":971592,"Delta":115965410},{"NoteNumber":38,"Velocity":67,"Duration":156584,"SoundDuration":156584,"Delta":115965410},{"NoteNumber":66,"Velocity":60,"Duration":322702,"SoundDuration":322702,"Delta":116278579},{"NoteNumber":50,"Velocity":41,"Duration":322702,"SoundDuration":322702,"Delta":116278579},{"NoteNumber":57,"Velocity":41,"Duration":322702,"SoundDuration":322702,"Delta":116278579},{"NoteNumber":62,"Velocity":49,"Duration":322702,"SoundDuration":322702,"Delta":116278579},{"NoteNumber":66,"Velocity":54,"Duration":641890,"SoundDuration":641890,"Delta":116601281},{"NoteNumber":50,"Velocity":44,"Duration":641890,"SoundDuration":641890,"Delta":116601281},{"NoteNumber":57,"Velocity":44,"Duration":641890,"SoundDuration":641890,"Delta":116601281},{"NoteNumber":62,"Velocity":44,"Duration":641890,"SoundDuration":641890,"Delta":116601281},{"NoteNumber":69,"Velocity":40,"Duration":153084,"SoundDuration":153084,"Delta":116937002},{"NoteNumber":73,"Velocity":39,"Duration":153084,"SoundDuration":153084,"Delta":117090086},{"NoteNumber":74,"Velocity":39,"Duration":149685,"SoundDuration":149685,"Delta":117243171},{"NoteNumber":66,"Velocity":33,"Duration":299370,"SoundDuration":299370,"Delta":117243171},{"NoteNumber":50,"Velocity":23,"Duration":299370,"SoundDuration":299370,"Delta":117243171},{"NoteNumber":57,"Velocity":23,"Duration":299370,"SoundDuration":299370,"Delta":117243171},{"NoteNumber":62,"Velocity":23,"Duration":299370,"SoundDuration":299370,"Delta":117243171},{"NoteNumber":76,"Velocity":39,"Duration":149685,"SoundDuration":149685,"Delta":117392856},{"NoteNumber":78,"Velocity":40,"Duration":154646,"SoundDuration":154646,"Delta":117542542},{"NoteNumber":66,"Velocity":33,"Duration":329563,"SoundDuration":329563,"Delta":117542542},{"NoteNumber":50,"Velocity":23,"Duration":329563,"SoundDuration":329563,"Delta":117542542},{"NoteNumber":57,"Velocity":23,"Duration":329563,"SoundDuration":329563,"Delta":117542542},{"NoteNumber":62,"Velocity":23,"Duration":329563,"SoundDuration":329563,"Delta":117542542},{"NoteNumber":79,"Velocity":40,"Duration":87458,"SoundDuration":87458,"Delta":117697189},{"NoteNumber":78,"Velocity":39,"Duration":43729,"SoundDuration":43729,"Delta":117784647},{"NoteNumber":79,"Velocity":37,"Duration":43729,"SoundDuration":43729,"Delta":117828377},{"NoteNumber":78,"Velocity":42,"Duration":314828,"SoundDuration":314828,"Delta":117872106},{"NoteNumber":45,"Velocity":27,"Duration":157414,"SoundDuration":157414,"Delta":117872106},{"NoteNumber":67,"Velocity":34,"Duration":304986,"SoundDuration":304986,"Delta":118186934},{"NoteNumber":76,"Velocity":40,"Duration":152493,"SoundDuration":152493,"Delta":118186934},{"NoteNumber":52,"Velocity":24,"Duration":304986,"SoundDuration":304986,"Delta":118186934},{"NoteNumber":57,"Velocity":24,"Duration":304986,"SoundDuration":304986,"Delta":118186934},{"NoteNumber":61,"Velocity":24,"Duration":304986,"SoundDuration":304986,"Delta":118186934},{"NoteNumber":74,"Velocity":40,"Duration":152493,"SoundDuration":152493,"Delta":118339427},{"NoteNumber":67,"Velocity":34,"Duration":304986,"SoundDuration":304986,"Delta":118491921},{"NoteNumber":73,"Velocity":40,"Duration":152493,"SoundDuration":152493,"Delta":118491921},{"NoteNumber":52,"Velocity":24,"Duration":304986,"SoundDuration":304986,"Delta":118491921},{"NoteNumber":57,"Velocity":24,"Duration":304986,"SoundDuration":304986,"Delta":118491921},{"NoteNumber":61,"Velocity":24,"Duration":304986,"SoundDuration":304986,"Delta":118491921},{"NoteNumber":71,"Velocity":40,"Duration":152493,"SoundDuration":152493,"Delta":118644414},{"NoteNumber":69,"Velocity":40,"Duration":149685,"SoundDuration":149685,"Delta":118796908},{"NoteNumber":38,"Velocity":27,"Duration":149685,"SoundDuration":149685,"Delta":118796908},{"NoteNumber":74,"Velocity":39,"Duration":149685,"SoundDuration":149685,"Delta":118946593},{"NoteNumber":66,"Velocity":34,"Duration":322458,"SoundDuration":322458,"Delta":119096279},{"NoteNumber":74,"Velocity":40,"Duration":107486,"SoundDuration":107486,"Delta":119096279},{"NoteNumber":50,"Velocity":24,"Duration":322458,"SoundDuration":322458,"Delta":119096279},{"NoteNumber":57,"Velocity":24,"Duration":322458,"SoundDuration":322458,"Delta":119096279},{"NoteNumber":62,"Velocity":24,"Duration":322458,"SoundDuration":322458,"Delta":119096279},{"NoteNumber":76,"Velocity":39,"Duration":107486,"SoundDuration":107486,"Delta":119203765},{"NoteNumber":74,"Velocity":39,"Duration":107486,"SoundDuration":107486,"Delta":119311252},{"NoteNumber":66,"Velocity":32,"Duration":315740,"SoundDuration":315740,"Delta":119418738},{"NoteNumber":73,"Velocity":39,"Duration":157870,"SoundDuration":157870,"Delta":119418738},{"NoteNumber":50,"Velocity":24,"Duration":315740,"SoundDuration":315740,"Delta":119418738},{"NoteNumber":57,"Velocity":24,"Duration":315740,"SoundDuration":315740,"Delta":119418738},{"NoteNumber":62,"Velocity":24,"Duration":315740,"SoundDuration":315740,"Delta":119418738},{"NoteNumber":71,"Velocity":39,"Duration":157870,"SoundDuration":157870,"Delta":119576608},{"NoteNumber":73,"Velocity":40,"Duration":1059550,"SoundDuration":1059550,"Delta":119734478},{"NoteNumber":45,"Velocity":27,"Duration":166426,"SoundDuration":166426,"Delta":119734478},{"NoteNumber":64,"Velocity":24,"Duration":350898,"SoundDuration":350898,"Delta":120067331},{"NoteNumber":69,"Velocity":29,"Duration":350898,"SoundDuration":350898,"Delta":120067331},{"NoteNumber":61,"Velocity":20,"Duration":350898,"SoundDuration":350898,"Delta":120067331},{"NoteNumber":57,"Velocity":20,"Duration":350898,"SoundDuration":350898,"Delta":120067331},{"NoteNumber":67,"Velocity":31,"Duration":375799,"SoundDuration":375799,"Delta":120418229},{"NoteNumber":69,"Velocity":37,"Duration":375799,"SoundDuration":375799,"Delta":120418229},{"NoteNumber":57,"Velocity":26,"Duration":699405,"SoundDuration":699405,"Delta":120418229},{"NoteNumber":64,"Velocity":26,"Duration":375799,"SoundDuration":375799,"Delta":120418229},{"NoteNumber":69,"Velocity":40,"Duration":161803,"SoundDuration":161803,"Delta":120794028},{"NoteNumber":50,"Velocity":27,"Duration":323606,"SoundDuration":323606,"Delta":120794028},{"NoteNumber":73,"Velocity":39,"Duration":161803,"SoundDuration":161803,"Delta":120955831},{"NoteNumber":74,"Velocity":39,"Duration":155327,"SoundDuration":155327,"Delta":121117635},{"NoteNumber":66,"Velocity":33,"Duration":310654,"SoundDuration":310654,"Delta":121117635},{"NoteNumber":57,"Velocity":23,"Duration":310654,"SoundDuration":310654,"Delta":121117635},{"NoteNumber":62,"Velocity":23,"Duration":310654,"SoundDuration":310654,"Delta":121117635},{"NoteNumber":76,"Velocity":39,"Duration":155327,"SoundDuration":155327,"Delta":121272962},{"NoteNumber":78,"Velocity":40,"Duration":158713,"SoundDuration":158713,"Delta":121428290},{"NoteNumber":66,"Velocity":33,"Duration":330034,"SoundDuration":330034,"Delta":121428290},{"NoteNumber":50,"Velocity":23,"Duration":330034,"SoundDuration":330034,"Delta":121428290},{"NoteNumber":57,"Velocity":23,"Duration":330034,"SoundDuration":330034,"Delta":121428290},{"NoteNumber":62,"Velocity":23,"Duration":330034,"SoundDuration":330034,"Delta":121428290},{"NoteNumber":79,"Velocity":40,"Duration":85660,"SoundDuration":85660,"Delta":121587003},{"NoteNumber":78,"Velocity":39,"Duration":42830,"SoundDuration":42830,"Delta":121672664},{"NoteNumber":79,"Velocity":37,"Duration":42830,"SoundDuration":42830,"Delta":121715494},{"NoteNumber":78,"Velocity":42,"Duration":329092,"SoundDuration":329092,"Delta":121758324},{"NoteNumber":43,"Velocity":27,"Duration":164546,"SoundDuration":164546,"Delta":121758324},{"NoteNumber":67,"Velocity":34,"Duration":320924,"SoundDuration":320924,"Delta":122087416},{"NoteNumber":76,"Velocity":40,"Duration":160461,"SoundDuration":160461,"Delta":122087416},{"NoteNumber":59,"Velocity":24,"Duration":320924,"SoundDuration":320924,"Delta":122087416},{"NoteNumber":64,"Velocity":24,"Duration":320924,"SoundDuration":320924,"Delta":122087416},{"NoteNumber":74,"Velocity":40,"Duration":160462,"SoundDuration":160462,"Delta":122247878},{"NoteNumber":67,"Velocity":34,"Duration":320923,"SoundDuration":320923,"Delta":122408340},{"NoteNumber":73,"Velocity":40,"Duration":160461,"SoundDuration":160461,"Delta":122408340},{"NoteNumber":52,"Velocity":24,"Duration":320923,"SoundDuration":320923,"Delta":122408340},{"NoteNumber":59,"Velocity":24,"Duration":320923,"SoundDuration":320923,"Delta":122408340},{"NoteNumber":64,"Velocity":24,"Duration":320923,"SoundDuration":320923,"Delta":122408340},{"NoteNumber":71,"Velocity":40,"Duration":160461,"SoundDuration":160461,"Delta":122568802},{"NoteNumber":69,"Velocity":40,"Duration":155747,"SoundDuration":155747,"Delta":122729264},{"NoteNumber":45,"Velocity":27,"Duration":155747,"SoundDuration":155747,"Delta":122729264},{"NoteNumber":73,"Velocity":39,"Duration":155746,"SoundDuration":155746,"Delta":122885011},{"NoteNumber":67,"Velocity":34,"Duration":358444,"SoundDuration":358444,"Delta":123040758},{"NoteNumber":73,"Velocity":40,"Duration":119481,"SoundDuration":119481,"Delta":123040758},{"NoteNumber":57,"Velocity":24,"Duration":358444,"SoundDuration":358444,"Delta":123040758},{"NoteNumber":64,"Velocity":24,"Duration":358444,"SoundDuration":358444,"Delta":123040758},{"NoteNumber":74,"Velocity":39,"Duration":119481,"SoundDuration":119481,"Delta":123160240},{"NoteNumber":73,"Velocity":39,"Duration":119481,"SoundDuration":119481,"Delta":123279721},{"NoteNumber":67,"Velocity":32,"Duration":331895,"SoundDuration":331895,"Delta":123399202},{"NoteNumber":71,"Velocity":39,"Duration":165947,"SoundDuration":165947,"Delta":123399202},{"NoteNumber":57,"Velocity":24,"Duration":331895,"SoundDuration":331895,"Delta":123399202},{"NoteNumber":64,"Velocity":24,"Duration":331895,"SoundDuration":331895,"Delta":123399202},{"NoteNumber":69,"Velocity":39,"Duration":165947,"SoundDuration":165947,"Delta":123565150},{"NoteNumber":74,"Velocity":40,"Duration":1074967,"SoundDuration":1074967,"Delta":123731097},{"NoteNumber":38,"Velocity":27,"Duration":171321,"SoundDuration":171321,"Delta":123731097},{"NoteNumber":66,"Velocity":29,"Duration":354087,"SoundDuration":354087,"Delta":124073739},{"NoteNumber":50,"Velocity":17,"Duration":354087,"SoundDuration":354087,"Delta":124073739},{"NoteNumber":57,"Velocity":17,"Duration":354087,"SoundDuration":354087,"Delta":124073739},{"NoteNumber":62,"Velocity":20,"Duration":354087,"SoundDuration":354087,"Delta":124073739},{"NoteNumber":66,"Velocity":37,"Duration":378238,"SoundDuration":378238,"Delta":124427826},{"NoteNumber":50,"Velocity":26,"Duration":378238,"SoundDuration":378238,"Delta":124427826},{"NoteNumber":57,"Velocity":26,"Duration":378238,"SoundDuration":378238,"Delta":124427826},{"NoteNumber":62,"Velocity":26,"Duration":378238,"SoundDuration":378238,"Delta":124427826},{"NoteNumber":74,"Velocity":43,"Duration":976577,"SoundDuration":976577,"Delta":124806065},{"NoteNumber":66,"Velocity":47,"Duration":166205,"SoundDuration":166205,"Delta":124806065},{"NoteNumber":50,"Velocity":26,"Duration":332409,"SoundDuration":332409,"Delta":124806065},{"NoteNumber":57,"Velocity":31,"Duration":332409,"SoundDuration":332409,"Delta":124806065},{"NoteNumber":69,"Velocity":45,"Duration":166204,"SoundDuration":166204,"Delta":124972270},{"NoteNumber":69,"Velocity":49,"Duration":120643,"SoundDuration":120643,"Delta":125138475},{"NoteNumber":60,"Velocity":27,"Duration":316298,"SoundDuration":316298,"Delta":125138475},{"NoteNumber":50,"Velocity":23,"Duration":316298,"SoundDuration":316298,"Delta":125138475},{"NoteNumber":71,"Velocity":41,"Duration":40214,"SoundDuration":40214,"Delta":125259119},{"NoteNumber":69,"Velocity":46,"Duration":155440,"SoundDuration":155440,"Delta":125299333},{"NoteNumber":68,"Velocity":46,"Duration":163934,"SoundDuration":163934,"Delta":125454774},{"NoteNumber":50,"Velocity":23,"Duration":327869,"SoundDuration":327869,"Delta":125454774},{"NoteNumber":59,"Velocity":28,"Duration":327869,"SoundDuration":327869,"Delta":125454774},{"NoteNumber":64,"Velocity":45,"Duration":163934,"SoundDuration":163934,"Delta":125618708},{"NoteNumber":74,"Velocity":44,"Duration":979378,"SoundDuration":979378,"Delta":125782643},{"NoteNumber":64,"Velocity":50,"Duration":166666,"SoundDuration":166666,"Delta":125782643},{"NoteNumber":50,"Velocity":26,"Duration":333332,"SoundDuration":333332,"Delta":125782643},{"NoteNumber":55,"Velocity":32,"Duration":333332,"SoundDuration":333332,"Delta":125782643},{"NoteNumber":67,"Velocity":47,"Duration":166666,"SoundDuration":166666,"Delta":125949309},{"NoteNumber":67,"Velocity":51,"Duration":120321,"SoundDuration":120321,"Delta":126115976},{"NoteNumber":58,"Velocity":28,"Duration":315466,"SoundDuration":315466,"Delta":126115976},{"NoteNumber":50,"Velocity":24,"Duration":315466,"SoundDuration":315466,"Delta":126115976},{"NoteNumber":69,"Velocity":43,"Duration":40106,"SoundDuration":40106,"Delta":126236297},{"NoteNumber":67,"Velocity":48,"Duration":155039,"SoundDuration":155039,"Delta":126276404},{"NoteNumber":66,"Velocity":48,"Duration":165289,"SoundDuration":165289,"Delta":126431443},{"NoteNumber":50,"Velocity":24,"Duration":330579,"SoundDuration":330579,"Delta":126431443},{"NoteNumber":57,"Velocity":29,"Duration":330579,"SoundDuration":330579,"Delta":126431443},{"NoteNumber":62,"Velocity":43,"Duration":165289,"SoundDuration":165289,"Delta":126596732},{"NoteNumber":74,"Velocity":45,"Duration":950120,"SoundDuration":950120,"Delta":126762022},{"NoteNumber":66,"Velocity":50,"Duration":163043,"SoundDuration":163043,"Delta":126762022},{"NoteNumber":50,"Velocity":27,"Duration":326087,"SoundDuration":326087,"Delta":126762022},{"NoteNumber":57,"Velocity":33,"Duration":326087,"SoundDuration":326087,"Delta":126762022},{"NoteNumber":69,"Velocity":48,"Duration":163043,"SoundDuration":163043,"Delta":126925065},{"NoteNumber":69,"Velocity":52,"Duration":115681,"SoundDuration":115681,"Delta":127088109},{"NoteNumber":60,"Velocity":29,"Duration":300583,"SoundDuration":300583,"Delta":127088109},{"NoteNumber":50,"Velocity":24,"Duration":300583,"SoundDuration":300583,"Delta":127088109},{"NoteNumber":71,"Velocity":44,"Duration":38560,"SoundDuration":38560,"Delta":127203790},{"NoteNumber":69,"Velocity":48,"Duration":146341,"SoundDuration":146341,"Delta":127242350},{"NoteNumber":68,"Velocity":48,"Duration":161724,"SoundDuration":161724,"Delta":127388692},{"NoteNumber":50,"Velocity":24,"Duration":323450,"SoundDuration":323450,"Delta":127388692},{"NoteNumber":59,"Velocity":29,"Duration":323450,"SoundDuration":323450,"Delta":127388692},{"NoteNumber":64,"Velocity":44,"Duration":161725,"SoundDuration":161725,"Delta":127550417},{"NoteNumber":74,"Velocity":46,"Duration":948853,"SoundDuration":948853,"Delta":127712142},{"NoteNumber":64,"Velocity":53,"Duration":163487,"SoundDuration":163487,"Delta":127712142},{"NoteNumber":50,"Velocity":28,"Duration":326975,"SoundDuration":326975,"Delta":127712142},{"NoteNumber":55,"Velocity":33,"Duration":326975,"SoundDuration":326975,"Delta":127712142},{"NoteNumber":67,"Velocity":50,"Duration":163487,"SoundDuration":163487,"Delta":127875629},{"NoteNumber":67,"Velocity":53,"Duration":115429,"SoundDuration":115429,"Delta":128039117},{"NoteNumber":58,"Velocity":30,"Duration":298428,"SoundDuration":298428,"Delta":128039117},{"NoteNumber":50,"Velocity":25,"Duration":298428,"SoundDuration":298428,"Delta":128039117},{"NoteNumber":69,"Velocity":46,"Duration":38071,"SoundDuration":38071,"Delta":128154547},{"NoteNumber":67,"Velocity":50,"Duration":144927,"SoundDuration":144927,"Delta":128192618},{"NoteNumber":66,"Velocity":51,"Duration":161724,"SoundDuration":161724,"Delta":128337545},{"NoteNumber":50,"Velocity":25,"Duration":323450,"SoundDuration":323450,"Delta":128337545},{"NoteNumber":57,"Velocity":30,"Duration":323450,"SoundDuration":323450,"Delta":128337545},{"NoteNumber":62,"Velocity":44,"Duration":161725,"SoundDuration":161725,"Delta":128499270},{"NoteNumber":69,"Velocity":48,"Duration":919911,"SoundDuration":919911,"Delta":128660995},{"NoteNumber":62,"Velocity":53,"Duration":160909,"SoundDuration":160909,"Delta":128660995},{"NoteNumber":50,"Velocity":29,"Duration":321819,"SoundDuration":321819,"Delta":128660995},{"NoteNumber":54,"Velocity":35,"Duration":321819,"SoundDuration":321819,"Delta":128660995},{"NoteNumber":66,"Velocity":51,"Duration":160909,"SoundDuration":160909,"Delta":128821905},{"NoteNumber":66,"Velocity":55,"Duration":114062,"SoundDuration":114062,"Delta":128982814},{"NoteNumber":57,"Velocity":31,"Duration":288814,"SoundDuration":288814,"Delta":128982814},{"NoteNumber":50,"Velocity":26,"Duration":288814,"SoundDuration":288814,"Delta":128982814},{"NoteNumber":67,"Velocity":46,"Duration":38020,"SoundDuration":38020,"Delta":129096877},{"NoteNumber":66,"Velocity":51,"Duration":136730,"SoundDuration":136730,"Delta":129134898},{"NoteNumber":64,"Velocity":51,"Duration":154639,"SoundDuration":154639,"Delta":129271628},{"NoteNumber":50,"Velocity":26,"Duration":309278,"SoundDuration":309278,"Delta":129271628},{"NoteNumber":56,"Velocity":31,"Duration":309278,"SoundDuration":309278,"Delta":129271628},{"NoteNumber":59,"Velocity":46,"Duration":154639,"SoundDuration":154639,"Delta":129426267},{"NoteNumber":69,"Velocity":48,"Duration":918539,"SoundDuration":918539,"Delta":129580906},{"NoteNumber":61,"Velocity":55,"Duration":157480,"SoundDuration":157480,"Delta":129580906},{"NoteNumber":50,"Velocity":29,"Duration":314961,"SoundDuration":314961,"Delta":129580906},{"NoteNumber":52,"Velocity":35,"Duration":314961,"SoundDuration":314961,"Delta":129580906},{"NoteNumber":64,"Velocity":52,"Duration":157480,"SoundDuration":157480,"Delta":129738387},{"NoteNumber":64,"Velocity":55,"Duration":112303,"SoundDuration":112303,"Delta":129895867},{"NoteNumber":55,"Velocity":31,"Duration":286151,"SoundDuration":286151,"Delta":129895867},{"NoteNumber":50,"Velocity":26,"Duration":286151,"SoundDuration":286151,"Delta":129895867},{"NoteNumber":66,"Velocity":47,"Duration":37434,"SoundDuration":37434,"Delta":130008171},{"NoteNumber":64,"Velocity":52,"Duration":136413,"SoundDuration":136413,"Delta":130045605},{"NoteNumber":62,"Velocity":52,"Duration":158713,"SoundDuration":158713,"Delta":130182018},{"NoteNumber":50,"Velocity":26,"Duration":317427,"SoundDuration":317427,"Delta":130182018},{"NoteNumber":54,"Velocity":31,"Duration":317427,"SoundDuration":317427,"Delta":130182018},{"NoteNumber":57,"Velocity":46,"Duration":158713,"SoundDuration":158713,"Delta":130340732},{"NoteNumber":69,"Velocity":48,"Duration":895866,"SoundDuration":895866,"Delta":130499445},{"NoteNumber":62,"Velocity":53,"Duration":155440,"SoundDuration":155440,"Delta":130499445},{"NoteNumber":50,"Velocity":29,"Duration":310880,"SoundDuration":310880,"Delta":130499445},{"NoteNumber":54,"Velocity":35,"Duration":310880,"SoundDuration":310880,"Delta":130499445},{"NoteNumber":66,"Velocity":51,"Duration":155440,"SoundDuration":155440,"Delta":130654886},{"NoteNumber":66,"Velocity":54,"Duration":107913,"SoundDuration":107913,"Delta":130810326},{"NoteNumber":57,"Velocity":30,"Duration":271816,"SoundDuration":271816,"Delta":130810326},{"NoteNumber":50,"Velocity":25,"Duration":271816,"SoundDuration":271816,"Delta":130810326},{"NoteNumber":67,"Velocity":45,"Duration":35971,"SoundDuration":35971,"Delta":130918240},{"NoteNumber":66,"Velocity":50,"Duration":127931,"SoundDuration":127931,"Delta":130954211},{"NoteNumber":64,"Velocity":49,"Duration":156584,"SoundDuration":156584,"Delta":131082143},{"NoteNumber":50,"Velocity":25,"Duration":313168,"SoundDuration":313168,"Delta":131082143},{"NoteNumber":56,"Velocity":30,"Duration":313168,"SoundDuration":313168,"Delta":131082143},{"NoteNumber":59,"Velocity":45,"Duration":156584,"SoundDuration":156584,"Delta":131238728},{"NoteNumber":69,"Velocity":46,"Duration":889573,"SoundDuration":889573,"Delta":131395312},{"NoteNumber":61,"Velocity":53,"Duration":152284,"SoundDuration":152284,"Delta":131395312},{"NoteNumber":50,"Velocity":28,"Duration":304568,"SoundDuration":304568,"Delta":131395312},{"NoteNumber":52,"Velocity":33,"Duration":304568,"SoundDuration":304568,"Delta":131395312},{"NoteNumber":64,"Velocity":50,"Duration":152284,"SoundDuration":152284,"Delta":131547597},{"NoteNumber":64,"Velocity":52,"Duration":112595,"SoundDuration":112595,"Delta":131699881},{"NoteNumber":55,"Velocity":29,"Duration":278883,"SoundDuration":278883,"Delta":131699881},{"NoteNumber":50,"Velocity":24,"Duration":278883,"SoundDuration":278883,"Delta":131699881},{"NoteNumber":66,"Velocity":45,"Duration":37531,"SoundDuration":37531,"Delta":131812477},{"NoteNumber":64,"Velocity":49,"Duration":128755,"SoundDuration":128755,"Delta":131850009},{"NoteNumber":62,"Velocity":49,"Duration":153061,"SoundDuration":153061,"Delta":131978764},{"NoteNumber":50,"Velocity":24,"Duration":306121,"SoundDuration":306121,"Delta":131978764},{"NoteNumber":54,"Velocity":29,"Duration":306121,"SoundDuration":306121,"Delta":131978764},{"NoteNumber":57,"Velocity":41,"Duration":153060,"SoundDuration":153060,"Delta":132131825},{"NoteNumber":62,"Velocity":40,"Duration":882259,"SoundDuration":882259,"Delta":132284886},{"NoteNumber":54,"Velocity":44,"Duration":154241,"SoundDuration":154241,"Delta":132284886},{"NoteNumber":38,"Velocity":24,"Duration":308482,"SoundDuration":308482,"Delta":132284886},{"NoteNumber":45,"Velocity":29,"Duration":308482,"SoundDuration":308482,"Delta":132284886},{"NoteNumber":57,"Velocity":42,"Duration":154241,"SoundDuration":154241,"Delta":132439128},{"NoteNumber":57,"Velocity":45,"Duration":111386,"SoundDuration":111386,"Delta":132593369},{"NoteNumber":48,"Velocity":25,"Duration":273775,"SoundDuration":273775,"Delta":132593369},{"NoteNumber":38,"Velocity":21,"Duration":273775,"SoundDuration":273775,"Delta":132593369},{"NoteNumber":59,"Velocity":38,"Duration":37128,"SoundDuration":37128,"Delta":132704756},{"NoteNumber":57,"Velocity":41,"Duration":125260,"SoundDuration":125260,"Delta":132741884},{"NoteNumber":56,"Velocity":41,"Duration":150000,"SoundDuration":150000,"Delta":132867145},{"NoteNumber":38,"Velocity":21,"Duration":300000,"SoundDuration":300000,"Delta":132867145},{"NoteNumber":47,"Velocity":24,"Duration":300000,"SoundDuration":300000,"Delta":132867145},{"NoteNumber":52,"Velocity":35,"Duration":150000,"SoundDuration":150000,"Delta":133017145},{"NoteNumber":62,"Velocity":39,"Duration":875055,"SoundDuration":875055,"Delta":133167145},{"NoteNumber":52,"Velocity":44,"Duration":152671,"SoundDuration":152671,"Delta":133167145},{"NoteNumber":38,"Velocity":23,"Duration":305343,"SoundDuration":305343,"Delta":133167145},{"NoteNumber":43,"Velocity":28,"Duration":305343,"SoundDuration":305343,"Delta":133167145},{"NoteNumber":55,"Velocity":41,"Duration":152671,"SoundDuration":152671,"Delta":133319817},{"NoteNumber":55,"Velocity":44,"Duration":110565,"SoundDuration":110565,"Delta":133472489},{"NoteNumber":46,"Velocity":24,"Duration":272681,"SoundDuration":272681,"Delta":133472489},{"NoteNumber":38,"Velocity":20,"Duration":272681,"SoundDuration":272681,"Delta":133472489},{"NoteNumber":57,"Velocity":37,"Duration":36855,"SoundDuration":36855,"Delta":133583054},{"NoteNumber":55,"Velocity":41,"Duration":125260,"SoundDuration":125260,"Delta":133619909},{"NoteNumber":54,"Velocity":40,"Duration":148515,"SoundDuration":148515,"Delta":133745170},{"NoteNumber":38,"Velocity":20,"Duration":297030,"SoundDuration":297030,"Delta":133745170},{"NoteNumber":45,"Velocity":24,"Duration":297030,"SoundDuration":297030,"Delta":133745170},{"NoteNumber":50,"Velocity":34,"Duration":148515,"SoundDuration":148515,"Delta":133893685},{"NoteNumber":62,"Velocity":33,"Duration":904227,"SoundDuration":904227,"Delta":134042200},{"NoteNumber":54,"Velocity":36,"Duration":158646,"SoundDuration":158646,"Delta":134042200},{"NoteNumber":38,"Velocity":20,"Duration":317292,"SoundDuration":317292,"Delta":134042200},{"NoteNumber":45,"Velocity":23,"Duration":317292,"SoundDuration":317292,"Delta":134042200},{"NoteNumber":57,"Velocity":35,"Duration":158646,"SoundDuration":158646,"Delta":134200846},{"NoteNumber":57,"Velocity":38,"Duration":111884,"SoundDuration":111884,"Delta":134359492},{"NoteNumber":48,"Velocity":20,"Duration":278769,"SoundDuration":278769,"Delta":134359492},{"NoteNumber":38,"Velocity":17,"Duration":278769,"SoundDuration":278769,"Delta":134359492},{"NoteNumber":59,"Velocity":31,"Duration":37294,"SoundDuration":37294,"Delta":134471377},{"NoteNumber":57,"Velocity":34,"Duration":129589,"SoundDuration":129589,"Delta":134508672},{"NoteNumber":56,"Velocity":34,"Duration":154083,"SoundDuration":154083,"Delta":134638261},{"NoteNumber":38,"Velocity":17,"Duration":308165,"SoundDuration":308165,"Delta":134638261},{"NoteNumber":47,"Velocity":20,"Duration":308165,"SoundDuration":308165,"Delta":134638261},{"NoteNumber":52,"Velocity":30,"Duration":154082,"SoundDuration":154082,"Delta":134792344},{"NoteNumber":62,"Velocity":32,"Duration":939920,"SoundDuration":939920,"Delta":134946427},{"NoteNumber":52,"Velocity":37,"Duration":164203,"SoundDuration":164203,"Delta":134946427},{"NoteNumber":38,"Velocity":19,"Duration":328406,"SoundDuration":328406,"Delta":134946427},{"NoteNumber":43,"Velocity":22,"Duration":328406,"SoundDuration":328406,"Delta":134946427},{"NoteNumber":55,"Velocity":34,"Duration":164203,"SoundDuration":164203,"Delta":135110631},{"NoteNumber":55,"Velocity":37,"Duration":118984,"SoundDuration":118984,"Delta":135274834},{"NoteNumber":46,"Velocity":20,"Duration":292874,"SoundDuration":292874,"Delta":135274834},{"NoteNumber":38,"Velocity":17,"Duration":292874,"SoundDuration":292874,"Delta":135274834},{"NoteNumber":57,"Velocity":31,"Duration":39661,"SoundDuration":39661,"Delta":135393819},{"NoteNumber":55,"Velocity":34,"Duration":134228,"SoundDuration":134228,"Delta":135433480},{"NoteNumber":54,"Velocity":34,"Duration":159320,"SoundDuration":159320,"Delta":135567708},{"NoteNumber":38,"Velocity":17,"Duration":318639,"SoundDuration":318639,"Delta":135567708},{"NoteNumber":45,"Velocity":20,"Duration":318639,"SoundDuration":318639,"Delta":135567708},{"NoteNumber":50,"Velocity":30,"Duration":159319,"SoundDuration":159319,"Delta":135727028},{"NoteNumber":50,"Velocity":39,"Duration":358208,"SoundDuration":358208,"Delta":135886348},{"NoteNumber":57,"Velocity":46,"Duration":358208,"SoundDuration":358208,"Delta":135886348},{"NoteNumber":38,"Velocity":26,"Duration":358208,"SoundDuration":358208,"Delta":135886348},{"NoteNumber":45,"Velocity":31,"Duration":358208,"SoundDuration":358208,"Delta":135886348},{"NoteNumber":62,"Velocity":41,"Duration":357086,"SoundDuration":357086,"Delta":136244557},{"NoteNumber":69,"Velocity":49,"Duration":357086,"SoundDuration":357086,"Delta":136244557},{"NoteNumber":50,"Velocity":28,"Duration":357086,"SoundDuration":357086,"Delta":136244557},{"NoteNumber":57,"Velocity":34,"Duration":357086,"SoundDuration":357086,"Delta":136244557},{"NoteNumber":74,"Velocity":48,"Duration":173462,"SoundDuration":173462,"Delta":136601644},{"NoteNumber":62,"Velocity":28,"Duration":3692034,"SoundDuration":3692034,"Delta":136601644},{"NoteNumber":69,"Velocity":34,"Duration":3692034,"SoundDuration":3692034,"Delta":136601644},{"NoteNumber":81,"Velocity":49,"Duration":172076,"SoundDuration":172076,"Delta":136775106},{"NoteNumber":86,"Velocity":51,"Duration":88160,"SoundDuration":88160,"Delta":136947182},{"NoteNumber":90,"Velocity":53,"Duration":92969,"SoundDuration":92969,"Delta":137125863},{"NoteNumber":92,"Velocity":55,"Duration":98333,"SoundDuration":98333,"Delta":137314429},{"NoteNumber":93,"Velocity":57,"Duration":104353,"SoundDuration":104353,"Delta":137514039},{"NoteNumber":95,"Velocity":59,"Duration":113933,"SoundDuration":113933,"Delta":137726122},{"NoteNumber":97,"Velocity":62,"Duration":173010,"SoundDuration":173010,"Delta":137963094},{"NoteNumber":98,"Velocity":64,"Duration":1984563,"SoundDuration":1984563,"Delta":138309115}],"license":{"name":"Creative Commons Attribution-ShareAlike 3.0 Germany","url":"http://creativecommons.org/licenses/by-sa/3.0/de/deed.en","text":"The MIDI, audio (MP3, OGG) and video files of Bernd Krueger are licensed under the cc-by-sa Germany License. This means that you can use and adapt the files, as long as you attribute the copyright holder.\n\nName: Bernd Krueger\nSource: http://www.piano-midi.de\n\nThe distribution or public playback of the files is only allowed under identical license conditions.\n\nThe scores are open source.","attribution":"MIDI files by Bernd Krueger (piano-midi.de)","attributionUrl":"http://www.piano-midi.de"}}