{"title":"Chopin Nocturne Opus 27 Nr. 2","artist":"Chopin","durationMs":301790,"midiSha256":"afd56588c49c6efebd48db662a624ea6b34d33a2ae6a4afcc8978a34ca857a80","midiObject":[{"NoteNumber":37,"Velocity":30,"Duration":342987,"SoundDuration":342987,"Delta":0},{"NoteNumber":65,"Velocity":26,"Duration":320962,"SoundDuration":320962,"Delta":342987},{"NoteNumber":56,"Velocity":26,"Duration":299999,"SoundDuration":299999,"Delta":663950},{"NoteNumber":65,"Velocity":26,"Duration":300000,"SoundDuration":300000,"Delta":963950},{"NoteNumber":61,"Velocity":26,"Duration":309278,"SoundDuration":309278,"Delta":1263950},{"NoteNumber":53,"Velocity":26,"Duration":309278,"SoundDuration":309278,"Delta":1573228},{"NoteNumber":49,"Velocity":30,"Duration":319173,"SoundDuration":319173,"Delta":1882507},{"NoteNumber":65,"Velocity":26,"Duration":309300,"SoundDuration":309300,"Delta":2201680},{"NoteNumber":56,"Velocity":26,"Duration":303030,"SoundDuration":303030,"Delta":2510980},{"NoteNumber":65,"Velocity":25,"Duration":305156,"SoundDuration":305156,"Delta":2814010},{"NoteNumber":61,"Velocity":28,"Duration":314178,"SoundDuration":314178,"Delta":3119167},{"NoteNumber":53,"Velocity":25,"Duration":338019,"SoundDuration":338019,"Delta":3433345},{"NoteNumber":77,"Velocity":55,"Duration":1836679,"SoundDuration":1836679,"Delta":3771365},{"NoteNumber":49,"Velocity":30,"Duration":332153,"SoundDuration":332153,"Delta":3771365},{"NoteNumber":65,"Velocity":26,"Duration":316407,"SoundDuration":316407,"Delta":4103518},{"NoteNumber":56,"Velocity":26,"Duration":297029,"SoundDuration":297029,"Delta":4419926},{"NoteNumber":65,"Velocity":26,"Duration":297029,"SoundDuration":297029,"Delta":4716956},{"NoteNumber":61,"Velocity":26,"Duration":297029,"SoundDuration":297029,"Delta":5013985},{"NoteNumber":53,"Velocity":26,"Duration":297029,"SoundDuration":297029,"Delta":5311015},{"NoteNumber":75,"Velocity":55,"Duration":618556,"SoundDuration":618556,"Delta":5608045},{"NoteNumber":49,"Velocity":30,"Duration":309278,"SoundDuration":309278,"Delta":5608045},{"NoteNumber":65,"Velocity":26,"Duration":309278,"SoundDuration":309278,"Delta":5917323},{"NoteNumber":73,"Velocity":55,"Duration":954167,"SoundDuration":954167,"Delta":6226601},{"NoteNumber":56,"Velocity":26,"Duration":319149,"SoundDuration":319149,"Delta":6226601},{"NoteNumber":65,"Velocity":26,"Duration":319148,"SoundDuration":319148,"Delta":6545750},{"NoteNumber":61,"Velocity":26,"Duration":315869,"SoundDuration":315869,"Delta":6864899},{"NoteNumber":65,"Velocity":50,"Duration":337576,"SoundDuration":337576,"Delta":7180769},{"NoteNumber":53,"Velocity":26,"Duration":337576,"SoundDuration":337576,"Delta":7180769},{"NoteNumber":68,"Velocity":55,"Duration":2443974,"SoundDuration":2443974,"Delta":7518345},{"NoteNumber":49,"Velocity":30,"Duration":331609,"SoundDuration":331609,"Delta":7518345},{"NoteNumber":65,"Velocity":28,"Duration":312008,"SoundDuration":312008,"Delta":7849955},{"NoteNumber":56,"Velocity":28,"Duration":294117,"SoundDuration":294117,"Delta":8161964},{"NoteNumber":65,"Velocity":27,"Duration":294117,"SoundDuration":294117,"Delta":8456082},{"NoteNumber":61,"Velocity":27,"Duration":303030,"SoundDuration":303030,"Delta":8750199},{"NoteNumber":53,"Velocity":27,"Duration":303030,"SoundDuration":303030,"Delta":9053230},{"NoteNumber":49,"Velocity":31,"Duration":303030,"SoundDuration":303030,"Delta":9356260},{"NoteNumber":65,"Velocity":27,"Duration":303030,"SoundDuration":303030,"Delta":9659290},{"NoteNumber":73,"Velocity":58,"Duration":599999,"SoundDuration":599999,"Delta":9962320},{"NoteNumber":56,"Velocity":27,"Duration":300000,"SoundDuration":300000,"Delta":9962320},{"NoteNumber":65,"Velocity":28,"Duration":299999,"SoundDuration":299999,"Delta":10262320},{"NoteNumber":77,"Velocity":61,"Duration":635769,"SoundDuration":635769,"Delta":10562320},{"NoteNumber":61,"Velocity":28,"Duration":307786,"SoundDuration":307786,"Delta":10562320},{"NoteNumber":53,"Velocity":30,"Duration":327983,"SoundDuration":327983,"Delta":10870107},{"NoteNumber":82,"Velocity":68,"Duration":2116720,"SoundDuration":2116720,"Delta":11198090},{"NoteNumber":49,"Velocity":34,"Duration":309661,"SoundDuration":309661,"Delta":11198090},{"NoteNumber":65,"Velocity":29,"Duration":309661,"SoundDuration":309661,"Delta":11507752},{"NoteNumber":56,"Velocity":28,"Duration":297029,"SoundDuration":297029,"Delta":11817413},{"NoteNumber":65,"Velocity":28,"Duration":297029,"SoundDuration":297029,"Delta":12114443},{"NoteNumber":61,"Velocity":28,"Duration":297029,"SoundDuration":297029,"Delta":12411473},{"NoteNumber":53,"Velocity":27,"Duration":297029,"SoundDuration":297029,"Delta":12708502},{"NoteNumber":49,"Velocity":30,"Duration":309278,"SoundDuration":309278,"Delta":13005532},{"NoteNumber":80,"Velocity":50,"Duration":315457,"SoundDuration":315457,"Delta":13314810},{"NoteNumber":65,"Velocity":26,"Duration":315457,"SoundDuration":315457,"Delta":13314810},{"NoteNumber":76,"Velocity":56,"Duration":306122,"SoundDuration":306122,"Delta":13630268},{"NoteNumber":56,"Velocity":26,"Duration":306122,"SoundDuration":306122,"Delta":13630268},{"NoteNumber":77,"Velocity":50,"Duration":306122,"SoundDuration":306122,"Delta":13936390},{"NoteNumber":65,"Velocity":25,"Duration":306122,"SoundDuration":306122,"Delta":13936390},{"NoteNumber":72,"Velocity":55,"Duration":316500,"SoundDuration":316500,"Delta":14242513},{"NoteNumber":61,"Velocity":25,"Duration":316500,"SoundDuration":316500,"Delta":14242513},{"NoteNumber":73,"Velocity":50,"Duration":330600,"SoundDuration":330600,"Delta":14559014},{"NoteNumber":53,"Velocity":24,"Duration":330600,"SoundDuration":330600,"Delta":14559014},{"NoteNumber":69,"Velocity":63,"Duration":3626438,"SoundDuration":3626438,"Delta":14889615},{"NoteNumber":37,"Velocity":30,"Duration":324956,"SoundDuration":324956,"Delta":14889615},{"NoteNumber":66,"Velocity":26,"Duration":311459,"SoundDuration":311459,"Delta":15214571},{"NoteNumber":57,"Velocity":26,"Duration":297029,"SoundDuration":297029,"Delta":15526031},{"NoteNumber":66,"Velocity":26,"Duration":297029,"SoundDuration":297029,"Delta":15823060},{"NoteNumber":63,"Velocity":26,"Duration":297029,"SoundDuration":297029,"Delta":16120090},{"NoteNumber":54,"Velocity":26,"Duration":297029,"SoundDuration":297029,"Delta":16417120},{"NoteNumber":49,"Velocity":30,"Duration":288461,"SoundDuration":288461,"Delta":16714150},{"NoteNumber":66,"Velocity":26,"Duration":288461,"SoundDuration":288461,"Delta":17002611},{"NoteNumber":57,"Velocity":26,"Duration":300000,"SoundDuration":300000,"Delta":17291073},{"NoteNumber":66,"Velocity":25,"Duration":300000,"SoundDuration":300000,"Delta":17591073},{"NoteNumber":63,"Velocity":28,"Duration":305123,"SoundDuration":305123,"Delta":17891073},{"NoteNumber":57,"Velocity":25,"Duration":319857,"SoundDuration":319857,"Delta":18196196},{"NoteNumber":70,"Velocity":58,"Duration":1863197,"SoundDuration":1863197,"Delta":18516053},{"NoteNumber":49,"Velocity":30,"Duration":326151,"SoundDuration":326151,"Delta":18516053},{"NoteNumber":66,"Velocity":26,"Duration":312556,"SoundDuration":312556,"Delta":18842204},{"NoteNumber":58,"Velocity":26,"Duration":306122,"SoundDuration":306122,"Delta":19154761},{"NoteNumber":66,"Velocity":26,"Duration":306122,"SoundDuration":306122,"Delta":19460883},{"NoteNumber":63,"Velocity":26,"Duration":306122,"SoundDuration":306122,"Delta":19767006},{"NoteNumber":54,"Velocity":26,"Duration":306122,"SoundDuration":306122,"Delta":20073128},{"NoteNumber":49,"Velocity":30,"Duration":322580,"SoundDuration":322580,"Delta":20379251},{"NoteNumber":84,"Velocity":56,"Duration":308080,"SoundDuration":308080,"Delta":20701831},{"NoteNumber":66,"Velocity":26,"Duration":308080,"SoundDuration":308080,"Delta":20701831},{"NoteNumber":82,"Velocity":58,"Duration":310889,"SoundDuration":310889,"Delta":21009912},{"NoteNumber":58,"Velocity":26,"Duration":310889,"SoundDuration":310889,"Delta":21009912},{"NoteNumber":77,"Velocity":52,"Duration":317469,"SoundDuration":317469,"Delta":21320801},{"NoteNumber":66,"Velocity":25,"Duration":317469,"SoundDuration":317469,"Delta":21320801},{"NoteNumber":80,"Velocity":56,"Duration":324333,"SoundDuration":324333,"Delta":21638271},{"NoteNumber":63,"Velocity":28,"Duration":324333,"SoundDuration":324333,"Delta":21638271},{"NoteNumber":78,"Velocity":51,"Duration":332750,"SoundDuration":332750,"Delta":21962604},{"NoteNumber":54,"Velocity":25,"Duration":332750,"SoundDuration":332750,"Delta":21962604},{"NoteNumber":77,"Velocity":57,"Duration":1252665,"SoundDuration":1252665,"Delta":22295355},{"NoteNumber":48,"Velocity":30,"Duration":329112,"SoundDuration":329112,"Delta":22295355},{"NoteNumber":66,"Velocity":26,"Duration":317492,"SoundDuration":317492,"Delta":22624467},{"NoteNumber":57,"Velocity":25,"Duration":303030,"SoundDuration":303030,"Delta":22941960},{"NoteNumber":66,"Velocity":24,"Duration":303030,"SoundDuration":303030,"Delta":23244990},{"NoteNumber":75,"Velocity":58,"Duration":909090,"SoundDuration":909090,"Delta":23548021},{"NoteNumber":63,"Velocity":23,"Duration":303030,"SoundDuration":303030,"Delta":23548021},{"NoteNumber":54,"Velocity":23,"Duration":303030,"SoundDuration":303030,"Delta":23851051},{"NoteNumber":46,"Velocity":31,"Duration":303030,"SoundDuration":303030,"Delta":24154081},{"NoteNumber":77,"Velocity":52,"Duration":75757,"SoundDuration":75757,"Delta":24457111},{"NoteNumber":66,"Velocity":27,"Duration":303030,"SoundDuration":303030,"Delta":24457111},{"NoteNumber":75,"Velocity":52,"Duration":75757,"SoundDuration":75757,"Delta":24532869},{"NoteNumber":74,"Velocity":52,"Duration":75757,"SoundDuration":75757,"Delta":24608626},{"NoteNumber":75,"Velocity":52,"Duration":75757,"SoundDuration":75757,"Delta":24684384},{"NoteNumber":77,"Velocity":61,"Duration":630915,"SoundDuration":630915,"Delta":24760142},{"NoteNumber":58,"Velocity":28,"Duration":315457,"SoundDuration":315457,"Delta":24760142},{"NoteNumber":66,"Velocity":30,"Duration":315457,"SoundDuration":315457,"Delta":25075599},{"NoteNumber":78,"Velocity":69,"Duration":491431,"SoundDuration":491431,"Delta":25391057},{"NoteNumber":63,"Velocity":31,"Duration":320962,"SoundDuration":320962,"Delta":25391057},{"NoteNumber":54,"Velocity":34,"Duration":347673,"SoundDuration":347673,"Delta":25712019},{"NoteNumber":78,"Velocity":57,"Duration":177204,"SoundDuration":177204,"Delta":25882489},{"NoteNumber":90,"Velocity":79,"Duration":1228045,"SoundDuration":1228045,"Delta":26059693},{"NoteNumber":45,"Velocity":38,"Duration":309661,"SoundDuration":309661,"Delta":26059693},{"NoteNumber":66,"Velocity":28,"Duration":309661,"SoundDuration":309661,"Delta":26369354},{"NoteNumber":57,"Velocity":27,"Duration":309661,"SoundDuration":309661,"Delta":26679016},{"NoteNumber":66,"Velocity":25,"Duration":299061,"SoundDuration":299061,"Delta":26988677},{"NoteNumber":87,"Velocity":56,"Duration":144230,"SoundDuration":144230,"Delta":27143508},{"NoteNumber":85,"Velocity":55,"Duration":144230,"SoundDuration":144230,"Delta":27287739},{"NoteNumber":61,"Velocity":24,"Duration":288461,"SoundDuration":288461,"Delta":27287739},{"NoteNumber":81,"Velocity":54,"Duration":144230,"SoundDuration":144230,"Delta":27431969},{"NoteNumber":78,"Velocity":52,"Duration":144230,"SoundDuration":144230,"Delta":27576200},{"NoteNumber":51,"Velocity":23,"Duration":288461,"SoundDuration":288461,"Delta":27576200},{"NoteNumber":75,"Velocity":49,"Duration":144230,"SoundDuration":144230,"Delta":27720431},{"NoteNumber":72,"Velocity":53,"Duration":151515,"SoundDuration":151515,"Delta":27864662},{"NoteNumber":44,"Velocity":30,"Duration":303030,"SoundDuration":303030,"Delta":27864662},{"NoteNumber":73,"Velocity":54,"Duration":157728,"SoundDuration":157728,"Delta":28167692},{"NoteNumber":66,"Velocity":24,"Duration":315457,"SoundDuration":315457,"Delta":28167692},{"NoteNumber":74,"Velocity":55,"Duration":157728,"SoundDuration":157728,"Delta":28483149},{"NoteNumber":56,"Velocity":26,"Duration":315457,"SoundDuration":315457,"Delta":28483149},{"NoteNumber":75,"Velocity":56,"Duration":157728,"SoundDuration":157728,"Delta":28798607},{"NoteNumber":66,"Velocity":28,"Duration":315457,"SoundDuration":315457,"Delta":28798607},{"NoteNumber":77,"Velocity":57,"Duration":156764,"SoundDuration":156764,"Delta":29114064},{"NoteNumber":60,"Velocity":29,"Duration":316500,"SoundDuration":316500,"Delta":29114064},{"NoteNumber":78,"Velocity":58,"Duration":163378,"SoundDuration":163378,"Delta":29430565},{"NoteNumber":51,"Velocity":30,"Duration":330600,"SoundDuration":330600,"Delta":29430565},{"NoteNumber":79,"Velocity":69,"Duration":1402544,"SoundDuration":1402544,"Delta":29761166},{"NoteNumber":37,"Velocity":38,"Duration":309661,"SoundDuration":309661,"Delta":29761166},{"NoteNumber":64,"Velocity":29,"Duration":154830,"SoundDuration":154830,"Delta":30070827},{"NoteNumber":55,"Velocity":28,"Duration":309661,"SoundDuration":309661,"Delta":30380489},{"NoteNumber":64,"Velocity":28,"Duration":154830,"SoundDuration":154830,"Delta":30690150},{"NoteNumber":58,"Velocity":28,"Duration":327797,"SoundDuration":327797,"Delta":30999812},{"NoteNumber":80,"Velocity":54,"Duration":163898,"SoundDuration":163898,"Delta":31163711},{"NoteNumber":82,"Velocity":59,"Duration":163898,"SoundDuration":163898,"Delta":31327609},{"NoteNumber":53,"Velocity":27,"Duration":327797,"SoundDuration":327797,"Delta":31327609},{"NoteNumber":80,"Velocity":50,"Duration":163898,"SoundDuration":163898,"Delta":31491508},{"NoteNumber":77,"Velocity":56,"Duration":2553643,"SoundDuration":2553643,"Delta":31655406},{"NoteNumber":37,"Velocity":28,"Duration":327797,"SoundDuration":327797,"Delta":31655406},{"NoteNumber":65,"Velocity":23,"Duration":315457,"SoundDuration":315457,"Delta":31983204},{"NoteNumber":56,"Velocity":23,"Duration":315457,"SoundDuration":315457,"Delta":32298661},{"NoteNumber":65,"Velocity":23,"Duration":315457,"SoundDuration":315457,"Delta":32614119},{"NoteNumber":61,"Velocity":24,"Duration":316500,"SoundDuration":316500,"Delta":32929576},{"NoteNumber":53,"Velocity":25,"Duration":324675,"SoundDuration":324675,"Delta":33246077},{"NoteNumber":73,"Velocity":53,"Duration":638297,"SoundDuration":638297,"Delta":33570752},{"NoteNumber":46,"Velocity":38,"Duration":319149,"SoundDuration":319149,"Delta":33570752},{"NoteNumber":65,"Velocity":28,"Duration":319148,"SoundDuration":319148,"Delta":33889901},{"NoteNumber":75,"Velocity":55,"Duration":882520,"SoundDuration":882520,"Delta":34209050},{"NoteNumber":78,"Velocity":65,"Duration":882520,"SoundDuration":882520,"Delta":34209050},{"NoteNumber":58,"Velocity":28,"Duration":297029,"SoundDuration":297029,"Delta":34209050},{"NoteNumber":65,"Velocity":27,"Duration":297029,"SoundDuration":297029,"Delta":34506080},{"NoteNumber":61,"Velocity":26,"Duration":288461,"SoundDuration":288461,"Delta":34803110},{"NoteNumber":70,"Velocity":51,"Duration":319149,"SoundDuration":319149,"Delta":35091571},{"NoteNumber":73,"Velocity":60,"Duration":319149,"SoundDuration":319149,"Delta":35091571},{"NoteNumber":53,"Velocity":26,"Duration":319149,"SoundDuration":319149,"Delta":35091571},{"NoteNumber":72,"Velocity":55,"Duration":588235,"SoundDuration":588235,"Delta":35410720},{"NoteNumber":75,"Velocity":65,"Duration":588235,"SoundDuration":588235,"Delta":35410720},{"NoteNumber":46,"Velocity":33,"Duration":294117,"SoundDuration":294117,"Delta":35410720},{"NoteNumber":65,"Velocity":28,"Duration":294117,"SoundDuration":294117,"Delta":35704838},{"NoteNumber":73,"Velocity":53,"Duration":606060,"SoundDuration":606060,"Delta":35998956},{"NoteNumber":77,"Velocity":62,"Duration":606060,"SoundDuration":606060,"Delta":35998956},{"NoteNumber":57,"Velocity":28,"Duration":303030,"SoundDuration":303030,"Delta":35998956},{"NoteNumber":65,"Velocity":28,"Duration":303030,"SoundDuration":303030,"Delta":36301986},{"NoteNumber":69,"Velocity":52,"Duration":641175,"SoundDuration":641175,"Delta":36605016},{"NoteNumber":72,"Velocity":61,"Duration":641175,"SoundDuration":641175,"Delta":36605016},{"NoteNumber":63,"Velocity":28,"Duration":316500,"SoundDuration":316500,"Delta":36605016},{"NoteNumber":53,"Velocity":27,"Duration":324675,"SoundDuration":324675,"Delta":36921517},{"NoteNumber":72,"Velocity":55,"Duration":619323,"SoundDuration":619323,"Delta":37246192},{"NoteNumber":75,"Velocity":65,"Duration":619323,"SoundDuration":619323,"Delta":37246192},{"NoteNumber":46,"Velocity":38,"Duration":309661,"SoundDuration":309661,"Delta":37246192},{"NoteNumber":65,"Velocity":28,"Duration":309661,"SoundDuration":309661,"Delta":37555854},{"NoteNumber":70,"Velocity":50,"Duration":297029,"SoundDuration":297029,"Delta":37865515},{"NoteNumber":73,"Velocity":59,"Duration":297029,"SoundDuration":297029,"Delta":37865515},{"NoteNumber":58,"Velocity":28,"Duration":297029,"SoundDuration":297029,"Delta":37865515},{"NoteNumber":65,"Velocity":27,"Duration":313349,"SoundDuration":313349,"Delta":38162545},{"NoteNumber":82,"Velocity":64,"Duration":164835,"SoundDuration":164835,"Delta":38311060},{"NoteNumber":73,"Velocity":54,"Duration":164835,"SoundDuration":164835,"Delta":38311060},{"NoteNumber":73,"Velocity":56,"Duration":197068,"SoundDuration":197068,"Delta":38475895},{"NoteNumber":82,"Velocity":66,"Duration":197068,"SoundDuration":197068,"Delta":38475895},{"NoteNumber":61,"Velocity":26,"Duration":298593,"SoundDuration":298593,"Delta":38475895},{"NoteNumber":72,"Velocity":55,"Duration":205703,"SoundDuration":205703,"Delta":38672963},{"NoteNumber":80,"Velocity":65,"Duration":205703,"SoundDuration":205703,"Delta":38672963},{"NoteNumber":53,"Velocity":26,"Duration":314704,"SoundDuration":314704,"Delta":38774489},{"NoteNumber":70,"Velocity":54,"Duration":210526,"SoundDuration":210526,"Delta":38878667},{"NoteNumber":78,"Velocity":64,"Duration":210526,"SoundDuration":210526,"Delta":38878667},{"NoteNumber":70,"Velocity":53,"Duration":615789,"SoundDuration":615789,"Delta":39089193},{"NoteNumber":77,"Velocity":63,"Duration":1221849,"SoundDuration":1221849,"Delta":39089193},{"NoteNumber":41,"Velocity":33,"Duration":315789,"SoundDuration":315789,"Delta":39089193},{"NoteNumber":65,"Velocity":28,"Duration":299999,"SoundDuration":299999,"Delta":39404983},{"NoteNumber":69,"Velocity":52,"Duration":202020,"SoundDuration":202020,"Delta":39704983},{"NoteNumber":60,"Velocity":28,"Duration":303030,"SoundDuration":303030,"Delta":39704983},{"NoteNumber":70,"Velocity":54,"Duration":202020,"SoundDuration":202020,"Delta":39907003},{"NoteNumber":65,"Velocity":26,"Duration":303030,"SoundDuration":303030,"Delta":40008013},{"NoteNumber":71,"Velocity":56,"Duration":202020,"SoundDuration":202020,"Delta":40109023},{"NoteNumber":77,"Velocity":58,"Duration":104188,"SoundDuration":104188,"Delta":40311043},{"NoteNumber":72,"Velocity":49,"Duration":104188,"SoundDuration":104188,"Delta":40311043},{"NoteNumber":63,"Velocity":28,"Duration":316500,"SoundDuration":316500,"Delta":40311043},{"NoteNumber":77,"Velocity":60,"Duration":106657,"SoundDuration":106657,"Delta":40520886},{"NoteNumber":73,"Velocity":51,"Duration":106657,"SoundDuration":106657,"Delta":40520886},{"NoteNumber":57,"Velocity":30,"Duration":324675,"SoundDuration":324675,"Delta":40627544},{"NoteNumber":77,"Velocity":62,"Duration":108225,"SoundDuration":108225,"Delta":40735769},{"NoteNumber":75,"Velocity":52,"Duration":108225,"SoundDuration":108225,"Delta":40735769},{"NoteNumber":73,"Velocity":53,"Duration":638297,"SoundDuration":638297,"Delta":40952219},{"NoteNumber":77,"Velocity":63,"Duration":638297,"SoundDuration":638297,"Delta":40952219},{"NoteNumber":46,"Velocity":38,"Duration":319149,"SoundDuration":319149,"Delta":40952219},{"NoteNumber":65,"Velocity":28,"Duration":319148,"SoundDuration":319148,"Delta":41271368},{"NoteNumber":75,"Velocity":55,"Duration":882520,"SoundDuration":882520,"Delta":41590517},{"NoteNumber":78,"Velocity":65,"Duration":882520,"SoundDuration":882520,"Delta":41590517},{"NoteNumber":58,"Velocity":28,"Duration":297029,"SoundDuration":297029,"Delta":41590517},{"NoteNumber":65,"Velocity":27,"Duration":297029,"SoundDuration":297029,"Delta":41887547},{"NoteNumber":61,"Velocity":26,"Duration":288461,"SoundDuration":288461,"Delta":42184576},{"NoteNumber":70,"Velocity":51,"Duration":319149,"SoundDuration":319149,"Delta":42473038},{"NoteNumber":73,"Velocity":60,"Duration":319149,"SoundDuration":319149,"Delta":42473038},{"NoteNumber":53,"Velocity":26,"Duration":319149,"SoundDuration":319149,"Delta":42473038},{"NoteNumber":70,"Velocity":49,"Duration":110294,"SoundDuration":110294,"Delta":42792187},{"NoteNumber":73,"Velocity":58,"Duration":110294,"SoundDuration":110294,"Delta":42792187},{"NoteNumber":46,"Velocity":33,"Duration":294117,"SoundDuration":294117,"Delta":42792187},{"NoteNumber":73,"Velocity":55,"Duration":330882,"SoundDuration":330882,"Delta":42902481},{"NoteNumber":77,"Velocity":65,"Duration":330882,"SoundDuration":330882,"Delta":42902481},{"NoteNumber":65,"Velocity":28,"Duration":294117,"SoundDuration":294117,"Delta":43086305},{"NoteNumber":72,"Velocity":58,"Duration":349079,"SoundDuration":349079,"Delta":43233364},{"NoteNumber":75,"Velocity":58,"Duration":73529,"SoundDuration":73529,"Delta":43233364},{"NoteNumber":77,"Velocity":53,"Duration":73529,"SoundDuration":73529,"Delta":43306893},{"NoteNumber":75,"Velocity":62,"Duration":202020,"SoundDuration":202020,"Delta":43380422},{"NoteNumber":57,"Velocity":28,"Duration":303030,"SoundDuration":303030,"Delta":43380422},{"NoteNumber":70,"Velocity":47,"Duration":202020,"SoundDuration":202020,"Delta":43582443},{"NoteNumber":73,"Velocity":55,"Duration":202020,"SoundDuration":202020,"Delta":43582443},{"NoteNumber":65,"Velocity":28,"Duration":303030,"SoundDuration":303030,"Delta":43683453},{"NoteNumber":72,"Velocity":47,"Duration":202020,"SoundDuration":202020,"Delta":43784463},{"NoteNumber":75,"Velocity":55,"Duration":202020,"SoundDuration":202020,"Delta":43784463},{"NoteNumber":73,"Velocity":52,"Duration":156764,"SoundDuration":156764,"Delta":43986483},{"NoteNumber":77,"Velocity":61,"Duration":156764,"SoundDuration":156764,"Delta":43986483},{"NoteNumber":63,"Velocity":28,"Duration":316500,"SoundDuration":316500,"Delta":43986483},{"NoteNumber":53,"Velocity":27,"Duration":324675,"SoundDuration":324675,"Delta":44302984},{"NoteNumber":69,"Velocity":52,"Duration":162337,"SoundDuration":162337,"Delta":44465321},{"NoteNumber":72,"Velocity":61,"Duration":162337,"SoundDuration":162337,"Delta":44465321},{"NoteNumber":72,"Velocity":55,"Duration":619323,"SoundDuration":619323,"Delta":44627659},{"NoteNumber":75,"Velocity":65,"Duration":619323,"SoundDuration":619323,"Delta":44627659},{"NoteNumber":46,"Velocity":38,"Duration":309661,"SoundDuration":309661,"Delta":44627659},{"NoteNumber":65,"Velocity":28,"Duration":309661,"SoundDuration":309661,"Delta":44937320},{"NoteNumber":70,"Velocity":50,"Duration":297029,"SoundDuration":297029,"Delta":45246982},{"NoteNumber":73,"Velocity":59,"Duration":297029,"SoundDuration":297029,"Delta":45246982},{"NoteNumber":58,"Velocity":28,"Duration":297029,"SoundDuration":297029,"Delta":45246982},{"NoteNumber":65,"Velocity":27,"Duration":297029,"SoundDuration":297029,"Delta":45544012},{"NoteNumber":73,"Velocity":47,"Duration":582743,"SoundDuration":582743,"Delta":45841041},{"NoteNumber":82,"Velocity":66,"Duration":868458,"SoundDuration":868458,"Delta":45841041},{"NoteNumber":61,"Velocity":26,"Duration":297029,"SoundDuration":297029,"Delta":45841041},{"NoteNumber":53,"Velocity":26,"Duration":285714,"SoundDuration":285714,"Delta":46138071},{"NoteNumber":74,"Velocity":66,"Duration":285714,"SoundDuration":285714,"Delta":46423785},{"NoteNumber":46,"Velocity":34,"Duration":285714,"SoundDuration":285714,"Delta":46423785},{"NoteNumber":80,"Velocity":53,"Duration":288461,"SoundDuration":288461,"Delta":46709500},{"NoteNumber":83,"Velocity":62,"Duration":288461,"SoundDuration":288461,"Delta":46709500},{"NoteNumber":68,"Velocity":28,"Duration":288461,"SoundDuration":288461,"Delta":46709500},{"NoteNumber":73,"Velocity":53,"Duration":202020,"SoundDuration":202020,"Delta":46997961},{"NoteNumber":82,"Velocity":62,"Duration":202020,"SoundDuration":202020,"Delta":46997961},{"NoteNumber":58,"Velocity":26,"Duration":303030,"SoundDuration":303030,"Delta":46997961},{"NoteNumber":80,"Velocity":54,"Duration":202020,"SoundDuration":202020,"Delta":47199981},{"NoteNumber":81,"Velocity":58,"Duration":202020,"SoundDuration":202020,"Delta":47199981},{"NoteNumber":68,"Velocity":28,"Duration":303030,"SoundDuration":303030,"Delta":47300991},{"NoteNumber":73,"Velocity":57,"Duration":202020,"SoundDuration":202020,"Delta":47402002},{"NoteNumber":82,"Velocity":67,"Duration":202020,"SoundDuration":202020,"Delta":47402002},{"NoteNumber":89,"Velocity":70,"Duration":156764,"SoundDuration":156764,"Delta":47604022},{"NoteNumber":80,"Velocity":58,"Duration":156764,"SoundDuration":156764,"Delta":47604022},{"NoteNumber":62,"Velocity":30,"Duration":316500,"SoundDuration":316500,"Delta":47604022},{"NoteNumber":53,"Velocity":32,"Duration":324675,"SoundDuration":324675,"Delta":47920522},{"NoteNumber":80,"Velocity":57,"Duration":215529,"SoundDuration":215529,"Delta":48082860},{"NoteNumber":82,"Velocity":67,"Duration":162337,"SoundDuration":162337,"Delta":48082860},{"NoteNumber":82,"Velocity":68,"Duration":638297,"SoundDuration":638297,"Delta":48245198},{"NoteNumber":78,"Velocity":57,"Duration":638297,"SoundDuration":638297,"Delta":48245198},{"NoteNumber":39,"Velocity":38,"Duration":319149,"SoundDuration":319149,"Delta":48245198},{"NoteNumber":66,"Velocity":31,"Duration":319148,"SoundDuration":319148,"Delta":48564347},{"NoteNumber":80,"Velocity":56,"Duration":594059,"SoundDuration":594059,"Delta":48883496},{"NoteNumber":83,"Velocity":66,"Duration":594059,"SoundDuration":594059,"Delta":48883496},{"NoteNumber":58,"Velocity":29,"Duration":297029,"SoundDuration":297029,"Delta":48883496},{"NoteNumber":66,"Velocity":29,"Duration":297029,"SoundDuration":297029,"Delta":49180525},{"NoteNumber":75,"Velocity":54,"Duration":607610,"SoundDuration":607610,"Delta":49477555},{"NoteNumber":78,"Velocity":64,"Duration":607610,"SoundDuration":607610,"Delta":49477555},{"NoteNumber":63,"Velocity":29,"Duration":288461,"SoundDuration":288461,"Delta":49477555},{"NoteNumber":54,"Velocity":29,"Duration":319149,"SoundDuration":319149,"Delta":49766017},{"NoteNumber":78,"Velocity":54,"Duration":196078,"SoundDuration":196078,"Delta":50085166},{"NoteNumber":82,"Velocity":64,"Duration":196078,"SoundDuration":196078,"Delta":50085166},{"NoteNumber":51,"Velocity":39,"Duration":294117,"SoundDuration":294117,"Delta":50085166},{"NoteNumber":77,"Velocity":52,"Duration":196078,"SoundDuration":196078,"Delta":50281244},{"NoteNumber":80,"Velocity":61,"Duration":196078,"SoundDuration":196078,"Delta":50281244},{"NoteNumber":68,"Velocity":30,"Duration":294117,"SoundDuration":294117,"Delta":50379283},{"NoteNumber":78,"Velocity":52,"Duration":196078,"SoundDuration":196078,"Delta":50477323},{"NoteNumber":82,"Velocity":61,"Duration":196078,"SoundDuration":196078,"Delta":50477323},{"NoteNumber":77,"Velocity":55,"Duration":202020,"SoundDuration":202020,"Delta":50673401},{"NoteNumber":80,"Velocity":65,"Duration":202020,"SoundDuration":202020,"Delta":50673401},{"NoteNumber":58,"Velocity":30,"Duration":303030,"SoundDuration":303030,"Delta":50673401},{"NoteNumber":75,"Velocity":52,"Duration":202020,"SoundDuration":202020,"Delta":50875421},{"NoteNumber":78,"Velocity":61,"Duration":202020,"SoundDuration":202020,"Delta":50875421},{"NoteNumber":68,"Velocity":30,"Duration":303030,"SoundDuration":303030,"Delta":50976431},{"NoteNumber":77,"Velocity":52,"Duration":202020,"SoundDuration":202020,"Delta":51077442},{"NoteNumber":80,"Velocity":61,"Duration":202020,"SoundDuration":202020,"Delta":51077442},{"NoteNumber":78,"Velocity":55,"Duration":156764,"SoundDuration":156764,"Delta":51279462},{"NoteNumber":82,"Velocity":65,"Duration":156764,"SoundDuration":156764,"Delta":51279462},{"NoteNumber":62,"Velocity":30,"Duration":316500,"SoundDuration":316500,"Delta":51279462},{"NoteNumber":53,"Velocity":30,"Duration":324675,"SoundDuration":324675,"Delta":51595962},{"NoteNumber":77,"Velocity":60,"Duration":162337,"SoundDuration":162337,"Delta":51758300},{"NoteNumber":74,"Velocity":51,"Duration":162337,"SoundDuration":162337,"Delta":51758300},{"NoteNumber":77,"Velocity":56,"Duration":619323,"SoundDuration":619323,"Delta":51920638},{"NoteNumber":80,"Velocity":66,"Duration":619323,"SoundDuration":619323,"Delta":51920638},{"NoteNumber":51,"Velocity":39,"Duration":309661,"SoundDuration":309661,"Delta":51920638},{"NoteNumber":66,"Velocity":31,"Duration":309661,"SoundDuration":309661,"Delta":52230299},{"NoteNumber":75,"Velocity":51,"Duration":297029,"SoundDuration":297029,"Delta":52539961},{"NoteNumber":78,"Velocity":60,"Duration":297029,"SoundDuration":297029,"Delta":52539961},{"NoteNumber":58,"Velocity":31,"Duration":297029,"SoundDuration":297029,"Delta":52539961},{"NoteNumber":66,"Velocity":31,"Duration":315181,"SoundDuration":315181,"Delta":52836990},{"NoteNumber":87,"Velocity":63,"Duration":166666,"SoundDuration":166666,"Delta":52985505},{"NoteNumber":78,"Velocity":53,"Duration":166666,"SoundDuration":166666,"Delta":52985505},{"NoteNumber":78,"Velocity":57,"Duration":199545,"SoundDuration":199545,"Delta":53152172},{"NoteNumber":87,"Velocity":68,"Duration":199545,"SoundDuration":199545,"Delta":53152172},{"NoteNumber":63,"Velocity":29,"Duration":303174,"SoundDuration":303174,"Delta":53152172},{"NoteNumber":77,"Velocity":57,"Duration":210012,"SoundDuration":210012,"Delta":53351717},{"NoteNumber":85,"Velocity":67,"Duration":210012,"SoundDuration":210012,"Delta":53351717},{"NoteNumber":54,"Velocity":29,"Duration":319149,"SoundDuration":319149,"Delta":53455347},{"NoteNumber":75,"Velocity":55,"Duration":212766,"SoundDuration":212766,"Delta":53561730},{"NoteNumber":83,"Velocity":65,"Duration":212766,"SoundDuration":212766,"Delta":53561730},{"NoteNumber":74,"Velocity":50,"Duration":212765,"SoundDuration":212765,"Delta":53774496},{"NoteNumber":82,"Velocity":59,"Duration":212765,"SoundDuration":212765,"Delta":53774496},{"NoteNumber":46,"Velocity":40,"Duration":319148,"SoundDuration":319148,"Delta":53774496},{"NoteNumber":70,"Velocity":50,"Duration":106383,"SoundDuration":106383,"Delta":53987262},{"NoteNumber":82,"Velocity":59,"Duration":106383,"SoundDuration":106383,"Delta":53987262},{"NoteNumber":68,"Velocity":30,"Duration":299999,"SoundDuration":299999,"Delta":54093645},{"NoteNumber":71,"Velocity":50,"Duration":100000,"SoundDuration":100000,"Delta":54193645},{"NoteNumber":82,"Velocity":59,"Duration":100000,"SoundDuration":100000,"Delta":54193645},{"NoteNumber":72,"Velocity":51,"Duration":100000,"SoundDuration":100000,"Delta":54393645},{"NoteNumber":82,"Velocity":60,"Duration":100000,"SoundDuration":100000,"Delta":54393645},{"NoteNumber":58,"Velocity":32,"Duration":300000,"SoundDuration":300000,"Delta":54393645},{"NoteNumber":73,"Velocity":52,"Duration":100000,"SoundDuration":100000,"Delta":54593645},{"NoteNumber":82,"Velocity":61,"Duration":100000,"SoundDuration":100000,"Delta":54593645},{"NoteNumber":68,"Velocity":34,"Duration":301020,"SoundDuration":301020,"Delta":54693645},{"NoteNumber":74,"Velocity":53,"Duration":99999,"SoundDuration":99999,"Delta":54793645},{"NoteNumber":82,"Velocity":62,"Duration":99999,"SoundDuration":99999,"Delta":54793645},{"NoteNumber":82,"Velocity":64,"Duration":103629,"SoundDuration":103629,"Delta":54994665},{"NoteNumber":75,"Velocity":54,"Duration":103629,"SoundDuration":103629,"Delta":54994665},{"NoteNumber":62,"Velocity":35,"Duration":317564,"SoundDuration":317564,"Delta":54994665},{"NoteNumber":82,"Velocity":65,"Duration":108111,"SoundDuration":108111,"Delta":55204118},{"NoteNumber":76,"Velocity":55,"Duration":108111,"SoundDuration":108111,"Delta":55204118},{"NoteNumber":53,"Velocity":37,"Duration":339109,"SoundDuration":339109,"Delta":55312229},{"NoteNumber":82,"Velocity":66,"Duration":112997,"SoundDuration":112997,"Delta":55422730},{"NoteNumber":77,"Velocity":56,"Duration":112997,"SoundDuration":112997,"Delta":55422730},{"NoteNumber":78,"Velocity":45,"Duration":255319,"SoundDuration":255319,"Delta":55651339},{"NoteNumber":82,"Velocity":54,"Duration":255319,"SoundDuration":255319,"Delta":55651339},{"NoteNumber":39,"Velocity":38,"Duration":319149,"SoundDuration":319149,"Delta":55651339},{"NoteNumber":80,"Velocity":47,"Duration":255319,"SoundDuration":255319,"Delta":55906658},{"NoteNumber":83,"Velocity":57,"Duration":255319,"SoundDuration":255319,"Delta":55906658},{"NoteNumber":66,"Velocity":28,"Duration":319148,"SoundDuration":319148,"Delta":55970488},{"NoteNumber":82,"Velocity":60,"Duration":246471,"SoundDuration":246471,"Delta":56161977},{"NoteNumber":78,"Velocity":50,"Duration":246471,"SoundDuration":246471,"Delta":56161977},{"NoteNumber":58,"Velocity":28,"Duration":297029,"SoundDuration":297029,"Delta":56289637},{"NoteNumber":77,"Velocity":53,"Duration":237623,"SoundDuration":237623,"Delta":56408448},{"NoteNumber":80,"Velocity":63,"Duration":237623,"SoundDuration":237623,"Delta":56408448},{"NoteNumber":66,"Velocity":27,"Duration":297029,"SoundDuration":297029,"Delta":56586666},{"NoteNumber":78,"Velocity":54,"Duration":237623,"SoundDuration":237623,"Delta":56646072},{"NoteNumber":82,"Velocity":65,"Duration":237623,"SoundDuration":237623,"Delta":56646072},{"NoteNumber":80,"Velocity":58,"Duration":144230,"SoundDuration":144230,"Delta":56883696},{"NoteNumber":83,"Velocity":69,"Duration":144230,"SoundDuration":144230,"Delta":56883696},{"NoteNumber":63,"Velocity":26,"Duration":288461,"SoundDuration":288461,"Delta":56883696},{"NoteNumber":54,"Velocity":26,"Duration":319149,"SoundDuration":319149,"Delta":57172158},{"NoteNumber":78,"Velocity":66,"Duration":132978,"SoundDuration":132978,"Delta":57331732},{"NoteNumber":75,"Velocity":56,"Duration":132978,"SoundDuration":132978,"Delta":57331732},{"NoteNumber":75,"Velocity":53,"Duration":154639,"SoundDuration":154639,"Delta":57491307},{"NoteNumber":78,"Velocity":63,"Duration":154639,"SoundDuration":154639,"Delta":57491307},{"NoteNumber":51,"Velocity":33,"Duration":309278,"SoundDuration":309278,"Delta":57491307},{"NoteNumber":78,"Velocity":59,"Duration":154639,"SoundDuration":154639,"Delta":57645946},{"NoteNumber":82,"Velocity":70,"Duration":154639,"SoundDuration":154639,"Delta":57645946},{"NoteNumber":68,"Velocity":28,"Duration":309278,"SoundDuration":309278,"Delta":57800585},{"NoteNumber":80,"Velocity":64,"Duration":154639,"SoundDuration":154639,"Delta":57955224},{"NoteNumber":77,"Velocity":54,"Duration":154639,"SoundDuration":154639,"Delta":57955224},{"NoteNumber":77,"Velocity":62,"Duration":60240,"SoundDuration":60240,"Delta":58109863},{"NoteNumber":80,"Velocity":62,"Duration":60240,"SoundDuration":60240,"Delta":58109863},{"NoteNumber":58,"Velocity":28,"Duration":341973,"SoundDuration":341973,"Delta":58109863},{"NoteNumber":82,"Velocity":55,"Duration":60240,"SoundDuration":60240,"Delta":58170104},{"NoteNumber":78,"Velocity":55,"Duration":60240,"SoundDuration":60240,"Delta":58170104},{"NoteNumber":80,"Velocity":61,"Duration":120481,"SoundDuration":120481,"Delta":58230345},{"NoteNumber":77,"Velocity":61,"Duration":120481,"SoundDuration":120481,"Delta":58230345},{"NoteNumber":75,"Velocity":53,"Duration":202020,"SoundDuration":202020,"Delta":58350827},{"NoteNumber":78,"Velocity":63,"Duration":202020,"SoundDuration":202020,"Delta":58350827},{"NoteNumber":68,"Velocity":28,"Duration":303030,"SoundDuration":303030,"Delta":58451837},{"NoteNumber":77,"Velocity":54,"Duration":75757,"SoundDuration":75757,"Delta":58653857},{"NoteNumber":80,"Velocity":64,"Duration":75757,"SoundDuration":75757,"Delta":58653857},{"NoteNumber":77,"Velocity":55,"Duration":209843,"SoundDuration":209843,"Delta":58754867},{"NoteNumber":80,"Velocity":65,"Duration":209843,"SoundDuration":209843,"Delta":58754867},{"NoteNumber":62,"Velocity":28,"Duration":316500,"SoundDuration":316500,"Delta":58754867},{"NoteNumber":78,"Velocity":57,"Duration":106657,"SoundDuration":106657,"Delta":58964710},{"NoteNumber":82,"Velocity":67,"Duration":106657,"SoundDuration":106657,"Delta":58964710},{"NoteNumber":53,"Velocity":27,"Duration":324675,"SoundDuration":324675,"Delta":59071368},{"NoteNumber":74,"Velocity":55,"Duration":81168,"SoundDuration":81168,"Delta":59287818},{"NoteNumber":77,"Velocity":65,"Duration":81168,"SoundDuration":81168,"Delta":59287818},{"NoteNumber":74,"Velocity":59,"Duration":166666,"SoundDuration":166666,"Delta":59396043},{"NoteNumber":77,"Velocity":59,"Duration":166666,"SoundDuration":166666,"Delta":59396043},{"NoteNumber":51,"Velocity":44,"Duration":321305,"SoundDuration":321305,"Delta":59396043},{"NoteNumber":77,"Velocity":53,"Duration":309278,"SoundDuration":309278,"Delta":59562710},{"NoteNumber":80,"Velocity":62,"Duration":309278,"SoundDuration":309278,"Delta":59562710},{"NoteNumber":66,"Velocity":34,"Duration":309278,"SoundDuration":309278,"Delta":59717349},{"NoteNumber":58,"Velocity":34,"Duration":297029,"SoundDuration":297029,"Delta":60026627},{"NoteNumber":66,"Velocity":34,"Duration":297029,"SoundDuration":297029,"Delta":60323657},{"NoteNumber":75,"Velocity":61,"Duration":1236348,"SoundDuration":1236348,"Delta":60620687},{"NoteNumber":78,"Velocity":73,"Duration":1236348,"SoundDuration":1236348,"Delta":60620687},{"NoteNumber":63,"Velocity":34,"Duration":297029,"SoundDuration":297029,"Delta":60620687},{"NoteNumber":54,"Velocity":34,"Duration":319149,"SoundDuration":319149,"Delta":60917716},{"NoteNumber":45,"Velocity":64,"Duration":1813654,"SoundDuration":1813654,"Delta":61236865},{"NoteNumber":61,"Velocity":40,"Duration":301020,"SoundDuration":301020,"Delta":61556014},{"NoteNumber":74,"Velocity":61,"Duration":295166,"SoundDuration":295166,"Delta":61857035},{"NoteNumber":78,"Velocity":73,"Duration":295166,"SoundDuration":295166,"Delta":61857035},{"NoteNumber":51,"Velocity":42,"Duration":295166,"SoundDuration":295166,"Delta":61857035},{"NoteNumber":61,"Velocity":44,"Duration":294117,"SoundDuration":294117,"Delta":62152202},{"NoteNumber":78,"Velocity":76,"Duration":293222,"SoundDuration":293222,"Delta":62446319},{"NoteNumber":73,"Velocity":64,"Duration":293222,"SoundDuration":293222,"Delta":62446319},{"NoteNumber":54,"Velocity":46,"Duration":293222,"SoundDuration":293222,"Delta":62446319},{"NoteNumber":45,"Velocity":48,"Duration":310978,"SoundDuration":310978,"Delta":62739541},{"NoteNumber":72,"Velocity":64,"Duration":909849,"SoundDuration":909849,"Delta":63050520},{"NoteNumber":78,"Velocity":78,"Duration":909849,"SoundDuration":909849,"Delta":63050520},{"NoteNumber":44,"Velocity":54,"Duration":315789,"SoundDuration":315789,"Delta":63050520},{"NoteNumber":60,"Velocity":47,"Duration":297029,"SoundDuration":297029,"Delta":63366309},{"NoteNumber":51,"Velocity":47,"Duration":297029,"SoundDuration":297029,"Delta":63663339},{"NoteNumber":69,"Velocity":62,"Duration":329670,"SoundDuration":329670,"Delta":63960369},{"NoteNumber":81,"Velocity":74,"Duration":329670,"SoundDuration":329670,"Delta":63960369},{"NoteNumber":60,"Velocity":47,"Duration":329670,"SoundDuration":329670,"Delta":63960369},{"NoteNumber":68,"Velocity":64,"Duration":1234156,"SoundDuration":1234156,"Delta":64290039},{"NoteNumber":80,"Velocity":76,"Duration":1234156,"SoundDuration":1234156,"Delta":64290039},{"NoteNumber":54,"Velocity":46,"Duration":306122,"SoundDuration":306122,"Delta":64290039},{"NoteNumber":51,"Velocity":46,"Duration":306122,"SoundDuration":306122,"Delta":64596161},{"NoteNumber":45,"Velocity":67,"Duration":1943968,"SoundDuration":1943968,"Delta":64902284},{"NoteNumber":57,"Velocity":51,"Duration":315789,"SoundDuration":315789,"Delta":65208406},{"NoteNumber":66,"Velocity":60,"Duration":641354,"SoundDuration":641354,"Delta":65524196},{"NoteNumber":78,"Velocity":72,"Duration":641354,"SoundDuration":641354,"Delta":65524196},{"NoteNumber":51,"Velocity":51,"Duration":315789,"SoundDuration":315789,"Delta":65524196},{"NoteNumber":57,"Velocity":51,"Duration":325565,"SoundDuration":325565,"Delta":65839985},{"NoteNumber":61,"Velocity":58,"Duration":680702,"SoundDuration":680702,"Delta":66165551},{"NoteNumber":73,"Velocity":70,"Duration":680702,"SoundDuration":680702,"Delta":66165551},{"NoteNumber":54,"Velocity":51,"Duration":335844,"SoundDuration":335844,"Delta":66165551},{"NoteNumber":51,"Velocity":51,"Duration":344857,"SoundDuration":344857,"Delta":66501395},{"NoteNumber":60,"Velocity":56,"Duration":1219374,"SoundDuration":1219374,"Delta":66846253},{"NoteNumber":72,"Velocity":66,"Duration":1219374,"SoundDuration":1219374,"Delta":66846253},{"NoteNumber":44,"Velocity":44,"Duration":308812,"SoundDuration":308812,"Delta":66846253},{"NoteNumber":56,"Velocity":32,"Duration":303520,"SoundDuration":303520,"Delta":67155065},{"NoteNumber":51,"Velocity":30,"Duration":303520,"SoundDuration":303520,"Delta":67458586},{"NoteNumber":56,"Velocity":28,"Duration":303520,"SoundDuration":303520,"Delta":67762107},{"NoteNumber":68,"Velocity":52,"Duration":627494,"SoundDuration":627494,"Delta":68065628},{"NoteNumber":54,"Velocity":27,"Duration":303520,"SoundDuration":303520,"Delta":68065628},{"NoteNumber":51,"Velocity":25,"Duration":323974,"SoundDuration":323974,"Delta":68369148},{"NoteNumber":69,"Velocity":57,"Duration":202347,"SoundDuration":202347,"Delta":68693122},{"NoteNumber":49,"Velocity":31,"Duration":303520,"SoundDuration":303520,"Delta":68693122},{"NoteNumber":71,"Velocity":50,"Duration":202347,"SoundDuration":202347,"Delta":68895469},{"NoteNumber":64,"Velocity":27,"Duration":303520,"SoundDuration":303520,"Delta":68996643},{"NoteNumber":69,"Velocity":52,"Duration":202347,"SoundDuration":202347,"Delta":69097817},{"NoteNumber":68,"Velocity":51,"Duration":297265,"SoundDuration":297265,"Delta":69300164},{"NoteNumber":54,"Velocity":27,"Duration":297265,"SoundDuration":297265,"Delta":69300164},{"NoteNumber":69,"Velocity":51,"Duration":315071,"SoundDuration":315071,"Delta":69597429},{"NoteNumber":64,"Velocity":27,"Duration":315071,"SoundDuration":315071,"Delta":69597429},{"NoteNumber":76,"Velocity":57,"Duration":486370,"SoundDuration":486370,"Delta":69912500},{"NoteNumber":57,"Velocity":27,"Duration":318720,"SoundDuration":318720,"Delta":69912500},{"NoteNumber":49,"Velocity":28,"Duration":339275,"SoundDuration":339275,"Delta":70231220},{"NoteNumber":75,"Velocity":53,"Duration":171624,"SoundDuration":171624,"Delta":70398870},{"NoteNumber":75,"Velocity":57,"Duration":622680,"SoundDuration":622680,"Delta":70570495},{"NoteNumber":48,"Velocity":44,"Duration":331418,"SoundDuration":331418,"Delta":70570495},{"NoteNumber":63,"Velocity":30,"Duration":291262,"SoundDuration":291262,"Delta":70901914},{"NoteNumber":54,"Velocity":32,"Duration":303520,"SoundDuration":303520,"Delta":71193176},{"NoteNumber":69,"Velocity":61,"Duration":320299,"SoundDuration":320299,"Delta":71496697},{"NoteNumber":81,"Velocity":73,"Duration":320299,"SoundDuration":320299,"Delta":71496697},{"NoteNumber":63,"Velocity":39,"Duration":320299,"SoundDuration":320299,"Delta":71496697},{"NoteNumber":68,"Velocity":58,"Duration":1231015,"SoundDuration":1231015,"Delta":71816996},{"NoteNumber":80,"Velocity":70,"Duration":1231015,"SoundDuration":1231015,"Delta":71816996},{"NoteNumber":56,"Velocity":42,"Duration":299999,"SoundDuration":299999,"Delta":71816996},{"NoteNumber":54,"Velocity":43,"Duration":323974,"SoundDuration":323974,"Delta":72116996},{"NoteNumber":45,"Velocity":49,"Duration":303520,"SoundDuration":303520,"Delta":72440970},{"NoteNumber":61,"Velocity":40,"Duration":303520,"SoundDuration":303520,"Delta":72744491},{"NoteNumber":68,"Velocity":55,"Duration":160188,"SoundDuration":160188,"Delta":73048012},{"NoteNumber":80,"Velocity":65,"Duration":160188,"SoundDuration":160188,"Delta":73048012},{"NoteNumber":51,"Velocity":38,"Duration":320375,"SoundDuration":320375,"Delta":73048012},{"NoteNumber":66,"Velocity":54,"Duration":160187,"SoundDuration":160187,"Delta":73208200},{"NoteNumber":78,"Velocity":64,"Duration":160187,"SoundDuration":160187,"Delta":73208200},{"NoteNumber":68,"Velocity":53,"Duration":160188,"SoundDuration":160188,"Delta":73368388},{"NoteNumber":80,"Velocity":63,"Duration":160188,"SoundDuration":160188,"Delta":73368388},{"NoteNumber":61,"Velocity":35,"Duration":320376,"SoundDuration":320376,"Delta":73368388},{"NoteNumber":66,"Velocity":53,"Duration":160188,"SoundDuration":160188,"Delta":73528576},{"NoteNumber":78,"Velocity":62,"Duration":160188,"SoundDuration":160188,"Delta":73528576},{"NoteNumber":64,"Velocity":53,"Duration":155631,"SoundDuration":155631,"Delta":73688764},{"NoteNumber":76,"Velocity":62,"Duration":155631,"SoundDuration":155631,"Delta":73688764},{"NoteNumber":54,"Velocity":35,"Duration":314880,"SoundDuration":314880,"Delta":73688764},{"NoteNumber":63,"Velocity":52,"Duration":159249,"SoundDuration":159249,"Delta":73844395},{"NoteNumber":75,"Velocity":61,"Duration":159249,"SoundDuration":159249,"Delta":73844395},{"NoteNumber":64,"Velocity":51,"Duration":161872,"SoundDuration":161872,"Delta":74003645},{"NoteNumber":76,"Velocity":60,"Duration":161872,"SoundDuration":161872,"Delta":74003645},{"NoteNumber":51,"Velocity":33,"Duration":326577,"SoundDuration":326577,"Delta":74003645},{"NoteNumber":63,"Velocity":50,"Duration":164705,"SoundDuration":164705,"Delta":74165517},{"NoteNumber":75,"Velocity":59,"Duration":164705,"SoundDuration":164705,"Delta":74165517},{"NoteNumber":60,"Velocity":56,"Duration":308812,"SoundDuration":308812,"Delta":74330223},{"NoteNumber":72,"Velocity":66,"Duration":308812,"SoundDuration":308812,"Delta":74330223},{"NoteNumber":44,"Velocity":44,"Duration":308812,"SoundDuration":308812,"Delta":74330223},{"NoteNumber":56,"Velocity":32,"Duration":303520,"SoundDuration":303520,"Delta":74639035},{"NoteNumber":51,"Velocity":30,"Duration":303520,"SoundDuration":303520,"Delta":74942556},{"NoteNumber":56,"Velocity":28,"Duration":303520,"SoundDuration":303520,"Delta":75246076},{"NoteNumber":54,"Velocity":23,"Duration":303520,"SoundDuration":303520,"Delta":75549597},{"NoteNumber":68,"Velocity":46,"Duration":323974,"SoundDuration":323974,"Delta":75853118},{"NoteNumber":44,"Velocity":22,"Duration":323974,"SoundDuration":323974,"Delta":75853118},{"NoteNumber":69,"Velocity":51,"Duration":202347,"SoundDuration":202347,"Delta":76177092},{"NoteNumber":49,"Velocity":28,"Duration":303520,"SoundDuration":303520,"Delta":76177092},{"NoteNumber":71,"Velocity":45,"Duration":202347,"SoundDuration":202347,"Delta":76379439},{"NoteNumber":64,"Velocity":23,"Duration":303520,"SoundDuration":303520,"Delta":76480613},{"NoteNumber":69,"Velocity":46,"Duration":202347,"SoundDuration":202347,"Delta":76581786},{"NoteNumber":68,"Velocity":45,"Duration":297265,"SoundDuration":297265,"Delta":76784133},{"NoteNumber":54,"Velocity":23,"Duration":297265,"SoundDuration":297265,"Delta":76784133},{"NoteNumber":69,"Velocity":45,"Duration":153084,"SoundDuration":153084,"Delta":77081399},{"NoteNumber":64,"Velocity":23,"Duration":315071,"SoundDuration":315071,"Delta":77081399},{"NoteNumber":69,"Velocity":46,"Duration":161986,"SoundDuration":161986,"Delta":77234483},{"NoteNumber":76,"Velocity":52,"Duration":318720,"SoundDuration":318720,"Delta":77396470},{"NoteNumber":57,"Velocity":23,"Duration":318720,"SoundDuration":318720,"Delta":77396470},{"NoteNumber":49,"Velocity":24,"Duration":339275,"SoundDuration":339275,"Delta":77715190},{"NoteNumber":75,"Velocity":49,"Duration":171624,"SoundDuration":171624,"Delta":77882840},{"NoteNumber":75,"Velocity":54,"Duration":622680,"SoundDuration":622680,"Delta":78054465},{"NoteNumber":48,"Velocity":31,"Duration":331418,"SoundDuration":331418,"Delta":78054465},{"NoteNumber":63,"Velocity":24,"Duration":291262,"SoundDuration":291262,"Delta":78385883},{"NoteNumber":54,"Velocity":24,"Duration":303520,"SoundDuration":303520,"Delta":78677146},{"NoteNumber":63,"Velocity":24,"Duration":320299,"SoundDuration":320299,"Delta":78980666},{"NoteNumber":57,"Velocity":24,"Duration":299999,"SoundDuration":299999,"Delta":79300966},{"NoteNumber":54,"Velocity":24,"Duration":323974,"SoundDuration":323974,"Delta":79600966},{"NoteNumber":75,"Velocity":51,"Duration":3726016,"SoundDuration":3726016,"Delta":79924940},{"NoteNumber":47,"Velocity":28,"Duration":303520,"SoundDuration":303520,"Delta":79924940},{"NoteNumber":63,"Velocity":24,"Duration":303520,"SoundDuration":303520,"Delta":80228461},{"NoteNumber":54,"Velocity":24,"Duration":303520,"SoundDuration":303520,"Delta":80531982},{"NoteNumber":63,"Velocity":24,"Duration":303520,"SoundDuration":303520,"Delta":80835502},{"NoteNumber":57,"Velocity":24,"Duration":314880,"SoundDuration":314880,"Delta":81139023},{"NoteNumber":54,"Velocity":24,"Duration":326577,"SoundDuration":326577,"Delta":81453904},{"NoteNumber":47,"Velocity":31,"Duration":331418,"SoundDuration":331418,"Delta":81780482},{"NoteNumber":63,"Velocity":24,"Duration":291262,"SoundDuration":291262,"Delta":82111900},{"NoteNumber":53,"Velocity":24,"Duration":303520,"SoundDuration":303520,"Delta":82403163},{"NoteNumber":63,"Velocity":24,"Duration":320299,"SoundDuration":320299,"Delta":82706683},{"NoteNumber":56,"Velocity":24,"Duration":299999,"SoundDuration":299999,"Delta":83026983},{"NoteNumber":53,"Velocity":24,"Duration":627494,"SoundDuration":627494,"Delta":83326983},{"NoteNumber":74,"Velocity":51,"Duration":1848576,"SoundDuration":1848576,"Delta":83650957},{"NoteNumber":47,"Velocity":28,"Duration":303520,"SoundDuration":303520,"Delta":83650957},{"NoteNumber":62,"Velocity":24,"Duration":303520,"SoundDuration":303520,"Delta":83954478},{"NoteNumber":52,"Velocity":24,"Duration":608862,"SoundDuration":608862,"Delta":84257999},{"NoteNumber":62,"Velocity":24,"Duration":303555,"SoundDuration":303555,"Delta":84563305},{"NoteNumber":56,"Velocity":24,"Duration":311437,"SoundDuration":311437,"Delta":84866861},{"NoteNumber":52,"Velocity":24,"Duration":321235,"SoundDuration":321235,"Delta":85178299},{"NoteNumber":73,"Velocity":54,"Duration":1246501,"SoundDuration":1246501,"Delta":85499534},{"NoteNumber":45,"Velocity":31,"Duration":331418,"SoundDuration":331418,"Delta":85499534},{"NoteNumber":61,"Velocity":24,"Duration":291262,"SoundDuration":291262,"Delta":85830952},{"NoteNumber":52,"Velocity":24,"Duration":303520,"SoundDuration":303520,"Delta":86122215},{"NoteNumber":61,"Velocity":24,"Duration":320299,"SoundDuration":320299,"Delta":86425735},{"NoteNumber":57,"Velocity":24,"Duration":299999,"SoundDuration":299999,"Delta":86746035},{"NoteNumber":52,"Velocity":24,"Duration":323974,"SoundDuration":323974,"Delta":87046035},{"NoteNumber":73,"Velocity":51,"Duration":2478222,"SoundDuration":2478222,"Delta":87370009},{"NoteNumber":45,"Velocity":28,"Duration":303520,"SoundDuration":303520,"Delta":87370009},{"NoteNumber":61,"Velocity":24,"Duration":303520,"SoundDuration":303520,"Delta":87673530},{"NoteNumber":51,"Velocity":24,"Duration":303520,"SoundDuration":303520,"Delta":87977051},{"NoteNumber":61,"Velocity":24,"Duration":303520,"SoundDuration":303520,"Delta":88280571},{"NoteNumber":54,"Velocity":24,"Duration":314880,"SoundDuration":314880,"Delta":88584092},{"NoteNumber":51,"Velocity":24,"Duration":326577,"SoundDuration":326577,"Delta":88898973},{"NoteNumber":44,"Velocity":31,"Duration":331418,"SoundDuration":331418,"Delta":89225551},{"NoteNumber":60,"Velocity":24,"Duration":291262,"SoundDuration":291262,"Delta":89556969},{"NoteNumber":72,"Velocity":49,"Duration":607041,"SoundDuration":607041,"Delta":89848232},{"NoteNumber":51,"Velocity":24,"Duration":303520,"SoundDuration":303520,"Delta":89848232},{"NoteNumber":60,"Velocity":24,"Duration":303520,"SoundDuration":303520,"Delta":90151752},{"NoteNumber":70,"Velocity":48,"Duration":946554,"SoundDuration":946554,"Delta":90455273},{"NoteNumber":54,"Velocity":24,"Duration":299999,"SoundDuration":299999,"Delta":90455273},{"NoteNumber":49,"Velocity":24,"Duration":323974,"SoundDuration":323974,"Delta":90755273},{"NoteNumber":44,"Velocity":28,"Duration":322580,"SoundDuration":322580,"Delta":91079247},{"NoteNumber":68,"Velocity":42,"Duration":322580,"SoundDuration":322580,"Delta":91401828},{"NoteNumber":56,"Velocity":24,"Duration":322580,"SoundDuration":322580,"Delta":91401828},{"NoteNumber":70,"Velocity":44,"Duration":324563,"SoundDuration":324563,"Delta":91724409},{"NoteNumber":48,"Velocity":24,"Duration":324563,"SoundDuration":324563,"Delta":91724409},{"NoteNumber":72,"Velocity":45,"Duration":335233,"SoundDuration":335233,"Delta":92048972},{"NoteNumber":56,"Velocity":24,"Duration":335233,"SoundDuration":335233,"Delta":92048972},{"NoteNumber":73,"Velocity":47,"Duration":346863,"SoundDuration":346863,"Delta":92384206},{"NoteNumber":54,"Velocity":24,"Duration":346863,"SoundDuration":346863,"Delta":92384206},{"NoteNumber":75,"Velocity":48,"Duration":359328,"SoundDuration":359328,"Delta":92731069},{"NoteNumber":51,"Velocity":24,"Duration":359328,"SoundDuration":359328,"Delta":92731069},{"NoteNumber":77,"Velocity":49,"Duration":1836679,"SoundDuration":1836679,"Delta":93090398},{"NoteNumber":37,"Velocity":27,"Duration":332153,"SoundDuration":332153,"Delta":93090398},{"NoteNumber":65,"Velocity":22,"Duration":316407,"SoundDuration":316407,"Delta":93422551},{"NoteNumber":56,"Velocity":22,"Duration":297029,"SoundDuration":297029,"Delta":93738959},{"NoteNumber":65,"Velocity":22,"Duration":297029,"SoundDuration":297029,"Delta":94035989},{"NoteNumber":61,"Velocity":22,"Duration":297029,"SoundDuration":297029,"Delta":94333018},{"NoteNumber":53,"Velocity":22,"Duration":297029,"SoundDuration":297029,"Delta":94630048},{"NoteNumber":75,"Velocity":49,"Duration":618556,"SoundDuration":618556,"Delta":94927078},{"NoteNumber":49,"Velocity":27,"Duration":309278,"SoundDuration":309278,"Delta":94927078},{"NoteNumber":65,"Velocity":22,"Duration":309278,"SoundDuration":309278,"Delta":95236356},{"NoteNumber":73,"Velocity":49,"Duration":944297,"SoundDuration":944297,"Delta":95545634},{"NoteNumber":56,"Velocity":22,"Duration":309278,"SoundDuration":309278,"Delta":95545634},{"NoteNumber":65,"Velocity":22,"Duration":319148,"SoundDuration":319148,"Delta":95854913},{"NoteNumber":61,"Velocity":22,"Duration":315869,"SoundDuration":315869,"Delta":96174062},{"NoteNumber":65,"Velocity":45,"Duration":364216,"SoundDuration":364216,"Delta":96489931},{"NoteNumber":53,"Velocity":22,"Duration":364216,"SoundDuration":364216,"Delta":96489931},{"NoteNumber":68,"Velocity":49,"Duration":2462914,"SoundDuration":2462914,"Delta":96854148},{"NoteNumber":49,"Velocity":27,"Duration":350549,"SoundDuration":350549,"Delta":96854148},{"NoteNumber":65,"Velocity":24,"Duration":312008,"SoundDuration":312008,"Delta":97204697},{"NoteNumber":56,"Velocity":24,"Duration":294117,"SoundDuration":294117,"Delta":97516706},{"NoteNumber":65,"Velocity":23,"Duration":294117,"SoundDuration":294117,"Delta":97810823},{"NoteNumber":61,"Velocity":23,"Duration":303030,"SoundDuration":303030,"Delta":98104941},{"NoteNumber":53,"Velocity":23,"Duration":303030,"SoundDuration":303030,"Delta":98407971},{"NoteNumber":49,"Velocity":28,"Duration":303030,"SoundDuration":303030,"Delta":98711002},{"NoteNumber":65,"Velocity":23,"Duration":303030,"SoundDuration":303030,"Delta":99014032},{"NoteNumber":73,"Velocity":52,"Duration":631030,"SoundDuration":631030,"Delta":99317062},{"NoteNumber":56,"Velocity":23,"Duration":315789,"SoundDuration":315789,"Delta":99317062},{"NoteNumber":65,"Velocity":24,"Duration":315241,"SoundDuration":315241,"Delta":99632852},{"NoteNumber":77,"Velocity":54,"Duration":660072,"SoundDuration":660072,"Delta":99948093},{"NoteNumber":61,"Velocity":25,"Duration":320962,"SoundDuration":320962,"Delta":99948093},{"NoteNumber":53,"Velocity":27,"Duration":339109,"SoundDuration":339109,"Delta":100269056},{"NoteNumber":82,"Velocity":61,"Duration":2116720,"SoundDuration":2116720,"Delta":100608165},{"NoteNumber":49,"Velocity":30,"Duration":309661,"SoundDuration":309661,"Delta":100608165},{"NoteNumber":65,"Velocity":26,"Duration":309661,"SoundDuration":309661,"Delta":100917826},{"NoteNumber":56,"Velocity":25,"Duration":297029,"SoundDuration":297029,"Delta":101227488},{"NoteNumber":65,"Velocity":24,"Duration":297029,"SoundDuration":297029,"Delta":101524518},{"NoteNumber":61,"Velocity":24,"Duration":297029,"SoundDuration":297029,"Delta":101821547},{"NoteNumber":53,"Velocity":23,"Duration":297029,"SoundDuration":297029,"Delta":102118577},{"NoteNumber":49,"Velocity":27,"Duration":309278,"SoundDuration":309278,"Delta":102415607},{"NoteNumber":80,"Velocity":45,"Duration":322580,"SoundDuration":322580,"Delta":102724885},{"NoteNumber":65,"Velocity":22,"Duration":322580,"SoundDuration":322580,"Delta":102724885},{"NoteNumber":76,"Velocity":50,"Duration":324333,"SoundDuration":324333,"Delta":103047466},{"NoteNumber":56,"Velocity":22,"Duration":324333,"SoundDuration":324333,"Delta":103047466},{"NoteNumber":77,"Velocity":45,"Duration":331501,"SoundDuration":331501,"Delta":103371800},{"NoteNumber":65,"Velocity":22,"Duration":331501,"SoundDuration":331501,"Delta":103371800},{"NoteNumber":72,"Velocity":49,"Duration":341635,"SoundDuration":341635,"Delta":103703302},{"NoteNumber":61,"Velocity":22,"Duration":341635,"SoundDuration":341635,"Delta":103703302},{"NoteNumber":73,"Velocity":45,"Duration":367853,"SoundDuration":367853,"Delta":104044937},{"NoteNumber":53,"Velocity":22,"Duration":367853,"SoundDuration":367853,"Delta":104044937},{"NoteNumber":69,"Velocity":56,"Duration":3786070,"SoundDuration":3786070,"Delta":104412791},{"NoteNumber":37,"Velocity":28,"Duration":679000,"SoundDuration":679000,"Delta":104412791},{"NoteNumber":66,"Velocity":22,"Duration":327983,"SoundDuration":327983,"Delta":104763808},{"NoteNumber":57,"Velocity":22,"Duration":312500,"SoundDuration":312500,"Delta":105091791},{"NoteNumber":66,"Velocity":22,"Duration":312500,"SoundDuration":312500,"Delta":105404291},{"NoteNumber":61,"Velocity":22,"Duration":315789,"SoundDuration":315789,"Delta":105716791},{"NoteNumber":54,"Velocity":22,"Duration":315789,"SoundDuration":315789,"Delta":106032580},{"NoteNumber":49,"Velocity":27,"Duration":306122,"SoundDuration":306122,"Delta":106348370},{"NoteNumber":66,"Velocity":22,"Duration":306122,"SoundDuration":306122,"Delta":106654492},{"NoteNumber":57,"Velocity":22,"Duration":306122,"SoundDuration":306122,"Delta":106960615},{"NoteNumber":66,"Velocity":22,"Duration":306122,"SoundDuration":306122,"Delta":107266737},{"NoteNumber":62,"Velocity":26,"Duration":306143,"SoundDuration":306143,"Delta":107572860},{"NoteNumber":54,"Velocity":22,"Duration":319856,"SoundDuration":319856,"Delta":107879004},{"NoteNumber":70,"Velocity":52,"Duration":1863197,"SoundDuration":1863197,"Delta":108198861},{"NoteNumber":49,"Velocity":28,"Duration":638707,"SoundDuration":638707,"Delta":108198861},{"NoteNumber":66,"Velocity":22,"Duration":312556,"SoundDuration":312556,"Delta":108525012},{"NoteNumber":58,"Velocity":22,"Duration":306122,"SoundDuration":306122,"Delta":108837568},{"NoteNumber":66,"Velocity":22,"Duration":306122,"SoundDuration":306122,"Delta":109143691},{"NoteNumber":63,"Velocity":22,"Duration":306122,"SoundDuration":306122,"Delta":109449813},{"NoteNumber":54,"Velocity":22,"Duration":306122,"SoundDuration":306122,"Delta":109755936},{"NoteNumber":49,"Velocity":27,"Duration":337078,"SoundDuration":337078,"Delta":110062058},{"NoteNumber":84,"Velocity":50,"Duration":315972,"SoundDuration":315972,"Delta":110399137},{"NoteNumber":66,"Velocity":22,"Duration":315972,"SoundDuration":315972,"Delta":110399137},{"NoteNumber":82,"Velocity":52,"Duration":314144,"SoundDuration":314144,"Delta":110715109},{"NoteNumber":58,"Velocity":22,"Duration":314144,"SoundDuration":314144,"Delta":110715109},{"NoteNumber":77,"Velocity":46,"Duration":320864,"SoundDuration":320864,"Delta":111029254},{"NoteNumber":66,"Velocity":22,"Duration":320864,"SoundDuration":320864,"Delta":111029254},{"NoteNumber":80,"Velocity":50,"Duration":327878,"SoundDuration":327878,"Delta":111350119},{"NoteNumber":63,"Velocity":24,"Duration":327878,"SoundDuration":327878,"Delta":111350119},{"NoteNumber":78,"Velocity":45,"Duration":335844,"SoundDuration":335844,"Delta":111677998},{"NoteNumber":54,"Velocity":22,"Duration":335844,"SoundDuration":335844,"Delta":111677998},{"NoteNumber":77,"Velocity":51,"Duration":1252665,"SoundDuration":1252665,"Delta":112013842},{"NoteNumber":48,"Velocity":27,"Duration":329112,"SoundDuration":329112,"Delta":112013842},{"NoteNumber":66,"Velocity":22,"Duration":317492,"SoundDuration":317492,"Delta":112342954},{"NoteNumber":57,"Velocity":22,"Duration":303030,"SoundDuration":303030,"Delta":112660447},{"NoteNumber":66,"Velocity":22,"Duration":303030,"SoundDuration":303030,"Delta":112963478},{"NoteNumber":75,"Velocity":52,"Duration":1073390,"SoundDuration":1073390,"Delta":113266508},{"NoteNumber":63,"Velocity":21,"Duration":303030,"SoundDuration":303030,"Delta":113266508},{"NoteNumber":54,"Velocity":21,"Duration":303030,"SoundDuration":303030,"Delta":113569538},{"NoteNumber":46,"Velocity":28,"Duration":307743,"SoundDuration":307743,"Delta":113872568},{"NoteNumber":74,"Velocity":57,"Duration":322630,"SoundDuration":322630,"Delta":114180312},{"NoteNumber":66,"Velocity":23,"Duration":322630,"SoundDuration":322630,"Delta":114180312},{"NoteNumber":75,"Velocity":57,"Duration":329670,"SoundDuration":329670,"Delta":114502942},{"NoteNumber":58,"Velocity":25,"Duration":329670,"SoundDuration":329670,"Delta":114502942},{"NoteNumber":76,"Velocity":57,"Duration":329670,"SoundDuration":329670,"Delta":114832612},{"NoteNumber":66,"Velocity":27,"Duration":329670,"SoundDuration":329670,"Delta":114832612},{"NoteNumber":77,"Velocity":62,"Duration":502317,"SoundDuration":502317,"Delta":115162282},{"NoteNumber":63,"Velocity":28,"Duration":329888,"SoundDuration":329888,"Delta":115162282},{"NoteNumber":54,"Velocity":30,"Duration":365452,"SoundDuration":365452,"Delta":115492171},{"NoteNumber":78,"Velocity":51,"Duration":87209,"SoundDuration":87209,"Delta":115664600},{"NoteNumber":78,"Velocity":51,"Duration":105813,"SoundDuration":105813,"Delta":115751809},{"NoteNumber":90,"Velocity":71,"Duration":825764,"SoundDuration":825764,"Delta":115857623},{"NoteNumber":45,"Velocity":34,"Duration":309661,"SoundDuration":309661,"Delta":115857623},{"NoteNumber":66,"Velocity":24,"Duration":309661,"SoundDuration":309661,"Delta":116167285},{"NoteNumber":57,"Velocity":23,"Duration":309661,"SoundDuration":309661,"Delta":116476946},{"NoteNumber":87,"Velocity":65,"Duration":206440,"SoundDuration":206440,"Delta":116683387},{"NoteNumber":66,"Velocity":22,"Duration":299061,"SoundDuration":299061,"Delta":116786608},{"NoteNumber":85,"Velocity":62,"Duration":195841,"SoundDuration":195841,"Delta":116889828},{"NoteNumber":81,"Velocity":60,"Duration":192307,"SoundDuration":192307,"Delta":117085669},{"NoteNumber":61,"Velocity":22,"Duration":288461,"SoundDuration":288461,"Delta":117085669},{"NoteNumber":78,"Velocity":58,"Duration":192307,"SoundDuration":192307,"Delta":117277977},{"NoteNumber":51,"Velocity":21,"Duration":288461,"SoundDuration":288461,"Delta":117374131},{"NoteNumber":75,"Velocity":55,"Duration":192307,"SoundDuration":192307,"Delta":117470285},{"NoteNumber":72,"Velocity":47,"Duration":303030,"SoundDuration":303030,"Delta":117662592},{"NoteNumber":44,"Velocity":27,"Duration":303030,"SoundDuration":303030,"Delta":117662592},{"NoteNumber":66,"Velocity":22,"Duration":315457,"SoundDuration":315457,"Delta":117965622},{"NoteNumber":68,"Velocity":49,"Duration":157728,"SoundDuration":157728,"Delta":118123351},{"NoteNumber":75,"Velocity":50,"Duration":107526,"SoundDuration":107526,"Delta":118281080},{"NoteNumber":56,"Velocity":22,"Duration":322580,"SoundDuration":322580,"Delta":118281080},{"NoteNumber":84,"Velocity":50,"Duration":107526,"SoundDuration":107526,"Delta":118388607},{"NoteNumber":69,"Velocity":48,"Duration":107526,"SoundDuration":107526,"Delta":118496134},{"NoteNumber":76,"Velocity":52,"Duration":107526,"SoundDuration":107526,"Delta":118603661},{"NoteNumber":66,"Velocity":24,"Duration":322580,"SoundDuration":322580,"Delta":118603661},{"NoteNumber":85,"Velocity":53,"Duration":107526,"SoundDuration":107526,"Delta":118711188},{"NoteNumber":70,"Velocity":50,"Duration":107526,"SoundDuration":107526,"Delta":118818715},{"NoteNumber":77,"Velocity":54,"Duration":107526,"SoundDuration":107526,"Delta":118926241},{"NoteNumber":60,"Velocity":26,"Duration":328290,"SoundDuration":328290,"Delta":118926241},{"NoteNumber":86,"Velocity":55,"Duration":108111,"SoundDuration":108111,"Delta":119033768},{"NoteNumber":71,"Velocity":53,"Duration":112651,"SoundDuration":112651,"Delta":119141880},{"NoteNumber":78,"Velocity":56,"Duration":119788,"SoundDuration":119788,"Delta":119254532},{"NoteNumber":51,"Velocity":27,"Duration":383517,"SoundDuration":383517,"Delta":119254532},{"NoteNumber":87,"Velocity":57,"Duration":128593,"SoundDuration":128593,"Delta":119374320},{"NoteNumber":72,"Velocity":54,"Duration":135135,"SoundDuration":135135,"Delta":119502914},{"NoteNumber":88,"Velocity":64,"Duration":917573,"SoundDuration":917573,"Delta":119638049},{"NoteNumber":79,"Velocity":54,"Duration":917573,"SoundDuration":917573,"Delta":119638049},{"NoteNumber":37,"Velocity":28,"Duration":322580,"SoundDuration":322580,"Delta":119638049},{"NoteNumber":68,"Velocity":24,"Duration":285714,"SoundDuration":285714,"Delta":119960630},{"NoteNumber":56,"Velocity":24,"Duration":309278,"SoundDuration":309278,"Delta":120246344},{"NoteNumber":89,"Velocity":58,"Duration":309278,"SoundDuration":309278,"Delta":120555622},{"NoteNumber":80,"Velocity":49,"Duration":309278,"SoundDuration":309278,"Delta":120555622},{"NoteNumber":68,"Velocity":24,"Duration":309278,"SoundDuration":309278,"Delta":120555622},{"NoteNumber":89,"Velocity":57,"Duration":206185,"SoundDuration":206185,"Delta":120864900},{"NoteNumber":80,"Velocity":48,"Duration":206185,"SoundDuration":206185,"Delta":120864900},{"NoteNumber":61,"Velocity":24,"Duration":309278,"SoundDuration":309278,"Delta":120864900},{"NoteNumber":90,"Velocity":61,"Duration":103092,"SoundDuration":103092,"Delta":121071086},{"NoteNumber":82,"Velocity":51,"Duration":103092,"SoundDuration":103092,"Delta":121071086},{"NoteNumber":53,"Velocity":24,"Duration":319474,"SoundDuration":319474,"Delta":121174179},{"NoteNumber":80,"Velocity":45,"Duration":109890,"SoundDuration":109890,"Delta":121383763},{"NoteNumber":89,"Velocity":54,"Duration":109890,"SoundDuration":109890,"Delta":121383763},{"NoteNumber":89,"Velocity":58,"Duration":164835,"SoundDuration":164835,"Delta":121493653},{"NoteNumber":80,"Velocity":49,"Duration":164835,"SoundDuration":164835,"Delta":121493653},{"NoteNumber":49,"Velocity":28,"Duration":329670,"SoundDuration":329670,"Delta":121493653},{"NoteNumber":85,"Velocity":54,"Duration":1710675,"SoundDuration":1710675,"Delta":121658488},{"NoteNumber":77,"Velocity":45,"Duration":1710675,"SoundDuration":1710675,"Delta":121658488},{"NoteNumber":65,"Velocity":24,"Duration":318064,"SoundDuration":318064,"Delta":121823323},{"NoteNumber":56,"Velocity":24,"Duration":305123,"SoundDuration":305123,"Delta":122141388},{"NoteNumber":65,"Velocity":25,"Duration":297029,"SoundDuration":297029,"Delta":122446511},{"NoteNumber":61,"Velocity":25,"Duration":304660,"SoundDuration":304660,"Delta":122743541},{"NoteNumber":56,"Velocity":25,"Duration":320962,"SoundDuration":320962,"Delta":123048201},{"NoteNumber":85,"Velocity":60,"Duration":622300,"SoundDuration":622300,"Delta":123369164},{"NoteNumber":76,"Velocity":51,"Duration":622300,"SoundDuration":622300,"Delta":123369164},{"NoteNumber":49,"Velocity":29,"Duration":322754,"SoundDuration":322754,"Delta":123369164},{"NoteNumber":64,"Velocity":27,"Duration":299545,"SoundDuration":299545,"Delta":123691919},{"NoteNumber":86,"Velocity":57,"Duration":594059,"SoundDuration":594059,"Delta":123991464},{"NoteNumber":78,"Velocity":48,"Duration":594059,"SoundDuration":594059,"Delta":123991464},{"NoteNumber":52,"Velocity":26,"Duration":297029,"SoundDuration":297029,"Delta":123991464},{"NoteNumber":64,"Velocity":26,"Duration":297029,"SoundDuration":297029,"Delta":124288494},{"NoteNumber":81,"Velocity":54,"Duration":594059,"SoundDuration":594059,"Delta":124585523},{"NoteNumber":73,"Velocity":45,"Duration":594059,"SoundDuration":594059,"Delta":124585523},{"NoteNumber":57,"Velocity":26,"Duration":297029,"SoundDuration":297029,"Delta":124585523},{"NoteNumber":52,"Velocity":26,"Duration":297029,"SoundDuration":297029,"Delta":124882553},{"NoteNumber":85,"Velocity":61,"Duration":299999,"SoundDuration":299999,"Delta":125179583},{"NoteNumber":76,"Velocity":61,"Duration":299999,"SoundDuration":299999,"Delta":125179583},{"NoteNumber":50,"Velocity":23,"Duration":299999,"SoundDuration":299999,"Delta":125179583},{"NoteNumber":74,"Velocity":43,"Duration":71428,"SoundDuration":71428,"Delta":125479583},{"NoteNumber":83,"Velocity":51,"Duration":71428,"SoundDuration":71428,"Delta":125479583},{"NoteNumber":64,"Velocity":24,"Duration":285714,"SoundDuration":285714,"Delta":125479583},{"NoteNumber":76,"Velocity":51,"Duration":71428,"SoundDuration":71428,"Delta":125551012},{"NoteNumber":85,"Velocity":51,"Duration":71428,"SoundDuration":71428,"Delta":125551012},{"NoteNumber":74,"Velocity":45,"Duration":142857,"SoundDuration":142857,"Delta":125622440},{"NoteNumber":83,"Velocity":54,"Duration":142857,"SoundDuration":142857,"Delta":125622440},{"NoteNumber":82,"Velocity":54,"Duration":285714,"SoundDuration":285714,"Delta":125765297},{"NoteNumber":73,"Velocity":45,"Duration":285714,"SoundDuration":285714,"Delta":125765297},{"NoteNumber":52,"Velocity":25,"Duration":285714,"SoundDuration":285714,"Delta":125765297},{"NoteNumber":74,"Velocity":48,"Duration":285714,"SoundDuration":285714,"Delta":126051011},{"NoteNumber":83,"Velocity":57,"Duration":285714,"SoundDuration":285714,"Delta":126051011},{"NoteNumber":64,"Velocity":26,"Duration":285714,"SoundDuration":285714,"Delta":126051011},{"NoteNumber":85,"Velocity":60,"Duration":145640,"SoundDuration":145640,"Delta":126336726},{"NoteNumber":76,"Velocity":51,"Duration":145640,"SoundDuration":145640,"Delta":126336726},{"NoteNumber":56,"Velocity":27,"Duration":295650,"SoundDuration":295650,"Delta":126336726},{"NoteNumber":52,"Velocity":28,"Duration":317224,"SoundDuration":317224,"Delta":126632376},{"NoteNumber":71,"Velocity":45,"Duration":162574,"SoundDuration":162574,"Delta":126787026},{"NoteNumber":80,"Velocity":54,"Duration":162574,"SoundDuration":162574,"Delta":126787026},{"NoteNumber":74,"Velocity":54,"Duration":317777,"SoundDuration":317777,"Delta":126949601},{"NoteNumber":83,"Velocity":64,"Duration":317777,"SoundDuration":317777,"Delta":126949601},{"NoteNumber":49,"Velocity":31,"Duration":317777,"SoundDuration":317777,"Delta":126949601},{"NoteNumber":64,"Velocity":29,"Duration":297029,"SoundDuration":297029,"Delta":127267379},{"NoteNumber":52,"Velocity":29,"Duration":297029,"SoundDuration":297029,"Delta":127564409},{"NoteNumber":81,"Velocity":61,"Duration":308089,"SoundDuration":308089,"Delta":127861438},{"NoteNumber":73,"Velocity":51,"Duration":308089,"SoundDuration":308089,"Delta":127861438},{"NoteNumber":64,"Velocity":29,"Duration":308089,"SoundDuration":308089,"Delta":127861438},{"NoteNumber":73,"Velocity":51,"Duration":106383,"SoundDuration":106383,"Delta":128169528},{"NoteNumber":81,"Velocity":61,"Duration":106383,"SoundDuration":106383,"Delta":128169528},{"NoteNumber":57,"Velocity":29,"Duration":319149,"SoundDuration":319149,"Delta":128169528},{"NoteNumber":73,"Velocity":50,"Duration":106382,"SoundDuration":106382,"Delta":128382294},{"NoteNumber":80,"Velocity":59,"Duration":106382,"SoundDuration":106382,"Delta":128382294},{"NoteNumber":52,"Velocity":29,"Duration":318589,"SoundDuration":318589,"Delta":128488677},{"NoteNumber":73,"Velocity":50,"Duration":106382,"SoundDuration":106382,"Delta":128595060},{"NoteNumber":78,"Velocity":59,"Duration":106382,"SoundDuration":106382,"Delta":128595060},{"NoteNumber":74,"Velocity":51,"Duration":915908,"SoundDuration":915908,"Delta":128807266},{"NoteNumber":76,"Velocity":61,"Duration":915908,"SoundDuration":915908,"Delta":128807266},{"NoteNumber":44,"Velocity":34,"Duration":309333,"SoundDuration":309333,"Delta":128807266},{"NoteNumber":64,"Velocity":26,"Duration":303030,"SoundDuration":303030,"Delta":129116599},{"NoteNumber":52,"Velocity":28,"Duration":303545,"SoundDuration":303545,"Delta":129419629},{"NoteNumber":70,"Velocity":49,"Duration":153061,"SoundDuration":153061,"Delta":129723175},{"NoteNumber":76,"Velocity":58,"Duration":153061,"SoundDuration":153061,"Delta":129723175},{"NoteNumber":64,"Velocity":30,"Duration":307174,"SoundDuration":307174,"Delta":129723175},{"NoteNumber":71,"Velocity":52,"Duration":154639,"SoundDuration":154639,"Delta":130030349},{"NoteNumber":76,"Velocity":61,"Duration":154639,"SoundDuration":154639,"Delta":130030349},{"NoteNumber":62,"Velocity":32,"Duration":310889,"SoundDuration":310889,"Delta":130030349},{"NoteNumber":72,"Velocity":55,"Duration":156798,"SoundDuration":156798,"Delta":130341238},{"NoteNumber":76,"Velocity":66,"Duration":156798,"SoundDuration":156798,"Delta":130341238},{"NoteNumber":52,"Velocity":34,"Duration":314693,"SoundDuration":314693,"Delta":130341238},{"NoteNumber":73,"Velocity":59,"Duration":1232357,"SoundDuration":1232357,"Delta":130655931},{"NoteNumber":76,"Velocity":67,"Duration":1232357,"SoundDuration":1232357,"Delta":130655931},{"NoteNumber":45,"Velocity":40,"Duration":319149,"SoundDuration":319149,"Delta":130655931},{"NoteNumber":64,"Velocity":32,"Duration":319148,"SoundDuration":319148,"Delta":130975080},{"NoteNumber":52,"Velocity":32,"Duration":297029,"SoundDuration":297029,"Delta":131294229},{"NoteNumber":64,"Velocity":32,"Duration":297029,"SoundDuration":297029,"Delta":131591259},{"NoteNumber":74,"Velocity":55,"Duration":288461,"SoundDuration":288461,"Delta":131888289},{"NoteNumber":78,"Velocity":61,"Duration":288461,"SoundDuration":288461,"Delta":131888289},{"NoteNumber":61,"Velocity":32,"Duration":288461,"SoundDuration":288461,"Delta":131888289},{"NoteNumber":69,"Velocity":55,"Duration":319149,"SoundDuration":319149,"Delta":132176750},{"NoteNumber":73,"Velocity":65,"Duration":319149,"SoundDuration":319149,"Delta":132176750},{"NoteNumber":52,"Velocity":32,"Duration":319149,"SoundDuration":319149,"Delta":132176750},{"NoteNumber":68,"Velocity":50,"Duration":154639,"SoundDuration":154639,"Delta":132495899},{"NoteNumber":73,"Velocity":59,"Duration":154639,"SoundDuration":154639,"Delta":132495899},{"NoteNumber":40,"Velocity":40,"Duration":309278,"SoundDuration":309278,"Delta":132495899},{"NoteNumber":73,"Velocity":56,"Duration":309278,"SoundDuration":309278,"Delta":132650538},{"NoteNumber":76,"Velocity":66,"Duration":309278,"SoundDuration":309278,"Delta":132650538},{"NoteNumber":64,"Velocity":34,"Duration":309278,"SoundDuration":309278,"Delta":132805178},{"NoteNumber":74,"Velocity":60,"Duration":154639,"SoundDuration":154639,"Delta":132959817},{"NoteNumber":71,"Velocity":51,"Duration":154639,"SoundDuration":154639,"Delta":132959817},{"NoteNumber":74,"Velocity":58,"Duration":60240,"SoundDuration":60240,"Delta":133114456},{"NoteNumber":71,"Velocity":58,"Duration":60240,"SoundDuration":60240,"Delta":133114456},{"NoteNumber":56,"Velocity":35,"Duration":341973,"SoundDuration":341973,"Delta":133114456},{"NoteNumber":76,"Velocity":52,"Duration":60240,"SoundDuration":60240,"Delta":133174697},{"NoteNumber":73,"Velocity":52,"Duration":60240,"SoundDuration":60240,"Delta":133174697},{"NoteNumber":74,"Velocity":57,"Duration":120481,"SoundDuration":120481,"Delta":133234938},{"NoteNumber":71,"Velocity":57,"Duration":120481,"SoundDuration":120481,"Delta":133234938},{"NoteNumber":70,"Velocity":50,"Duration":202020,"SoundDuration":202020,"Delta":133355420},{"NoteNumber":73,"Velocity":59,"Duration":202020,"SoundDuration":202020,"Delta":133355420},{"NoteNumber":64,"Velocity":35,"Duration":303030,"SoundDuration":303030,"Delta":133456430},{"NoteNumber":71,"Velocity":51,"Duration":202020,"SoundDuration":202020,"Delta":133557440},{"NoteNumber":74,"Velocity":60,"Duration":202020,"SoundDuration":202020,"Delta":133557440},{"NoteNumber":71,"Velocity":52,"Duration":209843,"SoundDuration":209843,"Delta":133759460},{"NoteNumber":74,"Velocity":61,"Duration":209843,"SoundDuration":209843,"Delta":133759460},{"NoteNumber":62,"Velocity":35,"Duration":316500,"SoundDuration":316500,"Delta":133759460},{"NoteNumber":73,"Velocity":54,"Duration":106657,"SoundDuration":106657,"Delta":133969303},{"NoteNumber":76,"Velocity":63,"Duration":214882,"SoundDuration":214882,"Delta":133969303},{"NoteNumber":52,"Velocity":35,"Duration":324675,"SoundDuration":324675,"Delta":134075961},{"NoteNumber":68,"Velocity":55,"Duration":108225,"SoundDuration":108225,"Delta":134292411},{"NoteNumber":71,"Velocity":65,"Duration":108225,"SoundDuration":108225,"Delta":134292411},{"NoteNumber":74,"Velocity":62,"Duration":630583,"SoundDuration":630583,"Delta":134400636},{"NoteNumber":71,"Velocity":53,"Duration":630583,"SoundDuration":630583,"Delta":134400636},{"NoteNumber":45,"Velocity":50,"Duration":321305,"SoundDuration":321305,"Delta":134400636},{"NoteNumber":64,"Velocity":39,"Duration":309278,"SoundDuration":309278,"Delta":134721942},{"NoteNumber":73,"Velocity":62,"Duration":594059,"SoundDuration":594059,"Delta":135031220},{"NoteNumber":69,"Velocity":53,"Duration":594059,"SoundDuration":594059,"Delta":135031220},{"NoteNumber":57,"Velocity":39,"Duration":297029,"SoundDuration":297029,"Delta":135031220},{"NoteNumber":64,"Velocity":39,"Duration":297029,"SoundDuration":297029,"Delta":135328250},{"NoteNumber":73,"Velocity":59,"Duration":1236348,"SoundDuration":1236348,"Delta":135625279},{"NoteNumber":81,"Velocity":70,"Duration":1236348,"SoundDuration":1236348,"Delta":135625279},{"NoteNumber":61,"Velocity":39,"Duration":297029,"SoundDuration":297029,"Delta":135625279},{"NoteNumber":52,"Velocity":39,"Duration":319149,"SoundDuration":319149,"Delta":135922309},{"NoteNumber":39,"Velocity":65,"Duration":319148,"SoundDuration":319148,"Delta":136241458},{"NoteNumber":66,"Velocity":40,"Duration":301020,"SoundDuration":301020,"Delta":136560607},{"NoteNumber":73,"Velocity":59,"Duration":589284,"SoundDuration":589284,"Delta":136861628},{"NoteNumber":81,"Velocity":70,"Duration":589284,"SoundDuration":589284,"Delta":136861628},{"NoteNumber":57,"Velocity":42,"Duration":295166,"SoundDuration":295166,"Delta":136861628},{"NoteNumber":66,"Velocity":44,"Duration":294117,"SoundDuration":294117,"Delta":137156794},{"NoteNumber":81,"Velocity":76,"Duration":604200,"SoundDuration":604200,"Delta":137450912},{"NoteNumber":73,"Velocity":64,"Duration":604200,"SoundDuration":604200,"Delta":137450912},{"NoteNumber":61,"Velocity":46,"Duration":293222,"SoundDuration":293222,"Delta":137450912},{"NoteNumber":51,"Velocity":48,"Duration":310978,"SoundDuration":310978,"Delta":137744134},{"NoteNumber":73,"Velocity":63,"Duration":2053588,"SoundDuration":2053588,"Delta":138055112},{"NoteNumber":80,"Velocity":75,"Duration":630583,"SoundDuration":630583,"Delta":138055112},{"NoteNumber":44,"Velocity":50,"Duration":321305,"SoundDuration":321305,"Delta":138055112},{"NoteNumber":66,"Velocity":39,"Duration":309278,"SoundDuration":309278,"Delta":138376418},{"NoteNumber":81,"Velocity":74,"Duration":891089,"SoundDuration":891089,"Delta":138685696},{"NoteNumber":56,"Velocity":39,"Duration":297029,"SoundDuration":297029,"Delta":138685696},{"NoteNumber":66,"Velocity":39,"Duration":297029,"SoundDuration":297029,"Delta":138982726},{"NoteNumber":61,"Velocity":39,"Duration":297029,"SoundDuration":297029,"Delta":139279756},{"NoteNumber":80,"Velocity":75,"Duration":319149,"SoundDuration":319149,"Delta":139576786},{"NoteNumber":51,"Velocity":39,"Duration":319149,"SoundDuration":319149,"Delta":139576786},{"NoteNumber":78,"Velocity":73,"Duration":841260,"SoundDuration":841260,"Delta":139895935},{"NoteNumber":44,"Velocity":63,"Duration":319148,"SoundDuration":319148,"Delta":139895935},{"NoteNumber":75,"Velocity":72,"Duration":212765,"SoundDuration":212765,"Delta":140108701},{"NoteNumber":66,"Velocity":40,"Duration":316977,"SoundDuration":316977,"Delta":140215084},{"NoteNumber":73,"Velocity":70,"Duration":210594,"SoundDuration":210594,"Delta":140321467},{"NoteNumber":72,"Velocity":70,"Duration":895969,"SoundDuration":895969,"Delta":140532062},{"NoteNumber":56,"Velocity":42,"Duration":306659,"SoundDuration":306659,"Delta":140532062},{"NoteNumber":76,"Velocity":70,"Duration":201525,"SoundDuration":201525,"Delta":140737195},{"NoteNumber":66,"Velocity":44,"Duration":296087,"SoundDuration":296087,"Delta":140838721},{"NoteNumber":78,"Velocity":75,"Duration":196087,"SoundDuration":196087,"Delta":140938721},{"NoteNumber":80,"Velocity":75,"Duration":144697,"SoundDuration":144697,"Delta":141134809},{"NoteNumber":60,"Velocity":46,"Duration":293222,"SoundDuration":293222,"Delta":141134809},{"NoteNumber":51,"Velocity":48,"Duration":303030,"SoundDuration":303030,"Delta":141428031},{"NoteNumber":72,"Velocity":61,"Duration":151515,"SoundDuration":151515,"Delta":141579546},{"NoteNumber":75,"Velocity":72,"Duration":151515,"SoundDuration":151515,"Delta":141579546},{"NoteNumber":75,"Velocity":64,"Duration":828603,"SoundDuration":828603,"Delta":141731061},{"NoteNumber":78,"Velocity":76,"Duration":828603,"SoundDuration":828603,"Delta":141731061},{"NoteNumber":44,"Velocity":50,"Duration":321305,"SoundDuration":321305,"Delta":141731061},{"NoteNumber":64,"Velocity":39,"Duration":309278,"SoundDuration":309278,"Delta":142052367},{"NoteNumber":56,"Velocity":39,"Duration":297029,"SoundDuration":297029,"Delta":142361645},{"NoteNumber":73,"Velocity":62,"Duration":99009,"SoundDuration":99009,"Delta":142559665},{"NoteNumber":76,"Velocity":73,"Duration":99009,"SoundDuration":99009,"Delta":142559665},{"NoteNumber":64,"Velocity":39,"Duration":308089,"SoundDuration":308089,"Delta":142658675},{"NoteNumber":76,"Velocity":62,"Duration":106382,"SoundDuration":106382,"Delta":142860381},{"NoteNumber":85,"Velocity":73,"Duration":106382,"SoundDuration":106382,"Delta":142860381},{"NoteNumber":76,"Velocity":63,"Duration":199999,"SoundDuration":199999,"Delta":142966764},{"NoteNumber":85,"Velocity":75,"Duration":199999,"SoundDuration":199999,"Delta":142966764},{"NoteNumber":61,"Velocity":39,"Duration":300000,"SoundDuration":300000,"Delta":142966764},{"NoteNumber":80,"Velocity":62,"Duration":206383,"SoundDuration":206383,"Delta":143166764},{"NoteNumber":83,"Velocity":73,"Duration":206383,"SoundDuration":206383,"Delta":143166764},{"NoteNumber":52,"Velocity":39,"Duration":319149,"SoundDuration":319149,"Delta":143266764},{"NoteNumber":78,"Velocity":59,"Duration":106383,"SoundDuration":106383,"Delta":143479530},{"NoteNumber":81,"Velocity":70,"Duration":106383,"SoundDuration":106383,"Delta":143479530},{"NoteNumber":76,"Velocity":64,"Duration":106382,"SoundDuration":106382,"Delta":143585913},{"NoteNumber":80,"Velocity":76,"Duration":106382,"SoundDuration":106382,"Delta":143585913},{"NoteNumber":32,"Velocity":58,"Duration":308634,"SoundDuration":308634,"Delta":143585913},{"NoteNumber":68,"Velocity":57,"Duration":98039,"SoundDuration":98039,"Delta":143796508},{"NoteNumber":80,"Velocity":68,"Duration":98039,"SoundDuration":98039,"Delta":143796508},{"NoteNumber":64,"Velocity":40,"Duration":297534,"SoundDuration":297534,"Delta":143894547},{"NoteNumber":69,"Velocity":58,"Duration":99009,"SoundDuration":99009,"Delta":143993072},{"NoteNumber":80,"Velocity":69,"Duration":99009,"SoundDuration":99009,"Delta":143993072},{"NoteNumber":70,"Velocity":58,"Duration":100505,"SoundDuration":100505,"Delta":144192082},{"NoteNumber":80,"Velocity":70,"Duration":100505,"SoundDuration":100505,"Delta":144192082},{"NoteNumber":56,"Velocity":42,"Duration":303555,"SoundDuration":303555,"Delta":144192082},{"NoteNumber":71,"Velocity":59,"Duration":102040,"SoundDuration":102040,"Delta":144393597},{"NoteNumber":80,"Velocity":71,"Duration":102040,"SoundDuration":102040,"Delta":144393597},{"NoteNumber":64,"Velocity":44,"Duration":313186,"SoundDuration":313186,"Delta":144495638},{"NoteNumber":72,"Velocity":60,"Duration":105309,"SoundDuration":105309,"Delta":144598204},{"NoteNumber":80,"Velocity":72,"Duration":105309,"SoundDuration":105309,"Delta":144598204},{"NoteNumber":73,"Velocity":61,"Duration":105274,"SoundDuration":105274,"Delta":144808824},{"NoteNumber":80,"Velocity":73,"Duration":105274,"SoundDuration":105274,"Delta":144808824},{"NoteNumber":61,"Velocity":46,"Duration":328829,"SoundDuration":328829,"Delta":144808824},{"NoteNumber":74,"Velocity":61,"Duration":110636,"SoundDuration":110636,"Delta":144935838},{"NoteNumber":80,"Velocity":73,"Duration":110636,"SoundDuration":110636,"Delta":144935838},{"NoteNumber":75,"Velocity":63,"Duration":115766,"SoundDuration":115766,"Delta":145068946},{"NoteNumber":80,"Velocity":74,"Duration":115766,"SoundDuration":115766,"Delta":145068946},{"NoteNumber":52,"Velocity":48,"Duration":372432,"SoundDuration":372432,"Delta":145137653},{"NoteNumber":76,"Velocity":63,"Duration":121668,"SoundDuration":121668,"Delta":145208525},{"NoteNumber":80,"Velocity":74,"Duration":121668,"SoundDuration":121668,"Delta":145208525},{"NoteNumber":77,"Velocity":64,"Duration":128576,"SoundDuration":128576,"Delta":145355194},{"NoteNumber":80,"Velocity":75,"Duration":128576,"SoundDuration":128576,"Delta":145355194},{"NoteNumber":80,"Velocity":79,"Duration":475944,"SoundDuration":475944,"Delta":145510086},{"NoteNumber":78,"Velocity":67,"Duration":475944,"SoundDuration":475944,"Delta":145510086},{"NoteNumber":44,"Velocity":65,"Duration":321305,"SoundDuration":321305,"Delta":145510086},{"NoteNumber":63,"Velocity":51,"Duration":298869,"SoundDuration":298869,"Delta":145831391},{"NoteNumber":83,"Velocity":63,"Duration":144230,"SoundDuration":144230,"Delta":145986030},{"NoteNumber":81,"Velocity":78,"Duration":605119,"SoundDuration":605119,"Delta":146130261},{"NoteNumber":78,"Velocity":66,"Duration":605119,"SoundDuration":605119,"Delta":146130261},{"NoteNumber":54,"Velocity":51,"Duration":297029,"SoundDuration":297029,"Delta":146130261},{"NoteNumber":63,"Velocity":51,"Duration":308089,"SoundDuration":308089,"Delta":146427291},{"NoteNumber":80,"Velocity":79,"Duration":615789,"SoundDuration":615789,"Delta":146735380},{"NoteNumber":78,"Velocity":67,"Duration":615789,"SoundDuration":615789,"Delta":146735380},{"NoteNumber":60,"Velocity":51,"Duration":300000,"SoundDuration":300000,"Delta":146735380},{"NoteNumber":51,"Velocity":51,"Duration":315789,"SoundDuration":315789,"Delta":147035380},{"NoteNumber":87,"Velocity":88,"Duration":157894,"SoundDuration":157894,"Delta":147351170},{"NoteNumber":78,"Velocity":74,"Duration":157894,"SoundDuration":157894,"Delta":147351170},{"NoteNumber":32,"Velocity":64,"Duration":306954,"SoundDuration":306954,"Delta":147351170},{"NoteNumber":63,"Velocity":48,"Duration":297534,"SoundDuration":297534,"Delta":147658124},{"NoteNumber":76,"Velocity":69,"Duration":609678,"SoundDuration":609678,"Delta":147955659},{"NoteNumber":80,"Velocity":81,"Duration":609678,"SoundDuration":609678,"Delta":147955659},{"NoteNumber":54,"Velocity":51,"Duration":303555,"SoundDuration":303555,"Delta":147955659},{"NoteNumber":63,"Velocity":54,"Duration":306122,"SoundDuration":306122,"Delta":148259215},{"NoteNumber":75,"Velocity":72,"Duration":625271,"SoundDuration":625271,"Delta":148565337},{"NoteNumber":80,"Velocity":85,"Duration":625271,"SoundDuration":625271,"Delta":148565337},{"NoteNumber":60,"Velocity":57,"Duration":306122,"SoundDuration":306122,"Delta":148565337},{"NoteNumber":51,"Velocity":59,"Duration":319149,"SoundDuration":319149,"Delta":148871460},{"NoteNumber":75,"Velocity":75,"Duration":1854852,"SoundDuration":1854852,"Delta":149190609},{"NoteNumber":80,"Velocity":89,"Duration":1235703,"SoundDuration":1235703,"Delta":149190609},{"NoteNumber":45,"Velocity":76,"Duration":321305,"SoundDuration":321305,"Delta":149190609},{"NoteNumber":63,"Velocity":55,"Duration":309278,"SoundDuration":309278,"Delta":149511914},{"NoteNumber":54,"Velocity":56,"Duration":297029,"SoundDuration":297029,"Delta":149821193},{"NoteNumber":63,"Velocity":57,"Duration":308089,"SoundDuration":308089,"Delta":150118222},{"NoteNumber":78,"Velocity":80,"Duration":619149,"SoundDuration":619149,"Delta":150426312},{"NoteNumber":60,"Velocity":57,"Duration":300000,"SoundDuration":300000,"Delta":150426312},{"NoteNumber":51,"Velocity":57,"Duration":319149,"SoundDuration":319149,"Delta":150726312},{"NoteNumber":33,"Velocity":82,"Duration":308634,"SoundDuration":308634,"Delta":151045461},{"NoteNumber":63,"Velocity":57,"Duration":296544,"SoundDuration":296544,"Delta":151354095},{"NoteNumber":72,"Velocity":64,"Duration":594059,"SoundDuration":594059,"Delta":151650639},{"NoteNumber":75,"Velocity":64,"Duration":594059,"SoundDuration":594059,"Delta":151650639},{"NoteNumber":78,"Velocity":76,"Duration":594059,"SoundDuration":594059,"Delta":151650639},{"NoteNumber":54,"Velocity":58,"Duration":297029,"SoundDuration":297029,"Delta":151650639},{"NoteNumber":63,"Velocity":59,"Duration":297029,"SoundDuration":297029,"Delta":151947669},{"NoteNumber":71,"Velocity":68,"Duration":612734,"SoundDuration":612734,"Delta":152244699},{"NoteNumber":75,"Velocity":68,"Duration":612734,"SoundDuration":612734,"Delta":152244699},{"NoteNumber":78,"Velocity":80,"Duration":612734,"SoundDuration":612734,"Delta":152244699},{"NoteNumber":59,"Velocity":62,"Duration":299069,"SoundDuration":299069,"Delta":152244699},{"NoteNumber":51,"Velocity":63,"Duration":313664,"SoundDuration":313664,"Delta":152543769},{"NoteNumber":70,"Velocity":71,"Duration":333333,"SoundDuration":333333,"Delta":152857433},{"NoteNumber":75,"Velocity":71,"Duration":333333,"SoundDuration":333333,"Delta":152857433},{"NoteNumber":78,"Velocity":84,"Duration":333333,"SoundDuration":333333,"Delta":152857433},{"NoteNumber":46,"Velocity":84,"Duration":333333,"SoundDuration":333333,"Delta":152857433},{"NoteNumber":63,"Velocity":52,"Duration":306122,"SoundDuration":306122,"Delta":153190767},{"NoteNumber":78,"Velocity":78,"Duration":153061,"SoundDuration":153061,"Delta":153343828},{"NoteNumber":90,"Velocity":97,"Duration":1504641,"SoundDuration":1504641,"Delta":153496889},{"NoteNumber":54,"Velocity":52,"Duration":297029,"SoundDuration":297029,"Delta":153496889},{"NoteNumber":63,"Velocity":54,"Duration":308089,"SoundDuration":308089,"Delta":153793919},{"NoteNumber":58,"Velocity":54,"Duration":300000,"SoundDuration":300000,"Delta":154102008},{"NoteNumber":51,"Velocity":52,"Duration":319149,"SoundDuration":319149,"Delta":154402008},{"NoteNumber":34,"Velocity":80,"Duration":280373,"SoundDuration":280373,"Delta":154721157},{"NoteNumber":86,"Velocity":86,"Duration":280373,"SoundDuration":280373,"Delta":155001531},{"NoteNumber":63,"Velocity":56,"Duration":280373,"SoundDuration":280373,"Delta":155001531},{"NoteNumber":87,"Velocity":79,"Duration":186915,"SoundDuration":186915,"Delta":155281905},{"NoteNumber":54,"Velocity":56,"Duration":281255,"SoundDuration":281255,"Delta":155281905},{"NoteNumber":81,"Velocity":77,"Duration":189128,"SoundDuration":189128,"Delta":155468820},{"NoteNumber":63,"Velocity":56,"Duration":286180,"SoundDuration":286180,"Delta":155563160},{"NoteNumber":82,"Velocity":77,"Duration":191391,"SoundDuration":191391,"Delta":155657949},{"NoteNumber":77,"Velocity":76,"Duration":193708,"SoundDuration":193708,"Delta":155849341},{"NoteNumber":58,"Velocity":56,"Duration":290795,"SoundDuration":290795,"Delta":155849341},{"NoteNumber":78,"Velocity":75,"Duration":194174,"SoundDuration":194174,"Delta":156043049},{"NoteNumber":51,"Velocity":56,"Duration":291262,"SoundDuration":291262,"Delta":156140136},{"NoteNumber":74,"Velocity":75,"Duration":194174,"SoundDuration":194174,"Delta":156237224},{"NoteNumber":69,"Velocity":71,"Duration":333333,"SoundDuration":333333,"Delta":156431399},{"NoteNumber":75,"Velocity":71,"Duration":333333,"SoundDuration":333333,"Delta":156431399},{"NoteNumber":78,"Velocity":84,"Duration":333333,"SoundDuration":333333,"Delta":156431399},{"NoteNumber":47,"Velocity":71,"Duration":333333,"SoundDuration":333333,"Delta":156431399},{"NoteNumber":63,"Velocity":52,"Duration":306122,"SoundDuration":306122,"Delta":156764732},{"NoteNumber":78,"Velocity":78,"Duration":153061,"SoundDuration":153061,"Delta":156917793},{"NoteNumber":90,"Velocity":97,"Duration":1504641,"SoundDuration":1504641,"Delta":157070854},{"NoteNumber":54,"Velocity":52,"Duration":297029,"SoundDuration":297029,"Delta":157070854},{"NoteNumber":63,"Velocity":54,"Duration":308089,"SoundDuration":308089,"Delta":157367884},{"NoteNumber":57,"Velocity":54,"Duration":300000,"SoundDuration":300000,"Delta":157675973},{"NoteNumber":51,"Velocity":52,"Duration":319149,"SoundDuration":319149,"Delta":157975973},{"NoteNumber":35,"Velocity":79,"Duration":280373,"SoundDuration":280373,"Delta":158295122},{"NoteNumber":86,"Velocity":86,"Duration":280373,"SoundDuration":280373,"Delta":158575496},{"NoteNumber":63,"Velocity":56,"Duration":280373,"SoundDuration":280373,"Delta":158575496},{"NoteNumber":87,"Velocity":79,"Duration":186915,"SoundDuration":186915,"Delta":158855870},{"NoteNumber":54,"Velocity":56,"Duration":281255,"SoundDuration":281255,"Delta":158855870},{"NoteNumber":80,"Velocity":77,"Duration":189128,"SoundDuration":189128,"Delta":159042786},{"NoteNumber":63,"Velocity":56,"Duration":286180,"SoundDuration":286180,"Delta":159137125},{"NoteNumber":81,"Velocity":77,"Duration":191391,"SoundDuration":191391,"Delta":159231914},{"NoteNumber":77,"Velocity":76,"Duration":193708,"SoundDuration":193708,"Delta":159423306},{"NoteNumber":57,"Velocity":56,"Duration":290795,"SoundDuration":290795,"Delta":159423306},{"NoteNumber":78,"Velocity":75,"Duration":194174,"SoundDuration":194174,"Delta":159617014},{"NoteNumber":51,"Velocity":56,"Duration":291262,"SoundDuration":291262,"Delta":159714102},{"NoteNumber":74,"Velocity":75,"Duration":194174,"SoundDuration":194174,"Delta":159811189},{"NoteNumber":69,"Velocity":71,"Duration":333333,"SoundDuration":333333,"Delta":160005364},{"NoteNumber":75,"Velocity":71,"Duration":333333,"SoundDuration":333333,"Delta":160005364},{"NoteNumber":78,"Velocity":84,"Duration":333333,"SoundDuration":333333,"Delta":160005364},{"NoteNumber":48,"Velocity":70,"Duration":1244574,"SoundDuration":1244574,"Delta":160005364},{"NoteNumber":63,"Velocity":52,"Duration":306122,"SoundDuration":306122,"Delta":160338697},{"NoteNumber":78,"Velocity":78,"Duration":153061,"SoundDuration":153061,"Delta":160491758},{"NoteNumber":90,"Velocity":97,"Duration":1224268,"SoundDuration":1224268,"Delta":160644820},{"NoteNumber":54,"Velocity":52,"Duration":297029,"SoundDuration":297029,"Delta":160644820},{"NoteNumber":63,"Velocity":54,"Duration":308089,"SoundDuration":308089,"Delta":160941849},{"NoteNumber":57,"Velocity":54,"Duration":300000,"SoundDuration":300000,"Delta":161249939},{"NoteNumber":51,"Velocity":52,"Duration":319149,"SoundDuration":319149,"Delta":161549939},{"NoteNumber":69,"Velocity":71,"Duration":333333,"SoundDuration":333333,"Delta":161869088},{"NoteNumber":73,"Velocity":71,"Duration":333333,"SoundDuration":333333,"Delta":161869088},{"NoteNumber":78,"Velocity":84,"Duration":333333,"SoundDuration":333333,"Delta":161869088},{"NoteNumber":49,"Velocity":66,"Duration":1244574,"SoundDuration":1244574,"Delta":161869088},{"NoteNumber":61,"Velocity":52,"Duration":306122,"SoundDuration":306122,"Delta":162202421},{"NoteNumber":78,"Velocity":78,"Duration":153061,"SoundDuration":153061,"Delta":162355482},{"NoteNumber":90,"Velocity":97,"Duration":605119,"SoundDuration":605119,"Delta":162508543},{"NoteNumber":54,"Velocity":52,"Duration":297029,"SoundDuration":297029,"Delta":162508543},{"NoteNumber":57,"Velocity":54,"Duration":308089,"SoundDuration":308089,"Delta":162805573},{"NoteNumber":69,"Velocity":71,"Duration":333333,"SoundDuration":333333,"Delta":163113663},{"NoteNumber":72,"Velocity":71,"Duration":333333,"SoundDuration":333333,"Delta":163113663},{"NoteNumber":78,"Velocity":84,"Duration":333333,"SoundDuration":333333,"Delta":163113663},{"NoteNumber":50,"Velocity":66,"Duration":1242929,"SoundDuration":1242929,"Delta":163113663},{"NoteNumber":60,"Velocity":52,"Duration":306122,"SoundDuration":306122,"Delta":163446996},{"NoteNumber":78,"Velocity":78,"Duration":153061,"SoundDuration":153061,"Delta":163600057},{"NoteNumber":90,"Velocity":97,"Duration":814000,"SoundDuration":814000,"Delta":163753118},{"NoteNumber":54,"Velocity":52,"Duration":297029,"SoundDuration":297029,"Delta":163753118},{"NoteNumber":57,"Velocity":54,"Duration":306444,"SoundDuration":306444,"Delta":164050148},{"NoteNumber":51,"Velocity":66,"Duration":1262609,"SoundDuration":1262609,"Delta":164356592},{"NoteNumber":89,"Velocity":86,"Duration":210526,"SoundDuration":210526,"Delta":164567119},{"NoteNumber":63,"Velocity":52,"Duration":315789,"SoundDuration":315789,"Delta":164672382},{"NoteNumber":88,"Velocity":84,"Duration":210526,"SoundDuration":210526,"Delta":164777645},{"NoteNumber":78,"Velocity":89,"Duration":210526,"SoundDuration":210526,"Delta":164988171},{"NoteNumber":54,"Velocity":52,"Duration":315789,"SoundDuration":315789,"Delta":164988171},{"NoteNumber":87,"Velocity":82,"Duration":210526,"SoundDuration":210526,"Delta":165198698},{"NoteNumber":56,"Velocity":55,"Duration":315241,"SoundDuration":315241,"Delta":165303961},{"NoteNumber":86,"Velocity":82,"Duration":209978,"SoundDuration":209978,"Delta":165409224},{"NoteNumber":85,"Velocity":87,"Duration":208333,"SoundDuration":208333,"Delta":165619202},{"NoteNumber":44,"Velocity":66,"Duration":312499,"SoundDuration":312499,"Delta":165619202},{"NoteNumber":75,"Velocity":79,"Duration":209429,"SoundDuration":209429,"Delta":165827535},{"NoteNumber":66,"Velocity":52,"Duration":315789,"SoundDuration":315789,"Delta":165931702},{"NoteNumber":84,"Velocity":79,"Duration":210526,"SoundDuration":210526,"Delta":166036965},{"NoteNumber":82,"Velocity":83,"Duration":212206,"SoundDuration":212206,"Delta":166247492},{"NoteNumber":56,"Velocity":51,"Duration":318589,"SoundDuration":318589,"Delta":166247492},{"NoteNumber":81,"Velocity":77,"Duration":212766,"SoundDuration":212766,"Delta":166459698},{"NoteNumber":66,"Velocity":50,"Duration":320864,"SoundDuration":320864,"Delta":166566081},{"NoteNumber":72,"Velocity":74,"Duration":214481,"SoundDuration":214481,"Delta":166672464},{"NoteNumber":80,"Velocity":81,"Duration":222290,"SoundDuration":222290,"Delta":166886945},{"NoteNumber":60,"Velocity":49,"Duration":337901,"SoundDuration":337901,"Delta":166886945},{"NoteNumber":79,"Velocity":75,"Duration":235375,"SoundDuration":235375,"Delta":167109236},{"NoteNumber":54,"Velocity":47,"Duration":353130,"SoundDuration":353130,"Delta":167224847},{"NoteNumber":78,"Velocity":73,"Duration":233365,"SoundDuration":233365,"Delta":167344612},{"NoteNumber":77,"Velocity":79,"Duration":1836679,"SoundDuration":1836679,"Delta":167577978},{"NoteNumber":37,"Velocity":76,"Duration":332153,"SoundDuration":332153,"Delta":167577978},{"NoteNumber":65,"Velocity":44,"Duration":316407,"SoundDuration":316407,"Delta":167910131},{"NoteNumber":56,"Velocity":48,"Duration":297029,"SoundDuration":297029,"Delta":168226538},{"NoteNumber":65,"Velocity":48,"Duration":297029,"SoundDuration":297029,"Delta":168523568},{"NoteNumber":61,"Velocity":48,"Duration":297029,"SoundDuration":297029,"Delta":168820598},{"NoteNumber":53,"Velocity":47,"Duration":297029,"SoundDuration":297029,"Delta":169117628},{"NoteNumber":75,"Velocity":82,"Duration":618556,"SoundDuration":618556,"Delta":169414657},{"NoteNumber":49,"Velocity":56,"Duration":309278,"SoundDuration":309278,"Delta":169414657},{"NoteNumber":65,"Velocity":44,"Duration":309278,"SoundDuration":309278,"Delta":169723936},{"NoteNumber":73,"Velocity":77,"Duration":927845,"SoundDuration":927845,"Delta":170033214},{"NoteNumber":56,"Velocity":44,"Duration":309278,"SoundDuration":309278,"Delta":170033214},{"NoteNumber":65,"Velocity":44,"Duration":309278,"SoundDuration":309278,"Delta":170342492},{"NoteNumber":61,"Velocity":44,"Duration":309289,"SoundDuration":309289,"Delta":170651770},{"NoteNumber":65,"Velocity":74,"Duration":337576,"SoundDuration":337576,"Delta":170961060},{"NoteNumber":53,"Velocity":44,"Duration":337576,"SoundDuration":337576,"Delta":170961060},{"NoteNumber":68,"Velocity":81,"Duration":2443974,"SoundDuration":2443974,"Delta":171298636},{"NoteNumber":49,"Velocity":52,"Duration":331609,"SoundDuration":331609,"Delta":171298636},{"NoteNumber":65,"Velocity":48,"Duration":312008,"SoundDuration":312008,"Delta":171630246},{"NoteNumber":56,"Velocity":48,"Duration":294117,"SoundDuration":294117,"Delta":171942254},{"NoteNumber":65,"Velocity":46,"Duration":294117,"SoundDuration":294117,"Delta":172236372},{"NoteNumber":61,"Velocity":46,"Duration":303030,"SoundDuration":303030,"Delta":172530490},{"NoteNumber":53,"Velocity":46,"Duration":303030,"SoundDuration":303030,"Delta":172833520},{"NoteNumber":49,"Velocity":54,"Duration":303030,"SoundDuration":303030,"Delta":173136550},{"NoteNumber":65,"Velocity":46,"Duration":303030,"SoundDuration":303030,"Delta":173439581},{"NoteNumber":73,"Velocity":81,"Duration":599999,"SoundDuration":599999,"Delta":173742611},{"NoteNumber":56,"Velocity":46,"Duration":300000,"SoundDuration":300000,"Delta":173742611},{"NoteNumber":65,"Velocity":48,"Duration":299999,"SoundDuration":299999,"Delta":174042611},{"NoteNumber":77,"Velocity":85,"Duration":635769,"SoundDuration":635769,"Delta":174342611},{"NoteNumber":61,"Velocity":49,"Duration":307786,"SoundDuration":307786,"Delta":174342611},{"NoteNumber":53,"Velocity":52,"Duration":327983,"SoundDuration":327983,"Delta":174650398},{"NoteNumber":82,"Velocity":95,"Duration":2116720,"SoundDuration":2116720,"Delta":174978381},{"NoteNumber":49,"Velocity":59,"Duration":309661,"SoundDuration":309661,"Delta":174978381},{"NoteNumber":65,"Velocity":51,"Duration":309661,"SoundDuration":309661,"Delta":175288042},{"NoteNumber":56,"Velocity":49,"Duration":297029,"SoundDuration":297029,"Delta":175597704},{"NoteNumber":65,"Velocity":48,"Duration":297029,"SoundDuration":297029,"Delta":175894734},{"NoteNumber":61,"Velocity":48,"Duration":297029,"SoundDuration":297029,"Delta":176191763},{"NoteNumber":53,"Velocity":46,"Duration":297029,"SoundDuration":297029,"Delta":176488793},{"NoteNumber":49,"Velocity":52,"Duration":309278,"SoundDuration":309278,"Delta":176785823},{"NoteNumber":80,"Velocity":69,"Duration":315457,"SoundDuration":315457,"Delta":177095101},{"NoteNumber":65,"Velocity":44,"Duration":315457,"SoundDuration":315457,"Delta":177095101},{"NoteNumber":76,"Velocity":76,"Duration":306122,"SoundDuration":306122,"Delta":177410559},{"NoteNumber":56,"Velocity":44,"Duration":306122,"SoundDuration":306122,"Delta":177410559},{"NoteNumber":77,"Velocity":70,"Duration":306122,"SoundDuration":306122,"Delta":177716681},{"NoteNumber":65,"Velocity":44,"Duration":306122,"SoundDuration":306122,"Delta":177716681},{"NoteNumber":72,"Velocity":75,"Duration":316500,"SoundDuration":316500,"Delta":178022804},{"NoteNumber":61,"Velocity":44,"Duration":316500,"SoundDuration":316500,"Delta":178022804},{"NoteNumber":73,"Velocity":69,"Duration":330600,"SoundDuration":330600,"Delta":178339304},{"NoteNumber":53,"Velocity":42,"Duration":330600,"SoundDuration":330600,"Delta":178339304},{"NoteNumber":71,"Velocity":79,"Duration":3637139,"SoundDuration":3637139,"Delta":178669905},{"NoteNumber":37,"Velocity":52,"Duration":324956,"SoundDuration":324956,"Delta":178669905},{"NoteNumber":65,"Velocity":44,"Duration":311459,"SoundDuration":311459,"Delta":178994862},{"NoteNumber":56,"Velocity":44,"Duration":297029,"SoundDuration":297029,"Delta":179306321},{"NoteNumber":65,"Velocity":44,"Duration":297029,"SoundDuration":297029,"Delta":179603351},{"NoteNumber":61,"Velocity":44,"Duration":297029,"SoundDuration":297029,"Delta":179900381},{"NoteNumber":53,"Velocity":44,"Duration":297029,"SoundDuration":297029,"Delta":180197410},{"NoteNumber":49,"Velocity":52,"Duration":297029,"SoundDuration":297029,"Delta":180494440},{"NoteNumber":65,"Velocity":44,"Duration":297029,"SoundDuration":297029,"Delta":180791470},{"NoteNumber":56,"Velocity":44,"Duration":297029,"SoundDuration":297029,"Delta":181088500},{"NoteNumber":65,"Velocity":37,"Duration":297029,"SoundDuration":297029,"Delta":181385529},{"NoteNumber":61,"Velocity":42,"Duration":304628,"SoundDuration":304628,"Delta":181682559},{"NoteNumber":53,"Velocity":32,"Duration":319857,"SoundDuration":319857,"Delta":181987187},{"NoteNumber":83,"Velocity":61,"Duration":2078251,"SoundDuration":2078251,"Delta":182307044},{"NoteNumber":49,"Velocity":28,"Duration":326151,"SoundDuration":326151,"Delta":182307044},{"NoteNumber":65,"Velocity":22,"Duration":312556,"SoundDuration":312556,"Delta":182633196},{"NoteNumber":56,"Velocity":22,"Duration":306122,"SoundDuration":306122,"Delta":182945752},{"NoteNumber":65,"Velocity":22,"Duration":306122,"SoundDuration":306122,"Delta":183251875},{"NoteNumber":61,"Velocity":22,"Duration":306122,"SoundDuration":306122,"Delta":183557997},{"NoteNumber":53,"Velocity":22,"Duration":306122,"SoundDuration":306122,"Delta":183864120},{"NoteNumber":49,"Velocity":27,"Duration":322580,"SoundDuration":322580,"Delta":184170242},{"NoteNumber":79,"Velocity":50,"Duration":208536,"SoundDuration":208536,"Delta":184385296},{"NoteNumber":65,"Velocity":22,"Duration":308080,"SoundDuration":308080,"Delta":184492823},{"NoteNumber":80,"Velocity":50,"Duration":207070,"SoundDuration":207070,"Delta":184593833},{"NoteNumber":79,"Velocity":53,"Duration":206722,"SoundDuration":206722,"Delta":184800904},{"NoteNumber":56,"Velocity":22,"Duration":310889,"SoundDuration":310889,"Delta":184800904},{"NoteNumber":78,"Velocity":50,"Duration":209429,"SoundDuration":209429,"Delta":185007626},{"NoteNumber":65,"Velocity":22,"Duration":317469,"SoundDuration":317469,"Delta":185111793},{"NoteNumber":79,"Velocity":50,"Duration":212206,"SoundDuration":212206,"Delta":185217056},{"NoteNumber":82,"Velocity":56,"Duration":215638,"SoundDuration":215638,"Delta":185429262},{"NoteNumber":61,"Velocity":24,"Duration":324333,"SoundDuration":324333,"Delta":185429262},{"NoteNumber":80,"Velocity":52,"Duration":218585,"SoundDuration":218585,"Delta":185644900},{"NoteNumber":53,"Velocity":22,"Duration":332750,"SoundDuration":332750,"Delta":185753596},{"NoteNumber":77,"Velocity":50,"Duration":222860,"SoundDuration":222860,"Delta":185863486},{"NoteNumber":75,"Velocity":51,"Duration":1871434,"SoundDuration":1871434,"Delta":186086346},{"NoteNumber":37,"Velocity":27,"Duration":329112,"SoundDuration":329112,"Delta":186086346},{"NoteNumber":65,"Velocity":22,"Duration":317492,"SoundDuration":317492,"Delta":186415459},{"NoteNumber":56,"Velocity":22,"Duration":303030,"SoundDuration":303030,"Delta":186732952},{"NoteNumber":65,"Velocity":22,"Duration":303030,"SoundDuration":303030,"Delta":187035982},{"NoteNumber":59,"Velocity":21,"Duration":303471,"SoundDuration":303471,"Delta":187339012},{"NoteNumber":53,"Velocity":21,"Duration":315297,"SoundDuration":315297,"Delta":187642484},{"NoteNumber":73,"Velocity":47,"Duration":98251,"SoundDuration":98251,"Delta":187957781},{"NoteNumber":49,"Velocity":28,"Duration":351751,"SoundDuration":351751,"Delta":187957781},{"NoteNumber":75,"Velocity":43,"Duration":91740,"SoundDuration":91740,"Delta":188040407},{"NoteNumber":73,"Velocity":47,"Duration":85851,"SoundDuration":85851,"Delta":188117403},{"NoteNumber":75,"Velocity":43,"Duration":80849,"SoundDuration":80849,"Delta":188189210},{"NoteNumber":73,"Velocity":47,"Duration":78785,"SoundDuration":78785,"Delta":188256789},{"NoteNumber":75,"Velocity":43,"Duration":77641,"SoundDuration":77641,"Delta":188309533},{"NoteNumber":65,"Velocity":23,"Duration":312970,"SoundDuration":312970,"Delta":188309533},{"NoteNumber":73,"Velocity":47,"Duration":77319,"SoundDuration":77319,"Delta":188361401},{"NoteNumber":75,"Velocity":43,"Duration":77802,"SoundDuration":77802,"Delta":188412948},{"NoteNumber":73,"Velocity":47,"Duration":78399,"SoundDuration":78399,"Delta":188464709},{"NoteNumber":75,"Velocity":43,"Duration":79115,"SoundDuration":79115,"Delta":188516792},{"NoteNumber":73,"Velocity":47,"Duration":79367,"SoundDuration":79367,"Delta":188569424},{"NoteNumber":72,"Velocity":47,"Duration":105152,"SoundDuration":105152,"Delta":188622503},{"NoteNumber":56,"Velocity":25,"Duration":315457,"SoundDuration":315457,"Delta":188622503},{"NoteNumber":73,"Velocity":46,"Duration":105152,"SoundDuration":105152,"Delta":188727656},{"NoteNumber":75,"Velocity":47,"Duration":105152,"SoundDuration":105152,"Delta":188832808},{"NoteNumber":77,"Velocity":48,"Duration":105152,"SoundDuration":105152,"Delta":188937961},{"NoteNumber":65,"Velocity":27,"Duration":315457,"SoundDuration":315457,"Delta":188937961},{"NoteNumber":78,"Velocity":49,"Duration":105152,"SoundDuration":105152,"Delta":189043113},{"NoteNumber":80,"Velocity":50,"Duration":105152,"SoundDuration":105152,"Delta":189148266},{"NoteNumber":82,"Velocity":51,"Duration":104714,"SoundDuration":104714,"Delta":189253418},{"NoteNumber":59,"Velocity":28,"Duration":320962,"SoundDuration":320962,"Delta":189253418},{"NoteNumber":83,"Velocity":52,"Duration":106954,"SoundDuration":106954,"Delta":189358133},{"NoteNumber":85,"Velocity":53,"Duration":109292,"SoundDuration":109292,"Delta":189465088},{"NoteNumber":87,"Velocity":54,"Duration":112997,"SoundDuration":112997,"Delta":189574381},{"NoteNumber":53,"Velocity":30,"Duration":347673,"SoundDuration":347673,"Delta":189574381},{"NoteNumber":89,"Velocity":55,"Duration":115610,"SoundDuration":115610,"Delta":189687379},{"NoteNumber":90,"Velocity":55,"Duration":119064,"SoundDuration":119064,"Delta":189802990},{"NoteNumber":94,"Velocity":57,"Duration":90181,"SoundDuration":90181,"Delta":189922054},{"NoteNumber":49,"Velocity":33,"Duration":354059,"SoundDuration":354059,"Delta":189922054},{"NoteNumber":92,"Velocity":55,"Duration":89111,"SoundDuration":89111,"Delta":190012236},{"NoteNumber":95,"Velocity":52,"Duration":87893,"SoundDuration":87893,"Delta":190101347},{"NoteNumber":91,"Velocity":52,"Duration":86873,"SoundDuration":86873,"Delta":190189240},{"NoteNumber":92,"Velocity":52,"Duration":85391,"SoundDuration":85391,"Delta":190276114},{"NoteNumber":65,"Velocity":28,"Duration":335268,"SoundDuration":335268,"Delta":190276114},{"NoteNumber":91,"Velocity":52,"Duration":84428,"SoundDuration":84428,"Delta":190361505},{"NoteNumber":95,"Velocity":52,"Duration":83179,"SoundDuration":83179,"Delta":190445933},{"NoteNumber":90,"Velocity":52,"Duration":82269,"SoundDuration":82269,"Delta":190529113},{"NoteNumber":91,"Velocity":49,"Duration":80663,"SoundDuration":80663,"Delta":190611382},{"NoteNumber":56,"Velocity":28,"Duration":316133,"SoundDuration":316133,"Delta":190611382},{"NoteNumber":90,"Velocity":49,"Duration":78947,"SoundDuration":78947,"Delta":190692046},{"NoteNumber":95,"Velocity":50,"Duration":78397,"SoundDuration":78397,"Delta":190770993},{"NoteNumber":89,"Velocity":50,"Duration":78125,"SoundDuration":78125,"Delta":190849391},{"NoteNumber":90,"Velocity":51,"Duration":77586,"SoundDuration":77586,"Delta":190927516},{"NoteNumber":65,"Velocity":28,"Duration":307705,"SoundDuration":307705,"Delta":190927516},{"NoteNumber":89,"Velocity":52,"Duration":77055,"SoundDuration":77055,"Delta":191005103},{"NoteNumber":95,"Velocity":52,"Duration":76792,"SoundDuration":76792,"Delta":191082158},{"NoteNumber":88,"Velocity":53,"Duration":76271,"SoundDuration":76271,"Delta":191158950},{"NoteNumber":89,"Velocity":53,"Duration":75757,"SoundDuration":75757,"Delta":191235222},{"NoteNumber":59,"Velocity":28,"Duration":302395,"SoundDuration":302395,"Delta":191235222},{"NoteNumber":88,"Velocity":54,"Duration":75376,"SoundDuration":75376,"Delta":191310980},{"NoteNumber":95,"Velocity":55,"Duration":75503,"SoundDuration":75503,"Delta":191386357},{"NoteNumber":87,"Velocity":55,"Duration":75757,"SoundDuration":75757,"Delta":191461860},{"NoteNumber":88,"Velocity":56,"Duration":76142,"SoundDuration":76142,"Delta":191537618},{"NoteNumber":53,"Velocity":28,"Duration":316421,"SoundDuration":316421,"Delta":191537618},{"NoteNumber":87,"Velocity":57,"Duration":76664,"SoundDuration":76664,"Delta":191613760},{"NoteNumber":95,"Velocity":57,"Duration":79800,"SoundDuration":79800,"Delta":191690424},{"NoteNumber":86,"Velocity":57,"Duration":83814,"SoundDuration":83814,"Delta":191770225},{"NoteNumber":85,"Velocity":57,"Duration":83798,"SoundDuration":83798,"Delta":191854040},{"NoteNumber":49,"Velocity":28,"Duration":321707,"SoundDuration":321707,"Delta":191854040},{"NoteNumber":87,"Velocity":58,"Duration":80288,"SoundDuration":80288,"Delta":191937838},{"NoteNumber":85,"Velocity":59,"Duration":78671,"SoundDuration":78671,"Delta":192018127},{"NoteNumber":84,"Velocity":59,"Duration":78947,"SoundDuration":78947,"Delta":192096799},{"NoteNumber":85,"Velocity":60,"Duration":79365,"SoundDuration":79365,"Delta":192175747},{"NoteNumber":65,"Velocity":29,"Duration":318872,"SoundDuration":318872,"Delta":192175747},{"NoteNumber":87,"Velocity":61,"Duration":79646,"SoundDuration":79646,"Delta":192255112},{"NoteNumber":89,"Velocity":61,"Duration":79929,"SoundDuration":79929,"Delta":192334758},{"NoteNumber":90,"Velocity":62,"Duration":79930,"SoundDuration":79930,"Delta":192414688},{"NoteNumber":92,"Velocity":62,"Duration":82888,"SoundDuration":82888,"Delta":192494619},{"NoteNumber":56,"Velocity":30,"Duration":359808,"SoundDuration":359808,"Delta":192494619},{"NoteNumber":94,"Velocity":62,"Duration":87226,"SoundDuration":87226,"Delta":192577507},{"NoteNumber":95,"Velocity":64,"Duration":92045,"SoundDuration":92045,"Delta":192664734},{"NoteNumber":97,"Velocity":66,"Duration":97647,"SoundDuration":97647,"Delta":192756779},{"NoteNumber":101,"Velocity":65,"Duration":87719,"SoundDuration":87719,"Delta":192854427},{"NoteNumber":65,"Velocity":30,"Duration":352949,"SoundDuration":352949,"Delta":192854427},{"NoteNumber":99,"Velocity":64,"Duration":88063,"SoundDuration":88063,"Delta":192942146},{"NoteNumber":97,"Velocity":62,"Duration":88409,"SoundDuration":88409,"Delta":193030210},{"NoteNumber":95,"Velocity":61,"Duration":88757,"SoundDuration":88757,"Delta":193118619},{"NoteNumber":92,"Velocity":59,"Duration":89287,"SoundDuration":89287,"Delta":193207376},{"NoteNumber":59,"Velocity":29,"Duration":367136,"SoundDuration":367136,"Delta":193207376},{"NoteNumber":89,"Velocity":58,"Duration":90911,"SoundDuration":90911,"Delta":193296664},{"NoteNumber":85,"Velocity":57,"Duration":92594,"SoundDuration":92594,"Delta":193387575},{"NoteNumber":83,"Velocity":56,"Duration":94342,"SoundDuration":94342,"Delta":193480170},{"NoteNumber":80,"Velocity":54,"Duration":96156,"SoundDuration":96156,"Delta":193574512},{"NoteNumber":53,"Velocity":28,"Duration":395552,"SoundDuration":395552,"Delta":193574512},{"NoteNumber":77,"Velocity":53,"Duration":98042,"SoundDuration":98042,"Delta":193670669},{"NoteNumber":73,"Velocity":51,"Duration":100002,"SoundDuration":100002,"Delta":193768711},{"NoteNumber":71,"Velocity":50,"Duration":101351,"SoundDuration":101351,"Delta":193868714},{"NoteNumber":70,"Velocity":53,"Duration":1026711,"SoundDuration":1026711,"Delta":193970065},{"NoteNumber":50,"Velocity":29,"Duration":361515,"SoundDuration":361515,"Delta":193970065},{"NoteNumber":65,"Velocity":22,"Duration":339109,"SoundDuration":339109,"Delta":194331581},{"NoteNumber":56,"Velocity":22,"Duration":326087,"SoundDuration":326087,"Delta":194670690},{"NoteNumber":69,"Velocity":48,"Duration":163043,"SoundDuration":163043,"Delta":194996777},{"NoteNumber":65,"Velocity":22,"Duration":326087,"SoundDuration":326087,"Delta":194996777},{"NoteNumber":70,"Velocity":50,"Duration":163043,"SoundDuration":163043,"Delta":195159820},{"NoteNumber":71,"Velocity":53,"Duration":163640,"SoundDuration":163640,"Delta":195322864},{"NoteNumber":58,"Velocity":21,"Duration":330931,"SoundDuration":330931,"Delta":195322864},{"NoteNumber":70,"Velocity":50,"Duration":167290,"SoundDuration":167290,"Delta":195486505},{"NoteNumber":73,"Velocity":52,"Duration":114289,"SoundDuration":114289,"Delta":195653795},{"NoteNumber":53,"Velocity":21,"Duration":353139,"SoundDuration":353139,"Delta":195653795},{"NoteNumber":71,"Velocity":50,"Duration":116826,"SoundDuration":116826,"Delta":195768085},{"NoteNumber":70,"Velocity":48,"Duration":122023,"SoundDuration":122023,"Delta":195884911},{"NoteNumber":70,"Velocity":50,"Duration":1305429,"SoundDuration":1305429,"Delta":196006935},{"NoteNumber":50,"Velocity":28,"Duration":351933,"SoundDuration":351933,"Delta":196006935},{"NoteNumber":65,"Velocity":23,"Duration":322580,"SoundDuration":322580,"Delta":196358869},{"NoteNumber":56,"Velocity":25,"Duration":315457,"SoundDuration":315457,"Delta":196681449},{"NoteNumber":65,"Velocity":27,"Duration":315457,"SoundDuration":315457,"Delta":196996907},{"NoteNumber":82,"Velocity":54,"Duration":1301378,"SoundDuration":1301378,"Delta":197312364},{"NoteNumber":58,"Velocity":28,"Duration":320962,"SoundDuration":320962,"Delta":197312364},{"NoteNumber":53,"Velocity":30,"Duration":348837,"SoundDuration":348837,"Delta":197633327},{"NoteNumber":78,"Velocity":59,"Duration":631578,"SoundDuration":631578,"Delta":197982164},{"NoteNumber":51,"Velocity":35,"Duration":315789,"SoundDuration":315789,"Delta":197982164},{"NoteNumber":66,"Velocity":28,"Duration":315789,"SoundDuration":315789,"Delta":198297954},{"NoteNumber":83,"Velocity":61,"Duration":618556,"SoundDuration":618556,"Delta":198613743},{"NoteNumber":80,"Velocity":55,"Duration":618556,"SoundDuration":618556,"Delta":198613743},{"NoteNumber":58,"Velocity":28,"Duration":309278,"SoundDuration":309278,"Delta":198613743},{"NoteNumber":66,"Velocity":28,"Duration":309278,"SoundDuration":309278,"Delta":198923022},{"NoteNumber":75,"Velocity":51,"Duration":448036,"SoundDuration":448036,"Delta":199232300},{"NoteNumber":78,"Velocity":61,"Duration":448036,"SoundDuration":448036,"Delta":199232300},{"NoteNumber":63,"Velocity":28,"Duration":288461,"SoundDuration":288461,"Delta":199232300},{"NoteNumber":54,"Velocity":28,"Duration":319149,"SoundDuration":319149,"Delta":199520761},{"NoteNumber":75,"Velocity":50,"Duration":159574,"SoundDuration":159574,"Delta":199680336},{"NoteNumber":78,"Velocity":59,"Duration":159574,"SoundDuration":159574,"Delta":199680336},{"NoteNumber":78,"Velocity":56,"Duration":309278,"SoundDuration":309278,"Delta":199839910},{"NoteNumber":82,"Velocity":66,"Duration":309278,"SoundDuration":309278,"Delta":199839910},{"NoteNumber":51,"Velocity":35,"Duration":309278,"SoundDuration":309278,"Delta":199839910},{"NoteNumber":68,"Velocity":30,"Duration":309278,"SoundDuration":309278,"Delta":200149189},{"NoteNumber":80,"Velocity":60,"Duration":154639,"SoundDuration":154639,"Delta":200303828},{"NoteNumber":77,"Velocity":51,"Duration":154639,"SoundDuration":154639,"Delta":200303828},{"NoteNumber":80,"Velocity":58,"Duration":60240,"SoundDuration":60240,"Delta":200458467},{"NoteNumber":77,"Velocity":58,"Duration":60240,"SoundDuration":60240,"Delta":200458467},{"NoteNumber":58,"Velocity":31,"Duration":341973,"SoundDuration":341973,"Delta":200458467},{"NoteNumber":82,"Velocity":52,"Duration":60240,"SoundDuration":60240,"Delta":200518708},{"NoteNumber":78,"Velocity":52,"Duration":60240,"SoundDuration":60240,"Delta":200518708},{"NoteNumber":80,"Velocity":57,"Duration":120481,"SoundDuration":120481,"Delta":200578949},{"NoteNumber":77,"Velocity":57,"Duration":120481,"SoundDuration":120481,"Delta":200578949},{"NoteNumber":75,"Velocity":50,"Duration":202020,"SoundDuration":202020,"Delta":200699431},{"NoteNumber":78,"Velocity":59,"Duration":202020,"SoundDuration":202020,"Delta":200699431},{"NoteNumber":68,"Velocity":31,"Duration":303030,"SoundDuration":303030,"Delta":200800441},{"NoteNumber":77,"Velocity":51,"Duration":202020,"SoundDuration":202020,"Delta":200901451},{"NoteNumber":80,"Velocity":60,"Duration":202020,"SoundDuration":202020,"Delta":200901451},{"NoteNumber":82,"Velocity":63,"Duration":209843,"SoundDuration":209843,"Delta":201103471},{"NoteNumber":78,"Velocity":54,"Duration":104188,"SoundDuration":104188,"Delta":201103471},{"NoteNumber":62,"Velocity":31,"Duration":316500,"SoundDuration":316500,"Delta":201103471},{"NoteNumber":53,"Velocity":31,"Duration":324675,"SoundDuration":324675,"Delta":201419972},{"NoteNumber":74,"Velocity":55,"Duration":108225,"SoundDuration":108225,"Delta":201636422},{"NoteNumber":77,"Velocity":65,"Duration":108225,"SoundDuration":108225,"Delta":201636422},{"NoteNumber":80,"Velocity":62,"Duration":630583,"SoundDuration":630583,"Delta":201744647},{"NoteNumber":77,"Velocity":53,"Duration":630583,"SoundDuration":630583,"Delta":201744647},{"NoteNumber":51,"Velocity":44,"Duration":321305,"SoundDuration":321305,"Delta":201744647},{"NoteNumber":66,"Velocity":34,"Duration":309278,"SoundDuration":309278,"Delta":202065953},{"NoteNumber":78,"Velocity":57,"Duration":297029,"SoundDuration":297029,"Delta":202375231},{"NoteNumber":75,"Velocity":57,"Duration":297029,"SoundDuration":297029,"Delta":202375231},{"NoteNumber":58,"Velocity":34,"Duration":297029,"SoundDuration":297029,"Delta":202375231},{"NoteNumber":66,"Velocity":34,"Duration":297029,"SoundDuration":297029,"Delta":202672261},{"NoteNumber":78,"Velocity":56,"Duration":148514,"SoundDuration":148514,"Delta":202820776},{"NoteNumber":87,"Velocity":66,"Duration":148514,"SoundDuration":148514,"Delta":202820776},{"NoteNumber":78,"Velocity":55,"Duration":198019,"SoundDuration":198019,"Delta":202969291},{"NoteNumber":87,"Velocity":65,"Duration":198019,"SoundDuration":198019,"Delta":202969291},{"NoteNumber":63,"Velocity":34,"Duration":297029,"SoundDuration":297029,"Delta":202969291},{"NoteNumber":77,"Velocity":52,"Duration":205392,"SoundDuration":205392,"Delta":203167310},{"NoteNumber":85,"Velocity":61,"Duration":205392,"SoundDuration":205392,"Delta":203167310},{"NoteNumber":54,"Velocity":34,"Duration":319149,"SoundDuration":319149,"Delta":203266320},{"NoteNumber":75,"Velocity":52,"Duration":212766,"SoundDuration":212766,"Delta":203372703},{"NoteNumber":83,"Velocity":61,"Duration":212766,"SoundDuration":212766,"Delta":203372703},{"NoteNumber":74,"Velocity":57,"Duration":212765,"SoundDuration":212765,"Delta":203585469},{"NoteNumber":82,"Velocity":68,"Duration":212765,"SoundDuration":212765,"Delta":203585469},{"NoteNumber":46,"Velocity":45,"Duration":319148,"SoundDuration":319148,"Delta":203585469},{"NoteNumber":70,"Velocity":49,"Duration":106382,"SoundDuration":106382,"Delta":203798235},{"NoteNumber":82,"Velocity":58,"Duration":106382,"SoundDuration":106382,"Delta":203798235},{"NoteNumber":65,"Velocity":35,"Duration":302040,"SoundDuration":302040,"Delta":203904618},{"NoteNumber":71,"Velocity":50,"Duration":99999,"SoundDuration":99999,"Delta":204004618},{"NoteNumber":82,"Velocity":60,"Duration":99999,"SoundDuration":99999,"Delta":204004618},{"NoteNumber":72,"Velocity":52,"Duration":102040,"SoundDuration":102040,"Delta":204206659},{"NoteNumber":82,"Velocity":62,"Duration":102040,"SoundDuration":102040,"Delta":204206659},{"NoteNumber":58,"Velocity":37,"Duration":308763,"SoundDuration":308763,"Delta":204206659},{"NoteNumber":73,"Velocity":53,"Duration":103629,"SoundDuration":103629,"Delta":204411793},{"NoteNumber":82,"Velocity":63,"Duration":103629,"SoundDuration":103629,"Delta":204411793},{"NoteNumber":65,"Velocity":39,"Duration":315252,"SoundDuration":315252,"Delta":204515422},{"NoteNumber":74,"Velocity":56,"Duration":105263,"SoundDuration":105263,"Delta":204619589},{"NoteNumber":82,"Velocity":66,"Duration":105263,"SoundDuration":105263,"Delta":204619589},{"NoteNumber":75,"Velocity":57,"Duration":106382,"SoundDuration":106382,"Delta":204830675},{"NoteNumber":82,"Velocity":68,"Duration":106382,"SoundDuration":106382,"Delta":204830675},{"NoteNumber":62,"Velocity":40,"Duration":324994,"SoundDuration":324994,"Delta":204830675},{"NoteNumber":76,"Velocity":59,"Duration":110500,"SoundDuration":110500,"Delta":205045170},{"NoteNumber":82,"Velocity":70,"Duration":110500,"SoundDuration":110500,"Delta":205045170},{"NoteNumber":53,"Velocity":42,"Duration":346956,"SoundDuration":346956,"Delta":205155670},{"NoteNumber":77,"Velocity":60,"Duration":115610,"SoundDuration":115610,"Delta":205268668},{"NoteNumber":82,"Velocity":71,"Duration":115610,"SoundDuration":115610,"Delta":205268668},{"NoteNumber":78,"Velocity":59,"Duration":638297,"SoundDuration":638297,"Delta":205502626},{"NoteNumber":82,"Velocity":67,"Duration":638297,"SoundDuration":638297,"Delta":205502626},{"NoteNumber":39,"Velocity":35,"Duration":319149,"SoundDuration":319149,"Delta":205502626},{"NoteNumber":66,"Velocity":28,"Duration":319148,"SoundDuration":319148,"Delta":205821775},{"NoteNumber":83,"Velocity":61,"Duration":882520,"SoundDuration":882520,"Delta":206140924},{"NoteNumber":80,"Velocity":55,"Duration":882520,"SoundDuration":882520,"Delta":206140924},{"NoteNumber":58,"Velocity":28,"Duration":297029,"SoundDuration":297029,"Delta":206140924},{"NoteNumber":66,"Velocity":28,"Duration":297029,"SoundDuration":297029,"Delta":206437954},{"NoteNumber":63,"Velocity":28,"Duration":288461,"SoundDuration":288461,"Delta":206734984},{"NoteNumber":75,"Velocity":55,"Duration":159574,"SoundDuration":159574,"Delta":207023445},{"NoteNumber":78,"Velocity":65,"Duration":159574,"SoundDuration":159574,"Delta":207023445},{"NoteNumber":54,"Velocity":28,"Duration":319149,"SoundDuration":319149,"Delta":207023445},{"NoteNumber":75,"Velocity":50,"Duration":159574,"SoundDuration":159574,"Delta":207183020},{"NoteNumber":78,"Velocity":59,"Duration":159574,"SoundDuration":159574,"Delta":207183020},{"NoteNumber":78,"Velocity":56,"Duration":309278,"SoundDuration":309278,"Delta":207342594},{"NoteNumber":82,"Velocity":66,"Duration":309278,"SoundDuration":309278,"Delta":207342594},{"NoteNumber":51,"Velocity":35,"Duration":309278,"SoundDuration":309278,"Delta":207342594},{"NoteNumber":68,"Velocity":30,"Duration":309278,"SoundDuration":309278,"Delta":207651873},{"NoteNumber":80,"Velocity":60,"Duration":154639,"SoundDuration":154639,"Delta":207806512},{"NoteNumber":77,"Velocity":51,"Duration":154639,"SoundDuration":154639,"Delta":207806512},{"NoteNumber":80,"Velocity":58,"Duration":60240,"SoundDuration":60240,"Delta":207961151},{"NoteNumber":77,"Velocity":58,"Duration":60240,"SoundDuration":60240,"Delta":207961151},{"NoteNumber":58,"Velocity":31,"Duration":341973,"SoundDuration":341973,"Delta":207961151},{"NoteNumber":82,"Velocity":52,"Duration":60240,"SoundDuration":60240,"Delta":208021392},{"NoteNumber":78,"Velocity":52,"Duration":60240,"SoundDuration":60240,"Delta":208021392},{"NoteNumber":80,"Velocity":57,"Duration":120481,"SoundDuration":120481,"Delta":208081633},{"NoteNumber":77,"Velocity":57,"Duration":120481,"SoundDuration":120481,"Delta":208081633},{"NoteNumber":75,"Velocity":50,"Duration":202020,"SoundDuration":202020,"Delta":208202115},{"NoteNumber":78,"Velocity":59,"Duration":202020,"SoundDuration":202020,"Delta":208202115},{"NoteNumber":68,"Velocity":31,"Duration":303030,"SoundDuration":303030,"Delta":208303125},{"NoteNumber":77,"Velocity":51,"Duration":202020,"SoundDuration":202020,"Delta":208404135},{"NoteNumber":80,"Velocity":60,"Duration":202020,"SoundDuration":202020,"Delta":208404135},{"NoteNumber":77,"Velocity":52,"Duration":209843,"SoundDuration":209843,"Delta":208606155},{"NoteNumber":80,"Velocity":61,"Duration":209843,"SoundDuration":209843,"Delta":208606155},{"NoteNumber":62,"Velocity":31,"Duration":316500,"SoundDuration":316500,"Delta":208606155},{"NoteNumber":78,"Velocity":54,"Duration":106657,"SoundDuration":106657,"Delta":208815998},{"NoteNumber":82,"Velocity":63,"Duration":214882,"SoundDuration":214882,"Delta":208815998},{"NoteNumber":53,"Velocity":31,"Duration":324675,"SoundDuration":324675,"Delta":208922656},{"NoteNumber":74,"Velocity":55,"Duration":108225,"SoundDuration":108225,"Delta":209139106},{"NoteNumber":77,"Velocity":65,"Duration":108225,"SoundDuration":108225,"Delta":209139106},{"NoteNumber":80,"Velocity":62,"Duration":630583,"SoundDuration":630583,"Delta":209247331},{"NoteNumber":77,"Velocity":53,"Duration":630583,"SoundDuration":630583,"Delta":209247331},{"NoteNumber":51,"Velocity":44,"Duration":321305,"SoundDuration":321305,"Delta":209247331},{"NoteNumber":66,"Velocity":34,"Duration":309278,"SoundDuration":309278,"Delta":209568637},{"NoteNumber":78,"Velocity":57,"Duration":297029,"SoundDuration":297029,"Delta":209877915},{"NoteNumber":75,"Velocity":57,"Duration":297029,"SoundDuration":297029,"Delta":209877915},{"NoteNumber":58,"Velocity":34,"Duration":297029,"SoundDuration":297029,"Delta":209877915},{"NoteNumber":66,"Velocity":34,"Duration":297029,"SoundDuration":297029,"Delta":210174945},{"NoteNumber":90,"Velocity":71,"Duration":904640,"SoundDuration":904640,"Delta":210471975},{"NoteNumber":82,"Velocity":60,"Duration":904640,"SoundDuration":904640,"Delta":210471975},{"NoteNumber":63,"Velocity":34,"Duration":297029,"SoundDuration":297029,"Delta":210471975},{"NoteNumber":54,"Velocity":34,"Duration":319149,"SoundDuration":319149,"Delta":210769004},{"NoteNumber":42,"Velocity":65,"Duration":288461,"SoundDuration":288461,"Delta":211088153},{"NoteNumber":89,"Velocity":73,"Duration":150000,"SoundDuration":150000,"Delta":211376615},{"NoteNumber":80,"Velocity":62,"Duration":150000,"SoundDuration":150000,"Delta":211376615},{"NoteNumber":63,"Velocity":40,"Duration":298639,"SoundDuration":298639,"Delta":211376615},{"NoteNumber":78,"Velocity":56,"Duration":95238,"SoundDuration":95238,"Delta":211675254},{"NoteNumber":87,"Velocity":67,"Duration":95238,"SoundDuration":95238,"Delta":211675254},{"NoteNumber":54,"Velocity":42,"Duration":288479,"SoundDuration":288479,"Delta":211675254},{"NoteNumber":77,"Velocity":57,"Duration":97087,"SoundDuration":97087,"Delta":211866646},{"NoteNumber":85,"Velocity":68,"Duration":97087,"SoundDuration":97087,"Delta":211866646},{"NoteNumber":63,"Velocity":44,"Duration":297049,"SoundDuration":297049,"Delta":211963734},{"NoteNumber":75,"Velocity":59,"Duration":99009,"SoundDuration":99009,"Delta":212061773},{"NoteNumber":84,"Velocity":70,"Duration":99009,"SoundDuration":99009,"Delta":212061773},{"NoteNumber":73,"Velocity":60,"Duration":102566,"SoundDuration":102566,"Delta":212260783},{"NoteNumber":82,"Velocity":71,"Duration":102566,"SoundDuration":102566,"Delta":212260783},{"NoteNumber":58,"Velocity":46,"Duration":314236,"SoundDuration":314236,"Delta":212260783},{"NoteNumber":72,"Velocity":61,"Duration":106954,"SoundDuration":106954,"Delta":212468064},{"NoteNumber":80,"Velocity":72,"Duration":106954,"SoundDuration":106954,"Delta":212468064},{"NoteNumber":51,"Velocity":48,"Duration":340013,"SoundDuration":340013,"Delta":212575019},{"NoteNumber":70,"Velocity":62,"Duration":112373,"SoundDuration":112373,"Delta":212684312},{"NoteNumber":78,"Velocity":73,"Duration":112373,"SoundDuration":112373,"Delta":212684312},{"NoteNumber":68,"Velocity":61,"Duration":630583,"SoundDuration":630583,"Delta":212915033},{"NoteNumber":77,"Velocity":72,"Duration":630583,"SoundDuration":630583,"Delta":212915033},{"NoteNumber":44,"Velocity":52,"Duration":321305,"SoundDuration":321305,"Delta":212915033},{"NoteNumber":61,"Velocity":44,"Duration":309278,"SoundDuration":309278,"Delta":213236339},{"NoteNumber":70,"Velocity":64,"Duration":594059,"SoundDuration":594059,"Delta":213545617},{"NoteNumber":78,"Velocity":76,"Duration":594059,"SoundDuration":594059,"Delta":213545617},{"NoteNumber":53,"Velocity":44,"Duration":297029,"SoundDuration":297029,"Delta":213545617},{"NoteNumber":61,"Velocity":44,"Duration":297029,"SoundDuration":297029,"Delta":213842647},{"NoteNumber":68,"Velocity":62,"Duration":616178,"SoundDuration":616178,"Delta":214139677},{"NoteNumber":77,"Velocity":74,"Duration":616178,"SoundDuration":616178,"Delta":214139677},{"NoteNumber":56,"Velocity":44,"Duration":297029,"SoundDuration":297029,"Delta":214139677},{"NoteNumber":44,"Velocity":44,"Duration":319149,"SoundDuration":319149,"Delta":214436707},{"NoteNumber":66,"Velocity":62,"Duration":597029,"SoundDuration":597029,"Delta":214755856},{"NoteNumber":75,"Velocity":73,"Duration":597029,"SoundDuration":597029,"Delta":214755856},{"NoteNumber":46,"Velocity":57,"Duration":297029,"SoundDuration":297029,"Delta":214755856},{"NoteNumber":61,"Velocity":48,"Duration":300000,"SoundDuration":300000,"Delta":215052885},{"NoteNumber":65,"Velocity":60,"Duration":599999,"SoundDuration":599999,"Delta":215352885},{"NoteNumber":73,"Velocity":71,"Duration":599999,"SoundDuration":599999,"Delta":215352885},{"NoteNumber":53,"Velocity":48,"Duration":299999,"SoundDuration":299999,"Delta":215352885},{"NoteNumber":61,"Velocity":48,"Duration":300000,"SoundDuration":300000,"Delta":215652885},{"NoteNumber":61,"Velocity":60,"Duration":640323,"SoundDuration":640323,"Delta":215952885},{"NoteNumber":65,"Velocity":71,"Duration":640323,"SoundDuration":640323,"Delta":215952885},{"NoteNumber":58,"Velocity":48,"Duration":314236,"SoundDuration":314236,"Delta":215952885},{"NoteNumber":46,"Velocity":49,"Duration":326087,"SoundDuration":326087,"Delta":216267122},{"NoteNumber":61,"Velocity":65,"Duration":1872031,"SoundDuration":1872031,"Delta":216593209},{"NoteNumber":68,"Velocity":77,"Duration":1872031,"SoundDuration":1872031,"Delta":216593209},{"NoteNumber":41,"Velocity":58,"Duration":312500,"SoundDuration":312500,"Delta":216593209},{"NoteNumber":56,"Velocity":51,"Duration":312500,"SoundDuration":312500,"Delta":216905709},{"NoteNumber":49,"Velocity":51,"Duration":300000,"SoundDuration":300000,"Delta":217218209},{"NoteNumber":56,"Velocity":51,"Duration":299999,"SoundDuration":299999,"Delta":217518209},{"NoteNumber":49,"Velocity":51,"Duration":306122,"SoundDuration":306122,"Delta":217818209},{"NoteNumber":41,"Velocity":52,"Duration":340909,"SoundDuration":340909,"Delta":218124331},{"NoteNumber":63,"Velocity":66,"Duration":1928318,"SoundDuration":1928318,"Delta":218465240},{"NoteNumber":61,"Velocity":66,"Duration":1928318,"SoundDuration":1928318,"Delta":218465240},{"NoteNumber":70,"Velocity":78,"Duration":1928318,"SoundDuration":1928318,"Delta":218465240},{"NoteNumber":42,"Velocity":64,"Duration":319149,"SoundDuration":319149,"Delta":218465240},{"NoteNumber":58,"Velocity":51,"Duration":319148,"SoundDuration":319148,"Delta":218784389},{"NoteNumber":49,"Velocity":52,"Duration":303030,"SoundDuration":303030,"Delta":219103538},{"NoteNumber":58,"Velocity":54,"Duration":321449,"SoundDuration":321449,"Delta":219406569},{"NoteNumber":51,"Velocity":55,"Duration":329086,"SoundDuration":329086,"Delta":219728018},{"NoteNumber":42,"Velocity":56,"Duration":336454,"SoundDuration":336454,"Delta":220057104},{"NoteNumber":56,"Velocity":66,"Duration":1590273,"SoundDuration":1590273,"Delta":220393559},{"NoteNumber":61,"Velocity":66,"Duration":645161,"SoundDuration":645161,"Delta":220393559},{"NoteNumber":63,"Velocity":78,"Duration":1066214,"SoundDuration":1066214,"Delta":220393559},{"NoteNumber":32,"Velocity":58,"Duration":322580,"SoundDuration":322580,"Delta":220393559},{"NoteNumber":61,"Velocity":51,"Duration":954159,"SoundDuration":954159,"Delta":220716140},{"NoteNumber":51,"Velocity":51,"Duration":315789,"SoundDuration":315789,"Delta":221038720},{"NoteNumber":61,"Velocity":51,"Duration":968489,"SoundDuration":968489,"Delta":221354510},{"NoteNumber":68,"Velocity":61,"Duration":105263,"SoundDuration":105263,"Delta":221459773},{"NoteNumber":73,"Velocity":63,"Duration":105263,"SoundDuration":105263,"Delta":221565036},{"NoteNumber":75,"Velocity":65,"Duration":105263,"SoundDuration":105263,"Delta":221670299},{"NoteNumber":56,"Velocity":51,"Duration":652700,"SoundDuration":652700,"Delta":221670299},{"NoteNumber":80,"Velocity":67,"Duration":105263,"SoundDuration":105263,"Delta":221775562},{"NoteNumber":85,"Velocity":68,"Duration":103007,"SoundDuration":103007,"Delta":221880826},{"NoteNumber":87,"Velocity":70,"Duration":107081,"SoundDuration":107081,"Delta":221983833},{"NoteNumber":51,"Velocity":52,"Duration":339166,"SoundDuration":339166,"Delta":221983833},{"NoteNumber":92,"Velocity":72,"Duration":113140,"SoundDuration":113140,"Delta":222090914},{"NoteNumber":97,"Velocity":73,"Duration":118944,"SoundDuration":118944,"Delta":222204054},{"NoteNumber":99,"Velocity":92,"Duration":1100732,"SoundDuration":1100732,"Delta":222322999},{"NoteNumber":44,"Velocity":64,"Duration":329670,"SoundDuration":329670,"Delta":222322999},{"NoteNumber":61,"Velocity":51,"Duration":329670,"SoundDuration":329670,"Delta":222652670},{"NoteNumber":51,"Velocity":52,"Duration":330280,"SoundDuration":330280,"Delta":222982340},{"NoteNumber":61,"Velocity":54,"Duration":337121,"SoundDuration":337121,"Delta":223312621},{"NoteNumber":97,"Velocity":78,"Duration":112359,"SoundDuration":112359,"Delta":223423732},{"NoteNumber":92,"Velocity":76,"Duration":113651,"SoundDuration":113651,"Delta":223536091},{"NoteNumber":87,"Velocity":74,"Duration":116963,"SoundDuration":116963,"Delta":223649742},{"NoteNumber":56,"Velocity":55,"Duration":361690,"SoundDuration":361690,"Delta":223649742},{"NoteNumber":85,"Velocity":72,"Duration":120499,"SoundDuration":120499,"Delta":223766705},{"NoteNumber":80,"Velocity":69,"Duration":124228,"SoundDuration":124228,"Delta":223887205},{"NoteNumber":75,"Velocity":67,"Duration":128226,"SoundDuration":128226,"Delta":224011433},{"NoteNumber":51,"Velocity":56,"Duration":397694,"SoundDuration":397694,"Delta":224011433},{"NoteNumber":73,"Velocity":65,"Duration":132456,"SoundDuration":132456,"Delta":224139659},{"NoteNumber":68,"Velocity":63,"Duration":137012,"SoundDuration":137012,"Delta":224272115},{"NoteNumber":63,"Velocity":78,"Duration":1978332,"SoundDuration":1978332,"Delta":224409128},{"NoteNumber":32,"Velocity":58,"Duration":337078,"SoundDuration":337078,"Delta":224409128},{"NoteNumber":61,"Velocity":51,"Duration":337078,"SoundDuration":337078,"Delta":224746206},{"NoteNumber":51,"Velocity":51,"Duration":322580,"SoundDuration":322580,"Delta":225083285},{"NoteNumber":61,"Velocity":51,"Duration":320363,"SoundDuration":320363,"Delta":225405866},{"NoteNumber":54,"Velocity":51,"Duration":321511,"SoundDuration":321511,"Delta":225726229},{"NoteNumber":51,"Velocity":52,"Duration":339719,"SoundDuration":339719,"Delta":226047740},{"NoteNumber":65,"Velocity":66,"Duration":1026645,"SoundDuration":1026645,"Delta":226387460},{"NoteNumber":56,"Velocity":66,"Duration":2266878,"SoundDuration":2266878,"Delta":226387460},{"NoteNumber":68,"Velocity":78,"Duration":2266878,"SoundDuration":2266878,"Delta":226387460},{"NoteNumber":44,"Velocity":64,"Duration":340909,"SoundDuration":340909,"Delta":226387460},{"NoteNumber":60,"Velocity":51,"Duration":340908,"SoundDuration":340908,"Delta":226728369},{"NoteNumber":51,"Velocity":52,"Duration":344827,"SoundDuration":344827,"Delta":227069278},{"NoteNumber":63,"Velocity":72,"Duration":351458,"SoundDuration":351458,"Delta":227414106},{"NoteNumber":60,"Velocity":54,"Duration":351458,"SoundDuration":351458,"Delta":227414106},{"NoteNumber":65,"Velocity":78,"Duration":264958,"SoundDuration":264958,"Delta":227765565},{"NoteNumber":54,"Velocity":55,"Duration":402896,"SoundDuration":402896,"Delta":227765565},{"NoteNumber":63,"Velocity":75,"Duration":279788,"SoundDuration":279788,"Delta":228030523},{"NoteNumber":44,"Velocity":56,"Duration":485877,"SoundDuration":485877,"Delta":228168461},{"NoteNumber":61,"Velocity":75,"Duration":344026,"SoundDuration":344026,"Delta":228310312},{"NoteNumber":61,"Velocity":78,"Duration":1242620,"SoundDuration":1242620,"Delta":228654338},{"NoteNumber":37,"Velocity":64,"Duration":332153,"SoundDuration":332153,"Delta":228654338},{"NoteNumber":65,"Velocity":26,"Duration":316407,"SoundDuration":316407,"Delta":228986492},{"NoteNumber":56,"Velocity":26,"Duration":297029,"SoundDuration":297029,"Delta":229302899},{"NoteNumber":65,"Velocity":26,"Duration":297029,"SoundDuration":297029,"Delta":229599929},{"NoteNumber":61,"Velocity":26,"Duration":297029,"SoundDuration":297029,"Delta":229896959},{"NoteNumber":53,"Velocity":26,"Duration":333333,"SoundDuration":333333,"Delta":230193989},{"NoteNumber":85,"Velocity":62,"Duration":618556,"SoundDuration":618556,"Delta":230527322},{"NoteNumber":49,"Velocity":30,"Duration":309278,"SoundDuration":309278,"Delta":230527322},{"NoteNumber":64,"Velocity":26,"Duration":309278,"SoundDuration":309278,"Delta":230836600},{"NoteNumber":79,"Velocity":55,"Duration":1228516,"SoundDuration":1228516,"Delta":231145878},{"NoteNumber":58,"Velocity":26,"Duration":297029,"SoundDuration":297029,"Delta":231145878},{"NoteNumber":64,"Velocity":26,"Duration":297029,"SoundDuration":297029,"Delta":231442908},{"NoteNumber":61,"Velocity":26,"Duration":301123,"SoundDuration":301123,"Delta":231739938},{"NoteNumber":55,"Velocity":26,"Duration":333333,"SoundDuration":333333,"Delta":232041061},{"NoteNumber":84,"Velocity":62,"Duration":618556,"SoundDuration":618556,"Delta":232374395},{"NoteNumber":49,"Velocity":30,"Duration":309278,"SoundDuration":309278,"Delta":232374395},{"NoteNumber":63,"Velocity":26,"Duration":309278,"SoundDuration":309278,"Delta":232683673},{"NoteNumber":78,"Velocity":55,"Duration":1228516,"SoundDuration":1228516,"Delta":232992951},{"NoteNumber":57,"Velocity":26,"Duration":297029,"SoundDuration":297029,"Delta":232992951},{"NoteNumber":63,"Velocity":26,"Duration":297029,"SoundDuration":297029,"Delta":233289981},{"NoteNumber":60,"Velocity":26,"Duration":301123,"SoundDuration":301123,"Delta":233587011},{"NoteNumber":54,"Velocity":26,"Duration":333333,"SoundDuration":333333,"Delta":233888134},{"NoteNumber":83,"Velocity":62,"Duration":618556,"SoundDuration":618556,"Delta":234221467},{"NoteNumber":49,"Velocity":30,"Duration":1847072,"SoundDuration":1847072,"Delta":234221467},{"NoteNumber":62,"Velocity":26,"Duration":309278,"SoundDuration":309278,"Delta":234530746},{"NoteNumber":77,"Velocity":54,"Duration":1228516,"SoundDuration":1228516,"Delta":234840024},{"NoteNumber":56,"Velocity":25,"Duration":297029,"SoundDuration":297029,"Delta":234840024},{"NoteNumber":62,"Velocity":25,"Duration":297029,"SoundDuration":297029,"Delta":235137054},{"NoteNumber":59,"Velocity":25,"Duration":301123,"SoundDuration":301123,"Delta":235434083},{"NoteNumber":53,"Velocity":25,"Duration":333333,"SoundDuration":333333,"Delta":235735207},{"NoteNumber":82,"Velocity":60,"Duration":618556,"SoundDuration":618556,"Delta":236068540},{"NoteNumber":49,"Velocity":28,"Duration":1847072,"SoundDuration":1847072,"Delta":236068540},{"NoteNumber":61,"Velocity":25,"Duration":309278,"SoundDuration":309278,"Delta":236377819},{"NoteNumber":76,"Velocity":52,"Duration":1228516,"SoundDuration":1228516,"Delta":236687097},{"NoteNumber":55,"Velocity":24,"Duration":297029,"SoundDuration":297029,"Delta":236687097},{"NoteNumber":61,"Velocity":24,"Duration":297029,"SoundDuration":297029,"Delta":236984127},{"NoteNumber":58,"Velocity":24,"Duration":301123,"SoundDuration":301123,"Delta":237281156},{"NoteNumber":52,"Velocity":24,"Duration":333333,"SoundDuration":333333,"Delta":237582280},{"NoteNumber":81,"Velocity":58,"Duration":618556,"SoundDuration":618556,"Delta":237915613},{"NoteNumber":49,"Velocity":28,"Duration":1847072,"SoundDuration":1847072,"Delta":237915613},{"NoteNumber":61,"Velocity":23,"Duration":309278,"SoundDuration":309278,"Delta":238224891},{"NoteNumber":75,"Velocity":51,"Duration":1228516,"SoundDuration":1228516,"Delta":238534170},{"NoteNumber":54,"Velocity":23,"Duration":297029,"SoundDuration":297029,"Delta":238534170},{"NoteNumber":61,"Velocity":23,"Duration":297029,"SoundDuration":297029,"Delta":238831199},{"NoteNumber":57,"Velocity":23,"Duration":301123,"SoundDuration":301123,"Delta":239128229},{"NoteNumber":51,"Velocity":23,"Duration":333333,"SoundDuration":333333,"Delta":239429353},{"NoteNumber":80,"Velocity":60,"Duration":4943768,"SoundDuration":4943768,"Delta":239762686},{"NoteNumber":49,"Velocity":27,"Duration":309278,"SoundDuration":309278,"Delta":239762686},{"NoteNumber":60,"Velocity":22,"Duration":309278,"SoundDuration":309278,"Delta":240071964},{"NoteNumber":54,"Velocity":22,"Duration":297029,"SoundDuration":297029,"Delta":240381242},{"NoteNumber":60,"Velocity":22,"Duration":297029,"SoundDuration":297029,"Delta":240678272},{"NoteNumber":68,"Velocity":43,"Duration":222772,"SoundDuration":222772,"Delta":240975302},{"NoteNumber":56,"Velocity":22,"Duration":297029,"SoundDuration":297029,"Delta":240975302},{"NoteNumber":70,"Velocity":44,"Duration":222772,"SoundDuration":222772,"Delta":241272332},{"NoteNumber":51,"Velocity":22,"Duration":297029,"SoundDuration":297029,"Delta":241272332},{"NoteNumber":72,"Velocity":45,"Duration":226272,"SoundDuration":226272,"Delta":241569361},{"NoteNumber":49,"Velocity":27,"Duration":302545,"SoundDuration":302545,"Delta":241569361},{"NoteNumber":73,"Velocity":46,"Duration":230380,"SoundDuration":230380,"Delta":241871907},{"NoteNumber":60,"Velocity":22,"Duration":307700,"SoundDuration":307700,"Delta":241871907},{"NoteNumber":74,"Velocity":47,"Duration":233838,"SoundDuration":233838,"Delta":242179607},{"NoteNumber":54,"Velocity":22,"Duration":312511,"SoundDuration":312511,"Delta":242179607},{"NoteNumber":75,"Velocity":48,"Duration":237682,"SoundDuration":237682,"Delta":242492119},{"NoteNumber":60,"Velocity":22,"Duration":317469,"SoundDuration":317469,"Delta":242492119},{"NoteNumber":77,"Velocity":50,"Duration":241655,"SoundDuration":241655,"Delta":242809588},{"NoteNumber":56,"Velocity":22,"Duration":320913,"SoundDuration":320913,"Delta":242809588},{"NoteNumber":78,"Velocity":51,"Duration":249999,"SoundDuration":249999,"Delta":243130501},{"NoteNumber":51,"Velocity":22,"Duration":333333,"SoundDuration":333333,"Delta":243130501},{"NoteNumber":77,"Velocity":54,"Duration":1242620,"SoundDuration":1242620,"Delta":243463834},{"NoteNumber":37,"Velocity":27,"Duration":332153,"SoundDuration":332153,"Delta":243463834},{"NoteNumber":65,"Velocity":22,"Duration":316407,"SoundDuration":316407,"Delta":243795987},{"NoteNumber":56,"Velocity":22,"Duration":297029,"SoundDuration":297029,"Delta":244112395},{"NoteNumber":65,"Velocity":22,"Duration":297029,"SoundDuration":297029,"Delta":244409425},{"NoteNumber":61,"Velocity":22,"Duration":297029,"SoundDuration":297029,"Delta":244706454},{"NoteNumber":53,"Velocity":22,"Duration":333333,"SoundDuration":333333,"Delta":245003484},{"NoteNumber":85,"Velocity":55,"Duration":618556,"SoundDuration":618556,"Delta":245336817},{"NoteNumber":49,"Velocity":27,"Duration":309278,"SoundDuration":309278,"Delta":245336817},{"NoteNumber":64,"Velocity":22,"Duration":154639,"SoundDuration":154639,"Delta":245646096},{"NoteNumber":94,"Velocity":41,"Duration":154639,"SoundDuration":154639,"Delta":245800735},{"NoteNumber":79,"Velocity":49,"Duration":1228516,"SoundDuration":1228516,"Delta":245955374},{"NoteNumber":58,"Velocity":22,"Duration":297029,"SoundDuration":297029,"Delta":245955374},{"NoteNumber":64,"Velocity":22,"Duration":148514,"SoundDuration":148514,"Delta":246252404},{"NoteNumber":61,"Velocity":22,"Duration":301123,"SoundDuration":301123,"Delta":246549433},{"NoteNumber":55,"Velocity":22,"Duration":333333,"SoundDuration":333333,"Delta":246850557},{"NoteNumber":84,"Velocity":55,"Duration":618556,"SoundDuration":618556,"Delta":247183890},{"NoteNumber":49,"Velocity":27,"Duration":309278,"SoundDuration":309278,"Delta":247183890},{"NoteNumber":63,"Velocity":22,"Duration":309278,"SoundDuration":309278,"Delta":247493169},{"NoteNumber":93,"Velocity":41,"Duration":154639,"SoundDuration":154639,"Delta":247647808},{"NoteNumber":78,"Velocity":49,"Duration":1228516,"SoundDuration":1228516,"Delta":247802447},{"NoteNumber":57,"Velocity":22,"Duration":297029,"SoundDuration":297029,"Delta":247802447},{"NoteNumber":63,"Velocity":22,"Duration":297029,"SoundDuration":297029,"Delta":248099477},{"NoteNumber":60,"Velocity":22,"Duration":301123,"SoundDuration":301123,"Delta":248396506},{"NoteNumber":54,"Velocity":22,"Duration":333333,"SoundDuration":333333,"Delta":248697630},{"NoteNumber":83,"Velocity":55,"Duration":618556,"SoundDuration":618556,"Delta":249030963},{"NoteNumber":49,"Velocity":27,"Duration":309278,"SoundDuration":309278,"Delta":249030963},{"NoteNumber":62,"Velocity":22,"Duration":309278,"SoundDuration":309278,"Delta":249340241},{"NoteNumber":92,"Velocity":41,"Duration":154639,"SoundDuration":154639,"Delta":249494881},{"NoteNumber":77,"Velocity":49,"Duration":1228516,"SoundDuration":1228516,"Delta":249649520},{"NoteNumber":56,"Velocity":22,"Duration":297029,"SoundDuration":297029,"Delta":249649520},{"NoteNumber":62,"Velocity":22,"Duration":297029,"SoundDuration":297029,"Delta":249946549},{"NoteNumber":59,"Velocity":22,"Duration":301123,"SoundDuration":301123,"Delta":250243579},{"NoteNumber":53,"Velocity":22,"Duration":333333,"SoundDuration":333333,"Delta":250544703},{"NoteNumber":82,"Velocity":55,"Duration":618556,"SoundDuration":618556,"Delta":250878036},{"NoteNumber":49,"Velocity":27,"Duration":1847072,"SoundDuration":1847072,"Delta":250878036},{"NoteNumber":61,"Velocity":22,"Duration":309278,"SoundDuration":309278,"Delta":251187314},{"NoteNumber":91,"Velocity":41,"Duration":154639,"SoundDuration":154639,"Delta":251341953},{"NoteNumber":76,"Velocity":49,"Duration":1228516,"SoundDuration":1228516,"Delta":251496592},{"NoteNumber":55,"Velocity":22,"Duration":297029,"SoundDuration":297029,"Delta":251496592},{"NoteNumber":61,"Velocity":22,"Duration":297029,"SoundDuration":297029,"Delta":251793622},{"NoteNumber":58,"Velocity":22,"Duration":301123,"SoundDuration":301123,"Delta":252090652},{"NoteNumber":52,"Velocity":22,"Duration":333333,"SoundDuration":333333,"Delta":252391776},{"NoteNumber":81,"Velocity":55,"Duration":618556,"SoundDuration":618556,"Delta":252725109},{"NoteNumber":49,"Velocity":27,"Duration":1847072,"SoundDuration":1847072,"Delta":252725109},{"NoteNumber":61,"Velocity":22,"Duration":309278,"SoundDuration":309278,"Delta":253034387},{"NoteNumber":90,"Velocity":41,"Duration":154639,"SoundDuration":154639,"Delta":253189026},{"NoteNumber":75,"Velocity":49,"Duration":1228516,"SoundDuration":1228516,"Delta":253343665},{"NoteNumber":54,"Velocity":22,"Duration":297029,"SoundDuration":297029,"Delta":253343665},{"NoteNumber":61,"Velocity":22,"Duration":297029,"SoundDuration":297029,"Delta":253640695},{"NoteNumber":57,"Velocity":22,"Duration":301123,"SoundDuration":301123,"Delta":253937725},{"NoteNumber":51,"Velocity":22,"Duration":333333,"SoundDuration":333333,"Delta":254238848},{"NoteNumber":80,"Velocity":55,"Duration":5855459,"SoundDuration":5855459,"Delta":254572182},{"NoteNumber":49,"Velocity":27,"Duration":319149,"SoundDuration":319149,"Delta":254572182},{"NoteNumber":60,"Velocity":22,"Duration":319148,"SoundDuration":319148,"Delta":254891331},{"NoteNumber":54,"Velocity":22,"Duration":309278,"SoundDuration":309278,"Delta":255210480},{"NoteNumber":60,"Velocity":22,"Duration":309278,"SoundDuration":309278,"Delta":255519758},{"NoteNumber":56,"Velocity":22,"Duration":309278,"SoundDuration":309278,"Delta":255829036},{"NoteNumber":51,"Velocity":22,"Duration":309278,"SoundDuration":309278,"Delta":256138314},{"NoteNumber":49,"Velocity":27,"Duration":314144,"SoundDuration":314144,"Delta":256447593},{"NoteNumber":79,"Velocity":47,"Duration":233620,"SoundDuration":233620,"Delta":256761737},{"NoteNumber":60,"Velocity":22,"Duration":312567,"SoundDuration":312567,"Delta":256761737},{"NoteNumber":78,"Velocity":46,"Duration":239659,"SoundDuration":239659,"Delta":257074305},{"NoteNumber":54,"Velocity":22,"Duration":320889,"SoundDuration":320889,"Delta":257074305},{"NoteNumber":77,"Velocity":45,"Duration":249091,"SoundDuration":249091,"Delta":257395195},{"NoteNumber":60,"Velocity":22,"Duration":333999,"SoundDuration":333999,"Delta":257395195},{"NoteNumber":75,"Velocity":45,"Duration":258969,"SoundDuration":258969,"Delta":257729194},{"NoteNumber":56,"Velocity":22,"Duration":346863,"SoundDuration":346863,"Delta":257729194},{"NoteNumber":77,"Velocity":43,"Duration":270017,"SoundDuration":270017,"Delta":258076057},{"NoteNumber":51,"Velocity":22,"Duration":362233,"SoundDuration":362233,"Delta":258076057},{"NoteNumber":73,"Velocity":52,"Duration":4085989,"SoundDuration":4085989,"Delta":258438290},{"NoteNumber":37,"Velocity":27,"Duration":344748,"SoundDuration":344748,"Delta":258438290},{"NoteNumber":61,"Velocity":22,"Duration":344748,"SoundDuration":344748,"Delta":258783039},{"NoteNumber":49,"Velocity":22,"Duration":323764,"SoundDuration":323764,"Delta":259127787},{"NoteNumber":61,"Velocity":22,"Duration":323764,"SoundDuration":323764,"Delta":259451551},{"NoteNumber":53,"Velocity":22,"Duration":323764,"SoundDuration":323764,"Delta":259775315},{"NoteNumber":44,"Velocity":22,"Duration":328561,"SoundDuration":328561,"Delta":260099080},{"NoteNumber":77,"Velocity":46,"Duration":331074,"SoundDuration":331074,"Delta":260427641},{"NoteNumber":37,"Velocity":26,"Duration":331074,"SoundDuration":331074,"Delta":260427641},{"NoteNumber":78,"Velocity":45,"Duration":339564,"SoundDuration":339564,"Delta":260758715},{"NoteNumber":61,"Velocity":22,"Duration":339564,"SoundDuration":339564,"Delta":260758715},{"NoteNumber":79,"Velocity":46,"Duration":348402,"SoundDuration":348402,"Delta":261098280},{"NoteNumber":49,"Velocity":22,"Duration":348402,"SoundDuration":348402,"Delta":261098280},{"NoteNumber":80,"Velocity":48,"Duration":357705,"SoundDuration":357705,"Delta":261446683},{"NoteNumber":61,"Velocity":22,"Duration":357705,"SoundDuration":357705,"Delta":261446683},{"NoteNumber":84,"Velocity":48,"Duration":360265,"SoundDuration":360265,"Delta":261804389},{"NoteNumber":53,"Velocity":22,"Duration":360265,"SoundDuration":360265,"Delta":261804389},{"NoteNumber":82,"Velocity":47,"Duration":359625,"SoundDuration":359625,"Delta":262164654},{"NoteNumber":44,"Velocity":22,"Duration":359625,"SoundDuration":359625,"Delta":262164654},{"NoteNumber":72,"Velocity":45,"Duration":346820,"SoundDuration":346820,"Delta":262524280},{"NoteNumber":80,"Velocity":53,"Duration":2348177,"SoundDuration":2348177,"Delta":262524280},{"NoteNumber":37,"Velocity":26,"Duration":346820,"SoundDuration":346820,"Delta":262524280},{"NoteNumber":73,"Velocity":45,"Duration":346820,"SoundDuration":346820,"Delta":262871101},{"NoteNumber":60,"Velocity":21,"Duration":346820,"SoundDuration":346820,"Delta":262871101},{"NoteNumber":74,"Velocity":45,"Duration":334821,"SoundDuration":334821,"Delta":263217921},{"NoteNumber":51,"Velocity":21,"Duration":334821,"SoundDuration":334821,"Delta":263217921},{"NoteNumber":75,"Velocity":45,"Duration":334821,"SoundDuration":334821,"Delta":263552743},{"NoteNumber":60,"Velocity":21,"Duration":334821,"SoundDuration":334821,"Delta":263552743},{"NoteNumber":78,"Velocity":44,"Duration":331125,"SoundDuration":331125,"Delta":263887564},{"NoteNumber":54,"Velocity":21,"Duration":331125,"SoundDuration":331125,"Delta":263887564},{"NoteNumber":77,"Velocity":44,"Duration":331125,"SoundDuration":331125,"Delta":264218690},{"NoteNumber":44,"Velocity":21,"Duration":331125,"SoundDuration":331125,"Delta":264218690},{"NoteNumber":75,"Velocity":44,"Duration":1318779,"SoundDuration":1318779,"Delta":264549816},{"NoteNumber":37,"Velocity":25,"Duration":322640,"SoundDuration":322640,"Delta":264549816},{"NoteNumber":79,"Velocity":44,"Duration":325566,"SoundDuration":325566,"Delta":264872457},{"NoteNumber":60,"Velocity":21,"Duration":325566,"SoundDuration":325566,"Delta":264872457},{"NoteNumber":78,"Velocity":43,"Duration":332382,"SoundDuration":332382,"Delta":265198023},{"NoteNumber":51,"Velocity":21,"Duration":332382,"SoundDuration":332382,"Delta":265198023},{"NoteNumber":77,"Velocity":42,"Duration":338189,"SoundDuration":338189,"Delta":265530406},{"NoteNumber":60,"Velocity":21,"Duration":338189,"SoundDuration":338189,"Delta":265530406},{"NoteNumber":68,"Velocity":40,"Duration":739448,"SoundDuration":739448,"Delta":265868596},{"NoteNumber":75,"Velocity":42,"Duration":346160,"SoundDuration":346160,"Delta":265868596},{"NoteNumber":54,"Velocity":21,"Duration":346160,"SoundDuration":346160,"Delta":265868596},{"NoteNumber":77,"Velocity":39,"Duration":393287,"SoundDuration":393287,"Delta":266214756},{"NoteNumber":44,"Velocity":21,"Duration":393287,"SoundDuration":393287,"Delta":266214756},{"NoteNumber":69,"Velocity":43,"Duration":357568,"SoundDuration":357568,"Delta":266608044},{"NoteNumber":73,"Velocity":48,"Duration":2100331,"SoundDuration":2100331,"Delta":266608044},{"NoteNumber":37,"Velocity":24,"Duration":357568,"SoundDuration":357568,"Delta":266608044},{"NoteNumber":68,"Velocity":43,"Duration":357568,"SoundDuration":357568,"Delta":266965612},{"NoteNumber":61,"Velocity":21,"Duration":357568,"SoundDuration":357568,"Delta":266965612},{"NoteNumber":67,"Velocity":43,"Duration":333568,"SoundDuration":333568,"Delta":267323181},{"NoteNumber":49,"Velocity":20,"Duration":333568,"SoundDuration":333568,"Delta":267323181},{"NoteNumber":68,"Velocity":43,"Duration":331125,"SoundDuration":331125,"Delta":267656749},{"NoteNumber":61,"Velocity":20,"Duration":331125,"SoundDuration":331125,"Delta":267656749},{"NoteNumber":72,"Velocity":37,"Duration":165562,"SoundDuration":165562,"Delta":267822312},{"NoteNumber":70,"Velocity":43,"Duration":342857,"SoundDuration":342857,"Delta":267987875},{"NoteNumber":53,"Velocity":20,"Duration":342857,"SoundDuration":342857,"Delta":267987875},{"NoteNumber":68,"Velocity":42,"Duration":377643,"SoundDuration":377643,"Delta":268330732},{"NoteNumber":44,"Velocity":20,"Duration":377643,"SoundDuration":377643,"Delta":268330732},{"NoteNumber":68,"Velocity":42,"Duration":1417828,"SoundDuration":1417828,"Delta":268708376},{"NoteNumber":77,"Velocity":42,"Duration":348414,"SoundDuration":348414,"Delta":268708376},{"NoteNumber":37,"Velocity":24,"Duration":348414,"SoundDuration":348414,"Delta":268708376},{"NoteNumber":78,"Velocity":41,"Duration":350392,"SoundDuration":350392,"Delta":269056791},{"NoteNumber":61,"Velocity":20,"Duration":350392,"SoundDuration":350392,"Delta":269056791},{"NoteNumber":79,"Velocity":42,"Duration":356980,"SoundDuration":356980,"Delta":269407183},{"NoteNumber":49,"Velocity":20,"Duration":356980,"SoundDuration":356980,"Delta":269407183},{"NoteNumber":80,"Velocity":44,"Duration":362040,"SoundDuration":362040,"Delta":269764164},{"NoteNumber":61,"Velocity":20,"Duration":362040,"SoundDuration":362040,"Delta":269764164},{"NoteNumber":84,"Velocity":45,"Duration":360265,"SoundDuration":360265,"Delta":270126204},{"NoteNumber":53,"Velocity":20,"Duration":360265,"SoundDuration":360265,"Delta":270126204},{"NoteNumber":82,"Velocity":44,"Duration":359625,"SoundDuration":359625,"Delta":270486469},{"NoteNumber":44,"Velocity":20,"Duration":359625,"SoundDuration":359625,"Delta":270486469},{"NoteNumber":72,"Velocity":41,"Duration":368188,"SoundDuration":368188,"Delta":270846095},{"NoteNumber":80,"Velocity":48,"Duration":2475467,"SoundDuration":2475467,"Delta":270846095},{"NoteNumber":37,"Velocity":23,"Duration":368188,"SoundDuration":368188,"Delta":270846095},{"NoteNumber":73,"Velocity":41,"Duration":368188,"SoundDuration":368188,"Delta":271214284},{"NoteNumber":60,"Velocity":20,"Duration":368188,"SoundDuration":368188,"Delta":271214284},{"NoteNumber":74,"Velocity":41,"Duration":348432,"SoundDuration":348432,"Delta":271582472},{"NoteNumber":51,"Velocity":20,"Duration":348432,"SoundDuration":348432,"Delta":271582472},{"NoteNumber":75,"Velocity":41,"Duration":348432,"SoundDuration":348432,"Delta":271930904},{"NoteNumber":60,"Velocity":19,"Duration":348432,"SoundDuration":348432,"Delta":271930904},{"NoteNumber":78,"Velocity":41,"Duration":348432,"SoundDuration":348432,"Delta":272279336},{"NoteNumber":54,"Velocity":19,"Duration":348432,"SoundDuration":348432,"Delta":272279336},{"NoteNumber":77,"Velocity":41,"Duration":347818,"SoundDuration":347818,"Delta":272627768},{"NoteNumber":44,"Velocity":19,"Duration":347818,"SoundDuration":347818,"Delta":272627768},{"NoteNumber":75,"Velocity":40,"Duration":1417034,"SoundDuration":1417034,"Delta":272975586},{"NoteNumber":37,"Velocity":22,"Duration":345976,"SoundDuration":345976,"Delta":272975586},{"NoteNumber":79,"Velocity":40,"Duration":350940,"SoundDuration":350940,"Delta":273321563},{"NoteNumber":60,"Velocity":19,"Duration":350940,"SoundDuration":350940,"Delta":273321563},{"NoteNumber":78,"Velocity":40,"Duration":357379,"SoundDuration":357379,"Delta":273672503},{"NoteNumber":51,"Velocity":19,"Duration":357379,"SoundDuration":357379,"Delta":273672503},{"NoteNumber":77,"Velocity":38,"Duration":362737,"SoundDuration":362737,"Delta":274029883},{"NoteNumber":60,"Velocity":19,"Duration":362737,"SoundDuration":362737,"Delta":274029883},{"NoteNumber":68,"Velocity":36,"Duration":736377,"SoundDuration":736377,"Delta":274392621},{"NoteNumber":75,"Velocity":38,"Duration":368188,"SoundDuration":368188,"Delta":274392621},{"NoteNumber":54,"Velocity":19,"Duration":368188,"SoundDuration":368188,"Delta":274392621},{"NoteNumber":77,"Velocity":36,"Duration":368188,"SoundDuration":368188,"Delta":274760809},{"NoteNumber":44,"Velocity":19,"Duration":368188,"SoundDuration":368188,"Delta":274760809},{"NoteNumber":65,"Velocity":34,"Duration":4380281,"SoundDuration":4380281,"Delta":275128998},{"NoteNumber":73,"Velocity":39,"Duration":4380281,"SoundDuration":4380281,"Delta":275128998},{"NoteNumber":37,"Velocity":22,"Duration":368188,"SoundDuration":368188,"Delta":275128998},{"NoteNumber":61,"Velocity":18,"Duration":368188,"SoundDuration":368188,"Delta":275497186},{"NoteNumber":49,"Velocity":18,"Duration":352195,"SoundDuration":352195,"Delta":275865375},{"NoteNumber":61,"Velocity":18,"Duration":352195,"SoundDuration":352195,"Delta":276217570},{"NoteNumber":53,"Velocity":18,"Duration":352195,"SoundDuration":352195,"Delta":276569765},{"NoteNumber":44,"Velocity":18,"Duration":350940,"SoundDuration":350940,"Delta":276921960},{"NoteNumber":37,"Velocity":22,"Duration":350940,"SoundDuration":350940,"Delta":277272901},{"NoteNumber":61,"Velocity":18,"Duration":357379,"SoundDuration":357379,"Delta":277623842},{"NoteNumber":49,"Velocity":18,"Duration":364092,"SoundDuration":364092,"Delta":277981222},{"NoteNumber":61,"Velocity":18,"Duration":367503,"SoundDuration":367503,"Delta":278345315},{"NoteNumber":53,"Velocity":18,"Duration":380705,"SoundDuration":380705,"Delta":278712818},{"NoteNumber":44,"Velocity":18,"Duration":415755,"SoundDuration":415755,"Delta":279093523},{"NoteNumber":68,"Velocity":31,"Duration":335576,"SoundDuration":335576,"Delta":279509279},{"NoteNumber":77,"Velocity":37,"Duration":335576,"SoundDuration":335576,"Delta":279509279},{"NoteNumber":37,"Velocity":22,"Duration":448121,"SoundDuration":448121,"Delta":279509279},{"NoteNumber":70,"Velocity":31,"Duration":337635,"SoundDuration":337635,"Delta":279889874},{"NoteNumber":78,"Velocity":37,"Duration":337635,"SoundDuration":337635,"Delta":279889874},{"NoteNumber":61,"Velocity":18,"Duration":450179,"SoundDuration":450179,"Delta":279957401},{"NoteNumber":72,"Velocity":31,"Duration":337635,"SoundDuration":337635,"Delta":280272527},{"NoteNumber":80,"Velocity":37,"Duration":337635,"SoundDuration":337635,"Delta":280272527},{"NoteNumber":49,"Velocity":18,"Duration":450179,"SoundDuration":450179,"Delta":280407581},{"NoteNumber":73,"Velocity":30,"Duration":337635,"SoundDuration":337635,"Delta":280655180},{"NoteNumber":82,"Velocity":36,"Duration":337635,"SoundDuration":337635,"Delta":280655180},{"NoteNumber":61,"Velocity":18,"Duration":450179,"SoundDuration":450179,"Delta":280857761},{"NoteNumber":75,"Velocity":30,"Duration":337635,"SoundDuration":337635,"Delta":281037833},{"NoteNumber":84,"Velocity":36,"Duration":337635,"SoundDuration":337635,"Delta":281037833},{"NoteNumber":53,"Velocity":18,"Duration":450179,"SoundDuration":450179,"Delta":281307941},{"NoteNumber":77,"Velocity":29,"Duration":337634,"SoundDuration":337634,"Delta":281420486},{"NoteNumber":85,"Velocity":35,"Duration":337634,"SoundDuration":337634,"Delta":281420486},{"NoteNumber":44,"Velocity":18,"Duration":450180,"SoundDuration":450180,"Delta":281758121},{"NoteNumber":78,"Velocity":29,"Duration":337634,"SoundDuration":337634,"Delta":281803139},{"NoteNumber":87,"Velocity":35,"Duration":337634,"SoundDuration":337634,"Delta":281803139},{"NoteNumber":80,"Velocity":28,"Duration":338148,"SoundDuration":338148,"Delta":282208301},{"NoteNumber":89,"Velocity":34,"Duration":338148,"SoundDuration":338148,"Delta":282208301},{"NoteNumber":37,"Velocity":22,"Duration":452234,"SoundDuration":452234,"Delta":282208301},{"NoteNumber":82,"Velocity":28,"Duration":344022,"SoundDuration":344022,"Delta":282592083},{"NoteNumber":90,"Velocity":34,"Duration":344022,"SoundDuration":344022,"Delta":282592083},{"NoteNumber":61,"Velocity":18,"Duration":461867,"SoundDuration":461867,"Delta":282660535},{"NoteNumber":84,"Velocity":28,"Duration":351023,"SoundDuration":351023,"Delta":282982402},{"NoteNumber":92,"Velocity":33,"Duration":351023,"SoundDuration":351023,"Delta":282982402},{"NoteNumber":49,"Velocity":18,"Duration":480384,"SoundDuration":480384,"Delta":283122403},{"NoteNumber":85,"Velocity":28,"Duration":374340,"SoundDuration":374340,"Delta":283381436},{"NoteNumber":94,"Velocity":33,"Duration":374340,"SoundDuration":374340,"Delta":283381436},{"NoteNumber":61,"Velocity":18,"Duration":527369,"SoundDuration":527369,"Delta":283602787},{"NoteNumber":87,"Velocity":27,"Duration":406219,"SoundDuration":406219,"Delta":283807766},{"NoteNumber":96,"Velocity":32,"Duration":406219,"SoundDuration":406219,"Delta":283807766},{"NoteNumber":53,"Velocity":18,"Duration":597624,"SoundDuration":597624,"Delta":284130156},{"NoteNumber":89,"Velocity":27,"Duration":456254,"SoundDuration":456254,"Delta":284271526},{"NoteNumber":97,"Velocity":32,"Duration":456254,"SoundDuration":456254,"Delta":284271526},{"NoteNumber":44,"Velocity":18,"Duration":709207,"SoundDuration":709207,"Delta":284727780},{"NoteNumber":90,"Velocity":27,"Duration":527269,"SoundDuration":527269,"Delta":284793918},{"NoteNumber":99,"Velocity":32,"Duration":527269,"SoundDuration":527269,"Delta":284793918},{"NoteNumber":101,"Velocity":36,"Duration":2751716,"SoundDuration":2751716,"Delta":285436987},{"NoteNumber":92,"Velocity":30,"Duration":2751716,"SoundDuration":2751716,"Delta":285436987},{"NoteNumber":37,"Velocity":17,"Duration":2751716,"SoundDuration":2751716,"Delta":285436987},{"NoteNumber":68,"Velocity":30,"Duration":3472222,"SoundDuration":3472222,"Delta":289568014},{"NoteNumber":77,"Velocity":36,"Duration":3472222,"SoundDuration":3472222,"Delta":289568014},{"NoteNumber":44,"Velocity":16,"Duration":3472222,"SoundDuration":3472222,"Delta":289568014},{"NoteNumber":56,"Velocity":20,"Duration":3472222,"SoundDuration":3472222,"Delta":289568014},{"NoteNumber":65,"Velocity":28,"Duration":8750607,"SoundDuration":8750607,"Delta":293040237},{"NoteNumber":73,"Velocity":33,"Duration":8750607,"SoundDuration":8750607,"Delta":293040237},{"NoteNumber":49,"Velocity":16,"Duration":8750607,"SoundDuration":8750607,"Delta":293040237},{"NoteNumber":56,"Velocity":20,"Duration":8750607,"SoundDuration":8750607,"Delta":293040237}],"license":{"name":"Creative Commons Attribution-ShareAlike 3.0 Germany","url":"http://creativecommons.org/licenses/by-sa/3.0/de/deed.en","text":"The MIDI, audio (MP3, OGG) and video files of Bernd Krueger are licensed under the cc-by-sa Germany License. This means that you can use and adapt the files, as long as you attribute the copyright holder.\n\nName: Bernd Krueger\nSource: http://www.piano-midi.de\n\nThe distribution or public playback of the files is only allowed under identical license conditions.\n\nThe scores are open source.","attribution":"MIDI files by Bernd Krueger (piano-midi.de)","attributionUrl":"http://www.piano-midi.de"}}