{"title":"Prelude No. 23, Opus 28","artist":"Chopin","durationMs":47052,"midiSha256":"ee51ba909f9ee8e5f62fb81d707e416df30772688eb95b5669714f2400242c34","midiObject":[{"NoteNumber":41,"Velocity":30,"Duration":1224417,"SoundDuration":1224417,"Delta":0},{"NoteNumber":48,"Velocity":37,"Duration":1152302,"SoundDuration":1152302,"Delta":72116},{"NoteNumber":72,"Velocity":40,"Duration":135746,"SoundDuration":135746,"Delta":144231},{"NoteNumber":57,"Velocity":44,"Duration":1080187,"SoundDuration":1080187,"Delta":144231},{"NoteNumber":69,"Velocity":32,"Duration":135746,"SoundDuration":135746,"Delta":279978},{"NoteNumber":65,"Velocity":32,"Duration":135746,"SoundDuration":135746,"Delta":415724},{"NoteNumber":62,"Velocity":33,"Duration":135746,"SoundDuration":135746,"Delta":551471},{"NoteNumber":60,"Velocity":40,"Duration":134300,"SoundDuration":134300,"Delta":687217},{"NoteNumber":65,"Velocity":36,"Duration":134300,"SoundDuration":134300,"Delta":821517},{"NoteNumber":77,"Velocity":40,"Duration":134300,"SoundDuration":134300,"Delta":955818},{"NoteNumber":74,"Velocity":36,"Duration":134300,"SoundDuration":134300,"Delta":1090118},{"NoteNumber":72,"Velocity":40,"Duration":134300,"SoundDuration":134300,"Delta":1224418},{"NoteNumber":69,"Velocity":32,"Duration":134300,"SoundDuration":134300,"Delta":1358718},{"NoteNumber":65,"Velocity":32,"Duration":134300,"SoundDuration":134300,"Delta":1493019},{"NoteNumber":62,"Velocity":32,"Duration":134300,"SoundDuration":134300,"Delta":1627319},{"NoteNumber":60,"Velocity":40,"Duration":134300,"SoundDuration":134300,"Delta":1761619},{"NoteNumber":65,"Velocity":37,"Duration":134300,"SoundDuration":134300,"Delta":1895919},{"NoteNumber":77,"Velocity":40,"Duration":134300,"SoundDuration":134300,"Delta":2030220},{"NoteNumber":74,"Velocity":36,"Duration":134300,"SoundDuration":134300,"Delta":2164520},{"NoteNumber":72,"Velocity":40,"Duration":132719,"SoundDuration":132719,"Delta":2298820},{"NoteNumber":36,"Velocity":47,"Duration":532014,"SoundDuration":532014,"Delta":2298820},{"NoteNumber":69,"Velocity":35,"Duration":132719,"SoundDuration":132719,"Delta":2431540},{"NoteNumber":65,"Velocity":34,"Duration":132719,"SoundDuration":132719,"Delta":2564260},{"NoteNumber":62,"Velocity":34,"Duration":133855,"SoundDuration":133855,"Delta":2696979},{"NoteNumber":47,"Velocity":33,"Duration":66359,"SoundDuration":66359,"Delta":2696979},{"NoteNumber":48,"Velocity":33,"Duration":67495,"SoundDuration":67495,"Delta":2763339},{"NoteNumber":60,"Velocity":40,"Duration":139219,"SoundDuration":139219,"Delta":2830835},{"NoteNumber":50,"Velocity":38,"Duration":70094,"SoundDuration":70094,"Delta":2830835},{"NoteNumber":48,"Velocity":38,"Duration":69125,"SoundDuration":69125,"Delta":2900929},{"NoteNumber":65,"Velocity":35,"Duration":135852,"SoundDuration":135852,"Delta":2970055},{"NoteNumber":50,"Velocity":39,"Duration":68182,"SoundDuration":68182,"Delta":2970055},{"NoteNumber":48,"Velocity":40,"Duration":67669,"SoundDuration":67669,"Delta":3038238},{"NoteNumber":77,"Velocity":40,"Duration":137939,"SoundDuration":137939,"Delta":3105907},{"NoteNumber":50,"Velocity":40,"Duration":68494,"SoundDuration":68494,"Delta":3105907},{"NoteNumber":48,"Velocity":41,"Duration":69445,"SoundDuration":69445,"Delta":3174401},{"NoteNumber":74,"Velocity":36,"Duration":140714,"SoundDuration":140714,"Delta":3243847},{"NoteNumber":47,"Velocity":42,"Duration":70225,"SoundDuration":70225,"Delta":3243847},{"NoteNumber":48,"Velocity":42,"Duration":70488,"SoundDuration":70488,"Delta":3314072},{"NoteNumber":72,"Velocity":40,"Duration":135906,"SoundDuration":135906,"Delta":3384561},{"NoteNumber":48,"Velocity":36,"Duration":1087252,"SoundDuration":1087252,"Delta":3384561},{"NoteNumber":57,"Velocity":47,"Duration":543625,"SoundDuration":543625,"Delta":3384561},{"NoteNumber":69,"Velocity":35,"Duration":135906,"SoundDuration":135906,"Delta":3520467},{"NoteNumber":65,"Velocity":35,"Duration":135906,"SoundDuration":135906,"Delta":3656374},{"NoteNumber":62,"Velocity":35,"Duration":135906,"SoundDuration":135906,"Delta":3792280},{"NoteNumber":60,"Velocity":40,"Duration":135906,"SoundDuration":135906,"Delta":3928187},{"NoteNumber":55,"Velocity":45,"Duration":543626,"SoundDuration":543626,"Delta":3928187},{"NoteNumber":64,"Velocity":38,"Duration":135906,"SoundDuration":135906,"Delta":4064093},{"NoteNumber":70,"Velocity":40,"Duration":135906,"SoundDuration":135906,"Delta":4200000},{"NoteNumber":67,"Velocity":37,"Duration":135906,"SoundDuration":135906,"Delta":4335906},{"NoteNumber":69,"Velocity":40,"Duration":135906,"SoundDuration":135906,"Delta":4471813},{"NoteNumber":41,"Velocity":47,"Duration":271812,"SoundDuration":271812,"Delta":4471813},{"NoteNumber":65,"Velocity":37,"Duration":135906,"SoundDuration":135906,"Delta":4607719},{"NoteNumber":60,"Velocity":33,"Duration":135906,"SoundDuration":135906,"Delta":4743626},{"NoteNumber":48,"Velocity":37,"Duration":135906,"SoundDuration":135906,"Delta":4743626},{"NoteNumber":57,"Velocity":33,"Duration":132508,"SoundDuration":132508,"Delta":4879532},{"NoteNumber":53,"Velocity":33,"Duration":135906,"SoundDuration":135906,"Delta":4879532},{"NoteNumber":60,"Velocity":37,"Duration":133761,"SoundDuration":133761,"Delta":5015439},{"NoteNumber":57,"Velocity":41,"Duration":267522,"SoundDuration":267522,"Delta":5015439},{"NoteNumber":65,"Velocity":34,"Duration":133761,"SoundDuration":133761,"Delta":5149200},{"NoteNumber":64,"Velocity":31,"Duration":136998,"SoundDuration":136998,"Delta":5282961},{"NoteNumber":70,"Velocity":37,"Duration":136998,"SoundDuration":136998,"Delta":5282961},{"NoteNumber":48,"Velocity":35,"Duration":273997,"SoundDuration":273997,"Delta":5282961},{"NoteNumber":55,"Velocity":41,"Duration":273997,"SoundDuration":273997,"Delta":5282961},{"NoteNumber":67,"Velocity":37,"Duration":136998,"SoundDuration":136998,"Delta":5419960},{"NoteNumber":69,"Velocity":40,"Duration":133761,"SoundDuration":133761,"Delta":5556959},{"NoteNumber":41,"Velocity":48,"Duration":267522,"SoundDuration":267522,"Delta":5556959},{"NoteNumber":65,"Velocity":38,"Duration":133761,"SoundDuration":133761,"Delta":5690720},{"NoteNumber":60,"Velocity":35,"Duration":133761,"SoundDuration":133761,"Delta":5824481},{"NoteNumber":48,"Velocity":41,"Duration":133761,"SoundDuration":133761,"Delta":5824481},{"NoteNumber":57,"Velocity":35,"Duration":130417,"SoundDuration":130417,"Delta":5958242},{"NoteNumber":53,"Velocity":36,"Duration":133761,"SoundDuration":133761,"Delta":5958242},{"NoteNumber":60,"Velocity":37,"Duration":133761,"SoundDuration":133761,"Delta":6092004},{"NoteNumber":57,"Velocity":42,"Duration":267522,"SoundDuration":267522,"Delta":6092004},{"NoteNumber":65,"Velocity":34,"Duration":133761,"SoundDuration":133761,"Delta":6225765},{"NoteNumber":70,"Velocity":37,"Duration":133761,"SoundDuration":133761,"Delta":6359526},{"NoteNumber":64,"Velocity":31,"Duration":133761,"SoundDuration":133761,"Delta":6359526},{"NoteNumber":48,"Velocity":40,"Duration":267522,"SoundDuration":267522,"Delta":6359526},{"NoteNumber":55,"Velocity":40,"Duration":267522,"SoundDuration":267522,"Delta":6359526},{"NoteNumber":67,"Velocity":36,"Duration":133761,"SoundDuration":133761,"Delta":6493287},{"NoteNumber":69,"Velocity":40,"Duration":135191,"SoundDuration":135191,"Delta":6627049},{"NoteNumber":41,"Velocity":47,"Duration":271097,"SoundDuration":271097,"Delta":6627049},{"NoteNumber":65,"Velocity":37,"Duration":135906,"SoundDuration":135906,"Delta":6762240},{"NoteNumber":60,"Velocity":33,"Duration":135906,"SoundDuration":135906,"Delta":6898147},{"NoteNumber":48,"Velocity":45,"Duration":135906,"SoundDuration":135906,"Delta":6898147},{"NoteNumber":57,"Velocity":33,"Duration":129111,"SoundDuration":129111,"Delta":7034053},{"NoteNumber":53,"Velocity":39,"Duration":135906,"SoundDuration":135906,"Delta":7034053},{"NoteNumber":60,"Velocity":37,"Duration":132719,"SoundDuration":132719,"Delta":7169960},{"NoteNumber":57,"Velocity":45,"Duration":132719,"SoundDuration":132719,"Delta":7169960},{"NoteNumber":65,"Velocity":32,"Duration":132719,"SoundDuration":132719,"Delta":7302679},{"NoteNumber":53,"Velocity":40,"Duration":132719,"SoundDuration":132719,"Delta":7302679},{"NoteNumber":70,"Velocity":45,"Duration":135206,"SoundDuration":135206,"Delta":7435399},{"NoteNumber":62,"Velocity":40,"Duration":135206,"SoundDuration":135206,"Delta":7435399},{"NoteNumber":68,"Velocity":41,"Duration":136450,"SoundDuration":136450,"Delta":7570606},{"NoteNumber":59,"Velocity":35,"Duration":136450,"SoundDuration":136450,"Delta":7570606},{"NoteNumber":69,"Velocity":45,"Duration":133761,"SoundDuration":133761,"Delta":7707056},{"NoteNumber":60,"Velocity":43,"Duration":272650,"SoundDuration":272650,"Delta":7707056},{"NoteNumber":70,"Velocity":40,"Duration":138889,"SoundDuration":138889,"Delta":7840818},{"NoteNumber":74,"Velocity":45,"Duration":138888,"SoundDuration":138888,"Delta":7979707},{"NoteNumber":70,"Velocity":39,"Duration":138888,"SoundDuration":138888,"Delta":7979707},{"NoteNumber":71,"Velocity":41,"Duration":138889,"SoundDuration":138889,"Delta":8118596},{"NoteNumber":68,"Velocity":36,"Duration":138889,"SoundDuration":138889,"Delta":8118596},{"NoteNumber":72,"Velocity":48,"Duration":138888,"SoundDuration":138888,"Delta":8257485},{"NoteNumber":69,"Velocity":39,"Duration":277777,"SoundDuration":277777,"Delta":8257485},{"NoteNumber":76,"Velocity":46,"Duration":138889,"SoundDuration":138889,"Delta":8396374},{"NoteNumber":77,"Velocity":50,"Duration":138889,"SoundDuration":138889,"Delta":8535263},{"NoteNumber":81,"Velocity":52,"Duration":143540,"SoundDuration":143540,"Delta":8674152},{"NoteNumber":48,"Velocity":30,"Duration":1224367,"SoundDuration":1224367,"Delta":8674152},{"NoteNumber":55,"Velocity":37,"Duration":1152597,"SoundDuration":1152597,"Delta":8745922},{"NoteNumber":79,"Velocity":52,"Duration":135906,"SoundDuration":135906,"Delta":8817692},{"NoteNumber":64,"Velocity":45,"Duration":1080826,"SoundDuration":1080826,"Delta":8817692},{"NoteNumber":76,"Velocity":40,"Duration":135906,"SoundDuration":135906,"Delta":8953599},{"NoteNumber":72,"Velocity":45,"Duration":135906,"SoundDuration":135906,"Delta":9089505},{"NoteNumber":69,"Velocity":41,"Duration":135906,"SoundDuration":135906,"Delta":9225412},{"NoteNumber":67,"Velocity":45,"Duration":134300,"SoundDuration":134300,"Delta":9361318},{"NoteNumber":72,"Velocity":40,"Duration":134300,"SoundDuration":134300,"Delta":9495619},{"NoteNumber":84,"Velocity":48,"Duration":134300,"SoundDuration":134300,"Delta":9629919},{"NoteNumber":81,"Velocity":42,"Duration":134300,"SoundDuration":134300,"Delta":9764219},{"NoteNumber":79,"Velocity":45,"Duration":134300,"SoundDuration":134300,"Delta":9898519},{"NoteNumber":76,"Velocity":41,"Duration":134300,"SoundDuration":134300,"Delta":10032820},{"NoteNumber":72,"Velocity":41,"Duration":134300,"SoundDuration":134300,"Delta":10167120},{"NoteNumber":69,"Velocity":41,"Duration":134300,"SoundDuration":134300,"Delta":10301420},{"NoteNumber":67,"Velocity":45,"Duration":134300,"SoundDuration":134300,"Delta":10435720},{"NoteNumber":72,"Velocity":42,"Duration":134300,"SoundDuration":134300,"Delta":10570021},{"NoteNumber":84,"Velocity":48,"Duration":134300,"SoundDuration":134300,"Delta":10704321},{"NoteNumber":81,"Velocity":41,"Duration":134300,"SoundDuration":134300,"Delta":10838621},{"NoteNumber":79,"Velocity":45,"Duration":132719,"SoundDuration":132719,"Delta":10972921},{"NoteNumber":43,"Velocity":47,"Duration":530879,"SoundDuration":530879,"Delta":10972921},{"NoteNumber":76,"Velocity":42,"Duration":132719,"SoundDuration":132719,"Delta":11105641},{"NoteNumber":72,"Velocity":42,"Duration":132719,"SoundDuration":132719,"Delta":11238361},{"NoteNumber":69,"Velocity":42,"Duration":132719,"SoundDuration":132719,"Delta":11371081},{"NoteNumber":54,"Velocity":33,"Duration":66359,"SoundDuration":66359,"Delta":11371081},{"NoteNumber":55,"Velocity":33,"Duration":66359,"SoundDuration":66359,"Delta":11437441},{"NoteNumber":67,"Velocity":45,"Duration":140412,"SoundDuration":140412,"Delta":11503800},{"NoteNumber":57,"Velocity":38,"Duration":70643,"SoundDuration":70643,"Delta":11503800},{"NoteNumber":55,"Velocity":38,"Duration":69768,"SoundDuration":69768,"Delta":11574444},{"NoteNumber":72,"Velocity":41,"Duration":136784,"SoundDuration":136784,"Delta":11644213},{"NoteNumber":57,"Velocity":39,"Duration":68808,"SoundDuration":68808,"Delta":11644213},{"NoteNumber":55,"Velocity":40,"Duration":67976,"SoundDuration":67976,"Delta":11713021},{"NoteNumber":84,"Velocity":49,"Duration":138685,"SoundDuration":138685,"Delta":11780997},{"NoteNumber":57,"Velocity":40,"Duration":69154,"SoundDuration":69154,"Delta":11780997},{"NoteNumber":55,"Velocity":41,"Duration":69530,"SoundDuration":69530,"Delta":11850152},{"NoteNumber":81,"Velocity":42,"Duration":140591,"SoundDuration":140591,"Delta":11919682},{"NoteNumber":54,"Velocity":42,"Duration":70103,"SoundDuration":70103,"Delta":11919682},{"NoteNumber":55,"Velocity":42,"Duration":70488,"SoundDuration":70488,"Delta":11989786},{"NoteNumber":79,"Velocity":45,"Duration":135906,"SoundDuration":135906,"Delta":12060274},{"NoteNumber":55,"Velocity":36,"Duration":1087251,"SoundDuration":1087251,"Delta":12060274},{"NoteNumber":64,"Velocity":47,"Duration":543625,"SoundDuration":543625,"Delta":12060274},{"NoteNumber":76,"Velocity":41,"Duration":135906,"SoundDuration":135906,"Delta":12196181},{"NoteNumber":72,"Velocity":41,"Duration":135906,"SoundDuration":135906,"Delta":12332087},{"NoteNumber":69,"Velocity":41,"Duration":135906,"SoundDuration":135906,"Delta":12467994},{"NoteNumber":67,"Velocity":45,"Duration":135906,"SoundDuration":135906,"Delta":12603900},{"NoteNumber":62,"Velocity":45,"Duration":543625,"SoundDuration":543625,"Delta":12603900},{"NoteNumber":71,"Velocity":43,"Duration":135906,"SoundDuration":135906,"Delta":12739807},{"NoteNumber":77,"Velocity":45,"Duration":135906,"SoundDuration":135906,"Delta":12875713},{"NoteNumber":74,"Velocity":42,"Duration":135906,"SoundDuration":135906,"Delta":13011620},{"NoteNumber":76,"Velocity":45,"Duration":135906,"SoundDuration":135906,"Delta":13147526},{"NoteNumber":48,"Velocity":47,"Duration":271813,"SoundDuration":271813,"Delta":13147526},{"NoteNumber":72,"Velocity":42,"Duration":135906,"SoundDuration":135906,"Delta":13283433},{"NoteNumber":67,"Velocity":37,"Duration":135906,"SoundDuration":135906,"Delta":13419339},{"NoteNumber":55,"Velocity":43,"Duration":135906,"SoundDuration":135906,"Delta":13419339},{"NoteNumber":64,"Velocity":37,"Duration":131376,"SoundDuration":131376,"Delta":13555246},{"NoteNumber":60,"Velocity":39,"Duration":135906,"SoundDuration":135906,"Delta":13555246},{"NoteNumber":67,"Velocity":42,"Duration":133761,"SoundDuration":133761,"Delta":13691152},{"NoteNumber":64,"Velocity":44,"Duration":267522,"SoundDuration":267522,"Delta":13691152},{"NoteNumber":72,"Velocity":38,"Duration":133761,"SoundDuration":133761,"Delta":13824914},{"NoteNumber":71,"Velocity":44,"Duration":136998,"SoundDuration":136998,"Delta":13958675},{"NoteNumber":77,"Velocity":44,"Duration":136998,"SoundDuration":136998,"Delta":13958675},{"NoteNumber":55,"Velocity":30,"Duration":273997,"SoundDuration":273997,"Delta":13958675},{"NoteNumber":62,"Velocity":41,"Duration":273997,"SoundDuration":273997,"Delta":13958675},{"NoteNumber":74,"Velocity":42,"Duration":136998,"SoundDuration":136998,"Delta":14095674},{"NoteNumber":76,"Velocity":45,"Duration":133761,"SoundDuration":133761,"Delta":14232672},{"NoteNumber":48,"Velocity":48,"Duration":267522,"SoundDuration":267522,"Delta":14232672},{"NoteNumber":72,"Velocity":43,"Duration":133761,"SoundDuration":133761,"Delta":14366434},{"NoteNumber":67,"Velocity":39,"Duration":133761,"SoundDuration":133761,"Delta":14500195},{"NoteNumber":55,"Velocity":42,"Duration":133761,"SoundDuration":133761,"Delta":14500195},{"NoteNumber":64,"Velocity":39,"Duration":129302,"SoundDuration":129302,"Delta":14633956},{"NoteNumber":60,"Velocity":37,"Duration":133761,"SoundDuration":133761,"Delta":14633956},{"NoteNumber":67,"Velocity":42,"Duration":133761,"SoundDuration":133761,"Delta":14767717},{"NoteNumber":64,"Velocity":45,"Duration":267522,"SoundDuration":267522,"Delta":14767717},{"NoteNumber":72,"Velocity":38,"Duration":133761,"SoundDuration":133761,"Delta":14901479},{"NoteNumber":71,"Velocity":29,"Duration":133761,"SoundDuration":133761,"Delta":15035240},{"NoteNumber":77,"Velocity":42,"Duration":133761,"SoundDuration":133761,"Delta":15035240},{"NoteNumber":55,"Velocity":29,"Duration":267522,"SoundDuration":267522,"Delta":15035240},{"NoteNumber":62,"Velocity":42,"Duration":267522,"SoundDuration":267522,"Delta":15035240},{"NoteNumber":74,"Velocity":41,"Duration":133761,"SoundDuration":133761,"Delta":15169001},{"NoteNumber":76,"Velocity":45,"Duration":135191,"SoundDuration":135191,"Delta":15302762},{"NoteNumber":48,"Velocity":47,"Duration":180493,"SoundDuration":180493,"Delta":15302762},{"NoteNumber":72,"Velocity":42,"Duration":135906,"SoundDuration":135906,"Delta":15437954},{"NoteNumber":55,"Velocity":45,"Duration":181208,"SoundDuration":181208,"Delta":15483256},{"NoteNumber":67,"Velocity":37,"Duration":135906,"SoundDuration":135906,"Delta":15573860},{"NoteNumber":60,"Velocity":39,"Duration":181208,"SoundDuration":181208,"Delta":15664465},{"NoteNumber":64,"Velocity":37,"Duration":129111,"SoundDuration":129111,"Delta":15709767},{"NoteNumber":67,"Velocity":42,"Duration":132719,"SoundDuration":132719,"Delta":15845673},{"NoteNumber":64,"Velocity":47,"Duration":176959,"SoundDuration":176959,"Delta":15845673},{"NoteNumber":72,"Velocity":36,"Duration":132719,"SoundDuration":132719,"Delta":15978393},{"NoteNumber":70,"Velocity":44,"Duration":178203,"SoundDuration":178203,"Delta":16022633},{"NoteNumber":76,"Velocity":51,"Duration":135206,"SoundDuration":135206,"Delta":16111113},{"NoteNumber":79,"Velocity":49,"Duration":136450,"SoundDuration":136450,"Delta":16246320},{"NoteNumber":84,"Velocity":51,"Duration":133761,"SoundDuration":133761,"Delta":16382770},{"NoteNumber":88,"Velocity":49,"Duration":138248,"SoundDuration":138248,"Delta":16516531},{"NoteNumber":86,"Velocity":51,"Duration":138248,"SoundDuration":138248,"Delta":16654780},{"NoteNumber":79,"Velocity":47,"Duration":138248,"SoundDuration":138248,"Delta":16793029},{"NoteNumber":74,"Velocity":51,"Duration":138248,"SoundDuration":138248,"Delta":16931278},{"NoteNumber":79,"Velocity":47,"Duration":138248,"SoundDuration":138248,"Delta":17069526},{"NoteNumber":74,"Velocity":49,"Duration":138248,"SoundDuration":138248,"Delta":17207775},{"NoteNumber":76,"Velocity":48,"Duration":138248,"SoundDuration":138248,"Delta":17346024},{"NoteNumber":53,"Velocity":30,"Duration":1219075,"SoundDuration":1219075,"Delta":17346024},{"NoteNumber":60,"Velocity":37,"Duration":1149951,"SoundDuration":1149951,"Delta":17415148},{"NoteNumber":84,"Velocity":52,"Duration":135906,"SoundDuration":135906,"Delta":17484273},{"NoteNumber":69,"Velocity":46,"Duration":1080826,"SoundDuration":1080826,"Delta":17484273},{"NoteNumber":81,"Velocity":42,"Duration":135906,"SoundDuration":135906,"Delta":17620179},{"NoteNumber":77,"Velocity":42,"Duration":135906,"SoundDuration":135906,"Delta":17756086},{"NoteNumber":74,"Velocity":43,"Duration":135906,"SoundDuration":135906,"Delta":17891992},{"NoteNumber":72,"Velocity":46,"Duration":134300,"SoundDuration":134300,"Delta":18027899},{"NoteNumber":77,"Velocity":42,"Duration":134300,"SoundDuration":134300,"Delta":18162199},{"NoteNumber":89,"Velocity":51,"Duration":134300,"SoundDuration":134300,"Delta":18296499},{"NoteNumber":86,"Velocity":46,"Duration":134300,"SoundDuration":134300,"Delta":18430799},{"NoteNumber":84,"Velocity":51,"Duration":134300,"SoundDuration":134300,"Delta":18565100},{"NoteNumber":81,"Velocity":46,"Duration":134300,"SoundDuration":134300,"Delta":18699400},{"NoteNumber":77,"Velocity":46,"Duration":134300,"SoundDuration":134300,"Delta":18833700},{"NoteNumber":74,"Velocity":46,"Duration":134300,"SoundDuration":134300,"Delta":18968000},{"NoteNumber":72,"Velocity":51,"Duration":134300,"SoundDuration":134300,"Delta":19102301},{"NoteNumber":77,"Velocity":47,"Duration":134300,"SoundDuration":134300,"Delta":19236601},{"NoteNumber":89,"Velocity":51,"Duration":134300,"SoundDuration":134300,"Delta":19370901},{"NoteNumber":86,"Velocity":46,"Duration":134300,"SoundDuration":134300,"Delta":19505201},{"NoteNumber":84,"Velocity":53,"Duration":132719,"SoundDuration":132719,"Delta":19639502},{"NoteNumber":48,"Velocity":47,"Duration":530878,"SoundDuration":530878,"Delta":19639502},{"NoteNumber":81,"Velocity":44,"Duration":132719,"SoundDuration":132719,"Delta":19772221},{"NoteNumber":77,"Velocity":44,"Duration":132719,"SoundDuration":132719,"Delta":19904941},{"NoteNumber":74,"Velocity":44,"Duration":132719,"SoundDuration":132719,"Delta":20037661},{"NoteNumber":59,"Velocity":33,"Duration":66359,"SoundDuration":66359,"Delta":20037661},{"NoteNumber":60,"Velocity":33,"Duration":66359,"SoundDuration":66359,"Delta":20104021},{"NoteNumber":72,"Velocity":46,"Duration":139758,"SoundDuration":139758,"Delta":20170381},{"NoteNumber":62,"Velocity":38,"Duration":70312,"SoundDuration":70312,"Delta":20170381},{"NoteNumber":60,"Velocity":38,"Duration":69445,"SoundDuration":69445,"Delta":20240694},{"NoteNumber":77,"Velocity":43,"Duration":136062,"SoundDuration":136062,"Delta":20310139},{"NoteNumber":62,"Velocity":39,"Duration":68494,"SoundDuration":68494,"Delta":20310139},{"NoteNumber":60,"Velocity":40,"Duration":67568,"SoundDuration":67568,"Delta":20378633},{"NoteNumber":89,"Velocity":51,"Duration":137287,"SoundDuration":137287,"Delta":20446202},{"NoteNumber":62,"Velocity":40,"Duration":67756,"SoundDuration":67756,"Delta":20446202},{"NoteNumber":60,"Velocity":41,"Duration":69530,"SoundDuration":69530,"Delta":20513958},{"NoteNumber":86,"Velocity":47,"Duration":140592,"SoundDuration":140592,"Delta":20583489},{"NoteNumber":59,"Velocity":42,"Duration":70103,"SoundDuration":70103,"Delta":20583489},{"NoteNumber":60,"Velocity":42,"Duration":70488,"SoundDuration":70488,"Delta":20653592},{"NoteNumber":84,"Velocity":51,"Duration":135906,"SoundDuration":135906,"Delta":20724081},{"NoteNumber":60,"Velocity":36,"Duration":1087251,"SoundDuration":1087251,"Delta":20724081},{"NoteNumber":69,"Velocity":47,"Duration":543625,"SoundDuration":543625,"Delta":20724081},{"NoteNumber":81,"Velocity":46,"Duration":135906,"SoundDuration":135906,"Delta":20859987},{"NoteNumber":77,"Velocity":46,"Duration":135906,"SoundDuration":135906,"Delta":20995894},{"NoteNumber":74,"Velocity":46,"Duration":135906,"SoundDuration":135906,"Delta":21131800},{"NoteNumber":72,"Velocity":51,"Duration":135906,"SoundDuration":135906,"Delta":21267707},{"NoteNumber":67,"Velocity":45,"Duration":543625,"SoundDuration":543625,"Delta":21267707},{"NoteNumber":76,"Velocity":49,"Duration":135906,"SoundDuration":135906,"Delta":21403613},{"NoteNumber":82,"Velocity":51,"Duration":135906,"SoundDuration":135906,"Delta":21539520},{"NoteNumber":79,"Velocity":47,"Duration":135906,"SoundDuration":135906,"Delta":21675426},{"NoteNumber":81,"Velocity":51,"Duration":135906,"SoundDuration":135906,"Delta":21811333},{"NoteNumber":53,"Velocity":47,"Duration":271813,"SoundDuration":271813,"Delta":21811333},{"NoteNumber":77,"Velocity":44,"Duration":135906,"SoundDuration":135906,"Delta":21947239},{"NoteNumber":72,"Velocity":39,"Duration":135906,"SoundDuration":135906,"Delta":22083146},{"NoteNumber":60,"Velocity":44,"Duration":135906,"SoundDuration":135906,"Delta":22083146},{"NoteNumber":69,"Velocity":39,"Duration":132508,"SoundDuration":132508,"Delta":22219052},{"NoteNumber":65,"Velocity":40,"Duration":135906,"SoundDuration":135906,"Delta":22219052},{"NoteNumber":72,"Velocity":44,"Duration":133761,"SoundDuration":133761,"Delta":22354959},{"NoteNumber":69,"Velocity":46,"Duration":267522,"SoundDuration":267522,"Delta":22354959},{"NoteNumber":77,"Velocity":40,"Duration":133761,"SoundDuration":133761,"Delta":22488720},{"NoteNumber":82,"Velocity":44,"Duration":136998,"SoundDuration":136998,"Delta":22622481},{"NoteNumber":76,"Velocity":34,"Duration":136998,"SoundDuration":136998,"Delta":22622481},{"NoteNumber":60,"Velocity":32,"Duration":273997,"SoundDuration":273997,"Delta":22622481},{"NoteNumber":67,"Velocity":41,"Duration":273997,"SoundDuration":273997,"Delta":22622481},{"NoteNumber":79,"Velocity":44,"Duration":136998,"SoundDuration":136998,"Delta":22759480},{"NoteNumber":81,"Velocity":46,"Duration":133761,"SoundDuration":133761,"Delta":22896479},{"NoteNumber":53,"Velocity":48,"Duration":267522,"SoundDuration":267522,"Delta":22896479},{"NoteNumber":77,"Velocity":45,"Duration":133761,"SoundDuration":133761,"Delta":23030240},{"NoteNumber":72,"Velocity":41,"Duration":133761,"SoundDuration":133761,"Delta":23164001},{"NoteNumber":60,"Velocity":43,"Duration":133761,"SoundDuration":133761,"Delta":23164001},{"NoteNumber":69,"Velocity":41,"Duration":130417,"SoundDuration":130417,"Delta":23297763},{"NoteNumber":65,"Velocity":41,"Duration":133761,"SoundDuration":133761,"Delta":23297763},{"NoteNumber":72,"Velocity":44,"Duration":133761,"SoundDuration":133761,"Delta":23431524},{"NoteNumber":69,"Velocity":45,"Duration":267522,"SoundDuration":267522,"Delta":23431524},{"NoteNumber":77,"Velocity":40,"Duration":133761,"SoundDuration":133761,"Delta":23565285},{"NoteNumber":82,"Velocity":44,"Duration":133761,"SoundDuration":133761,"Delta":23699046},{"NoteNumber":76,"Velocity":34,"Duration":133761,"SoundDuration":133761,"Delta":23699046},{"NoteNumber":60,"Velocity":32,"Duration":267522,"SoundDuration":267522,"Delta":23699046},{"NoteNumber":67,"Velocity":42,"Duration":267522,"SoundDuration":267522,"Delta":23699046},{"NoteNumber":79,"Velocity":43,"Duration":133761,"SoundDuration":133761,"Delta":23832808},{"NoteNumber":81,"Velocity":46,"Duration":135191,"SoundDuration":135191,"Delta":23966569},{"NoteNumber":53,"Velocity":47,"Duration":180493,"SoundDuration":180493,"Delta":23966569},{"NoteNumber":77,"Velocity":44,"Duration":135906,"SoundDuration":135906,"Delta":24101760},{"NoteNumber":60,"Velocity":45,"Duration":181208,"SoundDuration":181208,"Delta":24147063},{"NoteNumber":72,"Velocity":39,"Duration":135906,"SoundDuration":135906,"Delta":24237667},{"NoteNumber":65,"Velocity":39,"Duration":181208,"SoundDuration":181208,"Delta":24328271},{"NoteNumber":69,"Velocity":39,"Duration":127978,"SoundDuration":127978,"Delta":24373573},{"NoteNumber":72,"Velocity":47,"Duration":132719,"SoundDuration":132719,"Delta":24509480},{"NoteNumber":69,"Velocity":47,"Duration":176959,"SoundDuration":176959,"Delta":24509480},{"NoteNumber":77,"Velocity":41,"Duration":132719,"SoundDuration":132719,"Delta":24642200},{"NoteNumber":75,"Velocity":50,"Duration":178203,"SoundDuration":178203,"Delta":24686440},{"NoteNumber":81,"Velocity":48,"Duration":135206,"SoundDuration":135206,"Delta":24774919},{"NoteNumber":84,"Velocity":46,"Duration":136450,"SoundDuration":136450,"Delta":24910126},{"NoteNumber":89,"Velocity":51,"Duration":136986,"SoundDuration":136986,"Delta":25046577},{"NoteNumber":93,"Velocity":46,"Duration":136986,"SoundDuration":136986,"Delta":25183563},{"NoteNumber":91,"Velocity":48,"Duration":136986,"SoundDuration":136986,"Delta":25320549},{"NoteNumber":84,"Velocity":45,"Duration":136986,"SoundDuration":136986,"Delta":25457536},{"NoteNumber":79,"Velocity":52,"Duration":136986,"SoundDuration":136986,"Delta":25594522},{"NoteNumber":84,"Velocity":46,"Duration":136986,"SoundDuration":136986,"Delta":25731508},{"NoteNumber":79,"Velocity":51,"Duration":139534,"SoundDuration":139534,"Delta":25868494},{"NoteNumber":81,"Velocity":48,"Duration":139535,"SoundDuration":139535,"Delta":26008029},{"NoteNumber":89,"Velocity":48,"Duration":135191,"SoundDuration":135191,"Delta":26147564},{"NoteNumber":58,"Velocity":55,"Duration":180493,"SoundDuration":180493,"Delta":26147564},{"NoteNumber":86,"Velocity":45,"Duration":135906,"SoundDuration":135906,"Delta":26282756},{"NoteNumber":65,"Velocity":20,"Duration":181208,"SoundDuration":181208,"Delta":26328058},{"NoteNumber":82,"Velocity":42,"Duration":135906,"SoundDuration":135906,"Delta":26418662},{"NoteNumber":74,"Velocity":45,"Duration":181208,"SoundDuration":181208,"Delta":26509267},{"NoteNumber":79,"Velocity":42,"Duration":135906,"SoundDuration":135906,"Delta":26554569},{"NoteNumber":77,"Velocity":46,"Duration":132719,"SoundDuration":132719,"Delta":26690475},{"NoteNumber":82,"Velocity":42,"Duration":132719,"SoundDuration":132719,"Delta":26823195},{"NoteNumber":94,"Velocity":48,"Duration":135206,"SoundDuration":135206,"Delta":26955915},{"NoteNumber":91,"Velocity":46,"Duration":136450,"SoundDuration":136450,"Delta":27091122},{"NoteNumber":89,"Velocity":51,"Duration":133761,"SoundDuration":133761,"Delta":27227572},{"NoteNumber":86,"Velocity":46,"Duration":133761,"SoundDuration":133761,"Delta":27361333},{"NoteNumber":82,"Velocity":48,"Duration":133761,"SoundDuration":133761,"Delta":27495095},{"NoteNumber":79,"Velocity":44,"Duration":133761,"SoundDuration":133761,"Delta":27628856},{"NoteNumber":77,"Velocity":47,"Duration":133761,"SoundDuration":133761,"Delta":27762617},{"NoteNumber":82,"Velocity":44,"Duration":133761,"SoundDuration":133761,"Delta":27896378},{"NoteNumber":94,"Velocity":51,"Duration":133761,"SoundDuration":133761,"Delta":28030140},{"NoteNumber":91,"Velocity":48,"Duration":133761,"SoundDuration":133761,"Delta":28163901},{"NoteNumber":89,"Velocity":48,"Duration":135191,"SoundDuration":135191,"Delta":28297662},{"NoteNumber":55,"Velocity":54,"Duration":180493,"SoundDuration":180493,"Delta":28297662},{"NoteNumber":86,"Velocity":46,"Duration":135906,"SoundDuration":135906,"Delta":28432854},{"NoteNumber":65,"Velocity":47,"Duration":181208,"SoundDuration":181208,"Delta":28478156},{"NoteNumber":83,"Velocity":43,"Duration":135906,"SoundDuration":135906,"Delta":28568760},{"NoteNumber":74,"Velocity":43,"Duration":181208,"SoundDuration":181208,"Delta":28659364},{"NoteNumber":79,"Velocity":43,"Duration":135906,"SoundDuration":135906,"Delta":28704667},{"NoteNumber":77,"Velocity":48,"Duration":132719,"SoundDuration":132719,"Delta":28840573},{"NoteNumber":79,"Velocity":43,"Duration":132719,"SoundDuration":132719,"Delta":28973293},{"NoteNumber":95,"Velocity":48,"Duration":135206,"SoundDuration":135206,"Delta":29106013},{"NoteNumber":91,"Velocity":46,"Duration":136450,"SoundDuration":136450,"Delta":29241219},{"NoteNumber":89,"Velocity":51,"Duration":133761,"SoundDuration":133761,"Delta":29377670},{"NoteNumber":86,"Velocity":46,"Duration":133761,"SoundDuration":133761,"Delta":29511431},{"NoteNumber":83,"Velocity":48,"Duration":133761,"SoundDuration":133761,"Delta":29645192},{"NoteNumber":79,"Velocity":45,"Duration":133761,"SoundDuration":133761,"Delta":29778954},{"NoteNumber":77,"Velocity":48,"Duration":133761,"SoundDuration":133761,"Delta":29912715},{"NoteNumber":79,"Velocity":44,"Duration":133761,"SoundDuration":133761,"Delta":30046476},{"NoteNumber":95,"Velocity":51,"Duration":133761,"SoundDuration":133761,"Delta":30180237},{"NoteNumber":91,"Velocity":48,"Duration":133761,"SoundDuration":133761,"Delta":30313999},{"NoteNumber":89,"Velocity":48,"Duration":135191,"SoundDuration":135191,"Delta":30447760},{"NoteNumber":60,"Velocity":57,"Duration":180493,"SoundDuration":180493,"Delta":30447760},{"NoteNumber":86,"Velocity":46,"Duration":135906,"SoundDuration":135906,"Delta":30582951},{"NoteNumber":67,"Velocity":47,"Duration":2022178,"SoundDuration":2022178,"Delta":30628254},{"NoteNumber":84,"Velocity":42,"Duration":135906,"SoundDuration":135906,"Delta":30718858},{"NoteNumber":72,"Velocity":43,"Duration":181208,"SoundDuration":181208,"Delta":30809462},{"NoteNumber":81,"Velocity":43,"Duration":135906,"SoundDuration":135906,"Delta":30854764},{"NoteNumber":79,"Velocity":48,"Duration":132719,"SoundDuration":132719,"Delta":30990671},{"NoteNumber":77,"Velocity":52,"Duration":1659761,"SoundDuration":1659761,"Delta":30990671},{"NoteNumber":84,"Velocity":45,"Duration":132719,"SoundDuration":132719,"Delta":31123391},{"NoteNumber":96,"Velocity":48,"Duration":135206,"SoundDuration":135206,"Delta":31256110},{"NoteNumber":93,"Velocity":46,"Duration":136450,"SoundDuration":136450,"Delta":31391317},{"NoteNumber":89,"Velocity":51,"Duration":133761,"SoundDuration":133761,"Delta":31527768},{"NoteNumber":86,"Velocity":46,"Duration":133761,"SoundDuration":133761,"Delta":31661529},{"NoteNumber":84,"Velocity":48,"Duration":133761,"SoundDuration":133761,"Delta":31795290},{"NoteNumber":81,"Velocity":48,"Duration":133761,"SoundDuration":133761,"Delta":31929052},{"NoteNumber":79,"Velocity":52,"Duration":133761,"SoundDuration":133761,"Delta":32062813},{"NoteNumber":84,"Velocity":46,"Duration":133761,"SoundDuration":133761,"Delta":32196574},{"NoteNumber":96,"Velocity":51,"Duration":133761,"SoundDuration":133761,"Delta":32330335},{"NoteNumber":93,"Velocity":48,"Duration":186335,"SoundDuration":186335,"Delta":32464097},{"NoteNumber":60,"Velocity":42,"Duration":729246,"SoundDuration":729246,"Delta":32464097},{"NoteNumber":67,"Velocity":48,"Duration":1173175,"SoundDuration":1173175,"Delta":32557264},{"NoteNumber":89,"Velocity":51,"Duration":135191,"SoundDuration":135191,"Delta":32650432},{"NoteNumber":70,"Velocity":61,"Duration":2193860,"SoundDuration":2193860,"Delta":32650432},{"NoteNumber":86,"Velocity":47,"Duration":135906,"SoundDuration":135906,"Delta":32785623},{"NoteNumber":84,"Velocity":44,"Duration":135906,"SoundDuration":135906,"Delta":32921530},{"NoteNumber":81,"Velocity":44,"Duration":132508,"SoundDuration":132508,"Delta":33057436},{"NoteNumber":79,"Velocity":47,"Duration":132719,"SoundDuration":132719,"Delta":33193343},{"NoteNumber":76,"Velocity":49,"Duration":1650949,"SoundDuration":1650949,"Delta":33193343},{"NoteNumber":84,"Velocity":42,"Duration":132719,"SoundDuration":132719,"Delta":33326063},{"NoteNumber":96,"Velocity":51,"Duration":135206,"SoundDuration":135206,"Delta":33458782},{"NoteNumber":93,"Velocity":45,"Duration":136450,"SoundDuration":136450,"Delta":33593989},{"NoteNumber":91,"Velocity":53,"Duration":138248,"SoundDuration":138248,"Delta":33730440},{"NoteNumber":81,"Velocity":52,"Duration":276497,"SoundDuration":276497,"Delta":33730440},{"NoteNumber":88,"Velocity":45,"Duration":138248,"SoundDuration":138248,"Delta":33868689},{"NoteNumber":84,"Velocity":45,"Duration":138248,"SoundDuration":138248,"Delta":34006937},{"NoteNumber":81,"Velocity":45,"Duration":138248,"SoundDuration":138248,"Delta":34145186},{"NoteNumber":79,"Velocity":51,"Duration":138248,"SoundDuration":138248,"Delta":34283435},{"NoteNumber":84,"Velocity":40,"Duration":138248,"SoundDuration":138248,"Delta":34421684},{"NoteNumber":96,"Velocity":45,"Duration":142180,"SoundDuration":142180,"Delta":34559932},{"NoteNumber":91,"Velocity":37,"Duration":142179,"SoundDuration":142179,"Delta":34702112},{"NoteNumber":53,"Velocity":35,"Duration":1223007,"SoundDuration":1223007,"Delta":34702112},{"NoteNumber":60,"Velocity":40,"Duration":1151917,"SoundDuration":1151917,"Delta":34773202},{"NoteNumber":96,"Velocity":45,"Duration":135906,"SoundDuration":135906,"Delta":34844292},{"NoteNumber":69,"Velocity":44,"Duration":1080827,"SoundDuration":1080827,"Delta":34844292},{"NoteNumber":93,"Velocity":41,"Duration":135906,"SoundDuration":135906,"Delta":34980199},{"NoteNumber":89,"Velocity":41,"Duration":135906,"SoundDuration":135906,"Delta":35116105},{"NoteNumber":86,"Velocity":42,"Duration":135906,"SoundDuration":135906,"Delta":35252012},{"NoteNumber":84,"Velocity":45,"Duration":134300,"SoundDuration":134300,"Delta":35387918},{"NoteNumber":89,"Velocity":41,"Duration":134300,"SoundDuration":134300,"Delta":35522219},{"NoteNumber":101,"Velocity":45,"Duration":134300,"SoundDuration":134300,"Delta":35656519},{"NoteNumber":98,"Velocity":42,"Duration":134300,"SoundDuration":134300,"Delta":35790819},{"NoteNumber":96,"Velocity":45,"Duration":134300,"SoundDuration":134300,"Delta":35925119},{"NoteNumber":93,"Velocity":42,"Duration":134300,"SoundDuration":134300,"Delta":36059420},{"NoteNumber":89,"Velocity":42,"Duration":134300,"SoundDuration":134300,"Delta":36193720},{"NoteNumber":86,"Velocity":42,"Duration":134300,"SoundDuration":134300,"Delta":36328020},{"NoteNumber":84,"Velocity":45,"Duration":134300,"SoundDuration":134300,"Delta":36462320},{"NoteNumber":89,"Velocity":43,"Duration":134300,"SoundDuration":134300,"Delta":36596621},{"NoteNumber":101,"Velocity":45,"Duration":134300,"SoundDuration":134300,"Delta":36730921},{"NoteNumber":98,"Velocity":42,"Duration":134300,"SoundDuration":134300,"Delta":36865221},{"NoteNumber":96,"Velocity":46,"Duration":132719,"SoundDuration":132719,"Delta":36999521},{"NoteNumber":48,"Velocity":38,"Duration":530878,"SoundDuration":530878,"Delta":36999521},{"NoteNumber":93,"Velocity":43,"Duration":132719,"SoundDuration":132719,"Delta":37132241},{"NoteNumber":89,"Velocity":43,"Duration":132719,"SoundDuration":132719,"Delta":37264961},{"NoteNumber":86,"Velocity":43,"Duration":132719,"SoundDuration":132719,"Delta":37397681},{"NoteNumber":59,"Velocity":29,"Duration":66359,"SoundDuration":66359,"Delta":37397681},{"NoteNumber":60,"Velocity":29,"Duration":66359,"SoundDuration":66359,"Delta":37464040},{"NoteNumber":84,"Velocity":45,"Duration":137939,"SoundDuration":137939,"Delta":37530400},{"NoteNumber":62,"Velocity":34,"Duration":69445,"SoundDuration":69445,"Delta":37530400},{"NoteNumber":60,"Velocity":34,"Duration":68494,"SoundDuration":68494,"Delta":37599846},{"NoteNumber":89,"Velocity":42,"Duration":134334,"SoundDuration":134334,"Delta":37668340},{"NoteNumber":62,"Velocity":35,"Duration":67568,"SoundDuration":67568,"Delta":37668340},{"NoteNumber":60,"Velocity":36,"Duration":66765,"SoundDuration":66765,"Delta":37735908},{"NoteNumber":101,"Velocity":45,"Duration":135448,"SoundDuration":135448,"Delta":37802674},{"NoteNumber":62,"Velocity":36,"Duration":67265,"SoundDuration":67265,"Delta":37802674},{"NoteNumber":60,"Velocity":36,"Duration":68182,"SoundDuration":68182,"Delta":37869940},{"NoteNumber":98,"Velocity":43,"Duration":140068,"SoundDuration":140068,"Delta":37938123},{"NoteNumber":59,"Velocity":37,"Duration":69580,"SoundDuration":69580,"Delta":37938123},{"NoteNumber":60,"Velocity":37,"Duration":70488,"SoundDuration":70488,"Delta":38007703},{"NoteNumber":96,"Velocity":45,"Duration":135906,"SoundDuration":135906,"Delta":38078191},{"NoteNumber":60,"Velocity":32,"Duration":1087251,"SoundDuration":1087251,"Delta":38078191},{"NoteNumber":69,"Velocity":42,"Duration":543626,"SoundDuration":543626,"Delta":38078191},{"NoteNumber":93,"Velocity":42,"Duration":135906,"SoundDuration":135906,"Delta":38214098},{"NoteNumber":89,"Velocity":42,"Duration":135906,"SoundDuration":135906,"Delta":38350004},{"NoteNumber":86,"Velocity":42,"Duration":135906,"SoundDuration":135906,"Delta":38485911},{"NoteNumber":84,"Velocity":45,"Duration":135906,"SoundDuration":135906,"Delta":38621817},{"NoteNumber":67,"Velocity":40,"Duration":543625,"SoundDuration":543625,"Delta":38621817},{"NoteNumber":88,"Velocity":44,"Duration":135906,"SoundDuration":135906,"Delta":38757724},{"NoteNumber":94,"Velocity":45,"Duration":135906,"SoundDuration":135906,"Delta":38893630},{"NoteNumber":91,"Velocity":43,"Duration":135906,"SoundDuration":135906,"Delta":39029537},{"NoteNumber":93,"Velocity":45,"Duration":135906,"SoundDuration":135906,"Delta":39165443},{"NoteNumber":53,"Velocity":42,"Duration":271813,"SoundDuration":271813,"Delta":39165443},{"NoteNumber":89,"Velocity":43,"Duration":135906,"SoundDuration":135906,"Delta":39301350},{"NoteNumber":84,"Velocity":37,"Duration":135906,"SoundDuration":135906,"Delta":39437256},{"NoteNumber":60,"Velocity":40,"Duration":135906,"SoundDuration":135906,"Delta":39437256},{"NoteNumber":81,"Velocity":37,"Duration":135906,"SoundDuration":135906,"Delta":39573163},{"NoteNumber":65,"Velocity":38,"Duration":135906,"SoundDuration":135906,"Delta":39573163},{"NoteNumber":77,"Velocity":43,"Duration":133761,"SoundDuration":133761,"Delta":39709069},{"NoteNumber":69,"Velocity":42,"Duration":267522,"SoundDuration":267522,"Delta":39709069},{"NoteNumber":72,"Velocity":39,"Duration":133761,"SoundDuration":133761,"Delta":39842831},{"NoteNumber":76,"Velocity":33,"Duration":136998,"SoundDuration":136998,"Delta":39976592},{"NoteNumber":82,"Velocity":42,"Duration":136998,"SoundDuration":136998,"Delta":39976592},{"NoteNumber":60,"Velocity":28,"Duration":273997,"SoundDuration":273997,"Delta":39976592},{"NoteNumber":67,"Velocity":36,"Duration":273997,"SoundDuration":273997,"Delta":39976592},{"NoteNumber":79,"Velocity":43,"Duration":136998,"SoundDuration":136998,"Delta":40113591},{"NoteNumber":81,"Velocity":45,"Duration":133761,"SoundDuration":133761,"Delta":40250589},{"NoteNumber":41,"Velocity":43,"Duration":267522,"SoundDuration":267522,"Delta":40250589},{"NoteNumber":77,"Velocity":44,"Duration":133761,"SoundDuration":133761,"Delta":40384351},{"NoteNumber":72,"Velocity":40,"Duration":133761,"SoundDuration":133761,"Delta":40518112},{"NoteNumber":48,"Velocity":40,"Duration":133761,"SoundDuration":133761,"Delta":40518112},{"NoteNumber":69,"Velocity":40,"Duration":133761,"SoundDuration":133761,"Delta":40651873},{"NoteNumber":53,"Velocity":36,"Duration":133761,"SoundDuration":133761,"Delta":40651873},{"NoteNumber":65,"Velocity":43,"Duration":132158,"SoundDuration":132158,"Delta":40785634},{"NoteNumber":57,"Velocity":40,"Duration":264316,"SoundDuration":264316,"Delta":40785634},{"NoteNumber":60,"Velocity":39,"Duration":132158,"SoundDuration":132158,"Delta":40917793},{"NoteNumber":70,"Velocity":42,"Duration":136363,"SoundDuration":136363,"Delta":41049951},{"NoteNumber":64,"Velocity":33,"Duration":136363,"SoundDuration":136363,"Delta":41049951},{"NoteNumber":48,"Velocity":28,"Duration":272727,"SoundDuration":272727,"Delta":41049951},{"NoteNumber":55,"Velocity":37,"Duration":272727,"SoundDuration":272727,"Delta":41049951},{"NoteNumber":67,"Velocity":42,"Duration":136363,"SoundDuration":136363,"Delta":41186315},{"NoteNumber":69,"Velocity":45,"Duration":135746,"SoundDuration":135746,"Delta":41322679},{"NoteNumber":41,"Velocity":43,"Duration":271492,"SoundDuration":271492,"Delta":41322679},{"NoteNumber":65,"Velocity":44,"Duration":135746,"SoundDuration":135746,"Delta":41458425},{"NoteNumber":60,"Velocity":39,"Duration":135746,"SoundDuration":135746,"Delta":41594172},{"NoteNumber":48,"Velocity":39,"Duration":135746,"SoundDuration":135746,"Delta":41594172},{"NoteNumber":57,"Velocity":39,"Duration":132352,"SoundDuration":132352,"Delta":41729918},{"NoteNumber":53,"Velocity":36,"Duration":135746,"SoundDuration":135746,"Delta":41729918},{"NoteNumber":60,"Velocity":41,"Duration":133333,"SoundDuration":133333,"Delta":41865665},{"NoteNumber":57,"Velocity":40,"Duration":266666,"SoundDuration":266666,"Delta":41865665},{"NoteNumber":65,"Velocity":36,"Duration":133333,"SoundDuration":133333,"Delta":41998998},{"NoteNumber":70,"Velocity":39,"Duration":140186,"SoundDuration":140186,"Delta":42132331},{"NoteNumber":64,"Velocity":30,"Duration":140186,"SoundDuration":140186,"Delta":42132331},{"NoteNumber":48,"Velocity":26,"Duration":280374,"SoundDuration":280374,"Delta":42132331},{"NoteNumber":55,"Velocity":35,"Duration":280374,"SoundDuration":280374,"Delta":42132331},{"NoteNumber":67,"Velocity":39,"Duration":140187,"SoundDuration":140187,"Delta":42272518},{"NoteNumber":69,"Velocity":42,"Duration":135135,"SoundDuration":135135,"Delta":42412705},{"NoteNumber":41,"Velocity":40,"Duration":270270,"SoundDuration":270270,"Delta":42412705},{"NoteNumber":65,"Velocity":41,"Duration":135135,"SoundDuration":135135,"Delta":42547841},{"NoteNumber":60,"Velocity":34,"Duration":135135,"SoundDuration":135135,"Delta":42682976},{"NoteNumber":48,"Velocity":35,"Duration":135135,"SoundDuration":135135,"Delta":42682976},{"NoteNumber":57,"Velocity":34,"Duration":131756,"SoundDuration":131756,"Delta":42818111},{"NoteNumber":53,"Velocity":32,"Duration":135135,"SoundDuration":135135,"Delta":42818111},{"NoteNumber":60,"Velocity":38,"Duration":132743,"SoundDuration":132743,"Delta":42953246},{"NoteNumber":57,"Velocity":37,"Duration":265486,"SoundDuration":265486,"Delta":42953246},{"NoteNumber":65,"Velocity":34,"Duration":132743,"SoundDuration":132743,"Delta":43085990},{"NoteNumber":70,"Velocity":35,"Duration":139535,"SoundDuration":139535,"Delta":43218733},{"NoteNumber":64,"Velocity":28,"Duration":139535,"SoundDuration":139535,"Delta":43218733},{"NoteNumber":48,"Velocity":24,"Duration":279069,"SoundDuration":279069,"Delta":43218733},{"NoteNumber":55,"Velocity":33,"Duration":279069,"SoundDuration":279069,"Delta":43218733},{"NoteNumber":67,"Velocity":35,"Duration":139534,"SoundDuration":139534,"Delta":43358268},{"NoteNumber":69,"Velocity":38,"Duration":137405,"SoundDuration":137405,"Delta":43497803},{"NoteNumber":41,"Velocity":37,"Duration":411796,"SoundDuration":411796,"Delta":43497803},{"NoteNumber":65,"Velocity":38,"Duration":136986,"SoundDuration":136986,"Delta":43635208},{"NoteNumber":60,"Velocity":34,"Duration":137405,"SoundDuration":137405,"Delta":43772194},{"NoteNumber":57,"Velocity":34,"Duration":137405,"SoundDuration":137405,"Delta":43909600},{"NoteNumber":48,"Velocity":31,"Duration":137405,"SoundDuration":137405,"Delta":43909600},{"NoteNumber":60,"Velocity":34,"Duration":137195,"SoundDuration":137195,"Delta":44047005},{"NoteNumber":53,"Velocity":31,"Duration":137195,"SoundDuration":137195,"Delta":44047005},{"NoteNumber":65,"Velocity":32,"Duration":138037,"SoundDuration":138037,"Delta":44184201},{"NoteNumber":57,"Velocity":28,"Duration":138037,"SoundDuration":138037,"Delta":44184201},{"NoteNumber":69,"Velocity":36,"Duration":139104,"SoundDuration":139104,"Delta":44322238},{"NoteNumber":60,"Velocity":28,"Duration":139104,"SoundDuration":139104,"Delta":44322238},{"NoteNumber":72,"Velocity":33,"Duration":140264,"SoundDuration":140264,"Delta":44461342},{"NoteNumber":65,"Velocity":27,"Duration":140264,"SoundDuration":140264,"Delta":44461342},{"NoteNumber":77,"Velocity":39,"Duration":140735,"SoundDuration":140735,"Delta":44601607},{"NoteNumber":69,"Velocity":29,"Duration":140735,"SoundDuration":140735,"Delta":44601607},{"NoteNumber":81,"Velocity":34,"Duration":144283,"SoundDuration":144283,"Delta":44742343},{"NoteNumber":75,"Velocity":32,"Duration":144283,"SoundDuration":144283,"Delta":44742343},{"NoteNumber":84,"Velocity":30,"Duration":147803,"SoundDuration":147803,"Delta":44886627},{"NoteNumber":69,"Velocity":29,"Duration":147803,"SoundDuration":147803,"Delta":44886627},{"NoteNumber":89,"Velocity":26,"Duration":151495,"SoundDuration":151495,"Delta":45034430},{"NoteNumber":65,"Velocity":23,"Duration":151495,"SoundDuration":151495,"Delta":45034430},{"NoteNumber":93,"Velocity":33,"Duration":155996,"SoundDuration":155996,"Delta":45185926},{"NoteNumber":60,"Velocity":27,"Duration":155996,"SoundDuration":155996,"Delta":45185926},{"NoteNumber":84,"Velocity":31,"Duration":162475,"SoundDuration":162475,"Delta":45341923},{"NoteNumber":57,"Velocity":24,"Duration":162475,"SoundDuration":162475,"Delta":45341923},{"NoteNumber":89,"Velocity":29,"Duration":207469,"SoundDuration":207469,"Delta":45504398},{"NoteNumber":53,"Velocity":22,"Duration":207469,"SoundDuration":207469,"Delta":45504398},{"NoteNumber":81,"Velocity":26,"Duration":332594,"SoundDuration":332594,"Delta":45711867},{"NoteNumber":48,"Velocity":20,"Duration":332594,"SoundDuration":332594,"Delta":45711867},{"NoteNumber":101,"Velocity":42,"Duration":1008403,"SoundDuration":1008403,"Delta":46044462},{"NoteNumber":41,"Velocity":21,"Duration":1008403,"SoundDuration":1008403,"Delta":46044462}],"license":{"name":"Creative Commons Attribution-ShareAlike 3.0 Germany","url":"http://creativecommons.org/licenses/by-sa/3.0/de/deed.en","text":"The MIDI, audio (MP3, OGG) and video files of Bernd Krueger are licensed under the cc-by-sa Germany License. This means that you can use and adapt the files, as long as you attribute the copyright holder.\n\nName: Bernd Krueger\nSource: http://www.piano-midi.de\n\nThe distribution or public playback of the files is only allowed under identical license conditions.\n\nThe scores are open source.","attribution":"MIDI files by Bernd Krueger (piano-midi.de)","attributionUrl":"http://www.piano-midi.de"}}