{"title":"Chopin Prelude No. 15, Opus 28","artist":"Chopin","durationMs":270149,"midiSha256":"de681739f9048bb534bf908fe9ffd7aac33f2830dcc8b9896cc752b22ad8a92a","midiObject":[{"NoteNumber":77,"Velocity":49,"Duration":604676,"SoundDuration":604676,"Delta":0},{"NoteNumber":49,"Velocity":35,"Duration":403117,"SoundDuration":403117,"Delta":0},{"NoteNumber":56,"Velocity":24,"Duration":411173,"SoundDuration":411173,"Delta":403117},{"NoteNumber":73,"Velocity":44,"Duration":209614,"SoundDuration":209614,"Delta":604676},{"NoteNumber":68,"Velocity":47,"Duration":1537499,"SoundDuration":1537499,"Delta":814290},{"NoteNumber":65,"Velocity":22,"Duration":1537499,"SoundDuration":1537499,"Delta":814290},{"NoteNumber":61,"Velocity":17,"Duration":1537499,"SoundDuration":1537499,"Delta":814290},{"NoteNumber":56,"Velocity":21,"Duration":360759,"SoundDuration":360759,"Delta":1233519},{"NoteNumber":56,"Velocity":23,"Duration":354037,"SoundDuration":354037,"Delta":1613266},{"NoteNumber":56,"Velocity":19,"Duration":347560,"SoundDuration":347560,"Delta":1985937},{"NoteNumber":70,"Velocity":50,"Duration":791482,"SoundDuration":791482,"Delta":2351790},{"NoteNumber":65,"Velocity":27,"Duration":385802,"SoundDuration":385802,"Delta":2351790},{"NoteNumber":61,"Velocity":21,"Duration":385802,"SoundDuration":385802,"Delta":2351790},{"NoteNumber":56,"Velocity":24,"Duration":405679,"SoundDuration":405679,"Delta":2737593},{"NoteNumber":72,"Velocity":49,"Duration":2293128,"SoundDuration":2293128,"Delta":3143272},{"NoteNumber":66,"Velocity":35,"Duration":2293128,"SoundDuration":2293128,"Delta":3143272},{"NoteNumber":63,"Velocity":35,"Duration":2293128,"SoundDuration":2293128,"Delta":3143272},{"NoteNumber":56,"Velocity":26,"Duration":371045,"SoundDuration":371045,"Delta":3548952},{"NoteNumber":56,"Velocity":28,"Duration":364263,"SoundDuration":364263,"Delta":3939526},{"NoteNumber":56,"Velocity":32,"Duration":349693,"SoundDuration":349693,"Delta":4322961},{"NoteNumber":58,"Velocity":35,"Duration":372671,"SoundDuration":372671,"Delta":4691059},{"NoteNumber":56,"Velocity":32,"Duration":372670,"SoundDuration":372670,"Delta":5063730},{"NoteNumber":73,"Velocity":51,"Duration":814132,"SoundDuration":814132,"Delta":5436401},{"NoteNumber":65,"Velocity":35,"Duration":403117,"SoundDuration":403117,"Delta":5436401},{"NoteNumber":61,"Velocity":35,"Duration":403117,"SoundDuration":403117,"Delta":5436401},{"NoteNumber":56,"Velocity":31,"Duration":411014,"SoundDuration":411014,"Delta":5839518},{"NoteNumber":66,"Velocity":45,"Duration":596975,"SoundDuration":596975,"Delta":6250533},{"NoteNumber":75,"Velocity":54,"Duration":596975,"SoundDuration":596975,"Delta":6250533},{"NoteNumber":60,"Velocity":45,"Duration":2361514,"SoundDuration":2361514,"Delta":6250533},{"NoteNumber":56,"Velocity":32,"Duration":815514,"SoundDuration":815514,"Delta":6648517},{"NoteNumber":68,"Velocity":47,"Duration":205507,"SoundDuration":205507,"Delta":6847509},{"NoteNumber":77,"Velocity":56,"Duration":205507,"SoundDuration":205507,"Delta":6847509},{"NoteNumber":78,"Velocity":57,"Duration":1559031,"SoundDuration":1559031,"Delta":7053016},{"NoteNumber":70,"Velocity":49,"Duration":1559031,"SoundDuration":1559031,"Delta":7053016},{"NoteNumber":56,"Velocity":35,"Duration":373378,"SoundDuration":373378,"Delta":7464031},{"NoteNumber":56,"Velocity":32,"Duration":365384,"SoundDuration":365384,"Delta":7857062},{"NoteNumber":56,"Velocity":32,"Duration":768354,"SoundDuration":768354,"Delta":8241677},{"NoteNumber":61,"Velocity":44,"Duration":397983,"SoundDuration":397983,"Delta":8612048},{"NoteNumber":68,"Velocity":44,"Duration":397983,"SoundDuration":397983,"Delta":8612048},{"NoteNumber":77,"Velocity":53,"Duration":811662,"SoundDuration":811662,"Delta":8612048},{"NoteNumber":56,"Velocity":29,"Duration":413679,"SoundDuration":413679,"Delta":9010031},{"NoteNumber":68,"Velocity":44,"Duration":390212,"SoundDuration":390212,"Delta":9423710},{"NoteNumber":77,"Velocity":53,"Duration":1161817,"SoundDuration":1161817,"Delta":9423710},{"NoteNumber":60,"Velocity":42,"Duration":1562351,"SoundDuration":1562351,"Delta":9423710},{"NoteNumber":56,"Velocity":26,"Duration":385802,"SoundDuration":385802,"Delta":9813923},{"NoteNumber":66,"Velocity":34,"Duration":385802,"SoundDuration":385802,"Delta":10199726},{"NoteNumber":75,"Velocity":49,"Duration":400534,"SoundDuration":400534,"Delta":10585528},{"NoteNumber":56,"Velocity":27,"Duration":400534,"SoundDuration":400534,"Delta":10585528},{"NoteNumber":73,"Velocity":46,"Duration":708795,"SoundDuration":708795,"Delta":10986062},{"NoteNumber":65,"Velocity":31,"Duration":400534,"SoundDuration":400534,"Delta":10986062},{"NoteNumber":61,"Velocity":26,"Duration":400534,"SoundDuration":400534,"Delta":10986062},{"NoteNumber":56,"Velocity":27,"Duration":411015,"SoundDuration":411015,"Delta":11386596},{"NoteNumber":75,"Velocity":45,"Duration":102753,"SoundDuration":102753,"Delta":11694857},{"NoteNumber":75,"Velocity":51,"Duration":127806,"SoundDuration":127806,"Delta":11797611},{"NoteNumber":66,"Velocity":32,"Duration":443824,"SoundDuration":443824,"Delta":11797611},{"NoteNumber":60,"Velocity":27,"Duration":443824,"SoundDuration":443824,"Delta":11797611},{"NoteNumber":77,"Velocity":46,"Duration":126052,"SoundDuration":126052,"Delta":11925417},{"NoteNumber":75,"Velocity":46,"Duration":124291,"SoundDuration":124291,"Delta":12051470},{"NoteNumber":74,"Velocity":51,"Duration":125715,"SoundDuration":125715,"Delta":12175761},{"NoteNumber":56,"Velocity":31,"Duration":492303,"SoundDuration":492303,"Delta":12241436},{"NoteNumber":75,"Velocity":46,"Duration":132358,"SoundDuration":132358,"Delta":12301477},{"NoteNumber":77,"Velocity":46,"Duration":141083,"SoundDuration":141083,"Delta":12433835},{"NoteNumber":78,"Velocity":46,"Duration":158821,"SoundDuration":158821,"Delta":12574918},{"NoteNumber":77,"Velocity":49,"Duration":620689,"SoundDuration":620689,"Delta":12733740},{"NoteNumber":49,"Velocity":35,"Duration":413793,"SoundDuration":413793,"Delta":12733740},{"NoteNumber":56,"Velocity":30,"Duration":416510,"SoundDuration":416510,"Delta":13147533},{"NoteNumber":73,"Velocity":44,"Duration":209614,"SoundDuration":209614,"Delta":13354429},{"NoteNumber":68,"Velocity":46,"Duration":1555889,"SoundDuration":1555889,"Delta":13564044},{"NoteNumber":65,"Velocity":22,"Duration":2347371,"SoundDuration":2347371,"Delta":13564044},{"NoteNumber":61,"Velocity":18,"Duration":2347371,"SoundDuration":2347371,"Delta":13564044},{"NoteNumber":56,"Velocity":21,"Duration":366512,"SoundDuration":366512,"Delta":13983272},{"NoteNumber":56,"Velocity":24,"Duration":359848,"SoundDuration":359848,"Delta":14369075},{"NoteNumber":56,"Velocity":21,"Duration":353466,"SoundDuration":353466,"Delta":14747863},{"NoteNumber":70,"Velocity":50,"Duration":791482,"SoundDuration":791482,"Delta":15119933},{"NoteNumber":56,"Velocity":32,"Duration":366512,"SoundDuration":366512,"Delta":15119933},{"NoteNumber":56,"Velocity":28,"Duration":385395,"SoundDuration":385395,"Delta":15505735},{"NoteNumber":72,"Velocity":49,"Duration":2309043,"SoundDuration":2309043,"Delta":15911415},{"NoteNumber":66,"Velocity":35,"Duration":2309043,"SoundDuration":2309043,"Delta":15911415},{"NoteNumber":63,"Velocity":35,"Duration":2309043,"SoundDuration":2309043,"Delta":15911415},{"NoteNumber":56,"Velocity":31,"Duration":364263,"SoundDuration":364263,"Delta":16317094},{"NoteNumber":56,"Velocity":29,"Duration":364263,"SoundDuration":364263,"Delta":16700530},{"NoteNumber":56,"Velocity":32,"Duration":355583,"SoundDuration":355583,"Delta":17083965},{"NoteNumber":58,"Velocity":35,"Duration":381097,"SoundDuration":381097,"Delta":17458263},{"NoteNumber":56,"Velocity":32,"Duration":381097,"SoundDuration":381097,"Delta":17839361},{"NoteNumber":73,"Velocity":51,"Duration":814132,"SoundDuration":814132,"Delta":18220458},{"NoteNumber":65,"Velocity":35,"Duration":403117,"SoundDuration":403117,"Delta":18220458},{"NoteNumber":61,"Velocity":35,"Duration":403117,"SoundDuration":403117,"Delta":18220458},{"NoteNumber":56,"Velocity":31,"Duration":411014,"SoundDuration":411014,"Delta":18623576},{"NoteNumber":66,"Velocity":45,"Duration":596975,"SoundDuration":596975,"Delta":19034591},{"NoteNumber":75,"Velocity":54,"Duration":596975,"SoundDuration":596975,"Delta":19034591},{"NoteNumber":60,"Velocity":45,"Duration":2349442,"SoundDuration":2349442,"Delta":19034591},{"NoteNumber":56,"Velocity":32,"Duration":815514,"SoundDuration":815514,"Delta":19432574},{"NoteNumber":68,"Velocity":47,"Duration":205507,"SoundDuration":205507,"Delta":19631566},{"NoteNumber":77,"Velocity":56,"Duration":205507,"SoundDuration":205507,"Delta":19631566},{"NoteNumber":78,"Velocity":57,"Duration":1546959,"SoundDuration":1546959,"Delta":19837073},{"NoteNumber":70,"Velocity":49,"Duration":1546959,"SoundDuration":1546959,"Delta":19837073},{"NoteNumber":56,"Velocity":35,"Duration":356249,"SoundDuration":356249,"Delta":20248088},{"NoteNumber":56,"Velocity":32,"Duration":351851,"SoundDuration":351851,"Delta":20623088},{"NoteNumber":56,"Velocity":32,"Duration":788557,"SoundDuration":788557,"Delta":20993459},{"NoteNumber":61,"Velocity":40,"Duration":397983,"SoundDuration":397983,"Delta":21384033},{"NoteNumber":68,"Velocity":44,"Duration":397983,"SoundDuration":397983,"Delta":21384033},{"NoteNumber":77,"Velocity":53,"Duration":811662,"SoundDuration":811662,"Delta":21384033},{"NoteNumber":56,"Velocity":29,"Duration":413678,"SoundDuration":413678,"Delta":21782016},{"NoteNumber":68,"Velocity":44,"Duration":388148,"SoundDuration":388148,"Delta":22195695},{"NoteNumber":77,"Velocity":53,"Duration":1159753,"SoundDuration":1159753,"Delta":22195695},{"NoteNumber":60,"Velocity":44,"Duration":1560287,"SoundDuration":1560287,"Delta":22195695},{"NoteNumber":56,"Velocity":31,"Duration":385802,"SoundDuration":385802,"Delta":22583844},{"NoteNumber":66,"Velocity":34,"Duration":385802,"SoundDuration":385802,"Delta":22969646},{"NoteNumber":75,"Velocity":49,"Duration":400534,"SoundDuration":400534,"Delta":23355449},{"NoteNumber":56,"Velocity":31,"Duration":400534,"SoundDuration":400534,"Delta":23355449},{"NoteNumber":73,"Velocity":46,"Duration":795999,"SoundDuration":795999,"Delta":23755983},{"NoteNumber":65,"Velocity":35,"Duration":400534,"SoundDuration":400534,"Delta":23755983},{"NoteNumber":61,"Velocity":29,"Duration":400534,"SoundDuration":400534,"Delta":23755983},{"NoteNumber":56,"Velocity":24,"Duration":395465,"SoundDuration":395465,"Delta":24156517},{"NoteNumber":72,"Velocity":51,"Duration":400534,"SoundDuration":400534,"Delta":24551982},{"NoteNumber":65,"Velocity":33,"Duration":400534,"SoundDuration":400534,"Delta":24551982},{"NoteNumber":61,"Velocity":27,"Duration":400534,"SoundDuration":400534,"Delta":24551982},{"NoteNumber":73,"Velocity":49,"Duration":419228,"SoundDuration":419228,"Delta":24952516},{"NoteNumber":56,"Velocity":30,"Duration":419228,"SoundDuration":419228,"Delta":24952516},{"NoteNumber":75,"Velocity":54,"Duration":788682,"SoundDuration":788682,"Delta":25371745},{"NoteNumber":44,"Velocity":39,"Duration":400534,"SoundDuration":400534,"Delta":25371745},{"NoteNumber":56,"Velocity":32,"Duration":388148,"SoundDuration":388148,"Delta":25772279},{"NoteNumber":75,"Velocity":54,"Duration":1545834,"SoundDuration":1545834,"Delta":26160427},{"NoteNumber":63,"Velocity":30,"Duration":369003,"SoundDuration":369003,"Delta":26160427},{"NoteNumber":60,"Velocity":30,"Duration":369003,"SoundDuration":369003,"Delta":26160427},{"NoteNumber":56,"Velocity":25,"Duration":388148,"SoundDuration":388148,"Delta":26529431},{"NoteNumber":59,"Velocity":30,"Duration":388148,"SoundDuration":388148,"Delta":26917579},{"NoteNumber":63,"Velocity":30,"Duration":388148,"SoundDuration":388148,"Delta":26917579},{"NoteNumber":56,"Velocity":32,"Duration":400534,"SoundDuration":400534,"Delta":27305728},{"NoteNumber":77,"Velocity":54,"Duration":793448,"SoundDuration":793448,"Delta":27706262},{"NoteNumber":49,"Velocity":31,"Duration":395465,"SoundDuration":395465,"Delta":27706262},{"NoteNumber":59,"Velocity":36,"Duration":395465,"SoundDuration":395465,"Delta":27706262},{"NoteNumber":65,"Velocity":36,"Duration":395465,"SoundDuration":395465,"Delta":27706262},{"NoteNumber":61,"Velocity":33,"Duration":397983,"SoundDuration":397983,"Delta":28101727},{"NoteNumber":78,"Velocity":57,"Duration":365407,"SoundDuration":365407,"Delta":28499711},{"NoteNumber":54,"Velocity":33,"Duration":365407,"SoundDuration":365407,"Delta":28499711},{"NoteNumber":58,"Velocity":39,"Duration":365407,"SoundDuration":365407,"Delta":28499711},{"NoteNumber":77,"Velocity":53,"Duration":385802,"SoundDuration":385802,"Delta":28865119},{"NoteNumber":61,"Velocity":33,"Duration":385802,"SoundDuration":385802,"Delta":28865119},{"NoteNumber":75,"Velocity":53,"Duration":393030,"SoundDuration":393030,"Delta":29250921},{"NoteNumber":58,"Velocity":26,"Duration":393030,"SoundDuration":393030,"Delta":29250921},{"NoteNumber":66,"Velocity":31,"Duration":393030,"SoundDuration":393030,"Delta":29250921},{"NoteNumber":73,"Velocity":53,"Duration":410958,"SoundDuration":410958,"Delta":29643952},{"NoteNumber":61,"Velocity":25,"Duration":410958,"SoundDuration":410958,"Delta":29643952},{"NoteNumber":77,"Velocity":55,"Duration":1621798,"SoundDuration":1621798,"Delta":30054911},{"NoteNumber":49,"Velocity":36,"Duration":410959,"SoundDuration":410959,"Delta":30054911},{"NoteNumber":56,"Velocity":32,"Duration":391488,"SoundDuration":391488,"Delta":30465870},{"NoteNumber":65,"Velocity":34,"Duration":402684,"SoundDuration":402684,"Delta":30857359},{"NoteNumber":61,"Velocity":27,"Duration":402684,"SoundDuration":402684,"Delta":30857359},{"NoteNumber":56,"Velocity":27,"Duration":416666,"SoundDuration":416666,"Delta":31260043},{"NoteNumber":75,"Velocity":57,"Duration":394736,"SoundDuration":394736,"Delta":31676710},{"NoteNumber":51,"Velocity":39,"Duration":394736,"SoundDuration":394736,"Delta":31676710},{"NoteNumber":71,"Velocity":51,"Duration":368098,"SoundDuration":368098,"Delta":32071447},{"NoteNumber":56,"Velocity":30,"Duration":368098,"SoundDuration":368098,"Delta":32071447},{"NoteNumber":70,"Velocity":54,"Duration":374298,"SoundDuration":374298,"Delta":32439545},{"NoteNumber":63,"Velocity":31,"Duration":374298,"SoundDuration":374298,"Delta":32439545},{"NoteNumber":59,"Velocity":31,"Duration":374298,"SoundDuration":374298,"Delta":32439545},{"NoteNumber":68,"Velocity":54,"Duration":374297,"SoundDuration":374297,"Delta":32813843},{"NoteNumber":56,"Velocity":31,"Duration":374297,"SoundDuration":374297,"Delta":32813843},{"NoteNumber":70,"Velocity":59,"Duration":674589,"SoundDuration":674589,"Delta":33188141},{"NoteNumber":51,"Velocity":39,"Duration":374298,"SoundDuration":374298,"Delta":33188141},{"NoteNumber":55,"Velocity":34,"Duration":406508,"SoundDuration":406508,"Delta":33562439},{"NoteNumber":71,"Velocity":51,"Duration":70811,"SoundDuration":70811,"Delta":33756513},{"NoteNumber":70,"Velocity":51,"Duration":70811,"SoundDuration":70811,"Delta":33827325},{"NoteNumber":68,"Velocity":51,"Duration":70811,"SoundDuration":70811,"Delta":33898136},{"NoteNumber":70,"Velocity":54,"Duration":594739,"SoundDuration":594739,"Delta":33968948},{"NoteNumber":63,"Velocity":34,"Duration":390574,"SoundDuration":390574,"Delta":33968948},{"NoteNumber":61,"Velocity":27,"Duration":390574,"SoundDuration":390574,"Delta":33968948},{"NoteNumber":55,"Velocity":29,"Duration":408329,"SoundDuration":408329,"Delta":34359522},{"NoteNumber":71,"Velocity":47,"Duration":204164,"SoundDuration":204164,"Delta":34563687},{"NoteNumber":68,"Velocity":51,"Duration":796148,"SoundDuration":796148,"Delta":34767852},{"NoteNumber":44,"Velocity":39,"Duration":393030,"SoundDuration":393030,"Delta":34767852},{"NoteNumber":56,"Velocity":30,"Duration":403117,"SoundDuration":403117,"Delta":35160882},{"NoteNumber":75,"Velocity":62,"Duration":766243,"SoundDuration":766243,"Delta":35564000},{"NoteNumber":63,"Velocity":37,"Duration":378095,"SoundDuration":378095,"Delta":35564000},{"NoteNumber":59,"Velocity":32,"Duration":378095,"SoundDuration":378095,"Delta":35564000},{"NoteNumber":56,"Velocity":31,"Duration":388148,"SoundDuration":388148,"Delta":35942095},{"NoteNumber":73,"Velocity":65,"Duration":766871,"SoundDuration":766871,"Delta":36330243},{"NoteNumber":61,"Velocity":36,"Duration":383435,"SoundDuration":383435,"Delta":36330243},{"NoteNumber":58,"Velocity":30,"Duration":383435,"SoundDuration":383435,"Delta":36330243},{"NoteNumber":56,"Velocity":29,"Duration":383435,"SoundDuration":383435,"Delta":36713679},{"NoteNumber":76,"Velocity":59,"Duration":786552,"SoundDuration":786552,"Delta":37097114},{"NoteNumber":64,"Velocity":36,"Duration":383435,"SoundDuration":383435,"Delta":37097114},{"NoteNumber":61,"Velocity":30,"Duration":383435,"SoundDuration":383435,"Delta":37097114},{"NoteNumber":56,"Velocity":34,"Duration":403117,"SoundDuration":403117,"Delta":37480550},{"NoteNumber":75,"Velocity":63,"Duration":806235,"SoundDuration":806235,"Delta":37883667},{"NoteNumber":44,"Velocity":43,"Duration":403117,"SoundDuration":403117,"Delta":37883667},{"NoteNumber":56,"Velocity":37,"Duration":403117,"SoundDuration":403117,"Delta":38286785},{"NoteNumber":75,"Velocity":56,"Duration":1526101,"SoundDuration":1526101,"Delta":38689902},{"NoteNumber":63,"Velocity":37,"Duration":1526101,"SoundDuration":1526101,"Delta":38689902},{"NoteNumber":59,"Velocity":32,"Duration":1526101,"SoundDuration":1526101,"Delta":38689902},{"NoteNumber":56,"Velocity":39,"Duration":359848,"SoundDuration":359848,"Delta":39093020},{"NoteNumber":56,"Velocity":43,"Duration":359848,"SoundDuration":359848,"Delta":39471808},{"NoteNumber":56,"Velocity":40,"Duration":347137,"SoundDuration":347137,"Delta":39850596},{"NoteNumber":77,"Velocity":57,"Duration":814419,"SoundDuration":814419,"Delta":40216004},{"NoteNumber":65,"Velocity":46,"Duration":397983,"SoundDuration":397983,"Delta":40216004},{"NoteNumber":59,"Velocity":39,"Duration":397983,"SoundDuration":397983,"Delta":40216004},{"NoteNumber":56,"Velocity":44,"Duration":416435,"SoundDuration":416435,"Delta":40613987},{"NoteNumber":78,"Velocity":63,"Duration":365408,"SoundDuration":365408,"Delta":41030423},{"NoteNumber":51,"Velocity":50,"Duration":365408,"SoundDuration":365408,"Delta":41030423},{"NoteNumber":77,"Velocity":54,"Duration":383435,"SoundDuration":383435,"Delta":41395831},{"NoteNumber":54,"Velocity":36,"Duration":383435,"SoundDuration":383435,"Delta":41395831},{"NoteNumber":75,"Velocity":54,"Duration":400534,"SoundDuration":400534,"Delta":41779266},{"NoteNumber":66,"Velocity":43,"Duration":400534,"SoundDuration":400534,"Delta":41779266},{"NoteNumber":58,"Velocity":36,"Duration":400534,"SoundDuration":400534,"Delta":41779266},{"NoteNumber":73,"Velocity":54,"Duration":419228,"SoundDuration":419228,"Delta":42179800},{"NoteNumber":54,"Velocity":32,"Duration":419228,"SoundDuration":419228,"Delta":42179800},{"NoteNumber":77,"Velocity":51,"Duration":1951821,"SoundDuration":1951821,"Delta":42599029},{"NoteNumber":46,"Velocity":47,"Duration":405679,"SoundDuration":405679,"Delta":42599029},{"NoteNumber":53,"Velocity":36,"Duration":385802,"SoundDuration":385802,"Delta":43004708},{"NoteNumber":65,"Velocity":36,"Duration":385802,"SoundDuration":385802,"Delta":43390511},{"NoteNumber":61,"Velocity":30,"Duration":385802,"SoundDuration":385802,"Delta":43390511},{"NoteNumber":58,"Velocity":30,"Duration":385802,"SoundDuration":385802,"Delta":43390511},{"NoteNumber":53,"Velocity":31,"Duration":397983,"SoundDuration":397983,"Delta":43776313},{"NoteNumber":41,"Velocity":43,"Duration":376553,"SoundDuration":376553,"Delta":44174297},{"NoteNumber":73,"Velocity":54,"Duration":383435,"SoundDuration":383435,"Delta":44550850},{"NoteNumber":53,"Velocity":35,"Duration":383435,"SoundDuration":383435,"Delta":44550850},{"NoteNumber":72,"Velocity":54,"Duration":393030,"SoundDuration":393030,"Delta":44934286},{"NoteNumber":65,"Velocity":36,"Duration":393030,"SoundDuration":393030,"Delta":44934286},{"NoteNumber":61,"Velocity":30,"Duration":393030,"SoundDuration":393030,"Delta":44934286},{"NoteNumber":58,"Velocity":30,"Duration":393030,"SoundDuration":393030,"Delta":44934286},{"NoteNumber":70,"Velocity":54,"Duration":393030,"SoundDuration":393030,"Delta":45327316},{"NoteNumber":53,"Velocity":29,"Duration":393030,"SoundDuration":393030,"Delta":45327316},{"NoteNumber":72,"Velocity":59,"Duration":697958,"SoundDuration":697958,"Delta":45720347},{"NoteNumber":41,"Velocity":43,"Duration":393030,"SoundDuration":393030,"Delta":45720347},{"NoteNumber":53,"Velocity":33,"Duration":413340,"SoundDuration":413340,"Delta":46113377},{"NoteNumber":73,"Velocity":52,"Duration":72275,"SoundDuration":72275,"Delta":46309892},{"NoteNumber":72,"Velocity":52,"Duration":72275,"SoundDuration":72275,"Delta":46382168},{"NoteNumber":70,"Velocity":53,"Duration":72275,"SoundDuration":72275,"Delta":46454443},{"NoteNumber":72,"Velocity":55,"Duration":400534,"SoundDuration":400534,"Delta":46526718},{"NoteNumber":65,"Velocity":37,"Duration":400534,"SoundDuration":400534,"Delta":46526718},{"NoteNumber":63,"Velocity":29,"Duration":400534,"SoundDuration":400534,"Delta":46526718},{"NoteNumber":57,"Velocity":27,"Duration":400534,"SoundDuration":400534,"Delta":46526718},{"NoteNumber":73,"Velocity":51,"Duration":400534,"SoundDuration":400534,"Delta":46927252},{"NoteNumber":53,"Velocity":30,"Duration":400534,"SoundDuration":400534,"Delta":46927252},{"NoteNumber":70,"Velocity":51,"Duration":798709,"SoundDuration":798709,"Delta":47327786},{"NoteNumber":46,"Velocity":43,"Duration":393030,"SoundDuration":393030,"Delta":47327786},{"NoteNumber":53,"Velocity":37,"Duration":405679,"SoundDuration":405679,"Delta":47720817},{"NoteNumber":77,"Velocity":59,"Duration":762194,"SoundDuration":762194,"Delta":48126496},{"NoteNumber":65,"Velocity":44,"Duration":381097,"SoundDuration":381097,"Delta":48126496},{"NoteNumber":61,"Velocity":36,"Duration":381097,"SoundDuration":381097,"Delta":48126496},{"NoteNumber":53,"Velocity":39,"Duration":381097,"SoundDuration":381097,"Delta":48507594},{"NoteNumber":75,"Velocity":59,"Duration":787644,"SoundDuration":787644,"Delta":48888691},{"NoteNumber":63,"Velocity":43,"Duration":385802,"SoundDuration":385802,"Delta":48888691},{"NoteNumber":60,"Velocity":36,"Duration":385802,"SoundDuration":385802,"Delta":48888691},{"NoteNumber":53,"Velocity":37,"Duration":401842,"SoundDuration":401842,"Delta":49274494},{"NoteNumber":78,"Velocity":63,"Duration":809144,"SoundDuration":809144,"Delta":49676336},{"NoteNumber":66,"Velocity":43,"Duration":395465,"SoundDuration":395465,"Delta":49676336},{"NoteNumber":63,"Velocity":36,"Duration":395465,"SoundDuration":395465,"Delta":49676336},{"NoteNumber":53,"Velocity":36,"Duration":413679,"SoundDuration":413679,"Delta":50071801},{"NoteNumber":77,"Velocity":57,"Duration":372070,"SoundDuration":372070,"Delta":50485480},{"NoteNumber":65,"Velocity":43,"Duration":372070,"SoundDuration":372070,"Delta":50485480},{"NoteNumber":61,"Velocity":36,"Duration":372070,"SoundDuration":372070,"Delta":50485480},{"NoteNumber":73,"Velocity":53,"Duration":381097,"SoundDuration":381097,"Delta":50857550},{"NoteNumber":53,"Velocity":34,"Duration":381097,"SoundDuration":381097,"Delta":50857550},{"NoteNumber":72,"Velocity":53,"Duration":383435,"SoundDuration":383435,"Delta":51238648},{"NoteNumber":65,"Velocity":36,"Duration":383435,"SoundDuration":383435,"Delta":51238648},{"NoteNumber":61,"Velocity":25,"Duration":383435,"SoundDuration":383435,"Delta":51238648},{"NoteNumber":58,"Velocity":25,"Duration":383435,"SoundDuration":383435,"Delta":51238648},{"NoteNumber":70,"Velocity":53,"Duration":405679,"SoundDuration":405679,"Delta":51622083},{"NoteNumber":53,"Velocity":31,"Duration":405679,"SoundDuration":405679,"Delta":51622083},{"NoteNumber":72,"Velocity":59,"Duration":691948,"SoundDuration":691948,"Delta":52027763},{"NoteNumber":63,"Velocity":43,"Duration":385802,"SoundDuration":385802,"Delta":52027763},{"NoteNumber":57,"Velocity":36,"Duration":385802,"SoundDuration":385802,"Delta":52027763},{"NoteNumber":53,"Velocity":37,"Duration":414558,"SoundDuration":414558,"Delta":52413565},{"NoteNumber":73,"Velocity":55,"Duration":72275,"SoundDuration":72275,"Delta":52611298},{"NoteNumber":72,"Velocity":55,"Duration":72275,"SoundDuration":72275,"Delta":52683573},{"NoteNumber":70,"Velocity":55,"Duration":72275,"SoundDuration":72275,"Delta":52755848},{"NoteNumber":72,"Velocity":55,"Duration":593198,"SoundDuration":593198,"Delta":52828124},{"NoteNumber":63,"Velocity":30,"Duration":395465,"SoundDuration":395465,"Delta":52828124},{"NoteNumber":65,"Velocity":37,"Duration":395465,"SoundDuration":395465,"Delta":52828124},{"NoteNumber":53,"Velocity":39,"Duration":395465,"SoundDuration":395465,"Delta":53223589},{"NoteNumber":73,"Velocity":51,"Duration":197732,"SoundDuration":197732,"Delta":53421322},{"NoteNumber":70,"Velocity":51,"Duration":791266,"SoundDuration":791266,"Delta":53619055},{"NoteNumber":46,"Velocity":43,"Duration":388148,"SoundDuration":388148,"Delta":53619055},{"NoteNumber":53,"Velocity":37,"Duration":403117,"SoundDuration":403117,"Delta":54007203},{"NoteNumber":75,"Velocity":62,"Duration":776296,"SoundDuration":776296,"Delta":54410321},{"NoteNumber":63,"Velocity":45,"Duration":388148,"SoundDuration":388148,"Delta":54410321},{"NoteNumber":60,"Velocity":37,"Duration":388148,"SoundDuration":388148,"Delta":54410321},{"NoteNumber":53,"Velocity":39,"Duration":388148,"SoundDuration":388148,"Delta":54798469},{"NoteNumber":77,"Velocity":65,"Duration":803795,"SoundDuration":803795,"Delta":55186618},{"NoteNumber":65,"Velocity":50,"Duration":395465,"SoundDuration":395465,"Delta":55186618},{"NoteNumber":61,"Velocity":41,"Duration":395465,"SoundDuration":395465,"Delta":55186618},{"NoteNumber":53,"Velocity":43,"Duration":408329,"SoundDuration":408329,"Delta":55582083},{"NoteNumber":75,"Velocity":62,"Duration":808998,"SoundDuration":808998,"Delta":55990413},{"NoteNumber":63,"Velocity":51,"Duration":397983,"SoundDuration":397983,"Delta":55990413},{"NoteNumber":60,"Velocity":43,"Duration":397983,"SoundDuration":397983,"Delta":55990413},{"NoteNumber":53,"Velocity":43,"Duration":411014,"SoundDuration":411014,"Delta":56388397},{"NoteNumber":77,"Velocity":66,"Duration":2474957,"SoundDuration":2474957,"Delta":56799412},{"NoteNumber":65,"Velocity":53,"Duration":1610932,"SoundDuration":1610932,"Delta":56799412},{"NoteNumber":61,"Velocity":44,"Duration":1610932,"SoundDuration":1610932,"Delta":56799412},{"NoteNumber":53,"Velocity":39,"Duration":400445,"SoundDuration":400445,"Delta":57199946},{"NoteNumber":53,"Velocity":39,"Duration":402243,"SoundDuration":402243,"Delta":57600391},{"NoteNumber":53,"Velocity":39,"Duration":407710,"SoundDuration":407710,"Delta":58002634},{"NoteNumber":65,"Velocity":43,"Duration":419580,"SoundDuration":419580,"Delta":58410344},{"NoteNumber":61,"Velocity":35,"Duration":419580,"SoundDuration":419580,"Delta":58410344},{"NoteNumber":54,"Velocity":36,"Duration":905983,"SoundDuration":905983,"Delta":58829924},{"NoteNumber":75,"Velocity":51,"Duration":985098,"SoundDuration":985098,"Delta":59274369},{"NoteNumber":63,"Velocity":37,"Duration":461538,"SoundDuration":461538,"Delta":59274369},{"NoteNumber":60,"Velocity":32,"Duration":461538,"SoundDuration":461538,"Delta":59274369},{"NoteNumber":56,"Velocity":27,"Duration":523560,"SoundDuration":523560,"Delta":59735907},{"NoteNumber":77,"Velocity":49,"Duration":604676,"SoundDuration":604676,"Delta":60259467},{"NoteNumber":49,"Velocity":35,"Duration":403117,"SoundDuration":403117,"Delta":60259467},{"NoteNumber":56,"Velocity":30,"Duration":411172,"SoundDuration":411172,"Delta":60662585},{"NoteNumber":73,"Velocity":45,"Duration":209614,"SoundDuration":209614,"Delta":60864144},{"NoteNumber":68,"Velocity":49,"Duration":1549051,"SoundDuration":1549051,"Delta":61073758},{"NoteNumber":65,"Velocity":27,"Duration":1549051,"SoundDuration":1549051,"Delta":61073758},{"NoteNumber":61,"Velocity":17,"Duration":1549051,"SoundDuration":1549051,"Delta":61073758},{"NoteNumber":56,"Velocity":23,"Duration":388148,"SoundDuration":388148,"Delta":61492986},{"NoteNumber":56,"Velocity":23,"Duration":369003,"SoundDuration":369003,"Delta":61881135},{"NoteNumber":56,"Velocity":19,"Duration":372670,"SoundDuration":372670,"Delta":62250138},{"NoteNumber":70,"Velocity":49,"Duration":791481,"SoundDuration":791481,"Delta":62622809},{"NoteNumber":65,"Velocity":30,"Duration":385802,"SoundDuration":385802,"Delta":62622809},{"NoteNumber":61,"Velocity":19,"Duration":385802,"SoundDuration":385802,"Delta":62622809},{"NoteNumber":56,"Velocity":28,"Duration":405679,"SoundDuration":405679,"Delta":63008612},{"NoteNumber":72,"Velocity":49,"Duration":2309068,"SoundDuration":2309068,"Delta":63414291},{"NoteNumber":66,"Velocity":35,"Duration":2309068,"SoundDuration":2309068,"Delta":63414291},{"NoteNumber":63,"Velocity":35,"Duration":2309068,"SoundDuration":2309068,"Delta":63414291},{"NoteNumber":56,"Velocity":26,"Duration":388148,"SoundDuration":388148,"Delta":63819971},{"NoteNumber":56,"Velocity":28,"Duration":381097,"SoundDuration":381097,"Delta":64208119},{"NoteNumber":56,"Velocity":32,"Duration":381097,"SoundDuration":381097,"Delta":64589217},{"NoteNumber":58,"Velocity":35,"Duration":372817,"SoundDuration":372817,"Delta":64970314},{"NoteNumber":56,"Velocity":32,"Duration":380228,"SoundDuration":380228,"Delta":65343132},{"NoteNumber":73,"Velocity":51,"Duration":814132,"SoundDuration":814132,"Delta":65723360},{"NoteNumber":65,"Velocity":35,"Duration":403117,"SoundDuration":403117,"Delta":65723360},{"NoteNumber":61,"Velocity":35,"Duration":403117,"SoundDuration":403117,"Delta":65723360},{"NoteNumber":56,"Velocity":29,"Duration":411015,"SoundDuration":411015,"Delta":66126478},{"NoteNumber":60,"Velocity":45,"Duration":2385526,"SoundDuration":2385526,"Delta":66537493},{"NoteNumber":66,"Velocity":45,"Duration":596975,"SoundDuration":596975,"Delta":66537493},{"NoteNumber":75,"Velocity":54,"Duration":596975,"SoundDuration":596975,"Delta":66537493},{"NoteNumber":56,"Velocity":32,"Duration":815514,"SoundDuration":815514,"Delta":66935476},{"NoteNumber":77,"Velocity":56,"Duration":205507,"SoundDuration":205507,"Delta":67134468},{"NoteNumber":68,"Velocity":47,"Duration":205507,"SoundDuration":205507,"Delta":67134468},{"NoteNumber":70,"Velocity":49,"Duration":1583043,"SoundDuration":1583043,"Delta":67339976},{"NoteNumber":78,"Velocity":57,"Duration":1583043,"SoundDuration":1583043,"Delta":67339976},{"NoteNumber":56,"Velocity":35,"Duration":375692,"SoundDuration":375692,"Delta":67750991},{"NoteNumber":56,"Velocity":32,"Duration":375692,"SoundDuration":375692,"Delta":68146456},{"NoteNumber":56,"Velocity":32,"Duration":779080,"SoundDuration":779080,"Delta":68541922},{"NoteNumber":61,"Velocity":44,"Duration":397983,"SoundDuration":397983,"Delta":68923019},{"NoteNumber":77,"Velocity":53,"Duration":811662,"SoundDuration":811662,"Delta":68923019},{"NoteNumber":68,"Velocity":44,"Duration":397983,"SoundDuration":397983,"Delta":68923019},{"NoteNumber":56,"Velocity":29,"Duration":413679,"SoundDuration":413679,"Delta":69321003},{"NoteNumber":60,"Velocity":44,"Duration":388148,"SoundDuration":388148,"Delta":69734682},{"NoteNumber":68,"Velocity":44,"Duration":388148,"SoundDuration":388148,"Delta":69734682},{"NoteNumber":77,"Velocity":53,"Duration":1148248,"SoundDuration":1148248,"Delta":69734682},{"NoteNumber":56,"Velocity":31,"Duration":385802,"SoundDuration":385802,"Delta":70122830},{"NoteNumber":66,"Velocity":34,"Duration":374297,"SoundDuration":374297,"Delta":70508633},{"NoteNumber":60,"Velocity":40,"Duration":374297,"SoundDuration":374297,"Delta":70508633},{"NoteNumber":75,"Velocity":49,"Duration":400533,"SoundDuration":400533,"Delta":70882931},{"NoteNumber":56,"Velocity":27,"Duration":400533,"SoundDuration":400533,"Delta":70882931},{"NoteNumber":73,"Velocity":46,"Duration":814728,"SoundDuration":814728,"Delta":71283465},{"NoteNumber":65,"Velocity":35,"Duration":400534,"SoundDuration":400534,"Delta":71283465},{"NoteNumber":61,"Velocity":29,"Duration":400534,"SoundDuration":400534,"Delta":71283465},{"NoteNumber":56,"Velocity":27,"Duration":414194,"SoundDuration":414194,"Delta":71683999},{"NoteNumber":74,"Velocity":51,"Duration":126890,"SoundDuration":126890,"Delta":72098193},{"NoteNumber":66,"Velocity":32,"Duration":442849,"SoundDuration":442849,"Delta":72098193},{"NoteNumber":60,"Velocity":27,"Duration":442849,"SoundDuration":442849,"Delta":72098193},{"NoteNumber":75,"Velocity":50,"Duration":125634,"SoundDuration":125634,"Delta":72225084},{"NoteNumber":76,"Velocity":52,"Duration":124362,"SoundDuration":124362,"Delta":72350718},{"NoteNumber":77,"Velocity":56,"Duration":125831,"SoundDuration":125831,"Delta":72475081},{"NoteNumber":56,"Velocity":31,"Duration":479695,"SoundDuration":479695,"Delta":72541043},{"NoteNumber":80,"Velocity":54,"Duration":131027,"SoundDuration":131027,"Delta":72600913},{"NoteNumber":79,"Velocity":53,"Duration":136861,"SoundDuration":136861,"Delta":72731940},{"NoteNumber":78,"Velocity":52,"Duration":151936,"SoundDuration":151936,"Delta":72868802},{"NoteNumber":77,"Velocity":49,"Duration":620689,"SoundDuration":620689,"Delta":73020739},{"NoteNumber":49,"Velocity":35,"Duration":413792,"SoundDuration":413792,"Delta":73020739},{"NoteNumber":56,"Velocity":30,"Duration":416510,"SoundDuration":416510,"Delta":73434532},{"NoteNumber":73,"Velocity":44,"Duration":209614,"SoundDuration":209614,"Delta":73641428},{"NoteNumber":68,"Velocity":46,"Duration":1562772,"SoundDuration":1562772,"Delta":73851043},{"NoteNumber":65,"Velocity":26,"Duration":2354254,"SoundDuration":2354254,"Delta":73851043},{"NoteNumber":61,"Velocity":18,"Duration":2354254,"SoundDuration":2354254,"Delta":73851043},{"NoteNumber":56,"Velocity":23,"Duration":368741,"SoundDuration":368741,"Delta":74270271},{"NoteNumber":56,"Velocity":24,"Duration":362042,"SoundDuration":362042,"Delta":74658420},{"NoteNumber":56,"Velocity":21,"Duration":355583,"SoundDuration":355583,"Delta":75039517},{"NoteNumber":70,"Velocity":48,"Duration":791482,"SoundDuration":791482,"Delta":75413815},{"NoteNumber":56,"Velocity":30,"Duration":366512,"SoundDuration":366512,"Delta":75413815},{"NoteNumber":56,"Velocity":28,"Duration":385395,"SoundDuration":385395,"Delta":75799618},{"NoteNumber":72,"Velocity":49,"Duration":2304585,"SoundDuration":2304585,"Delta":76205297},{"NoteNumber":66,"Velocity":35,"Duration":2304585,"SoundDuration":2304585,"Delta":76205297},{"NoteNumber":63,"Velocity":35,"Duration":2304585,"SoundDuration":2304585,"Delta":76205297},{"NoteNumber":56,"Velocity":31,"Duration":368741,"SoundDuration":368741,"Delta":76610977},{"NoteNumber":56,"Velocity":29,"Duration":362042,"SoundDuration":362042,"Delta":76999125},{"NoteNumber":56,"Velocity":32,"Duration":357725,"SoundDuration":357725,"Delta":77380223},{"NoteNumber":58,"Velocity":35,"Duration":376553,"SoundDuration":376553,"Delta":77756776},{"NoteNumber":56,"Velocity":32,"Duration":376553,"SoundDuration":376553,"Delta":78133330},{"NoteNumber":73,"Velocity":51,"Duration":814132,"SoundDuration":814132,"Delta":78509883},{"NoteNumber":65,"Velocity":35,"Duration":403117,"SoundDuration":403117,"Delta":78509883},{"NoteNumber":61,"Velocity":35,"Duration":403117,"SoundDuration":403117,"Delta":78509883},{"NoteNumber":56,"Velocity":31,"Duration":411015,"SoundDuration":411015,"Delta":78913001},{"NoteNumber":60,"Velocity":45,"Duration":2410306,"SoundDuration":2410306,"Delta":79324016},{"NoteNumber":66,"Velocity":45,"Duration":596975,"SoundDuration":596975,"Delta":79324016},{"NoteNumber":75,"Velocity":54,"Duration":596975,"SoundDuration":596975,"Delta":79324016},{"NoteNumber":56,"Velocity":32,"Duration":815514,"SoundDuration":815514,"Delta":79721999},{"NoteNumber":77,"Velocity":56,"Duration":205507,"SoundDuration":205507,"Delta":79920991},{"NoteNumber":68,"Velocity":47,"Duration":205507,"SoundDuration":205507,"Delta":79920991},{"NoteNumber":70,"Velocity":49,"Duration":1607824,"SoundDuration":1607824,"Delta":80126498},{"NoteNumber":78,"Velocity":57,"Duration":1607824,"SoundDuration":1607824,"Delta":80126498},{"NoteNumber":56,"Velocity":35,"Duration":403117,"SoundDuration":403117,"Delta":80537513},{"NoteNumber":56,"Velocity":32,"Duration":403117,"SoundDuration":403117,"Delta":80940631},{"NoteNumber":56,"Velocity":32,"Duration":796253,"SoundDuration":796253,"Delta":81343748},{"NoteNumber":63,"Velocity":39,"Duration":405679,"SoundDuration":405679,"Delta":81734322},{"NoteNumber":72,"Velocity":46,"Duration":848549,"SoundDuration":848549,"Delta":81734322},{"NoteNumber":56,"Velocity":29,"Duration":442869,"SoundDuration":442869,"Delta":82140002},{"NoteNumber":75,"Velocity":46,"Duration":1554175,"SoundDuration":1554175,"Delta":82582872},{"NoteNumber":66,"Velocity":39,"Duration":1554175,"SoundDuration":1554175,"Delta":82582872},{"NoteNumber":56,"Velocity":26,"Duration":380507,"SoundDuration":380507,"Delta":82983406},{"NoteNumber":56,"Velocity":29,"Duration":357725,"SoundDuration":357725,"Delta":83383940},{"NoteNumber":56,"Velocity":27,"Duration":357725,"SoundDuration":357725,"Delta":83760493},{"NoteNumber":56,"Velocity":30,"Duration":349350,"SoundDuration":349350,"Delta":84137047},{"NoteNumber":56,"Velocity":27,"Duration":349350,"SoundDuration":349350,"Delta":84504784},{"NoteNumber":56,"Velocity":30,"Duration":359848,"SoundDuration":359848,"Delta":84872521},{"NoteNumber":56,"Velocity":26,"Duration":368741,"SoundDuration":368741,"Delta":85251309},{"NoteNumber":56,"Velocity":31,"Duration":352635,"SoundDuration":352635,"Delta":85639457},{"NoteNumber":37,"Velocity":26,"Duration":741458,"SoundDuration":741458,"Delta":85639457},{"NoteNumber":44,"Velocity":31,"Duration":741458,"SoundDuration":741458,"Delta":85639457},{"NoteNumber":56,"Velocity":30,"Duration":352262,"SoundDuration":352262,"Delta":86010652},{"NoteNumber":56,"Velocity":31,"Duration":341178,"SoundDuration":341178,"Delta":86380916},{"NoteNumber":39,"Velocity":24,"Duration":720103,"SoundDuration":720103,"Delta":86380916},{"NoteNumber":44,"Velocity":29,"Duration":720103,"SoundDuration":720103,"Delta":86380916},{"NoteNumber":56,"Velocity":32,"Duration":342920,"SoundDuration":342920,"Delta":86739880},{"NoteNumber":56,"Velocity":35,"Duration":343014,"SoundDuration":343014,"Delta":87101019},{"NoteNumber":40,"Velocity":29,"Duration":723311,"SoundDuration":723311,"Delta":87101019},{"NoteNumber":49,"Velocity":35,"Duration":723311,"SoundDuration":723311,"Delta":87101019},{"NoteNumber":56,"Velocity":33,"Duration":344078,"SoundDuration":344078,"Delta":87462143},{"NoteNumber":56,"Velocity":31,"Duration":352635,"SoundDuration":352635,"Delta":87824331},{"NoteNumber":39,"Velocity":27,"Duration":742390,"SoundDuration":742390,"Delta":87824331},{"NoteNumber":48,"Velocity":33,"Duration":742390,"SoundDuration":742390,"Delta":87824331},{"NoteNumber":56,"Velocity":31,"Duration":352635,"SoundDuration":352635,"Delta":88195526},{"NoteNumber":56,"Velocity":39,"Duration":352635,"SoundDuration":352635,"Delta":88566721},{"NoteNumber":39,"Velocity":33,"Duration":742390,"SoundDuration":742390,"Delta":88566721},{"NoteNumber":44,"Velocity":39,"Duration":742390,"SoundDuration":742390,"Delta":88566721},{"NoteNumber":56,"Velocity":36,"Duration":352635,"SoundDuration":352635,"Delta":88937916},{"NoteNumber":56,"Velocity":37,"Duration":337917,"SoundDuration":337917,"Delta":89309111},{"NoteNumber":40,"Velocity":29,"Duration":711405,"SoundDuration":711405,"Delta":89309111},{"NoteNumber":44,"Velocity":35,"Duration":711405,"SoundDuration":711405,"Delta":89309111},{"NoteNumber":56,"Velocity":37,"Duration":337917,"SoundDuration":337917,"Delta":89664814},{"NoteNumber":56,"Velocity":45,"Duration":344078,"SoundDuration":344078,"Delta":90020517},{"NoteNumber":42,"Velocity":35,"Duration":724374,"SoundDuration":724374,"Delta":90020517},{"NoteNumber":51,"Velocity":41,"Duration":724374,"SoundDuration":724374,"Delta":90020517},{"NoteNumber":56,"Velocity":38,"Duration":344078,"SoundDuration":344078,"Delta":90382704},{"NoteNumber":56,"Velocity":35,"Duration":350467,"SoundDuration":350467,"Delta":90744892},{"NoteNumber":40,"Velocity":31,"Duration":737825,"SoundDuration":737825,"Delta":90744892},{"NoteNumber":49,"Velocity":38,"Duration":737825,"SoundDuration":737825,"Delta":90744892},{"NoteNumber":56,"Velocity":36,"Duration":350467,"SoundDuration":350467,"Delta":91113805},{"NoteNumber":56,"Velocity":49,"Duration":344078,"SoundDuration":344078,"Delta":91482718},{"NoteNumber":40,"Velocity":38,"Duration":724374,"SoundDuration":724374,"Delta":91482718},{"NoteNumber":49,"Velocity":46,"Duration":724374,"SoundDuration":724374,"Delta":91482718},{"NoteNumber":56,"Velocity":42,"Duration":344078,"SoundDuration":344078,"Delta":91844905},{"NoteNumber":56,"Velocity":42,"Duration":335926,"SoundDuration":335926,"Delta":92207093},{"NoteNumber":44,"Velocity":38,"Duration":707213,"SoundDuration":707213,"Delta":92207093},{"NoteNumber":51,"Velocity":46,"Duration":707213,"SoundDuration":707213,"Delta":92207093},{"NoteNumber":56,"Velocity":42,"Duration":335926,"SoundDuration":335926,"Delta":92560700},{"NoteNumber":56,"Velocity":49,"Duration":342013,"SoundDuration":342013,"Delta":92914307},{"NoteNumber":49,"Velocity":41,"Duration":720028,"SoundDuration":720028,"Delta":92914307},{"NoteNumber":52,"Velocity":49,"Duration":720028,"SoundDuration":720028,"Delta":92914307},{"NoteNumber":56,"Velocity":40,"Duration":342013,"SoundDuration":342013,"Delta":93274321},{"NoteNumber":56,"Velocity":39,"Duration":354874,"SoundDuration":354874,"Delta":93634336},{"NoteNumber":44,"Velocity":38,"Duration":747105,"SoundDuration":747105,"Delta":93634336},{"NoteNumber":51,"Velocity":46,"Duration":747105,"SoundDuration":747105,"Delta":93634336},{"NoteNumber":56,"Velocity":39,"Duration":354874,"SoundDuration":354874,"Delta":94007888},{"NoteNumber":56,"Velocity":49,"Duration":354874,"SoundDuration":354874,"Delta":94381441},{"NoteNumber":44,"Velocity":39,"Duration":3588962,"SoundDuration":3588962,"Delta":94381441},{"NoteNumber":51,"Velocity":47,"Duration":3588962,"SoundDuration":3588962,"Delta":94381441},{"NoteNumber":56,"Velocity":40,"Duration":348282,"SoundDuration":348282,"Delta":94754993},{"NoteNumber":56,"Velocity":42,"Duration":342013,"SoundDuration":342013,"Delta":95121607},{"NoteNumber":56,"Velocity":41,"Duration":342013,"SoundDuration":342013,"Delta":95481621},{"NoteNumber":56,"Velocity":42,"Duration":330801,"SoundDuration":330801,"Delta":95841636},{"NoteNumber":56,"Velocity":41,"Duration":337278,"SoundDuration":337278,"Delta":96190188},{"NoteNumber":56,"Velocity":40,"Duration":332375,"SoundDuration":332375,"Delta":96545218},{"NoteNumber":56,"Velocity":40,"Duration":337278,"SoundDuration":337278,"Delta":96895345},{"NoteNumber":56,"Velocity":44,"Duration":342013,"SoundDuration":342013,"Delta":97250374},{"NoteNumber":56,"Velocity":39,"Duration":342013,"SoundDuration":342013,"Delta":97610389},{"NoteNumber":56,"Velocity":39,"Duration":334652,"SoundDuration":334652,"Delta":97970403},{"NoteNumber":49,"Velocity":33,"Duration":706079,"SoundDuration":706079,"Delta":97970403},{"NoteNumber":52,"Velocity":39,"Duration":706079,"SoundDuration":706079,"Delta":97970403},{"NoteNumber":56,"Velocity":37,"Duration":335857,"SoundDuration":335857,"Delta":98322840},{"NoteNumber":56,"Velocity":41,"Duration":338624,"SoundDuration":338624,"Delta":98676483},{"NoteNumber":44,"Velocity":35,"Duration":706480,"SoundDuration":706480,"Delta":98676483},{"NoteNumber":51,"Velocity":41,"Duration":706480,"SoundDuration":706480,"Delta":98676483},{"NoteNumber":56,"Velocity":37,"Duration":332599,"SoundDuration":332599,"Delta":99032788},{"NoteNumber":56,"Velocity":35,"Duration":344078,"SoundDuration":344078,"Delta":99382964},{"NoteNumber":40,"Velocity":30,"Duration":724374,"SoundDuration":724374,"Delta":99382964},{"NoteNumber":49,"Velocity":37,"Duration":724374,"SoundDuration":724374,"Delta":99382964},{"NoteNumber":56,"Velocity":35,"Duration":344078,"SoundDuration":344078,"Delta":99745151},{"NoteNumber":56,"Velocity":40,"Duration":337917,"SoundDuration":337917,"Delta":100107339},{"NoteNumber":44,"Velocity":35,"Duration":711405,"SoundDuration":711405,"Delta":100107339},{"NoteNumber":51,"Velocity":41,"Duration":711405,"SoundDuration":711405,"Delta":100107339},{"NoteNumber":56,"Velocity":35,"Duration":337917,"SoundDuration":337917,"Delta":100463042},{"NoteNumber":56,"Velocity":35,"Duration":346167,"SoundDuration":346167,"Delta":100818745},{"NoteNumber":40,"Velocity":30,"Duration":728230,"SoundDuration":728230,"Delta":100818745},{"NoteNumber":49,"Velocity":37,"Duration":728230,"SoundDuration":728230,"Delta":100818745},{"NoteNumber":56,"Velocity":31,"Duration":345950,"SoundDuration":345950,"Delta":101183132},{"NoteNumber":56,"Velocity":38,"Duration":339975,"SoundDuration":339975,"Delta":101546975},{"NoteNumber":39,"Velocity":31,"Duration":716874,"SoundDuration":716874,"Delta":101546975},{"NoteNumber":48,"Velocity":38,"Duration":716874,"SoundDuration":716874,"Delta":101546975},{"NoteNumber":56,"Velocity":35,"Duration":340569,"SoundDuration":340569,"Delta":101905060},{"NoteNumber":56,"Velocity":35,"Duration":337700,"SoundDuration":337700,"Delta":102263850},{"NoteNumber":40,"Velocity":29,"Duration":711562,"SoundDuration":711562,"Delta":102263850},{"NoteNumber":49,"Velocity":35,"Duration":711562,"SoundDuration":711562,"Delta":102263850},{"NoteNumber":56,"Velocity":33,"Duration":338175,"SoundDuration":338175,"Delta":102619127},{"NoteNumber":56,"Velocity":38,"Duration":339139,"SoundDuration":339139,"Delta":102975412},{"NoteNumber":39,"Velocity":33,"Duration":717784,"SoundDuration":717784,"Delta":102975412},{"NoteNumber":48,"Velocity":39,"Duration":717784,"SoundDuration":717784,"Delta":102975412},{"NoteNumber":56,"Velocity":40,"Duration":342858,"SoundDuration":342858,"Delta":103332445},{"NoteNumber":56,"Velocity":41,"Duration":342013,"SoundDuration":342013,"Delta":103693197},{"NoteNumber":40,"Velocity":30,"Duration":720028,"SoundDuration":720028,"Delta":103693197},{"NoteNumber":49,"Velocity":37,"Duration":720028,"SoundDuration":720028,"Delta":103693197},{"NoteNumber":56,"Velocity":44,"Duration":342013,"SoundDuration":342013,"Delta":104053212},{"NoteNumber":56,"Velocity":46,"Duration":337917,"SoundDuration":337917,"Delta":104413226},{"NoteNumber":39,"Velocity":34,"Duration":711405,"SoundDuration":711405,"Delta":104413226},{"NoteNumber":51,"Velocity":40,"Duration":711405,"SoundDuration":711405,"Delta":104413226},{"NoteNumber":56,"Velocity":48,"Duration":337917,"SoundDuration":337917,"Delta":104768929},{"NoteNumber":56,"Velocity":49,"Duration":348282,"SoundDuration":348282,"Delta":105124632},{"NoteNumber":37,"Velocity":37,"Duration":733226,"SoundDuration":733226,"Delta":105124632},{"NoteNumber":52,"Velocity":45,"Duration":733226,"SoundDuration":733226,"Delta":105124632},{"NoteNumber":56,"Velocity":51,"Duration":348282,"SoundDuration":348282,"Delta":105491246},{"NoteNumber":56,"Velocity":53,"Duration":329708,"SoundDuration":329708,"Delta":105857859},{"NoteNumber":44,"Velocity":40,"Duration":2810616,"SoundDuration":2810616,"Delta":105857859},{"NoteNumber":51,"Velocity":48,"Duration":2810616,"SoundDuration":2810616,"Delta":105857859},{"NoteNumber":68,"Velocity":53,"Duration":339366,"SoundDuration":339366,"Delta":106204921},{"NoteNumber":56,"Velocity":45,"Duration":339366,"SoundDuration":339366,"Delta":106204921},{"NoteNumber":68,"Velocity":55,"Duration":324971,"SoundDuration":324971,"Delta":106562149},{"NoteNumber":56,"Velocity":46,"Duration":324971,"SoundDuration":324971,"Delta":106562149},{"NoteNumber":68,"Velocity":56,"Duration":334114,"SoundDuration":334114,"Delta":106904224},{"NoteNumber":56,"Velocity":47,"Duration":334114,"SoundDuration":334114,"Delta":106904224},{"NoteNumber":68,"Velocity":57,"Duration":317900,"SoundDuration":317900,"Delta":107254901},{"NoteNumber":56,"Velocity":48,"Duration":317900,"SoundDuration":317900,"Delta":107254901},{"NoteNumber":68,"Velocity":59,"Duration":337188,"SoundDuration":337188,"Delta":107590037},{"NoteNumber":56,"Velocity":49,"Duration":337188,"SoundDuration":337188,"Delta":107590037},{"NoteNumber":68,"Velocity":60,"Duration":343456,"SoundDuration":343456,"Delta":107945410},{"NoteNumber":56,"Velocity":50,"Duration":343456,"SoundDuration":343456,"Delta":107945410},{"NoteNumber":68,"Velocity":61,"Duration":343456,"SoundDuration":343456,"Delta":108306943},{"NoteNumber":56,"Velocity":51,"Duration":343456,"SoundDuration":343456,"Delta":108306943},{"NoteNumber":68,"Velocity":61,"Duration":329708,"SoundDuration":329708,"Delta":108668476},{"NoteNumber":56,"Velocity":51,"Duration":329708,"SoundDuration":329708,"Delta":108668476},{"NoteNumber":37,"Velocity":52,"Duration":697126,"SoundDuration":697126,"Delta":108668476},{"NoteNumber":44,"Velocity":62,"Duration":697126,"SoundDuration":697126,"Delta":108668476},{"NoteNumber":68,"Velocity":59,"Duration":333098,"SoundDuration":333098,"Delta":109015537},{"NoteNumber":56,"Velocity":49,"Duration":333098,"SoundDuration":333098,"Delta":109015537},{"NoteNumber":68,"Velocity":59,"Duration":322361,"SoundDuration":322361,"Delta":109365602},{"NoteNumber":56,"Velocity":49,"Duration":322361,"SoundDuration":322361,"Delta":109365602},{"NoteNumber":39,"Velocity":51,"Duration":694483,"SoundDuration":694483,"Delta":109365602},{"NoteNumber":44,"Velocity":61,"Duration":694483,"SoundDuration":694483,"Delta":109365602},{"NoteNumber":68,"Velocity":59,"Duration":337397,"SoundDuration":337397,"Delta":109704930},{"NoteNumber":56,"Velocity":49,"Duration":337397,"SoundDuration":337397,"Delta":109704930},{"NoteNumber":61,"Velocity":67,"Duration":702216,"SoundDuration":702216,"Delta":110060086},{"NoteNumber":68,"Velocity":61,"Duration":337397,"SoundDuration":337397,"Delta":110060086},{"NoteNumber":56,"Velocity":52,"Duration":337397,"SoundDuration":337397,"Delta":110060086},{"NoteNumber":40,"Velocity":56,"Duration":702216,"SoundDuration":702216,"Delta":110060086},{"NoteNumber":49,"Velocity":67,"Duration":702216,"SoundDuration":702216,"Delta":110060086},{"NoteNumber":68,"Velocity":60,"Duration":329708,"SoundDuration":329708,"Delta":110415241},{"NoteNumber":56,"Velocity":50,"Duration":329708,"SoundDuration":329708,"Delta":110415241},{"NoteNumber":60,"Velocity":59,"Duration":710311,"SoundDuration":710311,"Delta":110762303},{"NoteNumber":68,"Velocity":58,"Duration":337397,"SoundDuration":337397,"Delta":110762303},{"NoteNumber":56,"Velocity":48,"Duration":337397,"SoundDuration":337397,"Delta":110762303},{"NoteNumber":39,"Velocity":52,"Duration":710311,"SoundDuration":710311,"Delta":110762303},{"NoteNumber":48,"Velocity":62,"Duration":710311,"SoundDuration":710311,"Delta":110762303},{"NoteNumber":68,"Velocity":58,"Duration":337397,"SoundDuration":337397,"Delta":111117458},{"NoteNumber":56,"Velocity":48,"Duration":337397,"SoundDuration":337397,"Delta":111117458},{"NoteNumber":68,"Velocity":64,"Duration":324121,"SoundDuration":324121,"Delta":111472614},{"NoteNumber":56,"Velocity":55,"Duration":324121,"SoundDuration":324121,"Delta":111472614},{"NoteNumber":39,"Velocity":57,"Duration":694287,"SoundDuration":694287,"Delta":111472614},{"NoteNumber":44,"Velocity":67,"Duration":694287,"SoundDuration":694287,"Delta":111472614},{"NoteNumber":68,"Velocity":61,"Duration":335452,"SoundDuration":335452,"Delta":111813794},{"NoteNumber":56,"Velocity":51,"Duration":335452,"SoundDuration":335452,"Delta":111813794},{"NoteNumber":68,"Velocity":61,"Duration":327850,"SoundDuration":327850,"Delta":112166902},{"NoteNumber":56,"Velocity":51,"Duration":327850,"SoundDuration":327850,"Delta":112166902},{"NoteNumber":40,"Velocity":56,"Duration":700260,"SoundDuration":700260,"Delta":112166902},{"NoteNumber":44,"Velocity":66,"Duration":700260,"SoundDuration":700260,"Delta":112166902},{"NoteNumber":68,"Velocity":61,"Duration":337397,"SoundDuration":337397,"Delta":112512007},{"NoteNumber":56,"Velocity":51,"Duration":337397,"SoundDuration":337397,"Delta":112512007},{"NoteNumber":63,"Velocity":71,"Duration":696146,"SoundDuration":696146,"Delta":112867163},{"NoteNumber":68,"Velocity":66,"Duration":327850,"SoundDuration":327850,"Delta":112867163},{"NoteNumber":56,"Velocity":56,"Duration":327850,"SoundDuration":327850,"Delta":112867163},{"NoteNumber":42,"Velocity":60,"Duration":696146,"SoundDuration":696146,"Delta":112867163},{"NoteNumber":51,"Velocity":71,"Duration":696146,"SoundDuration":696146,"Delta":112867163},{"NoteNumber":68,"Velocity":61,"Duration":333489,"SoundDuration":333489,"Delta":113212268},{"NoteNumber":56,"Velocity":51,"Duration":333489,"SoundDuration":333489,"Delta":113212268},{"NoteNumber":61,"Velocity":68,"Duration":1412935,"SoundDuration":1412935,"Delta":113563310},{"NoteNumber":68,"Velocity":61,"Duration":333489,"SoundDuration":333489,"Delta":113563310},{"NoteNumber":56,"Velocity":51,"Duration":333489,"SoundDuration":333489,"Delta":113563310},{"NoteNumber":40,"Velocity":57,"Duration":714722,"SoundDuration":714722,"Delta":113563310},{"NoteNumber":49,"Velocity":68,"Duration":714722,"SoundDuration":714722,"Delta":113563310},{"NoteNumber":68,"Velocity":61,"Duration":345496,"SoundDuration":345496,"Delta":113914351},{"NoteNumber":56,"Velocity":51,"Duration":345496,"SoundDuration":345496,"Delta":113914351},{"NoteNumber":68,"Velocity":74,"Duration":327850,"SoundDuration":327850,"Delta":114278032},{"NoteNumber":56,"Velocity":62,"Duration":327850,"SoundDuration":327850,"Delta":114278032},{"NoteNumber":40,"Velocity":59,"Duration":698212,"SoundDuration":698212,"Delta":114278032},{"NoteNumber":49,"Velocity":70,"Duration":698212,"SoundDuration":698212,"Delta":114278032},{"NoteNumber":68,"Velocity":68,"Duration":335452,"SoundDuration":335452,"Delta":114623137},{"NoteNumber":56,"Velocity":57,"Duration":335452,"SoundDuration":335452,"Delta":114623137},{"NoteNumber":63,"Velocity":73,"Duration":702737,"SoundDuration":702737,"Delta":114976245},{"NoteNumber":68,"Velocity":68,"Duration":333593,"SoundDuration":333593,"Delta":114976245},{"NoteNumber":56,"Velocity":57,"Duration":333593,"SoundDuration":333593,"Delta":114976245},{"NoteNumber":44,"Velocity":61,"Duration":702737,"SoundDuration":702737,"Delta":114976245},{"NoteNumber":51,"Velocity":73,"Duration":702737,"SoundDuration":702737,"Delta":114976245},{"NoteNumber":68,"Velocity":68,"Duration":333832,"SoundDuration":333832,"Delta":115327494},{"NoteNumber":56,"Velocity":57,"Duration":333832,"SoundDuration":333832,"Delta":115327494},{"NoteNumber":64,"Velocity":78,"Duration":705272,"SoundDuration":705272,"Delta":115678982},{"NoteNumber":68,"Velocity":69,"Duration":335172,"SoundDuration":335172,"Delta":115678982},{"NoteNumber":56,"Velocity":58,"Duration":335172,"SoundDuration":335172,"Delta":115678982},{"NoteNumber":49,"Velocity":66,"Duration":705272,"SoundDuration":705272,"Delta":115678982},{"NoteNumber":52,"Velocity":78,"Duration":705272,"SoundDuration":705272,"Delta":115678982},{"NoteNumber":68,"Velocity":68,"Duration":334687,"SoundDuration":334687,"Delta":116031810},{"NoteNumber":56,"Velocity":57,"Duration":334687,"SoundDuration":334687,"Delta":116031810},{"NoteNumber":63,"Velocity":73,"Duration":726292,"SoundDuration":726292,"Delta":116384255},{"NoteNumber":68,"Velocity":68,"Duration":333833,"SoundDuration":333833,"Delta":116384255},{"NoteNumber":56,"Velocity":57,"Duration":333833,"SoundDuration":333833,"Delta":116384255},{"NoteNumber":44,"Velocity":61,"Duration":538839,"SoundDuration":538839,"Delta":116384255},{"NoteNumber":51,"Velocity":73,"Duration":538839,"SoundDuration":538839,"Delta":116384255},{"NoteNumber":68,"Velocity":68,"Duration":356161,"SoundDuration":356161,"Delta":116735641},{"NoteNumber":56,"Velocity":57,"Duration":356161,"SoundDuration":356161,"Delta":116735641},{"NoteNumber":32,"Velocity":82,"Duration":187453,"SoundDuration":187453,"Delta":116923094},{"NoteNumber":63,"Velocity":74,"Duration":2860175,"SoundDuration":2860175,"Delta":117110547},{"NoteNumber":68,"Velocity":79,"Duration":333094,"SoundDuration":333094,"Delta":117110547},{"NoteNumber":56,"Velocity":67,"Duration":333094,"SoundDuration":333094,"Delta":117110547},{"NoteNumber":44,"Velocity":62,"Duration":2860175,"SoundDuration":2860175,"Delta":117110547},{"NoteNumber":51,"Velocity":74,"Duration":2860175,"SoundDuration":2860175,"Delta":117110547},{"NoteNumber":68,"Velocity":74,"Duration":334042,"SoundDuration":334042,"Delta":117461297},{"NoteNumber":56,"Velocity":62,"Duration":334042,"SoundDuration":334042,"Delta":117461297},{"NoteNumber":68,"Velocity":77,"Duration":332403,"SoundDuration":332403,"Delta":117812892},{"NoteNumber":56,"Velocity":63,"Duration":332403,"SoundDuration":332403,"Delta":117812892},{"NoteNumber":68,"Velocity":78,"Duration":333279,"SoundDuration":333279,"Delta":118162649},{"NoteNumber":56,"Velocity":64,"Duration":333279,"SoundDuration":333279,"Delta":118162649},{"NoteNumber":68,"Velocity":79,"Duration":337658,"SoundDuration":337658,"Delta":118513583},{"NoteNumber":56,"Velocity":66,"Duration":337658,"SoundDuration":337658,"Delta":118513583},{"NoteNumber":68,"Velocity":78,"Duration":342267,"SoundDuration":342267,"Delta":118869104},{"NoteNumber":56,"Velocity":66,"Duration":342267,"SoundDuration":342267,"Delta":118869104},{"NoteNumber":68,"Velocity":79,"Duration":348483,"SoundDuration":348483,"Delta":119229555},{"NoteNumber":56,"Velocity":67,"Duration":348483,"SoundDuration":348483,"Delta":119229555},{"NoteNumber":68,"Velocity":80,"Duration":355304,"SoundDuration":355304,"Delta":119596555},{"NoteNumber":56,"Velocity":68,"Duration":355304,"SoundDuration":355304,"Delta":119596555},{"NoteNumber":64,"Velocity":88,"Duration":1416897,"SoundDuration":1416897,"Delta":119970723},{"NoteNumber":68,"Velocity":92,"Duration":1416897,"SoundDuration":1416897,"Delta":119970723},{"NoteNumber":59,"Velocity":74,"Duration":341399,"SoundDuration":341399,"Delta":119970723},{"NoteNumber":71,"Velocity":88,"Duration":341399,"SoundDuration":341399,"Delta":119970723},{"NoteNumber":28,"Velocity":74,"Duration":1416897,"SoundDuration":1416897,"Delta":119970723},{"NoteNumber":40,"Velocity":88,"Duration":1416897,"SoundDuration":1416897,"Delta":119970723},{"NoteNumber":59,"Velocity":70,"Duration":331626,"SoundDuration":331626,"Delta":120330090},{"NoteNumber":71,"Velocity":83,"Duration":331626,"SoundDuration":331626,"Delta":120330090},{"NoteNumber":59,"Velocity":70,"Duration":331626,"SoundDuration":331626,"Delta":120679171},{"NoteNumber":71,"Velocity":83,"Duration":331626,"SoundDuration":331626,"Delta":120679171},{"NoteNumber":59,"Velocity":66,"Duration":341399,"SoundDuration":341399,"Delta":121028252},{"NoteNumber":71,"Velocity":79,"Duration":341399,"SoundDuration":341399,"Delta":121028252},{"NoteNumber":63,"Velocity":88,"Duration":1417554,"SoundDuration":1417554,"Delta":121387620},{"NoteNumber":68,"Velocity":92,"Duration":1417554,"SoundDuration":1417554,"Delta":121387620},{"NoteNumber":59,"Velocity":74,"Duration":335452,"SoundDuration":335452,"Delta":121387620},{"NoteNumber":71,"Velocity":88,"Duration":335452,"SoundDuration":335452,"Delta":121387620},{"NoteNumber":35,"Velocity":70,"Duration":1417554,"SoundDuration":1417554,"Delta":121387620},{"NoteNumber":47,"Velocity":83,"Duration":1417554,"SoundDuration":1417554,"Delta":121387620},{"NoteNumber":59,"Velocity":70,"Duration":329708,"SoundDuration":329708,"Delta":121740727},{"NoteNumber":71,"Velocity":83,"Duration":329708,"SoundDuration":329708,"Delta":121740727},{"NoteNumber":59,"Velocity":70,"Duration":329708,"SoundDuration":329708,"Delta":122087789},{"NoteNumber":71,"Velocity":83,"Duration":329708,"SoundDuration":329708,"Delta":122087789},{"NoteNumber":59,"Velocity":66,"Duration":351808,"SoundDuration":351808,"Delta":122434850},{"NoteNumber":71,"Velocity":79,"Duration":351808,"SoundDuration":351808,"Delta":122434850},{"NoteNumber":64,"Velocity":88,"Duration":1406998,"SoundDuration":1406998,"Delta":122805175},{"NoteNumber":68,"Velocity":92,"Duration":1406998,"SoundDuration":1406998,"Delta":122805175},{"NoteNumber":59,"Velocity":74,"Duration":335452,"SoundDuration":335452,"Delta":122805175},{"NoteNumber":71,"Velocity":88,"Duration":335452,"SoundDuration":335452,"Delta":122805175},{"NoteNumber":28,"Velocity":74,"Duration":1406998,"SoundDuration":1406998,"Delta":122805175},{"NoteNumber":40,"Velocity":88,"Duration":1406998,"SoundDuration":1406998,"Delta":122805175},{"NoteNumber":59,"Velocity":70,"Duration":327850,"SoundDuration":327850,"Delta":123158282},{"NoteNumber":71,"Velocity":83,"Duration":327850,"SoundDuration":327850,"Delta":123158282},{"NoteNumber":59,"Velocity":70,"Duration":327850,"SoundDuration":327850,"Delta":123503388},{"NoteNumber":71,"Velocity":83,"Duration":327850,"SoundDuration":327850,"Delta":123503388},{"NoteNumber":59,"Velocity":66,"Duration":345496,"SoundDuration":345496,"Delta":123848493},{"NoteNumber":71,"Velocity":79,"Duration":345496,"SoundDuration":345496,"Delta":123848493},{"NoteNumber":63,"Velocity":88,"Duration":1464270,"SoundDuration":1464270,"Delta":124212174},{"NoteNumber":68,"Velocity":92,"Duration":1464270,"SoundDuration":1464270,"Delta":124212174},{"NoteNumber":59,"Velocity":74,"Duration":335452,"SoundDuration":335452,"Delta":124212174},{"NoteNumber":71,"Velocity":88,"Duration":335452,"SoundDuration":335452,"Delta":124212174},{"NoteNumber":35,"Velocity":72,"Duration":1072113,"SoundDuration":1072113,"Delta":124212174},{"NoteNumber":47,"Velocity":85,"Duration":1072113,"SoundDuration":1072113,"Delta":124212174},{"NoteNumber":59,"Velocity":70,"Duration":335452,"SoundDuration":335452,"Delta":124565281},{"NoteNumber":71,"Velocity":83,"Duration":335452,"SoundDuration":335452,"Delta":124565281},{"NoteNumber":59,"Velocity":70,"Duration":347603,"SoundDuration":347603,"Delta":124918389},{"NoteNumber":71,"Velocity":83,"Duration":347603,"SoundDuration":347603,"Delta":124918389},{"NoteNumber":59,"Velocity":70,"Duration":372549,"SoundDuration":372549,"Delta":125284287},{"NoteNumber":71,"Velocity":83,"Duration":372549,"SoundDuration":372549,"Delta":125284287},{"NoteNumber":34,"Velocity":74,"Duration":392156,"SoundDuration":392156,"Delta":125284287},{"NoteNumber":46,"Velocity":88,"Duration":392156,"SoundDuration":392156,"Delta":125284287},{"NoteNumber":63,"Velocity":88,"Duration":1402721,"SoundDuration":1402721,"Delta":125676444},{"NoteNumber":68,"Velocity":92,"Duration":1402721,"SoundDuration":1402721,"Delta":125676444},{"NoteNumber":59,"Velocity":74,"Duration":329708,"SoundDuration":329708,"Delta":125676444},{"NoteNumber":71,"Velocity":88,"Duration":329708,"SoundDuration":329708,"Delta":125676444},{"NoteNumber":32,"Velocity":74,"Duration":1402721,"SoundDuration":1402721,"Delta":125676444},{"NoteNumber":44,"Velocity":88,"Duration":1402721,"SoundDuration":1402721,"Delta":125676444},{"NoteNumber":59,"Velocity":70,"Duration":335452,"SoundDuration":335452,"Delta":126023506},{"NoteNumber":71,"Velocity":83,"Duration":335452,"SoundDuration":335452,"Delta":126023506},{"NoteNumber":59,"Velocity":70,"Duration":334574,"SoundDuration":334574,"Delta":126376613},{"NoteNumber":71,"Velocity":83,"Duration":334574,"SoundDuration":334574,"Delta":126376613},{"NoteNumber":59,"Velocity":66,"Duration":333072,"SoundDuration":333072,"Delta":126728740},{"NoteNumber":71,"Velocity":79,"Duration":333072,"SoundDuration":333072,"Delta":126728740},{"NoteNumber":63,"Velocity":88,"Duration":1422039,"SoundDuration":1422039,"Delta":127079165},{"NoteNumber":67,"Velocity":92,"Duration":1422039,"SoundDuration":1422039,"Delta":127079165},{"NoteNumber":59,"Velocity":74,"Duration":332807,"SoundDuration":332807,"Delta":127079165},{"NoteNumber":71,"Velocity":88,"Duration":332807,"SoundDuration":332807,"Delta":127079165},{"NoteNumber":39,"Velocity":71,"Duration":1422039,"SoundDuration":1422039,"Delta":127079165},{"NoteNumber":51,"Velocity":84,"Duration":1422039,"SoundDuration":1422039,"Delta":127079165},{"NoteNumber":59,"Velocity":70,"Duration":333605,"SoundDuration":333605,"Delta":127429427},{"NoteNumber":71,"Velocity":83,"Duration":333605,"SoundDuration":333605,"Delta":127429427},{"NoteNumber":59,"Velocity":70,"Duration":334866,"SoundDuration":334866,"Delta":127780688},{"NoteNumber":71,"Velocity":83,"Duration":334866,"SoundDuration":334866,"Delta":127780688},{"NoteNumber":59,"Velocity":66,"Duration":349693,"SoundDuration":349693,"Delta":128133107},{"NoteNumber":71,"Velocity":79,"Duration":349693,"SoundDuration":349693,"Delta":128133107},{"NoteNumber":63,"Velocity":74,"Duration":353107,"SoundDuration":353107,"Delta":128501205},{"NoteNumber":68,"Velocity":74,"Duration":353107,"SoundDuration":353107,"Delta":128501205},{"NoteNumber":59,"Velocity":62,"Duration":353107,"SoundDuration":353107,"Delta":128501205},{"NoteNumber":71,"Velocity":88,"Duration":353107,"SoundDuration":353107,"Delta":128501205},{"NoteNumber":32,"Velocity":67,"Duration":1433401,"SoundDuration":1433401,"Delta":128501205},{"NoteNumber":44,"Velocity":79,"Duration":1433401,"SoundDuration":1433401,"Delta":128501205},{"NoteNumber":56,"Velocity":63,"Duration":339366,"SoundDuration":339366,"Delta":128854312},{"NoteNumber":56,"Velocity":57,"Duration":343456,"SoundDuration":343456,"Delta":129211540},{"NoteNumber":56,"Velocity":49,"Duration":343456,"SoundDuration":343456,"Delta":129573073},{"NoteNumber":56,"Velocity":46,"Duration":341152,"SoundDuration":341152,"Delta":129934606},{"NoteNumber":56,"Velocity":42,"Duration":341539,"SoundDuration":341539,"Delta":130293835},{"NoteNumber":56,"Velocity":39,"Duration":340092,"SoundDuration":340092,"Delta":130653236},{"NoteNumber":56,"Velocity":36,"Duration":341475,"SoundDuration":341475,"Delta":131010880},{"NoteNumber":56,"Velocity":35,"Duration":352460,"SoundDuration":352460,"Delta":131370113},{"NoteNumber":37,"Velocity":29,"Duration":741092,"SoundDuration":741092,"Delta":131370113},{"NoteNumber":44,"Velocity":35,"Duration":741092,"SoundDuration":741092,"Delta":131370113},{"NoteNumber":56,"Velocity":33,"Duration":352088,"SoundDuration":352088,"Delta":131741125},{"NoteNumber":56,"Velocity":33,"Duration":341037,"SoundDuration":341037,"Delta":132111206},{"NoteNumber":39,"Velocity":26,"Duration":719809,"SoundDuration":719809,"Delta":132111206},{"NoteNumber":44,"Velocity":31,"Duration":719809,"SoundDuration":719809,"Delta":132111206},{"NoteNumber":56,"Velocity":33,"Duration":342782,"SoundDuration":342782,"Delta":132470019},{"NoteNumber":56,"Velocity":35,"Duration":342873,"SoundDuration":342873,"Delta":132831015},{"NoteNumber":40,"Velocity":29,"Duration":723032,"SoundDuration":723032,"Delta":132831015},{"NoteNumber":49,"Velocity":35,"Duration":723032,"SoundDuration":723032,"Delta":132831015},{"NoteNumber":56,"Velocity":33,"Duration":343953,"SoundDuration":343953,"Delta":133191991},{"NoteNumber":56,"Velocity":31,"Duration":352460,"SoundDuration":352460,"Delta":133554047},{"NoteNumber":39,"Velocity":27,"Duration":742022,"SoundDuration":742022,"Delta":133554047},{"NoteNumber":48,"Velocity":33,"Duration":742022,"SoundDuration":742022,"Delta":133554047},{"NoteNumber":56,"Velocity":31,"Duration":352460,"SoundDuration":352460,"Delta":133925059},{"NoteNumber":56,"Velocity":39,"Duration":352460,"SoundDuration":352460,"Delta":134296070},{"NoteNumber":39,"Velocity":33,"Duration":742023,"SoundDuration":742023,"Delta":134296070},{"NoteNumber":44,"Velocity":39,"Duration":742023,"SoundDuration":742023,"Delta":134296070},{"NoteNumber":56,"Velocity":36,"Duration":352460,"SoundDuration":352460,"Delta":134667082},{"NoteNumber":56,"Velocity":37,"Duration":337757,"SoundDuration":337757,"Delta":135038093},{"NoteNumber":40,"Velocity":29,"Duration":711069,"SoundDuration":711069,"Delta":135038093},{"NoteNumber":44,"Velocity":35,"Duration":711069,"SoundDuration":711069,"Delta":135038093},{"NoteNumber":56,"Velocity":37,"Duration":337757,"SoundDuration":337757,"Delta":135393628},{"NoteNumber":56,"Velocity":45,"Duration":343953,"SoundDuration":343953,"Delta":135749162},{"NoteNumber":42,"Velocity":35,"Duration":724112,"SoundDuration":724112,"Delta":135749162},{"NoteNumber":51,"Velocity":41,"Duration":724112,"SoundDuration":724112,"Delta":135749162},{"NoteNumber":56,"Velocity":38,"Duration":343953,"SoundDuration":343953,"Delta":136111219},{"NoteNumber":56,"Velocity":35,"Duration":350294,"SoundDuration":350294,"Delta":136473275},{"NoteNumber":40,"Velocity":31,"Duration":737462,"SoundDuration":737462,"Delta":136473275},{"NoteNumber":49,"Velocity":38,"Duration":737462,"SoundDuration":737462,"Delta":136473275},{"NoteNumber":56,"Velocity":36,"Duration":350294,"SoundDuration":350294,"Delta":136842007},{"NoteNumber":56,"Velocity":49,"Duration":343953,"SoundDuration":343953,"Delta":137210738},{"NoteNumber":40,"Velocity":38,"Duration":724112,"SoundDuration":724112,"Delta":137210738},{"NoteNumber":49,"Velocity":46,"Duration":724112,"SoundDuration":724112,"Delta":137210738},{"NoteNumber":56,"Velocity":42,"Duration":343953,"SoundDuration":343953,"Delta":137572795},{"NoteNumber":56,"Velocity":42,"Duration":335807,"SoundDuration":335807,"Delta":137934851},{"NoteNumber":44,"Velocity":38,"Duration":706963,"SoundDuration":706963,"Delta":137934851},{"NoteNumber":51,"Velocity":46,"Duration":706963,"SoundDuration":706963,"Delta":137934851},{"NoteNumber":56,"Velocity":42,"Duration":335807,"SoundDuration":335807,"Delta":138288333},{"NoteNumber":56,"Velocity":49,"Duration":341849,"SoundDuration":341849,"Delta":138641815},{"NoteNumber":49,"Velocity":41,"Duration":719683,"SoundDuration":719683,"Delta":138641815},{"NoteNumber":52,"Velocity":49,"Duration":719683,"SoundDuration":719683,"Delta":138641815},{"NoteNumber":56,"Velocity":40,"Duration":341849,"SoundDuration":341849,"Delta":139001657},{"NoteNumber":56,"Velocity":39,"Duration":354698,"SoundDuration":354698,"Delta":139361498},{"NoteNumber":44,"Velocity":38,"Duration":746733,"SoundDuration":746733,"Delta":139361498},{"NoteNumber":51,"Velocity":46,"Duration":746733,"SoundDuration":746733,"Delta":139361498},{"NoteNumber":56,"Velocity":39,"Duration":354698,"SoundDuration":354698,"Delta":139734865},{"NoteNumber":56,"Velocity":49,"Duration":354698,"SoundDuration":354698,"Delta":140108231},{"NoteNumber":44,"Velocity":39,"Duration":3571350,"SoundDuration":3571350,"Delta":140108231},{"NoteNumber":51,"Velocity":47,"Duration":3571350,"SoundDuration":3571350,"Delta":140108231},{"NoteNumber":56,"Velocity":40,"Duration":348155,"SoundDuration":348155,"Delta":140481598},{"NoteNumber":56,"Velocity":42,"Duration":327963,"SoundDuration":327963,"Delta":140848077},{"NoteNumber":56,"Velocity":41,"Duration":340501,"SoundDuration":340501,"Delta":141193302},{"NoteNumber":56,"Velocity":42,"Duration":337757,"SoundDuration":337757,"Delta":141551725},{"NoteNumber":56,"Velocity":41,"Duration":337757,"SoundDuration":337757,"Delta":141907259},{"NoteNumber":56,"Velocity":40,"Duration":324971,"SoundDuration":324971,"Delta":142262794},{"NoteNumber":56,"Velocity":40,"Duration":337278,"SoundDuration":337278,"Delta":142604869},{"NoteNumber":56,"Velocity":44,"Duration":341849,"SoundDuration":341849,"Delta":142959899},{"NoteNumber":56,"Velocity":39,"Duration":341849,"SoundDuration":341849,"Delta":143319740},{"NoteNumber":56,"Velocity":39,"Duration":334494,"SoundDuration":334494,"Delta":143679582},{"NoteNumber":49,"Velocity":33,"Duration":705754,"SoundDuration":705754,"Delta":143679582},{"NoteNumber":52,"Velocity":39,"Duration":705754,"SoundDuration":705754,"Delta":143679582},{"NoteNumber":56,"Velocity":37,"Duration":335706,"SoundDuration":335706,"Delta":144031854},{"NoteNumber":56,"Velocity":41,"Duration":338468,"SoundDuration":338468,"Delta":144385336},{"NoteNumber":44,"Velocity":35,"Duration":706154,"SoundDuration":706154,"Delta":144385336},{"NoteNumber":51,"Velocity":41,"Duration":706154,"SoundDuration":706154,"Delta":144385336},{"NoteNumber":56,"Velocity":37,"Duration":332443,"SoundDuration":332443,"Delta":144741479},{"NoteNumber":56,"Velocity":35,"Duration":343953,"SoundDuration":343953,"Delta":145091491},{"NoteNumber":40,"Velocity":30,"Duration":724112,"SoundDuration":724112,"Delta":145091491},{"NoteNumber":49,"Velocity":37,"Duration":724112,"SoundDuration":724112,"Delta":145091491},{"NoteNumber":56,"Velocity":35,"Duration":343953,"SoundDuration":343953,"Delta":145453548},{"NoteNumber":56,"Velocity":40,"Duration":337757,"SoundDuration":337757,"Delta":145815604},{"NoteNumber":44,"Velocity":35,"Duration":711069,"SoundDuration":711069,"Delta":145815604},{"NoteNumber":51,"Velocity":41,"Duration":711069,"SoundDuration":711069,"Delta":145815604},{"NoteNumber":56,"Velocity":35,"Duration":337757,"SoundDuration":337757,"Delta":146171139},{"NoteNumber":56,"Velocity":35,"Duration":346041,"SoundDuration":346041,"Delta":146526673},{"NoteNumber":40,"Velocity":30,"Duration":727962,"SoundDuration":727962,"Delta":146526673},{"NoteNumber":49,"Velocity":37,"Duration":727962,"SoundDuration":727962,"Delta":146526673},{"NoteNumber":56,"Velocity":31,"Duration":345823,"SoundDuration":345823,"Delta":146890928},{"NoteNumber":56,"Velocity":38,"Duration":339836,"SoundDuration":339836,"Delta":147254636},{"NoteNumber":39,"Velocity":31,"Duration":716578,"SoundDuration":716578,"Delta":147254636},{"NoteNumber":48,"Velocity":38,"Duration":716578,"SoundDuration":716578,"Delta":147254636},{"NoteNumber":56,"Velocity":35,"Duration":340426,"SoundDuration":340426,"Delta":147612575},{"NoteNumber":56,"Velocity":35,"Duration":337555,"SoundDuration":337555,"Delta":147971214},{"NoteNumber":40,"Velocity":29,"Duration":711246,"SoundDuration":711246,"Delta":147971214},{"NoteNumber":49,"Velocity":35,"Duration":711246,"SoundDuration":711246,"Delta":147971214},{"NoteNumber":56,"Velocity":33,"Duration":338020,"SoundDuration":338020,"Delta":148326339},{"NoteNumber":56,"Velocity":38,"Duration":338992,"SoundDuration":338992,"Delta":148682461},{"NoteNumber":39,"Velocity":33,"Duration":717470,"SoundDuration":717470,"Delta":148682461},{"NoteNumber":48,"Velocity":39,"Duration":717470,"SoundDuration":717470,"Delta":148682461},{"NoteNumber":56,"Velocity":40,"Duration":342708,"SoundDuration":342708,"Delta":149039339},{"NoteNumber":56,"Velocity":41,"Duration":341849,"SoundDuration":341849,"Delta":149399932},{"NoteNumber":40,"Velocity":30,"Duration":719683,"SoundDuration":719683,"Delta":149399932},{"NoteNumber":49,"Velocity":37,"Duration":719683,"SoundDuration":719683,"Delta":149399932},{"NoteNumber":56,"Velocity":44,"Duration":341849,"SoundDuration":341849,"Delta":149759774},{"NoteNumber":56,"Velocity":46,"Duration":337757,"SoundDuration":337757,"Delta":150119615},{"NoteNumber":39,"Velocity":34,"Duration":711069,"SoundDuration":711069,"Delta":150119615},{"NoteNumber":51,"Velocity":40,"Duration":711069,"SoundDuration":711069,"Delta":150119615},{"NoteNumber":56,"Velocity":48,"Duration":337757,"SoundDuration":337757,"Delta":150475150},{"NoteNumber":56,"Velocity":49,"Duration":348155,"SoundDuration":348155,"Delta":150830684},{"NoteNumber":37,"Velocity":37,"Duration":732958,"SoundDuration":732958,"Delta":150830684},{"NoteNumber":52,"Velocity":45,"Duration":732958,"SoundDuration":732958,"Delta":150830684},{"NoteNumber":56,"Velocity":51,"Duration":348155,"SoundDuration":348155,"Delta":151197164},{"NoteNumber":56,"Velocity":53,"Duration":329708,"SoundDuration":329708,"Delta":151563643},{"NoteNumber":44,"Velocity":40,"Duration":2840134,"SoundDuration":2840134,"Delta":151563643},{"NoteNumber":51,"Velocity":48,"Duration":2840134,"SoundDuration":2840134,"Delta":151563643},{"NoteNumber":68,"Velocity":53,"Duration":339366,"SoundDuration":339366,"Delta":151910705},{"NoteNumber":56,"Velocity":45,"Duration":339366,"SoundDuration":339366,"Delta":151910705},{"NoteNumber":68,"Velocity":55,"Duration":335452,"SoundDuration":335452,"Delta":152267933},{"NoteNumber":56,"Velocity":46,"Duration":335452,"SoundDuration":335452,"Delta":152267933},{"NoteNumber":68,"Velocity":56,"Duration":335452,"SoundDuration":335452,"Delta":152621040},{"NoteNumber":56,"Velocity":47,"Duration":335452,"SoundDuration":335452,"Delta":152621040},{"NoteNumber":68,"Velocity":57,"Duration":330752,"SoundDuration":330752,"Delta":152974148},{"NoteNumber":56,"Velocity":48,"Duration":330752,"SoundDuration":330752,"Delta":152974148},{"NoteNumber":68,"Velocity":59,"Duration":339972,"SoundDuration":339972,"Delta":153322556},{"NoteNumber":56,"Velocity":49,"Duration":339972,"SoundDuration":339972,"Delta":153322556},{"NoteNumber":68,"Velocity":60,"Duration":343456,"SoundDuration":343456,"Delta":153680712},{"NoteNumber":56,"Velocity":50,"Duration":343456,"SoundDuration":343456,"Delta":153680712},{"NoteNumber":68,"Velocity":61,"Duration":343456,"SoundDuration":343456,"Delta":154042245},{"NoteNumber":56,"Velocity":51,"Duration":343456,"SoundDuration":343456,"Delta":154042245},{"NoteNumber":68,"Velocity":61,"Duration":329708,"SoundDuration":329708,"Delta":154403778},{"NoteNumber":56,"Velocity":51,"Duration":329708,"SoundDuration":329708,"Delta":154403778},{"NoteNumber":37,"Velocity":52,"Duration":697126,"SoundDuration":697126,"Delta":154403778},{"NoteNumber":44,"Velocity":62,"Duration":697126,"SoundDuration":697126,"Delta":154403778},{"NoteNumber":68,"Velocity":59,"Duration":333098,"SoundDuration":333098,"Delta":154750840},{"NoteNumber":56,"Velocity":49,"Duration":333098,"SoundDuration":333098,"Delta":154750840},{"NoteNumber":68,"Velocity":59,"Duration":322361,"SoundDuration":322361,"Delta":155100905},{"NoteNumber":56,"Velocity":49,"Duration":322361,"SoundDuration":322361,"Delta":155100905},{"NoteNumber":39,"Velocity":51,"Duration":708967,"SoundDuration":708967,"Delta":155100905},{"NoteNumber":44,"Velocity":61,"Duration":708967,"SoundDuration":708967,"Delta":155100905},{"NoteNumber":68,"Velocity":59,"Duration":350433,"SoundDuration":350433,"Delta":155440233},{"NoteNumber":56,"Velocity":49,"Duration":350433,"SoundDuration":350433,"Delta":155440233},{"NoteNumber":61,"Velocity":67,"Duration":705484,"SoundDuration":705484,"Delta":155809872},{"NoteNumber":68,"Velocity":61,"Duration":340501,"SoundDuration":340501,"Delta":155809872},{"NoteNumber":56,"Velocity":52,"Duration":340501,"SoundDuration":340501,"Delta":155809872},{"NoteNumber":40,"Velocity":56,"Duration":705484,"SoundDuration":705484,"Delta":155809872},{"NoteNumber":49,"Velocity":67,"Duration":705484,"SoundDuration":705484,"Delta":155809872},{"NoteNumber":68,"Velocity":60,"Duration":329708,"SoundDuration":329708,"Delta":156168295},{"NoteNumber":56,"Velocity":50,"Duration":329708,"SoundDuration":329708,"Delta":156168295},{"NoteNumber":60,"Velocity":59,"Duration":710310,"SoundDuration":710310,"Delta":156515357},{"NoteNumber":68,"Velocity":58,"Duration":337397,"SoundDuration":337397,"Delta":156515357},{"NoteNumber":56,"Velocity":48,"Duration":337397,"SoundDuration":337397,"Delta":156515357},{"NoteNumber":39,"Velocity":52,"Duration":710310,"SoundDuration":710310,"Delta":156515357},{"NoteNumber":48,"Velocity":62,"Duration":710310,"SoundDuration":710310,"Delta":156515357},{"NoteNumber":68,"Velocity":58,"Duration":337397,"SoundDuration":337397,"Delta":156870512},{"NoteNumber":56,"Velocity":48,"Duration":337397,"SoundDuration":337397,"Delta":156870512},{"NoteNumber":68,"Velocity":64,"Duration":324121,"SoundDuration":324121,"Delta":157225668},{"NoteNumber":56,"Velocity":55,"Duration":324121,"SoundDuration":324121,"Delta":157225668},{"NoteNumber":39,"Velocity":57,"Duration":694288,"SoundDuration":694288,"Delta":157225668},{"NoteNumber":44,"Velocity":67,"Duration":694288,"SoundDuration":694288,"Delta":157225668},{"NoteNumber":68,"Velocity":61,"Duration":335452,"SoundDuration":335452,"Delta":157566848},{"NoteNumber":56,"Velocity":51,"Duration":335452,"SoundDuration":335452,"Delta":157566848},{"NoteNumber":68,"Velocity":61,"Duration":327850,"SoundDuration":327850,"Delta":157919956},{"NoteNumber":56,"Velocity":51,"Duration":327850,"SoundDuration":327850,"Delta":157919956},{"NoteNumber":40,"Velocity":56,"Duration":705387,"SoundDuration":705387,"Delta":157919956},{"NoteNumber":44,"Velocity":66,"Duration":705387,"SoundDuration":705387,"Delta":157919956},{"NoteNumber":68,"Velocity":61,"Duration":342011,"SoundDuration":342011,"Delta":158265061},{"NoteNumber":56,"Velocity":51,"Duration":342011,"SoundDuration":342011,"Delta":158265061},{"NoteNumber":63,"Velocity":71,"Duration":706071,"SoundDuration":706071,"Delta":158625343},{"NoteNumber":68,"Velocity":66,"Duration":337278,"SoundDuration":337278,"Delta":158625343},{"NoteNumber":56,"Velocity":56,"Duration":337278,"SoundDuration":337278,"Delta":158625343},{"NoteNumber":42,"Velocity":60,"Duration":706071,"SoundDuration":706071,"Delta":158625343},{"NoteNumber":51,"Velocity":71,"Duration":706071,"SoundDuration":706071,"Delta":158625343},{"NoteNumber":68,"Velocity":61,"Duration":333489,"SoundDuration":333489,"Delta":158980373},{"NoteNumber":56,"Velocity":51,"Duration":333489,"SoundDuration":333489,"Delta":158980373},{"NoteNumber":61,"Velocity":68,"Duration":1412934,"SoundDuration":1412934,"Delta":159331414},{"NoteNumber":68,"Velocity":61,"Duration":333489,"SoundDuration":333489,"Delta":159331414},{"NoteNumber":56,"Velocity":51,"Duration":333489,"SoundDuration":333489,"Delta":159331414},{"NoteNumber":40,"Velocity":57,"Duration":714721,"SoundDuration":714721,"Delta":159331414},{"NoteNumber":49,"Velocity":68,"Duration":714721,"SoundDuration":714721,"Delta":159331414},{"NoteNumber":68,"Velocity":61,"Duration":345496,"SoundDuration":345496,"Delta":159682456},{"NoteNumber":56,"Velocity":51,"Duration":345496,"SoundDuration":345496,"Delta":159682456},{"NoteNumber":68,"Velocity":74,"Duration":327850,"SoundDuration":327850,"Delta":160046136},{"NoteNumber":56,"Velocity":62,"Duration":327850,"SoundDuration":327850,"Delta":160046136},{"NoteNumber":40,"Velocity":59,"Duration":698212,"SoundDuration":698212,"Delta":160046136},{"NoteNumber":49,"Velocity":70,"Duration":698212,"SoundDuration":698212,"Delta":160046136},{"NoteNumber":68,"Velocity":68,"Duration":335452,"SoundDuration":335452,"Delta":160391242},{"NoteNumber":56,"Velocity":57,"Duration":335452,"SoundDuration":335452,"Delta":160391242},{"NoteNumber":63,"Velocity":73,"Duration":702737,"SoundDuration":702737,"Delta":160744349},{"NoteNumber":68,"Velocity":68,"Duration":333593,"SoundDuration":333593,"Delta":160744349},{"NoteNumber":56,"Velocity":57,"Duration":333593,"SoundDuration":333593,"Delta":160744349},{"NoteNumber":44,"Velocity":61,"Duration":702737,"SoundDuration":702737,"Delta":160744349},{"NoteNumber":51,"Velocity":73,"Duration":702737,"SoundDuration":702737,"Delta":160744349},{"NoteNumber":68,"Velocity":68,"Duration":333832,"SoundDuration":333832,"Delta":161095598},{"NoteNumber":56,"Velocity":57,"Duration":333832,"SoundDuration":333832,"Delta":161095598},{"NoteNumber":64,"Velocity":78,"Duration":705272,"SoundDuration":705272,"Delta":161447086},{"NoteNumber":68,"Velocity":69,"Duration":335172,"SoundDuration":335172,"Delta":161447086},{"NoteNumber":56,"Velocity":58,"Duration":335172,"SoundDuration":335172,"Delta":161447086},{"NoteNumber":49,"Velocity":66,"Duration":705272,"SoundDuration":705272,"Delta":161447086},{"NoteNumber":52,"Velocity":78,"Duration":705272,"SoundDuration":705272,"Delta":161447086},{"NoteNumber":68,"Velocity":68,"Duration":334687,"SoundDuration":334687,"Delta":161799914},{"NoteNumber":56,"Velocity":57,"Duration":334687,"SoundDuration":334687,"Delta":161799914},{"NoteNumber":63,"Velocity":73,"Duration":726292,"SoundDuration":726292,"Delta":162152359},{"NoteNumber":68,"Velocity":68,"Duration":333833,"SoundDuration":333833,"Delta":162152359},{"NoteNumber":56,"Velocity":57,"Duration":333833,"SoundDuration":333833,"Delta":162152359},{"NoteNumber":44,"Velocity":61,"Duration":538839,"SoundDuration":538839,"Delta":162152359},{"NoteNumber":51,"Velocity":73,"Duration":538839,"SoundDuration":538839,"Delta":162152359},{"NoteNumber":68,"Velocity":68,"Duration":356161,"SoundDuration":356161,"Delta":162503745},{"NoteNumber":56,"Velocity":57,"Duration":356161,"SoundDuration":356161,"Delta":162503745},{"NoteNumber":32,"Velocity":82,"Duration":187453,"SoundDuration":187453,"Delta":162691198},{"NoteNumber":63,"Velocity":74,"Duration":2860175,"SoundDuration":2860175,"Delta":162878652},{"NoteNumber":68,"Velocity":79,"Duration":333094,"SoundDuration":333094,"Delta":162878652},{"NoteNumber":56,"Velocity":67,"Duration":333094,"SoundDuration":333094,"Delta":162878652},{"NoteNumber":44,"Velocity":62,"Duration":2860175,"SoundDuration":2860175,"Delta":162878652},{"NoteNumber":51,"Velocity":74,"Duration":2860175,"SoundDuration":2860175,"Delta":162878652},{"NoteNumber":68,"Velocity":74,"Duration":334042,"SoundDuration":334042,"Delta":163229402},{"NoteNumber":56,"Velocity":62,"Duration":334042,"SoundDuration":334042,"Delta":163229402},{"NoteNumber":68,"Velocity":77,"Duration":332403,"SoundDuration":332403,"Delta":163580997},{"NoteNumber":56,"Velocity":63,"Duration":332403,"SoundDuration":332403,"Delta":163580997},{"NoteNumber":68,"Velocity":78,"Duration":333279,"SoundDuration":333279,"Delta":163930753},{"NoteNumber":56,"Velocity":64,"Duration":333279,"SoundDuration":333279,"Delta":163930753},{"NoteNumber":68,"Velocity":79,"Duration":337658,"SoundDuration":337658,"Delta":164281688},{"NoteNumber":56,"Velocity":66,"Duration":337658,"SoundDuration":337658,"Delta":164281688},{"NoteNumber":68,"Velocity":78,"Duration":342267,"SoundDuration":342267,"Delta":164637208},{"NoteNumber":56,"Velocity":66,"Duration":342267,"SoundDuration":342267,"Delta":164637208},{"NoteNumber":68,"Velocity":79,"Duration":348483,"SoundDuration":348483,"Delta":164997659},{"NoteNumber":56,"Velocity":67,"Duration":348483,"SoundDuration":348483,"Delta":164997659},{"NoteNumber":68,"Velocity":80,"Duration":355304,"SoundDuration":355304,"Delta":165364659},{"NoteNumber":56,"Velocity":68,"Duration":355304,"SoundDuration":355304,"Delta":165364659},{"NoteNumber":64,"Velocity":88,"Duration":1416896,"SoundDuration":1416896,"Delta":165738827},{"NoteNumber":68,"Velocity":92,"Duration":1416896,"SoundDuration":1416896,"Delta":165738827},{"NoteNumber":59,"Velocity":74,"Duration":341399,"SoundDuration":341399,"Delta":165738827},{"NoteNumber":71,"Velocity":88,"Duration":341399,"SoundDuration":341399,"Delta":165738827},{"NoteNumber":28,"Velocity":74,"Duration":1416896,"SoundDuration":1416896,"Delta":165738827},{"NoteNumber":40,"Velocity":88,"Duration":1416896,"SoundDuration":1416896,"Delta":165738827},{"NoteNumber":59,"Velocity":70,"Duration":331626,"SoundDuration":331626,"Delta":166098194},{"NoteNumber":71,"Velocity":83,"Duration":331626,"SoundDuration":331626,"Delta":166098194},{"NoteNumber":59,"Velocity":70,"Duration":331626,"SoundDuration":331626,"Delta":166447275},{"NoteNumber":71,"Velocity":83,"Duration":331626,"SoundDuration":331626,"Delta":166447275},{"NoteNumber":59,"Velocity":66,"Duration":341399,"SoundDuration":341399,"Delta":166796356},{"NoteNumber":71,"Velocity":79,"Duration":341399,"SoundDuration":341399,"Delta":166796356},{"NoteNumber":63,"Velocity":88,"Duration":1417554,"SoundDuration":1417554,"Delta":167155724},{"NoteNumber":68,"Velocity":92,"Duration":1417554,"SoundDuration":1417554,"Delta":167155724},{"NoteNumber":59,"Velocity":74,"Duration":335452,"SoundDuration":335452,"Delta":167155724},{"NoteNumber":71,"Velocity":88,"Duration":335452,"SoundDuration":335452,"Delta":167155724},{"NoteNumber":35,"Velocity":70,"Duration":1417554,"SoundDuration":1417554,"Delta":167155724},{"NoteNumber":47,"Velocity":83,"Duration":1417554,"SoundDuration":1417554,"Delta":167155724},{"NoteNumber":59,"Velocity":70,"Duration":329708,"SoundDuration":329708,"Delta":167508831},{"NoteNumber":71,"Velocity":83,"Duration":329708,"SoundDuration":329708,"Delta":167508831},{"NoteNumber":59,"Velocity":70,"Duration":329708,"SoundDuration":329708,"Delta":167855893},{"NoteNumber":71,"Velocity":83,"Duration":329708,"SoundDuration":329708,"Delta":167855893},{"NoteNumber":59,"Velocity":66,"Duration":351808,"SoundDuration":351808,"Delta":168202954},{"NoteNumber":71,"Velocity":79,"Duration":351808,"SoundDuration":351808,"Delta":168202954},{"NoteNumber":64,"Velocity":88,"Duration":1406998,"SoundDuration":1406998,"Delta":168573279},{"NoteNumber":68,"Velocity":92,"Duration":1406998,"SoundDuration":1406998,"Delta":168573279},{"NoteNumber":59,"Velocity":74,"Duration":335452,"SoundDuration":335452,"Delta":168573279},{"NoteNumber":71,"Velocity":88,"Duration":335452,"SoundDuration":335452,"Delta":168573279},{"NoteNumber":28,"Velocity":74,"Duration":1406998,"SoundDuration":1406998,"Delta":168573279},{"NoteNumber":40,"Velocity":88,"Duration":1406998,"SoundDuration":1406998,"Delta":168573279},{"NoteNumber":59,"Velocity":70,"Duration":327850,"SoundDuration":327850,"Delta":168926386},{"NoteNumber":71,"Velocity":83,"Duration":327850,"SoundDuration":327850,"Delta":168926386},{"NoteNumber":59,"Velocity":70,"Duration":327850,"SoundDuration":327850,"Delta":169271492},{"NoteNumber":71,"Velocity":83,"Duration":327850,"SoundDuration":327850,"Delta":169271492},{"NoteNumber":59,"Velocity":66,"Duration":345496,"SoundDuration":345496,"Delta":169616597},{"NoteNumber":71,"Velocity":79,"Duration":345496,"SoundDuration":345496,"Delta":169616597},{"NoteNumber":63,"Velocity":88,"Duration":1477518,"SoundDuration":1477518,"Delta":169980278},{"NoteNumber":68,"Velocity":92,"Duration":1477518,"SoundDuration":1477518,"Delta":169980278},{"NoteNumber":59,"Velocity":74,"Duration":335452,"SoundDuration":335452,"Delta":169980278},{"NoteNumber":71,"Velocity":88,"Duration":335452,"SoundDuration":335452,"Delta":169980278},{"NoteNumber":35,"Velocity":72,"Duration":1072113,"SoundDuration":1072113,"Delta":169980278},{"NoteNumber":47,"Velocity":85,"Duration":1072113,"SoundDuration":1072113,"Delta":169980278},{"NoteNumber":59,"Velocity":70,"Duration":335452,"SoundDuration":335452,"Delta":170333385},{"NoteNumber":71,"Velocity":83,"Duration":335452,"SoundDuration":335452,"Delta":170333385},{"NoteNumber":59,"Velocity":70,"Duration":347603,"SoundDuration":347603,"Delta":170686493},{"NoteNumber":71,"Velocity":83,"Duration":347603,"SoundDuration":347603,"Delta":170686493},{"NoteNumber":59,"Velocity":70,"Duration":385135,"SoundDuration":385135,"Delta":171052391},{"NoteNumber":71,"Velocity":83,"Duration":385135,"SoundDuration":385135,"Delta":171052391},{"NoteNumber":34,"Velocity":74,"Duration":405405,"SoundDuration":405405,"Delta":171052391},{"NoteNumber":46,"Velocity":88,"Duration":405405,"SoundDuration":405405,"Delta":171052391},{"NoteNumber":63,"Velocity":88,"Duration":1402721,"SoundDuration":1402721,"Delta":171457797},{"NoteNumber":68,"Velocity":92,"Duration":1402721,"SoundDuration":1402721,"Delta":171457797},{"NoteNumber":59,"Velocity":74,"Duration":329708,"SoundDuration":329708,"Delta":171457797},{"NoteNumber":71,"Velocity":88,"Duration":329708,"SoundDuration":329708,"Delta":171457797},{"NoteNumber":32,"Velocity":74,"Duration":1402721,"SoundDuration":1402721,"Delta":171457797},{"NoteNumber":44,"Velocity":88,"Duration":1402721,"SoundDuration":1402721,"Delta":171457797},{"NoteNumber":59,"Velocity":70,"Duration":335452,"SoundDuration":335452,"Delta":171804858},{"NoteNumber":71,"Velocity":83,"Duration":335452,"SoundDuration":335452,"Delta":171804858},{"NoteNumber":59,"Velocity":70,"Duration":334574,"SoundDuration":334574,"Delta":172157966},{"NoteNumber":71,"Velocity":83,"Duration":334574,"SoundDuration":334574,"Delta":172157966},{"NoteNumber":59,"Velocity":66,"Duration":333072,"SoundDuration":333072,"Delta":172510093},{"NoteNumber":71,"Velocity":79,"Duration":333072,"SoundDuration":333072,"Delta":172510093},{"NoteNumber":63,"Velocity":88,"Duration":1422039,"SoundDuration":1422039,"Delta":172860518},{"NoteNumber":67,"Velocity":92,"Duration":1422039,"SoundDuration":1422039,"Delta":172860518},{"NoteNumber":59,"Velocity":74,"Duration":332807,"SoundDuration":332807,"Delta":172860518},{"NoteNumber":71,"Velocity":88,"Duration":332807,"SoundDuration":332807,"Delta":172860518},{"NoteNumber":39,"Velocity":71,"Duration":1422039,"SoundDuration":1422039,"Delta":172860518},{"NoteNumber":51,"Velocity":84,"Duration":1422039,"SoundDuration":1422039,"Delta":172860518},{"NoteNumber":59,"Velocity":70,"Duration":333605,"SoundDuration":333605,"Delta":173210779},{"NoteNumber":71,"Velocity":83,"Duration":333605,"SoundDuration":333605,"Delta":173210779},{"NoteNumber":59,"Velocity":70,"Duration":334866,"SoundDuration":334866,"Delta":173562041},{"NoteNumber":71,"Velocity":83,"Duration":334866,"SoundDuration":334866,"Delta":173562041},{"NoteNumber":59,"Velocity":66,"Duration":349693,"SoundDuration":349693,"Delta":173914459},{"NoteNumber":71,"Velocity":79,"Duration":349693,"SoundDuration":349693,"Delta":173914459},{"NoteNumber":63,"Velocity":74,"Duration":353107,"SoundDuration":353107,"Delta":174282557},{"NoteNumber":68,"Velocity":74,"Duration":353107,"SoundDuration":353107,"Delta":174282557},{"NoteNumber":59,"Velocity":62,"Duration":353107,"SoundDuration":353107,"Delta":174282557},{"NoteNumber":71,"Velocity":88,"Duration":353107,"SoundDuration":353107,"Delta":174282557},{"NoteNumber":32,"Velocity":67,"Duration":1410589,"SoundDuration":1410589,"Delta":174282557},{"NoteNumber":44,"Velocity":79,"Duration":1410589,"SoundDuration":1410589,"Delta":174282557},{"NoteNumber":68,"Velocity":63,"Duration":339366,"SoundDuration":339366,"Delta":174635665},{"NoteNumber":68,"Velocity":57,"Duration":327963,"SoundDuration":327963,"Delta":174992893},{"NoteNumber":68,"Velocity":55,"Duration":337278,"SoundDuration":337278,"Delta":175338117},{"NoteNumber":68,"Velocity":52,"Duration":327736,"SoundDuration":327736,"Delta":175693147},{"NoteNumber":68,"Velocity":50,"Duration":340455,"SoundDuration":340455,"Delta":176038635},{"NoteNumber":68,"Velocity":48,"Duration":340092,"SoundDuration":340092,"Delta":176396951},{"NoteNumber":68,"Velocity":48,"Duration":341475,"SoundDuration":341475,"Delta":176754596},{"NoteNumber":68,"Velocity":44,"Duration":349297,"SoundDuration":349297,"Delta":177113829},{"NoteNumber":60,"Velocity":47,"Duration":1421548,"SoundDuration":1421548,"Delta":177113829},{"NoteNumber":72,"Velocity":56,"Duration":1421548,"SoundDuration":1421548,"Delta":177113829},{"NoteNumber":44,"Velocity":37,"Duration":1421548,"SoundDuration":1421548,"Delta":177113829},{"NoteNumber":42,"Velocity":37,"Duration":1421548,"SoundDuration":1421548,"Delta":177113829},{"NoteNumber":54,"Velocity":44,"Duration":1421548,"SoundDuration":1421548,"Delta":177113829},{"NoteNumber":68,"Velocity":44,"Duration":333723,"SoundDuration":333723,"Delta":177481514},{"NoteNumber":68,"Velocity":44,"Duration":333723,"SoundDuration":333723,"Delta":177832802},{"NoteNumber":68,"Velocity":44,"Duration":333723,"SoundDuration":333723,"Delta":178184090},{"NoteNumber":68,"Velocity":46,"Duration":337517,"SoundDuration":337517,"Delta":178535378},{"NoteNumber":61,"Velocity":50,"Duration":1448519,"SoundDuration":1448519,"Delta":178535378},{"NoteNumber":73,"Velocity":59,"Duration":1448519,"SoundDuration":1448519,"Delta":178535378},{"NoteNumber":40,"Velocity":33,"Duration":710564,"SoundDuration":710564,"Delta":178535378},{"NoteNumber":52,"Velocity":39,"Duration":710564,"SoundDuration":710564,"Delta":178535378},{"NoteNumber":44,"Velocity":33,"Duration":1448519,"SoundDuration":1448519,"Delta":178535378},{"NoteNumber":68,"Velocity":46,"Duration":337517,"SoundDuration":337517,"Delta":178890660},{"NoteNumber":68,"Velocity":46,"Duration":343331,"SoundDuration":343331,"Delta":179245942},{"NoteNumber":37,"Velocity":31,"Duration":737955,"SoundDuration":737955,"Delta":179245942},{"NoteNumber":49,"Velocity":38,"Duration":737955,"SoundDuration":737955,"Delta":179245942},{"NoteNumber":68,"Velocity":46,"Duration":357725,"SoundDuration":357725,"Delta":179607344},{"NoteNumber":68,"Velocity":46,"Duration":343331,"SoundDuration":343331,"Delta":179983897},{"NoteNumber":63,"Velocity":51,"Duration":2089504,"SoundDuration":2089504,"Delta":179983897},{"NoteNumber":73,"Velocity":61,"Duration":2089504,"SoundDuration":2089504,"Delta":179983897},{"NoteNumber":75,"Velocity":61,"Duration":2089504,"SoundDuration":2089504,"Delta":179983897},{"NoteNumber":32,"Velocity":37,"Duration":2089504,"SoundDuration":2089504,"Delta":179983897},{"NoteNumber":44,"Velocity":44,"Duration":2089504,"SoundDuration":2089504,"Delta":179983897},{"NoteNumber":68,"Velocity":46,"Duration":333723,"SoundDuration":333723,"Delta":180345299},{"NoteNumber":68,"Velocity":46,"Duration":328227,"SoundDuration":328227,"Delta":180696587},{"NoteNumber":68,"Velocity":46,"Duration":328227,"SoundDuration":328227,"Delta":181042090},{"NoteNumber":68,"Velocity":46,"Duration":323324,"SoundDuration":323324,"Delta":181387592},{"NoteNumber":68,"Velocity":47,"Duration":327963,"SoundDuration":327963,"Delta":181728178},{"NoteNumber":68,"Velocity":47,"Duration":343331,"SoundDuration":343331,"Delta":182073402},{"NoteNumber":63,"Velocity":51,"Duration":722803,"SoundDuration":722803,"Delta":182073402},{"NoteNumber":72,"Velocity":60,"Duration":722803,"SoundDuration":722803,"Delta":182073402},{"NoteNumber":75,"Velocity":60,"Duration":722803,"SoundDuration":722803,"Delta":182073402},{"NoteNumber":44,"Velocity":37,"Duration":722803,"SoundDuration":722803,"Delta":182073402},{"NoteNumber":56,"Velocity":44,"Duration":722803,"SoundDuration":722803,"Delta":182073402},{"NoteNumber":68,"Velocity":48,"Duration":343331,"SoundDuration":343331,"Delta":182434804},{"NoteNumber":68,"Velocity":48,"Duration":343331,"SoundDuration":343331,"Delta":182796206},{"NoteNumber":64,"Velocity":53,"Duration":706904,"SoundDuration":706904,"Delta":182796206},{"NoteNumber":75,"Velocity":63,"Duration":706904,"SoundDuration":706904,"Delta":182796206},{"NoteNumber":76,"Velocity":63,"Duration":706904,"SoundDuration":706904,"Delta":182796206},{"NoteNumber":49,"Velocity":41,"Duration":1397909,"SoundDuration":1397909,"Delta":182796206},{"NoteNumber":56,"Velocity":49,"Duration":1397909,"SoundDuration":1397909,"Delta":182796206},{"NoteNumber":68,"Velocity":48,"Duration":328227,"SoundDuration":328227,"Delta":183157608},{"NoteNumber":68,"Velocity":48,"Duration":328227,"SoundDuration":328227,"Delta":183503111},{"NoteNumber":64,"Velocity":49,"Duration":691004,"SoundDuration":691004,"Delta":183503111},{"NoteNumber":73,"Velocity":59,"Duration":691004,"SoundDuration":691004,"Delta":183503111},{"NoteNumber":76,"Velocity":59,"Duration":691004,"SoundDuration":691004,"Delta":183503111},{"NoteNumber":68,"Velocity":48,"Duration":328227,"SoundDuration":328227,"Delta":183848613},{"NoteNumber":68,"Velocity":46,"Duration":341358,"SoundDuration":341358,"Delta":184194116},{"NoteNumber":63,"Velocity":51,"Duration":718648,"SoundDuration":718648,"Delta":184194116},{"NoteNumber":73,"Velocity":61,"Duration":718648,"SoundDuration":718648,"Delta":184194116},{"NoteNumber":75,"Velocity":61,"Duration":718648,"SoundDuration":718648,"Delta":184194116},{"NoteNumber":44,"Velocity":37,"Duration":1458201,"SoundDuration":1458201,"Delta":184194116},{"NoteNumber":56,"Velocity":44,"Duration":1458201,"SoundDuration":1458201,"Delta":184194116},{"NoteNumber":68,"Velocity":46,"Duration":341358,"SoundDuration":341358,"Delta":184553440},{"NoteNumber":68,"Velocity":46,"Duration":341358,"SoundDuration":341358,"Delta":184912765},{"NoteNumber":63,"Velocity":46,"Duration":739552,"SoundDuration":739552,"Delta":184912765},{"NoteNumber":72,"Velocity":55,"Duration":739552,"SoundDuration":739552,"Delta":184912765},{"NoteNumber":75,"Velocity":55,"Duration":739552,"SoundDuration":739552,"Delta":184912765},{"NoteNumber":68,"Velocity":46,"Duration":361216,"SoundDuration":361216,"Delta":185272089},{"NoteNumber":68,"Velocity":46,"Duration":341358,"SoundDuration":341358,"Delta":185652317},{"NoteNumber":61,"Velocity":51,"Duration":2812276,"SoundDuration":2812276,"Delta":185652317},{"NoteNumber":73,"Velocity":59,"Duration":2812276,"SoundDuration":2812276,"Delta":185652317},{"NoteNumber":45,"Velocity":45,"Duration":1391783,"SoundDuration":1391783,"Delta":185652317},{"NoteNumber":57,"Velocity":53,"Duration":1391783,"SoundDuration":1391783,"Delta":185652317},{"NoteNumber":68,"Velocity":46,"Duration":333723,"SoundDuration":333723,"Delta":186011642},{"NoteNumber":66,"Velocity":45,"Duration":319148,"SoundDuration":319148,"Delta":186362930},{"NoteNumber":66,"Velocity":41,"Duration":327963,"SoundDuration":327963,"Delta":186698876},{"NoteNumber":68,"Velocity":45,"Duration":327963,"SoundDuration":327963,"Delta":187044100},{"NoteNumber":44,"Velocity":42,"Duration":703647,"SoundDuration":703647,"Delta":187044100},{"NoteNumber":56,"Velocity":51,"Duration":703647,"SoundDuration":703647,"Delta":187044100},{"NoteNumber":68,"Velocity":41,"Duration":340501,"SoundDuration":340501,"Delta":187389325},{"NoteNumber":69,"Velocity":44,"Duration":340501,"SoundDuration":340501,"Delta":187747748},{"NoteNumber":42,"Velocity":37,"Duration":716846,"SoundDuration":716846,"Delta":187747748},{"NoteNumber":54,"Velocity":44,"Duration":716846,"SoundDuration":716846,"Delta":187747748},{"NoteNumber":69,"Velocity":40,"Duration":340501,"SoundDuration":340501,"Delta":188106171},{"NoteNumber":56,"Velocity":39,"Duration":349127,"SoundDuration":349127,"Delta":188464594},{"NoteNumber":60,"Velocity":47,"Duration":1409807,"SoundDuration":1409807,"Delta":188464594},{"NoteNumber":63,"Velocity":56,"Duration":1409807,"SoundDuration":1409807,"Delta":188464594},{"NoteNumber":68,"Velocity":47,"Duration":1409807,"SoundDuration":1409807,"Delta":188464594},{"NoteNumber":44,"Velocity":49,"Duration":1409807,"SoundDuration":1409807,"Delta":188464594},{"NoteNumber":56,"Velocity":39,"Duration":333723,"SoundDuration":333723,"Delta":188832108},{"NoteNumber":56,"Velocity":39,"Duration":328227,"SoundDuration":328227,"Delta":189183396},{"NoteNumber":56,"Velocity":39,"Duration":328227,"SoundDuration":328227,"Delta":189528899},{"NoteNumber":56,"Velocity":38,"Duration":337517,"SoundDuration":337517,"Delta":189874401},{"NoteNumber":61,"Velocity":46,"Duration":710564,"SoundDuration":710564,"Delta":189874401},{"NoteNumber":64,"Velocity":55,"Duration":710564,"SoundDuration":710564,"Delta":189874401},{"NoteNumber":68,"Velocity":46,"Duration":710564,"SoundDuration":710564,"Delta":189874401},{"NoteNumber":37,"Velocity":37,"Duration":1433368,"SoundDuration":1433368,"Delta":189874401},{"NoteNumber":44,"Velocity":44,"Duration":1433368,"SoundDuration":1433368,"Delta":189874401},{"NoteNumber":56,"Velocity":38,"Duration":337517,"SoundDuration":337517,"Delta":190229683},{"NoteNumber":56,"Velocity":38,"Duration":343331,"SoundDuration":343331,"Delta":190584965},{"NoteNumber":58,"Velocity":46,"Duration":722803,"SoundDuration":722803,"Delta":190584965},{"NoteNumber":61,"Velocity":55,"Duration":722803,"SoundDuration":722803,"Delta":190584965},{"NoteNumber":68,"Velocity":46,"Duration":722803,"SoundDuration":722803,"Delta":190584965},{"NoteNumber":56,"Velocity":38,"Duration":343331,"SoundDuration":343331,"Delta":190946367},{"NoteNumber":56,"Velocity":39,"Duration":343331,"SoundDuration":343331,"Delta":191307769},{"NoteNumber":60,"Velocity":47,"Duration":710726,"SoundDuration":710726,"Delta":191307769},{"NoteNumber":63,"Velocity":56,"Duration":710726,"SoundDuration":710726,"Delta":191307769},{"NoteNumber":68,"Velocity":47,"Duration":710726,"SoundDuration":710726,"Delta":191307769},{"NoteNumber":32,"Velocity":36,"Duration":710726,"SoundDuration":710726,"Delta":191307769},{"NoteNumber":44,"Velocity":42,"Duration":710726,"SoundDuration":710726,"Delta":191307769},{"NoteNumber":56,"Velocity":39,"Duration":331858,"SoundDuration":331858,"Delta":191669171},{"NoteNumber":56,"Velocity":38,"Duration":328227,"SoundDuration":328227,"Delta":192018496},{"NoteNumber":61,"Velocity":46,"Duration":691004,"SoundDuration":691004,"Delta":192018496},{"NoteNumber":64,"Velocity":55,"Duration":691004,"SoundDuration":691004,"Delta":192018496},{"NoteNumber":68,"Velocity":46,"Duration":691004,"SoundDuration":691004,"Delta":192018496},{"NoteNumber":37,"Velocity":41,"Duration":2104814,"SoundDuration":2104814,"Delta":192018496},{"NoteNumber":44,"Velocity":49,"Duration":2104814,"SoundDuration":2104814,"Delta":192018496},{"NoteNumber":56,"Velocity":38,"Duration":328227,"SoundDuration":328227,"Delta":192363998},{"NoteNumber":56,"Velocity":38,"Duration":328227,"SoundDuration":328227,"Delta":192709501},{"NoteNumber":58,"Velocity":46,"Duration":691005,"SoundDuration":691005,"Delta":192709501},{"NoteNumber":61,"Velocity":55,"Duration":691005,"SoundDuration":691005,"Delta":192709501},{"NoteNumber":68,"Velocity":46,"Duration":691005,"SoundDuration":691005,"Delta":192709501},{"NoteNumber":56,"Velocity":38,"Duration":328227,"SoundDuration":328227,"Delta":193055003},{"NoteNumber":56,"Velocity":38,"Duration":343331,"SoundDuration":343331,"Delta":193400506},{"NoteNumber":61,"Velocity":46,"Duration":722803,"SoundDuration":722803,"Delta":193400506},{"NoteNumber":64,"Velocity":55,"Duration":722803,"SoundDuration":722803,"Delta":193400506},{"NoteNumber":68,"Velocity":46,"Duration":722803,"SoundDuration":722803,"Delta":193400506},{"NoteNumber":56,"Velocity":38,"Duration":343331,"SoundDuration":343331,"Delta":193761908},{"NoteNumber":56,"Velocity":42,"Duration":343331,"SoundDuration":343331,"Delta":194123310},{"NoteNumber":61,"Velocity":50,"Duration":708825,"SoundDuration":708825,"Delta":194123310},{"NoteNumber":64,"Velocity":60,"Duration":708825,"SoundDuration":708825,"Delta":194123310},{"NoteNumber":68,"Velocity":50,"Duration":708825,"SoundDuration":708825,"Delta":194123310},{"NoteNumber":37,"Velocity":37,"Duration":708825,"SoundDuration":708825,"Delta":194123310},{"NoteNumber":44,"Velocity":45,"Duration":708825,"SoundDuration":708825,"Delta":194123310},{"NoteNumber":56,"Velocity":42,"Duration":330052,"SoundDuration":330052,"Delta":194484712},{"NoteNumber":56,"Velocity":39,"Duration":330052,"SoundDuration":330052,"Delta":194832135},{"NoteNumber":60,"Velocity":47,"Duration":700697,"SoundDuration":700697,"Delta":194832135},{"NoteNumber":63,"Velocity":56,"Duration":700697,"SoundDuration":700697,"Delta":194832135},{"NoteNumber":68,"Velocity":47,"Duration":700697,"SoundDuration":700697,"Delta":194832135},{"NoteNumber":32,"Velocity":33,"Duration":1391702,"SoundDuration":1391702,"Delta":194832135},{"NoteNumber":44,"Velocity":39,"Duration":1391702,"SoundDuration":1391702,"Delta":194832135},{"NoteNumber":56,"Velocity":39,"Duration":335609,"SoundDuration":335609,"Delta":195179559},{"NoteNumber":56,"Velocity":41,"Duration":328227,"SoundDuration":328227,"Delta":195532832},{"NoteNumber":63,"Velocity":49,"Duration":691004,"SoundDuration":691004,"Delta":195532832},{"NoteNumber":66,"Velocity":58,"Duration":691004,"SoundDuration":691004,"Delta":195532832},{"NoteNumber":68,"Velocity":49,"Duration":691004,"SoundDuration":691004,"Delta":195532832},{"NoteNumber":56,"Velocity":41,"Duration":328227,"SoundDuration":328227,"Delta":195878335},{"NoteNumber":56,"Velocity":39,"Duration":328227,"SoundDuration":328227,"Delta":196223837},{"NoteNumber":61,"Velocity":47,"Duration":717572,"SoundDuration":717572,"Delta":196223837},{"NoteNumber":64,"Velocity":56,"Duration":717572,"SoundDuration":717572,"Delta":196223837},{"NoteNumber":68,"Velocity":47,"Duration":717572,"SoundDuration":717572,"Delta":196223837},{"NoteNumber":37,"Velocity":35,"Duration":717572,"SoundDuration":717572,"Delta":196223837},{"NoteNumber":44,"Velocity":41,"Duration":717572,"SoundDuration":717572,"Delta":196223837},{"NoteNumber":56,"Velocity":39,"Duration":353466,"SoundDuration":353466,"Delta":196569340},{"NoteNumber":56,"Velocity":39,"Duration":341358,"SoundDuration":341358,"Delta":196941410},{"NoteNumber":60,"Velocity":47,"Duration":2862493,"SoundDuration":2862493,"Delta":196941410},{"NoteNumber":63,"Velocity":56,"Duration":2862493,"SoundDuration":2862493,"Delta":196941410},{"NoteNumber":68,"Velocity":47,"Duration":2862493,"SoundDuration":2862493,"Delta":196941410},{"NoteNumber":32,"Velocity":35,"Duration":2862493,"SoundDuration":2862493,"Delta":196941410},{"NoteNumber":44,"Velocity":41,"Duration":2862493,"SoundDuration":2862493,"Delta":196941410},{"NoteNumber":56,"Velocity":39,"Duration":341358,"SoundDuration":341358,"Delta":197300734},{"NoteNumber":56,"Velocity":39,"Duration":335609,"SoundDuration":335609,"Delta":197660059},{"NoteNumber":56,"Velocity":39,"Duration":335609,"SoundDuration":335609,"Delta":198013332},{"NoteNumber":56,"Velocity":39,"Duration":341358,"SoundDuration":341358,"Delta":198366606},{"NoteNumber":56,"Velocity":39,"Duration":341358,"SoundDuration":341358,"Delta":198725930},{"NoteNumber":56,"Velocity":39,"Duration":341358,"SoundDuration":341358,"Delta":199085255},{"NoteNumber":56,"Velocity":39,"Duration":341358,"SoundDuration":341358,"Delta":199444579},{"NoteNumber":63,"Velocity":51,"Duration":1421378,"SoundDuration":1421378,"Delta":199803904},{"NoteNumber":68,"Velocity":48,"Duration":349127,"SoundDuration":349127,"Delta":199803904},{"NoteNumber":60,"Velocity":51,"Duration":1421378,"SoundDuration":1421378,"Delta":199803904},{"NoteNumber":72,"Velocity":61,"Duration":1421378,"SoundDuration":1421378,"Delta":199803904},{"NoteNumber":44,"Velocity":40,"Duration":349127,"SoundDuration":349127,"Delta":199803904},{"NoteNumber":42,"Velocity":40,"Duration":1421378,"SoundDuration":1421378,"Delta":199803904},{"NoteNumber":54,"Velocity":48,"Duration":1421378,"SoundDuration":1421378,"Delta":199803904},{"NoteNumber":68,"Velocity":53,"Duration":333723,"SoundDuration":333723,"Delta":200171419},{"NoteNumber":44,"Velocity":40,"Duration":333723,"SoundDuration":333723,"Delta":200171419},{"NoteNumber":68,"Velocity":57,"Duration":333723,"SoundDuration":333723,"Delta":200522707},{"NoteNumber":44,"Velocity":40,"Duration":333723,"SoundDuration":333723,"Delta":200522707},{"NoteNumber":68,"Velocity":57,"Duration":333723,"SoundDuration":333723,"Delta":200873995},{"NoteNumber":44,"Velocity":40,"Duration":333723,"SoundDuration":333723,"Delta":200873995},{"NoteNumber":68,"Velocity":53,"Duration":337517,"SoundDuration":337517,"Delta":201225283},{"NoteNumber":61,"Velocity":58,"Duration":1448519,"SoundDuration":1448519,"Delta":201225283},{"NoteNumber":73,"Velocity":69,"Duration":1448519,"SoundDuration":1448519,"Delta":201225283},{"NoteNumber":40,"Velocity":41,"Duration":710564,"SoundDuration":710564,"Delta":201225283},{"NoteNumber":52,"Velocity":50,"Duration":710564,"SoundDuration":710564,"Delta":201225283},{"NoteNumber":44,"Velocity":41,"Duration":1448519,"SoundDuration":1448519,"Delta":201225283},{"NoteNumber":68,"Velocity":58,"Duration":337517,"SoundDuration":337517,"Delta":201580565},{"NoteNumber":68,"Velocity":59,"Duration":343331,"SoundDuration":343331,"Delta":201935847},{"NoteNumber":37,"Velocity":41,"Duration":737955,"SoundDuration":737955,"Delta":201935847},{"NoteNumber":49,"Velocity":50,"Duration":737955,"SoundDuration":737955,"Delta":201935847},{"NoteNumber":68,"Velocity":61,"Duration":357725,"SoundDuration":357725,"Delta":202297249},{"NoteNumber":68,"Velocity":57,"Duration":343331,"SoundDuration":343331,"Delta":202673802},{"NoteNumber":63,"Velocity":63,"Duration":2094700,"SoundDuration":2094700,"Delta":202673802},{"NoteNumber":73,"Velocity":77,"Duration":2094700,"SoundDuration":2094700,"Delta":202673802},{"NoteNumber":75,"Velocity":77,"Duration":2094700,"SoundDuration":2094700,"Delta":202673802},{"NoteNumber":32,"Velocity":50,"Duration":2826015,"SoundDuration":2826015,"Delta":202673802},{"NoteNumber":44,"Velocity":60,"Duration":2826015,"SoundDuration":2826015,"Delta":202673802},{"NoteNumber":68,"Velocity":66,"Duration":333723,"SoundDuration":333723,"Delta":203035204},{"NoteNumber":68,"Velocity":68,"Duration":328227,"SoundDuration":328227,"Delta":203386492},{"NoteNumber":68,"Velocity":69,"Duration":328227,"SoundDuration":328227,"Delta":203731995},{"NoteNumber":68,"Velocity":71,"Duration":328227,"SoundDuration":328227,"Delta":204077497},{"NoteNumber":68,"Velocity":73,"Duration":328227,"SoundDuration":328227,"Delta":204423000},{"NoteNumber":68,"Velocity":63,"Duration":343331,"SoundDuration":343331,"Delta":204768502},{"NoteNumber":63,"Velocity":69,"Duration":731315,"SoundDuration":731315,"Delta":204768502},{"NoteNumber":72,"Velocity":81,"Duration":731315,"SoundDuration":731315,"Delta":204768502},{"NoteNumber":75,"Velocity":81,"Duration":731315,"SoundDuration":731315,"Delta":204768502},{"NoteNumber":68,"Velocity":73,"Duration":351417,"SoundDuration":351417,"Delta":205129904},{"NoteNumber":68,"Velocity":67,"Duration":343331,"SoundDuration":343331,"Delta":205499818},{"NoteNumber":64,"Velocity":74,"Duration":706904,"SoundDuration":706904,"Delta":205499818},{"NoteNumber":75,"Velocity":89,"Duration":706904,"SoundDuration":706904,"Delta":205499818},{"NoteNumber":76,"Velocity":89,"Duration":706904,"SoundDuration":706904,"Delta":205499818},{"NoteNumber":37,"Velocity":58,"Duration":1397909,"SoundDuration":1397909,"Delta":205499818},{"NoteNumber":44,"Velocity":69,"Duration":1397909,"SoundDuration":1397909,"Delta":205499818},{"NoteNumber":68,"Velocity":67,"Duration":328227,"SoundDuration":328227,"Delta":205861220},{"NoteNumber":68,"Velocity":67,"Duration":328227,"SoundDuration":328227,"Delta":206206722},{"NoteNumber":64,"Velocity":69,"Duration":691004,"SoundDuration":691004,"Delta":206206722},{"NoteNumber":73,"Velocity":82,"Duration":691004,"SoundDuration":691004,"Delta":206206722},{"NoteNumber":76,"Velocity":82,"Duration":691004,"SoundDuration":691004,"Delta":206206722},{"NoteNumber":68,"Velocity":67,"Duration":328227,"SoundDuration":328227,"Delta":206552225},{"NoteNumber":68,"Velocity":63,"Duration":341358,"SoundDuration":341358,"Delta":206897727},{"NoteNumber":63,"Velocity":71,"Duration":718648,"SoundDuration":718648,"Delta":206897727},{"NoteNumber":73,"Velocity":85,"Duration":718648,"SoundDuration":718648,"Delta":206897727},{"NoteNumber":75,"Velocity":85,"Duration":718648,"SoundDuration":718648,"Delta":206897727},{"NoteNumber":44,"Velocity":51,"Duration":1450043,"SoundDuration":1450043,"Delta":206897727},{"NoteNumber":56,"Velocity":61,"Duration":1450043,"SoundDuration":1450043,"Delta":206897727},{"NoteNumber":68,"Velocity":63,"Duration":341358,"SoundDuration":341358,"Delta":207257052},{"NoteNumber":68,"Velocity":63,"Duration":341358,"SoundDuration":341358,"Delta":207616376},{"NoteNumber":63,"Velocity":63,"Duration":731394,"SoundDuration":731394,"Delta":207616376},{"NoteNumber":72,"Velocity":77,"Duration":731394,"SoundDuration":731394,"Delta":207616376},{"NoteNumber":75,"Velocity":77,"Duration":731394,"SoundDuration":731394,"Delta":207616376},{"NoteNumber":68,"Velocity":63,"Duration":353466,"SoundDuration":353466,"Delta":207975701},{"NoteNumber":71,"Velocity":67,"Duration":1401617,"SoundDuration":1401617,"Delta":208347771},{"NoteNumber":68,"Velocity":67,"Duration":1401617,"SoundDuration":1401617,"Delta":208347771},{"NoteNumber":61,"Velocity":59,"Duration":341358,"SoundDuration":341358,"Delta":208347771},{"NoteNumber":73,"Velocity":77,"Duration":1401617,"SoundDuration":1401617,"Delta":208347771},{"NoteNumber":41,"Velocity":58,"Duration":1401617,"SoundDuration":1401617,"Delta":208347771},{"NoteNumber":53,"Velocity":69,"Duration":1401617,"SoundDuration":1401617,"Delta":208347771},{"NoteNumber":61,"Velocity":59,"Duration":333723,"SoundDuration":333723,"Delta":208707095},{"NoteNumber":61,"Velocity":58,"Duration":328227,"SoundDuration":328227,"Delta":209058383},{"NoteNumber":61,"Velocity":58,"Duration":328227,"SoundDuration":328227,"Delta":209403886},{"NoteNumber":68,"Velocity":62,"Duration":718648,"SoundDuration":718648,"Delta":209749388},{"NoteNumber":69,"Velocity":62,"Duration":718648,"SoundDuration":718648,"Delta":209749388},{"NoteNumber":73,"Velocity":72,"Duration":718648,"SoundDuration":718648,"Delta":209749388},{"NoteNumber":61,"Velocity":55,"Duration":341358,"SoundDuration":341358,"Delta":209749388},{"NoteNumber":42,"Velocity":51,"Duration":1437297,"SoundDuration":1437297,"Delta":209749388},{"NoteNumber":54,"Velocity":62,"Duration":1437297,"SoundDuration":1437297,"Delta":209749388},{"NoteNumber":61,"Velocity":53,"Duration":341358,"SoundDuration":341358,"Delta":210108713},{"NoteNumber":66,"Velocity":62,"Duration":718648,"SoundDuration":718648,"Delta":210468037},{"NoteNumber":69,"Velocity":62,"Duration":718648,"SoundDuration":718648,"Delta":210468037},{"NoteNumber":73,"Velocity":72,"Duration":718648,"SoundDuration":718648,"Delta":210468037},{"NoteNumber":61,"Velocity":53,"Duration":341358,"SoundDuration":341358,"Delta":210468037},{"NoteNumber":61,"Velocity":53,"Duration":341358,"SoundDuration":341358,"Delta":210827362},{"NoteNumber":56,"Velocity":47,"Duration":349127,"SoundDuration":349127,"Delta":211186686},{"NoteNumber":63,"Velocity":56,"Duration":1409807,"SoundDuration":1409807,"Delta":211186686},{"NoteNumber":66,"Velocity":56,"Duration":1409807,"SoundDuration":1409807,"Delta":211186686},{"NoteNumber":68,"Velocity":67,"Duration":1409807,"SoundDuration":1409807,"Delta":211186686},{"NoteNumber":36,"Velocity":52,"Duration":1409807,"SoundDuration":1409807,"Delta":211186686},{"NoteNumber":48,"Velocity":59,"Duration":1409807,"SoundDuration":1409807,"Delta":211186686},{"NoteNumber":56,"Velocity":47,"Duration":333723,"SoundDuration":333723,"Delta":211554201},{"NoteNumber":56,"Velocity":47,"Duration":328227,"SoundDuration":328227,"Delta":211905489},{"NoteNumber":56,"Velocity":48,"Duration":328227,"SoundDuration":328227,"Delta":212250991},{"NoteNumber":56,"Velocity":47,"Duration":337517,"SoundDuration":337517,"Delta":212596494},{"NoteNumber":61,"Velocity":48,"Duration":710564,"SoundDuration":710564,"Delta":212596494},{"NoteNumber":66,"Velocity":57,"Duration":710564,"SoundDuration":710564,"Delta":212596494},{"NoteNumber":68,"Velocity":68,"Duration":710564,"SoundDuration":710564,"Delta":212596494},{"NoteNumber":37,"Velocity":44,"Duration":1433368,"SoundDuration":1433368,"Delta":212596494},{"NoteNumber":49,"Velocity":52,"Duration":1433368,"SoundDuration":1433368,"Delta":212596494},{"NoteNumber":56,"Velocity":48,"Duration":337517,"SoundDuration":337517,"Delta":212951776},{"NoteNumber":56,"Velocity":48,"Duration":343331,"SoundDuration":343331,"Delta":213307058},{"NoteNumber":61,"Velocity":49,"Duration":722803,"SoundDuration":722803,"Delta":213307058},{"NoteNumber":64,"Velocity":58,"Duration":722803,"SoundDuration":722803,"Delta":213307058},{"NoteNumber":70,"Velocity":69,"Duration":722803,"SoundDuration":722803,"Delta":213307058},{"NoteNumber":56,"Velocity":48,"Duration":343331,"SoundDuration":343331,"Delta":213668460},{"NoteNumber":56,"Velocity":50,"Duration":343331,"SoundDuration":343331,"Delta":214029862},{"NoteNumber":61,"Velocity":51,"Duration":1401731,"SoundDuration":1401731,"Delta":214029862},{"NoteNumber":64,"Velocity":60,"Duration":1401731,"SoundDuration":1401731,"Delta":214029862},{"NoteNumber":70,"Velocity":69,"Duration":1401731,"SoundDuration":1401731,"Delta":214029862},{"NoteNumber":32,"Velocity":42,"Duration":2092736,"SoundDuration":2092736,"Delta":214029862},{"NoteNumber":44,"Velocity":55,"Duration":2092736,"SoundDuration":2092736,"Delta":214029862},{"NoteNumber":56,"Velocity":50,"Duration":331858,"SoundDuration":331858,"Delta":214391264},{"NoteNumber":56,"Velocity":48,"Duration":328227,"SoundDuration":328227,"Delta":214740588},{"NoteNumber":56,"Velocity":48,"Duration":328227,"SoundDuration":328227,"Delta":215086091},{"NoteNumber":56,"Velocity":47,"Duration":328227,"SoundDuration":328227,"Delta":215431593},{"NoteNumber":60,"Velocity":50,"Duration":691005,"SoundDuration":691005,"Delta":215431593},{"NoteNumber":63,"Velocity":57,"Duration":691005,"SoundDuration":691005,"Delta":215431593},{"NoteNumber":68,"Velocity":68,"Duration":691005,"SoundDuration":691005,"Delta":215431593},{"NoteNumber":56,"Velocity":47,"Duration":328227,"SoundDuration":328227,"Delta":215777096},{"NoteNumber":56,"Velocity":47,"Duration":343331,"SoundDuration":343331,"Delta":216122598},{"NoteNumber":61,"Velocity":47,"Duration":722803,"SoundDuration":722803,"Delta":216122598},{"NoteNumber":64,"Velocity":56,"Duration":722803,"SoundDuration":722803,"Delta":216122598},{"NoteNumber":70,"Velocity":67,"Duration":722803,"SoundDuration":722803,"Delta":216122598},{"NoteNumber":37,"Velocity":46,"Duration":722803,"SoundDuration":722803,"Delta":216122598},{"NoteNumber":44,"Velocity":60,"Duration":722803,"SoundDuration":722803,"Delta":216122598},{"NoteNumber":56,"Velocity":46,"Duration":343331,"SoundDuration":343331,"Delta":216484000},{"NoteNumber":56,"Velocity":47,"Duration":343331,"SoundDuration":343331,"Delta":216845402},{"NoteNumber":61,"Velocity":47,"Duration":1401731,"SoundDuration":1401731,"Delta":216845402},{"NoteNumber":64,"Velocity":56,"Duration":1401731,"SoundDuration":1401731,"Delta":216845402},{"NoteNumber":70,"Velocity":67,"Duration":1401731,"SoundDuration":1401731,"Delta":216845402},{"NoteNumber":32,"Velocity":42,"Duration":2092736,"SoundDuration":2092736,"Delta":216845402},{"NoteNumber":44,"Velocity":50,"Duration":2092736,"SoundDuration":2092736,"Delta":216845402},{"NoteNumber":56,"Velocity":46,"Duration":331858,"SoundDuration":331858,"Delta":217206804},{"NoteNumber":56,"Velocity":44,"Duration":328227,"SoundDuration":328227,"Delta":217556129},{"NoteNumber":56,"Velocity":42,"Duration":328227,"SoundDuration":328227,"Delta":217901631},{"NoteNumber":56,"Velocity":41,"Duration":328227,"SoundDuration":328227,"Delta":218247134},{"NoteNumber":60,"Velocity":44,"Duration":691005,"SoundDuration":691005,"Delta":218247134},{"NoteNumber":63,"Velocity":50,"Duration":691005,"SoundDuration":691005,"Delta":218247134},{"NoteNumber":68,"Velocity":60,"Duration":691005,"SoundDuration":691005,"Delta":218247134},{"NoteNumber":56,"Velocity":40,"Duration":328227,"SoundDuration":328227,"Delta":218592636},{"NoteNumber":56,"Velocity":39,"Duration":343331,"SoundDuration":343331,"Delta":218938139},{"NoteNumber":61,"Velocity":48,"Duration":724862,"SoundDuration":724862,"Delta":218938139},{"NoteNumber":64,"Velocity":48,"Duration":724862,"SoundDuration":724862,"Delta":218938139},{"NoteNumber":70,"Velocity":57,"Duration":724862,"SoundDuration":724862,"Delta":218938139},{"NoteNumber":37,"Velocity":42,"Duration":724862,"SoundDuration":724862,"Delta":218938139},{"NoteNumber":44,"Velocity":51,"Duration":724862,"SoundDuration":724862,"Delta":218938139},{"NoteNumber":56,"Velocity":39,"Duration":345287,"SoundDuration":345287,"Delta":219299541},{"NoteNumber":56,"Velocity":38,"Duration":347306,"SoundDuration":347306,"Delta":219663001},{"NoteNumber":61,"Velocity":46,"Duration":733323,"SoundDuration":733323,"Delta":219663001},{"NoteNumber":64,"Velocity":46,"Duration":733323,"SoundDuration":733323,"Delta":219663001},{"NoteNumber":70,"Velocity":55,"Duration":733323,"SoundDuration":733323,"Delta":219663001},{"NoteNumber":32,"Velocity":41,"Duration":2293248,"SoundDuration":2293248,"Delta":219663001},{"NoteNumber":44,"Velocity":49,"Duration":733323,"SoundDuration":733323,"Delta":219663001},{"NoteNumber":56,"Velocity":38,"Duration":349350,"SoundDuration":349350,"Delta":220028587},{"NoteNumber":56,"Velocity":34,"Duration":351417,"SoundDuration":351417,"Delta":220396324},{"NoteNumber":60,"Velocity":40,"Duration":742354,"SoundDuration":742354,"Delta":220396324},{"NoteNumber":63,"Velocity":40,"Duration":742354,"SoundDuration":742354,"Delta":220396324},{"NoteNumber":68,"Velocity":49,"Duration":742354,"SoundDuration":742354,"Delta":220396324},{"NoteNumber":44,"Velocity":44,"Duration":742354,"SoundDuration":742354,"Delta":220396324},{"NoteNumber":56,"Velocity":34,"Duration":353726,"SoundDuration":353726,"Delta":220766237},{"NoteNumber":56,"Velocity":37,"Duration":370129,"SoundDuration":370129,"Delta":221138679},{"NoteNumber":56,"Velocity":37,"Duration":406562,"SoundDuration":406562,"Delta":221528289},{"NoteNumber":53,"Velocity":33,"Duration":427960,"SoundDuration":427960,"Delta":221528289},{"NoteNumber":56,"Velocity":40,"Duration":431165,"SoundDuration":431165,"Delta":221956249},{"NoteNumber":54,"Velocity":37,"Duration":453857,"SoundDuration":453857,"Delta":221956249},{"NoteNumber":56,"Velocity":37,"Duration":471074,"SoundDuration":471074,"Delta":222410107},{"NoteNumber":51,"Velocity":34,"Duration":495868,"SoundDuration":495868,"Delta":222410107},{"NoteNumber":77,"Velocity":53,"Duration":604676,"SoundDuration":604676,"Delta":222905975},{"NoteNumber":49,"Velocity":35,"Duration":403117,"SoundDuration":403117,"Delta":222905975},{"NoteNumber":56,"Velocity":30,"Duration":411172,"SoundDuration":411172,"Delta":223309093},{"NoteNumber":73,"Velocity":45,"Duration":209614,"SoundDuration":209614,"Delta":223510651},{"NoteNumber":68,"Velocity":51,"Duration":1542241,"SoundDuration":1542241,"Delta":223720266},{"NoteNumber":65,"Velocity":26,"Duration":2333723,"SoundDuration":2333723,"Delta":223720266},{"NoteNumber":61,"Velocity":17,"Duration":2333723,"SoundDuration":2333723,"Delta":223720266},{"NoteNumber":56,"Velocity":19,"Duration":366512,"SoundDuration":366512,"Delta":224139494},{"NoteNumber":56,"Velocity":23,"Duration":359848,"SoundDuration":359848,"Delta":224525297},{"NoteNumber":56,"Velocity":19,"Duration":340501,"SoundDuration":340501,"Delta":224904085},{"NoteNumber":70,"Velocity":50,"Duration":791482,"SoundDuration":791482,"Delta":225262508},{"NoteNumber":56,"Velocity":27,"Duration":366512,"SoundDuration":366512,"Delta":225262508},{"NoteNumber":56,"Velocity":28,"Duration":385395,"SoundDuration":385395,"Delta":225648310},{"NoteNumber":72,"Velocity":51,"Duration":2295648,"SoundDuration":2295648,"Delta":226053990},{"NoteNumber":66,"Velocity":35,"Duration":2295648,"SoundDuration":2295648,"Delta":226053990},{"NoteNumber":63,"Velocity":35,"Duration":2295648,"SoundDuration":2295648,"Delta":226053990},{"NoteNumber":56,"Velocity":26,"Duration":371045,"SoundDuration":371045,"Delta":226459669},{"NoteNumber":56,"Velocity":28,"Duration":347137,"SoundDuration":347137,"Delta":226850243},{"NoteNumber":56,"Velocity":32,"Duration":357590,"SoundDuration":357590,"Delta":227215651},{"NoteNumber":58,"Velocity":35,"Duration":378787,"SoundDuration":378787,"Delta":227592063},{"NoteNumber":56,"Velocity":32,"Duration":378788,"SoundDuration":378788,"Delta":227970851},{"NoteNumber":73,"Velocity":51,"Duration":814132,"SoundDuration":814132,"Delta":228349639},{"NoteNumber":65,"Velocity":35,"Duration":403117,"SoundDuration":403117,"Delta":228349639},{"NoteNumber":61,"Velocity":35,"Duration":403117,"SoundDuration":403117,"Delta":228349639},{"NoteNumber":56,"Velocity":31,"Duration":411014,"SoundDuration":411014,"Delta":228752756},{"NoteNumber":60,"Velocity":45,"Duration":2380656,"SoundDuration":2380656,"Delta":229163771},{"NoteNumber":66,"Velocity":45,"Duration":596975,"SoundDuration":596975,"Delta":229163771},{"NoteNumber":75,"Velocity":54,"Duration":596975,"SoundDuration":596975,"Delta":229163771},{"NoteNumber":56,"Velocity":32,"Duration":815514,"SoundDuration":815514,"Delta":229561755},{"NoteNumber":68,"Velocity":47,"Duration":205507,"SoundDuration":205507,"Delta":229760746},{"NoteNumber":77,"Velocity":56,"Duration":205507,"SoundDuration":205507,"Delta":229760746},{"NoteNumber":70,"Velocity":49,"Duration":1578173,"SoundDuration":1578173,"Delta":229966254},{"NoteNumber":78,"Velocity":57,"Duration":1578173,"SoundDuration":1578173,"Delta":229966254},{"NoteNumber":56,"Velocity":35,"Duration":373378,"SoundDuration":373378,"Delta":230377269},{"NoteNumber":56,"Velocity":32,"Duration":373378,"SoundDuration":373378,"Delta":230770299},{"NoteNumber":56,"Velocity":32,"Duration":779081,"SoundDuration":779081,"Delta":231163330},{"NoteNumber":61,"Velocity":44,"Duration":397983,"SoundDuration":397983,"Delta":231544427},{"NoteNumber":68,"Velocity":44,"Duration":397983,"SoundDuration":397983,"Delta":231544427},{"NoteNumber":77,"Velocity":53,"Duration":811662,"SoundDuration":811662,"Delta":231544427},{"NoteNumber":56,"Velocity":29,"Duration":413679,"SoundDuration":413679,"Delta":231942411},{"NoteNumber":60,"Velocity":44,"Duration":1562351,"SoundDuration":1562351,"Delta":232356090},{"NoteNumber":68,"Velocity":44,"Duration":390212,"SoundDuration":390212,"Delta":232356090},{"NoteNumber":77,"Velocity":53,"Duration":1161817,"SoundDuration":1161817,"Delta":232356090},{"NoteNumber":56,"Velocity":31,"Duration":385802,"SoundDuration":385802,"Delta":232746303},{"NoteNumber":66,"Velocity":34,"Duration":385802,"SoundDuration":385802,"Delta":233132105},{"NoteNumber":75,"Velocity":49,"Duration":400533,"SoundDuration":400533,"Delta":233517908},{"NoteNumber":56,"Velocity":31,"Duration":400533,"SoundDuration":400533,"Delta":233517908},{"NoteNumber":73,"Velocity":46,"Duration":632933,"SoundDuration":632933,"Delta":233918442},{"NoteNumber":65,"Velocity":35,"Duration":415542,"SoundDuration":415542,"Delta":233918442},{"NoteNumber":61,"Velocity":29,"Duration":415542,"SoundDuration":415542,"Delta":233918442},{"NoteNumber":56,"Velocity":31,"Duration":448107,"SoundDuration":448107,"Delta":234333984},{"NoteNumber":74,"Velocity":45,"Duration":230716,"SoundDuration":230716,"Delta":234551375},{"NoteNumber":75,"Velocity":51,"Duration":98360,"SoundDuration":98360,"Delta":234782091},{"NoteNumber":66,"Velocity":32,"Duration":488487,"SoundDuration":488487,"Delta":234782091},{"NoteNumber":60,"Velocity":27,"Duration":488487,"SoundDuration":488487,"Delta":234782091},{"NoteNumber":77,"Velocity":45,"Duration":98360,"SoundDuration":98360,"Delta":234880452},{"NoteNumber":75,"Velocity":46,"Duration":97627,"SoundDuration":97627,"Delta":234978813},{"NoteNumber":74,"Velocity":44,"Duration":97364,"SoundDuration":97364,"Delta":235076440},{"NoteNumber":75,"Velocity":45,"Duration":96774,"SoundDuration":96774,"Delta":235173805},{"NoteNumber":76,"Velocity":46,"Duration":97563,"SoundDuration":97563,"Delta":235270579},{"NoteNumber":56,"Velocity":31,"Duration":602805,"SoundDuration":602805,"Delta":235270579},{"NoteNumber":77,"Velocity":51,"Duration":107541,"SoundDuration":107541,"Delta":235368143},{"NoteNumber":80,"Velocity":55,"Duration":118834,"SoundDuration":118834,"Delta":235475685},{"NoteNumber":79,"Velocity":53,"Duration":131533,"SoundDuration":131533,"Delta":235594519},{"NoteNumber":78,"Velocity":51,"Duration":147332,"SoundDuration":147332,"Delta":235726052},{"NoteNumber":77,"Velocity":49,"Duration":616438,"SoundDuration":616438,"Delta":235873384},{"NoteNumber":49,"Velocity":35,"Duration":410958,"SoundDuration":410958,"Delta":235873384},{"NoteNumber":56,"Velocity":30,"Duration":415093,"SoundDuration":415093,"Delta":236284343},{"NoteNumber":73,"Velocity":44,"Duration":209614,"SoundDuration":209614,"Delta":236489823},{"NoteNumber":68,"Velocity":46,"Duration":1555889,"SoundDuration":1555889,"Delta":236699437},{"NoteNumber":65,"Velocity":26,"Duration":2347371,"SoundDuration":2347371,"Delta":236699437},{"NoteNumber":61,"Velocity":18,"Duration":2347371,"SoundDuration":2347371,"Delta":236699437},{"NoteNumber":56,"Velocity":20,"Duration":366512,"SoundDuration":366512,"Delta":237118665},{"NoteNumber":56,"Velocity":24,"Duration":359848,"SoundDuration":359848,"Delta":237504468},{"NoteNumber":56,"Velocity":21,"Duration":353466,"SoundDuration":353466,"Delta":237883256},{"NoteNumber":70,"Velocity":51,"Duration":791482,"SoundDuration":791482,"Delta":238255326},{"NoteNumber":56,"Velocity":30,"Duration":366512,"SoundDuration":366512,"Delta":238255326},{"NoteNumber":56,"Velocity":28,"Duration":385395,"SoundDuration":385395,"Delta":238641128},{"NoteNumber":72,"Velocity":49,"Duration":2309043,"SoundDuration":2309043,"Delta":239046808},{"NoteNumber":66,"Velocity":35,"Duration":405679,"SoundDuration":405679,"Delta":239046808},{"NoteNumber":63,"Velocity":35,"Duration":405679,"SoundDuration":405679,"Delta":239046808},{"NoteNumber":56,"Velocity":31,"Duration":364263,"SoundDuration":364263,"Delta":239452487},{"NoteNumber":56,"Velocity":29,"Duration":364263,"SoundDuration":364263,"Delta":239835923},{"NoteNumber":56,"Velocity":33,"Duration":355583,"SoundDuration":355583,"Delta":240219358},{"NoteNumber":58,"Velocity":38,"Duration":381097,"SoundDuration":381097,"Delta":240593656},{"NoteNumber":56,"Velocity":35,"Duration":381097,"SoundDuration":381097,"Delta":240974754},{"NoteNumber":82,"Velocity":63,"Duration":1636162,"SoundDuration":1636162,"Delta":241355851},{"NoteNumber":80,"Velocity":55,"Duration":790931,"SoundDuration":790931,"Delta":242992014},{"NoteNumber":78,"Velocity":54,"Duration":801067,"SoundDuration":801067,"Delta":243782945},{"NoteNumber":72,"Velocity":47,"Duration":827358,"SoundDuration":827358,"Delta":244584013},{"NoteNumber":77,"Velocity":53,"Duration":795966,"SoundDuration":795966,"Delta":245411371},{"NoteNumber":75,"Velocity":50,"Duration":798977,"SoundDuration":798977,"Delta":246207338},{"NoteNumber":73,"Velocity":46,"Duration":816218,"SoundDuration":816218,"Delta":247006315},{"NoteNumber":70,"Velocity":44,"Duration":845010,"SoundDuration":845010,"Delta":247822533},{"NoteNumber":58,"Velocity":37,"Duration":1633319,"SoundDuration":1633319,"Delta":248667544},{"NoteNumber":63,"Velocity":37,"Duration":3286086,"SoundDuration":3286086,"Delta":248667544},{"NoteNumber":66,"Velocity":37,"Duration":3286086,"SoundDuration":3286086,"Delta":248667544},{"NoteNumber":44,"Velocity":36,"Duration":3286086,"SoundDuration":3286086,"Delta":248667544},{"NoteNumber":56,"Velocity":29,"Duration":387913,"SoundDuration":387913,"Delta":249075874},{"NoteNumber":56,"Velocity":29,"Duration":387913,"SoundDuration":387913,"Delta":249484204},{"NoteNumber":56,"Velocity":29,"Duration":387913,"SoundDuration":387913,"Delta":249892534},{"NoteNumber":60,"Velocity":37,"Duration":1652766,"SoundDuration":1652766,"Delta":250300864},{"NoteNumber":56,"Velocity":29,"Duration":387913,"SoundDuration":387913,"Delta":250300864},{"NoteNumber":56,"Velocity":29,"Duration":387913,"SoundDuration":387913,"Delta":250709194},{"NoteNumber":56,"Velocity":29,"Duration":387913,"SoundDuration":387913,"Delta":251117524},{"NoteNumber":56,"Velocity":29,"Duration":406388,"SoundDuration":406388,"Delta":251525854},{"NoteNumber":61,"Velocity":37,"Duration":2041650,"SoundDuration":2041650,"Delta":251953631},{"NoteNumber":65,"Velocity":37,"Duration":3288437,"SoundDuration":3288437,"Delta":251953631},{"NoteNumber":56,"Velocity":36,"Duration":387913,"SoundDuration":387913,"Delta":251953631},{"NoteNumber":49,"Velocity":36,"Duration":3288437,"SoundDuration":3288437,"Delta":251953631},{"NoteNumber":56,"Velocity":29,"Duration":387913,"SoundDuration":387913,"Delta":252361961},{"NoteNumber":56,"Velocity":29,"Duration":387913,"SoundDuration":387913,"Delta":252770291},{"NoteNumber":56,"Velocity":29,"Duration":387913,"SoundDuration":387913,"Delta":253178621},{"NoteNumber":56,"Velocity":29,"Duration":387913,"SoundDuration":387913,"Delta":253586951},{"NoteNumber":61,"Velocity":41,"Duration":408330,"SoundDuration":408330,"Delta":253995281},{"NoteNumber":56,"Velocity":29,"Duration":387913,"SoundDuration":387913,"Delta":253995281},{"NoteNumber":63,"Velocity":44,"Duration":628842,"SoundDuration":628842,"Delta":254403611},{"NoteNumber":56,"Velocity":29,"Duration":398267,"SoundDuration":398267,"Delta":254403611},{"NoteNumber":56,"Velocity":29,"Duration":398267,"SoundDuration":398267,"Delta":254822840},{"NoteNumber":61,"Velocity":41,"Duration":209614,"SoundDuration":209614,"Delta":255032454},{"NoteNumber":61,"Velocity":45,"Duration":816659,"SoundDuration":816659,"Delta":255242068},{"NoteNumber":63,"Velocity":34,"Duration":3309486,"SoundDuration":3309486,"Delta":255242068},{"NoteNumber":66,"Velocity":39,"Duration":3309486,"SoundDuration":3309486,"Delta":255242068},{"NoteNumber":56,"Velocity":36,"Duration":387913,"SoundDuration":387913,"Delta":255242068},{"NoteNumber":44,"Velocity":36,"Duration":3309486,"SoundDuration":3309486,"Delta":255242068},{"NoteNumber":56,"Velocity":29,"Duration":387913,"SoundDuration":387913,"Delta":255650398},{"NoteNumber":60,"Velocity":44,"Duration":827358,"SoundDuration":827358,"Delta":256058728},{"NoteNumber":56,"Velocity":29,"Duration":392995,"SoundDuration":392995,"Delta":256058728},{"NoteNumber":56,"Velocity":29,"Duration":392995,"SoundDuration":392995,"Delta":256472407},{"NoteNumber":70,"Velocity":46,"Duration":811358,"SoundDuration":811358,"Delta":256886086},{"NoteNumber":56,"Velocity":27,"Duration":385395,"SoundDuration":385395,"Delta":256886086},{"NoteNumber":56,"Velocity":27,"Duration":385395,"SoundDuration":385395,"Delta":257291766},{"NoteNumber":60,"Velocity":40,"Duration":854109,"SoundDuration":854109,"Delta":257697445},{"NoteNumber":56,"Velocity":26,"Duration":385395,"SoundDuration":385395,"Delta":257697445},{"NoteNumber":56,"Velocity":26,"Duration":426008,"SoundDuration":426008,"Delta":258103125},{"NoteNumber":60,"Velocity":31,"Duration":3429434,"SoundDuration":3429434,"Delta":258551555},{"NoteNumber":63,"Velocity":31,"Duration":3429434,"SoundDuration":3429434,"Delta":258551555},{"NoteNumber":66,"Velocity":37,"Duration":3429434,"SoundDuration":3429434,"Delta":258551555},{"NoteNumber":56,"Velocity":26,"Duration":431165,"SoundDuration":431165,"Delta":258551555},{"NoteNumber":44,"Velocity":29,"Duration":3429434,"SoundDuration":3429434,"Delta":258551555},{"NoteNumber":56,"Velocity":26,"Duration":397489,"SoundDuration":397489,"Delta":259005413},{"NoteNumber":56,"Velocity":26,"Duration":397489,"SoundDuration":397489,"Delta":259423823},{"NoteNumber":56,"Velocity":26,"Duration":397489,"SoundDuration":397489,"Delta":259842233},{"NoteNumber":56,"Velocity":26,"Duration":397489,"SoundDuration":397489,"Delta":260260643},{"NoteNumber":56,"Velocity":26,"Duration":397489,"SoundDuration":397489,"Delta":260679053},{"NoteNumber":56,"Velocity":26,"Duration":397489,"SoundDuration":397489,"Delta":261097463},{"NoteNumber":56,"Velocity":26,"Duration":441860,"SoundDuration":441860,"Delta":261515873},{"NoteNumber":61,"Velocity":27,"Duration":3976387,"SoundDuration":3976387,"Delta":261980990},{"NoteNumber":65,"Velocity":34,"Duration":3976387,"SoundDuration":3976387,"Delta":261980990},{"NoteNumber":56,"Velocity":26,"Duration":416058,"SoundDuration":416058,"Delta":261980990},{"NoteNumber":49,"Velocity":30,"Duration":1751823,"SoundDuration":1751823,"Delta":261980990},{"NoteNumber":56,"Velocity":26,"Duration":416058,"SoundDuration":416058,"Delta":262418946},{"NoteNumber":56,"Velocity":26,"Duration":416058,"SoundDuration":416058,"Delta":262856902},{"NoteNumber":56,"Velocity":26,"Duration":416058,"SoundDuration":416058,"Delta":263294858},{"NoteNumber":56,"Velocity":26,"Duration":433412,"SoundDuration":433412,"Delta":263732814},{"NoteNumber":44,"Velocity":26,"Duration":2224563,"SoundDuration":2224563,"Delta":263732814},{"NoteNumber":56,"Velocity":26,"Duration":439942,"SoundDuration":439942,"Delta":264189197},{"NoteNumber":56,"Velocity":26,"Duration":489561,"SoundDuration":489561,"Delta":264652687},{"NoteNumber":56,"Velocity":26,"Duration":741469,"SoundDuration":741469,"Delta":265169976},{"NoteNumber":56,"Velocity":23,"Duration":4192139,"SoundDuration":4192139,"Delta":265957377},{"NoteNumber":61,"Velocity":23,"Duration":4192139,"SoundDuration":4192139,"Delta":265957377},{"NoteNumber":65,"Velocity":27,"Duration":4192139,"SoundDuration":4192139,"Delta":265957377},{"NoteNumber":37,"Velocity":24,"Duration":4192139,"SoundDuration":4192139,"Delta":265957377}],"license":{"name":"Creative Commons Attribution-ShareAlike 3.0 Germany","url":"http://creativecommons.org/licenses/by-sa/3.0/de/deed.en","text":"The MIDI, audio (MP3, OGG) and video files of Bernd Krueger are licensed under the cc-by-sa Germany License. This means that you can use and adapt the files, as long as you attribute the copyright holder.\n\nName: Bernd Krueger\nSource: http://www.piano-midi.de\n\nThe distribution or public playback of the files is only allowed under identical license conditions.\n\nThe scores are open source.","attribution":"MIDI files by Bernd Krueger (piano-midi.de)"}}