{"title":"Prelude No. 1, Opus 28","artist":"Chopin","durationMs":29436,"midiSha256":"f374533c5a048f66474bb2fb8f180a393492e4dbc9daf1f3686d1e90deba57e4","midiObject":[{"NoteNumber":36,"Velocity":46,"Duration":142389,"SoundDuration":142389,"Delta":0},{"NoteNumber":55,"Velocity":36,"Duration":557400,"SoundDuration":557400,"Delta":142389},{"NoteNumber":43,"Velocity":30,"Duration":141299,"SoundDuration":141299,"Delta":142389},{"NoteNumber":60,"Velocity":49,"Duration":138366,"SoundDuration":138366,"Delta":283689},{"NoteNumber":52,"Velocity":36,"Duration":138366,"SoundDuration":138366,"Delta":283689},{"NoteNumber":67,"Velocity":53,"Duration":277734,"SoundDuration":277734,"Delta":422055},{"NoteNumber":64,"Velocity":33,"Duration":139295,"SoundDuration":139295,"Delta":422055},{"NoteNumber":60,"Velocity":43,"Duration":138439,"SoundDuration":138439,"Delta":561351},{"NoteNumber":69,"Velocity":43,"Duration":134228,"SoundDuration":134228,"Delta":699790},{"NoteNumber":57,"Velocity":27,"Duration":134228,"SoundDuration":134228,"Delta":699790},{"NoteNumber":35,"Velocity":51,"Duration":136660,"SoundDuration":136660,"Delta":834018},{"NoteNumber":55,"Velocity":47,"Duration":539519,"SoundDuration":539519,"Delta":970678},{"NoteNumber":43,"Velocity":38,"Duration":135410,"SoundDuration":135410,"Delta":970678},{"NoteNumber":62,"Velocity":51,"Duration":133383,"SoundDuration":133383,"Delta":1106089},{"NoteNumber":53,"Velocity":36,"Duration":133383,"SoundDuration":133383,"Delta":1106089},{"NoteNumber":67,"Velocity":59,"Duration":270725,"SoundDuration":270725,"Delta":1239472},{"NoteNumber":65,"Velocity":40,"Duration":136411,"SoundDuration":136411,"Delta":1239472},{"NoteNumber":62,"Velocity":47,"Duration":134314,"SoundDuration":134314,"Delta":1375883},{"NoteNumber":69,"Velocity":45,"Duration":129241,"SoundDuration":129241,"Delta":1510198},{"NoteNumber":57,"Velocity":33,"Duration":129241,"SoundDuration":129241,"Delta":1510198},{"NoteNumber":36,"Velocity":53,"Duration":132717,"SoundDuration":132717,"Delta":1639440},{"NoteNumber":55,"Velocity":56,"Duration":515151,"SoundDuration":515151,"Delta":1772157},{"NoteNumber":43,"Velocity":47,"Duration":130256,"SoundDuration":130256,"Delta":1772157},{"NoteNumber":60,"Velocity":59,"Duration":127920,"SoundDuration":127920,"Delta":1902413},{"NoteNumber":52,"Velocity":47,"Duration":127920,"SoundDuration":127920,"Delta":1902413},{"NoteNumber":67,"Velocity":67,"Duration":256974,"SoundDuration":256974,"Delta":2030334},{"NoteNumber":64,"Velocity":46,"Duration":129456,"SoundDuration":129456,"Delta":2030334},{"NoteNumber":60,"Velocity":61,"Duration":127517,"SoundDuration":127517,"Delta":2159791},{"NoteNumber":69,"Velocity":65,"Duration":125487,"SoundDuration":125487,"Delta":2287309},{"NoteNumber":57,"Velocity":52,"Duration":125487,"SoundDuration":125487,"Delta":2287309},{"NoteNumber":40,"Velocity":79,"Duration":127796,"SoundDuration":127796,"Delta":2412796},{"NoteNumber":59,"Velocity":66,"Duration":502506,"SoundDuration":502506,"Delta":2540593},{"NoteNumber":52,"Velocity":55,"Duration":125788,"SoundDuration":125788,"Delta":2540593},{"NoteNumber":64,"Velocity":70,"Duration":124226,"SoundDuration":124226,"Delta":2666382},{"NoteNumber":55,"Velocity":56,"Duration":124226,"SoundDuration":124226,"Delta":2666382},{"NoteNumber":71,"Velocity":75,"Duration":252491,"SoundDuration":252491,"Delta":2790608},{"NoteNumber":67,"Velocity":52,"Duration":126594,"SoundDuration":126594,"Delta":2790608},{"NoteNumber":64,"Velocity":70,"Duration":125897,"SoundDuration":125897,"Delta":2917203},{"NoteNumber":72,"Velocity":78,"Duration":121266,"SoundDuration":121266,"Delta":3043100},{"NoteNumber":60,"Velocity":62,"Duration":121266,"SoundDuration":121266,"Delta":3043100},{"NoteNumber":41,"Velocity":84,"Duration":125002,"SoundDuration":125002,"Delta":3164367},{"NoteNumber":64,"Velocity":79,"Duration":494059,"SoundDuration":494059,"Delta":3289369},{"NoteNumber":52,"Velocity":68,"Duration":123459,"SoundDuration":123459,"Delta":3289369},{"NoteNumber":69,"Velocity":75,"Duration":121953,"SoundDuration":121953,"Delta":3412828},{"NoteNumber":57,"Velocity":59,"Duration":121953,"SoundDuration":121953,"Delta":3412828},{"NoteNumber":76,"Velocity":80,"Duration":248646,"SoundDuration":248646,"Delta":3534782},{"NoteNumber":72,"Velocity":58,"Duration":122154,"SoundDuration":122154,"Delta":3534782},{"NoteNumber":69,"Velocity":75,"Duration":126492,"SoundDuration":126492,"Delta":3656936},{"NoteNumber":62,"Velocity":80,"Duration":125219,"SoundDuration":125219,"Delta":3783429},{"NoteNumber":74,"Velocity":80,"Duration":125219,"SoundDuration":125219,"Delta":3783429},{"NoteNumber":42,"Velocity":91,"Duration":127796,"SoundDuration":127796,"Delta":3908648},{"NoteNumber":64,"Velocity":86,"Duration":516455,"SoundDuration":516455,"Delta":4036445},{"NoteNumber":50,"Velocity":75,"Duration":126383,"SoundDuration":126383,"Delta":4036445},{"NoteNumber":69,"Velocity":82,"Duration":125523,"SoundDuration":125523,"Delta":4162828},{"NoteNumber":60,"Velocity":64,"Duration":125523,"SoundDuration":125523,"Delta":4162828},{"NoteNumber":76,"Velocity":88,"Duration":264548,"SoundDuration":264548,"Delta":4288351},{"NoteNumber":72,"Velocity":61,"Duration":130826,"SoundDuration":130826,"Delta":4288351},{"NoteNumber":69,"Velocity":82,"Duration":133721,"SoundDuration":133721,"Delta":4419178},{"NoteNumber":62,"Velocity":84,"Duration":145581,"SoundDuration":145581,"Delta":4552900},{"NoteNumber":74,"Velocity":84,"Duration":145581,"SoundDuration":145581,"Delta":4552900},{"NoteNumber":43,"Velocity":97,"Duration":139191,"SoundDuration":139191,"Delta":4698481},{"NoteNumber":64,"Velocity":86,"Duration":557439,"SoundDuration":557439,"Delta":4837673},{"NoteNumber":53,"Velocity":79,"Duration":137798,"SoundDuration":137798,"Delta":4837673},{"NoteNumber":67,"Velocity":82,"Duration":136367,"SoundDuration":136367,"Delta":4975471},{"NoteNumber":59,"Velocity":67,"Duration":136367,"SoundDuration":136367,"Delta":4975471},{"NoteNumber":76,"Velocity":88,"Duration":283273,"SoundDuration":283273,"Delta":5111839},{"NoteNumber":71,"Velocity":55,"Duration":138291,"SoundDuration":138291,"Delta":5111839},{"NoteNumber":67,"Velocity":74,"Duration":144982,"SoundDuration":144982,"Delta":5250130},{"NoteNumber":62,"Velocity":67,"Duration":147665,"SoundDuration":147665,"Delta":5395113},{"NoteNumber":74,"Velocity":82,"Duration":147665,"SoundDuration":147665,"Delta":5395113},{"NoteNumber":31,"Velocity":58,"Duration":149551,"SoundDuration":149551,"Delta":5542778},{"NoteNumber":59,"Velocity":50,"Duration":575726,"SoundDuration":575726,"Delta":5692329},{"NoteNumber":43,"Velocity":42,"Duration":143793,"SoundDuration":143793,"Delta":5692329},{"NoteNumber":62,"Velocity":56,"Duration":138949,"SoundDuration":138949,"Delta":5836123},{"NoteNumber":53,"Velocity":38,"Duration":138949,"SoundDuration":138949,"Delta":5836123},{"NoteNumber":71,"Velocity":59,"Duration":292982,"SoundDuration":292982,"Delta":5975073},{"NoteNumber":65,"Velocity":41,"Duration":144114,"SoundDuration":144114,"Delta":5975073},{"NoteNumber":62,"Velocity":50,"Duration":148868,"SoundDuration":148868,"Delta":6119187},{"NoteNumber":69,"Velocity":47,"Duration":149253,"SoundDuration":149253,"Delta":6268056},{"NoteNumber":57,"Velocity":39,"Duration":149253,"SoundDuration":149253,"Delta":6268056},{"NoteNumber":36,"Velocity":51,"Duration":136829,"SoundDuration":136829,"Delta":6417309},{"NoteNumber":55,"Velocity":44,"Duration":544374,"SoundDuration":544374,"Delta":6554139},{"NoteNumber":43,"Velocity":37,"Duration":135370,"SoundDuration":135370,"Delta":6554139},{"NoteNumber":60,"Velocity":53,"Duration":133866,"SoundDuration":133866,"Delta":6689510},{"NoteNumber":52,"Velocity":39,"Duration":133866,"SoundDuration":133866,"Delta":6689510},{"NoteNumber":67,"Velocity":60,"Duration":275136,"SoundDuration":275136,"Delta":6823377},{"NoteNumber":64,"Velocity":36,"Duration":139295,"SoundDuration":139295,"Delta":6823377},{"NoteNumber":60,"Velocity":51,"Duration":135841,"SoundDuration":135841,"Delta":6962672},{"NoteNumber":69,"Velocity":45,"Duration":129032,"SoundDuration":129032,"Delta":7098514},{"NoteNumber":57,"Velocity":38,"Duration":129032,"SoundDuration":129032,"Delta":7098514},{"NoteNumber":35,"Velocity":53,"Duration":134228,"SoundDuration":134228,"Delta":7227546},{"NoteNumber":55,"Velocity":51,"Duration":535286,"SoundDuration":535286,"Delta":7361774},{"NoteNumber":43,"Velocity":42,"Duration":133557,"SoundDuration":133557,"Delta":7361774},{"NoteNumber":62,"Velocity":58,"Duration":132626,"SoundDuration":132626,"Delta":7495331},{"NoteNumber":53,"Velocity":44,"Duration":132626,"SoundDuration":132626,"Delta":7495331},{"NoteNumber":67,"Velocity":61,"Duration":269102,"SoundDuration":269102,"Delta":7627958},{"NoteNumber":65,"Velocity":45,"Duration":136411,"SoundDuration":136411,"Delta":7627958},{"NoteNumber":62,"Velocity":58,"Duration":132691,"SoundDuration":132691,"Delta":7764369},{"NoteNumber":69,"Velocity":51,"Duration":125786,"SoundDuration":125786,"Delta":7897061},{"NoteNumber":57,"Velocity":44,"Duration":125786,"SoundDuration":125786,"Delta":7897061},{"NoteNumber":36,"Velocity":63,"Duration":129870,"SoundDuration":129870,"Delta":8022847},{"NoteNumber":55,"Velocity":60,"Duration":521117,"SoundDuration":521117,"Delta":8152717},{"NoteNumber":43,"Velocity":50,"Duration":129870,"SoundDuration":129870,"Delta":8152717},{"NoteNumber":60,"Velocity":64,"Duration":129844,"SoundDuration":129844,"Delta":8282587},{"NoteNumber":52,"Velocity":63,"Duration":129844,"SoundDuration":129844,"Delta":8282587},{"NoteNumber":67,"Velocity":72,"Duration":261402,"SoundDuration":261402,"Delta":8412432},{"NoteNumber":64,"Velocity":49,"Duration":132226,"SoundDuration":132226,"Delta":8412432},{"NoteNumber":60,"Velocity":66,"Duration":129175,"SoundDuration":129175,"Delta":8544659},{"NoteNumber":69,"Velocity":62,"Duration":126141,"SoundDuration":126141,"Delta":8673834},{"NoteNumber":57,"Velocity":50,"Duration":126141,"SoundDuration":126141,"Delta":8673834},{"NoteNumber":40,"Velocity":79,"Duration":128205,"SoundDuration":128205,"Delta":8799976},{"NoteNumber":59,"Velocity":66,"Duration":518395,"SoundDuration":518395,"Delta":8928181},{"NoteNumber":52,"Velocity":66,"Duration":128000,"SoundDuration":128000,"Delta":8928181},{"NoteNumber":64,"Velocity":70,"Duration":129026,"SoundDuration":129026,"Delta":9056182},{"NoteNumber":55,"Velocity":56,"Duration":129026,"SoundDuration":129026,"Delta":9056182},{"NoteNumber":71,"Velocity":75,"Duration":261368,"SoundDuration":261368,"Delta":9185209},{"NoteNumber":67,"Velocity":52,"Duration":132346,"SoundDuration":132346,"Delta":9185209},{"NoteNumber":64,"Velocity":70,"Duration":129021,"SoundDuration":129021,"Delta":9317555},{"NoteNumber":72,"Velocity":69,"Duration":121212,"SoundDuration":121212,"Delta":9446577},{"NoteNumber":60,"Velocity":55,"Duration":121212,"SoundDuration":121212,"Delta":9446577},{"NoteNumber":41,"Velocity":84,"Duration":128205,"SoundDuration":128205,"Delta":9567789},{"NoteNumber":61,"Velocity":69,"Duration":513104,"SoundDuration":513104,"Delta":9695994},{"NoteNumber":48,"Velocity":69,"Duration":127592,"SoundDuration":127592,"Delta":9695994},{"NoteNumber":65,"Velocity":75,"Duration":126985,"SoundDuration":126985,"Delta":9823587},{"NoteNumber":57,"Velocity":60,"Duration":126985,"SoundDuration":126985,"Delta":9823587},{"NoteNumber":73,"Velocity":80,"Duration":258526,"SoundDuration":258526,"Delta":9950572},{"NoteNumber":69,"Velocity":55,"Duration":128624,"SoundDuration":128624,"Delta":9950572},{"NoteNumber":65,"Velocity":75,"Duration":129902,"SoundDuration":129902,"Delta":10079196},{"NoteNumber":62,"Velocity":58,"Duration":127831,"SoundDuration":127831,"Delta":10209099},{"NoteNumber":74,"Velocity":73,"Duration":127831,"SoundDuration":127831,"Delta":10209099},{"NoteNumber":43,"Velocity":89,"Duration":127388,"SoundDuration":127388,"Delta":10336930},{"NoteNumber":63,"Velocity":72,"Duration":508377,"SoundDuration":508377,"Delta":10464319},{"NoteNumber":48,"Velocity":72,"Duration":126783,"SoundDuration":126783,"Delta":10464319},{"NoteNumber":67,"Velocity":78,"Duration":126184,"SoundDuration":126184,"Delta":10591103},{"NoteNumber":58,"Velocity":61,"Duration":126184,"SoundDuration":126184,"Delta":10591103},{"NoteNumber":75,"Velocity":82,"Duration":255409,"SoundDuration":255409,"Delta":10717287},{"NoteNumber":72,"Velocity":57,"Duration":128207,"SoundDuration":128207,"Delta":10717287},{"NoteNumber":67,"Velocity":78,"Duration":127201,"SoundDuration":127201,"Delta":10845495},{"NoteNumber":76,"Velocity":78,"Duration":124960,"SoundDuration":124960,"Delta":10972697},{"NoteNumber":64,"Velocity":61,"Duration":124960,"SoundDuration":124960,"Delta":10972697},{"NoteNumber":45,"Velocity":91,"Duration":128680,"SoundDuration":128680,"Delta":11097657},{"NoteNumber":67,"Velocity":75,"Duration":510541,"SoundDuration":510541,"Delta":11226338},{"NoteNumber":53,"Velocity":75,"Duration":127653,"SoundDuration":127653,"Delta":11226338},{"NoteNumber":69,"Velocity":80,"Duration":126503,"SoundDuration":126503,"Delta":11353992},{"NoteNumber":60,"Velocity":58,"Duration":126503,"SoundDuration":126503,"Delta":11353992},{"NoteNumber":79,"Velocity":86,"Duration":256384,"SoundDuration":256384,"Delta":11480495},{"NoteNumber":72,"Velocity":60,"Duration":126464,"SoundDuration":126464,"Delta":11480495},{"NoteNumber":69,"Velocity":75,"Duration":129919,"SoundDuration":129919,"Delta":11606960},{"NoteNumber":65,"Velocity":63,"Duration":131358,"SoundDuration":131358,"Delta":11736879},{"NoteNumber":77,"Velocity":81,"Duration":131358,"SoundDuration":131358,"Delta":11736879},{"NoteNumber":43,"Velocity":91,"Duration":126582,"SoundDuration":126582,"Delta":11868238},{"NoteNumber":63,"Velocity":91,"Duration":504083,"SoundDuration":504083,"Delta":11994820},{"NoteNumber":48,"Velocity":78,"Duration":126044,"SoundDuration":126044,"Delta":11994820},{"NoteNumber":67,"Velocity":82,"Duration":125452,"SoundDuration":125452,"Delta":12120865},{"NoteNumber":60,"Velocity":61,"Duration":125452,"SoundDuration":125452,"Delta":12120865},{"NoteNumber":75,"Velocity":91,"Duration":252586,"SoundDuration":252586,"Delta":12246317},{"NoteNumber":72,"Velocity":61,"Duration":126065,"SoundDuration":126065,"Delta":12246317},{"NoteNumber":67,"Velocity":79,"Duration":126520,"SoundDuration":126520,"Delta":12372382},{"NoteNumber":64,"Velocity":66,"Duration":121951,"SoundDuration":121951,"Delta":12498903},{"NoteNumber":76,"Velocity":86,"Duration":121951,"SoundDuration":121951,"Delta":12498903},{"NoteNumber":45,"Velocity":92,"Duration":126985,"SoundDuration":126985,"Delta":12620855},{"NoteNumber":64,"Velocity":92,"Duration":508861,"SoundDuration":508861,"Delta":12747840},{"NoteNumber":53,"Velocity":77,"Duration":125002,"SoundDuration":125002,"Delta":12747840},{"NoteNumber":69,"Velocity":86,"Duration":124041,"SoundDuration":124041,"Delta":12872842},{"NoteNumber":60,"Velocity":61,"Duration":124041,"SoundDuration":124041,"Delta":12872842},{"NoteNumber":76,"Velocity":96,"Duration":259817,"SoundDuration":259817,"Delta":12996884},{"NoteNumber":72,"Velocity":63,"Duration":127802,"SoundDuration":127802,"Delta":12996884},{"NoteNumber":69,"Velocity":82,"Duration":132015,"SoundDuration":132015,"Delta":13124686},{"NoteNumber":65,"Velocity":85,"Duration":131579,"SoundDuration":131579,"Delta":13256702},{"NoteNumber":77,"Velocity":85,"Duration":131579,"SoundDuration":131579,"Delta":13256702},{"NoteNumber":66,"Velocity":97,"Duration":616821,"SoundDuration":616821,"Delta":13388281},{"NoteNumber":47,"Velocity":67,"Duration":124611,"SoundDuration":124611,"Delta":13388281},{"NoteNumber":55,"Velocity":72,"Duration":123078,"SoundDuration":123078,"Delta":13512893},{"NoteNumber":71,"Velocity":81,"Duration":182748,"SoundDuration":182748,"Delta":13574621},{"NoteNumber":62,"Velocity":74,"Duration":121399,"SoundDuration":121399,"Delta":13635971},{"NoteNumber":78,"Velocity":89,"Duration":247732,"SoundDuration":247732,"Delta":13757370},{"NoteNumber":74,"Velocity":70,"Duration":122329,"SoundDuration":122329,"Delta":13757370},{"NoteNumber":71,"Velocity":84,"Duration":125402,"SoundDuration":125402,"Delta":13879700},{"NoteNumber":67,"Velocity":62,"Duration":126383,"SoundDuration":126383,"Delta":14005103},{"NoteNumber":79,"Velocity":81,"Duration":126383,"SoundDuration":126383,"Delta":14005103},{"NoteNumber":68,"Velocity":99,"Duration":610334,"SoundDuration":610334,"Delta":14131486},{"NoteNumber":48,"Velocity":73,"Duration":123684,"SoundDuration":123684,"Delta":14131486},{"NoteNumber":55,"Velocity":80,"Duration":121214,"SoundDuration":121214,"Delta":14255171},{"NoteNumber":72,"Velocity":82,"Duration":180186,"SoundDuration":180186,"Delta":14315961},{"NoteNumber":64,"Velocity":80,"Duration":119762,"SoundDuration":119762,"Delta":14376385},{"NoteNumber":80,"Velocity":91,"Duration":245672,"SoundDuration":245672,"Delta":14496148},{"NoteNumber":76,"Velocity":72,"Duration":121031,"SoundDuration":121031,"Delta":14496148},{"NoteNumber":72,"Velocity":82,"Duration":124640,"SoundDuration":124640,"Delta":14617179},{"NoteNumber":69,"Velocity":64,"Duration":126582,"SoundDuration":126582,"Delta":14741820},{"NoteNumber":81,"Velocity":85,"Duration":126582,"SoundDuration":126582,"Delta":14741820},{"NoteNumber":70,"Velocity":100,"Duration":612101,"SoundDuration":612101,"Delta":14868403},{"NoteNumber":50,"Velocity":77,"Duration":121766,"SoundDuration":121766,"Delta":14868403},{"NoteNumber":55,"Velocity":84,"Duration":120664,"SoundDuration":120664,"Delta":14990169},{"NoteNumber":74,"Velocity":82,"Duration":179645,"SoundDuration":179645,"Delta":15050593},{"NoteNumber":65,"Velocity":84,"Duration":119404,"SoundDuration":119404,"Delta":15110834},{"NoteNumber":82,"Velocity":100,"Duration":250266,"SoundDuration":250266,"Delta":15230238},{"NoteNumber":79,"Velocity":61,"Duration":119949,"SoundDuration":119949,"Delta":15230238},{"NoteNumber":74,"Velocity":97,"Duration":130317,"SoundDuration":130317,"Delta":15350187},{"NoteNumber":71,"Velocity":67,"Duration":142828,"SoundDuration":142828,"Delta":15480505},{"NoteNumber":83,"Velocity":93,"Duration":142828,"SoundDuration":142828,"Delta":15480505},{"NoteNumber":52,"Velocity":102,"Duration":153390,"SoundDuration":153390,"Delta":15623333},{"NoteNumber":74,"Velocity":103,"Duration":581311,"SoundDuration":581311,"Delta":15776723},{"NoteNumber":60,"Velocity":90,"Duration":145526,"SoundDuration":145526,"Delta":15776723},{"NoteNumber":76,"Velocity":97,"Duration":149158,"SoundDuration":149158,"Delta":15922250},{"NoteNumber":67,"Velocity":71,"Duration":149158,"SoundDuration":149158,"Delta":15922250},{"NoteNumber":86,"Velocity":108,"Duration":286626,"SoundDuration":286626,"Delta":16071408},{"NoteNumber":79,"Velocity":82,"Duration":145297,"SoundDuration":145297,"Delta":16071408},{"NoteNumber":76,"Velocity":73,"Duration":141328,"SoundDuration":141328,"Delta":16216706},{"NoteNumber":72,"Velocity":54,"Duration":136986,"SoundDuration":136986,"Delta":16358035},{"NoteNumber":84,"Velocity":75,"Duration":136986,"SoundDuration":136986,"Delta":16358035},{"NoteNumber":42,"Velocity":74,"Duration":146522,"SoundDuration":146522,"Delta":16495021},{"NoteNumber":71,"Velocity":66,"Duration":566640,"SoundDuration":566640,"Delta":16641543},{"NoteNumber":51,"Velocity":63,"Duration":144149,"SoundDuration":144149,"Delta":16641543},{"NoteNumber":72,"Velocity":67,"Duration":141597,"SoundDuration":141597,"Delta":16785692},{"NoteNumber":60,"Velocity":50,"Duration":141597,"SoundDuration":141597,"Delta":16785692},{"NoteNumber":83,"Velocity":72,"Duration":280893,"SoundDuration":280893,"Delta":16927290},{"NoteNumber":75,"Velocity":49,"Duration":142350,"SoundDuration":142350,"Delta":16927290},{"NoteNumber":72,"Velocity":63,"Duration":138542,"SoundDuration":138542,"Delta":17069641},{"NoteNumber":69,"Velocity":50,"Duration":135393,"SoundDuration":135393,"Delta":17208183},{"NoteNumber":81,"Velocity":62,"Duration":135393,"SoundDuration":135393,"Delta":17208183},{"NoteNumber":69,"Velocity":61,"Duration":723031,"SoundDuration":723031,"Delta":17343577},{"NoteNumber":43,"Velocity":57,"Duration":146257,"SoundDuration":146257,"Delta":17343577},{"NoteNumber":52,"Velocity":61,"Duration":143631,"SoundDuration":143631,"Delta":17489834},{"NoteNumber":72,"Velocity":59,"Duration":212277,"SoundDuration":212277,"Delta":17562037},{"NoteNumber":60,"Velocity":56,"Duration":140848,"SoundDuration":140848,"Delta":17633466},{"NoteNumber":81,"Velocity":63,"Duration":292293,"SoundDuration":292293,"Delta":17774315},{"NoteNumber":76,"Velocity":41,"Duration":141879,"SoundDuration":141879,"Delta":17774315},{"NoteNumber":72,"Velocity":61,"Duration":150414,"SoundDuration":150414,"Delta":17916194},{"NoteNumber":67,"Velocity":47,"Duration":152671,"SoundDuration":152671,"Delta":18066608},{"NoteNumber":79,"Velocity":60,"Duration":152671,"SoundDuration":152671,"Delta":18066608},{"NoteNumber":43,"Velocity":59,"Duration":153911,"SoundDuration":153911,"Delta":18219280},{"NoteNumber":64,"Velocity":56,"Duration":609847,"SoundDuration":609847,"Delta":18373191},{"NoteNumber":53,"Velocity":53,"Duration":150608,"SoundDuration":150608,"Delta":18373191},{"NoteNumber":67,"Velocity":55,"Duration":148316,"SoundDuration":148316,"Delta":18523800},{"NoteNumber":59,"Velocity":41,"Duration":148316,"SoundDuration":148316,"Delta":18523800},{"NoteNumber":76,"Velocity":57,"Duration":310922,"SoundDuration":310922,"Delta":18672117},{"NoteNumber":71,"Velocity":36,"Duration":152102,"SoundDuration":152102,"Delta":18672117},{"NoteNumber":67,"Velocity":49,"Duration":158820,"SoundDuration":158820,"Delta":18824219},{"NoteNumber":62,"Velocity":49,"Duration":159950,"SoundDuration":159950,"Delta":18983039},{"NoteNumber":74,"Velocity":49,"Duration":159950,"SoundDuration":159950,"Delta":18983039},{"NoteNumber":55,"Velocity":41,"Duration":688096,"SoundDuration":688096,"Delta":19142990},{"NoteNumber":36,"Velocity":48,"Duration":136829,"SoundDuration":136829,"Delta":19142990},{"NoteNumber":43,"Velocity":41,"Duration":135370,"SoundDuration":135370,"Delta":19279820},{"NoteNumber":60,"Velocity":51,"Duration":201363,"SoundDuration":201363,"Delta":19347694},{"NoteNumber":52,"Velocity":36,"Duration":133866,"SoundDuration":133866,"Delta":19415191},{"NoteNumber":67,"Velocity":56,"Duration":282028,"SoundDuration":282028,"Delta":19549058},{"NoteNumber":64,"Velocity":35,"Duration":139295,"SoundDuration":139295,"Delta":19549058},{"NoteNumber":60,"Velocity":48,"Duration":142733,"SoundDuration":142733,"Delta":19688353},{"NoteNumber":69,"Velocity":48,"Duration":142816,"SoundDuration":142816,"Delta":19831086},{"NoteNumber":57,"Velocity":41,"Duration":142816,"SoundDuration":142816,"Delta":19831086},{"NoteNumber":64,"Velocity":41,"Duration":689151,"SoundDuration":689151,"Delta":19973902},{"NoteNumber":36,"Velocity":48,"Duration":136829,"SoundDuration":136829,"Delta":19973902},{"NoteNumber":43,"Velocity":41,"Duration":135370,"SoundDuration":135370,"Delta":20110732},{"NoteNumber":67,"Velocity":55,"Duration":201363,"SoundDuration":201363,"Delta":20178607},{"NoteNumber":53,"Velocity":46,"Duration":133866,"SoundDuration":133866,"Delta":20246103},{"NoteNumber":76,"Velocity":61,"Duration":283084,"SoundDuration":283084,"Delta":20379970},{"NoteNumber":71,"Velocity":38,"Duration":139295,"SoundDuration":139295,"Delta":20379970},{"NoteNumber":67,"Velocity":48,"Duration":143788,"SoundDuration":143788,"Delta":20519266},{"NoteNumber":62,"Velocity":41,"Duration":144927,"SoundDuration":144927,"Delta":20663054},{"NoteNumber":74,"Velocity":48,"Duration":144927,"SoundDuration":144927,"Delta":20663054},{"NoteNumber":36,"Velocity":48,"Duration":136829,"SoundDuration":136829,"Delta":20807982},{"NoteNumber":55,"Velocity":41,"Duration":548823,"SoundDuration":548823,"Delta":20944812},{"NoteNumber":43,"Velocity":41,"Duration":135370,"SoundDuration":135370,"Delta":20944812},{"NoteNumber":60,"Velocity":51,"Duration":133866,"SoundDuration":133866,"Delta":21080183},{"NoteNumber":52,"Velocity":36,"Duration":133866,"SoundDuration":133866,"Delta":21080183},{"NoteNumber":67,"Velocity":56,"Duration":279585,"SoundDuration":279585,"Delta":21214050},{"NoteNumber":64,"Velocity":35,"Duration":139295,"SoundDuration":139295,"Delta":21214050},{"NoteNumber":60,"Velocity":48,"Duration":140290,"SoundDuration":140290,"Delta":21353345},{"NoteNumber":69,"Velocity":48,"Duration":137930,"SoundDuration":137930,"Delta":21493636},{"NoteNumber":57,"Velocity":41,"Duration":137930,"SoundDuration":137930,"Delta":21493636},{"NoteNumber":36,"Velocity":48,"Duration":136829,"SoundDuration":136829,"Delta":21631567},{"NoteNumber":64,"Velocity":41,"Duration":552322,"SoundDuration":552322,"Delta":21768397},{"NoteNumber":43,"Velocity":41,"Duration":135370,"SoundDuration":135370,"Delta":21768397},{"NoteNumber":67,"Velocity":55,"Duration":133866,"SoundDuration":133866,"Delta":21903768},{"NoteNumber":53,"Velocity":36,"Duration":133866,"SoundDuration":133866,"Delta":21903768},{"NoteNumber":76,"Velocity":61,"Duration":283084,"SoundDuration":283084,"Delta":22037634},{"NoteNumber":71,"Velocity":38,"Duration":139295,"SoundDuration":139295,"Delta":22037634},{"NoteNumber":67,"Velocity":48,"Duration":143788,"SoundDuration":143788,"Delta":22176930},{"NoteNumber":62,"Velocity":41,"Duration":144927,"SoundDuration":144927,"Delta":22320719},{"NoteNumber":74,"Velocity":48,"Duration":144927,"SoundDuration":144927,"Delta":22320719},{"NoteNumber":36,"Velocity":48,"Duration":136829,"SoundDuration":136829,"Delta":22465646},{"NoteNumber":60,"Velocity":41,"Duration":269237,"SoundDuration":269237,"Delta":22602476},{"NoteNumber":43,"Velocity":41,"Duration":135370,"SoundDuration":135370,"Delta":22602476},{"NoteNumber":65,"Velocity":51,"Duration":133866,"SoundDuration":133866,"Delta":22737847},{"NoteNumber":55,"Velocity":36,"Duration":133866,"SoundDuration":133866,"Delta":22737847},{"NoteNumber":72,"Velocity":56,"Duration":830973,"SoundDuration":830973,"Delta":22871714},{"NoteNumber":69,"Velocity":35,"Duration":139295,"SoundDuration":139295,"Delta":22871714},{"NoteNumber":65,"Velocity":45,"Duration":142753,"SoundDuration":142753,"Delta":23011009},{"NoteNumber":64,"Velocity":41,"Duration":142857,"SoundDuration":142857,"Delta":23153763},{"NoteNumber":67,"Velocity":41,"Duration":142857,"SoundDuration":142857,"Delta":23153763},{"NoteNumber":36,"Velocity":48,"Duration":136829,"SoundDuration":136829,"Delta":23296620},{"NoteNumber":60,"Velocity":42,"Duration":269237,"SoundDuration":269237,"Delta":23433450},{"NoteNumber":43,"Velocity":42,"Duration":135370,"SoundDuration":135370,"Delta":23433450},{"NoteNumber":65,"Velocity":56,"Duration":133866,"SoundDuration":133866,"Delta":23568821},{"NoteNumber":55,"Velocity":39,"Duration":133866,"SoundDuration":133866,"Delta":23568821},{"NoteNumber":72,"Velocity":64,"Duration":884114,"SoundDuration":884114,"Delta":23702688},{"NoteNumber":69,"Velocity":39,"Duration":139295,"SoundDuration":139295,"Delta":23702688},{"NoteNumber":65,"Velocity":45,"Duration":144854,"SoundDuration":144854,"Delta":23841983},{"NoteNumber":64,"Velocity":41,"Duration":147058,"SoundDuration":147058,"Delta":23986838},{"NoteNumber":67,"Velocity":41,"Duration":147058,"SoundDuration":147058,"Delta":23986838},{"NoteNumber":36,"Velocity":48,"Duration":153259,"SoundDuration":153259,"Delta":24133896},{"NoteNumber":60,"Velocity":40,"Duration":299646,"SoundDuration":299646,"Delta":24287155},{"NoteNumber":43,"Velocity":40,"Duration":150945,"SoundDuration":150945,"Delta":24287155},{"NoteNumber":65,"Velocity":49,"Duration":148700,"SoundDuration":148700,"Delta":24438101},{"NoteNumber":55,"Velocity":35,"Duration":148700,"SoundDuration":148700,"Delta":24438101},{"NoteNumber":72,"Velocity":52,"Duration":955417,"SoundDuration":955417,"Delta":24586802},{"NoteNumber":69,"Velocity":33,"Duration":150418,"SoundDuration":150418,"Delta":24586802},{"NoteNumber":65,"Velocity":41,"Duration":160045,"SoundDuration":160045,"Delta":24737220},{"NoteNumber":64,"Velocity":38,"Duration":162934,"SoundDuration":162934,"Delta":24897266},{"NoteNumber":67,"Velocity":38,"Duration":162934,"SoundDuration":162934,"Delta":24897266},{"NoteNumber":36,"Velocity":42,"Duration":163268,"SoundDuration":163268,"Delta":25060201},{"NoteNumber":60,"Velocity":37,"Duration":318750,"SoundDuration":318750,"Delta":25223469},{"NoteNumber":43,"Velocity":37,"Duration":160645,"SoundDuration":160645,"Delta":25223469},{"NoteNumber":65,"Velocity":44,"Duration":158105,"SoundDuration":158105,"Delta":25384114},{"NoteNumber":55,"Velocity":30,"Duration":158105,"SoundDuration":158105,"Delta":25384114},{"NoteNumber":72,"Velocity":46,"Duration":522141,"SoundDuration":522141,"Delta":25542220},{"NoteNumber":69,"Velocity":29,"Duration":162062,"SoundDuration":162062,"Delta":25542220},{"NoteNumber":65,"Velocity":36,"Duration":178260,"SoundDuration":178260,"Delta":25704283},{"NoteNumber":64,"Velocity":33,"Duration":181818,"SoundDuration":181818,"Delta":25882543},{"NoteNumber":67,"Velocity":33,"Duration":181818,"SoundDuration":181818,"Delta":25882543},{"NoteNumber":36,"Velocity":38,"Duration":3372336,"SoundDuration":3372336,"Delta":26064361},{"NoteNumber":43,"Velocity":33,"Duration":3162346,"SoundDuration":3162346,"Delta":26274351},{"NoteNumber":48,"Velocity":37,"Duration":2945526,"SoundDuration":2945526,"Delta":26491171},{"NoteNumber":52,"Velocity":34,"Duration":2721417,"SoundDuration":2721417,"Delta":26715280},{"NoteNumber":55,"Velocity":38,"Duration":2489512,"SoundDuration":2489512,"Delta":26947185},{"NoteNumber":60,"Velocity":33,"Duration":2249247,"SoundDuration":2249247,"Delta":27187449},{"NoteNumber":64,"Velocity":33,"Duration":2000000,"SoundDuration":2000000,"Delta":27436697}],"license":{"name":"Creative Commons Attribution-ShareAlike 3.0 Germany","url":"http://creativecommons.org/licenses/by-sa/3.0/de/deed.en","text":"The MIDI, audio (MP3, OGG) and video files of Bernd Krueger are licensed under the cc-by-sa Germany License. This means that you can use and adapt the files, as long as you attribute the copyright holder.\n\nName: Bernd Krueger\nSource: http://www.piano-midi.de\n\nThe distribution or public playback of the files is only allowed under identical license conditions.\n\nThe scores are open source.","attribution":"MIDI files by Bernd Krueger (piano-midi.de)","attributionUrl":"http://www.piano-midi.de"}}