{"title":"Chopin Ballade in G minor Opus 32","artist":"Chopin","durationMs":537981,"midiSha256":"923b18d3c6702cbe80866cdecf5ee4c44f6107ddc4ab3617463ac975927b9342","midiObject":[{"NoteNumber":48,"Velocity":90,"Duration":2171156,"SoundDuration":2171156,"Delta":0},{"NoteNumber":36,"Velocity":74,"Duration":2171156,"SoundDuration":2171156,"Delta":0},{"NoteNumber":51,"Velocity":79,"Duration":407941,"SoundDuration":407941,"Delta":2171157},{"NoteNumber":39,"Velocity":66,"Duration":407941,"SoundDuration":407941,"Delta":2171157},{"NoteNumber":56,"Velocity":83,"Duration":389610,"SoundDuration":389610,"Delta":2579099},{"NoteNumber":44,"Velocity":70,"Duration":389610,"SoundDuration":389610,"Delta":2579099},{"NoteNumber":58,"Velocity":76,"Duration":405405,"SoundDuration":405405,"Delta":2968709},{"NoteNumber":46,"Velocity":64,"Duration":405405,"SoundDuration":405405,"Delta":2968709},{"NoteNumber":60,"Velocity":83,"Duration":387096,"SoundDuration":387096,"Delta":3374115},{"NoteNumber":48,"Velocity":70,"Duration":387096,"SoundDuration":387096,"Delta":3374115},{"NoteNumber":56,"Velocity":75,"Duration":391308,"SoundDuration":391308,"Delta":3761212},{"NoteNumber":44,"Velocity":63,"Duration":391308,"SoundDuration":391308,"Delta":3761212},{"NoteNumber":63,"Velocity":76,"Duration":382165,"SoundDuration":382165,"Delta":4152520},{"NoteNumber":51,"Velocity":63,"Duration":382165,"SoundDuration":382165,"Delta":4152520},{"NoteNumber":70,"Velocity":72,"Duration":384615,"SoundDuration":384615,"Delta":4534685},{"NoteNumber":58,"Velocity":55,"Duration":384615,"SoundDuration":384615,"Delta":4534685},{"NoteNumber":72,"Velocity":73,"Duration":392157,"SoundDuration":392157,"Delta":4919301},{"NoteNumber":60,"Velocity":58,"Duration":392157,"SoundDuration":392157,"Delta":4919301},{"NoteNumber":68,"Velocity":68,"Duration":400000,"SoundDuration":400000,"Delta":5311458},{"NoteNumber":56,"Velocity":54,"Duration":400000,"SoundDuration":400000,"Delta":5311458},{"NoteNumber":75,"Velocity":76,"Duration":397350,"SoundDuration":397350,"Delta":5711458},{"NoteNumber":63,"Velocity":62,"Duration":397350,"SoundDuration":397350,"Delta":5711458},{"NoteNumber":82,"Velocity":68,"Duration":388552,"SoundDuration":388552,"Delta":6108809},{"NoteNumber":70,"Velocity":54,"Duration":388552,"SoundDuration":388552,"Delta":6108809},{"NoteNumber":84,"Velocity":69,"Duration":415627,"SoundDuration":415627,"Delta":6497361},{"NoteNumber":72,"Velocity":57,"Duration":415627,"SoundDuration":415627,"Delta":6497361},{"NoteNumber":79,"Velocity":58,"Duration":434782,"SoundDuration":434782,"Delta":6912989},{"NoteNumber":67,"Velocity":48,"Duration":434782,"SoundDuration":434782,"Delta":6912989},{"NoteNumber":82,"Velocity":59,"Duration":441176,"SoundDuration":441176,"Delta":7347771},{"NoteNumber":70,"Velocity":53,"Duration":441176,"SoundDuration":441176,"Delta":7347771},{"NoteNumber":80,"Velocity":53,"Duration":516321,"SoundDuration":516321,"Delta":7788948},{"NoteNumber":68,"Velocity":35,"Duration":516321,"SoundDuration":516321,"Delta":7788948},{"NoteNumber":79,"Velocity":49,"Duration":1111111,"SoundDuration":1111111,"Delta":8305269},{"NoteNumber":67,"Velocity":32,"Duration":1111111,"SoundDuration":1111111,"Delta":8305269},{"NoteNumber":78,"Velocity":44,"Duration":571428,"SoundDuration":571428,"Delta":9416380},{"NoteNumber":66,"Velocity":27,"Duration":571428,"SoundDuration":571428,"Delta":9416380},{"NoteNumber":78,"Velocity":40,"Duration":437509,"SoundDuration":437509,"Delta":11130666},{"NoteNumber":66,"Velocity":34,"Duration":437509,"SoundDuration":437509,"Delta":11130666},{"NoteNumber":79,"Velocity":44,"Duration":420875,"SoundDuration":420875,"Delta":11568175},{"NoteNumber":67,"Velocity":37,"Duration":420875,"SoundDuration":420875,"Delta":11568175},{"NoteNumber":78,"Velocity":41,"Duration":405405,"SoundDuration":405405,"Delta":11989050},{"NoteNumber":66,"Velocity":34,"Duration":405405,"SoundDuration":405405,"Delta":11989050},{"NoteNumber":77,"Velocity":44,"Duration":425407,"SoundDuration":425407,"Delta":12394456},{"NoteNumber":65,"Velocity":37,"Duration":425407,"SoundDuration":425407,"Delta":12394456},{"NoteNumber":78,"Velocity":41,"Duration":479384,"SoundDuration":479384,"Delta":12819864},{"NoteNumber":66,"Velocity":34,"Duration":479384,"SoundDuration":479384,"Delta":12819864},{"NoteNumber":81,"Velocity":45,"Duration":298507,"SoundDuration":298507,"Delta":13299248},{"NoteNumber":69,"Velocity":38,"Duration":298507,"SoundDuration":298507,"Delta":13299248},{"NoteNumber":79,"Velocity":41,"Duration":312500,"SoundDuration":312500,"Delta":13597755},{"NoteNumber":67,"Velocity":34,"Duration":312500,"SoundDuration":312500,"Delta":13597755},{"NoteNumber":75,"Velocity":44,"Duration":312500,"SoundDuration":312500,"Delta":13910255},{"NoteNumber":63,"Velocity":37,"Duration":312500,"SoundDuration":312500,"Delta":13910255},{"NoteNumber":75,"Velocity":43,"Duration":751247,"SoundDuration":751247,"Delta":14222755},{"NoteNumber":63,"Velocity":36,"Duration":751247,"SoundDuration":751247,"Delta":14222755},{"NoteNumber":74,"Velocity":39,"Duration":270270,"SoundDuration":270270,"Delta":14974002},{"NoteNumber":62,"Velocity":33,"Duration":270270,"SoundDuration":270270,"Delta":14974002},{"NoteNumber":77,"Velocity":40,"Duration":353982,"SoundDuration":353982,"Delta":15244273},{"NoteNumber":65,"Velocity":34,"Duration":353982,"SoundDuration":353982,"Delta":15244273},{"NoteNumber":75,"Velocity":39,"Duration":388349,"SoundDuration":388349,"Delta":15598255},{"NoteNumber":63,"Velocity":33,"Duration":388349,"SoundDuration":388349,"Delta":15598255},{"NoteNumber":74,"Velocity":33,"Duration":399999,"SoundDuration":399999,"Delta":15986605},{"NoteNumber":62,"Velocity":26,"Duration":399999,"SoundDuration":399999,"Delta":15986605},{"NoteNumber":74,"Velocity":31,"Duration":1023018,"SoundDuration":1023018,"Delta":16431049},{"NoteNumber":62,"Velocity":24,"Duration":1023018,"SoundDuration":1023018,"Delta":16431049},{"NoteNumber":72,"Velocity":43,"Duration":1534526,"SoundDuration":1534526,"Delta":20523121},{"NoteNumber":55,"Velocity":42,"Duration":1947579,"SoundDuration":1947579,"Delta":20523121},{"NoteNumber":51,"Velocity":42,"Duration":1947579,"SoundDuration":1947579,"Delta":20523121},{"NoteNumber":60,"Velocity":42,"Duration":1947579,"SoundDuration":1947579,"Delta":20523121},{"NoteNumber":67,"Velocity":46,"Duration":413052,"SoundDuration":413052,"Delta":22057648},{"NoteNumber":50,"Velocity":44,"Duration":3498558,"SoundDuration":3498558,"Delta":22470701},{"NoteNumber":55,"Velocity":48,"Duration":3315869,"SoundDuration":3315869,"Delta":22653389},{"NoteNumber":70,"Velocity":62,"Duration":6268944,"SoundDuration":6268944,"Delta":22877574},{"NoteNumber":63,"Velocity":56,"Duration":3091684,"SoundDuration":3091684,"Delta":22877574},{"NoteNumber":38,"Velocity":46,"Duration":333333,"SoundDuration":333333,"Delta":28185734},{"NoteNumber":60,"Velocity":48,"Duration":1482316,"SoundDuration":1482316,"Delta":28519067},{"NoteNumber":62,"Velocity":44,"Duration":1148983,"SoundDuration":1148983,"Delta":28852401},{"NoteNumber":66,"Velocity":44,"Duration":294117,"SoundDuration":294117,"Delta":29146518},{"NoteNumber":70,"Velocity":49,"Duration":280373,"SoundDuration":280373,"Delta":29440636},{"NoteNumber":69,"Velocity":47,"Duration":280374,"SoundDuration":280374,"Delta":29721010},{"NoteNumber":67,"Velocity":44,"Duration":1615593,"SoundDuration":1615593,"Delta":30001384},{"NoteNumber":58,"Velocity":28,"Duration":516304,"SoundDuration":516304,"Delta":30537098},{"NoteNumber":62,"Velocity":33,"Duration":516304,"SoundDuration":516304,"Delta":30537098},{"NoteNumber":43,"Velocity":27,"Duration":516304,"SoundDuration":516304,"Delta":30537098},{"NoteNumber":58,"Velocity":28,"Duration":552326,"SoundDuration":552326,"Delta":31058837},{"NoteNumber":62,"Velocity":33,"Duration":552326,"SoundDuration":552326,"Delta":31058837},{"NoteNumber":43,"Velocity":27,"Duration":552326,"SoundDuration":552326,"Delta":31058837},{"NoteNumber":74,"Velocity":47,"Duration":1585923,"SoundDuration":1585923,"Delta":31616977},{"NoteNumber":62,"Velocity":28,"Duration":525442,"SoundDuration":525442,"Delta":32143293},{"NoteNumber":67,"Velocity":33,"Duration":525442,"SoundDuration":525442,"Delta":32143293},{"NoteNumber":58,"Velocity":25,"Duration":525442,"SoundDuration":525442,"Delta":32143293},{"NoteNumber":62,"Velocity":28,"Duration":523127,"SoundDuration":523127,"Delta":32674266},{"NoteNumber":67,"Velocity":33,"Duration":523127,"SoundDuration":523127,"Delta":32674266},{"NoteNumber":58,"Velocity":25,"Duration":523127,"SoundDuration":523127,"Delta":32674266},{"NoteNumber":72,"Velocity":47,"Duration":1607727,"SoundDuration":1607727,"Delta":33202900},{"NoteNumber":60,"Velocity":22,"Duration":523127,"SoundDuration":523127,"Delta":33753359},{"NoteNumber":63,"Velocity":23,"Duration":523127,"SoundDuration":523127,"Delta":33753359},{"NoteNumber":67,"Velocity":28,"Duration":523127,"SoundDuration":523127,"Delta":33753359},{"NoteNumber":57,"Velocity":22,"Duration":523127,"SoundDuration":523127,"Delta":33753359},{"NoteNumber":60,"Velocity":22,"Duration":523127,"SoundDuration":523127,"Delta":34281993},{"NoteNumber":63,"Velocity":23,"Duration":523127,"SoundDuration":523127,"Delta":34281993},{"NoteNumber":67,"Velocity":28,"Duration":523127,"SoundDuration":523127,"Delta":34281993},{"NoteNumber":57,"Velocity":22,"Duration":523127,"SoundDuration":523127,"Delta":34281993},{"NoteNumber":60,"Velocity":48,"Duration":1419322,"SoundDuration":1419322,"Delta":35100482},{"NoteNumber":62,"Velocity":44,"Duration":1129467,"SoundDuration":1129467,"Delta":35390337},{"NoteNumber":38,"Velocity":46,"Duration":284359,"SoundDuration":284359,"Delta":35390337},{"NoteNumber":66,"Velocity":44,"Duration":284359,"SoundDuration":284359,"Delta":35674697},{"NoteNumber":70,"Velocity":49,"Duration":280374,"SoundDuration":280374,"Delta":35959057},{"NoteNumber":38,"Velocity":46,"Duration":280374,"SoundDuration":280374,"Delta":35959057},{"NoteNumber":69,"Velocity":47,"Duration":280373,"SoundDuration":280373,"Delta":36239431},{"NoteNumber":67,"Velocity":44,"Duration":1604014,"SoundDuration":1604014,"Delta":36519805},{"NoteNumber":58,"Velocity":28,"Duration":511853,"SoundDuration":511853,"Delta":37048439},{"NoteNumber":62,"Velocity":33,"Duration":511853,"SoundDuration":511853,"Delta":37048439},{"NoteNumber":43,"Velocity":27,"Duration":511853,"SoundDuration":511853,"Delta":37048439},{"NoteNumber":58,"Velocity":28,"Duration":552326,"SoundDuration":552326,"Delta":37565680},{"NoteNumber":62,"Velocity":33,"Duration":552326,"SoundDuration":552326,"Delta":37565680},{"NoteNumber":43,"Velocity":27,"Duration":552326,"SoundDuration":552326,"Delta":37565680},{"NoteNumber":64,"Velocity":44,"Duration":1623456,"SoundDuration":1623456,"Delta":38123820},{"NoteNumber":57,"Velocity":28,"Duration":528787,"SoundDuration":528787,"Delta":38654793},{"NoteNumber":55,"Velocity":28,"Duration":528787,"SoundDuration":528787,"Delta":38654793},{"NoteNumber":61,"Velocity":33,"Duration":528787,"SoundDuration":528787,"Delta":38654793},{"NoteNumber":45,"Velocity":25,"Duration":528787,"SoundDuration":528787,"Delta":38654793},{"NoteNumber":57,"Velocity":28,"Duration":552326,"SoundDuration":552326,"Delta":39189136},{"NoteNumber":55,"Velocity":28,"Duration":552326,"SoundDuration":552326,"Delta":39189136},{"NoteNumber":61,"Velocity":33,"Duration":552326,"SoundDuration":552326,"Delta":39189136},{"NoteNumber":45,"Velocity":25,"Duration":552326,"SoundDuration":552326,"Delta":39189136},{"NoteNumber":66,"Velocity":44,"Duration":1689385,"SoundDuration":1689385,"Delta":39747276},{"NoteNumber":54,"Velocity":20,"Duration":551268,"SoundDuration":551268,"Delta":40321439},{"NoteNumber":57,"Velocity":23,"Duration":551268,"SoundDuration":551268,"Delta":40321439},{"NoteNumber":62,"Velocity":28,"Duration":551268,"SoundDuration":551268,"Delta":40321439},{"NoteNumber":38,"Velocity":19,"Duration":551268,"SoundDuration":551268,"Delta":40321439},{"NoteNumber":54,"Velocity":20,"Duration":552326,"SoundDuration":552326,"Delta":40878522},{"NoteNumber":57,"Velocity":23,"Duration":552326,"SoundDuration":552326,"Delta":40878522},{"NoteNumber":62,"Velocity":28,"Duration":552326,"SoundDuration":552326,"Delta":40878522},{"NoteNumber":38,"Velocity":19,"Duration":552326,"SoundDuration":552326,"Delta":40878522},{"NoteNumber":60,"Velocity":48,"Duration":1419322,"SoundDuration":1419322,"Delta":41726517},{"NoteNumber":62,"Velocity":44,"Duration":1129467,"SoundDuration":1129467,"Delta":42016372},{"NoteNumber":50,"Velocity":46,"Duration":562795,"SoundDuration":562795,"Delta":42016372},{"NoteNumber":66,"Velocity":44,"Duration":284359,"SoundDuration":284359,"Delta":42300732},{"NoteNumber":70,"Velocity":49,"Duration":280374,"SoundDuration":280374,"Delta":42585092},{"NoteNumber":50,"Velocity":46,"Duration":554906,"SoundDuration":554906,"Delta":42585092},{"NoteNumber":69,"Velocity":47,"Duration":280373,"SoundDuration":280373,"Delta":42865466},{"NoteNumber":67,"Velocity":44,"Duration":1629911,"SoundDuration":1629911,"Delta":43145840},{"NoteNumber":58,"Velocity":28,"Duration":520833,"SoundDuration":520833,"Delta":43691295},{"NoteNumber":62,"Velocity":33,"Duration":520833,"SoundDuration":520833,"Delta":43691295},{"NoteNumber":43,"Velocity":27,"Duration":520833,"SoundDuration":520833,"Delta":43691295},{"NoteNumber":58,"Velocity":28,"Duration":552326,"SoundDuration":552326,"Delta":44217611},{"NoteNumber":62,"Velocity":33,"Duration":552326,"SoundDuration":552326,"Delta":44217611},{"NoteNumber":43,"Velocity":27,"Duration":552326,"SoundDuration":552326,"Delta":44217611},{"NoteNumber":79,"Velocity":53,"Duration":1575338,"SoundDuration":1575338,"Delta":44775751},{"NoteNumber":70,"Velocity":28,"Duration":496156,"SoundDuration":496156,"Delta":45306724},{"NoteNumber":67,"Velocity":28,"Duration":496156,"SoundDuration":496156,"Delta":45306724},{"NoteNumber":73,"Velocity":33,"Duration":496156,"SoundDuration":496156,"Delta":45306724},{"NoteNumber":64,"Velocity":25,"Duration":496156,"SoundDuration":496156,"Delta":45306724},{"NoteNumber":70,"Velocity":28,"Duration":537329,"SoundDuration":537329,"Delta":45808103},{"NoteNumber":67,"Velocity":28,"Duration":537329,"SoundDuration":537329,"Delta":45808103},{"NoteNumber":73,"Velocity":33,"Duration":537329,"SoundDuration":537329,"Delta":45808103},{"NoteNumber":64,"Velocity":25,"Duration":537329,"SoundDuration":537329,"Delta":45808103},{"NoteNumber":77,"Velocity":50,"Duration":1554269,"SoundDuration":1554269,"Delta":46351089},{"NoteNumber":70,"Velocity":29,"Duration":499505,"SoundDuration":499505,"Delta":46879723},{"NoteNumber":72,"Velocity":34,"Duration":499505,"SoundDuration":499505,"Delta":46879723},{"NoteNumber":65,"Velocity":28,"Duration":499505,"SoundDuration":499505,"Delta":46879723},{"NoteNumber":70,"Velocity":29,"Duration":515453,"SoundDuration":515453,"Delta":47384479},{"NoteNumber":72,"Velocity":35,"Duration":515453,"SoundDuration":515453,"Delta":47384479},{"NoteNumber":65,"Velocity":28,"Duration":515453,"SoundDuration":515453,"Delta":47384479},{"NoteNumber":63,"Velocity":48,"Duration":1709177,"SoundDuration":1709177,"Delta":47905358},{"NoteNumber":65,"Velocity":48,"Duration":289854,"SoundDuration":289854,"Delta":48195213},{"NoteNumber":69,"Velocity":44,"Duration":1129467,"SoundDuration":1129467,"Delta":48485068},{"NoteNumber":41,"Velocity":46,"Duration":562795,"SoundDuration":562795,"Delta":48485068},{"NoteNumber":75,"Velocity":46,"Duration":284359,"SoundDuration":284359,"Delta":48769428},{"NoteNumber":74,"Velocity":51,"Duration":280374,"SoundDuration":280374,"Delta":49053788},{"NoteNumber":41,"Velocity":46,"Duration":554906,"SoundDuration":554906,"Delta":49053788},{"NoteNumber":73,"Velocity":49,"Duration":128504,"SoundDuration":128504,"Delta":49474349},{"NoteNumber":73,"Velocity":46,"Duration":1618749,"SoundDuration":1618749,"Delta":49614536},{"NoteNumber":63,"Velocity":20,"Duration":509787,"SoundDuration":509787,"Delta":50159991},{"NoteNumber":65,"Velocity":23,"Duration":509787,"SoundDuration":509787,"Delta":50159991},{"NoteNumber":69,"Velocity":28,"Duration":509787,"SoundDuration":509787,"Delta":50159991},{"NoteNumber":46,"Velocity":19,"Duration":509787,"SoundDuration":509787,"Delta":50159991},{"NoteNumber":63,"Velocity":20,"Duration":552326,"SoundDuration":552326,"Delta":50675145},{"NoteNumber":65,"Velocity":23,"Duration":552326,"SoundDuration":552326,"Delta":50675145},{"NoteNumber":69,"Velocity":28,"Duration":552326,"SoundDuration":552326,"Delta":50675145},{"NoteNumber":46,"Velocity":19,"Duration":552326,"SoundDuration":552326,"Delta":50675145},{"NoteNumber":74,"Velocity":46,"Duration":1610390,"SoundDuration":1610390,"Delta":51233285},{"NoteNumber":65,"Velocity":23,"Duration":514069,"SoundDuration":514069,"Delta":51778740},{"NoteNumber":62,"Velocity":19,"Duration":514069,"SoundDuration":514069,"Delta":51778740},{"NoteNumber":70,"Velocity":28,"Duration":514069,"SoundDuration":514069,"Delta":51778740},{"NoteNumber":58,"Velocity":21,"Duration":514069,"SoundDuration":514069,"Delta":51778740},{"NoteNumber":65,"Velocity":23,"Duration":539773,"SoundDuration":539773,"Delta":52298221},{"NoteNumber":62,"Velocity":18,"Duration":539773,"SoundDuration":539773,"Delta":52298221},{"NoteNumber":70,"Velocity":28,"Duration":539773,"SoundDuration":539773,"Delta":52298221},{"NoteNumber":58,"Velocity":21,"Duration":539773,"SoundDuration":539773,"Delta":52298221},{"NoteNumber":72,"Velocity":47,"Duration":1649050,"SoundDuration":1649050,"Delta":52843676},{"NoteNumber":63,"Velocity":28,"Duration":539773,"SoundDuration":539773,"Delta":53401816},{"NoteNumber":67,"Velocity":33,"Duration":539773,"SoundDuration":539773,"Delta":53401816},{"NoteNumber":57,"Velocity":27,"Duration":539773,"SoundDuration":539773,"Delta":53401816},{"NoteNumber":63,"Velocity":28,"Duration":539773,"SoundDuration":539773,"Delta":53947271},{"NoteNumber":67,"Velocity":34,"Duration":539773,"SoundDuration":539773,"Delta":53947271},{"NoteNumber":57,"Velocity":27,"Duration":539773,"SoundDuration":539773,"Delta":53947271},{"NoteNumber":60,"Velocity":48,"Duration":1419322,"SoundDuration":1419322,"Delta":54782581},{"NoteNumber":62,"Velocity":44,"Duration":1129467,"SoundDuration":1129467,"Delta":55072436},{"NoteNumber":38,"Velocity":46,"Duration":562795,"SoundDuration":562795,"Delta":55072436},{"NoteNumber":66,"Velocity":44,"Duration":284359,"SoundDuration":284359,"Delta":55356796},{"NoteNumber":70,"Velocity":49,"Duration":280374,"SoundDuration":280374,"Delta":55641156},{"NoteNumber":38,"Velocity":46,"Duration":554906,"SoundDuration":554906,"Delta":55641156},{"NoteNumber":69,"Velocity":47,"Duration":280373,"SoundDuration":280373,"Delta":55921530},{"NoteNumber":67,"Velocity":44,"Duration":1620835,"SoundDuration":1620835,"Delta":56201904},{"NoteNumber":58,"Velocity":28,"Duration":511853,"SoundDuration":511853,"Delta":56747359},{"NoteNumber":62,"Velocity":33,"Duration":511853,"SoundDuration":511853,"Delta":56747359},{"NoteNumber":43,"Velocity":27,"Duration":511853,"SoundDuration":511853,"Delta":56747359},{"NoteNumber":58,"Velocity":28,"Duration":552326,"SoundDuration":552326,"Delta":57264600},{"NoteNumber":62,"Velocity":33,"Duration":552326,"SoundDuration":552326,"Delta":57264600},{"NoteNumber":43,"Velocity":27,"Duration":552326,"SoundDuration":552326,"Delta":57264600},{"NoteNumber":74,"Velocity":47,"Duration":1605930,"SoundDuration":1605930,"Delta":57822740},{"NoteNumber":62,"Velocity":28,"Duration":509656,"SoundDuration":509656,"Delta":58368195},{"NoteNumber":67,"Velocity":33,"Duration":509656,"SoundDuration":509656,"Delta":58368195},{"NoteNumber":58,"Velocity":25,"Duration":509656,"SoundDuration":509656,"Delta":58368195},{"NoteNumber":62,"Velocity":28,"Duration":539773,"SoundDuration":539773,"Delta":58883216},{"NoteNumber":67,"Velocity":33,"Duration":539773,"SoundDuration":539773,"Delta":58883216},{"NoteNumber":58,"Velocity":25,"Duration":539773,"SoundDuration":539773,"Delta":58883216},{"NoteNumber":72,"Velocity":47,"Duration":1622078,"SoundDuration":1622078,"Delta":59428671},{"NoteNumber":60,"Velocity":23,"Duration":523127,"SoundDuration":523127,"Delta":59979130},{"NoteNumber":63,"Velocity":23,"Duration":523127,"SoundDuration":523127,"Delta":59979130},{"NoteNumber":67,"Velocity":28,"Duration":523127,"SoundDuration":523127,"Delta":59979130},{"NoteNumber":57,"Velocity":22,"Duration":523127,"SoundDuration":523127,"Delta":59979130},{"NoteNumber":60,"Velocity":23,"Duration":537329,"SoundDuration":537329,"Delta":60507764},{"NoteNumber":63,"Velocity":23,"Duration":537329,"SoundDuration":537329,"Delta":60507764},{"NoteNumber":67,"Velocity":28,"Duration":537329,"SoundDuration":537329,"Delta":60507764},{"NoteNumber":57,"Velocity":22,"Duration":537329,"SoundDuration":537329,"Delta":60507764},{"NoteNumber":60,"Velocity":48,"Duration":1419322,"SoundDuration":1419322,"Delta":61340605},{"NoteNumber":62,"Velocity":44,"Duration":1129467,"SoundDuration":1129467,"Delta":61630460},{"NoteNumber":38,"Velocity":46,"Duration":562795,"SoundDuration":562795,"Delta":61630460},{"NoteNumber":66,"Velocity":44,"Duration":284359,"SoundDuration":284359,"Delta":61914820},{"NoteNumber":70,"Velocity":49,"Duration":280374,"SoundDuration":280374,"Delta":62199180},{"NoteNumber":38,"Velocity":46,"Duration":554906,"SoundDuration":554906,"Delta":62199180},{"NoteNumber":69,"Velocity":47,"Duration":280373,"SoundDuration":280373,"Delta":62479554},{"NoteNumber":67,"Velocity":44,"Duration":1624805,"SoundDuration":1624805,"Delta":62759928},{"NoteNumber":58,"Velocity":28,"Duration":527777,"SoundDuration":527777,"Delta":63293261},{"NoteNumber":62,"Velocity":33,"Duration":527777,"SoundDuration":527777,"Delta":63293261},{"NoteNumber":43,"Velocity":27,"Duration":527777,"SoundDuration":527777,"Delta":63293261},{"NoteNumber":58,"Velocity":28,"Duration":552326,"SoundDuration":552326,"Delta":63826594},{"NoteNumber":62,"Velocity":33,"Duration":552326,"SoundDuration":552326,"Delta":63826594},{"NoteNumber":43,"Velocity":27,"Duration":552326,"SoundDuration":552326,"Delta":63826594},{"NoteNumber":64,"Velocity":44,"Duration":1629114,"SoundDuration":1629114,"Delta":64384734},{"NoteNumber":57,"Velocity":23,"Duration":530133,"SoundDuration":530133,"Delta":64930189},{"NoteNumber":55,"Velocity":23,"Duration":530133,"SoundDuration":530133,"Delta":64930189},{"NoteNumber":61,"Velocity":28,"Duration":530133,"SoundDuration":530133,"Delta":64930189},{"NoteNumber":45,"Velocity":21,"Duration":530133,"SoundDuration":530133,"Delta":64930189},{"NoteNumber":57,"Velocity":23,"Duration":542237,"SoundDuration":542237,"Delta":65465903},{"NoteNumber":55,"Velocity":23,"Duration":542237,"SoundDuration":542237,"Delta":65465903},{"NoteNumber":61,"Velocity":28,"Duration":542237,"SoundDuration":542237,"Delta":65465903},{"NoteNumber":45,"Velocity":21,"Duration":542237,"SoundDuration":542237,"Delta":65465903},{"NoteNumber":66,"Velocity":44,"Duration":1649049,"SoundDuration":1649049,"Delta":66013848},{"NoteNumber":54,"Velocity":17,"Duration":539773,"SoundDuration":539773,"Delta":66571988},{"NoteNumber":57,"Velocity":19,"Duration":539773,"SoundDuration":539773,"Delta":66571988},{"NoteNumber":62,"Velocity":23,"Duration":539773,"SoundDuration":539773,"Delta":66571988},{"NoteNumber":38,"Velocity":17,"Duration":539773,"SoundDuration":539773,"Delta":66571988},{"NoteNumber":54,"Velocity":17,"Duration":539773,"SoundDuration":539773,"Delta":67117443},{"NoteNumber":57,"Velocity":19,"Duration":539773,"SoundDuration":539773,"Delta":67117443},{"NoteNumber":62,"Velocity":23,"Duration":539773,"SoundDuration":539773,"Delta":67117443},{"NoteNumber":38,"Velocity":17,"Duration":539773,"SoundDuration":539773,"Delta":67117443},{"NoteNumber":60,"Velocity":48,"Duration":1419323,"SoundDuration":1419323,"Delta":67952753},{"NoteNumber":62,"Velocity":44,"Duration":1129468,"SoundDuration":1129468,"Delta":68242608},{"NoteNumber":50,"Velocity":46,"Duration":562795,"SoundDuration":562795,"Delta":68242608},{"NoteNumber":66,"Velocity":44,"Duration":284359,"SoundDuration":284359,"Delta":68526968},{"NoteNumber":70,"Velocity":49,"Duration":280373,"SoundDuration":280373,"Delta":68811328},{"NoteNumber":50,"Velocity":46,"Duration":554906,"SoundDuration":554906,"Delta":68811328},{"NoteNumber":69,"Velocity":47,"Duration":280374,"SoundDuration":280374,"Delta":69091702},{"NoteNumber":67,"Velocity":44,"Duration":1632228,"SoundDuration":1632228,"Delta":69372076},{"NoteNumber":62,"Velocity":28,"Duration":523127,"SoundDuration":523127,"Delta":69917531},{"NoteNumber":59,"Velocity":28,"Duration":523127,"SoundDuration":523127,"Delta":69917531},{"NoteNumber":65,"Velocity":33,"Duration":523127,"SoundDuration":523127,"Delta":69917531},{"NoteNumber":55,"Velocity":27,"Duration":523127,"SoundDuration":523127,"Delta":69917531},{"NoteNumber":62,"Velocity":28,"Duration":552326,"SoundDuration":552326,"Delta":70446165},{"NoteNumber":59,"Velocity":28,"Duration":552326,"SoundDuration":552326,"Delta":70446165},{"NoteNumber":65,"Velocity":33,"Duration":552326,"SoundDuration":552326,"Delta":70446165},{"NoteNumber":55,"Velocity":27,"Duration":552326,"SoundDuration":552326,"Delta":70446165},{"NoteNumber":79,"Velocity":58,"Duration":1570851,"SoundDuration":1570851,"Delta":71004305},{"NoteNumber":65,"Velocity":28,"Duration":496156,"SoundDuration":496156,"Delta":71549760},{"NoteNumber":71,"Velocity":31,"Duration":496156,"SoundDuration":496156,"Delta":71549760},{"NoteNumber":67,"Velocity":31,"Duration":496156,"SoundDuration":496156,"Delta":71549760},{"NoteNumber":74,"Velocity":36,"Duration":496156,"SoundDuration":496156,"Delta":71549760},{"NoteNumber":43,"Velocity":28,"Duration":496156,"SoundDuration":496156,"Delta":71549760},{"NoteNumber":65,"Velocity":32,"Duration":518558,"SoundDuration":518558,"Delta":72051139},{"NoteNumber":71,"Velocity":32,"Duration":518558,"SoundDuration":518558,"Delta":72051139},{"NoteNumber":67,"Velocity":28,"Duration":518558,"SoundDuration":518558,"Delta":72051139},{"NoteNumber":74,"Velocity":37,"Duration":518558,"SoundDuration":518558,"Delta":72051139},{"NoteNumber":43,"Velocity":28,"Duration":518558,"SoundDuration":518558,"Delta":72051139},{"NoteNumber":79,"Velocity":62,"Duration":1509636,"SoundDuration":1509636,"Delta":72575156},{"NoteNumber":67,"Velocity":33,"Duration":483234,"SoundDuration":483234,"Delta":73092397},{"NoteNumber":72,"Velocity":33,"Duration":483234,"SoundDuration":483234,"Delta":73092397},{"NoteNumber":75,"Velocity":39,"Duration":483234,"SoundDuration":483234,"Delta":73092397},{"NoteNumber":48,"Velocity":32,"Duration":992395,"SoundDuration":992395,"Delta":73092397},{"NoteNumber":36,"Velocity":35,"Duration":483234,"SoundDuration":483234,"Delta":73092397},{"NoteNumber":67,"Velocity":34,"Duration":498824,"SoundDuration":498824,"Delta":73580718},{"NoteNumber":72,"Velocity":34,"Duration":498824,"SoundDuration":498824,"Delta":73580718},{"NoteNumber":75,"Velocity":40,"Duration":498824,"SoundDuration":498824,"Delta":73580718},{"NoteNumber":55,"Velocity":43,"Duration":498824,"SoundDuration":498824,"Delta":73580718},{"NoteNumber":74,"Velocity":66,"Duration":1485212,"SoundDuration":1485212,"Delta":74084793},{"NoteNumber":62,"Velocity":35,"Duration":480730,"SoundDuration":480730,"Delta":74580139},{"NoteNumber":67,"Velocity":41,"Duration":480730,"SoundDuration":480730,"Delta":74580139},{"NoteNumber":50,"Velocity":31,"Duration":989866,"SoundDuration":989866,"Delta":74580139},{"NoteNumber":38,"Velocity":34,"Duration":480730,"SoundDuration":480730,"Delta":74580139},{"NoteNumber":62,"Velocity":36,"Duration":498824,"SoundDuration":498824,"Delta":75065930},{"NoteNumber":67,"Velocity":42,"Duration":498824,"SoundDuration":498824,"Delta":75065930},{"NoteNumber":55,"Velocity":44,"Duration":498824,"SoundDuration":498824,"Delta":75065930},{"NoteNumber":72,"Velocity":58,"Duration":1492808,"SoundDuration":1492808,"Delta":75570005},{"NoteNumber":60,"Velocity":35,"Duration":480730,"SoundDuration":480730,"Delta":76068717},{"NoteNumber":67,"Velocity":41,"Duration":480730,"SoundDuration":480730,"Delta":76068717},{"NoteNumber":51,"Velocity":33,"Duration":994096,"SoundDuration":994096,"Delta":76068717},{"NoteNumber":39,"Velocity":36,"Duration":480730,"SoundDuration":480730,"Delta":76068717},{"NoteNumber":60,"Velocity":34,"Duration":503026,"SoundDuration":503026,"Delta":76554508},{"NoteNumber":67,"Velocity":40,"Duration":503026,"SoundDuration":503026,"Delta":76554508},{"NoteNumber":55,"Velocity":43,"Duration":503026,"SoundDuration":503026,"Delta":76554508},{"NoteNumber":67,"Velocity":62,"Duration":1497808,"SoundDuration":1497808,"Delta":77062814},{"NoteNumber":58,"Velocity":31,"Duration":480730,"SoundDuration":480730,"Delta":77573452},{"NoteNumber":62,"Velocity":37,"Duration":480730,"SoundDuration":480730,"Delta":77573452},{"NoteNumber":50,"Velocity":28,"Duration":987170,"SoundDuration":987170,"Delta":77573452},{"NoteNumber":38,"Velocity":31,"Duration":480730,"SoundDuration":480730,"Delta":77573452},{"NoteNumber":58,"Velocity":30,"Duration":496156,"SoundDuration":496156,"Delta":78059243},{"NoteNumber":62,"Velocity":36,"Duration":496156,"SoundDuration":496156,"Delta":78059243},{"NoteNumber":55,"Velocity":36,"Duration":496156,"SoundDuration":496156,"Delta":78059243},{"NoteNumber":79,"Velocity":62,"Duration":1424233,"SoundDuration":1424233,"Delta":78560622},{"NoteNumber":47,"Velocity":52,"Duration":241935,"SoundDuration":241935,"Delta":78560622},{"NoteNumber":48,"Velocity":42,"Duration":241935,"SoundDuration":241935,"Delta":78802557},{"NoteNumber":67,"Velocity":33,"Duration":460306,"SoundDuration":460306,"Delta":79044493},{"NoteNumber":72,"Velocity":33,"Duration":460306,"SoundDuration":460306,"Delta":79044493},{"NoteNumber":75,"Velocity":39,"Duration":460306,"SoundDuration":460306,"Delta":79044493},{"NoteNumber":50,"Velocity":42,"Duration":232575,"SoundDuration":232575,"Delta":79044493},{"NoteNumber":48,"Velocity":42,"Duration":232576,"SoundDuration":232576,"Delta":79277069},{"NoteNumber":67,"Velocity":34,"Duration":470259,"SoundDuration":470259,"Delta":79509645},{"NoteNumber":72,"Velocity":34,"Duration":470259,"SoundDuration":470259,"Delta":79509645},{"NoteNumber":75,"Velocity":40,"Duration":470259,"SoundDuration":470259,"Delta":79509645},{"NoteNumber":55,"Velocity":51,"Duration":475210,"SoundDuration":475210,"Delta":79509645},{"NoteNumber":74,"Velocity":59,"Duration":1427930,"SoundDuration":1427930,"Delta":79984855},{"NoteNumber":49,"Velocity":53,"Duration":242914,"SoundDuration":242914,"Delta":79984855},{"NoteNumber":50,"Velocity":43,"Duration":242914,"SoundDuration":242914,"Delta":80227770},{"NoteNumber":62,"Velocity":35,"Duration":459757,"SoundDuration":459757,"Delta":80470685},{"NoteNumber":67,"Velocity":41,"Duration":459757,"SoundDuration":459757,"Delta":80470685},{"NoteNumber":51,"Velocity":47,"Duration":231624,"SoundDuration":231624,"Delta":80470685},{"NoteNumber":50,"Velocity":42,"Duration":233148,"SoundDuration":233148,"Delta":80702309},{"NoteNumber":62,"Velocity":36,"Duration":472354,"SoundDuration":472354,"Delta":80935458},{"NoteNumber":67,"Velocity":42,"Duration":472354,"SoundDuration":472354,"Delta":80935458},{"NoteNumber":55,"Velocity":52,"Duration":477327,"SoundDuration":477327,"Delta":80935458},{"NoteNumber":72,"Velocity":64,"Duration":1433818,"SoundDuration":1433818,"Delta":81412785},{"NoteNumber":50,"Velocity":57,"Duration":233226,"SoundDuration":233226,"Delta":81412785},{"NoteNumber":51,"Velocity":48,"Duration":233226,"SoundDuration":233226,"Delta":81646012},{"NoteNumber":60,"Velocity":35,"Duration":452587,"SoundDuration":452587,"Delta":81879239},{"NoteNumber":67,"Velocity":41,"Duration":452587,"SoundDuration":452587,"Delta":81879239},{"NoteNumber":53,"Velocity":48,"Duration":228675,"SoundDuration":228675,"Delta":81879239},{"NoteNumber":51,"Velocity":48,"Duration":228676,"SoundDuration":228676,"Delta":82107915},{"NoteNumber":60,"Velocity":34,"Duration":504766,"SoundDuration":504766,"Delta":82336591},{"NoteNumber":67,"Velocity":40,"Duration":504766,"SoundDuration":504766,"Delta":82336591},{"NoteNumber":55,"Velocity":54,"Duration":382946,"SoundDuration":382946,"Delta":82336591},{"NoteNumber":51,"Velocity":36,"Duration":4254,"SoundDuration":4254,"Delta":82719537},{"NoteNumber":52,"Velocity":36,"Duration":42549,"SoundDuration":42549,"Delta":82762087},{"NoteNumber":53,"Velocity":35,"Duration":41967,"SoundDuration":41967,"Delta":82804636},{"NoteNumber":67,"Velocity":62,"Duration":1479288,"SoundDuration":1479288,"Delta":82846604},{"NoteNumber":52,"Velocity":35,"Duration":62854,"SoundDuration":62854,"Delta":82846604},{"NoteNumber":53,"Velocity":36,"Duration":62470,"SoundDuration":62470,"Delta":82909458},{"NoteNumber":52,"Velocity":36,"Duration":62002,"SoundDuration":62002,"Delta":82971929},{"NoteNumber":53,"Velocity":37,"Duration":61632,"SoundDuration":61632,"Delta":83033932},{"NoteNumber":52,"Velocity":37,"Duration":61169,"SoundDuration":61169,"Delta":83095564},{"NoteNumber":53,"Velocity":38,"Duration":60809,"SoundDuration":60809,"Delta":83156734},{"NoteNumber":52,"Velocity":38,"Duration":60367,"SoundDuration":60367,"Delta":83217543},{"NoteNumber":53,"Velocity":39,"Duration":60013,"SoundDuration":60013,"Delta":83277911},{"NoteNumber":58,"Velocity":31,"Duration":476235,"SoundDuration":476235,"Delta":83337924},{"NoteNumber":61,"Velocity":37,"Duration":476235,"SoundDuration":476235,"Delta":83337924},{"NoteNumber":52,"Velocity":39,"Duration":59923,"SoundDuration":59923,"Delta":83337924},{"NoteNumber":53,"Velocity":39,"Duration":59923,"SoundDuration":59923,"Delta":83397847},{"NoteNumber":52,"Velocity":40,"Duration":59923,"SoundDuration":59923,"Delta":83457770},{"NoteNumber":53,"Velocity":40,"Duration":59923,"SoundDuration":59923,"Delta":83517693},{"NoteNumber":52,"Velocity":42,"Duration":60013,"SoundDuration":60013,"Delta":83577617},{"NoteNumber":53,"Velocity":42,"Duration":60192,"SoundDuration":60192,"Delta":83637630},{"NoteNumber":52,"Velocity":43,"Duration":61007,"SoundDuration":61007,"Delta":83697822},{"NoteNumber":53,"Velocity":43,"Duration":60367,"SoundDuration":60367,"Delta":83758830},{"NoteNumber":58,"Velocity":30,"Duration":501250,"SoundDuration":501250,"Delta":83819197},{"NoteNumber":61,"Velocity":36,"Duration":501250,"SoundDuration":501250,"Delta":83819197},{"NoteNumber":52,"Velocity":44,"Duration":61080,"SoundDuration":61080,"Delta":83819197},{"NoteNumber":53,"Velocity":44,"Duration":61629,"SoundDuration":61629,"Delta":83880277},{"NoteNumber":52,"Velocity":46,"Duration":62284,"SoundDuration":62284,"Delta":83941907},{"NoteNumber":53,"Velocity":46,"Duration":62854,"SoundDuration":62854,"Delta":84004192},{"NoteNumber":52,"Velocity":47,"Duration":63629,"SoundDuration":63629,"Delta":84067047},{"NoteNumber":51,"Velocity":47,"Duration":97202,"SoundDuration":97202,"Delta":84130676},{"NoteNumber":52,"Velocity":48,"Duration":98013,"SoundDuration":98013,"Delta":84227879},{"NoteNumber":65,"Velocity":57,"Duration":1449501,"SoundDuration":1449501,"Delta":84325892},{"NoteNumber":53,"Velocity":55,"Duration":1928888,"SoundDuration":1928888,"Delta":84325892},{"NoteNumber":58,"Velocity":35,"Duration":464265,"SoundDuration":464265,"Delta":84811722},{"NoteNumber":62,"Velocity":42,"Duration":464265,"SoundDuration":464265,"Delta":84811722},{"NoteNumber":58,"Velocity":35,"Duration":489367,"SoundDuration":489367,"Delta":85280875},{"NoteNumber":62,"Velocity":42,"Duration":489367,"SoundDuration":489367,"Delta":85280875},{"NoteNumber":74,"Velocity":60,"Duration":1819836,"SoundDuration":1819836,"Delta":85775394},{"NoteNumber":65,"Velocity":38,"Duration":464265,"SoundDuration":464265,"Delta":86254780},{"NoteNumber":62,"Velocity":38,"Duration":464265,"SoundDuration":464265,"Delta":86254780},{"NoteNumber":70,"Velocity":45,"Duration":464265,"SoundDuration":464265,"Delta":86254780},{"NoteNumber":40,"Velocity":37,"Duration":469153,"SoundDuration":469153,"Delta":86254780},{"NoteNumber":52,"Velocity":46,"Duration":469153,"SoundDuration":469153,"Delta":86254780},{"NoteNumber":65,"Velocity":38,"Duration":464265,"SoundDuration":464265,"Delta":86723933},{"NoteNumber":62,"Velocity":38,"Duration":464265,"SoundDuration":464265,"Delta":86723933},{"NoteNumber":70,"Velocity":45,"Duration":464265,"SoundDuration":464265,"Delta":86723933},{"NoteNumber":41,"Velocity":37,"Duration":469152,"SoundDuration":469152,"Delta":86723933},{"NoteNumber":53,"Velocity":46,"Duration":469152,"SoundDuration":469152,"Delta":86723933},{"NoteNumber":63,"Velocity":51,"Duration":459593,"SoundDuration":459593,"Delta":87193086},{"NoteNumber":69,"Velocity":51,"Duration":459593,"SoundDuration":459593,"Delta":87193086},{"NoteNumber":42,"Velocity":42,"Duration":1803913,"SoundDuration":1803913,"Delta":87193086},{"NoteNumber":54,"Velocity":51,"Duration":1803913,"SoundDuration":1803913,"Delta":87193086},{"NoteNumber":74,"Velocity":55,"Duration":57449,"SoundDuration":57449,"Delta":87595231},{"NoteNumber":63,"Velocity":48,"Duration":438115,"SoundDuration":438115,"Delta":87652680},{"NoteNumber":69,"Velocity":48,"Duration":438115,"SoundDuration":438115,"Delta":87652680},{"NoteNumber":72,"Velocity":62,"Duration":438115,"SoundDuration":438115,"Delta":87652680},{"NoteNumber":63,"Velocity":45,"Duration":444345,"SoundDuration":444345,"Delta":88090796},{"NoteNumber":69,"Velocity":45,"Duration":444345,"SoundDuration":444345,"Delta":88090796},{"NoteNumber":71,"Velocity":58,"Duration":444345,"SoundDuration":444345,"Delta":88090796},{"NoteNumber":63,"Velocity":50,"Duration":461858,"SoundDuration":461858,"Delta":88535142},{"NoteNumber":69,"Velocity":50,"Duration":461858,"SoundDuration":461858,"Delta":88535142},{"NoteNumber":72,"Velocity":65,"Duration":461858,"SoundDuration":461858,"Delta":88535142},{"NoteNumber":63,"Velocity":49,"Duration":476735,"SoundDuration":476735,"Delta":88997000},{"NoteNumber":69,"Velocity":49,"Duration":476735,"SoundDuration":476735,"Delta":88997000},{"NoteNumber":74,"Velocity":64,"Duration":476735,"SoundDuration":476735,"Delta":88997000},{"NoteNumber":41,"Velocity":34,"Duration":476735,"SoundDuration":476735,"Delta":88997000},{"NoteNumber":53,"Velocity":40,"Duration":476735,"SoundDuration":476735,"Delta":88997000},{"NoteNumber":63,"Velocity":51,"Duration":483637,"SoundDuration":483637,"Delta":89473736},{"NoteNumber":69,"Velocity":51,"Duration":483637,"SoundDuration":483637,"Delta":89473736},{"NoteNumber":75,"Velocity":66,"Duration":483637,"SoundDuration":483637,"Delta":89473736},{"NoteNumber":42,"Velocity":37,"Duration":483637,"SoundDuration":483637,"Delta":89473736},{"NoteNumber":54,"Velocity":44,"Duration":483637,"SoundDuration":483637,"Delta":89473736},{"NoteNumber":75,"Velocity":71,"Duration":1428869,"SoundDuration":1428869,"Delta":89957373},{"NoteNumber":43,"Velocity":40,"Duration":2846358,"SoundDuration":2846358,"Delta":89957373},{"NoteNumber":55,"Velocity":48,"Duration":2846358,"SoundDuration":2846358,"Delta":89957373},{"NoteNumber":63,"Velocity":49,"Duration":467144,"SoundDuration":467144,"Delta":90441010},{"NoteNumber":70,"Velocity":49,"Duration":467144,"SoundDuration":467144,"Delta":90441010},{"NoteNumber":63,"Velocity":49,"Duration":478087,"SoundDuration":478087,"Delta":90908154},{"NoteNumber":70,"Velocity":49,"Duration":478087,"SoundDuration":478087,"Delta":90908154},{"NoteNumber":62,"Velocity":43,"Duration":466926,"SoundDuration":466926,"Delta":91386242},{"NoteNumber":70,"Velocity":43,"Duration":466926,"SoundDuration":466926,"Delta":91386242},{"NoteNumber":74,"Velocity":56,"Duration":1417489,"SoundDuration":1417489,"Delta":91386242},{"NoteNumber":62,"Velocity":43,"Duration":466926,"SoundDuration":466926,"Delta":91853168},{"NoteNumber":70,"Velocity":43,"Duration":466926,"SoundDuration":466926,"Delta":91853168},{"NoteNumber":62,"Velocity":43,"Duration":483637,"SoundDuration":483637,"Delta":92320094},{"NoteNumber":70,"Velocity":43,"Duration":483637,"SoundDuration":483637,"Delta":92320094},{"NoteNumber":60,"Velocity":51,"Duration":466453,"SoundDuration":466453,"Delta":92803731},{"NoteNumber":66,"Velocity":51,"Duration":466453,"SoundDuration":466453,"Delta":92803731},{"NoteNumber":38,"Velocity":32,"Duration":2782309,"SoundDuration":2782309,"Delta":92803731},{"NoteNumber":50,"Velocity":38,"Duration":2782309,"SoundDuration":2782309,"Delta":92803731},{"NoteNumber":70,"Velocity":50,"Duration":58306,"SoundDuration":58306,"Delta":93211878},{"NoteNumber":60,"Velocity":48,"Duration":446461,"SoundDuration":446461,"Delta":93270185},{"NoteNumber":66,"Velocity":48,"Duration":446461,"SoundDuration":446461,"Delta":93270185},{"NoteNumber":69,"Velocity":57,"Duration":446461,"SoundDuration":446461,"Delta":93270185},{"NoteNumber":60,"Velocity":43,"Duration":457352,"SoundDuration":457352,"Delta":93716647},{"NoteNumber":66,"Velocity":43,"Duration":457352,"SoundDuration":457352,"Delta":93716647},{"NoteNumber":68,"Velocity":54,"Duration":457352,"SoundDuration":457352,"Delta":93716647},{"NoteNumber":60,"Velocity":48,"Duration":466453,"SoundDuration":466453,"Delta":94173999},{"NoteNumber":66,"Velocity":48,"Duration":466453,"SoundDuration":466453,"Delta":94173999},{"NoteNumber":69,"Velocity":57,"Duration":466453,"SoundDuration":466453,"Delta":94173999},{"NoteNumber":60,"Velocity":47,"Duration":455511,"SoundDuration":455511,"Delta":94640453},{"NoteNumber":66,"Velocity":47,"Duration":455511,"SoundDuration":455511,"Delta":94640453},{"NoteNumber":70,"Velocity":56,"Duration":455511,"SoundDuration":455511,"Delta":94640453},{"NoteNumber":60,"Velocity":49,"Duration":490076,"SoundDuration":490076,"Delta":95095965},{"NoteNumber":66,"Velocity":49,"Duration":490076,"SoundDuration":490076,"Delta":95095965},{"NoteNumber":72,"Velocity":58,"Duration":490076,"SoundDuration":490076,"Delta":95095965},{"NoteNumber":72,"Velocity":67,"Duration":1420380,"SoundDuration":1420380,"Delta":95586041},{"NoteNumber":39,"Velocity":33,"Duration":2834321,"SoundDuration":2834321,"Delta":95586041},{"NoteNumber":51,"Velocity":39,"Duration":2834321,"SoundDuration":2834321,"Delta":95586041},{"NoteNumber":60,"Velocity":49,"Duration":465152,"SoundDuration":465152,"Delta":96076117},{"NoteNumber":67,"Velocity":49,"Duration":465152,"SoundDuration":465152,"Delta":96076117},{"NoteNumber":60,"Velocity":49,"Duration":465152,"SoundDuration":465152,"Delta":96541269},{"NoteNumber":67,"Velocity":49,"Duration":465152,"SoundDuration":465152,"Delta":96541269},{"NoteNumber":58,"Velocity":43,"Duration":465151,"SoundDuration":465151,"Delta":97006421},{"NoteNumber":67,"Velocity":43,"Duration":465151,"SoundDuration":465151,"Delta":97006421},{"NoteNumber":70,"Velocity":51,"Duration":1413940,"SoundDuration":1413940,"Delta":97006421},{"NoteNumber":58,"Velocity":43,"Duration":465152,"SoundDuration":465152,"Delta":97471573},{"NoteNumber":67,"Velocity":43,"Duration":465152,"SoundDuration":465152,"Delta":97471573},{"NoteNumber":58,"Velocity":43,"Duration":483637,"SoundDuration":483637,"Delta":97936725},{"NoteNumber":67,"Velocity":43,"Duration":483637,"SoundDuration":483637,"Delta":97936725},{"NoteNumber":63,"Velocity":50,"Duration":483637,"SoundDuration":483637,"Delta":98420362},{"NoteNumber":67,"Velocity":50,"Duration":483637,"SoundDuration":483637,"Delta":98420362},{"NoteNumber":69,"Velocity":56,"Duration":1422282,"SoundDuration":1422282,"Delta":98420362},{"NoteNumber":36,"Velocity":39,"Duration":1422282,"SoundDuration":1422282,"Delta":98420362},{"NoteNumber":48,"Velocity":39,"Duration":1422282,"SoundDuration":1422282,"Delta":98420362},{"NoteNumber":63,"Velocity":50,"Duration":469153,"SoundDuration":469153,"Delta":98903999},{"NoteNumber":67,"Velocity":50,"Duration":469153,"SoundDuration":469153,"Delta":98903999},{"NoteNumber":63,"Velocity":50,"Duration":469492,"SoundDuration":469492,"Delta":99373152},{"NoteNumber":67,"Velocity":50,"Duration":469492,"SoundDuration":469492,"Delta":99373152},{"NoteNumber":62,"Velocity":42,"Duration":483713,"SoundDuration":483713,"Delta":99842644},{"NoteNumber":66,"Velocity":42,"Duration":483713,"SoundDuration":483713,"Delta":99842644},{"NoteNumber":69,"Velocity":51,"Duration":1249873,"SoundDuration":1249873,"Delta":99842644},{"NoteNumber":38,"Velocity":33,"Duration":1571538,"SoundDuration":1571538,"Delta":99842644},{"NoteNumber":50,"Velocity":39,"Duration":1571538,"SoundDuration":1571538,"Delta":99842644},{"NoteNumber":62,"Velocity":42,"Duration":506014,"SoundDuration":506014,"Delta":100326357},{"NoteNumber":66,"Velocity":42,"Duration":506014,"SoundDuration":506014,"Delta":100326357},{"NoteNumber":62,"Velocity":42,"Duration":581810,"SoundDuration":581810,"Delta":100832372},{"NoteNumber":66,"Velocity":42,"Duration":581810,"SoundDuration":581810,"Delta":100832372},{"NoteNumber":69,"Velocity":51,"Duration":197472,"SoundDuration":197472,"Delta":101092518},{"NoteNumber":57,"Velocity":51,"Duration":596633,"SoundDuration":596633,"Delta":101289990},{"NoteNumber":64,"Velocity":51,"Duration":534537,"SoundDuration":534537,"Delta":101352086},{"NoteNumber":69,"Velocity":51,"Duration":2362205,"SoundDuration":2362205,"Delta":101414183},{"NoteNumber":37,"Velocity":33,"Duration":472441,"SoundDuration":472441,"Delta":101414183},{"NoteNumber":49,"Velocity":39,"Duration":472441,"SoundDuration":472441,"Delta":101414183},{"NoteNumber":52,"Velocity":30,"Duration":467519,"SoundDuration":467519,"Delta":101886624},{"NoteNumber":57,"Velocity":30,"Duration":467519,"SoundDuration":467519,"Delta":101886624},{"NoteNumber":64,"Velocity":36,"Duration":467519,"SoundDuration":467519,"Delta":101886624},{"NoteNumber":52,"Velocity":28,"Duration":467519,"SoundDuration":467519,"Delta":102359065},{"NoteNumber":57,"Velocity":28,"Duration":467519,"SoundDuration":467519,"Delta":102359065},{"NoteNumber":64,"Velocity":34,"Duration":467519,"SoundDuration":467519,"Delta":102359065},{"NoteNumber":52,"Velocity":28,"Duration":467519,"SoundDuration":467519,"Delta":102831506},{"NoteNumber":57,"Velocity":28,"Duration":467519,"SoundDuration":467519,"Delta":102831506},{"NoteNumber":64,"Velocity":34,"Duration":467519,"SoundDuration":467519,"Delta":102831506},{"NoteNumber":52,"Velocity":28,"Duration":467519,"SoundDuration":467519,"Delta":103303947},{"NoteNumber":57,"Velocity":28,"Duration":467519,"SoundDuration":467519,"Delta":103303947},{"NoteNumber":64,"Velocity":34,"Duration":467519,"SoundDuration":467519,"Delta":103303947},{"NoteNumber":69,"Velocity":66,"Duration":604020,"SoundDuration":604020,"Delta":103776388},{"NoteNumber":52,"Velocity":29,"Duration":467519,"SoundDuration":467519,"Delta":103776388},{"NoteNumber":57,"Velocity":29,"Duration":467519,"SoundDuration":467519,"Delta":103776388},{"NoteNumber":64,"Velocity":35,"Duration":467519,"SoundDuration":467519,"Delta":103776388},{"NoteNumber":36,"Velocity":36,"Duration":526315,"SoundDuration":526315,"Delta":104248829},{"NoteNumber":48,"Velocity":42,"Duration":526315,"SoundDuration":526315,"Delta":104248829},{"NoteNumber":70,"Velocity":56,"Duration":131579,"SoundDuration":131579,"Delta":104380408},{"NoteNumber":69,"Velocity":56,"Duration":131579,"SoundDuration":131579,"Delta":104511987},{"NoteNumber":68,"Velocity":57,"Duration":131578,"SoundDuration":131578,"Delta":104643566},{"NoteNumber":69,"Velocity":58,"Duration":125000,"SoundDuration":125000,"Delta":104775145},{"NoteNumber":53,"Velocity":33,"Duration":493775,"SoundDuration":493775,"Delta":104775145},{"NoteNumber":57,"Velocity":33,"Duration":493775,"SoundDuration":493775,"Delta":104775145},{"NoteNumber":63,"Velocity":33,"Duration":493775,"SoundDuration":493775,"Delta":104775145},{"NoteNumber":65,"Velocity":39,"Duration":493775,"SoundDuration":493775,"Delta":104775145},{"NoteNumber":79,"Velocity":60,"Duration":125000,"SoundDuration":125000,"Delta":104900145},{"NoteNumber":76,"Velocity":61,"Duration":124481,"SoundDuration":124481,"Delta":105025145},{"NoteNumber":77,"Velocity":62,"Duration":124481,"SoundDuration":124481,"Delta":105149626},{"NoteNumber":77,"Velocity":63,"Duration":123966,"SoundDuration":123966,"Delta":105274107},{"NoteNumber":53,"Velocity":33,"Duration":489703,"SoundDuration":489703,"Delta":105274107},{"NoteNumber":57,"Velocity":33,"Duration":489703,"SoundDuration":489703,"Delta":105274107},{"NoteNumber":63,"Velocity":33,"Duration":489703,"SoundDuration":489703,"Delta":105274107},{"NoteNumber":65,"Velocity":39,"Duration":489703,"SoundDuration":489703,"Delta":105274107},{"NoteNumber":91,"Velocity":64,"Duration":123967,"SoundDuration":123967,"Delta":105398074},{"NoteNumber":89,"Velocity":66,"Duration":123456,"SoundDuration":123456,"Delta":105522041},{"NoteNumber":88,"Velocity":66,"Duration":123456,"SoundDuration":123456,"Delta":105645498},{"NoteNumber":87,"Velocity":67,"Duration":81967,"SoundDuration":81967,"Delta":105768955},{"NoteNumber":53,"Velocity":33,"Duration":485552,"SoundDuration":485552,"Delta":105768955},{"NoteNumber":57,"Velocity":33,"Duration":485552,"SoundDuration":485552,"Delta":105768955},{"NoteNumber":63,"Velocity":33,"Duration":485552,"SoundDuration":485552,"Delta":105768955},{"NoteNumber":65,"Velocity":39,"Duration":485552,"SoundDuration":485552,"Delta":105768955},{"NoteNumber":84,"Velocity":58,"Duration":81967,"SoundDuration":81967,"Delta":105850922},{"NoteNumber":81,"Velocity":58,"Duration":81967,"SoundDuration":81967,"Delta":105932889},{"NoteNumber":82,"Velocity":62,"Duration":81632,"SoundDuration":81632,"Delta":106014856},{"NoteNumber":86,"Velocity":58,"Duration":81632,"SoundDuration":81632,"Delta":106096489},{"NoteNumber":84,"Velocity":58,"Duration":81466,"SoundDuration":81466,"Delta":106178122},{"NoteNumber":82,"Velocity":66,"Duration":81632,"SoundDuration":81632,"Delta":106259588},{"NoteNumber":53,"Velocity":33,"Duration":502792,"SoundDuration":502792,"Delta":106259588},{"NoteNumber":57,"Velocity":33,"Duration":502792,"SoundDuration":502792,"Delta":106259588},{"NoteNumber":63,"Velocity":33,"Duration":502792,"SoundDuration":502792,"Delta":106259588},{"NoteNumber":65,"Velocity":39,"Duration":502792,"SoundDuration":502792,"Delta":106259588},{"NoteNumber":79,"Velocity":58,"Duration":81967,"SoundDuration":81967,"Delta":106341221},{"NoteNumber":77,"Velocity":58,"Duration":82474,"SoundDuration":82474,"Delta":106423188},{"NoteNumber":74,"Velocity":62,"Duration":82816,"SoundDuration":82816,"Delta":106505663},{"NoteNumber":75,"Velocity":58,"Duration":86346,"SoundDuration":86346,"Delta":106588479},{"NoteNumber":76,"Velocity":58,"Duration":93622,"SoundDuration":93622,"Delta":106674826},{"NoteNumber":77,"Velocity":63,"Duration":94296,"SoundDuration":94296,"Delta":106768448},{"NoteNumber":53,"Velocity":33,"Duration":567197,"SoundDuration":567197,"Delta":106768448},{"NoteNumber":57,"Velocity":33,"Duration":567197,"SoundDuration":567197,"Delta":106768448},{"NoteNumber":63,"Velocity":33,"Duration":567197,"SoundDuration":567197,"Delta":106768448},{"NoteNumber":65,"Velocity":39,"Duration":567197,"SoundDuration":567197,"Delta":106768448},{"NoteNumber":78,"Velocity":58,"Duration":94721,"SoundDuration":94721,"Delta":106862745},{"NoteNumber":81,"Velocity":58,"Duration":92701,"SoundDuration":92701,"Delta":106957466},{"NoteNumber":79,"Velocity":58,"Duration":93897,"SoundDuration":93897,"Delta":107050168},{"NoteNumber":77,"Velocity":56,"Duration":95126,"SoundDuration":95126,"Delta":107144065},{"NoteNumber":75,"Velocity":56,"Duration":102521,"SoundDuration":102521,"Delta":107239192},{"NoteNumber":73,"Velocity":64,"Duration":259740,"SoundDuration":259740,"Delta":107341713},{"NoteNumber":34,"Velocity":38,"Duration":519480,"SoundDuration":519480,"Delta":107341713},{"NoteNumber":46,"Velocity":45,"Duration":519480,"SoundDuration":519480,"Delta":107341713},{"NoteNumber":74,"Velocity":66,"Duration":1530973,"SoundDuration":1530973,"Delta":107861194},{"NoteNumber":50,"Velocity":31,"Duration":500000,"SoundDuration":500000,"Delta":107861194},{"NoteNumber":53,"Velocity":31,"Duration":500000,"SoundDuration":500000,"Delta":107861194},{"NoteNumber":58,"Velocity":39,"Duration":500000,"SoundDuration":500000,"Delta":107861194},{"NoteNumber":53,"Velocity":33,"Duration":500000,"SoundDuration":500000,"Delta":108361194},{"NoteNumber":58,"Velocity":33,"Duration":500000,"SoundDuration":500000,"Delta":108361194},{"NoteNumber":62,"Velocity":39,"Duration":500000,"SoundDuration":500000,"Delta":108361194},{"NoteNumber":39,"Velocity":40,"Duration":530973,"SoundDuration":530973,"Delta":108861194},{"NoteNumber":72,"Velocity":56,"Duration":495868,"SoundDuration":495868,"Delta":109392167},{"NoteNumber":51,"Velocity":31,"Duration":495868,"SoundDuration":495868,"Delta":109392167},{"NoteNumber":55,"Velocity":31,"Duration":495868,"SoundDuration":495868,"Delta":109392167},{"NoteNumber":60,"Velocity":37,"Duration":495868,"SoundDuration":495868,"Delta":109392167},{"NoteNumber":67,"Velocity":57,"Duration":521738,"SoundDuration":521738,"Delta":109888035},{"NoteNumber":55,"Velocity":31,"Duration":521738,"SoundDuration":521738,"Delta":109888035},{"NoteNumber":60,"Velocity":31,"Duration":521738,"SoundDuration":521738,"Delta":109888035},{"NoteNumber":63,"Velocity":37,"Duration":521738,"SoundDuration":521738,"Delta":109888035},{"NoteNumber":70,"Velocity":62,"Duration":1586415,"SoundDuration":1586415,"Delta":110409774},{"NoteNumber":38,"Velocity":42,"Duration":540541,"SoundDuration":540541,"Delta":110409774},{"NoteNumber":55,"Velocity":29,"Duration":517240,"SoundDuration":517240,"Delta":110950315},{"NoteNumber":58,"Velocity":29,"Duration":517240,"SoundDuration":517240,"Delta":110950315},{"NoteNumber":63,"Velocity":35,"Duration":517240,"SoundDuration":517240,"Delta":110950315},{"NoteNumber":62,"Velocity":35,"Duration":1057267,"SoundDuration":1057267,"Delta":111467556},{"NoteNumber":58,"Velocity":29,"Duration":1057267,"SoundDuration":1057267,"Delta":111467556},{"NoteNumber":55,"Velocity":29,"Duration":528633,"SoundDuration":528633,"Delta":111467556},{"NoteNumber":66,"Velocity":53,"Duration":1646097,"SoundDuration":1646097,"Delta":111996190},{"NoteNumber":50,"Velocity":39,"Duration":1646097,"SoundDuration":1646097,"Delta":111996190},{"NoteNumber":61,"Velocity":35,"Duration":540541,"SoundDuration":540541,"Delta":112524824},{"NoteNumber":58,"Velocity":29,"Duration":540541,"SoundDuration":540541,"Delta":112524824},{"NoteNumber":57,"Velocity":30,"Duration":576922,"SoundDuration":576922,"Delta":113065365},{"NoteNumber":60,"Velocity":36,"Duration":576922,"SoundDuration":576922,"Delta":113065365},{"NoteNumber":67,"Velocity":47,"Duration":555555,"SoundDuration":555555,"Delta":113642288},{"NoteNumber":43,"Velocity":36,"Duration":277777,"SoundDuration":277777,"Delta":113642288},{"NoteNumber":70,"Velocity":28,"Duration":264317,"SoundDuration":264317,"Delta":114197844},{"NoteNumber":82,"Velocity":50,"Duration":264317,"SoundDuration":264317,"Delta":114197844},{"NoteNumber":65,"Velocity":28,"Duration":508167,"SoundDuration":508167,"Delta":114197844},{"NoteNumber":58,"Velocity":19,"Duration":1004523,"SoundDuration":1004523,"Delta":114197844},{"NoteNumber":55,"Velocity":19,"Duration":1004523,"SoundDuration":1004523,"Delta":114197844},{"NoteNumber":74,"Velocity":45,"Duration":243850,"SoundDuration":243850,"Delta":114462161},{"NoteNumber":77,"Velocity":48,"Duration":242119,"SoundDuration":242119,"Delta":114706012},{"NoteNumber":63,"Velocity":29,"Duration":496356,"SoundDuration":496356,"Delta":114706012},{"NoteNumber":75,"Velocity":45,"Duration":785210,"SoundDuration":785210,"Delta":114948131},{"NoteNumber":42,"Velocity":38,"Duration":265486,"SoundDuration":265486,"Delta":115202368},{"NoteNumber":69,"Velocity":31,"Duration":259740,"SoundDuration":259740,"Delta":115733341},{"NoteNumber":81,"Velocity":50,"Duration":259740,"SoundDuration":259740,"Delta":115733341},{"NoteNumber":63,"Velocity":28,"Duration":495979,"SoundDuration":495979,"Delta":115733341},{"NoteNumber":54,"Velocity":19,"Duration":990838,"SoundDuration":990838,"Delta":115733341},{"NoteNumber":57,"Velocity":19,"Duration":990838,"SoundDuration":990838,"Delta":115733341},{"NoteNumber":73,"Velocity":44,"Duration":236238,"SoundDuration":236238,"Delta":115993082},{"NoteNumber":75,"Velocity":49,"Duration":236238,"SoundDuration":236238,"Delta":116229321},{"NoteNumber":62,"Velocity":29,"Duration":494859,"SoundDuration":494859,"Delta":116229321},{"NoteNumber":74,"Velocity":45,"Duration":747518,"SoundDuration":747518,"Delta":116465559},{"NoteNumber":43,"Velocity":38,"Duration":247934,"SoundDuration":247934,"Delta":116724180},{"NoteNumber":70,"Velocity":30,"Duration":236220,"SoundDuration":236220,"Delta":117213078},{"NoteNumber":82,"Velocity":50,"Duration":236220,"SoundDuration":236220,"Delta":117213078},{"NoteNumber":65,"Velocity":30,"Duration":459649,"SoundDuration":459649,"Delta":117213078},{"NoteNumber":58,"Velocity":20,"Duration":929765,"SoundDuration":929765,"Delta":117213078},{"NoteNumber":55,"Velocity":20,"Duration":929765,"SoundDuration":929765,"Delta":117213078},{"NoteNumber":74,"Velocity":48,"Duration":223429,"SoundDuration":223429,"Delta":117449298},{"NoteNumber":77,"Velocity":50,"Duration":227201,"SoundDuration":227201,"Delta":117672727},{"NoteNumber":63,"Velocity":30,"Duration":470116,"SoundDuration":470116,"Delta":117672727},{"NoteNumber":75,"Velocity":47,"Duration":708142,"SoundDuration":708142,"Delta":117899929},{"NoteNumber":41,"Velocity":40,"Duration":236220,"SoundDuration":236220,"Delta":118142844},{"NoteNumber":68,"Velocity":32,"Duration":224718,"SoundDuration":224718,"Delta":118608072},{"NoteNumber":80,"Velocity":51,"Duration":224718,"SoundDuration":224718,"Delta":118608072},{"NoteNumber":59,"Velocity":20,"Duration":892171,"SoundDuration":892171,"Delta":118608072},{"NoteNumber":63,"Velocity":30,"Duration":442188,"SoundDuration":442188,"Delta":118608072},{"NoteNumber":53,"Velocity":20,"Duration":892171,"SoundDuration":892171,"Delta":118608072},{"NoteNumber":56,"Velocity":20,"Duration":892171,"SoundDuration":892171,"Delta":118608072},{"NoteNumber":73,"Velocity":47,"Duration":217469,"SoundDuration":217469,"Delta":118832791},{"NoteNumber":75,"Velocity":52,"Duration":218323,"SoundDuration":218323,"Delta":119050260},{"NoteNumber":62,"Velocity":30,"Duration":449983,"SoundDuration":449983,"Delta":119050260},{"NoteNumber":74,"Velocity":47,"Duration":679421,"SoundDuration":679421,"Delta":119268583},{"NoteNumber":39,"Velocity":41,"Duration":223880,"SoundDuration":223880,"Delta":119500243},{"NoteNumber":67,"Velocity":32,"Duration":213522,"SoundDuration":213522,"Delta":119948004},{"NoteNumber":79,"Velocity":53,"Duration":213522,"SoundDuration":213522,"Delta":119948004},{"NoteNumber":62,"Velocity":32,"Duration":421635,"SoundDuration":421635,"Delta":119948004},{"NoteNumber":55,"Velocity":21,"Duration":851970,"SoundDuration":851970,"Delta":119948004},{"NoteNumber":51,"Velocity":21,"Duration":851970,"SoundDuration":851970,"Delta":119948004},{"NoteNumber":71,"Velocity":50,"Duration":208112,"SoundDuration":208112,"Delta":120161527},{"NoteNumber":74,"Velocity":53,"Duration":208112,"SoundDuration":208112,"Delta":120369640},{"NoteNumber":60,"Velocity":32,"Duration":430334,"SoundDuration":430334,"Delta":120369640},{"NoteNumber":72,"Velocity":49,"Duration":638317,"SoundDuration":638317,"Delta":120577753},{"NoteNumber":36,"Velocity":42,"Duration":212013,"SoundDuration":212013,"Delta":120799975},{"NoteNumber":60,"Velocity":41,"Duration":204081,"SoundDuration":204081,"Delta":121216070},{"NoteNumber":72,"Velocity":54,"Duration":204081,"SoundDuration":204081,"Delta":121216070},{"NoteNumber":58,"Velocity":31,"Duration":403209,"SoundDuration":403209,"Delta":121216070},{"NoteNumber":51,"Velocity":26,"Duration":813605,"SoundDuration":813605,"Delta":121216070},{"NoteNumber":68,"Velocity":49,"Duration":199128,"SoundDuration":199128,"Delta":121420152},{"NoteNumber":70,"Velocity":55,"Duration":199128,"SoundDuration":199128,"Delta":121619280},{"NoteNumber":57,"Velocity":32,"Duration":410395,"SoundDuration":410395,"Delta":121619280},{"NoteNumber":69,"Velocity":49,"Duration":612605,"SoundDuration":612605,"Delta":121818408},{"NoteNumber":38,"Velocity":43,"Duration":200669,"SoundDuration":200669,"Delta":122029676},{"NoteNumber":63,"Velocity":43,"Duration":192925,"SoundDuration":192925,"Delta":122431014},{"NoteNumber":75,"Velocity":55,"Duration":192925,"SoundDuration":192925,"Delta":122431014},{"NoteNumber":55,"Velocity":33,"Duration":383138,"SoundDuration":383138,"Delta":122431014},{"NoteNumber":60,"Velocity":28,"Duration":783209,"SoundDuration":783209,"Delta":122431014},{"NoteNumber":50,"Velocity":28,"Duration":783209,"SoundDuration":783209,"Delta":122431014},{"NoteNumber":71,"Velocity":53,"Duration":190212,"SoundDuration":190212,"Delta":122623940},{"NoteNumber":74,"Velocity":56,"Duration":197368,"SoundDuration":197368,"Delta":122814153},{"NoteNumber":54,"Velocity":33,"Duration":400070,"SoundDuration":400070,"Delta":122814153},{"NoteNumber":72,"Velocity":52,"Duration":594859,"SoundDuration":594859,"Delta":123011521},{"NoteNumber":38,"Velocity":44,"Duration":196078,"SoundDuration":196078,"Delta":123214224},{"NoteNumber":63,"Velocity":48,"Duration":188678,"SoundDuration":188678,"Delta":123606381},{"NoteNumber":67,"Velocity":57,"Duration":377358,"SoundDuration":377358,"Delta":123606381},{"NoteNumber":57,"Velocity":37,"Duration":377358,"SoundDuration":377358,"Delta":123606381},{"NoteNumber":62,"Velocity":51,"Duration":188679,"SoundDuration":188679,"Delta":123795060},{"NoteNumber":61,"Velocity":52,"Duration":195439,"SoundDuration":195439,"Delta":123983739},{"NoteNumber":66,"Velocity":47,"Duration":387757,"SoundDuration":387757,"Delta":123983739},{"NoteNumber":69,"Velocity":57,"Duration":387757,"SoundDuration":387757,"Delta":123983739},{"NoteNumber":50,"Velocity":38,"Duration":387757,"SoundDuration":387757,"Delta":123983739},{"NoteNumber":60,"Velocity":52,"Duration":192317,"SoundDuration":192317,"Delta":124179178},{"NoteNumber":58,"Velocity":60,"Duration":353982,"SoundDuration":353982,"Delta":124371496},{"NoteNumber":67,"Velocity":60,"Duration":353982,"SoundDuration":353982,"Delta":124371496},{"NoteNumber":70,"Velocity":71,"Duration":353982,"SoundDuration":353982,"Delta":124371496},{"NoteNumber":55,"Velocity":59,"Duration":176991,"SoundDuration":176991,"Delta":124371496},{"NoteNumber":43,"Velocity":59,"Duration":176991,"SoundDuration":176991,"Delta":124371496},{"NoteNumber":70,"Velocity":52,"Duration":687431,"SoundDuration":687431,"Delta":124725478},{"NoteNumber":82,"Velocity":71,"Duration":687431,"SoundDuration":687431,"Delta":124725478},{"NoteNumber":65,"Velocity":43,"Duration":342208,"SoundDuration":342208,"Delta":124725478},{"NoteNumber":55,"Velocity":36,"Duration":687431,"SoundDuration":687431,"Delta":124725478},{"NoteNumber":74,"Velocity":67,"Duration":167907,"SoundDuration":167907,"Delta":124899779},{"NoteNumber":77,"Velocity":71,"Duration":172722,"SoundDuration":172722,"Delta":125067686},{"NoteNumber":58,"Velocity":36,"Duration":345223,"SoundDuration":345223,"Delta":125067686},{"NoteNumber":63,"Velocity":43,"Duration":345223,"SoundDuration":345223,"Delta":125067686},{"NoteNumber":75,"Velocity":66,"Duration":518323,"SoundDuration":518323,"Delta":125240409},{"NoteNumber":54,"Velocity":62,"Duration":172994,"SoundDuration":172994,"Delta":125412910},{"NoteNumber":42,"Velocity":62,"Duration":172994,"SoundDuration":172994,"Delta":125412910},{"NoteNumber":69,"Velocity":57,"Duration":663230,"SoundDuration":663230,"Delta":125758732},{"NoteNumber":81,"Velocity":71,"Duration":663230,"SoundDuration":663230,"Delta":125758732},{"NoteNumber":63,"Velocity":41,"Duration":331033,"SoundDuration":331033,"Delta":125758732},{"NoteNumber":54,"Velocity":35,"Duration":663230,"SoundDuration":663230,"Delta":125758732},{"NoteNumber":73,"Velocity":65,"Duration":162683,"SoundDuration":162683,"Delta":125927082},{"NoteNumber":75,"Velocity":72,"Duration":166451,"SoundDuration":166451,"Delta":126089765},{"NoteNumber":57,"Velocity":35,"Duration":332197,"SoundDuration":332197,"Delta":126089765},{"NoteNumber":62,"Velocity":42,"Duration":332197,"SoundDuration":332197,"Delta":126089765},{"NoteNumber":74,"Velocity":66,"Duration":493615,"SoundDuration":493615,"Delta":126256216},{"NoteNumber":55,"Velocity":61,"Duration":163934,"SoundDuration":163934,"Delta":126421962},{"NoteNumber":43,"Velocity":61,"Duration":163934,"SoundDuration":163934,"Delta":126421962},{"NoteNumber":70,"Velocity":56,"Duration":634757,"SoundDuration":634757,"Delta":126749831},{"NoteNumber":82,"Velocity":72,"Duration":634757,"SoundDuration":634757,"Delta":126749831},{"NoteNumber":65,"Velocity":44,"Duration":317052,"SoundDuration":317052,"Delta":126749831},{"NoteNumber":55,"Velocity":36,"Duration":634757,"SoundDuration":634757,"Delta":126749831},{"NoteNumber":74,"Velocity":69,"Duration":155683,"SoundDuration":155683,"Delta":126911201},{"NoteNumber":77,"Velocity":73,"Duration":158553,"SoundDuration":158553,"Delta":127066884},{"NoteNumber":58,"Velocity":37,"Duration":317704,"SoundDuration":317704,"Delta":127066884},{"NoteNumber":63,"Velocity":44,"Duration":317704,"SoundDuration":317704,"Delta":127066884},{"NoteNumber":75,"Velocity":67,"Duration":159150,"SoundDuration":159150,"Delta":127225438},{"NoteNumber":53,"Velocity":63,"Duration":155039,"SoundDuration":155039,"Delta":127384589},{"NoteNumber":41,"Velocity":63,"Duration":155039,"SoundDuration":155039,"Delta":127384589},{"NoteNumber":68,"Velocity":57,"Duration":604520,"SoundDuration":604520,"Delta":127694667},{"NoteNumber":80,"Velocity":74,"Duration":604520,"SoundDuration":604520,"Delta":127694667},{"NoteNumber":63,"Velocity":43,"Duration":302001,"SoundDuration":302001,"Delta":127694667},{"NoteNumber":53,"Velocity":36,"Duration":604520,"SoundDuration":604520,"Delta":127694667},{"NoteNumber":73,"Velocity":67,"Duration":149522,"SoundDuration":149522,"Delta":127847146},{"NoteNumber":75,"Velocity":74,"Duration":149458,"SoundDuration":149458,"Delta":127996668},{"NoteNumber":56,"Velocity":36,"Duration":302519,"SoundDuration":302519,"Delta":127996668},{"NoteNumber":59,"Velocity":36,"Duration":302519,"SoundDuration":302519,"Delta":127996668},{"NoteNumber":62,"Velocity":43,"Duration":302519,"SoundDuration":302519,"Delta":127996668},{"NoteNumber":74,"Velocity":67,"Duration":153061,"SoundDuration":153061,"Delta":128146127},{"NoteNumber":51,"Velocity":62,"Duration":148147,"SoundDuration":148147,"Delta":128299188},{"NoteNumber":39,"Velocity":62,"Duration":148147,"SoundDuration":148147,"Delta":128299188},{"NoteNumber":67,"Velocity":57,"Duration":582095,"SoundDuration":582095,"Delta":128595484},{"NoteNumber":79,"Velocity":75,"Duration":582095,"SoundDuration":582095,"Delta":128595484},{"NoteNumber":62,"Velocity":45,"Duration":292235,"SoundDuration":292235,"Delta":128595484},{"NoteNumber":51,"Velocity":38,"Duration":582095,"SoundDuration":582095,"Delta":128595484},{"NoteNumber":71,"Velocity":71,"Duration":144994,"SoundDuration":144994,"Delta":128742724},{"NoteNumber":74,"Velocity":75,"Duration":144581,"SoundDuration":144581,"Delta":128887719},{"NoteNumber":55,"Velocity":38,"Duration":289860,"SoundDuration":289860,"Delta":128887719},{"NoteNumber":60,"Velocity":45,"Duration":289860,"SoundDuration":289860,"Delta":128887719},{"NoteNumber":72,"Velocity":70,"Duration":145278,"SoundDuration":145278,"Delta":129032301},{"NoteNumber":48,"Velocity":66,"Duration":144927,"SoundDuration":144927,"Delta":129177579},{"NoteNumber":36,"Velocity":66,"Duration":144927,"SoundDuration":144927,"Delta":129177579},{"NoteNumber":60,"Velocity":57,"Duration":565699,"SoundDuration":565699,"Delta":129467434},{"NoteNumber":72,"Velocity":75,"Duration":565699,"SoundDuration":565699,"Delta":129467434},{"NoteNumber":58,"Velocity":44,"Duration":282985,"SoundDuration":282985,"Delta":129467434},{"NoteNumber":48,"Velocity":37,"Duration":565699,"SoundDuration":565699,"Delta":129467434},{"NoteNumber":68,"Velocity":69,"Duration":140805,"SoundDuration":140805,"Delta":129609614},{"NoteNumber":70,"Velocity":76,"Duration":140534,"SoundDuration":140534,"Delta":129750420},{"NoteNumber":51,"Velocity":37,"Duration":282714,"SoundDuration":282714,"Delta":129750420},{"NoteNumber":57,"Velocity":44,"Duration":282714,"SoundDuration":282714,"Delta":129750420},{"NoteNumber":69,"Velocity":69,"Duration":142179,"SoundDuration":142179,"Delta":129890954},{"NoteNumber":38,"Velocity":64,"Duration":141176,"SoundDuration":141176,"Delta":130033134},{"NoteNumber":63,"Velocity":59,"Duration":552853,"SoundDuration":552853,"Delta":130315487},{"NoteNumber":75,"Velocity":76,"Duration":552853,"SoundDuration":552853,"Delta":130315487},{"NoteNumber":45,"Velocity":46,"Duration":277128,"SoundDuration":277128,"Delta":130315487},{"NoteNumber":55,"Velocity":46,"Duration":277128,"SoundDuration":277128,"Delta":130315487},{"NoteNumber":71,"Velocity":73,"Duration":137478,"SoundDuration":137478,"Delta":130455137},{"NoteNumber":74,"Velocity":77,"Duration":137157,"SoundDuration":137157,"Delta":130592616},{"NoteNumber":48,"Velocity":39,"Duration":275725,"SoundDuration":275725,"Delta":130592616},{"NoteNumber":54,"Velocity":47,"Duration":275725,"SoundDuration":275725,"Delta":130592616},{"NoteNumber":72,"Velocity":71,"Duration":138567,"SoundDuration":138567,"Delta":130729773},{"NoteNumber":38,"Velocity":67,"Duration":137614,"SoundDuration":137614,"Delta":130868341},{"NoteNumber":54,"Velocity":78,"Duration":544956,"SoundDuration":544956,"Delta":131143570},{"NoteNumber":66,"Velocity":78,"Duration":544956,"SoundDuration":544956,"Delta":131143570},{"NoteNumber":45,"Velocity":51,"Duration":271063,"SoundDuration":271063,"Delta":131143570},{"NoteNumber":51,"Velocity":51,"Duration":271063,"SoundDuration":271063,"Delta":131143570},{"NoteNumber":61,"Velocity":71,"Duration":134700,"SoundDuration":134700,"Delta":131279934},{"NoteNumber":63,"Velocity":71,"Duration":135643,"SoundDuration":135643,"Delta":131414634},{"NoteNumber":48,"Velocity":51,"Duration":273892,"SoundDuration":273892,"Delta":131414634},{"NoteNumber":50,"Velocity":51,"Duration":495294,"SoundDuration":495294,"Delta":131414634},{"NoteNumber":62,"Velocity":71,"Duration":138249,"SoundDuration":138249,"Delta":131550277},{"NoteNumber":67,"Velocity":79,"Duration":221402,"SoundDuration":221402,"Delta":131688526},{"NoteNumber":58,"Velocity":67,"Duration":221402,"SoundDuration":221402,"Delta":131688526},{"NoteNumber":43,"Velocity":51,"Duration":221402,"SoundDuration":221402,"Delta":131688526},{"NoteNumber":60,"Velocity":78,"Duration":107142,"SoundDuration":107142,"Delta":131909928},{"NoteNumber":55,"Velocity":53,"Duration":107142,"SoundDuration":107142,"Delta":131909928},{"NoteNumber":31,"Velocity":32,"Duration":214285,"SoundDuration":214285,"Delta":131909928},{"NoteNumber":43,"Velocity":38,"Duration":214285,"SoundDuration":214285,"Delta":131909928},{"NoteNumber":58,"Velocity":65,"Duration":107142,"SoundDuration":107142,"Delta":132017071},{"NoteNumber":57,"Velocity":64,"Duration":107142,"SoundDuration":107142,"Delta":132124214},{"NoteNumber":55,"Velocity":65,"Duration":107142,"SoundDuration":107142,"Delta":132231357},{"NoteNumber":58,"Velocity":77,"Duration":219779,"SoundDuration":219779,"Delta":132338499},{"NoteNumber":67,"Velocity":77,"Duration":219779,"SoundDuration":219779,"Delta":132338499},{"NoteNumber":50,"Velocity":51,"Duration":219779,"SoundDuration":219779,"Delta":132338499},{"NoteNumber":43,"Velocity":38,"Duration":219779,"SoundDuration":219779,"Delta":132338499},{"NoteNumber":60,"Velocity":77,"Duration":107142,"SoundDuration":107142,"Delta":132558279},{"NoteNumber":55,"Velocity":52,"Duration":107142,"SoundDuration":107142,"Delta":132558279},{"NoteNumber":43,"Velocity":32,"Duration":428571,"SoundDuration":428571,"Delta":132558279},{"NoteNumber":51,"Velocity":43,"Duration":107142,"SoundDuration":107142,"Delta":132558279},{"NoteNumber":58,"Velocity":64,"Duration":107142,"SoundDuration":107142,"Delta":132665422},{"NoteNumber":50,"Velocity":45,"Duration":107142,"SoundDuration":107142,"Delta":132665422},{"NoteNumber":57,"Velocity":64,"Duration":107142,"SoundDuration":107142,"Delta":132772565},{"NoteNumber":55,"Velocity":63,"Duration":107142,"SoundDuration":107142,"Delta":132879708},{"NoteNumber":65,"Velocity":69,"Duration":109091,"SoundDuration":109091,"Delta":132986850},{"NoteNumber":48,"Velocity":43,"Duration":861406,"SoundDuration":861406,"Delta":132986850},{"NoteNumber":43,"Velocity":43,"Duration":861406,"SoundDuration":861406,"Delta":132986850},{"NoteNumber":51,"Velocity":51,"Duration":861406,"SoundDuration":861406,"Delta":132986850},{"NoteNumber":60,"Velocity":52,"Duration":109091,"SoundDuration":109091,"Delta":133095941},{"NoteNumber":63,"Velocity":54,"Duration":109090,"SoundDuration":109090,"Delta":133205032},{"NoteNumber":57,"Velocity":49,"Duration":643224,"SoundDuration":643224,"Delta":133205032},{"NoteNumber":54,"Velocity":55,"Duration":107142,"SoundDuration":107142,"Delta":133314123},{"NoteNumber":60,"Velocity":57,"Duration":107142,"SoundDuration":107142,"Delta":133421266},{"NoteNumber":63,"Velocity":58,"Duration":107142,"SoundDuration":107142,"Delta":133528409},{"NoteNumber":66,"Velocity":60,"Duration":106635,"SoundDuration":106635,"Delta":133635552},{"NoteNumber":72,"Velocity":62,"Duration":106070,"SoundDuration":106070,"Delta":133742187},{"NoteNumber":77,"Velocity":63,"Duration":105820,"SoundDuration":105820,"Delta":133848257},{"NoteNumber":43,"Velocity":43,"Duration":212392,"SoundDuration":212392,"Delta":133848257},{"NoteNumber":55,"Velocity":51,"Duration":212392,"SoundDuration":212392,"Delta":133848257},{"NoteNumber":75,"Velocity":65,"Duration":106572,"SoundDuration":106572,"Delta":133954077},{"NoteNumber":74,"Velocity":67,"Duration":107334,"SoundDuration":107334,"Delta":134060650},{"NoteNumber":63,"Velocity":55,"Duration":215248,"SoundDuration":215248,"Delta":134060650},{"NoteNumber":51,"Velocity":46,"Duration":215248,"SoundDuration":215248,"Delta":134060650},{"NoteNumber":72,"Velocity":68,"Duration":107913,"SoundDuration":107913,"Delta":134167985},{"NoteNumber":79,"Velocity":79,"Duration":110701,"SoundDuration":110701,"Delta":134275898},{"NoteNumber":70,"Velocity":67,"Duration":110701,"SoundDuration":110701,"Delta":134275898},{"NoteNumber":50,"Velocity":46,"Duration":110701,"SoundDuration":110701,"Delta":134275898},{"NoteNumber":62,"Velocity":51,"Duration":110701,"SoundDuration":110701,"Delta":134275898},{"NoteNumber":67,"Velocity":53,"Duration":107142,"SoundDuration":107142,"Delta":134497300},{"NoteNumber":72,"Velocity":78,"Duration":107142,"SoundDuration":107142,"Delta":134497300},{"NoteNumber":43,"Velocity":32,"Duration":428571,"SoundDuration":428571,"Delta":134497300},{"NoteNumber":55,"Velocity":38,"Duration":428571,"SoundDuration":428571,"Delta":134497300},{"NoteNumber":70,"Velocity":65,"Duration":107142,"SoundDuration":107142,"Delta":134604443},{"NoteNumber":69,"Velocity":64,"Duration":107142,"SoundDuration":107142,"Delta":134711586},{"NoteNumber":67,"Velocity":65,"Duration":107142,"SoundDuration":107142,"Delta":134818729},{"NoteNumber":70,"Velocity":69,"Duration":219779,"SoundDuration":219779,"Delta":134925871},{"NoteNumber":79,"Velocity":77,"Duration":219779,"SoundDuration":219779,"Delta":134925871},{"NoteNumber":62,"Velocity":45,"Duration":219779,"SoundDuration":219779,"Delta":134925871},{"NoteNumber":55,"Velocity":38,"Duration":219779,"SoundDuration":219779,"Delta":134925871},{"NoteNumber":72,"Velocity":77,"Duration":107142,"SoundDuration":107142,"Delta":135145651},{"NoteNumber":67,"Velocity":52,"Duration":107142,"SoundDuration":107142,"Delta":135145651},{"NoteNumber":55,"Velocity":32,"Duration":428571,"SoundDuration":428571,"Delta":135145651},{"NoteNumber":63,"Velocity":43,"Duration":107142,"SoundDuration":107142,"Delta":135145651},{"NoteNumber":70,"Velocity":64,"Duration":107142,"SoundDuration":107142,"Delta":135252794},{"NoteNumber":62,"Velocity":45,"Duration":107142,"SoundDuration":107142,"Delta":135252794},{"NoteNumber":69,"Velocity":64,"Duration":107142,"SoundDuration":107142,"Delta":135359937},{"NoteNumber":67,"Velocity":63,"Duration":107142,"SoundDuration":107142,"Delta":135467080},{"NoteNumber":77,"Velocity":69,"Duration":109091,"SoundDuration":109091,"Delta":135574222},{"NoteNumber":60,"Velocity":43,"Duration":861406,"SoundDuration":861406,"Delta":135574222},{"NoteNumber":55,"Velocity":43,"Duration":861406,"SoundDuration":861406,"Delta":135574222},{"NoteNumber":63,"Velocity":51,"Duration":861406,"SoundDuration":861406,"Delta":135574222},{"NoteNumber":72,"Velocity":52,"Duration":109091,"SoundDuration":109091,"Delta":135683313},{"NoteNumber":75,"Velocity":54,"Duration":109090,"SoundDuration":109090,"Delta":135792404},{"NoteNumber":69,"Velocity":49,"Duration":643224,"SoundDuration":643224,"Delta":135792404},{"NoteNumber":66,"Velocity":55,"Duration":107142,"SoundDuration":107142,"Delta":135901495},{"NoteNumber":72,"Velocity":57,"Duration":107142,"SoundDuration":107142,"Delta":136008638},{"NoteNumber":75,"Velocity":58,"Duration":107142,"SoundDuration":107142,"Delta":136115781},{"NoteNumber":78,"Velocity":60,"Duration":106635,"SoundDuration":106635,"Delta":136222924},{"NoteNumber":84,"Velocity":62,"Duration":106070,"SoundDuration":106070,"Delta":136329559},{"NoteNumber":89,"Velocity":63,"Duration":105820,"SoundDuration":105820,"Delta":136435629},{"NoteNumber":55,"Velocity":43,"Duration":212392,"SoundDuration":212392,"Delta":136435629},{"NoteNumber":67,"Velocity":51,"Duration":212392,"SoundDuration":212392,"Delta":136435629},{"NoteNumber":87,"Velocity":65,"Duration":106572,"SoundDuration":106572,"Delta":136541449},{"NoteNumber":86,"Velocity":67,"Duration":107334,"SoundDuration":107334,"Delta":136648022},{"NoteNumber":75,"Velocity":55,"Duration":215248,"SoundDuration":215248,"Delta":136648022},{"NoteNumber":63,"Velocity":46,"Duration":215248,"SoundDuration":215248,"Delta":136648022},{"NoteNumber":84,"Velocity":68,"Duration":107913,"SoundDuration":107913,"Delta":136755357},{"NoteNumber":91,"Velocity":76,"Duration":110701,"SoundDuration":110701,"Delta":136863270},{"NoteNumber":82,"Velocity":64,"Duration":110701,"SoundDuration":110701,"Delta":136863270},{"NoteNumber":67,"Velocity":55,"Duration":110701,"SoundDuration":110701,"Delta":136863270},{"NoteNumber":74,"Velocity":55,"Duration":110701,"SoundDuration":110701,"Delta":136863270},{"NoteNumber":91,"Velocity":63,"Duration":107527,"SoundDuration":107527,"Delta":137195373},{"NoteNumber":96,"Velocity":75,"Duration":107527,"SoundDuration":107527,"Delta":137195373},{"NoteNumber":94,"Velocity":68,"Duration":107527,"SoundDuration":107527,"Delta":137302900},{"NoteNumber":86,"Velocity":68,"Duration":107527,"SoundDuration":107527,"Delta":137410427},{"NoteNumber":94,"Velocity":73,"Duration":106573,"SoundDuration":106573,"Delta":137517954},{"NoteNumber":90,"Velocity":62,"Duration":106573,"SoundDuration":106573,"Delta":137517954},{"NoteNumber":75,"Velocity":66,"Duration":212643,"SoundDuration":212643,"Delta":137517954},{"NoteNumber":63,"Velocity":38,"Duration":212643,"SoundDuration":212643,"Delta":137517954},{"NoteNumber":66,"Velocity":38,"Duration":212643,"SoundDuration":212643,"Delta":137517954},{"NoteNumber":69,"Velocity":48,"Duration":212643,"SoundDuration":212643,"Delta":137517954},{"NoteNumber":93,"Velocity":67,"Duration":106069,"SoundDuration":106069,"Delta":137624528},{"NoteNumber":86,"Velocity":66,"Duration":105820,"SoundDuration":105820,"Delta":137730598},{"NoteNumber":74,"Velocity":52,"Duration":212456,"SoundDuration":212456,"Delta":137730598},{"NoteNumber":78,"Velocity":60,"Duration":106635,"SoundDuration":106635,"Delta":137836418},{"NoteNumber":82,"Velocity":71,"Duration":106635,"SoundDuration":106635,"Delta":137836418},{"NoteNumber":81,"Velocity":64,"Duration":107142,"SoundDuration":107142,"Delta":137943054},{"NoteNumber":62,"Velocity":52,"Duration":214285,"SoundDuration":214285,"Delta":137943054},{"NoteNumber":74,"Velocity":64,"Duration":107142,"SoundDuration":107142,"Delta":138050197},{"NoteNumber":84,"Velocity":66,"Duration":110294,"SoundDuration":110294,"Delta":138157339},{"NoteNumber":79,"Velocity":56,"Duration":110294,"SoundDuration":110294,"Delta":138157339},{"NoteNumber":55,"Velocity":55,"Duration":110294,"SoundDuration":110294,"Delta":138157339},{"NoteNumber":82,"Velocity":60,"Duration":110293,"SoundDuration":110293,"Delta":138267633},{"NoteNumber":86,"Velocity":60,"Duration":112782,"SoundDuration":112782,"Delta":138377927},{"NoteNumber":62,"Velocity":51,"Duration":432207,"SoundDuration":432207,"Delta":138377927},{"NoteNumber":91,"Velocity":62,"Duration":107527,"SoundDuration":107527,"Delta":138490709},{"NoteNumber":96,"Velocity":74,"Duration":107527,"SoundDuration":107527,"Delta":138490709},{"NoteNumber":94,"Velocity":68,"Duration":106264,"SoundDuration":106264,"Delta":138598236},{"NoteNumber":74,"Velocity":51,"Duration":211898,"SoundDuration":211898,"Delta":138598236},{"NoteNumber":86,"Velocity":69,"Duration":105633,"SoundDuration":105633,"Delta":138704501},{"NoteNumber":94,"Velocity":71,"Duration":105633,"SoundDuration":105633,"Delta":138810135},{"NoteNumber":90,"Velocity":60,"Duration":105633,"SoundDuration":105633,"Delta":138810135},{"NoteNumber":66,"Velocity":38,"Duration":211144,"SoundDuration":211144,"Delta":138810135},{"NoteNumber":63,"Velocity":38,"Duration":211144,"SoundDuration":211144,"Delta":138810135},{"NoteNumber":75,"Velocity":66,"Duration":211144,"SoundDuration":211144,"Delta":138810135},{"NoteNumber":69,"Velocity":48,"Duration":211144,"SoundDuration":211144,"Delta":138810135},{"NoteNumber":93,"Velocity":64,"Duration":105510,"SoundDuration":105510,"Delta":138915769},{"NoteNumber":86,"Velocity":63,"Duration":105448,"SoundDuration":105448,"Delta":139021279},{"NoteNumber":74,"Velocity":50,"Duration":211518,"SoundDuration":211518,"Delta":139021279},{"NoteNumber":78,"Velocity":56,"Duration":106070,"SoundDuration":106070,"Delta":139126727},{"NoteNumber":82,"Velocity":66,"Duration":106070,"SoundDuration":106070,"Delta":139126727},{"NoteNumber":81,"Velocity":60,"Duration":106761,"SoundDuration":106761,"Delta":139232797},{"NoteNumber":62,"Velocity":53,"Duration":213523,"SoundDuration":213523,"Delta":139232797},{"NoteNumber":74,"Velocity":60,"Duration":106761,"SoundDuration":106761,"Delta":139339559},{"NoteNumber":79,"Velocity":56,"Duration":110294,"SoundDuration":110294,"Delta":139446320},{"NoteNumber":84,"Velocity":66,"Duration":110294,"SoundDuration":110294,"Delta":139446320},{"NoteNumber":55,"Velocity":55,"Duration":220587,"SoundDuration":220587,"Delta":139446320},{"NoteNumber":82,"Velocity":60,"Duration":110293,"SoundDuration":110293,"Delta":139556614},{"NoteNumber":86,"Velocity":60,"Duration":112782,"SoundDuration":112782,"Delta":139666908},{"NoteNumber":91,"Velocity":62,"Duration":107336,"SoundDuration":107336,"Delta":139779690},{"NoteNumber":96,"Velocity":74,"Duration":107336,"SoundDuration":107336,"Delta":139779690},{"NoteNumber":94,"Velocity":68,"Duration":106382,"SoundDuration":106382,"Delta":139887027},{"NoteNumber":50,"Velocity":51,"Duration":212765,"SoundDuration":212765,"Delta":139887027},{"NoteNumber":86,"Velocity":69,"Duration":106382,"SoundDuration":106382,"Delta":139993410},{"NoteNumber":94,"Velocity":71,"Duration":106383,"SoundDuration":106383,"Delta":140099793},{"NoteNumber":90,"Velocity":60,"Duration":106383,"SoundDuration":106383,"Delta":140099793},{"NoteNumber":54,"Velocity":38,"Duration":212766,"SoundDuration":212766,"Delta":140099793},{"NoteNumber":63,"Velocity":66,"Duration":212766,"SoundDuration":212766,"Delta":140099793},{"NoteNumber":57,"Velocity":48,"Duration":212766,"SoundDuration":212766,"Delta":140099793},{"NoteNumber":51,"Velocity":38,"Duration":212766,"SoundDuration":212766,"Delta":140099793},{"NoteNumber":93,"Velocity":64,"Duration":106382,"SoundDuration":106382,"Delta":140206176},{"NoteNumber":86,"Velocity":63,"Duration":106446,"SoundDuration":106446,"Delta":140312559},{"NoteNumber":62,"Velocity":50,"Duration":213334,"SoundDuration":213334,"Delta":140312559},{"NoteNumber":78,"Velocity":56,"Duration":106888,"SoundDuration":106888,"Delta":140419005},{"NoteNumber":82,"Velocity":66,"Duration":106888,"SoundDuration":106888,"Delta":140419005},{"NoteNumber":81,"Velocity":60,"Duration":107142,"SoundDuration":107142,"Delta":140525893},{"NoteNumber":50,"Velocity":53,"Duration":214285,"SoundDuration":214285,"Delta":140525893},{"NoteNumber":74,"Velocity":60,"Duration":107142,"SoundDuration":107142,"Delta":140633036},{"NoteNumber":72,"Velocity":59,"Duration":110294,"SoundDuration":110294,"Delta":140740179},{"NoteNumber":67,"Velocity":50,"Duration":110294,"SoundDuration":110294,"Delta":140740179},{"NoteNumber":43,"Velocity":49,"Duration":110294,"SoundDuration":110294,"Delta":140740179},{"NoteNumber":70,"Velocity":54,"Duration":110293,"SoundDuration":110293,"Delta":140850473},{"NoteNumber":74,"Velocity":54,"Duration":112782,"SoundDuration":112782,"Delta":140960767},{"NoteNumber":50,"Velocity":45,"Duration":435363,"SoundDuration":435363,"Delta":140960767},{"NoteNumber":84,"Velocity":66,"Duration":107527,"SoundDuration":107527,"Delta":141073549},{"NoteNumber":79,"Velocity":55,"Duration":107527,"SoundDuration":107527,"Delta":141073549},{"NoteNumber":82,"Velocity":61,"Duration":107527,"SoundDuration":107527,"Delta":141181076},{"NoteNumber":62,"Velocity":45,"Duration":215054,"SoundDuration":215054,"Delta":141181076},{"NoteNumber":74,"Velocity":62,"Duration":107527,"SoundDuration":107527,"Delta":141288603},{"NoteNumber":82,"Velocity":63,"Duration":107462,"SoundDuration":107462,"Delta":141396130},{"NoteNumber":78,"Velocity":54,"Duration":107462,"SoundDuration":107462,"Delta":141396130},{"NoteNumber":63,"Velocity":57,"Duration":214415,"SoundDuration":214415,"Delta":141396130},{"NoteNumber":51,"Velocity":34,"Duration":214415,"SoundDuration":214415,"Delta":141396130},{"NoteNumber":54,"Velocity":34,"Duration":214415,"SoundDuration":214415,"Delta":141396130},{"NoteNumber":57,"Velocity":42,"Duration":214415,"SoundDuration":214415,"Delta":141396130},{"NoteNumber":81,"Velocity":57,"Duration":106952,"SoundDuration":106952,"Delta":141503593},{"NoteNumber":74,"Velocity":56,"Duration":106572,"SoundDuration":106572,"Delta":141610545},{"NoteNumber":62,"Velocity":45,"Duration":213971,"SoundDuration":213971,"Delta":141610545},{"NoteNumber":70,"Velocity":59,"Duration":107399,"SoundDuration":107399,"Delta":141717117},{"NoteNumber":66,"Velocity":50,"Duration":107399,"SoundDuration":107399,"Delta":141717117},{"NoteNumber":69,"Velocity":54,"Duration":107913,"SoundDuration":107913,"Delta":141824517},{"NoteNumber":50,"Velocity":47,"Duration":215827,"SoundDuration":215827,"Delta":141824517},{"NoteNumber":62,"Velocity":54,"Duration":107913,"SoundDuration":107913,"Delta":141932430},{"NoteNumber":72,"Velocity":59,"Duration":110294,"SoundDuration":110294,"Delta":142040344},{"NoteNumber":67,"Velocity":50,"Duration":110294,"SoundDuration":110294,"Delta":142040344},{"NoteNumber":43,"Velocity":58,"Duration":220587,"SoundDuration":220587,"Delta":142040344},{"NoteNumber":70,"Velocity":54,"Duration":110293,"SoundDuration":110293,"Delta":142150638},{"NoteNumber":74,"Velocity":54,"Duration":112782,"SoundDuration":112782,"Delta":142260932},{"NoteNumber":58,"Velocity":45,"Duration":220309,"SoundDuration":220309,"Delta":142260932},{"NoteNumber":50,"Velocity":45,"Duration":220309,"SoundDuration":220309,"Delta":142260932},{"NoteNumber":84,"Velocity":59,"Duration":107527,"SoundDuration":107527,"Delta":142373714},{"NoteNumber":79,"Velocity":49,"Duration":107527,"SoundDuration":107527,"Delta":142373714},{"NoteNumber":82,"Velocity":54,"Duration":107527,"SoundDuration":107527,"Delta":142481241},{"NoteNumber":74,"Velocity":55,"Duration":111110,"SoundDuration":111110,"Delta":142588768},{"NoteNumber":81,"Velocity":56,"Duration":107527,"SoundDuration":107527,"Delta":142699879},{"NoteNumber":74,"Velocity":48,"Duration":107527,"SoundDuration":107527,"Delta":142699879},{"NoteNumber":37,"Velocity":46,"Duration":215054,"SoundDuration":215054,"Delta":142699879},{"NoteNumber":49,"Velocity":58,"Duration":215054,"SoundDuration":215054,"Delta":142699879},{"NoteNumber":79,"Velocity":51,"Duration":107527,"SoundDuration":107527,"Delta":142807406},{"NoteNumber":70,"Velocity":50,"Duration":107527,"SoundDuration":107527,"Delta":142914933},{"NoteNumber":38,"Velocity":39,"Duration":215053,"SoundDuration":215053,"Delta":142914933},{"NoteNumber":50,"Velocity":45,"Duration":215053,"SoundDuration":215053,"Delta":142914933},{"NoteNumber":75,"Velocity":53,"Duration":107526,"SoundDuration":107526,"Delta":143022460},{"NoteNumber":70,"Velocity":45,"Duration":107526,"SoundDuration":107526,"Delta":143022460},{"NoteNumber":74,"Velocity":48,"Duration":107527,"SoundDuration":107527,"Delta":143129987},{"NoteNumber":67,"Velocity":48,"Duration":107527,"SoundDuration":107527,"Delta":143237514},{"NoteNumber":72,"Velocity":45,"Duration":110294,"SoundDuration":110294,"Delta":143345041},{"NoteNumber":67,"Velocity":38,"Duration":110294,"SoundDuration":110294,"Delta":143345041},{"NoteNumber":43,"Velocity":49,"Duration":220587,"SoundDuration":220587,"Delta":143345041},{"NoteNumber":31,"Velocity":49,"Duration":220587,"SoundDuration":220587,"Delta":143345041},{"NoteNumber":70,"Velocity":40,"Duration":110293,"SoundDuration":110293,"Delta":143455335},{"NoteNumber":62,"Velocity":40,"Duration":112782,"SoundDuration":112782,"Delta":143565629},{"NoteNumber":46,"Velocity":38,"Duration":220309,"SoundDuration":220309,"Delta":143565629},{"NoteNumber":62,"Velocity":41,"Duration":107527,"SoundDuration":107527,"Delta":143678411},{"NoteNumber":69,"Velocity":50,"Duration":107527,"SoundDuration":107527,"Delta":143678411},{"NoteNumber":67,"Velocity":45,"Duration":107527,"SoundDuration":107527,"Delta":143785938},{"NoteNumber":58,"Velocity":46,"Duration":111524,"SoundDuration":111524,"Delta":143893465},{"NoteNumber":63,"Velocity":47,"Duration":107527,"SoundDuration":107527,"Delta":144004989},{"NoteNumber":58,"Velocity":40,"Duration":107527,"SoundDuration":107527,"Delta":144004989},{"NoteNumber":37,"Velocity":49,"Duration":215054,"SoundDuration":215054,"Delta":144004989},{"NoteNumber":62,"Velocity":43,"Duration":107527,"SoundDuration":107527,"Delta":144112516},{"NoteNumber":55,"Velocity":42,"Duration":107527,"SoundDuration":107527,"Delta":144220043},{"NoteNumber":38,"Velocity":38,"Duration":215053,"SoundDuration":215053,"Delta":144220043},{"NoteNumber":55,"Velocity":38,"Duration":107526,"SoundDuration":107526,"Delta":144327570},{"NoteNumber":60,"Velocity":45,"Duration":107526,"SoundDuration":107526,"Delta":144327570},{"NoteNumber":58,"Velocity":40,"Duration":107527,"SoundDuration":107527,"Delta":144435097},{"NoteNumber":50,"Velocity":40,"Duration":109488,"SoundDuration":109488,"Delta":144542624},{"NoteNumber":55,"Velocity":45,"Duration":110294,"SoundDuration":110294,"Delta":144652113},{"NoteNumber":60,"Velocity":53,"Duration":110294,"SoundDuration":110294,"Delta":144652113},{"NoteNumber":43,"Velocity":49,"Duration":220587,"SoundDuration":220587,"Delta":144652113},{"NoteNumber":31,"Velocity":49,"Duration":220587,"SoundDuration":220587,"Delta":144652113},{"NoteNumber":58,"Velocity":48,"Duration":110293,"SoundDuration":110293,"Delta":144762407},{"NoteNumber":50,"Velocity":48,"Duration":112782,"SoundDuration":112782,"Delta":144872701},{"NoteNumber":55,"Velocity":46,"Duration":107527,"SoundDuration":107527,"Delta":144985483},{"NoteNumber":62,"Velocity":55,"Duration":107527,"SoundDuration":107527,"Delta":144985483},{"NoteNumber":60,"Velocity":50,"Duration":107527,"SoundDuration":107527,"Delta":145093010},{"NoteNumber":36,"Velocity":45,"Duration":219051,"SoundDuration":219051,"Delta":145093010},{"NoteNumber":51,"Velocity":51,"Duration":111524,"SoundDuration":111524,"Delta":145200537},{"NoteNumber":55,"Velocity":45,"Duration":107527,"SoundDuration":107527,"Delta":145312062},{"NoteNumber":60,"Velocity":54,"Duration":107527,"SoundDuration":107527,"Delta":145312062},{"NoteNumber":31,"Velocity":49,"Duration":215054,"SoundDuration":215054,"Delta":145312062},{"NoteNumber":43,"Velocity":49,"Duration":215054,"SoundDuration":215054,"Delta":145312062},{"NoteNumber":58,"Velocity":50,"Duration":107527,"SoundDuration":107527,"Delta":145419589},{"NoteNumber":50,"Velocity":50,"Duration":107527,"SoundDuration":107527,"Delta":145527116},{"NoteNumber":55,"Velocity":45,"Duration":107526,"SoundDuration":107526,"Delta":145634643},{"NoteNumber":62,"Velocity":53,"Duration":107526,"SoundDuration":107526,"Delta":145634643},{"NoteNumber":60,"Velocity":48,"Duration":107527,"SoundDuration":107527,"Delta":145742170},{"NoteNumber":36,"Velocity":45,"Duration":218228,"SoundDuration":218228,"Delta":145742170},{"NoteNumber":51,"Velocity":48,"Duration":110701,"SoundDuration":110701,"Delta":145849697},{"NoteNumber":55,"Velocity":45,"Duration":110294,"SoundDuration":110294,"Delta":145960398},{"NoteNumber":60,"Velocity":53,"Duration":110294,"SoundDuration":110294,"Delta":145960398},{"NoteNumber":31,"Velocity":49,"Duration":220587,"SoundDuration":220587,"Delta":145960398},{"NoteNumber":43,"Velocity":49,"Duration":220587,"SoundDuration":220587,"Delta":145960398},{"NoteNumber":58,"Velocity":48,"Duration":110293,"SoundDuration":110293,"Delta":146070692},{"NoteNumber":50,"Velocity":48,"Duration":112782,"SoundDuration":112782,"Delta":146180986},{"NoteNumber":62,"Velocity":55,"Duration":107527,"SoundDuration":107527,"Delta":146293768},{"NoteNumber":55,"Velocity":46,"Duration":107527,"SoundDuration":107527,"Delta":146293768},{"NoteNumber":60,"Velocity":50,"Duration":107527,"SoundDuration":107527,"Delta":146401295},{"NoteNumber":36,"Velocity":45,"Duration":219051,"SoundDuration":219051,"Delta":146401295},{"NoteNumber":51,"Velocity":51,"Duration":111524,"SoundDuration":111524,"Delta":146508822},{"NoteNumber":55,"Velocity":45,"Duration":107527,"SoundDuration":107527,"Delta":146620346},{"NoteNumber":60,"Velocity":54,"Duration":107527,"SoundDuration":107527,"Delta":146620346},{"NoteNumber":43,"Velocity":49,"Duration":215054,"SoundDuration":215054,"Delta":146620346},{"NoteNumber":31,"Velocity":49,"Duration":215054,"SoundDuration":215054,"Delta":146620346},{"NoteNumber":58,"Velocity":50,"Duration":107527,"SoundDuration":107527,"Delta":146727873},{"NoteNumber":50,"Velocity":50,"Duration":107527,"SoundDuration":107527,"Delta":146835400},{"NoteNumber":62,"Velocity":53,"Duration":107526,"SoundDuration":107526,"Delta":146942927},{"NoteNumber":55,"Velocity":45,"Duration":107526,"SoundDuration":107526,"Delta":146942927},{"NoteNumber":60,"Velocity":48,"Duration":107527,"SoundDuration":107527,"Delta":147050454},{"NoteNumber":36,"Velocity":45,"Duration":218228,"SoundDuration":218228,"Delta":147050454},{"NoteNumber":51,"Velocity":48,"Duration":110701,"SoundDuration":110701,"Delta":147157981},{"NoteNumber":55,"Velocity":50,"Duration":115607,"SoundDuration":115607,"Delta":147268682},{"NoteNumber":31,"Velocity":41,"Duration":678548,"SoundDuration":678548,"Delta":147268682},{"NoteNumber":43,"Velocity":49,"Duration":678548,"SoundDuration":678548,"Delta":147268682},{"NoteNumber":62,"Velocity":51,"Duration":114577,"SoundDuration":114577,"Delta":147384289},{"NoteNumber":58,"Velocity":52,"Duration":113565,"SoundDuration":113565,"Delta":147498867},{"NoteNumber":62,"Velocity":53,"Duration":112570,"SoundDuration":112570,"Delta":147612432},{"NoteNumber":67,"Velocity":55,"Duration":111594,"SoundDuration":111594,"Delta":147725003},{"NoteNumber":70,"Velocity":56,"Duration":110633,"SoundDuration":110633,"Delta":147836597},{"NoteNumber":74,"Velocity":57,"Duration":110159,"SoundDuration":110159,"Delta":147947230},{"NoteNumber":79,"Velocity":58,"Duration":111180,"SoundDuration":111180,"Delta":148057390},{"NoteNumber":82,"Velocity":59,"Duration":112290,"SoundDuration":112290,"Delta":148168571},{"NoteNumber":62,"Velocity":48,"Duration":206701,"SoundDuration":206701,"Delta":148168571},{"NoteNumber":67,"Velocity":57,"Duration":206701,"SoundDuration":206701,"Delta":148168571},{"NoteNumber":86,"Velocity":61,"Duration":113423,"SoundDuration":113423,"Delta":148280861},{"NoteNumber":91,"Velocity":62,"Duration":118576,"SoundDuration":118576,"Delta":148394284},{"NoteNumber":62,"Velocity":53,"Duration":217391,"SoundDuration":217391,"Delta":148394284},{"NoteNumber":55,"Velocity":45,"Duration":217391,"SoundDuration":217391,"Delta":148394284},{"NoteNumber":98,"Velocity":63,"Duration":118577,"SoundDuration":118577,"Delta":148512861},{"NoteNumber":94,"Velocity":63,"Duration":116684,"SoundDuration":116684,"Delta":148631438},{"NoteNumber":62,"Velocity":48,"Duration":461307,"SoundDuration":461307,"Delta":148631438},{"NoteNumber":67,"Velocity":57,"Duration":461307,"SoundDuration":461307,"Delta":148631438},{"NoteNumber":98,"Velocity":60,"Duration":115756,"SoundDuration":115756,"Delta":148748122},{"NoteNumber":91,"Velocity":59,"Duration":114869,"SoundDuration":114869,"Delta":148863878},{"NoteNumber":86,"Velocity":58,"Duration":113996,"SoundDuration":113996,"Delta":148978748},{"NoteNumber":82,"Velocity":58,"Duration":113137,"SoundDuration":113137,"Delta":149092745},{"NoteNumber":79,"Velocity":57,"Duration":112290,"SoundDuration":112290,"Delta":149205882},{"NoteNumber":74,"Velocity":56,"Duration":111802,"SoundDuration":111802,"Delta":149318173},{"NoteNumber":70,"Velocity":56,"Duration":112783,"SoundDuration":112783,"Delta":149429975},{"NoteNumber":67,"Velocity":55,"Duration":113924,"SoundDuration":113924,"Delta":149542758},{"NoteNumber":62,"Velocity":54,"Duration":114943,"SoundDuration":114943,"Delta":149656683},{"NoteNumber":58,"Velocity":53,"Duration":123966,"SoundDuration":123966,"Delta":149771626},{"NoteNumber":38,"Velocity":49,"Duration":247933,"SoundDuration":247933,"Delta":149771626},{"NoteNumber":50,"Velocity":53,"Duration":123966,"SoundDuration":123966,"Delta":149895593},{"NoteNumber":55,"Velocity":49,"Duration":119767,"SoundDuration":119767,"Delta":150019560},{"NoteNumber":31,"Velocity":44,"Duration":1187686,"SoundDuration":1187686,"Delta":150019560},{"NoteNumber":43,"Velocity":52,"Duration":1187686,"SoundDuration":1187686,"Delta":150019560},{"NoteNumber":62,"Velocity":50,"Duration":118149,"SoundDuration":118149,"Delta":150139327},{"NoteNumber":58,"Velocity":52,"Duration":117284,"SoundDuration":117284,"Delta":150257477},{"NoteNumber":62,"Velocity":54,"Duration":116292,"SoundDuration":116292,"Delta":150374762},{"NoteNumber":67,"Velocity":55,"Duration":115451,"SoundDuration":115451,"Delta":150491054},{"NoteNumber":74,"Velocity":57,"Duration":114631,"SoundDuration":114631,"Delta":150606506},{"NoteNumber":70,"Velocity":57,"Duration":116088,"SoundDuration":116088,"Delta":150721137},{"NoteNumber":74,"Velocity":56,"Duration":119553,"SoundDuration":119553,"Delta":150837225},{"NoteNumber":67,"Velocity":54,"Duration":123235,"SoundDuration":123235,"Delta":150956779},{"NoteNumber":62,"Velocity":53,"Duration":127232,"SoundDuration":127232,"Delta":151080014},{"NoteNumber":58,"Velocity":51,"Duration":129310,"SoundDuration":129310,"Delta":151207247},{"NoteNumber":38,"Velocity":47,"Duration":258620,"SoundDuration":258620,"Delta":151207247},{"NoteNumber":50,"Velocity":49,"Duration":129310,"SoundDuration":129310,"Delta":151336557},{"NoteNumber":54,"Velocity":49,"Duration":120216,"SoundDuration":120216,"Delta":151465868},{"NoteNumber":30,"Velocity":44,"Duration":1205415,"SoundDuration":1205415,"Delta":151465868},{"NoteNumber":42,"Velocity":52,"Duration":1205415,"SoundDuration":1205415,"Delta":151465868},{"NoteNumber":62,"Velocity":50,"Duration":119179,"SoundDuration":119179,"Delta":151586084},{"NoteNumber":58,"Velocity":52,"Duration":118223,"SoundDuration":118223,"Delta":151705264},{"NoteNumber":62,"Velocity":54,"Duration":117284,"SoundDuration":117284,"Delta":151823487},{"NoteNumber":66,"Velocity":55,"Duration":117144,"SoundDuration":117144,"Delta":151940771},{"NoteNumber":74,"Velocity":57,"Duration":118958,"SoundDuration":118958,"Delta":152057916},{"NoteNumber":70,"Velocity":57,"Duration":120749,"SoundDuration":120749,"Delta":152176874},{"NoteNumber":74,"Velocity":56,"Duration":122599,"SoundDuration":122599,"Delta":152297623},{"NoteNumber":66,"Velocity":54,"Duration":124504,"SoundDuration":124504,"Delta":152420223},{"NoteNumber":62,"Velocity":53,"Duration":126555,"SoundDuration":126555,"Delta":152544727},{"NoteNumber":58,"Velocity":51,"Duration":129870,"SoundDuration":129870,"Delta":152671283},{"NoteNumber":38,"Velocity":47,"Duration":259740,"SoundDuration":259740,"Delta":152671283},{"NoteNumber":50,"Velocity":49,"Duration":129870,"SoundDuration":129870,"Delta":152801153},{"NoteNumber":55,"Velocity":50,"Duration":117859,"SoundDuration":117859,"Delta":152931024},{"NoteNumber":43,"Velocity":49,"Duration":695532,"SoundDuration":695532,"Delta":152931024},{"NoteNumber":31,"Velocity":41,"Duration":695532,"SoundDuration":695532,"Delta":152931024},{"NoteNumber":62,"Velocity":51,"Duration":117072,"SoundDuration":117072,"Delta":153048883},{"NoteNumber":58,"Velocity":52,"Duration":116292,"SoundDuration":116292,"Delta":153165955},{"NoteNumber":62,"Velocity":53,"Duration":115521,"SoundDuration":115521,"Delta":153282248},{"NoteNumber":67,"Velocity":55,"Duration":114835,"SoundDuration":114835,"Delta":153397769},{"NoteNumber":70,"Velocity":56,"Duration":113951,"SoundDuration":113951,"Delta":153512605},{"NoteNumber":74,"Velocity":57,"Duration":113141,"SoundDuration":113141,"Delta":153626556},{"NoteNumber":79,"Velocity":58,"Duration":113949,"SoundDuration":113949,"Delta":153739698},{"NoteNumber":82,"Velocity":59,"Duration":114903,"SoundDuration":114903,"Delta":153853647},{"NoteNumber":55,"Velocity":57,"Duration":211287,"SoundDuration":211287,"Delta":153853647},{"NoteNumber":50,"Velocity":48,"Duration":211287,"SoundDuration":211287,"Delta":153853647},{"NoteNumber":86,"Velocity":61,"Duration":115731,"SoundDuration":115731,"Delta":153968551},{"NoteNumber":91,"Velocity":62,"Duration":119550,"SoundDuration":119550,"Delta":154084282},{"NoteNumber":43,"Velocity":45,"Duration":219175,"SoundDuration":219175,"Delta":154084282},{"NoteNumber":50,"Velocity":53,"Duration":219175,"SoundDuration":219175,"Delta":154084282},{"NoteNumber":98,"Velocity":63,"Duration":119550,"SoundDuration":119550,"Delta":154203832},{"NoteNumber":94,"Velocity":63,"Duration":117212,"SoundDuration":117212,"Delta":154323383},{"NoteNumber":50,"Velocity":48,"Duration":465044,"SoundDuration":465044,"Delta":154323383},{"NoteNumber":55,"Velocity":57,"Duration":465044,"SoundDuration":465044,"Delta":154323383},{"NoteNumber":98,"Velocity":60,"Duration":116647,"SoundDuration":116647,"Delta":154440595},{"NoteNumber":91,"Velocity":59,"Duration":115940,"SoundDuration":115940,"Delta":154557242},{"NoteNumber":86,"Velocity":58,"Duration":115244,"SoundDuration":115244,"Delta":154673183},{"NoteNumber":82,"Velocity":58,"Duration":114631,"SoundDuration":114631,"Delta":154788428},{"NoteNumber":79,"Velocity":57,"Duration":114016,"SoundDuration":114016,"Delta":154903059},{"NoteNumber":74,"Velocity":56,"Duration":115043,"SoundDuration":115043,"Delta":155017076},{"NoteNumber":70,"Velocity":56,"Duration":117576,"SoundDuration":117576,"Delta":155132120},{"NoteNumber":67,"Velocity":55,"Duration":120224,"SoundDuration":120224,"Delta":155249696},{"NoteNumber":62,"Velocity":54,"Duration":121644,"SoundDuration":121644,"Delta":155369920},{"NoteNumber":58,"Velocity":53,"Duration":133499,"SoundDuration":133499,"Delta":155491565},{"NoteNumber":38,"Velocity":49,"Duration":266998,"SoundDuration":266998,"Delta":155491565},{"NoteNumber":50,"Velocity":53,"Duration":133499,"SoundDuration":133499,"Delta":155625064},{"NoteNumber":54,"Velocity":49,"Duration":123383,"SoundDuration":123383,"Delta":155758564},{"NoteNumber":42,"Velocity":52,"Duration":1210615,"SoundDuration":1210615,"Delta":155758564},{"NoteNumber":30,"Velocity":44,"Duration":1210615,"SoundDuration":1210615,"Delta":155758564},{"NoteNumber":62,"Velocity":50,"Duration":122132,"SoundDuration":122132,"Delta":155881947},{"NoteNumber":58,"Velocity":52,"Duration":120900,"SoundDuration":120900,"Delta":156004080},{"NoteNumber":62,"Velocity":54,"Duration":119696,"SoundDuration":119696,"Delta":156124981},{"NoteNumber":66,"Velocity":55,"Duration":118515,"SoundDuration":118515,"Delta":156244677},{"NoteNumber":74,"Velocity":57,"Duration":117356,"SoundDuration":117356,"Delta":156363192},{"NoteNumber":70,"Velocity":57,"Duration":118009,"SoundDuration":118009,"Delta":156480549},{"NoteNumber":74,"Velocity":56,"Duration":120677,"SoundDuration":120677,"Delta":156598559},{"NoteNumber":66,"Velocity":54,"Duration":123468,"SoundDuration":123468,"Delta":156719236},{"NoteNumber":62,"Velocity":53,"Duration":126474,"SoundDuration":126474,"Delta":156842705},{"NoteNumber":58,"Velocity":51,"Duration":143034,"SoundDuration":143034,"Delta":156969179},{"NoteNumber":38,"Velocity":47,"Duration":286068,"SoundDuration":286068,"Delta":156969179},{"NoteNumber":50,"Velocity":49,"Duration":143034,"SoundDuration":143034,"Delta":157112214},{"NoteNumber":53,"Velocity":49,"Duration":129189,"SoundDuration":129189,"Delta":157255248},{"NoteNumber":41,"Velocity":52,"Duration":1275227,"SoundDuration":1275227,"Delta":157255248},{"NoteNumber":29,"Velocity":44,"Duration":2127971,"SoundDuration":2127971,"Delta":157255248},{"NoteNumber":62,"Velocity":50,"Duration":127646,"SoundDuration":127646,"Delta":157384437},{"NoteNumber":58,"Velocity":52,"Duration":125888,"SoundDuration":125888,"Delta":157512084},{"NoteNumber":62,"Velocity":54,"Duration":124424,"SoundDuration":124424,"Delta":157637972},{"NoteNumber":65,"Velocity":55,"Duration":123702,"SoundDuration":123702,"Delta":157762396},{"NoteNumber":74,"Velocity":57,"Duration":125395,"SoundDuration":125395,"Delta":157886099},{"NoteNumber":70,"Velocity":57,"Duration":127058,"SoundDuration":127058,"Delta":158011494},{"NoteNumber":74,"Velocity":56,"Duration":128842,"SoundDuration":128842,"Delta":158138552},{"NoteNumber":65,"Velocity":54,"Duration":130594,"SoundDuration":130594,"Delta":158267395},{"NoteNumber":62,"Velocity":53,"Duration":132486,"SoundDuration":132486,"Delta":158397990},{"NoteNumber":58,"Velocity":51,"Duration":157051,"SoundDuration":157051,"Delta":158530476},{"NoteNumber":43,"Velocity":47,"Duration":310746,"SoundDuration":310746,"Delta":158530476},{"NoteNumber":50,"Velocity":49,"Duration":153694,"SoundDuration":153694,"Delta":158687527},{"NoteNumber":53,"Velocity":50,"Duration":136720,"SoundDuration":136720,"Delta":158841222},{"NoteNumber":45,"Velocity":49,"Duration":541997,"SoundDuration":541997,"Delta":158841222},{"NoteNumber":60,"Velocity":51,"Duration":135952,"SoundDuration":135952,"Delta":158977942},{"NoteNumber":57,"Velocity":52,"Duration":134993,"SoundDuration":134993,"Delta":159113895},{"NoteNumber":60,"Velocity":53,"Duration":134330,"SoundDuration":134330,"Delta":159248888},{"NoteNumber":65,"Velocity":55,"Duration":133498,"SoundDuration":133498,"Delta":159383219},{"NoteNumber":69,"Velocity":56,"Duration":132667,"SoundDuration":132667,"Delta":159516718},{"NoteNumber":72,"Velocity":57,"Duration":133039,"SoundDuration":133039,"Delta":159649385},{"NoteNumber":77,"Velocity":58,"Duration":137322,"SoundDuration":137322,"Delta":159782424},{"NoteNumber":81,"Velocity":59,"Duration":142200,"SoundDuration":142200,"Delta":159919746},{"NoteNumber":60,"Velocity":44,"Duration":264682,"SoundDuration":264682,"Delta":159919746},{"NoteNumber":65,"Velocity":52,"Duration":264682,"SoundDuration":264682,"Delta":159919746},{"NoteNumber":84,"Velocity":61,"Duration":147435,"SoundDuration":147435,"Delta":160061947},{"NoteNumber":89,"Velocity":62,"Duration":151133,"SoundDuration":151133,"Delta":160209382},{"NoteNumber":60,"Velocity":44,"Duration":277078,"SoundDuration":277078,"Delta":160209382},{"NoteNumber":53,"Velocity":36,"Duration":277078,"SoundDuration":277078,"Delta":160209382},{"NoteNumber":93,"Velocity":63,"Duration":151133,"SoundDuration":151133,"Delta":160360515},{"NoteNumber":101,"Velocity":63,"Duration":271492,"SoundDuration":271492,"Delta":160511649},{"NoteNumber":65,"Velocity":52,"Duration":1357464,"SoundDuration":1357464,"Delta":160511649},{"NoteNumber":60,"Velocity":44,"Duration":1357464,"SoundDuration":1357464,"Delta":160511649},{"NoteNumber":53,"Velocity":35,"Duration":327868,"SoundDuration":327868,"Delta":161869114},{"NoteNumber":60,"Velocity":41,"Duration":327868,"SoundDuration":327868,"Delta":161869114},{"NoteNumber":65,"Velocity":46,"Duration":1691746,"SoundDuration":1691746,"Delta":162196983},{"NoteNumber":60,"Velocity":39,"Duration":1691746,"SoundDuration":1691746,"Delta":162196983},{"NoteNumber":53,"Velocity":31,"Duration":375046,"SoundDuration":375046,"Delta":163888730},{"NoteNumber":60,"Velocity":36,"Duration":375046,"SoundDuration":375046,"Delta":163888730},{"NoteNumber":60,"Velocity":34,"Duration":797141,"SoundDuration":797141,"Delta":164263776},{"NoteNumber":65,"Velocity":40,"Duration":797141,"SoundDuration":797141,"Delta":164263776},{"NoteNumber":53,"Velocity":28,"Duration":424089,"SoundDuration":424089,"Delta":165060918},{"NoteNumber":60,"Velocity":34,"Duration":424089,"SoundDuration":424089,"Delta":165060918},{"NoteNumber":65,"Velocity":37,"Duration":444257,"SoundDuration":444257,"Delta":165485008},{"NoteNumber":60,"Velocity":31,"Duration":444257,"SoundDuration":444257,"Delta":165485008},{"NoteNumber":53,"Velocity":30,"Duration":445363,"SoundDuration":445363,"Delta":165929265},{"NoteNumber":60,"Velocity":36,"Duration":445363,"SoundDuration":445363,"Delta":165929265},{"NoteNumber":60,"Velocity":30,"Duration":1785360,"SoundDuration":1785360,"Delta":166394470},{"NoteNumber":65,"Velocity":36,"Duration":1785360,"SoundDuration":1785360,"Delta":166394470},{"NoteNumber":34,"Velocity":36,"Duration":474833,"SoundDuration":474833,"Delta":166879516},{"NoteNumber":46,"Velocity":29,"Duration":412740,"SoundDuration":412740,"Delta":167354350},{"NoteNumber":56,"Velocity":29,"Duration":412739,"SoundDuration":412739,"Delta":167767090},{"NoteNumber":62,"Velocity":34,"Duration":1188912,"SoundDuration":1188912,"Delta":168179830},{"NoteNumber":67,"Velocity":42,"Duration":793577,"SoundDuration":793577,"Delta":168179830},{"NoteNumber":53,"Velocity":31,"Duration":402928,"SoundDuration":402928,"Delta":168179830},{"NoteNumber":60,"Velocity":31,"Duration":390649,"SoundDuration":390649,"Delta":168582758},{"NoteNumber":67,"Velocity":37,"Duration":395334,"SoundDuration":395334,"Delta":168973408},{"NoteNumber":58,"Velocity":31,"Duration":395334,"SoundDuration":395334,"Delta":168973408},{"NoteNumber":63,"Velocity":42,"Duration":1555627,"SoundDuration":1555627,"Delta":169368743},{"NoteNumber":39,"Velocity":36,"Duration":395335,"SoundDuration":395335,"Delta":169368743},{"NoteNumber":46,"Velocity":27,"Duration":388023,"SoundDuration":388023,"Delta":169764078},{"NoteNumber":51,"Velocity":26,"Duration":388023,"SoundDuration":388023,"Delta":170152101},{"NoteNumber":55,"Velocity":32,"Duration":384245,"SoundDuration":384245,"Delta":170540124},{"NoteNumber":75,"Velocity":50,"Duration":578742,"SoundDuration":578742,"Delta":170924370},{"NoteNumber":58,"Velocity":31,"Duration":379579,"SoundDuration":379579,"Delta":170924370},{"NoteNumber":63,"Velocity":31,"Duration":406174,"SoundDuration":406174,"Delta":171303949},{"NoteNumber":74,"Velocity":40,"Duration":207010,"SoundDuration":207010,"Delta":171503113},{"NoteNumber":67,"Velocity":33,"Duration":1167470,"SoundDuration":1167470,"Delta":171710124},{"NoteNumber":72,"Velocity":49,"Duration":1167470,"SoundDuration":1167470,"Delta":171710124},{"NoteNumber":60,"Velocity":33,"Duration":395334,"SoundDuration":395334,"Delta":171710124},{"NoteNumber":63,"Velocity":30,"Duration":389458,"SoundDuration":389458,"Delta":172105459},{"NoteNumber":53,"Velocity":25,"Duration":382677,"SoundDuration":382677,"Delta":172494918},{"NoteNumber":74,"Velocity":48,"Duration":786006,"SoundDuration":786006,"Delta":172877595},{"NoteNumber":69,"Velocity":37,"Duration":1188934,"SoundDuration":1188934,"Delta":172877595},{"NoteNumber":63,"Velocity":33,"Duration":401364,"SoundDuration":401364,"Delta":172877595},{"NoteNumber":67,"Velocity":30,"Duration":384641,"SoundDuration":384641,"Delta":173278960},{"NoteNumber":74,"Velocity":37,"Duration":402928,"SoundDuration":402928,"Delta":173663601},{"NoteNumber":65,"Velocity":30,"Duration":402928,"SoundDuration":402928,"Delta":173663601},{"NoteNumber":70,"Velocity":40,"Duration":1190692,"SoundDuration":1190692,"Delta":174066529},{"NoteNumber":46,"Velocity":36,"Duration":402928,"SoundDuration":402928,"Delta":174066529},{"NoteNumber":53,"Velocity":29,"Duration":393881,"SoundDuration":393881,"Delta":174469457},{"NoteNumber":58,"Velocity":29,"Duration":393882,"SoundDuration":393882,"Delta":174863339},{"NoteNumber":82,"Velocity":60,"Duration":780978,"SoundDuration":780978,"Delta":175257221},{"NoteNumber":62,"Velocity":32,"Duration":393881,"SoundDuration":393881,"Delta":175257221},{"NoteNumber":65,"Velocity":32,"Duration":387096,"SoundDuration":387096,"Delta":175651103},{"NoteNumber":82,"Velocity":56,"Duration":413024,"SoundDuration":413024,"Delta":176038200},{"NoteNumber":70,"Velocity":32,"Duration":413024,"SoundDuration":413024,"Delta":176038200},{"NoteNumber":82,"Velocity":59,"Duration":785854,"SoundDuration":785854,"Delta":176451224},{"NoteNumber":60,"Velocity":36,"Duration":396825,"SoundDuration":396825,"Delta":176451224},{"NoteNumber":63,"Velocity":30,"Duration":389028,"SoundDuration":389028,"Delta":176848049},{"NoteNumber":80,"Velocity":55,"Duration":385477,"SoundDuration":385477,"Delta":177237078},{"NoteNumber":53,"Velocity":30,"Duration":407553,"SoundDuration":407553,"Delta":177237078},{"NoteNumber":80,"Velocity":59,"Duration":380745,"SoundDuration":380745,"Delta":177644631},{"NoteNumber":58,"Velocity":33,"Duration":380745,"SoundDuration":380745,"Delta":177644631},{"NoteNumber":79,"Velocity":56,"Duration":387882,"SoundDuration":387882,"Delta":178025376},{"NoteNumber":62,"Velocity":26,"Duration":387882,"SoundDuration":387882,"Delta":178025376},{"NoteNumber":78,"Velocity":55,"Duration":397566,"SoundDuration":397566,"Delta":178413259},{"NoteNumber":68,"Velocity":28,"Duration":414851,"SoundDuration":414851,"Delta":178413259},{"NoteNumber":78,"Velocity":58,"Duration":790670,"SoundDuration":790670,"Delta":178828111},{"NoteNumber":58,"Velocity":36,"Duration":395334,"SoundDuration":395334,"Delta":178828111},{"NoteNumber":62,"Velocity":29,"Duration":395335,"SoundDuration":395335,"Delta":179223446},{"NoteNumber":79,"Velocity":56,"Duration":801344,"SoundDuration":801344,"Delta":179618781},{"NoteNumber":51,"Velocity":29,"Duration":395334,"SoundDuration":395334,"Delta":179618781},{"NoteNumber":56,"Velocity":28,"Duration":406009,"SoundDuration":406009,"Delta":180014116},{"NoteNumber":80,"Velocity":62,"Duration":589206,"SoundDuration":589206,"Delta":180420125},{"NoteNumber":60,"Velocity":29,"Duration":393881,"SoundDuration":393881,"Delta":180420125},{"NoteNumber":67,"Velocity":29,"Duration":400720,"SoundDuration":400720,"Delta":180814007},{"NoteNumber":75,"Velocity":56,"Duration":205395,"SoundDuration":205395,"Delta":181009332},{"NoteNumber":79,"Velocity":59,"Duration":793778,"SoundDuration":793778,"Delta":181214727},{"NoteNumber":56,"Velocity":36,"Duration":401364,"SoundDuration":401364,"Delta":181214727},{"NoteNumber":60,"Velocity":31,"Duration":392413,"SoundDuration":392413,"Delta":181616092},{"NoteNumber":77,"Velocity":50,"Duration":792395,"SoundDuration":792395,"Delta":182008505},{"NoteNumber":50,"Velocity":32,"Duration":392413,"SoundDuration":392413,"Delta":182008505},{"NoteNumber":55,"Velocity":30,"Duration":399982,"SoundDuration":399982,"Delta":182400918},{"NoteNumber":79,"Velocity":59,"Duration":588619,"SoundDuration":588619,"Delta":182800901},{"NoteNumber":59,"Velocity":36,"Duration":392413,"SoundDuration":392413,"Delta":182800901},{"NoteNumber":65,"Velocity":30,"Duration":398417,"SoundDuration":398417,"Delta":183193314},{"NoteNumber":74,"Velocity":53,"Duration":202211,"SoundDuration":202211,"Delta":183389520},{"NoteNumber":77,"Velocity":59,"Duration":381122,"SoundDuration":381122,"Delta":183591731},{"NoteNumber":55,"Velocity":36,"Duration":381122,"SoundDuration":381122,"Delta":183591731},{"NoteNumber":75,"Velocity":55,"Duration":390649,"SoundDuration":390649,"Delta":183972853},{"NoteNumber":60,"Velocity":31,"Duration":390649,"SoundDuration":390649,"Delta":183972853},{"NoteNumber":74,"Velocity":55,"Duration":390649,"SoundDuration":390649,"Delta":184363503},{"NoteNumber":48,"Velocity":31,"Duration":390649,"SoundDuration":390649,"Delta":184363503},{"NoteNumber":72,"Velocity":55,"Duration":130216,"SoundDuration":130216,"Delta":184754153},{"NoteNumber":53,"Velocity":33,"Duration":390650,"SoundDuration":390650,"Delta":184754153},{"NoteNumber":74,"Velocity":50,"Duration":130216,"SoundDuration":130216,"Delta":184884370},{"NoteNumber":72,"Velocity":50,"Duration":130216,"SoundDuration":130216,"Delta":185014586},{"NoteNumber":71,"Velocity":53,"Duration":196321,"SoundDuration":196321,"Delta":185144803},{"NoteNumber":57,"Velocity":33,"Duration":395237,"SoundDuration":395237,"Delta":185144803},{"NoteNumber":72,"Velocity":50,"Duration":198915,"SoundDuration":198915,"Delta":185341124},{"NoteNumber":74,"Velocity":50,"Duration":201709,"SoundDuration":201709,"Delta":185540040},{"NoteNumber":63,"Velocity":33,"Duration":405894,"SoundDuration":405894,"Delta":185540040},{"NoteNumber":75,"Velocity":50,"Duration":153039,"SoundDuration":153039,"Delta":185741749},{"NoteNumber":60,"Velocity":30,"Duration":1269172,"SoundDuration":1269172,"Delta":185894789},{"NoteNumber":65,"Velocity":36,"Duration":1218027,"SoundDuration":1218027,"Delta":185945935},{"NoteNumber":53,"Velocity":36,"Duration":406009,"SoundDuration":406009,"Delta":185945935},{"NoteNumber":56,"Velocity":29,"Duration":406008,"SoundDuration":406008,"Delta":186351944},{"NoteNumber":46,"Velocity":29,"Duration":406009,"SoundDuration":406009,"Delta":186757953},{"NoteNumber":62,"Velocity":34,"Duration":1183446,"SoundDuration":1183446,"Delta":187163962},{"NoteNumber":67,"Velocity":42,"Duration":788111,"SoundDuration":788111,"Delta":187163962},{"NoteNumber":56,"Velocity":31,"Duration":402928,"SoundDuration":402928,"Delta":187163962},{"NoteNumber":60,"Velocity":31,"Duration":385183,"SoundDuration":385183,"Delta":187566890},{"NoteNumber":67,"Velocity":37,"Duration":395334,"SoundDuration":395334,"Delta":187952073},{"NoteNumber":58,"Velocity":31,"Duration":395334,"SoundDuration":395334,"Delta":187952073},{"NoteNumber":63,"Velocity":42,"Duration":1568206,"SoundDuration":1568206,"Delta":188347408},{"NoteNumber":39,"Velocity":36,"Duration":395335,"SoundDuration":395335,"Delta":188347408},{"NoteNumber":46,"Velocity":30,"Duration":388023,"SoundDuration":388023,"Delta":188742743},{"NoteNumber":51,"Velocity":27,"Duration":388023,"SoundDuration":388023,"Delta":189130766},{"NoteNumber":55,"Velocity":31,"Duration":396825,"SoundDuration":396825,"Delta":189518789},{"NoteNumber":75,"Velocity":55,"Duration":579128,"SoundDuration":579128,"Delta":189915614},{"NoteNumber":58,"Velocity":31,"Duration":379964,"SoundDuration":379964,"Delta":189915614},{"NoteNumber":63,"Velocity":28,"Duration":406174,"SoundDuration":406174,"Delta":190295578},{"NoteNumber":74,"Velocity":44,"Duration":207010,"SoundDuration":207010,"Delta":190494742},{"NoteNumber":67,"Velocity":34,"Duration":1174252,"SoundDuration":1174252,"Delta":190701753},{"NoteNumber":72,"Velocity":53,"Duration":1174252,"SoundDuration":1174252,"Delta":190701753},{"NoteNumber":60,"Velocity":30,"Duration":395334,"SoundDuration":395334,"Delta":190701753},{"NoteNumber":63,"Velocity":30,"Duration":389458,"SoundDuration":389458,"Delta":191097088},{"NoteNumber":53,"Velocity":25,"Duration":389459,"SoundDuration":389459,"Delta":191486547},{"NoteNumber":69,"Velocity":40,"Duration":1186970,"SoundDuration":1186970,"Delta":191876006},{"NoteNumber":74,"Velocity":52,"Duration":776069,"SoundDuration":776069,"Delta":191876006},{"NoteNumber":63,"Velocity":33,"Duration":401364,"SoundDuration":401364,"Delta":191876006},{"NoteNumber":67,"Velocity":30,"Duration":382677,"SoundDuration":382677,"Delta":192277371},{"NoteNumber":74,"Velocity":47,"Duration":402928,"SoundDuration":402928,"Delta":192660048},{"NoteNumber":65,"Velocity":30,"Duration":402928,"SoundDuration":402928,"Delta":192660048},{"NoteNumber":70,"Velocity":49,"Duration":1190692,"SoundDuration":1190692,"Delta":193062976},{"NoteNumber":46,"Velocity":36,"Duration":402928,"SoundDuration":402928,"Delta":193062976},{"NoteNumber":53,"Velocity":32,"Duration":393881,"SoundDuration":393881,"Delta":193465904},{"NoteNumber":58,"Velocity":32,"Duration":393882,"SoundDuration":393882,"Delta":193859786},{"NoteNumber":82,"Velocity":66,"Duration":793196,"SoundDuration":793196,"Delta":194253668},{"NoteNumber":62,"Velocity":34,"Duration":404176,"SoundDuration":404176,"Delta":194253668},{"NoteNumber":65,"Velocity":37,"Duration":397298,"SoundDuration":397298,"Delta":194657844},{"NoteNumber":82,"Velocity":60,"Duration":456095,"SoundDuration":456095,"Delta":195055142},{"NoteNumber":70,"Velocity":42,"Duration":475925,"SoundDuration":475925,"Delta":195055142},{"NoteNumber":82,"Velocity":68,"Duration":1201203,"SoundDuration":1201203,"Delta":195531068},{"NoteNumber":36,"Velocity":44,"Duration":396825,"SoundDuration":396825,"Delta":195531068},{"NoteNumber":64,"Velocity":30,"Duration":396825,"SoundDuration":396825,"Delta":195927893},{"NoteNumber":58,"Velocity":26,"Duration":407553,"SoundDuration":407553,"Delta":196324718},{"NoteNumber":72,"Velocity":61,"Duration":793650,"SoundDuration":793650,"Delta":196732271},{"NoteNumber":55,"Velocity":30,"Duration":1216871,"SoundDuration":1216871,"Delta":196732271},{"NoteNumber":64,"Velocity":27,"Duration":396825,"SoundDuration":396825,"Delta":197129096},{"NoteNumber":74,"Velocity":55,"Duration":423221,"SoundDuration":423221,"Delta":197525921},{"NoteNumber":58,"Velocity":27,"Duration":423221,"SoundDuration":423221,"Delta":197525921},{"NoteNumber":75,"Velocity":60,"Duration":133796,"SoundDuration":133796,"Delta":197949142},{"NoteNumber":53,"Velocity":36,"Duration":1223984,"SoundDuration":1223984,"Delta":197949142},{"NoteNumber":77,"Velocity":53,"Duration":133797,"SoundDuration":133797,"Delta":198082939},{"NoteNumber":75,"Velocity":53,"Duration":133796,"SoundDuration":133796,"Delta":198216736},{"NoteNumber":74,"Velocity":52,"Duration":411296,"SoundDuration":411296,"Delta":198350533},{"NoteNumber":63,"Velocity":31,"Duration":411296,"SoundDuration":411296,"Delta":198350533},{"NoteNumber":75,"Velocity":55,"Duration":411297,"SoundDuration":411297,"Delta":198761830},{"NoteNumber":57,"Velocity":31,"Duration":411297,"SoundDuration":411297,"Delta":198761830},{"NoteNumber":79,"Velocity":56,"Duration":419439,"SoundDuration":419439,"Delta":199173127},{"NoteNumber":46,"Velocity":36,"Duration":424748,"SoundDuration":424748,"Delta":199173127},{"NoteNumber":79,"Velocity":61,"Duration":557909,"SoundDuration":557909,"Delta":199597876},{"NoteNumber":62,"Velocity":31,"Duration":407000,"SoundDuration":407000,"Delta":199597876},{"NoteNumber":56,"Velocity":31,"Duration":473345,"SoundDuration":473345,"Delta":200004876},{"NoteNumber":77,"Velocity":48,"Duration":150909,"SoundDuration":150909,"Delta":200155785},{"NoteNumber":75,"Velocity":48,"Duration":150085,"SoundDuration":150085,"Delta":200306694},{"NoteNumber":75,"Velocity":50,"Duration":1471617,"SoundDuration":1471617,"Delta":200478221},{"NoteNumber":39,"Velocity":38,"Duration":258799,"SoundDuration":258799,"Delta":200478221},{"NoteNumber":46,"Velocity":26,"Duration":248962,"SoundDuration":248962,"Delta":200737020},{"NoteNumber":55,"Velocity":31,"Duration":240963,"SoundDuration":240963,"Delta":200985983},{"NoteNumber":51,"Velocity":27,"Duration":240964,"SoundDuration":240964,"Delta":201226947},{"NoteNumber":58,"Velocity":31,"Duration":240963,"SoundDuration":240963,"Delta":201467911},{"NoteNumber":55,"Velocity":27,"Duration":240964,"SoundDuration":240964,"Delta":201708875},{"NoteNumber":63,"Velocity":32,"Duration":481927,"SoundDuration":481927,"Delta":201949839},{"NoteNumber":67,"Velocity":36,"Duration":245901,"SoundDuration":245901,"Delta":202431767},{"NoteNumber":68,"Velocity":34,"Duration":245901,"SoundDuration":245901,"Delta":202677668},{"NoteNumber":70,"Velocity":37,"Duration":156912,"SoundDuration":156912,"Delta":202923570},{"NoteNumber":74,"Velocity":34,"Duration":156912,"SoundDuration":156912,"Delta":203080482},{"NoteNumber":72,"Velocity":34,"Duration":177351,"SoundDuration":177351,"Delta":203237394},{"NoteNumber":70,"Velocity":42,"Duration":1438588,"SoundDuration":1438588,"Delta":203414746},{"NoteNumber":39,"Velocity":32,"Duration":243368,"SoundDuration":243368,"Delta":203414746},{"NoteNumber":46,"Velocity":22,"Duration":239044,"SoundDuration":239044,"Delta":203658114},{"NoteNumber":55,"Velocity":26,"Duration":239044,"SoundDuration":239044,"Delta":203897158},{"NoteNumber":51,"Velocity":22,"Duration":239043,"SoundDuration":239043,"Delta":204136202},{"NoteNumber":58,"Velocity":26,"Duration":239044,"SoundDuration":239044,"Delta":204375246},{"NoteNumber":55,"Velocity":22,"Duration":239044,"SoundDuration":239044,"Delta":204614290},{"NoteNumber":63,"Velocity":27,"Duration":478088,"SoundDuration":478088,"Delta":204853334},{"NoteNumber":67,"Velocity":36,"Duration":242915,"SoundDuration":242915,"Delta":205331422},{"NoteNumber":68,"Velocity":34,"Duration":242914,"SoundDuration":242914,"Delta":205574337},{"NoteNumber":70,"Velocity":37,"Duration":158169,"SoundDuration":158169,"Delta":205817252},{"NoteNumber":74,"Velocity":34,"Duration":156912,"SoundDuration":156912,"Delta":205975421},{"NoteNumber":72,"Velocity":34,"Duration":177351,"SoundDuration":177351,"Delta":206132333},{"NoteNumber":70,"Velocity":42,"Duration":1438588,"SoundDuration":1438588,"Delta":206309685},{"NoteNumber":39,"Velocity":32,"Duration":243368,"SoundDuration":243368,"Delta":206309685},{"NoteNumber":46,"Velocity":22,"Duration":239044,"SoundDuration":239044,"Delta":206553053},{"NoteNumber":56,"Velocity":26,"Duration":239044,"SoundDuration":239044,"Delta":206792097},{"NoteNumber":53,"Velocity":22,"Duration":239043,"SoundDuration":239043,"Delta":207031141},{"NoteNumber":58,"Velocity":26,"Duration":239044,"SoundDuration":239044,"Delta":207270185},{"NoteNumber":56,"Velocity":22,"Duration":239044,"SoundDuration":239044,"Delta":207509229},{"NoteNumber":62,"Velocity":27,"Duration":478087,"SoundDuration":478087,"Delta":207748273},{"NoteNumber":65,"Velocity":36,"Duration":242915,"SoundDuration":242915,"Delta":208226361},{"NoteNumber":68,"Velocity":34,"Duration":242914,"SoundDuration":242914,"Delta":208469276},{"NoteNumber":70,"Velocity":37,"Duration":158169,"SoundDuration":158169,"Delta":208712191},{"NoteNumber":74,"Velocity":34,"Duration":156912,"SoundDuration":156912,"Delta":208870361},{"NoteNumber":72,"Velocity":34,"Duration":177351,"SoundDuration":177351,"Delta":209027273},{"NoteNumber":70,"Velocity":42,"Duration":654690,"SoundDuration":654690,"Delta":209204625},{"NoteNumber":39,"Velocity":32,"Duration":243368,"SoundDuration":243368,"Delta":209204625},{"NoteNumber":46,"Velocity":25,"Duration":243368,"SoundDuration":243368,"Delta":209447993},{"NoteNumber":55,"Velocity":28,"Duration":495299,"SoundDuration":495299,"Delta":209691361},{"NoteNumber":61,"Velocity":34,"Duration":494583,"SoundDuration":494583,"Delta":209859316},{"NoteNumber":63,"Velocity":34,"Duration":162245,"SoundDuration":162245,"Delta":210024415},{"NoteNumber":67,"Velocity":39,"Duration":167237,"SoundDuration":167237,"Delta":210186661},{"NoteNumber":72,"Velocity":34,"Duration":167237,"SoundDuration":167237,"Delta":210353899},{"NoteNumber":70,"Velocity":35,"Duration":167237,"SoundDuration":167237,"Delta":210521137},{"NoteNumber":68,"Velocity":38,"Duration":727037,"SoundDuration":727037,"Delta":210688375},{"NoteNumber":39,"Velocity":32,"Duration":242345,"SoundDuration":242345,"Delta":210688375},{"NoteNumber":51,"Velocity":25,"Duration":242345,"SoundDuration":242345,"Delta":210930721},{"NoteNumber":56,"Velocity":29,"Duration":484691,"SoundDuration":484691,"Delta":211173067},{"NoteNumber":59,"Velocity":37,"Duration":478877,"SoundDuration":478877,"Delta":211415413},{"NoteNumber":63,"Velocity":38,"Duration":236531,"SoundDuration":236531,"Delta":211657759},{"NoteNumber":65,"Velocity":35,"Duration":255808,"SoundDuration":255808,"Delta":211894290},{"NoteNumber":67,"Velocity":46,"Duration":1476129,"SoundDuration":1476129,"Delta":212150098},{"NoteNumber":39,"Velocity":32,"Duration":254194,"SoundDuration":254194,"Delta":212150098},{"NoteNumber":46,"Velocity":22,"Duration":254193,"SoundDuration":254193,"Delta":212404292},{"NoteNumber":55,"Velocity":26,"Duration":241935,"SoundDuration":241935,"Delta":212658486},{"NoteNumber":51,"Velocity":22,"Duration":241935,"SoundDuration":241935,"Delta":212900421},{"NoteNumber":58,"Velocity":26,"Duration":241935,"SoundDuration":241935,"Delta":213142357},{"NoteNumber":55,"Velocity":22,"Duration":241935,"SoundDuration":241935,"Delta":213384292},{"NoteNumber":63,"Velocity":27,"Duration":493827,"SoundDuration":493827,"Delta":213626228},{"NoteNumber":67,"Velocity":36,"Duration":246913,"SoundDuration":246913,"Delta":214120055},{"NoteNumber":68,"Velocity":34,"Duration":246913,"SoundDuration":246913,"Delta":214366968},{"NoteNumber":70,"Velocity":37,"Duration":156912,"SoundDuration":156912,"Delta":214613882},{"NoteNumber":74,"Velocity":34,"Duration":156912,"SoundDuration":156912,"Delta":214770794},{"NoteNumber":72,"Velocity":34,"Duration":177351,"SoundDuration":177351,"Delta":214927706},{"NoteNumber":70,"Velocity":42,"Duration":495454,"SoundDuration":495454,"Delta":215105058},{"NoteNumber":39,"Velocity":32,"Duration":239044,"SoundDuration":239044,"Delta":215105058},{"NoteNumber":46,"Velocity":22,"Duration":256410,"SoundDuration":256410,"Delta":215344102},{"NoteNumber":82,"Velocity":51,"Duration":1443518,"SoundDuration":1443518,"Delta":215600512},{"NoteNumber":55,"Velocity":26,"Duration":242915,"SoundDuration":242915,"Delta":215600512},{"NoteNumber":51,"Velocity":22,"Duration":242914,"SoundDuration":242914,"Delta":215843427},{"NoteNumber":58,"Velocity":26,"Duration":242915,"SoundDuration":242915,"Delta":216086342},{"NoteNumber":55,"Velocity":22,"Duration":242915,"SoundDuration":242915,"Delta":216329257},{"NoteNumber":63,"Velocity":27,"Duration":471858,"SoundDuration":471858,"Delta":216572172},{"NoteNumber":67,"Velocity":36,"Duration":161943,"SoundDuration":161943,"Delta":217205974},{"NoteNumber":68,"Velocity":34,"Duration":161943,"SoundDuration":161943,"Delta":217367917},{"NoteNumber":70,"Velocity":37,"Duration":158169,"SoundDuration":158169,"Delta":217529860},{"NoteNumber":74,"Velocity":34,"Duration":156912,"SoundDuration":156912,"Delta":217688030},{"NoteNumber":72,"Velocity":34,"Duration":177351,"SoundDuration":177351,"Delta":217844942},{"NoteNumber":70,"Velocity":42,"Duration":494664,"SoundDuration":494664,"Delta":218022294},{"NoteNumber":39,"Velocity":32,"Duration":237154,"SoundDuration":237154,"Delta":218022294},{"NoteNumber":46,"Velocity":22,"Duration":257510,"SoundDuration":257510,"Delta":218259448},{"NoteNumber":82,"Velocity":50,"Duration":1440182,"SoundDuration":1440182,"Delta":218516959},{"NoteNumber":56,"Velocity":26,"Duration":241935,"SoundDuration":241935,"Delta":218516959},{"NoteNumber":53,"Velocity":22,"Duration":241935,"SoundDuration":241935,"Delta":218758894},{"NoteNumber":58,"Velocity":26,"Duration":241935,"SoundDuration":241935,"Delta":219000830},{"NoteNumber":56,"Velocity":22,"Duration":241935,"SoundDuration":241935,"Delta":219242765},{"NoteNumber":62,"Velocity":27,"Duration":472441,"SoundDuration":472441,"Delta":219484701},{"NoteNumber":65,"Velocity":36,"Duration":161290,"SoundDuration":161290,"Delta":220118432},{"NoteNumber":68,"Velocity":34,"Duration":161290,"SoundDuration":161290,"Delta":220279722},{"NoteNumber":70,"Velocity":37,"Duration":158006,"SoundDuration":158006,"Delta":220441013},{"NoteNumber":74,"Velocity":34,"Duration":156912,"SoundDuration":156912,"Delta":220599019},{"NoteNumber":72,"Velocity":34,"Duration":177351,"SoundDuration":177351,"Delta":220755931},{"NoteNumber":70,"Velocity":42,"Duration":654690,"SoundDuration":654690,"Delta":220933283},{"NoteNumber":39,"Velocity":32,"Duration":243368,"SoundDuration":243368,"Delta":220933283},{"NoteNumber":46,"Velocity":25,"Duration":243368,"SoundDuration":243368,"Delta":221176651},{"NoteNumber":55,"Velocity":28,"Duration":495299,"SoundDuration":495299,"Delta":221420019},{"NoteNumber":61,"Velocity":34,"Duration":494583,"SoundDuration":494583,"Delta":221587974},{"NoteNumber":63,"Velocity":34,"Duration":162245,"SoundDuration":162245,"Delta":221753074},{"NoteNumber":67,"Velocity":39,"Duration":167237,"SoundDuration":167237,"Delta":221915319},{"NoteNumber":72,"Velocity":34,"Duration":167237,"SoundDuration":167237,"Delta":222082557},{"NoteNumber":70,"Velocity":35,"Duration":167237,"SoundDuration":167237,"Delta":222249795},{"NoteNumber":68,"Velocity":38,"Duration":727037,"SoundDuration":727037,"Delta":222417033},{"NoteNumber":39,"Velocity":32,"Duration":242345,"SoundDuration":242345,"Delta":222417033},{"NoteNumber":51,"Velocity":25,"Duration":242345,"SoundDuration":242345,"Delta":222659379},{"NoteNumber":56,"Velocity":29,"Duration":484691,"SoundDuration":484691,"Delta":222901725},{"NoteNumber":59,"Velocity":37,"Duration":478877,"SoundDuration":478877,"Delta":223144071},{"NoteNumber":63,"Velocity":38,"Duration":236531,"SoundDuration":236531,"Delta":223386417},{"NoteNumber":65,"Velocity":35,"Duration":255808,"SoundDuration":255808,"Delta":223622948},{"NoteNumber":67,"Velocity":46,"Duration":1730911,"SoundDuration":1730911,"Delta":223878756},{"NoteNumber":39,"Velocity":32,"Duration":254194,"SoundDuration":254194,"Delta":223878756},{"NoteNumber":46,"Velocity":22,"Duration":254193,"SoundDuration":254193,"Delta":224132950},{"NoteNumber":55,"Velocity":26,"Duration":243902,"SoundDuration":243902,"Delta":224387144},{"NoteNumber":51,"Velocity":22,"Duration":243902,"SoundDuration":243902,"Delta":224631046},{"NoteNumber":58,"Velocity":26,"Duration":243902,"SoundDuration":243902,"Delta":224874949},{"NoteNumber":55,"Velocity":22,"Duration":243902,"SoundDuration":243902,"Delta":225118851},{"NoteNumber":63,"Velocity":27,"Duration":493827,"SoundDuration":493827,"Delta":225362754},{"NoteNumber":67,"Velocity":34,"Duration":246913,"SoundDuration":246913,"Delta":225609667},{"NoteNumber":70,"Velocity":36,"Duration":246913,"SoundDuration":246913,"Delta":225856581},{"NoteNumber":79,"Velocity":37,"Duration":246913,"SoundDuration":246913,"Delta":226103494},{"NoteNumber":77,"Velocity":40,"Duration":235367,"SoundDuration":235367,"Delta":226350408},{"NoteNumber":75,"Velocity":37,"Duration":255808,"SoundDuration":255808,"Delta":226585776},{"NoteNumber":74,"Velocity":46,"Duration":1746318,"SoundDuration":1746318,"Delta":226841584},{"NoteNumber":43,"Velocity":32,"Duration":254194,"SoundDuration":254194,"Delta":226841584},{"NoteNumber":50,"Velocity":22,"Duration":254193,"SoundDuration":254193,"Delta":227095778},{"NoteNumber":58,"Velocity":26,"Duration":247586,"SoundDuration":247586,"Delta":227349972},{"NoteNumber":55,"Velocity":22,"Duration":247585,"SoundDuration":247585,"Delta":227597558},{"NoteNumber":62,"Velocity":26,"Duration":247586,"SoundDuration":247586,"Delta":227845144},{"NoteNumber":58,"Velocity":22,"Duration":247585,"SoundDuration":247585,"Delta":228092730},{"NoteNumber":67,"Velocity":27,"Duration":495171,"SoundDuration":495171,"Delta":228340316},{"NoteNumber":70,"Velocity":34,"Duration":247585,"SoundDuration":247585,"Delta":228587902},{"NoteNumber":74,"Velocity":36,"Duration":247586,"SoundDuration":247586,"Delta":228835488},{"NoteNumber":82,"Velocity":37,"Duration":247585,"SoundDuration":247585,"Delta":229083074},{"NoteNumber":74,"Velocity":40,"Duration":235367,"SoundDuration":235367,"Delta":229330660},{"NoteNumber":75,"Velocity":37,"Duration":255808,"SoundDuration":255808,"Delta":229566028},{"NoteNumber":76,"Velocity":46,"Duration":508387,"SoundDuration":508387,"Delta":229821836},{"NoteNumber":46,"Velocity":32,"Duration":254194,"SoundDuration":254194,"Delta":229821836},{"NoteNumber":53,"Velocity":22,"Duration":254193,"SoundDuration":254193,"Delta":230076030},{"NoteNumber":77,"Velocity":46,"Duration":1237930,"SoundDuration":1237930,"Delta":230330224},{"NoteNumber":62,"Velocity":26,"Duration":247586,"SoundDuration":247586,"Delta":230330224},{"NoteNumber":58,"Velocity":22,"Duration":247585,"SoundDuration":247585,"Delta":230577810},{"NoteNumber":65,"Velocity":26,"Duration":247586,"SoundDuration":247586,"Delta":230825396},{"NoteNumber":62,"Velocity":22,"Duration":247585,"SoundDuration":247585,"Delta":231072982},{"NoteNumber":70,"Velocity":27,"Duration":504062,"SoundDuration":504062,"Delta":231320568},{"NoteNumber":74,"Velocity":39,"Duration":256475,"SoundDuration":256475,"Delta":231568154},{"NoteNumber":77,"Velocity":43,"Duration":256476,"SoundDuration":256476,"Delta":231824630},{"NoteNumber":86,"Velocity":50,"Duration":256475,"SoundDuration":256475,"Delta":232081106},{"NoteNumber":84,"Velocity":46,"Duration":247586,"SoundDuration":247586,"Delta":232337582},{"NoteNumber":82,"Velocity":41,"Duration":259880,"SoundDuration":259880,"Delta":232585168},{"NoteNumber":80,"Velocity":45,"Duration":266027,"SoundDuration":266027,"Delta":232845049},{"NoteNumber":50,"Velocity":31,"Duration":266027,"SoundDuration":266027,"Delta":232845049},{"NoteNumber":81,"Velocity":40,"Duration":266028,"SoundDuration":266028,"Delta":233111077},{"NoteNumber":57,"Velocity":26,"Duration":266028,"SoundDuration":266028,"Delta":233111077},{"NoteNumber":89,"Velocity":51,"Duration":266028,"SoundDuration":266028,"Delta":233377105},{"NoteNumber":65,"Velocity":31,"Duration":266028,"SoundDuration":266028,"Delta":233377105},{"NoteNumber":88,"Velocity":46,"Duration":266028,"SoundDuration":266028,"Delta":233643133},{"NoteNumber":62,"Velocity":26,"Duration":266028,"SoundDuration":266028,"Delta":233643133},{"NoteNumber":86,"Velocity":45,"Duration":266028,"SoundDuration":266028,"Delta":233909161},{"NoteNumber":69,"Velocity":31,"Duration":266028,"SoundDuration":266028,"Delta":233909161},{"NoteNumber":81,"Velocity":40,"Duration":266027,"SoundDuration":266027,"Delta":234175189},{"NoteNumber":65,"Velocity":26,"Duration":266027,"SoundDuration":266027,"Delta":234175189},{"NoteNumber":74,"Velocity":40,"Duration":266843,"SoundDuration":266843,"Delta":234441217},{"NoteNumber":69,"Velocity":36,"Duration":269981,"SoundDuration":269981,"Delta":234708060},{"NoteNumber":65,"Velocity":39,"Duration":273668,"SoundDuration":273668,"Delta":234978042},{"NoteNumber":62,"Velocity":34,"Duration":276752,"SoundDuration":276752,"Delta":235251710},{"NoteNumber":64,"Velocity":39,"Duration":245124,"SoundDuration":245124,"Delta":235528462},{"NoteNumber":67,"Velocity":31,"Duration":81708,"SoundDuration":81708,"Delta":235773587},{"NoteNumber":65,"Velocity":36,"Duration":326832,"SoundDuration":326832,"Delta":235855295},{"NoteNumber":52,"Velocity":28,"Duration":1960998,"SoundDuration":1960998,"Delta":236182128},{"NoteNumber":40,"Velocity":25,"Duration":653665,"SoundDuration":653665,"Delta":236835794},{"NoteNumber":40,"Velocity":25,"Duration":653666,"SoundDuration":653666,"Delta":237489460},{"NoteNumber":62,"Velocity":38,"Duration":1401245,"SoundDuration":1401245,"Delta":238458219},{"NoteNumber":64,"Velocity":37,"Duration":1086151,"SoundDuration":1086151,"Delta":238773312},{"NoteNumber":40,"Velocity":39,"Duration":278034,"SoundDuration":278034,"Delta":238773312},{"NoteNumber":68,"Velocity":37,"Duration":278035,"SoundDuration":278035,"Delta":239051347},{"NoteNumber":72,"Velocity":41,"Duration":265040,"SoundDuration":265040,"Delta":239329382},{"NoteNumber":40,"Velocity":39,"Duration":265040,"SoundDuration":265040,"Delta":239329382},{"NoteNumber":71,"Velocity":39,"Duration":265040,"SoundDuration":265040,"Delta":239594423},{"NoteNumber":69,"Velocity":37,"Duration":1527245,"SoundDuration":1527245,"Delta":239859464},{"NoteNumber":60,"Velocity":23,"Duration":488080,"SoundDuration":488080,"Delta":240365879},{"NoteNumber":64,"Velocity":28,"Duration":488080,"SoundDuration":488080,"Delta":240365879},{"NoteNumber":40,"Velocity":22,"Duration":488080,"SoundDuration":488080,"Delta":240365879},{"NoteNumber":60,"Velocity":23,"Duration":522116,"SoundDuration":522116,"Delta":240859097},{"NoteNumber":64,"Velocity":28,"Duration":522116,"SoundDuration":522116,"Delta":240859097},{"NoteNumber":40,"Velocity":22,"Duration":522116,"SoundDuration":522116,"Delta":240859097},{"NoteNumber":76,"Velocity":41,"Duration":1499144,"SoundDuration":1499144,"Delta":241386709},{"NoteNumber":64,"Velocity":34,"Duration":1499144,"SoundDuration":1499144,"Delta":241386709},{"NoteNumber":69,"Velocity":28,"Duration":496695,"SoundDuration":496695,"Delta":241884221},{"NoteNumber":52,"Velocity":21,"Duration":496695,"SoundDuration":496695,"Delta":241884221},{"NoteNumber":57,"Velocity":21,"Duration":496695,"SoundDuration":496695,"Delta":241884221},{"NoteNumber":69,"Velocity":28,"Duration":494503,"SoundDuration":494503,"Delta":242386145},{"NoteNumber":57,"Velocity":21,"Duration":494503,"SoundDuration":494503,"Delta":242386145},{"NoteNumber":52,"Velocity":21,"Duration":494503,"SoundDuration":494503,"Delta":242386145},{"NoteNumber":74,"Velocity":39,"Duration":1519753,"SoundDuration":1519753,"Delta":242885854},{"NoteNumber":62,"Velocity":34,"Duration":1519753,"SoundDuration":1519753,"Delta":242885854},{"NoteNumber":69,"Velocity":28,"Duration":494503,"SoundDuration":494503,"Delta":243406190},{"NoteNumber":65,"Velocity":23,"Duration":494503,"SoundDuration":494503,"Delta":243406190},{"NoteNumber":57,"Velocity":22,"Duration":494503,"SoundDuration":494503,"Delta":243406190},{"NoteNumber":52,"Velocity":22,"Duration":494503,"SoundDuration":494503,"Delta":243406190},{"NoteNumber":65,"Velocity":23,"Duration":494503,"SoundDuration":494503,"Delta":243905899},{"NoteNumber":69,"Velocity":28,"Duration":494503,"SoundDuration":494503,"Delta":243905899},{"NoteNumber":52,"Velocity":22,"Duration":494503,"SoundDuration":494503,"Delta":243905899},{"NoteNumber":57,"Velocity":22,"Duration":494503,"SoundDuration":494503,"Delta":243905899},{"NoteNumber":62,"Velocity":40,"Duration":1330947,"SoundDuration":1330947,"Delta":244679606},{"NoteNumber":64,"Velocity":37,"Duration":1056950,"SoundDuration":1056950,"Delta":244953603},{"NoteNumber":40,"Velocity":39,"Duration":268817,"SoundDuration":268817,"Delta":244953603},{"NoteNumber":68,"Velocity":37,"Duration":268816,"SoundDuration":268816,"Delta":245222420},{"NoteNumber":72,"Velocity":41,"Duration":254625,"SoundDuration":254625,"Delta":245491237},{"NoteNumber":40,"Velocity":39,"Duration":254625,"SoundDuration":254625,"Delta":245491237},{"NoteNumber":71,"Velocity":39,"Duration":264690,"SoundDuration":264690,"Delta":245745863},{"NoteNumber":69,"Velocity":37,"Duration":1516278,"SoundDuration":1516278,"Delta":246010553},{"NoteNumber":60,"Velocity":23,"Duration":483864,"SoundDuration":483864,"Delta":246510262},{"NoteNumber":64,"Velocity":28,"Duration":483864,"SoundDuration":483864,"Delta":246510262},{"NoteNumber":40,"Velocity":22,"Duration":483864,"SoundDuration":483864,"Delta":246510262},{"NoteNumber":60,"Velocity":23,"Duration":522116,"SoundDuration":522116,"Delta":246999220},{"NoteNumber":64,"Velocity":28,"Duration":522116,"SoundDuration":522116,"Delta":246999220},{"NoteNumber":40,"Velocity":22,"Duration":522116,"SoundDuration":522116,"Delta":246999220},{"NoteNumber":66,"Velocity":37,"Duration":1534648,"SoundDuration":1534648,"Delta":247526832},{"NoteNumber":54,"Velocity":31,"Duration":1534648,"SoundDuration":1534648,"Delta":247526832},{"NoteNumber":64,"Velocity":28,"Duration":499860,"SoundDuration":499860,"Delta":248028756},{"NoteNumber":57,"Velocity":23,"Duration":499860,"SoundDuration":499860,"Delta":248028756},{"NoteNumber":60,"Velocity":23,"Duration":499860,"SoundDuration":499860,"Delta":248028756},{"NoteNumber":40,"Velocity":21,"Duration":499860,"SoundDuration":499860,"Delta":248028756},{"NoteNumber":64,"Velocity":28,"Duration":522116,"SoundDuration":522116,"Delta":248533868},{"NoteNumber":57,"Velocity":23,"Duration":522116,"SoundDuration":522116,"Delta":248533868},{"NoteNumber":60,"Velocity":23,"Duration":522116,"SoundDuration":522116,"Delta":248533868},{"NoteNumber":40,"Velocity":21,"Duration":522116,"SoundDuration":522116,"Delta":248533868},{"NoteNumber":68,"Velocity":37,"Duration":1596963,"SoundDuration":1596963,"Delta":249061480},{"NoteNumber":56,"Velocity":31,"Duration":1596963,"SoundDuration":1596963,"Delta":249061480},{"NoteNumber":59,"Velocity":19,"Duration":521114,"SoundDuration":521114,"Delta":249604221},{"NoteNumber":64,"Velocity":23,"Duration":521114,"SoundDuration":521114,"Delta":249604221},{"NoteNumber":40,"Velocity":16,"Duration":521114,"SoundDuration":521114,"Delta":249604221},{"NoteNumber":59,"Velocity":19,"Duration":522116,"SoundDuration":522116,"Delta":250130832},{"NoteNumber":64,"Velocity":23,"Duration":522116,"SoundDuration":522116,"Delta":250130832},{"NoteNumber":40,"Velocity":16,"Duration":522116,"SoundDuration":522116,"Delta":250130832},{"NoteNumber":62,"Velocity":40,"Duration":1325717,"SoundDuration":1325717,"Delta":250932441},{"NoteNumber":64,"Velocity":37,"Duration":1051720,"SoundDuration":1051720,"Delta":251206439},{"NoteNumber":40,"Velocity":39,"Duration":532033,"SoundDuration":532033,"Delta":251206439},{"NoteNumber":68,"Velocity":37,"Duration":268816,"SoundDuration":268816,"Delta":251475256},{"NoteNumber":72,"Velocity":41,"Duration":247893,"SoundDuration":247893,"Delta":251744073},{"NoteNumber":40,"Velocity":39,"Duration":508540,"SoundDuration":508540,"Delta":251744073},{"NoteNumber":71,"Velocity":39,"Duration":266193,"SoundDuration":266193,"Delta":251991966},{"NoteNumber":69,"Velocity":37,"Duration":1531252,"SoundDuration":1531252,"Delta":252258159},{"NoteNumber":60,"Velocity":23,"Duration":482959,"SoundDuration":482959,"Delta":252773756},{"NoteNumber":64,"Velocity":28,"Duration":482959,"SoundDuration":482959,"Delta":252773756},{"NoteNumber":40,"Velocity":22,"Duration":482959,"SoundDuration":482959,"Delta":252773756},{"NoteNumber":60,"Velocity":23,"Duration":522116,"SoundDuration":522116,"Delta":253261799},{"NoteNumber":64,"Velocity":28,"Duration":522116,"SoundDuration":522116,"Delta":253261799},{"NoteNumber":40,"Velocity":22,"Duration":522116,"SoundDuration":522116,"Delta":253261799},{"NoteNumber":76,"Velocity":53,"Duration":1475244,"SoundDuration":1475244,"Delta":253789411},{"NoteNumber":64,"Velocity":41,"Duration":1475244,"SoundDuration":1475244,"Delta":253789411},{"NoteNumber":72,"Velocity":32,"Duration":461343,"SoundDuration":461343,"Delta":254281214},{"NoteNumber":69,"Velocity":26,"Duration":461343,"SoundDuration":461343,"Delta":254281214},{"NoteNumber":60,"Velocity":24,"Duration":461343,"SoundDuration":461343,"Delta":254281214},{"NoteNumber":52,"Velocity":19,"Duration":461343,"SoundDuration":461343,"Delta":254281214},{"NoteNumber":57,"Velocity":19,"Duration":461343,"SoundDuration":461343,"Delta":254281214},{"NoteNumber":69,"Velocity":26,"Duration":511853,"SoundDuration":511853,"Delta":254747414},{"NoteNumber":72,"Velocity":32,"Duration":511853,"SoundDuration":511853,"Delta":254747414},{"NoteNumber":52,"Velocity":19,"Duration":511853,"SoundDuration":511853,"Delta":254747414},{"NoteNumber":60,"Velocity":24,"Duration":511853,"SoundDuration":511853,"Delta":254747414},{"NoteNumber":57,"Velocity":19,"Duration":511853,"SoundDuration":511853,"Delta":254747414},{"NoteNumber":78,"Velocity":53,"Duration":1445970,"SoundDuration":1445970,"Delta":255264655},{"NoteNumber":66,"Velocity":41,"Duration":1445970,"SoundDuration":1445970,"Delta":255264655},{"NoteNumber":64,"Velocity":26,"Duration":466921,"SoundDuration":466921,"Delta":255766747},{"NoteNumber":69,"Velocity":26,"Duration":466921,"SoundDuration":466921,"Delta":255766747},{"NoteNumber":72,"Velocity":32,"Duration":466921,"SoundDuration":466921,"Delta":255766747},{"NoteNumber":52,"Velocity":19,"Duration":466921,"SoundDuration":466921,"Delta":255766747},{"NoteNumber":60,"Velocity":24,"Duration":466921,"SoundDuration":466921,"Delta":255766747},{"NoteNumber":57,"Velocity":19,"Duration":466921,"SoundDuration":466921,"Delta":255766747},{"NoteNumber":69,"Velocity":26,"Duration":467193,"SoundDuration":467193,"Delta":256238477},{"NoteNumber":72,"Velocity":32,"Duration":467193,"SoundDuration":467193,"Delta":256238477},{"NoteNumber":64,"Velocity":26,"Duration":467193,"SoundDuration":467193,"Delta":256238477},{"NoteNumber":60,"Velocity":24,"Duration":467193,"SoundDuration":467193,"Delta":256238477},{"NoteNumber":52,"Velocity":19,"Duration":467193,"SoundDuration":467193,"Delta":256238477},{"NoteNumber":57,"Velocity":19,"Duration":467193,"SoundDuration":467193,"Delta":256238477},{"NoteNumber":60,"Velocity":40,"Duration":1289548,"SoundDuration":1289548,"Delta":256977292},{"NoteNumber":64,"Velocity":37,"Duration":1022881,"SoundDuration":1022881,"Delta":257243959},{"NoteNumber":40,"Velocity":39,"Duration":516304,"SoundDuration":516304,"Delta":257243959},{"NoteNumber":68,"Velocity":37,"Duration":260869,"SoundDuration":260869,"Delta":257504828},{"NoteNumber":71,"Velocity":41,"Duration":247892,"SoundDuration":247892,"Delta":257765698},{"NoteNumber":40,"Velocity":39,"Duration":495866,"SoundDuration":495866,"Delta":257765698},{"NoteNumber":69,"Velocity":39,"Duration":253249,"SoundDuration":253249,"Delta":258013591},{"NoteNumber":69,"Velocity":37,"Duration":1540720,"SoundDuration":1540720,"Delta":258266841},{"NoteNumber":64,"Velocity":28,"Duration":492329,"SoundDuration":492329,"Delta":258782438},{"NoteNumber":60,"Velocity":23,"Duration":492329,"SoundDuration":492329,"Delta":258782438},{"NoteNumber":40,"Velocity":22,"Duration":492329,"SoundDuration":492329,"Delta":258782438},{"NoteNumber":60,"Velocity":23,"Duration":522116,"SoundDuration":522116,"Delta":259279950},{"NoteNumber":64,"Velocity":28,"Duration":522116,"SoundDuration":522116,"Delta":259279950},{"NoteNumber":40,"Velocity":22,"Duration":522116,"SoundDuration":522116,"Delta":259279950},{"NoteNumber":78,"Velocity":55,"Duration":1473394,"SoundDuration":1473394,"Delta":259807562},{"NoteNumber":66,"Velocity":45,"Duration":1473394,"SoundDuration":1473394,"Delta":259807562},{"NoteNumber":64,"Velocity":28,"Duration":465390,"SoundDuration":465390,"Delta":260297358},{"NoteNumber":69,"Velocity":28,"Duration":465390,"SoundDuration":465390,"Delta":260297358},{"NoteNumber":72,"Velocity":34,"Duration":465390,"SoundDuration":465390,"Delta":260297358},{"NoteNumber":52,"Velocity":21,"Duration":465390,"SoundDuration":465390,"Delta":260297358},{"NoteNumber":60,"Velocity":26,"Duration":465390,"SoundDuration":465390,"Delta":260297358},{"NoteNumber":57,"Velocity":21,"Duration":465390,"SoundDuration":465390,"Delta":260297358},{"NoteNumber":64,"Velocity":28,"Duration":507956,"SoundDuration":507956,"Delta":260767653},{"NoteNumber":69,"Velocity":28,"Duration":507956,"SoundDuration":507956,"Delta":260767653},{"NoteNumber":72,"Velocity":36,"Duration":507956,"SoundDuration":507956,"Delta":260767653},{"NoteNumber":57,"Velocity":21,"Duration":507956,"SoundDuration":507956,"Delta":260767653},{"NoteNumber":52,"Velocity":21,"Duration":507956,"SoundDuration":507956,"Delta":260767653},{"NoteNumber":60,"Velocity":26,"Duration":507956,"SoundDuration":507956,"Delta":260767653},{"NoteNumber":80,"Velocity":58,"Duration":1459814,"SoundDuration":1459814,"Delta":261280956},{"NoteNumber":68,"Velocity":47,"Duration":1459814,"SoundDuration":1459814,"Delta":261280956},{"NoteNumber":69,"Velocity":30,"Duration":468965,"SoundDuration":468965,"Delta":261778881},{"NoteNumber":72,"Velocity":30,"Duration":468965,"SoundDuration":468965,"Delta":261778881},{"NoteNumber":75,"Velocity":36,"Duration":468965,"SoundDuration":468965,"Delta":261778881},{"NoteNumber":52,"Velocity":21,"Duration":468965,"SoundDuration":468965,"Delta":261778881},{"NoteNumber":60,"Velocity":28,"Duration":468965,"SoundDuration":468965,"Delta":261778881},{"NoteNumber":57,"Velocity":21,"Duration":468965,"SoundDuration":468965,"Delta":261778881},{"NoteNumber":75,"Velocity":37,"Duration":482959,"SoundDuration":482959,"Delta":262252728},{"NoteNumber":72,"Velocity":30,"Duration":482959,"SoundDuration":482959,"Delta":262252728},{"NoteNumber":69,"Velocity":30,"Duration":482959,"SoundDuration":482959,"Delta":262252728},{"NoteNumber":57,"Velocity":21,"Duration":482959,"SoundDuration":482959,"Delta":262252728},{"NoteNumber":52,"Velocity":21,"Duration":482959,"SoundDuration":482959,"Delta":262252728},{"NoteNumber":60,"Velocity":28,"Duration":482959,"SoundDuration":482959,"Delta":262252728},{"NoteNumber":78,"Velocity":62,"Duration":980011,"SoundDuration":980011,"Delta":262740771},{"NoteNumber":66,"Velocity":50,"Duration":980011,"SoundDuration":980011,"Delta":262740771},{"NoteNumber":69,"Velocity":31,"Duration":478088,"SoundDuration":478088,"Delta":263242695},{"NoteNumber":75,"Velocity":39,"Duration":478088,"SoundDuration":478088,"Delta":263242695},{"NoteNumber":72,"Velocity":31,"Duration":478088,"SoundDuration":478088,"Delta":263242695},{"NoteNumber":57,"Velocity":23,"Duration":478088,"SoundDuration":478088,"Delta":263242695},{"NoteNumber":52,"Velocity":23,"Duration":478088,"SoundDuration":478088,"Delta":263242695},{"NoteNumber":60,"Velocity":28,"Duration":478088,"SoundDuration":478088,"Delta":263242695},{"NoteNumber":80,"Velocity":65,"Duration":235263,"SoundDuration":235263,"Delta":263977434},{"NoteNumber":68,"Velocity":53,"Duration":235263,"SoundDuration":235263,"Delta":263977434},{"NoteNumber":80,"Velocity":66,"Duration":1434126,"SoundDuration":1434126,"Delta":264234086},{"NoteNumber":68,"Velocity":53,"Duration":1434126,"SoundDuration":1434126,"Delta":264234086},{"NoteNumber":75,"Velocity":45,"Duration":462151,"SoundDuration":462151,"Delta":264717520},{"NoteNumber":72,"Velocity":35,"Duration":462151,"SoundDuration":462151,"Delta":264717520},{"NoteNumber":69,"Velocity":35,"Duration":462151,"SoundDuration":462151,"Delta":264717520},{"NoteNumber":52,"Velocity":25,"Duration":462151,"SoundDuration":462151,"Delta":264717520},{"NoteNumber":60,"Velocity":32,"Duration":462151,"SoundDuration":462151,"Delta":264717520},{"NoteNumber":57,"Velocity":25,"Duration":462151,"SoundDuration":462151,"Delta":264717520},{"NoteNumber":75,"Velocity":45,"Duration":478668,"SoundDuration":478668,"Delta":265184503},{"NoteNumber":72,"Velocity":35,"Duration":478668,"SoundDuration":478668,"Delta":265184503},{"NoteNumber":69,"Velocity":35,"Duration":478668,"SoundDuration":478668,"Delta":265184503},{"NoteNumber":52,"Velocity":26,"Duration":478668,"SoundDuration":478668,"Delta":265184503},{"NoteNumber":60,"Velocity":33,"Duration":478668,"SoundDuration":478668,"Delta":265184503},{"NoteNumber":57,"Velocity":26,"Duration":478668,"SoundDuration":478668,"Delta":265184503},{"NoteNumber":78,"Velocity":69,"Duration":965243,"SoundDuration":965243,"Delta":265668212},{"NoteNumber":66,"Velocity":57,"Duration":965243,"SoundDuration":965243,"Delta":265668212},{"NoteNumber":69,"Velocity":38,"Duration":463320,"SoundDuration":463320,"Delta":266170136},{"NoteNumber":72,"Velocity":38,"Duration":463320,"SoundDuration":463320,"Delta":266170136},{"NoteNumber":75,"Velocity":47,"Duration":463320,"SoundDuration":463320,"Delta":266170136},{"NoteNumber":60,"Velocity":34,"Duration":463320,"SoundDuration":463320,"Delta":266170136},{"NoteNumber":52,"Velocity":27,"Duration":463320,"SoundDuration":463320,"Delta":266170136},{"NoteNumber":57,"Velocity":27,"Duration":463320,"SoundDuration":463320,"Delta":266170136},{"NoteNumber":80,"Velocity":71,"Duration":224489,"SoundDuration":224489,"Delta":266878354},{"NoteNumber":68,"Velocity":59,"Duration":224489,"SoundDuration":224489,"Delta":266878354},{"NoteNumber":80,"Velocity":74,"Duration":1383729,"SoundDuration":1383729,"Delta":267123252},{"NoteNumber":68,"Velocity":59,"Duration":1383729,"SoundDuration":1383729,"Delta":267123252},{"NoteNumber":75,"Velocity":50,"Duration":441580,"SoundDuration":441580,"Delta":267592002},{"NoteNumber":72,"Velocity":39,"Duration":441580,"SoundDuration":441580,"Delta":267592002},{"NoteNumber":69,"Velocity":39,"Duration":441580,"SoundDuration":441580,"Delta":267592002},{"NoteNumber":52,"Velocity":29,"Duration":441580,"SoundDuration":441580,"Delta":267592002},{"NoteNumber":57,"Velocity":29,"Duration":441580,"SoundDuration":441580,"Delta":267592002},{"NoteNumber":60,"Velocity":36,"Duration":441580,"SoundDuration":441580,"Delta":267592002},{"NoteNumber":75,"Velocity":50,"Duration":463867,"SoundDuration":463867,"Delta":268038231},{"NoteNumber":72,"Velocity":40,"Duration":463867,"SoundDuration":463867,"Delta":268038231},{"NoteNumber":69,"Velocity":40,"Duration":463867,"SoundDuration":463867,"Delta":268038231},{"NoteNumber":52,"Velocity":29,"Duration":463867,"SoundDuration":463867,"Delta":268038231},{"NoteNumber":60,"Velocity":37,"Duration":463867,"SoundDuration":463867,"Delta":268038231},{"NoteNumber":57,"Velocity":29,"Duration":463867,"SoundDuration":463867,"Delta":268038231},{"NoteNumber":78,"Velocity":81,"Duration":926042,"SoundDuration":926042,"Delta":268506981},{"NoteNumber":66,"Velocity":65,"Duration":926042,"SoundDuration":926042,"Delta":268506981},{"NoteNumber":75,"Velocity":53,"Duration":444115,"SoundDuration":444115,"Delta":268988909},{"NoteNumber":69,"Velocity":42,"Duration":444115,"SoundDuration":444115,"Delta":268988909},{"NoteNumber":72,"Velocity":42,"Duration":444115,"SoundDuration":444115,"Delta":268988909},{"NoteNumber":57,"Velocity":31,"Duration":444115,"SoundDuration":444115,"Delta":268988909},{"NoteNumber":52,"Velocity":31,"Duration":444115,"SoundDuration":444115,"Delta":268988909},{"NoteNumber":60,"Velocity":39,"Duration":444115,"SoundDuration":444115,"Delta":268988909},{"NoteNumber":80,"Velocity":77,"Duration":235294,"SoundDuration":235294,"Delta":269668318},{"NoteNumber":68,"Velocity":61,"Duration":235294,"SoundDuration":235294,"Delta":269668318},{"NoteNumber":81,"Velocity":78,"Duration":1281964,"SoundDuration":1281964,"Delta":269903612},{"NoteNumber":69,"Velocity":63,"Duration":1281964,"SoundDuration":1281964,"Delta":269903612},{"NoteNumber":78,"Velocity":57,"Duration":415209,"SoundDuration":415209,"Delta":270346416},{"NoteNumber":72,"Velocity":47,"Duration":415209,"SoundDuration":415209,"Delta":270346416},{"NoteNumber":75,"Velocity":47,"Duration":415209,"SoundDuration":415209,"Delta":270346416},{"NoteNumber":57,"Velocity":34,"Duration":415209,"SoundDuration":415209,"Delta":270346416},{"NoteNumber":52,"Velocity":34,"Duration":415209,"SoundDuration":415209,"Delta":270346416},{"NoteNumber":60,"Velocity":41,"Duration":415209,"SoundDuration":415209,"Delta":270346416},{"NoteNumber":78,"Velocity":59,"Duration":415209,"SoundDuration":415209,"Delta":270765996},{"NoteNumber":75,"Velocity":48,"Duration":415209,"SoundDuration":415209,"Delta":270765996},{"NoteNumber":72,"Velocity":48,"Duration":415209,"SoundDuration":415209,"Delta":270765996},{"NoteNumber":60,"Velocity":46,"Duration":415209,"SoundDuration":415209,"Delta":270765996},{"NoteNumber":52,"Velocity":34,"Duration":415209,"SoundDuration":415209,"Delta":270765996},{"NoteNumber":57,"Velocity":34,"Duration":415209,"SoundDuration":415209,"Delta":270765996},{"NoteNumber":80,"Velocity":94,"Duration":843144,"SoundDuration":843144,"Delta":271185576},{"NoteNumber":68,"Velocity":74,"Duration":690601,"SoundDuration":690601,"Delta":271185576},{"NoteNumber":78,"Velocity":63,"Duration":402542,"SoundDuration":402542,"Delta":271621940},{"NoteNumber":75,"Velocity":50,"Duration":402542,"SoundDuration":402542,"Delta":271621940},{"NoteNumber":72,"Velocity":50,"Duration":402542,"SoundDuration":402542,"Delta":271621940},{"NoteNumber":57,"Velocity":35,"Duration":254237,"SoundDuration":254237,"Delta":271621940},{"NoteNumber":52,"Velocity":35,"Duration":254237,"SoundDuration":254237,"Delta":271621940},{"NoteNumber":60,"Velocity":46,"Duration":254237,"SoundDuration":254237,"Delta":271621940},{"NoteNumber":52,"Velocity":35,"Duration":593718,"SoundDuration":593718,"Delta":271876178},{"NoteNumber":57,"Velocity":36,"Duration":542870,"SoundDuration":542870,"Delta":271927025},{"NoteNumber":60,"Velocity":46,"Duration":492023,"SoundDuration":492023,"Delta":271977873},{"NoteNumber":75,"Velocity":50,"Duration":436580,"SoundDuration":436580,"Delta":272028720},{"NoteNumber":72,"Velocity":50,"Duration":436580,"SoundDuration":436580,"Delta":272028720},{"NoteNumber":78,"Velocity":61,"Duration":436580,"SoundDuration":436580,"Delta":272028720},{"NoteNumber":81,"Velocity":100,"Duration":436580,"SoundDuration":436580,"Delta":272028720},{"NoteNumber":69,"Velocity":80,"Duration":441175,"SoundDuration":441175,"Delta":272028720},{"NoteNumber":71,"Velocity":82,"Duration":1109988,"SoundDuration":1109988,"Delta":272469896},{"NoteNumber":74,"Velocity":82,"Duration":1109988,"SoundDuration":1109988,"Delta":272469896},{"NoteNumber":83,"Velocity":99,"Duration":1109988,"SoundDuration":1109988,"Delta":272469896},{"NoteNumber":80,"Velocity":82,"Duration":1109988,"SoundDuration":1109988,"Delta":272469896},{"NoteNumber":76,"Velocity":82,"Duration":1109988,"SoundDuration":1109988,"Delta":272469896},{"NoteNumber":28,"Velocity":70,"Duration":387096,"SoundDuration":387096,"Delta":272469896},{"NoteNumber":40,"Velocity":84,"Duration":387096,"SoundDuration":387096,"Delta":272469896},{"NoteNumber":52,"Velocity":61,"Duration":361446,"SoundDuration":361446,"Delta":272856993},{"NoteNumber":62,"Velocity":72,"Duration":361446,"SoundDuration":361446,"Delta":272856993},{"NoteNumber":56,"Velocity":61,"Duration":361446,"SoundDuration":361446,"Delta":272856993},{"NoteNumber":62,"Velocity":61,"Duration":361446,"SoundDuration":361446,"Delta":273218439},{"NoteNumber":64,"Velocity":73,"Duration":361446,"SoundDuration":361446,"Delta":273218439},{"NoteNumber":56,"Velocity":61,"Duration":361446,"SoundDuration":361446,"Delta":273218439},{"NoteNumber":76,"Velocity":81,"Duration":721589,"SoundDuration":721589,"Delta":273579885},{"NoteNumber":74,"Velocity":81,"Duration":721589,"SoundDuration":721589,"Delta":273579885},{"NoteNumber":80,"Velocity":81,"Duration":721589,"SoundDuration":721589,"Delta":273579885},{"NoteNumber":85,"Velocity":96,"Duration":721589,"SoundDuration":721589,"Delta":273579885},{"NoteNumber":68,"Velocity":84,"Duration":372671,"SoundDuration":372671,"Delta":273579885},{"NoteNumber":59,"Velocity":70,"Duration":372671,"SoundDuration":372671,"Delta":273579885},{"NoteNumber":62,"Velocity":70,"Duration":372671,"SoundDuration":372671,"Delta":273579885},{"NoteNumber":64,"Velocity":72,"Duration":348918,"SoundDuration":348918,"Delta":273952556},{"NoteNumber":56,"Velocity":61,"Duration":348918,"SoundDuration":348918,"Delta":273952556},{"NoteNumber":62,"Velocity":61,"Duration":348918,"SoundDuration":348918,"Delta":273952556},{"NoteNumber":74,"Velocity":77,"Duration":348917,"SoundDuration":348917,"Delta":274301474},{"NoteNumber":76,"Velocity":77,"Duration":348917,"SoundDuration":348917,"Delta":274301474},{"NoteNumber":80,"Velocity":77,"Duration":348917,"SoundDuration":348917,"Delta":274301474},{"NoteNumber":85,"Velocity":91,"Duration":348917,"SoundDuration":348917,"Delta":274301474},{"NoteNumber":62,"Velocity":73,"Duration":348917,"SoundDuration":348917,"Delta":274301474},{"NoteNumber":52,"Velocity":61,"Duration":348917,"SoundDuration":348917,"Delta":274301474},{"NoteNumber":56,"Velocity":61,"Duration":348917,"SoundDuration":348917,"Delta":274301474},{"NoteNumber":81,"Velocity":96,"Duration":1049239,"SoundDuration":1049239,"Delta":274650392},{"NoteNumber":73,"Velocity":81,"Duration":1049239,"SoundDuration":1049239,"Delta":274650392},{"NoteNumber":69,"Velocity":81,"Duration":1049239,"SoundDuration":1049239,"Delta":274650392},{"NoteNumber":45,"Velocity":84,"Duration":348837,"SoundDuration":348837,"Delta":274650392},{"NoteNumber":33,"Velocity":70,"Duration":348837,"SoundDuration":348837,"Delta":274650392},{"NoteNumber":52,"Velocity":61,"Duration":350201,"SoundDuration":350201,"Delta":274999229},{"NoteNumber":61,"Velocity":73,"Duration":350201,"SoundDuration":350201,"Delta":274999229},{"NoteNumber":57,"Velocity":62,"Duration":350200,"SoundDuration":350200,"Delta":275349430},{"NoteNumber":64,"Velocity":74,"Duration":350200,"SoundDuration":350200,"Delta":275349430},{"NoteNumber":81,"Velocity":89,"Duration":705697,"SoundDuration":705697,"Delta":275699631},{"NoteNumber":85,"Velocity":89,"Duration":705697,"SoundDuration":705697,"Delta":275699631},{"NoteNumber":93,"Velocity":105,"Duration":705697,"SoundDuration":705697,"Delta":275699631},{"NoteNumber":61,"Velocity":70,"Duration":359238,"SoundDuration":359238,"Delta":275699631},{"NoteNumber":69,"Velocity":84,"Duration":359238,"SoundDuration":359238,"Delta":275699631},{"NoteNumber":64,"Velocity":73,"Duration":346459,"SoundDuration":346459,"Delta":276058869},{"NoteNumber":57,"Velocity":61,"Duration":346459,"SoundDuration":346459,"Delta":276058869},{"NoteNumber":80,"Velocity":85,"Duration":346460,"SoundDuration":346460,"Delta":276405329},{"NoteNumber":85,"Velocity":85,"Duration":346460,"SoundDuration":346460,"Delta":276405329},{"NoteNumber":92,"Velocity":101,"Duration":346460,"SoundDuration":346460,"Delta":276405329},{"NoteNumber":61,"Velocity":73,"Duration":346460,"SoundDuration":346460,"Delta":276405329},{"NoteNumber":52,"Velocity":61,"Duration":346460,"SoundDuration":346460,"Delta":276405329},{"NoteNumber":78,"Velocity":85,"Duration":1045227,"SoundDuration":1045227,"Delta":276751789},{"NoteNumber":85,"Velocity":89,"Duration":1045227,"SoundDuration":1045227,"Delta":276751789},{"NoteNumber":90,"Velocity":103,"Duration":1045227,"SoundDuration":1045227,"Delta":276751789},{"NoteNumber":47,"Velocity":84,"Duration":354566,"SoundDuration":354566,"Delta":276751789},{"NoteNumber":35,"Velocity":70,"Duration":354566,"SoundDuration":354566,"Delta":276751789},{"NoteNumber":59,"Velocity":73,"Duration":343840,"SoundDuration":343840,"Delta":277106355},{"NoteNumber":54,"Velocity":61,"Duration":343840,"SoundDuration":343840,"Delta":277106355},{"NoteNumber":63,"Velocity":73,"Duration":346820,"SoundDuration":346820,"Delta":277450195},{"NoteNumber":57,"Velocity":61,"Duration":346820,"SoundDuration":346820,"Delta":277450195},{"NoteNumber":83,"Velocity":86,"Duration":704738,"SoundDuration":704738,"Delta":277797016},{"NoteNumber":87,"Velocity":86,"Duration":704738,"SoundDuration":704738,"Delta":277797016},{"NoteNumber":92,"Velocity":102,"Duration":704738,"SoundDuration":704738,"Delta":277797016},{"NoteNumber":66,"Velocity":84,"Duration":357910,"SoundDuration":357910,"Delta":277797016},{"NoteNumber":59,"Velocity":70,"Duration":357910,"SoundDuration":357910,"Delta":277797016},{"NoteNumber":57,"Velocity":61,"Duration":346828,"SoundDuration":346828,"Delta":278154926},{"NoteNumber":63,"Velocity":72,"Duration":346828,"SoundDuration":346828,"Delta":278154926},{"NoteNumber":92,"Velocity":93,"Duration":348585,"SoundDuration":348585,"Delta":278501755},{"NoteNumber":87,"Velocity":79,"Duration":348585,"SoundDuration":348585,"Delta":278501755},{"NoteNumber":81,"Velocity":79,"Duration":348585,"SoundDuration":348585,"Delta":278501755},{"NoteNumber":59,"Velocity":72,"Duration":348585,"SoundDuration":348585,"Delta":278501755},{"NoteNumber":54,"Velocity":61,"Duration":348585,"SoundDuration":348585,"Delta":278501755},{"NoteNumber":88,"Velocity":103,"Duration":1045268,"SoundDuration":1045268,"Delta":278850340},{"NoteNumber":80,"Velocity":88,"Duration":1045268,"SoundDuration":1045268,"Delta":278850340},{"NoteNumber":76,"Velocity":88,"Duration":1045268,"SoundDuration":1045268,"Delta":278850340},{"NoteNumber":52,"Velocity":84,"Duration":356590,"SoundDuration":356590,"Delta":278850340},{"NoteNumber":40,"Velocity":70,"Duration":356590,"SoundDuration":356590,"Delta":278850340},{"NoteNumber":52,"Velocity":62,"Duration":342856,"SoundDuration":342856,"Delta":279206931},{"NoteNumber":59,"Velocity":74,"Duration":342856,"SoundDuration":342856,"Delta":279206931},{"NoteNumber":56,"Velocity":62,"Duration":345821,"SoundDuration":345821,"Delta":279549788},{"NoteNumber":64,"Velocity":74,"Duration":345821,"SoundDuration":345821,"Delta":279549788},{"NoteNumber":88,"Velocity":113,"Duration":703133,"SoundDuration":703133,"Delta":279895609},{"NoteNumber":76,"Velocity":96,"Duration":703133,"SoundDuration":703133,"Delta":279895609},{"NoteNumber":68,"Velocity":84,"Duration":357910,"SoundDuration":357910,"Delta":279895609},{"NoteNumber":59,"Velocity":70,"Duration":357910,"SoundDuration":357910,"Delta":279895609},{"NoteNumber":56,"Velocity":62,"Duration":345223,"SoundDuration":345223,"Delta":280253519},{"NoteNumber":64,"Velocity":74,"Duration":345223,"SoundDuration":345223,"Delta":280253519},{"NoteNumber":76,"Velocity":96,"Duration":345224,"SoundDuration":345224,"Delta":280598743},{"NoteNumber":88,"Velocity":113,"Duration":345224,"SoundDuration":345224,"Delta":280598743},{"NoteNumber":59,"Velocity":74,"Duration":345224,"SoundDuration":345224,"Delta":280598743},{"NoteNumber":52,"Velocity":62,"Duration":345224,"SoundDuration":345224,"Delta":280598743},{"NoteNumber":81,"Velocity":86,"Duration":1045651,"SoundDuration":1045651,"Delta":280943967},{"NoteNumber":76,"Velocity":94,"Duration":698830,"SoundDuration":698830,"Delta":280943967},{"NoteNumber":88,"Velocity":113,"Duration":698830,"SoundDuration":698830,"Delta":280943967},{"NoteNumber":42,"Velocity":70,"Duration":354002,"SoundDuration":354002,"Delta":280943967},{"NoteNumber":54,"Velocity":84,"Duration":354002,"SoundDuration":354002,"Delta":280943967},{"NoteNumber":54,"Velocity":62,"Duration":344828,"SoundDuration":344828,"Delta":281297970},{"NoteNumber":62,"Velocity":74,"Duration":344828,"SoundDuration":344828,"Delta":281297970},{"NoteNumber":74,"Velocity":82,"Duration":346820,"SoundDuration":346820,"Delta":281642798},{"NoteNumber":86,"Velocity":97,"Duration":346820,"SoundDuration":346820,"Delta":281642798},{"NoteNumber":69,"Velocity":74,"Duration":346820,"SoundDuration":346820,"Delta":281642798},{"NoteNumber":57,"Velocity":62,"Duration":346820,"SoundDuration":346820,"Delta":281642798},{"NoteNumber":86,"Velocity":95,"Duration":118000,"SoundDuration":118000,"Delta":281989619},{"NoteNumber":74,"Velocity":81,"Duration":118000,"SoundDuration":118000,"Delta":281989619},{"NoteNumber":35,"Velocity":70,"Duration":354002,"SoundDuration":354002,"Delta":281989619},{"NoteNumber":47,"Velocity":84,"Duration":354002,"SoundDuration":354002,"Delta":281989619},{"NoteNumber":76,"Velocity":79,"Duration":118000,"SoundDuration":118000,"Delta":282107620},{"NoteNumber":88,"Velocity":93,"Duration":118000,"SoundDuration":118000,"Delta":282107620},{"NoteNumber":74,"Velocity":75,"Duration":118000,"SoundDuration":118000,"Delta":282225621},{"NoteNumber":86,"Velocity":90,"Duration":118000,"SoundDuration":118000,"Delta":282225621},{"NoteNumber":73,"Velocity":82,"Duration":173842,"SoundDuration":173842,"Delta":282343622},{"NoteNumber":85,"Velocity":97,"Duration":173842,"SoundDuration":173842,"Delta":282343622},{"NoteNumber":54,"Velocity":62,"Duration":348164,"SoundDuration":348164,"Delta":282343622},{"NoteNumber":62,"Velocity":74,"Duration":700625,"SoundDuration":700625,"Delta":282343622},{"NoteNumber":86,"Velocity":93,"Duration":174322,"SoundDuration":174322,"Delta":282517465},{"NoteNumber":74,"Velocity":79,"Duration":174322,"SoundDuration":174322,"Delta":282517465},{"NoteNumber":90,"Velocity":97,"Duration":174418,"SoundDuration":174418,"Delta":282691787},{"NoteNumber":78,"Velocity":82,"Duration":174418,"SoundDuration":174418,"Delta":282691787},{"NoteNumber":69,"Velocity":74,"Duration":352460,"SoundDuration":352460,"Delta":282691787},{"NoteNumber":59,"Velocity":62,"Duration":352460,"SoundDuration":352460,"Delta":282691787},{"NoteNumber":88,"Velocity":92,"Duration":178041,"SoundDuration":178041,"Delta":282866206},{"NoteNumber":76,"Velocity":78,"Duration":178041,"SoundDuration":178041,"Delta":282866206},{"NoteNumber":74,"Velocity":94,"Duration":697842,"SoundDuration":697842,"Delta":283044247},{"NoteNumber":80,"Velocity":86,"Duration":1044663,"SoundDuration":1044663,"Delta":283044247},{"NoteNumber":86,"Velocity":113,"Duration":697842,"SoundDuration":697842,"Delta":283044247},{"NoteNumber":52,"Velocity":84,"Duration":354002,"SoundDuration":354002,"Delta":283044247},{"NoteNumber":40,"Velocity":70,"Duration":354002,"SoundDuration":354002,"Delta":283044247},{"NoteNumber":52,"Velocity":62,"Duration":343840,"SoundDuration":343840,"Delta":283398250},{"NoteNumber":61,"Velocity":74,"Duration":343840,"SoundDuration":343840,"Delta":283398250},{"NoteNumber":73,"Velocity":82,"Duration":346820,"SoundDuration":346820,"Delta":283742090},{"NoteNumber":85,"Velocity":97,"Duration":346820,"SoundDuration":346820,"Delta":283742090},{"NoteNumber":56,"Velocity":62,"Duration":346820,"SoundDuration":346820,"Delta":283742090},{"NoteNumber":68,"Velocity":74,"Duration":346820,"SoundDuration":346820,"Delta":283742090},{"NoteNumber":85,"Velocity":95,"Duration":118000,"SoundDuration":118000,"Delta":284088911},{"NoteNumber":73,"Velocity":81,"Duration":118000,"SoundDuration":118000,"Delta":284088911},{"NoteNumber":45,"Velocity":84,"Duration":354002,"SoundDuration":354002,"Delta":284088911},{"NoteNumber":33,"Velocity":70,"Duration":354002,"SoundDuration":354002,"Delta":284088911},{"NoteNumber":74,"Velocity":79,"Duration":118000,"SoundDuration":118000,"Delta":284206912},{"NoteNumber":86,"Velocity":93,"Duration":118000,"SoundDuration":118000,"Delta":284206912},{"NoteNumber":73,"Velocity":75,"Duration":118000,"SoundDuration":118000,"Delta":284324913},{"NoteNumber":85,"Velocity":90,"Duration":118000,"SoundDuration":118000,"Delta":284324913},{"NoteNumber":72,"Velocity":82,"Duration":173842,"SoundDuration":173842,"Delta":284442914},{"NoteNumber":84,"Velocity":97,"Duration":173842,"SoundDuration":173842,"Delta":284442914},{"NoteNumber":61,"Velocity":74,"Duration":698623,"SoundDuration":698623,"Delta":284442914},{"NoteNumber":52,"Velocity":62,"Duration":348769,"SoundDuration":348769,"Delta":284442914},{"NoteNumber":85,"Velocity":93,"Duration":174927,"SoundDuration":174927,"Delta":284616757},{"NoteNumber":73,"Velocity":79,"Duration":174927,"SoundDuration":174927,"Delta":284616757},{"NoteNumber":76,"Velocity":82,"Duration":174926,"SoundDuration":174926,"Delta":284791684},{"NoteNumber":88,"Velocity":97,"Duration":174926,"SoundDuration":174926,"Delta":284791684},{"NoteNumber":68,"Velocity":74,"Duration":349853,"SoundDuration":349853,"Delta":284791684},{"NoteNumber":57,"Velocity":62,"Duration":349853,"SoundDuration":349853,"Delta":284791684},{"NoteNumber":74,"Velocity":78,"Duration":174927,"SoundDuration":174927,"Delta":284966611},{"NoteNumber":86,"Velocity":92,"Duration":174927,"SoundDuration":174927,"Delta":284966611},{"NoteNumber":78,"Velocity":86,"Duration":1049373,"SoundDuration":1049373,"Delta":285141538},{"NoteNumber":73,"Velocity":94,"Duration":354002,"SoundDuration":354002,"Delta":285141538},{"NoteNumber":85,"Velocity":110,"Duration":354002,"SoundDuration":354002,"Delta":285141538},{"NoteNumber":38,"Velocity":70,"Duration":354002,"SoundDuration":354002,"Delta":285141538},{"NoteNumber":50,"Velocity":84,"Duration":354002,"SoundDuration":354002,"Delta":285141538},{"NoteNumber":71,"Velocity":82,"Duration":521527,"SoundDuration":521527,"Delta":285495541},{"NoteNumber":83,"Velocity":97,"Duration":521527,"SoundDuration":521527,"Delta":285495541},{"NoteNumber":50,"Velocity":62,"Duration":347685,"SoundDuration":347685,"Delta":285495541},{"NoteNumber":59,"Velocity":74,"Duration":347685,"SoundDuration":347685,"Delta":285495541},{"NoteNumber":54,"Velocity":62,"Duration":347685,"SoundDuration":347685,"Delta":285843226},{"NoteNumber":66,"Velocity":74,"Duration":347685,"SoundDuration":347685,"Delta":285843226},{"NoteNumber":70,"Velocity":82,"Duration":173842,"SoundDuration":173842,"Delta":286017068},{"NoteNumber":82,"Velocity":97,"Duration":173842,"SoundDuration":173842,"Delta":286017068},{"NoteNumber":83,"Velocity":97,"Duration":265502,"SoundDuration":265502,"Delta":286190911},{"NoteNumber":71,"Velocity":82,"Duration":265502,"SoundDuration":265502,"Delta":286190911},{"NoteNumber":77,"Velocity":86,"Duration":1049373,"SoundDuration":1049373,"Delta":286190911},{"NoteNumber":37,"Velocity":70,"Duration":354002,"SoundDuration":354002,"Delta":286190911},{"NoteNumber":49,"Velocity":84,"Duration":354002,"SoundDuration":354002,"Delta":286190911},{"NoteNumber":72,"Velocity":79,"Duration":262343,"SoundDuration":262343,"Delta":286456413},{"NoteNumber":84,"Velocity":93,"Duration":262343,"SoundDuration":262343,"Delta":286456413},{"NoteNumber":61,"Velocity":74,"Duration":347685,"SoundDuration":347685,"Delta":286544914},{"NoteNumber":56,"Velocity":62,"Duration":347685,"SoundDuration":347685,"Delta":286544914},{"NoteNumber":85,"Velocity":97,"Duration":260763,"SoundDuration":260763,"Delta":286718756},{"NoteNumber":73,"Velocity":82,"Duration":260763,"SoundDuration":260763,"Delta":286718756},{"NoteNumber":65,"Velocity":74,"Duration":347685,"SoundDuration":347685,"Delta":286892599},{"NoteNumber":59,"Velocity":62,"Duration":347685,"SoundDuration":347685,"Delta":286892599},{"NoteNumber":68,"Velocity":78,"Duration":260763,"SoundDuration":260763,"Delta":286979520},{"NoteNumber":80,"Velocity":92,"Duration":260763,"SoundDuration":260763,"Delta":286979520},{"NoteNumber":73,"Velocity":77,"Duration":701687,"SoundDuration":701687,"Delta":287240284},{"NoteNumber":78,"Velocity":81,"Duration":701687,"SoundDuration":701687,"Delta":287240284},{"NoteNumber":71,"Velocity":94,"Duration":354002,"SoundDuration":354002,"Delta":287240284},{"NoteNumber":83,"Velocity":113,"Duration":354002,"SoundDuration":354002,"Delta":287240284},{"NoteNumber":42,"Velocity":84,"Duration":354002,"SoundDuration":354002,"Delta":287240284},{"NoteNumber":30,"Velocity":70,"Duration":354002,"SoundDuration":354002,"Delta":287240284},{"NoteNumber":81,"Velocity":97,"Duration":521527,"SoundDuration":521527,"Delta":287594287},{"NoteNumber":69,"Velocity":82,"Duration":695370,"SoundDuration":695370,"Delta":287594287},{"NoteNumber":54,"Velocity":62,"Duration":695370,"SoundDuration":695370,"Delta":287594287},{"NoteNumber":61,"Velocity":74,"Duration":347685,"SoundDuration":347685,"Delta":287594287},{"NoteNumber":57,"Velocity":62,"Duration":347685,"SoundDuration":347685,"Delta":287941972},{"NoteNumber":66,"Velocity":74,"Duration":347685,"SoundDuration":347685,"Delta":287941972},{"NoteNumber":80,"Velocity":97,"Duration":86921,"SoundDuration":86921,"Delta":288115814},{"NoteNumber":78,"Velocity":80,"Duration":43460,"SoundDuration":43460,"Delta":288202736},{"NoteNumber":80,"Velocity":79,"Duration":43460,"SoundDuration":43460,"Delta":288246196},{"NoteNumber":69,"Velocity":82,"Duration":354002,"SoundDuration":354002,"Delta":288289657},{"NoteNumber":78,"Velocity":97,"Duration":354002,"SoundDuration":354002,"Delta":288289657},{"NoteNumber":75,"Velocity":82,"Duration":354002,"SoundDuration":354002,"Delta":288289657},{"NoteNumber":71,"Velocity":82,"Duration":354002,"SoundDuration":354002,"Delta":288289657},{"NoteNumber":35,"Velocity":70,"Duration":354002,"SoundDuration":354002,"Delta":288289657},{"NoteNumber":47,"Velocity":84,"Duration":354002,"SoundDuration":354002,"Delta":288289657},{"NoteNumber":69,"Velocity":71,"Duration":159355,"SoundDuration":159355,"Delta":288643660},{"NoteNumber":77,"Velocity":84,"Duration":159355,"SoundDuration":159355,"Delta":288643660},{"NoteNumber":75,"Velocity":71,"Duration":159355,"SoundDuration":159355,"Delta":288643660},{"NoteNumber":71,"Velocity":71,"Duration":159355,"SoundDuration":159355,"Delta":288643660},{"NoteNumber":59,"Velocity":74,"Duration":347685,"SoundDuration":347685,"Delta":288643660},{"NoteNumber":53,"Velocity":62,"Duration":695370,"SoundDuration":695370,"Delta":288643660},{"NoteNumber":71,"Velocity":74,"Duration":159355,"SoundDuration":159355,"Delta":288817502},{"NoteNumber":69,"Velocity":74,"Duration":159355,"SoundDuration":159355,"Delta":288817502},{"NoteNumber":75,"Velocity":74,"Duration":159355,"SoundDuration":159355,"Delta":288817502},{"NoteNumber":78,"Velocity":88,"Duration":159355,"SoundDuration":159355,"Delta":288817502},{"NoteNumber":69,"Velocity":77,"Duration":159355,"SoundDuration":159355,"Delta":288991345},{"NoteNumber":71,"Velocity":77,"Duration":159355,"SoundDuration":159355,"Delta":288991345},{"NoteNumber":75,"Velocity":77,"Duration":159355,"SoundDuration":159355,"Delta":288991345},{"NoteNumber":80,"Velocity":91,"Duration":159355,"SoundDuration":159355,"Delta":288991345},{"NoteNumber":63,"Velocity":74,"Duration":347685,"SoundDuration":347685,"Delta":288991345},{"NoteNumber":57,"Velocity":62,"Duration":347685,"SoundDuration":347685,"Delta":288991345},{"NoteNumber":71,"Velocity":80,"Duration":159355,"SoundDuration":159355,"Delta":289165187},{"NoteNumber":75,"Velocity":80,"Duration":159355,"SoundDuration":159355,"Delta":289165187},{"NoteNumber":69,"Velocity":80,"Duration":159355,"SoundDuration":159355,"Delta":289165187},{"NoteNumber":81,"Velocity":94,"Duration":159355,"SoundDuration":159355,"Delta":289165187},{"NoteNumber":68,"Velocity":82,"Duration":1027962,"SoundDuration":1027962,"Delta":289339030},{"NoteNumber":64,"Velocity":82,"Duration":1027962,"SoundDuration":1027962,"Delta":289339030},{"NoteNumber":62,"Velocity":82,"Duration":1027962,"SoundDuration":1027962,"Delta":289339030},{"NoteNumber":71,"Velocity":99,"Duration":1027962,"SoundDuration":1027962,"Delta":289339030},{"NoteNumber":40,"Velocity":84,"Duration":351905,"SoundDuration":351905,"Delta":289339030},{"NoteNumber":28,"Velocity":70,"Duration":351905,"SoundDuration":351905,"Delta":289339030},{"NoteNumber":56,"Velocity":72,"Duration":338028,"SoundDuration":338028,"Delta":289690936},{"NoteNumber":47,"Velocity":61,"Duration":338028,"SoundDuration":338028,"Delta":289690936},{"NoteNumber":59,"Velocity":73,"Duration":338028,"SoundDuration":338028,"Delta":290028964},{"NoteNumber":52,"Velocity":61,"Duration":338028,"SoundDuration":338028,"Delta":290028964},{"NoteNumber":73,"Velocity":81,"Duration":680068,"SoundDuration":680068,"Delta":290366992},{"NoteNumber":76,"Velocity":96,"Duration":680068,"SoundDuration":680068,"Delta":290366992},{"NoteNumber":64,"Velocity":81,"Duration":680068,"SoundDuration":680068,"Delta":290366992},{"NoteNumber":68,"Velocity":81,"Duration":680068,"SoundDuration":680068,"Delta":290366992},{"NoteNumber":56,"Velocity":70,"Duration":353981,"SoundDuration":353981,"Delta":290366992},{"NoteNumber":62,"Velocity":84,"Duration":353981,"SoundDuration":353981,"Delta":290366992},{"NoteNumber":59,"Velocity":72,"Duration":326086,"SoundDuration":326086,"Delta":290720974},{"NoteNumber":52,"Velocity":61,"Duration":326086,"SoundDuration":326086,"Delta":290720974},{"NoteNumber":62,"Velocity":77,"Duration":326087,"SoundDuration":326087,"Delta":291047061},{"NoteNumber":76,"Velocity":91,"Duration":326087,"SoundDuration":326087,"Delta":291047061},{"NoteNumber":64,"Velocity":77,"Duration":326087,"SoundDuration":326087,"Delta":291047061},{"NoteNumber":68,"Velocity":77,"Duration":326087,"SoundDuration":326087,"Delta":291047061},{"NoteNumber":73,"Velocity":77,"Duration":326087,"SoundDuration":326087,"Delta":291047061},{"NoteNumber":47,"Velocity":61,"Duration":326087,"SoundDuration":326087,"Delta":291047061},{"NoteNumber":56,"Velocity":73,"Duration":326087,"SoundDuration":326087,"Delta":291047061},{"NoteNumber":61,"Velocity":81,"Duration":326086,"SoundDuration":326086,"Delta":291373148},{"NoteNumber":57,"Velocity":81,"Duration":326086,"SoundDuration":326086,"Delta":291373148},{"NoteNumber":69,"Velocity":96,"Duration":326086,"SoundDuration":326086,"Delta":291373148},{"NoteNumber":33,"Velocity":70,"Duration":326086,"SoundDuration":326086,"Delta":291373148},{"NoteNumber":45,"Velocity":84,"Duration":326086,"SoundDuration":326086,"Delta":291373148},{"NoteNumber":52,"Velocity":61,"Duration":331492,"SoundDuration":331492,"Delta":291699235},{"NoteNumber":61,"Velocity":73,"Duration":331492,"SoundDuration":331492,"Delta":291699235},{"NoteNumber":73,"Velocity":81,"Duration":331491,"SoundDuration":331491,"Delta":292030727},{"NoteNumber":69,"Velocity":81,"Duration":331491,"SoundDuration":331491,"Delta":292030727},{"NoteNumber":81,"Velocity":96,"Duration":331491,"SoundDuration":331491,"Delta":292030727},{"NoteNumber":57,"Velocity":62,"Duration":331491,"SoundDuration":331491,"Delta":292030727},{"NoteNumber":64,"Velocity":74,"Duration":331491,"SoundDuration":331491,"Delta":292030727},{"NoteNumber":93,"Velocity":105,"Duration":645220,"SoundDuration":645220,"Delta":292362219},{"NoteNumber":81,"Velocity":89,"Duration":645220,"SoundDuration":645220,"Delta":292362219},{"NoteNumber":85,"Velocity":89,"Duration":645220,"SoundDuration":645220,"Delta":292362219},{"NoteNumber":61,"Velocity":70,"Duration":325220,"SoundDuration":325220,"Delta":292362219},{"NoteNumber":69,"Velocity":84,"Duration":325220,"SoundDuration":325220,"Delta":292362219},{"NoteNumber":64,"Velocity":73,"Duration":319999,"SoundDuration":319999,"Delta":292687440},{"NoteNumber":57,"Velocity":61,"Duration":319999,"SoundDuration":319999,"Delta":292687440},{"NoteNumber":92,"Velocity":101,"Duration":319999,"SoundDuration":319999,"Delta":293007440},{"NoteNumber":85,"Velocity":85,"Duration":319999,"SoundDuration":319999,"Delta":293007440},{"NoteNumber":80,"Velocity":85,"Duration":319999,"SoundDuration":319999,"Delta":293007440},{"NoteNumber":61,"Velocity":73,"Duration":319999,"SoundDuration":319999,"Delta":293007440},{"NoteNumber":52,"Velocity":61,"Duration":319999,"SoundDuration":319999,"Delta":293007440},{"NoteNumber":85,"Velocity":89,"Duration":969581,"SoundDuration":969581,"Delta":293327440},{"NoteNumber":78,"Velocity":87,"Duration":969581,"SoundDuration":969581,"Delta":293327440},{"NoteNumber":90,"Velocity":103,"Duration":969581,"SoundDuration":969581,"Delta":293327440},{"NoteNumber":35,"Velocity":70,"Duration":327869,"SoundDuration":327869,"Delta":293327440},{"NoteNumber":47,"Velocity":84,"Duration":327869,"SoundDuration":327869,"Delta":293327440},{"NoteNumber":59,"Velocity":73,"Duration":320855,"SoundDuration":320855,"Delta":293655309},{"NoteNumber":54,"Velocity":61,"Duration":320855,"SoundDuration":320855,"Delta":293655309},{"NoteNumber":63,"Velocity":73,"Duration":320855,"SoundDuration":320855,"Delta":293976165},{"NoteNumber":57,"Velocity":61,"Duration":320855,"SoundDuration":320855,"Delta":293976165},{"NoteNumber":92,"Velocity":102,"Duration":653160,"SoundDuration":653160,"Delta":294297021},{"NoteNumber":87,"Velocity":86,"Duration":653160,"SoundDuration":653160,"Delta":294297021},{"NoteNumber":83,"Velocity":86,"Duration":653160,"SoundDuration":653160,"Delta":294297021},{"NoteNumber":59,"Velocity":70,"Duration":330579,"SoundDuration":330579,"Delta":294297021},{"NoteNumber":66,"Velocity":84,"Duration":330579,"SoundDuration":330579,"Delta":294297021},{"NoteNumber":57,"Velocity":61,"Duration":322581,"SoundDuration":322581,"Delta":294627600},{"NoteNumber":63,"Velocity":72,"Duration":322581,"SoundDuration":322581,"Delta":294627600},{"NoteNumber":92,"Velocity":93,"Duration":322581,"SoundDuration":322581,"Delta":294950181},{"NoteNumber":87,"Velocity":79,"Duration":322581,"SoundDuration":322581,"Delta":294950181},{"NoteNumber":81,"Velocity":79,"Duration":322581,"SoundDuration":322581,"Delta":294950181},{"NoteNumber":59,"Velocity":72,"Duration":322581,"SoundDuration":322581,"Delta":294950181},{"NoteNumber":54,"Velocity":61,"Duration":322581,"SoundDuration":322581,"Delta":294950181},{"NoteNumber":80,"Velocity":88,"Duration":967065,"SoundDuration":967065,"Delta":295272762},{"NoteNumber":76,"Velocity":88,"Duration":967065,"SoundDuration":967065,"Delta":295272762},{"NoteNumber":88,"Velocity":103,"Duration":967065,"SoundDuration":967065,"Delta":295272762},{"NoteNumber":52,"Velocity":84,"Duration":328767,"SoundDuration":328767,"Delta":295272762},{"NoteNumber":40,"Velocity":70,"Duration":328767,"SoundDuration":328767,"Delta":295272762},{"NoteNumber":52,"Velocity":62,"Duration":319148,"SoundDuration":319148,"Delta":295601529},{"NoteNumber":59,"Velocity":74,"Duration":319148,"SoundDuration":319148,"Delta":295601529},{"NoteNumber":56,"Velocity":62,"Duration":319149,"SoundDuration":319149,"Delta":295920678},{"NoteNumber":64,"Velocity":74,"Duration":319149,"SoundDuration":319149,"Delta":295920678},{"NoteNumber":88,"Velocity":89,"Duration":870941,"SoundDuration":870941,"Delta":296239827},{"NoteNumber":100,"Velocity":104,"Duration":870941,"SoundDuration":870941,"Delta":296239827},{"NoteNumber":59,"Velocity":70,"Duration":324008,"SoundDuration":324008,"Delta":296239827},{"NoteNumber":68,"Velocity":84,"Duration":324008,"SoundDuration":324008,"Delta":296239827},{"NoteNumber":56,"Velocity":62,"Duration":312532,"SoundDuration":312532,"Delta":296563836},{"NoteNumber":64,"Velocity":74,"Duration":312532,"SoundDuration":312532,"Delta":296563836},{"NoteNumber":59,"Velocity":74,"Duration":324810,"SoundDuration":324810,"Delta":296876369},{"NoteNumber":52,"Velocity":62,"Duration":324810,"SoundDuration":324810,"Delta":296876369},{"NoteNumber":88,"Velocity":89,"Duration":90410,"SoundDuration":90410,"Delta":297110769},{"NoteNumber":100,"Velocity":104,"Duration":90410,"SoundDuration":90410,"Delta":297110769},{"NoteNumber":88,"Velocity":87,"Duration":160248,"SoundDuration":160248,"Delta":297201179},{"NoteNumber":100,"Velocity":104,"Duration":160248,"SoundDuration":160248,"Delta":297201179},{"NoteNumber":52,"Velocity":84,"Duration":320495,"SoundDuration":320495,"Delta":297201179},{"NoteNumber":40,"Velocity":70,"Duration":320495,"SoundDuration":320495,"Delta":297201179},{"NoteNumber":58,"Velocity":74,"Duration":314761,"SoundDuration":314761,"Delta":297521675},{"NoteNumber":52,"Velocity":62,"Duration":314761,"SoundDuration":314761,"Delta":297521675},{"NoteNumber":61,"Velocity":74,"Duration":314762,"SoundDuration":314762,"Delta":297836437},{"NoteNumber":54,"Velocity":62,"Duration":314762,"SoundDuration":314762,"Delta":297836437},{"NoteNumber":66,"Velocity":80,"Duration":1265821,"SoundDuration":1265821,"Delta":298151199},{"NoteNumber":78,"Velocity":94,"Duration":1265821,"SoundDuration":1265821,"Delta":298151199},{"NoteNumber":58,"Velocity":70,"Duration":320495,"SoundDuration":320495,"Delta":298151199},{"NoteNumber":64,"Velocity":84,"Duration":320495,"SoundDuration":320495,"Delta":298151199},{"NoteNumber":54,"Velocity":62,"Duration":310880,"SoundDuration":310880,"Delta":298471695},{"NoteNumber":61,"Velocity":74,"Duration":310880,"SoundDuration":310880,"Delta":298471695},{"NoteNumber":52,"Velocity":62,"Duration":314136,"SoundDuration":314136,"Delta":298782576},{"NoteNumber":58,"Velocity":74,"Duration":314136,"SoundDuration":314136,"Delta":298782576},{"NoteNumber":28,"Velocity":70,"Duration":320308,"SoundDuration":320308,"Delta":299096712},{"NoteNumber":40,"Velocity":84,"Duration":320308,"SoundDuration":320308,"Delta":299096712},{"NoteNumber":78,"Velocity":79,"Duration":78997,"SoundDuration":78997,"Delta":299417020},{"NoteNumber":66,"Velocity":67,"Duration":78997,"SoundDuration":78997,"Delta":299417020},{"NoteNumber":52,"Velocity":62,"Duration":315989,"SoundDuration":315989,"Delta":299417020},{"NoteNumber":58,"Velocity":74,"Duration":315989,"SoundDuration":315989,"Delta":299417020},{"NoteNumber":68,"Velocity":67,"Duration":78997,"SoundDuration":78997,"Delta":299496018},{"NoteNumber":80,"Velocity":79,"Duration":78997,"SoundDuration":78997,"Delta":299496018},{"NoteNumber":66,"Velocity":70,"Duration":157994,"SoundDuration":157994,"Delta":299575015},{"NoteNumber":78,"Velocity":83,"Duration":157994,"SoundDuration":157994,"Delta":299575015},{"NoteNumber":65,"Velocity":64,"Duration":157538,"SoundDuration":157538,"Delta":299733009},{"NoteNumber":77,"Velocity":77,"Duration":157538,"SoundDuration":157538,"Delta":299733009},{"NoteNumber":54,"Velocity":62,"Duration":315035,"SoundDuration":315035,"Delta":299733009},{"NoteNumber":61,"Velocity":74,"Duration":315035,"SoundDuration":315035,"Delta":299733009},{"NoteNumber":66,"Velocity":67,"Duration":157496,"SoundDuration":157496,"Delta":299890548},{"NoteNumber":78,"Velocity":79,"Duration":157496,"SoundDuration":157496,"Delta":299890548},{"NoteNumber":68,"Velocity":68,"Duration":157028,"SoundDuration":157028,"Delta":300048045},{"NoteNumber":80,"Velocity":81,"Duration":157028,"SoundDuration":157028,"Delta":300048045},{"NoteNumber":64,"Velocity":84,"Duration":314014,"SoundDuration":314014,"Delta":300048045},{"NoteNumber":58,"Velocity":70,"Duration":314014,"SoundDuration":314014,"Delta":300048045},{"NoteNumber":70,"Velocity":71,"Duration":156985,"SoundDuration":156985,"Delta":300205073},{"NoteNumber":82,"Velocity":84,"Duration":156985,"SoundDuration":156985,"Delta":300205073},{"NoteNumber":71,"Velocity":73,"Duration":156905,"SoundDuration":156905,"Delta":300362059},{"NoteNumber":83,"Velocity":86,"Duration":156905,"SoundDuration":156905,"Delta":300362059},{"NoteNumber":61,"Velocity":74,"Duration":316461,"SoundDuration":316461,"Delta":300362059},{"NoteNumber":54,"Velocity":62,"Duration":316461,"SoundDuration":316461,"Delta":300362059},{"NoteNumber":73,"Velocity":74,"Duration":159556,"SoundDuration":159556,"Delta":300518965},{"NoteNumber":85,"Velocity":89,"Duration":159556,"SoundDuration":159556,"Delta":300518965},{"NoteNumber":86,"Velocity":91,"Duration":162252,"SoundDuration":162252,"Delta":300678521},{"NoteNumber":74,"Velocity":77,"Duration":162252,"SoundDuration":162252,"Delta":300678521},{"NoteNumber":52,"Velocity":62,"Duration":327568,"SoundDuration":327568,"Delta":300678521},{"NoteNumber":58,"Velocity":74,"Duration":327568,"SoundDuration":327568,"Delta":300678521},{"NoteNumber":76,"Velocity":80,"Duration":165315,"SoundDuration":165315,"Delta":300840774},{"NoteNumber":88,"Velocity":94,"Duration":165315,"SoundDuration":165315,"Delta":300840774},{"NoteNumber":78,"Velocity":94,"Duration":160248,"SoundDuration":160248,"Delta":301006090},{"NoteNumber":90,"Velocity":113,"Duration":160248,"SoundDuration":160248,"Delta":301006090},{"NoteNumber":40,"Velocity":70,"Duration":320495,"SoundDuration":320495,"Delta":301006090},{"NoteNumber":52,"Velocity":84,"Duration":320495,"SoundDuration":320495,"Delta":301006090},{"NoteNumber":52,"Velocity":62,"Duration":314761,"SoundDuration":314761,"Delta":301326586},{"NoteNumber":60,"Velocity":74,"Duration":314761,"SoundDuration":314761,"Delta":301326586},{"NoteNumber":56,"Velocity":62,"Duration":314762,"SoundDuration":314762,"Delta":301641348},{"NoteNumber":63,"Velocity":74,"Duration":314762,"SoundDuration":314762,"Delta":301641348},{"NoteNumber":68,"Velocity":80,"Duration":635257,"SoundDuration":635257,"Delta":301956110},{"NoteNumber":80,"Velocity":94,"Duration":635257,"SoundDuration":635257,"Delta":301956110},{"NoteNumber":66,"Velocity":84,"Duration":320495,"SoundDuration":320495,"Delta":301956110},{"NoteNumber":60,"Velocity":70,"Duration":320495,"SoundDuration":320495,"Delta":301956110},{"NoteNumber":56,"Velocity":62,"Duration":314761,"SoundDuration":314761,"Delta":302276606},{"NoteNumber":63,"Velocity":74,"Duration":314761,"SoundDuration":314761,"Delta":302276606},{"NoteNumber":80,"Velocity":94,"Duration":314762,"SoundDuration":314762,"Delta":302591368},{"NoteNumber":68,"Velocity":80,"Duration":314762,"SoundDuration":314762,"Delta":302591368},{"NoteNumber":52,"Velocity":62,"Duration":314762,"SoundDuration":314762,"Delta":302591368},{"NoteNumber":60,"Velocity":74,"Duration":314762,"SoundDuration":314762,"Delta":302591368},{"NoteNumber":68,"Velocity":79,"Duration":636297,"SoundDuration":636297,"Delta":302906130},{"NoteNumber":40,"Velocity":84,"Duration":320308,"SoundDuration":320308,"Delta":302906130},{"NoteNumber":28,"Velocity":70,"Duration":320308,"SoundDuration":320308,"Delta":302906130},{"NoteNumber":80,"Velocity":74,"Duration":160060,"SoundDuration":160060,"Delta":303066378},{"NoteNumber":81,"Velocity":79,"Duration":157994,"SoundDuration":157994,"Delta":303226438},{"NoteNumber":52,"Velocity":62,"Duration":315989,"SoundDuration":315989,"Delta":303226438},{"NoteNumber":59,"Velocity":74,"Duration":315989,"SoundDuration":315989,"Delta":303226438},{"NoteNumber":80,"Velocity":74,"Duration":157994,"SoundDuration":157994,"Delta":303384432},{"NoteNumber":67,"Velocity":64,"Duration":157538,"SoundDuration":157538,"Delta":303542427},{"NoteNumber":79,"Velocity":77,"Duration":157538,"SoundDuration":157538,"Delta":303542427},{"NoteNumber":56,"Velocity":62,"Duration":315035,"SoundDuration":315035,"Delta":303542427},{"NoteNumber":63,"Velocity":74,"Duration":315035,"SoundDuration":315035,"Delta":303542427},{"NoteNumber":68,"Velocity":67,"Duration":157496,"SoundDuration":157496,"Delta":303699965},{"NoteNumber":80,"Velocity":79,"Duration":157496,"SoundDuration":157496,"Delta":303699965},{"NoteNumber":70,"Velocity":68,"Duration":157028,"SoundDuration":157028,"Delta":303857462},{"NoteNumber":82,"Velocity":81,"Duration":157028,"SoundDuration":157028,"Delta":303857462},{"NoteNumber":60,"Velocity":70,"Duration":314014,"SoundDuration":314014,"Delta":303857462},{"NoteNumber":66,"Velocity":84,"Duration":314014,"SoundDuration":314014,"Delta":303857462},{"NoteNumber":72,"Velocity":71,"Duration":156985,"SoundDuration":156985,"Delta":304014491},{"NoteNumber":84,"Velocity":84,"Duration":156985,"SoundDuration":156985,"Delta":304014491},{"NoteNumber":73,"Velocity":73,"Duration":156905,"SoundDuration":156905,"Delta":304171477},{"NoteNumber":85,"Velocity":86,"Duration":156905,"SoundDuration":156905,"Delta":304171477},{"NoteNumber":63,"Velocity":74,"Duration":316461,"SoundDuration":316461,"Delta":304171477},{"NoteNumber":56,"Velocity":62,"Duration":316461,"SoundDuration":316461,"Delta":304171477},{"NoteNumber":75,"Velocity":74,"Duration":159556,"SoundDuration":159556,"Delta":304328382},{"NoteNumber":87,"Velocity":89,"Duration":159556,"SoundDuration":159556,"Delta":304328382},{"NoteNumber":76,"Velocity":77,"Duration":162252,"SoundDuration":162252,"Delta":304487939},{"NoteNumber":88,"Velocity":91,"Duration":162252,"SoundDuration":162252,"Delta":304487939},{"NoteNumber":60,"Velocity":74,"Duration":327568,"SoundDuration":327568,"Delta":304487939},{"NoteNumber":52,"Velocity":62,"Duration":327568,"SoundDuration":327568,"Delta":304487939},{"NoteNumber":90,"Velocity":94,"Duration":165315,"SoundDuration":165315,"Delta":304650191},{"NoteNumber":78,"Velocity":80,"Duration":165315,"SoundDuration":165315,"Delta":304650191},{"NoteNumber":80,"Velocity":94,"Duration":160248,"SoundDuration":160248,"Delta":304815507},{"NoteNumber":92,"Velocity":113,"Duration":160248,"SoundDuration":160248,"Delta":304815507},{"NoteNumber":40,"Velocity":70,"Duration":320495,"SoundDuration":320495,"Delta":304815507},{"NoteNumber":52,"Velocity":84,"Duration":320495,"SoundDuration":320495,"Delta":304815507},{"NoteNumber":52,"Velocity":74,"Duration":314761,"SoundDuration":314761,"Delta":305136003},{"NoteNumber":61,"Velocity":62,"Duration":314761,"SoundDuration":314761,"Delta":305136003},{"NoteNumber":56,"Velocity":62,"Duration":314762,"SoundDuration":314762,"Delta":305450765},{"NoteNumber":64,"Velocity":74,"Duration":314762,"SoundDuration":314762,"Delta":305450765},{"NoteNumber":68,"Velocity":80,"Duration":635257,"SoundDuration":635257,"Delta":305765527},{"NoteNumber":80,"Velocity":94,"Duration":635257,"SoundDuration":635257,"Delta":305765527},{"NoteNumber":39,"Velocity":70,"Duration":320495,"SoundDuration":320495,"Delta":305765527},{"NoteNumber":51,"Velocity":84,"Duration":320495,"SoundDuration":320495,"Delta":305765527},{"NoteNumber":51,"Velocity":62,"Duration":314761,"SoundDuration":314761,"Delta":306086023},{"NoteNumber":59,"Velocity":74,"Duration":314761,"SoundDuration":314761,"Delta":306086023},{"NoteNumber":68,"Velocity":80,"Duration":314762,"SoundDuration":314762,"Delta":306400785},{"NoteNumber":80,"Velocity":94,"Duration":314762,"SoundDuration":314762,"Delta":306400785},{"NoteNumber":63,"Velocity":74,"Duration":314762,"SoundDuration":314762,"Delta":306400785},{"NoteNumber":56,"Velocity":62,"Duration":314762,"SoundDuration":314762,"Delta":306400785},{"NoteNumber":80,"Velocity":80,"Duration":80124,"SoundDuration":80124,"Delta":306715547},{"NoteNumber":68,"Velocity":68,"Duration":80124,"SoundDuration":80124,"Delta":306715547},{"NoteNumber":37,"Velocity":70,"Duration":320308,"SoundDuration":320308,"Delta":306715547},{"NoteNumber":49,"Velocity":84,"Duration":320308,"SoundDuration":320308,"Delta":306715547},{"NoteNumber":70,"Velocity":62,"Duration":80124,"SoundDuration":80124,"Delta":306795671},{"NoteNumber":82,"Velocity":74,"Duration":80124,"SoundDuration":80124,"Delta":306795671},{"NoteNumber":68,"Velocity":62,"Duration":160060,"SoundDuration":160060,"Delta":306875795},{"NoteNumber":80,"Velocity":74,"Duration":160060,"SoundDuration":160060,"Delta":306875795},{"NoteNumber":67,"Velocity":64,"Duration":157994,"SoundDuration":157994,"Delta":307035855},{"NoteNumber":79,"Velocity":77,"Duration":157994,"SoundDuration":157994,"Delta":307035855},{"NoteNumber":56,"Velocity":74,"Duration":315989,"SoundDuration":315989,"Delta":307035855},{"NoteNumber":49,"Velocity":62,"Duration":315989,"SoundDuration":315989,"Delta":307035855},{"NoteNumber":68,"Velocity":67,"Duration":157994,"SoundDuration":157994,"Delta":307193850},{"NoteNumber":80,"Velocity":79,"Duration":157994,"SoundDuration":157994,"Delta":307193850},{"NoteNumber":82,"Velocity":82,"Duration":157538,"SoundDuration":157538,"Delta":307351844},{"NoteNumber":70,"Velocity":69,"Duration":157538,"SoundDuration":157538,"Delta":307351844},{"NoteNumber":61,"Velocity":75,"Duration":315035,"SoundDuration":315035,"Delta":307351844},{"NoteNumber":52,"Velocity":63,"Duration":315035,"SoundDuration":315035,"Delta":307351844},{"NoteNumber":71,"Velocity":72,"Duration":157496,"SoundDuration":157496,"Delta":307509383},{"NoteNumber":83,"Velocity":86,"Duration":157496,"SoundDuration":157496,"Delta":307509383},{"NoteNumber":73,"Velocity":75,"Duration":157028,"SoundDuration":157028,"Delta":307666880},{"NoteNumber":85,"Velocity":90,"Duration":157028,"SoundDuration":157028,"Delta":307666880},{"NoteNumber":32,"Velocity":72,"Duration":314014,"SoundDuration":314014,"Delta":307666880},{"NoteNumber":44,"Velocity":88,"Duration":314014,"SoundDuration":314014,"Delta":307666880},{"NoteNumber":75,"Velocity":78,"Duration":156985,"SoundDuration":156985,"Delta":307823908},{"NoteNumber":87,"Velocity":93,"Duration":156985,"SoundDuration":156985,"Delta":307823908},{"NoteNumber":89,"Velocity":95,"Duration":156905,"SoundDuration":156905,"Delta":307980894},{"NoteNumber":77,"Velocity":81,"Duration":156905,"SoundDuration":156905,"Delta":307980894},{"NoteNumber":47,"Velocity":66,"Duration":316461,"SoundDuration":316461,"Delta":307980894},{"NoteNumber":56,"Velocity":79,"Duration":316461,"SoundDuration":316461,"Delta":307980894},{"NoteNumber":79,"Velocity":85,"Duration":159556,"SoundDuration":159556,"Delta":308137800},{"NoteNumber":91,"Velocity":101,"Duration":159556,"SoundDuration":159556,"Delta":308137800},{"NoteNumber":80,"Velocity":85,"Duration":162252,"SoundDuration":162252,"Delta":308297356},{"NoteNumber":92,"Velocity":101,"Duration":162252,"SoundDuration":162252,"Delta":308297356},{"NoteNumber":51,"Velocity":67,"Duration":327568,"SoundDuration":327568,"Delta":308297356},{"NoteNumber":59,"Velocity":80,"Duration":327568,"SoundDuration":327568,"Delta":308297356},{"NoteNumber":82,"Velocity":86,"Duration":165315,"SoundDuration":165315,"Delta":308459609},{"NoteNumber":94,"Velocity":102,"Duration":165315,"SoundDuration":165315,"Delta":308459609},{"NoteNumber":83,"Velocity":94,"Duration":187500,"SoundDuration":187500,"Delta":308624924},{"NoteNumber":95,"Velocity":112,"Duration":187500,"SoundDuration":187500,"Delta":308624924},{"NoteNumber":41,"Velocity":88,"Duration":375000,"SoundDuration":375000,"Delta":308624924},{"NoteNumber":29,"Velocity":72,"Duration":375000,"SoundDuration":375000,"Delta":308624924},{"NoteNumber":92,"Velocity":85,"Duration":107527,"SoundDuration":107527,"Delta":308999924},{"NoteNumber":95,"Velocity":85,"Duration":107527,"SoundDuration":107527,"Delta":308999924},{"NoteNumber":89,"Velocity":79,"Duration":107142,"SoundDuration":107142,"Delta":309107451},{"NoteNumber":87,"Velocity":78,"Duration":106761,"SoundDuration":106761,"Delta":309214594},{"NoteNumber":83,"Velocity":77,"Duration":106257,"SoundDuration":106257,"Delta":309321356},{"NoteNumber":53,"Velocity":52,"Duration":500846,"SoundDuration":500846,"Delta":309347951},{"NoteNumber":59,"Velocity":54,"Duration":474250,"SoundDuration":474250,"Delta":309374547},{"NoteNumber":63,"Velocity":56,"Duration":447686,"SoundDuration":447686,"Delta":309401112},{"NoteNumber":80,"Velocity":80,"Duration":105882,"SoundDuration":105882,"Delta":309427613},{"NoteNumber":83,"Velocity":80,"Duration":105882,"SoundDuration":105882,"Delta":309427613},{"NoteNumber":68,"Velocity":59,"Duration":421184,"SoundDuration":421184,"Delta":309427613},{"NoteNumber":77,"Velocity":78,"Duration":105510,"SoundDuration":105510,"Delta":309533496},{"NoteNumber":75,"Velocity":73,"Duration":105140,"SoundDuration":105140,"Delta":309639006},{"NoteNumber":71,"Velocity":73,"Duration":104651,"SoundDuration":104651,"Delta":309744147},{"NoteNumber":71,"Velocity":74,"Duration":104287,"SoundDuration":104287,"Delta":309848798},{"NoteNumber":68,"Velocity":74,"Duration":104287,"SoundDuration":104287,"Delta":309848798},{"NoteNumber":65,"Velocity":64,"Duration":103926,"SoundDuration":103926,"Delta":309953086},{"NoteNumber":63,"Velocity":64,"Duration":103806,"SoundDuration":103806,"Delta":310057012},{"NoteNumber":59,"Velocity":63,"Duration":103806,"SoundDuration":103806,"Delta":310160818},{"NoteNumber":56,"Velocity":69,"Duration":104166,"SoundDuration":104166,"Delta":310264625},{"NoteNumber":59,"Velocity":69,"Duration":104166,"SoundDuration":104166,"Delta":310264625},{"NoteNumber":53,"Velocity":61,"Duration":104166,"SoundDuration":104166,"Delta":310368791},{"NoteNumber":51,"Velocity":60,"Duration":104408,"SoundDuration":104408,"Delta":310472958},{"NoteNumber":47,"Velocity":60,"Duration":104529,"SoundDuration":104529,"Delta":310577367},{"NoteNumber":59,"Velocity":60,"Duration":104651,"SoundDuration":104651,"Delta":310681896},{"NoteNumber":56,"Velocity":60,"Duration":104651,"SoundDuration":104651,"Delta":310681896},{"NoteNumber":53,"Velocity":62,"Duration":104894,"SoundDuration":104894,"Delta":310786548},{"NoteNumber":51,"Velocity":52,"Duration":104894,"SoundDuration":104894,"Delta":310891443},{"NoteNumber":47,"Velocity":52,"Duration":105263,"SoundDuration":105263,"Delta":310996338},{"NoteNumber":56,"Velocity":52,"Duration":105263,"SoundDuration":105263,"Delta":311101601},{"NoteNumber":59,"Velocity":52,"Duration":210773,"SoundDuration":210773,"Delta":311101601},{"NoteNumber":53,"Velocity":51,"Duration":105510,"SoundDuration":105510,"Delta":311206864},{"NoteNumber":58,"Velocity":52,"Duration":106530,"SoundDuration":106530,"Delta":311312374},{"NoteNumber":34,"Velocity":44,"Duration":196293,"SoundDuration":196293,"Delta":311312374},{"NoteNumber":56,"Velocity":48,"Duration":106076,"SoundDuration":106076,"Delta":311410735},{"NoteNumber":59,"Velocity":52,"Duration":105598,"SoundDuration":105598,"Delta":311508668},{"NoteNumber":50,"Velocity":34,"Duration":194491,"SoundDuration":194491,"Delta":311508668},{"NoteNumber":53,"Velocity":47,"Duration":105047,"SoundDuration":105047,"Delta":311606176},{"NoteNumber":58,"Velocity":47,"Duration":104579,"SoundDuration":104579,"Delta":311703159},{"NoteNumber":56,"Velocity":47,"Duration":104412,"SoundDuration":104412,"Delta":311799726},{"NoteNumber":59,"Velocity":52,"Duration":108695,"SoundDuration":108695,"Delta":311895777},{"NoteNumber":34,"Velocity":44,"Duration":200669,"SoundDuration":200669,"Delta":311895777},{"NoteNumber":53,"Velocity":47,"Duration":108321,"SoundDuration":108321,"Delta":311996112},{"NoteNumber":58,"Velocity":52,"Duration":103833,"SoundDuration":103833,"Delta":312096446},{"NoteNumber":50,"Velocity":34,"Duration":191693,"SoundDuration":191693,"Delta":312096446},{"NoteNumber":56,"Velocity":47,"Duration":103833,"SoundDuration":103833,"Delta":312192293},{"NoteNumber":59,"Velocity":47,"Duration":103833,"SoundDuration":103833,"Delta":312288140},{"NoteNumber":53,"Velocity":47,"Duration":104097,"SoundDuration":104097,"Delta":312383987},{"NoteNumber":58,"Velocity":52,"Duration":107260,"SoundDuration":107260,"Delta":312479833},{"NoteNumber":34,"Velocity":46,"Duration":198019,"SoundDuration":198019,"Delta":312479833},{"NoteNumber":56,"Velocity":48,"Duration":106946,"SoundDuration":106946,"Delta":312578843},{"NoteNumber":59,"Velocity":52,"Duration":103174,"SoundDuration":103174,"Delta":312677853},{"NoteNumber":50,"Velocity":34,"Duration":190475,"SoundDuration":190475,"Delta":312677853},{"NoteNumber":53,"Velocity":47,"Duration":103174,"SoundDuration":103174,"Delta":312773091},{"NoteNumber":58,"Velocity":47,"Duration":103174,"SoundDuration":103174,"Delta":312868329},{"NoteNumber":56,"Velocity":47,"Duration":103276,"SoundDuration":103276,"Delta":312963567},{"NoteNumber":59,"Velocity":52,"Duration":104501,"SoundDuration":104501,"Delta":313058805},{"NoteNumber":34,"Velocity":48,"Duration":192925,"SoundDuration":192925,"Delta":313058805},{"NoteNumber":53,"Velocity":47,"Duration":104275,"SoundDuration":104275,"Delta":313155268},{"NoteNumber":58,"Velocity":52,"Duration":101562,"SoundDuration":101562,"Delta":313251731},{"NoteNumber":50,"Velocity":34,"Duration":187500,"SoundDuration":187500,"Delta":313251731},{"NoteNumber":56,"Velocity":47,"Duration":101562,"SoundDuration":101562,"Delta":313345481},{"NoteNumber":59,"Velocity":47,"Duration":101562,"SoundDuration":101562,"Delta":313439231},{"NoteNumber":53,"Velocity":47,"Duration":101788,"SoundDuration":101788,"Delta":313532981},{"NoteNumber":58,"Velocity":52,"Duration":104501,"SoundDuration":104501,"Delta":313626731},{"NoteNumber":50,"Velocity":49,"Duration":192925,"SoundDuration":192925,"Delta":313626731},{"NoteNumber":56,"Velocity":48,"Duration":104275,"SoundDuration":104275,"Delta":313723194},{"NoteNumber":59,"Velocity":53,"Duration":101562,"SoundDuration":101562,"Delta":313819657},{"NoteNumber":65,"Velocity":34,"Duration":187500,"SoundDuration":187500,"Delta":313819657},{"NoteNumber":53,"Velocity":48,"Duration":101562,"SoundDuration":101562,"Delta":313913407},{"NoteNumber":58,"Velocity":48,"Duration":101562,"SoundDuration":101562,"Delta":314007157},{"NoteNumber":56,"Velocity":49,"Duration":101762,"SoundDuration":101762,"Delta":314100907},{"NoteNumber":59,"Velocity":55,"Duration":104166,"SoundDuration":104166,"Delta":314194657},{"NoteNumber":50,"Velocity":52,"Duration":192307,"SoundDuration":192307,"Delta":314194657},{"NoteNumber":53,"Velocity":50,"Duration":103966,"SoundDuration":103966,"Delta":314290811},{"NoteNumber":58,"Velocity":56,"Duration":101562,"SoundDuration":101562,"Delta":314386965},{"NoteNumber":65,"Velocity":36,"Duration":187500,"SoundDuration":187500,"Delta":314386965},{"NoteNumber":56,"Velocity":51,"Duration":101562,"SoundDuration":101562,"Delta":314480715},{"NoteNumber":59,"Velocity":51,"Duration":101562,"SoundDuration":101562,"Delta":314574465},{"NoteNumber":53,"Velocity":52,"Duration":101814,"SoundDuration":101814,"Delta":314668215},{"NoteNumber":58,"Velocity":58,"Duration":104838,"SoundDuration":104838,"Delta":314761965},{"NoteNumber":50,"Velocity":53,"Duration":193548,"SoundDuration":193548,"Delta":314761965},{"NoteNumber":56,"Velocity":54,"Duration":104586,"SoundDuration":104586,"Delta":314858739},{"NoteNumber":59,"Velocity":59,"Duration":101562,"SoundDuration":101562,"Delta":314955513},{"NoteNumber":65,"Velocity":38,"Duration":187500,"SoundDuration":187500,"Delta":314955513},{"NoteNumber":53,"Velocity":54,"Duration":101562,"SoundDuration":101562,"Delta":315049263},{"NoteNumber":58,"Velocity":54,"Duration":101562,"SoundDuration":101562,"Delta":315143013},{"NoteNumber":56,"Velocity":54,"Duration":101840,"SoundDuration":101840,"Delta":315236763},{"NoteNumber":59,"Velocity":61,"Duration":105178,"SoundDuration":105178,"Delta":315330513},{"NoteNumber":50,"Velocity":55,"Duration":194174,"SoundDuration":194174,"Delta":315330513},{"NoteNumber":53,"Velocity":55,"Duration":104899,"SoundDuration":104899,"Delta":315427601},{"NoteNumber":58,"Velocity":62,"Duration":101562,"SoundDuration":101562,"Delta":315524688},{"NoteNumber":65,"Velocity":40,"Duration":187500,"SoundDuration":187500,"Delta":315524688},{"NoteNumber":56,"Velocity":56,"Duration":101562,"SoundDuration":101562,"Delta":315618438},{"NoteNumber":59,"Velocity":57,"Duration":101562,"SoundDuration":101562,"Delta":315712188},{"NoteNumber":53,"Velocity":57,"Duration":101562,"SoundDuration":101562,"Delta":315805938},{"NoteNumber":58,"Velocity":65,"Duration":187500,"SoundDuration":187500,"Delta":315899688},{"NoteNumber":34,"Velocity":50,"Duration":187500,"SoundDuration":187500,"Delta":315899688},{"NoteNumber":58,"Velocity":65,"Duration":101562,"SoundDuration":101562,"Delta":316087188},{"NoteNumber":62,"Velocity":56,"Duration":101562,"SoundDuration":101562,"Delta":316180938},{"NoteNumber":59,"Velocity":65,"Duration":101562,"SoundDuration":101562,"Delta":316274688},{"NoteNumber":62,"Velocity":58,"Duration":101562,"SoundDuration":101562,"Delta":316368438},{"NoteNumber":61,"Velocity":65,"Duration":101343,"SoundDuration":101343,"Delta":316462188},{"NoteNumber":56,"Velocity":45,"Duration":187013,"SoundDuration":187013,"Delta":316462188},{"NoteNumber":53,"Velocity":37,"Duration":187013,"SoundDuration":187013,"Delta":316462188},{"NoteNumber":46,"Velocity":37,"Duration":187013,"SoundDuration":187013,"Delta":316462188},{"NoteNumber":65,"Velocity":58,"Duration":101246,"SoundDuration":101246,"Delta":316555744},{"NoteNumber":62,"Velocity":65,"Duration":101246,"SoundDuration":101246,"Delta":316649202},{"NoteNumber":68,"Velocity":58,"Duration":101246,"SoundDuration":101246,"Delta":316742660},{"NoteNumber":64,"Velocity":65,"Duration":101246,"SoundDuration":101246,"Delta":316836118},{"NoteNumber":68,"Velocity":58,"Duration":101221,"SoundDuration":101221,"Delta":316929576},{"NoteNumber":65,"Velocity":65,"Duration":100931,"SoundDuration":100931,"Delta":317023034},{"NoteNumber":53,"Velocity":37,"Duration":186239,"SoundDuration":186239,"Delta":317023034},{"NoteNumber":62,"Velocity":45,"Duration":186239,"SoundDuration":186239,"Delta":317023034},{"NoteNumber":56,"Velocity":37,"Duration":186239,"SoundDuration":186239,"Delta":317023034},{"NoteNumber":71,"Velocity":58,"Duration":100811,"SoundDuration":100811,"Delta":317116201},{"NoteNumber":67,"Velocity":65,"Duration":100619,"SoundDuration":100619,"Delta":317209273},{"NoteNumber":71,"Velocity":58,"Duration":100404,"SoundDuration":100404,"Delta":317302152},{"NoteNumber":68,"Velocity":64,"Duration":100284,"SoundDuration":100284,"Delta":317394840},{"NoteNumber":74,"Velocity":57,"Duration":100000,"SoundDuration":100000,"Delta":317487433},{"NoteNumber":70,"Velocity":63,"Duration":99882,"SoundDuration":99882,"Delta":317579741},{"NoteNumber":62,"Velocity":36,"Duration":184237,"SoundDuration":184237,"Delta":317579741},{"NoteNumber":56,"Velocity":36,"Duration":184237,"SoundDuration":184237,"Delta":317579741},{"NoteNumber":65,"Velocity":44,"Duration":184237,"SoundDuration":184237,"Delta":317579741},{"NoteNumber":74,"Velocity":56,"Duration":99693,"SoundDuration":99693,"Delta":317671954},{"NoteNumber":71,"Velocity":63,"Duration":99482,"SoundDuration":99482,"Delta":317763978},{"NoteNumber":74,"Velocity":57,"Duration":99364,"SoundDuration":99364,"Delta":317855815},{"NoteNumber":73,"Velocity":62,"Duration":99085,"SoundDuration":99085,"Delta":317947558},{"NoteNumber":77,"Velocity":56,"Duration":98854,"SoundDuration":98854,"Delta":318039022},{"NoteNumber":74,"Velocity":62,"Duration":98484,"SoundDuration":98484,"Delta":318130300},{"NoteNumber":68,"Velocity":43,"Duration":181818,"SoundDuration":181818,"Delta":318130300},{"NoteNumber":58,"Velocity":36,"Duration":181818,"SoundDuration":181818,"Delta":318130300},{"NoteNumber":65,"Velocity":36,"Duration":181818,"SoundDuration":181818,"Delta":318130300},{"NoteNumber":80,"Velocity":56,"Duration":98484,"SoundDuration":98484,"Delta":318221209},{"NoteNumber":76,"Velocity":62,"Duration":98484,"SoundDuration":98484,"Delta":318312118},{"NoteNumber":80,"Velocity":55,"Duration":98599,"SoundDuration":98599,"Delta":318403027},{"NoteNumber":77,"Velocity":61,"Duration":98784,"SoundDuration":98784,"Delta":318494029},{"NoteNumber":83,"Velocity":55,"Duration":98784,"SoundDuration":98784,"Delta":318585214},{"NoteNumber":79,"Velocity":61,"Duration":98784,"SoundDuration":98784,"Delta":318676400},{"NoteNumber":65,"Velocity":35,"Duration":182463,"SoundDuration":182463,"Delta":318676400},{"NoteNumber":68,"Velocity":35,"Duration":182463,"SoundDuration":182463,"Delta":318676400},{"NoteNumber":74,"Velocity":42,"Duration":182463,"SoundDuration":182463,"Delta":318676400},{"NoteNumber":83,"Velocity":54,"Duration":98900,"SoundDuration":98900,"Delta":318767585},{"NoteNumber":80,"Velocity":60,"Duration":99201,"SoundDuration":99201,"Delta":318858863},{"NoteNumber":86,"Velocity":54,"Duration":99505,"SoundDuration":99505,"Delta":318950420},{"NoteNumber":82,"Velocity":60,"Duration":99811,"SoundDuration":99811,"Delta":319042257},{"NoteNumber":86,"Velocity":54,"Duration":100094,"SoundDuration":100094,"Delta":319134376},{"NoteNumber":83,"Velocity":59,"Duration":100000,"SoundDuration":100000,"Delta":319226778},{"NoteNumber":68,"Velocity":39,"Duration":184710,"SoundDuration":184710,"Delta":319226778},{"NoteNumber":74,"Velocity":39,"Duration":184710,"SoundDuration":184710,"Delta":319226778},{"NoteNumber":77,"Velocity":46,"Duration":184710,"SoundDuration":184710,"Delta":319226778},{"NoteNumber":86,"Velocity":52,"Duration":100118,"SoundDuration":100118,"Delta":319319086},{"NoteNumber":85,"Velocity":59,"Duration":100308,"SoundDuration":100308,"Delta":319411489},{"NoteNumber":89,"Velocity":53,"Duration":100523,"SoundDuration":100523,"Delta":319504081},{"NoteNumber":86,"Velocity":59,"Duration":100643,"SoundDuration":100643,"Delta":319596865},{"NoteNumber":92,"Velocity":54,"Duration":100931,"SoundDuration":100931,"Delta":319689744},{"NoteNumber":88,"Velocity":58,"Duration":101052,"SoundDuration":101052,"Delta":319782912},{"NoteNumber":80,"Velocity":45,"Duration":186722,"SoundDuration":186722,"Delta":319782912},{"NoteNumber":77,"Velocity":38,"Duration":186722,"SoundDuration":186722,"Delta":319782912},{"NoteNumber":70,"Velocity":38,"Duration":186722,"SoundDuration":186722,"Delta":319782912},{"NoteNumber":92,"Velocity":54,"Duration":101246,"SoundDuration":101246,"Delta":319876176},{"NoteNumber":89,"Velocity":58,"Duration":101465,"SoundDuration":101465,"Delta":319969634},{"NoteNumber":95,"Velocity":53,"Duration":101586,"SoundDuration":101586,"Delta":320063287},{"NoteNumber":91,"Velocity":57,"Duration":101880,"SoundDuration":101880,"Delta":320157037},{"NoteNumber":95,"Velocity":54,"Duration":102053,"SoundDuration":102053,"Delta":320251081},{"NoteNumber":94,"Velocity":57,"Duration":101173,"SoundDuration":101173,"Delta":320345322},{"NoteNumber":77,"Velocity":37,"Duration":1684404,"SoundDuration":1684404,"Delta":320345322},{"NoteNumber":80,"Velocity":37,"Duration":1684404,"SoundDuration":1684404,"Delta":320345322},{"NoteNumber":86,"Velocity":44,"Duration":1684404,"SoundDuration":1684404,"Delta":320345322},{"NoteNumber":92,"Velocity":51,"Duration":101615,"SoundDuration":101615,"Delta":320438732},{"NoteNumber":95,"Velocity":57,"Duration":101712,"SoundDuration":101712,"Delta":320532486},{"NoteNumber":89,"Velocity":51,"Duration":102005,"SoundDuration":102005,"Delta":320626336},{"NoteNumber":94,"Velocity":57,"Duration":100909,"SoundDuration":100909,"Delta":320720578},{"NoteNumber":92,"Velocity":51,"Duration":101906,"SoundDuration":101906,"Delta":320813650},{"NoteNumber":96,"Velocity":57,"Duration":101054,"SoundDuration":101054,"Delta":320907793},{"NoteNumber":89,"Velocity":50,"Duration":101980,"SoundDuration":101980,"Delta":321001010},{"NoteNumber":94,"Velocity":57,"Duration":100932,"SoundDuration":100932,"Delta":321095202},{"NoteNumber":92,"Velocity":52,"Duration":101176,"SoundDuration":101176,"Delta":321188370},{"NoteNumber":97,"Velocity":60,"Duration":100238,"SoundDuration":100238,"Delta":321281830},{"NoteNumber":89,"Velocity":51,"Duration":101832,"SoundDuration":101832,"Delta":321374281},{"NoteNumber":94,"Velocity":61,"Duration":101150,"SoundDuration":101150,"Delta":321468276},{"NoteNumber":92,"Velocity":51,"Duration":101322,"SoundDuration":101322,"Delta":321561687},{"NoteNumber":98,"Velocity":63,"Duration":101931,"SoundDuration":101931,"Delta":321655148},{"NoteNumber":89,"Velocity":51,"Duration":100812,"SoundDuration":100812,"Delta":321749291},{"NoteNumber":94,"Velocity":57,"Duration":101931,"SoundDuration":101931,"Delta":321842315},{"NoteNumber":92,"Velocity":52,"Duration":101009,"SoundDuration":101009,"Delta":321936409},{"NoteNumber":99,"Velocity":63,"Duration":100599,"SoundDuration":100599,"Delta":322029726},{"NoteNumber":84,"Velocity":44,"Duration":560811,"SoundDuration":560811,"Delta":322029726},{"NoteNumber":75,"Velocity":37,"Duration":560811,"SoundDuration":560811,"Delta":322029726},{"NoteNumber":80,"Velocity":37,"Duration":560811,"SoundDuration":560811,"Delta":322029726},{"NoteNumber":89,"Velocity":52,"Duration":101734,"SoundDuration":101734,"Delta":322122513},{"NoteNumber":94,"Velocity":61,"Duration":101353,"SoundDuration":101353,"Delta":322216459},{"NoteNumber":92,"Velocity":52,"Duration":102825,"SoundDuration":102825,"Delta":322309876},{"NoteNumber":100,"Velocity":59,"Duration":101008,"SoundDuration":101008,"Delta":322404864},{"NoteNumber":89,"Velocity":51,"Duration":100170,"SoundDuration":100170,"Delta":322498180},{"NoteNumber":101,"Velocity":63,"Duration":101832,"SoundDuration":101832,"Delta":322590538},{"NoteNumber":75,"Velocity":37,"Duration":562561,"SoundDuration":562561,"Delta":322590538},{"NoteNumber":84,"Velocity":44,"Duration":562561,"SoundDuration":562561,"Delta":322590538},{"NoteNumber":80,"Velocity":37,"Duration":749449,"SoundDuration":749449,"Delta":322590538},{"NoteNumber":98,"Velocity":51,"Duration":101880,"SoundDuration":101880,"Delta":322684533},{"NoteNumber":97,"Velocity":52,"Duration":101249,"SoundDuration":101249,"Delta":322778577},{"NoteNumber":100,"Velocity":52,"Duration":101906,"SoundDuration":101906,"Delta":322871989},{"NoteNumber":99,"Velocity":57,"Duration":101247,"SoundDuration":101247,"Delta":322966132},{"NoteNumber":96,"Velocity":53,"Duration":101273,"SoundDuration":101273,"Delta":323059542},{"NoteNumber":95,"Velocity":57,"Duration":100384,"SoundDuration":100384,"Delta":323153099},{"NoteNumber":74,"Velocity":37,"Duration":186888,"SoundDuration":186888,"Delta":323153099},{"NoteNumber":82,"Velocity":44,"Duration":186888,"SoundDuration":186888,"Delta":323153099},{"NoteNumber":98,"Velocity":52,"Duration":102128,"SoundDuration":102128,"Delta":323245647},{"NoteNumber":97,"Velocity":52,"Duration":101662,"SoundDuration":101662,"Delta":323339987},{"NoteNumber":94,"Velocity":52,"Duration":101347,"SoundDuration":101347,"Delta":323433789},{"NoteNumber":93,"Velocity":57,"Duration":100623,"SoundDuration":100623,"Delta":323527444},{"NoteNumber":96,"Velocity":52,"Duration":101955,"SoundDuration":101955,"Delta":323620230},{"NoteNumber":95,"Velocity":57,"Duration":100050,"SoundDuration":100050,"Delta":323714422},{"NoteNumber":92,"Velocity":52,"Duration":101080,"SoundDuration":101080,"Delta":323806780},{"NoteNumber":91,"Velocity":52,"Duration":101029,"SoundDuration":101029,"Delta":323900048},{"NoteNumber":94,"Velocity":53,"Duration":101956,"SoundDuration":101956,"Delta":323993265},{"NoteNumber":92,"Velocity":57,"Duration":100477,"SoundDuration":100477,"Delta":324087458},{"NoteNumber":89,"Velocity":55,"Duration":101344,"SoundDuration":101344,"Delta":324180195},{"NoteNumber":86,"Velocity":57,"Duration":100360,"SoundDuration":100360,"Delta":324273752},{"NoteNumber":82,"Velocity":52,"Duration":100550,"SoundDuration":100550,"Delta":324366444},{"NoteNumber":81,"Velocity":52,"Duration":101661,"SoundDuration":101661,"Delta":324459182},{"NoteNumber":82,"Velocity":52,"Duration":101005,"SoundDuration":101005,"Delta":324553079},{"NoteNumber":80,"Velocity":57,"Duration":101906,"SoundDuration":101906,"Delta":324646248},{"NoteNumber":82,"Velocity":52,"Duration":101528,"SoundDuration":101528,"Delta":324740391},{"NoteNumber":78,"Velocity":56,"Duration":106607,"SoundDuration":106607,"Delta":324833558},{"NoteNumber":51,"Velocity":42,"Duration":98663,"SoundDuration":98663,"Delta":324833558},{"NoteNumber":79,"Velocity":48,"Duration":102979,"SoundDuration":102979,"Delta":324932222},{"NoteNumber":91,"Velocity":47,"Duration":99534,"SoundDuration":99534,"Delta":325027545},{"NoteNumber":63,"Velocity":28,"Duration":380611,"SoundDuration":380611,"Delta":325027545},{"NoteNumber":67,"Velocity":28,"Duration":380611,"SoundDuration":380611,"Delta":325027545},{"NoteNumber":72,"Velocity":48,"Duration":183756,"SoundDuration":183756,"Delta":325027545},{"NoteNumber":86,"Velocity":47,"Duration":100153,"SoundDuration":100153,"Delta":325119423},{"NoteNumber":87,"Velocity":51,"Duration":107580,"SoundDuration":107580,"Delta":325211301},{"NoteNumber":70,"Velocity":35,"Duration":196855,"SoundDuration":196855,"Delta":325211301},{"NoteNumber":83,"Velocity":44,"Duration":105388,"SoundDuration":105388,"Delta":325310606},{"NoteNumber":84,"Velocity":49,"Duration":101880,"SoundDuration":101880,"Delta":325408157},{"NoteNumber":46,"Velocity":41,"Duration":94043,"SoundDuration":94043,"Delta":325408157},{"NoteNumber":79,"Velocity":46,"Duration":101955,"SoundDuration":101955,"Delta":325502201},{"NoteNumber":82,"Velocity":50,"Duration":102848,"SoundDuration":102848,"Delta":325596245},{"NoteNumber":62,"Velocity":23,"Duration":387801,"SoundDuration":387801,"Delta":325596245},{"NoteNumber":68,"Velocity":27,"Duration":387801,"SoundDuration":387801,"Delta":325596245},{"NoteNumber":57,"Velocity":33,"Duration":189873,"SoundDuration":189873,"Delta":325596245},{"NoteNumber":80,"Velocity":48,"Duration":103183,"SoundDuration":103183,"Delta":325691182},{"NoteNumber":79,"Velocity":47,"Duration":107211,"SoundDuration":107211,"Delta":325786119},{"NoteNumber":58,"Velocity":33,"Duration":197928,"SoundDuration":197928,"Delta":325786119},{"NoteNumber":77,"Velocity":48,"Duration":98964,"SoundDuration":98964,"Delta":325885083},{"NoteNumber":78,"Velocity":52,"Duration":103266,"SoundDuration":103266,"Delta":325984047},{"NoteNumber":51,"Velocity":42,"Duration":95322,"SoundDuration":95322,"Delta":325984047},{"NoteNumber":79,"Velocity":45,"Duration":102949,"SoundDuration":102949,"Delta":326079370},{"NoteNumber":91,"Velocity":47,"Duration":99145,"SoundDuration":99145,"Delta":326174693},{"NoteNumber":67,"Velocity":28,"Duration":381647,"SoundDuration":381647,"Delta":326174693},{"NoteNumber":63,"Velocity":28,"Duration":381647,"SoundDuration":381647,"Delta":326174693},{"NoteNumber":72,"Velocity":48,"Duration":183038,"SoundDuration":183038,"Delta":326174693},{"NoteNumber":86,"Velocity":45,"Duration":99794,"SoundDuration":99794,"Delta":326266212},{"NoteNumber":87,"Velocity":50,"Duration":107580,"SoundDuration":107580,"Delta":326357731},{"NoteNumber":70,"Velocity":35,"Duration":198609,"SoundDuration":198609,"Delta":326357731},{"NoteNumber":83,"Velocity":45,"Duration":107248,"SoundDuration":107248,"Delta":326457036},{"NoteNumber":84,"Velocity":49,"Duration":102094,"SoundDuration":102094,"Delta":326556341},{"NoteNumber":46,"Velocity":41,"Duration":94257,"SoundDuration":94257,"Delta":326556341},{"NoteNumber":79,"Velocity":46,"Duration":101980,"SoundDuration":101980,"Delta":326650598},{"NoteNumber":82,"Velocity":48,"Duration":103174,"SoundDuration":103174,"Delta":326744642},{"NoteNumber":62,"Velocity":23,"Duration":388404,"SoundDuration":388404,"Delta":326744642},{"NoteNumber":57,"Velocity":33,"Duration":190475,"SoundDuration":190475,"Delta":326744642},{"NoteNumber":68,"Velocity":27,"Duration":388404,"SoundDuration":388404,"Delta":326744642},{"NoteNumber":80,"Velocity":48,"Duration":103485,"SoundDuration":103485,"Delta":326839880},{"NoteNumber":79,"Velocity":47,"Duration":107211,"SoundDuration":107211,"Delta":326935118},{"NoteNumber":58,"Velocity":33,"Duration":197928,"SoundDuration":197928,"Delta":326935118},{"NoteNumber":77,"Velocity":48,"Duration":98964,"SoundDuration":98964,"Delta":327034082},{"NoteNumber":78,"Velocity":52,"Duration":103266,"SoundDuration":103266,"Delta":327133046},{"NoteNumber":51,"Velocity":42,"Duration":95322,"SoundDuration":95322,"Delta":327133046},{"NoteNumber":79,"Velocity":45,"Duration":103309,"SoundDuration":103309,"Delta":327228369},{"NoteNumber":91,"Velocity":47,"Duration":103833,"SoundDuration":103833,"Delta":327323692},{"NoteNumber":58,"Velocity":28,"Duration":390302,"SoundDuration":390302,"Delta":327323692},{"NoteNumber":63,"Velocity":28,"Duration":390302,"SoundDuration":390302,"Delta":327323692},{"NoteNumber":68,"Velocity":48,"Duration":191693,"SoundDuration":191693,"Delta":327323692},{"NoteNumber":86,"Velocity":46,"Duration":104122,"SoundDuration":104122,"Delta":327419538},{"NoteNumber":87,"Velocity":52,"Duration":107580,"SoundDuration":107580,"Delta":327515385},{"NoteNumber":67,"Velocity":36,"Duration":198609,"SoundDuration":198609,"Delta":327515385},{"NoteNumber":83,"Velocity":47,"Duration":107248,"SoundDuration":107248,"Delta":327614690},{"NoteNumber":84,"Velocity":52,"Duration":103266,"SoundDuration":103266,"Delta":327713995},{"NoteNumber":44,"Velocity":43,"Duration":95322,"SoundDuration":95322,"Delta":327713995},{"NoteNumber":79,"Velocity":49,"Duration":103266,"SoundDuration":103266,"Delta":327809317},{"NoteNumber":82,"Velocity":52,"Duration":103266,"SoundDuration":103266,"Delta":327904640},{"NoteNumber":60,"Velocity":29,"Duration":388573,"SoundDuration":388573,"Delta":327904640},{"NoteNumber":67,"Velocity":50,"Duration":190645,"SoundDuration":190645,"Delta":327904640},{"NoteNumber":56,"Velocity":29,"Duration":388573,"SoundDuration":388573,"Delta":327904640},{"NoteNumber":80,"Velocity":53,"Duration":103569,"SoundDuration":103569,"Delta":327999963},{"NoteNumber":79,"Velocity":52,"Duration":107211,"SoundDuration":107211,"Delta":328095286},{"NoteNumber":65,"Velocity":37,"Duration":197928,"SoundDuration":197928,"Delta":328095286},{"NoteNumber":77,"Velocity":54,"Duration":98964,"SoundDuration":98964,"Delta":328194250},{"NoteNumber":75,"Velocity":64,"Duration":193224,"SoundDuration":193224,"Delta":328293214},{"NoteNumber":46,"Velocity":45,"Duration":96612,"SoundDuration":96612,"Delta":328293214},{"NoteNumber":81,"Velocity":49,"Duration":96612,"SoundDuration":96612,"Delta":328389826},{"NoteNumber":77,"Velocity":48,"Duration":96612,"SoundDuration":96612,"Delta":328486439},{"NoteNumber":63,"Velocity":50,"Duration":193224,"SoundDuration":193224,"Delta":328486439},{"NoteNumber":53,"Velocity":29,"Duration":385635,"SoundDuration":385635,"Delta":328486439},{"NoteNumber":56,"Velocity":29,"Duration":385635,"SoundDuration":385635,"Delta":328486439},{"NoteNumber":74,"Velocity":58,"Duration":192766,"SoundDuration":192766,"Delta":328583051},{"NoteNumber":81,"Velocity":48,"Duration":96153,"SoundDuration":96153,"Delta":328679663},{"NoteNumber":62,"Velocity":36,"Duration":192410,"SoundDuration":192410,"Delta":328679663},{"NoteNumber":77,"Velocity":48,"Duration":96256,"SoundDuration":96256,"Delta":328775817},{"NoteNumber":72,"Velocity":56,"Duration":193237,"SoundDuration":193237,"Delta":328872074},{"NoteNumber":46,"Velocity":41,"Duration":96463,"SoundDuration":96463,"Delta":328872074},{"NoteNumber":81,"Velocity":48,"Duration":96774,"SoundDuration":96774,"Delta":328968537},{"NoteNumber":77,"Velocity":48,"Duration":96983,"SoundDuration":96983,"Delta":329065311},{"NoteNumber":53,"Velocity":27,"Duration":392104,"SoundDuration":392104,"Delta":329065311},{"NoteNumber":56,"Velocity":27,"Duration":392104,"SoundDuration":392104,"Delta":329065311},{"NoteNumber":60,"Velocity":46,"Duration":194175,"SoundDuration":194175,"Delta":329065311},{"NoteNumber":70,"Velocity":54,"Duration":196156,"SoundDuration":196156,"Delta":329162294},{"NoteNumber":81,"Velocity":47,"Duration":98964,"SoundDuration":98964,"Delta":329259487},{"NoteNumber":58,"Velocity":34,"Duration":197928,"SoundDuration":197928,"Delta":329259487},{"NoteNumber":77,"Velocity":47,"Duration":98964,"SoundDuration":98964,"Delta":329358451},{"NoteNumber":78,"Velocity":56,"Duration":107178,"SoundDuration":107178,"Delta":329457415},{"NoteNumber":51,"Velocity":42,"Duration":99165,"SoundDuration":99165,"Delta":329457415},{"NoteNumber":79,"Velocity":48,"Duration":103810,"SoundDuration":103810,"Delta":329556580},{"NoteNumber":91,"Velocity":47,"Duration":99534,"SoundDuration":99534,"Delta":329652734},{"NoteNumber":63,"Velocity":28,"Duration":382365,"SoundDuration":382365,"Delta":329652734},{"NoteNumber":67,"Velocity":28,"Duration":382365,"SoundDuration":382365,"Delta":329652734},{"NoteNumber":72,"Velocity":48,"Duration":183756,"SoundDuration":183756,"Delta":329652734},{"NoteNumber":86,"Velocity":47,"Duration":100153,"SoundDuration":100153,"Delta":329744612},{"NoteNumber":87,"Velocity":51,"Duration":107580,"SoundDuration":107580,"Delta":329836490},{"NoteNumber":70,"Velocity":35,"Duration":198609,"SoundDuration":198609,"Delta":329836490},{"NoteNumber":83,"Velocity":44,"Duration":107248,"SoundDuration":107248,"Delta":329935795},{"NoteNumber":84,"Velocity":51,"Duration":102365,"SoundDuration":102365,"Delta":330035100},{"NoteNumber":46,"Velocity":41,"Duration":94503,"SoundDuration":94503,"Delta":330035100},{"NoteNumber":79,"Velocity":46,"Duration":102276,"SoundDuration":102276,"Delta":330129603},{"NoteNumber":82,"Velocity":50,"Duration":103174,"SoundDuration":103174,"Delta":330223943},{"NoteNumber":57,"Velocity":33,"Duration":190475,"SoundDuration":190475,"Delta":330223943},{"NoteNumber":68,"Velocity":27,"Duration":388404,"SoundDuration":388404,"Delta":330223943},{"NoteNumber":62,"Velocity":23,"Duration":388404,"SoundDuration":388404,"Delta":330223943},{"NoteNumber":80,"Velocity":48,"Duration":103485,"SoundDuration":103485,"Delta":330319181},{"NoteNumber":79,"Velocity":47,"Duration":107211,"SoundDuration":107211,"Delta":330414419},{"NoteNumber":58,"Velocity":33,"Duration":197928,"SoundDuration":197928,"Delta":330414419},{"NoteNumber":77,"Velocity":48,"Duration":98964,"SoundDuration":98964,"Delta":330513383},{"NoteNumber":78,"Velocity":52,"Duration":103266,"SoundDuration":103266,"Delta":330612347},{"NoteNumber":51,"Velocity":42,"Duration":95322,"SoundDuration":95322,"Delta":330612347},{"NoteNumber":79,"Velocity":45,"Duration":102949,"SoundDuration":102949,"Delta":330707670},{"NoteNumber":91,"Velocity":47,"Duration":99145,"SoundDuration":99145,"Delta":330802993},{"NoteNumber":72,"Velocity":48,"Duration":183038,"SoundDuration":183038,"Delta":330802993},{"NoteNumber":63,"Velocity":28,"Duration":381647,"SoundDuration":381647,"Delta":330802993},{"NoteNumber":67,"Velocity":28,"Duration":381647,"SoundDuration":381647,"Delta":330802993},{"NoteNumber":86,"Velocity":45,"Duration":99794,"SoundDuration":99794,"Delta":330894512},{"NoteNumber":87,"Velocity":50,"Duration":107580,"SoundDuration":107580,"Delta":330986031},{"NoteNumber":70,"Velocity":35,"Duration":198609,"SoundDuration":198609,"Delta":330986031},{"NoteNumber":83,"Velocity":45,"Duration":107248,"SoundDuration":107248,"Delta":331085336},{"NoteNumber":84,"Velocity":49,"Duration":103266,"SoundDuration":103266,"Delta":331184641},{"NoteNumber":46,"Velocity":41,"Duration":95322,"SoundDuration":95322,"Delta":331184641},{"NoteNumber":79,"Velocity":46,"Duration":103266,"SoundDuration":103266,"Delta":331279963},{"NoteNumber":82,"Velocity":48,"Duration":103266,"SoundDuration":103266,"Delta":331375286},{"NoteNumber":62,"Velocity":23,"Duration":388573,"SoundDuration":388573,"Delta":331375286},{"NoteNumber":68,"Velocity":27,"Duration":388573,"SoundDuration":388573,"Delta":331375286},{"NoteNumber":57,"Velocity":33,"Duration":190645,"SoundDuration":190645,"Delta":331375286},{"NoteNumber":80,"Velocity":48,"Duration":103569,"SoundDuration":103569,"Delta":331470609},{"NoteNumber":79,"Velocity":47,"Duration":107211,"SoundDuration":107211,"Delta":331565932},{"NoteNumber":58,"Velocity":33,"Duration":197928,"SoundDuration":197928,"Delta":331565932},{"NoteNumber":77,"Velocity":48,"Duration":98964,"SoundDuration":98964,"Delta":331664896},{"NoteNumber":78,"Velocity":52,"Duration":104838,"SoundDuration":104838,"Delta":331763860},{"NoteNumber":51,"Velocity":42,"Duration":96774,"SoundDuration":96774,"Delta":331763860},{"NoteNumber":79,"Velocity":45,"Duration":104611,"SoundDuration":104611,"Delta":331860634},{"NoteNumber":91,"Velocity":47,"Duration":101880,"SoundDuration":101880,"Delta":331957409},{"NoteNumber":67,"Velocity":28,"Duration":386697,"SoundDuration":386697,"Delta":331957409},{"NoteNumber":77,"Velocity":48,"Duration":188087,"SoundDuration":188087,"Delta":331957409},{"NoteNumber":70,"Velocity":28,"Duration":386697,"SoundDuration":386697,"Delta":331957409},{"NoteNumber":86,"Velocity":46,"Duration":102319,"SoundDuration":102319,"Delta":332051453},{"NoteNumber":87,"Velocity":52,"Duration":107580,"SoundDuration":107580,"Delta":332145497},{"NoteNumber":75,"Velocity":36,"Duration":198609,"SoundDuration":198609,"Delta":332145497},{"NoteNumber":83,"Velocity":47,"Duration":107248,"SoundDuration":107248,"Delta":332244801},{"NoteNumber":84,"Velocity":52,"Duration":103266,"SoundDuration":103266,"Delta":332344106},{"NoteNumber":44,"Velocity":43,"Duration":95322,"SoundDuration":95322,"Delta":332344106},{"NoteNumber":79,"Velocity":49,"Duration":103266,"SoundDuration":103266,"Delta":332439429},{"NoteNumber":82,"Velocity":52,"Duration":103266,"SoundDuration":103266,"Delta":332534752},{"NoteNumber":67,"Velocity":50,"Duration":190645,"SoundDuration":190645,"Delta":332534752},{"NoteNumber":60,"Velocity":29,"Duration":388573,"SoundDuration":388573,"Delta":332534752},{"NoteNumber":56,"Velocity":29,"Duration":388573,"SoundDuration":388573,"Delta":332534752},{"NoteNumber":80,"Velocity":53,"Duration":103569,"SoundDuration":103569,"Delta":332630074},{"NoteNumber":79,"Velocity":52,"Duration":107211,"SoundDuration":107211,"Delta":332725397},{"NoteNumber":65,"Velocity":37,"Duration":197928,"SoundDuration":197928,"Delta":332725397},{"NoteNumber":77,"Velocity":54,"Duration":98964,"SoundDuration":98964,"Delta":332824361},{"NoteNumber":76,"Velocity":56,"Duration":96612,"SoundDuration":96612,"Delta":332923326},{"NoteNumber":46,"Velocity":48,"Duration":193224,"SoundDuration":193224,"Delta":332923326},{"NoteNumber":75,"Velocity":56,"Duration":96612,"SoundDuration":96612,"Delta":333019938},{"NoteNumber":74,"Velocity":55,"Duration":96612,"SoundDuration":96612,"Delta":333116550},{"NoteNumber":73,"Velocity":54,"Duration":96612,"SoundDuration":96612,"Delta":333213162},{"NoteNumber":72,"Velocity":52,"Duration":96612,"SoundDuration":96612,"Delta":333309775},{"NoteNumber":62,"Velocity":38,"Duration":193224,"SoundDuration":193224,"Delta":333309775},{"NoteNumber":56,"Velocity":38,"Duration":193224,"SoundDuration":193224,"Delta":333309775},{"NoteNumber":53,"Velocity":38,"Duration":193224,"SoundDuration":193224,"Delta":333309775},{"NoteNumber":71,"Velocity":51,"Duration":96612,"SoundDuration":96612,"Delta":333406387},{"NoteNumber":70,"Velocity":50,"Duration":96612,"SoundDuration":96612,"Delta":333502999},{"NoteNumber":56,"Velocity":38,"Duration":193224,"SoundDuration":193224,"Delta":333502999},{"NoteNumber":53,"Velocity":38,"Duration":193224,"SoundDuration":193224,"Delta":333502999},{"NoteNumber":62,"Velocity":38,"Duration":193224,"SoundDuration":193224,"Delta":333502999},{"NoteNumber":69,"Velocity":49,"Duration":96612,"SoundDuration":96612,"Delta":333599611},{"NoteNumber":72,"Velocity":50,"Duration":96612,"SoundDuration":96612,"Delta":333696224},{"NoteNumber":53,"Velocity":38,"Duration":193224,"SoundDuration":193224,"Delta":333696224},{"NoteNumber":56,"Velocity":38,"Duration":193224,"SoundDuration":193224,"Delta":333696224},{"NoteNumber":62,"Velocity":38,"Duration":193224,"SoundDuration":193224,"Delta":333696224},{"NoteNumber":70,"Velocity":50,"Duration":96612,"SoundDuration":96612,"Delta":333792836},{"NoteNumber":69,"Velocity":48,"Duration":98964,"SoundDuration":98964,"Delta":333889448},{"NoteNumber":56,"Velocity":38,"Duration":197144,"SoundDuration":197144,"Delta":333889448},{"NoteNumber":62,"Velocity":38,"Duration":197144,"SoundDuration":197144,"Delta":333889448},{"NoteNumber":53,"Velocity":38,"Duration":197144,"SoundDuration":197144,"Delta":333889448},{"NoteNumber":68,"Velocity":48,"Duration":98180,"SoundDuration":98180,"Delta":333988412},{"NoteNumber":67,"Velocity":49,"Duration":104663,"SoundDuration":104663,"Delta":334086593},{"NoteNumber":58,"Velocity":49,"Duration":193063,"SoundDuration":193063,"Delta":334086593},{"NoteNumber":61,"Velocity":58,"Duration":193063,"SoundDuration":193063,"Delta":334086593},{"NoteNumber":51,"Velocity":49,"Duration":193063,"SoundDuration":193063,"Delta":334086593},{"NoteNumber":68,"Velocity":49,"Duration":104475,"SoundDuration":104475,"Delta":334183205},{"NoteNumber":69,"Velocity":50,"Duration":104232,"SoundDuration":104232,"Delta":334279656},{"NoteNumber":70,"Velocity":52,"Duration":103960,"SoundDuration":103960,"Delta":334375891},{"NoteNumber":51,"Velocity":49,"Duration":95963,"SoundDuration":95963,"Delta":334375891},{"NoteNumber":39,"Velocity":41,"Duration":95963,"SoundDuration":95963,"Delta":334375891},{"NoteNumber":72,"Velocity":52,"Duration":103662,"SoundDuration":103662,"Delta":334471854},{"NoteNumber":51,"Velocity":50,"Duration":95692,"SoundDuration":95692,"Delta":334471854},{"NoteNumber":39,"Velocity":41,"Duration":95692,"SoundDuration":95692,"Delta":334471854},{"NoteNumber":70,"Velocity":53,"Duration":103852,"SoundDuration":103852,"Delta":334567547},{"NoteNumber":68,"Velocity":52,"Duration":104150,"SoundDuration":104150,"Delta":334663402},{"NoteNumber":56,"Velocity":42,"Duration":96126,"SoundDuration":96126,"Delta":334663402},{"NoteNumber":60,"Velocity":51,"Duration":96126,"SoundDuration":96126,"Delta":334663402},{"NoteNumber":70,"Velocity":53,"Duration":104448,"SoundDuration":104448,"Delta":334759529},{"NoteNumber":71,"Velocity":56,"Duration":104745,"SoundDuration":104745,"Delta":334855926},{"NoteNumber":43,"Velocity":42,"Duration":96667,"SoundDuration":96667,"Delta":334855926},{"NoteNumber":55,"Velocity":51,"Duration":96667,"SoundDuration":96667,"Delta":334855926},{"NoteNumber":72,"Velocity":58,"Duration":105449,"SoundDuration":105449,"Delta":334952593},{"NoteNumber":73,"Velocity":59,"Duration":109878,"SoundDuration":109878,"Delta":335049591},{"NoteNumber":42,"Velocity":44,"Duration":101426,"SoundDuration":101426,"Delta":335049591},{"NoteNumber":54,"Velocity":52,"Duration":101426,"SoundDuration":101426,"Delta":335049591},{"NoteNumber":72,"Velocity":57,"Duration":101426,"SoundDuration":101426,"Delta":335151018},{"NoteNumber":69,"Velocity":49,"Duration":105021,"SoundDuration":105021,"Delta":335252444},{"NoteNumber":57,"Velocity":49,"Duration":193610,"SoundDuration":193610,"Delta":335252444},{"NoteNumber":63,"Velocity":58,"Duration":193610,"SoundDuration":193610,"Delta":335252444},{"NoteNumber":70,"Velocity":49,"Duration":104691,"SoundDuration":104691,"Delta":335349387},{"NoteNumber":71,"Velocity":50,"Duration":104286,"SoundDuration":104286,"Delta":335446055},{"NoteNumber":72,"Velocity":52,"Duration":103879,"SoundDuration":103879,"Delta":335542345},{"NoteNumber":53,"Velocity":49,"Duration":95909,"SoundDuration":95909,"Delta":335542345},{"NoteNumber":41,"Velocity":41,"Duration":95909,"SoundDuration":95909,"Delta":335542345},{"NoteNumber":74,"Velocity":52,"Duration":103689,"SoundDuration":103689,"Delta":335638254},{"NoteNumber":41,"Velocity":41,"Duration":95692,"SoundDuration":95692,"Delta":335638254},{"NoteNumber":53,"Velocity":50,"Duration":95692,"SoundDuration":95692,"Delta":335638254},{"NoteNumber":72,"Velocity":53,"Duration":104041,"SoundDuration":104041,"Delta":335733947},{"NoteNumber":70,"Velocity":52,"Duration":104394,"SoundDuration":104394,"Delta":335829964},{"NoteNumber":62,"Velocity":51,"Duration":96343,"SoundDuration":96343,"Delta":335829964},{"NoteNumber":58,"Velocity":42,"Duration":96343,"SoundDuration":96343,"Delta":335829964},{"NoteNumber":72,"Velocity":53,"Duration":104745,"SoundDuration":104745,"Delta":335926308},{"NoteNumber":73,"Velocity":56,"Duration":105103,"SoundDuration":105103,"Delta":336022975},{"NoteNumber":45,"Velocity":42,"Duration":96997,"SoundDuration":96997,"Delta":336022975},{"NoteNumber":57,"Velocity":51,"Duration":96997,"SoundDuration":96997,"Delta":336022975},{"NoteNumber":74,"Velocity":58,"Duration":105774,"SoundDuration":105774,"Delta":336119973},{"NoteNumber":75,"Velocity":59,"Duration":109104,"SoundDuration":109104,"Delta":336217354},{"NoteNumber":44,"Velocity":44,"Duration":100711,"SoundDuration":100711,"Delta":336217354},{"NoteNumber":56,"Velocity":52,"Duration":100711,"SoundDuration":100711,"Delta":336217354},{"NoteNumber":74,"Velocity":57,"Duration":108817,"SoundDuration":108817,"Delta":336318066},{"NoteNumber":71,"Velocity":49,"Duration":105375,"SoundDuration":105375,"Delta":336418778},{"NoteNumber":59,"Velocity":49,"Duration":194322,"SoundDuration":194322,"Delta":336418778},{"NoteNumber":65,"Velocity":58,"Duration":194322,"SoundDuration":194322,"Delta":336418778},{"NoteNumber":72,"Velocity":49,"Duration":105130,"SoundDuration":105130,"Delta":336516048},{"NoteNumber":73,"Velocity":50,"Duration":104883,"SoundDuration":104883,"Delta":336613100},{"NoteNumber":74,"Velocity":52,"Duration":104636,"SoundDuration":104636,"Delta":336709933},{"NoteNumber":43,"Velocity":41,"Duration":96612,"SoundDuration":96612,"Delta":336709933},{"NoteNumber":55,"Velocity":49,"Duration":96612,"SoundDuration":96612,"Delta":336709933},{"NoteNumber":75,"Velocity":52,"Duration":104313,"SoundDuration":104313,"Delta":336806545},{"NoteNumber":43,"Velocity":41,"Duration":96289,"SoundDuration":96289,"Delta":336806545},{"NoteNumber":55,"Velocity":50,"Duration":96289,"SoundDuration":96289,"Delta":336806545},{"NoteNumber":74,"Velocity":53,"Duration":104069,"SoundDuration":104069,"Delta":336902835},{"NoteNumber":72,"Velocity":52,"Duration":104340,"SoundDuration":104340,"Delta":336998907},{"NoteNumber":63,"Velocity":51,"Duration":96289,"SoundDuration":96289,"Delta":336998907},{"NoteNumber":60,"Velocity":42,"Duration":96289,"SoundDuration":96289,"Delta":336998907},{"NoteNumber":73,"Velocity":53,"Duration":104856,"SoundDuration":104856,"Delta":337095196},{"NoteNumber":74,"Velocity":56,"Duration":105294,"SoundDuration":105294,"Delta":337191974},{"NoteNumber":48,"Velocity":51,"Duration":194879,"SoundDuration":194879,"Delta":337191974},{"NoteNumber":36,"Velocity":42,"Duration":194879,"SoundDuration":194879,"Delta":337191974},{"NoteNumber":75,"Velocity":58,"Duration":106022,"SoundDuration":106022,"Delta":337289135},{"NoteNumber":76,"Velocity":59,"Duration":107959,"SoundDuration":107959,"Delta":337386853},{"NoteNumber":77,"Velocity":57,"Duration":107705,"SoundDuration":107705,"Delta":337486507},{"NoteNumber":79,"Velocity":65,"Duration":104663,"SoundDuration":104663,"Delta":337586162},{"NoteNumber":56,"Velocity":46,"Duration":193224,"SoundDuration":193224,"Delta":337586162},{"NoteNumber":63,"Velocity":53,"Duration":193224,"SoundDuration":193224,"Delta":337586162},{"NoteNumber":77,"Velocity":64,"Duration":104663,"SoundDuration":104663,"Delta":337682774},{"NoteNumber":76,"Velocity":62,"Duration":104663,"SoundDuration":104663,"Delta":337779386},{"NoteNumber":47,"Velocity":62,"Duration":193224,"SoundDuration":193224,"Delta":337779386},{"NoteNumber":75,"Velocity":61,"Duration":104945,"SoundDuration":104945,"Delta":337875998},{"NoteNumber":74,"Velocity":58,"Duration":108333,"SoundDuration":108333,"Delta":337972611},{"NoteNumber":73,"Velocity":56,"Duration":108051,"SoundDuration":108051,"Delta":338072611},{"NoteNumber":72,"Velocity":55,"Duration":104663,"SoundDuration":104663,"Delta":338172611},{"NoteNumber":56,"Velocity":42,"Duration":193224,"SoundDuration":193224,"Delta":338172611},{"NoteNumber":62,"Velocity":51,"Duration":193224,"SoundDuration":193224,"Delta":338172611},{"NoteNumber":71,"Velocity":53,"Duration":104663,"SoundDuration":104663,"Delta":338269223},{"NoteNumber":70,"Velocity":54,"Duration":104663,"SoundDuration":104663,"Delta":338365835},{"NoteNumber":46,"Velocity":60,"Duration":193224,"SoundDuration":193224,"Delta":338365835},{"NoteNumber":69,"Velocity":54,"Duration":104859,"SoundDuration":104859,"Delta":338462447},{"NoteNumber":70,"Velocity":51,"Duration":107211,"SoundDuration":107211,"Delta":338559060},{"NoteNumber":68,"Velocity":50,"Duration":106218,"SoundDuration":106218,"Delta":338658024},{"NoteNumber":67,"Velocity":53,"Duration":192925,"SoundDuration":192925,"Delta":338756204},{"NoteNumber":51,"Velocity":37,"Duration":192925,"SoundDuration":192925,"Delta":338756204},{"NoteNumber":39,"Velocity":31,"Duration":192925,"SoundDuration":192925,"Delta":338756204},{"NoteNumber":58,"Velocity":53,"Duration":96463,"SoundDuration":96463,"Delta":338949130},{"NoteNumber":43,"Velocity":31,"Duration":192925,"SoundDuration":192925,"Delta":338949130},{"NoteNumber":55,"Velocity":37,"Duration":192925,"SoundDuration":192925,"Delta":338949130},{"NoteNumber":70,"Velocity":49,"Duration":96462,"SoundDuration":96462,"Delta":339045593},{"NoteNumber":62,"Velocity":54,"Duration":96463,"SoundDuration":96463,"Delta":339142056},{"NoteNumber":56,"Velocity":38,"Duration":192925,"SoundDuration":192925,"Delta":339142056},{"NoteNumber":44,"Velocity":32,"Duration":192925,"SoundDuration":192925,"Delta":339142056},{"NoteNumber":71,"Velocity":50,"Duration":96462,"SoundDuration":96462,"Delta":339238519},{"NoteNumber":58,"Velocity":55,"Duration":96153,"SoundDuration":96153,"Delta":339334982},{"NoteNumber":55,"Velocity":46,"Duration":192307,"SoundDuration":192307,"Delta":339334982},{"NoteNumber":43,"Velocity":38,"Duration":192307,"SoundDuration":192307,"Delta":339334982},{"NoteNumber":70,"Velocity":51,"Duration":96153,"SoundDuration":96153,"Delta":339431136},{"NoteNumber":63,"Velocity":60,"Duration":192307,"SoundDuration":192307,"Delta":339527290},{"NoteNumber":39,"Velocity":33,"Duration":192307,"SoundDuration":192307,"Delta":339527290},{"NoteNumber":51,"Velocity":39,"Duration":192307,"SoundDuration":192307,"Delta":339527290},{"NoteNumber":67,"Velocity":54,"Duration":96153,"SoundDuration":96153,"Delta":339623443},{"NoteNumber":64,"Velocity":63,"Duration":192307,"SoundDuration":192307,"Delta":339719597},{"NoteNumber":46,"Velocity":34,"Duration":192307,"SoundDuration":192307,"Delta":339719597},{"NoteNumber":58,"Velocity":41,"Duration":192307,"SoundDuration":192307,"Delta":339719597},{"NoteNumber":73,"Velocity":53,"Duration":96153,"SoundDuration":96153,"Delta":339815751},{"NoteNumber":60,"Velocity":59,"Duration":95846,"SoundDuration":95846,"Delta":339911905},{"NoteNumber":45,"Velocity":39,"Duration":191693,"SoundDuration":191693,"Delta":339911905},{"NoteNumber":57,"Velocity":49,"Duration":191693,"SoundDuration":191693,"Delta":339911905},{"NoteNumber":72,"Velocity":52,"Duration":95846,"SoundDuration":95846,"Delta":340007751},{"NoteNumber":65,"Velocity":66,"Duration":191693,"SoundDuration":191693,"Delta":340103598},{"NoteNumber":41,"Velocity":36,"Duration":191693,"SoundDuration":191693,"Delta":340103598},{"NoteNumber":53,"Velocity":44,"Duration":191693,"SoundDuration":191693,"Delta":340103598},{"NoteNumber":69,"Velocity":52,"Duration":95846,"SoundDuration":95846,"Delta":340199445},{"NoteNumber":64,"Velocity":61,"Duration":95846,"SoundDuration":95846,"Delta":340295292},{"NoteNumber":46,"Velocity":45,"Duration":191693,"SoundDuration":191693,"Delta":340295292},{"NoteNumber":58,"Velocity":45,"Duration":191693,"SoundDuration":191693,"Delta":340295292},{"NoteNumber":73,"Velocity":55,"Duration":95846,"SoundDuration":95846,"Delta":340391138},{"NoteNumber":60,"Velocity":63,"Duration":95541,"SoundDuration":95541,"Delta":340486985},{"NoteNumber":45,"Velocity":44,"Duration":191082,"SoundDuration":191082,"Delta":340486985},{"NoteNumber":57,"Velocity":53,"Duration":191082,"SoundDuration":191082,"Delta":340486985},{"NoteNumber":72,"Velocity":56,"Duration":95541,"SoundDuration":95541,"Delta":340582527},{"NoteNumber":65,"Velocity":70,"Duration":191082,"SoundDuration":191082,"Delta":340678068},{"NoteNumber":41,"Velocity":38,"Duration":191082,"SoundDuration":191082,"Delta":340678068},{"NoteNumber":53,"Velocity":47,"Duration":191082,"SoundDuration":191082,"Delta":340678068},{"NoteNumber":69,"Velocity":61,"Duration":95541,"SoundDuration":95541,"Delta":340773610},{"NoteNumber":66,"Velocity":68,"Duration":190981,"SoundDuration":190981,"Delta":340869151},{"NoteNumber":60,"Velocity":49,"Duration":190981,"SoundDuration":190981,"Delta":340869151},{"NoteNumber":48,"Velocity":39,"Duration":190981,"SoundDuration":190981,"Delta":340869151},{"NoteNumber":75,"Velocity":61,"Duration":95440,"SoundDuration":95440,"Delta":340964693},{"NoteNumber":62,"Velocity":70,"Duration":95237,"SoundDuration":95237,"Delta":341060133},{"NoteNumber":59,"Velocity":59,"Duration":190475,"SoundDuration":190475,"Delta":341060133},{"NoteNumber":47,"Velocity":52,"Duration":190475,"SoundDuration":190475,"Delta":341060133},{"NoteNumber":74,"Velocity":61,"Duration":95237,"SoundDuration":95237,"Delta":341155371},{"NoteNumber":67,"Velocity":75,"Duration":190475,"SoundDuration":190475,"Delta":341250609},{"NoteNumber":43,"Velocity":43,"Duration":190475,"SoundDuration":190475,"Delta":341250609},{"NoteNumber":55,"Velocity":52,"Duration":190475,"SoundDuration":190475,"Delta":341250609},{"NoteNumber":71,"Velocity":67,"Duration":95237,"SoundDuration":95237,"Delta":341345847},{"NoteNumber":66,"Velocity":76,"Duration":190476,"SoundDuration":190476,"Delta":341441085},{"NoteNumber":60,"Velocity":53,"Duration":190476,"SoundDuration":190476,"Delta":341441085},{"NoteNumber":48,"Velocity":43,"Duration":190476,"SoundDuration":190476,"Delta":341441085},{"NoteNumber":75,"Velocity":68,"Duration":95238,"SoundDuration":95238,"Delta":341536323},{"NoteNumber":62,"Velocity":75,"Duration":95237,"SoundDuration":95237,"Delta":341631561},{"NoteNumber":59,"Velocity":63,"Duration":190475,"SoundDuration":190475,"Delta":341631561},{"NoteNumber":47,"Velocity":54,"Duration":190475,"SoundDuration":190475,"Delta":341631561},{"NoteNumber":74,"Velocity":68,"Duration":95237,"SoundDuration":95237,"Delta":341726799},{"NoteNumber":67,"Velocity":80,"Duration":190475,"SoundDuration":190475,"Delta":341822037},{"NoteNumber":55,"Velocity":55,"Duration":190475,"SoundDuration":190475,"Delta":341822037},{"NoteNumber":43,"Velocity":46,"Duration":190475,"SoundDuration":190475,"Delta":341822037},{"NoteNumber":70,"Velocity":69,"Duration":95237,"SoundDuration":95237,"Delta":341917275},{"NoteNumber":68,"Velocity":80,"Duration":190678,"SoundDuration":190678,"Delta":342012513},{"NoteNumber":62,"Velocity":55,"Duration":190678,"SoundDuration":190678,"Delta":342012513},{"NoteNumber":50,"Velocity":47,"Duration":190678,"SoundDuration":190678,"Delta":342012513},{"NoteNumber":77,"Velocity":71,"Duration":95440,"SoundDuration":95440,"Delta":342107751},{"NoteNumber":64,"Velocity":80,"Duration":94936,"SoundDuration":94936,"Delta":342203191},{"NoteNumber":49,"Velocity":56,"Duration":190275,"SoundDuration":190275,"Delta":342203191},{"NoteNumber":61,"Velocity":68,"Duration":190275,"SoundDuration":190275,"Delta":342203191},{"NoteNumber":76,"Velocity":75,"Duration":95339,"SoundDuration":95339,"Delta":342298128},{"NoteNumber":69,"Velocity":86,"Duration":191796,"SoundDuration":191796,"Delta":342393467},{"NoteNumber":45,"Velocity":48,"Duration":191796,"SoundDuration":191796,"Delta":342393467},{"NoteNumber":57,"Velocity":57,"Duration":191796,"SoundDuration":191796,"Delta":342393467},{"NoteNumber":73,"Velocity":73,"Duration":96051,"SoundDuration":96051,"Delta":342489212},{"NoteNumber":70,"Velocity":89,"Duration":193445,"SoundDuration":193445,"Delta":342585264},{"NoteNumber":52,"Velocity":62,"Duration":193445,"SoundDuration":193445,"Delta":342585264},{"NoteNumber":64,"Velocity":75,"Duration":193445,"SoundDuration":193445,"Delta":342585264},{"NoteNumber":79,"Velocity":76,"Duration":96878,"SoundDuration":96878,"Delta":342681830},{"NoteNumber":66,"Velocity":89,"Duration":97297,"SoundDuration":97297,"Delta":342778709},{"NoteNumber":51,"Velocity":50,"Duration":195123,"SoundDuration":195123,"Delta":342778709},{"NoteNumber":63,"Velocity":59,"Duration":195123,"SoundDuration":195123,"Delta":342778709},{"NoteNumber":78,"Velocity":79,"Duration":97826,"SoundDuration":97826,"Delta":342876007},{"NoteNumber":71,"Velocity":91,"Duration":202510,"SoundDuration":202510,"Delta":342973833},{"NoteNumber":47,"Velocity":60,"Duration":202510,"SoundDuration":202510,"Delta":342973833},{"NoteNumber":59,"Velocity":74,"Duration":202510,"SoundDuration":202510,"Delta":342973833},{"NoteNumber":75,"Velocity":82,"Duration":103106,"SoundDuration":103106,"Delta":343073236},{"NoteNumber":72,"Velocity":93,"Duration":218700,"SoundDuration":218700,"Delta":343176343},{"NoteNumber":50,"Velocity":53,"Duration":218700,"SoundDuration":218700,"Delta":343176343},{"NoteNumber":62,"Velocity":62,"Duration":218700,"SoundDuration":218700,"Delta":343176343},{"NoteNumber":81,"Velocity":85,"Duration":383035,"SoundDuration":383035,"Delta":343283502},{"NoteNumber":73,"Velocity":82,"Duration":271493,"SoundDuration":271493,"Delta":343395044},{"NoteNumber":85,"Velocity":98,"Duration":271493,"SoundDuration":271493,"Delta":343395044},{"NoteNumber":78,"Velocity":82,"Duration":271493,"SoundDuration":271493,"Delta":343395044},{"NoteNumber":37,"Velocity":61,"Duration":271493,"SoundDuration":271493,"Delta":343395044},{"NoteNumber":49,"Velocity":73,"Duration":271493,"SoundDuration":271493,"Delta":343395044},{"NoteNumber":72,"Velocity":64,"Duration":99003,"SoundDuration":99003,"Delta":343666537},{"NoteNumber":73,"Velocity":64,"Duration":98773,"SoundDuration":98773,"Delta":343765541},{"NoteNumber":61,"Velocity":44,"Duration":98773,"SoundDuration":98773,"Delta":343765541},{"NoteNumber":57,"Velocity":44,"Duration":98773,"SoundDuration":98773,"Delta":343765541},{"NoteNumber":69,"Velocity":53,"Duration":98773,"SoundDuration":98773,"Delta":343765541},{"NoteNumber":66,"Velocity":53,"Duration":98773,"SoundDuration":98773,"Delta":343765541},{"NoteNumber":75,"Velocity":65,"Duration":98483,"SoundDuration":98483,"Delta":343864314},{"NoteNumber":69,"Velocity":55,"Duration":196735,"SoundDuration":196735,"Delta":343864314},{"NoteNumber":66,"Velocity":55,"Duration":196735,"SoundDuration":196735,"Delta":343864314},{"NoteNumber":61,"Velocity":46,"Duration":196735,"SoundDuration":196735,"Delta":343864314},{"NoteNumber":57,"Velocity":46,"Duration":196735,"SoundDuration":196735,"Delta":343864314},{"NoteNumber":77,"Velocity":66,"Duration":98252,"SoundDuration":98252,"Delta":343962797},{"NoteNumber":78,"Velocity":67,"Duration":97968,"SoundDuration":97968,"Delta":344061050},{"NoteNumber":66,"Velocity":56,"Duration":195599,"SoundDuration":195599,"Delta":344061050},{"NoteNumber":69,"Velocity":56,"Duration":195599,"SoundDuration":195599,"Delta":344061050},{"NoteNumber":57,"Velocity":47,"Duration":195599,"SoundDuration":195599,"Delta":344061050},{"NoteNumber":61,"Velocity":47,"Duration":195599,"SoundDuration":195599,"Delta":344061050},{"NoteNumber":80,"Velocity":67,"Duration":97630,"SoundDuration":97630,"Delta":344159019},{"NoteNumber":81,"Velocity":68,"Duration":97345,"SoundDuration":97345,"Delta":344256649},{"NoteNumber":69,"Velocity":58,"Duration":194468,"SoundDuration":194468,"Delta":344256649},{"NoteNumber":61,"Velocity":49,"Duration":194468,"SoundDuration":194468,"Delta":344256649},{"NoteNumber":57,"Velocity":49,"Duration":194468,"SoundDuration":194468,"Delta":344256649},{"NoteNumber":66,"Velocity":58,"Duration":194468,"SoundDuration":194468,"Delta":344256649},{"NoteNumber":83,"Velocity":69,"Duration":97122,"SoundDuration":97122,"Delta":344353995},{"NoteNumber":85,"Velocity":70,"Duration":96845,"SoundDuration":96845,"Delta":344451117},{"NoteNumber":57,"Velocity":50,"Duration":193469,"SoundDuration":193469,"Delta":344451117},{"NoteNumber":66,"Velocity":59,"Duration":193469,"SoundDuration":193469,"Delta":344451117},{"NoteNumber":69,"Velocity":59,"Duration":193469,"SoundDuration":193469,"Delta":344451117},{"NoteNumber":61,"Velocity":50,"Duration":193469,"SoundDuration":193469,"Delta":344451117},{"NoteNumber":87,"Velocity":71,"Duration":96624,"SoundDuration":96624,"Delta":344547963},{"NoteNumber":89,"Velocity":71,"Duration":96289,"SoundDuration":96289,"Delta":344644587},{"NoteNumber":57,"Velocity":60,"Duration":573512,"SoundDuration":573512,"Delta":344644587},{"NoteNumber":69,"Velocity":72,"Duration":573512,"SoundDuration":573512,"Delta":344644587},{"NoteNumber":61,"Velocity":60,"Duration":573512,"SoundDuration":573512,"Delta":344644587},{"NoteNumber":66,"Velocity":72,"Duration":573512,"SoundDuration":573512,"Delta":344644587},{"NoteNumber":90,"Velocity":72,"Duration":96017,"SoundDuration":96017,"Delta":344740877},{"NoteNumber":92,"Velocity":73,"Duration":95746,"SoundDuration":95746,"Delta":344836895},{"NoteNumber":93,"Velocity":74,"Duration":95529,"SoundDuration":95529,"Delta":344932641},{"NoteNumber":90,"Velocity":75,"Duration":95257,"SoundDuration":95257,"Delta":345028171},{"NoteNumber":85,"Velocity":75,"Duration":94671,"SoundDuration":94671,"Delta":345123428},{"NoteNumber":81,"Velocity":76,"Duration":94725,"SoundDuration":94725,"Delta":345218099},{"NoteNumber":78,"Velocity":76,"Duration":95366,"SoundDuration":95366,"Delta":345312825},{"NoteNumber":73,"Velocity":74,"Duration":95909,"SoundDuration":95909,"Delta":345408192},{"NoteNumber":69,"Velocity":72,"Duration":96568,"SoundDuration":96568,"Delta":345504101},{"NoteNumber":66,"Velocity":71,"Duration":102993,"SoundDuration":102993,"Delta":345600669},{"NoteNumber":37,"Velocity":58,"Duration":205987,"SoundDuration":205987,"Delta":345600669},{"NoteNumber":49,"Velocity":69,"Duration":205987,"SoundDuration":205987,"Delta":345600669},{"NoteNumber":61,"Velocity":69,"Duration":102993,"SoundDuration":102993,"Delta":345703663},{"NoteNumber":57,"Velocity":66,"Duration":99011,"SoundDuration":99011,"Delta":345806657},{"NoteNumber":48,"Velocity":86,"Duration":197378,"SoundDuration":197378,"Delta":345806657},{"NoteNumber":36,"Velocity":73,"Duration":197378,"SoundDuration":197378,"Delta":345806657},{"NoteNumber":66,"Velocity":67,"Duration":98367,"SoundDuration":98367,"Delta":345905668},{"NoteNumber":63,"Velocity":68,"Duration":97912,"SoundDuration":97912,"Delta":346004036},{"NoteNumber":69,"Velocity":69,"Duration":89466,"SoundDuration":89466,"Delta":346101948},{"NoteNumber":54,"Velocity":45,"Duration":97573,"SoundDuration":97573,"Delta":346101948},{"NoteNumber":63,"Velocity":53,"Duration":97573,"SoundDuration":97573,"Delta":346101948},{"NoteNumber":57,"Velocity":45,"Duration":97573,"SoundDuration":97573,"Delta":346101948},{"NoteNumber":69,"Velocity":70,"Duration":97177,"SoundDuration":97177,"Delta":346199522},{"NoteNumber":63,"Velocity":55,"Duration":193967,"SoundDuration":193967,"Delta":346199522},{"NoteNumber":54,"Velocity":47,"Duration":193967,"SoundDuration":193967,"Delta":346199522},{"NoteNumber":57,"Velocity":47,"Duration":193967,"SoundDuration":193967,"Delta":346199522},{"NoteNumber":78,"Velocity":72,"Duration":96789,"SoundDuration":96789,"Delta":346296700},{"NoteNumber":75,"Velocity":73,"Duration":96401,"SoundDuration":96401,"Delta":346393490},{"NoteNumber":54,"Velocity":54,"Duration":192473,"SoundDuration":192473,"Delta":346393490},{"NoteNumber":57,"Velocity":54,"Duration":192473,"SoundDuration":192473,"Delta":346393490},{"NoteNumber":63,"Velocity":65,"Duration":192473,"SoundDuration":192473,"Delta":346393490},{"NoteNumber":81,"Velocity":74,"Duration":88075,"SoundDuration":88075,"Delta":346489891},{"NoteNumber":81,"Velocity":75,"Duration":95692,"SoundDuration":95692,"Delta":346585963},{"NoteNumber":90,"Velocity":76,"Duration":95257,"SoundDuration":95257,"Delta":346681656},{"NoteNumber":87,"Velocity":77,"Duration":99707,"SoundDuration":99707,"Delta":346776913},{"NoteNumber":36,"Velocity":60,"Duration":198575,"SoundDuration":198575,"Delta":346776913},{"NoteNumber":48,"Velocity":72,"Duration":198575,"SoundDuration":198575,"Delta":346776913},{"NoteNumber":93,"Velocity":79,"Duration":98868,"SoundDuration":98868,"Delta":346876621},{"NoteNumber":90,"Velocity":80,"Duration":94673,"SoundDuration":94673,"Delta":346975489},{"NoteNumber":35,"Velocity":74,"Duration":189610,"SoundDuration":189610,"Delta":346975489},{"NoteNumber":47,"Velocity":88,"Duration":189610,"SoundDuration":189610,"Delta":346975489},{"NoteNumber":93,"Velocity":78,"Duration":94937,"SoundDuration":94937,"Delta":347070162},{"NoteNumber":87,"Velocity":77,"Duration":95204,"SoundDuration":95204,"Delta":347165100},{"NoteNumber":81,"Velocity":76,"Duration":95420,"SoundDuration":95420,"Delta":347260304},{"NoteNumber":63,"Velocity":59,"Duration":95420,"SoundDuration":95420,"Delta":347260304},{"NoteNumber":54,"Velocity":50,"Duration":95420,"SoundDuration":95420,"Delta":347260304},{"NoteNumber":57,"Velocity":50,"Duration":95420,"SoundDuration":95420,"Delta":347260304},{"NoteNumber":78,"Velocity":75,"Duration":95692,"SoundDuration":95692,"Delta":347355724},{"NoteNumber":63,"Velocity":58,"Duration":191656,"SoundDuration":191656,"Delta":347355724},{"NoteNumber":54,"Velocity":49,"Duration":191656,"SoundDuration":191656,"Delta":347355724},{"NoteNumber":57,"Velocity":49,"Duration":191656,"SoundDuration":191656,"Delta":347355724},{"NoteNumber":81,"Velocity":75,"Duration":95963,"SoundDuration":95963,"Delta":347451417},{"NoteNumber":75,"Velocity":74,"Duration":96235,"SoundDuration":96235,"Delta":347547380},{"NoteNumber":57,"Velocity":48,"Duration":192748,"SoundDuration":192748,"Delta":347547380},{"NoteNumber":54,"Velocity":48,"Duration":192748,"SoundDuration":192748,"Delta":347547380},{"NoteNumber":63,"Velocity":57,"Duration":192748,"SoundDuration":192748,"Delta":347547380},{"NoteNumber":69,"Velocity":73,"Duration":96512,"SoundDuration":96512,"Delta":347643616},{"NoteNumber":66,"Velocity":72,"Duration":96734,"SoundDuration":96734,"Delta":347740128},{"NoteNumber":69,"Velocity":72,"Duration":97011,"SoundDuration":97011,"Delta":347836863},{"NoteNumber":63,"Velocity":71,"Duration":102993,"SoundDuration":102993,"Delta":347933874},{"NoteNumber":47,"Velocity":72,"Duration":235339,"SoundDuration":235339,"Delta":347933874},{"NoteNumber":35,"Velocity":60,"Duration":235339,"SoundDuration":235339,"Delta":347933874},{"NoteNumber":57,"Velocity":70,"Duration":132345,"SoundDuration":132345,"Delta":348036868},{"NoteNumber":70,"Velocity":71,"Duration":189346,"SoundDuration":189346,"Delta":348169213},{"NoteNumber":58,"Velocity":71,"Duration":189346,"SoundDuration":189346,"Delta":348169213},{"NoteNumber":67,"Velocity":71,"Duration":189346,"SoundDuration":189346,"Delta":348169213},{"NoteNumber":63,"Velocity":71,"Duration":189346,"SoundDuration":189346,"Delta":348169213},{"NoteNumber":46,"Velocity":88,"Duration":189346,"SoundDuration":189346,"Delta":348169213},{"NoteNumber":34,"Velocity":74,"Duration":189346,"SoundDuration":189346,"Delta":348169213},{"NoteNumber":57,"Velocity":46,"Duration":102562,"SoundDuration":102562,"Delta":348358559},{"NoteNumber":58,"Velocity":46,"Duration":102562,"SoundDuration":102562,"Delta":348453232},{"NoteNumber":60,"Velocity":47,"Duration":102562,"SoundDuration":102562,"Delta":348547905},{"NoteNumber":62,"Velocity":47,"Duration":102562,"SoundDuration":102562,"Delta":348642578},{"NoteNumber":63,"Velocity":48,"Duration":102562,"SoundDuration":102562,"Delta":348737251},{"NoteNumber":64,"Velocity":49,"Duration":102697,"SoundDuration":102697,"Delta":348831924},{"NoteNumber":67,"Velocity":49,"Duration":104313,"SoundDuration":104313,"Delta":348926597},{"NoteNumber":63,"Velocity":44,"Duration":192579,"SoundDuration":192579,"Delta":348926597},{"NoteNumber":57,"Velocity":44,"Duration":192579,"SoundDuration":192579,"Delta":348926597},{"NoteNumber":60,"Velocity":44,"Duration":192579,"SoundDuration":192579,"Delta":348926597},{"NoteNumber":65,"Velocity":50,"Duration":104313,"SoundDuration":104313,"Delta":349022887},{"NoteNumber":67,"Velocity":50,"Duration":104313,"SoundDuration":104313,"Delta":349119177},{"NoteNumber":58,"Velocity":43,"Duration":192579,"SoundDuration":192579,"Delta":349119177},{"NoteNumber":62,"Velocity":43,"Duration":192579,"SoundDuration":192579,"Delta":349119177},{"NoteNumber":56,"Velocity":43,"Duration":192579,"SoundDuration":192579,"Delta":349119177},{"NoteNumber":65,"Velocity":51,"Duration":104179,"SoundDuration":104179,"Delta":349215467},{"NoteNumber":72,"Velocity":52,"Duration":102562,"SoundDuration":102562,"Delta":349311756},{"NoteNumber":58,"Velocity":47,"Duration":189346,"SoundDuration":189346,"Delta":349311756},{"NoteNumber":55,"Velocity":47,"Duration":189346,"SoundDuration":189346,"Delta":349311756},{"NoteNumber":63,"Velocity":47,"Duration":189346,"SoundDuration":189346,"Delta":349311756},{"NoteNumber":70,"Velocity":52,"Duration":102562,"SoundDuration":102562,"Delta":349406429},{"NoteNumber":69,"Velocity":53,"Duration":102562,"SoundDuration":102562,"Delta":349501102},{"NoteNumber":70,"Velocity":53,"Duration":102562,"SoundDuration":102562,"Delta":349595775},{"NoteNumber":72,"Velocity":54,"Duration":102562,"SoundDuration":102562,"Delta":349690448},{"NoteNumber":74,"Velocity":54,"Duration":102562,"SoundDuration":102562,"Delta":349785121},{"NoteNumber":75,"Velocity":55,"Duration":102562,"SoundDuration":102562,"Delta":349879794},{"NoteNumber":76,"Velocity":56,"Duration":102725,"SoundDuration":102725,"Delta":349974467},{"NoteNumber":79,"Velocity":56,"Duration":104676,"SoundDuration":104676,"Delta":350069140},{"NoteNumber":69,"Velocity":46,"Duration":193248,"SoundDuration":193248,"Delta":350069140},{"NoteNumber":72,"Velocity":46,"Duration":193248,"SoundDuration":193248,"Delta":350069140},{"NoteNumber":75,"Velocity":46,"Duration":193248,"SoundDuration":193248,"Delta":350069140},{"NoteNumber":77,"Velocity":57,"Duration":104676,"SoundDuration":104676,"Delta":350165765},{"NoteNumber":79,"Velocity":57,"Duration":104676,"SoundDuration":104676,"Delta":350262389},{"NoteNumber":70,"Velocity":46,"Duration":193249,"SoundDuration":193249,"Delta":350262389},{"NoteNumber":74,"Velocity":46,"Duration":193249,"SoundDuration":193249,"Delta":350262389},{"NoteNumber":68,"Velocity":46,"Duration":193249,"SoundDuration":193249,"Delta":350262389},{"NoteNumber":77,"Velocity":58,"Duration":104487,"SoundDuration":104487,"Delta":350359014},{"NoteNumber":84,"Velocity":59,"Duration":102214,"SoundDuration":102214,"Delta":350455638},{"NoteNumber":67,"Velocity":46,"Duration":188702,"SoundDuration":188702,"Delta":350455638},{"NoteNumber":75,"Velocity":46,"Duration":188702,"SoundDuration":188702,"Delta":350455638},{"NoteNumber":70,"Velocity":46,"Duration":188702,"SoundDuration":188702,"Delta":350455638},{"NoteNumber":82,"Velocity":59,"Duration":102214,"SoundDuration":102214,"Delta":350549990},{"NoteNumber":81,"Velocity":60,"Duration":102214,"SoundDuration":102214,"Delta":350644341},{"NoteNumber":82,"Velocity":60,"Duration":102214,"SoundDuration":102214,"Delta":350738693},{"NoteNumber":84,"Velocity":61,"Duration":102214,"SoundDuration":102214,"Delta":350833044},{"NoteNumber":86,"Velocity":61,"Duration":102214,"SoundDuration":102214,"Delta":350927396},{"NoteNumber":87,"Velocity":62,"Duration":102214,"SoundDuration":102214,"Delta":351021747},{"NoteNumber":88,"Velocity":63,"Duration":102348,"SoundDuration":102348,"Delta":351116099},{"NoteNumber":91,"Velocity":63,"Duration":103960,"SoundDuration":103960,"Delta":351210450},{"NoteNumber":87,"Velocity":56,"Duration":191926,"SoundDuration":191926,"Delta":351210450},{"NoteNumber":81,"Velocity":56,"Duration":191926,"SoundDuration":191926,"Delta":351210450},{"NoteNumber":84,"Velocity":56,"Duration":191926,"SoundDuration":191926,"Delta":351210450},{"NoteNumber":89,"Velocity":64,"Duration":103960,"SoundDuration":103960,"Delta":351306414},{"NoteNumber":91,"Velocity":64,"Duration":103960,"SoundDuration":103960,"Delta":351402377},{"NoteNumber":82,"Velocity":56,"Duration":191926,"SoundDuration":191926,"Delta":351402377},{"NoteNumber":80,"Velocity":56,"Duration":191926,"SoundDuration":191926,"Delta":351402377},{"NoteNumber":86,"Velocity":56,"Duration":191926,"SoundDuration":191926,"Delta":351402377},{"NoteNumber":89,"Velocity":65,"Duration":103825,"SoundDuration":103825,"Delta":351498340},{"NoteNumber":94,"Velocity":66,"Duration":188702,"SoundDuration":188702,"Delta":351594303},{"NoteNumber":82,"Velocity":57,"Duration":188702,"SoundDuration":188702,"Delta":351594303},{"NoteNumber":79,"Velocity":57,"Duration":188702,"SoundDuration":188702,"Delta":351594303},{"NoteNumber":87,"Velocity":57,"Duration":188702,"SoundDuration":188702,"Delta":351594303},{"NoteNumber":81,"Velocity":64,"Duration":102214,"SoundDuration":102214,"Delta":351783006},{"NoteNumber":82,"Velocity":65,"Duration":102214,"SoundDuration":102214,"Delta":351877358},{"NoteNumber":84,"Velocity":65,"Duration":102214,"SoundDuration":102214,"Delta":351971709},{"NoteNumber":86,"Velocity":66,"Duration":102214,"SoundDuration":102214,"Delta":352066061},{"NoteNumber":87,"Velocity":67,"Duration":102214,"SoundDuration":102214,"Delta":352160412},{"NoteNumber":88,"Velocity":68,"Duration":102543,"SoundDuration":102543,"Delta":352254764},{"NoteNumber":91,"Velocity":71,"Duration":104742,"SoundDuration":104742,"Delta":352349115},{"NoteNumber":81,"Velocity":58,"Duration":192708,"SoundDuration":192708,"Delta":352349115},{"NoteNumber":84,"Velocity":58,"Duration":192708,"SoundDuration":192708,"Delta":352349115},{"NoteNumber":87,"Velocity":58,"Duration":192708,"SoundDuration":192708,"Delta":352349115},{"NoteNumber":89,"Velocity":68,"Duration":104155,"SoundDuration":104155,"Delta":352445861},{"NoteNumber":91,"Velocity":71,"Duration":106501,"SoundDuration":106501,"Delta":352541824},{"NoteNumber":82,"Velocity":58,"Duration":196618,"SoundDuration":196618,"Delta":352541824},{"NoteNumber":80,"Velocity":58,"Duration":196618,"SoundDuration":196618,"Delta":352541824},{"NoteNumber":86,"Velocity":58,"Duration":196618,"SoundDuration":196618,"Delta":352541824},{"NoteNumber":89,"Velocity":68,"Duration":106333,"SoundDuration":106333,"Delta":352640133},{"NoteNumber":94,"Velocity":68,"Duration":96289,"SoundDuration":96289,"Delta":352738442},{"NoteNumber":82,"Velocity":59,"Duration":192579,"SoundDuration":192579,"Delta":352738442},{"NoteNumber":87,"Velocity":59,"Duration":192579,"SoundDuration":192579,"Delta":352738442},{"NoteNumber":79,"Velocity":59,"Duration":192579,"SoundDuration":192579,"Delta":352738442},{"NoteNumber":89,"Velocity":77,"Duration":47511,"SoundDuration":47511,"Delta":353268035},{"NoteNumber":101,"Velocity":89,"Duration":92489,"SoundDuration":92489,"Delta":353315547},{"NoteNumber":69,"Velocity":72,"Duration":185080,"SoundDuration":185080,"Delta":353315547},{"NoteNumber":60,"Velocity":72,"Duration":185080,"SoundDuration":185080,"Delta":353315547},{"NoteNumber":63,"Velocity":72,"Duration":185080,"SoundDuration":185080,"Delta":353315547},{"NoteNumber":65,"Velocity":72,"Duration":185080,"SoundDuration":185080,"Delta":353315547},{"NoteNumber":100,"Velocity":84,"Duration":92590,"SoundDuration":92590,"Delta":353408037},{"NoteNumber":99,"Velocity":83,"Duration":92792,"SoundDuration":92792,"Delta":353500628},{"NoteNumber":98,"Velocity":82,"Duration":92948,"SoundDuration":92948,"Delta":353593421},{"NoteNumber":96,"Velocity":81,"Duration":93103,"SoundDuration":93103,"Delta":353686369},{"NoteNumber":94,"Velocity":79,"Duration":93309,"SoundDuration":93309,"Delta":353779473},{"NoteNumber":93,"Velocity":78,"Duration":93411,"SoundDuration":93411,"Delta":353872782},{"NoteNumber":91,"Velocity":77,"Duration":93669,"SoundDuration":93669,"Delta":353966194},{"NoteNumber":89,"Velocity":76,"Duration":93773,"SoundDuration":93773,"Delta":354059863},{"NoteNumber":88,"Velocity":75,"Duration":94038,"SoundDuration":94038,"Delta":354153636},{"NoteNumber":87,"Velocity":74,"Duration":94142,"SoundDuration":94142,"Delta":354247674},{"NoteNumber":86,"Velocity":73,"Duration":94351,"SoundDuration":94351,"Delta":354341817},{"NoteNumber":84,"Velocity":72,"Duration":94512,"SoundDuration":94512,"Delta":354436168},{"NoteNumber":82,"Velocity":71,"Duration":94673,"SoundDuration":94673,"Delta":354530681},{"NoteNumber":81,"Velocity":70,"Duration":94884,"SoundDuration":94884,"Delta":354625354},{"NoteNumber":79,"Velocity":69,"Duration":94990,"SoundDuration":94990,"Delta":354720238},{"NoteNumber":77,"Velocity":68,"Duration":95257,"SoundDuration":95257,"Delta":354815229},{"NoteNumber":76,"Velocity":67,"Duration":95365,"SoundDuration":95365,"Delta":354910487},{"NoteNumber":47,"Velocity":69,"Duration":261307,"SoundDuration":261307,"Delta":354934314},{"NoteNumber":51,"Velocity":73,"Duration":237479,"SoundDuration":237479,"Delta":354958142},{"NoteNumber":56,"Velocity":77,"Duration":213652,"SoundDuration":213652,"Delta":354981970},{"NoteNumber":75,"Velocity":66,"Duration":94990,"SoundDuration":94990,"Delta":355005852},{"NoteNumber":63,"Velocity":80,"Duration":189769,"SoundDuration":189769,"Delta":355005852},{"NoteNumber":73,"Velocity":65,"Duration":94778,"SoundDuration":94778,"Delta":355100843},{"NoteNumber":71,"Velocity":64,"Duration":94512,"SoundDuration":94512,"Delta":355195622},{"NoteNumber":70,"Velocity":63,"Duration":94299,"SoundDuration":94299,"Delta":355290134},{"NoteNumber":68,"Velocity":62,"Duration":94038,"SoundDuration":94038,"Delta":355384433},{"NoteNumber":66,"Velocity":61,"Duration":93720,"SoundDuration":93720,"Delta":355478471},{"NoteNumber":65,"Velocity":60,"Duration":93463,"SoundDuration":93463,"Delta":355572192},{"NoteNumber":63,"Velocity":59,"Duration":93411,"SoundDuration":93411,"Delta":355665655},{"NoteNumber":61,"Velocity":58,"Duration":93411,"SoundDuration":93411,"Delta":355759067},{"NoteNumber":59,"Velocity":57,"Duration":93411,"SoundDuration":93411,"Delta":355852478},{"NoteNumber":58,"Velocity":56,"Duration":93411,"SoundDuration":93411,"Delta":355945890},{"NoteNumber":56,"Velocity":55,"Duration":93463,"SoundDuration":93463,"Delta":356039301},{"NoteNumber":54,"Velocity":57,"Duration":93517,"SoundDuration":93517,"Delta":356132764},{"NoteNumber":35,"Velocity":91,"Duration":188402,"SoundDuration":188402,"Delta":356132764},{"NoteNumber":53,"Velocity":59,"Duration":94884,"SoundDuration":94884,"Delta":356226282},{"NoteNumber":51,"Velocity":62,"Duration":96402,"SoundDuration":96402,"Delta":356321166},{"NoteNumber":49,"Velocity":64,"Duration":98085,"SoundDuration":98085,"Delta":356417569},{"NoteNumber":47,"Velocity":66,"Duration":99590,"SoundDuration":99590,"Delta":356515655},{"NoteNumber":46,"Velocity":68,"Duration":101264,"SoundDuration":101264,"Delta":356615245},{"NoteNumber":44,"Velocity":70,"Duration":103123,"SoundDuration":103123,"Delta":356716510},{"NoteNumber":42,"Velocity":72,"Duration":104787,"SoundDuration":104787,"Delta":356819633},{"NoteNumber":41,"Velocity":75,"Duration":106642,"SoundDuration":106642,"Delta":356924420},{"NoteNumber":39,"Velocity":77,"Duration":108703,"SoundDuration":108703,"Delta":357031063},{"NoteNumber":37,"Velocity":79,"Duration":110556,"SoundDuration":110556,"Delta":357139766},{"NoteNumber":35,"Velocity":81,"Duration":107636,"SoundDuration":107636,"Delta":357250323},{"NoteNumber":34,"Velocity":80,"Duration":160884,"SoundDuration":160884,"Delta":357357960},{"NoteNumber":41,"Velocity":55,"Duration":158341,"SoundDuration":158341,"Delta":357518844},{"NoteNumber":46,"Velocity":55,"Duration":145103,"SoundDuration":145103,"Delta":357677186},{"NoteNumber":50,"Velocity":55,"Duration":144230,"SoundDuration":144230,"Delta":357822289},{"NoteNumber":46,"Velocity":55,"Duration":143885,"SoundDuration":143885,"Delta":357966520},{"NoteNumber":41,"Velocity":55,"Duration":144753,"SoundDuration":144753,"Delta":358110406},{"NoteNumber":67,"Velocity":78,"Duration":579875,"SoundDuration":579875,"Delta":358255160},{"NoteNumber":62,"Velocity":66,"Duration":579875,"SoundDuration":579875,"Delta":358255160},{"NoteNumber":58,"Velocity":66,"Duration":579875,"SoundDuration":579875,"Delta":358255160},{"NoteNumber":34,"Velocity":66,"Duration":147202,"SoundDuration":147202,"Delta":358255160},{"NoteNumber":41,"Velocity":55,"Duration":147202,"SoundDuration":147202,"Delta":358402363},{"NoteNumber":46,"Velocity":55,"Duration":142735,"SoundDuration":142735,"Delta":358549566},{"NoteNumber":53,"Velocity":55,"Duration":142734,"SoundDuration":142734,"Delta":358692301},{"NoteNumber":62,"Velocity":61,"Duration":288850,"SoundDuration":288850,"Delta":358835036},{"NoteNumber":56,"Velocity":61,"Duration":288850,"SoundDuration":288850,"Delta":358835036},{"NoteNumber":67,"Velocity":73,"Duration":288850,"SoundDuration":288850,"Delta":358835036},{"NoteNumber":46,"Velocity":55,"Duration":144425,"SoundDuration":144425,"Delta":358835036},{"NoteNumber":41,"Velocity":55,"Duration":144425,"SoundDuration":144425,"Delta":358979461},{"NoteNumber":55,"Velocity":65,"Duration":286227,"SoundDuration":286227,"Delta":359123886},{"NoteNumber":63,"Velocity":76,"Duration":286227,"SoundDuration":286227,"Delta":359123886},{"NoteNumber":39,"Velocity":60,"Duration":143426,"SoundDuration":143426,"Delta":359123886},{"NoteNumber":46,"Velocity":54,"Duration":142800,"SoundDuration":142800,"Delta":359267312},{"NoteNumber":51,"Velocity":54,"Duration":143712,"SoundDuration":143712,"Delta":359410113},{"NoteNumber":55,"Velocity":54,"Duration":144462,"SoundDuration":144462,"Delta":359553825},{"NoteNumber":63,"Velocity":66,"Duration":854447,"SoundDuration":854447,"Delta":359698288},{"NoteNumber":67,"Velocity":66,"Duration":854447,"SoundDuration":854447,"Delta":359698288},{"NoteNumber":75,"Velocity":78,"Duration":854447,"SoundDuration":854447,"Delta":359698288},{"NoteNumber":51,"Velocity":54,"Duration":142857,"SoundDuration":142857,"Delta":359698288},{"NoteNumber":46,"Velocity":53,"Duration":141844,"SoundDuration":141844,"Delta":359841146},{"NoteNumber":39,"Velocity":60,"Duration":141509,"SoundDuration":141509,"Delta":359982991},{"NoteNumber":48,"Velocity":53,"Duration":142575,"SoundDuration":142575,"Delta":360124501},{"NoteNumber":51,"Velocity":53,"Duration":142830,"SoundDuration":142830,"Delta":360267076},{"NoteNumber":58,"Velocity":53,"Duration":142830,"SoundDuration":142830,"Delta":360409906},{"NoteNumber":74,"Velocity":73,"Duration":290093,"SoundDuration":290093,"Delta":360552736},{"NoteNumber":70,"Velocity":61,"Duration":290093,"SoundDuration":290093,"Delta":360552736},{"NoteNumber":63,"Velocity":61,"Duration":290093,"SoundDuration":290093,"Delta":360552736},{"NoteNumber":51,"Velocity":53,"Duration":145046,"SoundDuration":145046,"Delta":360552736},{"NoteNumber":48,"Velocity":53,"Duration":145046,"SoundDuration":145046,"Delta":360697782},{"NoteNumber":63,"Velocity":65,"Duration":852224,"SoundDuration":852224,"Delta":360842829},{"NoteNumber":70,"Velocity":65,"Duration":852224,"SoundDuration":852224,"Delta":360842829},{"NoteNumber":72,"Velocity":77,"Duration":852224,"SoundDuration":852224,"Delta":360842829},{"NoteNumber":41,"Velocity":60,"Duration":142830,"SoundDuration":142830,"Delta":360842829},{"NoteNumber":48,"Velocity":52,"Duration":142830,"SoundDuration":142830,"Delta":360985659},{"NoteNumber":51,"Velocity":52,"Duration":142087,"SoundDuration":142087,"Delta":361128489},{"NoteNumber":58,"Velocity":53,"Duration":141287,"SoundDuration":141287,"Delta":361270576},{"NoteNumber":51,"Velocity":53,"Duration":141177,"SoundDuration":141177,"Delta":361411864},{"NoteNumber":48,"Velocity":53,"Duration":142012,"SoundDuration":142012,"Delta":361553041},{"NoteNumber":65,"Velocity":67,"Duration":573188,"SoundDuration":573188,"Delta":361695053},{"NoteNumber":74,"Velocity":79,"Duration":573188,"SoundDuration":573188,"Delta":361695053},{"NoteNumber":69,"Velocity":67,"Duration":573188,"SoundDuration":573188,"Delta":361695053},{"NoteNumber":41,"Velocity":60,"Duration":144299,"SoundDuration":144299,"Delta":361695053},{"NoteNumber":48,"Velocity":53,"Duration":144299,"SoundDuration":144299,"Delta":361839353},{"NoteNumber":51,"Velocity":53,"Duration":142294,"SoundDuration":142294,"Delta":361983653},{"NoteNumber":57,"Velocity":54,"Duration":142294,"SoundDuration":142294,"Delta":362125948},{"NoteNumber":63,"Velocity":63,"Duration":293910,"SoundDuration":293910,"Delta":362268242},{"NoteNumber":69,"Velocity":63,"Duration":293910,"SoundDuration":293910,"Delta":362268242},{"NoteNumber":74,"Velocity":74,"Duration":293910,"SoundDuration":293910,"Delta":362268242},{"NoteNumber":51,"Velocity":54,"Duration":147202,"SoundDuration":147202,"Delta":362268242},{"NoteNumber":48,"Velocity":54,"Duration":146707,"SoundDuration":146707,"Delta":362415445},{"NoteNumber":62,"Velocity":59,"Duration":287771,"SoundDuration":287771,"Delta":362562153},{"NoteNumber":70,"Velocity":71,"Duration":287771,"SoundDuration":287771,"Delta":362562153},{"NoteNumber":46,"Velocity":59,"Duration":144115,"SoundDuration":144115,"Delta":362562153},{"NoteNumber":53,"Velocity":51,"Duration":143655,"SoundDuration":143655,"Delta":362706268},{"NoteNumber":58,"Velocity":51,"Duration":143141,"SoundDuration":143141,"Delta":362849924},{"NoteNumber":62,"Velocity":51,"Duration":142687,"SoundDuration":142687,"Delta":362993065},{"NoteNumber":58,"Velocity":51,"Duration":142236,"SoundDuration":142236,"Delta":363135752},{"NoteNumber":53,"Velocity":51,"Duration":142630,"SoundDuration":142630,"Delta":363277989},{"NoteNumber":70,"Velocity":64,"Duration":571495,"SoundDuration":571495,"Delta":363420620},{"NoteNumber":82,"Velocity":75,"Duration":571495,"SoundDuration":571495,"Delta":363420620},{"NoteNumber":46,"Velocity":54,"Duration":143027,"SoundDuration":143027,"Delta":363420620},{"NoteNumber":53,"Velocity":51,"Duration":143540,"SoundDuration":143540,"Delta":363563647},{"NoteNumber":58,"Velocity":51,"Duration":142463,"SoundDuration":142463,"Delta":363707188},{"NoteNumber":65,"Velocity":51,"Duration":142463,"SoundDuration":142463,"Delta":363849652},{"NoteNumber":71,"Velocity":65,"Duration":288599,"SoundDuration":288599,"Delta":363992115},{"NoteNumber":83,"Velocity":77,"Duration":288599,"SoundDuration":288599,"Delta":363992115},{"NoteNumber":58,"Velocity":51,"Duration":144299,"SoundDuration":144299,"Delta":363992115},{"NoteNumber":53,"Velocity":51,"Duration":144299,"SoundDuration":144299,"Delta":364136415},{"NoteNumber":72,"Velocity":65,"Duration":107405,"SoundDuration":107405,"Delta":364280715},{"NoteNumber":84,"Velocity":77,"Duration":107405,"SoundDuration":107405,"Delta":364280715},{"NoteNumber":46,"Velocity":58,"Duration":142863,"SoundDuration":142863,"Delta":364280715},{"NoteNumber":55,"Velocity":47,"Duration":140397,"SoundDuration":140397,"Delta":364423579},{"NoteNumber":85,"Velocity":72,"Duration":105165,"SoundDuration":105165,"Delta":364451844},{"NoteNumber":82,"Velocity":60,"Duration":105165,"SoundDuration":105165,"Delta":364451844},{"NoteNumber":60,"Velocity":48,"Duration":139222,"SoundDuration":139222,"Delta":364563976},{"NoteNumber":76,"Velocity":61,"Duration":104754,"SoundDuration":104754,"Delta":364619491},{"NoteNumber":84,"Velocity":73,"Duration":104754,"SoundDuration":104754,"Delta":364619491},{"NoteNumber":64,"Velocity":50,"Duration":140930,"SoundDuration":140930,"Delta":364703199},{"NoteNumber":82,"Velocity":63,"Duration":107345,"SoundDuration":107345,"Delta":364787551},{"NoteNumber":83,"Velocity":74,"Duration":107345,"SoundDuration":107345,"Delta":364787551},{"NoteNumber":60,"Velocity":51,"Duration":145046,"SoundDuration":145046,"Delta":364844130},{"NoteNumber":76,"Velocity":67,"Duration":98994,"SoundDuration":98994,"Delta":364960167},{"NoteNumber":84,"Velocity":79,"Duration":98994,"SoundDuration":98994,"Delta":364960167},{"NoteNumber":55,"Velocity":53,"Duration":139971,"SoundDuration":139971,"Delta":364989176},{"NoteNumber":80,"Velocity":57,"Duration":69985,"SoundDuration":69985,"Delta":365059162},{"NoteNumber":84,"Velocity":69,"Duration":69985,"SoundDuration":69985,"Delta":365059162},{"NoteNumber":80,"Velocity":73,"Duration":144299,"SoundDuration":144299,"Delta":365129147},{"NoteNumber":92,"Velocity":87,"Duration":144299,"SoundDuration":144299,"Delta":365129147},{"NoteNumber":46,"Velocity":54,"Duration":144299,"SoundDuration":144299,"Delta":365129147},{"NoteNumber":56,"Velocity":51,"Duration":144039,"SoundDuration":144039,"Delta":365273447},{"NoteNumber":60,"Velocity":51,"Duration":141176,"SoundDuration":141176,"Delta":365417487},{"NoteNumber":65,"Velocity":51,"Duration":141176,"SoundDuration":141176,"Delta":365558663},{"NoteNumber":60,"Velocity":51,"Duration":141176,"SoundDuration":141176,"Delta":365699840},{"NoteNumber":84,"Velocity":81,"Duration":145324,"SoundDuration":145324,"Delta":365841016},{"NoteNumber":75,"Velocity":69,"Duration":145324,"SoundDuration":145324,"Delta":365841016},{"NoteNumber":56,"Velocity":51,"Duration":145324,"SoundDuration":145324,"Delta":365841016},{"NoteNumber":74,"Velocity":65,"Duration":106373,"SoundDuration":106373,"Delta":365986341},{"NoteNumber":82,"Velocity":77,"Duration":106373,"SoundDuration":106373,"Delta":365986341},{"NoteNumber":46,"Velocity":58,"Duration":141685,"SoundDuration":141685,"Delta":365986341},{"NoteNumber":53,"Velocity":47,"Duration":140563,"SoundDuration":140563,"Delta":366128026},{"NoteNumber":80,"Velocity":60,"Duration":105349,"SoundDuration":105349,"Delta":366156246},{"NoteNumber":84,"Velocity":72,"Duration":105349,"SoundDuration":105349,"Delta":366156246},{"NoteNumber":56,"Velocity":48,"Duration":139855,"SoundDuration":139855,"Delta":366268590},{"NoteNumber":82,"Velocity":73,"Duration":105067,"SoundDuration":105067,"Delta":366324487},{"NoteNumber":74,"Velocity":61,"Duration":105067,"SoundDuration":105067,"Delta":366324487},{"NoteNumber":62,"Velocity":50,"Duration":141554,"SoundDuration":141554,"Delta":366408445},{"NoteNumber":81,"Velocity":74,"Duration":107848,"SoundDuration":107848,"Delta":366493051},{"NoteNumber":80,"Velocity":63,"Duration":107848,"SoundDuration":107848,"Delta":366493051},{"NoteNumber":56,"Velocity":51,"Duration":145426,"SoundDuration":145426,"Delta":366550000},{"NoteNumber":82,"Velocity":79,"Duration":99244,"SoundDuration":99244,"Delta":366666341},{"NoteNumber":74,"Velocity":67,"Duration":99244,"SoundDuration":99244,"Delta":366666341},{"NoteNumber":53,"Velocity":53,"Duration":140317,"SoundDuration":140317,"Delta":366695426},{"NoteNumber":82,"Velocity":69,"Duration":70158,"SoundDuration":70158,"Delta":366765585},{"NoteNumber":79,"Velocity":57,"Duration":70158,"SoundDuration":70158,"Delta":366765585},{"NoteNumber":79,"Velocity":73,"Duration":144299,"SoundDuration":144299,"Delta":366835744},{"NoteNumber":91,"Velocity":87,"Duration":144299,"SoundDuration":144299,"Delta":366835744},{"NoteNumber":46,"Velocity":54,"Duration":144299,"SoundDuration":144299,"Delta":366835744},{"NoteNumber":51,"Velocity":51,"Duration":144095,"SoundDuration":144095,"Delta":366980044},{"NoteNumber":55,"Velocity":51,"Duration":141843,"SoundDuration":141843,"Delta":367124139},{"NoteNumber":63,"Velocity":51,"Duration":141843,"SoundDuration":141843,"Delta":367265983},{"NoteNumber":55,"Velocity":51,"Duration":141843,"SoundDuration":141843,"Delta":367407827},{"NoteNumber":74,"Velocity":69,"Duration":145630,"SoundDuration":145630,"Delta":367549671},{"NoteNumber":82,"Velocity":81,"Duration":145630,"SoundDuration":145630,"Delta":367549671},{"NoteNumber":51,"Velocity":51,"Duration":145630,"SoundDuration":145630,"Delta":367549671},{"NoteNumber":72,"Velocity":65,"Duration":108225,"SoundDuration":108225,"Delta":367695302},{"NoteNumber":80,"Velocity":77,"Duration":108225,"SoundDuration":108225,"Delta":367695302},{"NoteNumber":46,"Velocity":58,"Duration":144299,"SoundDuration":144299,"Delta":367695302},{"NoteNumber":51,"Velocity":47,"Duration":144299,"SoundDuration":144299,"Delta":367839602},{"NoteNumber":75,"Velocity":60,"Duration":108225,"SoundDuration":108225,"Delta":367868462},{"NoteNumber":82,"Velocity":72,"Duration":108225,"SoundDuration":108225,"Delta":367868462},{"NoteNumber":56,"Velocity":48,"Duration":142830,"SoundDuration":142830,"Delta":367983902},{"NoteNumber":72,"Velocity":61,"Duration":107437,"SoundDuration":107437,"Delta":368041034},{"NoteNumber":80,"Velocity":73,"Duration":107437,"SoundDuration":107437,"Delta":368041034},{"NoteNumber":60,"Velocity":50,"Duration":144927,"SoundDuration":144927,"Delta":368126732},{"NoteNumber":75,"Velocity":63,"Duration":113526,"SoundDuration":113526,"Delta":368213689},{"NoteNumber":79,"Velocity":74,"Duration":113526,"SoundDuration":113526,"Delta":368213689},{"NoteNumber":56,"Velocity":51,"Duration":158729,"SoundDuration":158729,"Delta":368271660},{"NoteNumber":80,"Velocity":79,"Duration":102082,"SoundDuration":102082,"Delta":368398644},{"NoteNumber":72,"Velocity":67,"Duration":102082,"SoundDuration":102082,"Delta":368398644},{"NoteNumber":51,"Velocity":53,"Duration":140673,"SoundDuration":140673,"Delta":368430390},{"NoteNumber":77,"Velocity":57,"Duration":70336,"SoundDuration":70336,"Delta":368500727},{"NoteNumber":80,"Velocity":69,"Duration":70336,"SoundDuration":70336,"Delta":368500727},{"NoteNumber":89,"Velocity":87,"Duration":144299,"SoundDuration":144299,"Delta":368571063},{"NoteNumber":77,"Velocity":73,"Duration":144299,"SoundDuration":144299,"Delta":368571063},{"NoteNumber":46,"Velocity":54,"Duration":144299,"SoundDuration":144299,"Delta":368571063},{"NoteNumber":53,"Velocity":51,"Duration":144299,"SoundDuration":144299,"Delta":368715363},{"NoteNumber":56,"Velocity":51,"Duration":142517,"SoundDuration":142517,"Delta":368859663},{"NoteNumber":62,"Velocity":51,"Duration":142517,"SoundDuration":142517,"Delta":369002181},{"NoteNumber":80,"Velocity":78,"Duration":291602,"SoundDuration":291602,"Delta":369144699},{"NoteNumber":77,"Velocity":78,"Duration":291602,"SoundDuration":291602,"Delta":369144699},{"NoteNumber":56,"Velocity":51,"Duration":145801,"SoundDuration":145801,"Delta":369144699},{"NoteNumber":53,"Velocity":51,"Duration":145801,"SoundDuration":145801,"Delta":369290500},{"NoteNumber":79,"Velocity":78,"Duration":218701,"SoundDuration":218701,"Delta":369436301},{"NoteNumber":77,"Velocity":66,"Duration":218701,"SoundDuration":218701,"Delta":369436301},{"NoteNumber":47,"Velocity":54,"Duration":145801,"SoundDuration":145801,"Delta":369436301},{"NoteNumber":53,"Velocity":48,"Duration":145801,"SoundDuration":145801,"Delta":369582102},{"NoteNumber":82,"Velocity":71,"Duration":72900,"SoundDuration":72900,"Delta":369655003},{"NoteNumber":77,"Velocity":69,"Duration":432900,"SoundDuration":432900,"Delta":369727903},{"NoteNumber":80,"Velocity":81,"Duration":432900,"SoundDuration":432900,"Delta":369727903},{"NoteNumber":55,"Velocity":48,"Duration":144299,"SoundDuration":144299,"Delta":369727903},{"NoteNumber":62,"Velocity":48,"Duration":144299,"SoundDuration":144299,"Delta":369872203},{"NoteNumber":55,"Velocity":48,"Duration":144300,"SoundDuration":144300,"Delta":370016503},{"NoteNumber":79,"Velocity":75,"Duration":144299,"SoundDuration":144299,"Delta":370160803},{"NoteNumber":77,"Velocity":64,"Duration":144299,"SoundDuration":144299,"Delta":370160803},{"NoteNumber":53,"Velocity":48,"Duration":144299,"SoundDuration":144299,"Delta":370160803},{"NoteNumber":75,"Velocity":63,"Duration":276574,"SoundDuration":276574,"Delta":370305103},{"NoteNumber":79,"Velocity":74,"Duration":276574,"SoundDuration":276574,"Delta":370305103},{"NoteNumber":48,"Velocity":54,"Duration":144299,"SoundDuration":144299,"Delta":370305103},{"NoteNumber":51,"Velocity":46,"Duration":144299,"SoundDuration":144299,"Delta":370449403},{"NoteNumber":75,"Velocity":67,"Duration":279451,"SoundDuration":279451,"Delta":370593703},{"NoteNumber":80,"Velocity":79,"Duration":279451,"SoundDuration":279451,"Delta":370593703},{"NoteNumber":55,"Velocity":48,"Duration":145801,"SoundDuration":145801,"Delta":370593703},{"NoteNumber":63,"Velocity":51,"Duration":145801,"SoundDuration":145801,"Delta":370739504},{"NoteNumber":81,"Velocity":84,"Duration":279451,"SoundDuration":279451,"Delta":370885305},{"NoteNumber":75,"Velocity":71,"Duration":279451,"SoundDuration":279451,"Delta":370885305},{"NoteNumber":54,"Velocity":53,"Duration":145801,"SoundDuration":145801,"Delta":370885305},{"NoteNumber":51,"Velocity":49,"Duration":145801,"SoundDuration":145801,"Delta":371031106},{"NoteNumber":68,"Velocity":71,"Duration":900560,"SoundDuration":900560,"Delta":371176907},{"NoteNumber":70,"Velocity":71,"Duration":900560,"SoundDuration":900560,"Delta":371176907},{"NoteNumber":77,"Velocity":71,"Duration":900560,"SoundDuration":900560,"Delta":371176907},{"NoteNumber":82,"Velocity":84,"Duration":900560,"SoundDuration":900560,"Delta":371176907},{"NoteNumber":50,"Velocity":80,"Duration":160884,"SoundDuration":160884,"Delta":371176907},{"NoteNumber":56,"Velocity":55,"Duration":160884,"SoundDuration":160884,"Delta":371337791},{"NoteNumber":58,"Velocity":55,"Duration":145631,"SoundDuration":145631,"Delta":371498675},{"NoteNumber":65,"Velocity":55,"Duration":144579,"SoundDuration":144579,"Delta":371644307},{"NoteNumber":58,"Velocity":55,"Duration":143827,"SoundDuration":143827,"Delta":371788886},{"NoteNumber":56,"Velocity":55,"Duration":144753,"SoundDuration":144753,"Delta":371932714},{"NoteNumber":68,"Velocity":66,"Duration":579875,"SoundDuration":579875,"Delta":372077468},{"NoteNumber":70,"Velocity":66,"Duration":579875,"SoundDuration":579875,"Delta":372077468},{"NoteNumber":74,"Velocity":66,"Duration":579875,"SoundDuration":579875,"Delta":372077468},{"NoteNumber":79,"Velocity":66,"Duration":579875,"SoundDuration":579875,"Delta":372077468},{"NoteNumber":82,"Velocity":78,"Duration":579875,"SoundDuration":579875,"Delta":372077468},{"NoteNumber":46,"Velocity":66,"Duration":147202,"SoundDuration":147202,"Delta":372077468},{"NoteNumber":53,"Velocity":55,"Duration":147202,"SoundDuration":147202,"Delta":372224671},{"NoteNumber":58,"Velocity":55,"Duration":142735,"SoundDuration":142735,"Delta":372371874},{"NoteNumber":62,"Velocity":55,"Duration":142734,"SoundDuration":142734,"Delta":372514609},{"NoteNumber":68,"Velocity":61,"Duration":288850,"SoundDuration":288850,"Delta":372657344},{"NoteNumber":79,"Velocity":61,"Duration":288850,"SoundDuration":288850,"Delta":372657344},{"NoteNumber":82,"Velocity":73,"Duration":288850,"SoundDuration":288850,"Delta":372657344},{"NoteNumber":70,"Velocity":61,"Duration":288850,"SoundDuration":288850,"Delta":372657344},{"NoteNumber":74,"Velocity":61,"Duration":288850,"SoundDuration":288850,"Delta":372657344},{"NoteNumber":58,"Velocity":55,"Duration":144425,"SoundDuration":144425,"Delta":372657344},{"NoteNumber":53,"Velocity":55,"Duration":144425,"SoundDuration":144425,"Delta":372801769},{"NoteNumber":67,"Velocity":65,"Duration":288849,"SoundDuration":288849,"Delta":372946194},{"NoteNumber":75,"Velocity":76,"Duration":288849,"SoundDuration":288849,"Delta":372946194},{"NoteNumber":39,"Velocity":60,"Duration":144424,"SoundDuration":144424,"Delta":372946194},{"NoteNumber":46,"Velocity":54,"Duration":144425,"SoundDuration":144425,"Delta":373090619},{"NoteNumber":51,"Velocity":54,"Duration":145046,"SoundDuration":145046,"Delta":373235044},{"NoteNumber":55,"Velocity":54,"Duration":145046,"SoundDuration":145046,"Delta":373380090},{"NoteNumber":58,"Velocity":54,"Duration":143926,"SoundDuration":143926,"Delta":373525137},{"NoteNumber":63,"Velocity":53,"Duration":143926,"SoundDuration":143926,"Delta":373669063},{"NoteNumber":79,"Velocity":72,"Duration":570586,"SoundDuration":570586,"Delta":373812990},{"NoteNumber":87,"Velocity":86,"Duration":570586,"SoundDuration":570586,"Delta":373812990},{"NoteNumber":75,"Velocity":72,"Duration":570586,"SoundDuration":570586,"Delta":373812990},{"NoteNumber":67,"Velocity":60,"Duration":142463,"SoundDuration":142463,"Delta":373812990},{"NoteNumber":63,"Velocity":53,"Duration":142463,"SoundDuration":142463,"Delta":373955453},{"NoteNumber":58,"Velocity":53,"Duration":142830,"SoundDuration":142830,"Delta":374097917},{"NoteNumber":55,"Velocity":53,"Duration":142830,"SoundDuration":142830,"Delta":374240747},{"NoteNumber":86,"Velocity":80,"Duration":290093,"SoundDuration":290093,"Delta":374383577},{"NoteNumber":82,"Velocity":67,"Duration":290093,"SoundDuration":290093,"Delta":374383577},{"NoteNumber":75,"Velocity":67,"Duration":290093,"SoundDuration":290093,"Delta":374383577},{"NoteNumber":51,"Velocity":53,"Duration":145046,"SoundDuration":145046,"Delta":374383577},{"NoteNumber":46,"Velocity":53,"Duration":145046,"SoundDuration":145046,"Delta":374528623},{"NoteNumber":82,"Velocity":71,"Duration":854838,"SoundDuration":854838,"Delta":374673670},{"NoteNumber":75,"Velocity":71,"Duration":854838,"SoundDuration":854838,"Delta":374673670},{"NoteNumber":84,"Velocity":85,"Duration":854838,"SoundDuration":854838,"Delta":374673670},{"NoteNumber":41,"Velocity":60,"Duration":142830,"SoundDuration":142830,"Delta":374673670},{"NoteNumber":48,"Velocity":52,"Duration":142830,"SoundDuration":142830,"Delta":374816500},{"NoteNumber":51,"Velocity":52,"Duration":142294,"SoundDuration":142294,"Delta":374959330},{"NoteNumber":58,"Velocity":53,"Duration":142294,"SoundDuration":142294,"Delta":375101624},{"NoteNumber":51,"Velocity":53,"Duration":142294,"SoundDuration":142294,"Delta":375243919},{"NoteNumber":48,"Velocity":53,"Duration":142294,"SoundDuration":142294,"Delta":375386213},{"NoteNumber":86,"Velocity":87,"Duration":573188,"SoundDuration":573188,"Delta":375528508},{"NoteNumber":81,"Velocity":73,"Duration":573188,"SoundDuration":573188,"Delta":375528508},{"NoteNumber":77,"Velocity":73,"Duration":573188,"SoundDuration":573188,"Delta":375528508},{"NoteNumber":41,"Velocity":60,"Duration":144299,"SoundDuration":144299,"Delta":375528508},{"NoteNumber":48,"Velocity":53,"Duration":144299,"SoundDuration":144299,"Delta":375672808},{"NoteNumber":51,"Velocity":53,"Duration":142294,"SoundDuration":142294,"Delta":375817108},{"NoteNumber":57,"Velocity":54,"Duration":142294,"SoundDuration":142294,"Delta":375959402},{"NoteNumber":86,"Velocity":81,"Duration":294405,"SoundDuration":294405,"Delta":376101697},{"NoteNumber":81,"Velocity":69,"Duration":294405,"SoundDuration":294405,"Delta":376101697},{"NoteNumber":75,"Velocity":69,"Duration":294405,"SoundDuration":294405,"Delta":376101697},{"NoteNumber":51,"Velocity":54,"Duration":147202,"SoundDuration":147202,"Delta":376101697},{"NoteNumber":48,"Velocity":54,"Duration":147202,"SoundDuration":147202,"Delta":376248900},{"NoteNumber":74,"Velocity":65,"Duration":288599,"SoundDuration":288599,"Delta":376396103},{"NoteNumber":82,"Velocity":77,"Duration":288599,"SoundDuration":288599,"Delta":376396103},{"NoteNumber":34,"Velocity":59,"Duration":144299,"SoundDuration":144299,"Delta":376396103},{"NoteNumber":46,"Velocity":53,"Duration":144299,"SoundDuration":144299,"Delta":376540403},{"NoteNumber":53,"Velocity":55,"Duration":144300,"SoundDuration":144300,"Delta":376684703},{"NoteNumber":58,"Velocity":57,"Duration":144299,"SoundDuration":144299,"Delta":376829003},{"NoteNumber":62,"Velocity":58,"Duration":144299,"SoundDuration":144299,"Delta":376973303},{"NoteNumber":65,"Velocity":60,"Duration":144299,"SoundDuration":144299,"Delta":377117603},{"NoteNumber":82,"Velocity":78,"Duration":591134,"SoundDuration":591134,"Delta":377261903},{"NoteNumber":94,"Velocity":94,"Duration":591134,"SoundDuration":591134,"Delta":377261903},{"NoteNumber":74,"Velocity":61,"Duration":147783,"SoundDuration":147783,"Delta":377261903},{"NoteNumber":70,"Velocity":59,"Duration":147783,"SoundDuration":147783,"Delta":377409686},{"NoteNumber":65,"Velocity":57,"Duration":147783,"SoundDuration":147783,"Delta":377557470},{"NoteNumber":62,"Velocity":55,"Duration":147783,"SoundDuration":147783,"Delta":377705253},{"NoteNumber":58,"Velocity":53,"Duration":156657,"SoundDuration":156657,"Delta":377853037},{"NoteNumber":82,"Velocity":74,"Duration":150130,"SoundDuration":150130,"Delta":378009695},{"NoteNumber":94,"Velocity":88,"Duration":150130,"SoundDuration":150130,"Delta":378009695},{"NoteNumber":53,"Velocity":51,"Duration":156657,"SoundDuration":156657,"Delta":378009695},{"NoteNumber":82,"Velocity":78,"Duration":610687,"SoundDuration":610687,"Delta":378166353},{"NoteNumber":94,"Velocity":94,"Duration":610687,"SoundDuration":610687,"Delta":378166353},{"NoteNumber":46,"Velocity":57,"Duration":152671,"SoundDuration":152671,"Delta":378166353},{"NoteNumber":52,"Velocity":49,"Duration":152671,"SoundDuration":152671,"Delta":378319025},{"NoteNumber":55,"Velocity":49,"Duration":152671,"SoundDuration":152671,"Delta":378471697},{"NoteNumber":60,"Velocity":49,"Duration":152671,"SoundDuration":152671,"Delta":378624369},{"NoteNumber":55,"Velocity":49,"Duration":152671,"SoundDuration":152671,"Delta":378777041},{"NoteNumber":52,"Velocity":49,"Duration":152671,"SoundDuration":152671,"Delta":378929713},{"NoteNumber":60,"Velocity":65,"Duration":302889,"SoundDuration":302889,"Delta":379082385},{"NoteNumber":72,"Velocity":77,"Duration":604151,"SoundDuration":604151,"Delta":379082385},{"NoteNumber":46,"Velocity":47,"Duration":151934,"SoundDuration":151934,"Delta":379082385},{"NoteNumber":52,"Velocity":47,"Duration":150955,"SoundDuration":150955,"Delta":379234319},{"NoteNumber":55,"Velocity":53,"Duration":150326,"SoundDuration":150326,"Delta":379385274},{"NoteNumber":60,"Velocity":47,"Duration":150935,"SoundDuration":150935,"Delta":379535600},{"NoteNumber":62,"Velocity":61,"Duration":310753,"SoundDuration":310753,"Delta":379686536},{"NoteNumber":74,"Velocity":73,"Duration":310753,"SoundDuration":310753,"Delta":379686536},{"NoteNumber":55,"Velocity":47,"Duration":151602,"SoundDuration":151602,"Delta":379686536},{"NoteNumber":52,"Velocity":47,"Duration":159151,"SoundDuration":159151,"Delta":379838138},{"NoteNumber":63,"Velocity":57,"Duration":246259,"SoundDuration":246259,"Delta":379997289},{"NoteNumber":75,"Velocity":69,"Duration":63202,"SoundDuration":63202,"Delta":379997289},{"NoteNumber":46,"Velocity":55,"Duration":168539,"SoundDuration":168539,"Delta":379997289},{"NoteNumber":77,"Velocity":69,"Duration":63202,"SoundDuration":63202,"Delta":380060491},{"NoteNumber":75,"Velocity":69,"Duration":119855,"SoundDuration":119855,"Delta":380123693},{"NoteNumber":53,"Velocity":46,"Duration":155440,"SoundDuration":155440,"Delta":380165828},{"NoteNumber":62,"Velocity":53,"Duration":233160,"SoundDuration":233160,"Delta":380243548},{"NoteNumber":74,"Velocity":64,"Duration":233160,"SoundDuration":233160,"Delta":380243548},{"NoteNumber":57,"Velocity":46,"Duration":155440,"SoundDuration":155440,"Delta":380321269},{"NoteNumber":63,"Velocity":53,"Duration":233160,"SoundDuration":233160,"Delta":380476709},{"NoteNumber":75,"Velocity":64,"Duration":233160,"SoundDuration":233160,"Delta":380476709},{"NoteNumber":60,"Velocity":46,"Duration":155440,"SoundDuration":155440,"Delta":380476709},{"NoteNumber":57,"Velocity":47,"Duration":155440,"SoundDuration":155440,"Delta":380632150},{"NoteNumber":79,"Velocity":64,"Duration":240321,"SoundDuration":240321,"Delta":380709870},{"NoteNumber":67,"Velocity":53,"Duration":240321,"SoundDuration":240321,"Delta":380709870},{"NoteNumber":74,"Velocity":53,"Duration":240321,"SoundDuration":240321,"Delta":380709870},{"NoteNumber":53,"Velocity":47,"Duration":162601,"SoundDuration":162601,"Delta":380787590},{"NoteNumber":74,"Velocity":60,"Duration":693642,"SoundDuration":693642,"Delta":380950192},{"NoteNumber":68,"Velocity":66,"Duration":346820,"SoundDuration":346820,"Delta":380950192},{"NoteNumber":79,"Velocity":72,"Duration":836499,"SoundDuration":836499,"Delta":380950192},{"NoteNumber":46,"Velocity":52,"Duration":173410,"SoundDuration":173410,"Delta":380950192},{"NoteNumber":53,"Velocity":47,"Duration":173410,"SoundDuration":173410,"Delta":381123602},{"NoteNumber":70,"Velocity":66,"Duration":346821,"SoundDuration":346821,"Delta":381297013},{"NoteNumber":56,"Velocity":47,"Duration":173410,"SoundDuration":173410,"Delta":381297013},{"NoteNumber":62,"Velocity":47,"Duration":173410,"SoundDuration":173410,"Delta":381470423},{"NoteNumber":68,"Velocity":61,"Duration":430634,"SoundDuration":430634,"Delta":381643834},{"NoteNumber":56,"Velocity":47,"Duration":214285,"SoundDuration":214285,"Delta":381643834},{"NoteNumber":77,"Velocity":61,"Duration":142856,"SoundDuration":142856,"Delta":381786691},{"NoteNumber":53,"Velocity":47,"Duration":216348,"SoundDuration":216348,"Delta":381858119},{"NoteNumber":75,"Velocity":61,"Duration":124999,"SoundDuration":124999,"Delta":381929548},{"NoteNumber":67,"Velocity":68,"Duration":1385956,"SoundDuration":1385956,"Delta":382074468},{"NoteNumber":75,"Velocity":68,"Duration":1385956,"SoundDuration":1385956,"Delta":382074468},{"NoteNumber":39,"Velocity":57,"Duration":237706,"SoundDuration":237706,"Delta":382074468},{"NoteNumber":46,"Velocity":40,"Duration":234226,"SoundDuration":234226,"Delta":382312175},{"NoteNumber":51,"Velocity":48,"Duration":230336,"SoundDuration":230336,"Delta":382546401},{"NoteNumber":55,"Velocity":42,"Duration":225149,"SoundDuration":225149,"Delta":382776737},{"NoteNumber":51,"Velocity":54,"Duration":224746,"SoundDuration":224746,"Delta":383001887},{"NoteNumber":46,"Velocity":50,"Duration":233790,"SoundDuration":233790,"Delta":383226634},{"NoteNumber":39,"Velocity":55,"Duration":230769,"SoundDuration":230769,"Delta":383460424},{"NoteNumber":46,"Velocity":45,"Duration":229207,"SoundDuration":229207,"Delta":383691193},{"NoteNumber":51,"Velocity":45,"Duration":220052,"SoundDuration":220052,"Delta":383920401},{"NoteNumber":67,"Velocity":61,"Duration":145719,"SoundDuration":145719,"Delta":384067461},{"NoteNumber":58,"Velocity":45,"Duration":217132,"SoundDuration":217132,"Delta":384140453},{"NoteNumber":68,"Velocity":57,"Duration":144405,"SoundDuration":144405,"Delta":384213181},{"NoteNumber":70,"Velocity":63,"Duration":143369,"SoundDuration":143369,"Delta":384357586},{"NoteNumber":51,"Velocity":45,"Duration":215054,"SoundDuration":215054,"Delta":384357586},{"NoteNumber":74,"Velocity":68,"Duration":143369,"SoundDuration":143369,"Delta":384500955},{"NoteNumber":46,"Velocity":45,"Duration":236415,"SoundDuration":236415,"Delta":384572640},{"NoteNumber":72,"Velocity":63,"Duration":164731,"SoundDuration":164731,"Delta":384644325},{"NoteNumber":70,"Velocity":70,"Duration":1376894,"SoundDuration":1376894,"Delta":384809056},{"NoteNumber":39,"Velocity":50,"Duration":235297,"SoundDuration":235297,"Delta":384809056},{"NoteNumber":46,"Velocity":37,"Duration":232260,"SoundDuration":232260,"Delta":385044353},{"NoteNumber":51,"Velocity":51,"Duration":229306,"SoundDuration":229306,"Delta":385276613},{"NoteNumber":55,"Velocity":46,"Duration":224308,"SoundDuration":224308,"Delta":385505920},{"NoteNumber":51,"Velocity":55,"Duration":224037,"SoundDuration":224037,"Delta":385730228},{"NoteNumber":46,"Velocity":49,"Duration":231684,"SoundDuration":231684,"Delta":385954266},{"NoteNumber":39,"Velocity":50,"Duration":225564,"SoundDuration":225564,"Delta":386185950},{"NoteNumber":46,"Velocity":40,"Duration":224734,"SoundDuration":224734,"Delta":386411514},{"NoteNumber":51,"Velocity":40,"Duration":219380,"SoundDuration":219380,"Delta":386636249},{"NoteNumber":67,"Velocity":57,"Duration":145455,"SoundDuration":145455,"Delta":386782770},{"NoteNumber":58,"Velocity":40,"Duration":217130,"SoundDuration":217130,"Delta":386855630},{"NoteNumber":68,"Velocity":60,"Duration":144535,"SoundDuration":144535,"Delta":386928226},{"NoteNumber":70,"Velocity":65,"Duration":144404,"SoundDuration":144404,"Delta":387072761},{"NoteNumber":51,"Velocity":40,"Duration":216606,"SoundDuration":216606,"Delta":387072761},{"NoteNumber":74,"Velocity":68,"Duration":144404,"SoundDuration":144404,"Delta":387217165},{"NoteNumber":46,"Velocity":40,"Duration":236933,"SoundDuration":236933,"Delta":387289367},{"NoteNumber":72,"Velocity":61,"Duration":164731,"SoundDuration":164731,"Delta":387361569},{"NoteNumber":70,"Velocity":70,"Duration":1377425,"SoundDuration":1377425,"Delta":387526300},{"NoteNumber":39,"Velocity":54,"Duration":231659,"SoundDuration":231659,"Delta":387526300},{"NoteNumber":46,"Velocity":37,"Duration":231214,"SoundDuration":231214,"Delta":387757960},{"NoteNumber":50,"Velocity":47,"Duration":229009,"SoundDuration":229009,"Delta":387989175},{"NoteNumber":56,"Velocity":37,"Duration":226417,"SoundDuration":226417,"Delta":388218185},{"NoteNumber":50,"Velocity":50,"Duration":226852,"SoundDuration":226852,"Delta":388444602},{"NoteNumber":46,"Velocity":46,"Duration":232271,"SoundDuration":232271,"Delta":388671454},{"NoteNumber":39,"Velocity":47,"Duration":228609,"SoundDuration":228609,"Delta":388903726},{"NoteNumber":46,"Velocity":40,"Duration":227272,"SoundDuration":227272,"Delta":389132335},{"NoteNumber":50,"Velocity":40,"Duration":222224,"SoundDuration":222224,"Delta":389359608},{"NoteNumber":65,"Velocity":54,"Duration":147330,"SoundDuration":147330,"Delta":389508031},{"NoteNumber":58,"Velocity":40,"Duration":219782,"SoundDuration":219782,"Delta":389581832},{"NoteNumber":68,"Velocity":59,"Duration":146252,"SoundDuration":146252,"Delta":389655361},{"NoteNumber":70,"Velocity":64,"Duration":145669,"SoundDuration":145669,"Delta":389801614},{"NoteNumber":50,"Velocity":40,"Duration":218539,"SoundDuration":218539,"Delta":389801614},{"NoteNumber":74,"Velocity":68,"Duration":145740,"SoundDuration":145740,"Delta":389947283},{"NoteNumber":46,"Velocity":40,"Duration":237601,"SoundDuration":237601,"Delta":390020153},{"NoteNumber":72,"Velocity":63,"Duration":164731,"SoundDuration":164731,"Delta":390093024},{"NoteNumber":70,"Velocity":70,"Duration":459769,"SoundDuration":459769,"Delta":390257755},{"NoteNumber":39,"Velocity":54,"Duration":229885,"SoundDuration":229885,"Delta":390257755},{"NoteNumber":46,"Velocity":42,"Duration":229884,"SoundDuration":229884,"Delta":390487640},{"NoteNumber":51,"Velocity":49,"Duration":240000,"SoundDuration":240000,"Delta":390717525},{"NoteNumber":61,"Velocity":57,"Duration":470769,"SoundDuration":470769,"Delta":390877525},{"NoteNumber":55,"Velocity":42,"Duration":230769,"SoundDuration":230769,"Delta":390957525},{"NoteNumber":63,"Velocity":56,"Duration":153845,"SoundDuration":153845,"Delta":391034448},{"NoteNumber":67,"Velocity":60,"Duration":160000,"SoundDuration":160000,"Delta":391188294},{"NoteNumber":51,"Velocity":42,"Duration":240000,"SoundDuration":240000,"Delta":391188294},{"NoteNumber":72,"Velocity":65,"Duration":159999,"SoundDuration":159999,"Delta":391348294},{"NoteNumber":46,"Velocity":42,"Duration":240000,"SoundDuration":240000,"Delta":391428294},{"NoteNumber":70,"Velocity":59,"Duration":160000,"SoundDuration":160000,"Delta":391508294},{"NoteNumber":68,"Velocity":65,"Duration":687022,"SoundDuration":687022,"Delta":391668294},{"NoteNumber":39,"Velocity":46,"Duration":229007,"SoundDuration":229007,"Delta":391668294},{"NoteNumber":47,"Velocity":42,"Duration":229007,"SoundDuration":229007,"Delta":391897301},{"NoteNumber":51,"Velocity":42,"Duration":229007,"SoundDuration":229007,"Delta":392126309},{"NoteNumber":59,"Velocity":60,"Duration":449351,"SoundDuration":449351,"Delta":392355316},{"NoteNumber":56,"Velocity":42,"Duration":229007,"SoundDuration":229007,"Delta":392355316},{"NoteNumber":63,"Velocity":62,"Duration":220343,"SoundDuration":220343,"Delta":392584324},{"NoteNumber":51,"Velocity":42,"Duration":220343,"SoundDuration":220343,"Delta":392584324},{"NoteNumber":65,"Velocity":57,"Duration":237009,"SoundDuration":237009,"Delta":392804668},{"NoteNumber":47,"Velocity":42,"Duration":237009,"SoundDuration":237009,"Delta":392804668},{"NoteNumber":67,"Velocity":70,"Duration":474261,"SoundDuration":474261,"Delta":393041677},{"NoteNumber":39,"Velocity":54,"Duration":238809,"SoundDuration":238809,"Delta":393041677},{"NoteNumber":46,"Velocity":37,"Duration":235452,"SoundDuration":235452,"Delta":393280487},{"NoteNumber":51,"Velocity":44,"Duration":231375,"SoundDuration":231375,"Delta":393515939},{"NoteNumber":55,"Velocity":37,"Duration":225997,"SoundDuration":225997,"Delta":393747314},{"NoteNumber":51,"Velocity":44,"Duration":224029,"SoundDuration":224029,"Delta":393973312},{"NoteNumber":46,"Velocity":37,"Duration":231235,"SoundDuration":231235,"Delta":394197342},{"NoteNumber":39,"Velocity":47,"Duration":236220,"SoundDuration":236220,"Delta":394428577},{"NoteNumber":46,"Velocity":37,"Duration":235311,"SoundDuration":235311,"Delta":394664798},{"NoteNumber":51,"Velocity":37,"Duration":227713,"SoundDuration":227713,"Delta":394900110},{"NoteNumber":67,"Velocity":61,"Duration":150096,"SoundDuration":150096,"Delta":395052494},{"NoteNumber":58,"Velocity":37,"Duration":222643,"SoundDuration":222643,"Delta":395127823},{"NoteNumber":68,"Velocity":58,"Duration":147876,"SoundDuration":147876,"Delta":395202590},{"NoteNumber":70,"Velocity":64,"Duration":145740,"SoundDuration":145740,"Delta":395350467},{"NoteNumber":51,"Velocity":37,"Duration":218611,"SoundDuration":218611,"Delta":395350467},{"NoteNumber":74,"Velocity":68,"Duration":145740,"SoundDuration":145740,"Delta":395496207},{"NoteNumber":46,"Velocity":37,"Duration":237601,"SoundDuration":237601,"Delta":395569078},{"NoteNumber":72,"Velocity":58,"Duration":164731,"SoundDuration":164731,"Delta":395641948},{"NoteNumber":70,"Velocity":72,"Duration":129310,"SoundDuration":129310,"Delta":395806679},{"NoteNumber":39,"Velocity":54,"Duration":258620,"SoundDuration":258620,"Delta":395806679},{"NoteNumber":82,"Velocity":72,"Duration":129310,"SoundDuration":129310,"Delta":396065300},{"NoteNumber":46,"Velocity":37,"Duration":255363,"SoundDuration":255363,"Delta":396065300},{"NoteNumber":94,"Velocity":87,"Duration":238277,"SoundDuration":238277,"Delta":396320663},{"NoteNumber":51,"Velocity":44,"Duration":238277,"SoundDuration":238277,"Delta":396320663},{"NoteNumber":55,"Velocity":37,"Duration":230498,"SoundDuration":230498,"Delta":396558940},{"NoteNumber":51,"Velocity":44,"Duration":230336,"SoundDuration":230336,"Delta":396789439},{"NoteNumber":46,"Velocity":37,"Duration":235766,"SoundDuration":235766,"Delta":397019775},{"NoteNumber":39,"Velocity":41,"Duration":229007,"SoundDuration":229007,"Delta":397255542},{"NoteNumber":46,"Velocity":29,"Duration":229007,"SoundDuration":229007,"Delta":397484549},{"NoteNumber":51,"Velocity":29,"Duration":225853,"SoundDuration":225853,"Delta":397713557},{"NoteNumber":67,"Velocity":38,"Duration":149254,"SoundDuration":149254,"Delta":397864644},{"NoteNumber":58,"Velocity":29,"Duration":221820,"SoundDuration":221820,"Delta":397939411},{"NoteNumber":68,"Velocity":42,"Duration":147331,"SoundDuration":147331,"Delta":398013899},{"NoteNumber":70,"Velocity":46,"Duration":145935,"SoundDuration":145935,"Delta":398161231},{"NoteNumber":51,"Velocity":29,"Duration":218805,"SoundDuration":218805,"Delta":398161231},{"NoteNumber":74,"Velocity":50,"Duration":145740,"SoundDuration":145740,"Delta":398307166},{"NoteNumber":46,"Velocity":29,"Duration":237601,"SoundDuration":237601,"Delta":398380037},{"NoteNumber":72,"Velocity":45,"Duration":164731,"SoundDuration":164731,"Delta":398452907},{"NoteNumber":70,"Velocity":56,"Duration":129870,"SoundDuration":129870,"Delta":398617638},{"NoteNumber":39,"Velocity":43,"Duration":259740,"SoundDuration":259740,"Delta":398617638},{"NoteNumber":82,"Velocity":56,"Duration":129870,"SoundDuration":129870,"Delta":398877379},{"NoteNumber":46,"Velocity":29,"Duration":258175,"SoundDuration":258175,"Delta":398877379},{"NoteNumber":94,"Velocity":67,"Duration":237334,"SoundDuration":237334,"Delta":399135554},{"NoteNumber":50,"Velocity":35,"Duration":237334,"SoundDuration":237334,"Delta":399135554},{"NoteNumber":56,"Velocity":29,"Duration":229689,"SoundDuration":229689,"Delta":399372889},{"NoteNumber":50,"Velocity":35,"Duration":226430,"SoundDuration":226430,"Delta":399602578},{"NoteNumber":46,"Velocity":29,"Duration":233634,"SoundDuration":233634,"Delta":399829008},{"NoteNumber":39,"Velocity":37,"Duration":231096,"SoundDuration":231096,"Delta":400062643},{"NoteNumber":46,"Velocity":29,"Duration":229884,"SoundDuration":229884,"Delta":400293740},{"NoteNumber":50,"Velocity":29,"Duration":226276,"SoundDuration":226276,"Delta":400523625},{"NoteNumber":65,"Velocity":39,"Duration":149813,"SoundDuration":149813,"Delta":400674854},{"NoteNumber":58,"Velocity":29,"Duration":223053,"SoundDuration":223053,"Delta":400749901},{"NoteNumber":68,"Velocity":42,"Duration":148286,"SoundDuration":148286,"Delta":400824668},{"NoteNumber":70,"Velocity":45,"Duration":146205,"SoundDuration":146205,"Delta":400972954},{"NoteNumber":50,"Velocity":29,"Duration":219076,"SoundDuration":219076,"Delta":400972954},{"NoteNumber":74,"Velocity":48,"Duration":145740,"SoundDuration":145740,"Delta":401119160},{"NoteNumber":46,"Velocity":29,"Duration":237601,"SoundDuration":237601,"Delta":401192031},{"NoteNumber":72,"Velocity":45,"Duration":164731,"SoundDuration":164731,"Delta":401264901},{"NoteNumber":70,"Velocity":56,"Duration":619958,"SoundDuration":619958,"Delta":401429632},{"NoteNumber":39,"Velocity":43,"Duration":229007,"SoundDuration":229007,"Delta":401429632},{"NoteNumber":46,"Velocity":33,"Duration":229007,"SoundDuration":229007,"Delta":401658639},{"NoteNumber":51,"Velocity":33,"Duration":242914,"SoundDuration":242914,"Delta":401887647},{"NoteNumber":61,"Velocity":39,"Duration":474342,"SoundDuration":474342,"Delta":402049590},{"NoteNumber":55,"Velocity":33,"Duration":230769,"SoundDuration":230769,"Delta":402130562},{"NoteNumber":63,"Velocity":43,"Duration":153845,"SoundDuration":153845,"Delta":402207485},{"NoteNumber":67,"Velocity":46,"Duration":162601,"SoundDuration":162601,"Delta":402361331},{"NoteNumber":51,"Velocity":33,"Duration":243902,"SoundDuration":243902,"Delta":402361331},{"NoteNumber":72,"Velocity":50,"Duration":162601,"SoundDuration":162601,"Delta":402523933},{"NoteNumber":46,"Velocity":33,"Duration":243902,"SoundDuration":243902,"Delta":402605233},{"NoteNumber":70,"Velocity":46,"Duration":162601,"SoundDuration":162601,"Delta":402686534},{"NoteNumber":68,"Velocity":51,"Duration":692307,"SoundDuration":692307,"Delta":402849136},{"NoteNumber":39,"Velocity":38,"Duration":230769,"SoundDuration":230769,"Delta":402849136},{"NoteNumber":47,"Velocity":33,"Duration":230769,"SoundDuration":230769,"Delta":403079905},{"NoteNumber":51,"Velocity":33,"Duration":230769,"SoundDuration":230769,"Delta":403310674},{"NoteNumber":59,"Velocity":49,"Duration":455104,"SoundDuration":455104,"Delta":403541443},{"NoteNumber":56,"Velocity":33,"Duration":230768,"SoundDuration":230768,"Delta":403541443},{"NoteNumber":63,"Velocity":51,"Duration":224335,"SoundDuration":224335,"Delta":403772212},{"NoteNumber":51,"Velocity":33,"Duration":224335,"SoundDuration":224335,"Delta":403772212},{"NoteNumber":65,"Velocity":46,"Duration":239080,"SoundDuration":239080,"Delta":403996547},{"NoteNumber":47,"Velocity":33,"Duration":239080,"SoundDuration":239080,"Delta":403996547},{"NoteNumber":67,"Velocity":62,"Duration":1651641,"SoundDuration":1651641,"Delta":404235628},{"NoteNumber":39,"Velocity":43,"Duration":239043,"SoundDuration":239043,"Delta":404235628},{"NoteNumber":46,"Velocity":29,"Duration":239044,"SoundDuration":239044,"Delta":404474672},{"NoteNumber":51,"Velocity":35,"Duration":231659,"SoundDuration":231659,"Delta":404713716},{"NoteNumber":55,"Velocity":29,"Duration":231660,"SoundDuration":231660,"Delta":404945376},{"NoteNumber":51,"Velocity":35,"Duration":231659,"SoundDuration":231659,"Delta":405177036},{"NoteNumber":46,"Velocity":29,"Duration":231660,"SoundDuration":231660,"Delta":405408696},{"NoteNumber":39,"Velocity":41,"Duration":246913,"SoundDuration":246913,"Delta":405640356},{"NoteNumber":67,"Velocity":51,"Duration":246913,"SoundDuration":246913,"Delta":405887269},{"NoteNumber":46,"Velocity":33,"Duration":246913,"SoundDuration":246913,"Delta":405887269},{"NoteNumber":70,"Velocity":54,"Duration":246913,"SoundDuration":246913,"Delta":406134183},{"NoteNumber":51,"Velocity":33,"Duration":246913,"SoundDuration":246913,"Delta":406134183},{"NoteNumber":79,"Velocity":55,"Duration":246913,"SoundDuration":246913,"Delta":406381096},{"NoteNumber":58,"Velocity":33,"Duration":246913,"SoundDuration":246913,"Delta":406381096},{"NoteNumber":77,"Velocity":60,"Duration":235367,"SoundDuration":235367,"Delta":406628010},{"NoteNumber":51,"Velocity":33,"Duration":235367,"SoundDuration":235367,"Delta":406628010},{"NoteNumber":75,"Velocity":55,"Duration":255808,"SoundDuration":255808,"Delta":406863378},{"NoteNumber":46,"Velocity":33,"Duration":255808,"SoundDuration":255808,"Delta":406863378},{"NoteNumber":70,"Velocity":66,"Duration":1706637,"SoundDuration":1706637,"Delta":407119186},{"NoteNumber":39,"Velocity":45,"Duration":247933,"SoundDuration":247933,"Delta":407119186},{"NoteNumber":46,"Velocity":33,"Duration":247933,"SoundDuration":247933,"Delta":407367120},{"NoteNumber":51,"Velocity":35,"Duration":240964,"SoundDuration":240964,"Delta":407615054},{"NoteNumber":55,"Velocity":35,"Duration":240963,"SoundDuration":240963,"Delta":407856018},{"NoteNumber":51,"Velocity":35,"Duration":240964,"SoundDuration":240964,"Delta":408096982},{"NoteNumber":46,"Velocity":33,"Duration":240964,"SoundDuration":240964,"Delta":408337946},{"NoteNumber":39,"Velocity":41,"Duration":246913,"SoundDuration":246913,"Delta":408578910},{"NoteNumber":67,"Velocity":51,"Duration":246913,"SoundDuration":246913,"Delta":408825823},{"NoteNumber":46,"Velocity":33,"Duration":246913,"SoundDuration":246913,"Delta":408825823},{"NoteNumber":70,"Velocity":54,"Duration":246913,"SoundDuration":246913,"Delta":409072737},{"NoteNumber":51,"Velocity":33,"Duration":246913,"SoundDuration":246913,"Delta":409072737},{"NoteNumber":79,"Velocity":55,"Duration":246913,"SoundDuration":246913,"Delta":409319650},{"NoteNumber":58,"Velocity":33,"Duration":246913,"SoundDuration":246913,"Delta":409319650},{"NoteNumber":77,"Velocity":60,"Duration":235367,"SoundDuration":235367,"Delta":409566564},{"NoteNumber":51,"Velocity":26,"Duration":235367,"SoundDuration":235367,"Delta":409566564},{"NoteNumber":75,"Velocity":55,"Duration":255807,"SoundDuration":255807,"Delta":409801932},{"NoteNumber":46,"Velocity":25,"Duration":255807,"SoundDuration":255807,"Delta":409801932},{"NoteNumber":74,"Velocity":66,"Duration":1775564,"SoundDuration":1775564,"Delta":410057740},{"NoteNumber":43,"Velocity":48,"Duration":266028,"SoundDuration":266028,"Delta":410057740},{"NoteNumber":50,"Velocity":33,"Duration":266028,"SoundDuration":266028,"Delta":410323768},{"NoteNumber":55,"Velocity":31,"Duration":247586,"SoundDuration":247586,"Delta":410589796},{"NoteNumber":58,"Velocity":34,"Duration":247586,"SoundDuration":247586,"Delta":410837382},{"NoteNumber":62,"Velocity":37,"Duration":247585,"SoundDuration":247585,"Delta":411084968},{"NoteNumber":58,"Velocity":40,"Duration":247586,"SoundDuration":247586,"Delta":411332554},{"NoteNumber":67,"Velocity":45,"Duration":253164,"SoundDuration":253164,"Delta":411580140},{"NoteNumber":70,"Velocity":51,"Duration":253164,"SoundDuration":253164,"Delta":411833304},{"NoteNumber":62,"Velocity":40,"Duration":253164,"SoundDuration":253164,"Delta":411833304},{"NoteNumber":74,"Velocity":54,"Duration":253164,"SoundDuration":253164,"Delta":412086469},{"NoteNumber":58,"Velocity":39,"Duration":253164,"SoundDuration":253164,"Delta":412086469},{"NoteNumber":82,"Velocity":55,"Duration":253164,"SoundDuration":253164,"Delta":412339633},{"NoteNumber":55,"Velocity":38,"Duration":253164,"SoundDuration":253164,"Delta":412339633},{"NoteNumber":81,"Velocity":60,"Duration":243902,"SoundDuration":243902,"Delta":412592798},{"NoteNumber":50,"Velocity":37,"Duration":243902,"SoundDuration":243902,"Delta":412592798},{"NoteNumber":79,"Velocity":55,"Duration":258652,"SoundDuration":258652,"Delta":412836700},{"NoteNumber":43,"Velocity":35,"Duration":258652,"SoundDuration":258652,"Delta":412836700},{"NoteNumber":74,"Velocity":69,"Duration":1775564,"SoundDuration":1775564,"Delta":413095353},{"NoteNumber":31,"Velocity":42,"Duration":266028,"SoundDuration":266028,"Delta":413095353},{"NoteNumber":43,"Velocity":32,"Duration":266028,"SoundDuration":266028,"Delta":413361381},{"NoteNumber":50,"Velocity":34,"Duration":247586,"SoundDuration":247586,"Delta":413627409},{"NoteNumber":55,"Velocity":37,"Duration":247586,"SoundDuration":247586,"Delta":413874995},{"NoteNumber":58,"Velocity":39,"Duration":247585,"SoundDuration":247585,"Delta":414122581},{"NoteNumber":62,"Velocity":41,"Duration":247586,"SoundDuration":247586,"Delta":414370167},{"NoteNumber":70,"Velocity":42,"Duration":253164,"SoundDuration":253164,"Delta":414617753},{"NoteNumber":70,"Velocity":51,"Duration":253164,"SoundDuration":253164,"Delta":414870917},{"NoteNumber":67,"Velocity":41,"Duration":253164,"SoundDuration":253164,"Delta":414870917},{"NoteNumber":74,"Velocity":54,"Duration":253164,"SoundDuration":253164,"Delta":415124082},{"NoteNumber":62,"Velocity":39,"Duration":253164,"SoundDuration":253164,"Delta":415124082},{"NoteNumber":82,"Velocity":55,"Duration":253164,"SoundDuration":253164,"Delta":415377246},{"NoteNumber":58,"Velocity":38,"Duration":253164,"SoundDuration":253164,"Delta":415377246},{"NoteNumber":81,"Velocity":60,"Duration":246913,"SoundDuration":246913,"Delta":415630411},{"NoteNumber":55,"Velocity":36,"Duration":246913,"SoundDuration":246913,"Delta":415630411},{"NoteNumber":79,"Velocity":55,"Duration":259656,"SoundDuration":259656,"Delta":415877324},{"NoteNumber":50,"Velocity":35,"Duration":259656,"SoundDuration":259656,"Delta":415877324},{"NoteNumber":74,"Velocity":59,"Duration":267856,"SoundDuration":267856,"Delta":416136981},{"NoteNumber":43,"Velocity":37,"Duration":267856,"SoundDuration":267856,"Delta":416136981},{"NoteNumber":70,"Velocity":55,"Duration":267856,"SoundDuration":267856,"Delta":416404838},{"NoteNumber":50,"Velocity":33,"Duration":267856,"SoundDuration":267856,"Delta":416404838},{"NoteNumber":74,"Velocity":54,"Duration":264317,"SoundDuration":264317,"Delta":416672695},{"NoteNumber":62,"Velocity":33,"Duration":528634,"SoundDuration":528634,"Delta":416672695},{"NoteNumber":82,"Velocity":53,"Duration":264317,"SoundDuration":264317,"Delta":416937012},{"NoteNumber":81,"Velocity":56,"Duration":264317,"SoundDuration":264317,"Delta":417201329},{"NoteNumber":79,"Velocity":51,"Duration":264317,"SoundDuration":264317,"Delta":417465646},{"NoteNumber":74,"Velocity":56,"Duration":264317,"SoundDuration":264317,"Delta":417729963},{"NoteNumber":70,"Velocity":51,"Duration":264316,"SoundDuration":264316,"Delta":417994280},{"NoteNumber":74,"Velocity":51,"Duration":264317,"SoundDuration":264317,"Delta":418258597},{"NoteNumber":82,"Velocity":54,"Duration":264317,"SoundDuration":264317,"Delta":418522914},{"NoteNumber":81,"Velocity":50,"Duration":264317,"SoundDuration":264317,"Delta":418787231},{"NoteNumber":79,"Velocity":49,"Duration":264317,"SoundDuration":264317,"Delta":419051548},{"NoteNumber":74,"Velocity":48,"Duration":276497,"SoundDuration":276497,"Delta":419315865},{"NoteNumber":81,"Velocity":45,"Duration":276497,"SoundDuration":276497,"Delta":419592362},{"NoteNumber":84,"Velocity":52,"Duration":270903,"SoundDuration":270903,"Delta":419868860},{"NoteNumber":82,"Velocity":47,"Duration":275233,"SoundDuration":275233,"Delta":420139763},{"NoteNumber":79,"Velocity":50,"Duration":278641,"SoundDuration":278641,"Delta":420414997},{"NoteNumber":75,"Velocity":46,"Duration":282358,"SoundDuration":282358,"Delta":420693638},{"NoteNumber":70,"Velocity":45,"Duration":285718,"SoundDuration":285718,"Delta":420975997},{"NoteNumber":67,"Velocity":45,"Duration":289859,"SoundDuration":289859,"Delta":421261715},{"NoteNumber":60,"Velocity":43,"Duration":293641,"SoundDuration":293641,"Delta":421551575},{"NoteNumber":62,"Velocity":42,"Duration":297773,"SoundDuration":297773,"Delta":421845216},{"NoteNumber":65,"Velocity":41,"Duration":301512,"SoundDuration":301512,"Delta":422142990},{"NoteNumber":63,"Velocity":39,"Duration":306127,"SoundDuration":306127,"Delta":422444503},{"NoteNumber":50,"Velocity":28,"Duration":1800000,"SoundDuration":1800000,"Delta":422750630},{"NoteNumber":38,"Velocity":25,"Duration":593750,"SoundDuration":593750,"Delta":423350630},{"NoteNumber":38,"Velocity":25,"Duration":593750,"SoundDuration":593750,"Delta":423950630},{"NoteNumber":60,"Velocity":38,"Duration":1401244,"SoundDuration":1401244,"Delta":424865723},{"NoteNumber":62,"Velocity":37,"Duration":1086151,"SoundDuration":1086151,"Delta":425180816},{"NoteNumber":38,"Velocity":39,"Duration":550277,"SoundDuration":550277,"Delta":425180816},{"NoteNumber":66,"Velocity":37,"Duration":278034,"SoundDuration":278034,"Delta":425458851},{"NoteNumber":70,"Velocity":41,"Duration":265040,"SoundDuration":265040,"Delta":425736886},{"NoteNumber":38,"Velocity":39,"Duration":524560,"SoundDuration":524560,"Delta":425736886},{"NoteNumber":69,"Velocity":39,"Duration":265040,"SoundDuration":265040,"Delta":426001927},{"NoteNumber":67,"Velocity":37,"Duration":1527244,"SoundDuration":1527244,"Delta":426266968},{"NoteNumber":62,"Velocity":28,"Duration":488080,"SoundDuration":488080,"Delta":426773383},{"NoteNumber":58,"Velocity":23,"Duration":488080,"SoundDuration":488080,"Delta":426773383},{"NoteNumber":38,"Velocity":22,"Duration":488080,"SoundDuration":488080,"Delta":426773383},{"NoteNumber":58,"Velocity":23,"Duration":522116,"SoundDuration":522116,"Delta":427266601},{"NoteNumber":62,"Velocity":28,"Duration":522116,"SoundDuration":522116,"Delta":427266601},{"NoteNumber":38,"Velocity":22,"Duration":522116,"SoundDuration":522116,"Delta":427266601},{"NoteNumber":74,"Velocity":41,"Duration":1528816,"SoundDuration":1528816,"Delta":427794213},{"NoteNumber":62,"Velocity":34,"Duration":1528816,"SoundDuration":1528816,"Delta":427794213},{"NoteNumber":67,"Velocity":28,"Duration":496695,"SoundDuration":496695,"Delta":428291725},{"NoteNumber":50,"Velocity":21,"Duration":496695,"SoundDuration":496695,"Delta":428291725},{"NoteNumber":55,"Velocity":21,"Duration":496695,"SoundDuration":496695,"Delta":428291725},{"NoteNumber":67,"Velocity":28,"Duration":523866,"SoundDuration":523866,"Delta":428793649},{"NoteNumber":55,"Velocity":21,"Duration":523866,"SoundDuration":523866,"Delta":428793649},{"NoteNumber":50,"Velocity":21,"Duration":523866,"SoundDuration":523866,"Delta":428793649},{"NoteNumber":72,"Velocity":39,"Duration":1701042,"SoundDuration":1701042,"Delta":429323030},{"NoteNumber":60,"Velocity":34,"Duration":1701042,"SoundDuration":1701042,"Delta":429323030},{"NoteNumber":67,"Velocity":28,"Duration":579494,"SoundDuration":579494,"Delta":429880754},{"NoteNumber":63,"Velocity":23,"Duration":579494,"SoundDuration":579494,"Delta":429880754},{"NoteNumber":55,"Velocity":22,"Duration":579494,"SoundDuration":579494,"Delta":429880754},{"NoteNumber":50,"Velocity":22,"Duration":579494,"SoundDuration":579494,"Delta":429880754},{"NoteNumber":67,"Velocity":28,"Duration":551914,"SoundDuration":551914,"Delta":430466348},{"NoteNumber":63,"Velocity":23,"Duration":551914,"SoundDuration":551914,"Delta":430466348},{"NoteNumber":50,"Velocity":22,"Duration":551914,"SoundDuration":551914,"Delta":430466348},{"NoteNumber":55,"Velocity":22,"Duration":551914,"SoundDuration":551914,"Delta":430466348},{"NoteNumber":60,"Velocity":40,"Duration":1341713,"SoundDuration":1341713,"Delta":431298070},{"NoteNumber":62,"Velocity":37,"Duration":1067716,"SoundDuration":1067716,"Delta":431572067},{"NoteNumber":38,"Velocity":39,"Duration":532033,"SoundDuration":532033,"Delta":431572067},{"NoteNumber":66,"Velocity":37,"Duration":268817,"SoundDuration":268817,"Delta":431840884},{"NoteNumber":70,"Velocity":41,"Duration":265040,"SoundDuration":265040,"Delta":432109701},{"NoteNumber":38,"Velocity":39,"Duration":524560,"SoundDuration":524560,"Delta":432109701},{"NoteNumber":69,"Velocity":39,"Duration":265040,"SoundDuration":265040,"Delta":432374742},{"NoteNumber":67,"Velocity":37,"Duration":1516278,"SoundDuration":1516278,"Delta":432639783},{"NoteNumber":62,"Velocity":28,"Duration":483864,"SoundDuration":483864,"Delta":433139492},{"NoteNumber":58,"Velocity":23,"Duration":483864,"SoundDuration":483864,"Delta":433139492},{"NoteNumber":38,"Velocity":22,"Duration":483864,"SoundDuration":483864,"Delta":433139492},{"NoteNumber":58,"Velocity":23,"Duration":522116,"SoundDuration":522116,"Delta":433628450},{"NoteNumber":62,"Velocity":28,"Duration":522116,"SoundDuration":522116,"Delta":433628450},{"NoteNumber":38,"Velocity":22,"Duration":522116,"SoundDuration":522116,"Delta":433628450},{"NoteNumber":64,"Velocity":37,"Duration":1534648,"SoundDuration":1534648,"Delta":434156062},{"NoteNumber":57,"Velocity":23,"Duration":499860,"SoundDuration":499860,"Delta":434657986},{"NoteNumber":55,"Velocity":23,"Duration":499860,"SoundDuration":499860,"Delta":434657986},{"NoteNumber":61,"Velocity":28,"Duration":499860,"SoundDuration":499860,"Delta":434657986},{"NoteNumber":38,"Velocity":21,"Duration":499860,"SoundDuration":499860,"Delta":434657986},{"NoteNumber":57,"Velocity":23,"Duration":522116,"SoundDuration":522116,"Delta":435163099},{"NoteNumber":61,"Velocity":28,"Duration":522116,"SoundDuration":522116,"Delta":435163099},{"NoteNumber":55,"Velocity":23,"Duration":522116,"SoundDuration":522116,"Delta":435163099},{"NoteNumber":38,"Velocity":21,"Duration":522116,"SoundDuration":522116,"Delta":435163099},{"NoteNumber":66,"Velocity":37,"Duration":1596963,"SoundDuration":1596963,"Delta":435690711},{"NoteNumber":62,"Velocity":23,"Duration":521114,"SoundDuration":521114,"Delta":436233452},{"NoteNumber":57,"Velocity":19,"Duration":521114,"SoundDuration":521114,"Delta":436233452},{"NoteNumber":54,"Velocity":19,"Duration":521114,"SoundDuration":521114,"Delta":436233452},{"NoteNumber":38,"Velocity":16,"Duration":521114,"SoundDuration":521114,"Delta":436233452},{"NoteNumber":54,"Velocity":19,"Duration":522116,"SoundDuration":522116,"Delta":436760062},{"NoteNumber":57,"Velocity":19,"Duration":522116,"SoundDuration":522116,"Delta":436760062},{"NoteNumber":62,"Velocity":23,"Duration":522116,"SoundDuration":522116,"Delta":436760062},{"NoteNumber":38,"Velocity":16,"Duration":522116,"SoundDuration":522116,"Delta":436760062},{"NoteNumber":60,"Velocity":40,"Duration":1341713,"SoundDuration":1341713,"Delta":437561672},{"NoteNumber":62,"Velocity":37,"Duration":1067716,"SoundDuration":1067716,"Delta":437835669},{"NoteNumber":38,"Velocity":39,"Duration":532033,"SoundDuration":532033,"Delta":437835669},{"NoteNumber":66,"Velocity":37,"Duration":268817,"SoundDuration":268817,"Delta":438104486},{"NoteNumber":70,"Velocity":41,"Duration":265040,"SoundDuration":265040,"Delta":438373303},{"NoteNumber":38,"Velocity":39,"Duration":524560,"SoundDuration":524560,"Delta":438373303},{"NoteNumber":69,"Velocity":39,"Duration":265040,"SoundDuration":265040,"Delta":438638344},{"NoteNumber":67,"Velocity":37,"Duration":1540720,"SoundDuration":1540720,"Delta":438903385},{"NoteNumber":58,"Velocity":23,"Duration":492329,"SoundDuration":492329,"Delta":439418982},{"NoteNumber":62,"Velocity":28,"Duration":492329,"SoundDuration":492329,"Delta":439418982},{"NoteNumber":38,"Velocity":22,"Duration":492329,"SoundDuration":492329,"Delta":439418982},{"NoteNumber":58,"Velocity":23,"Duration":522116,"SoundDuration":522116,"Delta":439916494},{"NoteNumber":62,"Velocity":28,"Duration":522116,"SoundDuration":522116,"Delta":439916494},{"NoteNumber":38,"Velocity":22,"Duration":522116,"SoundDuration":522116,"Delta":439916494},{"NoteNumber":74,"Velocity":58,"Duration":1460460,"SoundDuration":1460460,"Delta":440444106},{"NoteNumber":62,"Velocity":43,"Duration":1460460,"SoundDuration":1460460,"Delta":440444106},{"NoteNumber":67,"Velocity":29,"Duration":454563,"SoundDuration":454563,"Delta":440927977},{"NoteNumber":70,"Velocity":36,"Duration":454563,"SoundDuration":454563,"Delta":440927977},{"NoteNumber":55,"Velocity":21,"Duration":454563,"SoundDuration":454563,"Delta":440927977},{"NoteNumber":58,"Velocity":27,"Duration":454563,"SoundDuration":454563,"Delta":440927977},{"NoteNumber":50,"Velocity":21,"Duration":454563,"SoundDuration":454563,"Delta":440927977},{"NoteNumber":67,"Velocity":29,"Duration":511853,"SoundDuration":511853,"Delta":441387325},{"NoteNumber":70,"Velocity":36,"Duration":511853,"SoundDuration":511853,"Delta":441387325},{"NoteNumber":58,"Velocity":27,"Duration":511853,"SoundDuration":511853,"Delta":441387325},{"NoteNumber":55,"Velocity":21,"Duration":511853,"SoundDuration":511853,"Delta":441387325},{"NoteNumber":50,"Velocity":21,"Duration":511853,"SoundDuration":511853,"Delta":441387325},{"NoteNumber":76,"Velocity":59,"Duration":1479846,"SoundDuration":1479846,"Delta":441904566},{"NoteNumber":64,"Velocity":45,"Duration":1479846,"SoundDuration":1479846,"Delta":441904566},{"NoteNumber":67,"Velocity":29,"Duration":470707,"SoundDuration":470707,"Delta":442406658},{"NoteNumber":70,"Velocity":36,"Duration":470707,"SoundDuration":470707,"Delta":442406658},{"NoteNumber":58,"Velocity":27,"Duration":470707,"SoundDuration":470707,"Delta":442406658},{"NoteNumber":50,"Velocity":21,"Duration":470707,"SoundDuration":470707,"Delta":442406658},{"NoteNumber":55,"Velocity":21,"Duration":470707,"SoundDuration":470707,"Delta":442406658},{"NoteNumber":67,"Velocity":29,"Duration":496861,"SoundDuration":496861,"Delta":442882320},{"NoteNumber":70,"Velocity":36,"Duration":496861,"SoundDuration":496861,"Delta":442882320},{"NoteNumber":55,"Velocity":21,"Duration":496861,"SoundDuration":496861,"Delta":442882320},{"NoteNumber":50,"Velocity":21,"Duration":496861,"SoundDuration":496861,"Delta":442882320},{"NoteNumber":58,"Velocity":27,"Duration":496861,"SoundDuration":496861,"Delta":442882320},{"NoteNumber":58,"Velocity":40,"Duration":1299043,"SoundDuration":1299043,"Delta":443651079},{"NoteNumber":61,"Velocity":37,"Duration":1032376,"SoundDuration":1032376,"Delta":443917745},{"NoteNumber":38,"Velocity":39,"Duration":516304,"SoundDuration":516304,"Delta":443917745},{"NoteNumber":64,"Velocity":37,"Duration":260869,"SoundDuration":260869,"Delta":444178615},{"NoteNumber":69,"Velocity":41,"Duration":255318,"SoundDuration":255318,"Delta":444439484},{"NoteNumber":38,"Velocity":39,"Duration":505318,"SoundDuration":505318,"Delta":444439484},{"NoteNumber":67,"Velocity":39,"Duration":255318,"SoundDuration":255318,"Delta":444694803},{"NoteNumber":67,"Velocity":37,"Duration":1533005,"SoundDuration":1533005,"Delta":444950122},{"NoteNumber":61,"Velocity":27,"Duration":484693,"SoundDuration":484693,"Delta":445465719},{"NoteNumber":58,"Velocity":27,"Duration":484693,"SoundDuration":484693,"Delta":445465719},{"NoteNumber":64,"Velocity":33,"Duration":484693,"SoundDuration":484693,"Delta":445465719},{"NoteNumber":38,"Velocity":26,"Duration":484693,"SoundDuration":484693,"Delta":445465719},{"NoteNumber":58,"Velocity":27,"Duration":522116,"SoundDuration":522116,"Delta":445955515},{"NoteNumber":64,"Velocity":33,"Duration":522116,"SoundDuration":522116,"Delta":445955515},{"NoteNumber":61,"Velocity":27,"Duration":522116,"SoundDuration":522116,"Delta":445955515},{"NoteNumber":38,"Velocity":26,"Duration":522116,"SoundDuration":522116,"Delta":445955515},{"NoteNumber":76,"Velocity":62,"Duration":1462446,"SoundDuration":1462446,"Delta":446483127},{"NoteNumber":64,"Velocity":48,"Duration":1462446,"SoundDuration":1462446,"Delta":446483127},{"NoteNumber":73,"Velocity":39,"Duration":454563,"SoundDuration":454563,"Delta":446972923},{"NoteNumber":70,"Velocity":32,"Duration":454563,"SoundDuration":454563,"Delta":446972923},{"NoteNumber":67,"Velocity":32,"Duration":454563,"SoundDuration":454563,"Delta":446972923},{"NoteNumber":58,"Velocity":29,"Duration":454563,"SoundDuration":454563,"Delta":446972923},{"NoteNumber":55,"Velocity":24,"Duration":454563,"SoundDuration":454563,"Delta":446972923},{"NoteNumber":50,"Velocity":24,"Duration":454563,"SoundDuration":454563,"Delta":446972923},{"NoteNumber":73,"Velocity":41,"Duration":507956,"SoundDuration":507956,"Delta":447432271},{"NoteNumber":70,"Velocity":32,"Duration":507956,"SoundDuration":507956,"Delta":447432271},{"NoteNumber":67,"Velocity":32,"Duration":507956,"SoundDuration":507956,"Delta":447432271},{"NoteNumber":55,"Velocity":24,"Duration":507956,"SoundDuration":507956,"Delta":447432271},{"NoteNumber":50,"Velocity":24,"Duration":507956,"SoundDuration":507956,"Delta":447432271},{"NoteNumber":58,"Velocity":29,"Duration":507956,"SoundDuration":507956,"Delta":447432271},{"NoteNumber":78,"Velocity":64,"Duration":1433681,"SoundDuration":1433681,"Delta":447945574},{"NoteNumber":66,"Velocity":52,"Duration":1433681,"SoundDuration":1433681,"Delta":447945574},{"NoteNumber":67,"Velocity":35,"Duration":452906,"SoundDuration":452906,"Delta":448443499},{"NoteNumber":70,"Velocity":35,"Duration":452906,"SoundDuration":452906,"Delta":448443499},{"NoteNumber":73,"Velocity":41,"Duration":452906,"SoundDuration":452906,"Delta":448443499},{"NoteNumber":58,"Velocity":32,"Duration":452906,"SoundDuration":452906,"Delta":448443499},{"NoteNumber":50,"Velocity":24,"Duration":452906,"SoundDuration":452906,"Delta":448443499},{"NoteNumber":55,"Velocity":24,"Duration":452906,"SoundDuration":452906,"Delta":448443499},{"NoteNumber":67,"Velocity":35,"Duration":473107,"SoundDuration":473107,"Delta":448901167},{"NoteNumber":70,"Velocity":35,"Duration":473107,"SoundDuration":473107,"Delta":448901167},{"NoteNumber":73,"Velocity":43,"Duration":473107,"SoundDuration":473107,"Delta":448901167},{"NoteNumber":55,"Velocity":24,"Duration":473107,"SoundDuration":473107,"Delta":448901167},{"NoteNumber":58,"Velocity":32,"Duration":473107,"SoundDuration":473107,"Delta":448901167},{"NoteNumber":50,"Velocity":24,"Duration":473107,"SoundDuration":473107,"Delta":448901167},{"NoteNumber":76,"Velocity":63,"Duration":968849,"SoundDuration":968849,"Delta":449379255},{"NoteNumber":64,"Velocity":51,"Duration":968849,"SoundDuration":968849,"Delta":449379255},{"NoteNumber":73,"Velocity":44,"Duration":462062,"SoundDuration":462062,"Delta":449881179},{"NoteNumber":70,"Velocity":36,"Duration":462062,"SoundDuration":462062,"Delta":449881179},{"NoteNumber":67,"Velocity":36,"Duration":462062,"SoundDuration":462062,"Delta":449881179},{"NoteNumber":55,"Velocity":26,"Duration":462062,"SoundDuration":462062,"Delta":449881179},{"NoteNumber":58,"Velocity":32,"Duration":462062,"SoundDuration":462062,"Delta":449881179},{"NoteNumber":50,"Velocity":26,"Duration":462062,"SoundDuration":462062,"Delta":449881179},{"NoteNumber":78,"Velocity":67,"Duration":235263,"SoundDuration":235263,"Delta":450604757},{"NoteNumber":66,"Velocity":53,"Duration":235263,"SoundDuration":235263,"Delta":450604757},{"NoteNumber":78,"Velocity":67,"Duration":1428684,"SoundDuration":1428684,"Delta":450861408},{"NoteNumber":66,"Velocity":53,"Duration":1428684,"SoundDuration":1428684,"Delta":450861408},{"NoteNumber":73,"Velocity":47,"Duration":452346,"SoundDuration":452346,"Delta":451361408},{"NoteNumber":67,"Velocity":37,"Duration":452346,"SoundDuration":452346,"Delta":451361408},{"NoteNumber":70,"Velocity":37,"Duration":452346,"SoundDuration":452346,"Delta":451361408},{"NoteNumber":50,"Velocity":26,"Duration":452346,"SoundDuration":452346,"Delta":451361408},{"NoteNumber":55,"Velocity":26,"Duration":452346,"SoundDuration":452346,"Delta":451361408},{"NoteNumber":58,"Velocity":35,"Duration":452346,"SoundDuration":452346,"Delta":451361408},{"NoteNumber":70,"Velocity":37,"Duration":466671,"SoundDuration":466671,"Delta":451818516},{"NoteNumber":67,"Velocity":37,"Duration":466671,"SoundDuration":466671,"Delta":451818516},{"NoteNumber":73,"Velocity":47,"Duration":466671,"SoundDuration":466671,"Delta":451818516},{"NoteNumber":55,"Velocity":27,"Duration":466671,"SoundDuration":466671,"Delta":451818516},{"NoteNumber":58,"Velocity":36,"Duration":466671,"SoundDuration":466671,"Delta":451818516},{"NoteNumber":50,"Velocity":27,"Duration":466671,"SoundDuration":466671,"Delta":451818516},{"NoteNumber":76,"Velocity":73,"Duration":958197,"SoundDuration":958197,"Delta":452290093},{"NoteNumber":64,"Velocity":56,"Duration":958197,"SoundDuration":958197,"Delta":452290093},{"NoteNumber":67,"Velocity":40,"Duration":456274,"SoundDuration":456274,"Delta":452792017},{"NoteNumber":70,"Velocity":40,"Duration":456274,"SoundDuration":456274,"Delta":452792017},{"NoteNumber":73,"Velocity":50,"Duration":456274,"SoundDuration":456274,"Delta":452792017},{"NoteNumber":50,"Velocity":27,"Duration":456274,"SoundDuration":456274,"Delta":452792017},{"NoteNumber":58,"Velocity":36,"Duration":456274,"SoundDuration":456274,"Delta":452792017},{"NoteNumber":55,"Velocity":27,"Duration":456274,"SoundDuration":456274,"Delta":452792017},{"NoteNumber":78,"Velocity":73,"Duration":215821,"SoundDuration":215821,"Delta":453483733},{"NoteNumber":66,"Velocity":56,"Duration":215821,"SoundDuration":215821,"Delta":453483733},{"NoteNumber":78,"Velocity":73,"Duration":1367111,"SoundDuration":1367111,"Delta":453719175},{"NoteNumber":66,"Velocity":56,"Duration":1367111,"SoundDuration":1367111,"Delta":453719175},{"NoteNumber":73,"Velocity":52,"Duration":439814,"SoundDuration":439814,"Delta":454178523},{"NoteNumber":70,"Velocity":41,"Duration":439814,"SoundDuration":439814,"Delta":454178523},{"NoteNumber":67,"Velocity":41,"Duration":439814,"SoundDuration":439814,"Delta":454178523},{"NoteNumber":58,"Velocity":37,"Duration":439814,"SoundDuration":439814,"Delta":454178523},{"NoteNumber":55,"Velocity":29,"Duration":439814,"SoundDuration":439814,"Delta":454178523},{"NoteNumber":50,"Velocity":29,"Duration":439814,"SoundDuration":439814,"Delta":454178523},{"NoteNumber":70,"Velocity":43,"Duration":458493,"SoundDuration":458493,"Delta":454622967},{"NoteNumber":67,"Velocity":43,"Duration":458493,"SoundDuration":458493,"Delta":454622967},{"NoteNumber":73,"Velocity":52,"Duration":458493,"SoundDuration":458493,"Delta":454622967},{"NoteNumber":50,"Velocity":29,"Duration":458493,"SoundDuration":458493,"Delta":454622967},{"NoteNumber":55,"Velocity":29,"Duration":458493,"SoundDuration":458493,"Delta":454622967},{"NoteNumber":58,"Velocity":39,"Duration":458493,"SoundDuration":458493,"Delta":454622967},{"NoteNumber":76,"Velocity":75,"Duration":918466,"SoundDuration":918466,"Delta":455086287},{"NoteNumber":64,"Velocity":60,"Duration":918466,"SoundDuration":918466,"Delta":455086287},{"NoteNumber":67,"Velocity":47,"Duration":442804,"SoundDuration":442804,"Delta":455561949},{"NoteNumber":70,"Velocity":47,"Duration":442804,"SoundDuration":442804,"Delta":455561949},{"NoteNumber":73,"Velocity":59,"Duration":442804,"SoundDuration":442804,"Delta":455561949},{"NoteNumber":55,"Velocity":35,"Duration":442804,"SoundDuration":442804,"Delta":455561949},{"NoteNumber":58,"Velocity":44,"Duration":442804,"SoundDuration":442804,"Delta":455561949},{"NoteNumber":50,"Velocity":35,"Duration":442804,"SoundDuration":442804,"Delta":455561949},{"NoteNumber":78,"Velocity":77,"Duration":235294,"SoundDuration":235294,"Delta":456240047},{"NoteNumber":66,"Velocity":66,"Duration":235294,"SoundDuration":235294,"Delta":456240047},{"NoteNumber":81,"Velocity":80,"Duration":1290860,"SoundDuration":1290860,"Delta":456475341},{"NoteNumber":69,"Velocity":69,"Duration":1290860,"SoundDuration":1290860,"Delta":456475341},{"NoteNumber":73,"Velocity":58,"Duration":419611,"SoundDuration":419611,"Delta":456918145},{"NoteNumber":70,"Velocity":58,"Duration":419611,"SoundDuration":419611,"Delta":456918145},{"NoteNumber":76,"Velocity":72,"Duration":419611,"SoundDuration":419611,"Delta":456918145},{"NoteNumber":64,"Velocity":52,"Duration":419611,"SoundDuration":419611,"Delta":456918145},{"NoteNumber":58,"Velocity":42,"Duration":419611,"SoundDuration":419611,"Delta":456918145},{"NoteNumber":61,"Velocity":42,"Duration":419611,"SoundDuration":419611,"Delta":456918145},{"NoteNumber":76,"Velocity":73,"Duration":419611,"SoundDuration":419611,"Delta":457342173},{"NoteNumber":73,"Velocity":58,"Duration":419611,"SoundDuration":419611,"Delta":457342173},{"NoteNumber":70,"Velocity":58,"Duration":419611,"SoundDuration":419611,"Delta":457342173},{"NoteNumber":58,"Velocity":42,"Duration":419611,"SoundDuration":419611,"Delta":457342173},{"NoteNumber":64,"Velocity":55,"Duration":419611,"SoundDuration":419611,"Delta":457342173},{"NoteNumber":61,"Velocity":42,"Duration":419611,"SoundDuration":419611,"Delta":457342173},{"NoteNumber":79,"Velocity":85,"Duration":856597,"SoundDuration":856597,"Delta":457766201},{"NoteNumber":67,"Velocity":68,"Duration":856597,"SoundDuration":856597,"Delta":457766201},{"NoteNumber":70,"Velocity":62,"Duration":413792,"SoundDuration":413792,"Delta":458209005},{"NoteNumber":76,"Velocity":79,"Duration":413792,"SoundDuration":413792,"Delta":458209005},{"NoteNumber":73,"Velocity":62,"Duration":413792,"SoundDuration":413792,"Delta":458209005},{"NoteNumber":64,"Velocity":57,"Duration":413792,"SoundDuration":413792,"Delta":458209005},{"NoteNumber":58,"Velocity":45,"Duration":413792,"SoundDuration":413792,"Delta":458209005},{"NoteNumber":61,"Velocity":45,"Duration":413792,"SoundDuration":413792,"Delta":458209005},{"NoteNumber":81,"Velocity":93,"Duration":493827,"SoundDuration":493827,"Delta":458622798},{"NoteNumber":69,"Velocity":75,"Duration":493827,"SoundDuration":493827,"Delta":458622798},{"NoteNumber":74,"Velocity":86,"Duration":449437,"SoundDuration":449437,"Delta":459116625},{"NoteNumber":70,"Velocity":86,"Duration":449437,"SoundDuration":449437,"Delta":459116625},{"NoteNumber":82,"Velocity":101,"Duration":449437,"SoundDuration":449437,"Delta":459116625},{"NoteNumber":26,"Velocity":70,"Duration":449437,"SoundDuration":449437,"Delta":459116625},{"NoteNumber":38,"Velocity":82,"Duration":449437,"SoundDuration":449437,"Delta":459116625},{"NoteNumber":50,"Velocity":56,"Duration":465683,"SoundDuration":465683,"Delta":459566063},{"NoteNumber":58,"Velocity":66,"Duration":465683,"SoundDuration":465683,"Delta":459566063},{"NoteNumber":86,"Velocity":80,"Duration":220883,"SoundDuration":220883,"Delta":459790782},{"NoteNumber":94,"Velocity":95,"Duration":220883,"SoundDuration":220883,"Delta":459790782},{"NoteNumber":96,"Velocity":101,"Duration":214007,"SoundDuration":214007,"Delta":460031746},{"NoteNumber":87,"Velocity":86,"Duration":214007,"SoundDuration":214007,"Delta":460031746},{"NoteNumber":62,"Velocity":66,"Duration":459026,"SoundDuration":459026,"Delta":460031746},{"NoteNumber":55,"Velocity":56,"Duration":459026,"SoundDuration":459026,"Delta":460031746},{"NoteNumber":86,"Velocity":80,"Duration":206767,"SoundDuration":206767,"Delta":460265209},{"NoteNumber":94,"Velocity":95,"Duration":206767,"SoundDuration":206767,"Delta":460265209},{"NoteNumber":93,"Velocity":97,"Duration":203703,"SoundDuration":203703,"Delta":460490773},{"NoteNumber":84,"Velocity":82,"Duration":203703,"SoundDuration":203703,"Delta":460490773},{"NoteNumber":58,"Velocity":56,"Duration":444443,"SoundDuration":444443,"Delta":460490773},{"NoteNumber":67,"Velocity":66,"Duration":444443,"SoundDuration":444443,"Delta":460490773},{"NoteNumber":82,"Velocity":80,"Duration":203703,"SoundDuration":203703,"Delta":460712995},{"NoteNumber":91,"Velocity":95,"Duration":203703,"SoundDuration":203703,"Delta":460712995},{"NoteNumber":81,"Velocity":80,"Duration":203703,"SoundDuration":203703,"Delta":460935217},{"NoteNumber":90,"Velocity":94,"Duration":203703,"SoundDuration":203703,"Delta":460935217},{"NoteNumber":55,"Velocity":56,"Duration":444444,"SoundDuration":444444,"Delta":460935217},{"NoteNumber":62,"Velocity":66,"Duration":444444,"SoundDuration":444444,"Delta":460935217},{"NoteNumber":82,"Velocity":79,"Duration":203703,"SoundDuration":203703,"Delta":461157439},{"NoteNumber":91,"Velocity":93,"Duration":203703,"SoundDuration":203703,"Delta":461157439},{"NoteNumber":89,"Velocity":93,"Duration":205223,"SoundDuration":205223,"Delta":461379661},{"NoteNumber":81,"Velocity":79,"Duration":205223,"SoundDuration":205223,"Delta":461379661},{"NoteNumber":58,"Velocity":79,"Duration":449889,"SoundDuration":449889,"Delta":461379661},{"NoteNumber":50,"Velocity":67,"Duration":449889,"SoundDuration":449889,"Delta":461379661},{"NoteNumber":87,"Velocity":92,"Duration":85551,"SoundDuration":85551,"Delta":461715482},{"NoteNumber":79,"Velocity":78,"Duration":85551,"SoundDuration":85551,"Delta":461715482},{"NoteNumber":87,"Velocity":91,"Duration":202951,"SoundDuration":202951,"Delta":461829550},{"NoteNumber":79,"Velocity":77,"Duration":202951,"SoundDuration":202951,"Delta":461829550},{"NoteNumber":26,"Velocity":56,"Duration":442804,"SoundDuration":442804,"Delta":461829550},{"NoteNumber":38,"Velocity":66,"Duration":442804,"SoundDuration":442804,"Delta":461829550},{"NoteNumber":86,"Velocity":90,"Duration":202951,"SoundDuration":202951,"Delta":462050952},{"NoteNumber":78,"Velocity":75,"Duration":202951,"SoundDuration":202951,"Delta":462050952},{"NoteNumber":84,"Velocity":89,"Duration":202951,"SoundDuration":202951,"Delta":462272354},{"NoteNumber":75,"Velocity":74,"Duration":202951,"SoundDuration":202951,"Delta":462272354},{"NoteNumber":50,"Velocity":56,"Duration":442803,"SoundDuration":442803,"Delta":462272354},{"NoteNumber":60,"Velocity":66,"Duration":442803,"SoundDuration":442803,"Delta":462272354},{"NoteNumber":54,"Velocity":56,"Duration":442803,"SoundDuration":442803,"Delta":462272354},{"NoteNumber":74,"Velocity":73,"Duration":202951,"SoundDuration":202951,"Delta":462493756},{"NoteNumber":82,"Velocity":86,"Duration":202951,"SoundDuration":202951,"Delta":462493756},{"NoteNumber":81,"Velocity":85,"Duration":202951,"SoundDuration":202951,"Delta":462715158},{"NoteNumber":72,"Velocity":72,"Duration":202951,"SoundDuration":202951,"Delta":462715158},{"NoteNumber":62,"Velocity":59,"Duration":453959,"SoundDuration":453959,"Delta":462715158},{"NoteNumber":54,"Velocity":49,"Duration":453959,"SoundDuration":453959,"Delta":462715158},{"NoteNumber":60,"Velocity":49,"Duration":453959,"SoundDuration":453959,"Delta":462715158},{"NoteNumber":79,"Velocity":83,"Duration":213178,"SoundDuration":213178,"Delta":462936560},{"NoteNumber":70,"Velocity":70,"Duration":213178,"SoundDuration":213178,"Delta":462936560},{"NoteNumber":69,"Velocity":72,"Duration":141129,"SoundDuration":141129,"Delta":463169118},{"NoteNumber":78,"Velocity":85,"Duration":141129,"SoundDuration":141129,"Delta":463169118},{"NoteNumber":60,"Velocity":55,"Duration":486283,"SoundDuration":486283,"Delta":463169118},{"NoteNumber":66,"Velocity":64,"Duration":486283,"SoundDuration":486283,"Delta":463169118},{"NoteNumber":75,"Velocity":85,"Duration":141129,"SoundDuration":141129,"Delta":463330409},{"NoteNumber":72,"Velocity":72,"Duration":141129,"SoundDuration":141129,"Delta":463330409},{"NoteNumber":74,"Velocity":86,"Duration":142335,"SoundDuration":142335,"Delta":463491699},{"NoteNumber":72,"Velocity":73,"Duration":142335,"SoundDuration":142335,"Delta":463491699},{"NoteNumber":74,"Velocity":88,"Duration":112562,"SoundDuration":112562,"Delta":463655402},{"NoteNumber":71,"Velocity":74,"Duration":112562,"SoundDuration":112562,"Delta":463655402},{"NoteNumber":60,"Velocity":58,"Duration":611566,"SoundDuration":611566,"Delta":463655402},{"NoteNumber":54,"Velocity":58,"Duration":611566,"SoundDuration":611566,"Delta":463655402},{"NoteNumber":62,"Velocity":69,"Duration":611566,"SoundDuration":611566,"Delta":463655402},{"NoteNumber":74,"Velocity":88,"Duration":113650,"SoundDuration":113650,"Delta":463775502},{"NoteNumber":70,"Velocity":74,"Duration":113650,"SoundDuration":113650,"Delta":463775502},{"NoteNumber":74,"Velocity":88,"Duration":114757,"SoundDuration":114757,"Delta":463896767},{"NoteNumber":69,"Velocity":74,"Duration":114757,"SoundDuration":114757,"Delta":463896767},{"NoteNumber":74,"Velocity":89,"Duration":115888,"SoundDuration":115888,"Delta":464019217},{"NoteNumber":68,"Velocity":74,"Duration":115888,"SoundDuration":115888,"Delta":464019217},{"NoteNumber":69,"Velocity":74,"Duration":116398,"SoundDuration":116398,"Delta":464142877},{"NoteNumber":74,"Velocity":89,"Duration":116398,"SoundDuration":116398,"Delta":464142877},{"NoteNumber":70,"Velocity":75,"Duration":128601,"SoundDuration":128601,"Delta":464266968},{"NoteNumber":74,"Velocity":90,"Duration":128601,"SoundDuration":128601,"Delta":464266968},{"NoteNumber":50,"Velocity":61,"Duration":626162,"SoundDuration":626162,"Delta":464266968},{"NoteNumber":54,"Velocity":61,"Duration":626162,"SoundDuration":626162,"Delta":464266968},{"NoteNumber":60,"Velocity":73,"Duration":626162,"SoundDuration":626162,"Delta":464266968},{"NoteNumber":69,"Velocity":75,"Duration":129668,"SoundDuration":129668,"Delta":464421343},{"NoteNumber":74,"Velocity":90,"Duration":129668,"SoundDuration":129668,"Delta":464421343},{"NoteNumber":72,"Velocity":77,"Duration":131027,"SoundDuration":131027,"Delta":464577053},{"NoteNumber":74,"Velocity":91,"Duration":131027,"SoundDuration":131027,"Delta":464577053},{"NoteNumber":74,"Velocity":91,"Duration":132137,"SoundDuration":132137,"Delta":464734397},{"NoteNumber":70,"Velocity":77,"Duration":132137,"SoundDuration":132137,"Delta":464734397},{"NoteNumber":67,"Velocity":85,"Duration":104997,"SoundDuration":104997,"Delta":464893130},{"NoteNumber":74,"Velocity":91,"Duration":104997,"SoundDuration":104997,"Delta":464893130},{"NoteNumber":43,"Velocity":73,"Duration":251995,"SoundDuration":251995,"Delta":464893130},{"NoteNumber":31,"Velocity":73,"Duration":251995,"SoundDuration":251995,"Delta":464893130},{"NoteNumber":86,"Velocity":73,"Duration":100627,"SoundDuration":100627,"Delta":465145125},{"NoteNumber":91,"Velocity":73,"Duration":100627,"SoundDuration":100627,"Delta":465145125},{"NoteNumber":94,"Velocity":87,"Duration":100627,"SoundDuration":100627,"Delta":465145125},{"NoteNumber":81,"Velocity":76,"Duration":100627,"SoundDuration":100627,"Delta":465265878},{"NoteNumber":62,"Velocity":55,"Duration":242704,"SoundDuration":242704,"Delta":465386632},{"NoteNumber":67,"Velocity":66,"Duration":242704,"SoundDuration":242704,"Delta":465386632},{"NoteNumber":58,"Velocity":55,"Duration":242704,"SoundDuration":242704,"Delta":465386632},{"NoteNumber":86,"Velocity":67,"Duration":101626,"SoundDuration":101626,"Delta":465507385},{"NoteNumber":91,"Velocity":79,"Duration":101626,"SoundDuration":101626,"Delta":465507385},{"NoteNumber":82,"Velocity":67,"Duration":101626,"SoundDuration":101626,"Delta":465507385},{"NoteNumber":91,"Velocity":87,"Duration":100401,"SoundDuration":100401,"Delta":465629336},{"NoteNumber":86,"Velocity":73,"Duration":100401,"SoundDuration":100401,"Delta":465629336},{"NoteNumber":82,"Velocity":73,"Duration":100401,"SoundDuration":100401,"Delta":465629336},{"NoteNumber":46,"Velocity":53,"Duration":120481,"SoundDuration":120481,"Delta":465629336},{"NoteNumber":78,"Velocity":75,"Duration":100401,"SoundDuration":100401,"Delta":465749818},{"NoteNumber":67,"Velocity":64,"Duration":243432,"SoundDuration":243432,"Delta":465870300},{"NoteNumber":58,"Velocity":53,"Duration":243432,"SoundDuration":243432,"Delta":465870300},{"NoteNumber":62,"Velocity":53,"Duration":243432,"SoundDuration":243432,"Delta":465870300},{"NoteNumber":79,"Velocity":67,"Duration":102458,"SoundDuration":102458,"Delta":465990782},{"NoteNumber":82,"Velocity":67,"Duration":102458,"SoundDuration":102458,"Delta":465990782},{"NoteNumber":86,"Velocity":79,"Duration":102458,"SoundDuration":102458,"Delta":465990782},{"NoteNumber":82,"Velocity":73,"Duration":100401,"SoundDuration":100401,"Delta":466113733},{"NoteNumber":79,"Velocity":73,"Duration":100401,"SoundDuration":100401,"Delta":466113733},{"NoteNumber":86,"Velocity":87,"Duration":100401,"SoundDuration":100401,"Delta":466113733},{"NoteNumber":50,"Velocity":57,"Duration":120481,"SoundDuration":120481,"Delta":466113733},{"NoteNumber":73,"Velocity":78,"Duration":100401,"SoundDuration":100401,"Delta":466234215},{"NoteNumber":67,"Velocity":64,"Duration":242603,"SoundDuration":242603,"Delta":466354697},{"NoteNumber":62,"Velocity":53,"Duration":242603,"SoundDuration":242603,"Delta":466354697},{"NoteNumber":58,"Velocity":53,"Duration":242603,"SoundDuration":242603,"Delta":466354697},{"NoteNumber":82,"Velocity":78,"Duration":101713,"SoundDuration":101713,"Delta":466475179},{"NoteNumber":79,"Velocity":66,"Duration":101713,"SoundDuration":101713,"Delta":466475179},{"NoteNumber":74,"Velocity":66,"Duration":101713,"SoundDuration":101713,"Delta":466475179},{"NoteNumber":74,"Velocity":73,"Duration":100401,"SoundDuration":100401,"Delta":466597300},{"NoteNumber":79,"Velocity":73,"Duration":100401,"SoundDuration":100401,"Delta":466597300},{"NoteNumber":82,"Velocity":87,"Duration":100401,"SoundDuration":100401,"Delta":466597300},{"NoteNumber":55,"Velocity":54,"Duration":120481,"SoundDuration":120481,"Delta":466597300},{"NoteNumber":70,"Velocity":75,"Duration":100401,"SoundDuration":100401,"Delta":466717782},{"NoteNumber":63,"Velocity":53,"Duration":242433,"SoundDuration":242433,"Delta":466838264},{"NoteNumber":60,"Velocity":53,"Duration":242433,"SoundDuration":242433,"Delta":466838264},{"NoteNumber":57,"Velocity":53,"Duration":242433,"SoundDuration":242433,"Delta":466838264},{"NoteNumber":67,"Velocity":64,"Duration":242433,"SoundDuration":242433,"Delta":466838264},{"NoteNumber":84,"Velocity":78,"Duration":101626,"SoundDuration":101626,"Delta":466958746},{"NoteNumber":79,"Velocity":66,"Duration":101626,"SoundDuration":101626,"Delta":466958746},{"NoteNumber":75,"Velocity":66,"Duration":101626,"SoundDuration":101626,"Delta":466958746},{"NoteNumber":84,"Velocity":87,"Duration":100401,"SoundDuration":100401,"Delta":467080698},{"NoteNumber":79,"Velocity":73,"Duration":100401,"SoundDuration":100401,"Delta":467080698},{"NoteNumber":75,"Velocity":73,"Duration":100401,"SoundDuration":100401,"Delta":467080698},{"NoteNumber":45,"Velocity":55,"Duration":120481,"SoundDuration":120481,"Delta":467080698},{"NoteNumber":74,"Velocity":75,"Duration":100401,"SoundDuration":100401,"Delta":467201180},{"NoteNumber":73,"Velocity":75,"Duration":100401,"SoundDuration":100401,"Delta":467321662},{"NoteNumber":60,"Velocity":53,"Duration":242433,"SoundDuration":242433,"Delta":467321662},{"NoteNumber":67,"Velocity":64,"Duration":242433,"SoundDuration":242433,"Delta":467321662},{"NoteNumber":63,"Velocity":53,"Duration":242433,"SoundDuration":242433,"Delta":467321662},{"NoteNumber":72,"Velocity":75,"Duration":101626,"SoundDuration":101626,"Delta":467442144},{"NoteNumber":79,"Velocity":73,"Duration":100401,"SoundDuration":100401,"Delta":467564095},{"NoteNumber":84,"Velocity":87,"Duration":100401,"SoundDuration":100401,"Delta":467564095},{"NoteNumber":75,"Velocity":73,"Duration":100401,"SoundDuration":100401,"Delta":467564095},{"NoteNumber":57,"Velocity":55,"Duration":120481,"SoundDuration":120481,"Delta":467564095},{"NoteNumber":74,"Velocity":74,"Duration":100401,"SoundDuration":100401,"Delta":467684577},{"NoteNumber":73,"Velocity":76,"Duration":100216,"SoundDuration":100216,"Delta":467805059},{"NoteNumber":66,"Velocity":64,"Duration":241264,"SoundDuration":241264,"Delta":467805059},{"NoteNumber":62,"Velocity":53,"Duration":241264,"SoundDuration":241264,"Delta":467805059},{"NoteNumber":60,"Velocity":53,"Duration":241264,"SoundDuration":241264,"Delta":467805059},{"NoteNumber":72,"Velocity":76,"Duration":100712,"SoundDuration":100712,"Delta":467925401},{"NoteNumber":75,"Velocity":73,"Duration":101221,"SoundDuration":101221,"Delta":468046324},{"NoteNumber":78,"Velocity":73,"Duration":101221,"SoundDuration":101221,"Delta":468046324},{"NoteNumber":84,"Velocity":87,"Duration":101221,"SoundDuration":101221,"Delta":468046324},{"NoteNumber":50,"Velocity":56,"Duration":121516,"SoundDuration":121516,"Delta":468046324},{"NoteNumber":74,"Velocity":76,"Duration":101735,"SoundDuration":101735,"Delta":468167841},{"NoteNumber":73,"Velocity":76,"Duration":102241,"SoundDuration":102241,"Delta":468289958},{"NoteNumber":60,"Velocity":53,"Duration":246110,"SoundDuration":246110,"Delta":468289958},{"NoteNumber":66,"Velocity":63,"Duration":246110,"SoundDuration":246110,"Delta":468289958},{"NoteNumber":62,"Velocity":53,"Duration":246110,"SoundDuration":246110,"Delta":468289958},{"NoteNumber":72,"Velocity":76,"Duration":102762,"SoundDuration":102762,"Delta":468412664},{"NoteNumber":74,"Velocity":73,"Duration":103297,"SoundDuration":103297,"Delta":468536069},{"NoteNumber":78,"Velocity":73,"Duration":103297,"SoundDuration":103297,"Delta":468536069},{"NoteNumber":81,"Velocity":87,"Duration":103297,"SoundDuration":103297,"Delta":468536069},{"NoteNumber":57,"Velocity":56,"Duration":124025,"SoundDuration":124025,"Delta":468536069},{"NoteNumber":72,"Velocity":76,"Duration":103815,"SoundDuration":103815,"Delta":468660094},{"NoteNumber":79,"Velocity":73,"Duration":253058,"SoundDuration":253058,"Delta":468784726},{"NoteNumber":82,"Velocity":87,"Duration":253058,"SoundDuration":253058,"Delta":468784726},{"NoteNumber":70,"Velocity":73,"Duration":253058,"SoundDuration":253058,"Delta":468784726},{"NoteNumber":74,"Velocity":73,"Duration":253058,"SoundDuration":253058,"Delta":468784726},{"NoteNumber":55,"Velocity":55,"Duration":253058,"SoundDuration":253058,"Delta":468784726},{"NoteNumber":62,"Velocity":55,"Duration":253058,"SoundDuration":253058,"Delta":468784726},{"NoteNumber":67,"Velocity":66,"Duration":253058,"SoundDuration":253058,"Delta":468784726},{"NoteNumber":86,"Velocity":73,"Duration":101477,"SoundDuration":101477,"Delta":469037784},{"NoteNumber":94,"Velocity":87,"Duration":101477,"SoundDuration":101477,"Delta":469037784},{"NoteNumber":91,"Velocity":73,"Duration":101477,"SoundDuration":101477,"Delta":469037784},{"NoteNumber":43,"Velocity":53,"Duration":121773,"SoundDuration":121773,"Delta":469037784},{"NoteNumber":81,"Velocity":76,"Duration":101477,"SoundDuration":101477,"Delta":469159557},{"NoteNumber":62,"Velocity":55,"Duration":245229,"SoundDuration":245229,"Delta":469281330},{"NoteNumber":67,"Velocity":66,"Duration":245229,"SoundDuration":245229,"Delta":469281330},{"NoteNumber":58,"Velocity":55,"Duration":245229,"SoundDuration":245229,"Delta":469281330},{"NoteNumber":82,"Velocity":67,"Duration":102880,"SoundDuration":102880,"Delta":469403103},{"NoteNumber":91,"Velocity":79,"Duration":102880,"SoundDuration":102880,"Delta":469403103},{"NoteNumber":86,"Velocity":67,"Duration":102880,"SoundDuration":102880,"Delta":469403103},{"NoteNumber":91,"Velocity":87,"Duration":101214,"SoundDuration":101214,"Delta":469526560},{"NoteNumber":82,"Velocity":73,"Duration":101214,"SoundDuration":101214,"Delta":469526560},{"NoteNumber":86,"Velocity":73,"Duration":101214,"SoundDuration":101214,"Delta":469526560},{"NoteNumber":46,"Velocity":53,"Duration":121457,"SoundDuration":121457,"Delta":469526560},{"NoteNumber":78,"Velocity":75,"Duration":101214,"SoundDuration":101214,"Delta":469648017},{"NoteNumber":58,"Velocity":53,"Duration":244408,"SoundDuration":244408,"Delta":469769475},{"NoteNumber":67,"Velocity":64,"Duration":244408,"SoundDuration":244408,"Delta":469769475},{"NoteNumber":62,"Velocity":53,"Duration":244408,"SoundDuration":244408,"Delta":469769475},{"NoteNumber":79,"Velocity":67,"Duration":102458,"SoundDuration":102458,"Delta":469890932},{"NoteNumber":82,"Velocity":67,"Duration":102458,"SoundDuration":102458,"Delta":469890932},{"NoteNumber":86,"Velocity":79,"Duration":102458,"SoundDuration":102458,"Delta":469890932},{"NoteNumber":79,"Velocity":73,"Duration":101214,"SoundDuration":101214,"Delta":470013883},{"NoteNumber":82,"Velocity":73,"Duration":101214,"SoundDuration":101214,"Delta":470013883},{"NoteNumber":86,"Velocity":87,"Duration":101214,"SoundDuration":101214,"Delta":470013883},{"NoteNumber":50,"Velocity":57,"Duration":121457,"SoundDuration":121457,"Delta":470013883},{"NoteNumber":73,"Velocity":78,"Duration":101214,"SoundDuration":101214,"Delta":470135341},{"NoteNumber":67,"Velocity":64,"Duration":245424,"SoundDuration":245424,"Delta":470256798},{"NoteNumber":62,"Velocity":53,"Duration":245424,"SoundDuration":245424,"Delta":470256798},{"NoteNumber":58,"Velocity":53,"Duration":245424,"SoundDuration":245424,"Delta":470256798},{"NoteNumber":82,"Velocity":78,"Duration":103305,"SoundDuration":103305,"Delta":470378256},{"NoteNumber":79,"Velocity":66,"Duration":103305,"SoundDuration":103305,"Delta":470378256},{"NoteNumber":74,"Velocity":66,"Duration":103305,"SoundDuration":103305,"Delta":470378256},{"NoteNumber":74,"Velocity":73,"Duration":101214,"SoundDuration":101214,"Delta":470502223},{"NoteNumber":79,"Velocity":73,"Duration":101214,"SoundDuration":101214,"Delta":470502223},{"NoteNumber":82,"Velocity":87,"Duration":101214,"SoundDuration":101214,"Delta":470502223},{"NoteNumber":55,"Velocity":54,"Duration":121457,"SoundDuration":121457,"Delta":470502223},{"NoteNumber":70,"Velocity":75,"Duration":101214,"SoundDuration":101214,"Delta":470623680},{"NoteNumber":63,"Velocity":53,"Duration":245424,"SoundDuration":245424,"Delta":470745138},{"NoteNumber":60,"Velocity":53,"Duration":245424,"SoundDuration":245424,"Delta":470745138},{"NoteNumber":57,"Velocity":53,"Duration":245424,"SoundDuration":245424,"Delta":470745138},{"NoteNumber":67,"Velocity":64,"Duration":245424,"SoundDuration":245424,"Delta":470745138},{"NoteNumber":79,"Velocity":66,"Duration":103305,"SoundDuration":103305,"Delta":470866595},{"NoteNumber":75,"Velocity":66,"Duration":103305,"SoundDuration":103305,"Delta":470866595},{"NoteNumber":84,"Velocity":78,"Duration":103305,"SoundDuration":103305,"Delta":470866595},{"NoteNumber":84,"Velocity":87,"Duration":101477,"SoundDuration":101477,"Delta":470990562},{"NoteNumber":79,"Velocity":73,"Duration":101477,"SoundDuration":101477,"Delta":470990562},{"NoteNumber":75,"Velocity":73,"Duration":101477,"SoundDuration":101477,"Delta":470990562},{"NoteNumber":45,"Velocity":55,"Duration":121773,"SoundDuration":121773,"Delta":470990562},{"NoteNumber":74,"Velocity":75,"Duration":101477,"SoundDuration":101477,"Delta":471112335},{"NoteNumber":73,"Velocity":75,"Duration":101477,"SoundDuration":101477,"Delta":471234108},{"NoteNumber":67,"Velocity":64,"Duration":243546,"SoundDuration":243546,"Delta":471234108},{"NoteNumber":63,"Velocity":53,"Duration":243546,"SoundDuration":243546,"Delta":471234108},{"NoteNumber":60,"Velocity":53,"Duration":243546,"SoundDuration":243546,"Delta":471234108},{"NoteNumber":72,"Velocity":75,"Duration":101477,"SoundDuration":101477,"Delta":471355881},{"NoteNumber":75,"Velocity":73,"Duration":101477,"SoundDuration":101477,"Delta":471477654},{"NoteNumber":79,"Velocity":73,"Duration":101477,"SoundDuration":101477,"Delta":471477654},{"NoteNumber":84,"Velocity":87,"Duration":101477,"SoundDuration":101477,"Delta":471477654},{"NoteNumber":57,"Velocity":55,"Duration":121772,"SoundDuration":121772,"Delta":471477654},{"NoteNumber":74,"Velocity":74,"Duration":101477,"SoundDuration":101477,"Delta":471599427},{"NoteNumber":73,"Velocity":76,"Duration":101477,"SoundDuration":101477,"Delta":471721200},{"NoteNumber":62,"Velocity":53,"Duration":243545,"SoundDuration":243545,"Delta":471721200},{"NoteNumber":66,"Velocity":64,"Duration":243545,"SoundDuration":243545,"Delta":471721200},{"NoteNumber":60,"Velocity":53,"Duration":243545,"SoundDuration":243545,"Delta":471721200},{"NoteNumber":72,"Velocity":76,"Duration":101477,"SoundDuration":101477,"Delta":471842973},{"NoteNumber":84,"Velocity":87,"Duration":101563,"SoundDuration":101563,"Delta":471964746},{"NoteNumber":78,"Velocity":73,"Duration":101563,"SoundDuration":101563,"Delta":471964746},{"NoteNumber":75,"Velocity":73,"Duration":101563,"SoundDuration":101563,"Delta":471964746},{"NoteNumber":50,"Velocity":56,"Duration":121945,"SoundDuration":121945,"Delta":471964746},{"NoteNumber":74,"Velocity":76,"Duration":102328,"SoundDuration":102328,"Delta":472086691},{"NoteNumber":73,"Velocity":76,"Duration":103383,"SoundDuration":103383,"Delta":472209572},{"NoteNumber":62,"Velocity":53,"Duration":249462,"SoundDuration":249462,"Delta":472209572},{"NoteNumber":60,"Velocity":53,"Duration":249462,"SoundDuration":249462,"Delta":472209572},{"NoteNumber":66,"Velocity":63,"Duration":249462,"SoundDuration":249462,"Delta":472209572},{"NoteNumber":72,"Velocity":76,"Duration":104351,"SoundDuration":104351,"Delta":472333683},{"NoteNumber":81,"Velocity":87,"Duration":105356,"SoundDuration":105356,"Delta":472459035},{"NoteNumber":78,"Velocity":73,"Duration":105356,"SoundDuration":105356,"Delta":472459035},{"NoteNumber":74,"Velocity":73,"Duration":105356,"SoundDuration":105356,"Delta":472459035},{"NoteNumber":57,"Velocity":56,"Duration":126537,"SoundDuration":126537,"Delta":472459035},{"NoteNumber":72,"Velocity":76,"Duration":106374,"SoundDuration":106374,"Delta":472585572},{"NoteNumber":74,"Velocity":73,"Duration":281690,"SoundDuration":281690,"Delta":472713316},{"NoteNumber":70,"Velocity":73,"Duration":281690,"SoundDuration":281690,"Delta":472713316},{"NoteNumber":79,"Velocity":73,"Duration":281690,"SoundDuration":281690,"Delta":472713316},{"NoteNumber":82,"Velocity":87,"Duration":281690,"SoundDuration":281690,"Delta":472713316},{"NoteNumber":62,"Velocity":53,"Duration":281690,"SoundDuration":281690,"Delta":472713316},{"NoteNumber":55,"Velocity":53,"Duration":281690,"SoundDuration":281690,"Delta":472713316},{"NoteNumber":67,"Velocity":63,"Duration":281690,"SoundDuration":281690,"Delta":472713316},{"NoteNumber":80,"Velocity":70,"Duration":123854,"SoundDuration":123854,"Delta":472995006},{"NoteNumber":48,"Velocity":65,"Duration":743125,"SoundDuration":743125,"Delta":472995006},{"NoteNumber":92,"Velocity":72,"Duration":123854,"SoundDuration":123854,"Delta":473118860},{"NoteNumber":87,"Velocity":60,"Duration":123854,"SoundDuration":123854,"Delta":473118860},{"NoteNumber":80,"Velocity":72,"Duration":123854,"SoundDuration":123854,"Delta":473242715},{"NoteNumber":75,"Velocity":63,"Duration":123854,"SoundDuration":123854,"Delta":473366569},{"NoteNumber":80,"Velocity":75,"Duration":123854,"SoundDuration":123854,"Delta":473366569},{"NoteNumber":67,"Velocity":77,"Duration":247708,"SoundDuration":247708,"Delta":473490423},{"NoteNumber":56,"Velocity":47,"Duration":247708,"SoundDuration":247708,"Delta":473490423},{"NoteNumber":63,"Velocity":56,"Duration":247708,"SoundDuration":247708,"Delta":473490423},{"NoteNumber":79,"Velocity":77,"Duration":123854,"SoundDuration":123854,"Delta":473614277},{"NoteNumber":75,"Velocity":65,"Duration":123854,"SoundDuration":123854,"Delta":473614277},{"NoteNumber":66,"Velocity":87,"Duration":241507,"SoundDuration":241507,"Delta":473738132},{"NoteNumber":50,"Velocity":63,"Duration":120753,"SoundDuration":120753,"Delta":473738132},{"NoteNumber":69,"Velocity":65,"Duration":120753,"SoundDuration":120753,"Delta":473858885},{"NoteNumber":78,"Velocity":77,"Duration":120753,"SoundDuration":120753,"Delta":473858885},{"NoteNumber":78,"Velocity":77,"Duration":120753,"SoundDuration":120753,"Delta":473979639},{"NoteNumber":57,"Velocity":48,"Duration":241507,"SoundDuration":241507,"Delta":473979639},{"NoteNumber":62,"Velocity":57,"Duration":241507,"SoundDuration":241507,"Delta":473979639},{"NoteNumber":60,"Velocity":48,"Duration":241507,"SoundDuration":241507,"Delta":473979639},{"NoteNumber":90,"Velocity":77,"Duration":120753,"SoundDuration":120753,"Delta":474100392},{"NoteNumber":81,"Velocity":65,"Duration":120753,"SoundDuration":120753,"Delta":474100392},{"NoteNumber":79,"Velocity":87,"Duration":241506,"SoundDuration":241506,"Delta":474221146},{"NoteNumber":43,"Velocity":63,"Duration":120753,"SoundDuration":120753,"Delta":474221146},{"NoteNumber":91,"Velocity":75,"Duration":120753,"SoundDuration":120753,"Delta":474341899},{"NoteNumber":82,"Velocity":64,"Duration":120753,"SoundDuration":120753,"Delta":474341899},{"NoteNumber":79,"Velocity":75,"Duration":137614,"SoundDuration":137614,"Delta":474462653},{"NoteNumber":58,"Velocity":47,"Duration":275229,"SoundDuration":275229,"Delta":474462653},{"NoteNumber":55,"Velocity":47,"Duration":275229,"SoundDuration":275229,"Delta":474462653},{"NoteNumber":62,"Velocity":55,"Duration":275229,"SoundDuration":275229,"Delta":474462653},{"NoteNumber":70,"Velocity":64,"Duration":137614,"SoundDuration":137614,"Delta":474600267},{"NoteNumber":79,"Velocity":75,"Duration":137614,"SoundDuration":137614,"Delta":474600267},{"NoteNumber":68,"Velocity":77,"Duration":251045,"SoundDuration":251045,"Delta":474737882},{"NoteNumber":48,"Velocity":65,"Duration":997252,"SoundDuration":997252,"Delta":474737882},{"NoteNumber":80,"Velocity":72,"Duration":125522,"SoundDuration":125522,"Delta":474863405},{"NoteNumber":75,"Velocity":60,"Duration":125522,"SoundDuration":125522,"Delta":474863405},{"NoteNumber":80,"Velocity":74,"Duration":248735,"SoundDuration":248735,"Delta":474988928},{"NoteNumber":63,"Velocity":53,"Duration":497471,"SoundDuration":497471,"Delta":474988928},{"NoteNumber":56,"Velocity":44,"Duration":497471,"SoundDuration":497471,"Delta":474988928},{"NoteNumber":87,"Velocity":65,"Duration":124367,"SoundDuration":124367,"Delta":475113296},{"NoteNumber":92,"Velocity":76,"Duration":124367,"SoundDuration":124367,"Delta":475113296},{"NoteNumber":80,"Velocity":76,"Duration":124367,"SoundDuration":124367,"Delta":475237664},{"NoteNumber":80,"Velocity":78,"Duration":124367,"SoundDuration":124367,"Delta":475362031},{"NoteNumber":75,"Velocity":65,"Duration":124367,"SoundDuration":124367,"Delta":475362031},{"NoteNumber":67,"Velocity":77,"Duration":248735,"SoundDuration":248735,"Delta":475486399},{"NoteNumber":56,"Velocity":47,"Duration":248735,"SoundDuration":248735,"Delta":475486399},{"NoteNumber":63,"Velocity":56,"Duration":248735,"SoundDuration":248735,"Delta":475486399},{"NoteNumber":79,"Velocity":77,"Duration":124367,"SoundDuration":124367,"Delta":475610767},{"NoteNumber":75,"Velocity":65,"Duration":124367,"SoundDuration":124367,"Delta":475610767},{"NoteNumber":66,"Velocity":87,"Duration":242522,"SoundDuration":242522,"Delta":475735135},{"NoteNumber":50,"Velocity":63,"Duration":121261,"SoundDuration":121261,"Delta":475735135},{"NoteNumber":78,"Velocity":77,"Duration":121261,"SoundDuration":121261,"Delta":475856396},{"NoteNumber":69,"Velocity":65,"Duration":121261,"SoundDuration":121261,"Delta":475856396},{"NoteNumber":78,"Velocity":77,"Duration":121261,"SoundDuration":121261,"Delta":475977657},{"NoteNumber":62,"Velocity":57,"Duration":242522,"SoundDuration":242522,"Delta":475977657},{"NoteNumber":60,"Velocity":48,"Duration":242522,"SoundDuration":242522,"Delta":475977657},{"NoteNumber":57,"Velocity":48,"Duration":242522,"SoundDuration":242522,"Delta":475977657},{"NoteNumber":81,"Velocity":65,"Duration":121261,"SoundDuration":121261,"Delta":476098918},{"NoteNumber":90,"Velocity":77,"Duration":121261,"SoundDuration":121261,"Delta":476098918},{"NoteNumber":79,"Velocity":87,"Duration":242522,"SoundDuration":242522,"Delta":476220179},{"NoteNumber":43,"Velocity":63,"Duration":121261,"SoundDuration":121261,"Delta":476220179},{"NoteNumber":91,"Velocity":75,"Duration":121261,"SoundDuration":121261,"Delta":476341440},{"NoteNumber":82,"Velocity":64,"Duration":121261,"SoundDuration":121261,"Delta":476341440},{"NoteNumber":79,"Velocity":75,"Duration":126529,"SoundDuration":126529,"Delta":476462701},{"NoteNumber":58,"Velocity":47,"Duration":253058,"SoundDuration":253058,"Delta":476462701},{"NoteNumber":55,"Velocity":47,"Duration":253058,"SoundDuration":253058,"Delta":476462701},{"NoteNumber":62,"Velocity":55,"Duration":253058,"SoundDuration":253058,"Delta":476462701},{"NoteNumber":70,"Velocity":64,"Duration":126529,"SoundDuration":126529,"Delta":476589230},{"NoteNumber":79,"Velocity":75,"Duration":126529,"SoundDuration":126529,"Delta":476589230},{"NoteNumber":65,"Velocity":77,"Duration":249094,"SoundDuration":249094,"Delta":476715759},{"NoteNumber":47,"Velocity":65,"Duration":126529,"SoundDuration":126529,"Delta":476715759},{"NoteNumber":77,"Velocity":71,"Duration":122565,"SoundDuration":122565,"Delta":476842288},{"NoteNumber":68,"Velocity":59,"Duration":122565,"SoundDuration":122565,"Delta":476842288},{"NoteNumber":77,"Velocity":70,"Duration":121773,"SoundDuration":121773,"Delta":476964853},{"NoteNumber":56,"Velocity":43,"Duration":243546,"SoundDuration":243546,"Delta":476964853},{"NoteNumber":53,"Velocity":43,"Duration":243546,"SoundDuration":243546,"Delta":476964853},{"NoteNumber":62,"Velocity":51,"Duration":243546,"SoundDuration":243546,"Delta":476964853},{"NoteNumber":80,"Velocity":59,"Duration":121773,"SoundDuration":121773,"Delta":477086626},{"NoteNumber":89,"Velocity":71,"Duration":121773,"SoundDuration":121773,"Delta":477086626},{"NoteNumber":77,"Velocity":68,"Duration":121772,"SoundDuration":121772,"Delta":477208399},{"NoteNumber":48,"Velocity":60,"Duration":487091,"SoundDuration":487091,"Delta":477208399},{"NoteNumber":68,"Velocity":66,"Duration":121773,"SoundDuration":121773,"Delta":477330172},{"NoteNumber":75,"Velocity":77,"Duration":121773,"SoundDuration":121773,"Delta":477330172},{"NoteNumber":63,"Velocity":69,"Duration":243545,"SoundDuration":243545,"Delta":477451945},{"NoteNumber":56,"Velocity":42,"Duration":243545,"SoundDuration":243545,"Delta":477451945},{"NoteNumber":51,"Velocity":42,"Duration":243545,"SoundDuration":243545,"Delta":477451945},{"NoteNumber":60,"Velocity":50,"Duration":243545,"SoundDuration":243545,"Delta":477451945},{"NoteNumber":68,"Velocity":57,"Duration":121772,"SoundDuration":121772,"Delta":477573718},{"NoteNumber":75,"Velocity":69,"Duration":121772,"SoundDuration":121772,"Delta":477573718},{"NoteNumber":62,"Velocity":77,"Duration":243546,"SoundDuration":243546,"Delta":477695491},{"NoteNumber":50,"Velocity":56,"Duration":487092,"SoundDuration":487092,"Delta":477695491},{"NoteNumber":68,"Velocity":57,"Duration":121773,"SoundDuration":121773,"Delta":477817264},{"NoteNumber":74,"Velocity":69,"Duration":121773,"SoundDuration":121773,"Delta":477817264},{"NoteNumber":74,"Velocity":69,"Duration":121772,"SoundDuration":121772,"Delta":477939037},{"NoteNumber":56,"Velocity":43,"Duration":243545,"SoundDuration":243545,"Delta":477939037},{"NoteNumber":53,"Velocity":43,"Duration":243545,"SoundDuration":243545,"Delta":477939037},{"NoteNumber":59,"Velocity":51,"Duration":243545,"SoundDuration":243545,"Delta":477939037},{"NoteNumber":86,"Velocity":69,"Duration":121773,"SoundDuration":121773,"Delta":478060810},{"NoteNumber":80,"Velocity":57,"Duration":121773,"SoundDuration":121773,"Delta":478060810},{"NoteNumber":74,"Velocity":77,"Duration":121773,"SoundDuration":121773,"Delta":478182583},{"NoteNumber":51,"Velocity":56,"Duration":494096,"SoundDuration":494096,"Delta":478182583},{"NoteNumber":72,"Velocity":67,"Duration":121772,"SoundDuration":121772,"Delta":478304356},{"NoteNumber":68,"Velocity":56,"Duration":121772,"SoundDuration":121772,"Delta":478304356},{"NoteNumber":60,"Velocity":67,"Duration":121772,"SoundDuration":121772,"Delta":478426129},{"NoteNumber":56,"Velocity":49,"Duration":250550,"SoundDuration":250550,"Delta":478426129},{"NoteNumber":68,"Velocity":56,"Duration":128777,"SoundDuration":128777,"Delta":478547902},{"NoteNumber":72,"Velocity":67,"Duration":128777,"SoundDuration":128777,"Delta":478547902},{"NoteNumber":60,"Velocity":77,"Duration":243545,"SoundDuration":243545,"Delta":478676680},{"NoteNumber":42,"Velocity":56,"Duration":121773,"SoundDuration":121773,"Delta":478676680},{"NoteNumber":72,"Velocity":69,"Duration":121772,"SoundDuration":121772,"Delta":478798453},{"NoteNumber":63,"Velocity":57,"Duration":121772,"SoundDuration":121772,"Delta":478798453},{"NoteNumber":72,"Velocity":69,"Duration":243546,"SoundDuration":243546,"Delta":478920226},{"NoteNumber":60,"Velocity":43,"Duration":243546,"SoundDuration":243546,"Delta":478920226},{"NoteNumber":54,"Velocity":43,"Duration":243546,"SoundDuration":243546,"Delta":478920226},{"NoteNumber":63,"Velocity":51,"Duration":243546,"SoundDuration":243546,"Delta":478920226},{"NoteNumber":84,"Velocity":69,"Duration":121773,"SoundDuration":121773,"Delta":479041999},{"NoteNumber":75,"Velocity":57,"Duration":121773,"SoundDuration":121773,"Delta":479041999},{"NoteNumber":72,"Velocity":77,"Duration":243545,"SoundDuration":243545,"Delta":479163772},{"NoteNumber":55,"Velocity":43,"Duration":243545,"SoundDuration":243545,"Delta":479163772},{"NoteNumber":62,"Velocity":53,"Duration":243545,"SoundDuration":243545,"Delta":479163772},{"NoteNumber":58,"Velocity":43,"Duration":243545,"SoundDuration":243545,"Delta":479163772},{"NoteNumber":75,"Velocity":56,"Duration":121773,"SoundDuration":121773,"Delta":479285545},{"NoteNumber":84,"Velocity":67,"Duration":121773,"SoundDuration":121773,"Delta":479285545},{"NoteNumber":70,"Velocity":67,"Duration":243545,"SoundDuration":243545,"Delta":479407318},{"NoteNumber":43,"Velocity":56,"Duration":121773,"SoundDuration":121773,"Delta":479407318},{"NoteNumber":74,"Velocity":56,"Duration":121772,"SoundDuration":121772,"Delta":479529091},{"NoteNumber":82,"Velocity":67,"Duration":121772,"SoundDuration":121772,"Delta":479529091},{"NoteNumber":70,"Velocity":77,"Duration":244062,"SoundDuration":244062,"Delta":479650864},{"NoteNumber":48,"Velocity":56,"Duration":121773,"SoundDuration":121773,"Delta":479650864},{"NoteNumber":82,"Velocity":69,"Duration":122289,"SoundDuration":122289,"Delta":479772637},{"NoteNumber":74,"Velocity":57,"Duration":122289,"SoundDuration":122289,"Delta":479772637},{"NoteNumber":69,"Velocity":69,"Duration":246104,"SoundDuration":246104,"Delta":479894926},{"NoteNumber":67,"Velocity":51,"Duration":244049,"SoundDuration":244049,"Delta":479894926},{"NoteNumber":57,"Velocity":43,"Duration":246104,"SoundDuration":246104,"Delta":479894926},{"NoteNumber":63,"Velocity":43,"Duration":246104,"SoundDuration":246104,"Delta":479894926},{"NoteNumber":72,"Velocity":57,"Duration":123314,"SoundDuration":123314,"Delta":480017716},{"NoteNumber":81,"Velocity":69,"Duration":123314,"SoundDuration":123314,"Delta":480017716},{"NoteNumber":67,"Velocity":77,"Duration":248221,"SoundDuration":248221,"Delta":480141031},{"NoteNumber":50,"Velocity":56,"Duration":498556,"SoundDuration":498556,"Delta":480141031},{"NoteNumber":79,"Velocity":67,"Duration":124367,"SoundDuration":124367,"Delta":480264885},{"NoteNumber":70,"Velocity":56,"Duration":124367,"SoundDuration":124367,"Delta":480264885},{"NoteNumber":66,"Velocity":67,"Duration":250334,"SoundDuration":250334,"Delta":480389253},{"NoteNumber":57,"Velocity":43,"Duration":250334,"SoundDuration":250334,"Delta":480389253},{"NoteNumber":60,"Velocity":43,"Duration":250334,"SoundDuration":250334,"Delta":480389253},{"NoteNumber":62,"Velocity":51,"Duration":250334,"SoundDuration":250334,"Delta":480389253},{"NoteNumber":69,"Velocity":56,"Duration":125438,"SoundDuration":125438,"Delta":480514149},{"NoteNumber":78,"Velocity":67,"Duration":125438,"SoundDuration":125438,"Delta":480514149},{"NoteNumber":79,"Velocity":87,"Duration":138248,"SoundDuration":138248,"Delta":480639588},{"NoteNumber":67,"Velocity":73,"Duration":138248,"SoundDuration":138248,"Delta":480639588},{"NoteNumber":70,"Velocity":73,"Duration":138248,"SoundDuration":138248,"Delta":480639588},{"NoteNumber":55,"Velocity":53,"Duration":138248,"SoundDuration":138248,"Delta":480639588},{"NoteNumber":62,"Velocity":63,"Duration":138248,"SoundDuration":138248,"Delta":480639588},{"NoteNumber":58,"Velocity":53,"Duration":138248,"SoundDuration":138248,"Delta":480646500},{"NoteNumber":80,"Velocity":70,"Duration":247708,"SoundDuration":247708,"Delta":480916085},{"NoteNumber":48,"Velocity":65,"Duration":743125,"SoundDuration":743125,"Delta":480916085},{"NoteNumber":92,"Velocity":72,"Duration":123854,"SoundDuration":123854,"Delta":481039939},{"NoteNumber":87,"Velocity":60,"Duration":123854,"SoundDuration":123854,"Delta":481039939},{"NoteNumber":80,"Velocity":72,"Duration":123854,"SoundDuration":123854,"Delta":481163794},{"NoteNumber":75,"Velocity":63,"Duration":123854,"SoundDuration":123854,"Delta":481287648},{"NoteNumber":80,"Velocity":75,"Duration":123854,"SoundDuration":123854,"Delta":481287648},{"NoteNumber":67,"Velocity":77,"Duration":247708,"SoundDuration":247708,"Delta":481411502},{"NoteNumber":56,"Velocity":47,"Duration":247708,"SoundDuration":247708,"Delta":481411502},{"NoteNumber":63,"Velocity":56,"Duration":247708,"SoundDuration":247708,"Delta":481411502},{"NoteNumber":75,"Velocity":65,"Duration":123854,"SoundDuration":123854,"Delta":481535356},{"NoteNumber":79,"Velocity":77,"Duration":123854,"SoundDuration":123854,"Delta":481535356},{"NoteNumber":66,"Velocity":87,"Duration":241507,"SoundDuration":241507,"Delta":481659211},{"NoteNumber":50,"Velocity":63,"Duration":120753,"SoundDuration":120753,"Delta":481659211},{"NoteNumber":78,"Velocity":77,"Duration":120753,"SoundDuration":120753,"Delta":481779964},{"NoteNumber":69,"Velocity":65,"Duration":120753,"SoundDuration":120753,"Delta":481779964},{"NoteNumber":78,"Velocity":77,"Duration":120753,"SoundDuration":120753,"Delta":481900718},{"NoteNumber":62,"Velocity":57,"Duration":241507,"SoundDuration":241507,"Delta":481900718},{"NoteNumber":57,"Velocity":48,"Duration":241507,"SoundDuration":241507,"Delta":481900718},{"NoteNumber":60,"Velocity":48,"Duration":241507,"SoundDuration":241507,"Delta":481900718},{"NoteNumber":90,"Velocity":77,"Duration":120753,"SoundDuration":120753,"Delta":482021471},{"NoteNumber":81,"Velocity":65,"Duration":120753,"SoundDuration":120753,"Delta":482021471},{"NoteNumber":79,"Velocity":87,"Duration":241506,"SoundDuration":241506,"Delta":482142225},{"NoteNumber":43,"Velocity":63,"Duration":120753,"SoundDuration":120753,"Delta":482142225},{"NoteNumber":82,"Velocity":64,"Duration":120753,"SoundDuration":120753,"Delta":482262978},{"NoteNumber":91,"Velocity":75,"Duration":120753,"SoundDuration":120753,"Delta":482262978},{"NoteNumber":79,"Velocity":75,"Duration":135135,"SoundDuration":135135,"Delta":482383732},{"NoteNumber":58,"Velocity":47,"Duration":270270,"SoundDuration":270270,"Delta":482383732},{"NoteNumber":55,"Velocity":47,"Duration":270270,"SoundDuration":270270,"Delta":482383732},{"NoteNumber":62,"Velocity":55,"Duration":270270,"SoundDuration":270270,"Delta":482383732},{"NoteNumber":70,"Velocity":64,"Duration":135135,"SoundDuration":135135,"Delta":482518867},{"NoteNumber":79,"Velocity":75,"Duration":135135,"SoundDuration":135135,"Delta":482518867},{"NoteNumber":68,"Velocity":77,"Duration":253164,"SoundDuration":253164,"Delta":482654002},{"NoteNumber":48,"Velocity":65,"Duration":999371,"SoundDuration":999371,"Delta":482654002},{"NoteNumber":75,"Velocity":60,"Duration":126582,"SoundDuration":126582,"Delta":482780584},{"NoteNumber":80,"Velocity":72,"Duration":126582,"SoundDuration":126582,"Delta":482780584},{"NoteNumber":80,"Velocity":74,"Duration":248735,"SoundDuration":248735,"Delta":482907167},{"NoteNumber":56,"Velocity":44,"Duration":746206,"SoundDuration":746206,"Delta":482907167},{"NoteNumber":63,"Velocity":53,"Duration":746206,"SoundDuration":746206,"Delta":482907167},{"NoteNumber":92,"Velocity":76,"Duration":124367,"SoundDuration":124367,"Delta":483031534},{"NoteNumber":87,"Velocity":65,"Duration":124367,"SoundDuration":124367,"Delta":483031534},{"NoteNumber":80,"Velocity":76,"Duration":124367,"SoundDuration":124367,"Delta":483155902},{"NoteNumber":50,"Velocity":72,"Duration":248735,"SoundDuration":248735,"Delta":483155902},{"NoteNumber":75,"Velocity":65,"Duration":124367,"SoundDuration":124367,"Delta":483280270},{"NoteNumber":80,"Velocity":78,"Duration":124367,"SoundDuration":124367,"Delta":483280270},{"NoteNumber":67,"Velocity":77,"Duration":248735,"SoundDuration":248735,"Delta":483404638},{"NoteNumber":51,"Velocity":72,"Duration":248735,"SoundDuration":248735,"Delta":483404638},{"NoteNumber":79,"Velocity":77,"Duration":124367,"SoundDuration":124367,"Delta":483529005},{"NoteNumber":72,"Velocity":65,"Duration":124367,"SoundDuration":124367,"Delta":483529005},{"NoteNumber":66,"Velocity":87,"Duration":242522,"SoundDuration":242522,"Delta":483653373},{"NoteNumber":50,"Velocity":63,"Duration":121261,"SoundDuration":121261,"Delta":483653373},{"NoteNumber":69,"Velocity":65,"Duration":121261,"SoundDuration":121261,"Delta":483774634},{"NoteNumber":78,"Velocity":77,"Duration":121261,"SoundDuration":121261,"Delta":483774634},{"NoteNumber":78,"Velocity":77,"Duration":121261,"SoundDuration":121261,"Delta":483895895},{"NoteNumber":62,"Velocity":57,"Duration":242522,"SoundDuration":242522,"Delta":483895895},{"NoteNumber":57,"Velocity":48,"Duration":242522,"SoundDuration":242522,"Delta":483895895},{"NoteNumber":60,"Velocity":48,"Duration":242522,"SoundDuration":242522,"Delta":483895895},{"NoteNumber":81,"Velocity":65,"Duration":121261,"SoundDuration":121261,"Delta":484017156},{"NoteNumber":90,"Velocity":77,"Duration":121261,"SoundDuration":121261,"Delta":484017156},{"NoteNumber":79,"Velocity":87,"Duration":242522,"SoundDuration":242522,"Delta":484138417},{"NoteNumber":43,"Velocity":63,"Duration":121261,"SoundDuration":121261,"Delta":484138417},{"NoteNumber":91,"Velocity":75,"Duration":121261,"SoundDuration":121261,"Delta":484259678},{"NoteNumber":82,"Velocity":64,"Duration":121261,"SoundDuration":121261,"Delta":484259678},{"NoteNumber":79,"Velocity":75,"Duration":126529,"SoundDuration":126529,"Delta":484380939},{"NoteNumber":62,"Velocity":55,"Duration":253058,"SoundDuration":253058,"Delta":484380939},{"NoteNumber":55,"Velocity":47,"Duration":253058,"SoundDuration":253058,"Delta":484380939},{"NoteNumber":58,"Velocity":47,"Duration":253058,"SoundDuration":253058,"Delta":484380939},{"NoteNumber":70,"Velocity":64,"Duration":126529,"SoundDuration":126529,"Delta":484507468},{"NoteNumber":79,"Velocity":75,"Duration":126529,"SoundDuration":126529,"Delta":484507468},{"NoteNumber":65,"Velocity":77,"Duration":249094,"SoundDuration":249094,"Delta":484633997},{"NoteNumber":47,"Velocity":65,"Duration":126529,"SoundDuration":126529,"Delta":484633997},{"NoteNumber":35,"Velocity":54,"Duration":126529,"SoundDuration":126529,"Delta":484633997},{"NoteNumber":68,"Velocity":59,"Duration":122565,"SoundDuration":122565,"Delta":484760526},{"NoteNumber":77,"Velocity":71,"Duration":122565,"SoundDuration":122565,"Delta":484760526},{"NoteNumber":77,"Velocity":70,"Duration":121773,"SoundDuration":121773,"Delta":484883092},{"NoteNumber":53,"Velocity":43,"Duration":243546,"SoundDuration":243546,"Delta":484883092},{"NoteNumber":62,"Velocity":51,"Duration":243546,"SoundDuration":243546,"Delta":484883092},{"NoteNumber":56,"Velocity":43,"Duration":243546,"SoundDuration":243546,"Delta":484883092},{"NoteNumber":80,"Velocity":59,"Duration":121773,"SoundDuration":121773,"Delta":485004865},{"NoteNumber":89,"Velocity":71,"Duration":121773,"SoundDuration":121773,"Delta":485004865},{"NoteNumber":77,"Velocity":68,"Duration":121772,"SoundDuration":121772,"Delta":485126638},{"NoteNumber":48,"Velocity":60,"Duration":121772,"SoundDuration":121772,"Delta":485126638},{"NoteNumber":36,"Velocity":51,"Duration":121772,"SoundDuration":121772,"Delta":485126638},{"NoteNumber":67,"Velocity":66,"Duration":121773,"SoundDuration":121773,"Delta":485248411},{"NoteNumber":75,"Velocity":77,"Duration":121773,"SoundDuration":121773,"Delta":485248411},{"NoteNumber":63,"Velocity":69,"Duration":243545,"SoundDuration":243545,"Delta":485370184},{"NoteNumber":60,"Velocity":50,"Duration":243545,"SoundDuration":243545,"Delta":485370184},{"NoteNumber":51,"Velocity":42,"Duration":243545,"SoundDuration":243545,"Delta":485370184},{"NoteNumber":55,"Velocity":42,"Duration":243545,"SoundDuration":243545,"Delta":485370184},{"NoteNumber":67,"Velocity":57,"Duration":121772,"SoundDuration":121772,"Delta":485491957},{"NoteNumber":75,"Velocity":69,"Duration":121772,"SoundDuration":121772,"Delta":485491957},{"NoteNumber":62,"Velocity":77,"Duration":250871,"SoundDuration":250871,"Delta":485613730},{"NoteNumber":38,"Velocity":54,"Duration":128052,"SoundDuration":128052,"Delta":485613730},{"NoteNumber":50,"Velocity":65,"Duration":128052,"SoundDuration":128052,"Delta":485613730},{"NoteNumber":66,"Velocity":59,"Duration":122819,"SoundDuration":122819,"Delta":485741782},{"NoteNumber":74,"Velocity":71,"Duration":122819,"SoundDuration":122819,"Delta":485741782},{"NoteNumber":74,"Velocity":70,"Duration":121773,"SoundDuration":121773,"Delta":485864601},{"NoteNumber":54,"Velocity":43,"Duration":243546,"SoundDuration":243546,"Delta":485864601},{"NoteNumber":57,"Velocity":51,"Duration":243546,"SoundDuration":243546,"Delta":485864601},{"NoteNumber":78,"Velocity":59,"Duration":121773,"SoundDuration":121773,"Delta":485986374},{"NoteNumber":86,"Velocity":71,"Duration":121773,"SoundDuration":121773,"Delta":485986374},{"NoteNumber":74,"Velocity":68,"Duration":121772,"SoundDuration":121772,"Delta":486108147},{"NoteNumber":40,"Velocity":51,"Duration":121772,"SoundDuration":121772,"Delta":486108147},{"NoteNumber":52,"Velocity":60,"Duration":121772,"SoundDuration":121772,"Delta":486108147},{"NoteNumber":73,"Velocity":77,"Duration":121773,"SoundDuration":121773,"Delta":486229920},{"NoteNumber":64,"Velocity":66,"Duration":121773,"SoundDuration":121773,"Delta":486229920},{"NoteNumber":61,"Velocity":69,"Duration":243545,"SoundDuration":243545,"Delta":486351693},{"NoteNumber":58,"Velocity":50,"Duration":243545,"SoundDuration":243545,"Delta":486351693},{"NoteNumber":55,"Velocity":42,"Duration":243545,"SoundDuration":243545,"Delta":486351693},{"NoteNumber":73,"Velocity":69,"Duration":121772,"SoundDuration":121772,"Delta":486473466},{"NoteNumber":64,"Velocity":57,"Duration":121772,"SoundDuration":121772,"Delta":486473466},{"NoteNumber":60,"Velocity":77,"Duration":249020,"SoundDuration":249020,"Delta":486595239},{"NoteNumber":54,"Velocity":65,"Duration":126464,"SoundDuration":126464,"Delta":486595239},{"NoteNumber":42,"Velocity":54,"Duration":126464,"SoundDuration":126464,"Delta":486595239},{"NoteNumber":63,"Velocity":59,"Duration":122555,"SoundDuration":122555,"Delta":486721704},{"NoteNumber":72,"Velocity":71,"Duration":122555,"SoundDuration":122555,"Delta":486721704},{"NoteNumber":72,"Velocity":70,"Duration":243546,"SoundDuration":243546,"Delta":486844259},{"NoteNumber":60,"Velocity":43,"Duration":243546,"SoundDuration":243546,"Delta":486844259},{"NoteNumber":63,"Velocity":51,"Duration":243546,"SoundDuration":243546,"Delta":486844259},{"NoteNumber":54,"Velocity":43,"Duration":243546,"SoundDuration":243546,"Delta":486844259},{"NoteNumber":75,"Velocity":59,"Duration":121773,"SoundDuration":121773,"Delta":486966032},{"NoteNumber":84,"Velocity":71,"Duration":121773,"SoundDuration":121773,"Delta":486966032},{"NoteNumber":71,"Velocity":68,"Duration":243545,"SoundDuration":243545,"Delta":487087805},{"NoteNumber":55,"Velocity":43,"Duration":243545,"SoundDuration":243545,"Delta":487087805},{"NoteNumber":60,"Velocity":43,"Duration":243545,"SoundDuration":243545,"Delta":487087805},{"NoteNumber":63,"Velocity":51,"Duration":243545,"SoundDuration":243545,"Delta":487087805},{"NoteNumber":83,"Velocity":73,"Duration":121773,"SoundDuration":121773,"Delta":487209578},{"NoteNumber":75,"Velocity":64,"Duration":121773,"SoundDuration":121773,"Delta":487209578},{"NoteNumber":72,"Velocity":70,"Duration":243545,"SoundDuration":243545,"Delta":487331351},{"NoteNumber":43,"Velocity":48,"Duration":121773,"SoundDuration":121773,"Delta":487331351},{"NoteNumber":55,"Velocity":58,"Duration":121773,"SoundDuration":121773,"Delta":487331351},{"NoteNumber":84,"Velocity":70,"Duration":121772,"SoundDuration":121772,"Delta":487453124},{"NoteNumber":75,"Velocity":58,"Duration":121772,"SoundDuration":121772,"Delta":487453124},{"NoteNumber":72,"Velocity":79,"Duration":249631,"SoundDuration":249631,"Delta":487574897},{"NoteNumber":44,"Velocity":55,"Duration":126989,"SoundDuration":126989,"Delta":487574897},{"NoteNumber":56,"Velocity":66,"Duration":126989,"SoundDuration":126989,"Delta":487574897},{"NoteNumber":84,"Velocity":73,"Duration":122642,"SoundDuration":122642,"Delta":487701887},{"NoteNumber":75,"Velocity":61,"Duration":122642,"SoundDuration":122642,"Delta":487701887},{"NoteNumber":75,"Velocity":72,"Duration":243546,"SoundDuration":243546,"Delta":487824529},{"NoteNumber":63,"Velocity":44,"Duration":243546,"SoundDuration":243546,"Delta":487824529},{"NoteNumber":67,"Velocity":52,"Duration":243546,"SoundDuration":243546,"Delta":487824529},{"NoteNumber":56,"Velocity":44,"Duration":243546,"SoundDuration":243546,"Delta":487824529},{"NoteNumber":78,"Velocity":61,"Duration":121773,"SoundDuration":121773,"Delta":487946302},{"NoteNumber":87,"Velocity":74,"Duration":121773,"SoundDuration":121773,"Delta":487946302},{"NoteNumber":74,"Velocity":71,"Duration":243545,"SoundDuration":243545,"Delta":488068075},{"NoteNumber":57,"Velocity":45,"Duration":243545,"SoundDuration":243545,"Delta":488068075},{"NoteNumber":67,"Velocity":53,"Duration":243545,"SoundDuration":243545,"Delta":488068075},{"NoteNumber":63,"Velocity":45,"Duration":243545,"SoundDuration":243545,"Delta":488068075},{"NoteNumber":78,"Velocity":69,"Duration":121773,"SoundDuration":121773,"Delta":488189848},{"NoteNumber":86,"Velocity":81,"Duration":121773,"SoundDuration":121773,"Delta":488189848},{"NoteNumber":75,"Velocity":72,"Duration":243545,"SoundDuration":243545,"Delta":488311621},{"NoteNumber":45,"Velocity":50,"Duration":121773,"SoundDuration":121773,"Delta":488311621},{"NoteNumber":57,"Velocity":60,"Duration":121773,"SoundDuration":121773,"Delta":488311621},{"NoteNumber":78,"Velocity":60,"Duration":121772,"SoundDuration":121772,"Delta":488433394},{"NoteNumber":87,"Velocity":73,"Duration":121772,"SoundDuration":121772,"Delta":488433394},{"NoteNumber":75,"Velocity":82,"Duration":249631,"SoundDuration":249631,"Delta":488555167},{"NoteNumber":58,"Velocity":69,"Duration":126989,"SoundDuration":126989,"Delta":488555167},{"NoteNumber":46,"Velocity":57,"Duration":126989,"SoundDuration":126989,"Delta":488555167},{"NoteNumber":78,"Velocity":63,"Duration":122642,"SoundDuration":122642,"Delta":488682157},{"NoteNumber":87,"Velocity":75,"Duration":122642,"SoundDuration":122642,"Delta":488682157},{"NoteNumber":78,"Velocity":75,"Duration":243546,"SoundDuration":243546,"Delta":488804799},{"NoteNumber":63,"Velocity":46,"Duration":243546,"SoundDuration":243546,"Delta":488804799},{"NoteNumber":58,"Velocity":46,"Duration":243546,"SoundDuration":243546,"Delta":488804799},{"NoteNumber":66,"Velocity":54,"Duration":243546,"SoundDuration":243546,"Delta":488804799},{"NoteNumber":82,"Velocity":64,"Duration":121773,"SoundDuration":121773,"Delta":488926572},{"NoteNumber":90,"Velocity":76,"Duration":121773,"SoundDuration":121773,"Delta":488926572},{"NoteNumber":77,"Velocity":73,"Duration":243545,"SoundDuration":243545,"Delta":489048345},{"NoteNumber":69,"Velocity":55,"Duration":243545,"SoundDuration":243545,"Delta":489048345},{"NoteNumber":59,"Velocity":46,"Duration":243545,"SoundDuration":243545,"Delta":489048345},{"NoteNumber":63,"Velocity":46,"Duration":243545,"SoundDuration":243545,"Delta":489048345},{"NoteNumber":89,"Velocity":84,"Duration":121773,"SoundDuration":121773,"Delta":489170118},{"NoteNumber":80,"Velocity":71,"Duration":121773,"SoundDuration":121773,"Delta":489170118},{"NoteNumber":78,"Velocity":75,"Duration":243545,"SoundDuration":243545,"Delta":489291891},{"NoteNumber":47,"Velocity":52,"Duration":121773,"SoundDuration":121773,"Delta":489291891},{"NoteNumber":59,"Velocity":63,"Duration":121773,"SoundDuration":121773,"Delta":489291891},{"NoteNumber":90,"Velocity":75,"Duration":121772,"SoundDuration":121772,"Delta":489413664},{"NoteNumber":81,"Velocity":63,"Duration":121772,"SoundDuration":121772,"Delta":489413664},{"NoteNumber":78,"Velocity":86,"Duration":249631,"SoundDuration":249631,"Delta":489535437},{"NoteNumber":48,"Velocity":59,"Duration":126989,"SoundDuration":126989,"Delta":489535437},{"NoteNumber":60,"Velocity":71,"Duration":126989,"SoundDuration":126989,"Delta":489535437},{"NoteNumber":81,"Velocity":66,"Duration":122642,"SoundDuration":122642,"Delta":489662427},{"NoteNumber":90,"Velocity":78,"Duration":122642,"SoundDuration":122642,"Delta":489662427},{"NoteNumber":81,"Velocity":78,"Duration":243546,"SoundDuration":243546,"Delta":489785069},{"NoteNumber":66,"Velocity":47,"Duration":487092,"SoundDuration":487092,"Delta":489785069},{"NoteNumber":62,"Velocity":47,"Duration":487092,"SoundDuration":487092,"Delta":489785069},{"NoteNumber":60,"Velocity":47,"Duration":487092,"SoundDuration":487092,"Delta":489785069},{"NoteNumber":69,"Velocity":56,"Duration":487092,"SoundDuration":487092,"Delta":489785069},{"NoteNumber":93,"Velocity":79,"Duration":121773,"SoundDuration":121773,"Delta":489906842},{"NoteNumber":84,"Velocity":66,"Duration":121773,"SoundDuration":121773,"Delta":489906842},{"NoteNumber":82,"Velocity":76,"Duration":243545,"SoundDuration":243545,"Delta":490028615},{"NoteNumber":94,"Velocity":87,"Duration":121773,"SoundDuration":121773,"Delta":490150388},{"NoteNumber":86,"Velocity":74,"Duration":121773,"SoundDuration":121773,"Delta":490150388},{"NoteNumber":84,"Velocity":78,"Duration":252514,"SoundDuration":252514,"Delta":490272161},{"NoteNumber":60,"Velocity":57,"Duration":252514,"SoundDuration":252514,"Delta":490272161},{"NoteNumber":66,"Velocity":48,"Duration":252514,"SoundDuration":252514,"Delta":490272161},{"NoteNumber":62,"Velocity":57,"Duration":252514,"SoundDuration":252514,"Delta":490272161},{"NoteNumber":69,"Velocity":57,"Duration":252514,"SoundDuration":252514,"Delta":490272161},{"NoteNumber":96,"Velocity":78,"Duration":130741,"SoundDuration":130741,"Delta":490393934},{"NoteNumber":87,"Velocity":65,"Duration":130741,"SoundDuration":130741,"Delta":490393934},{"NoteNumber":84,"Velocity":89,"Duration":249940,"SoundDuration":249940,"Delta":490524676},{"NoteNumber":58,"Velocity":74,"Duration":126989,"SoundDuration":126989,"Delta":490524676},{"NoteNumber":46,"Velocity":61,"Duration":126989,"SoundDuration":126989,"Delta":490524676},{"NoteNumber":87,"Velocity":68,"Duration":122950,"SoundDuration":122950,"Delta":490651665},{"NoteNumber":96,"Velocity":81,"Duration":122950,"SoundDuration":122950,"Delta":490651665},{"NoteNumber":82,"Velocity":80,"Duration":245901,"SoundDuration":245901,"Delta":490774616},{"NoteNumber":55,"Velocity":49,"Duration":245901,"SoundDuration":245901,"Delta":490774616},{"NoteNumber":62,"Velocity":49,"Duration":245901,"SoundDuration":245901,"Delta":490774616},{"NoteNumber":67,"Velocity":58,"Duration":245901,"SoundDuration":245901,"Delta":490774616},{"NoteNumber":86,"Velocity":68,"Duration":122950,"SoundDuration":122950,"Delta":490897567},{"NoteNumber":94,"Velocity":81,"Duration":122950,"SoundDuration":122950,"Delta":490897567},{"NoteNumber":82,"Velocity":77,"Duration":245901,"SoundDuration":245901,"Delta":491020518},{"NoteNumber":48,"Velocity":54,"Duration":122950,"SoundDuration":122950,"Delta":491020518},{"NoteNumber":60,"Velocity":66,"Duration":122950,"SoundDuration":122950,"Delta":491020518},{"NoteNumber":86,"Velocity":75,"Duration":122950,"SoundDuration":122950,"Delta":491143468},{"NoteNumber":94,"Velocity":89,"Duration":122950,"SoundDuration":122950,"Delta":491143468},{"NoteNumber":81,"Velocity":78,"Duration":245901,"SoundDuration":245901,"Delta":491266419},{"NoteNumber":57,"Velocity":54,"Duration":245901,"SoundDuration":245901,"Delta":491266419},{"NoteNumber":67,"Velocity":66,"Duration":245901,"SoundDuration":245901,"Delta":491266419},{"NoteNumber":63,"Velocity":54,"Duration":245901,"SoundDuration":245901,"Delta":491266419},{"NoteNumber":93,"Velocity":78,"Duration":122950,"SoundDuration":122950,"Delta":491389370},{"NoteNumber":84,"Velocity":66,"Duration":122950,"SoundDuration":122950,"Delta":491389370},{"NoteNumber":81,"Velocity":89,"Duration":254749,"SoundDuration":254749,"Delta":491512321},{"NoteNumber":62,"Velocity":74,"Duration":131302,"SoundDuration":131302,"Delta":491512321},{"NoteNumber":50,"Velocity":61,"Duration":131302,"SoundDuration":131302,"Delta":491512321},{"NoteNumber":93,"Velocity":81,"Duration":123446,"SoundDuration":123446,"Delta":491643623},{"NoteNumber":84,"Velocity":68,"Duration":123446,"SoundDuration":123446,"Delta":491643623},{"NoteNumber":79,"Velocity":80,"Duration":246893,"SoundDuration":246893,"Delta":491767070},{"NoteNumber":70,"Velocity":58,"Duration":246893,"SoundDuration":246893,"Delta":491767070},{"NoteNumber":67,"Velocity":49,"Duration":246893,"SoundDuration":246893,"Delta":491767070},{"NoteNumber":62,"Velocity":49,"Duration":246893,"SoundDuration":246893,"Delta":491767070},{"NoteNumber":82,"Velocity":68,"Duration":123446,"SoundDuration":123446,"Delta":491890517},{"NoteNumber":91,"Velocity":81,"Duration":123446,"SoundDuration":123446,"Delta":491890517},{"NoteNumber":79,"Velocity":77,"Duration":246893,"SoundDuration":246893,"Delta":492013963},{"NoteNumber":48,"Velocity":54,"Duration":123446,"SoundDuration":123446,"Delta":492013963},{"NoteNumber":60,"Velocity":66,"Duration":123446,"SoundDuration":123446,"Delta":492013963},{"NoteNumber":82,"Velocity":75,"Duration":123446,"SoundDuration":123446,"Delta":492137410},{"NoteNumber":91,"Velocity":89,"Duration":123446,"SoundDuration":123446,"Delta":492137410},{"NoteNumber":74,"Velocity":78,"Duration":253103,"SoundDuration":253103,"Delta":492260857},{"NoteNumber":66,"Velocity":54,"Duration":253103,"SoundDuration":253103,"Delta":492260857},{"NoteNumber":69,"Velocity":66,"Duration":253103,"SoundDuration":253103,"Delta":492260857},{"NoteNumber":62,"Velocity":54,"Duration":253103,"SoundDuration":253103,"Delta":492260857},{"NoteNumber":60,"Velocity":54,"Duration":253103,"SoundDuration":253103,"Delta":492260857},{"NoteNumber":78,"Velocity":66,"Duration":129656,"SoundDuration":129656,"Delta":492384304},{"NoteNumber":86,"Velocity":78,"Duration":129656,"SoundDuration":129656,"Delta":492384304},{"NoteNumber":46,"Velocity":52,"Duration":131856,"SoundDuration":131856,"Delta":492513960},{"NoteNumber":58,"Velocity":61,"Duration":131856,"SoundDuration":131856,"Delta":492513960},{"NoteNumber":82,"Velocity":77,"Duration":124439,"SoundDuration":124439,"Delta":492645817},{"NoteNumber":86,"Velocity":71,"Duration":124439,"SoundDuration":124439,"Delta":492770257},{"NoteNumber":94,"Velocity":84,"Duration":124439,"SoundDuration":124439,"Delta":492770257},{"NoteNumber":62,"Velocity":46,"Duration":248879,"SoundDuration":248879,"Delta":492770257},{"NoteNumber":55,"Velocity":46,"Duration":248879,"SoundDuration":248879,"Delta":492770257},{"NoteNumber":67,"Velocity":54,"Duration":248879,"SoundDuration":248879,"Delta":492770257},{"NoteNumber":82,"Velocity":80,"Duration":124439,"SoundDuration":124439,"Delta":492894697},{"NoteNumber":94,"Velocity":82,"Duration":124440,"SoundDuration":124440,"Delta":493019137},{"NoteNumber":85,"Velocity":70,"Duration":124440,"SoundDuration":124440,"Delta":493019137},{"NoteNumber":60,"Velocity":58,"Duration":124440,"SoundDuration":124440,"Delta":493019137},{"NoteNumber":48,"Velocity":48,"Duration":124440,"SoundDuration":124440,"Delta":493019137},{"NoteNumber":82,"Velocity":79,"Duration":124439,"SoundDuration":124439,"Delta":493143577},{"NoteNumber":93,"Velocity":85,"Duration":124439,"SoundDuration":124439,"Delta":493268017},{"NoteNumber":84,"Velocity":72,"Duration":124439,"SoundDuration":124439,"Delta":493268017},{"NoteNumber":57,"Velocity":48,"Duration":248879,"SoundDuration":248879,"Delta":493268017},{"NoteNumber":63,"Velocity":48,"Duration":248879,"SoundDuration":248879,"Delta":493268017},{"NoteNumber":67,"Velocity":57,"Duration":248879,"SoundDuration":248879,"Delta":493268017},{"NoteNumber":81,"Velocity":81,"Duration":124439,"SoundDuration":124439,"Delta":493392457},{"NoteNumber":93,"Velocity":88,"Duration":131302,"SoundDuration":131302,"Delta":493516897},{"NoteNumber":84,"Velocity":74,"Duration":131302,"SoundDuration":131302,"Delta":493516897},{"NoteNumber":50,"Velocity":56,"Duration":131302,"SoundDuration":131302,"Delta":493516897},{"NoteNumber":62,"Velocity":68,"Duration":131302,"SoundDuration":131302,"Delta":493516897},{"NoteNumber":81,"Velocity":79,"Duration":124937,"SoundDuration":124937,"Delta":493648199},{"NoteNumber":82,"Velocity":74,"Duration":124937,"SoundDuration":124937,"Delta":493773137},{"NoteNumber":91,"Velocity":87,"Duration":124937,"SoundDuration":124937,"Delta":493773137},{"NoteNumber":67,"Velocity":49,"Duration":249875,"SoundDuration":249875,"Delta":493773137},{"NoteNumber":70,"Velocity":58,"Duration":249875,"SoundDuration":249875,"Delta":493773137},{"NoteNumber":62,"Velocity":49,"Duration":249875,"SoundDuration":249875,"Delta":493773137},{"NoteNumber":79,"Velocity":80,"Duration":124937,"SoundDuration":124937,"Delta":493898074},{"NoteNumber":82,"Velocity":75,"Duration":124937,"SoundDuration":124937,"Delta":494023012},{"NoteNumber":91,"Velocity":89,"Duration":124937,"SoundDuration":124937,"Delta":494023012},{"NoteNumber":48,"Velocity":51,"Duration":124937,"SoundDuration":124937,"Delta":494023012},{"NoteNumber":60,"Velocity":60,"Duration":124937,"SoundDuration":124937,"Delta":494023012},{"NoteNumber":79,"Velocity":79,"Duration":124937,"SoundDuration":124937,"Delta":494147949},{"NoteNumber":86,"Velocity":89,"Duration":124937,"SoundDuration":124937,"Delta":494272887},{"NoteNumber":78,"Velocity":75,"Duration":124937,"SoundDuration":124937,"Delta":494272887},{"NoteNumber":62,"Velocity":49,"Duration":256794,"SoundDuration":256794,"Delta":494272887},{"NoteNumber":69,"Velocity":49,"Duration":256794,"SoundDuration":256794,"Delta":494272887},{"NoteNumber":66,"Velocity":49,"Duration":256794,"SoundDuration":256794,"Delta":494272887},{"NoteNumber":60,"Velocity":49,"Duration":256794,"SoundDuration":256794,"Delta":494272887},{"NoteNumber":74,"Velocity":81,"Duration":131856,"SoundDuration":131856,"Delta":494397824},{"NoteNumber":58,"Velocity":87,"Duration":131856,"SoundDuration":131856,"Delta":494529681},{"NoteNumber":46,"Velocity":73,"Duration":131856,"SoundDuration":131856,"Delta":494529681},{"NoteNumber":86,"Velocity":87,"Duration":123446,"SoundDuration":123446,"Delta":494661537},{"NoteNumber":91,"Velocity":80,"Duration":123446,"SoundDuration":123446,"Delta":494784984},{"NoteNumber":94,"Velocity":80,"Duration":123446,"SoundDuration":123446,"Delta":494784984},{"NoteNumber":98,"Velocity":95,"Duration":123446,"SoundDuration":123446,"Delta":494784984},{"NoteNumber":86,"Velocity":86,"Duration":123446,"SoundDuration":123446,"Delta":494908431},{"NoteNumber":82,"Velocity":73,"Duration":123446,"SoundDuration":123446,"Delta":495031878},{"NoteNumber":86,"Velocity":86,"Duration":123446,"SoundDuration":123446,"Delta":495031878},{"NoteNumber":79,"Velocity":73,"Duration":123446,"SoundDuration":123446,"Delta":495031878},{"NoteNumber":74,"Velocity":78,"Duration":123446,"SoundDuration":123446,"Delta":495155324},{"NoteNumber":86,"Velocity":88,"Duration":123446,"SoundDuration":123446,"Delta":495278771},{"NoteNumber":82,"Velocity":74,"Duration":123446,"SoundDuration":123446,"Delta":495278771},{"NoteNumber":79,"Velocity":74,"Duration":123446,"SoundDuration":123446,"Delta":495278771},{"NoteNumber":74,"Velocity":78,"Duration":131856,"SoundDuration":131856,"Delta":495402218},{"NoteNumber":70,"Velocity":69,"Duration":123946,"SoundDuration":123946,"Delta":495534074},{"NoteNumber":74,"Velocity":81,"Duration":123946,"SoundDuration":123946,"Delta":495534074},{"NoteNumber":67,"Velocity":69,"Duration":123946,"SoundDuration":123946,"Delta":495534074},{"NoteNumber":62,"Velocity":77,"Duration":123946,"SoundDuration":123946,"Delta":495658021},{"NoteNumber":67,"Velocity":70,"Duration":123946,"SoundDuration":123946,"Delta":495781967},{"NoteNumber":70,"Velocity":70,"Duration":123946,"SoundDuration":123946,"Delta":495781967},{"NoteNumber":74,"Velocity":82,"Duration":123946,"SoundDuration":123946,"Delta":495781967},{"NoteNumber":62,"Velocity":76,"Duration":123946,"SoundDuration":123946,"Delta":495905914},{"NoteNumber":62,"Velocity":82,"Duration":123946,"SoundDuration":123946,"Delta":496029860},{"NoteNumber":58,"Velocity":70,"Duration":123946,"SoundDuration":123946,"Delta":496029860},{"NoteNumber":55,"Velocity":70,"Duration":123946,"SoundDuration":123946,"Delta":496029860},{"NoteNumber":50,"Velocity":74,"Duration":123946,"SoundDuration":123946,"Delta":496153807},{"NoteNumber":58,"Velocity":70,"Duration":123946,"SoundDuration":123946,"Delta":496277753},{"NoteNumber":62,"Velocity":82,"Duration":123946,"SoundDuration":123946,"Delta":496277753},{"NoteNumber":55,"Velocity":70,"Duration":123946,"SoundDuration":123946,"Delta":496277753},{"NoteNumber":50,"Velocity":64,"Duration":130741,"SoundDuration":130741,"Delta":496401700},{"NoteNumber":42,"Velocity":93,"Duration":128481,"SoundDuration":128481,"Delta":496532442},{"NoteNumber":30,"Velocity":78,"Duration":128481,"SoundDuration":128481,"Delta":496532442},{"NoteNumber":43,"Velocity":81,"Duration":129292,"SoundDuration":129292,"Delta":496660923},{"NoteNumber":31,"Velocity":69,"Duration":129292,"SoundDuration":129292,"Delta":496660923},{"NoteNumber":64,"Velocity":90,"Duration":130107,"SoundDuration":130107,"Delta":496790216},{"NoteNumber":58,"Velocity":75,"Duration":130107,"SoundDuration":130107,"Delta":496790216},{"NoteNumber":55,"Velocity":75,"Duration":130107,"SoundDuration":130107,"Delta":496790216},{"NoteNumber":50,"Velocity":77,"Duration":131022,"SoundDuration":131022,"Delta":496920323},{"NoteNumber":37,"Velocity":78,"Duration":131859,"SoundDuration":131859,"Delta":497051345},{"NoteNumber":49,"Velocity":93,"Duration":131859,"SoundDuration":131859,"Delta":497051345},{"NoteNumber":38,"Velocity":72,"Duration":132802,"SoundDuration":132802,"Delta":497183205},{"NoteNumber":50,"Velocity":85,"Duration":132802,"SoundDuration":132802,"Delta":497183205},{"NoteNumber":55,"Velocity":75,"Duration":133761,"SoundDuration":133761,"Delta":497316007},{"NoteNumber":58,"Velocity":75,"Duration":133761,"SoundDuration":133761,"Delta":497316007},{"NoteNumber":64,"Velocity":90,"Duration":133761,"SoundDuration":133761,"Delta":497316007},{"NoteNumber":50,"Velocity":81,"Duration":134634,"SoundDuration":134634,"Delta":497449769},{"NoteNumber":42,"Velocity":93,"Duration":134929,"SoundDuration":134929,"Delta":497584404},{"NoteNumber":30,"Velocity":78,"Duration":134929,"SoundDuration":134929,"Delta":497584404},{"NoteNumber":43,"Velocity":81,"Duration":136402,"SoundDuration":136402,"Delta":497719333},{"NoteNumber":31,"Velocity":69,"Duration":136402,"SoundDuration":136402,"Delta":497719333},{"NoteNumber":58,"Velocity":75,"Duration":137917,"SoundDuration":137917,"Delta":497855735},{"NoteNumber":55,"Velocity":75,"Duration":137917,"SoundDuration":137917,"Delta":497855735},{"NoteNumber":64,"Velocity":90,"Duration":137917,"SoundDuration":137917,"Delta":497855735},{"NoteNumber":50,"Velocity":77,"Duration":139683,"SoundDuration":139683,"Delta":497993653},{"NoteNumber":49,"Velocity":93,"Duration":144482,"SoundDuration":144482,"Delta":498133336},{"NoteNumber":37,"Velocity":78,"Duration":144482,"SoundDuration":144482,"Delta":498133336},{"NoteNumber":50,"Velocity":85,"Duration":151067,"SoundDuration":151067,"Delta":498277818},{"NoteNumber":38,"Velocity":72,"Duration":151067,"SoundDuration":151067,"Delta":498277818},{"NoteNumber":58,"Velocity":75,"Duration":158123,"SoundDuration":158123,"Delta":498428886},{"NoteNumber":55,"Velocity":75,"Duration":158123,"SoundDuration":158123,"Delta":498428886},{"NoteNumber":64,"Velocity":90,"Duration":158123,"SoundDuration":158123,"Delta":498428886},{"NoteNumber":50,"Velocity":81,"Duration":190621,"SoundDuration":190621,"Delta":498587009},{"NoteNumber":38,"Velocity":97,"Duration":759494,"SoundDuration":759494,"Delta":498777631},{"NoteNumber":26,"Velocity":81,"Duration":759494,"SoundDuration":759494,"Delta":498777631},{"NoteNumber":55,"Velocity":54,"Duration":90705,"SoundDuration":90705,"Delta":499537125},{"NoteNumber":56,"Velocity":54,"Duration":89787,"SoundDuration":89787,"Delta":499627830},{"NoteNumber":57,"Velocity":55,"Duration":91534,"SoundDuration":91534,"Delta":499717617},{"NoteNumber":58,"Velocity":55,"Duration":91118,"SoundDuration":91118,"Delta":499809152},{"NoteNumber":59,"Velocity":56,"Duration":90091,"SoundDuration":90091,"Delta":499900270},{"NoteNumber":60,"Velocity":56,"Duration":89994,"SoundDuration":89994,"Delta":499990361},{"NoteNumber":61,"Velocity":56,"Duration":92060,"SoundDuration":92060,"Delta":500080356},{"NoteNumber":62,"Velocity":57,"Duration":91639,"SoundDuration":91639,"Delta":500172416},{"NoteNumber":63,"Velocity":57,"Duration":90193,"SoundDuration":90193,"Delta":500264056},{"NoteNumber":64,"Velocity":58,"Duration":90607,"SoundDuration":90607,"Delta":500354249},{"NoteNumber":65,"Velocity":58,"Duration":91534,"SoundDuration":91534,"Delta":500444857},{"NoteNumber":66,"Velocity":58,"Duration":89789,"SoundDuration":89789,"Delta":500536391},{"NoteNumber":67,"Velocity":59,"Duration":89788,"SoundDuration":89788,"Delta":500626181},{"NoteNumber":64,"Velocity":69,"Duration":406453,"SoundDuration":406453,"Delta":500626181},{"NoteNumber":61,"Velocity":69,"Duration":406453,"SoundDuration":406453,"Delta":500626181},{"NoteNumber":58,"Velocity":69,"Duration":406453,"SoundDuration":406453,"Delta":500626181},{"NoteNumber":55,"Velocity":69,"Duration":406453,"SoundDuration":406453,"Delta":500626181},{"NoteNumber":68,"Velocity":59,"Duration":91324,"SoundDuration":91324,"Delta":500715970},{"NoteNumber":69,"Velocity":60,"Duration":90295,"SoundDuration":90295,"Delta":500807294},{"NoteNumber":70,"Velocity":60,"Duration":89589,"SoundDuration":89589,"Delta":500897590},{"NoteNumber":71,"Velocity":60,"Duration":91116,"SoundDuration":91116,"Delta":500987180},{"NoteNumber":58,"Velocity":62,"Duration":136367,"SoundDuration":136367,"Delta":501032634},{"NoteNumber":55,"Velocity":62,"Duration":136367,"SoundDuration":136367,"Delta":501032634},{"NoteNumber":64,"Velocity":62,"Duration":136367,"SoundDuration":136367,"Delta":501032634},{"NoteNumber":61,"Velocity":62,"Duration":136367,"SoundDuration":136367,"Delta":501032634},{"NoteNumber":72,"Velocity":61,"Duration":90705,"SoundDuration":90705,"Delta":501078296},{"NoteNumber":73,"Velocity":61,"Duration":89686,"SoundDuration":89686,"Delta":501169001},{"NoteNumber":66,"Velocity":69,"Duration":544982,"SoundDuration":544982,"Delta":501169001},{"NoteNumber":58,"Velocity":69,"Duration":544982,"SoundDuration":544982,"Delta":501169001},{"NoteNumber":55,"Velocity":69,"Duration":544982,"SoundDuration":544982,"Delta":501169001},{"NoteNumber":61,"Velocity":69,"Duration":544982,"SoundDuration":544982,"Delta":501169001},{"NoteNumber":74,"Velocity":63,"Duration":90917,"SoundDuration":90917,"Delta":501258688},{"NoteNumber":75,"Velocity":63,"Duration":91429,"SoundDuration":91429,"Delta":501349605},{"NoteNumber":76,"Velocity":64,"Duration":90192,"SoundDuration":90192,"Delta":501441035},{"NoteNumber":77,"Velocity":64,"Duration":91534,"SoundDuration":91534,"Delta":501531228},{"NoteNumber":78,"Velocity":64,"Duration":91221,"SoundDuration":91221,"Delta":501622763},{"NoteNumber":79,"Velocity":65,"Duration":89787,"SoundDuration":89787,"Delta":501713984},{"NoteNumber":61,"Velocity":69,"Duration":406443,"SoundDuration":406443,"Delta":501713984},{"NoteNumber":55,"Velocity":69,"Duration":406443,"SoundDuration":406443,"Delta":501713984},{"NoteNumber":58,"Velocity":69,"Duration":406443,"SoundDuration":406443,"Delta":501713984},{"NoteNumber":64,"Velocity":69,"Duration":406443,"SoundDuration":406443,"Delta":501713984},{"NoteNumber":80,"Velocity":65,"Duration":90295,"SoundDuration":90295,"Delta":501803771},{"NoteNumber":81,"Velocity":66,"Duration":91324,"SoundDuration":91324,"Delta":501894067},{"NoteNumber":82,"Velocity":66,"Duration":90192,"SoundDuration":90192,"Delta":501985391},{"NoteNumber":83,"Velocity":66,"Duration":89990,"SoundDuration":89990,"Delta":502075584},{"NoteNumber":64,"Velocity":62,"Duration":136367,"SoundDuration":136367,"Delta":502120427},{"NoteNumber":61,"Velocity":62,"Duration":136367,"SoundDuration":136367,"Delta":502120427},{"NoteNumber":55,"Velocity":62,"Duration":136367,"SoundDuration":136367,"Delta":502120427},{"NoteNumber":58,"Velocity":62,"Duration":136367,"SoundDuration":136367,"Delta":502120427},{"NoteNumber":84,"Velocity":67,"Duration":91220,"SoundDuration":91220,"Delta":502165574},{"NoteNumber":85,"Velocity":67,"Duration":90293,"SoundDuration":90293,"Delta":502256795},{"NoteNumber":58,"Velocity":69,"Duration":540361,"SoundDuration":540361,"Delta":502256795},{"NoteNumber":61,"Velocity":69,"Duration":540361,"SoundDuration":540361,"Delta":502256795},{"NoteNumber":55,"Velocity":69,"Duration":540361,"SoundDuration":540361,"Delta":502256795},{"NoteNumber":66,"Velocity":69,"Duration":540361,"SoundDuration":540361,"Delta":502256795},{"NoteNumber":86,"Velocity":68,"Duration":89787,"SoundDuration":89787,"Delta":502347089},{"NoteNumber":87,"Velocity":68,"Duration":89385,"SoundDuration":89385,"Delta":502436876},{"NoteNumber":88,"Velocity":68,"Duration":90911,"SoundDuration":90911,"Delta":502526261},{"NoteNumber":89,"Velocity":69,"Duration":90295,"SoundDuration":90295,"Delta":502617173},{"NoteNumber":90,"Velocity":69,"Duration":89687,"SoundDuration":89687,"Delta":502707469},{"NoteNumber":91,"Velocity":70,"Duration":91534,"SoundDuration":91534,"Delta":502797156},{"NoteNumber":61,"Velocity":69,"Duration":341136,"SoundDuration":341136,"Delta":502797156},{"NoteNumber":55,"Velocity":69,"Duration":341136,"SoundDuration":341136,"Delta":502797156},{"NoteNumber":58,"Velocity":69,"Duration":341136,"SoundDuration":341136,"Delta":502797156},{"NoteNumber":64,"Velocity":69,"Duration":341136,"SoundDuration":341136,"Delta":502797156},{"NoteNumber":92,"Velocity":70,"Duration":91118,"SoundDuration":91118,"Delta":502888691},{"NoteNumber":93,"Velocity":70,"Duration":89990,"SoundDuration":89990,"Delta":502979809},{"NoteNumber":94,"Velocity":71,"Duration":91324,"SoundDuration":91324,"Delta":503069799},{"NoteNumber":50,"Velocity":67,"Duration":4373317,"SoundDuration":4373317,"Delta":503138293},{"NoteNumber":95,"Velocity":71,"Duration":91220,"SoundDuration":91220,"Delta":503161124},{"NoteNumber":57,"Velocity":68,"Duration":4304824,"SoundDuration":4304824,"Delta":503206786},{"NoteNumber":97,"Velocity":72,"Duration":90497,"SoundDuration":90497,"Delta":503252344},{"NoteNumber":60,"Velocity":70,"Duration":4236641,"SoundDuration":4236641,"Delta":503274968},{"NoteNumber":99,"Velocity":88,"Duration":100000,"SoundDuration":100000,"Delta":503342842},{"NoteNumber":67,"Velocity":78,"Duration":2561768,"SoundDuration":2561768,"Delta":503342842},{"NoteNumber":98,"Velocity":80,"Duration":91895,"SoundDuration":91895,"Delta":503442842},{"NoteNumber":101,"Velocity":80,"Duration":89643,"SoundDuration":89643,"Delta":503534737},{"NoteNumber":99,"Velocity":81,"Duration":89787,"SoundDuration":89787,"Delta":503624381},{"NoteNumber":98,"Velocity":79,"Duration":90018,"SoundDuration":90018,"Delta":503714168},{"NoteNumber":96,"Velocity":79,"Duration":89929,"SoundDuration":89929,"Delta":503804187},{"NoteNumber":95,"Velocity":79,"Duration":89785,"SoundDuration":89785,"Delta":503894116},{"NoteNumber":98,"Velocity":79,"Duration":89849,"SoundDuration":89849,"Delta":503983902},{"NoteNumber":96,"Velocity":79,"Duration":89795,"SoundDuration":89795,"Delta":504073751},{"NoteNumber":94,"Velocity":79,"Duration":89840,"SoundDuration":89840,"Delta":504163547},{"NoteNumber":93,"Velocity":79,"Duration":89849,"SoundDuration":89849,"Delta":504253387},{"NoteNumber":91,"Velocity":79,"Duration":89428,"SoundDuration":89428,"Delta":504343236},{"NoteNumber":90,"Velocity":79,"Duration":89215,"SoundDuration":89215,"Delta":504432665},{"NoteNumber":93,"Velocity":79,"Duration":89499,"SoundDuration":89499,"Delta":504521881},{"NoteNumber":91,"Velocity":79,"Duration":88705,"SoundDuration":88705,"Delta":504611380},{"NoteNumber":90,"Velocity":84,"Duration":88408,"SoundDuration":88408,"Delta":504700086},{"NoteNumber":87,"Velocity":80,"Duration":87933,"SoundDuration":87933,"Delta":504788495},{"NoteNumber":86,"Velocity":80,"Duration":87463,"SoundDuration":87463,"Delta":504876429},{"NoteNumber":87,"Velocity":80,"Duration":86998,"SoundDuration":86998,"Delta":504963892},{"NoteNumber":86,"Velocity":79,"Duration":86538,"SoundDuration":86538,"Delta":505050891},{"NoteNumber":89,"Velocity":79,"Duration":86083,"SoundDuration":86083,"Delta":505137430},{"NoteNumber":87,"Velocity":79,"Duration":85592,"SoundDuration":85592,"Delta":505223513},{"NoteNumber":86,"Velocity":78,"Duration":85227,"SoundDuration":85227,"Delta":505309105},{"NoteNumber":84,"Velocity":77,"Duration":85227,"SoundDuration":85227,"Delta":505394333},{"NoteNumber":83,"Velocity":77,"Duration":85227,"SoundDuration":85227,"Delta":505479560},{"NoteNumber":86,"Velocity":76,"Duration":85026,"SoundDuration":85026,"Delta":505564787},{"NoteNumber":84,"Velocity":76,"Duration":84985,"SoundDuration":84985,"Delta":505649813},{"NoteNumber":82,"Velocity":75,"Duration":84985,"SoundDuration":84985,"Delta":505734799},{"NoteNumber":81,"Velocity":75,"Duration":84825,"SoundDuration":84825,"Delta":505819785},{"NoteNumber":79,"Velocity":75,"Duration":84586,"SoundDuration":84586,"Delta":505904610},{"NoteNumber":66,"Velocity":80,"Duration":1605591,"SoundDuration":1605591,"Delta":505904610},{"NoteNumber":78,"Velocity":75,"Duration":84786,"SoundDuration":84786,"Delta":505989197},{"NoteNumber":81,"Velocity":75,"Duration":83995,"SoundDuration":83995,"Delta":506073983},{"NoteNumber":79,"Velocity":75,"Duration":84865,"SoundDuration":84865,"Delta":506157979},{"NoteNumber":78,"Velocity":75,"Duration":84192,"SoundDuration":84192,"Delta":506242845},{"NoteNumber":75,"Velocity":75,"Duration":84708,"SoundDuration":84708,"Delta":506327037},{"NoteNumber":74,"Velocity":75,"Duration":84430,"SoundDuration":84430,"Delta":506411745},{"NoteNumber":75,"Velocity":74,"Duration":84789,"SoundDuration":84789,"Delta":506496176},{"NoteNumber":74,"Velocity":74,"Duration":84708,"SoundDuration":84708,"Delta":506580966},{"NoteNumber":77,"Velocity":74,"Duration":84908,"SoundDuration":84908,"Delta":506665675},{"NoteNumber":75,"Velocity":74,"Duration":84270,"SoundDuration":84270,"Delta":506750583},{"NoteNumber":74,"Velocity":74,"Duration":84586,"SoundDuration":84586,"Delta":506834853},{"NoteNumber":72,"Velocity":74,"Duration":84192,"SoundDuration":84192,"Delta":506919440},{"NoteNumber":71,"Velocity":74,"Duration":84953,"SoundDuration":84953,"Delta":507003633},{"NoteNumber":74,"Velocity":73,"Duration":84793,"SoundDuration":84793,"Delta":507088586},{"NoteNumber":72,"Velocity":73,"Duration":84706,"SoundDuration":84706,"Delta":507173379},{"NoteNumber":70,"Velocity":73,"Duration":84310,"SoundDuration":84310,"Delta":507258086},{"NoteNumber":69,"Velocity":73,"Duration":84706,"SoundDuration":84706,"Delta":507342396},{"NoteNumber":67,"Velocity":73,"Duration":84507,"SoundDuration":84507,"Delta":507427103},{"NoteNumber":66,"Velocity":74,"Duration":84506,"SoundDuration":84506,"Delta":507511610},{"NoteNumber":63,"Velocity":75,"Duration":84348,"SoundDuration":84348,"Delta":507596117},{"NoteNumber":62,"Velocity":76,"Duration":83955,"SoundDuration":83955,"Delta":507680466},{"NoteNumber":60,"Velocity":76,"Duration":83643,"SoundDuration":83643,"Delta":507764421},{"NoteNumber":58,"Velocity":76,"Duration":83256,"SoundDuration":83256,"Delta":507848065},{"NoteNumber":57,"Velocity":79,"Duration":82949,"SoundDuration":82949,"Delta":507931321},{"NoteNumber":55,"Velocity":81,"Duration":82569,"SoundDuration":82569,"Delta":508014271},{"NoteNumber":54,"Velocity":83,"Duration":82267,"SoundDuration":82267,"Delta":508096840},{"NoteNumber":51,"Velocity":84,"Duration":81892,"SoundDuration":81892,"Delta":508179107},{"NoteNumber":50,"Velocity":84,"Duration":81595,"SoundDuration":81595,"Delta":508260999},{"NoteNumber":48,"Velocity":85,"Duration":81411,"SoundDuration":81411,"Delta":508342595},{"NoteNumber":46,"Velocity":86,"Duration":81930,"SoundDuration":81930,"Delta":508424006},{"NoteNumber":45,"Velocity":88,"Duration":82418,"SoundDuration":82418,"Delta":508505937},{"NoteNumber":43,"Velocity":89,"Duration":82911,"SoundDuration":82911,"Delta":508588355},{"NoteNumber":42,"Velocity":91,"Duration":83449,"SoundDuration":83449,"Delta":508671266},{"NoteNumber":39,"Velocity":93,"Duration":83994,"SoundDuration":83994,"Delta":508754715},{"NoteNumber":38,"Velocity":94,"Duration":84507,"SoundDuration":84507,"Delta":508838710},{"NoteNumber":36,"Velocity":94,"Duration":85026,"SoundDuration":85026,"Delta":508923218},{"NoteNumber":34,"Velocity":95,"Duration":85592,"SoundDuration":85592,"Delta":509008244},{"NoteNumber":33,"Velocity":97,"Duration":86166,"SoundDuration":86166,"Delta":509093836},{"NoteNumber":31,"Velocity":115,"Duration":779073,"SoundDuration":779073,"Delta":509180002},{"NoteNumber":45,"Velocity":75,"Duration":85025,"SoundDuration":85025,"Delta":509959076},{"NoteNumber":33,"Velocity":65,"Duration":85025,"SoundDuration":85025,"Delta":509959076},{"NoteNumber":46,"Velocity":75,"Duration":84745,"SoundDuration":84745,"Delta":510044102},{"NoteNumber":34,"Velocity":65,"Duration":84745,"SoundDuration":84745,"Delta":510044102},{"NoteNumber":48,"Velocity":76,"Duration":84467,"SoundDuration":84467,"Delta":510128848},{"NoteNumber":36,"Velocity":66,"Duration":84467,"SoundDuration":84467,"Delta":510128848},{"NoteNumber":50,"Velocity":77,"Duration":84230,"SoundDuration":84230,"Delta":510213315},{"NoteNumber":38,"Velocity":67,"Duration":84230,"SoundDuration":84230,"Delta":510213315},{"NoteNumber":52,"Velocity":77,"Duration":83955,"SoundDuration":83955,"Delta":510297546},{"NoteNumber":40,"Velocity":67,"Duration":83955,"SoundDuration":83955,"Delta":510297546},{"NoteNumber":54,"Velocity":78,"Duration":83721,"SoundDuration":83721,"Delta":510381501},{"NoteNumber":42,"Velocity":68,"Duration":83721,"SoundDuration":83721,"Delta":510381501},{"NoteNumber":55,"Velocity":78,"Duration":83449,"SoundDuration":83449,"Delta":510465222},{"NoteNumber":43,"Velocity":68,"Duration":83449,"SoundDuration":83449,"Delta":510465222},{"NoteNumber":57,"Velocity":79,"Duration":83179,"SoundDuration":83179,"Delta":510548671},{"NoteNumber":45,"Velocity":69,"Duration":83179,"SoundDuration":83179,"Delta":510548671},{"NoteNumber":58,"Velocity":80,"Duration":83102,"SoundDuration":83102,"Delta":510631851},{"NoteNumber":46,"Velocity":69,"Duration":83102,"SoundDuration":83102,"Delta":510631851},{"NoteNumber":60,"Velocity":80,"Duration":83102,"SoundDuration":83102,"Delta":510714953},{"NoteNumber":48,"Velocity":70,"Duration":83102,"SoundDuration":83102,"Delta":510714953},{"NoteNumber":62,"Velocity":81,"Duration":83102,"SoundDuration":83102,"Delta":510798056},{"NoteNumber":50,"Velocity":70,"Duration":83102,"SoundDuration":83102,"Delta":510798056},{"NoteNumber":64,"Velocity":81,"Duration":83102,"SoundDuration":83102,"Delta":510881158},{"NoteNumber":52,"Velocity":71,"Duration":83102,"SoundDuration":83102,"Delta":510881158},{"NoteNumber":66,"Velocity":82,"Duration":83217,"SoundDuration":83217,"Delta":510964261},{"NoteNumber":54,"Velocity":72,"Duration":83217,"SoundDuration":83217,"Delta":510964261},{"NoteNumber":67,"Velocity":83,"Duration":83760,"SoundDuration":83760,"Delta":511047479},{"NoteNumber":55,"Velocity":72,"Duration":83760,"SoundDuration":83760,"Delta":511047479},{"NoteNumber":69,"Velocity":83,"Duration":84270,"SoundDuration":84270,"Delta":511131239},{"NoteNumber":57,"Velocity":73,"Duration":84270,"SoundDuration":84270,"Delta":511131239},{"NoteNumber":70,"Velocity":84,"Duration":84785,"SoundDuration":84785,"Delta":511215509},{"NoteNumber":58,"Velocity":73,"Duration":84785,"SoundDuration":84785,"Delta":511215509},{"NoteNumber":72,"Velocity":84,"Duration":85348,"SoundDuration":85348,"Delta":511300295},{"NoteNumber":60,"Velocity":74,"Duration":85348,"SoundDuration":85348,"Delta":511300295},{"NoteNumber":74,"Velocity":85,"Duration":85919,"SoundDuration":85919,"Delta":511385644},{"NoteNumber":62,"Velocity":74,"Duration":85919,"SoundDuration":85919,"Delta":511385644},{"NoteNumber":76,"Velocity":86,"Duration":86455,"SoundDuration":86455,"Delta":511471563},{"NoteNumber":64,"Velocity":75,"Duration":86455,"SoundDuration":86455,"Delta":511471563},{"NoteNumber":78,"Velocity":86,"Duration":86998,"SoundDuration":86998,"Delta":511558019},{"NoteNumber":66,"Velocity":76,"Duration":86998,"SoundDuration":86998,"Delta":511558019},{"NoteNumber":79,"Velocity":89,"Duration":375000,"SoundDuration":375000,"Delta":511645018},{"NoteNumber":67,"Velocity":83,"Duration":375000,"SoundDuration":375000,"Delta":511645018},{"NoteNumber":50,"Velocity":31,"Duration":1184210,"SoundDuration":1184210,"Delta":513145018},{"NoteNumber":43,"Velocity":26,"Duration":1184210,"SoundDuration":1184210,"Delta":513145018},{"NoteNumber":31,"Velocity":26,"Duration":1184210,"SoundDuration":1184210,"Delta":513145018},{"NoteNumber":55,"Velocity":31,"Duration":1184210,"SoundDuration":1184210,"Delta":513145018},{"NoteNumber":58,"Velocity":38,"Duration":1184210,"SoundDuration":1184210,"Delta":513145018},{"NoteNumber":31,"Velocity":26,"Duration":394736,"SoundDuration":394736,"Delta":514329228},{"NoteNumber":55,"Velocity":31,"Duration":394736,"SoundDuration":394736,"Delta":514329228},{"NoteNumber":58,"Velocity":38,"Duration":394736,"SoundDuration":394736,"Delta":514329228},{"NoteNumber":43,"Velocity":26,"Duration":394736,"SoundDuration":394736,"Delta":514329228},{"NoteNumber":50,"Velocity":31,"Duration":394736,"SoundDuration":394736,"Delta":514329228},{"NoteNumber":31,"Velocity":26,"Duration":1441647,"SoundDuration":1441647,"Delta":514723965},{"NoteNumber":43,"Velocity":26,"Duration":1441647,"SoundDuration":1441647,"Delta":514723965},{"NoteNumber":55,"Velocity":31,"Duration":1441647,"SoundDuration":1441647,"Delta":514723965},{"NoteNumber":58,"Velocity":38,"Duration":1441647,"SoundDuration":1441647,"Delta":514723965},{"NoteNumber":50,"Velocity":31,"Duration":1441647,"SoundDuration":1441647,"Delta":514723965},{"NoteNumber":50,"Velocity":84,"Duration":231592,"SoundDuration":231592,"Delta":516406576},{"NoteNumber":38,"Velocity":75,"Duration":231592,"SoundDuration":231592,"Delta":516406576},{"NoteNumber":43,"Velocity":71,"Duration":222222,"SoundDuration":222222,"Delta":516638169},{"NoteNumber":55,"Velocity":80,"Duration":222222,"SoundDuration":222222,"Delta":516638169},{"NoteNumber":45,"Velocity":77,"Duration":224719,"SoundDuration":224719,"Delta":516860391},{"NoteNumber":57,"Velocity":85,"Duration":224719,"SoundDuration":224719,"Delta":516860391},{"NoteNumber":48,"Velocity":79,"Duration":212765,"SoundDuration":212765,"Delta":517085110},{"NoteNumber":60,"Velocity":89,"Duration":212765,"SoundDuration":212765,"Delta":517085110},{"NoteNumber":46,"Velocity":74,"Duration":198863,"SoundDuration":198863,"Delta":517297876},{"NoteNumber":58,"Velocity":83,"Duration":198863,"SoundDuration":198863,"Delta":517297876},{"NoteNumber":46,"Velocity":82,"Duration":299999,"SoundDuration":299999,"Delta":517525149},{"NoteNumber":58,"Velocity":92,"Duration":299999,"SoundDuration":299999,"Delta":517525149},{"NoteNumber":46,"Velocity":85,"Duration":1251449,"SoundDuration":1251449,"Delta":518725149},{"NoteNumber":31,"Velocity":79,"Duration":1251449,"SoundDuration":1251449,"Delta":518725149},{"NoteNumber":48,"Velocity":71,"Duration":86830,"SoundDuration":86830,"Delta":519976598},{"NoteNumber":33,"Velocity":52,"Duration":86830,"SoundDuration":86830,"Delta":519976598},{"NoteNumber":50,"Velocity":71,"Duration":86705,"SoundDuration":86705,"Delta":520063429},{"NoteNumber":34,"Velocity":52,"Duration":86705,"SoundDuration":86705,"Delta":520063429},{"NoteNumber":52,"Velocity":71,"Duration":86455,"SoundDuration":86455,"Delta":520150134},{"NoteNumber":36,"Velocity":53,"Duration":86455,"SoundDuration":86455,"Delta":520150134},{"NoteNumber":54,"Velocity":72,"Duration":86372,"SoundDuration":86372,"Delta":520236590},{"NoteNumber":38,"Velocity":53,"Duration":86372,"SoundDuration":86372,"Delta":520236590},{"NoteNumber":55,"Velocity":72,"Duration":86207,"SoundDuration":86207,"Delta":520322962},{"NoteNumber":40,"Velocity":54,"Duration":86207,"SoundDuration":86207,"Delta":520322962},{"NoteNumber":57,"Velocity":72,"Duration":86001,"SoundDuration":86001,"Delta":520409169},{"NoteNumber":42,"Velocity":54,"Duration":86001,"SoundDuration":86001,"Delta":520409169},{"NoteNumber":58,"Velocity":73,"Duration":85919,"SoundDuration":85919,"Delta":520495170},{"NoteNumber":43,"Velocity":55,"Duration":85919,"SoundDuration":85919,"Delta":520495170},{"NoteNumber":60,"Velocity":73,"Duration":85714,"SoundDuration":85714,"Delta":520581089},{"NoteNumber":45,"Velocity":55,"Duration":85714,"SoundDuration":85714,"Delta":520581089},{"NoteNumber":62,"Velocity":73,"Duration":85551,"SoundDuration":85551,"Delta":520666803},{"NoteNumber":46,"Velocity":56,"Duration":85551,"SoundDuration":85551,"Delta":520666803},{"NoteNumber":64,"Velocity":74,"Duration":85429,"SoundDuration":85429,"Delta":520752355},{"NoteNumber":48,"Velocity":56,"Duration":85429,"SoundDuration":85429,"Delta":520752355},{"NoteNumber":66,"Velocity":74,"Duration":85227,"SoundDuration":85227,"Delta":520837784},{"NoteNumber":50,"Velocity":57,"Duration":85227,"SoundDuration":85227,"Delta":520837784},{"NoteNumber":67,"Velocity":74,"Duration":85106,"SoundDuration":85106,"Delta":520923012},{"NoteNumber":52,"Velocity":57,"Duration":85106,"SoundDuration":85106,"Delta":520923012},{"NoteNumber":69,"Velocity":75,"Duration":84985,"SoundDuration":84985,"Delta":521008118},{"NoteNumber":54,"Velocity":58,"Duration":84985,"SoundDuration":84985,"Delta":521008118},{"NoteNumber":70,"Velocity":75,"Duration":84745,"SoundDuration":84745,"Delta":521093104},{"NoteNumber":55,"Velocity":58,"Duration":84745,"SoundDuration":84745,"Delta":521093104},{"NoteNumber":72,"Velocity":75,"Duration":84666,"SoundDuration":84666,"Delta":521177850},{"NoteNumber":57,"Velocity":59,"Duration":84666,"SoundDuration":84666,"Delta":521177850},{"NoteNumber":74,"Velocity":76,"Duration":84506,"SoundDuration":84506,"Delta":521262516},{"NoteNumber":58,"Velocity":60,"Duration":84506,"SoundDuration":84506,"Delta":521262516},{"NoteNumber":76,"Velocity":76,"Duration":84309,"SoundDuration":84309,"Delta":521347023},{"NoteNumber":60,"Velocity":60,"Duration":84309,"SoundDuration":84309,"Delta":521347023},{"NoteNumber":78,"Velocity":76,"Duration":84191,"SoundDuration":84191,"Delta":521431332},{"NoteNumber":62,"Velocity":61,"Duration":84191,"SoundDuration":84191,"Delta":521431332},{"NoteNumber":79,"Velocity":77,"Duration":83721,"SoundDuration":83721,"Delta":521515523},{"NoteNumber":64,"Velocity":61,"Duration":83721,"SoundDuration":83721,"Delta":521515523},{"NoteNumber":81,"Velocity":77,"Duration":83721,"SoundDuration":83721,"Delta":521599245},{"NoteNumber":66,"Velocity":62,"Duration":83721,"SoundDuration":83721,"Delta":521599245},{"NoteNumber":82,"Velocity":77,"Duration":83994,"SoundDuration":83994,"Delta":521682966},{"NoteNumber":67,"Velocity":62,"Duration":83994,"SoundDuration":83994,"Delta":521682966},{"NoteNumber":84,"Velocity":78,"Duration":84309,"SoundDuration":84309,"Delta":521766960},{"NoteNumber":69,"Velocity":63,"Duration":84309,"SoundDuration":84309,"Delta":521766960},{"NoteNumber":86,"Velocity":78,"Duration":84586,"SoundDuration":84586,"Delta":521851270},{"NoteNumber":70,"Velocity":63,"Duration":84586,"SoundDuration":84586,"Delta":521851270},{"NoteNumber":88,"Velocity":78,"Duration":84865,"SoundDuration":84865,"Delta":521935856},{"NoteNumber":72,"Velocity":64,"Duration":84865,"SoundDuration":84865,"Delta":521935856},{"NoteNumber":90,"Velocity":79,"Duration":85146,"SoundDuration":85146,"Delta":522020722},{"NoteNumber":74,"Velocity":64,"Duration":85146,"SoundDuration":85146,"Delta":522020722},{"NoteNumber":91,"Velocity":79,"Duration":85429,"SoundDuration":85429,"Delta":522105869},{"NoteNumber":76,"Velocity":65,"Duration":85429,"SoundDuration":85429,"Delta":522105869},{"NoteNumber":93,"Velocity":79,"Duration":85755,"SoundDuration":85755,"Delta":522191298},{"NoteNumber":78,"Velocity":65,"Duration":85755,"SoundDuration":85755,"Delta":522191298},{"NoteNumber":94,"Velocity":87,"Duration":299999,"SoundDuration":299999,"Delta":522277053},{"NoteNumber":79,"Velocity":70,"Duration":299999,"SoundDuration":299999,"Delta":522277053},{"NoteNumber":50,"Velocity":37,"Duration":1084337,"SoundDuration":1084337,"Delta":523477053},{"NoteNumber":62,"Velocity":45,"Duration":1084337,"SoundDuration":1084337,"Delta":523477053},{"NoteNumber":58,"Velocity":37,"Duration":1084337,"SoundDuration":1084337,"Delta":523477053},{"NoteNumber":55,"Velocity":37,"Duration":1084337,"SoundDuration":1084337,"Delta":523477053},{"NoteNumber":43,"Velocity":26,"Duration":1084337,"SoundDuration":1084337,"Delta":523477053},{"NoteNumber":31,"Velocity":26,"Duration":1084337,"SoundDuration":1084337,"Delta":523477053},{"NoteNumber":50,"Velocity":37,"Duration":361445,"SoundDuration":361445,"Delta":524561391},{"NoteNumber":62,"Velocity":45,"Duration":361445,"SoundDuration":361445,"Delta":524561391},{"NoteNumber":58,"Velocity":37,"Duration":361445,"SoundDuration":361445,"Delta":524561391},{"NoteNumber":55,"Velocity":37,"Duration":361445,"SoundDuration":361445,"Delta":524561391},{"NoteNumber":31,"Velocity":26,"Duration":361445,"SoundDuration":361445,"Delta":524561391},{"NoteNumber":43,"Velocity":26,"Duration":361445,"SoundDuration":361445,"Delta":524561391},{"NoteNumber":55,"Velocity":37,"Duration":1368052,"SoundDuration":1368052,"Delta":524922836},{"NoteNumber":50,"Velocity":37,"Duration":1368052,"SoundDuration":1368052,"Delta":524922836},{"NoteNumber":58,"Velocity":37,"Duration":1368052,"SoundDuration":1368052,"Delta":524922836},{"NoteNumber":62,"Velocity":45,"Duration":1368052,"SoundDuration":1368052,"Delta":524922836},{"NoteNumber":31,"Velocity":26,"Duration":1368052,"SoundDuration":1368052,"Delta":524922836},{"NoteNumber":43,"Velocity":26,"Duration":1368052,"SoundDuration":1368052,"Delta":524922836},{"NoteNumber":62,"Velocity":94,"Duration":232683,"SoundDuration":232683,"Delta":526528985},{"NoteNumber":50,"Velocity":86,"Duration":232683,"SoundDuration":232683,"Delta":526528985},{"NoteNumber":67,"Velocity":94,"Duration":227272,"SoundDuration":227272,"Delta":526761668},{"NoteNumber":55,"Velocity":86,"Duration":227272,"SoundDuration":227272,"Delta":526761668},{"NoteNumber":70,"Velocity":99,"Duration":227272,"SoundDuration":227272,"Delta":526988941},{"NoteNumber":58,"Velocity":89,"Duration":227272,"SoundDuration":227272,"Delta":526988941},{"NoteNumber":75,"Velocity":100,"Duration":212765,"SoundDuration":212765,"Delta":527216214},{"NoteNumber":63,"Velocity":90,"Duration":212765,"SoundDuration":212765,"Delta":527216214},{"NoteNumber":74,"Velocity":94,"Duration":201149,"SoundDuration":201149,"Delta":527428980},{"NoteNumber":62,"Velocity":86,"Duration":201149,"SoundDuration":201149,"Delta":527428980},{"NoteNumber":74,"Velocity":94,"Duration":347500,"SoundDuration":347500,"Delta":527658865},{"NoteNumber":62,"Velocity":86,"Duration":347500,"SoundDuration":347500,"Delta":527658865},{"NoteNumber":100,"Velocity":104,"Duration":385907,"SoundDuration":385907,"Delta":528954641},{"NoteNumber":34,"Velocity":74,"Duration":478886,"SoundDuration":478886,"Delta":528954641},{"NoteNumber":88,"Velocity":109,"Duration":303408,"SoundDuration":303408,"Delta":529037140},{"NoteNumber":46,"Velocity":77,"Duration":303408,"SoundDuration":303408,"Delta":529037140},{"NoteNumber":99,"Velocity":106,"Duration":383419,"SoundDuration":383419,"Delta":529430552},{"NoteNumber":35,"Velocity":76,"Duration":383419,"SoundDuration":383419,"Delta":529430552},{"NoteNumber":87,"Velocity":108,"Duration":294133,"SoundDuration":294133,"Delta":529519837},{"NoteNumber":47,"Velocity":76,"Duration":294133,"SoundDuration":294133,"Delta":529519837},{"NoteNumber":98,"Velocity":104,"Duration":371938,"SoundDuration":371938,"Delta":529901181},{"NoteNumber":36,"Velocity":75,"Duration":371938,"SoundDuration":371938,"Delta":529901181},{"NoteNumber":86,"Velocity":107,"Duration":285396,"SoundDuration":285396,"Delta":529987722},{"NoteNumber":48,"Velocity":75,"Duration":285396,"SoundDuration":285396,"Delta":529987722},{"NoteNumber":97,"Velocity":100,"Duration":351890,"SoundDuration":351890,"Delta":530357388},{"NoteNumber":37,"Velocity":74,"Duration":351890,"SoundDuration":351890,"Delta":530357388},{"NoteNumber":85,"Velocity":106,"Duration":268245,"SoundDuration":268245,"Delta":530441034},{"NoteNumber":49,"Velocity":74,"Duration":268245,"SoundDuration":268245,"Delta":530441034},{"NoteNumber":96,"Velocity":102,"Duration":341181,"SoundDuration":341181,"Delta":530789066},{"NoteNumber":38,"Velocity":73,"Duration":341181,"SoundDuration":341181,"Delta":530789066},{"NoteNumber":84,"Velocity":103,"Duration":261842,"SoundDuration":261842,"Delta":530868406},{"NoteNumber":50,"Velocity":73,"Duration":261842,"SoundDuration":261842,"Delta":530868406},{"NoteNumber":95,"Velocity":103,"Duration":332846,"SoundDuration":332846,"Delta":531208104},{"NoteNumber":39,"Velocity":75,"Duration":332846,"SoundDuration":332846,"Delta":531208104},{"NoteNumber":83,"Velocity":102,"Duration":255527,"SoundDuration":255527,"Delta":531285424},{"NoteNumber":51,"Velocity":72,"Duration":255527,"SoundDuration":255527,"Delta":531285424},{"NoteNumber":94,"Velocity":102,"Duration":325262,"SoundDuration":325262,"Delta":531616709},{"NoteNumber":40,"Velocity":74,"Duration":325262,"SoundDuration":325262,"Delta":531616709},{"NoteNumber":82,"Velocity":101,"Duration":249504,"SoundDuration":249504,"Delta":531692466},{"NoteNumber":52,"Velocity":73,"Duration":249504,"SoundDuration":249504,"Delta":531692466},{"NoteNumber":93,"Velocity":101,"Duration":317825,"SoundDuration":317825,"Delta":532016229},{"NoteNumber":41,"Velocity":72,"Duration":317825,"SoundDuration":317825,"Delta":532016229},{"NoteNumber":81,"Velocity":100,"Duration":243955,"SoundDuration":243955,"Delta":532090098},{"NoteNumber":53,"Velocity":72,"Duration":243955,"SoundDuration":243955,"Delta":532090098},{"NoteNumber":92,"Velocity":99,"Duration":310580,"SoundDuration":310580,"Delta":532406636},{"NoteNumber":42,"Velocity":72,"Duration":310580,"SoundDuration":310580,"Delta":532406636},{"NoteNumber":80,"Velocity":99,"Duration":238464,"SoundDuration":238464,"Delta":532478751},{"NoteNumber":54,"Velocity":72,"Duration":238464,"SoundDuration":238464,"Delta":532478751},{"NoteNumber":79,"Velocity":88,"Duration":200149,"SoundDuration":200149,"Delta":532858726},{"NoteNumber":91,"Velocity":98,"Duration":200149,"SoundDuration":200149,"Delta":532858726},{"NoteNumber":55,"Velocity":72,"Duration":200149,"SoundDuration":200149,"Delta":532858726},{"NoteNumber":43,"Velocity":66,"Duration":200149,"SoundDuration":200149,"Delta":532858726},{"NoteNumber":90,"Velocity":97,"Duration":169861,"SoundDuration":169861,"Delta":533118049},{"NoteNumber":78,"Velocity":87,"Duration":169861,"SoundDuration":169861,"Delta":533118049},{"NoteNumber":42,"Velocity":66,"Duration":169861,"SoundDuration":169861,"Delta":533118049},{"NoteNumber":54,"Velocity":72,"Duration":169861,"SoundDuration":169861,"Delta":533118049},{"NoteNumber":89,"Velocity":97,"Duration":156696,"SoundDuration":156696,"Delta":533342260},{"NoteNumber":77,"Velocity":87,"Duration":156696,"SoundDuration":156696,"Delta":533342260},{"NoteNumber":41,"Velocity":65,"Duration":156696,"SoundDuration":156696,"Delta":533342260},{"NoteNumber":53,"Velocity":71,"Duration":156696,"SoundDuration":156696,"Delta":533342260},{"NoteNumber":76,"Velocity":86,"Duration":145547,"SoundDuration":145547,"Delta":533549208},{"NoteNumber":88,"Velocity":96,"Duration":145547,"SoundDuration":145547,"Delta":533549208},{"NoteNumber":52,"Velocity":70,"Duration":145547,"SoundDuration":145547,"Delta":533549208},{"NoteNumber":40,"Velocity":64,"Duration":145547,"SoundDuration":145547,"Delta":533549208},{"NoteNumber":87,"Velocity":95,"Duration":135779,"SoundDuration":135779,"Delta":533741595},{"NoteNumber":75,"Velocity":85,"Duration":135779,"SoundDuration":135779,"Delta":533741595},{"NoteNumber":51,"Velocity":69,"Duration":135779,"SoundDuration":135779,"Delta":533741595},{"NoteNumber":39,"Velocity":63,"Duration":135779,"SoundDuration":135779,"Delta":533741595},{"NoteNumber":74,"Velocity":84,"Duration":121550,"SoundDuration":121550,"Delta":533920667},{"NoteNumber":86,"Velocity":94,"Duration":121550,"SoundDuration":121550,"Delta":533920667},{"NoteNumber":50,"Velocity":67,"Duration":121550,"SoundDuration":121550,"Delta":533920667},{"NoteNumber":38,"Velocity":61,"Duration":121550,"SoundDuration":121550,"Delta":533920667},{"NoteNumber":85,"Velocity":93,"Duration":107909,"SoundDuration":107909,"Delta":534080243},{"NoteNumber":73,"Velocity":83,"Duration":107909,"SoundDuration":107909,"Delta":534080243},{"NoteNumber":49,"Velocity":66,"Duration":107909,"SoundDuration":107909,"Delta":534080243},{"NoteNumber":37,"Velocity":60,"Duration":107909,"SoundDuration":107909,"Delta":534080243},{"NoteNumber":84,"Velocity":91,"Duration":96920,"SoundDuration":96920,"Delta":534222167},{"NoteNumber":72,"Velocity":81,"Duration":96920,"SoundDuration":96920,"Delta":534222167},{"NoteNumber":48,"Velocity":66,"Duration":96920,"SoundDuration":96920,"Delta":534222167},{"NoteNumber":36,"Velocity":60,"Duration":96920,"SoundDuration":96920,"Delta":534222167},{"NoteNumber":83,"Velocity":95,"Duration":88011,"SoundDuration":88011,"Delta":534349858},{"NoteNumber":71,"Velocity":85,"Duration":88011,"SoundDuration":88011,"Delta":534349858},{"NoteNumber":35,"Velocity":60,"Duration":88011,"SoundDuration":88011,"Delta":534349858},{"NoteNumber":47,"Velocity":66,"Duration":88011,"SoundDuration":88011,"Delta":534349858},{"NoteNumber":70,"Velocity":89,"Duration":80713,"SoundDuration":80713,"Delta":534465882},{"NoteNumber":82,"Velocity":99,"Duration":80713,"SoundDuration":80713,"Delta":534465882},{"NoteNumber":34,"Velocity":67,"Duration":80713,"SoundDuration":80713,"Delta":534465882},{"NoteNumber":46,"Velocity":73,"Duration":80713,"SoundDuration":80713,"Delta":534465882},{"NoteNumber":81,"Velocity":103,"Duration":84329,"SoundDuration":84329,"Delta":534573299},{"NoteNumber":69,"Velocity":92,"Duration":84329,"SoundDuration":84329,"Delta":534573299},{"NoteNumber":33,"Velocity":72,"Duration":84329,"SoundDuration":84329,"Delta":534573299},{"NoteNumber":45,"Velocity":79,"Duration":84329,"SoundDuration":84329,"Delta":534573299},{"NoteNumber":68,"Velocity":97,"Duration":94124,"SoundDuration":94124,"Delta":534687260},{"NoteNumber":80,"Velocity":108,"Duration":94124,"SoundDuration":94124,"Delta":534687260},{"NoteNumber":32,"Velocity":77,"Duration":94124,"SoundDuration":94124,"Delta":534687260},{"NoteNumber":44,"Velocity":84,"Duration":94124,"SoundDuration":94124,"Delta":534687260},{"NoteNumber":67,"Velocity":96,"Duration":416666,"SoundDuration":416666,"Delta":534814620},{"NoteNumber":79,"Velocity":113,"Duration":416666,"SoundDuration":416666,"Delta":534814620},{"NoteNumber":31,"Velocity":71,"Duration":416666,"SoundDuration":416666,"Delta":534814620},{"NoteNumber":43,"Velocity":83,"Duration":416666,"SoundDuration":416666,"Delta":534814620},{"NoteNumber":86,"Velocity":92,"Duration":833333,"SoundDuration":833333,"Delta":535647954},{"NoteNumber":82,"Velocity":92,"Duration":833333,"SoundDuration":833333,"Delta":535647954},{"NoteNumber":91,"Velocity":108,"Duration":833333,"SoundDuration":833333,"Delta":535647954},{"NoteNumber":94,"Velocity":108,"Duration":833333,"SoundDuration":833333,"Delta":535647954},{"NoteNumber":67,"Velocity":95,"Duration":833333,"SoundDuration":833333,"Delta":535647954},{"NoteNumber":55,"Velocity":80,"Duration":833333,"SoundDuration":833333,"Delta":535647954},{"NoteNumber":62,"Velocity":80,"Duration":833333,"SoundDuration":833333,"Delta":535647954},{"NoteNumber":55,"Velocity":117,"Duration":1500000,"SoundDuration":1500000,"Delta":536481288},{"NoteNumber":43,"Velocity":95,"Duration":1500000,"SoundDuration":1500000,"Delta":536481288},{"NoteNumber":31,"Velocity":80,"Duration":1500000,"SoundDuration":1500000,"Delta":536481288}],"license":{"name":"Creative Commons Attribution-ShareAlike 3.0 Germany","url":"http://creativecommons.org/licenses/by-sa/3.0/de/deed.en","text":"The MIDI, audio (MP3, OGG) and video files of Bernd Krueger are licensed under the cc-by-sa Germany License. This means that you can use and adapt the files, as long as you attribute the copyright holder.\n\nName: Bernd Krueger\nSource: http://www.piano-midi.de\n\nThe distribution or public playback of the files is only allowed under identical license conditions.\n\nThe scores are open source.","attribution":"MIDI files by Bernd Krueger (piano-midi.de)"}}