{"title":"Chopin Prelude No. 17, Opus 28","artist":"Chopin","durationMs":156459,"midiSha256":"450898b9489a0ff4644de6f13f13d7db02a093cb841ab3a916911f42213263d9","midiObject":[{"NoteNumber":60,"Velocity":34,"Duration":276618,"SoundDuration":276618,"Delta":0},{"NoteNumber":51,"Velocity":17,"Duration":276618,"SoundDuration":276618,"Delta":0},{"NoteNumber":56,"Velocity":23,"Duration":276618,"SoundDuration":276618,"Delta":0},{"NoteNumber":63,"Velocity":28,"Duration":276618,"SoundDuration":276618,"Delta":0},{"NoteNumber":60,"Velocity":35,"Duration":262358,"SoundDuration":262358,"Delta":291177},{"NoteNumber":51,"Velocity":17,"Duration":262358,"SoundDuration":262358,"Delta":291177},{"NoteNumber":56,"Velocity":24,"Duration":262358,"SoundDuration":262358,"Delta":291177},{"NoteNumber":63,"Velocity":29,"Duration":262358,"SoundDuration":262358,"Delta":291177},{"NoteNumber":60,"Velocity":37,"Duration":262358,"SoundDuration":262358,"Delta":567344},{"NoteNumber":51,"Velocity":18,"Duration":262358,"SoundDuration":262358,"Delta":567344},{"NoteNumber":56,"Velocity":25,"Duration":262358,"SoundDuration":262358,"Delta":567344},{"NoteNumber":63,"Velocity":30,"Duration":262358,"SoundDuration":262358,"Delta":567344},{"NoteNumber":60,"Velocity":38,"Duration":251256,"SoundDuration":251256,"Delta":843511},{"NoteNumber":51,"Velocity":18,"Duration":251256,"SoundDuration":251256,"Delta":843511},{"NoteNumber":56,"Velocity":25,"Duration":251256,"SoundDuration":251256,"Delta":843511},{"NoteNumber":63,"Velocity":30,"Duration":251256,"SoundDuration":251256,"Delta":843511},{"NoteNumber":60,"Velocity":39,"Duration":247761,"SoundDuration":247761,"Delta":1107991},{"NoteNumber":51,"Velocity":20,"Duration":247761,"SoundDuration":247761,"Delta":1107991},{"NoteNumber":56,"Velocity":27,"Duration":247761,"SoundDuration":247761,"Delta":1107991},{"NoteNumber":63,"Velocity":33,"Duration":247761,"SoundDuration":247761,"Delta":1107991},{"NoteNumber":60,"Velocity":41,"Duration":247761,"SoundDuration":247761,"Delta":1368793},{"NoteNumber":51,"Velocity":21,"Duration":247761,"SoundDuration":247761,"Delta":1368793},{"NoteNumber":56,"Velocity":28,"Duration":247761,"SoundDuration":247761,"Delta":1368793},{"NoteNumber":63,"Velocity":34,"Duration":247761,"SoundDuration":247761,"Delta":1368793},{"NoteNumber":60,"Velocity":43,"Duration":247761,"SoundDuration":247761,"Delta":1629595},{"NoteNumber":51,"Velocity":22,"Duration":247761,"SoundDuration":247761,"Delta":1629595},{"NoteNumber":56,"Velocity":29,"Duration":247761,"SoundDuration":247761,"Delta":1629595},{"NoteNumber":63,"Velocity":35,"Duration":247761,"SoundDuration":247761,"Delta":1629595},{"NoteNumber":60,"Velocity":45,"Duration":247686,"SoundDuration":247686,"Delta":1890396},{"NoteNumber":51,"Velocity":22,"Duration":247686,"SoundDuration":247686,"Delta":1890396},{"NoteNumber":56,"Velocity":31,"Duration":247686,"SoundDuration":247686,"Delta":1890396},{"NoteNumber":63,"Velocity":38,"Duration":247686,"SoundDuration":247686,"Delta":1890396},{"NoteNumber":60,"Velocity":47,"Duration":251339,"SoundDuration":251339,"Delta":2151032},{"NoteNumber":51,"Velocity":24,"Duration":251339,"SoundDuration":251339,"Delta":2151032},{"NoteNumber":56,"Velocity":33,"Duration":251339,"SoundDuration":251339,"Delta":2151032},{"NoteNumber":63,"Velocity":39,"Duration":251339,"SoundDuration":251339,"Delta":2151032},{"NoteNumber":60,"Velocity":47,"Duration":262430,"SoundDuration":262430,"Delta":2415882},{"NoteNumber":51,"Velocity":24,"Duration":262430,"SoundDuration":262430,"Delta":2415882},{"NoteNumber":56,"Velocity":33,"Duration":262430,"SoundDuration":262430,"Delta":2415882},{"NoteNumber":63,"Velocity":39,"Duration":262430,"SoundDuration":262430,"Delta":2415882},{"NoteNumber":60,"Velocity":45,"Duration":269529,"SoundDuration":269529,"Delta":2692283},{"NoteNumber":51,"Velocity":22,"Duration":269529,"SoundDuration":269529,"Delta":2692283},{"NoteNumber":56,"Velocity":31,"Duration":269529,"SoundDuration":269529,"Delta":2692283},{"NoteNumber":63,"Velocity":37,"Duration":269529,"SoundDuration":269529,"Delta":2692283},{"NoteNumber":60,"Velocity":40,"Duration":272310,"SoundDuration":272310,"Delta":2975998},{"NoteNumber":51,"Velocity":21,"Duration":272310,"SoundDuration":272310,"Delta":2975998},{"NoteNumber":56,"Velocity":28,"Duration":272310,"SoundDuration":272310,"Delta":2975998},{"NoteNumber":63,"Velocity":34,"Duration":272310,"SoundDuration":272310,"Delta":2975998},{"NoteNumber":61,"Velocity":48,"Duration":287211,"SoundDuration":287211,"Delta":3262640},{"NoteNumber":39,"Velocity":46,"Duration":287211,"SoundDuration":287211,"Delta":3262640},{"NoteNumber":67,"Velocity":55,"Duration":249496,"SoundDuration":249496,"Delta":3564968},{"NoteNumber":61,"Velocity":42,"Duration":249496,"SoundDuration":249496,"Delta":3564968},{"NoteNumber":51,"Velocity":24,"Duration":249496,"SoundDuration":249496,"Delta":3564968},{"NoteNumber":58,"Velocity":32,"Duration":249496,"SoundDuration":249496,"Delta":3564968},{"NoteNumber":63,"Velocity":32,"Duration":249496,"SoundDuration":249496,"Delta":3564968},{"NoteNumber":72,"Velocity":57,"Duration":260887,"SoundDuration":260887,"Delta":3827596},{"NoteNumber":61,"Velocity":44,"Duration":260887,"SoundDuration":260887,"Delta":3827596},{"NoteNumber":51,"Velocity":25,"Duration":260887,"SoundDuration":260887,"Delta":3827596},{"NoteNumber":58,"Velocity":34,"Duration":260887,"SoundDuration":260887,"Delta":3827596},{"NoteNumber":63,"Velocity":34,"Duration":260887,"SoundDuration":260887,"Delta":3827596},{"NoteNumber":73,"Velocity":59,"Duration":246050,"SoundDuration":246050,"Delta":4102246},{"NoteNumber":61,"Velocity":45,"Duration":246050,"SoundDuration":246050,"Delta":4102246},{"NoteNumber":51,"Velocity":27,"Duration":246050,"SoundDuration":246050,"Delta":4102246},{"NoteNumber":58,"Velocity":36,"Duration":246050,"SoundDuration":246050,"Delta":4102246},{"NoteNumber":63,"Velocity":36,"Duration":246050,"SoundDuration":246050,"Delta":4102246},{"NoteNumber":65,"Velocity":56,"Duration":258902,"SoundDuration":258902,"Delta":4361246},{"NoteNumber":61,"Velocity":43,"Duration":258902,"SoundDuration":258902,"Delta":4361246},{"NoteNumber":51,"Velocity":25,"Duration":258902,"SoundDuration":258902,"Delta":4361246},{"NoteNumber":58,"Velocity":34,"Duration":258902,"SoundDuration":258902,"Delta":4361246},{"NoteNumber":63,"Velocity":34,"Duration":258902,"SoundDuration":258902,"Delta":4361246},{"NoteNumber":67,"Velocity":55,"Duration":270912,"SoundDuration":270912,"Delta":4633775},{"NoteNumber":61,"Velocity":42,"Duration":270912,"SoundDuration":270912,"Delta":4633775},{"NoteNumber":51,"Velocity":25,"Duration":270912,"SoundDuration":270912,"Delta":4633775},{"NoteNumber":58,"Velocity":34,"Duration":270912,"SoundDuration":270912,"Delta":4633775},{"NoteNumber":63,"Velocity":34,"Duration":270912,"SoundDuration":270912,"Delta":4633775},{"NoteNumber":70,"Velocity":61,"Duration":819339,"SoundDuration":819339,"Delta":4918946},{"NoteNumber":44,"Velocity":47,"Duration":281065,"SoundDuration":281065,"Delta":4918946},{"NoteNumber":60,"Velocity":26,"Duration":246050,"SoundDuration":246050,"Delta":5214804},{"NoteNumber":66,"Velocity":31,"Duration":246050,"SoundDuration":246050,"Delta":5214804},{"NoteNumber":56,"Velocity":22,"Duration":246050,"SoundDuration":246050,"Delta":5214804},{"NoteNumber":63,"Velocity":30,"Duration":246050,"SoundDuration":246050,"Delta":5214804},{"NoteNumber":60,"Velocity":26,"Duration":251256,"SoundDuration":251256,"Delta":5473805},{"NoteNumber":66,"Velocity":31,"Duration":251256,"SoundDuration":251256,"Delta":5473805},{"NoteNumber":56,"Velocity":21,"Duration":251256,"SoundDuration":251256,"Delta":5473805},{"NoteNumber":63,"Velocity":29,"Duration":251256,"SoundDuration":251256,"Delta":5473805},{"NoteNumber":68,"Velocity":52,"Duration":1129172,"SoundDuration":1129172,"Delta":5738285},{"NoteNumber":60,"Velocity":30,"Duration":251256,"SoundDuration":251256,"Delta":5738285},{"NoteNumber":66,"Velocity":36,"Duration":251256,"SoundDuration":251256,"Delta":5738285},{"NoteNumber":56,"Velocity":25,"Duration":251256,"SoundDuration":251256,"Delta":5738285},{"NoteNumber":63,"Velocity":34,"Duration":251256,"SoundDuration":251256,"Delta":5738285},{"NoteNumber":66,"Velocity":31,"Duration":268159,"SoundDuration":268159,"Delta":6002766},{"NoteNumber":60,"Velocity":26,"Duration":268159,"SoundDuration":268159,"Delta":6002766},{"NoteNumber":56,"Velocity":22,"Duration":268159,"SoundDuration":268159,"Delta":6002766},{"NoteNumber":63,"Velocity":30,"Duration":268159,"SoundDuration":268159,"Delta":6002766},{"NoteNumber":66,"Velocity":31,"Duration":273749,"SoundDuration":273749,"Delta":6285039},{"NoteNumber":60,"Velocity":26,"Duration":273749,"SoundDuration":273749,"Delta":6285039},{"NoteNumber":56,"Velocity":22,"Duration":273749,"SoundDuration":273749,"Delta":6285039},{"NoteNumber":63,"Velocity":30,"Duration":273749,"SoundDuration":273749,"Delta":6285039},{"NoteNumber":49,"Velocity":47,"Duration":279548,"SoundDuration":279548,"Delta":6573196},{"NoteNumber":73,"Velocity":59,"Duration":253041,"SoundDuration":253041,"Delta":6867458},{"NoteNumber":68,"Velocity":45,"Duration":253041,"SoundDuration":253041,"Delta":6867458},{"NoteNumber":56,"Velocity":21,"Duration":253041,"SoundDuration":253041,"Delta":6867458},{"NoteNumber":61,"Velocity":28,"Duration":253041,"SoundDuration":253041,"Delta":6867458},{"NoteNumber":65,"Velocity":34,"Duration":253041,"SoundDuration":253041,"Delta":6867458},{"NoteNumber":79,"Velocity":63,"Duration":251256,"SoundDuration":251256,"Delta":7133817},{"NoteNumber":68,"Velocity":49,"Duration":251256,"SoundDuration":251256,"Delta":7133817},{"NoteNumber":56,"Velocity":21,"Duration":251256,"SoundDuration":251256,"Delta":7133817},{"NoteNumber":61,"Velocity":28,"Duration":251256,"SoundDuration":251256,"Delta":7133817},{"NoteNumber":65,"Velocity":34,"Duration":251256,"SoundDuration":251256,"Delta":7133817},{"NoteNumber":82,"Velocity":68,"Duration":247761,"SoundDuration":247761,"Delta":7398297},{"NoteNumber":68,"Velocity":52,"Duration":247761,"SoundDuration":247761,"Delta":7398297},{"NoteNumber":56,"Velocity":22,"Duration":247761,"SoundDuration":247761,"Delta":7398297},{"NoteNumber":61,"Velocity":30,"Duration":247761,"SoundDuration":247761,"Delta":7398297},{"NoteNumber":65,"Velocity":36,"Duration":247761,"SoundDuration":247761,"Delta":7398297},{"NoteNumber":80,"Velocity":61,"Duration":260440,"SoundDuration":260440,"Delta":7659099},{"NoteNumber":68,"Velocity":47,"Duration":260440,"SoundDuration":260440,"Delta":7659099},{"NoteNumber":56,"Velocity":21,"Duration":260440,"SoundDuration":260440,"Delta":7659099},{"NoteNumber":61,"Velocity":28,"Duration":260440,"SoundDuration":260440,"Delta":7659099},{"NoteNumber":65,"Velocity":34,"Duration":260440,"SoundDuration":260440,"Delta":7659099},{"NoteNumber":77,"Velocity":61,"Duration":272310,"SoundDuration":272310,"Delta":7933247},{"NoteNumber":68,"Velocity":47,"Duration":272310,"SoundDuration":272310,"Delta":7933247},{"NoteNumber":56,"Velocity":21,"Duration":272310,"SoundDuration":272310,"Delta":7933247},{"NoteNumber":61,"Velocity":28,"Duration":272310,"SoundDuration":272310,"Delta":7933247},{"NoteNumber":65,"Velocity":34,"Duration":272310,"SoundDuration":272310,"Delta":7933247},{"NoteNumber":75,"Velocity":71,"Duration":844158,"SoundDuration":844158,"Delta":8219889},{"NoteNumber":51,"Velocity":47,"Duration":272310,"SoundDuration":272310,"Delta":8219889},{"NoteNumber":63,"Velocity":42,"Duration":254464,"SoundDuration":254464,"Delta":8506532},{"NoteNumber":70,"Velocity":50,"Duration":254464,"SoundDuration":254464,"Delta":8506532},{"NoteNumber":58,"Velocity":18,"Duration":254464,"SoundDuration":254464,"Delta":8506532},{"NoteNumber":61,"Velocity":24,"Duration":254464,"SoundDuration":254464,"Delta":8506532},{"NoteNumber":67,"Velocity":29,"Duration":254464,"SoundDuration":254464,"Delta":8506532},{"NoteNumber":63,"Velocity":42,"Duration":275176,"SoundDuration":275176,"Delta":8774389},{"NoteNumber":70,"Velocity":50,"Duration":275176,"SoundDuration":275176,"Delta":8774389},{"NoteNumber":58,"Velocity":18,"Duration":275176,"SoundDuration":275176,"Delta":8774389},{"NoteNumber":61,"Velocity":25,"Duration":275176,"SoundDuration":275176,"Delta":8774389},{"NoteNumber":67,"Velocity":30,"Duration":275176,"SoundDuration":275176,"Delta":8774389},{"NoteNumber":77,"Velocity":69,"Duration":1131771,"SoundDuration":1131771,"Delta":9064048},{"NoteNumber":49,"Velocity":47,"Duration":256294,"SoundDuration":256294,"Delta":9064048},{"NoteNumber":73,"Velocity":50,"Duration":268159,"SoundDuration":268159,"Delta":9333832},{"NoteNumber":65,"Velocity":42,"Duration":268159,"SoundDuration":268159,"Delta":9333832},{"NoteNumber":56,"Velocity":16,"Duration":268159,"SoundDuration":268159,"Delta":9333832},{"NoteNumber":61,"Velocity":22,"Duration":268159,"SoundDuration":268159,"Delta":9333832},{"NoteNumber":68,"Velocity":27,"Duration":268159,"SoundDuration":268159,"Delta":9333832},{"NoteNumber":73,"Velocity":48,"Duration":268159,"SoundDuration":268159,"Delta":9616105},{"NoteNumber":65,"Velocity":40,"Duration":268159,"SoundDuration":268159,"Delta":9616105},{"NoteNumber":56,"Velocity":16,"Duration":268159,"SoundDuration":268159,"Delta":9616105},{"NoteNumber":61,"Velocity":22,"Duration":268159,"SoundDuration":268159,"Delta":9616105},{"NoteNumber":68,"Velocity":27,"Duration":268159,"SoundDuration":268159,"Delta":9616105},{"NoteNumber":51,"Velocity":47,"Duration":282569,"SoundDuration":282569,"Delta":9898378},{"NoteNumber":70,"Velocity":59,"Duration":249496,"SoundDuration":249496,"Delta":10195820},{"NoteNumber":58,"Velocity":21,"Duration":249496,"SoundDuration":249496,"Delta":10195820},{"NoteNumber":61,"Velocity":28,"Duration":249496,"SoundDuration":249496,"Delta":10195820},{"NoteNumber":67,"Velocity":34,"Duration":249496,"SoundDuration":249496,"Delta":10195820},{"NoteNumber":75,"Velocity":63,"Duration":249496,"SoundDuration":249496,"Delta":10458448},{"NoteNumber":63,"Velocity":49,"Duration":249496,"SoundDuration":249496,"Delta":10458448},{"NoteNumber":70,"Velocity":49,"Duration":249496,"SoundDuration":249496,"Delta":10458448},{"NoteNumber":58,"Velocity":21,"Duration":249496,"SoundDuration":249496,"Delta":10458448},{"NoteNumber":61,"Velocity":28,"Duration":249496,"SoundDuration":249496,"Delta":10458448},{"NoteNumber":67,"Velocity":34,"Duration":249496,"SoundDuration":249496,"Delta":10458448},{"NoteNumber":79,"Velocity":64,"Duration":242697,"SoundDuration":242697,"Delta":10721076},{"NoteNumber":70,"Velocity":52,"Duration":242697,"SoundDuration":242697,"Delta":10721076},{"NoteNumber":58,"Velocity":22,"Duration":242697,"SoundDuration":242697,"Delta":10721076},{"NoteNumber":61,"Velocity":30,"Duration":242697,"SoundDuration":242697,"Delta":10721076},{"NoteNumber":67,"Velocity":36,"Duration":242697,"SoundDuration":242697,"Delta":10721076},{"NoteNumber":77,"Velocity":61,"Duration":247761,"SoundDuration":247761,"Delta":10976547},{"NoteNumber":70,"Velocity":47,"Duration":247761,"SoundDuration":247761,"Delta":10976547},{"NoteNumber":58,"Velocity":21,"Duration":247761,"SoundDuration":247761,"Delta":10976547},{"NoteNumber":61,"Velocity":28,"Duration":247761,"SoundDuration":247761,"Delta":10976547},{"NoteNumber":67,"Velocity":34,"Duration":247761,"SoundDuration":247761,"Delta":10976547},{"NoteNumber":73,"Velocity":61,"Duration":272310,"SoundDuration":272310,"Delta":11237349},{"NoteNumber":70,"Velocity":47,"Duration":272310,"SoundDuration":272310,"Delta":11237349},{"NoteNumber":58,"Velocity":21,"Duration":272310,"SoundDuration":272310,"Delta":11237349},{"NoteNumber":61,"Velocity":28,"Duration":272310,"SoundDuration":272310,"Delta":11237349},{"NoteNumber":67,"Velocity":34,"Duration":272310,"SoundDuration":272310,"Delta":11237349},{"NoteNumber":72,"Velocity":70,"Duration":854311,"SoundDuration":854311,"Delta":11523991},{"NoteNumber":53,"Velocity":47,"Duration":854311,"SoundDuration":854311,"Delta":11523991},{"NoteNumber":63,"Velocity":37,"Duration":264109,"SoundDuration":264109,"Delta":11810634},{"NoteNumber":69,"Velocity":45,"Duration":264109,"SoundDuration":264109,"Delta":11810634},{"NoteNumber":60,"Velocity":21,"Duration":264109,"SoundDuration":264109,"Delta":11810634},{"NoteNumber":65,"Velocity":29,"Duration":264109,"SoundDuration":264109,"Delta":11810634},{"NoteNumber":63,"Velocity":37,"Duration":275176,"SoundDuration":275176,"Delta":12088643},{"NoteNumber":69,"Velocity":45,"Duration":275176,"SoundDuration":275176,"Delta":12088643},{"NoteNumber":60,"Velocity":22,"Duration":275176,"SoundDuration":275176,"Delta":12088643},{"NoteNumber":65,"Velocity":30,"Duration":275176,"SoundDuration":275176,"Delta":12088643},{"NoteNumber":73,"Velocity":58,"Duration":1139997,"SoundDuration":1139997,"Delta":12378302},{"NoteNumber":46,"Velocity":39,"Duration":264109,"SoundDuration":264109,"Delta":12378302},{"NoteNumber":68,"Velocity":35,"Duration":268159,"SoundDuration":268159,"Delta":12656312},{"NoteNumber":61,"Velocity":29,"Duration":268159,"SoundDuration":268159,"Delta":12656312},{"NoteNumber":53,"Velocity":13,"Duration":268159,"SoundDuration":268159,"Delta":12656312},{"NoteNumber":58,"Velocity":15,"Duration":268159,"SoundDuration":268159,"Delta":12656312},{"NoteNumber":65,"Velocity":18,"Duration":268159,"SoundDuration":268159,"Delta":12656312},{"NoteNumber":68,"Velocity":34,"Duration":268159,"SoundDuration":268159,"Delta":12938585},{"NoteNumber":61,"Velocity":28,"Duration":268159,"SoundDuration":268159,"Delta":12938585},{"NoteNumber":53,"Velocity":13,"Duration":268159,"SoundDuration":268159,"Delta":12938585},{"NoteNumber":58,"Velocity":15,"Duration":268159,"SoundDuration":268159,"Delta":12938585},{"NoteNumber":65,"Velocity":18,"Duration":268159,"SoundDuration":268159,"Delta":12938585},{"NoteNumber":51,"Velocity":39,"Duration":833121,"SoundDuration":833121,"Delta":13220858},{"NoteNumber":68,"Velocity":50,"Duration":257638,"SoundDuration":257638,"Delta":13518300},{"NoteNumber":61,"Velocity":41,"Duration":257638,"SoundDuration":257638,"Delta":13518300},{"NoteNumber":58,"Velocity":21,"Duration":257638,"SoundDuration":257638,"Delta":13518300},{"NoteNumber":65,"Velocity":28,"Duration":257638,"SoundDuration":257638,"Delta":13518300},{"NoteNumber":67,"Velocity":41,"Duration":251256,"SoundDuration":251256,"Delta":13789498},{"NoteNumber":61,"Velocity":34,"Duration":251256,"SoundDuration":251256,"Delta":13789498},{"NoteNumber":70,"Velocity":53,"Duration":251256,"SoundDuration":251256,"Delta":13789498},{"NoteNumber":58,"Velocity":21,"Duration":251256,"SoundDuration":251256,"Delta":13789498},{"NoteNumber":63,"Velocity":28,"Duration":251256,"SoundDuration":251256,"Delta":13789498},{"NoteNumber":73,"Velocity":57,"Duration":244362,"SoundDuration":244362,"Delta":14053979},{"NoteNumber":44,"Velocity":39,"Duration":244362,"SoundDuration":244362,"Delta":14053979},{"NoteNumber":68,"Velocity":39,"Duration":260440,"SoundDuration":260440,"Delta":14311202},{"NoteNumber":60,"Velocity":33,"Duration":260440,"SoundDuration":260440,"Delta":14311202},{"NoteNumber":72,"Velocity":51,"Duration":260440,"SoundDuration":260440,"Delta":14311202},{"NoteNumber":51,"Velocity":17,"Duration":260440,"SoundDuration":260440,"Delta":14311202},{"NoteNumber":56,"Velocity":23,"Duration":260440,"SoundDuration":260440,"Delta":14311202},{"NoteNumber":63,"Velocity":28,"Duration":260440,"SoundDuration":260440,"Delta":14311202},{"NoteNumber":68,"Velocity":46,"Duration":278075,"SoundDuration":278075,"Delta":14585350},{"NoteNumber":60,"Velocity":29,"Duration":278075,"SoundDuration":278075,"Delta":14585350},{"NoteNumber":65,"Velocity":35,"Duration":278075,"SoundDuration":278075,"Delta":14585350},{"NoteNumber":51,"Velocity":15,"Duration":278075,"SoundDuration":278075,"Delta":14585350},{"NoteNumber":56,"Velocity":21,"Duration":278075,"SoundDuration":278075,"Delta":14585350},{"NoteNumber":63,"Velocity":25,"Duration":278075,"SoundDuration":278075,"Delta":14585350},{"NoteNumber":70,"Velocity":55,"Duration":1981066,"SoundDuration":1981066,"Delta":14878062},{"NoteNumber":39,"Velocity":39,"Duration":272310,"SoundDuration":272310,"Delta":14878062},{"NoteNumber":58,"Velocity":34,"Duration":261468,"SoundDuration":261468,"Delta":15164704},{"NoteNumber":67,"Velocity":40,"Duration":261468,"SoundDuration":261468,"Delta":15164704},{"NoteNumber":51,"Velocity":18,"Duration":261468,"SoundDuration":261468,"Delta":15164704},{"NoteNumber":63,"Velocity":25,"Duration":261468,"SoundDuration":261468,"Delta":15164704},{"NoteNumber":58,"Velocity":33,"Duration":261468,"SoundDuration":261468,"Delta":15439934},{"NoteNumber":67,"Velocity":39,"Duration":261468,"SoundDuration":261468,"Delta":15439934},{"NoteNumber":51,"Velocity":17,"Duration":261468,"SoundDuration":261468,"Delta":15439934},{"NoteNumber":63,"Velocity":23,"Duration":261468,"SoundDuration":261468,"Delta":15439934},{"NoteNumber":58,"Velocity":34,"Duration":261468,"SoundDuration":261468,"Delta":15715163},{"NoteNumber":67,"Velocity":40,"Duration":261468,"SoundDuration":261468,"Delta":15715163},{"NoteNumber":51,"Velocity":18,"Duration":261468,"SoundDuration":261468,"Delta":15715163},{"NoteNumber":63,"Velocity":25,"Duration":261468,"SoundDuration":261468,"Delta":15715163},{"NoteNumber":58,"Velocity":32,"Duration":261468,"SoundDuration":261468,"Delta":15990393},{"NoteNumber":67,"Velocity":38,"Duration":261468,"SoundDuration":261468,"Delta":15990393},{"NoteNumber":51,"Velocity":17,"Duration":261468,"SoundDuration":261468,"Delta":15990393},{"NoteNumber":63,"Velocity":23,"Duration":261468,"SoundDuration":261468,"Delta":15990393},{"NoteNumber":58,"Velocity":32,"Duration":276618,"SoundDuration":276618,"Delta":16265622},{"NoteNumber":67,"Velocity":38,"Duration":276618,"SoundDuration":276618,"Delta":16265622},{"NoteNumber":51,"Velocity":17,"Duration":276618,"SoundDuration":276618,"Delta":16265622},{"NoteNumber":63,"Velocity":23,"Duration":276618,"SoundDuration":276618,"Delta":16265622},{"NoteNumber":61,"Velocity":64,"Duration":287211,"SoundDuration":287211,"Delta":16556800},{"NoteNumber":39,"Velocity":69,"Duration":287211,"SoundDuration":287211,"Delta":16556800},{"NoteNumber":67,"Velocity":68,"Duration":256387,"SoundDuration":256387,"Delta":16859128},{"NoteNumber":61,"Velocity":52,"Duration":256387,"SoundDuration":256387,"Delta":16859128},{"NoteNumber":51,"Velocity":28,"Duration":256387,"SoundDuration":256387,"Delta":16859128},{"NoteNumber":58,"Velocity":39,"Duration":256387,"SoundDuration":256387,"Delta":16859128},{"NoteNumber":63,"Velocity":39,"Duration":256387,"SoundDuration":256387,"Delta":16859128},{"NoteNumber":61,"Velocity":54,"Duration":247761,"SoundDuration":247761,"Delta":17129009},{"NoteNumber":67,"Velocity":54,"Duration":247761,"SoundDuration":247761,"Delta":17129009},{"NoteNumber":72,"Velocity":70,"Duration":247761,"SoundDuration":247761,"Delta":17129009},{"NoteNumber":51,"Velocity":30,"Duration":247761,"SoundDuration":247761,"Delta":17129009},{"NoteNumber":58,"Velocity":42,"Duration":247761,"SoundDuration":247761,"Delta":17129009},{"NoteNumber":63,"Velocity":42,"Duration":247761,"SoundDuration":247761,"Delta":17129009},{"NoteNumber":73,"Velocity":72,"Duration":244362,"SoundDuration":244362,"Delta":17389811},{"NoteNumber":67,"Velocity":55,"Duration":244362,"SoundDuration":244362,"Delta":17389811},{"NoteNumber":61,"Velocity":55,"Duration":244362,"SoundDuration":244362,"Delta":17389811},{"NoteNumber":51,"Velocity":32,"Duration":244362,"SoundDuration":244362,"Delta":17389811},{"NoteNumber":58,"Velocity":44,"Duration":244362,"SoundDuration":244362,"Delta":17389811},{"NoteNumber":63,"Velocity":44,"Duration":244362,"SoundDuration":244362,"Delta":17389811},{"NoteNumber":65,"Velocity":69,"Duration":258902,"SoundDuration":258902,"Delta":17647034},{"NoteNumber":61,"Velocity":53,"Duration":258902,"SoundDuration":258902,"Delta":17647034},{"NoteNumber":51,"Velocity":30,"Duration":258902,"SoundDuration":258902,"Delta":17647034},{"NoteNumber":58,"Velocity":42,"Duration":258902,"SoundDuration":258902,"Delta":17647034},{"NoteNumber":63,"Velocity":42,"Duration":258902,"SoundDuration":258902,"Delta":17647034},{"NoteNumber":67,"Velocity":68,"Duration":270912,"SoundDuration":270912,"Delta":17919563},{"NoteNumber":61,"Velocity":52,"Duration":270912,"SoundDuration":270912,"Delta":17919563},{"NoteNumber":51,"Velocity":30,"Duration":270912,"SoundDuration":270912,"Delta":17919563},{"NoteNumber":58,"Velocity":42,"Duration":270912,"SoundDuration":270912,"Delta":17919563},{"NoteNumber":63,"Velocity":42,"Duration":270912,"SoundDuration":270912,"Delta":17919563},{"NoteNumber":70,"Velocity":72,"Duration":817486,"SoundDuration":817486,"Delta":18204734},{"NoteNumber":44,"Velocity":66,"Duration":281065,"SoundDuration":281065,"Delta":18204734},{"NoteNumber":60,"Velocity":37,"Duration":246050,"SoundDuration":246050,"Delta":18500592},{"NoteNumber":66,"Velocity":44,"Duration":246050,"SoundDuration":246050,"Delta":18500592},{"NoteNumber":51,"Velocity":32,"Duration":246050,"SoundDuration":246050,"Delta":18500592},{"NoteNumber":56,"Velocity":32,"Duration":246050,"SoundDuration":246050,"Delta":18500592},{"NoteNumber":63,"Velocity":43,"Duration":246050,"SoundDuration":246050,"Delta":18500592},{"NoteNumber":60,"Velocity":37,"Duration":249496,"SoundDuration":249496,"Delta":18759593},{"NoteNumber":66,"Velocity":44,"Duration":249496,"SoundDuration":249496,"Delta":18759593},{"NoteNumber":51,"Velocity":32,"Duration":249496,"SoundDuration":249496,"Delta":18759593},{"NoteNumber":56,"Velocity":32,"Duration":249496,"SoundDuration":249496,"Delta":18759593},{"NoteNumber":63,"Velocity":42,"Duration":249496,"SoundDuration":249496,"Delta":18759593},{"NoteNumber":68,"Velocity":73,"Duration":1127319,"SoundDuration":1127319,"Delta":19022221},{"NoteNumber":60,"Velocity":43,"Duration":249496,"SoundDuration":249496,"Delta":19022221},{"NoteNumber":66,"Velocity":52,"Duration":249496,"SoundDuration":249496,"Delta":19022221},{"NoteNumber":51,"Velocity":36,"Duration":249496,"SoundDuration":249496,"Delta":19022221},{"NoteNumber":56,"Velocity":36,"Duration":249496,"SoundDuration":249496,"Delta":19022221},{"NoteNumber":63,"Velocity":50,"Duration":249496,"SoundDuration":249496,"Delta":19022221},{"NoteNumber":66,"Velocity":44,"Duration":268159,"SoundDuration":268159,"Delta":19284849},{"NoteNumber":60,"Velocity":37,"Duration":268159,"SoundDuration":268159,"Delta":19284849},{"NoteNumber":51,"Velocity":32,"Duration":268159,"SoundDuration":268159,"Delta":19284849},{"NoteNumber":56,"Velocity":32,"Duration":268159,"SoundDuration":268159,"Delta":19284849},{"NoteNumber":63,"Velocity":43,"Duration":268159,"SoundDuration":268159,"Delta":19284849},{"NoteNumber":66,"Velocity":44,"Duration":273749,"SoundDuration":273749,"Delta":19567122},{"NoteNumber":60,"Velocity":37,"Duration":273749,"SoundDuration":273749,"Delta":19567122},{"NoteNumber":51,"Velocity":32,"Duration":273749,"SoundDuration":273749,"Delta":19567122},{"NoteNumber":56,"Velocity":32,"Duration":273749,"SoundDuration":273749,"Delta":19567122},{"NoteNumber":63,"Velocity":43,"Duration":273749,"SoundDuration":273749,"Delta":19567122},{"NoteNumber":37,"Velocity":71,"Duration":279548,"SoundDuration":279548,"Delta":19855279},{"NoteNumber":73,"Velocity":72,"Duration":253041,"SoundDuration":253041,"Delta":20149541},{"NoteNumber":68,"Velocity":55,"Duration":253041,"SoundDuration":253041,"Delta":20149541},{"NoteNumber":53,"Velocity":20,"Duration":253041,"SoundDuration":253041,"Delta":20149541},{"NoteNumber":56,"Velocity":20,"Duration":253041,"SoundDuration":253041,"Delta":20149541},{"NoteNumber":61,"Velocity":34,"Duration":253041,"SoundDuration":253041,"Delta":20149541},{"NoteNumber":65,"Velocity":41,"Duration":253041,"SoundDuration":253041,"Delta":20149541},{"NoteNumber":68,"Velocity":50,"Duration":244362,"SoundDuration":244362,"Delta":20415900},{"NoteNumber":73,"Velocity":59,"Duration":244362,"SoundDuration":244362,"Delta":20415900},{"NoteNumber":79,"Velocity":75,"Duration":244362,"SoundDuration":244362,"Delta":20415900},{"NoteNumber":53,"Velocity":20,"Duration":244362,"SoundDuration":244362,"Delta":20415900},{"NoteNumber":56,"Velocity":20,"Duration":244362,"SoundDuration":244362,"Delta":20415900},{"NoteNumber":61,"Velocity":34,"Duration":244362,"SoundDuration":244362,"Delta":20415900},{"NoteNumber":65,"Velocity":41,"Duration":244362,"SoundDuration":244362,"Delta":20415900},{"NoteNumber":73,"Velocity":62,"Duration":239435,"SoundDuration":239435,"Delta":20673123},{"NoteNumber":82,"Velocity":80,"Duration":239435,"SoundDuration":239435,"Delta":20673123},{"NoteNumber":68,"Velocity":52,"Duration":239435,"SoundDuration":239435,"Delta":20673123},{"NoteNumber":53,"Velocity":22,"Duration":239435,"SoundDuration":239435,"Delta":20673123},{"NoteNumber":56,"Velocity":22,"Duration":239435,"SoundDuration":239435,"Delta":20673123},{"NoteNumber":61,"Velocity":36,"Duration":239435,"SoundDuration":239435,"Delta":20673123},{"NoteNumber":65,"Velocity":45,"Duration":239435,"SoundDuration":239435,"Delta":20673123},{"NoteNumber":73,"Velocity":57,"Duration":251256,"SoundDuration":251256,"Delta":20925161},{"NoteNumber":80,"Velocity":75,"Duration":251256,"SoundDuration":251256,"Delta":20925161},{"NoteNumber":68,"Velocity":48,"Duration":251256,"SoundDuration":251256,"Delta":20925161},{"NoteNumber":53,"Velocity":20,"Duration":251256,"SoundDuration":251256,"Delta":20925161},{"NoteNumber":56,"Velocity":20,"Duration":251256,"SoundDuration":251256,"Delta":20925161},{"NoteNumber":61,"Velocity":34,"Duration":251256,"SoundDuration":251256,"Delta":20925161},{"NoteNumber":65,"Velocity":41,"Duration":251256,"SoundDuration":251256,"Delta":20925161},{"NoteNumber":68,"Velocity":48,"Duration":272310,"SoundDuration":272310,"Delta":21189641},{"NoteNumber":73,"Velocity":57,"Duration":272310,"SoundDuration":272310,"Delta":21189641},{"NoteNumber":77,"Velocity":75,"Duration":272310,"SoundDuration":272310,"Delta":21189641},{"NoteNumber":53,"Velocity":20,"Duration":272310,"SoundDuration":272310,"Delta":21189641},{"NoteNumber":56,"Velocity":20,"Duration":272310,"SoundDuration":272310,"Delta":21189641},{"NoteNumber":61,"Velocity":34,"Duration":272310,"SoundDuration":272310,"Delta":21189641},{"NoteNumber":65,"Velocity":41,"Duration":272310,"SoundDuration":272310,"Delta":21189641},{"NoteNumber":75,"Velocity":88,"Duration":838539,"SoundDuration":838539,"Delta":21476284},{"NoteNumber":51,"Velocity":65,"Duration":272310,"SoundDuration":272310,"Delta":21476284},{"NoteNumber":70,"Velocity":65,"Duration":249126,"SoundDuration":249126,"Delta":21762926},{"NoteNumber":63,"Velocity":54,"Duration":249126,"SoundDuration":249126,"Delta":21762926},{"NoteNumber":58,"Velocity":19,"Duration":249126,"SoundDuration":249126,"Delta":21762926},{"NoteNumber":61,"Velocity":27,"Duration":249126,"SoundDuration":249126,"Delta":21762926},{"NoteNumber":67,"Velocity":33,"Duration":249126,"SoundDuration":249126,"Delta":21762926},{"NoteNumber":70,"Velocity":65,"Duration":275176,"SoundDuration":275176,"Delta":22025164},{"NoteNumber":63,"Velocity":54,"Duration":275176,"SoundDuration":275176,"Delta":22025164},{"NoteNumber":58,"Velocity":20,"Duration":275176,"SoundDuration":275176,"Delta":22025164},{"NoteNumber":61,"Velocity":28,"Duration":275176,"SoundDuration":275176,"Delta":22025164},{"NoteNumber":67,"Velocity":34,"Duration":275176,"SoundDuration":275176,"Delta":22025164},{"NoteNumber":77,"Velocity":84,"Duration":1122404,"SoundDuration":1122404,"Delta":22314823},{"NoteNumber":49,"Velocity":57,"Duration":247395,"SoundDuration":247395,"Delta":22314823},{"NoteNumber":65,"Velocity":54,"Duration":268159,"SoundDuration":268159,"Delta":22575240},{"NoteNumber":73,"Velocity":65,"Duration":268159,"SoundDuration":268159,"Delta":22575240},{"NoteNumber":56,"Velocity":18,"Duration":268159,"SoundDuration":268159,"Delta":22575240},{"NoteNumber":61,"Velocity":25,"Duration":268159,"SoundDuration":268159,"Delta":22575240},{"NoteNumber":68,"Velocity":30,"Duration":268159,"SoundDuration":268159,"Delta":22575240},{"NoteNumber":65,"Velocity":52,"Duration":268159,"SoundDuration":268159,"Delta":22857513},{"NoteNumber":73,"Velocity":62,"Duration":268159,"SoundDuration":268159,"Delta":22857513},{"NoteNumber":56,"Velocity":18,"Duration":268159,"SoundDuration":268159,"Delta":22857513},{"NoteNumber":61,"Velocity":25,"Duration":268159,"SoundDuration":268159,"Delta":22857513},{"NoteNumber":68,"Velocity":30,"Duration":268159,"SoundDuration":268159,"Delta":22857513},{"NoteNumber":51,"Velocity":69,"Duration":282569,"SoundDuration":282569,"Delta":23139786},{"NoteNumber":70,"Velocity":72,"Duration":257638,"SoundDuration":257638,"Delta":23437228},{"NoteNumber":58,"Velocity":25,"Duration":257638,"SoundDuration":257638,"Delta":23437228},{"NoteNumber":61,"Velocity":34,"Duration":257638,"SoundDuration":257638,"Delta":23437228},{"NoteNumber":67,"Velocity":41,"Duration":257638,"SoundDuration":257638,"Delta":23437228},{"NoteNumber":70,"Velocity":59,"Duration":251256,"SoundDuration":251256,"Delta":23708426},{"NoteNumber":63,"Velocity":51,"Duration":251256,"SoundDuration":251256,"Delta":23708426},{"NoteNumber":75,"Velocity":75,"Duration":251256,"SoundDuration":251256,"Delta":23708426},{"NoteNumber":58,"Velocity":25,"Duration":251256,"SoundDuration":251256,"Delta":23708426},{"NoteNumber":61,"Velocity":34,"Duration":251256,"SoundDuration":251256,"Delta":23708426},{"NoteNumber":67,"Velocity":41,"Duration":251256,"SoundDuration":251256,"Delta":23708426},{"NoteNumber":70,"Velocity":64,"Duration":244362,"SoundDuration":244362,"Delta":23972907},{"NoteNumber":79,"Velocity":80,"Duration":244362,"SoundDuration":244362,"Delta":23972907},{"NoteNumber":63,"Velocity":36,"Duration":244362,"SoundDuration":244362,"Delta":23972907},{"NoteNumber":58,"Velocity":27,"Duration":244362,"SoundDuration":244362,"Delta":23972907},{"NoteNumber":61,"Velocity":36,"Duration":244362,"SoundDuration":244362,"Delta":23972907},{"NoteNumber":67,"Velocity":45,"Duration":244362,"SoundDuration":244362,"Delta":23972907},{"NoteNumber":70,"Velocity":57,"Duration":253041,"SoundDuration":253041,"Delta":24230130},{"NoteNumber":77,"Velocity":75,"Duration":253041,"SoundDuration":253041,"Delta":24230130},{"NoteNumber":63,"Velocity":34,"Duration":253041,"SoundDuration":253041,"Delta":24230130},{"NoteNumber":58,"Velocity":25,"Duration":253041,"SoundDuration":253041,"Delta":24230130},{"NoteNumber":61,"Velocity":34,"Duration":253041,"SoundDuration":253041,"Delta":24230130},{"NoteNumber":67,"Velocity":41,"Duration":253041,"SoundDuration":253041,"Delta":24230130},{"NoteNumber":63,"Velocity":51,"Duration":272310,"SoundDuration":272310,"Delta":24496489},{"NoteNumber":73,"Velocity":75,"Duration":272310,"SoundDuration":272310,"Delta":24496489},{"NoteNumber":70,"Velocity":57,"Duration":272310,"SoundDuration":272310,"Delta":24496489},{"NoteNumber":58,"Velocity":25,"Duration":272310,"SoundDuration":272310,"Delta":24496489},{"NoteNumber":61,"Velocity":34,"Duration":272310,"SoundDuration":272310,"Delta":24496489},{"NoteNumber":67,"Velocity":41,"Duration":272310,"SoundDuration":272310,"Delta":24496489},{"NoteNumber":72,"Velocity":81,"Duration":859167,"SoundDuration":859167,"Delta":24783132},{"NoteNumber":41,"Velocity":68,"Duration":272310,"SoundDuration":272310,"Delta":24783132},{"NoteNumber":63,"Velocity":49,"Duration":256687,"SoundDuration":256687,"Delta":25069774},{"NoteNumber":69,"Velocity":58,"Duration":256687,"SoundDuration":256687,"Delta":25069774},{"NoteNumber":53,"Velocity":24,"Duration":256687,"SoundDuration":256687,"Delta":25069774},{"NoteNumber":60,"Velocity":24,"Duration":256687,"SoundDuration":256687,"Delta":25069774},{"NoteNumber":65,"Velocity":33,"Duration":256687,"SoundDuration":256687,"Delta":25069774},{"NoteNumber":63,"Velocity":49,"Duration":287211,"SoundDuration":287211,"Delta":25339971},{"NoteNumber":69,"Velocity":58,"Duration":287211,"SoundDuration":287211,"Delta":25339971},{"NoteNumber":53,"Velocity":25,"Duration":287211,"SoundDuration":287211,"Delta":25339971},{"NoteNumber":60,"Velocity":25,"Duration":287211,"SoundDuration":287211,"Delta":25339971},{"NoteNumber":65,"Velocity":34,"Duration":287211,"SoundDuration":287211,"Delta":25339971},{"NoteNumber":73,"Velocity":81,"Duration":1164282,"SoundDuration":1164282,"Delta":25642299},{"NoteNumber":46,"Velocity":57,"Duration":260440,"SoundDuration":260440,"Delta":25642299},{"NoteNumber":68,"Velocity":56,"Duration":275176,"SoundDuration":275176,"Delta":25916447},{"NoteNumber":61,"Velocity":47,"Duration":275176,"SoundDuration":275176,"Delta":25916447},{"NoteNumber":53,"Velocity":21,"Duration":275176,"SoundDuration":275176,"Delta":25916447},{"NoteNumber":58,"Velocity":24,"Duration":275176,"SoundDuration":275176,"Delta":25916447},{"NoteNumber":65,"Velocity":29,"Duration":275176,"SoundDuration":275176,"Delta":25916447},{"NoteNumber":68,"Velocity":53,"Duration":275176,"SoundDuration":275176,"Delta":26206106},{"NoteNumber":61,"Velocity":44,"Duration":275176,"SoundDuration":275176,"Delta":26206106},{"NoteNumber":53,"Velocity":21,"Duration":275176,"SoundDuration":275176,"Delta":26206106},{"NoteNumber":58,"Velocity":24,"Duration":275176,"SoundDuration":275176,"Delta":26206106},{"NoteNumber":65,"Velocity":29,"Duration":275176,"SoundDuration":275176,"Delta":26206106},{"NoteNumber":51,"Velocity":57,"Duration":295275,"SoundDuration":295275,"Delta":26495765},{"NoteNumber":61,"Velocity":64,"Duration":268159,"SoundDuration":268159,"Delta":26806582},{"NoteNumber":53,"Velocity":27,"Duration":268159,"SoundDuration":268159,"Delta":26806582},{"NoteNumber":58,"Velocity":30,"Duration":268159,"SoundDuration":268159,"Delta":26806582},{"NoteNumber":65,"Velocity":36,"Duration":268159,"SoundDuration":268159,"Delta":26806582},{"NoteNumber":61,"Velocity":45,"Duration":272310,"SoundDuration":272310,"Delta":27088855},{"NoteNumber":68,"Velocity":68,"Duration":272310,"SoundDuration":272310,"Delta":27088855},{"NoteNumber":53,"Velocity":27,"Duration":272310,"SoundDuration":272310,"Delta":27088855},{"NoteNumber":58,"Velocity":30,"Duration":272310,"SoundDuration":272310,"Delta":27088855},{"NoteNumber":65,"Velocity":36,"Duration":272310,"SoundDuration":272310,"Delta":27088855},{"NoteNumber":72,"Velocity":57,"Duration":272310,"SoundDuration":272310,"Delta":27375497},{"NoteNumber":39,"Velocity":39,"Duration":272310,"SoundDuration":272310,"Delta":27375497},{"NoteNumber":67,"Velocity":43,"Duration":279548,"SoundDuration":279548,"Delta":27662140},{"NoteNumber":61,"Velocity":35,"Duration":279548,"SoundDuration":279548,"Delta":27662140},{"NoteNumber":70,"Velocity":57,"Duration":445426,"SoundDuration":445426,"Delta":27662140},{"NoteNumber":51,"Velocity":18,"Duration":279548,"SoundDuration":279548,"Delta":27662140},{"NoteNumber":58,"Velocity":25,"Duration":279548,"SoundDuration":279548,"Delta":27662140},{"NoteNumber":63,"Velocity":30,"Duration":279548,"SoundDuration":279548,"Delta":27662140},{"NoteNumber":61,"Velocity":28,"Duration":304834,"SoundDuration":304834,"Delta":27956402},{"NoteNumber":67,"Velocity":34,"Duration":304834,"SoundDuration":304834,"Delta":27956402},{"NoteNumber":51,"Velocity":14,"Duration":304834,"SoundDuration":304834,"Delta":27956402},{"NoteNumber":58,"Velocity":20,"Duration":304834,"SoundDuration":304834,"Delta":27956402},{"NoteNumber":63,"Velocity":23,"Duration":304834,"SoundDuration":304834,"Delta":27956402},{"NoteNumber":68,"Velocity":51,"Duration":170745,"SoundDuration":170745,"Delta":28107566},{"NoteNumber":68,"Velocity":56,"Duration":1731369,"SoundDuration":1731369,"Delta":28278311},{"NoteNumber":44,"Velocity":39,"Duration":278075,"SoundDuration":278075,"Delta":28278311},{"NoteNumber":60,"Velocity":39,"Duration":268159,"SoundDuration":268159,"Delta":28571023},{"NoteNumber":56,"Velocity":20,"Duration":268159,"SoundDuration":268159,"Delta":28571023},{"NoteNumber":51,"Velocity":13,"Duration":268159,"SoundDuration":268159,"Delta":28571023},{"NoteNumber":63,"Velocity":23,"Duration":268159,"SoundDuration":268159,"Delta":28571023},{"NoteNumber":60,"Velocity":38,"Duration":268159,"SoundDuration":268159,"Delta":28853296},{"NoteNumber":56,"Velocity":18,"Duration":268159,"SoundDuration":268159,"Delta":28853296},{"NoteNumber":51,"Velocity":12,"Duration":268159,"SoundDuration":268159,"Delta":28853296},{"NoteNumber":63,"Velocity":22,"Duration":268159,"SoundDuration":268159,"Delta":28853296},{"NoteNumber":60,"Velocity":39,"Duration":268159,"SoundDuration":268159,"Delta":29135569},{"NoteNumber":56,"Velocity":20,"Duration":268159,"SoundDuration":268159,"Delta":29135569},{"NoteNumber":51,"Velocity":13,"Duration":268159,"SoundDuration":268159,"Delta":29135569},{"NoteNumber":63,"Velocity":23,"Duration":268159,"SoundDuration":268159,"Delta":29135569},{"NoteNumber":60,"Velocity":37,"Duration":276618,"SoundDuration":276618,"Delta":29417842},{"NoteNumber":56,"Velocity":18,"Duration":276618,"SoundDuration":276618,"Delta":29417842},{"NoteNumber":51,"Velocity":12,"Duration":276618,"SoundDuration":276618,"Delta":29417842},{"NoteNumber":63,"Velocity":22,"Duration":276618,"SoundDuration":276618,"Delta":29417842},{"NoteNumber":60,"Velocity":37,"Duration":285628,"SoundDuration":285628,"Delta":29709019},{"NoteNumber":56,"Velocity":18,"Duration":285628,"SoundDuration":285628,"Delta":29709019},{"NoteNumber":51,"Velocity":12,"Duration":285628,"SoundDuration":285628,"Delta":29709019},{"NoteNumber":63,"Velocity":22,"Duration":285628,"SoundDuration":285628,"Delta":29709019},{"NoteNumber":68,"Velocity":52,"Duration":858607,"SoundDuration":858607,"Delta":30009681},{"NoteNumber":40,"Velocity":28,"Duration":276618,"SoundDuration":276618,"Delta":30009681},{"NoteNumber":56,"Velocity":26,"Duration":269529,"SoundDuration":269529,"Delta":30300858},{"NoteNumber":62,"Velocity":34,"Duration":269529,"SoundDuration":269529,"Delta":30300858},{"NoteNumber":52,"Velocity":18,"Duration":269529,"SoundDuration":269529,"Delta":30300858},{"NoteNumber":59,"Velocity":21,"Duration":269529,"SoundDuration":269529,"Delta":30300858},{"NoteNumber":64,"Velocity":25,"Duration":269529,"SoundDuration":269529,"Delta":30300858},{"NoteNumber":56,"Velocity":26,"Duration":269529,"SoundDuration":269529,"Delta":30584573},{"NoteNumber":62,"Velocity":34,"Duration":269529,"SoundDuration":269529,"Delta":30584573},{"NoteNumber":52,"Velocity":18,"Duration":269529,"SoundDuration":269529,"Delta":30584573},{"NoteNumber":59,"Velocity":21,"Duration":269529,"SoundDuration":269529,"Delta":30584573},{"NoteNumber":64,"Velocity":25,"Duration":269529,"SoundDuration":269529,"Delta":30584573},{"NoteNumber":68,"Velocity":51,"Duration":258550,"SoundDuration":258550,"Delta":30868288},{"NoteNumber":56,"Velocity":26,"Duration":258550,"SoundDuration":258550,"Delta":30868288},{"NoteNumber":62,"Velocity":34,"Duration":258550,"SoundDuration":258550,"Delta":30868288},{"NoteNumber":52,"Velocity":18,"Duration":258550,"SoundDuration":258550,"Delta":30868288},{"NoteNumber":59,"Velocity":21,"Duration":258550,"SoundDuration":258550,"Delta":30868288},{"NoteNumber":64,"Velocity":25,"Duration":258550,"SoundDuration":258550,"Delta":30868288},{"NoteNumber":62,"Velocity":34,"Duration":276618,"SoundDuration":276618,"Delta":31140446},{"NoteNumber":56,"Velocity":26,"Duration":276618,"SoundDuration":276618,"Delta":31140446},{"NoteNumber":66,"Velocity":49,"Duration":276618,"SoundDuration":276618,"Delta":31140446},{"NoteNumber":52,"Velocity":18,"Duration":276618,"SoundDuration":276618,"Delta":31140446},{"NoteNumber":59,"Velocity":21,"Duration":276618,"SoundDuration":276618,"Delta":31140446},{"NoteNumber":64,"Velocity":25,"Duration":285111,"SoundDuration":285111,"Delta":31140446},{"NoteNumber":56,"Velocity":22,"Duration":276618,"SoundDuration":276618,"Delta":31431624},{"NoteNumber":64,"Velocity":49,"Duration":276618,"SoundDuration":276618,"Delta":31431624},{"NoteNumber":62,"Velocity":28,"Duration":276618,"SoundDuration":276618,"Delta":31431624},{"NoteNumber":52,"Velocity":16,"Duration":276618,"SoundDuration":276618,"Delta":31431624},{"NoteNumber":59,"Velocity":22,"Duration":276618,"SoundDuration":276618,"Delta":31431624},{"NoteNumber":73,"Velocity":62,"Duration":1672528,"SoundDuration":1672528,"Delta":31722801},{"NoteNumber":45,"Velocity":34,"Duration":273749,"SoundDuration":273749,"Delta":31722801},{"NoteNumber":61,"Velocity":40,"Duration":265465,"SoundDuration":265465,"Delta":32010958},{"NoteNumber":69,"Velocity":48,"Duration":265465,"SoundDuration":265465,"Delta":32010958},{"NoteNumber":52,"Velocity":20,"Duration":265465,"SoundDuration":265465,"Delta":32010958},{"NoteNumber":57,"Velocity":29,"Duration":265465,"SoundDuration":265465,"Delta":32010958},{"NoteNumber":64,"Velocity":39,"Duration":265465,"SoundDuration":265465,"Delta":32010958},{"NoteNumber":61,"Velocity":42,"Duration":260543,"SoundDuration":260543,"Delta":32290255},{"NoteNumber":69,"Velocity":50,"Duration":260543,"SoundDuration":260543,"Delta":32290255},{"NoteNumber":53,"Velocity":23,"Duration":260543,"SoundDuration":260543,"Delta":32290255},{"NoteNumber":57,"Velocity":31,"Duration":260543,"SoundDuration":260543,"Delta":32290255},{"NoteNumber":65,"Velocity":42,"Duration":260543,"SoundDuration":260543,"Delta":32290255},{"NoteNumber":61,"Velocity":44,"Duration":253041,"SoundDuration":253041,"Delta":32564425},{"NoteNumber":69,"Velocity":53,"Duration":253041,"SoundDuration":253041,"Delta":32564425},{"NoteNumber":53,"Velocity":25,"Duration":253041,"SoundDuration":253041,"Delta":32564425},{"NoteNumber":57,"Velocity":34,"Duration":253041,"SoundDuration":253041,"Delta":32564425},{"NoteNumber":65,"Velocity":45,"Duration":253041,"SoundDuration":253041,"Delta":32564425},{"NoteNumber":61,"Velocity":47,"Duration":268159,"SoundDuration":268159,"Delta":32830784},{"NoteNumber":69,"Velocity":56,"Duration":268159,"SoundDuration":268159,"Delta":32830784},{"NoteNumber":54,"Velocity":26,"Duration":268159,"SoundDuration":268159,"Delta":32830784},{"NoteNumber":57,"Velocity":35,"Duration":268159,"SoundDuration":268159,"Delta":32830784},{"NoteNumber":66,"Velocity":48,"Duration":268159,"SoundDuration":268159,"Delta":32830784},{"NoteNumber":61,"Velocity":49,"Duration":268159,"SoundDuration":268159,"Delta":33113057},{"NoteNumber":69,"Velocity":59,"Duration":268159,"SoundDuration":268159,"Delta":33113057},{"NoteNumber":57,"Velocity":38,"Duration":268159,"SoundDuration":268159,"Delta":33113057},{"NoteNumber":55,"Velocity":28,"Duration":268159,"SoundDuration":268159,"Delta":33113057},{"NoteNumber":67,"Velocity":51,"Duration":268159,"SoundDuration":268159,"Delta":33113057},{"NoteNumber":73,"Velocity":79,"Duration":834174,"SoundDuration":834174,"Delta":33395330},{"NoteNumber":44,"Velocity":42,"Duration":269529,"SoundDuration":269529,"Delta":33395330},{"NoteNumber":68,"Velocity":51,"Duration":261468,"SoundDuration":261468,"Delta":33679045},{"NoteNumber":61,"Velocity":39,"Duration":261468,"SoundDuration":261468,"Delta":33679045},{"NoteNumber":56,"Velocity":28,"Duration":261468,"SoundDuration":261468,"Delta":33679045},{"NoteNumber":63,"Velocity":31,"Duration":261468,"SoundDuration":261468,"Delta":33679045},{"NoteNumber":66,"Velocity":38,"Duration":261468,"SoundDuration":261468,"Delta":33679045},{"NoteNumber":60,"Velocity":33,"Duration":261468,"SoundDuration":261468,"Delta":33954274},{"NoteNumber":72,"Velocity":67,"Duration":261468,"SoundDuration":261468,"Delta":33954274},{"NoteNumber":68,"Velocity":42,"Duration":261468,"SoundDuration":261468,"Delta":33954274},{"NoteNumber":56,"Velocity":28,"Duration":261468,"SoundDuration":261468,"Delta":33954274},{"NoteNumber":63,"Velocity":31,"Duration":261468,"SoundDuration":261468,"Delta":33954274},{"NoteNumber":66,"Velocity":38,"Duration":261468,"SoundDuration":261468,"Delta":33954274},{"NoteNumber":60,"Velocity":39,"Duration":254851,"SoundDuration":254851,"Delta":34229504},{"NoteNumber":72,"Velocity":70,"Duration":254851,"SoundDuration":254851,"Delta":34229504},{"NoteNumber":68,"Velocity":48,"Duration":254851,"SoundDuration":254851,"Delta":34229504},{"NoteNumber":56,"Velocity":28,"Duration":254851,"SoundDuration":254851,"Delta":34229504},{"NoteNumber":63,"Velocity":31,"Duration":254851,"SoundDuration":254851,"Delta":34229504},{"NoteNumber":66,"Velocity":38,"Duration":254851,"SoundDuration":254851,"Delta":34229504},{"NoteNumber":70,"Velocity":69,"Duration":268159,"SoundDuration":268159,"Delta":34497768},{"NoteNumber":60,"Velocity":49,"Duration":268159,"SoundDuration":268159,"Delta":34497768},{"NoteNumber":56,"Velocity":26,"Duration":268159,"SoundDuration":268159,"Delta":34497768},{"NoteNumber":63,"Velocity":29,"Duration":268159,"SoundDuration":268159,"Delta":34497768},{"NoteNumber":66,"Velocity":36,"Duration":268159,"SoundDuration":268159,"Delta":34497768},{"NoteNumber":68,"Velocity":70,"Duration":268159,"SoundDuration":268159,"Delta":34780041},{"NoteNumber":60,"Velocity":39,"Duration":268159,"SoundDuration":268159,"Delta":34780041},{"NoteNumber":66,"Velocity":36,"Duration":268159,"SoundDuration":268159,"Delta":34780041},{"NoteNumber":56,"Velocity":23,"Duration":268159,"SoundDuration":268159,"Delta":34780041},{"NoteNumber":63,"Velocity":32,"Duration":268159,"SoundDuration":268159,"Delta":34780041},{"NoteNumber":76,"Velocity":72,"Duration":1648467,"SoundDuration":1648467,"Delta":35062314},{"NoteNumber":49,"Velocity":39,"Duration":269529,"SoundDuration":269529,"Delta":35062314},{"NoteNumber":64,"Velocity":44,"Duration":254464,"SoundDuration":254464,"Delta":35346029},{"NoteNumber":73,"Velocity":52,"Duration":254464,"SoundDuration":254464,"Delta":35346029},{"NoteNumber":55,"Velocity":23,"Duration":254464,"SoundDuration":254464,"Delta":35346029},{"NoteNumber":61,"Velocity":31,"Duration":254464,"SoundDuration":254464,"Delta":35346029},{"NoteNumber":67,"Velocity":42,"Duration":254464,"SoundDuration":254464,"Delta":35346029},{"NoteNumber":64,"Velocity":45,"Duration":250880,"SoundDuration":250880,"Delta":35613886},{"NoteNumber":73,"Velocity":54,"Duration":250880,"SoundDuration":250880,"Delta":35613886},{"NoteNumber":56,"Velocity":25,"Duration":250880,"SoundDuration":250880,"Delta":35613886},{"NoteNumber":61,"Velocity":34,"Duration":250880,"SoundDuration":250880,"Delta":35613886},{"NoteNumber":68,"Velocity":45,"Duration":250880,"SoundDuration":250880,"Delta":35613886},{"NoteNumber":64,"Velocity":47,"Duration":254851,"SoundDuration":254851,"Delta":35877971},{"NoteNumber":73,"Velocity":58,"Duration":254851,"SoundDuration":254851,"Delta":35877971},{"NoteNumber":56,"Velocity":27,"Duration":254851,"SoundDuration":254851,"Delta":35877971},{"NoteNumber":61,"Velocity":37,"Duration":254851,"SoundDuration":254851,"Delta":35877971},{"NoteNumber":68,"Velocity":50,"Duration":254851,"SoundDuration":254851,"Delta":35877971},{"NoteNumber":64,"Velocity":52,"Duration":268159,"SoundDuration":268159,"Delta":36146235},{"NoteNumber":73,"Velocity":61,"Duration":268159,"SoundDuration":268159,"Delta":36146235},{"NoteNumber":57,"Velocity":27,"Duration":268159,"SoundDuration":268159,"Delta":36146235},{"NoteNumber":61,"Velocity":39,"Duration":268159,"SoundDuration":268159,"Delta":36146235},{"NoteNumber":69,"Velocity":53,"Duration":268159,"SoundDuration":268159,"Delta":36146235},{"NoteNumber":64,"Velocity":54,"Duration":268159,"SoundDuration":268159,"Delta":36428508},{"NoteNumber":72,"Velocity":64,"Duration":268159,"SoundDuration":268159,"Delta":36428508},{"NoteNumber":60,"Velocity":42,"Duration":268159,"SoundDuration":268159,"Delta":36428508},{"NoteNumber":58,"Velocity":31,"Duration":268159,"SoundDuration":268159,"Delta":36428508},{"NoteNumber":70,"Velocity":56,"Duration":268159,"SoundDuration":268159,"Delta":36428508},{"NoteNumber":76,"Velocity":82,"Duration":834174,"SoundDuration":834174,"Delta":36710781},{"NoteNumber":47,"Velocity":67,"Duration":269529,"SoundDuration":269529,"Delta":36710781},{"NoteNumber":71,"Velocity":53,"Duration":261468,"SoundDuration":261468,"Delta":36994496},{"NoteNumber":64,"Velocity":40,"Duration":261468,"SoundDuration":261468,"Delta":36994496},{"NoteNumber":59,"Velocity":29,"Duration":261468,"SoundDuration":261468,"Delta":36994496},{"NoteNumber":66,"Velocity":33,"Duration":261468,"SoundDuration":261468,"Delta":36994496},{"NoteNumber":69,"Velocity":39,"Duration":261468,"SoundDuration":261468,"Delta":36994496},{"NoteNumber":71,"Velocity":53,"Duration":261468,"SoundDuration":261468,"Delta":37269726},{"NoteNumber":75,"Velocity":75,"Duration":261468,"SoundDuration":261468,"Delta":37269726},{"NoteNumber":63,"Velocity":33,"Duration":261468,"SoundDuration":261468,"Delta":37269726},{"NoteNumber":59,"Velocity":29,"Duration":261468,"SoundDuration":261468,"Delta":37269726},{"NoteNumber":66,"Velocity":33,"Duration":261468,"SoundDuration":261468,"Delta":37269726},{"NoteNumber":69,"Velocity":39,"Duration":261468,"SoundDuration":261468,"Delta":37269726},{"NoteNumber":75,"Velocity":80,"Duration":253041,"SoundDuration":253041,"Delta":37544955},{"NoteNumber":71,"Velocity":53,"Duration":253041,"SoundDuration":253041,"Delta":37544955},{"NoteNumber":63,"Velocity":33,"Duration":253041,"SoundDuration":253041,"Delta":37544955},{"NoteNumber":59,"Velocity":29,"Duration":253041,"SoundDuration":253041,"Delta":37544955},{"NoteNumber":66,"Velocity":33,"Duration":253041,"SoundDuration":253041,"Delta":37544955},{"NoteNumber":69,"Velocity":39,"Duration":253041,"SoundDuration":253041,"Delta":37544955},{"NoteNumber":73,"Velocity":77,"Duration":268159,"SoundDuration":268159,"Delta":37811314},{"NoteNumber":71,"Velocity":53,"Duration":268159,"SoundDuration":268159,"Delta":37811314},{"NoteNumber":61,"Velocity":33,"Duration":268159,"SoundDuration":268159,"Delta":37811314},{"NoteNumber":59,"Velocity":29,"Duration":268159,"SoundDuration":268159,"Delta":37811314},{"NoteNumber":66,"Velocity":33,"Duration":268159,"SoundDuration":268159,"Delta":37811314},{"NoteNumber":69,"Velocity":39,"Duration":268159,"SoundDuration":268159,"Delta":37811314},{"NoteNumber":71,"Velocity":77,"Duration":268159,"SoundDuration":268159,"Delta":38093587},{"NoteNumber":63,"Velocity":29,"Duration":268159,"SoundDuration":268159,"Delta":38093587},{"NoteNumber":69,"Velocity":39,"Duration":268159,"SoundDuration":268159,"Delta":38093587},{"NoteNumber":59,"Velocity":26,"Duration":268159,"SoundDuration":268159,"Delta":38093587},{"NoteNumber":66,"Velocity":35,"Duration":268159,"SoundDuration":268159,"Delta":38093587},{"NoteNumber":80,"Velocity":84,"Duration":558944,"SoundDuration":558944,"Delta":38375860},{"NoteNumber":52,"Velocity":52,"Duration":269529,"SoundDuration":269529,"Delta":38375860},{"NoteNumber":74,"Velocity":56,"Duration":261468,"SoundDuration":261468,"Delta":38659575},{"NoteNumber":68,"Velocity":42,"Duration":261468,"SoundDuration":261468,"Delta":38659575},{"NoteNumber":59,"Velocity":35,"Duration":261468,"SoundDuration":261468,"Delta":38659575},{"NoteNumber":64,"Velocity":35,"Duration":261468,"SoundDuration":261468,"Delta":38659575},{"NoteNumber":71,"Velocity":41,"Duration":261468,"SoundDuration":261468,"Delta":38659575},{"NoteNumber":74,"Velocity":57,"Duration":254851,"SoundDuration":254851,"Delta":38934805},{"NoteNumber":80,"Velocity":73,"Duration":254851,"SoundDuration":254851,"Delta":38934805},{"NoteNumber":68,"Velocity":46,"Duration":254851,"SoundDuration":254851,"Delta":38934805},{"NoteNumber":58,"Velocity":29,"Duration":254851,"SoundDuration":254851,"Delta":38934805},{"NoteNumber":64,"Velocity":33,"Duration":254851,"SoundDuration":254851,"Delta":38934805},{"NoteNumber":70,"Velocity":40,"Duration":254851,"SoundDuration":254851,"Delta":38934805},{"NoteNumber":80,"Velocity":77,"Duration":253041,"SoundDuration":253041,"Delta":39203069},{"NoteNumber":51,"Velocity":52,"Duration":253041,"SoundDuration":253041,"Delta":39203069},{"NoteNumber":75,"Velocity":46,"Duration":268159,"SoundDuration":268159,"Delta":39469428},{"NoteNumber":67,"Velocity":45,"Duration":268159,"SoundDuration":268159,"Delta":39469428},{"NoteNumber":79,"Velocity":70,"Duration":268159,"SoundDuration":268159,"Delta":39469428},{"NoteNumber":58,"Velocity":27,"Duration":268159,"SoundDuration":268159,"Delta":39469428},{"NoteNumber":63,"Velocity":31,"Duration":268159,"SoundDuration":268159,"Delta":39469428},{"NoteNumber":70,"Velocity":36,"Duration":268159,"SoundDuration":268159,"Delta":39469428},{"NoteNumber":67,"Velocity":47,"Duration":275176,"SoundDuration":275176,"Delta":39751701},{"NoteNumber":75,"Velocity":68,"Duration":275176,"SoundDuration":275176,"Delta":39751701},{"NoteNumber":58,"Velocity":23,"Duration":275176,"SoundDuration":275176,"Delta":39751701},{"NoteNumber":70,"Velocity":35,"Duration":275176,"SoundDuration":275176,"Delta":39751701},{"NoteNumber":63,"Velocity":31,"Duration":275176,"SoundDuration":275176,"Delta":39751701},{"NoteNumber":78,"Velocity":61,"Duration":558944,"SoundDuration":558944,"Delta":40041360},{"NoteNumber":50,"Velocity":38,"Duration":269529,"SoundDuration":269529,"Delta":40041360},{"NoteNumber":72,"Velocity":39,"Duration":261468,"SoundDuration":261468,"Delta":40325075},{"NoteNumber":66,"Velocity":30,"Duration":261468,"SoundDuration":261468,"Delta":40325075},{"NoteNumber":57,"Velocity":20,"Duration":261468,"SoundDuration":261468,"Delta":40325075},{"NoteNumber":62,"Velocity":22,"Duration":261468,"SoundDuration":261468,"Delta":40325075},{"NoteNumber":69,"Velocity":28,"Duration":261468,"SoundDuration":261468,"Delta":40325075},{"NoteNumber":72,"Velocity":45,"Duration":261468,"SoundDuration":261468,"Delta":40600305},{"NoteNumber":66,"Velocity":36,"Duration":261468,"SoundDuration":261468,"Delta":40600305},{"NoteNumber":78,"Velocity":55,"Duration":261468,"SoundDuration":261468,"Delta":40600305},{"NoteNumber":56,"Velocity":20,"Duration":261468,"SoundDuration":261468,"Delta":40600305},{"NoteNumber":62,"Velocity":23,"Duration":261468,"SoundDuration":261468,"Delta":40600305},{"NoteNumber":68,"Velocity":28,"Duration":261468,"SoundDuration":261468,"Delta":40600305},{"NoteNumber":78,"Velocity":59,"Duration":253041,"SoundDuration":253041,"Delta":40875534},{"NoteNumber":49,"Velocity":38,"Duration":253041,"SoundDuration":253041,"Delta":40875534},{"NoteNumber":73,"Velocity":36,"Duration":268159,"SoundDuration":268159,"Delta":41141893},{"NoteNumber":65,"Velocity":36,"Duration":268159,"SoundDuration":268159,"Delta":41141893},{"NoteNumber":77,"Velocity":54,"Duration":268159,"SoundDuration":268159,"Delta":41141893},{"NoteNumber":56,"Velocity":17,"Duration":268159,"SoundDuration":268159,"Delta":41141893},{"NoteNumber":61,"Velocity":20,"Duration":268159,"SoundDuration":268159,"Delta":41141893},{"NoteNumber":68,"Velocity":23,"Duration":268159,"SoundDuration":268159,"Delta":41141893},{"NoteNumber":65,"Velocity":36,"Duration":278075,"SoundDuration":278075,"Delta":41424166},{"NoteNumber":73,"Velocity":52,"Duration":278075,"SoundDuration":278075,"Delta":41424166},{"NoteNumber":56,"Velocity":15,"Duration":278075,"SoundDuration":278075,"Delta":41424166},{"NoteNumber":68,"Velocity":23,"Duration":278075,"SoundDuration":278075,"Delta":41424166},{"NoteNumber":61,"Velocity":21,"Duration":278075,"SoundDuration":278075,"Delta":41424166},{"NoteNumber":76,"Velocity":58,"Duration":273749,"SoundDuration":273749,"Delta":41716878},{"NoteNumber":48,"Velocity":36,"Duration":273749,"SoundDuration":273749,"Delta":41716878},{"NoteNumber":63,"Velocity":28,"Duration":268159,"SoundDuration":268159,"Delta":42005035},{"NoteNumber":75,"Velocity":53,"Duration":268159,"SoundDuration":268159,"Delta":42005035},{"NoteNumber":70,"Velocity":35,"Duration":268159,"SoundDuration":268159,"Delta":42005035},{"NoteNumber":55,"Velocity":20,"Duration":268159,"SoundDuration":268159,"Delta":42005035},{"NoteNumber":60,"Velocity":22,"Duration":268159,"SoundDuration":268159,"Delta":42005035},{"NoteNumber":67,"Velocity":27,"Duration":268159,"SoundDuration":268159,"Delta":42005035},{"NoteNumber":64,"Velocity":35,"Duration":273258,"SoundDuration":273258,"Delta":42287308},{"NoteNumber":76,"Velocity":53,"Duration":273258,"SoundDuration":273258,"Delta":42287308},{"NoteNumber":70,"Velocity":44,"Duration":273258,"SoundDuration":273258,"Delta":42287308},{"NoteNumber":54,"Velocity":20,"Duration":273258,"SoundDuration":273258,"Delta":42287308},{"NoteNumber":60,"Velocity":22,"Duration":273258,"SoundDuration":273258,"Delta":42287308},{"NoteNumber":66,"Velocity":27,"Duration":273258,"SoundDuration":273258,"Delta":42287308},{"NoteNumber":80,"Velocity":56,"Duration":566166,"SoundDuration":566166,"Delta":42574974},{"NoteNumber":47,"Velocity":37,"Duration":264109,"SoundDuration":264109,"Delta":42574974},{"NoteNumber":68,"Velocity":36,"Duration":273749,"SoundDuration":273749,"Delta":42852984},{"NoteNumber":76,"Velocity":36,"Duration":273749,"SoundDuration":273749,"Delta":42852984},{"NoteNumber":59,"Velocity":20,"Duration":273749,"SoundDuration":273749,"Delta":42852984},{"NoteNumber":64,"Velocity":22,"Duration":273749,"SoundDuration":273749,"Delta":42852984},{"NoteNumber":71,"Velocity":27,"Duration":273749,"SoundDuration":273749,"Delta":42852984},{"NoteNumber":78,"Velocity":52,"Duration":273749,"SoundDuration":273749,"Delta":43141141},{"NoteNumber":71,"Velocity":44,"Duration":273749,"SoundDuration":273749,"Delta":43141141},{"NoteNumber":66,"Velocity":36,"Duration":273749,"SoundDuration":273749,"Delta":43141141},{"NoteNumber":59,"Velocity":17,"Duration":273749,"SoundDuration":273749,"Delta":43141141},{"NoteNumber":69,"Velocity":27,"Duration":273749,"SoundDuration":273749,"Delta":43141141},{"NoteNumber":63,"Velocity":23,"Duration":273749,"SoundDuration":273749,"Delta":43141141},{"NoteNumber":76,"Velocity":55,"Duration":1950932,"SoundDuration":1950932,"Delta":43429298},{"NoteNumber":40,"Velocity":39,"Duration":269529,"SoundDuration":269529,"Delta":43429298},{"NoteNumber":64,"Velocity":29,"Duration":261468,"SoundDuration":261468,"Delta":43713013},{"NoteNumber":71,"Velocity":35,"Duration":261468,"SoundDuration":261468,"Delta":43713013},{"NoteNumber":56,"Velocity":13,"Duration":261468,"SoundDuration":261468,"Delta":43713013},{"NoteNumber":59,"Velocity":18,"Duration":261468,"SoundDuration":261468,"Delta":43713013},{"NoteNumber":68,"Velocity":22,"Duration":261468,"SoundDuration":261468,"Delta":43713013},{"NoteNumber":64,"Velocity":30,"Duration":257638,"SoundDuration":257638,"Delta":43988242},{"NoteNumber":71,"Velocity":36,"Duration":257638,"SoundDuration":257638,"Delta":43988242},{"NoteNumber":56,"Velocity":14,"Duration":257638,"SoundDuration":257638,"Delta":43988242},{"NoteNumber":59,"Velocity":19,"Duration":257638,"SoundDuration":257638,"Delta":43988242},{"NoteNumber":68,"Velocity":24,"Duration":257638,"SoundDuration":257638,"Delta":43988242},{"NoteNumber":64,"Velocity":31,"Duration":258902,"SoundDuration":258902,"Delta":44259441},{"NoteNumber":71,"Velocity":37,"Duration":258902,"SoundDuration":258902,"Delta":44259441},{"NoteNumber":56,"Velocity":15,"Duration":258902,"SoundDuration":258902,"Delta":44259441},{"NoteNumber":59,"Velocity":21,"Duration":258902,"SoundDuration":258902,"Delta":44259441},{"NoteNumber":68,"Velocity":25,"Duration":258902,"SoundDuration":258902,"Delta":44259441},{"NoteNumber":64,"Velocity":32,"Duration":268159,"SoundDuration":268159,"Delta":44531970},{"NoteNumber":71,"Velocity":39,"Duration":268159,"SoundDuration":268159,"Delta":44531970},{"NoteNumber":56,"Velocity":16,"Duration":268159,"SoundDuration":268159,"Delta":44531970},{"NoteNumber":59,"Velocity":21,"Duration":268159,"SoundDuration":268159,"Delta":44531970},{"NoteNumber":68,"Velocity":26,"Duration":268159,"SoundDuration":268159,"Delta":44531970},{"NoteNumber":64,"Velocity":33,"Duration":268159,"SoundDuration":268159,"Delta":44814243},{"NoteNumber":71,"Velocity":40,"Duration":268159,"SoundDuration":268159,"Delta":44814243},{"NoteNumber":59,"Velocity":23,"Duration":268159,"SoundDuration":268159,"Delta":44814243},{"NoteNumber":56,"Velocity":16,"Duration":268159,"SoundDuration":268159,"Delta":44814243},{"NoteNumber":68,"Velocity":27,"Duration":268159,"SoundDuration":268159,"Delta":44814243},{"NoteNumber":52,"Velocity":53,"Duration":269529,"SoundDuration":269529,"Delta":45096516},{"NoteNumber":76,"Velocity":60,"Duration":261468,"SoundDuration":261468,"Delta":45380231},{"NoteNumber":72,"Velocity":46,"Duration":261468,"SoundDuration":261468,"Delta":45380231},{"NoteNumber":64,"Velocity":46,"Duration":261468,"SoundDuration":261468,"Delta":45380231},{"NoteNumber":57,"Velocity":22,"Duration":261468,"SoundDuration":261468,"Delta":45380231},{"NoteNumber":60,"Velocity":25,"Duration":261468,"SoundDuration":261468,"Delta":45380231},{"NoteNumber":69,"Velocity":35,"Duration":261468,"SoundDuration":261468,"Delta":45380231},{"NoteNumber":63,"Velocity":44,"Duration":254851,"SoundDuration":254851,"Delta":45655460},{"NoteNumber":75,"Velocity":57,"Duration":254851,"SoundDuration":254851,"Delta":45655460},{"NoteNumber":72,"Velocity":44,"Duration":254851,"SoundDuration":254851,"Delta":45655460},{"NoteNumber":57,"Velocity":23,"Duration":254851,"SoundDuration":254851,"Delta":45655460},{"NoteNumber":60,"Velocity":26,"Duration":254851,"SoundDuration":254851,"Delta":45655460},{"NoteNumber":69,"Velocity":31,"Duration":254851,"SoundDuration":254851,"Delta":45655460},{"NoteNumber":66,"Velocity":50,"Duration":247761,"SoundDuration":247761,"Delta":45923725},{"NoteNumber":78,"Velocity":64,"Duration":247761,"SoundDuration":247761,"Delta":45923725},{"NoteNumber":72,"Velocity":50,"Duration":247761,"SoundDuration":247761,"Delta":45923725},{"NoteNumber":57,"Velocity":22,"Duration":247761,"SoundDuration":247761,"Delta":45923725},{"NoteNumber":60,"Velocity":25,"Duration":247761,"SoundDuration":247761,"Delta":45923725},{"NoteNumber":69,"Velocity":35,"Duration":247761,"SoundDuration":247761,"Delta":45923725},{"NoteNumber":64,"Velocity":45,"Duration":268159,"SoundDuration":268159,"Delta":46184526},{"NoteNumber":72,"Velocity":45,"Duration":268159,"SoundDuration":268159,"Delta":46184526},{"NoteNumber":76,"Velocity":58,"Duration":268159,"SoundDuration":268159,"Delta":46184526},{"NoteNumber":57,"Velocity":24,"Duration":268159,"SoundDuration":268159,"Delta":46184526},{"NoteNumber":60,"Velocity":27,"Duration":268159,"SoundDuration":268159,"Delta":46184526},{"NoteNumber":69,"Velocity":32,"Duration":268159,"SoundDuration":268159,"Delta":46184526},{"NoteNumber":64,"Velocity":45,"Duration":268159,"SoundDuration":268159,"Delta":46466799},{"NoteNumber":72,"Velocity":59,"Duration":268159,"SoundDuration":268159,"Delta":46466799},{"NoteNumber":69,"Velocity":32,"Duration":268159,"SoundDuration":268159,"Delta":46466799},{"NoteNumber":57,"Velocity":24,"Duration":268159,"SoundDuration":268159,"Delta":46466799},{"NoteNumber":60,"Velocity":27,"Duration":268159,"SoundDuration":268159,"Delta":46466799},{"NoteNumber":76,"Velocity":62,"Duration":1932565,"SoundDuration":1932565,"Delta":46749072},{"NoteNumber":40,"Velocity":44,"Duration":269529,"SoundDuration":269529,"Delta":46749072},{"NoteNumber":71,"Velocity":39,"Duration":261468,"SoundDuration":261468,"Delta":47032787},{"NoteNumber":64,"Velocity":33,"Duration":261468,"SoundDuration":261468,"Delta":47032787},{"NoteNumber":56,"Velocity":15,"Duration":261468,"SoundDuration":261468,"Delta":47032787},{"NoteNumber":59,"Velocity":21,"Duration":261468,"SoundDuration":261468,"Delta":47032787},{"NoteNumber":68,"Velocity":25,"Duration":261468,"SoundDuration":261468,"Delta":47032787},{"NoteNumber":71,"Velocity":40,"Duration":253041,"SoundDuration":253041,"Delta":47308017},{"NoteNumber":64,"Velocity":34,"Duration":253041,"SoundDuration":253041,"Delta":47308017},{"NoteNumber":56,"Velocity":16,"Duration":253041,"SoundDuration":253041,"Delta":47308017},{"NoteNumber":59,"Velocity":22,"Duration":253041,"SoundDuration":253041,"Delta":47308017},{"NoteNumber":68,"Velocity":27,"Duration":253041,"SoundDuration":253041,"Delta":47308017},{"NoteNumber":71,"Velocity":42,"Duration":246050,"SoundDuration":246050,"Delta":47574376},{"NoteNumber":64,"Velocity":35,"Duration":246050,"SoundDuration":246050,"Delta":47574376},{"NoteNumber":56,"Velocity":17,"Duration":246050,"SoundDuration":246050,"Delta":47574376},{"NoteNumber":59,"Velocity":24,"Duration":246050,"SoundDuration":246050,"Delta":47574376},{"NoteNumber":68,"Velocity":28,"Duration":246050,"SoundDuration":246050,"Delta":47574376},{"NoteNumber":71,"Velocity":44,"Duration":268159,"SoundDuration":268159,"Delta":47833376},{"NoteNumber":64,"Velocity":36,"Duration":268159,"SoundDuration":268159,"Delta":47833376},{"NoteNumber":56,"Velocity":18,"Duration":268159,"SoundDuration":268159,"Delta":47833376},{"NoteNumber":59,"Velocity":24,"Duration":268159,"SoundDuration":268159,"Delta":47833376},{"NoteNumber":68,"Velocity":29,"Duration":268159,"SoundDuration":268159,"Delta":47833376},{"NoteNumber":71,"Velocity":45,"Duration":268159,"SoundDuration":268159,"Delta":48115649},{"NoteNumber":64,"Velocity":37,"Duration":268159,"SoundDuration":268159,"Delta":48115649},{"NoteNumber":59,"Velocity":26,"Duration":268159,"SoundDuration":268159,"Delta":48115649},{"NoteNumber":56,"Velocity":18,"Duration":268159,"SoundDuration":268159,"Delta":48115649},{"NoteNumber":68,"Velocity":31,"Duration":268159,"SoundDuration":268159,"Delta":48115649},{"NoteNumber":52,"Velocity":53,"Duration":269529,"SoundDuration":269529,"Delta":48397922},{"NoteNumber":64,"Velocity":46,"Duration":261468,"SoundDuration":261468,"Delta":48681637},{"NoteNumber":72,"Velocity":46,"Duration":261468,"SoundDuration":261468,"Delta":48681637},{"NoteNumber":76,"Velocity":60,"Duration":261468,"SoundDuration":261468,"Delta":48681637},{"NoteNumber":57,"Velocity":22,"Duration":261468,"SoundDuration":261468,"Delta":48681637},{"NoteNumber":60,"Velocity":25,"Duration":261468,"SoundDuration":261468,"Delta":48681637},{"NoteNumber":69,"Velocity":35,"Duration":261468,"SoundDuration":261468,"Delta":48681637},{"NoteNumber":72,"Velocity":44,"Duration":261468,"SoundDuration":261468,"Delta":48956867},{"NoteNumber":75,"Velocity":57,"Duration":261468,"SoundDuration":261468,"Delta":48956867},{"NoteNumber":63,"Velocity":44,"Duration":261468,"SoundDuration":261468,"Delta":48956867},{"NoteNumber":57,"Velocity":23,"Duration":261468,"SoundDuration":261468,"Delta":48956867},{"NoteNumber":60,"Velocity":26,"Duration":261468,"SoundDuration":261468,"Delta":48956867},{"NoteNumber":69,"Velocity":31,"Duration":261468,"SoundDuration":261468,"Delta":48956867},{"NoteNumber":72,"Velocity":50,"Duration":249496,"SoundDuration":249496,"Delta":49232096},{"NoteNumber":66,"Velocity":50,"Duration":249496,"SoundDuration":249496,"Delta":49232096},{"NoteNumber":78,"Velocity":64,"Duration":249496,"SoundDuration":249496,"Delta":49232096},{"NoteNumber":57,"Velocity":22,"Duration":249496,"SoundDuration":249496,"Delta":49232096},{"NoteNumber":60,"Velocity":25,"Duration":249496,"SoundDuration":249496,"Delta":49232096},{"NoteNumber":69,"Velocity":35,"Duration":249496,"SoundDuration":249496,"Delta":49232096},{"NoteNumber":72,"Velocity":45,"Duration":268159,"SoundDuration":268159,"Delta":49494724},{"NoteNumber":76,"Velocity":58,"Duration":268159,"SoundDuration":268159,"Delta":49494724},{"NoteNumber":64,"Velocity":45,"Duration":268159,"SoundDuration":268159,"Delta":49494724},{"NoteNumber":57,"Velocity":24,"Duration":268159,"SoundDuration":268159,"Delta":49494724},{"NoteNumber":60,"Velocity":27,"Duration":268159,"SoundDuration":268159,"Delta":49494724},{"NoteNumber":69,"Velocity":32,"Duration":268159,"SoundDuration":268159,"Delta":49494724},{"NoteNumber":72,"Velocity":59,"Duration":268159,"SoundDuration":268159,"Delta":49776997},{"NoteNumber":64,"Velocity":45,"Duration":268159,"SoundDuration":268159,"Delta":49776997},{"NoteNumber":69,"Velocity":32,"Duration":268159,"SoundDuration":268159,"Delta":49776997},{"NoteNumber":57,"Velocity":24,"Duration":268159,"SoundDuration":268159,"Delta":49776997},{"NoteNumber":60,"Velocity":27,"Duration":268159,"SoundDuration":268159,"Delta":49776997},{"NoteNumber":76,"Velocity":62,"Duration":2497360,"SoundDuration":2497360,"Delta":50059270},{"NoteNumber":40,"Velocity":44,"Duration":269529,"SoundDuration":269529,"Delta":50059270},{"NoteNumber":64,"Velocity":33,"Duration":261468,"SoundDuration":261468,"Delta":50342985},{"NoteNumber":71,"Velocity":39,"Duration":261468,"SoundDuration":261468,"Delta":50342985},{"NoteNumber":56,"Velocity":15,"Duration":261468,"SoundDuration":261468,"Delta":50342985},{"NoteNumber":59,"Velocity":21,"Duration":261468,"SoundDuration":261468,"Delta":50342985},{"NoteNumber":68,"Velocity":25,"Duration":261468,"SoundDuration":261468,"Delta":50342985},{"NoteNumber":64,"Velocity":34,"Duration":257638,"SoundDuration":257638,"Delta":50618215},{"NoteNumber":71,"Velocity":40,"Duration":257638,"SoundDuration":257638,"Delta":50618215},{"NoteNumber":56,"Velocity":16,"Duration":257638,"SoundDuration":257638,"Delta":50618215},{"NoteNumber":59,"Velocity":22,"Duration":257638,"SoundDuration":257638,"Delta":50618215},{"NoteNumber":68,"Velocity":27,"Duration":257638,"SoundDuration":257638,"Delta":50618215},{"NoteNumber":64,"Velocity":35,"Duration":258902,"SoundDuration":258902,"Delta":50889413},{"NoteNumber":71,"Velocity":42,"Duration":258902,"SoundDuration":258902,"Delta":50889413},{"NoteNumber":56,"Velocity":17,"Duration":258902,"SoundDuration":258902,"Delta":50889413},{"NoteNumber":59,"Velocity":24,"Duration":258902,"SoundDuration":258902,"Delta":50889413},{"NoteNumber":68,"Velocity":28,"Duration":258902,"SoundDuration":258902,"Delta":50889413},{"NoteNumber":64,"Velocity":36,"Duration":268159,"SoundDuration":268159,"Delta":51161942},{"NoteNumber":71,"Velocity":44,"Duration":268159,"SoundDuration":268159,"Delta":51161942},{"NoteNumber":56,"Velocity":18,"Duration":268159,"SoundDuration":268159,"Delta":51161942},{"NoteNumber":59,"Velocity":24,"Duration":268159,"SoundDuration":268159,"Delta":51161942},{"NoteNumber":68,"Velocity":29,"Duration":268159,"SoundDuration":268159,"Delta":51161942},{"NoteNumber":64,"Velocity":37,"Duration":268159,"SoundDuration":268159,"Delta":51444215},{"NoteNumber":71,"Velocity":45,"Duration":268159,"SoundDuration":268159,"Delta":51444215},{"NoteNumber":59,"Velocity":26,"Duration":268159,"SoundDuration":268159,"Delta":51444215},{"NoteNumber":56,"Velocity":18,"Duration":268159,"SoundDuration":268159,"Delta":51444215},{"NoteNumber":68,"Velocity":31,"Duration":268159,"SoundDuration":268159,"Delta":51444215},{"NoteNumber":64,"Velocity":35,"Duration":269529,"SoundDuration":269529,"Delta":51726488},{"NoteNumber":71,"Velocity":42,"Duration":269529,"SoundDuration":269529,"Delta":51726488},{"NoteNumber":56,"Velocity":17,"Duration":269529,"SoundDuration":269529,"Delta":51726488},{"NoteNumber":59,"Velocity":24,"Duration":269529,"SoundDuration":269529,"Delta":51726488},{"NoteNumber":68,"Velocity":28,"Duration":269529,"SoundDuration":269529,"Delta":51726488},{"NoteNumber":64,"Velocity":33,"Duration":261468,"SoundDuration":261468,"Delta":52010203},{"NoteNumber":71,"Velocity":39,"Duration":261468,"SoundDuration":261468,"Delta":52010203},{"NoteNumber":56,"Velocity":15,"Duration":261468,"SoundDuration":261468,"Delta":52010203},{"NoteNumber":59,"Velocity":21,"Duration":261468,"SoundDuration":261468,"Delta":52010203},{"NoteNumber":68,"Velocity":25,"Duration":261468,"SoundDuration":261468,"Delta":52010203},{"NoteNumber":64,"Velocity":35,"Duration":257638,"SoundDuration":257638,"Delta":52285433},{"NoteNumber":71,"Velocity":41,"Duration":257638,"SoundDuration":257638,"Delta":52285433},{"NoteNumber":56,"Velocity":16,"Duration":257638,"SoundDuration":257638,"Delta":52285433},{"NoteNumber":59,"Velocity":22,"Duration":257638,"SoundDuration":257638,"Delta":52285433},{"NoteNumber":68,"Velocity":27,"Duration":257638,"SoundDuration":257638,"Delta":52285433},{"NoteNumber":71,"Velocity":49,"Duration":258902,"SoundDuration":258902,"Delta":52556631},{"NoteNumber":75,"Velocity":64,"Duration":554801,"SoundDuration":554801,"Delta":52556631},{"NoteNumber":63,"Velocity":40,"Duration":258902,"SoundDuration":258902,"Delta":52556631},{"NoteNumber":56,"Velocity":20,"Duration":258902,"SoundDuration":258902,"Delta":52556631},{"NoteNumber":59,"Velocity":27,"Duration":258902,"SoundDuration":258902,"Delta":52556631},{"NoteNumber":68,"Velocity":33,"Duration":258902,"SoundDuration":258902,"Delta":52556631},{"NoteNumber":71,"Velocity":51,"Duration":268159,"SoundDuration":268159,"Delta":52829160},{"NoteNumber":63,"Velocity":43,"Duration":268159,"SoundDuration":268159,"Delta":52829160},{"NoteNumber":56,"Velocity":21,"Duration":268159,"SoundDuration":268159,"Delta":52829160},{"NoteNumber":59,"Velocity":28,"Duration":268159,"SoundDuration":268159,"Delta":52829160},{"NoteNumber":68,"Velocity":35,"Duration":268159,"SoundDuration":268159,"Delta":52829160},{"NoteNumber":63,"Velocity":45,"Duration":268159,"SoundDuration":268159,"Delta":53111433},{"NoteNumber":75,"Velocity":67,"Duration":268159,"SoundDuration":268159,"Delta":53111433},{"NoteNumber":71,"Velocity":54,"Duration":268159,"SoundDuration":268159,"Delta":53111433},{"NoteNumber":59,"Velocity":31,"Duration":268159,"SoundDuration":268159,"Delta":53111433},{"NoteNumber":56,"Velocity":23,"Duration":268159,"SoundDuration":268159,"Delta":53111433},{"NoteNumber":68,"Velocity":37,"Duration":268159,"SoundDuration":268159,"Delta":53111433},{"NoteNumber":71,"Velocity":51,"Duration":269529,"SoundDuration":269529,"Delta":53393706},{"NoteNumber":75,"Velocity":71,"Duration":1667217,"SoundDuration":1667217,"Delta":53393706},{"NoteNumber":63,"Velocity":42,"Duration":269529,"SoundDuration":269529,"Delta":53393706},{"NoteNumber":56,"Velocity":21,"Duration":269529,"SoundDuration":269529,"Delta":53393706},{"NoteNumber":59,"Velocity":29,"Duration":269529,"SoundDuration":269529,"Delta":53393706},{"NoteNumber":68,"Velocity":35,"Duration":269529,"SoundDuration":269529,"Delta":53393706},{"NoteNumber":71,"Velocity":48,"Duration":261468,"SoundDuration":261468,"Delta":53677421},{"NoteNumber":63,"Velocity":40,"Duration":261468,"SoundDuration":261468,"Delta":53677421},{"NoteNumber":56,"Velocity":18,"Duration":261468,"SoundDuration":261468,"Delta":53677421},{"NoteNumber":59,"Velocity":26,"Duration":261468,"SoundDuration":261468,"Delta":53677421},{"NoteNumber":68,"Velocity":31,"Duration":261468,"SoundDuration":261468,"Delta":53677421},{"NoteNumber":71,"Velocity":50,"Duration":257638,"SoundDuration":257638,"Delta":53952651},{"NoteNumber":63,"Velocity":42,"Duration":257638,"SoundDuration":257638,"Delta":53952651},{"NoteNumber":56,"Velocity":20,"Duration":257638,"SoundDuration":257638,"Delta":53952651},{"NoteNumber":59,"Velocity":27,"Duration":257638,"SoundDuration":257638,"Delta":53952651},{"NoteNumber":68,"Velocity":34,"Duration":257638,"SoundDuration":257638,"Delta":53952651},{"NoteNumber":71,"Velocity":53,"Duration":258902,"SoundDuration":258902,"Delta":54223849},{"NoteNumber":63,"Velocity":44,"Duration":258902,"SoundDuration":258902,"Delta":54223849},{"NoteNumber":56,"Velocity":22,"Duration":258902,"SoundDuration":258902,"Delta":54223849},{"NoteNumber":59,"Velocity":30,"Duration":258902,"SoundDuration":258902,"Delta":54223849},{"NoteNumber":68,"Velocity":36,"Duration":258902,"SoundDuration":258902,"Delta":54223849},{"NoteNumber":71,"Velocity":56,"Duration":268159,"SoundDuration":268159,"Delta":54496378},{"NoteNumber":63,"Velocity":47,"Duration":268159,"SoundDuration":268159,"Delta":54496378},{"NoteNumber":56,"Velocity":23,"Duration":268159,"SoundDuration":268159,"Delta":54496378},{"NoteNumber":59,"Velocity":31,"Duration":268159,"SoundDuration":268159,"Delta":54496378},{"NoteNumber":68,"Velocity":37,"Duration":268159,"SoundDuration":268159,"Delta":54496378},{"NoteNumber":71,"Velocity":59,"Duration":268159,"SoundDuration":268159,"Delta":54778651},{"NoteNumber":63,"Velocity":49,"Duration":268159,"SoundDuration":268159,"Delta":54778651},{"NoteNumber":59,"Velocity":34,"Duration":268159,"SoundDuration":268159,"Delta":54778651},{"NoteNumber":56,"Velocity":24,"Duration":268159,"SoundDuration":268159,"Delta":54778651},{"NoteNumber":68,"Velocity":41,"Duration":268159,"SoundDuration":268159,"Delta":54778651},{"NoteNumber":62,"Velocity":39,"Duration":269529,"SoundDuration":269529,"Delta":55060924},{"NoteNumber":74,"Velocity":78,"Duration":1667217,"SoundDuration":1667217,"Delta":55060924},{"NoteNumber":71,"Velocity":56,"Duration":269529,"SoundDuration":269529,"Delta":55060924},{"NoteNumber":56,"Velocity":42,"Duration":269529,"SoundDuration":269529,"Delta":55060924},{"NoteNumber":59,"Velocity":42,"Duration":269529,"SoundDuration":269529,"Delta":55060924},{"NoteNumber":68,"Velocity":50,"Duration":269529,"SoundDuration":269529,"Delta":55060924},{"NoteNumber":71,"Velocity":60,"Duration":261468,"SoundDuration":261468,"Delta":55344639},{"NoteNumber":68,"Velocity":60,"Duration":261468,"SoundDuration":261468,"Delta":55344639},{"NoteNumber":62,"Velocity":51,"Duration":261468,"SoundDuration":261468,"Delta":55344639},{"NoteNumber":41,"Velocity":40,"Duration":261468,"SoundDuration":261468,"Delta":55344639},{"NoteNumber":53,"Velocity":48,"Duration":261468,"SoundDuration":261468,"Delta":55344639},{"NoteNumber":62,"Velocity":53,"Duration":257638,"SoundDuration":257638,"Delta":55619869},{"NoteNumber":68,"Velocity":63,"Duration":257638,"SoundDuration":257638,"Delta":55619869},{"NoteNumber":71,"Velocity":63,"Duration":257638,"SoundDuration":257638,"Delta":55619869},{"NoteNumber":38,"Velocity":45,"Duration":257638,"SoundDuration":257638,"Delta":55619869},{"NoteNumber":50,"Velocity":53,"Duration":257638,"SoundDuration":257638,"Delta":55619869},{"NoteNumber":68,"Velocity":67,"Duration":258902,"SoundDuration":258902,"Delta":55891067},{"NoteNumber":71,"Velocity":67,"Duration":258902,"SoundDuration":258902,"Delta":55891067},{"NoteNumber":62,"Velocity":56,"Duration":258902,"SoundDuration":258902,"Delta":55891067},{"NoteNumber":35,"Velocity":49,"Duration":258902,"SoundDuration":258902,"Delta":55891067},{"NoteNumber":47,"Velocity":58,"Duration":258902,"SoundDuration":258902,"Delta":55891067},{"NoteNumber":62,"Velocity":59,"Duration":268159,"SoundDuration":268159,"Delta":56163596},{"NoteNumber":68,"Velocity":69,"Duration":268159,"SoundDuration":268159,"Delta":56163596},{"NoteNumber":71,"Velocity":69,"Duration":268159,"SoundDuration":268159,"Delta":56163596},{"NoteNumber":32,"Velocity":54,"Duration":268159,"SoundDuration":268159,"Delta":56163596},{"NoteNumber":44,"Velocity":63,"Duration":268159,"SoundDuration":268159,"Delta":56163596},{"NoteNumber":71,"Velocity":73,"Duration":268159,"SoundDuration":268159,"Delta":56445869},{"NoteNumber":68,"Velocity":73,"Duration":268159,"SoundDuration":268159,"Delta":56445869},{"NoteNumber":62,"Velocity":61,"Duration":268159,"SoundDuration":268159,"Delta":56445869},{"NoteNumber":29,"Velocity":58,"Duration":268159,"SoundDuration":268159,"Delta":56445869},{"NoteNumber":41,"Velocity":69,"Duration":268159,"SoundDuration":268159,"Delta":56445869},{"NoteNumber":67,"Velocity":81,"Duration":287211,"SoundDuration":287211,"Delta":56728142},{"NoteNumber":61,"Velocity":74,"Duration":287211,"SoundDuration":287211,"Delta":56728142},{"NoteNumber":27,"Velocity":77,"Duration":287211,"SoundDuration":287211,"Delta":56728142},{"NoteNumber":39,"Velocity":86,"Duration":287211,"SoundDuration":287211,"Delta":56728142},{"NoteNumber":67,"Velocity":78,"Duration":256387,"SoundDuration":256387,"Delta":57030470},{"NoteNumber":61,"Velocity":59,"Duration":256387,"SoundDuration":256387,"Delta":57030470},{"NoteNumber":51,"Velocity":32,"Duration":256387,"SoundDuration":256387,"Delta":57030470},{"NoteNumber":58,"Velocity":45,"Duration":256387,"SoundDuration":256387,"Delta":57030470},{"NoteNumber":63,"Velocity":45,"Duration":256387,"SoundDuration":256387,"Delta":57030470},{"NoteNumber":67,"Velocity":62,"Duration":249496,"SoundDuration":249496,"Delta":57300352},{"NoteNumber":72,"Velocity":80,"Duration":249496,"SoundDuration":249496,"Delta":57300352},{"NoteNumber":61,"Velocity":62,"Duration":249496,"SoundDuration":249496,"Delta":57300352},{"NoteNumber":51,"Velocity":34,"Duration":249496,"SoundDuration":249496,"Delta":57300352},{"NoteNumber":58,"Velocity":48,"Duration":249496,"SoundDuration":249496,"Delta":57300352},{"NoteNumber":63,"Velocity":48,"Duration":249496,"SoundDuration":249496,"Delta":57300352},{"NoteNumber":61,"Velocity":63,"Duration":242697,"SoundDuration":242697,"Delta":57562980},{"NoteNumber":67,"Velocity":63,"Duration":242697,"SoundDuration":242697,"Delta":57562980},{"NoteNumber":73,"Velocity":82,"Duration":242697,"SoundDuration":242697,"Delta":57562980},{"NoteNumber":51,"Velocity":37,"Duration":242697,"SoundDuration":242697,"Delta":57562980},{"NoteNumber":58,"Velocity":50,"Duration":242697,"SoundDuration":242697,"Delta":57562980},{"NoteNumber":63,"Velocity":50,"Duration":242697,"SoundDuration":242697,"Delta":57562980},{"NoteNumber":61,"Velocity":60,"Duration":258902,"SoundDuration":258902,"Delta":57818451},{"NoteNumber":65,"Velocity":79,"Duration":258902,"SoundDuration":258902,"Delta":57818451},{"NoteNumber":51,"Velocity":34,"Duration":258902,"SoundDuration":258902,"Delta":57818451},{"NoteNumber":58,"Velocity":48,"Duration":258902,"SoundDuration":258902,"Delta":57818451},{"NoteNumber":63,"Velocity":48,"Duration":258902,"SoundDuration":258902,"Delta":57818451},{"NoteNumber":61,"Velocity":59,"Duration":270912,"SoundDuration":270912,"Delta":58090980},{"NoteNumber":67,"Velocity":78,"Duration":270912,"SoundDuration":270912,"Delta":58090980},{"NoteNumber":51,"Velocity":34,"Duration":270912,"SoundDuration":270912,"Delta":58090980},{"NoteNumber":58,"Velocity":48,"Duration":270912,"SoundDuration":270912,"Delta":58090980},{"NoteNumber":63,"Velocity":48,"Duration":270912,"SoundDuration":270912,"Delta":58090980},{"NoteNumber":70,"Velocity":86,"Duration":828890,"SoundDuration":828890,"Delta":58376151},{"NoteNumber":32,"Velocity":71,"Duration":281065,"SoundDuration":281065,"Delta":58376151},{"NoteNumber":44,"Velocity":77,"Duration":281065,"SoundDuration":281065,"Delta":58376151},{"NoteNumber":66,"Velocity":50,"Duration":255124,"SoundDuration":255124,"Delta":58672009},{"NoteNumber":60,"Velocity":42,"Duration":255124,"SoundDuration":255124,"Delta":58672009},{"NoteNumber":51,"Velocity":36,"Duration":255124,"SoundDuration":255124,"Delta":58672009},{"NoteNumber":56,"Velocity":41,"Duration":255124,"SoundDuration":255124,"Delta":58672009},{"NoteNumber":63,"Velocity":49,"Duration":255124,"SoundDuration":255124,"Delta":58672009},{"NoteNumber":66,"Velocity":50,"Duration":251256,"SoundDuration":251256,"Delta":58940562},{"NoteNumber":60,"Velocity":42,"Duration":251256,"SoundDuration":251256,"Delta":58940562},{"NoteNumber":51,"Velocity":36,"Duration":251256,"SoundDuration":251256,"Delta":58940562},{"NoteNumber":56,"Velocity":41,"Duration":251256,"SoundDuration":251256,"Delta":58940562},{"NoteNumber":63,"Velocity":48,"Duration":251256,"SoundDuration":251256,"Delta":58940562},{"NoteNumber":66,"Velocity":59,"Duration":249496,"SoundDuration":249496,"Delta":59205042},{"NoteNumber":60,"Velocity":49,"Duration":249496,"SoundDuration":249496,"Delta":59205042},{"NoteNumber":68,"Velocity":84,"Duration":1127320,"SoundDuration":1127320,"Delta":59205042},{"NoteNumber":51,"Velocity":41,"Duration":249496,"SoundDuration":249496,"Delta":59205042},{"NoteNumber":56,"Velocity":46,"Duration":249496,"SoundDuration":249496,"Delta":59205042},{"NoteNumber":63,"Velocity":57,"Duration":249496,"SoundDuration":249496,"Delta":59205042},{"NoteNumber":60,"Velocity":42,"Duration":268159,"SoundDuration":268159,"Delta":59467670},{"NoteNumber":66,"Velocity":50,"Duration":268159,"SoundDuration":268159,"Delta":59467670},{"NoteNumber":51,"Velocity":36,"Duration":268159,"SoundDuration":268159,"Delta":59467670},{"NoteNumber":56,"Velocity":41,"Duration":268159,"SoundDuration":268159,"Delta":59467670},{"NoteNumber":63,"Velocity":49,"Duration":268159,"SoundDuration":268159,"Delta":59467670},{"NoteNumber":60,"Velocity":42,"Duration":273749,"SoundDuration":273749,"Delta":59749943},{"NoteNumber":66,"Velocity":50,"Duration":273749,"SoundDuration":273749,"Delta":59749943},{"NoteNumber":51,"Velocity":36,"Duration":273749,"SoundDuration":273749,"Delta":59749943},{"NoteNumber":56,"Velocity":41,"Duration":273749,"SoundDuration":273749,"Delta":59749943},{"NoteNumber":63,"Velocity":49,"Duration":273749,"SoundDuration":273749,"Delta":59749943},{"NoteNumber":25,"Velocity":69,"Duration":279548,"SoundDuration":279548,"Delta":60038100},{"NoteNumber":37,"Velocity":82,"Duration":279548,"SoundDuration":279548,"Delta":60038100},{"NoteNumber":68,"Velocity":63,"Duration":257638,"SoundDuration":257638,"Delta":60332362},{"NoteNumber":73,"Velocity":82,"Duration":257638,"SoundDuration":257638,"Delta":60332362},{"NoteNumber":53,"Velocity":23,"Duration":257638,"SoundDuration":257638,"Delta":60332362},{"NoteNumber":56,"Velocity":26,"Duration":257638,"SoundDuration":257638,"Delta":60332362},{"NoteNumber":61,"Velocity":38,"Duration":257638,"SoundDuration":257638,"Delta":60332362},{"NoteNumber":65,"Velocity":46,"Duration":257638,"SoundDuration":257638,"Delta":60332362},{"NoteNumber":73,"Velocity":67,"Duration":247761,"SoundDuration":247761,"Delta":60603561},{"NoteNumber":79,"Velocity":86,"Duration":247761,"SoundDuration":247761,"Delta":60603561},{"NoteNumber":68,"Velocity":57,"Duration":247761,"SoundDuration":247761,"Delta":60603561},{"NoteNumber":53,"Velocity":23,"Duration":247761,"SoundDuration":247761,"Delta":60603561},{"NoteNumber":56,"Velocity":26,"Duration":247761,"SoundDuration":247761,"Delta":60603561},{"NoteNumber":61,"Velocity":38,"Duration":247761,"SoundDuration":247761,"Delta":60603561},{"NoteNumber":65,"Velocity":46,"Duration":247761,"SoundDuration":247761,"Delta":60603561},{"NoteNumber":68,"Velocity":59,"Duration":242697,"SoundDuration":242697,"Delta":60864362},{"NoteNumber":73,"Velocity":71,"Duration":242697,"SoundDuration":242697,"Delta":60864362},{"NoteNumber":82,"Velocity":91,"Duration":242697,"SoundDuration":242697,"Delta":60864362},{"NoteNumber":53,"Velocity":25,"Duration":242697,"SoundDuration":242697,"Delta":60864362},{"NoteNumber":56,"Velocity":28,"Duration":242697,"SoundDuration":242697,"Delta":60864362},{"NoteNumber":61,"Velocity":42,"Duration":242697,"SoundDuration":242697,"Delta":60864362},{"NoteNumber":65,"Velocity":51,"Duration":242697,"SoundDuration":242697,"Delta":60864362},{"NoteNumber":80,"Velocity":86,"Duration":253041,"SoundDuration":253041,"Delta":61119834},{"NoteNumber":73,"Velocity":65,"Duration":253041,"SoundDuration":253041,"Delta":61119834},{"NoteNumber":68,"Velocity":55,"Duration":253041,"SoundDuration":253041,"Delta":61119834},{"NoteNumber":53,"Velocity":23,"Duration":253041,"SoundDuration":253041,"Delta":61119834},{"NoteNumber":56,"Velocity":26,"Duration":253041,"SoundDuration":253041,"Delta":61119834},{"NoteNumber":61,"Velocity":38,"Duration":253041,"SoundDuration":253041,"Delta":61119834},{"NoteNumber":65,"Velocity":46,"Duration":253041,"SoundDuration":253041,"Delta":61119834},{"NoteNumber":68,"Velocity":55,"Duration":272310,"SoundDuration":272310,"Delta":61386193},{"NoteNumber":73,"Velocity":65,"Duration":272310,"SoundDuration":272310,"Delta":61386193},{"NoteNumber":77,"Velocity":86,"Duration":272310,"SoundDuration":272310,"Delta":61386193},{"NoteNumber":53,"Velocity":23,"Duration":272310,"SoundDuration":272310,"Delta":61386193},{"NoteNumber":56,"Velocity":26,"Duration":272310,"SoundDuration":272310,"Delta":61386193},{"NoteNumber":61,"Velocity":38,"Duration":272310,"SoundDuration":272310,"Delta":61386193},{"NoteNumber":65,"Velocity":46,"Duration":272310,"SoundDuration":272310,"Delta":61386193},{"NoteNumber":75,"Velocity":101,"Duration":854311,"SoundDuration":854311,"Delta":61672835},{"NoteNumber":27,"Velocity":60,"Duration":272310,"SoundDuration":272310,"Delta":61672835},{"NoteNumber":39,"Velocity":71,"Duration":272310,"SoundDuration":272310,"Delta":61672835},{"NoteNumber":70,"Velocity":74,"Duration":264109,"SoundDuration":264109,"Delta":61959478},{"NoteNumber":63,"Velocity":62,"Duration":264109,"SoundDuration":264109,"Delta":61959478},{"NoteNumber":55,"Velocity":22,"Duration":264109,"SoundDuration":264109,"Delta":61959478},{"NoteNumber":58,"Velocity":30,"Duration":264109,"SoundDuration":264109,"Delta":61959478},{"NoteNumber":67,"Velocity":37,"Duration":264109,"SoundDuration":264109,"Delta":61959478},{"NoteNumber":70,"Velocity":74,"Duration":275176,"SoundDuration":275176,"Delta":62237487},{"NoteNumber":63,"Velocity":62,"Duration":275176,"SoundDuration":275176,"Delta":62237487},{"NoteNumber":55,"Velocity":23,"Duration":275176,"SoundDuration":275176,"Delta":62237487},{"NoteNumber":58,"Velocity":32,"Duration":275176,"SoundDuration":275176,"Delta":62237487},{"NoteNumber":67,"Velocity":38,"Duration":275176,"SoundDuration":275176,"Delta":62237487},{"NoteNumber":77,"Velocity":96,"Duration":1139997,"SoundDuration":1139997,"Delta":62527146},{"NoteNumber":29,"Velocity":55,"Duration":264109,"SoundDuration":264109,"Delta":62527146},{"NoteNumber":41,"Velocity":65,"Duration":264109,"SoundDuration":264109,"Delta":62527146},{"NoteNumber":65,"Velocity":62,"Duration":268159,"SoundDuration":268159,"Delta":62805156},{"NoteNumber":73,"Velocity":74,"Duration":268159,"SoundDuration":268159,"Delta":62805156},{"NoteNumber":53,"Velocity":23,"Duration":268159,"SoundDuration":268159,"Delta":62805156},{"NoteNumber":56,"Velocity":23,"Duration":268159,"SoundDuration":268159,"Delta":62805156},{"NoteNumber":61,"Velocity":32,"Duration":268159,"SoundDuration":268159,"Delta":62805156},{"NoteNumber":68,"Velocity":38,"Duration":268159,"SoundDuration":268159,"Delta":62805156},{"NoteNumber":65,"Velocity":59,"Duration":268159,"SoundDuration":268159,"Delta":63087429},{"NoteNumber":73,"Velocity":71,"Duration":268159,"SoundDuration":268159,"Delta":63087429},{"NoteNumber":53,"Velocity":23,"Duration":268159,"SoundDuration":268159,"Delta":63087429},{"NoteNumber":56,"Velocity":23,"Duration":268159,"SoundDuration":268159,"Delta":63087429},{"NoteNumber":61,"Velocity":32,"Duration":268159,"SoundDuration":268159,"Delta":63087429},{"NoteNumber":68,"Velocity":38,"Duration":268159,"SoundDuration":268159,"Delta":63087429},{"NoteNumber":27,"Velocity":64,"Duration":282569,"SoundDuration":282569,"Delta":63369702},{"NoteNumber":39,"Velocity":71,"Duration":282569,"SoundDuration":282569,"Delta":63369702},{"NoteNumber":70,"Velocity":82,"Duration":257638,"SoundDuration":257638,"Delta":63667144},{"NoteNumber":55,"Velocity":28,"Duration":257638,"SoundDuration":257638,"Delta":63667144},{"NoteNumber":58,"Velocity":32,"Duration":257638,"SoundDuration":257638,"Delta":63667144},{"NoteNumber":61,"Velocity":38,"Duration":257638,"SoundDuration":257638,"Delta":63667144},{"NoteNumber":67,"Velocity":46,"Duration":257638,"SoundDuration":257638,"Delta":63667144},{"NoteNumber":70,"Velocity":67,"Duration":253041,"SoundDuration":253041,"Delta":63938342},{"NoteNumber":63,"Velocity":58,"Duration":253041,"SoundDuration":253041,"Delta":63938342},{"NoteNumber":75,"Velocity":86,"Duration":253041,"SoundDuration":253041,"Delta":63938342},{"NoteNumber":55,"Velocity":28,"Duration":253041,"SoundDuration":253041,"Delta":63938342},{"NoteNumber":58,"Velocity":32,"Duration":253041,"SoundDuration":253041,"Delta":63938342},{"NoteNumber":61,"Velocity":38,"Duration":253041,"SoundDuration":253041,"Delta":63938342},{"NoteNumber":67,"Velocity":46,"Duration":253041,"SoundDuration":253041,"Delta":63938342},{"NoteNumber":70,"Velocity":69,"Duration":249496,"SoundDuration":249496,"Delta":64204701},{"NoteNumber":79,"Velocity":89,"Duration":249496,"SoundDuration":249496,"Delta":64204701},{"NoteNumber":63,"Velocity":42,"Duration":249496,"SoundDuration":249496,"Delta":64204701},{"NoteNumber":55,"Velocity":31,"Duration":249496,"SoundDuration":249496,"Delta":64204701},{"NoteNumber":58,"Velocity":35,"Duration":249496,"SoundDuration":249496,"Delta":64204701},{"NoteNumber":61,"Velocity":42,"Duration":249496,"SoundDuration":249496,"Delta":64204701},{"NoteNumber":67,"Velocity":51,"Duration":249496,"SoundDuration":249496,"Delta":64204701},{"NoteNumber":70,"Velocity":65,"Duration":254851,"SoundDuration":254851,"Delta":64467329},{"NoteNumber":77,"Velocity":86,"Duration":254851,"SoundDuration":254851,"Delta":64467329},{"NoteNumber":63,"Velocity":38,"Duration":254851,"SoundDuration":254851,"Delta":64467329},{"NoteNumber":55,"Velocity":28,"Duration":254851,"SoundDuration":254851,"Delta":64467329},{"NoteNumber":58,"Velocity":32,"Duration":254851,"SoundDuration":254851,"Delta":64467329},{"NoteNumber":61,"Velocity":38,"Duration":254851,"SoundDuration":254851,"Delta":64467329},{"NoteNumber":67,"Velocity":46,"Duration":254851,"SoundDuration":254851,"Delta":64467329},{"NoteNumber":73,"Velocity":86,"Duration":272310,"SoundDuration":272310,"Delta":64735594},{"NoteNumber":63,"Velocity":38,"Duration":272310,"SoundDuration":272310,"Delta":64735594},{"NoteNumber":70,"Velocity":65,"Duration":272310,"SoundDuration":272310,"Delta":64735594},{"NoteNumber":55,"Velocity":28,"Duration":272310,"SoundDuration":272310,"Delta":64735594},{"NoteNumber":58,"Velocity":32,"Duration":272310,"SoundDuration":272310,"Delta":64735594},{"NoteNumber":61,"Velocity":38,"Duration":272310,"SoundDuration":272310,"Delta":64735594},{"NoteNumber":67,"Velocity":46,"Duration":272310,"SoundDuration":272310,"Delta":64735594},{"NoteNumber":72,"Velocity":96,"Duration":867541,"SoundDuration":867541,"Delta":65022236},{"NoteNumber":29,"Velocity":63,"Duration":278075,"SoundDuration":278075,"Delta":65022236},{"NoteNumber":41,"Velocity":71,"Duration":278075,"SoundDuration":278075,"Delta":65022236},{"NoteNumber":63,"Velocity":56,"Duration":270912,"SoundDuration":270912,"Delta":65314948},{"NoteNumber":69,"Velocity":66,"Duration":270912,"SoundDuration":270912,"Delta":65314948},{"NoteNumber":53,"Velocity":27,"Duration":270912,"SoundDuration":270912,"Delta":65314948},{"NoteNumber":60,"Velocity":30,"Duration":270912,"SoundDuration":270912,"Delta":65314948},{"NoteNumber":65,"Velocity":37,"Duration":270912,"SoundDuration":270912,"Delta":65314948},{"NoteNumber":63,"Velocity":56,"Duration":275176,"SoundDuration":275176,"Delta":65600119},{"NoteNumber":69,"Velocity":66,"Duration":275176,"SoundDuration":275176,"Delta":65600119},{"NoteNumber":53,"Velocity":28,"Duration":275176,"SoundDuration":275176,"Delta":65600119},{"NoteNumber":60,"Velocity":32,"Duration":275176,"SoundDuration":275176,"Delta":65600119},{"NoteNumber":65,"Velocity":38,"Duration":275176,"SoundDuration":275176,"Delta":65600119},{"NoteNumber":73,"Velocity":95,"Duration":1187357,"SoundDuration":1187357,"Delta":65889778},{"NoteNumber":34,"Velocity":59,"Duration":269529,"SoundDuration":269529,"Delta":65889778},{"NoteNumber":46,"Velocity":65,"Duration":269529,"SoundDuration":269529,"Delta":65889778},{"NoteNumber":68,"Velocity":64,"Duration":275176,"SoundDuration":275176,"Delta":66173493},{"NoteNumber":61,"Velocity":54,"Duration":275176,"SoundDuration":275176,"Delta":66173493},{"NoteNumber":53,"Velocity":27,"Duration":275176,"SoundDuration":275176,"Delta":66173493},{"NoteNumber":58,"Velocity":31,"Duration":275176,"SoundDuration":275176,"Delta":66173493},{"NoteNumber":65,"Velocity":36,"Duration":275176,"SoundDuration":275176,"Delta":66173493},{"NoteNumber":68,"Velocity":61,"Duration":275176,"SoundDuration":275176,"Delta":66463152},{"NoteNumber":61,"Velocity":50,"Duration":275176,"SoundDuration":275176,"Delta":66463152},{"NoteNumber":53,"Velocity":27,"Duration":275176,"SoundDuration":275176,"Delta":66463152},{"NoteNumber":58,"Velocity":31,"Duration":275176,"SoundDuration":275176,"Delta":66463152},{"NoteNumber":65,"Velocity":36,"Duration":275176,"SoundDuration":275176,"Delta":66463152},{"NoteNumber":39,"Velocity":65,"Duration":308108,"SoundDuration":308108,"Delta":66752811},{"NoteNumber":51,"Velocity":65,"Duration":308108,"SoundDuration":308108,"Delta":66752811},{"NoteNumber":68,"Velocity":66,"Duration":269529,"SoundDuration":269529,"Delta":67077135},{"NoteNumber":61,"Velocity":54,"Duration":269529,"SoundDuration":269529,"Delta":67077135},{"NoteNumber":53,"Velocity":27,"Duration":269529,"SoundDuration":269529,"Delta":67077135},{"NoteNumber":58,"Velocity":31,"Duration":269529,"SoundDuration":269529,"Delta":67077135},{"NoteNumber":65,"Velocity":37,"Duration":269529,"SoundDuration":269529,"Delta":67077135},{"NoteNumber":61,"Velocity":45,"Duration":278075,"SoundDuration":278075,"Delta":67360850},{"NoteNumber":67,"Velocity":45,"Duration":278075,"SoundDuration":278075,"Delta":67360850},{"NoteNumber":70,"Velocity":69,"Duration":278075,"SoundDuration":278075,"Delta":67360850},{"NoteNumber":51,"Velocity":27,"Duration":278075,"SoundDuration":278075,"Delta":67360850},{"NoteNumber":58,"Velocity":31,"Duration":278075,"SoundDuration":278075,"Delta":67360850},{"NoteNumber":63,"Velocity":37,"Duration":278075,"SoundDuration":278075,"Delta":67360850},{"NoteNumber":61,"Velocity":54,"Duration":278075,"SoundDuration":278075,"Delta":67653562},{"NoteNumber":73,"Velocity":69,"Duration":278075,"SoundDuration":278075,"Delta":67653562},{"NoteNumber":68,"Velocity":54,"Duration":278075,"SoundDuration":278075,"Delta":67653562},{"NoteNumber":44,"Velocity":48,"Duration":278075,"SoundDuration":278075,"Delta":67653562},{"NoteNumber":68,"Velocity":52,"Duration":273749,"SoundDuration":273749,"Delta":67946273},{"NoteNumber":60,"Velocity":43,"Duration":273749,"SoundDuration":273749,"Delta":67946273},{"NoteNumber":72,"Velocity":69,"Duration":273749,"SoundDuration":273749,"Delta":67946273},{"NoteNumber":51,"Velocity":22,"Duration":273749,"SoundDuration":273749,"Delta":67946273},{"NoteNumber":56,"Velocity":31,"Duration":273749,"SoundDuration":273749,"Delta":67946273},{"NoteNumber":63,"Velocity":37,"Duration":273749,"SoundDuration":273749,"Delta":67946273},{"NoteNumber":65,"Velocity":46,"Duration":301063,"SoundDuration":301063,"Delta":68234430},{"NoteNumber":68,"Velocity":61,"Duration":301063,"SoundDuration":301063,"Delta":68234430},{"NoteNumber":60,"Velocity":37,"Duration":301063,"SoundDuration":301063,"Delta":68234430},{"NoteNumber":51,"Velocity":19,"Duration":301063,"SoundDuration":301063,"Delta":68234430},{"NoteNumber":56,"Velocity":27,"Duration":301063,"SoundDuration":301063,"Delta":68234430},{"NoteNumber":63,"Velocity":32,"Duration":301063,"SoundDuration":301063,"Delta":68234430},{"NoteNumber":70,"Velocity":70,"Duration":1745705,"SoundDuration":1745705,"Delta":68552057},{"NoteNumber":39,"Velocity":48,"Duration":279548,"SoundDuration":279548,"Delta":68552057},{"NoteNumber":58,"Velocity":37,"Duration":268159,"SoundDuration":268159,"Delta":68846319},{"NoteNumber":67,"Velocity":43,"Duration":268159,"SoundDuration":268159,"Delta":68846319},{"NoteNumber":51,"Velocity":15,"Duration":268159,"SoundDuration":268159,"Delta":68846319},{"NoteNumber":63,"Velocity":26,"Duration":268159,"SoundDuration":268159,"Delta":68846319},{"NoteNumber":58,"Velocity":36,"Duration":268159,"SoundDuration":268159,"Delta":69128592},{"NoteNumber":67,"Velocity":42,"Duration":268159,"SoundDuration":268159,"Delta":69128592},{"NoteNumber":51,"Velocity":13,"Duration":268159,"SoundDuration":268159,"Delta":69128592},{"NoteNumber":63,"Velocity":25,"Duration":268159,"SoundDuration":268159,"Delta":69128592},{"NoteNumber":58,"Velocity":37,"Duration":268159,"SoundDuration":268159,"Delta":69410865},{"NoteNumber":67,"Velocity":43,"Duration":268159,"SoundDuration":268159,"Delta":69410865},{"NoteNumber":51,"Velocity":15,"Duration":268159,"SoundDuration":268159,"Delta":69410865},{"NoteNumber":63,"Velocity":26,"Duration":268159,"SoundDuration":268159,"Delta":69410865},{"NoteNumber":58,"Velocity":33,"Duration":274487,"SoundDuration":274487,"Delta":69693138},{"NoteNumber":67,"Velocity":39,"Duration":274487,"SoundDuration":274487,"Delta":69693138},{"NoteNumber":51,"Velocity":12,"Duration":274487,"SoundDuration":274487,"Delta":69693138},{"NoteNumber":63,"Velocity":23,"Duration":274487,"SoundDuration":274487,"Delta":69693138},{"NoteNumber":58,"Velocity":31,"Duration":299905,"SoundDuration":299905,"Delta":69982072},{"NoteNumber":67,"Velocity":37,"Duration":299905,"SoundDuration":299905,"Delta":69982072},{"NoteNumber":51,"Velocity":11,"Duration":299905,"SoundDuration":299905,"Delta":69982072},{"NoteNumber":63,"Velocity":22,"Duration":299905,"SoundDuration":299905,"Delta":69982072},{"NoteNumber":71,"Velocity":52,"Duration":712298,"SoundDuration":712298,"Delta":70297762},{"NoteNumber":39,"Velocity":28,"Duration":273749,"SoundDuration":273749,"Delta":70297762},{"NoteNumber":66,"Velocity":34,"Duration":266778,"SoundDuration":266778,"Delta":70585919},{"NoteNumber":59,"Velocity":26,"Duration":266778,"SoundDuration":266778,"Delta":70585919},{"NoteNumber":51,"Velocity":18,"Duration":266778,"SoundDuration":266778,"Delta":70585919},{"NoteNumber":57,"Velocity":21,"Duration":266778,"SoundDuration":266778,"Delta":70585919},{"NoteNumber":63,"Velocity":25,"Duration":266778,"SoundDuration":266778,"Delta":70585919},{"NoteNumber":66,"Velocity":34,"Duration":267668,"SoundDuration":267668,"Delta":70866739},{"NoteNumber":59,"Velocity":26,"Duration":267668,"SoundDuration":267668,"Delta":70866739},{"NoteNumber":51,"Velocity":18,"Duration":267668,"SoundDuration":267668,"Delta":70866739},{"NoteNumber":57,"Velocity":21,"Duration":267668,"SoundDuration":267668,"Delta":70866739},{"NoteNumber":63,"Velocity":25,"Duration":267668,"SoundDuration":267668,"Delta":70866739},{"NoteNumber":71,"Velocity":34,"Duration":71660,"SoundDuration":71660,"Delta":71010061},{"NoteNumber":73,"Velocity":34,"Duration":65858,"SoundDuration":65858,"Delta":71081721},{"NoteNumber":66,"Velocity":34,"Duration":258550,"SoundDuration":258550,"Delta":71147580},{"NoteNumber":59,"Velocity":26,"Duration":258550,"SoundDuration":258550,"Delta":71147580},{"NoteNumber":71,"Velocity":51,"Duration":258550,"SoundDuration":258550,"Delta":71147580},{"NoteNumber":51,"Velocity":18,"Duration":258550,"SoundDuration":258550,"Delta":71147580},{"NoteNumber":57,"Velocity":21,"Duration":258550,"SoundDuration":258550,"Delta":71147580},{"NoteNumber":63,"Velocity":25,"Duration":258550,"SoundDuration":258550,"Delta":71147580},{"NoteNumber":70,"Velocity":49,"Duration":273749,"SoundDuration":273749,"Delta":71419738},{"NoteNumber":58,"Velocity":26,"Duration":273749,"SoundDuration":273749,"Delta":71419738},{"NoteNumber":66,"Velocity":34,"Duration":273749,"SoundDuration":273749,"Delta":71419738},{"NoteNumber":51,"Velocity":18,"Duration":273749,"SoundDuration":273749,"Delta":71419738},{"NoteNumber":57,"Velocity":21,"Duration":273749,"SoundDuration":273749,"Delta":71419738},{"NoteNumber":63,"Velocity":25,"Duration":273749,"SoundDuration":273749,"Delta":71419738},{"NoteNumber":66,"Velocity":28,"Duration":273749,"SoundDuration":273749,"Delta":71707895},{"NoteNumber":59,"Velocity":22,"Duration":273749,"SoundDuration":273749,"Delta":71707895},{"NoteNumber":71,"Velocity":49,"Duration":273749,"SoundDuration":273749,"Delta":71707895},{"NoteNumber":63,"Velocity":25,"Duration":273749,"SoundDuration":273749,"Delta":71707895},{"NoteNumber":51,"Velocity":16,"Duration":273749,"SoundDuration":273749,"Delta":71707895},{"NoteNumber":57,"Velocity":22,"Duration":273749,"SoundDuration":273749,"Delta":71707895},{"NoteNumber":73,"Velocity":52,"Duration":850075,"SoundDuration":850075,"Delta":71996052},{"NoteNumber":40,"Velocity":28,"Duration":276618,"SoundDuration":276618,"Delta":71996052},{"NoteNumber":68,"Velocity":33,"Duration":268159,"SoundDuration":268159,"Delta":72287230},{"NoteNumber":61,"Velocity":28,"Duration":268159,"SoundDuration":268159,"Delta":72287230},{"NoteNumber":52,"Velocity":14,"Duration":268159,"SoundDuration":268159,"Delta":72287230},{"NoteNumber":56,"Velocity":20,"Duration":268159,"SoundDuration":268159,"Delta":72287230},{"NoteNumber":64,"Velocity":23,"Duration":268159,"SoundDuration":268159,"Delta":72287230},{"NoteNumber":68,"Velocity":34,"Duration":262793,"SoundDuration":262793,"Delta":72569503},{"NoteNumber":61,"Velocity":28,"Duration":262793,"SoundDuration":262793,"Delta":72569503},{"NoteNumber":52,"Velocity":15,"Duration":262793,"SoundDuration":262793,"Delta":72569503},{"NoteNumber":56,"Velocity":21,"Duration":262793,"SoundDuration":262793,"Delta":72569503},{"NoteNumber":64,"Velocity":25,"Duration":262793,"SoundDuration":262793,"Delta":72569503},{"NoteNumber":59,"Velocity":27,"Duration":266778,"SoundDuration":266778,"Delta":72846128},{"NoteNumber":71,"Velocity":51,"Duration":563093,"SoundDuration":563093,"Delta":72846128},{"NoteNumber":68,"Velocity":32,"Duration":266778,"SoundDuration":266778,"Delta":72846128},{"NoteNumber":52,"Velocity":16,"Duration":266778,"SoundDuration":266778,"Delta":72846128},{"NoteNumber":56,"Velocity":22,"Duration":266778,"SoundDuration":266778,"Delta":72846128},{"NoteNumber":64,"Velocity":27,"Duration":266778,"SoundDuration":266778,"Delta":72846128},{"NoteNumber":68,"Velocity":37,"Duration":268159,"SoundDuration":268159,"Delta":73126948},{"NoteNumber":52,"Velocity":17,"Duration":268159,"SoundDuration":268159,"Delta":73126948},{"NoteNumber":56,"Velocity":22,"Duration":268159,"SoundDuration":268159,"Delta":73126948},{"NoteNumber":63,"Velocity":28,"Duration":268159,"SoundDuration":268159,"Delta":73126948},{"NoteNumber":68,"Velocity":38,"Duration":268159,"SoundDuration":268159,"Delta":73409221},{"NoteNumber":56,"Velocity":24,"Duration":268159,"SoundDuration":268159,"Delta":73409221},{"NoteNumber":52,"Velocity":17,"Duration":268159,"SoundDuration":268159,"Delta":73409221},{"NoteNumber":61,"Velocity":29,"Duration":268159,"SoundDuration":268159,"Delta":73409221},{"NoteNumber":71,"Velocity":56,"Duration":269529,"SoundDuration":269529,"Delta":73691494},{"NoteNumber":35,"Velocity":39,"Duration":269529,"SoundDuration":269529,"Delta":73691494},{"NoteNumber":47,"Velocity":39,"Duration":269529,"SoundDuration":269529,"Delta":73691494},{"NoteNumber":71,"Velocity":47,"Duration":261468,"SoundDuration":261468,"Delta":73975209},{"NoteNumber":66,"Velocity":36,"Duration":261468,"SoundDuration":261468,"Delta":73975209},{"NoteNumber":59,"Velocity":26,"Duration":261468,"SoundDuration":261468,"Delta":73975209},{"NoteNumber":63,"Velocity":29,"Duration":261468,"SoundDuration":261468,"Delta":73975209},{"NoteNumber":69,"Velocity":35,"Duration":261468,"SoundDuration":261468,"Delta":73975209},{"NoteNumber":73,"Velocity":60,"Duration":251256,"SoundDuration":251256,"Delta":74250438},{"NoteNumber":71,"Velocity":47,"Duration":251256,"SoundDuration":251256,"Delta":74250438},{"NoteNumber":66,"Velocity":47,"Duration":251256,"SoundDuration":251256,"Delta":74250438},{"NoteNumber":59,"Velocity":26,"Duration":251256,"SoundDuration":251256,"Delta":74250438},{"NoteNumber":63,"Velocity":29,"Duration":251256,"SoundDuration":251256,"Delta":74250438},{"NoteNumber":69,"Velocity":35,"Duration":251256,"SoundDuration":251256,"Delta":74250438},{"NoteNumber":66,"Velocity":36,"Duration":249496,"SoundDuration":249496,"Delta":74514919},{"NoteNumber":75,"Velocity":63,"Duration":249496,"SoundDuration":249496,"Delta":74514919},{"NoteNumber":71,"Velocity":47,"Duration":249496,"SoundDuration":249496,"Delta":74514919},{"NoteNumber":59,"Velocity":26,"Duration":249496,"SoundDuration":249496,"Delta":74514919},{"NoteNumber":63,"Velocity":29,"Duration":249496,"SoundDuration":249496,"Delta":74514919},{"NoteNumber":69,"Velocity":35,"Duration":249496,"SoundDuration":249496,"Delta":74514919},{"NoteNumber":66,"Velocity":47,"Duration":268159,"SoundDuration":268159,"Delta":74777547},{"NoteNumber":76,"Velocity":67,"Duration":268159,"SoundDuration":268159,"Delta":74777547},{"NoteNumber":71,"Velocity":47,"Duration":268159,"SoundDuration":268159,"Delta":74777547},{"NoteNumber":59,"Velocity":26,"Duration":268159,"SoundDuration":268159,"Delta":74777547},{"NoteNumber":61,"Velocity":29,"Duration":268159,"SoundDuration":268159,"Delta":74777547},{"NoteNumber":69,"Velocity":35,"Duration":268159,"SoundDuration":268159,"Delta":74777547},{"NoteNumber":71,"Velocity":47,"Duration":270807,"SoundDuration":270807,"Delta":75059820},{"NoteNumber":78,"Velocity":67,"Duration":270807,"SoundDuration":270807,"Delta":75059820},{"NoteNumber":66,"Velocity":38,"Duration":270807,"SoundDuration":270807,"Delta":75059820},{"NoteNumber":69,"Velocity":35,"Duration":270807,"SoundDuration":270807,"Delta":75059820},{"NoteNumber":59,"Velocity":23,"Duration":270807,"SoundDuration":270807,"Delta":75059820},{"NoteNumber":63,"Velocity":31,"Duration":270807,"SoundDuration":270807,"Delta":75059820},{"NoteNumber":80,"Velocity":72,"Duration":1942362,"SoundDuration":1942362,"Delta":75345035},{"NoteNumber":40,"Velocity":39,"Duration":269529,"SoundDuration":269529,"Delta":75345035},{"NoteNumber":52,"Velocity":50,"Duration":269529,"SoundDuration":269529,"Delta":75345035},{"NoteNumber":68,"Velocity":40,"Duration":261468,"SoundDuration":261468,"Delta":75628750},{"NoteNumber":76,"Velocity":48,"Duration":261468,"SoundDuration":261468,"Delta":75628750},{"NoteNumber":59,"Velocity":21,"Duration":261468,"SoundDuration":261468,"Delta":75628750},{"NoteNumber":64,"Velocity":29,"Duration":261468,"SoundDuration":261468,"Delta":75628750},{"NoteNumber":71,"Velocity":35,"Duration":261468,"SoundDuration":261468,"Delta":75628750},{"NoteNumber":68,"Velocity":41,"Duration":249496,"SoundDuration":249496,"Delta":75903979},{"NoteNumber":76,"Velocity":49,"Duration":249496,"SoundDuration":249496,"Delta":75903979},{"NoteNumber":59,"Velocity":23,"Duration":249496,"SoundDuration":249496,"Delta":75903979},{"NoteNumber":64,"Velocity":31,"Duration":249496,"SoundDuration":249496,"Delta":75903979},{"NoteNumber":71,"Velocity":36,"Duration":249496,"SoundDuration":249496,"Delta":75903979},{"NoteNumber":68,"Velocity":42,"Duration":258902,"SoundDuration":258902,"Delta":76166607},{"NoteNumber":76,"Velocity":51,"Duration":258902,"SoundDuration":258902,"Delta":76166607},{"NoteNumber":59,"Velocity":24,"Duration":258902,"SoundDuration":258902,"Delta":76166607},{"NoteNumber":64,"Velocity":33,"Duration":258902,"SoundDuration":258902,"Delta":76166607},{"NoteNumber":71,"Velocity":39,"Duration":258902,"SoundDuration":258902,"Delta":76166607},{"NoteNumber":76,"Velocity":53,"Duration":268159,"SoundDuration":268159,"Delta":76439136},{"NoteNumber":71,"Velocity":45,"Duration":268159,"SoundDuration":268159,"Delta":76439136},{"NoteNumber":68,"Velocity":45,"Duration":268159,"SoundDuration":268159,"Delta":76439136},{"NoteNumber":39,"Velocity":40,"Duration":268159,"SoundDuration":268159,"Delta":76439136},{"NoteNumber":51,"Velocity":49,"Duration":268159,"SoundDuration":268159,"Delta":76439136},{"NoteNumber":68,"Velocity":46,"Duration":268159,"SoundDuration":268159,"Delta":76721409},{"NoteNumber":71,"Velocity":45,"Duration":268159,"SoundDuration":268159,"Delta":76721409},{"NoteNumber":76,"Velocity":55,"Duration":268159,"SoundDuration":268159,"Delta":76721409},{"NoteNumber":50,"Velocity":55,"Duration":268159,"SoundDuration":268159,"Delta":76721409},{"NoteNumber":38,"Velocity":46,"Duration":268159,"SoundDuration":268159,"Delta":76721409},{"NoteNumber":37,"Velocity":48,"Duration":269529,"SoundDuration":269529,"Delta":77003682},{"NoteNumber":49,"Velocity":60,"Duration":269529,"SoundDuration":269529,"Delta":77003682},{"NoteNumber":61,"Velocity":31,"Duration":261468,"SoundDuration":261468,"Delta":77287397},{"NoteNumber":53,"Velocity":22,"Duration":261468,"SoundDuration":261468,"Delta":77287397},{"NoteNumber":59,"Velocity":25,"Duration":261468,"SoundDuration":261468,"Delta":77287397},{"NoteNumber":65,"Velocity":30,"Duration":261468,"SoundDuration":261468,"Delta":77287397},{"NoteNumber":61,"Velocity":31,"Duration":263302,"SoundDuration":263302,"Delta":77562627},{"NoteNumber":68,"Velocity":31,"Duration":263302,"SoundDuration":263302,"Delta":77562627},{"NoteNumber":73,"Velocity":40,"Duration":139239,"SoundDuration":139239,"Delta":77562627},{"NoteNumber":53,"Velocity":22,"Duration":263302,"SoundDuration":263302,"Delta":77562627},{"NoteNumber":59,"Velocity":25,"Duration":263302,"SoundDuration":263302,"Delta":77562627},{"NoteNumber":65,"Velocity":30,"Duration":263302,"SoundDuration":263302,"Delta":77562627},{"NoteNumber":73,"Velocity":40,"Duration":70205,"SoundDuration":70205,"Delta":77703037},{"NoteNumber":75,"Velocity":40,"Duration":65858,"SoundDuration":65858,"Delta":77773242},{"NoteNumber":73,"Velocity":61,"Duration":249496,"SoundDuration":249496,"Delta":77839100},{"NoteNumber":61,"Velocity":31,"Duration":249496,"SoundDuration":249496,"Delta":77839100},{"NoteNumber":68,"Velocity":40,"Duration":249496,"SoundDuration":249496,"Delta":77839100},{"NoteNumber":53,"Velocity":22,"Duration":249496,"SoundDuration":249496,"Delta":77839100},{"NoteNumber":59,"Velocity":25,"Duration":249496,"SoundDuration":249496,"Delta":77839100},{"NoteNumber":65,"Velocity":30,"Duration":249496,"SoundDuration":249496,"Delta":77839100},{"NoteNumber":68,"Velocity":38,"Duration":268159,"SoundDuration":268159,"Delta":78101728},{"NoteNumber":60,"Velocity":31,"Duration":268159,"SoundDuration":268159,"Delta":78101728},{"NoteNumber":72,"Velocity":56,"Duration":268159,"SoundDuration":268159,"Delta":78101728},{"NoteNumber":53,"Velocity":22,"Duration":268159,"SoundDuration":268159,"Delta":78101728},{"NoteNumber":59,"Velocity":25,"Duration":268159,"SoundDuration":268159,"Delta":78101728},{"NoteNumber":65,"Velocity":30,"Duration":268159,"SoundDuration":268159,"Delta":78101728},{"NoteNumber":61,"Velocity":27,"Duration":268159,"SoundDuration":268159,"Delta":78384001},{"NoteNumber":73,"Velocity":58,"Duration":268159,"SoundDuration":268159,"Delta":78384001},{"NoteNumber":68,"Velocity":33,"Duration":268159,"SoundDuration":268159,"Delta":78384001},{"NoteNumber":65,"Velocity":30,"Duration":268159,"SoundDuration":268159,"Delta":78384001},{"NoteNumber":53,"Velocity":19,"Duration":268159,"SoundDuration":268159,"Delta":78384001},{"NoteNumber":59,"Velocity":27,"Duration":268159,"SoundDuration":268159,"Delta":78384001},{"NoteNumber":75,"Velocity":62,"Duration":821572,"SoundDuration":821572,"Delta":78666274},{"NoteNumber":42,"Velocity":34,"Duration":269529,"SoundDuration":269529,"Delta":78666274},{"NoteNumber":61,"Velocity":33,"Duration":261468,"SoundDuration":261468,"Delta":78949989},{"NoteNumber":70,"Velocity":39,"Duration":261468,"SoundDuration":261468,"Delta":78949989},{"NoteNumber":54,"Velocity":17,"Duration":261468,"SoundDuration":261468,"Delta":78949989},{"NoteNumber":58,"Velocity":24,"Duration":261468,"SoundDuration":261468,"Delta":78949989},{"NoteNumber":66,"Velocity":28,"Duration":261468,"SoundDuration":261468,"Delta":78949989},{"NoteNumber":61,"Velocity":34,"Duration":249496,"SoundDuration":249496,"Delta":79225219},{"NoteNumber":70,"Velocity":40,"Duration":249496,"SoundDuration":249496,"Delta":79225219},{"NoteNumber":54,"Velocity":18,"Duration":249496,"SoundDuration":249496,"Delta":79225219},{"NoteNumber":58,"Velocity":25,"Duration":249496,"SoundDuration":249496,"Delta":79225219},{"NoteNumber":66,"Velocity":30,"Duration":249496,"SoundDuration":249496,"Delta":79225219},{"NoteNumber":73,"Velocity":60,"Duration":837074,"SoundDuration":837074,"Delta":79487847},{"NoteNumber":70,"Velocity":38,"Duration":258902,"SoundDuration":258902,"Delta":79487847},{"NoteNumber":61,"Velocity":32,"Duration":258902,"SoundDuration":258902,"Delta":79487847},{"NoteNumber":54,"Velocity":19,"Duration":258902,"SoundDuration":258902,"Delta":79487847},{"NoteNumber":58,"Velocity":27,"Duration":258902,"SoundDuration":258902,"Delta":79487847},{"NoteNumber":66,"Velocity":32,"Duration":258902,"SoundDuration":258902,"Delta":79487847},{"NoteNumber":70,"Velocity":44,"Duration":268159,"SoundDuration":268159,"Delta":79760376},{"NoteNumber":61,"Velocity":32,"Duration":268159,"SoundDuration":268159,"Delta":79760376},{"NoteNumber":54,"Velocity":20,"Duration":268159,"SoundDuration":268159,"Delta":79760376},{"NoteNumber":58,"Velocity":27,"Duration":268159,"SoundDuration":268159,"Delta":79760376},{"NoteNumber":65,"Velocity":33,"Duration":268159,"SoundDuration":268159,"Delta":79760376},{"NoteNumber":70,"Velocity":45,"Duration":268159,"SoundDuration":268159,"Delta":80042649},{"NoteNumber":61,"Velocity":32,"Duration":268159,"SoundDuration":268159,"Delta":80042649},{"NoteNumber":58,"Velocity":29,"Duration":268159,"SoundDuration":268159,"Delta":80042649},{"NoteNumber":54,"Velocity":21,"Duration":268159,"SoundDuration":268159,"Delta":80042649},{"NoteNumber":63,"Velocity":35,"Duration":268159,"SoundDuration":268159,"Delta":80042649},{"NoteNumber":73,"Velocity":56,"Duration":269529,"SoundDuration":269529,"Delta":80324922},{"NoteNumber":37,"Velocity":39,"Duration":269529,"SoundDuration":269529,"Delta":80324922},{"NoteNumber":49,"Velocity":39,"Duration":269529,"SoundDuration":269529,"Delta":80324922},{"NoteNumber":65,"Velocity":36,"Duration":261468,"SoundDuration":261468,"Delta":80608637},{"NoteNumber":73,"Velocity":47,"Duration":261468,"SoundDuration":261468,"Delta":80608637},{"NoteNumber":71,"Velocity":36,"Duration":261468,"SoundDuration":261468,"Delta":80608637},{"NoteNumber":61,"Velocity":29,"Duration":261468,"SoundDuration":261468,"Delta":80608637},{"NoteNumber":56,"Velocity":26,"Duration":261468,"SoundDuration":261468,"Delta":80608637},{"NoteNumber":59,"Velocity":29,"Duration":261468,"SoundDuration":261468,"Delta":80608637},{"NoteNumber":68,"Velocity":35,"Duration":261468,"SoundDuration":261468,"Delta":80608637},{"NoteNumber":75,"Velocity":60,"Duration":251256,"SoundDuration":251256,"Delta":80883866},{"NoteNumber":71,"Velocity":47,"Duration":251256,"SoundDuration":251256,"Delta":80883866},{"NoteNumber":65,"Velocity":47,"Duration":251256,"SoundDuration":251256,"Delta":80883866},{"NoteNumber":61,"Velocity":29,"Duration":251256,"SoundDuration":251256,"Delta":80883866},{"NoteNumber":56,"Velocity":26,"Duration":251256,"SoundDuration":251256,"Delta":80883866},{"NoteNumber":59,"Velocity":29,"Duration":251256,"SoundDuration":251256,"Delta":80883866},{"NoteNumber":68,"Velocity":35,"Duration":251256,"SoundDuration":251256,"Delta":80883866},{"NoteNumber":77,"Velocity":63,"Duration":244362,"SoundDuration":244362,"Delta":81148347},{"NoteNumber":65,"Velocity":36,"Duration":244362,"SoundDuration":244362,"Delta":81148347},{"NoteNumber":71,"Velocity":47,"Duration":244362,"SoundDuration":244362,"Delta":81148347},{"NoteNumber":61,"Velocity":29,"Duration":244362,"SoundDuration":244362,"Delta":81148347},{"NoteNumber":56,"Velocity":26,"Duration":244362,"SoundDuration":244362,"Delta":81148347},{"NoteNumber":59,"Velocity":29,"Duration":244362,"SoundDuration":244362,"Delta":81148347},{"NoteNumber":68,"Velocity":35,"Duration":244362,"SoundDuration":244362,"Delta":81148347},{"NoteNumber":78,"Velocity":67,"Duration":268159,"SoundDuration":268159,"Delta":81405570},{"NoteNumber":71,"Velocity":47,"Duration":268159,"SoundDuration":268159,"Delta":81405570},{"NoteNumber":73,"Velocity":47,"Duration":268159,"SoundDuration":268159,"Delta":81405570},{"NoteNumber":66,"Velocity":47,"Duration":268159,"SoundDuration":268159,"Delta":81405570},{"NoteNumber":61,"Velocity":29,"Duration":268159,"SoundDuration":268159,"Delta":81405570},{"NoteNumber":56,"Velocity":26,"Duration":268159,"SoundDuration":268159,"Delta":81405570},{"NoteNumber":59,"Velocity":29,"Duration":268159,"SoundDuration":268159,"Delta":81405570},{"NoteNumber":63,"Velocity":35,"Duration":268159,"SoundDuration":268159,"Delta":81405570},{"NoteNumber":80,"Velocity":67,"Duration":270807,"SoundDuration":270807,"Delta":81687843},{"NoteNumber":71,"Velocity":47,"Duration":270807,"SoundDuration":270807,"Delta":81687843},{"NoteNumber":73,"Velocity":47,"Duration":270807,"SoundDuration":270807,"Delta":81687843},{"NoteNumber":68,"Velocity":38,"Duration":270807,"SoundDuration":270807,"Delta":81687843},{"NoteNumber":61,"Velocity":31,"Duration":270807,"SoundDuration":270807,"Delta":81687843},{"NoteNumber":65,"Velocity":35,"Duration":270807,"SoundDuration":270807,"Delta":81687843},{"NoteNumber":56,"Velocity":23,"Duration":270807,"SoundDuration":270807,"Delta":81687843},{"NoteNumber":59,"Velocity":31,"Duration":270807,"SoundDuration":270807,"Delta":81687843},{"NoteNumber":82,"Velocity":72,"Duration":1670586,"SoundDuration":1670586,"Delta":81973058},{"NoteNumber":42,"Velocity":45,"Duration":269529,"SoundDuration":269529,"Delta":81973058},{"NoteNumber":70,"Velocity":50,"Duration":261468,"SoundDuration":261468,"Delta":82256773},{"NoteNumber":78,"Velocity":59,"Duration":261468,"SoundDuration":261468,"Delta":82256773},{"NoteNumber":54,"Velocity":21,"Duration":261468,"SoundDuration":261468,"Delta":82256773},{"NoteNumber":61,"Velocity":29,"Duration":261468,"SoundDuration":261468,"Delta":82256773},{"NoteNumber":66,"Velocity":35,"Duration":261468,"SoundDuration":261468,"Delta":82256773},{"NoteNumber":70,"Velocity":46,"Duration":256687,"SoundDuration":256687,"Delta":82532003},{"NoteNumber":78,"Velocity":55,"Duration":256687,"SoundDuration":256687,"Delta":82532003},{"NoteNumber":54,"Velocity":23,"Duration":256687,"SoundDuration":256687,"Delta":82532003},{"NoteNumber":61,"Velocity":31,"Duration":256687,"SoundDuration":256687,"Delta":82532003},{"NoteNumber":66,"Velocity":36,"Duration":256687,"SoundDuration":256687,"Delta":82532003},{"NoteNumber":78,"Velocity":62,"Duration":258902,"SoundDuration":258902,"Delta":82802200},{"NoteNumber":73,"Velocity":52,"Duration":258902,"SoundDuration":258902,"Delta":82802200},{"NoteNumber":70,"Velocity":52,"Duration":258902,"SoundDuration":258902,"Delta":82802200},{"NoteNumber":42,"Velocity":42,"Duration":258902,"SoundDuration":258902,"Delta":82802200},{"NoteNumber":54,"Velocity":50,"Duration":258902,"SoundDuration":258902,"Delta":82802200},{"NoteNumber":70,"Velocity":56,"Duration":268159,"SoundDuration":268159,"Delta":83074729},{"NoteNumber":73,"Velocity":56,"Duration":268159,"SoundDuration":268159,"Delta":83074729},{"NoteNumber":78,"Velocity":66,"Duration":268159,"SoundDuration":268159,"Delta":83074729},{"NoteNumber":41,"Velocity":45,"Duration":268159,"SoundDuration":268159,"Delta":83074729},{"NoteNumber":53,"Velocity":53,"Duration":268159,"SoundDuration":268159,"Delta":83074729},{"NoteNumber":73,"Velocity":59,"Duration":272310,"SoundDuration":272310,"Delta":83357002},{"NoteNumber":78,"Velocity":70,"Duration":272310,"SoundDuration":272310,"Delta":83357002},{"NoteNumber":70,"Velocity":59,"Duration":272310,"SoundDuration":272310,"Delta":83357002},{"NoteNumber":52,"Velocity":56,"Duration":272310,"SoundDuration":272310,"Delta":83357002},{"NoteNumber":40,"Velocity":47,"Duration":272310,"SoundDuration":272310,"Delta":83357002},{"NoteNumber":83,"Velocity":78,"Duration":837101,"SoundDuration":837101,"Delta":83643644},{"NoteNumber":39,"Velocity":63,"Duration":272310,"SoundDuration":272310,"Delta":83643644},{"NoteNumber":51,"Velocity":63,"Duration":272310,"SoundDuration":272310,"Delta":83643644},{"NoteNumber":69,"Velocity":48,"Duration":261468,"SoundDuration":261468,"Delta":83930287},{"NoteNumber":78,"Velocity":58,"Duration":261468,"SoundDuration":261468,"Delta":83930287},{"NoteNumber":71,"Velocity":48,"Duration":261468,"SoundDuration":261468,"Delta":83930287},{"NoteNumber":59,"Velocity":34,"Duration":261468,"SoundDuration":261468,"Delta":83930287},{"NoteNumber":66,"Velocity":41,"Duration":261468,"SoundDuration":261468,"Delta":83930287},{"NoteNumber":71,"Velocity":48,"Duration":261468,"SoundDuration":261468,"Delta":84205516},{"NoteNumber":69,"Velocity":48,"Duration":261468,"SoundDuration":261468,"Delta":84205516},{"NoteNumber":78,"Velocity":58,"Duration":261468,"SoundDuration":261468,"Delta":84205516},{"NoteNumber":59,"Velocity":34,"Duration":261468,"SoundDuration":261468,"Delta":84205516},{"NoteNumber":66,"Velocity":41,"Duration":261468,"SoundDuration":261468,"Delta":84205516},{"NoteNumber":80,"Velocity":74,"Duration":845659,"SoundDuration":845659,"Delta":84480746},{"NoteNumber":52,"Velocity":59,"Duration":268159,"SoundDuration":268159,"Delta":84480746},{"NoteNumber":76,"Velocity":57,"Duration":261468,"SoundDuration":261468,"Delta":84763019},{"NoteNumber":68,"Velocity":48,"Duration":261468,"SoundDuration":261468,"Delta":84763019},{"NoteNumber":59,"Velocity":34,"Duration":261468,"SoundDuration":261468,"Delta":84763019},{"NoteNumber":64,"Velocity":34,"Duration":261468,"SoundDuration":261468,"Delta":84763019},{"NoteNumber":71,"Velocity":40,"Duration":261468,"SoundDuration":261468,"Delta":84763019},{"NoteNumber":76,"Velocity":57,"Duration":273749,"SoundDuration":273749,"Delta":85038248},{"NoteNumber":68,"Velocity":48,"Duration":273749,"SoundDuration":273749,"Delta":85038248},{"NoteNumber":59,"Velocity":34,"Duration":273749,"SoundDuration":273749,"Delta":85038248},{"NoteNumber":64,"Velocity":34,"Duration":273749,"SoundDuration":273749,"Delta":85038248},{"NoteNumber":71,"Velocity":40,"Duration":273749,"SoundDuration":273749,"Delta":85038248},{"NoteNumber":82,"Velocity":74,"Duration":827083,"SoundDuration":827083,"Delta":85326405},{"NoteNumber":50,"Velocity":59,"Duration":262793,"SoundDuration":262793,"Delta":85326405},{"NoteNumber":68,"Velocity":44,"Duration":261468,"SoundDuration":261468,"Delta":85603030},{"NoteNumber":77,"Velocity":55,"Duration":261468,"SoundDuration":261468,"Delta":85603030},{"NoteNumber":70,"Velocity":39,"Duration":261468,"SoundDuration":261468,"Delta":85603030},{"NoteNumber":58,"Velocity":28,"Duration":261468,"SoundDuration":261468,"Delta":85603030},{"NoteNumber":65,"Velocity":34,"Duration":261468,"SoundDuration":261468,"Delta":85603030},{"NoteNumber":68,"Velocity":44,"Duration":261468,"SoundDuration":261468,"Delta":85878260},{"NoteNumber":77,"Velocity":55,"Duration":261468,"SoundDuration":261468,"Delta":85878260},{"NoteNumber":70,"Velocity":39,"Duration":261468,"SoundDuration":261468,"Delta":85878260},{"NoteNumber":58,"Velocity":28,"Duration":261468,"SoundDuration":261468,"Delta":85878260},{"NoteNumber":65,"Velocity":34,"Duration":261468,"SoundDuration":261468,"Delta":85878260},{"NoteNumber":79,"Velocity":70,"Duration":847161,"SoundDuration":847161,"Delta":86153489},{"NoteNumber":51,"Velocity":56,"Duration":268159,"SoundDuration":268159,"Delta":86153489},{"NoteNumber":75,"Velocity":52,"Duration":261468,"SoundDuration":261468,"Delta":86435762},{"NoteNumber":67,"Velocity":43,"Duration":261468,"SoundDuration":261468,"Delta":86435762},{"NoteNumber":58,"Velocity":27,"Duration":261468,"SoundDuration":261468,"Delta":86435762},{"NoteNumber":63,"Velocity":27,"Duration":261468,"SoundDuration":261468,"Delta":86435762},{"NoteNumber":70,"Velocity":32,"Duration":261468,"SoundDuration":261468,"Delta":86435762},{"NoteNumber":75,"Velocity":52,"Duration":275176,"SoundDuration":275176,"Delta":86710992},{"NoteNumber":67,"Velocity":43,"Duration":275176,"SoundDuration":275176,"Delta":86710992},{"NoteNumber":58,"Velocity":27,"Duration":275176,"SoundDuration":275176,"Delta":86710992},{"NoteNumber":63,"Velocity":27,"Duration":275176,"SoundDuration":275176,"Delta":86710992},{"NoteNumber":70,"Velocity":32,"Duration":275176,"SoundDuration":275176,"Delta":86710992},{"NoteNumber":81,"Velocity":66,"Duration":827083,"SoundDuration":827083,"Delta":87000651},{"NoteNumber":49,"Velocity":53,"Duration":262793,"SoundDuration":262793,"Delta":87000651},{"NoteNumber":67,"Velocity":42,"Duration":261468,"SoundDuration":261468,"Delta":87277276},{"NoteNumber":76,"Velocity":51,"Duration":261468,"SoundDuration":261468,"Delta":87277276},{"NoteNumber":69,"Velocity":36,"Duration":261468,"SoundDuration":261468,"Delta":87277276},{"NoteNumber":57,"Velocity":30,"Duration":261468,"SoundDuration":261468,"Delta":87277276},{"NoteNumber":64,"Velocity":36,"Duration":261468,"SoundDuration":261468,"Delta":87277276},{"NoteNumber":67,"Velocity":42,"Duration":261468,"SoundDuration":261468,"Delta":87552505},{"NoteNumber":76,"Velocity":51,"Duration":261468,"SoundDuration":261468,"Delta":87552505},{"NoteNumber":69,"Velocity":36,"Duration":261468,"SoundDuration":261468,"Delta":87552505},{"NoteNumber":57,"Velocity":30,"Duration":261468,"SoundDuration":261468,"Delta":87552505},{"NoteNumber":64,"Velocity":36,"Duration":261468,"SoundDuration":261468,"Delta":87552505},{"NoteNumber":78,"Velocity":63,"Duration":2513214,"SoundDuration":2513214,"Delta":87827735},{"NoteNumber":50,"Velocity":50,"Duration":268159,"SoundDuration":268159,"Delta":87827735},{"NoteNumber":74,"Velocity":48,"Duration":261468,"SoundDuration":261468,"Delta":88110008},{"NoteNumber":66,"Velocity":40,"Duration":261468,"SoundDuration":261468,"Delta":88110008},{"NoteNumber":57,"Velocity":28,"Duration":261468,"SoundDuration":261468,"Delta":88110008},{"NoteNumber":62,"Velocity":28,"Duration":261468,"SoundDuration":261468,"Delta":88110008},{"NoteNumber":69,"Velocity":34,"Duration":261468,"SoundDuration":261468,"Delta":88110008},{"NoteNumber":73,"Velocity":48,"Duration":261468,"SoundDuration":261468,"Delta":88385237},{"NoteNumber":66,"Velocity":40,"Duration":261468,"SoundDuration":261468,"Delta":88385237},{"NoteNumber":57,"Velocity":28,"Duration":261468,"SoundDuration":261468,"Delta":88385237},{"NoteNumber":62,"Velocity":28,"Duration":261468,"SoundDuration":261468,"Delta":88385237},{"NoteNumber":69,"Velocity":34,"Duration":261468,"SoundDuration":261468,"Delta":88385237},{"NoteNumber":72,"Velocity":56,"Duration":256387,"SoundDuration":256387,"Delta":88660467},{"NoteNumber":66,"Velocity":47,"Duration":256387,"SoundDuration":256387,"Delta":88660467},{"NoteNumber":57,"Velocity":43,"Duration":256387,"SoundDuration":256387,"Delta":88660467},{"NoteNumber":62,"Velocity":43,"Duration":256387,"SoundDuration":256387,"Delta":88660467},{"NoteNumber":69,"Velocity":43,"Duration":256387,"SoundDuration":256387,"Delta":88660467},{"NoteNumber":69,"Velocity":49,"Duration":260115,"SoundDuration":260115,"Delta":88930348},{"NoteNumber":66,"Velocity":49,"Duration":260115,"SoundDuration":260115,"Delta":88930348},{"NoteNumber":72,"Velocity":58,"Duration":260115,"SoundDuration":260115,"Delta":88930348},{"NoteNumber":38,"Velocity":35,"Duration":260115,"SoundDuration":260115,"Delta":88930348},{"NoteNumber":50,"Velocity":42,"Duration":260115,"SoundDuration":260115,"Delta":88930348},{"NoteNumber":66,"Velocity":51,"Duration":264043,"SoundDuration":264043,"Delta":89204225},{"NoteNumber":73,"Velocity":60,"Duration":264043,"SoundDuration":264043,"Delta":89204225},{"NoteNumber":69,"Velocity":51,"Duration":264043,"SoundDuration":264043,"Delta":89204225},{"NoteNumber":37,"Velocity":38,"Duration":264043,"SoundDuration":264043,"Delta":89204225},{"NoteNumber":49,"Velocity":45,"Duration":264043,"SoundDuration":264043,"Delta":89204225},{"NoteNumber":69,"Velocity":52,"Duration":268083,"SoundDuration":268083,"Delta":89482239},{"NoteNumber":66,"Velocity":52,"Duration":268083,"SoundDuration":268083,"Delta":89482239},{"NoteNumber":74,"Velocity":62,"Duration":268083,"SoundDuration":268083,"Delta":89482239},{"NoteNumber":36,"Velocity":39,"Duration":268083,"SoundDuration":268083,"Delta":89482239},{"NoteNumber":48,"Velocity":47,"Duration":268083,"SoundDuration":268083,"Delta":89482239},{"NoteNumber":74,"Velocity":64,"Duration":272299,"SoundDuration":272299,"Delta":89764509},{"NoteNumber":66,"Velocity":54,"Duration":272299,"SoundDuration":272299,"Delta":89764509},{"NoteNumber":69,"Velocity":54,"Duration":272299,"SoundDuration":272299,"Delta":89764509},{"NoteNumber":36,"Velocity":42,"Duration":272299,"SoundDuration":272299,"Delta":89764509},{"NoteNumber":48,"Velocity":50,"Duration":272299,"SoundDuration":272299,"Delta":89764509},{"NoteNumber":69,"Velocity":56,"Duration":275176,"SoundDuration":275176,"Delta":90051291},{"NoteNumber":66,"Velocity":56,"Duration":275176,"SoundDuration":275176,"Delta":90051291},{"NoteNumber":75,"Velocity":66,"Duration":275176,"SoundDuration":275176,"Delta":90051291},{"NoteNumber":35,"Velocity":44,"Duration":275176,"SoundDuration":275176,"Delta":90051291},{"NoteNumber":47,"Velocity":52,"Duration":275176,"SoundDuration":275176,"Delta":90051291},{"NoteNumber":79,"Velocity":77,"Duration":1106703,"SoundDuration":1106703,"Delta":90340950},{"NoteNumber":34,"Velocity":48,"Duration":269529,"SoundDuration":269529,"Delta":90340950},{"NoteNumber":46,"Velocity":48,"Duration":269529,"SoundDuration":269529,"Delta":90340950},{"NoteNumber":67,"Velocity":39,"Duration":261468,"SoundDuration":261468,"Delta":90624665},{"NoteNumber":75,"Velocity":51,"Duration":261468,"SoundDuration":261468,"Delta":90624665},{"NoteNumber":58,"Velocity":27,"Duration":261468,"SoundDuration":261468,"Delta":90624665},{"NoteNumber":63,"Velocity":31,"Duration":261468,"SoundDuration":261468,"Delta":90624665},{"NoteNumber":70,"Velocity":37,"Duration":261468,"SoundDuration":261468,"Delta":90624665},{"NoteNumber":67,"Velocity":45,"Duration":261468,"SoundDuration":261468,"Delta":90899894},{"NoteNumber":75,"Velocity":55,"Duration":261468,"SoundDuration":261468,"Delta":90899894},{"NoteNumber":58,"Velocity":28,"Duration":261468,"SoundDuration":261468,"Delta":90899894},{"NoteNumber":63,"Velocity":32,"Duration":261468,"SoundDuration":261468,"Delta":90899894},{"NoteNumber":70,"Velocity":38,"Duration":261468,"SoundDuration":261468,"Delta":90899894},{"NoteNumber":67,"Velocity":48,"Duration":258902,"SoundDuration":258902,"Delta":91175124},{"NoteNumber":73,"Velocity":48,"Duration":258902,"SoundDuration":258902,"Delta":91175124},{"NoteNumber":58,"Velocity":31,"Duration":258902,"SoundDuration":258902,"Delta":91175124},{"NoteNumber":64,"Velocity":35,"Duration":258902,"SoundDuration":258902,"Delta":91175124},{"NoteNumber":70,"Velocity":42,"Duration":258902,"SoundDuration":258902,"Delta":91175124},{"NoteNumber":73,"Velocity":56,"Duration":268159,"SoundDuration":268159,"Delta":91447653},{"NoteNumber":80,"Velocity":66,"Duration":268159,"SoundDuration":268159,"Delta":91447653},{"NoteNumber":67,"Velocity":48,"Duration":268159,"SoundDuration":268159,"Delta":91447653},{"NoteNumber":58,"Velocity":30,"Duration":268159,"SoundDuration":268159,"Delta":91447653},{"NoteNumber":64,"Velocity":34,"Duration":268159,"SoundDuration":268159,"Delta":91447653},{"NoteNumber":70,"Velocity":41,"Duration":268159,"SoundDuration":268159,"Delta":91447653},{"NoteNumber":73,"Velocity":49,"Duration":275176,"SoundDuration":275176,"Delta":91729926},{"NoteNumber":67,"Velocity":49,"Duration":275176,"SoundDuration":275176,"Delta":91729926},{"NoteNumber":76,"Velocity":64,"Duration":275176,"SoundDuration":275176,"Delta":91729926},{"NoteNumber":58,"Velocity":18,"Duration":275176,"SoundDuration":275176,"Delta":91729926},{"NoteNumber":70,"Velocity":35,"Duration":275176,"SoundDuration":275176,"Delta":91729926},{"NoteNumber":64,"Velocity":26,"Duration":275176,"SoundDuration":275176,"Delta":91729926},{"NoteNumber":79,"Velocity":69,"Duration":140186,"SoundDuration":140186,"Delta":92019585},{"NoteNumber":46,"Velocity":46,"Duration":254914,"SoundDuration":254914,"Delta":92019585},{"NoteNumber":77,"Velocity":54,"Duration":63737,"SoundDuration":63737,"Delta":92159772},{"NoteNumber":79,"Velocity":49,"Duration":63737,"SoundDuration":63737,"Delta":92223509},{"NoteNumber":68,"Velocity":53,"Duration":261468,"SoundDuration":261468,"Delta":92287247},{"NoteNumber":77,"Velocity":62,"Duration":261468,"SoundDuration":261468,"Delta":92287247},{"NoteNumber":74,"Velocity":51,"Duration":261468,"SoundDuration":261468,"Delta":92287247},{"NoteNumber":58,"Velocity":27,"Duration":261468,"SoundDuration":261468,"Delta":92287247},{"NoteNumber":65,"Velocity":30,"Duration":261468,"SoundDuration":261468,"Delta":92287247},{"NoteNumber":70,"Velocity":36,"Duration":261468,"SoundDuration":261468,"Delta":92287247},{"NoteNumber":68,"Velocity":35,"Duration":261468,"SoundDuration":261468,"Delta":92562476},{"NoteNumber":76,"Velocity":64,"Duration":261468,"SoundDuration":261468,"Delta":92562476},{"NoteNumber":74,"Velocity":44,"Duration":261468,"SoundDuration":261468,"Delta":92562476},{"NoteNumber":58,"Velocity":27,"Duration":261468,"SoundDuration":261468,"Delta":92562476},{"NoteNumber":65,"Velocity":30,"Duration":261468,"SoundDuration":261468,"Delta":92562476},{"NoteNumber":70,"Velocity":36,"Duration":261468,"SoundDuration":261468,"Delta":92562476},{"NoteNumber":74,"Velocity":55,"Duration":258902,"SoundDuration":258902,"Delta":92837706},{"NoteNumber":68,"Velocity":57,"Duration":258902,"SoundDuration":258902,"Delta":92837706},{"NoteNumber":77,"Velocity":64,"Duration":258902,"SoundDuration":258902,"Delta":92837706},{"NoteNumber":58,"Velocity":29,"Duration":258902,"SoundDuration":258902,"Delta":92837706},{"NoteNumber":65,"Velocity":33,"Duration":258902,"SoundDuration":258902,"Delta":92837706},{"NoteNumber":70,"Velocity":39,"Duration":258902,"SoundDuration":258902,"Delta":92837706},{"NoteNumber":68,"Velocity":51,"Duration":268159,"SoundDuration":268159,"Delta":93110235},{"NoteNumber":79,"Velocity":60,"Duration":268159,"SoundDuration":268159,"Delta":93110235},{"NoteNumber":74,"Velocity":51,"Duration":268159,"SoundDuration":268159,"Delta":93110235},{"NoteNumber":58,"Velocity":24,"Duration":268159,"SoundDuration":268159,"Delta":93110235},{"NoteNumber":65,"Velocity":27,"Duration":268159,"SoundDuration":268159,"Delta":93110235},{"NoteNumber":70,"Velocity":33,"Duration":268159,"SoundDuration":268159,"Delta":93110235},{"NoteNumber":74,"Velocity":63,"Duration":268159,"SoundDuration":268159,"Delta":93392508},{"NoteNumber":68,"Velocity":51,"Duration":268159,"SoundDuration":268159,"Delta":93392508},{"NoteNumber":58,"Velocity":24,"Duration":268159,"SoundDuration":268159,"Delta":93392508},{"NoteNumber":70,"Velocity":33,"Duration":268159,"SoundDuration":268159,"Delta":93392508},{"NoteNumber":65,"Velocity":27,"Duration":268159,"SoundDuration":268159,"Delta":93392508},{"NoteNumber":75,"Velocity":62,"Duration":1939950,"SoundDuration":1939950,"Delta":93674781},{"NoteNumber":39,"Velocity":44,"Duration":269529,"SoundDuration":269529,"Delta":93674781},{"NoteNumber":63,"Velocity":35,"Duration":261468,"SoundDuration":261468,"Delta":93958496},{"NoteNumber":70,"Velocity":41,"Duration":261468,"SoundDuration":261468,"Delta":93958496},{"NoteNumber":55,"Velocity":16,"Duration":261468,"SoundDuration":261468,"Delta":93958496},{"NoteNumber":58,"Velocity":22,"Duration":261468,"SoundDuration":261468,"Delta":93958496},{"NoteNumber":67,"Velocity":26,"Duration":261468,"SoundDuration":261468,"Delta":93958496},{"NoteNumber":63,"Velocity":36,"Duration":251256,"SoundDuration":251256,"Delta":94233725},{"NoteNumber":70,"Velocity":42,"Duration":251256,"SoundDuration":251256,"Delta":94233725},{"NoteNumber":55,"Velocity":17,"Duration":251256,"SoundDuration":251256,"Delta":94233725},{"NoteNumber":58,"Velocity":23,"Duration":251256,"SoundDuration":251256,"Delta":94233725},{"NoteNumber":67,"Velocity":28,"Duration":251256,"SoundDuration":251256,"Delta":94233725},{"NoteNumber":63,"Velocity":37,"Duration":254851,"SoundDuration":254851,"Delta":94498206},{"NoteNumber":70,"Velocity":44,"Duration":254851,"SoundDuration":254851,"Delta":94498206},{"NoteNumber":55,"Velocity":18,"Duration":254851,"SoundDuration":254851,"Delta":94498206},{"NoteNumber":58,"Velocity":25,"Duration":254851,"SoundDuration":254851,"Delta":94498206},{"NoteNumber":67,"Velocity":30,"Duration":254851,"SoundDuration":254851,"Delta":94498206},{"NoteNumber":63,"Velocity":38,"Duration":268159,"SoundDuration":268159,"Delta":94766470},{"NoteNumber":70,"Velocity":46,"Duration":268159,"SoundDuration":268159,"Delta":94766470},{"NoteNumber":55,"Velocity":19,"Duration":268159,"SoundDuration":268159,"Delta":94766470},{"NoteNumber":58,"Velocity":25,"Duration":268159,"SoundDuration":268159,"Delta":94766470},{"NoteNumber":67,"Velocity":31,"Duration":268159,"SoundDuration":268159,"Delta":94766470},{"NoteNumber":63,"Velocity":39,"Duration":268159,"SoundDuration":268159,"Delta":95048743},{"NoteNumber":70,"Velocity":47,"Duration":268159,"SoundDuration":268159,"Delta":95048743},{"NoteNumber":58,"Velocity":27,"Duration":268159,"SoundDuration":268159,"Delta":95048743},{"NoteNumber":55,"Velocity":19,"Duration":268159,"SoundDuration":268159,"Delta":95048743},{"NoteNumber":67,"Velocity":33,"Duration":268159,"SoundDuration":268159,"Delta":95048743},{"NoteNumber":63,"Velocity":45,"Duration":269529,"SoundDuration":269529,"Delta":95331016},{"NoteNumber":71,"Velocity":48,"Duration":269529,"SoundDuration":269529,"Delta":95331016},{"NoteNumber":51,"Velocity":53,"Duration":269529,"SoundDuration":269529,"Delta":95331016},{"NoteNumber":75,"Velocity":60,"Duration":261468,"SoundDuration":261468,"Delta":95614731},{"NoteNumber":71,"Velocity":46,"Duration":261468,"SoundDuration":261468,"Delta":95614731},{"NoteNumber":63,"Velocity":46,"Duration":261468,"SoundDuration":261468,"Delta":95614731},{"NoteNumber":56,"Velocity":22,"Duration":261468,"SoundDuration":261468,"Delta":95614731},{"NoteNumber":59,"Velocity":25,"Duration":261468,"SoundDuration":261468,"Delta":95614731},{"NoteNumber":68,"Velocity":35,"Duration":261468,"SoundDuration":261468,"Delta":95614731},{"NoteNumber":62,"Velocity":44,"Duration":254851,"SoundDuration":254851,"Delta":95889961},{"NoteNumber":74,"Velocity":57,"Duration":254851,"SoundDuration":254851,"Delta":95889961},{"NoteNumber":71,"Velocity":44,"Duration":254851,"SoundDuration":254851,"Delta":95889961},{"NoteNumber":56,"Velocity":23,"Duration":254851,"SoundDuration":254851,"Delta":95889961},{"NoteNumber":59,"Velocity":26,"Duration":254851,"SoundDuration":254851,"Delta":95889961},{"NoteNumber":68,"Velocity":31,"Duration":254851,"SoundDuration":254851,"Delta":95889961},{"NoteNumber":65,"Velocity":48,"Duration":249496,"SoundDuration":249496,"Delta":96158225},{"NoteNumber":77,"Velocity":62,"Duration":249496,"SoundDuration":249496,"Delta":96158225},{"NoteNumber":71,"Velocity":48,"Duration":249496,"SoundDuration":249496,"Delta":96158225},{"NoteNumber":56,"Velocity":22,"Duration":249496,"SoundDuration":249496,"Delta":96158225},{"NoteNumber":59,"Velocity":25,"Duration":249496,"SoundDuration":249496,"Delta":96158225},{"NoteNumber":68,"Velocity":35,"Duration":249496,"SoundDuration":249496,"Delta":96158225},{"NoteNumber":63,"Velocity":45,"Duration":268159,"SoundDuration":268159,"Delta":96420853},{"NoteNumber":71,"Velocity":45,"Duration":268159,"SoundDuration":268159,"Delta":96420853},{"NoteNumber":75,"Velocity":58,"Duration":268159,"SoundDuration":268159,"Delta":96420853},{"NoteNumber":56,"Velocity":24,"Duration":268159,"SoundDuration":268159,"Delta":96420853},{"NoteNumber":59,"Velocity":27,"Duration":268159,"SoundDuration":268159,"Delta":96420853},{"NoteNumber":68,"Velocity":32,"Duration":268159,"SoundDuration":268159,"Delta":96420853},{"NoteNumber":63,"Velocity":45,"Duration":268159,"SoundDuration":268159,"Delta":96703126},{"NoteNumber":71,"Velocity":59,"Duration":268159,"SoundDuration":268159,"Delta":96703126},{"NoteNumber":68,"Velocity":32,"Duration":268159,"SoundDuration":268159,"Delta":96703126},{"NoteNumber":56,"Velocity":24,"Duration":268159,"SoundDuration":268159,"Delta":96703126},{"NoteNumber":59,"Velocity":27,"Duration":268159,"SoundDuration":268159,"Delta":96703126},{"NoteNumber":75,"Velocity":62,"Duration":1942362,"SoundDuration":1942362,"Delta":96985399},{"NoteNumber":39,"Velocity":44,"Duration":269529,"SoundDuration":269529,"Delta":96985399},{"NoteNumber":70,"Velocity":41,"Duration":261468,"SoundDuration":261468,"Delta":97269114},{"NoteNumber":63,"Velocity":35,"Duration":261468,"SoundDuration":261468,"Delta":97269114},{"NoteNumber":55,"Velocity":16,"Duration":261468,"SoundDuration":261468,"Delta":97269114},{"NoteNumber":58,"Velocity":22,"Duration":261468,"SoundDuration":261468,"Delta":97269114},{"NoteNumber":67,"Velocity":26,"Duration":261468,"SoundDuration":261468,"Delta":97269114},{"NoteNumber":70,"Velocity":42,"Duration":249496,"SoundDuration":249496,"Delta":97544344},{"NoteNumber":63,"Velocity":36,"Duration":249496,"SoundDuration":249496,"Delta":97544344},{"NoteNumber":55,"Velocity":17,"Duration":249496,"SoundDuration":249496,"Delta":97544344},{"NoteNumber":58,"Velocity":23,"Duration":249496,"SoundDuration":249496,"Delta":97544344},{"NoteNumber":67,"Velocity":28,"Duration":249496,"SoundDuration":249496,"Delta":97544344},{"NoteNumber":70,"Velocity":44,"Duration":258902,"SoundDuration":258902,"Delta":97806972},{"NoteNumber":63,"Velocity":37,"Duration":258902,"SoundDuration":258902,"Delta":97806972},{"NoteNumber":55,"Velocity":18,"Duration":258902,"SoundDuration":258902,"Delta":97806972},{"NoteNumber":58,"Velocity":25,"Duration":258902,"SoundDuration":258902,"Delta":97806972},{"NoteNumber":67,"Velocity":30,"Duration":258902,"SoundDuration":258902,"Delta":97806972},{"NoteNumber":70,"Velocity":46,"Duration":268159,"SoundDuration":268159,"Delta":98079501},{"NoteNumber":63,"Velocity":38,"Duration":268159,"SoundDuration":268159,"Delta":98079501},{"NoteNumber":55,"Velocity":19,"Duration":268159,"SoundDuration":268159,"Delta":98079501},{"NoteNumber":58,"Velocity":25,"Duration":268159,"SoundDuration":268159,"Delta":98079501},{"NoteNumber":67,"Velocity":31,"Duration":268159,"SoundDuration":268159,"Delta":98079501},{"NoteNumber":70,"Velocity":47,"Duration":268159,"SoundDuration":268159,"Delta":98361774},{"NoteNumber":63,"Velocity":39,"Duration":268159,"SoundDuration":268159,"Delta":98361774},{"NoteNumber":58,"Velocity":27,"Duration":268159,"SoundDuration":268159,"Delta":98361774},{"NoteNumber":55,"Velocity":19,"Duration":268159,"SoundDuration":268159,"Delta":98361774},{"NoteNumber":67,"Velocity":33,"Duration":268159,"SoundDuration":268159,"Delta":98361774},{"NoteNumber":71,"Velocity":48,"Duration":269529,"SoundDuration":269529,"Delta":98644047},{"NoteNumber":63,"Velocity":45,"Duration":269529,"SoundDuration":269529,"Delta":98644047},{"NoteNumber":51,"Velocity":53,"Duration":269529,"SoundDuration":269529,"Delta":98644047},{"NoteNumber":63,"Velocity":39,"Duration":261468,"SoundDuration":261468,"Delta":98927762},{"NoteNumber":71,"Velocity":39,"Duration":261468,"SoundDuration":261468,"Delta":98927762},{"NoteNumber":75,"Velocity":51,"Duration":261468,"SoundDuration":261468,"Delta":98927762},{"NoteNumber":56,"Velocity":18,"Duration":261468,"SoundDuration":261468,"Delta":98927762},{"NoteNumber":59,"Velocity":21,"Duration":261468,"SoundDuration":261468,"Delta":98927762},{"NoteNumber":68,"Velocity":29,"Duration":261468,"SoundDuration":261468,"Delta":98927762},{"NoteNumber":74,"Velocity":48,"Duration":251256,"SoundDuration":251256,"Delta":99202991},{"NoteNumber":71,"Velocity":37,"Duration":251256,"SoundDuration":251256,"Delta":99202991},{"NoteNumber":62,"Velocity":37,"Duration":251256,"SoundDuration":251256,"Delta":99202991},{"NoteNumber":56,"Velocity":19,"Duration":251256,"SoundDuration":251256,"Delta":99202991},{"NoteNumber":59,"Velocity":22,"Duration":251256,"SoundDuration":251256,"Delta":99202991},{"NoteNumber":68,"Velocity":26,"Duration":251256,"SoundDuration":251256,"Delta":99202991},{"NoteNumber":71,"Velocity":40,"Duration":251256,"SoundDuration":251256,"Delta":99467472},{"NoteNumber":65,"Velocity":40,"Duration":251256,"SoundDuration":251256,"Delta":99467472},{"NoteNumber":77,"Velocity":52,"Duration":251256,"SoundDuration":251256,"Delta":99467472},{"NoteNumber":56,"Velocity":18,"Duration":251256,"SoundDuration":251256,"Delta":99467472},{"NoteNumber":59,"Velocity":21,"Duration":251256,"SoundDuration":251256,"Delta":99467472},{"NoteNumber":68,"Velocity":29,"Duration":251256,"SoundDuration":251256,"Delta":99467472},{"NoteNumber":75,"Velocity":49,"Duration":268159,"SoundDuration":268159,"Delta":99731952},{"NoteNumber":71,"Velocity":38,"Duration":268159,"SoundDuration":268159,"Delta":99731952},{"NoteNumber":63,"Velocity":38,"Duration":268159,"SoundDuration":268159,"Delta":99731952},{"NoteNumber":56,"Velocity":20,"Duration":268159,"SoundDuration":268159,"Delta":99731952},{"NoteNumber":59,"Velocity":22,"Duration":268159,"SoundDuration":268159,"Delta":99731952},{"NoteNumber":68,"Velocity":27,"Duration":268159,"SoundDuration":268159,"Delta":99731952},{"NoteNumber":71,"Velocity":50,"Duration":268159,"SoundDuration":268159,"Delta":100014225},{"NoteNumber":63,"Velocity":38,"Duration":268159,"SoundDuration":268159,"Delta":100014225},{"NoteNumber":68,"Velocity":27,"Duration":268159,"SoundDuration":268159,"Delta":100014225},{"NoteNumber":56,"Velocity":20,"Duration":268159,"SoundDuration":268159,"Delta":100014225},{"NoteNumber":59,"Velocity":22,"Duration":268159,"SoundDuration":268159,"Delta":100014225},{"NoteNumber":75,"Velocity":47,"Duration":3299226,"SoundDuration":3299226,"Delta":100296498},{"NoteNumber":39,"Velocity":33,"Duration":269529,"SoundDuration":269529,"Delta":100296498},{"NoteNumber":63,"Velocity":23,"Duration":261468,"SoundDuration":261468,"Delta":100580213},{"NoteNumber":70,"Velocity":28,"Duration":261468,"SoundDuration":261468,"Delta":100580213},{"NoteNumber":55,"Velocity":13,"Duration":261468,"SoundDuration":261468,"Delta":100580213},{"NoteNumber":58,"Velocity":15,"Duration":261468,"SoundDuration":261468,"Delta":100580213},{"NoteNumber":67,"Velocity":17,"Duration":261468,"SoundDuration":261468,"Delta":100580213},{"NoteNumber":63,"Velocity":24,"Duration":257638,"SoundDuration":257638,"Delta":100855443},{"NoteNumber":70,"Velocity":29,"Duration":257638,"SoundDuration":257638,"Delta":100855443},{"NoteNumber":55,"Velocity":13,"Duration":257638,"SoundDuration":257638,"Delta":100855443},{"NoteNumber":58,"Velocity":15,"Duration":257638,"SoundDuration":257638,"Delta":100855443},{"NoteNumber":67,"Velocity":17,"Duration":257638,"SoundDuration":257638,"Delta":100855443},{"NoteNumber":63,"Velocity":25,"Duration":258902,"SoundDuration":258902,"Delta":101126641},{"NoteNumber":70,"Velocity":30,"Duration":258902,"SoundDuration":258902,"Delta":101126641},{"NoteNumber":55,"Velocity":13,"Duration":258902,"SoundDuration":258902,"Delta":101126641},{"NoteNumber":58,"Velocity":15,"Duration":258902,"SoundDuration":258902,"Delta":101126641},{"NoteNumber":67,"Velocity":18,"Duration":258902,"SoundDuration":258902,"Delta":101126641},{"NoteNumber":63,"Velocity":26,"Duration":263993,"SoundDuration":263993,"Delta":101399170},{"NoteNumber":70,"Velocity":31,"Duration":263993,"SoundDuration":263993,"Delta":101399170},{"NoteNumber":55,"Velocity":14,"Duration":263993,"SoundDuration":263993,"Delta":101399170},{"NoteNumber":58,"Velocity":16,"Duration":263993,"SoundDuration":263993,"Delta":101399170},{"NoteNumber":67,"Velocity":19,"Duration":263993,"SoundDuration":263993,"Delta":101399170},{"NoteNumber":63,"Velocity":28,"Duration":264823,"SoundDuration":264823,"Delta":101677249},{"NoteNumber":70,"Velocity":33,"Duration":264823,"SoundDuration":264823,"Delta":101677249},{"NoteNumber":58,"Velocity":16,"Duration":264823,"SoundDuration":264823,"Delta":101677249},{"NoteNumber":55,"Velocity":14,"Duration":264823,"SoundDuration":264823,"Delta":101677249},{"NoteNumber":67,"Velocity":20,"Duration":264823,"SoundDuration":264823,"Delta":101677249},{"NoteNumber":63,"Velocity":28,"Duration":261636,"SoundDuration":261636,"Delta":101956026},{"NoteNumber":70,"Velocity":34,"Duration":261636,"SoundDuration":261636,"Delta":101956026},{"NoteNumber":55,"Velocity":15,"Duration":261636,"SoundDuration":261636,"Delta":101956026},{"NoteNumber":58,"Velocity":17,"Duration":261636,"SoundDuration":261636,"Delta":101956026},{"NoteNumber":67,"Velocity":21,"Duration":261636,"SoundDuration":261636,"Delta":101956026},{"NoteNumber":63,"Velocity":28,"Duration":256756,"SoundDuration":256756,"Delta":102231238},{"NoteNumber":70,"Velocity":34,"Duration":256756,"SoundDuration":256756,"Delta":102231238},{"NoteNumber":55,"Velocity":15,"Duration":256756,"SoundDuration":256756,"Delta":102231238},{"NoteNumber":58,"Velocity":17,"Duration":256756,"SoundDuration":256756,"Delta":102231238},{"NoteNumber":67,"Velocity":22,"Duration":256756,"SoundDuration":256756,"Delta":102231238},{"NoteNumber":63,"Velocity":31,"Duration":252212,"SoundDuration":252212,"Delta":102501508},{"NoteNumber":70,"Velocity":37,"Duration":252212,"SoundDuration":252212,"Delta":102501508},{"NoteNumber":55,"Velocity":16,"Duration":252212,"SoundDuration":252212,"Delta":102501508},{"NoteNumber":58,"Velocity":18,"Duration":252212,"SoundDuration":252212,"Delta":102501508},{"NoteNumber":67,"Velocity":22,"Duration":252212,"SoundDuration":252212,"Delta":102501508},{"NoteNumber":63,"Velocity":32,"Duration":258902,"SoundDuration":258902,"Delta":102766995},{"NoteNumber":70,"Velocity":39,"Duration":258902,"SoundDuration":258902,"Delta":102766995},{"NoteNumber":55,"Velocity":17,"Duration":258902,"SoundDuration":258902,"Delta":102766995},{"NoteNumber":58,"Velocity":20,"Duration":258902,"SoundDuration":258902,"Delta":102766995},{"NoteNumber":67,"Velocity":23,"Duration":258902,"SoundDuration":258902,"Delta":102766995},{"NoteNumber":63,"Velocity":34,"Duration":263186,"SoundDuration":263186,"Delta":103039524},{"NoteNumber":70,"Velocity":39,"Duration":263186,"SoundDuration":263186,"Delta":103039524},{"NoteNumber":55,"Velocity":18,"Duration":263186,"SoundDuration":263186,"Delta":103039524},{"NoteNumber":58,"Velocity":21,"Duration":263186,"SoundDuration":263186,"Delta":103039524},{"NoteNumber":67,"Velocity":24,"Duration":263186,"SoundDuration":263186,"Delta":103039524},{"NoteNumber":63,"Velocity":35,"Duration":264846,"SoundDuration":264846,"Delta":103316794},{"NoteNumber":70,"Velocity":42,"Duration":264846,"SoundDuration":264846,"Delta":103316794},{"NoteNumber":58,"Velocity":22,"Duration":264846,"SoundDuration":264846,"Delta":103316794},{"NoteNumber":55,"Velocity":19,"Duration":264846,"SoundDuration":264846,"Delta":103316794},{"NoteNumber":67,"Velocity":26,"Duration":264846,"SoundDuration":264846,"Delta":103316794},{"NoteNumber":63,"Velocity":35,"Duration":266273,"SoundDuration":266273,"Delta":103595725},{"NoteNumber":70,"Velocity":43,"Duration":266273,"SoundDuration":266273,"Delta":103595725},{"NoteNumber":55,"Velocity":20,"Duration":266273,"SoundDuration":266273,"Delta":103595725},{"NoteNumber":58,"Velocity":22,"Duration":266273,"SoundDuration":266273,"Delta":103595725},{"NoteNumber":67,"Velocity":28,"Duration":266273,"SoundDuration":266273,"Delta":103595725},{"NoteNumber":63,"Velocity":35,"Duration":261747,"SoundDuration":261747,"Delta":103875887},{"NoteNumber":70,"Velocity":42,"Duration":261747,"SoundDuration":261747,"Delta":103875887},{"NoteNumber":55,"Velocity":20,"Duration":261747,"SoundDuration":261747,"Delta":103875887},{"NoteNumber":58,"Velocity":22,"Duration":261747,"SoundDuration":261747,"Delta":103875887},{"NoteNumber":67,"Velocity":28,"Duration":261747,"SoundDuration":261747,"Delta":103875887},{"NoteNumber":63,"Velocity":34,"Duration":257230,"SoundDuration":257230,"Delta":104151334},{"NoteNumber":70,"Velocity":41,"Duration":257230,"SoundDuration":257230,"Delta":104151334},{"NoteNumber":55,"Velocity":19,"Duration":257230,"SoundDuration":257230,"Delta":104151334},{"NoteNumber":58,"Velocity":22,"Duration":257230,"SoundDuration":257230,"Delta":104151334},{"NoteNumber":67,"Velocity":26,"Duration":257230,"SoundDuration":257230,"Delta":104151334},{"NoteNumber":63,"Velocity":33,"Duration":257249,"SoundDuration":257249,"Delta":104422017},{"NoteNumber":70,"Velocity":39,"Duration":257249,"SoundDuration":257249,"Delta":104422017},{"NoteNumber":55,"Velocity":19,"Duration":257249,"SoundDuration":257249,"Delta":104422017},{"NoteNumber":58,"Velocity":22,"Duration":257249,"SoundDuration":257249,"Delta":104422017},{"NoteNumber":67,"Velocity":26,"Duration":257249,"SoundDuration":257249,"Delta":104422017},{"NoteNumber":63,"Velocity":32,"Duration":261557,"SoundDuration":261557,"Delta":104692903},{"NoteNumber":70,"Velocity":39,"Duration":261557,"SoundDuration":261557,"Delta":104692903},{"NoteNumber":55,"Velocity":18,"Duration":261557,"SoundDuration":261557,"Delta":104692903},{"NoteNumber":58,"Velocity":21,"Duration":261557,"SoundDuration":261557,"Delta":104692903},{"NoteNumber":67,"Velocity":24,"Duration":261557,"SoundDuration":261557,"Delta":104692903},{"NoteNumber":63,"Velocity":30,"Duration":265860,"SoundDuration":265860,"Delta":104968350},{"NoteNumber":70,"Velocity":36,"Duration":265860,"SoundDuration":265860,"Delta":104968350},{"NoteNumber":58,"Velocity":21,"Duration":265860,"SoundDuration":265860,"Delta":104968350},{"NoteNumber":55,"Velocity":18,"Duration":265860,"SoundDuration":265860,"Delta":104968350},{"NoteNumber":67,"Velocity":24,"Duration":265860,"SoundDuration":265860,"Delta":104968350},{"NoteNumber":63,"Velocity":29,"Duration":269529,"SoundDuration":269529,"Delta":105248295},{"NoteNumber":70,"Velocity":35,"Duration":269529,"SoundDuration":269529,"Delta":105248295},{"NoteNumber":55,"Velocity":17,"Duration":269529,"SoundDuration":269529,"Delta":105248295},{"NoteNumber":58,"Velocity":20,"Duration":269529,"SoundDuration":269529,"Delta":105248295},{"NoteNumber":67,"Velocity":23,"Duration":269529,"SoundDuration":269529,"Delta":105248295},{"NoteNumber":63,"Velocity":28,"Duration":261468,"SoundDuration":261468,"Delta":105532010},{"NoteNumber":70,"Velocity":34,"Duration":261468,"SoundDuration":261468,"Delta":105532010},{"NoteNumber":55,"Velocity":17,"Duration":261468,"SoundDuration":261468,"Delta":105532010},{"NoteNumber":58,"Velocity":20,"Duration":261468,"SoundDuration":261468,"Delta":105532010},{"NoteNumber":67,"Velocity":23,"Duration":261468,"SoundDuration":261468,"Delta":105532010},{"NoteNumber":63,"Velocity":28,"Duration":263394,"SoundDuration":263394,"Delta":105807239},{"NoteNumber":70,"Velocity":33,"Duration":263394,"SoundDuration":263394,"Delta":105807239},{"NoteNumber":55,"Velocity":16,"Duration":263394,"SoundDuration":263394,"Delta":105807239},{"NoteNumber":58,"Velocity":18,"Duration":263394,"SoundDuration":263394,"Delta":105807239},{"NoteNumber":67,"Velocity":23,"Duration":263394,"SoundDuration":263394,"Delta":105807239},{"NoteNumber":63,"Velocity":26,"Duration":270583,"SoundDuration":270583,"Delta":106084675},{"NoteNumber":70,"Velocity":32,"Duration":270583,"SoundDuration":270583,"Delta":106084675},{"NoteNumber":55,"Velocity":16,"Duration":270583,"SoundDuration":270583,"Delta":106084675},{"NoteNumber":58,"Velocity":18,"Duration":270583,"SoundDuration":270583,"Delta":106084675},{"NoteNumber":67,"Velocity":22,"Duration":270583,"SoundDuration":270583,"Delta":106084675},{"NoteNumber":63,"Velocity":24,"Duration":283330,"SoundDuration":283330,"Delta":106369751},{"NoteNumber":70,"Velocity":29,"Duration":283330,"SoundDuration":283330,"Delta":106369751},{"NoteNumber":55,"Velocity":15,"Duration":283330,"SoundDuration":283330,"Delta":106369751},{"NoteNumber":58,"Velocity":17,"Duration":283330,"SoundDuration":283330,"Delta":106369751},{"NoteNumber":67,"Velocity":22,"Duration":283330,"SoundDuration":283330,"Delta":106369751},{"NoteNumber":63,"Velocity":23,"Duration":687706,"SoundDuration":687706,"Delta":106668310},{"NoteNumber":70,"Velocity":28,"Duration":687706,"SoundDuration":687706,"Delta":106668310},{"NoteNumber":58,"Velocity":17,"Duration":309018,"SoundDuration":309018,"Delta":106668310},{"NoteNumber":55,"Velocity":15,"Duration":309018,"SoundDuration":309018,"Delta":106668310},{"NoteNumber":67,"Velocity":22,"Duration":309018,"SoundDuration":309018,"Delta":106668310},{"NoteNumber":32,"Velocity":61,"Duration":1707052,"SoundDuration":1707052,"Delta":106994570},{"NoteNumber":70,"Velocity":39,"Duration":256387,"SoundDuration":256387,"Delta":107356016},{"NoteNumber":63,"Velocity":28,"Duration":256387,"SoundDuration":256387,"Delta":107356016},{"NoteNumber":44,"Velocity":17,"Duration":256387,"SoundDuration":256387,"Delta":107356016},{"NoteNumber":51,"Velocity":21,"Duration":256387,"SoundDuration":256387,"Delta":107356016},{"NoteNumber":72,"Velocity":39,"Duration":247761,"SoundDuration":247761,"Delta":107625897},{"NoteNumber":63,"Velocity":29,"Duration":247761,"SoundDuration":247761,"Delta":107625897},{"NoteNumber":44,"Velocity":18,"Duration":247761,"SoundDuration":247761,"Delta":107625897},{"NoteNumber":51,"Velocity":22,"Duration":247761,"SoundDuration":247761,"Delta":107625897},{"NoteNumber":63,"Velocity":30,"Duration":244362,"SoundDuration":244362,"Delta":107886699},{"NoteNumber":73,"Velocity":41,"Duration":244362,"SoundDuration":244362,"Delta":107886699},{"NoteNumber":44,"Velocity":20,"Duration":244362,"SoundDuration":244362,"Delta":107886699},{"NoteNumber":51,"Velocity":23,"Duration":244362,"SoundDuration":244362,"Delta":107886699},{"NoteNumber":58,"Velocity":23,"Duration":244362,"SoundDuration":244362,"Delta":107886699},{"NoteNumber":61,"Velocity":28,"Duration":258902,"SoundDuration":258902,"Delta":108143922},{"NoteNumber":65,"Velocity":39,"Duration":258902,"SoundDuration":258902,"Delta":108143922},{"NoteNumber":51,"Velocity":18,"Duration":258902,"SoundDuration":258902,"Delta":108143922},{"NoteNumber":58,"Velocity":22,"Duration":258902,"SoundDuration":258902,"Delta":108143922},{"NoteNumber":61,"Velocity":28,"Duration":270912,"SoundDuration":270912,"Delta":108416451},{"NoteNumber":67,"Velocity":39,"Duration":270912,"SoundDuration":270912,"Delta":108416451},{"NoteNumber":51,"Velocity":18,"Duration":270912,"SoundDuration":270912,"Delta":108416451},{"NoteNumber":58,"Velocity":22,"Duration":270912,"SoundDuration":270912,"Delta":108416451},{"NoteNumber":60,"Velocity":19,"Duration":281065,"SoundDuration":281065,"Delta":108701622},{"NoteNumber":70,"Velocity":42,"Duration":835608,"SoundDuration":835608,"Delta":108701622},{"NoteNumber":51,"Velocity":16,"Duration":281065,"SoundDuration":281065,"Delta":108701622},{"NoteNumber":56,"Velocity":18,"Duration":281065,"SoundDuration":281065,"Delta":108701622},{"NoteNumber":63,"Velocity":22,"Duration":281065,"SoundDuration":281065,"Delta":108701622},{"NoteNumber":60,"Velocity":19,"Duration":255124,"SoundDuration":255124,"Delta":108997480},{"NoteNumber":51,"Velocity":14,"Duration":255124,"SoundDuration":255124,"Delta":108997480},{"NoteNumber":56,"Velocity":16,"Duration":255124,"SoundDuration":255124,"Delta":108997480},{"NoteNumber":63,"Velocity":20,"Duration":255124,"SoundDuration":255124,"Delta":108997480},{"NoteNumber":60,"Velocity":19,"Duration":257638,"SoundDuration":257638,"Delta":109266033},{"NoteNumber":51,"Velocity":13,"Duration":257638,"SoundDuration":257638,"Delta":109266033},{"NoteNumber":56,"Velocity":15,"Duration":257638,"SoundDuration":257638,"Delta":109266033},{"NoteNumber":63,"Velocity":19,"Duration":257638,"SoundDuration":257638,"Delta":109266033},{"NoteNumber":60,"Velocity":22,"Duration":257638,"SoundDuration":257638,"Delta":109537231},{"NoteNumber":68,"Velocity":40,"Duration":859310,"SoundDuration":859310,"Delta":109537231},{"NoteNumber":51,"Velocity":16,"Duration":257638,"SoundDuration":257638,"Delta":109537231},{"NoteNumber":56,"Velocity":18,"Duration":257638,"SoundDuration":257638,"Delta":109537231},{"NoteNumber":63,"Velocity":22,"Duration":257638,"SoundDuration":257638,"Delta":109537231},{"NoteNumber":60,"Velocity":19,"Duration":268159,"SoundDuration":268159,"Delta":109808430},{"NoteNumber":51,"Velocity":14,"Duration":268159,"SoundDuration":268159,"Delta":109808430},{"NoteNumber":56,"Velocity":16,"Duration":268159,"SoundDuration":268159,"Delta":109808430},{"NoteNumber":63,"Velocity":20,"Duration":268159,"SoundDuration":268159,"Delta":109808430},{"NoteNumber":60,"Velocity":19,"Duration":289662,"SoundDuration":289662,"Delta":110090703},{"NoteNumber":51,"Velocity":14,"Duration":289662,"SoundDuration":289662,"Delta":110090703},{"NoteNumber":56,"Velocity":16,"Duration":289662,"SoundDuration":289662,"Delta":110090703},{"NoteNumber":63,"Velocity":20,"Duration":289662,"SoundDuration":289662,"Delta":110090703},{"NoteNumber":32,"Velocity":57,"Duration":1662944,"SoundDuration":1662944,"Delta":110396541},{"NoteNumber":68,"Velocity":30,"Duration":253333,"SoundDuration":253333,"Delta":110716337},{"NoteNumber":73,"Velocity":41,"Duration":253333,"SoundDuration":253333,"Delta":110716337},{"NoteNumber":53,"Velocity":13,"Duration":253333,"SoundDuration":253333,"Delta":110716337},{"NoteNumber":56,"Velocity":15,"Duration":253333,"SoundDuration":253333,"Delta":110716337},{"NoteNumber":61,"Velocity":18,"Duration":253333,"SoundDuration":253333,"Delta":110716337},{"NoteNumber":65,"Velocity":22,"Duration":253333,"SoundDuration":253333,"Delta":110716337},{"NoteNumber":73,"Velocity":33,"Duration":251256,"SoundDuration":251256,"Delta":110983003},{"NoteNumber":79,"Velocity":44,"Duration":251256,"SoundDuration":251256,"Delta":110983003},{"NoteNumber":68,"Velocity":33,"Duration":251256,"SoundDuration":251256,"Delta":110983003},{"NoteNumber":53,"Velocity":13,"Duration":251256,"SoundDuration":251256,"Delta":110983003},{"NoteNumber":56,"Velocity":15,"Duration":251256,"SoundDuration":251256,"Delta":110983003},{"NoteNumber":61,"Velocity":18,"Duration":251256,"SoundDuration":251256,"Delta":110983003},{"NoteNumber":65,"Velocity":22,"Duration":251256,"SoundDuration":251256,"Delta":110983003},{"NoteNumber":68,"Velocity":34,"Duration":246050,"SoundDuration":246050,"Delta":111247484},{"NoteNumber":73,"Velocity":34,"Duration":246050,"SoundDuration":246050,"Delta":111247484},{"NoteNumber":82,"Velocity":47,"Duration":246050,"SoundDuration":246050,"Delta":111247484},{"NoteNumber":53,"Velocity":14,"Duration":246050,"SoundDuration":246050,"Delta":111247484},{"NoteNumber":56,"Velocity":16,"Duration":246050,"SoundDuration":246050,"Delta":111247484},{"NoteNumber":61,"Velocity":20,"Duration":246050,"SoundDuration":246050,"Delta":111247484},{"NoteNumber":65,"Velocity":23,"Duration":246050,"SoundDuration":246050,"Delta":111247484},{"NoteNumber":80,"Velocity":42,"Duration":253041,"SoundDuration":253041,"Delta":111506484},{"NoteNumber":73,"Velocity":31,"Duration":253041,"SoundDuration":253041,"Delta":111506484},{"NoteNumber":68,"Velocity":31,"Duration":253041,"SoundDuration":253041,"Delta":111506484},{"NoteNumber":53,"Velocity":13,"Duration":253041,"SoundDuration":253041,"Delta":111506484},{"NoteNumber":56,"Velocity":15,"Duration":253041,"SoundDuration":253041,"Delta":111506484},{"NoteNumber":61,"Velocity":18,"Duration":253041,"SoundDuration":253041,"Delta":111506484},{"NoteNumber":65,"Velocity":22,"Duration":253041,"SoundDuration":253041,"Delta":111506484},{"NoteNumber":68,"Velocity":31,"Duration":272310,"SoundDuration":272310,"Delta":111772843},{"NoteNumber":73,"Velocity":31,"Duration":272310,"SoundDuration":272310,"Delta":111772843},{"NoteNumber":77,"Velocity":42,"Duration":272310,"SoundDuration":272310,"Delta":111772843},{"NoteNumber":53,"Velocity":13,"Duration":272310,"SoundDuration":272310,"Delta":111772843},{"NoteNumber":56,"Velocity":15,"Duration":272310,"SoundDuration":272310,"Delta":111772843},{"NoteNumber":61,"Velocity":18,"Duration":272310,"SoundDuration":272310,"Delta":111772843},{"NoteNumber":65,"Velocity":22,"Duration":272310,"SoundDuration":272310,"Delta":111772843},{"NoteNumber":63,"Velocity":31,"Duration":279411,"SoundDuration":279411,"Delta":112059486},{"NoteNumber":75,"Velocity":49,"Duration":875506,"SoundDuration":875506,"Delta":112059486},{"NoteNumber":70,"Velocity":37,"Duration":279411,"SoundDuration":279411,"Delta":112059486},{"NoteNumber":55,"Velocity":11,"Duration":279411,"SoundDuration":279411,"Delta":112059486},{"NoteNumber":58,"Velocity":13,"Duration":279411,"SoundDuration":279411,"Delta":112059486},{"NoteNumber":61,"Velocity":15,"Duration":279411,"SoundDuration":279411,"Delta":112059486},{"NoteNumber":67,"Velocity":19,"Duration":279411,"SoundDuration":279411,"Delta":112059486},{"NoteNumber":70,"Velocity":37,"Duration":270142,"SoundDuration":270142,"Delta":112353603},{"NoteNumber":63,"Velocity":31,"Duration":270142,"SoundDuration":270142,"Delta":112353603},{"NoteNumber":55,"Velocity":11,"Duration":270142,"SoundDuration":270142,"Delta":112353603},{"NoteNumber":58,"Velocity":13,"Duration":270142,"SoundDuration":270142,"Delta":112353603},{"NoteNumber":61,"Velocity":15,"Duration":270142,"SoundDuration":270142,"Delta":112353603},{"NoteNumber":67,"Velocity":19,"Duration":270142,"SoundDuration":270142,"Delta":112353603},{"NoteNumber":70,"Velocity":37,"Duration":282178,"SoundDuration":282178,"Delta":112637963},{"NoteNumber":63,"Velocity":31,"Duration":282178,"SoundDuration":282178,"Delta":112637963},{"NoteNumber":55,"Velocity":12,"Duration":282178,"SoundDuration":282178,"Delta":112637963},{"NoteNumber":58,"Velocity":14,"Duration":282178,"SoundDuration":282178,"Delta":112637963},{"NoteNumber":61,"Velocity":16,"Duration":282178,"SoundDuration":282178,"Delta":112637963},{"NoteNumber":67,"Velocity":20,"Duration":282178,"SoundDuration":282178,"Delta":112637963},{"NoteNumber":73,"Velocity":37,"Duration":270142,"SoundDuration":270142,"Delta":112934993},{"NoteNumber":65,"Velocity":31,"Duration":270142,"SoundDuration":270142,"Delta":112934993},{"NoteNumber":77,"Velocity":48,"Duration":880902,"SoundDuration":880902,"Delta":112934993},{"NoteNumber":56,"Velocity":12,"Duration":270142,"SoundDuration":270142,"Delta":112934993},{"NoteNumber":61,"Velocity":16,"Duration":270142,"SoundDuration":270142,"Delta":112934993},{"NoteNumber":68,"Velocity":20,"Duration":270142,"SoundDuration":270142,"Delta":112934993},{"NoteNumber":65,"Velocity":31,"Duration":275362,"SoundDuration":275362,"Delta":113219353},{"NoteNumber":73,"Velocity":37,"Duration":275362,"SoundDuration":275362,"Delta":113219353},{"NoteNumber":56,"Velocity":12,"Duration":275362,"SoundDuration":275362,"Delta":113219353},{"NoteNumber":61,"Velocity":16,"Duration":275362,"SoundDuration":275362,"Delta":113219353},{"NoteNumber":68,"Velocity":20,"Duration":275362,"SoundDuration":275362,"Delta":113219353},{"NoteNumber":65,"Velocity":30,"Duration":290511,"SoundDuration":290511,"Delta":113509208},{"NoteNumber":73,"Velocity":36,"Duration":290511,"SoundDuration":290511,"Delta":113509208},{"NoteNumber":56,"Velocity":12,"Duration":290511,"SoundDuration":290511,"Delta":113509208},{"NoteNumber":61,"Velocity":16,"Duration":290511,"SoundDuration":290511,"Delta":113509208},{"NoteNumber":68,"Velocity":20,"Duration":290511,"SoundDuration":290511,"Delta":113509208},{"NoteNumber":32,"Velocity":57,"Duration":1676785,"SoundDuration":1676785,"Delta":113815895},{"NoteNumber":63,"Velocity":33,"Duration":257638,"SoundDuration":257638,"Delta":114139415},{"NoteNumber":70,"Velocity":41,"Duration":257638,"SoundDuration":257638,"Delta":114139415},{"NoteNumber":55,"Velocity":13,"Duration":257638,"SoundDuration":257638,"Delta":114139415},{"NoteNumber":58,"Velocity":18,"Duration":257638,"SoundDuration":257638,"Delta":114139415},{"NoteNumber":67,"Velocity":22,"Duration":257638,"SoundDuration":257638,"Delta":114139415},{"NoteNumber":75,"Velocity":44,"Duration":254851,"SoundDuration":254851,"Delta":114410614},{"NoteNumber":70,"Velocity":33,"Duration":254851,"SoundDuration":254851,"Delta":114410614},{"NoteNumber":55,"Velocity":13,"Duration":254851,"SoundDuration":254851,"Delta":114410614},{"NoteNumber":58,"Velocity":18,"Duration":254851,"SoundDuration":254851,"Delta":114410614},{"NoteNumber":67,"Velocity":22,"Duration":254851,"SoundDuration":254851,"Delta":114410614},{"NoteNumber":79,"Velocity":47,"Duration":247761,"SoundDuration":247761,"Delta":114678878},{"NoteNumber":70,"Velocity":34,"Duration":247761,"SoundDuration":247761,"Delta":114678878},{"NoteNumber":63,"Velocity":20,"Duration":247761,"SoundDuration":247761,"Delta":114678878},{"NoteNumber":55,"Velocity":14,"Duration":247761,"SoundDuration":247761,"Delta":114678878},{"NoteNumber":58,"Velocity":14,"Duration":247761,"SoundDuration":247761,"Delta":114678878},{"NoteNumber":61,"Velocity":20,"Duration":247761,"SoundDuration":247761,"Delta":114678878},{"NoteNumber":67,"Velocity":23,"Duration":247761,"SoundDuration":247761,"Delta":114678878},{"NoteNumber":77,"Velocity":42,"Duration":253041,"SoundDuration":253041,"Delta":114939680},{"NoteNumber":70,"Velocity":31,"Duration":253041,"SoundDuration":253041,"Delta":114939680},{"NoteNumber":63,"Velocity":18,"Duration":253041,"SoundDuration":253041,"Delta":114939680},{"NoteNumber":55,"Velocity":13,"Duration":253041,"SoundDuration":253041,"Delta":114939680},{"NoteNumber":58,"Velocity":13,"Duration":253041,"SoundDuration":253041,"Delta":114939680},{"NoteNumber":61,"Velocity":18,"Duration":253041,"SoundDuration":253041,"Delta":114939680},{"NoteNumber":67,"Velocity":22,"Duration":253041,"SoundDuration":253041,"Delta":114939680},{"NoteNumber":73,"Velocity":42,"Duration":272310,"SoundDuration":272310,"Delta":115206039},{"NoteNumber":70,"Velocity":31,"Duration":272310,"SoundDuration":272310,"Delta":115206039},{"NoteNumber":63,"Velocity":18,"Duration":272310,"SoundDuration":272310,"Delta":115206039},{"NoteNumber":55,"Velocity":13,"Duration":272310,"SoundDuration":272310,"Delta":115206039},{"NoteNumber":58,"Velocity":13,"Duration":272310,"SoundDuration":272310,"Delta":115206039},{"NoteNumber":61,"Velocity":18,"Duration":272310,"SoundDuration":272310,"Delta":115206039},{"NoteNumber":67,"Velocity":22,"Duration":272310,"SoundDuration":272310,"Delta":115206039},{"NoteNumber":68,"Velocity":34,"Duration":278048,"SoundDuration":278048,"Delta":115492681},{"NoteNumber":63,"Velocity":28,"Duration":278048,"SoundDuration":278048,"Delta":115492681},{"NoteNumber":72,"Velocity":49,"Duration":880073,"SoundDuration":880073,"Delta":115492681},{"NoteNumber":56,"Velocity":13,"Duration":278048,"SoundDuration":278048,"Delta":115492681},{"NoteNumber":60,"Velocity":15,"Duration":278048,"SoundDuration":278048,"Delta":115492681},{"NoteNumber":66,"Velocity":19,"Duration":278048,"SoundDuration":278048,"Delta":115492681},{"NoteNumber":63,"Velocity":28,"Duration":270142,"SoundDuration":270142,"Delta":115785364},{"NoteNumber":68,"Velocity":34,"Duration":270142,"SoundDuration":270142,"Delta":115785364},{"NoteNumber":56,"Velocity":13,"Duration":270142,"SoundDuration":270142,"Delta":115785364},{"NoteNumber":60,"Velocity":15,"Duration":270142,"SoundDuration":270142,"Delta":115785364},{"NoteNumber":66,"Velocity":19,"Duration":270142,"SoundDuration":270142,"Delta":115785364},{"NoteNumber":63,"Velocity":28,"Duration":287878,"SoundDuration":287878,"Delta":116069724},{"NoteNumber":68,"Velocity":34,"Duration":287878,"SoundDuration":287878,"Delta":116069724},{"NoteNumber":56,"Velocity":13,"Duration":287878,"SoundDuration":287878,"Delta":116069724},{"NoteNumber":60,"Velocity":16,"Duration":287878,"SoundDuration":287878,"Delta":116069724},{"NoteNumber":66,"Velocity":20,"Duration":287878,"SoundDuration":287878,"Delta":116069724},{"NoteNumber":61,"Velocity":28,"Duration":278048,"SoundDuration":278048,"Delta":116372755},{"NoteNumber":73,"Velocity":48,"Duration":909598,"SoundDuration":909598,"Delta":116372755},{"NoteNumber":68,"Velocity":34,"Duration":278048,"SoundDuration":278048,"Delta":116372755},{"NoteNumber":53,"Velocity":13,"Duration":278048,"SoundDuration":278048,"Delta":116372755},{"NoteNumber":56,"Velocity":15,"Duration":278048,"SoundDuration":278048,"Delta":116372755},{"NoteNumber":65,"Velocity":17,"Duration":278048,"SoundDuration":278048,"Delta":116372755},{"NoteNumber":68,"Velocity":34,"Duration":286432,"SoundDuration":286432,"Delta":116665438},{"NoteNumber":61,"Velocity":28,"Duration":286432,"SoundDuration":286432,"Delta":116665438},{"NoteNumber":53,"Velocity":13,"Duration":286432,"SoundDuration":286432,"Delta":116665438},{"NoteNumber":56,"Velocity":15,"Duration":286432,"SoundDuration":286432,"Delta":116665438},{"NoteNumber":65,"Velocity":17,"Duration":286432,"SoundDuration":286432,"Delta":116665438},{"NoteNumber":68,"Velocity":32,"Duration":298942,"SoundDuration":298942,"Delta":116966945},{"NoteNumber":61,"Velocity":27,"Duration":298942,"SoundDuration":298942,"Delta":116966945},{"NoteNumber":53,"Velocity":13,"Duration":298942,"SoundDuration":298942,"Delta":116966945},{"NoteNumber":56,"Velocity":15,"Duration":298942,"SoundDuration":298942,"Delta":116966945},{"NoteNumber":65,"Velocity":17,"Duration":298942,"SoundDuration":298942,"Delta":116966945},{"NoteNumber":32,"Velocity":58,"Duration":1698338,"SoundDuration":1698338,"Delta":117282353},{"NoteNumber":61,"Velocity":34,"Duration":257638,"SoundDuration":257638,"Delta":117613625},{"NoteNumber":51,"Velocity":18,"Duration":257638,"SoundDuration":257638,"Delta":117613625},{"NoteNumber":56,"Velocity":18,"Duration":257638,"SoundDuration":257638,"Delta":117613625},{"NoteNumber":63,"Velocity":22,"Duration":257638,"SoundDuration":257638,"Delta":117613625},{"NoteNumber":61,"Velocity":27,"Duration":258550,"SoundDuration":258550,"Delta":117884824},{"NoteNumber":70,"Velocity":44,"Duration":258550,"SoundDuration":258550,"Delta":117884824},{"NoteNumber":51,"Velocity":18,"Duration":258550,"SoundDuration":258550,"Delta":117884824},{"NoteNumber":56,"Velocity":18,"Duration":258550,"SoundDuration":258550,"Delta":117884824},{"NoteNumber":63,"Velocity":22,"Duration":258550,"SoundDuration":258550,"Delta":117884824},{"NoteNumber":73,"Velocity":47,"Duration":247761,"SoundDuration":247761,"Delta":118156982},{"NoteNumber":60,"Velocity":26,"Duration":247761,"SoundDuration":247761,"Delta":118156982},{"NoteNumber":68,"Velocity":31,"Duration":247761,"SoundDuration":247761,"Delta":118156982},{"NoteNumber":51,"Velocity":15,"Duration":247761,"SoundDuration":247761,"Delta":118156982},{"NoteNumber":56,"Velocity":18,"Duration":247761,"SoundDuration":247761,"Delta":118156982},{"NoteNumber":63,"Velocity":22,"Duration":247761,"SoundDuration":247761,"Delta":118156982},{"NoteNumber":68,"Velocity":31,"Duration":256687,"SoundDuration":256687,"Delta":118417783},{"NoteNumber":60,"Velocity":26,"Duration":256687,"SoundDuration":256687,"Delta":118417783},{"NoteNumber":72,"Velocity":42,"Duration":256687,"SoundDuration":256687,"Delta":118417783},{"NoteNumber":51,"Velocity":15,"Duration":256687,"SoundDuration":256687,"Delta":118417783},{"NoteNumber":56,"Velocity":18,"Duration":256687,"SoundDuration":256687,"Delta":118417783},{"NoteNumber":63,"Velocity":22,"Duration":256687,"SoundDuration":256687,"Delta":118417783},{"NoteNumber":60,"Velocity":23,"Duration":278075,"SoundDuration":278075,"Delta":118687980},{"NoteNumber":68,"Velocity":39,"Duration":278075,"SoundDuration":278075,"Delta":118687980},{"NoteNumber":65,"Velocity":28,"Duration":278075,"SoundDuration":278075,"Delta":118687980},{"NoteNumber":51,"Velocity":14,"Duration":278075,"SoundDuration":278075,"Delta":118687980},{"NoteNumber":56,"Velocity":16,"Duration":278075,"SoundDuration":278075,"Delta":118687980},{"NoteNumber":63,"Velocity":20,"Duration":278075,"SoundDuration":278075,"Delta":118687980},{"NoteNumber":67,"Velocity":32,"Duration":272310,"SoundDuration":272310,"Delta":118980692},{"NoteNumber":58,"Velocity":27,"Duration":272310,"SoundDuration":272310,"Delta":118980692},{"NoteNumber":70,"Velocity":45,"Duration":1719470,"SoundDuration":1719470,"Delta":118980692},{"NoteNumber":51,"Velocity":16,"Duration":272310,"SoundDuration":272310,"Delta":118980692},{"NoteNumber":63,"Velocity":20,"Duration":272310,"SoundDuration":272310,"Delta":118980692},{"NoteNumber":58,"Velocity":27,"Duration":261468,"SoundDuration":261468,"Delta":119267334},{"NoteNumber":67,"Velocity":32,"Duration":261468,"SoundDuration":261468,"Delta":119267334},{"NoteNumber":51,"Velocity":16,"Duration":261468,"SoundDuration":261468,"Delta":119267334},{"NoteNumber":63,"Velocity":20,"Duration":261468,"SoundDuration":261468,"Delta":119267334},{"NoteNumber":58,"Velocity":26,"Duration":261196,"SoundDuration":261196,"Delta":119542564},{"NoteNumber":67,"Velocity":30,"Duration":261196,"SoundDuration":261196,"Delta":119542564},{"NoteNumber":51,"Velocity":15,"Duration":261196,"SoundDuration":261196,"Delta":119542564},{"NoteNumber":63,"Velocity":18,"Duration":261196,"SoundDuration":261196,"Delta":119542564},{"NoteNumber":58,"Velocity":27,"Duration":264409,"SoundDuration":264409,"Delta":119817586},{"NoteNumber":67,"Velocity":32,"Duration":264409,"SoundDuration":264409,"Delta":119817586},{"NoteNumber":51,"Velocity":16,"Duration":264409,"SoundDuration":264409,"Delta":119817586},{"NoteNumber":63,"Velocity":20,"Duration":264409,"SoundDuration":264409,"Delta":119817586},{"NoteNumber":58,"Velocity":25,"Duration":268140,"SoundDuration":268140,"Delta":120096014},{"NoteNumber":67,"Velocity":30,"Duration":268140,"SoundDuration":268140,"Delta":120096014},{"NoteNumber":51,"Velocity":15,"Duration":268140,"SoundDuration":268140,"Delta":120096014},{"NoteNumber":63,"Velocity":18,"Duration":268140,"SoundDuration":268140,"Delta":120096014},{"NoteNumber":58,"Velocity":25,"Duration":304169,"SoundDuration":304169,"Delta":120378372},{"NoteNumber":67,"Velocity":30,"Duration":304169,"SoundDuration":304169,"Delta":120378372},{"NoteNumber":51,"Velocity":15,"Duration":304169,"SoundDuration":304169,"Delta":120378372},{"NoteNumber":63,"Velocity":18,"Duration":304169,"SoundDuration":304169,"Delta":120378372},{"NoteNumber":32,"Velocity":62,"Duration":1712805,"SoundDuration":1712805,"Delta":120700162},{"NoteNumber":70,"Velocity":39,"Duration":256387,"SoundDuration":256387,"Delta":121048109},{"NoteNumber":67,"Velocity":38,"Duration":256387,"SoundDuration":256387,"Delta":121048109},{"NoteNumber":61,"Velocity":28,"Duration":256387,"SoundDuration":256387,"Delta":121048109},{"NoteNumber":51,"Velocity":17,"Duration":256387,"SoundDuration":256387,"Delta":121048109},{"NoteNumber":63,"Velocity":22,"Duration":256387,"SoundDuration":256387,"Delta":121048109},{"NoteNumber":61,"Velocity":30,"Duration":260887,"SoundDuration":260887,"Delta":121317991},{"NoteNumber":67,"Velocity":30,"Duration":260887,"SoundDuration":260887,"Delta":121317991},{"NoteNumber":72,"Velocity":41,"Duration":260887,"SoundDuration":260887,"Delta":121317991},{"NoteNumber":51,"Velocity":18,"Duration":260887,"SoundDuration":260887,"Delta":121317991},{"NoteNumber":63,"Velocity":22,"Duration":260887,"SoundDuration":260887,"Delta":121317991},{"NoteNumber":73,"Velocity":42,"Duration":249496,"SoundDuration":249496,"Delta":121592640},{"NoteNumber":67,"Velocity":31,"Duration":249496,"SoundDuration":249496,"Delta":121592640},{"NoteNumber":61,"Velocity":31,"Duration":249496,"SoundDuration":249496,"Delta":121592640},{"NoteNumber":51,"Velocity":20,"Duration":249496,"SoundDuration":249496,"Delta":121592640},{"NoteNumber":63,"Velocity":24,"Duration":249496,"SoundDuration":249496,"Delta":121592640},{"NoteNumber":65,"Velocity":40,"Duration":258902,"SoundDuration":258902,"Delta":121855268},{"NoteNumber":61,"Velocity":29,"Duration":258902,"SoundDuration":258902,"Delta":121855268},{"NoteNumber":51,"Velocity":18,"Duration":258902,"SoundDuration":258902,"Delta":121855268},{"NoteNumber":63,"Velocity":22,"Duration":258902,"SoundDuration":258902,"Delta":121855268},{"NoteNumber":67,"Velocity":39,"Duration":270912,"SoundDuration":270912,"Delta":122127797},{"NoteNumber":61,"Velocity":28,"Duration":270912,"SoundDuration":270912,"Delta":122127797},{"NoteNumber":51,"Velocity":18,"Duration":270912,"SoundDuration":270912,"Delta":122127797},{"NoteNumber":63,"Velocity":22,"Duration":270912,"SoundDuration":270912,"Delta":122127797},{"NoteNumber":66,"Velocity":24,"Duration":281065,"SoundDuration":281065,"Delta":122412968},{"NoteNumber":61,"Velocity":20,"Duration":281065,"SoundDuration":281065,"Delta":122412968},{"NoteNumber":70,"Velocity":42,"Duration":835608,"SoundDuration":835608,"Delta":122412968},{"NoteNumber":51,"Velocity":15,"Duration":281065,"SoundDuration":281065,"Delta":122412968},{"NoteNumber":56,"Velocity":17,"Duration":281065,"SoundDuration":281065,"Delta":122412968},{"NoteNumber":63,"Velocity":21,"Duration":281065,"SoundDuration":281065,"Delta":122412968},{"NoteNumber":61,"Velocity":20,"Duration":255124,"SoundDuration":255124,"Delta":122708826},{"NoteNumber":66,"Velocity":24,"Duration":255124,"SoundDuration":255124,"Delta":122708826},{"NoteNumber":51,"Velocity":15,"Duration":255124,"SoundDuration":255124,"Delta":122708826},{"NoteNumber":56,"Velocity":17,"Duration":255124,"SoundDuration":255124,"Delta":122708826},{"NoteNumber":63,"Velocity":21,"Duration":255124,"SoundDuration":255124,"Delta":122708826},{"NoteNumber":61,"Velocity":20,"Duration":257638,"SoundDuration":257638,"Delta":122977378},{"NoteNumber":66,"Velocity":24,"Duration":257638,"SoundDuration":257638,"Delta":122977378},{"NoteNumber":51,"Velocity":15,"Duration":257638,"SoundDuration":257638,"Delta":122977378},{"NoteNumber":56,"Velocity":17,"Duration":257638,"SoundDuration":257638,"Delta":122977378},{"NoteNumber":63,"Velocity":21,"Duration":257638,"SoundDuration":257638,"Delta":122977378},{"NoteNumber":60,"Velocity":23,"Duration":257638,"SoundDuration":257638,"Delta":123248577},{"NoteNumber":68,"Velocity":43,"Duration":865204,"SoundDuration":865204,"Delta":123248577},{"NoteNumber":66,"Velocity":28,"Duration":257638,"SoundDuration":257638,"Delta":123248577},{"NoteNumber":51,"Velocity":15,"Duration":257638,"SoundDuration":257638,"Delta":123248577},{"NoteNumber":56,"Velocity":20,"Duration":257638,"SoundDuration":257638,"Delta":123248577},{"NoteNumber":63,"Velocity":25,"Duration":257638,"SoundDuration":257638,"Delta":123248577},{"NoteNumber":66,"Velocity":24,"Duration":268159,"SoundDuration":268159,"Delta":123519775},{"NoteNumber":60,"Velocity":20,"Duration":268159,"SoundDuration":268159,"Delta":123519775},{"NoteNumber":51,"Velocity":15,"Duration":268159,"SoundDuration":268159,"Delta":123519775},{"NoteNumber":56,"Velocity":17,"Duration":268159,"SoundDuration":268159,"Delta":123519775},{"NoteNumber":63,"Velocity":21,"Duration":268159,"SoundDuration":268159,"Delta":123519775},{"NoteNumber":66,"Velocity":24,"Duration":294967,"SoundDuration":294967,"Delta":123802048},{"NoteNumber":60,"Velocity":20,"Duration":294967,"SoundDuration":294967,"Delta":123802048},{"NoteNumber":51,"Velocity":15,"Duration":294967,"SoundDuration":294967,"Delta":123802048},{"NoteNumber":56,"Velocity":17,"Duration":294967,"SoundDuration":294967,"Delta":123802048},{"NoteNumber":63,"Velocity":21,"Duration":294967,"SoundDuration":294967,"Delta":123802048},{"NoteNumber":32,"Velocity":56,"Duration":1695527,"SoundDuration":1695527,"Delta":124113781},{"NoteNumber":73,"Velocity":42,"Duration":257638,"SoundDuration":257638,"Delta":124447040},{"NoteNumber":68,"Velocity":31,"Duration":257638,"SoundDuration":257638,"Delta":124447040},{"NoteNumber":53,"Velocity":11,"Duration":257638,"SoundDuration":257638,"Delta":124447040},{"NoteNumber":56,"Velocity":12,"Duration":257638,"SoundDuration":257638,"Delta":124447040},{"NoteNumber":61,"Velocity":18,"Duration":257638,"SoundDuration":257638,"Delta":124447040},{"NoteNumber":65,"Velocity":22,"Duration":257638,"SoundDuration":257638,"Delta":124447040},{"NoteNumber":68,"Velocity":28,"Duration":261468,"SoundDuration":261468,"Delta":124718239},{"NoteNumber":73,"Velocity":33,"Duration":261468,"SoundDuration":261468,"Delta":124718239},{"NoteNumber":79,"Velocity":45,"Duration":261468,"SoundDuration":261468,"Delta":124718239},{"NoteNumber":53,"Velocity":11,"Duration":261468,"SoundDuration":261468,"Delta":124718239},{"NoteNumber":56,"Velocity":12,"Duration":261468,"SoundDuration":261468,"Delta":124718239},{"NoteNumber":61,"Velocity":18,"Duration":261468,"SoundDuration":261468,"Delta":124718239},{"NoteNumber":65,"Velocity":22,"Duration":261468,"SoundDuration":261468,"Delta":124718239},{"NoteNumber":73,"Velocity":34,"Duration":246050,"SoundDuration":246050,"Delta":124993468},{"NoteNumber":68,"Velocity":28,"Duration":246050,"SoundDuration":246050,"Delta":124993468},{"NoteNumber":82,"Velocity":47,"Duration":246050,"SoundDuration":246050,"Delta":124993468},{"NoteNumber":53,"Velocity":11,"Duration":246050,"SoundDuration":246050,"Delta":124993468},{"NoteNumber":56,"Velocity":13,"Duration":246050,"SoundDuration":246050,"Delta":124993468},{"NoteNumber":61,"Velocity":20,"Duration":246050,"SoundDuration":246050,"Delta":124993468},{"NoteNumber":65,"Velocity":25,"Duration":246050,"SoundDuration":246050,"Delta":124993468},{"NoteNumber":68,"Velocity":27,"Duration":256687,"SoundDuration":256687,"Delta":125252469},{"NoteNumber":80,"Velocity":45,"Duration":256687,"SoundDuration":256687,"Delta":125252469},{"NoteNumber":73,"Velocity":32,"Duration":256687,"SoundDuration":256687,"Delta":125252469},{"NoteNumber":53,"Velocity":11,"Duration":256687,"SoundDuration":256687,"Delta":125252469},{"NoteNumber":56,"Velocity":12,"Duration":256687,"SoundDuration":256687,"Delta":125252469},{"NoteNumber":61,"Velocity":18,"Duration":256687,"SoundDuration":256687,"Delta":125252469},{"NoteNumber":65,"Velocity":22,"Duration":256687,"SoundDuration":256687,"Delta":125252469},{"NoteNumber":68,"Velocity":27,"Duration":272310,"SoundDuration":272310,"Delta":125522666},{"NoteNumber":73,"Velocity":32,"Duration":272310,"SoundDuration":272310,"Delta":125522666},{"NoteNumber":77,"Velocity":45,"Duration":272310,"SoundDuration":272310,"Delta":125522666},{"NoteNumber":53,"Velocity":11,"Duration":272310,"SoundDuration":272310,"Delta":125522666},{"NoteNumber":56,"Velocity":12,"Duration":272310,"SoundDuration":272310,"Delta":125522666},{"NoteNumber":61,"Velocity":18,"Duration":272310,"SoundDuration":272310,"Delta":125522666},{"NoteNumber":65,"Velocity":22,"Duration":272310,"SoundDuration":272310,"Delta":125522666},{"NoteNumber":63,"Velocity":30,"Duration":280788,"SoundDuration":280788,"Delta":125809308},{"NoteNumber":75,"Velocity":51,"Duration":877913,"SoundDuration":877913,"Delta":125809308},{"NoteNumber":70,"Velocity":37,"Duration":280788,"SoundDuration":280788,"Delta":125809308},{"NoteNumber":55,"Velocity":11,"Duration":280788,"SoundDuration":280788,"Delta":125809308},{"NoteNumber":58,"Velocity":12,"Duration":280788,"SoundDuration":280788,"Delta":125809308},{"NoteNumber":61,"Velocity":15,"Duration":280788,"SoundDuration":280788,"Delta":125809308},{"NoteNumber":67,"Velocity":17,"Duration":280788,"SoundDuration":280788,"Delta":125809308},{"NoteNumber":70,"Velocity":37,"Duration":263889,"SoundDuration":263889,"Delta":126104875},{"NoteNumber":63,"Velocity":30,"Duration":263889,"SoundDuration":263889,"Delta":126104875},{"NoteNumber":55,"Velocity":11,"Duration":263889,"SoundDuration":263889,"Delta":126104875},{"NoteNumber":58,"Velocity":12,"Duration":263889,"SoundDuration":263889,"Delta":126104875},{"NoteNumber":61,"Velocity":15,"Duration":263889,"SoundDuration":263889,"Delta":126104875},{"NoteNumber":67,"Velocity":17,"Duration":263889,"SoundDuration":263889,"Delta":126104875},{"NoteNumber":70,"Velocity":37,"Duration":289340,"SoundDuration":289340,"Delta":126382653},{"NoteNumber":63,"Velocity":30,"Duration":289340,"SoundDuration":289340,"Delta":126382653},{"NoteNumber":55,"Velocity":11,"Duration":289340,"SoundDuration":289340,"Delta":126382653},{"NoteNumber":58,"Velocity":12,"Duration":289340,"SoundDuration":289340,"Delta":126382653},{"NoteNumber":61,"Velocity":15,"Duration":289340,"SoundDuration":289340,"Delta":126382653},{"NoteNumber":67,"Velocity":18,"Duration":289340,"SoundDuration":289340,"Delta":126382653},{"NoteNumber":73,"Velocity":37,"Duration":269886,"SoundDuration":269886,"Delta":126687221},{"NoteNumber":65,"Velocity":30,"Duration":269886,"SoundDuration":269886,"Delta":126687221},{"NoteNumber":77,"Velocity":49,"Duration":894070,"SoundDuration":894070,"Delta":126687221},{"NoteNumber":56,"Velocity":13,"Duration":269886,"SoundDuration":269886,"Delta":126687221},{"NoteNumber":61,"Velocity":15,"Duration":269886,"SoundDuration":269886,"Delta":126687221},{"NoteNumber":68,"Velocity":18,"Duration":269886,"SoundDuration":269886,"Delta":126687221},{"NoteNumber":65,"Velocity":30,"Duration":280788,"SoundDuration":280788,"Delta":126971312},{"NoteNumber":73,"Velocity":37,"Duration":280788,"SoundDuration":280788,"Delta":126971312},{"NoteNumber":56,"Velocity":11,"Duration":280788,"SoundDuration":280788,"Delta":126971312},{"NoteNumber":61,"Velocity":15,"Duration":280788,"SoundDuration":280788,"Delta":126971312},{"NoteNumber":68,"Velocity":18,"Duration":280788,"SoundDuration":280788,"Delta":126971312},{"NoteNumber":65,"Velocity":28,"Duration":297750,"SoundDuration":297750,"Delta":127266879},{"NoteNumber":73,"Velocity":34,"Duration":297750,"SoundDuration":297750,"Delta":127266879},{"NoteNumber":56,"Velocity":11,"Duration":297750,"SoundDuration":297750,"Delta":127266879},{"NoteNumber":61,"Velocity":15,"Duration":297750,"SoundDuration":297750,"Delta":127266879},{"NoteNumber":68,"Velocity":18,"Duration":297750,"SoundDuration":297750,"Delta":127266879},{"NoteNumber":32,"Velocity":57,"Duration":1701148,"SoundDuration":1701148,"Delta":127581292},{"NoteNumber":63,"Velocity":28,"Duration":257638,"SoundDuration":257638,"Delta":127936321},{"NoteNumber":70,"Velocity":42,"Duration":257638,"SoundDuration":257638,"Delta":127936321},{"NoteNumber":55,"Velocity":13,"Duration":257638,"SoundDuration":257638,"Delta":127936321},{"NoteNumber":58,"Velocity":18,"Duration":257638,"SoundDuration":257638,"Delta":127936321},{"NoteNumber":67,"Velocity":22,"Duration":257638,"SoundDuration":257638,"Delta":127936321},{"NoteNumber":63,"Velocity":28,"Duration":251256,"SoundDuration":251256,"Delta":128207520},{"NoteNumber":75,"Velocity":45,"Duration":251256,"SoundDuration":251256,"Delta":128207520},{"NoteNumber":70,"Velocity":33,"Duration":251256,"SoundDuration":251256,"Delta":128207520},{"NoteNumber":55,"Velocity":13,"Duration":251256,"SoundDuration":251256,"Delta":128207520},{"NoteNumber":58,"Velocity":18,"Duration":251256,"SoundDuration":251256,"Delta":128207520},{"NoteNumber":67,"Velocity":22,"Duration":251256,"SoundDuration":251256,"Delta":128207520},{"NoteNumber":79,"Velocity":48,"Duration":244362,"SoundDuration":244362,"Delta":128472000},{"NoteNumber":70,"Velocity":36,"Duration":244362,"SoundDuration":244362,"Delta":128472000},{"NoteNumber":61,"Velocity":18,"Duration":244362,"SoundDuration":244362,"Delta":128472000},{"NoteNumber":63,"Velocity":18,"Duration":244362,"SoundDuration":244362,"Delta":128472000},{"NoteNumber":55,"Velocity":14,"Duration":244362,"SoundDuration":244362,"Delta":128472000},{"NoteNumber":58,"Velocity":20,"Duration":244362,"SoundDuration":244362,"Delta":128472000},{"NoteNumber":67,"Velocity":25,"Duration":244362,"SoundDuration":244362,"Delta":128472000},{"NoteNumber":77,"Velocity":45,"Duration":256687,"SoundDuration":256687,"Delta":128729224},{"NoteNumber":70,"Velocity":32,"Duration":256687,"SoundDuration":256687,"Delta":128729224},{"NoteNumber":61,"Velocity":18,"Duration":256687,"SoundDuration":256687,"Delta":128729224},{"NoteNumber":63,"Velocity":18,"Duration":256687,"SoundDuration":256687,"Delta":128729224},{"NoteNumber":55,"Velocity":13,"Duration":256687,"SoundDuration":256687,"Delta":128729224},{"NoteNumber":58,"Velocity":18,"Duration":256687,"SoundDuration":256687,"Delta":128729224},{"NoteNumber":67,"Velocity":22,"Duration":256687,"SoundDuration":256687,"Delta":128729224},{"NoteNumber":73,"Velocity":45,"Duration":268868,"SoundDuration":268868,"Delta":128999421},{"NoteNumber":70,"Velocity":32,"Duration":268868,"SoundDuration":268868,"Delta":128999421},{"NoteNumber":61,"Velocity":18,"Duration":268868,"SoundDuration":268868,"Delta":128999421},{"NoteNumber":63,"Velocity":18,"Duration":268868,"SoundDuration":268868,"Delta":128999421},{"NoteNumber":55,"Velocity":13,"Duration":268868,"SoundDuration":268868,"Delta":128999421},{"NoteNumber":58,"Velocity":18,"Duration":268868,"SoundDuration":268868,"Delta":128999421},{"NoteNumber":67,"Velocity":22,"Duration":268868,"SoundDuration":268868,"Delta":128999421},{"NoteNumber":68,"Velocity":33,"Duration":280788,"SoundDuration":280788,"Delta":129282440},{"NoteNumber":63,"Velocity":28,"Duration":280788,"SoundDuration":280788,"Delta":129282440},{"NoteNumber":72,"Velocity":47,"Duration":895417,"SoundDuration":895417,"Delta":129282440},{"NoteNumber":56,"Velocity":13,"Duration":280788,"SoundDuration":280788,"Delta":129282440},{"NoteNumber":60,"Velocity":15,"Duration":280788,"SoundDuration":280788,"Delta":129282440},{"NoteNumber":66,"Velocity":17,"Duration":280788,"SoundDuration":280788,"Delta":129282440},{"NoteNumber":63,"Velocity":28,"Duration":271428,"SoundDuration":271428,"Delta":129578006},{"NoteNumber":68,"Velocity":33,"Duration":271428,"SoundDuration":271428,"Delta":129578006},{"NoteNumber":56,"Velocity":13,"Duration":271428,"SoundDuration":271428,"Delta":129578006},{"NoteNumber":60,"Velocity":15,"Duration":271428,"SoundDuration":271428,"Delta":129578006},{"NoteNumber":66,"Velocity":17,"Duration":271428,"SoundDuration":271428,"Delta":129578006},{"NoteNumber":63,"Velocity":28,"Duration":298429,"SoundDuration":298429,"Delta":129863721},{"NoteNumber":68,"Velocity":33,"Duration":298429,"SoundDuration":298429,"Delta":129863721},{"NoteNumber":56,"Velocity":13,"Duration":298429,"SoundDuration":298429,"Delta":129863721},{"NoteNumber":60,"Velocity":15,"Duration":298429,"SoundDuration":298429,"Delta":129863721},{"NoteNumber":66,"Velocity":18,"Duration":298429,"SoundDuration":298429,"Delta":129863721},{"NoteNumber":61,"Velocity":28,"Duration":284999,"SoundDuration":284999,"Delta":130177857},{"NoteNumber":73,"Velocity":47,"Duration":925677,"SoundDuration":925677,"Delta":130177857},{"NoteNumber":68,"Velocity":33,"Duration":284999,"SoundDuration":284999,"Delta":130177857},{"NoteNumber":53,"Velocity":13,"Duration":284999,"SoundDuration":284999,"Delta":130177857},{"NoteNumber":56,"Velocity":15,"Duration":284999,"SoundDuration":284999,"Delta":130177857},{"NoteNumber":65,"Velocity":18,"Duration":284999,"SoundDuration":284999,"Delta":130177857},{"NoteNumber":68,"Velocity":31,"Duration":293814,"SoundDuration":293814,"Delta":130477857},{"NoteNumber":61,"Velocity":26,"Duration":293814,"SoundDuration":293814,"Delta":130477857},{"NoteNumber":53,"Velocity":12,"Duration":293814,"SoundDuration":293814,"Delta":130477857},{"NoteNumber":56,"Velocity":14,"Duration":293814,"SoundDuration":293814,"Delta":130477857},{"NoteNumber":65,"Velocity":17,"Duration":293814,"SoundDuration":293814,"Delta":130477857},{"NoteNumber":68,"Velocity":27,"Duration":300223,"SoundDuration":300223,"Delta":130787135},{"NoteNumber":61,"Velocity":22,"Duration":300223,"SoundDuration":300223,"Delta":130787135},{"NoteNumber":53,"Velocity":11,"Duration":300223,"SoundDuration":300223,"Delta":130787135},{"NoteNumber":56,"Velocity":13,"Duration":300223,"SoundDuration":300223,"Delta":130787135},{"NoteNumber":65,"Velocity":16,"Duration":300223,"SoundDuration":300223,"Delta":130787135},{"NoteNumber":32,"Velocity":56,"Duration":1755170,"SoundDuration":1755170,"Delta":131103534},{"NoteNumber":61,"Velocity":38,"Duration":262672,"SoundDuration":262672,"Delta":131446391},{"NoteNumber":52,"Velocity":14,"Duration":262672,"SoundDuration":262672,"Delta":131446391},{"NoteNumber":56,"Velocity":16,"Duration":262672,"SoundDuration":262672,"Delta":131446391},{"NoteNumber":64,"Velocity":20,"Duration":262672,"SoundDuration":262672,"Delta":131446391},{"NoteNumber":61,"Velocity":25,"Duration":262358,"SoundDuration":262358,"Delta":131722889},{"NoteNumber":68,"Velocity":39,"Duration":262358,"SoundDuration":262358,"Delta":131722889},{"NoteNumber":52,"Velocity":14,"Duration":262358,"SoundDuration":262358,"Delta":131722889},{"NoteNumber":56,"Velocity":16,"Duration":262358,"SoundDuration":262358,"Delta":131722889},{"NoteNumber":64,"Velocity":20,"Duration":262358,"SoundDuration":262358,"Delta":131722889},{"NoteNumber":61,"Velocity":23,"Duration":256687,"SoundDuration":256687,"Delta":131999056},{"NoteNumber":72,"Velocity":39,"Duration":256687,"SoundDuration":256687,"Delta":131999056},{"NoteNumber":52,"Velocity":14,"Duration":256687,"SoundDuration":256687,"Delta":131999056},{"NoteNumber":56,"Velocity":16,"Duration":256687,"SoundDuration":256687,"Delta":131999056},{"NoteNumber":64,"Velocity":20,"Duration":256687,"SoundDuration":256687,"Delta":131999056},{"NoteNumber":61,"Velocity":23,"Duration":268159,"SoundDuration":268159,"Delta":132269253},{"NoteNumber":70,"Velocity":39,"Duration":268159,"SoundDuration":268159,"Delta":132269253},{"NoteNumber":52,"Velocity":11,"Duration":268159,"SoundDuration":268159,"Delta":132269253},{"NoteNumber":56,"Velocity":16,"Duration":268159,"SoundDuration":268159,"Delta":132269253},{"NoteNumber":64,"Velocity":20,"Duration":268159,"SoundDuration":268159,"Delta":132269253},{"NoteNumber":68,"Velocity":35,"Duration":291096,"SoundDuration":291096,"Delta":132551526},{"NoteNumber":61,"Velocity":20,"Duration":291096,"SoundDuration":291096,"Delta":132551526},{"NoteNumber":52,"Velocity":11,"Duration":291096,"SoundDuration":291096,"Delta":132551526},{"NoteNumber":56,"Velocity":15,"Duration":291096,"SoundDuration":291096,"Delta":132551526},{"NoteNumber":64,"Velocity":17,"Duration":291096,"SoundDuration":291096,"Delta":132551526},{"NoteNumber":60,"Velocity":30,"Duration":272310,"SoundDuration":272310,"Delta":132858705},{"NoteNumber":72,"Velocity":46,"Duration":2308272,"SoundDuration":2308272,"Delta":132858705},{"NoteNumber":51,"Velocity":10,"Duration":272310,"SoundDuration":272310,"Delta":132858705},{"NoteNumber":56,"Velocity":15,"Duration":272310,"SoundDuration":272310,"Delta":132858705},{"NoteNumber":63,"Velocity":18,"Duration":272310,"SoundDuration":272310,"Delta":132858705},{"NoteNumber":60,"Velocity":30,"Duration":266355,"SoundDuration":266355,"Delta":133145348},{"NoteNumber":56,"Velocity":15,"Duration":266355,"SoundDuration":266355,"Delta":133145348},{"NoteNumber":51,"Velocity":10,"Duration":266355,"SoundDuration":266355,"Delta":133145348},{"NoteNumber":63,"Velocity":18,"Duration":266355,"SoundDuration":266355,"Delta":133145348},{"NoteNumber":60,"Velocity":30,"Duration":266355,"SoundDuration":266355,"Delta":133425722},{"NoteNumber":56,"Velocity":15,"Duration":266355,"SoundDuration":266355,"Delta":133425722},{"NoteNumber":51,"Velocity":9,"Duration":266355,"SoundDuration":266355,"Delta":133425722},{"NoteNumber":63,"Velocity":17,"Duration":266355,"SoundDuration":266355,"Delta":133425722},{"NoteNumber":60,"Velocity":30,"Duration":266355,"SoundDuration":266355,"Delta":133706096},{"NoteNumber":56,"Velocity":15,"Duration":266355,"SoundDuration":266355,"Delta":133706096},{"NoteNumber":51,"Velocity":10,"Duration":266355,"SoundDuration":266355,"Delta":133706096},{"NoteNumber":63,"Velocity":18,"Duration":266355,"SoundDuration":266355,"Delta":133706096},{"NoteNumber":60,"Velocity":29,"Duration":268159,"SoundDuration":268159,"Delta":133986470},{"NoteNumber":56,"Velocity":15,"Duration":268159,"SoundDuration":268159,"Delta":133986470},{"NoteNumber":51,"Velocity":9,"Duration":268159,"SoundDuration":268159,"Delta":133986470},{"NoteNumber":63,"Velocity":17,"Duration":268159,"SoundDuration":268159,"Delta":133986470},{"NoteNumber":60,"Velocity":29,"Duration":285628,"SoundDuration":285628,"Delta":134268743},{"NoteNumber":56,"Velocity":15,"Duration":285628,"SoundDuration":285628,"Delta":134268743},{"NoteNumber":51,"Velocity":9,"Duration":285628,"SoundDuration":285628,"Delta":134268743},{"NoteNumber":63,"Velocity":17,"Duration":285628,"SoundDuration":285628,"Delta":134268743},{"NoteNumber":61,"Velocity":36,"Duration":303805,"SoundDuration":303805,"Delta":134569404},{"NoteNumber":32,"Velocity":56,"Duration":1744784,"SoundDuration":1744784,"Delta":134569404},{"NoteNumber":61,"Velocity":38,"Duration":263889,"SoundDuration":263889,"Delta":134889200},{"NoteNumber":52,"Velocity":14,"Duration":263889,"SoundDuration":263889,"Delta":134889200},{"NoteNumber":56,"Velocity":16,"Duration":263889,"SoundDuration":263889,"Delta":134889200},{"NoteNumber":64,"Velocity":20,"Duration":263889,"SoundDuration":263889,"Delta":134889200},{"NoteNumber":68,"Velocity":39,"Duration":268868,"SoundDuration":268868,"Delta":135166978},{"NoteNumber":61,"Velocity":25,"Duration":268868,"SoundDuration":268868,"Delta":135166978},{"NoteNumber":52,"Velocity":14,"Duration":268868,"SoundDuration":268868,"Delta":135166978},{"NoteNumber":56,"Velocity":16,"Duration":268868,"SoundDuration":268868,"Delta":135166978},{"NoteNumber":64,"Velocity":20,"Duration":268868,"SoundDuration":268868,"Delta":135166978},{"NoteNumber":72,"Velocity":39,"Duration":268868,"SoundDuration":268868,"Delta":135449997},{"NoteNumber":61,"Velocity":23,"Duration":268868,"SoundDuration":268868,"Delta":135449997},{"NoteNumber":52,"Velocity":14,"Duration":268868,"SoundDuration":268868,"Delta":135449997},{"NoteNumber":56,"Velocity":16,"Duration":268868,"SoundDuration":268868,"Delta":135449997},{"NoteNumber":64,"Velocity":20,"Duration":268868,"SoundDuration":268868,"Delta":135449997},{"NoteNumber":70,"Velocity":39,"Duration":274038,"SoundDuration":274038,"Delta":135733016},{"NoteNumber":61,"Velocity":23,"Duration":274038,"SoundDuration":274038,"Delta":135733016},{"NoteNumber":52,"Velocity":11,"Duration":274038,"SoundDuration":274038,"Delta":135733016},{"NoteNumber":56,"Velocity":16,"Duration":274038,"SoundDuration":274038,"Delta":135733016},{"NoteNumber":64,"Velocity":20,"Duration":274038,"SoundDuration":274038,"Delta":135733016},{"NoteNumber":61,"Velocity":20,"Duration":278075,"SoundDuration":278075,"Delta":136021477},{"NoteNumber":68,"Velocity":35,"Duration":278075,"SoundDuration":278075,"Delta":136021477},{"NoteNumber":52,"Velocity":11,"Duration":278075,"SoundDuration":278075,"Delta":136021477},{"NoteNumber":56,"Velocity":15,"Duration":278075,"SoundDuration":278075,"Delta":136021477},{"NoteNumber":64,"Velocity":17,"Duration":278075,"SoundDuration":278075,"Delta":136021477},{"NoteNumber":72,"Velocity":46,"Duration":1127801,"SoundDuration":1127801,"Delta":136314189},{"NoteNumber":60,"Velocity":30,"Duration":272310,"SoundDuration":272310,"Delta":136314189},{"NoteNumber":51,"Velocity":10,"Duration":272310,"SoundDuration":272310,"Delta":136314189},{"NoteNumber":56,"Velocity":15,"Duration":272310,"SoundDuration":272310,"Delta":136314189},{"NoteNumber":63,"Velocity":18,"Duration":272310,"SoundDuration":272310,"Delta":136314189},{"NoteNumber":60,"Velocity":30,"Duration":265116,"SoundDuration":265116,"Delta":136600831},{"NoteNumber":56,"Velocity":15,"Duration":265116,"SoundDuration":265116,"Delta":136600831},{"NoteNumber":51,"Velocity":10,"Duration":265116,"SoundDuration":265116,"Delta":136600831},{"NoteNumber":63,"Velocity":18,"Duration":265116,"SoundDuration":265116,"Delta":136600831},{"NoteNumber":60,"Velocity":30,"Duration":265116,"SoundDuration":265116,"Delta":136879901},{"NoteNumber":56,"Velocity":15,"Duration":265116,"SoundDuration":265116,"Delta":136879901},{"NoteNumber":51,"Velocity":9,"Duration":265116,"SoundDuration":265116,"Delta":136879901},{"NoteNumber":63,"Velocity":17,"Duration":265116,"SoundDuration":265116,"Delta":136879901},{"NoteNumber":61,"Velocity":24,"Duration":268868,"SoundDuration":268868,"Delta":137158971},{"NoteNumber":52,"Velocity":14,"Duration":268868,"SoundDuration":268868,"Delta":137158971},{"NoteNumber":56,"Velocity":16,"Duration":268868,"SoundDuration":268868,"Delta":137158971},{"NoteNumber":64,"Velocity":20,"Duration":268868,"SoundDuration":268868,"Delta":137158971},{"NoteNumber":61,"Velocity":23,"Duration":274038,"SoundDuration":274038,"Delta":137441990},{"NoteNumber":70,"Velocity":39,"Duration":274038,"SoundDuration":274038,"Delta":137441990},{"NoteNumber":52,"Velocity":11,"Duration":274038,"SoundDuration":274038,"Delta":137441990},{"NoteNumber":56,"Velocity":16,"Duration":274038,"SoundDuration":274038,"Delta":137441990},{"NoteNumber":64,"Velocity":20,"Duration":274038,"SoundDuration":274038,"Delta":137441990},{"NoteNumber":68,"Velocity":35,"Duration":278075,"SoundDuration":278075,"Delta":137730452},{"NoteNumber":61,"Velocity":20,"Duration":278075,"SoundDuration":278075,"Delta":137730452},{"NoteNumber":52,"Velocity":11,"Duration":278075,"SoundDuration":278075,"Delta":137730452},{"NoteNumber":56,"Velocity":15,"Duration":278075,"SoundDuration":278075,"Delta":137730452},{"NoteNumber":64,"Velocity":17,"Duration":278075,"SoundDuration":278075,"Delta":137730452},{"NoteNumber":60,"Velocity":30,"Duration":272310,"SoundDuration":272310,"Delta":138023163},{"NoteNumber":72,"Velocity":46,"Duration":1127801,"SoundDuration":1127801,"Delta":138023163},{"NoteNumber":51,"Velocity":10,"Duration":272310,"SoundDuration":272310,"Delta":138023163},{"NoteNumber":56,"Velocity":15,"Duration":272310,"SoundDuration":272310,"Delta":138023163},{"NoteNumber":63,"Velocity":18,"Duration":272310,"SoundDuration":272310,"Delta":138023163},{"NoteNumber":60,"Velocity":30,"Duration":265116,"SoundDuration":265116,"Delta":138309806},{"NoteNumber":56,"Velocity":15,"Duration":265116,"SoundDuration":265116,"Delta":138309806},{"NoteNumber":51,"Velocity":10,"Duration":265116,"SoundDuration":265116,"Delta":138309806},{"NoteNumber":63,"Velocity":18,"Duration":265116,"SoundDuration":265116,"Delta":138309806},{"NoteNumber":60,"Velocity":30,"Duration":265116,"SoundDuration":265116,"Delta":138588876},{"NoteNumber":56,"Velocity":15,"Duration":265116,"SoundDuration":265116,"Delta":138588876},{"NoteNumber":51,"Velocity":9,"Duration":265116,"SoundDuration":265116,"Delta":138588876},{"NoteNumber":63,"Velocity":17,"Duration":265116,"SoundDuration":265116,"Delta":138588876},{"NoteNumber":60,"Velocity":23,"Duration":268868,"SoundDuration":268868,"Delta":138867946},{"NoteNumber":51,"Velocity":14,"Duration":268868,"SoundDuration":268868,"Delta":138867946},{"NoteNumber":56,"Velocity":16,"Duration":268868,"SoundDuration":268868,"Delta":138867946},{"NoteNumber":63,"Velocity":20,"Duration":268868,"SoundDuration":268868,"Delta":138867946},{"NoteNumber":70,"Velocity":39,"Duration":275362,"SoundDuration":275362,"Delta":139150965},{"NoteNumber":60,"Velocity":23,"Duration":275362,"SoundDuration":275362,"Delta":139150965},{"NoteNumber":51,"Velocity":11,"Duration":275362,"SoundDuration":275362,"Delta":139150965},{"NoteNumber":56,"Velocity":16,"Duration":275362,"SoundDuration":275362,"Delta":139150965},{"NoteNumber":63,"Velocity":20,"Duration":275362,"SoundDuration":275362,"Delta":139150965},{"NoteNumber":60,"Velocity":20,"Duration":291096,"SoundDuration":291096,"Delta":139440820},{"NoteNumber":68,"Velocity":35,"Duration":291096,"SoundDuration":291096,"Delta":139440820},{"NoteNumber":51,"Velocity":11,"Duration":291096,"SoundDuration":291096,"Delta":139440820},{"NoteNumber":56,"Velocity":15,"Duration":291096,"SoundDuration":291096,"Delta":139440820},{"NoteNumber":63,"Velocity":17,"Duration":291096,"SoundDuration":291096,"Delta":139440820},{"NoteNumber":68,"Velocity":45,"Duration":1755042,"SoundDuration":1755042,"Delta":139747999},{"NoteNumber":32,"Velocity":55,"Duration":1755042,"SoundDuration":1755042,"Delta":139747999},{"NoteNumber":60,"Velocity":30,"Duration":266355,"SoundDuration":266355,"Delta":140075367},{"NoteNumber":56,"Velocity":15,"Duration":266355,"SoundDuration":266355,"Delta":140075367},{"NoteNumber":51,"Velocity":10,"Duration":266355,"SoundDuration":266355,"Delta":140075367},{"NoteNumber":63,"Velocity":18,"Duration":266355,"SoundDuration":266355,"Delta":140075367},{"NoteNumber":60,"Velocity":30,"Duration":266355,"SoundDuration":266355,"Delta":140355741},{"NoteNumber":56,"Velocity":15,"Duration":266355,"SoundDuration":266355,"Delta":140355741},{"NoteNumber":51,"Velocity":9,"Duration":266355,"SoundDuration":266355,"Delta":140355741},{"NoteNumber":63,"Velocity":17,"Duration":266355,"SoundDuration":266355,"Delta":140355741},{"NoteNumber":60,"Velocity":23,"Duration":270141,"SoundDuration":270141,"Delta":140636115},{"NoteNumber":51,"Velocity":14,"Duration":270141,"SoundDuration":270141,"Delta":140636115},{"NoteNumber":56,"Velocity":16,"Duration":270141,"SoundDuration":270141,"Delta":140636115},{"NoteNumber":63,"Velocity":20,"Duration":270141,"SoundDuration":270141,"Delta":140636115},{"NoteNumber":58,"Velocity":23,"Duration":275362,"SoundDuration":275362,"Delta":140920475},{"NoteNumber":51,"Velocity":11,"Duration":275362,"SoundDuration":275362,"Delta":140920475},{"NoteNumber":56,"Velocity":16,"Duration":275362,"SoundDuration":275362,"Delta":140920475},{"NoteNumber":61,"Velocity":20,"Duration":275362,"SoundDuration":275362,"Delta":140920475},{"NoteNumber":65,"Velocity":20,"Duration":278075,"SoundDuration":278075,"Delta":141210330},{"NoteNumber":51,"Velocity":11,"Duration":278075,"SoundDuration":278075,"Delta":141210330},{"NoteNumber":56,"Velocity":15,"Duration":278075,"SoundDuration":278075,"Delta":141210330},{"NoteNumber":61,"Velocity":17,"Duration":278075,"SoundDuration":278075,"Delta":141210330},{"NoteNumber":68,"Velocity":45,"Duration":1724835,"SoundDuration":1724835,"Delta":141503041},{"NoteNumber":60,"Velocity":30,"Duration":272310,"SoundDuration":272310,"Delta":141503041},{"NoteNumber":51,"Velocity":13,"Duration":272310,"SoundDuration":272310,"Delta":141503041},{"NoteNumber":56,"Velocity":15,"Duration":272310,"SoundDuration":272310,"Delta":141503041},{"NoteNumber":63,"Velocity":18,"Duration":272310,"SoundDuration":272310,"Delta":141503041},{"NoteNumber":60,"Velocity":30,"Duration":265116,"SoundDuration":265116,"Delta":141789684},{"NoteNumber":56,"Velocity":15,"Duration":265116,"SoundDuration":265116,"Delta":141789684},{"NoteNumber":51,"Velocity":10,"Duration":265116,"SoundDuration":265116,"Delta":141789684},{"NoteNumber":63,"Velocity":18,"Duration":265116,"SoundDuration":265116,"Delta":141789684},{"NoteNumber":60,"Velocity":30,"Duration":265116,"SoundDuration":265116,"Delta":142068754},{"NoteNumber":56,"Velocity":15,"Duration":265116,"SoundDuration":265116,"Delta":142068754},{"NoteNumber":51,"Velocity":9,"Duration":265116,"SoundDuration":265116,"Delta":142068754},{"NoteNumber":63,"Velocity":17,"Duration":265116,"SoundDuration":265116,"Delta":142068754},{"NoteNumber":60,"Velocity":23,"Duration":268868,"SoundDuration":268868,"Delta":142347824},{"NoteNumber":51,"Velocity":14,"Duration":268868,"SoundDuration":268868,"Delta":142347824},{"NoteNumber":56,"Velocity":16,"Duration":268868,"SoundDuration":268868,"Delta":142347824},{"NoteNumber":63,"Velocity":20,"Duration":268868,"SoundDuration":268868,"Delta":142347824},{"NoteNumber":58,"Velocity":23,"Duration":275362,"SoundDuration":275362,"Delta":142630843},{"NoteNumber":51,"Velocity":11,"Duration":275362,"SoundDuration":275362,"Delta":142630843},{"NoteNumber":56,"Velocity":16,"Duration":275362,"SoundDuration":275362,"Delta":142630843},{"NoteNumber":61,"Velocity":20,"Duration":275362,"SoundDuration":275362,"Delta":142630843},{"NoteNumber":65,"Velocity":20,"Duration":291096,"SoundDuration":291096,"Delta":142920698},{"NoteNumber":51,"Velocity":11,"Duration":291096,"SoundDuration":291096,"Delta":142920698},{"NoteNumber":56,"Velocity":15,"Duration":291096,"SoundDuration":291096,"Delta":142920698},{"NoteNumber":61,"Velocity":17,"Duration":291096,"SoundDuration":291096,"Delta":142920698},{"NoteNumber":60,"Velocity":30,"Duration":610108,"SoundDuration":610108,"Delta":143227877},{"NoteNumber":68,"Velocity":45,"Duration":610108,"SoundDuration":610108,"Delta":143227877},{"NoteNumber":51,"Velocity":13,"Duration":305564,"SoundDuration":305564,"Delta":143227877},{"NoteNumber":56,"Velocity":15,"Duration":305564,"SoundDuration":305564,"Delta":143227877},{"NoteNumber":63,"Velocity":18,"Duration":305564,"SoundDuration":305564,"Delta":143227877},{"NoteNumber":56,"Velocity":15,"Duration":274038,"SoundDuration":274038,"Delta":143549524},{"NoteNumber":51,"Velocity":10,"Duration":274038,"SoundDuration":274038,"Delta":143549524},{"NoteNumber":63,"Velocity":18,"Duration":274038,"SoundDuration":274038,"Delta":143549524},{"NoteNumber":58,"Velocity":30,"Duration":274038,"SoundDuration":274038,"Delta":143837986},{"NoteNumber":55,"Velocity":15,"Duration":274038,"SoundDuration":274038,"Delta":143837986},{"NoteNumber":51,"Velocity":9,"Duration":274038,"SoundDuration":274038,"Delta":143837986},{"NoteNumber":63,"Velocity":17,"Duration":274038,"SoundDuration":274038,"Delta":143837986},{"NoteNumber":60,"Velocity":23,"Duration":558597,"SoundDuration":558597,"Delta":144126447},{"NoteNumber":68,"Velocity":45,"Duration":558597,"SoundDuration":558597,"Delta":144126447},{"NoteNumber":51,"Velocity":14,"Duration":251256,"SoundDuration":251256,"Delta":144126447},{"NoteNumber":56,"Velocity":16,"Duration":251256,"SoundDuration":251256,"Delta":144126447},{"NoteNumber":63,"Velocity":20,"Duration":251256,"SoundDuration":251256,"Delta":144126447},{"NoteNumber":51,"Velocity":11,"Duration":279411,"SoundDuration":279411,"Delta":144390928},{"NoteNumber":56,"Velocity":16,"Duration":279411,"SoundDuration":279411,"Delta":144390928},{"NoteNumber":63,"Velocity":20,"Duration":279411,"SoundDuration":279411,"Delta":144390928},{"NoteNumber":58,"Velocity":20,"Duration":278075,"SoundDuration":278075,"Delta":144685045},{"NoteNumber":51,"Velocity":11,"Duration":278075,"SoundDuration":278075,"Delta":144685045},{"NoteNumber":55,"Velocity":15,"Duration":278075,"SoundDuration":278075,"Delta":144685045},{"NoteNumber":63,"Velocity":17,"Duration":278075,"SoundDuration":278075,"Delta":144685045},{"NoteNumber":60,"Velocity":30,"Duration":594412,"SoundDuration":594412,"Delta":144977757},{"NoteNumber":68,"Velocity":45,"Duration":594412,"SoundDuration":594412,"Delta":144977757},{"NoteNumber":51,"Velocity":13,"Duration":287211,"SoundDuration":287211,"Delta":144977757},{"NoteNumber":56,"Velocity":15,"Duration":287211,"SoundDuration":287211,"Delta":144977757},{"NoteNumber":63,"Velocity":18,"Duration":287211,"SoundDuration":287211,"Delta":144977757},{"NoteNumber":56,"Velocity":15,"Duration":277291,"SoundDuration":277291,"Delta":145280085},{"NoteNumber":51,"Velocity":10,"Duration":277291,"SoundDuration":277291,"Delta":145280085},{"NoteNumber":63,"Velocity":18,"Duration":277291,"SoundDuration":277291,"Delta":145280085},{"NoteNumber":58,"Velocity":30,"Duration":285558,"SoundDuration":285558,"Delta":145572169},{"NoteNumber":55,"Velocity":15,"Duration":285558,"SoundDuration":285558,"Delta":145572169},{"NoteNumber":51,"Velocity":9,"Duration":285558,"SoundDuration":285558,"Delta":145572169},{"NoteNumber":63,"Velocity":17,"Duration":285558,"SoundDuration":285558,"Delta":145572169},{"NoteNumber":60,"Velocity":23,"Duration":635123,"SoundDuration":635123,"Delta":145873010},{"NoteNumber":68,"Velocity":45,"Duration":635123,"SoundDuration":635123,"Delta":145873010},{"NoteNumber":51,"Velocity":14,"Duration":295900,"SoundDuration":295900,"Delta":145873010},{"NoteNumber":56,"Velocity":16,"Duration":295900,"SoundDuration":295900,"Delta":145873010},{"NoteNumber":63,"Velocity":20,"Duration":295900,"SoundDuration":295900,"Delta":145873010},{"NoteNumber":51,"Velocity":11,"Duration":306951,"SoundDuration":306951,"Delta":146184717},{"NoteNumber":56,"Velocity":16,"Duration":306951,"SoundDuration":306951,"Delta":146184717},{"NoteNumber":63,"Velocity":20,"Duration":306951,"SoundDuration":306951,"Delta":146184717},{"NoteNumber":58,"Velocity":20,"Duration":365313,"SoundDuration":365313,"Delta":146508134},{"NoteNumber":51,"Velocity":11,"Duration":365313,"SoundDuration":365313,"Delta":146508134},{"NoteNumber":55,"Velocity":15,"Duration":365313,"SoundDuration":365313,"Delta":146508134},{"NoteNumber":63,"Velocity":17,"Duration":365313,"SoundDuration":365313,"Delta":146508134},{"NoteNumber":32,"Velocity":53,"Duration":2077433,"SoundDuration":2077433,"Delta":146895578},{"NoteNumber":60,"Velocity":30,"Duration":314629,"SoundDuration":314629,"Delta":147314689},{"NoteNumber":56,"Velocity":15,"Duration":314629,"SoundDuration":314629,"Delta":147314689},{"NoteNumber":51,"Velocity":10,"Duration":314629,"SoundDuration":314629,"Delta":147314689},{"NoteNumber":63,"Velocity":18,"Duration":314629,"SoundDuration":314629,"Delta":147314689},{"NoteNumber":60,"Velocity":30,"Duration":313667,"SoundDuration":313667,"Delta":147645893},{"NoteNumber":56,"Velocity":15,"Duration":313667,"SoundDuration":313667,"Delta":147645893},{"NoteNumber":51,"Velocity":9,"Duration":313667,"SoundDuration":313667,"Delta":147645893},{"NoteNumber":63,"Velocity":17,"Duration":313667,"SoundDuration":313667,"Delta":147645893},{"NoteNumber":60,"Velocity":23,"Duration":316578,"SoundDuration":316578,"Delta":147976044},{"NoteNumber":51,"Velocity":14,"Duration":316578,"SoundDuration":316578,"Delta":147976044},{"NoteNumber":56,"Velocity":16,"Duration":316578,"SoundDuration":316578,"Delta":147976044},{"NoteNumber":63,"Velocity":20,"Duration":316578,"SoundDuration":316578,"Delta":147976044},{"NoteNumber":60,"Velocity":23,"Duration":316750,"SoundDuration":316750,"Delta":148309106},{"NoteNumber":51,"Velocity":11,"Duration":316750,"SoundDuration":316750,"Delta":148309106},{"NoteNumber":56,"Velocity":16,"Duration":316750,"SoundDuration":316750,"Delta":148309106},{"NoteNumber":63,"Velocity":20,"Duration":316750,"SoundDuration":316750,"Delta":148309106},{"NoteNumber":60,"Velocity":20,"Duration":314455,"SoundDuration":314455,"Delta":148642073},{"NoteNumber":51,"Velocity":11,"Duration":314455,"SoundDuration":314455,"Delta":148642073},{"NoteNumber":56,"Velocity":15,"Duration":314455,"SoundDuration":314455,"Delta":148642073},{"NoteNumber":63,"Velocity":17,"Duration":314455,"SoundDuration":314455,"Delta":148642073},{"NoteNumber":60,"Velocity":23,"Duration":319600,"SoundDuration":319600,"Delta":148973012},{"NoteNumber":51,"Velocity":13,"Duration":319600,"SoundDuration":319600,"Delta":148973012},{"NoteNumber":56,"Velocity":15,"Duration":319600,"SoundDuration":319600,"Delta":148973012},{"NoteNumber":63,"Velocity":18,"Duration":319600,"SoundDuration":319600,"Delta":148973012},{"NoteNumber":60,"Velocity":30,"Duration":329088,"SoundDuration":329088,"Delta":149309686},{"NoteNumber":56,"Velocity":15,"Duration":329088,"SoundDuration":329088,"Delta":149309686},{"NoteNumber":51,"Velocity":10,"Duration":329088,"SoundDuration":329088,"Delta":149309686},{"NoteNumber":63,"Velocity":18,"Duration":329088,"SoundDuration":329088,"Delta":149309686},{"NoteNumber":60,"Velocity":30,"Duration":338878,"SoundDuration":338878,"Delta":149656395},{"NoteNumber":56,"Velocity":15,"Duration":338878,"SoundDuration":338878,"Delta":149656395},{"NoteNumber":51,"Velocity":9,"Duration":338878,"SoundDuration":338878,"Delta":149656395},{"NoteNumber":63,"Velocity":17,"Duration":338878,"SoundDuration":338878,"Delta":149656395},{"NoteNumber":60,"Velocity":23,"Duration":319149,"SoundDuration":319149,"Delta":150013353},{"NoteNumber":51,"Velocity":14,"Duration":404255,"SoundDuration":404255,"Delta":150013353},{"NoteNumber":56,"Velocity":16,"Duration":404255,"SoundDuration":404255,"Delta":150013353},{"NoteNumber":63,"Velocity":20,"Duration":404255,"SoundDuration":404255,"Delta":150013353},{"NoteNumber":63,"Velocity":23,"Duration":106382,"SoundDuration":106382,"Delta":150332502},{"NoteNumber":61,"Velocity":23,"Duration":606383,"SoundDuration":606383,"Delta":150438885},{"NoteNumber":51,"Velocity":11,"Duration":606383,"SoundDuration":606383,"Delta":150438885},{"NoteNumber":56,"Velocity":16,"Duration":606383,"SoundDuration":606383,"Delta":150438885},{"NoteNumber":60,"Velocity":20,"Duration":838235,"SoundDuration":838235,"Delta":151077183},{"NoteNumber":51,"Velocity":11,"Duration":838235,"SoundDuration":838235,"Delta":151077183},{"NoteNumber":56,"Velocity":15,"Duration":838235,"SoundDuration":838235,"Delta":151077183},{"NoteNumber":63,"Velocity":17,"Duration":838235,"SoundDuration":838235,"Delta":151077183},{"NoteNumber":60,"Velocity":17,"Duration":4500000,"SoundDuration":4500000,"Delta":151959536},{"NoteNumber":51,"Velocity":11,"Duration":4500000,"SoundDuration":4500000,"Delta":151959536},{"NoteNumber":56,"Velocity":13,"Duration":4500000,"SoundDuration":4500000,"Delta":151959536},{"NoteNumber":63,"Velocity":15,"Duration":4500000,"SoundDuration":4500000,"Delta":151959536}],"license":{"name":"Creative Commons Attribution-ShareAlike 3.0 Germany","url":"http://creativecommons.org/licenses/by-sa/3.0/de/deed.en","text":"The MIDI, audio (MP3, OGG) and video files of Bernd Krueger are licensed under the cc-by-sa Germany License. This means that you can use and adapt the files, as long as you attribute the copyright holder.\n\nName: Bernd Krueger\nSource: http://www.piano-midi.de\n\nThe distribution or public playback of the files is only allowed under identical license conditions.\n\nThe scores are open source.","attribution":"MIDI files by Bernd Krueger (piano-midi.de)"}}