{"title":"Chopin Etude No. 12, Opus 25","artist":"Chopin","durationMs":136345,"midiSha256":"9afeaae731269790f3bd610dc30c46c4b2ad399ac122198c323ea73b0e35927b","midiObject":[{"NoteNumber":51,"Velocity":83,"Duration":105506,"SoundDuration":105506,"Delta":0},{"NoteNumber":36,"Velocity":61,"Duration":105506,"SoundDuration":105506,"Delta":0},{"NoteNumber":55,"Velocity":52,"Duration":103307,"SoundDuration":103307,"Delta":106386},{"NoteNumber":43,"Velocity":41,"Duration":103307,"SoundDuration":103307,"Delta":106386},{"NoteNumber":63,"Velocity":52,"Duration":100856,"SoundDuration":100856,"Delta":210556},{"NoteNumber":48,"Velocity":41,"Duration":100856,"SoundDuration":100856,"Delta":210556},{"NoteNumber":63,"Velocity":53,"Duration":98739,"SoundDuration":98739,"Delta":312254},{"NoteNumber":48,"Velocity":42,"Duration":98739,"SoundDuration":98739,"Delta":312254},{"NoteNumber":67,"Velocity":62,"Duration":97329,"SoundDuration":97329,"Delta":411816},{"NoteNumber":55,"Velocity":53,"Duration":97329,"SoundDuration":97329,"Delta":411816},{"NoteNumber":75,"Velocity":55,"Duration":96802,"SoundDuration":96802,"Delta":509963},{"NoteNumber":60,"Velocity":44,"Duration":96802,"SoundDuration":96802,"Delta":509963},{"NoteNumber":75,"Velocity":53,"Duration":96383,"SoundDuration":96383,"Delta":607577},{"NoteNumber":60,"Velocity":42,"Duration":96383,"SoundDuration":96383,"Delta":607577},{"NoteNumber":79,"Velocity":53,"Duration":95866,"SoundDuration":95866,"Delta":704769},{"NoteNumber":67,"Velocity":42,"Duration":95866,"SoundDuration":95866,"Delta":704769},{"NoteNumber":87,"Velocity":71,"Duration":95452,"SoundDuration":95452,"Delta":801440},{"NoteNumber":72,"Velocity":51,"Duration":95452,"SoundDuration":95452,"Delta":801440},{"NoteNumber":79,"Velocity":57,"Duration":95864,"SoundDuration":95864,"Delta":897696},{"NoteNumber":67,"Velocity":42,"Duration":95864,"SoundDuration":95864,"Delta":897696},{"NoteNumber":75,"Velocity":57,"Duration":96380,"SoundDuration":96380,"Delta":994367},{"NoteNumber":60,"Velocity":42,"Duration":96380,"SoundDuration":96380,"Delta":994367},{"NoteNumber":75,"Velocity":57,"Duration":96799,"SoundDuration":96799,"Delta":1091559},{"NoteNumber":60,"Velocity":42,"Duration":96799,"SoundDuration":96799,"Delta":1091559},{"NoteNumber":67,"Velocity":64,"Duration":99060,"SoundDuration":99060,"Delta":1189173},{"NoteNumber":55,"Velocity":50,"Duration":99060,"SoundDuration":99060,"Delta":1189173},{"NoteNumber":63,"Velocity":55,"Duration":102114,"SoundDuration":102114,"Delta":1289075},{"NoteNumber":48,"Velocity":42,"Duration":102114,"SoundDuration":102114,"Delta":1289075},{"NoteNumber":63,"Velocity":56,"Duration":105122,"SoundDuration":105122,"Delta":1392055},{"NoteNumber":48,"Velocity":42,"Duration":105122,"SoundDuration":105122,"Delta":1392055},{"NoteNumber":55,"Velocity":56,"Duration":106522,"SoundDuration":106522,"Delta":1498070},{"NoteNumber":43,"Velocity":42,"Duration":106522,"SoundDuration":106522,"Delta":1498070},{"NoteNumber":50,"Velocity":84,"Duration":101539,"SoundDuration":101539,"Delta":1605432},{"NoteNumber":36,"Velocity":59,"Duration":101539,"SoundDuration":101539,"Delta":1605432},{"NoteNumber":56,"Velocity":52,"Duration":100400,"SoundDuration":100400,"Delta":1707822},{"NoteNumber":41,"Velocity":46,"Duration":100400,"SoundDuration":100400,"Delta":1707822},{"NoteNumber":62,"Velocity":52,"Duration":99170,"SoundDuration":99170,"Delta":1809061},{"NoteNumber":48,"Velocity":40,"Duration":99170,"SoundDuration":99170,"Delta":1809061},{"NoteNumber":62,"Velocity":52,"Duration":98079,"SoundDuration":98079,"Delta":1909062},{"NoteNumber":48,"Velocity":40,"Duration":98079,"SoundDuration":98079,"Delta":1909062},{"NoteNumber":68,"Velocity":67,"Duration":97756,"SoundDuration":97756,"Delta":2007964},{"NoteNumber":53,"Velocity":57,"Duration":97756,"SoundDuration":97756,"Delta":2007964},{"NoteNumber":74,"Velocity":55,"Duration":97329,"SoundDuration":97329,"Delta":2106540},{"NoteNumber":60,"Velocity":40,"Duration":97329,"SoundDuration":97329,"Delta":2106540},{"NoteNumber":74,"Velocity":53,"Duration":96802,"SoundDuration":96802,"Delta":2204687},{"NoteNumber":60,"Velocity":40,"Duration":96802,"SoundDuration":96802,"Delta":2204687},{"NoteNumber":80,"Velocity":53,"Duration":96383,"SoundDuration":96383,"Delta":2302301},{"NoteNumber":65,"Velocity":41,"Duration":96383,"SoundDuration":96383,"Delta":2302301},{"NoteNumber":86,"Velocity":77,"Duration":95967,"SoundDuration":95967,"Delta":2399493},{"NoteNumber":72,"Velocity":56,"Duration":95967,"SoundDuration":95967,"Delta":2399493},{"NoteNumber":80,"Velocity":58,"Duration":96380,"SoundDuration":96380,"Delta":2496267},{"NoteNumber":65,"Velocity":46,"Duration":96380,"SoundDuration":96380,"Delta":2496267},{"NoteNumber":74,"Velocity":58,"Duration":96799,"SoundDuration":96799,"Delta":2593460},{"NoteNumber":60,"Velocity":46,"Duration":96799,"SoundDuration":96799,"Delta":2593460},{"NoteNumber":74,"Velocity":58,"Duration":97326,"SoundDuration":97326,"Delta":2691074},{"NoteNumber":60,"Velocity":46,"Duration":97326,"SoundDuration":97326,"Delta":2691074},{"NoteNumber":68,"Velocity":66,"Duration":99054,"SoundDuration":99054,"Delta":2789220},{"NoteNumber":53,"Velocity":53,"Duration":99054,"SoundDuration":99054,"Delta":2789220},{"NoteNumber":62,"Velocity":58,"Duration":101648,"SoundDuration":101648,"Delta":2889114},{"NoteNumber":48,"Velocity":42,"Duration":101648,"SoundDuration":101648,"Delta":2889114},{"NoteNumber":62,"Velocity":58,"Duration":104505,"SoundDuration":104505,"Delta":2991625},{"NoteNumber":48,"Velocity":42,"Duration":104505,"SoundDuration":104505,"Delta":2991625},{"NoteNumber":56,"Velocity":57,"Duration":107399,"SoundDuration":107399,"Delta":3097017},{"NoteNumber":41,"Velocity":42,"Duration":107399,"SoundDuration":107399,"Delta":3097017},{"NoteNumber":53,"Velocity":90,"Duration":99498,"SoundDuration":99498,"Delta":3205328},{"NoteNumber":36,"Velocity":64,"Duration":99498,"SoundDuration":99498,"Delta":3205328},{"NoteNumber":60,"Velocity":59,"Duration":99166,"SoundDuration":99166,"Delta":3305663},{"NoteNumber":44,"Velocity":48,"Duration":99166,"SoundDuration":99166,"Delta":3305663},{"NoteNumber":65,"Velocity":60,"Duration":98729,"SoundDuration":98729,"Delta":3405663},{"NoteNumber":48,"Velocity":48,"Duration":98729,"SoundDuration":98729,"Delta":3405663},{"NoteNumber":65,"Velocity":60,"Duration":98403,"SoundDuration":98403,"Delta":3505221},{"NoteNumber":48,"Velocity":48,"Duration":98403,"SoundDuration":98403,"Delta":3505221},{"NoteNumber":72,"Velocity":70,"Duration":98079,"SoundDuration":98079,"Delta":3604449},{"NoteNumber":56,"Velocity":60,"Duration":98079,"SoundDuration":98079,"Delta":3604449},{"NoteNumber":77,"Velocity":61,"Duration":97648,"SoundDuration":97648,"Delta":3703350},{"NoteNumber":60,"Velocity":48,"Duration":97648,"SoundDuration":97648,"Delta":3703350},{"NoteNumber":77,"Velocity":61,"Duration":97329,"SoundDuration":97329,"Delta":3801819},{"NoteNumber":60,"Velocity":48,"Duration":97329,"SoundDuration":97329,"Delta":3801819},{"NoteNumber":84,"Velocity":61,"Duration":97011,"SoundDuration":97011,"Delta":3899965},{"NoteNumber":68,"Velocity":48,"Duration":97011,"SoundDuration":97011,"Delta":3899965},{"NoteNumber":89,"Velocity":78,"Duration":96590,"SoundDuration":96590,"Delta":3997792},{"NoteNumber":72,"Velocity":59,"Duration":96590,"SoundDuration":96590,"Delta":3997792},{"NoteNumber":84,"Velocity":63,"Duration":96799,"SoundDuration":96799,"Delta":4095194},{"NoteNumber":68,"Velocity":48,"Duration":96799,"SoundDuration":96799,"Delta":4095194},{"NoteNumber":77,"Velocity":63,"Duration":97115,"SoundDuration":97115,"Delta":4192808},{"NoteNumber":60,"Velocity":49,"Duration":97115,"SoundDuration":97115,"Delta":4192808},{"NoteNumber":77,"Velocity":63,"Duration":97433,"SoundDuration":97433,"Delta":4290741},{"NoteNumber":60,"Velocity":49,"Duration":97433,"SoundDuration":97433,"Delta":4290741},{"NoteNumber":72,"Velocity":72,"Duration":98508,"SoundDuration":98508,"Delta":4388995},{"NoteNumber":56,"Velocity":56,"Duration":98508,"SoundDuration":98508,"Delta":4388995},{"NoteNumber":65,"Velocity":63,"Duration":101534,"SoundDuration":101534,"Delta":4488339},{"NoteNumber":48,"Velocity":44,"Duration":101534,"SoundDuration":101534,"Delta":4488339},{"NoteNumber":65,"Velocity":63,"Duration":104751,"SoundDuration":104751,"Delta":4590735},{"NoteNumber":48,"Velocity":44,"Duration":104751,"SoundDuration":104751,"Delta":4590735},{"NoteNumber":60,"Velocity":63,"Duration":108180,"SoundDuration":108180,"Delta":4696377},{"NoteNumber":44,"Velocity":44,"Duration":108180,"SoundDuration":108180,"Delta":4696377},{"NoteNumber":51,"Velocity":96,"Duration":99832,"SoundDuration":99832,"Delta":4805476},{"NoteNumber":36,"Velocity":73,"Duration":99832,"SoundDuration":99832,"Delta":4805476},{"NoteNumber":55,"Velocity":62,"Duration":99389,"SoundDuration":99389,"Delta":4906147},{"NoteNumber":43,"Velocity":50,"Duration":99389,"SoundDuration":99389,"Delta":4906147},{"NoteNumber":63,"Velocity":62,"Duration":98947,"SoundDuration":98947,"Delta":5006370},{"NoteNumber":48,"Velocity":50,"Duration":98947,"SoundDuration":98947,"Delta":5006370},{"NoteNumber":63,"Velocity":63,"Duration":98403,"SoundDuration":98403,"Delta":5106149},{"NoteNumber":48,"Velocity":50,"Duration":98403,"SoundDuration":98403,"Delta":5106149},{"NoteNumber":67,"Velocity":74,"Duration":97970,"SoundDuration":97970,"Delta":5205377},{"NoteNumber":55,"Velocity":63,"Duration":97970,"SoundDuration":97970,"Delta":5205377},{"NoteNumber":75,"Velocity":64,"Duration":97436,"SoundDuration":97436,"Delta":5304170},{"NoteNumber":60,"Velocity":51,"Duration":97436,"SoundDuration":97436,"Delta":5304170},{"NoteNumber":75,"Velocity":63,"Duration":97011,"SoundDuration":97011,"Delta":5402424},{"NoteNumber":60,"Velocity":50,"Duration":97011,"SoundDuration":97011,"Delta":5402424},{"NoteNumber":79,"Velocity":63,"Duration":96488,"SoundDuration":96488,"Delta":5500250},{"NoteNumber":67,"Velocity":50,"Duration":96488,"SoundDuration":96488,"Delta":5500250},{"NoteNumber":87,"Velocity":86,"Duration":96380,"SoundDuration":96380,"Delta":5597548},{"NoteNumber":72,"Velocity":62,"Duration":96380,"SoundDuration":96380,"Delta":5597548},{"NoteNumber":79,"Velocity":67,"Duration":96799,"SoundDuration":96799,"Delta":5694740},{"NoteNumber":67,"Velocity":51,"Duration":96799,"SoundDuration":96799,"Delta":5694740},{"NoteNumber":75,"Velocity":67,"Duration":97115,"SoundDuration":97115,"Delta":5792354},{"NoteNumber":60,"Velocity":51,"Duration":97115,"SoundDuration":97115,"Delta":5792354},{"NoteNumber":75,"Velocity":67,"Duration":97541,"SoundDuration":97541,"Delta":5890287},{"NoteNumber":60,"Velocity":50,"Duration":97541,"SoundDuration":97541,"Delta":5890287},{"NoteNumber":67,"Velocity":74,"Duration":98945,"SoundDuration":98945,"Delta":5988648},{"NoteNumber":55,"Velocity":58,"Duration":98945,"SoundDuration":98945,"Delta":5988648},{"NoteNumber":63,"Velocity":63,"Duration":102587,"SoundDuration":102587,"Delta":6088435},{"NoteNumber":48,"Velocity":49,"Duration":102587,"SoundDuration":102587,"Delta":6088435},{"NoteNumber":63,"Velocity":63,"Duration":106504,"SoundDuration":106504,"Delta":6191896},{"NoteNumber":48,"Velocity":49,"Duration":106504,"SoundDuration":106504,"Delta":6191896},{"NoteNumber":55,"Velocity":63,"Duration":110458,"SoundDuration":110458,"Delta":6299306},{"NoteNumber":43,"Velocity":49,"Duration":110458,"SoundDuration":110458,"Delta":6299306},{"NoteNumber":50,"Velocity":97,"Duration":99498,"SoundDuration":99498,"Delta":6410698},{"NoteNumber":36,"Velocity":66,"Duration":99498,"SoundDuration":99498,"Delta":6410698},{"NoteNumber":56,"Velocity":59,"Duration":99058,"SoundDuration":99058,"Delta":6511032},{"NoteNumber":41,"Velocity":51,"Duration":99058,"SoundDuration":99058,"Delta":6511032},{"NoteNumber":62,"Velocity":59,"Duration":98729,"SoundDuration":98729,"Delta":6610921},{"NoteNumber":48,"Velocity":45,"Duration":98729,"SoundDuration":98729,"Delta":6610921},{"NoteNumber":62,"Velocity":59,"Duration":98294,"SoundDuration":98294,"Delta":6710479},{"NoteNumber":48,"Velocity":45,"Duration":98294,"SoundDuration":98294,"Delta":6710479},{"NoteNumber":68,"Velocity":72,"Duration":97861,"SoundDuration":97861,"Delta":6809598},{"NoteNumber":53,"Velocity":61,"Duration":97861,"SoundDuration":97861,"Delta":6809598},{"NoteNumber":74,"Velocity":59,"Duration":97436,"SoundDuration":97436,"Delta":6908283},{"NoteNumber":60,"Velocity":44,"Duration":97436,"SoundDuration":97436,"Delta":6908283},{"NoteNumber":74,"Velocity":58,"Duration":97118,"SoundDuration":97118,"Delta":7006536},{"NoteNumber":60,"Velocity":44,"Duration":97118,"SoundDuration":97118,"Delta":7006536},{"NoteNumber":80,"Velocity":58,"Duration":96696,"SoundDuration":96696,"Delta":7104469},{"NoteNumber":65,"Velocity":44,"Duration":96696,"SoundDuration":96696,"Delta":7104469},{"NoteNumber":86,"Velocity":86,"Duration":96278,"SoundDuration":96278,"Delta":7201977},{"NoteNumber":72,"Velocity":60,"Duration":96278,"SoundDuration":96278,"Delta":7201977},{"NoteNumber":80,"Velocity":61,"Duration":96693,"SoundDuration":96693,"Delta":7299065},{"NoteNumber":65,"Velocity":48,"Duration":96693,"SoundDuration":96693,"Delta":7299065},{"NoteNumber":74,"Velocity":60,"Duration":97009,"SoundDuration":97009,"Delta":7396573},{"NoteNumber":60,"Velocity":48,"Duration":97009,"SoundDuration":97009,"Delta":7396573},{"NoteNumber":74,"Velocity":60,"Duration":97433,"SoundDuration":97433,"Delta":7494399},{"NoteNumber":60,"Velocity":48,"Duration":97433,"SoundDuration":97433,"Delta":7494399},{"NoteNumber":68,"Velocity":67,"Duration":98181,"SoundDuration":98181,"Delta":7592653},{"NoteNumber":53,"Velocity":53,"Duration":98181,"SoundDuration":98181,"Delta":7592653},{"NoteNumber":62,"Velocity":59,"Duration":100845,"SoundDuration":100845,"Delta":7691665},{"NoteNumber":48,"Velocity":42,"Duration":100845,"SoundDuration":100845,"Delta":7691665},{"NoteNumber":62,"Velocity":58,"Duration":104019,"SoundDuration":104019,"Delta":7793367},{"NoteNumber":48,"Velocity":42,"Duration":104019,"SoundDuration":104019,"Delta":7793367},{"NoteNumber":56,"Velocity":57,"Duration":107529,"SoundDuration":107529,"Delta":7898270},{"NoteNumber":41,"Velocity":42,"Duration":107529,"SoundDuration":107529,"Delta":7898270},{"NoteNumber":51,"Velocity":93,"Duration":99498,"SoundDuration":99498,"Delta":8006715},{"NoteNumber":36,"Velocity":64,"Duration":99498,"SoundDuration":99498,"Delta":8006715},{"NoteNumber":56,"Velocity":59,"Duration":99278,"SoundDuration":99278,"Delta":8107050},{"NoteNumber":41,"Velocity":48,"Duration":99278,"SoundDuration":99278,"Delta":8107050},{"NoteNumber":63,"Velocity":59,"Duration":99058,"SoundDuration":99058,"Delta":8207161},{"NoteNumber":47,"Velocity":48,"Duration":99058,"SoundDuration":99058,"Delta":8207161},{"NoteNumber":63,"Velocity":58,"Duration":98837,"SoundDuration":98837,"Delta":8307050},{"NoteNumber":48,"Velocity":47,"Duration":98837,"SoundDuration":98837,"Delta":8307050},{"NoteNumber":68,"Velocity":68,"Duration":98509,"SoundDuration":98509,"Delta":8406718},{"NoteNumber":56,"Velocity":58,"Duration":98509,"SoundDuration":98509,"Delta":8406718},{"NoteNumber":75,"Velocity":58,"Duration":98294,"SoundDuration":98294,"Delta":8506056},{"NoteNumber":59,"Velocity":46,"Duration":98294,"SoundDuration":98294,"Delta":8506056},{"NoteNumber":75,"Velocity":58,"Duration":98079,"SoundDuration":98079,"Delta":8605175},{"NoteNumber":60,"Velocity":46,"Duration":98079,"SoundDuration":98079,"Delta":8605175},{"NoteNumber":80,"Velocity":58,"Duration":97756,"SoundDuration":97756,"Delta":8704076},{"NoteNumber":65,"Velocity":46,"Duration":97756,"SoundDuration":97756,"Delta":8704076},{"NoteNumber":87,"Velocity":75,"Duration":97646,"SoundDuration":97646,"Delta":8802653},{"NoteNumber":71,"Velocity":55,"Duration":97646,"SoundDuration":97646,"Delta":8802653},{"NoteNumber":80,"Velocity":59,"Duration":97967,"SoundDuration":97967,"Delta":8901121},{"NoteNumber":65,"Velocity":45,"Duration":97967,"SoundDuration":97967,"Delta":8901121},{"NoteNumber":75,"Velocity":58,"Duration":98400,"SoundDuration":98400,"Delta":8999914},{"NoteNumber":60,"Velocity":45,"Duration":98400,"SoundDuration":98400,"Delta":8999914},{"NoteNumber":75,"Velocity":58,"Duration":98727,"SoundDuration":98727,"Delta":9099143},{"NoteNumber":59,"Velocity":45,"Duration":98727,"SoundDuration":98727,"Delta":9099143},{"NoteNumber":68,"Velocity":64,"Duration":99829,"SoundDuration":99829,"Delta":9198701},{"NoteNumber":53,"Velocity":50,"Duration":99829,"SoundDuration":99829,"Delta":9198701},{"NoteNumber":63,"Velocity":57,"Duration":102348,"SoundDuration":102348,"Delta":9299375},{"NoteNumber":48,"Velocity":39,"Duration":102348,"SoundDuration":102348,"Delta":9299375},{"NoteNumber":63,"Velocity":57,"Duration":104998,"SoundDuration":104998,"Delta":9402591},{"NoteNumber":47,"Velocity":39,"Duration":104998,"SoundDuration":104998,"Delta":9402591},{"NoteNumber":56,"Velocity":56,"Duration":101804,"SoundDuration":101804,"Delta":9508479},{"NoteNumber":41,"Velocity":38,"Duration":101804,"SoundDuration":101804,"Delta":9508479},{"NoteNumber":48,"Velocity":88,"Duration":106893,"SoundDuration":106893,"Delta":9611117},{"NoteNumber":36,"Velocity":60,"Duration":106893,"SoundDuration":106893,"Delta":9611117},{"NoteNumber":51,"Velocity":55,"Duration":104882,"SoundDuration":104882,"Delta":9718903},{"NoteNumber":43,"Velocity":44,"Duration":104882,"SoundDuration":104882,"Delta":9718903},{"NoteNumber":60,"Velocity":55,"Duration":102950,"SoundDuration":102950,"Delta":9824663},{"NoteNumber":48,"Velocity":44,"Duration":102950,"SoundDuration":102950,"Delta":9824663},{"NoteNumber":60,"Velocity":55,"Duration":101199,"SoundDuration":101199,"Delta":9928473},{"NoteNumber":48,"Velocity":44,"Duration":101199,"SoundDuration":101199,"Delta":9928473},{"NoteNumber":63,"Velocity":59,"Duration":99390,"SoundDuration":99390,"Delta":10030517},{"NoteNumber":55,"Velocity":50,"Duration":99390,"SoundDuration":99390,"Delta":10030517},{"NoteNumber":72,"Velocity":66,"Duration":400000,"SoundDuration":400000,"Delta":10130740},{"NoteNumber":60,"Velocity":38,"Duration":99166,"SoundDuration":99166,"Delta":10130740},{"NoteNumber":63,"Velocity":50,"Duration":99166,"SoundDuration":99166,"Delta":10230740},{"NoteNumber":55,"Velocity":38,"Duration":99166,"SoundDuration":99166,"Delta":10230740},{"NoteNumber":60,"Velocity":49,"Duration":99166,"SoundDuration":99166,"Delta":10330740},{"NoteNumber":48,"Velocity":38,"Duration":99166,"SoundDuration":99166,"Delta":10330740},{"NoteNumber":63,"Velocity":56,"Duration":99166,"SoundDuration":99166,"Delta":10430740},{"NoteNumber":55,"Velocity":47,"Duration":99166,"SoundDuration":99166,"Delta":10430740},{"NoteNumber":70,"Velocity":61,"Duration":400000,"SoundDuration":400000,"Delta":10530740},{"NoteNumber":60,"Velocity":37,"Duration":99166,"SoundDuration":99166,"Delta":10530740},{"NoteNumber":63,"Velocity":49,"Duration":99166,"SoundDuration":99166,"Delta":10630740},{"NoteNumber":55,"Velocity":37,"Duration":99166,"SoundDuration":99166,"Delta":10630740},{"NoteNumber":60,"Velocity":48,"Duration":99166,"SoundDuration":99166,"Delta":10730740},{"NoteNumber":48,"Velocity":35,"Duration":99166,"SoundDuration":99166,"Delta":10730740},{"NoteNumber":63,"Velocity":53,"Duration":99166,"SoundDuration":99166,"Delta":10830740},{"NoteNumber":55,"Velocity":41,"Duration":99166,"SoundDuration":99166,"Delta":10830740},{"NoteNumber":68,"Velocity":57,"Duration":397826,"SoundDuration":397826,"Delta":10930740},{"NoteNumber":60,"Velocity":31,"Duration":99166,"SoundDuration":99166,"Delta":10930740},{"NoteNumber":63,"Velocity":46,"Duration":99166,"SoundDuration":99166,"Delta":11030740},{"NoteNumber":55,"Velocity":31,"Duration":99166,"SoundDuration":99166,"Delta":11030740},{"NoteNumber":60,"Velocity":46,"Duration":98322,"SoundDuration":98322,"Delta":11130740},{"NoteNumber":48,"Velocity":31,"Duration":98322,"SoundDuration":98322,"Delta":11130740},{"NoteNumber":62,"Velocity":50,"Duration":97864,"SoundDuration":97864,"Delta":11229875},{"NoteNumber":55,"Velocity":44,"Duration":97864,"SoundDuration":97864,"Delta":11229875},{"NoteNumber":67,"Velocity":56,"Duration":401351,"SoundDuration":401351,"Delta":11328567},{"NoteNumber":59,"Velocity":34,"Duration":98727,"SoundDuration":98727,"Delta":11328567},{"NoteNumber":62,"Velocity":42,"Duration":99275,"SoundDuration":99275,"Delta":11428125},{"NoteNumber":55,"Velocity":33,"Duration":99275,"SoundDuration":99275,"Delta":11428125},{"NoteNumber":59,"Velocity":42,"Duration":99720,"SoundDuration":99720,"Delta":11528236},{"NoteNumber":48,"Velocity":33,"Duration":99720,"SoundDuration":99720,"Delta":11528236},{"NoteNumber":61,"Velocity":48,"Duration":100279,"SoundDuration":100279,"Delta":11628795},{"NoteNumber":55,"Velocity":39,"Duration":100279,"SoundDuration":100279,"Delta":11628795},{"NoteNumber":67,"Velocity":52,"Duration":409571,"SoundDuration":409571,"Delta":11729919},{"NoteNumber":58,"Velocity":31,"Duration":100732,"SoundDuration":100732,"Delta":11729919},{"NoteNumber":61,"Velocity":42,"Duration":101303,"SoundDuration":101303,"Delta":11831500},{"NoteNumber":55,"Velocity":31,"Duration":101303,"SoundDuration":101303,"Delta":11831500},{"NoteNumber":58,"Velocity":40,"Duration":101766,"SoundDuration":101766,"Delta":11933656},{"NoteNumber":48,"Velocity":30,"Duration":101766,"SoundDuration":101766,"Delta":11933656},{"NoteNumber":60,"Velocity":46,"Duration":102349,"SoundDuration":102349,"Delta":12036279},{"NoteNumber":53,"Velocity":35,"Duration":102349,"SoundDuration":102349,"Delta":12036279},{"NoteNumber":65,"Velocity":49,"Duration":417898,"SoundDuration":417898,"Delta":12139491},{"NoteNumber":57,"Velocity":26,"Duration":102821,"SoundDuration":102821,"Delta":12139491},{"NoteNumber":60,"Velocity":39,"Duration":103416,"SoundDuration":103416,"Delta":12243177},{"NoteNumber":53,"Velocity":26,"Duration":103416,"SoundDuration":103416,"Delta":12243177},{"NoteNumber":57,"Velocity":38,"Duration":103899,"SoundDuration":103899,"Delta":12347465},{"NoteNumber":48,"Velocity":26,"Duration":103899,"SoundDuration":103899,"Delta":12347465},{"NoteNumber":59,"Velocity":42,"Duration":104264,"SoundDuration":104264,"Delta":12452238},{"NoteNumber":53,"Velocity":34,"Duration":104264,"SoundDuration":104264,"Delta":12452238},{"NoteNumber":65,"Velocity":47,"Duration":366551,"SoundDuration":366551,"Delta":12557389},{"NoteNumber":56,"Velocity":25,"Duration":111033,"SoundDuration":111033,"Delta":12557389},{"NoteNumber":59,"Velocity":37,"Duration":120480,"SoundDuration":120480,"Delta":12669380},{"NoteNumber":53,"Velocity":25,"Duration":120480,"SoundDuration":120480,"Delta":12669380},{"NoteNumber":56,"Velocity":35,"Duration":131890,"SoundDuration":131890,"Delta":12790903},{"NoteNumber":48,"Velocity":24,"Duration":131890,"SoundDuration":131890,"Delta":12790903},{"NoteNumber":51,"Velocity":85,"Duration":106640,"SoundDuration":106640,"Delta":12923941},{"NoteNumber":36,"Velocity":64,"Duration":106640,"SoundDuration":106640,"Delta":12923941},{"NoteNumber":55,"Velocity":56,"Duration":104030,"SoundDuration":104030,"Delta":13031471},{"NoteNumber":43,"Velocity":44,"Duration":104030,"SoundDuration":104030,"Delta":13031471},{"NoteNumber":63,"Velocity":56,"Duration":101433,"SoundDuration":101433,"Delta":13136370},{"NoteNumber":48,"Velocity":44,"Duration":101433,"SoundDuration":101433,"Delta":13136370},{"NoteNumber":63,"Velocity":56,"Duration":99068,"SoundDuration":99068,"Delta":13238647},{"NoteNumber":48,"Velocity":44,"Duration":99068,"SoundDuration":99068,"Delta":13238647},{"NoteNumber":67,"Velocity":64,"Duration":98729,"SoundDuration":98729,"Delta":13338541},{"NoteNumber":55,"Velocity":56,"Duration":98729,"SoundDuration":98729,"Delta":13338541},{"NoteNumber":75,"Velocity":57,"Duration":98294,"SoundDuration":98294,"Delta":13438099},{"NoteNumber":60,"Velocity":45,"Duration":98294,"SoundDuration":98294,"Delta":13438099},{"NoteNumber":75,"Velocity":56,"Duration":97756,"SoundDuration":97756,"Delta":13537218},{"NoteNumber":60,"Velocity":44,"Duration":97756,"SoundDuration":97756,"Delta":13537218},{"NoteNumber":79,"Velocity":56,"Duration":97329,"SoundDuration":97329,"Delta":13635795},{"NoteNumber":67,"Velocity":45,"Duration":97329,"SoundDuration":97329,"Delta":13635795},{"NoteNumber":87,"Velocity":79,"Duration":97009,"SoundDuration":97009,"Delta":13733941},{"NoteNumber":72,"Velocity":53,"Duration":97009,"SoundDuration":97009,"Delta":13733941},{"NoteNumber":79,"Velocity":58,"Duration":97433,"SoundDuration":97433,"Delta":13831767},{"NoteNumber":67,"Velocity":45,"Duration":97433,"SoundDuration":97433,"Delta":13831767},{"NoteNumber":75,"Velocity":58,"Duration":97967,"SoundDuration":97967,"Delta":13930021},{"NoteNumber":60,"Velocity":45,"Duration":97967,"SoundDuration":97967,"Delta":13930021},{"NoteNumber":75,"Velocity":58,"Duration":98400,"SoundDuration":98400,"Delta":14028814},{"NoteNumber":60,"Velocity":45,"Duration":98400,"SoundDuration":98400,"Delta":14028814},{"NoteNumber":67,"Velocity":66,"Duration":98617,"SoundDuration":98617,"Delta":14128042},{"NoteNumber":55,"Velocity":51,"Duration":98617,"SoundDuration":98617,"Delta":14128042},{"NoteNumber":63,"Velocity":56,"Duration":102234,"SoundDuration":102234,"Delta":14227499},{"NoteNumber":48,"Velocity":44,"Duration":102234,"SoundDuration":102234,"Delta":14227499},{"NoteNumber":63,"Velocity":57,"Duration":106251,"SoundDuration":106251,"Delta":14330605},{"NoteNumber":48,"Velocity":44,"Duration":106251,"SoundDuration":106251,"Delta":14330605},{"NoteNumber":55,"Velocity":57,"Duration":106522,"SoundDuration":106522,"Delta":14437762},{"NoteNumber":43,"Velocity":44,"Duration":106522,"SoundDuration":106522,"Delta":14437762},{"NoteNumber":50,"Velocity":91,"Duration":101311,"SoundDuration":101311,"Delta":14545124},{"NoteNumber":36,"Velocity":60,"Duration":101311,"SoundDuration":101311,"Delta":14545124},{"NoteNumber":56,"Velocity":53,"Duration":100967,"SoundDuration":100967,"Delta":14647292},{"NoteNumber":41,"Velocity":46,"Duration":100967,"SoundDuration":100967,"Delta":14647292},{"NoteNumber":62,"Velocity":53,"Duration":99614,"SoundDuration":99614,"Delta":14749103},{"NoteNumber":48,"Velocity":40,"Duration":99614,"SoundDuration":99614,"Delta":14749103},{"NoteNumber":62,"Velocity":53,"Duration":98404,"SoundDuration":98404,"Delta":14849552},{"NoteNumber":48,"Velocity":40,"Duration":98404,"SoundDuration":98404,"Delta":14849552},{"NoteNumber":68,"Velocity":67,"Duration":97756,"SoundDuration":97756,"Delta":14948781},{"NoteNumber":53,"Velocity":57,"Duration":97756,"SoundDuration":97756,"Delta":14948781},{"NoteNumber":74,"Velocity":55,"Duration":97329,"SoundDuration":97329,"Delta":15047357},{"NoteNumber":60,"Velocity":41,"Duration":97329,"SoundDuration":97329,"Delta":15047357},{"NoteNumber":74,"Velocity":53,"Duration":96802,"SoundDuration":96802,"Delta":15145504},{"NoteNumber":60,"Velocity":41,"Duration":96802,"SoundDuration":96802,"Delta":15145504},{"NoteNumber":80,"Velocity":53,"Duration":96383,"SoundDuration":96383,"Delta":15243118},{"NoteNumber":65,"Velocity":41,"Duration":96383,"SoundDuration":96383,"Delta":15243118},{"NoteNumber":86,"Velocity":75,"Duration":95967,"SoundDuration":95967,"Delta":15340310},{"NoteNumber":72,"Velocity":56,"Duration":95967,"SoundDuration":95967,"Delta":15340310},{"NoteNumber":80,"Velocity":58,"Duration":96380,"SoundDuration":96380,"Delta":15437084},{"NoteNumber":65,"Velocity":46,"Duration":96380,"SoundDuration":96380,"Delta":15437084},{"NoteNumber":74,"Velocity":57,"Duration":96799,"SoundDuration":96799,"Delta":15534277},{"NoteNumber":60,"Velocity":46,"Duration":96799,"SoundDuration":96799,"Delta":15534277},{"NoteNumber":74,"Velocity":57,"Duration":97326,"SoundDuration":97326,"Delta":15631891},{"NoteNumber":60,"Velocity":46,"Duration":97326,"SoundDuration":97326,"Delta":15631891},{"NoteNumber":68,"Velocity":64,"Duration":99054,"SoundDuration":99054,"Delta":15730037},{"NoteNumber":53,"Velocity":52,"Duration":99054,"SoundDuration":99054,"Delta":15730037},{"NoteNumber":62,"Velocity":57,"Duration":101648,"SoundDuration":101648,"Delta":15829931},{"NoteNumber":48,"Velocity":41,"Duration":101648,"SoundDuration":101648,"Delta":15829931},{"NoteNumber":62,"Velocity":57,"Duration":104505,"SoundDuration":104505,"Delta":15932442},{"NoteNumber":48,"Velocity":41,"Duration":104505,"SoundDuration":104505,"Delta":15932442},{"NoteNumber":56,"Velocity":56,"Duration":107399,"SoundDuration":107399,"Delta":16037834},{"NoteNumber":41,"Velocity":41,"Duration":107399,"SoundDuration":107399,"Delta":16037834},{"NoteNumber":53,"Velocity":92,"Duration":99498,"SoundDuration":99498,"Delta":16146145},{"NoteNumber":36,"Velocity":63,"Duration":99498,"SoundDuration":99498,"Delta":16146145},{"NoteNumber":60,"Velocity":58,"Duration":99166,"SoundDuration":99166,"Delta":16246480},{"NoteNumber":44,"Velocity":47,"Duration":99166,"SoundDuration":99166,"Delta":16246480},{"NoteNumber":65,"Velocity":58,"Duration":98729,"SoundDuration":98729,"Delta":16346480},{"NoteNumber":48,"Velocity":47,"Duration":98729,"SoundDuration":98729,"Delta":16346480},{"NoteNumber":65,"Velocity":59,"Duration":98403,"SoundDuration":98403,"Delta":16446038},{"NoteNumber":48,"Velocity":48,"Duration":98403,"SoundDuration":98403,"Delta":16446038},{"NoteNumber":72,"Velocity":69,"Duration":98079,"SoundDuration":98079,"Delta":16545266},{"NoteNumber":56,"Velocity":59,"Duration":98079,"SoundDuration":98079,"Delta":16545266},{"NoteNumber":77,"Velocity":60,"Duration":97648,"SoundDuration":97648,"Delta":16644168},{"NoteNumber":60,"Velocity":47,"Duration":97648,"SoundDuration":97648,"Delta":16644168},{"NoteNumber":77,"Velocity":60,"Duration":97329,"SoundDuration":97329,"Delta":16742636},{"NoteNumber":60,"Velocity":47,"Duration":97329,"SoundDuration":97329,"Delta":16742636},{"NoteNumber":84,"Velocity":60,"Duration":97011,"SoundDuration":97011,"Delta":16840783},{"NoteNumber":68,"Velocity":47,"Duration":97011,"SoundDuration":97011,"Delta":16840783},{"NoteNumber":89,"Velocity":80,"Duration":96590,"SoundDuration":96590,"Delta":16938609},{"NoteNumber":72,"Velocity":57,"Duration":96590,"SoundDuration":96590,"Delta":16938609},{"NoteNumber":84,"Velocity":61,"Duration":96799,"SoundDuration":96799,"Delta":17036011},{"NoteNumber":68,"Velocity":47,"Duration":96799,"SoundDuration":96799,"Delta":17036011},{"NoteNumber":77,"Velocity":61,"Duration":97115,"SoundDuration":97115,"Delta":17133625},{"NoteNumber":60,"Velocity":47,"Duration":97115,"SoundDuration":97115,"Delta":17133625},{"NoteNumber":77,"Velocity":61,"Duration":97433,"SoundDuration":97433,"Delta":17231558},{"NoteNumber":60,"Velocity":47,"Duration":97433,"SoundDuration":97433,"Delta":17231558},{"NoteNumber":72,"Velocity":69,"Duration":98508,"SoundDuration":98508,"Delta":17329812},{"NoteNumber":56,"Velocity":53,"Duration":98508,"SoundDuration":98508,"Delta":17329812},{"NoteNumber":65,"Velocity":60,"Duration":101534,"SoundDuration":101534,"Delta":17429156},{"NoteNumber":48,"Velocity":41,"Duration":101534,"SoundDuration":101534,"Delta":17429156},{"NoteNumber":65,"Velocity":60,"Duration":104751,"SoundDuration":104751,"Delta":17531552},{"NoteNumber":48,"Velocity":41,"Duration":104751,"SoundDuration":104751,"Delta":17531552},{"NoteNumber":60,"Velocity":60,"Duration":108180,"SoundDuration":108180,"Delta":17637194},{"NoteNumber":44,"Velocity":41,"Duration":108180,"SoundDuration":108180,"Delta":17637194},{"NoteNumber":52,"Velocity":93,"Duration":99832,"SoundDuration":99832,"Delta":17746293},{"NoteNumber":36,"Velocity":69,"Duration":99832,"SoundDuration":99832,"Delta":17746293},{"NoteNumber":60,"Velocity":60,"Duration":99389,"SoundDuration":99389,"Delta":17846965},{"NoteNumber":43,"Velocity":47,"Duration":99389,"SoundDuration":99389,"Delta":17846965},{"NoteNumber":64,"Velocity":60,"Duration":98947,"SoundDuration":98947,"Delta":17947188},{"NoteNumber":48,"Velocity":47,"Duration":98947,"SoundDuration":98947,"Delta":17947188},{"NoteNumber":64,"Velocity":60,"Duration":98403,"SoundDuration":98403,"Delta":18046966},{"NoteNumber":48,"Velocity":47,"Duration":98403,"SoundDuration":98403,"Delta":18046966},{"NoteNumber":72,"Velocity":70,"Duration":97970,"SoundDuration":97970,"Delta":18146195},{"NoteNumber":55,"Velocity":60,"Duration":97970,"SoundDuration":97970,"Delta":18146195},{"NoteNumber":76,"Velocity":61,"Duration":97436,"SoundDuration":97436,"Delta":18244987},{"NoteNumber":60,"Velocity":48,"Duration":97436,"SoundDuration":97436,"Delta":18244987},{"NoteNumber":76,"Velocity":60,"Duration":97011,"SoundDuration":97011,"Delta":18343241},{"NoteNumber":60,"Velocity":47,"Duration":97011,"SoundDuration":97011,"Delta":18343241},{"NoteNumber":84,"Velocity":60,"Duration":96488,"SoundDuration":96488,"Delta":18441067},{"NoteNumber":67,"Velocity":47,"Duration":96488,"SoundDuration":96488,"Delta":18441067},{"NoteNumber":88,"Velocity":81,"Duration":96380,"SoundDuration":96380,"Delta":18538365},{"NoteNumber":72,"Velocity":58,"Duration":96380,"SoundDuration":96380,"Delta":18538365},{"NoteNumber":84,"Velocity":62,"Duration":96799,"SoundDuration":96799,"Delta":18635557},{"NoteNumber":67,"Velocity":48,"Duration":96799,"SoundDuration":96799,"Delta":18635557},{"NoteNumber":76,"Velocity":62,"Duration":97115,"SoundDuration":97115,"Delta":18733171},{"NoteNumber":60,"Velocity":48,"Duration":97115,"SoundDuration":97115,"Delta":18733171},{"NoteNumber":76,"Velocity":62,"Duration":97541,"SoundDuration":97541,"Delta":18831104},{"NoteNumber":60,"Velocity":48,"Duration":97541,"SoundDuration":97541,"Delta":18831104},{"NoteNumber":72,"Velocity":70,"Duration":98945,"SoundDuration":98945,"Delta":18929465},{"NoteNumber":55,"Velocity":55,"Duration":98945,"SoundDuration":98945,"Delta":18929465},{"NoteNumber":64,"Velocity":60,"Duration":102587,"SoundDuration":102587,"Delta":19029252},{"NoteNumber":48,"Velocity":47,"Duration":102587,"SoundDuration":102587,"Delta":19029252},{"NoteNumber":64,"Velocity":60,"Duration":106504,"SoundDuration":106504,"Delta":19132713},{"NoteNumber":48,"Velocity":47,"Duration":106504,"SoundDuration":106504,"Delta":19132713},{"NoteNumber":60,"Velocity":61,"Duration":110458,"SoundDuration":110458,"Delta":19240123},{"NoteNumber":43,"Velocity":47,"Duration":110458,"SoundDuration":110458,"Delta":19240123},{"NoteNumber":56,"Velocity":96,"Duration":99498,"SoundDuration":99498,"Delta":19351515},{"NoteNumber":41,"Velocity":71,"Duration":99498,"SoundDuration":99498,"Delta":19351515},{"NoteNumber":61,"Velocity":63,"Duration":99058,"SoundDuration":99058,"Delta":19451849},{"NoteNumber":49,"Velocity":53,"Duration":99058,"SoundDuration":99058,"Delta":19451849},{"NoteNumber":68,"Velocity":63,"Duration":98729,"SoundDuration":98729,"Delta":19551739},{"NoteNumber":53,"Velocity":47,"Duration":98729,"SoundDuration":98729,"Delta":19551739},{"NoteNumber":68,"Velocity":63,"Duration":98294,"SoundDuration":98294,"Delta":19651296},{"NoteNumber":53,"Velocity":47,"Duration":98294,"SoundDuration":98294,"Delta":19651296},{"NoteNumber":73,"Velocity":79,"Duration":97861,"SoundDuration":97861,"Delta":19750416},{"NoteNumber":61,"Velocity":67,"Duration":97861,"SoundDuration":97861,"Delta":19750416},{"NoteNumber":80,"Velocity":64,"Duration":97436,"SoundDuration":97436,"Delta":19849100},{"NoteNumber":65,"Velocity":47,"Duration":97436,"SoundDuration":97436,"Delta":19849100},{"NoteNumber":80,"Velocity":63,"Duration":97118,"SoundDuration":97118,"Delta":19947353},{"NoteNumber":65,"Velocity":48,"Duration":97118,"SoundDuration":97118,"Delta":19947353},{"NoteNumber":85,"Velocity":63,"Duration":96696,"SoundDuration":96696,"Delta":20045286},{"NoteNumber":73,"Velocity":48,"Duration":96696,"SoundDuration":96696,"Delta":20045286},{"NoteNumber":92,"Velocity":83,"Duration":96278,"SoundDuration":96278,"Delta":20142794},{"NoteNumber":77,"Velocity":66,"Duration":96278,"SoundDuration":96278,"Delta":20142794},{"NoteNumber":85,"Velocity":69,"Duration":96693,"SoundDuration":96693,"Delta":20239882},{"NoteNumber":73,"Velocity":53,"Duration":96693,"SoundDuration":96693,"Delta":20239882},{"NoteNumber":80,"Velocity":67,"Duration":97009,"SoundDuration":97009,"Delta":20337390},{"NoteNumber":65,"Velocity":53,"Duration":97009,"SoundDuration":97009,"Delta":20337390},{"NoteNumber":80,"Velocity":67,"Duration":97433,"SoundDuration":97433,"Delta":20435216},{"NoteNumber":65,"Velocity":53,"Duration":97433,"SoundDuration":97433,"Delta":20435216},{"NoteNumber":73,"Velocity":77,"Duration":98181,"SoundDuration":98181,"Delta":20533470},{"NoteNumber":61,"Velocity":60,"Duration":98181,"SoundDuration":98181,"Delta":20533470},{"NoteNumber":68,"Velocity":67,"Duration":100845,"SoundDuration":100845,"Delta":20632482},{"NoteNumber":53,"Velocity":48,"Duration":100845,"SoundDuration":100845,"Delta":20632482},{"NoteNumber":68,"Velocity":67,"Duration":104019,"SoundDuration":104019,"Delta":20734184},{"NoteNumber":53,"Velocity":48,"Duration":104019,"SoundDuration":104019,"Delta":20734184},{"NoteNumber":61,"Velocity":66,"Duration":104207,"SoundDuration":104207,"Delta":20839087},{"NoteNumber":49,"Velocity":48,"Duration":104207,"SoundDuration":104207,"Delta":20839087},{"NoteNumber":55,"Velocity":102,"Duration":98837,"SoundDuration":98837,"Delta":20944125},{"NoteNumber":43,"Velocity":76,"Duration":98837,"SoundDuration":98837,"Delta":20944125},{"NoteNumber":59,"Velocity":70,"Duration":98729,"SoundDuration":98729,"Delta":21043793},{"NoteNumber":50,"Velocity":57,"Duration":98729,"SoundDuration":98729,"Delta":21043793},{"NoteNumber":67,"Velocity":70,"Duration":98509,"SoundDuration":98509,"Delta":21143350},{"NoteNumber":53,"Velocity":57,"Duration":98509,"SoundDuration":98509,"Delta":21143350},{"NoteNumber":67,"Velocity":70,"Duration":98403,"SoundDuration":98403,"Delta":21242688},{"NoteNumber":55,"Velocity":57,"Duration":98403,"SoundDuration":98403,"Delta":21242688},{"NoteNumber":71,"Velocity":84,"Duration":98184,"SoundDuration":98184,"Delta":21341917},{"NoteNumber":62,"Velocity":71,"Duration":98184,"SoundDuration":98184,"Delta":21341917},{"NoteNumber":79,"Velocity":73,"Duration":98079,"SoundDuration":98079,"Delta":21440927},{"NoteNumber":65,"Velocity":55,"Duration":98079,"SoundDuration":98079,"Delta":21440927},{"NoteNumber":79,"Velocity":73,"Duration":97861,"SoundDuration":97861,"Delta":21539828},{"NoteNumber":67,"Velocity":55,"Duration":97861,"SoundDuration":97861,"Delta":21539828},{"NoteNumber":83,"Velocity":73,"Duration":97648,"SoundDuration":97648,"Delta":21638512},{"NoteNumber":71,"Velocity":55,"Duration":97648,"SoundDuration":97648,"Delta":21638512},{"NoteNumber":91,"Velocity":84,"Duration":97754,"SoundDuration":97754,"Delta":21736981},{"NoteNumber":77,"Velocity":69,"Duration":97754,"SoundDuration":97754,"Delta":21736981},{"NoteNumber":83,"Velocity":74,"Duration":98184,"SoundDuration":98184,"Delta":21835557},{"NoteNumber":71,"Velocity":54,"Duration":98184,"SoundDuration":98184,"Delta":21835557},{"NoteNumber":79,"Velocity":74,"Duration":98617,"SoundDuration":98617,"Delta":21934567},{"NoteNumber":67,"Velocity":54,"Duration":98617,"SoundDuration":98617,"Delta":21934567},{"NoteNumber":79,"Velocity":75,"Duration":98187,"SoundDuration":98187,"Delta":22034015},{"NoteNumber":65,"Velocity":54,"Duration":98187,"SoundDuration":98187,"Delta":22034015},{"NoteNumber":71,"Velocity":84,"Duration":101888,"SoundDuration":101888,"Delta":22133028},{"NoteNumber":62,"Velocity":64,"Duration":101888,"SoundDuration":101888,"Delta":22133028},{"NoteNumber":67,"Velocity":74,"Duration":107407,"SoundDuration":107407,"Delta":22235788},{"NoteNumber":55,"Velocity":51,"Duration":107407,"SoundDuration":107407,"Delta":22235788},{"NoteNumber":67,"Velocity":74,"Duration":113558,"SoundDuration":113558,"Delta":22344114},{"NoteNumber":50,"Velocity":51,"Duration":113558,"SoundDuration":113558,"Delta":22344114},{"NoteNumber":59,"Velocity":74,"Duration":120457,"SoundDuration":120457,"Delta":22458646},{"NoteNumber":43,"Velocity":51,"Duration":120457,"SoundDuration":120457,"Delta":22458646},{"NoteNumber":52,"Velocity":107,"Duration":111253,"SoundDuration":111253,"Delta":22580137},{"NoteNumber":36,"Velocity":80,"Duration":111253,"SoundDuration":111253,"Delta":22580137},{"NoteNumber":55,"Velocity":71,"Duration":101892,"SoundDuration":101892,"Delta":22692262},{"NoteNumber":43,"Velocity":59,"Duration":101892,"SoundDuration":101892,"Delta":22692262},{"NoteNumber":64,"Velocity":72,"Duration":99620,"SoundDuration":99620,"Delta":22795004},{"NoteNumber":48,"Velocity":59,"Duration":99620,"SoundDuration":99620,"Delta":22795004},{"NoteNumber":64,"Velocity":72,"Duration":97650,"SoundDuration":97650,"Delta":22895456},{"NoteNumber":48,"Velocity":59,"Duration":97650,"SoundDuration":97650,"Delta":22895456},{"NoteNumber":67,"Velocity":85,"Duration":97436,"SoundDuration":97436,"Delta":22993926},{"NoteNumber":55,"Velocity":72,"Duration":97436,"SoundDuration":97436,"Delta":22993926},{"NoteNumber":76,"Velocity":74,"Duration":97011,"SoundDuration":97011,"Delta":23092179},{"NoteNumber":60,"Velocity":58,"Duration":97011,"SoundDuration":97011,"Delta":23092179},{"NoteNumber":76,"Velocity":74,"Duration":96696,"SoundDuration":96696,"Delta":23190005},{"NoteNumber":60,"Velocity":58,"Duration":96696,"SoundDuration":96696,"Delta":23190005},{"NoteNumber":79,"Velocity":74,"Duration":96383,"SoundDuration":96383,"Delta":23287514},{"NoteNumber":67,"Velocity":58,"Duration":96383,"SoundDuration":96383,"Delta":23287514},{"NoteNumber":88,"Velocity":88,"Duration":96069,"SoundDuration":96069,"Delta":23384706},{"NoteNumber":72,"Velocity":70,"Duration":96069,"SoundDuration":96069,"Delta":23384706},{"NoteNumber":88,"Velocity":77,"Duration":96485,"SoundDuration":96485,"Delta":23481585},{"NoteNumber":72,"Velocity":58,"Duration":96485,"SoundDuration":96485,"Delta":23481585},{"NoteNumber":91,"Velocity":77,"Duration":97009,"SoundDuration":97009,"Delta":23578882},{"NoteNumber":79,"Velocity":58,"Duration":97009,"SoundDuration":97009,"Delta":23578882},{"NoteNumber":100,"Velocity":77,"Duration":97644,"SoundDuration":97644,"Delta":23676709},{"NoteNumber":84,"Velocity":58,"Duration":97644,"SoundDuration":97644,"Delta":23676709},{"NoteNumber":91,"Velocity":86,"Duration":99718,"SoundDuration":99718,"Delta":23775179},{"NoteNumber":79,"Velocity":66,"Duration":99718,"SoundDuration":99718,"Delta":23775179},{"NoteNumber":88,"Velocity":75,"Duration":102348,"SoundDuration":102348,"Delta":23875742},{"NoteNumber":72,"Velocity":52,"Duration":102348,"SoundDuration":102348,"Delta":23875742},{"NoteNumber":88,"Velocity":75,"Duration":104998,"SoundDuration":104998,"Delta":23978958},{"NoteNumber":72,"Velocity":52,"Duration":104998,"SoundDuration":104998,"Delta":23978958},{"NoteNumber":79,"Velocity":75,"Duration":101804,"SoundDuration":101804,"Delta":24084846},{"NoteNumber":67,"Velocity":52,"Duration":101804,"SoundDuration":101804,"Delta":24084846},{"NoteNumber":76,"Velocity":75,"Duration":100847,"SoundDuration":100847,"Delta":24187484},{"NoteNumber":60,"Velocity":70,"Duration":100847,"SoundDuration":100847,"Delta":24187484},{"NoteNumber":76,"Velocity":63,"Duration":100506,"SoundDuration":100506,"Delta":24289179},{"NoteNumber":60,"Velocity":51,"Duration":100506,"SoundDuration":100506,"Delta":24289179},{"NoteNumber":67,"Velocity":63,"Duration":100058,"SoundDuration":100058,"Delta":24390530},{"NoteNumber":55,"Velocity":51,"Duration":100058,"SoundDuration":100058,"Delta":24390530},{"NoteNumber":64,"Velocity":63,"Duration":99722,"SoundDuration":99722,"Delta":24491427},{"NoteNumber":48,"Velocity":51,"Duration":99722,"SoundDuration":99722,"Delta":24491427},{"NoteNumber":64,"Velocity":95,"Duration":400111,"SoundDuration":400111,"Delta":24591986},{"NoteNumber":48,"Velocity":63,"Duration":99278,"SoundDuration":99278,"Delta":24591986},{"NoteNumber":55,"Velocity":64,"Duration":99166,"SoundDuration":99166,"Delta":24692098},{"NoteNumber":43,"Velocity":50,"Duration":99166,"SoundDuration":99166,"Delta":24692098},{"NoteNumber":52,"Velocity":64,"Duration":99166,"SoundDuration":99166,"Delta":24792098},{"NoteNumber":36,"Velocity":50,"Duration":99166,"SoundDuration":99166,"Delta":24792098},{"NoteNumber":55,"Velocity":64,"Duration":99166,"SoundDuration":99166,"Delta":24892098},{"NoteNumber":43,"Velocity":50,"Duration":99166,"SoundDuration":99166,"Delta":24892098},{"NoteNumber":50,"Velocity":95,"Duration":99608,"SoundDuration":99608,"Delta":24992098},{"NoteNumber":47,"Velocity":78,"Duration":99608,"SoundDuration":99608,"Delta":24992098},{"NoteNumber":55,"Velocity":67,"Duration":99610,"SoundDuration":99610,"Delta":25092545},{"NoteNumber":43,"Velocity":50,"Duration":99610,"SoundDuration":99610,"Delta":25092545},{"NoteNumber":62,"Velocity":84,"Duration":99278,"SoundDuration":99278,"Delta":25192992},{"NoteNumber":36,"Velocity":50,"Duration":99278,"SoundDuration":99278,"Delta":25192992},{"NoteNumber":55,"Velocity":68,"Duration":98734,"SoundDuration":98734,"Delta":25293104},{"NoteNumber":43,"Velocity":50,"Duration":98734,"SoundDuration":98734,"Delta":25293104},{"NoteNumber":53,"Velocity":94,"Duration":99718,"SoundDuration":99718,"Delta":25392663},{"NoteNumber":50,"Velocity":79,"Duration":99718,"SoundDuration":99718,"Delta":25392663},{"NoteNumber":55,"Velocity":70,"Duration":102348,"SoundDuration":102348,"Delta":25493226},{"NoteNumber":43,"Velocity":45,"Duration":102348,"SoundDuration":102348,"Delta":25493226},{"NoteNumber":67,"Velocity":83,"Duration":104998,"SoundDuration":104998,"Delta":25596442},{"NoteNumber":36,"Velocity":45,"Duration":104998,"SoundDuration":104998,"Delta":25596442},{"NoteNumber":55,"Velocity":64,"Duration":101804,"SoundDuration":101804,"Delta":25702330},{"NoteNumber":43,"Velocity":45,"Duration":101804,"SoundDuration":101804,"Delta":25702330},{"NoteNumber":52,"Velocity":106,"Duration":98837,"SoundDuration":98837,"Delta":25804968},{"NoteNumber":36,"Velocity":77,"Duration":98837,"SoundDuration":98837,"Delta":25804968},{"NoteNumber":55,"Velocity":69,"Duration":98509,"SoundDuration":98509,"Delta":25904636},{"NoteNumber":43,"Velocity":56,"Duration":98509,"SoundDuration":98509,"Delta":25904636},{"NoteNumber":64,"Velocity":69,"Duration":98079,"SoundDuration":98079,"Delta":26003974},{"NoteNumber":48,"Velocity":56,"Duration":98079,"SoundDuration":98079,"Delta":26003974},{"NoteNumber":64,"Velocity":69,"Duration":196830,"SoundDuration":196830,"Delta":26102875},{"NoteNumber":48,"Velocity":56,"Duration":97756,"SoundDuration":97756,"Delta":26102875},{"NoteNumber":67,"Velocity":80,"Duration":97436,"SoundDuration":97436,"Delta":26201451},{"NoteNumber":55,"Velocity":69,"Duration":97436,"SoundDuration":97436,"Delta":26201451},{"NoteNumber":76,"Velocity":70,"Duration":97011,"SoundDuration":97011,"Delta":26299705},{"NoteNumber":60,"Velocity":55,"Duration":97011,"SoundDuration":97011,"Delta":26299705},{"NoteNumber":76,"Velocity":70,"Duration":96696,"SoundDuration":96696,"Delta":26397531},{"NoteNumber":60,"Velocity":55,"Duration":96696,"SoundDuration":96696,"Delta":26397531},{"NoteNumber":79,"Velocity":70,"Duration":96383,"SoundDuration":96383,"Delta":26495040},{"NoteNumber":67,"Velocity":55,"Duration":96383,"SoundDuration":96383,"Delta":26495040},{"NoteNumber":88,"Velocity":87,"Duration":96069,"SoundDuration":96069,"Delta":26592232},{"NoteNumber":72,"Velocity":66,"Duration":96069,"SoundDuration":96069,"Delta":26592232},{"NoteNumber":88,"Velocity":71,"Duration":96485,"SoundDuration":96485,"Delta":26689111},{"NoteNumber":72,"Velocity":55,"Duration":96485,"SoundDuration":96485,"Delta":26689111},{"NoteNumber":91,"Velocity":71,"Duration":97009,"SoundDuration":97009,"Delta":26786408},{"NoteNumber":79,"Velocity":55,"Duration":97009,"SoundDuration":97009,"Delta":26786408},{"NoteNumber":100,"Velocity":71,"Duration":97644,"SoundDuration":97644,"Delta":26884234},{"NoteNumber":84,"Velocity":55,"Duration":97644,"SoundDuration":97644,"Delta":26884234},{"NoteNumber":91,"Velocity":80,"Duration":99718,"SoundDuration":99718,"Delta":26982704},{"NoteNumber":79,"Velocity":61,"Duration":99718,"SoundDuration":99718,"Delta":26982704},{"NoteNumber":88,"Velocity":69,"Duration":102348,"SoundDuration":102348,"Delta":27083268},{"NoteNumber":72,"Velocity":48,"Duration":102348,"SoundDuration":102348,"Delta":27083268},{"NoteNumber":88,"Velocity":69,"Duration":104998,"SoundDuration":104998,"Delta":27186484},{"NoteNumber":72,"Velocity":48,"Duration":104998,"SoundDuration":104998,"Delta":27186484},{"NoteNumber":79,"Velocity":69,"Duration":101804,"SoundDuration":101804,"Delta":27292372},{"NoteNumber":67,"Velocity":48,"Duration":101804,"SoundDuration":101804,"Delta":27292372},{"NoteNumber":76,"Velocity":72,"Duration":102824,"SoundDuration":102824,"Delta":27395010},{"NoteNumber":60,"Velocity":68,"Duration":102824,"SoundDuration":102824,"Delta":27395010},{"NoteNumber":76,"Velocity":62,"Duration":102352,"SoundDuration":102352,"Delta":27498697},{"NoteNumber":60,"Velocity":50,"Duration":102352,"SoundDuration":102352,"Delta":27498697},{"NoteNumber":67,"Velocity":62,"Duration":101769,"SoundDuration":101769,"Delta":27601908},{"NoteNumber":55,"Velocity":50,"Duration":101769,"SoundDuration":101769,"Delta":27601908},{"NoteNumber":64,"Velocity":62,"Duration":101306,"SoundDuration":101306,"Delta":27704531},{"NoteNumber":48,"Velocity":50,"Duration":101306,"SoundDuration":101306,"Delta":27704531},{"NoteNumber":64,"Velocity":92,"Duration":405519,"SoundDuration":405519,"Delta":27806688},{"NoteNumber":48,"Velocity":61,"Duration":100621,"SoundDuration":100621,"Delta":27806688},{"NoteNumber":55,"Velocity":62,"Duration":100506,"SoundDuration":100506,"Delta":27908153},{"NoteNumber":43,"Velocity":49,"Duration":100506,"SoundDuration":100506,"Delta":27908153},{"NoteNumber":52,"Velocity":62,"Duration":100506,"SoundDuration":100506,"Delta":28009505},{"NoteNumber":36,"Velocity":49,"Duration":100506,"SoundDuration":100506,"Delta":28009505},{"NoteNumber":55,"Velocity":62,"Duration":100506,"SoundDuration":100506,"Delta":28110856},{"NoteNumber":43,"Velocity":49,"Duration":100506,"SoundDuration":100506,"Delta":28110856},{"NoteNumber":50,"Velocity":89,"Duration":100506,"SoundDuration":100506,"Delta":28212207},{"NoteNumber":47,"Velocity":64,"Duration":100506,"SoundDuration":100506,"Delta":28212207},{"NoteNumber":55,"Velocity":63,"Duration":100506,"SoundDuration":100506,"Delta":28313558},{"NoteNumber":43,"Velocity":49,"Duration":100506,"SoundDuration":100506,"Delta":28313558},{"NoteNumber":62,"Velocity":69,"Duration":413138,"SoundDuration":413138,"Delta":28414910},{"NoteNumber":36,"Velocity":49,"Duration":100506,"SoundDuration":100506,"Delta":28414910},{"NoteNumber":55,"Velocity":66,"Duration":100730,"SoundDuration":100730,"Delta":28516261},{"NoteNumber":43,"Velocity":49,"Duration":100730,"SoundDuration":100730,"Delta":28516261},{"NoteNumber":48,"Velocity":86,"Duration":102820,"SoundDuration":102820,"Delta":28617842},{"NoteNumber":45,"Velocity":62,"Duration":102820,"SoundDuration":102820,"Delta":28617842},{"NoteNumber":55,"Velocity":67,"Duration":105618,"SoundDuration":105618,"Delta":28721534},{"NoteNumber":43,"Velocity":42,"Duration":105618,"SoundDuration":105618,"Delta":28721534},{"NoteNumber":60,"Velocity":68,"Duration":221868,"SoundDuration":221868,"Delta":28828048},{"NoteNumber":36,"Velocity":42,"Duration":108442,"SoundDuration":108442,"Delta":28828048},{"NoteNumber":55,"Velocity":62,"Duration":111559,"SoundDuration":111559,"Delta":28937411},{"NoteNumber":43,"Velocity":42,"Duration":111559,"SoundDuration":111559,"Delta":28937411},{"NoteNumber":50,"Velocity":95,"Duration":98837,"SoundDuration":98837,"Delta":29049917},{"NoteNumber":36,"Velocity":73,"Duration":98837,"SoundDuration":98837,"Delta":29049917},{"NoteNumber":55,"Velocity":67,"Duration":98509,"SoundDuration":98509,"Delta":29149585},{"NoteNumber":43,"Velocity":53,"Duration":98509,"SoundDuration":98509,"Delta":29149585},{"NoteNumber":62,"Velocity":67,"Duration":98079,"SoundDuration":98079,"Delta":29248923},{"NoteNumber":47,"Velocity":53,"Duration":98079,"SoundDuration":98079,"Delta":29248923},{"NoteNumber":62,"Velocity":67,"Duration":196830,"SoundDuration":196830,"Delta":29347824},{"NoteNumber":47,"Velocity":53,"Duration":97756,"SoundDuration":97756,"Delta":29347824},{"NoteNumber":67,"Velocity":78,"Duration":97436,"SoundDuration":97436,"Delta":29446401},{"NoteNumber":55,"Velocity":67,"Duration":97436,"SoundDuration":97436,"Delta":29446401},{"NoteNumber":74,"Velocity":68,"Duration":97011,"SoundDuration":97011,"Delta":29544654},{"NoteNumber":59,"Velocity":52,"Duration":97011,"SoundDuration":97011,"Delta":29544654},{"NoteNumber":74,"Velocity":67,"Duration":96696,"SoundDuration":96696,"Delta":29642480},{"NoteNumber":60,"Velocity":52,"Duration":96696,"SoundDuration":96696,"Delta":29642480},{"NoteNumber":79,"Velocity":67,"Duration":96383,"SoundDuration":96383,"Delta":29739989},{"NoteNumber":67,"Velocity":52,"Duration":96383,"SoundDuration":96383,"Delta":29739989},{"NoteNumber":86,"Velocity":80,"Duration":96069,"SoundDuration":96069,"Delta":29837181},{"NoteNumber":71,"Velocity":63,"Duration":96069,"SoundDuration":96069,"Delta":29837181},{"NoteNumber":86,"Velocity":68,"Duration":96485,"SoundDuration":96485,"Delta":29934060},{"NoteNumber":72,"Velocity":52,"Duration":96485,"SoundDuration":96485,"Delta":29934060},{"NoteNumber":91,"Velocity":68,"Duration":97009,"SoundDuration":97009,"Delta":30031357},{"NoteNumber":79,"Velocity":52,"Duration":97009,"SoundDuration":97009,"Delta":30031357},{"NoteNumber":98,"Velocity":68,"Duration":97644,"SoundDuration":97644,"Delta":30129184},{"NoteNumber":83,"Velocity":52,"Duration":97644,"SoundDuration":97644,"Delta":30129184},{"NoteNumber":91,"Velocity":78,"Duration":99718,"SoundDuration":99718,"Delta":30227654},{"NoteNumber":79,"Velocity":59,"Duration":99718,"SoundDuration":99718,"Delta":30227654},{"NoteNumber":86,"Velocity":67,"Duration":102348,"SoundDuration":102348,"Delta":30328217},{"NoteNumber":72,"Velocity":47,"Duration":102348,"SoundDuration":102348,"Delta":30328217},{"NoteNumber":86,"Velocity":67,"Duration":104998,"SoundDuration":104998,"Delta":30431433},{"NoteNumber":71,"Velocity":47,"Duration":104998,"SoundDuration":104998,"Delta":30431433},{"NoteNumber":79,"Velocity":67,"Duration":102118,"SoundDuration":102118,"Delta":30537321},{"NoteNumber":67,"Velocity":46,"Duration":102118,"SoundDuration":102118,"Delta":30537321},{"NoteNumber":74,"Velocity":70,"Duration":101652,"SoundDuration":101652,"Delta":30640296},{"NoteNumber":60,"Velocity":66,"Duration":101652,"SoundDuration":101652,"Delta":30640296},{"NoteNumber":74,"Velocity":60,"Duration":101078,"SoundDuration":101078,"Delta":30742802},{"NoteNumber":59,"Velocity":48,"Duration":101078,"SoundDuration":101078,"Delta":30742802},{"NoteNumber":67,"Velocity":60,"Duration":100621,"SoundDuration":100621,"Delta":30844727},{"NoteNumber":55,"Velocity":48,"Duration":100621,"SoundDuration":100621,"Delta":30844727},{"NoteNumber":62,"Velocity":60,"Duration":100058,"SoundDuration":100058,"Delta":30946193},{"NoteNumber":48,"Velocity":48,"Duration":100058,"SoundDuration":100058,"Delta":30946193},{"NoteNumber":62,"Velocity":83,"Duration":405758,"SoundDuration":405758,"Delta":31047090},{"NoteNumber":47,"Velocity":52,"Duration":99942,"SoundDuration":99942,"Delta":31047090},{"NoteNumber":55,"Velocity":53,"Duration":100392,"SoundDuration":100392,"Delta":31147875},{"NoteNumber":43,"Velocity":40,"Duration":100392,"SoundDuration":100392,"Delta":31147875},{"NoteNumber":50,"Velocity":53,"Duration":100732,"SoundDuration":100732,"Delta":31249112},{"NoteNumber":36,"Velocity":40,"Duration":100732,"SoundDuration":100732,"Delta":31249112},{"NoteNumber":55,"Velocity":53,"Duration":101303,"SoundDuration":101303,"Delta":31350692},{"NoteNumber":43,"Velocity":40,"Duration":101303,"SoundDuration":101303,"Delta":31350692},{"NoteNumber":48,"Velocity":80,"Duration":101649,"SoundDuration":101649,"Delta":31452849},{"NoteNumber":45,"Velocity":56,"Duration":101649,"SoundDuration":101649,"Delta":31452849},{"NoteNumber":53,"Velocity":55,"Duration":102115,"SoundDuration":102115,"Delta":31555355},{"NoteNumber":41,"Velocity":40,"Duration":102115,"SoundDuration":102115,"Delta":31555355},{"NoteNumber":60,"Velocity":59,"Duration":417539,"SoundDuration":417539,"Delta":31658330},{"NoteNumber":36,"Velocity":40,"Duration":102586,"SoundDuration":102586,"Delta":31658330},{"NoteNumber":53,"Velocity":57,"Duration":103058,"SoundDuration":103058,"Delta":31761779},{"NoteNumber":41,"Velocity":40,"Duration":103058,"SoundDuration":103058,"Delta":31761779},{"NoteNumber":48,"Velocity":75,"Duration":103656,"SoundDuration":103656,"Delta":31865705},{"NoteNumber":45,"Velocity":53,"Duration":103656,"SoundDuration":103656,"Delta":31865705},{"NoteNumber":53,"Velocity":58,"Duration":104751,"SoundDuration":104751,"Delta":31970235},{"NoteNumber":41,"Velocity":37,"Duration":104751,"SoundDuration":104751,"Delta":31970235},{"NoteNumber":57,"Velocity":59,"Duration":213283,"SoundDuration":213283,"Delta":32075870},{"NoteNumber":36,"Velocity":37,"Duration":105869,"SoundDuration":105869,"Delta":32075870},{"NoteNumber":53,"Velocity":53,"Duration":105641,"SoundDuration":105641,"Delta":32182632},{"NoteNumber":41,"Velocity":37,"Duration":105641,"SoundDuration":105641,"Delta":32182632},{"NoteNumber":48,"Velocity":77,"Duration":99498,"SoundDuration":99498,"Delta":32289154},{"NoteNumber":36,"Velocity":58,"Duration":99498,"SoundDuration":99498,"Delta":32289154},{"NoteNumber":53,"Velocity":52,"Duration":99166,"SoundDuration":99166,"Delta":32389488},{"NoteNumber":44,"Velocity":41,"Duration":99166,"SoundDuration":99166,"Delta":32389488},{"NoteNumber":60,"Velocity":52,"Duration":98729,"SoundDuration":98729,"Delta":32489488},{"NoteNumber":48,"Velocity":41,"Duration":98729,"SoundDuration":98729,"Delta":32489488},{"NoteNumber":60,"Velocity":52,"Duration":98403,"SoundDuration":98403,"Delta":32589046},{"NoteNumber":48,"Velocity":41,"Duration":98403,"SoundDuration":98403,"Delta":32589046},{"NoteNumber":65,"Velocity":61,"Duration":98079,"SoundDuration":98079,"Delta":32688275},{"NoteNumber":56,"Velocity":52,"Duration":98079,"SoundDuration":98079,"Delta":32688275},{"NoteNumber":72,"Velocity":53,"Duration":97648,"SoundDuration":97648,"Delta":32787176},{"NoteNumber":60,"Velocity":40,"Duration":97648,"SoundDuration":97648,"Delta":32787176},{"NoteNumber":72,"Velocity":53,"Duration":97329,"SoundDuration":97329,"Delta":32885645},{"NoteNumber":60,"Velocity":40,"Duration":97329,"SoundDuration":97329,"Delta":32885645},{"NoteNumber":77,"Velocity":53,"Duration":97011,"SoundDuration":97011,"Delta":32983791},{"NoteNumber":68,"Velocity":40,"Duration":97011,"SoundDuration":97011,"Delta":32983791},{"NoteNumber":84,"Velocity":69,"Duration":96590,"SoundDuration":96590,"Delta":33081617},{"NoteNumber":72,"Velocity":51,"Duration":96590,"SoundDuration":96590,"Delta":33081617},{"NoteNumber":77,"Velocity":55,"Duration":96799,"SoundDuration":96799,"Delta":33179020},{"NoteNumber":68,"Velocity":40,"Duration":96799,"SoundDuration":96799,"Delta":33179020},{"NoteNumber":72,"Velocity":55,"Duration":97115,"SoundDuration":97115,"Delta":33276634},{"NoteNumber":60,"Velocity":40,"Duration":97115,"SoundDuration":97115,"Delta":33276634},{"NoteNumber":72,"Velocity":55,"Duration":97433,"SoundDuration":97433,"Delta":33374566},{"NoteNumber":60,"Velocity":40,"Duration":97433,"SoundDuration":97433,"Delta":33374566},{"NoteNumber":65,"Velocity":61,"Duration":98508,"SoundDuration":98508,"Delta":33472820},{"NoteNumber":56,"Velocity":48,"Duration":98508,"SoundDuration":98508,"Delta":33472820},{"NoteNumber":60,"Velocity":53,"Duration":101534,"SoundDuration":101534,"Delta":33572164},{"NoteNumber":48,"Velocity":37,"Duration":101534,"SoundDuration":101534,"Delta":33572164},{"NoteNumber":60,"Velocity":53,"Duration":104751,"SoundDuration":104751,"Delta":33674561},{"NoteNumber":48,"Velocity":37,"Duration":104751,"SoundDuration":104751,"Delta":33674561},{"NoteNumber":53,"Velocity":53,"Duration":108180,"SoundDuration":108180,"Delta":33780202},{"NoteNumber":44,"Velocity":37,"Duration":108180,"SoundDuration":108180,"Delta":33780202},{"NoteNumber":48,"Velocity":77,"Duration":99498,"SoundDuration":99498,"Delta":33889302},{"NoteNumber":36,"Velocity":58,"Duration":99498,"SoundDuration":99498,"Delta":33889302},{"NoteNumber":52,"Velocity":52,"Duration":99166,"SoundDuration":99166,"Delta":33989636},{"NoteNumber":43,"Velocity":41,"Duration":99166,"SoundDuration":99166,"Delta":33989636},{"NoteNumber":60,"Velocity":52,"Duration":98729,"SoundDuration":98729,"Delta":34089636},{"NoteNumber":48,"Velocity":41,"Duration":98729,"SoundDuration":98729,"Delta":34089636},{"NoteNumber":60,"Velocity":52,"Duration":98403,"SoundDuration":98403,"Delta":34189194},{"NoteNumber":48,"Velocity":41,"Duration":98403,"SoundDuration":98403,"Delta":34189194},{"NoteNumber":64,"Velocity":61,"Duration":98079,"SoundDuration":98079,"Delta":34288422},{"NoteNumber":55,"Velocity":52,"Duration":98079,"SoundDuration":98079,"Delta":34288422},{"NoteNumber":72,"Velocity":53,"Duration":97648,"SoundDuration":97648,"Delta":34387324},{"NoteNumber":60,"Velocity":40,"Duration":97648,"SoundDuration":97648,"Delta":34387324},{"NoteNumber":72,"Velocity":53,"Duration":97329,"SoundDuration":97329,"Delta":34485792},{"NoteNumber":60,"Velocity":40,"Duration":97329,"SoundDuration":97329,"Delta":34485792},{"NoteNumber":76,"Velocity":53,"Duration":97011,"SoundDuration":97011,"Delta":34583939},{"NoteNumber":67,"Velocity":40,"Duration":97011,"SoundDuration":97011,"Delta":34583939},{"NoteNumber":84,"Velocity":69,"Duration":96590,"SoundDuration":96590,"Delta":34681765},{"NoteNumber":72,"Velocity":51,"Duration":96590,"SoundDuration":96590,"Delta":34681765},{"NoteNumber":76,"Velocity":55,"Duration":96799,"SoundDuration":96799,"Delta":34779168},{"NoteNumber":67,"Velocity":40,"Duration":96799,"SoundDuration":96799,"Delta":34779168},{"NoteNumber":72,"Velocity":55,"Duration":97115,"SoundDuration":97115,"Delta":34876782},{"NoteNumber":60,"Velocity":40,"Duration":97115,"SoundDuration":97115,"Delta":34876782},{"NoteNumber":72,"Velocity":55,"Duration":97433,"SoundDuration":97433,"Delta":34974714},{"NoteNumber":60,"Velocity":40,"Duration":97433,"SoundDuration":97433,"Delta":34974714},{"NoteNumber":64,"Velocity":61,"Duration":100198,"SoundDuration":100198,"Delta":35072968},{"NoteNumber":55,"Velocity":48,"Duration":100198,"SoundDuration":100198,"Delta":35072968},{"NoteNumber":60,"Velocity":53,"Duration":111781,"SoundDuration":111781,"Delta":35174034},{"NoteNumber":48,"Velocity":37,"Duration":111781,"SoundDuration":111781,"Delta":35174034},{"NoteNumber":60,"Velocity":53,"Duration":127078,"SoundDuration":127078,"Delta":35286792},{"NoteNumber":48,"Velocity":37,"Duration":127078,"SoundDuration":127078,"Delta":35286792},{"NoteNumber":52,"Velocity":53,"Duration":147500,"SoundDuration":147500,"Delta":35414986},{"NoteNumber":43,"Velocity":37,"Duration":147500,"SoundDuration":147500,"Delta":35414986},{"NoteNumber":48,"Velocity":75,"Duration":102233,"SoundDuration":102233,"Delta":35563795},{"NoteNumber":32,"Velocity":53,"Duration":102233,"SoundDuration":102233,"Delta":35563795},{"NoteNumber":51,"Velocity":48,"Duration":101769,"SoundDuration":101769,"Delta":35666888},{"NoteNumber":39,"Velocity":38,"Duration":101769,"SoundDuration":101769,"Delta":35666888},{"NoteNumber":60,"Velocity":48,"Duration":101306,"SoundDuration":101306,"Delta":35769511},{"NoteNumber":44,"Velocity":38,"Duration":101306,"SoundDuration":101306,"Delta":35769511},{"NoteNumber":60,"Velocity":48,"Duration":100962,"SoundDuration":100962,"Delta":35871668},{"NoteNumber":44,"Velocity":38,"Duration":100962,"SoundDuration":100962,"Delta":35871668},{"NoteNumber":63,"Velocity":56,"Duration":100395,"SoundDuration":100395,"Delta":35973478},{"NoteNumber":51,"Velocity":48,"Duration":100395,"SoundDuration":100395,"Delta":35973478},{"NoteNumber":72,"Velocity":49,"Duration":100058,"SoundDuration":100058,"Delta":36074715},{"NoteNumber":56,"Velocity":37,"Duration":100058,"SoundDuration":100058,"Delta":36074715},{"NoteNumber":72,"Velocity":49,"Duration":99610,"SoundDuration":99610,"Delta":36175613},{"NoteNumber":56,"Velocity":37,"Duration":99610,"SoundDuration":99610,"Delta":36175613},{"NoteNumber":75,"Velocity":49,"Duration":99058,"SoundDuration":99058,"Delta":36276059},{"NoteNumber":63,"Velocity":37,"Duration":99058,"SoundDuration":99058,"Delta":36276059},{"NoteNumber":84,"Velocity":63,"Duration":98837,"SoundDuration":98837,"Delta":36375949},{"NoteNumber":68,"Velocity":47,"Duration":98837,"SoundDuration":98837,"Delta":36375949},{"NoteNumber":84,"Velocity":49,"Duration":99166,"SoundDuration":99166,"Delta":36475616},{"NoteNumber":68,"Velocity":37,"Duration":99166,"SoundDuration":99166,"Delta":36475616},{"NoteNumber":87,"Velocity":49,"Duration":99498,"SoundDuration":99498,"Delta":36575616},{"NoteNumber":75,"Velocity":37,"Duration":99498,"SoundDuration":99498,"Delta":36575616},{"NoteNumber":96,"Velocity":49,"Duration":99832,"SoundDuration":99832,"Delta":36675951},{"NoteNumber":80,"Velocity":37,"Duration":99832,"SoundDuration":99832,"Delta":36675951},{"NoteNumber":87,"Velocity":56,"Duration":100168,"SoundDuration":100168,"Delta":36776622},{"NoteNumber":75,"Velocity":44,"Duration":100168,"SoundDuration":100168,"Delta":36776622},{"NoteNumber":84,"Velocity":49,"Duration":101534,"SoundDuration":101534,"Delta":36877632},{"NoteNumber":68,"Velocity":34,"Duration":101534,"SoundDuration":101534,"Delta":36877632},{"NoteNumber":84,"Velocity":49,"Duration":104751,"SoundDuration":104751,"Delta":36980028},{"NoteNumber":68,"Velocity":34,"Duration":104751,"SoundDuration":104751,"Delta":36980028},{"NoteNumber":75,"Velocity":49,"Duration":108180,"SoundDuration":108180,"Delta":37085670},{"NoteNumber":63,"Velocity":34,"Duration":108180,"SoundDuration":108180,"Delta":37085670},{"NoteNumber":72,"Velocity":60,"Duration":102586,"SoundDuration":102586,"Delta":37194769},{"NoteNumber":56,"Velocity":50,"Duration":102586,"SoundDuration":102586,"Delta":37194769},{"NoteNumber":72,"Velocity":48,"Duration":102118,"SoundDuration":102118,"Delta":37298218},{"NoteNumber":56,"Velocity":38,"Duration":102118,"SoundDuration":102118,"Delta":37298218},{"NoteNumber":63,"Velocity":48,"Duration":101652,"SoundDuration":101652,"Delta":37401193},{"NoteNumber":51,"Velocity":38,"Duration":101652,"SoundDuration":101652,"Delta":37401193},{"NoteNumber":60,"Velocity":48,"Duration":101078,"SoundDuration":101078,"Delta":37503699},{"NoteNumber":44,"Velocity":38,"Duration":101078,"SoundDuration":101078,"Delta":37503699},{"NoteNumber":60,"Velocity":69,"Duration":402684,"SoundDuration":402684,"Delta":37605624},{"NoteNumber":44,"Velocity":48,"Duration":99832,"SoundDuration":99832,"Delta":37605624},{"NoteNumber":51,"Velocity":49,"Duration":99832,"SoundDuration":99832,"Delta":37706295},{"NoteNumber":39,"Velocity":37,"Duration":99832,"SoundDuration":99832,"Delta":37706295},{"NoteNumber":48,"Velocity":49,"Duration":99832,"SoundDuration":99832,"Delta":37806967},{"NoteNumber":32,"Velocity":37,"Duration":99832,"SoundDuration":99832,"Delta":37806967},{"NoteNumber":51,"Velocity":49,"Duration":99832,"SoundDuration":99832,"Delta":37907638},{"NoteNumber":39,"Velocity":37,"Duration":99832,"SoundDuration":99832,"Delta":37907638},{"NoteNumber":46,"Velocity":69,"Duration":100168,"SoundDuration":100168,"Delta":38008309},{"NoteNumber":43,"Velocity":47,"Duration":100168,"SoundDuration":100168,"Delta":38008309},{"NoteNumber":51,"Velocity":49,"Duration":100618,"SoundDuration":100618,"Delta":38109319},{"NoteNumber":39,"Velocity":37,"Duration":100618,"SoundDuration":100618,"Delta":38109319},{"NoteNumber":58,"Velocity":64,"Duration":101075,"SoundDuration":101075,"Delta":38210785},{"NoteNumber":32,"Velocity":37,"Duration":101075,"SoundDuration":101075,"Delta":38210785},{"NoteNumber":51,"Velocity":51,"Duration":101766,"SoundDuration":101766,"Delta":38312710},{"NoteNumber":39,"Velocity":37,"Duration":101766,"SoundDuration":101766,"Delta":38312710},{"NoteNumber":49,"Velocity":68,"Duration":101883,"SoundDuration":101883,"Delta":38415333},{"NoteNumber":46,"Velocity":44,"Duration":101883,"SoundDuration":101883,"Delta":38415333},{"NoteNumber":51,"Velocity":49,"Duration":102114,"SoundDuration":102114,"Delta":38518073},{"NoteNumber":39,"Velocity":34,"Duration":102114,"SoundDuration":102114,"Delta":38518073},{"NoteNumber":63,"Velocity":60,"Duration":104751,"SoundDuration":104751,"Delta":38621050},{"NoteNumber":32,"Velocity":34,"Duration":104751,"SoundDuration":104751,"Delta":38621050},{"NoteNumber":51,"Velocity":49,"Duration":108180,"SoundDuration":108180,"Delta":38726691},{"NoteNumber":39,"Velocity":34,"Duration":108180,"SoundDuration":108180,"Delta":38726691},{"NoteNumber":48,"Velocity":75,"Duration":99498,"SoundDuration":99498,"Delta":38835791},{"NoteNumber":32,"Velocity":53,"Duration":99498,"SoundDuration":99498,"Delta":38835791},{"NoteNumber":51,"Velocity":48,"Duration":99166,"SoundDuration":99166,"Delta":38936125},{"NoteNumber":39,"Velocity":38,"Duration":99166,"SoundDuration":99166,"Delta":38936125},{"NoteNumber":60,"Velocity":48,"Duration":98729,"SoundDuration":98729,"Delta":39036125},{"NoteNumber":44,"Velocity":38,"Duration":98729,"SoundDuration":98729,"Delta":39036125},{"NoteNumber":60,"Velocity":48,"Duration":198129,"SoundDuration":198129,"Delta":39135683},{"NoteNumber":44,"Velocity":38,"Duration":98403,"SoundDuration":98403,"Delta":39135683},{"NoteNumber":63,"Velocity":56,"Duration":98079,"SoundDuration":98079,"Delta":39234912},{"NoteNumber":51,"Velocity":48,"Duration":98079,"SoundDuration":98079,"Delta":39234912},{"NoteNumber":72,"Velocity":49,"Duration":97648,"SoundDuration":97648,"Delta":39333813},{"NoteNumber":56,"Velocity":37,"Duration":97648,"SoundDuration":97648,"Delta":39333813},{"NoteNumber":72,"Velocity":49,"Duration":97329,"SoundDuration":97329,"Delta":39432282},{"NoteNumber":56,"Velocity":37,"Duration":97329,"SoundDuration":97329,"Delta":39432282},{"NoteNumber":75,"Velocity":49,"Duration":97011,"SoundDuration":97011,"Delta":39530428},{"NoteNumber":63,"Velocity":37,"Duration":97011,"SoundDuration":97011,"Delta":39530428},{"NoteNumber":84,"Velocity":63,"Duration":96590,"SoundDuration":96590,"Delta":39628254},{"NoteNumber":68,"Velocity":47,"Duration":96590,"SoundDuration":96590,"Delta":39628254},{"NoteNumber":84,"Velocity":49,"Duration":96799,"SoundDuration":96799,"Delta":39725657},{"NoteNumber":68,"Velocity":37,"Duration":96799,"SoundDuration":96799,"Delta":39725657},{"NoteNumber":87,"Velocity":49,"Duration":97115,"SoundDuration":97115,"Delta":39823271},{"NoteNumber":75,"Velocity":37,"Duration":97115,"SoundDuration":97115,"Delta":39823271},{"NoteNumber":96,"Velocity":49,"Duration":97433,"SoundDuration":97433,"Delta":39921204},{"NoteNumber":80,"Velocity":37,"Duration":97433,"SoundDuration":97433,"Delta":39921204},{"NoteNumber":87,"Velocity":56,"Duration":98508,"SoundDuration":98508,"Delta":40019457},{"NoteNumber":75,"Velocity":44,"Duration":98508,"SoundDuration":98508,"Delta":40019457},{"NoteNumber":84,"Velocity":49,"Duration":101534,"SoundDuration":101534,"Delta":40118801},{"NoteNumber":68,"Velocity":34,"Duration":101534,"SoundDuration":101534,"Delta":40118801},{"NoteNumber":84,"Velocity":49,"Duration":104751,"SoundDuration":104751,"Delta":40221198},{"NoteNumber":68,"Velocity":34,"Duration":104751,"SoundDuration":104751,"Delta":40221198},{"NoteNumber":75,"Velocity":49,"Duration":106307,"SoundDuration":106307,"Delta":40326839},{"NoteNumber":63,"Velocity":34,"Duration":106307,"SoundDuration":106307,"Delta":40326839},{"NoteNumber":72,"Velocity":60,"Duration":103540,"SoundDuration":103540,"Delta":40434017},{"NoteNumber":56,"Velocity":50,"Duration":103540,"SoundDuration":103540,"Delta":40434017},{"NoteNumber":72,"Velocity":48,"Duration":103061,"SoundDuration":103061,"Delta":40538426},{"NoteNumber":56,"Velocity":38,"Duration":103061,"SoundDuration":103061,"Delta":40538426},{"NoteNumber":63,"Velocity":48,"Duration":102470,"SoundDuration":102470,"Delta":40642352},{"NoteNumber":51,"Velocity":38,"Duration":102470,"SoundDuration":102470,"Delta":40642352},{"NoteNumber":60,"Velocity":48,"Duration":102001,"SoundDuration":102001,"Delta":40745682},{"NoteNumber":44,"Velocity":38,"Duration":102001,"SoundDuration":102001,"Delta":40745682},{"NoteNumber":60,"Velocity":69,"Duration":405759,"SoundDuration":405759,"Delta":40848539},{"NoteNumber":44,"Velocity":48,"Duration":101422,"SoundDuration":101422,"Delta":40848539},{"NoteNumber":51,"Velocity":49,"Duration":100168,"SoundDuration":100168,"Delta":40950812},{"NoteNumber":39,"Velocity":37,"Duration":100168,"SoundDuration":100168,"Delta":40950812},{"NoteNumber":48,"Velocity":49,"Duration":100168,"SoundDuration":100168,"Delta":41051822},{"NoteNumber":32,"Velocity":37,"Duration":100168,"SoundDuration":100168,"Delta":41051822},{"NoteNumber":51,"Velocity":49,"Duration":100619,"SoundDuration":100619,"Delta":41152832},{"NoteNumber":39,"Velocity":37,"Duration":100619,"SoundDuration":100619,"Delta":41152832},{"NoteNumber":46,"Velocity":69,"Duration":101075,"SoundDuration":101075,"Delta":41254299},{"NoteNumber":43,"Velocity":47,"Duration":101075,"SoundDuration":101075,"Delta":41254299},{"NoteNumber":51,"Velocity":49,"Duration":101649,"SoundDuration":101649,"Delta":41356225},{"NoteNumber":39,"Velocity":37,"Duration":101649,"SoundDuration":101649,"Delta":41356225},{"NoteNumber":58,"Velocity":64,"Duration":101998,"SoundDuration":101998,"Delta":41458730},{"NoteNumber":32,"Velocity":37,"Duration":101998,"SoundDuration":101998,"Delta":41458730},{"NoteNumber":51,"Velocity":51,"Duration":102467,"SoundDuration":102467,"Delta":41561588},{"NoteNumber":39,"Velocity":37,"Duration":102467,"SoundDuration":102467,"Delta":41561588},{"NoteNumber":44,"Velocity":68,"Duration":103058,"SoundDuration":103058,"Delta":41664918},{"NoteNumber":41,"Velocity":44,"Duration":103058,"SoundDuration":103058,"Delta":41664918},{"NoteNumber":51,"Velocity":49,"Duration":101534,"SoundDuration":101534,"Delta":41768844},{"NoteNumber":39,"Velocity":34,"Duration":101534,"SoundDuration":101534,"Delta":41768844},{"NoteNumber":56,"Velocity":60,"Duration":104751,"SoundDuration":104751,"Delta":41871240},{"NoteNumber":32,"Velocity":34,"Duration":104751,"SoundDuration":104751,"Delta":41871240},{"NoteNumber":51,"Velocity":49,"Duration":108180,"SoundDuration":108180,"Delta":41976882},{"NoteNumber":39,"Velocity":34,"Duration":108180,"SoundDuration":108180,"Delta":41976882},{"NoteNumber":46,"Velocity":75,"Duration":99498,"SoundDuration":99498,"Delta":42085981},{"NoteNumber":32,"Velocity":53,"Duration":99498,"SoundDuration":99498,"Delta":42085981},{"NoteNumber":51,"Velocity":48,"Duration":99166,"SoundDuration":99166,"Delta":42186316},{"NoteNumber":39,"Velocity":38,"Duration":99166,"SoundDuration":99166,"Delta":42186316},{"NoteNumber":58,"Velocity":48,"Duration":98729,"SoundDuration":98729,"Delta":42286316},{"NoteNumber":43,"Velocity":38,"Duration":98729,"SoundDuration":98729,"Delta":42286316},{"NoteNumber":58,"Velocity":48,"Duration":198129,"SoundDuration":198129,"Delta":42385874},{"NoteNumber":44,"Velocity":38,"Duration":98403,"SoundDuration":98403,"Delta":42385874},{"NoteNumber":63,"Velocity":56,"Duration":98079,"SoundDuration":98079,"Delta":42485102},{"NoteNumber":51,"Velocity":48,"Duration":98079,"SoundDuration":98079,"Delta":42485102},{"NoteNumber":70,"Velocity":49,"Duration":97648,"SoundDuration":97648,"Delta":42584004},{"NoteNumber":55,"Velocity":37,"Duration":97648,"SoundDuration":97648,"Delta":42584004},{"NoteNumber":70,"Velocity":49,"Duration":97329,"SoundDuration":97329,"Delta":42682472},{"NoteNumber":56,"Velocity":37,"Duration":97329,"SoundDuration":97329,"Delta":42682472},{"NoteNumber":75,"Velocity":49,"Duration":97011,"SoundDuration":97011,"Delta":42780619},{"NoteNumber":63,"Velocity":37,"Duration":97011,"SoundDuration":97011,"Delta":42780619},{"NoteNumber":82,"Velocity":63,"Duration":96590,"SoundDuration":96590,"Delta":42878445},{"NoteNumber":67,"Velocity":47,"Duration":96590,"SoundDuration":96590,"Delta":42878445},{"NoteNumber":82,"Velocity":49,"Duration":96799,"SoundDuration":96799,"Delta":42975847},{"NoteNumber":68,"Velocity":37,"Duration":96799,"SoundDuration":96799,"Delta":42975847},{"NoteNumber":87,"Velocity":49,"Duration":97115,"SoundDuration":97115,"Delta":43073461},{"NoteNumber":75,"Velocity":37,"Duration":97115,"SoundDuration":97115,"Delta":43073461},{"NoteNumber":94,"Velocity":49,"Duration":97433,"SoundDuration":97433,"Delta":43171394},{"NoteNumber":79,"Velocity":37,"Duration":97433,"SoundDuration":97433,"Delta":43171394},{"NoteNumber":87,"Velocity":56,"Duration":98508,"SoundDuration":98508,"Delta":43269648},{"NoteNumber":75,"Velocity":44,"Duration":98508,"SoundDuration":98508,"Delta":43269648},{"NoteNumber":82,"Velocity":49,"Duration":101534,"SoundDuration":101534,"Delta":43368992},{"NoteNumber":68,"Velocity":34,"Duration":101534,"SoundDuration":101534,"Delta":43368992},{"NoteNumber":82,"Velocity":49,"Duration":104751,"SoundDuration":104751,"Delta":43471388},{"NoteNumber":67,"Velocity":34,"Duration":104751,"SoundDuration":104751,"Delta":43471388},{"NoteNumber":75,"Velocity":49,"Duration":108180,"SoundDuration":108180,"Delta":43577030},{"NoteNumber":63,"Velocity":34,"Duration":108180,"SoundDuration":108180,"Delta":43577030},{"NoteNumber":70,"Velocity":60,"Duration":101883,"SoundDuration":101883,"Delta":43686129},{"NoteNumber":56,"Velocity":50,"Duration":101883,"SoundDuration":101883,"Delta":43686129},{"NoteNumber":70,"Velocity":48,"Duration":101883,"SoundDuration":101883,"Delta":43788869},{"NoteNumber":55,"Velocity":38,"Duration":101883,"SoundDuration":101883,"Delta":43788869},{"NoteNumber":63,"Velocity":48,"Duration":101883,"SoundDuration":101883,"Delta":43891609},{"NoteNumber":51,"Velocity":38,"Duration":101883,"SoundDuration":101883,"Delta":43891609},{"NoteNumber":58,"Velocity":48,"Duration":101883,"SoundDuration":101883,"Delta":43994349},{"NoteNumber":44,"Velocity":38,"Duration":101883,"SoundDuration":101883,"Delta":43994349},{"NoteNumber":58,"Velocity":66,"Duration":412255,"SoundDuration":412255,"Delta":44097088},{"NoteNumber":43,"Velocity":45,"Duration":101883,"SoundDuration":101883,"Delta":44097088},{"NoteNumber":51,"Velocity":46,"Duration":102115,"SoundDuration":102115,"Delta":44199828},{"NoteNumber":39,"Velocity":35,"Duration":102115,"SoundDuration":102115,"Delta":44199828},{"NoteNumber":46,"Velocity":46,"Duration":102349,"SoundDuration":102349,"Delta":44302803},{"NoteNumber":32,"Velocity":35,"Duration":102349,"SoundDuration":102349,"Delta":44302803},{"NoteNumber":51,"Velocity":46,"Duration":102470,"SoundDuration":102470,"Delta":44406014},{"NoteNumber":39,"Velocity":35,"Duration":102470,"SoundDuration":102470,"Delta":44406014},{"NoteNumber":44,"Velocity":66,"Duration":102467,"SoundDuration":102467,"Delta":44509344},{"NoteNumber":41,"Velocity":44,"Duration":102467,"SoundDuration":102467,"Delta":44509344},{"NoteNumber":49,"Velocity":47,"Duration":103178,"SoundDuration":103178,"Delta":44612674},{"NoteNumber":37,"Velocity":35,"Duration":103178,"SoundDuration":103178,"Delta":44612674},{"NoteNumber":56,"Velocity":61,"Duration":422808,"SoundDuration":422808,"Delta":44716720},{"NoteNumber":32,"Velocity":35,"Duration":103777,"SoundDuration":103777,"Delta":44716720},{"NoteNumber":49,"Velocity":49,"Duration":104506,"SoundDuration":104506,"Delta":44821372},{"NoteNumber":37,"Velocity":35,"Duration":104506,"SoundDuration":104506,"Delta":44821372},{"NoteNumber":44,"Velocity":63,"Duration":105121,"SoundDuration":105121,"Delta":44926759},{"NoteNumber":41,"Velocity":41,"Duration":105121,"SoundDuration":105121,"Delta":44926759},{"NoteNumber":49,"Velocity":46,"Duration":105869,"SoundDuration":105869,"Delta":45032766},{"NoteNumber":37,"Velocity":31,"Duration":105869,"SoundDuration":105869,"Delta":45032766},{"NoteNumber":53,"Velocity":56,"Duration":221468,"SoundDuration":221468,"Delta":45139529},{"NoteNumber":32,"Velocity":31,"Duration":108180,"SoundDuration":108180,"Delta":45139529},{"NoteNumber":49,"Velocity":46,"Duration":111421,"SoundDuration":111421,"Delta":45248628},{"NoteNumber":37,"Velocity":31,"Duration":111421,"SoundDuration":111421,"Delta":45248628},{"NoteNumber":44,"Velocity":72,"Duration":99498,"SoundDuration":99498,"Delta":45360997},{"NoteNumber":32,"Velocity":50,"Duration":99498,"SoundDuration":99498,"Delta":45360997},{"NoteNumber":49,"Velocity":45,"Duration":99166,"SoundDuration":99166,"Delta":45461332},{"NoteNumber":40,"Velocity":36,"Duration":99166,"SoundDuration":99166,"Delta":45461332},{"NoteNumber":56,"Velocity":45,"Duration":98729,"SoundDuration":98729,"Delta":45561332},{"NoteNumber":44,"Velocity":36,"Duration":98729,"SoundDuration":98729,"Delta":45561332},{"NoteNumber":56,"Velocity":45,"Duration":98403,"SoundDuration":98403,"Delta":45660890},{"NoteNumber":44,"Velocity":35,"Duration":98403,"SoundDuration":98403,"Delta":45660890},{"NoteNumber":61,"Velocity":52,"Duration":98079,"SoundDuration":98079,"Delta":45760118},{"NoteNumber":52,"Velocity":45,"Duration":98079,"SoundDuration":98079,"Delta":45760118},{"NoteNumber":68,"Velocity":45,"Duration":97648,"SoundDuration":97648,"Delta":45859020},{"NoteNumber":56,"Velocity":34,"Duration":97648,"SoundDuration":97648,"Delta":45859020},{"NoteNumber":68,"Velocity":45,"Duration":97329,"SoundDuration":97329,"Delta":45957488},{"NoteNumber":56,"Velocity":34,"Duration":97329,"SoundDuration":97329,"Delta":45957488},{"NoteNumber":73,"Velocity":44,"Duration":97011,"SoundDuration":97011,"Delta":46055635},{"NoteNumber":64,"Velocity":33,"Duration":97011,"SoundDuration":97011,"Delta":46055635},{"NoteNumber":80,"Velocity":62,"Duration":96590,"SoundDuration":96590,"Delta":46153461},{"NoteNumber":68,"Velocity":42,"Duration":96590,"SoundDuration":96590,"Delta":46153461},{"NoteNumber":73,"Velocity":45,"Duration":96799,"SoundDuration":96799,"Delta":46250863},{"NoteNumber":64,"Velocity":33,"Duration":96799,"SoundDuration":96799,"Delta":46250863},{"NoteNumber":68,"Velocity":45,"Duration":97115,"SoundDuration":97115,"Delta":46348477},{"NoteNumber":56,"Velocity":33,"Duration":97115,"SoundDuration":97115,"Delta":46348477},{"NoteNumber":68,"Velocity":44,"Duration":97433,"SoundDuration":97433,"Delta":46446410},{"NoteNumber":56,"Velocity":33,"Duration":97433,"SoundDuration":97433,"Delta":46446410},{"NoteNumber":61,"Velocity":50,"Duration":98508,"SoundDuration":98508,"Delta":46544664},{"NoteNumber":52,"Velocity":39,"Duration":98508,"SoundDuration":98508,"Delta":46544664},{"NoteNumber":56,"Velocity":42,"Duration":101534,"SoundDuration":101534,"Delta":46644008},{"NoteNumber":44,"Velocity":30,"Duration":101534,"SoundDuration":101534,"Delta":46644008},{"NoteNumber":56,"Velocity":42,"Duration":104751,"SoundDuration":104751,"Delta":46746404},{"NoteNumber":44,"Velocity":30,"Duration":104751,"SoundDuration":104751,"Delta":46746404},{"NoteNumber":49,"Velocity":42,"Duration":108180,"SoundDuration":108180,"Delta":46852046},{"NoteNumber":40,"Velocity":29,"Duration":108180,"SoundDuration":108180,"Delta":46852046},{"NoteNumber":44,"Velocity":64,"Duration":99498,"SoundDuration":99498,"Delta":46961145},{"NoteNumber":32,"Velocity":44,"Duration":99498,"SoundDuration":99498,"Delta":46961145},{"NoteNumber":48,"Velocity":42,"Duration":99166,"SoundDuration":99166,"Delta":47061480},{"NoteNumber":39,"Velocity":33,"Duration":99166,"SoundDuration":99166,"Delta":47061480},{"NoteNumber":56,"Velocity":41,"Duration":98729,"SoundDuration":98729,"Delta":47161480},{"NoteNumber":44,"Velocity":31,"Duration":98729,"SoundDuration":98729,"Delta":47161480},{"NoteNumber":56,"Velocity":41,"Duration":98509,"SoundDuration":98509,"Delta":47261038},{"NoteNumber":44,"Velocity":31,"Duration":98509,"SoundDuration":98509,"Delta":47261038},{"NoteNumber":60,"Velocity":50,"Duration":98509,"SoundDuration":98509,"Delta":47360375},{"NoteNumber":51,"Velocity":38,"Duration":98509,"SoundDuration":98509,"Delta":47360375},{"NoteNumber":68,"Velocity":39,"Duration":98509,"SoundDuration":98509,"Delta":47459713},{"NoteNumber":56,"Velocity":29,"Duration":98509,"SoundDuration":98509,"Delta":47459713},{"NoteNumber":60,"Velocity":38,"Duration":98509,"SoundDuration":98509,"Delta":47559051},{"NoteNumber":51,"Velocity":29,"Duration":98509,"SoundDuration":98509,"Delta":47559051},{"NoteNumber":56,"Velocity":38,"Duration":98725,"SoundDuration":98725,"Delta":47658389},{"NoteNumber":44,"Velocity":29,"Duration":98725,"SoundDuration":98725,"Delta":47658389},{"NoteNumber":42,"Velocity":61,"Duration":99166,"SoundDuration":99166,"Delta":47757947},{"NoteNumber":32,"Velocity":42,"Duration":99166,"SoundDuration":99166,"Delta":47757947},{"NoteNumber":48,"Velocity":39,"Duration":99498,"SoundDuration":99498,"Delta":47857947},{"NoteNumber":38,"Velocity":29,"Duration":99498,"SoundDuration":99498,"Delta":47857947},{"NoteNumber":54,"Velocity":46,"Duration":99832,"SoundDuration":99832,"Delta":47958282},{"NoteNumber":44,"Velocity":28,"Duration":99832,"SoundDuration":99832,"Delta":47958282},{"NoteNumber":54,"Velocity":40,"Duration":100168,"SoundDuration":100168,"Delta":48058953},{"NoteNumber":44,"Velocity":28,"Duration":100168,"SoundDuration":100168,"Delta":48058953},{"NoteNumber":60,"Velocity":48,"Duration":102353,"SoundDuration":102353,"Delta":48159963},{"NoteNumber":50,"Velocity":33,"Duration":102353,"SoundDuration":102353,"Delta":48159963},{"NoteNumber":66,"Velocity":37,"Duration":107533,"SoundDuration":107533,"Delta":48263190},{"NoteNumber":56,"Velocity":25,"Duration":107533,"SoundDuration":107533,"Delta":48263190},{"NoteNumber":60,"Velocity":44,"Duration":114380,"SoundDuration":114380,"Delta":48371643},{"NoteNumber":50,"Velocity":25,"Duration":113411,"SoundDuration":113411,"Delta":48371643},{"NoteNumber":54,"Velocity":36,"Duration":113011,"SoundDuration":113011,"Delta":48486024},{"NoteNumber":44,"Velocity":25,"Duration":113011,"SoundDuration":113011,"Delta":48486024},{"NoteNumber":43,"Velocity":61,"Duration":101190,"SoundDuration":101190,"Delta":48599886},{"NoteNumber":31,"Velocity":42,"Duration":101190,"SoundDuration":101190,"Delta":48599886},{"NoteNumber":47,"Velocity":38,"Duration":100847,"SoundDuration":100847,"Delta":48701927},{"NoteNumber":38,"Velocity":30,"Duration":100847,"SoundDuration":100847,"Delta":48701927},{"NoteNumber":55,"Velocity":38,"Duration":100506,"SoundDuration":100506,"Delta":48803622},{"NoteNumber":43,"Velocity":30,"Duration":100506,"SoundDuration":100506,"Delta":48803622},{"NoteNumber":55,"Velocity":38,"Duration":100168,"SoundDuration":100168,"Delta":48904973},{"NoteNumber":43,"Velocity":30,"Duration":100168,"SoundDuration":100168,"Delta":48904973},{"NoteNumber":59,"Velocity":46,"Duration":99832,"SoundDuration":99832,"Delta":49005983},{"NoteNumber":50,"Velocity":36,"Duration":99832,"SoundDuration":99832,"Delta":49005983},{"NoteNumber":67,"Velocity":39,"Duration":99498,"SoundDuration":99498,"Delta":49106654},{"NoteNumber":55,"Velocity":29,"Duration":99498,"SoundDuration":99498,"Delta":49106654},{"NoteNumber":67,"Velocity":39,"Duration":99166,"SoundDuration":99166,"Delta":49206989},{"NoteNumber":55,"Velocity":29,"Duration":99166,"SoundDuration":99166,"Delta":49206989},{"NoteNumber":71,"Velocity":40,"Duration":98837,"SoundDuration":98837,"Delta":49306989},{"NoteNumber":62,"Velocity":29,"Duration":98837,"SoundDuration":98837,"Delta":49306989},{"NoteNumber":79,"Velocity":56,"Duration":98297,"SoundDuration":98297,"Delta":49406656},{"NoteNumber":67,"Velocity":41,"Duration":98297,"SoundDuration":98297,"Delta":49406656},{"NoteNumber":71,"Velocity":41,"Duration":98076,"SoundDuration":98076,"Delta":49505776},{"NoteNumber":62,"Velocity":29,"Duration":98076,"SoundDuration":98076,"Delta":49505776},{"NoteNumber":67,"Velocity":41,"Duration":98617,"SoundDuration":98617,"Delta":49604678},{"NoteNumber":55,"Velocity":30,"Duration":98617,"SoundDuration":98617,"Delta":49604678},{"NoteNumber":67,"Velocity":41,"Duration":99055,"SoundDuration":99055,"Delta":49704125},{"NoteNumber":55,"Velocity":30,"Duration":99055,"SoundDuration":99055,"Delta":49704125},{"NoteNumber":59,"Velocity":47,"Duration":99166,"SoundDuration":99166,"Delta":49804015},{"NoteNumber":50,"Velocity":36,"Duration":99166,"SoundDuration":99166,"Delta":49804015},{"NoteNumber":55,"Velocity":41,"Duration":101534,"SoundDuration":101534,"Delta":49904017},{"NoteNumber":43,"Velocity":28,"Duration":101534,"SoundDuration":101534,"Delta":49904017},{"NoteNumber":55,"Velocity":41,"Duration":104751,"SoundDuration":104751,"Delta":50006413},{"NoteNumber":43,"Velocity":28,"Duration":104751,"SoundDuration":104751,"Delta":50006413},{"NoteNumber":47,"Velocity":41,"Duration":108180,"SoundDuration":108180,"Delta":50112055},{"NoteNumber":38,"Velocity":28,"Duration":108180,"SoundDuration":108180,"Delta":50112055},{"NoteNumber":44,"Velocity":66,"Duration":99498,"SoundDuration":99498,"Delta":50221154},{"NoteNumber":31,"Velocity":46,"Duration":99498,"SoundDuration":99498,"Delta":50221154},{"NoteNumber":48,"Velocity":41,"Duration":99389,"SoundDuration":99389,"Delta":50321489},{"NoteNumber":39,"Velocity":31,"Duration":99389,"SoundDuration":99389,"Delta":50321489},{"NoteNumber":56,"Velocity":41,"Duration":99166,"SoundDuration":99166,"Delta":50421712},{"NoteNumber":43,"Velocity":31,"Duration":99166,"SoundDuration":99166,"Delta":50421712},{"NoteNumber":56,"Velocity":41,"Duration":98837,"SoundDuration":98837,"Delta":50521712},{"NoteNumber":43,"Velocity":31,"Duration":98837,"SoundDuration":98837,"Delta":50521712},{"NoteNumber":60,"Velocity":49,"Duration":98619,"SoundDuration":98619,"Delta":50621380},{"NoteNumber":51,"Velocity":39,"Duration":98619,"SoundDuration":98619,"Delta":50621380},{"NoteNumber":68,"Velocity":44,"Duration":98403,"SoundDuration":98403,"Delta":50720827},{"NoteNumber":55,"Velocity":33,"Duration":98403,"SoundDuration":98403,"Delta":50720827},{"NoteNumber":68,"Velocity":44,"Duration":98184,"SoundDuration":98184,"Delta":50820056},{"NoteNumber":55,"Velocity":33,"Duration":98184,"SoundDuration":98184,"Delta":50820056},{"NoteNumber":72,"Velocity":44,"Duration":97861,"SoundDuration":97861,"Delta":50919066},{"NoteNumber":63,"Velocity":33,"Duration":97861,"SoundDuration":97861,"Delta":50919066},{"NoteNumber":80,"Velocity":60,"Duration":97541,"SoundDuration":97541,"Delta":51017750},{"NoteNumber":67,"Velocity":45,"Duration":97541,"SoundDuration":97541,"Delta":51017750},{"NoteNumber":72,"Velocity":45,"Duration":97754,"SoundDuration":97754,"Delta":51116111},{"NoteNumber":63,"Velocity":33,"Duration":97754,"SoundDuration":97754,"Delta":51116111},{"NoteNumber":68,"Velocity":45,"Duration":97967,"SoundDuration":97967,"Delta":51214687},{"NoteNumber":55,"Velocity":33,"Duration":97967,"SoundDuration":97967,"Delta":51214687},{"NoteNumber":68,"Velocity":45,"Duration":98184,"SoundDuration":98184,"Delta":51313480},{"NoteNumber":55,"Velocity":33,"Duration":98184,"SoundDuration":98184,"Delta":51313480},{"NoteNumber":60,"Velocity":51,"Duration":98509,"SoundDuration":98509,"Delta":51412490},{"NoteNumber":51,"Velocity":39,"Duration":98509,"SoundDuration":98509,"Delta":51412490},{"NoteNumber":56,"Velocity":45,"Duration":99955,"SoundDuration":99955,"Delta":51511828},{"NoteNumber":43,"Velocity":31,"Duration":99955,"SoundDuration":99955,"Delta":51511828},{"NoteNumber":56,"Velocity":45,"Duration":104751,"SoundDuration":104751,"Delta":51612646},{"NoteNumber":43,"Velocity":31,"Duration":104751,"SoundDuration":104751,"Delta":51612646},{"NoteNumber":48,"Velocity":45,"Duration":108180,"SoundDuration":108180,"Delta":51718287},{"NoteNumber":39,"Velocity":31,"Duration":108180,"SoundDuration":108180,"Delta":51718287},{"NoteNumber":48,"Velocity":72,"Duration":99498,"SoundDuration":99498,"Delta":51827387},{"NoteNumber":31,"Velocity":50,"Duration":99498,"SoundDuration":99498,"Delta":51827387},{"NoteNumber":53,"Velocity":45,"Duration":99166,"SoundDuration":99166,"Delta":51927721},{"NoteNumber":38,"Velocity":36,"Duration":99166,"SoundDuration":99166,"Delta":51927721},{"NoteNumber":60,"Velocity":45,"Duration":98729,"SoundDuration":98729,"Delta":52027721},{"NoteNumber":44,"Velocity":36,"Duration":98729,"SoundDuration":98729,"Delta":52027721},{"NoteNumber":60,"Velocity":45,"Duration":98403,"SoundDuration":98403,"Delta":52127279},{"NoteNumber":44,"Velocity":36,"Duration":98403,"SoundDuration":98403,"Delta":52127279},{"NoteNumber":65,"Velocity":52,"Duration":98079,"SoundDuration":98079,"Delta":52226508},{"NoteNumber":50,"Velocity":42,"Duration":98079,"SoundDuration":98079,"Delta":52226508},{"NoteNumber":72,"Velocity":46,"Duration":97648,"SoundDuration":97648,"Delta":52325409},{"NoteNumber":56,"Velocity":34,"Duration":97648,"SoundDuration":97648,"Delta":52325409},{"NoteNumber":72,"Velocity":46,"Duration":97329,"SoundDuration":97329,"Delta":52423878},{"NoteNumber":56,"Velocity":34,"Duration":97329,"SoundDuration":97329,"Delta":52423878},{"NoteNumber":77,"Velocity":45,"Duration":97011,"SoundDuration":97011,"Delta":52522024},{"NoteNumber":62,"Velocity":34,"Duration":97011,"SoundDuration":97011,"Delta":52522024},{"NoteNumber":84,"Velocity":64,"Duration":96590,"SoundDuration":96590,"Delta":52619850},{"NoteNumber":68,"Velocity":46,"Duration":96590,"SoundDuration":96590,"Delta":52619850},{"NoteNumber":77,"Velocity":46,"Duration":96799,"SoundDuration":96799,"Delta":52717253},{"NoteNumber":62,"Velocity":34,"Duration":96799,"SoundDuration":96799,"Delta":52717253},{"NoteNumber":72,"Velocity":46,"Duration":97115,"SoundDuration":97115,"Delta":52814867},{"NoteNumber":56,"Velocity":34,"Duration":97115,"SoundDuration":97115,"Delta":52814867},{"NoteNumber":72,"Velocity":46,"Duration":97433,"SoundDuration":97433,"Delta":52912800},{"NoteNumber":56,"Velocity":34,"Duration":97433,"SoundDuration":97433,"Delta":52912800},{"NoteNumber":65,"Velocity":51,"Duration":98508,"SoundDuration":98508,"Delta":53011053},{"NoteNumber":50,"Velocity":39,"Duration":98508,"SoundDuration":98508,"Delta":53011053},{"NoteNumber":60,"Velocity":45,"Duration":101534,"SoundDuration":101534,"Delta":53110397},{"NoteNumber":44,"Velocity":31,"Duration":101534,"SoundDuration":101534,"Delta":53110397},{"NoteNumber":60,"Velocity":45,"Duration":104751,"SoundDuration":104751,"Delta":53212794},{"NoteNumber":44,"Velocity":31,"Duration":104751,"SoundDuration":104751,"Delta":53212794},{"NoteNumber":53,"Velocity":45,"Duration":108180,"SoundDuration":108180,"Delta":53318435},{"NoteNumber":38,"Velocity":31,"Duration":108180,"SoundDuration":108180,"Delta":53318435},{"NoteNumber":47,"Velocity":69,"Duration":99498,"SoundDuration":99498,"Delta":53427535},{"NoteNumber":31,"Velocity":49,"Duration":99498,"SoundDuration":99498,"Delta":53427535},{"NoteNumber":53,"Velocity":44,"Duration":99166,"SoundDuration":99166,"Delta":53527869},{"NoteNumber":38,"Velocity":34,"Duration":99166,"SoundDuration":99166,"Delta":53527869},{"NoteNumber":59,"Velocity":44,"Duration":98729,"SoundDuration":98729,"Delta":53627869},{"NoteNumber":43,"Velocity":34,"Duration":98729,"SoundDuration":98729,"Delta":53627869},{"NoteNumber":59,"Velocity":44,"Duration":98403,"SoundDuration":98403,"Delta":53727427},{"NoteNumber":43,"Velocity":34,"Duration":98403,"SoundDuration":98403,"Delta":53727427},{"NoteNumber":65,"Velocity":51,"Duration":98079,"SoundDuration":98079,"Delta":53826655},{"NoteNumber":50,"Velocity":42,"Duration":98079,"SoundDuration":98079,"Delta":53826655},{"NoteNumber":71,"Velocity":44,"Duration":97648,"SoundDuration":97648,"Delta":53925557},{"NoteNumber":55,"Velocity":34,"Duration":97648,"SoundDuration":97648,"Delta":53925557},{"NoteNumber":71,"Velocity":44,"Duration":97329,"SoundDuration":97329,"Delta":54024026},{"NoteNumber":55,"Velocity":34,"Duration":97329,"SoundDuration":97329,"Delta":54024026},{"NoteNumber":77,"Velocity":44,"Duration":97011,"SoundDuration":97011,"Delta":54122172},{"NoteNumber":62,"Velocity":33,"Duration":97011,"SoundDuration":97011,"Delta":54122172},{"NoteNumber":83,"Velocity":62,"Duration":96590,"SoundDuration":96590,"Delta":54219998},{"NoteNumber":67,"Velocity":45,"Duration":96590,"SoundDuration":96590,"Delta":54219998},{"NoteNumber":77,"Velocity":45,"Duration":96799,"SoundDuration":96799,"Delta":54317401},{"NoteNumber":62,"Velocity":33,"Duration":96799,"SoundDuration":96799,"Delta":54317401},{"NoteNumber":71,"Velocity":45,"Duration":97115,"SoundDuration":97115,"Delta":54415015},{"NoteNumber":55,"Velocity":33,"Duration":97115,"SoundDuration":97115,"Delta":54415015},{"NoteNumber":71,"Velocity":45,"Duration":97433,"SoundDuration":97433,"Delta":54512947},{"NoteNumber":55,"Velocity":33,"Duration":97433,"SoundDuration":97433,"Delta":54512947},{"NoteNumber":65,"Velocity":50,"Duration":98508,"SoundDuration":98508,"Delta":54611201},{"NoteNumber":50,"Velocity":39,"Duration":98508,"SoundDuration":98508,"Delta":54611201},{"NoteNumber":59,"Velocity":44,"Duration":101534,"SoundDuration":101534,"Delta":54710545},{"NoteNumber":43,"Velocity":30,"Duration":101534,"SoundDuration":101534,"Delta":54710545},{"NoteNumber":59,"Velocity":44,"Duration":104751,"SoundDuration":104751,"Delta":54812942},{"NoteNumber":43,"Velocity":30,"Duration":104751,"SoundDuration":104751,"Delta":54812942},{"NoteNumber":53,"Velocity":44,"Duration":108180,"SoundDuration":108180,"Delta":54918583},{"NoteNumber":38,"Velocity":30,"Duration":108180,"SoundDuration":108180,"Delta":54918583},{"NoteNumber":47,"Velocity":68,"Duration":99498,"SoundDuration":99498,"Delta":55027683},{"NoteNumber":31,"Velocity":48,"Duration":99498,"SoundDuration":99498,"Delta":55027683},{"NoteNumber":53,"Velocity":42,"Duration":99166,"SoundDuration":99166,"Delta":55128017},{"NoteNumber":38,"Velocity":34,"Duration":99166,"SoundDuration":99166,"Delta":55128017},{"NoteNumber":59,"Velocity":42,"Duration":98729,"SoundDuration":98729,"Delta":55228017},{"NoteNumber":43,"Velocity":34,"Duration":98729,"SoundDuration":98729,"Delta":55228017},{"NoteNumber":59,"Velocity":42,"Duration":98403,"SoundDuration":98403,"Delta":55327575},{"NoteNumber":43,"Velocity":34,"Duration":98403,"SoundDuration":98403,"Delta":55327575},{"NoteNumber":65,"Velocity":50,"Duration":98079,"SoundDuration":98079,"Delta":55426803},{"NoteNumber":50,"Velocity":41,"Duration":98079,"SoundDuration":98079,"Delta":55426803},{"NoteNumber":71,"Velocity":42,"Duration":97648,"SoundDuration":97648,"Delta":55525705},{"NoteNumber":55,"Velocity":33,"Duration":97648,"SoundDuration":97648,"Delta":55525705},{"NoteNumber":71,"Velocity":42,"Duration":97329,"SoundDuration":97329,"Delta":55624173},{"NoteNumber":55,"Velocity":33,"Duration":97329,"SoundDuration":97329,"Delta":55624173},{"NoteNumber":77,"Velocity":45,"Duration":97011,"SoundDuration":97011,"Delta":55722320},{"NoteNumber":62,"Velocity":33,"Duration":97011,"SoundDuration":97011,"Delta":55722320},{"NoteNumber":83,"Velocity":62,"Duration":96590,"SoundDuration":96590,"Delta":55820146},{"NoteNumber":67,"Velocity":46,"Duration":96590,"SoundDuration":96590,"Delta":55820146},{"NoteNumber":77,"Velocity":46,"Duration":96799,"SoundDuration":96799,"Delta":55917549},{"NoteNumber":62,"Velocity":33,"Duration":96799,"SoundDuration":96799,"Delta":55917549},{"NoteNumber":71,"Velocity":46,"Duration":97115,"SoundDuration":97115,"Delta":56015163},{"NoteNumber":55,"Velocity":33,"Duration":97115,"SoundDuration":97115,"Delta":56015163},{"NoteNumber":71,"Velocity":46,"Duration":97433,"SoundDuration":97433,"Delta":56113095},{"NoteNumber":55,"Velocity":33,"Duration":97433,"SoundDuration":97433,"Delta":56113095},{"NoteNumber":65,"Velocity":51,"Duration":98508,"SoundDuration":98508,"Delta":56211349},{"NoteNumber":50,"Velocity":39,"Duration":98508,"SoundDuration":98508,"Delta":56211349},{"NoteNumber":59,"Velocity":45,"Duration":101534,"SoundDuration":101534,"Delta":56310693},{"NoteNumber":43,"Velocity":31,"Duration":101534,"SoundDuration":101534,"Delta":56310693},{"NoteNumber":59,"Velocity":45,"Duration":104751,"SoundDuration":104751,"Delta":56413089},{"NoteNumber":43,"Velocity":31,"Duration":104751,"SoundDuration":104751,"Delta":56413089},{"NoteNumber":53,"Velocity":45,"Duration":108180,"SoundDuration":108180,"Delta":56518731},{"NoteNumber":38,"Velocity":31,"Duration":108180,"SoundDuration":108180,"Delta":56518731},{"NoteNumber":48,"Velocity":73,"Duration":99059,"SoundDuration":99059,"Delta":56627831},{"NoteNumber":32,"Velocity":51,"Duration":99059,"SoundDuration":99059,"Delta":56627831},{"NoteNumber":53,"Velocity":47,"Duration":98403,"SoundDuration":98403,"Delta":56727721},{"NoteNumber":41,"Velocity":36,"Duration":98403,"SoundDuration":98403,"Delta":56727721},{"NoteNumber":60,"Velocity":47,"Duration":97970,"SoundDuration":97970,"Delta":56826949},{"NoteNumber":44,"Velocity":36,"Duration":97970,"SoundDuration":97970,"Delta":56826949},{"NoteNumber":60,"Velocity":47,"Duration":97436,"SoundDuration":97436,"Delta":56925742},{"NoteNumber":44,"Velocity":36,"Duration":97436,"SoundDuration":97436,"Delta":56925742},{"NoteNumber":65,"Velocity":56,"Duration":97011,"SoundDuration":97011,"Delta":57023995},{"NoteNumber":53,"Velocity":46,"Duration":97011,"SoundDuration":97011,"Delta":57023995},{"NoteNumber":72,"Velocity":48,"Duration":96488,"SoundDuration":96488,"Delta":57121822},{"NoteNumber":56,"Velocity":36,"Duration":96488,"SoundDuration":96488,"Delta":57121822},{"NoteNumber":72,"Velocity":48,"Duration":96072,"SoundDuration":96072,"Delta":57219119},{"NoteNumber":56,"Velocity":36,"Duration":96072,"SoundDuration":96072,"Delta":57219119},{"NoteNumber":77,"Velocity":48,"Duration":95455,"SoundDuration":95455,"Delta":57315998},{"NoteNumber":65,"Velocity":36,"Duration":95455,"SoundDuration":95455,"Delta":57315998},{"NoteNumber":84,"Velocity":69,"Duration":95760,"SoundDuration":95760,"Delta":57412255},{"NoteNumber":68,"Velocity":49,"Duration":95760,"SoundDuration":95760,"Delta":57412255},{"NoteNumber":77,"Velocity":49,"Duration":96174,"SoundDuration":96174,"Delta":57508821},{"NoteNumber":65,"Velocity":36,"Duration":96174,"SoundDuration":96174,"Delta":57508821},{"NoteNumber":72,"Velocity":50,"Duration":96693,"SoundDuration":96693,"Delta":57605805},{"NoteNumber":56,"Velocity":36,"Duration":96693,"SoundDuration":96693,"Delta":57605805},{"NoteNumber":72,"Velocity":50,"Duration":97115,"SoundDuration":97115,"Delta":57703313},{"NoteNumber":56,"Velocity":36,"Duration":97115,"SoundDuration":97115,"Delta":57703313},{"NoteNumber":65,"Velocity":57,"Duration":98508,"SoundDuration":98508,"Delta":57801246},{"NoteNumber":53,"Velocity":45,"Duration":98508,"SoundDuration":98508,"Delta":57801246},{"NoteNumber":60,"Velocity":49,"Duration":101534,"SoundDuration":101534,"Delta":57900590},{"NoteNumber":44,"Velocity":34,"Duration":101534,"SoundDuration":101534,"Delta":57900590},{"NoteNumber":60,"Velocity":49,"Duration":104751,"SoundDuration":104751,"Delta":58002986},{"NoteNumber":44,"Velocity":34,"Duration":104751,"SoundDuration":104751,"Delta":58002986},{"NoteNumber":53,"Velocity":49,"Duration":104619,"SoundDuration":104619,"Delta":58108628},{"NoteNumber":41,"Velocity":34,"Duration":104619,"SoundDuration":104619,"Delta":58108628},{"NoteNumber":51,"Velocity":79,"Duration":98403,"SoundDuration":98403,"Delta":58214075},{"NoteNumber":33,"Velocity":56,"Duration":98403,"SoundDuration":98403,"Delta":58214075},{"NoteNumber":54,"Velocity":49,"Duration":97970,"SoundDuration":97970,"Delta":58313304},{"NoteNumber":42,"Velocity":39,"Duration":97970,"SoundDuration":97970,"Delta":58313304},{"NoteNumber":63,"Velocity":49,"Duration":97541,"SoundDuration":97541,"Delta":58412096},{"NoteNumber":45,"Velocity":39,"Duration":97541,"SoundDuration":97541,"Delta":58412096},{"NoteNumber":63,"Velocity":49,"Duration":97118,"SoundDuration":97118,"Delta":58510457},{"NoteNumber":45,"Velocity":39,"Duration":97118,"SoundDuration":97118,"Delta":58510457},{"NoteNumber":66,"Velocity":59,"Duration":96696,"SoundDuration":96696,"Delta":58608390},{"NoteNumber":54,"Velocity":48,"Duration":96696,"SoundDuration":96696,"Delta":58608390},{"NoteNumber":75,"Velocity":50,"Duration":96278,"SoundDuration":96278,"Delta":58705898},{"NoteNumber":57,"Velocity":38,"Duration":96278,"SoundDuration":96278,"Delta":58705898},{"NoteNumber":75,"Velocity":50,"Duration":95866,"SoundDuration":95866,"Delta":58802986},{"NoteNumber":57,"Velocity":38,"Duration":95866,"SoundDuration":95866,"Delta":58802986},{"NoteNumber":78,"Velocity":51,"Duration":95455,"SoundDuration":95455,"Delta":58899656},{"NoteNumber":66,"Velocity":39,"Duration":95455,"SoundDuration":95455,"Delta":58899656},{"NoteNumber":87,"Velocity":69,"Duration":95147,"SoundDuration":95147,"Delta":58995913},{"NoteNumber":69,"Velocity":52,"Duration":95147,"SoundDuration":95147,"Delta":58995913},{"NoteNumber":78,"Velocity":52,"Duration":95965,"SoundDuration":95965,"Delta":59091862},{"NoteNumber":66,"Velocity":39,"Duration":95965,"SoundDuration":95965,"Delta":59091862},{"NoteNumber":75,"Velocity":52,"Duration":96903,"SoundDuration":96903,"Delta":59188637},{"NoteNumber":57,"Velocity":39,"Duration":96903,"SoundDuration":96903,"Delta":59188637},{"NoteNumber":75,"Velocity":52,"Duration":97754,"SoundDuration":97754,"Delta":59286358},{"NoteNumber":57,"Velocity":39,"Duration":97754,"SoundDuration":97754,"Delta":59286358},{"NoteNumber":66,"Velocity":60,"Duration":98508,"SoundDuration":98508,"Delta":59384934},{"NoteNumber":54,"Velocity":47,"Duration":98508,"SoundDuration":98508,"Delta":59384934},{"NoteNumber":63,"Velocity":52,"Duration":101534,"SoundDuration":101534,"Delta":59484278},{"NoteNumber":45,"Velocity":37,"Duration":101534,"SoundDuration":101534,"Delta":59484278},{"NoteNumber":63,"Velocity":52,"Duration":104751,"SoundDuration":104751,"Delta":59586674},{"NoteNumber":45,"Velocity":37,"Duration":104751,"SoundDuration":104751,"Delta":59586674},{"NoteNumber":54,"Velocity":52,"Duration":108180,"SoundDuration":108180,"Delta":59692316},{"NoteNumber":42,"Velocity":37,"Duration":108180,"SoundDuration":108180,"Delta":59692316},{"NoteNumber":50,"Velocity":84,"Duration":99498,"SoundDuration":99498,"Delta":59801416},{"NoteNumber":34,"Velocity":59,"Duration":99498,"SoundDuration":99498,"Delta":59801416},{"NoteNumber":55,"Velocity":51,"Duration":99166,"SoundDuration":99166,"Delta":59901750},{"NoteNumber":43,"Velocity":41,"Duration":99166,"SoundDuration":99166,"Delta":59901750},{"NoteNumber":62,"Velocity":51,"Duration":98729,"SoundDuration":98729,"Delta":60001750},{"NoteNumber":46,"Velocity":41,"Duration":98729,"SoundDuration":98729,"Delta":60001750},{"NoteNumber":62,"Velocity":51,"Duration":98403,"SoundDuration":98403,"Delta":60101308},{"NoteNumber":46,"Velocity":41,"Duration":98403,"SoundDuration":98403,"Delta":60101308},{"NoteNumber":67,"Velocity":63,"Duration":98079,"SoundDuration":98079,"Delta":60200536},{"NoteNumber":55,"Velocity":51,"Duration":98079,"SoundDuration":98079,"Delta":60200536},{"NoteNumber":74,"Velocity":53,"Duration":97648,"SoundDuration":97648,"Delta":60299438},{"NoteNumber":58,"Velocity":42,"Duration":97648,"SoundDuration":97648,"Delta":60299438},{"NoteNumber":74,"Velocity":53,"Duration":97329,"SoundDuration":97329,"Delta":60397906},{"NoteNumber":58,"Velocity":42,"Duration":97329,"SoundDuration":97329,"Delta":60397906},{"NoteNumber":79,"Velocity":53,"Duration":97011,"SoundDuration":97011,"Delta":60496053},{"NoteNumber":67,"Velocity":42,"Duration":97011,"SoundDuration":97011,"Delta":60496053},{"NoteNumber":86,"Velocity":77,"Duration":96590,"SoundDuration":96590,"Delta":60593879},{"NoteNumber":70,"Velocity":56,"Duration":96590,"SoundDuration":96590,"Delta":60593879},{"NoteNumber":79,"Velocity":56,"Duration":96799,"SoundDuration":96799,"Delta":60691282},{"NoteNumber":67,"Velocity":42,"Duration":96799,"SoundDuration":96799,"Delta":60691282},{"NoteNumber":74,"Velocity":57,"Duration":97115,"SoundDuration":97115,"Delta":60788896},{"NoteNumber":58,"Velocity":42,"Duration":97115,"SoundDuration":97115,"Delta":60788896},{"NoteNumber":74,"Velocity":57,"Duration":97433,"SoundDuration":97433,"Delta":60886828},{"NoteNumber":58,"Velocity":42,"Duration":97433,"SoundDuration":97433,"Delta":60886828},{"NoteNumber":67,"Velocity":66,"Duration":98508,"SoundDuration":98508,"Delta":60985082},{"NoteNumber":55,"Velocity":50,"Duration":98508,"SoundDuration":98508,"Delta":60985082},{"NoteNumber":62,"Velocity":56,"Duration":101534,"SoundDuration":101534,"Delta":61084426},{"NoteNumber":46,"Velocity":38,"Duration":101534,"SoundDuration":101534,"Delta":61084426},{"NoteNumber":62,"Velocity":56,"Duration":104751,"SoundDuration":104751,"Delta":61186822},{"NoteNumber":46,"Velocity":38,"Duration":104751,"SoundDuration":104751,"Delta":61186822},{"NoteNumber":55,"Velocity":56,"Duration":108180,"SoundDuration":108180,"Delta":61292464},{"NoteNumber":43,"Velocity":38,"Duration":108180,"SoundDuration":108180,"Delta":61292464},{"NoteNumber":50,"Velocity":91,"Duration":99498,"SoundDuration":99498,"Delta":61401564},{"NoteNumber":35,"Velocity":62,"Duration":99498,"SoundDuration":99498,"Delta":61401564},{"NoteNumber":56,"Velocity":57,"Duration":99166,"SoundDuration":99166,"Delta":61501898},{"NoteNumber":41,"Velocity":45,"Duration":99166,"SoundDuration":99166,"Delta":61501898},{"NoteNumber":62,"Velocity":57,"Duration":98729,"SoundDuration":98729,"Delta":61601898},{"NoteNumber":47,"Velocity":45,"Duration":98729,"SoundDuration":98729,"Delta":61601898},{"NoteNumber":62,"Velocity":57,"Duration":98403,"SoundDuration":98403,"Delta":61701456},{"NoteNumber":47,"Velocity":45,"Duration":98403,"SoundDuration":98403,"Delta":61701456},{"NoteNumber":68,"Velocity":68,"Duration":98079,"SoundDuration":98079,"Delta":61800684},{"NoteNumber":53,"Velocity":55,"Duration":98079,"SoundDuration":98079,"Delta":61800684},{"NoteNumber":74,"Velocity":58,"Duration":97648,"SoundDuration":97648,"Delta":61899586},{"NoteNumber":59,"Velocity":44,"Duration":97648,"SoundDuration":97648,"Delta":61899586},{"NoteNumber":74,"Velocity":58,"Duration":97329,"SoundDuration":97329,"Delta":61998054},{"NoteNumber":59,"Velocity":44,"Duration":97329,"SoundDuration":97329,"Delta":61998054},{"NoteNumber":80,"Velocity":58,"Duration":97011,"SoundDuration":97011,"Delta":62096201},{"NoteNumber":65,"Velocity":45,"Duration":97011,"SoundDuration":97011,"Delta":62096201},{"NoteNumber":86,"Velocity":77,"Duration":96590,"SoundDuration":96590,"Delta":62194027},{"NoteNumber":71,"Velocity":59,"Duration":96590,"SoundDuration":96590,"Delta":62194027},{"NoteNumber":80,"Velocity":59,"Duration":96799,"SoundDuration":96799,"Delta":62291429},{"NoteNumber":65,"Velocity":45,"Duration":96799,"SoundDuration":96799,"Delta":62291429},{"NoteNumber":74,"Velocity":59,"Duration":97115,"SoundDuration":97115,"Delta":62389043},{"NoteNumber":59,"Velocity":45,"Duration":97115,"SoundDuration":97115,"Delta":62389043},{"NoteNumber":74,"Velocity":59,"Duration":97433,"SoundDuration":97433,"Delta":62486976},{"NoteNumber":59,"Velocity":45,"Duration":97433,"SoundDuration":97433,"Delta":62486976},{"NoteNumber":68,"Velocity":69,"Duration":98508,"SoundDuration":98508,"Delta":62585230},{"NoteNumber":53,"Velocity":52,"Duration":98508,"SoundDuration":98508,"Delta":62585230},{"NoteNumber":62,"Velocity":60,"Duration":101534,"SoundDuration":101534,"Delta":62684574},{"NoteNumber":47,"Velocity":40,"Duration":101534,"SoundDuration":101534,"Delta":62684574},{"NoteNumber":62,"Velocity":60,"Duration":104751,"SoundDuration":104751,"Delta":62786970},{"NoteNumber":47,"Velocity":40,"Duration":104751,"SoundDuration":104751,"Delta":62786970},{"NoteNumber":56,"Velocity":60,"Duration":108180,"SoundDuration":108180,"Delta":62892612},{"NoteNumber":41,"Velocity":40,"Duration":108180,"SoundDuration":108180,"Delta":62892612},{"NoteNumber":51,"Velocity":94,"Duration":99498,"SoundDuration":99498,"Delta":63001711},{"NoteNumber":36,"Velocity":67,"Duration":99498,"SoundDuration":99498,"Delta":63001711},{"NoteNumber":56,"Velocity":59,"Duration":99166,"SoundDuration":99166,"Delta":63102046},{"NoteNumber":41,"Velocity":46,"Duration":99166,"SoundDuration":99166,"Delta":63102046},{"NoteNumber":63,"Velocity":59,"Duration":98729,"SoundDuration":98729,"Delta":63202046},{"NoteNumber":48,"Velocity":46,"Duration":98729,"SoundDuration":98729,"Delta":63202046},{"NoteNumber":63,"Velocity":59,"Duration":98403,"SoundDuration":98403,"Delta":63301604},{"NoteNumber":48,"Velocity":46,"Duration":98403,"SoundDuration":98403,"Delta":63301604},{"NoteNumber":68,"Velocity":71,"Duration":98079,"SoundDuration":98079,"Delta":63400832},{"NoteNumber":53,"Velocity":57,"Duration":98079,"SoundDuration":98079,"Delta":63400832},{"NoteNumber":75,"Velocity":61,"Duration":97648,"SoundDuration":97648,"Delta":63499734},{"NoteNumber":60,"Velocity":48,"Duration":97648,"SoundDuration":97648,"Delta":63499734},{"NoteNumber":75,"Velocity":61,"Duration":97329,"SoundDuration":97329,"Delta":63598202},{"NoteNumber":60,"Velocity":48,"Duration":97329,"SoundDuration":97329,"Delta":63598202},{"NoteNumber":80,"Velocity":61,"Duration":97011,"SoundDuration":97011,"Delta":63696349},{"NoteNumber":65,"Velocity":48,"Duration":97011,"SoundDuration":97011,"Delta":63696349},{"NoteNumber":87,"Velocity":84,"Duration":96590,"SoundDuration":96590,"Delta":63794175},{"NoteNumber":72,"Velocity":62,"Duration":96590,"SoundDuration":96590,"Delta":63794175},{"NoteNumber":80,"Velocity":62,"Duration":96799,"SoundDuration":96799,"Delta":63891577},{"NoteNumber":65,"Velocity":48,"Duration":96799,"SoundDuration":96799,"Delta":63891577},{"NoteNumber":75,"Velocity":64,"Duration":97115,"SoundDuration":97115,"Delta":63989191},{"NoteNumber":60,"Velocity":48,"Duration":97115,"SoundDuration":97115,"Delta":63989191},{"NoteNumber":75,"Velocity":64,"Duration":97433,"SoundDuration":97433,"Delta":64087124},{"NoteNumber":60,"Velocity":48,"Duration":97433,"SoundDuration":97433,"Delta":64087124},{"NoteNumber":68,"Velocity":73,"Duration":98398,"SoundDuration":98398,"Delta":64185378},{"NoteNumber":53,"Velocity":56,"Duration":98398,"SoundDuration":98398,"Delta":64185378},{"NoteNumber":63,"Velocity":63,"Duration":102471,"SoundDuration":102471,"Delta":64284613},{"NoteNumber":48,"Velocity":42,"Duration":102471,"SoundDuration":102471,"Delta":64284613},{"NoteNumber":63,"Velocity":63,"Duration":113769,"SoundDuration":113769,"Delta":64387959},{"NoteNumber":48,"Velocity":42,"Duration":113769,"SoundDuration":113769,"Delta":64387959},{"NoteNumber":56,"Velocity":63,"Duration":141149,"SoundDuration":141149,"Delta":64502811},{"NoteNumber":41,"Velocity":42,"Duration":141149,"SoundDuration":141149,"Delta":64502811},{"NoteNumber":55,"Velocity":97,"Duration":99498,"SoundDuration":99498,"Delta":64645204},{"NoteNumber":39,"Velocity":71,"Duration":99498,"SoundDuration":99498,"Delta":64645204},{"NoteNumber":60,"Velocity":63,"Duration":99166,"SoundDuration":99166,"Delta":64745539},{"NoteNumber":44,"Velocity":51,"Duration":99166,"SoundDuration":99166,"Delta":64745539},{"NoteNumber":67,"Velocity":63,"Duration":98729,"SoundDuration":98729,"Delta":64845539},{"NoteNumber":51,"Velocity":51,"Duration":98729,"SoundDuration":98729,"Delta":64845539},{"NoteNumber":67,"Velocity":63,"Duration":98403,"SoundDuration":98403,"Delta":64945097},{"NoteNumber":51,"Velocity":51,"Duration":98403,"SoundDuration":98403,"Delta":64945097},{"NoteNumber":72,"Velocity":74,"Duration":98079,"SoundDuration":98079,"Delta":65044325},{"NoteNumber":56,"Velocity":61,"Duration":98079,"SoundDuration":98079,"Delta":65044325},{"NoteNumber":79,"Velocity":64,"Duration":97648,"SoundDuration":97648,"Delta":65143227},{"NoteNumber":63,"Velocity":49,"Duration":97648,"SoundDuration":97648,"Delta":65143227},{"NoteNumber":79,"Velocity":64,"Duration":97329,"SoundDuration":97329,"Delta":65241695},{"NoteNumber":63,"Velocity":49,"Duration":97329,"SoundDuration":97329,"Delta":65241695},{"NoteNumber":84,"Velocity":66,"Duration":97011,"SoundDuration":97011,"Delta":65339842},{"NoteNumber":68,"Velocity":50,"Duration":97011,"SoundDuration":97011,"Delta":65339842},{"NoteNumber":91,"Velocity":88,"Duration":96590,"SoundDuration":96590,"Delta":65437668},{"NoteNumber":75,"Velocity":67,"Duration":96590,"SoundDuration":96590,"Delta":65437668},{"NoteNumber":84,"Velocity":67,"Duration":96799,"SoundDuration":96799,"Delta":65535070},{"NoteNumber":68,"Velocity":50,"Duration":96799,"SoundDuration":96799,"Delta":65535070},{"NoteNumber":79,"Velocity":67,"Duration":97115,"SoundDuration":97115,"Delta":65632684},{"NoteNumber":63,"Velocity":50,"Duration":97115,"SoundDuration":97115,"Delta":65632684},{"NoteNumber":79,"Velocity":67,"Duration":97433,"SoundDuration":97433,"Delta":65730617},{"NoteNumber":63,"Velocity":50,"Duration":97433,"SoundDuration":97433,"Delta":65730617},{"NoteNumber":72,"Velocity":77,"Duration":98508,"SoundDuration":98508,"Delta":65828871},{"NoteNumber":56,"Velocity":59,"Duration":98508,"SoundDuration":98508,"Delta":65828871},{"NoteNumber":67,"Velocity":67,"Duration":101534,"SoundDuration":101534,"Delta":65928215},{"NoteNumber":51,"Velocity":47,"Duration":101534,"SoundDuration":101534,"Delta":65928215},{"NoteNumber":67,"Velocity":67,"Duration":104751,"SoundDuration":104751,"Delta":66030611},{"NoteNumber":51,"Velocity":47,"Duration":104751,"SoundDuration":104751,"Delta":66030611},{"NoteNumber":60,"Velocity":67,"Duration":104726,"SoundDuration":104726,"Delta":66136253},{"NoteNumber":44,"Velocity":47,"Duration":104726,"SoundDuration":104726,"Delta":66136253},{"NoteNumber":53,"Velocity":101,"Duration":98619,"SoundDuration":98619,"Delta":66241810},{"NoteNumber":38,"Velocity":71,"Duration":98619,"SoundDuration":98619,"Delta":66241810},{"NoteNumber":60,"Velocity":66,"Duration":98079,"SoundDuration":98079,"Delta":66341258},{"NoteNumber":44,"Velocity":51,"Duration":98079,"SoundDuration":98079,"Delta":66341258},{"NoteNumber":65,"Velocity":66,"Duration":97648,"SoundDuration":97648,"Delta":66440159},{"NoteNumber":50,"Velocity":51,"Duration":97648,"SoundDuration":97648,"Delta":66440159},{"NoteNumber":65,"Velocity":66,"Duration":97118,"SoundDuration":97118,"Delta":66538628},{"NoteNumber":50,"Velocity":51,"Duration":97118,"SoundDuration":97118,"Delta":66538628},{"NoteNumber":72,"Velocity":80,"Duration":96696,"SoundDuration":96696,"Delta":66636561},{"NoteNumber":56,"Velocity":63,"Duration":96696,"SoundDuration":96696,"Delta":66636561},{"NoteNumber":77,"Velocity":68,"Duration":96176,"SoundDuration":96176,"Delta":66734069},{"NoteNumber":62,"Velocity":52,"Duration":96176,"SoundDuration":96176,"Delta":66734069},{"NoteNumber":77,"Velocity":68,"Duration":95762,"SoundDuration":95762,"Delta":66831052},{"NoteNumber":62,"Velocity":52,"Duration":95762,"SoundDuration":95762,"Delta":66831052},{"NoteNumber":84,"Velocity":68,"Duration":95252,"SoundDuration":95252,"Delta":66927619},{"NoteNumber":68,"Velocity":52,"Duration":95252,"SoundDuration":95252,"Delta":66927619},{"NoteNumber":89,"Velocity":88,"Duration":95350,"SoundDuration":95350,"Delta":67023670},{"NoteNumber":74,"Velocity":71,"Duration":95350,"SoundDuration":95350,"Delta":67023670},{"NoteNumber":83,"Velocity":71,"Duration":96174,"SoundDuration":96174,"Delta":67119825},{"NoteNumber":68,"Velocity":52,"Duration":96174,"SoundDuration":96174,"Delta":67119825},{"NoteNumber":77,"Velocity":72,"Duration":96903,"SoundDuration":96903,"Delta":67216808},{"NoteNumber":62,"Velocity":52,"Duration":96903,"SoundDuration":96903,"Delta":67216808},{"NoteNumber":77,"Velocity":72,"Duration":97541,"SoundDuration":97541,"Delta":67314528},{"NoteNumber":62,"Velocity":52,"Duration":97541,"SoundDuration":97541,"Delta":67314528},{"NoteNumber":71,"Velocity":81,"Duration":98726,"SoundDuration":98726,"Delta":67412889},{"NoteNumber":56,"Velocity":63,"Duration":98726,"SoundDuration":98726,"Delta":67412889},{"NoteNumber":65,"Velocity":69,"Duration":101074,"SoundDuration":101074,"Delta":67512451},{"NoteNumber":50,"Velocity":49,"Duration":101074,"SoundDuration":101074,"Delta":67512451},{"NoteNumber":65,"Velocity":69,"Duration":110639,"SoundDuration":110639,"Delta":67614381},{"NoteNumber":50,"Velocity":49,"Duration":110639,"SoundDuration":110639,"Delta":67614381},{"NoteNumber":59,"Velocity":69,"Duration":135950,"SoundDuration":135950,"Delta":67726080},{"NoteNumber":44,"Velocity":49,"Duration":135950,"SoundDuration":135950,"Delta":67726080},{"NoteNumber":56,"Velocity":108,"Duration":99498,"SoundDuration":99498,"Delta":67863221},{"NoteNumber":43,"Velocity":77,"Duration":99498,"SoundDuration":99498,"Delta":67863221},{"NoteNumber":59,"Velocity":67,"Duration":99166,"SoundDuration":99166,"Delta":67963556},{"NoteNumber":50,"Velocity":53,"Duration":99166,"SoundDuration":99166,"Delta":67963556},{"NoteNumber":68,"Velocity":67,"Duration":98729,"SoundDuration":98729,"Delta":68063556},{"NoteNumber":53,"Velocity":53,"Duration":98729,"SoundDuration":98729,"Delta":68063556},{"NoteNumber":68,"Velocity":67,"Duration":98403,"SoundDuration":98403,"Delta":68163113},{"NoteNumber":55,"Velocity":53,"Duration":98403,"SoundDuration":98403,"Delta":68163113},{"NoteNumber":71,"Velocity":81,"Duration":98079,"SoundDuration":98079,"Delta":68262342},{"NoteNumber":62,"Velocity":64,"Duration":98079,"SoundDuration":98079,"Delta":68262342},{"NoteNumber":80,"Velocity":70,"Duration":97648,"SoundDuration":97648,"Delta":68361243},{"NoteNumber":65,"Velocity":50,"Duration":97648,"SoundDuration":97648,"Delta":68361243},{"NoteNumber":80,"Velocity":70,"Duration":97329,"SoundDuration":97329,"Delta":68459712},{"NoteNumber":67,"Velocity":51,"Duration":97329,"SoundDuration":97329,"Delta":68459712},{"NoteNumber":83,"Velocity":70,"Duration":97011,"SoundDuration":97011,"Delta":68557858},{"NoteNumber":74,"Velocity":51,"Duration":97011,"SoundDuration":97011,"Delta":68557858},{"NoteNumber":92,"Velocity":92,"Duration":96590,"SoundDuration":96590,"Delta":68655685},{"NoteNumber":77,"Velocity":73,"Duration":96590,"SoundDuration":96590,"Delta":68655685},{"NoteNumber":83,"Velocity":67,"Duration":96799,"SoundDuration":96799,"Delta":68753087},{"NoteNumber":74,"Velocity":53,"Duration":96799,"SoundDuration":96799,"Delta":68753087},{"NoteNumber":80,"Velocity":69,"Duration":97115,"SoundDuration":97115,"Delta":68850701},{"NoteNumber":67,"Velocity":53,"Duration":97115,"SoundDuration":97115,"Delta":68850701},{"NoteNumber":80,"Velocity":69,"Duration":97433,"SoundDuration":97433,"Delta":68948634},{"NoteNumber":65,"Velocity":53,"Duration":97433,"SoundDuration":97433,"Delta":68948634},{"NoteNumber":71,"Velocity":82,"Duration":98508,"SoundDuration":98508,"Delta":69046887},{"NoteNumber":62,"Velocity":63,"Duration":98508,"SoundDuration":98508,"Delta":69046887},{"NoteNumber":68,"Velocity":67,"Duration":101534,"SoundDuration":101534,"Delta":69146232},{"NoteNumber":55,"Velocity":50,"Duration":101534,"SoundDuration":101534,"Delta":69146232},{"NoteNumber":68,"Velocity":67,"Duration":104751,"SoundDuration":104751,"Delta":69248628},{"NoteNumber":53,"Velocity":50,"Duration":104751,"SoundDuration":104751,"Delta":69248628},{"NoteNumber":59,"Velocity":67,"Duration":108180,"SoundDuration":108180,"Delta":69354269},{"NoteNumber":50,"Velocity":50,"Duration":108180,"SoundDuration":108180,"Delta":69354269},{"NoteNumber":55,"Velocity":106,"Duration":99278,"SoundDuration":99278,"Delta":69463369},{"NoteNumber":43,"Velocity":77,"Duration":99278,"SoundDuration":99278,"Delta":69463369},{"NoteNumber":59,"Velocity":67,"Duration":98729,"SoundDuration":98729,"Delta":69563481},{"NoteNumber":50,"Velocity":53,"Duration":98729,"SoundDuration":98729,"Delta":69563481},{"NoteNumber":67,"Velocity":67,"Duration":98294,"SoundDuration":98294,"Delta":69663038},{"NoteNumber":53,"Velocity":53,"Duration":98294,"SoundDuration":98294,"Delta":69663038},{"NoteNumber":67,"Velocity":67,"Duration":97756,"SoundDuration":97756,"Delta":69762158},{"NoteNumber":55,"Velocity":53,"Duration":97756,"SoundDuration":97756,"Delta":69762158},{"NoteNumber":71,"Velocity":81,"Duration":97329,"SoundDuration":97329,"Delta":69860734},{"NoteNumber":62,"Velocity":64,"Duration":97329,"SoundDuration":97329,"Delta":69860734},{"NoteNumber":79,"Velocity":70,"Duration":96802,"SoundDuration":96802,"Delta":69958880},{"NoteNumber":65,"Velocity":50,"Duration":96802,"SoundDuration":96802,"Delta":69958880},{"NoteNumber":79,"Velocity":70,"Duration":96383,"SoundDuration":96383,"Delta":70056494},{"NoteNumber":67,"Velocity":51,"Duration":96383,"SoundDuration":96383,"Delta":70056494},{"NoteNumber":83,"Velocity":70,"Duration":95866,"SoundDuration":95866,"Delta":70153687},{"NoteNumber":74,"Velocity":51,"Duration":95866,"SoundDuration":95866,"Delta":70153687},{"NoteNumber":91,"Velocity":90,"Duration":95452,"SoundDuration":95452,"Delta":70250357},{"NoteNumber":77,"Velocity":73,"Duration":95452,"SoundDuration":95452,"Delta":70250357},{"NoteNumber":83,"Velocity":67,"Duration":96069,"SoundDuration":96069,"Delta":70346614},{"NoteNumber":74,"Velocity":53,"Duration":96069,"SoundDuration":96069,"Delta":70346614},{"NoteNumber":79,"Velocity":69,"Duration":96693,"SoundDuration":96693,"Delta":70443493},{"NoteNumber":67,"Velocity":53,"Duration":96693,"SoundDuration":96693,"Delta":70443493},{"NoteNumber":79,"Velocity":69,"Duration":97433,"SoundDuration":97433,"Delta":70541001},{"NoteNumber":65,"Velocity":53,"Duration":97433,"SoundDuration":97433,"Delta":70541001},{"NoteNumber":71,"Velocity":82,"Duration":98508,"SoundDuration":98508,"Delta":70639255},{"NoteNumber":62,"Velocity":63,"Duration":98508,"SoundDuration":98508,"Delta":70639255},{"NoteNumber":67,"Velocity":67,"Duration":101534,"SoundDuration":101534,"Delta":70738599},{"NoteNumber":55,"Velocity":50,"Duration":101534,"SoundDuration":101534,"Delta":70738599},{"NoteNumber":67,"Velocity":67,"Duration":104751,"SoundDuration":104751,"Delta":70840995},{"NoteNumber":53,"Velocity":50,"Duration":104751,"SoundDuration":104751,"Delta":70840995},{"NoteNumber":59,"Velocity":67,"Duration":105840,"SoundDuration":105840,"Delta":70946637},{"NoteNumber":50,"Velocity":50,"Duration":105840,"SoundDuration":105840,"Delta":70946637},{"NoteNumber":43,"Velocity":100,"Duration":102118,"SoundDuration":102118,"Delta":71053336},{"NoteNumber":31,"Velocity":74,"Duration":102118,"SoundDuration":102118,"Delta":71053336},{"NoteNumber":47,"Velocity":61,"Duration":101652,"SoundDuration":101652,"Delta":71156311},{"NoteNumber":38,"Velocity":44,"Duration":101652,"SoundDuration":101652,"Delta":71156311},{"NoteNumber":55,"Velocity":62,"Duration":101306,"SoundDuration":101306,"Delta":71258817},{"NoteNumber":43,"Velocity":44,"Duration":101306,"SoundDuration":101306,"Delta":71258817},{"NoteNumber":55,"Velocity":64,"Duration":100847,"SoundDuration":100847,"Delta":71360974},{"NoteNumber":43,"Velocity":44,"Duration":100847,"SoundDuration":100847,"Delta":71360974},{"NoteNumber":59,"Velocity":75,"Duration":100395,"SoundDuration":100395,"Delta":71462669},{"NoteNumber":50,"Velocity":58,"Duration":100395,"SoundDuration":100395,"Delta":71462669},{"NoteNumber":67,"Velocity":66,"Duration":100058,"SoundDuration":100058,"Delta":71563906},{"NoteNumber":55,"Velocity":40,"Duration":100058,"SoundDuration":100058,"Delta":71563906},{"NoteNumber":59,"Velocity":67,"Duration":99610,"SoundDuration":99610,"Delta":71664803},{"NoteNumber":50,"Velocity":40,"Duration":99610,"SoundDuration":99610,"Delta":71664803},{"NoteNumber":55,"Velocity":68,"Duration":99170,"SoundDuration":99170,"Delta":71765250},{"NoteNumber":43,"Velocity":41,"Duration":99170,"SoundDuration":99170,"Delta":71765250},{"NoteNumber":43,"Velocity":105,"Duration":98945,"SoundDuration":98945,"Delta":71865251},{"NoteNumber":32,"Velocity":63,"Duration":98945,"SoundDuration":98945,"Delta":71865251},{"NoteNumber":48,"Velocity":68,"Duration":99386,"SoundDuration":99386,"Delta":71965029},{"NoteNumber":36,"Velocity":44,"Duration":99386,"SoundDuration":99386,"Delta":71965029},{"NoteNumber":55,"Velocity":68,"Duration":99720,"SoundDuration":99720,"Delta":72065252},{"NoteNumber":44,"Velocity":44,"Duration":99720,"SoundDuration":99720,"Delta":72065252},{"NoteNumber":55,"Velocity":69,"Duration":100279,"SoundDuration":100279,"Delta":72165811},{"NoteNumber":44,"Velocity":44,"Duration":100279,"SoundDuration":100279,"Delta":72165811},{"NoteNumber":60,"Velocity":80,"Duration":101533,"SoundDuration":101533,"Delta":72266935},{"NoteNumber":48,"Velocity":58,"Duration":101533,"SoundDuration":101533,"Delta":72266935},{"NoteNumber":67,"Velocity":70,"Duration":103295,"SoundDuration":103295,"Delta":72369327},{"NoteNumber":56,"Velocity":41,"Duration":103295,"SoundDuration":103295,"Delta":72369327},{"NoteNumber":60,"Velocity":71,"Duration":105120,"SoundDuration":105120,"Delta":72473497},{"NoteNumber":48,"Velocity":41,"Duration":105120,"SoundDuration":105120,"Delta":72473497},{"NoteNumber":55,"Velocity":72,"Duration":106351,"SoundDuration":106351,"Delta":72579508},{"NoteNumber":44,"Velocity":41,"Duration":106351,"SoundDuration":106351,"Delta":72579508},{"NoteNumber":43,"Velocity":106,"Duration":102118,"SoundDuration":102118,"Delta":72686731},{"NoteNumber":33,"Velocity":71,"Duration":102118,"SoundDuration":102118,"Delta":72686731},{"NoteNumber":49,"Velocity":69,"Duration":101539,"SoundDuration":101539,"Delta":72789706},{"NoteNumber":37,"Velocity":43,"Duration":101539,"SoundDuration":101539,"Delta":72789706},{"NoteNumber":55,"Velocity":70,"Duration":100851,"SoundDuration":100851,"Delta":72892096},{"NoteNumber":45,"Velocity":44,"Duration":100851,"SoundDuration":100851,"Delta":72892096},{"NoteNumber":55,"Velocity":71,"Duration":100171,"SoundDuration":100171,"Delta":72993792},{"NoteNumber":45,"Velocity":45,"Duration":100171,"SoundDuration":100171,"Delta":72993792},{"NoteNumber":61,"Velocity":81,"Duration":99832,"SoundDuration":99832,"Delta":73094802},{"NoteNumber":49,"Velocity":61,"Duration":99832,"SoundDuration":99832,"Delta":73094802},{"NoteNumber":67,"Velocity":72,"Duration":99832,"SoundDuration":99832,"Delta":73195474},{"NoteNumber":57,"Velocity":46,"Duration":99832,"SoundDuration":99832,"Delta":73195474},{"NoteNumber":61,"Velocity":74,"Duration":99832,"SoundDuration":99832,"Delta":73296145},{"NoteNumber":49,"Velocity":47,"Duration":99832,"SoundDuration":99832,"Delta":73296145},{"NoteNumber":55,"Velocity":76,"Duration":99832,"SoundDuration":99832,"Delta":73396816},{"NoteNumber":45,"Velocity":48,"Duration":99832,"SoundDuration":99832,"Delta":73396816},{"NoteNumber":43,"Velocity":109,"Duration":100616,"SoundDuration":100616,"Delta":73497487},{"NoteNumber":34,"Velocity":70,"Duration":100616,"SoundDuration":100616,"Delta":73497487},{"NoteNumber":49,"Velocity":73,"Duration":101996,"SoundDuration":101996,"Delta":73598955},{"NoteNumber":37,"Velocity":50,"Duration":101996,"SoundDuration":101996,"Delta":73598955},{"NoteNumber":55,"Velocity":75,"Duration":103415,"SoundDuration":103415,"Delta":73701814},{"NoteNumber":46,"Velocity":51,"Duration":103415,"SoundDuration":103415,"Delta":73701814},{"NoteNumber":49,"Velocity":75,"Duration":103699,"SoundDuration":103699,"Delta":73806103},{"NoteNumber":37,"Velocity":50,"Duration":103699,"SoundDuration":103699,"Delta":73806103},{"NoteNumber":43,"Velocity":96,"Duration":105129,"SoundDuration":105129,"Delta":73910656},{"NoteNumber":35,"Velocity":69,"Duration":105129,"SoundDuration":105129,"Delta":73910656},{"NoteNumber":50,"Velocity":73,"Duration":111157,"SoundDuration":111157,"Delta":74016685},{"NoteNumber":38,"Velocity":50,"Duration":111157,"SoundDuration":111157,"Delta":74016685},{"NoteNumber":55,"Velocity":72,"Duration":118066,"SoundDuration":118066,"Delta":74128797},{"NoteNumber":47,"Velocity":50,"Duration":118066,"SoundDuration":118066,"Delta":74128797},{"NoteNumber":50,"Velocity":72,"Duration":134615,"SoundDuration":134615,"Delta":74247876},{"NoteNumber":38,"Velocity":51,"Duration":134615,"SoundDuration":134615,"Delta":74247876},{"NoteNumber":51,"Velocity":108,"Duration":105506,"SoundDuration":105506,"Delta":74383622},{"NoteNumber":36,"Velocity":82,"Duration":105506,"SoundDuration":105506,"Delta":74383622},{"NoteNumber":55,"Velocity":70,"Duration":103307,"SoundDuration":103307,"Delta":74490009},{"NoteNumber":43,"Velocity":56,"Duration":103307,"SoundDuration":103307,"Delta":74490009},{"NoteNumber":63,"Velocity":70,"Duration":100856,"SoundDuration":100856,"Delta":74594179},{"NoteNumber":48,"Velocity":56,"Duration":100856,"SoundDuration":100856,"Delta":74594179},{"NoteNumber":63,"Velocity":70,"Duration":98739,"SoundDuration":98739,"Delta":74695877},{"NoteNumber":48,"Velocity":56,"Duration":98739,"SoundDuration":98739,"Delta":74695877},{"NoteNumber":67,"Velocity":82,"Duration":97329,"SoundDuration":97329,"Delta":74795439},{"NoteNumber":55,"Velocity":70,"Duration":97329,"SoundDuration":97329,"Delta":74795439},{"NoteNumber":75,"Velocity":72,"Duration":96802,"SoundDuration":96802,"Delta":74893585},{"NoteNumber":60,"Velocity":57,"Duration":96802,"SoundDuration":96802,"Delta":74893585},{"NoteNumber":75,"Velocity":70,"Duration":96383,"SoundDuration":96383,"Delta":74991199},{"NoteNumber":60,"Velocity":56,"Duration":96383,"SoundDuration":96383,"Delta":74991199},{"NoteNumber":79,"Velocity":70,"Duration":95866,"SoundDuration":95866,"Delta":75088392},{"NoteNumber":67,"Velocity":56,"Duration":95866,"SoundDuration":95866,"Delta":75088392},{"NoteNumber":87,"Velocity":90,"Duration":95452,"SoundDuration":95452,"Delta":75185062},{"NoteNumber":72,"Velocity":67,"Duration":95452,"SoundDuration":95452,"Delta":75185062},{"NoteNumber":79,"Velocity":74,"Duration":95864,"SoundDuration":95864,"Delta":75281319},{"NoteNumber":67,"Velocity":56,"Duration":95864,"SoundDuration":95864,"Delta":75281319},{"NoteNumber":75,"Velocity":74,"Duration":96380,"SoundDuration":96380,"Delta":75377989},{"NoteNumber":60,"Velocity":56,"Duration":96380,"SoundDuration":96380,"Delta":75377989},{"NoteNumber":75,"Velocity":74,"Duration":96799,"SoundDuration":96799,"Delta":75475182},{"NoteNumber":60,"Velocity":56,"Duration":96799,"SoundDuration":96799,"Delta":75475182},{"NoteNumber":67,"Velocity":82,"Duration":98617,"SoundDuration":98617,"Delta":75572796},{"NoteNumber":55,"Velocity":63,"Duration":98617,"SoundDuration":98617,"Delta":75572796},{"NoteNumber":63,"Velocity":70,"Duration":102234,"SoundDuration":102234,"Delta":75672253},{"NoteNumber":48,"Velocity":55,"Duration":102234,"SoundDuration":102234,"Delta":75672253},{"NoteNumber":63,"Velocity":70,"Duration":106251,"SoundDuration":106251,"Delta":75775358},{"NoteNumber":48,"Velocity":55,"Duration":106251,"SoundDuration":106251,"Delta":75775358},{"NoteNumber":55,"Velocity":70,"Duration":106522,"SoundDuration":106522,"Delta":75882516},{"NoteNumber":43,"Velocity":55,"Duration":106522,"SoundDuration":106522,"Delta":75882516},{"NoteNumber":50,"Velocity":107,"Duration":101539,"SoundDuration":101539,"Delta":75989878},{"NoteNumber":36,"Velocity":75,"Duration":101539,"SoundDuration":101539,"Delta":75989878},{"NoteNumber":56,"Velocity":66,"Duration":100400,"SoundDuration":100400,"Delta":76092267},{"NoteNumber":41,"Velocity":57,"Duration":100400,"SoundDuration":100400,"Delta":76092267},{"NoteNumber":62,"Velocity":66,"Duration":99170,"SoundDuration":99170,"Delta":76193507},{"NoteNumber":48,"Velocity":51,"Duration":99170,"SoundDuration":99170,"Delta":76193507},{"NoteNumber":62,"Velocity":66,"Duration":98079,"SoundDuration":98079,"Delta":76293507},{"NoteNumber":48,"Velocity":51,"Duration":98079,"SoundDuration":98079,"Delta":76293507},{"NoteNumber":68,"Velocity":82,"Duration":97756,"SoundDuration":97756,"Delta":76392409},{"NoteNumber":53,"Velocity":70,"Duration":97756,"SoundDuration":97756,"Delta":76392409},{"NoteNumber":74,"Velocity":67,"Duration":97329,"SoundDuration":97329,"Delta":76490986},{"NoteNumber":60,"Velocity":51,"Duration":97329,"SoundDuration":97329,"Delta":76490986},{"NoteNumber":74,"Velocity":66,"Duration":96802,"SoundDuration":96802,"Delta":76589132},{"NoteNumber":60,"Velocity":51,"Duration":96802,"SoundDuration":96802,"Delta":76589132},{"NoteNumber":80,"Velocity":66,"Duration":96383,"SoundDuration":96383,"Delta":76686746},{"NoteNumber":65,"Velocity":51,"Duration":96383,"SoundDuration":96383,"Delta":76686746},{"NoteNumber":86,"Velocity":92,"Duration":95967,"SoundDuration":95967,"Delta":76783939},{"NoteNumber":72,"Velocity":69,"Duration":95967,"SoundDuration":95967,"Delta":76783939},{"NoteNumber":80,"Velocity":72,"Duration":96380,"SoundDuration":96380,"Delta":76880713},{"NoteNumber":65,"Velocity":56,"Duration":96380,"SoundDuration":96380,"Delta":76880713},{"NoteNumber":74,"Velocity":70,"Duration":96799,"SoundDuration":96799,"Delta":76977905},{"NoteNumber":60,"Velocity":56,"Duration":96799,"SoundDuration":96799,"Delta":76977905},{"NoteNumber":74,"Velocity":70,"Duration":97326,"SoundDuration":97326,"Delta":77075519},{"NoteNumber":60,"Velocity":56,"Duration":97326,"SoundDuration":97326,"Delta":77075519},{"NoteNumber":68,"Velocity":79,"Duration":99054,"SoundDuration":99054,"Delta":77173666},{"NoteNumber":53,"Velocity":63,"Duration":99054,"SoundDuration":99054,"Delta":77173666},{"NoteNumber":62,"Velocity":69,"Duration":101648,"SoundDuration":101648,"Delta":77273560},{"NoteNumber":48,"Velocity":51,"Duration":101648,"SoundDuration":101648,"Delta":77273560},{"NoteNumber":62,"Velocity":69,"Duration":104505,"SoundDuration":104505,"Delta":77376070},{"NoteNumber":48,"Velocity":51,"Duration":104505,"SoundDuration":104505,"Delta":77376070},{"NoteNumber":56,"Velocity":67,"Duration":107399,"SoundDuration":107399,"Delta":77481462},{"NoteNumber":41,"Velocity":51,"Duration":107399,"SoundDuration":107399,"Delta":77481462},{"NoteNumber":53,"Velocity":107,"Duration":99498,"SoundDuration":99498,"Delta":77589774},{"NoteNumber":36,"Velocity":78,"Duration":99498,"SoundDuration":99498,"Delta":77589774},{"NoteNumber":60,"Velocity":70,"Duration":99166,"SoundDuration":99166,"Delta":77690108},{"NoteNumber":44,"Velocity":57,"Duration":99166,"SoundDuration":99166,"Delta":77690108},{"NoteNumber":65,"Velocity":70,"Duration":98729,"SoundDuration":98729,"Delta":77790108},{"NoteNumber":48,"Velocity":57,"Duration":98729,"SoundDuration":98729,"Delta":77790108},{"NoteNumber":65,"Velocity":70,"Duration":98403,"SoundDuration":98403,"Delta":77889666},{"NoteNumber":48,"Velocity":57,"Duration":98403,"SoundDuration":98403,"Delta":77889666},{"NoteNumber":72,"Velocity":82,"Duration":98079,"SoundDuration":98079,"Delta":77988895},{"NoteNumber":56,"Velocity":70,"Duration":98079,"SoundDuration":98079,"Delta":77988895},{"NoteNumber":77,"Velocity":72,"Duration":97648,"SoundDuration":97648,"Delta":78087796},{"NoteNumber":60,"Velocity":56,"Duration":97648,"SoundDuration":97648,"Delta":78087796},{"NoteNumber":77,"Velocity":72,"Duration":97329,"SoundDuration":97329,"Delta":78186265},{"NoteNumber":60,"Velocity":56,"Duration":97329,"SoundDuration":97329,"Delta":78186265},{"NoteNumber":84,"Velocity":72,"Duration":97011,"SoundDuration":97011,"Delta":78284411},{"NoteNumber":68,"Velocity":56,"Duration":97011,"SoundDuration":97011,"Delta":78284411},{"NoteNumber":89,"Velocity":88,"Duration":96590,"SoundDuration":96590,"Delta":78382237},{"NoteNumber":72,"Velocity":67,"Duration":96590,"SoundDuration":96590,"Delta":78382237},{"NoteNumber":84,"Velocity":74,"Duration":96799,"SoundDuration":96799,"Delta":78479640},{"NoteNumber":68,"Velocity":56,"Duration":96799,"SoundDuration":96799,"Delta":78479640},{"NoteNumber":77,"Velocity":74,"Duration":97115,"SoundDuration":97115,"Delta":78577254},{"NoteNumber":60,"Velocity":56,"Duration":97115,"SoundDuration":97115,"Delta":78577254},{"NoteNumber":77,"Velocity":74,"Duration":97433,"SoundDuration":97433,"Delta":78675187},{"NoteNumber":60,"Velocity":56,"Duration":97433,"SoundDuration":97433,"Delta":78675187},{"NoteNumber":72,"Velocity":82,"Duration":98508,"SoundDuration":98508,"Delta":78773440},{"NoteNumber":56,"Velocity":63,"Duration":98508,"SoundDuration":98508,"Delta":78773440},{"NoteNumber":65,"Velocity":72,"Duration":101534,"SoundDuration":101534,"Delta":78872785},{"NoteNumber":48,"Velocity":50,"Duration":101534,"SoundDuration":101534,"Delta":78872785},{"NoteNumber":65,"Velocity":72,"Duration":104751,"SoundDuration":104751,"Delta":78975181},{"NoteNumber":48,"Velocity":50,"Duration":104751,"SoundDuration":104751,"Delta":78975181},{"NoteNumber":60,"Velocity":72,"Duration":108180,"SoundDuration":108180,"Delta":79080822},{"NoteNumber":44,"Velocity":50,"Duration":108180,"SoundDuration":108180,"Delta":79080822},{"NoteNumber":51,"Velocity":109,"Duration":99832,"SoundDuration":99832,"Delta":79189922},{"NoteNumber":36,"Velocity":82,"Duration":99832,"SoundDuration":99832,"Delta":79189922},{"NoteNumber":55,"Velocity":70,"Duration":99389,"SoundDuration":99389,"Delta":79290593},{"NoteNumber":43,"Velocity":56,"Duration":99389,"SoundDuration":99389,"Delta":79290593},{"NoteNumber":63,"Velocity":70,"Duration":98947,"SoundDuration":98947,"Delta":79390816},{"NoteNumber":48,"Velocity":56,"Duration":98947,"SoundDuration":98947,"Delta":79390816},{"NoteNumber":63,"Velocity":70,"Duration":98403,"SoundDuration":98403,"Delta":79490595},{"NoteNumber":48,"Velocity":56,"Duration":98403,"SoundDuration":98403,"Delta":79490595},{"NoteNumber":67,"Velocity":82,"Duration":97970,"SoundDuration":97970,"Delta":79589823},{"NoteNumber":55,"Velocity":70,"Duration":97970,"SoundDuration":97970,"Delta":79589823},{"NoteNumber":75,"Velocity":72,"Duration":97436,"SoundDuration":97436,"Delta":79688616},{"NoteNumber":60,"Velocity":57,"Duration":97436,"SoundDuration":97436,"Delta":79688616},{"NoteNumber":75,"Velocity":70,"Duration":97011,"SoundDuration":97011,"Delta":79786870},{"NoteNumber":60,"Velocity":56,"Duration":97011,"SoundDuration":97011,"Delta":79786870},{"NoteNumber":79,"Velocity":70,"Duration":96488,"SoundDuration":96488,"Delta":79884696},{"NoteNumber":67,"Velocity":56,"Duration":96488,"SoundDuration":96488,"Delta":79884696},{"NoteNumber":87,"Velocity":91,"Duration":96380,"SoundDuration":96380,"Delta":79981993},{"NoteNumber":72,"Velocity":67,"Duration":96380,"SoundDuration":96380,"Delta":79981993},{"NoteNumber":79,"Velocity":74,"Duration":96799,"SoundDuration":96799,"Delta":80079186},{"NoteNumber":67,"Velocity":56,"Duration":96799,"SoundDuration":96799,"Delta":80079186},{"NoteNumber":75,"Velocity":74,"Duration":97115,"SoundDuration":97115,"Delta":80176800},{"NoteNumber":60,"Velocity":56,"Duration":97115,"SoundDuration":97115,"Delta":80176800},{"NoteNumber":75,"Velocity":74,"Duration":97541,"SoundDuration":97541,"Delta":80274733},{"NoteNumber":60,"Velocity":56,"Duration":97541,"SoundDuration":97541,"Delta":80274733},{"NoteNumber":67,"Velocity":82,"Duration":98945,"SoundDuration":98945,"Delta":80373093},{"NoteNumber":55,"Velocity":63,"Duration":98945,"SoundDuration":98945,"Delta":80373093},{"NoteNumber":63,"Velocity":70,"Duration":102587,"SoundDuration":102587,"Delta":80472881},{"NoteNumber":48,"Velocity":55,"Duration":102587,"SoundDuration":102587,"Delta":80472881},{"NoteNumber":63,"Velocity":70,"Duration":106504,"SoundDuration":106504,"Delta":80576342},{"NoteNumber":48,"Velocity":55,"Duration":106504,"SoundDuration":106504,"Delta":80576342},{"NoteNumber":55,"Velocity":70,"Duration":110458,"SoundDuration":110458,"Delta":80683752},{"NoteNumber":43,"Velocity":55,"Duration":110458,"SoundDuration":110458,"Delta":80683752},{"NoteNumber":50,"Velocity":110,"Duration":99498,"SoundDuration":99498,"Delta":80795143},{"NoteNumber":36,"Velocity":75,"Duration":99498,"SoundDuration":99498,"Delta":80795143},{"NoteNumber":56,"Velocity":66,"Duration":99058,"SoundDuration":99058,"Delta":80895478},{"NoteNumber":41,"Velocity":57,"Duration":99058,"SoundDuration":99058,"Delta":80895478},{"NoteNumber":62,"Velocity":66,"Duration":98729,"SoundDuration":98729,"Delta":80995367},{"NoteNumber":48,"Velocity":51,"Duration":98729,"SoundDuration":98729,"Delta":80995367},{"NoteNumber":62,"Velocity":66,"Duration":98294,"SoundDuration":98294,"Delta":81094925},{"NoteNumber":48,"Velocity":51,"Duration":98294,"SoundDuration":98294,"Delta":81094925},{"NoteNumber":68,"Velocity":82,"Duration":97861,"SoundDuration":97861,"Delta":81194044},{"NoteNumber":53,"Velocity":70,"Duration":97861,"SoundDuration":97861,"Delta":81194044},{"NoteNumber":74,"Velocity":67,"Duration":97436,"SoundDuration":97436,"Delta":81292728},{"NoteNumber":60,"Velocity":51,"Duration":97436,"SoundDuration":97436,"Delta":81292728},{"NoteNumber":74,"Velocity":66,"Duration":97118,"SoundDuration":97118,"Delta":81390982},{"NoteNumber":60,"Velocity":51,"Duration":97118,"SoundDuration":97118,"Delta":81390982},{"NoteNumber":80,"Velocity":66,"Duration":96696,"SoundDuration":96696,"Delta":81488915},{"NoteNumber":65,"Velocity":51,"Duration":96696,"SoundDuration":96696,"Delta":81488915},{"NoteNumber":86,"Velocity":95,"Duration":96278,"SoundDuration":96278,"Delta":81586423},{"NoteNumber":72,"Velocity":69,"Duration":96278,"SoundDuration":96278,"Delta":81586423},{"NoteNumber":80,"Velocity":72,"Duration":96693,"SoundDuration":96693,"Delta":81683510},{"NoteNumber":65,"Velocity":56,"Duration":96693,"SoundDuration":96693,"Delta":81683510},{"NoteNumber":74,"Velocity":70,"Duration":97009,"SoundDuration":97009,"Delta":81781019},{"NoteNumber":60,"Velocity":56,"Duration":97009,"SoundDuration":97009,"Delta":81781019},{"NoteNumber":74,"Velocity":70,"Duration":97433,"SoundDuration":97433,"Delta":81878845},{"NoteNumber":60,"Velocity":56,"Duration":97433,"SoundDuration":97433,"Delta":81878845},{"NoteNumber":68,"Velocity":79,"Duration":98181,"SoundDuration":98181,"Delta":81977099},{"NoteNumber":53,"Velocity":63,"Duration":98181,"SoundDuration":98181,"Delta":81977099},{"NoteNumber":62,"Velocity":69,"Duration":100845,"SoundDuration":100845,"Delta":82076111},{"NoteNumber":48,"Velocity":51,"Duration":100845,"SoundDuration":100845,"Delta":82076111},{"NoteNumber":62,"Velocity":69,"Duration":104019,"SoundDuration":104019,"Delta":82177813},{"NoteNumber":48,"Velocity":51,"Duration":104019,"SoundDuration":104019,"Delta":82177813},{"NoteNumber":56,"Velocity":67,"Duration":107529,"SoundDuration":107529,"Delta":82282715},{"NoteNumber":41,"Velocity":51,"Duration":107529,"SoundDuration":107529,"Delta":82282715},{"NoteNumber":51,"Velocity":109,"Duration":99166,"SoundDuration":99166,"Delta":82391161},{"NoteNumber":36,"Velocity":78,"Duration":99166,"SoundDuration":99166,"Delta":82391161},{"NoteNumber":56,"Velocity":70,"Duration":98947,"SoundDuration":98947,"Delta":82491161},{"NoteNumber":41,"Velocity":57,"Duration":98947,"SoundDuration":98947,"Delta":82491161},{"NoteNumber":63,"Velocity":70,"Duration":98729,"SoundDuration":98729,"Delta":82590939},{"NoteNumber":47,"Velocity":57,"Duration":98729,"SoundDuration":98729,"Delta":82590939},{"NoteNumber":63,"Velocity":70,"Duration":98509,"SoundDuration":98509,"Delta":82690497},{"NoteNumber":48,"Velocity":57,"Duration":98509,"SoundDuration":98509,"Delta":82690497},{"NoteNumber":68,"Velocity":82,"Duration":98184,"SoundDuration":98184,"Delta":82789835},{"NoteNumber":56,"Velocity":70,"Duration":98184,"SoundDuration":98184,"Delta":82789835},{"NoteNumber":75,"Velocity":72,"Duration":97970,"SoundDuration":97970,"Delta":82888845},{"NoteNumber":59,"Velocity":56,"Duration":97970,"SoundDuration":97970,"Delta":82888845},{"NoteNumber":75,"Velocity":72,"Duration":97756,"SoundDuration":97756,"Delta":82987638},{"NoteNumber":60,"Velocity":56,"Duration":97756,"SoundDuration":97756,"Delta":82987638},{"NoteNumber":80,"Velocity":72,"Duration":97436,"SoundDuration":97436,"Delta":83086214},{"NoteNumber":65,"Velocity":56,"Duration":97436,"SoundDuration":97436,"Delta":83086214},{"NoteNumber":87,"Velocity":94,"Duration":97222,"SoundDuration":97222,"Delta":83184468},{"NoteNumber":71,"Velocity":67,"Duration":97222,"SoundDuration":97222,"Delta":83184468},{"NoteNumber":80,"Velocity":74,"Duration":97433,"SoundDuration":97433,"Delta":83282507},{"NoteNumber":65,"Velocity":56,"Duration":97433,"SoundDuration":97433,"Delta":83282507},{"NoteNumber":75,"Velocity":74,"Duration":97541,"SoundDuration":97541,"Delta":83380760},{"NoteNumber":60,"Velocity":56,"Duration":97541,"SoundDuration":97541,"Delta":83380760},{"NoteNumber":75,"Velocity":74,"Duration":97859,"SoundDuration":97859,"Delta":83479121},{"NoteNumber":59,"Velocity":56,"Duration":97859,"SoundDuration":97859,"Delta":83479121},{"NoteNumber":68,"Velocity":82,"Duration":99718,"SoundDuration":99718,"Delta":83577806},{"NoteNumber":53,"Velocity":63,"Duration":99718,"SoundDuration":99718,"Delta":83577806},{"NoteNumber":63,"Velocity":72,"Duration":102348,"SoundDuration":102348,"Delta":83678370},{"NoteNumber":48,"Velocity":50,"Duration":102348,"SoundDuration":102348,"Delta":83678370},{"NoteNumber":63,"Velocity":72,"Duration":107495,"SoundDuration":107495,"Delta":83781586},{"NoteNumber":47,"Velocity":50,"Duration":107495,"SoundDuration":107495,"Delta":83781586},{"NoteNumber":56,"Velocity":72,"Duration":124300,"SoundDuration":124300,"Delta":83890025},{"NoteNumber":41,"Velocity":50,"Duration":124300,"SoundDuration":124300,"Delta":83890025},{"NoteNumber":48,"Velocity":106,"Duration":98619,"SoundDuration":98619,"Delta":84015427},{"NoteNumber":36,"Velocity":78,"Duration":98619,"SoundDuration":98619,"Delta":84015427},{"NoteNumber":51,"Velocity":70,"Duration":97970,"SoundDuration":97970,"Delta":84114874},{"NoteNumber":43,"Velocity":57,"Duration":97970,"SoundDuration":97970,"Delta":84114874},{"NoteNumber":60,"Velocity":70,"Duration":97329,"SoundDuration":97329,"Delta":84213667},{"NoteNumber":48,"Velocity":57,"Duration":97329,"SoundDuration":97329,"Delta":84213667},{"NoteNumber":60,"Velocity":70,"Duration":96594,"SoundDuration":96594,"Delta":84311814},{"NoteNumber":48,"Velocity":57,"Duration":96594,"SoundDuration":96594,"Delta":84311814},{"NoteNumber":63,"Velocity":78,"Duration":97541,"SoundDuration":97541,"Delta":84409217},{"NoteNumber":55,"Velocity":66,"Duration":97541,"SoundDuration":97541,"Delta":84409217},{"NoteNumber":72,"Velocity":85,"Duration":393443,"SoundDuration":393443,"Delta":84507578},{"NoteNumber":60,"Velocity":51,"Duration":97541,"SoundDuration":97541,"Delta":84507578},{"NoteNumber":63,"Velocity":66,"Duration":97541,"SoundDuration":97541,"Delta":84605938},{"NoteNumber":55,"Velocity":51,"Duration":97541,"SoundDuration":97541,"Delta":84605938},{"NoteNumber":60,"Velocity":64,"Duration":97541,"SoundDuration":97541,"Delta":84704299},{"NoteNumber":48,"Velocity":50,"Duration":97541,"SoundDuration":97541,"Delta":84704299},{"NoteNumber":63,"Velocity":74,"Duration":97541,"SoundDuration":97541,"Delta":84802660},{"NoteNumber":55,"Velocity":61,"Duration":97541,"SoundDuration":97541,"Delta":84802660},{"NoteNumber":70,"Velocity":81,"Duration":393442,"SoundDuration":393442,"Delta":84901021},{"NoteNumber":60,"Velocity":49,"Duration":97541,"SoundDuration":97541,"Delta":84901021},{"NoteNumber":63,"Velocity":64,"Duration":97541,"SoundDuration":97541,"Delta":84999381},{"NoteNumber":55,"Velocity":49,"Duration":97541,"SoundDuration":97541,"Delta":84999381},{"NoteNumber":60,"Velocity":64,"Duration":97541,"SoundDuration":97541,"Delta":85097742},{"NoteNumber":48,"Velocity":48,"Duration":97541,"SoundDuration":97541,"Delta":85097742},{"NoteNumber":63,"Velocity":73,"Duration":97541,"SoundDuration":97541,"Delta":85196103},{"NoteNumber":55,"Velocity":55,"Duration":97541,"SoundDuration":97541,"Delta":85196103},{"NoteNumber":68,"Velocity":77,"Duration":392376,"SoundDuration":392376,"Delta":85294464},{"NoteNumber":60,"Velocity":41,"Duration":97541,"SoundDuration":97541,"Delta":85294464},{"NoteNumber":63,"Velocity":60,"Duration":97541,"SoundDuration":97541,"Delta":85392824},{"NoteNumber":55,"Velocity":41,"Duration":97541,"SoundDuration":97541,"Delta":85392824},{"NoteNumber":60,"Velocity":60,"Duration":97229,"SoundDuration":97229,"Delta":85491185},{"NoteNumber":48,"Velocity":41,"Duration":97229,"SoundDuration":97229,"Delta":85491185},{"NoteNumber":62,"Velocity":69,"Duration":96799,"SoundDuration":96799,"Delta":85589227},{"NoteNumber":55,"Velocity":58,"Duration":96799,"SoundDuration":96799,"Delta":85589227},{"NoteNumber":67,"Velocity":75,"Duration":395729,"SoundDuration":395729,"Delta":85686841},{"NoteNumber":59,"Velocity":47,"Duration":97326,"SoundDuration":97326,"Delta":85686841},{"NoteNumber":62,"Velocity":58,"Duration":97754,"SoundDuration":97754,"Delta":85784987},{"NoteNumber":55,"Velocity":46,"Duration":97754,"SoundDuration":97754,"Delta":85784987},{"NoteNumber":59,"Velocity":58,"Duration":98400,"SoundDuration":98400,"Delta":85883563},{"NoteNumber":48,"Velocity":46,"Duration":98400,"SoundDuration":98400,"Delta":85883563},{"NoteNumber":61,"Velocity":66,"Duration":98945,"SoundDuration":98945,"Delta":85982792},{"NoteNumber":55,"Velocity":53,"Duration":98945,"SoundDuration":98945,"Delta":85982792},{"NoteNumber":67,"Velocity":73,"Duration":404511,"SoundDuration":404511,"Delta":86082570},{"NoteNumber":58,"Velocity":44,"Duration":99386,"SoundDuration":99386,"Delta":86082570},{"NoteNumber":61,"Velocity":58,"Duration":100055,"SoundDuration":100055,"Delta":86182793},{"NoteNumber":55,"Velocity":44,"Duration":100055,"SoundDuration":100055,"Delta":86182793},{"NoteNumber":58,"Velocity":56,"Duration":100618,"SoundDuration":100618,"Delta":86283690},{"NoteNumber":48,"Velocity":41,"Duration":100618,"SoundDuration":100618,"Delta":86283690},{"NoteNumber":60,"Velocity":63,"Duration":101075,"SoundDuration":101075,"Delta":86385156},{"NoteNumber":53,"Velocity":49,"Duration":101075,"SoundDuration":101075,"Delta":86385156},{"NoteNumber":65,"Velocity":70,"Duration":414306,"SoundDuration":414306,"Delta":86487082},{"NoteNumber":57,"Velocity":37,"Duration":101766,"SoundDuration":101766,"Delta":86487082},{"NoteNumber":60,"Velocity":55,"Duration":102349,"SoundDuration":102349,"Delta":86589705},{"NoteNumber":53,"Velocity":37,"Duration":102349,"SoundDuration":102349,"Delta":86589705},{"NoteNumber":57,"Velocity":53,"Duration":102821,"SoundDuration":102821,"Delta":86692916},{"NoteNumber":48,"Velocity":37,"Duration":102821,"SoundDuration":102821,"Delta":86692916},{"NoteNumber":59,"Velocity":59,"Duration":103898,"SoundDuration":103898,"Delta":86796603},{"NoteNumber":53,"Velocity":48,"Duration":103898,"SoundDuration":103898,"Delta":86796603},{"NoteNumber":65,"Velocity":66,"Duration":366551,"SoundDuration":366551,"Delta":86901388},{"NoteNumber":56,"Velocity":36,"Duration":111033,"SoundDuration":111033,"Delta":86901388},{"NoteNumber":59,"Velocity":52,"Duration":120480,"SoundDuration":120480,"Delta":87013379},{"NoteNumber":53,"Velocity":36,"Duration":120480,"SoundDuration":120480,"Delta":87013379},{"NoteNumber":56,"Velocity":50,"Duration":131890,"SoundDuration":131890,"Delta":87134902},{"NoteNumber":48,"Velocity":35,"Duration":131890,"SoundDuration":131890,"Delta":87134902},{"NoteNumber":51,"Velocity":84,"Duration":106640,"SoundDuration":106640,"Delta":87267940},{"NoteNumber":36,"Velocity":62,"Duration":106640,"SoundDuration":106640,"Delta":87267940},{"NoteNumber":55,"Velocity":52,"Duration":104030,"SoundDuration":104030,"Delta":87375470},{"NoteNumber":43,"Velocity":42,"Duration":104030,"SoundDuration":104030,"Delta":87375470},{"NoteNumber":63,"Velocity":52,"Duration":101433,"SoundDuration":101433,"Delta":87480369},{"NoteNumber":48,"Velocity":42,"Duration":101433,"SoundDuration":101433,"Delta":87480369},{"NoteNumber":63,"Velocity":53,"Duration":99068,"SoundDuration":99068,"Delta":87582646},{"NoteNumber":48,"Velocity":42,"Duration":99068,"SoundDuration":99068,"Delta":87582646},{"NoteNumber":67,"Velocity":63,"Duration":96910,"SoundDuration":96910,"Delta":87682540},{"NoteNumber":55,"Velocity":53,"Duration":96910,"SoundDuration":96910,"Delta":87682540},{"NoteNumber":75,"Velocity":56,"Duration":96802,"SoundDuration":96802,"Delta":87780262},{"NoteNumber":60,"Velocity":45,"Duration":96802,"SoundDuration":96802,"Delta":87780262},{"NoteNumber":75,"Velocity":55,"Duration":96383,"SoundDuration":96383,"Delta":87877876},{"NoteNumber":60,"Velocity":44,"Duration":96383,"SoundDuration":96383,"Delta":87877876},{"NoteNumber":79,"Velocity":55,"Duration":95866,"SoundDuration":95866,"Delta":87975069},{"NoteNumber":67,"Velocity":44,"Duration":95866,"SoundDuration":95866,"Delta":87975069},{"NoteNumber":87,"Velocity":79,"Duration":95452,"SoundDuration":95452,"Delta":88071739},{"NoteNumber":72,"Velocity":52,"Duration":95452,"SoundDuration":95452,"Delta":88071739},{"NoteNumber":79,"Velocity":58,"Duration":95864,"SoundDuration":95864,"Delta":88167996},{"NoteNumber":67,"Velocity":44,"Duration":95864,"SoundDuration":95864,"Delta":88167996},{"NoteNumber":75,"Velocity":59,"Duration":96380,"SoundDuration":96380,"Delta":88264666},{"NoteNumber":60,"Velocity":45,"Duration":96380,"SoundDuration":96380,"Delta":88264666},{"NoteNumber":75,"Velocity":59,"Duration":96799,"SoundDuration":96799,"Delta":88361859},{"NoteNumber":60,"Velocity":45,"Duration":96799,"SoundDuration":96799,"Delta":88361859},{"NoteNumber":67,"Velocity":67,"Duration":98617,"SoundDuration":98617,"Delta":88459473},{"NoteNumber":55,"Velocity":51,"Duration":98617,"SoundDuration":98617,"Delta":88459473},{"NoteNumber":63,"Velocity":56,"Duration":102234,"SoundDuration":102234,"Delta":88558930},{"NoteNumber":48,"Velocity":44,"Duration":102234,"SoundDuration":102234,"Delta":88558930},{"NoteNumber":63,"Velocity":56,"Duration":106251,"SoundDuration":106251,"Delta":88662035},{"NoteNumber":48,"Velocity":44,"Duration":106251,"SoundDuration":106251,"Delta":88662035},{"NoteNumber":55,"Velocity":57,"Duration":106522,"SoundDuration":106522,"Delta":88769193},{"NoteNumber":43,"Velocity":45,"Duration":106522,"SoundDuration":106522,"Delta":88769193},{"NoteNumber":50,"Velocity":92,"Duration":101311,"SoundDuration":101311,"Delta":88876555},{"NoteNumber":36,"Velocity":61,"Duration":101311,"SoundDuration":101311,"Delta":88876555},{"NoteNumber":56,"Velocity":55,"Duration":100967,"SoundDuration":100967,"Delta":88978722},{"NoteNumber":41,"Velocity":47,"Duration":100967,"SoundDuration":100967,"Delta":88978722},{"NoteNumber":62,"Velocity":55,"Duration":99614,"SoundDuration":99614,"Delta":89080534},{"NoteNumber":48,"Velocity":42,"Duration":99614,"SoundDuration":99614,"Delta":89080534},{"NoteNumber":62,"Velocity":55,"Duration":98404,"SoundDuration":98404,"Delta":89180982},{"NoteNumber":48,"Velocity":42,"Duration":98404,"SoundDuration":98404,"Delta":89180982},{"NoteNumber":68,"Velocity":69,"Duration":97756,"SoundDuration":97756,"Delta":89280212},{"NoteNumber":53,"Velocity":58,"Duration":97756,"SoundDuration":97756,"Delta":89280212},{"NoteNumber":74,"Velocity":56,"Duration":97329,"SoundDuration":97329,"Delta":89378788},{"NoteNumber":60,"Velocity":42,"Duration":97329,"SoundDuration":97329,"Delta":89378788},{"NoteNumber":74,"Velocity":56,"Duration":96802,"SoundDuration":96802,"Delta":89476934},{"NoteNumber":60,"Velocity":44,"Duration":96802,"SoundDuration":96802,"Delta":89476934},{"NoteNumber":80,"Velocity":56,"Duration":96383,"SoundDuration":96383,"Delta":89574548},{"NoteNumber":65,"Velocity":44,"Duration":96383,"SoundDuration":96383,"Delta":89574548},{"NoteNumber":86,"Velocity":79,"Duration":95967,"SoundDuration":95967,"Delta":89671741},{"NoteNumber":72,"Velocity":59,"Duration":95967,"SoundDuration":95967,"Delta":89671741},{"NoteNumber":80,"Velocity":61,"Duration":96380,"SoundDuration":96380,"Delta":89768515},{"NoteNumber":65,"Velocity":48,"Duration":96380,"SoundDuration":96380,"Delta":89768515},{"NoteNumber":74,"Velocity":59,"Duration":96799,"SoundDuration":96799,"Delta":89865708},{"NoteNumber":60,"Velocity":48,"Duration":96799,"SoundDuration":96799,"Delta":89865708},{"NoteNumber":74,"Velocity":60,"Duration":97326,"SoundDuration":97326,"Delta":89963322},{"NoteNumber":60,"Velocity":48,"Duration":97326,"SoundDuration":97326,"Delta":89963322},{"NoteNumber":68,"Velocity":68,"Duration":99054,"SoundDuration":99054,"Delta":90061468},{"NoteNumber":53,"Velocity":55,"Duration":99054,"SoundDuration":99054,"Delta":90061468},{"NoteNumber":62,"Velocity":60,"Duration":101648,"SoundDuration":101648,"Delta":90161362},{"NoteNumber":48,"Velocity":45,"Duration":101648,"SoundDuration":101648,"Delta":90161362},{"NoteNumber":62,"Velocity":60,"Duration":104505,"SoundDuration":104505,"Delta":90263873},{"NoteNumber":48,"Velocity":45,"Duration":104505,"SoundDuration":104505,"Delta":90263873},{"NoteNumber":56,"Velocity":59,"Duration":107399,"SoundDuration":107399,"Delta":90369265},{"NoteNumber":41,"Velocity":45,"Duration":107399,"SoundDuration":107399,"Delta":90369265},{"NoteNumber":52,"Velocity":100,"Duration":102357,"SoundDuration":102357,"Delta":90477576},{"NoteNumber":36,"Velocity":67,"Duration":102357,"SoundDuration":102357,"Delta":90477576},{"NoteNumber":58,"Velocity":58,"Duration":100967,"SoundDuration":100967,"Delta":90580790},{"NoteNumber":43,"Velocity":50,"Duration":100967,"SoundDuration":100967,"Delta":90580790},{"NoteNumber":64,"Velocity":59,"Duration":99614,"SoundDuration":99614,"Delta":90682602},{"NoteNumber":48,"Velocity":46,"Duration":99614,"SoundDuration":99614,"Delta":90682602},{"NoteNumber":64,"Velocity":59,"Duration":98404,"SoundDuration":98404,"Delta":90783050},{"NoteNumber":48,"Velocity":46,"Duration":98404,"SoundDuration":98404,"Delta":90783050},{"NoteNumber":70,"Velocity":74,"Duration":97756,"SoundDuration":97756,"Delta":90882279},{"NoteNumber":55,"Velocity":62,"Duration":97756,"SoundDuration":97756,"Delta":90882279},{"NoteNumber":76,"Velocity":61,"Duration":97329,"SoundDuration":97329,"Delta":90980856},{"NoteNumber":60,"Velocity":46,"Duration":97329,"SoundDuration":97329,"Delta":90980856},{"NoteNumber":76,"Velocity":60,"Duration":96802,"SoundDuration":96802,"Delta":91079002},{"NoteNumber":60,"Velocity":46,"Duration":96802,"SoundDuration":96802,"Delta":91079002},{"NoteNumber":82,"Velocity":60,"Duration":96383,"SoundDuration":96383,"Delta":91176616},{"NoteNumber":67,"Velocity":47,"Duration":96383,"SoundDuration":96383,"Delta":91176616},{"NoteNumber":88,"Velocity":84,"Duration":95967,"SoundDuration":95967,"Delta":91273808},{"NoteNumber":72,"Velocity":62,"Duration":95967,"SoundDuration":95967,"Delta":91273808},{"NoteNumber":82,"Velocity":67,"Duration":96380,"SoundDuration":96380,"Delta":91370583},{"NoteNumber":67,"Velocity":49,"Duration":96380,"SoundDuration":96380,"Delta":91370583},{"NoteNumber":76,"Velocity":64,"Duration":96799,"SoundDuration":96799,"Delta":91467775},{"NoteNumber":60,"Velocity":49,"Duration":96799,"SoundDuration":96799,"Delta":91467775},{"NoteNumber":76,"Velocity":64,"Duration":97326,"SoundDuration":97326,"Delta":91565389},{"NoteNumber":60,"Velocity":49,"Duration":97326,"SoundDuration":97326,"Delta":91565389},{"NoteNumber":70,"Velocity":73,"Duration":99054,"SoundDuration":99054,"Delta":91663536},{"NoteNumber":55,"Velocity":59,"Duration":99054,"SoundDuration":99054,"Delta":91663536},{"NoteNumber":64,"Velocity":63,"Duration":101648,"SoundDuration":101648,"Delta":91763429},{"NoteNumber":48,"Velocity":48,"Duration":101648,"SoundDuration":101648,"Delta":91763429},{"NoteNumber":64,"Velocity":64,"Duration":104505,"SoundDuration":104505,"Delta":91865940},{"NoteNumber":48,"Velocity":48,"Duration":104505,"SoundDuration":104505,"Delta":91865940},{"NoteNumber":59,"Velocity":63,"Duration":211811,"SoundDuration":211811,"Delta":91971332},{"NoteNumber":43,"Velocity":48,"Duration":211811,"SoundDuration":211811,"Delta":91971332},{"NoteNumber":53,"Velocity":102,"Duration":102643,"SoundDuration":102643,"Delta":92079644},{"NoteNumber":37,"Velocity":68,"Duration":102643,"SoundDuration":102643,"Delta":92079644},{"NoteNumber":56,"Velocity":60,"Duration":100967,"SoundDuration":100967,"Delta":92183143},{"NoteNumber":44,"Velocity":51,"Duration":100967,"SoundDuration":100967,"Delta":92183143},{"NoteNumber":65,"Velocity":60,"Duration":99723,"SoundDuration":99723,"Delta":92284955},{"NoteNumber":49,"Velocity":46,"Duration":99723,"SoundDuration":99723,"Delta":92284955},{"NoteNumber":65,"Velocity":60,"Duration":99278,"SoundDuration":99278,"Delta":92385515},{"NoteNumber":49,"Velocity":46,"Duration":99278,"SoundDuration":99278,"Delta":92385515},{"NoteNumber":68,"Velocity":74,"Duration":98729,"SoundDuration":98729,"Delta":92485626},{"NoteNumber":56,"Velocity":62,"Duration":98729,"SoundDuration":98729,"Delta":92485626},{"NoteNumber":77,"Velocity":61,"Duration":98294,"SoundDuration":98294,"Delta":92585184},{"NoteNumber":61,"Velocity":46,"Duration":98294,"SoundDuration":98294,"Delta":92585184},{"NoteNumber":77,"Velocity":60,"Duration":97756,"SoundDuration":97756,"Delta":92684303},{"NoteNumber":61,"Velocity":46,"Duration":97756,"SoundDuration":97756,"Delta":92684303},{"NoteNumber":80,"Velocity":60,"Duration":97329,"SoundDuration":97329,"Delta":92782880},{"NoteNumber":68,"Velocity":46,"Duration":97329,"SoundDuration":97329,"Delta":92782880},{"NoteNumber":89,"Velocity":83,"Duration":96905,"SoundDuration":96905,"Delta":92881026},{"NoteNumber":73,"Velocity":62,"Duration":96905,"SoundDuration":96905,"Delta":92881026},{"NoteNumber":80,"Velocity":64,"Duration":97009,"SoundDuration":97009,"Delta":92978746},{"NoteNumber":68,"Velocity":48,"Duration":97009,"SoundDuration":97009,"Delta":92978746},{"NoteNumber":77,"Velocity":62,"Duration":97222,"SoundDuration":97222,"Delta":93076572},{"NoteNumber":61,"Velocity":48,"Duration":97222,"SoundDuration":97222,"Delta":93076572},{"NoteNumber":77,"Velocity":62,"Duration":97541,"SoundDuration":97541,"Delta":93174611},{"NoteNumber":61,"Velocity":48,"Duration":97541,"SoundDuration":97541,"Delta":93174611},{"NoteNumber":68,"Velocity":71,"Duration":98399,"SoundDuration":98399,"Delta":93272972},{"NoteNumber":56,"Velocity":58,"Duration":98399,"SoundDuration":98399,"Delta":93272972},{"NoteNumber":65,"Velocity":62,"Duration":101648,"SoundDuration":101648,"Delta":93372211},{"NoteNumber":49,"Velocity":46,"Duration":101648,"SoundDuration":101648,"Delta":93372211},{"NoteNumber":65,"Velocity":62,"Duration":104505,"SoundDuration":104505,"Delta":93474722},{"NoteNumber":49,"Velocity":46,"Duration":104505,"SoundDuration":104505,"Delta":93474722},{"NoteNumber":56,"Velocity":61,"Duration":107399,"SoundDuration":107399,"Delta":93580114},{"NoteNumber":44,"Velocity":46,"Duration":107399,"SoundDuration":107399,"Delta":93580114},{"NoteNumber":53,"Velocity":97,"Duration":102261,"SoundDuration":102261,"Delta":93688425},{"NoteNumber":37,"Velocity":66,"Duration":102261,"SoundDuration":102261,"Delta":93688425},{"NoteNumber":56,"Velocity":58,"Duration":100967,"SoundDuration":100967,"Delta":93791543},{"NoteNumber":44,"Velocity":49,"Duration":100967,"SoundDuration":100967,"Delta":93791543},{"NoteNumber":65,"Velocity":58,"Duration":99614,"SoundDuration":99614,"Delta":93893355},{"NoteNumber":49,"Velocity":44,"Duration":99614,"SoundDuration":99614,"Delta":93893355},{"NoteNumber":65,"Velocity":58,"Duration":98404,"SoundDuration":98404,"Delta":93993803},{"NoteNumber":49,"Velocity":44,"Duration":98404,"SoundDuration":98404,"Delta":93993803},{"NoteNumber":68,"Velocity":71,"Duration":97756,"SoundDuration":97756,"Delta":94093032},{"NoteNumber":56,"Velocity":61,"Duration":97756,"SoundDuration":97756,"Delta":94093032},{"NoteNumber":77,"Velocity":59,"Duration":97329,"SoundDuration":97329,"Delta":94191609},{"NoteNumber":61,"Velocity":44,"Duration":97329,"SoundDuration":97329,"Delta":94191609},{"NoteNumber":77,"Velocity":58,"Duration":96802,"SoundDuration":96802,"Delta":94289755},{"NoteNumber":61,"Velocity":44,"Duration":96802,"SoundDuration":96802,"Delta":94289755},{"NoteNumber":80,"Velocity":58,"Duration":96383,"SoundDuration":96383,"Delta":94387369},{"NoteNumber":68,"Velocity":44,"Duration":96383,"SoundDuration":96383,"Delta":94387369},{"NoteNumber":89,"Velocity":81,"Duration":95967,"SoundDuration":95967,"Delta":94484562},{"NoteNumber":73,"Velocity":60,"Duration":95967,"SoundDuration":95967,"Delta":94484562},{"NoteNumber":80,"Velocity":63,"Duration":96380,"SoundDuration":96380,"Delta":94581336},{"NoteNumber":68,"Velocity":44,"Duration":96380,"SoundDuration":96380,"Delta":94581336},{"NoteNumber":77,"Velocity":62,"Duration":96799,"SoundDuration":96799,"Delta":94678529},{"NoteNumber":61,"Velocity":44,"Duration":96799,"SoundDuration":96799,"Delta":94678529},{"NoteNumber":77,"Velocity":62,"Duration":97326,"SoundDuration":97326,"Delta":94776143},{"NoteNumber":61,"Velocity":44,"Duration":97326,"SoundDuration":97326,"Delta":94776143},{"NoteNumber":68,"Velocity":69,"Duration":99054,"SoundDuration":99054,"Delta":94874289},{"NoteNumber":56,"Velocity":56,"Duration":99054,"SoundDuration":99054,"Delta":94874289},{"NoteNumber":65,"Velocity":60,"Duration":101648,"SoundDuration":101648,"Delta":94974183},{"NoteNumber":49,"Velocity":44,"Duration":101648,"SoundDuration":101648,"Delta":94974183},{"NoteNumber":65,"Velocity":60,"Duration":104505,"SoundDuration":104505,"Delta":95076693},{"NoteNumber":49,"Velocity":44,"Duration":104505,"SoundDuration":104505,"Delta":95076693},{"NoteNumber":56,"Velocity":59,"Duration":107357,"SoundDuration":107357,"Delta":95182085},{"NoteNumber":44,"Velocity":44,"Duration":107357,"SoundDuration":107357,"Delta":95182085},{"NoteNumber":52,"Velocity":101,"Duration":102483,"SoundDuration":102483,"Delta":95290314},{"NoteNumber":37,"Velocity":67,"Duration":102483,"SoundDuration":102483,"Delta":95290314},{"NoteNumber":58,"Velocity":59,"Duration":100967,"SoundDuration":100967,"Delta":95393654},{"NoteNumber":43,"Velocity":50,"Duration":100967,"SoundDuration":100967,"Delta":95393654},{"NoteNumber":64,"Velocity":59,"Duration":99614,"SoundDuration":99614,"Delta":95495465},{"NoteNumber":49,"Velocity":46,"Duration":99614,"SoundDuration":99614,"Delta":95495465},{"NoteNumber":64,"Velocity":59,"Duration":98404,"SoundDuration":98404,"Delta":95595914},{"NoteNumber":49,"Velocity":46,"Duration":98404,"SoundDuration":98404,"Delta":95595914},{"NoteNumber":70,"Velocity":74,"Duration":97756,"SoundDuration":97756,"Delta":95695143},{"NoteNumber":55,"Velocity":62,"Duration":97756,"SoundDuration":97756,"Delta":95695143},{"NoteNumber":76,"Velocity":60,"Duration":97329,"SoundDuration":97329,"Delta":95793719},{"NoteNumber":61,"Velocity":46,"Duration":97329,"SoundDuration":97329,"Delta":95793719},{"NoteNumber":76,"Velocity":59,"Duration":96802,"SoundDuration":96802,"Delta":95891866},{"NoteNumber":61,"Velocity":46,"Duration":96802,"SoundDuration":96802,"Delta":95891866},{"NoteNumber":82,"Velocity":59,"Duration":96383,"SoundDuration":96383,"Delta":95989480},{"NoteNumber":67,"Velocity":46,"Duration":96383,"SoundDuration":96383,"Delta":95989480},{"NoteNumber":88,"Velocity":85,"Duration":95967,"SoundDuration":95967,"Delta":96086672},{"NoteNumber":73,"Velocity":61,"Duration":95967,"SoundDuration":95967,"Delta":96086672},{"NoteNumber":82,"Velocity":64,"Duration":96380,"SoundDuration":96380,"Delta":96183446},{"NoteNumber":67,"Velocity":48,"Duration":96380,"SoundDuration":96380,"Delta":96183446},{"NoteNumber":76,"Velocity":63,"Duration":96799,"SoundDuration":96799,"Delta":96280639},{"NoteNumber":61,"Velocity":48,"Duration":96799,"SoundDuration":96799,"Delta":96280639},{"NoteNumber":76,"Velocity":63,"Duration":97326,"SoundDuration":97326,"Delta":96378253},{"NoteNumber":61,"Velocity":47,"Duration":97326,"SoundDuration":97326,"Delta":96378253},{"NoteNumber":70,"Velocity":71,"Duration":99054,"SoundDuration":99054,"Delta":96476399},{"NoteNumber":55,"Velocity":58,"Duration":99054,"SoundDuration":99054,"Delta":96476399},{"NoteNumber":64,"Velocity":61,"Duration":101648,"SoundDuration":101648,"Delta":96576293},{"NoteNumber":49,"Velocity":46,"Duration":101648,"SoundDuration":101648,"Delta":96576293},{"NoteNumber":64,"Velocity":61,"Duration":104505,"SoundDuration":104505,"Delta":96678804},{"NoteNumber":49,"Velocity":46,"Duration":104505,"SoundDuration":104505,"Delta":96678804},{"NoteNumber":58,"Velocity":60,"Duration":107000,"SoundDuration":107000,"Delta":96784196},{"NoteNumber":43,"Velocity":46,"Duration":107000,"SoundDuration":107000,"Delta":96784196},{"NoteNumber":53,"Velocity":103,"Duration":102470,"SoundDuration":102470,"Delta":96892064},{"NoteNumber":37,"Velocity":69,"Duration":102470,"SoundDuration":102470,"Delta":96892064},{"NoteNumber":59,"Velocity":61,"Duration":100967,"SoundDuration":100967,"Delta":96995391},{"NoteNumber":44,"Velocity":51,"Duration":100967,"SoundDuration":100967,"Delta":96995391},{"NoteNumber":65,"Velocity":61,"Duration":99503,"SoundDuration":99503,"Delta":97097203},{"NoteNumber":49,"Velocity":47,"Duration":99503,"SoundDuration":99503,"Delta":97097203},{"NoteNumber":65,"Velocity":61,"Duration":98513,"SoundDuration":98513,"Delta":97197539},{"NoteNumber":49,"Velocity":47,"Duration":98513,"SoundDuration":98513,"Delta":97197539},{"NoteNumber":71,"Velocity":75,"Duration":97865,"SoundDuration":97865,"Delta":97296878},{"NoteNumber":56,"Velocity":66,"Duration":97865,"SoundDuration":97865,"Delta":97296878},{"NoteNumber":77,"Velocity":62,"Duration":97118,"SoundDuration":97118,"Delta":97395563},{"NoteNumber":61,"Velocity":47,"Duration":97118,"SoundDuration":97118,"Delta":97395563},{"NoteNumber":77,"Velocity":61,"Duration":96383,"SoundDuration":96383,"Delta":97493496},{"NoteNumber":61,"Velocity":47,"Duration":96383,"SoundDuration":96383,"Delta":97493496},{"NoteNumber":83,"Velocity":61,"Duration":95662,"SoundDuration":95662,"Delta":97590688},{"NoteNumber":68,"Velocity":47,"Duration":95662,"SoundDuration":95662,"Delta":97590688},{"NoteNumber":89,"Velocity":86,"Duration":95657,"SoundDuration":95657,"Delta":97687152},{"NoteNumber":73,"Velocity":64,"Duration":95657,"SoundDuration":95657,"Delta":97687152},{"NoteNumber":83,"Velocity":67,"Duration":96276,"SoundDuration":96276,"Delta":97783616},{"NoteNumber":68,"Velocity":47,"Duration":96276,"SoundDuration":96276,"Delta":97783616},{"NoteNumber":77,"Velocity":66,"Duration":96903,"SoundDuration":96903,"Delta":97880704},{"NoteNumber":61,"Velocity":47,"Duration":96903,"SoundDuration":96903,"Delta":97880704},{"NoteNumber":77,"Velocity":66,"Duration":97326,"SoundDuration":97326,"Delta":97978424},{"NoteNumber":61,"Velocity":47,"Duration":97326,"SoundDuration":97326,"Delta":97978424},{"NoteNumber":71,"Velocity":73,"Duration":99054,"SoundDuration":99054,"Delta":98076571},{"NoteNumber":56,"Velocity":60,"Duration":99054,"SoundDuration":99054,"Delta":98076571},{"NoteNumber":65,"Velocity":64,"Duration":101533,"SoundDuration":101533,"Delta":98176464},{"NoteNumber":49,"Velocity":47,"Duration":101533,"SoundDuration":101533,"Delta":98176464},{"NoteNumber":65,"Velocity":64,"Duration":109439,"SoundDuration":109439,"Delta":98278857},{"NoteNumber":49,"Velocity":47,"Duration":109439,"SoundDuration":109439,"Delta":98278857},{"NoteNumber":59,"Velocity":62,"Duration":114976,"SoundDuration":114976,"Delta":98389250},{"NoteNumber":44,"Velocity":47,"Duration":221358,"SoundDuration":221358,"Delta":98389250},{"NoteNumber":55,"Velocity":105,"Duration":104633,"SoundDuration":104633,"Delta":98505098},{"NoteNumber":38,"Velocity":72,"Duration":104633,"SoundDuration":104633,"Delta":98505098},{"NoteNumber":59,"Velocity":61,"Duration":103902,"SoundDuration":103902,"Delta":98610608},{"NoteNumber":43,"Velocity":51,"Duration":103902,"SoundDuration":103902,"Delta":98610608},{"NoteNumber":67,"Velocity":62,"Duration":103181,"SoundDuration":103181,"Delta":98715382},{"NoteNumber":50,"Velocity":49,"Duration":103181,"SoundDuration":103181,"Delta":98715382},{"NoteNumber":67,"Velocity":63,"Duration":102470,"SoundDuration":102470,"Delta":98819428},{"NoteNumber":50,"Velocity":49,"Duration":102470,"SoundDuration":102470,"Delta":98819428},{"NoteNumber":71,"Velocity":79,"Duration":101883,"SoundDuration":101883,"Delta":98922758},{"NoteNumber":55,"Velocity":67,"Duration":101883,"SoundDuration":101883,"Delta":98922758},{"NoteNumber":79,"Velocity":62,"Duration":101883,"SoundDuration":101883,"Delta":99025498},{"NoteNumber":62,"Velocity":49,"Duration":101883,"SoundDuration":101883,"Delta":99025498},{"NoteNumber":71,"Velocity":64,"Duration":101883,"SoundDuration":101883,"Delta":99128237},{"NoteNumber":55,"Velocity":49,"Duration":101883,"SoundDuration":101883,"Delta":99128237},{"NoteNumber":67,"Velocity":66,"Duration":101883,"SoundDuration":101883,"Delta":99230977},{"NoteNumber":50,"Velocity":49,"Duration":101883,"SoundDuration":101883,"Delta":99230977},{"NoteNumber":56,"Velocity":106,"Duration":102115,"SoundDuration":102115,"Delta":99333717},{"NoteNumber":38,"Velocity":67,"Duration":102115,"SoundDuration":102115,"Delta":99333717},{"NoteNumber":59,"Velocity":70,"Duration":102349,"SoundDuration":102349,"Delta":99436692},{"NoteNumber":41,"Velocity":50,"Duration":102349,"SoundDuration":102349,"Delta":99436692},{"NoteNumber":68,"Velocity":68,"Duration":102586,"SoundDuration":102586,"Delta":99539903},{"NoteNumber":50,"Velocity":50,"Duration":102586,"SoundDuration":102586,"Delta":99539903},{"NoteNumber":68,"Velocity":68,"Duration":102941,"SoundDuration":102941,"Delta":99643351},{"NoteNumber":50,"Velocity":50,"Duration":102941,"SoundDuration":102941,"Delta":99643351},{"NoteNumber":71,"Velocity":75,"Duration":104018,"SoundDuration":104018,"Delta":99747158},{"NoteNumber":53,"Velocity":61,"Duration":104018,"SoundDuration":104018,"Delta":99747158},{"NoteNumber":80,"Velocity":67,"Duration":106501,"SoundDuration":106501,"Delta":99852056},{"NoteNumber":62,"Velocity":49,"Duration":106501,"SoundDuration":106501,"Delta":99852056},{"NoteNumber":71,"Velocity":67,"Duration":109104,"SoundDuration":109104,"Delta":99959461},{"NoteNumber":53,"Velocity":49,"Duration":109104,"SoundDuration":109104,"Delta":99959461},{"NoteNumber":68,"Velocity":64,"Duration":111897,"SoundDuration":111897,"Delta":100069491},{"NoteNumber":50,"Velocity":49,"Duration":111897,"SoundDuration":111897,"Delta":100069491},{"NoteNumber":55,"Velocity":108,"Duration":102368,"SoundDuration":102368,"Delta":100182257},{"NoteNumber":39,"Velocity":73,"Duration":102368,"SoundDuration":102368,"Delta":100182257},{"NoteNumber":60,"Velocity":64,"Duration":100967,"SoundDuration":100967,"Delta":100285482},{"NoteNumber":48,"Velocity":55,"Duration":100967,"SoundDuration":100967,"Delta":100285482},{"NoteNumber":67,"Velocity":64,"Duration":99614,"SoundDuration":99614,"Delta":100387293},{"NoteNumber":51,"Velocity":50,"Duration":99614,"SoundDuration":99614,"Delta":100387293},{"NoteNumber":67,"Velocity":64,"Duration":98404,"SoundDuration":98404,"Delta":100487742},{"NoteNumber":51,"Velocity":50,"Duration":98404,"SoundDuration":98404,"Delta":100487742},{"NoteNumber":72,"Velocity":81,"Duration":97756,"SoundDuration":97756,"Delta":100586971},{"NoteNumber":60,"Velocity":69,"Duration":97756,"SoundDuration":97756,"Delta":100586971},{"NoteNumber":79,"Velocity":67,"Duration":97329,"SoundDuration":97329,"Delta":100685547},{"NoteNumber":63,"Velocity":50,"Duration":97329,"SoundDuration":97329,"Delta":100685547},{"NoteNumber":79,"Velocity":64,"Duration":96802,"SoundDuration":96802,"Delta":100783694},{"NoteNumber":63,"Velocity":50,"Duration":96802,"SoundDuration":96802,"Delta":100783694},{"NoteNumber":84,"Velocity":64,"Duration":96383,"SoundDuration":96383,"Delta":100881308},{"NoteNumber":72,"Velocity":50,"Duration":96383,"SoundDuration":96383,"Delta":100881308},{"NoteNumber":91,"Velocity":93,"Duration":95967,"SoundDuration":95967,"Delta":100978500},{"NoteNumber":75,"Velocity":69,"Duration":95967,"SoundDuration":95967,"Delta":100978500},{"NoteNumber":84,"Velocity":71,"Duration":96380,"SoundDuration":96380,"Delta":101075274},{"NoteNumber":72,"Velocity":50,"Duration":96380,"SoundDuration":96380,"Delta":101075274},{"NoteNumber":79,"Velocity":70,"Duration":96799,"SoundDuration":96799,"Delta":101172467},{"NoteNumber":63,"Velocity":50,"Duration":96799,"SoundDuration":96799,"Delta":101172467},{"NoteNumber":79,"Velocity":70,"Duration":97326,"SoundDuration":97326,"Delta":101270081},{"NoteNumber":63,"Velocity":50,"Duration":97326,"SoundDuration":97326,"Delta":101270081},{"NoteNumber":72,"Velocity":78,"Duration":99054,"SoundDuration":99054,"Delta":101368227},{"NoteNumber":60,"Velocity":63,"Duration":99054,"SoundDuration":99054,"Delta":101368227},{"NoteNumber":67,"Velocity":69,"Duration":101648,"SoundDuration":101648,"Delta":101468121},{"NoteNumber":51,"Velocity":50,"Duration":101648,"SoundDuration":101648,"Delta":101468121},{"NoteNumber":67,"Velocity":69,"Duration":107678,"SoundDuration":107678,"Delta":101570632},{"NoteNumber":51,"Velocity":50,"Duration":107678,"SoundDuration":107678,"Delta":101570632},{"NoteNumber":60,"Velocity":68,"Duration":139585,"SoundDuration":139585,"Delta":101679272},{"NoteNumber":48,"Velocity":50,"Duration":140459,"SoundDuration":140459,"Delta":101679272},{"NoteNumber":60,"Velocity":107,"Duration":102556,"SoundDuration":102556,"Delta":101820606},{"NoteNumber":40,"Velocity":77,"Duration":102556,"SoundDuration":102556,"Delta":101820606},{"NoteNumber":67,"Velocity":67,"Duration":100967,"SoundDuration":100967,"Delta":101924018},{"NoteNumber":48,"Velocity":58,"Duration":100967,"SoundDuration":100967,"Delta":101924018},{"NoteNumber":72,"Velocity":67,"Duration":99614,"SoundDuration":99614,"Delta":102025830},{"NoteNumber":52,"Velocity":52,"Duration":99614,"SoundDuration":99614,"Delta":102025830},{"NoteNumber":72,"Velocity":67,"Duration":98404,"SoundDuration":98404,"Delta":102126278},{"NoteNumber":52,"Velocity":52,"Duration":98404,"SoundDuration":98404,"Delta":102126278},{"NoteNumber":79,"Velocity":83,"Duration":97756,"SoundDuration":97756,"Delta":102225508},{"NoteNumber":60,"Velocity":72,"Duration":97756,"SoundDuration":97756,"Delta":102225508},{"NoteNumber":84,"Velocity":69,"Duration":97329,"SoundDuration":97329,"Delta":102324084},{"NoteNumber":64,"Velocity":52,"Duration":97329,"SoundDuration":97329,"Delta":102324084},{"NoteNumber":84,"Velocity":67,"Duration":96802,"SoundDuration":96802,"Delta":102422230},{"NoteNumber":64,"Velocity":52,"Duration":96802,"SoundDuration":96802,"Delta":102422230},{"NoteNumber":91,"Velocity":67,"Duration":96383,"SoundDuration":96383,"Delta":102519844},{"NoteNumber":72,"Velocity":52,"Duration":96383,"SoundDuration":96383,"Delta":102519844},{"NoteNumber":96,"Velocity":95,"Duration":95967,"SoundDuration":95967,"Delta":102617037},{"NoteNumber":76,"Velocity":71,"Duration":95967,"SoundDuration":95967,"Delta":102617037},{"NoteNumber":91,"Velocity":73,"Duration":96380,"SoundDuration":96380,"Delta":102713811},{"NoteNumber":72,"Velocity":52,"Duration":96380,"SoundDuration":96380,"Delta":102713811},{"NoteNumber":84,"Velocity":72,"Duration":96799,"SoundDuration":96799,"Delta":102811004},{"NoteNumber":64,"Velocity":52,"Duration":96799,"SoundDuration":96799,"Delta":102811004},{"NoteNumber":84,"Velocity":72,"Duration":97326,"SoundDuration":97326,"Delta":102908618},{"NoteNumber":64,"Velocity":52,"Duration":97326,"SoundDuration":97326,"Delta":102908618},{"NoteNumber":79,"Velocity":80,"Duration":99054,"SoundDuration":99054,"Delta":103006764},{"NoteNumber":60,"Velocity":64,"Duration":99054,"SoundDuration":99054,"Delta":103006764},{"NoteNumber":72,"Velocity":71,"Duration":101648,"SoundDuration":101648,"Delta":103106658},{"NoteNumber":52,"Velocity":52,"Duration":101648,"SoundDuration":101648,"Delta":103106658},{"NoteNumber":72,"Velocity":71,"Duration":104505,"SoundDuration":104505,"Delta":103209169},{"NoteNumber":52,"Velocity":52,"Duration":104505,"SoundDuration":104505,"Delta":103209169},{"NoteNumber":67,"Velocity":69,"Duration":107357,"SoundDuration":107357,"Delta":103314561},{"NoteNumber":48,"Velocity":52,"Duration":107357,"SoundDuration":107357,"Delta":103314561},{"NoteNumber":58,"Velocity":105,"Duration":104024,"SoundDuration":104024,"Delta":103422790},{"NoteNumber":41,"Velocity":72,"Duration":104024,"SoundDuration":104024,"Delta":103422790},{"NoteNumber":60,"Velocity":64,"Duration":102945,"SoundDuration":102945,"Delta":103527685},{"NoteNumber":48,"Velocity":51,"Duration":102945,"SoundDuration":102945,"Delta":103527685},{"NoteNumber":70,"Velocity":64,"Duration":101887,"SoundDuration":101887,"Delta":103631493},{"NoteNumber":53,"Velocity":49,"Duration":101887,"SoundDuration":101887,"Delta":103631493},{"NoteNumber":70,"Velocity":64,"Duration":100851,"SoundDuration":100851,"Delta":103734233},{"NoteNumber":53,"Velocity":49,"Duration":100851,"SoundDuration":100851,"Delta":103734233},{"NoteNumber":72,"Velocity":80,"Duration":99832,"SoundDuration":99832,"Delta":103835929},{"NoteNumber":60,"Velocity":67,"Duration":99832,"SoundDuration":99832,"Delta":103835929},{"NoteNumber":82,"Velocity":64,"Duration":99832,"SoundDuration":99832,"Delta":103936600},{"NoteNumber":65,"Velocity":49,"Duration":99832,"SoundDuration":99832,"Delta":103936600},{"NoteNumber":72,"Velocity":64,"Duration":99832,"SoundDuration":99832,"Delta":104037271},{"NoteNumber":60,"Velocity":49,"Duration":99832,"SoundDuration":99832,"Delta":104037271},{"NoteNumber":70,"Velocity":64,"Duration":99832,"SoundDuration":99832,"Delta":104137942},{"NoteNumber":53,"Velocity":49,"Duration":99832,"SoundDuration":99832,"Delta":104137942},{"NoteNumber":56,"Velocity":103,"Duration":99942,"SoundDuration":99942,"Delta":104238614},{"NoteNumber":41,"Velocity":66,"Duration":99942,"SoundDuration":99942,"Delta":104238614},{"NoteNumber":60,"Velocity":69,"Duration":100168,"SoundDuration":100168,"Delta":104339398},{"NoteNumber":48,"Velocity":50,"Duration":100168,"SoundDuration":100168,"Delta":104339398},{"NoteNumber":68,"Velocity":67,"Duration":100168,"SoundDuration":100168,"Delta":104440408},{"NoteNumber":53,"Velocity":50,"Duration":100168,"SoundDuration":100168,"Delta":104440408},{"NoteNumber":68,"Velocity":67,"Duration":100168,"SoundDuration":100168,"Delta":104541418},{"NoteNumber":53,"Velocity":50,"Duration":100168,"SoundDuration":100168,"Delta":104541418},{"NoteNumber":72,"Velocity":77,"Duration":100168,"SoundDuration":100168,"Delta":104642428},{"NoteNumber":60,"Velocity":62,"Duration":100168,"SoundDuration":100168,"Delta":104642428},{"NoteNumber":80,"Velocity":66,"Duration":101648,"SoundDuration":101648,"Delta":104743438},{"NoteNumber":65,"Velocity":49,"Duration":101648,"SoundDuration":101648,"Delta":104743438},{"NoteNumber":72,"Velocity":66,"Duration":104505,"SoundDuration":104505,"Delta":104845949},{"NoteNumber":60,"Velocity":49,"Duration":104505,"SoundDuration":104505,"Delta":104845949},{"NoteNumber":68,"Velocity":64,"Duration":107360,"SoundDuration":107360,"Delta":104951341},{"NoteNumber":53,"Velocity":49,"Duration":106486,"SoundDuration":106486,"Delta":104951341},{"NoteNumber":53,"Velocity":103,"Duration":104757,"SoundDuration":104757,"Delta":105059576},{"NoteNumber":41,"Velocity":73,"Duration":104757,"SoundDuration":104757,"Delta":105059576},{"NoteNumber":56,"Velocity":64,"Duration":103662,"SoundDuration":103662,"Delta":105165210},{"NoteNumber":48,"Velocity":52,"Duration":103662,"SoundDuration":103662,"Delta":105165210},{"NoteNumber":65,"Velocity":64,"Duration":102237,"SoundDuration":102237,"Delta":105269741},{"NoteNumber":53,"Velocity":49,"Duration":102237,"SoundDuration":102237,"Delta":105269741},{"NoteNumber":65,"Velocity":64,"Duration":101194,"SoundDuration":101194,"Delta":105372834},{"NoteNumber":53,"Velocity":49,"Duration":101194,"SoundDuration":101194,"Delta":105372834},{"NoteNumber":68,"Velocity":81,"Duration":100168,"SoundDuration":100168,"Delta":105474876},{"NoteNumber":60,"Velocity":69,"Duration":100168,"SoundDuration":100168,"Delta":105474876},{"NoteNumber":77,"Velocity":66,"Duration":100168,"SoundDuration":100168,"Delta":105575886},{"NoteNumber":65,"Velocity":49,"Duration":100168,"SoundDuration":100168,"Delta":105575886},{"NoteNumber":68,"Velocity":64,"Duration":100168,"SoundDuration":100168,"Delta":105676896},{"NoteNumber":60,"Velocity":49,"Duration":100168,"SoundDuration":100168,"Delta":105676896},{"NoteNumber":65,"Velocity":64,"Duration":100168,"SoundDuration":100168,"Delta":105777906},{"NoteNumber":53,"Velocity":49,"Duration":100168,"SoundDuration":100168,"Delta":105777906},{"NoteNumber":50,"Velocity":103,"Duration":100168,"SoundDuration":100168,"Delta":105878916},{"NoteNumber":41,"Velocity":67,"Duration":100168,"SoundDuration":100168,"Delta":105878916},{"NoteNumber":56,"Velocity":70,"Duration":100168,"SoundDuration":100168,"Delta":105979926},{"NoteNumber":48,"Velocity":50,"Duration":100168,"SoundDuration":100168,"Delta":105979926},{"NoteNumber":62,"Velocity":69,"Duration":100279,"SoundDuration":100279,"Delta":106080936},{"NoteNumber":53,"Velocity":50,"Duration":100279,"SoundDuration":100279,"Delta":106080936},{"NoteNumber":62,"Velocity":69,"Duration":100395,"SoundDuration":100395,"Delta":106182060},{"NoteNumber":53,"Velocity":50,"Duration":100395,"SoundDuration":100395,"Delta":106182060},{"NoteNumber":68,"Velocity":77,"Duration":101187,"SoundDuration":101187,"Delta":106283297},{"NoteNumber":60,"Velocity":62,"Duration":101187,"SoundDuration":101187,"Delta":106283297},{"NoteNumber":74,"Velocity":67,"Duration":103056,"SoundDuration":103056,"Delta":106385341},{"NoteNumber":65,"Velocity":49,"Duration":103056,"SoundDuration":103056,"Delta":106385341},{"NoteNumber":68,"Velocity":67,"Duration":104997,"SoundDuration":104997,"Delta":106489269},{"NoteNumber":60,"Velocity":49,"Duration":104997,"SoundDuration":104997,"Delta":106489269},{"NoteNumber":62,"Velocity":66,"Duration":106970,"SoundDuration":106970,"Delta":106595153},{"NoteNumber":53,"Velocity":49,"Duration":106970,"SoundDuration":106970,"Delta":106595153},{"NoteNumber":55,"Velocity":110,"Duration":102326,"SoundDuration":102326,"Delta":106702989},{"NoteNumber":43,"Velocity":74,"Duration":102326,"SoundDuration":102326,"Delta":106702989},{"NoteNumber":60,"Velocity":70,"Duration":100967,"SoundDuration":100967,"Delta":106806172},{"NoteNumber":51,"Velocity":56,"Duration":100967,"SoundDuration":100967,"Delta":106806172},{"NoteNumber":67,"Velocity":70,"Duration":99614,"SoundDuration":99614,"Delta":106907984},{"NoteNumber":55,"Velocity":56,"Duration":99614,"SoundDuration":99614,"Delta":106907984},{"NoteNumber":67,"Velocity":70,"Duration":98404,"SoundDuration":98404,"Delta":107008432},{"NoteNumber":55,"Velocity":53,"Duration":98404,"SoundDuration":98404,"Delta":107008432},{"NoteNumber":72,"Velocity":85,"Duration":97756,"SoundDuration":97756,"Delta":107107662},{"NoteNumber":63,"Velocity":66,"Duration":97756,"SoundDuration":97756,"Delta":107107662},{"NoteNumber":79,"Velocity":71,"Duration":97329,"SoundDuration":97329,"Delta":107206238},{"NoteNumber":67,"Velocity":53,"Duration":97329,"SoundDuration":97329,"Delta":107206238},{"NoteNumber":79,"Velocity":70,"Duration":96802,"SoundDuration":96802,"Delta":107304384},{"NoteNumber":67,"Velocity":53,"Duration":96802,"SoundDuration":96802,"Delta":107304384},{"NoteNumber":84,"Velocity":70,"Duration":96383,"SoundDuration":96383,"Delta":107401998},{"NoteNumber":75,"Velocity":53,"Duration":96383,"SoundDuration":96383,"Delta":107401998},{"NoteNumber":91,"Velocity":97,"Duration":95967,"SoundDuration":95967,"Delta":107499191},{"NoteNumber":79,"Velocity":72,"Duration":95967,"SoundDuration":95967,"Delta":107499191},{"NoteNumber":84,"Velocity":75,"Duration":96380,"SoundDuration":96380,"Delta":107595965},{"NoteNumber":75,"Velocity":53,"Duration":96380,"SoundDuration":96380,"Delta":107595965},{"NoteNumber":79,"Velocity":73,"Duration":96799,"SoundDuration":96799,"Delta":107693158},{"NoteNumber":67,"Velocity":53,"Duration":96799,"SoundDuration":96799,"Delta":107693158},{"NoteNumber":79,"Velocity":73,"Duration":97326,"SoundDuration":97326,"Delta":107790772},{"NoteNumber":67,"Velocity":53,"Duration":97326,"SoundDuration":97326,"Delta":107790772},{"NoteNumber":72,"Velocity":82,"Duration":99054,"SoundDuration":99054,"Delta":107888918},{"NoteNumber":63,"Velocity":67,"Duration":99054,"SoundDuration":99054,"Delta":107888918},{"NoteNumber":67,"Velocity":72,"Duration":101648,"SoundDuration":101648,"Delta":107988812},{"NoteNumber":55,"Velocity":53,"Duration":101648,"SoundDuration":101648,"Delta":107988812},{"NoteNumber":67,"Velocity":72,"Duration":104383,"SoundDuration":104383,"Delta":108091323},{"NoteNumber":55,"Velocity":53,"Duration":104383,"SoundDuration":104383,"Delta":108091323},{"NoteNumber":60,"Velocity":71,"Duration":136088,"SoundDuration":136088,"Delta":108196589},{"NoteNumber":51,"Velocity":53,"Duration":136088,"SoundDuration":136088,"Delta":108196589},{"NoteNumber":56,"Velocity":108,"Duration":103012,"SoundDuration":103012,"Delta":108333571},{"NoteNumber":43,"Velocity":74,"Duration":103012,"SoundDuration":103012,"Delta":108333571},{"NoteNumber":60,"Velocity":70,"Duration":100967,"SoundDuration":100967,"Delta":108437440},{"NoteNumber":51,"Velocity":56,"Duration":100967,"SoundDuration":100967,"Delta":108437440},{"NoteNumber":68,"Velocity":70,"Duration":99614,"SoundDuration":99614,"Delta":108539251},{"NoteNumber":55,"Velocity":56,"Duration":99614,"SoundDuration":99614,"Delta":108539251},{"NoteNumber":68,"Velocity":70,"Duration":98404,"SoundDuration":98404,"Delta":108639700},{"NoteNumber":55,"Velocity":53,"Duration":98404,"SoundDuration":98404,"Delta":108639700},{"NoteNumber":72,"Velocity":85,"Duration":97756,"SoundDuration":97756,"Delta":108738929},{"NoteNumber":63,"Velocity":66,"Duration":97756,"SoundDuration":97756,"Delta":108738929},{"NoteNumber":80,"Velocity":71,"Duration":97329,"SoundDuration":97329,"Delta":108837505},{"NoteNumber":67,"Velocity":53,"Duration":97329,"SoundDuration":97329,"Delta":108837505},{"NoteNumber":80,"Velocity":70,"Duration":96802,"SoundDuration":96802,"Delta":108935652},{"NoteNumber":67,"Velocity":53,"Duration":96802,"SoundDuration":96802,"Delta":108935652},{"NoteNumber":84,"Velocity":70,"Duration":96383,"SoundDuration":96383,"Delta":109033266},{"NoteNumber":75,"Velocity":53,"Duration":96383,"SoundDuration":96383,"Delta":109033266},{"NoteNumber":92,"Velocity":97,"Duration":95967,"SoundDuration":95967,"Delta":109130458},{"NoteNumber":79,"Velocity":72,"Duration":95967,"SoundDuration":95967,"Delta":109130458},{"NoteNumber":84,"Velocity":75,"Duration":96380,"SoundDuration":96380,"Delta":109227232},{"NoteNumber":75,"Velocity":53,"Duration":96380,"SoundDuration":96380,"Delta":109227232},{"NoteNumber":80,"Velocity":73,"Duration":96799,"SoundDuration":96799,"Delta":109324425},{"NoteNumber":67,"Velocity":53,"Duration":96799,"SoundDuration":96799,"Delta":109324425},{"NoteNumber":80,"Velocity":73,"Duration":97326,"SoundDuration":97326,"Delta":109422039},{"NoteNumber":67,"Velocity":53,"Duration":97326,"SoundDuration":97326,"Delta":109422039},{"NoteNumber":72,"Velocity":82,"Duration":99054,"SoundDuration":99054,"Delta":109520185},{"NoteNumber":63,"Velocity":67,"Duration":99054,"SoundDuration":99054,"Delta":109520185},{"NoteNumber":68,"Velocity":72,"Duration":101648,"SoundDuration":101648,"Delta":109620079},{"NoteNumber":55,"Velocity":53,"Duration":101648,"SoundDuration":101648,"Delta":109620079},{"NoteNumber":68,"Velocity":72,"Duration":104505,"SoundDuration":104505,"Delta":109722590},{"NoteNumber":55,"Velocity":53,"Duration":104505,"SoundDuration":104505,"Delta":109722590},{"NoteNumber":60,"Velocity":71,"Duration":107357,"SoundDuration":107357,"Delta":109827982},{"NoteNumber":51,"Velocity":53,"Duration":107357,"SoundDuration":107357,"Delta":109827982},{"NoteNumber":56,"Velocity":110,"Duration":103139,"SoundDuration":103139,"Delta":109936211},{"NoteNumber":43,"Velocity":74,"Duration":103139,"SoundDuration":103139,"Delta":109936211},{"NoteNumber":59,"Velocity":70,"Duration":102237,"SoundDuration":102237,"Delta":110040216},{"NoteNumber":50,"Velocity":56,"Duration":102237,"SoundDuration":102237,"Delta":110040216},{"NoteNumber":68,"Velocity":70,"Duration":100851,"SoundDuration":100851,"Delta":110143309},{"NoteNumber":53,"Velocity":56,"Duration":100851,"SoundDuration":100851,"Delta":110143309},{"NoteNumber":68,"Velocity":70,"Duration":99723,"SoundDuration":99723,"Delta":110245005},{"NoteNumber":55,"Velocity":53,"Duration":99723,"SoundDuration":99723,"Delta":110245005},{"NoteNumber":71,"Velocity":85,"Duration":99389,"SoundDuration":99389,"Delta":110345565},{"NoteNumber":62,"Velocity":66,"Duration":99389,"SoundDuration":99389,"Delta":110345565},{"NoteNumber":80,"Velocity":71,"Duration":99058,"SoundDuration":99058,"Delta":110445788},{"NoteNumber":65,"Velocity":53,"Duration":99058,"SoundDuration":99058,"Delta":110445788},{"NoteNumber":80,"Velocity":70,"Duration":98837,"SoundDuration":98837,"Delta":110545677},{"NoteNumber":67,"Velocity":53,"Duration":98837,"SoundDuration":98837,"Delta":110545677},{"NoteNumber":83,"Velocity":70,"Duration":98509,"SoundDuration":98509,"Delta":110645345},{"NoteNumber":74,"Velocity":53,"Duration":98509,"SoundDuration":98509,"Delta":110645345},{"NoteNumber":92,"Velocity":97,"Duration":98184,"SoundDuration":98184,"Delta":110744682},{"NoteNumber":77,"Velocity":72,"Duration":98184,"SoundDuration":98184,"Delta":110744682},{"NoteNumber":83,"Velocity":75,"Duration":98509,"SoundDuration":98509,"Delta":110843692},{"NoteNumber":74,"Velocity":53,"Duration":98509,"SoundDuration":98509,"Delta":110843692},{"NoteNumber":80,"Velocity":73,"Duration":98945,"SoundDuration":98945,"Delta":110943030},{"NoteNumber":67,"Velocity":53,"Duration":98945,"SoundDuration":98945,"Delta":110943030},{"NoteNumber":80,"Velocity":73,"Duration":99275,"SoundDuration":99275,"Delta":111042809},{"NoteNumber":65,"Velocity":53,"Duration":99275,"SoundDuration":99275,"Delta":111042809},{"NoteNumber":71,"Velocity":82,"Duration":99720,"SoundDuration":99720,"Delta":111142920},{"NoteNumber":62,"Velocity":67,"Duration":99720,"SoundDuration":99720,"Delta":111142920},{"NoteNumber":68,"Velocity":72,"Duration":101648,"SoundDuration":101648,"Delta":111243479},{"NoteNumber":55,"Velocity":53,"Duration":101648,"SoundDuration":101648,"Delta":111243479},{"NoteNumber":68,"Velocity":72,"Duration":104505,"SoundDuration":104505,"Delta":111345990},{"NoteNumber":53,"Velocity":53,"Duration":104505,"SoundDuration":104505,"Delta":111345990},{"NoteNumber":59,"Velocity":71,"Duration":107054,"SoundDuration":107054,"Delta":111451382},{"NoteNumber":50,"Velocity":53,"Duration":107054,"SoundDuration":107054,"Delta":111451382},{"NoteNumber":55,"Velocity":108,"Duration":102589,"SoundDuration":102589,"Delta":111559311},{"NoteNumber":43,"Velocity":74,"Duration":102589,"SoundDuration":102589,"Delta":111559311},{"NoteNumber":59,"Velocity":70,"Duration":101539,"SoundDuration":101539,"Delta":111662760},{"NoteNumber":50,"Velocity":56,"Duration":101539,"SoundDuration":101539,"Delta":111662760},{"NoteNumber":67,"Velocity":70,"Duration":100510,"SoundDuration":100510,"Delta":111765150},{"NoteNumber":53,"Velocity":56,"Duration":100510,"SoundDuration":100510,"Delta":111765150},{"NoteNumber":67,"Velocity":70,"Duration":99501,"SoundDuration":99501,"Delta":111866502},{"NoteNumber":55,"Velocity":53,"Duration":99501,"SoundDuration":99501,"Delta":111866502},{"NoteNumber":71,"Velocity":85,"Duration":99166,"SoundDuration":99166,"Delta":111966837},{"NoteNumber":62,"Velocity":66,"Duration":99166,"SoundDuration":99166,"Delta":111966837},{"NoteNumber":79,"Velocity":71,"Duration":98837,"SoundDuration":98837,"Delta":112066837},{"NoteNumber":65,"Velocity":53,"Duration":98837,"SoundDuration":98837,"Delta":112066837},{"NoteNumber":79,"Velocity":70,"Duration":98619,"SoundDuration":98619,"Delta":112166505},{"NoteNumber":67,"Velocity":53,"Duration":98619,"SoundDuration":98619,"Delta":112166505},{"NoteNumber":83,"Velocity":70,"Duration":98403,"SoundDuration":98403,"Delta":112265952},{"NoteNumber":74,"Velocity":53,"Duration":98403,"SoundDuration":98403,"Delta":112265952},{"NoteNumber":91,"Velocity":97,"Duration":98291,"SoundDuration":98291,"Delta":112365181},{"NoteNumber":77,"Velocity":72,"Duration":98291,"SoundDuration":98291,"Delta":112365181},{"NoteNumber":83,"Velocity":75,"Duration":98617,"SoundDuration":98617,"Delta":112464300},{"NoteNumber":74,"Velocity":53,"Duration":98617,"SoundDuration":98617,"Delta":112464300},{"NoteNumber":79,"Velocity":73,"Duration":98945,"SoundDuration":98945,"Delta":112563748},{"NoteNumber":67,"Velocity":53,"Duration":98945,"SoundDuration":98945,"Delta":112563748},{"NoteNumber":79,"Velocity":73,"Duration":99275,"SoundDuration":99275,"Delta":112663526},{"NoteNumber":65,"Velocity":53,"Duration":99275,"SoundDuration":99275,"Delta":112663526},{"NoteNumber":71,"Velocity":82,"Duration":99054,"SoundDuration":99054,"Delta":112763638},{"NoteNumber":62,"Velocity":67,"Duration":99054,"SoundDuration":99054,"Delta":112763638},{"NoteNumber":67,"Velocity":72,"Duration":101777,"SoundDuration":101777,"Delta":112863532},{"NoteNumber":55,"Velocity":53,"Duration":101777,"SoundDuration":101777,"Delta":112863532},{"NoteNumber":67,"Velocity":72,"Duration":112316,"SoundDuration":112316,"Delta":112966202},{"NoteNumber":50,"Velocity":53,"Duration":112316,"SoundDuration":112316,"Delta":112966202},{"NoteNumber":59,"Velocity":71,"Duration":160592,"SoundDuration":160592,"Delta":113079499},{"NoteNumber":43,"Velocity":53,"Duration":160592,"SoundDuration":160592,"Delta":113079499},{"NoteNumber":52,"Velocity":108,"Duration":104663,"SoundDuration":104663,"Delta":113241323},{"NoteNumber":36,"Velocity":74,"Duration":104663,"SoundDuration":104663,"Delta":113241323},{"NoteNumber":55,"Velocity":70,"Duration":100967,"SoundDuration":100967,"Delta":113346843},{"NoteNumber":43,"Velocity":56,"Duration":100967,"SoundDuration":100967,"Delta":113346843},{"NoteNumber":64,"Velocity":70,"Duration":99614,"SoundDuration":99614,"Delta":113448655},{"NoteNumber":48,"Velocity":56,"Duration":99614,"SoundDuration":99614,"Delta":113448655},{"NoteNumber":64,"Velocity":70,"Duration":98404,"SoundDuration":98404,"Delta":113549103},{"NoteNumber":48,"Velocity":53,"Duration":98404,"SoundDuration":98404,"Delta":113549103},{"NoteNumber":67,"Velocity":85,"Duration":97756,"SoundDuration":97756,"Delta":113648332},{"NoteNumber":55,"Velocity":66,"Duration":97756,"SoundDuration":97756,"Delta":113648332},{"NoteNumber":76,"Velocity":71,"Duration":97329,"SoundDuration":97329,"Delta":113746909},{"NoteNumber":60,"Velocity":53,"Duration":97329,"SoundDuration":97329,"Delta":113746909},{"NoteNumber":76,"Velocity":70,"Duration":96802,"SoundDuration":96802,"Delta":113845055},{"NoteNumber":60,"Velocity":53,"Duration":96802,"SoundDuration":96802,"Delta":113845055},{"NoteNumber":79,"Velocity":70,"Duration":96383,"SoundDuration":96383,"Delta":113942669},{"NoteNumber":67,"Velocity":53,"Duration":96383,"SoundDuration":96383,"Delta":113942669},{"NoteNumber":88,"Velocity":93,"Duration":95967,"SoundDuration":95967,"Delta":114039862},{"NoteNumber":72,"Velocity":72,"Duration":95967,"SoundDuration":95967,"Delta":114039862},{"NoteNumber":88,"Velocity":75,"Duration":96380,"SoundDuration":96380,"Delta":114136636},{"NoteNumber":72,"Velocity":53,"Duration":96380,"SoundDuration":96380,"Delta":114136636},{"NoteNumber":91,"Velocity":73,"Duration":96799,"SoundDuration":96799,"Delta":114233828},{"NoteNumber":79,"Velocity":53,"Duration":96799,"SoundDuration":96799,"Delta":114233828},{"NoteNumber":100,"Velocity":73,"Duration":97326,"SoundDuration":97326,"Delta":114331442},{"NoteNumber":84,"Velocity":53,"Duration":97326,"SoundDuration":97326,"Delta":114331442},{"NoteNumber":91,"Velocity":82,"Duration":99054,"SoundDuration":99054,"Delta":114429589},{"NoteNumber":79,"Velocity":67,"Duration":99054,"SoundDuration":99054,"Delta":114429589},{"NoteNumber":88,"Velocity":72,"Duration":101648,"SoundDuration":101648,"Delta":114529483},{"NoteNumber":72,"Velocity":53,"Duration":101648,"SoundDuration":101648,"Delta":114529483},{"NoteNumber":88,"Velocity":72,"Duration":104505,"SoundDuration":104505,"Delta":114631993},{"NoteNumber":72,"Velocity":53,"Duration":104505,"SoundDuration":104505,"Delta":114631993},{"NoteNumber":79,"Velocity":71,"Duration":106025,"SoundDuration":106025,"Delta":114737385},{"NoteNumber":67,"Velocity":53,"Duration":106025,"SoundDuration":106025,"Delta":114737385},{"NoteNumber":76,"Velocity":81,"Duration":104024,"SoundDuration":104024,"Delta":114844288},{"NoteNumber":60,"Velocity":69,"Duration":104024,"SoundDuration":104024,"Delta":114844288},{"NoteNumber":76,"Velocity":69,"Duration":103302,"SoundDuration":103302,"Delta":114949184},{"NoteNumber":60,"Velocity":52,"Duration":103302,"SoundDuration":103302,"Delta":114949184},{"NoteNumber":67,"Velocity":69,"Duration":102589,"SoundDuration":102589,"Delta":115053352},{"NoteNumber":55,"Velocity":52,"Duration":102589,"SoundDuration":102589,"Delta":115053352},{"NoteNumber":64,"Velocity":69,"Duration":101887,"SoundDuration":101887,"Delta":115156801},{"NoteNumber":48,"Velocity":52,"Duration":101887,"SoundDuration":101887,"Delta":115156801},{"NoteNumber":64,"Velocity":101,"Duration":408279,"SoundDuration":408279,"Delta":115259541},{"NoteNumber":48,"Velocity":61,"Duration":101190,"SoundDuration":101190,"Delta":115259541},{"NoteNumber":55,"Velocity":70,"Duration":101190,"SoundDuration":101190,"Delta":115361582},{"NoteNumber":43,"Velocity":50,"Duration":101190,"SoundDuration":101190,"Delta":115361582},{"NoteNumber":52,"Velocity":70,"Duration":101190,"SoundDuration":101190,"Delta":115463623},{"NoteNumber":36,"Velocity":50,"Duration":101190,"SoundDuration":101190,"Delta":115463623},{"NoteNumber":55,"Velocity":70,"Duration":101303,"SoundDuration":101303,"Delta":115565664},{"NoteNumber":43,"Velocity":50,"Duration":101303,"SoundDuration":101303,"Delta":115565664},{"NoteNumber":50,"Velocity":106,"Duration":101649,"SoundDuration":101649,"Delta":115667820},{"NoteNumber":47,"Velocity":59,"Duration":101649,"SoundDuration":101649,"Delta":115667820},{"NoteNumber":55,"Velocity":63,"Duration":101998,"SoundDuration":101998,"Delta":115770326},{"NoteNumber":43,"Velocity":50,"Duration":101998,"SoundDuration":101998,"Delta":115770326},{"NoteNumber":62,"Velocity":82,"Duration":102467,"SoundDuration":102467,"Delta":115873184},{"NoteNumber":36,"Velocity":50,"Duration":102467,"SoundDuration":102467,"Delta":115873184},{"NoteNumber":55,"Velocity":66,"Duration":102821,"SoundDuration":102821,"Delta":115976514},{"NoteNumber":43,"Velocity":50,"Duration":102821,"SoundDuration":102821,"Delta":115976514},{"NoteNumber":53,"Velocity":102,"Duration":103298,"SoundDuration":103298,"Delta":116080200},{"NoteNumber":50,"Velocity":56,"Duration":103298,"SoundDuration":103298,"Delta":116080200},{"NoteNumber":55,"Velocity":62,"Duration":103777,"SoundDuration":103777,"Delta":116184367},{"NoteNumber":43,"Velocity":49,"Duration":103777,"SoundDuration":103777,"Delta":116184367},{"NoteNumber":67,"Velocity":75,"Duration":214741,"SoundDuration":214741,"Delta":116289019},{"NoteNumber":36,"Velocity":49,"Duration":104751,"SoundDuration":104751,"Delta":116289019},{"NoteNumber":55,"Velocity":62,"Duration":108180,"SoundDuration":108180,"Delta":116394660},{"NoteNumber":43,"Velocity":49,"Duration":108180,"SoundDuration":108180,"Delta":116394660},{"NoteNumber":52,"Velocity":108,"Duration":102501,"SoundDuration":102501,"Delta":116503760},{"NoteNumber":36,"Velocity":74,"Duration":102501,"SoundDuration":102501,"Delta":116503760},{"NoteNumber":55,"Velocity":70,"Duration":100967,"SoundDuration":100967,"Delta":116607117},{"NoteNumber":43,"Velocity":56,"Duration":100967,"SoundDuration":100967,"Delta":116607117},{"NoteNumber":64,"Velocity":70,"Duration":99614,"SoundDuration":99614,"Delta":116708929},{"NoteNumber":48,"Velocity":56,"Duration":99614,"SoundDuration":99614,"Delta":116708929},{"NoteNumber":64,"Velocity":70,"Duration":98404,"SoundDuration":98404,"Delta":116809377},{"NoteNumber":48,"Velocity":53,"Duration":98404,"SoundDuration":98404,"Delta":116809377},{"NoteNumber":67,"Velocity":85,"Duration":97756,"SoundDuration":97756,"Delta":116908606},{"NoteNumber":55,"Velocity":66,"Duration":97756,"SoundDuration":97756,"Delta":116908606},{"NoteNumber":76,"Velocity":71,"Duration":97329,"SoundDuration":97329,"Delta":117007182},{"NoteNumber":60,"Velocity":53,"Duration":97329,"SoundDuration":97329,"Delta":117007182},{"NoteNumber":76,"Velocity":70,"Duration":96802,"SoundDuration":96802,"Delta":117105329},{"NoteNumber":60,"Velocity":53,"Duration":96802,"SoundDuration":96802,"Delta":117105329},{"NoteNumber":79,"Velocity":70,"Duration":96383,"SoundDuration":96383,"Delta":117202943},{"NoteNumber":67,"Velocity":53,"Duration":96383,"SoundDuration":96383,"Delta":117202943},{"NoteNumber":88,"Velocity":83,"Duration":95967,"SoundDuration":95967,"Delta":117300135},{"NoteNumber":72,"Velocity":72,"Duration":95967,"SoundDuration":95967,"Delta":117300135},{"NoteNumber":88,"Velocity":75,"Duration":96380,"SoundDuration":96380,"Delta":117396910},{"NoteNumber":72,"Velocity":53,"Duration":96380,"SoundDuration":96380,"Delta":117396910},{"NoteNumber":91,"Velocity":73,"Duration":96799,"SoundDuration":96799,"Delta":117494102},{"NoteNumber":79,"Velocity":53,"Duration":96799,"SoundDuration":96799,"Delta":117494102},{"NoteNumber":100,"Velocity":73,"Duration":97326,"SoundDuration":97326,"Delta":117591716},{"NoteNumber":84,"Velocity":53,"Duration":97326,"SoundDuration":97326,"Delta":117591716},{"NoteNumber":91,"Velocity":82,"Duration":99054,"SoundDuration":99054,"Delta":117689863},{"NoteNumber":79,"Velocity":67,"Duration":99054,"SoundDuration":99054,"Delta":117689863},{"NoteNumber":88,"Velocity":72,"Duration":101648,"SoundDuration":101648,"Delta":117789756},{"NoteNumber":72,"Velocity":53,"Duration":101648,"SoundDuration":101648,"Delta":117789756},{"NoteNumber":88,"Velocity":72,"Duration":104505,"SoundDuration":104505,"Delta":117892267},{"NoteNumber":72,"Velocity":53,"Duration":104505,"SoundDuration":104505,"Delta":117892267},{"NoteNumber":79,"Velocity":71,"Duration":107399,"SoundDuration":107399,"Delta":117997659},{"NoteNumber":67,"Velocity":53,"Duration":107399,"SoundDuration":107399,"Delta":117997659},{"NoteNumber":76,"Velocity":81,"Duration":102941,"SoundDuration":102941,"Delta":118105971},{"NoteNumber":60,"Velocity":69,"Duration":102941,"SoundDuration":102941,"Delta":118105971},{"NoteNumber":76,"Velocity":69,"Duration":102941,"SoundDuration":102941,"Delta":118209777},{"NoteNumber":60,"Velocity":52,"Duration":102941,"SoundDuration":102941,"Delta":118209777},{"NoteNumber":67,"Velocity":69,"Duration":102824,"SoundDuration":102824,"Delta":118313583},{"NoteNumber":55,"Velocity":52,"Duration":102824,"SoundDuration":102824,"Delta":118313583},{"NoteNumber":64,"Velocity":69,"Duration":102586,"SoundDuration":102586,"Delta":118417270},{"NoteNumber":48,"Velocity":52,"Duration":102586,"SoundDuration":102586,"Delta":118417270},{"NoteNumber":64,"Velocity":105,"Duration":412727,"SoundDuration":412727,"Delta":118520718},{"NoteNumber":48,"Velocity":61,"Duration":102586,"SoundDuration":102586,"Delta":118520718},{"NoteNumber":55,"Velocity":70,"Duration":102352,"SoundDuration":102352,"Delta":118624167},{"NoteNumber":43,"Velocity":50,"Duration":102352,"SoundDuration":102352,"Delta":118624167},{"NoteNumber":52,"Velocity":70,"Duration":102233,"SoundDuration":102233,"Delta":118727378},{"NoteNumber":36,"Velocity":50,"Duration":102233,"SoundDuration":102233,"Delta":118727378},{"NoteNumber":55,"Velocity":70,"Duration":102118,"SoundDuration":102118,"Delta":118830471},{"NoteNumber":43,"Velocity":50,"Duration":102118,"SoundDuration":102118,"Delta":118830471},{"NoteNumber":50,"Velocity":104,"Duration":101883,"SoundDuration":101883,"Delta":118933446},{"NoteNumber":47,"Velocity":59,"Duration":101883,"SoundDuration":101883,"Delta":118933446},{"NoteNumber":55,"Velocity":63,"Duration":102233,"SoundDuration":102233,"Delta":119036185},{"NoteNumber":43,"Velocity":50,"Duration":102233,"SoundDuration":102233,"Delta":119036185},{"NoteNumber":62,"Velocity":82,"Duration":419180,"SoundDuration":419180,"Delta":119139278},{"NoteNumber":36,"Velocity":50,"Duration":102586,"SoundDuration":102586,"Delta":119139278},{"NoteNumber":55,"Velocity":66,"Duration":102821,"SoundDuration":102821,"Delta":119242726},{"NoteNumber":43,"Velocity":50,"Duration":102821,"SoundDuration":102821,"Delta":119242726},{"NoteNumber":48,"Velocity":103,"Duration":104018,"SoundDuration":104018,"Delta":119346413},{"NoteNumber":45,"Velocity":56,"Duration":104018,"SoundDuration":104018,"Delta":119346413},{"NoteNumber":55,"Velocity":62,"Duration":106247,"SoundDuration":106247,"Delta":119451312},{"NoteNumber":43,"Velocity":49,"Duration":106247,"SoundDuration":106247,"Delta":119451312},{"NoteNumber":60,"Velocity":75,"Duration":221437,"SoundDuration":221437,"Delta":119558458},{"NoteNumber":36,"Velocity":49,"Duration":108573,"SoundDuration":108573,"Delta":119558458},{"NoteNumber":55,"Velocity":62,"Duration":111004,"SoundDuration":111004,"Delta":119667951},{"NoteNumber":43,"Velocity":49,"Duration":111004,"SoundDuration":111004,"Delta":119667951},{"NoteNumber":50,"Velocity":109,"Duration":102574,"SoundDuration":102574,"Delta":119779896},{"NoteNumber":36,"Velocity":74,"Duration":102574,"SoundDuration":102574,"Delta":119779896},{"NoteNumber":55,"Velocity":70,"Duration":100967,"SoundDuration":100967,"Delta":119883327},{"NoteNumber":43,"Velocity":56,"Duration":100967,"SoundDuration":100967,"Delta":119883327},{"NoteNumber":62,"Velocity":70,"Duration":99614,"SoundDuration":99614,"Delta":119985138},{"NoteNumber":47,"Velocity":56,"Duration":99614,"SoundDuration":99614,"Delta":119985138},{"NoteNumber":62,"Velocity":70,"Duration":197805,"SoundDuration":197805,"Delta":120085587},{"NoteNumber":48,"Velocity":53,"Duration":98404,"SoundDuration":98404,"Delta":120085587},{"NoteNumber":67,"Velocity":85,"Duration":97756,"SoundDuration":97756,"Delta":120184816},{"NoteNumber":55,"Velocity":66,"Duration":97756,"SoundDuration":97756,"Delta":120184816},{"NoteNumber":74,"Velocity":71,"Duration":97329,"SoundDuration":97329,"Delta":120283392},{"NoteNumber":59,"Velocity":53,"Duration":97329,"SoundDuration":97329,"Delta":120283392},{"NoteNumber":74,"Velocity":70,"Duration":96802,"SoundDuration":96802,"Delta":120381539},{"NoteNumber":60,"Velocity":53,"Duration":96802,"SoundDuration":96802,"Delta":120381539},{"NoteNumber":79,"Velocity":70,"Duration":96383,"SoundDuration":96383,"Delta":120479153},{"NoteNumber":67,"Velocity":53,"Duration":96383,"SoundDuration":96383,"Delta":120479153},{"NoteNumber":86,"Velocity":87,"Duration":95967,"SoundDuration":95967,"Delta":120576345},{"NoteNumber":71,"Velocity":72,"Duration":95967,"SoundDuration":95967,"Delta":120576345},{"NoteNumber":86,"Velocity":75,"Duration":96380,"SoundDuration":96380,"Delta":120673119},{"NoteNumber":72,"Velocity":53,"Duration":96380,"SoundDuration":96380,"Delta":120673119},{"NoteNumber":91,"Velocity":73,"Duration":96799,"SoundDuration":96799,"Delta":120770312},{"NoteNumber":79,"Velocity":53,"Duration":96799,"SoundDuration":96799,"Delta":120770312},{"NoteNumber":98,"Velocity":73,"Duration":97326,"SoundDuration":97326,"Delta":120867926},{"NoteNumber":83,"Velocity":53,"Duration":97326,"SoundDuration":97326,"Delta":120867926},{"NoteNumber":91,"Velocity":82,"Duration":99054,"SoundDuration":99054,"Delta":120966072},{"NoteNumber":79,"Velocity":67,"Duration":99054,"SoundDuration":99054,"Delta":120966072},{"NoteNumber":86,"Velocity":72,"Duration":101648,"SoundDuration":101648,"Delta":121065966},{"NoteNumber":72,"Velocity":53,"Duration":101648,"SoundDuration":101648,"Delta":121065966},{"NoteNumber":86,"Velocity":72,"Duration":104505,"SoundDuration":104505,"Delta":121168477},{"NoteNumber":71,"Velocity":53,"Duration":104505,"SoundDuration":104505,"Delta":121168477},{"NoteNumber":79,"Velocity":71,"Duration":105320,"SoundDuration":105320,"Delta":121273869},{"NoteNumber":67,"Velocity":53,"Duration":105320,"SoundDuration":105320,"Delta":121273869},{"NoteNumber":74,"Velocity":81,"Duration":102233,"SoundDuration":102233,"Delta":121380048},{"NoteNumber":60,"Velocity":69,"Duration":102233,"SoundDuration":102233,"Delta":121380048},{"NoteNumber":74,"Velocity":69,"Duration":101883,"SoundDuration":101883,"Delta":121483141},{"NoteNumber":59,"Velocity":52,"Duration":101883,"SoundDuration":101883,"Delta":121483141},{"NoteNumber":67,"Velocity":69,"Duration":101652,"SoundDuration":101652,"Delta":121585881},{"NoteNumber":55,"Velocity":52,"Duration":101652,"SoundDuration":101652,"Delta":121585881},{"NoteNumber":62,"Velocity":69,"Duration":101422,"SoundDuration":101422,"Delta":121688387},{"NoteNumber":48,"Velocity":52,"Duration":101422,"SoundDuration":101422,"Delta":121688387},{"NoteNumber":62,"Velocity":101,"Duration":406439,"SoundDuration":406439,"Delta":121790660},{"NoteNumber":47,"Velocity":61,"Duration":101190,"SoundDuration":101190,"Delta":121790660},{"NoteNumber":55,"Velocity":70,"Duration":100847,"SoundDuration":100847,"Delta":121892700},{"NoteNumber":43,"Velocity":50,"Duration":100847,"SoundDuration":100847,"Delta":121892700},{"NoteNumber":50,"Velocity":70,"Duration":100621,"SoundDuration":100621,"Delta":121994395},{"NoteNumber":36,"Velocity":50,"Duration":100621,"SoundDuration":100621,"Delta":121994395},{"NoteNumber":55,"Velocity":70,"Duration":100395,"SoundDuration":100395,"Delta":122095861},{"NoteNumber":43,"Velocity":50,"Duration":100395,"SoundDuration":100395,"Delta":122095861},{"NoteNumber":48,"Velocity":100,"Duration":100279,"SoundDuration":100279,"Delta":122197099},{"NoteNumber":45,"Velocity":59,"Duration":100279,"SoundDuration":100279,"Delta":122197099},{"NoteNumber":53,"Velocity":63,"Duration":100732,"SoundDuration":100732,"Delta":122298223},{"NoteNumber":41,"Velocity":50,"Duration":100732,"SoundDuration":100732,"Delta":122298223},{"NoteNumber":60,"Velocity":82,"Duration":416481,"SoundDuration":416481,"Delta":122399803},{"NoteNumber":36,"Velocity":50,"Duration":101075,"SoundDuration":101075,"Delta":122399803},{"NoteNumber":53,"Velocity":66,"Duration":101764,"SoundDuration":101764,"Delta":122501728},{"NoteNumber":41,"Velocity":50,"Duration":101764,"SoundDuration":101764,"Delta":122501728},{"NoteNumber":48,"Velocity":99,"Duration":103776,"SoundDuration":103776,"Delta":122604352},{"NoteNumber":45,"Velocity":56,"Duration":103776,"SoundDuration":103776,"Delta":122604352},{"NoteNumber":53,"Velocity":62,"Duration":106373,"SoundDuration":106373,"Delta":122709009},{"NoteNumber":41,"Velocity":49,"Duration":106373,"SoundDuration":106373,"Delta":122709009},{"NoteNumber":57,"Velocity":75,"Duration":222960,"SoundDuration":222960,"Delta":122816285},{"NoteNumber":36,"Velocity":49,"Duration":109104,"SoundDuration":109104,"Delta":122816285},{"NoteNumber":53,"Velocity":62,"Duration":111979,"SoundDuration":111979,"Delta":122926316},{"NoteNumber":41,"Velocity":49,"Duration":111979,"SoundDuration":111979,"Delta":122926316},{"NoteNumber":48,"Velocity":100,"Duration":102550,"SoundDuration":102550,"Delta":123039246},{"NoteNumber":36,"Velocity":69,"Duration":102550,"SoundDuration":102550,"Delta":123039246},{"NoteNumber":53,"Velocity":70,"Duration":100967,"SoundDuration":100967,"Delta":123142652},{"NoteNumber":44,"Velocity":55,"Duration":100967,"SoundDuration":100967,"Delta":123142652},{"NoteNumber":60,"Velocity":70,"Duration":99614,"SoundDuration":99614,"Delta":123244464},{"NoteNumber":48,"Velocity":55,"Duration":99614,"SoundDuration":99614,"Delta":123244464},{"NoteNumber":60,"Velocity":70,"Duration":98404,"SoundDuration":98404,"Delta":123344912},{"NoteNumber":48,"Velocity":55,"Duration":98404,"SoundDuration":98404,"Delta":123344912},{"NoteNumber":65,"Velocity":85,"Duration":97756,"SoundDuration":97756,"Delta":123444141},{"NoteNumber":56,"Velocity":63,"Duration":97756,"SoundDuration":97756,"Delta":123444141},{"NoteNumber":72,"Velocity":71,"Duration":97329,"SoundDuration":97329,"Delta":123542718},{"NoteNumber":60,"Velocity":53,"Duration":97329,"SoundDuration":97329,"Delta":123542718},{"NoteNumber":72,"Velocity":70,"Duration":96802,"SoundDuration":96802,"Delta":123640864},{"NoteNumber":60,"Velocity":53,"Duration":96802,"SoundDuration":96802,"Delta":123640864},{"NoteNumber":77,"Velocity":70,"Duration":96383,"SoundDuration":96383,"Delta":123738478},{"NoteNumber":68,"Velocity":53,"Duration":96383,"SoundDuration":96383,"Delta":123738478},{"NoteNumber":84,"Velocity":91,"Duration":95967,"SoundDuration":95967,"Delta":123835671},{"NoteNumber":72,"Velocity":67,"Duration":95967,"SoundDuration":95967,"Delta":123835671},{"NoteNumber":84,"Velocity":73,"Duration":96380,"SoundDuration":96380,"Delta":123932445},{"NoteNumber":72,"Velocity":53,"Duration":96380,"SoundDuration":96380,"Delta":123932445},{"NoteNumber":89,"Velocity":73,"Duration":96799,"SoundDuration":96799,"Delta":124029637},{"NoteNumber":80,"Velocity":53,"Duration":96799,"SoundDuration":96799,"Delta":124029637},{"NoteNumber":96,"Velocity":73,"Duration":97326,"SoundDuration":97326,"Delta":124127251},{"NoteNumber":84,"Velocity":53,"Duration":97326,"SoundDuration":97326,"Delta":124127251},{"NoteNumber":89,"Velocity":82,"Duration":99054,"SoundDuration":99054,"Delta":124225398},{"NoteNumber":80,"Velocity":67,"Duration":99054,"SoundDuration":99054,"Delta":124225398},{"NoteNumber":84,"Velocity":72,"Duration":101648,"SoundDuration":101648,"Delta":124325291},{"NoteNumber":72,"Velocity":53,"Duration":101648,"SoundDuration":101648,"Delta":124325291},{"NoteNumber":84,"Velocity":72,"Duration":104505,"SoundDuration":104505,"Delta":124427802},{"NoteNumber":72,"Velocity":53,"Duration":104505,"SoundDuration":104505,"Delta":124427802},{"NoteNumber":77,"Velocity":71,"Duration":104978,"SoundDuration":104978,"Delta":124533194},{"NoteNumber":68,"Velocity":53,"Duration":104978,"SoundDuration":104978,"Delta":124533194},{"NoteNumber":72,"Velocity":81,"Duration":101190,"SoundDuration":101190,"Delta":124639023},{"NoteNumber":60,"Velocity":69,"Duration":101190,"SoundDuration":101190,"Delta":124639023},{"NoteNumber":72,"Velocity":69,"Duration":100847,"SoundDuration":100847,"Delta":124741064},{"NoteNumber":60,"Velocity":52,"Duration":100847,"SoundDuration":100847,"Delta":124741064},{"NoteNumber":65,"Velocity":69,"Duration":100506,"SoundDuration":100506,"Delta":124842759},{"NoteNumber":56,"Velocity":52,"Duration":100506,"SoundDuration":100506,"Delta":124842759},{"NoteNumber":60,"Velocity":69,"Duration":100281,"SoundDuration":100281,"Delta":124944110},{"NoteNumber":48,"Velocity":52,"Duration":100281,"SoundDuration":100281,"Delta":124944110},{"NoteNumber":60,"Velocity":104,"Duration":401789,"SoundDuration":401789,"Delta":125045234},{"NoteNumber":48,"Velocity":61,"Duration":99945,"SoundDuration":99945,"Delta":125045234},{"NoteNumber":53,"Velocity":73,"Duration":99722,"SoundDuration":99722,"Delta":125146018},{"NoteNumber":44,"Velocity":50,"Duration":99722,"SoundDuration":99722,"Delta":125146018},{"NoteNumber":48,"Velocity":73,"Duration":99389,"SoundDuration":99389,"Delta":125246577},{"NoteNumber":36,"Velocity":50,"Duration":99389,"SoundDuration":99389,"Delta":125246577},{"NoteNumber":53,"Velocity":73,"Duration":99386,"SoundDuration":99386,"Delta":125346800},{"NoteNumber":44,"Velocity":50,"Duration":99386,"SoundDuration":99386,"Delta":125346800},{"NoteNumber":48,"Velocity":103,"Duration":99942,"SoundDuration":99942,"Delta":125447023},{"NoteNumber":36,"Velocity":59,"Duration":99942,"SoundDuration":99942,"Delta":125447023},{"NoteNumber":53,"Velocity":68,"Duration":100504,"SoundDuration":100504,"Delta":125547807},{"NoteNumber":44,"Velocity":50,"Duration":100504,"SoundDuration":100504,"Delta":125547807},{"NoteNumber":60,"Velocity":82,"Duration":407749,"SoundDuration":407749,"Delta":125649159},{"NoteNumber":48,"Velocity":50,"Duration":101075,"SoundDuration":101075,"Delta":125649159},{"NoteNumber":53,"Velocity":66,"Duration":101649,"SoundDuration":101649,"Delta":125751085},{"NoteNumber":44,"Velocity":50,"Duration":101649,"SoundDuration":101649,"Delta":125751085},{"NoteNumber":48,"Velocity":100,"Duration":100085,"SoundDuration":100085,"Delta":125853591},{"NoteNumber":36,"Velocity":56,"Duration":100085,"SoundDuration":100085,"Delta":125853591},{"NoteNumber":53,"Velocity":62,"Duration":101534,"SoundDuration":101534,"Delta":125954512},{"NoteNumber":44,"Velocity":49,"Duration":101534,"SoundDuration":101534,"Delta":125954512},{"NoteNumber":62,"Velocity":75,"Duration":214741,"SoundDuration":214741,"Delta":126056908},{"NoteNumber":48,"Velocity":49,"Duration":104751,"SoundDuration":104751,"Delta":126056908},{"NoteNumber":53,"Velocity":62,"Duration":108180,"SoundDuration":108180,"Delta":126162550},{"NoteNumber":44,"Velocity":49,"Duration":108180,"SoundDuration":108180,"Delta":126162550},{"NoteNumber":48,"Velocity":107,"Duration":102593,"SoundDuration":102593,"Delta":126271650},{"NoteNumber":36,"Velocity":74,"Duration":102593,"SoundDuration":102593,"Delta":126271650},{"NoteNumber":53,"Velocity":73,"Duration":100967,"SoundDuration":100967,"Delta":126375099},{"NoteNumber":44,"Velocity":56,"Duration":100967,"SoundDuration":100967,"Delta":126375099},{"NoteNumber":60,"Velocity":73,"Duration":99614,"SoundDuration":99614,"Delta":126476911},{"NoteNumber":48,"Velocity":56,"Duration":99614,"SoundDuration":99614,"Delta":126476911},{"NoteNumber":60,"Velocity":73,"Duration":98404,"SoundDuration":98404,"Delta":126577359},{"NoteNumber":48,"Velocity":53,"Duration":98404,"SoundDuration":98404,"Delta":126577359},{"NoteNumber":65,"Velocity":85,"Duration":97756,"SoundDuration":97756,"Delta":126676589},{"NoteNumber":56,"Velocity":66,"Duration":97756,"SoundDuration":97756,"Delta":126676589},{"NoteNumber":72,"Velocity":71,"Duration":97329,"SoundDuration":97329,"Delta":126775165},{"NoteNumber":60,"Velocity":53,"Duration":97329,"SoundDuration":97329,"Delta":126775165},{"NoteNumber":72,"Velocity":70,"Duration":96802,"SoundDuration":96802,"Delta":126873311},{"NoteNumber":60,"Velocity":53,"Duration":96802,"SoundDuration":96802,"Delta":126873311},{"NoteNumber":77,"Velocity":70,"Duration":96383,"SoundDuration":96383,"Delta":126970925},{"NoteNumber":68,"Velocity":53,"Duration":96383,"SoundDuration":96383,"Delta":126970925},{"NoteNumber":84,"Velocity":89,"Duration":95967,"SoundDuration":95967,"Delta":127068118},{"NoteNumber":72,"Velocity":72,"Duration":95967,"SoundDuration":95967,"Delta":127068118},{"NoteNumber":84,"Velocity":75,"Duration":96380,"SoundDuration":96380,"Delta":127164892},{"NoteNumber":72,"Velocity":53,"Duration":96380,"SoundDuration":96380,"Delta":127164892},{"NoteNumber":89,"Velocity":73,"Duration":96799,"SoundDuration":96799,"Delta":127262085},{"NoteNumber":80,"Velocity":53,"Duration":96799,"SoundDuration":96799,"Delta":127262085},{"NoteNumber":96,"Velocity":73,"Duration":97326,"SoundDuration":97326,"Delta":127359699},{"NoteNumber":84,"Velocity":53,"Duration":97326,"SoundDuration":97326,"Delta":127359699},{"NoteNumber":89,"Velocity":82,"Duration":99054,"SoundDuration":99054,"Delta":127457845},{"NoteNumber":80,"Velocity":67,"Duration":99054,"SoundDuration":99054,"Delta":127457845},{"NoteNumber":84,"Velocity":72,"Duration":101648,"SoundDuration":101648,"Delta":127557739},{"NoteNumber":72,"Velocity":53,"Duration":101648,"SoundDuration":101648,"Delta":127557739},{"NoteNumber":84,"Velocity":72,"Duration":104505,"SoundDuration":104505,"Delta":127660250},{"NoteNumber":72,"Velocity":53,"Duration":104505,"SoundDuration":104505,"Delta":127660250},{"NoteNumber":77,"Velocity":71,"Duration":107399,"SoundDuration":107399,"Delta":127765642},{"NoteNumber":68,"Velocity":53,"Duration":107399,"SoundDuration":107399,"Delta":127765642},{"NoteNumber":72,"Velocity":81,"Duration":101535,"SoundDuration":101535,"Delta":127873953},{"NoteNumber":60,"Velocity":69,"Duration":101535,"SoundDuration":101535,"Delta":127873953},{"NoteNumber":72,"Velocity":69,"Duration":101190,"SoundDuration":101190,"Delta":127976342},{"NoteNumber":60,"Velocity":52,"Duration":101190,"SoundDuration":101190,"Delta":127976342},{"NoteNumber":65,"Velocity":69,"Duration":100847,"SoundDuration":100847,"Delta":128078383},{"NoteNumber":56,"Velocity":52,"Duration":100847,"SoundDuration":100847,"Delta":128078383},{"NoteNumber":60,"Velocity":69,"Duration":100506,"SoundDuration":100506,"Delta":128180078},{"NoteNumber":48,"Velocity":52,"Duration":100506,"SoundDuration":100506,"Delta":128180078},{"NoteNumber":60,"Velocity":106,"Duration":402127,"SoundDuration":402127,"Delta":128281429},{"NoteNumber":48,"Velocity":72,"Duration":100168,"SoundDuration":100168,"Delta":128281429},{"NoteNumber":53,"Velocity":70,"Duration":99832,"SoundDuration":99832,"Delta":128382439},{"NoteNumber":44,"Velocity":50,"Duration":99832,"SoundDuration":99832,"Delta":128382439},{"NoteNumber":48,"Velocity":70,"Duration":99498,"SoundDuration":99498,"Delta":128483110},{"NoteNumber":36,"Velocity":50,"Duration":99498,"SoundDuration":99498,"Delta":128483110},{"NoteNumber":53,"Velocity":70,"Duration":99275,"SoundDuration":99275,"Delta":128583445},{"NoteNumber":44,"Velocity":50,"Duration":99275,"SoundDuration":99275,"Delta":128583445},{"NoteNumber":48,"Velocity":105,"Duration":99720,"SoundDuration":99720,"Delta":128683556},{"NoteNumber":36,"Velocity":69,"Duration":99720,"SoundDuration":99720,"Delta":128683556},{"NoteNumber":53,"Velocity":63,"Duration":100279,"SoundDuration":100279,"Delta":128784115},{"NoteNumber":44,"Velocity":50,"Duration":100279,"SoundDuration":100279,"Delta":128784115},{"NoteNumber":60,"Velocity":82,"Duration":409689,"SoundDuration":409689,"Delta":128885239},{"NoteNumber":48,"Velocity":50,"Duration":100732,"SoundDuration":100732,"Delta":128885239},{"NoteNumber":53,"Velocity":66,"Duration":101303,"SoundDuration":101303,"Delta":128986820},{"NoteNumber":44,"Velocity":50,"Duration":101303,"SoundDuration":101303,"Delta":128986820},{"NoteNumber":48,"Velocity":104,"Duration":101766,"SoundDuration":101766,"Delta":129088976},{"NoteNumber":36,"Velocity":71,"Duration":101766,"SoundDuration":101766,"Delta":129088976},{"NoteNumber":53,"Velocity":62,"Duration":102467,"SoundDuration":102467,"Delta":129191599},{"NoteNumber":44,"Velocity":49,"Duration":102467,"SoundDuration":102467,"Delta":129191599},{"NoteNumber":62,"Velocity":75,"Duration":212578,"SoundDuration":212578,"Delta":129294929},{"NoteNumber":48,"Velocity":49,"Duration":104751,"SoundDuration":104751,"Delta":129294929},{"NoteNumber":53,"Velocity":62,"Duration":106071,"SoundDuration":106071,"Delta":129400571},{"NoteNumber":44,"Velocity":49,"Duration":106071,"SoundDuration":106071,"Delta":129400571},{"NoteNumber":52,"Velocity":83,"Duration":102941,"SoundDuration":102941,"Delta":129507508},{"NoteNumber":36,"Velocity":101,"Duration":102941,"SoundDuration":102941,"Delta":129507508},{"NoteNumber":55,"Velocity":69,"Duration":102586,"SoundDuration":102586,"Delta":129611314},{"NoteNumber":43,"Velocity":57,"Duration":102586,"SoundDuration":102586,"Delta":129611314},{"NoteNumber":64,"Velocity":69,"Duration":102352,"SoundDuration":102352,"Delta":129714762},{"NoteNumber":48,"Velocity":57,"Duration":102352,"SoundDuration":102352,"Delta":129714762},{"NoteNumber":55,"Velocity":70,"Duration":102118,"SoundDuration":102118,"Delta":129817973},{"NoteNumber":43,"Velocity":57,"Duration":102118,"SoundDuration":102118,"Delta":129817973},{"NoteNumber":52,"Velocity":84,"Duration":101883,"SoundDuration":101883,"Delta":129920948},{"NoteNumber":31,"Velocity":96,"Duration":101883,"SoundDuration":101883,"Delta":129920948},{"NoteNumber":55,"Velocity":72,"Duration":101883,"SoundDuration":101883,"Delta":130023688},{"NoteNumber":43,"Velocity":55,"Duration":101883,"SoundDuration":101883,"Delta":130023688},{"NoteNumber":64,"Velocity":73,"Duration":101883,"SoundDuration":101883,"Delta":130126428},{"NoteNumber":48,"Velocity":55,"Duration":101883,"SoundDuration":101883,"Delta":130126428},{"NoteNumber":55,"Velocity":73,"Duration":102115,"SoundDuration":102115,"Delta":130229168},{"NoteNumber":43,"Velocity":55,"Duration":102115,"SoundDuration":102115,"Delta":130229168},{"NoteNumber":52,"Velocity":88,"Duration":102939,"SoundDuration":102939,"Delta":130332143},{"NoteNumber":36,"Velocity":104,"Duration":102939,"SoundDuration":102939,"Delta":130332143},{"NoteNumber":55,"Velocity":72,"Duration":103656,"SoundDuration":103656,"Delta":130435950},{"NoteNumber":43,"Velocity":54,"Duration":103656,"SoundDuration":103656,"Delta":130435950},{"NoteNumber":64,"Velocity":73,"Duration":104506,"SoundDuration":104506,"Delta":130540480},{"NoteNumber":48,"Velocity":57,"Duration":104506,"SoundDuration":104506,"Delta":130540480},{"NoteNumber":55,"Velocity":73,"Duration":105371,"SoundDuration":105371,"Delta":130645867},{"NoteNumber":43,"Velocity":60,"Duration":105371,"SoundDuration":105371,"Delta":130645867},{"NoteNumber":52,"Velocity":86,"Duration":107141,"SoundDuration":107141,"Delta":130752125},{"NoteNumber":31,"Velocity":97,"Duration":107141,"SoundDuration":107141,"Delta":130752125},{"NoteNumber":55,"Velocity":72,"Duration":107787,"SoundDuration":107787,"Delta":130860168},{"NoteNumber":43,"Velocity":59,"Duration":107787,"SoundDuration":107787,"Delta":130860168},{"NoteNumber":64,"Velocity":73,"Duration":108574,"SoundDuration":108574,"Delta":130968865},{"NoteNumber":48,"Velocity":59,"Duration":108574,"SoundDuration":108574,"Delta":130968865},{"NoteNumber":55,"Velocity":73,"Duration":107661,"SoundDuration":107661,"Delta":131078355},{"NoteNumber":43,"Velocity":59,"Duration":107661,"SoundDuration":107661,"Delta":131078355},{"NoteNumber":52,"Velocity":95,"Duration":107662,"SoundDuration":107662,"Delta":131186922},{"NoteNumber":36,"Velocity":107,"Duration":107662,"SoundDuration":107662,"Delta":131186922},{"NoteNumber":55,"Velocity":79,"Duration":107144,"SoundDuration":107144,"Delta":131295487},{"NoteNumber":43,"Velocity":65,"Duration":107144,"SoundDuration":107144,"Delta":131295487},{"NoteNumber":64,"Velocity":79,"Duration":106630,"SoundDuration":106630,"Delta":131403530},{"NoteNumber":48,"Velocity":65,"Duration":106630,"SoundDuration":106630,"Delta":131403530},{"NoteNumber":55,"Velocity":79,"Duration":106125,"SoundDuration":106125,"Delta":131511057},{"NoteNumber":43,"Velocity":64,"Duration":106125,"SoundDuration":106125,"Delta":131511057},{"NoteNumber":52,"Velocity":94,"Duration":105622,"SoundDuration":105622,"Delta":131618073},{"NoteNumber":31,"Velocity":104,"Duration":105622,"SoundDuration":105622,"Delta":131618073},{"NoteNumber":55,"Velocity":80,"Duration":105496,"SoundDuration":105496,"Delta":131724582},{"NoteNumber":43,"Velocity":58,"Duration":105496,"SoundDuration":105496,"Delta":131724582},{"NoteNumber":64,"Velocity":80,"Duration":105496,"SoundDuration":105496,"Delta":131830965},{"NoteNumber":48,"Velocity":58,"Duration":105496,"SoundDuration":105496,"Delta":131830965},{"NoteNumber":55,"Velocity":80,"Duration":105371,"SoundDuration":105371,"Delta":131937348},{"NoteNumber":43,"Velocity":58,"Duration":105371,"SoundDuration":105371,"Delta":131937348},{"NoteNumber":52,"Velocity":94,"Duration":106247,"SoundDuration":106247,"Delta":132043606},{"NoteNumber":36,"Velocity":113,"Duration":106247,"SoundDuration":106247,"Delta":132043606},{"NoteNumber":55,"Velocity":77,"Duration":107398,"SoundDuration":107398,"Delta":132150750},{"NoteNumber":43,"Velocity":57,"Duration":107398,"SoundDuration":107398,"Delta":132150750},{"NoteNumber":64,"Velocity":77,"Duration":108574,"SoundDuration":108574,"Delta":132259054},{"NoteNumber":48,"Velocity":57,"Duration":108574,"SoundDuration":108574,"Delta":132259054},{"NoteNumber":55,"Velocity":77,"Duration":109379,"SoundDuration":109379,"Delta":132368544},{"NoteNumber":43,"Velocity":57,"Duration":109379,"SoundDuration":109379,"Delta":132368544},{"NoteNumber":52,"Velocity":90,"Duration":110729,"SoundDuration":110729,"Delta":132478839},{"NoteNumber":31,"Velocity":108,"Duration":110729,"SoundDuration":110729,"Delta":132478839},{"NoteNumber":55,"Velocity":74,"Duration":113837,"SoundDuration":113837,"Delta":132590508},{"NoteNumber":43,"Velocity":57,"Duration":113837,"SoundDuration":113837,"Delta":132590508},{"NoteNumber":64,"Velocity":74,"Duration":117432,"SoundDuration":117432,"Delta":132705311},{"NoteNumber":48,"Velocity":57,"Duration":117432,"SoundDuration":117432,"Delta":132705311},{"NoteNumber":55,"Velocity":74,"Duration":121096,"SoundDuration":121096,"Delta":132823740},{"NoteNumber":43,"Velocity":57,"Duration":121096,"SoundDuration":121096,"Delta":132823740},{"NoteNumber":52,"Velocity":111,"Duration":500000,"SoundDuration":500000,"Delta":132945865},{"NoteNumber":24,"Velocity":97,"Duration":500000,"SoundDuration":500000,"Delta":132945865},{"NoteNumber":36,"Velocity":111,"Duration":500000,"SoundDuration":500000,"Delta":132945865},{"NoteNumber":72,"Velocity":105,"Duration":2400000,"SoundDuration":2400000,"Delta":133945865},{"NoteNumber":64,"Velocity":94,"Duration":2400000,"SoundDuration":2400000,"Delta":133945865},{"NoteNumber":67,"Velocity":94,"Duration":2400000,"SoundDuration":2400000,"Delta":133945865},{"NoteNumber":76,"Velocity":111,"Duration":2400000,"SoundDuration":2400000,"Delta":133945865},{"NoteNumber":48,"Velocity":70,"Duration":2400000,"SoundDuration":2400000,"Delta":133945865},{"NoteNumber":55,"Velocity":77,"Duration":2400000,"SoundDuration":2400000,"Delta":133945865},{"NoteNumber":60,"Velocity":82,"Duration":2400000,"SoundDuration":2400000,"Delta":133945865}],"license":{"name":"Creative Commons Attribution-ShareAlike 3.0 Germany","url":"http://creativecommons.org/licenses/by-sa/3.0/de/deed.en","text":"The MIDI, audio (MP3, OGG) and video files of Bernd Krueger are licensed under the cc-by-sa Germany License. This means that you can use and adapt the files, as long as you attribute the copyright holder.\n\nName: Bernd Krueger\nSource: http://www.piano-midi.de\n\nThe distribution or public playback of the files is only allowed under identical license conditions.\n\nThe scores are open source.","attribution":"MIDI files by Bernd Krueger (piano-midi.de)"}}