{"title":"Chopin Polonaise in Ab major Opus 53","artist":"Chopin","durationMs":352013,"midiSha256":"8bfd58f7b7b24234e11d30994747e0d3de30c8307f09422c218d6d33fe4bf4ba","midiObject":[{"NoteNumber":51,"Velocity":74,"Duration":545455,"SoundDuration":545455,"Delta":0},{"NoteNumber":63,"Velocity":88,"Duration":545455,"SoundDuration":545455,"Delta":0},{"NoteNumber":27,"Velocity":63,"Duration":545455,"SoundDuration":545455,"Delta":0},{"NoteNumber":39,"Velocity":75,"Duration":545455,"SoundDuration":545455,"Delta":0},{"NoteNumber":49,"Velocity":40,"Duration":109756,"SoundDuration":109756,"Delta":818182},{"NoteNumber":52,"Velocity":40,"Duration":109756,"SoundDuration":109756,"Delta":818182},{"NoteNumber":57,"Velocity":47,"Duration":109756,"SoundDuration":109756,"Delta":818182},{"NoteNumber":50,"Velocity":42,"Duration":108696,"SoundDuration":108696,"Delta":927938},{"NoteNumber":53,"Velocity":42,"Duration":108696,"SoundDuration":108696,"Delta":927938},{"NoteNumber":58,"Velocity":50,"Duration":108696,"SoundDuration":108696,"Delta":927938},{"NoteNumber":51,"Velocity":45,"Duration":107527,"SoundDuration":107527,"Delta":1036635},{"NoteNumber":54,"Velocity":45,"Duration":107527,"SoundDuration":107527,"Delta":1036635},{"NoteNumber":59,"Velocity":53,"Duration":107527,"SoundDuration":107527,"Delta":1036635},{"NoteNumber":52,"Velocity":46,"Duration":106383,"SoundDuration":106383,"Delta":1144163},{"NoteNumber":55,"Velocity":46,"Duration":106383,"SoundDuration":106383,"Delta":1144163},{"NoteNumber":60,"Velocity":55,"Duration":106383,"SoundDuration":106383,"Delta":1144163},{"NoteNumber":53,"Velocity":49,"Duration":105264,"SoundDuration":105264,"Delta":1250547},{"NoteNumber":56,"Velocity":49,"Duration":105264,"SoundDuration":105264,"Delta":1250547},{"NoteNumber":61,"Velocity":58,"Duration":105264,"SoundDuration":105264,"Delta":1250547},{"NoteNumber":53,"Velocity":51,"Duration":104167,"SoundDuration":104167,"Delta":1355811},{"NoteNumber":57,"Velocity":61,"Duration":104167,"SoundDuration":104167,"Delta":1355811},{"NoteNumber":62,"Velocity":61,"Duration":104167,"SoundDuration":104167,"Delta":1355811},{"NoteNumber":58,"Velocity":57,"Duration":149999,"SoundDuration":149999,"Delta":1459978},{"NoteNumber":63,"Velocity":68,"Duration":149999,"SoundDuration":149999,"Delta":1459978},{"NoteNumber":55,"Velocity":63,"Duration":149999,"SoundDuration":149999,"Delta":1459978},{"NoteNumber":55,"Velocity":51,"Duration":159574,"SoundDuration":159574,"Delta":2059978},{"NoteNumber":58,"Velocity":61,"Duration":159574,"SoundDuration":159574,"Delta":2059978},{"NoteNumber":39,"Velocity":42,"Duration":159574,"SoundDuration":159574,"Delta":2059978},{"NoteNumber":46,"Velocity":50,"Duration":159574,"SoundDuration":159574,"Delta":2059978},{"NoteNumber":56,"Velocity":31,"Duration":689655,"SoundDuration":689655,"Delta":2742930},{"NoteNumber":64,"Velocity":31,"Duration":689655,"SoundDuration":689655,"Delta":2742930},{"NoteNumber":68,"Velocity":37,"Duration":689655,"SoundDuration":689655,"Delta":2742930},{"NoteNumber":50,"Velocity":28,"Duration":689655,"SoundDuration":689655,"Delta":2742930},{"NoteNumber":59,"Velocity":32,"Duration":689655,"SoundDuration":689655,"Delta":2742930},{"NoteNumber":55,"Velocity":28,"Duration":361533,"SoundDuration":361533,"Delta":3432585},{"NoteNumber":63,"Velocity":28,"Duration":361533,"SoundDuration":361533,"Delta":3432585},{"NoteNumber":67,"Velocity":32,"Duration":361533,"SoundDuration":361533,"Delta":3432585},{"NoteNumber":51,"Velocity":23,"Duration":361533,"SoundDuration":361533,"Delta":3432585},{"NoteNumber":58,"Velocity":28,"Duration":361533,"SoundDuration":361533,"Delta":3432585},{"NoteNumber":44,"Velocity":36,"Duration":151162,"SoundDuration":151162,"Delta":4155651},{"NoteNumber":59,"Velocity":42,"Duration":151162,"SoundDuration":151162,"Delta":4155651},{"NoteNumber":43,"Velocity":33,"Duration":151162,"SoundDuration":151162,"Delta":4295186},{"NoteNumber":58,"Velocity":39,"Duration":151162,"SoundDuration":151162,"Delta":4295186},{"NoteNumber":38,"Velocity":33,"Duration":151162,"SoundDuration":151162,"Delta":4434721},{"NoteNumber":52,"Velocity":40,"Duration":151162,"SoundDuration":151162,"Delta":4434721},{"NoteNumber":39,"Velocity":35,"Duration":151162,"SoundDuration":151162,"Delta":4574256},{"NoteNumber":51,"Velocity":42,"Duration":151162,"SoundDuration":151162,"Delta":4574256},{"NoteNumber":44,"Velocity":39,"Duration":151162,"SoundDuration":151162,"Delta":4713791},{"NoteNumber":59,"Velocity":47,"Duration":151162,"SoundDuration":151162,"Delta":4713791},{"NoteNumber":43,"Velocity":38,"Duration":151162,"SoundDuration":151162,"Delta":4853326},{"NoteNumber":58,"Velocity":45,"Duration":151162,"SoundDuration":151162,"Delta":4853326},{"NoteNumber":38,"Velocity":39,"Duration":151162,"SoundDuration":151162,"Delta":4992861},{"NoteNumber":52,"Velocity":47,"Duration":151162,"SoundDuration":151162,"Delta":4992861},{"NoteNumber":39,"Velocity":40,"Duration":151162,"SoundDuration":151162,"Delta":5132396},{"NoteNumber":51,"Velocity":47,"Duration":151162,"SoundDuration":151162,"Delta":5132396},{"NoteNumber":44,"Velocity":44,"Duration":151109,"SoundDuration":151109,"Delta":5271931},{"NoteNumber":59,"Velocity":53,"Duration":151109,"SoundDuration":151109,"Delta":5271931},{"NoteNumber":43,"Velocity":43,"Duration":150409,"SoundDuration":150409,"Delta":5411466},{"NoteNumber":58,"Velocity":50,"Duration":150409,"SoundDuration":150409,"Delta":5411466},{"NoteNumber":38,"Velocity":44,"Duration":149716,"SoundDuration":149716,"Delta":5550355},{"NoteNumber":52,"Velocity":53,"Duration":149716,"SoundDuration":149716,"Delta":5550355},{"NoteNumber":39,"Velocity":46,"Duration":149030,"SoundDuration":149030,"Delta":5688604},{"NoteNumber":51,"Velocity":55,"Duration":149030,"SoundDuration":149030,"Delta":5688604},{"NoteNumber":44,"Velocity":52,"Duration":148349,"SoundDuration":148349,"Delta":5826219},{"NoteNumber":59,"Velocity":61,"Duration":148349,"SoundDuration":148349,"Delta":5826219},{"NoteNumber":43,"Velocity":49,"Duration":147675,"SoundDuration":147675,"Delta":5963205},{"NoteNumber":58,"Velocity":58,"Duration":147675,"SoundDuration":147675,"Delta":5963205},{"NoteNumber":38,"Velocity":49,"Duration":147007,"SoundDuration":147007,"Delta":6099569},{"NoteNumber":52,"Velocity":59,"Duration":147007,"SoundDuration":147007,"Delta":6099569},{"NoteNumber":39,"Velocity":52,"Duration":146346,"SoundDuration":146346,"Delta":6235315},{"NoteNumber":51,"Velocity":61,"Duration":146346,"SoundDuration":146346,"Delta":6235315},{"NoteNumber":44,"Velocity":58,"Duration":145689,"SoundDuration":145689,"Delta":6370451},{"NoteNumber":59,"Velocity":70,"Duration":145689,"SoundDuration":145689,"Delta":6370451},{"NoteNumber":43,"Velocity":55,"Duration":145039,"SoundDuration":145039,"Delta":6504980},{"NoteNumber":58,"Velocity":64,"Duration":145039,"SoundDuration":145039,"Delta":6504980},{"NoteNumber":38,"Velocity":55,"Duration":144395,"SoundDuration":144395,"Delta":6638908},{"NoteNumber":52,"Velocity":66,"Duration":144395,"SoundDuration":144395,"Delta":6638908},{"NoteNumber":39,"Velocity":57,"Duration":132548,"SoundDuration":132548,"Delta":6772242},{"NoteNumber":51,"Velocity":68,"Duration":132548,"SoundDuration":132548,"Delta":6772242},{"NoteNumber":59,"Velocity":74,"Duration":571429,"SoundDuration":571429,"Delta":6904790},{"NoteNumber":56,"Velocity":74,"Duration":571429,"SoundDuration":571429,"Delta":6904790},{"NoteNumber":52,"Velocity":74,"Duration":571429,"SoundDuration":571429,"Delta":6904790},{"NoteNumber":64,"Velocity":88,"Duration":571429,"SoundDuration":571429,"Delta":6904790},{"NoteNumber":44,"Velocity":63,"Duration":571429,"SoundDuration":571429,"Delta":6904790},{"NoteNumber":39,"Velocity":63,"Duration":571429,"SoundDuration":571429,"Delta":6904790},{"NoteNumber":51,"Velocity":75,"Duration":571429,"SoundDuration":571429,"Delta":6904790},{"NoteNumber":50,"Velocity":40,"Duration":112244,"SoundDuration":112244,"Delta":7761934},{"NoteNumber":53,"Velocity":40,"Duration":112244,"SoundDuration":112244,"Delta":7761934},{"NoteNumber":58,"Velocity":47,"Duration":112244,"SoundDuration":112244,"Delta":7761934},{"NoteNumber":51,"Velocity":42,"Duration":105882,"SoundDuration":105882,"Delta":7874178},{"NoteNumber":54,"Velocity":42,"Duration":105882,"SoundDuration":105882,"Delta":7874178},{"NoteNumber":59,"Velocity":50,"Duration":105882,"SoundDuration":105882,"Delta":7874178},{"NoteNumber":52,"Velocity":45,"Duration":105386,"SoundDuration":105386,"Delta":7980060},{"NoteNumber":55,"Velocity":45,"Duration":105386,"SoundDuration":105386,"Delta":7980060},{"NoteNumber":60,"Velocity":53,"Duration":105386,"SoundDuration":105386,"Delta":7980060},{"NoteNumber":53,"Velocity":46,"Duration":104651,"SoundDuration":104651,"Delta":8085447},{"NoteNumber":56,"Velocity":46,"Duration":104651,"SoundDuration":104651,"Delta":8085447},{"NoteNumber":61,"Velocity":55,"Duration":104651,"SoundDuration":104651,"Delta":8085447},{"NoteNumber":54,"Velocity":49,"Duration":104046,"SoundDuration":104046,"Delta":8190099},{"NoteNumber":57,"Velocity":49,"Duration":104046,"SoundDuration":104046,"Delta":8190099},{"NoteNumber":62,"Velocity":58,"Duration":104046,"SoundDuration":104046,"Delta":8190099},{"NoteNumber":54,"Velocity":51,"Duration":103449,"SoundDuration":103449,"Delta":8294145},{"NoteNumber":58,"Velocity":61,"Duration":103449,"SoundDuration":103449,"Delta":8294145},{"NoteNumber":63,"Velocity":61,"Duration":103449,"SoundDuration":103449,"Delta":8294145},{"NoteNumber":59,"Velocity":57,"Duration":150000,"SoundDuration":150000,"Delta":8397594},{"NoteNumber":64,"Velocity":68,"Duration":150000,"SoundDuration":150000,"Delta":8397594},{"NoteNumber":56,"Velocity":63,"Duration":150000,"SoundDuration":150000,"Delta":8397594},{"NoteNumber":52,"Velocity":45,"Duration":173450,"SoundDuration":173450,"Delta":8997594},{"NoteNumber":56,"Velocity":45,"Duration":173450,"SoundDuration":173450,"Delta":8997594},{"NoteNumber":59,"Velocity":54,"Duration":173450,"SoundDuration":173450,"Delta":8997594},{"NoteNumber":39,"Velocity":37,"Duration":173450,"SoundDuration":173450,"Delta":8997594},{"NoteNumber":47,"Velocity":45,"Duration":173450,"SoundDuration":173450,"Delta":8997594},{"NoteNumber":61,"Velocity":31,"Duration":681817,"SoundDuration":681817,"Delta":9691396},{"NoteNumber":70,"Velocity":31,"Duration":681817,"SoundDuration":681817,"Delta":9691396},{"NoteNumber":73,"Velocity":37,"Duration":681817,"SoundDuration":681817,"Delta":9691396},{"NoteNumber":58,"Velocity":28,"Duration":681817,"SoundDuration":681817,"Delta":9691396},{"NoteNumber":55,"Velocity":28,"Duration":681817,"SoundDuration":681817,"Delta":9691396},{"NoteNumber":64,"Velocity":32,"Duration":681817,"SoundDuration":681817,"Delta":9691396},{"NoteNumber":68,"Velocity":28,"Duration":340908,"SoundDuration":340908,"Delta":10373214},{"NoteNumber":71,"Velocity":32,"Duration":340908,"SoundDuration":340908,"Delta":10373214},{"NoteNumber":56,"Velocity":23,"Duration":340908,"SoundDuration":340908,"Delta":10373214},{"NoteNumber":59,"Velocity":23,"Duration":340908,"SoundDuration":340908,"Delta":10373214},{"NoteNumber":64,"Velocity":28,"Duration":340908,"SoundDuration":340908,"Delta":10373214},{"NoteNumber":46,"Velocity":36,"Duration":150463,"SoundDuration":150463,"Delta":11055032},{"NoteNumber":61,"Velocity":42,"Duration":150463,"SoundDuration":150463,"Delta":11055032},{"NoteNumber":44,"Velocity":33,"Duration":150463,"SoundDuration":150463,"Delta":11193921},{"NoteNumber":59,"Velocity":39,"Duration":150463,"SoundDuration":150463,"Delta":11193921},{"NoteNumber":39,"Velocity":33,"Duration":150463,"SoundDuration":150463,"Delta":11332810},{"NoteNumber":54,"Velocity":40,"Duration":150463,"SoundDuration":150463,"Delta":11332810},{"NoteNumber":44,"Velocity":35,"Duration":150463,"SoundDuration":150463,"Delta":11471699},{"NoteNumber":52,"Velocity":42,"Duration":150463,"SoundDuration":150463,"Delta":11471699},{"NoteNumber":46,"Velocity":39,"Duration":150463,"SoundDuration":150463,"Delta":11610588},{"NoteNumber":61,"Velocity":47,"Duration":150463,"SoundDuration":150463,"Delta":11610588},{"NoteNumber":44,"Velocity":38,"Duration":150463,"SoundDuration":150463,"Delta":11749477},{"NoteNumber":59,"Velocity":45,"Duration":150463,"SoundDuration":150463,"Delta":11749477},{"NoteNumber":39,"Velocity":39,"Duration":150463,"SoundDuration":150463,"Delta":11888366},{"NoteNumber":54,"Velocity":47,"Duration":150463,"SoundDuration":150463,"Delta":11888366},{"NoteNumber":44,"Velocity":40,"Duration":150409,"SoundDuration":150409,"Delta":12027255},{"NoteNumber":52,"Velocity":47,"Duration":150409,"SoundDuration":150409,"Delta":12027255},{"NoteNumber":46,"Velocity":44,"Duration":149769,"SoundDuration":149769,"Delta":12166144},{"NoteNumber":61,"Velocity":53,"Duration":149769,"SoundDuration":149769,"Delta":12166144},{"NoteNumber":44,"Velocity":43,"Duration":149293,"SoundDuration":149293,"Delta":12304393},{"NoteNumber":59,"Velocity":50,"Duration":149293,"SoundDuration":149293,"Delta":12304393},{"NoteNumber":39,"Velocity":44,"Duration":148820,"SoundDuration":148820,"Delta":12442219},{"NoteNumber":54,"Velocity":53,"Duration":148820,"SoundDuration":148820,"Delta":12442219},{"NoteNumber":44,"Velocity":46,"Duration":148349,"SoundDuration":148349,"Delta":12579624},{"NoteNumber":52,"Velocity":55,"Duration":148349,"SoundDuration":148349,"Delta":12579624},{"NoteNumber":46,"Velocity":52,"Duration":147727,"SoundDuration":147727,"Delta":12716610},{"NoteNumber":61,"Velocity":61,"Duration":147727,"SoundDuration":147727,"Delta":12716610},{"NoteNumber":44,"Velocity":49,"Duration":147264,"SoundDuration":147264,"Delta":12852974},{"NoteNumber":59,"Velocity":58,"Duration":147264,"SoundDuration":147264,"Delta":12852974},{"NoteNumber":39,"Velocity":49,"Duration":146804,"SoundDuration":146804,"Delta":12988926},{"NoteNumber":54,"Velocity":59,"Duration":146804,"SoundDuration":146804,"Delta":12988926},{"NoteNumber":44,"Velocity":52,"Duration":146346,"SoundDuration":146346,"Delta":13124469},{"NoteNumber":52,"Velocity":61,"Duration":146346,"SoundDuration":146346,"Delta":13124469},{"NoteNumber":46,"Velocity":58,"Duration":145740,"SoundDuration":145740,"Delta":13259604},{"NoteNumber":61,"Velocity":70,"Duration":145740,"SoundDuration":145740,"Delta":13259604},{"NoteNumber":44,"Velocity":55,"Duration":145289,"SoundDuration":145289,"Delta":13394134},{"NoteNumber":59,"Velocity":64,"Duration":145289,"SoundDuration":145289,"Delta":13394134},{"NoteNumber":39,"Velocity":55,"Duration":144841,"SoundDuration":144841,"Delta":13528262},{"NoteNumber":54,"Velocity":66,"Duration":144841,"SoundDuration":144841,"Delta":13528262},{"NoteNumber":44,"Velocity":57,"Duration":133136,"SoundDuration":133136,"Delta":13661993},{"NoteNumber":52,"Velocity":68,"Duration":133136,"SoundDuration":133136,"Delta":13661993},{"NoteNumber":60,"Velocity":74,"Duration":545455,"SoundDuration":545455,"Delta":13795129},{"NoteNumber":57,"Velocity":74,"Duration":545455,"SoundDuration":545455,"Delta":13795129},{"NoteNumber":53,"Velocity":74,"Duration":545455,"SoundDuration":545455,"Delta":13795129},{"NoteNumber":65,"Velocity":88,"Duration":545455,"SoundDuration":545455,"Delta":13795129},{"NoteNumber":45,"Velocity":63,"Duration":545455,"SoundDuration":545455,"Delta":13795129},{"NoteNumber":39,"Velocity":63,"Duration":545455,"SoundDuration":545455,"Delta":13795129},{"NoteNumber":51,"Velocity":75,"Duration":545455,"SoundDuration":545455,"Delta":13795129},{"NoteNumber":57,"Velocity":45,"Duration":105882,"SoundDuration":105882,"Delta":14613312},{"NoteNumber":62,"Velocity":53,"Duration":105882,"SoundDuration":105882,"Delta":14613312},{"NoteNumber":54,"Velocity":45,"Duration":105882,"SoundDuration":105882,"Delta":14613312},{"NoteNumber":58,"Velocity":47,"Duration":105017,"SoundDuration":105017,"Delta":14719194},{"NoteNumber":63,"Velocity":56,"Duration":105017,"SoundDuration":105017,"Delta":14719194},{"NoteNumber":55,"Velocity":47,"Duration":105017,"SoundDuration":105017,"Delta":14719194},{"NoteNumber":59,"Velocity":50,"Duration":104167,"SoundDuration":104167,"Delta":14824212},{"NoteNumber":64,"Velocity":59,"Duration":104167,"SoundDuration":104167,"Delta":14824212},{"NoteNumber":56,"Velocity":50,"Duration":104167,"SoundDuration":104167,"Delta":14824212},{"NoteNumber":60,"Velocity":52,"Duration":103449,"SoundDuration":103449,"Delta":14928379},{"NoteNumber":65,"Velocity":59,"Duration":103449,"SoundDuration":103449,"Delta":14928379},{"NoteNumber":57,"Velocity":52,"Duration":103449,"SoundDuration":103449,"Delta":14928379},{"NoteNumber":61,"Velocity":55,"Duration":102622,"SoundDuration":102622,"Delta":15031829},{"NoteNumber":67,"Velocity":65,"Duration":102622,"SoundDuration":102622,"Delta":15031829},{"NoteNumber":58,"Velocity":55,"Duration":102622,"SoundDuration":102622,"Delta":15031829},{"NoteNumber":62,"Velocity":68,"Duration":101695,"SoundDuration":101695,"Delta":15134451},{"NoteNumber":68,"Velocity":68,"Duration":101695,"SoundDuration":101695,"Delta":15134451},{"NoteNumber":59,"Velocity":57,"Duration":101695,"SoundDuration":101695,"Delta":15134451},{"NoteNumber":63,"Velocity":64,"Duration":150000,"SoundDuration":150000,"Delta":15236147},{"NoteNumber":69,"Velocity":76,"Duration":150000,"SoundDuration":150000,"Delta":15236147},{"NoteNumber":60,"Velocity":71,"Duration":150000,"SoundDuration":150000,"Delta":15236147},{"NoteNumber":57,"Velocity":62,"Duration":158730,"SoundDuration":158730,"Delta":15836147},{"NoteNumber":53,"Velocity":62,"Duration":158730,"SoundDuration":158730,"Delta":15836147},{"NoteNumber":60,"Velocity":62,"Duration":158730,"SoundDuration":158730,"Delta":15836147},{"NoteNumber":65,"Velocity":74,"Duration":158730,"SoundDuration":158730,"Delta":15836147},{"NoteNumber":39,"Velocity":54,"Duration":158730,"SoundDuration":158730,"Delta":15836147},{"NoteNumber":51,"Velocity":64,"Duration":158730,"SoundDuration":158730,"Delta":15836147},{"NoteNumber":60,"Velocity":66,"Duration":683997,"SoundDuration":683997,"Delta":16471068},{"NoteNumber":65,"Velocity":66,"Duration":683997,"SoundDuration":683997,"Delta":16471068},{"NoteNumber":72,"Velocity":78,"Duration":683997,"SoundDuration":683997,"Delta":16471068},{"NoteNumber":57,"Velocity":67,"Duration":683997,"SoundDuration":683997,"Delta":16471068},{"NoteNumber":51,"Velocity":56,"Duration":683997,"SoundDuration":683997,"Delta":16471068},{"NoteNumber":63,"Velocity":67,"Duration":683997,"SoundDuration":683997,"Delta":16471068},{"NoteNumber":56,"Velocity":62,"Duration":289854,"SoundDuration":289854,"Delta":17155065},{"NoteNumber":58,"Velocity":62,"Duration":289854,"SoundDuration":289854,"Delta":17155065},{"NoteNumber":62,"Velocity":62,"Duration":289854,"SoundDuration":289854,"Delta":17155065},{"NoteNumber":65,"Velocity":62,"Duration":289854,"SoundDuration":289854,"Delta":17155065},{"NoteNumber":70,"Velocity":73,"Duration":289854,"SoundDuration":289854,"Delta":17155065},{"NoteNumber":27,"Velocity":52,"Duration":289854,"SoundDuration":289854,"Delta":17155065},{"NoteNumber":39,"Velocity":62,"Duration":289854,"SoundDuration":289854,"Delta":17155065},{"NoteNumber":59,"Velocity":49,"Duration":107143,"SoundDuration":107143,"Delta":18024630},{"NoteNumber":64,"Velocity":58,"Duration":107143,"SoundDuration":107143,"Delta":18024630},{"NoteNumber":56,"Velocity":49,"Duration":107143,"SoundDuration":107143,"Delta":18024630},{"NoteNumber":60,"Velocity":51,"Duration":106007,"SoundDuration":106007,"Delta":18131774},{"NoteNumber":65,"Velocity":61,"Duration":106007,"SoundDuration":106007,"Delta":18131774},{"NoteNumber":57,"Velocity":51,"Duration":106007,"SoundDuration":106007,"Delta":18131774},{"NoteNumber":61,"Velocity":55,"Duration":104895,"SoundDuration":104895,"Delta":18237782},{"NoteNumber":66,"Velocity":64,"Duration":104895,"SoundDuration":104895,"Delta":18237782},{"NoteNumber":58,"Velocity":55,"Duration":104895,"SoundDuration":104895,"Delta":18237782},{"NoteNumber":62,"Velocity":57,"Duration":103807,"SoundDuration":103807,"Delta":18342678},{"NoteNumber":67,"Velocity":64,"Duration":103807,"SoundDuration":103807,"Delta":18342678},{"NoteNumber":59,"Velocity":57,"Duration":103807,"SoundDuration":103807,"Delta":18342678},{"NoteNumber":63,"Velocity":60,"Duration":102740,"SoundDuration":102740,"Delta":18446485},{"NoteNumber":68,"Velocity":71,"Duration":102740,"SoundDuration":102740,"Delta":18446485},{"NoteNumber":60,"Velocity":60,"Duration":102740,"SoundDuration":102740,"Delta":18446485},{"NoteNumber":64,"Velocity":74,"Duration":101695,"SoundDuration":101695,"Delta":18549226},{"NoteNumber":69,"Velocity":74,"Duration":101695,"SoundDuration":101695,"Delta":18549226},{"NoteNumber":61,"Velocity":62,"Duration":101695,"SoundDuration":101695,"Delta":18549226},{"NoteNumber":65,"Velocity":64,"Duration":149999,"SoundDuration":149999,"Delta":18650921},{"NoteNumber":70,"Velocity":76,"Duration":149999,"SoundDuration":149999,"Delta":18650921},{"NoteNumber":62,"Velocity":71,"Duration":149999,"SoundDuration":149999,"Delta":18650921},{"NoteNumber":58,"Velocity":63,"Duration":154639,"SoundDuration":154639,"Delta":19250921},{"NoteNumber":53,"Velocity":63,"Duration":154639,"SoundDuration":154639,"Delta":19250921},{"NoteNumber":62,"Velocity":75,"Duration":154639,"SoundDuration":154639,"Delta":19250921},{"NoteNumber":65,"Velocity":75,"Duration":154639,"SoundDuration":154639,"Delta":19250921},{"NoteNumber":39,"Velocity":54,"Duration":154639,"SoundDuration":154639,"Delta":19250921},{"NoteNumber":51,"Velocity":64,"Duration":154639,"SoundDuration":154639,"Delta":19250921},{"NoteNumber":65,"Velocity":70,"Duration":666667,"SoundDuration":666667,"Delta":19869478},{"NoteNumber":70,"Velocity":70,"Duration":666667,"SoundDuration":666667,"Delta":19869478},{"NoteNumber":77,"Velocity":82,"Duration":666667,"SoundDuration":666667,"Delta":19869478},{"NoteNumber":58,"Velocity":58,"Duration":666667,"SoundDuration":666667,"Delta":19869478},{"NoteNumber":62,"Velocity":70,"Duration":666667,"SoundDuration":666667,"Delta":19869478},{"NoteNumber":56,"Velocity":58,"Duration":666667,"SoundDuration":666667,"Delta":19869478},{"NoteNumber":68,"Velocity":70,"Duration":666667,"SoundDuration":666667,"Delta":19869478},{"NoteNumber":61,"Velocity":65,"Duration":275229,"SoundDuration":275229,"Delta":20536145},{"NoteNumber":63,"Velocity":65,"Duration":275229,"SoundDuration":275229,"Delta":20536145},{"NoteNumber":67,"Velocity":65,"Duration":275229,"SoundDuration":275229,"Delta":20536145},{"NoteNumber":70,"Velocity":65,"Duration":275229,"SoundDuration":275229,"Delta":20536145},{"NoteNumber":75,"Velocity":77,"Duration":275229,"SoundDuration":275229,"Delta":20536145},{"NoteNumber":27,"Velocity":54,"Duration":275229,"SoundDuration":275229,"Delta":20536145},{"NoteNumber":39,"Velocity":65,"Duration":275229,"SoundDuration":275229,"Delta":20536145},{"NoteNumber":73,"Velocity":77,"Duration":135748,"SoundDuration":135748,"Delta":21086604},{"NoteNumber":77,"Velocity":77,"Duration":135748,"SoundDuration":135748,"Delta":21086604},{"NoteNumber":34,"Velocity":54,"Duration":135748,"SoundDuration":135748,"Delta":21086604},{"NoteNumber":46,"Velocity":64,"Duration":135748,"SoundDuration":135748,"Delta":21086604},{"NoteNumber":68,"Velocity":72,"Duration":133136,"SoundDuration":133136,"Delta":21222353},{"NoteNumber":67,"Velocity":72,"Duration":131772,"SoundDuration":131772,"Delta":21355489},{"NoteNumber":39,"Velocity":46,"Duration":65982,"SoundDuration":65982,"Delta":21355489},{"NoteNumber":51,"Velocity":55,"Duration":65982,"SoundDuration":65982,"Delta":21355489},{"NoteNumber":75,"Velocity":72,"Duration":130436,"SoundDuration":130436,"Delta":21487261},{"NoteNumber":41,"Velocity":49,"Duration":65407,"SoundDuration":65407,"Delta":21487261},{"NoteNumber":53,"Velocity":58,"Duration":65407,"SoundDuration":65407,"Delta":21487261},{"NoteNumber":73,"Velocity":77,"Duration":129125,"SoundDuration":129125,"Delta":21617698},{"NoteNumber":77,"Velocity":77,"Duration":129125,"SoundDuration":129125,"Delta":21617698},{"NoteNumber":43,"Velocity":51,"Duration":64655,"SoundDuration":64655,"Delta":21617698},{"NoteNumber":55,"Velocity":60,"Duration":64655,"SoundDuration":64655,"Delta":21617698},{"NoteNumber":68,"Velocity":70,"Duration":127661,"SoundDuration":127661,"Delta":21746823},{"NoteNumber":44,"Velocity":52,"Duration":64011,"SoundDuration":64011,"Delta":21746823},{"NoteNumber":56,"Velocity":62,"Duration":64011,"SoundDuration":64011,"Delta":21746823},{"NoteNumber":67,"Velocity":70,"Duration":126583,"SoundDuration":126583,"Delta":21874484},{"NoteNumber":46,"Velocity":55,"Duration":63469,"SoundDuration":63469,"Delta":21874484},{"NoteNumber":58,"Velocity":65,"Duration":63469,"SoundDuration":63469,"Delta":21874484},{"NoteNumber":75,"Velocity":70,"Duration":125174,"SoundDuration":125174,"Delta":22001068},{"NoteNumber":48,"Velocity":56,"Duration":62674,"SoundDuration":62674,"Delta":22001068},{"NoteNumber":60,"Velocity":67,"Duration":62674,"SoundDuration":62674,"Delta":22001068},{"NoteNumber":70,"Velocity":77,"Duration":126054,"SoundDuration":126054,"Delta":22126242},{"NoteNumber":77,"Velocity":77,"Duration":126054,"SoundDuration":126054,"Delta":22126242},{"NoteNumber":49,"Velocity":59,"Duration":62763,"SoundDuration":62763,"Delta":22126242},{"NoteNumber":61,"Velocity":70,"Duration":62763,"SoundDuration":62763,"Delta":22126242},{"NoteNumber":67,"Velocity":71,"Duration":127118,"SoundDuration":127118,"Delta":22252297},{"NoteNumber":63,"Velocity":71,"Duration":127659,"SoundDuration":127659,"Delta":22379416},{"NoteNumber":75,"Velocity":71,"Duration":128388,"SoundDuration":128388,"Delta":22507076},{"NoteNumber":72,"Velocity":77,"Duration":129871,"SoundDuration":129871,"Delta":22635464},{"NoteNumber":77,"Velocity":77,"Duration":129871,"SoundDuration":129871,"Delta":22635464},{"NoteNumber":39,"Velocity":54,"Duration":65123,"SoundDuration":65123,"Delta":22635464},{"NoteNumber":51,"Velocity":64,"Duration":65123,"SoundDuration":65123,"Delta":22635464},{"NoteNumber":67,"Velocity":72,"Duration":128756,"SoundDuration":128756,"Delta":22765336},{"NoteNumber":63,"Velocity":72,"Duration":127479,"SoundDuration":127479,"Delta":22894093},{"NoteNumber":75,"Velocity":72,"Duration":126051,"SoundDuration":126051,"Delta":23021572},{"NoteNumber":73,"Velocity":77,"Duration":125874,"SoundDuration":125874,"Delta":23147624},{"NoteNumber":77,"Velocity":77,"Duration":125874,"SoundDuration":125874,"Delta":23147624},{"NoteNumber":55,"Velocity":59,"Duration":510149,"SoundDuration":510149,"Delta":23147624},{"NoteNumber":67,"Velocity":70,"Duration":641154,"SoundDuration":641154,"Delta":23147624},{"NoteNumber":70,"Velocity":71,"Duration":126939,"SoundDuration":126939,"Delta":23273499},{"NoteNumber":63,"Velocity":71,"Duration":128023,"SoundDuration":128023,"Delta":23400439},{"NoteNumber":75,"Velocity":71,"Duration":129311,"SoundDuration":129311,"Delta":23528462},{"NoteNumber":73,"Velocity":73,"Duration":131004,"SoundDuration":131004,"Delta":23657774},{"NoteNumber":77,"Velocity":73,"Duration":131004,"SoundDuration":131004,"Delta":23657774},{"NoteNumber":70,"Velocity":67,"Duration":131004,"SoundDuration":131004,"Delta":23788778},{"NoteNumber":61,"Velocity":53,"Duration":131004,"SoundDuration":131004,"Delta":23788778},{"NoteNumber":63,"Velocity":68,"Duration":131004,"SoundDuration":131004,"Delta":23919782},{"NoteNumber":58,"Velocity":53,"Duration":131004,"SoundDuration":131004,"Delta":23919782},{"NoteNumber":75,"Velocity":68,"Duration":131004,"SoundDuration":131004,"Delta":24050787},{"NoteNumber":51,"Velocity":54,"Duration":131004,"SoundDuration":131004,"Delta":24050787},{"NoteNumber":73,"Velocity":75,"Duration":131004,"SoundDuration":131004,"Delta":24181791},{"NoteNumber":77,"Velocity":75,"Duration":131004,"SoundDuration":131004,"Delta":24181791},{"NoteNumber":67,"Velocity":63,"Duration":131004,"SoundDuration":131004,"Delta":24181791},{"NoteNumber":70,"Velocity":70,"Duration":131004,"SoundDuration":131004,"Delta":24312795},{"NoteNumber":61,"Velocity":58,"Duration":131004,"SoundDuration":131004,"Delta":24312795},{"NoteNumber":63,"Velocity":71,"Duration":130434,"SoundDuration":130434,"Delta":24443799},{"NoteNumber":58,"Velocity":58,"Duration":130434,"SoundDuration":130434,"Delta":24443799},{"NoteNumber":75,"Velocity":71,"Duration":130434,"SoundDuration":130434,"Delta":24574234},{"NoteNumber":51,"Velocity":58,"Duration":130434,"SoundDuration":130434,"Delta":24574234},{"NoteNumber":73,"Velocity":77,"Duration":130434,"SoundDuration":130434,"Delta":24704669},{"NoteNumber":77,"Velocity":77,"Duration":130434,"SoundDuration":130434,"Delta":24704669},{"NoteNumber":67,"Velocity":63,"Duration":130434,"SoundDuration":130434,"Delta":24704669},{"NoteNumber":70,"Velocity":72,"Duration":130434,"SoundDuration":130434,"Delta":24835104},{"NoteNumber":61,"Velocity":58,"Duration":130434,"SoundDuration":130434,"Delta":24835104},{"NoteNumber":63,"Velocity":73,"Duration":130434,"SoundDuration":130434,"Delta":24965538},{"NoteNumber":58,"Velocity":58,"Duration":130434,"SoundDuration":130434,"Delta":24965538},{"NoteNumber":75,"Velocity":73,"Duration":130246,"SoundDuration":130246,"Delta":25095973},{"NoteNumber":51,"Velocity":59,"Duration":130246,"SoundDuration":130246,"Delta":25095973},{"NoteNumber":73,"Velocity":80,"Duration":130058,"SoundDuration":130058,"Delta":25226220},{"NoteNumber":77,"Velocity":80,"Duration":130058,"SoundDuration":130058,"Delta":25226220},{"NoteNumber":67,"Velocity":68,"Duration":130058,"SoundDuration":130058,"Delta":25226220},{"NoteNumber":70,"Velocity":74,"Duration":130814,"SoundDuration":130814,"Delta":25356278},{"NoteNumber":61,"Velocity":60,"Duration":130814,"SoundDuration":130814,"Delta":25356278},{"NoteNumber":63,"Velocity":75,"Duration":131578,"SoundDuration":131578,"Delta":25487092},{"NoteNumber":58,"Velocity":61,"Duration":131578,"SoundDuration":131578,"Delta":25487092},{"NoteNumber":75,"Velocity":77,"Duration":132353,"SoundDuration":132353,"Delta":25618671},{"NoteNumber":51,"Velocity":62,"Duration":132353,"SoundDuration":132353,"Delta":25618671},{"NoteNumber":73,"Velocity":83,"Duration":133136,"SoundDuration":133136,"Delta":25751025},{"NoteNumber":77,"Velocity":83,"Duration":133136,"SoundDuration":133136,"Delta":25751025},{"NoteNumber":61,"Velocity":70,"Duration":133136,"SoundDuration":133136,"Delta":25751025},{"NoteNumber":70,"Velocity":78,"Duration":133730,"SoundDuration":133730,"Delta":25884161},{"NoteNumber":55,"Velocity":63,"Duration":133730,"SoundDuration":133730,"Delta":25884161},{"NoteNumber":63,"Velocity":79,"Duration":134731,"SoundDuration":134731,"Delta":26017892},{"NoteNumber":51,"Velocity":63,"Duration":134731,"SoundDuration":134731,"Delta":26017892},{"NoteNumber":75,"Velocity":79,"Duration":134882,"SoundDuration":134882,"Delta":26152623},{"NoteNumber":46,"Velocity":63,"Duration":134882,"SoundDuration":134882,"Delta":26152623},{"NoteNumber":73,"Velocity":85,"Duration":138877,"SoundDuration":138877,"Delta":26287506},{"NoteNumber":77,"Velocity":85,"Duration":138877,"SoundDuration":138877,"Delta":26287506},{"NoteNumber":55,"Velocity":72,"Duration":138877,"SoundDuration":138877,"Delta":26287506},{"NoteNumber":70,"Velocity":80,"Duration":148579,"SoundDuration":148579,"Delta":26426383},{"NoteNumber":49,"Velocity":66,"Duration":148579,"SoundDuration":148579,"Delta":26426383},{"NoteNumber":63,"Velocity":81,"Duration":159764,"SoundDuration":159764,"Delta":26574962},{"NoteNumber":46,"Velocity":65,"Duration":159764,"SoundDuration":159764,"Delta":26574962},{"NoteNumber":75,"Velocity":82,"Duration":172753,"SoundDuration":172753,"Delta":26734727},{"NoteNumber":39,"Velocity":66,"Duration":172753,"SoundDuration":172753,"Delta":26734727},{"NoteNumber":73,"Velocity":75,"Duration":581363,"SoundDuration":581363,"Delta":26907480},{"NoteNumber":77,"Velocity":89,"Duration":581363,"SoundDuration":581363,"Delta":26907480},{"NoteNumber":32,"Velocity":61,"Duration":220588,"SoundDuration":220588,"Delta":26907480},{"NoteNumber":44,"Velocity":72,"Duration":220588,"SoundDuration":220588,"Delta":26907480},{"NoteNumber":51,"Velocity":61,"Duration":300653,"SoundDuration":300653,"Delta":27348657},{"NoteNumber":63,"Velocity":72,"Duration":300653,"SoundDuration":300653,"Delta":27348657},{"NoteNumber":72,"Velocity":72,"Duration":143421,"SoundDuration":143421,"Delta":27488844},{"NoteNumber":75,"Velocity":85,"Duration":143421,"SoundDuration":143421,"Delta":27488844},{"NoteNumber":72,"Velocity":72,"Duration":683766,"SoundDuration":683766,"Delta":27649311},{"NoteNumber":75,"Velocity":85,"Duration":683766,"SoundDuration":683766,"Delta":27649311},{"NoteNumber":68,"Velocity":70,"Duration":340909,"SoundDuration":340909,"Delta":27649311},{"NoteNumber":60,"Velocity":70,"Duration":340909,"SoundDuration":340909,"Delta":27649311},{"NoteNumber":56,"Velocity":59,"Duration":340909,"SoundDuration":340909,"Delta":27649311},{"NoteNumber":39,"Velocity":66,"Duration":85714,"SoundDuration":85714,"Delta":27990220},{"NoteNumber":51,"Velocity":78,"Duration":85714,"SoundDuration":85714,"Delta":27990220},{"NoteNumber":44,"Velocity":67,"Duration":166666,"SoundDuration":166666,"Delta":28333077},{"NoteNumber":56,"Velocity":79,"Duration":166666,"SoundDuration":166666,"Delta":28333077},{"NoteNumber":68,"Velocity":68,"Duration":166666,"SoundDuration":166666,"Delta":28666410},{"NoteNumber":72,"Velocity":80,"Duration":166666,"SoundDuration":166666,"Delta":28666410},{"NoteNumber":27,"Velocity":56,"Duration":343137,"SoundDuration":343137,"Delta":28666410},{"NoteNumber":39,"Velocity":67,"Duration":343137,"SoundDuration":343137,"Delta":28666410},{"NoteNumber":70,"Velocity":67,"Duration":176470,"SoundDuration":176470,"Delta":28833077},{"NoteNumber":73,"Velocity":79,"Duration":176470,"SoundDuration":176470,"Delta":28833077},{"NoteNumber":73,"Velocity":72,"Duration":174836,"SoundDuration":174836,"Delta":29009547},{"NoteNumber":77,"Velocity":85,"Duration":174836,"SoundDuration":174836,"Delta":29009547},{"NoteNumber":32,"Velocity":61,"Duration":341503,"SoundDuration":341503,"Delta":29009547},{"NoteNumber":44,"Velocity":72,"Duration":341503,"SoundDuration":341503,"Delta":29009547},{"NoteNumber":72,"Velocity":68,"Duration":310207,"SoundDuration":310207,"Delta":29184384},{"NoteNumber":75,"Velocity":80,"Duration":83333,"SoundDuration":83333,"Delta":29184384},{"NoteNumber":77,"Velocity":74,"Duration":83333,"SoundDuration":83333,"Delta":29267717},{"NoteNumber":75,"Velocity":85,"Duration":143540,"SoundDuration":143540,"Delta":29351051},{"NoteNumber":63,"Velocity":67,"Duration":322112,"SoundDuration":322112,"Delta":29351051},{"NoteNumber":51,"Velocity":56,"Duration":322112,"SoundDuration":322112,"Delta":29351051},{"NoteNumber":71,"Velocity":68,"Duration":178571,"SoundDuration":178571,"Delta":29494591},{"NoteNumber":74,"Velocity":80,"Duration":178571,"SoundDuration":178571,"Delta":29494591},{"NoteNumber":72,"Velocity":68,"Duration":679891,"SoundDuration":679891,"Delta":29673163},{"NoteNumber":75,"Velocity":80,"Duration":679891,"SoundDuration":679891,"Delta":29673163},{"NoteNumber":68,"Velocity":69,"Duration":338982,"SoundDuration":338982,"Delta":29673163},{"NoteNumber":60,"Velocity":69,"Duration":338982,"SoundDuration":338982,"Delta":29673163},{"NoteNumber":56,"Velocity":58,"Duration":338982,"SoundDuration":338982,"Delta":29673163},{"NoteNumber":39,"Velocity":61,"Duration":85227,"SoundDuration":85227,"Delta":30012146},{"NoteNumber":51,"Velocity":73,"Duration":85227,"SoundDuration":85227,"Delta":30012146},{"NoteNumber":44,"Velocity":67,"Duration":161290,"SoundDuration":161290,"Delta":30353055},{"NoteNumber":56,"Velocity":79,"Duration":161290,"SoundDuration":161290,"Delta":30353055},{"NoteNumber":68,"Velocity":68,"Duration":166666,"SoundDuration":166666,"Delta":30675635},{"NoteNumber":72,"Velocity":80,"Duration":166666,"SoundDuration":166666,"Delta":30675635},{"NoteNumber":27,"Velocity":56,"Duration":336158,"SoundDuration":336158,"Delta":30675635},{"NoteNumber":39,"Velocity":67,"Duration":336158,"SoundDuration":336158,"Delta":30675635},{"NoteNumber":70,"Velocity":67,"Duration":169491,"SoundDuration":169491,"Delta":30842302},{"NoteNumber":73,"Velocity":79,"Duration":169491,"SoundDuration":169491,"Delta":30842302},{"NoteNumber":73,"Velocity":72,"Duration":166666,"SoundDuration":166666,"Delta":31011794},{"NoteNumber":77,"Velocity":85,"Duration":166666,"SoundDuration":166666,"Delta":31011794},{"NoteNumber":32,"Velocity":61,"Duration":333333,"SoundDuration":333333,"Delta":31011794},{"NoteNumber":44,"Velocity":72,"Duration":333333,"SoundDuration":333333,"Delta":31011794},{"NoteNumber":72,"Velocity":68,"Duration":309523,"SoundDuration":309523,"Delta":31178460},{"NoteNumber":75,"Velocity":80,"Duration":83333,"SoundDuration":83333,"Delta":31178460},{"NoteNumber":77,"Velocity":74,"Duration":83333,"SoundDuration":83333,"Delta":31261794},{"NoteNumber":75,"Velocity":85,"Duration":142857,"SoundDuration":142857,"Delta":31345127},{"NoteNumber":63,"Velocity":67,"Duration":313311,"SoundDuration":313311,"Delta":31345127},{"NoteNumber":51,"Velocity":56,"Duration":313311,"SoundDuration":313311,"Delta":31345127},{"NoteNumber":71,"Velocity":68,"Duration":170454,"SoundDuration":170454,"Delta":31487984},{"NoteNumber":74,"Velocity":80,"Duration":170454,"SoundDuration":170454,"Delta":31487984},{"NoteNumber":73,"Velocity":72,"Duration":166666,"SoundDuration":166666,"Delta":31658439},{"NoteNumber":77,"Velocity":85,"Duration":83333,"SoundDuration":83333,"Delta":31658439},{"NoteNumber":68,"Velocity":69,"Duration":333333,"SoundDuration":333333,"Delta":31658439},{"NoteNumber":60,"Velocity":69,"Duration":333333,"SoundDuration":333333,"Delta":31658439},{"NoteNumber":56,"Velocity":58,"Duration":333333,"SoundDuration":333333,"Delta":31658439},{"NoteNumber":72,"Velocity":68,"Duration":318181,"SoundDuration":318181,"Delta":31825106},{"NoteNumber":75,"Velocity":80,"Duration":166666,"SoundDuration":166666,"Delta":31825106},{"NoteNumber":77,"Velocity":74,"Duration":83333,"SoundDuration":83333,"Delta":31908439},{"NoteNumber":75,"Velocity":85,"Duration":151515,"SoundDuration":151515,"Delta":31991772},{"NoteNumber":39,"Velocity":56,"Duration":151515,"SoundDuration":151515,"Delta":31991772},{"NoteNumber":51,"Velocity":67,"Duration":151515,"SoundDuration":151515,"Delta":31991772},{"NoteNumber":71,"Velocity":68,"Duration":172413,"SoundDuration":172413,"Delta":32143288},{"NoteNumber":74,"Velocity":80,"Duration":172413,"SoundDuration":172413,"Delta":32143288},{"NoteNumber":72,"Velocity":68,"Duration":268018,"SoundDuration":268018,"Delta":32315701},{"NoteNumber":75,"Velocity":80,"Duration":268018,"SoundDuration":268018,"Delta":32315701},{"NoteNumber":44,"Velocity":59,"Duration":166666,"SoundDuration":166666,"Delta":32315701},{"NoteNumber":56,"Velocity":70,"Duration":166666,"SoundDuration":166666,"Delta":32315701},{"NoteNumber":63,"Velocity":66,"Duration":467422,"SoundDuration":467422,"Delta":32583720},{"NoteNumber":39,"Velocity":57,"Duration":333494,"SoundDuration":333494,"Delta":32583720},{"NoteNumber":70,"Velocity":66,"Duration":416747,"SoundDuration":416747,"Delta":32634395},{"NoteNumber":46,"Velocity":57,"Duration":282818,"SoundDuration":282818,"Delta":32634395},{"NoteNumber":78,"Velocity":78,"Duration":366071,"SoundDuration":366071,"Delta":32685071},{"NoteNumber":54,"Velocity":68,"Duration":232142,"SoundDuration":232142,"Delta":32685071},{"NoteNumber":41,"Velocity":57,"Duration":357143,"SoundDuration":357143,"Delta":32917214},{"NoteNumber":48,"Velocity":57,"Duration":446428,"SoundDuration":446428,"Delta":32961857},{"NoteNumber":51,"Velocity":68,"Duration":267857,"SoundDuration":267857,"Delta":33006500},{"NoteNumber":63,"Velocity":64,"Duration":357143,"SoundDuration":357143,"Delta":33051142},{"NoteNumber":69,"Velocity":64,"Duration":357143,"SoundDuration":357143,"Delta":33051142},{"NoteNumber":77,"Velocity":76,"Duration":357143,"SoundDuration":357143,"Delta":33051142},{"NoteNumber":57,"Velocity":68,"Duration":223214,"SoundDuration":223214,"Delta":33051142},{"NoteNumber":48,"Velocity":56,"Duration":357143,"SoundDuration":357143,"Delta":33274357},{"NoteNumber":53,"Velocity":56,"Duration":312500,"SoundDuration":312500,"Delta":33319000},{"NoteNumber":57,"Velocity":67,"Duration":267857,"SoundDuration":267857,"Delta":33363643},{"NoteNumber":65,"Velocity":64,"Duration":357143,"SoundDuration":357143,"Delta":33408285},{"NoteNumber":69,"Velocity":64,"Duration":357143,"SoundDuration":357143,"Delta":33408285},{"NoteNumber":72,"Velocity":76,"Duration":357143,"SoundDuration":357143,"Delta":33408285},{"NoteNumber":63,"Velocity":67,"Duration":223214,"SoundDuration":223214,"Delta":33408285},{"NoteNumber":46,"Velocity":58,"Duration":491071,"SoundDuration":491071,"Delta":33631500},{"NoteNumber":53,"Velocity":58,"Duration":446428,"SoundDuration":446428,"Delta":33676143},{"NoteNumber":58,"Velocity":69,"Duration":401785,"SoundDuration":401785,"Delta":33720786},{"NoteNumber":65,"Velocity":64,"Duration":357143,"SoundDuration":357143,"Delta":33765428},{"NoteNumber":70,"Velocity":64,"Duration":357143,"SoundDuration":357143,"Delta":33765428},{"NoteNumber":73,"Velocity":76,"Duration":357143,"SoundDuration":357143,"Delta":33765428},{"NoteNumber":61,"Velocity":69,"Duration":357143,"SoundDuration":357143,"Delta":33765428},{"NoteNumber":66,"Velocity":73,"Duration":121212,"SoundDuration":121212,"Delta":34122571},{"NoteNumber":30,"Velocity":55,"Duration":363636,"SoundDuration":363636,"Delta":34122571},{"NoteNumber":42,"Velocity":65,"Duration":363636,"SoundDuration":363636,"Delta":34122571},{"NoteNumber":54,"Velocity":73,"Duration":121212,"SoundDuration":121212,"Delta":34243784},{"NoteNumber":66,"Velocity":73,"Duration":121212,"SoundDuration":121212,"Delta":34364996},{"NoteNumber":53,"Velocity":65,"Duration":352941,"SoundDuration":352941,"Delta":34486208},{"NoteNumber":65,"Velocity":77,"Duration":352941,"SoundDuration":352941,"Delta":34486208},{"NoteNumber":29,"Velocity":55,"Duration":352941,"SoundDuration":352941,"Delta":34486208},{"NoteNumber":41,"Velocity":65,"Duration":352941,"SoundDuration":352941,"Delta":34486208},{"NoteNumber":61,"Velocity":72,"Duration":290322,"SoundDuration":290322,"Delta":34839149},{"NoteNumber":37,"Velocity":53,"Duration":387096,"SoundDuration":387096,"Delta":34839149},{"NoteNumber":49,"Velocity":63,"Duration":387096,"SoundDuration":387096,"Delta":34839149},{"NoteNumber":66,"Velocity":78,"Duration":96774,"SoundDuration":96774,"Delta":35129472},{"NoteNumber":75,"Velocity":75,"Duration":549636,"SoundDuration":549636,"Delta":35226246},{"NoteNumber":78,"Velocity":89,"Duration":549636,"SoundDuration":549636,"Delta":35226246},{"NoteNumber":34,"Velocity":61,"Duration":202702,"SoundDuration":202702,"Delta":35226246},{"NoteNumber":46,"Velocity":72,"Duration":202702,"SoundDuration":202702,"Delta":35226246},{"NoteNumber":53,"Velocity":61,"Duration":304693,"SoundDuration":304693,"Delta":35631651},{"NoteNumber":65,"Velocity":72,"Duration":304693,"SoundDuration":304693,"Delta":35631651},{"NoteNumber":73,"Velocity":72,"Duration":144416,"SoundDuration":144416,"Delta":35775882},{"NoteNumber":77,"Velocity":85,"Duration":144416,"SoundDuration":144416,"Delta":35775882},{"NoteNumber":73,"Velocity":72,"Duration":683899,"SoundDuration":683899,"Delta":35936344},{"NoteNumber":77,"Velocity":85,"Duration":683899,"SoundDuration":683899,"Delta":35936344},{"NoteNumber":70,"Velocity":70,"Duration":337078,"SoundDuration":337078,"Delta":35936344},{"NoteNumber":61,"Velocity":70,"Duration":337078,"SoundDuration":337078,"Delta":35936344},{"NoteNumber":58,"Velocity":59,"Duration":337078,"SoundDuration":337078,"Delta":35936344},{"NoteNumber":41,"Velocity":66,"Duration":86705,"SoundDuration":86705,"Delta":36273423},{"NoteNumber":53,"Velocity":78,"Duration":86705,"SoundDuration":86705,"Delta":36273423},{"NoteNumber":46,"Velocity":67,"Duration":166666,"SoundDuration":166666,"Delta":36620244},{"NoteNumber":58,"Velocity":79,"Duration":166666,"SoundDuration":166666,"Delta":36620244},{"NoteNumber":70,"Velocity":68,"Duration":166666,"SoundDuration":166666,"Delta":36953577},{"NoteNumber":73,"Velocity":80,"Duration":166666,"SoundDuration":166666,"Delta":36953577},{"NoteNumber":29,"Velocity":56,"Duration":343137,"SoundDuration":343137,"Delta":36953577},{"NoteNumber":41,"Velocity":67,"Duration":343137,"SoundDuration":343137,"Delta":36953577},{"NoteNumber":72,"Velocity":67,"Duration":176470,"SoundDuration":176470,"Delta":37120244},{"NoteNumber":75,"Velocity":79,"Duration":176470,"SoundDuration":176470,"Delta":37120244},{"NoteNumber":75,"Velocity":72,"Duration":174836,"SoundDuration":174836,"Delta":37296715},{"NoteNumber":78,"Velocity":85,"Duration":174836,"SoundDuration":174836,"Delta":37296715},{"NoteNumber":34,"Velocity":61,"Duration":341503,"SoundDuration":341503,"Delta":37296715},{"NoteNumber":46,"Velocity":72,"Duration":341503,"SoundDuration":341503,"Delta":37296715},{"NoteNumber":73,"Velocity":68,"Duration":310207,"SoundDuration":310207,"Delta":37471551},{"NoteNumber":77,"Velocity":80,"Duration":83333,"SoundDuration":83333,"Delta":37471551},{"NoteNumber":78,"Velocity":74,"Duration":83333,"SoundDuration":83333,"Delta":37554885},{"NoteNumber":77,"Velocity":85,"Duration":143540,"SoundDuration":143540,"Delta":37638218},{"NoteNumber":65,"Velocity":67,"Duration":322112,"SoundDuration":322112,"Delta":37638218},{"NoteNumber":53,"Velocity":56,"Duration":322112,"SoundDuration":322112,"Delta":37638218},{"NoteNumber":72,"Velocity":68,"Duration":178571,"SoundDuration":178571,"Delta":37781759},{"NoteNumber":76,"Velocity":80,"Duration":178571,"SoundDuration":178571,"Delta":37781759},{"NoteNumber":73,"Velocity":68,"Duration":681818,"SoundDuration":681818,"Delta":37960330},{"NoteNumber":77,"Velocity":80,"Duration":681818,"SoundDuration":681818,"Delta":37960330},{"NoteNumber":70,"Velocity":69,"Duration":340909,"SoundDuration":340909,"Delta":37960330},{"NoteNumber":61,"Velocity":69,"Duration":340909,"SoundDuration":340909,"Delta":37960330},{"NoteNumber":58,"Velocity":58,"Duration":340909,"SoundDuration":340909,"Delta":37960330},{"NoteNumber":41,"Velocity":61,"Duration":85227,"SoundDuration":85227,"Delta":38301239},{"NoteNumber":53,"Velocity":73,"Duration":85227,"SoundDuration":85227,"Delta":38301239},{"NoteNumber":46,"Velocity":67,"Duration":161290,"SoundDuration":161290,"Delta":38642148},{"NoteNumber":58,"Velocity":79,"Duration":161290,"SoundDuration":161290,"Delta":38642148},{"NoteNumber":67,"Velocity":68,"Duration":175438,"SoundDuration":175438,"Delta":38964729},{"NoteNumber":73,"Velocity":68,"Duration":175438,"SoundDuration":175438,"Delta":38964729},{"NoteNumber":79,"Velocity":80,"Duration":175438,"SoundDuration":175438,"Delta":38964729},{"NoteNumber":34,"Velocity":56,"Duration":359619,"SoundDuration":359619,"Delta":38964729},{"NoteNumber":46,"Velocity":67,"Duration":359619,"SoundDuration":359619,"Delta":38964729},{"NoteNumber":68,"Velocity":67,"Duration":184181,"SoundDuration":184181,"Delta":39140167},{"NoteNumber":80,"Velocity":79,"Duration":184181,"SoundDuration":184181,"Delta":39140167},{"NoteNumber":72,"Velocity":71,"Duration":173410,"SoundDuration":173410,"Delta":39324349},{"NoteNumber":84,"Velocity":84,"Duration":173410,"SoundDuration":173410,"Delta":39324349},{"NoteNumber":27,"Velocity":61,"Duration":173410,"SoundDuration":173410,"Delta":39324349},{"NoteNumber":39,"Velocity":72,"Duration":173410,"SoundDuration":173410,"Delta":39324349},{"NoteNumber":79,"Velocity":73,"Duration":173410,"SoundDuration":173410,"Delta":39497759},{"NoteNumber":75,"Velocity":62,"Duration":173410,"SoundDuration":173410,"Delta":39497759},{"NoteNumber":72,"Velocity":66,"Duration":142857,"SoundDuration":142857,"Delta":39671170},{"NoteNumber":84,"Velocity":78,"Duration":142857,"SoundDuration":142857,"Delta":39671170},{"NoteNumber":61,"Velocity":55,"Duration":142857,"SoundDuration":142857,"Delta":39671170},{"NoteNumber":67,"Velocity":66,"Duration":142857,"SoundDuration":142857,"Delta":39671170},{"NoteNumber":63,"Velocity":55,"Duration":142857,"SoundDuration":142857,"Delta":39671170},{"NoteNumber":70,"Velocity":65,"Duration":76704,"SoundDuration":76704,"Delta":39899254},{"NoteNumber":82,"Velocity":77,"Duration":76704,"SoundDuration":76704,"Delta":39899254},{"NoteNumber":70,"Velocity":68,"Duration":166666,"SoundDuration":166666,"Delta":39984481},{"NoteNumber":82,"Velocity":81,"Duration":166666,"SoundDuration":166666,"Delta":39984481},{"NoteNumber":39,"Velocity":59,"Duration":166666,"SoundDuration":166666,"Delta":39984481},{"NoteNumber":51,"Velocity":69,"Duration":166666,"SoundDuration":166666,"Delta":39984481},{"NoteNumber":75,"Velocity":70,"Duration":166666,"SoundDuration":166666,"Delta":40151148},{"NoteNumber":72,"Velocity":59,"Duration":166666,"SoundDuration":166666,"Delta":40151148},{"NoteNumber":70,"Velocity":63,"Duration":142857,"SoundDuration":142857,"Delta":40317815},{"NoteNumber":82,"Velocity":75,"Duration":142857,"SoundDuration":142857,"Delta":40317815},{"NoteNumber":60,"Velocity":53,"Duration":142857,"SoundDuration":142857,"Delta":40317815},{"NoteNumber":63,"Velocity":63,"Duration":142857,"SoundDuration":142857,"Delta":40317815},{"NoteNumber":68,"Velocity":57,"Duration":76704,"SoundDuration":76704,"Delta":40545899},{"NoteNumber":80,"Velocity":67,"Duration":76704,"SoundDuration":76704,"Delta":40545899},{"NoteNumber":68,"Velocity":66,"Duration":166666,"SoundDuration":166666,"Delta":40631127},{"NoteNumber":80,"Velocity":78,"Duration":166666,"SoundDuration":166666,"Delta":40631127},{"NoteNumber":39,"Velocity":57,"Duration":166666,"SoundDuration":166666,"Delta":40631127},{"NoteNumber":51,"Velocity":67,"Duration":166666,"SoundDuration":166666,"Delta":40631127},{"NoteNumber":75,"Velocity":66,"Duration":166666,"SoundDuration":166666,"Delta":40797793},{"NoteNumber":70,"Velocity":56,"Duration":166666,"SoundDuration":166666,"Delta":40797793},{"NoteNumber":68,"Velocity":62,"Duration":142857,"SoundDuration":142857,"Delta":40964460},{"NoteNumber":80,"Velocity":73,"Duration":142857,"SoundDuration":142857,"Delta":40964460},{"NoteNumber":58,"Velocity":51,"Duration":142857,"SoundDuration":142857,"Delta":40964460},{"NoteNumber":63,"Velocity":61,"Duration":142857,"SoundDuration":142857,"Delta":40964460},{"NoteNumber":67,"Velocity":56,"Duration":76704,"SoundDuration":76704,"Delta":41192545},{"NoteNumber":79,"Velocity":66,"Duration":76704,"SoundDuration":76704,"Delta":41192545},{"NoteNumber":67,"Velocity":63,"Duration":166666,"SoundDuration":166666,"Delta":41277772},{"NoteNumber":79,"Velocity":75,"Duration":166666,"SoundDuration":166666,"Delta":41277772},{"NoteNumber":34,"Velocity":54,"Duration":166666,"SoundDuration":166666,"Delta":41277772},{"NoteNumber":46,"Velocity":64,"Duration":166666,"SoundDuration":166666,"Delta":41277772},{"NoteNumber":74,"Velocity":65,"Duration":166666,"SoundDuration":166666,"Delta":41444439},{"NoteNumber":70,"Velocity":55,"Duration":166666,"SoundDuration":166666,"Delta":41444439},{"NoteNumber":67,"Velocity":60,"Duration":142857,"SoundDuration":142857,"Delta":41611105},{"NoteNumber":79,"Velocity":71,"Duration":142857,"SoundDuration":142857,"Delta":41611105},{"NoteNumber":56,"Velocity":50,"Duration":142857,"SoundDuration":142857,"Delta":41611105},{"NoteNumber":62,"Velocity":60,"Duration":142857,"SoundDuration":142857,"Delta":41611105},{"NoteNumber":58,"Velocity":50,"Duration":142857,"SoundDuration":142857,"Delta":41611105},{"NoteNumber":65,"Velocity":57,"Duration":76704,"SoundDuration":76704,"Delta":41839190},{"NoteNumber":77,"Velocity":68,"Duration":76704,"SoundDuration":76704,"Delta":41839190},{"NoteNumber":65,"Velocity":61,"Duration":166666,"SoundDuration":166666,"Delta":41924417},{"NoteNumber":77,"Velocity":73,"Duration":166666,"SoundDuration":166666,"Delta":41924417},{"NoteNumber":39,"Velocity":56,"Duration":166666,"SoundDuration":166666,"Delta":41924417},{"NoteNumber":51,"Velocity":66,"Duration":166666,"SoundDuration":166666,"Delta":41924417},{"NoteNumber":70,"Velocity":63,"Duration":166666,"SoundDuration":166666,"Delta":42091084},{"NoteNumber":67,"Velocity":54,"Duration":166666,"SoundDuration":166666,"Delta":42091084},{"NoteNumber":65,"Velocity":58,"Duration":142857,"SoundDuration":142857,"Delta":42257751},{"NoteNumber":77,"Velocity":69,"Duration":142857,"SoundDuration":142857,"Delta":42257751},{"NoteNumber":55,"Velocity":52,"Duration":142857,"SoundDuration":142857,"Delta":42257751},{"NoteNumber":58,"Velocity":62,"Duration":142857,"SoundDuration":142857,"Delta":42257751},{"NoteNumber":63,"Velocity":54,"Duration":85227,"SoundDuration":85227,"Delta":42485835},{"NoteNumber":75,"Velocity":63,"Duration":85227,"SoundDuration":85227,"Delta":42485835},{"NoteNumber":61,"Velocity":63,"Duration":166666,"SoundDuration":166666,"Delta":42571062},{"NoteNumber":73,"Velocity":75,"Duration":166666,"SoundDuration":166666,"Delta":42571062},{"NoteNumber":41,"Velocity":57,"Duration":333333,"SoundDuration":333333,"Delta":42571062},{"NoteNumber":53,"Velocity":68,"Duration":646645,"SoundDuration":646645,"Delta":42571062},{"NoteNumber":68,"Velocity":63,"Duration":166666,"SoundDuration":166666,"Delta":42737729},{"NoteNumber":65,"Velocity":54,"Duration":166666,"SoundDuration":166666,"Delta":42737729},{"NoteNumber":61,"Velocity":59,"Duration":142857,"SoundDuration":142857,"Delta":42904396},{"NoteNumber":73,"Velocity":70,"Duration":142857,"SoundDuration":142857,"Delta":42904396},{"NoteNumber":56,"Velocity":62,"Duration":313311,"SoundDuration":313311,"Delta":42904396},{"NoteNumber":60,"Velocity":53,"Duration":85227,"SoundDuration":85227,"Delta":43132480},{"NoteNumber":72,"Velocity":62,"Duration":85227,"SoundDuration":85227,"Delta":43132480},{"NoteNumber":65,"Velocity":63,"Duration":669079,"SoundDuration":669079,"Delta":43217708},{"NoteNumber":37,"Velocity":51,"Duration":340909,"SoundDuration":340909,"Delta":43217708},{"NoteNumber":49,"Velocity":61,"Duration":340909,"SoundDuration":340909,"Delta":43217708},{"NoteNumber":53,"Velocity":45,"Duration":328170,"SoundDuration":328170,"Delta":43558617},{"NoteNumber":58,"Velocity":53,"Duration":328170,"SoundDuration":328170,"Delta":43558617},{"NoteNumber":67,"Velocity":54,"Duration":81673,"SoundDuration":81673,"Delta":43886787},{"NoteNumber":36,"Velocity":45,"Duration":315197,"SoundDuration":315197,"Delta":43886787},{"NoteNumber":48,"Velocity":54,"Duration":315197,"SoundDuration":315197,"Delta":43886787},{"NoteNumber":68,"Velocity":55,"Duration":79649,"SoundDuration":79649,"Delta":43968461},{"NoteNumber":67,"Velocity":55,"Duration":77857,"SoundDuration":77857,"Delta":44048110},{"NoteNumber":68,"Velocity":56,"Duration":76016,"SoundDuration":76016,"Delta":44125968},{"NoteNumber":65,"Velocity":56,"Duration":163043,"SoundDuration":163043,"Delta":44201985},{"NoteNumber":52,"Velocity":40,"Duration":325940,"SoundDuration":325940,"Delta":44201985},{"NoteNumber":60,"Velocity":48,"Duration":325940,"SoundDuration":325940,"Delta":44201985},{"NoteNumber":58,"Velocity":40,"Duration":325940,"SoundDuration":325940,"Delta":44201985},{"NoteNumber":67,"Velocity":57,"Duration":162896,"SoundDuration":162896,"Delta":44365028},{"NoteNumber":68,"Velocity":58,"Duration":80215,"SoundDuration":80215,"Delta":44527925},{"NoteNumber":29,"Velocity":49,"Duration":312365,"SoundDuration":312365,"Delta":44527925},{"NoteNumber":41,"Velocity":58,"Duration":312365,"SoundDuration":312365,"Delta":44527925},{"NoteNumber":70,"Velocity":59,"Duration":78812,"SoundDuration":78812,"Delta":44608140},{"NoteNumber":68,"Velocity":59,"Duration":77320,"SoundDuration":77320,"Delta":44686953},{"NoteNumber":70,"Velocity":60,"Duration":76016,"SoundDuration":76016,"Delta":44764274},{"NoteNumber":67,"Velocity":60,"Duration":163043,"SoundDuration":163043,"Delta":44840290},{"NoteNumber":53,"Velocity":46,"Duration":326087,"SoundDuration":326087,"Delta":44840290},{"NoteNumber":56,"Velocity":46,"Duration":326087,"SoundDuration":326087,"Delta":44840290},{"NoteNumber":60,"Velocity":55,"Duration":326087,"SoundDuration":326087,"Delta":44840290},{"NoteNumber":68,"Velocity":61,"Duration":163043,"SoundDuration":163043,"Delta":45003334},{"NoteNumber":61,"Velocity":42,"Duration":330714,"SoundDuration":330714,"Delta":45166377},{"NoteNumber":67,"Velocity":42,"Duration":330714,"SoundDuration":330714,"Delta":45166377},{"NoteNumber":69,"Velocity":60,"Duration":163079,"SoundDuration":163079,"Delta":45166377},{"NoteNumber":39,"Velocity":47,"Duration":163079,"SoundDuration":163079,"Delta":45166377},{"NoteNumber":51,"Velocity":56,"Duration":163079,"SoundDuration":163079,"Delta":45166377},{"NoteNumber":70,"Velocity":56,"Duration":167635,"SoundDuration":167635,"Delta":45329456},{"NoteNumber":61,"Velocity":39,"Duration":333738,"SoundDuration":333738,"Delta":45497092},{"NoteNumber":67,"Velocity":39,"Duration":333738,"SoundDuration":333738,"Delta":45497092},{"NoteNumber":72,"Velocity":56,"Duration":161324,"SoundDuration":161324,"Delta":45497092},{"NoteNumber":51,"Velocity":44,"Duration":333738,"SoundDuration":333738,"Delta":45497092},{"NoteNumber":58,"Velocity":52,"Duration":333738,"SoundDuration":333738,"Delta":45497092},{"NoteNumber":73,"Velocity":56,"Duration":172413,"SoundDuration":172413,"Delta":45658417},{"NoteNumber":60,"Velocity":50,"Duration":326087,"SoundDuration":326087,"Delta":45830830},{"NoteNumber":68,"Velocity":50,"Duration":326087,"SoundDuration":326087,"Delta":45830830},{"NoteNumber":72,"Velocity":60,"Duration":326087,"SoundDuration":326087,"Delta":45830830},{"NoteNumber":44,"Velocity":44,"Duration":326087,"SoundDuration":326087,"Delta":45830830},{"NoteNumber":51,"Velocity":44,"Duration":326087,"SoundDuration":326087,"Delta":45830830},{"NoteNumber":56,"Velocity":52,"Duration":326087,"SoundDuration":326087,"Delta":45830830},{"NoteNumber":59,"Velocity":57,"Duration":244565,"SoundDuration":244565,"Delta":46156917},{"NoteNumber":62,"Velocity":57,"Duration":244565,"SoundDuration":244565,"Delta":46156917},{"NoteNumber":65,"Velocity":57,"Duration":244565,"SoundDuration":244565,"Delta":46156917},{"NoteNumber":68,"Velocity":57,"Duration":244565,"SoundDuration":244565,"Delta":46156917},{"NoteNumber":77,"Velocity":68,"Duration":244565,"SoundDuration":244565,"Delta":46156917},{"NoteNumber":60,"Velocity":52,"Duration":73369,"SoundDuration":73369,"Delta":46401483},{"NoteNumber":63,"Velocity":52,"Duration":73369,"SoundDuration":73369,"Delta":46401483},{"NoteNumber":68,"Velocity":52,"Duration":73369,"SoundDuration":73369,"Delta":46401483},{"NoteNumber":75,"Velocity":62,"Duration":73369,"SoundDuration":73369,"Delta":46401483},{"NoteNumber":60,"Velocity":58,"Duration":163043,"SoundDuration":163043,"Delta":46483004},{"NoteNumber":63,"Velocity":58,"Duration":163043,"SoundDuration":163043,"Delta":46483004},{"NoteNumber":68,"Velocity":58,"Duration":163043,"SoundDuration":163043,"Delta":46483004},{"NoteNumber":75,"Velocity":69,"Duration":163043,"SoundDuration":163043,"Delta":46483004},{"NoteNumber":68,"Velocity":64,"Duration":331582,"SoundDuration":331582,"Delta":46646048},{"NoteNumber":80,"Velocity":76,"Duration":168539,"SoundDuration":168539,"Delta":46809091},{"NoteNumber":44,"Velocity":56,"Duration":337078,"SoundDuration":337078,"Delta":46809091},{"NoteNumber":56,"Velocity":66,"Duration":337078,"SoundDuration":337078,"Delta":46809091},{"NoteNumber":67,"Velocity":59,"Duration":84269,"SoundDuration":84269,"Delta":47061900},{"NoteNumber":79,"Velocity":70,"Duration":84269,"SoundDuration":84269,"Delta":47061900},{"NoteNumber":65,"Velocity":59,"Duration":679047,"SoundDuration":679047,"Delta":47146170},{"NoteNumber":77,"Velocity":70,"Duration":679047,"SoundDuration":679047,"Delta":47146170},{"NoteNumber":37,"Velocity":57,"Duration":350876,"SoundDuration":350876,"Delta":47146170},{"NoteNumber":49,"Velocity":68,"Duration":350876,"SoundDuration":350876,"Delta":47146170},{"NoteNumber":53,"Velocity":50,"Duration":328170,"SoundDuration":328170,"Delta":47497047},{"NoteNumber":58,"Velocity":59,"Duration":328170,"SoundDuration":328170,"Delta":47497047},{"NoteNumber":67,"Velocity":64,"Duration":161322,"SoundDuration":161322,"Delta":47825218},{"NoteNumber":36,"Velocity":58,"Duration":315197,"SoundDuration":315197,"Delta":47825218},{"NoteNumber":48,"Velocity":69,"Duration":315197,"SoundDuration":315197,"Delta":47825218},{"NoteNumber":79,"Velocity":65,"Duration":52084,"SoundDuration":52084,"Delta":47986541},{"NoteNumber":80,"Velocity":66,"Duration":51283,"SoundDuration":51283,"Delta":48038626},{"NoteNumber":79,"Velocity":65,"Duration":50506,"SoundDuration":50506,"Delta":48089909},{"NoteNumber":65,"Velocity":56,"Duration":163043,"SoundDuration":163043,"Delta":48140415},{"NoteNumber":77,"Velocity":66,"Duration":163043,"SoundDuration":163043,"Delta":48140415},{"NoteNumber":58,"Velocity":52,"Duration":325940,"SoundDuration":325940,"Delta":48140415},{"NoteNumber":64,"Velocity":62,"Duration":325940,"SoundDuration":325940,"Delta":48140415},{"NoteNumber":60,"Velocity":52,"Duration":325940,"SoundDuration":325940,"Delta":48140415},{"NoteNumber":67,"Velocity":56,"Duration":162896,"SoundDuration":162896,"Delta":48303459},{"NoteNumber":79,"Velocity":67,"Duration":162896,"SoundDuration":162896,"Delta":48303459},{"NoteNumber":68,"Velocity":64,"Duration":159027,"SoundDuration":159027,"Delta":48466355},{"NoteNumber":29,"Velocity":60,"Duration":312365,"SoundDuration":312365,"Delta":48466355},{"NoteNumber":41,"Velocity":71,"Duration":312365,"SoundDuration":312365,"Delta":48466355},{"NoteNumber":80,"Velocity":65,"Duration":51679,"SoundDuration":51679,"Delta":48625383},{"NoteNumber":82,"Velocity":65,"Duration":51151,"SoundDuration":51151,"Delta":48677063},{"NoteNumber":80,"Velocity":65,"Duration":50506,"SoundDuration":50506,"Delta":48728215},{"NoteNumber":67,"Velocity":60,"Duration":163043,"SoundDuration":163043,"Delta":48778721},{"NoteNumber":79,"Velocity":71,"Duration":163043,"SoundDuration":163043,"Delta":48778721},{"NoteNumber":56,"Velocity":67,"Duration":326087,"SoundDuration":326087,"Delta":48778721},{"NoteNumber":60,"Velocity":67,"Duration":326087,"SoundDuration":326087,"Delta":48778721},{"NoteNumber":65,"Velocity":67,"Duration":326087,"SoundDuration":326087,"Delta":48778721},{"NoteNumber":68,"Velocity":61,"Duration":163043,"SoundDuration":163043,"Delta":48941764},{"NoteNumber":80,"Velocity":72,"Duration":163043,"SoundDuration":163043,"Delta":48941764},{"NoteNumber":69,"Velocity":57,"Duration":163079,"SoundDuration":163079,"Delta":49104808},{"NoteNumber":75,"Velocity":63,"Duration":163079,"SoundDuration":163079,"Delta":49104808},{"NoteNumber":81,"Velocity":75,"Duration":163079,"SoundDuration":163079,"Delta":49104808},{"NoteNumber":39,"Velocity":59,"Duration":163079,"SoundDuration":163079,"Delta":49104808},{"NoteNumber":51,"Velocity":70,"Duration":163079,"SoundDuration":163079,"Delta":49104808},{"NoteNumber":70,"Velocity":63,"Duration":166703,"SoundDuration":166703,"Delta":49267887},{"NoteNumber":82,"Velocity":70,"Duration":166703,"SoundDuration":166703,"Delta":49267887},{"NoteNumber":72,"Velocity":59,"Duration":162197,"SoundDuration":162197,"Delta":49434591},{"NoteNumber":79,"Velocity":59,"Duration":162197,"SoundDuration":162197,"Delta":49434591},{"NoteNumber":84,"Velocity":70,"Duration":162197,"SoundDuration":162197,"Delta":49434591},{"NoteNumber":58,"Velocity":55,"Duration":331727,"SoundDuration":331727,"Delta":49434591},{"NoteNumber":61,"Velocity":55,"Duration":331727,"SoundDuration":331727,"Delta":49434591},{"NoteNumber":63,"Velocity":55,"Duration":331727,"SoundDuration":331727,"Delta":49434591},{"NoteNumber":67,"Velocity":65,"Duration":331727,"SoundDuration":331727,"Delta":49434591},{"NoteNumber":73,"Velocity":59,"Duration":169529,"SoundDuration":169529,"Delta":49596788},{"NoteNumber":85,"Velocity":70,"Duration":169529,"SoundDuration":169529,"Delta":49596788},{"NoteNumber":72,"Velocity":63,"Duration":170454,"SoundDuration":170454,"Delta":49766318},{"NoteNumber":80,"Velocity":63,"Duration":170454,"SoundDuration":170454,"Delta":49766318},{"NoteNumber":84,"Velocity":75,"Duration":170454,"SoundDuration":170454,"Delta":49766318},{"NoteNumber":56,"Velocity":55,"Duration":170454,"SoundDuration":170454,"Delta":49766318},{"NoteNumber":63,"Velocity":55,"Duration":170454,"SoundDuration":170454,"Delta":49766318},{"NoteNumber":68,"Velocity":65,"Duration":170454,"SoundDuration":170454,"Delta":49766318},{"NoteNumber":77,"Velocity":64,"Duration":261171,"SoundDuration":261171,"Delta":50107227},{"NoteNumber":80,"Velocity":64,"Duration":261171,"SoundDuration":261171,"Delta":50107227},{"NoteNumber":89,"Velocity":76,"Duration":261171,"SoundDuration":261171,"Delta":50107227},{"NoteNumber":68,"Velocity":64,"Duration":261171,"SoundDuration":261171,"Delta":50107227},{"NoteNumber":59,"Velocity":64,"Duration":261171,"SoundDuration":261171,"Delta":50107227},{"NoteNumber":62,"Velocity":64,"Duration":261171,"SoundDuration":261171,"Delta":50107227},{"NoteNumber":71,"Velocity":64,"Duration":261171,"SoundDuration":261171,"Delta":50107227},{"NoteNumber":75,"Velocity":58,"Duration":79881,"SoundDuration":79881,"Delta":50368398},{"NoteNumber":80,"Velocity":58,"Duration":79881,"SoundDuration":79881,"Delta":50368398},{"NoteNumber":87,"Velocity":69,"Duration":79881,"SoundDuration":79881,"Delta":50368398},{"NoteNumber":68,"Velocity":58,"Duration":79881,"SoundDuration":79881,"Delta":50368398},{"NoteNumber":60,"Velocity":58,"Duration":79881,"SoundDuration":79881,"Delta":50368398},{"NoteNumber":72,"Velocity":58,"Duration":79881,"SoundDuration":79881,"Delta":50368398},{"NoteNumber":63,"Velocity":58,"Duration":79881,"SoundDuration":79881,"Delta":50368398},{"NoteNumber":75,"Velocity":65,"Duration":172413,"SoundDuration":172413,"Delta":50457155},{"NoteNumber":80,"Velocity":65,"Duration":172413,"SoundDuration":172413,"Delta":50457155},{"NoteNumber":87,"Velocity":77,"Duration":172413,"SoundDuration":172413,"Delta":50457155},{"NoteNumber":68,"Velocity":65,"Duration":172413,"SoundDuration":172413,"Delta":50457155},{"NoteNumber":72,"Velocity":65,"Duration":172413,"SoundDuration":172413,"Delta":50457155},{"NoteNumber":60,"Velocity":65,"Duration":172413,"SoundDuration":172413,"Delta":50457155},{"NoteNumber":63,"Velocity":65,"Duration":172413,"SoundDuration":172413,"Delta":50457155},{"NoteNumber":87,"Velocity":60,"Duration":86206,"SoundDuration":86206,"Delta":50715776},{"NoteNumber":75,"Velocity":60,"Duration":86206,"SoundDuration":86206,"Delta":50715776},{"NoteNumber":53,"Velocity":56,"Duration":336207,"SoundDuration":336207,"Delta":50715776},{"NoteNumber":63,"Velocity":56,"Duration":293103,"SoundDuration":293103,"Delta":50758879},{"NoteNumber":73,"Velocity":64,"Duration":250000,"SoundDuration":250000,"Delta":50801983},{"NoteNumber":81,"Velocity":64,"Duration":250000,"SoundDuration":250000,"Delta":50801983},{"NoteNumber":85,"Velocity":76,"Duration":250000,"SoundDuration":250000,"Delta":50801983},{"NoteNumber":69,"Velocity":66,"Duration":250000,"SoundDuration":250000,"Delta":50801983},{"NoteNumber":72,"Velocity":59,"Duration":83333,"SoundDuration":83333,"Delta":51051983},{"NoteNumber":84,"Velocity":70,"Duration":83333,"SoundDuration":83333,"Delta":51051983},{"NoteNumber":46,"Velocity":60,"Duration":344961,"SoundDuration":344961,"Delta":51051983},{"NoteNumber":53,"Velocity":60,"Duration":303294,"SoundDuration":303294,"Delta":51093649},{"NoteNumber":70,"Velocity":64,"Duration":174418,"SoundDuration":174418,"Delta":51135316},{"NoteNumber":82,"Velocity":76,"Duration":174418,"SoundDuration":174418,"Delta":51135316},{"NoteNumber":61,"Velocity":71,"Duration":261627,"SoundDuration":261627,"Delta":51135316},{"NoteNumber":39,"Velocity":56,"Duration":340018,"SoundDuration":340018,"Delta":51396944},{"NoteNumber":46,"Velocity":56,"Duration":296413,"SoundDuration":296413,"Delta":51440549},{"NoteNumber":58,"Velocity":59,"Duration":252808,"SoundDuration":252808,"Delta":51484153},{"NoteNumber":66,"Velocity":59,"Duration":252808,"SoundDuration":252808,"Delta":51484153},{"NoteNumber":70,"Velocity":70,"Duration":252808,"SoundDuration":252808,"Delta":51484153},{"NoteNumber":54,"Velocity":66,"Duration":252808,"SoundDuration":252808,"Delta":51484153},{"NoteNumber":60,"Velocity":59,"Duration":84269,"SoundDuration":84269,"Delta":51736962},{"NoteNumber":72,"Velocity":70,"Duration":84269,"SoundDuration":84269,"Delta":51736962},{"NoteNumber":34,"Velocity":52,"Duration":345445,"SoundDuration":345445,"Delta":51736962},{"NoteNumber":41,"Velocity":52,"Duration":347169,"SoundDuration":347169,"Delta":51779097},{"NoteNumber":61,"Velocity":62,"Duration":348894,"SoundDuration":348894,"Delta":51821232},{"NoteNumber":65,"Velocity":62,"Duration":348894,"SoundDuration":348894,"Delta":51821232},{"NoteNumber":73,"Velocity":74,"Duration":348894,"SoundDuration":348894,"Delta":51821232},{"NoteNumber":49,"Velocity":62,"Duration":261175,"SoundDuration":261175,"Delta":51821232},{"NoteNumber":61,"Velocity":61,"Duration":251396,"SoundDuration":251396,"Delta":52170126},{"NoteNumber":63,"Velocity":61,"Duration":251396,"SoundDuration":251396,"Delta":52170126},{"NoteNumber":66,"Velocity":61,"Duration":251396,"SoundDuration":251396,"Delta":52170126},{"NoteNumber":73,"Velocity":72,"Duration":251396,"SoundDuration":251396,"Delta":52170126},{"NoteNumber":27,"Velocity":52,"Duration":251396,"SoundDuration":251396,"Delta":52170126},{"NoteNumber":39,"Velocity":62,"Duration":251396,"SoundDuration":251396,"Delta":52170126},{"NoteNumber":60,"Velocity":58,"Duration":83798,"SoundDuration":83798,"Delta":52421523},{"NoteNumber":72,"Velocity":69,"Duration":83798,"SoundDuration":83798,"Delta":52421523},{"NoteNumber":34,"Velocity":52,"Duration":346956,"SoundDuration":346956,"Delta":52421523},{"NoteNumber":41,"Velocity":52,"Duration":305057,"SoundDuration":305057,"Delta":52463422},{"NoteNumber":58,"Velocity":63,"Duration":350876,"SoundDuration":350876,"Delta":52505322},{"NoteNumber":65,"Velocity":63,"Duration":350876,"SoundDuration":350876,"Delta":52505322},{"NoteNumber":70,"Velocity":75,"Duration":350876,"SoundDuration":350876,"Delta":52505322},{"NoteNumber":49,"Velocity":62,"Duration":263157,"SoundDuration":263157,"Delta":52505322},{"NoteNumber":39,"Velocity":51,"Duration":339115,"SoundDuration":339115,"Delta":52768480},{"NoteNumber":46,"Velocity":51,"Duration":295256,"SoundDuration":295256,"Delta":52812339},{"NoteNumber":56,"Velocity":61,"Duration":251396,"SoundDuration":251396,"Delta":52856199},{"NoteNumber":58,"Velocity":61,"Duration":251396,"SoundDuration":251396,"Delta":52856199},{"NoteNumber":63,"Velocity":61,"Duration":251396,"SoundDuration":251396,"Delta":52856199},{"NoteNumber":68,"Velocity":72,"Duration":251396,"SoundDuration":251396,"Delta":52856199},{"NoteNumber":51,"Velocity":61,"Duration":251396,"SoundDuration":251396,"Delta":52856199},{"NoteNumber":54,"Velocity":57,"Duration":83798,"SoundDuration":83798,"Delta":53107595},{"NoteNumber":66,"Velocity":68,"Duration":83798,"SoundDuration":83798,"Delta":53107595},{"NoteNumber":34,"Velocity":56,"Duration":341977,"SoundDuration":341977,"Delta":53107595},{"NoteNumber":41,"Velocity":56,"Duration":300077,"SoundDuration":300077,"Delta":53149495},{"NoteNumber":53,"Velocity":60,"Duration":171472,"SoundDuration":171472,"Delta":53191394},{"NoteNumber":61,"Velocity":60,"Duration":171472,"SoundDuration":171472,"Delta":53191394},{"NoteNumber":65,"Velocity":71,"Duration":171472,"SoundDuration":171472,"Delta":53191394},{"NoteNumber":49,"Velocity":66,"Duration":258178,"SoundDuration":258178,"Delta":53191394},{"NoteNumber":45,"Velocity":59,"Duration":86212,"SoundDuration":86212,"Delta":53536278},{"NoteNumber":33,"Velocity":50,"Duration":86212,"SoundDuration":86212,"Delta":53536278},{"NoteNumber":46,"Velocity":59,"Duration":85227,"SoundDuration":85227,"Delta":53622490},{"NoteNumber":34,"Velocity":50,"Duration":85227,"SoundDuration":85227,"Delta":53622490},{"NoteNumber":48,"Velocity":60,"Duration":85066,"SoundDuration":85066,"Delta":53707718},{"NoteNumber":36,"Velocity":51,"Duration":85066,"SoundDuration":85066,"Delta":53707718},{"NoteNumber":49,"Velocity":61,"Duration":84745,"SoundDuration":84745,"Delta":53792784},{"NoteNumber":37,"Velocity":51,"Duration":84745,"SoundDuration":84745,"Delta":53792784},{"NoteNumber":51,"Velocity":61,"Duration":84269,"SoundDuration":84269,"Delta":53877530},{"NoteNumber":39,"Velocity":51,"Duration":84269,"SoundDuration":84269,"Delta":53877530},{"NoteNumber":53,"Velocity":62,"Duration":83955,"SoundDuration":83955,"Delta":53961800},{"NoteNumber":41,"Velocity":52,"Duration":83955,"SoundDuration":83955,"Delta":53961800},{"NoteNumber":55,"Velocity":63,"Duration":83798,"SoundDuration":83798,"Delta":54045756},{"NoteNumber":43,"Velocity":53,"Duration":83798,"SoundDuration":83798,"Delta":54045756},{"NoteNumber":57,"Velocity":63,"Duration":83488,"SoundDuration":83488,"Delta":54129554},{"NoteNumber":45,"Velocity":53,"Duration":83488,"SoundDuration":83488,"Delta":54129554},{"NoteNumber":58,"Velocity":64,"Duration":83179,"SoundDuration":83179,"Delta":54213043},{"NoteNumber":46,"Velocity":54,"Duration":83179,"SoundDuration":83179,"Delta":54213043},{"NoteNumber":60,"Velocity":65,"Duration":82872,"SoundDuration":82872,"Delta":54296223},{"NoteNumber":48,"Velocity":55,"Duration":82872,"SoundDuration":82872,"Delta":54296223},{"NoteNumber":61,"Velocity":65,"Duration":82417,"SoundDuration":82417,"Delta":54379096},{"NoteNumber":49,"Velocity":55,"Duration":82417,"SoundDuration":82417,"Delta":54379096},{"NoteNumber":63,"Velocity":66,"Duration":82417,"SoundDuration":82417,"Delta":54461513},{"NoteNumber":51,"Velocity":56,"Duration":82417,"SoundDuration":82417,"Delta":54461513},{"NoteNumber":65,"Velocity":67,"Duration":81967,"SoundDuration":81967,"Delta":54543931},{"NoteNumber":53,"Velocity":56,"Duration":81967,"SoundDuration":81967,"Delta":54543931},{"NoteNumber":67,"Velocity":67,"Duration":81670,"SoundDuration":81670,"Delta":54625898},{"NoteNumber":55,"Velocity":56,"Duration":81670,"SoundDuration":81670,"Delta":54625898},{"NoteNumber":69,"Velocity":68,"Duration":81374,"SoundDuration":81374,"Delta":54707568},{"NoteNumber":57,"Velocity":57,"Duration":81374,"SoundDuration":81374,"Delta":54707568},{"NoteNumber":70,"Velocity":68,"Duration":81081,"SoundDuration":81081,"Delta":54788943},{"NoteNumber":58,"Velocity":57,"Duration":81081,"SoundDuration":81081,"Delta":54788943},{"NoteNumber":72,"Velocity":69,"Duration":80935,"SoundDuration":80935,"Delta":54870024},{"NoteNumber":60,"Velocity":58,"Duration":80935,"SoundDuration":80935,"Delta":54870024},{"NoteNumber":73,"Velocity":70,"Duration":80645,"SoundDuration":80645,"Delta":54950960},{"NoteNumber":61,"Velocity":59,"Duration":80645,"SoundDuration":80645,"Delta":54950960},{"NoteNumber":75,"Velocity":70,"Duration":80213,"SoundDuration":80213,"Delta":55031605},{"NoteNumber":63,"Velocity":59,"Duration":80213,"SoundDuration":80213,"Delta":55031605},{"NoteNumber":77,"Velocity":71,"Duration":79929,"SoundDuration":79929,"Delta":55111819},{"NoteNumber":65,"Velocity":60,"Duration":79929,"SoundDuration":79929,"Delta":55111819},{"NoteNumber":79,"Velocity":72,"Duration":79646,"SoundDuration":79646,"Delta":55191749},{"NoteNumber":67,"Velocity":61,"Duration":79646,"SoundDuration":79646,"Delta":55191749},{"NoteNumber":81,"Velocity":72,"Duration":79365,"SoundDuration":79365,"Delta":55271395},{"NoteNumber":69,"Velocity":61,"Duration":79365,"SoundDuration":79365,"Delta":55271395},{"NoteNumber":82,"Velocity":77,"Duration":176470,"SoundDuration":176470,"Delta":55350760},{"NoteNumber":70,"Velocity":77,"Duration":176470,"SoundDuration":176470,"Delta":55350760},{"NoteNumber":84,"Velocity":71,"Duration":88235,"SoundDuration":88235,"Delta":55615466},{"NoteNumber":73,"Velocity":64,"Duration":162162,"SoundDuration":162162,"Delta":55703701},{"NoteNumber":82,"Velocity":76,"Duration":162162,"SoundDuration":162162,"Delta":55703701},{"NoteNumber":79,"Velocity":76,"Duration":162162,"SoundDuration":162162,"Delta":55703701},{"NoteNumber":27,"Velocity":62,"Duration":162162,"SoundDuration":162162,"Delta":55703701},{"NoteNumber":39,"Velocity":73,"Duration":162162,"SoundDuration":162162,"Delta":55703701},{"NoteNumber":81,"Velocity":71,"Duration":162162,"SoundDuration":162162,"Delta":55865864},{"NoteNumber":78,"Velocity":71,"Duration":162162,"SoundDuration":162162,"Delta":55865864},{"NoteNumber":72,"Velocity":60,"Duration":162162,"SoundDuration":162162,"Delta":55865864},{"NoteNumber":73,"Velocity":63,"Duration":352941,"SoundDuration":352941,"Delta":56028026},{"NoteNumber":79,"Velocity":75,"Duration":352941,"SoundDuration":352941,"Delta":56028026},{"NoteNumber":82,"Velocity":75,"Duration":352941,"SoundDuration":352941,"Delta":56028026},{"NoteNumber":39,"Velocity":56,"Duration":176470,"SoundDuration":176470,"Delta":56028026},{"NoteNumber":51,"Velocity":66,"Duration":176470,"SoundDuration":176470,"Delta":56028026},{"NoteNumber":72,"Velocity":60,"Duration":340909,"SoundDuration":340909,"Delta":56380967},{"NoteNumber":79,"Velocity":71,"Duration":340909,"SoundDuration":340909,"Delta":56380967},{"NoteNumber":84,"Velocity":71,"Duration":340909,"SoundDuration":340909,"Delta":56380967},{"NoteNumber":51,"Velocity":61,"Duration":340909,"SoundDuration":340909,"Delta":56380967},{"NoteNumber":63,"Velocity":72,"Duration":340909,"SoundDuration":340909,"Delta":56380967},{"NoteNumber":68,"Velocity":62,"Duration":338982,"SoundDuration":338982,"Delta":56721876},{"NoteNumber":72,"Velocity":62,"Duration":338982,"SoundDuration":338982,"Delta":56721876},{"NoteNumber":80,"Velocity":73,"Duration":338982,"SoundDuration":338982,"Delta":56721876},{"NoteNumber":65,"Velocity":70,"Duration":338982,"SoundDuration":338982,"Delta":56721876},{"NoteNumber":60,"Velocity":59,"Duration":338982,"SoundDuration":338982,"Delta":56721876},{"NoteNumber":53,"Velocity":59,"Duration":338982,"SoundDuration":338982,"Delta":56721876},{"NoteNumber":63,"Velocity":60,"Duration":355029,"SoundDuration":355029,"Delta":57060859},{"NoteNumber":68,"Velocity":60,"Duration":355029,"SoundDuration":355029,"Delta":57060859},{"NoteNumber":75,"Velocity":71,"Duration":355029,"SoundDuration":355029,"Delta":57060859},{"NoteNumber":48,"Velocity":56,"Duration":355029,"SoundDuration":355029,"Delta":57060859},{"NoteNumber":56,"Velocity":56,"Duration":355029,"SoundDuration":355029,"Delta":57060859},{"NoteNumber":60,"Velocity":66,"Duration":355029,"SoundDuration":355029,"Delta":57060859},{"NoteNumber":65,"Velocity":65,"Duration":344827,"SoundDuration":344827,"Delta":57415888},{"NoteNumber":68,"Velocity":65,"Duration":344827,"SoundDuration":344827,"Delta":57415888},{"NoteNumber":77,"Velocity":77,"Duration":344827,"SoundDuration":344827,"Delta":57415888},{"NoteNumber":49,"Velocity":61,"Duration":344827,"SoundDuration":344827,"Delta":57415888},{"NoteNumber":56,"Velocity":72,"Duration":344827,"SoundDuration":344827,"Delta":57415888},{"NoteNumber":61,"Velocity":72,"Duration":344827,"SoundDuration":344827,"Delta":57415888},{"NoteNumber":68,"Velocity":61,"Duration":359281,"SoundDuration":359281,"Delta":57760716},{"NoteNumber":72,"Velocity":61,"Duration":359281,"SoundDuration":359281,"Delta":57760716},{"NoteNumber":80,"Velocity":72,"Duration":359281,"SoundDuration":359281,"Delta":57760716},{"NoteNumber":41,"Velocity":56,"Duration":359281,"SoundDuration":359281,"Delta":57760716},{"NoteNumber":53,"Velocity":66,"Duration":359281,"SoundDuration":359281,"Delta":57760716},{"NoteNumber":61,"Velocity":69,"Duration":350876,"SoundDuration":350876,"Delta":58119997},{"NoteNumber":65,"Velocity":69,"Duration":350876,"SoundDuration":350876,"Delta":58119997},{"NoteNumber":70,"Velocity":81,"Duration":350876,"SoundDuration":350876,"Delta":58119997},{"NoteNumber":73,"Velocity":81,"Duration":350876,"SoundDuration":350876,"Delta":58119997},{"NoteNumber":46,"Velocity":60,"Duration":350876,"SoundDuration":350876,"Delta":58119997},{"NoteNumber":53,"Velocity":72,"Duration":350876,"SoundDuration":350876,"Delta":58119997},{"NoteNumber":58,"Velocity":72,"Duration":350876,"SoundDuration":350876,"Delta":58119997},{"NoteNumber":65,"Velocity":66,"Duration":392156,"SoundDuration":392156,"Delta":58470874},{"NoteNumber":68,"Velocity":66,"Duration":392156,"SoundDuration":392156,"Delta":58470874},{"NoteNumber":73,"Velocity":78,"Duration":392156,"SoundDuration":392156,"Delta":58470874},{"NoteNumber":77,"Velocity":78,"Duration":392156,"SoundDuration":392156,"Delta":58470874},{"NoteNumber":34,"Velocity":58,"Duration":392156,"SoundDuration":392156,"Delta":58470874},{"NoteNumber":46,"Velocity":69,"Duration":392156,"SoundDuration":392156,"Delta":58470874},{"NoteNumber":58,"Velocity":74,"Duration":413792,"SoundDuration":413792,"Delta":58863031},{"NoteNumber":63,"Velocity":74,"Duration":413792,"SoundDuration":413792,"Delta":58863031},{"NoteNumber":68,"Velocity":87,"Duration":413792,"SoundDuration":413792,"Delta":58863031},{"NoteNumber":70,"Velocity":87,"Duration":413792,"SoundDuration":413792,"Delta":58863031},{"NoteNumber":39,"Velocity":65,"Duration":413792,"SoundDuration":413792,"Delta":58863031},{"NoteNumber":51,"Velocity":77,"Duration":413792,"SoundDuration":413792,"Delta":58863031},{"NoteNumber":61,"Velocity":69,"Duration":476190,"SoundDuration":476190,"Delta":59276824},{"NoteNumber":63,"Velocity":69,"Duration":476190,"SoundDuration":476190,"Delta":59276824},{"NoteNumber":67,"Velocity":69,"Duration":476190,"SoundDuration":476190,"Delta":59276824},{"NoteNumber":70,"Velocity":82,"Duration":476190,"SoundDuration":476190,"Delta":59276824},{"NoteNumber":75,"Velocity":82,"Duration":476190,"SoundDuration":476190,"Delta":59276824},{"NoteNumber":27,"Velocity":60,"Duration":476190,"SoundDuration":476190,"Delta":59276824},{"NoteNumber":39,"Velocity":71,"Duration":476190,"SoundDuration":476190,"Delta":59276824},{"NoteNumber":77,"Velocity":82,"Duration":591314,"SoundDuration":591314,"Delta":59753015},{"NoteNumber":85,"Velocity":82,"Duration":591314,"SoundDuration":591314,"Delta":59753015},{"NoteNumber":89,"Velocity":97,"Duration":591314,"SoundDuration":591314,"Delta":59753015},{"NoteNumber":32,"Velocity":67,"Duration":225563,"SoundDuration":225563,"Delta":59753015},{"NoteNumber":44,"Velocity":79,"Duration":225563,"SoundDuration":225563,"Delta":59753015},{"NoteNumber":60,"Velocity":67,"Duration":300649,"SoundDuration":300649,"Delta":60204143},{"NoteNumber":51,"Velocity":67,"Duration":300649,"SoundDuration":300649,"Delta":60204143},{"NoteNumber":63,"Velocity":79,"Duration":300649,"SoundDuration":300649,"Delta":60204143},{"NoteNumber":75,"Velocity":79,"Duration":144416,"SoundDuration":144416,"Delta":60344330},{"NoteNumber":84,"Velocity":79,"Duration":144416,"SoundDuration":144416,"Delta":60344330},{"NoteNumber":87,"Velocity":93,"Duration":144416,"SoundDuration":144416,"Delta":60344330},{"NoteNumber":75,"Velocity":79,"Duration":350876,"SoundDuration":350876,"Delta":60504792},{"NoteNumber":84,"Velocity":79,"Duration":350876,"SoundDuration":350876,"Delta":60504792},{"NoteNumber":87,"Velocity":93,"Duration":350876,"SoundDuration":350876,"Delta":60504792},{"NoteNumber":68,"Velocity":77,"Duration":350876,"SoundDuration":350876,"Delta":60504792},{"NoteNumber":60,"Velocity":77,"Duration":350876,"SoundDuration":350876,"Delta":60504792},{"NoteNumber":56,"Velocity":64,"Duration":350876,"SoundDuration":350876,"Delta":60504792},{"NoteNumber":63,"Velocity":71,"Duration":87719,"SoundDuration":87719,"Delta":60767950},{"NoteNumber":63,"Velocity":71,"Duration":68181,"SoundDuration":68181,"Delta":60855669},{"NoteNumber":39,"Velocity":72,"Duration":85227,"SoundDuration":85227,"Delta":60855669},{"NoteNumber":51,"Velocity":85,"Duration":85227,"SoundDuration":85227,"Delta":60855669},{"NoteNumber":65,"Velocity":71,"Duration":68181,"SoundDuration":68181,"Delta":60923851},{"NoteNumber":63,"Velocity":71,"Duration":68181,"SoundDuration":68181,"Delta":60992033},{"NoteNumber":62,"Velocity":71,"Duration":68181,"SoundDuration":68181,"Delta":61060214},{"NoteNumber":63,"Velocity":71,"Duration":68181,"SoundDuration":68181,"Delta":61128396},{"NoteNumber":68,"Velocity":87,"Duration":166666,"SoundDuration":166666,"Delta":61196578},{"NoteNumber":44,"Velocity":73,"Duration":166666,"SoundDuration":166666,"Delta":61196578},{"NoteNumber":56,"Velocity":86,"Duration":166666,"SoundDuration":166666,"Delta":61196578},{"NoteNumber":72,"Velocity":74,"Duration":166666,"SoundDuration":166666,"Delta":61529912},{"NoteNumber":80,"Velocity":74,"Duration":166666,"SoundDuration":166666,"Delta":61529912},{"NoteNumber":84,"Velocity":88,"Duration":166666,"SoundDuration":166666,"Delta":61529912},{"NoteNumber":27,"Velocity":61,"Duration":343137,"SoundDuration":343137,"Delta":61529912},{"NoteNumber":39,"Velocity":73,"Duration":343137,"SoundDuration":343137,"Delta":61529912},{"NoteNumber":73,"Velocity":73,"Duration":176470,"SoundDuration":176470,"Delta":61696578},{"NoteNumber":82,"Velocity":73,"Duration":176470,"SoundDuration":176470,"Delta":61696578},{"NoteNumber":85,"Velocity":86,"Duration":176470,"SoundDuration":176470,"Delta":61696578},{"NoteNumber":77,"Velocity":79,"Duration":174836,"SoundDuration":174836,"Delta":61873049},{"NoteNumber":85,"Velocity":79,"Duration":174836,"SoundDuration":174836,"Delta":61873049},{"NoteNumber":89,"Velocity":93,"Duration":174836,"SoundDuration":174836,"Delta":61873049},{"NoteNumber":32,"Velocity":67,"Duration":341503,"SoundDuration":341503,"Delta":61873049},{"NoteNumber":44,"Velocity":79,"Duration":341503,"SoundDuration":341503,"Delta":61873049},{"NoteNumber":75,"Velocity":74,"Duration":75000,"SoundDuration":75000,"Delta":62131219},{"NoteNumber":84,"Velocity":74,"Duration":75000,"SoundDuration":75000,"Delta":62131219},{"NoteNumber":87,"Velocity":88,"Duration":75000,"SoundDuration":75000,"Delta":62131219},{"NoteNumber":75,"Velocity":74,"Duration":143540,"SoundDuration":143540,"Delta":62214552},{"NoteNumber":84,"Velocity":74,"Duration":143540,"SoundDuration":143540,"Delta":62214552},{"NoteNumber":87,"Velocity":93,"Duration":143540,"SoundDuration":143540,"Delta":62214552},{"NoteNumber":60,"Velocity":61,"Duration":322112,"SoundDuration":322112,"Delta":62214552},{"NoteNumber":63,"Velocity":73,"Duration":322112,"SoundDuration":322112,"Delta":62214552},{"NoteNumber":51,"Velocity":61,"Duration":322112,"SoundDuration":322112,"Delta":62214552},{"NoteNumber":74,"Velocity":74,"Duration":178571,"SoundDuration":178571,"Delta":62358093},{"NoteNumber":83,"Velocity":74,"Duration":178571,"SoundDuration":178571,"Delta":62358093},{"NoteNumber":86,"Velocity":88,"Duration":178571,"SoundDuration":178571,"Delta":62358093},{"NoteNumber":75,"Velocity":74,"Duration":357143,"SoundDuration":357143,"Delta":62536664},{"NoteNumber":84,"Velocity":74,"Duration":357143,"SoundDuration":357143,"Delta":62536664},{"NoteNumber":87,"Velocity":88,"Duration":357143,"SoundDuration":357143,"Delta":62536664},{"NoteNumber":68,"Velocity":75,"Duration":357143,"SoundDuration":357143,"Delta":62536664},{"NoteNumber":60,"Velocity":75,"Duration":357143,"SoundDuration":357143,"Delta":62536664},{"NoteNumber":56,"Velocity":63,"Duration":357143,"SoundDuration":357143,"Delta":62536664},{"NoteNumber":63,"Velocity":70,"Duration":89285,"SoundDuration":89285,"Delta":62804522},{"NoteNumber":63,"Velocity":70,"Duration":68181,"SoundDuration":68181,"Delta":62893807},{"NoteNumber":39,"Velocity":67,"Duration":85227,"SoundDuration":85227,"Delta":62893807},{"NoteNumber":51,"Velocity":80,"Duration":85227,"SoundDuration":85227,"Delta":62893807},{"NoteNumber":65,"Velocity":70,"Duration":68181,"SoundDuration":68181,"Delta":62961989},{"NoteNumber":63,"Velocity":70,"Duration":68181,"SoundDuration":68181,"Delta":63030171},{"NoteNumber":62,"Velocity":70,"Duration":68181,"SoundDuration":68181,"Delta":63098353},{"NoteNumber":63,"Velocity":70,"Duration":68181,"SoundDuration":68181,"Delta":63166535},{"NoteNumber":68,"Velocity":87,"Duration":161290,"SoundDuration":161290,"Delta":63234716},{"NoteNumber":44,"Velocity":73,"Duration":161290,"SoundDuration":161290,"Delta":63234716},{"NoteNumber":56,"Velocity":86,"Duration":161290,"SoundDuration":161290,"Delta":63234716},{"NoteNumber":84,"Velocity":88,"Duration":166666,"SoundDuration":166666,"Delta":63557297},{"NoteNumber":72,"Velocity":74,"Duration":166666,"SoundDuration":166666,"Delta":63557297},{"NoteNumber":80,"Velocity":74,"Duration":166666,"SoundDuration":166666,"Delta":63557297},{"NoteNumber":27,"Velocity":61,"Duration":336158,"SoundDuration":336158,"Delta":63557297},{"NoteNumber":39,"Velocity":73,"Duration":336158,"SoundDuration":336158,"Delta":63557297},{"NoteNumber":85,"Velocity":86,"Duration":169491,"SoundDuration":169491,"Delta":63723964},{"NoteNumber":73,"Velocity":73,"Duration":169491,"SoundDuration":169491,"Delta":63723964},{"NoteNumber":82,"Velocity":73,"Duration":169491,"SoundDuration":169491,"Delta":63723964},{"NoteNumber":85,"Velocity":79,"Duration":166666,"SoundDuration":166666,"Delta":63893455},{"NoteNumber":89,"Velocity":93,"Duration":166666,"SoundDuration":166666,"Delta":63893455},{"NoteNumber":77,"Velocity":79,"Duration":166666,"SoundDuration":166666,"Delta":63893455},{"NoteNumber":32,"Velocity":67,"Duration":333333,"SoundDuration":333333,"Delta":63893455},{"NoteNumber":44,"Velocity":79,"Duration":333333,"SoundDuration":333333,"Delta":63893455},{"NoteNumber":75,"Velocity":74,"Duration":309523,"SoundDuration":309523,"Delta":64060122},{"NoteNumber":84,"Velocity":74,"Duration":309523,"SoundDuration":309523,"Delta":64060122},{"NoteNumber":87,"Velocity":88,"Duration":83333,"SoundDuration":83333,"Delta":64060122},{"NoteNumber":89,"Velocity":81,"Duration":83333,"SoundDuration":83333,"Delta":64143455},{"NoteNumber":87,"Velocity":93,"Duration":142857,"SoundDuration":142857,"Delta":64226789},{"NoteNumber":60,"Velocity":61,"Duration":313311,"SoundDuration":313311,"Delta":64226789},{"NoteNumber":63,"Velocity":73,"Duration":313311,"SoundDuration":313311,"Delta":64226789},{"NoteNumber":51,"Velocity":61,"Duration":313311,"SoundDuration":313311,"Delta":64226789},{"NoteNumber":83,"Velocity":74,"Duration":170454,"SoundDuration":170454,"Delta":64369646},{"NoteNumber":86,"Velocity":88,"Duration":170454,"SoundDuration":170454,"Delta":64369646},{"NoteNumber":74,"Velocity":74,"Duration":170454,"SoundDuration":170454,"Delta":64369646},{"NoteNumber":85,"Velocity":79,"Duration":166666,"SoundDuration":166666,"Delta":64540100},{"NoteNumber":89,"Velocity":93,"Duration":166666,"SoundDuration":166666,"Delta":64540100},{"NoteNumber":77,"Velocity":79,"Duration":166666,"SoundDuration":166666,"Delta":64540100},{"NoteNumber":68,"Velocity":75,"Duration":333333,"SoundDuration":333333,"Delta":64540100},{"NoteNumber":60,"Velocity":75,"Duration":333333,"SoundDuration":333333,"Delta":64540100},{"NoteNumber":56,"Velocity":63,"Duration":333333,"SoundDuration":333333,"Delta":64540100},{"NoteNumber":84,"Velocity":74,"Duration":318181,"SoundDuration":318181,"Delta":64706767},{"NoteNumber":87,"Velocity":88,"Duration":83333,"SoundDuration":83333,"Delta":64706767},{"NoteNumber":75,"Velocity":74,"Duration":318181,"SoundDuration":318181,"Delta":64706767},{"NoteNumber":89,"Velocity":81,"Duration":83333,"SoundDuration":83333,"Delta":64790101},{"NoteNumber":87,"Velocity":93,"Duration":151515,"SoundDuration":151515,"Delta":64873434},{"NoteNumber":39,"Velocity":61,"Duration":151515,"SoundDuration":151515,"Delta":64873434},{"NoteNumber":51,"Velocity":73,"Duration":151515,"SoundDuration":151515,"Delta":64873434},{"NoteNumber":74,"Velocity":74,"Duration":172413,"SoundDuration":172413,"Delta":65024949},{"NoteNumber":83,"Velocity":74,"Duration":172413,"SoundDuration":172413,"Delta":65024949},{"NoteNumber":86,"Velocity":88,"Duration":172413,"SoundDuration":172413,"Delta":65024949},{"NoteNumber":75,"Velocity":74,"Duration":271561,"SoundDuration":271561,"Delta":65197363},{"NoteNumber":84,"Velocity":74,"Duration":271561,"SoundDuration":271561,"Delta":65197363},{"NoteNumber":87,"Velocity":88,"Duration":271561,"SoundDuration":271561,"Delta":65197363},{"NoteNumber":44,"Velocity":64,"Duration":166666,"SoundDuration":166666,"Delta":65197363},{"NoteNumber":56,"Velocity":77,"Duration":166666,"SoundDuration":166666,"Delta":65197363},{"NoteNumber":75,"Velocity":72,"Duration":381680,"SoundDuration":381680,"Delta":65468925},{"NoteNumber":39,"Velocity":62,"Duration":337037,"SoundDuration":337037,"Delta":65468925},{"NoteNumber":82,"Velocity":72,"Duration":329233,"SoundDuration":329233,"Delta":65521372},{"NoteNumber":46,"Velocity":62,"Duration":284590,"SoundDuration":284590,"Delta":65521372},{"NoteNumber":90,"Velocity":85,"Duration":276785,"SoundDuration":276785,"Delta":65573820},{"NoteNumber":54,"Velocity":74,"Duration":232142,"SoundDuration":232142,"Delta":65573820},{"NoteNumber":41,"Velocity":62,"Duration":357143,"SoundDuration":357143,"Delta":65805963},{"NoteNumber":75,"Velocity":70,"Duration":357142,"SoundDuration":357142,"Delta":65850606},{"NoteNumber":48,"Velocity":62,"Duration":446428,"SoundDuration":446428,"Delta":65850606},{"NoteNumber":81,"Velocity":70,"Duration":312500,"SoundDuration":312500,"Delta":65895249},{"NoteNumber":51,"Velocity":74,"Duration":267857,"SoundDuration":267857,"Delta":65895249},{"NoteNumber":89,"Velocity":83,"Duration":267857,"SoundDuration":267857,"Delta":65939891},{"NoteNumber":57,"Velocity":74,"Duration":223214,"SoundDuration":223214,"Delta":65939891},{"NoteNumber":72,"Velocity":70,"Duration":401785,"SoundDuration":401785,"Delta":66163106},{"NoteNumber":53,"Velocity":61,"Duration":357142,"SoundDuration":357142,"Delta":66163106},{"NoteNumber":75,"Velocity":70,"Duration":357143,"SoundDuration":357143,"Delta":66207749},{"NoteNumber":60,"Velocity":61,"Duration":312500,"SoundDuration":312500,"Delta":66207749},{"NoteNumber":77,"Velocity":70,"Duration":312500,"SoundDuration":312500,"Delta":66252392},{"NoteNumber":63,"Velocity":73,"Duration":267857,"SoundDuration":267857,"Delta":66252392},{"NoteNumber":84,"Velocity":83,"Duration":267857,"SoundDuration":267857,"Delta":66297034},{"NoteNumber":69,"Velocity":73,"Duration":223214,"SoundDuration":223214,"Delta":66297034},{"NoteNumber":70,"Velocity":70,"Duration":357142,"SoundDuration":357142,"Delta":66564892},{"NoteNumber":46,"Velocity":63,"Duration":446428,"SoundDuration":446428,"Delta":66564892},{"NoteNumber":77,"Velocity":70,"Duration":312500,"SoundDuration":312500,"Delta":66609535},{"NoteNumber":53,"Velocity":75,"Duration":401785,"SoundDuration":401785,"Delta":66609535},{"NoteNumber":85,"Velocity":83,"Duration":267857,"SoundDuration":267857,"Delta":66654177},{"NoteNumber":61,"Velocity":75,"Duration":357142,"SoundDuration":357142,"Delta":66654177},{"NoteNumber":78,"Velocity":80,"Duration":121212,"SoundDuration":121212,"Delta":67011320},{"NoteNumber":42,"Velocity":60,"Duration":363636,"SoundDuration":363636,"Delta":67011320},{"NoteNumber":54,"Velocity":71,"Duration":363636,"SoundDuration":363636,"Delta":67011320},{"NoteNumber":66,"Velocity":80,"Duration":121212,"SoundDuration":121212,"Delta":67132533},{"NoteNumber":78,"Velocity":80,"Duration":121212,"SoundDuration":121212,"Delta":67253745},{"NoteNumber":65,"Velocity":71,"Duration":352941,"SoundDuration":352941,"Delta":67374957},{"NoteNumber":77,"Velocity":84,"Duration":352941,"SoundDuration":352941,"Delta":67374957},{"NoteNumber":41,"Velocity":60,"Duration":352941,"SoundDuration":352941,"Delta":67374957},{"NoteNumber":53,"Velocity":71,"Duration":352941,"SoundDuration":352941,"Delta":67374957},{"NoteNumber":61,"Velocity":74,"Duration":387096,"SoundDuration":387096,"Delta":67727898},{"NoteNumber":73,"Velocity":79,"Duration":387096,"SoundDuration":387096,"Delta":67727898},{"NoteNumber":37,"Velocity":58,"Duration":387096,"SoundDuration":387096,"Delta":67727898},{"NoteNumber":49,"Velocity":69,"Duration":387096,"SoundDuration":387096,"Delta":67727898},{"NoteNumber":78,"Velocity":82,"Duration":536387,"SoundDuration":536387,"Delta":68114995},{"NoteNumber":87,"Velocity":82,"Duration":536387,"SoundDuration":536387,"Delta":68114995},{"NoteNumber":90,"Velocity":97,"Duration":536387,"SoundDuration":536387,"Delta":68114995},{"NoteNumber":34,"Velocity":67,"Duration":196078,"SoundDuration":196078,"Delta":68114995},{"NoteNumber":46,"Velocity":79,"Duration":196078,"SoundDuration":196078,"Delta":68114995},{"NoteNumber":61,"Velocity":79,"Duration":306392,"SoundDuration":306392,"Delta":68507152},{"NoteNumber":53,"Velocity":67,"Duration":306392,"SoundDuration":306392,"Delta":68507152},{"NoteNumber":65,"Velocity":79,"Duration":306392,"SoundDuration":306392,"Delta":68507152},{"NoteNumber":77,"Velocity":79,"Duration":145946,"SoundDuration":145946,"Delta":68651383},{"NoteNumber":85,"Velocity":79,"Duration":145946,"SoundDuration":145946,"Delta":68651383},{"NoteNumber":89,"Velocity":93,"Duration":145946,"SoundDuration":145946,"Delta":68651383},{"NoteNumber":77,"Velocity":79,"Duration":346821,"SoundDuration":346821,"Delta":68813545},{"NoteNumber":85,"Velocity":79,"Duration":346821,"SoundDuration":346821,"Delta":68813545},{"NoteNumber":89,"Velocity":93,"Duration":346821,"SoundDuration":346821,"Delta":68813545},{"NoteNumber":70,"Velocity":77,"Duration":346821,"SoundDuration":346821,"Delta":68813545},{"NoteNumber":61,"Velocity":77,"Duration":346821,"SoundDuration":346821,"Delta":68813545},{"NoteNumber":58,"Velocity":64,"Duration":346821,"SoundDuration":346821,"Delta":68813545},{"NoteNumber":65,"Velocity":71,"Duration":86705,"SoundDuration":86705,"Delta":69073661},{"NoteNumber":65,"Velocity":71,"Duration":68181,"SoundDuration":68181,"Delta":69160366},{"NoteNumber":41,"Velocity":72,"Duration":85227,"SoundDuration":85227,"Delta":69160366},{"NoteNumber":53,"Velocity":85,"Duration":85227,"SoundDuration":85227,"Delta":69160366},{"NoteNumber":66,"Velocity":71,"Duration":68181,"SoundDuration":68181,"Delta":69228548},{"NoteNumber":65,"Velocity":71,"Duration":68181,"SoundDuration":68181,"Delta":69296729},{"NoteNumber":64,"Velocity":71,"Duration":68181,"SoundDuration":68181,"Delta":69364911},{"NoteNumber":65,"Velocity":71,"Duration":68181,"SoundDuration":68181,"Delta":69433093},{"NoteNumber":70,"Velocity":87,"Duration":166666,"SoundDuration":166666,"Delta":69501275},{"NoteNumber":46,"Velocity":73,"Duration":166666,"SoundDuration":166666,"Delta":69501275},{"NoteNumber":58,"Velocity":86,"Duration":166666,"SoundDuration":166666,"Delta":69501275},{"NoteNumber":73,"Velocity":74,"Duration":166666,"SoundDuration":166666,"Delta":69834608},{"NoteNumber":85,"Velocity":88,"Duration":166666,"SoundDuration":166666,"Delta":69834608},{"NoteNumber":82,"Velocity":74,"Duration":166666,"SoundDuration":166666,"Delta":69834608},{"NoteNumber":29,"Velocity":61,"Duration":343137,"SoundDuration":343137,"Delta":69834608},{"NoteNumber":41,"Velocity":73,"Duration":343137,"SoundDuration":343137,"Delta":69834608},{"NoteNumber":75,"Velocity":73,"Duration":176470,"SoundDuration":176470,"Delta":70001275},{"NoteNumber":84,"Velocity":73,"Duration":176470,"SoundDuration":176470,"Delta":70001275},{"NoteNumber":87,"Velocity":86,"Duration":176470,"SoundDuration":176470,"Delta":70001275},{"NoteNumber":90,"Velocity":93,"Duration":174836,"SoundDuration":174836,"Delta":70177746},{"NoteNumber":78,"Velocity":79,"Duration":174836,"SoundDuration":174836,"Delta":70177746},{"NoteNumber":87,"Velocity":79,"Duration":174836,"SoundDuration":174836,"Delta":70177746},{"NoteNumber":34,"Velocity":67,"Duration":341503,"SoundDuration":341503,"Delta":70177746},{"NoteNumber":46,"Velocity":79,"Duration":341503,"SoundDuration":341503,"Delta":70177746},{"NoteNumber":77,"Velocity":74,"Duration":75000,"SoundDuration":75000,"Delta":70435916},{"NoteNumber":85,"Velocity":74,"Duration":75000,"SoundDuration":75000,"Delta":70435916},{"NoteNumber":89,"Velocity":88,"Duration":75000,"SoundDuration":75000,"Delta":70435916},{"NoteNumber":85,"Velocity":74,"Duration":143540,"SoundDuration":143540,"Delta":70519249},{"NoteNumber":77,"Velocity":74,"Duration":143540,"SoundDuration":143540,"Delta":70519249},{"NoteNumber":89,"Velocity":93,"Duration":143540,"SoundDuration":143540,"Delta":70519249},{"NoteNumber":61,"Velocity":61,"Duration":322112,"SoundDuration":322112,"Delta":70519249},{"NoteNumber":65,"Velocity":73,"Duration":322112,"SoundDuration":322112,"Delta":70519249},{"NoteNumber":53,"Velocity":61,"Duration":322112,"SoundDuration":322112,"Delta":70519249},{"NoteNumber":76,"Velocity":74,"Duration":178571,"SoundDuration":178571,"Delta":70662790},{"NoteNumber":88,"Velocity":88,"Duration":178571,"SoundDuration":178571,"Delta":70662790},{"NoteNumber":84,"Velocity":74,"Duration":178571,"SoundDuration":178571,"Delta":70662790},{"NoteNumber":77,"Velocity":88,"Duration":357142,"SoundDuration":357142,"Delta":70841361},{"NoteNumber":85,"Velocity":74,"Duration":357142,"SoundDuration":357142,"Delta":70841361},{"NoteNumber":89,"Velocity":88,"Duration":357142,"SoundDuration":357142,"Delta":70841361},{"NoteNumber":70,"Velocity":75,"Duration":357142,"SoundDuration":357142,"Delta":70841361},{"NoteNumber":61,"Velocity":75,"Duration":357142,"SoundDuration":357142,"Delta":70841361},{"NoteNumber":58,"Velocity":63,"Duration":357142,"SoundDuration":357142,"Delta":70841361},{"NoteNumber":65,"Velocity":71,"Duration":89285,"SoundDuration":89285,"Delta":71109218},{"NoteNumber":65,"Velocity":71,"Duration":68181,"SoundDuration":68181,"Delta":71198504},{"NoteNumber":41,"Velocity":67,"Duration":85227,"SoundDuration":85227,"Delta":71198504},{"NoteNumber":53,"Velocity":80,"Duration":85227,"SoundDuration":85227,"Delta":71198504},{"NoteNumber":66,"Velocity":71,"Duration":68181,"SoundDuration":68181,"Delta":71266686},{"NoteNumber":65,"Velocity":71,"Duration":68181,"SoundDuration":68181,"Delta":71334868},{"NoteNumber":64,"Velocity":71,"Duration":68181,"SoundDuration":68181,"Delta":71403050},{"NoteNumber":65,"Velocity":71,"Duration":68181,"SoundDuration":68181,"Delta":71471231},{"NoteNumber":70,"Velocity":87,"Duration":322580,"SoundDuration":322580,"Delta":71539413},{"NoteNumber":46,"Velocity":73,"Duration":161290,"SoundDuration":161290,"Delta":71539413},{"NoteNumber":58,"Velocity":86,"Duration":161290,"SoundDuration":161290,"Delta":71539413},{"NoteNumber":79,"Velocity":81,"Duration":175438,"SoundDuration":175438,"Delta":71861994},{"NoteNumber":91,"Velocity":96,"Duration":175438,"SoundDuration":175438,"Delta":71861994},{"NoteNumber":85,"Velocity":81,"Duration":175438,"SoundDuration":175438,"Delta":71861994},{"NoteNumber":34,"Velocity":61,"Duration":359619,"SoundDuration":359619,"Delta":71861994},{"NoteNumber":46,"Velocity":73,"Duration":359619,"SoundDuration":359619,"Delta":71861994},{"NoteNumber":80,"Velocity":80,"Duration":184181,"SoundDuration":184181,"Delta":72037432},{"NoteNumber":92,"Velocity":94,"Duration":184181,"SoundDuration":184181,"Delta":72037432},{"NoteNumber":84,"Velocity":85,"Duration":173410,"SoundDuration":173410,"Delta":72221614},{"NoteNumber":96,"Velocity":101,"Duration":173410,"SoundDuration":173410,"Delta":72221614},{"NoteNumber":27,"Velocity":67,"Duration":173410,"SoundDuration":173410,"Delta":72221614},{"NoteNumber":39,"Velocity":79,"Duration":173410,"SoundDuration":173410,"Delta":72221614},{"NoteNumber":87,"Velocity":74,"Duration":173410,"SoundDuration":173410,"Delta":72395024},{"NoteNumber":91,"Velocity":88,"Duration":173410,"SoundDuration":173410,"Delta":72395024},{"NoteNumber":96,"Velocity":93,"Duration":142857,"SoundDuration":142857,"Delta":72568435},{"NoteNumber":84,"Velocity":79,"Duration":142857,"SoundDuration":142857,"Delta":72568435},{"NoteNumber":67,"Velocity":60,"Duration":313311,"SoundDuration":313311,"Delta":72568435},{"NoteNumber":61,"Velocity":60,"Duration":313311,"SoundDuration":313311,"Delta":72568435},{"NoteNumber":72,"Velocity":72,"Duration":142857,"SoundDuration":142857,"Delta":72568435},{"NoteNumber":63,"Velocity":60,"Duration":313311,"SoundDuration":313311,"Delta":72568435},{"NoteNumber":70,"Velocity":70,"Duration":170454,"SoundDuration":170454,"Delta":72711292},{"NoteNumber":94,"Velocity":92,"Duration":76704,"SoundDuration":76704,"Delta":72796519},{"NoteNumber":82,"Velocity":78,"Duration":76704,"SoundDuration":76704,"Delta":72796519},{"NoteNumber":82,"Velocity":81,"Duration":166666,"SoundDuration":166666,"Delta":72881746},{"NoteNumber":94,"Velocity":97,"Duration":166666,"SoundDuration":166666,"Delta":72881746},{"NoteNumber":51,"Velocity":75,"Duration":166666,"SoundDuration":166666,"Delta":72881746},{"NoteNumber":84,"Velocity":70,"Duration":166666,"SoundDuration":166666,"Delta":73048413},{"NoteNumber":87,"Velocity":84,"Duration":166666,"SoundDuration":166666,"Delta":73048413},{"NoteNumber":94,"Velocity":90,"Duration":142857,"SoundDuration":142857,"Delta":73215080},{"NoteNumber":82,"Velocity":75,"Duration":142857,"SoundDuration":142857,"Delta":73215080},{"NoteNumber":70,"Velocity":72,"Duration":142857,"SoundDuration":142857,"Delta":73215080},{"NoteNumber":60,"Velocity":58,"Duration":313311,"SoundDuration":313311,"Delta":73215080},{"NoteNumber":63,"Velocity":69,"Duration":313311,"SoundDuration":313311,"Delta":73215080},{"NoteNumber":68,"Velocity":70,"Duration":170454,"SoundDuration":170454,"Delta":73357937},{"NoteNumber":80,"Velocity":68,"Duration":76704,"SoundDuration":76704,"Delta":73443164},{"NoteNumber":92,"Velocity":80,"Duration":76704,"SoundDuration":76704,"Delta":73443164},{"NoteNumber":80,"Velocity":79,"Duration":166666,"SoundDuration":166666,"Delta":73528392},{"NoteNumber":92,"Velocity":93,"Duration":166666,"SoundDuration":166666,"Delta":73528392},{"NoteNumber":51,"Velocity":73,"Duration":166666,"SoundDuration":166666,"Delta":73528392},{"NoteNumber":87,"Velocity":79,"Duration":166666,"SoundDuration":166666,"Delta":73695058},{"NoteNumber":82,"Velocity":67,"Duration":166666,"SoundDuration":166666,"Delta":73695058},{"NoteNumber":92,"Velocity":88,"Duration":142857,"SoundDuration":142857,"Delta":73861725},{"NoteNumber":80,"Velocity":74,"Duration":142857,"SoundDuration":142857,"Delta":73861725},{"NoteNumber":68,"Velocity":72,"Duration":142857,"SoundDuration":142857,"Delta":73861725},{"NoteNumber":58,"Velocity":56,"Duration":313311,"SoundDuration":313311,"Delta":73861725},{"NoteNumber":63,"Velocity":67,"Duration":313311,"SoundDuration":313311,"Delta":73861725},{"NoteNumber":67,"Velocity":70,"Duration":170454,"SoundDuration":170454,"Delta":74004582},{"NoteNumber":91,"Velocity":79,"Duration":76704,"SoundDuration":76704,"Delta":74089810},{"NoteNumber":79,"Velocity":67,"Duration":76704,"SoundDuration":76704,"Delta":74089810},{"NoteNumber":79,"Velocity":75,"Duration":166666,"SoundDuration":166666,"Delta":74175037},{"NoteNumber":91,"Velocity":90,"Duration":166666,"SoundDuration":166666,"Delta":74175037},{"NoteNumber":46,"Velocity":70,"Duration":166666,"SoundDuration":166666,"Delta":74175037},{"NoteNumber":86,"Velocity":78,"Duration":166666,"SoundDuration":166666,"Delta":74341704},{"NoteNumber":82,"Velocity":66,"Duration":166666,"SoundDuration":166666,"Delta":74341704},{"NoteNumber":79,"Velocity":72,"Duration":142857,"SoundDuration":142857,"Delta":74508370},{"NoteNumber":91,"Velocity":85,"Duration":142857,"SoundDuration":142857,"Delta":74508370},{"NoteNumber":67,"Velocity":72,"Duration":142857,"SoundDuration":142857,"Delta":74508370},{"NoteNumber":56,"Velocity":55,"Duration":313311,"SoundDuration":313311,"Delta":74508370},{"NoteNumber":62,"Velocity":66,"Duration":313311,"SoundDuration":313311,"Delta":74508370},{"NoteNumber":58,"Velocity":55,"Duration":313311,"SoundDuration":313311,"Delta":74508370},{"NoteNumber":65,"Velocity":70,"Duration":170454,"SoundDuration":170454,"Delta":74651228},{"NoteNumber":89,"Velocity":81,"Duration":76704,"SoundDuration":76704,"Delta":74736455},{"NoteNumber":77,"Velocity":68,"Duration":76704,"SoundDuration":76704,"Delta":74736455},{"NoteNumber":89,"Velocity":88,"Duration":166666,"SoundDuration":166666,"Delta":74821682},{"NoteNumber":77,"Velocity":73,"Duration":166666,"SoundDuration":166666,"Delta":74821682},{"NoteNumber":51,"Velocity":72,"Duration":166666,"SoundDuration":166666,"Delta":74821682},{"NoteNumber":82,"Velocity":75,"Duration":166666,"SoundDuration":166666,"Delta":74988349},{"NoteNumber":79,"Velocity":64,"Duration":166666,"SoundDuration":166666,"Delta":74988349},{"NoteNumber":77,"Velocity":69,"Duration":142857,"SoundDuration":142857,"Delta":75155016},{"NoteNumber":89,"Velocity":82,"Duration":142857,"SoundDuration":142857,"Delta":75155016},{"NoteNumber":65,"Velocity":72,"Duration":142857,"SoundDuration":142857,"Delta":75155016},{"NoteNumber":55,"Velocity":57,"Duration":313311,"SoundDuration":313311,"Delta":75155016},{"NoteNumber":58,"Velocity":68,"Duration":313311,"SoundDuration":313311,"Delta":75155016},{"NoteNumber":63,"Velocity":70,"Duration":170454,"SoundDuration":170454,"Delta":75297873},{"NoteNumber":75,"Velocity":64,"Duration":85227,"SoundDuration":85227,"Delta":75383100},{"NoteNumber":87,"Velocity":75,"Duration":85227,"SoundDuration":85227,"Delta":75383100},{"NoteNumber":73,"Velocity":75,"Duration":166666,"SoundDuration":166666,"Delta":75468327},{"NoteNumber":85,"Velocity":90,"Duration":166666,"SoundDuration":166666,"Delta":75468327},{"NoteNumber":41,"Velocity":62,"Duration":333333,"SoundDuration":333333,"Delta":75468327},{"NoteNumber":53,"Velocity":74,"Duration":646645,"SoundDuration":646645,"Delta":75468327},{"NoteNumber":77,"Velocity":64,"Duration":166666,"SoundDuration":166666,"Delta":75634994},{"NoteNumber":80,"Velocity":75,"Duration":166666,"SoundDuration":166666,"Delta":75634994},{"NoteNumber":85,"Velocity":84,"Duration":142857,"SoundDuration":142857,"Delta":75801661},{"NoteNumber":73,"Velocity":70,"Duration":142857,"SoundDuration":142857,"Delta":75801661},{"NoteNumber":61,"Velocity":72,"Duration":142857,"SoundDuration":142857,"Delta":75801661},{"NoteNumber":56,"Velocity":68,"Duration":313311,"SoundDuration":313311,"Delta":75801661},{"NoteNumber":60,"Velocity":70,"Duration":170454,"SoundDuration":170454,"Delta":75944518},{"NoteNumber":84,"Velocity":74,"Duration":85227,"SoundDuration":85227,"Delta":76029745},{"NoteNumber":72,"Velocity":63,"Duration":85227,"SoundDuration":85227,"Delta":76029745},{"NoteNumber":65,"Velocity":92,"Duration":669079,"SoundDuration":669079,"Delta":76114973},{"NoteNumber":37,"Velocity":62,"Duration":340908,"SoundDuration":340908,"Delta":76114973},{"NoteNumber":49,"Velocity":74,"Duration":340908,"SoundDuration":340908,"Delta":76114973},{"NoteNumber":53,"Velocity":55,"Duration":328170,"SoundDuration":328170,"Delta":76455882},{"NoteNumber":58,"Velocity":64,"Duration":328170,"SoundDuration":328170,"Delta":76455882},{"NoteNumber":67,"Velocity":70,"Duration":81673,"SoundDuration":81673,"Delta":76784052},{"NoteNumber":36,"Velocity":63,"Duration":315197,"SoundDuration":315197,"Delta":76784052},{"NoteNumber":48,"Velocity":75,"Duration":315197,"SoundDuration":315197,"Delta":76784052},{"NoteNumber":68,"Velocity":71,"Duration":79649,"SoundDuration":79649,"Delta":76865726},{"NoteNumber":67,"Velocity":71,"Duration":77857,"SoundDuration":77857,"Delta":76945375},{"NoteNumber":68,"Velocity":72,"Duration":76016,"SoundDuration":76016,"Delta":77023233},{"NoteNumber":65,"Velocity":72,"Duration":163043,"SoundDuration":163043,"Delta":77099250},{"NoteNumber":52,"Velocity":57,"Duration":325940,"SoundDuration":325940,"Delta":77099250},{"NoteNumber":60,"Velocity":68,"Duration":325940,"SoundDuration":325940,"Delta":77099250},{"NoteNumber":58,"Velocity":57,"Duration":325940,"SoundDuration":325940,"Delta":77099250},{"NoteNumber":67,"Velocity":73,"Duration":162896,"SoundDuration":162896,"Delta":77262293},{"NoteNumber":68,"Velocity":75,"Duration":80215,"SoundDuration":80215,"Delta":77425190},{"NoteNumber":29,"Velocity":66,"Duration":312365,"SoundDuration":312365,"Delta":77425190},{"NoteNumber":41,"Velocity":78,"Duration":312365,"SoundDuration":312365,"Delta":77425190},{"NoteNumber":70,"Velocity":75,"Duration":78812,"SoundDuration":78812,"Delta":77505405},{"NoteNumber":68,"Velocity":77,"Duration":77321,"SoundDuration":77321,"Delta":77584218},{"NoteNumber":70,"Velocity":77,"Duration":76016,"SoundDuration":76016,"Delta":77661539},{"NoteNumber":67,"Velocity":78,"Duration":163043,"SoundDuration":163043,"Delta":77737555},{"NoteNumber":53,"Velocity":73,"Duration":326087,"SoundDuration":326087,"Delta":77737555},{"NoteNumber":56,"Velocity":73,"Duration":326087,"SoundDuration":326087,"Delta":77737555},{"NoteNumber":60,"Velocity":73,"Duration":326087,"SoundDuration":326087,"Delta":77737555},{"NoteNumber":68,"Velocity":79,"Duration":163043,"SoundDuration":163043,"Delta":77900599},{"NoteNumber":61,"Velocity":48,"Duration":338982,"SoundDuration":338982,"Delta":78063642},{"NoteNumber":67,"Velocity":48,"Duration":338982,"SoundDuration":338982,"Delta":78063642},{"NoteNumber":69,"Velocity":82,"Duration":169491,"SoundDuration":169491,"Delta":78063642},{"NoteNumber":39,"Velocity":57,"Duration":169491,"SoundDuration":169491,"Delta":78063642},{"NoteNumber":51,"Velocity":69,"Duration":169491,"SoundDuration":169491,"Delta":78063642},{"NoteNumber":70,"Velocity":77,"Duration":169491,"SoundDuration":169491,"Delta":78233134},{"NoteNumber":61,"Velocity":44,"Duration":332875,"SoundDuration":332875,"Delta":78402625},{"NoteNumber":67,"Velocity":44,"Duration":332875,"SoundDuration":332875,"Delta":78402625},{"NoteNumber":72,"Velocity":77,"Duration":160462,"SoundDuration":160462,"Delta":78402625},{"NoteNumber":51,"Velocity":54,"Duration":332875,"SoundDuration":332875,"Delta":78402625},{"NoteNumber":58,"Velocity":63,"Duration":332875,"SoundDuration":332875,"Delta":78402625},{"NoteNumber":73,"Velocity":77,"Duration":172413,"SoundDuration":172413,"Delta":78563088},{"NoteNumber":60,"Velocity":69,"Duration":326087,"SoundDuration":326087,"Delta":78735501},{"NoteNumber":68,"Velocity":69,"Duration":326087,"SoundDuration":326087,"Delta":78735501},{"NoteNumber":72,"Velocity":82,"Duration":326087,"SoundDuration":326087,"Delta":78735501},{"NoteNumber":44,"Velocity":60,"Duration":326087,"SoundDuration":326087,"Delta":78735501},{"NoteNumber":51,"Velocity":60,"Duration":326087,"SoundDuration":326087,"Delta":78735501},{"NoteNumber":56,"Velocity":71,"Duration":326087,"SoundDuration":326087,"Delta":78735501},{"NoteNumber":77,"Velocity":83,"Duration":244565,"SoundDuration":244565,"Delta":79061588},{"NoteNumber":59,"Velocity":70,"Duration":244565,"SoundDuration":244565,"Delta":79061588},{"NoteNumber":62,"Velocity":70,"Duration":244565,"SoundDuration":244565,"Delta":79061588},{"NoteNumber":65,"Velocity":70,"Duration":244565,"SoundDuration":244565,"Delta":79061588},{"NoteNumber":68,"Velocity":70,"Duration":244565,"SoundDuration":244565,"Delta":79061588},{"NoteNumber":63,"Velocity":63,"Duration":73369,"SoundDuration":73369,"Delta":79306154},{"NoteNumber":60,"Velocity":63,"Duration":73369,"SoundDuration":73369,"Delta":79306154},{"NoteNumber":75,"Velocity":75,"Duration":73369,"SoundDuration":73369,"Delta":79306154},{"NoteNumber":68,"Velocity":63,"Duration":73369,"SoundDuration":73369,"Delta":79306154},{"NoteNumber":60,"Velocity":71,"Duration":163043,"SoundDuration":163043,"Delta":79387675},{"NoteNumber":75,"Velocity":84,"Duration":163043,"SoundDuration":163043,"Delta":79387675},{"NoteNumber":63,"Velocity":71,"Duration":163043,"SoundDuration":163043,"Delta":79387675},{"NoteNumber":68,"Velocity":71,"Duration":163043,"SoundDuration":163043,"Delta":79387675},{"NoteNumber":68,"Velocity":79,"Duration":331582,"SoundDuration":331582,"Delta":79550719},{"NoteNumber":80,"Velocity":83,"Duration":168539,"SoundDuration":168539,"Delta":79713762},{"NoteNumber":44,"Velocity":61,"Duration":337078,"SoundDuration":337078,"Delta":79713762},{"NoteNumber":56,"Velocity":72,"Duration":337078,"SoundDuration":337078,"Delta":79713762},{"NoteNumber":67,"Velocity":64,"Duration":84269,"SoundDuration":84269,"Delta":79966571},{"NoteNumber":79,"Velocity":77,"Duration":84269,"SoundDuration":84269,"Delta":79966571},{"NoteNumber":65,"Velocity":64,"Duration":679047,"SoundDuration":679047,"Delta":80050841},{"NoteNumber":77,"Velocity":77,"Duration":679047,"SoundDuration":679047,"Delta":80050841},{"NoteNumber":37,"Velocity":62,"Duration":350876,"SoundDuration":350876,"Delta":80050841},{"NoteNumber":49,"Velocity":74,"Duration":350876,"SoundDuration":350876,"Delta":80050841},{"NoteNumber":53,"Velocity":55,"Duration":328170,"SoundDuration":328170,"Delta":80401718},{"NoteNumber":58,"Velocity":64,"Duration":328170,"SoundDuration":328170,"Delta":80401718},{"NoteNumber":67,"Velocity":70,"Duration":161323,"SoundDuration":161323,"Delta":80729889},{"NoteNumber":36,"Velocity":63,"Duration":315197,"SoundDuration":315197,"Delta":80729889},{"NoteNumber":48,"Velocity":75,"Duration":315197,"SoundDuration":315197,"Delta":80729889},{"NoteNumber":79,"Velocity":71,"Duration":52084,"SoundDuration":52084,"Delta":80891212},{"NoteNumber":80,"Velocity":72,"Duration":51283,"SoundDuration":51283,"Delta":80943297},{"NoteNumber":79,"Velocity":71,"Duration":50506,"SoundDuration":50506,"Delta":80994580},{"NoteNumber":65,"Velocity":61,"Duration":163043,"SoundDuration":163043,"Delta":81045086},{"NoteNumber":77,"Velocity":72,"Duration":163043,"SoundDuration":163043,"Delta":81045086},{"NoteNumber":58,"Velocity":57,"Duration":325940,"SoundDuration":325940,"Delta":81045086},{"NoteNumber":64,"Velocity":68,"Duration":325940,"SoundDuration":325940,"Delta":81045086},{"NoteNumber":60,"Velocity":57,"Duration":325940,"SoundDuration":325940,"Delta":81045086},{"NoteNumber":67,"Velocity":61,"Duration":162896,"SoundDuration":162896,"Delta":81208130},{"NoteNumber":79,"Velocity":73,"Duration":162896,"SoundDuration":162896,"Delta":81208130},{"NoteNumber":68,"Velocity":70,"Duration":159027,"SoundDuration":159027,"Delta":81371026},{"NoteNumber":29,"Velocity":66,"Duration":312365,"SoundDuration":312365,"Delta":81371026},{"NoteNumber":41,"Velocity":78,"Duration":312365,"SoundDuration":312365,"Delta":81371026},{"NoteNumber":80,"Velocity":71,"Duration":51679,"SoundDuration":51679,"Delta":81530054},{"NoteNumber":82,"Velocity":71,"Duration":51151,"SoundDuration":51151,"Delta":81581734},{"NoteNumber":80,"Velocity":71,"Duration":50506,"SoundDuration":50506,"Delta":81632886},{"NoteNumber":67,"Velocity":66,"Duration":163043,"SoundDuration":163043,"Delta":81683392},{"NoteNumber":79,"Velocity":78,"Duration":163043,"SoundDuration":163043,"Delta":81683392},{"NoteNumber":56,"Velocity":73,"Duration":326087,"SoundDuration":326087,"Delta":81683392},{"NoteNumber":60,"Velocity":73,"Duration":326087,"SoundDuration":326087,"Delta":81683392},{"NoteNumber":65,"Velocity":73,"Duration":326087,"SoundDuration":326087,"Delta":81683392},{"NoteNumber":68,"Velocity":67,"Duration":163043,"SoundDuration":163043,"Delta":81846435},{"NoteNumber":80,"Velocity":79,"Duration":163043,"SoundDuration":163043,"Delta":81846435},{"NoteNumber":69,"Velocity":69,"Duration":163970,"SoundDuration":163970,"Delta":82009479},{"NoteNumber":75,"Velocity":69,"Duration":163970,"SoundDuration":163970,"Delta":82009479},{"NoteNumber":81,"Velocity":82,"Duration":163970,"SoundDuration":163970,"Delta":82009479},{"NoteNumber":39,"Velocity":64,"Duration":163970,"SoundDuration":163970,"Delta":82009479},{"NoteNumber":51,"Velocity":77,"Duration":163970,"SoundDuration":163970,"Delta":82009479},{"NoteNumber":70,"Velocity":69,"Duration":166703,"SoundDuration":166703,"Delta":82173449},{"NoteNumber":82,"Velocity":77,"Duration":166703,"SoundDuration":166703,"Delta":82173449},{"NoteNumber":72,"Velocity":64,"Duration":161325,"SoundDuration":161325,"Delta":82340153},{"NoteNumber":79,"Velocity":64,"Duration":161325,"SoundDuration":161325,"Delta":82340153},{"NoteNumber":84,"Velocity":77,"Duration":161325,"SoundDuration":161325,"Delta":82340153},{"NoteNumber":58,"Velocity":60,"Duration":329902,"SoundDuration":329902,"Delta":82340153},{"NoteNumber":61,"Velocity":60,"Duration":329902,"SoundDuration":329902,"Delta":82340153},{"NoteNumber":63,"Velocity":60,"Duration":329902,"SoundDuration":329902,"Delta":82340153},{"NoteNumber":67,"Velocity":71,"Duration":329902,"SoundDuration":329902,"Delta":82340153},{"NoteNumber":73,"Velocity":64,"Duration":168577,"SoundDuration":168577,"Delta":82501478},{"NoteNumber":85,"Velocity":77,"Duration":168577,"SoundDuration":168577,"Delta":82501478},{"NoteNumber":72,"Velocity":69,"Duration":170454,"SoundDuration":170454,"Delta":82670055},{"NoteNumber":80,"Velocity":69,"Duration":170454,"SoundDuration":170454,"Delta":82670055},{"NoteNumber":84,"Velocity":82,"Duration":170454,"SoundDuration":170454,"Delta":82670055},{"NoteNumber":56,"Velocity":60,"Duration":170454,"SoundDuration":170454,"Delta":82670055},{"NoteNumber":63,"Velocity":60,"Duration":170454,"SoundDuration":170454,"Delta":82670055},{"NoteNumber":68,"Velocity":71,"Duration":170454,"SoundDuration":170454,"Delta":82670055},{"NoteNumber":77,"Velocity":70,"Duration":261171,"SoundDuration":261171,"Delta":83010964},{"NoteNumber":80,"Velocity":70,"Duration":261171,"SoundDuration":261171,"Delta":83010964},{"NoteNumber":89,"Velocity":83,"Duration":261171,"SoundDuration":261171,"Delta":83010964},{"NoteNumber":68,"Velocity":70,"Duration":261171,"SoundDuration":261171,"Delta":83010964},{"NoteNumber":59,"Velocity":70,"Duration":261171,"SoundDuration":261171,"Delta":83010964},{"NoteNumber":62,"Velocity":70,"Duration":261171,"SoundDuration":261171,"Delta":83010964},{"NoteNumber":71,"Velocity":70,"Duration":261171,"SoundDuration":261171,"Delta":83010964},{"NoteNumber":75,"Velocity":63,"Duration":79881,"SoundDuration":79881,"Delta":83272135},{"NoteNumber":80,"Velocity":63,"Duration":79881,"SoundDuration":79881,"Delta":83272135},{"NoteNumber":87,"Velocity":75,"Duration":79881,"SoundDuration":79881,"Delta":83272135},{"NoteNumber":68,"Velocity":63,"Duration":79881,"SoundDuration":79881,"Delta":83272135},{"NoteNumber":60,"Velocity":63,"Duration":79881,"SoundDuration":79881,"Delta":83272135},{"NoteNumber":72,"Velocity":63,"Duration":79881,"SoundDuration":79881,"Delta":83272135},{"NoteNumber":63,"Velocity":63,"Duration":79881,"SoundDuration":79881,"Delta":83272135},{"NoteNumber":75,"Velocity":71,"Duration":172413,"SoundDuration":172413,"Delta":83360893},{"NoteNumber":80,"Velocity":71,"Duration":172413,"SoundDuration":172413,"Delta":83360893},{"NoteNumber":87,"Velocity":84,"Duration":172413,"SoundDuration":172413,"Delta":83360893},{"NoteNumber":68,"Velocity":71,"Duration":172413,"SoundDuration":172413,"Delta":83360893},{"NoteNumber":72,"Velocity":71,"Duration":172413,"SoundDuration":172413,"Delta":83360893},{"NoteNumber":60,"Velocity":71,"Duration":172413,"SoundDuration":172413,"Delta":83360893},{"NoteNumber":63,"Velocity":71,"Duration":172413,"SoundDuration":172413,"Delta":83360893},{"NoteNumber":53,"Velocity":61,"Duration":379310,"SoundDuration":379310,"Delta":83576410},{"NoteNumber":87,"Velocity":66,"Duration":86206,"SoundDuration":86206,"Delta":83619513},{"NoteNumber":75,"Velocity":66,"Duration":86206,"SoundDuration":86206,"Delta":83619513},{"NoteNumber":60,"Velocity":61,"Duration":336206,"SoundDuration":336206,"Delta":83619513},{"NoteNumber":63,"Velocity":61,"Duration":293103,"SoundDuration":293103,"Delta":83662617},{"NoteNumber":73,"Velocity":70,"Duration":250000,"SoundDuration":250000,"Delta":83705720},{"NoteNumber":81,"Velocity":70,"Duration":250000,"SoundDuration":250000,"Delta":83705720},{"NoteNumber":85,"Velocity":83,"Duration":250000,"SoundDuration":250000,"Delta":83705720},{"NoteNumber":69,"Velocity":72,"Duration":250000,"SoundDuration":250000,"Delta":83705720},{"NoteNumber":72,"Velocity":64,"Duration":83333,"SoundDuration":83333,"Delta":83955720},{"NoteNumber":84,"Velocity":77,"Duration":83333,"SoundDuration":83333,"Delta":83955720},{"NoteNumber":46,"Velocity":66,"Duration":344961,"SoundDuration":344961,"Delta":83955720},{"NoteNumber":53,"Velocity":66,"Duration":303294,"SoundDuration":303294,"Delta":83997387},{"NoteNumber":70,"Velocity":70,"Duration":174418,"SoundDuration":174418,"Delta":84039054},{"NoteNumber":82,"Velocity":83,"Duration":174418,"SoundDuration":174418,"Delta":84039054},{"NoteNumber":61,"Velocity":78,"Duration":261627,"SoundDuration":261627,"Delta":84039054},{"NoteNumber":51,"Velocity":61,"Duration":340018,"SoundDuration":340018,"Delta":84300681},{"NoteNumber":58,"Velocity":61,"Duration":296413,"SoundDuration":296413,"Delta":84344286},{"NoteNumber":70,"Velocity":64,"Duration":252808,"SoundDuration":252808,"Delta":84387891},{"NoteNumber":78,"Velocity":64,"Duration":252808,"SoundDuration":252808,"Delta":84387891},{"NoteNumber":82,"Velocity":77,"Duration":252808,"SoundDuration":252808,"Delta":84387891},{"NoteNumber":66,"Velocity":72,"Duration":252808,"SoundDuration":252808,"Delta":84387891},{"NoteNumber":72,"Velocity":64,"Duration":84269,"SoundDuration":84269,"Delta":84640700},{"NoteNumber":84,"Velocity":77,"Duration":84269,"SoundDuration":84269,"Delta":84640700},{"NoteNumber":46,"Velocity":57,"Duration":345445,"SoundDuration":345445,"Delta":84640700},{"NoteNumber":53,"Velocity":57,"Duration":303310,"SoundDuration":303310,"Delta":84682834},{"NoteNumber":73,"Velocity":68,"Duration":348894,"SoundDuration":348894,"Delta":84724969},{"NoteNumber":77,"Velocity":68,"Duration":348894,"SoundDuration":348894,"Delta":84724969},{"NoteNumber":85,"Velocity":81,"Duration":348894,"SoundDuration":348894,"Delta":84724969},{"NoteNumber":61,"Velocity":68,"Duration":261175,"SoundDuration":261175,"Delta":84724969},{"NoteNumber":39,"Velocity":57,"Duration":339115,"SoundDuration":339115,"Delta":84986145},{"NoteNumber":46,"Velocity":57,"Duration":295256,"SoundDuration":295256,"Delta":85030004},{"NoteNumber":75,"Velocity":67,"Duration":251396,"SoundDuration":251396,"Delta":85073864},{"NoteNumber":73,"Velocity":67,"Duration":251396,"SoundDuration":251396,"Delta":85073864},{"NoteNumber":85,"Velocity":79,"Duration":251396,"SoundDuration":251396,"Delta":85073864},{"NoteNumber":78,"Velocity":67,"Duration":251396,"SoundDuration":251396,"Delta":85073864},{"NoteNumber":54,"Velocity":68,"Duration":251396,"SoundDuration":251396,"Delta":85073864},{"NoteNumber":72,"Velocity":63,"Duration":83798,"SoundDuration":83798,"Delta":85325260},{"NoteNumber":84,"Velocity":75,"Duration":83798,"SoundDuration":83798,"Delta":85325260},{"NoteNumber":34,"Velocity":57,"Duration":346956,"SoundDuration":346956,"Delta":85325260},{"NoteNumber":41,"Velocity":57,"Duration":305057,"SoundDuration":305057,"Delta":85367160},{"NoteNumber":70,"Velocity":69,"Duration":350876,"SoundDuration":350876,"Delta":85409059},{"NoteNumber":77,"Velocity":69,"Duration":350876,"SoundDuration":350876,"Delta":85409059},{"NoteNumber":82,"Velocity":82,"Duration":350876,"SoundDuration":350876,"Delta":85409059},{"NoteNumber":49,"Velocity":68,"Duration":263157,"SoundDuration":263157,"Delta":85409059},{"NoteNumber":39,"Velocity":56,"Duration":339115,"SoundDuration":339115,"Delta":85672217},{"NoteNumber":46,"Velocity":56,"Duration":295256,"SoundDuration":295256,"Delta":85716077},{"NoteNumber":68,"Velocity":67,"Duration":251396,"SoundDuration":251396,"Delta":85759936},{"NoteNumber":75,"Velocity":67,"Duration":251396,"SoundDuration":251396,"Delta":85759936},{"NoteNumber":80,"Velocity":79,"Duration":251396,"SoundDuration":251396,"Delta":85759936},{"NoteNumber":70,"Velocity":67,"Duration":251396,"SoundDuration":251396,"Delta":85759936},{"NoteNumber":54,"Velocity":67,"Duration":251396,"SoundDuration":251396,"Delta":85759936},{"NoteNumber":66,"Velocity":62,"Duration":83798,"SoundDuration":83798,"Delta":86011333},{"NoteNumber":78,"Velocity":74,"Duration":83798,"SoundDuration":83798,"Delta":86011333},{"NoteNumber":46,"Velocity":61,"Duration":341977,"SoundDuration":341977,"Delta":86011333},{"NoteNumber":53,"Velocity":61,"Duration":300077,"SoundDuration":300077,"Delta":86053232},{"NoteNumber":73,"Velocity":66,"Duration":171472,"SoundDuration":171472,"Delta":86095132},{"NoteNumber":77,"Velocity":78,"Duration":171472,"SoundDuration":171472,"Delta":86095132},{"NoteNumber":65,"Velocity":66,"Duration":171472,"SoundDuration":171472,"Delta":86095132},{"NoteNumber":61,"Velocity":72,"Duration":258178,"SoundDuration":258178,"Delta":86095132},{"NoteNumber":45,"Velocity":64,"Duration":84007,"SoundDuration":84007,"Delta":86440015},{"NoteNumber":33,"Velocity":55,"Duration":84007,"SoundDuration":84007,"Delta":86440015},{"NoteNumber":46,"Velocity":64,"Duration":83210,"SoundDuration":83210,"Delta":86524023},{"NoteNumber":34,"Velocity":55,"Duration":83210,"SoundDuration":83210,"Delta":86524023},{"NoteNumber":48,"Velocity":66,"Duration":82872,"SoundDuration":82872,"Delta":86607234},{"NoteNumber":36,"Velocity":56,"Duration":82872,"SoundDuration":82872,"Delta":86607234},{"NoteNumber":49,"Velocity":67,"Duration":82447,"SoundDuration":82447,"Delta":86690106},{"NoteNumber":37,"Velocity":56,"Duration":82447,"SoundDuration":82447,"Delta":86690106},{"NoteNumber":51,"Velocity":67,"Duration":82147,"SoundDuration":82147,"Delta":86772554},{"NoteNumber":39,"Velocity":56,"Duration":82147,"SoundDuration":82147,"Delta":86772554},{"NoteNumber":53,"Velocity":68,"Duration":81848,"SoundDuration":81848,"Delta":86854702},{"NoteNumber":41,"Velocity":57,"Duration":81848,"SoundDuration":81848,"Delta":86854702},{"NoteNumber":55,"Velocity":69,"Duration":81521,"SoundDuration":81521,"Delta":86936550},{"NoteNumber":43,"Velocity":58,"Duration":81521,"SoundDuration":81521,"Delta":86936550},{"NoteNumber":57,"Velocity":69,"Duration":81110,"SoundDuration":81110,"Delta":87018072},{"NoteNumber":45,"Velocity":58,"Duration":81110,"SoundDuration":81110,"Delta":87018072},{"NoteNumber":58,"Velocity":70,"Duration":80819,"SoundDuration":80819,"Delta":87099183},{"NoteNumber":46,"Velocity":59,"Duration":80819,"SoundDuration":80819,"Delta":87099183},{"NoteNumber":60,"Velocity":71,"Duration":80530,"SoundDuration":80530,"Delta":87180002},{"NoteNumber":48,"Velocity":60,"Duration":80530,"SoundDuration":80530,"Delta":87180002},{"NoteNumber":61,"Velocity":71,"Duration":80213,"SoundDuration":80213,"Delta":87260532},{"NoteNumber":49,"Velocity":60,"Duration":80213,"SoundDuration":80213,"Delta":87260532},{"NoteNumber":63,"Velocity":72,"Duration":79815,"SoundDuration":79815,"Delta":87340746},{"NoteNumber":51,"Velocity":61,"Duration":79815,"SoundDuration":79815,"Delta":87340746},{"NoteNumber":65,"Velocity":73,"Duration":79533,"SoundDuration":79533,"Delta":87420562},{"NoteNumber":53,"Velocity":61,"Duration":79533,"SoundDuration":79533,"Delta":87420562},{"NoteNumber":67,"Velocity":73,"Duration":79253,"SoundDuration":79253,"Delta":87500096},{"NoteNumber":55,"Velocity":61,"Duration":79253,"SoundDuration":79253,"Delta":87500096},{"NoteNumber":69,"Velocity":74,"Duration":78947,"SoundDuration":78947,"Delta":87579349},{"NoteNumber":57,"Velocity":62,"Duration":78947,"SoundDuration":78947,"Delta":87579349},{"NoteNumber":70,"Velocity":74,"Duration":78561,"SoundDuration":78561,"Delta":87658297},{"NoteNumber":58,"Velocity":62,"Duration":78561,"SoundDuration":78561,"Delta":87658297},{"NoteNumber":72,"Velocity":75,"Duration":78288,"SoundDuration":78288,"Delta":87736858},{"NoteNumber":60,"Velocity":63,"Duration":78288,"SoundDuration":78288,"Delta":87736858},{"NoteNumber":73,"Velocity":77,"Duration":78017,"SoundDuration":78017,"Delta":87815147},{"NoteNumber":61,"Velocity":64,"Duration":78017,"SoundDuration":78017,"Delta":87815147},{"NoteNumber":75,"Velocity":77,"Duration":77720,"SoundDuration":77720,"Delta":87893164},{"NoteNumber":63,"Velocity":64,"Duration":77720,"SoundDuration":77720,"Delta":87893164},{"NoteNumber":77,"Velocity":78,"Duration":77346,"SoundDuration":77346,"Delta":87970884},{"NoteNumber":65,"Velocity":66,"Duration":77346,"SoundDuration":77346,"Delta":87970884},{"NoteNumber":79,"Velocity":77,"Duration":77081,"SoundDuration":77081,"Delta":88048231},{"NoteNumber":67,"Velocity":67,"Duration":77081,"SoundDuration":77081,"Delta":88048231},{"NoteNumber":81,"Velocity":77,"Duration":76818,"SoundDuration":76818,"Delta":88125312},{"NoteNumber":69,"Velocity":65,"Duration":76818,"SoundDuration":76818,"Delta":88125312},{"NoteNumber":82,"Velocity":78,"Duration":76530,"SoundDuration":76530,"Delta":88202131},{"NoteNumber":70,"Velocity":66,"Duration":76530,"SoundDuration":76530,"Delta":88202131},{"NoteNumber":84,"Velocity":79,"Duration":76168,"SoundDuration":76168,"Delta":88278661},{"NoteNumber":72,"Velocity":67,"Duration":76168,"SoundDuration":76168,"Delta":88278661},{"NoteNumber":85,"Velocity":80,"Duration":75911,"SoundDuration":75911,"Delta":88354829},{"NoteNumber":73,"Velocity":68,"Duration":75911,"SoundDuration":75911,"Delta":88354829},{"NoteNumber":87,"Velocity":80,"Duration":75656,"SoundDuration":75656,"Delta":88430741},{"NoteNumber":75,"Velocity":69,"Duration":75656,"SoundDuration":75656,"Delta":88430741},{"NoteNumber":89,"Velocity":81,"Duration":75376,"SoundDuration":75376,"Delta":88506397},{"NoteNumber":77,"Velocity":70,"Duration":75376,"SoundDuration":75376,"Delta":88506397},{"NoteNumber":91,"Velocity":82,"Duration":94569,"SoundDuration":94569,"Delta":88581774},{"NoteNumber":79,"Velocity":71,"Duration":94569,"SoundDuration":94569,"Delta":88581774},{"NoteNumber":93,"Velocity":83,"Duration":89285,"SoundDuration":89285,"Delta":88676344},{"NoteNumber":81,"Velocity":72,"Duration":59523,"SoundDuration":59523,"Delta":88676344},{"NoteNumber":94,"Velocity":92,"Duration":176470,"SoundDuration":176470,"Delta":88765629},{"NoteNumber":82,"Velocity":92,"Duration":176470,"SoundDuration":176470,"Delta":88765629},{"NoteNumber":96,"Velocity":85,"Duration":88235,"SoundDuration":88235,"Delta":89030335},{"NoteNumber":85,"Velocity":77,"Duration":162162,"SoundDuration":162162,"Delta":89118570},{"NoteNumber":94,"Velocity":91,"Duration":162162,"SoundDuration":162162,"Delta":89118570},{"NoteNumber":91,"Velocity":91,"Duration":162162,"SoundDuration":162162,"Delta":89118570},{"NoteNumber":27,"Velocity":68,"Duration":162162,"SoundDuration":162162,"Delta":89118570},{"NoteNumber":39,"Velocity":80,"Duration":162162,"SoundDuration":162162,"Delta":89118570},{"NoteNumber":90,"Velocity":85,"Duration":162162,"SoundDuration":162162,"Delta":89280733},{"NoteNumber":84,"Velocity":72,"Duration":162162,"SoundDuration":162162,"Delta":89280733},{"NoteNumber":93,"Velocity":85,"Duration":162162,"SoundDuration":162162,"Delta":89280733},{"NoteNumber":85,"Velocity":75,"Duration":352941,"SoundDuration":352941,"Delta":89442895},{"NoteNumber":91,"Velocity":90,"Duration":352941,"SoundDuration":352941,"Delta":89442895},{"NoteNumber":94,"Velocity":90,"Duration":352941,"SoundDuration":352941,"Delta":89442895},{"NoteNumber":51,"Velocity":61,"Duration":176470,"SoundDuration":176470,"Delta":89442895},{"NoteNumber":63,"Velocity":72,"Duration":176470,"SoundDuration":176470,"Delta":89442895},{"NoteNumber":84,"Velocity":72,"Duration":340908,"SoundDuration":340908,"Delta":89795836},{"NoteNumber":91,"Velocity":85,"Duration":340908,"SoundDuration":340908,"Delta":89795836},{"NoteNumber":96,"Velocity":85,"Duration":340908,"SoundDuration":340908,"Delta":89795836},{"NoteNumber":72,"Velocity":67,"Duration":340908,"SoundDuration":340908,"Delta":89795836},{"NoteNumber":67,"Velocity":67,"Duration":340908,"SoundDuration":340908,"Delta":89795836},{"NoteNumber":63,"Velocity":67,"Duration":340908,"SoundDuration":340908,"Delta":89795836},{"NoteNumber":75,"Velocity":79,"Duration":340908,"SoundDuration":340908,"Delta":89795836},{"NoteNumber":80,"Velocity":74,"Duration":338982,"SoundDuration":338982,"Delta":90136745},{"NoteNumber":84,"Velocity":74,"Duration":338982,"SoundDuration":338982,"Delta":90136745},{"NoteNumber":92,"Velocity":88,"Duration":338982,"SoundDuration":338982,"Delta":90136745},{"NoteNumber":77,"Velocity":77,"Duration":338982,"SoundDuration":338982,"Delta":90136745},{"NoteNumber":72,"Velocity":64,"Duration":338982,"SoundDuration":338982,"Delta":90136745},{"NoteNumber":65,"Velocity":64,"Duration":338982,"SoundDuration":338982,"Delta":90136745},{"NoteNumber":75,"Velocity":72,"Duration":355029,"SoundDuration":355029,"Delta":90475728},{"NoteNumber":80,"Velocity":72,"Duration":355029,"SoundDuration":355029,"Delta":90475728},{"NoteNumber":87,"Velocity":85,"Duration":355029,"SoundDuration":355029,"Delta":90475728},{"NoteNumber":60,"Velocity":61,"Duration":355029,"SoundDuration":355029,"Delta":90475728},{"NoteNumber":68,"Velocity":61,"Duration":355029,"SoundDuration":355029,"Delta":90475728},{"NoteNumber":72,"Velocity":72,"Duration":355029,"SoundDuration":355029,"Delta":90475728},{"NoteNumber":77,"Velocity":72,"Duration":201342,"SoundDuration":201342,"Delta":90830757},{"NoteNumber":80,"Velocity":72,"Duration":201342,"SoundDuration":201342,"Delta":90830757},{"NoteNumber":89,"Velocity":85,"Duration":201342,"SoundDuration":201342,"Delta":90830757},{"NoteNumber":61,"Velocity":61,"Duration":201342,"SoundDuration":201342,"Delta":90830757},{"NoteNumber":68,"Velocity":61,"Duration":201342,"SoundDuration":201342,"Delta":90830757},{"NoteNumber":73,"Velocity":72,"Duration":201342,"SoundDuration":201342,"Delta":90830757},{"NoteNumber":61,"Velocity":67,"Duration":288461,"SoundDuration":288461,"Delta":91233442},{"NoteNumber":55,"Velocity":56,"Duration":288461,"SoundDuration":288461,"Delta":91233442},{"NoteNumber":63,"Velocity":67,"Duration":769231,"SoundDuration":769231,"Delta":91233442},{"NoteNumber":39,"Velocity":58,"Duration":769231,"SoundDuration":769231,"Delta":91233442},{"NoteNumber":51,"Velocity":69,"Duration":769231,"SoundDuration":769231,"Delta":91233442},{"NoteNumber":55,"Velocity":56,"Duration":86538,"SoundDuration":86538,"Delta":91521904},{"NoteNumber":61,"Velocity":67,"Duration":86538,"SoundDuration":86538,"Delta":91521904},{"NoteNumber":55,"Velocity":61,"Duration":792779,"SoundDuration":792779,"Delta":91618057},{"NoteNumber":61,"Velocity":72,"Duration":792779,"SoundDuration":792779,"Delta":91618057},{"NoteNumber":70,"Velocity":72,"Duration":792779,"SoundDuration":792779,"Delta":91618057},{"NoteNumber":27,"Velocity":51,"Duration":204081,"SoundDuration":204081,"Delta":92002673},{"NoteNumber":39,"Velocity":61,"Duration":204081,"SoundDuration":204081,"Delta":92002673},{"NoteNumber":56,"Velocity":56,"Duration":204081,"SoundDuration":204081,"Delta":92410836},{"NoteNumber":60,"Velocity":56,"Duration":204081,"SoundDuration":204081,"Delta":92410836},{"NoteNumber":68,"Velocity":67,"Duration":204081,"SoundDuration":204081,"Delta":92410836},{"NoteNumber":32,"Velocity":51,"Duration":204081,"SoundDuration":204081,"Delta":92410836},{"NoteNumber":44,"Velocity":61,"Duration":204081,"SoundDuration":204081,"Delta":92410836},{"NoteNumber":72,"Velocity":66,"Duration":204081,"SoundDuration":204081,"Delta":93227163},{"NoteNumber":84,"Velocity":78,"Duration":204081,"SoundDuration":204081,"Delta":93227163},{"NoteNumber":24,"Velocity":47,"Duration":204081,"SoundDuration":204081,"Delta":93227163},{"NoteNumber":36,"Velocity":55,"Duration":204081,"SoundDuration":204081,"Delta":93227163},{"NoteNumber":60,"Velocity":42,"Duration":182926,"SoundDuration":182926,"Delta":93635327},{"NoteNumber":72,"Velocity":51,"Duration":182926,"SoundDuration":182926,"Delta":93635327},{"NoteNumber":36,"Velocity":34,"Duration":182926,"SoundDuration":182926,"Delta":93635327},{"NoteNumber":48,"Velocity":41,"Duration":182926,"SoundDuration":182926,"Delta":93635327},{"NoteNumber":60,"Velocity":40,"Duration":91463,"SoundDuration":91463,"Delta":93909717},{"NoteNumber":72,"Velocity":47,"Duration":91463,"SoundDuration":91463,"Delta":93909717},{"NoteNumber":36,"Velocity":33,"Duration":91463,"SoundDuration":91463,"Delta":93909717},{"NoteNumber":48,"Velocity":39,"Duration":91463,"SoundDuration":91463,"Delta":93909717},{"NoteNumber":61,"Velocity":45,"Duration":384615,"SoundDuration":384615,"Delta":94001180},{"NoteNumber":72,"Velocity":55,"Duration":384615,"SoundDuration":384615,"Delta":94001180},{"NoteNumber":40,"Velocity":44,"Duration":384615,"SoundDuration":384615,"Delta":94001180},{"NoteNumber":49,"Velocity":44,"Duration":384615,"SoundDuration":384615,"Delta":94001180},{"NoteNumber":60,"Velocity":41,"Duration":180723,"SoundDuration":180723,"Delta":94385796},{"NoteNumber":72,"Velocity":51,"Duration":180723,"SoundDuration":180723,"Delta":94385796},{"NoteNumber":28,"Velocity":35,"Duration":180723,"SoundDuration":180723,"Delta":94385796},{"NoteNumber":40,"Velocity":42,"Duration":180723,"SoundDuration":180723,"Delta":94385796},{"NoteNumber":60,"Velocity":39,"Duration":90361,"SoundDuration":90361,"Delta":94656880},{"NoteNumber":72,"Velocity":47,"Duration":90361,"SoundDuration":90361,"Delta":94656880},{"NoteNumber":40,"Velocity":36,"Duration":90361,"SoundDuration":90361,"Delta":94656880},{"NoteNumber":48,"Velocity":44,"Duration":90361,"SoundDuration":90361,"Delta":94656880},{"NoteNumber":63,"Velocity":49,"Duration":379746,"SoundDuration":379746,"Delta":94747242},{"NoteNumber":72,"Velocity":58,"Duration":379746,"SoundDuration":379746,"Delta":94747242},{"NoteNumber":41,"Velocity":40,"Duration":379746,"SoundDuration":379746,"Delta":94747242},{"NoteNumber":51,"Velocity":49,"Duration":379746,"SoundDuration":379746,"Delta":94747242},{"NoteNumber":60,"Velocity":46,"Duration":180723,"SoundDuration":180723,"Delta":95126989},{"NoteNumber":72,"Velocity":55,"Duration":180723,"SoundDuration":180723,"Delta":95126989},{"NoteNumber":29,"Velocity":39,"Duration":180723,"SoundDuration":180723,"Delta":95126989},{"NoteNumber":41,"Velocity":47,"Duration":180723,"SoundDuration":180723,"Delta":95126989},{"NoteNumber":61,"Velocity":44,"Duration":90361,"SoundDuration":90361,"Delta":95398073},{"NoteNumber":72,"Velocity":52,"Duration":90361,"SoundDuration":90361,"Delta":95398073},{"NoteNumber":41,"Velocity":37,"Duration":90361,"SoundDuration":90361,"Delta":95398073},{"NoteNumber":49,"Velocity":45,"Duration":90361,"SoundDuration":90361,"Delta":95398073},{"NoteNumber":65,"Velocity":51,"Duration":379746,"SoundDuration":379746,"Delta":95488435},{"NoteNumber":72,"Velocity":62,"Duration":379746,"SoundDuration":379746,"Delta":95488435},{"NoteNumber":43,"Velocity":44,"Duration":379746,"SoundDuration":379746,"Delta":95488435},{"NoteNumber":53,"Velocity":51,"Duration":379746,"SoundDuration":379746,"Delta":95488435},{"NoteNumber":60,"Velocity":49,"Duration":180723,"SoundDuration":180723,"Delta":95868182},{"NoteNumber":72,"Velocity":58,"Duration":180723,"SoundDuration":180723,"Delta":95868182},{"NoteNumber":31,"Velocity":39,"Duration":180723,"SoundDuration":180723,"Delta":95868182},{"NoteNumber":43,"Velocity":48,"Duration":180723,"SoundDuration":180723,"Delta":95868182},{"NoteNumber":64,"Velocity":47,"Duration":90361,"SoundDuration":90361,"Delta":96139266},{"NoteNumber":72,"Velocity":55,"Duration":90361,"SoundDuration":90361,"Delta":96139266},{"NoteNumber":43,"Velocity":39,"Duration":90361,"SoundDuration":90361,"Delta":96139266},{"NoteNumber":52,"Velocity":45,"Duration":90361,"SoundDuration":90361,"Delta":96139266},{"NoteNumber":67,"Velocity":55,"Duration":377358,"SoundDuration":377358,"Delta":96229628},{"NoteNumber":72,"Velocity":67,"Duration":377358,"SoundDuration":377358,"Delta":96229628},{"NoteNumber":44,"Velocity":51,"Duration":377358,"SoundDuration":377358,"Delta":96229628},{"NoteNumber":55,"Velocity":51,"Duration":377358,"SoundDuration":377358,"Delta":96229628},{"NoteNumber":60,"Velocity":51,"Duration":180723,"SoundDuration":180723,"Delta":96606986},{"NoteNumber":72,"Velocity":61,"Duration":180723,"SoundDuration":180723,"Delta":96606986},{"NoteNumber":32,"Velocity":42,"Duration":180723,"SoundDuration":180723,"Delta":96606986},{"NoteNumber":44,"Velocity":51,"Duration":180723,"SoundDuration":180723,"Delta":96606986},{"NoteNumber":65,"Velocity":48,"Duration":90361,"SoundDuration":90361,"Delta":96878071},{"NoteNumber":72,"Velocity":56,"Duration":90361,"SoundDuration":90361,"Delta":96878071},{"NoteNumber":44,"Velocity":43,"Duration":90361,"SoundDuration":90361,"Delta":96878071},{"NoteNumber":53,"Velocity":51,"Duration":90361,"SoundDuration":90361,"Delta":96878071},{"NoteNumber":68,"Velocity":56,"Duration":377358,"SoundDuration":377358,"Delta":96968432},{"NoteNumber":72,"Velocity":68,"Duration":377358,"SoundDuration":377358,"Delta":96968432},{"NoteNumber":44,"Velocity":48,"Duration":377358,"SoundDuration":377358,"Delta":96968432},{"NoteNumber":56,"Velocity":56,"Duration":377358,"SoundDuration":377358,"Delta":96968432},{"NoteNumber":60,"Velocity":55,"Duration":179640,"SoundDuration":179640,"Delta":97345791},{"NoteNumber":72,"Velocity":66,"Duration":179640,"SoundDuration":179640,"Delta":97345791},{"NoteNumber":32,"Velocity":47,"Duration":179640,"SoundDuration":179640,"Delta":97345791},{"NoteNumber":44,"Velocity":56,"Duration":179640,"SoundDuration":179640,"Delta":97345791},{"NoteNumber":66,"Velocity":51,"Duration":89820,"SoundDuration":89820,"Delta":97615252},{"NoteNumber":72,"Velocity":61,"Duration":89820,"SoundDuration":89820,"Delta":97615252},{"NoteNumber":44,"Velocity":45,"Duration":89820,"SoundDuration":89820,"Delta":97615252},{"NoteNumber":54,"Velocity":52,"Duration":89820,"SoundDuration":89820,"Delta":97615252},{"NoteNumber":67,"Velocity":55,"Duration":405405,"SoundDuration":405405,"Delta":97705072},{"NoteNumber":72,"Velocity":68,"Duration":405405,"SoundDuration":405405,"Delta":97705072},{"NoteNumber":64,"Velocity":55,"Duration":405405,"SoundDuration":405405,"Delta":97705072},{"NoteNumber":76,"Velocity":68,"Duration":405405,"SoundDuration":405405,"Delta":97705072},{"NoteNumber":43,"Velocity":46,"Duration":405405,"SoundDuration":405405,"Delta":97705072},{"NoteNumber":55,"Velocity":55,"Duration":405405,"SoundDuration":405405,"Delta":97705072},{"NoteNumber":84,"Velocity":71,"Duration":714316,"SoundDuration":714316,"Delta":98110478},{"NoteNumber":88,"Velocity":71,"Duration":714316,"SoundDuration":714316,"Delta":98110478},{"NoteNumber":76,"Velocity":71,"Duration":714316,"SoundDuration":714316,"Delta":98110478},{"NoteNumber":55,"Velocity":52,"Duration":86705,"SoundDuration":86705,"Delta":98110478},{"NoteNumber":67,"Velocity":52,"Duration":86705,"SoundDuration":86705,"Delta":98110478},{"NoteNumber":55,"Velocity":54,"Duration":98039,"SoundDuration":98039,"Delta":98283888},{"NoteNumber":67,"Velocity":54,"Duration":98039,"SoundDuration":98039,"Delta":98283888},{"NoteNumber":57,"Velocity":60,"Duration":172413,"SoundDuration":172413,"Delta":98479967},{"NoteNumber":69,"Velocity":60,"Duration":172413,"SoundDuration":172413,"Delta":98479967},{"NoteNumber":55,"Velocity":56,"Duration":172413,"SoundDuration":172413,"Delta":98652381},{"NoteNumber":67,"Velocity":56,"Duration":172413,"SoundDuration":172413,"Delta":98652381},{"NoteNumber":74,"Velocity":66,"Duration":168539,"SoundDuration":168539,"Delta":98824794},{"NoteNumber":83,"Velocity":66,"Duration":168539,"SoundDuration":168539,"Delta":98824794},{"NoteNumber":86,"Velocity":66,"Duration":168539,"SoundDuration":168539,"Delta":98824794},{"NoteNumber":55,"Velocity":56,"Duration":84269,"SoundDuration":84269,"Delta":98824794},{"NoteNumber":67,"Velocity":56,"Duration":84269,"SoundDuration":84269,"Delta":98824794},{"NoteNumber":76,"Velocity":69,"Duration":177514,"SoundDuration":177514,"Delta":98993334},{"NoteNumber":84,"Velocity":69,"Duration":177514,"SoundDuration":177514,"Delta":98993334},{"NoteNumber":88,"Velocity":69,"Duration":177514,"SoundDuration":177514,"Delta":98993334},{"NoteNumber":55,"Velocity":56,"Duration":88757,"SoundDuration":88757,"Delta":98993334},{"NoteNumber":67,"Velocity":56,"Duration":88757,"SoundDuration":88757,"Delta":98993334},{"NoteNumber":89,"Velocity":71,"Duration":335195,"SoundDuration":335195,"Delta":99170848},{"NoteNumber":86,"Velocity":71,"Duration":335195,"SoundDuration":335195,"Delta":99170848},{"NoteNumber":77,"Velocity":71,"Duration":335195,"SoundDuration":335195,"Delta":99170848},{"NoteNumber":55,"Velocity":65,"Duration":167597,"SoundDuration":167597,"Delta":99170848},{"NoteNumber":67,"Velocity":65,"Duration":167597,"SoundDuration":167597,"Delta":99170848},{"NoteNumber":76,"Velocity":71,"Duration":251396,"SoundDuration":251396,"Delta":99506044},{"NoteNumber":79,"Velocity":71,"Duration":251396,"SoundDuration":251396,"Delta":99506044},{"NoteNumber":88,"Velocity":71,"Duration":251396,"SoundDuration":251396,"Delta":99506044},{"NoteNumber":62,"Velocity":53,"Duration":335195,"SoundDuration":335195,"Delta":99506044},{"NoteNumber":65,"Velocity":53,"Duration":335195,"SoundDuration":335195,"Delta":99506044},{"NoteNumber":67,"Velocity":53,"Duration":335195,"SoundDuration":335195,"Delta":99506044},{"NoteNumber":71,"Velocity":53,"Duration":335195,"SoundDuration":335195,"Delta":99506044},{"NoteNumber":74,"Velocity":68,"Duration":83798,"SoundDuration":83798,"Delta":99757441},{"NoteNumber":86,"Velocity":68,"Duration":83798,"SoundDuration":83798,"Delta":99757441},{"NoteNumber":76,"Velocity":68,"Duration":335195,"SoundDuration":335195,"Delta":99841239},{"NoteNumber":84,"Velocity":68,"Duration":335195,"SoundDuration":335195,"Delta":99841239},{"NoteNumber":88,"Velocity":68,"Duration":335195,"SoundDuration":335195,"Delta":99841239},{"NoteNumber":60,"Velocity":49,"Duration":335195,"SoundDuration":335195,"Delta":99841239},{"NoteNumber":67,"Velocity":49,"Duration":335195,"SoundDuration":335195,"Delta":99841239},{"NoteNumber":72,"Velocity":49,"Duration":335195,"SoundDuration":335195,"Delta":99841239},{"NoteNumber":60,"Velocity":59,"Duration":82872,"SoundDuration":82872,"Delta":100176435},{"NoteNumber":48,"Velocity":50,"Duration":82872,"SoundDuration":82872,"Delta":100176435},{"NoteNumber":64,"Velocity":61,"Duration":82872,"SoundDuration":82872,"Delta":100259308},{"NoteNumber":52,"Velocity":51,"Duration":82872,"SoundDuration":82872,"Delta":100259308},{"NoteNumber":67,"Velocity":62,"Duration":82721,"SoundDuration":82721,"Delta":100342181},{"NoteNumber":55,"Velocity":52,"Duration":82721,"SoundDuration":82721,"Delta":100342181},{"NoteNumber":71,"Velocity":63,"Duration":82417,"SoundDuration":82417,"Delta":100424902},{"NoteNumber":59,"Velocity":53,"Duration":82417,"SoundDuration":82417,"Delta":100424902},{"NoteNumber":72,"Velocity":64,"Duration":82267,"SoundDuration":82267,"Delta":100507319},{"NoteNumber":60,"Velocity":54,"Duration":82267,"SoundDuration":82267,"Delta":100507319},{"NoteNumber":76,"Velocity":66,"Duration":81967,"SoundDuration":81967,"Delta":100589587},{"NoteNumber":64,"Velocity":56,"Duration":81967,"SoundDuration":81967,"Delta":100589587},{"NoteNumber":79,"Velocity":68,"Duration":81967,"SoundDuration":81967,"Delta":100671554},{"NoteNumber":67,"Velocity":57,"Duration":81967,"SoundDuration":81967,"Delta":100671554},{"NoteNumber":83,"Velocity":68,"Duration":81670,"SoundDuration":81670,"Delta":100753521},{"NoteNumber":71,"Velocity":57,"Duration":81670,"SoundDuration":81670,"Delta":100753521},{"NoteNumber":84,"Velocity":70,"Duration":81521,"SoundDuration":81521,"Delta":100835192},{"NoteNumber":72,"Velocity":62,"Duration":162749,"SoundDuration":162749,"Delta":100835192},{"NoteNumber":88,"Velocity":72,"Duration":81227,"SoundDuration":81227,"Delta":100916713},{"NoteNumber":91,"Velocity":73,"Duration":81081,"SoundDuration":81081,"Delta":100997941},{"NoteNumber":60,"Velocity":56,"Duration":161871,"SoundDuration":161871,"Delta":100997941},{"NoteNumber":96,"Velocity":74,"Duration":80790,"SoundDuration":80790,"Delta":101079023},{"NoteNumber":85,"Velocity":63,"Duration":349905,"SoundDuration":349905,"Delta":101159813},{"NoteNumber":97,"Velocity":75,"Duration":349905,"SoundDuration":349905,"Delta":101159813},{"NoteNumber":61,"Velocity":49,"Duration":349905,"SoundDuration":349905,"Delta":101159813},{"NoteNumber":73,"Velocity":58,"Duration":349905,"SoundDuration":349905,"Delta":101159813},{"NoteNumber":86,"Velocity":67,"Duration":370099,"SoundDuration":370099,"Delta":101509718},{"NoteNumber":98,"Velocity":79,"Duration":370099,"SoundDuration":370099,"Delta":101509718},{"NoteNumber":62,"Velocity":52,"Duration":370099,"SoundDuration":370099,"Delta":101509718},{"NoteNumber":74,"Velocity":62,"Duration":370099,"SoundDuration":370099,"Delta":101509718},{"NoteNumber":87,"Velocity":69,"Duration":209790,"SoundDuration":209790,"Delta":101879818},{"NoteNumber":99,"Velocity":82,"Duration":209790,"SoundDuration":209790,"Delta":101879818},{"NoteNumber":63,"Velocity":55,"Duration":209790,"SoundDuration":209790,"Delta":101879818},{"NoteNumber":75,"Velocity":65,"Duration":209790,"SoundDuration":209790,"Delta":101879818},{"NoteNumber":63,"Velocity":42,"Duration":182926,"SoundDuration":182926,"Delta":102299398},{"NoteNumber":75,"Velocity":51,"Duration":182926,"SoundDuration":182926,"Delta":102299398},{"NoteNumber":39,"Velocity":34,"Duration":182926,"SoundDuration":182926,"Delta":102299398},{"NoteNumber":51,"Velocity":41,"Duration":182926,"SoundDuration":182926,"Delta":102299398},{"NoteNumber":63,"Velocity":40,"Duration":91463,"SoundDuration":91463,"Delta":102573789},{"NoteNumber":75,"Velocity":47,"Duration":91463,"SoundDuration":91463,"Delta":102573789},{"NoteNumber":39,"Velocity":33,"Duration":91463,"SoundDuration":91463,"Delta":102573789},{"NoteNumber":51,"Velocity":39,"Duration":91463,"SoundDuration":91463,"Delta":102573789},{"NoteNumber":64,"Velocity":45,"Duration":384615,"SoundDuration":384615,"Delta":102665252},{"NoteNumber":75,"Velocity":55,"Duration":384615,"SoundDuration":384615,"Delta":102665252},{"NoteNumber":43,"Velocity":44,"Duration":384615,"SoundDuration":384615,"Delta":102665252},{"NoteNumber":52,"Velocity":44,"Duration":384615,"SoundDuration":384615,"Delta":102665252},{"NoteNumber":63,"Velocity":41,"Duration":180723,"SoundDuration":180723,"Delta":103049867},{"NoteNumber":75,"Velocity":51,"Duration":180723,"SoundDuration":180723,"Delta":103049867},{"NoteNumber":31,"Velocity":35,"Duration":180723,"SoundDuration":180723,"Delta":103049867},{"NoteNumber":43,"Velocity":42,"Duration":180723,"SoundDuration":180723,"Delta":103049867},{"NoteNumber":63,"Velocity":39,"Duration":90361,"SoundDuration":90361,"Delta":103320952},{"NoteNumber":75,"Velocity":47,"Duration":90361,"SoundDuration":90361,"Delta":103320952},{"NoteNumber":43,"Velocity":36,"Duration":90361,"SoundDuration":90361,"Delta":103320952},{"NoteNumber":51,"Velocity":44,"Duration":90361,"SoundDuration":90361,"Delta":103320952},{"NoteNumber":66,"Velocity":49,"Duration":379746,"SoundDuration":379746,"Delta":103411313},{"NoteNumber":75,"Velocity":58,"Duration":379746,"SoundDuration":379746,"Delta":103411313},{"NoteNumber":44,"Velocity":40,"Duration":379746,"SoundDuration":379746,"Delta":103411313},{"NoteNumber":54,"Velocity":49,"Duration":379746,"SoundDuration":379746,"Delta":103411313},{"NoteNumber":63,"Velocity":46,"Duration":180723,"SoundDuration":180723,"Delta":103791060},{"NoteNumber":75,"Velocity":55,"Duration":180723,"SoundDuration":180723,"Delta":103791060},{"NoteNumber":32,"Velocity":39,"Duration":180723,"SoundDuration":180723,"Delta":103791060},{"NoteNumber":44,"Velocity":47,"Duration":180723,"SoundDuration":180723,"Delta":103791060},{"NoteNumber":64,"Velocity":44,"Duration":90361,"SoundDuration":90361,"Delta":104062145},{"NoteNumber":75,"Velocity":52,"Duration":90361,"SoundDuration":90361,"Delta":104062145},{"NoteNumber":44,"Velocity":37,"Duration":90361,"SoundDuration":90361,"Delta":104062145},{"NoteNumber":52,"Velocity":45,"Duration":90361,"SoundDuration":90361,"Delta":104062145},{"NoteNumber":68,"Velocity":51,"Duration":379746,"SoundDuration":379746,"Delta":104152506},{"NoteNumber":75,"Velocity":62,"Duration":379746,"SoundDuration":379746,"Delta":104152506},{"NoteNumber":46,"Velocity":44,"Duration":379746,"SoundDuration":379746,"Delta":104152506},{"NoteNumber":56,"Velocity":51,"Duration":379746,"SoundDuration":379746,"Delta":104152506},{"NoteNumber":63,"Velocity":49,"Duration":180723,"SoundDuration":180723,"Delta":104532253},{"NoteNumber":75,"Velocity":58,"Duration":180723,"SoundDuration":180723,"Delta":104532253},{"NoteNumber":34,"Velocity":39,"Duration":180723,"SoundDuration":180723,"Delta":104532253},{"NoteNumber":46,"Velocity":48,"Duration":180723,"SoundDuration":180723,"Delta":104532253},{"NoteNumber":67,"Velocity":47,"Duration":90361,"SoundDuration":90361,"Delta":104803338},{"NoteNumber":75,"Velocity":55,"Duration":90361,"SoundDuration":90361,"Delta":104803338},{"NoteNumber":46,"Velocity":38,"Duration":90361,"SoundDuration":90361,"Delta":104803338},{"NoteNumber":55,"Velocity":45,"Duration":90361,"SoundDuration":90361,"Delta":104803338},{"NoteNumber":70,"Velocity":55,"Duration":377358,"SoundDuration":377358,"Delta":104893699},{"NoteNumber":75,"Velocity":67,"Duration":377358,"SoundDuration":377358,"Delta":104893699},{"NoteNumber":47,"Velocity":51,"Duration":377358,"SoundDuration":377358,"Delta":104893699},{"NoteNumber":58,"Velocity":51,"Duration":377358,"SoundDuration":377358,"Delta":104893699},{"NoteNumber":63,"Velocity":51,"Duration":180723,"SoundDuration":180723,"Delta":105271058},{"NoteNumber":75,"Velocity":61,"Duration":180723,"SoundDuration":180723,"Delta":105271058},{"NoteNumber":35,"Velocity":42,"Duration":180723,"SoundDuration":180723,"Delta":105271058},{"NoteNumber":47,"Velocity":51,"Duration":180723,"SoundDuration":180723,"Delta":105271058},{"NoteNumber":68,"Velocity":48,"Duration":90361,"SoundDuration":90361,"Delta":105542142},{"NoteNumber":75,"Velocity":56,"Duration":90361,"SoundDuration":90361,"Delta":105542142},{"NoteNumber":47,"Velocity":43,"Duration":90361,"SoundDuration":90361,"Delta":105542142},{"NoteNumber":56,"Velocity":51,"Duration":90361,"SoundDuration":90361,"Delta":105542142},{"NoteNumber":71,"Velocity":56,"Duration":377358,"SoundDuration":377358,"Delta":105632504},{"NoteNumber":75,"Velocity":68,"Duration":377358,"SoundDuration":377358,"Delta":105632504},{"NoteNumber":47,"Velocity":48,"Duration":377358,"SoundDuration":377358,"Delta":105632504},{"NoteNumber":59,"Velocity":56,"Duration":377358,"SoundDuration":377358,"Delta":105632504},{"NoteNumber":63,"Velocity":55,"Duration":179640,"SoundDuration":179640,"Delta":106009862},{"NoteNumber":75,"Velocity":66,"Duration":179640,"SoundDuration":179640,"Delta":106009862},{"NoteNumber":35,"Velocity":47,"Duration":179640,"SoundDuration":179640,"Delta":106009862},{"NoteNumber":47,"Velocity":56,"Duration":179640,"SoundDuration":179640,"Delta":106009862},{"NoteNumber":69,"Velocity":51,"Duration":89820,"SoundDuration":89820,"Delta":106279324},{"NoteNumber":75,"Velocity":61,"Duration":89820,"SoundDuration":89820,"Delta":106279324},{"NoteNumber":47,"Velocity":45,"Duration":89820,"SoundDuration":89820,"Delta":106279324},{"NoteNumber":57,"Velocity":52,"Duration":89820,"SoundDuration":89820,"Delta":106279324},{"NoteNumber":70,"Velocity":55,"Duration":405405,"SoundDuration":405405,"Delta":106369144},{"NoteNumber":75,"Velocity":68,"Duration":405405,"SoundDuration":405405,"Delta":106369144},{"NoteNumber":67,"Velocity":55,"Duration":405405,"SoundDuration":405405,"Delta":106369144},{"NoteNumber":79,"Velocity":68,"Duration":405405,"SoundDuration":405405,"Delta":106369144},{"NoteNumber":46,"Velocity":46,"Duration":405405,"SoundDuration":405405,"Delta":106369144},{"NoteNumber":58,"Velocity":55,"Duration":405405,"SoundDuration":405405,"Delta":106369144},{"NoteNumber":87,"Velocity":71,"Duration":714316,"SoundDuration":714316,"Delta":106774549},{"NoteNumber":91,"Velocity":71,"Duration":714316,"SoundDuration":714316,"Delta":106774549},{"NoteNumber":79,"Velocity":71,"Duration":714316,"SoundDuration":714316,"Delta":106774549},{"NoteNumber":58,"Velocity":52,"Duration":86705,"SoundDuration":86705,"Delta":106774549},{"NoteNumber":70,"Velocity":52,"Duration":86705,"SoundDuration":86705,"Delta":106774549},{"NoteNumber":58,"Velocity":54,"Duration":98039,"SoundDuration":98039,"Delta":106947960},{"NoteNumber":70,"Velocity":54,"Duration":98039,"SoundDuration":98039,"Delta":106947960},{"NoteNumber":60,"Velocity":60,"Duration":172413,"SoundDuration":172413,"Delta":107144038},{"NoteNumber":72,"Velocity":60,"Duration":172413,"SoundDuration":172413,"Delta":107144038},{"NoteNumber":58,"Velocity":56,"Duration":172413,"SoundDuration":172413,"Delta":107316452},{"NoteNumber":70,"Velocity":56,"Duration":172413,"SoundDuration":172413,"Delta":107316452},{"NoteNumber":78,"Velocity":66,"Duration":168539,"SoundDuration":168539,"Delta":107488866},{"NoteNumber":86,"Velocity":66,"Duration":168539,"SoundDuration":168539,"Delta":107488866},{"NoteNumber":90,"Velocity":66,"Duration":168539,"SoundDuration":168539,"Delta":107488866},{"NoteNumber":58,"Velocity":56,"Duration":84269,"SoundDuration":84269,"Delta":107488866},{"NoteNumber":70,"Velocity":56,"Duration":84269,"SoundDuration":84269,"Delta":107488866},{"NoteNumber":79,"Velocity":69,"Duration":177514,"SoundDuration":177514,"Delta":107657405},{"NoteNumber":87,"Velocity":69,"Duration":177514,"SoundDuration":177514,"Delta":107657405},{"NoteNumber":91,"Velocity":69,"Duration":177514,"SoundDuration":177514,"Delta":107657405},{"NoteNumber":58,"Velocity":56,"Duration":88757,"SoundDuration":88757,"Delta":107657405},{"NoteNumber":70,"Velocity":56,"Duration":88757,"SoundDuration":88757,"Delta":107657405},{"NoteNumber":92,"Velocity":71,"Duration":335195,"SoundDuration":335195,"Delta":107834920},{"NoteNumber":86,"Velocity":71,"Duration":335195,"SoundDuration":335195,"Delta":107834920},{"NoteNumber":80,"Velocity":71,"Duration":335195,"SoundDuration":335195,"Delta":107834920},{"NoteNumber":58,"Velocity":65,"Duration":167597,"SoundDuration":167597,"Delta":107834920},{"NoteNumber":70,"Velocity":65,"Duration":167597,"SoundDuration":167597,"Delta":107834920},{"NoteNumber":58,"Velocity":53,"Duration":470525,"SoundDuration":470525,"Delta":108044417},{"NoteNumber":65,"Velocity":53,"Duration":428626,"SoundDuration":428626,"Delta":108086317},{"NoteNumber":68,"Velocity":53,"Duration":386726,"SoundDuration":386726,"Delta":108128216},{"NoteNumber":79,"Velocity":71,"Duration":258620,"SoundDuration":258620,"Delta":108170115},{"NoteNumber":86,"Velocity":71,"Duration":258620,"SoundDuration":258620,"Delta":108170115},{"NoteNumber":91,"Velocity":71,"Duration":258620,"SoundDuration":258620,"Delta":108170115},{"NoteNumber":74,"Velocity":53,"Duration":344827,"SoundDuration":344827,"Delta":108170115},{"NoteNumber":77,"Velocity":68,"Duration":86206,"SoundDuration":86206,"Delta":108428736},{"NoteNumber":89,"Velocity":68,"Duration":86206,"SoundDuration":86206,"Delta":108428736},{"NoteNumber":79,"Velocity":68,"Duration":357142,"SoundDuration":357142,"Delta":108514943},{"NoteNumber":87,"Velocity":68,"Duration":357142,"SoundDuration":357142,"Delta":108514943},{"NoteNumber":91,"Velocity":68,"Duration":357142,"SoundDuration":357142,"Delta":108514943},{"NoteNumber":63,"Velocity":49,"Duration":357142,"SoundDuration":357142,"Delta":108514943},{"NoteNumber":67,"Velocity":49,"Duration":357142,"SoundDuration":357142,"Delta":108514943},{"NoteNumber":75,"Velocity":49,"Duration":357142,"SoundDuration":357142,"Delta":108514943},{"NoteNumber":68,"Velocity":56,"Duration":357142,"SoundDuration":357142,"Delta":108872086},{"NoteNumber":79,"Velocity":67,"Duration":267857,"SoundDuration":267857,"Delta":108872086},{"NoteNumber":51,"Velocity":40,"Duration":357142,"SoundDuration":357142,"Delta":108872086},{"NoteNumber":59,"Velocity":40,"Duration":357142,"SoundDuration":357142,"Delta":108872086},{"NoteNumber":63,"Velocity":48,"Duration":357142,"SoundDuration":357142,"Delta":108872086},{"NoteNumber":77,"Velocity":63,"Duration":89285,"SoundDuration":89285,"Delta":109139943},{"NoteNumber":67,"Velocity":50,"Duration":357143,"SoundDuration":357143,"Delta":109229229},{"NoteNumber":75,"Velocity":59,"Duration":357143,"SoundDuration":357143,"Delta":109229229},{"NoteNumber":51,"Velocity":38,"Duration":357143,"SoundDuration":357143,"Delta":109229229},{"NoteNumber":58,"Velocity":38,"Duration":357143,"SoundDuration":357143,"Delta":109229229},{"NoteNumber":63,"Velocity":45,"Duration":357143,"SoundDuration":357143,"Delta":109229229},{"NoteNumber":56,"Velocity":56,"Duration":357142,"SoundDuration":357142,"Delta":109586372},{"NoteNumber":67,"Velocity":67,"Duration":267857,"SoundDuration":267857,"Delta":109586372},{"NoteNumber":39,"Velocity":40,"Duration":357142,"SoundDuration":357142,"Delta":109586372},{"NoteNumber":47,"Velocity":40,"Duration":357142,"SoundDuration":357142,"Delta":109586372},{"NoteNumber":51,"Velocity":48,"Duration":357142,"SoundDuration":357142,"Delta":109586372},{"NoteNumber":65,"Velocity":63,"Duration":89285,"SoundDuration":89285,"Delta":109854229},{"NoteNumber":55,"Velocity":50,"Duration":387096,"SoundDuration":387096,"Delta":109943515},{"NoteNumber":63,"Velocity":59,"Duration":387096,"SoundDuration":387096,"Delta":109943515},{"NoteNumber":39,"Velocity":38,"Duration":387096,"SoundDuration":387096,"Delta":109943515},{"NoteNumber":46,"Velocity":38,"Duration":387096,"SoundDuration":387096,"Delta":109943515},{"NoteNumber":51,"Velocity":45,"Duration":387096,"SoundDuration":387096,"Delta":109943515},{"NoteNumber":27,"Velocity":45,"Duration":193548,"SoundDuration":193548,"Delta":110330612},{"NoteNumber":39,"Velocity":45,"Duration":193548,"SoundDuration":193548,"Delta":110330612},{"NoteNumber":65,"Velocity":68,"Duration":1484262,"SoundDuration":1484262,"Delta":110717709},{"NoteNumber":25,"Velocity":49,"Duration":193548,"SoundDuration":193548,"Delta":110717709},{"NoteNumber":37,"Velocity":58,"Duration":193548,"SoundDuration":193548,"Delta":110717709},{"NoteNumber":53,"Velocity":38,"Duration":127869,"SoundDuration":127869,"Delta":111104806},{"NoteNumber":55,"Velocity":45,"Duration":127869,"SoundDuration":127869,"Delta":111104806},{"NoteNumber":53,"Velocity":39,"Duration":146141,"SoundDuration":146141,"Delta":111275299},{"NoteNumber":55,"Velocity":47,"Duration":146141,"SoundDuration":146141,"Delta":111275299},{"NoteNumber":53,"Velocity":41,"Duration":271084,"SoundDuration":271084,"Delta":111470155},{"NoteNumber":55,"Velocity":49,"Duration":271084,"SoundDuration":271084,"Delta":111470155},{"NoteNumber":53,"Velocity":38,"Duration":277777,"SoundDuration":277777,"Delta":111831601},{"NoteNumber":55,"Velocity":45,"Duration":277777,"SoundDuration":277777,"Delta":111831601},{"NoteNumber":58,"Velocity":63,"Duration":754716,"SoundDuration":754716,"Delta":112201971},{"NoteNumber":53,"Velocity":38,"Duration":283018,"SoundDuration":283018,"Delta":112201971},{"NoteNumber":55,"Velocity":45,"Duration":283018,"SoundDuration":283018,"Delta":112201971},{"NoteNumber":53,"Velocity":38,"Duration":283018,"SoundDuration":283018,"Delta":112579330},{"NoteNumber":55,"Velocity":45,"Duration":283018,"SoundDuration":283018,"Delta":112579330},{"NoteNumber":60,"Velocity":67,"Duration":1081286,"SoundDuration":1081286,"Delta":112956688},{"NoteNumber":36,"Velocity":45,"Duration":370370,"SoundDuration":370370,"Delta":112956688},{"NoteNumber":48,"Velocity":53,"Duration":1440654,"SoundDuration":1440654,"Delta":112956688},{"NoteNumber":52,"Velocity":39,"Duration":126432,"SoundDuration":126432,"Delta":113327059},{"NoteNumber":55,"Velocity":47,"Duration":126432,"SoundDuration":126432,"Delta":113327059},{"NoteNumber":52,"Velocity":39,"Duration":137228,"SoundDuration":137228,"Delta":113495636},{"NoteNumber":55,"Velocity":47,"Duration":137228,"SoundDuration":137228,"Delta":113495636},{"NoteNumber":52,"Velocity":42,"Duration":269525,"SoundDuration":269525,"Delta":113678608},{"NoteNumber":55,"Velocity":50,"Duration":269525,"SoundDuration":269525,"Delta":113678608},{"NoteNumber":60,"Velocity":64,"Duration":269525,"SoundDuration":269525,"Delta":114037975},{"NoteNumber":52,"Velocity":38,"Duration":269525,"SoundDuration":269525,"Delta":114037975},{"NoteNumber":55,"Velocity":45,"Duration":269525,"SoundDuration":269525,"Delta":114037975},{"NoteNumber":61,"Velocity":62,"Duration":89841,"SoundDuration":89841,"Delta":114307501},{"NoteNumber":61,"Velocity":53,"Duration":93170,"SoundDuration":93170,"Delta":114397343},{"NoteNumber":34,"Velocity":46,"Duration":361476,"SoundDuration":361476,"Delta":114397343},{"NoteNumber":46,"Velocity":55,"Duration":361476,"SoundDuration":361476,"Delta":114397343},{"NoteNumber":63,"Velocity":54,"Duration":91465,"SoundDuration":91465,"Delta":114490513},{"NoteNumber":61,"Velocity":56,"Duration":89287,"SoundDuration":89287,"Delta":114581978},{"NoteNumber":63,"Velocity":56,"Duration":87553,"SoundDuration":87553,"Delta":114671266},{"NoteNumber":61,"Velocity":57,"Duration":69599,"SoundDuration":69599,"Delta":114758820},{"NoteNumber":55,"Velocity":45,"Duration":352979,"SoundDuration":352979,"Delta":114758820},{"NoteNumber":53,"Velocity":38,"Duration":352979,"SoundDuration":352979,"Delta":114758820},{"NoteNumber":63,"Velocity":57,"Duration":70073,"SoundDuration":70073,"Delta":114828419},{"NoteNumber":61,"Velocity":56,"Duration":70588,"SoundDuration":70588,"Delta":114898492},{"NoteNumber":60,"Velocity":56,"Duration":71111,"SoundDuration":71111,"Delta":114969081},{"NoteNumber":61,"Velocity":55,"Duration":71606,"SoundDuration":71606,"Delta":115040193},{"NoteNumber":60,"Velocity":67,"Duration":1049432,"SoundDuration":1049432,"Delta":115111799},{"NoteNumber":36,"Velocity":45,"Duration":361446,"SoundDuration":361446,"Delta":115111799},{"NoteNumber":48,"Velocity":53,"Duration":1396333,"SoundDuration":1396333,"Delta":115111799},{"NoteNumber":52,"Velocity":39,"Duration":125726,"SoundDuration":125726,"Delta":115473245},{"NoteNumber":55,"Velocity":47,"Duration":125726,"SoundDuration":125726,"Delta":115473245},{"NoteNumber":52,"Velocity":39,"Duration":130087,"SoundDuration":130087,"Delta":115640881},{"NoteNumber":55,"Velocity":47,"Duration":130087,"SoundDuration":130087,"Delta":115640881},{"NoteNumber":55,"Velocity":50,"Duration":260175,"SoundDuration":260175,"Delta":115814331},{"NoteNumber":52,"Velocity":42,"Duration":260175,"SoundDuration":260175,"Delta":115814331},{"NoteNumber":60,"Velocity":64,"Duration":260175,"SoundDuration":260175,"Delta":116161232},{"NoteNumber":52,"Velocity":38,"Duration":260175,"SoundDuration":260175,"Delta":116161232},{"NoteNumber":55,"Velocity":45,"Duration":260175,"SoundDuration":260175,"Delta":116161232},{"NoteNumber":61,"Velocity":62,"Duration":86725,"SoundDuration":86725,"Delta":116421408},{"NoteNumber":61,"Velocity":53,"Duration":93561,"SoundDuration":93561,"Delta":116508133},{"NoteNumber":34,"Velocity":46,"Duration":358777,"SoundDuration":358777,"Delta":116508133},{"NoteNumber":46,"Velocity":55,"Duration":358777,"SoundDuration":358777,"Delta":116508133},{"NoteNumber":63,"Velocity":54,"Duration":90988,"SoundDuration":90988,"Delta":116601694},{"NoteNumber":61,"Velocity":56,"Duration":88309,"SoundDuration":88309,"Delta":116692683},{"NoteNumber":63,"Velocity":56,"Duration":85918,"SoundDuration":85918,"Delta":116780992},{"NoteNumber":61,"Velocity":57,"Duration":68215,"SoundDuration":68215,"Delta":116866911},{"NoteNumber":53,"Velocity":38,"Duration":349315,"SoundDuration":349315,"Delta":116866911},{"NoteNumber":55,"Velocity":45,"Duration":349315,"SoundDuration":349315,"Delta":116866911},{"NoteNumber":63,"Velocity":57,"Duration":68999,"SoundDuration":68999,"Delta":116935126},{"NoteNumber":61,"Velocity":56,"Duration":69870,"SoundDuration":69870,"Delta":117004126},{"NoteNumber":60,"Velocity":56,"Duration":70693,"SoundDuration":70693,"Delta":117073996},{"NoteNumber":61,"Velocity":55,"Duration":71536,"SoundDuration":71536,"Delta":117144690},{"NoteNumber":60,"Velocity":64,"Duration":359281,"SoundDuration":359281,"Delta":117216226},{"NoteNumber":48,"Velocity":53,"Duration":359281,"SoundDuration":359281,"Delta":117216226},{"NoteNumber":36,"Velocity":45,"Duration":359281,"SoundDuration":359281,"Delta":117216226},{"NoteNumber":62,"Velocity":56,"Duration":164871,"SoundDuration":164871,"Delta":117575508},{"NoteNumber":60,"Velocity":47,"Duration":123653,"SoundDuration":123653,"Delta":117575508},{"NoteNumber":55,"Velocity":39,"Duration":123653,"SoundDuration":123653,"Delta":117575508},{"NoteNumber":58,"Velocity":39,"Duration":123653,"SoundDuration":123653,"Delta":117575508},{"NoteNumber":64,"Velocity":58,"Duration":173450,"SoundDuration":173450,"Delta":117740379},{"NoteNumber":55,"Velocity":39,"Duration":130087,"SoundDuration":130087,"Delta":117740379},{"NoteNumber":58,"Velocity":39,"Duration":130087,"SoundDuration":130087,"Delta":117740379},{"NoteNumber":60,"Velocity":47,"Duration":130087,"SoundDuration":130087,"Delta":117740379},{"NoteNumber":65,"Velocity":61,"Duration":348675,"SoundDuration":348675,"Delta":117913830},{"NoteNumber":55,"Velocity":42,"Duration":261466,"SoundDuration":261466,"Delta":117913830},{"NoteNumber":58,"Velocity":42,"Duration":261466,"SoundDuration":261466,"Delta":117913830},{"NoteNumber":60,"Velocity":50,"Duration":261466,"SoundDuration":261466,"Delta":117913830},{"NoteNumber":67,"Velocity":64,"Duration":351777,"SoundDuration":351777,"Delta":118262505},{"NoteNumber":58,"Velocity":38,"Duration":264705,"SoundDuration":264705,"Delta":118262505},{"NoteNumber":55,"Velocity":38,"Duration":264705,"SoundDuration":264705,"Delta":118262505},{"NoteNumber":60,"Velocity":45,"Duration":264705,"SoundDuration":264705,"Delta":118262505},{"NoteNumber":70,"Velocity":63,"Duration":174758,"SoundDuration":174758,"Delta":118614283},{"NoteNumber":41,"Velocity":46,"Duration":351577,"SoundDuration":351577,"Delta":118614283},{"NoteNumber":53,"Velocity":55,"Duration":727806,"SoundDuration":727806,"Delta":118614283},{"NoteNumber":68,"Velocity":62,"Duration":176818,"SoundDuration":176818,"Delta":118789042},{"NoteNumber":67,"Velocity":61,"Duration":179284,"SoundDuration":179284,"Delta":118965860},{"NoteNumber":56,"Velocity":38,"Duration":376229,"SoundDuration":376229,"Delta":118965860},{"NoteNumber":60,"Velocity":45,"Duration":376229,"SoundDuration":376229,"Delta":118965860},{"NoteNumber":65,"Velocity":59,"Duration":90361,"SoundDuration":90361,"Delta":119145145},{"NoteNumber":65,"Velocity":49,"Duration":53012,"SoundDuration":53012,"Delta":119235506},{"NoteNumber":65,"Velocity":48,"Duration":53571,"SoundDuration":53571,"Delta":119288518},{"NoteNumber":77,"Velocity":68,"Duration":1450472,"SoundDuration":1450472,"Delta":119342090},{"NoteNumber":37,"Velocity":49,"Duration":379746,"SoundDuration":379746,"Delta":119342090},{"NoteNumber":49,"Velocity":58,"Duration":379746,"SoundDuration":379746,"Delta":119342090},{"NoteNumber":58,"Velocity":38,"Duration":130844,"SoundDuration":130844,"Delta":119721837},{"NoteNumber":55,"Velocity":38,"Duration":130844,"SoundDuration":130844,"Delta":119721837},{"NoteNumber":65,"Velocity":45,"Duration":130844,"SoundDuration":130844,"Delta":119721837},{"NoteNumber":55,"Velocity":39,"Duration":138070,"SoundDuration":138070,"Delta":119896296},{"NoteNumber":65,"Velocity":47,"Duration":138070,"SoundDuration":138070,"Delta":119896296},{"NoteNumber":58,"Velocity":39,"Duration":138070,"SoundDuration":138070,"Delta":119896296},{"NoteNumber":58,"Velocity":41,"Duration":266272,"SoundDuration":266272,"Delta":120080390},{"NoteNumber":55,"Velocity":41,"Duration":266272,"SoundDuration":266272,"Delta":120080390},{"NoteNumber":65,"Velocity":49,"Duration":266272,"SoundDuration":266272,"Delta":120080390},{"NoteNumber":55,"Velocity":38,"Duration":267857,"SoundDuration":267857,"Delta":120435420},{"NoteNumber":58,"Velocity":38,"Duration":267857,"SoundDuration":267857,"Delta":120435420},{"NoteNumber":65,"Velocity":45,"Duration":267857,"SoundDuration":267857,"Delta":120435420},{"NoteNumber":58,"Velocity":53,"Duration":722892,"SoundDuration":722892,"Delta":120792563},{"NoteNumber":70,"Velocity":63,"Duration":722892,"SoundDuration":722892,"Delta":120792563},{"NoteNumber":55,"Velocity":38,"Duration":271084,"SoundDuration":271084,"Delta":120792563},{"NoteNumber":65,"Velocity":45,"Duration":271084,"SoundDuration":271084,"Delta":120792563},{"NoteNumber":65,"Velocity":45,"Duration":271084,"SoundDuration":271084,"Delta":121154009},{"NoteNumber":55,"Velocity":38,"Duration":271084,"SoundDuration":271084,"Delta":121154009},{"NoteNumber":60,"Velocity":56,"Duration":1063199,"SoundDuration":1063199,"Delta":121515455},{"NoteNumber":72,"Velocity":67,"Duration":1063199,"SoundDuration":1063199,"Delta":121515455},{"NoteNumber":36,"Velocity":45,"Duration":361446,"SoundDuration":361446,"Delta":121515455},{"NoteNumber":48,"Velocity":53,"Duration":361446,"SoundDuration":361446,"Delta":121515455},{"NoteNumber":64,"Velocity":47,"Duration":131578,"SoundDuration":131578,"Delta":121876901},{"NoteNumber":55,"Velocity":39,"Duration":131578,"SoundDuration":131578,"Delta":121876901},{"NoteNumber":64,"Velocity":47,"Duration":131578,"SoundDuration":131578,"Delta":122052339},{"NoteNumber":55,"Velocity":39,"Duration":131578,"SoundDuration":131578,"Delta":122052339},{"NoteNumber":64,"Velocity":50,"Duration":263157,"SoundDuration":263157,"Delta":122227778},{"NoteNumber":55,"Velocity":42,"Duration":263157,"SoundDuration":263157,"Delta":122227778},{"NoteNumber":72,"Velocity":64,"Duration":263157,"SoundDuration":263157,"Delta":122578655},{"NoteNumber":55,"Velocity":38,"Duration":263157,"SoundDuration":263157,"Delta":122578655},{"NoteNumber":64,"Velocity":45,"Duration":263157,"SoundDuration":263157,"Delta":122578655},{"NoteNumber":73,"Velocity":62,"Duration":43859,"SoundDuration":43859,"Delta":122841812},{"NoteNumber":61,"Velocity":49,"Duration":43859,"SoundDuration":43859,"Delta":122885672},{"NoteNumber":73,"Velocity":53,"Duration":93561,"SoundDuration":93561,"Delta":122929532},{"NoteNumber":34,"Velocity":46,"Duration":358777,"SoundDuration":358777,"Delta":122929532},{"NoteNumber":46,"Velocity":55,"Duration":358777,"SoundDuration":358777,"Delta":122929532},{"NoteNumber":75,"Velocity":54,"Duration":90988,"SoundDuration":90988,"Delta":123023093},{"NoteNumber":73,"Velocity":56,"Duration":88309,"SoundDuration":88309,"Delta":123114081},{"NoteNumber":75,"Velocity":56,"Duration":85918,"SoundDuration":85918,"Delta":123202391},{"NoteNumber":73,"Velocity":57,"Duration":68215,"SoundDuration":68215,"Delta":123288309},{"NoteNumber":56,"Velocity":38,"Duration":349315,"SoundDuration":349315,"Delta":123288309},{"NoteNumber":53,"Velocity":38,"Duration":349315,"SoundDuration":349315,"Delta":123288309},{"NoteNumber":65,"Velocity":45,"Duration":349315,"SoundDuration":349315,"Delta":123288309},{"NoteNumber":75,"Velocity":57,"Duration":68999,"SoundDuration":68999,"Delta":123356525},{"NoteNumber":73,"Velocity":56,"Duration":69870,"SoundDuration":69870,"Delta":123425525},{"NoteNumber":72,"Velocity":56,"Duration":70693,"SoundDuration":70693,"Delta":123495395},{"NoteNumber":73,"Velocity":55,"Duration":71536,"SoundDuration":71536,"Delta":123566088},{"NoteNumber":60,"Velocity":56,"Duration":1057454,"SoundDuration":1057454,"Delta":123637625},{"NoteNumber":72,"Velocity":67,"Duration":1057454,"SoundDuration":1057454,"Delta":123637625},{"NoteNumber":36,"Velocity":45,"Duration":361446,"SoundDuration":361446,"Delta":123637625},{"NoteNumber":48,"Velocity":53,"Duration":361446,"SoundDuration":361446,"Delta":123637625},{"NoteNumber":64,"Velocity":47,"Duration":127869,"SoundDuration":127869,"Delta":123999071},{"NoteNumber":55,"Velocity":39,"Duration":127869,"SoundDuration":127869,"Delta":123999071},{"NoteNumber":64,"Velocity":48,"Duration":133960,"SoundDuration":133960,"Delta":124169564},{"NoteNumber":55,"Velocity":40,"Duration":133960,"SoundDuration":133960,"Delta":124169564},{"NoteNumber":64,"Velocity":50,"Duration":260175,"SoundDuration":260175,"Delta":124348178},{"NoteNumber":55,"Velocity":43,"Duration":260175,"SoundDuration":260175,"Delta":124348178},{"NoteNumber":72,"Velocity":66,"Duration":260175,"SoundDuration":260175,"Delta":124695079},{"NoteNumber":55,"Velocity":39,"Duration":260175,"SoundDuration":260175,"Delta":124695079},{"NoteNumber":64,"Velocity":46,"Duration":260175,"SoundDuration":260175,"Delta":124695079},{"NoteNumber":73,"Velocity":64,"Duration":43362,"SoundDuration":43362,"Delta":124955255},{"NoteNumber":61,"Velocity":51,"Duration":43362,"SoundDuration":43362,"Delta":124998617},{"NoteNumber":73,"Velocity":55,"Duration":93561,"SoundDuration":93561,"Delta":125041980},{"NoteNumber":34,"Velocity":48,"Duration":358777,"SoundDuration":358777,"Delta":125041980},{"NoteNumber":46,"Velocity":57,"Duration":358777,"SoundDuration":358777,"Delta":125041980},{"NoteNumber":75,"Velocity":56,"Duration":90988,"SoundDuration":90988,"Delta":125135541},{"NoteNumber":73,"Velocity":58,"Duration":88309,"SoundDuration":88309,"Delta":125226530},{"NoteNumber":75,"Velocity":58,"Duration":85918,"SoundDuration":85918,"Delta":125314839},{"NoteNumber":73,"Velocity":60,"Duration":68215,"SoundDuration":68215,"Delta":125400758},{"NoteNumber":56,"Velocity":40,"Duration":348953,"SoundDuration":348953,"Delta":125400758},{"NoteNumber":65,"Velocity":48,"Duration":348953,"SoundDuration":348953,"Delta":125400758},{"NoteNumber":53,"Velocity":40,"Duration":348953,"SoundDuration":348953,"Delta":125400758},{"NoteNumber":75,"Velocity":60,"Duration":68999,"SoundDuration":68999,"Delta":125468973},{"NoteNumber":73,"Velocity":59,"Duration":69870,"SoundDuration":69870,"Delta":125537973},{"NoteNumber":72,"Velocity":58,"Duration":70693,"SoundDuration":70693,"Delta":125607843},{"NoteNumber":73,"Velocity":57,"Duration":71175,"SoundDuration":71175,"Delta":125678537},{"NoteNumber":74,"Velocity":56,"Duration":85993,"SoundDuration":85993,"Delta":125749712},{"NoteNumber":34,"Velocity":49,"Duration":338804,"SoundDuration":338804,"Delta":125749712},{"NoteNumber":46,"Velocity":58,"Duration":338804,"SoundDuration":338804,"Delta":125749712},{"NoteNumber":75,"Velocity":57,"Duration":85099,"SoundDuration":85099,"Delta":125835705},{"NoteNumber":74,"Velocity":59,"Duration":84270,"SoundDuration":84270,"Delta":125920804},{"NoteNumber":75,"Velocity":60,"Duration":83441,"SoundDuration":83441,"Delta":126005075},{"NoteNumber":74,"Velocity":61,"Duration":66666,"SoundDuration":66666,"Delta":126088517},{"NoteNumber":56,"Velocity":41,"Duration":333333,"SoundDuration":333333,"Delta":126088517},{"NoteNumber":62,"Velocity":41,"Duration":333333,"SoundDuration":333333,"Delta":126088517},{"NoteNumber":68,"Velocity":50,"Duration":333333,"SoundDuration":333333,"Delta":126088517},{"NoteNumber":58,"Velocity":41,"Duration":333333,"SoundDuration":333333,"Delta":126088517},{"NoteNumber":75,"Velocity":61,"Duration":66666,"SoundDuration":66666,"Delta":126155183},{"NoteNumber":74,"Velocity":61,"Duration":66666,"SoundDuration":66666,"Delta":126221850},{"NoteNumber":73,"Velocity":60,"Duration":66666,"SoundDuration":66666,"Delta":126288517},{"NoteNumber":74,"Velocity":59,"Duration":66666,"SoundDuration":66666,"Delta":126355183},{"NoteNumber":75,"Velocity":58,"Duration":83333,"SoundDuration":83333,"Delta":126421850},{"NoteNumber":39,"Velocity":62,"Duration":333089,"SoundDuration":333089,"Delta":126421850},{"NoteNumber":27,"Velocity":53,"Duration":333089,"SoundDuration":333089,"Delta":126421850},{"NoteNumber":77,"Velocity":59,"Duration":83333,"SoundDuration":83333,"Delta":126505183},{"NoteNumber":75,"Velocity":60,"Duration":83333,"SoundDuration":83333,"Delta":126588517},{"NoteNumber":77,"Velocity":62,"Duration":83089,"SoundDuration":83089,"Delta":126671850},{"NoteNumber":75,"Velocity":62,"Duration":82357,"SoundDuration":82357,"Delta":126754939},{"NoteNumber":61,"Velocity":46,"Duration":326633,"SoundDuration":326633,"Delta":126754939},{"NoteNumber":58,"Velocity":46,"Duration":326633,"SoundDuration":326633,"Delta":126754939},{"NoteNumber":63,"Velocity":54,"Duration":326633,"SoundDuration":326633,"Delta":126754939},{"NoteNumber":55,"Velocity":46,"Duration":326633,"SoundDuration":326633,"Delta":126754939},{"NoteNumber":77,"Velocity":63,"Duration":81848,"SoundDuration":81848,"Delta":126837297},{"NoteNumber":75,"Velocity":64,"Duration":81462,"SoundDuration":81462,"Delta":126919145},{"NoteNumber":77,"Velocity":65,"Duration":80964,"SoundDuration":80964,"Delta":127000608},{"NoteNumber":75,"Velocity":66,"Duration":80587,"SoundDuration":80587,"Delta":127081573},{"NoteNumber":58,"Velocity":57,"Duration":320638,"SoundDuration":320638,"Delta":127081573},{"NoteNumber":61,"Velocity":57,"Duration":320638,"SoundDuration":320638,"Delta":127081573},{"NoteNumber":63,"Velocity":57,"Duration":320638,"SoundDuration":320638,"Delta":127081573},{"NoteNumber":67,"Velocity":68,"Duration":320638,"SoundDuration":320638,"Delta":127081573},{"NoteNumber":77,"Velocity":68,"Duration":80100,"SoundDuration":80100,"Delta":127162161},{"NoteNumber":75,"Velocity":69,"Duration":79730,"SoundDuration":79730,"Delta":127242261},{"NoteNumber":74,"Velocity":69,"Duration":80220,"SoundDuration":80220,"Delta":127321992},{"NoteNumber":75,"Velocity":67,"Duration":51537,"SoundDuration":51537,"Delta":127402212},{"NoteNumber":61,"Velocity":49,"Duration":460407,"SoundDuration":460407,"Delta":127402212},{"NoteNumber":63,"Velocity":49,"Duration":460407,"SoundDuration":460407,"Delta":127402212},{"NoteNumber":67,"Velocity":49,"Duration":460407,"SoundDuration":460407,"Delta":127402212},{"NoteNumber":73,"Velocity":59,"Duration":460407,"SoundDuration":460407,"Delta":127402212},{"NoteNumber":77,"Velocity":68,"Duration":53044,"SoundDuration":53044,"Delta":127453750},{"NoteNumber":79,"Velocity":70,"Duration":54696,"SoundDuration":54696,"Delta":127506794},{"NoteNumber":80,"Velocity":71,"Duration":56339,"SoundDuration":56339,"Delta":127561490},{"NoteNumber":82,"Velocity":72,"Duration":58234,"SoundDuration":58234,"Delta":127617830},{"NoteNumber":84,"Velocity":74,"Duration":60166,"SoundDuration":60166,"Delta":127676064},{"NoteNumber":85,"Velocity":75,"Duration":62229,"SoundDuration":62229,"Delta":127736231},{"NoteNumber":87,"Velocity":76,"Duration":64159,"SoundDuration":64159,"Delta":127798460},{"NoteNumber":77,"Velocity":82,"Duration":565719,"SoundDuration":565719,"Delta":127862619},{"NoteNumber":85,"Velocity":82,"Duration":565719,"SoundDuration":565719,"Delta":127862619},{"NoteNumber":89,"Velocity":97,"Duration":565719,"SoundDuration":565719,"Delta":127862619},{"NoteNumber":32,"Velocity":67,"Duration":212765,"SoundDuration":212765,"Delta":127862619},{"NoteNumber":44,"Velocity":79,"Duration":212765,"SoundDuration":212765,"Delta":127862619},{"NoteNumber":60,"Velocity":67,"Duration":297288,"SoundDuration":297288,"Delta":128288151},{"NoteNumber":51,"Velocity":67,"Duration":297288,"SoundDuration":297288,"Delta":128288151},{"NoteNumber":63,"Velocity":79,"Duration":297288,"SoundDuration":297288,"Delta":128288151},{"NoteNumber":75,"Velocity":79,"Duration":141390,"SoundDuration":141390,"Delta":128428338},{"NoteNumber":84,"Velocity":79,"Duration":141390,"SoundDuration":141390,"Delta":128428338},{"NoteNumber":87,"Velocity":93,"Duration":141390,"SoundDuration":141390,"Delta":128428338},{"NoteNumber":75,"Velocity":79,"Duration":350876,"SoundDuration":350876,"Delta":128585439},{"NoteNumber":84,"Velocity":79,"Duration":350876,"SoundDuration":350876,"Delta":128585439},{"NoteNumber":87,"Velocity":93,"Duration":350876,"SoundDuration":350876,"Delta":128585439},{"NoteNumber":68,"Velocity":77,"Duration":350876,"SoundDuration":350876,"Delta":128585439},{"NoteNumber":60,"Velocity":77,"Duration":350876,"SoundDuration":350876,"Delta":128585439},{"NoteNumber":56,"Velocity":64,"Duration":350876,"SoundDuration":350876,"Delta":128585439},{"NoteNumber":63,"Velocity":71,"Duration":87719,"SoundDuration":87719,"Delta":128848597},{"NoteNumber":63,"Velocity":71,"Duration":69364,"SoundDuration":69364,"Delta":128936316},{"NoteNumber":39,"Velocity":72,"Duration":86705,"SoundDuration":86705,"Delta":128936316},{"NoteNumber":51,"Velocity":85,"Duration":86705,"SoundDuration":86705,"Delta":128936316},{"NoteNumber":65,"Velocity":71,"Duration":69364,"SoundDuration":69364,"Delta":129005681},{"NoteNumber":63,"Velocity":71,"Duration":69364,"SoundDuration":69364,"Delta":129075045},{"NoteNumber":62,"Velocity":71,"Duration":69364,"SoundDuration":69364,"Delta":129144409},{"NoteNumber":63,"Velocity":71,"Duration":69364,"SoundDuration":69364,"Delta":129213773},{"NoteNumber":68,"Velocity":87,"Duration":166666,"SoundDuration":166666,"Delta":129283137},{"NoteNumber":44,"Velocity":73,"Duration":166666,"SoundDuration":166666,"Delta":129283137},{"NoteNumber":56,"Velocity":86,"Duration":166666,"SoundDuration":166666,"Delta":129283137},{"NoteNumber":72,"Velocity":74,"Duration":166666,"SoundDuration":166666,"Delta":129616471},{"NoteNumber":80,"Velocity":74,"Duration":166666,"SoundDuration":166666,"Delta":129616471},{"NoteNumber":84,"Velocity":88,"Duration":166666,"SoundDuration":166666,"Delta":129616471},{"NoteNumber":27,"Velocity":61,"Duration":343137,"SoundDuration":343137,"Delta":129616471},{"NoteNumber":39,"Velocity":73,"Duration":343137,"SoundDuration":343137,"Delta":129616471},{"NoteNumber":73,"Velocity":73,"Duration":176470,"SoundDuration":176470,"Delta":129783138},{"NoteNumber":82,"Velocity":73,"Duration":176470,"SoundDuration":176470,"Delta":129783138},{"NoteNumber":85,"Velocity":86,"Duration":176470,"SoundDuration":176470,"Delta":129783138},{"NoteNumber":77,"Velocity":79,"Duration":174836,"SoundDuration":174836,"Delta":129959608},{"NoteNumber":85,"Velocity":79,"Duration":174836,"SoundDuration":174836,"Delta":129959608},{"NoteNumber":89,"Velocity":93,"Duration":174836,"SoundDuration":174836,"Delta":129959608},{"NoteNumber":32,"Velocity":67,"Duration":341503,"SoundDuration":341503,"Delta":129959608},{"NoteNumber":44,"Velocity":79,"Duration":341503,"SoundDuration":341503,"Delta":129959608},{"NoteNumber":75,"Velocity":74,"Duration":75000,"SoundDuration":75000,"Delta":130217778},{"NoteNumber":84,"Velocity":74,"Duration":75000,"SoundDuration":75000,"Delta":130217778},{"NoteNumber":87,"Velocity":88,"Duration":75000,"SoundDuration":75000,"Delta":130217778},{"NoteNumber":75,"Velocity":74,"Duration":143540,"SoundDuration":143540,"Delta":130301112},{"NoteNumber":84,"Velocity":74,"Duration":143540,"SoundDuration":143540,"Delta":130301112},{"NoteNumber":87,"Velocity":93,"Duration":143540,"SoundDuration":143540,"Delta":130301112},{"NoteNumber":60,"Velocity":61,"Duration":322112,"SoundDuration":322112,"Delta":130301112},{"NoteNumber":63,"Velocity":73,"Duration":322112,"SoundDuration":322112,"Delta":130301112},{"NoteNumber":51,"Velocity":61,"Duration":322112,"SoundDuration":322112,"Delta":130301112},{"NoteNumber":74,"Velocity":74,"Duration":178571,"SoundDuration":178571,"Delta":130444652},{"NoteNumber":83,"Velocity":74,"Duration":178571,"SoundDuration":178571,"Delta":130444652},{"NoteNumber":86,"Velocity":88,"Duration":178571,"SoundDuration":178571,"Delta":130444652},{"NoteNumber":75,"Velocity":74,"Duration":357143,"SoundDuration":357143,"Delta":130623224},{"NoteNumber":84,"Velocity":74,"Duration":357143,"SoundDuration":357143,"Delta":130623224},{"NoteNumber":87,"Velocity":88,"Duration":357143,"SoundDuration":357143,"Delta":130623224},{"NoteNumber":68,"Velocity":75,"Duration":357143,"SoundDuration":357143,"Delta":130623224},{"NoteNumber":60,"Velocity":75,"Duration":357143,"SoundDuration":357143,"Delta":130623224},{"NoteNumber":56,"Velocity":63,"Duration":357143,"SoundDuration":357143,"Delta":130623224},{"NoteNumber":63,"Velocity":70,"Duration":89285,"SoundDuration":89285,"Delta":130891081},{"NoteNumber":63,"Velocity":70,"Duration":68181,"SoundDuration":68181,"Delta":130980367},{"NoteNumber":39,"Velocity":67,"Duration":85227,"SoundDuration":85227,"Delta":130980367},{"NoteNumber":51,"Velocity":80,"Duration":85227,"SoundDuration":85227,"Delta":130980367},{"NoteNumber":65,"Velocity":70,"Duration":68181,"SoundDuration":68181,"Delta":131048549},{"NoteNumber":63,"Velocity":70,"Duration":68181,"SoundDuration":68181,"Delta":131116730},{"NoteNumber":62,"Velocity":70,"Duration":68181,"SoundDuration":68181,"Delta":131184912},{"NoteNumber":63,"Velocity":70,"Duration":68181,"SoundDuration":68181,"Delta":131253094},{"NoteNumber":68,"Velocity":87,"Duration":161290,"SoundDuration":161290,"Delta":131321276},{"NoteNumber":44,"Velocity":73,"Duration":161290,"SoundDuration":161290,"Delta":131321276},{"NoteNumber":56,"Velocity":86,"Duration":161290,"SoundDuration":161290,"Delta":131321276},{"NoteNumber":84,"Velocity":88,"Duration":166666,"SoundDuration":166666,"Delta":131643856},{"NoteNumber":72,"Velocity":74,"Duration":166666,"SoundDuration":166666,"Delta":131643856},{"NoteNumber":80,"Velocity":74,"Duration":166666,"SoundDuration":166666,"Delta":131643856},{"NoteNumber":27,"Velocity":61,"Duration":336158,"SoundDuration":336158,"Delta":131643856},{"NoteNumber":39,"Velocity":73,"Duration":336158,"SoundDuration":336158,"Delta":131643856},{"NoteNumber":85,"Velocity":86,"Duration":169491,"SoundDuration":169491,"Delta":131810523},{"NoteNumber":73,"Velocity":73,"Duration":169491,"SoundDuration":169491,"Delta":131810523},{"NoteNumber":82,"Velocity":73,"Duration":169491,"SoundDuration":169491,"Delta":131810523},{"NoteNumber":85,"Velocity":79,"Duration":166666,"SoundDuration":166666,"Delta":131980015},{"NoteNumber":89,"Velocity":93,"Duration":166666,"SoundDuration":166666,"Delta":131980015},{"NoteNumber":77,"Velocity":79,"Duration":166666,"SoundDuration":166666,"Delta":131980015},{"NoteNumber":32,"Velocity":67,"Duration":333333,"SoundDuration":333333,"Delta":131980015},{"NoteNumber":44,"Velocity":79,"Duration":333333,"SoundDuration":333333,"Delta":131980015},{"NoteNumber":75,"Velocity":74,"Duration":309524,"SoundDuration":309524,"Delta":132146681},{"NoteNumber":84,"Velocity":74,"Duration":309524,"SoundDuration":309524,"Delta":132146681},{"NoteNumber":87,"Velocity":88,"Duration":83333,"SoundDuration":83333,"Delta":132146681},{"NoteNumber":89,"Velocity":81,"Duration":83333,"SoundDuration":83333,"Delta":132230015},{"NoteNumber":87,"Velocity":93,"Duration":142857,"SoundDuration":142857,"Delta":132313348},{"NoteNumber":60,"Velocity":61,"Duration":313311,"SoundDuration":313311,"Delta":132313348},{"NoteNumber":63,"Velocity":73,"Duration":313311,"SoundDuration":313311,"Delta":132313348},{"NoteNumber":51,"Velocity":61,"Duration":313311,"SoundDuration":313311,"Delta":132313348},{"NoteNumber":83,"Velocity":74,"Duration":170454,"SoundDuration":170454,"Delta":132456205},{"NoteNumber":86,"Velocity":88,"Duration":170454,"SoundDuration":170454,"Delta":132456205},{"NoteNumber":74,"Velocity":74,"Duration":170454,"SoundDuration":170454,"Delta":132456205},{"NoteNumber":85,"Velocity":79,"Duration":166666,"SoundDuration":166666,"Delta":132626660},{"NoteNumber":89,"Velocity":93,"Duration":166666,"SoundDuration":166666,"Delta":132626660},{"NoteNumber":77,"Velocity":79,"Duration":166666,"SoundDuration":166666,"Delta":132626660},{"NoteNumber":68,"Velocity":75,"Duration":333333,"SoundDuration":333333,"Delta":132626660},{"NoteNumber":60,"Velocity":75,"Duration":333333,"SoundDuration":333333,"Delta":132626660},{"NoteNumber":56,"Velocity":63,"Duration":333333,"SoundDuration":333333,"Delta":132626660},{"NoteNumber":84,"Velocity":74,"Duration":318182,"SoundDuration":318182,"Delta":132793327},{"NoteNumber":87,"Velocity":88,"Duration":83333,"SoundDuration":83333,"Delta":132793327},{"NoteNumber":75,"Velocity":74,"Duration":318182,"SoundDuration":318182,"Delta":132793327},{"NoteNumber":89,"Velocity":81,"Duration":83333,"SoundDuration":83333,"Delta":132876660},{"NoteNumber":87,"Velocity":93,"Duration":151515,"SoundDuration":151515,"Delta":132959993},{"NoteNumber":39,"Velocity":61,"Duration":151515,"SoundDuration":151515,"Delta":132959993},{"NoteNumber":51,"Velocity":73,"Duration":151515,"SoundDuration":151515,"Delta":132959993},{"NoteNumber":74,"Velocity":74,"Duration":172413,"SoundDuration":172413,"Delta":133111509},{"NoteNumber":83,"Velocity":74,"Duration":172413,"SoundDuration":172413,"Delta":133111509},{"NoteNumber":86,"Velocity":88,"Duration":172413,"SoundDuration":172413,"Delta":133111509},{"NoteNumber":75,"Velocity":74,"Duration":271561,"SoundDuration":271561,"Delta":133283922},{"NoteNumber":84,"Velocity":74,"Duration":271561,"SoundDuration":271561,"Delta":133283922},{"NoteNumber":87,"Velocity":88,"Duration":271561,"SoundDuration":271561,"Delta":133283922},{"NoteNumber":44,"Velocity":64,"Duration":166666,"SoundDuration":166666,"Delta":133283922},{"NoteNumber":56,"Velocity":77,"Duration":166666,"SoundDuration":166666,"Delta":133283922},{"NoteNumber":75,"Velocity":72,"Duration":381680,"SoundDuration":381680,"Delta":133555484},{"NoteNumber":39,"Velocity":62,"Duration":337037,"SoundDuration":337037,"Delta":133555484},{"NoteNumber":82,"Velocity":72,"Duration":329233,"SoundDuration":329233,"Delta":133607932},{"NoteNumber":46,"Velocity":62,"Duration":284590,"SoundDuration":284590,"Delta":133607932},{"NoteNumber":90,"Velocity":85,"Duration":276785,"SoundDuration":276785,"Delta":133660379},{"NoteNumber":54,"Velocity":74,"Duration":232142,"SoundDuration":232142,"Delta":133660379},{"NoteNumber":41,"Velocity":62,"Duration":357143,"SoundDuration":357143,"Delta":133892522},{"NoteNumber":75,"Velocity":70,"Duration":357143,"SoundDuration":357143,"Delta":133937165},{"NoteNumber":48,"Velocity":62,"Duration":446428,"SoundDuration":446428,"Delta":133937165},{"NoteNumber":81,"Velocity":70,"Duration":312500,"SoundDuration":312500,"Delta":133981808},{"NoteNumber":51,"Velocity":74,"Duration":267857,"SoundDuration":267857,"Delta":133981808},{"NoteNumber":89,"Velocity":83,"Duration":267857,"SoundDuration":267857,"Delta":134026451},{"NoteNumber":57,"Velocity":74,"Duration":223214,"SoundDuration":223214,"Delta":134026451},{"NoteNumber":72,"Velocity":70,"Duration":401785,"SoundDuration":401785,"Delta":134249665},{"NoteNumber":53,"Velocity":61,"Duration":357143,"SoundDuration":357143,"Delta":134249665},{"NoteNumber":75,"Velocity":70,"Duration":357143,"SoundDuration":357143,"Delta":134294308},{"NoteNumber":60,"Velocity":61,"Duration":312500,"SoundDuration":312500,"Delta":134294308},{"NoteNumber":77,"Velocity":70,"Duration":312500,"SoundDuration":312500,"Delta":134338951},{"NoteNumber":63,"Velocity":73,"Duration":267857,"SoundDuration":267857,"Delta":134338951},{"NoteNumber":84,"Velocity":83,"Duration":267857,"SoundDuration":267857,"Delta":134383594},{"NoteNumber":69,"Velocity":73,"Duration":223214,"SoundDuration":223214,"Delta":134383594},{"NoteNumber":70,"Velocity":70,"Duration":357143,"SoundDuration":357143,"Delta":134651451},{"NoteNumber":46,"Velocity":63,"Duration":446428,"SoundDuration":446428,"Delta":134651451},{"NoteNumber":77,"Velocity":70,"Duration":312500,"SoundDuration":312500,"Delta":134696094},{"NoteNumber":53,"Velocity":75,"Duration":401785,"SoundDuration":401785,"Delta":134696094},{"NoteNumber":85,"Velocity":83,"Duration":267857,"SoundDuration":267857,"Delta":134740737},{"NoteNumber":61,"Velocity":75,"Duration":357143,"SoundDuration":357143,"Delta":134740737},{"NoteNumber":78,"Velocity":80,"Duration":121212,"SoundDuration":121212,"Delta":135097880},{"NoteNumber":42,"Velocity":60,"Duration":363636,"SoundDuration":363636,"Delta":135097880},{"NoteNumber":54,"Velocity":71,"Duration":363636,"SoundDuration":363636,"Delta":135097880},{"NoteNumber":66,"Velocity":80,"Duration":121212,"SoundDuration":121212,"Delta":135219092},{"NoteNumber":78,"Velocity":80,"Duration":121212,"SoundDuration":121212,"Delta":135340304},{"NoteNumber":65,"Velocity":71,"Duration":352940,"SoundDuration":352940,"Delta":135461516},{"NoteNumber":77,"Velocity":84,"Duration":352940,"SoundDuration":352940,"Delta":135461516},{"NoteNumber":41,"Velocity":60,"Duration":352940,"SoundDuration":352940,"Delta":135461516},{"NoteNumber":53,"Velocity":71,"Duration":352940,"SoundDuration":352940,"Delta":135461516},{"NoteNumber":61,"Velocity":74,"Duration":387097,"SoundDuration":387097,"Delta":135814457},{"NoteNumber":73,"Velocity":79,"Duration":387097,"SoundDuration":387097,"Delta":135814457},{"NoteNumber":37,"Velocity":58,"Duration":387097,"SoundDuration":387097,"Delta":135814457},{"NoteNumber":49,"Velocity":69,"Duration":387097,"SoundDuration":387097,"Delta":135814457},{"NoteNumber":78,"Velocity":82,"Duration":536387,"SoundDuration":536387,"Delta":136201554},{"NoteNumber":87,"Velocity":82,"Duration":536387,"SoundDuration":536387,"Delta":136201554},{"NoteNumber":90,"Velocity":97,"Duration":536387,"SoundDuration":536387,"Delta":136201554},{"NoteNumber":34,"Velocity":67,"Duration":196078,"SoundDuration":196078,"Delta":136201554},{"NoteNumber":46,"Velocity":79,"Duration":196078,"SoundDuration":196078,"Delta":136201554},{"NoteNumber":61,"Velocity":79,"Duration":303839,"SoundDuration":303839,"Delta":136593711},{"NoteNumber":53,"Velocity":67,"Duration":303839,"SoundDuration":303839,"Delta":136593711},{"NoteNumber":65,"Velocity":79,"Duration":303839,"SoundDuration":303839,"Delta":136593711},{"NoteNumber":77,"Velocity":79,"Duration":143647,"SoundDuration":143647,"Delta":136737942},{"NoteNumber":85,"Velocity":79,"Duration":143647,"SoundDuration":143647,"Delta":136737942},{"NoteNumber":89,"Velocity":93,"Duration":143647,"SoundDuration":143647,"Delta":136737942},{"NoteNumber":77,"Velocity":79,"Duration":346821,"SoundDuration":346821,"Delta":136897551},{"NoteNumber":85,"Velocity":79,"Duration":346821,"SoundDuration":346821,"Delta":136897551},{"NoteNumber":89,"Velocity":93,"Duration":346821,"SoundDuration":346821,"Delta":136897551},{"NoteNumber":70,"Velocity":77,"Duration":346821,"SoundDuration":346821,"Delta":136897551},{"NoteNumber":61,"Velocity":77,"Duration":346821,"SoundDuration":346821,"Delta":136897551},{"NoteNumber":58,"Velocity":64,"Duration":346821,"SoundDuration":346821,"Delta":136897551},{"NoteNumber":65,"Velocity":71,"Duration":86705,"SoundDuration":86705,"Delta":137157666},{"NoteNumber":65,"Velocity":71,"Duration":69364,"SoundDuration":69364,"Delta":137244372},{"NoteNumber":41,"Velocity":72,"Duration":86705,"SoundDuration":86705,"Delta":137244372},{"NoteNumber":53,"Velocity":85,"Duration":86705,"SoundDuration":86705,"Delta":137244372},{"NoteNumber":66,"Velocity":71,"Duration":69364,"SoundDuration":69364,"Delta":137313736},{"NoteNumber":65,"Velocity":71,"Duration":69364,"SoundDuration":69364,"Delta":137383100},{"NoteNumber":64,"Velocity":71,"Duration":69364,"SoundDuration":69364,"Delta":137452464},{"NoteNumber":65,"Velocity":71,"Duration":69364,"SoundDuration":69364,"Delta":137521828},{"NoteNumber":70,"Velocity":87,"Duration":333333,"SoundDuration":333333,"Delta":137591193},{"NoteNumber":46,"Velocity":73,"Duration":166666,"SoundDuration":166666,"Delta":137591193},{"NoteNumber":58,"Velocity":86,"Duration":166666,"SoundDuration":166666,"Delta":137591193},{"NoteNumber":73,"Velocity":74,"Duration":166666,"SoundDuration":166666,"Delta":137924526},{"NoteNumber":85,"Velocity":88,"Duration":166666,"SoundDuration":166666,"Delta":137924526},{"NoteNumber":82,"Velocity":74,"Duration":166666,"SoundDuration":166666,"Delta":137924526},{"NoteNumber":29,"Velocity":61,"Duration":343137,"SoundDuration":343137,"Delta":137924526},{"NoteNumber":41,"Velocity":73,"Duration":343137,"SoundDuration":343137,"Delta":137924526},{"NoteNumber":75,"Velocity":73,"Duration":176470,"SoundDuration":176470,"Delta":138091193},{"NoteNumber":84,"Velocity":73,"Duration":176470,"SoundDuration":176470,"Delta":138091193},{"NoteNumber":87,"Velocity":86,"Duration":176470,"SoundDuration":176470,"Delta":138091193},{"NoteNumber":90,"Velocity":93,"Duration":174836,"SoundDuration":174836,"Delta":138267663},{"NoteNumber":78,"Velocity":79,"Duration":174836,"SoundDuration":174836,"Delta":138267663},{"NoteNumber":87,"Velocity":79,"Duration":174836,"SoundDuration":174836,"Delta":138267663},{"NoteNumber":34,"Velocity":67,"Duration":341503,"SoundDuration":341503,"Delta":138267663},{"NoteNumber":46,"Velocity":79,"Duration":341503,"SoundDuration":341503,"Delta":138267663},{"NoteNumber":77,"Velocity":74,"Duration":83333,"SoundDuration":83333,"Delta":138525833},{"NoteNumber":85,"Velocity":74,"Duration":83333,"SoundDuration":83333,"Delta":138525833},{"NoteNumber":89,"Velocity":88,"Duration":83333,"SoundDuration":83333,"Delta":138525833},{"NoteNumber":85,"Velocity":74,"Duration":143540,"SoundDuration":143540,"Delta":138609167},{"NoteNumber":77,"Velocity":74,"Duration":143540,"SoundDuration":143540,"Delta":138609167},{"NoteNumber":89,"Velocity":93,"Duration":143540,"SoundDuration":143540,"Delta":138609167},{"NoteNumber":61,"Velocity":61,"Duration":322112,"SoundDuration":322112,"Delta":138609167},{"NoteNumber":65,"Velocity":73,"Duration":322112,"SoundDuration":322112,"Delta":138609167},{"NoteNumber":53,"Velocity":61,"Duration":322112,"SoundDuration":322112,"Delta":138609167},{"NoteNumber":76,"Velocity":74,"Duration":178571,"SoundDuration":178571,"Delta":138752707},{"NoteNumber":88,"Velocity":88,"Duration":178571,"SoundDuration":178571,"Delta":138752707},{"NoteNumber":84,"Velocity":74,"Duration":178571,"SoundDuration":178571,"Delta":138752707},{"NoteNumber":77,"Velocity":88,"Duration":357143,"SoundDuration":357143,"Delta":138931279},{"NoteNumber":85,"Velocity":74,"Duration":357143,"SoundDuration":357143,"Delta":138931279},{"NoteNumber":89,"Velocity":88,"Duration":357143,"SoundDuration":357143,"Delta":138931279},{"NoteNumber":70,"Velocity":75,"Duration":357143,"SoundDuration":357143,"Delta":138931279},{"NoteNumber":61,"Velocity":75,"Duration":357143,"SoundDuration":357143,"Delta":138931279},{"NoteNumber":58,"Velocity":63,"Duration":357143,"SoundDuration":357143,"Delta":138931279},{"NoteNumber":65,"Velocity":71,"Duration":89285,"SoundDuration":89285,"Delta":139199136},{"NoteNumber":65,"Velocity":71,"Duration":68181,"SoundDuration":68181,"Delta":139288422},{"NoteNumber":41,"Velocity":67,"Duration":85227,"SoundDuration":85227,"Delta":139288422},{"NoteNumber":53,"Velocity":80,"Duration":85227,"SoundDuration":85227,"Delta":139288422},{"NoteNumber":66,"Velocity":71,"Duration":68181,"SoundDuration":68181,"Delta":139356604},{"NoteNumber":65,"Velocity":71,"Duration":68181,"SoundDuration":68181,"Delta":139424785},{"NoteNumber":64,"Velocity":71,"Duration":68181,"SoundDuration":68181,"Delta":139492967},{"NoteNumber":65,"Velocity":71,"Duration":68181,"SoundDuration":68181,"Delta":139561149},{"NoteNumber":70,"Velocity":87,"Duration":322580,"SoundDuration":322580,"Delta":139629331},{"NoteNumber":46,"Velocity":73,"Duration":161290,"SoundDuration":161290,"Delta":139629331},{"NoteNumber":58,"Velocity":86,"Duration":161290,"SoundDuration":161290,"Delta":139629331},{"NoteNumber":79,"Velocity":81,"Duration":175438,"SoundDuration":175438,"Delta":139951911},{"NoteNumber":91,"Velocity":96,"Duration":175438,"SoundDuration":175438,"Delta":139951911},{"NoteNumber":85,"Velocity":81,"Duration":175438,"SoundDuration":175438,"Delta":139951911},{"NoteNumber":34,"Velocity":61,"Duration":359619,"SoundDuration":359619,"Delta":139951911},{"NoteNumber":46,"Velocity":73,"Duration":359619,"SoundDuration":359619,"Delta":139951911},{"NoteNumber":80,"Velocity":80,"Duration":184181,"SoundDuration":184181,"Delta":140127350},{"NoteNumber":92,"Velocity":94,"Duration":184181,"SoundDuration":184181,"Delta":140127350},{"NoteNumber":84,"Velocity":85,"Duration":173410,"SoundDuration":173410,"Delta":140311531},{"NoteNumber":96,"Velocity":101,"Duration":173410,"SoundDuration":173410,"Delta":140311531},{"NoteNumber":27,"Velocity":67,"Duration":173410,"SoundDuration":173410,"Delta":140311531},{"NoteNumber":39,"Velocity":79,"Duration":173410,"SoundDuration":173410,"Delta":140311531},{"NoteNumber":87,"Velocity":74,"Duration":173410,"SoundDuration":173410,"Delta":140484942},{"NoteNumber":91,"Velocity":88,"Duration":173410,"SoundDuration":173410,"Delta":140484942},{"NoteNumber":96,"Velocity":93,"Duration":142857,"SoundDuration":142857,"Delta":140658352},{"NoteNumber":84,"Velocity":79,"Duration":142857,"SoundDuration":142857,"Delta":140658352},{"NoteNumber":67,"Velocity":60,"Duration":313311,"SoundDuration":313311,"Delta":140658352},{"NoteNumber":61,"Velocity":60,"Duration":313311,"SoundDuration":313311,"Delta":140658352},{"NoteNumber":72,"Velocity":72,"Duration":142857,"SoundDuration":142857,"Delta":140658352},{"NoteNumber":63,"Velocity":60,"Duration":313311,"SoundDuration":313311,"Delta":140658352},{"NoteNumber":70,"Velocity":70,"Duration":170454,"SoundDuration":170454,"Delta":140801209},{"NoteNumber":94,"Velocity":92,"Duration":76704,"SoundDuration":76704,"Delta":140886437},{"NoteNumber":82,"Velocity":78,"Duration":76704,"SoundDuration":76704,"Delta":140886437},{"NoteNumber":82,"Velocity":81,"Duration":166666,"SoundDuration":166666,"Delta":140971664},{"NoteNumber":94,"Velocity":97,"Duration":166666,"SoundDuration":166666,"Delta":140971664},{"NoteNumber":51,"Velocity":75,"Duration":166666,"SoundDuration":166666,"Delta":140971664},{"NoteNumber":84,"Velocity":70,"Duration":166666,"SoundDuration":166666,"Delta":141138331},{"NoteNumber":87,"Velocity":84,"Duration":166666,"SoundDuration":166666,"Delta":141138331},{"NoteNumber":94,"Velocity":90,"Duration":142857,"SoundDuration":142857,"Delta":141304997},{"NoteNumber":82,"Velocity":75,"Duration":142857,"SoundDuration":142857,"Delta":141304997},{"NoteNumber":70,"Velocity":72,"Duration":142857,"SoundDuration":142857,"Delta":141304997},{"NoteNumber":60,"Velocity":58,"Duration":313311,"SoundDuration":313311,"Delta":141304997},{"NoteNumber":63,"Velocity":69,"Duration":313311,"SoundDuration":313311,"Delta":141304997},{"NoteNumber":68,"Velocity":70,"Duration":170454,"SoundDuration":170454,"Delta":141447855},{"NoteNumber":80,"Velocity":68,"Duration":76704,"SoundDuration":76704,"Delta":141533082},{"NoteNumber":92,"Velocity":80,"Duration":76704,"SoundDuration":76704,"Delta":141533082},{"NoteNumber":80,"Velocity":79,"Duration":166666,"SoundDuration":166666,"Delta":141618309},{"NoteNumber":92,"Velocity":93,"Duration":166666,"SoundDuration":166666,"Delta":141618309},{"NoteNumber":51,"Velocity":73,"Duration":166666,"SoundDuration":166666,"Delta":141618309},{"NoteNumber":87,"Velocity":79,"Duration":166666,"SoundDuration":166666,"Delta":141784976},{"NoteNumber":82,"Velocity":67,"Duration":166666,"SoundDuration":166666,"Delta":141784976},{"NoteNumber":92,"Velocity":88,"Duration":142857,"SoundDuration":142857,"Delta":141951643},{"NoteNumber":80,"Velocity":74,"Duration":142857,"SoundDuration":142857,"Delta":141951643},{"NoteNumber":68,"Velocity":72,"Duration":142857,"SoundDuration":142857,"Delta":141951643},{"NoteNumber":58,"Velocity":56,"Duration":313311,"SoundDuration":313311,"Delta":141951643},{"NoteNumber":63,"Velocity":67,"Duration":313311,"SoundDuration":313311,"Delta":141951643},{"NoteNumber":67,"Velocity":70,"Duration":170454,"SoundDuration":170454,"Delta":142094500},{"NoteNumber":91,"Velocity":79,"Duration":76704,"SoundDuration":76704,"Delta":142179727},{"NoteNumber":79,"Velocity":67,"Duration":76704,"SoundDuration":76704,"Delta":142179727},{"NoteNumber":79,"Velocity":75,"Duration":166666,"SoundDuration":166666,"Delta":142264954},{"NoteNumber":91,"Velocity":90,"Duration":166666,"SoundDuration":166666,"Delta":142264954},{"NoteNumber":46,"Velocity":70,"Duration":166666,"SoundDuration":166666,"Delta":142264954},{"NoteNumber":86,"Velocity":78,"Duration":166666,"SoundDuration":166666,"Delta":142431621},{"NoteNumber":82,"Velocity":66,"Duration":166666,"SoundDuration":166666,"Delta":142431621},{"NoteNumber":79,"Velocity":72,"Duration":142857,"SoundDuration":142857,"Delta":142598288},{"NoteNumber":91,"Velocity":85,"Duration":142857,"SoundDuration":142857,"Delta":142598288},{"NoteNumber":67,"Velocity":72,"Duration":142857,"SoundDuration":142857,"Delta":142598288},{"NoteNumber":56,"Velocity":55,"Duration":313311,"SoundDuration":313311,"Delta":142598288},{"NoteNumber":62,"Velocity":66,"Duration":313311,"SoundDuration":313311,"Delta":142598288},{"NoteNumber":58,"Velocity":55,"Duration":313311,"SoundDuration":313311,"Delta":142598288},{"NoteNumber":65,"Velocity":70,"Duration":170454,"SoundDuration":170454,"Delta":142741145},{"NoteNumber":89,"Velocity":81,"Duration":76704,"SoundDuration":76704,"Delta":142826372},{"NoteNumber":77,"Velocity":68,"Duration":76704,"SoundDuration":76704,"Delta":142826372},{"NoteNumber":89,"Velocity":88,"Duration":166666,"SoundDuration":166666,"Delta":142911600},{"NoteNumber":77,"Velocity":73,"Duration":166666,"SoundDuration":166666,"Delta":142911600},{"NoteNumber":51,"Velocity":72,"Duration":166666,"SoundDuration":166666,"Delta":142911600},{"NoteNumber":82,"Velocity":75,"Duration":166666,"SoundDuration":166666,"Delta":143078266},{"NoteNumber":79,"Velocity":64,"Duration":166666,"SoundDuration":166666,"Delta":143078266},{"NoteNumber":77,"Velocity":69,"Duration":142857,"SoundDuration":142857,"Delta":143244933},{"NoteNumber":89,"Velocity":82,"Duration":142857,"SoundDuration":142857,"Delta":143244933},{"NoteNumber":65,"Velocity":72,"Duration":142857,"SoundDuration":142857,"Delta":143244933},{"NoteNumber":55,"Velocity":57,"Duration":313311,"SoundDuration":313311,"Delta":143244933},{"NoteNumber":58,"Velocity":68,"Duration":313311,"SoundDuration":313311,"Delta":143244933},{"NoteNumber":63,"Velocity":70,"Duration":170454,"SoundDuration":170454,"Delta":143387790},{"NoteNumber":75,"Velocity":64,"Duration":85227,"SoundDuration":85227,"Delta":143473018},{"NoteNumber":87,"Velocity":75,"Duration":85227,"SoundDuration":85227,"Delta":143473018},{"NoteNumber":73,"Velocity":75,"Duration":166666,"SoundDuration":166666,"Delta":143558245},{"NoteNumber":85,"Velocity":90,"Duration":166666,"SoundDuration":166666,"Delta":143558245},{"NoteNumber":41,"Velocity":62,"Duration":333333,"SoundDuration":333333,"Delta":143558245},{"NoteNumber":53,"Velocity":74,"Duration":646645,"SoundDuration":646645,"Delta":143558245},{"NoteNumber":77,"Velocity":64,"Duration":166666,"SoundDuration":166666,"Delta":143724912},{"NoteNumber":80,"Velocity":75,"Duration":166666,"SoundDuration":166666,"Delta":143724912},{"NoteNumber":85,"Velocity":84,"Duration":142857,"SoundDuration":142857,"Delta":143891578},{"NoteNumber":73,"Velocity":70,"Duration":142857,"SoundDuration":142857,"Delta":143891578},{"NoteNumber":61,"Velocity":72,"Duration":142857,"SoundDuration":142857,"Delta":143891578},{"NoteNumber":56,"Velocity":68,"Duration":313311,"SoundDuration":313311,"Delta":143891578},{"NoteNumber":60,"Velocity":70,"Duration":170454,"SoundDuration":170454,"Delta":144034436},{"NoteNumber":84,"Velocity":74,"Duration":85227,"SoundDuration":85227,"Delta":144119663},{"NoteNumber":72,"Velocity":63,"Duration":85227,"SoundDuration":85227,"Delta":144119663},{"NoteNumber":65,"Velocity":92,"Duration":669079,"SoundDuration":669079,"Delta":144204890},{"NoteNumber":37,"Velocity":62,"Duration":340908,"SoundDuration":340908,"Delta":144204890},{"NoteNumber":49,"Velocity":74,"Duration":340908,"SoundDuration":340908,"Delta":144204890},{"NoteNumber":53,"Velocity":55,"Duration":328170,"SoundDuration":328170,"Delta":144545799},{"NoteNumber":58,"Velocity":64,"Duration":328170,"SoundDuration":328170,"Delta":144545799},{"NoteNumber":67,"Velocity":56,"Duration":81673,"SoundDuration":81673,"Delta":144873970},{"NoteNumber":36,"Velocity":50,"Duration":315197,"SoundDuration":315197,"Delta":144873970},{"NoteNumber":48,"Velocity":60,"Duration":315197,"SoundDuration":315197,"Delta":144873970},{"NoteNumber":68,"Velocity":56,"Duration":79649,"SoundDuration":79649,"Delta":144955644},{"NoteNumber":67,"Velocity":56,"Duration":77857,"SoundDuration":77857,"Delta":145035293},{"NoteNumber":68,"Velocity":57,"Duration":76016,"SoundDuration":76016,"Delta":145113151},{"NoteNumber":65,"Velocity":57,"Duration":163043,"SoundDuration":163043,"Delta":145189168},{"NoteNumber":52,"Velocity":45,"Duration":325940,"SoundDuration":325940,"Delta":145189168},{"NoteNumber":60,"Velocity":54,"Duration":325940,"SoundDuration":325940,"Delta":145189168},{"NoteNumber":58,"Velocity":45,"Duration":325940,"SoundDuration":325940,"Delta":145189168},{"NoteNumber":67,"Velocity":58,"Duration":162896,"SoundDuration":162896,"Delta":145352211},{"NoteNumber":68,"Velocity":60,"Duration":80215,"SoundDuration":80215,"Delta":145515108},{"NoteNumber":29,"Velocity":52,"Duration":312365,"SoundDuration":312365,"Delta":145515108},{"NoteNumber":41,"Velocity":62,"Duration":312365,"SoundDuration":312365,"Delta":145515108},{"NoteNumber":70,"Velocity":60,"Duration":78812,"SoundDuration":78812,"Delta":145595323},{"NoteNumber":68,"Velocity":61,"Duration":77320,"SoundDuration":77320,"Delta":145674136},{"NoteNumber":70,"Velocity":61,"Duration":76016,"SoundDuration":76016,"Delta":145751457},{"NoteNumber":67,"Velocity":62,"Duration":163043,"SoundDuration":163043,"Delta":145827473},{"NoteNumber":53,"Velocity":58,"Duration":326087,"SoundDuration":326087,"Delta":145827473},{"NoteNumber":56,"Velocity":58,"Duration":326087,"SoundDuration":326087,"Delta":145827473},{"NoteNumber":60,"Velocity":58,"Duration":326087,"SoundDuration":326087,"Delta":145827473},{"NoteNumber":68,"Velocity":63,"Duration":163043,"SoundDuration":163043,"Delta":145990517},{"NoteNumber":61,"Velocity":46,"Duration":336233,"SoundDuration":336233,"Delta":146153560},{"NoteNumber":67,"Velocity":46,"Duration":336233,"SoundDuration":336233,"Delta":146153560},{"NoteNumber":69,"Velocity":65,"Duration":166703,"SoundDuration":166703,"Delta":146153560},{"NoteNumber":39,"Velocity":43,"Duration":166703,"SoundDuration":166703,"Delta":146153560},{"NoteNumber":51,"Velocity":51,"Duration":166703,"SoundDuration":166703,"Delta":146153560},{"NoteNumber":70,"Velocity":61,"Duration":169529,"SoundDuration":169529,"Delta":146320264},{"NoteNumber":61,"Velocity":43,"Duration":334610,"SoundDuration":334610,"Delta":146489794},{"NoteNumber":67,"Velocity":43,"Duration":334610,"SoundDuration":334610,"Delta":146489794},{"NoteNumber":72,"Velocity":61,"Duration":162197,"SoundDuration":162197,"Delta":146489794},{"NoteNumber":51,"Velocity":40,"Duration":334610,"SoundDuration":334610,"Delta":146489794},{"NoteNumber":58,"Velocity":47,"Duration":334610,"SoundDuration":334610,"Delta":146489794},{"NoteNumber":73,"Velocity":61,"Duration":172413,"SoundDuration":172413,"Delta":146651991},{"NoteNumber":60,"Velocity":46,"Duration":326087,"SoundDuration":326087,"Delta":146824405},{"NoteNumber":68,"Velocity":55,"Duration":326087,"SoundDuration":326087,"Delta":146824405},{"NoteNumber":72,"Velocity":65,"Duration":326087,"SoundDuration":326087,"Delta":146824405},{"NoteNumber":44,"Velocity":40,"Duration":326087,"SoundDuration":326087,"Delta":146824405},{"NoteNumber":51,"Velocity":48,"Duration":326087,"SoundDuration":326087,"Delta":146824405},{"NoteNumber":56,"Velocity":56,"Duration":326087,"SoundDuration":326087,"Delta":146824405},{"NoteNumber":77,"Velocity":66,"Duration":244565,"SoundDuration":244565,"Delta":147150492},{"NoteNumber":59,"Velocity":56,"Duration":244565,"SoundDuration":244565,"Delta":147150492},{"NoteNumber":62,"Velocity":56,"Duration":244565,"SoundDuration":244565,"Delta":147150492},{"NoteNumber":65,"Velocity":56,"Duration":244565,"SoundDuration":244565,"Delta":147150492},{"NoteNumber":68,"Velocity":56,"Duration":244565,"SoundDuration":244565,"Delta":147150492},{"NoteNumber":63,"Velocity":50,"Duration":73369,"SoundDuration":73369,"Delta":147395057},{"NoteNumber":60,"Velocity":50,"Duration":73369,"SoundDuration":73369,"Delta":147395057},{"NoteNumber":75,"Velocity":60,"Duration":73369,"SoundDuration":73369,"Delta":147395057},{"NoteNumber":68,"Velocity":50,"Duration":73369,"SoundDuration":73369,"Delta":147395057},{"NoteNumber":60,"Velocity":56,"Duration":163043,"SoundDuration":163043,"Delta":147476579},{"NoteNumber":75,"Velocity":67,"Duration":163043,"SoundDuration":163043,"Delta":147476579},{"NoteNumber":63,"Velocity":56,"Duration":163043,"SoundDuration":163043,"Delta":147476579},{"NoteNumber":68,"Velocity":56,"Duration":163043,"SoundDuration":163043,"Delta":147476579},{"NoteNumber":68,"Velocity":63,"Duration":331582,"SoundDuration":331582,"Delta":147639622},{"NoteNumber":80,"Velocity":75,"Duration":168539,"SoundDuration":168539,"Delta":147802666},{"NoteNumber":44,"Velocity":55,"Duration":337078,"SoundDuration":337078,"Delta":147802666},{"NoteNumber":56,"Velocity":65,"Duration":337078,"SoundDuration":337078,"Delta":147802666},{"NoteNumber":67,"Velocity":58,"Duration":84269,"SoundDuration":84269,"Delta":148055474},{"NoteNumber":79,"Velocity":70,"Duration":84269,"SoundDuration":84269,"Delta":148055474},{"NoteNumber":65,"Velocity":58,"Duration":679047,"SoundDuration":679047,"Delta":148139744},{"NoteNumber":77,"Velocity":70,"Duration":679047,"SoundDuration":679047,"Delta":148139744},{"NoteNumber":37,"Velocity":56,"Duration":350876,"SoundDuration":350876,"Delta":148139744},{"NoteNumber":49,"Velocity":67,"Duration":350876,"SoundDuration":350876,"Delta":148139744},{"NoteNumber":53,"Velocity":50,"Duration":328170,"SoundDuration":328170,"Delta":148490621},{"NoteNumber":58,"Velocity":58,"Duration":328170,"SoundDuration":328170,"Delta":148490621},{"NoteNumber":67,"Velocity":64,"Duration":161322,"SoundDuration":161322,"Delta":148818792},{"NoteNumber":36,"Velocity":57,"Duration":315197,"SoundDuration":315197,"Delta":148818792},{"NoteNumber":48,"Velocity":69,"Duration":315197,"SoundDuration":315197,"Delta":148818792},{"NoteNumber":79,"Velocity":64,"Duration":52084,"SoundDuration":52084,"Delta":148980115},{"NoteNumber":80,"Velocity":65,"Duration":51283,"SoundDuration":51283,"Delta":149032200},{"NoteNumber":79,"Velocity":64,"Duration":50506,"SoundDuration":50506,"Delta":149083483},{"NoteNumber":65,"Velocity":55,"Duration":163043,"SoundDuration":163043,"Delta":149133989},{"NoteNumber":77,"Velocity":65,"Duration":163043,"SoundDuration":163043,"Delta":149133989},{"NoteNumber":58,"Velocity":51,"Duration":325940,"SoundDuration":325940,"Delta":149133989},{"NoteNumber":64,"Velocity":62,"Duration":325940,"SoundDuration":325940,"Delta":149133989},{"NoteNumber":60,"Velocity":51,"Duration":325940,"SoundDuration":325940,"Delta":149133989},{"NoteNumber":67,"Velocity":55,"Duration":162896,"SoundDuration":162896,"Delta":149297033},{"NoteNumber":79,"Velocity":66,"Duration":162896,"SoundDuration":162896,"Delta":149297033},{"NoteNumber":68,"Velocity":64,"Duration":159027,"SoundDuration":159027,"Delta":149459930},{"NoteNumber":29,"Velocity":59,"Duration":312365,"SoundDuration":312365,"Delta":149459930},{"NoteNumber":41,"Velocity":71,"Duration":312365,"SoundDuration":312365,"Delta":149459930},{"NoteNumber":80,"Velocity":64,"Duration":51679,"SoundDuration":51679,"Delta":149618958},{"NoteNumber":82,"Velocity":64,"Duration":51151,"SoundDuration":51151,"Delta":149670637},{"NoteNumber":80,"Velocity":64,"Duration":50506,"SoundDuration":50506,"Delta":149721789},{"NoteNumber":67,"Velocity":59,"Duration":163043,"SoundDuration":163043,"Delta":149772295},{"NoteNumber":79,"Velocity":71,"Duration":163043,"SoundDuration":163043,"Delta":149772295},{"NoteNumber":56,"Velocity":66,"Duration":326087,"SoundDuration":326087,"Delta":149772295},{"NoteNumber":60,"Velocity":66,"Duration":326087,"SoundDuration":326087,"Delta":149772295},{"NoteNumber":65,"Velocity":66,"Duration":326087,"SoundDuration":326087,"Delta":149772295},{"NoteNumber":68,"Velocity":60,"Duration":163043,"SoundDuration":163043,"Delta":149935339},{"NoteNumber":80,"Velocity":72,"Duration":163043,"SoundDuration":163043,"Delta":149935339},{"NoteNumber":69,"Velocity":52,"Duration":165745,"SoundDuration":165745,"Delta":150098382},{"NoteNumber":75,"Velocity":52,"Duration":165745,"SoundDuration":165745,"Delta":150098382},{"NoteNumber":81,"Velocity":74,"Duration":165745,"SoundDuration":165745,"Delta":150098382},{"NoteNumber":39,"Velocity":58,"Duration":165745,"SoundDuration":165745,"Delta":150098382},{"NoteNumber":51,"Velocity":70,"Duration":165745,"SoundDuration":165745,"Delta":150098382},{"NoteNumber":70,"Velocity":63,"Duration":167635,"SoundDuration":167635,"Delta":150264128},{"NoteNumber":82,"Velocity":70,"Duration":167635,"SoundDuration":167635,"Delta":150264128},{"NoteNumber":72,"Velocity":49,"Duration":161325,"SoundDuration":161325,"Delta":150431763},{"NoteNumber":79,"Velocity":58,"Duration":161325,"SoundDuration":161325,"Delta":150431763},{"NoteNumber":84,"Velocity":70,"Duration":161325,"SoundDuration":161325,"Delta":150431763},{"NoteNumber":58,"Velocity":46,"Duration":329902,"SoundDuration":329902,"Delta":150431763},{"NoteNumber":61,"Velocity":46,"Duration":329902,"SoundDuration":329902,"Delta":150431763},{"NoteNumber":63,"Velocity":55,"Duration":329902,"SoundDuration":329902,"Delta":150431763},{"NoteNumber":67,"Velocity":64,"Duration":329902,"SoundDuration":329902,"Delta":150431763},{"NoteNumber":73,"Velocity":58,"Duration":168577,"SoundDuration":168577,"Delta":150593088},{"NoteNumber":85,"Velocity":70,"Duration":168577,"SoundDuration":168577,"Delta":150593088},{"NoteNumber":72,"Velocity":63,"Duration":170454,"SoundDuration":170454,"Delta":150761665},{"NoteNumber":80,"Velocity":63,"Duration":170454,"SoundDuration":170454,"Delta":150761665},{"NoteNumber":84,"Velocity":74,"Duration":170454,"SoundDuration":170454,"Delta":150761665},{"NoteNumber":56,"Velocity":55,"Duration":170454,"SoundDuration":170454,"Delta":150761665},{"NoteNumber":63,"Velocity":55,"Duration":170454,"SoundDuration":170454,"Delta":150761665},{"NoteNumber":68,"Velocity":64,"Duration":170454,"SoundDuration":170454,"Delta":150761665},{"NoteNumber":77,"Velocity":64,"Duration":261171,"SoundDuration":261171,"Delta":151102574},{"NoteNumber":80,"Velocity":64,"Duration":261171,"SoundDuration":261171,"Delta":151102574},{"NoteNumber":89,"Velocity":75,"Duration":261171,"SoundDuration":261171,"Delta":151102574},{"NoteNumber":68,"Velocity":64,"Duration":261171,"SoundDuration":261171,"Delta":151102574},{"NoteNumber":59,"Velocity":64,"Duration":261171,"SoundDuration":261171,"Delta":151102574},{"NoteNumber":62,"Velocity":64,"Duration":261171,"SoundDuration":261171,"Delta":151102574},{"NoteNumber":71,"Velocity":64,"Duration":261171,"SoundDuration":261171,"Delta":151102574},{"NoteNumber":75,"Velocity":57,"Duration":79881,"SoundDuration":79881,"Delta":151363745},{"NoteNumber":80,"Velocity":57,"Duration":79881,"SoundDuration":79881,"Delta":151363745},{"NoteNumber":87,"Velocity":69,"Duration":79881,"SoundDuration":79881,"Delta":151363745},{"NoteNumber":68,"Velocity":57,"Duration":79881,"SoundDuration":79881,"Delta":151363745},{"NoteNumber":60,"Velocity":57,"Duration":79881,"SoundDuration":79881,"Delta":151363745},{"NoteNumber":72,"Velocity":57,"Duration":79881,"SoundDuration":79881,"Delta":151363745},{"NoteNumber":63,"Velocity":57,"Duration":79881,"SoundDuration":79881,"Delta":151363745},{"NoteNumber":75,"Velocity":64,"Duration":172413,"SoundDuration":172413,"Delta":151452503},{"NoteNumber":80,"Velocity":64,"Duration":172413,"SoundDuration":172413,"Delta":151452503},{"NoteNumber":87,"Velocity":77,"Duration":172413,"SoundDuration":172413,"Delta":151452503},{"NoteNumber":68,"Velocity":64,"Duration":172413,"SoundDuration":172413,"Delta":151452503},{"NoteNumber":72,"Velocity":64,"Duration":172413,"SoundDuration":172413,"Delta":151452503},{"NoteNumber":60,"Velocity":64,"Duration":172413,"SoundDuration":172413,"Delta":151452503},{"NoteNumber":63,"Velocity":64,"Duration":172413,"SoundDuration":172413,"Delta":151452503},{"NoteNumber":53,"Velocity":55,"Duration":379310,"SoundDuration":379310,"Delta":151668020},{"NoteNumber":87,"Velocity":59,"Duration":86206,"SoundDuration":86206,"Delta":151711123},{"NoteNumber":75,"Velocity":59,"Duration":86206,"SoundDuration":86206,"Delta":151711123},{"NoteNumber":60,"Velocity":55,"Duration":336207,"SoundDuration":336207,"Delta":151711123},{"NoteNumber":63,"Velocity":55,"Duration":293103,"SoundDuration":293103,"Delta":151754227},{"NoteNumber":73,"Velocity":64,"Duration":250000,"SoundDuration":250000,"Delta":151797330},{"NoteNumber":81,"Velocity":64,"Duration":250000,"SoundDuration":250000,"Delta":151797330},{"NoteNumber":85,"Velocity":75,"Duration":250000,"SoundDuration":250000,"Delta":151797330},{"NoteNumber":69,"Velocity":65,"Duration":250000,"SoundDuration":250000,"Delta":151797330},{"NoteNumber":72,"Velocity":58,"Duration":83333,"SoundDuration":83333,"Delta":152047330},{"NoteNumber":84,"Velocity":70,"Duration":83333,"SoundDuration":83333,"Delta":152047330},{"NoteNumber":46,"Velocity":59,"Duration":344961,"SoundDuration":344961,"Delta":152047330},{"NoteNumber":53,"Velocity":59,"Duration":303294,"SoundDuration":303294,"Delta":152088997},{"NoteNumber":70,"Velocity":64,"Duration":174418,"SoundDuration":174418,"Delta":152130664},{"NoteNumber":82,"Velocity":75,"Duration":174418,"SoundDuration":174418,"Delta":152130664},{"NoteNumber":61,"Velocity":71,"Duration":261627,"SoundDuration":261627,"Delta":152130664},{"NoteNumber":51,"Velocity":55,"Duration":340018,"SoundDuration":340018,"Delta":152392292},{"NoteNumber":58,"Velocity":55,"Duration":296413,"SoundDuration":296413,"Delta":152435896},{"NoteNumber":70,"Velocity":58,"Duration":252808,"SoundDuration":252808,"Delta":152479501},{"NoteNumber":78,"Velocity":58,"Duration":252808,"SoundDuration":252808,"Delta":152479501},{"NoteNumber":82,"Velocity":70,"Duration":252808,"SoundDuration":252808,"Delta":152479501},{"NoteNumber":66,"Velocity":65,"Duration":252808,"SoundDuration":252808,"Delta":152479501},{"NoteNumber":72,"Velocity":58,"Duration":84269,"SoundDuration":84269,"Delta":152732310},{"NoteNumber":84,"Velocity":70,"Duration":84269,"SoundDuration":84269,"Delta":152732310},{"NoteNumber":46,"Velocity":51,"Duration":345445,"SoundDuration":345445,"Delta":152732310},{"NoteNumber":53,"Velocity":51,"Duration":303310,"SoundDuration":303310,"Delta":152774444},{"NoteNumber":73,"Velocity":62,"Duration":348894,"SoundDuration":348894,"Delta":152816579},{"NoteNumber":77,"Velocity":62,"Duration":348894,"SoundDuration":348894,"Delta":152816579},{"NoteNumber":85,"Velocity":73,"Duration":348894,"SoundDuration":348894,"Delta":152816579},{"NoteNumber":61,"Velocity":62,"Duration":261175,"SoundDuration":261175,"Delta":152816579},{"NoteNumber":39,"Velocity":51,"Duration":339115,"SoundDuration":339115,"Delta":153077755},{"NoteNumber":46,"Velocity":51,"Duration":295256,"SoundDuration":295256,"Delta":153121614},{"NoteNumber":75,"Velocity":60,"Duration":251396,"SoundDuration":251396,"Delta":153165474},{"NoteNumber":73,"Velocity":60,"Duration":251396,"SoundDuration":251396,"Delta":153165474},{"NoteNumber":85,"Velocity":72,"Duration":251396,"SoundDuration":251396,"Delta":153165474},{"NoteNumber":78,"Velocity":60,"Duration":251396,"SoundDuration":251396,"Delta":153165474},{"NoteNumber":54,"Velocity":62,"Duration":251396,"SoundDuration":251396,"Delta":153165474},{"NoteNumber":72,"Velocity":57,"Duration":83798,"SoundDuration":83798,"Delta":153416871},{"NoteNumber":84,"Velocity":69,"Duration":83798,"SoundDuration":83798,"Delta":153416871},{"NoteNumber":34,"Velocity":51,"Duration":346956,"SoundDuration":346956,"Delta":153416871},{"NoteNumber":41,"Velocity":51,"Duration":305057,"SoundDuration":305057,"Delta":153458770},{"NoteNumber":70,"Velocity":63,"Duration":350876,"SoundDuration":350876,"Delta":153500669},{"NoteNumber":77,"Velocity":63,"Duration":350876,"SoundDuration":350876,"Delta":153500669},{"NoteNumber":82,"Velocity":74,"Duration":350876,"SoundDuration":350876,"Delta":153500669},{"NoteNumber":49,"Velocity":62,"Duration":263157,"SoundDuration":263157,"Delta":153500669},{"NoteNumber":39,"Velocity":50,"Duration":339115,"SoundDuration":339115,"Delta":153763827},{"NoteNumber":46,"Velocity":50,"Duration":295256,"SoundDuration":295256,"Delta":153807687},{"NoteNumber":68,"Velocity":60,"Duration":251396,"SoundDuration":251396,"Delta":153851546},{"NoteNumber":75,"Velocity":60,"Duration":251396,"SoundDuration":251396,"Delta":153851546},{"NoteNumber":80,"Velocity":72,"Duration":251396,"SoundDuration":251396,"Delta":153851546},{"NoteNumber":70,"Velocity":60,"Duration":251396,"SoundDuration":251396,"Delta":153851546},{"NoteNumber":54,"Velocity":60,"Duration":251396,"SoundDuration":251396,"Delta":153851546},{"NoteNumber":66,"Velocity":56,"Duration":83798,"SoundDuration":83798,"Delta":154102943},{"NoteNumber":78,"Velocity":67,"Duration":83798,"SoundDuration":83798,"Delta":154102943},{"NoteNumber":46,"Velocity":55,"Duration":341977,"SoundDuration":341977,"Delta":154102943},{"NoteNumber":53,"Velocity":55,"Duration":300077,"SoundDuration":300077,"Delta":154144843},{"NoteNumber":73,"Velocity":59,"Duration":171472,"SoundDuration":171472,"Delta":154186742},{"NoteNumber":77,"Velocity":71,"Duration":171472,"SoundDuration":171472,"Delta":154186742},{"NoteNumber":65,"Velocity":59,"Duration":171472,"SoundDuration":171472,"Delta":154186742},{"NoteNumber":61,"Velocity":65,"Duration":258178,"SoundDuration":258178,"Delta":154186742},{"NoteNumber":45,"Velocity":64,"Duration":84007,"SoundDuration":84007,"Delta":154531625},{"NoteNumber":33,"Velocity":55,"Duration":84007,"SoundDuration":84007,"Delta":154531625},{"NoteNumber":46,"Velocity":64,"Duration":83210,"SoundDuration":83210,"Delta":154615633},{"NoteNumber":34,"Velocity":55,"Duration":83210,"SoundDuration":83210,"Delta":154615633},{"NoteNumber":48,"Velocity":66,"Duration":82872,"SoundDuration":82872,"Delta":154698844},{"NoteNumber":36,"Velocity":56,"Duration":82872,"SoundDuration":82872,"Delta":154698844},{"NoteNumber":49,"Velocity":67,"Duration":82447,"SoundDuration":82447,"Delta":154781717},{"NoteNumber":37,"Velocity":56,"Duration":82447,"SoundDuration":82447,"Delta":154781717},{"NoteNumber":51,"Velocity":67,"Duration":82147,"SoundDuration":82147,"Delta":154864165},{"NoteNumber":39,"Velocity":56,"Duration":82147,"SoundDuration":82147,"Delta":154864165},{"NoteNumber":53,"Velocity":68,"Duration":81848,"SoundDuration":81848,"Delta":154946312},{"NoteNumber":41,"Velocity":57,"Duration":81848,"SoundDuration":81848,"Delta":154946312},{"NoteNumber":55,"Velocity":69,"Duration":81521,"SoundDuration":81521,"Delta":155028160},{"NoteNumber":43,"Velocity":58,"Duration":81521,"SoundDuration":81521,"Delta":155028160},{"NoteNumber":57,"Velocity":69,"Duration":81110,"SoundDuration":81110,"Delta":155109682},{"NoteNumber":45,"Velocity":58,"Duration":81110,"SoundDuration":81110,"Delta":155109682},{"NoteNumber":58,"Velocity":70,"Duration":80819,"SoundDuration":80819,"Delta":155190793},{"NoteNumber":46,"Velocity":59,"Duration":80819,"SoundDuration":80819,"Delta":155190793},{"NoteNumber":60,"Velocity":71,"Duration":80530,"SoundDuration":80530,"Delta":155271612},{"NoteNumber":48,"Velocity":60,"Duration":80530,"SoundDuration":80530,"Delta":155271612},{"NoteNumber":61,"Velocity":71,"Duration":80213,"SoundDuration":80213,"Delta":155352142},{"NoteNumber":49,"Velocity":60,"Duration":80213,"SoundDuration":80213,"Delta":155352142},{"NoteNumber":63,"Velocity":72,"Duration":79815,"SoundDuration":79815,"Delta":155432356},{"NoteNumber":51,"Velocity":61,"Duration":79815,"SoundDuration":79815,"Delta":155432356},{"NoteNumber":65,"Velocity":73,"Duration":79533,"SoundDuration":79533,"Delta":155512172},{"NoteNumber":53,"Velocity":61,"Duration":79533,"SoundDuration":79533,"Delta":155512172},{"NoteNumber":67,"Velocity":73,"Duration":79253,"SoundDuration":79253,"Delta":155591706},{"NoteNumber":55,"Velocity":61,"Duration":79253,"SoundDuration":79253,"Delta":155591706},{"NoteNumber":69,"Velocity":74,"Duration":78947,"SoundDuration":78947,"Delta":155670960},{"NoteNumber":57,"Velocity":62,"Duration":78947,"SoundDuration":78947,"Delta":155670960},{"NoteNumber":70,"Velocity":74,"Duration":78561,"SoundDuration":78561,"Delta":155749907},{"NoteNumber":58,"Velocity":62,"Duration":78561,"SoundDuration":78561,"Delta":155749907},{"NoteNumber":72,"Velocity":75,"Duration":78288,"SoundDuration":78288,"Delta":155828469},{"NoteNumber":60,"Velocity":63,"Duration":78288,"SoundDuration":78288,"Delta":155828469},{"NoteNumber":73,"Velocity":77,"Duration":78017,"SoundDuration":78017,"Delta":155906757},{"NoteNumber":61,"Velocity":64,"Duration":78017,"SoundDuration":78017,"Delta":155906757},{"NoteNumber":75,"Velocity":77,"Duration":77720,"SoundDuration":77720,"Delta":155984774},{"NoteNumber":63,"Velocity":64,"Duration":77720,"SoundDuration":77720,"Delta":155984774},{"NoteNumber":77,"Velocity":78,"Duration":77346,"SoundDuration":77346,"Delta":156062494},{"NoteNumber":65,"Velocity":66,"Duration":77346,"SoundDuration":77346,"Delta":156062494},{"NoteNumber":79,"Velocity":77,"Duration":77081,"SoundDuration":77081,"Delta":156139841},{"NoteNumber":67,"Velocity":67,"Duration":77081,"SoundDuration":77081,"Delta":156139841},{"NoteNumber":81,"Velocity":77,"Duration":76818,"SoundDuration":76818,"Delta":156216922},{"NoteNumber":69,"Velocity":65,"Duration":76818,"SoundDuration":76818,"Delta":156216922},{"NoteNumber":82,"Velocity":78,"Duration":76530,"SoundDuration":76530,"Delta":156293741},{"NoteNumber":70,"Velocity":66,"Duration":76530,"SoundDuration":76530,"Delta":156293741},{"NoteNumber":84,"Velocity":79,"Duration":76168,"SoundDuration":76168,"Delta":156370272},{"NoteNumber":72,"Velocity":67,"Duration":76168,"SoundDuration":76168,"Delta":156370272},{"NoteNumber":85,"Velocity":80,"Duration":75911,"SoundDuration":75911,"Delta":156446440},{"NoteNumber":73,"Velocity":68,"Duration":75911,"SoundDuration":75911,"Delta":156446440},{"NoteNumber":87,"Velocity":80,"Duration":75656,"SoundDuration":75656,"Delta":156522351},{"NoteNumber":75,"Velocity":69,"Duration":75656,"SoundDuration":75656,"Delta":156522351},{"NoteNumber":89,"Velocity":81,"Duration":75376,"SoundDuration":75376,"Delta":156598007},{"NoteNumber":77,"Velocity":70,"Duration":75376,"SoundDuration":75376,"Delta":156598007},{"NoteNumber":91,"Velocity":82,"Duration":94569,"SoundDuration":94569,"Delta":156673384},{"NoteNumber":79,"Velocity":71,"Duration":94569,"SoundDuration":94569,"Delta":156673384},{"NoteNumber":93,"Velocity":83,"Duration":89285,"SoundDuration":89285,"Delta":156767954},{"NoteNumber":81,"Velocity":72,"Duration":59523,"SoundDuration":59523,"Delta":156767954},{"NoteNumber":94,"Velocity":92,"Duration":176470,"SoundDuration":176470,"Delta":156857240},{"NoteNumber":82,"Velocity":92,"Duration":176470,"SoundDuration":176470,"Delta":156857240},{"NoteNumber":96,"Velocity":85,"Duration":88235,"SoundDuration":88235,"Delta":157121945},{"NoteNumber":85,"Velocity":77,"Duration":162162,"SoundDuration":162162,"Delta":157210181},{"NoteNumber":94,"Velocity":91,"Duration":162162,"SoundDuration":162162,"Delta":157210181},{"NoteNumber":91,"Velocity":91,"Duration":162162,"SoundDuration":162162,"Delta":157210181},{"NoteNumber":27,"Velocity":68,"Duration":162162,"SoundDuration":162162,"Delta":157210181},{"NoteNumber":39,"Velocity":80,"Duration":162162,"SoundDuration":162162,"Delta":157210181},{"NoteNumber":90,"Velocity":85,"Duration":162162,"SoundDuration":162162,"Delta":157372343},{"NoteNumber":84,"Velocity":72,"Duration":162162,"SoundDuration":162162,"Delta":157372343},{"NoteNumber":93,"Velocity":85,"Duration":162162,"SoundDuration":162162,"Delta":157372343},{"NoteNumber":85,"Velocity":75,"Duration":352940,"SoundDuration":352940,"Delta":157534505},{"NoteNumber":91,"Velocity":90,"Duration":352940,"SoundDuration":352940,"Delta":157534505},{"NoteNumber":94,"Velocity":90,"Duration":352940,"SoundDuration":352940,"Delta":157534505},{"NoteNumber":51,"Velocity":61,"Duration":176470,"SoundDuration":176470,"Delta":157534505},{"NoteNumber":63,"Velocity":72,"Duration":176470,"SoundDuration":176470,"Delta":157534505},{"NoteNumber":84,"Velocity":72,"Duration":340909,"SoundDuration":340909,"Delta":157887446},{"NoteNumber":91,"Velocity":85,"Duration":340909,"SoundDuration":340909,"Delta":157887446},{"NoteNumber":96,"Velocity":85,"Duration":340909,"SoundDuration":340909,"Delta":157887446},{"NoteNumber":72,"Velocity":67,"Duration":340909,"SoundDuration":340909,"Delta":157887446},{"NoteNumber":67,"Velocity":67,"Duration":340909,"SoundDuration":340909,"Delta":157887446},{"NoteNumber":63,"Velocity":67,"Duration":340909,"SoundDuration":340909,"Delta":157887446},{"NoteNumber":75,"Velocity":79,"Duration":340909,"SoundDuration":340909,"Delta":157887446},{"NoteNumber":80,"Velocity":74,"Duration":338983,"SoundDuration":338983,"Delta":158228355},{"NoteNumber":84,"Velocity":74,"Duration":338983,"SoundDuration":338983,"Delta":158228355},{"NoteNumber":92,"Velocity":88,"Duration":338983,"SoundDuration":338983,"Delta":158228355},{"NoteNumber":77,"Velocity":77,"Duration":338983,"SoundDuration":338983,"Delta":158228355},{"NoteNumber":72,"Velocity":64,"Duration":338983,"SoundDuration":338983,"Delta":158228355},{"NoteNumber":65,"Velocity":64,"Duration":338983,"SoundDuration":338983,"Delta":158228355},{"NoteNumber":75,"Velocity":72,"Duration":355029,"SoundDuration":355029,"Delta":158567338},{"NoteNumber":80,"Velocity":72,"Duration":355029,"SoundDuration":355029,"Delta":158567338},{"NoteNumber":87,"Velocity":85,"Duration":355029,"SoundDuration":355029,"Delta":158567338},{"NoteNumber":60,"Velocity":61,"Duration":355029,"SoundDuration":355029,"Delta":158567338},{"NoteNumber":68,"Velocity":61,"Duration":355029,"SoundDuration":355029,"Delta":158567338},{"NoteNumber":72,"Velocity":72,"Duration":355029,"SoundDuration":355029,"Delta":158567338},{"NoteNumber":77,"Velocity":72,"Duration":201342,"SoundDuration":201342,"Delta":158922368},{"NoteNumber":80,"Velocity":72,"Duration":201342,"SoundDuration":201342,"Delta":158922368},{"NoteNumber":89,"Velocity":85,"Duration":201342,"SoundDuration":201342,"Delta":158922368},{"NoteNumber":61,"Velocity":61,"Duration":201342,"SoundDuration":201342,"Delta":158922368},{"NoteNumber":68,"Velocity":61,"Duration":201342,"SoundDuration":201342,"Delta":158922368},{"NoteNumber":73,"Velocity":72,"Duration":201342,"SoundDuration":201342,"Delta":158922368},{"NoteNumber":61,"Velocity":67,"Duration":288461,"SoundDuration":288461,"Delta":159325052},{"NoteNumber":55,"Velocity":56,"Duration":288461,"SoundDuration":288461,"Delta":159325052},{"NoteNumber":63,"Velocity":67,"Duration":769230,"SoundDuration":769230,"Delta":159325052},{"NoteNumber":39,"Velocity":58,"Duration":769230,"SoundDuration":769230,"Delta":159325052},{"NoteNumber":51,"Velocity":69,"Duration":769230,"SoundDuration":769230,"Delta":159325052},{"NoteNumber":55,"Velocity":56,"Duration":86538,"SoundDuration":86538,"Delta":159613514},{"NoteNumber":61,"Velocity":67,"Duration":86538,"SoundDuration":86538,"Delta":159613514},{"NoteNumber":55,"Velocity":61,"Duration":792778,"SoundDuration":792778,"Delta":159709668},{"NoteNumber":61,"Velocity":72,"Duration":792778,"SoundDuration":792778,"Delta":159709668},{"NoteNumber":70,"Velocity":72,"Duration":792778,"SoundDuration":792778,"Delta":159709668},{"NoteNumber":27,"Velocity":51,"Duration":204081,"SoundDuration":204081,"Delta":160094283},{"NoteNumber":39,"Velocity":61,"Duration":204081,"SoundDuration":204081,"Delta":160094283},{"NoteNumber":56,"Velocity":56,"Duration":204081,"SoundDuration":204081,"Delta":160502447},{"NoteNumber":60,"Velocity":56,"Duration":204081,"SoundDuration":204081,"Delta":160502447},{"NoteNumber":68,"Velocity":67,"Duration":204081,"SoundDuration":204081,"Delta":160502447},{"NoteNumber":32,"Velocity":51,"Duration":204081,"SoundDuration":204081,"Delta":160502447},{"NoteNumber":44,"Velocity":61,"Duration":204081,"SoundDuration":204081,"Delta":160502447},{"NoteNumber":56,"Velocity":67,"Duration":751662,"SoundDuration":751662,"Delta":161165712},{"NoteNumber":59,"Velocity":70,"Duration":706246,"SoundDuration":706246,"Delta":161211128},{"NoteNumber":40,"Velocity":53,"Duration":706246,"SoundDuration":706246,"Delta":161211128},{"NoteNumber":64,"Velocity":74,"Duration":663632,"SoundDuration":663632,"Delta":161253742},{"NoteNumber":47,"Velocity":56,"Duration":663632,"SoundDuration":663632,"Delta":161253742},{"NoteNumber":68,"Velocity":80,"Duration":621018,"SoundDuration":621018,"Delta":161296355},{"NoteNumber":52,"Velocity":60,"Duration":621018,"SoundDuration":621018,"Delta":161296355},{"NoteNumber":56,"Velocity":67,"Duration":742739,"SoundDuration":742739,"Delta":161917374},{"NoteNumber":59,"Velocity":70,"Duration":698567,"SoundDuration":698567,"Delta":161961547},{"NoteNumber":40,"Velocity":53,"Duration":698567,"SoundDuration":698567,"Delta":161961547},{"NoteNumber":64,"Velocity":74,"Duration":656194,"SoundDuration":656194,"Delta":162003919},{"NoteNumber":47,"Velocity":56,"Duration":656194,"SoundDuration":656194,"Delta":162003919},{"NoteNumber":68,"Velocity":79,"Duration":613821,"SoundDuration":613821,"Delta":162046292},{"NoteNumber":52,"Velocity":60,"Duration":613821,"SoundDuration":613821,"Delta":162046292},{"NoteNumber":56,"Velocity":66,"Duration":743702,"SoundDuration":743702,"Delta":162660114},{"NoteNumber":59,"Velocity":69,"Duration":699370,"SoundDuration":699370,"Delta":162704447},{"NoteNumber":40,"Velocity":53,"Duration":699370,"SoundDuration":699370,"Delta":162704447},{"NoteNumber":64,"Velocity":72,"Duration":656756,"SoundDuration":656756,"Delta":162747060},{"NoteNumber":47,"Velocity":56,"Duration":656756,"SoundDuration":656756,"Delta":162747060},{"NoteNumber":68,"Velocity":78,"Duration":614142,"SoundDuration":614142,"Delta":162789674},{"NoteNumber":52,"Velocity":60,"Duration":614142,"SoundDuration":614142,"Delta":162789674},{"NoteNumber":56,"Velocity":67,"Duration":751228,"SoundDuration":751228,"Delta":163403817},{"NoteNumber":59,"Velocity":70,"Duration":706733,"SoundDuration":706733,"Delta":163448312},{"NoteNumber":40,"Velocity":53,"Duration":706733,"SoundDuration":706733,"Delta":163448312},{"NoteNumber":64,"Velocity":74,"Duration":663876,"SoundDuration":663876,"Delta":163491169},{"NoteNumber":47,"Velocity":56,"Duration":663876,"SoundDuration":663876,"Delta":163491169},{"NoteNumber":68,"Velocity":79,"Duration":621018,"SoundDuration":621018,"Delta":163534026},{"NoteNumber":52,"Velocity":60,"Duration":621018,"SoundDuration":621018,"Delta":163534026},{"NoteNumber":56,"Velocity":67,"Duration":749936,"SoundDuration":749936,"Delta":164155045},{"NoteNumber":59,"Velocity":70,"Duration":705764,"SoundDuration":705764,"Delta":164199217},{"NoteNumber":40,"Velocity":53,"Duration":705764,"SoundDuration":705764,"Delta":164199217},{"NoteNumber":64,"Velocity":74,"Duration":663391,"SoundDuration":663391,"Delta":164241590},{"NoteNumber":47,"Velocity":56,"Duration":663391,"SoundDuration":663391,"Delta":164241590},{"NoteNumber":68,"Velocity":79,"Duration":621018,"SoundDuration":621018,"Delta":164283963},{"NoteNumber":52,"Velocity":60,"Duration":621018,"SoundDuration":621018,"Delta":164283963},{"NoteNumber":56,"Velocity":67,"Duration":738906,"SoundDuration":738906,"Delta":164904982},{"NoteNumber":59,"Velocity":70,"Duration":694573,"SoundDuration":694573,"Delta":164949315},{"NoteNumber":40,"Velocity":53,"Duration":694573,"SoundDuration":694573,"Delta":164949315},{"NoteNumber":64,"Velocity":75,"Duration":651959,"SoundDuration":651959,"Delta":164991928},{"NoteNumber":47,"Velocity":56,"Duration":651959,"SoundDuration":651959,"Delta":164991928},{"NoteNumber":68,"Velocity":81,"Duration":612244,"SoundDuration":612244,"Delta":165031643},{"NoteNumber":52,"Velocity":60,"Duration":612244,"SoundDuration":612244,"Delta":165031643},{"NoteNumber":56,"Velocity":65,"Duration":72815,"SoundDuration":72815,"Delta":165643888},{"NoteNumber":59,"Velocity":65,"Duration":72815,"SoundDuration":72815,"Delta":165643888},{"NoteNumber":64,"Velocity":74,"Duration":72815,"SoundDuration":72815,"Delta":165643888},{"NoteNumber":68,"Velocity":80,"Duration":72815,"SoundDuration":72815,"Delta":165643888},{"NoteNumber":40,"Velocity":53,"Duration":72815,"SoundDuration":72815,"Delta":165643888},{"NoteNumber":47,"Velocity":53,"Duration":72815,"SoundDuration":72815,"Delta":165643888},{"NoteNumber":52,"Velocity":63,"Duration":72815,"SoundDuration":72815,"Delta":165643888},{"NoteNumber":39,"Velocity":24,"Duration":72815,"SoundDuration":72815,"Delta":165789519},{"NoteNumber":51,"Velocity":28,"Duration":72815,"SoundDuration":72815,"Delta":165789519},{"NoteNumber":37,"Velocity":24,"Duration":72815,"SoundDuration":72815,"Delta":165935150},{"NoteNumber":49,"Velocity":28,"Duration":72815,"SoundDuration":72815,"Delta":165935150},{"NoteNumber":35,"Velocity":24,"Duration":76530,"SoundDuration":76530,"Delta":166080781},{"NoteNumber":47,"Velocity":28,"Duration":76530,"SoundDuration":76530,"Delta":166080781},{"NoteNumber":40,"Velocity":28,"Duration":72815,"SoundDuration":72815,"Delta":166233842},{"NoteNumber":52,"Velocity":35,"Duration":72815,"SoundDuration":72815,"Delta":166233842},{"NoteNumber":39,"Velocity":27,"Duration":72815,"SoundDuration":72815,"Delta":166379473},{"NoteNumber":51,"Velocity":32,"Duration":72815,"SoundDuration":72815,"Delta":166379473},{"NoteNumber":37,"Velocity":24,"Duration":72815,"SoundDuration":72815,"Delta":166525104},{"NoteNumber":49,"Velocity":28,"Duration":72815,"SoundDuration":72815,"Delta":166525104},{"NoteNumber":35,"Velocity":24,"Duration":75376,"SoundDuration":75376,"Delta":166670735},{"NoteNumber":47,"Velocity":28,"Duration":75376,"SoundDuration":75376,"Delta":166670735},{"NoteNumber":40,"Velocity":28,"Duration":72115,"SoundDuration":72115,"Delta":166821489},{"NoteNumber":52,"Velocity":35,"Duration":72115,"SoundDuration":72115,"Delta":166821489},{"NoteNumber":39,"Velocity":24,"Duration":72115,"SoundDuration":72115,"Delta":166965720},{"NoteNumber":51,"Velocity":28,"Duration":72115,"SoundDuration":72115,"Delta":166965720},{"NoteNumber":37,"Velocity":24,"Duration":72115,"SoundDuration":72115,"Delta":167109950},{"NoteNumber":49,"Velocity":28,"Duration":72115,"SoundDuration":72115,"Delta":167109950},{"NoteNumber":35,"Velocity":24,"Duration":76530,"SoundDuration":76530,"Delta":167254181},{"NoteNumber":47,"Velocity":28,"Duration":76530,"SoundDuration":76530,"Delta":167254181},{"NoteNumber":40,"Velocity":29,"Duration":71770,"SoundDuration":71770,"Delta":167407242},{"NoteNumber":52,"Velocity":34,"Duration":71770,"SoundDuration":71770,"Delta":167407242},{"NoteNumber":39,"Velocity":24,"Duration":71770,"SoundDuration":71770,"Delta":167550783},{"NoteNumber":51,"Velocity":28,"Duration":71770,"SoundDuration":71770,"Delta":167550783},{"NoteNumber":37,"Velocity":24,"Duration":71770,"SoundDuration":71770,"Delta":167694324},{"NoteNumber":49,"Velocity":28,"Duration":71770,"SoundDuration":71770,"Delta":167694324},{"NoteNumber":35,"Velocity":24,"Duration":76142,"SoundDuration":76142,"Delta":167837865},{"NoteNumber":47,"Velocity":28,"Duration":76142,"SoundDuration":76142,"Delta":167837865},{"NoteNumber":40,"Velocity":29,"Duration":71770,"SoundDuration":71770,"Delta":167990149},{"NoteNumber":52,"Velocity":34,"Duration":71770,"SoundDuration":71770,"Delta":167990149},{"NoteNumber":39,"Velocity":26,"Duration":71770,"SoundDuration":71770,"Delta":168133690},{"NoteNumber":51,"Velocity":32,"Duration":71770,"SoundDuration":71770,"Delta":168133690},{"NoteNumber":37,"Velocity":24,"Duration":71770,"SoundDuration":71770,"Delta":168277230},{"NoteNumber":49,"Velocity":29,"Duration":71770,"SoundDuration":71770,"Delta":168277230},{"NoteNumber":35,"Velocity":24,"Duration":76142,"SoundDuration":76142,"Delta":168420771},{"NoteNumber":47,"Velocity":29,"Duration":76142,"SoundDuration":76142,"Delta":168420771},{"NoteNumber":40,"Velocity":29,"Duration":72115,"SoundDuration":72115,"Delta":168573055},{"NoteNumber":52,"Velocity":35,"Duration":72115,"SoundDuration":72115,"Delta":168573055},{"NoteNumber":39,"Velocity":23,"Duration":72115,"SoundDuration":72115,"Delta":168717286},{"NoteNumber":51,"Velocity":28,"Duration":72115,"SoundDuration":72115,"Delta":168717286},{"NoteNumber":37,"Velocity":23,"Duration":72115,"SoundDuration":72115,"Delta":168861517},{"NoteNumber":49,"Velocity":28,"Duration":72115,"SoundDuration":72115,"Delta":168861517},{"NoteNumber":35,"Velocity":23,"Duration":74799,"SoundDuration":74799,"Delta":169005748},{"NoteNumber":47,"Velocity":28,"Duration":74799,"SoundDuration":74799,"Delta":169005748},{"NoteNumber":56,"Velocity":36,"Duration":1179916,"SoundDuration":1179916,"Delta":169156690},{"NoteNumber":59,"Velocity":44,"Duration":1179916,"SoundDuration":1179916,"Delta":169156690},{"NoteNumber":40,"Velocity":30,"Duration":72815,"SoundDuration":72815,"Delta":169156690},{"NoteNumber":52,"Velocity":36,"Duration":72815,"SoundDuration":72815,"Delta":169156690},{"NoteNumber":39,"Velocity":24,"Duration":72815,"SoundDuration":72815,"Delta":169302321},{"NoteNumber":51,"Velocity":29,"Duration":72815,"SoundDuration":72815,"Delta":169302321},{"NoteNumber":37,"Velocity":25,"Duration":72815,"SoundDuration":72815,"Delta":169447952},{"NoteNumber":49,"Velocity":29,"Duration":72815,"SoundDuration":72815,"Delta":169447952},{"NoteNumber":35,"Velocity":25,"Duration":76142,"SoundDuration":76142,"Delta":169593583},{"NoteNumber":47,"Velocity":29,"Duration":76142,"SoundDuration":76142,"Delta":169593583},{"NoteNumber":40,"Velocity":30,"Duration":72815,"SoundDuration":72815,"Delta":169745867},{"NoteNumber":52,"Velocity":36,"Duration":72815,"SoundDuration":72815,"Delta":169745867},{"NoteNumber":39,"Velocity":28,"Duration":72815,"SoundDuration":72815,"Delta":169891498},{"NoteNumber":51,"Velocity":34,"Duration":72815,"SoundDuration":72815,"Delta":169891498},{"NoteNumber":37,"Velocity":25,"Duration":72815,"SoundDuration":72815,"Delta":170037129},{"NoteNumber":49,"Velocity":30,"Duration":72815,"SoundDuration":72815,"Delta":170037129},{"NoteNumber":35,"Velocity":25,"Duration":76923,"SoundDuration":76923,"Delta":170182760},{"NoteNumber":47,"Velocity":30,"Duration":76923,"SoundDuration":76923,"Delta":170182760},{"NoteNumber":57,"Velocity":34,"Duration":436892,"SoundDuration":436892,"Delta":170336606},{"NoteNumber":59,"Velocity":41,"Duration":436892,"SoundDuration":436892,"Delta":170336606},{"NoteNumber":40,"Velocity":30,"Duration":72815,"SoundDuration":72815,"Delta":170336606},{"NoteNumber":52,"Velocity":36,"Duration":72815,"SoundDuration":72815,"Delta":170336606},{"NoteNumber":39,"Velocity":25,"Duration":72815,"SoundDuration":72815,"Delta":170482237},{"NoteNumber":51,"Velocity":29,"Duration":72815,"SoundDuration":72815,"Delta":170482237},{"NoteNumber":37,"Velocity":25,"Duration":72815,"SoundDuration":72815,"Delta":170627868},{"NoteNumber":49,"Velocity":29,"Duration":72815,"SoundDuration":72815,"Delta":170627868},{"NoteNumber":57,"Velocity":36,"Duration":153846,"SoundDuration":153846,"Delta":170773499},{"NoteNumber":59,"Velocity":43,"Duration":153846,"SoundDuration":153846,"Delta":170773499},{"NoteNumber":35,"Velocity":26,"Duration":76923,"SoundDuration":76923,"Delta":170773499},{"NoteNumber":47,"Velocity":30,"Duration":76923,"SoundDuration":76923,"Delta":170773499},{"NoteNumber":56,"Velocity":36,"Duration":430796,"SoundDuration":430796,"Delta":170927345},{"NoteNumber":59,"Velocity":43,"Duration":430796,"SoundDuration":430796,"Delta":170927345},{"NoteNumber":40,"Velocity":31,"Duration":72815,"SoundDuration":72815,"Delta":170927345},{"NoteNumber":52,"Velocity":36,"Duration":72815,"SoundDuration":72815,"Delta":170927345},{"NoteNumber":39,"Velocity":26,"Duration":72815,"SoundDuration":72815,"Delta":171072976},{"NoteNumber":51,"Velocity":30,"Duration":72815,"SoundDuration":72815,"Delta":171072976},{"NoteNumber":37,"Velocity":26,"Duration":69767,"SoundDuration":69767,"Delta":171218607},{"NoteNumber":49,"Velocity":30,"Duration":69767,"SoundDuration":69767,"Delta":171218607},{"NoteNumber":56,"Velocity":35,"Duration":153061,"SoundDuration":153061,"Delta":171358142},{"NoteNumber":64,"Velocity":41,"Duration":153061,"SoundDuration":153061,"Delta":171358142},{"NoteNumber":35,"Velocity":26,"Duration":76530,"SoundDuration":76530,"Delta":171358142},{"NoteNumber":47,"Velocity":30,"Duration":76530,"SoundDuration":76530,"Delta":171358142},{"NoteNumber":56,"Velocity":39,"Duration":583683,"SoundDuration":583683,"Delta":171511204},{"NoteNumber":59,"Velocity":39,"Duration":583683,"SoundDuration":583683,"Delta":171511204},{"NoteNumber":68,"Velocity":46,"Duration":583683,"SoundDuration":583683,"Delta":171511204},{"NoteNumber":40,"Velocity":31,"Duration":71770,"SoundDuration":71770,"Delta":171511204},{"NoteNumber":52,"Velocity":36,"Duration":71770,"SoundDuration":71770,"Delta":171511204},{"NoteNumber":39,"Velocity":28,"Duration":71770,"SoundDuration":71770,"Delta":171654744},{"NoteNumber":51,"Velocity":33,"Duration":71770,"SoundDuration":71770,"Delta":171654744},{"NoteNumber":37,"Velocity":25,"Duration":71770,"SoundDuration":71770,"Delta":171798285},{"NoteNumber":49,"Velocity":30,"Duration":71770,"SoundDuration":71770,"Delta":171798285},{"NoteNumber":35,"Velocity":25,"Duration":76530,"SoundDuration":76530,"Delta":171941826},{"NoteNumber":47,"Velocity":30,"Duration":76530,"SoundDuration":76530,"Delta":171941826},{"NoteNumber":57,"Velocity":33,"Duration":589954,"SoundDuration":589954,"Delta":172094887},{"NoteNumber":59,"Velocity":33,"Duration":589954,"SoundDuration":589954,"Delta":172094887},{"NoteNumber":66,"Velocity":40,"Duration":589954,"SoundDuration":589954,"Delta":172094887},{"NoteNumber":40,"Velocity":30,"Duration":72815,"SoundDuration":72815,"Delta":172094887},{"NoteNumber":52,"Velocity":37,"Duration":72815,"SoundDuration":72815,"Delta":172094887},{"NoteNumber":39,"Velocity":25,"Duration":72815,"SoundDuration":72815,"Delta":172240518},{"NoteNumber":51,"Velocity":30,"Duration":72815,"SoundDuration":72815,"Delta":172240518},{"NoteNumber":37,"Velocity":25,"Duration":72815,"SoundDuration":72815,"Delta":172386149},{"NoteNumber":49,"Velocity":30,"Duration":72815,"SoundDuration":72815,"Delta":172386149},{"NoteNumber":35,"Velocity":25,"Duration":76530,"SoundDuration":76530,"Delta":172531780},{"NoteNumber":47,"Velocity":30,"Duration":76530,"SoundDuration":76530,"Delta":172531780},{"NoteNumber":56,"Velocity":35,"Duration":430796,"SoundDuration":430796,"Delta":172684841},{"NoteNumber":59,"Velocity":42,"Duration":430796,"SoundDuration":430796,"Delta":172684841},{"NoteNumber":40,"Velocity":30,"Duration":72815,"SoundDuration":72815,"Delta":172684841},{"NoteNumber":52,"Velocity":37,"Duration":72815,"SoundDuration":72815,"Delta":172684841},{"NoteNumber":39,"Velocity":25,"Duration":72815,"SoundDuration":72815,"Delta":172830472},{"NoteNumber":51,"Velocity":30,"Duration":72815,"SoundDuration":72815,"Delta":172830472},{"NoteNumber":37,"Velocity":25,"Duration":69767,"SoundDuration":69767,"Delta":172976103},{"NoteNumber":49,"Velocity":30,"Duration":69767,"SoundDuration":69767,"Delta":172976103},{"NoteNumber":56,"Velocity":34,"Duration":153061,"SoundDuration":153061,"Delta":173115638},{"NoteNumber":64,"Velocity":41,"Duration":153061,"SoundDuration":153061,"Delta":173115638},{"NoteNumber":35,"Velocity":25,"Duration":76530,"SoundDuration":76530,"Delta":173115638},{"NoteNumber":47,"Velocity":30,"Duration":76530,"SoundDuration":76530,"Delta":173115638},{"NoteNumber":56,"Velocity":36,"Duration":288461,"SoundDuration":288461,"Delta":173268700},{"NoteNumber":59,"Velocity":36,"Duration":288461,"SoundDuration":288461,"Delta":173268700},{"NoteNumber":68,"Velocity":44,"Duration":288461,"SoundDuration":288461,"Delta":173268700},{"NoteNumber":40,"Velocity":31,"Duration":72115,"SoundDuration":72115,"Delta":173268700},{"NoteNumber":52,"Velocity":38,"Duration":72115,"SoundDuration":72115,"Delta":173268700},{"NoteNumber":39,"Velocity":30,"Duration":72115,"SoundDuration":72115,"Delta":173412930},{"NoteNumber":51,"Velocity":35,"Duration":72115,"SoundDuration":72115,"Delta":173412930},{"NoteNumber":37,"Velocity":26,"Duration":72115,"SoundDuration":72115,"Delta":173557161},{"NoteNumber":49,"Velocity":33,"Duration":72115,"SoundDuration":72115,"Delta":173557161},{"NoteNumber":57,"Velocity":34,"Duration":152477,"SoundDuration":152477,"Delta":173701392},{"NoteNumber":63,"Velocity":40,"Duration":152477,"SoundDuration":152477,"Delta":173701392},{"NoteNumber":35,"Velocity":26,"Duration":76923,"SoundDuration":76923,"Delta":173701392},{"NoteNumber":47,"Velocity":33,"Duration":76923,"SoundDuration":76923,"Delta":173701392},{"NoteNumber":56,"Velocity":34,"Duration":285614,"SoundDuration":285614,"Delta":173853869},{"NoteNumber":64,"Velocity":41,"Duration":285614,"SoundDuration":285614,"Delta":173853869},{"NoteNumber":40,"Velocity":33,"Duration":70754,"SoundDuration":70754,"Delta":173853869},{"NoteNumber":52,"Velocity":39,"Duration":70754,"SoundDuration":70754,"Delta":173853869},{"NoteNumber":39,"Velocity":27,"Duration":71656,"SoundDuration":71656,"Delta":173995827},{"NoteNumber":51,"Velocity":32,"Duration":71656,"SoundDuration":71656,"Delta":173995827},{"NoteNumber":56,"Velocity":35,"Duration":298694,"SoundDuration":298694,"Delta":174139483},{"NoteNumber":64,"Velocity":35,"Duration":298694,"SoundDuration":298694,"Delta":174139483},{"NoteNumber":68,"Velocity":41,"Duration":298694,"SoundDuration":298694,"Delta":174139483},{"NoteNumber":37,"Velocity":27,"Duration":72580,"SoundDuration":72580,"Delta":174139483},{"NoteNumber":49,"Velocity":33,"Duration":72580,"SoundDuration":72580,"Delta":174139483},{"NoteNumber":35,"Velocity":28,"Duration":76530,"SoundDuration":76530,"Delta":174285117},{"NoteNumber":47,"Velocity":33,"Duration":76530,"SoundDuration":76530,"Delta":174285117},{"NoteNumber":59,"Velocity":39,"Duration":287081,"SoundDuration":287081,"Delta":174438178},{"NoteNumber":68,"Velocity":39,"Duration":287081,"SoundDuration":287081,"Delta":174438178},{"NoteNumber":71,"Velocity":46,"Duration":287081,"SoundDuration":287081,"Delta":174438178},{"NoteNumber":40,"Velocity":34,"Duration":71770,"SoundDuration":71770,"Delta":174438178},{"NoteNumber":52,"Velocity":41,"Duration":71770,"SoundDuration":71770,"Delta":174438178},{"NoteNumber":39,"Velocity":27,"Duration":71770,"SoundDuration":71770,"Delta":174581719},{"NoteNumber":51,"Velocity":33,"Duration":71770,"SoundDuration":71770,"Delta":174581719},{"NoteNumber":61,"Velocity":39,"Duration":69444,"SoundDuration":69444,"Delta":174725259},{"NoteNumber":68,"Velocity":39,"Duration":69444,"SoundDuration":69444,"Delta":174725259},{"NoteNumber":73,"Velocity":47,"Duration":69444,"SoundDuration":69444,"Delta":174725259},{"NoteNumber":37,"Velocity":27,"Duration":69444,"SoundDuration":69444,"Delta":174725259},{"NoteNumber":49,"Velocity":33,"Duration":69444,"SoundDuration":69444,"Delta":174725259},{"NoteNumber":63,"Velocity":40,"Duration":76142,"SoundDuration":76142,"Delta":174864148},{"NoteNumber":68,"Velocity":40,"Duration":76142,"SoundDuration":76142,"Delta":174864148},{"NoteNumber":75,"Velocity":48,"Duration":76142,"SoundDuration":76142,"Delta":174864148},{"NoteNumber":35,"Velocity":28,"Duration":76142,"SoundDuration":76142,"Delta":174864148},{"NoteNumber":47,"Velocity":33,"Duration":76142,"SoundDuration":76142,"Delta":174864148},{"NoteNumber":64,"Velocity":42,"Duration":143540,"SoundDuration":143540,"Delta":175016433},{"NoteNumber":68,"Velocity":42,"Duration":143540,"SoundDuration":143540,"Delta":175016433},{"NoteNumber":76,"Velocity":50,"Duration":143540,"SoundDuration":143540,"Delta":175016433},{"NoteNumber":40,"Velocity":35,"Duration":71770,"SoundDuration":71770,"Delta":175016433},{"NoteNumber":52,"Velocity":41,"Duration":71770,"SoundDuration":71770,"Delta":175016433},{"NoteNumber":39,"Velocity":31,"Duration":71770,"SoundDuration":71770,"Delta":175159973},{"NoteNumber":51,"Velocity":38,"Duration":71770,"SoundDuration":71770,"Delta":175159973},{"NoteNumber":59,"Velocity":38,"Duration":147058,"SoundDuration":147058,"Delta":175303514},{"NoteNumber":68,"Velocity":38,"Duration":147058,"SoundDuration":147058,"Delta":175303514},{"NoteNumber":71,"Velocity":45,"Duration":147058,"SoundDuration":147058,"Delta":175303514},{"NoteNumber":37,"Velocity":28,"Duration":73529,"SoundDuration":73529,"Delta":175303514},{"NoteNumber":49,"Velocity":35,"Duration":73529,"SoundDuration":73529,"Delta":175303514},{"NoteNumber":35,"Velocity":28,"Duration":76142,"SoundDuration":76142,"Delta":175450573},{"NoteNumber":47,"Velocity":35,"Duration":76142,"SoundDuration":76142,"Delta":175450573},{"NoteNumber":68,"Velocity":45,"Duration":589954,"SoundDuration":589954,"Delta":175602857},{"NoteNumber":71,"Velocity":45,"Duration":589954,"SoundDuration":589954,"Delta":175602857},{"NoteNumber":80,"Velocity":53,"Duration":589954,"SoundDuration":589954,"Delta":175602857},{"NoteNumber":40,"Velocity":36,"Duration":72815,"SoundDuration":72815,"Delta":175602857},{"NoteNumber":52,"Velocity":42,"Duration":72815,"SoundDuration":72815,"Delta":175602857},{"NoteNumber":39,"Velocity":29,"Duration":72815,"SoundDuration":72815,"Delta":175748488},{"NoteNumber":51,"Velocity":34,"Duration":72815,"SoundDuration":72815,"Delta":175748488},{"NoteNumber":37,"Velocity":29,"Duration":72815,"SoundDuration":72815,"Delta":175894119},{"NoteNumber":49,"Velocity":34,"Duration":72815,"SoundDuration":72815,"Delta":175894119},{"NoteNumber":35,"Velocity":29,"Duration":76530,"SoundDuration":76530,"Delta":176039750},{"NoteNumber":47,"Velocity":34,"Duration":76530,"SoundDuration":76530,"Delta":176039750},{"NoteNumber":59,"Velocity":40,"Duration":880439,"SoundDuration":880439,"Delta":176192811},{"NoteNumber":66,"Velocity":40,"Duration":880439,"SoundDuration":880439,"Delta":176192811},{"NoteNumber":69,"Velocity":40,"Duration":880439,"SoundDuration":880439,"Delta":176192811},{"NoteNumber":71,"Velocity":48,"Duration":880439,"SoundDuration":880439,"Delta":176192811},{"NoteNumber":40,"Velocity":35,"Duration":72815,"SoundDuration":72815,"Delta":176192811},{"NoteNumber":52,"Velocity":41,"Duration":72815,"SoundDuration":72815,"Delta":176192811},{"NoteNumber":39,"Velocity":29,"Duration":72815,"SoundDuration":72815,"Delta":176338442},{"NoteNumber":51,"Velocity":34,"Duration":72815,"SoundDuration":72815,"Delta":176338442},{"NoteNumber":37,"Velocity":29,"Duration":72815,"SoundDuration":72815,"Delta":176484073},{"NoteNumber":49,"Velocity":34,"Duration":72815,"SoundDuration":72815,"Delta":176484073},{"NoteNumber":35,"Velocity":29,"Duration":76142,"SoundDuration":76142,"Delta":176629704},{"NoteNumber":47,"Velocity":34,"Duration":76142,"SoundDuration":76142,"Delta":176629704},{"NoteNumber":40,"Velocity":35,"Duration":72815,"SoundDuration":72815,"Delta":176781989},{"NoteNumber":52,"Velocity":42,"Duration":72815,"SoundDuration":72815,"Delta":176781989},{"NoteNumber":39,"Velocity":33,"Duration":72815,"SoundDuration":72815,"Delta":176927620},{"NoteNumber":51,"Velocity":39,"Duration":72815,"SoundDuration":72815,"Delta":176927620},{"NoteNumber":59,"Velocity":41,"Duration":69767,"SoundDuration":69767,"Delta":177073251},{"NoteNumber":69,"Velocity":41,"Duration":69767,"SoundDuration":69767,"Delta":177073251},{"NoteNumber":71,"Velocity":49,"Duration":69767,"SoundDuration":69767,"Delta":177073251},{"NoteNumber":37,"Velocity":29,"Duration":69767,"SoundDuration":69767,"Delta":177073251},{"NoteNumber":49,"Velocity":35,"Duration":69767,"SoundDuration":69767,"Delta":177073251},{"NoteNumber":59,"Velocity":41,"Duration":75757,"SoundDuration":75757,"Delta":177212786},{"NoteNumber":69,"Velocity":41,"Duration":75757,"SoundDuration":75757,"Delta":177212786},{"NoteNumber":71,"Velocity":49,"Duration":75757,"SoundDuration":75757,"Delta":177212786},{"NoteNumber":35,"Velocity":29,"Duration":75757,"SoundDuration":75757,"Delta":177212786},{"NoteNumber":47,"Velocity":35,"Duration":75757,"SoundDuration":75757,"Delta":177212786},{"NoteNumber":59,"Velocity":43,"Duration":145631,"SoundDuration":145631,"Delta":177364301},{"NoteNumber":69,"Velocity":43,"Duration":145631,"SoundDuration":145631,"Delta":177364301},{"NoteNumber":71,"Velocity":51,"Duration":145631,"SoundDuration":145631,"Delta":177364301},{"NoteNumber":40,"Velocity":35,"Duration":72815,"SoundDuration":72815,"Delta":177364301},{"NoteNumber":52,"Velocity":42,"Duration":72815,"SoundDuration":72815,"Delta":177364301},{"NoteNumber":39,"Velocity":28,"Duration":72815,"SoundDuration":72815,"Delta":177509932},{"NoteNumber":51,"Velocity":34,"Duration":72815,"SoundDuration":72815,"Delta":177509932},{"NoteNumber":59,"Velocity":40,"Duration":145631,"SoundDuration":145631,"Delta":177655563},{"NoteNumber":69,"Velocity":40,"Duration":145631,"SoundDuration":145631,"Delta":177655563},{"NoteNumber":71,"Velocity":48,"Duration":145631,"SoundDuration":145631,"Delta":177655563},{"NoteNumber":37,"Velocity":29,"Duration":72815,"SoundDuration":72815,"Delta":177655563},{"NoteNumber":49,"Velocity":34,"Duration":72815,"SoundDuration":72815,"Delta":177655563},{"NoteNumber":35,"Velocity":29,"Duration":76530,"SoundDuration":76530,"Delta":177801194},{"NoteNumber":47,"Velocity":34,"Duration":76530,"SoundDuration":76530,"Delta":177801194},{"NoteNumber":59,"Velocity":44,"Duration":432107,"SoundDuration":432107,"Delta":177954255},{"NoteNumber":68,"Velocity":44,"Duration":432107,"SoundDuration":432107,"Delta":177954255},{"NoteNumber":71,"Velocity":52,"Duration":432107,"SoundDuration":432107,"Delta":177954255},{"NoteNumber":40,"Velocity":35,"Duration":72815,"SoundDuration":72815,"Delta":177954255},{"NoteNumber":52,"Velocity":41,"Duration":72815,"SoundDuration":72815,"Delta":177954255},{"NoteNumber":39,"Velocity":29,"Duration":72815,"SoundDuration":72815,"Delta":178099886},{"NoteNumber":51,"Velocity":35,"Duration":72815,"SoundDuration":72815,"Delta":178099886},{"NoteNumber":37,"Velocity":29,"Duration":70422,"SoundDuration":70422,"Delta":178245517},{"NoteNumber":49,"Velocity":35,"Duration":70422,"SoundDuration":70422,"Delta":178245517},{"NoteNumber":64,"Velocity":41,"Duration":138461,"SoundDuration":138461,"Delta":178386362},{"NoteNumber":68,"Velocity":41,"Duration":138461,"SoundDuration":138461,"Delta":178386362},{"NoteNumber":76,"Velocity":50,"Duration":138461,"SoundDuration":138461,"Delta":178386362},{"NoteNumber":35,"Velocity":29,"Duration":76923,"SoundDuration":76923,"Delta":178386362},{"NoteNumber":47,"Velocity":35,"Duration":76923,"SoundDuration":76923,"Delta":178386362},{"NoteNumber":64,"Velocity":44,"Duration":590739,"SoundDuration":590739,"Delta":178540208},{"NoteNumber":68,"Velocity":44,"Duration":590739,"SoundDuration":590739,"Delta":178540208},{"NoteNumber":76,"Velocity":52,"Duration":590739,"SoundDuration":590739,"Delta":178540208},{"NoteNumber":40,"Velocity":36,"Duration":72815,"SoundDuration":72815,"Delta":178540208},{"NoteNumber":52,"Velocity":42,"Duration":72815,"SoundDuration":72815,"Delta":178540208},{"NoteNumber":39,"Velocity":32,"Duration":72815,"SoundDuration":72815,"Delta":178685839},{"NoteNumber":51,"Velocity":39,"Duration":72815,"SoundDuration":72815,"Delta":178685839},{"NoteNumber":37,"Velocity":29,"Duration":72815,"SoundDuration":72815,"Delta":178831470},{"NoteNumber":49,"Velocity":36,"Duration":72815,"SoundDuration":72815,"Delta":178831470},{"NoteNumber":35,"Velocity":29,"Duration":76923,"SoundDuration":76923,"Delta":178977101},{"NoteNumber":47,"Velocity":35,"Duration":76923,"SoundDuration":76923,"Delta":178977101},{"NoteNumber":59,"Velocity":40,"Duration":590739,"SoundDuration":590739,"Delta":179130948},{"NoteNumber":64,"Velocity":40,"Duration":590739,"SoundDuration":590739,"Delta":179130948},{"NoteNumber":68,"Velocity":48,"Duration":590739,"SoundDuration":590739,"Delta":179130948},{"NoteNumber":40,"Velocity":36,"Duration":72815,"SoundDuration":72815,"Delta":179130948},{"NoteNumber":52,"Velocity":42,"Duration":72815,"SoundDuration":72815,"Delta":179130948},{"NoteNumber":39,"Velocity":29,"Duration":72815,"SoundDuration":72815,"Delta":179276579},{"NoteNumber":51,"Velocity":35,"Duration":72815,"SoundDuration":72815,"Delta":179276579},{"NoteNumber":37,"Velocity":29,"Duration":72815,"SoundDuration":72815,"Delta":179422210},{"NoteNumber":49,"Velocity":35,"Duration":72815,"SoundDuration":72815,"Delta":179422210},{"NoteNumber":35,"Velocity":29,"Duration":76923,"SoundDuration":76923,"Delta":179567841},{"NoteNumber":47,"Velocity":35,"Duration":76923,"SoundDuration":76923,"Delta":179567841},{"NoteNumber":57,"Velocity":45,"Duration":291261,"SoundDuration":291261,"Delta":179721687},{"NoteNumber":59,"Velocity":45,"Duration":291261,"SoundDuration":291261,"Delta":179721687},{"NoteNumber":66,"Velocity":53,"Duration":875259,"SoundDuration":875259,"Delta":179721687},{"NoteNumber":40,"Velocity":36,"Duration":72815,"SoundDuration":72815,"Delta":179721687},{"NoteNumber":52,"Velocity":42,"Duration":72815,"SoundDuration":72815,"Delta":179721687},{"NoteNumber":39,"Velocity":29,"Duration":72815,"SoundDuration":72815,"Delta":179867318},{"NoteNumber":51,"Velocity":35,"Duration":72815,"SoundDuration":72815,"Delta":179867318},{"NoteNumber":57,"Velocity":43,"Duration":69444,"SoundDuration":69444,"Delta":180012949},{"NoteNumber":59,"Velocity":51,"Duration":69444,"SoundDuration":69444,"Delta":180012949},{"NoteNumber":37,"Velocity":29,"Duration":69444,"SoundDuration":69444,"Delta":180012949},{"NoteNumber":49,"Velocity":35,"Duration":69444,"SoundDuration":69444,"Delta":180012949},{"NoteNumber":59,"Velocity":51,"Duration":76923,"SoundDuration":76923,"Delta":180151838},{"NoteNumber":57,"Velocity":43,"Duration":76923,"SoundDuration":76923,"Delta":180151838},{"NoteNumber":35,"Velocity":29,"Duration":76923,"SoundDuration":76923,"Delta":180151838},{"NoteNumber":47,"Velocity":35,"Duration":76923,"SoundDuration":76923,"Delta":180151838},{"NoteNumber":57,"Velocity":45,"Duration":145631,"SoundDuration":145631,"Delta":180305684},{"NoteNumber":59,"Velocity":54,"Duration":145631,"SoundDuration":145631,"Delta":180305684},{"NoteNumber":40,"Velocity":36,"Duration":72815,"SoundDuration":72815,"Delta":180305684},{"NoteNumber":52,"Velocity":42,"Duration":72815,"SoundDuration":72815,"Delta":180305684},{"NoteNumber":39,"Velocity":32,"Duration":72815,"SoundDuration":72815,"Delta":180451315},{"NoteNumber":51,"Velocity":39,"Duration":72815,"SoundDuration":72815,"Delta":180451315},{"NoteNumber":57,"Velocity":44,"Duration":298108,"SoundDuration":298108,"Delta":180596946},{"NoteNumber":59,"Velocity":44,"Duration":298108,"SoundDuration":298108,"Delta":180596946},{"NoteNumber":66,"Velocity":52,"Duration":298108,"SoundDuration":298108,"Delta":180596946},{"NoteNumber":37,"Velocity":29,"Duration":72815,"SoundDuration":72815,"Delta":180596946},{"NoteNumber":49,"Velocity":36,"Duration":72815,"SoundDuration":72815,"Delta":180596946},{"NoteNumber":35,"Velocity":29,"Duration":75553,"SoundDuration":75553,"Delta":180742577},{"NoteNumber":47,"Velocity":36,"Duration":75553,"SoundDuration":75553,"Delta":180742577},{"NoteNumber":57,"Velocity":44,"Duration":71428,"SoundDuration":71428,"Delta":180895054},{"NoteNumber":59,"Velocity":44,"Duration":71428,"SoundDuration":71428,"Delta":180895054},{"NoteNumber":68,"Velocity":52,"Duration":71428,"SoundDuration":71428,"Delta":180895054},{"NoteNumber":40,"Velocity":36,"Duration":71428,"SoundDuration":71428,"Delta":180895054},{"NoteNumber":52,"Velocity":43,"Duration":71428,"SoundDuration":71428,"Delta":180895054},{"NoteNumber":57,"Velocity":43,"Duration":72231,"SoundDuration":72231,"Delta":181038139},{"NoteNumber":59,"Velocity":43,"Duration":72231,"SoundDuration":72231,"Delta":181038139},{"NoteNumber":66,"Velocity":51,"Duration":72231,"SoundDuration":72231,"Delta":181038139},{"NoteNumber":39,"Velocity":29,"Duration":72231,"SoundDuration":72231,"Delta":181038139},{"NoteNumber":51,"Velocity":36,"Duration":72231,"SoundDuration":72231,"Delta":181038139},{"NoteNumber":57,"Velocity":42,"Duration":73052,"SoundDuration":73052,"Delta":181182952},{"NoteNumber":59,"Velocity":42,"Duration":73052,"SoundDuration":73052,"Delta":181182952},{"NoteNumber":64,"Velocity":50,"Duration":73052,"SoundDuration":73052,"Delta":181182952},{"NoteNumber":37,"Velocity":29,"Duration":73052,"SoundDuration":73052,"Delta":181182952},{"NoteNumber":49,"Velocity":36,"Duration":73052,"SoundDuration":73052,"Delta":181182952},{"NoteNumber":63,"Velocity":40,"Duration":76530,"SoundDuration":76530,"Delta":181329654},{"NoteNumber":57,"Velocity":40,"Duration":76530,"SoundDuration":76530,"Delta":181329654},{"NoteNumber":59,"Velocity":40,"Duration":76530,"SoundDuration":76530,"Delta":181329654},{"NoteNumber":66,"Velocity":48,"Duration":76530,"SoundDuration":76530,"Delta":181329654},{"NoteNumber":35,"Velocity":29,"Duration":76530,"SoundDuration":76530,"Delta":181329654},{"NoteNumber":47,"Velocity":36,"Duration":76530,"SoundDuration":76530,"Delta":181329654},{"NoteNumber":56,"Velocity":52,"Duration":434782,"SoundDuration":434782,"Delta":181482716},{"NoteNumber":64,"Velocity":44,"Duration":1027090,"SoundDuration":1027090,"Delta":181482716},{"NoteNumber":68,"Velocity":52,"Duration":1027090,"SoundDuration":1027090,"Delta":181482716},{"NoteNumber":40,"Velocity":36,"Duration":72463,"SoundDuration":72463,"Delta":181482716},{"NoteNumber":52,"Velocity":43,"Duration":72463,"SoundDuration":72463,"Delta":181482716},{"NoteNumber":39,"Velocity":29,"Duration":72463,"SoundDuration":72463,"Delta":181627643},{"NoteNumber":51,"Velocity":36,"Duration":72463,"SoundDuration":72463,"Delta":181627643},{"NoteNumber":37,"Velocity":30,"Duration":72463,"SoundDuration":72463,"Delta":181772571},{"NoteNumber":49,"Velocity":36,"Duration":72463,"SoundDuration":72463,"Delta":181772571},{"NoteNumber":61,"Velocity":50,"Duration":153846,"SoundDuration":153846,"Delta":181917498},{"NoteNumber":35,"Velocity":30,"Duration":76923,"SoundDuration":76923,"Delta":181917498},{"NoteNumber":47,"Velocity":35,"Duration":76923,"SoundDuration":76923,"Delta":181917498},{"NoteNumber":59,"Velocity":52,"Duration":1179639,"SoundDuration":1179639,"Delta":182071344},{"NoteNumber":40,"Velocity":37,"Duration":72115,"SoundDuration":72115,"Delta":182071344},{"NoteNumber":52,"Velocity":43,"Duration":72115,"SoundDuration":72115,"Delta":182071344},{"NoteNumber":39,"Velocity":33,"Duration":72115,"SoundDuration":72115,"Delta":182215575},{"NoteNumber":51,"Velocity":40,"Duration":72115,"SoundDuration":72115,"Delta":182215575},{"NoteNumber":37,"Velocity":30,"Duration":74999,"SoundDuration":74999,"Delta":182359806},{"NoteNumber":49,"Velocity":37,"Duration":74999,"SoundDuration":74999,"Delta":182359806},{"NoteNumber":68,"Velocity":42,"Duration":138461,"SoundDuration":138461,"Delta":182509806},{"NoteNumber":71,"Velocity":51,"Duration":138461,"SoundDuration":138461,"Delta":182509806},{"NoteNumber":35,"Velocity":30,"Duration":76923,"SoundDuration":76923,"Delta":182509806},{"NoteNumber":47,"Velocity":37,"Duration":76923,"SoundDuration":76923,"Delta":182509806},{"NoteNumber":68,"Velocity":42,"Duration":587331,"SoundDuration":587331,"Delta":182663652},{"NoteNumber":71,"Velocity":51,"Duration":587331,"SoundDuration":587331,"Delta":182663652},{"NoteNumber":40,"Velocity":37,"Duration":72115,"SoundDuration":72115,"Delta":182663652},{"NoteNumber":52,"Velocity":43,"Duration":72115,"SoundDuration":72115,"Delta":182663652},{"NoteNumber":39,"Velocity":30,"Duration":72115,"SoundDuration":72115,"Delta":182807883},{"NoteNumber":51,"Velocity":36,"Duration":72115,"SoundDuration":72115,"Delta":182807883},{"NoteNumber":37,"Velocity":30,"Duration":72115,"SoundDuration":72115,"Delta":182952114},{"NoteNumber":49,"Velocity":37,"Duration":72115,"SoundDuration":72115,"Delta":182952114},{"NoteNumber":35,"Velocity":30,"Duration":77319,"SoundDuration":77319,"Delta":183096344},{"NoteNumber":47,"Velocity":37,"Duration":77319,"SoundDuration":77319,"Delta":183096344},{"NoteNumber":56,"Velocity":45,"Duration":870765,"SoundDuration":870765,"Delta":183250984},{"NoteNumber":59,"Velocity":53,"Duration":870765,"SoundDuration":870765,"Delta":183250984},{"NoteNumber":40,"Velocity":37,"Duration":71770,"SoundDuration":71770,"Delta":183250984},{"NoteNumber":52,"Velocity":44,"Duration":71770,"SoundDuration":71770,"Delta":183250984},{"NoteNumber":39,"Velocity":31,"Duration":71770,"SoundDuration":71770,"Delta":183394524},{"NoteNumber":51,"Velocity":37,"Duration":71770,"SoundDuration":71770,"Delta":183394524},{"NoteNumber":37,"Velocity":31,"Duration":71770,"SoundDuration":71770,"Delta":183538065},{"NoteNumber":49,"Velocity":37,"Duration":71770,"SoundDuration":71770,"Delta":183538065},{"NoteNumber":35,"Velocity":31,"Duration":76530,"SoundDuration":76530,"Delta":183681606},{"NoteNumber":47,"Velocity":38,"Duration":76530,"SoundDuration":76530,"Delta":183681606},{"NoteNumber":40,"Velocity":38,"Duration":71770,"SoundDuration":71770,"Delta":183834667},{"NoteNumber":52,"Velocity":45,"Duration":71770,"SoundDuration":71770,"Delta":183834667},{"NoteNumber":39,"Velocity":36,"Duration":71770,"SoundDuration":71770,"Delta":183978208},{"NoteNumber":51,"Velocity":42,"Duration":71770,"SoundDuration":71770,"Delta":183978208},{"NoteNumber":55,"Velocity":45,"Duration":74257,"SoundDuration":74257,"Delta":184121749},{"NoteNumber":59,"Velocity":54,"Duration":74257,"SoundDuration":74257,"Delta":184121749},{"NoteNumber":37,"Velocity":31,"Duration":74257,"SoundDuration":74257,"Delta":184121749},{"NoteNumber":49,"Velocity":38,"Duration":74257,"SoundDuration":74257,"Delta":184121749},{"NoteNumber":56,"Velocity":46,"Duration":76923,"SoundDuration":76923,"Delta":184270263},{"NoteNumber":59,"Velocity":54,"Duration":76923,"SoundDuration":76923,"Delta":184270263},{"NoteNumber":35,"Velocity":31,"Duration":76923,"SoundDuration":76923,"Delta":184270263},{"NoteNumber":47,"Velocity":39,"Duration":76923,"SoundDuration":76923,"Delta":184270263},{"NoteNumber":57,"Velocity":48,"Duration":143540,"SoundDuration":143540,"Delta":184424110},{"NoteNumber":59,"Velocity":57,"Duration":143540,"SoundDuration":143540,"Delta":184424110},{"NoteNumber":40,"Velocity":40,"Duration":71770,"SoundDuration":71770,"Delta":184424110},{"NoteNumber":52,"Velocity":48,"Duration":71770,"SoundDuration":71770,"Delta":184424110},{"NoteNumber":39,"Velocity":33,"Duration":71770,"SoundDuration":71770,"Delta":184567650},{"NoteNumber":51,"Velocity":40,"Duration":71770,"SoundDuration":71770,"Delta":184567650},{"NoteNumber":57,"Velocity":47,"Duration":71770,"SoundDuration":71770,"Delta":184711191},{"NoteNumber":61,"Velocity":55,"Duration":71770,"SoundDuration":71770,"Delta":184711191},{"NoteNumber":37,"Velocity":33,"Duration":71770,"SoundDuration":71770,"Delta":184711191},{"NoteNumber":49,"Velocity":41,"Duration":71770,"SoundDuration":71770,"Delta":184711191},{"NoteNumber":57,"Velocity":48,"Duration":76530,"SoundDuration":76530,"Delta":184854732},{"NoteNumber":63,"Velocity":57,"Duration":76530,"SoundDuration":76530,"Delta":184854732},{"NoteNumber":35,"Velocity":34,"Duration":76530,"SoundDuration":76530,"Delta":184854732},{"NoteNumber":47,"Velocity":42,"Duration":76530,"SoundDuration":76530,"Delta":184854732},{"NoteNumber":56,"Velocity":51,"Duration":429971,"SoundDuration":429971,"Delta":185007793},{"NoteNumber":64,"Velocity":61,"Duration":429971,"SoundDuration":429971,"Delta":185007793},{"NoteNumber":40,"Velocity":43,"Duration":72115,"SoundDuration":72115,"Delta":185007793},{"NoteNumber":52,"Velocity":51,"Duration":72115,"SoundDuration":72115,"Delta":185007793},{"NoteNumber":39,"Velocity":34,"Duration":72115,"SoundDuration":72115,"Delta":185152024},{"NoteNumber":51,"Velocity":43,"Duration":72115,"SoundDuration":72115,"Delta":185152024},{"NoteNumber":37,"Velocity":35,"Duration":70754,"SoundDuration":70754,"Delta":185296255},{"NoteNumber":49,"Velocity":43,"Duration":70754,"SoundDuration":70754,"Delta":185296255},{"NoteNumber":56,"Velocity":49,"Duration":137755,"SoundDuration":137755,"Delta":185437764},{"NoteNumber":59,"Velocity":49,"Duration":137755,"SoundDuration":137755,"Delta":185437764},{"NoteNumber":35,"Velocity":37,"Duration":76530,"SoundDuration":76530,"Delta":185437764},{"NoteNumber":47,"Velocity":43,"Duration":76530,"SoundDuration":76530,"Delta":185437764},{"NoteNumber":56,"Velocity":51,"Duration":585753,"SoundDuration":585753,"Delta":185590825},{"NoteNumber":59,"Velocity":51,"Duration":585753,"SoundDuration":585753,"Delta":185590825},{"NoteNumber":68,"Velocity":61,"Duration":585753,"SoundDuration":585753,"Delta":185590825},{"NoteNumber":40,"Velocity":44,"Duration":72115,"SoundDuration":72115,"Delta":185590825},{"NoteNumber":52,"Velocity":53,"Duration":72115,"SoundDuration":72115,"Delta":185590825},{"NoteNumber":39,"Velocity":41,"Duration":72115,"SoundDuration":72115,"Delta":185735056},{"NoteNumber":51,"Velocity":49,"Duration":72115,"SoundDuration":72115,"Delta":185735056},{"NoteNumber":37,"Velocity":38,"Duration":72115,"SoundDuration":72115,"Delta":185879287},{"NoteNumber":49,"Velocity":46,"Duration":72115,"SoundDuration":72115,"Delta":185879287},{"NoteNumber":35,"Velocity":38,"Duration":76530,"SoundDuration":76530,"Delta":186023518},{"NoteNumber":47,"Velocity":46,"Duration":76530,"SoundDuration":76530,"Delta":186023518},{"NoteNumber":57,"Velocity":53,"Duration":583683,"SoundDuration":583683,"Delta":186176579},{"NoteNumber":59,"Velocity":53,"Duration":583683,"SoundDuration":583683,"Delta":186176579},{"NoteNumber":66,"Velocity":63,"Duration":583683,"SoundDuration":583683,"Delta":186176579},{"NoteNumber":40,"Velocity":47,"Duration":71770,"SoundDuration":71770,"Delta":186176579},{"NoteNumber":52,"Velocity":57,"Duration":71770,"SoundDuration":71770,"Delta":186176579},{"NoteNumber":39,"Velocity":38,"Duration":71770,"SoundDuration":71770,"Delta":186320120},{"NoteNumber":51,"Velocity":46,"Duration":71770,"SoundDuration":71770,"Delta":186320120},{"NoteNumber":37,"Velocity":40,"Duration":71770,"SoundDuration":71770,"Delta":186463660},{"NoteNumber":49,"Velocity":47,"Duration":71770,"SoundDuration":71770,"Delta":186463660},{"NoteNumber":35,"Velocity":40,"Duration":76530,"SoundDuration":76530,"Delta":186607201},{"NoteNumber":47,"Velocity":48,"Duration":76530,"SoundDuration":76530,"Delta":186607201},{"NoteNumber":56,"Velocity":57,"Duration":434864,"SoundDuration":434864,"Delta":186760262},{"NoteNumber":59,"Velocity":67,"Duration":434864,"SoundDuration":434864,"Delta":186760262},{"NoteNumber":40,"Velocity":51,"Duration":71770,"SoundDuration":71770,"Delta":186760262},{"NoteNumber":52,"Velocity":59,"Duration":71770,"SoundDuration":71770,"Delta":186760262},{"NoteNumber":39,"Velocity":41,"Duration":71770,"SoundDuration":71770,"Delta":186903803},{"NoteNumber":51,"Velocity":50,"Duration":71770,"SoundDuration":71770,"Delta":186903803},{"NoteNumber":37,"Velocity":41,"Duration":73891,"SoundDuration":73891,"Delta":187047344},{"NoteNumber":49,"Velocity":50,"Duration":73891,"SoundDuration":73891,"Delta":187047344},{"NoteNumber":56,"Velocity":60,"Duration":137755,"SoundDuration":137755,"Delta":187195127},{"NoteNumber":64,"Velocity":71,"Duration":137755,"SoundDuration":137755,"Delta":187195127},{"NoteNumber":35,"Velocity":42,"Duration":76530,"SoundDuration":76530,"Delta":187195127},{"NoteNumber":47,"Velocity":51,"Duration":76530,"SoundDuration":76530,"Delta":187195127},{"NoteNumber":56,"Velocity":61,"Duration":287081,"SoundDuration":287081,"Delta":187348188},{"NoteNumber":59,"Velocity":61,"Duration":287081,"SoundDuration":287081,"Delta":187348188},{"NoteNumber":68,"Velocity":72,"Duration":287081,"SoundDuration":287081,"Delta":187348188},{"NoteNumber":40,"Velocity":52,"Duration":71770,"SoundDuration":71770,"Delta":187348188},{"NoteNumber":52,"Velocity":61,"Duration":71770,"SoundDuration":71770,"Delta":187348188},{"NoteNumber":39,"Velocity":48,"Duration":71770,"SoundDuration":71770,"Delta":187491729},{"NoteNumber":51,"Velocity":58,"Duration":71770,"SoundDuration":71770,"Delta":187491729},{"NoteNumber":37,"Velocity":44,"Duration":71770,"SoundDuration":71770,"Delta":187635270},{"NoteNumber":49,"Velocity":55,"Duration":71770,"SoundDuration":71770,"Delta":187635270},{"NoteNumber":57,"Velocity":59,"Duration":153061,"SoundDuration":153061,"Delta":187778811},{"NoteNumber":63,"Velocity":71,"Duration":153061,"SoundDuration":153061,"Delta":187778811},{"NoteNumber":35,"Velocity":45,"Duration":76530,"SoundDuration":76530,"Delta":187778811},{"NoteNumber":47,"Velocity":56,"Duration":76530,"SoundDuration":76530,"Delta":187778811},{"NoteNumber":56,"Velocity":61,"Duration":289854,"SoundDuration":289854,"Delta":187931872},{"NoteNumber":64,"Velocity":73,"Duration":289854,"SoundDuration":289854,"Delta":187931872},{"NoteNumber":40,"Velocity":56,"Duration":72463,"SoundDuration":72463,"Delta":187931872},{"NoteNumber":52,"Velocity":66,"Duration":72463,"SoundDuration":72463,"Delta":187931872},{"NoteNumber":39,"Velocity":45,"Duration":72463,"SoundDuration":72463,"Delta":188076799},{"NoteNumber":51,"Velocity":53,"Duration":72463,"SoundDuration":72463,"Delta":188076799},{"NoteNumber":56,"Velocity":63,"Duration":296442,"SoundDuration":296442,"Delta":188221727},{"NoteNumber":64,"Velocity":63,"Duration":296442,"SoundDuration":296442,"Delta":188221727},{"NoteNumber":68,"Velocity":76,"Duration":296442,"SoundDuration":296442,"Delta":188221727},{"NoteNumber":37,"Velocity":46,"Duration":72463,"SoundDuration":72463,"Delta":188221727},{"NoteNumber":49,"Velocity":54,"Duration":72463,"SoundDuration":72463,"Delta":188221727},{"NoteNumber":35,"Velocity":47,"Duration":75757,"SoundDuration":75757,"Delta":188366654},{"NoteNumber":47,"Velocity":57,"Duration":75757,"SoundDuration":75757,"Delta":188366654},{"NoteNumber":59,"Velocity":66,"Duration":583683,"SoundDuration":583683,"Delta":188518170},{"NoteNumber":68,"Velocity":66,"Duration":583683,"SoundDuration":583683,"Delta":188518170},{"NoteNumber":71,"Velocity":78,"Duration":583683,"SoundDuration":583683,"Delta":188518170},{"NoteNumber":40,"Velocity":58,"Duration":71770,"SoundDuration":71770,"Delta":188518170},{"NoteNumber":52,"Velocity":69,"Duration":71770,"SoundDuration":71770,"Delta":188518170},{"NoteNumber":39,"Velocity":47,"Duration":71770,"SoundDuration":71770,"Delta":188661710},{"NoteNumber":51,"Velocity":57,"Duration":71770,"SoundDuration":71770,"Delta":188661710},{"NoteNumber":37,"Velocity":47,"Duration":71770,"SoundDuration":71770,"Delta":188805251},{"NoteNumber":49,"Velocity":57,"Duration":71770,"SoundDuration":71770,"Delta":188805251},{"NoteNumber":35,"Velocity":48,"Duration":76530,"SoundDuration":76530,"Delta":188948792},{"NoteNumber":47,"Velocity":58,"Duration":76530,"SoundDuration":76530,"Delta":188948792},{"NoteNumber":61,"Velocity":61,"Duration":143540,"SoundDuration":143540,"Delta":189101853},{"NoteNumber":68,"Velocity":61,"Duration":143540,"SoundDuration":143540,"Delta":189101853},{"NoteNumber":73,"Velocity":72,"Duration":143540,"SoundDuration":143540,"Delta":189101853},{"NoteNumber":40,"Velocity":62,"Duration":71770,"SoundDuration":71770,"Delta":189101853},{"NoteNumber":52,"Velocity":73,"Duration":71770,"SoundDuration":71770,"Delta":189101853},{"NoteNumber":63,"Velocity":64,"Duration":143540,"SoundDuration":143540,"Delta":189245394},{"NoteNumber":68,"Velocity":64,"Duration":143540,"SoundDuration":143540,"Delta":189245394},{"NoteNumber":75,"Velocity":75,"Duration":143540,"SoundDuration":143540,"Delta":189245394},{"NoteNumber":39,"Velocity":56,"Duration":71770,"SoundDuration":71770,"Delta":189245394},{"NoteNumber":51,"Velocity":67,"Duration":71770,"SoundDuration":71770,"Delta":189245394},{"NoteNumber":64,"Velocity":64,"Duration":141509,"SoundDuration":141509,"Delta":189388935},{"NoteNumber":68,"Velocity":64,"Duration":141509,"SoundDuration":141509,"Delta":189388935},{"NoteNumber":76,"Velocity":77,"Duration":141509,"SoundDuration":141509,"Delta":189388935},{"NoteNumber":37,"Velocity":52,"Duration":70754,"SoundDuration":70754,"Delta":189388935},{"NoteNumber":49,"Velocity":63,"Duration":70754,"SoundDuration":70754,"Delta":189388935},{"NoteNumber":66,"Velocity":68,"Duration":153061,"SoundDuration":153061,"Delta":189530444},{"NoteNumber":71,"Velocity":68,"Duration":153061,"SoundDuration":153061,"Delta":189530444},{"NoteNumber":78,"Velocity":82,"Duration":153061,"SoundDuration":153061,"Delta":189530444},{"NoteNumber":35,"Velocity":52,"Duration":76530,"SoundDuration":76530,"Delta":189530444},{"NoteNumber":47,"Velocity":63,"Duration":76530,"SoundDuration":76530,"Delta":189530444},{"NoteNumber":71,"Velocity":85,"Duration":436976,"SoundDuration":436976,"Delta":189683505},{"NoteNumber":68,"Velocity":71,"Duration":589260,"SoundDuration":589260,"Delta":189683505},{"NoteNumber":76,"Velocity":71,"Duration":589260,"SoundDuration":589260,"Delta":189683505},{"NoteNumber":80,"Velocity":85,"Duration":589260,"SoundDuration":589260,"Delta":189683505},{"NoteNumber":40,"Velocity":64,"Duration":72115,"SoundDuration":72115,"Delta":189683505},{"NoteNumber":52,"Velocity":77,"Duration":72115,"SoundDuration":72115,"Delta":189683505},{"NoteNumber":39,"Velocity":53,"Duration":72115,"SoundDuration":72115,"Delta":189827736},{"NoteNumber":51,"Velocity":63,"Duration":72115,"SoundDuration":72115,"Delta":189827736},{"NoteNumber":40,"Velocity":54,"Duration":74257,"SoundDuration":74257,"Delta":189971967},{"NoteNumber":52,"Velocity":64,"Duration":74257,"SoundDuration":74257,"Delta":189971967},{"NoteNumber":70,"Velocity":81,"Duration":1023049,"SoundDuration":1023049,"Delta":190120482},{"NoteNumber":38,"Velocity":55,"Duration":76142,"SoundDuration":76142,"Delta":190120482},{"NoteNumber":50,"Velocity":65,"Duration":76142,"SoundDuration":76142,"Delta":190120482},{"NoteNumber":67,"Velocity":74,"Duration":870765,"SoundDuration":870765,"Delta":190272766},{"NoteNumber":75,"Velocity":74,"Duration":870765,"SoundDuration":870765,"Delta":190272766},{"NoteNumber":79,"Velocity":88,"Duration":870765,"SoundDuration":870765,"Delta":190272766},{"NoteNumber":39,"Velocity":66,"Duration":71770,"SoundDuration":71770,"Delta":190272766},{"NoteNumber":51,"Velocity":77,"Duration":71770,"SoundDuration":71770,"Delta":190272766},{"NoteNumber":38,"Velocity":54,"Duration":71770,"SoundDuration":71770,"Delta":190416307},{"NoteNumber":50,"Velocity":65,"Duration":71770,"SoundDuration":71770,"Delta":190416307},{"NoteNumber":36,"Velocity":54,"Duration":71770,"SoundDuration":71770,"Delta":190559847},{"NoteNumber":48,"Velocity":65,"Duration":71770,"SoundDuration":71770,"Delta":190559847},{"NoteNumber":34,"Velocity":54,"Duration":76530,"SoundDuration":76530,"Delta":190703388},{"NoteNumber":46,"Velocity":65,"Duration":76530,"SoundDuration":76530,"Delta":190703388},{"NoteNumber":39,"Velocity":67,"Duration":71770,"SoundDuration":71770,"Delta":190856449},{"NoteNumber":51,"Velocity":79,"Duration":71770,"SoundDuration":71770,"Delta":190856449},{"NoteNumber":38,"Velocity":62,"Duration":71770,"SoundDuration":71770,"Delta":190999990},{"NoteNumber":50,"Velocity":75,"Duration":71770,"SoundDuration":71770,"Delta":190999990},{"NoteNumber":58,"Velocity":72,"Duration":300844,"SoundDuration":300844,"Delta":191143531},{"NoteNumber":67,"Velocity":72,"Duration":300844,"SoundDuration":300844,"Delta":191143531},{"NoteNumber":70,"Velocity":86,"Duration":589306,"SoundDuration":589306,"Delta":191143531},{"NoteNumber":36,"Velocity":58,"Duration":73891,"SoundDuration":73891,"Delta":191143531},{"NoteNumber":48,"Velocity":69,"Duration":73891,"SoundDuration":73891,"Delta":191143531},{"NoteNumber":34,"Velocity":58,"Duration":76530,"SoundDuration":76530,"Delta":191291314},{"NoteNumber":46,"Velocity":69,"Duration":76530,"SoundDuration":76530,"Delta":191291314},{"NoteNumber":63,"Velocity":76,"Duration":288461,"SoundDuration":288461,"Delta":191444375},{"NoteNumber":67,"Velocity":76,"Duration":288461,"SoundDuration":288461,"Delta":191444375},{"NoteNumber":75,"Velocity":90,"Duration":584976,"SoundDuration":584976,"Delta":191444375},{"NoteNumber":39,"Velocity":69,"Duration":72115,"SoundDuration":72115,"Delta":191444375},{"NoteNumber":51,"Velocity":84,"Duration":72115,"SoundDuration":72115,"Delta":191444375},{"NoteNumber":38,"Velocity":58,"Duration":72115,"SoundDuration":72115,"Delta":191588606},{"NoteNumber":50,"Velocity":68,"Duration":72115,"SoundDuration":72115,"Delta":191588606},{"NoteNumber":67,"Velocity":81,"Duration":296514,"SoundDuration":296514,"Delta":191732837},{"NoteNumber":70,"Velocity":81,"Duration":296514,"SoundDuration":296514,"Delta":191732837},{"NoteNumber":79,"Velocity":96,"Duration":296514,"SoundDuration":296514,"Delta":191732837},{"NoteNumber":36,"Velocity":59,"Duration":72115,"SoundDuration":72115,"Delta":191732837},{"NoteNumber":48,"Velocity":70,"Duration":72115,"SoundDuration":72115,"Delta":191732837},{"NoteNumber":34,"Velocity":61,"Duration":76142,"SoundDuration":76142,"Delta":191877068},{"NoteNumber":46,"Velocity":71,"Duration":76142,"SoundDuration":76142,"Delta":191877068},{"NoteNumber":70,"Velocity":85,"Duration":428591,"SoundDuration":428591,"Delta":192029352},{"NoteNumber":79,"Velocity":85,"Duration":428591,"SoundDuration":428591,"Delta":192029352},{"NoteNumber":82,"Velocity":101,"Duration":428591,"SoundDuration":428591,"Delta":192029352},{"NoteNumber":39,"Velocity":71,"Duration":71770,"SoundDuration":71770,"Delta":192029352},{"NoteNumber":51,"Velocity":82,"Duration":71770,"SoundDuration":71770,"Delta":192029352},{"NoteNumber":38,"Velocity":57,"Duration":71770,"SoundDuration":71770,"Delta":192172893},{"NoteNumber":50,"Velocity":68,"Duration":71770,"SoundDuration":71770,"Delta":192172893},{"NoteNumber":36,"Velocity":58,"Duration":70754,"SoundDuration":70754,"Delta":192316433},{"NoteNumber":48,"Velocity":69,"Duration":70754,"SoundDuration":70754,"Delta":192316433},{"NoteNumber":75,"Velocity":83,"Duration":153061,"SoundDuration":153061,"Delta":192457943},{"NoteNumber":79,"Velocity":83,"Duration":153061,"SoundDuration":153061,"Delta":192457943},{"NoteNumber":87,"Velocity":99,"Duration":1034401,"SoundDuration":1034401,"Delta":192457943},{"NoteNumber":34,"Velocity":58,"Duration":76530,"SoundDuration":76530,"Delta":192457943},{"NoteNumber":46,"Velocity":69,"Duration":76530,"SoundDuration":76530,"Delta":192457943},{"NoteNumber":75,"Velocity":84,"Duration":435596,"SoundDuration":435596,"Delta":192611004},{"NoteNumber":79,"Velocity":100,"Duration":435596,"SoundDuration":435596,"Delta":192611004},{"NoteNumber":39,"Velocity":72,"Duration":71770,"SoundDuration":71770,"Delta":192611004},{"NoteNumber":51,"Velocity":85,"Duration":71770,"SoundDuration":71770,"Delta":192611004},{"NoteNumber":38,"Velocity":64,"Duration":71770,"SoundDuration":71770,"Delta":192754545},{"NoteNumber":50,"Velocity":78,"Duration":71770,"SoundDuration":71770,"Delta":192754545},{"NoteNumber":36,"Velocity":60,"Duration":74257,"SoundDuration":74257,"Delta":192898086},{"NoteNumber":48,"Velocity":73,"Duration":74257,"SoundDuration":74257,"Delta":192898086},{"NoteNumber":75,"Velocity":81,"Duration":153061,"SoundDuration":153061,"Delta":193046600},{"NoteNumber":67,"Velocity":81,"Duration":153061,"SoundDuration":153061,"Delta":193046600},{"NoteNumber":79,"Velocity":96,"Duration":445744,"SoundDuration":445744,"Delta":193046600},{"NoteNumber":34,"Velocity":60,"Duration":76530,"SoundDuration":76530,"Delta":193046600},{"NoteNumber":46,"Velocity":73,"Duration":76530,"SoundDuration":76530,"Delta":193046600},{"NoteNumber":67,"Velocity":81,"Duration":292683,"SoundDuration":292683,"Delta":193199662},{"NoteNumber":75,"Velocity":81,"Duration":292683,"SoundDuration":292683,"Delta":193199662},{"NoteNumber":39,"Velocity":73,"Duration":73170,"SoundDuration":73170,"Delta":193199662},{"NoteNumber":51,"Velocity":87,"Duration":73170,"SoundDuration":73170,"Delta":193199662},{"NoteNumber":38,"Velocity":60,"Duration":73170,"SoundDuration":73170,"Delta":193346003},{"NoteNumber":50,"Velocity":72,"Duration":73170,"SoundDuration":73170,"Delta":193346003},{"NoteNumber":72,"Velocity":78,"Duration":146341,"SoundDuration":146341,"Delta":193492345},{"NoteNumber":84,"Velocity":92,"Duration":146341,"SoundDuration":146341,"Delta":193492345},{"NoteNumber":79,"Velocity":78,"Duration":146341,"SoundDuration":146341,"Delta":193492345},{"NoteNumber":36,"Velocity":60,"Duration":73170,"SoundDuration":73170,"Delta":193492345},{"NoteNumber":48,"Velocity":72,"Duration":73170,"SoundDuration":73170,"Delta":193492345},{"NoteNumber":34,"Velocity":62,"Duration":76142,"SoundDuration":76142,"Delta":193638686},{"NoteNumber":46,"Velocity":74,"Duration":76142,"SoundDuration":76142,"Delta":193638686},{"NoteNumber":70,"Velocity":85,"Duration":583683,"SoundDuration":583683,"Delta":193790970},{"NoteNumber":79,"Velocity":85,"Duration":583683,"SoundDuration":583683,"Delta":193790970},{"NoteNumber":82,"Velocity":102,"Duration":583683,"SoundDuration":583683,"Delta":193790970},{"NoteNumber":39,"Velocity":73,"Duration":71770,"SoundDuration":71770,"Delta":193790970},{"NoteNumber":51,"Velocity":84,"Duration":71770,"SoundDuration":71770,"Delta":193790970},{"NoteNumber":38,"Velocity":59,"Duration":71770,"SoundDuration":71770,"Delta":193934511},{"NoteNumber":50,"Velocity":70,"Duration":71770,"SoundDuration":71770,"Delta":193934511},{"NoteNumber":36,"Velocity":59,"Duration":71770,"SoundDuration":71770,"Delta":194078052},{"NoteNumber":48,"Velocity":70,"Duration":71770,"SoundDuration":71770,"Delta":194078052},{"NoteNumber":34,"Velocity":59,"Duration":76530,"SoundDuration":76530,"Delta":194221593},{"NoteNumber":46,"Velocity":71,"Duration":76530,"SoundDuration":76530,"Delta":194221593},{"NoteNumber":39,"Velocity":74,"Duration":72815,"SoundDuration":72815,"Delta":194374654},{"NoteNumber":51,"Velocity":87,"Duration":72815,"SoundDuration":72815,"Delta":194374654},{"NoteNumber":38,"Velocity":66,"Duration":72815,"SoundDuration":72815,"Delta":194520285},{"NoteNumber":50,"Velocity":80,"Duration":72815,"SoundDuration":72815,"Delta":194520285},{"NoteNumber":58,"Velocity":83,"Duration":72815,"SoundDuration":72815,"Delta":194665916},{"NoteNumber":70,"Velocity":98,"Duration":72815,"SoundDuration":72815,"Delta":194665916},{"NoteNumber":36,"Velocity":62,"Duration":72815,"SoundDuration":72815,"Delta":194665916},{"NoteNumber":48,"Velocity":74,"Duration":72815,"SoundDuration":72815,"Delta":194665916},{"NoteNumber":58,"Velocity":83,"Duration":76530,"SoundDuration":76530,"Delta":194811547},{"NoteNumber":70,"Velocity":98,"Duration":76530,"SoundDuration":76530,"Delta":194811547},{"NoteNumber":34,"Velocity":62,"Duration":76530,"SoundDuration":76530,"Delta":194811547},{"NoteNumber":46,"Velocity":74,"Duration":76530,"SoundDuration":76530,"Delta":194811547},{"NoteNumber":58,"Velocity":89,"Duration":145631,"SoundDuration":145631,"Delta":194964608},{"NoteNumber":70,"Velocity":106,"Duration":145631,"SoundDuration":145631,"Delta":194964608},{"NoteNumber":68,"Velocity":89,"Duration":145631,"SoundDuration":145631,"Delta":194964608},{"NoteNumber":39,"Velocity":75,"Duration":72815,"SoundDuration":72815,"Delta":194964608},{"NoteNumber":51,"Velocity":89,"Duration":72815,"SoundDuration":72815,"Delta":194964608},{"NoteNumber":38,"Velocity":62,"Duration":72815,"SoundDuration":72815,"Delta":195110239},{"NoteNumber":50,"Velocity":74,"Duration":72815,"SoundDuration":72815,"Delta":195110239},{"NoteNumber":65,"Velocity":86,"Duration":145631,"SoundDuration":145631,"Delta":195255870},{"NoteNumber":68,"Velocity":86,"Duration":145631,"SoundDuration":145631,"Delta":195255870},{"NoteNumber":70,"Velocity":86,"Duration":145631,"SoundDuration":145631,"Delta":195255870},{"NoteNumber":77,"Velocity":101,"Duration":145631,"SoundDuration":145631,"Delta":195255870},{"NoteNumber":36,"Velocity":62,"Duration":72815,"SoundDuration":72815,"Delta":195255870},{"NoteNumber":48,"Velocity":74,"Duration":72815,"SoundDuration":72815,"Delta":195255870},{"NoteNumber":34,"Velocity":63,"Duration":76142,"SoundDuration":76142,"Delta":195401501},{"NoteNumber":46,"Velocity":75,"Duration":76142,"SoundDuration":76142,"Delta":195401501},{"NoteNumber":63,"Velocity":94,"Duration":186381,"SoundDuration":186381,"Delta":195553785},{"NoteNumber":67,"Velocity":94,"Duration":186381,"SoundDuration":186381,"Delta":195553785},{"NoteNumber":75,"Velocity":111,"Duration":186381,"SoundDuration":186381,"Delta":195553785},{"NoteNumber":39,"Velocity":76,"Duration":93190,"SoundDuration":93190,"Delta":195553785},{"NoteNumber":51,"Velocity":90,"Duration":93190,"SoundDuration":93190,"Delta":195553785},{"NoteNumber":51,"Velocity":70,"Duration":343674,"SoundDuration":343674,"Delta":195783280},{"NoteNumber":57,"Velocity":72,"Duration":300561,"SoundDuration":300561,"Delta":195826394},{"NoteNumber":35,"Velocity":58,"Duration":343428,"SoundDuration":343428,"Delta":195826394},{"NoteNumber":59,"Velocity":74,"Duration":257448,"SoundDuration":257448,"Delta":195869507},{"NoteNumber":42,"Velocity":61,"Duration":300314,"SoundDuration":300314,"Delta":195869507},{"NoteNumber":63,"Velocity":77,"Duration":214334,"SoundDuration":214334,"Delta":195912621},{"NoteNumber":47,"Velocity":63,"Duration":257201,"SoundDuration":257201,"Delta":195912621},{"NoteNumber":51,"Velocity":72,"Duration":342935,"SoundDuration":342935,"Delta":196126955},{"NoteNumber":57,"Velocity":75,"Duration":300068,"SoundDuration":300068,"Delta":196169822},{"NoteNumber":35,"Velocity":60,"Duration":342935,"SoundDuration":342935,"Delta":196169822},{"NoteNumber":59,"Velocity":78,"Duration":257201,"SoundDuration":257201,"Delta":196212689},{"NoteNumber":42,"Velocity":63,"Duration":300068,"SoundDuration":300068,"Delta":196212689},{"NoteNumber":63,"Velocity":81,"Duration":214334,"SoundDuration":214334,"Delta":196255556},{"NoteNumber":47,"Velocity":66,"Duration":257201,"SoundDuration":257201,"Delta":196255556},{"NoteNumber":51,"Velocity":74,"Duration":342935,"SoundDuration":342935,"Delta":196469891},{"NoteNumber":57,"Velocity":78,"Duration":300068,"SoundDuration":300068,"Delta":196512758},{"NoteNumber":35,"Velocity":63,"Duration":343010,"SoundDuration":343010,"Delta":196512758},{"NoteNumber":59,"Velocity":80,"Duration":257201,"SoundDuration":257201,"Delta":196555625},{"NoteNumber":42,"Velocity":65,"Duration":300143,"SoundDuration":300143,"Delta":196555625},{"NoteNumber":63,"Velocity":83,"Duration":214334,"SoundDuration":214334,"Delta":196598492},{"NoteNumber":47,"Velocity":69,"Duration":257276,"SoundDuration":257276,"Delta":196598492},{"NoteNumber":51,"Velocity":77,"Duration":349356,"SoundDuration":349356,"Delta":196812826},{"NoteNumber":57,"Velocity":80,"Duration":306415,"SoundDuration":306415,"Delta":196855768},{"NoteNumber":35,"Velocity":64,"Duration":349038,"SoundDuration":349038,"Delta":196855768},{"NoteNumber":59,"Velocity":82,"Duration":262800,"SoundDuration":262800,"Delta":196899383},{"NoteNumber":42,"Velocity":68,"Duration":305423,"SoundDuration":305423,"Delta":196899383},{"NoteNumber":63,"Velocity":86,"Duration":219057,"SoundDuration":219057,"Delta":196943125},{"NoteNumber":47,"Velocity":71,"Duration":261681,"SoundDuration":261681,"Delta":196943125},{"NoteNumber":51,"Velocity":80,"Duration":468856,"SoundDuration":468856,"Delta":197162183},{"NoteNumber":57,"Velocity":83,"Duration":426233,"SoundDuration":426233,"Delta":197204806},{"NoteNumber":35,"Velocity":66,"Duration":426233,"SoundDuration":426233,"Delta":197204806},{"NoteNumber":59,"Velocity":85,"Duration":383609,"SoundDuration":383609,"Delta":197247430},{"NoteNumber":42,"Velocity":70,"Duration":383609,"SoundDuration":383609,"Delta":197247430},{"NoteNumber":63,"Velocity":89,"Duration":340986,"SoundDuration":340986,"Delta":197290053},{"NoteNumber":47,"Velocity":73,"Duration":340986,"SoundDuration":340986,"Delta":197290053},{"NoteNumber":52,"Velocity":84,"Duration":164871,"SoundDuration":164871,"Delta":197631040},{"NoteNumber":56,"Velocity":84,"Duration":164871,"SoundDuration":164871,"Delta":197631040},{"NoteNumber":64,"Velocity":99,"Duration":164871,"SoundDuration":164871,"Delta":197631040},{"NoteNumber":28,"Velocity":59,"Duration":164871,"SoundDuration":164871,"Delta":197631040},{"NoteNumber":40,"Velocity":70,"Duration":164871,"SoundDuration":164871,"Delta":197631040},{"NoteNumber":56,"Velocity":79,"Duration":645652,"SoundDuration":645652,"Delta":198157876},{"NoteNumber":59,"Velocity":80,"Duration":609994,"SoundDuration":609994,"Delta":198193534},{"NoteNumber":40,"Velocity":80,"Duration":609994,"SoundDuration":609994,"Delta":198193534},{"NoteNumber":64,"Velocity":80,"Duration":572913,"SoundDuration":572913,"Delta":198230615},{"NoteNumber":47,"Velocity":80,"Duration":572913,"SoundDuration":572913,"Delta":198230615},{"NoteNumber":68,"Velocity":80,"Duration":535832,"SoundDuration":535832,"Delta":198267696},{"NoteNumber":52,"Velocity":80,"Duration":535832,"SoundDuration":535832,"Delta":198267696},{"NoteNumber":56,"Velocity":78,"Duration":651975,"SoundDuration":651975,"Delta":198803528},{"NoteNumber":59,"Velocity":78,"Duration":613375,"SoundDuration":613375,"Delta":198842129},{"NoteNumber":40,"Velocity":78,"Duration":613375,"SoundDuration":613375,"Delta":198842129},{"NoteNumber":64,"Velocity":77,"Duration":576084,"SoundDuration":576084,"Delta":198879420},{"NoteNumber":47,"Velocity":77,"Duration":576084,"SoundDuration":576084,"Delta":198879420},{"NoteNumber":68,"Velocity":77,"Duration":538793,"SoundDuration":538793,"Delta":198916711},{"NoteNumber":52,"Velocity":77,"Duration":538793,"SoundDuration":538793,"Delta":198916711},{"NoteNumber":56,"Velocity":75,"Duration":649647,"SoundDuration":649647,"Delta":199455504},{"NoteNumber":59,"Velocity":75,"Duration":610832,"SoundDuration":610832,"Delta":199494319},{"NoteNumber":40,"Velocity":75,"Duration":610832,"SoundDuration":610832,"Delta":199494319},{"NoteNumber":64,"Velocity":75,"Duration":573332,"SoundDuration":573332,"Delta":199531819},{"NoteNumber":47,"Velocity":75,"Duration":573332,"SoundDuration":573332,"Delta":199531819},{"NoteNumber":68,"Velocity":74,"Duration":535832,"SoundDuration":535832,"Delta":199569319},{"NoteNumber":52,"Velocity":74,"Duration":535832,"SoundDuration":535832,"Delta":199569319},{"NoteNumber":56,"Velocity":72,"Duration":651415,"SoundDuration":651415,"Delta":200105152},{"NoteNumber":59,"Velocity":72,"Duration":612955,"SoundDuration":612955,"Delta":200143612},{"NoteNumber":40,"Velocity":72,"Duration":612955,"SoundDuration":612955,"Delta":200143612},{"NoteNumber":64,"Velocity":72,"Duration":575874,"SoundDuration":575874,"Delta":200180693},{"NoteNumber":47,"Velocity":72,"Duration":575874,"SoundDuration":575874,"Delta":200180693},{"NoteNumber":68,"Velocity":72,"Duration":538793,"SoundDuration":538793,"Delta":200217774},{"NoteNumber":52,"Velocity":72,"Duration":538793,"SoundDuration":538793,"Delta":200217774},{"NoteNumber":56,"Velocity":69,"Duration":704811,"SoundDuration":704811,"Delta":200756567},{"NoteNumber":59,"Velocity":69,"Duration":666135,"SoundDuration":666135,"Delta":200795243},{"NoteNumber":40,"Velocity":69,"Duration":666135,"SoundDuration":666135,"Delta":200795243},{"NoteNumber":64,"Velocity":69,"Duration":628844,"SoundDuration":628844,"Delta":200832534},{"NoteNumber":47,"Velocity":69,"Duration":628844,"SoundDuration":628844,"Delta":200832534},{"NoteNumber":68,"Velocity":69,"Duration":594092,"SoundDuration":594092,"Delta":200867286},{"NoteNumber":52,"Velocity":69,"Duration":594092,"SoundDuration":594092,"Delta":200867286},{"NoteNumber":56,"Velocity":66,"Duration":70728,"SoundDuration":70728,"Delta":201461378},{"NoteNumber":59,"Velocity":66,"Duration":70728,"SoundDuration":70728,"Delta":201461378},{"NoteNumber":64,"Velocity":66,"Duration":70728,"SoundDuration":70728,"Delta":201461378},{"NoteNumber":68,"Velocity":66,"Duration":70728,"SoundDuration":70728,"Delta":201461378},{"NoteNumber":40,"Velocity":66,"Duration":70728,"SoundDuration":70728,"Delta":201461378},{"NoteNumber":47,"Velocity":66,"Duration":70728,"SoundDuration":70728,"Delta":201461378},{"NoteNumber":52,"Velocity":66,"Duration":70728,"SoundDuration":70728,"Delta":201461378},{"NoteNumber":39,"Velocity":24,"Duration":70728,"SoundDuration":70728,"Delta":201602834},{"NoteNumber":51,"Velocity":28,"Duration":70728,"SoundDuration":70728,"Delta":201602834},{"NoteNumber":37,"Velocity":24,"Duration":70728,"SoundDuration":70728,"Delta":201744290},{"NoteNumber":49,"Velocity":28,"Duration":70728,"SoundDuration":70728,"Delta":201744290},{"NoteNumber":35,"Velocity":24,"Duration":74338,"SoundDuration":74338,"Delta":201885746},{"NoteNumber":47,"Velocity":28,"Duration":74338,"SoundDuration":74338,"Delta":201885746},{"NoteNumber":40,"Velocity":28,"Duration":70047,"SoundDuration":70047,"Delta":202034423},{"NoteNumber":52,"Velocity":35,"Duration":70047,"SoundDuration":70047,"Delta":202034423},{"NoteNumber":39,"Velocity":27,"Duration":70047,"SoundDuration":70047,"Delta":202174518},{"NoteNumber":51,"Velocity":32,"Duration":70047,"SoundDuration":70047,"Delta":202174518},{"NoteNumber":37,"Velocity":24,"Duration":70047,"SoundDuration":70047,"Delta":202314613},{"NoteNumber":49,"Velocity":28,"Duration":70047,"SoundDuration":70047,"Delta":202314613},{"NoteNumber":35,"Velocity":24,"Duration":73213,"SoundDuration":73213,"Delta":202454709},{"NoteNumber":47,"Velocity":28,"Duration":73213,"SoundDuration":73213,"Delta":202454709},{"NoteNumber":40,"Velocity":28,"Duration":69380,"SoundDuration":69380,"Delta":202601136},{"NoteNumber":52,"Velocity":35,"Duration":69380,"SoundDuration":69380,"Delta":202601136},{"NoteNumber":39,"Velocity":24,"Duration":69380,"SoundDuration":69380,"Delta":202739896},{"NoteNumber":51,"Velocity":28,"Duration":69380,"SoundDuration":69380,"Delta":202739896},{"NoteNumber":37,"Velocity":24,"Duration":69380,"SoundDuration":69380,"Delta":202878657},{"NoteNumber":49,"Velocity":28,"Duration":69380,"SoundDuration":69380,"Delta":202878657},{"NoteNumber":35,"Velocity":24,"Duration":74338,"SoundDuration":74338,"Delta":203017417},{"NoteNumber":47,"Velocity":28,"Duration":74338,"SoundDuration":74338,"Delta":203017417},{"NoteNumber":40,"Velocity":29,"Duration":69054,"SoundDuration":69054,"Delta":203166094},{"NoteNumber":52,"Velocity":35,"Duration":69054,"SoundDuration":69054,"Delta":203166094},{"NoteNumber":39,"Velocity":24,"Duration":69054,"SoundDuration":69054,"Delta":203304203},{"NoteNumber":51,"Velocity":28,"Duration":69054,"SoundDuration":69054,"Delta":203304203},{"NoteNumber":37,"Velocity":24,"Duration":69054,"SoundDuration":69054,"Delta":203442312},{"NoteNumber":49,"Velocity":28,"Duration":69054,"SoundDuration":69054,"Delta":203442312},{"NoteNumber":35,"Velocity":24,"Duration":73957,"SoundDuration":73957,"Delta":203580420},{"NoteNumber":47,"Velocity":28,"Duration":73957,"SoundDuration":73957,"Delta":203580420},{"NoteNumber":40,"Velocity":29,"Duration":69715,"SoundDuration":69715,"Delta":203728335},{"NoteNumber":52,"Velocity":34,"Duration":69715,"SoundDuration":69715,"Delta":203728335},{"NoteNumber":39,"Velocity":26,"Duration":69715,"SoundDuration":69715,"Delta":203867766},{"NoteNumber":51,"Velocity":32,"Duration":69715,"SoundDuration":69715,"Delta":203867766},{"NoteNumber":37,"Velocity":24,"Duration":69715,"SoundDuration":69715,"Delta":204007197},{"NoteNumber":49,"Velocity":29,"Duration":69715,"SoundDuration":69715,"Delta":204007197},{"NoteNumber":35,"Velocity":24,"Duration":73957,"SoundDuration":73957,"Delta":204146628},{"NoteNumber":47,"Velocity":29,"Duration":73957,"SoundDuration":73957,"Delta":204146628},{"NoteNumber":40,"Velocity":29,"Duration":70047,"SoundDuration":70047,"Delta":204294542},{"NoteNumber":52,"Velocity":35,"Duration":70047,"SoundDuration":70047,"Delta":204294542},{"NoteNumber":39,"Velocity":24,"Duration":70047,"SoundDuration":70047,"Delta":204434638},{"NoteNumber":51,"Velocity":28,"Duration":70047,"SoundDuration":70047,"Delta":204434638},{"NoteNumber":37,"Velocity":24,"Duration":70047,"SoundDuration":70047,"Delta":204574733},{"NoteNumber":49,"Velocity":28,"Duration":70047,"SoundDuration":70047,"Delta":204574733},{"NoteNumber":35,"Velocity":24,"Duration":72654,"SoundDuration":72654,"Delta":204714828},{"NoteNumber":47,"Velocity":28,"Duration":72654,"SoundDuration":72654,"Delta":204714828},{"NoteNumber":56,"Velocity":37,"Duration":1146082,"SoundDuration":1146082,"Delta":204861439},{"NoteNumber":59,"Velocity":44,"Duration":1146082,"SoundDuration":1146082,"Delta":204861439},{"NoteNumber":40,"Velocity":31,"Duration":70728,"SoundDuration":70728,"Delta":204861439},{"NoteNumber":52,"Velocity":36,"Duration":70728,"SoundDuration":70728,"Delta":204861439},{"NoteNumber":39,"Velocity":24,"Duration":70728,"SoundDuration":70728,"Delta":205002895},{"NoteNumber":51,"Velocity":29,"Duration":70728,"SoundDuration":70728,"Delta":205002895},{"NoteNumber":37,"Velocity":25,"Duration":70728,"SoundDuration":70728,"Delta":205144351},{"NoteNumber":49,"Velocity":29,"Duration":70728,"SoundDuration":70728,"Delta":205144351},{"NoteNumber":35,"Velocity":25,"Duration":73957,"SoundDuration":73957,"Delta":205285807},{"NoteNumber":47,"Velocity":29,"Duration":73957,"SoundDuration":73957,"Delta":205285807},{"NoteNumber":40,"Velocity":30,"Duration":70728,"SoundDuration":70728,"Delta":205433722},{"NoteNumber":52,"Velocity":36,"Duration":70728,"SoundDuration":70728,"Delta":205433722},{"NoteNumber":39,"Velocity":28,"Duration":70728,"SoundDuration":70728,"Delta":205575178},{"NoteNumber":51,"Velocity":34,"Duration":70728,"SoundDuration":70728,"Delta":205575178},{"NoteNumber":37,"Velocity":25,"Duration":70728,"SoundDuration":70728,"Delta":205716634},{"NoteNumber":49,"Velocity":30,"Duration":70728,"SoundDuration":70728,"Delta":205716634},{"NoteNumber":35,"Velocity":25,"Duration":74716,"SoundDuration":74716,"Delta":205858090},{"NoteNumber":47,"Velocity":30,"Duration":74716,"SoundDuration":74716,"Delta":205858090},{"NoteNumber":57,"Velocity":35,"Duration":424367,"SoundDuration":424367,"Delta":206007522},{"NoteNumber":59,"Velocity":42,"Duration":424367,"SoundDuration":424367,"Delta":206007522},{"NoteNumber":40,"Velocity":30,"Duration":70728,"SoundDuration":70728,"Delta":206007522},{"NoteNumber":52,"Velocity":36,"Duration":70728,"SoundDuration":70728,"Delta":206007522},{"NoteNumber":39,"Velocity":25,"Duration":70728,"SoundDuration":70728,"Delta":206148978},{"NoteNumber":51,"Velocity":29,"Duration":70728,"SoundDuration":70728,"Delta":206148978},{"NoteNumber":37,"Velocity":25,"Duration":70728,"SoundDuration":70728,"Delta":206290434},{"NoteNumber":49,"Velocity":29,"Duration":70728,"SoundDuration":70728,"Delta":206290434},{"NoteNumber":57,"Velocity":36,"Duration":149432,"SoundDuration":149432,"Delta":206431890},{"NoteNumber":59,"Velocity":44,"Duration":149432,"SoundDuration":149432,"Delta":206431890},{"NoteNumber":35,"Velocity":26,"Duration":74716,"SoundDuration":74716,"Delta":206431890},{"NoteNumber":47,"Velocity":30,"Duration":74716,"SoundDuration":74716,"Delta":206431890},{"NoteNumber":56,"Velocity":36,"Duration":418450,"SoundDuration":418450,"Delta":206581322},{"NoteNumber":59,"Velocity":44,"Duration":418450,"SoundDuration":418450,"Delta":206581322},{"NoteNumber":40,"Velocity":31,"Duration":70728,"SoundDuration":70728,"Delta":206581322},{"NoteNumber":52,"Velocity":36,"Duration":70728,"SoundDuration":70728,"Delta":206581322},{"NoteNumber":39,"Velocity":26,"Duration":70728,"SoundDuration":70728,"Delta":206722778},{"NoteNumber":51,"Velocity":30,"Duration":70728,"SoundDuration":70728,"Delta":206722778},{"NoteNumber":37,"Velocity":26,"Duration":67768,"SoundDuration":67768,"Delta":206864234},{"NoteNumber":49,"Velocity":30,"Duration":67768,"SoundDuration":67768,"Delta":206864234},{"NoteNumber":56,"Velocity":35,"Duration":133809,"SoundDuration":133809,"Delta":206999772},{"NoteNumber":64,"Velocity":41,"Duration":133809,"SoundDuration":133809,"Delta":206999772},{"NoteNumber":35,"Velocity":26,"Duration":74338,"SoundDuration":74338,"Delta":206999772},{"NoteNumber":47,"Velocity":30,"Duration":74338,"SoundDuration":74338,"Delta":206999772},{"NoteNumber":56,"Velocity":39,"Duration":566969,"SoundDuration":566969,"Delta":207148449},{"NoteNumber":59,"Velocity":39,"Duration":566969,"SoundDuration":566969,"Delta":207148449},{"NoteNumber":68,"Velocity":46,"Duration":566969,"SoundDuration":566969,"Delta":207148449},{"NoteNumber":40,"Velocity":31,"Duration":69715,"SoundDuration":69715,"Delta":207148449},{"NoteNumber":52,"Velocity":36,"Duration":69715,"SoundDuration":69715,"Delta":207148449},{"NoteNumber":39,"Velocity":28,"Duration":69715,"SoundDuration":69715,"Delta":207287880},{"NoteNumber":51,"Velocity":33,"Duration":69715,"SoundDuration":69715,"Delta":207287880},{"NoteNumber":37,"Velocity":26,"Duration":69715,"SoundDuration":69715,"Delta":207427311},{"NoteNumber":49,"Velocity":31,"Duration":69715,"SoundDuration":69715,"Delta":207427311},{"NoteNumber":35,"Velocity":26,"Duration":74338,"SoundDuration":74338,"Delta":207566742},{"NoteNumber":47,"Velocity":31,"Duration":74338,"SoundDuration":74338,"Delta":207566742},{"NoteNumber":57,"Velocity":33,"Duration":573044,"SoundDuration":573044,"Delta":207715419},{"NoteNumber":59,"Velocity":33,"Duration":573044,"SoundDuration":573044,"Delta":207715419},{"NoteNumber":66,"Velocity":40,"Duration":573044,"SoundDuration":573044,"Delta":207715419},{"NoteNumber":40,"Velocity":31,"Duration":70728,"SoundDuration":70728,"Delta":207715419},{"NoteNumber":52,"Velocity":38,"Duration":70728,"SoundDuration":70728,"Delta":207715419},{"NoteNumber":39,"Velocity":26,"Duration":70728,"SoundDuration":70728,"Delta":207856875},{"NoteNumber":51,"Velocity":30,"Duration":70728,"SoundDuration":70728,"Delta":207856875},{"NoteNumber":37,"Velocity":26,"Duration":70728,"SoundDuration":70728,"Delta":207998331},{"NoteNumber":49,"Velocity":30,"Duration":70728,"SoundDuration":70728,"Delta":207998331},{"NoteNumber":35,"Velocity":26,"Duration":74338,"SoundDuration":74338,"Delta":208139787},{"NoteNumber":47,"Velocity":30,"Duration":74338,"SoundDuration":74338,"Delta":208139787},{"NoteNumber":56,"Velocity":35,"Duration":419077,"SoundDuration":419077,"Delta":208288464},{"NoteNumber":59,"Velocity":42,"Duration":419077,"SoundDuration":419077,"Delta":208288464},{"NoteNumber":40,"Velocity":31,"Duration":70728,"SoundDuration":70728,"Delta":208288464},{"NoteNumber":52,"Velocity":38,"Duration":70728,"SoundDuration":70728,"Delta":208288464},{"NoteNumber":39,"Velocity":25,"Duration":70728,"SoundDuration":70728,"Delta":208429920},{"NoteNumber":51,"Velocity":30,"Duration":70728,"SoundDuration":70728,"Delta":208429920},{"NoteNumber":37,"Velocity":25,"Duration":68082,"SoundDuration":68082,"Delta":208571376},{"NoteNumber":49,"Velocity":30,"Duration":68082,"SoundDuration":68082,"Delta":208571376},{"NoteNumber":56,"Velocity":35,"Duration":133809,"SoundDuration":133809,"Delta":208707541},{"NoteNumber":64,"Velocity":42,"Duration":133809,"SoundDuration":133809,"Delta":208707541},{"NoteNumber":35,"Velocity":25,"Duration":74338,"SoundDuration":74338,"Delta":208707541},{"NoteNumber":47,"Velocity":30,"Duration":74338,"SoundDuration":74338,"Delta":208707541},{"NoteNumber":56,"Velocity":36,"Duration":280190,"SoundDuration":280190,"Delta":208856218},{"NoteNumber":59,"Velocity":36,"Duration":280190,"SoundDuration":280190,"Delta":208856218},{"NoteNumber":68,"Velocity":44,"Duration":280190,"SoundDuration":280190,"Delta":208856218},{"NoteNumber":40,"Velocity":31,"Duration":70047,"SoundDuration":70047,"Delta":208856218},{"NoteNumber":52,"Velocity":38,"Duration":70047,"SoundDuration":70047,"Delta":208856218},{"NoteNumber":39,"Velocity":30,"Duration":70047,"SoundDuration":70047,"Delta":208996313},{"NoteNumber":51,"Velocity":36,"Duration":70047,"SoundDuration":70047,"Delta":208996313},{"NoteNumber":37,"Velocity":26,"Duration":70047,"SoundDuration":70047,"Delta":209136408},{"NoteNumber":49,"Velocity":33,"Duration":70047,"SoundDuration":70047,"Delta":209136408},{"NoteNumber":57,"Velocity":34,"Duration":148102,"SoundDuration":148102,"Delta":209276504},{"NoteNumber":63,"Velocity":41,"Duration":148102,"SoundDuration":148102,"Delta":209276504},{"NoteNumber":35,"Velocity":26,"Duration":74716,"SoundDuration":74716,"Delta":209276504},{"NoteNumber":47,"Velocity":33,"Duration":74716,"SoundDuration":74716,"Delta":209276504},{"NoteNumber":56,"Velocity":35,"Duration":277429,"SoundDuration":277429,"Delta":209424607},{"NoteNumber":64,"Velocity":42,"Duration":277429,"SoundDuration":277429,"Delta":209424607},{"NoteNumber":40,"Velocity":33,"Duration":68725,"SoundDuration":68725,"Delta":209424607},{"NoteNumber":52,"Velocity":40,"Duration":68725,"SoundDuration":68725,"Delta":209424607},{"NoteNumber":39,"Velocity":27,"Duration":69603,"SoundDuration":69603,"Delta":209562495},{"NoteNumber":51,"Velocity":32,"Duration":69603,"SoundDuration":69603,"Delta":209562495},{"NoteNumber":56,"Velocity":36,"Duration":290130,"SoundDuration":290130,"Delta":209702036},{"NoteNumber":64,"Velocity":36,"Duration":290130,"SoundDuration":290130,"Delta":209702036},{"NoteNumber":68,"Velocity":42,"Duration":290130,"SoundDuration":290130,"Delta":209702036},{"NoteNumber":37,"Velocity":27,"Duration":70497,"SoundDuration":70497,"Delta":209702036},{"NoteNumber":49,"Velocity":33,"Duration":70497,"SoundDuration":70497,"Delta":209702036},{"NoteNumber":35,"Velocity":28,"Duration":74338,"SoundDuration":74338,"Delta":209843489},{"NoteNumber":47,"Velocity":33,"Duration":74338,"SoundDuration":74338,"Delta":209843489},{"NoteNumber":59,"Velocity":39,"Duration":278862,"SoundDuration":278862,"Delta":209992166},{"NoteNumber":68,"Velocity":39,"Duration":278862,"SoundDuration":278862,"Delta":209992166},{"NoteNumber":71,"Velocity":47,"Duration":278862,"SoundDuration":278862,"Delta":209992166},{"NoteNumber":40,"Velocity":35,"Duration":69715,"SoundDuration":69715,"Delta":209992166},{"NoteNumber":52,"Velocity":42,"Duration":69715,"SoundDuration":69715,"Delta":209992166},{"NoteNumber":39,"Velocity":28,"Duration":69715,"SoundDuration":69715,"Delta":210131597},{"NoteNumber":51,"Velocity":34,"Duration":69715,"SoundDuration":69715,"Delta":210131597},{"NoteNumber":61,"Velocity":39,"Duration":66530,"SoundDuration":66530,"Delta":210271028},{"NoteNumber":68,"Velocity":39,"Duration":66530,"SoundDuration":66530,"Delta":210271028},{"NoteNumber":73,"Velocity":47,"Duration":66530,"SoundDuration":66530,"Delta":210271028},{"NoteNumber":37,"Velocity":28,"Duration":66530,"SoundDuration":66530,"Delta":210271028},{"NoteNumber":49,"Velocity":34,"Duration":66530,"SoundDuration":66530,"Delta":210271028},{"NoteNumber":63,"Velocity":40,"Duration":73957,"SoundDuration":73957,"Delta":210404089},{"NoteNumber":68,"Velocity":40,"Duration":73957,"SoundDuration":73957,"Delta":210404089},{"NoteNumber":75,"Velocity":49,"Duration":73957,"SoundDuration":73957,"Delta":210404089},{"NoteNumber":35,"Velocity":28,"Duration":73957,"SoundDuration":73957,"Delta":210404089},{"NoteNumber":47,"Velocity":34,"Duration":73957,"SoundDuration":73957,"Delta":210404089},{"NoteNumber":64,"Velocity":43,"Duration":139431,"SoundDuration":139431,"Delta":210552004},{"NoteNumber":68,"Velocity":43,"Duration":139431,"SoundDuration":139431,"Delta":210552004},{"NoteNumber":76,"Velocity":51,"Duration":139431,"SoundDuration":139431,"Delta":210552004},{"NoteNumber":40,"Velocity":35,"Duration":69715,"SoundDuration":69715,"Delta":210552004},{"NoteNumber":52,"Velocity":41,"Duration":69715,"SoundDuration":69715,"Delta":210552004},{"NoteNumber":39,"Velocity":32,"Duration":69715,"SoundDuration":69715,"Delta":210691435},{"NoteNumber":51,"Velocity":39,"Duration":69715,"SoundDuration":69715,"Delta":210691435},{"NoteNumber":59,"Velocity":39,"Duration":142843,"SoundDuration":142843,"Delta":210830866},{"NoteNumber":68,"Velocity":39,"Duration":142843,"SoundDuration":142843,"Delta":210830866},{"NoteNumber":71,"Velocity":45,"Duration":142843,"SoundDuration":142843,"Delta":210830866},{"NoteNumber":37,"Velocity":28,"Duration":71421,"SoundDuration":71421,"Delta":210830866},{"NoteNumber":49,"Velocity":35,"Duration":71421,"SoundDuration":71421,"Delta":210830866},{"NoteNumber":35,"Velocity":28,"Duration":73957,"SoundDuration":73957,"Delta":210973709},{"NoteNumber":47,"Velocity":35,"Duration":73957,"SoundDuration":73957,"Delta":210973709},{"NoteNumber":68,"Velocity":45,"Duration":573044,"SoundDuration":573044,"Delta":211121624},{"NoteNumber":71,"Velocity":45,"Duration":573044,"SoundDuration":573044,"Delta":211121624},{"NoteNumber":80,"Velocity":54,"Duration":573044,"SoundDuration":573044,"Delta":211121624},{"NoteNumber":40,"Velocity":36,"Duration":70728,"SoundDuration":70728,"Delta":211121624},{"NoteNumber":52,"Velocity":42,"Duration":70728,"SoundDuration":70728,"Delta":211121624},{"NoteNumber":39,"Velocity":29,"Duration":70728,"SoundDuration":70728,"Delta":211263080},{"NoteNumber":51,"Velocity":34,"Duration":70728,"SoundDuration":70728,"Delta":211263080},{"NoteNumber":37,"Velocity":29,"Duration":70728,"SoundDuration":70728,"Delta":211404536},{"NoteNumber":49,"Velocity":34,"Duration":70728,"SoundDuration":70728,"Delta":211404536},{"NoteNumber":35,"Velocity":29,"Duration":74338,"SoundDuration":74338,"Delta":211545992},{"NoteNumber":47,"Velocity":34,"Duration":74338,"SoundDuration":74338,"Delta":211545992},{"NoteNumber":59,"Velocity":34,"Duration":845589,"SoundDuration":845589,"Delta":211694669},{"NoteNumber":66,"Velocity":34,"Duration":845589,"SoundDuration":845589,"Delta":211694669},{"NoteNumber":69,"Velocity":41,"Duration":845589,"SoundDuration":845589,"Delta":211694669},{"NoteNumber":71,"Velocity":49,"Duration":845589,"SoundDuration":845589,"Delta":211694669},{"NoteNumber":40,"Velocity":36,"Duration":69767,"SoundDuration":69767,"Delta":211694669},{"NoteNumber":52,"Velocity":42,"Duration":69767,"SoundDuration":69767,"Delta":211694669},{"NoteNumber":39,"Velocity":29,"Duration":69767,"SoundDuration":69767,"Delta":211834204},{"NoteNumber":51,"Velocity":35,"Duration":69767,"SoundDuration":69767,"Delta":211834204},{"NoteNumber":37,"Velocity":29,"Duration":69767,"SoundDuration":69767,"Delta":211973739},{"NoteNumber":49,"Velocity":35,"Duration":69767,"SoundDuration":69767,"Delta":211973739},{"NoteNumber":35,"Velocity":29,"Duration":73957,"SoundDuration":73957,"Delta":212113274},{"NoteNumber":47,"Velocity":35,"Duration":73957,"SoundDuration":73957,"Delta":212113274},{"NoteNumber":40,"Velocity":36,"Duration":69767,"SoundDuration":69767,"Delta":212261188},{"NoteNumber":52,"Velocity":42,"Duration":69767,"SoundDuration":69767,"Delta":212261188},{"NoteNumber":39,"Velocity":33,"Duration":69767,"SoundDuration":69767,"Delta":212400723},{"NoteNumber":51,"Velocity":39,"Duration":69767,"SoundDuration":69767,"Delta":212400723},{"NoteNumber":59,"Velocity":42,"Duration":71421,"SoundDuration":71421,"Delta":212540258},{"NoteNumber":69,"Velocity":42,"Duration":71421,"SoundDuration":71421,"Delta":212540258},{"NoteNumber":71,"Velocity":50,"Duration":71421,"SoundDuration":71421,"Delta":212540258},{"NoteNumber":37,"Velocity":29,"Duration":71421,"SoundDuration":71421,"Delta":212540258},{"NoteNumber":49,"Velocity":36,"Duration":71421,"SoundDuration":71421,"Delta":212540258},{"NoteNumber":59,"Velocity":42,"Duration":73587,"SoundDuration":73587,"Delta":212683102},{"NoteNumber":69,"Velocity":42,"Duration":73587,"SoundDuration":73587,"Delta":212683102},{"NoteNumber":71,"Velocity":50,"Duration":73587,"SoundDuration":73587,"Delta":212683102},{"NoteNumber":35,"Velocity":29,"Duration":73587,"SoundDuration":73587,"Delta":212683102},{"NoteNumber":47,"Velocity":36,"Duration":73587,"SoundDuration":73587,"Delta":212683102},{"NoteNumber":59,"Velocity":43,"Duration":139534,"SoundDuration":139534,"Delta":212830276},{"NoteNumber":69,"Velocity":43,"Duration":139534,"SoundDuration":139534,"Delta":212830276},{"NoteNumber":71,"Velocity":52,"Duration":139534,"SoundDuration":139534,"Delta":212830276},{"NoteNumber":40,"Velocity":36,"Duration":69767,"SoundDuration":69767,"Delta":212830276},{"NoteNumber":52,"Velocity":42,"Duration":69767,"SoundDuration":69767,"Delta":212830276},{"NoteNumber":39,"Velocity":29,"Duration":69767,"SoundDuration":69767,"Delta":212969811},{"NoteNumber":51,"Velocity":35,"Duration":69767,"SoundDuration":69767,"Delta":212969811},{"NoteNumber":59,"Velocity":41,"Duration":139535,"SoundDuration":139535,"Delta":213109346},{"NoteNumber":69,"Velocity":41,"Duration":139535,"SoundDuration":139535,"Delta":213109346},{"NoteNumber":71,"Velocity":49,"Duration":139535,"SoundDuration":139535,"Delta":213109346},{"NoteNumber":37,"Velocity":30,"Duration":69767,"SoundDuration":69767,"Delta":213109346},{"NoteNumber":49,"Velocity":35,"Duration":69767,"SoundDuration":69767,"Delta":213109346},{"NoteNumber":35,"Velocity":30,"Duration":74338,"SoundDuration":74338,"Delta":213248881},{"NoteNumber":47,"Velocity":35,"Duration":74338,"SoundDuration":74338,"Delta":213248881},{"NoteNumber":59,"Velocity":45,"Duration":419723,"SoundDuration":419723,"Delta":213397558},{"NoteNumber":68,"Velocity":45,"Duration":419723,"SoundDuration":419723,"Delta":213397558},{"NoteNumber":71,"Velocity":53,"Duration":419723,"SoundDuration":419723,"Delta":213397558},{"NoteNumber":40,"Velocity":36,"Duration":70728,"SoundDuration":70728,"Delta":213397558},{"NoteNumber":52,"Velocity":42,"Duration":70728,"SoundDuration":70728,"Delta":213397558},{"NoteNumber":39,"Velocity":29,"Duration":70728,"SoundDuration":70728,"Delta":213539014},{"NoteNumber":51,"Velocity":35,"Duration":70728,"SoundDuration":70728,"Delta":213539014},{"NoteNumber":37,"Velocity":29,"Duration":68405,"SoundDuration":68405,"Delta":213680470},{"NoteNumber":49,"Velocity":35,"Duration":68405,"SoundDuration":68405,"Delta":213680470},{"NoteNumber":64,"Velocity":42,"Duration":134489,"SoundDuration":134489,"Delta":213817281},{"NoteNumber":68,"Velocity":42,"Duration":134489,"SoundDuration":134489,"Delta":213817281},{"NoteNumber":76,"Velocity":50,"Duration":134489,"SoundDuration":134489,"Delta":213817281},{"NoteNumber":35,"Velocity":29,"Duration":74716,"SoundDuration":74716,"Delta":213817281},{"NoteNumber":47,"Velocity":35,"Duration":74716,"SoundDuration":74716,"Delta":213817281},{"NoteNumber":64,"Velocity":44,"Duration":568037,"SoundDuration":568037,"Delta":213966713},{"NoteNumber":68,"Velocity":44,"Duration":568037,"SoundDuration":568037,"Delta":213966713},{"NoteNumber":76,"Velocity":53,"Duration":568037,"SoundDuration":568037,"Delta":213966713},{"NoteNumber":40,"Velocity":36,"Duration":69767,"SoundDuration":69767,"Delta":213966713},{"NoteNumber":52,"Velocity":43,"Duration":69767,"SoundDuration":69767,"Delta":213966713},{"NoteNumber":39,"Velocity":33,"Duration":69767,"SoundDuration":69767,"Delta":214106248},{"NoteNumber":51,"Velocity":39,"Duration":69767,"SoundDuration":69767,"Delta":214106248},{"NoteNumber":37,"Velocity":29,"Duration":69767,"SoundDuration":69767,"Delta":214245783},{"NoteNumber":49,"Velocity":36,"Duration":69767,"SoundDuration":69767,"Delta":214245783},{"NoteNumber":35,"Velocity":29,"Duration":74716,"SoundDuration":74716,"Delta":214385318},{"NoteNumber":47,"Velocity":36,"Duration":74716,"SoundDuration":74716,"Delta":214385318},{"NoteNumber":59,"Velocity":41,"Duration":569993,"SoundDuration":569993,"Delta":214534751},{"NoteNumber":64,"Velocity":41,"Duration":569993,"SoundDuration":569993,"Delta":214534751},{"NoteNumber":68,"Velocity":49,"Duration":569993,"SoundDuration":569993,"Delta":214534751},{"NoteNumber":40,"Velocity":37,"Duration":70093,"SoundDuration":70093,"Delta":214534751},{"NoteNumber":52,"Velocity":43,"Duration":70093,"SoundDuration":70093,"Delta":214534751},{"NoteNumber":39,"Velocity":30,"Duration":70093,"SoundDuration":70093,"Delta":214674938},{"NoteNumber":51,"Velocity":36,"Duration":70093,"SoundDuration":70093,"Delta":214674938},{"NoteNumber":37,"Velocity":30,"Duration":70093,"SoundDuration":70093,"Delta":214815125},{"NoteNumber":49,"Velocity":36,"Duration":70093,"SoundDuration":70093,"Delta":214815125},{"NoteNumber":35,"Velocity":30,"Duration":74716,"SoundDuration":74716,"Delta":214955312},{"NoteNumber":47,"Velocity":36,"Duration":74716,"SoundDuration":74716,"Delta":214955312},{"NoteNumber":57,"Velocity":46,"Duration":280373,"SoundDuration":280373,"Delta":215104744},{"NoteNumber":59,"Velocity":46,"Duration":280373,"SoundDuration":280373,"Delta":215104744},{"NoteNumber":66,"Velocity":54,"Duration":843780,"SoundDuration":843780,"Delta":215104744},{"NoteNumber":40,"Velocity":37,"Duration":70093,"SoundDuration":70093,"Delta":215104744},{"NoteNumber":52,"Velocity":43,"Duration":70093,"SoundDuration":70093,"Delta":215104744},{"NoteNumber":39,"Velocity":30,"Duration":70093,"SoundDuration":70093,"Delta":215244931},{"NoteNumber":51,"Velocity":36,"Duration":70093,"SoundDuration":70093,"Delta":215244931},{"NoteNumber":57,"Velocity":44,"Duration":67452,"SoundDuration":67452,"Delta":215385118},{"NoteNumber":59,"Velocity":52,"Duration":67452,"SoundDuration":67452,"Delta":215385118},{"NoteNumber":37,"Velocity":30,"Duration":67452,"SoundDuration":67452,"Delta":215385118},{"NoteNumber":49,"Velocity":36,"Duration":67452,"SoundDuration":67452,"Delta":215385118},{"NoteNumber":59,"Velocity":52,"Duration":74716,"SoundDuration":74716,"Delta":215520022},{"NoteNumber":57,"Velocity":44,"Duration":74716,"SoundDuration":74716,"Delta":215520022},{"NoteNumber":35,"Velocity":30,"Duration":74716,"SoundDuration":74716,"Delta":215520022},{"NoteNumber":47,"Velocity":36,"Duration":74716,"SoundDuration":74716,"Delta":215520022},{"NoteNumber":57,"Velocity":45,"Duration":139534,"SoundDuration":139534,"Delta":215669454},{"NoteNumber":59,"Velocity":54,"Duration":139534,"SoundDuration":139534,"Delta":215669454},{"NoteNumber":40,"Velocity":36,"Duration":69767,"SoundDuration":69767,"Delta":215669454},{"NoteNumber":52,"Velocity":43,"Duration":69767,"SoundDuration":69767,"Delta":215669454},{"NoteNumber":39,"Velocity":32,"Duration":69767,"SoundDuration":69767,"Delta":215808989},{"NoteNumber":51,"Velocity":40,"Duration":69767,"SoundDuration":69767,"Delta":215808989},{"NoteNumber":57,"Velocity":45,"Duration":287317,"SoundDuration":287317,"Delta":215948524},{"NoteNumber":59,"Velocity":45,"Duration":287317,"SoundDuration":287317,"Delta":215948524},{"NoteNumber":66,"Velocity":54,"Duration":287317,"SoundDuration":287317,"Delta":215948524},{"NoteNumber":37,"Velocity":30,"Duration":69767,"SoundDuration":69767,"Delta":215948524},{"NoteNumber":49,"Velocity":37,"Duration":69767,"SoundDuration":69767,"Delta":215948524},{"NoteNumber":35,"Velocity":30,"Duration":73066,"SoundDuration":73066,"Delta":216088059},{"NoteNumber":47,"Velocity":37,"Duration":73066,"SoundDuration":73066,"Delta":216088059},{"NoteNumber":57,"Velocity":45,"Duration":69380,"SoundDuration":69380,"Delta":216235842},{"NoteNumber":59,"Velocity":45,"Duration":69380,"SoundDuration":69380,"Delta":216235842},{"NoteNumber":68,"Velocity":53,"Duration":69380,"SoundDuration":69380,"Delta":216235842},{"NoteNumber":40,"Velocity":37,"Duration":69380,"SoundDuration":69380,"Delta":216235842},{"NoteNumber":52,"Velocity":44,"Duration":69380,"SoundDuration":69380,"Delta":216235842},{"NoteNumber":57,"Velocity":44,"Duration":70159,"SoundDuration":70159,"Delta":216374826},{"NoteNumber":59,"Velocity":44,"Duration":70159,"SoundDuration":70159,"Delta":216374826},{"NoteNumber":66,"Velocity":52,"Duration":70159,"SoundDuration":70159,"Delta":216374826},{"NoteNumber":39,"Velocity":30,"Duration":70159,"SoundDuration":70159,"Delta":216374826},{"NoteNumber":51,"Velocity":36,"Duration":70159,"SoundDuration":70159,"Delta":216374826},{"NoteNumber":57,"Velocity":43,"Duration":70955,"SoundDuration":70955,"Delta":216515483},{"NoteNumber":59,"Velocity":43,"Duration":70955,"SoundDuration":70955,"Delta":216515483},{"NoteNumber":64,"Velocity":51,"Duration":70955,"SoundDuration":70955,"Delta":216515483},{"NoteNumber":37,"Velocity":30,"Duration":70955,"SoundDuration":70955,"Delta":216515483},{"NoteNumber":49,"Velocity":36,"Duration":70955,"SoundDuration":70955,"Delta":216515483},{"NoteNumber":63,"Velocity":41,"Duration":74338,"SoundDuration":74338,"Delta":216657977},{"NoteNumber":57,"Velocity":41,"Duration":74338,"SoundDuration":74338,"Delta":216657977},{"NoteNumber":59,"Velocity":41,"Duration":74338,"SoundDuration":74338,"Delta":216657977},{"NoteNumber":66,"Velocity":50,"Duration":74338,"SoundDuration":74338,"Delta":216657977},{"NoteNumber":35,"Velocity":30,"Duration":74338,"SoundDuration":74338,"Delta":216657977},{"NoteNumber":47,"Velocity":36,"Duration":74338,"SoundDuration":74338,"Delta":216657977},{"NoteNumber":56,"Velocity":53,"Duration":414607,"SoundDuration":414607,"Delta":216806654},{"NoteNumber":64,"Velocity":45,"Duration":988811,"SoundDuration":988811,"Delta":216806654},{"NoteNumber":68,"Velocity":53,"Duration":988811,"SoundDuration":988811,"Delta":216806654},{"NoteNumber":40,"Velocity":37,"Duration":69767,"SoundDuration":69767,"Delta":216806654},{"NoteNumber":52,"Velocity":44,"Duration":69767,"SoundDuration":69767,"Delta":216806654},{"NoteNumber":39,"Velocity":29,"Duration":69767,"SoundDuration":69767,"Delta":216946189},{"NoteNumber":51,"Velocity":36,"Duration":69767,"SoundDuration":69767,"Delta":216946189},{"NoteNumber":37,"Velocity":30,"Duration":67768,"SoundDuration":67768,"Delta":217085724},{"NoteNumber":49,"Velocity":36,"Duration":67768,"SoundDuration":67768,"Delta":217085724},{"NoteNumber":61,"Velocity":51,"Duration":149432,"SoundDuration":149432,"Delta":217221262},{"NoteNumber":35,"Velocity":30,"Duration":74716,"SoundDuration":74716,"Delta":217221262},{"NoteNumber":47,"Velocity":36,"Duration":74716,"SoundDuration":74716,"Delta":217221262},{"NoteNumber":59,"Velocity":54,"Duration":1141369,"SoundDuration":1141369,"Delta":217370694},{"NoteNumber":40,"Velocity":38,"Duration":69767,"SoundDuration":69767,"Delta":217370694},{"NoteNumber":52,"Velocity":44,"Duration":69767,"SoundDuration":69767,"Delta":217370694},{"NoteNumber":39,"Velocity":34,"Duration":69767,"SoundDuration":69767,"Delta":217510229},{"NoteNumber":51,"Velocity":41,"Duration":69767,"SoundDuration":69767,"Delta":217510229},{"NoteNumber":37,"Velocity":31,"Duration":72850,"SoundDuration":72850,"Delta":217649764},{"NoteNumber":49,"Velocity":38,"Duration":72850,"SoundDuration":72850,"Delta":217649764},{"NoteNumber":68,"Velocity":43,"Duration":133829,"SoundDuration":133829,"Delta":217795466},{"NoteNumber":71,"Velocity":52,"Duration":133829,"SoundDuration":133829,"Delta":217795466},{"NoteNumber":35,"Velocity":31,"Duration":74716,"SoundDuration":74716,"Delta":217795466},{"NoteNumber":47,"Velocity":38,"Duration":74716,"SoundDuration":74716,"Delta":217795466},{"NoteNumber":68,"Velocity":43,"Duration":568815,"SoundDuration":568815,"Delta":217943249},{"NoteNumber":71,"Velocity":52,"Duration":568815,"SoundDuration":568815,"Delta":217943249},{"NoteNumber":40,"Velocity":38,"Duration":69767,"SoundDuration":69767,"Delta":217943249},{"NoteNumber":52,"Velocity":44,"Duration":69767,"SoundDuration":69767,"Delta":217943249},{"NoteNumber":39,"Velocity":31,"Duration":69767,"SoundDuration":69767,"Delta":218082784},{"NoteNumber":51,"Velocity":37,"Duration":69767,"SoundDuration":69767,"Delta":218082784},{"NoteNumber":37,"Velocity":31,"Duration":69767,"SoundDuration":69767,"Delta":218222319},{"NoteNumber":49,"Velocity":38,"Duration":69767,"SoundDuration":69767,"Delta":218222319},{"NoteNumber":35,"Velocity":31,"Duration":75105,"SoundDuration":75105,"Delta":218361854},{"NoteNumber":47,"Velocity":38,"Duration":75105,"SoundDuration":75105,"Delta":218361854},{"NoteNumber":56,"Velocity":45,"Duration":846351,"SoundDuration":846351,"Delta":218512064},{"NoteNumber":59,"Velocity":53,"Duration":846351,"SoundDuration":846351,"Delta":218512064},{"NoteNumber":40,"Velocity":37,"Duration":69767,"SoundDuration":69767,"Delta":218512064},{"NoteNumber":52,"Velocity":44,"Duration":69767,"SoundDuration":69767,"Delta":218512064},{"NoteNumber":39,"Velocity":31,"Duration":69767,"SoundDuration":69767,"Delta":218651599},{"NoteNumber":51,"Velocity":37,"Duration":69767,"SoundDuration":69767,"Delta":218651599},{"NoteNumber":37,"Velocity":31,"Duration":69767,"SoundDuration":69767,"Delta":218791134},{"NoteNumber":49,"Velocity":37,"Duration":69767,"SoundDuration":69767,"Delta":218791134},{"NoteNumber":35,"Velocity":31,"Duration":74338,"SoundDuration":74338,"Delta":218930669},{"NoteNumber":47,"Velocity":38,"Duration":74338,"SoundDuration":74338,"Delta":218930669},{"NoteNumber":40,"Velocity":38,"Duration":69767,"SoundDuration":69767,"Delta":219079346},{"NoteNumber":52,"Velocity":45,"Duration":69767,"SoundDuration":69767,"Delta":219079346},{"NoteNumber":39,"Velocity":36,"Duration":69767,"SoundDuration":69767,"Delta":219218881},{"NoteNumber":51,"Velocity":42,"Duration":69767,"SoundDuration":69767,"Delta":219218881},{"NoteNumber":55,"Velocity":45,"Duration":72129,"SoundDuration":72129,"Delta":219358416},{"NoteNumber":59,"Velocity":54,"Duration":72129,"SoundDuration":72129,"Delta":219358416},{"NoteNumber":37,"Velocity":31,"Duration":72129,"SoundDuration":72129,"Delta":219358416},{"NoteNumber":49,"Velocity":38,"Duration":72129,"SoundDuration":72129,"Delta":219358416},{"NoteNumber":56,"Velocity":46,"Duration":74716,"SoundDuration":74716,"Delta":219502674},{"NoteNumber":59,"Velocity":54,"Duration":74716,"SoundDuration":74716,"Delta":219502674},{"NoteNumber":35,"Velocity":31,"Duration":74716,"SoundDuration":74716,"Delta":219502674},{"NoteNumber":47,"Velocity":39,"Duration":74716,"SoundDuration":74716,"Delta":219502674},{"NoteNumber":57,"Velocity":48,"Duration":141456,"SoundDuration":141456,"Delta":219652107},{"NoteNumber":59,"Velocity":57,"Duration":141456,"SoundDuration":141456,"Delta":219652107},{"NoteNumber":40,"Velocity":40,"Duration":70728,"SoundDuration":70728,"Delta":219652107},{"NoteNumber":52,"Velocity":48,"Duration":70728,"SoundDuration":70728,"Delta":219652107},{"NoteNumber":39,"Velocity":33,"Duration":70728,"SoundDuration":70728,"Delta":219793563},{"NoteNumber":51,"Velocity":40,"Duration":70728,"SoundDuration":70728,"Delta":219793563},{"NoteNumber":57,"Velocity":47,"Duration":70728,"SoundDuration":70728,"Delta":219935019},{"NoteNumber":61,"Velocity":55,"Duration":70728,"SoundDuration":70728,"Delta":219935019},{"NoteNumber":37,"Velocity":33,"Duration":70728,"SoundDuration":70728,"Delta":219935019},{"NoteNumber":49,"Velocity":41,"Duration":70728,"SoundDuration":70728,"Delta":219935019},{"NoteNumber":57,"Velocity":48,"Duration":74338,"SoundDuration":74338,"Delta":220076475},{"NoteNumber":63,"Velocity":57,"Duration":74338,"SoundDuration":74338,"Delta":220076475},{"NoteNumber":35,"Velocity":34,"Duration":74338,"SoundDuration":74338,"Delta":220076475},{"NoteNumber":47,"Velocity":42,"Duration":74338,"SoundDuration":74338,"Delta":220076475},{"NoteNumber":56,"Velocity":51,"Duration":420362,"SoundDuration":420362,"Delta":220225151},{"NoteNumber":64,"Velocity":61,"Duration":420362,"SoundDuration":420362,"Delta":220225151},{"NoteNumber":40,"Velocity":43,"Duration":70728,"SoundDuration":70728,"Delta":220225151},{"NoteNumber":52,"Velocity":51,"Duration":70728,"SoundDuration":70728,"Delta":220225151},{"NoteNumber":39,"Velocity":34,"Duration":70728,"SoundDuration":70728,"Delta":220366607},{"NoteNumber":51,"Velocity":43,"Duration":70728,"SoundDuration":70728,"Delta":220366607},{"NoteNumber":37,"Velocity":35,"Duration":68725,"SoundDuration":68725,"Delta":220508063},{"NoteNumber":49,"Velocity":43,"Duration":68725,"SoundDuration":68725,"Delta":220508063},{"NoteNumber":56,"Velocity":49,"Duration":133809,"SoundDuration":133809,"Delta":220645514},{"NoteNumber":59,"Velocity":49,"Duration":133809,"SoundDuration":133809,"Delta":220645514},{"NoteNumber":35,"Velocity":37,"Duration":74338,"SoundDuration":74338,"Delta":220645514},{"NoteNumber":47,"Velocity":43,"Duration":74338,"SoundDuration":74338,"Delta":220645514},{"NoteNumber":56,"Velocity":51,"Duration":569237,"SoundDuration":569237,"Delta":220794191},{"NoteNumber":59,"Velocity":51,"Duration":569237,"SoundDuration":569237,"Delta":220794191},{"NoteNumber":68,"Velocity":61,"Duration":569237,"SoundDuration":569237,"Delta":220794191},{"NoteNumber":40,"Velocity":44,"Duration":70093,"SoundDuration":70093,"Delta":220794191},{"NoteNumber":52,"Velocity":53,"Duration":70093,"SoundDuration":70093,"Delta":220794191},{"NoteNumber":39,"Velocity":41,"Duration":70093,"SoundDuration":70093,"Delta":220934378},{"NoteNumber":51,"Velocity":49,"Duration":70093,"SoundDuration":70093,"Delta":220934378},{"NoteNumber":37,"Velocity":38,"Duration":70093,"SoundDuration":70093,"Delta":221074565},{"NoteNumber":49,"Velocity":46,"Duration":70093,"SoundDuration":70093,"Delta":221074565},{"NoteNumber":35,"Velocity":38,"Duration":74338,"SoundDuration":74338,"Delta":221214752},{"NoteNumber":47,"Velocity":46,"Duration":74338,"SoundDuration":74338,"Delta":221214752},{"NoteNumber":57,"Velocity":53,"Duration":567281,"SoundDuration":567281,"Delta":221363429},{"NoteNumber":59,"Velocity":53,"Duration":567281,"SoundDuration":567281,"Delta":221363429},{"NoteNumber":66,"Velocity":63,"Duration":567281,"SoundDuration":567281,"Delta":221363429},{"NoteNumber":40,"Velocity":47,"Duration":69767,"SoundDuration":69767,"Delta":221363429},{"NoteNumber":52,"Velocity":57,"Duration":69767,"SoundDuration":69767,"Delta":221363429},{"NoteNumber":39,"Velocity":38,"Duration":69767,"SoundDuration":69767,"Delta":221502964},{"NoteNumber":51,"Velocity":46,"Duration":69767,"SoundDuration":69767,"Delta":221502964},{"NoteNumber":37,"Velocity":40,"Duration":69767,"SoundDuration":69767,"Delta":221642499},{"NoteNumber":49,"Velocity":47,"Duration":69767,"SoundDuration":69767,"Delta":221642499},{"NoteNumber":35,"Velocity":40,"Duration":74338,"SoundDuration":74338,"Delta":221782034},{"NoteNumber":47,"Velocity":48,"Duration":74338,"SoundDuration":74338,"Delta":221782034},{"NoteNumber":56,"Velocity":57,"Duration":426452,"SoundDuration":426452,"Delta":221930710},{"NoteNumber":59,"Velocity":67,"Duration":426452,"SoundDuration":426452,"Delta":221930710},{"NoteNumber":40,"Velocity":51,"Duration":70728,"SoundDuration":70728,"Delta":221930710},{"NoteNumber":52,"Velocity":59,"Duration":70728,"SoundDuration":70728,"Delta":221930710},{"NoteNumber":39,"Velocity":41,"Duration":70728,"SoundDuration":70728,"Delta":222072166},{"NoteNumber":51,"Velocity":50,"Duration":70728,"SoundDuration":70728,"Delta":222072166},{"NoteNumber":37,"Velocity":41,"Duration":71770,"SoundDuration":71770,"Delta":222213622},{"NoteNumber":49,"Velocity":50,"Duration":71770,"SoundDuration":71770,"Delta":222213622},{"NoteNumber":56,"Velocity":60,"Duration":133809,"SoundDuration":133809,"Delta":222357163},{"NoteNumber":64,"Velocity":71,"Duration":133809,"SoundDuration":133809,"Delta":222357163},{"NoteNumber":35,"Velocity":42,"Duration":74338,"SoundDuration":74338,"Delta":222357163},{"NoteNumber":47,"Velocity":51,"Duration":74338,"SoundDuration":74338,"Delta":222357163},{"NoteNumber":56,"Velocity":61,"Duration":277778,"SoundDuration":277778,"Delta":222505840},{"NoteNumber":59,"Velocity":61,"Duration":277778,"SoundDuration":277778,"Delta":222505840},{"NoteNumber":68,"Velocity":72,"Duration":277778,"SoundDuration":277778,"Delta":222505840},{"NoteNumber":40,"Velocity":52,"Duration":69444,"SoundDuration":69444,"Delta":222505840},{"NoteNumber":52,"Velocity":61,"Duration":69444,"SoundDuration":69444,"Delta":222505840},{"NoteNumber":39,"Velocity":48,"Duration":69444,"SoundDuration":69444,"Delta":222644729},{"NoteNumber":51,"Velocity":58,"Duration":69444,"SoundDuration":69444,"Delta":222644729},{"NoteNumber":37,"Velocity":44,"Duration":69444,"SoundDuration":69444,"Delta":222783618},{"NoteNumber":49,"Velocity":55,"Duration":69444,"SoundDuration":69444,"Delta":222783618},{"NoteNumber":57,"Velocity":58,"Duration":148676,"SoundDuration":148676,"Delta":222922507},{"NoteNumber":63,"Velocity":70,"Duration":148676,"SoundDuration":148676,"Delta":222922507},{"NoteNumber":35,"Velocity":45,"Duration":74338,"SoundDuration":74338,"Delta":222922507},{"NoteNumber":47,"Velocity":56,"Duration":74338,"SoundDuration":74338,"Delta":222922507},{"NoteNumber":56,"Velocity":61,"Duration":281689,"SoundDuration":281689,"Delta":223071184},{"NoteNumber":64,"Velocity":73,"Duration":281689,"SoundDuration":281689,"Delta":223071184},{"NoteNumber":40,"Velocity":56,"Duration":70422,"SoundDuration":70422,"Delta":223071184},{"NoteNumber":52,"Velocity":66,"Duration":70422,"SoundDuration":70422,"Delta":223071184},{"NoteNumber":39,"Velocity":45,"Duration":70422,"SoundDuration":70422,"Delta":223212029},{"NoteNumber":51,"Velocity":53,"Duration":70422,"SoundDuration":70422,"Delta":223212029},{"NoteNumber":56,"Velocity":63,"Duration":288019,"SoundDuration":288019,"Delta":223352874},{"NoteNumber":64,"Velocity":63,"Duration":288019,"SoundDuration":288019,"Delta":223352874},{"NoteNumber":68,"Velocity":76,"Duration":288019,"SoundDuration":288019,"Delta":223352874},{"NoteNumber":37,"Velocity":46,"Duration":70422,"SoundDuration":70422,"Delta":223352874},{"NoteNumber":49,"Velocity":54,"Duration":70422,"SoundDuration":70422,"Delta":223352874},{"NoteNumber":35,"Velocity":47,"Duration":73587,"SoundDuration":73587,"Delta":223493719},{"NoteNumber":47,"Velocity":57,"Duration":73587,"SoundDuration":73587,"Delta":223493719},{"NoteNumber":59,"Velocity":66,"Duration":565343,"SoundDuration":565343,"Delta":223640893},{"NoteNumber":68,"Velocity":66,"Duration":565343,"SoundDuration":565343,"Delta":223640893},{"NoteNumber":71,"Velocity":78,"Duration":565343,"SoundDuration":565343,"Delta":223640893},{"NoteNumber":40,"Velocity":58,"Duration":69444,"SoundDuration":69444,"Delta":223640893},{"NoteNumber":52,"Velocity":69,"Duration":69444,"SoundDuration":69444,"Delta":223640893},{"NoteNumber":39,"Velocity":47,"Duration":69444,"SoundDuration":69444,"Delta":223779782},{"NoteNumber":51,"Velocity":57,"Duration":69444,"SoundDuration":69444,"Delta":223779782},{"NoteNumber":37,"Velocity":47,"Duration":69444,"SoundDuration":69444,"Delta":223918671},{"NoteNumber":49,"Velocity":57,"Duration":69444,"SoundDuration":69444,"Delta":223918671},{"NoteNumber":35,"Velocity":48,"Duration":74338,"SoundDuration":74338,"Delta":224057560},{"NoteNumber":47,"Velocity":58,"Duration":74338,"SoundDuration":74338,"Delta":224057560},{"NoteNumber":61,"Velocity":61,"Duration":138889,"SoundDuration":138889,"Delta":224206237},{"NoteNumber":68,"Velocity":61,"Duration":138889,"SoundDuration":138889,"Delta":224206237},{"NoteNumber":73,"Velocity":72,"Duration":138889,"SoundDuration":138889,"Delta":224206237},{"NoteNumber":40,"Velocity":62,"Duration":69444,"SoundDuration":69444,"Delta":224206237},{"NoteNumber":52,"Velocity":73,"Duration":69444,"SoundDuration":69444,"Delta":224206237},{"NoteNumber":63,"Velocity":64,"Duration":138889,"SoundDuration":138889,"Delta":224345126},{"NoteNumber":68,"Velocity":64,"Duration":138889,"SoundDuration":138889,"Delta":224345126},{"NoteNumber":75,"Velocity":75,"Duration":138889,"SoundDuration":138889,"Delta":224345126},{"NoteNumber":39,"Velocity":56,"Duration":69444,"SoundDuration":69444,"Delta":224345126},{"NoteNumber":51,"Velocity":67,"Duration":69444,"SoundDuration":69444,"Delta":224345126},{"NoteNumber":64,"Velocity":64,"Duration":138888,"SoundDuration":138888,"Delta":224484015},{"NoteNumber":68,"Velocity":64,"Duration":138888,"SoundDuration":138888,"Delta":224484015},{"NoteNumber":76,"Velocity":77,"Duration":138888,"SoundDuration":138888,"Delta":224484015},{"NoteNumber":37,"Velocity":52,"Duration":69444,"SoundDuration":69444,"Delta":224484015},{"NoteNumber":49,"Velocity":63,"Duration":69444,"SoundDuration":69444,"Delta":224484015},{"NoteNumber":66,"Velocity":67,"Duration":148676,"SoundDuration":148676,"Delta":224622904},{"NoteNumber":71,"Velocity":67,"Duration":148676,"SoundDuration":148676,"Delta":224622904},{"NoteNumber":78,"Velocity":81,"Duration":148676,"SoundDuration":148676,"Delta":224622904},{"NoteNumber":35,"Velocity":52,"Duration":74338,"SoundDuration":74338,"Delta":224622904},{"NoteNumber":47,"Velocity":63,"Duration":74338,"SoundDuration":74338,"Delta":224622904},{"NoteNumber":71,"Velocity":85,"Duration":423328,"SoundDuration":423328,"Delta":224771580},{"NoteNumber":68,"Velocity":71,"Duration":571243,"SoundDuration":571243,"Delta":224771580},{"NoteNumber":76,"Velocity":71,"Duration":571243,"SoundDuration":571243,"Delta":224771580},{"NoteNumber":80,"Velocity":85,"Duration":571243,"SoundDuration":571243,"Delta":224771580},{"NoteNumber":40,"Velocity":64,"Duration":69767,"SoundDuration":69767,"Delta":224771580},{"NoteNumber":52,"Velocity":77,"Duration":69767,"SoundDuration":69767,"Delta":224771580},{"NoteNumber":39,"Velocity":53,"Duration":69767,"SoundDuration":69767,"Delta":224911115},{"NoteNumber":51,"Velocity":63,"Duration":69767,"SoundDuration":69767,"Delta":224911115},{"NoteNumber":40,"Velocity":54,"Duration":72129,"SoundDuration":72129,"Delta":225050650},{"NoteNumber":52,"Velocity":64,"Duration":72129,"SoundDuration":72129,"Delta":225050650},{"NoteNumber":70,"Velocity":81,"Duration":1019404,"SoundDuration":1019404,"Delta":225194909},{"NoteNumber":38,"Velocity":55,"Duration":73957,"SoundDuration":73957,"Delta":225194909},{"NoteNumber":50,"Velocity":65,"Duration":73957,"SoundDuration":73957,"Delta":225194909},{"NoteNumber":67,"Velocity":74,"Duration":871490,"SoundDuration":871490,"Delta":225342823},{"NoteNumber":75,"Velocity":74,"Duration":871490,"SoundDuration":871490,"Delta":225342823},{"NoteNumber":79,"Velocity":88,"Duration":871490,"SoundDuration":871490,"Delta":225342823},{"NoteNumber":39,"Velocity":66,"Duration":73957,"SoundDuration":73957,"Delta":225342823},{"NoteNumber":51,"Velocity":77,"Duration":73957,"SoundDuration":73957,"Delta":225342823},{"NoteNumber":38,"Velocity":54,"Duration":73957,"SoundDuration":73957,"Delta":225490738},{"NoteNumber":50,"Velocity":65,"Duration":73957,"SoundDuration":73957,"Delta":225490738},{"NoteNumber":36,"Velocity":54,"Duration":73957,"SoundDuration":73957,"Delta":225638652},{"NoteNumber":48,"Velocity":65,"Duration":73957,"SoundDuration":73957,"Delta":225638652},{"NoteNumber":34,"Velocity":54,"Duration":74338,"SoundDuration":74338,"Delta":225786567},{"NoteNumber":46,"Velocity":65,"Duration":74338,"SoundDuration":74338,"Delta":225786567},{"NoteNumber":39,"Velocity":67,"Duration":69767,"SoundDuration":69767,"Delta":225935244},{"NoteNumber":51,"Velocity":79,"Duration":69767,"SoundDuration":69767,"Delta":225935244},{"NoteNumber":38,"Velocity":62,"Duration":69767,"SoundDuration":69767,"Delta":226074779},{"NoteNumber":50,"Velocity":75,"Duration":69767,"SoundDuration":69767,"Delta":226074779},{"NoteNumber":58,"Velocity":72,"Duration":288211,"SoundDuration":288211,"Delta":226214314},{"NoteNumber":67,"Velocity":72,"Duration":288211,"SoundDuration":288211,"Delta":226214314},{"NoteNumber":70,"Velocity":86,"Duration":567073,"SoundDuration":567073,"Delta":226214314},{"NoteNumber":36,"Velocity":58,"Duration":69767,"SoundDuration":69767,"Delta":226214314},{"NoteNumber":48,"Velocity":69,"Duration":69767,"SoundDuration":69767,"Delta":226214314},{"NoteNumber":34,"Velocity":58,"Duration":74338,"SoundDuration":74338,"Delta":226353849},{"NoteNumber":46,"Velocity":69,"Duration":74338,"SoundDuration":74338,"Delta":226353849},{"NoteNumber":63,"Velocity":76,"Duration":278862,"SoundDuration":278862,"Delta":226502525},{"NoteNumber":67,"Velocity":76,"Duration":278862,"SoundDuration":278862,"Delta":226502525},{"NoteNumber":75,"Velocity":90,"Duration":566207,"SoundDuration":566207,"Delta":226502525},{"NoteNumber":39,"Velocity":69,"Duration":69715,"SoundDuration":69715,"Delta":226502525},{"NoteNumber":51,"Velocity":84,"Duration":69715,"SoundDuration":69715,"Delta":226502525},{"NoteNumber":38,"Velocity":58,"Duration":69715,"SoundDuration":69715,"Delta":226641956},{"NoteNumber":50,"Velocity":68,"Duration":69715,"SoundDuration":69715,"Delta":226641956},{"NoteNumber":67,"Velocity":81,"Duration":287345,"SoundDuration":287345,"Delta":226781387},{"NoteNumber":70,"Velocity":81,"Duration":287345,"SoundDuration":287345,"Delta":226781387},{"NoteNumber":79,"Velocity":96,"Duration":287345,"SoundDuration":287345,"Delta":226781387},{"NoteNumber":36,"Velocity":59,"Duration":69715,"SoundDuration":69715,"Delta":226781387},{"NoteNumber":48,"Velocity":70,"Duration":69715,"SoundDuration":69715,"Delta":226781387},{"NoteNumber":34,"Velocity":61,"Duration":73957,"SoundDuration":73957,"Delta":226920818},{"NoteNumber":46,"Velocity":71,"Duration":73957,"SoundDuration":73957,"Delta":226920818},{"NoteNumber":70,"Velocity":85,"Duration":420362,"SoundDuration":420362,"Delta":227068733},{"NoteNumber":79,"Velocity":85,"Duration":420362,"SoundDuration":420362,"Delta":227068733},{"NoteNumber":82,"Velocity":101,"Duration":420362,"SoundDuration":420362,"Delta":227068733},{"NoteNumber":39,"Velocity":71,"Duration":70728,"SoundDuration":70728,"Delta":227068733},{"NoteNumber":51,"Velocity":82,"Duration":70728,"SoundDuration":70728,"Delta":227068733},{"NoteNumber":38,"Velocity":57,"Duration":70728,"SoundDuration":70728,"Delta":227210189},{"NoteNumber":50,"Velocity":68,"Duration":70728,"SoundDuration":70728,"Delta":227210189},{"NoteNumber":36,"Velocity":58,"Duration":68725,"SoundDuration":68725,"Delta":227351645},{"NoteNumber":48,"Velocity":69,"Duration":68725,"SoundDuration":68725,"Delta":227351645},{"NoteNumber":75,"Velocity":83,"Duration":148676,"SoundDuration":148676,"Delta":227489096},{"NoteNumber":79,"Velocity":83,"Duration":148676,"SoundDuration":148676,"Delta":227489096},{"NoteNumber":87,"Velocity":99,"Duration":995028,"SoundDuration":995028,"Delta":227489096},{"NoteNumber":34,"Velocity":58,"Duration":74338,"SoundDuration":74338,"Delta":227489096},{"NoteNumber":46,"Velocity":69,"Duration":74338,"SoundDuration":74338,"Delta":227489096},{"NoteNumber":75,"Velocity":84,"Duration":418605,"SoundDuration":418605,"Delta":227637772},{"NoteNumber":79,"Velocity":100,"Duration":418605,"SoundDuration":418605,"Delta":227637772},{"NoteNumber":39,"Velocity":72,"Duration":69767,"SoundDuration":69767,"Delta":227637772},{"NoteNumber":51,"Velocity":85,"Duration":69767,"SoundDuration":69767,"Delta":227637772},{"NoteNumber":38,"Velocity":64,"Duration":69767,"SoundDuration":69767,"Delta":227777307},{"NoteNumber":50,"Velocity":78,"Duration":69767,"SoundDuration":69767,"Delta":227777307},{"NoteNumber":36,"Velocity":60,"Duration":69767,"SoundDuration":69767,"Delta":227916842},{"NoteNumber":48,"Velocity":73,"Duration":69767,"SoundDuration":69767,"Delta":227916842},{"NoteNumber":75,"Velocity":81,"Duration":148676,"SoundDuration":148676,"Delta":228056377},{"NoteNumber":67,"Velocity":81,"Duration":148676,"SoundDuration":148676,"Delta":228056377},{"NoteNumber":79,"Velocity":96,"Duration":427746,"SoundDuration":427746,"Delta":228056377},{"NoteNumber":34,"Velocity":60,"Duration":74338,"SoundDuration":74338,"Delta":228056377},{"NoteNumber":46,"Velocity":73,"Duration":74338,"SoundDuration":74338,"Delta":228056377},{"NoteNumber":67,"Velocity":81,"Duration":279069,"SoundDuration":279069,"Delta":228205054},{"NoteNumber":75,"Velocity":81,"Duration":279069,"SoundDuration":279069,"Delta":228205054},{"NoteNumber":39,"Velocity":73,"Duration":69767,"SoundDuration":69767,"Delta":228205054},{"NoteNumber":51,"Velocity":87,"Duration":69767,"SoundDuration":69767,"Delta":228205054},{"NoteNumber":38,"Velocity":60,"Duration":69767,"SoundDuration":69767,"Delta":228344589},{"NoteNumber":50,"Velocity":72,"Duration":69767,"SoundDuration":69767,"Delta":228344589},{"NoteNumber":72,"Velocity":78,"Duration":139535,"SoundDuration":139535,"Delta":228484124},{"NoteNumber":84,"Velocity":92,"Duration":139535,"SoundDuration":139535,"Delta":228484124},{"NoteNumber":79,"Velocity":78,"Duration":139535,"SoundDuration":139535,"Delta":228484124},{"NoteNumber":36,"Velocity":60,"Duration":69767,"SoundDuration":69767,"Delta":228484124},{"NoteNumber":48,"Velocity":72,"Duration":69767,"SoundDuration":69767,"Delta":228484124},{"NoteNumber":34,"Velocity":62,"Duration":73957,"SoundDuration":73957,"Delta":228623659},{"NoteNumber":46,"Velocity":74,"Duration":73957,"SoundDuration":73957,"Delta":228623659},{"NoteNumber":70,"Velocity":85,"Duration":567281,"SoundDuration":567281,"Delta":228771574},{"NoteNumber":79,"Velocity":85,"Duration":567281,"SoundDuration":567281,"Delta":228771574},{"NoteNumber":82,"Velocity":102,"Duration":567281,"SoundDuration":567281,"Delta":228771574},{"NoteNumber":39,"Velocity":73,"Duration":69767,"SoundDuration":69767,"Delta":228771574},{"NoteNumber":51,"Velocity":84,"Duration":69767,"SoundDuration":69767,"Delta":228771574},{"NoteNumber":38,"Velocity":59,"Duration":69767,"SoundDuration":69767,"Delta":228911109},{"NoteNumber":50,"Velocity":70,"Duration":69767,"SoundDuration":69767,"Delta":228911109},{"NoteNumber":36,"Velocity":59,"Duration":69767,"SoundDuration":69767,"Delta":229050644},{"NoteNumber":48,"Velocity":70,"Duration":69767,"SoundDuration":69767,"Delta":229050644},{"NoteNumber":34,"Velocity":59,"Duration":74338,"SoundDuration":74338,"Delta":229190179},{"NoteNumber":46,"Velocity":71,"Duration":74338,"SoundDuration":74338,"Delta":229190179},{"NoteNumber":39,"Velocity":74,"Duration":70728,"SoundDuration":70728,"Delta":229338855},{"NoteNumber":51,"Velocity":87,"Duration":70728,"SoundDuration":70728,"Delta":229338855},{"NoteNumber":38,"Velocity":66,"Duration":70728,"SoundDuration":70728,"Delta":229480311},{"NoteNumber":50,"Velocity":80,"Duration":70728,"SoundDuration":70728,"Delta":229480311},{"NoteNumber":58,"Velocity":83,"Duration":69392,"SoundDuration":69392,"Delta":229621767},{"NoteNumber":70,"Velocity":98,"Duration":69392,"SoundDuration":69392,"Delta":229621767},{"NoteNumber":36,"Velocity":62,"Duration":69392,"SoundDuration":69392,"Delta":229621767},{"NoteNumber":48,"Velocity":74,"Duration":69392,"SoundDuration":69392,"Delta":229621767},{"NoteNumber":58,"Velocity":83,"Duration":74338,"SoundDuration":74338,"Delta":229759886},{"NoteNumber":70,"Velocity":98,"Duration":74338,"SoundDuration":74338,"Delta":229759886},{"NoteNumber":34,"Velocity":62,"Duration":74338,"SoundDuration":74338,"Delta":229759886},{"NoteNumber":46,"Velocity":74,"Duration":74338,"SoundDuration":74338,"Delta":229759886},{"NoteNumber":58,"Velocity":89,"Duration":141456,"SoundDuration":141456,"Delta":229908562},{"NoteNumber":70,"Velocity":106,"Duration":141456,"SoundDuration":141456,"Delta":229908562},{"NoteNumber":68,"Velocity":89,"Duration":141456,"SoundDuration":141456,"Delta":229908562},{"NoteNumber":39,"Velocity":75,"Duration":70728,"SoundDuration":70728,"Delta":229908562},{"NoteNumber":51,"Velocity":89,"Duration":70728,"SoundDuration":70728,"Delta":229908562},{"NoteNumber":38,"Velocity":62,"Duration":70728,"SoundDuration":70728,"Delta":230050018},{"NoteNumber":50,"Velocity":74,"Duration":70728,"SoundDuration":70728,"Delta":230050018},{"NoteNumber":65,"Velocity":86,"Duration":141455,"SoundDuration":141455,"Delta":230191474},{"NoteNumber":68,"Velocity":86,"Duration":141455,"SoundDuration":141455,"Delta":230191474},{"NoteNumber":70,"Velocity":86,"Duration":141455,"SoundDuration":141455,"Delta":230191474},{"NoteNumber":77,"Velocity":101,"Duration":141455,"SoundDuration":141455,"Delta":230191474},{"NoteNumber":36,"Velocity":62,"Duration":70728,"SoundDuration":70728,"Delta":230191474},{"NoteNumber":48,"Velocity":74,"Duration":70728,"SoundDuration":70728,"Delta":230191474},{"NoteNumber":34,"Velocity":63,"Duration":73957,"SoundDuration":73957,"Delta":230332930},{"NoteNumber":46,"Velocity":75,"Duration":73957,"SoundDuration":73957,"Delta":230332930},{"NoteNumber":63,"Velocity":83,"Duration":148533,"SoundDuration":148533,"Delta":230480845},{"NoteNumber":67,"Velocity":94,"Duration":148533,"SoundDuration":148533,"Delta":230480845},{"NoteNumber":75,"Velocity":111,"Duration":148533,"SoundDuration":148533,"Delta":230480845},{"NoteNumber":39,"Velocity":64,"Duration":74641,"SoundDuration":74641,"Delta":230480845},{"NoteNumber":51,"Velocity":71,"Duration":74641,"SoundDuration":74641,"Delta":230480845},{"NoteNumber":63,"Velocity":67,"Duration":73891,"SoundDuration":73891,"Delta":230777162},{"NoteNumber":75,"Velocity":79,"Duration":73891,"SoundDuration":73891,"Delta":230777162},{"NoteNumber":39,"Velocity":54,"Duration":73891,"SoundDuration":73891,"Delta":230777162},{"NoteNumber":51,"Velocity":64,"Duration":73891,"SoundDuration":73891,"Delta":230777162},{"NoteNumber":63,"Velocity":63,"Duration":73891,"SoundDuration":73891,"Delta":230924945},{"NoteNumber":75,"Velocity":75,"Duration":73891,"SoundDuration":73891,"Delta":230924945},{"NoteNumber":39,"Velocity":49,"Duration":73891,"SoundDuration":73891,"Delta":230924945},{"NoteNumber":51,"Velocity":58,"Duration":73891,"SoundDuration":73891,"Delta":230924945},{"NoteNumber":63,"Velocity":68,"Duration":295566,"SoundDuration":295566,"Delta":231072728},{"NoteNumber":75,"Velocity":81,"Duration":295566,"SoundDuration":295566,"Delta":231072728},{"NoteNumber":40,"Velocity":53,"Duration":295566,"SoundDuration":295566,"Delta":231072728},{"NoteNumber":52,"Velocity":63,"Duration":295566,"SoundDuration":295566,"Delta":231072728},{"NoteNumber":63,"Velocity":66,"Duration":73891,"SoundDuration":73891,"Delta":231368295},{"NoteNumber":75,"Velocity":78,"Duration":73891,"SoundDuration":73891,"Delta":231368295},{"NoteNumber":40,"Velocity":51,"Duration":73891,"SoundDuration":73891,"Delta":231368295},{"NoteNumber":52,"Velocity":61,"Duration":73891,"SoundDuration":73891,"Delta":231368295},{"NoteNumber":63,"Velocity":62,"Duration":73891,"SoundDuration":73891,"Delta":231516078},{"NoteNumber":75,"Velocity":73,"Duration":73891,"SoundDuration":73891,"Delta":231516078},{"NoteNumber":40,"Velocity":50,"Duration":73891,"SoundDuration":73891,"Delta":231516078},{"NoteNumber":52,"Velocity":59,"Duration":73891,"SoundDuration":73891,"Delta":231516078},{"NoteNumber":63,"Velocity":67,"Duration":304113,"SoundDuration":304113,"Delta":231663861},{"NoteNumber":75,"Velocity":79,"Duration":304113,"SoundDuration":304113,"Delta":231663861},{"NoteNumber":41,"Velocity":55,"Duration":304113,"SoundDuration":304113,"Delta":231663861},{"NoteNumber":53,"Velocity":65,"Duration":304113,"SoundDuration":304113,"Delta":231663861},{"NoteNumber":63,"Velocity":62,"Duration":78399,"SoundDuration":78399,"Delta":231967974},{"NoteNumber":75,"Velocity":74,"Duration":78399,"SoundDuration":78399,"Delta":231967974},{"NoteNumber":41,"Velocity":52,"Duration":78399,"SoundDuration":78399,"Delta":231967974},{"NoteNumber":53,"Velocity":62,"Duration":78399,"SoundDuration":78399,"Delta":231967974},{"NoteNumber":63,"Velocity":60,"Duration":87719,"SoundDuration":87719,"Delta":232128525},{"NoteNumber":75,"Velocity":71,"Duration":87719,"SoundDuration":87719,"Delta":232128525},{"NoteNumber":41,"Velocity":51,"Duration":87719,"SoundDuration":87719,"Delta":232128525},{"NoteNumber":53,"Velocity":60,"Duration":87719,"SoundDuration":87719,"Delta":232128525},{"NoteNumber":61,"Velocity":51,"Duration":309278,"SoundDuration":309278,"Delta":232303963},{"NoteNumber":63,"Velocity":51,"Duration":309278,"SoundDuration":309278,"Delta":232303963},{"NoteNumber":75,"Velocity":81,"Duration":604845,"SoundDuration":604845,"Delta":232303963},{"NoteNumber":42,"Velocity":43,"Duration":309278,"SoundDuration":309278,"Delta":232303963},{"NoteNumber":54,"Velocity":51,"Duration":309278,"SoundDuration":309278,"Delta":232303963},{"NoteNumber":63,"Velocity":55,"Duration":73891,"SoundDuration":73891,"Delta":232613242},{"NoteNumber":61,"Velocity":51,"Duration":73891,"SoundDuration":73891,"Delta":232613242},{"NoteNumber":54,"Velocity":43,"Duration":73891,"SoundDuration":73891,"Delta":232613242},{"NoteNumber":63,"Velocity":54,"Duration":73891,"SoundDuration":73891,"Delta":232761025},{"NoteNumber":61,"Velocity":51,"Duration":73891,"SoundDuration":73891,"Delta":232761025},{"NoteNumber":54,"Velocity":43,"Duration":73891,"SoundDuration":73891,"Delta":232761025},{"NoteNumber":63,"Velocity":54,"Duration":295566,"SoundDuration":295566,"Delta":232908808},{"NoteNumber":70,"Velocity":71,"Duration":601688,"SoundDuration":601688,"Delta":232908808},{"NoteNumber":61,"Velocity":51,"Duration":295566,"SoundDuration":295566,"Delta":232908808},{"NoteNumber":54,"Velocity":43,"Duration":295566,"SoundDuration":295566,"Delta":232908808},{"NoteNumber":63,"Velocity":54,"Duration":76530,"SoundDuration":76530,"Delta":233204375},{"NoteNumber":54,"Velocity":43,"Duration":76530,"SoundDuration":76530,"Delta":233204375},{"NoteNumber":61,"Velocity":51,"Duration":76530,"SoundDuration":76530,"Delta":233204375},{"NoteNumber":63,"Velocity":53,"Duration":76530,"SoundDuration":76530,"Delta":233357436},{"NoteNumber":54,"Velocity":43,"Duration":76530,"SoundDuration":76530,"Delta":233357436},{"NoteNumber":61,"Velocity":51,"Duration":76530,"SoundDuration":76530,"Delta":233357436},{"NoteNumber":60,"Velocity":58,"Duration":303030,"SoundDuration":303030,"Delta":233510497},{"NoteNumber":66,"Velocity":58,"Duration":303030,"SoundDuration":303030,"Delta":233510497},{"NoteNumber":72,"Velocity":68,"Duration":303030,"SoundDuration":303030,"Delta":233510497},{"NoteNumber":44,"Velocity":40,"Duration":303030,"SoundDuration":303030,"Delta":233510497},{"NoteNumber":51,"Velocity":40,"Duration":303030,"SoundDuration":303030,"Delta":233510497},{"NoteNumber":56,"Velocity":48,"Duration":303030,"SoundDuration":303030,"Delta":233510497},{"NoteNumber":66,"Velocity":56,"Duration":147783,"SoundDuration":147783,"Delta":233813528},{"NoteNumber":77,"Velocity":66,"Duration":147783,"SoundDuration":147783,"Delta":233813528},{"NoteNumber":51,"Velocity":40,"Duration":73891,"SoundDuration":73891,"Delta":233813528},{"NoteNumber":56,"Velocity":40,"Duration":73891,"SoundDuration":73891,"Delta":233813528},{"NoteNumber":60,"Velocity":48,"Duration":73891,"SoundDuration":73891,"Delta":233813528},{"NoteNumber":66,"Velocity":54,"Duration":147783,"SoundDuration":147783,"Delta":233961311},{"NoteNumber":75,"Velocity":64,"Duration":147783,"SoundDuration":147783,"Delta":233961311},{"NoteNumber":51,"Velocity":40,"Duration":73891,"SoundDuration":73891,"Delta":233961311},{"NoteNumber":56,"Velocity":40,"Duration":73891,"SoundDuration":73891,"Delta":233961311},{"NoteNumber":60,"Velocity":48,"Duration":73891,"SoundDuration":73891,"Delta":233961311},{"NoteNumber":65,"Velocity":57,"Duration":295566,"SoundDuration":295566,"Delta":234109094},{"NoteNumber":75,"Velocity":68,"Duration":147783,"SoundDuration":147783,"Delta":234109094},{"NoteNumber":49,"Velocity":45,"Duration":295566,"SoundDuration":295566,"Delta":234109094},{"NoteNumber":56,"Velocity":45,"Duration":295566,"SoundDuration":295566,"Delta":234109094},{"NoteNumber":60,"Velocity":52,"Duration":295566,"SoundDuration":295566,"Delta":234109094},{"NoteNumber":73,"Velocity":64,"Duration":147783,"SoundDuration":147783,"Delta":234256878},{"NoteNumber":65,"Velocity":54,"Duration":76142,"SoundDuration":76142,"Delta":234404661},{"NoteNumber":73,"Velocity":64,"Duration":76142,"SoundDuration":76142,"Delta":234404661},{"NoteNumber":49,"Velocity":40,"Duration":76142,"SoundDuration":76142,"Delta":234404661},{"NoteNumber":56,"Velocity":40,"Duration":76142,"SoundDuration":76142,"Delta":234404661},{"NoteNumber":61,"Velocity":48,"Duration":76142,"SoundDuration":76142,"Delta":234404661},{"NoteNumber":65,"Velocity":49,"Duration":76142,"SoundDuration":76142,"Delta":234556945},{"NoteNumber":72,"Velocity":59,"Duration":76142,"SoundDuration":76142,"Delta":234556945},{"NoteNumber":49,"Velocity":40,"Duration":76142,"SoundDuration":76142,"Delta":234556945},{"NoteNumber":56,"Velocity":40,"Duration":76142,"SoundDuration":76142,"Delta":234556945},{"NoteNumber":61,"Velocity":48,"Duration":76142,"SoundDuration":76142,"Delta":234556945},{"NoteNumber":65,"Velocity":52,"Duration":304568,"SoundDuration":304568,"Delta":234709229},{"NoteNumber":70,"Velocity":62,"Duration":600135,"SoundDuration":600135,"Delta":234709229},{"NoteNumber":49,"Velocity":45,"Duration":304568,"SoundDuration":304568,"Delta":234709229},{"NoteNumber":55,"Velocity":45,"Duration":304568,"SoundDuration":304568,"Delta":234709229},{"NoteNumber":61,"Velocity":54,"Duration":304568,"SoundDuration":304568,"Delta":234709229},{"NoteNumber":65,"Velocity":53,"Duration":133004,"SoundDuration":133004,"Delta":235013798},{"NoteNumber":49,"Velocity":43,"Duration":133004,"SoundDuration":133004,"Delta":235013798},{"NoteNumber":55,"Velocity":43,"Duration":133004,"SoundDuration":133004,"Delta":235013798},{"NoteNumber":61,"Velocity":51,"Duration":133004,"SoundDuration":133004,"Delta":235013798},{"NoteNumber":65,"Velocity":53,"Duration":133004,"SoundDuration":133004,"Delta":235161581},{"NoteNumber":49,"Velocity":43,"Duration":133004,"SoundDuration":133004,"Delta":235161581},{"NoteNumber":55,"Velocity":43,"Duration":133004,"SoundDuration":133004,"Delta":235161581},{"NoteNumber":61,"Velocity":51,"Duration":133004,"SoundDuration":133004,"Delta":235161581},{"NoteNumber":60,"Velocity":54,"Duration":306122,"SoundDuration":306122,"Delta":235309364},{"NoteNumber":64,"Velocity":54,"Duration":306122,"SoundDuration":306122,"Delta":235309364},{"NoteNumber":72,"Velocity":64,"Duration":601688,"SoundDuration":601688,"Delta":235309364},{"NoteNumber":48,"Velocity":45,"Duration":306122,"SoundDuration":306122,"Delta":235309364},{"NoteNumber":55,"Velocity":45,"Duration":306122,"SoundDuration":306122,"Delta":235309364},{"NoteNumber":58,"Velocity":54,"Duration":306122,"SoundDuration":306122,"Delta":235309364},{"NoteNumber":60,"Velocity":54,"Duration":133004,"SoundDuration":133004,"Delta":235615487},{"NoteNumber":64,"Velocity":54,"Duration":133004,"SoundDuration":133004,"Delta":235615487},{"NoteNumber":48,"Velocity":43,"Duration":133004,"SoundDuration":133004,"Delta":235615487},{"NoteNumber":55,"Velocity":43,"Duration":133004,"SoundDuration":133004,"Delta":235615487},{"NoteNumber":58,"Velocity":51,"Duration":133004,"SoundDuration":133004,"Delta":235615487},{"NoteNumber":60,"Velocity":53,"Duration":133004,"SoundDuration":133004,"Delta":235763270},{"NoteNumber":64,"Velocity":53,"Duration":133004,"SoundDuration":133004,"Delta":235763270},{"NoteNumber":48,"Velocity":43,"Duration":133004,"SoundDuration":133004,"Delta":235763270},{"NoteNumber":55,"Velocity":43,"Duration":133004,"SoundDuration":133004,"Delta":235763270},{"NoteNumber":58,"Velocity":51,"Duration":133004,"SoundDuration":133004,"Delta":235763270},{"NoteNumber":65,"Velocity":57,"Duration":300000,"SoundDuration":300000,"Delta":235911053},{"NoteNumber":60,"Velocity":57,"Duration":300000,"SoundDuration":300000,"Delta":235911053},{"NoteNumber":70,"Velocity":68,"Duration":150000,"SoundDuration":150000,"Delta":235911053},{"NoteNumber":53,"Velocity":45,"Duration":300000,"SoundDuration":300000,"Delta":235911053},{"NoteNumber":56,"Velocity":52,"Duration":300000,"SoundDuration":300000,"Delta":235911053},{"NoteNumber":68,"Velocity":64,"Duration":150000,"SoundDuration":150000,"Delta":236061053},{"NoteNumber":60,"Velocity":54,"Duration":76142,"SoundDuration":76142,"Delta":236211053},{"NoteNumber":68,"Velocity":64,"Duration":76142,"SoundDuration":76142,"Delta":236211053},{"NoteNumber":53,"Velocity":40,"Duration":76142,"SoundDuration":76142,"Delta":236211053},{"NoteNumber":56,"Velocity":48,"Duration":76142,"SoundDuration":76142,"Delta":236211053},{"NoteNumber":60,"Velocity":49,"Duration":76142,"SoundDuration":76142,"Delta":236363338},{"NoteNumber":67,"Velocity":59,"Duration":76142,"SoundDuration":76142,"Delta":236363338},{"NoteNumber":51,"Velocity":40,"Duration":76142,"SoundDuration":76142,"Delta":236363338},{"NoteNumber":56,"Velocity":48,"Duration":76142,"SoundDuration":76142,"Delta":236363338},{"NoteNumber":60,"Velocity":52,"Duration":304568,"SoundDuration":304568,"Delta":236515622},{"NoteNumber":65,"Velocity":62,"Duration":600135,"SoundDuration":600135,"Delta":236515622},{"NoteNumber":50,"Velocity":45,"Duration":304568,"SoundDuration":304568,"Delta":236515622},{"NoteNumber":56,"Velocity":54,"Duration":304568,"SoundDuration":304568,"Delta":236515622},{"NoteNumber":60,"Velocity":50,"Duration":133004,"SoundDuration":133004,"Delta":236820190},{"NoteNumber":62,"Velocity":50,"Duration":133004,"SoundDuration":133004,"Delta":236820190},{"NoteNumber":50,"Velocity":40,"Duration":133004,"SoundDuration":133004,"Delta":236820190},{"NoteNumber":56,"Velocity":48,"Duration":133004,"SoundDuration":133004,"Delta":236820190},{"NoteNumber":60,"Velocity":50,"Duration":133004,"SoundDuration":133004,"Delta":236967974},{"NoteNumber":62,"Velocity":50,"Duration":133004,"SoundDuration":133004,"Delta":236967974},{"NoteNumber":50,"Velocity":40,"Duration":133004,"SoundDuration":133004,"Delta":236967974},{"NoteNumber":56,"Velocity":48,"Duration":133004,"SoundDuration":133004,"Delta":236967974},{"NoteNumber":59,"Velocity":54,"Duration":306122,"SoundDuration":306122,"Delta":237115757},{"NoteNumber":62,"Velocity":54,"Duration":306122,"SoundDuration":306122,"Delta":237115757},{"NoteNumber":67,"Velocity":64,"Duration":601688,"SoundDuration":601688,"Delta":237115757},{"NoteNumber":43,"Velocity":45,"Duration":306122,"SoundDuration":306122,"Delta":237115757},{"NoteNumber":50,"Velocity":45,"Duration":306122,"SoundDuration":306122,"Delta":237115757},{"NoteNumber":55,"Velocity":54,"Duration":306122,"SoundDuration":306122,"Delta":237115757},{"NoteNumber":59,"Velocity":51,"Duration":133004,"SoundDuration":133004,"Delta":237421879},{"NoteNumber":62,"Velocity":51,"Duration":133004,"SoundDuration":133004,"Delta":237421879},{"NoteNumber":43,"Velocity":40,"Duration":133004,"SoundDuration":133004,"Delta":237421879},{"NoteNumber":50,"Velocity":40,"Duration":133004,"SoundDuration":133004,"Delta":237421879},{"NoteNumber":55,"Velocity":48,"Duration":133004,"SoundDuration":133004,"Delta":237421879},{"NoteNumber":59,"Velocity":50,"Duration":133004,"SoundDuration":133004,"Delta":237569663},{"NoteNumber":62,"Velocity":50,"Duration":133004,"SoundDuration":133004,"Delta":237569663},{"NoteNumber":43,"Velocity":40,"Duration":133004,"SoundDuration":133004,"Delta":237569663},{"NoteNumber":50,"Velocity":40,"Duration":133004,"SoundDuration":133004,"Delta":237569663},{"NoteNumber":55,"Velocity":48,"Duration":133004,"SoundDuration":133004,"Delta":237569663},{"NoteNumber":60,"Velocity":47,"Duration":307692,"SoundDuration":307692,"Delta":237717446},{"NoteNumber":63,"Velocity":56,"Duration":76923,"SoundDuration":76923,"Delta":237717446},{"NoteNumber":48,"Velocity":42,"Duration":307692,"SoundDuration":307692,"Delta":237717446},{"NoteNumber":55,"Velocity":49,"Duration":307692,"SoundDuration":307692,"Delta":237717446},{"NoteNumber":65,"Velocity":56,"Duration":76923,"SoundDuration":76923,"Delta":237794369},{"NoteNumber":63,"Velocity":62,"Duration":153846,"SoundDuration":153846,"Delta":237871292},{"NoteNumber":59,"Velocity":49,"Duration":150000,"SoundDuration":150000,"Delta":238025138},{"NoteNumber":62,"Velocity":58,"Duration":150000,"SoundDuration":150000,"Delta":238025138},{"NoteNumber":48,"Velocity":38,"Duration":134999,"SoundDuration":134999,"Delta":238025138},{"NoteNumber":55,"Velocity":45,"Duration":134999,"SoundDuration":134999,"Delta":238025138},{"NoteNumber":60,"Velocity":49,"Duration":150000,"SoundDuration":150000,"Delta":238175138},{"NoteNumber":63,"Velocity":59,"Duration":150000,"SoundDuration":150000,"Delta":238175138},{"NoteNumber":48,"Velocity":38,"Duration":134999,"SoundDuration":134999,"Delta":238175138},{"NoteNumber":55,"Velocity":45,"Duration":134999,"SoundDuration":134999,"Delta":238175138},{"NoteNumber":65,"Velocity":56,"Duration":76282,"SoundDuration":76282,"Delta":238325138},{"NoteNumber":62,"Velocity":47,"Duration":307051,"SoundDuration":307051,"Delta":238325138},{"NoteNumber":56,"Velocity":49,"Duration":307051,"SoundDuration":307051,"Delta":238325138},{"NoteNumber":46,"Velocity":42,"Duration":307051,"SoundDuration":307051,"Delta":238325138},{"NoteNumber":67,"Velocity":56,"Duration":76923,"SoundDuration":76923,"Delta":238401420},{"NoteNumber":65,"Velocity":62,"Duration":153846,"SoundDuration":153846,"Delta":238478343},{"NoteNumber":60,"Velocity":49,"Duration":149758,"SoundDuration":149758,"Delta":238632190},{"NoteNumber":63,"Velocity":58,"Duration":149758,"SoundDuration":149758,"Delta":238632190},{"NoteNumber":56,"Velocity":45,"Duration":134833,"SoundDuration":134833,"Delta":238632190},{"NoteNumber":46,"Velocity":38,"Duration":134833,"SoundDuration":134833,"Delta":238632190},{"NoteNumber":62,"Velocity":59,"Duration":149253,"SoundDuration":149253,"Delta":238781949},{"NoteNumber":65,"Velocity":59,"Duration":149253,"SoundDuration":149253,"Delta":238781949},{"NoteNumber":46,"Velocity":38,"Duration":134328,"SoundDuration":134328,"Delta":238781949},{"NoteNumber":56,"Velocity":45,"Duration":134328,"SoundDuration":134328,"Delta":238781949},{"NoteNumber":55,"Velocity":54,"Duration":298507,"SoundDuration":298507,"Delta":238931202},{"NoteNumber":67,"Velocity":64,"Duration":612596,"SoundDuration":612596,"Delta":238931202},{"NoteNumber":63,"Velocity":54,"Duration":298507,"SoundDuration":298507,"Delta":238931202},{"NoteNumber":39,"Velocity":45,"Duration":298507,"SoundDuration":298507,"Delta":238931202},{"NoteNumber":46,"Velocity":45,"Duration":298507,"SoundDuration":298507,"Delta":238931202},{"NoteNumber":51,"Velocity":54,"Duration":298507,"SoundDuration":298507,"Delta":238931202},{"NoteNumber":63,"Velocity":51,"Duration":134328,"SoundDuration":134328,"Delta":239229710},{"NoteNumber":55,"Velocity":51,"Duration":134328,"SoundDuration":134328,"Delta":239229710},{"NoteNumber":46,"Velocity":40,"Duration":134328,"SoundDuration":134328,"Delta":239229710},{"NoteNumber":51,"Velocity":48,"Duration":134328,"SoundDuration":134328,"Delta":239229710},{"NoteNumber":39,"Velocity":40,"Duration":134328,"SoundDuration":134328,"Delta":239229710},{"NoteNumber":63,"Velocity":50,"Duration":148351,"SoundDuration":148351,"Delta":239378964},{"NoteNumber":55,"Velocity":50,"Duration":148351,"SoundDuration":148351,"Delta":239378964},{"NoteNumber":46,"Velocity":40,"Duration":148351,"SoundDuration":148351,"Delta":239378964},{"NoteNumber":51,"Velocity":48,"Duration":148351,"SoundDuration":148351,"Delta":239378964},{"NoteNumber":39,"Velocity":40,"Duration":148351,"SoundDuration":148351,"Delta":239378964},{"NoteNumber":74,"Velocity":51,"Duration":319149,"SoundDuration":319149,"Delta":239543799},{"NoteNumber":65,"Velocity":51,"Duration":319149,"SoundDuration":319149,"Delta":239543799},{"NoteNumber":67,"Velocity":51,"Duration":319149,"SoundDuration":319149,"Delta":239543799},{"NoteNumber":79,"Velocity":81,"Duration":628427,"SoundDuration":628427,"Delta":239543799},{"NoteNumber":35,"Velocity":43,"Duration":319149,"SoundDuration":319149,"Delta":239543799},{"NoteNumber":47,"Velocity":51,"Duration":319149,"SoundDuration":319149,"Delta":239543799},{"NoteNumber":67,"Velocity":55,"Duration":139175,"SoundDuration":139175,"Delta":239862948},{"NoteNumber":65,"Velocity":55,"Duration":139175,"SoundDuration":139175,"Delta":239862948},{"NoteNumber":47,"Velocity":43,"Duration":139175,"SoundDuration":139175,"Delta":239862948},{"NoteNumber":59,"Velocity":51,"Duration":139175,"SoundDuration":139175,"Delta":239862948},{"NoteNumber":55,"Velocity":43,"Duration":139175,"SoundDuration":139175,"Delta":239862948},{"NoteNumber":67,"Velocity":54,"Duration":139175,"SoundDuration":139175,"Delta":240017587},{"NoteNumber":65,"Velocity":54,"Duration":139175,"SoundDuration":139175,"Delta":240017587},{"NoteNumber":47,"Velocity":43,"Duration":139175,"SoundDuration":139175,"Delta":240017587},{"NoteNumber":59,"Velocity":51,"Duration":139175,"SoundDuration":139175,"Delta":240017587},{"NoteNumber":55,"Velocity":43,"Duration":139175,"SoundDuration":139175,"Delta":240017587},{"NoteNumber":67,"Velocity":54,"Duration":309278,"SoundDuration":309278,"Delta":240172226},{"NoteNumber":65,"Velocity":54,"Duration":309278,"SoundDuration":309278,"Delta":240172226},{"NoteNumber":74,"Velocity":71,"Duration":621778,"SoundDuration":621778,"Delta":240172226},{"NoteNumber":47,"Velocity":43,"Duration":309278,"SoundDuration":309278,"Delta":240172226},{"NoteNumber":59,"Velocity":51,"Duration":309278,"SoundDuration":309278,"Delta":240172226},{"NoteNumber":55,"Velocity":43,"Duration":309278,"SoundDuration":309278,"Delta":240172226},{"NoteNumber":67,"Velocity":54,"Duration":140625,"SoundDuration":140625,"Delta":240481505},{"NoteNumber":65,"Velocity":54,"Duration":140625,"SoundDuration":140625,"Delta":240481505},{"NoteNumber":47,"Velocity":43,"Duration":140625,"SoundDuration":140625,"Delta":240481505},{"NoteNumber":55,"Velocity":43,"Duration":140625,"SoundDuration":140625,"Delta":240481505},{"NoteNumber":59,"Velocity":51,"Duration":140625,"SoundDuration":140625,"Delta":240481505},{"NoteNumber":67,"Velocity":53,"Duration":140625,"SoundDuration":140625,"Delta":240637755},{"NoteNumber":65,"Velocity":53,"Duration":140625,"SoundDuration":140625,"Delta":240637755},{"NoteNumber":47,"Velocity":43,"Duration":140625,"SoundDuration":140625,"Delta":240637755},{"NoteNumber":55,"Velocity":43,"Duration":140625,"SoundDuration":140625,"Delta":240637755},{"NoteNumber":59,"Velocity":51,"Duration":140625,"SoundDuration":140625,"Delta":240637755},{"NoteNumber":70,"Velocity":58,"Duration":307692,"SoundDuration":307692,"Delta":240794005},{"NoteNumber":64,"Velocity":58,"Duration":307692,"SoundDuration":307692,"Delta":240794005},{"NoteNumber":72,"Velocity":58,"Duration":307692,"SoundDuration":307692,"Delta":240794005},{"NoteNumber":76,"Velocity":68,"Duration":606200,"SoundDuration":606200,"Delta":240794005},{"NoteNumber":48,"Velocity":40,"Duration":307692,"SoundDuration":307692,"Delta":240794005},{"NoteNumber":55,"Velocity":40,"Duration":307692,"SoundDuration":307692,"Delta":240794005},{"NoteNumber":60,"Velocity":48,"Duration":307692,"SoundDuration":307692,"Delta":240794005},{"NoteNumber":70,"Velocity":56,"Duration":134328,"SoundDuration":134328,"Delta":241101697},{"NoteNumber":64,"Velocity":56,"Duration":134328,"SoundDuration":134328,"Delta":241101697},{"NoteNumber":72,"Velocity":56,"Duration":134328,"SoundDuration":134328,"Delta":241101697},{"NoteNumber":48,"Velocity":40,"Duration":134328,"SoundDuration":134328,"Delta":241101697},{"NoteNumber":55,"Velocity":40,"Duration":134328,"SoundDuration":134328,"Delta":241101697},{"NoteNumber":60,"Velocity":48,"Duration":134328,"SoundDuration":134328,"Delta":241101697},{"NoteNumber":70,"Velocity":57,"Duration":134328,"SoundDuration":134328,"Delta":241250951},{"NoteNumber":64,"Velocity":54,"Duration":134328,"SoundDuration":134328,"Delta":241250951},{"NoteNumber":72,"Velocity":57,"Duration":134328,"SoundDuration":134328,"Delta":241250951},{"NoteNumber":48,"Velocity":40,"Duration":134328,"SoundDuration":134328,"Delta":241250951},{"NoteNumber":55,"Velocity":40,"Duration":134328,"SoundDuration":134328,"Delta":241250951},{"NoteNumber":60,"Velocity":48,"Duration":134328,"SoundDuration":134328,"Delta":241250951},{"NoteNumber":68,"Velocity":57,"Duration":298507,"SoundDuration":298507,"Delta":241400205},{"NoteNumber":72,"Velocity":57,"Duration":298507,"SoundDuration":298507,"Delta":241400205},{"NoteNumber":79,"Velocity":68,"Duration":149253,"SoundDuration":149253,"Delta":241400205},{"NoteNumber":53,"Velocity":45,"Duration":298507,"SoundDuration":298507,"Delta":241400205},{"NoteNumber":60,"Velocity":45,"Duration":298507,"SoundDuration":298507,"Delta":241400205},{"NoteNumber":64,"Velocity":52,"Duration":298507,"SoundDuration":298507,"Delta":241400205},{"NoteNumber":77,"Velocity":64,"Duration":149253,"SoundDuration":149253,"Delta":241549459},{"NoteNumber":68,"Velocity":54,"Duration":76142,"SoundDuration":76142,"Delta":241698712},{"NoteNumber":72,"Velocity":54,"Duration":76142,"SoundDuration":76142,"Delta":241698712},{"NoteNumber":77,"Velocity":64,"Duration":76142,"SoundDuration":76142,"Delta":241698712},{"NoteNumber":53,"Velocity":40,"Duration":76142,"SoundDuration":76142,"Delta":241698712},{"NoteNumber":60,"Velocity":40,"Duration":76142,"SoundDuration":76142,"Delta":241698712},{"NoteNumber":65,"Velocity":48,"Duration":76142,"SoundDuration":76142,"Delta":241698712},{"NoteNumber":68,"Velocity":49,"Duration":76142,"SoundDuration":76142,"Delta":241850997},{"NoteNumber":72,"Velocity":49,"Duration":76142,"SoundDuration":76142,"Delta":241850997},{"NoteNumber":75,"Velocity":59,"Duration":76142,"SoundDuration":76142,"Delta":241850997},{"NoteNumber":53,"Velocity":40,"Duration":76142,"SoundDuration":76142,"Delta":241850997},{"NoteNumber":60,"Velocity":40,"Duration":76142,"SoundDuration":76142,"Delta":241850997},{"NoteNumber":65,"Velocity":48,"Duration":76142,"SoundDuration":76142,"Delta":241850997},{"NoteNumber":72,"Velocity":52,"Duration":304568,"SoundDuration":304568,"Delta":242003281},{"NoteNumber":68,"Velocity":44,"Duration":304568,"SoundDuration":304568,"Delta":242003281},{"NoteNumber":65,"Velocity":44,"Duration":304568,"SoundDuration":304568,"Delta":242003281},{"NoteNumber":74,"Velocity":62,"Duration":600135,"SoundDuration":600135,"Delta":242003281},{"NoteNumber":53,"Velocity":45,"Duration":304568,"SoundDuration":304568,"Delta":242003281},{"NoteNumber":60,"Velocity":45,"Duration":304568,"SoundDuration":304568,"Delta":242003281},{"NoteNumber":62,"Velocity":54,"Duration":304568,"SoundDuration":304568,"Delta":242003281},{"NoteNumber":72,"Velocity":53,"Duration":133004,"SoundDuration":133004,"Delta":242307849},{"NoteNumber":68,"Velocity":53,"Duration":133004,"SoundDuration":133004,"Delta":242307849},{"NoteNumber":65,"Velocity":53,"Duration":133004,"SoundDuration":133004,"Delta":242307849},{"NoteNumber":53,"Velocity":43,"Duration":133004,"SoundDuration":133004,"Delta":242307849},{"NoteNumber":60,"Velocity":43,"Duration":133004,"SoundDuration":133004,"Delta":242307849},{"NoteNumber":62,"Velocity":51,"Duration":133004,"SoundDuration":133004,"Delta":242307849},{"NoteNumber":72,"Velocity":53,"Duration":133004,"SoundDuration":133004,"Delta":242455633},{"NoteNumber":68,"Velocity":53,"Duration":133004,"SoundDuration":133004,"Delta":242455633},{"NoteNumber":65,"Velocity":53,"Duration":133004,"SoundDuration":133004,"Delta":242455633},{"NoteNumber":53,"Velocity":43,"Duration":133004,"SoundDuration":133004,"Delta":242455633},{"NoteNumber":60,"Velocity":43,"Duration":133004,"SoundDuration":133004,"Delta":242455633},{"NoteNumber":62,"Velocity":51,"Duration":133004,"SoundDuration":133004,"Delta":242455633},{"NoteNumber":70,"Velocity":54,"Duration":306122,"SoundDuration":306122,"Delta":242603416},{"NoteNumber":72,"Velocity":54,"Duration":306122,"SoundDuration":306122,"Delta":242603416},{"NoteNumber":76,"Velocity":64,"Duration":601688,"SoundDuration":601688,"Delta":242603416},{"NoteNumber":55,"Velocity":45,"Duration":306122,"SoundDuration":306122,"Delta":242603416},{"NoteNumber":60,"Velocity":45,"Duration":306122,"SoundDuration":306122,"Delta":242603416},{"NoteNumber":64,"Velocity":54,"Duration":306122,"SoundDuration":306122,"Delta":242603416},{"NoteNumber":70,"Velocity":54,"Duration":133004,"SoundDuration":133004,"Delta":242909538},{"NoteNumber":72,"Velocity":54,"Duration":133004,"SoundDuration":133004,"Delta":242909538},{"NoteNumber":55,"Velocity":43,"Duration":133004,"SoundDuration":133004,"Delta":242909538},{"NoteNumber":60,"Velocity":43,"Duration":133004,"SoundDuration":133004,"Delta":242909538},{"NoteNumber":64,"Velocity":51,"Duration":133004,"SoundDuration":133004,"Delta":242909538},{"NoteNumber":70,"Velocity":53,"Duration":133004,"SoundDuration":133004,"Delta":243057322},{"NoteNumber":72,"Velocity":53,"Duration":133004,"SoundDuration":133004,"Delta":243057322},{"NoteNumber":55,"Velocity":43,"Duration":133004,"SoundDuration":133004,"Delta":243057322},{"NoteNumber":60,"Velocity":43,"Duration":133004,"SoundDuration":133004,"Delta":243057322},{"NoteNumber":64,"Velocity":51,"Duration":133004,"SoundDuration":133004,"Delta":243057322},{"NoteNumber":68,"Velocity":54,"Duration":300000,"SoundDuration":300000,"Delta":243205105},{"NoteNumber":72,"Velocity":54,"Duration":300000,"SoundDuration":300000,"Delta":243205105},{"NoteNumber":79,"Velocity":64,"Duration":150000,"SoundDuration":150000,"Delta":243205105},{"NoteNumber":56,"Velocity":42,"Duration":300000,"SoundDuration":300000,"Delta":243205105},{"NoteNumber":60,"Velocity":42,"Duration":300000,"SoundDuration":300000,"Delta":243205105},{"NoteNumber":64,"Velocity":49,"Duration":300000,"SoundDuration":300000,"Delta":243205105},{"NoteNumber":77,"Velocity":61,"Duration":150000,"SoundDuration":150000,"Delta":243355105},{"NoteNumber":68,"Velocity":51,"Duration":77319,"SoundDuration":77319,"Delta":243505105},{"NoteNumber":72,"Velocity":51,"Duration":77319,"SoundDuration":77319,"Delta":243505105},{"NoteNumber":77,"Velocity":60,"Duration":77319,"SoundDuration":77319,"Delta":243505105},{"NoteNumber":56,"Velocity":38,"Duration":77319,"SoundDuration":77319,"Delta":243505105},{"NoteNumber":60,"Velocity":38,"Duration":77319,"SoundDuration":77319,"Delta":243505105},{"NoteNumber":65,"Velocity":45,"Duration":77319,"SoundDuration":77319,"Delta":243505105},{"NoteNumber":68,"Velocity":44,"Duration":77319,"SoundDuration":77319,"Delta":243659744},{"NoteNumber":72,"Velocity":44,"Duration":77319,"SoundDuration":77319,"Delta":243659744},{"NoteNumber":75,"Velocity":54,"Duration":77319,"SoundDuration":77319,"Delta":243659744},{"NoteNumber":56,"Velocity":36,"Duration":77319,"SoundDuration":77319,"Delta":243659744},{"NoteNumber":60,"Velocity":36,"Duration":77319,"SoundDuration":77319,"Delta":243659744},{"NoteNumber":65,"Velocity":44,"Duration":77319,"SoundDuration":77319,"Delta":243659744},{"NoteNumber":68,"Velocity":51,"Duration":303807,"SoundDuration":303807,"Delta":243814383},{"NoteNumber":75,"Velocity":61,"Duration":151522,"SoundDuration":151522,"Delta":243814383},{"NoteNumber":53,"Velocity":39,"Duration":303807,"SoundDuration":303807,"Delta":243814383},{"NoteNumber":60,"Velocity":39,"Duration":303807,"SoundDuration":303807,"Delta":243814383},{"NoteNumber":65,"Velocity":47,"Duration":303807,"SoundDuration":303807,"Delta":243814383},{"NoteNumber":74,"Velocity":56,"Duration":152284,"SoundDuration":152284,"Delta":243965906},{"NoteNumber":65,"Velocity":46,"Duration":78533,"SoundDuration":78533,"Delta":244118190},{"NoteNumber":68,"Velocity":46,"Duration":78533,"SoundDuration":78533,"Delta":244118190},{"NoteNumber":74,"Velocity":56,"Duration":78533,"SoundDuration":78533,"Delta":244118190},{"NoteNumber":53,"Velocity":35,"Duration":78533,"SoundDuration":78533,"Delta":244118190},{"NoteNumber":60,"Velocity":41,"Duration":78533,"SoundDuration":78533,"Delta":244118190},{"NoteNumber":65,"Velocity":42,"Duration":78533,"SoundDuration":78533,"Delta":244275258},{"NoteNumber":68,"Velocity":42,"Duration":78533,"SoundDuration":78533,"Delta":244275258},{"NoteNumber":72,"Velocity":51,"Duration":78533,"SoundDuration":78533,"Delta":244275258},{"NoteNumber":53,"Velocity":35,"Duration":78533,"SoundDuration":78533,"Delta":244275258},{"NoteNumber":60,"Velocity":41,"Duration":78533,"SoundDuration":78533,"Delta":244275258},{"NoteNumber":65,"Velocity":49,"Duration":306122,"SoundDuration":306122,"Delta":244432326},{"NoteNumber":72,"Velocity":57,"Duration":153061,"SoundDuration":153061,"Delta":244432326},{"NoteNumber":50,"Velocity":38,"Duration":306122,"SoundDuration":306122,"Delta":244432326},{"NoteNumber":56,"Velocity":38,"Duration":306122,"SoundDuration":306122,"Delta":244432326},{"NoteNumber":60,"Velocity":45,"Duration":306122,"SoundDuration":306122,"Delta":244432326},{"NoteNumber":70,"Velocity":53,"Duration":153061,"SoundDuration":153061,"Delta":244585388},{"NoteNumber":62,"Velocity":42,"Duration":78533,"SoundDuration":78533,"Delta":244738449},{"NoteNumber":65,"Velocity":42,"Duration":78533,"SoundDuration":78533,"Delta":244738449},{"NoteNumber":70,"Velocity":51,"Duration":78533,"SoundDuration":78533,"Delta":244738449},{"NoteNumber":50,"Velocity":31,"Duration":78533,"SoundDuration":78533,"Delta":244738449},{"NoteNumber":55,"Velocity":31,"Duration":78533,"SoundDuration":78533,"Delta":244738449},{"NoteNumber":60,"Velocity":38,"Duration":78533,"SoundDuration":78533,"Delta":244738449},{"NoteNumber":62,"Velocity":38,"Duration":78533,"SoundDuration":78533,"Delta":244895517},{"NoteNumber":65,"Velocity":38,"Duration":78533,"SoundDuration":78533,"Delta":244895517},{"NoteNumber":68,"Velocity":45,"Duration":78533,"SoundDuration":78533,"Delta":244895517},{"NoteNumber":50,"Velocity":31,"Duration":78533,"SoundDuration":78533,"Delta":244895517},{"NoteNumber":53,"Velocity":31,"Duration":78533,"SoundDuration":78533,"Delta":244895517},{"NoteNumber":60,"Velocity":38,"Duration":78533,"SoundDuration":78533,"Delta":244895517},{"NoteNumber":59,"Velocity":39,"Duration":162162,"SoundDuration":162162,"Delta":245052585},{"NoteNumber":62,"Velocity":39,"Duration":162162,"SoundDuration":162162,"Delta":245052585},{"NoteNumber":67,"Velocity":47,"Duration":162162,"SoundDuration":162162,"Delta":245052585},{"NoteNumber":43,"Velocity":34,"Duration":162162,"SoundDuration":162162,"Delta":245052585},{"NoteNumber":50,"Velocity":34,"Duration":162162,"SoundDuration":162162,"Delta":245052585},{"NoteNumber":55,"Velocity":39,"Duration":162162,"SoundDuration":162162,"Delta":245052585},{"NoteNumber":63,"Velocity":33,"Duration":157894,"SoundDuration":157894,"Delta":245376909},{"NoteNumber":60,"Velocity":33,"Duration":157894,"SoundDuration":157894,"Delta":245376909},{"NoteNumber":67,"Velocity":39,"Duration":157894,"SoundDuration":157894,"Delta":245376909},{"NoteNumber":43,"Velocity":30,"Duration":157894,"SoundDuration":157894,"Delta":245376909},{"NoteNumber":48,"Velocity":30,"Duration":157894,"SoundDuration":157894,"Delta":245376909},{"NoteNumber":55,"Velocity":36,"Duration":157894,"SoundDuration":157894,"Delta":245376909},{"NoteNumber":60,"Velocity":32,"Duration":157894,"SoundDuration":157894,"Delta":245534804},{"NoteNumber":57,"Velocity":32,"Duration":157894,"SoundDuration":157894,"Delta":245534804},{"NoteNumber":67,"Velocity":38,"Duration":157894,"SoundDuration":157894,"Delta":245534804},{"NoteNumber":43,"Velocity":30,"Duration":157894,"SoundDuration":157894,"Delta":245534804},{"NoteNumber":51,"Velocity":30,"Duration":157894,"SoundDuration":157894,"Delta":245534804},{"NoteNumber":55,"Velocity":36,"Duration":157894,"SoundDuration":157894,"Delta":245534804},{"NoteNumber":59,"Velocity":31,"Duration":171428,"SoundDuration":171428,"Delta":245692699},{"NoteNumber":62,"Velocity":31,"Duration":171428,"SoundDuration":171428,"Delta":245692699},{"NoteNumber":67,"Velocity":44,"Duration":171428,"SoundDuration":171428,"Delta":245692699},{"NoteNumber":43,"Velocity":31,"Duration":171428,"SoundDuration":171428,"Delta":245692699},{"NoteNumber":50,"Velocity":31,"Duration":171428,"SoundDuration":171428,"Delta":245692699},{"NoteNumber":55,"Velocity":37,"Duration":171428,"SoundDuration":171428,"Delta":245692699},{"NoteNumber":63,"Velocity":30,"Duration":162162,"SoundDuration":162162,"Delta":246035556},{"NoteNumber":60,"Velocity":30,"Duration":162162,"SoundDuration":162162,"Delta":246035556},{"NoteNumber":67,"Velocity":36,"Duration":162162,"SoundDuration":162162,"Delta":246035556},{"NoteNumber":43,"Velocity":28,"Duration":162162,"SoundDuration":162162,"Delta":246035556},{"NoteNumber":48,"Velocity":28,"Duration":162162,"SoundDuration":162162,"Delta":246035556},{"NoteNumber":55,"Velocity":34,"Duration":162162,"SoundDuration":162162,"Delta":246035556},{"NoteNumber":60,"Velocity":29,"Duration":162162,"SoundDuration":162162,"Delta":246197718},{"NoteNumber":57,"Velocity":29,"Duration":162162,"SoundDuration":162162,"Delta":246197718},{"NoteNumber":67,"Velocity":35,"Duration":162162,"SoundDuration":162162,"Delta":246197718},{"NoteNumber":43,"Velocity":28,"Duration":162162,"SoundDuration":162162,"Delta":246197718},{"NoteNumber":51,"Velocity":28,"Duration":162162,"SoundDuration":162162,"Delta":246197718},{"NoteNumber":55,"Velocity":34,"Duration":162162,"SoundDuration":162162,"Delta":246197718},{"NoteNumber":62,"Velocity":34,"Duration":175438,"SoundDuration":175438,"Delta":246359880},{"NoteNumber":67,"Velocity":34,"Duration":175438,"SoundDuration":175438,"Delta":246359880},{"NoteNumber":59,"Velocity":28,"Duration":175438,"SoundDuration":175438,"Delta":246359880},{"NoteNumber":43,"Velocity":27,"Duration":175438,"SoundDuration":175438,"Delta":246359880},{"NoteNumber":50,"Velocity":27,"Duration":175438,"SoundDuration":175438,"Delta":246359880},{"NoteNumber":55,"Velocity":33,"Duration":175438,"SoundDuration":175438,"Delta":246359880},{"NoteNumber":74,"Velocity":50,"Duration":479276,"SoundDuration":479276,"Delta":246710757},{"NoteNumber":62,"Velocity":38,"Duration":647607,"SoundDuration":647607,"Delta":246710757},{"NoteNumber":72,"Velocity":39,"Duration":168331,"SoundDuration":168331,"Delta":247190034},{"NoteNumber":71,"Velocity":38,"Duration":168331,"SoundDuration":168331,"Delta":247358365},{"NoteNumber":62,"Velocity":32,"Duration":683608,"SoundDuration":683608,"Delta":247358365},{"NoteNumber":69,"Velocity":37,"Duration":175582,"SoundDuration":175582,"Delta":247526697},{"NoteNumber":68,"Velocity":36,"Duration":170067,"SoundDuration":170067,"Delta":247702279},{"NoteNumber":54,"Velocity":27,"Duration":339694,"SoundDuration":339694,"Delta":247702279},{"NoteNumber":60,"Velocity":32,"Duration":339694,"SoundDuration":339694,"Delta":247702279},{"NoteNumber":69,"Velocity":36,"Duration":169626,"SoundDuration":169626,"Delta":247872347},{"NoteNumber":71,"Velocity":36,"Duration":169040,"SoundDuration":169040,"Delta":248041974},{"NoteNumber":50,"Velocity":24,"Duration":337352,"SoundDuration":337352,"Delta":248041974},{"NoteNumber":62,"Velocity":29,"Duration":337352,"SoundDuration":337352,"Delta":248041974},{"NoteNumber":72,"Velocity":36,"Duration":168312,"SoundDuration":168312,"Delta":248211014},{"NoteNumber":73,"Velocity":36,"Duration":167576,"SoundDuration":167576,"Delta":248379326},{"NoteNumber":55,"Velocity":27,"Duration":335006,"SoundDuration":335006,"Delta":248379326},{"NoteNumber":59,"Velocity":32,"Duration":335006,"SoundDuration":335006,"Delta":248379326},{"NoteNumber":74,"Velocity":36,"Duration":167429,"SoundDuration":167429,"Delta":248546903},{"NoteNumber":79,"Velocity":40,"Duration":167429,"SoundDuration":167429,"Delta":248714333},{"NoteNumber":50,"Velocity":24,"Duration":334858,"SoundDuration":334858,"Delta":248714333},{"NoteNumber":62,"Velocity":28,"Duration":334858,"SoundDuration":334858,"Delta":248714333},{"NoteNumber":76,"Velocity":36,"Duration":167429,"SoundDuration":167429,"Delta":248881762},{"NoteNumber":73,"Velocity":36,"Duration":186683,"SoundDuration":186683,"Delta":249049192},{"NoteNumber":38,"Velocity":47,"Duration":186683,"SoundDuration":186683,"Delta":249049192},{"NoteNumber":74,"Velocity":38,"Duration":174957,"SoundDuration":174957,"Delta":249235875},{"NoteNumber":78,"Velocity":40,"Duration":172329,"SoundDuration":172329,"Delta":249410832},{"NoteNumber":50,"Velocity":24,"Duration":342545,"SoundDuration":342545,"Delta":249410832},{"NoteNumber":62,"Velocity":28,"Duration":342545,"SoundDuration":342545,"Delta":249410832},{"NoteNumber":76,"Velocity":38,"Duration":170216,"SoundDuration":170216,"Delta":249583161},{"NoteNumber":74,"Velocity":36,"Duration":169479,"SoundDuration":169479,"Delta":249753378},{"NoteNumber":57,"Velocity":27,"Duration":340142,"SoundDuration":340142,"Delta":249753378},{"NoteNumber":60,"Velocity":32,"Duration":340142,"SoundDuration":340142,"Delta":249753378},{"NoteNumber":72,"Velocity":36,"Duration":170662,"SoundDuration":170662,"Delta":249922858},{"NoteNumber":64,"Velocity":36,"Duration":171717,"SoundDuration":171717,"Delta":250093520},{"NoteNumber":50,"Velocity":24,"Duration":347299,"SoundDuration":347299,"Delta":250093520},{"NoteNumber":62,"Velocity":28,"Duration":347299,"SoundDuration":347299,"Delta":250093520},{"NoteNumber":66,"Velocity":36,"Duration":175582,"SoundDuration":175582,"Delta":250265237},{"NoteNumber":67,"Velocity":32,"Duration":42517,"SoundDuration":42517,"Delta":250440819},{"NoteNumber":55,"Velocity":27,"Duration":340136,"SoundDuration":340136,"Delta":250440819},{"NoteNumber":59,"Velocity":32,"Duration":340136,"SoundDuration":340136,"Delta":250440819},{"NoteNumber":69,"Velocity":32,"Duration":42517,"SoundDuration":42517,"Delta":250483336},{"NoteNumber":67,"Velocity":36,"Duration":85033,"SoundDuration":85033,"Delta":250525853},{"NoteNumber":66,"Velocity":36,"Duration":170068,"SoundDuration":170068,"Delta":250610887},{"NoteNumber":67,"Velocity":35,"Duration":170067,"SoundDuration":170067,"Delta":250780955},{"NoteNumber":50,"Velocity":24,"Duration":340136,"SoundDuration":340136,"Delta":250780955},{"NoteNumber":62,"Velocity":29,"Duration":340136,"SoundDuration":340136,"Delta":250780955},{"NoteNumber":68,"Velocity":36,"Duration":170068,"SoundDuration":170068,"Delta":250951023},{"NoteNumber":69,"Velocity":36,"Duration":175582,"SoundDuration":175582,"Delta":251121091},{"NoteNumber":54,"Velocity":27,"Duration":344767,"SoundDuration":344767,"Delta":251121091},{"NoteNumber":57,"Velocity":32,"Duration":344767,"SoundDuration":344767,"Delta":251121091},{"NoteNumber":78,"Velocity":40,"Duration":169185,"SoundDuration":169185,"Delta":251296674},{"NoteNumber":76,"Velocity":37,"Duration":169185,"SoundDuration":169185,"Delta":251465859},{"NoteNumber":50,"Velocity":24,"Duration":338371,"SoundDuration":338371,"Delta":251465859},{"NoteNumber":62,"Velocity":28,"Duration":338371,"SoundDuration":338371,"Delta":251465859},{"NoteNumber":74,"Velocity":36,"Duration":169185,"SoundDuration":169185,"Delta":251635045},{"NoteNumber":73,"Velocity":38,"Duration":176533,"SoundDuration":176533,"Delta":251804231},{"NoteNumber":55,"Velocity":27,"Duration":353066,"SoundDuration":353066,"Delta":251804231},{"NoteNumber":58,"Velocity":32,"Duration":353066,"SoundDuration":353066,"Delta":251804231},{"NoteNumber":78,"Velocity":37,"Duration":176533,"SoundDuration":176533,"Delta":251980764},{"NoteNumber":79,"Velocity":39,"Duration":176532,"SoundDuration":176532,"Delta":252157297},{"NoteNumber":50,"Velocity":27,"Duration":689996,"SoundDuration":689996,"Delta":252157297},{"NoteNumber":62,"Velocity":32,"Duration":689996,"SoundDuration":689996,"Delta":252157297},{"NoteNumber":81,"Velocity":40,"Duration":174642,"SoundDuration":174642,"Delta":252333830},{"NoteNumber":84,"Velocity":42,"Duration":168603,"SoundDuration":168603,"Delta":252508472},{"NoteNumber":82,"Velocity":40,"Duration":170218,"SoundDuration":170218,"Delta":252677076},{"NoteNumber":79,"Velocity":38,"Duration":172020,"SoundDuration":172020,"Delta":252847294},{"NoteNumber":50,"Velocity":26,"Duration":345425,"SoundDuration":345425,"Delta":252847294},{"NoteNumber":62,"Velocity":31,"Duration":345425,"SoundDuration":345425,"Delta":252847294},{"NoteNumber":73,"Velocity":36,"Duration":173404,"SoundDuration":173404,"Delta":253019315},{"NoteNumber":74,"Velocity":44,"Duration":258876,"SoundDuration":258876,"Delta":253192719},{"NoteNumber":54,"Velocity":27,"Duration":345272,"SoundDuration":345272,"Delta":253192719},{"NoteNumber":57,"Velocity":32,"Duration":345272,"SoundDuration":345272,"Delta":253192719},{"NoteNumber":76,"Velocity":36,"Duration":86395,"SoundDuration":86395,"Delta":253451596},{"NoteNumber":74,"Velocity":44,"Duration":259956,"SoundDuration":259956,"Delta":253537992},{"NoteNumber":50,"Velocity":24,"Duration":346832,"SoundDuration":346832,"Delta":253537992},{"NoteNumber":62,"Velocity":28,"Duration":346832,"SoundDuration":346832,"Delta":253537992},{"NoteNumber":75,"Velocity":36,"Duration":86875,"SoundDuration":86875,"Delta":253797948},{"NoteNumber":74,"Velocity":44,"Duration":263855,"SoundDuration":263855,"Delta":253884824},{"NoteNumber":55,"Velocity":27,"Duration":352971,"SoundDuration":352971,"Delta":253884824},{"NoteNumber":58,"Velocity":32,"Duration":352971,"SoundDuration":352971,"Delta":253884824},{"NoteNumber":76,"Velocity":36,"Duration":89116,"SoundDuration":89116,"Delta":254148679},{"NoteNumber":74,"Velocity":44,"Duration":270598,"SoundDuration":270598,"Delta":254237796},{"NoteNumber":50,"Velocity":24,"Duration":362024,"SoundDuration":362024,"Delta":254237796},{"NoteNumber":62,"Velocity":28,"Duration":362024,"SoundDuration":362024,"Delta":254237796},{"NoteNumber":75,"Velocity":36,"Duration":91425,"SoundDuration":91425,"Delta":254508394},{"NoteNumber":74,"Velocity":44,"Duration":277843,"SoundDuration":277843,"Delta":254599820},{"NoteNumber":56,"Velocity":27,"Duration":371593,"SoundDuration":371593,"Delta":254599820},{"NoteNumber":59,"Velocity":32,"Duration":371593,"SoundDuration":371593,"Delta":254599820},{"NoteNumber":76,"Velocity":36,"Duration":93750,"SoundDuration":93750,"Delta":254877663},{"NoteNumber":74,"Velocity":44,"Duration":285499,"SoundDuration":285499,"Delta":254971414},{"NoteNumber":50,"Velocity":24,"Duration":376706,"SoundDuration":376706,"Delta":254971414},{"NoteNumber":62,"Velocity":28,"Duration":376706,"SoundDuration":376706,"Delta":254971414},{"NoteNumber":75,"Velocity":36,"Duration":91207,"SoundDuration":91207,"Delta":255256913},{"NoteNumber":74,"Velocity":40,"Duration":178507,"SoundDuration":178507,"Delta":255348120},{"NoteNumber":57,"Velocity":27,"Duration":357015,"SoundDuration":357015,"Delta":255348120},{"NoteNumber":60,"Velocity":29,"Duration":357015,"SoundDuration":357015,"Delta":255348120},{"NoteNumber":72,"Velocity":39,"Duration":178507,"SoundDuration":178507,"Delta":255526628},{"NoteNumber":70,"Velocity":38,"Duration":178507,"SoundDuration":178507,"Delta":255705136},{"NoteNumber":50,"Velocity":24,"Duration":693784,"SoundDuration":693784,"Delta":255705136},{"NoteNumber":62,"Velocity":32,"Duration":693784,"SoundDuration":693784,"Delta":255705136},{"NoteNumber":69,"Velocity":36,"Duration":175582,"SoundDuration":175582,"Delta":255883644},{"NoteNumber":68,"Velocity":36,"Duration":170068,"SoundDuration":170068,"Delta":256059226},{"NoteNumber":69,"Velocity":36,"Duration":169626,"SoundDuration":169626,"Delta":256229294},{"NoteNumber":70,"Velocity":36,"Duration":169040,"SoundDuration":169040,"Delta":256398921},{"NoteNumber":50,"Velocity":24,"Duration":337352,"SoundDuration":337352,"Delta":256398921},{"NoteNumber":62,"Velocity":29,"Duration":337352,"SoundDuration":337352,"Delta":256398921},{"NoteNumber":72,"Velocity":36,"Duration":168312,"SoundDuration":168312,"Delta":256567961},{"NoteNumber":73,"Velocity":36,"Duration":167576,"SoundDuration":167576,"Delta":256736274},{"NoteNumber":55,"Velocity":27,"Duration":347088,"SoundDuration":347088,"Delta":256736274},{"NoteNumber":58,"Velocity":32,"Duration":347088,"SoundDuration":347088,"Delta":256736274},{"NoteNumber":74,"Velocity":39,"Duration":179511,"SoundDuration":179511,"Delta":256903850},{"NoteNumber":79,"Velocity":47,"Duration":85950,"SoundDuration":85950,"Delta":257083362},{"NoteNumber":50,"Velocity":24,"Duration":343799,"SoundDuration":343799,"Delta":257083362},{"NoteNumber":62,"Velocity":28,"Duration":343799,"SoundDuration":343799,"Delta":257083362},{"NoteNumber":78,"Velocity":40,"Duration":85950,"SoundDuration":85950,"Delta":257255262},{"NoteNumber":77,"Velocity":47,"Duration":94984,"SoundDuration":94984,"Delta":257427162},{"NoteNumber":38,"Velocity":47,"Duration":189969,"SoundDuration":189969,"Delta":257427162},{"NoteNumber":76,"Velocity":40,"Duration":87634,"SoundDuration":87634,"Delta":257617131},{"NoteNumber":75,"Velocity":39,"Duration":86240,"SoundDuration":86240,"Delta":257791777},{"NoteNumber":50,"Velocity":24,"Duration":341938,"SoundDuration":341938,"Delta":257791777},{"NoteNumber":62,"Velocity":28,"Duration":341938,"SoundDuration":341938,"Delta":257791777},{"NoteNumber":74,"Velocity":38,"Duration":85034,"SoundDuration":85034,"Delta":257963647},{"NoteNumber":73,"Velocity":36,"Duration":169773,"SoundDuration":169773,"Delta":258133715},{"NoteNumber":54,"Velocity":27,"Duration":339253,"SoundDuration":339253,"Delta":258133715},{"NoteNumber":60,"Velocity":32,"Duration":339253,"SoundDuration":339253,"Delta":258133715},{"NoteNumber":72,"Velocity":36,"Duration":169479,"SoundDuration":169479,"Delta":258303489},{"NoteNumber":69,"Velocity":36,"Duration":170216,"SoundDuration":170216,"Delta":258472969},{"NoteNumber":50,"Velocity":24,"Duration":345798,"SoundDuration":345798,"Delta":258472969},{"NoteNumber":62,"Velocity":28,"Duration":345798,"SoundDuration":345798,"Delta":258472969},{"NoteNumber":70,"Velocity":36,"Duration":175582,"SoundDuration":175582,"Delta":258643186},{"NoteNumber":67,"Velocity":32,"Duration":42516,"SoundDuration":42516,"Delta":258818768},{"NoteNumber":55,"Velocity":27,"Duration":340135,"SoundDuration":340135,"Delta":258818768},{"NoteNumber":58,"Velocity":32,"Duration":340135,"SoundDuration":340135,"Delta":258818768},{"NoteNumber":69,"Velocity":32,"Duration":42517,"SoundDuration":42517,"Delta":258861285},{"NoteNumber":67,"Velocity":36,"Duration":85034,"SoundDuration":85034,"Delta":258903802},{"NoteNumber":66,"Velocity":41,"Duration":170067,"SoundDuration":170067,"Delta":258988836},{"NoteNumber":67,"Velocity":35,"Duration":170068,"SoundDuration":170068,"Delta":259158904},{"NoteNumber":50,"Velocity":24,"Duration":340136,"SoundDuration":340136,"Delta":259158904},{"NoteNumber":62,"Velocity":29,"Duration":340136,"SoundDuration":340136,"Delta":259158904},{"NoteNumber":69,"Velocity":40,"Duration":170068,"SoundDuration":170068,"Delta":259328972},{"NoteNumber":70,"Velocity":50,"Duration":185620,"SoundDuration":185620,"Delta":259499040},{"NoteNumber":55,"Velocity":34,"Duration":363114,"SoundDuration":363114,"Delta":259499040},{"NoteNumber":58,"Velocity":40,"Duration":363114,"SoundDuration":363114,"Delta":259499040},{"NoteNumber":82,"Velocity":54,"Duration":177493,"SoundDuration":177493,"Delta":259684661},{"NoteNumber":81,"Velocity":51,"Duration":177493,"SoundDuration":177493,"Delta":259862154},{"NoteNumber":50,"Velocity":30,"Duration":704271,"SoundDuration":704271,"Delta":259862154},{"NoteNumber":63,"Velocity":36,"Duration":704271,"SoundDuration":704271,"Delta":259862154},{"NoteNumber":79,"Velocity":49,"Duration":177493,"SoundDuration":177493,"Delta":260039648},{"NoteNumber":81,"Velocity":56,"Duration":174642,"SoundDuration":174642,"Delta":260217142},{"NoteNumber":79,"Velocity":55,"Duration":174642,"SoundDuration":174642,"Delta":260391784},{"NoteNumber":77,"Velocity":53,"Duration":174642,"SoundDuration":174642,"Delta":260566426},{"NoteNumber":50,"Velocity":34,"Duration":349284,"SoundDuration":349284,"Delta":260566426},{"NoteNumber":63,"Velocity":40,"Duration":349284,"SoundDuration":349284,"Delta":260566426},{"NoteNumber":75,"Velocity":51,"Duration":174642,"SoundDuration":174642,"Delta":260741068},{"NoteNumber":77,"Velocity":53,"Duration":170818,"SoundDuration":170818,"Delta":260915710},{"NoteNumber":55,"Velocity":33,"Duration":343915,"SoundDuration":343915,"Delta":260915710},{"NoteNumber":58,"Velocity":39,"Duration":343915,"SoundDuration":343915,"Delta":260915710},{"NoteNumber":75,"Velocity":51,"Duration":173096,"SoundDuration":173096,"Delta":261086529},{"NoteNumber":70,"Velocity":48,"Duration":175270,"SoundDuration":175270,"Delta":261259625},{"NoteNumber":50,"Velocity":33,"Duration":351670,"SoundDuration":351670,"Delta":261259625},{"NoteNumber":63,"Velocity":39,"Duration":351670,"SoundDuration":351670,"Delta":261259625},{"NoteNumber":72,"Velocity":45,"Duration":176400,"SoundDuration":176400,"Delta":261434896},{"NoteNumber":74,"Velocity":46,"Duration":91590,"SoundDuration":91590,"Delta":261611296},{"NoteNumber":54,"Velocity":29,"Duration":361634,"SoundDuration":361634,"Delta":261611296},{"NoteNumber":57,"Velocity":29,"Duration":361634,"SoundDuration":361634,"Delta":261611296},{"NoteNumber":62,"Velocity":35,"Duration":361634,"SoundDuration":361634,"Delta":261611296},{"NoteNumber":75,"Velocity":43,"Duration":90902,"SoundDuration":90902,"Delta":261702886},{"NoteNumber":74,"Velocity":46,"Duration":90065,"SoundDuration":90065,"Delta":261793789},{"NoteNumber":75,"Velocity":44,"Duration":89076,"SoundDuration":89076,"Delta":261883854},{"NoteNumber":74,"Velocity":46,"Duration":88746,"SoundDuration":88746,"Delta":261972930},{"NoteNumber":50,"Velocity":36,"Duration":353866,"SoundDuration":353866,"Delta":261972930},{"NoteNumber":75,"Velocity":46,"Duration":88586,"SoundDuration":88586,"Delta":262061677},{"NoteNumber":74,"Velocity":47,"Duration":58844,"SoundDuration":58844,"Delta":262150264},{"NoteNumber":73,"Velocity":46,"Duration":58844,"SoundDuration":58844,"Delta":262209108},{"NoteNumber":74,"Velocity":46,"Duration":58844,"SoundDuration":58844,"Delta":262267953},{"NoteNumber":75,"Velocity":50,"Duration":87791,"SoundDuration":87791,"Delta":262326797},{"NoteNumber":55,"Velocity":32,"Duration":348208,"SoundDuration":348208,"Delta":262326797},{"NoteNumber":58,"Velocity":32,"Duration":348208,"SoundDuration":348208,"Delta":262326797},{"NoteNumber":63,"Velocity":38,"Duration":348208,"SoundDuration":348208,"Delta":262326797},{"NoteNumber":77,"Velocity":47,"Duration":87320,"SoundDuration":87320,"Delta":262414588},{"NoteNumber":75,"Velocity":51,"Duration":86855,"SoundDuration":86855,"Delta":262501909},{"NoteNumber":77,"Velocity":47,"Duration":86240,"SoundDuration":86240,"Delta":262588765},{"NoteNumber":75,"Velocity":52,"Duration":85930,"SoundDuration":85930,"Delta":262675006},{"NoteNumber":49,"Velocity":40,"Duration":343875,"SoundDuration":343875,"Delta":262675006},{"NoteNumber":77,"Velocity":49,"Duration":85930,"SoundDuration":85930,"Delta":262760936},{"NoteNumber":75,"Velocity":54,"Duration":57286,"SoundDuration":57286,"Delta":262846866},{"NoteNumber":74,"Velocity":51,"Duration":57286,"SoundDuration":57286,"Delta":262904153},{"NoteNumber":75,"Velocity":51,"Duration":57441,"SoundDuration":57441,"Delta":262961440},{"NoteNumber":76,"Velocity":58,"Duration":85950,"SoundDuration":85950,"Delta":263018881},{"NoteNumber":55,"Velocity":36,"Duration":343780,"SoundDuration":343780,"Delta":263018881},{"NoteNumber":58,"Velocity":36,"Duration":343780,"SoundDuration":343780,"Delta":263018881},{"NoteNumber":64,"Velocity":42,"Duration":343780,"SoundDuration":343780,"Delta":263018881},{"NoteNumber":77,"Velocity":52,"Duration":85949,"SoundDuration":85949,"Delta":263104831},{"NoteNumber":76,"Velocity":56,"Duration":85950,"SoundDuration":85950,"Delta":263190781},{"NoteNumber":77,"Velocity":53,"Duration":85930,"SoundDuration":85930,"Delta":263276731},{"NoteNumber":76,"Velocity":60,"Duration":87019,"SoundDuration":87019,"Delta":263362662},{"NoteNumber":48,"Velocity":43,"Duration":378226,"SoundDuration":378226,"Delta":263362662},{"NoteNumber":77,"Velocity":55,"Duration":92312,"SoundDuration":92312,"Delta":263449681},{"NoteNumber":76,"Velocity":61,"Duration":65236,"SoundDuration":65236,"Delta":263541994},{"NoteNumber":75,"Velocity":57,"Duration":68541,"SoundDuration":68541,"Delta":263607231},{"NoteNumber":76,"Velocity":57,"Duration":65116,"SoundDuration":65116,"Delta":263675772},{"NoteNumber":77,"Velocity":64,"Duration":175582,"SoundDuration":175582,"Delta":263740888},{"NoteNumber":41,"Velocity":52,"Duration":175582,"SoundDuration":175582,"Delta":263740888},{"NoteNumber":75,"Velocity":51,"Duration":175582,"SoundDuration":175582,"Delta":263916471},{"NoteNumber":73,"Velocity":51,"Duration":175582,"SoundDuration":175582,"Delta":264092053},{"NoteNumber":53,"Velocity":34,"Duration":690859,"SoundDuration":690859,"Delta":264092053},{"NoteNumber":65,"Velocity":44,"Duration":690859,"SoundDuration":690859,"Delta":264092053},{"NoteNumber":72,"Velocity":54,"Duration":175582,"SoundDuration":175582,"Delta":264267635},{"NoteNumber":71,"Velocity":45,"Duration":170068,"SoundDuration":170068,"Delta":264443217},{"NoteNumber":72,"Velocity":48,"Duration":169626,"SoundDuration":169626,"Delta":264613285},{"NoteNumber":73,"Velocity":45,"Duration":169040,"SoundDuration":169040,"Delta":264782912},{"NoteNumber":53,"Velocity":34,"Duration":359033,"SoundDuration":359033,"Delta":264782912},{"NoteNumber":65,"Velocity":40,"Duration":359033,"SoundDuration":359033,"Delta":264782912},{"NoteNumber":75,"Velocity":46,"Duration":189993,"SoundDuration":189993,"Delta":264951953},{"NoteNumber":76,"Velocity":54,"Duration":175623,"SoundDuration":175623,"Delta":265141946},{"NoteNumber":58,"Velocity":37,"Duration":355135,"SoundDuration":355135,"Delta":265141946},{"NoteNumber":61,"Velocity":44,"Duration":355135,"SoundDuration":355135,"Delta":265141946},{"NoteNumber":77,"Velocity":49,"Duration":179511,"SoundDuration":179511,"Delta":265317570},{"NoteNumber":82,"Velocity":59,"Duration":171899,"SoundDuration":171899,"Delta":265497082},{"NoteNumber":53,"Velocity":33,"Duration":343799,"SoundDuration":343799,"Delta":265497082},{"NoteNumber":65,"Velocity":39,"Duration":343799,"SoundDuration":343799,"Delta":265497082},{"NoteNumber":81,"Velocity":55,"Duration":171899,"SoundDuration":171899,"Delta":265668982},{"NoteNumber":80,"Velocity":59,"Duration":189969,"SoundDuration":189969,"Delta":265840882},{"NoteNumber":29,"Velocity":56,"Duration":189969,"SoundDuration":189969,"Delta":265840882},{"NoteNumber":79,"Velocity":48,"Duration":174645,"SoundDuration":174645,"Delta":266030851},{"NoteNumber":78,"Velocity":51,"Duration":171870,"SoundDuration":171870,"Delta":266205496},{"NoteNumber":53,"Velocity":33,"Duration":341938,"SoundDuration":341938,"Delta":266205496},{"NoteNumber":65,"Velocity":39,"Duration":341938,"SoundDuration":341938,"Delta":266205496},{"NoteNumber":77,"Velocity":54,"Duration":170068,"SoundDuration":170068,"Delta":266377367},{"NoteNumber":76,"Velocity":50,"Duration":169773,"SoundDuration":169773,"Delta":266547435},{"NoteNumber":57,"Velocity":37,"Duration":339253,"SoundDuration":339253,"Delta":266547435},{"NoteNumber":63,"Velocity":44,"Duration":339253,"SoundDuration":339253,"Delta":266547435},{"NoteNumber":75,"Velocity":47,"Duration":169479,"SoundDuration":169479,"Delta":266717209},{"NoteNumber":73,"Velocity":51,"Duration":170216,"SoundDuration":170216,"Delta":266886689},{"NoteNumber":53,"Velocity":33,"Duration":345798,"SoundDuration":345798,"Delta":266886689},{"NoteNumber":65,"Velocity":39,"Duration":345798,"SoundDuration":345798,"Delta":266886689},{"NoteNumber":72,"Velocity":49,"Duration":175582,"SoundDuration":175582,"Delta":267056905},{"NoteNumber":70,"Velocity":41,"Duration":42516,"SoundDuration":42516,"Delta":267232488},{"NoteNumber":58,"Velocity":37,"Duration":340135,"SoundDuration":340135,"Delta":267232488},{"NoteNumber":61,"Velocity":44,"Duration":340135,"SoundDuration":340135,"Delta":267232488},{"NoteNumber":72,"Velocity":41,"Duration":42517,"SoundDuration":42517,"Delta":267275005},{"NoteNumber":70,"Velocity":50,"Duration":85034,"SoundDuration":85034,"Delta":267317522},{"NoteNumber":69,"Velocity":45,"Duration":170067,"SoundDuration":170067,"Delta":267402556},{"NoteNumber":70,"Velocity":50,"Duration":170068,"SoundDuration":170068,"Delta":267572624},{"NoteNumber":53,"Velocity":34,"Duration":340136,"SoundDuration":340136,"Delta":267572624},{"NoteNumber":65,"Velocity":40,"Duration":340136,"SoundDuration":340136,"Delta":267572624},{"NoteNumber":72,"Velocity":45,"Duration":170068,"SoundDuration":170068,"Delta":267742692},{"NoteNumber":73,"Velocity":49,"Duration":185620,"SoundDuration":185620,"Delta":267912760},{"NoteNumber":58,"Velocity":37,"Duration":363114,"SoundDuration":363114,"Delta":267912760},{"NoteNumber":61,"Velocity":44,"Duration":363114,"SoundDuration":363114,"Delta":267912760},{"NoteNumber":85,"Velocity":57,"Duration":177493,"SoundDuration":177493,"Delta":268098380},{"NoteNumber":84,"Velocity":53,"Duration":177493,"SoundDuration":177493,"Delta":268275874},{"NoteNumber":53,"Velocity":33,"Duration":704271,"SoundDuration":704271,"Delta":268275874},{"NoteNumber":66,"Velocity":39,"Duration":704271,"SoundDuration":704271,"Delta":268275874},{"NoteNumber":82,"Velocity":51,"Duration":177493,"SoundDuration":177493,"Delta":268453368},{"NoteNumber":84,"Velocity":56,"Duration":174642,"SoundDuration":174642,"Delta":268630861},{"NoteNumber":82,"Velocity":55,"Duration":174642,"SoundDuration":174642,"Delta":268805503},{"NoteNumber":80,"Velocity":53,"Duration":174642,"SoundDuration":174642,"Delta":268980145},{"NoteNumber":53,"Velocity":37,"Duration":349284,"SoundDuration":349284,"Delta":268980145},{"NoteNumber":66,"Velocity":44,"Duration":349284,"SoundDuration":349284,"Delta":268980145},{"NoteNumber":78,"Velocity":51,"Duration":174642,"SoundDuration":174642,"Delta":269154787},{"NoteNumber":80,"Velocity":53,"Duration":170818,"SoundDuration":170818,"Delta":269329429},{"NoteNumber":58,"Velocity":36,"Duration":343915,"SoundDuration":343915,"Delta":269329429},{"NoteNumber":61,"Velocity":42,"Duration":343915,"SoundDuration":343915,"Delta":269329429},{"NoteNumber":78,"Velocity":51,"Duration":173096,"SoundDuration":173096,"Delta":269500248},{"NoteNumber":73,"Velocity":48,"Duration":175270,"SoundDuration":175270,"Delta":269673345},{"NoteNumber":53,"Velocity":36,"Duration":351670,"SoundDuration":351670,"Delta":269673345},{"NoteNumber":66,"Velocity":42,"Duration":351670,"SoundDuration":351670,"Delta":269673345},{"NoteNumber":75,"Velocity":45,"Duration":176400,"SoundDuration":176400,"Delta":269848615},{"NoteNumber":77,"Velocity":46,"Duration":122004,"SoundDuration":122004,"Delta":270025015},{"NoteNumber":57,"Velocity":31,"Duration":361634,"SoundDuration":361634,"Delta":270025015},{"NoteNumber":60,"Velocity":38,"Duration":361634,"SoundDuration":361634,"Delta":270025015},{"NoteNumber":78,"Velocity":44,"Duration":120642,"SoundDuration":120642,"Delta":270147020},{"NoteNumber":77,"Velocity":43,"Duration":118987,"SoundDuration":118987,"Delta":270267662},{"NoteNumber":76,"Velocity":45,"Duration":118329,"SoundDuration":118329,"Delta":270386650},{"NoteNumber":53,"Velocity":33,"Duration":353866,"SoundDuration":353866,"Delta":270386650},{"NoteNumber":65,"Velocity":38,"Duration":353866,"SoundDuration":353866,"Delta":270386650},{"NoteNumber":77,"Velocity":42,"Duration":117848,"SoundDuration":117848,"Delta":270504979},{"NoteNumber":78,"Velocity":43,"Duration":117688,"SoundDuration":117688,"Delta":270622828},{"NoteNumber":77,"Velocity":43,"Duration":116898,"SoundDuration":116898,"Delta":270740517},{"NoteNumber":58,"Velocity":32,"Duration":348208,"SoundDuration":348208,"Delta":270740517},{"NoteNumber":61,"Velocity":38,"Duration":348208,"SoundDuration":348208,"Delta":270740517},{"NoteNumber":78,"Velocity":43,"Duration":116117,"SoundDuration":116117,"Delta":270857415},{"NoteNumber":77,"Velocity":41,"Duration":115192,"SoundDuration":115192,"Delta":270973533},{"NoteNumber":76,"Velocity":43,"Duration":114573,"SoundDuration":114573,"Delta":271088725},{"NoteNumber":53,"Velocity":31,"Duration":343669,"SoundDuration":343669,"Delta":271088725},{"NoteNumber":65,"Velocity":38,"Duration":343669,"SoundDuration":343669,"Delta":271088725},{"NoteNumber":77,"Velocity":40,"Duration":114573,"SoundDuration":114573,"Delta":271203299},{"NoteNumber":78,"Velocity":40,"Duration":114521,"SoundDuration":114521,"Delta":271317873},{"NoteNumber":77,"Velocity":42,"Duration":116430,"SoundDuration":116430,"Delta":271432395},{"NoteNumber":59,"Velocity":32,"Duration":353500,"SoundDuration":353500,"Delta":271432395},{"NoteNumber":62,"Velocity":37,"Duration":353500,"SoundDuration":353500,"Delta":271432395},{"NoteNumber":78,"Velocity":39,"Duration":117818,"SoundDuration":117818,"Delta":271548825},{"NoteNumber":77,"Velocity":38,"Duration":119251,"SoundDuration":119251,"Delta":271666643},{"NoteNumber":76,"Velocity":41,"Duration":121087,"SoundDuration":121087,"Delta":271785895},{"NoteNumber":53,"Velocity":29,"Duration":414638,"SoundDuration":414638,"Delta":271785895},{"NoteNumber":65,"Velocity":36,"Duration":414638,"SoundDuration":414638,"Delta":271785895},{"NoteNumber":77,"Velocity":39,"Duration":133168,"SoundDuration":133168,"Delta":271906982},{"NoteNumber":78,"Velocity":38,"Duration":160382,"SoundDuration":160382,"Delta":272040151},{"NoteNumber":77,"Velocity":43,"Duration":183414,"SoundDuration":183414,"Delta":272200534},{"NoteNumber":60,"Velocity":28,"Duration":361766,"SoundDuration":361766,"Delta":272200534},{"NoteNumber":63,"Velocity":31,"Duration":361766,"SoundDuration":361766,"Delta":272200534},{"NoteNumber":75,"Velocity":41,"Duration":178351,"SoundDuration":178351,"Delta":272383948},{"NoteNumber":73,"Velocity":40,"Duration":176917,"SoundDuration":176917,"Delta":272562300},{"NoteNumber":53,"Velocity":26,"Duration":696332,"SoundDuration":696332,"Delta":272562300},{"NoteNumber":65,"Velocity":34,"Duration":696332,"SoundDuration":696332,"Delta":272562300},{"NoteNumber":72,"Velocity":39,"Duration":176023,"SoundDuration":176023,"Delta":272739217},{"NoteNumber":71,"Velocity":38,"Duration":171860,"SoundDuration":171860,"Delta":272915241},{"NoteNumber":72,"Velocity":38,"Duration":171530,"SoundDuration":171530,"Delta":273087102},{"NoteNumber":73,"Velocity":38,"Duration":170959,"SoundDuration":170959,"Delta":273258632},{"NoteNumber":53,"Velocity":26,"Duration":358765,"SoundDuration":358765,"Delta":273258632},{"NoteNumber":65,"Velocity":31,"Duration":358765,"SoundDuration":358765,"Delta":273258632},{"NoteNumber":75,"Velocity":39,"Duration":187805,"SoundDuration":187805,"Delta":273429592},{"NoteNumber":76,"Velocity":39,"Duration":174682,"SoundDuration":174682,"Delta":273617397},{"NoteNumber":58,"Velocity":28,"Duration":345151,"SoundDuration":345151,"Delta":273617397},{"NoteNumber":61,"Velocity":34,"Duration":345151,"SoundDuration":345151,"Delta":273617397},{"NoteNumber":77,"Velocity":39,"Duration":170468,"SoundDuration":170468,"Delta":273792080},{"NoteNumber":82,"Velocity":43,"Duration":86395,"SoundDuration":86395,"Delta":273962549},{"NoteNumber":53,"Velocity":25,"Duration":379745,"SoundDuration":379745,"Delta":273962549},{"NoteNumber":65,"Velocity":30,"Duration":379745,"SoundDuration":379745,"Delta":273962549},{"NoteNumber":81,"Velocity":42,"Duration":103476,"SoundDuration":103476,"Delta":274238817},{"NoteNumber":80,"Velocity":49,"Duration":94984,"SoundDuration":94984,"Delta":274342294},{"NoteNumber":29,"Velocity":43,"Duration":185306,"SoundDuration":185306,"Delta":274342294},{"NoteNumber":79,"Velocity":43,"Duration":88503,"SoundDuration":88503,"Delta":274527600},{"NoteNumber":78,"Velocity":41,"Duration":87364,"SoundDuration":87364,"Delta":274704035},{"NoteNumber":53,"Velocity":25,"Duration":346510,"SoundDuration":346510,"Delta":274704035},{"NoteNumber":65,"Velocity":30,"Duration":346510,"SoundDuration":346510,"Delta":274704035},{"NoteNumber":77,"Velocity":40,"Duration":86360,"SoundDuration":86360,"Delta":274878392},{"NoteNumber":76,"Velocity":39,"Duration":170998,"SoundDuration":170998,"Delta":275050545},{"NoteNumber":57,"Velocity":28,"Duration":341306,"SoundDuration":341306,"Delta":275050545},{"NoteNumber":63,"Velocity":34,"Duration":341306,"SoundDuration":341306,"Delta":275050545},{"NoteNumber":75,"Velocity":39,"Duration":170307,"SoundDuration":170307,"Delta":275221544},{"NoteNumber":72,"Velocity":38,"Duration":169852,"SoundDuration":169852,"Delta":275391851},{"NoteNumber":53,"Velocity":25,"Duration":345434,"SoundDuration":345434,"Delta":275391851},{"NoteNumber":65,"Velocity":30,"Duration":345434,"SoundDuration":345434,"Delta":275391851},{"NoteNumber":73,"Velocity":38,"Duration":175582,"SoundDuration":175582,"Delta":275561703},{"NoteNumber":70,"Velocity":34,"Duration":42516,"SoundDuration":42516,"Delta":275737286},{"NoteNumber":58,"Velocity":28,"Duration":340135,"SoundDuration":340135,"Delta":275737286},{"NoteNumber":61,"Velocity":34,"Duration":340135,"SoundDuration":340135,"Delta":275737286},{"NoteNumber":72,"Velocity":34,"Duration":42517,"SoundDuration":42517,"Delta":275779803},{"NoteNumber":70,"Velocity":38,"Duration":85034,"SoundDuration":85034,"Delta":275822320},{"NoteNumber":69,"Velocity":38,"Duration":170067,"SoundDuration":170067,"Delta":275907354},{"NoteNumber":70,"Velocity":37,"Duration":170068,"SoundDuration":170068,"Delta":276077422},{"NoteNumber":53,"Velocity":26,"Duration":340136,"SoundDuration":340136,"Delta":276077422},{"NoteNumber":65,"Velocity":31,"Duration":340136,"SoundDuration":340136,"Delta":276077422},{"NoteNumber":73,"Velocity":38,"Duration":170068,"SoundDuration":170068,"Delta":276247490},{"NoteNumber":72,"Velocity":47,"Duration":171860,"SoundDuration":171860,"Delta":276417558},{"NoteNumber":41,"Velocity":51,"Duration":171860,"SoundDuration":171860,"Delta":276417558},{"NoteNumber":70,"Velocity":41,"Duration":171860,"SoundDuration":171860,"Delta":276589418},{"NoteNumber":68,"Velocity":40,"Duration":171860,"SoundDuration":171860,"Delta":276761279},{"NoteNumber":48,"Velocity":26,"Duration":683416,"SoundDuration":683416,"Delta":276761279},{"NoteNumber":60,"Velocity":34,"Duration":683416,"SoundDuration":683416,"Delta":276761279},{"NoteNumber":67,"Velocity":39,"Duration":171860,"SoundDuration":171860,"Delta":276933140},{"NoteNumber":66,"Velocity":38,"Duration":170068,"SoundDuration":170068,"Delta":277105001},{"NoteNumber":67,"Velocity":38,"Duration":169626,"SoundDuration":169626,"Delta":277275069},{"NoteNumber":68,"Velocity":38,"Duration":169040,"SoundDuration":169040,"Delta":277444695},{"NoteNumber":48,"Velocity":26,"Duration":357933,"SoundDuration":357933,"Delta":277444695},{"NoteNumber":60,"Velocity":31,"Duration":357933,"SoundDuration":357933,"Delta":277444695},{"NoteNumber":70,"Velocity":39,"Duration":188893,"SoundDuration":188893,"Delta":277613736},{"NoteNumber":71,"Velocity":39,"Duration":172811,"SoundDuration":172811,"Delta":277802629},{"NoteNumber":53,"Velocity":28,"Duration":352322,"SoundDuration":352322,"Delta":277802629},{"NoteNumber":56,"Velocity":34,"Duration":352322,"SoundDuration":352322,"Delta":277802629},{"NoteNumber":72,"Velocity":47,"Duration":179511,"SoundDuration":179511,"Delta":277975440},{"NoteNumber":77,"Velocity":43,"Duration":167466,"SoundDuration":167466,"Delta":278154951},{"NoteNumber":48,"Velocity":25,"Duration":334933,"SoundDuration":334933,"Delta":278154951},{"NoteNumber":60,"Velocity":30,"Duration":334933,"SoundDuration":334933,"Delta":278154951},{"NoteNumber":73,"Velocity":42,"Duration":167466,"SoundDuration":167466,"Delta":278322418},{"NoteNumber":72,"Velocity":47,"Duration":172791,"SoundDuration":172791,"Delta":278489885},{"NoteNumber":39,"Velocity":47,"Duration":172791,"SoundDuration":172791,"Delta":278489885},{"NoteNumber":70,"Velocity":41,"Duration":172791,"SoundDuration":172791,"Delta":278662676},{"NoteNumber":68,"Velocity":40,"Duration":172791,"SoundDuration":172791,"Delta":278835467},{"NoteNumber":48,"Velocity":26,"Duration":700571,"SoundDuration":700571,"Delta":278835467},{"NoteNumber":60,"Velocity":34,"Duration":700571,"SoundDuration":700571,"Delta":278835467},{"NoteNumber":67,"Velocity":39,"Duration":175582,"SoundDuration":175582,"Delta":279008259},{"NoteNumber":66,"Velocity":38,"Duration":173711,"SoundDuration":173711,"Delta":279183841},{"NoteNumber":67,"Velocity":45,"Duration":178486,"SoundDuration":178486,"Delta":279357553},{"NoteNumber":72,"Velocity":47,"Duration":169185,"SoundDuration":169185,"Delta":279536039},{"NoteNumber":48,"Velocity":26,"Duration":338371,"SoundDuration":338371,"Delta":279536039},{"NoteNumber":60,"Velocity":31,"Duration":338371,"SoundDuration":338371,"Delta":279536039},{"NoteNumber":71,"Velocity":39,"Duration":169185,"SoundDuration":169185,"Delta":279705225},{"NoteNumber":70,"Velocity":39,"Duration":167723,"SoundDuration":167723,"Delta":279874411},{"NoteNumber":37,"Velocity":48,"Duration":167723,"SoundDuration":167723,"Delta":279874411},{"NoteNumber":68,"Velocity":39,"Duration":169187,"SoundDuration":169187,"Delta":280042134},{"NoteNumber":67,"Velocity":39,"Duration":170662,"SoundDuration":170662,"Delta":280211322},{"NoteNumber":49,"Velocity":25,"Duration":342988,"SoundDuration":342988,"Delta":280211322},{"NoteNumber":60,"Velocity":30,"Duration":342988,"SoundDuration":342988,"Delta":280211322},{"NoteNumber":65,"Velocity":38,"Duration":172325,"SoundDuration":172325,"Delta":280381984},{"NoteNumber":64,"Velocity":43,"Duration":186683,"SoundDuration":186683,"Delta":280554310},{"NoteNumber":36,"Velocity":49,"Duration":186683,"SoundDuration":186683,"Delta":280554310},{"NoteNumber":72,"Velocity":49,"Duration":171860,"SoundDuration":171860,"Delta":280740993},{"NoteNumber":70,"Velocity":40,"Duration":171860,"SoundDuration":171860,"Delta":280912854},{"NoteNumber":48,"Velocity":26,"Duration":683416,"SoundDuration":683416,"Delta":280912854},{"NoteNumber":60,"Velocity":34,"Duration":683416,"SoundDuration":683416,"Delta":280912854},{"NoteNumber":68,"Velocity":39,"Duration":171860,"SoundDuration":171860,"Delta":281084715},{"NoteNumber":66,"Velocity":38,"Duration":170068,"SoundDuration":170068,"Delta":281256576},{"NoteNumber":67,"Velocity":38,"Duration":169626,"SoundDuration":169626,"Delta":281426644},{"NoteNumber":68,"Velocity":38,"Duration":169040,"SoundDuration":169040,"Delta":281596271},{"NoteNumber":48,"Velocity":26,"Duration":355769,"SoundDuration":355769,"Delta":281596271},{"NoteNumber":60,"Velocity":31,"Duration":355769,"SoundDuration":355769,"Delta":281596271},{"NoteNumber":70,"Velocity":39,"Duration":186729,"SoundDuration":186729,"Delta":281765311},{"NoteNumber":71,"Velocity":39,"Duration":167875,"SoundDuration":167875,"Delta":281952041},{"NoteNumber":53,"Velocity":28,"Duration":342517,"SoundDuration":342517,"Delta":281952041},{"NoteNumber":56,"Velocity":34,"Duration":342517,"SoundDuration":342517,"Delta":281952041},{"NoteNumber":72,"Velocity":49,"Duration":174642,"SoundDuration":174642,"Delta":282119916},{"NoteNumber":77,"Velocity":43,"Duration":168331,"SoundDuration":168331,"Delta":282294558},{"NoteNumber":48,"Velocity":25,"Duration":336662,"SoundDuration":336662,"Delta":282294558},{"NoteNumber":60,"Velocity":30,"Duration":336662,"SoundDuration":336662,"Delta":282294558},{"NoteNumber":73,"Velocity":42,"Duration":168331,"SoundDuration":168331,"Delta":282462889},{"NoteNumber":72,"Velocity":48,"Duration":172791,"SoundDuration":172791,"Delta":282631221},{"NoteNumber":39,"Velocity":50,"Duration":172791,"SoundDuration":172791,"Delta":282631221},{"NoteNumber":70,"Velocity":41,"Duration":172791,"SoundDuration":172791,"Delta":282804012},{"NoteNumber":68,"Velocity":40,"Duration":172791,"SoundDuration":172791,"Delta":282976803},{"NoteNumber":48,"Velocity":26,"Duration":700571,"SoundDuration":700571,"Delta":282976803},{"NoteNumber":60,"Velocity":34,"Duration":700571,"SoundDuration":700571,"Delta":282976803},{"NoteNumber":67,"Velocity":39,"Duration":175582,"SoundDuration":175582,"Delta":283149594},{"NoteNumber":66,"Velocity":38,"Duration":173711,"SoundDuration":173711,"Delta":283325177},{"NoteNumber":67,"Velocity":38,"Duration":178486,"SoundDuration":178486,"Delta":283498888},{"NoteNumber":72,"Velocity":45,"Duration":169185,"SoundDuration":169185,"Delta":283677375},{"NoteNumber":48,"Velocity":26,"Duration":338371,"SoundDuration":338371,"Delta":283677375},{"NoteNumber":60,"Velocity":31,"Duration":338371,"SoundDuration":338371,"Delta":283677375},{"NoteNumber":71,"Velocity":39,"Duration":169185,"SoundDuration":169185,"Delta":283846561},{"NoteNumber":70,"Velocity":39,"Duration":167723,"SoundDuration":167723,"Delta":284015746},{"NoteNumber":37,"Velocity":51,"Duration":167723,"SoundDuration":167723,"Delta":284015746},{"NoteNumber":68,"Velocity":39,"Duration":169187,"SoundDuration":169187,"Delta":284183470},{"NoteNumber":67,"Velocity":39,"Duration":170662,"SoundDuration":170662,"Delta":284352658},{"NoteNumber":49,"Velocity":25,"Duration":342988,"SoundDuration":342988,"Delta":284352658},{"NoteNumber":60,"Velocity":30,"Duration":342988,"SoundDuration":342988,"Delta":284352658},{"NoteNumber":65,"Velocity":38,"Duration":172325,"SoundDuration":172325,"Delta":284523320},{"NoteNumber":64,"Velocity":43,"Duration":186683,"SoundDuration":186683,"Delta":284695646},{"NoteNumber":36,"Velocity":49,"Duration":186683,"SoundDuration":186683,"Delta":284695646},{"NoteNumber":72,"Velocity":46,"Duration":171860,"SoundDuration":171860,"Delta":284882329},{"NoteNumber":70,"Velocity":40,"Duration":171860,"SoundDuration":171860,"Delta":285054190},{"NoteNumber":48,"Velocity":26,"Duration":683416,"SoundDuration":683416,"Delta":285054190},{"NoteNumber":60,"Velocity":34,"Duration":683416,"SoundDuration":683416,"Delta":285054190},{"NoteNumber":68,"Velocity":39,"Duration":171860,"SoundDuration":171860,"Delta":285226051},{"NoteNumber":66,"Velocity":38,"Duration":170068,"SoundDuration":170068,"Delta":285397912},{"NoteNumber":67,"Velocity":38,"Duration":169626,"SoundDuration":169626,"Delta":285567980},{"NoteNumber":68,"Velocity":38,"Duration":169040,"SoundDuration":169040,"Delta":285737606},{"NoteNumber":48,"Velocity":26,"Duration":348551,"SoundDuration":348551,"Delta":285737606},{"NoteNumber":60,"Velocity":31,"Duration":348551,"SoundDuration":348551,"Delta":285737606},{"NoteNumber":70,"Velocity":39,"Duration":179511,"SoundDuration":179511,"Delta":285906647},{"NoteNumber":71,"Velocity":39,"Duration":167875,"SoundDuration":167875,"Delta":286086158},{"NoteNumber":53,"Velocity":28,"Duration":342517,"SoundDuration":342517,"Delta":286086158},{"NoteNumber":56,"Velocity":34,"Duration":342517,"SoundDuration":342517,"Delta":286086158},{"NoteNumber":72,"Velocity":49,"Duration":174642,"SoundDuration":174642,"Delta":286254034},{"NoteNumber":75,"Velocity":43,"Duration":166574,"SoundDuration":166574,"Delta":286428676},{"NoteNumber":48,"Velocity":25,"Duration":333148,"SoundDuration":333148,"Delta":286428676},{"NoteNumber":60,"Velocity":30,"Duration":333148,"SoundDuration":333148,"Delta":286428676},{"NoteNumber":73,"Velocity":42,"Duration":166574,"SoundDuration":166574,"Delta":286595250},{"NoteNumber":72,"Velocity":50,"Duration":171860,"SoundDuration":171860,"Delta":286761825},{"NoteNumber":51,"Velocity":28,"Duration":343721,"SoundDuration":343721,"Delta":286761825},{"NoteNumber":55,"Velocity":39,"Duration":343721,"SoundDuration":343721,"Delta":286761825},{"NoteNumber":70,"Velocity":41,"Duration":171860,"SoundDuration":171860,"Delta":286933685},{"NoteNumber":68,"Velocity":40,"Duration":171860,"SoundDuration":171860,"Delta":287105546},{"NoteNumber":48,"Velocity":26,"Duration":683416,"SoundDuration":683416,"Delta":287105546},{"NoteNumber":60,"Velocity":34,"Duration":683416,"SoundDuration":683416,"Delta":287105546},{"NoteNumber":67,"Velocity":39,"Duration":171860,"SoundDuration":171860,"Delta":287277407},{"NoteNumber":66,"Velocity":36,"Duration":170068,"SoundDuration":170068,"Delta":287449268},{"NoteNumber":67,"Velocity":37,"Duration":169626,"SoundDuration":169626,"Delta":287619336},{"NoteNumber":68,"Velocity":38,"Duration":169040,"SoundDuration":169040,"Delta":287788962},{"NoteNumber":48,"Velocity":26,"Duration":337352,"SoundDuration":337352,"Delta":287788962},{"NoteNumber":60,"Velocity":31,"Duration":337352,"SoundDuration":337352,"Delta":287788962},{"NoteNumber":70,"Velocity":39,"Duration":168312,"SoundDuration":168312,"Delta":287958003},{"NoteNumber":71,"Velocity":39,"Duration":167576,"SoundDuration":167576,"Delta":288126315},{"NoteNumber":49,"Velocity":28,"Duration":342218,"SoundDuration":342218,"Delta":288126315},{"NoteNumber":53,"Velocity":34,"Duration":342218,"SoundDuration":342218,"Delta":288126315},{"NoteNumber":72,"Velocity":48,"Duration":174642,"SoundDuration":174642,"Delta":288293892},{"NoteNumber":73,"Velocity":40,"Duration":166574,"SoundDuration":166574,"Delta":288468534},{"NoteNumber":48,"Velocity":25,"Duration":333148,"SoundDuration":333148,"Delta":288468534},{"NoteNumber":60,"Velocity":30,"Duration":333148,"SoundDuration":333148,"Delta":288468534},{"NoteNumber":71,"Velocity":38,"Duration":166574,"SoundDuration":166574,"Delta":288635108},{"NoteNumber":72,"Velocity":49,"Duration":171860,"SoundDuration":171860,"Delta":288801682},{"NoteNumber":52,"Velocity":39,"Duration":343721,"SoundDuration":343721,"Delta":288801682},{"NoteNumber":70,"Velocity":41,"Duration":171860,"SoundDuration":171860,"Delta":288973543},{"NoteNumber":68,"Velocity":40,"Duration":171860,"SoundDuration":171860,"Delta":289145404},{"NoteNumber":48,"Velocity":26,"Duration":680774,"SoundDuration":680774,"Delta":289145404},{"NoteNumber":60,"Velocity":34,"Duration":680774,"SoundDuration":680774,"Delta":289145404},{"NoteNumber":67,"Velocity":39,"Duration":171860,"SoundDuration":171860,"Delta":289317265},{"NoteNumber":66,"Velocity":36,"Duration":168722,"SoundDuration":168722,"Delta":289489125},{"NoteNumber":67,"Velocity":37,"Duration":168331,"SoundDuration":168331,"Delta":289657847},{"NoteNumber":68,"Velocity":38,"Duration":168331,"SoundDuration":168331,"Delta":289826179},{"NoteNumber":48,"Velocity":26,"Duration":354601,"SoundDuration":354601,"Delta":289826179},{"NoteNumber":60,"Velocity":31,"Duration":354601,"SoundDuration":354601,"Delta":289826179},{"NoteNumber":70,"Velocity":39,"Duration":186269,"SoundDuration":186269,"Delta":289994510},{"NoteNumber":71,"Velocity":39,"Duration":167728,"SoundDuration":167728,"Delta":290180780},{"NoteNumber":53,"Velocity":28,"Duration":342370,"SoundDuration":342370,"Delta":290180780},{"NoteNumber":56,"Velocity":34,"Duration":342370,"SoundDuration":342370,"Delta":290180780},{"NoteNumber":72,"Velocity":50,"Duration":174642,"SoundDuration":174642,"Delta":290348508},{"NoteNumber":75,"Velocity":40,"Duration":166574,"SoundDuration":166574,"Delta":290523150},{"NoteNumber":48,"Velocity":25,"Duration":333148,"SoundDuration":333148,"Delta":290523150},{"NoteNumber":60,"Velocity":30,"Duration":333148,"SoundDuration":333148,"Delta":290523150},{"NoteNumber":73,"Velocity":38,"Duration":166574,"SoundDuration":166574,"Delta":290689724},{"NoteNumber":72,"Velocity":49,"Duration":171860,"SoundDuration":171860,"Delta":290856299},{"NoteNumber":51,"Velocity":28,"Duration":343721,"SoundDuration":343721,"Delta":290856299},{"NoteNumber":55,"Velocity":39,"Duration":343721,"SoundDuration":343721,"Delta":290856299},{"NoteNumber":70,"Velocity":41,"Duration":171860,"SoundDuration":171860,"Delta":291028159},{"NoteNumber":68,"Velocity":40,"Duration":171860,"SoundDuration":171860,"Delta":291200020},{"NoteNumber":48,"Velocity":26,"Duration":683416,"SoundDuration":683416,"Delta":291200020},{"NoteNumber":60,"Velocity":34,"Duration":683416,"SoundDuration":683416,"Delta":291200020},{"NoteNumber":67,"Velocity":39,"Duration":171860,"SoundDuration":171860,"Delta":291371881},{"NoteNumber":66,"Velocity":36,"Duration":170068,"SoundDuration":170068,"Delta":291543742},{"NoteNumber":67,"Velocity":37,"Duration":169626,"SoundDuration":169626,"Delta":291713810},{"NoteNumber":68,"Velocity":38,"Duration":169040,"SoundDuration":169040,"Delta":291883436},{"NoteNumber":48,"Velocity":26,"Duration":353655,"SoundDuration":353655,"Delta":291883436},{"NoteNumber":60,"Velocity":31,"Duration":353655,"SoundDuration":353655,"Delta":291883436},{"NoteNumber":70,"Velocity":39,"Duration":184615,"SoundDuration":184615,"Delta":292052477},{"NoteNumber":71,"Velocity":39,"Duration":168024,"SoundDuration":168024,"Delta":292237092},{"NoteNumber":49,"Velocity":28,"Duration":342666,"SoundDuration":342666,"Delta":292237092},{"NoteNumber":53,"Velocity":34,"Duration":342666,"SoundDuration":342666,"Delta":292237092},{"NoteNumber":72,"Velocity":50,"Duration":174642,"SoundDuration":174642,"Delta":292405117},{"NoteNumber":73,"Velocity":40,"Duration":166574,"SoundDuration":166574,"Delta":292579759},{"NoteNumber":48,"Velocity":25,"Duration":666296,"SoundDuration":666296,"Delta":292579759},{"NoteNumber":60,"Velocity":30,"Duration":666296,"SoundDuration":666296,"Delta":292579759},{"NoteNumber":71,"Velocity":38,"Duration":166574,"SoundDuration":166574,"Delta":292746333},{"NoteNumber":72,"Velocity":50,"Duration":166574,"SoundDuration":166574,"Delta":292912907},{"NoteNumber":52,"Velocity":34,"Duration":333148,"SoundDuration":333148,"Delta":292912907},{"NoteNumber":70,"Velocity":44,"Duration":166574,"SoundDuration":166574,"Delta":293079481},{"NoteNumber":68,"Velocity":43,"Duration":166574,"SoundDuration":166574,"Delta":293246056},{"NoteNumber":67,"Velocity":42,"Duration":174642,"SoundDuration":174642,"Delta":293412630},{"NoteNumber":66,"Velocity":45,"Duration":166574,"SoundDuration":166574,"Delta":293587272},{"NoteNumber":54,"Velocity":37,"Duration":166574,"SoundDuration":166574,"Delta":293587272},{"NoteNumber":67,"Velocity":46,"Duration":166574,"SoundDuration":166574,"Delta":293753846},{"NoteNumber":55,"Velocity":39,"Duration":166574,"SoundDuration":166574,"Delta":293753846},{"NoteNumber":68,"Velocity":50,"Duration":166574,"SoundDuration":166574,"Delta":293920420},{"NoteNumber":56,"Velocity":43,"Duration":166574,"SoundDuration":166574,"Delta":293920420},{"NoteNumber":70,"Velocity":55,"Duration":166574,"SoundDuration":166574,"Delta":294086995},{"NoteNumber":58,"Velocity":46,"Duration":166574,"SoundDuration":166574,"Delta":294086995},{"NoteNumber":68,"Velocity":57,"Duration":166574,"SoundDuration":166574,"Delta":294253569},{"NoteNumber":56,"Velocity":48,"Duration":166574,"SoundDuration":166574,"Delta":294253569},{"NoteNumber":67,"Velocity":57,"Duration":166574,"SoundDuration":166574,"Delta":294420143},{"NoteNumber":55,"Velocity":48,"Duration":166574,"SoundDuration":166574,"Delta":294420143},{"NoteNumber":65,"Velocity":57,"Duration":166574,"SoundDuration":166574,"Delta":294586717},{"NoteNumber":53,"Velocity":48,"Duration":166574,"SoundDuration":166574,"Delta":294586717},{"NoteNumber":64,"Velocity":59,"Duration":175582,"SoundDuration":175582,"Delta":294753292},{"NoteNumber":52,"Velocity":49,"Duration":175582,"SoundDuration":175582,"Delta":294753292},{"NoteNumber":63,"Velocity":58,"Duration":166574,"SoundDuration":166574,"Delta":294928874},{"NoteNumber":51,"Velocity":48,"Duration":166574,"SoundDuration":166574,"Delta":294928874},{"NoteNumber":64,"Velocity":61,"Duration":166574,"SoundDuration":166574,"Delta":295095448},{"NoteNumber":52,"Velocity":51,"Duration":166574,"SoundDuration":166574,"Delta":295095448},{"NoteNumber":65,"Velocity":63,"Duration":166574,"SoundDuration":166574,"Delta":295262022},{"NoteNumber":53,"Velocity":53,"Duration":166574,"SoundDuration":166574,"Delta":295262022},{"NoteNumber":67,"Velocity":65,"Duration":166574,"SoundDuration":166574,"Delta":295428597},{"NoteNumber":55,"Velocity":55,"Duration":166574,"SoundDuration":166574,"Delta":295428597},{"NoteNumber":61,"Velocity":74,"Duration":340135,"SoundDuration":340135,"Delta":295595171},{"NoteNumber":49,"Velocity":62,"Duration":340135,"SoundDuration":340135,"Delta":295595171},{"NoteNumber":67,"Velocity":66,"Duration":170067,"SoundDuration":170067,"Delta":295765239},{"NoteNumber":55,"Velocity":56,"Duration":170067,"SoundDuration":170067,"Delta":295765239},{"NoteNumber":60,"Velocity":71,"Duration":340136,"SoundDuration":340136,"Delta":295935307},{"NoteNumber":48,"Velocity":60,"Duration":340136,"SoundDuration":340136,"Delta":295935307},{"NoteNumber":67,"Velocity":63,"Duration":170068,"SoundDuration":170068,"Delta":296105375},{"NoteNumber":55,"Velocity":53,"Duration":170068,"SoundDuration":170068,"Delta":296105375},{"NoteNumber":59,"Velocity":60,"Duration":170068,"SoundDuration":170068,"Delta":296275443},{"NoteNumber":47,"Velocity":51,"Duration":170068,"SoundDuration":170068,"Delta":296275443},{"NoteNumber":60,"Velocity":63,"Duration":170067,"SoundDuration":170067,"Delta":296445511},{"NoteNumber":48,"Velocity":53,"Duration":170067,"SoundDuration":170067,"Delta":296445511},{"NoteNumber":61,"Velocity":65,"Duration":170068,"SoundDuration":170068,"Delta":296615579},{"NoteNumber":49,"Velocity":54,"Duration":170068,"SoundDuration":170068,"Delta":296615579},{"NoteNumber":63,"Velocity":68,"Duration":170068,"SoundDuration":170068,"Delta":296785647},{"NoteNumber":51,"Velocity":57,"Duration":170068,"SoundDuration":170068,"Delta":296785647},{"NoteNumber":61,"Velocity":70,"Duration":170068,"SoundDuration":170068,"Delta":296955715},{"NoteNumber":49,"Velocity":60,"Duration":170068,"SoundDuration":170068,"Delta":296955715},{"NoteNumber":60,"Velocity":68,"Duration":170067,"SoundDuration":170067,"Delta":297125783},{"NoteNumber":48,"Velocity":58,"Duration":170067,"SoundDuration":170067,"Delta":297125783},{"NoteNumber":58,"Velocity":67,"Duration":170068,"SoundDuration":170068,"Delta":297295851},{"NoteNumber":46,"Velocity":56,"Duration":170068,"SoundDuration":170068,"Delta":297295851},{"NoteNumber":56,"Velocity":65,"Duration":170068,"SoundDuration":170068,"Delta":297465919},{"NoteNumber":44,"Velocity":55,"Duration":170068,"SoundDuration":170068,"Delta":297465919},{"NoteNumber":55,"Velocity":76,"Duration":512582,"SoundDuration":512582,"Delta":297635987},{"NoteNumber":43,"Velocity":64,"Duration":512582,"SoundDuration":512582,"Delta":297635987},{"NoteNumber":60,"Velocity":69,"Duration":170959,"SoundDuration":170959,"Delta":297806649},{"NoteNumber":48,"Velocity":58,"Duration":170959,"SoundDuration":170959,"Delta":297806649},{"NoteNumber":58,"Velocity":70,"Duration":170959,"SoundDuration":170959,"Delta":297977609},{"NoteNumber":46,"Velocity":58,"Duration":170959,"SoundDuration":170959,"Delta":297977609},{"NoteNumber":54,"Velocity":70,"Duration":170959,"SoundDuration":170959,"Delta":298148569},{"NoteNumber":42,"Velocity":59,"Duration":170959,"SoundDuration":170959,"Delta":298148569},{"NoteNumber":53,"Velocity":73,"Duration":521135,"SoundDuration":521135,"Delta":298319529},{"NoteNumber":41,"Velocity":62,"Duration":521135,"SoundDuration":521135,"Delta":298319529},{"NoteNumber":60,"Velocity":70,"Duration":173711,"SoundDuration":173711,"Delta":298493240},{"NoteNumber":48,"Velocity":58,"Duration":173711,"SoundDuration":173711,"Delta":298493240},{"NoteNumber":58,"Velocity":70,"Duration":173711,"SoundDuration":173711,"Delta":298666952},{"NoteNumber":46,"Velocity":58,"Duration":173711,"SoundDuration":173711,"Delta":298666952},{"NoteNumber":52,"Velocity":70,"Duration":173711,"SoundDuration":173711,"Delta":298840664},{"NoteNumber":40,"Velocity":59,"Duration":173711,"SoundDuration":173711,"Delta":298840664},{"NoteNumber":51,"Velocity":79,"Duration":532481,"SoundDuration":532481,"Delta":299014376},{"NoteNumber":39,"Velocity":66,"Duration":532481,"SoundDuration":532481,"Delta":299014376},{"NoteNumber":56,"Velocity":72,"Duration":177493,"SoundDuration":177493,"Delta":299191869},{"NoteNumber":44,"Velocity":60,"Duration":177493,"SoundDuration":177493,"Delta":299191869},{"NoteNumber":55,"Velocity":74,"Duration":177493,"SoundDuration":177493,"Delta":299369363},{"NoteNumber":43,"Velocity":61,"Duration":177493,"SoundDuration":177493,"Delta":299369363},{"NoteNumber":51,"Velocity":75,"Duration":178848,"SoundDuration":178848,"Delta":299546857},{"NoteNumber":39,"Velocity":63,"Duration":178848,"SoundDuration":178848,"Delta":299546857},{"NoteNumber":49,"Velocity":82,"Duration":568526,"SoundDuration":568526,"Delta":299725705},{"NoteNumber":37,"Velocity":69,"Duration":568526,"SoundDuration":568526,"Delta":299725705},{"NoteNumber":55,"Velocity":78,"Duration":189411,"SoundDuration":189411,"Delta":299912036},{"NoteNumber":43,"Velocity":65,"Duration":189411,"SoundDuration":189411,"Delta":299912036},{"NoteNumber":53,"Velocity":81,"Duration":192783,"SoundDuration":192783,"Delta":300101448},{"NoteNumber":41,"Velocity":68,"Duration":192783,"SoundDuration":192783,"Delta":300101448},{"NoteNumber":49,"Velocity":82,"Duration":197530,"SoundDuration":197530,"Delta":300294231},{"NoteNumber":37,"Velocity":68,"Duration":197530,"SoundDuration":197530,"Delta":300294231},{"NoteNumber":48,"Velocity":88,"Duration":448280,"SoundDuration":448280,"Delta":300491762},{"NoteNumber":36,"Velocity":74,"Duration":448280,"SoundDuration":448280,"Delta":300491762},{"NoteNumber":51,"Velocity":82,"Duration":234184,"SoundDuration":234184,"Delta":300705858},{"NoteNumber":39,"Velocity":70,"Duration":234184,"SoundDuration":234184,"Delta":300705858},{"NoteNumber":46,"Velocity":84,"Duration":556066,"SoundDuration":556066,"Delta":300940043},{"NoteNumber":34,"Velocity":71,"Duration":556066,"SoundDuration":556066,"Delta":300940043},{"NoteNumber":51,"Velocity":86,"Duration":295037,"SoundDuration":295037,"Delta":301201072},{"NoteNumber":39,"Velocity":73,"Duration":295037,"SoundDuration":295037,"Delta":301201072},{"NoteNumber":77,"Velocity":82,"Duration":617894,"SoundDuration":617894,"Delta":301496109},{"NoteNumber":85,"Velocity":88,"Duration":617894,"SoundDuration":617894,"Delta":301496109},{"NoteNumber":89,"Velocity":102,"Duration":617894,"SoundDuration":617894,"Delta":301496109},{"NoteNumber":32,"Velocity":70,"Duration":238853,"SoundDuration":238853,"Delta":301496109},{"NoteNumber":44,"Velocity":84,"Duration":238853,"SoundDuration":238853,"Delta":301496109},{"NoteNumber":60,"Velocity":67,"Duration":298950,"SoundDuration":298950,"Delta":301973816},{"NoteNumber":51,"Velocity":67,"Duration":298950,"SoundDuration":298950,"Delta":301973816},{"NoteNumber":63,"Velocity":79,"Duration":298950,"SoundDuration":298950,"Delta":301973816},{"NoteNumber":75,"Velocity":79,"Duration":142887,"SoundDuration":142887,"Delta":302114003},{"NoteNumber":84,"Velocity":79,"Duration":142887,"SoundDuration":142887,"Delta":302114003},{"NoteNumber":87,"Velocity":93,"Duration":142887,"SoundDuration":142887,"Delta":302114003},{"NoteNumber":75,"Velocity":79,"Duration":350877,"SoundDuration":350877,"Delta":302272767},{"NoteNumber":84,"Velocity":79,"Duration":350877,"SoundDuration":350877,"Delta":302272767},{"NoteNumber":87,"Velocity":93,"Duration":350877,"SoundDuration":350877,"Delta":302272767},{"NoteNumber":68,"Velocity":77,"Duration":350877,"SoundDuration":350877,"Delta":302272767},{"NoteNumber":60,"Velocity":77,"Duration":350877,"SoundDuration":350877,"Delta":302272767},{"NoteNumber":56,"Velocity":64,"Duration":350877,"SoundDuration":350877,"Delta":302272767},{"NoteNumber":63,"Velocity":71,"Duration":87719,"SoundDuration":87719,"Delta":302535925},{"NoteNumber":63,"Velocity":71,"Duration":69364,"SoundDuration":69364,"Delta":302623644},{"NoteNumber":39,"Velocity":72,"Duration":86705,"SoundDuration":86705,"Delta":302623644},{"NoteNumber":51,"Velocity":85,"Duration":86705,"SoundDuration":86705,"Delta":302623644},{"NoteNumber":65,"Velocity":71,"Duration":69364,"SoundDuration":69364,"Delta":302693008},{"NoteNumber":63,"Velocity":71,"Duration":69364,"SoundDuration":69364,"Delta":302762372},{"NoteNumber":62,"Velocity":71,"Duration":69364,"SoundDuration":69364,"Delta":302831737},{"NoteNumber":63,"Velocity":71,"Duration":69364,"SoundDuration":69364,"Delta":302901101},{"NoteNumber":68,"Velocity":87,"Duration":166666,"SoundDuration":166666,"Delta":302970465},{"NoteNumber":44,"Velocity":73,"Duration":166666,"SoundDuration":166666,"Delta":302970465},{"NoteNumber":56,"Velocity":86,"Duration":166666,"SoundDuration":166666,"Delta":302970465},{"NoteNumber":72,"Velocity":74,"Duration":166666,"SoundDuration":166666,"Delta":303303799},{"NoteNumber":80,"Velocity":74,"Duration":166666,"SoundDuration":166666,"Delta":303303799},{"NoteNumber":84,"Velocity":88,"Duration":166666,"SoundDuration":166666,"Delta":303303799},{"NoteNumber":27,"Velocity":61,"Duration":343137,"SoundDuration":343137,"Delta":303303799},{"NoteNumber":39,"Velocity":73,"Duration":343137,"SoundDuration":343137,"Delta":303303799},{"NoteNumber":73,"Velocity":73,"Duration":176470,"SoundDuration":176470,"Delta":303470465},{"NoteNumber":82,"Velocity":73,"Duration":176470,"SoundDuration":176470,"Delta":303470465},{"NoteNumber":85,"Velocity":86,"Duration":176470,"SoundDuration":176470,"Delta":303470465},{"NoteNumber":77,"Velocity":79,"Duration":174836,"SoundDuration":174836,"Delta":303646936},{"NoteNumber":85,"Velocity":79,"Duration":174836,"SoundDuration":174836,"Delta":303646936},{"NoteNumber":89,"Velocity":93,"Duration":174836,"SoundDuration":174836,"Delta":303646936},{"NoteNumber":32,"Velocity":67,"Duration":341503,"SoundDuration":341503,"Delta":303646936},{"NoteNumber":44,"Velocity":79,"Duration":341503,"SoundDuration":341503,"Delta":303646936},{"NoteNumber":75,"Velocity":74,"Duration":75000,"SoundDuration":75000,"Delta":303905106},{"NoteNumber":84,"Velocity":74,"Duration":75000,"SoundDuration":75000,"Delta":303905106},{"NoteNumber":87,"Velocity":88,"Duration":75000,"SoundDuration":75000,"Delta":303905106},{"NoteNumber":75,"Velocity":74,"Duration":143540,"SoundDuration":143540,"Delta":303988439},{"NoteNumber":84,"Velocity":74,"Duration":143540,"SoundDuration":143540,"Delta":303988439},{"NoteNumber":87,"Velocity":93,"Duration":143540,"SoundDuration":143540,"Delta":303988439},{"NoteNumber":60,"Velocity":61,"Duration":322112,"SoundDuration":322112,"Delta":303988439},{"NoteNumber":63,"Velocity":73,"Duration":322112,"SoundDuration":322112,"Delta":303988439},{"NoteNumber":51,"Velocity":61,"Duration":322112,"SoundDuration":322112,"Delta":303988439},{"NoteNumber":74,"Velocity":74,"Duration":178571,"SoundDuration":178571,"Delta":304131980},{"NoteNumber":83,"Velocity":74,"Duration":178571,"SoundDuration":178571,"Delta":304131980},{"NoteNumber":86,"Velocity":88,"Duration":178571,"SoundDuration":178571,"Delta":304131980},{"NoteNumber":75,"Velocity":74,"Duration":357143,"SoundDuration":357143,"Delta":304310551},{"NoteNumber":84,"Velocity":74,"Duration":357143,"SoundDuration":357143,"Delta":304310551},{"NoteNumber":87,"Velocity":88,"Duration":357143,"SoundDuration":357143,"Delta":304310551},{"NoteNumber":68,"Velocity":75,"Duration":357143,"SoundDuration":357143,"Delta":304310551},{"NoteNumber":60,"Velocity":75,"Duration":357143,"SoundDuration":357143,"Delta":304310551},{"NoteNumber":56,"Velocity":63,"Duration":357143,"SoundDuration":357143,"Delta":304310551},{"NoteNumber":63,"Velocity":70,"Duration":89285,"SoundDuration":89285,"Delta":304578409},{"NoteNumber":63,"Velocity":70,"Duration":68181,"SoundDuration":68181,"Delta":304667694},{"NoteNumber":39,"Velocity":67,"Duration":85227,"SoundDuration":85227,"Delta":304667694},{"NoteNumber":51,"Velocity":80,"Duration":85227,"SoundDuration":85227,"Delta":304667694},{"NoteNumber":65,"Velocity":70,"Duration":68181,"SoundDuration":68181,"Delta":304735876},{"NoteNumber":63,"Velocity":70,"Duration":68181,"SoundDuration":68181,"Delta":304804058},{"NoteNumber":62,"Velocity":70,"Duration":68181,"SoundDuration":68181,"Delta":304872240},{"NoteNumber":63,"Velocity":70,"Duration":68181,"SoundDuration":68181,"Delta":304940422},{"NoteNumber":68,"Velocity":87,"Duration":161290,"SoundDuration":161290,"Delta":305008603},{"NoteNumber":44,"Velocity":73,"Duration":161290,"SoundDuration":161290,"Delta":305008603},{"NoteNumber":56,"Velocity":86,"Duration":161290,"SoundDuration":161290,"Delta":305008603},{"NoteNumber":84,"Velocity":88,"Duration":166666,"SoundDuration":166666,"Delta":305331184},{"NoteNumber":72,"Velocity":74,"Duration":166666,"SoundDuration":166666,"Delta":305331184},{"NoteNumber":80,"Velocity":74,"Duration":166666,"SoundDuration":166666,"Delta":305331184},{"NoteNumber":27,"Velocity":61,"Duration":336158,"SoundDuration":336158,"Delta":305331184},{"NoteNumber":39,"Velocity":73,"Duration":336158,"SoundDuration":336158,"Delta":305331184},{"NoteNumber":85,"Velocity":86,"Duration":169491,"SoundDuration":169491,"Delta":305497851},{"NoteNumber":73,"Velocity":73,"Duration":169491,"SoundDuration":169491,"Delta":305497851},{"NoteNumber":82,"Velocity":73,"Duration":169491,"SoundDuration":169491,"Delta":305497851},{"NoteNumber":85,"Velocity":79,"Duration":166666,"SoundDuration":166666,"Delta":305667342},{"NoteNumber":89,"Velocity":93,"Duration":166666,"SoundDuration":166666,"Delta":305667342},{"NoteNumber":77,"Velocity":79,"Duration":166666,"SoundDuration":166666,"Delta":305667342},{"NoteNumber":32,"Velocity":67,"Duration":333333,"SoundDuration":333333,"Delta":305667342},{"NoteNumber":44,"Velocity":79,"Duration":333333,"SoundDuration":333333,"Delta":305667342},{"NoteNumber":75,"Velocity":74,"Duration":309524,"SoundDuration":309524,"Delta":305834009},{"NoteNumber":84,"Velocity":74,"Duration":309524,"SoundDuration":309524,"Delta":305834009},{"NoteNumber":87,"Velocity":88,"Duration":83333,"SoundDuration":83333,"Delta":305834009},{"NoteNumber":89,"Velocity":81,"Duration":83333,"SoundDuration":83333,"Delta":305917342},{"NoteNumber":87,"Velocity":93,"Duration":142857,"SoundDuration":142857,"Delta":306000676},{"NoteNumber":60,"Velocity":61,"Duration":313311,"SoundDuration":313311,"Delta":306000676},{"NoteNumber":63,"Velocity":73,"Duration":313311,"SoundDuration":313311,"Delta":306000676},{"NoteNumber":51,"Velocity":61,"Duration":313311,"SoundDuration":313311,"Delta":306000676},{"NoteNumber":83,"Velocity":74,"Duration":170454,"SoundDuration":170454,"Delta":306143533},{"NoteNumber":86,"Velocity":88,"Duration":170454,"SoundDuration":170454,"Delta":306143533},{"NoteNumber":74,"Velocity":74,"Duration":170454,"SoundDuration":170454,"Delta":306143533},{"NoteNumber":85,"Velocity":79,"Duration":166666,"SoundDuration":166666,"Delta":306313987},{"NoteNumber":89,"Velocity":93,"Duration":166666,"SoundDuration":166666,"Delta":306313987},{"NoteNumber":77,"Velocity":79,"Duration":166666,"SoundDuration":166666,"Delta":306313987},{"NoteNumber":68,"Velocity":75,"Duration":333333,"SoundDuration":333333,"Delta":306313987},{"NoteNumber":60,"Velocity":75,"Duration":333333,"SoundDuration":333333,"Delta":306313987},{"NoteNumber":56,"Velocity":63,"Duration":333333,"SoundDuration":333333,"Delta":306313987},{"NoteNumber":84,"Velocity":74,"Duration":318181,"SoundDuration":318181,"Delta":306480654},{"NoteNumber":87,"Velocity":88,"Duration":83333,"SoundDuration":83333,"Delta":306480654},{"NoteNumber":75,"Velocity":74,"Duration":318181,"SoundDuration":318181,"Delta":306480654},{"NoteNumber":89,"Velocity":81,"Duration":83333,"SoundDuration":83333,"Delta":306563987},{"NoteNumber":87,"Velocity":93,"Duration":151515,"SoundDuration":151515,"Delta":306647321},{"NoteNumber":39,"Velocity":61,"Duration":151515,"SoundDuration":151515,"Delta":306647321},{"NoteNumber":51,"Velocity":73,"Duration":151515,"SoundDuration":151515,"Delta":306647321},{"NoteNumber":74,"Velocity":74,"Duration":172413,"SoundDuration":172413,"Delta":306798836},{"NoteNumber":83,"Velocity":74,"Duration":172413,"SoundDuration":172413,"Delta":306798836},{"NoteNumber":86,"Velocity":88,"Duration":172413,"SoundDuration":172413,"Delta":306798836},{"NoteNumber":75,"Velocity":74,"Duration":271561,"SoundDuration":271561,"Delta":306971250},{"NoteNumber":84,"Velocity":74,"Duration":271561,"SoundDuration":271561,"Delta":306971250},{"NoteNumber":87,"Velocity":88,"Duration":271561,"SoundDuration":271561,"Delta":306971250},{"NoteNumber":44,"Velocity":64,"Duration":166666,"SoundDuration":166666,"Delta":306971250},{"NoteNumber":56,"Velocity":77,"Duration":166666,"SoundDuration":166666,"Delta":306971250},{"NoteNumber":75,"Velocity":72,"Duration":381680,"SoundDuration":381680,"Delta":307242812},{"NoteNumber":39,"Velocity":62,"Duration":337038,"SoundDuration":337038,"Delta":307242812},{"NoteNumber":82,"Velocity":72,"Duration":329233,"SoundDuration":329233,"Delta":307295259},{"NoteNumber":46,"Velocity":62,"Duration":284590,"SoundDuration":284590,"Delta":307295259},{"NoteNumber":90,"Velocity":85,"Duration":276785,"SoundDuration":276785,"Delta":307347707},{"NoteNumber":54,"Velocity":74,"Duration":232142,"SoundDuration":232142,"Delta":307347707},{"NoteNumber":41,"Velocity":62,"Duration":357142,"SoundDuration":357142,"Delta":307579850},{"NoteNumber":75,"Velocity":70,"Duration":357143,"SoundDuration":357143,"Delta":307624493},{"NoteNumber":48,"Velocity":62,"Duration":446428,"SoundDuration":446428,"Delta":307624493},{"NoteNumber":81,"Velocity":70,"Duration":312500,"SoundDuration":312500,"Delta":307669135},{"NoteNumber":51,"Velocity":74,"Duration":267857,"SoundDuration":267857,"Delta":307669135},{"NoteNumber":89,"Velocity":83,"Duration":267857,"SoundDuration":267857,"Delta":307713778},{"NoteNumber":57,"Velocity":74,"Duration":223214,"SoundDuration":223214,"Delta":307713778},{"NoteNumber":72,"Velocity":70,"Duration":401785,"SoundDuration":401785,"Delta":307936993},{"NoteNumber":53,"Velocity":61,"Duration":357143,"SoundDuration":357143,"Delta":307936993},{"NoteNumber":75,"Velocity":70,"Duration":357143,"SoundDuration":357143,"Delta":307981636},{"NoteNumber":60,"Velocity":61,"Duration":312500,"SoundDuration":312500,"Delta":307981636},{"NoteNumber":77,"Velocity":70,"Duration":312500,"SoundDuration":312500,"Delta":308026278},{"NoteNumber":63,"Velocity":73,"Duration":267857,"SoundDuration":267857,"Delta":308026278},{"NoteNumber":84,"Velocity":83,"Duration":267857,"SoundDuration":267857,"Delta":308070921},{"NoteNumber":69,"Velocity":73,"Duration":223214,"SoundDuration":223214,"Delta":308070921},{"NoteNumber":70,"Velocity":70,"Duration":357143,"SoundDuration":357143,"Delta":308338779},{"NoteNumber":46,"Velocity":63,"Duration":446428,"SoundDuration":446428,"Delta":308338779},{"NoteNumber":77,"Velocity":70,"Duration":312500,"SoundDuration":312500,"Delta":308383421},{"NoteNumber":53,"Velocity":75,"Duration":401785,"SoundDuration":401785,"Delta":308383421},{"NoteNumber":85,"Velocity":83,"Duration":267857,"SoundDuration":267857,"Delta":308428064},{"NoteNumber":61,"Velocity":75,"Duration":357143,"SoundDuration":357143,"Delta":308428064},{"NoteNumber":78,"Velocity":80,"Duration":121212,"SoundDuration":121212,"Delta":308785207},{"NoteNumber":42,"Velocity":60,"Duration":363636,"SoundDuration":363636,"Delta":308785207},{"NoteNumber":54,"Velocity":71,"Duration":363636,"SoundDuration":363636,"Delta":308785207},{"NoteNumber":66,"Velocity":80,"Duration":121212,"SoundDuration":121212,"Delta":308906419},{"NoteNumber":78,"Velocity":80,"Duration":121212,"SoundDuration":121212,"Delta":309027632},{"NoteNumber":65,"Velocity":71,"Duration":352940,"SoundDuration":352940,"Delta":309148844},{"NoteNumber":77,"Velocity":84,"Duration":352940,"SoundDuration":352940,"Delta":309148844},{"NoteNumber":41,"Velocity":60,"Duration":352940,"SoundDuration":352940,"Delta":309148844},{"NoteNumber":53,"Velocity":71,"Duration":352940,"SoundDuration":352940,"Delta":309148844},{"NoteNumber":61,"Velocity":74,"Duration":387096,"SoundDuration":387096,"Delta":309501785},{"NoteNumber":73,"Velocity":79,"Duration":387096,"SoundDuration":387096,"Delta":309501785},{"NoteNumber":37,"Velocity":58,"Duration":387096,"SoundDuration":387096,"Delta":309501785},{"NoteNumber":49,"Velocity":69,"Duration":387096,"SoundDuration":387096,"Delta":309501785},{"NoteNumber":78,"Velocity":82,"Duration":536387,"SoundDuration":536387,"Delta":309888882},{"NoteNumber":87,"Velocity":82,"Duration":536387,"SoundDuration":536387,"Delta":309888882},{"NoteNumber":90,"Velocity":97,"Duration":536387,"SoundDuration":536387,"Delta":309888882},{"NoteNumber":34,"Velocity":67,"Duration":196078,"SoundDuration":196078,"Delta":309888882},{"NoteNumber":46,"Velocity":79,"Duration":196078,"SoundDuration":196078,"Delta":309888882},{"NoteNumber":61,"Velocity":79,"Duration":305555,"SoundDuration":305555,"Delta":310281039},{"NoteNumber":53,"Velocity":67,"Duration":305555,"SoundDuration":305555,"Delta":310281039},{"NoteNumber":65,"Velocity":79,"Duration":305555,"SoundDuration":305555,"Delta":310281039},{"NoteNumber":77,"Velocity":79,"Duration":145192,"SoundDuration":145192,"Delta":310425270},{"NoteNumber":85,"Velocity":79,"Duration":145192,"SoundDuration":145192,"Delta":310425270},{"NoteNumber":89,"Velocity":93,"Duration":145192,"SoundDuration":145192,"Delta":310425270},{"NoteNumber":77,"Velocity":79,"Duration":346820,"SoundDuration":346820,"Delta":310586595},{"NoteNumber":85,"Velocity":79,"Duration":346820,"SoundDuration":346820,"Delta":310586595},{"NoteNumber":89,"Velocity":93,"Duration":346820,"SoundDuration":346820,"Delta":310586595},{"NoteNumber":70,"Velocity":77,"Duration":346820,"SoundDuration":346820,"Delta":310586595},{"NoteNumber":61,"Velocity":77,"Duration":346820,"SoundDuration":346820,"Delta":310586595},{"NoteNumber":58,"Velocity":64,"Duration":346820,"SoundDuration":346820,"Delta":310586595},{"NoteNumber":65,"Velocity":71,"Duration":86705,"SoundDuration":86705,"Delta":310846710},{"NoteNumber":65,"Velocity":71,"Duration":69364,"SoundDuration":69364,"Delta":310933416},{"NoteNumber":41,"Velocity":72,"Duration":86705,"SoundDuration":86705,"Delta":310933416},{"NoteNumber":53,"Velocity":85,"Duration":86705,"SoundDuration":86705,"Delta":310933416},{"NoteNumber":66,"Velocity":71,"Duration":69364,"SoundDuration":69364,"Delta":311002780},{"NoteNumber":65,"Velocity":71,"Duration":69364,"SoundDuration":69364,"Delta":311072144},{"NoteNumber":64,"Velocity":71,"Duration":69364,"SoundDuration":69364,"Delta":311141508},{"NoteNumber":65,"Velocity":71,"Duration":69364,"SoundDuration":69364,"Delta":311210872},{"NoteNumber":70,"Velocity":87,"Duration":166666,"SoundDuration":166666,"Delta":311280237},{"NoteNumber":46,"Velocity":73,"Duration":166666,"SoundDuration":166666,"Delta":311280237},{"NoteNumber":58,"Velocity":86,"Duration":166666,"SoundDuration":166666,"Delta":311280237},{"NoteNumber":73,"Velocity":74,"Duration":166666,"SoundDuration":166666,"Delta":311613570},{"NoteNumber":85,"Velocity":88,"Duration":166666,"SoundDuration":166666,"Delta":311613570},{"NoteNumber":82,"Velocity":74,"Duration":166666,"SoundDuration":166666,"Delta":311613570},{"NoteNumber":29,"Velocity":61,"Duration":343137,"SoundDuration":343137,"Delta":311613570},{"NoteNumber":41,"Velocity":73,"Duration":343137,"SoundDuration":343137,"Delta":311613570},{"NoteNumber":75,"Velocity":73,"Duration":176470,"SoundDuration":176470,"Delta":311780237},{"NoteNumber":84,"Velocity":73,"Duration":176470,"SoundDuration":176470,"Delta":311780237},{"NoteNumber":87,"Velocity":86,"Duration":176470,"SoundDuration":176470,"Delta":311780237},{"NoteNumber":90,"Velocity":93,"Duration":174836,"SoundDuration":174836,"Delta":311956707},{"NoteNumber":78,"Velocity":79,"Duration":174836,"SoundDuration":174836,"Delta":311956707},{"NoteNumber":87,"Velocity":79,"Duration":174836,"SoundDuration":174836,"Delta":311956707},{"NoteNumber":34,"Velocity":67,"Duration":341503,"SoundDuration":341503,"Delta":311956707},{"NoteNumber":46,"Velocity":79,"Duration":341503,"SoundDuration":341503,"Delta":311956707},{"NoteNumber":77,"Velocity":74,"Duration":75000,"SoundDuration":75000,"Delta":312214877},{"NoteNumber":85,"Velocity":74,"Duration":75000,"SoundDuration":75000,"Delta":312214877},{"NoteNumber":89,"Velocity":88,"Duration":75000,"SoundDuration":75000,"Delta":312214877},{"NoteNumber":85,"Velocity":74,"Duration":143540,"SoundDuration":143540,"Delta":312298211},{"NoteNumber":77,"Velocity":74,"Duration":143540,"SoundDuration":143540,"Delta":312298211},{"NoteNumber":89,"Velocity":93,"Duration":143540,"SoundDuration":143540,"Delta":312298211},{"NoteNumber":61,"Velocity":61,"Duration":322112,"SoundDuration":322112,"Delta":312298211},{"NoteNumber":65,"Velocity":73,"Duration":322112,"SoundDuration":322112,"Delta":312298211},{"NoteNumber":53,"Velocity":61,"Duration":322112,"SoundDuration":322112,"Delta":312298211},{"NoteNumber":76,"Velocity":74,"Duration":178571,"SoundDuration":178571,"Delta":312441751},{"NoteNumber":88,"Velocity":88,"Duration":178571,"SoundDuration":178571,"Delta":312441751},{"NoteNumber":84,"Velocity":74,"Duration":178571,"SoundDuration":178571,"Delta":312441751},{"NoteNumber":77,"Velocity":88,"Duration":357143,"SoundDuration":357143,"Delta":312620323},{"NoteNumber":85,"Velocity":74,"Duration":357143,"SoundDuration":357143,"Delta":312620323},{"NoteNumber":89,"Velocity":88,"Duration":357143,"SoundDuration":357143,"Delta":312620323},{"NoteNumber":70,"Velocity":75,"Duration":357143,"SoundDuration":357143,"Delta":312620323},{"NoteNumber":61,"Velocity":75,"Duration":357143,"SoundDuration":357143,"Delta":312620323},{"NoteNumber":58,"Velocity":63,"Duration":357143,"SoundDuration":357143,"Delta":312620323},{"NoteNumber":65,"Velocity":71,"Duration":89285,"SoundDuration":89285,"Delta":312888180},{"NoteNumber":65,"Velocity":71,"Duration":68181,"SoundDuration":68181,"Delta":312977466},{"NoteNumber":41,"Velocity":67,"Duration":85227,"SoundDuration":85227,"Delta":312977466},{"NoteNumber":53,"Velocity":80,"Duration":85227,"SoundDuration":85227,"Delta":312977466},{"NoteNumber":66,"Velocity":71,"Duration":68181,"SoundDuration":68181,"Delta":313045648},{"NoteNumber":65,"Velocity":71,"Duration":68181,"SoundDuration":68181,"Delta":313113829},{"NoteNumber":64,"Velocity":71,"Duration":68181,"SoundDuration":68181,"Delta":313182011},{"NoteNumber":65,"Velocity":71,"Duration":68181,"SoundDuration":68181,"Delta":313250193},{"NoteNumber":70,"Velocity":87,"Duration":322580,"SoundDuration":322580,"Delta":313318375},{"NoteNumber":46,"Velocity":73,"Duration":161290,"SoundDuration":161290,"Delta":313318375},{"NoteNumber":58,"Velocity":86,"Duration":161290,"SoundDuration":161290,"Delta":313318375},{"NoteNumber":79,"Velocity":81,"Duration":175438,"SoundDuration":175438,"Delta":313640955},{"NoteNumber":91,"Velocity":96,"Duration":175438,"SoundDuration":175438,"Delta":313640955},{"NoteNumber":85,"Velocity":81,"Duration":175438,"SoundDuration":175438,"Delta":313640955},{"NoteNumber":34,"Velocity":61,"Duration":359619,"SoundDuration":359619,"Delta":313640955},{"NoteNumber":46,"Velocity":73,"Duration":359619,"SoundDuration":359619,"Delta":313640955},{"NoteNumber":80,"Velocity":80,"Duration":184181,"SoundDuration":184181,"Delta":313816394},{"NoteNumber":92,"Velocity":94,"Duration":184181,"SoundDuration":184181,"Delta":313816394},{"NoteNumber":84,"Velocity":85,"Duration":173410,"SoundDuration":173410,"Delta":314000575},{"NoteNumber":96,"Velocity":101,"Duration":173410,"SoundDuration":173410,"Delta":314000575},{"NoteNumber":27,"Velocity":67,"Duration":173410,"SoundDuration":173410,"Delta":314000575},{"NoteNumber":39,"Velocity":79,"Duration":173410,"SoundDuration":173410,"Delta":314000575},{"NoteNumber":87,"Velocity":74,"Duration":173410,"SoundDuration":173410,"Delta":314173986},{"NoteNumber":91,"Velocity":88,"Duration":173410,"SoundDuration":173410,"Delta":314173986},{"NoteNumber":96,"Velocity":93,"Duration":142857,"SoundDuration":142857,"Delta":314347396},{"NoteNumber":84,"Velocity":79,"Duration":142857,"SoundDuration":142857,"Delta":314347396},{"NoteNumber":67,"Velocity":60,"Duration":313311,"SoundDuration":313311,"Delta":314347396},{"NoteNumber":61,"Velocity":60,"Duration":313311,"SoundDuration":313311,"Delta":314347396},{"NoteNumber":72,"Velocity":72,"Duration":142857,"SoundDuration":142857,"Delta":314347396},{"NoteNumber":63,"Velocity":60,"Duration":313311,"SoundDuration":313311,"Delta":314347396},{"NoteNumber":70,"Velocity":70,"Duration":170454,"SoundDuration":170454,"Delta":314490253},{"NoteNumber":94,"Velocity":92,"Duration":76704,"SoundDuration":76704,"Delta":314575481},{"NoteNumber":82,"Velocity":78,"Duration":76704,"SoundDuration":76704,"Delta":314575481},{"NoteNumber":82,"Velocity":81,"Duration":166666,"SoundDuration":166666,"Delta":314660708},{"NoteNumber":94,"Velocity":97,"Duration":166666,"SoundDuration":166666,"Delta":314660708},{"NoteNumber":51,"Velocity":75,"Duration":166666,"SoundDuration":166666,"Delta":314660708},{"NoteNumber":84,"Velocity":70,"Duration":166666,"SoundDuration":166666,"Delta":314827375},{"NoteNumber":87,"Velocity":84,"Duration":166666,"SoundDuration":166666,"Delta":314827375},{"NoteNumber":94,"Velocity":90,"Duration":142857,"SoundDuration":142857,"Delta":314994041},{"NoteNumber":82,"Velocity":75,"Duration":142857,"SoundDuration":142857,"Delta":314994041},{"NoteNumber":70,"Velocity":72,"Duration":142857,"SoundDuration":142857,"Delta":314994041},{"NoteNumber":60,"Velocity":58,"Duration":313311,"SoundDuration":313311,"Delta":314994041},{"NoteNumber":63,"Velocity":69,"Duration":313311,"SoundDuration":313311,"Delta":314994041},{"NoteNumber":68,"Velocity":70,"Duration":170454,"SoundDuration":170454,"Delta":315136899},{"NoteNumber":80,"Velocity":68,"Duration":76704,"SoundDuration":76704,"Delta":315222126},{"NoteNumber":92,"Velocity":80,"Duration":76704,"SoundDuration":76704,"Delta":315222126},{"NoteNumber":80,"Velocity":79,"Duration":166666,"SoundDuration":166666,"Delta":315307353},{"NoteNumber":92,"Velocity":93,"Duration":166666,"SoundDuration":166666,"Delta":315307353},{"NoteNumber":51,"Velocity":73,"Duration":166666,"SoundDuration":166666,"Delta":315307353},{"NoteNumber":87,"Velocity":79,"Duration":166666,"SoundDuration":166666,"Delta":315474020},{"NoteNumber":82,"Velocity":67,"Duration":166666,"SoundDuration":166666,"Delta":315474020},{"NoteNumber":92,"Velocity":88,"Duration":142857,"SoundDuration":142857,"Delta":315640687},{"NoteNumber":80,"Velocity":74,"Duration":142857,"SoundDuration":142857,"Delta":315640687},{"NoteNumber":68,"Velocity":72,"Duration":142857,"SoundDuration":142857,"Delta":315640687},{"NoteNumber":58,"Velocity":56,"Duration":313311,"SoundDuration":313311,"Delta":315640687},{"NoteNumber":63,"Velocity":67,"Duration":313311,"SoundDuration":313311,"Delta":315640687},{"NoteNumber":67,"Velocity":70,"Duration":170454,"SoundDuration":170454,"Delta":315783544},{"NoteNumber":91,"Velocity":79,"Duration":76704,"SoundDuration":76704,"Delta":315868771},{"NoteNumber":79,"Velocity":67,"Duration":76704,"SoundDuration":76704,"Delta":315868771},{"NoteNumber":79,"Velocity":75,"Duration":166666,"SoundDuration":166666,"Delta":315953998},{"NoteNumber":91,"Velocity":90,"Duration":166666,"SoundDuration":166666,"Delta":315953998},{"NoteNumber":46,"Velocity":70,"Duration":166666,"SoundDuration":166666,"Delta":315953998},{"NoteNumber":86,"Velocity":78,"Duration":166666,"SoundDuration":166666,"Delta":316120665},{"NoteNumber":82,"Velocity":66,"Duration":166666,"SoundDuration":166666,"Delta":316120665},{"NoteNumber":79,"Velocity":72,"Duration":142857,"SoundDuration":142857,"Delta":316287332},{"NoteNumber":91,"Velocity":85,"Duration":142857,"SoundDuration":142857,"Delta":316287332},{"NoteNumber":67,"Velocity":72,"Duration":142857,"SoundDuration":142857,"Delta":316287332},{"NoteNumber":56,"Velocity":55,"Duration":313311,"SoundDuration":313311,"Delta":316287332},{"NoteNumber":62,"Velocity":66,"Duration":313311,"SoundDuration":313311,"Delta":316287332},{"NoteNumber":58,"Velocity":55,"Duration":313311,"SoundDuration":313311,"Delta":316287332},{"NoteNumber":65,"Velocity":70,"Duration":170454,"SoundDuration":170454,"Delta":316430189},{"NoteNumber":89,"Velocity":81,"Duration":76704,"SoundDuration":76704,"Delta":316515416},{"NoteNumber":77,"Velocity":68,"Duration":76704,"SoundDuration":76704,"Delta":316515416},{"NoteNumber":89,"Velocity":88,"Duration":166666,"SoundDuration":166666,"Delta":316600644},{"NoteNumber":77,"Velocity":73,"Duration":166666,"SoundDuration":166666,"Delta":316600644},{"NoteNumber":51,"Velocity":72,"Duration":166666,"SoundDuration":166666,"Delta":316600644},{"NoteNumber":82,"Velocity":75,"Duration":166666,"SoundDuration":166666,"Delta":316767310},{"NoteNumber":79,"Velocity":64,"Duration":166666,"SoundDuration":166666,"Delta":316767310},{"NoteNumber":77,"Velocity":69,"Duration":142857,"SoundDuration":142857,"Delta":316933977},{"NoteNumber":89,"Velocity":82,"Duration":142857,"SoundDuration":142857,"Delta":316933977},{"NoteNumber":65,"Velocity":72,"Duration":142857,"SoundDuration":142857,"Delta":316933977},{"NoteNumber":55,"Velocity":57,"Duration":313311,"SoundDuration":313311,"Delta":316933977},{"NoteNumber":58,"Velocity":68,"Duration":313311,"SoundDuration":313311,"Delta":316933977},{"NoteNumber":63,"Velocity":70,"Duration":170454,"SoundDuration":170454,"Delta":317076834},{"NoteNumber":75,"Velocity":64,"Duration":85227,"SoundDuration":85227,"Delta":317162062},{"NoteNumber":87,"Velocity":75,"Duration":85227,"SoundDuration":85227,"Delta":317162062},{"NoteNumber":73,"Velocity":75,"Duration":166666,"SoundDuration":166666,"Delta":317247289},{"NoteNumber":85,"Velocity":90,"Duration":166666,"SoundDuration":166666,"Delta":317247289},{"NoteNumber":41,"Velocity":62,"Duration":333333,"SoundDuration":333333,"Delta":317247289},{"NoteNumber":53,"Velocity":74,"Duration":646645,"SoundDuration":646645,"Delta":317247289},{"NoteNumber":77,"Velocity":64,"Duration":166666,"SoundDuration":166666,"Delta":317413956},{"NoteNumber":80,"Velocity":75,"Duration":166666,"SoundDuration":166666,"Delta":317413956},{"NoteNumber":85,"Velocity":84,"Duration":142857,"SoundDuration":142857,"Delta":317580622},{"NoteNumber":73,"Velocity":70,"Duration":142857,"SoundDuration":142857,"Delta":317580622},{"NoteNumber":61,"Velocity":72,"Duration":142857,"SoundDuration":142857,"Delta":317580622},{"NoteNumber":56,"Velocity":68,"Duration":313311,"SoundDuration":313311,"Delta":317580622},{"NoteNumber":60,"Velocity":68,"Duration":170454,"SoundDuration":170454,"Delta":317723480},{"NoteNumber":84,"Velocity":71,"Duration":85227,"SoundDuration":85227,"Delta":317808707},{"NoteNumber":72,"Velocity":61,"Duration":85227,"SoundDuration":85227,"Delta":317808707},{"NoteNumber":65,"Velocity":88,"Duration":669079,"SoundDuration":669079,"Delta":317893934},{"NoteNumber":37,"Velocity":59,"Duration":340909,"SoundDuration":340909,"Delta":317893934},{"NoteNumber":49,"Velocity":71,"Duration":340909,"SoundDuration":340909,"Delta":317893934},{"NoteNumber":53,"Velocity":51,"Duration":328170,"SoundDuration":328170,"Delta":318234843},{"NoteNumber":58,"Velocity":59,"Duration":328170,"SoundDuration":328170,"Delta":318234843},{"NoteNumber":67,"Velocity":59,"Duration":81673,"SoundDuration":81673,"Delta":318563014},{"NoteNumber":36,"Velocity":53,"Duration":315197,"SoundDuration":315197,"Delta":318563014},{"NoteNumber":48,"Velocity":63,"Duration":315197,"SoundDuration":315197,"Delta":318563014},{"NoteNumber":68,"Velocity":60,"Duration":79649,"SoundDuration":79649,"Delta":318644688},{"NoteNumber":67,"Velocity":61,"Duration":77857,"SoundDuration":77857,"Delta":318724337},{"NoteNumber":68,"Velocity":61,"Duration":76016,"SoundDuration":76016,"Delta":318802195},{"NoteNumber":65,"Velocity":62,"Duration":163043,"SoundDuration":163043,"Delta":318878212},{"NoteNumber":52,"Velocity":49,"Duration":325940,"SoundDuration":325940,"Delta":318878212},{"NoteNumber":60,"Velocity":59,"Duration":325940,"SoundDuration":325940,"Delta":318878212},{"NoteNumber":58,"Velocity":49,"Duration":325940,"SoundDuration":325940,"Delta":318878212},{"NoteNumber":67,"Velocity":64,"Duration":162896,"SoundDuration":162896,"Delta":319041255},{"NoteNumber":68,"Velocity":66,"Duration":80215,"SoundDuration":80215,"Delta":319204152},{"NoteNumber":29,"Velocity":58,"Duration":312365,"SoundDuration":312365,"Delta":319204152},{"NoteNumber":41,"Velocity":69,"Duration":312365,"SoundDuration":312365,"Delta":319204152},{"NoteNumber":70,"Velocity":67,"Duration":78812,"SoundDuration":78812,"Delta":319284367},{"NoteNumber":68,"Velocity":69,"Duration":77320,"SoundDuration":77320,"Delta":319363180},{"NoteNumber":70,"Velocity":70,"Duration":76016,"SoundDuration":76016,"Delta":319440501},{"NoteNumber":67,"Velocity":71,"Duration":163043,"SoundDuration":163043,"Delta":319516517},{"NoteNumber":53,"Velocity":67,"Duration":326086,"SoundDuration":326086,"Delta":319516517},{"NoteNumber":56,"Velocity":67,"Duration":326086,"SoundDuration":326086,"Delta":319516517},{"NoteNumber":60,"Velocity":67,"Duration":326086,"SoundDuration":326086,"Delta":319516517},{"NoteNumber":68,"Velocity":73,"Duration":163043,"SoundDuration":163043,"Delta":319679561},{"NoteNumber":61,"Velocity":45,"Duration":336275,"SoundDuration":336275,"Delta":319842604},{"NoteNumber":67,"Velocity":54,"Duration":336275,"SoundDuration":336275,"Delta":319842604},{"NoteNumber":69,"Velocity":77,"Duration":165782,"SoundDuration":165782,"Delta":319842604},{"NoteNumber":39,"Velocity":51,"Duration":165782,"SoundDuration":165782,"Delta":319842604},{"NoteNumber":51,"Velocity":72,"Duration":165782,"SoundDuration":165782,"Delta":319842604},{"NoteNumber":70,"Velocity":73,"Duration":170493,"SoundDuration":170493,"Delta":320008387},{"NoteNumber":61,"Velocity":43,"Duration":333738,"SoundDuration":333738,"Delta":320178880},{"NoteNumber":67,"Velocity":51,"Duration":333738,"SoundDuration":333738,"Delta":320178880},{"NoteNumber":72,"Velocity":73,"Duration":161324,"SoundDuration":161324,"Delta":320178880},{"NoteNumber":51,"Velocity":48,"Duration":333738,"SoundDuration":333738,"Delta":320178880},{"NoteNumber":58,"Velocity":68,"Duration":333738,"SoundDuration":333738,"Delta":320178880},{"NoteNumber":73,"Velocity":74,"Duration":172413,"SoundDuration":172413,"Delta":320340205},{"NoteNumber":60,"Velocity":57,"Duration":326086,"SoundDuration":326086,"Delta":320512619},{"NoteNumber":68,"Velocity":68,"Duration":326086,"SoundDuration":326086,"Delta":320512619},{"NoteNumber":72,"Velocity":81,"Duration":326086,"SoundDuration":326086,"Delta":320512619},{"NoteNumber":44,"Velocity":50,"Duration":326086,"SoundDuration":326086,"Delta":320512619},{"NoteNumber":51,"Velocity":50,"Duration":326086,"SoundDuration":326086,"Delta":320512619},{"NoteNumber":56,"Velocity":70,"Duration":326086,"SoundDuration":326086,"Delta":320512619},{"NoteNumber":77,"Velocity":83,"Duration":244565,"SoundDuration":244565,"Delta":320838706},{"NoteNumber":59,"Velocity":70,"Duration":244565,"SoundDuration":244565,"Delta":320838706},{"NoteNumber":62,"Velocity":70,"Duration":244565,"SoundDuration":244565,"Delta":320838706},{"NoteNumber":65,"Velocity":70,"Duration":244565,"SoundDuration":244565,"Delta":320838706},{"NoteNumber":68,"Velocity":70,"Duration":244565,"SoundDuration":244565,"Delta":320838706},{"NoteNumber":63,"Velocity":63,"Duration":73369,"SoundDuration":73369,"Delta":321083271},{"NoteNumber":60,"Velocity":63,"Duration":73369,"SoundDuration":73369,"Delta":321083271},{"NoteNumber":75,"Velocity":75,"Duration":73369,"SoundDuration":73369,"Delta":321083271},{"NoteNumber":68,"Velocity":63,"Duration":73369,"SoundDuration":73369,"Delta":321083271},{"NoteNumber":60,"Velocity":71,"Duration":163043,"SoundDuration":163043,"Delta":321164793},{"NoteNumber":75,"Velocity":84,"Duration":163043,"SoundDuration":163043,"Delta":321164793},{"NoteNumber":63,"Velocity":71,"Duration":163043,"SoundDuration":163043,"Delta":321164793},{"NoteNumber":68,"Velocity":71,"Duration":163043,"SoundDuration":163043,"Delta":321164793},{"NoteNumber":68,"Velocity":79,"Duration":331582,"SoundDuration":331582,"Delta":321327836},{"NoteNumber":80,"Velocity":83,"Duration":168539,"SoundDuration":168539,"Delta":321490880},{"NoteNumber":44,"Velocity":61,"Duration":337078,"SoundDuration":337078,"Delta":321490880},{"NoteNumber":56,"Velocity":72,"Duration":337078,"SoundDuration":337078,"Delta":321490880},{"NoteNumber":67,"Velocity":64,"Duration":84269,"SoundDuration":84269,"Delta":321743689},{"NoteNumber":79,"Velocity":77,"Duration":84269,"SoundDuration":84269,"Delta":321743689},{"NoteNumber":65,"Velocity":64,"Duration":679047,"SoundDuration":679047,"Delta":321827958},{"NoteNumber":77,"Velocity":77,"Duration":679047,"SoundDuration":679047,"Delta":321827958},{"NoteNumber":37,"Velocity":62,"Duration":350877,"SoundDuration":350877,"Delta":321827958},{"NoteNumber":49,"Velocity":74,"Duration":350877,"SoundDuration":350877,"Delta":321827958},{"NoteNumber":53,"Velocity":55,"Duration":328170,"SoundDuration":328170,"Delta":322178835},{"NoteNumber":58,"Velocity":64,"Duration":328170,"SoundDuration":328170,"Delta":322178835},{"NoteNumber":67,"Velocity":70,"Duration":161322,"SoundDuration":161322,"Delta":322507006},{"NoteNumber":36,"Velocity":63,"Duration":315197,"SoundDuration":315197,"Delta":322507006},{"NoteNumber":48,"Velocity":75,"Duration":315197,"SoundDuration":315197,"Delta":322507006},{"NoteNumber":79,"Velocity":71,"Duration":52084,"SoundDuration":52084,"Delta":322668329},{"NoteNumber":80,"Velocity":72,"Duration":51283,"SoundDuration":51283,"Delta":322720414},{"NoteNumber":79,"Velocity":71,"Duration":50506,"SoundDuration":50506,"Delta":322771697},{"NoteNumber":65,"Velocity":61,"Duration":163043,"SoundDuration":163043,"Delta":322822204},{"NoteNumber":77,"Velocity":72,"Duration":163043,"SoundDuration":163043,"Delta":322822204},{"NoteNumber":58,"Velocity":57,"Duration":325940,"SoundDuration":325940,"Delta":322822204},{"NoteNumber":64,"Velocity":68,"Duration":325940,"SoundDuration":325940,"Delta":322822204},{"NoteNumber":60,"Velocity":57,"Duration":325940,"SoundDuration":325940,"Delta":322822204},{"NoteNumber":67,"Velocity":61,"Duration":162896,"SoundDuration":162896,"Delta":322985247},{"NoteNumber":79,"Velocity":73,"Duration":162896,"SoundDuration":162896,"Delta":322985247},{"NoteNumber":68,"Velocity":70,"Duration":159027,"SoundDuration":159027,"Delta":323148144},{"NoteNumber":29,"Velocity":66,"Duration":312365,"SoundDuration":312365,"Delta":323148144},{"NoteNumber":41,"Velocity":78,"Duration":312365,"SoundDuration":312365,"Delta":323148144},{"NoteNumber":80,"Velocity":71,"Duration":51679,"SoundDuration":51679,"Delta":323307172},{"NoteNumber":82,"Velocity":71,"Duration":51151,"SoundDuration":51151,"Delta":323358852},{"NoteNumber":80,"Velocity":71,"Duration":50506,"SoundDuration":50506,"Delta":323410003},{"NoteNumber":67,"Velocity":66,"Duration":163043,"SoundDuration":163043,"Delta":323460509},{"NoteNumber":79,"Velocity":78,"Duration":163043,"SoundDuration":163043,"Delta":323460509},{"NoteNumber":53,"Velocity":68,"Duration":326086,"SoundDuration":326086,"Delta":323460509},{"NoteNumber":56,"Velocity":70,"Duration":326086,"SoundDuration":326086,"Delta":323460509},{"NoteNumber":60,"Velocity":73,"Duration":326086,"SoundDuration":326086,"Delta":323460509},{"NoteNumber":65,"Velocity":73,"Duration":326086,"SoundDuration":326086,"Delta":323460509},{"NoteNumber":68,"Velocity":67,"Duration":163043,"SoundDuration":163043,"Delta":323623553},{"NoteNumber":80,"Velocity":79,"Duration":163043,"SoundDuration":163043,"Delta":323623553},{"NoteNumber":69,"Velocity":49,"Duration":163970,"SoundDuration":163970,"Delta":323786596},{"NoteNumber":75,"Velocity":69,"Duration":163970,"SoundDuration":163970,"Delta":323786596},{"NoteNumber":81,"Velocity":82,"Duration":163970,"SoundDuration":163970,"Delta":323786596},{"NoteNumber":39,"Velocity":64,"Duration":163970,"SoundDuration":163970,"Delta":323786596},{"NoteNumber":51,"Velocity":77,"Duration":163970,"SoundDuration":163970,"Delta":323786596},{"NoteNumber":70,"Velocity":69,"Duration":170493,"SoundDuration":170493,"Delta":323950566},{"NoteNumber":82,"Velocity":77,"Duration":170493,"SoundDuration":170493,"Delta":323950566},{"NoteNumber":72,"Velocity":45,"Duration":160462,"SoundDuration":160462,"Delta":324121060},{"NoteNumber":79,"Velocity":64,"Duration":160462,"SoundDuration":160462,"Delta":324121060},{"NoteNumber":84,"Velocity":77,"Duration":160462,"SoundDuration":160462,"Delta":324121060},{"NoteNumber":58,"Velocity":43,"Duration":329039,"SoundDuration":329039,"Delta":324121060},{"NoteNumber":61,"Velocity":43,"Duration":329039,"SoundDuration":329039,"Delta":324121060},{"NoteNumber":63,"Velocity":60,"Duration":329039,"SoundDuration":329039,"Delta":324121060},{"NoteNumber":67,"Velocity":71,"Duration":329039,"SoundDuration":329039,"Delta":324121060},{"NoteNumber":73,"Velocity":64,"Duration":168577,"SoundDuration":168577,"Delta":324281522},{"NoteNumber":85,"Velocity":77,"Duration":168577,"SoundDuration":168577,"Delta":324281522},{"NoteNumber":72,"Velocity":69,"Duration":170454,"SoundDuration":170454,"Delta":324450099},{"NoteNumber":80,"Velocity":69,"Duration":170454,"SoundDuration":170454,"Delta":324450099},{"NoteNumber":84,"Velocity":82,"Duration":170454,"SoundDuration":170454,"Delta":324450099},{"NoteNumber":56,"Velocity":60,"Duration":170454,"SoundDuration":170454,"Delta":324450099},{"NoteNumber":63,"Velocity":60,"Duration":170454,"SoundDuration":170454,"Delta":324450099},{"NoteNumber":68,"Velocity":71,"Duration":170454,"SoundDuration":170454,"Delta":324450099},{"NoteNumber":77,"Velocity":70,"Duration":261171,"SoundDuration":261171,"Delta":324791008},{"NoteNumber":80,"Velocity":70,"Duration":261171,"SoundDuration":261171,"Delta":324791008},{"NoteNumber":89,"Velocity":83,"Duration":261171,"SoundDuration":261171,"Delta":324791008},{"NoteNumber":68,"Velocity":70,"Duration":261171,"SoundDuration":261171,"Delta":324791008},{"NoteNumber":59,"Velocity":70,"Duration":261171,"SoundDuration":261171,"Delta":324791008},{"NoteNumber":62,"Velocity":70,"Duration":261171,"SoundDuration":261171,"Delta":324791008},{"NoteNumber":71,"Velocity":70,"Duration":261171,"SoundDuration":261171,"Delta":324791008},{"NoteNumber":75,"Velocity":63,"Duration":79881,"SoundDuration":79881,"Delta":325052179},{"NoteNumber":80,"Velocity":63,"Duration":79881,"SoundDuration":79881,"Delta":325052179},{"NoteNumber":87,"Velocity":75,"Duration":79881,"SoundDuration":79881,"Delta":325052179},{"NoteNumber":68,"Velocity":63,"Duration":79881,"SoundDuration":79881,"Delta":325052179},{"NoteNumber":60,"Velocity":63,"Duration":79881,"SoundDuration":79881,"Delta":325052179},{"NoteNumber":72,"Velocity":63,"Duration":79881,"SoundDuration":79881,"Delta":325052179},{"NoteNumber":63,"Velocity":63,"Duration":79881,"SoundDuration":79881,"Delta":325052179},{"NoteNumber":75,"Velocity":71,"Duration":172413,"SoundDuration":172413,"Delta":325140937},{"NoteNumber":80,"Velocity":71,"Duration":172413,"SoundDuration":172413,"Delta":325140937},{"NoteNumber":87,"Velocity":84,"Duration":172413,"SoundDuration":172413,"Delta":325140937},{"NoteNumber":68,"Velocity":71,"Duration":172413,"SoundDuration":172413,"Delta":325140937},{"NoteNumber":72,"Velocity":71,"Duration":172413,"SoundDuration":172413,"Delta":325140937},{"NoteNumber":60,"Velocity":71,"Duration":172413,"SoundDuration":172413,"Delta":325140937},{"NoteNumber":63,"Velocity":71,"Duration":172413,"SoundDuration":172413,"Delta":325140937},{"NoteNumber":53,"Velocity":61,"Duration":379310,"SoundDuration":379310,"Delta":325356454},{"NoteNumber":87,"Velocity":66,"Duration":86206,"SoundDuration":86206,"Delta":325399557},{"NoteNumber":75,"Velocity":66,"Duration":86206,"SoundDuration":86206,"Delta":325399557},{"NoteNumber":60,"Velocity":61,"Duration":336207,"SoundDuration":336207,"Delta":325399557},{"NoteNumber":63,"Velocity":61,"Duration":293103,"SoundDuration":293103,"Delta":325442661},{"NoteNumber":73,"Velocity":70,"Duration":250000,"SoundDuration":250000,"Delta":325485764},{"NoteNumber":81,"Velocity":70,"Duration":250000,"SoundDuration":250000,"Delta":325485764},{"NoteNumber":85,"Velocity":83,"Duration":250000,"SoundDuration":250000,"Delta":325485764},{"NoteNumber":69,"Velocity":72,"Duration":250000,"SoundDuration":250000,"Delta":325485764},{"NoteNumber":72,"Velocity":64,"Duration":83333,"SoundDuration":83333,"Delta":325735764},{"NoteNumber":84,"Velocity":77,"Duration":83333,"SoundDuration":83333,"Delta":325735764},{"NoteNumber":46,"Velocity":66,"Duration":344961,"SoundDuration":344961,"Delta":325735764},{"NoteNumber":53,"Velocity":66,"Duration":303294,"SoundDuration":303294,"Delta":325777431},{"NoteNumber":70,"Velocity":70,"Duration":174418,"SoundDuration":174418,"Delta":325819098},{"NoteNumber":82,"Velocity":83,"Duration":174418,"SoundDuration":174418,"Delta":325819098},{"NoteNumber":61,"Velocity":78,"Duration":261627,"SoundDuration":261627,"Delta":325819098},{"NoteNumber":51,"Velocity":61,"Duration":340018,"SoundDuration":340018,"Delta":326080725},{"NoteNumber":58,"Velocity":61,"Duration":296413,"SoundDuration":296413,"Delta":326124330},{"NoteNumber":70,"Velocity":64,"Duration":252808,"SoundDuration":252808,"Delta":326167935},{"NoteNumber":78,"Velocity":64,"Duration":252808,"SoundDuration":252808,"Delta":326167935},{"NoteNumber":82,"Velocity":77,"Duration":252808,"SoundDuration":252808,"Delta":326167935},{"NoteNumber":66,"Velocity":72,"Duration":252808,"SoundDuration":252808,"Delta":326167935},{"NoteNumber":72,"Velocity":64,"Duration":84269,"SoundDuration":84269,"Delta":326420743},{"NoteNumber":84,"Velocity":77,"Duration":84269,"SoundDuration":84269,"Delta":326420743},{"NoteNumber":46,"Velocity":57,"Duration":345445,"SoundDuration":345445,"Delta":326420743},{"NoteNumber":53,"Velocity":57,"Duration":303310,"SoundDuration":303310,"Delta":326462878},{"NoteNumber":73,"Velocity":68,"Duration":348894,"SoundDuration":348894,"Delta":326505013},{"NoteNumber":77,"Velocity":68,"Duration":348894,"SoundDuration":348894,"Delta":326505013},{"NoteNumber":85,"Velocity":81,"Duration":348894,"SoundDuration":348894,"Delta":326505013},{"NoteNumber":61,"Velocity":68,"Duration":261175,"SoundDuration":261175,"Delta":326505013},{"NoteNumber":39,"Velocity":57,"Duration":339115,"SoundDuration":339115,"Delta":326766189},{"NoteNumber":46,"Velocity":57,"Duration":295256,"SoundDuration":295256,"Delta":326810048},{"NoteNumber":75,"Velocity":67,"Duration":251396,"SoundDuration":251396,"Delta":326853908},{"NoteNumber":73,"Velocity":67,"Duration":251396,"SoundDuration":251396,"Delta":326853908},{"NoteNumber":85,"Velocity":79,"Duration":251396,"SoundDuration":251396,"Delta":326853908},{"NoteNumber":78,"Velocity":67,"Duration":251396,"SoundDuration":251396,"Delta":326853908},{"NoteNumber":54,"Velocity":68,"Duration":251396,"SoundDuration":251396,"Delta":326853908},{"NoteNumber":72,"Velocity":63,"Duration":83798,"SoundDuration":83798,"Delta":327105304},{"NoteNumber":84,"Velocity":75,"Duration":83798,"SoundDuration":83798,"Delta":327105304},{"NoteNumber":34,"Velocity":57,"Duration":346956,"SoundDuration":346956,"Delta":327105304},{"NoteNumber":41,"Velocity":57,"Duration":305057,"SoundDuration":305057,"Delta":327147204},{"NoteNumber":70,"Velocity":69,"Duration":350877,"SoundDuration":350877,"Delta":327189103},{"NoteNumber":77,"Velocity":69,"Duration":350877,"SoundDuration":350877,"Delta":327189103},{"NoteNumber":82,"Velocity":82,"Duration":350877,"SoundDuration":350877,"Delta":327189103},{"NoteNumber":49,"Velocity":68,"Duration":263157,"SoundDuration":263157,"Delta":327189103},{"NoteNumber":39,"Velocity":56,"Duration":339115,"SoundDuration":339115,"Delta":327452261},{"NoteNumber":46,"Velocity":56,"Duration":295256,"SoundDuration":295256,"Delta":327496121},{"NoteNumber":68,"Velocity":67,"Duration":251396,"SoundDuration":251396,"Delta":327539980},{"NoteNumber":75,"Velocity":67,"Duration":251396,"SoundDuration":251396,"Delta":327539980},{"NoteNumber":80,"Velocity":79,"Duration":251396,"SoundDuration":251396,"Delta":327539980},{"NoteNumber":70,"Velocity":67,"Duration":251396,"SoundDuration":251396,"Delta":327539980},{"NoteNumber":54,"Velocity":67,"Duration":251396,"SoundDuration":251396,"Delta":327539980},{"NoteNumber":66,"Velocity":62,"Duration":83798,"SoundDuration":83798,"Delta":327791377},{"NoteNumber":78,"Velocity":74,"Duration":83798,"SoundDuration":83798,"Delta":327791377},{"NoteNumber":46,"Velocity":61,"Duration":341977,"SoundDuration":341977,"Delta":327791377},{"NoteNumber":53,"Velocity":61,"Duration":300077,"SoundDuration":300077,"Delta":327833276},{"NoteNumber":73,"Velocity":66,"Duration":171472,"SoundDuration":171472,"Delta":327875176},{"NoteNumber":77,"Velocity":78,"Duration":171472,"SoundDuration":171472,"Delta":327875176},{"NoteNumber":65,"Velocity":66,"Duration":171472,"SoundDuration":171472,"Delta":327875176},{"NoteNumber":61,"Velocity":72,"Duration":258178,"SoundDuration":258178,"Delta":327875176},{"NoteNumber":45,"Velocity":64,"Duration":84007,"SoundDuration":84007,"Delta":328220059},{"NoteNumber":33,"Velocity":55,"Duration":84007,"SoundDuration":84007,"Delta":328220059},{"NoteNumber":46,"Velocity":64,"Duration":83210,"SoundDuration":83210,"Delta":328304067},{"NoteNumber":34,"Velocity":55,"Duration":83210,"SoundDuration":83210,"Delta":328304067},{"NoteNumber":48,"Velocity":66,"Duration":82872,"SoundDuration":82872,"Delta":328387278},{"NoteNumber":36,"Velocity":56,"Duration":82872,"SoundDuration":82872,"Delta":328387278},{"NoteNumber":49,"Velocity":67,"Duration":82447,"SoundDuration":82447,"Delta":328470150},{"NoteNumber":37,"Velocity":56,"Duration":82447,"SoundDuration":82447,"Delta":328470150},{"NoteNumber":51,"Velocity":67,"Duration":82147,"SoundDuration":82147,"Delta":328552598},{"NoteNumber":39,"Velocity":56,"Duration":82147,"SoundDuration":82147,"Delta":328552598},{"NoteNumber":53,"Velocity":68,"Duration":81848,"SoundDuration":81848,"Delta":328634746},{"NoteNumber":41,"Velocity":57,"Duration":81848,"SoundDuration":81848,"Delta":328634746},{"NoteNumber":55,"Velocity":69,"Duration":81521,"SoundDuration":81521,"Delta":328716594},{"NoteNumber":43,"Velocity":58,"Duration":81521,"SoundDuration":81521,"Delta":328716594},{"NoteNumber":57,"Velocity":69,"Duration":81110,"SoundDuration":81110,"Delta":328798116},{"NoteNumber":45,"Velocity":58,"Duration":81110,"SoundDuration":81110,"Delta":328798116},{"NoteNumber":58,"Velocity":70,"Duration":80819,"SoundDuration":80819,"Delta":328879226},{"NoteNumber":46,"Velocity":59,"Duration":80819,"SoundDuration":80819,"Delta":328879226},{"NoteNumber":60,"Velocity":71,"Duration":80530,"SoundDuration":80530,"Delta":328960046},{"NoteNumber":48,"Velocity":60,"Duration":80530,"SoundDuration":80530,"Delta":328960046},{"NoteNumber":61,"Velocity":71,"Duration":80213,"SoundDuration":80213,"Delta":329040576},{"NoteNumber":49,"Velocity":60,"Duration":80213,"SoundDuration":80213,"Delta":329040576},{"NoteNumber":63,"Velocity":72,"Duration":79815,"SoundDuration":79815,"Delta":329120790},{"NoteNumber":51,"Velocity":61,"Duration":79815,"SoundDuration":79815,"Delta":329120790},{"NoteNumber":65,"Velocity":73,"Duration":79533,"SoundDuration":79533,"Delta":329200606},{"NoteNumber":53,"Velocity":61,"Duration":79533,"SoundDuration":79533,"Delta":329200606},{"NoteNumber":67,"Velocity":73,"Duration":79253,"SoundDuration":79253,"Delta":329280140},{"NoteNumber":55,"Velocity":61,"Duration":79253,"SoundDuration":79253,"Delta":329280140},{"NoteNumber":69,"Velocity":74,"Duration":78947,"SoundDuration":78947,"Delta":329359393},{"NoteNumber":57,"Velocity":62,"Duration":78947,"SoundDuration":78947,"Delta":329359393},{"NoteNumber":70,"Velocity":74,"Duration":78561,"SoundDuration":78561,"Delta":329438341},{"NoteNumber":58,"Velocity":62,"Duration":78561,"SoundDuration":78561,"Delta":329438341},{"NoteNumber":72,"Velocity":75,"Duration":78288,"SoundDuration":78288,"Delta":329516902},{"NoteNumber":60,"Velocity":63,"Duration":78288,"SoundDuration":78288,"Delta":329516902},{"NoteNumber":73,"Velocity":77,"Duration":78017,"SoundDuration":78017,"Delta":329595191},{"NoteNumber":61,"Velocity":64,"Duration":78017,"SoundDuration":78017,"Delta":329595191},{"NoteNumber":75,"Velocity":77,"Duration":77720,"SoundDuration":77720,"Delta":329673208},{"NoteNumber":63,"Velocity":64,"Duration":77720,"SoundDuration":77720,"Delta":329673208},{"NoteNumber":77,"Velocity":78,"Duration":77346,"SoundDuration":77346,"Delta":329750928},{"NoteNumber":65,"Velocity":66,"Duration":77346,"SoundDuration":77346,"Delta":329750928},{"NoteNumber":79,"Velocity":77,"Duration":77081,"SoundDuration":77081,"Delta":329828275},{"NoteNumber":67,"Velocity":67,"Duration":77081,"SoundDuration":77081,"Delta":329828275},{"NoteNumber":81,"Velocity":77,"Duration":76818,"SoundDuration":76818,"Delta":329905356},{"NoteNumber":69,"Velocity":65,"Duration":76818,"SoundDuration":76818,"Delta":329905356},{"NoteNumber":82,"Velocity":78,"Duration":76530,"SoundDuration":76530,"Delta":329982175},{"NoteNumber":70,"Velocity":66,"Duration":76530,"SoundDuration":76530,"Delta":329982175},{"NoteNumber":84,"Velocity":79,"Duration":76168,"SoundDuration":76168,"Delta":330058705},{"NoteNumber":72,"Velocity":67,"Duration":76168,"SoundDuration":76168,"Delta":330058705},{"NoteNumber":85,"Velocity":80,"Duration":75911,"SoundDuration":75911,"Delta":330134873},{"NoteNumber":73,"Velocity":68,"Duration":75911,"SoundDuration":75911,"Delta":330134873},{"NoteNumber":87,"Velocity":80,"Duration":75656,"SoundDuration":75656,"Delta":330210785},{"NoteNumber":75,"Velocity":69,"Duration":75656,"SoundDuration":75656,"Delta":330210785},{"NoteNumber":89,"Velocity":81,"Duration":75376,"SoundDuration":75376,"Delta":330286441},{"NoteNumber":77,"Velocity":70,"Duration":75376,"SoundDuration":75376,"Delta":330286441},{"NoteNumber":91,"Velocity":82,"Duration":94570,"SoundDuration":94570,"Delta":330361818},{"NoteNumber":79,"Velocity":71,"Duration":94570,"SoundDuration":94570,"Delta":330361818},{"NoteNumber":93,"Velocity":83,"Duration":89285,"SoundDuration":89285,"Delta":330456388},{"NoteNumber":81,"Velocity":72,"Duration":59523,"SoundDuration":59523,"Delta":330456388},{"NoteNumber":94,"Velocity":92,"Duration":161678,"SoundDuration":161678,"Delta":330545673},{"NoteNumber":82,"Velocity":92,"Duration":161678,"SoundDuration":161678,"Delta":330545673},{"NoteNumber":96,"Velocity":85,"Duration":81521,"SoundDuration":81521,"Delta":330788874},{"NoteNumber":85,"Velocity":77,"Duration":157894,"SoundDuration":157894,"Delta":330870396},{"NoteNumber":94,"Velocity":91,"Duration":157894,"SoundDuration":157894,"Delta":330870396},{"NoteNumber":91,"Velocity":91,"Duration":157894,"SoundDuration":157894,"Delta":330870396},{"NoteNumber":27,"Velocity":68,"Duration":157894,"SoundDuration":157894,"Delta":330870396},{"NoteNumber":39,"Velocity":80,"Duration":157894,"SoundDuration":157894,"Delta":330870396},{"NoteNumber":90,"Velocity":85,"Duration":157894,"SoundDuration":157894,"Delta":331028290},{"NoteNumber":84,"Velocity":72,"Duration":157894,"SoundDuration":157894,"Delta":331028290},{"NoteNumber":93,"Velocity":85,"Duration":157894,"SoundDuration":157894,"Delta":331028290},{"NoteNumber":85,"Velocity":75,"Duration":335195,"SoundDuration":335195,"Delta":331186185},{"NoteNumber":91,"Velocity":90,"Duration":335195,"SoundDuration":335195,"Delta":331186185},{"NoteNumber":94,"Velocity":90,"Duration":335195,"SoundDuration":335195,"Delta":331186185},{"NoteNumber":51,"Velocity":61,"Duration":167597,"SoundDuration":167597,"Delta":331186185},{"NoteNumber":63,"Velocity":72,"Duration":167597,"SoundDuration":167597,"Delta":331186185},{"NoteNumber":84,"Velocity":72,"Duration":314136,"SoundDuration":314136,"Delta":331521381},{"NoteNumber":91,"Velocity":85,"Duration":314136,"SoundDuration":314136,"Delta":331521381},{"NoteNumber":96,"Velocity":85,"Duration":314136,"SoundDuration":314136,"Delta":331521381},{"NoteNumber":72,"Velocity":67,"Duration":314136,"SoundDuration":314136,"Delta":331521381},{"NoteNumber":67,"Velocity":67,"Duration":314136,"SoundDuration":314136,"Delta":331521381},{"NoteNumber":63,"Velocity":67,"Duration":314136,"SoundDuration":314136,"Delta":331521381},{"NoteNumber":75,"Velocity":79,"Duration":314136,"SoundDuration":314136,"Delta":331521381},{"NoteNumber":80,"Velocity":74,"Duration":324324,"SoundDuration":324324,"Delta":331835517},{"NoteNumber":84,"Velocity":74,"Duration":324324,"SoundDuration":324324,"Delta":331835517},{"NoteNumber":92,"Velocity":88,"Duration":324324,"SoundDuration":324324,"Delta":331835517},{"NoteNumber":77,"Velocity":77,"Duration":324324,"SoundDuration":324324,"Delta":331835517},{"NoteNumber":72,"Velocity":64,"Duration":324324,"SoundDuration":324324,"Delta":331835517},{"NoteNumber":65,"Velocity":64,"Duration":324324,"SoundDuration":324324,"Delta":331835517},{"NoteNumber":75,"Velocity":72,"Duration":335779,"SoundDuration":335779,"Delta":332159841},{"NoteNumber":80,"Velocity":72,"Duration":335779,"SoundDuration":335779,"Delta":332159841},{"NoteNumber":87,"Velocity":85,"Duration":335779,"SoundDuration":335779,"Delta":332159841},{"NoteNumber":60,"Velocity":61,"Duration":335779,"SoundDuration":335779,"Delta":332159841},{"NoteNumber":68,"Velocity":61,"Duration":335779,"SoundDuration":335779,"Delta":332159841},{"NoteNumber":72,"Velocity":72,"Duration":335779,"SoundDuration":335779,"Delta":332159841},{"NoteNumber":77,"Velocity":74,"Duration":319148,"SoundDuration":319148,"Delta":332495620},{"NoteNumber":80,"Velocity":74,"Duration":319148,"SoundDuration":319148,"Delta":332495620},{"NoteNumber":89,"Velocity":88,"Duration":319148,"SoundDuration":319148,"Delta":332495620},{"NoteNumber":73,"Velocity":77,"Duration":319148,"SoundDuration":319148,"Delta":332495620},{"NoteNumber":68,"Velocity":64,"Duration":319148,"SoundDuration":319148,"Delta":332495620},{"NoteNumber":61,"Velocity":64,"Duration":319148,"SoundDuration":319148,"Delta":332495620},{"NoteNumber":75,"Velocity":72,"Duration":337078,"SoundDuration":337078,"Delta":332814769},{"NoteNumber":80,"Velocity":72,"Duration":337078,"SoundDuration":337078,"Delta":332814769},{"NoteNumber":87,"Velocity":85,"Duration":337078,"SoundDuration":337078,"Delta":332814769},{"NoteNumber":60,"Velocity":61,"Duration":337078,"SoundDuration":337078,"Delta":332814769},{"NoteNumber":68,"Velocity":61,"Duration":337078,"SoundDuration":337078,"Delta":332814769},{"NoteNumber":72,"Velocity":72,"Duration":337078,"SoundDuration":337078,"Delta":332814769},{"NoteNumber":72,"Velocity":70,"Duration":320855,"SoundDuration":320855,"Delta":333151848},{"NoteNumber":75,"Velocity":70,"Duration":320855,"SoundDuration":320855,"Delta":333151848},{"NoteNumber":84,"Velocity":83,"Duration":320855,"SoundDuration":320855,"Delta":333151848},{"NoteNumber":68,"Velocity":73,"Duration":320855,"SoundDuration":320855,"Delta":333151848},{"NoteNumber":63,"Velocity":60,"Duration":320855,"SoundDuration":320855,"Delta":333151848},{"NoteNumber":56,"Velocity":60,"Duration":320855,"SoundDuration":320855,"Delta":333151848},{"NoteNumber":68,"Velocity":68,"Duration":337384,"SoundDuration":337384,"Delta":333472703},{"NoteNumber":72,"Velocity":68,"Duration":337384,"SoundDuration":337384,"Delta":333472703},{"NoteNumber":80,"Velocity":80,"Duration":337384,"SoundDuration":337384,"Delta":333472703},{"NoteNumber":53,"Velocity":57,"Duration":337384,"SoundDuration":337384,"Delta":333472703},{"NoteNumber":65,"Velocity":68,"Duration":337384,"SoundDuration":337384,"Delta":333472703},{"NoteNumber":65,"Velocity":70,"Duration":322580,"SoundDuration":322580,"Delta":333810088},{"NoteNumber":68,"Velocity":70,"Duration":322580,"SoundDuration":322580,"Delta":333810088},{"NoteNumber":77,"Velocity":83,"Duration":322580,"SoundDuration":322580,"Delta":333810088},{"NoteNumber":61,"Velocity":73,"Duration":322580,"SoundDuration":322580,"Delta":333810088},{"NoteNumber":56,"Velocity":60,"Duration":322580,"SoundDuration":322580,"Delta":333810088},{"NoteNumber":49,"Velocity":60,"Duration":322580,"SoundDuration":322580,"Delta":333810088},{"NoteNumber":63,"Velocity":68,"Duration":342856,"SoundDuration":342856,"Delta":334132668},{"NoteNumber":67,"Velocity":68,"Duration":342856,"SoundDuration":342856,"Delta":334132668},{"NoteNumber":75,"Velocity":80,"Duration":342856,"SoundDuration":342856,"Delta":334132668},{"NoteNumber":51,"Velocity":57,"Duration":342856,"SoundDuration":342856,"Delta":334132668},{"NoteNumber":58,"Velocity":57,"Duration":342856,"SoundDuration":342856,"Delta":334132668},{"NoteNumber":61,"Velocity":68,"Duration":342856,"SoundDuration":342856,"Delta":334132668},{"NoteNumber":60,"Velocity":68,"Duration":161724,"SoundDuration":161724,"Delta":334475525},{"NoteNumber":68,"Velocity":68,"Duration":161724,"SoundDuration":161724,"Delta":334475525},{"NoteNumber":72,"Velocity":80,"Duration":161724,"SoundDuration":161724,"Delta":334475525},{"NoteNumber":32,"Velocity":57,"Duration":161724,"SoundDuration":161724,"Delta":334475525},{"NoteNumber":44,"Velocity":68,"Duration":161724,"SoundDuration":161724,"Delta":334475525},{"NoteNumber":63,"Velocity":66,"Duration":74257,"SoundDuration":74257,"Delta":334798975},{"NoteNumber":51,"Velocity":57,"Duration":297029,"SoundDuration":297029,"Delta":334798975},{"NoteNumber":56,"Velocity":57,"Duration":297029,"SoundDuration":297029,"Delta":334798975},{"NoteNumber":60,"Velocity":68,"Duration":297029,"SoundDuration":297029,"Delta":334798975},{"NoteNumber":65,"Velocity":61,"Duration":74257,"SoundDuration":74257,"Delta":334873233},{"NoteNumber":63,"Velocity":65,"Duration":74257,"SoundDuration":74257,"Delta":334947490},{"NoteNumber":65,"Velocity":61,"Duration":74257,"SoundDuration":74257,"Delta":335021747},{"NoteNumber":62,"Velocity":81,"Duration":294433,"SoundDuration":294433,"Delta":335096005},{"NoteNumber":53,"Velocity":62,"Duration":294433,"SoundDuration":294433,"Delta":335096005},{"NoteNumber":56,"Velocity":62,"Duration":294433,"SoundDuration":294433,"Delta":335096005},{"NoteNumber":59,"Velocity":73,"Duration":294433,"SoundDuration":294433,"Delta":335096005},{"NoteNumber":65,"Velocity":71,"Duration":93817,"SoundDuration":93817,"Delta":335390438},{"NoteNumber":41,"Velocity":57,"Duration":140726,"SoundDuration":140726,"Delta":335390438},{"NoteNumber":53,"Velocity":68,"Duration":140726,"SoundDuration":140726,"Delta":335390438},{"NoteNumber":68,"Velocity":73,"Duration":93554,"SoundDuration":93554,"Delta":335484256},{"NoteNumber":71,"Velocity":75,"Duration":93292,"SoundDuration":93292,"Delta":335577810},{"NoteNumber":74,"Velocity":77,"Duration":92747,"SoundDuration":92747,"Delta":335671103},{"NoteNumber":29,"Velocity":62,"Duration":139120,"SoundDuration":139120,"Delta":335671103},{"NoteNumber":41,"Velocity":73,"Duration":139120,"SoundDuration":139120,"Delta":335671103},{"NoteNumber":77,"Velocity":79,"Duration":92747,"SoundDuration":92747,"Delta":335763850},{"NoteNumber":80,"Velocity":81,"Duration":91778,"SoundDuration":91778,"Delta":335856597},{"NoteNumber":83,"Velocity":83,"Duration":92167,"SoundDuration":92167,"Delta":335948376},{"NoteNumber":28,"Velocity":63,"Duration":281085,"SoundDuration":281085,"Delta":335948376},{"NoteNumber":40,"Velocity":75,"Duration":281085,"SoundDuration":281085,"Delta":335948376},{"NoteNumber":86,"Velocity":85,"Duration":93677,"SoundDuration":93677,"Delta":336040544},{"NoteNumber":98,"Velocity":87,"Duration":95240,"SoundDuration":95240,"Delta":336134221},{"NoteNumber":87,"Velocity":89,"Duration":148811,"SoundDuration":148811,"Delta":336229462},{"NoteNumber":99,"Velocity":89,"Duration":148811,"SoundDuration":148811,"Delta":336229462},{"NoteNumber":27,"Velocity":64,"Duration":148811,"SoundDuration":148811,"Delta":336229462},{"NoteNumber":39,"Velocity":76,"Duration":148811,"SoundDuration":148811,"Delta":336229462},{"NoteNumber":70,"Velocity":75,"Duration":68820,"SoundDuration":68820,"Delta":336529027},{"NoteNumber":82,"Velocity":89,"Duration":68820,"SoundDuration":68820,"Delta":336529027},{"NoteNumber":75,"Velocity":75,"Duration":68820,"SoundDuration":68820,"Delta":336529027},{"NoteNumber":58,"Velocity":60,"Duration":68820,"SoundDuration":68820,"Delta":336529027},{"NoteNumber":61,"Velocity":60,"Duration":68820,"SoundDuration":68820,"Delta":336529027},{"NoteNumber":63,"Velocity":60,"Duration":68820,"SoundDuration":68820,"Delta":336529027},{"NoteNumber":67,"Velocity":71,"Duration":68820,"SoundDuration":68820,"Delta":336529027},{"NoteNumber":70,"Velocity":70,"Duration":71784,"SoundDuration":71784,"Delta":336666667},{"NoteNumber":82,"Velocity":83,"Duration":71784,"SoundDuration":71784,"Delta":336666667},{"NoteNumber":75,"Velocity":70,"Duration":71784,"SoundDuration":71784,"Delta":336666667},{"NoteNumber":58,"Velocity":56,"Duration":71784,"SoundDuration":71784,"Delta":336666667},{"NoteNumber":61,"Velocity":56,"Duration":71784,"SoundDuration":71784,"Delta":336666667},{"NoteNumber":63,"Velocity":56,"Duration":71784,"SoundDuration":71784,"Delta":336666667},{"NoteNumber":67,"Velocity":67,"Duration":71784,"SoundDuration":71784,"Delta":336666667},{"NoteNumber":70,"Velocity":75,"Duration":144230,"SoundDuration":144230,"Delta":336810235},{"NoteNumber":75,"Velocity":75,"Duration":144230,"SoundDuration":144230,"Delta":336810235},{"NoteNumber":82,"Velocity":89,"Duration":144230,"SoundDuration":144230,"Delta":336810235},{"NoteNumber":58,"Velocity":60,"Duration":144230,"SoundDuration":144230,"Delta":336810235},{"NoteNumber":61,"Velocity":60,"Duration":144230,"SoundDuration":144230,"Delta":336810235},{"NoteNumber":63,"Velocity":60,"Duration":144230,"SoundDuration":144230,"Delta":336810235},{"NoteNumber":67,"Velocity":71,"Duration":144230,"SoundDuration":144230,"Delta":336810235},{"NoteNumber":69,"Velocity":70,"Duration":147812,"SoundDuration":147812,"Delta":337098697},{"NoteNumber":75,"Velocity":70,"Duration":147812,"SoundDuration":147812,"Delta":337098697},{"NoteNumber":81,"Velocity":83,"Duration":147812,"SoundDuration":147812,"Delta":337098697},{"NoteNumber":58,"Velocity":55,"Duration":147812,"SoundDuration":147812,"Delta":337098697},{"NoteNumber":61,"Velocity":55,"Duration":147812,"SoundDuration":147812,"Delta":337098697},{"NoteNumber":63,"Velocity":55,"Duration":147812,"SoundDuration":147812,"Delta":337098697},{"NoteNumber":66,"Velocity":65,"Duration":147812,"SoundDuration":147812,"Delta":337098697},{"NoteNumber":70,"Velocity":73,"Duration":155734,"SoundDuration":155734,"Delta":337246509},{"NoteNumber":75,"Velocity":73,"Duration":155734,"SoundDuration":155734,"Delta":337246509},{"NoteNumber":82,"Velocity":87,"Duration":155734,"SoundDuration":155734,"Delta":337246509},{"NoteNumber":58,"Velocity":58,"Duration":155734,"SoundDuration":155734,"Delta":337246509},{"NoteNumber":61,"Velocity":58,"Duration":155734,"SoundDuration":155734,"Delta":337246509},{"NoteNumber":63,"Velocity":58,"Duration":155734,"SoundDuration":155734,"Delta":337246509},{"NoteNumber":67,"Velocity":69,"Duration":155734,"SoundDuration":155734,"Delta":337246509},{"NoteNumber":72,"Velocity":77,"Duration":294117,"SoundDuration":294117,"Delta":337402244},{"NoteNumber":75,"Velocity":77,"Duration":294117,"SoundDuration":294117,"Delta":337402244},{"NoteNumber":84,"Velocity":91,"Duration":294117,"SoundDuration":294117,"Delta":337402244},{"NoteNumber":58,"Velocity":61,"Duration":294117,"SoundDuration":294117,"Delta":337402244},{"NoteNumber":61,"Velocity":61,"Duration":294117,"SoundDuration":294117,"Delta":337402244},{"NoteNumber":63,"Velocity":61,"Duration":294117,"SoundDuration":294117,"Delta":337402244},{"NoteNumber":68,"Velocity":72,"Duration":294117,"SoundDuration":294117,"Delta":337402244},{"NoteNumber":67,"Velocity":75,"Duration":317460,"SoundDuration":317460,"Delta":337696362},{"NoteNumber":73,"Velocity":75,"Duration":317460,"SoundDuration":317460,"Delta":337696362},{"NoteNumber":75,"Velocity":75,"Duration":317460,"SoundDuration":317460,"Delta":337696362},{"NoteNumber":79,"Velocity":89,"Duration":317460,"SoundDuration":317460,"Delta":337696362},{"NoteNumber":58,"Velocity":59,"Duration":317460,"SoundDuration":317460,"Delta":337696362},{"NoteNumber":61,"Velocity":59,"Duration":317460,"SoundDuration":317460,"Delta":337696362},{"NoteNumber":63,"Velocity":59,"Duration":317460,"SoundDuration":317460,"Delta":337696362},{"NoteNumber":70,"Velocity":70,"Duration":317460,"SoundDuration":317460,"Delta":337696362},{"NoteNumber":68,"Velocity":74,"Duration":149298,"SoundDuration":149298,"Delta":338013822},{"NoteNumber":72,"Velocity":74,"Duration":149298,"SoundDuration":149298,"Delta":338013822},{"NoteNumber":80,"Velocity":88,"Duration":149298,"SoundDuration":149298,"Delta":338013822},{"NoteNumber":44,"Velocity":62,"Duration":149298,"SoundDuration":149298,"Delta":338013822},{"NoteNumber":56,"Velocity":74,"Duration":149298,"SoundDuration":149298,"Delta":338013822},{"NoteNumber":63,"Velocity":66,"Duration":71770,"SoundDuration":71770,"Delta":338312419},{"NoteNumber":51,"Velocity":57,"Duration":287081,"SoundDuration":287081,"Delta":338312419},{"NoteNumber":56,"Velocity":57,"Duration":287081,"SoundDuration":287081,"Delta":338312419},{"NoteNumber":60,"Velocity":68,"Duration":287081,"SoundDuration":287081,"Delta":338312419},{"NoteNumber":65,"Velocity":61,"Duration":71770,"SoundDuration":71770,"Delta":338384189},{"NoteNumber":63,"Velocity":65,"Duration":71770,"SoundDuration":71770,"Delta":338455959},{"NoteNumber":65,"Velocity":61,"Duration":71770,"SoundDuration":71770,"Delta":338527730},{"NoteNumber":62,"Velocity":81,"Duration":286143,"SoundDuration":286143,"Delta":338599500},{"NoteNumber":53,"Velocity":62,"Duration":286143,"SoundDuration":286143,"Delta":338599500},{"NoteNumber":56,"Velocity":62,"Duration":286143,"SoundDuration":286143,"Delta":338599500},{"NoteNumber":59,"Velocity":73,"Duration":286143,"SoundDuration":286143,"Delta":338599500},{"NoteNumber":65,"Velocity":71,"Duration":93817,"SoundDuration":93817,"Delta":338885643},{"NoteNumber":41,"Velocity":57,"Duration":140726,"SoundDuration":140726,"Delta":338885643},{"NoteNumber":53,"Velocity":68,"Duration":140726,"SoundDuration":140726,"Delta":338885643},{"NoteNumber":68,"Velocity":73,"Duration":93554,"SoundDuration":93554,"Delta":338979461},{"NoteNumber":71,"Velocity":75,"Duration":93292,"SoundDuration":93292,"Delta":339073016},{"NoteNumber":74,"Velocity":77,"Duration":92245,"SoundDuration":92245,"Delta":339166308},{"NoteNumber":29,"Velocity":62,"Duration":138116,"SoundDuration":138116,"Delta":339166308},{"NoteNumber":41,"Velocity":73,"Duration":138116,"SoundDuration":138116,"Delta":339166308},{"NoteNumber":77,"Velocity":79,"Duration":91954,"SoundDuration":91954,"Delta":339258553},{"NoteNumber":80,"Velocity":81,"Duration":92592,"SoundDuration":92592,"Delta":339350508},{"NoteNumber":83,"Velocity":83,"Duration":93240,"SoundDuration":93240,"Delta":339443100},{"NoteNumber":28,"Velocity":63,"Duration":281481,"SoundDuration":281481,"Delta":339443100},{"NoteNumber":40,"Velocity":75,"Duration":281481,"SoundDuration":281481,"Delta":339443100},{"NoteNumber":86,"Velocity":85,"Duration":93677,"SoundDuration":93677,"Delta":339536341},{"NoteNumber":98,"Velocity":87,"Duration":94563,"SoundDuration":94563,"Delta":339630018},{"NoteNumber":87,"Velocity":89,"Duration":147058,"SoundDuration":147058,"Delta":339724582},{"NoteNumber":99,"Velocity":89,"Duration":147058,"SoundDuration":147058,"Delta":339724582},{"NoteNumber":27,"Velocity":64,"Duration":147058,"SoundDuration":147058,"Delta":339724582},{"NoteNumber":39,"Velocity":76,"Duration":147058,"SoundDuration":147058,"Delta":339724582},{"NoteNumber":70,"Velocity":75,"Duration":67579,"SoundDuration":67579,"Delta":340018699},{"NoteNumber":82,"Velocity":89,"Duration":67579,"SoundDuration":67579,"Delta":340018699},{"NoteNumber":75,"Velocity":75,"Duration":67579,"SoundDuration":67579,"Delta":340018699},{"NoteNumber":58,"Velocity":60,"Duration":67579,"SoundDuration":67579,"Delta":340018699},{"NoteNumber":61,"Velocity":60,"Duration":67579,"SoundDuration":67579,"Delta":340018699},{"NoteNumber":63,"Velocity":60,"Duration":67579,"SoundDuration":67579,"Delta":340018699},{"NoteNumber":67,"Velocity":71,"Duration":67579,"SoundDuration":67579,"Delta":340018699},{"NoteNumber":70,"Velocity":70,"Duration":69780,"SoundDuration":69780,"Delta":340153859},{"NoteNumber":82,"Velocity":83,"Duration":69780,"SoundDuration":69780,"Delta":340153859},{"NoteNumber":75,"Velocity":70,"Duration":69780,"SoundDuration":69780,"Delta":340153859},{"NoteNumber":58,"Velocity":56,"Duration":69780,"SoundDuration":69780,"Delta":340153859},{"NoteNumber":61,"Velocity":56,"Duration":69780,"SoundDuration":69780,"Delta":340153859},{"NoteNumber":63,"Velocity":56,"Duration":69780,"SoundDuration":69780,"Delta":340153859},{"NoteNumber":67,"Velocity":67,"Duration":69780,"SoundDuration":69780,"Delta":340153859},{"NoteNumber":70,"Velocity":75,"Duration":142857,"SoundDuration":142857,"Delta":340293419},{"NoteNumber":75,"Velocity":75,"Duration":142857,"SoundDuration":142857,"Delta":340293419},{"NoteNumber":82,"Velocity":89,"Duration":142857,"SoundDuration":142857,"Delta":340293419},{"NoteNumber":58,"Velocity":60,"Duration":142857,"SoundDuration":142857,"Delta":340293419},{"NoteNumber":61,"Velocity":60,"Duration":142857,"SoundDuration":142857,"Delta":340293419},{"NoteNumber":63,"Velocity":60,"Duration":142857,"SoundDuration":142857,"Delta":340293419},{"NoteNumber":67,"Velocity":71,"Duration":142857,"SoundDuration":142857,"Delta":340293419},{"NoteNumber":72,"Velocity":63,"Duration":142857,"SoundDuration":142857,"Delta":340436277},{"NoteNumber":75,"Velocity":63,"Duration":142857,"SoundDuration":142857,"Delta":340436277},{"NoteNumber":84,"Velocity":75,"Duration":142857,"SoundDuration":142857,"Delta":340436277},{"NoteNumber":58,"Velocity":51,"Duration":142857,"SoundDuration":142857,"Delta":340436277},{"NoteNumber":61,"Velocity":51,"Duration":142857,"SoundDuration":142857,"Delta":340436277},{"NoteNumber":63,"Velocity":51,"Duration":142857,"SoundDuration":142857,"Delta":340436277},{"NoteNumber":68,"Velocity":60,"Duration":142857,"SoundDuration":142857,"Delta":340436277},{"NoteNumber":69,"Velocity":70,"Duration":153061,"SoundDuration":153061,"Delta":340579134},{"NoteNumber":75,"Velocity":70,"Duration":153061,"SoundDuration":153061,"Delta":340579134},{"NoteNumber":81,"Velocity":83,"Duration":153061,"SoundDuration":153061,"Delta":340579134},{"NoteNumber":58,"Velocity":55,"Duration":153061,"SoundDuration":153061,"Delta":340579134},{"NoteNumber":61,"Velocity":55,"Duration":153061,"SoundDuration":153061,"Delta":340579134},{"NoteNumber":63,"Velocity":55,"Duration":153061,"SoundDuration":153061,"Delta":340579134},{"NoteNumber":66,"Velocity":65,"Duration":153061,"SoundDuration":153061,"Delta":340579134},{"NoteNumber":70,"Velocity":73,"Duration":153061,"SoundDuration":153061,"Delta":340732195},{"NoteNumber":75,"Velocity":73,"Duration":153061,"SoundDuration":153061,"Delta":340732195},{"NoteNumber":82,"Velocity":87,"Duration":153061,"SoundDuration":153061,"Delta":340732195},{"NoteNumber":58,"Velocity":58,"Duration":153061,"SoundDuration":153061,"Delta":340732195},{"NoteNumber":61,"Velocity":58,"Duration":153061,"SoundDuration":153061,"Delta":340732195},{"NoteNumber":63,"Velocity":58,"Duration":153061,"SoundDuration":153061,"Delta":340732195},{"NoteNumber":67,"Velocity":69,"Duration":153061,"SoundDuration":153061,"Delta":340732195},{"NoteNumber":72,"Velocity":77,"Duration":344827,"SoundDuration":344827,"Delta":340885256},{"NoteNumber":75,"Velocity":77,"Duration":344827,"SoundDuration":344827,"Delta":340885256},{"NoteNumber":84,"Velocity":91,"Duration":344827,"SoundDuration":344827,"Delta":340885256},{"NoteNumber":58,"Velocity":61,"Duration":344827,"SoundDuration":344827,"Delta":340885256},{"NoteNumber":61,"Velocity":61,"Duration":344827,"SoundDuration":344827,"Delta":340885256},{"NoteNumber":63,"Velocity":61,"Duration":344827,"SoundDuration":344827,"Delta":340885256},{"NoteNumber":68,"Velocity":72,"Duration":344827,"SoundDuration":344827,"Delta":340885256},{"NoteNumber":67,"Velocity":75,"Duration":357384,"SoundDuration":357384,"Delta":341230084},{"NoteNumber":73,"Velocity":75,"Duration":357384,"SoundDuration":357384,"Delta":341230084},{"NoteNumber":75,"Velocity":75,"Duration":357384,"SoundDuration":357384,"Delta":341230084},{"NoteNumber":79,"Velocity":89,"Duration":357384,"SoundDuration":357384,"Delta":341230084},{"NoteNumber":58,"Velocity":59,"Duration":357384,"SoundDuration":357384,"Delta":341230084},{"NoteNumber":61,"Velocity":59,"Duration":357384,"SoundDuration":357384,"Delta":341230084},{"NoteNumber":63,"Velocity":59,"Duration":357384,"SoundDuration":357384,"Delta":341230084},{"NoteNumber":70,"Velocity":70,"Duration":357384,"SoundDuration":357384,"Delta":341230084},{"NoteNumber":77,"Velocity":85,"Duration":428355,"SoundDuration":428355,"Delta":341587469},{"NoteNumber":68,"Velocity":78,"Duration":428355,"SoundDuration":428355,"Delta":341587469},{"NoteNumber":72,"Velocity":84,"Duration":428355,"SoundDuration":428355,"Delta":341587469},{"NoteNumber":80,"Velocity":102,"Duration":428355,"SoundDuration":428355,"Delta":341587469},{"NoteNumber":32,"Velocity":70,"Duration":156969,"SoundDuration":156969,"Delta":341587469},{"NoteNumber":44,"Velocity":84,"Duration":156969,"SoundDuration":156969,"Delta":341587469},{"NoteNumber":39,"Velocity":67,"Duration":114416,"SoundDuration":114416,"Delta":341901408},{"NoteNumber":51,"Velocity":79,"Duration":114416,"SoundDuration":114416,"Delta":341901408},{"NoteNumber":75,"Velocity":93,"Duration":114913,"SoundDuration":114913,"Delta":342015824},{"NoteNumber":63,"Velocity":79,"Duration":357164,"SoundDuration":357164,"Delta":342143505},{"NoteNumber":72,"Velocity":79,"Duration":569468,"SoundDuration":569468,"Delta":342143505},{"NoteNumber":75,"Velocity":93,"Duration":569468,"SoundDuration":569468,"Delta":342143505},{"NoteNumber":56,"Velocity":77,"Duration":143197,"SoundDuration":143197,"Delta":342143505},{"NoteNumber":44,"Velocity":64,"Duration":143197,"SoundDuration":143197,"Delta":342143505},{"NoteNumber":51,"Velocity":72,"Duration":70768,"SoundDuration":70768,"Delta":342429901},{"NoteNumber":63,"Velocity":85,"Duration":283072,"SoundDuration":283072,"Delta":342429901},{"NoteNumber":56,"Velocity":73,"Duration":136029,"SoundDuration":136029,"Delta":342712974},{"NoteNumber":68,"Velocity":86,"Duration":136029,"SoundDuration":136029,"Delta":342712974},{"NoteNumber":72,"Velocity":74,"Duration":136029,"SoundDuration":136029,"Delta":342985033},{"NoteNumber":80,"Velocity":74,"Duration":136029,"SoundDuration":136029,"Delta":342985033},{"NoteNumber":84,"Velocity":88,"Duration":136029,"SoundDuration":136029,"Delta":342985033},{"NoteNumber":63,"Velocity":61,"Duration":136029,"SoundDuration":136029,"Delta":342985033},{"NoteNumber":75,"Velocity":73,"Duration":136029,"SoundDuration":136029,"Delta":342985033},{"NoteNumber":73,"Velocity":73,"Duration":144036,"SoundDuration":144036,"Delta":343121063},{"NoteNumber":82,"Velocity":73,"Duration":144036,"SoundDuration":144036,"Delta":343121063},{"NoteNumber":85,"Velocity":86,"Duration":144036,"SoundDuration":144036,"Delta":343121063},{"NoteNumber":77,"Velocity":82,"Duration":430372,"SoundDuration":430372,"Delta":343265100},{"NoteNumber":85,"Velocity":88,"Duration":430372,"SoundDuration":430372,"Delta":343265100},{"NoteNumber":89,"Velocity":102,"Duration":430372,"SoundDuration":430372,"Delta":343265100},{"NoteNumber":32,"Velocity":70,"Duration":157978,"SoundDuration":157978,"Delta":343265100},{"NoteNumber":44,"Velocity":84,"Duration":157978,"SoundDuration":157978,"Delta":343265100},{"NoteNumber":39,"Velocity":67,"Duration":114416,"SoundDuration":114416,"Delta":343581056},{"NoteNumber":51,"Velocity":79,"Duration":114416,"SoundDuration":114416,"Delta":343581056},{"NoteNumber":75,"Velocity":79,"Duration":114913,"SoundDuration":114913,"Delta":343695472},{"NoteNumber":84,"Velocity":79,"Duration":114913,"SoundDuration":114913,"Delta":343695472},{"NoteNumber":87,"Velocity":93,"Duration":114913,"SoundDuration":114913,"Delta":343695472},{"NoteNumber":75,"Velocity":79,"Duration":569468,"SoundDuration":569468,"Delta":343823154},{"NoteNumber":84,"Velocity":79,"Duration":569468,"SoundDuration":569468,"Delta":343823154},{"NoteNumber":87,"Velocity":93,"Duration":569468,"SoundDuration":569468,"Delta":343823154},{"NoteNumber":56,"Velocity":77,"Duration":143197,"SoundDuration":143197,"Delta":343823154},{"NoteNumber":44,"Velocity":64,"Duration":143197,"SoundDuration":143197,"Delta":343823154},{"NoteNumber":51,"Velocity":72,"Duration":70768,"SoundDuration":70768,"Delta":344109550},{"NoteNumber":63,"Velocity":85,"Duration":70768,"SoundDuration":70768,"Delta":344109550},{"NoteNumber":56,"Velocity":73,"Duration":136029,"SoundDuration":136029,"Delta":344392622},{"NoteNumber":68,"Velocity":86,"Duration":136029,"SoundDuration":136029,"Delta":344392622},{"NoteNumber":72,"Velocity":74,"Duration":136029,"SoundDuration":136029,"Delta":344664682},{"NoteNumber":80,"Velocity":74,"Duration":136029,"SoundDuration":136029,"Delta":344664682},{"NoteNumber":84,"Velocity":88,"Duration":136029,"SoundDuration":136029,"Delta":344664682},{"NoteNumber":63,"Velocity":61,"Duration":136029,"SoundDuration":136029,"Delta":344664682},{"NoteNumber":75,"Velocity":73,"Duration":136029,"SoundDuration":136029,"Delta":344664682},{"NoteNumber":73,"Velocity":73,"Duration":144036,"SoundDuration":144036,"Delta":344800711},{"NoteNumber":82,"Velocity":73,"Duration":144036,"SoundDuration":144036,"Delta":344800711},{"NoteNumber":85,"Velocity":86,"Duration":144036,"SoundDuration":144036,"Delta":344800711},{"NoteNumber":77,"Velocity":82,"Duration":396106,"SoundDuration":396106,"Delta":344944748},{"NoteNumber":85,"Velocity":88,"Duration":396106,"SoundDuration":396106,"Delta":344944748},{"NoteNumber":89,"Velocity":102,"Duration":396106,"SoundDuration":396106,"Delta":344944748},{"NoteNumber":32,"Velocity":70,"Duration":140845,"SoundDuration":140845,"Delta":344944748},{"NoteNumber":44,"Velocity":84,"Duration":140845,"SoundDuration":140845,"Delta":344944748},{"NoteNumber":39,"Velocity":67,"Duration":114416,"SoundDuration":114416,"Delta":345226438},{"NoteNumber":51,"Velocity":79,"Duration":114416,"SoundDuration":114416,"Delta":345226438},{"NoteNumber":75,"Velocity":79,"Duration":132356,"SoundDuration":132356,"Delta":345340855},{"NoteNumber":84,"Velocity":79,"Duration":132356,"SoundDuration":132356,"Delta":345340855},{"NoteNumber":87,"Velocity":93,"Duration":132356,"SoundDuration":132356,"Delta":345340855},{"NoteNumber":77,"Velocity":82,"Duration":403652,"SoundDuration":403652,"Delta":345473211},{"NoteNumber":85,"Velocity":88,"Duration":403652,"SoundDuration":403652,"Delta":345473211},{"NoteNumber":89,"Velocity":102,"Duration":403652,"SoundDuration":403652,"Delta":345473211},{"NoteNumber":56,"Velocity":77,"Duration":133333,"SoundDuration":133333,"Delta":345473211},{"NoteNumber":44,"Velocity":64,"Duration":133333,"SoundDuration":133333,"Delta":345473211},{"NoteNumber":51,"Velocity":72,"Duration":68493,"SoundDuration":68493,"Delta":345739878},{"NoteNumber":63,"Velocity":85,"Duration":68493,"SoundDuration":68493,"Delta":345739878},{"NoteNumber":75,"Velocity":79,"Duration":136986,"SoundDuration":136986,"Delta":345876864},{"NoteNumber":84,"Velocity":79,"Duration":136986,"SoundDuration":136986,"Delta":345876864},{"NoteNumber":87,"Velocity":93,"Duration":136986,"SoundDuration":136986,"Delta":345876864},{"NoteNumber":77,"Velocity":82,"Duration":394737,"SoundDuration":394737,"Delta":346013850},{"NoteNumber":85,"Velocity":88,"Duration":394737,"SoundDuration":394737,"Delta":346013850},{"NoteNumber":89,"Velocity":102,"Duration":394737,"SoundDuration":394737,"Delta":346013850},{"NoteNumber":56,"Velocity":73,"Duration":131578,"SoundDuration":131578,"Delta":346013850},{"NoteNumber":68,"Velocity":86,"Duration":131578,"SoundDuration":131578,"Delta":346013850},{"NoteNumber":51,"Velocity":61,"Duration":131579,"SoundDuration":131579,"Delta":346277008},{"NoteNumber":63,"Velocity":73,"Duration":131579,"SoundDuration":131579,"Delta":346277008},{"NoteNumber":75,"Velocity":79,"Duration":138889,"SoundDuration":138889,"Delta":346408587},{"NoteNumber":84,"Velocity":79,"Duration":138889,"SoundDuration":138889,"Delta":346408587},{"NoteNumber":87,"Velocity":93,"Duration":138889,"SoundDuration":138889,"Delta":346408587},{"NoteNumber":77,"Velocity":82,"Duration":397607,"SoundDuration":397607,"Delta":346547476},{"NoteNumber":85,"Velocity":88,"Duration":397607,"SoundDuration":397607,"Delta":346547476},{"NoteNumber":89,"Velocity":102,"Duration":397607,"SoundDuration":397607,"Delta":346547476},{"NoteNumber":44,"Velocity":70,"Duration":146205,"SoundDuration":146205,"Delta":346547476},{"NoteNumber":56,"Velocity":84,"Duration":146205,"SoundDuration":146205,"Delta":346547476},{"NoteNumber":39,"Velocity":67,"Duration":114416,"SoundDuration":114416,"Delta":346830668},{"NoteNumber":51,"Velocity":79,"Duration":114416,"SoundDuration":114416,"Delta":346830668},{"NoteNumber":75,"Velocity":79,"Duration":119121,"SoundDuration":119121,"Delta":346945084},{"NoteNumber":84,"Velocity":79,"Duration":119121,"SoundDuration":119121,"Delta":346945084},{"NoteNumber":87,"Velocity":93,"Duration":119121,"SoundDuration":119121,"Delta":346945084},{"NoteNumber":75,"Velocity":79,"Duration":569468,"SoundDuration":569468,"Delta":347077441},{"NoteNumber":84,"Velocity":79,"Duration":569468,"SoundDuration":569468,"Delta":347077441},{"NoteNumber":87,"Velocity":93,"Duration":569468,"SoundDuration":569468,"Delta":347077441},{"NoteNumber":32,"Velocity":71,"Duration":71598,"SoundDuration":71598,"Delta":347077441},{"NoteNumber":44,"Velocity":84,"Duration":71598,"SoundDuration":71598,"Delta":347077441},{"NoteNumber":31,"Velocity":68,"Duration":71598,"SoundDuration":71598,"Delta":347220639},{"NoteNumber":43,"Velocity":80,"Duration":71598,"SoundDuration":71598,"Delta":347220639},{"NoteNumber":29,"Velocity":68,"Duration":70768,"SoundDuration":70768,"Delta":347363837},{"NoteNumber":41,"Velocity":81,"Duration":70768,"SoundDuration":70768,"Delta":347363837},{"NoteNumber":27,"Velocity":68,"Duration":70768,"SoundDuration":70768,"Delta":347505373},{"NoteNumber":39,"Velocity":81,"Duration":70768,"SoundDuration":70768,"Delta":347505373},{"NoteNumber":89,"Velocity":93,"Duration":68913,"SoundDuration":68913,"Delta":347646909},{"NoteNumber":84,"Velocity":79,"Duration":68913,"SoundDuration":68913,"Delta":347646909},{"NoteNumber":77,"Velocity":79,"Duration":68913,"SoundDuration":68913,"Delta":347646909},{"NoteNumber":32,"Velocity":64,"Duration":68913,"SoundDuration":68913,"Delta":347646909},{"NoteNumber":44,"Velocity":77,"Duration":68913,"SoundDuration":68913,"Delta":347646909},{"NoteNumber":79,"Velocity":81,"Duration":141136,"SoundDuration":141136,"Delta":347785255},{"NoteNumber":84,"Velocity":81,"Duration":141136,"SoundDuration":141136,"Delta":347785255},{"NoteNumber":91,"Velocity":96,"Duration":141136,"SoundDuration":141136,"Delta":347785255},{"NoteNumber":31,"Velocity":68,"Duration":70231,"SoundDuration":70231,"Delta":347785255},{"NoteNumber":43,"Velocity":80,"Duration":70231,"SoundDuration":70231,"Delta":347785255},{"NoteNumber":80,"Velocity":85,"Duration":144185,"SoundDuration":144185,"Delta":347926391},{"NoteNumber":84,"Velocity":85,"Duration":144185,"SoundDuration":144185,"Delta":347926391},{"NoteNumber":92,"Velocity":100,"Duration":144185,"SoundDuration":144185,"Delta":347926391},{"NoteNumber":29,"Velocity":70,"Duration":71738,"SoundDuration":71738,"Delta":347926391},{"NoteNumber":41,"Velocity":83,"Duration":71738,"SoundDuration":71738,"Delta":347926391},{"NoteNumber":82,"Velocity":89,"Duration":147221,"SoundDuration":147221,"Delta":348070577},{"NoteNumber":87,"Velocity":89,"Duration":289577,"SoundDuration":289577,"Delta":348070577},{"NoteNumber":94,"Velocity":105,"Duration":147221,"SoundDuration":147221,"Delta":348070577},{"NoteNumber":27,"Velocity":73,"Duration":73168,"SoundDuration":73168,"Delta":348070577},{"NoteNumber":39,"Velocity":86,"Duration":73168,"SoundDuration":73168,"Delta":348070577},{"NoteNumber":96,"Velocity":110,"Duration":284711,"SoundDuration":284711,"Delta":348217798},{"NoteNumber":92,"Velocity":110,"Duration":284711,"SoundDuration":284711,"Delta":348217798},{"NoteNumber":84,"Velocity":93,"Duration":284711,"SoundDuration":284711,"Delta":348217798},{"NoteNumber":32,"Velocity":74,"Duration":284711,"SoundDuration":284711,"Delta":348217798},{"NoteNumber":44,"Velocity":89,"Duration":284711,"SoundDuration":284711,"Delta":348217798},{"NoteNumber":52,"Velocity":79,"Duration":77986,"SoundDuration":77986,"Delta":349071931},{"NoteNumber":55,"Velocity":79,"Duration":77986,"SoundDuration":77986,"Delta":349071931},{"NoteNumber":60,"Velocity":93,"Duration":77986,"SoundDuration":77986,"Delta":349071931},{"NoteNumber":64,"Velocity":93,"Duration":77986,"SoundDuration":77986,"Delta":349071931},{"NoteNumber":36,"Velocity":65,"Duration":77986,"SoundDuration":77986,"Delta":349071931},{"NoteNumber":43,"Velocity":65,"Duration":77986,"SoundDuration":77986,"Delta":349071931},{"NoteNumber":48,"Velocity":77,"Duration":77986,"SoundDuration":77986,"Delta":349071931},{"NoteNumber":52,"Velocity":75,"Duration":77986,"SoundDuration":77986,"Delta":349227905},{"NoteNumber":55,"Velocity":75,"Duration":77986,"SoundDuration":77986,"Delta":349227905},{"NoteNumber":60,"Velocity":89,"Duration":77986,"SoundDuration":77986,"Delta":349227905},{"NoteNumber":64,"Velocity":89,"Duration":77986,"SoundDuration":77986,"Delta":349227905},{"NoteNumber":36,"Velocity":61,"Duration":77986,"SoundDuration":77986,"Delta":349227905},{"NoteNumber":43,"Velocity":61,"Duration":77986,"SoundDuration":77986,"Delta":349227905},{"NoteNumber":48,"Velocity":72,"Duration":77986,"SoundDuration":77986,"Delta":349227905},{"NoteNumber":52,"Velocity":79,"Duration":155973,"SoundDuration":155973,"Delta":349383879},{"NoteNumber":55,"Velocity":79,"Duration":155973,"SoundDuration":155973,"Delta":349383879},{"NoteNumber":60,"Velocity":93,"Duration":155973,"SoundDuration":155973,"Delta":349383879},{"NoteNumber":64,"Velocity":93,"Duration":155973,"SoundDuration":155973,"Delta":349383879},{"NoteNumber":36,"Velocity":65,"Duration":155973,"SoundDuration":155973,"Delta":349383879},{"NoteNumber":43,"Velocity":65,"Duration":155973,"SoundDuration":155973,"Delta":349383879},{"NoteNumber":48,"Velocity":77,"Duration":155973,"SoundDuration":155973,"Delta":349383879},{"NoteNumber":52,"Velocity":74,"Duration":166574,"SoundDuration":166574,"Delta":349695826},{"NoteNumber":55,"Velocity":74,"Duration":166574,"SoundDuration":166574,"Delta":349695826},{"NoteNumber":60,"Velocity":88,"Duration":166574,"SoundDuration":166574,"Delta":349695826},{"NoteNumber":64,"Velocity":88,"Duration":166574,"SoundDuration":166574,"Delta":349695826},{"NoteNumber":36,"Velocity":60,"Duration":166574,"SoundDuration":166574,"Delta":349695826},{"NoteNumber":43,"Velocity":60,"Duration":166574,"SoundDuration":166574,"Delta":349695826},{"NoteNumber":48,"Velocity":71,"Duration":166574,"SoundDuration":166574,"Delta":349695826},{"NoteNumber":52,"Velocity":78,"Duration":393721,"SoundDuration":393721,"Delta":349901134},{"NoteNumber":55,"Velocity":78,"Duration":360809,"SoundDuration":360809,"Delta":349934046},{"NoteNumber":36,"Velocity":60,"Duration":360809,"SoundDuration":360809,"Delta":349934046},{"NoteNumber":60,"Velocity":92,"Duration":327897,"SoundDuration":327897,"Delta":349966958},{"NoteNumber":43,"Velocity":60,"Duration":327897,"SoundDuration":327897,"Delta":349966958},{"NoteNumber":64,"Velocity":92,"Duration":294985,"SoundDuration":294985,"Delta":349999870},{"NoteNumber":48,"Velocity":71,"Duration":294985,"SoundDuration":294985,"Delta":349999870},{"NoteNumber":52,"Velocity":79,"Duration":392675,"SoundDuration":392675,"Delta":350474912},{"NoteNumber":55,"Velocity":79,"Duration":360112,"SoundDuration":360112,"Delta":350507475},{"NoteNumber":36,"Velocity":60,"Duration":360112,"SoundDuration":360112,"Delta":350507475},{"NoteNumber":60,"Velocity":93,"Duration":327548,"SoundDuration":327548,"Delta":350540038},{"NoteNumber":43,"Velocity":60,"Duration":327548,"SoundDuration":327548,"Delta":350540038},{"NoteNumber":64,"Velocity":93,"Duration":294985,"SoundDuration":294985,"Delta":350572602},{"NoteNumber":48,"Velocity":71,"Duration":294985,"SoundDuration":294985,"Delta":350572602},{"NoteNumber":51,"Velocity":79,"Duration":376451,"SoundDuration":376451,"Delta":351047817},{"NoteNumber":55,"Velocity":79,"Duration":343715,"SoundDuration":343715,"Delta":351080554},{"NoteNumber":39,"Velocity":60,"Duration":343715,"SoundDuration":343715,"Delta":351080554},{"NoteNumber":61,"Velocity":93,"Duration":310978,"SoundDuration":310978,"Delta":351113290},{"NoteNumber":63,"Velocity":93,"Duration":278241,"SoundDuration":278241,"Delta":351146027},{"NoteNumber":46,"Velocity":71,"Duration":278241,"SoundDuration":278241,"Delta":351146027},{"NoteNumber":56,"Velocity":86,"Duration":310945,"SoundDuration":310945,"Delta":351702510},{"NoteNumber":60,"Velocity":86,"Duration":310945,"SoundDuration":310945,"Delta":351702510},{"NoteNumber":68,"Velocity":102,"Duration":310945,"SoundDuration":310945,"Delta":351702510},{"NoteNumber":32,"Velocity":67,"Duration":310945,"SoundDuration":310945,"Delta":351702510},{"NoteNumber":44,"Velocity":79,"Duration":310945,"SoundDuration":310945,"Delta":351702510}],"license":{"name":"Creative Commons Attribution-ShareAlike 3.0 Germany","url":"http://creativecommons.org/licenses/by-sa/3.0/de/deed.en","text":"The MIDI, audio (MP3, OGG) and video files of Bernd Krueger are licensed under the cc-by-sa Germany License. This means that you can use and adapt the files, as long as you attribute the copyright holder.\n\nName: Bernd Krueger\nSource: http://www.piano-midi.de\n\nThe distribution or public playback of the files is only allowed under identical license conditions.\n\nThe scores are open source.","attribution":"MIDI files by Bernd Krueger (piano-midi.de)"}}