{"title":"Chopin Prelude No. 24, Opus 28","artist":"Chopin","durationMs":123195,"midiSha256":"ed1b2c8855265b2917b50df798081f6faa7b5bdf7883a0625aa92d7df0e2775d","midiObject":[{"NoteNumber":38,"Velocity":92,"Duration":130310,"SoundDuration":130310,"Delta":0},{"NoteNumber":45,"Velocity":56,"Duration":525327,"SoundDuration":525327,"Delta":130310},{"NoteNumber":53,"Velocity":56,"Duration":130310,"SoundDuration":130310,"Delta":260620},{"NoteNumber":38,"Velocity":46,"Duration":130310,"SoundDuration":130310,"Delta":390930},{"NoteNumber":57,"Velocity":69,"Duration":268792,"SoundDuration":268792,"Delta":521240},{"NoteNumber":38,"Velocity":75,"Duration":130310,"SoundDuration":130310,"Delta":790033},{"NoteNumber":45,"Velocity":53,"Duration":524727,"SoundDuration":524727,"Delta":920344},{"NoteNumber":53,"Velocity":53,"Duration":130310,"SoundDuration":130310,"Delta":1050654},{"NoteNumber":38,"Velocity":48,"Duration":130310,"SoundDuration":130310,"Delta":1180964},{"NoteNumber":57,"Velocity":65,"Duration":267594,"SoundDuration":267594,"Delta":1311274},{"NoteNumber":38,"Velocity":63,"Duration":130310,"SoundDuration":130310,"Delta":1578869},{"NoteNumber":45,"Velocity":51,"Duration":523544,"SoundDuration":523544,"Delta":1709179},{"NoteNumber":53,"Velocity":51,"Duration":130310,"SoundDuration":130310,"Delta":1839489},{"NoteNumber":38,"Velocity":46,"Duration":130310,"SoundDuration":130310,"Delta":1969800},{"NoteNumber":57,"Velocity":60,"Duration":265228,"SoundDuration":265228,"Delta":2100110},{"NoteNumber":38,"Velocity":61,"Duration":130310,"SoundDuration":130310,"Delta":2365338},{"NoteNumber":45,"Velocity":52,"Duration":525327,"SoundDuration":525327,"Delta":2495649},{"NoteNumber":53,"Velocity":53,"Duration":130310,"SoundDuration":130310,"Delta":2625959},{"NoteNumber":38,"Velocity":46,"Duration":130310,"SoundDuration":130310,"Delta":2756269},{"NoteNumber":57,"Velocity":60,"Duration":268793,"SoundDuration":268793,"Delta":2886579},{"NoteNumber":69,"Velocity":79,"Duration":521240,"SoundDuration":521240,"Delta":3155372},{"NoteNumber":38,"Velocity":55,"Duration":130310,"SoundDuration":130310,"Delta":3155372},{"NoteNumber":45,"Velocity":48,"Duration":525919,"SoundDuration":525919,"Delta":3285683},{"NoteNumber":53,"Velocity":47,"Duration":130310,"SoundDuration":130310,"Delta":3415993},{"NoteNumber":38,"Velocity":41,"Duration":130310,"SoundDuration":130310,"Delta":3546303},{"NoteNumber":65,"Velocity":73,"Duration":269978,"SoundDuration":269978,"Delta":3676613},{"NoteNumber":57,"Velocity":50,"Duration":269978,"SoundDuration":269978,"Delta":3676613},{"NoteNumber":62,"Velocity":70,"Duration":1584369,"SoundDuration":1584369,"Delta":3946592},{"NoteNumber":38,"Velocity":54,"Duration":132030,"SoundDuration":132030,"Delta":3946592},{"NoteNumber":45,"Velocity":45,"Duration":528122,"SoundDuration":528122,"Delta":4078623},{"NoteNumber":53,"Velocity":45,"Duration":132030,"SoundDuration":132030,"Delta":4210654},{"NoteNumber":38,"Velocity":38,"Duration":132030,"SoundDuration":132030,"Delta":4342684},{"NoteNumber":57,"Velocity":53,"Duration":264061,"SoundDuration":264061,"Delta":4474715},{"NoteNumber":38,"Velocity":55,"Duration":132030,"SoundDuration":132030,"Delta":4738777},{"NoteNumber":45,"Velocity":45,"Duration":528123,"SoundDuration":528123,"Delta":4870807},{"NoteNumber":53,"Velocity":46,"Duration":132030,"SoundDuration":132030,"Delta":5002838},{"NoteNumber":38,"Velocity":40,"Duration":132030,"SoundDuration":132030,"Delta":5134869},{"NoteNumber":57,"Velocity":53,"Duration":264061,"SoundDuration":264061,"Delta":5266900},{"NoteNumber":65,"Velocity":72,"Duration":260620,"SoundDuration":260620,"Delta":5530961},{"NoteNumber":38,"Velocity":54,"Duration":130310,"SoundDuration":130310,"Delta":5530961},{"NoteNumber":45,"Velocity":47,"Duration":521240,"SoundDuration":521240,"Delta":5661271},{"NoteNumber":69,"Velocity":77,"Duration":390930,"SoundDuration":390930,"Delta":5791582},{"NoteNumber":53,"Velocity":47,"Duration":130310,"SoundDuration":130310,"Delta":5791582},{"NoteNumber":38,"Velocity":42,"Duration":130310,"SoundDuration":130310,"Delta":5921892},{"NoteNumber":57,"Velocity":56,"Duration":260620,"SoundDuration":260620,"Delta":6052202},{"NoteNumber":74,"Velocity":78,"Duration":130310,"SoundDuration":130310,"Delta":6182512},{"NoteNumber":72,"Velocity":77,"Duration":1438574,"SoundDuration":1438574,"Delta":6312823},{"NoteNumber":38,"Velocity":57,"Duration":130310,"SoundDuration":130310,"Delta":6312823},{"NoteNumber":45,"Velocity":49,"Duration":521240,"SoundDuration":521240,"Delta":6443133},{"NoteNumber":53,"Velocity":49,"Duration":130310,"SoundDuration":130310,"Delta":6573443},{"NoteNumber":38,"Velocity":44,"Duration":130310,"SoundDuration":130310,"Delta":6703753},{"NoteNumber":57,"Velocity":54,"Duration":260620,"SoundDuration":260620,"Delta":6834064},{"NoteNumber":38,"Velocity":56,"Duration":130310,"SoundDuration":130310,"Delta":7094684},{"NoteNumber":45,"Velocity":48,"Duration":526402,"SoundDuration":526402,"Delta":7224994},{"NoteNumber":53,"Velocity":49,"Duration":132030,"SoundDuration":132030,"Delta":7355305},{"NoteNumber":38,"Velocity":43,"Duration":132030,"SoundDuration":132030,"Delta":7487335},{"NoteNumber":57,"Velocity":54,"Duration":264061,"SoundDuration":264061,"Delta":7619366},{"NoteNumber":70,"Velocity":75,"Duration":132030,"SoundDuration":132030,"Delta":7751397},{"NoteNumber":69,"Velocity":70,"Duration":781861,"SoundDuration":781861,"Delta":7883427},{"NoteNumber":38,"Velocity":54,"Duration":130310,"SoundDuration":130310,"Delta":7883427},{"NoteNumber":45,"Velocity":48,"Duration":521240,"SoundDuration":521240,"Delta":8013738},{"NoteNumber":53,"Velocity":48,"Duration":130310,"SoundDuration":130310,"Delta":8144048},{"NoteNumber":38,"Velocity":43,"Duration":130310,"SoundDuration":130310,"Delta":8274358},{"NoteNumber":57,"Velocity":51,"Duration":260620,"SoundDuration":260620,"Delta":8404669},{"NoteNumber":38,"Velocity":53,"Duration":130310,"SoundDuration":130310,"Delta":8665289},{"NoteNumber":45,"Velocity":48,"Duration":525327,"SoundDuration":525327,"Delta":8795599},{"NoteNumber":53,"Velocity":48,"Duration":130310,"SoundDuration":130310,"Delta":8925910},{"NoteNumber":38,"Velocity":42,"Duration":130310,"SoundDuration":130310,"Delta":9056220},{"NoteNumber":57,"Velocity":51,"Duration":268793,"SoundDuration":268793,"Delta":9186530},{"NoteNumber":69,"Velocity":77,"Duration":134396,"SoundDuration":134396,"Delta":9320927},{"NoteNumber":69,"Velocity":77,"Duration":521240,"SoundDuration":521240,"Delta":9455323},{"NoteNumber":38,"Velocity":57,"Duration":130310,"SoundDuration":130310,"Delta":9455323},{"NoteNumber":45,"Velocity":47,"Duration":622868,"SoundDuration":622868,"Delta":9585633},{"NoteNumber":53,"Velocity":47,"Duration":130310,"SoundDuration":130310,"Delta":9715944},{"NoteNumber":38,"Velocity":42,"Duration":130310,"SoundDuration":130310,"Delta":9846254},{"NoteNumber":57,"Velocity":54,"Duration":514690,"SoundDuration":514690,"Delta":9976564},{"NoteNumber":65,"Velocity":63,"Duration":94250,"SoundDuration":94250,"Delta":10208502},{"NoteNumber":62,"Velocity":63,"Duration":65975,"SoundDuration":65975,"Delta":10293328},{"NoteNumber":64,"Velocity":63,"Duration":65975,"SoundDuration":65975,"Delta":10359303},{"NoteNumber":65,"Velocity":63,"Duration":65975,"SoundDuration":65975,"Delta":10425279},{"NoteNumber":64,"Velocity":72,"Duration":260620,"SoundDuration":260620,"Delta":10491254},{"NoteNumber":38,"Velocity":54,"Duration":130310,"SoundDuration":130310,"Delta":10491254},{"NoteNumber":45,"Velocity":45,"Duration":524631,"SoundDuration":524631,"Delta":10621564},{"NoteNumber":62,"Velocity":72,"Duration":262881,"SoundDuration":262881,"Delta":10751875},{"NoteNumber":53,"Velocity":45,"Duration":131440,"SoundDuration":131440,"Delta":10751875},{"NoteNumber":38,"Velocity":41,"Duration":131440,"SoundDuration":131440,"Delta":10883315},{"NoteNumber":57,"Velocity":53,"Duration":262881,"SoundDuration":262881,"Delta":11014756},{"NoteNumber":38,"Velocity":55,"Duration":130310,"SoundDuration":130310,"Delta":11277637},{"NoteNumber":45,"Velocity":45,"Duration":521240,"SoundDuration":521240,"Delta":11407947},{"NoteNumber":53,"Velocity":45,"Duration":130310,"SoundDuration":130310,"Delta":11538257},{"NoteNumber":38,"Velocity":39,"Duration":130310,"SoundDuration":130310,"Delta":11668567},{"NoteNumber":65,"Velocity":70,"Duration":260620,"SoundDuration":260620,"Delta":11798878},{"NoteNumber":57,"Velocity":53,"Duration":260620,"SoundDuration":260620,"Delta":11798878},{"NoteNumber":69,"Velocity":72,"Duration":257246,"SoundDuration":257246,"Delta":12059498},{"NoteNumber":38,"Velocity":54,"Duration":128622,"SoundDuration":128622,"Delta":12059498},{"NoteNumber":45,"Velocity":46,"Duration":514492,"SoundDuration":514492,"Delta":12188121},{"NoteNumber":74,"Velocity":76,"Duration":385868,"SoundDuration":385868,"Delta":12316744},{"NoteNumber":53,"Velocity":46,"Duration":128622,"SoundDuration":128622,"Delta":12316744},{"NoteNumber":38,"Velocity":40,"Duration":128623,"SoundDuration":128623,"Delta":12445367},{"NoteNumber":57,"Velocity":53,"Duration":257246,"SoundDuration":257246,"Delta":12573990},{"NoteNumber":77,"Velocity":77,"Duration":128623,"SoundDuration":128623,"Delta":12702613},{"NoteNumber":76,"Velocity":79,"Duration":1426677,"SoundDuration":1426677,"Delta":12831236},{"NoteNumber":38,"Velocity":55,"Duration":130310,"SoundDuration":130310,"Delta":12831236},{"NoteNumber":45,"Velocity":47,"Duration":520118,"SoundDuration":520118,"Delta":12961546},{"NoteNumber":53,"Velocity":47,"Duration":130310,"SoundDuration":130310,"Delta":13091857},{"NoteNumber":38,"Velocity":41,"Duration":130310,"SoundDuration":130310,"Delta":13222167},{"NoteNumber":57,"Velocity":53,"Duration":258375,"SoundDuration":258375,"Delta":13352477},{"NoteNumber":38,"Velocity":54,"Duration":129187,"SoundDuration":129187,"Delta":13610853},{"NoteNumber":45,"Velocity":47,"Duration":517873,"SoundDuration":517873,"Delta":13740040},{"NoteNumber":53,"Velocity":46,"Duration":129187,"SoundDuration":129187,"Delta":13869228},{"NoteNumber":38,"Velocity":43,"Duration":129187,"SoundDuration":129187,"Delta":13998416},{"NoteNumber":57,"Velocity":53,"Duration":260620,"SoundDuration":260620,"Delta":14127604},{"NoteNumber":74,"Velocity":79,"Duration":130310,"SoundDuration":130310,"Delta":14257914},{"NoteNumber":69,"Velocity":79,"Duration":396092,"SoundDuration":396092,"Delta":14388224},{"NoteNumber":38,"Velocity":55,"Duration":132030,"SoundDuration":132030,"Delta":14388224},{"NoteNumber":45,"Velocity":47,"Duration":546474,"SoundDuration":546474,"Delta":14520255},{"NoteNumber":53,"Velocity":47,"Duration":132030,"SoundDuration":132030,"Delta":14652286},{"NoteNumber":69,"Velocity":57,"Duration":66015,"SoundDuration":66015,"Delta":14784316},{"NoteNumber":38,"Velocity":44,"Duration":132030,"SoundDuration":132030,"Delta":14784316},{"NoteNumber":71,"Velocity":57,"Duration":66015,"SoundDuration":66015,"Delta":14850332},{"NoteNumber":72,"Velocity":58,"Duration":76068,"SoundDuration":76068,"Delta":14916347},{"NoteNumber":57,"Velocity":53,"Duration":290507,"SoundDuration":290507,"Delta":14916347},{"NoteNumber":71,"Velocity":58,"Duration":74313,"SoundDuration":74313,"Delta":14992416},{"NoteNumber":72,"Velocity":59,"Duration":69989,"SoundDuration":69989,"Delta":15066729},{"NoteNumber":71,"Velocity":59,"Duration":70136,"SoundDuration":70136,"Delta":15136719},{"NoteNumber":72,"Velocity":60,"Duration":67494,"SoundDuration":67494,"Delta":15206855},{"NoteNumber":38,"Velocity":54,"Duration":134791,"SoundDuration":134791,"Delta":15206855},{"NoteNumber":71,"Velocity":60,"Duration":67297,"SoundDuration":67297,"Delta":15274349},{"NoteNumber":72,"Velocity":61,"Duration":66898,"SoundDuration":66898,"Delta":15341646},{"NoteNumber":43,"Velocity":46,"Duration":527007,"SoundDuration":527007,"Delta":15341646},{"NoteNumber":71,"Velocity":61,"Duration":66696,"SoundDuration":66696,"Delta":15408545},{"NoteNumber":72,"Velocity":62,"Duration":66209,"SoundDuration":66209,"Delta":15475242},{"NoteNumber":53,"Velocity":47,"Duration":132225,"SoundDuration":132225,"Delta":15475242},{"NoteNumber":71,"Velocity":62,"Duration":66015,"SoundDuration":66015,"Delta":15541452},{"NoteNumber":72,"Velocity":63,"Duration":65626,"SoundDuration":65626,"Delta":15607467},{"NoteNumber":38,"Velocity":42,"Duration":130876,"SoundDuration":130876,"Delta":15607467},{"NoteNumber":71,"Velocity":63,"Duration":65249,"SoundDuration":65249,"Delta":15673094},{"NoteNumber":72,"Velocity":63,"Duration":65155,"SoundDuration":65155,"Delta":15738343},{"NoteNumber":55,"Velocity":53,"Duration":260620,"SoundDuration":260620,"Delta":15738343},{"NoteNumber":71,"Velocity":63,"Duration":65155,"SoundDuration":65155,"Delta":15803499},{"NoteNumber":69,"Velocity":64,"Duration":65155,"SoundDuration":65155,"Delta":15868654},{"NoteNumber":71,"Velocity":64,"Duration":65155,"SoundDuration":65155,"Delta":15933809},{"NoteNumber":72,"Velocity":79,"Duration":781861,"SoundDuration":781861,"Delta":15998964},{"NoteNumber":36,"Velocity":62,"Duration":130310,"SoundDuration":130310,"Delta":15998964},{"NoteNumber":45,"Velocity":48,"Duration":521240,"SoundDuration":521240,"Delta":16129274},{"NoteNumber":53,"Velocity":48,"Duration":130310,"SoundDuration":130310,"Delta":16259584},{"NoteNumber":36,"Velocity":44,"Duration":130310,"SoundDuration":130310,"Delta":16389895},{"NoteNumber":57,"Velocity":56,"Duration":260620,"SoundDuration":260620,"Delta":16520205},{"NoteNumber":70,"Velocity":78,"Duration":521240,"SoundDuration":521240,"Delta":16780825},{"NoteNumber":36,"Velocity":60,"Duration":130310,"SoundDuration":130310,"Delta":16780825},{"NoteNumber":45,"Velocity":49,"Duration":521240,"SoundDuration":521240,"Delta":16911136},{"NoteNumber":53,"Velocity":49,"Duration":130310,"SoundDuration":130310,"Delta":17041446},{"NoteNumber":36,"Velocity":45,"Duration":130310,"SoundDuration":130310,"Delta":17171756},{"NoteNumber":69,"Velocity":73,"Duration":260620,"SoundDuration":260620,"Delta":17302066},{"NoteNumber":57,"Velocity":55,"Duration":260620,"SoundDuration":260620,"Delta":17302066},{"NoteNumber":67,"Velocity":60,"Duration":73941,"SoundDuration":73941,"Delta":17562687},{"NoteNumber":36,"Velocity":59,"Duration":146690,"SoundDuration":146690,"Delta":17562687},{"NoteNumber":69,"Velocity":61,"Duration":72748,"SoundDuration":72748,"Delta":17636629},{"NoteNumber":67,"Velocity":61,"Duration":71357,"SoundDuration":71357,"Delta":17709377},{"NoteNumber":43,"Velocity":48,"Duration":141598,"SoundDuration":141598,"Delta":17709377},{"NoteNumber":69,"Velocity":62,"Duration":70241,"SoundDuration":70241,"Delta":17780734},{"NoteNumber":67,"Velocity":63,"Duration":68846,"SoundDuration":68846,"Delta":17850976},{"NoteNumber":53,"Velocity":49,"Duration":137065,"SoundDuration":137065,"Delta":17850976},{"NoteNumber":69,"Velocity":63,"Duration":68219,"SoundDuration":68219,"Delta":17919822},{"NoteNumber":67,"Velocity":63,"Duration":67295,"SoundDuration":67295,"Delta":17988041},{"NoteNumber":36,"Velocity":45,"Duration":133992,"SoundDuration":133992,"Delta":17988041},{"NoteNumber":69,"Velocity":64,"Duration":66696,"SoundDuration":66696,"Delta":18055337},{"NoteNumber":67,"Velocity":64,"Duration":65823,"SoundDuration":65823,"Delta":18122034},{"NoteNumber":55,"Velocity":63,"Duration":261191,"SoundDuration":261191,"Delta":18122034},{"NoteNumber":69,"Velocity":65,"Duration":65058,"SoundDuration":65058,"Delta":18187857},{"NoteNumber":65,"Velocity":66,"Duration":65155,"SoundDuration":65155,"Delta":18252916},{"NoteNumber":67,"Velocity":67,"Duration":65155,"SoundDuration":65155,"Delta":18318071},{"NoteNumber":69,"Velocity":78,"Duration":521240,"SoundDuration":521240,"Delta":18383226},{"NoteNumber":36,"Velocity":60,"Duration":130310,"SoundDuration":130310,"Delta":18383226},{"NoteNumber":43,"Velocity":49,"Duration":130310,"SoundDuration":130310,"Delta":18513536},{"NoteNumber":53,"Velocity":49,"Duration":130310,"SoundDuration":130310,"Delta":18643846},{"NoteNumber":36,"Velocity":43,"Duration":130310,"SoundDuration":130310,"Delta":18774157},{"NoteNumber":55,"Velocity":62,"Duration":265228,"SoundDuration":265228,"Delta":18904467},{"NoteNumber":65,"Velocity":78,"Duration":132614,"SoundDuration":132614,"Delta":19037081},{"NoteNumber":60,"Velocity":72,"Duration":1574016,"SoundDuration":1574016,"Delta":19169695},{"NoteNumber":36,"Velocity":63,"Duration":132614,"SoundDuration":132614,"Delta":19169695},{"NoteNumber":46,"Velocity":50,"Duration":132614,"SoundDuration":132614,"Delta":19302310},{"NoteNumber":53,"Velocity":50,"Duration":130878,"SoundDuration":130878,"Delta":19434924},{"NoteNumber":36,"Velocity":45,"Duration":130878,"SoundDuration":130878,"Delta":19565803},{"NoteNumber":55,"Velocity":63,"Duration":261757,"SoundDuration":261757,"Delta":19696681},{"NoteNumber":36,"Velocity":63,"Duration":130878,"SoundDuration":130878,"Delta":19958439},{"NoteNumber":46,"Velocity":48,"Duration":130878,"SoundDuration":130878,"Delta":20089318},{"NoteNumber":53,"Velocity":48,"Duration":130878,"SoundDuration":130878,"Delta":20220196},{"NoteNumber":36,"Velocity":42,"Duration":130878,"SoundDuration":130878,"Delta":20351075},{"NoteNumber":55,"Velocity":63,"Duration":261757,"SoundDuration":261757,"Delta":20481954},{"NoteNumber":60,"Velocity":72,"Duration":162401,"SoundDuration":162401,"Delta":20743711},{"NoteNumber":36,"Velocity":61,"Duration":135404,"SoundDuration":135404,"Delta":20743711},{"NoteNumber":46,"Velocity":51,"Duration":134594,"SoundDuration":134594,"Delta":20879115},{"NoteNumber":62,"Velocity":61,"Duration":53837,"SoundDuration":53837,"Delta":20906113},{"NoteNumber":60,"Velocity":62,"Duration":53758,"SoundDuration":53758,"Delta":20959951},{"NoteNumber":59,"Velocity":63,"Duration":53518,"SoundDuration":53518,"Delta":21013710},{"NoteNumber":52,"Velocity":50,"Duration":133595,"SoundDuration":133595,"Delta":21013710},{"NoteNumber":60,"Velocity":63,"Duration":53438,"SoundDuration":53438,"Delta":21067228},{"NoteNumber":62,"Velocity":63,"Duration":53276,"SoundDuration":53276,"Delta":21120667},{"NoteNumber":36,"Velocity":44,"Duration":132806,"SoundDuration":132806,"Delta":21147305},{"NoteNumber":64,"Velocity":64,"Duration":53122,"SoundDuration":53122,"Delta":21173943},{"NoteNumber":65,"Velocity":64,"Duration":53045,"SoundDuration":53045,"Delta":21227066},{"NoteNumber":67,"Velocity":65,"Duration":52812,"SoundDuration":52812,"Delta":21280111},{"NoteNumber":55,"Velocity":56,"Duration":262899,"SoundDuration":262899,"Delta":21280111},{"NoteNumber":69,"Velocity":66,"Duration":52733,"SoundDuration":52733,"Delta":21332924},{"NoteNumber":70,"Velocity":66,"Duration":52576,"SoundDuration":52576,"Delta":21385657},{"NoteNumber":72,"Velocity":67,"Duration":52426,"SoundDuration":52426,"Delta":21438233},{"NoteNumber":74,"Velocity":68,"Duration":52351,"SoundDuration":52351,"Delta":21490660},{"NoteNumber":76,"Velocity":69,"Duration":52351,"SoundDuration":52351,"Delta":21543011},{"NoteNumber":36,"Velocity":61,"Duration":130878,"SoundDuration":130878,"Delta":21543011},{"NoteNumber":77,"Velocity":69,"Duration":52351,"SoundDuration":52351,"Delta":21595363},{"NoteNumber":79,"Velocity":70,"Duration":52351,"SoundDuration":52351,"Delta":21647714},{"NoteNumber":46,"Velocity":49,"Duration":131065,"SoundDuration":131065,"Delta":21673890},{"NoteNumber":81,"Velocity":71,"Duration":52351,"SoundDuration":52351,"Delta":21700066},{"NoteNumber":82,"Velocity":71,"Duration":52538,"SoundDuration":52538,"Delta":21752417},{"NoteNumber":84,"Velocity":72,"Duration":52576,"SoundDuration":52576,"Delta":21804956},{"NoteNumber":52,"Velocity":49,"Duration":131440,"SoundDuration":131440,"Delta":21804956},{"NoteNumber":86,"Velocity":72,"Duration":52576,"SoundDuration":52576,"Delta":21857532},{"NoteNumber":88,"Velocity":72,"Duration":52694,"SoundDuration":52694,"Delta":21910108},{"NoteNumber":36,"Velocity":45,"Duration":132030,"SoundDuration":132030,"Delta":21936397},{"NoteNumber":89,"Velocity":73,"Duration":52812,"SoundDuration":52812,"Delta":21962803},{"NoteNumber":91,"Velocity":74,"Duration":52812,"SoundDuration":52812,"Delta":22015615},{"NoteNumber":93,"Velocity":75,"Duration":52812,"SoundDuration":52812,"Delta":22068427},{"NoteNumber":55,"Velocity":57,"Duration":264839,"SoundDuration":264839,"Delta":22068427},{"NoteNumber":94,"Velocity":75,"Duration":52890,"SoundDuration":52890,"Delta":22121240},{"NoteNumber":96,"Velocity":76,"Duration":53045,"SoundDuration":53045,"Delta":22174130},{"NoteNumber":98,"Velocity":77,"Duration":53045,"SoundDuration":53045,"Delta":22227175},{"NoteNumber":100,"Velocity":77,"Duration":53045,"SoundDuration":53045,"Delta":22280221},{"NoteNumber":101,"Velocity":90,"Duration":521240,"SoundDuration":521240,"Delta":22333267},{"NoteNumber":41,"Velocity":64,"Duration":130310,"SoundDuration":130310,"Delta":22333267},{"NoteNumber":48,"Velocity":52,"Duration":130310,"SoundDuration":130310,"Delta":22463577},{"NoteNumber":57,"Velocity":52,"Duration":130310,"SoundDuration":130310,"Delta":22593887},{"NoteNumber":41,"Velocity":45,"Duration":130310,"SoundDuration":130310,"Delta":22724198},{"NoteNumber":60,"Velocity":59,"Duration":268792,"SoundDuration":268792,"Delta":22854508},{"NoteNumber":41,"Velocity":64,"Duration":130310,"SoundDuration":130310,"Delta":23123301},{"NoteNumber":48,"Velocity":52,"Duration":130310,"SoundDuration":130310,"Delta":23253611},{"NoteNumber":57,"Velocity":52,"Duration":130310,"SoundDuration":130310,"Delta":23383921},{"NoteNumber":41,"Velocity":45,"Duration":130310,"SoundDuration":130310,"Delta":23514232},{"NoteNumber":60,"Velocity":59,"Duration":267594,"SoundDuration":267594,"Delta":23644542},{"NoteNumber":71,"Velocity":64,"Duration":73219,"SoundDuration":73219,"Delta":23912136},{"NoteNumber":41,"Velocity":64,"Duration":145264,"SoundDuration":145264,"Delta":23912136},{"NoteNumber":72,"Velocity":64,"Duration":72044,"SoundDuration":72044,"Delta":23985356},{"NoteNumber":71,"Velocity":64,"Duration":70352,"SoundDuration":70352,"Delta":24057401},{"NoteNumber":51,"Velocity":54,"Duration":139410,"SoundDuration":139410,"Delta":24057401},{"NoteNumber":72,"Velocity":64,"Duration":69057,"SoundDuration":69057,"Delta":24127754},{"NoteNumber":71,"Velocity":64,"Duration":67503,"SoundDuration":67503,"Delta":24196811},{"NoteNumber":57,"Velocity":54,"Duration":133813,"SoundDuration":133813,"Delta":24196811},{"NoteNumber":72,"Velocity":64,"Duration":66309,"SoundDuration":66309,"Delta":24264315},{"NoteNumber":71,"Velocity":65,"Duration":66015,"SoundDuration":66015,"Delta":24330625},{"NoteNumber":41,"Velocity":46,"Duration":132030,"SoundDuration":132030,"Delta":24330625},{"NoteNumber":72,"Velocity":65,"Duration":66015,"SoundDuration":66015,"Delta":24396640},{"NoteNumber":71,"Velocity":65,"Duration":65626,"SoundDuration":65626,"Delta":24462655},{"NoteNumber":59,"Velocity":60,"Duration":260992,"SoundDuration":260992,"Delta":24462655},{"NoteNumber":72,"Velocity":65,"Duration":65439,"SoundDuration":65439,"Delta":24528282},{"NoteNumber":69,"Velocity":65,"Duration":65059,"SoundDuration":65059,"Delta":24593721},{"NoteNumber":71,"Velocity":65,"Duration":64867,"SoundDuration":64867,"Delta":24658781},{"NoteNumber":72,"Velocity":77,"Duration":518940,"SoundDuration":518940,"Delta":24723648},{"NoteNumber":41,"Velocity":64,"Duration":129735,"SoundDuration":129735,"Delta":24723648},{"NoteNumber":47,"Velocity":53,"Duration":129735,"SoundDuration":129735,"Delta":24853384},{"NoteNumber":57,"Velocity":53,"Duration":129735,"SoundDuration":129735,"Delta":24983119},{"NoteNumber":41,"Velocity":45,"Duration":129735,"SoundDuration":129735,"Delta":25112854},{"NoteNumber":59,"Velocity":59,"Duration":262881,"SoundDuration":262881,"Delta":25242589},{"NoteNumber":69,"Velocity":77,"Duration":131440,"SoundDuration":131440,"Delta":25374030},{"NoteNumber":64,"Velocity":76,"Duration":517961,"SoundDuration":517961,"Delta":25505470},{"NoteNumber":40,"Velocity":64,"Duration":131440,"SoundDuration":131440,"Delta":25505470},{"NoteNumber":48,"Velocity":52,"Duration":131440,"SoundDuration":131440,"Delta":25636911},{"NoteNumber":57,"Velocity":52,"Duration":127540,"SoundDuration":127540,"Delta":25768351},{"NoteNumber":40,"Velocity":45,"Duration":127540,"SoundDuration":127540,"Delta":25895892},{"NoteNumber":89,"Velocity":87,"Duration":298391,"SoundDuration":298391,"Delta":26023432},{"NoteNumber":60,"Velocity":60,"Duration":259470,"SoundDuration":259470,"Delta":26023432},{"NoteNumber":40,"Velocity":64,"Duration":129735,"SoundDuration":129735,"Delta":26282902},{"NoteNumber":88,"Velocity":74,"Duration":61624,"SoundDuration":61624,"Delta":26321823},{"NoteNumber":84,"Velocity":73,"Duration":61624,"SoundDuration":61624,"Delta":26383447},{"NoteNumber":48,"Velocity":54,"Duration":129735,"SoundDuration":129735,"Delta":26412638},{"NoteNumber":81,"Velocity":72,"Duration":61624,"SoundDuration":61624,"Delta":26445071},{"NoteNumber":77,"Velocity":72,"Duration":62083,"SoundDuration":62083,"Delta":26506696},{"NoteNumber":57,"Velocity":54,"Duration":133211,"SoundDuration":133211,"Delta":26542373},{"NoteNumber":76,"Velocity":72,"Duration":62933,"SoundDuration":62933,"Delta":26568779},{"NoteNumber":72,"Velocity":72,"Duration":64213,"SoundDuration":64213,"Delta":26631713},{"NoteNumber":40,"Velocity":46,"Duration":136233,"SoundDuration":136233,"Delta":26675584},{"NoteNumber":69,"Velocity":71,"Duration":64595,"SoundDuration":64595,"Delta":26695926},{"NoteNumber":65,"Velocity":70,"Duration":65044,"SoundDuration":65044,"Delta":26760521},{"NoteNumber":60,"Velocity":61,"Duration":145545,"SoundDuration":145545,"Delta":26811818},{"NoteNumber":64,"Velocity":70,"Duration":65611,"SoundDuration":65611,"Delta":26825565},{"NoteNumber":60,"Velocity":69,"Duration":200113,"SoundDuration":200113,"Delta":26891177},{"NoteNumber":57,"Velocity":68,"Duration":66648,"SoundDuration":66648,"Delta":26957363},{"NoteNumber":53,"Velocity":68,"Duration":67278,"SoundDuration":67278,"Delta":27024011},{"NoteNumber":52,"Velocity":85,"Duration":519168,"SoundDuration":519168,"Delta":27091290},{"NoteNumber":40,"Velocity":64,"Duration":129735,"SoundDuration":129735,"Delta":27091290},{"NoteNumber":50,"Velocity":54,"Duration":129735,"SoundDuration":129735,"Delta":27221025},{"NoteNumber":56,"Velocity":54,"Duration":129735,"SoundDuration":129735,"Delta":27350760},{"NoteNumber":40,"Velocity":49,"Duration":129962,"SoundDuration":129962,"Delta":27480496},{"NoteNumber":52,"Velocity":64,"Duration":104474,"SoundDuration":104474,"Delta":27610458},{"NoteNumber":59,"Velocity":60,"Duration":260846,"SoundDuration":260846,"Delta":27610458},{"NoteNumber":53,"Velocity":65,"Duration":34749,"SoundDuration":34749,"Delta":27714932},{"NoteNumber":52,"Velocity":66,"Duration":34749,"SoundDuration":34749,"Delta":27749682},{"NoteNumber":51,"Velocity":67,"Duration":34749,"SoundDuration":34749,"Delta":27784431},{"NoteNumber":52,"Velocity":67,"Duration":34749,"SoundDuration":34749,"Delta":27819181},{"NoteNumber":54,"Velocity":68,"Duration":34749,"SoundDuration":34749,"Delta":27853930},{"NoteNumber":40,"Velocity":64,"Duration":131929,"SoundDuration":131929,"Delta":27871305},{"NoteNumber":56,"Velocity":68,"Duration":34749,"SoundDuration":34749,"Delta":27888679},{"NoteNumber":57,"Velocity":68,"Duration":35363,"SoundDuration":35363,"Delta":27923429},{"NoteNumber":59,"Velocity":69,"Duration":35521,"SoundDuration":35521,"Delta":27958793},{"NoteNumber":60,"Velocity":69,"Duration":35758,"SoundDuration":35758,"Delta":27994314},{"NoteNumber":50,"Velocity":53,"Duration":135408,"SoundDuration":135408,"Delta":28003234},{"NoteNumber":62,"Velocity":70,"Duration":35997,"SoundDuration":35997,"Delta":28030073},{"NoteNumber":64,"Velocity":70,"Duration":36162,"SoundDuration":36162,"Delta":28066070},{"NoteNumber":66,"Velocity":71,"Duration":36410,"SoundDuration":36410,"Delta":28102232},{"NoteNumber":68,"Velocity":71,"Duration":36745,"SoundDuration":36745,"Delta":28138643},{"NoteNumber":56,"Velocity":53,"Duration":140518,"SoundDuration":140518,"Delta":28138643},{"NoteNumber":69,"Velocity":72,"Duration":37259,"SoundDuration":37259,"Delta":28175389},{"NoteNumber":71,"Velocity":72,"Duration":37877,"SoundDuration":37877,"Delta":28212648},{"NoteNumber":72,"Velocity":72,"Duration":38241,"SoundDuration":38241,"Delta":28250526},{"NoteNumber":40,"Velocity":47,"Duration":147921,"SoundDuration":147921,"Delta":28279162},{"NoteNumber":74,"Velocity":72,"Duration":38800,"SoundDuration":38800,"Delta":28288768},{"NoteNumber":76,"Velocity":73,"Duration":39371,"SoundDuration":39371,"Delta":28327569},{"NoteNumber":78,"Velocity":74,"Duration":39962,"SoundDuration":39962,"Delta":28366940},{"NoteNumber":80,"Velocity":74,"Duration":40466,"SoundDuration":40466,"Delta":28406902},{"NoteNumber":59,"Velocity":64,"Duration":326786,"SoundDuration":326786,"Delta":28427083},{"NoteNumber":81,"Velocity":75,"Duration":40986,"SoundDuration":40986,"Delta":28447368},{"NoteNumber":83,"Velocity":75,"Duration":41844,"SoundDuration":41844,"Delta":28488355},{"NoteNumber":84,"Velocity":76,"Duration":42517,"SoundDuration":42517,"Delta":28530199},{"NoteNumber":86,"Velocity":76,"Duration":43557,"SoundDuration":43557,"Delta":28572716},{"NoteNumber":88,"Velocity":77,"Duration":44777,"SoundDuration":44777,"Delta":28616274},{"NoteNumber":90,"Velocity":77,"Duration":45938,"SoundDuration":45938,"Delta":28661052},{"NoteNumber":92,"Velocity":78,"Duration":46879,"SoundDuration":46879,"Delta":28706990},{"NoteNumber":93,"Velocity":85,"Duration":524447,"SoundDuration":524447,"Delta":28753870},{"NoteNumber":33,"Velocity":67,"Duration":133516,"SoundDuration":133516,"Delta":28753870},{"NoteNumber":40,"Velocity":53,"Duration":130310,"SoundDuration":130310,"Delta":28887386},{"NoteNumber":48,"Velocity":54,"Duration":130310,"SoundDuration":130310,"Delta":29017697},{"NoteNumber":33,"Velocity":47,"Duration":130310,"SoundDuration":130310,"Delta":29148007},{"NoteNumber":52,"Velocity":59,"Duration":260620,"SoundDuration":260620,"Delta":29278317},{"NoteNumber":33,"Velocity":65,"Duration":130310,"SoundDuration":130310,"Delta":29538938},{"NoteNumber":40,"Velocity":53,"Duration":130310,"SoundDuration":130310,"Delta":29669248},{"NoteNumber":48,"Velocity":53,"Duration":130310,"SoundDuration":130310,"Delta":29799558},{"NoteNumber":33,"Velocity":47,"Duration":130310,"SoundDuration":130310,"Delta":29929868},{"NoteNumber":52,"Velocity":58,"Duration":260620,"SoundDuration":260620,"Delta":30060179},{"NoteNumber":33,"Velocity":64,"Duration":130310,"SoundDuration":130310,"Delta":30320799},{"NoteNumber":40,"Velocity":50,"Duration":130310,"SoundDuration":130310,"Delta":30451109},{"NoteNumber":48,"Velocity":50,"Duration":130310,"SoundDuration":130310,"Delta":30581420},{"NoteNumber":33,"Velocity":45,"Duration":130310,"SoundDuration":130310,"Delta":30711730},{"NoteNumber":52,"Velocity":59,"Duration":260620,"SoundDuration":260620,"Delta":30842040},{"NoteNumber":33,"Velocity":64,"Duration":130310,"SoundDuration":130310,"Delta":31102661},{"NoteNumber":40,"Velocity":48,"Duration":130310,"SoundDuration":130310,"Delta":31232971},{"NoteNumber":48,"Velocity":48,"Duration":130310,"SoundDuration":130310,"Delta":31363281},{"NoteNumber":33,"Velocity":45,"Duration":130310,"SoundDuration":130310,"Delta":31493591},{"NoteNumber":52,"Velocity":58,"Duration":260620,"SoundDuration":260620,"Delta":31623902},{"NoteNumber":64,"Velocity":77,"Duration":521240,"SoundDuration":521240,"Delta":31884522},{"NoteNumber":33,"Velocity":55,"Duration":130310,"SoundDuration":130310,"Delta":31884522},{"NoteNumber":40,"Velocity":46,"Duration":130310,"SoundDuration":130310,"Delta":32014832},{"NoteNumber":48,"Velocity":46,"Duration":130310,"SoundDuration":130310,"Delta":32145143},{"NoteNumber":33,"Velocity":40,"Duration":130310,"SoundDuration":130310,"Delta":32275453},{"NoteNumber":60,"Velocity":70,"Duration":269978,"SoundDuration":269978,"Delta":32405763},{"NoteNumber":52,"Velocity":53,"Duration":269978,"SoundDuration":269978,"Delta":32405763},{"NoteNumber":57,"Velocity":67,"Duration":1584369,"SoundDuration":1584369,"Delta":32675742},{"NoteNumber":33,"Velocity":54,"Duration":132030,"SoundDuration":132030,"Delta":32675742},{"NoteNumber":40,"Velocity":45,"Duration":132030,"SoundDuration":132030,"Delta":32807772},{"NoteNumber":48,"Velocity":46,"Duration":132030,"SoundDuration":132030,"Delta":32939803},{"NoteNumber":33,"Velocity":41,"Duration":132030,"SoundDuration":132030,"Delta":33071834},{"NoteNumber":52,"Velocity":53,"Duration":264061,"SoundDuration":264061,"Delta":33203865},{"NoteNumber":33,"Velocity":55,"Duration":132030,"SoundDuration":132030,"Delta":33467926},{"NoteNumber":40,"Velocity":46,"Duration":132030,"SoundDuration":132030,"Delta":33599957},{"NoteNumber":48,"Velocity":47,"Duration":132030,"SoundDuration":132030,"Delta":33731988},{"NoteNumber":33,"Velocity":41,"Duration":132030,"SoundDuration":132030,"Delta":33864018},{"NoteNumber":52,"Velocity":53,"Duration":264061,"SoundDuration":264061,"Delta":33996049},{"NoteNumber":60,"Velocity":72,"Duration":260620,"SoundDuration":260620,"Delta":34260111},{"NoteNumber":33,"Velocity":54,"Duration":130310,"SoundDuration":130310,"Delta":34260111},{"NoteNumber":40,"Velocity":48,"Duration":130310,"SoundDuration":130310,"Delta":34390421},{"NoteNumber":64,"Velocity":77,"Duration":390930,"SoundDuration":390930,"Delta":34520731},{"NoteNumber":48,"Velocity":48,"Duration":130310,"SoundDuration":130310,"Delta":34520731},{"NoteNumber":33,"Velocity":43,"Duration":130310,"SoundDuration":130310,"Delta":34651041},{"NoteNumber":52,"Velocity":56,"Duration":260620,"SoundDuration":260620,"Delta":34781352},{"NoteNumber":69,"Velocity":78,"Duration":130310,"SoundDuration":130310,"Delta":34911662},{"NoteNumber":67,"Velocity":77,"Duration":1438574,"SoundDuration":1438574,"Delta":35041972},{"NoteNumber":33,"Velocity":57,"Duration":130310,"SoundDuration":130310,"Delta":35041972},{"NoteNumber":40,"Velocity":48,"Duration":130310,"SoundDuration":130310,"Delta":35172282},{"NoteNumber":48,"Velocity":48,"Duration":130310,"SoundDuration":130310,"Delta":35302593},{"NoteNumber":33,"Velocity":43,"Duration":130310,"SoundDuration":130310,"Delta":35432903},{"NoteNumber":52,"Velocity":54,"Duration":260620,"SoundDuration":260620,"Delta":35563213},{"NoteNumber":33,"Velocity":56,"Duration":130310,"SoundDuration":130310,"Delta":35823834},{"NoteNumber":40,"Velocity":48,"Duration":130310,"SoundDuration":130310,"Delta":35954144},{"NoteNumber":48,"Velocity":48,"Duration":132030,"SoundDuration":132030,"Delta":36084454},{"NoteNumber":33,"Velocity":44,"Duration":132030,"SoundDuration":132030,"Delta":36216485},{"NoteNumber":52,"Velocity":54,"Duration":264061,"SoundDuration":264061,"Delta":36348516},{"NoteNumber":65,"Velocity":75,"Duration":132030,"SoundDuration":132030,"Delta":36480546},{"NoteNumber":64,"Velocity":70,"Duration":781861,"SoundDuration":781861,"Delta":36612577},{"NoteNumber":33,"Velocity":54,"Duration":130310,"SoundDuration":130310,"Delta":36612577},{"NoteNumber":40,"Velocity":48,"Duration":130310,"SoundDuration":130310,"Delta":36742887},{"NoteNumber":48,"Velocity":48,"Duration":130310,"SoundDuration":130310,"Delta":36873198},{"NoteNumber":33,"Velocity":43,"Duration":130310,"SoundDuration":130310,"Delta":37003508},{"NoteNumber":52,"Velocity":51,"Duration":260620,"SoundDuration":260620,"Delta":37133818},{"NoteNumber":33,"Velocity":53,"Duration":130310,"SoundDuration":130310,"Delta":37394439},{"NoteNumber":40,"Velocity":47,"Duration":130310,"SoundDuration":130310,"Delta":37524749},{"NoteNumber":48,"Velocity":47,"Duration":130310,"SoundDuration":130310,"Delta":37655059},{"NoteNumber":33,"Velocity":43,"Duration":130310,"SoundDuration":130310,"Delta":37785369},{"NoteNumber":52,"Velocity":51,"Duration":268793,"SoundDuration":268793,"Delta":37915680},{"NoteNumber":64,"Velocity":77,"Duration":134396,"SoundDuration":134396,"Delta":38050076},{"NoteNumber":64,"Velocity":77,"Duration":521241,"SoundDuration":521241,"Delta":38184473},{"NoteNumber":33,"Velocity":57,"Duration":130310,"SoundDuration":130310,"Delta":38184473},{"NoteNumber":40,"Velocity":48,"Duration":130310,"SoundDuration":130310,"Delta":38314783},{"NoteNumber":48,"Velocity":48,"Duration":130310,"SoundDuration":130310,"Delta":38445093},{"NoteNumber":33,"Velocity":45,"Duration":130310,"SoundDuration":130310,"Delta":38575403},{"NoteNumber":52,"Velocity":54,"Duration":514690,"SoundDuration":514690,"Delta":38705714},{"NoteNumber":60,"Velocity":63,"Duration":94250,"SoundDuration":94250,"Delta":38937652},{"NoteNumber":57,"Velocity":63,"Duration":65975,"SoundDuration":65975,"Delta":39022477},{"NoteNumber":59,"Velocity":63,"Duration":65975,"SoundDuration":65975,"Delta":39088453},{"NoteNumber":60,"Velocity":63,"Duration":65975,"SoundDuration":65975,"Delta":39154428},{"NoteNumber":59,"Velocity":72,"Duration":260620,"SoundDuration":260620,"Delta":39220404},{"NoteNumber":33,"Velocity":54,"Duration":130310,"SoundDuration":130310,"Delta":39220404},{"NoteNumber":40,"Velocity":46,"Duration":130310,"SoundDuration":130310,"Delta":39350714},{"NoteNumber":57,"Velocity":72,"Duration":262881,"SoundDuration":262881,"Delta":39481024},{"NoteNumber":48,"Velocity":45,"Duration":131440,"SoundDuration":131440,"Delta":39481024},{"NoteNumber":33,"Velocity":41,"Duration":131440,"SoundDuration":131440,"Delta":39612465},{"NoteNumber":52,"Velocity":53,"Duration":262881,"SoundDuration":262881,"Delta":39743905},{"NoteNumber":33,"Velocity":55,"Duration":130310,"SoundDuration":130310,"Delta":40006786},{"NoteNumber":40,"Velocity":45,"Duration":130310,"SoundDuration":130310,"Delta":40137096},{"NoteNumber":48,"Velocity":45,"Duration":130310,"SoundDuration":130310,"Delta":40267407},{"NoteNumber":33,"Velocity":39,"Duration":130310,"SoundDuration":130310,"Delta":40397717},{"NoteNumber":60,"Velocity":70,"Duration":260620,"SoundDuration":260620,"Delta":40528027},{"NoteNumber":52,"Velocity":53,"Duration":260620,"SoundDuration":260620,"Delta":40528027},{"NoteNumber":64,"Velocity":72,"Duration":257246,"SoundDuration":257246,"Delta":40788648},{"NoteNumber":33,"Velocity":54,"Duration":128622,"SoundDuration":128622,"Delta":40788648},{"NoteNumber":40,"Velocity":47,"Duration":128623,"SoundDuration":128623,"Delta":40917271},{"NoteNumber":69,"Velocity":76,"Duration":385868,"SoundDuration":385868,"Delta":41045894},{"NoteNumber":48,"Velocity":47,"Duration":128622,"SoundDuration":128622,"Delta":41045894},{"NoteNumber":33,"Velocity":42,"Duration":128622,"SoundDuration":128622,"Delta":41174517},{"NoteNumber":52,"Velocity":53,"Duration":257246,"SoundDuration":257246,"Delta":41303140},{"NoteNumber":72,"Velocity":77,"Duration":128622,"SoundDuration":128622,"Delta":41431763},{"NoteNumber":71,"Velocity":79,"Duration":1426677,"SoundDuration":1426677,"Delta":41560386},{"NoteNumber":33,"Velocity":55,"Duration":130310,"SoundDuration":130310,"Delta":41560386},{"NoteNumber":40,"Velocity":46,"Duration":130310,"SoundDuration":130310,"Delta":41690696},{"NoteNumber":48,"Velocity":46,"Duration":130310,"SoundDuration":130310,"Delta":41821006},{"NoteNumber":33,"Velocity":43,"Duration":130310,"SoundDuration":130310,"Delta":41951316},{"NoteNumber":52,"Velocity":53,"Duration":258375,"SoundDuration":258375,"Delta":42081627},{"NoteNumber":33,"Velocity":54,"Duration":129187,"SoundDuration":129187,"Delta":42340002},{"NoteNumber":40,"Velocity":48,"Duration":129187,"SoundDuration":129187,"Delta":42469190},{"NoteNumber":48,"Velocity":47,"Duration":129187,"SoundDuration":129187,"Delta":42598378},{"NoteNumber":33,"Velocity":42,"Duration":129187,"SoundDuration":129187,"Delta":42727565},{"NoteNumber":52,"Velocity":53,"Duration":260620,"SoundDuration":260620,"Delta":42856753},{"NoteNumber":69,"Velocity":79,"Duration":130310,"SoundDuration":130310,"Delta":42987063},{"NoteNumber":64,"Velocity":79,"Duration":396092,"SoundDuration":396092,"Delta":43117374},{"NoteNumber":33,"Velocity":55,"Duration":132030,"SoundDuration":132030,"Delta":43117374},{"NoteNumber":40,"Velocity":47,"Duration":132030,"SoundDuration":132030,"Delta":43249404},{"NoteNumber":48,"Velocity":47,"Duration":132030,"SoundDuration":132030,"Delta":43381435},{"NoteNumber":64,"Velocity":57,"Duration":66015,"SoundDuration":66015,"Delta":43513466},{"NoteNumber":33,"Velocity":44,"Duration":132030,"SoundDuration":132030,"Delta":43513466},{"NoteNumber":66,"Velocity":57,"Duration":66015,"SoundDuration":66015,"Delta":43579481},{"NoteNumber":67,"Velocity":58,"Duration":76068,"SoundDuration":76068,"Delta":43645497},{"NoteNumber":52,"Velocity":53,"Duration":292452,"SoundDuration":292452,"Delta":43645497},{"NoteNumber":66,"Velocity":58,"Duration":74313,"SoundDuration":74313,"Delta":43721566},{"NoteNumber":67,"Velocity":59,"Duration":71934,"SoundDuration":71934,"Delta":43795879},{"NoteNumber":66,"Velocity":59,"Duration":70136,"SoundDuration":70136,"Delta":43867813},{"NoteNumber":67,"Velocity":60,"Duration":67494,"SoundDuration":67494,"Delta":43937949},{"NoteNumber":33,"Velocity":54,"Duration":134791,"SoundDuration":134791,"Delta":43937949},{"NoteNumber":66,"Velocity":60,"Duration":67297,"SoundDuration":67297,"Delta":44005444},{"NoteNumber":67,"Velocity":61,"Duration":66898,"SoundDuration":66898,"Delta":44072741},{"NoteNumber":38,"Velocity":47,"Duration":133595,"SoundDuration":133595,"Delta":44072741},{"NoteNumber":66,"Velocity":61,"Duration":66696,"SoundDuration":66696,"Delta":44139640},{"NoteNumber":67,"Velocity":62,"Duration":66209,"SoundDuration":66209,"Delta":44206336},{"NoteNumber":48,"Velocity":47,"Duration":132225,"SoundDuration":132225,"Delta":44206336},{"NoteNumber":66,"Velocity":62,"Duration":66015,"SoundDuration":66015,"Delta":44272546},{"NoteNumber":67,"Velocity":63,"Duration":65626,"SoundDuration":65626,"Delta":44338561},{"NoteNumber":33,"Velocity":42,"Duration":130876,"SoundDuration":130876,"Delta":44338561},{"NoteNumber":66,"Velocity":63,"Duration":65249,"SoundDuration":65249,"Delta":44404188},{"NoteNumber":67,"Velocity":63,"Duration":65155,"SoundDuration":65155,"Delta":44469438},{"NoteNumber":50,"Velocity":53,"Duration":260620,"SoundDuration":260620,"Delta":44469438},{"NoteNumber":66,"Velocity":63,"Duration":65155,"SoundDuration":65155,"Delta":44534593},{"NoteNumber":64,"Velocity":64,"Duration":65155,"SoundDuration":65155,"Delta":44599748},{"NoteNumber":66,"Velocity":64,"Duration":65155,"SoundDuration":65155,"Delta":44664903},{"NoteNumber":67,"Velocity":79,"Duration":781861,"SoundDuration":781861,"Delta":44730058},{"NoteNumber":31,"Velocity":62,"Duration":130310,"SoundDuration":130310,"Delta":44730058},{"NoteNumber":40,"Velocity":48,"Duration":130310,"SoundDuration":130310,"Delta":44860369},{"NoteNumber":48,"Velocity":48,"Duration":130310,"SoundDuration":130310,"Delta":44990679},{"NoteNumber":31,"Velocity":42,"Duration":130310,"SoundDuration":130310,"Delta":45120989},{"NoteNumber":52,"Velocity":56,"Duration":260620,"SoundDuration":260620,"Delta":45251299},{"NoteNumber":65,"Velocity":78,"Duration":521241,"SoundDuration":521241,"Delta":45511920},{"NoteNumber":31,"Velocity":60,"Duration":130310,"SoundDuration":130310,"Delta":45511920},{"NoteNumber":40,"Velocity":50,"Duration":130310,"SoundDuration":130310,"Delta":45642230},{"NoteNumber":48,"Velocity":49,"Duration":130310,"SoundDuration":130310,"Delta":45772540},{"NoteNumber":31,"Velocity":44,"Duration":130310,"SoundDuration":130310,"Delta":45902851},{"NoteNumber":64,"Velocity":77,"Duration":260620,"SoundDuration":260620,"Delta":46033161},{"NoteNumber":52,"Velocity":55,"Duration":260620,"SoundDuration":260620,"Delta":46033161},{"NoteNumber":62,"Velocity":60,"Duration":73941,"SoundDuration":73941,"Delta":46293781},{"NoteNumber":31,"Velocity":59,"Duration":146690,"SoundDuration":146690,"Delta":46293781},{"NoteNumber":64,"Velocity":61,"Duration":72748,"SoundDuration":72748,"Delta":46367723},{"NoteNumber":62,"Velocity":61,"Duration":71357,"SoundDuration":71357,"Delta":46440472},{"NoteNumber":38,"Velocity":48,"Duration":141598,"SoundDuration":141598,"Delta":46440472},{"NoteNumber":64,"Velocity":62,"Duration":70241,"SoundDuration":70241,"Delta":46511829},{"NoteNumber":62,"Velocity":63,"Duration":68846,"SoundDuration":68846,"Delta":46582070},{"NoteNumber":48,"Velocity":48,"Duration":137065,"SoundDuration":137065,"Delta":46582070},{"NoteNumber":64,"Velocity":63,"Duration":68219,"SoundDuration":68219,"Delta":46650917},{"NoteNumber":62,"Velocity":63,"Duration":67295,"SoundDuration":67295,"Delta":46719136},{"NoteNumber":31,"Velocity":44,"Duration":133992,"SoundDuration":133992,"Delta":46719136},{"NoteNumber":64,"Velocity":64,"Duration":66696,"SoundDuration":66696,"Delta":46786432},{"NoteNumber":62,"Velocity":64,"Duration":65823,"SoundDuration":65823,"Delta":46853128},{"NoteNumber":50,"Velocity":53,"Duration":261191,"SoundDuration":261191,"Delta":46853128},{"NoteNumber":64,"Velocity":65,"Duration":65058,"SoundDuration":65058,"Delta":46918952},{"NoteNumber":60,"Velocity":66,"Duration":65155,"SoundDuration":65155,"Delta":46984010},{"NoteNumber":62,"Velocity":67,"Duration":65155,"SoundDuration":65155,"Delta":47049165},{"NoteNumber":64,"Velocity":78,"Duration":521241,"SoundDuration":521241,"Delta":47114320},{"NoteNumber":31,"Velocity":60,"Duration":130310,"SoundDuration":130310,"Delta":47114320},{"NoteNumber":38,"Velocity":50,"Duration":130310,"SoundDuration":130310,"Delta":47244631},{"NoteNumber":48,"Velocity":50,"Duration":130310,"SoundDuration":130310,"Delta":47374941},{"NoteNumber":31,"Velocity":44,"Duration":130310,"SoundDuration":130310,"Delta":47505251},{"NoteNumber":50,"Velocity":56,"Duration":265228,"SoundDuration":265228,"Delta":47635561},{"NoteNumber":60,"Velocity":78,"Duration":132614,"SoundDuration":132614,"Delta":47768176},{"NoteNumber":55,"Velocity":72,"Duration":1574016,"SoundDuration":1574016,"Delta":47900790},{"NoteNumber":31,"Velocity":60,"Duration":132614,"SoundDuration":132614,"Delta":47900790},{"NoteNumber":38,"Velocity":50,"Duration":132614,"SoundDuration":132614,"Delta":48033404},{"NoteNumber":48,"Velocity":49,"Duration":130878,"SoundDuration":130878,"Delta":48166018},{"NoteNumber":31,"Velocity":45,"Duration":130878,"SoundDuration":130878,"Delta":48296897},{"NoteNumber":50,"Velocity":55,"Duration":261757,"SoundDuration":261757,"Delta":48427776},{"NoteNumber":31,"Velocity":60,"Duration":130878,"SoundDuration":130878,"Delta":48689533},{"NoteNumber":38,"Velocity":50,"Duration":130878,"SoundDuration":130878,"Delta":48820412},{"NoteNumber":48,"Velocity":48,"Duration":130878,"SoundDuration":130878,"Delta":48951291},{"NoteNumber":31,"Velocity":44,"Duration":130878,"SoundDuration":130878,"Delta":49082170},{"NoteNumber":50,"Velocity":55,"Duration":261757,"SoundDuration":261757,"Delta":49213048},{"NoteNumber":55,"Velocity":72,"Duration":162401,"SoundDuration":162401,"Delta":49474806},{"NoteNumber":31,"Velocity":61,"Duration":135404,"SoundDuration":135404,"Delta":49474806},{"NoteNumber":41,"Velocity":51,"Duration":134594,"SoundDuration":134594,"Delta":49610210},{"NoteNumber":57,"Velocity":61,"Duration":53837,"SoundDuration":53837,"Delta":49637208},{"NoteNumber":55,"Velocity":62,"Duration":53758,"SoundDuration":53758,"Delta":49691045},{"NoteNumber":54,"Velocity":63,"Duration":53518,"SoundDuration":53518,"Delta":49744804},{"NoteNumber":47,"Velocity":50,"Duration":133595,"SoundDuration":133595,"Delta":49744804},{"NoteNumber":55,"Velocity":63,"Duration":53438,"SoundDuration":53438,"Delta":49798323},{"NoteNumber":57,"Velocity":63,"Duration":53276,"SoundDuration":53276,"Delta":49851761},{"NoteNumber":31,"Velocity":44,"Duration":132806,"SoundDuration":132806,"Delta":49878399},{"NoteNumber":59,"Velocity":64,"Duration":53122,"SoundDuration":53122,"Delta":49905037},{"NoteNumber":60,"Velocity":64,"Duration":53045,"SoundDuration":53045,"Delta":49958160},{"NoteNumber":62,"Velocity":65,"Duration":52812,"SoundDuration":52812,"Delta":50011206},{"NoteNumber":50,"Velocity":50,"Duration":262900,"SoundDuration":262900,"Delta":50011206},{"NoteNumber":64,"Velocity":66,"Duration":52733,"SoundDuration":52733,"Delta":50064018},{"NoteNumber":65,"Velocity":66,"Duration":52576,"SoundDuration":52576,"Delta":50116752},{"NoteNumber":67,"Velocity":67,"Duration":52426,"SoundDuration":52426,"Delta":50169328},{"NoteNumber":69,"Velocity":68,"Duration":52351,"SoundDuration":52351,"Delta":50221754},{"NoteNumber":71,"Velocity":69,"Duration":52351,"SoundDuration":52351,"Delta":50274106},{"NoteNumber":31,"Velocity":61,"Duration":130878,"SoundDuration":130878,"Delta":50274106},{"NoteNumber":72,"Velocity":69,"Duration":52351,"SoundDuration":52351,"Delta":50326457},{"NoteNumber":74,"Velocity":70,"Duration":52351,"SoundDuration":52351,"Delta":50378809},{"NoteNumber":41,"Velocity":52,"Duration":131065,"SoundDuration":131065,"Delta":50404985},{"NoteNumber":76,"Velocity":71,"Duration":52351,"SoundDuration":52351,"Delta":50431160},{"NoteNumber":77,"Velocity":71,"Duration":52538,"SoundDuration":52538,"Delta":50483512},{"NoteNumber":79,"Velocity":72,"Duration":52576,"SoundDuration":52576,"Delta":50536051},{"NoteNumber":47,"Velocity":51,"Duration":131440,"SoundDuration":131440,"Delta":50536051},{"NoteNumber":81,"Velocity":72,"Duration":52576,"SoundDuration":52576,"Delta":50588627},{"NoteNumber":83,"Velocity":72,"Duration":52694,"SoundDuration":52694,"Delta":50641203},{"NoteNumber":31,"Velocity":45,"Duration":132030,"SoundDuration":132030,"Delta":50667491},{"NoteNumber":84,"Velocity":73,"Duration":52812,"SoundDuration":52812,"Delta":50693897},{"NoteNumber":86,"Velocity":74,"Duration":52812,"SoundDuration":52812,"Delta":50746710},{"NoteNumber":88,"Velocity":75,"Duration":52812,"SoundDuration":52812,"Delta":50799522},{"NoteNumber":50,"Velocity":57,"Duration":264839,"SoundDuration":264839,"Delta":50799522},{"NoteNumber":89,"Velocity":75,"Duration":52890,"SoundDuration":52890,"Delta":50852334},{"NoteNumber":91,"Velocity":76,"Duration":53045,"SoundDuration":53045,"Delta":50905224},{"NoteNumber":93,"Velocity":77,"Duration":53045,"SoundDuration":53045,"Delta":50958270},{"NoteNumber":95,"Velocity":77,"Duration":53045,"SoundDuration":53045,"Delta":51011316},{"NoteNumber":96,"Velocity":90,"Duration":521241,"SoundDuration":521241,"Delta":51064361},{"NoteNumber":36,"Velocity":64,"Duration":130310,"SoundDuration":130310,"Delta":51064361},{"NoteNumber":43,"Velocity":54,"Duration":130310,"SoundDuration":130310,"Delta":51194672},{"NoteNumber":52,"Velocity":52,"Duration":130310,"SoundDuration":130310,"Delta":51324982},{"NoteNumber":36,"Velocity":47,"Duration":130310,"SoundDuration":130310,"Delta":51455292},{"NoteNumber":55,"Velocity":59,"Duration":268793,"SoundDuration":268793,"Delta":51585602},{"NoteNumber":36,"Velocity":64,"Duration":130310,"SoundDuration":130310,"Delta":51854395},{"NoteNumber":43,"Velocity":51,"Duration":130310,"SoundDuration":130310,"Delta":51984706},{"NoteNumber":52,"Velocity":51,"Duration":130310,"SoundDuration":130310,"Delta":52115016},{"NoteNumber":36,"Velocity":45,"Duration":130310,"SoundDuration":130310,"Delta":52245326},{"NoteNumber":55,"Velocity":59,"Duration":267594,"SoundDuration":267594,"Delta":52375636},{"NoteNumber":66,"Velocity":64,"Duration":73219,"SoundDuration":73219,"Delta":52643231},{"NoteNumber":36,"Velocity":64,"Duration":145264,"SoundDuration":145264,"Delta":52643231},{"NoteNumber":67,"Velocity":64,"Duration":72044,"SoundDuration":72044,"Delta":52716451},{"NoteNumber":66,"Velocity":64,"Duration":70352,"SoundDuration":70352,"Delta":52788496},{"NoteNumber":42,"Velocity":53,"Duration":139410,"SoundDuration":139410,"Delta":52788496},{"NoteNumber":67,"Velocity":64,"Duration":69057,"SoundDuration":69057,"Delta":52858849},{"NoteNumber":66,"Velocity":64,"Duration":67503,"SoundDuration":67503,"Delta":52927906},{"NoteNumber":52,"Velocity":53,"Duration":133813,"SoundDuration":133813,"Delta":52927906},{"NoteNumber":67,"Velocity":64,"Duration":66309,"SoundDuration":66309,"Delta":52995409},{"NoteNumber":66,"Velocity":65,"Duration":66015,"SoundDuration":66015,"Delta":53061719},{"NoteNumber":36,"Velocity":47,"Duration":132030,"SoundDuration":132030,"Delta":53061719},{"NoteNumber":67,"Velocity":65,"Duration":66015,"SoundDuration":66015,"Delta":53127734},{"NoteNumber":66,"Velocity":65,"Duration":65626,"SoundDuration":65626,"Delta":53193750},{"NoteNumber":54,"Velocity":60,"Duration":260992,"SoundDuration":260992,"Delta":53193750},{"NoteNumber":67,"Velocity":65,"Duration":65439,"SoundDuration":65439,"Delta":53259376},{"NoteNumber":64,"Velocity":65,"Duration":65059,"SoundDuration":65059,"Delta":53324816},{"NoteNumber":66,"Velocity":65,"Duration":64867,"SoundDuration":64867,"Delta":53389875},{"NoteNumber":67,"Velocity":77,"Duration":518941,"SoundDuration":518941,"Delta":53454743},{"NoteNumber":36,"Velocity":64,"Duration":129735,"SoundDuration":129735,"Delta":53454743},{"NoteNumber":42,"Velocity":52,"Duration":129735,"SoundDuration":129735,"Delta":53584478},{"NoteNumber":52,"Velocity":52,"Duration":129735,"SoundDuration":129735,"Delta":53714213},{"NoteNumber":36,"Velocity":45,"Duration":129735,"SoundDuration":129735,"Delta":53843948},{"NoteNumber":54,"Velocity":59,"Duration":262881,"SoundDuration":262881,"Delta":53973684},{"NoteNumber":64,"Velocity":77,"Duration":131440,"SoundDuration":131440,"Delta":54105124},{"NoteNumber":59,"Velocity":76,"Duration":517961,"SoundDuration":517961,"Delta":54236565},{"NoteNumber":35,"Velocity":64,"Duration":131440,"SoundDuration":131440,"Delta":54236565},{"NoteNumber":43,"Velocity":51,"Duration":131440,"SoundDuration":131440,"Delta":54368005},{"NoteNumber":52,"Velocity":51,"Duration":127540,"SoundDuration":127540,"Delta":54499446},{"NoteNumber":35,"Velocity":45,"Duration":127540,"SoundDuration":127540,"Delta":54626986},{"NoteNumber":84,"Velocity":87,"Duration":311364,"SoundDuration":311364,"Delta":54754526},{"NoteNumber":55,"Velocity":60,"Duration":259470,"SoundDuration":259470,"Delta":54754526},{"NoteNumber":35,"Velocity":64,"Duration":129735,"SoundDuration":129735,"Delta":55013997},{"NoteNumber":83,"Velocity":74,"Duration":60543,"SoundDuration":60543,"Delta":55065891},{"NoteNumber":79,"Velocity":73,"Duration":60543,"SoundDuration":60543,"Delta":55126434},{"NoteNumber":43,"Velocity":54,"Duration":129735,"SoundDuration":129735,"Delta":55143732},{"NoteNumber":76,"Velocity":72,"Duration":60543,"SoundDuration":60543,"Delta":55186977},{"NoteNumber":72,"Velocity":72,"Duration":60543,"SoundDuration":60543,"Delta":55247520},{"NoteNumber":52,"Velocity":54,"Duration":129735,"SoundDuration":129735,"Delta":55273467},{"NoteNumber":71,"Velocity":72,"Duration":60543,"SoundDuration":60543,"Delta":55308063},{"NoteNumber":67,"Velocity":72,"Duration":60543,"SoundDuration":60543,"Delta":55368606},{"NoteNumber":35,"Velocity":46,"Duration":129735,"SoundDuration":129735,"Delta":55403202},{"NoteNumber":64,"Velocity":71,"Duration":60543,"SoundDuration":60543,"Delta":55429150},{"NoteNumber":60,"Velocity":70,"Duration":60543,"SoundDuration":60543,"Delta":55489693},{"NoteNumber":55,"Velocity":61,"Duration":138384,"SoundDuration":138384,"Delta":55532938},{"NoteNumber":59,"Velocity":70,"Duration":60543,"SoundDuration":60543,"Delta":55550236},{"NoteNumber":55,"Velocity":69,"Duration":181629,"SoundDuration":181629,"Delta":55610779},{"NoteNumber":52,"Velocity":68,"Duration":60543,"SoundDuration":60543,"Delta":55671322},{"NoteNumber":48,"Velocity":68,"Duration":60543,"SoundDuration":60543,"Delta":55731865},{"NoteNumber":47,"Velocity":90,"Duration":858661,"SoundDuration":858661,"Delta":55792408},{"NoteNumber":35,"Velocity":64,"Duration":129735,"SoundDuration":129735,"Delta":55792408},{"NoteNumber":45,"Velocity":54,"Duration":129735,"SoundDuration":129735,"Delta":55922143},{"NoteNumber":51,"Velocity":54,"Duration":129735,"SoundDuration":129735,"Delta":56051879},{"NoteNumber":35,"Velocity":48,"Duration":129962,"SoundDuration":129962,"Delta":56181614},{"NoteNumber":54,"Velocity":59,"Duration":260846,"SoundDuration":260846,"Delta":56311577},{"NoteNumber":35,"Velocity":64,"Duration":131692,"SoundDuration":131692,"Delta":56572423},{"NoteNumber":48,"Velocity":60,"Duration":39784,"SoundDuration":39784,"Delta":56651070},{"NoteNumber":51,"Velocity":62,"Duration":39784,"SoundDuration":39784,"Delta":56690854},{"NoteNumber":45,"Velocity":55,"Duration":132938,"SoundDuration":132938,"Delta":56704116},{"NoteNumber":54,"Velocity":63,"Duration":39784,"SoundDuration":39784,"Delta":56730639},{"NoteNumber":57,"Velocity":63,"Duration":39784,"SoundDuration":39784,"Delta":56770423},{"NoteNumber":60,"Velocity":64,"Duration":40594,"SoundDuration":40594,"Delta":56810207},{"NoteNumber":51,"Velocity":55,"Duration":145256,"SoundDuration":145256,"Delta":56837054},{"NoteNumber":63,"Velocity":65,"Duration":42715,"SoundDuration":42715,"Delta":56850802},{"NoteNumber":66,"Velocity":67,"Duration":43910,"SoundDuration":43910,"Delta":56893518},{"NoteNumber":69,"Velocity":68,"Duration":44882,"SoundDuration":44882,"Delta":56937428},{"NoteNumber":72,"Velocity":69,"Duration":45956,"SoundDuration":45956,"Delta":56982311},{"NoteNumber":35,"Velocity":47,"Duration":157410,"SoundDuration":157410,"Delta":56982311},{"NoteNumber":75,"Velocity":71,"Duration":47022,"SoundDuration":47022,"Delta":57028268},{"NoteNumber":78,"Velocity":72,"Duration":48143,"SoundDuration":48143,"Delta":57075290},{"NoteNumber":81,"Velocity":72,"Duration":49314,"SoundDuration":49314,"Delta":57123433},{"NoteNumber":54,"Velocity":61,"Duration":355452,"SoundDuration":355452,"Delta":57139722},{"NoteNumber":84,"Velocity":73,"Duration":50547,"SoundDuration":50547,"Delta":57172748},{"NoteNumber":87,"Velocity":75,"Duration":51943,"SoundDuration":51943,"Delta":57223295},{"NoteNumber":90,"Velocity":76,"Duration":53313,"SoundDuration":53313,"Delta":57275238},{"NoteNumber":93,"Velocity":77,"Duration":54759,"SoundDuration":54759,"Delta":57328552},{"NoteNumber":96,"Velocity":78,"Duration":56278,"SoundDuration":56278,"Delta":57383312},{"NoteNumber":99,"Velocity":79,"Duration":55584,"SoundDuration":55584,"Delta":57439590},{"NoteNumber":100,"Velocity":90,"Duration":524447,"SoundDuration":524447,"Delta":57495174},{"NoteNumber":40,"Velocity":64,"Duration":133516,"SoundDuration":133516,"Delta":57495174},{"NoteNumber":47,"Velocity":54,"Duration":130310,"SoundDuration":130310,"Delta":57628690},{"NoteNumber":55,"Velocity":54,"Duration":130310,"SoundDuration":130310,"Delta":57759000},{"NoteNumber":40,"Velocity":48,"Duration":130310,"SoundDuration":130310,"Delta":57889311},{"NoteNumber":59,"Velocity":60,"Duration":268793,"SoundDuration":268793,"Delta":58019621},{"NoteNumber":67,"Velocity":79,"Duration":1303102,"SoundDuration":1303102,"Delta":58288414},{"NoteNumber":40,"Velocity":62,"Duration":130310,"SoundDuration":130310,"Delta":58288414},{"NoteNumber":47,"Velocity":52,"Duration":130310,"SoundDuration":130310,"Delta":58418724},{"NoteNumber":55,"Velocity":52,"Duration":130310,"SoundDuration":130310,"Delta":58549034},{"NoteNumber":40,"Velocity":45,"Duration":130310,"SoundDuration":130310,"Delta":58679345},{"NoteNumber":59,"Velocity":56,"Duration":260620,"SoundDuration":260620,"Delta":58809655},{"NoteNumber":39,"Velocity":61,"Duration":130310,"SoundDuration":130310,"Delta":59070275},{"NoteNumber":47,"Velocity":51,"Duration":130310,"SoundDuration":130310,"Delta":59200586},{"NoteNumber":55,"Velocity":51,"Duration":130310,"SoundDuration":130310,"Delta":59330896},{"NoteNumber":39,"Velocity":45,"Duration":130310,"SoundDuration":130310,"Delta":59461206},{"NoteNumber":67,"Velocity":78,"Duration":179195,"SoundDuration":179195,"Delta":59591516},{"NoteNumber":59,"Velocity":57,"Duration":268793,"SoundDuration":268793,"Delta":59591516},{"NoteNumber":67,"Velocity":72,"Duration":44798,"SoundDuration":44798,"Delta":59770712},{"NoteNumber":70,"Velocity":72,"Duration":44798,"SoundDuration":44798,"Delta":59815511},{"NoteNumber":68,"Velocity":80,"Duration":521241,"SoundDuration":521241,"Delta":59860309},{"NoteNumber":38,"Velocity":61,"Duration":130310,"SoundDuration":130310,"Delta":59860309},{"NoteNumber":47,"Velocity":52,"Duration":130310,"SoundDuration":130310,"Delta":59990620},{"NoteNumber":53,"Velocity":52,"Duration":130310,"SoundDuration":130310,"Delta":60120930},{"NoteNumber":38,"Velocity":45,"Duration":130310,"SoundDuration":130310,"Delta":60251240},{"NoteNumber":55,"Velocity":57,"Duration":265228,"SoundDuration":265228,"Delta":60381550},{"NoteNumber":67,"Velocity":78,"Duration":132614,"SoundDuration":132614,"Delta":60514165},{"NoteNumber":67,"Velocity":77,"Duration":530456,"SoundDuration":530456,"Delta":60646779},{"NoteNumber":36,"Velocity":64,"Duration":132614,"SoundDuration":132614,"Delta":60646779},{"NoteNumber":43,"Velocity":52,"Duration":132614,"SoundDuration":132614,"Delta":60779393},{"NoteNumber":51,"Velocity":52,"Duration":132614,"SoundDuration":132614,"Delta":60912007},{"NoteNumber":36,"Velocity":45,"Duration":132614,"SoundDuration":132614,"Delta":61044622},{"NoteNumber":63,"Velocity":80,"Duration":265228,"SoundDuration":265228,"Delta":61177236},{"NoteNumber":55,"Velocity":57,"Duration":265228,"SoundDuration":265228,"Delta":61177236},{"NoteNumber":60,"Velocity":78,"Duration":1576852,"SoundDuration":1576852,"Delta":61442464},{"NoteNumber":36,"Velocity":63,"Duration":132614,"SoundDuration":132614,"Delta":61442464},{"NoteNumber":43,"Velocity":53,"Duration":132030,"SoundDuration":132030,"Delta":61575079},{"NoteNumber":51,"Velocity":53,"Duration":131440,"SoundDuration":131440,"Delta":61707109},{"NoteNumber":36,"Velocity":45,"Duration":130878,"SoundDuration":130878,"Delta":61838550},{"NoteNumber":55,"Velocity":61,"Duration":259853,"SoundDuration":259853,"Delta":61969429},{"NoteNumber":36,"Velocity":61,"Duration":130310,"SoundDuration":130310,"Delta":62229283},{"NoteNumber":43,"Velocity":52,"Duration":130310,"SoundDuration":130310,"Delta":62359593},{"NoteNumber":51,"Velocity":52,"Duration":130310,"SoundDuration":130310,"Delta":62489903},{"NoteNumber":36,"Velocity":45,"Duration":130310,"SoundDuration":130310,"Delta":62620213},{"NoteNumber":55,"Velocity":57,"Duration":268793,"SoundDuration":268793,"Delta":62750524},{"NoteNumber":63,"Velocity":76,"Duration":260620,"SoundDuration":260620,"Delta":63019317},{"NoteNumber":36,"Velocity":60,"Duration":130310,"SoundDuration":130310,"Delta":63019317},{"NoteNumber":43,"Velocity":52,"Duration":130310,"SoundDuration":130310,"Delta":63149627},{"NoteNumber":67,"Velocity":78,"Duration":407095,"SoundDuration":407095,"Delta":63279937},{"NoteNumber":51,"Velocity":52,"Duration":133191,"SoundDuration":133191,"Delta":63279937},{"NoteNumber":36,"Velocity":44,"Duration":133191,"SoundDuration":133191,"Delta":63413128},{"NoteNumber":55,"Velocity":55,"Duration":281426,"SoundDuration":281426,"Delta":63546320},{"NoteNumber":72,"Velocity":81,"Duration":140713,"SoundDuration":140713,"Delta":63687033},{"NoteNumber":70,"Velocity":81,"Duration":537585,"SoundDuration":537585,"Delta":63827746},{"NoteNumber":36,"Velocity":63,"Duration":134396,"SoundDuration":134396,"Delta":63827746},{"NoteNumber":44,"Velocity":49,"Duration":134396,"SoundDuration":134396,"Delta":63962142},{"NoteNumber":51,"Velocity":49,"Duration":134396,"SoundDuration":134396,"Delta":64096539},{"NoteNumber":36,"Velocity":44,"Duration":134396,"SoundDuration":134396,"Delta":64230935},{"NoteNumber":68,"Velocity":79,"Duration":268793,"SoundDuration":268793,"Delta":64365332},{"NoteNumber":56,"Velocity":58,"Duration":268793,"SoundDuration":268793,"Delta":64365332},{"NoteNumber":63,"Velocity":79,"Duration":1115490,"SoundDuration":1115490,"Delta":64634125},{"NoteNumber":36,"Velocity":62,"Duration":134396,"SoundDuration":134396,"Delta":64634125},{"NoteNumber":44,"Velocity":53,"Duration":134396,"SoundDuration":134396,"Delta":64768521},{"NoteNumber":51,"Velocity":51,"Duration":134396,"SoundDuration":134396,"Delta":64902918},{"NoteNumber":36,"Velocity":45,"Duration":134396,"SoundDuration":134396,"Delta":65037314},{"NoteNumber":56,"Velocity":57,"Duration":268793,"SoundDuration":268793,"Delta":65171711},{"NoteNumber":36,"Velocity":63,"Duration":134396,"SoundDuration":134396,"Delta":65440504},{"NoteNumber":44,"Velocity":51,"Duration":134396,"SoundDuration":134396,"Delta":65574900},{"NoteNumber":68,"Velocity":81,"Duration":403189,"SoundDuration":403189,"Delta":65709297},{"NoteNumber":54,"Velocity":51,"Duration":134396,"SoundDuration":134396,"Delta":65709297},{"NoteNumber":36,"Velocity":45,"Duration":134396,"SoundDuration":134396,"Delta":65843693},{"NoteNumber":56,"Velocity":58,"Duration":268793,"SoundDuration":268793,"Delta":65978090},{"NoteNumber":68,"Velocity":78,"Duration":134396,"SoundDuration":134396,"Delta":66112486},{"NoteNumber":68,"Velocity":74,"Duration":874761,"SoundDuration":874761,"Delta":66246883},{"NoteNumber":36,"Velocity":64,"Duration":131675,"SoundDuration":131675,"Delta":66246883},{"NoteNumber":65,"Velocity":76,"Duration":134197,"SoundDuration":134197,"Delta":66378558},{"NoteNumber":44,"Velocity":52,"Duration":134197,"SoundDuration":134197,"Delta":66378558},{"NoteNumber":66,"Velocity":78,"Duration":137827,"SoundDuration":137827,"Delta":66512755},{"NoteNumber":54,"Velocity":52,"Duration":137827,"SoundDuration":137827,"Delta":66512755},{"NoteNumber":63,"Velocity":80,"Duration":143491,"SoundDuration":143491,"Delta":66650583},{"NoteNumber":36,"Velocity":45,"Duration":143491,"SoundDuration":143491,"Delta":66650583},{"NoteNumber":66,"Velocity":81,"Duration":155888,"SoundDuration":155888,"Delta":66794074},{"NoteNumber":56,"Velocity":58,"Duration":327569,"SoundDuration":327569,"Delta":66794074},{"NoteNumber":56,"Velocity":82,"Duration":171680,"SoundDuration":171680,"Delta":66949963},{"NoteNumber":68,"Velocity":84,"Duration":521241,"SoundDuration":521241,"Delta":67121644},{"NoteNumber":37,"Velocity":64,"Duration":130310,"SoundDuration":130310,"Delta":67121644},{"NoteNumber":44,"Velocity":51,"Duration":130310,"SoundDuration":130310,"Delta":67251954},{"NoteNumber":53,"Velocity":52,"Duration":130310,"SoundDuration":130310,"Delta":67382264},{"NoteNumber":37,"Velocity":45,"Duration":130310,"SoundDuration":130310,"Delta":67512574},{"NoteNumber":65,"Velocity":82,"Duration":267594,"SoundDuration":267594,"Delta":67642885},{"NoteNumber":56,"Velocity":57,"Duration":267594,"SoundDuration":267594,"Delta":67642885},{"NoteNumber":61,"Velocity":82,"Duration":1303102,"SoundDuration":1303102,"Delta":67910479},{"NoteNumber":37,"Velocity":64,"Duration":130310,"SoundDuration":130310,"Delta":67910479},{"NoteNumber":44,"Velocity":53,"Duration":130310,"SoundDuration":130310,"Delta":68040789},{"NoteNumber":53,"Velocity":52,"Duration":130310,"SoundDuration":130310,"Delta":68171100},{"NoteNumber":37,"Velocity":46,"Duration":130310,"SoundDuration":130310,"Delta":68301410},{"NoteNumber":56,"Velocity":58,"Duration":260620,"SoundDuration":260620,"Delta":68431720},{"NoteNumber":37,"Velocity":63,"Duration":130310,"SoundDuration":130310,"Delta":68692341},{"NoteNumber":44,"Velocity":53,"Duration":130310,"SoundDuration":130310,"Delta":68822651},{"NoteNumber":53,"Velocity":53,"Duration":130310,"SoundDuration":130310,"Delta":68952961},{"NoteNumber":37,"Velocity":46,"Duration":130310,"SoundDuration":130310,"Delta":69083271},{"NoteNumber":65,"Velocity":77,"Duration":260620,"SoundDuration":260620,"Delta":69213582},{"NoteNumber":56,"Velocity":59,"Duration":260620,"SoundDuration":260620,"Delta":69213582},{"NoteNumber":68,"Velocity":79,"Duration":260620,"SoundDuration":260620,"Delta":69474202},{"NoteNumber":37,"Velocity":64,"Duration":130310,"SoundDuration":130310,"Delta":69474202},{"NoteNumber":44,"Velocity":53,"Duration":130310,"SoundDuration":130310,"Delta":69604512},{"NoteNumber":73,"Velocity":81,"Duration":395609,"SoundDuration":395609,"Delta":69734823},{"NoteNumber":53,"Velocity":53,"Duration":130310,"SoundDuration":130310,"Delta":69734823},{"NoteNumber":37,"Velocity":45,"Duration":130310,"SoundDuration":130310,"Delta":69865133},{"NoteNumber":56,"Velocity":58,"Duration":269978,"SoundDuration":269978,"Delta":69995443},{"NoteNumber":77,"Velocity":82,"Duration":134989,"SoundDuration":134989,"Delta":70130432},{"NoteNumber":75,"Velocity":79,"Duration":521241,"SoundDuration":521241,"Delta":70265422},{"NoteNumber":37,"Velocity":62,"Duration":130310,"SoundDuration":130310,"Delta":70265422},{"NoteNumber":44,"Velocity":52,"Duration":130310,"SoundDuration":130310,"Delta":70395732},{"NoteNumber":53,"Velocity":52,"Duration":130310,"SoundDuration":130310,"Delta":70526042},{"NoteNumber":37,"Velocity":45,"Duration":130310,"SoundDuration":130310,"Delta":70656352},{"NoteNumber":73,"Velocity":77,"Duration":265228,"SoundDuration":265228,"Delta":70786663},{"NoteNumber":56,"Velocity":59,"Duration":265228,"SoundDuration":265228,"Delta":70786663},{"NoteNumber":68,"Velocity":72,"Duration":795685,"SoundDuration":795685,"Delta":71051891},{"NoteNumber":37,"Velocity":56,"Duration":132614,"SoundDuration":132614,"Delta":71051891},{"NoteNumber":44,"Velocity":49,"Duration":132614,"SoundDuration":132614,"Delta":71184505},{"NoteNumber":53,"Velocity":46,"Duration":132614,"SoundDuration":132614,"Delta":71317120},{"NoteNumber":37,"Velocity":43,"Duration":132614,"SoundDuration":132614,"Delta":71449734},{"NoteNumber":56,"Velocity":50,"Duration":265228,"SoundDuration":265228,"Delta":71582348},{"NoteNumber":37,"Velocity":50,"Duration":132614,"SoundDuration":132614,"Delta":71847577},{"NoteNumber":44,"Velocity":34,"Duration":132614,"SoundDuration":132614,"Delta":71980191},{"NoteNumber":53,"Velocity":35,"Duration":132614,"SoundDuration":132614,"Delta":72112805},{"NoteNumber":37,"Velocity":29,"Duration":132614,"SoundDuration":132614,"Delta":72245419},{"NoteNumber":65,"Velocity":54,"Duration":272454,"SoundDuration":272454,"Delta":72378034},{"NoteNumber":56,"Velocity":42,"Duration":272454,"SoundDuration":272454,"Delta":72378034},{"NoteNumber":68,"Velocity":56,"Duration":280085,"SoundDuration":280085,"Delta":72650489},{"NoteNumber":37,"Velocity":48,"Duration":140043,"SoundDuration":140043,"Delta":72650489},{"NoteNumber":44,"Velocity":34,"Duration":140042,"SoundDuration":140042,"Delta":72790532},{"NoteNumber":73,"Velocity":58,"Duration":420129,"SoundDuration":420129,"Delta":72930575},{"NoteNumber":53,"Velocity":34,"Duration":140043,"SoundDuration":140043,"Delta":72930575},{"NoteNumber":37,"Velocity":27,"Duration":140042,"SoundDuration":140042,"Delta":73070618},{"NoteNumber":56,"Velocity":42,"Duration":280086,"SoundDuration":280086,"Delta":73210661},{"NoteNumber":77,"Velocity":61,"Duration":140043,"SoundDuration":140043,"Delta":73350704},{"NoteNumber":75,"Velocity":60,"Duration":560171,"SoundDuration":560171,"Delta":73490747},{"NoteNumber":37,"Velocity":43,"Duration":140042,"SoundDuration":140042,"Delta":73490747},{"NoteNumber":45,"Velocity":32,"Duration":140043,"SoundDuration":140043,"Delta":73630790},{"NoteNumber":53,"Velocity":32,"Duration":140042,"SoundDuration":140042,"Delta":73770833},{"NoteNumber":37,"Velocity":27,"Duration":140043,"SoundDuration":140043,"Delta":73910876},{"NoteNumber":73,"Velocity":59,"Duration":280085,"SoundDuration":280085,"Delta":74050919},{"NoteNumber":57,"Velocity":42,"Duration":280085,"SoundDuration":280085,"Delta":74050919},{"NoteNumber":69,"Velocity":52,"Duration":1056306,"SoundDuration":1056306,"Delta":74331005},{"NoteNumber":37,"Velocity":44,"Duration":132614,"SoundDuration":132614,"Delta":74331005},{"NoteNumber":45,"Velocity":32,"Duration":132614,"SoundDuration":132614,"Delta":74463619},{"NoteNumber":53,"Velocity":32,"Duration":132614,"SoundDuration":132614,"Delta":74596233},{"NoteNumber":37,"Velocity":27,"Duration":132614,"SoundDuration":132614,"Delta":74728847},{"NoteNumber":57,"Velocity":41,"Duration":265228,"SoundDuration":265228,"Delta":74861462},{"NoteNumber":37,"Velocity":46,"Duration":130310,"SoundDuration":130310,"Delta":75126690},{"NoteNumber":45,"Velocity":33,"Duration":130310,"SoundDuration":130310,"Delta":75257000},{"NoteNumber":69,"Velocity":60,"Duration":260620,"SoundDuration":260620,"Delta":75387311},{"NoteNumber":53,"Velocity":33,"Duration":130310,"SoundDuration":130310,"Delta":75387311},{"NoteNumber":37,"Velocity":27,"Duration":130310,"SoundDuration":130310,"Delta":75517621},{"NoteNumber":69,"Velocity":58,"Duration":264061,"SoundDuration":264061,"Delta":75647931},{"NoteNumber":57,"Velocity":41,"Duration":264061,"SoundDuration":264061,"Delta":75647931},{"NoteNumber":69,"Velocity":62,"Duration":264061,"SoundDuration":264061,"Delta":75911993},{"NoteNumber":37,"Velocity":45,"Duration":132030,"SoundDuration":132030,"Delta":75911993},{"NoteNumber":45,"Velocity":33,"Duration":132030,"SoundDuration":132030,"Delta":76044023},{"NoteNumber":65,"Velocity":55,"Duration":264061,"SoundDuration":264061,"Delta":76176054},{"NoteNumber":53,"Velocity":33,"Duration":132030,"SoundDuration":132030,"Delta":76176054},{"NoteNumber":37,"Velocity":28,"Duration":132030,"SoundDuration":132030,"Delta":76308085},{"NoteNumber":57,"Velocity":41,"Duration":266382,"SoundDuration":266382,"Delta":76440116},{"NoteNumber":67,"Velocity":62,"Duration":133191,"SoundDuration":133191,"Delta":76573307},{"NoteNumber":69,"Velocity":62,"Duration":1864677,"SoundDuration":1864677,"Delta":76706498},{"NoteNumber":37,"Velocity":45,"Duration":133191,"SoundDuration":133191,"Delta":76706498},{"NoteNumber":45,"Velocity":33,"Duration":133191,"SoundDuration":133191,"Delta":76839689},{"NoteNumber":53,"Velocity":33,"Duration":133191,"SoundDuration":133191,"Delta":76972881},{"NoteNumber":37,"Velocity":27,"Duration":133191,"SoundDuration":133191,"Delta":77106072},{"NoteNumber":57,"Velocity":41,"Duration":266382,"SoundDuration":266382,"Delta":77239263},{"NoteNumber":37,"Velocity":46,"Duration":133191,"SoundDuration":133191,"Delta":77505646},{"NoteNumber":45,"Velocity":34,"Duration":133191,"SoundDuration":133191,"Delta":77638837},{"NoteNumber":53,"Velocity":33,"Duration":133191,"SoundDuration":133191,"Delta":77772028},{"NoteNumber":37,"Velocity":27,"Duration":133191,"SoundDuration":133191,"Delta":77905219},{"NoteNumber":57,"Velocity":41,"Duration":266382,"SoundDuration":266382,"Delta":78038411},{"NoteNumber":37,"Velocity":45,"Duration":133191,"SoundDuration":133191,"Delta":78304793},{"NoteNumber":45,"Velocity":33,"Duration":133191,"SoundDuration":133191,"Delta":78437984},{"NoteNumber":69,"Velocity":62,"Duration":264061,"SoundDuration":264061,"Delta":78571176},{"NoteNumber":81,"Velocity":62,"Duration":264061,"SoundDuration":264061,"Delta":78571176},{"NoteNumber":53,"Velocity":33,"Duration":132030,"SoundDuration":132030,"Delta":78571176},{"NoteNumber":37,"Velocity":25,"Duration":132030,"SoundDuration":132030,"Delta":78703206},{"NoteNumber":81,"Velocity":64,"Duration":264061,"SoundDuration":264061,"Delta":78835237},{"NoteNumber":69,"Velocity":64,"Duration":264061,"SoundDuration":264061,"Delta":78835237},{"NoteNumber":57,"Velocity":40,"Duration":264061,"SoundDuration":264061,"Delta":78835237},{"NoteNumber":69,"Velocity":67,"Duration":198046,"SoundDuration":198046,"Delta":79099299},{"NoteNumber":81,"Velocity":67,"Duration":198046,"SoundDuration":198046,"Delta":79099299},{"NoteNumber":37,"Velocity":45,"Duration":132030,"SoundDuration":132030,"Delta":79099299},{"NoteNumber":45,"Velocity":35,"Duration":132030,"SoundDuration":132030,"Delta":79231329},{"NoteNumber":84,"Velocity":60,"Duration":66015,"SoundDuration":66015,"Delta":79297345},{"NoteNumber":72,"Velocity":60,"Duration":66015,"SoundDuration":66015,"Delta":79297345},{"NoteNumber":82,"Velocity":66,"Duration":410260,"SoundDuration":410260,"Delta":79363360},{"NoteNumber":70,"Velocity":66,"Duration":410260,"SoundDuration":410260,"Delta":79363360},{"NoteNumber":53,"Velocity":33,"Duration":132030,"SoundDuration":132030,"Delta":79363360},{"NoteNumber":37,"Velocity":26,"Duration":132030,"SoundDuration":132030,"Delta":79495391},{"NoteNumber":57,"Velocity":39,"Duration":292397,"SoundDuration":292397,"Delta":79627422},{"NoteNumber":69,"Velocity":72,"Duration":146198,"SoundDuration":146198,"Delta":79773620},{"NoteNumber":81,"Velocity":72,"Duration":146198,"SoundDuration":146198,"Delta":79773620},{"NoteNumber":69,"Velocity":68,"Duration":530456,"SoundDuration":530456,"Delta":79919819},{"NoteNumber":81,"Velocity":68,"Duration":530456,"SoundDuration":530456,"Delta":79919819},{"NoteNumber":38,"Velocity":61,"Duration":132614,"SoundDuration":132614,"Delta":79919819},{"NoteNumber":45,"Velocity":45,"Duration":132614,"SoundDuration":132614,"Delta":80052433},{"NoteNumber":53,"Velocity":45,"Duration":132614,"SoundDuration":132614,"Delta":80185048},{"NoteNumber":38,"Velocity":40,"Duration":132614,"SoundDuration":132614,"Delta":80317662},{"NoteNumber":65,"Velocity":66,"Duration":265228,"SoundDuration":265228,"Delta":80450276},{"NoteNumber":77,"Velocity":66,"Duration":265228,"SoundDuration":265228,"Delta":80450276},{"NoteNumber":57,"Velocity":56,"Duration":265228,"SoundDuration":265228,"Delta":80450276},{"NoteNumber":74,"Velocity":66,"Duration":1279981,"SoundDuration":1279981,"Delta":80715505},{"NoteNumber":62,"Velocity":66,"Duration":1301888,"SoundDuration":1301888,"Delta":80715505},{"NoteNumber":38,"Velocity":56,"Duration":132614,"SoundDuration":132614,"Delta":80715505},{"NoteNumber":45,"Velocity":45,"Duration":132614,"SoundDuration":132614,"Delta":80848119},{"NoteNumber":53,"Velocity":45,"Duration":132614,"SoundDuration":132614,"Delta":80980733},{"NoteNumber":38,"Velocity":39,"Duration":132614,"SoundDuration":132614,"Delta":81113347},{"NoteNumber":57,"Velocity":55,"Duration":265228,"SoundDuration":265228,"Delta":81245962},{"NoteNumber":38,"Velocity":64,"Duration":132614,"SoundDuration":132614,"Delta":81511190},{"NoteNumber":45,"Velocity":45,"Duration":132614,"SoundDuration":132614,"Delta":81643804},{"NoteNumber":53,"Velocity":45,"Duration":131440,"SoundDuration":131440,"Delta":81776419},{"NoteNumber":38,"Velocity":39,"Duration":131440,"SoundDuration":131440,"Delta":81907859},{"NoteNumber":65,"Velocity":70,"Duration":262881,"SoundDuration":262881,"Delta":82039300},{"NoteNumber":77,"Velocity":70,"Duration":262881,"SoundDuration":262881,"Delta":82039300},{"NoteNumber":57,"Velocity":57,"Duration":262881,"SoundDuration":262881,"Delta":82039300},{"NoteNumber":81,"Velocity":72,"Duration":262880,"SoundDuration":262880,"Delta":82302181},{"NoteNumber":69,"Velocity":72,"Duration":262880,"SoundDuration":262880,"Delta":82302181},{"NoteNumber":38,"Velocity":59,"Duration":131440,"SoundDuration":131440,"Delta":82302181},{"NoteNumber":45,"Velocity":49,"Duration":131440,"SoundDuration":131440,"Delta":82433621},{"NoteNumber":86,"Velocity":75,"Duration":400357,"SoundDuration":400357,"Delta":82565062},{"NoteNumber":74,"Velocity":75,"Duration":400357,"SoundDuration":400357,"Delta":82565062},{"NoteNumber":53,"Velocity":47,"Duration":131440,"SoundDuration":131440,"Delta":82565062},{"NoteNumber":38,"Velocity":42,"Duration":131440,"SoundDuration":131440,"Delta":82696502},{"NoteNumber":57,"Velocity":60,"Duration":274951,"SoundDuration":274951,"Delta":82827943},{"NoteNumber":89,"Velocity":79,"Duration":137475,"SoundDuration":137475,"Delta":82965419},{"NoteNumber":77,"Velocity":79,"Duration":137475,"SoundDuration":137475,"Delta":82965419},{"NoteNumber":88,"Velocity":81,"Duration":525762,"SoundDuration":525762,"Delta":83102895},{"NoteNumber":76,"Velocity":81,"Duration":525762,"SoundDuration":525762,"Delta":83102895},{"NoteNumber":34,"Velocity":64,"Duration":131440,"SoundDuration":131440,"Delta":83102895},{"NoteNumber":43,"Velocity":51,"Duration":131440,"SoundDuration":131440,"Delta":83234335},{"NoteNumber":50,"Velocity":51,"Duration":131440,"SoundDuration":131440,"Delta":83365776},{"NoteNumber":34,"Velocity":43,"Duration":131440,"SoundDuration":131440,"Delta":83497216},{"NoteNumber":86,"Velocity":76,"Duration":269978,"SoundDuration":269978,"Delta":83628657},{"NoteNumber":74,"Velocity":76,"Duration":269978,"SoundDuration":269978,"Delta":83628657},{"NoteNumber":52,"Velocity":63,"Duration":269978,"SoundDuration":269978,"Delta":83628657},{"NoteNumber":67,"Velocity":80,"Duration":261757,"SoundDuration":261757,"Delta":83898635},{"NoteNumber":79,"Velocity":80,"Duration":261757,"SoundDuration":261757,"Delta":83898635},{"NoteNumber":34,"Velocity":64,"Duration":130878,"SoundDuration":130878,"Delta":83898635},{"NoteNumber":43,"Velocity":52,"Duration":130878,"SoundDuration":130878,"Delta":84029514},{"NoteNumber":86,"Velocity":83,"Duration":392636,"SoundDuration":392636,"Delta":84160393},{"NoteNumber":74,"Velocity":83,"Duration":392636,"SoundDuration":392636,"Delta":84160393},{"NoteNumber":50,"Velocity":52,"Duration":130878,"SoundDuration":130878,"Delta":84160393},{"NoteNumber":34,"Velocity":45,"Duration":130878,"SoundDuration":130878,"Delta":84291271},{"NoteNumber":52,"Velocity":63,"Duration":261757,"SoundDuration":261757,"Delta":84422150},{"NoteNumber":89,"Velocity":84,"Duration":130878,"SoundDuration":130878,"Delta":84553029},{"NoteNumber":77,"Velocity":84,"Duration":130878,"SoundDuration":130878,"Delta":84553029},{"NoteNumber":76,"Velocity":84,"Duration":523514,"SoundDuration":523514,"Delta":84683908},{"NoteNumber":88,"Velocity":84,"Duration":523514,"SoundDuration":523514,"Delta":84683908},{"NoteNumber":34,"Velocity":72,"Duration":130878,"SoundDuration":130878,"Delta":84683908},{"NoteNumber":44,"Velocity":59,"Duration":130878,"SoundDuration":130878,"Delta":84814786},{"NoteNumber":50,"Velocity":58,"Duration":130878,"SoundDuration":130878,"Delta":84945665},{"NoteNumber":34,"Velocity":50,"Duration":130878,"SoundDuration":130878,"Delta":85076544},{"NoteNumber":86,"Velocity":82,"Duration":261757,"SoundDuration":261757,"Delta":85207423},{"NoteNumber":74,"Velocity":82,"Duration":261757,"SoundDuration":261757,"Delta":85207423},{"NoteNumber":53,"Velocity":64,"Duration":261757,"SoundDuration":261757,"Delta":85207423},{"NoteNumber":80,"Velocity":78,"Duration":261757,"SoundDuration":261757,"Delta":85469180},{"NoteNumber":68,"Velocity":78,"Duration":261757,"SoundDuration":261757,"Delta":85469180},{"NoteNumber":34,"Velocity":71,"Duration":130878,"SoundDuration":130878,"Delta":85469180},{"NoteNumber":44,"Velocity":58,"Duration":130878,"SoundDuration":130878,"Delta":85600059},{"NoteNumber":74,"Velocity":81,"Duration":276180,"SoundDuration":276180,"Delta":85730938},{"NoteNumber":86,"Velocity":81,"Duration":276180,"SoundDuration":276180,"Delta":85730938},{"NoteNumber":50,"Velocity":58,"Duration":134291,"SoundDuration":134291,"Delta":85730938},{"NoteNumber":34,"Velocity":51,"Duration":141889,"SoundDuration":141889,"Delta":85865229},{"NoteNumber":89,"Velocity":83,"Duration":335362,"SoundDuration":335362,"Delta":86007118},{"NoteNumber":77,"Velocity":83,"Duration":335362,"SoundDuration":335362,"Delta":86007118},{"NoteNumber":53,"Velocity":64,"Duration":335362,"SoundDuration":335362,"Delta":86007118},{"NoteNumber":98,"Velocity":72,"Duration":88794,"SoundDuration":88794,"Delta":86342480},{"NoteNumber":101,"Velocity":72,"Duration":88794,"SoundDuration":88794,"Delta":86342480},{"NoteNumber":34,"Velocity":72,"Duration":133191,"SoundDuration":133191,"Delta":86342480},{"NoteNumber":100,"Velocity":72,"Duration":88794,"SoundDuration":88794,"Delta":86431274},{"NoteNumber":97,"Velocity":72,"Duration":88794,"SoundDuration":88794,"Delta":86431274},{"NoteNumber":44,"Velocity":61,"Duration":133191,"SoundDuration":133191,"Delta":86475671},{"NoteNumber":96,"Velocity":72,"Duration":88794,"SoundDuration":88794,"Delta":86520068},{"NoteNumber":99,"Velocity":72,"Duration":88794,"SoundDuration":88794,"Delta":86520068},{"NoteNumber":98,"Velocity":71,"Duration":88409,"SoundDuration":88409,"Delta":86608863},{"NoteNumber":95,"Velocity":71,"Duration":88409,"SoundDuration":88409,"Delta":86608863},{"NoteNumber":50,"Velocity":61,"Duration":132614,"SoundDuration":132614,"Delta":86608863},{"NoteNumber":97,"Velocity":71,"Duration":88409,"SoundDuration":88409,"Delta":86697272},{"NoteNumber":94,"Velocity":71,"Duration":88409,"SoundDuration":88409,"Delta":86697272},{"NoteNumber":34,"Velocity":54,"Duration":132614,"SoundDuration":132614,"Delta":86741477},{"NoteNumber":93,"Velocity":71,"Duration":88409,"SoundDuration":88409,"Delta":86785682},{"NoteNumber":96,"Velocity":71,"Duration":88409,"SoundDuration":88409,"Delta":86785682},{"NoteNumber":95,"Velocity":70,"Duration":88020,"SoundDuration":88020,"Delta":86874091},{"NoteNumber":92,"Velocity":70,"Duration":88020,"SoundDuration":88020,"Delta":86874091},{"NoteNumber":53,"Velocity":64,"Duration":264061,"SoundDuration":264061,"Delta":86874091},{"NoteNumber":91,"Velocity":70,"Duration":88020,"SoundDuration":88020,"Delta":86962112},{"NoteNumber":94,"Velocity":70,"Duration":88020,"SoundDuration":88020,"Delta":86962112},{"NoteNumber":93,"Velocity":70,"Duration":88020,"SoundDuration":88020,"Delta":87050132},{"NoteNumber":90,"Velocity":70,"Duration":88020,"SoundDuration":88020,"Delta":87050132},{"NoteNumber":92,"Velocity":69,"Duration":87626,"SoundDuration":87626,"Delta":87138153},{"NoteNumber":89,"Velocity":69,"Duration":87626,"SoundDuration":87626,"Delta":87138153},{"NoteNumber":34,"Velocity":70,"Duration":131440,"SoundDuration":131440,"Delta":87138153},{"NoteNumber":88,"Velocity":69,"Duration":87626,"SoundDuration":87626,"Delta":87225780},{"NoteNumber":91,"Velocity":69,"Duration":87626,"SoundDuration":87626,"Delta":87225780},{"NoteNumber":44,"Velocity":60,"Duration":131440,"SoundDuration":131440,"Delta":87269593},{"NoteNumber":87,"Velocity":69,"Duration":87626,"SoundDuration":87626,"Delta":87313407},{"NoteNumber":90,"Velocity":69,"Duration":87626,"SoundDuration":87626,"Delta":87313407},{"NoteNumber":89,"Velocity":68,"Duration":87252,"SoundDuration":87252,"Delta":87401034},{"NoteNumber":86,"Velocity":68,"Duration":87252,"SoundDuration":87252,"Delta":87401034},{"NoteNumber":50,"Velocity":60,"Duration":130878,"SoundDuration":130878,"Delta":87401034},{"NoteNumber":85,"Velocity":68,"Duration":87252,"SoundDuration":87252,"Delta":87488286},{"NoteNumber":88,"Velocity":68,"Duration":87252,"SoundDuration":87252,"Delta":87488286},{"NoteNumber":34,"Velocity":53,"Duration":130878,"SoundDuration":130878,"Delta":87531912},{"NoteNumber":84,"Velocity":68,"Duration":87252,"SoundDuration":87252,"Delta":87575539},{"NoteNumber":87,"Velocity":68,"Duration":87252,"SoundDuration":87252,"Delta":87575539},{"NoteNumber":83,"Velocity":67,"Duration":86873,"SoundDuration":86873,"Delta":87662791},{"NoteNumber":86,"Velocity":67,"Duration":86873,"SoundDuration":86873,"Delta":87662791},{"NoteNumber":53,"Velocity":64,"Duration":260620,"SoundDuration":260620,"Delta":87662791},{"NoteNumber":85,"Velocity":67,"Duration":86873,"SoundDuration":86873,"Delta":87749665},{"NoteNumber":82,"Velocity":67,"Duration":86873,"SoundDuration":86873,"Delta":87749665},{"NoteNumber":84,"Velocity":67,"Duration":86873,"SoundDuration":86873,"Delta":87836538},{"NoteNumber":81,"Velocity":67,"Duration":86873,"SoundDuration":86873,"Delta":87836538},{"NoteNumber":80,"Velocity":66,"Duration":86873,"SoundDuration":86873,"Delta":87923412},{"NoteNumber":83,"Velocity":66,"Duration":86873,"SoundDuration":86873,"Delta":87923412},{"NoteNumber":34,"Velocity":68,"Duration":130310,"SoundDuration":130310,"Delta":87923412},{"NoteNumber":82,"Velocity":66,"Duration":86873,"SoundDuration":86873,"Delta":88010285},{"NoteNumber":79,"Velocity":66,"Duration":86873,"SoundDuration":86873,"Delta":88010285},{"NoteNumber":44,"Velocity":60,"Duration":130310,"SoundDuration":130310,"Delta":88053722},{"NoteNumber":78,"Velocity":66,"Duration":86873,"SoundDuration":86873,"Delta":88097159},{"NoteNumber":81,"Velocity":66,"Duration":86873,"SoundDuration":86873,"Delta":88097159},{"NoteNumber":80,"Velocity":65,"Duration":87252,"SoundDuration":87252,"Delta":88184032},{"NoteNumber":77,"Velocity":65,"Duration":87252,"SoundDuration":87252,"Delta":88184032},{"NoteNumber":50,"Velocity":60,"Duration":130878,"SoundDuration":130878,"Delta":88184032},{"NoteNumber":79,"Velocity":65,"Duration":87252,"SoundDuration":87252,"Delta":88271285},{"NoteNumber":76,"Velocity":65,"Duration":87252,"SoundDuration":87252,"Delta":88271285},{"NoteNumber":34,"Velocity":54,"Duration":131066,"SoundDuration":131066,"Delta":88314911},{"NoteNumber":75,"Velocity":65,"Duration":87439,"SoundDuration":87439,"Delta":88358537},{"NoteNumber":78,"Velocity":65,"Duration":87439,"SoundDuration":87439,"Delta":88358537},{"NoteNumber":77,"Velocity":64,"Duration":87626,"SoundDuration":87626,"Delta":88445977},{"NoteNumber":74,"Velocity":64,"Duration":87626,"SoundDuration":87626,"Delta":88445977},{"NoteNumber":53,"Velocity":64,"Duration":263274,"SoundDuration":263274,"Delta":88445977},{"NoteNumber":73,"Velocity":64,"Duration":87627,"SoundDuration":87627,"Delta":88533604},{"NoteNumber":76,"Velocity":64,"Duration":87627,"SoundDuration":87627,"Delta":88533604},{"NoteNumber":75,"Velocity":64,"Duration":88020,"SoundDuration":88020,"Delta":88621231},{"NoteNumber":72,"Velocity":64,"Duration":88020,"SoundDuration":88020,"Delta":88621231},{"NoteNumber":74,"Velocity":64,"Duration":88020,"SoundDuration":88020,"Delta":88709251},{"NoteNumber":71,"Velocity":64,"Duration":88020,"SoundDuration":88020,"Delta":88709251},{"NoteNumber":34,"Velocity":67,"Duration":132030,"SoundDuration":132030,"Delta":88709251},{"NoteNumber":70,"Velocity":64,"Duration":88215,"SoundDuration":88215,"Delta":88797272},{"NoteNumber":73,"Velocity":64,"Duration":88215,"SoundDuration":88215,"Delta":88797272},{"NoteNumber":44,"Velocity":58,"Duration":132614,"SoundDuration":132614,"Delta":88841282},{"NoteNumber":72,"Velocity":64,"Duration":88409,"SoundDuration":88409,"Delta":88885487},{"NoteNumber":69,"Velocity":64,"Duration":88409,"SoundDuration":88409,"Delta":88885487},{"NoteNumber":68,"Velocity":63,"Duration":88409,"SoundDuration":88409,"Delta":88973896},{"NoteNumber":71,"Velocity":63,"Duration":88409,"SoundDuration":88409,"Delta":88973896},{"NoteNumber":50,"Velocity":58,"Duration":132806,"SoundDuration":132806,"Delta":88973896},{"NoteNumber":70,"Velocity":63,"Duration":88794,"SoundDuration":88794,"Delta":89062306},{"NoteNumber":67,"Velocity":63,"Duration":88794,"SoundDuration":88794,"Delta":89062306},{"NoteNumber":34,"Velocity":52,"Duration":133191,"SoundDuration":133191,"Delta":89106703},{"NoteNumber":69,"Velocity":63,"Duration":88794,"SoundDuration":88794,"Delta":89151100},{"NoteNumber":66,"Velocity":63,"Duration":88794,"SoundDuration":88794,"Delta":89151100},{"NoteNumber":65,"Velocity":63,"Duration":88996,"SoundDuration":88996,"Delta":89239894},{"NoteNumber":68,"Velocity":63,"Duration":88996,"SoundDuration":88996,"Delta":89239894},{"NoteNumber":53,"Velocity":64,"Duration":267392,"SoundDuration":267392,"Delta":89239894},{"NoteNumber":64,"Velocity":63,"Duration":89198,"SoundDuration":89198,"Delta":89328890},{"NoteNumber":67,"Velocity":63,"Duration":89198,"SoundDuration":89198,"Delta":89328890},{"NoteNumber":62,"Velocity":63,"Duration":89198,"SoundDuration":89198,"Delta":89418088},{"NoteNumber":67,"Velocity":63,"Duration":89198,"SoundDuration":89198,"Delta":89418088},{"NoteNumber":57,"Velocity":85,"Duration":532764,"SoundDuration":532764,"Delta":89507287},{"NoteNumber":33,"Velocity":65,"Duration":133191,"SoundDuration":133191,"Delta":89507287},{"NoteNumber":41,"Velocity":54,"Duration":133191,"SoundDuration":133191,"Delta":89640478},{"NoteNumber":50,"Velocity":54,"Duration":133191,"SoundDuration":133191,"Delta":89773669},{"NoteNumber":33,"Velocity":48,"Duration":133191,"SoundDuration":133191,"Delta":89906860},{"NoteNumber":53,"Velocity":62,"Duration":266382,"SoundDuration":266382,"Delta":90040052},{"NoteNumber":69,"Velocity":83,"Duration":133191,"SoundDuration":133191,"Delta":90173243},{"NoteNumber":69,"Velocity":86,"Duration":1042482,"SoundDuration":1042482,"Delta":90306434},{"NoteNumber":33,"Velocity":66,"Duration":130310,"SoundDuration":130310,"Delta":90306434},{"NoteNumber":41,"Velocity":55,"Duration":130310,"SoundDuration":130310,"Delta":90436744},{"NoteNumber":50,"Velocity":55,"Duration":130310,"SoundDuration":130310,"Delta":90567055},{"NoteNumber":33,"Velocity":49,"Duration":130310,"SoundDuration":130310,"Delta":90697365},{"NoteNumber":53,"Velocity":61,"Duration":260620,"SoundDuration":260620,"Delta":90827675},{"NoteNumber":33,"Velocity":67,"Duration":130310,"SoundDuration":130310,"Delta":91088296},{"NoteNumber":41,"Velocity":55,"Duration":130310,"SoundDuration":130310,"Delta":91218606},{"NoteNumber":67,"Velocity":81,"Duration":390930,"SoundDuration":390930,"Delta":91348916},{"NoteNumber":50,"Velocity":55,"Duration":130310,"SoundDuration":130310,"Delta":91348916},{"NoteNumber":33,"Velocity":50,"Duration":130310,"SoundDuration":130310,"Delta":91479226},{"NoteNumber":53,"Velocity":63,"Duration":260620,"SoundDuration":260620,"Delta":91609537},{"NoteNumber":65,"Velocity":78,"Duration":130310,"SoundDuration":130310,"Delta":91739847},{"NoteNumber":64,"Velocity":76,"Duration":129187,"SoundDuration":129187,"Delta":91870157},{"NoteNumber":33,"Velocity":66,"Duration":129187,"SoundDuration":129187,"Delta":91870157},{"NoteNumber":65,"Velocity":78,"Duration":107656,"SoundDuration":107656,"Delta":91999345},{"NoteNumber":41,"Velocity":56,"Duration":129187,"SoundDuration":129187,"Delta":91999345},{"NoteNumber":64,"Velocity":78,"Duration":107656,"SoundDuration":107656,"Delta":92107001},{"NoteNumber":50,"Velocity":56,"Duration":129187,"SoundDuration":129187,"Delta":92128533},{"NoteNumber":62,"Velocity":78,"Duration":107656,"SoundDuration":107656,"Delta":92214658},{"NoteNumber":33,"Velocity":50,"Duration":129187,"SoundDuration":129187,"Delta":92257720},{"NoteNumber":64,"Velocity":78,"Duration":107656,"SoundDuration":107656,"Delta":92322314},{"NoteNumber":53,"Velocity":63,"Duration":258375,"SoundDuration":258375,"Delta":92386908},{"NoteNumber":65,"Velocity":78,"Duration":107656,"SoundDuration":107656,"Delta":92429971},{"NoteNumber":62,"Velocity":73,"Duration":107656,"SoundDuration":107656,"Delta":92537627},{"NoteNumber":69,"Velocity":78,"Duration":264061,"SoundDuration":264061,"Delta":92645284},{"NoteNumber":57,"Velocity":78,"Duration":264061,"SoundDuration":264061,"Delta":92645284},{"NoteNumber":33,"Velocity":67,"Duration":132030,"SoundDuration":132030,"Delta":92645284},{"NoteNumber":41,"Velocity":57,"Duration":132030,"SoundDuration":132030,"Delta":92777314},{"NoteNumber":50,"Velocity":57,"Duration":132030,"SoundDuration":132030,"Delta":92909345},{"NoteNumber":33,"Velocity":49,"Duration":132030,"SoundDuration":132030,"Delta":93041376},{"NoteNumber":81,"Velocity":84,"Duration":130310,"SoundDuration":130310,"Delta":93173407},{"NoteNumber":69,"Velocity":84,"Duration":130310,"SoundDuration":130310,"Delta":93173407},{"NoteNumber":53,"Velocity":61,"Duration":260620,"SoundDuration":260620,"Delta":93173407},{"NoteNumber":93,"Velocity":84,"Duration":1042481,"SoundDuration":1042481,"Delta":93434027},{"NoteNumber":81,"Velocity":84,"Duration":1042481,"SoundDuration":1042481,"Delta":93434027},{"NoteNumber":33,"Velocity":67,"Duration":130310,"SoundDuration":130310,"Delta":93434027},{"NoteNumber":41,"Velocity":59,"Duration":130310,"SoundDuration":130310,"Delta":93564337},{"NoteNumber":50,"Velocity":59,"Duration":130310,"SoundDuration":130310,"Delta":93694648},{"NoteNumber":33,"Velocity":54,"Duration":130310,"SoundDuration":130310,"Delta":93824958},{"NoteNumber":53,"Velocity":63,"Duration":260620,"SoundDuration":260620,"Delta":93955268},{"NoteNumber":33,"Velocity":70,"Duration":130310,"SoundDuration":130310,"Delta":94215889},{"NoteNumber":41,"Velocity":59,"Duration":130310,"SoundDuration":130310,"Delta":94346199},{"NoteNumber":91,"Velocity":85,"Duration":390930,"SoundDuration":390930,"Delta":94476509},{"NoteNumber":79,"Velocity":85,"Duration":390930,"SoundDuration":390930,"Delta":94476509},{"NoteNumber":50,"Velocity":59,"Duration":130310,"SoundDuration":130310,"Delta":94476509},{"NoteNumber":33,"Velocity":53,"Duration":130310,"SoundDuration":130310,"Delta":94606819},{"NoteNumber":53,"Velocity":67,"Duration":260620,"SoundDuration":260620,"Delta":94737130},{"NoteNumber":89,"Velocity":87,"Duration":130310,"SoundDuration":130310,"Delta":94867440},{"NoteNumber":77,"Velocity":87,"Duration":130310,"SoundDuration":130310,"Delta":94867440},{"NoteNumber":88,"Velocity":80,"Duration":130310,"SoundDuration":130310,"Delta":94997750},{"NoteNumber":76,"Velocity":80,"Duration":130310,"SoundDuration":130310,"Delta":94997750},{"NoteNumber":33,"Velocity":71,"Duration":130310,"SoundDuration":130310,"Delta":94997750},{"NoteNumber":89,"Velocity":82,"Duration":108591,"SoundDuration":108591,"Delta":95128060},{"NoteNumber":77,"Velocity":82,"Duration":108591,"SoundDuration":108591,"Delta":95128060},{"NoteNumber":41,"Velocity":59,"Duration":130310,"SoundDuration":130310,"Delta":95128060},{"NoteNumber":88,"Velocity":82,"Duration":108591,"SoundDuration":108591,"Delta":95236652},{"NoteNumber":76,"Velocity":82,"Duration":108591,"SoundDuration":108591,"Delta":95236652},{"NoteNumber":50,"Velocity":59,"Duration":130310,"SoundDuration":130310,"Delta":95258371},{"NoteNumber":86,"Velocity":82,"Duration":108591,"SoundDuration":108591,"Delta":95345244},{"NoteNumber":74,"Velocity":82,"Duration":108591,"SoundDuration":108591,"Delta":95345244},{"NoteNumber":33,"Velocity":52,"Duration":130310,"SoundDuration":130310,"Delta":95388681},{"NoteNumber":88,"Velocity":82,"Duration":108591,"SoundDuration":108591,"Delta":95453836},{"NoteNumber":76,"Velocity":82,"Duration":108591,"SoundDuration":108591,"Delta":95453836},{"NoteNumber":53,"Velocity":67,"Duration":277947,"SoundDuration":277947,"Delta":95518991},{"NoteNumber":89,"Velocity":82,"Duration":111479,"SoundDuration":111479,"Delta":95562428},{"NoteNumber":77,"Velocity":82,"Duration":111479,"SoundDuration":111479,"Delta":95562428},{"NoteNumber":86,"Velocity":82,"Duration":73818,"SoundDuration":73818,"Delta":95723120},{"NoteNumber":74,"Velocity":82,"Duration":73818,"SoundDuration":73818,"Delta":95723120},{"NoteNumber":82,"Velocity":89,"Duration":260620,"SoundDuration":260620,"Delta":95796939},{"NoteNumber":94,"Velocity":89,"Duration":260620,"SoundDuration":260620,"Delta":95796939},{"NoteNumber":33,"Velocity":72,"Duration":130310,"SoundDuration":130310,"Delta":95796939},{"NoteNumber":43,"Velocity":61,"Duration":130310,"SoundDuration":130310,"Delta":95927249},{"NoteNumber":88,"Velocity":84,"Duration":260620,"SoundDuration":260620,"Delta":96057560},{"NoteNumber":76,"Velocity":84,"Duration":260620,"SoundDuration":260620,"Delta":96057560},{"NoteNumber":50,"Velocity":61,"Duration":130310,"SoundDuration":130310,"Delta":96057560},{"NoteNumber":33,"Velocity":54,"Duration":130310,"SoundDuration":130310,"Delta":96187870},{"NoteNumber":77,"Velocity":84,"Duration":267594,"SoundDuration":267594,"Delta":96318180},{"NoteNumber":89,"Velocity":84,"Duration":267594,"SoundDuration":267594,"Delta":96318180},{"NoteNumber":52,"Velocity":71,"Duration":267594,"SoundDuration":267594,"Delta":96318180},{"NoteNumber":93,"Velocity":87,"Duration":260620,"SoundDuration":260620,"Delta":96585775},{"NoteNumber":81,"Velocity":87,"Duration":260620,"SoundDuration":260620,"Delta":96585775},{"NoteNumber":33,"Velocity":72,"Duration":130310,"SoundDuration":130310,"Delta":96585775},{"NoteNumber":43,"Velocity":58,"Duration":130310,"SoundDuration":130310,"Delta":96716085},{"NoteNumber":91,"Velocity":84,"Duration":260620,"SoundDuration":260620,"Delta":96846395},{"NoteNumber":79,"Velocity":84,"Duration":260620,"SoundDuration":260620,"Delta":96846395},{"NoteNumber":50,"Velocity":58,"Duration":130310,"SoundDuration":130310,"Delta":96846395},{"NoteNumber":33,"Velocity":51,"Duration":130310,"SoundDuration":130310,"Delta":96976705},{"NoteNumber":70,"Velocity":84,"Duration":267594,"SoundDuration":267594,"Delta":97107016},{"NoteNumber":82,"Velocity":84,"Duration":267594,"SoundDuration":267594,"Delta":97107016},{"NoteNumber":52,"Velocity":70,"Duration":267594,"SoundDuration":267594,"Delta":97107016},{"NoteNumber":74,"Velocity":88,"Duration":260620,"SoundDuration":260620,"Delta":97374610},{"NoteNumber":86,"Velocity":88,"Duration":260620,"SoundDuration":260620,"Delta":97374610},{"NoteNumber":33,"Velocity":72,"Duration":130310,"SoundDuration":130310,"Delta":97374610},{"NoteNumber":43,"Velocity":63,"Duration":130310,"SoundDuration":130310,"Delta":97504920},{"NoteNumber":79,"Velocity":83,"Duration":260620,"SoundDuration":260620,"Delta":97635231},{"NoteNumber":67,"Velocity":83,"Duration":260620,"SoundDuration":260620,"Delta":97635231},{"NoteNumber":50,"Velocity":63,"Duration":130310,"SoundDuration":130310,"Delta":97635231},{"NoteNumber":33,"Velocity":57,"Duration":130310,"SoundDuration":130310,"Delta":97765541},{"NoteNumber":69,"Velocity":80,"Duration":260620,"SoundDuration":260620,"Delta":97895851},{"NoteNumber":81,"Velocity":80,"Duration":260620,"SoundDuration":260620,"Delta":97895851},{"NoteNumber":52,"Velocity":68,"Duration":260620,"SoundDuration":260620,"Delta":97895851},{"NoteNumber":72,"Velocity":86,"Duration":260620,"SoundDuration":260620,"Delta":98156472},{"NoteNumber":84,"Velocity":86,"Duration":260620,"SoundDuration":260620,"Delta":98156472},{"NoteNumber":33,"Velocity":71,"Duration":130310,"SoundDuration":130310,"Delta":98156472},{"NoteNumber":43,"Velocity":63,"Duration":130310,"SoundDuration":130310,"Delta":98286782},{"NoteNumber":70,"Velocity":82,"Duration":260620,"SoundDuration":260620,"Delta":98417092},{"NoteNumber":82,"Velocity":82,"Duration":260620,"SoundDuration":260620,"Delta":98417092},{"NoteNumber":50,"Velocity":63,"Duration":130310,"SoundDuration":130310,"Delta":98417092},{"NoteNumber":33,"Velocity":58,"Duration":130310,"SoundDuration":130310,"Delta":98547402},{"NoteNumber":52,"Velocity":66,"Duration":266382,"SoundDuration":266382,"Delta":98677713},{"NoteNumber":64,"Velocity":79,"Duration":133191,"SoundDuration":133191,"Delta":98810904},{"NoteNumber":76,"Velocity":79,"Duration":133191,"SoundDuration":133191,"Delta":98810904},{"NoteNumber":79,"Velocity":87,"Duration":260620,"SoundDuration":260620,"Delta":98944095},{"NoteNumber":67,"Velocity":87,"Duration":260620,"SoundDuration":260620,"Delta":98944095},{"NoteNumber":33,"Velocity":71,"Duration":130310,"SoundDuration":130310,"Delta":98944095},{"NoteNumber":43,"Velocity":61,"Duration":130310,"SoundDuration":130310,"Delta":99074405},{"NoteNumber":58,"Velocity":81,"Duration":260620,"SoundDuration":260620,"Delta":99204716},{"NoteNumber":70,"Velocity":81,"Duration":260620,"SoundDuration":260620,"Delta":99204716},{"NoteNumber":50,"Velocity":61,"Duration":130310,"SoundDuration":130310,"Delta":99204716},{"NoteNumber":33,"Velocity":56,"Duration":130310,"SoundDuration":130310,"Delta":99335026},{"NoteNumber":60,"Velocity":79,"Duration":260620,"SoundDuration":260620,"Delta":99465336},{"NoteNumber":72,"Velocity":79,"Duration":260620,"SoundDuration":260620,"Delta":99465336},{"NoteNumber":52,"Velocity":65,"Duration":260620,"SoundDuration":260620,"Delta":99465336},{"NoteNumber":64,"Velocity":83,"Duration":260620,"SoundDuration":260620,"Delta":99725957},{"NoteNumber":76,"Velocity":83,"Duration":260620,"SoundDuration":260620,"Delta":99725957},{"NoteNumber":33,"Velocity":70,"Duration":130310,"SoundDuration":130310,"Delta":99725957},{"NoteNumber":43,"Velocity":60,"Duration":130310,"SoundDuration":130310,"Delta":99856267},{"NoteNumber":62,"Velocity":78,"Duration":260620,"SoundDuration":260620,"Delta":99986577},{"NoteNumber":74,"Velocity":78,"Duration":260620,"SoundDuration":260620,"Delta":99986577},{"NoteNumber":50,"Velocity":60,"Duration":130310,"SoundDuration":130310,"Delta":99986577},{"NoteNumber":33,"Velocity":54,"Duration":130310,"SoundDuration":130310,"Delta":100116887},{"NoteNumber":67,"Velocity":78,"Duration":272454,"SoundDuration":272454,"Delta":100247198},{"NoteNumber":55,"Velocity":78,"Duration":272454,"SoundDuration":272454,"Delta":100247198},{"NoteNumber":52,"Velocity":66,"Duration":272454,"SoundDuration":272454,"Delta":100247198},{"NoteNumber":58,"Velocity":86,"Duration":781861,"SoundDuration":781861,"Delta":100519653},{"NoteNumber":70,"Velocity":86,"Duration":781861,"SoundDuration":781861,"Delta":100519653},{"NoteNumber":33,"Velocity":72,"Duration":130310,"SoundDuration":130310,"Delta":100519653},{"NoteNumber":43,"Velocity":59,"Duration":130310,"SoundDuration":130310,"Delta":100649963},{"NoteNumber":50,"Velocity":60,"Duration":130310,"SoundDuration":130310,"Delta":100780273},{"NoteNumber":33,"Velocity":54,"Duration":130310,"SoundDuration":130310,"Delta":100910583},{"NoteNumber":52,"Velocity":67,"Duration":260620,"SoundDuration":260620,"Delta":101040894},{"NoteNumber":61,"Velocity":84,"Duration":792184,"SoundDuration":792184,"Delta":101301514},{"NoteNumber":49,"Velocity":84,"Duration":792184,"SoundDuration":792184,"Delta":101301514},{"NoteNumber":33,"Velocity":71,"Duration":132030,"SoundDuration":132030,"Delta":101301514},{"NoteNumber":43,"Velocity":61,"Duration":132030,"SoundDuration":132030,"Delta":101433545},{"NoteNumber":45,"Velocity":61,"Duration":132030,"SoundDuration":132030,"Delta":101565576},{"NoteNumber":33,"Velocity":54,"Duration":132030,"SoundDuration":132030,"Delta":101697606},{"NoteNumber":52,"Velocity":65,"Duration":264061,"SoundDuration":264061,"Delta":101829637},{"NoteNumber":50,"Velocity":86,"Duration":521241,"SoundDuration":521241,"Delta":102093699},{"NoteNumber":62,"Velocity":86,"Duration":521241,"SoundDuration":521241,"Delta":102093699},{"NoteNumber":38,"Velocity":71,"Duration":130310,"SoundDuration":130310,"Delta":102093699},{"NoteNumber":45,"Velocity":63,"Duration":130310,"SoundDuration":130310,"Delta":102224009},{"NoteNumber":53,"Velocity":62,"Duration":130310,"SoundDuration":130310,"Delta":102354319},{"NoteNumber":38,"Velocity":57,"Duration":130310,"SoundDuration":130310,"Delta":102484629},{"NoteNumber":57,"Velocity":67,"Duration":260620,"SoundDuration":260620,"Delta":102614940},{"NoteNumber":38,"Velocity":68,"Duration":130310,"SoundDuration":130310,"Delta":102875560},{"NoteNumber":45,"Velocity":62,"Duration":130310,"SoundDuration":130310,"Delta":103005870},{"NoteNumber":53,"Velocity":62,"Duration":130310,"SoundDuration":130310,"Delta":103136181},{"NoteNumber":38,"Velocity":58,"Duration":130310,"SoundDuration":130310,"Delta":103266491},{"NoteNumber":57,"Velocity":66,"Duration":267594,"SoundDuration":267594,"Delta":103396801},{"NoteNumber":89,"Velocity":90,"Duration":521241,"SoundDuration":521241,"Delta":103664396},{"NoteNumber":101,"Velocity":90,"Duration":651551,"SoundDuration":651551,"Delta":103664396},{"NoteNumber":38,"Velocity":68,"Duration":130310,"SoundDuration":130310,"Delta":103664396},{"NoteNumber":44,"Velocity":62,"Duration":130310,"SoundDuration":130310,"Delta":103794706},{"NoteNumber":53,"Velocity":62,"Duration":130310,"SoundDuration":130310,"Delta":103925016},{"NoteNumber":38,"Velocity":56,"Duration":130310,"SoundDuration":130310,"Delta":104055326},{"NoteNumber":56,"Velocity":66,"Duration":260620,"SoundDuration":260620,"Delta":104185637},{"NoteNumber":100,"Velocity":81,"Duration":43436,"SoundDuration":43436,"Delta":104315947},{"NoteNumber":98,"Velocity":80,"Duration":43436,"SoundDuration":43436,"Delta":104359384},{"NoteNumber":95,"Velocity":80,"Duration":43436,"SoundDuration":43436,"Delta":104402820},{"NoteNumber":91,"Velocity":79,"Duration":43062,"SoundDuration":43062,"Delta":104446257},{"NoteNumber":38,"Velocity":68,"Duration":129370,"SoundDuration":129370,"Delta":104446257},{"NoteNumber":89,"Velocity":79,"Duration":43062,"SoundDuration":43062,"Delta":104489320},{"NoteNumber":88,"Velocity":78,"Duration":43245,"SoundDuration":43245,"Delta":104532382},{"NoteNumber":86,"Velocity":78,"Duration":43245,"SoundDuration":43245,"Delta":104575627},{"NoteNumber":44,"Velocity":61,"Duration":130118,"SoundDuration":130118,"Delta":104575627},{"NoteNumber":83,"Velocity":77,"Duration":43436,"SoundDuration":43436,"Delta":104618872},{"NoteNumber":79,"Velocity":77,"Duration":43436,"SoundDuration":43436,"Delta":104662309},{"NoteNumber":77,"Velocity":76,"Duration":43626,"SoundDuration":43626,"Delta":104705746},{"NoteNumber":53,"Velocity":61,"Duration":131065,"SoundDuration":131065,"Delta":104705746},{"NoteNumber":76,"Velocity":76,"Duration":43626,"SoundDuration":43626,"Delta":104749372},{"NoteNumber":74,"Velocity":75,"Duration":43813,"SoundDuration":43813,"Delta":104792998},{"NoteNumber":71,"Velocity":75,"Duration":43813,"SoundDuration":43813,"Delta":104836812},{"NoteNumber":38,"Velocity":56,"Duration":131834,"SoundDuration":131834,"Delta":104836812},{"NoteNumber":67,"Velocity":75,"Duration":44010,"SoundDuration":44010,"Delta":104880625},{"NoteNumber":65,"Velocity":74,"Duration":44010,"SoundDuration":44010,"Delta":104924636},{"NoteNumber":64,"Velocity":74,"Duration":44204,"SoundDuration":44204,"Delta":104968646},{"NoteNumber":56,"Velocity":65,"Duration":266401,"SoundDuration":266401,"Delta":104968646},{"NoteNumber":62,"Velocity":73,"Duration":44204,"SoundDuration":44204,"Delta":105012851},{"NoteNumber":59,"Velocity":73,"Duration":44397,"SoundDuration":44397,"Delta":105057055},{"NoteNumber":55,"Velocity":72,"Duration":44397,"SoundDuration":44397,"Delta":105101453},{"NoteNumber":53,"Velocity":72,"Duration":44599,"SoundDuration":44599,"Delta":105145850},{"NoteNumber":52,"Velocity":72,"Duration":44599,"SoundDuration":44599,"Delta":105190449},{"NoteNumber":50,"Velocity":90,"Duration":1047030,"SoundDuration":1047030,"Delta":105235048},{"NoteNumber":38,"Velocity":64,"Duration":130878,"SoundDuration":130878,"Delta":105235048},{"NoteNumber":45,"Velocity":52,"Duration":130878,"SoundDuration":130878,"Delta":105365927},{"NoteNumber":53,"Velocity":52,"Duration":130878,"SoundDuration":130878,"Delta":105496805},{"NoteNumber":38,"Velocity":45,"Duration":130878,"SoundDuration":130878,"Delta":105627684},{"NoteNumber":57,"Velocity":62,"Duration":261757,"SoundDuration":261757,"Delta":105758563},{"NoteNumber":38,"Velocity":64,"Duration":130878,"SoundDuration":130878,"Delta":106020320},{"NoteNumber":45,"Velocity":53,"Duration":130878,"SoundDuration":130878,"Delta":106151199},{"NoteNumber":53,"Velocity":53,"Duration":130878,"SoundDuration":130878,"Delta":106282078},{"NoteNumber":38,"Velocity":46,"Duration":130878,"SoundDuration":130878,"Delta":106412957},{"NoteNumber":57,"Velocity":63,"Duration":269978,"SoundDuration":269978,"Delta":106543835},{"NoteNumber":59,"Velocity":73,"Duration":792144,"SoundDuration":792144,"Delta":106813814},{"NoteNumber":65,"Velocity":73,"Duration":1586882,"SoundDuration":1586882,"Delta":106813814},{"NoteNumber":71,"Velocity":73,"Duration":792144,"SoundDuration":792144,"Delta":106813814},{"NoteNumber":38,"Velocity":61,"Duration":131440,"SoundDuration":131440,"Delta":106813814},{"NoteNumber":44,"Velocity":51,"Duration":131440,"SoundDuration":131440,"Delta":106945254},{"NoteNumber":53,"Velocity":51,"Duration":131440,"SoundDuration":131440,"Delta":107076695},{"NoteNumber":38,"Velocity":46,"Duration":131440,"SoundDuration":131440,"Delta":107208135},{"NoteNumber":56,"Velocity":56,"Duration":266382,"SoundDuration":266382,"Delta":107339576},{"NoteNumber":58,"Velocity":72,"Duration":794738,"SoundDuration":794738,"Delta":107605958},{"NoteNumber":70,"Velocity":72,"Duration":794738,"SoundDuration":794738,"Delta":107605958},{"NoteNumber":38,"Velocity":61,"Duration":130878,"SoundDuration":130878,"Delta":107605958},{"NoteNumber":44,"Velocity":49,"Duration":130878,"SoundDuration":130878,"Delta":107736837},{"NoteNumber":53,"Velocity":49,"Duration":130878,"SoundDuration":130878,"Delta":107867716},{"NoteNumber":38,"Velocity":44,"Duration":130878,"SoundDuration":130878,"Delta":107998595},{"NoteNumber":56,"Velocity":56,"Duration":271223,"SoundDuration":271223,"Delta":108129473},{"NoteNumber":57,"Velocity":69,"Duration":525762,"SoundDuration":525762,"Delta":108400696},{"NoteNumber":65,"Velocity":69,"Duration":525762,"SoundDuration":525762,"Delta":108400696},{"NoteNumber":69,"Velocity":69,"Duration":525762,"SoundDuration":525762,"Delta":108400696},{"NoteNumber":38,"Velocity":61,"Duration":131440,"SoundDuration":131440,"Delta":108400696},{"NoteNumber":45,"Velocity":49,"Duration":131440,"SoundDuration":131440,"Delta":108532137},{"NoteNumber":53,"Velocity":48,"Duration":131440,"SoundDuration":131440,"Delta":108663577},{"NoteNumber":38,"Velocity":41,"Duration":131440,"SoundDuration":131440,"Delta":108795018},{"NoteNumber":57,"Velocity":56,"Duration":262880,"SoundDuration":262880,"Delta":108926458},{"NoteNumber":38,"Velocity":61,"Duration":131440,"SoundDuration":131440,"Delta":109189339},{"NoteNumber":45,"Velocity":48,"Duration":131440,"SoundDuration":131440,"Delta":109320780},{"NoteNumber":53,"Velocity":48,"Duration":131440,"SoundDuration":131440,"Delta":109452220},{"NoteNumber":38,"Velocity":41,"Duration":131440,"SoundDuration":131440,"Delta":109583661},{"NoteNumber":57,"Velocity":56,"Duration":271223,"SoundDuration":271223,"Delta":109715101},{"NoteNumber":89,"Velocity":90,"Duration":523515,"SoundDuration":523515,"Delta":109986324},{"NoteNumber":101,"Velocity":90,"Duration":654393,"SoundDuration":654393,"Delta":109986324},{"NoteNumber":38,"Velocity":68,"Duration":130878,"SoundDuration":130878,"Delta":109986324},{"NoteNumber":44,"Velocity":52,"Duration":130878,"SoundDuration":130878,"Delta":110117203},{"NoteNumber":53,"Velocity":52,"Duration":130878,"SoundDuration":130878,"Delta":110248082},{"NoteNumber":38,"Velocity":45,"Duration":130878,"SoundDuration":130878,"Delta":110378961},{"NoteNumber":56,"Velocity":61,"Duration":261757,"SoundDuration":261757,"Delta":110509839},{"NoteNumber":100,"Velocity":80,"Duration":43626,"SoundDuration":43626,"Delta":110640718},{"NoteNumber":98,"Velocity":79,"Duration":43626,"SoundDuration":43626,"Delta":110684344},{"NoteNumber":95,"Velocity":79,"Duration":43626,"SoundDuration":43626,"Delta":110727971},{"NoteNumber":91,"Velocity":78,"Duration":42874,"SoundDuration":42874,"Delta":110771597},{"NoteNumber":38,"Velocity":64,"Duration":128811,"SoundDuration":128811,"Delta":110771597},{"NoteNumber":89,"Velocity":78,"Duration":42874,"SoundDuration":42874,"Delta":110814471},{"NoteNumber":88,"Velocity":78,"Duration":43062,"SoundDuration":43062,"Delta":110857345},{"NoteNumber":86,"Velocity":77,"Duration":43062,"SoundDuration":43062,"Delta":110900408},{"NoteNumber":44,"Velocity":52,"Duration":129552,"SoundDuration":129552,"Delta":110900408},{"NoteNumber":83,"Velocity":77,"Duration":43245,"SoundDuration":43245,"Delta":110943471},{"NoteNumber":79,"Velocity":76,"Duration":43245,"SoundDuration":43245,"Delta":110986716},{"NoteNumber":77,"Velocity":76,"Duration":43436,"SoundDuration":43436,"Delta":111029961},{"NoteNumber":53,"Velocity":52,"Duration":130499,"SoundDuration":130499,"Delta":111029961},{"NoteNumber":76,"Velocity":75,"Duration":43436,"SoundDuration":43436,"Delta":111073398},{"NoteNumber":74,"Velocity":75,"Duration":43626,"SoundDuration":43626,"Delta":111116834},{"NoteNumber":71,"Velocity":75,"Duration":43626,"SoundDuration":43626,"Delta":111160461},{"NoteNumber":38,"Velocity":45,"Duration":131253,"SoundDuration":131253,"Delta":111160461},{"NoteNumber":67,"Velocity":74,"Duration":43813,"SoundDuration":43813,"Delta":111204087},{"NoteNumber":65,"Velocity":74,"Duration":43813,"SoundDuration":43813,"Delta":111247900},{"NoteNumber":64,"Velocity":73,"Duration":44010,"SoundDuration":44010,"Delta":111291714},{"NoteNumber":56,"Velocity":60,"Duration":265426,"SoundDuration":265426,"Delta":111291714},{"NoteNumber":62,"Velocity":73,"Duration":44010,"SoundDuration":44010,"Delta":111335724},{"NoteNumber":59,"Velocity":73,"Duration":44204,"SoundDuration":44204,"Delta":111379734},{"NoteNumber":55,"Velocity":72,"Duration":44204,"SoundDuration":44204,"Delta":111423939},{"NoteNumber":53,"Velocity":72,"Duration":44397,"SoundDuration":44397,"Delta":111468144},{"NoteNumber":52,"Velocity":72,"Duration":44599,"SoundDuration":44599,"Delta":111512541},{"NoteNumber":50,"Velocity":90,"Duration":1070377,"SoundDuration":1070377,"Delta":111557140},{"NoteNumber":38,"Velocity":64,"Duration":133797,"SoundDuration":133797,"Delta":111557140},{"NoteNumber":45,"Velocity":52,"Duration":133797,"SoundDuration":133797,"Delta":111690937},{"NoteNumber":53,"Velocity":52,"Duration":133797,"SoundDuration":133797,"Delta":111824734},{"NoteNumber":38,"Velocity":42,"Duration":133797,"SoundDuration":133797,"Delta":111958532},{"NoteNumber":57,"Velocity":60,"Duration":267594,"SoundDuration":267594,"Delta":112092329},{"NoteNumber":38,"Velocity":66,"Duration":133797,"SoundDuration":133797,"Delta":112359923},{"NoteNumber":45,"Velocity":51,"Duration":133797,"SoundDuration":133797,"Delta":112493721},{"NoteNumber":53,"Velocity":51,"Duration":133797,"SoundDuration":133797,"Delta":112627518},{"NoteNumber":38,"Velocity":43,"Duration":133797,"SoundDuration":133797,"Delta":112761315},{"NoteNumber":57,"Velocity":62,"Duration":267594,"SoundDuration":267594,"Delta":112895112},{"NoteNumber":71,"Velocity":72,"Duration":150052,"SoundDuration":150052,"Delta":113162707},{"NoteNumber":59,"Velocity":61,"Duration":150052,"SoundDuration":150052,"Delta":113162707},{"NoteNumber":65,"Velocity":61,"Duration":150052,"SoundDuration":150052,"Delta":113162707},{"NoteNumber":38,"Velocity":68,"Duration":138543,"SoundDuration":138543,"Delta":113162707},{"NoteNumber":44,"Velocity":51,"Duration":137686,"SoundDuration":137686,"Delta":113301250},{"NoteNumber":71,"Velocity":73,"Duration":148842,"SoundDuration":148842,"Delta":113328872},{"NoteNumber":65,"Velocity":62,"Duration":148842,"SoundDuration":148842,"Delta":113328872},{"NoteNumber":59,"Velocity":62,"Duration":148842,"SoundDuration":148842,"Delta":113328872},{"NoteNumber":53,"Velocity":51,"Duration":136438,"SoundDuration":136438,"Delta":113438937},{"NoteNumber":71,"Velocity":74,"Duration":147282,"SoundDuration":147282,"Delta":113493639},{"NoteNumber":65,"Velocity":63,"Duration":147282,"SoundDuration":147282,"Delta":113493639},{"NoteNumber":59,"Velocity":63,"Duration":147282,"SoundDuration":147282,"Delta":113493639},{"NoteNumber":38,"Velocity":44,"Duration":135404,"SoundDuration":135404,"Delta":113575376},{"NoteNumber":59,"Velocity":63,"Duration":145864,"SoundDuration":145864,"Delta":113656743},{"NoteNumber":65,"Velocity":63,"Duration":145864,"SoundDuration":145864,"Delta":113656743},{"NoteNumber":71,"Velocity":75,"Duration":145864,"SoundDuration":145864,"Delta":113656743},{"NoteNumber":56,"Velocity":61,"Duration":267397,"SoundDuration":267397,"Delta":113710780},{"NoteNumber":65,"Velocity":64,"Duration":144488,"SoundDuration":144488,"Delta":113818217},{"NoteNumber":59,"Velocity":64,"Duration":144488,"SoundDuration":144488,"Delta":113818217},{"NoteNumber":71,"Velocity":76,"Duration":144488,"SoundDuration":144488,"Delta":113818217},{"NoteNumber":70,"Velocity":77,"Duration":144341,"SoundDuration":144341,"Delta":113978178},{"NoteNumber":58,"Velocity":65,"Duration":144341,"SoundDuration":144341,"Delta":113978178},{"NoteNumber":65,"Velocity":65,"Duration":144341,"SoundDuration":144341,"Delta":113978178},{"NoteNumber":38,"Velocity":61,"Duration":133191,"SoundDuration":133191,"Delta":113978178},{"NoteNumber":44,"Velocity":51,"Duration":133797,"SoundDuration":133797,"Delta":114111369},{"NoteNumber":58,"Velocity":67,"Duration":145116,"SoundDuration":145116,"Delta":114138128},{"NoteNumber":65,"Velocity":67,"Duration":145116,"SoundDuration":145116,"Delta":114138128},{"NoteNumber":70,"Velocity":79,"Duration":145116,"SoundDuration":145116,"Delta":114138128},{"NoteNumber":53,"Velocity":52,"Duration":134396,"SoundDuration":134396,"Delta":114245166},{"NoteNumber":70,"Velocity":80,"Duration":145882,"SoundDuration":145882,"Delta":114298925},{"NoteNumber":58,"Velocity":67,"Duration":145882,"SoundDuration":145882,"Delta":114298925},{"NoteNumber":65,"Velocity":67,"Duration":145882,"SoundDuration":145882,"Delta":114298925},{"NoteNumber":38,"Velocity":45,"Duration":135196,"SoundDuration":135196,"Delta":114379563},{"NoteNumber":65,"Velocity":68,"Duration":146870,"SoundDuration":146870,"Delta":114460556},{"NoteNumber":70,"Velocity":81,"Duration":146870,"SoundDuration":146870,"Delta":114460556},{"NoteNumber":58,"Velocity":68,"Duration":146870,"SoundDuration":146870,"Delta":114460556},{"NoteNumber":56,"Velocity":61,"Duration":271223,"SoundDuration":271223,"Delta":114514759},{"NoteNumber":65,"Velocity":68,"Duration":146912,"SoundDuration":146912,"Delta":114623249},{"NoteNumber":70,"Velocity":81,"Duration":146912,"SoundDuration":146912,"Delta":114623249},{"NoteNumber":58,"Velocity":68,"Duration":146912,"SoundDuration":146912,"Delta":114623249},{"NoteNumber":38,"Velocity":50,"Duration":542445,"SoundDuration":542445,"Delta":114785982},{"NoteNumber":45,"Velocity":52,"Duration":237320,"SoundDuration":237320,"Delta":114819885},{"NoteNumber":53,"Velocity":54,"Duration":203417,"SoundDuration":203417,"Delta":114853788},{"NoteNumber":57,"Velocity":77,"Duration":169514,"SoundDuration":169514,"Delta":114887691},{"NoteNumber":65,"Velocity":81,"Duration":135611,"SoundDuration":135611,"Delta":114921594},{"NoteNumber":69,"Velocity":85,"Duration":101708,"SoundDuration":101708,"Delta":114989400},{"NoteNumber":98,"Velocity":102,"Duration":813669,"SoundDuration":813669,"Delta":115599651},{"NoteNumber":86,"Velocity":90,"Duration":813669,"SoundDuration":813669,"Delta":115599651},{"NoteNumber":69,"Velocity":68,"Duration":813669,"SoundDuration":813669,"Delta":115599651},{"NoteNumber":74,"Velocity":81,"Duration":813669,"SoundDuration":813669,"Delta":115599651},{"NoteNumber":65,"Velocity":68,"Duration":813669,"SoundDuration":813669,"Delta":115599651},{"NoteNumber":77,"Velocity":81,"Duration":813669,"SoundDuration":813669,"Delta":115599651},{"NoteNumber":94,"Velocity":86,"Duration":65155,"SoundDuration":65155,"Delta":116413320},{"NoteNumber":93,"Velocity":86,"Duration":65155,"SoundDuration":65155,"Delta":116478475},{"NoteNumber":89,"Velocity":86,"Duration":65439,"SoundDuration":65439,"Delta":116543631},{"NoteNumber":86,"Velocity":85,"Duration":65439,"SoundDuration":65439,"Delta":116609070},{"NoteNumber":82,"Velocity":85,"Duration":65720,"SoundDuration":65720,"Delta":116674509},{"NoteNumber":81,"Velocity":85,"Duration":65916,"SoundDuration":65916,"Delta":116740230},{"NoteNumber":77,"Velocity":84,"Duration":66015,"SoundDuration":66015,"Delta":116806147},{"NoteNumber":74,"Velocity":84,"Duration":66209,"SoundDuration":66209,"Delta":116872162},{"NoteNumber":70,"Velocity":84,"Duration":66403,"SoundDuration":66403,"Delta":116938372},{"NoteNumber":69,"Velocity":83,"Duration":66595,"SoundDuration":66595,"Delta":117004775},{"NoteNumber":65,"Velocity":83,"Duration":66696,"SoundDuration":66696,"Delta":117071371},{"NoteNumber":62,"Velocity":83,"Duration":66898,"SoundDuration":66898,"Delta":117138067},{"NoteNumber":58,"Velocity":82,"Duration":67198,"SoundDuration":67198,"Delta":117204966},{"NoteNumber":57,"Velocity":82,"Duration":67198,"SoundDuration":67198,"Delta":117272164},{"NoteNumber":53,"Velocity":82,"Duration":67494,"SoundDuration":67494,"Delta":117339362},{"NoteNumber":50,"Velocity":81,"Duration":67702,"SoundDuration":67702,"Delta":117406857},{"NoteNumber":46,"Velocity":81,"Duration":67805,"SoundDuration":67805,"Delta":117474559},{"NoteNumber":45,"Velocity":81,"Duration":68011,"SoundDuration":68011,"Delta":117542365},{"NoteNumber":41,"Velocity":81,"Duration":68219,"SoundDuration":68219,"Delta":117610376},{"NoteNumber":38,"Velocity":81,"Duration":68430,"SoundDuration":68430,"Delta":117678595},{"NoteNumber":34,"Velocity":81,"Duration":68533,"SoundDuration":68533,"Delta":117747026},{"NoteNumber":33,"Velocity":80,"Duration":68737,"SoundDuration":68737,"Delta":117815559},{"NoteNumber":29,"Velocity":80,"Duration":69054,"SoundDuration":69054,"Delta":117884297},{"NoteNumber":28,"Velocity":79,"Duration":69054,"SoundDuration":69054,"Delta":117953351},{"NoteNumber":26,"Velocity":113,"Duration":1381087,"SoundDuration":1381087,"Delta":118022406},{"NoteNumber":26,"Velocity":115,"Duration":1381087,"SoundDuration":1381087,"Delta":119679711},{"NoteNumber":26,"Velocity":113,"Duration":1858504,"SoundDuration":1858504,"Delta":121337016}],"license":{"name":"Creative Commons Attribution-ShareAlike 3.0 Germany","url":"http://creativecommons.org/licenses/by-sa/3.0/de/deed.en","text":"The MIDI, audio (MP3, OGG) and video files of Bernd Krueger are licensed under the cc-by-sa Germany License. This means that you can use and adapt the files, as long as you attribute the copyright holder.\n\nName: Bernd Krueger\nSource: http://www.piano-midi.de\n\nThe distribution or public playback of the files is only allowed under identical license conditions.\n\nThe scores are open source.","attribution":"MIDI files by Bernd Krueger (piano-midi.de)"}}