{"title":"Chopin Prelude No. 16, Opus 28","artist":"Chopin","durationMs":60102,"midiSha256":"8db82f3fd87803d3c6b55f6484eb9225bb4df69b36459bcc9c14ab9d5bcc1103","midiObject":[{"NoteNumber":63,"Velocity":81,"Duration":693058,"SoundDuration":693058,"Delta":0},{"NoteNumber":69,"Velocity":81,"Duration":604010,"SoundDuration":604010,"Delta":89048},{"NoteNumber":78,"Velocity":96,"Duration":539807,"SoundDuration":539807,"Delta":179606},{"NoteNumber":29,"Velocity":70,"Duration":513452,"SoundDuration":513452,"Delta":179606},{"NoteNumber":41,"Velocity":84,"Duration":513452,"SoundDuration":513452,"Delta":179606},{"NoteNumber":69,"Velocity":68,"Duration":421674,"SoundDuration":421674,"Delta":693059},{"NoteNumber":77,"Velocity":80,"Duration":448028,"SoundDuration":448028,"Delta":693059},{"NoteNumber":63,"Velocity":62,"Duration":421674,"SoundDuration":421674,"Delta":693059},{"NoteNumber":48,"Velocity":47,"Duration":421674,"SoundDuration":421674,"Delta":693059},{"NoteNumber":53,"Velocity":53,"Duration":421674,"SoundDuration":421674,"Delta":693059},{"NoteNumber":60,"Velocity":71,"Duration":421674,"SoundDuration":421674,"Delta":693059},{"NoteNumber":63,"Velocity":64,"Duration":369689,"SoundDuration":369689,"Delta":1114733},{"NoteNumber":69,"Velocity":67,"Duration":369689,"SoundDuration":369689,"Delta":1114733},{"NoteNumber":76,"Velocity":80,"Duration":389591,"SoundDuration":389591,"Delta":1114733},{"NoteNumber":48,"Velocity":46,"Duration":369689,"SoundDuration":369689,"Delta":1114733},{"NoteNumber":53,"Velocity":52,"Duration":369689,"SoundDuration":369689,"Delta":1114733},{"NoteNumber":60,"Velocity":70,"Duration":369689,"SoundDuration":369689,"Delta":1114733},{"NoteNumber":69,"Velocity":69,"Duration":318446,"SoundDuration":318446,"Delta":1484422},{"NoteNumber":63,"Velocity":63,"Duration":318446,"SoundDuration":318446,"Delta":1484422},{"NoteNumber":75,"Velocity":81,"Duration":339217,"SoundDuration":339217,"Delta":1484422},{"NoteNumber":48,"Velocity":47,"Duration":318446,"SoundDuration":318446,"Delta":1484422},{"NoteNumber":53,"Velocity":53,"Duration":318446,"SoundDuration":318446,"Delta":1484422},{"NoteNumber":60,"Velocity":72,"Duration":318446,"SoundDuration":318446,"Delta":1484422},{"NoteNumber":73,"Velocity":83,"Duration":353106,"SoundDuration":353106,"Delta":1802868},{"NoteNumber":63,"Velocity":62,"Duration":332335,"SoundDuration":332335,"Delta":1802868},{"NoteNumber":69,"Velocity":69,"Duration":332335,"SoundDuration":332335,"Delta":1802868},{"NoteNumber":48,"Velocity":48,"Duration":332335,"SoundDuration":332335,"Delta":1802868},{"NoteNumber":53,"Velocity":55,"Duration":332335,"SoundDuration":332335,"Delta":1802868},{"NoteNumber":60,"Velocity":74,"Duration":332335,"SoundDuration":332335,"Delta":1802868},{"NoteNumber":69,"Velocity":65,"Duration":1851572,"SoundDuration":1851572,"Delta":2135204},{"NoteNumber":63,"Velocity":58,"Duration":1851572,"SoundDuration":1851572,"Delta":2135204},{"NoteNumber":72,"Velocity":78,"Duration":1851572,"SoundDuration":1851572,"Delta":2135204},{"NoteNumber":48,"Velocity":46,"Duration":1851572,"SoundDuration":1851572,"Delta":2135204},{"NoteNumber":53,"Velocity":52,"Duration":1851572,"SoundDuration":1851572,"Delta":2135204},{"NoteNumber":60,"Velocity":70,"Duration":1851572,"SoundDuration":1851572,"Delta":2135204},{"NoteNumber":77,"Velocity":39,"Duration":96365,"SoundDuration":96365,"Delta":4147548},{"NoteNumber":46,"Velocity":53,"Duration":165198,"SoundDuration":165198,"Delta":4147548},{"NoteNumber":75,"Velocity":40,"Duration":95891,"SoundDuration":95891,"Delta":4230147},{"NoteNumber":72,"Velocity":41,"Duration":93050,"SoundDuration":93050,"Delta":4312746},{"NoteNumber":61,"Velocity":29,"Duration":79757,"SoundDuration":79757,"Delta":4312746},{"NoteNumber":53,"Velocity":23,"Duration":79757,"SoundDuration":79757,"Delta":4312746},{"NoteNumber":73,"Velocity":42,"Duration":92925,"SoundDuration":92925,"Delta":4392504},{"NoteNumber":65,"Velocity":43,"Duration":92759,"SoundDuration":92759,"Delta":4472178},{"NoteNumber":69,"Velocity":45,"Duration":92718,"SoundDuration":92718,"Delta":4551686},{"NoteNumber":70,"Velocity":45,"Duration":92475,"SoundDuration":92475,"Delta":4631194},{"NoteNumber":41,"Velocity":40,"Duration":158528,"SoundDuration":158528,"Delta":4631194},{"NoteNumber":72,"Velocity":46,"Duration":92683,"SoundDuration":92683,"Delta":4710459},{"NoteNumber":73,"Velocity":48,"Duration":93934,"SoundDuration":93934,"Delta":4789723},{"NoteNumber":46,"Velocity":57,"Duration":161030,"SoundDuration":161030,"Delta":4789723},{"NoteNumber":75,"Velocity":49,"Duration":93682,"SoundDuration":93682,"Delta":4870238},{"NoteNumber":77,"Velocity":51,"Duration":92173,"SoundDuration":92173,"Delta":4950754},{"NoteNumber":61,"Velocity":34,"Duration":79005,"SoundDuration":79005,"Delta":4950754},{"NoteNumber":53,"Velocity":27,"Duration":79005,"SoundDuration":79005,"Delta":4950754},{"NoteNumber":79,"Velocity":51,"Duration":92093,"SoundDuration":92093,"Delta":5029759},{"NoteNumber":81,"Velocity":52,"Duration":91613,"SoundDuration":91613,"Delta":5108765},{"NoteNumber":82,"Velocity":53,"Duration":91734,"SoundDuration":91734,"Delta":5187290},{"NoteNumber":84,"Velocity":54,"Duration":92460,"SoundDuration":92460,"Delta":5265816},{"NoteNumber":41,"Velocity":47,"Duration":158503,"SoundDuration":158503,"Delta":5265816},{"NoteNumber":85,"Velocity":56,"Duration":92544,"SoundDuration":92544,"Delta":5345068},{"NoteNumber":87,"Velocity":56,"Duration":93050,"SoundDuration":93050,"Delta":5424320},{"NoteNumber":46,"Velocity":65,"Duration":159514,"SoundDuration":159514,"Delta":5424320},{"NoteNumber":89,"Velocity":57,"Duration":92724,"SoundDuration":92724,"Delta":5504077},{"NoteNumber":91,"Velocity":58,"Duration":90772,"SoundDuration":90772,"Delta":5583835},{"NoteNumber":61,"Velocity":35,"Duration":77804,"SoundDuration":77804,"Delta":5583835},{"NoteNumber":53,"Velocity":28,"Duration":77804,"SoundDuration":77804,"Delta":5583835},{"NoteNumber":93,"Velocity":59,"Duration":90732,"SoundDuration":90732,"Delta":5661639},{"NoteNumber":94,"Velocity":61,"Duration":90495,"SoundDuration":90495,"Delta":5739444},{"NoteNumber":96,"Velocity":62,"Duration":90456,"SoundDuration":90456,"Delta":5817012},{"NoteNumber":97,"Velocity":64,"Duration":90224,"SoundDuration":90224,"Delta":5894579},{"NoteNumber":41,"Velocity":50,"Duration":154671,"SoundDuration":154671,"Delta":5894579},{"NoteNumber":99,"Velocity":65,"Duration":90463,"SoundDuration":90463,"Delta":5971915},{"NoteNumber":100,"Velocity":67,"Duration":91892,"SoundDuration":91892,"Delta":6049250},{"NoteNumber":46,"Velocity":68,"Duration":157530,"SoundDuration":157530,"Delta":6049250},{"NoteNumber":101,"Velocity":65,"Duration":91892,"SoundDuration":91892,"Delta":6128015},{"NoteNumber":99,"Velocity":65,"Duration":90502,"SoundDuration":90502,"Delta":6206780},{"NoteNumber":61,"Velocity":41,"Duration":77652,"SoundDuration":77652,"Delta":6206780},{"NoteNumber":53,"Velocity":34,"Duration":77652,"SoundDuration":77652,"Delta":6206780},{"NoteNumber":97,"Velocity":63,"Duration":89946,"SoundDuration":89946,"Delta":6284433},{"NoteNumber":96,"Velocity":62,"Duration":90145,"SoundDuration":90145,"Delta":6361530},{"NoteNumber":94,"Velocity":61,"Duration":90224,"SoundDuration":90224,"Delta":6438786},{"NoteNumber":93,"Velocity":60,"Duration":90418,"SoundDuration":90418,"Delta":6516122},{"NoteNumber":41,"Velocity":46,"Duration":155057,"SoundDuration":155057,"Delta":6516122},{"NoteNumber":94,"Velocity":59,"Duration":77567,"SoundDuration":77567,"Delta":6593612},{"NoteNumber":92,"Velocity":58,"Duration":92173,"SoundDuration":92173,"Delta":6671179},{"NoteNumber":46,"Velocity":60,"Duration":158011,"SoundDuration":158011,"Delta":6671179},{"NoteNumber":90,"Velocity":57,"Duration":92173,"SoundDuration":92173,"Delta":6750185},{"NoteNumber":89,"Velocity":56,"Duration":91374,"SoundDuration":91374,"Delta":6829190},{"NoteNumber":61,"Velocity":38,"Duration":78367,"SoundDuration":78367,"Delta":6829190},{"NoteNumber":53,"Velocity":32,"Duration":78367,"SoundDuration":78367,"Delta":6829190},{"NoteNumber":88,"Velocity":56,"Duration":91055,"SoundDuration":91055,"Delta":6907557},{"NoteNumber":89,"Velocity":55,"Duration":91252,"SoundDuration":91252,"Delta":6985605},{"NoteNumber":87,"Velocity":54,"Duration":91331,"SoundDuration":91331,"Delta":7063810},{"NoteNumber":85,"Velocity":53,"Duration":91532,"SoundDuration":91532,"Delta":7142094},{"NoteNumber":41,"Velocity":42,"Duration":156970,"SoundDuration":156970,"Delta":7142094},{"NoteNumber":84,"Velocity":52,"Duration":91901,"SoundDuration":91901,"Delta":7220539},{"NoteNumber":82,"Velocity":51,"Duration":93627,"SoundDuration":93627,"Delta":7299065},{"NoteNumber":46,"Velocity":54,"Duration":160504,"SoundDuration":160504,"Delta":7299065},{"NoteNumber":81,"Velocity":50,"Duration":93627,"SoundDuration":93627,"Delta":7379318},{"NoteNumber":82,"Velocity":49,"Duration":92588,"SoundDuration":92588,"Delta":7459570},{"NoteNumber":61,"Velocity":34,"Duration":79421,"SoundDuration":79421,"Delta":7459570},{"NoteNumber":53,"Velocity":28,"Duration":79421,"SoundDuration":79421,"Delta":7459570},{"NoteNumber":80,"Velocity":49,"Duration":92173,"SoundDuration":92173,"Delta":7538991},{"NoteNumber":78,"Velocity":48,"Duration":92388,"SoundDuration":92388,"Delta":7617997},{"NoteNumber":77,"Velocity":48,"Duration":92475,"SoundDuration":92475,"Delta":7697175},{"NoteNumber":75,"Velocity":46,"Duration":92678,"SoundDuration":92678,"Delta":7776440},{"NoteNumber":41,"Velocity":39,"Duration":159101,"SoundDuration":159101,"Delta":7776440},{"NoteNumber":73,"Velocity":45,"Duration":93171,"SoundDuration":93171,"Delta":7855866},{"NoteNumber":72,"Velocity":45,"Duration":94477,"SoundDuration":94477,"Delta":7935541},{"NoteNumber":46,"Velocity":51,"Duration":161960,"SoundDuration":161960,"Delta":7935541},{"NoteNumber":73,"Velocity":45,"Duration":94273,"SoundDuration":94273,"Delta":8016522},{"NoteNumber":75,"Velocity":45,"Duration":93050,"SoundDuration":93050,"Delta":8097502},{"NoteNumber":63,"Velocity":28,"Duration":79757,"SoundDuration":79757,"Delta":8097502},{"NoteNumber":54,"Velocity":22,"Duration":79757,"SoundDuration":79757,"Delta":8097502},{"NoteNumber":51,"Velocity":22,"Duration":79757,"SoundDuration":79757,"Delta":8097502},{"NoteNumber":77,"Velocity":46,"Duration":93050,"SoundDuration":93050,"Delta":8177260},{"NoteNumber":78,"Velocity":47,"Duration":92842,"SoundDuration":92842,"Delta":8257017},{"NoteNumber":80,"Velocity":47,"Duration":92931,"SoundDuration":92931,"Delta":8336608},{"NoteNumber":82,"Velocity":48,"Duration":93964,"SoundDuration":93964,"Delta":8416116},{"NoteNumber":34,"Velocity":43,"Duration":161082,"SoundDuration":161082,"Delta":8416116},{"NoteNumber":84,"Velocity":49,"Duration":93964,"SoundDuration":93964,"Delta":8496658},{"NoteNumber":82,"Velocity":48,"Duration":93708,"SoundDuration":93708,"Delta":8577199},{"NoteNumber":46,"Velocity":59,"Duration":159546,"SoundDuration":159546,"Delta":8577199},{"NoteNumber":80,"Velocity":48,"Duration":92173,"SoundDuration":92173,"Delta":8657740},{"NoteNumber":78,"Velocity":49,"Duration":92173,"SoundDuration":92173,"Delta":8736746},{"NoteNumber":63,"Velocity":35,"Duration":79005,"SoundDuration":79005,"Delta":8736746},{"NoteNumber":54,"Velocity":29,"Duration":79005,"SoundDuration":79005,"Delta":8736746},{"NoteNumber":51,"Velocity":29,"Duration":79005,"SoundDuration":79005,"Delta":8736746},{"NoteNumber":77,"Velocity":49,"Duration":91972,"SoundDuration":91972,"Delta":8815751},{"NoteNumber":75,"Velocity":50,"Duration":91892,"SoundDuration":91892,"Delta":8894596},{"NoteNumber":73,"Velocity":51,"Duration":91964,"SoundDuration":91964,"Delta":8973361},{"NoteNumber":72,"Velocity":51,"Duration":92956,"SoundDuration":92956,"Delta":9052047},{"NoteNumber":34,"Velocity":39,"Duration":159354,"SoundDuration":159354,"Delta":9052047},{"NoteNumber":75,"Velocity":51,"Duration":93052,"SoundDuration":93052,"Delta":9131724},{"NoteNumber":78,"Velocity":51,"Duration":93627,"SoundDuration":93627,"Delta":9211401},{"NoteNumber":46,"Velocity":56,"Duration":160505,"SoundDuration":160505,"Delta":9211401},{"NoteNumber":74,"Velocity":48,"Duration":93299,"SoundDuration":93299,"Delta":9291653},{"NoteNumber":77,"Velocity":51,"Duration":91331,"SoundDuration":91331,"Delta":9371906},{"NoteNumber":63,"Velocity":31,"Duration":78284,"SoundDuration":78284,"Delta":9371906},{"NoteNumber":54,"Velocity":26,"Duration":78284,"SoundDuration":78284,"Delta":9371906},{"NoteNumber":51,"Velocity":26,"Duration":78284,"SoundDuration":78284,"Delta":9371906},{"NoteNumber":75,"Velocity":45,"Duration":91703,"SoundDuration":91703,"Delta":9450190},{"NoteNumber":72,"Velocity":45,"Duration":93934,"SoundDuration":93934,"Delta":9528474},{"NoteNumber":66,"Velocity":43,"Duration":93890,"SoundDuration":93890,"Delta":9608989},{"NoteNumber":71,"Velocity":44,"Duration":93627,"SoundDuration":93627,"Delta":9689504},{"NoteNumber":34,"Velocity":37,"Duration":160505,"SoundDuration":160505,"Delta":9689504},{"NoteNumber":72,"Velocity":45,"Duration":93587,"SoundDuration":93587,"Delta":9769757},{"NoteNumber":73,"Velocity":45,"Duration":93343,"SoundDuration":93343,"Delta":9850009},{"NoteNumber":46,"Velocity":51,"Duration":160016,"SoundDuration":160016,"Delta":9850009},{"NoteNumber":72,"Velocity":46,"Duration":93301,"SoundDuration":93301,"Delta":9930018},{"NoteNumber":74,"Velocity":48,"Duration":93050,"SoundDuration":93050,"Delta":10010026},{"NoteNumber":63,"Velocity":29,"Duration":79757,"SoundDuration":79757,"Delta":10010026},{"NoteNumber":54,"Velocity":24,"Duration":79757,"SoundDuration":79757,"Delta":10010026},{"NoteNumber":51,"Velocity":24,"Duration":79757,"SoundDuration":79757,"Delta":10010026},{"NoteNumber":75,"Velocity":48,"Duration":92925,"SoundDuration":92925,"Delta":10089784},{"NoteNumber":77,"Velocity":48,"Duration":92759,"SoundDuration":92759,"Delta":10169458},{"NoteNumber":75,"Velocity":50,"Duration":92474,"SoundDuration":92474,"Delta":10248966},{"NoteNumber":76,"Velocity":51,"Duration":91331,"SoundDuration":91331,"Delta":10328393},{"NoteNumber":34,"Velocity":43,"Duration":156808,"SoundDuration":156808,"Delta":10328393},{"NoteNumber":77,"Velocity":51,"Duration":78524,"SoundDuration":78524,"Delta":10406677},{"NoteNumber":80,"Velocity":52,"Duration":93934,"SoundDuration":93934,"Delta":10485201},{"NoteNumber":46,"Velocity":59,"Duration":160447,"SoundDuration":160447,"Delta":10485201},{"NoteNumber":78,"Velocity":53,"Duration":93019,"SoundDuration":93019,"Delta":10565716},{"NoteNumber":81,"Velocity":55,"Duration":91613,"SoundDuration":91613,"Delta":10645648},{"NoteNumber":63,"Velocity":33,"Duration":78525,"SoundDuration":78525,"Delta":10645648},{"NoteNumber":54,"Velocity":28,"Duration":78525,"SoundDuration":78525,"Delta":10645648},{"NoteNumber":51,"Velocity":28,"Duration":78525,"SoundDuration":78525,"Delta":10645648},{"NoteNumber":82,"Velocity":56,"Duration":91613,"SoundDuration":91613,"Delta":10724174},{"NoteNumber":85,"Velocity":56,"Duration":91613,"SoundDuration":91613,"Delta":10802700},{"NoteNumber":84,"Velocity":58,"Duration":91411,"SoundDuration":91411,"Delta":10881226},{"NoteNumber":85,"Velocity":59,"Duration":91331,"SoundDuration":91331,"Delta":10959590},{"NoteNumber":34,"Velocity":56,"Duration":156410,"SoundDuration":156410,"Delta":10959590},{"NoteNumber":86,"Velocity":60,"Duration":91697,"SoundDuration":91697,"Delta":11037874},{"NoteNumber":89,"Velocity":61,"Duration":95000,"SoundDuration":95000,"Delta":11116001},{"NoteNumber":46,"Velocity":68,"Duration":161417,"SoundDuration":161417,"Delta":11116001},{"NoteNumber":87,"Velocity":62,"Duration":93165,"SoundDuration":93165,"Delta":11197429},{"NoteNumber":88,"Velocity":62,"Duration":92095,"SoundDuration":92095,"Delta":11277418},{"NoteNumber":63,"Velocity":36,"Duration":78989,"SoundDuration":78989,"Delta":11277418},{"NoteNumber":54,"Velocity":29,"Duration":78989,"SoundDuration":78989,"Delta":11277418},{"NoteNumber":51,"Velocity":29,"Duration":78989,"SoundDuration":78989,"Delta":11277418},{"NoteNumber":89,"Velocity":63,"Duration":91611,"SoundDuration":91611,"Delta":11356407},{"NoteNumber":93,"Velocity":64,"Duration":91339,"SoundDuration":91339,"Delta":11434980},{"NoteNumber":94,"Velocity":65,"Duration":93343,"SoundDuration":93343,"Delta":11513142},{"NoteNumber":92,"Velocity":67,"Duration":99659,"SoundDuration":99659,"Delta":11592765},{"NoteNumber":46,"Velocity":59,"Duration":177283,"SoundDuration":177283,"Delta":11592765},{"NoteNumber":91,"Velocity":68,"Duration":105708,"SoundDuration":105708,"Delta":11677467},{"NoteNumber":90,"Velocity":67,"Duration":91892,"SoundDuration":91892,"Delta":11770048},{"NoteNumber":45,"Velocity":73,"Duration":157529,"SoundDuration":157529,"Delta":11770048},{"NoteNumber":101,"Velocity":66,"Duration":91575,"SoundDuration":91575,"Delta":11848813},{"NoteNumber":99,"Velocity":66,"Duration":89753,"SoundDuration":89753,"Delta":11927578},{"NoteNumber":63,"Velocity":43,"Duration":76864,"SoundDuration":76864,"Delta":11927578},{"NoteNumber":54,"Velocity":36,"Duration":76864,"SoundDuration":76864,"Delta":11927578},{"NoteNumber":87,"Velocity":65,"Duration":90224,"SoundDuration":90224,"Delta":12004442},{"NoteNumber":97,"Velocity":63,"Duration":90224,"SoundDuration":90224,"Delta":12081778},{"NoteNumber":96,"Velocity":62,"Duration":90263,"SoundDuration":90263,"Delta":12159113},{"NoteNumber":84,"Velocity":62,"Duration":90495,"SoundDuration":90495,"Delta":12236449},{"NoteNumber":33,"Velocity":46,"Duration":155134,"SoundDuration":155134,"Delta":12236449},{"NoteNumber":94,"Velocity":61,"Duration":90902,"SoundDuration":90902,"Delta":12314016},{"NoteNumber":93,"Velocity":60,"Duration":93343,"SoundDuration":93343,"Delta":12391584},{"NoteNumber":45,"Velocity":60,"Duration":160016,"SoundDuration":160016,"Delta":12391584},{"NoteNumber":81,"Velocity":59,"Duration":92975,"SoundDuration":92975,"Delta":12471592},{"NoteNumber":92,"Velocity":57,"Duration":90772,"SoundDuration":90772,"Delta":12551601},{"NoteNumber":63,"Velocity":37,"Duration":77804,"SoundDuration":77804,"Delta":12551601},{"NoteNumber":54,"Velocity":31,"Duration":77804,"SoundDuration":77804,"Delta":12551601},{"NoteNumber":90,"Velocity":57,"Duration":90812,"SoundDuration":90812,"Delta":12629405},{"NoteNumber":78,"Velocity":56,"Duration":91055,"SoundDuration":91055,"Delta":12707210},{"NoteNumber":89,"Velocity":56,"Duration":91055,"SoundDuration":91055,"Delta":12785258},{"NoteNumber":87,"Velocity":55,"Duration":91095,"SoundDuration":91095,"Delta":12863306},{"NoteNumber":44,"Velocity":40,"Duration":156331,"SoundDuration":156331,"Delta":12863306},{"NoteNumber":78,"Velocity":54,"Duration":91331,"SoundDuration":91331,"Delta":12941353},{"NoteNumber":77,"Velocity":54,"Duration":91331,"SoundDuration":91331,"Delta":13019637},{"NoteNumber":46,"Velocity":55,"Duration":156648,"SoundDuration":156648,"Delta":13019637},{"NoteNumber":87,"Velocity":52,"Duration":91452,"SoundDuration":91452,"Delta":13097921},{"NoteNumber":85,"Velocity":51,"Duration":91613,"SoundDuration":91613,"Delta":13176286},{"NoteNumber":61,"Velocity":34,"Duration":78525,"SoundDuration":78525,"Delta":13176286},{"NoteNumber":53,"Velocity":28,"Duration":78525,"SoundDuration":78525,"Delta":13176286},{"NoteNumber":77,"Velocity":51,"Duration":91613,"SoundDuration":91613,"Delta":13254812},{"NoteNumber":85,"Velocity":50,"Duration":91733,"SoundDuration":91733,"Delta":13333338},{"NoteNumber":84,"Velocity":50,"Duration":91892,"SoundDuration":91892,"Delta":13411943},{"NoteNumber":75,"Velocity":49,"Duration":91892,"SoundDuration":91892,"Delta":13490708},{"NoteNumber":46,"Velocity":39,"Duration":157610,"SoundDuration":157610,"Delta":13490708},{"NoteNumber":84,"Velocity":47,"Duration":92012,"SoundDuration":92012,"Delta":13569473},{"NoteNumber":73,"Velocity":46,"Duration":92173,"SoundDuration":92173,"Delta":13648318},{"NoteNumber":49,"Velocity":49,"Duration":158011,"SoundDuration":158011,"Delta":13648318},{"NoteNumber":82,"Velocity":46,"Duration":92173,"SoundDuration":92173,"Delta":13727324},{"NoteNumber":80,"Velocity":45,"Duration":92302,"SoundDuration":92302,"Delta":13806329},{"NoteNumber":65,"Velocity":29,"Duration":79091,"SoundDuration":79091,"Delta":13806329},{"NoteNumber":58,"Velocity":25,"Duration":79091,"SoundDuration":79091,"Delta":13806329},{"NoteNumber":53,"Velocity":25,"Duration":79091,"SoundDuration":79091,"Delta":13806329},{"NoteNumber":72,"Velocity":45,"Duration":92475,"SoundDuration":92475,"Delta":13885421},{"NoteNumber":80,"Velocity":44,"Duration":92475,"SoundDuration":92475,"Delta":13964686},{"NoteNumber":78,"Velocity":42,"Duration":92597,"SoundDuration":92597,"Delta":14043950},{"NoteNumber":70,"Velocity":42,"Duration":92759,"SoundDuration":92759,"Delta":14123296},{"NoteNumber":49,"Velocity":33,"Duration":159015,"SoundDuration":159015,"Delta":14123296},{"NoteNumber":78,"Velocity":42,"Duration":79508,"SoundDuration":79508,"Delta":14202804},{"NoteNumber":69,"Velocity":40,"Duration":92759,"SoundDuration":92759,"Delta":14282312},{"NoteNumber":51,"Velocity":41,"Duration":158853,"SoundDuration":158853,"Delta":14282312},{"NoteNumber":70,"Velocity":42,"Duration":92556,"SoundDuration":92556,"Delta":14361820},{"NoteNumber":72,"Velocity":42,"Duration":92345,"SoundDuration":92345,"Delta":14441165},{"NoteNumber":66,"Velocity":25,"Duration":79178,"SoundDuration":79178,"Delta":14441165},{"NoteNumber":57,"Velocity":20,"Duration":79178,"SoundDuration":79178,"Delta":14441165},{"NoteNumber":73,"Velocity":44,"Duration":92133,"SoundDuration":92133,"Delta":14520344},{"NoteNumber":75,"Velocity":45,"Duration":91852,"SoundDuration":91852,"Delta":14599349},{"NoteNumber":76,"Velocity":46,"Duration":91613,"SoundDuration":91613,"Delta":14678114},{"NoteNumber":77,"Velocity":47,"Duration":91411,"SoundDuration":91411,"Delta":14756640},{"NoteNumber":51,"Velocity":35,"Duration":156569,"SoundDuration":156569,"Delta":14756640},{"NoteNumber":78,"Velocity":48,"Duration":91416,"SoundDuration":91416,"Delta":14835004},{"NoteNumber":76,"Velocity":51,"Duration":92475,"SoundDuration":92475,"Delta":14913210},{"NoteNumber":49,"Velocity":49,"Duration":158528,"SoundDuration":158528,"Delta":14913210},{"NoteNumber":77,"Velocity":49,"Duration":92272,"SoundDuration":92272,"Delta":14992474},{"NoteNumber":74,"Velocity":47,"Duration":91095,"SoundDuration":91095,"Delta":15071739},{"NoteNumber":65,"Velocity":28,"Duration":78047,"SoundDuration":78047,"Delta":15071739},{"NoteNumber":58,"Velocity":18,"Duration":78047,"SoundDuration":78047,"Delta":15071739},{"NoteNumber":53,"Velocity":18,"Duration":78047,"SoundDuration":78047,"Delta":15071739},{"NoteNumber":75,"Velocity":46,"Duration":91371,"SoundDuration":91371,"Delta":15149786},{"NoteNumber":72,"Velocity":45,"Duration":91613,"SoundDuration":91613,"Delta":15228070},{"NoteNumber":73,"Velocity":44,"Duration":91812,"SoundDuration":91812,"Delta":15306596},{"NoteNumber":72,"Velocity":43,"Duration":92092,"SoundDuration":92092,"Delta":15385281},{"NoteNumber":49,"Velocity":40,"Duration":158017,"SoundDuration":158017,"Delta":15385281},{"NoteNumber":70,"Velocity":41,"Duration":79091,"SoundDuration":79091,"Delta":15464207},{"NoteNumber":69,"Velocity":39,"Duration":92173,"SoundDuration":92173,"Delta":15543299},{"NoteNumber":51,"Velocity":50,"Duration":157850,"SoundDuration":157850,"Delta":15543299},{"NoteNumber":70,"Velocity":41,"Duration":91972,"SoundDuration":91972,"Delta":15622304},{"NoteNumber":72,"Velocity":42,"Duration":91852,"SoundDuration":91852,"Delta":15701149},{"NoteNumber":66,"Velocity":27,"Duration":78764,"SoundDuration":78764,"Delta":15701149},{"NoteNumber":57,"Velocity":22,"Duration":78764,"SoundDuration":78764,"Delta":15701149},{"NoteNumber":73,"Velocity":44,"Duration":91613,"SoundDuration":91613,"Delta":15779914},{"NoteNumber":75,"Velocity":45,"Duration":91492,"SoundDuration":91492,"Delta":15858440},{"NoteNumber":76,"Velocity":47,"Duration":91331,"SoundDuration":91331,"Delta":15936885},{"NoteNumber":77,"Velocity":49,"Duration":91134,"SoundDuration":91134,"Delta":16015169},{"NoteNumber":51,"Velocity":36,"Duration":156093,"SoundDuration":156093,"Delta":16015169},{"NoteNumber":78,"Velocity":50,"Duration":91301,"SoundDuration":91301,"Delta":16093296},{"NoteNumber":76,"Velocity":51,"Duration":93343,"SoundDuration":93343,"Delta":16171262},{"NoteNumber":49,"Velocity":51,"Duration":158709,"SoundDuration":158709,"Delta":16171262},{"NoteNumber":77,"Velocity":50,"Duration":91709,"SoundDuration":91709,"Delta":16251271},{"NoteNumber":74,"Velocity":48,"Duration":91173,"SoundDuration":91173,"Delta":16329972},{"NoteNumber":65,"Velocity":29,"Duration":78126,"SoundDuration":78126,"Delta":16329972},{"NoteNumber":58,"Velocity":24,"Duration":78126,"SoundDuration":78126,"Delta":16329972},{"NoteNumber":53,"Velocity":24,"Duration":78126,"SoundDuration":78126,"Delta":16329972},{"NoteNumber":75,"Velocity":48,"Duration":91331,"SoundDuration":91331,"Delta":16408099},{"NoteNumber":72,"Velocity":46,"Duration":91532,"SoundDuration":91532,"Delta":16486383},{"NoteNumber":73,"Velocity":45,"Duration":91732,"SoundDuration":91732,"Delta":16564828},{"NoteNumber":72,"Velocity":45,"Duration":91932,"SoundDuration":91932,"Delta":16643433},{"NoteNumber":49,"Velocity":36,"Duration":157289,"SoundDuration":157289,"Delta":16643433},{"NoteNumber":70,"Velocity":43,"Duration":78524,"SoundDuration":78524,"Delta":16722198},{"NoteNumber":71,"Velocity":41,"Duration":91186,"SoundDuration":91186,"Delta":16800723},{"NoteNumber":53,"Velocity":42,"Duration":156168,"SoundDuration":156168,"Delta":16800723},{"NoteNumber":72,"Velocity":42,"Duration":90939,"SoundDuration":90939,"Delta":16878913},{"NoteNumber":74,"Velocity":44,"Duration":90620,"SoundDuration":90620,"Delta":16956892},{"NoteNumber":68,"Velocity":28,"Duration":77694,"SoundDuration":77694,"Delta":16956892},{"NoteNumber":59,"Velocity":23,"Duration":77694,"SoundDuration":77694,"Delta":16956892},{"NoteNumber":75,"Velocity":45,"Duration":90375,"SoundDuration":90375,"Delta":17034587},{"NoteNumber":76,"Velocity":48,"Duration":90061,"SoundDuration":90061,"Delta":17112072},{"NoteNumber":77,"Velocity":50,"Duration":89784,"SoundDuration":89784,"Delta":17189277},{"NoteNumber":79,"Velocity":51,"Duration":89475,"SoundDuration":89475,"Delta":17266274},{"NoteNumber":53,"Velocity":39,"Duration":153168,"SoundDuration":153168,"Delta":17266274},{"NoteNumber":80,"Velocity":53,"Duration":89533,"SoundDuration":89533,"Delta":17342997},{"NoteNumber":78,"Velocity":54,"Duration":91613,"SoundDuration":91613,"Delta":17419443},{"NoteNumber":51,"Velocity":54,"Duration":156312,"SoundDuration":156312,"Delta":17419443},{"NoteNumber":79,"Velocity":52,"Duration":90504,"SoundDuration":90504,"Delta":17497969},{"NoteNumber":76,"Velocity":51,"Duration":89130,"SoundDuration":89130,"Delta":17575755},{"NoteNumber":67,"Velocity":32,"Duration":76377,"SoundDuration":76377,"Delta":17575755},{"NoteNumber":60,"Velocity":26,"Duration":76377,"SoundDuration":76377,"Delta":17575755},{"NoteNumber":55,"Velocity":26,"Duration":76377,"SoundDuration":76377,"Delta":17575755},{"NoteNumber":77,"Velocity":48,"Duration":89371,"SoundDuration":89371,"Delta":17652133},{"NoteNumber":74,"Velocity":48,"Duration":89611,"SoundDuration":89611,"Delta":17728717},{"NoteNumber":75,"Velocity":48,"Duration":89853,"SoundDuration":89853,"Delta":17805508},{"NoteNumber":74,"Velocity":46,"Duration":90096,"SoundDuration":90096,"Delta":17882505},{"NoteNumber":51,"Velocity":35,"Duration":154619,"SoundDuration":154619,"Delta":17882505},{"NoteNumber":72,"Velocity":45,"Duration":77414,"SoundDuration":77414,"Delta":17959710},{"NoteNumber":71,"Velocity":43,"Duration":90446,"SoundDuration":90446,"Delta":18037124},{"NoteNumber":53,"Velocity":42,"Duration":154899,"SoundDuration":154899,"Delta":18037124},{"NoteNumber":72,"Velocity":44,"Duration":90199,"SoundDuration":90199,"Delta":18114680},{"NoteNumber":74,"Velocity":45,"Duration":89992,"SoundDuration":89992,"Delta":18192023},{"NoteNumber":68,"Velocity":28,"Duration":77136,"SoundDuration":77136,"Delta":18192023},{"NoteNumber":59,"Velocity":23,"Duration":77136,"SoundDuration":77136,"Delta":18192023},{"NoteNumber":75,"Velocity":47,"Duration":89818,"SoundDuration":89818,"Delta":18269160},{"NoteNumber":76,"Velocity":49,"Duration":89577,"SoundDuration":89577,"Delta":18346157},{"NoteNumber":77,"Velocity":51,"Duration":89405,"SoundDuration":89405,"Delta":18422948},{"NoteNumber":79,"Velocity":53,"Duration":89164,"SoundDuration":89164,"Delta":18499601},{"NoteNumber":53,"Velocity":38,"Duration":152687,"SoundDuration":152687,"Delta":18499601},{"NoteNumber":80,"Velocity":54,"Duration":89249,"SoundDuration":89249,"Delta":18576047},{"NoteNumber":78,"Velocity":57,"Duration":91055,"SoundDuration":91055,"Delta":18652289},{"NoteNumber":51,"Velocity":52,"Duration":155448,"SoundDuration":155448,"Delta":18652289},{"NoteNumber":79,"Velocity":56,"Duration":90085,"SoundDuration":90085,"Delta":18730337},{"NoteNumber":76,"Velocity":54,"Duration":88791,"SoundDuration":88791,"Delta":18807738},{"NoteNumber":67,"Velocity":32,"Duration":76107,"SoundDuration":76107,"Delta":18807738},{"NoteNumber":60,"Velocity":26,"Duration":76107,"SoundDuration":76107,"Delta":18807738},{"NoteNumber":55,"Velocity":26,"Duration":76107,"SoundDuration":76107,"Delta":18807738},{"NoteNumber":77,"Velocity":51,"Duration":88825,"SoundDuration":88825,"Delta":18883845},{"NoteNumber":74,"Velocity":51,"Duration":89130,"SoundDuration":89130,"Delta":18959952},{"NoteNumber":75,"Velocity":51,"Duration":89267,"SoundDuration":89267,"Delta":19036330},{"NoteNumber":74,"Velocity":49,"Duration":89267,"SoundDuration":89267,"Delta":19112845},{"NoteNumber":51,"Velocity":45,"Duration":152961,"SoundDuration":152961,"Delta":19112845},{"NoteNumber":72,"Velocity":48,"Duration":76446,"SoundDuration":76446,"Delta":19189360},{"NoteNumber":73,"Velocity":46,"Duration":90224,"SoundDuration":90224,"Delta":19265806},{"NoteNumber":53,"Velocity":55,"Duration":154671,"SoundDuration":154671,"Delta":19265806},{"NoteNumber":75,"Velocity":45,"Duration":90224,"SoundDuration":90224,"Delta":19343141},{"NoteNumber":77,"Velocity":47,"Duration":90106,"SoundDuration":90106,"Delta":19420477},{"NoteNumber":68,"Velocity":28,"Duration":77335,"SoundDuration":77335,"Delta":19420477},{"NoteNumber":61,"Velocity":23,"Duration":77335,"SoundDuration":77335,"Delta":19420477},{"NoteNumber":56,"Velocity":23,"Duration":77335,"SoundDuration":77335,"Delta":19420477},{"NoteNumber":78,"Velocity":49,"Duration":89278,"SoundDuration":89278,"Delta":19497812},{"NoteNumber":80,"Velocity":50,"Duration":88553,"SoundDuration":88553,"Delta":19574441},{"NoteNumber":82,"Velocity":51,"Duration":88355,"SoundDuration":88355,"Delta":19650344},{"NoteNumber":83,"Velocity":53,"Duration":87164,"SoundDuration":87164,"Delta":19726247},{"NoteNumber":53,"Velocity":40,"Duration":149424,"SoundDuration":149424,"Delta":19726247},{"NoteNumber":84,"Velocity":55,"Duration":87720,"SoundDuration":87720,"Delta":19800959},{"NoteNumber":85,"Velocity":56,"Duration":91055,"SoundDuration":91055,"Delta":19875672},{"NoteNumber":54,"Velocity":55,"Duration":155622,"SoundDuration":155622,"Delta":19875672},{"NoteNumber":86,"Velocity":57,"Duration":90158,"SoundDuration":90158,"Delta":19953719},{"NoteNumber":89,"Velocity":58,"Duration":88186,"SoundDuration":88186,"Delta":20031294},{"NoteNumber":69,"Velocity":34,"Duration":75569,"SoundDuration":75569,"Delta":20031294},{"NoteNumber":60,"Velocity":28,"Duration":75569,"SoundDuration":75569,"Delta":20031294},{"NoteNumber":57,"Velocity":28,"Duration":75569,"SoundDuration":75569,"Delta":20031294},{"NoteNumber":87,"Velocity":56,"Duration":88589,"SoundDuration":88589,"Delta":20106863},{"NoteNumber":84,"Velocity":56,"Duration":88994,"SoundDuration":88994,"Delta":20182768},{"NoteNumber":81,"Velocity":54,"Duration":89474,"SoundDuration":89474,"Delta":20259010},{"NoteNumber":78,"Velocity":53,"Duration":89887,"SoundDuration":89887,"Delta":20335663},{"NoteNumber":54,"Velocity":39,"Duration":154575,"SoundDuration":154575,"Delta":20335663},{"NoteNumber":75,"Velocity":51,"Duration":77578,"SoundDuration":77578,"Delta":20412660},{"NoteNumber":73,"Velocity":48,"Duration":90939,"SoundDuration":90939,"Delta":20490238},{"NoteNumber":53,"Velocity":51,"Duration":155743,"SoundDuration":155743,"Delta":20490238},{"NoteNumber":75,"Velocity":51,"Duration":90690,"SoundDuration":90690,"Delta":20568217},{"NoteNumber":77,"Velocity":51,"Duration":90375,"SoundDuration":90375,"Delta":20645981},{"NoteNumber":68,"Velocity":30,"Duration":77484,"SoundDuration":77484,"Delta":20645981},{"NoteNumber":61,"Velocity":27,"Duration":77484,"SoundDuration":77484,"Delta":20645981},{"NoteNumber":56,"Velocity":27,"Duration":77484,"SoundDuration":77484,"Delta":20645981},{"NoteNumber":78,"Velocity":53,"Duration":90130,"SoundDuration":90130,"Delta":20723466},{"NoteNumber":80,"Velocity":55,"Duration":89818,"SoundDuration":89818,"Delta":20800741},{"NoteNumber":82,"Velocity":56,"Duration":89543,"SoundDuration":89543,"Delta":20877738},{"NoteNumber":83,"Velocity":58,"Duration":89233,"SoundDuration":89233,"Delta":20954528},{"NoteNumber":53,"Velocity":45,"Duration":152756,"SoundDuration":152756,"Delta":20954528},{"NoteNumber":84,"Velocity":58,"Duration":89052,"SoundDuration":89052,"Delta":21031043},{"NoteNumber":85,"Velocity":60,"Duration":91059,"SoundDuration":91059,"Delta":21107285},{"NoteNumber":52,"Velocity":59,"Duration":156497,"SoundDuration":156497,"Delta":21107285},{"NoteNumber":84,"Velocity":62,"Duration":91243,"SoundDuration":91243,"Delta":21185257},{"NoteNumber":87,"Velocity":63,"Duration":89130,"SoundDuration":89130,"Delta":21263783},{"NoteNumber":67,"Velocity":34,"Duration":76377,"SoundDuration":76377,"Delta":21263783},{"NoteNumber":61,"Velocity":29,"Duration":76377,"SoundDuration":76377,"Delta":21263783},{"NoteNumber":58,"Velocity":29,"Duration":76377,"SoundDuration":76377,"Delta":21263783},{"NoteNumber":85,"Velocity":60,"Duration":89542,"SoundDuration":89542,"Delta":21340160},{"NoteNumber":82,"Velocity":58,"Duration":90026,"SoundDuration":90026,"Delta":21416882},{"NoteNumber":79,"Velocity":56,"Duration":90445,"SoundDuration":90445,"Delta":21494017},{"NoteNumber":76,"Velocity":55,"Duration":90939,"SoundDuration":90939,"Delta":21571502},{"NoteNumber":52,"Velocity":49,"Duration":156441,"SoundDuration":156441,"Delta":21571502},{"NoteNumber":73,"Velocity":52,"Duration":78534,"SoundDuration":78534,"Delta":21649410},{"NoteNumber":72,"Velocity":56,"Duration":91773,"SoundDuration":91773,"Delta":21727944},{"NoteNumber":51,"Velocity":64,"Duration":157130,"SoundDuration":157130,"Delta":21727944},{"NoteNumber":73,"Velocity":56,"Duration":91492,"SoundDuration":91492,"Delta":21806629},{"NoteNumber":74,"Velocity":57,"Duration":91213,"SoundDuration":91213,"Delta":21885075},{"NoteNumber":60,"Velocity":30,"Duration":78205,"SoundDuration":78205,"Delta":21885075},{"NoteNumber":66,"Velocity":37,"Duration":78205,"SoundDuration":78205,"Delta":21885075},{"NoteNumber":57,"Velocity":30,"Duration":78205,"SoundDuration":78205,"Delta":21885075},{"NoteNumber":75,"Velocity":59,"Duration":90934,"SoundDuration":90934,"Delta":21963280},{"NoteNumber":76,"Velocity":60,"Duration":90732,"SoundDuration":90732,"Delta":22041247},{"NoteNumber":77,"Velocity":61,"Duration":90456,"SoundDuration":90456,"Delta":22119051},{"NoteNumber":78,"Velocity":61,"Duration":90185,"SoundDuration":90185,"Delta":22196619},{"NoteNumber":51,"Velocity":55,"Duration":154432,"SoundDuration":154432,"Delta":22196619},{"NoteNumber":79,"Velocity":62,"Duration":89907,"SoundDuration":89907,"Delta":22273954},{"NoteNumber":80,"Velocity":62,"Duration":89713,"SoundDuration":89713,"Delta":22351051},{"NoteNumber":49,"Velocity":66,"Duration":153960,"SoundDuration":153960,"Delta":22351051},{"NoteNumber":81,"Velocity":62,"Duration":89986,"SoundDuration":89986,"Delta":22427915},{"NoteNumber":84,"Velocity":61,"Duration":90340,"SoundDuration":90340,"Delta":22505012},{"NoteNumber":65,"Velocity":37,"Duration":77412,"SoundDuration":77412,"Delta":22505012},{"NoteNumber":58,"Velocity":30,"Duration":77412,"SoundDuration":77412,"Delta":22505012},{"NoteNumber":53,"Velocity":30,"Duration":77412,"SoundDuration":77412,"Delta":22505012},{"NoteNumber":82,"Velocity":61,"Duration":90614,"SoundDuration":90614,"Delta":22582425},{"NoteNumber":78,"Velocity":59,"Duration":90974,"SoundDuration":90974,"Delta":22660072},{"NoteNumber":77,"Velocity":58,"Duration":91292,"SoundDuration":91292,"Delta":22738038},{"NoteNumber":75,"Velocity":57,"Duration":91653,"SoundDuration":91653,"Delta":22816244},{"NoteNumber":73,"Velocity":56,"Duration":78845,"SoundDuration":78845,"Delta":22894769},{"NoteNumber":72,"Velocity":66,"Duration":94217,"SoundDuration":94217,"Delta":22973615},{"NoteNumber":41,"Velocity":91,"Duration":161515,"SoundDuration":161515,"Delta":22973615},{"NoteNumber":70,"Velocity":65,"Duration":94217,"SoundDuration":94217,"Delta":23054373},{"NoteNumber":69,"Velocity":65,"Duration":94217,"SoundDuration":94217,"Delta":23135131},{"NoteNumber":72,"Velocity":65,"Duration":94217,"SoundDuration":94217,"Delta":23215889},{"NoteNumber":48,"Velocity":68,"Duration":383600,"SoundDuration":383600,"Delta":23236078},{"NoteNumber":53,"Velocity":68,"Duration":363410,"SoundDuration":363410,"Delta":23256268},{"NoteNumber":57,"Velocity":68,"Duration":343221,"SoundDuration":343221,"Delta":23276457},{"NoteNumber":66,"Velocity":64,"Duration":94217,"SoundDuration":94217,"Delta":23296647},{"NoteNumber":63,"Velocity":81,"Duration":323031,"SoundDuration":323031,"Delta":23296647},{"NoteNumber":65,"Velocity":65,"Duration":94217,"SoundDuration":94217,"Delta":23377405},{"NoteNumber":64,"Velocity":67,"Duration":94217,"SoundDuration":94217,"Delta":23458163},{"NoteNumber":65,"Velocity":69,"Duration":94001,"SoundDuration":94001,"Delta":23538921},{"NoteNumber":66,"Velocity":70,"Duration":92741,"SoundDuration":92741,"Delta":23619679},{"NoteNumber":65,"Velocity":68,"Duration":93062,"SoundDuration":93062,"Delta":23699140},{"NoteNumber":70,"Velocity":72,"Duration":93385,"SoundDuration":93385,"Delta":23778888},{"NoteNumber":69,"Velocity":71,"Duration":93903,"SoundDuration":93903,"Delta":23858922},{"NoteNumber":73,"Velocity":74,"Duration":99913,"SoundDuration":99913,"Delta":23939105},{"NoteNumber":72,"Velocity":71,"Duration":110015,"SoundDuration":110015,"Delta":24023971},{"NoteNumber":80,"Velocity":74,"Duration":122270,"SoundDuration":122270,"Delta":24117329},{"NoteNumber":78,"Velocity":75,"Duration":101832,"SoundDuration":101832,"Delta":24220945},{"NoteNumber":77,"Velocity":77,"Duration":96365,"SoundDuration":96365,"Delta":24322778},{"NoteNumber":34,"Velocity":77,"Duration":165198,"SoundDuration":165198,"Delta":24322778},{"NoteNumber":46,"Velocity":96,"Duration":165198,"SoundDuration":165198,"Delta":24322778},{"NoteNumber":72,"Velocity":77,"Duration":95891,"SoundDuration":95891,"Delta":24405377},{"NoteNumber":75,"Velocity":78,"Duration":93050,"SoundDuration":93050,"Delta":24487976},{"NoteNumber":49,"Velocity":43,"Duration":79757,"SoundDuration":79757,"Delta":24487976},{"NoteNumber":61,"Velocity":62,"Duration":79757,"SoundDuration":79757,"Delta":24487976},{"NoteNumber":53,"Velocity":51,"Duration":79757,"SoundDuration":79757,"Delta":24487976},{"NoteNumber":73,"Velocity":79,"Duration":92925,"SoundDuration":92925,"Delta":24567733},{"NoteNumber":65,"Velocity":79,"Duration":92759,"SoundDuration":92759,"Delta":24647408},{"NoteNumber":69,"Velocity":80,"Duration":92931,"SoundDuration":92931,"Delta":24726916},{"NoteNumber":70,"Velocity":81,"Duration":93964,"SoundDuration":93964,"Delta":24806424},{"NoteNumber":29,"Velocity":60,"Duration":161082,"SoundDuration":161082,"Delta":24806424},{"NoteNumber":41,"Velocity":79,"Duration":161082,"SoundDuration":161082,"Delta":24806424},{"NoteNumber":72,"Velocity":81,"Duration":94002,"SoundDuration":94002,"Delta":24886965},{"NoteNumber":73,"Velocity":82,"Duration":94227,"SoundDuration":94227,"Delta":24967506},{"NoteNumber":34,"Velocity":78,"Duration":161533,"SoundDuration":161533,"Delta":24967506},{"NoteNumber":46,"Velocity":98,"Duration":161533,"SoundDuration":161533,"Delta":24967506},{"NoteNumber":75,"Velocity":83,"Duration":93894,"SoundDuration":93894,"Delta":25048273},{"NoteNumber":77,"Velocity":84,"Duration":91892,"SoundDuration":91892,"Delta":25129040},{"NoteNumber":49,"Velocity":42,"Duration":78765,"SoundDuration":78765,"Delta":25129040},{"NoteNumber":61,"Velocity":62,"Duration":78765,"SoundDuration":78765,"Delta":25129040},{"NoteNumber":53,"Velocity":50,"Duration":78765,"SoundDuration":78765,"Delta":25129040},{"NoteNumber":79,"Velocity":84,"Duration":91852,"SoundDuration":91852,"Delta":25207805},{"NoteNumber":81,"Velocity":85,"Duration":91613,"SoundDuration":91613,"Delta":25286570},{"NoteNumber":82,"Velocity":86,"Duration":91769,"SoundDuration":91769,"Delta":25365096},{"NoteNumber":84,"Velocity":86,"Duration":92705,"SoundDuration":92705,"Delta":25443621},{"NoteNumber":29,"Velocity":61,"Duration":158923,"SoundDuration":158923,"Delta":25443621},{"NoteNumber":41,"Velocity":77,"Duration":158923,"SoundDuration":158923,"Delta":25443621},{"NoteNumber":85,"Velocity":87,"Duration":92713,"SoundDuration":92713,"Delta":25523083},{"NoteNumber":87,"Velocity":88,"Duration":92759,"SoundDuration":92759,"Delta":25602545},{"NoteNumber":34,"Velocity":73,"Duration":159016,"SoundDuration":159016,"Delta":25602545},{"NoteNumber":46,"Velocity":93,"Duration":159016,"SoundDuration":159016,"Delta":25602545},{"NoteNumber":89,"Velocity":89,"Duration":92475,"SoundDuration":92475,"Delta":25682053},{"NoteNumber":91,"Velocity":89,"Duration":90772,"SoundDuration":90772,"Delta":25761561},{"NoteNumber":49,"Velocity":44,"Duration":77804,"SoundDuration":77804,"Delta":25761561},{"NoteNumber":61,"Velocity":63,"Duration":77804,"SoundDuration":77804,"Delta":25761561},{"NoteNumber":53,"Velocity":52,"Duration":77804,"SoundDuration":77804,"Delta":25761561},{"NoteNumber":93,"Velocity":90,"Duration":90732,"SoundDuration":90732,"Delta":25839366},{"NoteNumber":94,"Velocity":91,"Duration":90495,"SoundDuration":90495,"Delta":25917170},{"NoteNumber":96,"Velocity":91,"Duration":90602,"SoundDuration":90602,"Delta":25994738},{"NoteNumber":97,"Velocity":92,"Duration":91245,"SoundDuration":91245,"Delta":26072305},{"NoteNumber":29,"Velocity":62,"Duration":156421,"SoundDuration":156421,"Delta":26072305},{"NoteNumber":41,"Velocity":79,"Duration":156421,"SoundDuration":156421,"Delta":26072305},{"NoteNumber":99,"Velocity":93,"Duration":91298,"SoundDuration":91298,"Delta":26150516},{"NoteNumber":100,"Velocity":94,"Duration":91613,"SoundDuration":91613,"Delta":26228726},{"NoteNumber":34,"Velocity":79,"Duration":157051,"SoundDuration":157051,"Delta":26228726},{"NoteNumber":46,"Velocity":96,"Duration":157051,"SoundDuration":157051,"Delta":26228726},{"NoteNumber":101,"Velocity":92,"Duration":91613,"SoundDuration":91613,"Delta":26307252},{"NoteNumber":99,"Velocity":92,"Duration":90422,"SoundDuration":90422,"Delta":26385778},{"NoteNumber":49,"Velocity":51,"Duration":77573,"SoundDuration":77573,"Delta":26385778},{"NoteNumber":61,"Velocity":72,"Duration":77573,"SoundDuration":77573,"Delta":26385778},{"NoteNumber":53,"Velocity":60,"Duration":77573,"SoundDuration":77573,"Delta":26385778},{"NoteNumber":97,"Velocity":91,"Duration":89946,"SoundDuration":89946,"Delta":26463351},{"NoteNumber":96,"Velocity":90,"Duration":90145,"SoundDuration":90145,"Delta":26540448},{"NoteNumber":94,"Velocity":88,"Duration":90224,"SoundDuration":90224,"Delta":26617704},{"NoteNumber":93,"Velocity":87,"Duration":90418,"SoundDuration":90418,"Delta":26695040},{"NoteNumber":29,"Velocity":56,"Duration":155057,"SoundDuration":155057,"Delta":26695040},{"NoteNumber":41,"Velocity":74,"Duration":155057,"SoundDuration":155057,"Delta":26695040},{"NoteNumber":94,"Velocity":86,"Duration":90778,"SoundDuration":90778,"Delta":26772530},{"NoteNumber":92,"Velocity":86,"Duration":92475,"SoundDuration":92475,"Delta":26850097},{"NoteNumber":34,"Velocity":70,"Duration":158529,"SoundDuration":158529,"Delta":26850097},{"NoteNumber":46,"Velocity":92,"Duration":158529,"SoundDuration":158529,"Delta":26850097},{"NoteNumber":90,"Velocity":85,"Duration":92475,"SoundDuration":92475,"Delta":26929362},{"NoteNumber":89,"Velocity":83,"Duration":91461,"SoundDuration":91461,"Delta":27008626},{"NoteNumber":49,"Velocity":49,"Duration":78453,"SoundDuration":78453,"Delta":27008626},{"NoteNumber":61,"Velocity":68,"Duration":78453,"SoundDuration":78453,"Delta":27008626},{"NoteNumber":53,"Velocity":58,"Duration":78453,"SoundDuration":78453,"Delta":27008626},{"NoteNumber":88,"Velocity":82,"Duration":91055,"SoundDuration":91055,"Delta":27087080},{"NoteNumber":89,"Velocity":79,"Duration":91252,"SoundDuration":91252,"Delta":27165127},{"NoteNumber":87,"Velocity":77,"Duration":91331,"SoundDuration":91331,"Delta":27243333},{"NoteNumber":85,"Velocity":76,"Duration":91532,"SoundDuration":91532,"Delta":27321617},{"NoteNumber":29,"Velocity":49,"Duration":156970,"SoundDuration":156970,"Delta":27321617},{"NoteNumber":41,"Velocity":65,"Duration":156970,"SoundDuration":156970,"Delta":27321617},{"NoteNumber":84,"Velocity":74,"Duration":91613,"SoundDuration":91613,"Delta":27400062},{"NoteNumber":82,"Velocity":72,"Duration":91812,"SoundDuration":91812,"Delta":27478587},{"NoteNumber":34,"Velocity":62,"Duration":157450,"SoundDuration":157450,"Delta":27478587},{"NoteNumber":46,"Velocity":77,"Duration":157450,"SoundDuration":157450,"Delta":27478587},{"NoteNumber":81,"Velocity":69,"Duration":91892,"SoundDuration":91892,"Delta":27557273},{"NoteNumber":82,"Velocity":68,"Duration":92092,"SoundDuration":92092,"Delta":27636038},{"NoteNumber":49,"Velocity":40,"Duration":78925,"SoundDuration":78925,"Delta":27636038},{"NoteNumber":61,"Velocity":57,"Duration":78925,"SoundDuration":78925,"Delta":27636038},{"NoteNumber":53,"Velocity":48,"Duration":78925,"SoundDuration":78925,"Delta":27636038},{"NoteNumber":80,"Velocity":67,"Duration":92173,"SoundDuration":92173,"Delta":27714963},{"NoteNumber":78,"Velocity":66,"Duration":92388,"SoundDuration":92388,"Delta":27793969},{"NoteNumber":77,"Velocity":65,"Duration":92761,"SoundDuration":92761,"Delta":27873147},{"NoteNumber":75,"Velocity":63,"Duration":94477,"SoundDuration":94477,"Delta":27952411},{"NoteNumber":29,"Velocity":45,"Duration":161636,"SoundDuration":161636,"Delta":27952411},{"NoteNumber":41,"Velocity":59,"Duration":161636,"SoundDuration":161636,"Delta":27952411},{"NoteNumber":73,"Velocity":61,"Duration":80656,"SoundDuration":80656,"Delta":28033392},{"NoteNumber":72,"Velocity":61,"Duration":97119,"SoundDuration":97119,"Delta":28114048},{"NoteNumber":34,"Velocity":56,"Duration":166491,"SoundDuration":166491,"Delta":28114048},{"NoteNumber":46,"Velocity":67,"Duration":166491,"SoundDuration":166491,"Delta":28114048},{"NoteNumber":73,"Velocity":61,"Duration":96538,"SoundDuration":96538,"Delta":28197294},{"NoteNumber":75,"Velocity":62,"Duration":93050,"SoundDuration":93050,"Delta":28280539},{"NoteNumber":63,"Velocity":47,"Duration":79757,"SoundDuration":79757,"Delta":28280539},{"NoteNumber":54,"Velocity":39,"Duration":79757,"SoundDuration":79757,"Delta":28280539},{"NoteNumber":51,"Velocity":33,"Duration":79757,"SoundDuration":79757,"Delta":28280539},{"NoteNumber":77,"Velocity":64,"Duration":93050,"SoundDuration":93050,"Delta":28360297},{"NoteNumber":78,"Velocity":66,"Duration":92842,"SoundDuration":92842,"Delta":28440054},{"NoteNumber":80,"Velocity":66,"Duration":92759,"SoundDuration":92759,"Delta":28519645},{"NoteNumber":82,"Velocity":68,"Duration":92637,"SoundDuration":92637,"Delta":28599153},{"NoteNumber":29,"Velocity":47,"Duration":158691,"SoundDuration":158691,"Delta":28599153},{"NoteNumber":41,"Velocity":62,"Duration":158691,"SoundDuration":158691,"Delta":28599153},{"NoteNumber":84,"Velocity":70,"Duration":92683,"SoundDuration":92683,"Delta":28678580},{"NoteNumber":82,"Velocity":70,"Duration":93934,"SoundDuration":93934,"Delta":28757845},{"NoteNumber":34,"Velocity":64,"Duration":161030,"SoundDuration":161030,"Delta":28757845},{"NoteNumber":46,"Velocity":76,"Duration":161030,"SoundDuration":161030,"Delta":28757845},{"NoteNumber":80,"Velocity":71,"Duration":93934,"SoundDuration":93934,"Delta":28838360},{"NoteNumber":78,"Velocity":73,"Duration":93934,"SoundDuration":93934,"Delta":28918875},{"NoteNumber":63,"Velocity":57,"Duration":80515,"SoundDuration":80515,"Delta":28918875},{"NoteNumber":54,"Velocity":47,"Duration":80515,"SoundDuration":80515,"Delta":28918875},{"NoteNumber":51,"Velocity":39,"Duration":80515,"SoundDuration":80515,"Delta":28918875},{"NoteNumber":77,"Velocity":75,"Duration":92475,"SoundDuration":92475,"Delta":28999390},{"NoteNumber":75,"Velocity":75,"Duration":91892,"SoundDuration":91892,"Delta":29078739},{"NoteNumber":73,"Velocity":73,"Duration":91772,"SoundDuration":91772,"Delta":29157504},{"NoteNumber":72,"Velocity":72,"Duration":91613,"SoundDuration":91613,"Delta":29236189},{"NoteNumber":29,"Velocity":51,"Duration":157051,"SoundDuration":157051,"Delta":29236189},{"NoteNumber":41,"Velocity":67,"Duration":157051,"SoundDuration":157051,"Delta":29236189},{"NoteNumber":75,"Velocity":73,"Duration":91860,"SoundDuration":91860,"Delta":29314715},{"NoteNumber":78,"Velocity":77,"Duration":93343,"SoundDuration":93343,"Delta":29393241},{"NoteNumber":33,"Velocity":69,"Duration":160016,"SoundDuration":160016,"Delta":29393241},{"NoteNumber":45,"Velocity":89,"Duration":160016,"SoundDuration":160016,"Delta":29393241},{"NoteNumber":74,"Velocity":68,"Duration":93343,"SoundDuration":93343,"Delta":29473249},{"NoteNumber":76,"Velocity":74,"Duration":93343,"SoundDuration":93343,"Delta":29553258},{"NoteNumber":63,"Velocity":61,"Duration":80008,"SoundDuration":80008,"Delta":29553258},{"NoteNumber":54,"Velocity":50,"Duration":80008,"SoundDuration":80008,"Delta":29553258},{"NoteNumber":51,"Velocity":42,"Duration":80008,"SoundDuration":80008,"Delta":29553258},{"NoteNumber":75,"Velocity":66,"Duration":93427,"SoundDuration":93427,"Delta":29633266},{"NoteNumber":72,"Velocity":72,"Duration":93934,"SoundDuration":93934,"Delta":29713275},{"NoteNumber":66,"Velocity":68,"Duration":93890,"SoundDuration":93890,"Delta":29793790},{"NoteNumber":71,"Velocity":69,"Duration":93627,"SoundDuration":93627,"Delta":29874305},{"NoteNumber":27,"Velocity":48,"Duration":160505,"SoundDuration":160505,"Delta":29874305},{"NoteNumber":39,"Velocity":63,"Duration":160505,"SoundDuration":160505,"Delta":29874305},{"NoteNumber":72,"Velocity":70,"Duration":93587,"SoundDuration":93587,"Delta":29954558},{"NoteNumber":73,"Velocity":72,"Duration":93343,"SoundDuration":93343,"Delta":30034810},{"NoteNumber":33,"Velocity":61,"Duration":160016,"SoundDuration":160016,"Delta":30034810},{"NoteNumber":45,"Velocity":81,"Duration":160016,"SoundDuration":160016,"Delta":30034810},{"NoteNumber":72,"Velocity":73,"Duration":93301,"SoundDuration":93301,"Delta":30114819},{"NoteNumber":74,"Velocity":74,"Duration":93050,"SoundDuration":93050,"Delta":30194827},{"NoteNumber":63,"Velocity":57,"Duration":79757,"SoundDuration":79757,"Delta":30194827},{"NoteNumber":54,"Velocity":47,"Duration":79757,"SoundDuration":79757,"Delta":30194827},{"NoteNumber":51,"Velocity":39,"Duration":79757,"SoundDuration":79757,"Delta":30194827},{"NoteNumber":75,"Velocity":74,"Duration":92925,"SoundDuration":92925,"Delta":30274585},{"NoteNumber":76,"Velocity":75,"Duration":92759,"SoundDuration":92759,"Delta":30354259},{"NoteNumber":75,"Velocity":76,"Duration":92637,"SoundDuration":92637,"Delta":30433767},{"NoteNumber":76,"Velocity":78,"Duration":92475,"SoundDuration":92475,"Delta":30513194},{"NoteNumber":27,"Velocity":64,"Duration":158442,"SoundDuration":158442,"Delta":30513194},{"NoteNumber":39,"Velocity":82,"Duration":158442,"SoundDuration":158442,"Delta":30513194},{"NoteNumber":77,"Velocity":79,"Duration":79178,"SoundDuration":79178,"Delta":30592458},{"NoteNumber":80,"Velocity":80,"Duration":94227,"SoundDuration":94227,"Delta":30671636},{"NoteNumber":33,"Velocity":78,"Duration":160866,"SoundDuration":160866,"Delta":30671636},{"NoteNumber":45,"Velocity":98,"Duration":160866,"SoundDuration":160866,"Delta":30671636},{"NoteNumber":78,"Velocity":81,"Duration":93187,"SoundDuration":93187,"Delta":30752403},{"NoteNumber":83,"Velocity":82,"Duration":91613,"SoundDuration":91613,"Delta":30832503},{"NoteNumber":63,"Velocity":61,"Duration":78525,"SoundDuration":78525,"Delta":30832503},{"NoteNumber":54,"Velocity":50,"Duration":78525,"SoundDuration":78525,"Delta":30832503},{"NoteNumber":51,"Velocity":42,"Duration":78525,"SoundDuration":78525,"Delta":30832503},{"NoteNumber":84,"Velocity":84,"Duration":91613,"SoundDuration":91613,"Delta":30911028},{"NoteNumber":85,"Velocity":85,"Duration":91613,"SoundDuration":91613,"Delta":30989554},{"NoteNumber":84,"Velocity":86,"Duration":91411,"SoundDuration":91411,"Delta":31068080},{"NoteNumber":86,"Velocity":87,"Duration":91331,"SoundDuration":91331,"Delta":31146445},{"NoteNumber":27,"Velocity":57,"Duration":156410,"SoundDuration":156410,"Delta":31146445},{"NoteNumber":39,"Velocity":77,"Duration":156410,"SoundDuration":156410,"Delta":31146445},{"NoteNumber":87,"Velocity":88,"Duration":91461,"SoundDuration":91461,"Delta":31224729},{"NoteNumber":88,"Velocity":90,"Duration":93343,"SoundDuration":93343,"Delta":31302855},{"NoteNumber":33,"Velocity":74,"Duration":158968,"SoundDuration":158968,"Delta":31302855},{"NoteNumber":45,"Velocity":93,"Duration":158968,"SoundDuration":158968,"Delta":31302855},{"NoteNumber":87,"Velocity":91,"Duration":91998,"SoundDuration":91998,"Delta":31382864},{"NoteNumber":88,"Velocity":92,"Duration":90962,"SoundDuration":90962,"Delta":31461823},{"NoteNumber":63,"Velocity":66,"Duration":78025,"SoundDuration":78025,"Delta":31461823},{"NoteNumber":54,"Velocity":55,"Duration":78025,"SoundDuration":78025,"Delta":31461823},{"NoteNumber":51,"Velocity":46,"Duration":78025,"SoundDuration":78025,"Delta":31461823},{"NoteNumber":89,"Velocity":92,"Duration":90491,"SoundDuration":90491,"Delta":31539849},{"NoteNumber":92,"Velocity":93,"Duration":92171,"SoundDuration":92171,"Delta":31617336},{"NoteNumber":94,"Velocity":94,"Duration":94823,"SoundDuration":94823,"Delta":31696119},{"NoteNumber":92,"Velocity":96,"Duration":97593,"SoundDuration":97593,"Delta":31777183},{"NoteNumber":27,"Velocity":62,"Duration":169195,"SoundDuration":169195,"Delta":31777183},{"NoteNumber":39,"Velocity":82,"Duration":169195,"SoundDuration":169195,"Delta":31777183},{"NoteNumber":91,"Velocity":97,"Duration":98839,"SoundDuration":98839,"Delta":31860587},{"NoteNumber":90,"Velocity":95,"Duration":91331,"SoundDuration":91331,"Delta":31946379},{"NoteNumber":32,"Velocity":76,"Duration":156567,"SoundDuration":156567,"Delta":31946379},{"NoteNumber":44,"Velocity":99,"Duration":156567,"SoundDuration":156567,"Delta":31946379},{"NoteNumber":101,"Velocity":95,"Duration":91331,"SoundDuration":91331,"Delta":32024663},{"NoteNumber":99,"Velocity":93,"Duration":91173,"SoundDuration":91173,"Delta":32102947},{"NoteNumber":51,"Velocity":51,"Duration":78284,"SoundDuration":78284,"Delta":32102947},{"NoteNumber":66,"Velocity":73,"Duration":78284,"SoundDuration":78284,"Delta":32102947},{"NoteNumber":60,"Velocity":61,"Duration":78284,"SoundDuration":78284,"Delta":32102947},{"NoteNumber":90,"Velocity":91,"Duration":90224,"SoundDuration":90224,"Delta":32181231},{"NoteNumber":99,"Velocity":89,"Duration":90224,"SoundDuration":90224,"Delta":32258566},{"NoteNumber":97,"Velocity":87,"Duration":90650,"SoundDuration":90650,"Delta":32335902},{"NoteNumber":89,"Velocity":85,"Duration":93204,"SoundDuration":93204,"Delta":32413237},{"NoteNumber":27,"Velocity":53,"Duration":159778,"SoundDuration":159778,"Delta":32413237},{"NoteNumber":39,"Velocity":69,"Duration":159778,"SoundDuration":159778,"Delta":32413237},{"NoteNumber":97,"Velocity":83,"Duration":93132,"SoundDuration":93132,"Delta":32493127},{"NoteNumber":96,"Velocity":81,"Duration":92705,"SoundDuration":92705,"Delta":32573016},{"NoteNumber":32,"Velocity":63,"Duration":158923,"SoundDuration":158923,"Delta":32573016},{"NoteNumber":44,"Velocity":82,"Duration":158923,"SoundDuration":158923,"Delta":32573016},{"NoteNumber":87,"Velocity":80,"Duration":92496,"SoundDuration":92496,"Delta":32652478},{"NoteNumber":96,"Velocity":78,"Duration":91245,"SoundDuration":91245,"Delta":32731939},{"NoteNumber":51,"Velocity":43,"Duration":78210,"SoundDuration":78210,"Delta":32731939},{"NoteNumber":66,"Velocity":61,"Duration":78210,"SoundDuration":78210,"Delta":32731939},{"NoteNumber":60,"Velocity":51,"Duration":78210,"SoundDuration":78210,"Delta":32731939},{"NoteNumber":94,"Velocity":76,"Duration":91218,"SoundDuration":91218,"Delta":32810150},{"NoteNumber":85,"Velocity":74,"Duration":91055,"SoundDuration":91055,"Delta":32888360},{"NoteNumber":94,"Velocity":73,"Duration":91055,"SoundDuration":91055,"Delta":32966408},{"NoteNumber":92,"Velocity":71,"Duration":91095,"SoundDuration":91095,"Delta":33044456},{"NoteNumber":32,"Velocity":58,"Duration":156331,"SoundDuration":156331,"Delta":33044456},{"NoteNumber":84,"Velocity":69,"Duration":78283,"SoundDuration":78283,"Delta":33122504},{"NoteNumber":92,"Velocity":68,"Duration":93627,"SoundDuration":93627,"Delta":33200788},{"NoteNumber":44,"Velocity":73,"Duration":159929,"SoundDuration":159929,"Delta":33200788},{"NoteNumber":90,"Velocity":67,"Duration":92764,"SoundDuration":92764,"Delta":33281040},{"NoteNumber":82,"Velocity":65,"Duration":91613,"SoundDuration":91613,"Delta":33360717},{"NoteNumber":53,"Velocity":43,"Duration":78525,"SoundDuration":78525,"Delta":33360717},{"NoteNumber":65,"Velocity":52,"Duration":78525,"SoundDuration":78525,"Delta":33360717},{"NoteNumber":61,"Velocity":43,"Duration":78525,"SoundDuration":78525,"Delta":33360717},{"NoteNumber":90,"Velocity":64,"Duration":91613,"SoundDuration":91613,"Delta":33439243},{"NoteNumber":89,"Velocity":62,"Duration":91732,"SoundDuration":91732,"Delta":33517768},{"NoteNumber":80,"Velocity":61,"Duration":91892,"SoundDuration":91892,"Delta":33596374},{"NoteNumber":89,"Velocity":60,"Duration":91892,"SoundDuration":91892,"Delta":33675139},{"NoteNumber":32,"Velocity":51,"Duration":157610,"SoundDuration":157610,"Delta":33675139},{"NoteNumber":87,"Velocity":59,"Duration":92012,"SoundDuration":92012,"Delta":33753904},{"NoteNumber":78,"Velocity":57,"Duration":92173,"SoundDuration":92173,"Delta":33832749},{"NoteNumber":44,"Velocity":58,"Duration":158010,"SoundDuration":158010,"Delta":33832749},{"NoteNumber":87,"Velocity":56,"Duration":92173,"SoundDuration":92173,"Delta":33911755},{"NoteNumber":85,"Velocity":55,"Duration":92302,"SoundDuration":92302,"Delta":33990760},{"NoteNumber":61,"Velocity":45,"Duration":79091,"SoundDuration":79091,"Delta":33990760},{"NoteNumber":53,"Velocity":38,"Duration":79091,"SoundDuration":79091,"Delta":33990760},{"NoteNumber":77,"Velocity":54,"Duration":92475,"SoundDuration":92475,"Delta":34069852},{"NoteNumber":82,"Velocity":53,"Duration":92475,"SoundDuration":92475,"Delta":34149116},{"NoteNumber":80,"Velocity":51,"Duration":92597,"SoundDuration":92597,"Delta":34228381},{"NoteNumber":77,"Velocity":51,"Duration":92759,"SoundDuration":92759,"Delta":34307727},{"NoteNumber":32,"Velocity":42,"Duration":159016,"SoundDuration":159016,"Delta":34307727},{"NoteNumber":73,"Velocity":50,"Duration":79507,"SoundDuration":79507,"Delta":34387235},{"NoteNumber":72,"Velocity":48,"Duration":91943,"SoundDuration":91943,"Delta":34466743},{"NoteNumber":44,"Velocity":49,"Duration":157463,"SoundDuration":157463,"Delta":34466743},{"NoteNumber":73,"Velocity":49,"Duration":91692,"SoundDuration":91692,"Delta":34545582},{"NoteNumber":75,"Velocity":50,"Duration":91438,"SoundDuration":91438,"Delta":34624207},{"NoteNumber":51,"Velocity":30,"Duration":78406,"SoundDuration":78406,"Delta":34624207},{"NoteNumber":60,"Velocity":37,"Duration":78406,"SoundDuration":78406,"Delta":34624207},{"NoteNumber":54,"Velocity":30,"Duration":78406,"SoundDuration":78406,"Delta":34624207},{"NoteNumber":76,"Velocity":51,"Duration":91116,"SoundDuration":91116,"Delta":34702613},{"NoteNumber":77,"Velocity":52,"Duration":90868,"SoundDuration":90868,"Delta":34780733},{"NoteNumber":78,"Velocity":53,"Duration":90620,"SoundDuration":90620,"Delta":34858640},{"NoteNumber":80,"Velocity":53,"Duration":90375,"SoundDuration":90375,"Delta":34936335},{"NoteNumber":32,"Velocity":42,"Duration":154994,"SoundDuration":154994,"Delta":34936335},{"NoteNumber":81,"Velocity":55,"Duration":90720,"SoundDuration":90720,"Delta":35013820},{"NoteNumber":79,"Velocity":54,"Duration":92475,"SoundDuration":92475,"Delta":35091329},{"NoteNumber":44,"Velocity":51,"Duration":158529,"SoundDuration":158529,"Delta":35091329},{"NoteNumber":80,"Velocity":53,"Duration":92120,"SoundDuration":92120,"Delta":35170594},{"NoteNumber":75,"Velocity":53,"Duration":89992,"SoundDuration":89992,"Delta":35249858},{"NoteNumber":61,"Velocity":38,"Duration":77136,"SoundDuration":77136,"Delta":35249858},{"NoteNumber":52,"Velocity":24,"Duration":77136,"SoundDuration":77136,"Delta":35249858},{"NoteNumber":76,"Velocity":51,"Duration":90165,"SoundDuration":90165,"Delta":35326995},{"NoteNumber":68,"Velocity":51,"Duration":90410,"SoundDuration":90410,"Delta":35404270},{"NoteNumber":76,"Velocity":50,"Duration":90585,"SoundDuration":90585,"Delta":35481755},{"NoteNumber":75,"Velocity":48,"Duration":90832,"SoundDuration":90832,"Delta":35559380},{"NoteNumber":32,"Velocity":45,"Duration":155885,"SoundDuration":155885,"Delta":35559380},{"NoteNumber":73,"Velocity":47,"Duration":78049,"SoundDuration":78049,"Delta":35637216},{"NoteNumber":72,"Velocity":45,"Duration":91692,"SoundDuration":91692,"Delta":35715265},{"NoteNumber":44,"Velocity":49,"Duration":157031,"SoundDuration":157031,"Delta":35715265},{"NoteNumber":73,"Velocity":47,"Duration":91438,"SoundDuration":91438,"Delta":35793889},{"NoteNumber":75,"Velocity":48,"Duration":91186,"SoundDuration":91186,"Delta":35872296},{"NoteNumber":51,"Velocity":30,"Duration":78190,"SoundDuration":78190,"Delta":35872296},{"NoteNumber":60,"Velocity":37,"Duration":78190,"SoundDuration":78190,"Delta":35872296},{"NoteNumber":54,"Velocity":30,"Duration":78190,"SoundDuration":78190,"Delta":35872296},{"NoteNumber":76,"Velocity":50,"Duration":90868,"SoundDuration":90868,"Delta":35950486},{"NoteNumber":77,"Velocity":51,"Duration":90620,"SoundDuration":90620,"Delta":36028394},{"NoteNumber":78,"Velocity":52,"Duration":90375,"SoundDuration":90375,"Delta":36106089},{"NoteNumber":80,"Velocity":53,"Duration":90130,"SoundDuration":90130,"Delta":36183573},{"NoteNumber":44,"Velocity":42,"Duration":154645,"SoundDuration":154645,"Delta":36183573},{"NoteNumber":81,"Velocity":53,"Duration":90621,"SoundDuration":90621,"Delta":36260848},{"NoteNumber":79,"Velocity":55,"Duration":92759,"SoundDuration":92759,"Delta":36338219},{"NoteNumber":49,"Velocity":51,"Duration":159016,"SoundDuration":159016,"Delta":36338219},{"NoteNumber":80,"Velocity":53,"Duration":92364,"SoundDuration":92364,"Delta":36417727},{"NoteNumber":75,"Velocity":53,"Duration":90027,"SoundDuration":90027,"Delta":36497235},{"NoteNumber":61,"Velocity":38,"Duration":77136,"SoundDuration":77136,"Delta":36497235},{"NoteNumber":52,"Velocity":24,"Duration":77136,"SoundDuration":77136,"Delta":36497235},{"NoteNumber":76,"Velocity":52,"Duration":90340,"SoundDuration":90340,"Delta":36574371},{"NoteNumber":68,"Velocity":51,"Duration":90655,"SoundDuration":90655,"Delta":36651785},{"NoteNumber":76,"Velocity":51,"Duration":90939,"SoundDuration":90939,"Delta":36729480},{"NoteNumber":73,"Velocity":50,"Duration":91330,"SoundDuration":91330,"Delta":36807388},{"NoteNumber":43,"Velocity":45,"Duration":156814,"SoundDuration":156814,"Delta":36807388},{"NoteNumber":71,"Velocity":48,"Duration":78551,"SoundDuration":78551,"Delta":36885650},{"NoteNumber":70,"Velocity":47,"Duration":91619,"SoundDuration":91619,"Delta":36964202},{"NoteNumber":42,"Velocity":49,"Duration":156886,"SoundDuration":156886,"Delta":36964202},{"NoteNumber":71,"Velocity":48,"Duration":91366,"SoundDuration":91366,"Delta":37042754},{"NoteNumber":73,"Velocity":50,"Duration":91116,"SoundDuration":91116,"Delta":37121088},{"NoteNumber":54,"Velocity":30,"Duration":78119,"SoundDuration":78119,"Delta":37121088},{"NoteNumber":64,"Velocity":37,"Duration":78119,"SoundDuration":78119,"Delta":37121088},{"NoteNumber":58,"Velocity":30,"Duration":78119,"SoundDuration":78119,"Delta":37121088},{"NoteNumber":74,"Velocity":51,"Duration":90868,"SoundDuration":90868,"Delta":37199208},{"NoteNumber":75,"Velocity":51,"Duration":90620,"SoundDuration":90620,"Delta":37277116},{"NoteNumber":76,"Velocity":53,"Duration":90375,"SoundDuration":90375,"Delta":37354810},{"NoteNumber":78,"Velocity":53,"Duration":90130,"SoundDuration":90130,"Delta":37432295},{"NoteNumber":30,"Velocity":42,"Duration":154341,"SoundDuration":154341,"Delta":37432295},{"NoteNumber":79,"Velocity":54,"Duration":90401,"SoundDuration":90401,"Delta":37509570},{"NoteNumber":77,"Velocity":55,"Duration":93343,"SoundDuration":93343,"Delta":37586637},{"NoteNumber":42,"Velocity":51,"Duration":160017,"SoundDuration":160017,"Delta":37586637},{"NoteNumber":78,"Velocity":54,"Duration":92829,"SoundDuration":92829,"Delta":37666645},{"NoteNumber":75,"Velocity":53,"Duration":89783,"SoundDuration":89783,"Delta":37746654},{"NoteNumber":59,"Velocity":24,"Duration":76926,"SoundDuration":76926,"Delta":37746654},{"NoteNumber":62,"Velocity":38,"Duration":76926,"SoundDuration":76926,"Delta":37746654},{"NoteNumber":54,"Velocity":24,"Duration":76926,"SoundDuration":76926,"Delta":37746654},{"NoteNumber":76,"Velocity":53,"Duration":90096,"SoundDuration":90096,"Delta":37823581},{"NoteNumber":73,"Velocity":52,"Duration":90445,"SoundDuration":90445,"Delta":37900786},{"NoteNumber":74,"Velocity":51,"Duration":90760,"SoundDuration":90760,"Delta":37978271},{"NoteNumber":71,"Velocity":50,"Duration":91080,"SoundDuration":91080,"Delta":38056036},{"NoteNumber":41,"Velocity":45,"Duration":156383,"SoundDuration":156383,"Delta":38056036},{"NoteNumber":69,"Velocity":49,"Duration":78334,"SoundDuration":78334,"Delta":38134085},{"NoteNumber":68,"Velocity":48,"Duration":91728,"SoundDuration":91728,"Delta":38212419},{"NoteNumber":40,"Velocity":49,"Duration":157675,"SoundDuration":157675,"Delta":38212419},{"NoteNumber":69,"Velocity":49,"Duration":92261,"SoundDuration":92261,"Delta":38291044},{"NoteNumber":71,"Velocity":50,"Duration":92345,"SoundDuration":92345,"Delta":38370095},{"NoteNumber":52,"Velocity":30,"Duration":79178,"SoundDuration":79178,"Delta":38370095},{"NoteNumber":62,"Velocity":37,"Duration":79178,"SoundDuration":79178,"Delta":38370095},{"NoteNumber":56,"Velocity":30,"Duration":79178,"SoundDuration":79178,"Delta":38370095},{"NoteNumber":72,"Velocity":51,"Duration":92132,"SoundDuration":92132,"Delta":38449273},{"NoteNumber":73,"Velocity":52,"Duration":91852,"SoundDuration":91852,"Delta":38528279},{"NoteNumber":74,"Velocity":53,"Duration":91613,"SoundDuration":91613,"Delta":38607044},{"NoteNumber":76,"Velocity":53,"Duration":91411,"SoundDuration":91411,"Delta":38685570},{"NoteNumber":28,"Velocity":42,"Duration":156569,"SoundDuration":156569,"Delta":38685570},{"NoteNumber":77,"Velocity":55,"Duration":91540,"SoundDuration":91540,"Delta":38763934},{"NoteNumber":75,"Velocity":56,"Duration":93343,"SoundDuration":93343,"Delta":38842139},{"NoteNumber":40,"Velocity":51,"Duration":160017,"SoundDuration":160017,"Delta":38842139},{"NoteNumber":76,"Velocity":53,"Duration":93016,"SoundDuration":93016,"Delta":38922148},{"NoteNumber":73,"Velocity":54,"Duration":91095,"SoundDuration":91095,"Delta":39002156},{"NoteNumber":57,"Velocity":24,"Duration":78047,"SoundDuration":78047,"Delta":39002156},{"NoteNumber":60,"Velocity":38,"Duration":78047,"SoundDuration":78047,"Delta":39002156},{"NoteNumber":52,"Velocity":24,"Duration":78047,"SoundDuration":78047,"Delta":39002156},{"NoteNumber":74,"Velocity":52,"Duration":91371,"SoundDuration":91371,"Delta":39080204},{"NoteNumber":71,"Velocity":53,"Duration":91613,"SoundDuration":91613,"Delta":39158488},{"NoteNumber":72,"Velocity":51,"Duration":91812,"SoundDuration":91812,"Delta":39237014},{"NoteNumber":71,"Velocity":51,"Duration":92092,"SoundDuration":92092,"Delta":39315699},{"NoteNumber":28,"Velocity":38,"Duration":158017,"SoundDuration":158017,"Delta":39315699},{"NoteNumber":40,"Velocity":45,"Duration":158017,"SoundDuration":158017,"Delta":39315699},{"NoteNumber":69,"Velocity":50,"Duration":79091,"SoundDuration":79091,"Delta":39394624},{"NoteNumber":68,"Velocity":59,"Duration":97260,"SoundDuration":97260,"Delta":39473716},{"NoteNumber":29,"Velocity":48,"Duration":166731,"SoundDuration":166731,"Delta":39473716},{"NoteNumber":41,"Velocity":57,"Duration":166731,"SoundDuration":166731,"Delta":39473716},{"NoteNumber":69,"Velocity":57,"Duration":97260,"SoundDuration":97260,"Delta":39557082},{"NoteNumber":73,"Velocity":63,"Duration":97260,"SoundDuration":97260,"Delta":39640448},{"NoteNumber":72,"Velocity":58,"Duration":96974,"SoundDuration":96974,"Delta":39723814},{"NoteNumber":48,"Velocity":41,"Duration":328317,"SoundDuration":328317,"Delta":39723814},{"NoteNumber":53,"Velocity":41,"Duration":286634,"SoundDuration":286634,"Delta":39765496},{"NoteNumber":70,"Velocity":61,"Duration":95258,"SoundDuration":95258,"Delta":39807179},{"NoteNumber":63,"Velocity":49,"Duration":244951,"SoundDuration":244951,"Delta":39807179},{"NoteNumber":69,"Velocity":59,"Duration":95258,"SoundDuration":95258,"Delta":39888830},{"NoteNumber":78,"Velocity":63,"Duration":95258,"SoundDuration":95258,"Delta":39970480},{"NoteNumber":77,"Velocity":61,"Duration":95012,"SoundDuration":95012,"Delta":40052131},{"NoteNumber":46,"Velocity":44,"Duration":329330,"SoundDuration":329330,"Delta":40052131},{"NoteNumber":53,"Velocity":44,"Duration":288504,"SoundDuration":288504,"Delta":40092956},{"NoteNumber":75,"Velocity":61,"Duration":94446,"SoundDuration":94446,"Delta":40133781},{"NoteNumber":61,"Velocity":52,"Duration":247679,"SoundDuration":247679,"Delta":40133781},{"NoteNumber":73,"Velocity":63,"Duration":85650,"SoundDuration":85650,"Delta":40213952},{"NoteNumber":84,"Velocity":68,"Duration":95184,"SoundDuration":95184,"Delta":40299603},{"NoteNumber":82,"Velocity":66,"Duration":93461,"SoundDuration":93461,"Delta":40381461},{"NoteNumber":51,"Velocity":40,"Duration":323807,"SoundDuration":323807,"Delta":40381461},{"NoteNumber":58,"Velocity":40,"Duration":283827,"SoundDuration":283827,"Delta":40421442},{"NoteNumber":80,"Velocity":65,"Duration":94502,"SoundDuration":94502,"Delta":40461422},{"NoteNumber":66,"Velocity":47,"Duration":243846,"SoundDuration":243846,"Delta":40461422},{"NoteNumber":78,"Velocity":64,"Duration":94642,"SoundDuration":94642,"Delta":40542425},{"NoteNumber":77,"Velocity":63,"Duration":95482,"SoundDuration":95482,"Delta":40623427},{"NoteNumber":75,"Velocity":63,"Duration":95412,"SoundDuration":95412,"Delta":40705269},{"NoteNumber":44,"Velocity":48,"Duration":330549,"SoundDuration":330549,"Delta":40705269},{"NoteNumber":54,"Velocity":48,"Duration":289628,"SoundDuration":289628,"Delta":40746190},{"NoteNumber":73,"Velocity":63,"Duration":95699,"SoundDuration":95699,"Delta":40787111},{"NoteNumber":60,"Velocity":57,"Duration":248707,"SoundDuration":248707,"Delta":40787111},{"NoteNumber":72,"Velocity":57,"Duration":85650,"SoundDuration":85650,"Delta":40868535},{"NoteNumber":82,"Velocity":61,"Duration":95238,"SoundDuration":95238,"Delta":40954186},{"NoteNumber":80,"Velocity":60,"Duration":94926,"SoundDuration":94926,"Delta":41035819},{"NoteNumber":49,"Velocity":41,"Duration":322158,"SoundDuration":322158,"Delta":41035819},{"NoteNumber":56,"Velocity":41,"Duration":281342,"SoundDuration":281342,"Delta":41076635},{"NoteNumber":78,"Velocity":59,"Duration":93055,"SoundDuration":93055,"Delta":41117452},{"NoteNumber":65,"Velocity":49,"Duration":240525,"SoundDuration":240525,"Delta":41117452},{"NoteNumber":77,"Velocity":58,"Duration":93262,"SoundDuration":93262,"Delta":41197213},{"NoteNumber":75,"Velocity":57,"Duration":94502,"SoundDuration":94502,"Delta":41276975},{"NoteNumber":73,"Velocity":61,"Duration":94281,"SoundDuration":94281,"Delta":41357977},{"NoteNumber":42,"Velocity":44,"Duration":322964,"SoundDuration":322964,"Delta":41357977},{"NoteNumber":49,"Velocity":44,"Duration":282462,"SoundDuration":282462,"Delta":41398479},{"NoteNumber":72,"Velocity":61,"Duration":93498,"SoundDuration":93498,"Delta":41438980},{"NoteNumber":58,"Velocity":52,"Duration":241961,"SoundDuration":241961,"Delta":41438980},{"NoteNumber":70,"Velocity":58,"Duration":82928,"SoundDuration":82928,"Delta":41518657},{"NoteNumber":80,"Velocity":62,"Duration":92582,"SoundDuration":92582,"Delta":41601585},{"NoteNumber":78,"Velocity":61,"Duration":92355,"SoundDuration":92355,"Delta":41680941},{"NoteNumber":48,"Velocity":40,"Duration":317820,"SoundDuration":317820,"Delta":41680941},{"NoteNumber":54,"Velocity":40,"Duration":278229,"SoundDuration":278229,"Delta":41720532},{"NoteNumber":77,"Velocity":60,"Duration":92565,"SoundDuration":92565,"Delta":41760088},{"NoteNumber":63,"Velocity":47,"Duration":238673,"SoundDuration":238673,"Delta":41760088},{"NoteNumber":75,"Velocity":59,"Duration":92812,"SoundDuration":92812,"Delta":41839410},{"NoteNumber":73,"Velocity":58,"Duration":93133,"SoundDuration":93133,"Delta":41918943},{"NoteNumber":72,"Velocity":57,"Duration":93385,"SoundDuration":93385,"Delta":41998762},{"NoteNumber":70,"Velocity":64,"Duration":93457,"SoundDuration":93457,"Delta":42078796},{"NoteNumber":58,"Velocity":40,"Duration":320142,"SoundDuration":320142,"Delta":42078796},{"NoteNumber":53,"Velocity":40,"Duration":320142,"SoundDuration":320142,"Delta":42078796},{"NoteNumber":49,"Velocity":40,"Duration":320142,"SoundDuration":320142,"Delta":42078796},{"NoteNumber":61,"Velocity":47,"Duration":320142,"SoundDuration":320142,"Delta":42078796},{"NoteNumber":69,"Velocity":62,"Duration":93457,"SoundDuration":93457,"Delta":42158903},{"NoteNumber":68,"Velocity":59,"Duration":93457,"SoundDuration":93457,"Delta":42239010},{"NoteNumber":67,"Velocity":57,"Duration":79821,"SoundDuration":79821,"Delta":42319116},{"NoteNumber":68,"Velocity":64,"Duration":92565,"SoundDuration":92565,"Delta":42398938},{"NoteNumber":51,"Velocity":40,"Duration":319138,"SoundDuration":319138,"Delta":42398938},{"NoteNumber":54,"Velocity":40,"Duration":319138,"SoundDuration":319138,"Delta":42398938},{"NoteNumber":58,"Velocity":40,"Duration":319138,"SoundDuration":319138,"Delta":42398938},{"NoteNumber":60,"Velocity":47,"Duration":319138,"SoundDuration":319138,"Delta":42398938},{"NoteNumber":67,"Velocity":61,"Duration":92920,"SoundDuration":92920,"Delta":42478260},{"NoteNumber":66,"Velocity":58,"Duration":93312,"SoundDuration":93312,"Delta":42557865},{"NoteNumber":65,"Velocity":56,"Duration":80249,"SoundDuration":80249,"Delta":42637827},{"NoteNumber":67,"Velocity":63,"Duration":92565,"SoundDuration":92565,"Delta":42718077},{"NoteNumber":66,"Velocity":60,"Duration":92920,"SoundDuration":92920,"Delta":42797398},{"NoteNumber":65,"Velocity":58,"Duration":93312,"SoundDuration":93312,"Delta":42877004},{"NoteNumber":64,"Velocity":55,"Duration":80249,"SoundDuration":80249,"Delta":42956965},{"NoteNumber":66,"Velocity":63,"Duration":92321,"SoundDuration":92321,"Delta":43037215},{"NoteNumber":54,"Velocity":53,"Duration":79112,"SoundDuration":79112,"Delta":43037215},{"NoteNumber":65,"Velocity":60,"Duration":92671,"SoundDuration":92671,"Delta":43116328},{"NoteNumber":53,"Velocity":51,"Duration":79391,"SoundDuration":79391,"Delta":43116328},{"NoteNumber":64,"Velocity":57,"Duration":93062,"SoundDuration":93062,"Delta":43195719},{"NoteNumber":52,"Velocity":48,"Duration":79747,"SoundDuration":79747,"Delta":43195719},{"NoteNumber":63,"Velocity":55,"Duration":79614,"SoundDuration":79614,"Delta":43275467},{"NoteNumber":51,"Velocity":46,"Duration":79614,"SoundDuration":79614,"Delta":43275467},{"NoteNumber":65,"Velocity":64,"Duration":92305,"SoundDuration":92305,"Delta":43355082},{"NoteNumber":53,"Velocity":54,"Duration":79058,"SoundDuration":79058,"Delta":43355082},{"NoteNumber":64,"Velocity":62,"Duration":93007,"SoundDuration":93007,"Delta":43434140},{"NoteNumber":52,"Velocity":52,"Duration":79690,"SoundDuration":79690,"Delta":43434140},{"NoteNumber":63,"Velocity":58,"Duration":93542,"SoundDuration":93542,"Delta":43513830},{"NoteNumber":51,"Velocity":49,"Duration":80117,"SoundDuration":80117,"Delta":43513830},{"NoteNumber":62,"Velocity":56,"Duration":80768,"SoundDuration":80768,"Delta":43593948},{"NoteNumber":50,"Velocity":47,"Duration":80768,"SoundDuration":80768,"Delta":43593948},{"NoteNumber":64,"Velocity":62,"Duration":93327,"SoundDuration":93327,"Delta":43674716},{"NoteNumber":52,"Velocity":52,"Duration":79974,"SoundDuration":79974,"Delta":43674716},{"NoteNumber":63,"Velocity":59,"Duration":93684,"SoundDuration":93684,"Delta":43754691},{"NoteNumber":51,"Velocity":49,"Duration":80259,"SoundDuration":80259,"Delta":43754691},{"NoteNumber":62,"Velocity":56,"Duration":94083,"SoundDuration":94083,"Delta":43834951},{"NoteNumber":50,"Velocity":47,"Duration":80622,"SoundDuration":80622,"Delta":43834951},{"NoteNumber":61,"Velocity":53,"Duration":80986,"SoundDuration":80986,"Delta":43915573},{"NoteNumber":49,"Velocity":45,"Duration":80986,"SoundDuration":80986,"Delta":43915573},{"NoteNumber":63,"Velocity":59,"Duration":93077,"SoundDuration":93077,"Delta":43996560},{"NoteNumber":51,"Velocity":50,"Duration":79760,"SoundDuration":79760,"Delta":43996560},{"NoteNumber":62,"Velocity":57,"Duration":93435,"SoundDuration":93435,"Delta":44076320},{"NoteNumber":50,"Velocity":48,"Duration":80047,"SoundDuration":80047,"Delta":44076320},{"NoteNumber":61,"Velocity":54,"Duration":93937,"SoundDuration":93937,"Delta":44156367},{"NoteNumber":49,"Velocity":46,"Duration":80476,"SoundDuration":80476,"Delta":44156367},{"NoteNumber":60,"Velocity":51,"Duration":80840,"SoundDuration":80840,"Delta":44236844},{"NoteNumber":48,"Velocity":43,"Duration":80840,"SoundDuration":80840,"Delta":44236844},{"NoteNumber":63,"Velocity":58,"Duration":93689,"SoundDuration":93689,"Delta":44317685},{"NoteNumber":51,"Velocity":49,"Duration":80335,"SoundDuration":80335,"Delta":44317685},{"NoteNumber":61,"Velocity":55,"Duration":93794,"SoundDuration":93794,"Delta":44398021},{"NoteNumber":49,"Velocity":46,"Duration":80333,"SoundDuration":80333,"Delta":44398021},{"NoteNumber":60,"Velocity":52,"Duration":94374,"SoundDuration":94374,"Delta":44478354},{"NoteNumber":48,"Velocity":44,"Duration":80840,"SoundDuration":80840,"Delta":44478354},{"NoteNumber":58,"Velocity":50,"Duration":81427,"SoundDuration":81427,"Delta":44559195},{"NoteNumber":46,"Velocity":41,"Duration":81427,"SoundDuration":81427,"Delta":44559195},{"NoteNumber":57,"Velocity":40,"Duration":92759,"SoundDuration":92759,"Delta":44640623},{"NoteNumber":39,"Velocity":39,"Duration":158853,"SoundDuration":158853,"Delta":44640623},{"NoteNumber":58,"Velocity":42,"Duration":92556,"SoundDuration":92556,"Delta":44720131},{"NoteNumber":60,"Velocity":42,"Duration":92345,"SoundDuration":92345,"Delta":44799477},{"NoteNumber":54,"Velocity":28,"Duration":79178,"SoundDuration":79178,"Delta":44799477},{"NoteNumber":45,"Velocity":23,"Duration":79178,"SoundDuration":79178,"Delta":44799477},{"NoteNumber":61,"Velocity":44,"Duration":92133,"SoundDuration":92133,"Delta":44878655},{"NoteNumber":63,"Velocity":45,"Duration":91852,"SoundDuration":91852,"Delta":44957660},{"NoteNumber":64,"Velocity":46,"Duration":91613,"SoundDuration":91613,"Delta":45036425},{"NoteNumber":65,"Velocity":47,"Duration":91411,"SoundDuration":91411,"Delta":45114951},{"NoteNumber":39,"Velocity":42,"Duration":156569,"SoundDuration":156569,"Delta":45114951},{"NoteNumber":66,"Velocity":48,"Duration":91416,"SoundDuration":91416,"Delta":45193316},{"NoteNumber":64,"Velocity":51,"Duration":92475,"SoundDuration":92475,"Delta":45271521},{"NoteNumber":37,"Velocity":54,"Duration":158529,"SoundDuration":158529,"Delta":45271521},{"NoteNumber":65,"Velocity":49,"Duration":92272,"SoundDuration":92272,"Delta":45350785},{"NoteNumber":62,"Velocity":47,"Duration":91095,"SoundDuration":91095,"Delta":45430050},{"NoteNumber":53,"Velocity":32,"Duration":78047,"SoundDuration":78047,"Delta":45430050},{"NoteNumber":46,"Velocity":21,"Duration":78047,"SoundDuration":78047,"Delta":45430050},{"NoteNumber":63,"Velocity":46,"Duration":91371,"SoundDuration":91371,"Delta":45508098},{"NoteNumber":60,"Velocity":45,"Duration":91613,"SoundDuration":91613,"Delta":45586382},{"NoteNumber":61,"Velocity":44,"Duration":91812,"SoundDuration":91812,"Delta":45664907},{"NoteNumber":60,"Velocity":43,"Duration":92092,"SoundDuration":92092,"Delta":45743593},{"NoteNumber":37,"Velocity":34,"Duration":158017,"SoundDuration":158017,"Delta":45743593},{"NoteNumber":58,"Velocity":41,"Duration":79091,"SoundDuration":79091,"Delta":45822518},{"NoteNumber":57,"Velocity":39,"Duration":92173,"SoundDuration":92173,"Delta":45901610},{"NoteNumber":39,"Velocity":41,"Duration":157850,"SoundDuration":157850,"Delta":45901610},{"NoteNumber":58,"Velocity":41,"Duration":91972,"SoundDuration":91972,"Delta":45980615},{"NoteNumber":60,"Velocity":42,"Duration":91852,"SoundDuration":91852,"Delta":46059460},{"NoteNumber":54,"Velocity":29,"Duration":78764,"SoundDuration":78764,"Delta":46059460},{"NoteNumber":45,"Velocity":25,"Duration":78764,"SoundDuration":78764,"Delta":46059460},{"NoteNumber":61,"Velocity":44,"Duration":91613,"SoundDuration":91613,"Delta":46138225},{"NoteNumber":63,"Velocity":45,"Duration":91492,"SoundDuration":91492,"Delta":46216751},{"NoteNumber":64,"Velocity":47,"Duration":91331,"SoundDuration":91331,"Delta":46295196},{"NoteNumber":65,"Velocity":49,"Duration":91134,"SoundDuration":91134,"Delta":46373480},{"NoteNumber":39,"Velocity":42,"Duration":156093,"SoundDuration":156093,"Delta":46373480},{"NoteNumber":66,"Velocity":51,"Duration":91301,"SoundDuration":91301,"Delta":46451607},{"NoteNumber":64,"Velocity":51,"Duration":93343,"SoundDuration":93343,"Delta":46529574},{"NoteNumber":37,"Velocity":56,"Duration":158709,"SoundDuration":158709,"Delta":46529574},{"NoteNumber":65,"Velocity":50,"Duration":91709,"SoundDuration":91709,"Delta":46609582},{"NoteNumber":62,"Velocity":48,"Duration":91173,"SoundDuration":91173,"Delta":46688283},{"NoteNumber":53,"Velocity":33,"Duration":78126,"SoundDuration":78126,"Delta":46688283},{"NoteNumber":46,"Velocity":28,"Duration":78126,"SoundDuration":78126,"Delta":46688283},{"NoteNumber":63,"Velocity":48,"Duration":91331,"SoundDuration":91331,"Delta":46766410},{"NoteNumber":60,"Velocity":46,"Duration":91532,"SoundDuration":91532,"Delta":46844694},{"NoteNumber":61,"Velocity":45,"Duration":91732,"SoundDuration":91732,"Delta":46923139},{"NoteNumber":60,"Velocity":45,"Duration":91932,"SoundDuration":91932,"Delta":47001745},{"NoteNumber":37,"Velocity":36,"Duration":157289,"SoundDuration":157289,"Delta":47001745},{"NoteNumber":58,"Velocity":43,"Duration":78524,"SoundDuration":78524,"Delta":47080510},{"NoteNumber":60,"Velocity":39,"Duration":91435,"SoundDuration":91435,"Delta":47159034},{"NoteNumber":39,"Velocity":39,"Duration":156523,"SoundDuration":156523,"Delta":47159034},{"NoteNumber":61,"Velocity":41,"Duration":91116,"SoundDuration":91116,"Delta":47237438},{"NoteNumber":63,"Velocity":42,"Duration":90868,"SoundDuration":90868,"Delta":47315558},{"NoteNumber":54,"Velocity":29,"Duration":77907,"SoundDuration":77907,"Delta":47315558},{"NoteNumber":46,"Velocity":25,"Duration":77907,"SoundDuration":77907,"Delta":47315558},{"NoteNumber":65,"Velocity":44,"Duration":90620,"SoundDuration":90620,"Delta":47393465},{"NoteNumber":66,"Velocity":45,"Duration":90375,"SoundDuration":90375,"Delta":47471160},{"NoteNumber":72,"Velocity":47,"Duration":90483,"SoundDuration":90483,"Delta":47548645},{"NoteNumber":70,"Velocity":45,"Duration":92460,"SoundDuration":92460,"Delta":47625919},{"NoteNumber":39,"Velocity":41,"Duration":158021,"SoundDuration":158021,"Delta":47625919},{"NoteNumber":60,"Velocity":47,"Duration":92104,"SoundDuration":92104,"Delta":47705171},{"NoteNumber":58,"Velocity":39,"Duration":93343,"SoundDuration":93343,"Delta":47783941},{"NoteNumber":41,"Velocity":49,"Duration":158381,"SoundDuration":158381,"Delta":47783941},{"NoteNumber":60,"Velocity":41,"Duration":91299,"SoundDuration":91299,"Delta":47863949},{"NoteNumber":61,"Velocity":43,"Duration":90270,"SoundDuration":90270,"Delta":47942322},{"NoteNumber":58,"Velocity":30,"Duration":77414,"SoundDuration":77414,"Delta":47942322},{"NoteNumber":49,"Velocity":26,"Duration":77414,"SoundDuration":77414,"Delta":47942322},{"NoteNumber":63,"Velocity":45,"Duration":89957,"SoundDuration":89957,"Delta":48019736},{"NoteNumber":65,"Velocity":47,"Duration":89645,"SoundDuration":89645,"Delta":48096873},{"NoteNumber":72,"Velocity":49,"Duration":90088,"SoundDuration":90088,"Delta":48173732},{"NoteNumber":70,"Velocity":47,"Duration":92956,"SoundDuration":92956,"Delta":48250541},{"NoteNumber":29,"Velocity":38,"Duration":159354,"SoundDuration":159354,"Delta":48250541},{"NoteNumber":66,"Velocity":48,"Duration":79677,"SoundDuration":79677,"Delta":48330218},{"NoteNumber":64,"Velocity":39,"Duration":91616,"SoundDuration":91616,"Delta":48409895},{"NoteNumber":41,"Velocity":39,"Duration":156810,"SoundDuration":156810,"Delta":48409895},{"NoteNumber":65,"Velocity":41,"Duration":91294,"SoundDuration":91294,"Delta":48488443},{"NoteNumber":66,"Velocity":42,"Duration":91009,"SoundDuration":91009,"Delta":48566705},{"NoteNumber":57,"Velocity":29,"Duration":78049,"SoundDuration":78049,"Delta":48566705},{"NoteNumber":51,"Velocity":25,"Duration":78049,"SoundDuration":78049,"Delta":48566705},{"NoteNumber":65,"Velocity":44,"Duration":90690,"SoundDuration":90690,"Delta":48644754},{"NoteNumber":70,"Velocity":47,"Duration":90446,"SoundDuration":90446,"Delta":48722519},{"NoteNumber":69,"Velocity":45,"Duration":90483,"SoundDuration":90483,"Delta":48800074},{"NoteNumber":78,"Velocity":54,"Duration":92460,"SoundDuration":92460,"Delta":48877349},{"NoteNumber":41,"Velocity":40,"Duration":158021,"SoundDuration":158021,"Delta":48877349},{"NoteNumber":77,"Velocity":52,"Duration":92104,"SoundDuration":92104,"Delta":48956601},{"NoteNumber":75,"Velocity":56,"Duration":93343,"SoundDuration":93343,"Delta":49035370},{"NoteNumber":46,"Velocity":57,"Duration":158050,"SoundDuration":158050,"Delta":49035370},{"NoteNumber":73,"Velocity":53,"Duration":90829,"SoundDuration":90829,"Delta":49115379},{"NoteNumber":70,"Velocity":51,"Duration":89714,"SoundDuration":89714,"Delta":49193421},{"NoteNumber":61,"Velocity":33,"Duration":76858,"SoundDuration":76858,"Delta":49193421},{"NoteNumber":53,"Velocity":28,"Duration":76858,"SoundDuration":76858,"Delta":49193421},{"NoteNumber":65,"Velocity":47,"Duration":90131,"SoundDuration":90131,"Delta":49270280},{"NoteNumber":63,"Velocity":47,"Duration":90585,"SoundDuration":90585,"Delta":49347485},{"NoteNumber":61,"Velocity":45,"Duration":91257,"SoundDuration":91257,"Delta":49425111},{"NoteNumber":58,"Velocity":44,"Duration":92956,"SoundDuration":92956,"Delta":49503088},{"NoteNumber":37,"Velocity":36,"Duration":158930,"SoundDuration":158930,"Delta":49503088},{"NoteNumber":53,"Velocity":42,"Duration":79253,"SoundDuration":79253,"Delta":49582765},{"NoteNumber":57,"Velocity":40,"Duration":91438,"SoundDuration":91438,"Delta":49662019},{"NoteNumber":39,"Velocity":43,"Duration":156596,"SoundDuration":156596,"Delta":49662019},{"NoteNumber":58,"Velocity":42,"Duration":91221,"SoundDuration":91221,"Delta":49740426},{"NoteNumber":60,"Velocity":42,"Duration":91045,"SoundDuration":91045,"Delta":49818616},{"NoteNumber":54,"Velocity":28,"Duration":78049,"SoundDuration":78049,"Delta":49818616},{"NoteNumber":45,"Velocity":23,"Duration":78049,"SoundDuration":78049,"Delta":49818616},{"NoteNumber":61,"Velocity":44,"Duration":90868,"SoundDuration":90868,"Delta":49896665},{"NoteNumber":63,"Velocity":45,"Duration":90690,"SoundDuration":90690,"Delta":49974573},{"NoteNumber":64,"Velocity":46,"Duration":90481,"SoundDuration":90481,"Delta":50052337},{"NoteNumber":65,"Velocity":47,"Duration":90304,"SoundDuration":90304,"Delta":50129893},{"NoteNumber":39,"Velocity":42,"Duration":154688,"SoundDuration":154688,"Delta":50129893},{"NoteNumber":66,"Velocity":48,"Duration":90485,"SoundDuration":90485,"Delta":50207307},{"NoteNumber":64,"Velocity":51,"Duration":92475,"SoundDuration":92475,"Delta":50284581},{"NoteNumber":37,"Velocity":56,"Duration":158529,"SoundDuration":158529,"Delta":50284581},{"NoteNumber":65,"Velocity":49,"Duration":92272,"SoundDuration":92272,"Delta":50363846},{"NoteNumber":62,"Velocity":47,"Duration":90468,"SoundDuration":90468,"Delta":50443110},{"NoteNumber":53,"Velocity":32,"Duration":77578,"SoundDuration":77578,"Delta":50443110},{"NoteNumber":46,"Velocity":21,"Duration":77578,"SoundDuration":77578,"Delta":50443110},{"NoteNumber":63,"Velocity":46,"Duration":90445,"SoundDuration":90445,"Delta":50520689},{"NoteNumber":60,"Velocity":45,"Duration":90760,"SoundDuration":90760,"Delta":50598173},{"NoteNumber":61,"Velocity":44,"Duration":91080,"SoundDuration":91080,"Delta":50675938},{"NoteNumber":60,"Velocity":43,"Duration":91402,"SoundDuration":91402,"Delta":50753987},{"NoteNumber":37,"Velocity":34,"Duration":157226,"SoundDuration":157226,"Delta":50753987},{"NoteNumber":58,"Velocity":41,"Duration":78892,"SoundDuration":78892,"Delta":50832322},{"NoteNumber":57,"Velocity":47,"Duration":91728,"SoundDuration":91728,"Delta":50911214},{"NoteNumber":39,"Velocity":48,"Duration":157103,"SoundDuration":157103,"Delta":50911214},{"NoteNumber":58,"Velocity":49,"Duration":91547,"SoundDuration":91547,"Delta":50989838},{"NoteNumber":60,"Velocity":50,"Duration":91366,"SoundDuration":91366,"Delta":51068318},{"NoteNumber":54,"Velocity":35,"Duration":78334,"SoundDuration":78334,"Delta":51068318},{"NoteNumber":45,"Velocity":30,"Duration":78334,"SoundDuration":78334,"Delta":51068318},{"NoteNumber":61,"Velocity":52,"Duration":91116,"SoundDuration":91116,"Delta":51146652},{"NoteNumber":63,"Velocity":54,"Duration":90939,"SoundDuration":90939,"Delta":51224772},{"NoteNumber":64,"Velocity":56,"Duration":90725,"SoundDuration":90725,"Delta":51302751},{"NoteNumber":65,"Velocity":58,"Duration":90551,"SoundDuration":90551,"Delta":51380515},{"NoteNumber":39,"Velocity":43,"Duration":155193,"SoundDuration":155193,"Delta":51380515},{"NoteNumber":66,"Velocity":60,"Duration":90902,"SoundDuration":90902,"Delta":51458141},{"NoteNumber":64,"Velocity":60,"Duration":93343,"SoundDuration":93343,"Delta":51535708},{"NoteNumber":37,"Velocity":63,"Duration":158475,"SoundDuration":158475,"Delta":51535708},{"NoteNumber":65,"Velocity":59,"Duration":91357,"SoundDuration":91357,"Delta":51615717},{"NoteNumber":62,"Velocity":57,"Duration":90269,"SoundDuration":90269,"Delta":51694184},{"NoteNumber":53,"Velocity":39,"Duration":77343,"SoundDuration":77343,"Delta":51694184},{"NoteNumber":46,"Velocity":33,"Duration":77343,"SoundDuration":77343,"Delta":51694184},{"NoteNumber":63,"Velocity":57,"Duration":90481,"SoundDuration":90481,"Delta":51771527},{"NoteNumber":60,"Velocity":55,"Duration":90655,"SoundDuration":90655,"Delta":51849083},{"NoteNumber":61,"Velocity":53,"Duration":90832,"SoundDuration":90832,"Delta":51926777},{"NoteNumber":60,"Velocity":53,"Duration":91216,"SoundDuration":91216,"Delta":52004613},{"NoteNumber":37,"Velocity":43,"Duration":156847,"SoundDuration":156847,"Delta":52004613},{"NoteNumber":58,"Velocity":51,"Duration":78798,"SoundDuration":78798,"Delta":52082662},{"NoteNumber":59,"Velocity":52,"Duration":91969,"SoundDuration":91969,"Delta":52161461},{"NoteNumber":39,"Velocity":48,"Duration":314494,"SoundDuration":314494,"Delta":52161461},{"NoteNumber":47,"Velocity":48,"Duration":314494,"SoundDuration":314494,"Delta":52161461},{"NoteNumber":54,"Velocity":57,"Duration":314494,"SoundDuration":314494,"Delta":52161461},{"NoteNumber":61,"Velocity":53,"Duration":91763,"SoundDuration":91763,"Delta":52240292},{"NoteNumber":63,"Velocity":55,"Duration":91658,"SoundDuration":91658,"Delta":52318951},{"NoteNumber":64,"Velocity":56,"Duration":91484,"SoundDuration":91484,"Delta":52397540},{"NoteNumber":66,"Velocity":58,"Duration":91484,"SoundDuration":91484,"Delta":52475955},{"NoteNumber":68,"Velocity":60,"Duration":91484,"SoundDuration":91484,"Delta":52554370},{"NoteNumber":70,"Velocity":62,"Duration":91484,"SoundDuration":91484,"Delta":52632785},{"NoteNumber":71,"Velocity":63,"Duration":91766,"SoundDuration":91766,"Delta":52711200},{"NoteNumber":73,"Velocity":66,"Duration":93457,"SoundDuration":93457,"Delta":52789615},{"NoteNumber":51,"Velocity":52,"Duration":320427,"SoundDuration":320427,"Delta":52789615},{"NoteNumber":54,"Velocity":52,"Duration":320427,"SoundDuration":320427,"Delta":52789615},{"NoteNumber":59,"Velocity":52,"Duration":320427,"SoundDuration":320427,"Delta":52789615},{"NoteNumber":66,"Velocity":61,"Duration":320427,"SoundDuration":320427,"Delta":52789615},{"NoteNumber":75,"Velocity":68,"Duration":93457,"SoundDuration":93457,"Delta":52869722},{"NoteNumber":76,"Velocity":70,"Duration":93457,"SoundDuration":93457,"Delta":52949829},{"NoteNumber":78,"Velocity":72,"Duration":93457,"SoundDuration":93457,"Delta":53029936},{"NoteNumber":80,"Velocity":73,"Duration":93457,"SoundDuration":93457,"Delta":53110042},{"NoteNumber":49,"Velocity":46,"Duration":320426,"SoundDuration":320426,"Delta":53110042},{"NoteNumber":54,"Velocity":46,"Duration":320426,"SoundDuration":320426,"Delta":53110042},{"NoteNumber":58,"Velocity":46,"Duration":320426,"SoundDuration":320426,"Delta":53110042},{"NoteNumber":64,"Velocity":55,"Duration":320426,"SoundDuration":320426,"Delta":53110042},{"NoteNumber":82,"Velocity":76,"Duration":93457,"SoundDuration":93457,"Delta":53190149},{"NoteNumber":83,"Velocity":77,"Duration":93457,"SoundDuration":93457,"Delta":53270256},{"NoteNumber":85,"Velocity":80,"Duration":93457,"SoundDuration":93457,"Delta":53350363},{"NoteNumber":88,"Velocity":81,"Duration":93457,"SoundDuration":93457,"Delta":53430469},{"NoteNumber":63,"Velocity":65,"Duration":640854,"SoundDuration":640854,"Delta":53430469},{"NoteNumber":47,"Velocity":55,"Duration":320427,"SoundDuration":320427,"Delta":53430469},{"NoteNumber":54,"Velocity":55,"Duration":320427,"SoundDuration":320427,"Delta":53430469},{"NoteNumber":87,"Velocity":78,"Duration":93457,"SoundDuration":93457,"Delta":53510576},{"NoteNumber":83,"Velocity":78,"Duration":93457,"SoundDuration":93457,"Delta":53590683},{"NoteNumber":80,"Velocity":77,"Duration":93457,"SoundDuration":93457,"Delta":53670790},{"NoteNumber":78,"Velocity":74,"Duration":93457,"SoundDuration":93457,"Delta":53750896},{"NoteNumber":75,"Velocity":72,"Duration":93457,"SoundDuration":93457,"Delta":53831003},{"NoteNumber":71,"Velocity":72,"Duration":93457,"SoundDuration":93457,"Delta":53911110},{"NoteNumber":68,"Velocity":70,"Duration":93457,"SoundDuration":93457,"Delta":53991217},{"NoteNumber":66,"Velocity":68,"Duration":93457,"SoundDuration":93457,"Delta":54071323},{"NoteNumber":63,"Velocity":64,"Duration":93457,"SoundDuration":93457,"Delta":54151430},{"NoteNumber":59,"Velocity":61,"Duration":93457,"SoundDuration":93457,"Delta":54231537},{"NoteNumber":56,"Velocity":61,"Duration":93457,"SoundDuration":93457,"Delta":54311644},{"NoteNumber":54,"Velocity":59,"Duration":93457,"SoundDuration":93457,"Delta":54391750},{"NoteNumber":51,"Velocity":59,"Duration":93457,"SoundDuration":93457,"Delta":54471857},{"NoteNumber":47,"Velocity":57,"Duration":93457,"SoundDuration":93457,"Delta":54551964},{"NoteNumber":44,"Velocity":56,"Duration":79468,"SoundDuration":79468,"Delta":54632071},{"NoteNumber":40,"Velocity":62,"Duration":92956,"SoundDuration":92956,"Delta":54711540},{"NoteNumber":28,"Velocity":52,"Duration":92956,"SoundDuration":92956,"Delta":54711540},{"NoteNumber":41,"Velocity":63,"Duration":92956,"SoundDuration":92956,"Delta":54791217},{"NoteNumber":29,"Velocity":52,"Duration":92956,"SoundDuration":92956,"Delta":54791217},{"NoteNumber":46,"Velocity":64,"Duration":92956,"SoundDuration":92956,"Delta":54870894},{"NoteNumber":34,"Velocity":52,"Duration":92956,"SoundDuration":92956,"Delta":54870894},{"NoteNumber":45,"Velocity":64,"Duration":92848,"SoundDuration":92848,"Delta":54950571},{"NoteNumber":33,"Velocity":53,"Duration":92848,"SoundDuration":92848,"Delta":54950571},{"NoteNumber":42,"Velocity":65,"Duration":92705,"SoundDuration":92705,"Delta":55030176},{"NoteNumber":30,"Velocity":53,"Duration":92705,"SoundDuration":92705,"Delta":55030176},{"NoteNumber":41,"Velocity":65,"Duration":92705,"SoundDuration":92705,"Delta":55109638},{"NoteNumber":29,"Velocity":53,"Duration":92705,"SoundDuration":92705,"Delta":55109638},{"NoteNumber":49,"Velocity":65,"Duration":92705,"SoundDuration":92705,"Delta":55189099},{"NoteNumber":37,"Velocity":54,"Duration":92705,"SoundDuration":92705,"Delta":55189099},{"NoteNumber":48,"Velocity":65,"Duration":92530,"SoundDuration":92530,"Delta":55268561},{"NoteNumber":36,"Velocity":54,"Duration":92530,"SoundDuration":92530,"Delta":55268561},{"NoteNumber":46,"Velocity":67,"Duration":92460,"SoundDuration":92460,"Delta":55347883},{"NoteNumber":34,"Velocity":54,"Duration":92460,"SoundDuration":92460,"Delta":55347883},{"NoteNumber":45,"Velocity":67,"Duration":92460,"SoundDuration":92460,"Delta":55427135},{"NoteNumber":33,"Velocity":55,"Duration":92460,"SoundDuration":92460,"Delta":55427135},{"NoteNumber":54,"Velocity":69,"Duration":92425,"SoundDuration":92425,"Delta":55506386},{"NoteNumber":42,"Velocity":55,"Duration":92425,"SoundDuration":92425,"Delta":55506386},{"NoteNumber":53,"Velocity":70,"Duration":92216,"SoundDuration":92216,"Delta":55585638},{"NoteNumber":41,"Velocity":56,"Duration":92216,"SoundDuration":92216,"Delta":55585638},{"NoteNumber":49,"Velocity":70,"Duration":92216,"SoundDuration":92216,"Delta":55664681},{"NoteNumber":37,"Velocity":56,"Duration":92216,"SoundDuration":92216,"Delta":55664681},{"NoteNumber":48,"Velocity":70,"Duration":92216,"SoundDuration":92216,"Delta":55743724},{"NoteNumber":36,"Velocity":56,"Duration":92216,"SoundDuration":92216,"Delta":55743724},{"NoteNumber":58,"Velocity":71,"Duration":92110,"SoundDuration":92110,"Delta":55822767},{"NoteNumber":46,"Velocity":56,"Duration":92110,"SoundDuration":92110,"Delta":55822767},{"NoteNumber":57,"Velocity":71,"Duration":91899,"SoundDuration":91899,"Delta":55901740},{"NoteNumber":45,"Velocity":56,"Duration":91899,"SoundDuration":91899,"Delta":55901740},{"NoteNumber":54,"Velocity":71,"Duration":91474,"SoundDuration":91474,"Delta":55980571},{"NoteNumber":42,"Velocity":56,"Duration":91474,"SoundDuration":91474,"Delta":55980571},{"NoteNumber":53,"Velocity":72,"Duration":91474,"SoundDuration":91474,"Delta":56058978},{"NoteNumber":41,"Velocity":57,"Duration":91474,"SoundDuration":91474,"Delta":56058978},{"NoteNumber":61,"Velocity":72,"Duration":91366,"SoundDuration":91366,"Delta":56137384},{"NoteNumber":49,"Velocity":57,"Duration":91366,"SoundDuration":91366,"Delta":56137384},{"NoteNumber":60,"Velocity":72,"Duration":91221,"SoundDuration":91221,"Delta":56215719},{"NoteNumber":48,"Velocity":57,"Duration":91221,"SoundDuration":91221,"Delta":56215719},{"NoteNumber":58,"Velocity":73,"Duration":91186,"SoundDuration":91186,"Delta":56293909},{"NoteNumber":46,"Velocity":58,"Duration":91186,"SoundDuration":91186,"Delta":56293909},{"NoteNumber":57,"Velocity":73,"Duration":90975,"SoundDuration":90975,"Delta":56372099},{"NoteNumber":45,"Velocity":58,"Duration":90975,"SoundDuration":90975,"Delta":56372099},{"NoteNumber":66,"Velocity":73,"Duration":90975,"SoundDuration":90975,"Delta":56450078},{"NoteNumber":54,"Velocity":58,"Duration":90975,"SoundDuration":90975,"Delta":56450078},{"NoteNumber":65,"Velocity":74,"Duration":90796,"SoundDuration":90796,"Delta":56528057},{"NoteNumber":53,"Velocity":59,"Duration":90796,"SoundDuration":90796,"Delta":56528057},{"NoteNumber":61,"Velocity":74,"Duration":90725,"SoundDuration":90725,"Delta":56605893},{"NoteNumber":49,"Velocity":59,"Duration":90725,"SoundDuration":90725,"Delta":56605893},{"NoteNumber":60,"Velocity":75,"Duration":90690,"SoundDuration":90690,"Delta":56683657},{"NoteNumber":48,"Velocity":60,"Duration":90690,"SoundDuration":90690,"Delta":56683657},{"NoteNumber":70,"Velocity":75,"Duration":90481,"SoundDuration":90481,"Delta":56761422},{"NoteNumber":58,"Velocity":60,"Duration":90481,"SoundDuration":90481,"Delta":56761422},{"NoteNumber":69,"Velocity":75,"Duration":90481,"SoundDuration":90481,"Delta":56838977},{"NoteNumber":57,"Velocity":60,"Duration":90481,"SoundDuration":90481,"Delta":56838977},{"NoteNumber":66,"Velocity":76,"Duration":90304,"SoundDuration":90304,"Delta":56916533},{"NoteNumber":54,"Velocity":60,"Duration":90304,"SoundDuration":90304,"Delta":56916533},{"NoteNumber":65,"Velocity":76,"Duration":90234,"SoundDuration":90234,"Delta":56993947},{"NoteNumber":53,"Velocity":60,"Duration":90234,"SoundDuration":90234,"Delta":56993947},{"NoteNumber":73,"Velocity":76,"Duration":90130,"SoundDuration":90130,"Delta":57071290},{"NoteNumber":61,"Velocity":60,"Duration":90130,"SoundDuration":90130,"Delta":57071290},{"NoteNumber":72,"Velocity":77,"Duration":77136,"SoundDuration":77136,"Delta":57148565},{"NoteNumber":60,"Velocity":61,"Duration":77136,"SoundDuration":77136,"Delta":57148565},{"NoteNumber":70,"Velocity":77,"Duration":89992,"SoundDuration":89992,"Delta":57225702},{"NoteNumber":58,"Velocity":61,"Duration":89992,"SoundDuration":89992,"Delta":57225702},{"NoteNumber":69,"Velocity":77,"Duration":89818,"SoundDuration":89818,"Delta":57302839},{"NoteNumber":57,"Velocity":61,"Duration":89818,"SoundDuration":89818,"Delta":57302839},{"NoteNumber":78,"Velocity":78,"Duration":89748,"SoundDuration":89748,"Delta":57379835},{"NoteNumber":66,"Velocity":62,"Duration":89748,"SoundDuration":89748,"Delta":57379835},{"NoteNumber":77,"Velocity":78,"Duration":89645,"SoundDuration":89645,"Delta":57456762},{"NoteNumber":65,"Velocity":62,"Duration":89645,"SoundDuration":89645,"Delta":57456762},{"NoteNumber":73,"Velocity":79,"Duration":89509,"SoundDuration":89509,"Delta":57533621},{"NoteNumber":61,"Velocity":63,"Duration":89509,"SoundDuration":89509,"Delta":57533621},{"NoteNumber":72,"Velocity":79,"Duration":89475,"SoundDuration":89475,"Delta":57610344},{"NoteNumber":60,"Velocity":63,"Duration":89475,"SoundDuration":89475,"Delta":57610344},{"NoteNumber":82,"Velocity":79,"Duration":89267,"SoundDuration":89267,"Delta":57687066},{"NoteNumber":70,"Velocity":63,"Duration":89267,"SoundDuration":89267,"Delta":57687066},{"NoteNumber":81,"Velocity":80,"Duration":89267,"SoundDuration":89267,"Delta":57763581},{"NoteNumber":69,"Velocity":64,"Duration":89267,"SoundDuration":89267,"Delta":57763581},{"NoteNumber":78,"Velocity":80,"Duration":89164,"SoundDuration":89164,"Delta":57840096},{"NoteNumber":66,"Velocity":64,"Duration":89164,"SoundDuration":89164,"Delta":57840096},{"NoteNumber":77,"Velocity":80,"Duration":89026,"SoundDuration":89026,"Delta":57916543},{"NoteNumber":65,"Velocity":64,"Duration":89026,"SoundDuration":89026,"Delta":57916543},{"NoteNumber":85,"Velocity":81,"Duration":88993,"SoundDuration":88993,"Delta":57992851},{"NoteNumber":73,"Velocity":64,"Duration":88993,"SoundDuration":88993,"Delta":57992851},{"NoteNumber":84,"Velocity":81,"Duration":88791,"SoundDuration":88791,"Delta":58069160},{"NoteNumber":72,"Velocity":64,"Duration":88791,"SoundDuration":88791,"Delta":58069160},{"NoteNumber":82,"Velocity":81,"Duration":88791,"SoundDuration":88791,"Delta":58145267},{"NoteNumber":70,"Velocity":64,"Duration":88791,"SoundDuration":88791,"Delta":58145267},{"NoteNumber":81,"Velocity":82,"Duration":88621,"SoundDuration":88621,"Delta":58221375},{"NoteNumber":69,"Velocity":65,"Duration":88621,"SoundDuration":88621,"Delta":58221375},{"NoteNumber":90,"Velocity":82,"Duration":88553,"SoundDuration":88553,"Delta":58297346},{"NoteNumber":78,"Velocity":65,"Duration":88553,"SoundDuration":88553,"Delta":58297346},{"NoteNumber":89,"Velocity":82,"Duration":88454,"SoundDuration":88454,"Delta":58373249},{"NoteNumber":77,"Velocity":65,"Duration":88454,"SoundDuration":88454,"Delta":58373249},{"NoteNumber":85,"Velocity":83,"Duration":88521,"SoundDuration":88521,"Delta":58449086},{"NoteNumber":73,"Velocity":66,"Duration":88521,"SoundDuration":88521,"Delta":58449086},{"NoteNumber":84,"Velocity":83,"Duration":88926,"SoundDuration":88926,"Delta":58524923},{"NoteNumber":72,"Velocity":66,"Duration":88926,"SoundDuration":88926,"Delta":58524923},{"NoteNumber":94,"Velocity":84,"Duration":89371,"SoundDuration":89371,"Delta":58601097},{"NoteNumber":82,"Velocity":67,"Duration":89371,"SoundDuration":89371,"Delta":58601097},{"NoteNumber":93,"Velocity":84,"Duration":89784,"SoundDuration":89784,"Delta":58677681},{"NoteNumber":81,"Velocity":67,"Duration":89784,"SoundDuration":89784,"Delta":58677681},{"NoteNumber":90,"Velocity":84,"Duration":90271,"SoundDuration":90271,"Delta":58754610},{"NoteNumber":78,"Velocity":67,"Duration":90271,"SoundDuration":90271,"Delta":58754610},{"NoteNumber":89,"Velocity":85,"Duration":90691,"SoundDuration":90691,"Delta":58831955},{"NoteNumber":77,"Velocity":68,"Duration":90691,"SoundDuration":90691,"Delta":58831955},{"NoteNumber":97,"Velocity":85,"Duration":91187,"SoundDuration":91187,"Delta":58909650},{"NoteNumber":85,"Velocity":68,"Duration":91187,"SoundDuration":91187,"Delta":58909650},{"NoteNumber":96,"Velocity":85,"Duration":92622,"SoundDuration":92622,"Delta":58987770},{"NoteNumber":84,"Velocity":68,"Duration":92622,"SoundDuration":92622,"Delta":58987770},{"NoteNumber":101,"Velocity":93,"Duration":98497,"SoundDuration":98497,"Delta":59066322},{"NoteNumber":89,"Velocity":74,"Duration":98497,"SoundDuration":98497,"Delta":59066322},{"NoteNumber":63,"Velocity":85,"Duration":84426,"SoundDuration":84426,"Delta":59404027},{"NoteNumber":69,"Velocity":85,"Duration":84426,"SoundDuration":84426,"Delta":59404027},{"NoteNumber":77,"Velocity":100,"Duration":84426,"SoundDuration":84426,"Delta":59404027},{"NoteNumber":41,"Velocity":64,"Duration":84426,"SoundDuration":84426,"Delta":59404027},{"NoteNumber":53,"Velocity":75,"Duration":84426,"SoundDuration":84426,"Delta":59404027},{"NoteNumber":34,"Velocity":91,"Duration":97757,"SoundDuration":97757,"Delta":59661333},{"NoteNumber":82,"Velocity":113,"Duration":343564,"SoundDuration":343564,"Delta":59759091},{"NoteNumber":70,"Velocity":100,"Duration":343564,"SoundDuration":343564,"Delta":59759091},{"NoteNumber":46,"Velocity":72,"Duration":343564,"SoundDuration":343564,"Delta":59759091},{"NoteNumber":53,"Velocity":72,"Duration":343564,"SoundDuration":343564,"Delta":59759091},{"NoteNumber":61,"Velocity":86,"Duration":343564,"SoundDuration":343564,"Delta":59759091}],"license":{"name":"Creative Commons Attribution-ShareAlike 3.0 Germany","url":"http://creativecommons.org/licenses/by-sa/3.0/de/deed.en","text":"The MIDI, audio (MP3, OGG) and video files of Bernd Krueger are licensed under the cc-by-sa Germany License. This means that you can use and adapt the files, as long as you attribute the copyright holder.\n\nName: Bernd Krueger\nSource: http://www.piano-midi.de\n\nThe distribution or public playback of the files is only allowed under identical license conditions.\n\nThe scores are open source.","attribution":"MIDI files by Bernd Krueger (piano-midi.de)"}}