{"title":"Chopin Prelude No. 2, Opus 28","artist":"Chopin","durationMs":113575,"midiSha256":"dc43fd098dc63ac3235eb650c27e9d80536bc73fde57ea8f53e79b6570df86ef","midiObject":[{"NoteNumber":40,"Velocity":34,"Duration":569047,"SoundDuration":569047,"Delta":0},{"NoteNumber":47,"Velocity":40,"Duration":569047,"SoundDuration":569047,"Delta":0},{"NoteNumber":46,"Velocity":28,"Duration":600000,"SoundDuration":600000,"Delta":569048},{"NoteNumber":55,"Velocity":34,"Duration":600000,"SoundDuration":600000,"Delta":569048},{"NoteNumber":40,"Velocity":34,"Duration":566037,"SoundDuration":566037,"Delta":1169048},{"NoteNumber":47,"Velocity":40,"Duration":566037,"SoundDuration":566037,"Delta":1169048},{"NoteNumber":43,"Velocity":28,"Duration":566037,"SoundDuration":566037,"Delta":1735086},{"NoteNumber":55,"Velocity":34,"Duration":566037,"SoundDuration":566037,"Delta":1735086},{"NoteNumber":40,"Velocity":34,"Duration":571428,"SoundDuration":571428,"Delta":2301123},{"NoteNumber":47,"Velocity":40,"Duration":571428,"SoundDuration":571428,"Delta":2301123},{"NoteNumber":46,"Velocity":28,"Duration":571428,"SoundDuration":571428,"Delta":2872552},{"NoteNumber":55,"Velocity":34,"Duration":571428,"SoundDuration":571428,"Delta":2872552},{"NoteNumber":47,"Velocity":40,"Duration":571428,"SoundDuration":571428,"Delta":3443980},{"NoteNumber":40,"Velocity":34,"Duration":571428,"SoundDuration":571428,"Delta":3443980},{"NoteNumber":43,"Velocity":27,"Duration":599999,"SoundDuration":599999,"Delta":4015408},{"NoteNumber":55,"Velocity":33,"Duration":599999,"SoundDuration":599999,"Delta":4015408},{"NoteNumber":47,"Velocity":40,"Duration":566037,"SoundDuration":566037,"Delta":4615408},{"NoteNumber":40,"Velocity":34,"Duration":566037,"SoundDuration":566037,"Delta":4615408},{"NoteNumber":55,"Velocity":33,"Duration":566037,"SoundDuration":566037,"Delta":5181446},{"NoteNumber":46,"Velocity":27,"Duration":566037,"SoundDuration":566037,"Delta":5181446},{"NoteNumber":40,"Velocity":31,"Duration":571428,"SoundDuration":571428,"Delta":5747483},{"NoteNumber":47,"Velocity":38,"Duration":571428,"SoundDuration":571428,"Delta":5747483},{"NoteNumber":43,"Velocity":26,"Duration":594059,"SoundDuration":594059,"Delta":6318912},{"NoteNumber":55,"Velocity":31,"Duration":594059,"SoundDuration":594059,"Delta":6318912},{"NoteNumber":40,"Velocity":30,"Duration":571428,"SoundDuration":571428,"Delta":6912971},{"NoteNumber":47,"Velocity":36,"Duration":571428,"SoundDuration":571428,"Delta":6912971},{"NoteNumber":46,"Velocity":25,"Duration":594059,"SoundDuration":594059,"Delta":7484400},{"NoteNumber":55,"Velocity":29,"Duration":594059,"SoundDuration":594059,"Delta":7484400},{"NoteNumber":47,"Velocity":35,"Duration":594059,"SoundDuration":594059,"Delta":8078459},{"NoteNumber":40,"Velocity":28,"Duration":594059,"SoundDuration":594059,"Delta":8078459},{"NoteNumber":43,"Velocity":22,"Duration":652173,"SoundDuration":652173,"Delta":8672519},{"NoteNumber":55,"Velocity":26,"Duration":652173,"SoundDuration":652173,"Delta":8672519},{"NoteNumber":64,"Velocity":55,"Duration":4126388,"SoundDuration":4126388,"Delta":9324693},{"NoteNumber":47,"Velocity":33,"Duration":582524,"SoundDuration":582524,"Delta":9324693},{"NoteNumber":40,"Velocity":27,"Duration":582524,"SoundDuration":582524,"Delta":9324693},{"NoteNumber":46,"Velocity":23,"Duration":599999,"SoundDuration":599999,"Delta":9907217},{"NoteNumber":55,"Velocity":27,"Duration":599999,"SoundDuration":599999,"Delta":9907217},{"NoteNumber":47,"Velocity":33,"Duration":566037,"SoundDuration":566037,"Delta":10507217},{"NoteNumber":40,"Velocity":27,"Duration":566037,"SoundDuration":566037,"Delta":10507217},{"NoteNumber":43,"Velocity":23,"Duration":566037,"SoundDuration":566037,"Delta":11073255},{"NoteNumber":55,"Velocity":27,"Duration":566037,"SoundDuration":566037,"Delta":11073255},{"NoteNumber":47,"Velocity":33,"Duration":560747,"SoundDuration":560747,"Delta":11639292},{"NoteNumber":40,"Velocity":27,"Duration":560747,"SoundDuration":560747,"Delta":11639292},{"NoteNumber":46,"Velocity":23,"Duration":599999,"SoundDuration":599999,"Delta":12200040},{"NoteNumber":55,"Velocity":27,"Duration":599999,"SoundDuration":599999,"Delta":12200040},{"NoteNumber":47,"Velocity":33,"Duration":625000,"SoundDuration":625000,"Delta":12800040},{"NoteNumber":40,"Velocity":27,"Duration":625000,"SoundDuration":625000,"Delta":12800040},{"NoteNumber":55,"Velocity":26,"Duration":625000,"SoundDuration":625000,"Delta":13425040},{"NoteNumber":43,"Velocity":22,"Duration":625000,"SoundDuration":625000,"Delta":13425040},{"NoteNumber":59,"Velocity":41,"Duration":610532,"SoundDuration":610532,"Delta":13451082},{"NoteNumber":38,"Velocity":27,"Duration":555555,"SoundDuration":555555,"Delta":14050040},{"NoteNumber":47,"Velocity":33,"Duration":555555,"SoundDuration":555555,"Delta":14050040},{"NoteNumber":62,"Velocity":55,"Duration":4483946,"SoundDuration":4483946,"Delta":14061614},{"NoteNumber":55,"Velocity":27,"Duration":555555,"SoundDuration":555555,"Delta":14605595},{"NoteNumber":46,"Velocity":23,"Duration":555555,"SoundDuration":555555,"Delta":14605595},{"NoteNumber":38,"Velocity":27,"Duration":560747,"SoundDuration":560747,"Delta":15161151},{"NoteNumber":47,"Velocity":33,"Duration":560747,"SoundDuration":560747,"Delta":15161151},{"NoteNumber":55,"Velocity":27,"Duration":588235,"SoundDuration":588235,"Delta":15721898},{"NoteNumber":43,"Velocity":23,"Duration":588235,"SoundDuration":588235,"Delta":15721898},{"NoteNumber":47,"Velocity":33,"Duration":545454,"SoundDuration":545454,"Delta":16310134},{"NoteNumber":38,"Velocity":27,"Duration":545454,"SoundDuration":545454,"Delta":16310134},{"NoteNumber":46,"Velocity":23,"Duration":545454,"SoundDuration":545454,"Delta":16855588},{"NoteNumber":55,"Velocity":27,"Duration":545454,"SoundDuration":545454,"Delta":16855588},{"NoteNumber":47,"Velocity":33,"Duration":550458,"SoundDuration":550458,"Delta":17401043},{"NoteNumber":38,"Velocity":27,"Duration":550458,"SoundDuration":550458,"Delta":17401043},{"NoteNumber":43,"Velocity":22,"Duration":594059,"SoundDuration":594059,"Delta":17951501},{"NoteNumber":55,"Velocity":26,"Duration":594059,"SoundDuration":594059,"Delta":17951501},{"NoteNumber":62,"Velocity":55,"Duration":1619417,"SoundDuration":1619417,"Delta":18545561},{"NoteNumber":45,"Velocity":33,"Duration":600000,"SoundDuration":600000,"Delta":18545561},{"NoteNumber":38,"Velocity":27,"Duration":600000,"SoundDuration":600000,"Delta":18545561},{"NoteNumber":55,"Velocity":27,"Duration":582524,"SoundDuration":582524,"Delta":19145561},{"NoteNumber":44,"Velocity":23,"Duration":582524,"SoundDuration":582524,"Delta":19145561},{"NoteNumber":38,"Velocity":27,"Duration":582524,"SoundDuration":582524,"Delta":19728086},{"NoteNumber":45,"Velocity":33,"Duration":582524,"SoundDuration":582524,"Delta":19728086},{"NoteNumber":66,"Velocity":44,"Duration":145631,"SoundDuration":145631,"Delta":20164979},{"NoteNumber":64,"Velocity":51,"Duration":582524,"SoundDuration":582524,"Delta":20310610},{"NoteNumber":55,"Velocity":27,"Duration":582524,"SoundDuration":582524,"Delta":20310610},{"NoteNumber":43,"Velocity":23,"Duration":582524,"SoundDuration":582524,"Delta":20310610},{"NoteNumber":62,"Velocity":53,"Duration":1727988,"SoundDuration":1727988,"Delta":20893135},{"NoteNumber":38,"Velocity":27,"Duration":550458,"SoundDuration":550458,"Delta":20893135},{"NoteNumber":45,"Velocity":33,"Duration":550458,"SoundDuration":550458,"Delta":20893135},{"NoteNumber":54,"Velocity":27,"Duration":571428,"SoundDuration":571428,"Delta":21443593},{"NoteNumber":44,"Velocity":23,"Duration":571428,"SoundDuration":571428,"Delta":21443593},{"NoteNumber":38,"Velocity":27,"Duration":606101,"SoundDuration":606101,"Delta":22015022},{"NoteNumber":45,"Velocity":33,"Duration":606101,"SoundDuration":606101,"Delta":22015022},{"NoteNumber":57,"Velocity":41,"Duration":626164,"SoundDuration":626164,"Delta":22621123},{"NoteNumber":54,"Velocity":26,"Duration":626164,"SoundDuration":626164,"Delta":22621123},{"NoteNumber":42,"Velocity":22,"Duration":626164,"SoundDuration":626164,"Delta":22621123},{"NoteNumber":59,"Velocity":52,"Duration":1175000,"SoundDuration":1175000,"Delta":23247288},{"NoteNumber":31,"Velocity":27,"Duration":600000,"SoundDuration":600000,"Delta":23247288},{"NoteNumber":43,"Velocity":33,"Duration":600000,"SoundDuration":600000,"Delta":23247288},{"NoteNumber":55,"Velocity":26,"Duration":599999,"SoundDuration":599999,"Delta":23847288},{"NoteNumber":52,"Velocity":22,"Duration":599999,"SoundDuration":599999,"Delta":23847288},{"NoteNumber":59,"Velocity":48,"Duration":943772,"SoundDuration":943772,"Delta":24447288},{"NoteNumber":43,"Velocity":25,"Duration":640658,"SoundDuration":640658,"Delta":24447288},{"NoteNumber":50,"Velocity":29,"Duration":640658,"SoundDuration":640658,"Delta":24447288},{"NoteNumber":51,"Velocity":19,"Duration":670523,"SoundDuration":670523,"Delta":25087947},{"NoteNumber":55,"Velocity":24,"Duration":670523,"SoundDuration":670523,"Delta":25087947},{"NoteNumber":59,"Velocity":44,"Duration":311223,"SoundDuration":311223,"Delta":25418838},{"NoteNumber":59,"Velocity":46,"Duration":4480236,"SoundDuration":4480236,"Delta":25758471},{"NoteNumber":43,"Velocity":23,"Duration":576923,"SoundDuration":576923,"Delta":25758471},{"NoteNumber":50,"Velocity":27,"Duration":576923,"SoundDuration":576923,"Delta":25758471},{"NoteNumber":52,"Velocity":18,"Duration":600000,"SoundDuration":600000,"Delta":26335394},{"NoteNumber":55,"Velocity":23,"Duration":600000,"SoundDuration":600000,"Delta":26335394},{"NoteNumber":50,"Velocity":27,"Duration":560747,"SoundDuration":560747,"Delta":26935394},{"NoteNumber":43,"Velocity":23,"Duration":560747,"SoundDuration":560747,"Delta":26935394},{"NoteNumber":55,"Velocity":22,"Duration":560747,"SoundDuration":560747,"Delta":27496141},{"NoteNumber":51,"Velocity":18,"Duration":560747,"SoundDuration":560747,"Delta":27496141},{"NoteNumber":43,"Velocity":24,"Duration":545454,"SoundDuration":545454,"Delta":28056889},{"NoteNumber":50,"Velocity":29,"Duration":545454,"SoundDuration":545454,"Delta":28056889},{"NoteNumber":55,"Velocity":25,"Duration":545454,"SoundDuration":545454,"Delta":28602343},{"NoteNumber":52,"Velocity":20,"Duration":545454,"SoundDuration":545454,"Delta":28602343},{"NoteNumber":43,"Velocity":25,"Duration":545454,"SoundDuration":545454,"Delta":29147798},{"NoteNumber":50,"Velocity":30,"Duration":545454,"SoundDuration":545454,"Delta":29147798},{"NoteNumber":51,"Velocity":22,"Duration":545454,"SoundDuration":545454,"Delta":29693252},{"NoteNumber":55,"Velocity":26,"Duration":545454,"SoundDuration":545454,"Delta":29693252},{"NoteNumber":43,"Velocity":26,"Duration":545454,"SoundDuration":545454,"Delta":30238707},{"NoteNumber":50,"Velocity":31,"Duration":545454,"SoundDuration":545454,"Delta":30238707},{"NoteNumber":52,"Velocity":23,"Duration":555555,"SoundDuration":555555,"Delta":30784161},{"NoteNumber":55,"Velocity":27,"Duration":555555,"SoundDuration":555555,"Delta":30784161},{"NoteNumber":43,"Velocity":27,"Duration":566037,"SoundDuration":566037,"Delta":31339717},{"NoteNumber":50,"Velocity":33,"Duration":566037,"SoundDuration":566037,"Delta":31339717},{"NoteNumber":55,"Velocity":26,"Duration":566037,"SoundDuration":566037,"Delta":31905754},{"NoteNumber":51,"Velocity":22,"Duration":566037,"SoundDuration":566037,"Delta":31905754},{"NoteNumber":47,"Velocity":27,"Duration":568732,"SoundDuration":568732,"Delta":32471792},{"NoteNumber":54,"Velocity":33,"Duration":568732,"SoundDuration":568732,"Delta":32471792},{"NoteNumber":53,"Velocity":23,"Duration":571428,"SoundDuration":571428,"Delta":33040525},{"NoteNumber":62,"Velocity":27,"Duration":571428,"SoundDuration":571428,"Delta":33040525},{"NoteNumber":47,"Velocity":27,"Duration":571428,"SoundDuration":571428,"Delta":33611953},{"NoteNumber":54,"Velocity":33,"Duration":571428,"SoundDuration":571428,"Delta":33611953},{"NoteNumber":50,"Velocity":23,"Duration":620726,"SoundDuration":620726,"Delta":34183382},{"NoteNumber":62,"Velocity":27,"Duration":620726,"SoundDuration":620726,"Delta":34183382},{"NoteNumber":71,"Velocity":62,"Duration":1742857,"SoundDuration":1742857,"Delta":34804109},{"NoteNumber":54,"Velocity":33,"Duration":600000,"SoundDuration":600000,"Delta":34804109},{"NoteNumber":47,"Velocity":27,"Duration":600000,"SoundDuration":600000,"Delta":34804109},{"NoteNumber":53,"Velocity":23,"Duration":571428,"SoundDuration":571428,"Delta":35404109},{"NoteNumber":62,"Velocity":27,"Duration":571428,"SoundDuration":571428,"Delta":35404109},{"NoteNumber":54,"Velocity":33,"Duration":571428,"SoundDuration":571428,"Delta":35975537},{"NoteNumber":47,"Velocity":27,"Duration":571428,"SoundDuration":571428,"Delta":35975537},{"NoteNumber":50,"Velocity":22,"Duration":638297,"SoundDuration":638297,"Delta":36546966},{"NoteNumber":62,"Velocity":26,"Duration":638297,"SoundDuration":638297,"Delta":36546966},{"NoteNumber":66,"Velocity":53,"Duration":636904,"SoundDuration":636904,"Delta":36560263},{"NoteNumber":54,"Velocity":33,"Duration":571428,"SoundDuration":571428,"Delta":37185264},{"NoteNumber":45,"Velocity":27,"Duration":571428,"SoundDuration":571428,"Delta":37185264},{"NoteNumber":69,"Velocity":59,"Duration":4531292,"SoundDuration":4531292,"Delta":37197168},{"NoteNumber":53,"Velocity":23,"Duration":594059,"SoundDuration":594059,"Delta":37756692},{"NoteNumber":62,"Velocity":27,"Duration":594059,"SoundDuration":594059,"Delta":37756692},{"NoteNumber":45,"Velocity":27,"Duration":560747,"SoundDuration":560747,"Delta":38350752},{"NoteNumber":54,"Velocity":33,"Duration":560747,"SoundDuration":560747,"Delta":38350752},{"NoteNumber":50,"Velocity":23,"Duration":560747,"SoundDuration":560747,"Delta":38911499},{"NoteNumber":62,"Velocity":27,"Duration":560747,"SoundDuration":560747,"Delta":38911499},{"NoteNumber":45,"Velocity":27,"Duration":545454,"SoundDuration":545454,"Delta":39472247},{"NoteNumber":54,"Velocity":33,"Duration":545454,"SoundDuration":545454,"Delta":39472247},{"NoteNumber":53,"Velocity":23,"Duration":545454,"SoundDuration":545454,"Delta":40017701},{"NoteNumber":62,"Velocity":27,"Duration":545454,"SoundDuration":545454,"Delta":40017701},{"NoteNumber":54,"Velocity":33,"Duration":575109,"SoundDuration":575109,"Delta":40563156},{"NoteNumber":45,"Velocity":27,"Duration":575109,"SoundDuration":575109,"Delta":40563156},{"NoteNumber":50,"Velocity":22,"Duration":590195,"SoundDuration":590195,"Delta":41138265},{"NoteNumber":62,"Velocity":26,"Duration":590195,"SoundDuration":590195,"Delta":41138265},{"NoteNumber":69,"Velocity":51,"Duration":1592789,"SoundDuration":1592789,"Delta":41728461},{"NoteNumber":52,"Velocity":33,"Duration":566037,"SoundDuration":566037,"Delta":41728461},{"NoteNumber":45,"Velocity":27,"Duration":566037,"SoundDuration":566037,"Delta":41728461},{"NoteNumber":62,"Velocity":27,"Duration":594059,"SoundDuration":594059,"Delta":42294498},{"NoteNumber":51,"Velocity":23,"Duration":594059,"SoundDuration":594059,"Delta":42294498},{"NoteNumber":52,"Velocity":33,"Duration":576923,"SoundDuration":576923,"Delta":42888558},{"NoteNumber":45,"Velocity":27,"Duration":576923,"SoundDuration":576923,"Delta":42888558},{"NoteNumber":73,"Velocity":38,"Duration":144230,"SoundDuration":144230,"Delta":43321250},{"NoteNumber":71,"Velocity":47,"Duration":576923,"SoundDuration":576923,"Delta":43465481},{"NoteNumber":62,"Velocity":27,"Duration":576923,"SoundDuration":576923,"Delta":43465481},{"NoteNumber":50,"Velocity":23,"Duration":576923,"SoundDuration":576923,"Delta":43465481},{"NoteNumber":69,"Velocity":51,"Duration":1677050,"SoundDuration":1677050,"Delta":44042404},{"NoteNumber":45,"Velocity":28,"Duration":560747,"SoundDuration":560747,"Delta":44042404},{"NoteNumber":52,"Velocity":28,"Duration":560747,"SoundDuration":560747,"Delta":44042404},{"NoteNumber":61,"Velocity":27,"Duration":560747,"SoundDuration":560747,"Delta":44603151},{"NoteNumber":51,"Velocity":23,"Duration":560747,"SoundDuration":560747,"Delta":44603151},{"NoteNumber":45,"Velocity":27,"Duration":555555,"SoundDuration":555555,"Delta":45163899},{"NoteNumber":52,"Velocity":33,"Duration":555555,"SoundDuration":555555,"Delta":45163899},{"NoteNumber":64,"Velocity":46,"Duration":582524,"SoundDuration":582524,"Delta":45719454},{"NoteNumber":49,"Velocity":22,"Duration":582524,"SoundDuration":582524,"Delta":45719454},{"NoteNumber":61,"Velocity":26,"Duration":582524,"SoundDuration":582524,"Delta":45719454},{"NoteNumber":66,"Velocity":53,"Duration":1111307,"SoundDuration":1111307,"Delta":46301979},{"NoteNumber":45,"Velocity":27,"Duration":553055,"SoundDuration":553055,"Delta":46301979},{"NoteNumber":51,"Velocity":33,"Duration":553055,"SoundDuration":553055,"Delta":46301979},{"NoteNumber":50,"Velocity":25,"Duration":582524,"SoundDuration":582524,"Delta":46855034},{"NoteNumber":61,"Velocity":29,"Duration":582524,"SoundDuration":582524,"Delta":46855034},{"NoteNumber":66,"Velocity":58,"Duration":901718,"SoundDuration":901718,"Delta":47437558},{"NoteNumber":45,"Velocity":31,"Duration":612245,"SoundDuration":612245,"Delta":47437558},{"NoteNumber":51,"Velocity":38,"Duration":612245,"SoundDuration":612245,"Delta":47437558},{"NoteNumber":61,"Velocity":34,"Duration":631579,"SoundDuration":631579,"Delta":48049803},{"NoteNumber":49,"Velocity":28,"Duration":631579,"SoundDuration":631579,"Delta":48049803},{"NoteNumber":66,"Velocity":56,"Duration":289473,"SoundDuration":289473,"Delta":48365593},{"NoteNumber":66,"Velocity":63,"Duration":4440779,"SoundDuration":4440779,"Delta":48681382},{"NoteNumber":45,"Velocity":36,"Duration":566037,"SoundDuration":566037,"Delta":48681382},{"NoteNumber":51,"Velocity":44,"Duration":566037,"SoundDuration":566037,"Delta":48681382},{"NoteNumber":61,"Velocity":36,"Duration":571428,"SoundDuration":571428,"Delta":49247420},{"NoteNumber":50,"Velocity":30,"Duration":571428,"SoundDuration":571428,"Delta":49247420},{"NoteNumber":45,"Velocity":36,"Duration":560747,"SoundDuration":560747,"Delta":49818848},{"NoteNumber":51,"Velocity":44,"Duration":560747,"SoundDuration":560747,"Delta":49818848},{"NoteNumber":61,"Velocity":35,"Duration":560747,"SoundDuration":560747,"Delta":50379596},{"NoteNumber":49,"Velocity":29,"Duration":560747,"SoundDuration":560747,"Delta":50379596},{"NoteNumber":45,"Velocity":36,"Duration":545454,"SoundDuration":545454,"Delta":50940343},{"NoteNumber":51,"Velocity":44,"Duration":545454,"SoundDuration":545454,"Delta":50940343},{"NoteNumber":50,"Velocity":30,"Duration":545454,"SoundDuration":545454,"Delta":51485798},{"NoteNumber":61,"Velocity":36,"Duration":545454,"SoundDuration":545454,"Delta":51485798},{"NoteNumber":45,"Velocity":36,"Duration":545454,"SoundDuration":545454,"Delta":52031252},{"NoteNumber":51,"Velocity":44,"Duration":545454,"SoundDuration":545454,"Delta":52031252},{"NoteNumber":49,"Velocity":30,"Duration":545454,"SoundDuration":545454,"Delta":52576707},{"NoteNumber":61,"Velocity":36,"Duration":545454,"SoundDuration":545454,"Delta":52576707},{"NoteNumber":51,"Velocity":44,"Duration":555555,"SoundDuration":555555,"Delta":53122161},{"NoteNumber":45,"Velocity":36,"Duration":555555,"SoundDuration":555555,"Delta":53122161},{"NoteNumber":50,"Velocity":30,"Duration":568783,"SoundDuration":568783,"Delta":53677717},{"NoteNumber":60,"Velocity":36,"Duration":568783,"SoundDuration":568783,"Delta":53677717},{"NoteNumber":45,"Velocity":36,"Duration":555555,"SoundDuration":555555,"Delta":54246500},{"NoteNumber":51,"Velocity":44,"Duration":555555,"SoundDuration":555555,"Delta":54246500},{"NoteNumber":48,"Velocity":29,"Duration":571428,"SoundDuration":571428,"Delta":54802055},{"NoteNumber":60,"Velocity":35,"Duration":571428,"SoundDuration":571428,"Delta":54802055},{"NoteNumber":42,"Velocity":36,"Duration":566037,"SoundDuration":566037,"Delta":55373484},{"NoteNumber":51,"Velocity":44,"Duration":566037,"SoundDuration":566037,"Delta":55373484},{"NoteNumber":50,"Velocity":29,"Duration":560747,"SoundDuration":560747,"Delta":55939521},{"NoteNumber":57,"Velocity":35,"Duration":560747,"SoundDuration":560747,"Delta":55939521},{"NoteNumber":51,"Velocity":40,"Duration":545454,"SoundDuration":545454,"Delta":56500269},{"NoteNumber":42,"Velocity":34,"Duration":545454,"SoundDuration":545454,"Delta":56500269},{"NoteNumber":48,"Velocity":27,"Duration":566037,"SoundDuration":566037,"Delta":57045723},{"NoteNumber":57,"Velocity":33,"Duration":566037,"SoundDuration":566037,"Delta":57045723},{"NoteNumber":51,"Velocity":38,"Duration":555555,"SoundDuration":555555,"Delta":57611761},{"NoteNumber":42,"Velocity":31,"Duration":555555,"SoundDuration":555555,"Delta":57611761},{"NoteNumber":57,"Velocity":30,"Duration":555555,"SoundDuration":555555,"Delta":58167316},{"NoteNumber":50,"Velocity":25,"Duration":555555,"SoundDuration":555555,"Delta":58167316},{"NoteNumber":42,"Velocity":28,"Duration":571428,"SoundDuration":571428,"Delta":58722872},{"NoteNumber":51,"Velocity":34,"Duration":571428,"SoundDuration":571428,"Delta":58722872},{"NoteNumber":48,"Velocity":20,"Duration":571428,"SoundDuration":571428,"Delta":59294300},{"NoteNumber":57,"Velocity":26,"Duration":571428,"SoundDuration":571428,"Delta":59294300},{"NoteNumber":42,"Velocity":26,"Duration":600000,"SoundDuration":600000,"Delta":59865729},{"NoteNumber":51,"Velocity":31,"Duration":600000,"SoundDuration":600000,"Delta":59865729},{"NoteNumber":50,"Velocity":22,"Duration":652174,"SoundDuration":652174,"Delta":60465729},{"NoteNumber":57,"Velocity":26,"Duration":652174,"SoundDuration":652174,"Delta":60465729},{"NoteNumber":69,"Velocity":55,"Duration":7408152,"SoundDuration":7408152,"Delta":61117903},{"NoteNumber":51,"Velocity":31,"Duration":571428,"SoundDuration":571428,"Delta":61117903},{"NoteNumber":42,"Velocity":26,"Duration":571428,"SoundDuration":571428,"Delta":61117903},{"NoteNumber":48,"Velocity":22,"Duration":588235,"SoundDuration":588235,"Delta":61689331},{"NoteNumber":57,"Velocity":26,"Duration":588235,"SoundDuration":588235,"Delta":61689331},{"NoteNumber":51,"Velocity":30,"Duration":566037,"SoundDuration":566037,"Delta":62277567},{"NoteNumber":41,"Velocity":26,"Duration":566037,"SoundDuration":566037,"Delta":62277567},{"NoteNumber":50,"Velocity":22,"Duration":566037,"SoundDuration":566037,"Delta":62843604},{"NoteNumber":57,"Velocity":26,"Duration":566037,"SoundDuration":566037,"Delta":62843604},{"NoteNumber":51,"Velocity":30,"Duration":566037,"SoundDuration":566037,"Delta":63409642},{"NoteNumber":41,"Velocity":25,"Duration":566037,"SoundDuration":566037,"Delta":63409642},{"NoteNumber":47,"Velocity":20,"Duration":566037,"SoundDuration":566037,"Delta":63975679},{"NoteNumber":57,"Velocity":24,"Duration":566037,"SoundDuration":566037,"Delta":63975679},{"NoteNumber":48,"Velocity":30,"Duration":566037,"SoundDuration":566037,"Delta":64541717},{"NoteNumber":40,"Velocity":25,"Duration":566037,"SoundDuration":566037,"Delta":64541717},{"NoteNumber":47,"Velocity":20,"Duration":566037,"SoundDuration":566037,"Delta":65107754},{"NoteNumber":57,"Velocity":25,"Duration":566037,"SoundDuration":566037,"Delta":65107754},{"NoteNumber":48,"Velocity":29,"Duration":576922,"SoundDuration":576922,"Delta":65673792},{"NoteNumber":40,"Velocity":25,"Duration":576922,"SoundDuration":576922,"Delta":65673792},{"NoteNumber":57,"Velocity":25,"Duration":576923,"SoundDuration":576923,"Delta":66250715},{"NoteNumber":45,"Velocity":20,"Duration":576923,"SoundDuration":576923,"Delta":66250715},{"NoteNumber":40,"Velocity":25,"Duration":560747,"SoundDuration":560747,"Delta":66827638},{"NoteNumber":48,"Velocity":29,"Duration":560747,"SoundDuration":560747,"Delta":66827638},{"NoteNumber":57,"Velocity":24,"Duration":560747,"SoundDuration":560747,"Delta":67388385},{"NoteNumber":47,"Velocity":20,"Duration":560747,"SoundDuration":560747,"Delta":67388385},{"NoteNumber":40,"Velocity":24,"Duration":576922,"SoundDuration":576922,"Delta":67949133},{"NoteNumber":48,"Velocity":29,"Duration":576922,"SoundDuration":576922,"Delta":67949133},{"NoteNumber":64,"Velocity":47,"Duration":645161,"SoundDuration":645161,"Delta":68526056},{"NoteNumber":57,"Velocity":23,"Duration":645161,"SoundDuration":645161,"Delta":68526056},{"NoteNumber":45,"Velocity":19,"Duration":645161,"SoundDuration":645161,"Delta":68526056},{"NoteNumber":48,"Velocity":29,"Duration":566037,"SoundDuration":566037,"Delta":69171217},{"NoteNumber":40,"Velocity":24,"Duration":566037,"SoundDuration":566037,"Delta":69171217},{"NoteNumber":65,"Velocity":49,"Duration":4767707,"SoundDuration":4767707,"Delta":69194802},{"NoteNumber":47,"Velocity":19,"Duration":571428,"SoundDuration":571428,"Delta":69737255},{"NoteNumber":57,"Velocity":24,"Duration":571428,"SoundDuration":571428,"Delta":69737255},{"NoteNumber":48,"Velocity":28,"Duration":571428,"SoundDuration":571428,"Delta":70308683},{"NoteNumber":40,"Velocity":24,"Duration":571428,"SoundDuration":571428,"Delta":70308683},{"NoteNumber":45,"Velocity":19,"Duration":571428,"SoundDuration":571428,"Delta":70880112},{"NoteNumber":57,"Velocity":24,"Duration":571428,"SoundDuration":571428,"Delta":70880112},{"NoteNumber":48,"Velocity":28,"Duration":604061,"SoundDuration":604061,"Delta":71451540},{"NoteNumber":40,"Velocity":24,"Duration":604061,"SoundDuration":604061,"Delta":71451540},{"NoteNumber":57,"Velocity":23,"Duration":618600,"SoundDuration":618600,"Delta":72055601},{"NoteNumber":47,"Velocity":19,"Duration":618600,"SoundDuration":618600,"Delta":72055601},{"NoteNumber":40,"Velocity":23,"Duration":636082,"SoundDuration":636082,"Delta":72674202},{"NoteNumber":48,"Velocity":28,"Duration":636082,"SoundDuration":636082,"Delta":72674202},{"NoteNumber":57,"Velocity":22,"Duration":652225,"SoundDuration":652225,"Delta":73310284},{"NoteNumber":45,"Velocity":18,"Duration":652225,"SoundDuration":652225,"Delta":73310284},{"NoteNumber":65,"Velocity":46,"Duration":1833332,"SoundDuration":1833332,"Delta":73962509},{"NoteNumber":69,"Velocity":37,"Duration":166666,"SoundDuration":166666,"Delta":75795842},{"NoteNumber":67,"Velocity":42,"Duration":666666,"SoundDuration":666666,"Delta":75962509},{"NoteNumber":65,"Velocity":46,"Duration":1999999,"SoundDuration":1999999,"Delta":76629175},{"NoteNumber":60,"Velocity":42,"Duration":666666,"SoundDuration":666666,"Delta":78629175},{"NoteNumber":62,"Velocity":46,"Duration":1236842,"SoundDuration":1236842,"Delta":79295841},{"NoteNumber":62,"Velocity":44,"Duration":921052,"SoundDuration":921052,"Delta":80558999},{"NoteNumber":62,"Velocity":42,"Duration":289473,"SoundDuration":289473,"Delta":81506368},{"NoteNumber":62,"Velocity":46,"Duration":4600068,"SoundDuration":4600068,"Delta":81822157},{"NoteNumber":40,"Velocity":23,"Duration":566037,"SoundDuration":566037,"Delta":81822157},{"NoteNumber":48,"Velocity":27,"Duration":566037,"SoundDuration":566037,"Delta":81822157},{"NoteNumber":53,"Velocity":23,"Duration":582524,"SoundDuration":582524,"Delta":82388195},{"NoteNumber":47,"Velocity":18,"Duration":582524,"SoundDuration":582524,"Delta":82388195},{"NoteNumber":40,"Velocity":23,"Duration":566037,"SoundDuration":566037,"Delta":82970719},{"NoteNumber":48,"Velocity":27,"Duration":566037,"SoundDuration":566037,"Delta":82970719},{"NoteNumber":53,"Velocity":23,"Duration":576922,"SoundDuration":576922,"Delta":83536757},{"NoteNumber":45,"Velocity":18,"Duration":576922,"SoundDuration":576922,"Delta":83536757},{"NoteNumber":40,"Velocity":23,"Duration":566037,"SoundDuration":566037,"Delta":84113680},{"NoteNumber":48,"Velocity":27,"Duration":566037,"SoundDuration":566037,"Delta":84113680},{"NoteNumber":47,"Velocity":18,"Duration":588235,"SoundDuration":588235,"Delta":84679717},{"NoteNumber":53,"Velocity":23,"Duration":588235,"SoundDuration":588235,"Delta":84679717},{"NoteNumber":40,"Velocity":23,"Duration":566037,"SoundDuration":566037,"Delta":85267953},{"NoteNumber":48,"Velocity":27,"Duration":566037,"SoundDuration":566037,"Delta":85267953},{"NoteNumber":45,"Velocity":18,"Duration":588235,"SoundDuration":588235,"Delta":85833990},{"NoteNumber":53,"Velocity":22,"Duration":588235,"SoundDuration":588235,"Delta":85833990},{"NoteNumber":62,"Velocity":46,"Duration":1793478,"SoundDuration":1793478,"Delta":88822226},{"NoteNumber":65,"Velocity":37,"Duration":163043,"SoundDuration":163043,"Delta":90615704},{"NoteNumber":64,"Velocity":42,"Duration":652174,"SoundDuration":652174,"Delta":90778748},{"NoteNumber":62,"Velocity":46,"Duration":1956522,"SoundDuration":1956522,"Delta":91430922},{"NoteNumber":57,"Velocity":35,"Duration":3314578,"SoundDuration":3314578,"Delta":93387444},{"NoteNumber":59,"Velocity":39,"Duration":1277174,"SoundDuration":1277174,"Delta":94093326},{"NoteNumber":59,"Velocity":44,"Duration":951087,"SoundDuration":951087,"Delta":95397674},{"NoteNumber":59,"Velocity":42,"Duration":298913,"SoundDuration":298913,"Delta":96375935},{"NoteNumber":52,"Velocity":31,"Duration":1379310,"SoundDuration":1379310,"Delta":96702022},{"NoteNumber":59,"Velocity":38,"Duration":1350574,"SoundDuration":1350574,"Delta":96702022},{"NoteNumber":56,"Velocity":31,"Duration":1379310,"SoundDuration":1379310,"Delta":96702022},{"NoteNumber":40,"Velocity":30,"Duration":1379310,"SoundDuration":1379310,"Delta":96702022},{"NoteNumber":54,"Velocity":30,"Duration":1481481,"SoundDuration":1481481,"Delta":98081332},{"NoteNumber":51,"Velocity":30,"Duration":1481481,"SoundDuration":1481481,"Delta":98081332},{"NoteNumber":59,"Velocity":37,"Duration":1450616,"SoundDuration":1450616,"Delta":98081332},{"NoteNumber":35,"Velocity":24,"Duration":1481481,"SoundDuration":1481481,"Delta":98081332},{"NoteNumber":47,"Velocity":28,"Duration":1481481,"SoundDuration":1481481,"Delta":98081332},{"NoteNumber":59,"Velocity":38,"Duration":2407406,"SoundDuration":2407406,"Delta":99562813},{"NoteNumber":52,"Velocity":31,"Duration":2407406,"SoundDuration":2407406,"Delta":99562813},{"NoteNumber":56,"Velocity":31,"Duration":2407406,"SoundDuration":2407406,"Delta":99562813},{"NoteNumber":47,"Velocity":30,"Duration":2962961,"SoundDuration":2962961,"Delta":99562813},{"NoteNumber":40,"Velocity":25,"Duration":2962961,"SoundDuration":2962961,"Delta":99562813},{"NoteNumber":50,"Velocity":31,"Duration":3673299,"SoundDuration":3673299,"Delta":101970220},{"NoteNumber":52,"Velocity":31,"Duration":3488114,"SoundDuration":3488114,"Delta":102155405},{"NoteNumber":56,"Velocity":31,"Duration":3302929,"SoundDuration":3302929,"Delta":102340590},{"NoteNumber":59,"Velocity":38,"Duration":2222221,"SoundDuration":2222221,"Delta":102525775},{"NoteNumber":40,"Velocity":30,"Duration":3117744,"SoundDuration":3117744,"Delta":102525775},{"NoteNumber":28,"Velocity":25,"Duration":3117744,"SoundDuration":3117744,"Delta":102525775},{"NoteNumber":60,"Velocity":38,"Duration":895522,"SoundDuration":895522,"Delta":104747997},{"NoteNumber":33,"Velocity":25,"Duration":7931585,"SoundDuration":7931585,"Delta":105643519},{"NoteNumber":40,"Velocity":30,"Duration":7665295,"SoundDuration":7665295,"Delta":105909810},{"NoteNumber":48,"Velocity":31,"Duration":7411009,"SoundDuration":7411009,"Delta":106164096},{"NoteNumber":52,"Velocity":31,"Duration":7166429,"SoundDuration":7166429,"Delta":106408676},{"NoteNumber":57,"Velocity":38,"Duration":6932016,"SoundDuration":6932016,"Delta":106643089}],"license":{"name":"Creative Commons Attribution-ShareAlike 3.0 Germany","url":"http://creativecommons.org/licenses/by-sa/3.0/de/deed.en","text":"The MIDI, audio (MP3, OGG) and video files of Bernd Krueger are licensed under the cc-by-sa Germany License. This means that you can use and adapt the files, as long as you attribute the copyright holder.\n\nName: Bernd Krueger\nSource: http://www.piano-midi.de\n\nThe distribution or public playback of the files is only allowed under identical license conditions.\n\nThe scores are open source.","attribution":"MIDI files by Bernd Krueger (piano-midi.de)"}}