{"title":"Chopin Prelude No. 4, Opus 28","artist":"Chopin","durationMs":97578,"midiSha256":"caebf75b4395625f7f123f025ce5a37abc1e7f917cdf5228e0abc58e6cc89614","midiObject":[{"NoteNumber":59,"Velocity":55,"Duration":836120,"SoundDuration":836120,"Delta":0},{"NoteNumber":71,"Velocity":52,"Duration":281162,"SoundDuration":281162,"Delta":836120},{"NoteNumber":71,"Velocity":62,"Duration":2830948,"SoundDuration":2830948,"Delta":1117282},{"NoteNumber":55,"Velocity":21,"Duration":468831,"SoundDuration":468831,"Delta":1117282},{"NoteNumber":59,"Velocity":25,"Duration":468831,"SoundDuration":468831,"Delta":1117282},{"NoteNumber":64,"Velocity":31,"Duration":468831,"SoundDuration":468831,"Delta":1117282},{"NoteNumber":55,"Velocity":18,"Duration":412213,"SoundDuration":412213,"Delta":1638206},{"NoteNumber":59,"Velocity":22,"Duration":412213,"SoundDuration":412213,"Delta":1638206},{"NoteNumber":64,"Velocity":27,"Duration":412213,"SoundDuration":412213,"Delta":1638206},{"NoteNumber":55,"Velocity":18,"Duration":397058,"SoundDuration":397058,"Delta":2096222},{"NoteNumber":59,"Velocity":22,"Duration":397058,"SoundDuration":397058,"Delta":2096222},{"NoteNumber":64,"Velocity":27,"Duration":397058,"SoundDuration":397058,"Delta":2096222},{"NoteNumber":55,"Velocity":18,"Duration":402984,"SoundDuration":402984,"Delta":2537398},{"NoteNumber":59,"Velocity":22,"Duration":402984,"SoundDuration":402984,"Delta":2537398},{"NoteNumber":64,"Velocity":27,"Duration":402984,"SoundDuration":402984,"Delta":2537398},{"NoteNumber":55,"Velocity":18,"Duration":426810,"SoundDuration":426810,"Delta":2985159},{"NoteNumber":59,"Velocity":22,"Duration":426810,"SoundDuration":426810,"Delta":2985159},{"NoteNumber":64,"Velocity":27,"Duration":426810,"SoundDuration":426810,"Delta":2985159},{"NoteNumber":55,"Velocity":18,"Duration":439954,"SoundDuration":439954,"Delta":3459393},{"NoteNumber":59,"Velocity":22,"Duration":439954,"SoundDuration":439954,"Delta":3459393},{"NoteNumber":64,"Velocity":27,"Duration":439954,"SoundDuration":439954,"Delta":3459393},{"NoteNumber":55,"Velocity":16,"Duration":455451,"SoundDuration":455451,"Delta":3948231},{"NoteNumber":59,"Velocity":19,"Duration":455451,"SoundDuration":455451,"Delta":3948231},{"NoteNumber":64,"Velocity":24,"Duration":455451,"SoundDuration":455451,"Delta":3948231},{"NoteNumber":72,"Velocity":58,"Duration":1040087,"SoundDuration":1040087,"Delta":3969081},{"NoteNumber":55,"Velocity":16,"Duration":475887,"SoundDuration":475887,"Delta":4455344},{"NoteNumber":59,"Velocity":19,"Duration":475887,"SoundDuration":475887,"Delta":4455344},{"NoteNumber":64,"Velocity":24,"Duration":475887,"SoundDuration":475887,"Delta":4455344},{"NoteNumber":54,"Velocity":21,"Duration":446797,"SoundDuration":446797,"Delta":4988484},{"NoteNumber":64,"Velocity":31,"Duration":446797,"SoundDuration":446797,"Delta":4988484},{"NoteNumber":57,"Velocity":25,"Duration":446797,"SoundDuration":446797,"Delta":4988484},{"NoteNumber":71,"Velocity":62,"Duration":2777084,"SoundDuration":2777084,"Delta":5009169},{"NoteNumber":54,"Velocity":18,"Duration":420560,"SoundDuration":420560,"Delta":5484926},{"NoteNumber":57,"Velocity":22,"Duration":420560,"SoundDuration":420560,"Delta":5484926},{"NoteNumber":64,"Velocity":27,"Duration":420560,"SoundDuration":420560,"Delta":5484926},{"NoteNumber":54,"Velocity":18,"Duration":397175,"SoundDuration":397175,"Delta":5952215},{"NoteNumber":64,"Velocity":27,"Duration":397175,"SoundDuration":397175,"Delta":5952215},{"NoteNumber":57,"Velocity":22,"Duration":397175,"SoundDuration":397175,"Delta":5952215},{"NoteNumber":57,"Velocity":22,"Duration":397175,"SoundDuration":397175,"Delta":6393521},{"NoteNumber":54,"Velocity":18,"Duration":397175,"SoundDuration":397175,"Delta":6393521},{"NoteNumber":64,"Velocity":27,"Duration":397175,"SoundDuration":397175,"Delta":6393521},{"NoteNumber":57,"Velocity":22,"Duration":414428,"SoundDuration":414428,"Delta":6834828},{"NoteNumber":54,"Velocity":18,"Duration":414428,"SoundDuration":414428,"Delta":6834828},{"NoteNumber":63,"Velocity":27,"Duration":414428,"SoundDuration":414428,"Delta":6834828},{"NoteNumber":63,"Velocity":27,"Duration":423662,"SoundDuration":423662,"Delta":7295304},{"NoteNumber":57,"Velocity":22,"Duration":423662,"SoundDuration":423662,"Delta":7295304},{"NoteNumber":54,"Velocity":18,"Duration":423662,"SoundDuration":423662,"Delta":7295304},{"NoteNumber":54,"Velocity":16,"Duration":441383,"SoundDuration":441383,"Delta":7766040},{"NoteNumber":57,"Velocity":19,"Duration":441383,"SoundDuration":441383,"Delta":7766040},{"NoteNumber":63,"Velocity":24,"Duration":441383,"SoundDuration":441383,"Delta":7766040},{"NoteNumber":72,"Velocity":58,"Duration":1003253,"SoundDuration":1003253,"Delta":7786253},{"NoteNumber":54,"Velocity":16,"Duration":459098,"SoundDuration":459098,"Delta":8257466},{"NoteNumber":57,"Velocity":19,"Duration":459098,"SoundDuration":459098,"Delta":8257466},{"NoteNumber":63,"Velocity":24,"Duration":459098,"SoundDuration":459098,"Delta":8257466},{"NoteNumber":53,"Velocity":21,"Duration":450375,"SoundDuration":450375,"Delta":8768656},{"NoteNumber":57,"Velocity":25,"Duration":450375,"SoundDuration":450375,"Delta":8768656},{"NoteNumber":63,"Velocity":31,"Duration":450375,"SoundDuration":450375,"Delta":8768656},{"NoteNumber":71,"Velocity":62,"Duration":2760639,"SoundDuration":2760639,"Delta":8789507},{"NoteNumber":53,"Velocity":18,"Duration":413110,"SoundDuration":413110,"Delta":9269073},{"NoteNumber":63,"Velocity":27,"Duration":413110,"SoundDuration":413110,"Delta":9269073},{"NoteNumber":57,"Velocity":22,"Duration":413110,"SoundDuration":413110,"Delta":9269073},{"NoteNumber":63,"Velocity":27,"Duration":391701,"SoundDuration":391701,"Delta":9727576},{"NoteNumber":57,"Velocity":22,"Duration":391701,"SoundDuration":391701,"Delta":9727576},{"NoteNumber":53,"Velocity":18,"Duration":391701,"SoundDuration":391701,"Delta":9727576},{"NoteNumber":53,"Velocity":18,"Duration":391701,"SoundDuration":391701,"Delta":10162800},{"NoteNumber":57,"Velocity":22,"Duration":391701,"SoundDuration":391701,"Delta":10162800},{"NoteNumber":63,"Velocity":27,"Duration":391701,"SoundDuration":391701,"Delta":10162800},{"NoteNumber":57,"Velocity":22,"Duration":423662,"SoundDuration":423662,"Delta":10598024},{"NoteNumber":62,"Velocity":27,"Duration":423662,"SoundDuration":423662,"Delta":10598024},{"NoteNumber":53,"Velocity":18,"Duration":423662,"SoundDuration":423662,"Delta":10598024},{"NoteNumber":53,"Velocity":18,"Duration":433247,"SoundDuration":433247,"Delta":11068760},{"NoteNumber":62,"Velocity":27,"Duration":433247,"SoundDuration":433247,"Delta":11068760},{"NoteNumber":57,"Velocity":22,"Duration":433247,"SoundDuration":433247,"Delta":11068760},{"NoteNumber":72,"Velocity":59,"Duration":983565,"SoundDuration":983565,"Delta":11550147},{"NoteNumber":53,"Velocity":16,"Duration":436232,"SoundDuration":436232,"Delta":11550147},{"NoteNumber":62,"Velocity":24,"Duration":436232,"SoundDuration":436232,"Delta":11550147},{"NoteNumber":56,"Velocity":19,"Duration":436232,"SoundDuration":436232,"Delta":11550147},{"NoteNumber":53,"Velocity":16,"Duration":448012,"SoundDuration":448012,"Delta":12035263},{"NoteNumber":56,"Velocity":19,"Duration":448012,"SoundDuration":448012,"Delta":12035263},{"NoteNumber":62,"Velocity":24,"Duration":448012,"SoundDuration":448012,"Delta":12035263},{"NoteNumber":71,"Velocity":64,"Duration":2748664,"SoundDuration":2748664,"Delta":12533713},{"NoteNumber":52,"Velocity":21,"Duration":439954,"SoundDuration":439954,"Delta":12533713},{"NoteNumber":56,"Velocity":25,"Duration":439954,"SoundDuration":439954,"Delta":12533713},{"NoteNumber":62,"Velocity":31,"Duration":439954,"SoundDuration":439954,"Delta":12533713},{"NoteNumber":56,"Velocity":22,"Duration":408533,"SoundDuration":408533,"Delta":13022551},{"NoteNumber":62,"Velocity":27,"Duration":408533,"SoundDuration":408533,"Delta":13022551},{"NoteNumber":52,"Velocity":18,"Duration":408533,"SoundDuration":408533,"Delta":13022551},{"NoteNumber":56,"Velocity":22,"Duration":380281,"SoundDuration":380281,"Delta":13476477},{"NoteNumber":62,"Velocity":27,"Duration":380281,"SoundDuration":380281,"Delta":13476477},{"NoteNumber":52,"Velocity":18,"Duration":380281,"SoundDuration":380281,"Delta":13476477},{"NoteNumber":62,"Velocity":27,"Duration":394160,"SoundDuration":394160,"Delta":13899012},{"NoteNumber":56,"Velocity":22,"Duration":394160,"SoundDuration":394160,"Delta":13899012},{"NoteNumber":52,"Velocity":18,"Duration":394160,"SoundDuration":394160,"Delta":13899012},{"NoteNumber":62,"Velocity":27,"Duration":415384,"SoundDuration":415384,"Delta":14336968},{"NoteNumber":55,"Velocity":22,"Duration":415384,"SoundDuration":415384,"Delta":14336968},{"NoteNumber":52,"Velocity":18,"Duration":415384,"SoundDuration":415384,"Delta":14336968},{"NoteNumber":52,"Velocity":18,"Duration":435483,"SoundDuration":435483,"Delta":14798507},{"NoteNumber":55,"Velocity":22,"Duration":435483,"SoundDuration":435483,"Delta":14798507},{"NoteNumber":62,"Velocity":27,"Duration":435483,"SoundDuration":435483,"Delta":14798507},{"NoteNumber":61,"Velocity":24,"Duration":436232,"SoundDuration":436232,"Delta":15282378},{"NoteNumber":52,"Velocity":16,"Duration":436232,"SoundDuration":436232,"Delta":15282378},{"NoteNumber":55,"Velocity":19,"Duration":436232,"SoundDuration":436232,"Delta":15282378},{"NoteNumber":70,"Velocity":58,"Duration":984128,"SoundDuration":984128,"Delta":15292406},{"NoteNumber":52,"Velocity":16,"Duration":448012,"SoundDuration":448012,"Delta":15767493},{"NoteNumber":55,"Velocity":19,"Duration":448012,"SoundDuration":448012,"Delta":15767493},{"NoteNumber":61,"Velocity":24,"Duration":448012,"SoundDuration":448012,"Delta":15767493},{"NoteNumber":52,"Velocity":21,"Duration":457549,"SoundDuration":457549,"Delta":16265943},{"NoteNumber":60,"Velocity":31,"Duration":457549,"SoundDuration":457549,"Delta":16265943},{"NoteNumber":55,"Velocity":25,"Duration":457549,"SoundDuration":457549,"Delta":16265943},{"NoteNumber":69,"Velocity":62,"Duration":2747471,"SoundDuration":2747471,"Delta":16276535},{"NoteNumber":55,"Velocity":22,"Duration":399940,"SoundDuration":399940,"Delta":16774332},{"NoteNumber":52,"Velocity":18,"Duration":399940,"SoundDuration":399940,"Delta":16774332},{"NoteNumber":60,"Velocity":27,"Duration":399940,"SoundDuration":399940,"Delta":16774332},{"NoteNumber":55,"Velocity":23,"Duration":399940,"SoundDuration":399940,"Delta":17218710},{"NoteNumber":52,"Velocity":18,"Duration":399940,"SoundDuration":399940,"Delta":17218710},{"NoteNumber":60,"Velocity":28,"Duration":399940,"SoundDuration":399940,"Delta":17218710},{"NoteNumber":55,"Velocity":23,"Duration":399940,"SoundDuration":399940,"Delta":17663089},{"NoteNumber":60,"Velocity":28,"Duration":399940,"SoundDuration":399940,"Delta":17663089},{"NoteNumber":52,"Velocity":19,"Duration":399940,"SoundDuration":399940,"Delta":17663089},{"NoteNumber":60,"Velocity":31,"Duration":389048,"SoundDuration":389048,"Delta":18107467},{"NoteNumber":52,"Velocity":20,"Duration":389048,"SoundDuration":389048,"Delta":18107467},{"NoteNumber":54,"Velocity":26,"Duration":389048,"SoundDuration":389048,"Delta":18107467},{"NoteNumber":60,"Velocity":34,"Duration":426810,"SoundDuration":426810,"Delta":18539744},{"NoteNumber":52,"Velocity":22,"Duration":426810,"SoundDuration":426810,"Delta":18539744},{"NoteNumber":54,"Velocity":26,"Duration":426810,"SoundDuration":426810,"Delta":18539744},{"NoteNumber":54,"Velocity":23,"Duration":437986,"SoundDuration":437986,"Delta":19013977},{"NoteNumber":52,"Velocity":19,"Duration":437986,"SoundDuration":437986,"Delta":19013977},{"NoteNumber":60,"Velocity":31,"Duration":437986,"SoundDuration":437986,"Delta":19013977},{"NoteNumber":71,"Velocity":63,"Duration":993390,"SoundDuration":993390,"Delta":19024006},{"NoteNumber":52,"Velocity":19,"Duration":454512,"SoundDuration":454512,"Delta":19501609},{"NoteNumber":54,"Velocity":25,"Duration":454512,"SoundDuration":454512,"Delta":19501609},{"NoteNumber":60,"Velocity":32,"Duration":454512,"SoundDuration":454512,"Delta":19501609},{"NoteNumber":54,"Velocity":34,"Duration":433247,"SoundDuration":433247,"Delta":20007368},{"NoteNumber":60,"Velocity":39,"Duration":433247,"SoundDuration":433247,"Delta":20007368},{"NoteNumber":52,"Velocity":27,"Duration":433247,"SoundDuration":433247,"Delta":20007368},{"NoteNumber":69,"Velocity":66,"Duration":2677124,"SoundDuration":2677124,"Delta":20017397},{"NoteNumber":54,"Velocity":27,"Duration":402744,"SoundDuration":402744,"Delta":20488755},{"NoteNumber":60,"Velocity":35,"Duration":402744,"SoundDuration":402744,"Delta":20488755},{"NoteNumber":52,"Velocity":23,"Duration":402744,"SoundDuration":402744,"Delta":20488755},{"NoteNumber":54,"Velocity":27,"Duration":372413,"SoundDuration":372413,"Delta":20936249},{"NoteNumber":60,"Velocity":35,"Duration":372413,"SoundDuration":372413,"Delta":20936249},{"NoteNumber":52,"Velocity":22,"Duration":372413,"SoundDuration":372413,"Delta":20936249},{"NoteNumber":52,"Velocity":22,"Duration":372413,"SoundDuration":372413,"Delta":21350042},{"NoteNumber":60,"Velocity":34,"Duration":372413,"SoundDuration":372413,"Delta":21350042},{"NoteNumber":54,"Velocity":26,"Duration":372413,"SoundDuration":372413,"Delta":21350042},{"NoteNumber":51,"Velocity":26,"Duration":414428,"SoundDuration":414428,"Delta":21763835},{"NoteNumber":60,"Velocity":32,"Duration":414428,"SoundDuration":414428,"Delta":21763835},{"NoteNumber":54,"Velocity":26,"Duration":414428,"SoundDuration":414428,"Delta":21763835},{"NoteNumber":51,"Velocity":25,"Duration":414428,"SoundDuration":414428,"Delta":22224311},{"NoteNumber":54,"Velocity":25,"Duration":414428,"SoundDuration":414428,"Delta":22224311},{"NoteNumber":60,"Velocity":32,"Duration":414428,"SoundDuration":414428,"Delta":22224311},{"NoteNumber":51,"Velocity":20,"Duration":424981,"SoundDuration":424981,"Delta":22684787},{"NoteNumber":54,"Velocity":20,"Duration":424981,"SoundDuration":424981,"Delta":22684787},{"NoteNumber":60,"Velocity":27,"Duration":424981,"SoundDuration":424981,"Delta":22684787},{"NoteNumber":71,"Velocity":67,"Duration":968694,"SoundDuration":968694,"Delta":22694522},{"NoteNumber":54,"Velocity":20,"Duration":444196,"SoundDuration":444196,"Delta":23157907},{"NoteNumber":60,"Velocity":26,"Duration":444196,"SoundDuration":444196,"Delta":23157907},{"NoteNumber":51,"Velocity":20,"Duration":444196,"SoundDuration":444196,"Delta":23157907},{"NoteNumber":54,"Velocity":29,"Duration":461223,"SoundDuration":461223,"Delta":23652540},{"NoteNumber":50,"Velocity":25,"Duration":461223,"SoundDuration":461223,"Delta":23652540},{"NoteNumber":60,"Velocity":37,"Duration":461223,"SoundDuration":461223,"Delta":23652540},{"NoteNumber":69,"Velocity":67,"Duration":2764880,"SoundDuration":2764880,"Delta":23663217},{"NoteNumber":50,"Velocity":20,"Duration":414428,"SoundDuration":414428,"Delta":24165010},{"NoteNumber":54,"Velocity":26,"Duration":414428,"SoundDuration":414428,"Delta":24165010},{"NoteNumber":60,"Velocity":32,"Duration":414428,"SoundDuration":414428,"Delta":24165010},{"NoteNumber":54,"Velocity":26,"Duration":385714,"SoundDuration":385714,"Delta":24625486},{"NoteNumber":60,"Velocity":32,"Duration":385714,"SoundDuration":385714,"Delta":24625486},{"NoteNumber":50,"Velocity":20,"Duration":385714,"SoundDuration":385714,"Delta":24625486},{"NoteNumber":60,"Velocity":32,"Duration":385714,"SoundDuration":385714,"Delta":25054058},{"NoteNumber":50,"Velocity":20,"Duration":385714,"SoundDuration":385714,"Delta":25054058},{"NoteNumber":54,"Velocity":26,"Duration":385714,"SoundDuration":385714,"Delta":25054058},{"NoteNumber":60,"Velocity":32,"Duration":411459,"SoundDuration":411459,"Delta":25482629},{"NoteNumber":50,"Velocity":20,"Duration":411459,"SoundDuration":411459,"Delta":25482629},{"NoteNumber":54,"Velocity":26,"Duration":411459,"SoundDuration":411459,"Delta":25482629},{"NoteNumber":50,"Velocity":20,"Duration":430004,"SoundDuration":430004,"Delta":25939807},{"NoteNumber":54,"Velocity":26,"Duration":430004,"SoundDuration":430004,"Delta":25939807},{"NoteNumber":60,"Velocity":32,"Duration":430004,"SoundDuration":430004,"Delta":25939807},{"NoteNumber":71,"Velocity":66,"Duration":781674,"SoundDuration":781674,"Delta":26417590},{"NoteNumber":50,"Velocity":17,"Duration":462142,"SoundDuration":462142,"Delta":26417590},{"NoteNumber":60,"Velocity":26,"Duration":462142,"SoundDuration":462142,"Delta":26417590},{"NoteNumber":54,"Velocity":20,"Duration":462142,"SoundDuration":462142,"Delta":26417590},{"NoteNumber":54,"Velocity":20,"Duration":486010,"SoundDuration":486010,"Delta":26932253},{"NoteNumber":50,"Velocity":17,"Duration":486010,"SoundDuration":486010,"Delta":26932253},{"NoteNumber":60,"Velocity":26,"Duration":486010,"SoundDuration":486010,"Delta":26932253},{"NoteNumber":69,"Velocity":57,"Duration":274740,"SoundDuration":274740,"Delta":27199265},{"NoteNumber":53,"Velocity":25,"Duration":457549,"SoundDuration":457549,"Delta":27474005},{"NoteNumber":50,"Velocity":21,"Duration":457549,"SoundDuration":457549,"Delta":27474005},{"NoteNumber":60,"Velocity":31,"Duration":457549,"SoundDuration":457549,"Delta":27474005},{"NoteNumber":69,"Velocity":62,"Duration":2777910,"SoundDuration":2777910,"Delta":27495188},{"NoteNumber":60,"Velocity":27,"Duration":423662,"SoundDuration":423662,"Delta":27982393},{"NoteNumber":53,"Velocity":22,"Duration":423662,"SoundDuration":423662,"Delta":27982393},{"NoteNumber":50,"Velocity":18,"Duration":423662,"SoundDuration":423662,"Delta":27982393},{"NoteNumber":50,"Velocity":18,"Duration":399940,"SoundDuration":399940,"Delta":28453129},{"NoteNumber":53,"Velocity":22,"Duration":399940,"SoundDuration":399940,"Delta":28453129},{"NoteNumber":60,"Velocity":27,"Duration":399940,"SoundDuration":399940,"Delta":28453129},{"NoteNumber":50,"Velocity":18,"Duration":399940,"SoundDuration":399940,"Delta":28897508},{"NoteNumber":60,"Velocity":27,"Duration":399940,"SoundDuration":399940,"Delta":28897508},{"NoteNumber":53,"Velocity":22,"Duration":399940,"SoundDuration":399940,"Delta":28897508},{"NoteNumber":50,"Velocity":18,"Duration":414428,"SoundDuration":414428,"Delta":29341886},{"NoteNumber":53,"Velocity":22,"Duration":414428,"SoundDuration":414428,"Delta":29341886},{"NoteNumber":59,"Velocity":27,"Duration":414428,"SoundDuration":414428,"Delta":29341886},{"NoteNumber":50,"Velocity":18,"Duration":423662,"SoundDuration":423662,"Delta":29802362},{"NoteNumber":53,"Velocity":22,"Duration":423662,"SoundDuration":423662,"Delta":29802362},{"NoteNumber":59,"Velocity":27,"Duration":423662,"SoundDuration":423662,"Delta":29802362},{"NoteNumber":68,"Velocity":62,"Duration":1954252,"SoundDuration":1954252,"Delta":30273098},{"NoteNumber":53,"Velocity":19,"Duration":438348,"SoundDuration":438348,"Delta":30273098},{"NoteNumber":59,"Velocity":24,"Duration":438348,"SoundDuration":438348,"Delta":30273098},{"NoteNumber":50,"Velocity":16,"Duration":438348,"SoundDuration":438348,"Delta":30273098},{"NoteNumber":53,"Velocity":19,"Duration":448012,"SoundDuration":448012,"Delta":30760708},{"NoteNumber":59,"Velocity":24,"Duration":448012,"SoundDuration":448012,"Delta":30760708},{"NoteNumber":50,"Velocity":16,"Duration":448012,"SoundDuration":448012,"Delta":30760708},{"NoteNumber":52,"Velocity":29,"Duration":453933,"SoundDuration":453933,"Delta":31259158},{"NoteNumber":59,"Velocity":29,"Duration":453933,"SoundDuration":453933,"Delta":31259158},{"NoteNumber":48,"Velocity":24,"Duration":453933,"SoundDuration":453933,"Delta":31259158},{"NoteNumber":48,"Velocity":23,"Duration":417439,"SoundDuration":417439,"Delta":31763529},{"NoteNumber":59,"Velocity":28,"Duration":417439,"SoundDuration":417439,"Delta":31763529},{"NoteNumber":52,"Velocity":28,"Duration":417439,"SoundDuration":417439,"Delta":31763529},{"NoteNumber":69,"Velocity":65,"Duration":447493,"SoundDuration":447493,"Delta":32227351},{"NoteNumber":48,"Velocity":26,"Duration":402744,"SoundDuration":402744,"Delta":32227351},{"NoteNumber":57,"Velocity":32,"Duration":402744,"SoundDuration":402744,"Delta":32227351},{"NoteNumber":52,"Velocity":32,"Duration":402744,"SoundDuration":402744,"Delta":32227351},{"NoteNumber":71,"Velocity":69,"Duration":438276,"SoundDuration":438276,"Delta":32674845},{"NoteNumber":57,"Velocity":35,"Duration":394448,"SoundDuration":394448,"Delta":32674845},{"NoteNumber":48,"Velocity":27,"Duration":394448,"SoundDuration":394448,"Delta":32674845},{"NoteNumber":52,"Velocity":35,"Duration":394448,"SoundDuration":394448,"Delta":32674845},{"NoteNumber":74,"Velocity":74,"Duration":458312,"SoundDuration":458312,"Delta":33113121},{"NoteNumber":48,"Velocity":27,"Duration":412264,"SoundDuration":412264,"Delta":33113121},{"NoteNumber":52,"Velocity":35,"Duration":412264,"SoundDuration":412264,"Delta":33113121},{"NoteNumber":57,"Velocity":35,"Duration":412264,"SoundDuration":412264,"Delta":33113121},{"NoteNumber":72,"Velocity":65,"Duration":477783,"SoundDuration":477783,"Delta":33571433},{"NoteNumber":48,"Velocity":26,"Duration":430004,"SoundDuration":430004,"Delta":33571433},{"NoteNumber":57,"Velocity":32,"Duration":430004,"SoundDuration":430004,"Delta":33571433},{"NoteNumber":52,"Velocity":32,"Duration":430004,"SoundDuration":430004,"Delta":33571433},{"NoteNumber":64,"Velocity":68,"Duration":477782,"SoundDuration":477782,"Delta":34049216},{"NoteNumber":52,"Velocity":26,"Duration":430004,"SoundDuration":430004,"Delta":34049216},{"NoteNumber":48,"Velocity":20,"Duration":430004,"SoundDuration":430004,"Delta":34049216},{"NoteNumber":57,"Velocity":26,"Duration":430004,"SoundDuration":430004,"Delta":34049216},{"NoteNumber":69,"Velocity":62,"Duration":504370,"SoundDuration":504370,"Delta":34526999},{"NoteNumber":52,"Velocity":25,"Duration":453933,"SoundDuration":453933,"Delta":34526999},{"NoteNumber":48,"Velocity":20,"Duration":453933,"SoundDuration":453933,"Delta":34526999},{"NoteNumber":57,"Velocity":25,"Duration":453933,"SoundDuration":453933,"Delta":34526999},{"NoteNumber":66,"Velocity":62,"Duration":2804910,"SoundDuration":2804910,"Delta":35031370},{"NoteNumber":52,"Velocity":29,"Duration":436610,"SoundDuration":436610,"Delta":35031370},{"NoteNumber":57,"Velocity":29,"Duration":436610,"SoundDuration":436610,"Delta":35031370},{"NoteNumber":47,"Velocity":24,"Duration":436610,"SoundDuration":436610,"Delta":35031370},{"NoteNumber":57,"Velocity":27,"Duration":420560,"SoundDuration":420560,"Delta":35516493},{"NoteNumber":47,"Velocity":22,"Duration":420560,"SoundDuration":420560,"Delta":35516493},{"NoteNumber":52,"Velocity":27,"Duration":420560,"SoundDuration":420560,"Delta":35516493},{"NoteNumber":57,"Velocity":27,"Duration":405648,"SoundDuration":405648,"Delta":35983783},{"NoteNumber":47,"Velocity":22,"Duration":405648,"SoundDuration":405648,"Delta":35983783},{"NoteNumber":51,"Velocity":27,"Duration":405648,"SoundDuration":405648,"Delta":35983783},{"NoteNumber":47,"Velocity":22,"Duration":405648,"SoundDuration":405648,"Delta":36434504},{"NoteNumber":51,"Velocity":27,"Duration":405648,"SoundDuration":405648,"Delta":36434504},{"NoteNumber":57,"Velocity":27,"Duration":405648,"SoundDuration":405648,"Delta":36434504},{"NoteNumber":48,"Velocity":22,"Duration":425494,"SoundDuration":425494,"Delta":36885225},{"NoteNumber":57,"Velocity":27,"Duration":425494,"SoundDuration":425494,"Delta":36885225},{"NoteNumber":52,"Velocity":27,"Duration":425494,"SoundDuration":425494,"Delta":36885225},{"NoteNumber":48,"Velocity":22,"Duration":430004,"SoundDuration":430004,"Delta":37358497},{"NoteNumber":52,"Velocity":27,"Duration":430004,"SoundDuration":430004,"Delta":37358497},{"NoteNumber":57,"Velocity":27,"Duration":430004,"SoundDuration":430004,"Delta":37358497},{"NoteNumber":69,"Velocity":57,"Duration":997897,"SoundDuration":997897,"Delta":37836280},{"NoteNumber":48,"Velocity":19,"Duration":440480,"SoundDuration":440480,"Delta":37836280},{"NoteNumber":52,"Velocity":23,"Duration":440480,"SoundDuration":440480,"Delta":37836280},{"NoteNumber":57,"Velocity":23,"Duration":440480,"SoundDuration":440480,"Delta":37836280},{"NoteNumber":48,"Velocity":19,"Duration":456110,"SoundDuration":456110,"Delta":38326405},{"NoteNumber":52,"Velocity":23,"Duration":456110,"SoundDuration":456110,"Delta":38326405},{"NoteNumber":57,"Velocity":23,"Duration":456110,"SoundDuration":456110,"Delta":38326405},{"NoteNumber":66,"Velocity":62,"Duration":2694823,"SoundDuration":2694823,"Delta":38834178},{"NoteNumber":47,"Velocity":24,"Duration":464956,"SoundDuration":464956,"Delta":38834178},{"NoteNumber":51,"Velocity":29,"Duration":464956,"SoundDuration":464956,"Delta":38834178},{"NoteNumber":57,"Velocity":29,"Duration":464956,"SoundDuration":464956,"Delta":38834178},{"NoteNumber":47,"Velocity":22,"Duration":420560,"SoundDuration":420560,"Delta":39350796},{"NoteNumber":51,"Velocity":27,"Duration":420560,"SoundDuration":420560,"Delta":39350796},{"NoteNumber":57,"Velocity":27,"Duration":420560,"SoundDuration":420560,"Delta":39350796},{"NoteNumber":47,"Velocity":22,"Duration":399940,"SoundDuration":399940,"Delta":39818085},{"NoteNumber":51,"Velocity":27,"Duration":399940,"SoundDuration":399940,"Delta":39818085},{"NoteNumber":57,"Velocity":27,"Duration":399940,"SoundDuration":399940,"Delta":39818085},{"NoteNumber":47,"Velocity":22,"Duration":399940,"SoundDuration":399940,"Delta":40262464},{"NoteNumber":51,"Velocity":27,"Duration":399940,"SoundDuration":399940,"Delta":40262464},{"NoteNumber":57,"Velocity":27,"Duration":399940,"SoundDuration":399940,"Delta":40262464},{"NoteNumber":48,"Velocity":22,"Duration":417439,"SoundDuration":417439,"Delta":40706842},{"NoteNumber":52,"Velocity":27,"Duration":417439,"SoundDuration":417439,"Delta":40706842},{"NoteNumber":57,"Velocity":27,"Duration":417439,"SoundDuration":417439,"Delta":40706842},{"NoteNumber":48,"Velocity":22,"Duration":430004,"SoundDuration":430004,"Delta":41170664},{"NoteNumber":52,"Velocity":27,"Duration":430004,"SoundDuration":430004,"Delta":41170664},{"NoteNumber":57,"Velocity":27,"Duration":430004,"SoundDuration":430004,"Delta":41170664},{"NoteNumber":71,"Velocity":52,"Duration":119445,"SoundDuration":119445,"Delta":41529001},{"NoteNumber":69,"Velocity":62,"Duration":989936,"SoundDuration":989936,"Delta":41648447},{"NoteNumber":48,"Velocity":19,"Duration":439596,"SoundDuration":439596,"Delta":41648447},{"NoteNumber":52,"Velocity":23,"Duration":439596,"SoundDuration":439596,"Delta":41648447},{"NoteNumber":57,"Velocity":23,"Duration":439596,"SoundDuration":439596,"Delta":41648447},{"NoteNumber":48,"Velocity":19,"Duration":450240,"SoundDuration":450240,"Delta":42137304},{"NoteNumber":52,"Velocity":23,"Duration":450240,"SoundDuration":450240,"Delta":42137304},{"NoteNumber":57,"Velocity":23,"Duration":450240,"SoundDuration":450240,"Delta":42137304},{"NoteNumber":67,"Velocity":62,"Duration":508388,"SoundDuration":508388,"Delta":42638384},{"NoteNumber":47,"Velocity":24,"Duration":989775,"SoundDuration":989775,"Delta":42638384},{"NoteNumber":51,"Velocity":29,"Duration":989775,"SoundDuration":989775,"Delta":42638384},{"NoteNumber":57,"Velocity":29,"Duration":989775,"SoundDuration":989775,"Delta":42638384},{"NoteNumber":66,"Velocity":46,"Duration":481386,"SoundDuration":481386,"Delta":43146772},{"NoteNumber":60,"Velocity":54,"Duration":453926,"SoundDuration":453926,"Delta":43628159},{"NoteNumber":59,"Velocity":42,"Duration":453926,"SoundDuration":453926,"Delta":44082085},{"NoteNumber":63,"Velocity":64,"Duration":432276,"SoundDuration":432276,"Delta":44536012},{"NoteNumber":66,"Velocity":59,"Duration":460475,"SoundDuration":460475,"Delta":44968288},{"NoteNumber":74,"Velocity":65,"Duration":317356,"SoundDuration":317356,"Delta":45428764},{"NoteNumber":72,"Velocity":62,"Duration":328469,"SoundDuration":328469,"Delta":45746121},{"NoteNumber":71,"Velocity":57,"Duration":341025,"SoundDuration":341025,"Delta":46074591},{"NoteNumber":71,"Velocity":62,"Duration":2838952,"SoundDuration":2838952,"Delta":46415617},{"NoteNumber":55,"Velocity":21,"Duration":468831,"SoundDuration":468831,"Delta":46415617},{"NoteNumber":59,"Velocity":25,"Duration":468831,"SoundDuration":468831,"Delta":46415617},{"NoteNumber":64,"Velocity":31,"Duration":468831,"SoundDuration":468831,"Delta":46415617},{"NoteNumber":55,"Velocity":18,"Duration":391701,"SoundDuration":391701,"Delta":46936541},{"NoteNumber":59,"Velocity":22,"Duration":391701,"SoundDuration":391701,"Delta":46936541},{"NoteNumber":64,"Velocity":27,"Duration":391701,"SoundDuration":391701,"Delta":46936541},{"NoteNumber":55,"Velocity":18,"Duration":397175,"SoundDuration":397175,"Delta":47371765},{"NoteNumber":59,"Velocity":22,"Duration":397175,"SoundDuration":397175,"Delta":47371765},{"NoteNumber":64,"Velocity":29,"Duration":397175,"SoundDuration":397175,"Delta":47371765},{"NoteNumber":55,"Velocity":19,"Duration":417439,"SoundDuration":417439,"Delta":47813071},{"NoteNumber":59,"Velocity":24,"Duration":417439,"SoundDuration":417439,"Delta":47813071},{"NoteNumber":64,"Velocity":29,"Duration":417439,"SoundDuration":417439,"Delta":47813071},{"NoteNumber":55,"Velocity":19,"Duration":439954,"SoundDuration":439954,"Delta":48276893},{"NoteNumber":59,"Velocity":25,"Duration":439954,"SoundDuration":439954,"Delta":48276893},{"NoteNumber":64,"Velocity":31,"Duration":439954,"SoundDuration":439954,"Delta":48276893},{"NoteNumber":55,"Velocity":20,"Duration":439954,"SoundDuration":439954,"Delta":48765731},{"NoteNumber":59,"Velocity":26,"Duration":439954,"SoundDuration":439954,"Delta":48765731},{"NoteNumber":64,"Velocity":32,"Duration":439954,"SoundDuration":439954,"Delta":48765731},{"NoteNumber":55,"Velocity":20,"Duration":455451,"SoundDuration":455451,"Delta":49254569},{"NoteNumber":59,"Velocity":24,"Duration":455451,"SoundDuration":455451,"Delta":49254569},{"NoteNumber":64,"Velocity":32,"Duration":455451,"SoundDuration":455451,"Delta":49254569},{"NoteNumber":72,"Velocity":68,"Duration":1040087,"SoundDuration":1040087,"Delta":49275420},{"NoteNumber":55,"Velocity":20,"Duration":475887,"SoundDuration":475887,"Delta":49761683},{"NoteNumber":59,"Velocity":26,"Duration":475887,"SoundDuration":475887,"Delta":49761683},{"NoteNumber":64,"Velocity":33,"Duration":475887,"SoundDuration":475887,"Delta":49761683},{"NoteNumber":54,"Velocity":23,"Duration":446797,"SoundDuration":446797,"Delta":50294822},{"NoteNumber":64,"Velocity":35,"Duration":446797,"SoundDuration":446797,"Delta":50294822},{"NoteNumber":57,"Velocity":28,"Duration":446797,"SoundDuration":446797,"Delta":50294822},{"NoteNumber":71,"Velocity":71,"Duration":2818861,"SoundDuration":2818861,"Delta":50315507},{"NoteNumber":54,"Velocity":20,"Duration":420560,"SoundDuration":420560,"Delta":50791264},{"NoteNumber":57,"Velocity":25,"Duration":420560,"SoundDuration":420560,"Delta":50791264},{"NoteNumber":64,"Velocity":32,"Duration":420560,"SoundDuration":420560,"Delta":50791264},{"NoteNumber":54,"Velocity":21,"Duration":399940,"SoundDuration":399940,"Delta":51258554},{"NoteNumber":64,"Velocity":33,"Duration":399940,"SoundDuration":399940,"Delta":51258554},{"NoteNumber":57,"Velocity":26,"Duration":399940,"SoundDuration":399940,"Delta":51258554},{"NoteNumber":57,"Velocity":27,"Duration":399940,"SoundDuration":399940,"Delta":51702932},{"NoteNumber":54,"Velocity":22,"Duration":399940,"SoundDuration":399940,"Delta":51702932},{"NoteNumber":64,"Velocity":35,"Duration":399940,"SoundDuration":399940,"Delta":51702932},{"NoteNumber":57,"Velocity":28,"Duration":426810,"SoundDuration":426810,"Delta":52147311},{"NoteNumber":53,"Velocity":22,"Duration":426810,"SoundDuration":426810,"Delta":52147311},{"NoteNumber":63,"Velocity":35,"Duration":426810,"SoundDuration":426810,"Delta":52147311},{"NoteNumber":63,"Velocity":38,"Duration":443349,"SoundDuration":443349,"Delta":52621544},{"NoteNumber":57,"Velocity":29,"Duration":443349,"SoundDuration":443349,"Delta":52621544},{"NoteNumber":53,"Velocity":24,"Duration":443349,"SoundDuration":443349,"Delta":52621544},{"NoteNumber":53,"Velocity":24,"Duration":441383,"SoundDuration":441383,"Delta":53114155},{"NoteNumber":57,"Velocity":27,"Duration":441383,"SoundDuration":441383,"Delta":53114155},{"NoteNumber":63,"Velocity":38,"Duration":441383,"SoundDuration":441383,"Delta":53114155},{"NoteNumber":72,"Velocity":74,"Duration":1002429,"SoundDuration":1002429,"Delta":53124262},{"NoteNumber":53,"Velocity":25,"Duration":459098,"SoundDuration":459098,"Delta":53605581},{"NoteNumber":57,"Velocity":30,"Duration":459098,"SoundDuration":459098,"Delta":53605581},{"NoteNumber":63,"Velocity":38,"Duration":459098,"SoundDuration":459098,"Delta":53605581},{"NoteNumber":53,"Velocity":30,"Duration":428571,"SoundDuration":428571,"Delta":54116771},{"NoteNumber":56,"Velocity":37,"Duration":428571,"SoundDuration":428571,"Delta":54116771},{"NoteNumber":63,"Velocity":45,"Duration":428571,"SoundDuration":428571,"Delta":54116771},{"NoteNumber":71,"Velocity":76,"Duration":2611196,"SoundDuration":2611196,"Delta":54126692},{"NoteNumber":53,"Velocity":26,"Duration":391304,"SoundDuration":391304,"Delta":54592962},{"NoteNumber":63,"Velocity":40,"Duration":391304,"SoundDuration":391304,"Delta":54592962},{"NoteNumber":56,"Velocity":33,"Duration":391304,"SoundDuration":391304,"Delta":54592962},{"NoteNumber":62,"Velocity":41,"Duration":377622,"SoundDuration":377622,"Delta":55027744},{"NoteNumber":56,"Velocity":34,"Duration":377622,"SoundDuration":377622,"Delta":55027744},{"NoteNumber":53,"Velocity":27,"Duration":377622,"SoundDuration":377622,"Delta":55027744},{"NoteNumber":53,"Velocity":27,"Duration":367347,"SoundDuration":367347,"Delta":55447325},{"NoteNumber":56,"Velocity":36,"Duration":367347,"SoundDuration":367347,"Delta":55447325},{"NoteNumber":62,"Velocity":41,"Duration":367347,"SoundDuration":367347,"Delta":55447325},{"NoteNumber":56,"Velocity":36,"Duration":394160,"SoundDuration":394160,"Delta":55855488},{"NoteNumber":62,"Velocity":44,"Duration":394160,"SoundDuration":394160,"Delta":55855488},{"NoteNumber":52,"Velocity":29,"Duration":394160,"SoundDuration":394160,"Delta":55855488},{"NoteNumber":52,"Velocity":29,"Duration":400000,"SoundDuration":400000,"Delta":56293444},{"NoteNumber":62,"Velocity":45,"Duration":400000,"SoundDuration":400000,"Delta":56293444},{"NoteNumber":56,"Velocity":37,"Duration":400000,"SoundDuration":400000,"Delta":56293444},{"NoteNumber":72,"Velocity":77,"Duration":937525,"SoundDuration":937525,"Delta":56737889},{"NoteNumber":52,"Velocity":27,"Duration":416013,"SoundDuration":416013,"Delta":56737889},{"NoteNumber":62,"Velocity":40,"Duration":416013,"SoundDuration":416013,"Delta":56737889},{"NoteNumber":56,"Velocity":31,"Duration":416013,"SoundDuration":416013,"Delta":56737889},{"NoteNumber":52,"Velocity":27,"Duration":426613,"SoundDuration":426613,"Delta":57200413},{"NoteNumber":56,"Velocity":31,"Duration":426613,"SoundDuration":426613,"Delta":57200413},{"NoteNumber":62,"Velocity":41,"Duration":426613,"SoundDuration":426613,"Delta":57200413},{"NoteNumber":71,"Velocity":84,"Duration":643115,"SoundDuration":643115,"Delta":57675414},{"NoteNumber":52,"Velocity":42,"Duration":391304,"SoundDuration":391304,"Delta":57675414},{"NoteNumber":55,"Velocity":42,"Duration":391304,"SoundDuration":391304,"Delta":57675414},{"NoteNumber":62,"Velocity":50,"Duration":391304,"SoundDuration":391304,"Delta":57675414},{"NoteNumber":52,"Velocity":36,"Duration":392948,"SoundDuration":392948,"Delta":58110196},{"NoteNumber":55,"Velocity":36,"Duration":392948,"SoundDuration":392948,"Delta":58110196},{"NoteNumber":62,"Velocity":42,"Duration":392948,"SoundDuration":392948,"Delta":58110196},{"NoteNumber":70,"Velocity":78,"Duration":230769,"SoundDuration":230769,"Delta":58318529},{"NoteNumber":70,"Velocity":85,"Duration":408163,"SoundDuration":408163,"Delta":58549299},{"NoteNumber":52,"Velocity":38,"Duration":367347,"SoundDuration":367347,"Delta":58549299},{"NoteNumber":55,"Velocity":38,"Duration":367347,"SoundDuration":367347,"Delta":58549299},{"NoteNumber":61,"Velocity":45,"Duration":367347,"SoundDuration":367347,"Delta":58549299},{"NoteNumber":71,"Velocity":70,"Duration":106382,"SoundDuration":106382,"Delta":58957462},{"NoteNumber":52,"Velocity":46,"Duration":382978,"SoundDuration":382978,"Delta":58957462},{"NoteNumber":55,"Velocity":46,"Duration":382978,"SoundDuration":382978,"Delta":58957462},{"NoteNumber":61,"Velocity":55,"Duration":382978,"SoundDuration":382978,"Delta":58957462},{"NoteNumber":70,"Velocity":73,"Duration":106383,"SoundDuration":106383,"Delta":59063845},{"NoteNumber":69,"Velocity":76,"Duration":106383,"SoundDuration":106383,"Delta":59170228},{"NoteNumber":70,"Velocity":79,"Duration":106383,"SoundDuration":106383,"Delta":59276611},{"NoteNumber":79,"Velocity":88,"Duration":808309,"SoundDuration":808309,"Delta":59382994},{"NoteNumber":49,"Velocity":46,"Duration":357615,"SoundDuration":357615,"Delta":59382994},{"NoteNumber":52,"Velocity":46,"Duration":357615,"SoundDuration":357615,"Delta":59382994},{"NoteNumber":58,"Velocity":56,"Duration":357615,"SoundDuration":357615,"Delta":59382994},{"NoteNumber":49,"Velocity":43,"Duration":369863,"SoundDuration":369863,"Delta":59780345},{"NoteNumber":52,"Velocity":43,"Duration":369863,"SoundDuration":369863,"Delta":59780345},{"NoteNumber":58,"Velocity":52,"Duration":369863,"SoundDuration":369863,"Delta":59780345},{"NoteNumber":78,"Velocity":91,"Duration":603070,"SoundDuration":603070,"Delta":60191304},{"NoteNumber":48,"Velocity":43,"Duration":355263,"SoundDuration":355263,"Delta":60191304},{"NoteNumber":52,"Velocity":43,"Duration":355263,"SoundDuration":355263,"Delta":60191304},{"NoteNumber":57,"Velocity":52,"Duration":355263,"SoundDuration":355263,"Delta":60191304},{"NoteNumber":48,"Velocity":45,"Duration":374999,"SoundDuration":374999,"Delta":60586041},{"NoteNumber":52,"Velocity":45,"Duration":374999,"SoundDuration":374999,"Delta":60586041},{"NoteNumber":57,"Velocity":54,"Duration":374999,"SoundDuration":374999,"Delta":60586041},{"NoteNumber":76,"Velocity":77,"Duration":208333,"SoundDuration":208333,"Delta":60794374},{"NoteNumber":76,"Velocity":89,"Duration":402684,"SoundDuration":402684,"Delta":61002708},{"NoteNumber":35,"Velocity":57,"Duration":362416,"SoundDuration":362416,"Delta":61002708},{"NoteNumber":47,"Velocity":69,"Duration":362416,"SoundDuration":362416,"Delta":61002708},{"NoteNumber":75,"Velocity":86,"Duration":384615,"SoundDuration":384615,"Delta":61405392},{"NoteNumber":69,"Velocity":54,"Duration":346153,"SoundDuration":346153,"Delta":61405392},{"NoteNumber":66,"Velocity":54,"Duration":346153,"SoundDuration":346153,"Delta":61405392},{"NoteNumber":60,"Velocity":45,"Duration":346153,"SoundDuration":346153,"Delta":61405392},{"NoteNumber":57,"Velocity":45,"Duration":346153,"SoundDuration":346153,"Delta":61405392},{"NoteNumber":84,"Velocity":92,"Duration":377358,"SoundDuration":377358,"Delta":61790008},{"NoteNumber":57,"Velocity":45,"Duration":339622,"SoundDuration":339622,"Delta":61790008},{"NoteNumber":60,"Velocity":45,"Duration":339622,"SoundDuration":339622,"Delta":61790008},{"NoteNumber":66,"Velocity":54,"Duration":339622,"SoundDuration":339622,"Delta":61790008},{"NoteNumber":69,"Velocity":54,"Duration":339622,"SoundDuration":339622,"Delta":61790008},{"NoteNumber":75,"Velocity":85,"Duration":391528,"SoundDuration":391528,"Delta":62167366},{"NoteNumber":57,"Velocity":45,"Duration":352941,"SoundDuration":352941,"Delta":62167366},{"NoteNumber":60,"Velocity":45,"Duration":352941,"SoundDuration":352941,"Delta":62167366},{"NoteNumber":66,"Velocity":54,"Duration":352941,"SoundDuration":352941,"Delta":62167366},{"NoteNumber":69,"Velocity":54,"Duration":352941,"SoundDuration":352941,"Delta":62167366},{"NoteNumber":75,"Velocity":88,"Duration":384615,"SoundDuration":384615,"Delta":62558895},{"NoteNumber":66,"Velocity":57,"Duration":346153,"SoundDuration":346153,"Delta":62558895},{"NoteNumber":63,"Velocity":57,"Duration":346153,"SoundDuration":346153,"Delta":62558895},{"NoteNumber":59,"Velocity":47,"Duration":346153,"SoundDuration":346153,"Delta":62558895},{"NoteNumber":55,"Velocity":47,"Duration":346153,"SoundDuration":346153,"Delta":62558895},{"NoteNumber":76,"Velocity":82,"Duration":394737,"SoundDuration":394737,"Delta":62943510},{"NoteNumber":64,"Velocity":49,"Duration":355263,"SoundDuration":355263,"Delta":62943510},{"NoteNumber":59,"Velocity":41,"Duration":355263,"SoundDuration":355263,"Delta":62943510},{"NoteNumber":55,"Velocity":41,"Duration":355263,"SoundDuration":355263,"Delta":62943510},{"NoteNumber":79,"Velocity":85,"Duration":392156,"SoundDuration":392156,"Delta":63338247},{"NoteNumber":55,"Velocity":41,"Duration":352941,"SoundDuration":352941,"Delta":63338247},{"NoteNumber":59,"Velocity":41,"Duration":352941,"SoundDuration":352941,"Delta":63338247},{"NoteNumber":64,"Velocity":49,"Duration":352941,"SoundDuration":352941,"Delta":63338247},{"NoteNumber":71,"Velocity":77,"Duration":419580,"SoundDuration":419580,"Delta":63730404},{"NoteNumber":55,"Velocity":41,"Duration":377622,"SoundDuration":377622,"Delta":63730404},{"NoteNumber":59,"Velocity":41,"Duration":377622,"SoundDuration":377622,"Delta":63730404},{"NoteNumber":64,"Velocity":49,"Duration":377622,"SoundDuration":377622,"Delta":63730404},{"NoteNumber":74,"Velocity":80,"Duration":405405,"SoundDuration":405405,"Delta":64149985},{"NoteNumber":64,"Velocity":53,"Duration":364864,"SoundDuration":364864,"Delta":64149985},{"NoteNumber":60,"Velocity":44,"Duration":364864,"SoundDuration":364864,"Delta":64149985},{"NoteNumber":57,"Velocity":44,"Duration":364864,"SoundDuration":364864,"Delta":64149985},{"NoteNumber":72,"Velocity":69,"Duration":447674,"SoundDuration":447674,"Delta":64555390},{"NoteNumber":57,"Velocity":38,"Duration":401291,"SoundDuration":401291,"Delta":64555390},{"NoteNumber":60,"Velocity":38,"Duration":401291,"SoundDuration":401291,"Delta":64555390},{"NoteNumber":64,"Velocity":46,"Duration":401291,"SoundDuration":401291,"Delta":64555390},{"NoteNumber":76,"Velocity":77,"Duration":284715,"SoundDuration":284715,"Delta":65003064},{"NoteNumber":45,"Velocity":44,"Duration":386640,"SoundDuration":386640,"Delta":65003064},{"NoteNumber":64,"Velocity":67,"Duration":294141,"SoundDuration":294141,"Delta":65287780},{"NoteNumber":60,"Velocity":44,"Duration":406202,"SoundDuration":406202,"Delta":65433769},{"NoteNumber":54,"Velocity":37,"Duration":406202,"SoundDuration":406202,"Delta":65433769},{"NoteNumber":52,"Velocity":37,"Duration":406202,"SoundDuration":406202,"Delta":65433769},{"NoteNumber":69,"Velocity":67,"Duration":304502,"SoundDuration":304502,"Delta":65581921},{"NoteNumber":66,"Velocity":73,"Duration":1388915,"SoundDuration":1388915,"Delta":65886424},{"NoteNumber":47,"Velocity":38,"Duration":404783,"SoundDuration":404783,"Delta":65886424},{"NoteNumber":52,"Velocity":38,"Duration":404783,"SoundDuration":404783,"Delta":65886424},{"NoteNumber":59,"Velocity":46,"Duration":404783,"SoundDuration":404783,"Delta":65886424},{"NoteNumber":47,"Velocity":33,"Duration":408439,"SoundDuration":408439,"Delta":66335652},{"NoteNumber":52,"Velocity":33,"Duration":408439,"SoundDuration":408439,"Delta":66335652},{"NoteNumber":59,"Velocity":38,"Duration":408439,"SoundDuration":408439,"Delta":66335652},{"NoteNumber":48,"Velocity":33,"Duration":435162,"SoundDuration":435162,"Delta":66790246},{"NoteNumber":52,"Velocity":33,"Duration":435162,"SoundDuration":435162,"Delta":66790246},{"NoteNumber":57,"Velocity":38,"Duration":435162,"SoundDuration":435162,"Delta":66790246},{"NoteNumber":69,"Velocity":69,"Duration":517033,"SoundDuration":517033,"Delta":67275339},{"NoteNumber":48,"Velocity":29,"Duration":463935,"SoundDuration":463935,"Delta":67275339},{"NoteNumber":52,"Velocity":29,"Duration":463935,"SoundDuration":463935,"Delta":67275339},{"NoteNumber":57,"Velocity":36,"Duration":463935,"SoundDuration":463935,"Delta":67275339},{"NoteNumber":66,"Velocity":64,"Duration":2664301,"SoundDuration":2664301,"Delta":67792372},{"NoteNumber":47,"Velocity":24,"Duration":439024,"SoundDuration":439024,"Delta":67792372},{"NoteNumber":52,"Velocity":29,"Duration":439024,"SoundDuration":439024,"Delta":67792372},{"NoteNumber":59,"Velocity":29,"Duration":439024,"SoundDuration":439024,"Delta":67792372},{"NoteNumber":47,"Velocity":22,"Duration":412213,"SoundDuration":412213,"Delta":68280177},{"NoteNumber":52,"Velocity":27,"Duration":412213,"SoundDuration":412213,"Delta":68280177},{"NoteNumber":59,"Velocity":27,"Duration":412213,"SoundDuration":412213,"Delta":68280177},{"NoteNumber":47,"Velocity":22,"Duration":397058,"SoundDuration":397058,"Delta":68738193},{"NoteNumber":59,"Velocity":27,"Duration":397058,"SoundDuration":397058,"Delta":68738193},{"NoteNumber":52,"Velocity":27,"Duration":397058,"SoundDuration":397058,"Delta":68745546},{"NoteNumber":47,"Velocity":22,"Duration":398799,"SoundDuration":398799,"Delta":69179369},{"NoteNumber":52,"Velocity":27,"Duration":398799,"SoundDuration":398799,"Delta":69179369},{"NoteNumber":59,"Velocity":27,"Duration":398799,"SoundDuration":398799,"Delta":69179369},{"NoteNumber":48,"Velocity":22,"Duration":423662,"SoundDuration":423662,"Delta":69624898},{"NoteNumber":52,"Velocity":27,"Duration":423662,"SoundDuration":423662,"Delta":69624898},{"NoteNumber":57,"Velocity":27,"Duration":423662,"SoundDuration":423662,"Delta":69624898},{"NoteNumber":48,"Velocity":22,"Duration":433247,"SoundDuration":433247,"Delta":70095634},{"NoteNumber":52,"Velocity":27,"Duration":433247,"SoundDuration":433247,"Delta":70095634},{"NoteNumber":57,"Velocity":27,"Duration":433247,"SoundDuration":433247,"Delta":70095634},{"NoteNumber":71,"Velocity":47,"Duration":120346,"SoundDuration":120346,"Delta":70456674},{"NoteNumber":69,"Velocity":57,"Duration":989936,"SoundDuration":989936,"Delta":70577020},{"NoteNumber":48,"Velocity":19,"Duration":439596,"SoundDuration":439596,"Delta":70577020},{"NoteNumber":52,"Velocity":23,"Duration":439596,"SoundDuration":439596,"Delta":70577020},{"NoteNumber":57,"Velocity":23,"Duration":439596,"SoundDuration":439596,"Delta":70577020},{"NoteNumber":48,"Velocity":19,"Duration":450240,"SoundDuration":450240,"Delta":71065878},{"NoteNumber":52,"Velocity":23,"Duration":450240,"SoundDuration":450240,"Delta":71065878},{"NoteNumber":57,"Velocity":23,"Duration":450240,"SoundDuration":450240,"Delta":71065878},{"NoteNumber":66,"Velocity":57,"Duration":3632823,"SoundDuration":3632823,"Delta":71566957},{"NoteNumber":47,"Velocity":24,"Duration":461223,"SoundDuration":461223,"Delta":71566957},{"NoteNumber":52,"Velocity":29,"Duration":461223,"SoundDuration":461223,"Delta":71566957},{"NoteNumber":59,"Velocity":29,"Duration":461223,"SoundDuration":461223,"Delta":71566957},{"NoteNumber":47,"Velocity":22,"Duration":433247,"SoundDuration":433247,"Delta":72079427},{"NoteNumber":52,"Velocity":27,"Duration":433247,"SoundDuration":433247,"Delta":72079427},{"NoteNumber":59,"Velocity":27,"Duration":433247,"SoundDuration":433247,"Delta":72079427},{"NoteNumber":47,"Velocity":22,"Duration":420560,"SoundDuration":420560,"Delta":72560814},{"NoteNumber":59,"Velocity":27,"Duration":420560,"SoundDuration":420560,"Delta":72560814},{"NoteNumber":52,"Velocity":27,"Duration":420560,"SoundDuration":420560,"Delta":72568602},{"NoteNumber":47,"Velocity":22,"Duration":405648,"SoundDuration":405648,"Delta":73028103},{"NoteNumber":52,"Velocity":27,"Duration":405648,"SoundDuration":405648,"Delta":73028103},{"NoteNumber":59,"Velocity":27,"Duration":405648,"SoundDuration":405648,"Delta":73028103},{"NoteNumber":47,"Velocity":22,"Duration":433247,"SoundDuration":433247,"Delta":73478824},{"NoteNumber":51,"Velocity":27,"Duration":433247,"SoundDuration":433247,"Delta":73478824},{"NoteNumber":59,"Velocity":27,"Duration":433247,"SoundDuration":433247,"Delta":73478824},{"NoteNumber":47,"Velocity":22,"Duration":433496,"SoundDuration":433496,"Delta":73960211},{"NoteNumber":51,"Velocity":27,"Duration":433496,"SoundDuration":433496,"Delta":73960211},{"NoteNumber":59,"Velocity":27,"Duration":433496,"SoundDuration":433496,"Delta":73960211},{"NoteNumber":47,"Velocity":19,"Duration":447672,"SoundDuration":447672,"Delta":74442220},{"NoteNumber":51,"Velocity":23,"Duration":447672,"SoundDuration":447672,"Delta":74442220},{"NoteNumber":57,"Velocity":23,"Duration":447672,"SoundDuration":447672,"Delta":74442220},{"NoteNumber":47,"Velocity":19,"Duration":493306,"SoundDuration":493306,"Delta":74940731},{"NoteNumber":51,"Velocity":23,"Duration":493306,"SoundDuration":493306,"Delta":74940731},{"NoteNumber":57,"Velocity":23,"Duration":493306,"SoundDuration":493306,"Delta":74940731},{"NoteNumber":64,"Velocity":52,"Duration":297802,"SoundDuration":297802,"Delta":75199781},{"NoteNumber":64,"Velocity":57,"Duration":2884273,"SoundDuration":2884273,"Delta":75497583},{"NoteNumber":48,"Velocity":32,"Duration":461223,"SoundDuration":461223,"Delta":75497583},{"NoteNumber":55,"Velocity":32,"Duration":461223,"SoundDuration":461223,"Delta":75497583},{"NoteNumber":48,"Velocity":29,"Duration":433247,"SoundDuration":433247,"Delta":76010053},{"NoteNumber":55,"Velocity":29,"Duration":433247,"SoundDuration":433247,"Delta":76010053},{"NoteNumber":48,"Velocity":29,"Duration":417439,"SoundDuration":417439,"Delta":76491440},{"NoteNumber":55,"Velocity":29,"Duration":417439,"SoundDuration":417439,"Delta":76491440},{"NoteNumber":48,"Velocity":28,"Duration":417439,"SoundDuration":417439,"Delta":76955262},{"NoteNumber":55,"Velocity":28,"Duration":417439,"SoundDuration":417439,"Delta":76955262},{"NoteNumber":48,"Velocity":28,"Duration":433247,"SoundDuration":433247,"Delta":77419084},{"NoteNumber":58,"Velocity":28,"Duration":433247,"SoundDuration":433247,"Delta":77419084},{"NoteNumber":48,"Velocity":28,"Duration":433247,"SoundDuration":433247,"Delta":77900470},{"NoteNumber":58,"Velocity":28,"Duration":433247,"SoundDuration":433247,"Delta":77900470},{"NoteNumber":66,"Velocity":52,"Duration":989936,"SoundDuration":989936,"Delta":78381857},{"NoteNumber":48,"Velocity":19,"Duration":439596,"SoundDuration":439596,"Delta":78381857},{"NoteNumber":52,"Velocity":23,"Duration":439596,"SoundDuration":439596,"Delta":78381857},{"NoteNumber":57,"Velocity":23,"Duration":439596,"SoundDuration":439596,"Delta":78381857},{"NoteNumber":48,"Velocity":19,"Duration":450240,"SoundDuration":450240,"Delta":78870714},{"NoteNumber":52,"Velocity":23,"Duration":450240,"SoundDuration":450240,"Delta":78870714},{"NoteNumber":57,"Velocity":23,"Duration":450240,"SoundDuration":450240,"Delta":78870714},{"NoteNumber":64,"Velocity":52,"Duration":2899343,"SoundDuration":2899343,"Delta":79371794},{"NoteNumber":47,"Velocity":24,"Duration":461223,"SoundDuration":461223,"Delta":79371794},{"NoteNumber":52,"Velocity":29,"Duration":461223,"SoundDuration":461223,"Delta":79371794},{"NoteNumber":57,"Velocity":29,"Duration":461223,"SoundDuration":461223,"Delta":79371794},{"NoteNumber":47,"Velocity":22,"Duration":433247,"SoundDuration":433247,"Delta":79884264},{"NoteNumber":52,"Velocity":27,"Duration":433247,"SoundDuration":433247,"Delta":79884264},{"NoteNumber":57,"Velocity":27,"Duration":433247,"SoundDuration":433247,"Delta":79884264},{"NoteNumber":47,"Velocity":22,"Duration":423662,"SoundDuration":423662,"Delta":80365650},{"NoteNumber":56,"Velocity":27,"Duration":423662,"SoundDuration":423662,"Delta":80365650},{"NoteNumber":52,"Velocity":27,"Duration":423662,"SoundDuration":423662,"Delta":80373496},{"NoteNumber":47,"Velocity":22,"Duration":423662,"SoundDuration":423662,"Delta":80836386},{"NoteNumber":52,"Velocity":27,"Duration":423662,"SoundDuration":423662,"Delta":80836386},{"NoteNumber":56,"Velocity":27,"Duration":423662,"SoundDuration":423662,"Delta":80836386},{"NoteNumber":47,"Velocity":22,"Duration":433247,"SoundDuration":433247,"Delta":81307122},{"NoteNumber":52,"Velocity":27,"Duration":433247,"SoundDuration":433247,"Delta":81307122},{"NoteNumber":55,"Velocity":27,"Duration":433247,"SoundDuration":433247,"Delta":81307122},{"NoteNumber":47,"Velocity":22,"Duration":433744,"SoundDuration":433744,"Delta":81788509},{"NoteNumber":52,"Velocity":27,"Duration":433744,"SoundDuration":433744,"Delta":81788509},{"NoteNumber":55,"Velocity":27,"Duration":433744,"SoundDuration":433744,"Delta":81788509},{"NoteNumber":66,"Velocity":47,"Duration":1091056,"SoundDuration":1091056,"Delta":82271137},{"NoteNumber":47,"Velocity":19,"Duration":463195,"SoundDuration":463195,"Delta":82271137},{"NoteNumber":52,"Velocity":23,"Duration":463195,"SoundDuration":463195,"Delta":82271137},{"NoteNumber":55,"Velocity":23,"Duration":463195,"SoundDuration":463195,"Delta":82271137},{"NoteNumber":47,"Velocity":19,"Duration":513489,"SoundDuration":513489,"Delta":82788183},{"NoteNumber":52,"Velocity":23,"Duration":513489,"SoundDuration":513489,"Delta":82788183},{"NoteNumber":55,"Velocity":23,"Duration":513489,"SoundDuration":513489,"Delta":82788183},{"NoteNumber":64,"Velocity":47,"Duration":2100840,"SoundDuration":2100840,"Delta":83362193},{"NoteNumber":46,"Velocity":24,"Duration":2100840,"SoundDuration":2100840,"Delta":83362193},{"NoteNumber":48,"Velocity":29,"Duration":2100840,"SoundDuration":2100840,"Delta":83362193},{"NoteNumber":55,"Velocity":29,"Duration":2100840,"SoundDuration":2100840,"Delta":83362193},{"NoteNumber":52,"Velocity":28,"Duration":2135992,"SoundDuration":2135992,"Delta":88004867},{"NoteNumber":64,"Velocity":33,"Duration":2135992,"SoundDuration":2135992,"Delta":88004867},{"NoteNumber":54,"Velocity":28,"Duration":2135992,"SoundDuration":2135992,"Delta":88004867},{"NoteNumber":59,"Velocity":28,"Duration":2135992,"SoundDuration":2135992,"Delta":88004867},{"NoteNumber":35,"Velocity":19,"Duration":2135992,"SoundDuration":2135992,"Delta":88004867},{"NoteNumber":47,"Velocity":23,"Duration":2135992,"SoundDuration":2135992,"Delta":88004867},{"NoteNumber":54,"Velocity":28,"Duration":2353864,"SoundDuration":2353864,"Delta":90140859},{"NoteNumber":59,"Velocity":28,"Duration":2353864,"SoundDuration":2353864,"Delta":90140859},{"NoteNumber":51,"Velocity":28,"Duration":2353864,"SoundDuration":2353864,"Delta":90140859},{"NoteNumber":63,"Velocity":33,"Duration":2353864,"SoundDuration":2353864,"Delta":90140859},{"NoteNumber":35,"Velocity":19,"Duration":2353864,"SoundDuration":2353864,"Delta":90140859},{"NoteNumber":42,"Velocity":23,"Duration":2353864,"SoundDuration":2353864,"Delta":90140859},{"NoteNumber":47,"Velocity":23,"Duration":2353864,"SoundDuration":2353864,"Delta":90140859},{"NoteNumber":64,"Velocity":33,"Duration":5083668,"SoundDuration":5083668,"Delta":92494723},{"NoteNumber":59,"Velocity":28,"Duration":5083668,"SoundDuration":5083668,"Delta":92494723},{"NoteNumber":52,"Velocity":28,"Duration":5083668,"SoundDuration":5083668,"Delta":92494723},{"NoteNumber":55,"Velocity":28,"Duration":5083668,"SoundDuration":5083668,"Delta":92494723},{"NoteNumber":28,"Velocity":19,"Duration":5083668,"SoundDuration":5083668,"Delta":92494723},{"NoteNumber":40,"Velocity":23,"Duration":5083668,"SoundDuration":5083668,"Delta":92494723}],"license":{"name":"Creative Commons Attribution-ShareAlike 3.0 Germany","url":"http://creativecommons.org/licenses/by-sa/3.0/de/deed.en","text":"The MIDI, audio (MP3, OGG) and video files of Bernd Krueger are licensed under the cc-by-sa Germany License. This means that you can use and adapt the files, as long as you attribute the copyright holder.\n\nName: Bernd Krueger\nSource: http://www.piano-midi.de\n\nThe distribution or public playback of the files is only allowed under identical license conditions.\n\nThe scores are open source.","attribution":"MIDI files by Bernd Krueger (piano-midi.de)"}}