{"title":"Prelude No. 21, Opus 28","artist":"Chopin","durationMs":105106,"midiSha256":"be95060172c4ee68ac8ae1dc207c9df8da3c46446bf5db793c347aa3c4b4ce35","midiObject":[{"NoteNumber":77,"Velocity":52,"Duration":1800532,"SoundDuration":1800532,"Delta":0},{"NoteNumber":34,"Velocity":50,"Duration":355029,"SoundDuration":355029,"Delta":0},{"NoteNumber":53,"Velocity":40,"Duration":296466,"SoundDuration":296466,"Delta":355029},{"NoteNumber":52,"Velocity":32,"Duration":284581,"SoundDuration":284581,"Delta":651495},{"NoteNumber":55,"Velocity":40,"Duration":284581,"SoundDuration":284581,"Delta":651495},{"NoteNumber":51,"Velocity":32,"Duration":278964,"SoundDuration":278964,"Delta":936076},{"NoteNumber":57,"Velocity":41,"Duration":278964,"SoundDuration":278964,"Delta":936076},{"NoteNumber":50,"Velocity":35,"Duration":288461,"SoundDuration":288461,"Delta":1215041},{"NoteNumber":58,"Velocity":44,"Duration":288461,"SoundDuration":288461,"Delta":1215041},{"NoteNumber":48,"Velocity":35,"Duration":297029,"SoundDuration":297029,"Delta":1503502},{"NoteNumber":60,"Velocity":45,"Duration":297029,"SoundDuration":297029,"Delta":1503502},{"NoteNumber":74,"Velocity":52,"Duration":1085534,"SoundDuration":1085534,"Delta":1800532},{"NoteNumber":46,"Velocity":50,"Duration":333333,"SoundDuration":333333,"Delta":1800532},{"NoteNumber":53,"Velocity":28,"Duration":285574,"SoundDuration":285574,"Delta":2133865},{"NoteNumber":62,"Velocity":36,"Duration":285574,"SoundDuration":285574,"Delta":2133865},{"NoteNumber":52,"Velocity":35,"Duration":281132,"SoundDuration":281132,"Delta":2419440},{"NoteNumber":55,"Velocity":44,"Duration":281132,"SoundDuration":281132,"Delta":2419440},{"NoteNumber":51,"Velocity":37,"Duration":278241,"SoundDuration":278241,"Delta":2700572},{"NoteNumber":57,"Velocity":47,"Duration":278241,"SoundDuration":278241,"Delta":2700572},{"NoteNumber":77,"Velocity":53,"Duration":116785,"SoundDuration":116785,"Delta":2886066},{"NoteNumber":75,"Velocity":59,"Duration":602597,"SoundDuration":602597,"Delta":2978813},{"NoteNumber":50,"Velocity":40,"Duration":288461,"SoundDuration":288461,"Delta":2978813},{"NoteNumber":58,"Velocity":50,"Duration":288461,"SoundDuration":288461,"Delta":2978813},{"NoteNumber":46,"Velocity":40,"Duration":314135,"SoundDuration":314135,"Delta":3267275},{"NoteNumber":74,"Velocity":55,"Duration":1745986,"SoundDuration":1745986,"Delta":3581411},{"NoteNumber":39,"Velocity":50,"Duration":304568,"SoundDuration":304568,"Delta":3581411},{"NoteNumber":55,"Velocity":39,"Duration":288605,"SoundDuration":288605,"Delta":3885979},{"NoteNumber":57,"Velocity":40,"Duration":284078,"SoundDuration":284078,"Delta":4174585},{"NoteNumber":54,"Velocity":32,"Duration":284078,"SoundDuration":284078,"Delta":4174585},{"NoteNumber":53,"Velocity":31,"Duration":278964,"SoundDuration":278964,"Delta":4458664},{"NoteNumber":59,"Velocity":39,"Duration":278964,"SoundDuration":278964,"Delta":4458664},{"NoteNumber":51,"Velocity":35,"Duration":291261,"SoundDuration":291261,"Delta":4737628},{"NoteNumber":60,"Velocity":44,"Duration":291261,"SoundDuration":291261,"Delta":4737628},{"NoteNumber":50,"Velocity":36,"Duration":298507,"SoundDuration":298507,"Delta":5028890},{"NoteNumber":62,"Velocity":47,"Duration":298507,"SoundDuration":298507,"Delta":5028890},{"NoteNumber":67,"Velocity":52,"Duration":1170315,"SoundDuration":1170315,"Delta":5327397},{"NoteNumber":48,"Velocity":50,"Duration":315789,"SoundDuration":315789,"Delta":5327397},{"NoteNumber":63,"Velocity":41,"Duration":287840,"SoundDuration":287840,"Delta":5643187},{"NoteNumber":55,"Velocity":32,"Duration":287840,"SoundDuration":287840,"Delta":5643187},{"NoteNumber":54,"Velocity":35,"Duration":284821,"SoundDuration":284821,"Delta":5931028},{"NoteNumber":57,"Velocity":44,"Duration":284821,"SoundDuration":284821,"Delta":5931028},{"NoteNumber":53,"Velocity":37,"Duration":281864,"SoundDuration":281864,"Delta":6215849},{"NoteNumber":59,"Velocity":47,"Duration":281864,"SoundDuration":281864,"Delta":6215849},{"NoteNumber":51,"Velocity":40,"Duration":278954,"SoundDuration":278954,"Delta":6497713},{"NoteNumber":60,"Velocity":50,"Duration":278954,"SoundDuration":278954,"Delta":6497713},{"NoteNumber":63,"Velocity":52,"Duration":294869,"SoundDuration":294869,"Delta":6776668},{"NoteNumber":48,"Velocity":41,"Duration":294869,"SoundDuration":294869,"Delta":6776668},{"NoteNumber":69,"Velocity":57,"Duration":606739,"SoundDuration":606739,"Delta":7071537},{"NoteNumber":41,"Velocity":50,"Duration":319149,"SoundDuration":319149,"Delta":7071537},{"NoteNumber":66,"Velocity":42,"Duration":287590,"SoundDuration":287590,"Delta":7390686},{"NoteNumber":58,"Velocity":33,"Duration":287590,"SoundDuration":287590,"Delta":7390686},{"NoteNumber":75,"Velocity":58,"Duration":563745,"SoundDuration":563745,"Delta":7678277},{"NoteNumber":65,"Velocity":43,"Duration":283825,"SoundDuration":283825,"Delta":7678277},{"NoteNumber":57,"Velocity":34,"Duration":283825,"SoundDuration":283825,"Delta":7678277},{"NoteNumber":56,"Velocity":31,"Duration":279919,"SoundDuration":279919,"Delta":7962103},{"NoteNumber":60,"Velocity":39,"Duration":279919,"SoundDuration":279919,"Delta":7962103},{"NoteNumber":75,"Velocity":56,"Duration":586884,"SoundDuration":586884,"Delta":8242022},{"NoteNumber":63,"Velocity":40,"Duration":289854,"SoundDuration":289854,"Delta":8242022},{"NoteNumber":55,"Velocity":32,"Duration":289854,"SoundDuration":289854,"Delta":8242022},{"NoteNumber":58,"Velocity":37,"Duration":297029,"SoundDuration":297029,"Delta":8531877},{"NoteNumber":54,"Velocity":29,"Duration":297029,"SoundDuration":297029,"Delta":8531877},{"NoteNumber":75,"Velocity":58,"Duration":546991,"SoundDuration":546991,"Delta":8828907},{"NoteNumber":41,"Velocity":50,"Duration":309278,"SoundDuration":309278,"Delta":8828907},{"NoteNumber":63,"Velocity":41,"Duration":318358,"SoundDuration":318358,"Delta":9138185},{"NoteNumber":54,"Velocity":32,"Duration":318358,"SoundDuration":318358,"Delta":9138185},{"NoteNumber":75,"Velocity":49,"Duration":80645,"SoundDuration":80645,"Delta":9295253},{"NoteNumber":77,"Velocity":51,"Duration":80645,"SoundDuration":80645,"Delta":9349017},{"NoteNumber":75,"Velocity":54,"Duration":77572,"SoundDuration":77572,"Delta":9402780},{"NoteNumber":74,"Velocity":55,"Duration":568137,"SoundDuration":568137,"Delta":9456544},{"NoteNumber":62,"Velocity":45,"Duration":285488,"SoundDuration":285488,"Delta":9456544},{"NoteNumber":53,"Velocity":36,"Duration":285488,"SoundDuration":285488,"Delta":9456544},{"NoteNumber":52,"Velocity":31,"Duration":282648,"SoundDuration":282648,"Delta":9742032},{"NoteNumber":55,"Velocity":39,"Duration":282648,"SoundDuration":282648,"Delta":9742032},{"NoteNumber":75,"Velocity":56,"Duration":589969,"SoundDuration":589969,"Delta":10024681},{"NoteNumber":51,"Velocity":31,"Duration":288461,"SoundDuration":288461,"Delta":10024681},{"NoteNumber":57,"Velocity":39,"Duration":288461,"SoundDuration":288461,"Delta":10024681},{"NoteNumber":53,"Velocity":36,"Duration":301507,"SoundDuration":301507,"Delta":10313142},{"NoteNumber":79,"Velocity":57,"Duration":1593227,"SoundDuration":1593227,"Delta":10614650},{"NoteNumber":46,"Velocity":50,"Duration":319335,"SoundDuration":319335,"Delta":10614650},{"NoteNumber":53,"Velocity":41,"Duration":283095,"SoundDuration":283095,"Delta":10933985},{"NoteNumber":52,"Velocity":32,"Duration":277778,"SoundDuration":277778,"Delta":11217081},{"NoteNumber":55,"Velocity":41,"Duration":277778,"SoundDuration":277778,"Delta":11217081},{"NoteNumber":51,"Velocity":28,"Duration":272664,"SoundDuration":272664,"Delta":11494859},{"NoteNumber":57,"Velocity":36,"Duration":272664,"SoundDuration":272664,"Delta":11494859},{"NoteNumber":50,"Velocity":32,"Duration":285714,"SoundDuration":285714,"Delta":11767523},{"NoteNumber":58,"Velocity":41,"Duration":285714,"SoundDuration":285714,"Delta":11767523},{"NoteNumber":48,"Velocity":28,"Duration":309278,"SoundDuration":309278,"Delta":12053238},{"NoteNumber":60,"Velocity":36,"Duration":309278,"SoundDuration":309278,"Delta":12053238},{"NoteNumber":77,"Velocity":48,"Duration":154639,"SoundDuration":154639,"Delta":12207877},{"NoteNumber":74,"Velocity":52,"Duration":1182039,"SoundDuration":1182039,"Delta":12362516},{"NoteNumber":46,"Velocity":50,"Duration":335195,"SoundDuration":335195,"Delta":12362516},{"NoteNumber":53,"Velocity":28,"Duration":283018,"SoundDuration":283018,"Delta":12697712},{"NoteNumber":62,"Velocity":36,"Duration":283018,"SoundDuration":283018,"Delta":12697712},{"NoteNumber":52,"Velocity":32,"Duration":282354,"SoundDuration":282354,"Delta":12980731},{"NoteNumber":55,"Velocity":41,"Duration":282354,"SoundDuration":282354,"Delta":12980731},{"NoteNumber":51,"Velocity":28,"Duration":281470,"SoundDuration":281470,"Delta":13263085},{"NoteNumber":57,"Velocity":36,"Duration":281470,"SoundDuration":281470,"Delta":13263085},{"NoteNumber":50,"Velocity":32,"Duration":281136,"SoundDuration":281136,"Delta":13544556},{"NoteNumber":58,"Velocity":41,"Duration":281136,"SoundDuration":281136,"Delta":13544556},{"NoteNumber":48,"Velocity":29,"Duration":307692,"SoundDuration":307692,"Delta":13825692},{"NoteNumber":60,"Velocity":37,"Duration":307692,"SoundDuration":307692,"Delta":13825692},{"NoteNumber":82,"Velocity":70,"Duration":1756278,"SoundDuration":1756278,"Delta":14133384},{"NoteNumber":43,"Velocity":50,"Duration":319148,"SoundDuration":319148,"Delta":14133384},{"NoteNumber":62,"Velocity":42,"Duration":285574,"SoundDuration":285574,"Delta":14452533},{"NoteNumber":61,"Velocity":33,"Duration":280649,"SoundDuration":280649,"Delta":14738108},{"NoteNumber":64,"Velocity":42,"Duration":280649,"SoundDuration":280649,"Delta":14738108},{"NoteNumber":60,"Velocity":33,"Duration":276131,"SoundDuration":276131,"Delta":15018758},{"NoteNumber":66,"Velocity":43,"Duration":276131,"SoundDuration":276131,"Delta":15018758},{"NoteNumber":58,"Velocity":36,"Duration":287081,"SoundDuration":287081,"Delta":15294889},{"NoteNumber":67,"Velocity":46,"Duration":287081,"SoundDuration":287081,"Delta":15294889},{"NoteNumber":57,"Velocity":37,"Duration":307692,"SoundDuration":307692,"Delta":15581970},{"NoteNumber":69,"Velocity":48,"Duration":307692,"SoundDuration":307692,"Delta":15581970},{"NoteNumber":70,"Velocity":61,"Duration":1609785,"SoundDuration":1609785,"Delta":15889663},{"NoteNumber":46,"Velocity":50,"Duration":327868,"SoundDuration":327868,"Delta":15889663},{"NoteNumber":58,"Velocity":40,"Duration":285574,"SoundDuration":285574,"Delta":16217532},{"NoteNumber":57,"Velocity":32,"Duration":280649,"SoundDuration":280649,"Delta":16503106},{"NoteNumber":60,"Velocity":40,"Duration":280649,"SoundDuration":280649,"Delta":16503106},{"NoteNumber":56,"Velocity":32,"Duration":276130,"SoundDuration":276130,"Delta":16783756},{"NoteNumber":62,"Velocity":41,"Duration":276130,"SoundDuration":276130,"Delta":16783756},{"NoteNumber":55,"Velocity":35,"Duration":285714,"SoundDuration":285714,"Delta":17059887},{"NoteNumber":63,"Velocity":44,"Duration":285714,"SoundDuration":285714,"Delta":17059887},{"NoteNumber":53,"Velocity":38,"Duration":321443,"SoundDuration":321443,"Delta":17345602},{"NoteNumber":65,"Velocity":48,"Duration":321443,"SoundDuration":321443,"Delta":17345602},{"NoteNumber":70,"Velocity":54,"Duration":167597,"SoundDuration":167597,"Delta":17499448},{"NoteNumber":79,"Velocity":66,"Duration":1751360,"SoundDuration":1751360,"Delta":17667046},{"NoteNumber":39,"Velocity":50,"Duration":327868,"SoundDuration":327868,"Delta":17667046},{"NoteNumber":55,"Velocity":40,"Duration":285574,"SoundDuration":285574,"Delta":17994915},{"NoteNumber":54,"Velocity":32,"Duration":280649,"SoundDuration":280649,"Delta":18280489},{"NoteNumber":57,"Velocity":40,"Duration":280649,"SoundDuration":280649,"Delta":18280489},{"NoteNumber":53,"Velocity":32,"Duration":276130,"SoundDuration":276130,"Delta":18561139},{"NoteNumber":59,"Velocity":41,"Duration":276130,"SoundDuration":276130,"Delta":18561139},{"NoteNumber":51,"Velocity":35,"Duration":281136,"SoundDuration":281136,"Delta":18837270},{"NoteNumber":60,"Velocity":44,"Duration":281136,"SoundDuration":281136,"Delta":18837270},{"NoteNumber":50,"Velocity":36,"Duration":300000,"SoundDuration":300000,"Delta":19118406},{"NoteNumber":62,"Velocity":46,"Duration":300000,"SoundDuration":300000,"Delta":19118406},{"NoteNumber":67,"Velocity":60,"Duration":296954,"SoundDuration":296954,"Delta":19418406},{"NoteNumber":48,"Velocity":50,"Duration":304568,"SoundDuration":304568,"Delta":19418406},{"NoteNumber":67,"Velocity":49,"Duration":62500,"SoundDuration":62500,"Delta":19722974},{"NoteNumber":55,"Velocity":32,"Duration":320581,"SoundDuration":320581,"Delta":19722974},{"NoteNumber":63,"Velocity":40,"Duration":320581,"SoundDuration":320581,"Delta":19722974},{"NoteNumber":69,"Velocity":49,"Duration":62500,"SoundDuration":62500,"Delta":19785474},{"NoteNumber":67,"Velocity":49,"Duration":62500,"SoundDuration":62500,"Delta":19847974},{"NoteNumber":66,"Velocity":49,"Duration":64116,"SoundDuration":64116,"Delta":19910474},{"NoteNumber":67,"Velocity":51,"Duration":68965,"SoundDuration":68965,"Delta":19974591},{"NoteNumber":75,"Velocity":57,"Duration":576728,"SoundDuration":576728,"Delta":20043556},{"NoteNumber":54,"Velocity":32,"Duration":290326,"SoundDuration":290326,"Delta":20043556},{"NoteNumber":57,"Velocity":40,"Duration":290326,"SoundDuration":290326,"Delta":20043556},{"NoteNumber":53,"Velocity":32,"Duration":286402,"SoundDuration":286402,"Delta":20333883},{"NoteNumber":59,"Velocity":41,"Duration":286402,"SoundDuration":286402,"Delta":20333883},{"NoteNumber":72,"Velocity":55,"Duration":603259,"SoundDuration":603259,"Delta":20620285},{"NoteNumber":51,"Velocity":35,"Duration":295566,"SoundDuration":295566,"Delta":20620285},{"NoteNumber":60,"Velocity":44,"Duration":295566,"SoundDuration":295566,"Delta":20620285},{"NoteNumber":48,"Velocity":35,"Duration":307692,"SoundDuration":307692,"Delta":20915851},{"NoteNumber":63,"Velocity":45,"Duration":307692,"SoundDuration":307692,"Delta":20915851},{"NoteNumber":69,"Velocity":55,"Duration":337078,"SoundDuration":337078,"Delta":21223544},{"NoteNumber":41,"Velocity":50,"Duration":337078,"SoundDuration":337078,"Delta":21223544},{"NoteNumber":77,"Velocity":50,"Duration":284078,"SoundDuration":284078,"Delta":21560622},{"NoteNumber":86,"Velocity":63,"Duration":284078,"SoundDuration":284078,"Delta":21560622},{"NoteNumber":74,"Velocity":50,"Duration":284078,"SoundDuration":284078,"Delta":21560622},{"NoteNumber":65,"Velocity":40,"Duration":284078,"SoundDuration":284078,"Delta":21560622},{"NoteNumber":79,"Velocity":60,"Duration":279208,"SoundDuration":279208,"Delta":21844701},{"NoteNumber":76,"Velocity":48,"Duration":279208,"SoundDuration":279208,"Delta":21844701},{"NoteNumber":67,"Velocity":48,"Duration":279208,"SoundDuration":279208,"Delta":21844701},{"NoteNumber":64,"Velocity":38,"Duration":279208,"SoundDuration":279208,"Delta":21844701},{"NoteNumber":81,"Velocity":58,"Duration":274731,"SoundDuration":274731,"Delta":22123909},{"NoteNumber":75,"Velocity":46,"Duration":274731,"SoundDuration":274731,"Delta":22123909},{"NoteNumber":69,"Velocity":46,"Duration":274731,"SoundDuration":274731,"Delta":22123909},{"NoteNumber":63,"Velocity":36,"Duration":274731,"SoundDuration":274731,"Delta":22123909},{"NoteNumber":74,"Velocity":44,"Duration":276829,"SoundDuration":276829,"Delta":22398641},{"NoteNumber":82,"Velocity":55,"Duration":276829,"SoundDuration":276829,"Delta":22398641},{"NoteNumber":62,"Velocity":35,"Duration":276829,"SoundDuration":276829,"Delta":22398641},{"NoteNumber":70,"Velocity":44,"Duration":276829,"SoundDuration":276829,"Delta":22398641},{"NoteNumber":73,"Velocity":41,"Duration":291715,"SoundDuration":291715,"Delta":22675471},{"NoteNumber":77,"Velocity":52,"Duration":291715,"SoundDuration":291715,"Delta":22675471},{"NoteNumber":65,"Velocity":41,"Duration":291715,"SoundDuration":291715,"Delta":22675471},{"NoteNumber":61,"Velocity":32,"Duration":291715,"SoundDuration":291715,"Delta":22675471},{"NoteNumber":80,"Velocity":60,"Duration":291715,"SoundDuration":291715,"Delta":22967186},{"NoteNumber":72,"Velocity":48,"Duration":291715,"SoundDuration":291715,"Delta":22967186},{"NoteNumber":60,"Velocity":38,"Duration":291715,"SoundDuration":291715,"Delta":22967186},{"NoteNumber":68,"Velocity":48,"Duration":291715,"SoundDuration":291715,"Delta":22967186},{"NoteNumber":70,"Velocity":46,"Duration":284078,"SoundDuration":284078,"Delta":23258902},{"NoteNumber":78,"Velocity":58,"Duration":284078,"SoundDuration":284078,"Delta":23258902},{"NoteNumber":66,"Velocity":46,"Duration":284078,"SoundDuration":284078,"Delta":23258902},{"NoteNumber":58,"Velocity":36,"Duration":284078,"SoundDuration":284078,"Delta":23258902},{"NoteNumber":72,"Velocity":57,"Duration":279681,"SoundDuration":279681,"Delta":23542980},{"NoteNumber":69,"Velocity":45,"Duration":279681,"SoundDuration":279681,"Delta":23542980},{"NoteNumber":57,"Velocity":36,"Duration":279681,"SoundDuration":279681,"Delta":23542980},{"NoteNumber":60,"Velocity":45,"Duration":279681,"SoundDuration":279681,"Delta":23542980},{"NoteNumber":68,"Velocity":43,"Duration":275427,"SoundDuration":275427,"Delta":23822662},{"NoteNumber":74,"Velocity":55,"Duration":275427,"SoundDuration":275427,"Delta":23822662},{"NoteNumber":56,"Velocity":34,"Duration":275427,"SoundDuration":275427,"Delta":23822662},{"NoteNumber":62,"Velocity":44,"Duration":275427,"SoundDuration":275427,"Delta":23822662},{"NoteNumber":67,"Velocity":42,"Duration":282592,"SoundDuration":282592,"Delta":24098090},{"NoteNumber":75,"Velocity":54,"Duration":282592,"SoundDuration":282592,"Delta":24098090},{"NoteNumber":63,"Velocity":43,"Duration":282592,"SoundDuration":282592,"Delta":24098090},{"NoteNumber":55,"Velocity":33,"Duration":282592,"SoundDuration":282592,"Delta":24098090},{"NoteNumber":70,"Velocity":52,"Duration":320855,"SoundDuration":320855,"Delta":24380682},{"NoteNumber":66,"Velocity":41,"Duration":320855,"SoundDuration":320855,"Delta":24380682},{"NoteNumber":54,"Velocity":32,"Duration":320855,"SoundDuration":320855,"Delta":24380682},{"NoteNumber":58,"Velocity":41,"Duration":320855,"SoundDuration":320855,"Delta":24380682},{"NoteNumber":46,"Velocity":50,"Duration":309278,"SoundDuration":309278,"Delta":24701538},{"NoteNumber":65,"Velocity":43,"Duration":288605,"SoundDuration":288605,"Delta":25010816},{"NoteNumber":74,"Velocity":55,"Duration":288605,"SoundDuration":288605,"Delta":25010816},{"NoteNumber":53,"Velocity":34,"Duration":288605,"SoundDuration":288605,"Delta":25010816},{"NoteNumber":62,"Velocity":43,"Duration":288605,"SoundDuration":288605,"Delta":25010816},{"NoteNumber":67,"Velocity":54,"Duration":284078,"SoundDuration":284078,"Delta":25299422},{"NoteNumber":64,"Velocity":43,"Duration":284078,"SoundDuration":284078,"Delta":25299422},{"NoteNumber":52,"Velocity":34,"Duration":284078,"SoundDuration":284078,"Delta":25299422},{"NoteNumber":55,"Velocity":43,"Duration":284078,"SoundDuration":284078,"Delta":25299422},{"NoteNumber":63,"Velocity":41,"Duration":281136,"SoundDuration":281136,"Delta":25583500},{"NoteNumber":69,"Velocity":52,"Duration":281136,"SoundDuration":281136,"Delta":25583500},{"NoteNumber":51,"Velocity":32,"Duration":281136,"SoundDuration":281136,"Delta":25583500},{"NoteNumber":57,"Velocity":41,"Duration":281136,"SoundDuration":281136,"Delta":25583500},{"NoteNumber":62,"Velocity":40,"Duration":292683,"SoundDuration":292683,"Delta":25864636},{"NoteNumber":70,"Velocity":50,"Duration":292683,"SoundDuration":292683,"Delta":25864636},{"NoteNumber":50,"Velocity":32,"Duration":292683,"SoundDuration":292683,"Delta":25864636},{"NoteNumber":58,"Velocity":40,"Duration":292683,"SoundDuration":292683,"Delta":25864636},{"NoteNumber":65,"Velocity":47,"Duration":310880,"SoundDuration":310880,"Delta":26157319},{"NoteNumber":53,"Velocity":37,"Duration":310880,"SoundDuration":310880,"Delta":26157319},{"NoteNumber":58,"Velocity":51,"Duration":291639,"SoundDuration":291639,"Delta":26468200},{"NoteNumber":46,"Velocity":50,"Duration":291639,"SoundDuration":291639,"Delta":26468200},{"NoteNumber":53,"Velocity":35,"Duration":290793,"SoundDuration":290793,"Delta":26759840},{"NoteNumber":62,"Velocity":44,"Duration":290793,"SoundDuration":290793,"Delta":26759840},{"NoteNumber":52,"Velocity":32,"Duration":289158,"SoundDuration":289158,"Delta":27050633},{"NoteNumber":55,"Velocity":41,"Duration":289158,"SoundDuration":289158,"Delta":27050633},{"NoteNumber":51,"Velocity":30,"Duration":287541,"SoundDuration":287541,"Delta":27339791},{"NoteNumber":57,"Velocity":38,"Duration":287541,"SoundDuration":287541,"Delta":27339791},{"NoteNumber":50,"Velocity":29,"Duration":292683,"SoundDuration":292683,"Delta":27627333},{"NoteNumber":58,"Velocity":36,"Duration":292683,"SoundDuration":292683,"Delta":27627333},{"NoteNumber":46,"Velocity":32,"Duration":317460,"SoundDuration":317460,"Delta":27920016},{"NoteNumber":70,"Velocity":77,"Duration":1763673,"SoundDuration":1763673,"Delta":28237476},{"NoteNumber":73,"Velocity":77,"Duration":1763673,"SoundDuration":1763673,"Delta":28237476},{"NoteNumber":82,"Velocity":90,"Duration":1763673,"SoundDuration":1763673,"Delta":28237476},{"NoteNumber":30,"Velocity":64,"Duration":308652,"SoundDuration":308652,"Delta":28237476},{"NoteNumber":49,"Velocity":41,"Duration":293858,"SoundDuration":293858,"Delta":28546129},{"NoteNumber":58,"Velocity":49,"Duration":293858,"SoundDuration":293858,"Delta":28546129},{"NoteNumber":61,"Velocity":53,"Duration":287825,"SoundDuration":287825,"Delta":28839987},{"NoteNumber":54,"Velocity":44,"Duration":287825,"SoundDuration":287825,"Delta":28839987},{"NoteNumber":63,"Velocity":48,"Duration":291971,"SoundDuration":291971,"Delta":29127812},{"NoteNumber":58,"Velocity":40,"Duration":291971,"SoundDuration":291971,"Delta":29127812},{"NoteNumber":54,"Velocity":46,"Duration":286150,"SoundDuration":286150,"Delta":29419783},{"NoteNumber":61,"Velocity":55,"Duration":286150,"SoundDuration":286150,"Delta":29419783},{"NoteNumber":49,"Velocity":42,"Duration":295216,"SoundDuration":295216,"Delta":29705934},{"NoteNumber":58,"Velocity":50,"Duration":295216,"SoundDuration":295216,"Delta":29705934},{"NoteNumber":70,"Velocity":71,"Duration":1153752,"SoundDuration":1153752,"Delta":30001150},{"NoteNumber":66,"Velocity":71,"Duration":1153752,"SoundDuration":1153752,"Delta":30001150},{"NoteNumber":78,"Velocity":84,"Duration":1153752,"SoundDuration":1153752,"Delta":30001150},{"NoteNumber":54,"Velocity":44,"Duration":290725,"SoundDuration":290725,"Delta":30001150},{"NoteNumber":61,"Velocity":53,"Duration":290725,"SoundDuration":290725,"Delta":30001150},{"NoteNumber":58,"Velocity":41,"Duration":290725,"SoundDuration":290725,"Delta":30291876},{"NoteNumber":63,"Velocity":49,"Duration":290725,"SoundDuration":290725,"Delta":30291876},{"NoteNumber":61,"Velocity":53,"Duration":286150,"SoundDuration":286150,"Delta":30582602},{"NoteNumber":54,"Velocity":44,"Duration":286150,"SoundDuration":286150,"Delta":30582602},{"NoteNumber":58,"Velocity":48,"Duration":286150,"SoundDuration":286150,"Delta":30868752},{"NoteNumber":49,"Velocity":40,"Duration":286150,"SoundDuration":286150,"Delta":30868752},{"NoteNumber":71,"Velocity":66,"Duration":589484,"SoundDuration":589484,"Delta":31154903},{"NoteNumber":83,"Velocity":78,"Duration":589484,"SoundDuration":589484,"Delta":31154903},{"NoteNumber":75,"Velocity":66,"Duration":589484,"SoundDuration":589484,"Delta":31154903},{"NoteNumber":54,"Velocity":46,"Duration":289184,"SoundDuration":289184,"Delta":31154903},{"NoteNumber":61,"Velocity":55,"Duration":289184,"SoundDuration":289184,"Delta":31154903},{"NoteNumber":58,"Velocity":42,"Duration":300300,"SoundDuration":300300,"Delta":31444087},{"NoteNumber":63,"Velocity":50,"Duration":300300,"SoundDuration":300300,"Delta":31444087},{"NoteNumber":70,"Velocity":71,"Duration":1726670,"SoundDuration":1726670,"Delta":31744388},{"NoteNumber":73,"Velocity":71,"Duration":1726670,"SoundDuration":1726670,"Delta":31744388},{"NoteNumber":82,"Velocity":84,"Duration":1726670,"SoundDuration":1726670,"Delta":31744388},{"NoteNumber":54,"Velocity":44,"Duration":289184,"SoundDuration":289184,"Delta":31744388},{"NoteNumber":61,"Velocity":53,"Duration":289184,"SoundDuration":289184,"Delta":31744388},{"NoteNumber":49,"Velocity":41,"Duration":289184,"SoundDuration":289184,"Delta":32033572},{"NoteNumber":58,"Velocity":49,"Duration":289184,"SoundDuration":289184,"Delta":32033572},{"NoteNumber":61,"Velocity":53,"Duration":286150,"SoundDuration":286150,"Delta":32322757},{"NoteNumber":54,"Velocity":44,"Duration":286150,"SoundDuration":286150,"Delta":32322757},{"NoteNumber":63,"Velocity":48,"Duration":291970,"SoundDuration":291970,"Delta":32608907},{"NoteNumber":58,"Velocity":40,"Duration":291970,"SoundDuration":291970,"Delta":32608907},{"NoteNumber":54,"Velocity":46,"Duration":285089,"SoundDuration":285089,"Delta":32900878},{"NoteNumber":61,"Velocity":55,"Duration":285089,"SoundDuration":285089,"Delta":32900878},{"NoteNumber":49,"Velocity":42,"Duration":285090,"SoundDuration":285090,"Delta":33185968},{"NoteNumber":58,"Velocity":50,"Duration":285090,"SoundDuration":285090,"Delta":33185968},{"NoteNumber":70,"Velocity":68,"Duration":1743262,"SoundDuration":1743262,"Delta":33471058},{"NoteNumber":78,"Velocity":80,"Duration":1743262,"SoundDuration":1743262,"Delta":33471058},{"NoteNumber":66,"Velocity":68,"Duration":1743262,"SoundDuration":1743262,"Delta":33471058},{"NoteNumber":61,"Velocity":53,"Duration":292254,"SoundDuration":292254,"Delta":33471058},{"NoteNumber":54,"Velocity":44,"Duration":292254,"SoundDuration":292254,"Delta":33471058},{"NoteNumber":63,"Velocity":49,"Duration":292255,"SoundDuration":292255,"Delta":33763313},{"NoteNumber":58,"Velocity":41,"Duration":292255,"SoundDuration":292255,"Delta":33763313},{"NoteNumber":61,"Velocity":53,"Duration":286150,"SoundDuration":286150,"Delta":34055568},{"NoteNumber":54,"Velocity":44,"Duration":286150,"SoundDuration":286150,"Delta":34055568},{"NoteNumber":58,"Velocity":48,"Duration":286150,"SoundDuration":286150,"Delta":34341719},{"NoteNumber":49,"Velocity":40,"Duration":286150,"SoundDuration":286150,"Delta":34341719},{"NoteNumber":54,"Velocity":46,"Duration":286150,"SoundDuration":286150,"Delta":34627869},{"NoteNumber":61,"Velocity":55,"Duration":286150,"SoundDuration":286150,"Delta":34627869},{"NoteNumber":58,"Velocity":42,"Duration":300300,"SoundDuration":300300,"Delta":34914020},{"NoteNumber":63,"Velocity":50,"Duration":300300,"SoundDuration":300300,"Delta":34914020},{"NoteNumber":73,"Velocity":76,"Duration":1148301,"SoundDuration":1148301,"Delta":35214320},{"NoteNumber":85,"Velocity":90,"Duration":1148301,"SoundDuration":1148301,"Delta":35214320},{"NoteNumber":82,"Velocity":76,"Duration":1148301,"SoundDuration":1148301,"Delta":35214320},{"NoteNumber":54,"Velocity":44,"Duration":286150,"SoundDuration":286150,"Delta":35214320},{"NoteNumber":61,"Velocity":53,"Duration":286150,"SoundDuration":286150,"Delta":35214320},{"NoteNumber":49,"Velocity":41,"Duration":291970,"SoundDuration":291970,"Delta":35500471},{"NoteNumber":58,"Velocity":49,"Duration":291970,"SoundDuration":291970,"Delta":35500471},{"NoteNumber":61,"Velocity":53,"Duration":285089,"SoundDuration":285089,"Delta":35792442},{"NoteNumber":54,"Velocity":44,"Duration":285089,"SoundDuration":285089,"Delta":35792442},{"NoteNumber":58,"Velocity":40,"Duration":285090,"SoundDuration":285090,"Delta":36077532},{"NoteNumber":63,"Velocity":48,"Duration":285090,"SoundDuration":285090,"Delta":36077532},{"NoteNumber":82,"Velocity":87,"Duration":600135,"SoundDuration":600135,"Delta":36362622},{"NoteNumber":70,"Velocity":73,"Duration":600135,"SoundDuration":600135,"Delta":36362622},{"NoteNumber":78,"Velocity":73,"Duration":600135,"SoundDuration":600135,"Delta":36362622},{"NoteNumber":54,"Velocity":46,"Duration":295566,"SoundDuration":295566,"Delta":36362622},{"NoteNumber":61,"Velocity":55,"Duration":295566,"SoundDuration":295566,"Delta":36362622},{"NoteNumber":49,"Velocity":42,"Duration":304568,"SoundDuration":304568,"Delta":36658188},{"NoteNumber":58,"Velocity":50,"Duration":304568,"SoundDuration":304568,"Delta":36658188},{"NoteNumber":90,"Velocity":93,"Duration":1155542,"SoundDuration":1155542,"Delta":36962757},{"NoteNumber":78,"Velocity":78,"Duration":1155542,"SoundDuration":1155542,"Delta":36962757},{"NoteNumber":82,"Velocity":78,"Duration":1155542,"SoundDuration":1155542,"Delta":36962757},{"NoteNumber":54,"Velocity":44,"Duration":286150,"SoundDuration":286150,"Delta":36962757},{"NoteNumber":61,"Velocity":53,"Duration":286150,"SoundDuration":286150,"Delta":36962757},{"NoteNumber":63,"Velocity":49,"Duration":286150,"SoundDuration":286150,"Delta":37248907},{"NoteNumber":58,"Velocity":41,"Duration":286150,"SoundDuration":286150,"Delta":37248907},{"NoteNumber":61,"Velocity":53,"Duration":291262,"SoundDuration":291262,"Delta":37535058},{"NoteNumber":54,"Velocity":44,"Duration":291262,"SoundDuration":291262,"Delta":37535058},{"NoteNumber":58,"Velocity":48,"Duration":291979,"SoundDuration":291979,"Delta":37826320},{"NoteNumber":49,"Velocity":40,"Duration":291979,"SoundDuration":291979,"Delta":37826320},{"NoteNumber":85,"Velocity":84,"Duration":466655,"SoundDuration":466655,"Delta":38118299},{"NoteNumber":82,"Velocity":73,"Duration":466655,"SoundDuration":466655,"Delta":38118299},{"NoteNumber":73,"Velocity":69,"Duration":466655,"SoundDuration":466655,"Delta":38118299},{"NoteNumber":61,"Velocity":55,"Duration":306215,"SoundDuration":306215,"Delta":38118299},{"NoteNumber":54,"Velocity":46,"Duration":306215,"SoundDuration":306215,"Delta":38118299},{"NoteNumber":58,"Velocity":40,"Duration":326513,"SoundDuration":326513,"Delta":38424515},{"NoteNumber":63,"Velocity":48,"Duration":326513,"SoundDuration":326513,"Delta":38424515},{"NoteNumber":80,"Velocity":68,"Duration":166073,"SoundDuration":166073,"Delta":38584955},{"NoteNumber":83,"Velocity":79,"Duration":166073,"SoundDuration":166073,"Delta":38584955},{"NoteNumber":71,"Velocity":68,"Duration":166073,"SoundDuration":166073,"Delta":38584955},{"NoteNumber":71,"Velocity":67,"Duration":579709,"SoundDuration":579709,"Delta":38751028},{"NoteNumber":80,"Velocity":67,"Duration":579709,"SoundDuration":579709,"Delta":38751028},{"NoteNumber":83,"Velocity":79,"Duration":579709,"SoundDuration":579709,"Delta":38751028},{"NoteNumber":54,"Velocity":43,"Duration":289855,"SoundDuration":289855,"Delta":38751028},{"NoteNumber":61,"Velocity":51,"Duration":289855,"SoundDuration":289855,"Delta":38751028},{"NoteNumber":49,"Velocity":37,"Duration":289854,"SoundDuration":289854,"Delta":39040883},{"NoteNumber":58,"Velocity":46,"Duration":289854,"SoundDuration":289854,"Delta":39040883},{"NoteNumber":78,"Velocity":61,"Duration":594059,"SoundDuration":594059,"Delta":39330738},{"NoteNumber":70,"Velocity":61,"Duration":594059,"SoundDuration":594059,"Delta":39330738},{"NoteNumber":82,"Velocity":71,"Duration":594059,"SoundDuration":594059,"Delta":39330738},{"NoteNumber":54,"Velocity":39,"Duration":297029,"SoundDuration":297029,"Delta":39330738},{"NoteNumber":61,"Velocity":48,"Duration":297029,"SoundDuration":297029,"Delta":39330738},{"NoteNumber":58,"Velocity":34,"Duration":297029,"SoundDuration":297029,"Delta":39627768},{"NoteNumber":63,"Velocity":42,"Duration":297029,"SoundDuration":297029,"Delta":39627768},{"NoteNumber":54,"Velocity":36,"Duration":293170,"SoundDuration":293170,"Delta":39924797},{"NoteNumber":61,"Velocity":44,"Duration":293170,"SoundDuration":293170,"Delta":39924797},{"NoteNumber":58,"Velocity":42,"Duration":290558,"SoundDuration":290558,"Delta":40217968},{"NoteNumber":49,"Velocity":34,"Duration":290558,"SoundDuration":290558,"Delta":40217968},{"NoteNumber":54,"Velocity":36,"Duration":288463,"SoundDuration":288463,"Delta":40508526},{"NoteNumber":61,"Velocity":44,"Duration":288463,"SoundDuration":288463,"Delta":40508526},{"NoteNumber":58,"Velocity":33,"Duration":286397,"SoundDuration":286397,"Delta":40796990},{"NoteNumber":63,"Velocity":40,"Duration":286397,"SoundDuration":286397,"Delta":40796990},{"NoteNumber":61,"Velocity":44,"Duration":284585,"SoundDuration":284585,"Delta":41083388},{"NoteNumber":54,"Velocity":36,"Duration":284585,"SoundDuration":284585,"Delta":41083388},{"NoteNumber":58,"Velocity":39,"Duration":284359,"SoundDuration":284359,"Delta":41367974},{"NoteNumber":49,"Velocity":33,"Duration":284359,"SoundDuration":284359,"Delta":41367974},{"NoteNumber":54,"Velocity":37,"Duration":284359,"SoundDuration":284359,"Delta":41652334},{"NoteNumber":61,"Velocity":46,"Duration":284359,"SoundDuration":284359,"Delta":41652334},{"NoteNumber":58,"Velocity":34,"Duration":284359,"SoundDuration":284359,"Delta":41936694},{"NoteNumber":63,"Velocity":42,"Duration":284359,"SoundDuration":284359,"Delta":41936694},{"NoteNumber":70,"Velocity":43,"Duration":1743395,"SoundDuration":1743395,"Delta":42221054},{"NoteNumber":82,"Velocity":51,"Duration":1743395,"SoundDuration":1743395,"Delta":42221054},{"NoteNumber":73,"Velocity":43,"Duration":1743395,"SoundDuration":1743395,"Delta":42221054},{"NoteNumber":54,"Velocity":25,"Duration":303577,"SoundDuration":303577,"Delta":42221054},{"NoteNumber":64,"Velocity":27,"Duration":303577,"SoundDuration":303577,"Delta":42221054},{"NoteNumber":58,"Velocity":23,"Duration":286150,"SoundDuration":286150,"Delta":42524631},{"NoteNumber":61,"Velocity":27,"Duration":286150,"SoundDuration":286150,"Delta":42524631},{"NoteNumber":66,"Velocity":29,"Duration":286150,"SoundDuration":286150,"Delta":42810781},{"NoteNumber":54,"Velocity":25,"Duration":286150,"SoundDuration":286150,"Delta":42810781},{"NoteNumber":63,"Velocity":27,"Duration":286150,"SoundDuration":286150,"Delta":43096932},{"NoteNumber":58,"Velocity":23,"Duration":286150,"SoundDuration":286150,"Delta":43096932},{"NoteNumber":54,"Velocity":26,"Duration":286150,"SoundDuration":286150,"Delta":43383082},{"NoteNumber":64,"Velocity":30,"Duration":286150,"SoundDuration":286150,"Delta":43383082},{"NoteNumber":58,"Velocity":24,"Duration":295216,"SoundDuration":295216,"Delta":43669233},{"NoteNumber":61,"Velocity":28,"Duration":295216,"SoundDuration":295216,"Delta":43669233},{"NoteNumber":66,"Velocity":39,"Duration":1149729,"SoundDuration":1149729,"Delta":43964449},{"NoteNumber":70,"Velocity":39,"Duration":1149729,"SoundDuration":1149729,"Delta":43964449},{"NoteNumber":78,"Velocity":48,"Duration":1149729,"SoundDuration":1149729,"Delta":43964449},{"NoteNumber":54,"Velocity":29,"Duration":286150,"SoundDuration":286150,"Delta":43964449},{"NoteNumber":58,"Velocity":23,"Duration":293398,"SoundDuration":293398,"Delta":44250600},{"NoteNumber":63,"Velocity":27,"Duration":293398,"SoundDuration":293398,"Delta":44250600},{"NoteNumber":64,"Velocity":29,"Duration":285089,"SoundDuration":285089,"Delta":44543998},{"NoteNumber":54,"Velocity":25,"Duration":285089,"SoundDuration":285089,"Delta":44543998},{"NoteNumber":61,"Velocity":27,"Duration":285090,"SoundDuration":285090,"Delta":44829088},{"NoteNumber":58,"Velocity":23,"Duration":285090,"SoundDuration":285090,"Delta":44829088},{"NoteNumber":75,"Velocity":37,"Duration":595866,"SoundDuration":595866,"Delta":45114178},{"NoteNumber":83,"Velocity":44,"Duration":595866,"SoundDuration":595866,"Delta":45114178},{"NoteNumber":71,"Velocity":37,"Duration":595866,"SoundDuration":595866,"Delta":45114178},{"NoteNumber":54,"Velocity":26,"Duration":295566,"SoundDuration":295566,"Delta":45114178},{"NoteNumber":66,"Velocity":30,"Duration":295566,"SoundDuration":295566,"Delta":45114178},{"NoteNumber":58,"Velocity":24,"Duration":300300,"SoundDuration":300300,"Delta":45409745},{"NoteNumber":63,"Velocity":28,"Duration":300300,"SoundDuration":300300,"Delta":45409745},{"NoteNumber":70,"Velocity":39,"Duration":1726053,"SoundDuration":1726053,"Delta":45710045},{"NoteNumber":73,"Velocity":39,"Duration":1726053,"SoundDuration":1726053,"Delta":45710045},{"NoteNumber":82,"Velocity":48,"Duration":1726053,"SoundDuration":1726053,"Delta":45710045},{"NoteNumber":54,"Velocity":25,"Duration":290725,"SoundDuration":290725,"Delta":45710045},{"NoteNumber":64,"Velocity":27,"Duration":290725,"SoundDuration":290725,"Delta":45710045},{"NoteNumber":58,"Velocity":23,"Duration":290725,"SoundDuration":290725,"Delta":46000771},{"NoteNumber":61,"Velocity":27,"Duration":290725,"SoundDuration":290725,"Delta":46000771},{"NoteNumber":66,"Velocity":29,"Duration":286150,"SoundDuration":286150,"Delta":46291497},{"NoteNumber":54,"Velocity":25,"Duration":286150,"SoundDuration":286150,"Delta":46291497},{"NoteNumber":63,"Velocity":27,"Duration":286150,"SoundDuration":286150,"Delta":46577648},{"NoteNumber":58,"Velocity":23,"Duration":286150,"SoundDuration":286150,"Delta":46577648},{"NoteNumber":54,"Velocity":26,"Duration":286150,"SoundDuration":286150,"Delta":46863798},{"NoteNumber":64,"Velocity":30,"Duration":286150,"SoundDuration":286150,"Delta":46863798},{"NoteNumber":58,"Velocity":24,"Duration":286150,"SoundDuration":286150,"Delta":47149949},{"NoteNumber":61,"Velocity":28,"Duration":286150,"SoundDuration":286150,"Delta":47149949},{"NoteNumber":70,"Velocity":38,"Duration":1733691,"SoundDuration":1733691,"Delta":47436099},{"NoteNumber":66,"Velocity":38,"Duration":1433391,"SoundDuration":1433391,"Delta":47436099},{"NoteNumber":78,"Velocity":46,"Duration":1733691,"SoundDuration":1733691,"Delta":47436099},{"NoteNumber":54,"Velocity":29,"Duration":286150,"SoundDuration":286150,"Delta":47436099},{"NoteNumber":58,"Velocity":23,"Duration":291970,"SoundDuration":291970,"Delta":47722250},{"NoteNumber":63,"Velocity":27,"Duration":291970,"SoundDuration":291970,"Delta":47722250},{"NoteNumber":64,"Velocity":29,"Duration":285089,"SoundDuration":285089,"Delta":48014221},{"NoteNumber":54,"Velocity":25,"Duration":285089,"SoundDuration":285089,"Delta":48014221},{"NoteNumber":61,"Velocity":27,"Duration":285090,"SoundDuration":285090,"Delta":48299311},{"NoteNumber":58,"Velocity":23,"Duration":285090,"SoundDuration":285090,"Delta":48299311},{"NoteNumber":54,"Velocity":26,"Duration":285089,"SoundDuration":285089,"Delta":48584401},{"NoteNumber":66,"Velocity":30,"Duration":585390,"SoundDuration":585390,"Delta":48584401},{"NoteNumber":58,"Velocity":24,"Duration":300300,"SoundDuration":300300,"Delta":48869491},{"NoteNumber":63,"Velocity":28,"Duration":300300,"SoundDuration":300300,"Delta":48869491},{"NoteNumber":73,"Velocity":43,"Duration":1162903,"SoundDuration":1162903,"Delta":49169791},{"NoteNumber":82,"Velocity":43,"Duration":1162903,"SoundDuration":1162903,"Delta":49169791},{"NoteNumber":85,"Velocity":51,"Duration":1162903,"SoundDuration":1162903,"Delta":49169791},{"NoteNumber":54,"Velocity":25,"Duration":290725,"SoundDuration":290725,"Delta":49169791},{"NoteNumber":64,"Velocity":27,"Duration":290725,"SoundDuration":290725,"Delta":49169791},{"NoteNumber":58,"Velocity":23,"Duration":290725,"SoundDuration":290725,"Delta":49460517},{"NoteNumber":61,"Velocity":27,"Duration":290725,"SoundDuration":290725,"Delta":49460517},{"NoteNumber":66,"Velocity":29,"Duration":290725,"SoundDuration":290725,"Delta":49751243},{"NoteNumber":54,"Velocity":25,"Duration":290725,"SoundDuration":290725,"Delta":49751243},{"NoteNumber":63,"Velocity":27,"Duration":290725,"SoundDuration":290725,"Delta":50041969},{"NoteNumber":58,"Velocity":23,"Duration":290725,"SoundDuration":290725,"Delta":50041969},{"NoteNumber":70,"Velocity":40,"Duration":607348,"SoundDuration":607348,"Delta":50332695},{"NoteNumber":82,"Velocity":49,"Duration":607348,"SoundDuration":607348,"Delta":50332695},{"NoteNumber":78,"Velocity":40,"Duration":607348,"SoundDuration":607348,"Delta":50332695},{"NoteNumber":54,"Velocity":26,"Duration":303674,"SoundDuration":303674,"Delta":50332695},{"NoteNumber":64,"Velocity":30,"Duration":303674,"SoundDuration":303674,"Delta":50332695},{"NoteNumber":58,"Velocity":24,"Duration":303674,"SoundDuration":303674,"Delta":50636370},{"NoteNumber":61,"Velocity":28,"Duration":303674,"SoundDuration":303674,"Delta":50636370},{"NoteNumber":82,"Velocity":44,"Duration":1188234,"SoundDuration":1188234,"Delta":50940044},{"NoteNumber":78,"Velocity":44,"Duration":1188234,"SoundDuration":1188234,"Delta":50940044},{"NoteNumber":90,"Velocity":52,"Duration":1188234,"SoundDuration":1188234,"Delta":50940044},{"NoteNumber":66,"Velocity":29,"Duration":294117,"SoundDuration":294117,"Delta":50940044},{"NoteNumber":54,"Velocity":25,"Duration":294117,"SoundDuration":294117,"Delta":50940044},{"NoteNumber":58,"Velocity":23,"Duration":294117,"SoundDuration":294117,"Delta":51234162},{"NoteNumber":63,"Velocity":27,"Duration":294117,"SoundDuration":294117,"Delta":51234162},{"NoteNumber":64,"Velocity":29,"Duration":299999,"SoundDuration":299999,"Delta":51528279},{"NoteNumber":54,"Velocity":25,"Duration":299999,"SoundDuration":299999,"Delta":51528279},{"NoteNumber":61,"Velocity":27,"Duration":300000,"SoundDuration":300000,"Delta":51828279},{"NoteNumber":58,"Velocity":23,"Duration":300000,"SoundDuration":300000,"Delta":51828279},{"NoteNumber":85,"Velocity":48,"Duration":469463,"SoundDuration":469463,"Delta":52128279},{"NoteNumber":82,"Velocity":40,"Duration":469463,"SoundDuration":469463,"Delta":52128279},{"NoteNumber":73,"Velocity":38,"Duration":469463,"SoundDuration":469463,"Delta":52128279},{"NoteNumber":54,"Velocity":26,"Duration":309313,"SoundDuration":309313,"Delta":52128279},{"NoteNumber":66,"Velocity":30,"Duration":309313,"SoundDuration":309313,"Delta":52128279},{"NoteNumber":58,"Velocity":24,"Duration":324997,"SoundDuration":324997,"Delta":52437593},{"NoteNumber":63,"Velocity":28,"Duration":324997,"SoundDuration":324997,"Delta":52437593},{"NoteNumber":80,"Velocity":38,"Duration":164848,"SoundDuration":164848,"Delta":52597743},{"NoteNumber":71,"Velocity":38,"Duration":164848,"SoundDuration":164848,"Delta":52597743},{"NoteNumber":83,"Velocity":46,"Duration":164848,"SoundDuration":164848,"Delta":52597743},{"NoteNumber":71,"Velocity":38,"Duration":609136,"SoundDuration":609136,"Delta":52762591},{"NoteNumber":83,"Velocity":46,"Duration":609136,"SoundDuration":609136,"Delta":52762591},{"NoteNumber":80,"Velocity":38,"Duration":609136,"SoundDuration":609136,"Delta":52762591},{"NoteNumber":54,"Velocity":25,"Duration":304568,"SoundDuration":304568,"Delta":52762591},{"NoteNumber":64,"Velocity":27,"Duration":304568,"SoundDuration":304568,"Delta":52762591},{"NoteNumber":58,"Velocity":23,"Duration":304568,"SoundDuration":304568,"Delta":53067160},{"NoteNumber":61,"Velocity":27,"Duration":304568,"SoundDuration":304568,"Delta":53067160},{"NoteNumber":70,"Velocity":38,"Duration":591440,"SoundDuration":591440,"Delta":53371728},{"NoteNumber":78,"Velocity":38,"Duration":591440,"SoundDuration":591440,"Delta":53371728},{"NoteNumber":82,"Velocity":44,"Duration":591440,"SoundDuration":591440,"Delta":53371728},{"NoteNumber":66,"Velocity":29,"Duration":297798,"SoundDuration":297798,"Delta":53371728},{"NoteNumber":54,"Velocity":25,"Duration":297798,"SoundDuration":297798,"Delta":53371728},{"NoteNumber":63,"Velocity":27,"Duration":293641,"SoundDuration":293641,"Delta":53669526},{"NoteNumber":58,"Velocity":23,"Duration":293641,"SoundDuration":293641,"Delta":53669526},{"NoteNumber":54,"Velocity":26,"Duration":290326,"SoundDuration":290326,"Delta":53963168},{"NoteNumber":64,"Velocity":30,"Duration":290326,"SoundDuration":290326,"Delta":53963168},{"NoteNumber":58,"Velocity":24,"Duration":287085,"SoundDuration":287085,"Delta":54253494},{"NoteNumber":61,"Velocity":28,"Duration":287085,"SoundDuration":287085,"Delta":54253494},{"NoteNumber":66,"Velocity":34,"Duration":288003,"SoundDuration":288003,"Delta":54540580},{"NoteNumber":54,"Velocity":29,"Duration":288003,"SoundDuration":288003,"Delta":54540580},{"NoteNumber":58,"Velocity":29,"Duration":287442,"SoundDuration":287442,"Delta":54828584},{"NoteNumber":63,"Velocity":33,"Duration":287442,"SoundDuration":287442,"Delta":54828584},{"NoteNumber":64,"Velocity":40,"Duration":287081,"SoundDuration":287081,"Delta":55116026},{"NoteNumber":54,"Velocity":33,"Duration":287081,"SoundDuration":287081,"Delta":55116026},{"NoteNumber":61,"Velocity":39,"Duration":287081,"SoundDuration":287081,"Delta":55403108},{"NoteNumber":58,"Velocity":32,"Duration":287081,"SoundDuration":287081,"Delta":55403108},{"NoteNumber":54,"Velocity":38,"Duration":287081,"SoundDuration":287081,"Delta":55690189},{"NoteNumber":64,"Velocity":46,"Duration":287081,"SoundDuration":287081,"Delta":55690189},{"NoteNumber":58,"Velocity":37,"Duration":293379,"SoundDuration":293379,"Delta":55977271},{"NoteNumber":60,"Velocity":45,"Duration":293379,"SoundDuration":293379,"Delta":55977271},{"NoteNumber":77,"Velocity":62,"Duration":607944,"SoundDuration":607944,"Delta":56270650},{"NoteNumber":29,"Velocity":57,"Duration":328925,"SoundDuration":328925,"Delta":56270650},{"NoteNumber":65,"Velocity":46,"Duration":279019,"SoundDuration":279019,"Delta":56599576},{"NoteNumber":53,"Velocity":40,"Duration":279019,"SoundDuration":279019,"Delta":56599576},{"NoteNumber":64,"Velocity":36,"Duration":268951,"SoundDuration":268951,"Delta":56878595},{"NoteNumber":67,"Velocity":46,"Duration":268951,"SoundDuration":268951,"Delta":56878595},{"NoteNumber":52,"Velocity":32,"Duration":268951,"SoundDuration":268951,"Delta":56878595},{"NoteNumber":55,"Velocity":40,"Duration":268951,"SoundDuration":268951,"Delta":56878595},{"NoteNumber":63,"Velocity":37,"Duration":266734,"SoundDuration":266734,"Delta":57147547},{"NoteNumber":69,"Velocity":48,"Duration":266734,"SoundDuration":266734,"Delta":57147547},{"NoteNumber":51,"Velocity":32,"Duration":266734,"SoundDuration":266734,"Delta":57147547},{"NoteNumber":57,"Velocity":42,"Duration":266734,"SoundDuration":266734,"Delta":57147547},{"NoteNumber":70,"Velocity":52,"Duration":287081,"SoundDuration":287081,"Delta":57414281},{"NoteNumber":62,"Velocity":41,"Duration":287081,"SoundDuration":287081,"Delta":57414281},{"NoteNumber":50,"Velocity":36,"Duration":287081,"SoundDuration":287081,"Delta":57414281},{"NoteNumber":58,"Velocity":45,"Duration":287081,"SoundDuration":287081,"Delta":57414281},{"NoteNumber":72,"Velocity":50,"Duration":298507,"SoundDuration":298507,"Delta":57701363},{"NoteNumber":60,"Velocity":45,"Duration":298507,"SoundDuration":298507,"Delta":57701363},{"NoteNumber":48,"Velocity":39,"Duration":298507,"SoundDuration":298507,"Delta":57701363},{"NoteNumber":74,"Velocity":60,"Duration":326087,"SoundDuration":326087,"Delta":57999870},{"NoteNumber":41,"Velocity":53,"Duration":326087,"SoundDuration":326087,"Delta":57999870},{"NoteNumber":65,"Velocity":49,"Duration":275206,"SoundDuration":275206,"Delta":58325957},{"NoteNumber":53,"Velocity":42,"Duration":275206,"SoundDuration":275206,"Delta":58325957},{"NoteNumber":64,"Velocity":38,"Duration":265219,"SoundDuration":265219,"Delta":58601164},{"NoteNumber":67,"Velocity":49,"Duration":265219,"SoundDuration":265219,"Delta":58601164},{"NoteNumber":52,"Velocity":34,"Duration":265219,"SoundDuration":265219,"Delta":58601164},{"NoteNumber":55,"Velocity":43,"Duration":265219,"SoundDuration":265219,"Delta":58601164},{"NoteNumber":63,"Velocity":39,"Duration":268733,"SoundDuration":268733,"Delta":58866383},{"NoteNumber":69,"Velocity":51,"Duration":268733,"SoundDuration":268733,"Delta":58866383},{"NoteNumber":51,"Velocity":35,"Duration":268733,"SoundDuration":268733,"Delta":58866383},{"NoteNumber":57,"Velocity":45,"Duration":268733,"SoundDuration":268733,"Delta":58866383},{"NoteNumber":70,"Velocity":55,"Duration":288461,"SoundDuration":288461,"Delta":59135117},{"NoteNumber":62,"Velocity":44,"Duration":288461,"SoundDuration":288461,"Delta":59135117},{"NoteNumber":50,"Velocity":38,"Duration":288461,"SoundDuration":288461,"Delta":59135117},{"NoteNumber":58,"Velocity":48,"Duration":288461,"SoundDuration":288461,"Delta":59135117},{"NoteNumber":74,"Velocity":53,"Duration":298507,"SoundDuration":298507,"Delta":59423578},{"NoteNumber":53,"Velocity":42,"Duration":298507,"SoundDuration":298507,"Delta":59423578},{"NoteNumber":79,"Velocity":64,"Duration":571343,"SoundDuration":571343,"Delta":59722086},{"NoteNumber":41,"Velocity":56,"Duration":305657,"SoundDuration":305657,"Delta":59722086},{"NoteNumber":67,"Velocity":52,"Duration":265686,"SoundDuration":265686,"Delta":60027743},{"NoteNumber":55,"Velocity":45,"Duration":265686,"SoundDuration":265686,"Delta":60027743},{"NoteNumber":69,"Velocity":52,"Duration":262256,"SoundDuration":262256,"Delta":60293430},{"NoteNumber":66,"Velocity":41,"Duration":262256,"SoundDuration":262256,"Delta":60293430},{"NoteNumber":54,"Velocity":36,"Duration":262256,"SoundDuration":262256,"Delta":60293430},{"NoteNumber":57,"Velocity":46,"Duration":262256,"SoundDuration":262256,"Delta":60293430},{"NoteNumber":71,"Velocity":54,"Duration":268817,"SoundDuration":268817,"Delta":60555686},{"NoteNumber":65,"Velocity":41,"Duration":268817,"SoundDuration":268817,"Delta":60555686},{"NoteNumber":53,"Velocity":37,"Duration":268817,"SoundDuration":268817,"Delta":60555686},{"NoteNumber":59,"Velocity":47,"Duration":268817,"SoundDuration":268817,"Delta":60555686},{"NoteNumber":72,"Velocity":58,"Duration":279293,"SoundDuration":279293,"Delta":60824503},{"NoteNumber":63,"Velocity":46,"Duration":279293,"SoundDuration":279293,"Delta":60824503},{"NoteNumber":51,"Velocity":40,"Duration":279293,"SoundDuration":279293,"Delta":60824503},{"NoteNumber":60,"Velocity":51,"Duration":279293,"SoundDuration":279293,"Delta":60824503},{"NoteNumber":74,"Velocity":56,"Duration":299999,"SoundDuration":299999,"Delta":61103796},{"NoteNumber":62,"Velocity":50,"Duration":299999,"SoundDuration":299999,"Delta":61103796},{"NoteNumber":50,"Velocity":44,"Duration":299999,"SoundDuration":299999,"Delta":61103796},{"NoteNumber":75,"Velocity":74,"Duration":599907,"SoundDuration":599907,"Delta":61403796},{"NoteNumber":41,"Velocity":66,"Duration":319149,"SoundDuration":319149,"Delta":61403796},{"NoteNumber":67,"Velocity":60,"Duration":280758,"SoundDuration":280758,"Delta":61722945},{"NoteNumber":55,"Velocity":52,"Duration":280758,"SoundDuration":280758,"Delta":61722945},{"NoteNumber":69,"Velocity":62,"Duration":271530,"SoundDuration":271530,"Delta":62003704},{"NoteNumber":66,"Velocity":47,"Duration":271530,"SoundDuration":271530,"Delta":62003704},{"NoteNumber":54,"Velocity":43,"Duration":271530,"SoundDuration":271530,"Delta":62003704},{"NoteNumber":57,"Velocity":53,"Duration":271530,"SoundDuration":271530,"Delta":62003704},{"NoteNumber":65,"Velocity":49,"Duration":271671,"SoundDuration":271671,"Delta":62275235},{"NoteNumber":71,"Velocity":63,"Duration":271671,"SoundDuration":271671,"Delta":62275235},{"NoteNumber":53,"Velocity":43,"Duration":271671,"SoundDuration":271671,"Delta":62275235},{"NoteNumber":59,"Velocity":56,"Duration":271671,"SoundDuration":271671,"Delta":62275235},{"NoteNumber":63,"Velocity":55,"Duration":288461,"SoundDuration":288461,"Delta":62546906},{"NoteNumber":72,"Velocity":70,"Duration":288461,"SoundDuration":288461,"Delta":62546906},{"NoteNumber":51,"Velocity":48,"Duration":288461,"SoundDuration":288461,"Delta":62546906},{"NoteNumber":60,"Velocity":61,"Duration":288461,"SoundDuration":288461,"Delta":62546906},{"NoteNumber":75,"Velocity":68,"Duration":298507,"SoundDuration":298507,"Delta":62835368},{"NoteNumber":55,"Velocity":53,"Duration":298507,"SoundDuration":298507,"Delta":62835368},{"NoteNumber":81,"Velocity":81,"Duration":580066,"SoundDuration":580066,"Delta":63133875},{"NoteNumber":41,"Velocity":72,"Duration":304919,"SoundDuration":304919,"Delta":63133875},{"NoteNumber":69,"Velocity":66,"Duration":275146,"SoundDuration":275146,"Delta":63438795},{"NoteNumber":57,"Velocity":57,"Duration":275146,"SoundDuration":275146,"Delta":63438795},{"NoteNumber":68,"Velocity":53,"Duration":268245,"SoundDuration":268245,"Delta":63713942},{"NoteNumber":71,"Velocity":67,"Duration":268245,"SoundDuration":268245,"Delta":63713942},{"NoteNumber":56,"Velocity":46,"Duration":268245,"SoundDuration":268245,"Delta":63713942},{"NoteNumber":59,"Velocity":59,"Duration":268245,"SoundDuration":268245,"Delta":63713942},{"NoteNumber":73,"Velocity":71,"Duration":264664,"SoundDuration":264664,"Delta":63982187},{"NoteNumber":67,"Velocity":53,"Duration":264664,"SoundDuration":264664,"Delta":63982187},{"NoteNumber":55,"Velocity":47,"Duration":264664,"SoundDuration":264664,"Delta":63982187},{"NoteNumber":61,"Velocity":62,"Duration":264664,"SoundDuration":264664,"Delta":63982187},{"NoteNumber":65,"Velocity":61,"Duration":284064,"SoundDuration":284064,"Delta":64246852},{"NoteNumber":74,"Velocity":76,"Duration":284064,"SoundDuration":284064,"Delta":64246852},{"NoteNumber":53,"Velocity":53,"Duration":284064,"SoundDuration":284064,"Delta":64246852},{"NoteNumber":62,"Velocity":67,"Duration":284064,"SoundDuration":284064,"Delta":64246852},{"NoteNumber":77,"Velocity":74,"Duration":291715,"SoundDuration":291715,"Delta":64530916},{"NoteNumber":57,"Velocity":59,"Duration":291715,"SoundDuration":291715,"Delta":64530916},{"NoteNumber":82,"Velocity":90,"Duration":584415,"SoundDuration":584415,"Delta":64822631},{"NoteNumber":41,"Velocity":79,"Duration":298122,"SoundDuration":298122,"Delta":64822631},{"NoteNumber":70,"Velocity":73,"Duration":286293,"SoundDuration":286293,"Delta":65120753},{"NoteNumber":58,"Velocity":63,"Duration":286293,"SoundDuration":286293,"Delta":65120753},{"NoteNumber":69,"Velocity":58,"Duration":275875,"SoundDuration":275875,"Delta":65407047},{"NoteNumber":72,"Velocity":75,"Duration":275875,"SoundDuration":275875,"Delta":65407047},{"NoteNumber":57,"Velocity":52,"Duration":275875,"SoundDuration":275875,"Delta":65407047},{"NoteNumber":60,"Velocity":65,"Duration":275875,"SoundDuration":275875,"Delta":65407047},{"NoteNumber":74,"Velocity":76,"Duration":269627,"SoundDuration":269627,"Delta":65682923},{"NoteNumber":68,"Velocity":58,"Duration":269627,"SoundDuration":269627,"Delta":65682923},{"NoteNumber":56,"Velocity":52,"Duration":269627,"SoundDuration":269627,"Delta":65682923},{"NoteNumber":62,"Velocity":67,"Duration":269627,"SoundDuration":269627,"Delta":65682923},{"NoteNumber":67,"Velocity":66,"Duration":284064,"SoundDuration":284064,"Delta":65952550},{"NoteNumber":75,"Velocity":83,"Duration":284064,"SoundDuration":284064,"Delta":65952550},{"NoteNumber":55,"Velocity":57,"Duration":284064,"SoundDuration":284064,"Delta":65952550},{"NoteNumber":63,"Velocity":73,"Duration":284064,"SoundDuration":284064,"Delta":65952550},{"NoteNumber":66,"Velocity":73,"Duration":315457,"SoundDuration":315457,"Delta":66236614},{"NoteNumber":78,"Velocity":81,"Duration":315457,"SoundDuration":315457,"Delta":66236614},{"NoteNumber":54,"Velocity":64,"Duration":315457,"SoundDuration":315457,"Delta":66236614},{"NoteNumber":29,"Velocity":85,"Duration":315457,"SoundDuration":315457,"Delta":66552072},{"NoteNumber":41,"Velocity":101,"Duration":315457,"SoundDuration":315457,"Delta":66552072},{"NoteNumber":77,"Velocity":84,"Duration":293283,"SoundDuration":293283,"Delta":66867529},{"NoteNumber":65,"Velocity":67,"Duration":293283,"SoundDuration":293283,"Delta":66867529},{"NoteNumber":82,"Velocity":79,"Duration":278810,"SoundDuration":278810,"Delta":67160813},{"NoteNumber":78,"Velocity":79,"Duration":278810,"SoundDuration":278810,"Delta":67160813},{"NoteNumber":87,"Velocity":92,"Duration":278810,"SoundDuration":278810,"Delta":67160813},{"NoteNumber":70,"Velocity":62,"Duration":278810,"SoundDuration":278810,"Delta":67160813},{"NoteNumber":66,"Velocity":62,"Duration":278810,"SoundDuration":278810,"Delta":67160813},{"NoteNumber":75,"Velocity":73,"Duration":278810,"SoundDuration":278810,"Delta":67160813},{"NoteNumber":77,"Velocity":85,"Duration":287356,"SoundDuration":287356,"Delta":67439624},{"NoteNumber":65,"Velocity":67,"Duration":287356,"SoundDuration":287356,"Delta":67439624},{"NoteNumber":82,"Velocity":77,"Duration":278810,"SoundDuration":278810,"Delta":67726980},{"NoteNumber":78,"Velocity":77,"Duration":278810,"SoundDuration":278810,"Delta":67726980},{"NoteNumber":87,"Velocity":91,"Duration":278810,"SoundDuration":278810,"Delta":67726980},{"NoteNumber":66,"Velocity":61,"Duration":278810,"SoundDuration":278810,"Delta":67726980},{"NoteNumber":70,"Velocity":61,"Duration":278810,"SoundDuration":278810,"Delta":67726980},{"NoteNumber":75,"Velocity":72,"Duration":278810,"SoundDuration":278810,"Delta":67726980},{"NoteNumber":77,"Velocity":86,"Duration":285171,"SoundDuration":285171,"Delta":68005791},{"NoteNumber":65,"Velocity":69,"Duration":285171,"SoundDuration":285171,"Delta":68005791},{"NoteNumber":78,"Velocity":82,"Duration":278810,"SoundDuration":278810,"Delta":68290962},{"NoteNumber":87,"Velocity":96,"Duration":278810,"SoundDuration":278810,"Delta":68290962},{"NoteNumber":82,"Velocity":82,"Duration":278810,"SoundDuration":278810,"Delta":68290962},{"NoteNumber":70,"Velocity":66,"Duration":278810,"SoundDuration":278810,"Delta":68290962},{"NoteNumber":66,"Velocity":66,"Duration":278810,"SoundDuration":278810,"Delta":68290962},{"NoteNumber":75,"Velocity":77,"Duration":278810,"SoundDuration":278810,"Delta":68290962},{"NoteNumber":77,"Velocity":89,"Duration":283018,"SoundDuration":283018,"Delta":68569772},{"NoteNumber":65,"Velocity":70,"Duration":283018,"SoundDuration":283018,"Delta":68569772},{"NoteNumber":78,"Velocity":80,"Duration":276752,"SoundDuration":276752,"Delta":68852791},{"NoteNumber":87,"Velocity":95,"Duration":276752,"SoundDuration":276752,"Delta":68852791},{"NoteNumber":82,"Velocity":80,"Duration":276752,"SoundDuration":276752,"Delta":68852791},{"NoteNumber":66,"Velocity":63,"Duration":276752,"SoundDuration":276752,"Delta":68852791},{"NoteNumber":70,"Velocity":63,"Duration":276752,"SoundDuration":276752,"Delta":68852791},{"NoteNumber":75,"Velocity":75,"Duration":276752,"SoundDuration":276752,"Delta":68852791},{"NoteNumber":77,"Velocity":91,"Duration":283018,"SoundDuration":283018,"Delta":69129544},{"NoteNumber":65,"Velocity":71,"Duration":283018,"SoundDuration":283018,"Delta":69129544},{"NoteNumber":82,"Velocity":85,"Duration":283019,"SoundDuration":283019,"Delta":69412563},{"NoteNumber":78,"Velocity":85,"Duration":283019,"SoundDuration":283019,"Delta":69412563},{"NoteNumber":87,"Velocity":101,"Duration":283019,"SoundDuration":283019,"Delta":69412563},{"NoteNumber":70,"Velocity":68,"Duration":283019,"SoundDuration":283019,"Delta":69412563},{"NoteNumber":66,"Velocity":68,"Duration":283019,"SoundDuration":283019,"Delta":69412563},{"NoteNumber":75,"Velocity":80,"Duration":283019,"SoundDuration":283019,"Delta":69412563},{"NoteNumber":77,"Velocity":93,"Duration":301446,"SoundDuration":301446,"Delta":69695582},{"NoteNumber":65,"Velocity":73,"Duration":301446,"SoundDuration":301446,"Delta":69695582},{"NoteNumber":78,"Velocity":79,"Duration":288600,"SoundDuration":288600,"Delta":69997029},{"NoteNumber":87,"Velocity":100,"Duration":288600,"SoundDuration":288600,"Delta":69997029},{"NoteNumber":69,"Velocity":55,"Duration":288600,"SoundDuration":288600,"Delta":69997029},{"NoteNumber":66,"Velocity":55,"Duration":288600,"SoundDuration":288600,"Delta":69997029},{"NoteNumber":75,"Velocity":69,"Duration":288600,"SoundDuration":288600,"Delta":69997029},{"NoteNumber":86,"Velocity":92,"Duration":288600,"SoundDuration":288600,"Delta":70285630},{"NoteNumber":77,"Velocity":73,"Duration":288600,"SoundDuration":288600,"Delta":70285630},{"NoteNumber":74,"Velocity":63,"Duration":288600,"SoundDuration":288600,"Delta":70285630},{"NoteNumber":65,"Velocity":50,"Duration":288600,"SoundDuration":288600,"Delta":70285630},{"NoteNumber":79,"Velocity":89,"Duration":281136,"SoundDuration":281136,"Delta":70574230},{"NoteNumber":76,"Velocity":70,"Duration":281136,"SoundDuration":281136,"Delta":70574230},{"NoteNumber":64,"Velocity":49,"Duration":281136,"SoundDuration":281136,"Delta":70574230},{"NoteNumber":67,"Velocity":62,"Duration":281136,"SoundDuration":281136,"Delta":70574230},{"NoteNumber":75,"Velocity":60,"Duration":288461,"SoundDuration":288461,"Delta":70855366},{"NoteNumber":81,"Velocity":78,"Duration":288461,"SoundDuration":288461,"Delta":70855366},{"NoteNumber":63,"Velocity":41,"Duration":288461,"SoundDuration":288461,"Delta":70855366},{"NoteNumber":69,"Velocity":55,"Duration":288461,"SoundDuration":288461,"Delta":70855366},{"NoteNumber":82,"Velocity":85,"Duration":280373,"SoundDuration":280373,"Delta":71143828},{"NoteNumber":74,"Velocity":67,"Duration":280373,"SoundDuration":280373,"Delta":71143828},{"NoteNumber":62,"Velocity":46,"Duration":280373,"SoundDuration":280373,"Delta":71143828},{"NoteNumber":70,"Velocity":59,"Duration":280373,"SoundDuration":280373,"Delta":71143828},{"NoteNumber":73,"Velocity":59,"Duration":280374,"SoundDuration":280374,"Delta":71424202},{"NoteNumber":77,"Velocity":76,"Duration":280374,"SoundDuration":280374,"Delta":71424202},{"NoteNumber":61,"Velocity":40,"Duration":280374,"SoundDuration":280374,"Delta":71424202},{"NoteNumber":65,"Velocity":53,"Duration":280374,"SoundDuration":280374,"Delta":71424202},{"NoteNumber":72,"Velocity":63,"Duration":279070,"SoundDuration":279070,"Delta":71704576},{"NoteNumber":80,"Velocity":80,"Duration":279070,"SoundDuration":279070,"Delta":71704576},{"NoteNumber":60,"Velocity":43,"Duration":279070,"SoundDuration":279070,"Delta":71704576},{"NoteNumber":68,"Velocity":56,"Duration":279070,"SoundDuration":279070,"Delta":71704576},{"NoteNumber":78,"Velocity":76,"Duration":279069,"SoundDuration":279069,"Delta":71983646},{"NoteNumber":70,"Velocity":59,"Duration":279069,"SoundDuration":279069,"Delta":71983646},{"NoteNumber":58,"Velocity":40,"Duration":279069,"SoundDuration":279069,"Delta":71983646},{"NoteNumber":66,"Velocity":53,"Duration":279069,"SoundDuration":279069,"Delta":71983646},{"NoteNumber":69,"Velocity":59,"Duration":279070,"SoundDuration":279070,"Delta":72262716},{"NoteNumber":72,"Velocity":75,"Duration":279070,"SoundDuration":279070,"Delta":72262716},{"NoteNumber":57,"Velocity":40,"Duration":279070,"SoundDuration":279070,"Delta":72262716},{"NoteNumber":60,"Velocity":52,"Duration":279070,"SoundDuration":279070,"Delta":72262716},{"NoteNumber":74,"Velocity":72,"Duration":279070,"SoundDuration":279070,"Delta":72541786},{"NoteNumber":68,"Velocity":57,"Duration":279070,"SoundDuration":279070,"Delta":72541786},{"NoteNumber":56,"Velocity":38,"Duration":279070,"SoundDuration":279070,"Delta":72541786},{"NoteNumber":62,"Velocity":50,"Duration":279070,"SoundDuration":279070,"Delta":72541786},{"NoteNumber":67,"Velocity":60,"Duration":279069,"SoundDuration":279069,"Delta":72820856},{"NoteNumber":75,"Velocity":76,"Duration":279069,"SoundDuration":279069,"Delta":72820856},{"NoteNumber":55,"Velocity":41,"Duration":279069,"SoundDuration":279069,"Delta":72820856},{"NoteNumber":63,"Velocity":54,"Duration":279069,"SoundDuration":279069,"Delta":72820856},{"NoteNumber":66,"Velocity":55,"Duration":293283,"SoundDuration":293283,"Delta":73099926},{"NoteNumber":70,"Velocity":69,"Duration":293283,"SoundDuration":293283,"Delta":73099926},{"NoteNumber":54,"Velocity":38,"Duration":293283,"SoundDuration":293283,"Delta":73099926},{"NoteNumber":58,"Velocity":47,"Duration":293283,"SoundDuration":293283,"Delta":73099926},{"NoteNumber":73,"Velocity":78,"Duration":282592,"SoundDuration":282592,"Delta":73393210},{"NoteNumber":65,"Velocity":62,"Duration":282592,"SoundDuration":282592,"Delta":73393210},{"NoteNumber":53,"Velocity":43,"Duration":282592,"SoundDuration":282592,"Delta":73393210},{"NoteNumber":61,"Velocity":54,"Duration":282592,"SoundDuration":282592,"Delta":73393210},{"NoteNumber":64,"Velocity":55,"Duration":282592,"SoundDuration":282592,"Delta":73675802},{"NoteNumber":72,"Velocity":70,"Duration":282592,"SoundDuration":282592,"Delta":73675802},{"NoteNumber":52,"Velocity":32,"Duration":282592,"SoundDuration":282592,"Delta":73675802},{"NoteNumber":60,"Velocity":50,"Duration":282592,"SoundDuration":282592,"Delta":73675802},{"NoteNumber":67,"Velocity":70,"Duration":282592,"SoundDuration":282592,"Delta":73958395},{"NoteNumber":63,"Velocity":54,"Duration":282592,"SoundDuration":282592,"Delta":73958395},{"NoteNumber":51,"Velocity":36,"Duration":282592,"SoundDuration":282592,"Delta":73958395},{"NoteNumber":55,"Velocity":49,"Duration":282592,"SoundDuration":282592,"Delta":73958395},{"NoteNumber":62,"Velocity":53,"Duration":285714,"SoundDuration":285714,"Delta":74240987},{"NoteNumber":68,"Velocity":66,"Duration":285714,"SoundDuration":285714,"Delta":74240987},{"NoteNumber":50,"Velocity":36,"Duration":285714,"SoundDuration":285714,"Delta":74240987},{"NoteNumber":56,"Velocity":45,"Duration":285714,"SoundDuration":285714,"Delta":74240987},{"NoteNumber":61,"Velocity":55,"Duration":281689,"SoundDuration":281689,"Delta":74526702},{"NoteNumber":69,"Velocity":70,"Duration":281689,"SoundDuration":281689,"Delta":74526702},{"NoteNumber":49,"Velocity":36,"Duration":281689,"SoundDuration":281689,"Delta":74526702},{"NoteNumber":57,"Velocity":48,"Duration":281689,"SoundDuration":281689,"Delta":74526702},{"NoteNumber":63,"Velocity":65,"Duration":296501,"SoundDuration":296501,"Delta":74808392},{"NoteNumber":60,"Velocity":52,"Duration":296501,"SoundDuration":296501,"Delta":74808392},{"NoteNumber":48,"Velocity":36,"Duration":296501,"SoundDuration":296501,"Delta":74808392},{"NoteNumber":51,"Velocity":45,"Duration":296501,"SoundDuration":296501,"Delta":74808392},{"NoteNumber":58,"Velocity":57,"Duration":285578,"SoundDuration":285578,"Delta":75104893},{"NoteNumber":66,"Velocity":73,"Duration":285578,"SoundDuration":285578,"Delta":75104893},{"NoteNumber":46,"Velocity":37,"Duration":285578,"SoundDuration":285578,"Delta":75104893},{"NoteNumber":54,"Velocity":49,"Duration":285578,"SoundDuration":285578,"Delta":75104893},{"NoteNumber":65,"Velocity":65,"Duration":285578,"SoundDuration":285578,"Delta":75390472},{"NoteNumber":57,"Velocity":52,"Duration":285578,"SoundDuration":285578,"Delta":75390472},{"NoteNumber":45,"Velocity":36,"Duration":285578,"SoundDuration":285578,"Delta":75390472},{"NoteNumber":53,"Velocity":45,"Duration":285578,"SoundDuration":285578,"Delta":75390472},{"NoteNumber":56,"Velocity":55,"Duration":284821,"SoundDuration":284821,"Delta":75676050},{"NoteNumber":60,"Velocity":70,"Duration":284821,"SoundDuration":284821,"Delta":75676050},{"NoteNumber":44,"Velocity":37,"Duration":284821,"SoundDuration":284821,"Delta":75676050},{"NoteNumber":48,"Velocity":48,"Duration":284821,"SoundDuration":284821,"Delta":75676050},{"NoteNumber":55,"Velocity":47,"Duration":288096,"SoundDuration":288096,"Delta":75960872},{"NoteNumber":62,"Velocity":60,"Duration":288096,"SoundDuration":288096,"Delta":75960872},{"NoteNumber":43,"Velocity":32,"Duration":288096,"SoundDuration":288096,"Delta":75960872},{"NoteNumber":50,"Velocity":40,"Duration":288096,"SoundDuration":288096,"Delta":75960872},{"NoteNumber":63,"Velocity":69,"Duration":651789,"SoundDuration":651789,"Delta":76248968},{"NoteNumber":54,"Velocity":52,"Duration":310880,"SoundDuration":310880,"Delta":76248968},{"NoteNumber":42,"Velocity":37,"Duration":310880,"SoundDuration":310880,"Delta":76248968},{"NoteNumber":51,"Velocity":45,"Duration":310880,"SoundDuration":310880,"Delta":76248968},{"NoteNumber":53,"Velocity":50,"Duration":340908,"SoundDuration":340908,"Delta":76559849},{"NoteNumber":57,"Velocity":62,"Duration":340908,"SoundDuration":340908,"Delta":76559849},{"NoteNumber":41,"Velocity":35,"Duration":340908,"SoundDuration":340908,"Delta":76559849},{"NoteNumber":58,"Velocity":57,"Duration":324197,"SoundDuration":324197,"Delta":76900758},{"NoteNumber":62,"Velocity":73,"Duration":324197,"SoundDuration":324197,"Delta":76900758},{"NoteNumber":53,"Velocity":57,"Duration":324197,"SoundDuration":324197,"Delta":76900758},{"NoteNumber":34,"Velocity":50,"Duration":324197,"SoundDuration":324197,"Delta":76900758},{"NoteNumber":52,"Velocity":43,"Duration":291738,"SoundDuration":291738,"Delta":77224956},{"NoteNumber":53,"Velocity":47,"Duration":289855,"SoundDuration":289855,"Delta":77516694},{"NoteNumber":58,"Velocity":43,"Duration":289855,"SoundDuration":289855,"Delta":77806549},{"NoteNumber":57,"Velocity":43,"Duration":294117,"SoundDuration":294117,"Delta":78096404},{"NoteNumber":55,"Velocity":43,"Duration":294117,"SoundDuration":294117,"Delta":78390522},{"NoteNumber":41,"Velocity":55,"Duration":315457,"SoundDuration":315457,"Delta":78684639},{"NoteNumber":66,"Velocity":44,"Duration":294869,"SoundDuration":294869,"Delta":79000097},{"NoteNumber":75,"Velocity":56,"Duration":294869,"SoundDuration":294869,"Delta":79000097},{"NoteNumber":54,"Velocity":35,"Duration":294869,"SoundDuration":294869,"Delta":79000097},{"NoteNumber":63,"Velocity":44,"Duration":294869,"SoundDuration":294869,"Delta":79000097},{"NoteNumber":69,"Velocity":54,"Duration":293548,"SoundDuration":293548,"Delta":79294966},{"NoteNumber":65,"Velocity":43,"Duration":293548,"SoundDuration":293548,"Delta":79294966},{"NoteNumber":53,"Velocity":34,"Duration":293548,"SoundDuration":293548,"Delta":79294966},{"NoteNumber":57,"Velocity":43,"Duration":293548,"SoundDuration":293548,"Delta":79294966},{"NoteNumber":64,"Velocity":39,"Duration":291452,"SoundDuration":291452,"Delta":79588514},{"NoteNumber":70,"Velocity":50,"Duration":291452,"SoundDuration":291452,"Delta":79588514},{"NoteNumber":52,"Velocity":31,"Duration":291452,"SoundDuration":291452,"Delta":79588514},{"NoteNumber":58,"Velocity":39,"Duration":291452,"SoundDuration":291452,"Delta":79588514},{"NoteNumber":63,"Velocity":40,"Duration":608319,"SoundDuration":608319,"Delta":79879967},{"NoteNumber":72,"Velocity":50,"Duration":608319,"SoundDuration":608319,"Delta":79879967},{"NoteNumber":51,"Velocity":32,"Duration":296501,"SoundDuration":296501,"Delta":79879967},{"NoteNumber":60,"Velocity":40,"Duration":296501,"SoundDuration":296501,"Delta":79879967},{"NoteNumber":66,"Velocity":47,"Duration":311818,"SoundDuration":311818,"Delta":80176468},{"NoteNumber":54,"Velocity":37,"Duration":311818,"SoundDuration":311818,"Delta":80176468},{"NoteNumber":62,"Velocity":45,"Duration":629702,"SoundDuration":629702,"Delta":80488286},{"NoteNumber":65,"Velocity":45,"Duration":629702,"SoundDuration":629702,"Delta":80488286},{"NoteNumber":70,"Velocity":45,"Duration":629702,"SoundDuration":629702,"Delta":80488286},{"NoteNumber":74,"Velocity":58,"Duration":629702,"SoundDuration":629702,"Delta":80488286},{"NoteNumber":46,"Velocity":50,"Duration":324886,"SoundDuration":324886,"Delta":80488286},{"NoteNumber":52,"Velocity":43,"Duration":304816,"SoundDuration":304816,"Delta":80813173},{"NoteNumber":53,"Velocity":46,"Duration":292682,"SoundDuration":292682,"Delta":81117989},{"NoteNumber":58,"Velocity":39,"Duration":292682,"SoundDuration":292682,"Delta":81410672},{"NoteNumber":57,"Velocity":43,"Duration":294117,"SoundDuration":294117,"Delta":81703355},{"NoteNumber":55,"Velocity":37,"Duration":294117,"SoundDuration":294117,"Delta":81997472},{"NoteNumber":41,"Velocity":54,"Duration":315457,"SoundDuration":315457,"Delta":82291590},{"NoteNumber":75,"Velocity":56,"Duration":294869,"SoundDuration":294869,"Delta":82607047},{"NoteNumber":66,"Velocity":44,"Duration":294869,"SoundDuration":294869,"Delta":82607047},{"NoteNumber":54,"Velocity":35,"Duration":294869,"SoundDuration":294869,"Delta":82607047},{"NoteNumber":63,"Velocity":44,"Duration":294869,"SoundDuration":294869,"Delta":82607047},{"NoteNumber":65,"Velocity":43,"Duration":293548,"SoundDuration":293548,"Delta":82901917},{"NoteNumber":69,"Velocity":54,"Duration":293548,"SoundDuration":293548,"Delta":82901917},{"NoteNumber":53,"Velocity":34,"Duration":293548,"SoundDuration":293548,"Delta":82901917},{"NoteNumber":57,"Velocity":43,"Duration":293548,"SoundDuration":293548,"Delta":82901917},{"NoteNumber":70,"Velocity":50,"Duration":291452,"SoundDuration":291452,"Delta":83195465},{"NoteNumber":64,"Velocity":39,"Duration":291452,"SoundDuration":291452,"Delta":83195465},{"NoteNumber":52,"Velocity":31,"Duration":291452,"SoundDuration":291452,"Delta":83195465},{"NoteNumber":58,"Velocity":39,"Duration":291452,"SoundDuration":291452,"Delta":83195465},{"NoteNumber":63,"Velocity":40,"Duration":621177,"SoundDuration":621177,"Delta":83486917},{"NoteNumber":72,"Velocity":50,"Duration":621177,"SoundDuration":621177,"Delta":83486917},{"NoteNumber":51,"Velocity":32,"Duration":296501,"SoundDuration":296501,"Delta":83486917},{"NoteNumber":60,"Velocity":40,"Duration":296501,"SoundDuration":296501,"Delta":83486917},{"NoteNumber":66,"Velocity":47,"Duration":324675,"SoundDuration":324675,"Delta":83783419},{"NoteNumber":54,"Velocity":37,"Duration":324675,"SoundDuration":324675,"Delta":83783419},{"NoteNumber":65,"Velocity":45,"Duration":629702,"SoundDuration":629702,"Delta":84108094},{"NoteNumber":70,"Velocity":45,"Duration":629702,"SoundDuration":629702,"Delta":84108094},{"NoteNumber":62,"Velocity":45,"Duration":629702,"SoundDuration":629702,"Delta":84108094},{"NoteNumber":74,"Velocity":58,"Duration":629702,"SoundDuration":629702,"Delta":84108094},{"NoteNumber":34,"Velocity":50,"Duration":324886,"SoundDuration":324886,"Delta":84108094},{"NoteNumber":40,"Velocity":43,"Duration":304816,"SoundDuration":304816,"Delta":84432981},{"NoteNumber":41,"Velocity":46,"Duration":294869,"SoundDuration":294869,"Delta":84737797},{"NoteNumber":46,"Velocity":39,"Duration":294869,"SoundDuration":294869,"Delta":85032666},{"NoteNumber":45,"Velocity":43,"Duration":303122,"SoundDuration":303122,"Delta":85327536},{"NoteNumber":43,"Velocity":37,"Duration":311203,"SoundDuration":311203,"Delta":85630658},{"NoteNumber":67,"Velocity":58,"Duration":1813377,"SoundDuration":1813377,"Delta":85941861},{"NoteNumber":62,"Velocity":58,"Duration":899280,"SoundDuration":899280,"Delta":85941861},{"NoteNumber":55,"Velocity":49,"Duration":1813377,"SoundDuration":1813377,"Delta":85941861},{"NoteNumber":58,"Velocity":49,"Duration":899280,"SoundDuration":899280,"Delta":85941861},{"NoteNumber":31,"Velocity":47,"Duration":1200727,"SoundDuration":1200727,"Delta":85941861},{"NoteNumber":60,"Velocity":54,"Duration":301446,"SoundDuration":301446,"Delta":86841141},{"NoteNumber":63,"Velocity":58,"Duration":301447,"SoundDuration":301447,"Delta":87142588},{"NoteNumber":33,"Velocity":44,"Duration":612650,"SoundDuration":612650,"Delta":87142588},{"NoteNumber":62,"Velocity":51,"Duration":311203,"SoundDuration":311203,"Delta":87444035},{"NoteNumber":58,"Velocity":48,"Duration":1831603,"SoundDuration":1831603,"Delta":87755239},{"NoteNumber":53,"Velocity":48,"Duration":1831603,"SoundDuration":1831603,"Delta":87755239},{"NoteNumber":62,"Velocity":57,"Duration":1219441,"SoundDuration":1219441,"Delta":87755239},{"NoteNumber":65,"Velocity":57,"Duration":1831603,"SoundDuration":1831603,"Delta":87755239},{"NoteNumber":34,"Velocity":50,"Duration":324886,"SoundDuration":324886,"Delta":87755239},{"NoteNumber":40,"Velocity":43,"Duration":304816,"SoundDuration":304816,"Delta":88080125},{"NoteNumber":41,"Velocity":46,"Duration":294869,"SoundDuration":294869,"Delta":88384941},{"NoteNumber":46,"Velocity":39,"Duration":294869,"SoundDuration":294869,"Delta":88679811},{"NoteNumber":45,"Velocity":43,"Duration":294869,"SoundDuration":294869,"Delta":88974680},{"NoteNumber":43,"Velocity":37,"Duration":317292,"SoundDuration":317292,"Delta":89269550},{"NoteNumber":58,"Velocity":49,"Duration":899280,"SoundDuration":899280,"Delta":89586842},{"NoteNumber":62,"Velocity":58,"Duration":899280,"SoundDuration":899280,"Delta":89586842},{"NoteNumber":55,"Velocity":49,"Duration":1803621,"SoundDuration":1803621,"Delta":89586842},{"NoteNumber":67,"Velocity":58,"Duration":1803621,"SoundDuration":1803621,"Delta":89586842},{"NoteNumber":31,"Velocity":47,"Duration":1200727,"SoundDuration":1200727,"Delta":89586842},{"NoteNumber":60,"Velocity":54,"Duration":301446,"SoundDuration":301446,"Delta":90486122},{"NoteNumber":63,"Velocity":58,"Duration":301447,"SoundDuration":301447,"Delta":90787569},{"NoteNumber":33,"Velocity":44,"Duration":602894,"SoundDuration":602894,"Delta":90787569},{"NoteNumber":62,"Velocity":51,"Duration":301446,"SoundDuration":301446,"Delta":91089016},{"NoteNumber":53,"Velocity":48,"Duration":5397859,"SoundDuration":5397859,"Delta":91390463},{"NoteNumber":58,"Velocity":48,"Duration":5397859,"SoundDuration":5397859,"Delta":91390463},{"NoteNumber":62,"Velocity":57,"Duration":5397859,"SoundDuration":5397859,"Delta":91390463},{"NoteNumber":65,"Velocity":57,"Duration":5397859,"SoundDuration":5397859,"Delta":91390463},{"NoteNumber":34,"Velocity":50,"Duration":324886,"SoundDuration":324886,"Delta":91390463},{"NoteNumber":40,"Velocity":43,"Duration":304816,"SoundDuration":304816,"Delta":91715350},{"NoteNumber":41,"Velocity":46,"Duration":294869,"SoundDuration":294869,"Delta":92020166},{"NoteNumber":46,"Velocity":39,"Duration":294869,"SoundDuration":294869,"Delta":92315035},{"NoteNumber":45,"Velocity":43,"Duration":294869,"SoundDuration":294869,"Delta":92609905},{"NoteNumber":43,"Velocity":37,"Duration":294869,"SoundDuration":294869,"Delta":92904774},{"NoteNumber":34,"Velocity":50,"Duration":310045,"SoundDuration":310045,"Delta":93199644},{"NoteNumber":40,"Velocity":43,"Duration":304816,"SoundDuration":304816,"Delta":93509689},{"NoteNumber":41,"Velocity":50,"Duration":294869,"SoundDuration":294869,"Delta":93814505},{"NoteNumber":46,"Velocity":43,"Duration":294869,"SoundDuration":294869,"Delta":94109375},{"NoteNumber":45,"Velocity":51,"Duration":294869,"SoundDuration":294869,"Delta":94404244},{"NoteNumber":43,"Velocity":48,"Duration":294869,"SoundDuration":294869,"Delta":94699114},{"NoteNumber":34,"Velocity":50,"Duration":310045,"SoundDuration":310045,"Delta":94993983},{"NoteNumber":40,"Velocity":43,"Duration":304816,"SoundDuration":304816,"Delta":95304029},{"NoteNumber":41,"Velocity":50,"Duration":294869,"SoundDuration":294869,"Delta":95608845},{"NoteNumber":48,"Velocity":43,"Duration":294869,"SoundDuration":294869,"Delta":95890199},{"NoteNumber":45,"Velocity":51,"Duration":294869,"SoundDuration":294869,"Delta":96198584},{"NoteNumber":46,"Velocity":48,"Duration":294869,"SoundDuration":294869,"Delta":96493453},{"NoteNumber":51,"Velocity":56,"Duration":294869,"SoundDuration":294869,"Delta":96788323},{"NoteNumber":49,"Velocity":53,"Duration":294869,"SoundDuration":294869,"Delta":97083192},{"NoteNumber":50,"Velocity":61,"Duration":301084,"SoundDuration":301084,"Delta":97378062},{"NoteNumber":55,"Velocity":55,"Duration":301084,"SoundDuration":301084,"Delta":97679146},{"NoteNumber":52,"Velocity":62,"Duration":311074,"SoundDuration":311074,"Delta":97980230},{"NoteNumber":53,"Velocity":58,"Duration":358680,"SoundDuration":358680,"Delta":98291304},{"NoteNumber":62,"Velocity":69,"Duration":717359,"SoundDuration":717359,"Delta":98649984},{"NoteNumber":60,"Velocity":60,"Duration":2152079,"SoundDuration":2152079,"Delta":100802064},{"NoteNumber":53,"Velocity":60,"Duration":2152079,"SoundDuration":2152079,"Delta":100802064},{"NoteNumber":63,"Velocity":71,"Duration":2152079,"SoundDuration":2152079,"Delta":100802064},{"NoteNumber":65,"Velocity":71,"Duration":2152079,"SoundDuration":2152079,"Delta":100802064},{"NoteNumber":41,"Velocity":53,"Duration":2152079,"SoundDuration":2152079,"Delta":100802064},{"NoteNumber":29,"Velocity":45,"Duration":2152079,"SoundDuration":2152079,"Delta":100802064},{"NoteNumber":65,"Velocity":71,"Duration":2152079,"SoundDuration":2152079,"Delta":102954144},{"NoteNumber":58,"Velocity":61,"Duration":2152079,"SoundDuration":2152079,"Delta":102954144},{"NoteNumber":62,"Velocity":72,"Duration":2152079,"SoundDuration":2152079,"Delta":102954144},{"NoteNumber":53,"Velocity":61,"Duration":2152079,"SoundDuration":2152079,"Delta":102954144},{"NoteNumber":34,"Velocity":46,"Duration":2152079,"SoundDuration":2152079,"Delta":102954144},{"NoteNumber":46,"Velocity":55,"Duration":2152079,"SoundDuration":2152079,"Delta":102954144}],"license":{"name":"Creative Commons Attribution-ShareAlike 3.0 Germany","url":"http://creativecommons.org/licenses/by-sa/3.0/de/deed.en","text":"The MIDI, audio (MP3, OGG) and video files of Bernd Krueger are licensed under the cc-by-sa Germany License. This means that you can use and adapt the files, as long as you attribute the copyright holder.\n\nName: Bernd Krueger\nSource: http://www.piano-midi.de\n\nThe distribution or public playback of the files is only allowed under identical license conditions.\n\nThe scores are open source.","attribution":"MIDI files by Bernd Krueger (piano-midi.de)","attributionUrl":"http://www.piano-midi.de"}}