{"title":"Chopin Prelude No. 22, Opus 28","artist":"Chopin","durationMs":38740,"midiSha256":"06fe23e3745d369af73964ed3b55ec459696f0b1e7a401ebf22bd7fac334598b","midiObject":[{"NoteNumber":34,"Velocity":62,"Duration":211178,"SoundDuration":211178,"Delta":0},{"NoteNumber":46,"Velocity":74,"Duration":211178,"SoundDuration":211178,"Delta":0},{"NoteNumber":33,"Velocity":64,"Duration":333763,"SoundDuration":333763,"Delta":211179},{"NoteNumber":45,"Velocity":77,"Duration":333763,"SoundDuration":333763,"Delta":211179},{"NoteNumber":31,"Velocity":62,"Duration":57440,"SoundDuration":57440,"Delta":544942},{"NoteNumber":43,"Velocity":74,"Duration":57440,"SoundDuration":57440,"Delta":544942},{"NoteNumber":31,"Velocity":64,"Duration":715166,"SoundDuration":715166,"Delta":659823},{"NoteNumber":43,"Velocity":77,"Duration":715166,"SoundDuration":715166,"Delta":659823},{"NoteNumber":60,"Velocity":55,"Duration":672991,"SoundDuration":672991,"Delta":859066},{"NoteNumber":57,"Velocity":64,"Duration":515923,"SoundDuration":515923,"Delta":859066},{"NoteNumber":63,"Velocity":68,"Duration":346909,"SoundDuration":346909,"Delta":859066},{"NoteNumber":51,"Velocity":64,"Duration":164834,"SoundDuration":164834,"Delta":1041140},{"NoteNumber":62,"Velocity":62,"Duration":326082,"SoundDuration":326082,"Delta":1205975},{"NoteNumber":50,"Velocity":64,"Duration":169014,"SoundDuration":169014,"Delta":1205975},{"NoteNumber":30,"Velocity":64,"Duration":157067,"SoundDuration":157067,"Delta":1374989},{"NoteNumber":42,"Velocity":77,"Duration":157067,"SoundDuration":157067,"Delta":1374989},{"NoteNumber":33,"Velocity":61,"Duration":117801,"SoundDuration":117801,"Delta":1532057},{"NoteNumber":45,"Velocity":73,"Duration":117801,"SoundDuration":117801,"Delta":1532057},{"NoteNumber":33,"Velocity":64,"Duration":616250,"SoundDuration":616250,"Delta":1689125},{"NoteNumber":45,"Velocity":77,"Duration":616250,"SoundDuration":616250,"Delta":1689125},{"NoteNumber":66,"Velocity":66,"Duration":306122,"SoundDuration":306122,"Delta":1846193},{"NoteNumber":63,"Velocity":55,"Duration":614623,"SoundDuration":614623,"Delta":1846193},{"NoteNumber":60,"Velocity":64,"Duration":153061,"SoundDuration":153061,"Delta":1846193},{"NoteNumber":54,"Velocity":61,"Duration":153061,"SoundDuration":153061,"Delta":1999254},{"NoteNumber":55,"Velocity":63,"Duration":308501,"SoundDuration":308501,"Delta":2152315},{"NoteNumber":67,"Velocity":66,"Duration":308501,"SoundDuration":308501,"Delta":2152315},{"NoteNumber":34,"Velocity":64,"Duration":155440,"SoundDuration":155440,"Delta":2305376},{"NoteNumber":46,"Velocity":77,"Duration":155440,"SoundDuration":155440,"Delta":2305376},{"NoteNumber":31,"Velocity":63,"Duration":155440,"SoundDuration":155440,"Delta":2460817},{"NoteNumber":43,"Velocity":75,"Duration":155440,"SoundDuration":155440,"Delta":2460817},{"NoteNumber":34,"Velocity":64,"Duration":597700,"SoundDuration":597700,"Delta":2616257},{"NoteNumber":46,"Velocity":77,"Duration":597700,"SoundDuration":597700,"Delta":2616257},{"NoteNumber":63,"Velocity":55,"Duration":592155,"SoundDuration":592155,"Delta":2771698},{"NoteNumber":60,"Velocity":64,"Duration":147419,"SoundDuration":147419,"Delta":2771698},{"NoteNumber":67,"Velocity":66,"Duration":294839,"SoundDuration":294839,"Delta":2771698},{"NoteNumber":55,"Velocity":63,"Duration":147419,"SoundDuration":147419,"Delta":2919118},{"NoteNumber":66,"Velocity":65,"Duration":297315,"SoundDuration":297315,"Delta":3066538},{"NoteNumber":54,"Velocity":62,"Duration":297315,"SoundDuration":297315,"Delta":3066538},{"NoteNumber":60,"Velocity":54,"Duration":297315,"SoundDuration":297315,"Delta":3066538},{"NoteNumber":33,"Velocity":64,"Duration":149894,"SoundDuration":149894,"Delta":3213958},{"NoteNumber":45,"Velocity":77,"Duration":149894,"SoundDuration":149894,"Delta":3213958},{"NoteNumber":36,"Velocity":62,"Duration":112421,"SoundDuration":112421,"Delta":3363853},{"NoteNumber":48,"Velocity":73,"Duration":112421,"SoundDuration":112421,"Delta":3363853},{"NoteNumber":36,"Velocity":68,"Duration":585518,"SoundDuration":585518,"Delta":3513748},{"NoteNumber":48,"Velocity":81,"Duration":585518,"SoundDuration":585518,"Delta":3513748},{"NoteNumber":66,"Velocity":73,"Duration":290415,"SoundDuration":290415,"Delta":3663643},{"NoteNumber":63,"Velocity":65,"Duration":145208,"SoundDuration":145208,"Delta":3663643},{"NoteNumber":69,"Velocity":73,"Duration":290415,"SoundDuration":290415,"Delta":3663643},{"NoteNumber":57,"Velocity":70,"Duration":145207,"SoundDuration":145207,"Delta":3808851},{"NoteNumber":67,"Velocity":59,"Duration":292911,"SoundDuration":292911,"Delta":3954059},{"NoteNumber":58,"Velocity":70,"Duration":292911,"SoundDuration":292911,"Delta":3954059},{"NoteNumber":70,"Velocity":73,"Duration":292911,"SoundDuration":292911,"Delta":3954059},{"NoteNumber":38,"Velocity":69,"Duration":147702,"SoundDuration":147702,"Delta":4099267},{"NoteNumber":50,"Velocity":83,"Duration":147702,"SoundDuration":147702,"Delta":4099267},{"NoteNumber":34,"Velocity":67,"Duration":147702,"SoundDuration":147702,"Delta":4246970},{"NoteNumber":46,"Velocity":80,"Duration":147702,"SoundDuration":147702,"Delta":4246970},{"NoteNumber":49,"Velocity":73,"Duration":584120,"SoundDuration":584120,"Delta":4394673},{"NoteNumber":61,"Velocity":88,"Duration":584120,"SoundDuration":584120,"Delta":4394673},{"NoteNumber":70,"Velocity":70,"Duration":287424,"SoundDuration":287424,"Delta":4547656},{"NoteNumber":79,"Velocity":79,"Duration":287424,"SoundDuration":287424,"Delta":4547656},{"NoteNumber":75,"Velocity":66,"Duration":287424,"SoundDuration":287424,"Delta":4547656},{"NoteNumber":67,"Velocity":71,"Duration":143712,"SoundDuration":143712,"Delta":4691368},{"NoteNumber":78,"Velocity":77,"Duration":290318,"SoundDuration":290318,"Delta":4835081},{"NoteNumber":69,"Velocity":64,"Duration":290318,"SoundDuration":290318,"Delta":4835081},{"NoteNumber":66,"Velocity":64,"Duration":290318,"SoundDuration":290318,"Delta":4835081},{"NoteNumber":74,"Velocity":64,"Duration":290318,"SoundDuration":290318,"Delta":4835081},{"NoteNumber":50,"Velocity":73,"Duration":146606,"SoundDuration":146606,"Delta":4978793},{"NoteNumber":62,"Velocity":88,"Duration":146606,"SoundDuration":146606,"Delta":4978793},{"NoteNumber":45,"Velocity":71,"Duration":146605,"SoundDuration":146605,"Delta":5125399},{"NoteNumber":57,"Velocity":85,"Duration":146605,"SoundDuration":146605,"Delta":5125399},{"NoteNumber":47,"Velocity":70,"Duration":572924,"SoundDuration":572924,"Delta":5272005},{"NoteNumber":59,"Velocity":84,"Duration":572924,"SoundDuration":572924,"Delta":5272005},{"NoteNumber":77,"Velocity":75,"Duration":284212,"SoundDuration":284212,"Delta":5418611},{"NoteNumber":68,"Velocity":67,"Duration":284212,"SoundDuration":284212,"Delta":5418611},{"NoteNumber":73,"Velocity":64,"Duration":284212,"SoundDuration":284212,"Delta":5418611},{"NoteNumber":65,"Velocity":68,"Duration":142106,"SoundDuration":142106,"Delta":5560717},{"NoteNumber":64,"Velocity":60,"Duration":289136,"SoundDuration":289136,"Delta":5702823},{"NoteNumber":67,"Velocity":60,"Duration":289136,"SoundDuration":289136,"Delta":5702823},{"NoteNumber":76,"Velocity":74,"Duration":289136,"SoundDuration":289136,"Delta":5702823},{"NoteNumber":72,"Velocity":60,"Duration":289136,"SoundDuration":289136,"Delta":5702823},{"NoteNumber":48,"Velocity":70,"Duration":147030,"SoundDuration":147030,"Delta":5844929},{"NoteNumber":60,"Velocity":84,"Duration":147030,"SoundDuration":147030,"Delta":5844929},{"NoteNumber":43,"Velocity":68,"Duration":147030,"SoundDuration":147030,"Delta":5991959},{"NoteNumber":55,"Velocity":80,"Duration":147030,"SoundDuration":147030,"Delta":5991959},{"NoteNumber":47,"Velocity":67,"Duration":579368,"SoundDuration":579368,"Delta":6138989},{"NoteNumber":59,"Velocity":80,"Duration":579368,"SoundDuration":579368,"Delta":6138989},{"NoteNumber":73,"Velocity":61,"Duration":288225,"SoundDuration":288225,"Delta":6286019},{"NoteNumber":68,"Velocity":64,"Duration":288225,"SoundDuration":288225,"Delta":6286019},{"NoteNumber":77,"Velocity":72,"Duration":288225,"SoundDuration":288225,"Delta":6286019},{"NoteNumber":65,"Velocity":65,"Duration":144112,"SoundDuration":144112,"Delta":6430132},{"NoteNumber":64,"Velocity":58,"Duration":294007,"SoundDuration":294007,"Delta":6574245},{"NoteNumber":72,"Velocity":58,"Duration":294007,"SoundDuration":294007,"Delta":6574245},{"NoteNumber":67,"Velocity":58,"Duration":294007,"SoundDuration":294007,"Delta":6574245},{"NoteNumber":76,"Velocity":71,"Duration":294007,"SoundDuration":294007,"Delta":6574245},{"NoteNumber":48,"Velocity":67,"Duration":149894,"SoundDuration":149894,"Delta":6718358},{"NoteNumber":60,"Velocity":80,"Duration":149894,"SoundDuration":149894,"Delta":6718358},{"NoteNumber":43,"Velocity":65,"Duration":112421,"SoundDuration":112421,"Delta":6868253},{"NoteNumber":55,"Velocity":77,"Duration":112421,"SoundDuration":112421,"Delta":6868253},{"NoteNumber":43,"Velocity":74,"Duration":156994,"SoundDuration":156994,"Delta":7018148},{"NoteNumber":55,"Velocity":88,"Duration":156994,"SoundDuration":156994,"Delta":7018148},{"NoteNumber":72,"Velocity":68,"Duration":153145,"SoundDuration":153145,"Delta":7175142},{"NoteNumber":63,"Velocity":57,"Duration":153145,"SoundDuration":153145,"Delta":7175142},{"NoteNumber":69,"Velocity":57,"Duration":153145,"SoundDuration":153145,"Delta":7175142},{"NoteNumber":75,"Velocity":68,"Duration":153145,"SoundDuration":153145,"Delta":7175142},{"NoteNumber":42,"Velocity":65,"Duration":153145,"SoundDuration":153145,"Delta":7175142},{"NoteNumber":54,"Velocity":77,"Duration":153145,"SoundDuration":153145,"Delta":7175142},{"NoteNumber":43,"Velocity":65,"Duration":157894,"SoundDuration":157894,"Delta":7328288},{"NoteNumber":55,"Velocity":77,"Duration":157894,"SoundDuration":157894,"Delta":7328288},{"NoteNumber":46,"Velocity":68,"Duration":162750,"SoundDuration":162750,"Delta":7486182},{"NoteNumber":58,"Velocity":80,"Duration":162750,"SoundDuration":162750,"Delta":7486182},{"NoteNumber":45,"Velocity":65,"Duration":167999,"SoundDuration":167999,"Delta":7648933},{"NoteNumber":57,"Velocity":77,"Duration":167999,"SoundDuration":167999,"Delta":7648933},{"NoteNumber":43,"Velocity":67,"Duration":46213,"SoundDuration":46213,"Delta":7909360},{"NoteNumber":55,"Velocity":79,"Duration":46213,"SoundDuration":46213,"Delta":7909360},{"NoteNumber":43,"Velocity":64,"Duration":625831,"SoundDuration":625831,"Delta":8001787},{"NoteNumber":55,"Velocity":77,"Duration":625831,"SoundDuration":625831,"Delta":8001787},{"NoteNumber":75,"Velocity":72,"Duration":307691,"SoundDuration":307691,"Delta":8166080},{"NoteNumber":69,"Velocity":70,"Duration":611433,"SoundDuration":611433,"Delta":8166080},{"NoteNumber":72,"Velocity":60,"Duration":611433,"SoundDuration":611433,"Delta":8166080},{"NoteNumber":63,"Velocity":70,"Duration":153845,"SoundDuration":153845,"Delta":8319926},{"NoteNumber":74,"Velocity":70,"Duration":303741,"SoundDuration":303741,"Delta":8473772},{"NoteNumber":62,"Velocity":70,"Duration":303741,"SoundDuration":303741,"Delta":8473772},{"NoteNumber":42,"Velocity":64,"Duration":149895,"SoundDuration":149895,"Delta":8627618},{"NoteNumber":54,"Velocity":77,"Duration":149895,"SoundDuration":149895,"Delta":8627618},{"NoteNumber":45,"Velocity":61,"Duration":112421,"SoundDuration":112421,"Delta":8777513},{"NoteNumber":57,"Velocity":73,"Duration":112421,"SoundDuration":112421,"Delta":8777513},{"NoteNumber":45,"Velocity":64,"Duration":578610,"SoundDuration":578610,"Delta":8927408},{"NoteNumber":57,"Velocity":77,"Duration":578610,"SoundDuration":578610,"Delta":8927408},{"NoteNumber":78,"Velocity":72,"Duration":285809,"SoundDuration":285809,"Delta":9077303},{"NoteNumber":75,"Velocity":60,"Duration":575249,"SoundDuration":575249,"Delta":9077303},{"NoteNumber":72,"Velocity":70,"Duration":142905,"SoundDuration":142905,"Delta":9077303},{"NoteNumber":66,"Velocity":67,"Duration":142904,"SoundDuration":142904,"Delta":9220208},{"NoteNumber":67,"Velocity":69,"Duration":289439,"SoundDuration":289439,"Delta":9363113},{"NoteNumber":79,"Velocity":72,"Duration":289439,"SoundDuration":289439,"Delta":9363113},{"NoteNumber":46,"Velocity":64,"Duration":146534,"SoundDuration":146534,"Delta":9506018},{"NoteNumber":58,"Velocity":77,"Duration":146534,"SoundDuration":146534,"Delta":9506018},{"NoteNumber":43,"Velocity":63,"Duration":146177,"SoundDuration":146177,"Delta":9652552},{"NoteNumber":55,"Velocity":75,"Duration":146177,"SoundDuration":146177,"Delta":9652552},{"NoteNumber":46,"Velocity":67,"Duration":572495,"SoundDuration":572495,"Delta":9798730},{"NoteNumber":58,"Velocity":80,"Duration":572495,"SoundDuration":572495,"Delta":9798730},{"NoteNumber":75,"Velocity":63,"Duration":574203,"SoundDuration":574203,"Delta":9944907},{"NoteNumber":72,"Velocity":73,"Duration":574203,"SoundDuration":574203,"Delta":9944907},{"NoteNumber":79,"Velocity":75,"Duration":284212,"SoundDuration":284212,"Delta":9944907},{"NoteNumber":67,"Velocity":72,"Duration":142106,"SoundDuration":142106,"Delta":10087013},{"NoteNumber":78,"Velocity":74,"Duration":289991,"SoundDuration":289991,"Delta":10229119},{"NoteNumber":66,"Velocity":71,"Duration":289991,"SoundDuration":289991,"Delta":10229119},{"NoteNumber":45,"Velocity":67,"Duration":147885,"SoundDuration":147885,"Delta":10371225},{"NoteNumber":57,"Velocity":80,"Duration":147885,"SoundDuration":147885,"Delta":10371225},{"NoteNumber":48,"Velocity":64,"Duration":110913,"SoundDuration":110913,"Delta":10519110},{"NoteNumber":60,"Velocity":75,"Duration":110913,"SoundDuration":110913,"Delta":10519110},{"NoteNumber":48,"Velocity":70,"Duration":588507,"SoundDuration":588507,"Delta":10666995},{"NoteNumber":60,"Velocity":84,"Duration":588507,"SoundDuration":588507,"Delta":10666995},{"NoteNumber":78,"Velocity":66,"Duration":290996,"SoundDuration":290996,"Delta":10814880},{"NoteNumber":81,"Velocity":79,"Duration":290996,"SoundDuration":290996,"Delta":10814880},{"NoteNumber":75,"Velocity":70,"Duration":145654,"SoundDuration":145654,"Delta":10814880},{"NoteNumber":69,"Velocity":74,"Duration":145341,"SoundDuration":145341,"Delta":10960535},{"NoteNumber":79,"Velocity":64,"Duration":305203,"SoundDuration":305203,"Delta":11105877},{"NoteNumber":70,"Velocity":74,"Duration":305203,"SoundDuration":305203,"Delta":11105877},{"NoteNumber":82,"Velocity":78,"Duration":305203,"SoundDuration":305203,"Delta":11105877},{"NoteNumber":50,"Velocity":70,"Duration":155577,"SoundDuration":155577,"Delta":11255503},{"NoteNumber":62,"Velocity":84,"Duration":155577,"SoundDuration":155577,"Delta":11255503},{"NoteNumber":46,"Velocity":68,"Duration":155577,"SoundDuration":155577,"Delta":11411080},{"NoteNumber":58,"Velocity":81,"Duration":155577,"SoundDuration":155577,"Delta":11411080},{"NoteNumber":55,"Velocity":73,"Duration":157819,"SoundDuration":157819,"Delta":11566658},{"NoteNumber":67,"Velocity":86,"Duration":157819,"SoundDuration":157819,"Delta":11566658},{"NoteNumber":79,"Velocity":69,"Duration":298389,"SoundDuration":298389,"Delta":11724478},{"NoteNumber":82,"Velocity":82,"Duration":298389,"SoundDuration":298389,"Delta":11724478},{"NoteNumber":51,"Velocity":69,"Duration":149194,"SoundDuration":149194,"Delta":11724478},{"NoteNumber":63,"Velocity":82,"Duration":149194,"SoundDuration":149194,"Delta":11724478},{"NoteNumber":70,"Velocity":78,"Duration":149194,"SoundDuration":149194,"Delta":11873672},{"NoteNumber":50,"Velocity":69,"Duration":111895,"SoundDuration":111895,"Delta":11873672},{"NoteNumber":62,"Velocity":82,"Duration":111895,"SoundDuration":111895,"Delta":11873672},{"NoteNumber":50,"Velocity":74,"Duration":294536,"SoundDuration":294536,"Delta":12022867},{"NoteNumber":62,"Velocity":88,"Duration":294536,"SoundDuration":294536,"Delta":12022867},{"NoteNumber":79,"Velocity":68,"Duration":290684,"SoundDuration":290684,"Delta":12172061},{"NoteNumber":81,"Velocity":81,"Duration":290684,"SoundDuration":290684,"Delta":12172061},{"NoteNumber":76,"Velocity":63,"Duration":290684,"SoundDuration":290684,"Delta":12172061},{"NoteNumber":69,"Velocity":78,"Duration":145342,"SoundDuration":145342,"Delta":12317403},{"NoteNumber":49,"Velocity":69,"Duration":145342,"SoundDuration":145342,"Delta":12317403},{"NoteNumber":61,"Velocity":82,"Duration":145342,"SoundDuration":145342,"Delta":12317403},{"NoteNumber":53,"Velocity":73,"Duration":145341,"SoundDuration":145341,"Delta":12462745},{"NoteNumber":65,"Velocity":86,"Duration":145341,"SoundDuration":145341,"Delta":12462745},{"NoteNumber":77,"Velocity":69,"Duration":293383,"SoundDuration":293383,"Delta":12608087},{"NoteNumber":80,"Velocity":82,"Duration":293383,"SoundDuration":293383,"Delta":12608087},{"NoteNumber":49,"Velocity":69,"Duration":146691,"SoundDuration":146691,"Delta":12608087},{"NoteNumber":61,"Velocity":82,"Duration":146691,"SoundDuration":146691,"Delta":12608087},{"NoteNumber":68,"Velocity":78,"Duration":146691,"SoundDuration":146691,"Delta":12754779},{"NoteNumber":48,"Velocity":69,"Duration":110018,"SoundDuration":110018,"Delta":12754779},{"NoteNumber":60,"Velocity":82,"Duration":110018,"SoundDuration":110018,"Delta":12754779},{"NoteNumber":48,"Velocity":74,"Duration":292522,"SoundDuration":292522,"Delta":12901471},{"NoteNumber":60,"Velocity":88,"Duration":292522,"SoundDuration":292522,"Delta":12901471},{"NoteNumber":79,"Velocity":81,"Duration":291172,"SoundDuration":291172,"Delta":13048163},{"NoteNumber":77,"Velocity":68,"Duration":291172,"SoundDuration":291172,"Delta":13048163},{"NoteNumber":74,"Velocity":63,"Duration":291172,"SoundDuration":291172,"Delta":13048163},{"NoteNumber":67,"Velocity":78,"Duration":145341,"SoundDuration":145341,"Delta":13193994},{"NoteNumber":47,"Velocity":69,"Duration":145341,"SoundDuration":145341,"Delta":13193994},{"NoteNumber":59,"Velocity":82,"Duration":145341,"SoundDuration":145341,"Delta":13193994},{"NoteNumber":51,"Velocity":73,"Duration":145341,"SoundDuration":145341,"Delta":13339336},{"NoteNumber":63,"Velocity":86,"Duration":145341,"SoundDuration":145341,"Delta":13339336},{"NoteNumber":72,"Velocity":69,"Duration":291290,"SoundDuration":291290,"Delta":13484678},{"NoteNumber":67,"Velocity":69,"Duration":291290,"SoundDuration":291290,"Delta":13484678},{"NoteNumber":75,"Velocity":82,"Duration":291290,"SoundDuration":291290,"Delta":13484678},{"NoteNumber":48,"Velocity":69,"Duration":145645,"SoundDuration":145645,"Delta":13484678},{"NoteNumber":60,"Velocity":82,"Duration":145645,"SoundDuration":145645,"Delta":13484678},{"NoteNumber":63,"Velocity":79,"Duration":145645,"SoundDuration":145645,"Delta":13630323},{"NoteNumber":46,"Velocity":70,"Duration":145645,"SoundDuration":145645,"Delta":13630323},{"NoteNumber":58,"Velocity":83,"Duration":145645,"SoundDuration":145645,"Delta":13630323},{"NoteNumber":45,"Velocity":77,"Duration":145645,"SoundDuration":145645,"Delta":13775968},{"NoteNumber":57,"Velocity":90,"Duration":145645,"SoundDuration":145645,"Delta":13775968},{"NoteNumber":72,"Velocity":71,"Duration":299260,"SoundDuration":299260,"Delta":13921613},{"NoteNumber":66,"Velocity":71,"Duration":299260,"SoundDuration":299260,"Delta":13921613},{"NoteNumber":75,"Velocity":84,"Duration":299260,"SoundDuration":299260,"Delta":13921613},{"NoteNumber":48,"Velocity":72,"Duration":148816,"SoundDuration":148816,"Delta":13921613},{"NoteNumber":60,"Velocity":85,"Duration":148816,"SoundDuration":148816,"Delta":13921613},{"NoteNumber":63,"Velocity":82,"Duration":150444,"SoundDuration":150444,"Delta":14070430},{"NoteNumber":44,"Velocity":72,"Duration":150444,"SoundDuration":150444,"Delta":14070430},{"NoteNumber":56,"Velocity":86,"Duration":150444,"SoundDuration":150444,"Delta":14070430},{"NoteNumber":67,"Velocity":72,"Duration":72990,"SoundDuration":72990,"Delta":14220874},{"NoteNumber":72,"Velocity":86,"Duration":72990,"SoundDuration":72990,"Delta":14220874},{"NoteNumber":63,"Velocity":72,"Duration":72990,"SoundDuration":72990,"Delta":14220874},{"NoteNumber":75,"Velocity":86,"Duration":72990,"SoundDuration":72990,"Delta":14220874},{"NoteNumber":43,"Velocity":73,"Duration":72990,"SoundDuration":72990,"Delta":14220874},{"NoteNumber":55,"Velocity":88,"Duration":72990,"SoundDuration":72990,"Delta":14220874},{"NoteNumber":72,"Velocity":86,"Duration":73521,"SoundDuration":73521,"Delta":14367120},{"NoteNumber":63,"Velocity":72,"Duration":73521,"SoundDuration":73521,"Delta":14367120},{"NoteNumber":68,"Velocity":72,"Duration":73521,"SoundDuration":73521,"Delta":14367120},{"NoteNumber":75,"Velocity":86,"Duration":73521,"SoundDuration":73521,"Delta":14367120},{"NoteNumber":42,"Velocity":74,"Duration":73521,"SoundDuration":73521,"Delta":14367120},{"NoteNumber":54,"Velocity":89,"Duration":73521,"SoundDuration":73521,"Delta":14367120},{"NoteNumber":41,"Velocity":75,"Duration":74136,"SoundDuration":74136,"Delta":14514421},{"NoteNumber":53,"Velocity":90,"Duration":74136,"SoundDuration":74136,"Delta":14514421},{"NoteNumber":40,"Velocity":75,"Duration":74664,"SoundDuration":74664,"Delta":14662966},{"NoteNumber":52,"Velocity":91,"Duration":74664,"SoundDuration":74664,"Delta":14662966},{"NoteNumber":39,"Velocity":77,"Duration":75311,"SoundDuration":75311,"Delta":14812669},{"NoteNumber":51,"Velocity":92,"Duration":75311,"SoundDuration":75311,"Delta":14812669},{"NoteNumber":38,"Velocity":78,"Duration":75868,"SoundDuration":75868,"Delta":14963567},{"NoteNumber":50,"Velocity":92,"Duration":75868,"SoundDuration":75868,"Delta":14963567},{"NoteNumber":37,"Velocity":85,"Duration":111995,"SoundDuration":111995,"Delta":15115677},{"NoteNumber":49,"Velocity":101,"Duration":111995,"SoundDuration":111995,"Delta":15115677},{"NoteNumber":77,"Velocity":85,"Duration":298656,"SoundDuration":298656,"Delta":15265005},{"NoteNumber":73,"Velocity":74,"Duration":298656,"SoundDuration":298656,"Delta":15265005},{"NoteNumber":68,"Velocity":72,"Duration":298656,"SoundDuration":298656,"Delta":15265005},{"NoteNumber":49,"Velocity":78,"Duration":111995,"SoundDuration":111995,"Delta":15265005},{"NoteNumber":61,"Velocity":92,"Duration":111995,"SoundDuration":111995,"Delta":15265005},{"NoteNumber":65,"Velocity":82,"Duration":149328,"SoundDuration":149328,"Delta":15414333},{"NoteNumber":49,"Velocity":78,"Duration":111995,"SoundDuration":111995,"Delta":15414333},{"NoteNumber":61,"Velocity":92,"Duration":111995,"SoundDuration":111995,"Delta":15414333},{"NoteNumber":49,"Velocity":81,"Duration":111995,"SoundDuration":111995,"Delta":15563661},{"NoteNumber":61,"Velocity":96,"Duration":111995,"SoundDuration":111995,"Delta":15563661},{"NoteNumber":70,"Velocity":74,"Duration":298656,"SoundDuration":298656,"Delta":15712989},{"NoteNumber":79,"Velocity":88,"Duration":298656,"SoundDuration":298656,"Delta":15712989},{"NoteNumber":75,"Velocity":74,"Duration":298656,"SoundDuration":298656,"Delta":15712989},{"NoteNumber":49,"Velocity":78,"Duration":111996,"SoundDuration":111996,"Delta":15712989},{"NoteNumber":61,"Velocity":92,"Duration":111996,"SoundDuration":111996,"Delta":15712989},{"NoteNumber":67,"Velocity":85,"Duration":149328,"SoundDuration":149328,"Delta":15862317},{"NoteNumber":49,"Velocity":73,"Duration":111996,"SoundDuration":111996,"Delta":15862317},{"NoteNumber":61,"Velocity":86,"Duration":111996,"SoundDuration":111996,"Delta":15862317},{"NoteNumber":48,"Velocity":81,"Duration":146348,"SoundDuration":146348,"Delta":16011645},{"NoteNumber":60,"Velocity":96,"Duration":146348,"SoundDuration":146348,"Delta":16011645},{"NoteNumber":75,"Velocity":74,"Duration":295748,"SoundDuration":295748,"Delta":16157994},{"NoteNumber":72,"Velocity":72,"Duration":295748,"SoundDuration":295748,"Delta":16157994},{"NoteNumber":80,"Velocity":81,"Duration":295748,"SoundDuration":295748,"Delta":16157994},{"NoteNumber":46,"Velocity":78,"Duration":147475,"SoundDuration":147475,"Delta":16157994},{"NoteNumber":58,"Velocity":92,"Duration":147475,"SoundDuration":147475,"Delta":16157994},{"NoteNumber":68,"Velocity":82,"Duration":148273,"SoundDuration":148273,"Delta":16305469},{"NoteNumber":44,"Velocity":78,"Duration":148273,"SoundDuration":148273,"Delta":16305469},{"NoteNumber":56,"Velocity":92,"Duration":148273,"SoundDuration":148273,"Delta":16305469},{"NoteNumber":43,"Velocity":82,"Duration":149072,"SoundDuration":149072,"Delta":16453742},{"NoteNumber":55,"Velocity":97,"Duration":149072,"SoundDuration":149072,"Delta":16453742},{"NoteNumber":72,"Velocity":74,"Duration":298527,"SoundDuration":298527,"Delta":16602815},{"NoteNumber":68,"Velocity":74,"Duration":298527,"SoundDuration":298527,"Delta":16602815},{"NoteNumber":75,"Velocity":84,"Duration":298527,"SoundDuration":298527,"Delta":16602815},{"NoteNumber":41,"Velocity":78,"Duration":149891,"SoundDuration":149891,"Delta":16602815},{"NoteNumber":53,"Velocity":92,"Duration":149891,"SoundDuration":149891,"Delta":16602815},{"NoteNumber":63,"Velocity":85,"Duration":148635,"SoundDuration":148635,"Delta":16752707},{"NoteNumber":39,"Velocity":74,"Duration":148635,"SoundDuration":148635,"Delta":16752707},{"NoteNumber":51,"Velocity":89,"Duration":148635,"SoundDuration":148635,"Delta":16752707},{"NoteNumber":37,"Velocity":85,"Duration":111612,"SoundDuration":111612,"Delta":16901342},{"NoteNumber":49,"Velocity":101,"Duration":111612,"SoundDuration":111612,"Delta":16901342},{"NoteNumber":68,"Velocity":72,"Duration":297633,"SoundDuration":297633,"Delta":17050159},{"NoteNumber":73,"Velocity":74,"Duration":297633,"SoundDuration":297633,"Delta":17050159},{"NoteNumber":77,"Velocity":85,"Duration":297633,"SoundDuration":297633,"Delta":17050159},{"NoteNumber":49,"Velocity":78,"Duration":111612,"SoundDuration":111612,"Delta":17050159},{"NoteNumber":61,"Velocity":92,"Duration":111612,"SoundDuration":111612,"Delta":17050159},{"NoteNumber":65,"Velocity":82,"Duration":148816,"SoundDuration":148816,"Delta":17198976},{"NoteNumber":49,"Velocity":78,"Duration":111612,"SoundDuration":111612,"Delta":17198976},{"NoteNumber":61,"Velocity":92,"Duration":111612,"SoundDuration":111612,"Delta":17198976},{"NoteNumber":49,"Velocity":81,"Duration":111612,"SoundDuration":111612,"Delta":17347793},{"NoteNumber":61,"Velocity":96,"Duration":111612,"SoundDuration":111612,"Delta":17347793},{"NoteNumber":75,"Velocity":74,"Duration":296744,"SoundDuration":296744,"Delta":17496610},{"NoteNumber":79,"Velocity":88,"Duration":296744,"SoundDuration":296744,"Delta":17496610},{"NoteNumber":70,"Velocity":74,"Duration":296744,"SoundDuration":296744,"Delta":17496610},{"NoteNumber":49,"Velocity":78,"Duration":111612,"SoundDuration":111612,"Delta":17496610},{"NoteNumber":61,"Velocity":92,"Duration":111612,"SoundDuration":111612,"Delta":17496610},{"NoteNumber":67,"Velocity":85,"Duration":147927,"SoundDuration":147927,"Delta":17645427},{"NoteNumber":49,"Velocity":73,"Duration":111390,"SoundDuration":111390,"Delta":17645427},{"NoteNumber":61,"Velocity":86,"Duration":111390,"SoundDuration":111390,"Delta":17645427},{"NoteNumber":48,"Velocity":81,"Duration":146598,"SoundDuration":146598,"Delta":17793355},{"NoteNumber":60,"Velocity":96,"Duration":146598,"SoundDuration":146598,"Delta":17793355},{"NoteNumber":80,"Velocity":81,"Duration":296286,"SoundDuration":296286,"Delta":17939953},{"NoteNumber":75,"Velocity":74,"Duration":296286,"SoundDuration":296286,"Delta":17939953},{"NoteNumber":72,"Velocity":72,"Duration":296286,"SoundDuration":296286,"Delta":17939953},{"NoteNumber":46,"Velocity":78,"Duration":147650,"SoundDuration":147650,"Delta":17939953},{"NoteNumber":58,"Velocity":92,"Duration":147650,"SoundDuration":147650,"Delta":17939953},{"NoteNumber":68,"Velocity":82,"Duration":148635,"SoundDuration":148635,"Delta":18087604},{"NoteNumber":44,"Velocity":78,"Duration":148635,"SoundDuration":148635,"Delta":18087604},{"NoteNumber":56,"Velocity":92,"Duration":148635,"SoundDuration":148635,"Delta":18087604},{"NoteNumber":43,"Velocity":82,"Duration":149611,"SoundDuration":149611,"Delta":18236240},{"NoteNumber":55,"Velocity":97,"Duration":149611,"SoundDuration":149611,"Delta":18236240},{"NoteNumber":72,"Velocity":68,"Duration":301711,"SoundDuration":301711,"Delta":18385851},{"NoteNumber":79,"Velocity":84,"Duration":301711,"SoundDuration":301711,"Delta":18385851},{"NoteNumber":75,"Velocity":71,"Duration":301711,"SoundDuration":301711,"Delta":18385851},{"NoteNumber":41,"Velocity":78,"Duration":150712,"SoundDuration":150712,"Delta":18385851},{"NoteNumber":53,"Velocity":92,"Duration":150712,"SoundDuration":150712,"Delta":18385851},{"NoteNumber":67,"Velocity":85,"Duration":150998,"SoundDuration":150998,"Delta":18536564},{"NoteNumber":39,"Velocity":74,"Duration":150998,"SoundDuration":150998,"Delta":18536564},{"NoteNumber":51,"Velocity":89,"Duration":150998,"SoundDuration":150998,"Delta":18536564},{"NoteNumber":38,"Velocity":77,"Duration":148817,"SoundDuration":148817,"Delta":18687563},{"NoteNumber":50,"Velocity":90,"Duration":148817,"SoundDuration":148817,"Delta":18687563},{"NoteNumber":68,"Velocity":64,"Duration":297633,"SoundDuration":297633,"Delta":18836380},{"NoteNumber":74,"Velocity":67,"Duration":297633,"SoundDuration":297633,"Delta":18836380},{"NoteNumber":77,"Velocity":77,"Duration":297633,"SoundDuration":297633,"Delta":18836380},{"NoteNumber":48,"Velocity":69,"Duration":111612,"SoundDuration":111612,"Delta":18836380},{"NoteNumber":60,"Velocity":82,"Duration":111612,"SoundDuration":111612,"Delta":18836380},{"NoteNumber":65,"Velocity":73,"Duration":148817,"SoundDuration":148817,"Delta":18985197},{"NoteNumber":48,"Velocity":69,"Duration":111612,"SoundDuration":111612,"Delta":18985197},{"NoteNumber":60,"Velocity":82,"Duration":111612,"SoundDuration":111612,"Delta":18985197},{"NoteNumber":48,"Velocity":72,"Duration":111612,"SoundDuration":111612,"Delta":19134014},{"NoteNumber":60,"Velocity":86,"Duration":111612,"SoundDuration":111612,"Delta":19134014},{"NoteNumber":78,"Velocity":79,"Duration":297633,"SoundDuration":297633,"Delta":19282831},{"NoteNumber":74,"Velocity":67,"Duration":297633,"SoundDuration":297633,"Delta":19282831},{"NoteNumber":69,"Velocity":67,"Duration":297633,"SoundDuration":297633,"Delta":19282831},{"NoteNumber":48,"Velocity":69,"Duration":111612,"SoundDuration":111612,"Delta":19282831},{"NoteNumber":60,"Velocity":82,"Duration":111612,"SoundDuration":111612,"Delta":19282831},{"NoteNumber":66,"Velocity":77,"Duration":148817,"SoundDuration":148817,"Delta":19431648},{"NoteNumber":48,"Velocity":66,"Duration":111612,"SoundDuration":111612,"Delta":19431648},{"NoteNumber":60,"Velocity":78,"Duration":111612,"SoundDuration":111612,"Delta":19431648},{"NoteNumber":46,"Velocity":72,"Duration":145728,"SoundDuration":145728,"Delta":19580465},{"NoteNumber":58,"Velocity":86,"Duration":145728,"SoundDuration":145728,"Delta":19580465},{"NoteNumber":74,"Velocity":67,"Duration":293372,"SoundDuration":293372,"Delta":19726194},{"NoteNumber":79,"Velocity":72,"Duration":293372,"SoundDuration":293372,"Delta":19726194},{"NoteNumber":70,"Velocity":64,"Duration":293372,"SoundDuration":293372,"Delta":19726194},{"NoteNumber":45,"Velocity":69,"Duration":146329,"SoundDuration":146329,"Delta":19726194},{"NoteNumber":57,"Velocity":82,"Duration":146329,"SoundDuration":146329,"Delta":19726194},{"NoteNumber":67,"Velocity":73,"Duration":147042,"SoundDuration":147042,"Delta":19872524},{"NoteNumber":43,"Velocity":69,"Duration":147042,"SoundDuration":147042,"Delta":19872524},{"NoteNumber":55,"Velocity":82,"Duration":147042,"SoundDuration":147042,"Delta":19872524},{"NoteNumber":39,"Velocity":73,"Duration":147736,"SoundDuration":147736,"Delta":20019566},{"NoteNumber":51,"Velocity":88,"Duration":147736,"SoundDuration":147736,"Delta":20019566},{"NoteNumber":72,"Velocity":75,"Duration":297611,"SoundDuration":297611,"Delta":20167303},{"NoteNumber":67,"Velocity":67,"Duration":297611,"SoundDuration":297611,"Delta":20167303},{"NoteNumber":69,"Velocity":67,"Duration":297611,"SoundDuration":297611,"Delta":20167303},{"NoteNumber":38,"Velocity":69,"Duration":148453,"SoundDuration":148453,"Delta":20167303},{"NoteNumber":50,"Velocity":82,"Duration":148453,"SoundDuration":148453,"Delta":20167303},{"NoteNumber":60,"Velocity":77,"Duration":149157,"SoundDuration":149157,"Delta":20315757},{"NoteNumber":36,"Velocity":67,"Duration":149157,"SoundDuration":149157,"Delta":20315757},{"NoteNumber":48,"Velocity":79,"Duration":149157,"SoundDuration":149157,"Delta":20315757},{"NoteNumber":34,"Velocity":86,"Duration":300944,"SoundDuration":300944,"Delta":20464914},{"NoteNumber":46,"Velocity":86,"Duration":300944,"SoundDuration":300944,"Delta":20464914},{"NoteNumber":67,"Velocity":64,"Duration":296544,"SoundDuration":296544,"Delta":20617586},{"NoteNumber":74,"Velocity":77,"Duration":296544,"SoundDuration":296544,"Delta":20617586},{"NoteNumber":70,"Velocity":69,"Duration":296544,"SoundDuration":296544,"Delta":20617586},{"NoteNumber":62,"Velocity":73,"Duration":148272,"SoundDuration":148272,"Delta":20765859},{"NoteNumber":39,"Velocity":86,"Duration":301333,"SoundDuration":301333,"Delta":20914131},{"NoteNumber":51,"Velocity":86,"Duration":301333,"SoundDuration":301333,"Delta":20914131},{"NoteNumber":63,"Velocity":67,"Duration":297633,"SoundDuration":297633,"Delta":21066648},{"NoteNumber":58,"Velocity":67,"Duration":297633,"SoundDuration":297633,"Delta":21066648},{"NoteNumber":67,"Velocity":75,"Duration":297633,"SoundDuration":297633,"Delta":21066648},{"NoteNumber":55,"Velocity":77,"Duration":148816,"SoundDuration":148816,"Delta":21215465},{"NoteNumber":33,"Velocity":86,"Duration":301252,"SoundDuration":301252,"Delta":21364282},{"NoteNumber":45,"Velocity":86,"Duration":301252,"SoundDuration":301252,"Delta":21364282},{"NoteNumber":72,"Velocity":77,"Duration":299026,"SoundDuration":299026,"Delta":21515836},{"NoteNumber":67,"Velocity":69,"Duration":299026,"SoundDuration":299026,"Delta":21515836},{"NoteNumber":63,"Velocity":64,"Duration":299026,"SoundDuration":299026,"Delta":21515836},{"NoteNumber":60,"Velocity":73,"Duration":149328,"SoundDuration":149328,"Delta":21665534},{"NoteNumber":38,"Velocity":86,"Duration":302566,"SoundDuration":302566,"Delta":21814862},{"NoteNumber":50,"Velocity":86,"Duration":302566,"SoundDuration":302566,"Delta":21814862},{"NoteNumber":66,"Velocity":67,"Duration":149895,"SoundDuration":149895,"Delta":21967534},{"NoteNumber":70,"Velocity":70,"Duration":149895,"SoundDuration":149895,"Delta":21967534},{"NoteNumber":69,"Velocity":77,"Duration":149895,"SoundDuration":149895,"Delta":22117429},{"NoteNumber":60,"Velocity":77,"Duration":149895,"SoundDuration":149895,"Delta":22117429},{"NoteNumber":37,"Velocity":85,"Duration":112421,"SoundDuration":112421,"Delta":22267324},{"NoteNumber":49,"Velocity":101,"Duration":112421,"SoundDuration":112421,"Delta":22267324},{"NoteNumber":73,"Velocity":74,"Duration":299790,"SoundDuration":299790,"Delta":22417219},{"NoteNumber":68,"Velocity":72,"Duration":299790,"SoundDuration":299790,"Delta":22417219},{"NoteNumber":77,"Velocity":85,"Duration":299790,"SoundDuration":299790,"Delta":22417219},{"NoteNumber":49,"Velocity":78,"Duration":112421,"SoundDuration":112421,"Delta":22417219},{"NoteNumber":61,"Velocity":92,"Duration":112421,"SoundDuration":112421,"Delta":22417219},{"NoteNumber":65,"Velocity":82,"Duration":149895,"SoundDuration":149895,"Delta":22567114},{"NoteNumber":49,"Velocity":78,"Duration":112421,"SoundDuration":112421,"Delta":22567114},{"NoteNumber":61,"Velocity":92,"Duration":112421,"SoundDuration":112421,"Delta":22567114},{"NoteNumber":49,"Velocity":81,"Duration":112421,"SoundDuration":112421,"Delta":22717009},{"NoteNumber":61,"Velocity":96,"Duration":112421,"SoundDuration":112421,"Delta":22717009},{"NoteNumber":75,"Velocity":74,"Duration":299789,"SoundDuration":299789,"Delta":22866904},{"NoteNumber":70,"Velocity":74,"Duration":299789,"SoundDuration":299789,"Delta":22866904},{"NoteNumber":79,"Velocity":88,"Duration":299789,"SoundDuration":299789,"Delta":22866904},{"NoteNumber":49,"Velocity":78,"Duration":112421,"SoundDuration":112421,"Delta":22866904},{"NoteNumber":61,"Velocity":92,"Duration":112421,"SoundDuration":112421,"Delta":22866904},{"NoteNumber":67,"Velocity":85,"Duration":149894,"SoundDuration":149894,"Delta":23016799},{"NoteNumber":49,"Velocity":73,"Duration":112421,"SoundDuration":112421,"Delta":23016799},{"NoteNumber":61,"Velocity":86,"Duration":112421,"SoundDuration":112421,"Delta":23016799},{"NoteNumber":48,"Velocity":81,"Duration":147303,"SoundDuration":147303,"Delta":23166694},{"NoteNumber":60,"Velocity":96,"Duration":147303,"SoundDuration":147303,"Delta":23166694},{"NoteNumber":72,"Velocity":72,"Duration":296457,"SoundDuration":296457,"Delta":23313998},{"NoteNumber":75,"Velocity":74,"Duration":296457,"SoundDuration":296457,"Delta":23313998},{"NoteNumber":80,"Velocity":81,"Duration":296457,"SoundDuration":296457,"Delta":23313998},{"NoteNumber":46,"Velocity":78,"Duration":147912,"SoundDuration":147912,"Delta":23313998},{"NoteNumber":58,"Velocity":92,"Duration":147912,"SoundDuration":147912,"Delta":23313998},{"NoteNumber":68,"Velocity":82,"Duration":148544,"SoundDuration":148544,"Delta":23461910},{"NoteNumber":44,"Velocity":78,"Duration":148544,"SoundDuration":148544,"Delta":23461910},{"NoteNumber":56,"Velocity":92,"Duration":148544,"SoundDuration":148544,"Delta":23461910},{"NoteNumber":43,"Velocity":82,"Duration":149242,"SoundDuration":149242,"Delta":23610455},{"NoteNumber":55,"Velocity":97,"Duration":149242,"SoundDuration":149242,"Delta":23610455},{"NoteNumber":72,"Velocity":74,"Duration":300699,"SoundDuration":300699,"Delta":23759698},{"NoteNumber":75,"Velocity":84,"Duration":300699,"SoundDuration":300699,"Delta":23759698},{"NoteNumber":68,"Velocity":74,"Duration":300699,"SoundDuration":300699,"Delta":23759698},{"NoteNumber":41,"Velocity":78,"Duration":149986,"SoundDuration":149986,"Delta":23759698},{"NoteNumber":53,"Velocity":92,"Duration":149986,"SoundDuration":149986,"Delta":23759698},{"NoteNumber":63,"Velocity":85,"Duration":150712,"SoundDuration":150712,"Delta":23909684},{"NoteNumber":39,"Velocity":74,"Duration":150712,"SoundDuration":150712,"Delta":23909684},{"NoteNumber":51,"Velocity":89,"Duration":150712,"SoundDuration":150712,"Delta":23909684},{"NoteNumber":37,"Velocity":85,"Duration":112832,"SoundDuration":112832,"Delta":24060397},{"NoteNumber":49,"Velocity":101,"Duration":112832,"SoundDuration":112832,"Delta":24060397},{"NoteNumber":68,"Velocity":72,"Duration":300888,"SoundDuration":300888,"Delta":24210841},{"NoteNumber":73,"Velocity":74,"Duration":300888,"SoundDuration":300888,"Delta":24210841},{"NoteNumber":77,"Velocity":85,"Duration":300888,"SoundDuration":300888,"Delta":24210841},{"NoteNumber":49,"Velocity":78,"Duration":112832,"SoundDuration":112832,"Delta":24210841},{"NoteNumber":61,"Velocity":92,"Duration":112832,"SoundDuration":112832,"Delta":24210841},{"NoteNumber":65,"Velocity":82,"Duration":150444,"SoundDuration":150444,"Delta":24361285},{"NoteNumber":49,"Velocity":78,"Duration":112832,"SoundDuration":112832,"Delta":24361285},{"NoteNumber":61,"Velocity":92,"Duration":112832,"SoundDuration":112832,"Delta":24361285},{"NoteNumber":49,"Velocity":81,"Duration":112832,"SoundDuration":112832,"Delta":24511729},{"NoteNumber":61,"Velocity":96,"Duration":112832,"SoundDuration":112832,"Delta":24511729},{"NoteNumber":79,"Velocity":88,"Duration":300888,"SoundDuration":300888,"Delta":24662173},{"NoteNumber":75,"Velocity":74,"Duration":300888,"SoundDuration":300888,"Delta":24662173},{"NoteNumber":70,"Velocity":74,"Duration":300888,"SoundDuration":300888,"Delta":24662173},{"NoteNumber":49,"Velocity":78,"Duration":112832,"SoundDuration":112832,"Delta":24662173},{"NoteNumber":61,"Velocity":92,"Duration":112832,"SoundDuration":112832,"Delta":24662173},{"NoteNumber":67,"Velocity":85,"Duration":150444,"SoundDuration":150444,"Delta":24812617},{"NoteNumber":49,"Velocity":73,"Duration":112832,"SoundDuration":112832,"Delta":24812617},{"NoteNumber":61,"Velocity":86,"Duration":112832,"SoundDuration":112832,"Delta":24812617},{"NoteNumber":48,"Velocity":81,"Duration":146239,"SoundDuration":146239,"Delta":24963061},{"NoteNumber":60,"Velocity":96,"Duration":146239,"SoundDuration":146239,"Delta":24963061},{"NoteNumber":75,"Velocity":74,"Duration":294691,"SoundDuration":294691,"Delta":25109301},{"NoteNumber":80,"Velocity":81,"Duration":294691,"SoundDuration":294691,"Delta":25109301},{"NoteNumber":72,"Velocity":72,"Duration":294691,"SoundDuration":294691,"Delta":25109301},{"NoteNumber":46,"Velocity":78,"Duration":146954,"SoundDuration":146954,"Delta":25109301},{"NoteNumber":58,"Velocity":92,"Duration":146954,"SoundDuration":146954,"Delta":25109301},{"NoteNumber":68,"Velocity":82,"Duration":147736,"SoundDuration":147736,"Delta":25256255},{"NoteNumber":44,"Velocity":78,"Duration":147736,"SoundDuration":147736,"Delta":25256255},{"NoteNumber":56,"Velocity":92,"Duration":147736,"SoundDuration":147736,"Delta":25256255},{"NoteNumber":43,"Velocity":82,"Duration":148544,"SoundDuration":148544,"Delta":25403992},{"NoteNumber":55,"Velocity":97,"Duration":148544,"SoundDuration":148544,"Delta":25403992},{"NoteNumber":72,"Velocity":66,"Duration":299506,"SoundDuration":299506,"Delta":25552537},{"NoteNumber":75,"Velocity":67,"Duration":299506,"SoundDuration":299506,"Delta":25552537},{"NoteNumber":79,"Velocity":84,"Duration":299506,"SoundDuration":299506,"Delta":25552537},{"NoteNumber":41,"Velocity":78,"Duration":149337,"SoundDuration":149337,"Delta":25552537},{"NoteNumber":53,"Velocity":92,"Duration":149337,"SoundDuration":149337,"Delta":25552537},{"NoteNumber":67,"Velocity":85,"Duration":150169,"SoundDuration":150169,"Delta":25701874},{"NoteNumber":39,"Velocity":74,"Duration":150169,"SoundDuration":150169,"Delta":25701874},{"NoteNumber":51,"Velocity":89,"Duration":150169,"SoundDuration":150169,"Delta":25701874},{"NoteNumber":38,"Velocity":77,"Duration":150444,"SoundDuration":150444,"Delta":25852044},{"NoteNumber":50,"Velocity":90,"Duration":150444,"SoundDuration":150444,"Delta":25852044},{"NoteNumber":68,"Velocity":64,"Duration":300888,"SoundDuration":300888,"Delta":26002488},{"NoteNumber":74,"Velocity":67,"Duration":300888,"SoundDuration":300888,"Delta":26002488},{"NoteNumber":77,"Velocity":77,"Duration":300888,"SoundDuration":300888,"Delta":26002488},{"NoteNumber":48,"Velocity":69,"Duration":112832,"SoundDuration":112832,"Delta":26002488},{"NoteNumber":60,"Velocity":82,"Duration":112832,"SoundDuration":112832,"Delta":26002488},{"NoteNumber":65,"Velocity":73,"Duration":150444,"SoundDuration":150444,"Delta":26152932},{"NoteNumber":48,"Velocity":69,"Duration":112832,"SoundDuration":112832,"Delta":26152932},{"NoteNumber":60,"Velocity":82,"Duration":112832,"SoundDuration":112832,"Delta":26152932},{"NoteNumber":48,"Velocity":72,"Duration":112832,"SoundDuration":112832,"Delta":26303376},{"NoteNumber":60,"Velocity":86,"Duration":112832,"SoundDuration":112832,"Delta":26303376},{"NoteNumber":74,"Velocity":67,"Duration":300888,"SoundDuration":300888,"Delta":26453820},{"NoteNumber":69,"Velocity":67,"Duration":300888,"SoundDuration":300888,"Delta":26453820},{"NoteNumber":78,"Velocity":79,"Duration":300888,"SoundDuration":300888,"Delta":26453820},{"NoteNumber":48,"Velocity":69,"Duration":112832,"SoundDuration":112832,"Delta":26453820},{"NoteNumber":60,"Velocity":82,"Duration":112832,"SoundDuration":112832,"Delta":26453820},{"NoteNumber":66,"Velocity":77,"Duration":150444,"SoundDuration":150444,"Delta":26604264},{"NoteNumber":48,"Velocity":66,"Duration":112832,"SoundDuration":112832,"Delta":26604264},{"NoteNumber":60,"Velocity":78,"Duration":112832,"SoundDuration":112832,"Delta":26604264},{"NoteNumber":46,"Velocity":72,"Duration":147217,"SoundDuration":147217,"Delta":26754708},{"NoteNumber":58,"Velocity":86,"Duration":147217,"SoundDuration":147217,"Delta":26754708},{"NoteNumber":74,"Velocity":67,"Duration":296276,"SoundDuration":296276,"Delta":26901925},{"NoteNumber":79,"Velocity":72,"Duration":296276,"SoundDuration":296276,"Delta":26901925},{"NoteNumber":70,"Velocity":64,"Duration":296276,"SoundDuration":296276,"Delta":26901925},{"NoteNumber":45,"Velocity":69,"Duration":147822,"SoundDuration":147822,"Delta":26901925},{"NoteNumber":57,"Velocity":82,"Duration":147822,"SoundDuration":147822,"Delta":26901925},{"NoteNumber":67,"Velocity":73,"Duration":148453,"SoundDuration":148453,"Delta":27049748},{"NoteNumber":43,"Velocity":69,"Duration":148453,"SoundDuration":148453,"Delta":27049748},{"NoteNumber":55,"Velocity":82,"Duration":148453,"SoundDuration":148453,"Delta":27049748},{"NoteNumber":39,"Velocity":73,"Duration":148987,"SoundDuration":148987,"Delta":27198202},{"NoteNumber":51,"Velocity":88,"Duration":148987,"SoundDuration":148987,"Delta":27198202},{"NoteNumber":72,"Velocity":75,"Duration":299872,"SoundDuration":299872,"Delta":27347189},{"NoteNumber":67,"Velocity":67,"Duration":299872,"SoundDuration":299872,"Delta":27347189},{"NoteNumber":69,"Velocity":67,"Duration":299872,"SoundDuration":299872,"Delta":27347189},{"NoteNumber":38,"Velocity":69,"Duration":149611,"SoundDuration":149611,"Delta":27347189},{"NoteNumber":50,"Velocity":82,"Duration":149611,"SoundDuration":149611,"Delta":27347189},{"NoteNumber":60,"Velocity":77,"Duration":150261,"SoundDuration":150261,"Delta":27496800},{"NoteNumber":36,"Velocity":67,"Duration":150261,"SoundDuration":150261,"Delta":27496800},{"NoteNumber":48,"Velocity":79,"Duration":150261,"SoundDuration":150261,"Delta":27496800},{"NoteNumber":34,"Velocity":86,"Duration":301438,"SoundDuration":301438,"Delta":27647061},{"NoteNumber":46,"Velocity":86,"Duration":301438,"SoundDuration":301438,"Delta":27647061},{"NoteNumber":70,"Velocity":69,"Duration":294059,"SoundDuration":294059,"Delta":27801470},{"NoteNumber":74,"Velocity":77,"Duration":294059,"SoundDuration":294059,"Delta":27801470},{"NoteNumber":67,"Velocity":64,"Duration":294059,"SoundDuration":294059,"Delta":27801470},{"NoteNumber":62,"Velocity":73,"Duration":147029,"SoundDuration":147029,"Delta":27948500},{"NoteNumber":39,"Velocity":86,"Duration":298583,"SoundDuration":298583,"Delta":28095530},{"NoteNumber":51,"Velocity":86,"Duration":298583,"SoundDuration":298583,"Delta":28095530},{"NoteNumber":63,"Velocity":67,"Duration":294060,"SoundDuration":294060,"Delta":28247083},{"NoteNumber":58,"Velocity":67,"Duration":294060,"SoundDuration":294060,"Delta":28247083},{"NoteNumber":67,"Velocity":75,"Duration":294060,"SoundDuration":294060,"Delta":28247083},{"NoteNumber":55,"Velocity":77,"Duration":147030,"SoundDuration":147030,"Delta":28394113},{"NoteNumber":33,"Velocity":86,"Duration":299016,"SoundDuration":299016,"Delta":28541143},{"NoteNumber":45,"Velocity":86,"Duration":299016,"SoundDuration":299016,"Delta":28541143},{"NoteNumber":67,"Velocity":69,"Duration":294927,"SoundDuration":294927,"Delta":28692697},{"NoteNumber":63,"Velocity":64,"Duration":294927,"SoundDuration":294927,"Delta":28692697},{"NoteNumber":72,"Velocity":77,"Duration":294927,"SoundDuration":294927,"Delta":28692697},{"NoteNumber":60,"Velocity":73,"Duration":147463,"SoundDuration":147463,"Delta":28840160},{"NoteNumber":38,"Velocity":86,"Duration":300370,"SoundDuration":300370,"Delta":28987624},{"NoteNumber":50,"Velocity":86,"Duration":300370,"SoundDuration":300370,"Delta":28987624},{"NoteNumber":70,"Velocity":70,"Duration":148817,"SoundDuration":148817,"Delta":29139177},{"NoteNumber":66,"Velocity":67,"Duration":148817,"SoundDuration":148817,"Delta":29139177},{"NoteNumber":69,"Velocity":77,"Duration":148816,"SoundDuration":148816,"Delta":29287994},{"NoteNumber":60,"Velocity":77,"Duration":148816,"SoundDuration":148816,"Delta":29287994},{"NoteNumber":34,"Velocity":86,"Duration":297587,"SoundDuration":297587,"Delta":29436811},{"NoteNumber":46,"Velocity":86,"Duration":297587,"SoundDuration":297587,"Delta":29436811},{"NoteNumber":74,"Velocity":77,"Duration":293212,"SoundDuration":293212,"Delta":29587793},{"NoteNumber":67,"Velocity":64,"Duration":293212,"SoundDuration":293212,"Delta":29587793},{"NoteNumber":70,"Velocity":69,"Duration":293212,"SoundDuration":293212,"Delta":29587793},{"NoteNumber":62,"Velocity":73,"Duration":146606,"SoundDuration":146606,"Delta":29734399},{"NoteNumber":39,"Velocity":86,"Duration":299016,"SoundDuration":299016,"Delta":29881005},{"NoteNumber":51,"Velocity":86,"Duration":299016,"SoundDuration":299016,"Delta":29881005},{"NoteNumber":58,"Velocity":67,"Duration":294927,"SoundDuration":294927,"Delta":30032558},{"NoteNumber":67,"Velocity":75,"Duration":294927,"SoundDuration":294927,"Delta":30032558},{"NoteNumber":63,"Velocity":67,"Duration":294927,"SoundDuration":294927,"Delta":30032558},{"NoteNumber":55,"Velocity":77,"Duration":147463,"SoundDuration":147463,"Delta":30180022},{"NoteNumber":33,"Velocity":86,"Duration":463853,"SoundDuration":463853,"Delta":30327485},{"NoteNumber":45,"Velocity":86,"Duration":463853,"SoundDuration":463853,"Delta":30327485},{"NoteNumber":67,"Velocity":69,"Duration":151898,"SoundDuration":151898,"Delta":30481300},{"NoteNumber":63,"Velocity":64,"Duration":151898,"SoundDuration":151898,"Delta":30481300},{"NoteNumber":72,"Velocity":77,"Duration":310039,"SoundDuration":310039,"Delta":30481300},{"NoteNumber":66,"Velocity":73,"Duration":158140,"SoundDuration":158140,"Delta":30633198},{"NoteNumber":60,"Velocity":73,"Duration":158140,"SoundDuration":158140,"Delta":30633198},{"NoteNumber":46,"Velocity":81,"Duration":168067,"SoundDuration":168067,"Delta":30791339},{"NoteNumber":34,"Velocity":68,"Duration":168067,"SoundDuration":168067,"Delta":30791339},{"NoteNumber":67,"Velocity":75,"Duration":351552,"SoundDuration":351552,"Delta":30959406},{"NoteNumber":58,"Velocity":67,"Duration":351552,"SoundDuration":351552,"Delta":30959406},{"NoteNumber":63,"Velocity":67,"Duration":351552,"SoundDuration":351552,"Delta":30959406},{"NoteNumber":33,"Velocity":70,"Duration":168067,"SoundDuration":168067,"Delta":30959406},{"NoteNumber":45,"Velocity":84,"Duration":168067,"SoundDuration":168067,"Delta":30959406},{"NoteNumber":55,"Velocity":77,"Duration":183485,"SoundDuration":183485,"Delta":31127473},{"NoteNumber":31,"Velocity":68,"Duration":45871,"SoundDuration":45871,"Delta":31219216},{"NoteNumber":43,"Velocity":81,"Duration":45871,"SoundDuration":45871,"Delta":31219216},{"NoteNumber":31,"Velocity":77,"Duration":630615,"SoundDuration":630615,"Delta":31310959},{"NoteNumber":43,"Velocity":92,"Duration":630615,"SoundDuration":630615,"Delta":31310959},{"NoteNumber":60,"Velocity":62,"Duration":617836,"SoundDuration":617836,"Delta":31475253},{"NoteNumber":63,"Velocity":75,"Duration":310880,"SoundDuration":310880,"Delta":31475253},{"NoteNumber":57,"Velocity":73,"Duration":466321,"SoundDuration":466321,"Delta":31475253},{"NoteNumber":51,"Velocity":70,"Duration":155440,"SoundDuration":155440,"Delta":31630693},{"NoteNumber":50,"Velocity":70,"Duration":155440,"SoundDuration":155440,"Delta":31786134},{"NoteNumber":62,"Velocity":70,"Duration":306955,"SoundDuration":306955,"Delta":31786134},{"NoteNumber":30,"Velocity":70,"Duration":151515,"SoundDuration":151515,"Delta":31941574},{"NoteNumber":42,"Velocity":84,"Duration":151515,"SoundDuration":151515,"Delta":31941574},{"NoteNumber":33,"Velocity":67,"Duration":113636,"SoundDuration":113636,"Delta":32093089},{"NoteNumber":45,"Velocity":80,"Duration":113636,"SoundDuration":113636,"Delta":32093089},{"NoteNumber":33,"Velocity":70,"Duration":593775,"SoundDuration":593775,"Delta":32244604},{"NoteNumber":45,"Velocity":84,"Duration":593775,"SoundDuration":593775,"Delta":32244604},{"NoteNumber":63,"Velocity":62,"Duration":591587,"SoundDuration":591587,"Delta":32396119},{"NoteNumber":60,"Velocity":73,"Duration":147419,"SoundDuration":147419,"Delta":32396119},{"NoteNumber":66,"Velocity":75,"Duration":294840,"SoundDuration":294840,"Delta":32396119},{"NoteNumber":54,"Velocity":68,"Duration":147420,"SoundDuration":147420,"Delta":32543539},{"NoteNumber":67,"Velocity":74,"Duration":296747,"SoundDuration":296747,"Delta":32690959},{"NoteNumber":55,"Velocity":71,"Duration":296747,"SoundDuration":296747,"Delta":32690959},{"NoteNumber":34,"Velocity":73,"Duration":149327,"SoundDuration":149327,"Delta":32838379},{"NoteNumber":46,"Velocity":89,"Duration":149327,"SoundDuration":149327,"Delta":32838379},{"NoteNumber":31,"Velocity":73,"Duration":149328,"SoundDuration":149328,"Delta":32987707},{"NoteNumber":43,"Velocity":88,"Duration":149328,"SoundDuration":149328,"Delta":32987707},{"NoteNumber":33,"Velocity":75,"Duration":586624,"SoundDuration":586624,"Delta":33137035},{"NoteNumber":45,"Velocity":91,"Duration":586624,"SoundDuration":586624,"Delta":33137035},{"NoteNumber":66,"Velocity":82,"Duration":291530,"SoundDuration":291530,"Delta":33286363},{"NoteNumber":63,"Velocity":68,"Duration":585613,"SoundDuration":585613,"Delta":33286363},{"NoteNumber":60,"Velocity":80,"Duration":145765,"SoundDuration":145765,"Delta":33286363},{"NoteNumber":54,"Velocity":75,"Duration":145765,"SoundDuration":145765,"Delta":33432129},{"NoteNumber":55,"Velocity":79,"Duration":294082,"SoundDuration":294082,"Delta":33577894},{"NoteNumber":67,"Velocity":82,"Duration":294082,"SoundDuration":294082,"Delta":33577894},{"NoteNumber":34,"Velocity":81,"Duration":148316,"SoundDuration":148316,"Delta":33723660},{"NoteNumber":46,"Velocity":97,"Duration":148316,"SoundDuration":148316,"Delta":33723660},{"NoteNumber":31,"Velocity":81,"Duration":148316,"SoundDuration":148316,"Delta":33871976},{"NoteNumber":43,"Velocity":96,"Duration":148316,"SoundDuration":148316,"Delta":33871976},{"NoteNumber":33,"Velocity":84,"Duration":586849,"SoundDuration":586849,"Delta":34020293},{"NoteNumber":45,"Velocity":101,"Duration":586849,"SoundDuration":586849,"Delta":34020293},{"NoteNumber":75,"Velocity":75,"Duration":613193,"SoundDuration":613193,"Delta":34168609},{"NoteNumber":78,"Velocity":92,"Duration":292355,"SoundDuration":292355,"Delta":34168609},{"NoteNumber":72,"Velocity":89,"Duration":146177,"SoundDuration":146177,"Delta":34168609},{"NoteNumber":66,"Velocity":82,"Duration":146177,"SoundDuration":146177,"Delta":34314787},{"NoteNumber":79,"Velocity":90,"Duration":320838,"SoundDuration":320838,"Delta":34460964},{"NoteNumber":67,"Velocity":85,"Duration":320838,"SoundDuration":320838,"Delta":34460964},{"NoteNumber":34,"Velocity":90,"Duration":174661,"SoundDuration":174661,"Delta":34607142},{"NoteNumber":46,"Velocity":107,"Duration":174661,"SoundDuration":174661,"Delta":34607142},{"NoteNumber":31,"Velocity":89,"Duration":186834,"SoundDuration":186834,"Delta":34781803},{"NoteNumber":43,"Velocity":105,"Duration":186834,"SoundDuration":186834,"Delta":34781803},{"NoteNumber":82,"Velocity":91,"Duration":373668,"SoundDuration":373668,"Delta":34968638},{"NoteNumber":87,"Velocity":107,"Duration":373668,"SoundDuration":373668,"Delta":34968638},{"NoteNumber":79,"Velocity":91,"Duration":373668,"SoundDuration":373668,"Delta":34968638},{"NoteNumber":91,"Velocity":107,"Duration":373668,"SoundDuration":373668,"Delta":34968638},{"NoteNumber":25,"Velocity":92,"Duration":373668,"SoundDuration":373668,"Delta":34968638},{"NoteNumber":37,"Velocity":110,"Duration":373668,"SoundDuration":373668,"Delta":34968638},{"NoteNumber":70,"Velocity":101,"Duration":548512,"SoundDuration":548512,"Delta":36089645},{"NoteNumber":62,"Velocity":85,"Duration":548512,"SoundDuration":548512,"Delta":36089645},{"NoteNumber":67,"Velocity":85,"Duration":548512,"SoundDuration":548512,"Delta":36089645},{"NoteNumber":74,"Velocity":101,"Duration":548512,"SoundDuration":548512,"Delta":36089645},{"NoteNumber":26,"Velocity":75,"Duration":548512,"SoundDuration":548512,"Delta":36089645},{"NoteNumber":38,"Velocity":90,"Duration":548512,"SoundDuration":548512,"Delta":36089645},{"NoteNumber":66,"Velocity":97,"Duration":515964,"SoundDuration":515964,"Delta":36638157},{"NoteNumber":62,"Velocity":97,"Duration":515964,"SoundDuration":515964,"Delta":36638157},{"NoteNumber":54,"Velocity":82,"Duration":515964,"SoundDuration":515964,"Delta":36638157},{"NoteNumber":60,"Velocity":82,"Duration":515964,"SoundDuration":515964,"Delta":36638157},{"NoteNumber":38,"Velocity":68,"Duration":430289,"SoundDuration":430289,"Delta":36638157},{"NoteNumber":45,"Velocity":81,"Duration":430289,"SoundDuration":430289,"Delta":36638157},{"NoteNumber":50,"Velocity":81,"Duration":430289,"SoundDuration":430289,"Delta":36638157},{"NoteNumber":31,"Velocity":105,"Duration":85675,"SoundDuration":85675,"Delta":37068447},{"NoteNumber":43,"Velocity":68,"Duration":1586095,"SoundDuration":1586095,"Delta":37154122},{"NoteNumber":50,"Velocity":75,"Duration":1563240,"SoundDuration":1563240,"Delta":37176976},{"NoteNumber":55,"Velocity":73,"Duration":1540386,"SoundDuration":1540386,"Delta":37199831},{"NoteNumber":58,"Velocity":80,"Duration":1517531,"SoundDuration":1517531,"Delta":37222686},{"NoteNumber":62,"Velocity":96,"Duration":1494676,"SoundDuration":1494676,"Delta":37245540},{"NoteNumber":67,"Velocity":105,"Duration":1471822,"SoundDuration":1471822,"Delta":37268395}],"license":{"name":"Creative Commons Attribution-ShareAlike 3.0 Germany","url":"http://creativecommons.org/licenses/by-sa/3.0/de/deed.en","text":"The MIDI, audio (MP3, OGG) and video files of Bernd Krueger are licensed under the cc-by-sa Germany License. This means that you can use and adapt the files, as long as you attribute the copyright holder.\n\nName: Bernd Krueger\nSource: http://www.piano-midi.de\n\nThe distribution or public playback of the files is only allowed under identical license conditions.\n\nThe scores are open source.","attribution":"MIDI files by Bernd Krueger (piano-midi.de)","attributionUrl":"http://www.piano-midi.de"}}