{"title":"Chopin Prelude No. 7","artist":"Chopin","durationMs":35845,"midiSha256":"bce42fa15debbbbbd39fcf924cb738bbc9a3f8b6f36ec8df22098c9126d42bb3","midiObject":[{"NoteNumber":64,"Velocity":52,"Duration":644744,"SoundDuration":644744,"Delta":0},{"NoteNumber":73,"Velocity":58,"Duration":496990,"SoundDuration":496990,"Delta":644745},{"NoteNumber":40,"Velocity":31,"Duration":644745,"SoundDuration":644745,"Delta":644745},{"NoteNumber":74,"Velocity":43,"Duration":161186,"SoundDuration":161186,"Delta":1128304},{"NoteNumber":62,"Velocity":32,"Duration":657894,"SoundDuration":657894,"Delta":1289490},{"NoteNumber":68,"Velocity":32,"Duration":657894,"SoundDuration":657894,"Delta":1289490},{"NoteNumber":71,"Velocity":38,"Duration":657894,"SoundDuration":657894,"Delta":1289490},{"NoteNumber":64,"Velocity":34,"Duration":657894,"SoundDuration":657894,"Delta":1289490},{"NoteNumber":52,"Velocity":28,"Duration":657894,"SoundDuration":657894,"Delta":1289490},{"NoteNumber":62,"Velocity":22,"Duration":676590,"SoundDuration":676590,"Delta":1947385},{"NoteNumber":68,"Velocity":22,"Duration":676590,"SoundDuration":676590,"Delta":1947385},{"NoteNumber":71,"Velocity":27,"Duration":676590,"SoundDuration":676590,"Delta":1947385},{"NoteNumber":64,"Velocity":27,"Duration":676590,"SoundDuration":676590,"Delta":1947385},{"NoteNumber":52,"Velocity":23,"Duration":676590,"SoundDuration":676590,"Delta":1947385},{"NoteNumber":62,"Velocity":18,"Duration":1380080,"SoundDuration":1380080,"Delta":2623975},{"NoteNumber":68,"Velocity":18,"Duration":1380080,"SoundDuration":1380080,"Delta":2623975},{"NoteNumber":71,"Velocity":21,"Duration":1380080,"SoundDuration":1380080,"Delta":2623975},{"NoteNumber":64,"Velocity":24,"Duration":1380080,"SoundDuration":1380080,"Delta":2623975},{"NoteNumber":52,"Velocity":19,"Duration":1380080,"SoundDuration":1380080,"Delta":2623975},{"NoteNumber":74,"Velocity":45,"Duration":644745,"SoundDuration":644745,"Delta":4033419},{"NoteNumber":78,"Velocity":45,"Duration":644745,"SoundDuration":644745,"Delta":4033419},{"NoteNumber":72,"Velocity":44,"Duration":496990,"SoundDuration":496990,"Delta":4678164},{"NoteNumber":75,"Velocity":52,"Duration":496990,"SoundDuration":496990,"Delta":4678164},{"NoteNumber":45,"Velocity":32,"Duration":644744,"SoundDuration":644744,"Delta":4678164},{"NoteNumber":73,"Velocity":43,"Duration":161186,"SoundDuration":161186,"Delta":5161723},{"NoteNumber":76,"Velocity":51,"Duration":161186,"SoundDuration":161186,"Delta":5161723},{"NoteNumber":73,"Velocity":26,"Duration":661229,"SoundDuration":661229,"Delta":5322909},{"NoteNumber":81,"Velocity":44,"Duration":661229,"SoundDuration":661229,"Delta":5322909},{"NoteNumber":64,"Velocity":36,"Duration":661229,"SoundDuration":661229,"Delta":5322909},{"NoteNumber":57,"Velocity":30,"Duration":661229,"SoundDuration":661229,"Delta":5322909},{"NoteNumber":81,"Velocity":31,"Duration":710985,"SoundDuration":710985,"Delta":5984139},{"NoteNumber":73,"Velocity":26,"Duration":710985,"SoundDuration":710985,"Delta":5984139},{"NoteNumber":64,"Velocity":30,"Duration":710985,"SoundDuration":710985,"Delta":5984139},{"NoteNumber":57,"Velocity":25,"Duration":710985,"SoundDuration":710985,"Delta":5984139},{"NoteNumber":81,"Velocity":31,"Duration":1392345,"SoundDuration":1392345,"Delta":6695124},{"NoteNumber":73,"Velocity":26,"Duration":1392345,"SoundDuration":1392345,"Delta":6695124},{"NoteNumber":64,"Velocity":30,"Duration":1392345,"SoundDuration":1392345,"Delta":6695124},{"NoteNumber":57,"Velocity":25,"Duration":1392345,"SoundDuration":1392345,"Delta":6695124},{"NoteNumber":73,"Velocity":48,"Duration":716418,"SoundDuration":716418,"Delta":8117094},{"NoteNumber":64,"Velocity":40,"Duration":716418,"SoundDuration":716418,"Delta":8117094},{"NoteNumber":61,"Velocity":40,"Duration":509698,"SoundDuration":509698,"Delta":8833512},{"NoteNumber":70,"Velocity":48,"Duration":509698,"SoundDuration":509698,"Delta":8833512},{"NoteNumber":40,"Velocity":30,"Duration":661229,"SoundDuration":661229,"Delta":8833512},{"NoteNumber":62,"Velocity":32,"Duration":2939710,"SoundDuration":2939710,"Delta":9329434},{"NoteNumber":71,"Velocity":38,"Duration":165307,"SoundDuration":165307,"Delta":9329434},{"NoteNumber":74,"Velocity":42,"Duration":661229,"SoundDuration":661229,"Delta":9494742},{"NoteNumber":66,"Velocity":35,"Duration":661229,"SoundDuration":661229,"Delta":9494742},{"NoteNumber":59,"Velocity":31,"Duration":661229,"SoundDuration":661229,"Delta":9494742},{"NoteNumber":52,"Velocity":26,"Duration":661229,"SoundDuration":661229,"Delta":9494742},{"NoteNumber":74,"Velocity":32,"Duration":704390,"SoundDuration":704390,"Delta":10155972},{"NoteNumber":66,"Velocity":27,"Duration":704390,"SoundDuration":704390,"Delta":10155972},{"NoteNumber":59,"Velocity":24,"Duration":704390,"SoundDuration":704390,"Delta":10155972},{"NoteNumber":52,"Velocity":19,"Duration":704390,"SoundDuration":704390,"Delta":10155972},{"NoteNumber":74,"Velocity":27,"Duration":1379432,"SoundDuration":1379432,"Delta":10860363},{"NoteNumber":66,"Velocity":23,"Duration":1379432,"SoundDuration":1379432,"Delta":10860363},{"NoteNumber":59,"Velocity":22,"Duration":1379432,"SoundDuration":1379432,"Delta":10860363},{"NoteNumber":52,"Velocity":18,"Duration":1379432,"SoundDuration":1379432,"Delta":10860363},{"NoteNumber":62,"Velocity":31,"Duration":732689,"SoundDuration":732689,"Delta":12269145},{"NoteNumber":68,"Velocity":37,"Duration":732689,"SoundDuration":732689,"Delta":12269145},{"NoteNumber":62,"Velocity":33,"Duration":606080,"SoundDuration":606080,"Delta":13001835},{"NoteNumber":68,"Velocity":39,"Duration":606080,"SoundDuration":606080,"Delta":13001835},{"NoteNumber":33,"Velocity":30,"Duration":786267,"SoundDuration":786267,"Delta":13001835},{"NoteNumber":61,"Velocity":31,"Duration":196566,"SoundDuration":196566,"Delta":13591535},{"NoteNumber":69,"Velocity":37,"Duration":196566,"SoundDuration":196566,"Delta":13591535},{"NoteNumber":61,"Velocity":18,"Duration":743218,"SoundDuration":743218,"Delta":13788102},{"NoteNumber":73,"Velocity":33,"Duration":743218,"SoundDuration":743218,"Delta":13788102},{"NoteNumber":64,"Velocity":33,"Duration":743218,"SoundDuration":743218,"Delta":13788102},{"NoteNumber":57,"Velocity":28,"Duration":743218,"SoundDuration":743218,"Delta":13788102},{"NoteNumber":52,"Velocity":28,"Duration":743218,"SoundDuration":743218,"Delta":13788102},{"NoteNumber":73,"Velocity":22,"Duration":788021,"SoundDuration":788021,"Delta":14531320},{"NoteNumber":61,"Velocity":18,"Duration":788021,"SoundDuration":788021,"Delta":14531320},{"NoteNumber":64,"Velocity":27,"Duration":788021,"SoundDuration":788021,"Delta":14531320},{"NoteNumber":57,"Velocity":22,"Duration":788021,"SoundDuration":788021,"Delta":14531320},{"NoteNumber":52,"Velocity":22,"Duration":788021,"SoundDuration":788021,"Delta":14531320},{"NoteNumber":61,"Velocity":15,"Duration":1543209,"SoundDuration":1543209,"Delta":15319342},{"NoteNumber":73,"Velocity":18,"Duration":1543209,"SoundDuration":1543209,"Delta":15319342},{"NoteNumber":64,"Velocity":18,"Duration":1543209,"SoundDuration":1543209,"Delta":15319342},{"NoteNumber":57,"Velocity":15,"Duration":1543209,"SoundDuration":1543209,"Delta":15319342},{"NoteNumber":52,"Velocity":15,"Duration":1543209,"SoundDuration":1543209,"Delta":15319342},{"NoteNumber":64,"Velocity":60,"Duration":1289490,"SoundDuration":1289490,"Delta":16895386},{"NoteNumber":73,"Velocity":57,"Duration":496990,"SoundDuration":496990,"Delta":17540131},{"NoteNumber":68,"Velocity":48,"Duration":644745,"SoundDuration":644745,"Delta":17540131},{"NoteNumber":40,"Velocity":33,"Duration":644745,"SoundDuration":644745,"Delta":17540131},{"NoteNumber":74,"Velocity":57,"Duration":161186,"SoundDuration":161186,"Delta":18023690},{"NoteNumber":68,"Velocity":41,"Duration":651254,"SoundDuration":651254,"Delta":18184876},{"NoteNumber":62,"Velocity":41,"Duration":651254,"SoundDuration":651254,"Delta":18184876},{"NoteNumber":71,"Velocity":49,"Duration":651254,"SoundDuration":651254,"Delta":18184876},{"NoteNumber":64,"Velocity":31,"Duration":651254,"SoundDuration":651254,"Delta":18184876},{"NoteNumber":52,"Velocity":26,"Duration":651254,"SoundDuration":651254,"Delta":18184876},{"NoteNumber":62,"Velocity":31,"Duration":676590,"SoundDuration":676590,"Delta":18836130},{"NoteNumber":68,"Velocity":31,"Duration":676590,"SoundDuration":676590,"Delta":18836130},{"NoteNumber":71,"Velocity":37,"Duration":676590,"SoundDuration":676590,"Delta":18836130},{"NoteNumber":64,"Velocity":29,"Duration":676590,"SoundDuration":676590,"Delta":18836130},{"NoteNumber":52,"Velocity":25,"Duration":676590,"SoundDuration":676590,"Delta":18836130},{"NoteNumber":62,"Velocity":27,"Duration":1558768,"SoundDuration":1558768,"Delta":19512720},{"NoteNumber":68,"Velocity":27,"Duration":1558768,"SoundDuration":1558768,"Delta":19512720},{"NoteNumber":71,"Velocity":32,"Duration":1558768,"SoundDuration":1558768,"Delta":19512720},{"NoteNumber":64,"Velocity":27,"Duration":1558768,"SoundDuration":1558768,"Delta":19512720},{"NoteNumber":52,"Velocity":23,"Duration":1558768,"SoundDuration":1558768,"Delta":19512720},{"NoteNumber":74,"Velocity":48,"Duration":644745,"SoundDuration":644745,"Delta":21104654},{"NoteNumber":78,"Velocity":57,"Duration":644745,"SoundDuration":644745,"Delta":21104654},{"NoteNumber":72,"Velocity":54,"Duration":507127,"SoundDuration":507127,"Delta":21749399},{"NoteNumber":75,"Velocity":64,"Duration":507127,"SoundDuration":507127,"Delta":21749399},{"NoteNumber":45,"Velocity":39,"Duration":657894,"SoundDuration":657894,"Delta":21749399},{"NoteNumber":73,"Velocity":48,"Duration":1785268,"SoundDuration":1785268,"Delta":22242820},{"NoteNumber":76,"Velocity":57,"Duration":1785268,"SoundDuration":1785268,"Delta":22242820},{"NoteNumber":85,"Velocity":64,"Duration":706021,"SoundDuration":706021,"Delta":22407294},{"NoteNumber":81,"Velocity":54,"Duration":706021,"SoundDuration":706021,"Delta":22407294},{"NoteNumber":69,"Velocity":42,"Duration":706021,"SoundDuration":706021,"Delta":22407294},{"NoteNumber":64,"Velocity":35,"Duration":706021,"SoundDuration":706021,"Delta":22407294},{"NoteNumber":57,"Velocity":35,"Duration":706021,"SoundDuration":706021,"Delta":22407294},{"NoteNumber":85,"Velocity":68,"Duration":914773,"SoundDuration":914773,"Delta":23113315},{"NoteNumber":81,"Velocity":57,"Duration":914773,"SoundDuration":914773,"Delta":23113315},{"NoteNumber":57,"Velocity":37,"Duration":914773,"SoundDuration":914773,"Delta":23113315},{"NoteNumber":64,"Velocity":37,"Duration":914773,"SoundDuration":914773,"Delta":23113315},{"NoteNumber":69,"Velocity":44,"Duration":914773,"SoundDuration":914773,"Delta":23113315},{"NoteNumber":73,"Velocity":44,"Duration":2104227,"SoundDuration":2104227,"Delta":24028089},{"NoteNumber":82,"Velocity":44,"Duration":2104227,"SoundDuration":2104227,"Delta":24028089},{"NoteNumber":76,"Velocity":44,"Duration":2104227,"SoundDuration":2104227,"Delta":24028089},{"NoteNumber":85,"Velocity":52,"Duration":2104227,"SoundDuration":2104227,"Delta":24028089},{"NoteNumber":70,"Velocity":44,"Duration":2104227,"SoundDuration":2104227,"Delta":24028089},{"NoteNumber":66,"Velocity":38,"Duration":2104227,"SoundDuration":2104227,"Delta":24028089},{"NoteNumber":64,"Velocity":32,"Duration":2104227,"SoundDuration":2104227,"Delta":24028089},{"NoteNumber":61,"Velocity":32,"Duration":2104227,"SoundDuration":2104227,"Delta":24028089},{"NoteNumber":54,"Velocity":32,"Duration":2104227,"SoundDuration":2104227,"Delta":24028089},{"NoteNumber":73,"Velocity":45,"Duration":664598,"SoundDuration":664598,"Delta":26177087},{"NoteNumber":70,"Velocity":38,"Duration":664598,"SoundDuration":664598,"Delta":26177087},{"NoteNumber":70,"Velocity":40,"Duration":512295,"SoundDuration":512295,"Delta":26841686},{"NoteNumber":73,"Velocity":48,"Duration":512295,"SoundDuration":512295,"Delta":26841686},{"NoteNumber":35,"Velocity":28,"Duration":664599,"SoundDuration":664599,"Delta":26841686},{"NoteNumber":71,"Velocity":34,"Duration":166149,"SoundDuration":166149,"Delta":27340135},{"NoteNumber":74,"Velocity":40,"Duration":166149,"SoundDuration":166149,"Delta":27340135},{"NoteNumber":71,"Velocity":28,"Duration":675067,"SoundDuration":675067,"Delta":27506285},{"NoteNumber":78,"Velocity":37,"Duration":675067,"SoundDuration":675067,"Delta":27506285},{"NoteNumber":62,"Velocity":42,"Duration":675067,"SoundDuration":675067,"Delta":27506285},{"NoteNumber":54,"Velocity":35,"Duration":675067,"SoundDuration":675067,"Delta":27506285},{"NoteNumber":69,"Velocity":28,"Duration":696944,"SoundDuration":696944,"Delta":28181353},{"NoteNumber":78,"Velocity":33,"Duration":696944,"SoundDuration":696944,"Delta":28181353},{"NoteNumber":62,"Velocity":31,"Duration":696944,"SoundDuration":696944,"Delta":28181353},{"NoteNumber":59,"Velocity":26,"Duration":696944,"SoundDuration":696944,"Delta":28181353},{"NoteNumber":54,"Velocity":26,"Duration":696944,"SoundDuration":696944,"Delta":28181353},{"NoteNumber":68,"Velocity":23,"Duration":1485274,"SoundDuration":1485274,"Delta":28878298},{"NoteNumber":78,"Velocity":28,"Duration":1485274,"SoundDuration":1485274,"Delta":28878298},{"NoteNumber":62,"Velocity":22,"Duration":1485274,"SoundDuration":1485274,"Delta":28878298},{"NoteNumber":59,"Velocity":18,"Duration":1485274,"SoundDuration":1485274,"Delta":28878298},{"NoteNumber":52,"Velocity":18,"Duration":1485274,"SoundDuration":1485274,"Delta":28878298},{"NoteNumber":62,"Velocity":33,"Duration":805909,"SoundDuration":805909,"Delta":30397152},{"NoteNumber":68,"Velocity":39,"Duration":805909,"SoundDuration":805909,"Delta":30397152},{"NoteNumber":62,"Velocity":36,"Duration":653987,"SoundDuration":653987,"Delta":31203062},{"NoteNumber":71,"Velocity":43,"Duration":653987,"SoundDuration":653987,"Delta":31203062},{"NoteNumber":33,"Velocity":21,"Duration":1381311,"SoundDuration":1381311,"Delta":31203062},{"NoteNumber":61,"Velocity":31,"Duration":176753,"SoundDuration":176753,"Delta":31839374},{"NoteNumber":69,"Velocity":37,"Duration":176753,"SoundDuration":176753,"Delta":31839374},{"NoteNumber":69,"Velocity":43,"Duration":3793656,"SoundDuration":3793656,"Delta":32051478},{"NoteNumber":73,"Velocity":27,"Duration":774659,"SoundDuration":774659,"Delta":32326153},{"NoteNumber":81,"Velocity":32,"Duration":774659,"SoundDuration":774659,"Delta":32326153},{"NoteNumber":52,"Velocity":28,"Duration":774659,"SoundDuration":774659,"Delta":32326153},{"NoteNumber":57,"Velocity":28,"Duration":774659,"SoundDuration":774659,"Delta":32326153},{"NoteNumber":64,"Velocity":34,"Duration":774659,"SoundDuration":774659,"Delta":32326153},{"NoteNumber":81,"Velocity":32,"Duration":914774,"SoundDuration":914774,"Delta":33100813},{"NoteNumber":73,"Velocity":27,"Duration":914774,"SoundDuration":914774,"Delta":33100813},{"NoteNumber":64,"Velocity":31,"Duration":914774,"SoundDuration":914774,"Delta":33100813},{"NoteNumber":57,"Velocity":26,"Duration":914774,"SoundDuration":914774,"Delta":33100813},{"NoteNumber":81,"Velocity":31,"Duration":1829547,"SoundDuration":1829547,"Delta":34015587},{"NoteNumber":73,"Velocity":26,"Duration":1829547,"SoundDuration":1829547,"Delta":34015587},{"NoteNumber":64,"Velocity":28,"Duration":1829547,"SoundDuration":1829547,"Delta":34015587},{"NoteNumber":57,"Velocity":23,"Duration":1829547,"SoundDuration":1829547,"Delta":34015587}],"license":{"name":"Creative Commons Attribution-ShareAlike 3.0 Germany","url":"http://creativecommons.org/licenses/by-sa/3.0/de/deed.en","text":"The MIDI, audio (MP3, OGG) and video files of Bernd Krueger are licensed under the cc-by-sa Germany License. This means that you can use and adapt the files, as long as you attribute the copyright holder.\n\nName: Bernd Krueger\nSource: http://www.piano-midi.de\n\nThe distribution or public playback of the files is only allowed under identical license conditions.\n\nThe scores are open source.","attribution":"MIDI files by Bernd Krueger (piano-midi.de)","attributionUrl":"http://www.piano-midi.de"}}