{"title":"Chopin Etude No. 1, Opus 25","artist":"Chopin","durationMs":123648,"midiSha256":"3c66a8769e534feba45e3f06ca284f8c97ef2119cfe6786bb149dece104c64eb","midiObject":[{"NoteNumber":75,"Velocity":49,"Duration":697837,"SoundDuration":697837,"Delta":0},{"NoteNumber":75,"Velocity":40,"Duration":698717,"SoundDuration":698717,"Delta":697837},{"NoteNumber":32,"Velocity":35,"Duration":120767,"SoundDuration":120767,"Delta":697837},{"NoteNumber":68,"Velocity":22,"Duration":119105,"SoundDuration":119105,"Delta":818604},{"NoteNumber":51,"Velocity":17,"Duration":119105,"SoundDuration":119105,"Delta":818604},{"NoteNumber":72,"Velocity":22,"Duration":117496,"SoundDuration":117496,"Delta":937709},{"NoteNumber":56,"Velocity":18,"Duration":117496,"SoundDuration":117496,"Delta":937709},{"NoteNumber":63,"Velocity":22,"Duration":115538,"SoundDuration":115538,"Delta":1055206},{"NoteNumber":60,"Velocity":18,"Duration":115538,"SoundDuration":115538,"Delta":1055206},{"NoteNumber":68,"Velocity":22,"Duration":113637,"SoundDuration":113637,"Delta":1170744},{"NoteNumber":56,"Velocity":18,"Duration":113637,"SoundDuration":113637,"Delta":1170744},{"NoteNumber":72,"Velocity":23,"Duration":112171,"SoundDuration":112171,"Delta":1284382},{"NoteNumber":51,"Velocity":18,"Duration":112171,"SoundDuration":112171,"Delta":1284382},{"NoteNumber":75,"Velocity":44,"Duration":650302,"SoundDuration":650302,"Delta":1396554},{"NoteNumber":44,"Velocity":30,"Duration":110385,"SoundDuration":110385,"Delta":1396554},{"NoteNumber":68,"Velocity":23,"Duration":109338,"SoundDuration":109338,"Delta":1506939},{"NoteNumber":51,"Velocity":19,"Duration":109338,"SoundDuration":109338,"Delta":1506939},{"NoteNumber":72,"Velocity":24,"Duration":108649,"SoundDuration":108649,"Delta":1616278},{"NoteNumber":56,"Velocity":19,"Duration":108649,"SoundDuration":108649,"Delta":1616278},{"NoteNumber":63,"Velocity":24,"Duration":107974,"SoundDuration":107974,"Delta":1724927},{"NoteNumber":60,"Velocity":19,"Duration":107974,"SoundDuration":107974,"Delta":1724927},{"NoteNumber":68,"Velocity":24,"Duration":107308,"SoundDuration":107308,"Delta":1832902},{"NoteNumber":56,"Velocity":20,"Duration":107308,"SoundDuration":107308,"Delta":1832902},{"NoteNumber":72,"Velocity":24,"Duration":106644,"SoundDuration":106644,"Delta":1940211},{"NoteNumber":51,"Velocity":20,"Duration":106644,"SoundDuration":106644,"Delta":1940211},{"NoteNumber":75,"Velocity":49,"Duration":633981,"SoundDuration":633981,"Delta":2046856},{"NoteNumber":44,"Velocity":20,"Duration":105663,"SoundDuration":105663,"Delta":2046856},{"NoteNumber":68,"Velocity":26,"Duration":105663,"SoundDuration":105663,"Delta":2152520},{"NoteNumber":51,"Velocity":20,"Duration":105663,"SoundDuration":105663,"Delta":2152520},{"NoteNumber":72,"Velocity":26,"Duration":105663,"SoundDuration":105663,"Delta":2258183},{"NoteNumber":56,"Velocity":20,"Duration":105663,"SoundDuration":105663,"Delta":2258183},{"NoteNumber":63,"Velocity":26,"Duration":105663,"SoundDuration":105663,"Delta":2363847},{"NoteNumber":60,"Velocity":20,"Duration":105663,"SoundDuration":105663,"Delta":2363847},{"NoteNumber":68,"Velocity":27,"Duration":105663,"SoundDuration":105663,"Delta":2469510},{"NoteNumber":56,"Velocity":22,"Duration":105663,"SoundDuration":105663,"Delta":2469510},{"NoteNumber":72,"Velocity":27,"Duration":105663,"SoundDuration":105663,"Delta":2575174},{"NoteNumber":51,"Velocity":22,"Duration":105663,"SoundDuration":105663,"Delta":2575174},{"NoteNumber":75,"Velocity":52,"Duration":643928,"SoundDuration":643928,"Delta":2680837},{"NoteNumber":44,"Velocity":23,"Duration":105663,"SoundDuration":105663,"Delta":2680837},{"NoteNumber":68,"Velocity":27,"Duration":105989,"SoundDuration":105989,"Delta":2786501},{"NoteNumber":51,"Velocity":23,"Duration":105989,"SoundDuration":105989,"Delta":2786501},{"NoteNumber":72,"Velocity":28,"Duration":106644,"SoundDuration":106644,"Delta":2892490},{"NoteNumber":56,"Velocity":23,"Duration":106644,"SoundDuration":106644,"Delta":2892490},{"NoteNumber":63,"Velocity":28,"Duration":107642,"SoundDuration":107642,"Delta":2999135},{"NoteNumber":60,"Velocity":24,"Duration":107642,"SoundDuration":107642,"Delta":2999135},{"NoteNumber":68,"Velocity":28,"Duration":108649,"SoundDuration":108649,"Delta":3106778},{"NoteNumber":56,"Velocity":24,"Duration":108649,"SoundDuration":108649,"Delta":3106778},{"NoteNumber":72,"Velocity":28,"Duration":109338,"SoundDuration":109338,"Delta":3215427},{"NoteNumber":51,"Velocity":24,"Duration":109338,"SoundDuration":109338,"Delta":3215427},{"NoteNumber":77,"Velocity":55,"Duration":638196,"SoundDuration":638196,"Delta":3324766},{"NoteNumber":44,"Velocity":26,"Duration":110375,"SoundDuration":110375,"Delta":3324766},{"NoteNumber":68,"Velocity":30,"Duration":108317,"SoundDuration":108317,"Delta":3435141},{"NoteNumber":51,"Velocity":26,"Duration":108317,"SoundDuration":108317,"Delta":3435141},{"NoteNumber":72,"Velocity":29,"Duration":106319,"SoundDuration":106319,"Delta":3543458},{"NoteNumber":56,"Velocity":25,"Duration":106319,"SoundDuration":106319,"Delta":3543458},{"NoteNumber":63,"Velocity":29,"Duration":104395,"SoundDuration":104395,"Delta":3649777},{"NoteNumber":60,"Velocity":25,"Duration":104395,"SoundDuration":104395,"Delta":3649777},{"NoteNumber":68,"Velocity":29,"Duration":104394,"SoundDuration":104394,"Delta":3754172},{"NoteNumber":56,"Velocity":25,"Duration":104394,"SoundDuration":104394,"Delta":3754172},{"NoteNumber":72,"Velocity":29,"Duration":104395,"SoundDuration":104395,"Delta":3858567},{"NoteNumber":51,"Velocity":24,"Duration":104395,"SoundDuration":104395,"Delta":3858567},{"NoteNumber":75,"Velocity":52,"Duration":620463,"SoundDuration":620463,"Delta":3962962},{"NoteNumber":44,"Velocity":24,"Duration":103766,"SoundDuration":103766,"Delta":3962962},{"NoteNumber":68,"Velocity":29,"Duration":103766,"SoundDuration":103766,"Delta":4066729},{"NoteNumber":51,"Velocity":24,"Duration":103766,"SoundDuration":103766,"Delta":4066729},{"NoteNumber":72,"Velocity":29,"Duration":103766,"SoundDuration":103766,"Delta":4170496},{"NoteNumber":56,"Velocity":24,"Duration":103766,"SoundDuration":103766,"Delta":4170496},{"NoteNumber":63,"Velocity":29,"Duration":103156,"SoundDuration":103156,"Delta":4274262},{"NoteNumber":60,"Velocity":24,"Duration":103156,"SoundDuration":103156,"Delta":4274262},{"NoteNumber":68,"Velocity":28,"Duration":103156,"SoundDuration":103156,"Delta":4377419},{"NoteNumber":56,"Velocity":23,"Duration":103156,"SoundDuration":103156,"Delta":4377419},{"NoteNumber":72,"Velocity":28,"Duration":102849,"SoundDuration":102849,"Delta":4480576},{"NoteNumber":51,"Velocity":23,"Duration":102849,"SoundDuration":102849,"Delta":4480576},{"NoteNumber":75,"Velocity":50,"Duration":610804,"SoundDuration":610804,"Delta":4583426},{"NoteNumber":44,"Velocity":23,"Duration":101945,"SoundDuration":101945,"Delta":4583426},{"NoteNumber":68,"Velocity":27,"Duration":101051,"SoundDuration":101051,"Delta":4685371},{"NoteNumber":51,"Velocity":23,"Duration":101051,"SoundDuration":101051,"Delta":4685371},{"NoteNumber":72,"Velocity":27,"Duration":101956,"SoundDuration":101956,"Delta":4786423},{"NoteNumber":56,"Velocity":23,"Duration":101956,"SoundDuration":101956,"Delta":4786423},{"NoteNumber":63,"Velocity":27,"Duration":103156,"SoundDuration":103156,"Delta":4888379},{"NoteNumber":60,"Velocity":23,"Duration":103156,"SoundDuration":103156,"Delta":4888379},{"NoteNumber":68,"Velocity":27,"Duration":101642,"SoundDuration":101642,"Delta":4991536},{"NoteNumber":56,"Velocity":23,"Duration":101642,"SoundDuration":101642,"Delta":4991536},{"NoteNumber":72,"Velocity":27,"Duration":101051,"SoundDuration":101051,"Delta":5093178},{"NoteNumber":51,"Velocity":23,"Duration":101051,"SoundDuration":101051,"Delta":5093178},{"NoteNumber":75,"Velocity":51,"Duration":608408,"SoundDuration":608408,"Delta":5194230},{"NoteNumber":44,"Velocity":23,"Duration":101649,"SoundDuration":101649,"Delta":5194230},{"NoteNumber":68,"Velocity":26,"Duration":102252,"SoundDuration":102252,"Delta":5295879},{"NoteNumber":51,"Velocity":23,"Duration":102252,"SoundDuration":102252,"Delta":5295879},{"NoteNumber":72,"Velocity":26,"Duration":100462,"SoundDuration":100462,"Delta":5398132},{"NoteNumber":56,"Velocity":22,"Duration":100462,"SoundDuration":100462,"Delta":5398132},{"NoteNumber":63,"Velocity":26,"Duration":101347,"SoundDuration":101347,"Delta":5498595},{"NoteNumber":60,"Velocity":22,"Duration":101347,"SoundDuration":101347,"Delta":5498595},{"NoteNumber":68,"Velocity":26,"Duration":101348,"SoundDuration":101348,"Delta":5599943},{"NoteNumber":56,"Velocity":22,"Duration":101348,"SoundDuration":101348,"Delta":5599943},{"NoteNumber":72,"Velocity":26,"Duration":101347,"SoundDuration":101347,"Delta":5701291},{"NoteNumber":51,"Velocity":22,"Duration":101347,"SoundDuration":101347,"Delta":5701291},{"NoteNumber":75,"Velocity":55,"Duration":608382,"SoundDuration":608382,"Delta":5802639},{"NoteNumber":44,"Velocity":24,"Duration":101347,"SoundDuration":101347,"Delta":5802639},{"NoteNumber":70,"Velocity":27,"Duration":101347,"SoundDuration":101347,"Delta":5903987},{"NoteNumber":51,"Velocity":24,"Duration":101347,"SoundDuration":101347,"Delta":5903987},{"NoteNumber":73,"Velocity":27,"Duration":101347,"SoundDuration":101347,"Delta":6005335},{"NoteNumber":55,"Velocity":24,"Duration":101347,"SoundDuration":101347,"Delta":6005335},{"NoteNumber":63,"Velocity":28,"Duration":101347,"SoundDuration":101347,"Delta":6106683},{"NoteNumber":61,"Velocity":25,"Duration":101347,"SoundDuration":101347,"Delta":6106683},{"NoteNumber":70,"Velocity":29,"Duration":101348,"SoundDuration":101348,"Delta":6208031},{"NoteNumber":55,"Velocity":25,"Duration":101348,"SoundDuration":101348,"Delta":6208031},{"NoteNumber":73,"Velocity":29,"Duration":101642,"SoundDuration":101642,"Delta":6309379},{"NoteNumber":51,"Velocity":26,"Duration":101642,"SoundDuration":101642,"Delta":6309379},{"NoteNumber":75,"Velocity":60,"Duration":609263,"SoundDuration":609263,"Delta":6411021},{"NoteNumber":44,"Velocity":26,"Duration":101936,"SoundDuration":101936,"Delta":6411021},{"NoteNumber":70,"Velocity":30,"Duration":101936,"SoundDuration":101936,"Delta":6512958},{"NoteNumber":51,"Velocity":27,"Duration":101936,"SoundDuration":101936,"Delta":6512958},{"NoteNumber":73,"Velocity":30,"Duration":101642,"SoundDuration":101642,"Delta":6614895},{"NoteNumber":55,"Velocity":27,"Duration":101642,"SoundDuration":101642,"Delta":6614895},{"NoteNumber":63,"Velocity":31,"Duration":101347,"SoundDuration":101347,"Delta":6716537},{"NoteNumber":61,"Velocity":27,"Duration":101347,"SoundDuration":101347,"Delta":6716537},{"NoteNumber":70,"Velocity":33,"Duration":101347,"SoundDuration":101347,"Delta":6817885},{"NoteNumber":55,"Velocity":28,"Duration":101347,"SoundDuration":101347,"Delta":6817885},{"NoteNumber":73,"Velocity":33,"Duration":101051,"SoundDuration":101051,"Delta":6919233},{"NoteNumber":51,"Velocity":28,"Duration":101051,"SoundDuration":101051,"Delta":6919233},{"NoteNumber":77,"Velocity":62,"Duration":604241,"SoundDuration":604241,"Delta":7020285},{"NoteNumber":44,"Velocity":29,"Duration":100755,"SoundDuration":100755,"Delta":7020285},{"NoteNumber":70,"Velocity":34,"Duration":100755,"SoundDuration":100755,"Delta":7121041},{"NoteNumber":51,"Velocity":29,"Duration":100755,"SoundDuration":100755,"Delta":7121041},{"NoteNumber":73,"Velocity":35,"Duration":100755,"SoundDuration":100755,"Delta":7221796},{"NoteNumber":55,"Velocity":29,"Duration":100755,"SoundDuration":100755,"Delta":7221796},{"NoteNumber":63,"Velocity":36,"Duration":100755,"SoundDuration":100755,"Delta":7322552},{"NoteNumber":61,"Velocity":29,"Duration":100755,"SoundDuration":100755,"Delta":7322552},{"NoteNumber":70,"Velocity":36,"Duration":100755,"SoundDuration":100755,"Delta":7423308},{"NoteNumber":55,"Velocity":30,"Duration":100755,"SoundDuration":100755,"Delta":7423308},{"NoteNumber":73,"Velocity":37,"Duration":100462,"SoundDuration":100462,"Delta":7524063},{"NoteNumber":51,"Velocity":30,"Duration":100462,"SoundDuration":100462,"Delta":7524063},{"NoteNumber":75,"Velocity":61,"Duration":622854,"SoundDuration":622854,"Delta":7624526},{"NoteNumber":44,"Velocity":30,"Duration":100170,"SoundDuration":100170,"Delta":7624526},{"NoteNumber":70,"Velocity":37,"Duration":100755,"SoundDuration":100755,"Delta":7724697},{"NoteNumber":51,"Velocity":30,"Duration":100755,"SoundDuration":100755,"Delta":7724697},{"NoteNumber":73,"Velocity":37,"Duration":101051,"SoundDuration":101051,"Delta":7825452},{"NoteNumber":55,"Velocity":29,"Duration":101051,"SoundDuration":101051,"Delta":7825452},{"NoteNumber":63,"Velocity":37,"Duration":101347,"SoundDuration":101347,"Delta":7926504},{"NoteNumber":61,"Velocity":29,"Duration":101347,"SoundDuration":101347,"Delta":7926504},{"NoteNumber":70,"Velocity":36,"Duration":105921,"SoundDuration":105921,"Delta":8027852},{"NoteNumber":55,"Velocity":29,"Duration":105921,"SoundDuration":105921,"Delta":8027852},{"NoteNumber":73,"Velocity":34,"Duration":113607,"SoundDuration":113607,"Delta":8133773},{"NoteNumber":51,"Velocity":28,"Duration":113607,"SoundDuration":113607,"Delta":8133773},{"NoteNumber":82,"Velocity":66,"Duration":609875,"SoundDuration":609875,"Delta":8247381},{"NoteNumber":44,"Velocity":29,"Duration":102543,"SoundDuration":102543,"Delta":8247381},{"NoteNumber":72,"Velocity":41,"Duration":102239,"SoundDuration":102239,"Delta":8349924},{"NoteNumber":51,"Velocity":29,"Duration":102239,"SoundDuration":102239,"Delta":8349924},{"NoteNumber":75,"Velocity":40,"Duration":101936,"SoundDuration":101936,"Delta":8452164},{"NoteNumber":56,"Velocity":28,"Duration":101936,"SoundDuration":101936,"Delta":8452164},{"NoteNumber":63,"Velocity":40,"Duration":101347,"SoundDuration":101347,"Delta":8554101},{"NoteNumber":60,"Velocity":28,"Duration":101347,"SoundDuration":101347,"Delta":8554101},{"NoteNumber":72,"Velocity":39,"Duration":101051,"SoundDuration":101051,"Delta":8655449},{"NoteNumber":56,"Velocity":28,"Duration":101051,"SoundDuration":101051,"Delta":8655449},{"NoteNumber":75,"Velocity":39,"Duration":100755,"SoundDuration":100755,"Delta":8756501},{"NoteNumber":51,"Velocity":27,"Duration":100755,"SoundDuration":100755,"Delta":8756501},{"NoteNumber":80,"Velocity":64,"Duration":599074,"SoundDuration":599074,"Delta":8857256},{"NoteNumber":44,"Velocity":31,"Duration":99310,"SoundDuration":99310,"Delta":8857256},{"NoteNumber":72,"Velocity":38,"Duration":98463,"SoundDuration":98463,"Delta":8956567},{"NoteNumber":51,"Velocity":31,"Duration":98463,"SoundDuration":98463,"Delta":8956567},{"NoteNumber":75,"Velocity":38,"Duration":100755,"SoundDuration":100755,"Delta":9055031},{"NoteNumber":56,"Velocity":30,"Duration":100755,"SoundDuration":100755,"Delta":9055031},{"NoteNumber":63,"Velocity":37,"Duration":100463,"SoundDuration":100463,"Delta":9155786},{"NoteNumber":60,"Velocity":30,"Duration":100463,"SoundDuration":100463,"Delta":9155786},{"NoteNumber":72,"Velocity":37,"Duration":99029,"SoundDuration":99029,"Delta":9256250},{"NoteNumber":56,"Velocity":29,"Duration":99029,"SoundDuration":99029,"Delta":9256250},{"NoteNumber":75,"Velocity":36,"Duration":101051,"SoundDuration":101051,"Delta":9355279},{"NoteNumber":51,"Velocity":29,"Duration":101051,"SoundDuration":101051,"Delta":9355279},{"NoteNumber":80,"Velocity":70,"Duration":598449,"SoundDuration":598449,"Delta":9456331},{"NoteNumber":44,"Velocity":28,"Duration":100462,"SoundDuration":100462,"Delta":9456331},{"NoteNumber":72,"Velocity":36,"Duration":99029,"SoundDuration":99029,"Delta":9556794},{"NoteNumber":52,"Velocity":28,"Duration":99029,"SoundDuration":99029,"Delta":9556794},{"NoteNumber":76,"Velocity":36,"Duration":99599,"SoundDuration":99599,"Delta":9655823},{"NoteNumber":56,"Velocity":29,"Duration":99599,"SoundDuration":99599,"Delta":9655823},{"NoteNumber":64,"Velocity":37,"Duration":100173,"SoundDuration":100173,"Delta":9755423},{"NoteNumber":60,"Velocity":29,"Duration":100173,"SoundDuration":100173,"Delta":9755423},{"NoteNumber":72,"Velocity":38,"Duration":99591,"SoundDuration":99591,"Delta":9855597},{"NoteNumber":56,"Velocity":29,"Duration":99591,"SoundDuration":99591,"Delta":9855597},{"NoteNumber":76,"Velocity":38,"Duration":99591,"SoundDuration":99591,"Delta":9955189},{"NoteNumber":52,"Velocity":30,"Duration":99591,"SoundDuration":99591,"Delta":9955189},{"NoteNumber":80,"Velocity":69,"Duration":630701,"SoundDuration":630701,"Delta":10054780},{"NoteNumber":44,"Velocity":31,"Duration":100462,"SoundDuration":100462,"Delta":10054780},{"NoteNumber":72,"Velocity":39,"Duration":101642,"SoundDuration":101642,"Delta":10155243},{"NoteNumber":52,"Velocity":31,"Duration":101642,"SoundDuration":101642,"Delta":10155243},{"NoteNumber":76,"Velocity":39,"Duration":102849,"SoundDuration":102849,"Delta":10256886},{"NoteNumber":56,"Velocity":33,"Duration":102849,"SoundDuration":102849,"Delta":10256886},{"NoteNumber":64,"Velocity":40,"Duration":104398,"SoundDuration":104398,"Delta":10359735},{"NoteNumber":60,"Velocity":34,"Duration":104398,"SoundDuration":104398,"Delta":10359735},{"NoteNumber":72,"Velocity":41,"Duration":111127,"SoundDuration":111127,"Delta":10464134},{"NoteNumber":56,"Velocity":34,"Duration":111127,"SoundDuration":111127,"Delta":10464134},{"NoteNumber":76,"Velocity":42,"Duration":110219,"SoundDuration":110219,"Delta":10575262},{"NoteNumber":52,"Velocity":35,"Duration":110219,"SoundDuration":110219,"Delta":10575262},{"NoteNumber":80,"Velocity":73,"Duration":609579,"SoundDuration":609579,"Delta":10685482},{"NoteNumber":37,"Velocity":44,"Duration":102542,"SoundDuration":102542,"Delta":10685482},{"NoteNumber":73,"Velocity":37,"Duration":102239,"SoundDuration":102239,"Delta":10788025},{"NoteNumber":56,"Velocity":31,"Duration":102239,"SoundDuration":102239,"Delta":10788025},{"NoteNumber":77,"Velocity":37,"Duration":101936,"SoundDuration":101936,"Delta":10890265},{"NoteNumber":61,"Velocity":31,"Duration":101936,"SoundDuration":101936,"Delta":10890265},{"NoteNumber":68,"Velocity":37,"Duration":101051,"SoundDuration":101051,"Delta":10992201},{"NoteNumber":65,"Velocity":31,"Duration":101051,"SoundDuration":101051,"Delta":10992201},{"NoteNumber":73,"Velocity":37,"Duration":100755,"SoundDuration":100755,"Delta":11093253},{"NoteNumber":61,"Velocity":33,"Duration":100755,"SoundDuration":100755,"Delta":11093253},{"NoteNumber":77,"Velocity":38,"Duration":101051,"SoundDuration":101051,"Delta":11194009},{"NoteNumber":56,"Velocity":33,"Duration":101051,"SoundDuration":101051,"Delta":11194009},{"NoteNumber":80,"Velocity":70,"Duration":604547,"SoundDuration":604547,"Delta":11295061},{"NoteNumber":49,"Velocity":46,"Duration":101347,"SoundDuration":101347,"Delta":11295061},{"NoteNumber":73,"Velocity":38,"Duration":101347,"SoundDuration":101347,"Delta":11396409},{"NoteNumber":56,"Velocity":34,"Duration":101347,"SoundDuration":101347,"Delta":11396409},{"NoteNumber":77,"Velocity":38,"Duration":100755,"SoundDuration":100755,"Delta":11497757},{"NoteNumber":61,"Velocity":34,"Duration":100755,"SoundDuration":100755,"Delta":11497757},{"NoteNumber":68,"Velocity":39,"Duration":100755,"SoundDuration":100755,"Delta":11598512},{"NoteNumber":65,"Velocity":34,"Duration":100755,"SoundDuration":100755,"Delta":11598512},{"NoteNumber":73,"Velocity":39,"Duration":100170,"SoundDuration":100170,"Delta":11699268},{"NoteNumber":61,"Velocity":34,"Duration":100170,"SoundDuration":100170,"Delta":11699268},{"NoteNumber":77,"Velocity":39,"Duration":100170,"SoundDuration":100170,"Delta":11799438},{"NoteNumber":56,"Velocity":35,"Duration":100170,"SoundDuration":100170,"Delta":11799438},{"NoteNumber":80,"Velocity":77,"Duration":597550,"SoundDuration":597550,"Delta":11899609},{"NoteNumber":49,"Velocity":35,"Duration":99591,"SoundDuration":99591,"Delta":11899609},{"NoteNumber":73,"Velocity":39,"Duration":99591,"SoundDuration":99591,"Delta":11999200},{"NoteNumber":56,"Velocity":35,"Duration":99591,"SoundDuration":99591,"Delta":11999200},{"NoteNumber":77,"Velocity":39,"Duration":99591,"SoundDuration":99591,"Delta":12098792},{"NoteNumber":61,"Velocity":36,"Duration":99591,"SoundDuration":99591,"Delta":12098792},{"NoteNumber":68,"Velocity":39,"Duration":99591,"SoundDuration":99591,"Delta":12198384},{"NoteNumber":65,"Velocity":36,"Duration":99591,"SoundDuration":99591,"Delta":12198384},{"NoteNumber":73,"Velocity":39,"Duration":99591,"SoundDuration":99591,"Delta":12297975},{"NoteNumber":61,"Velocity":36,"Duration":99591,"SoundDuration":99591,"Delta":12297975},{"NoteNumber":77,"Velocity":40,"Duration":99591,"SoundDuration":99591,"Delta":12397567},{"NoteNumber":56,"Velocity":36,"Duration":99591,"SoundDuration":99591,"Delta":12397567},{"NoteNumber":82,"Velocity":77,"Duration":613034,"SoundDuration":613034,"Delta":12497159},{"NoteNumber":49,"Velocity":50,"Duration":100170,"SoundDuration":100170,"Delta":12497159},{"NoteNumber":73,"Velocity":40,"Duration":100170,"SoundDuration":100170,"Delta":12597329},{"NoteNumber":55,"Velocity":37,"Duration":100170,"SoundDuration":100170,"Delta":12597329},{"NoteNumber":77,"Velocity":40,"Duration":100316,"SoundDuration":100316,"Delta":12697499},{"NoteNumber":61,"Velocity":37,"Duration":100316,"SoundDuration":100316,"Delta":12697499},{"NoteNumber":67,"Velocity":42,"Duration":101793,"SoundDuration":101793,"Delta":12797816},{"NoteNumber":65,"Velocity":38,"Duration":101793,"SoundDuration":101793,"Delta":12797816},{"NoteNumber":73,"Velocity":42,"Duration":103308,"SoundDuration":103308,"Delta":12899610},{"NoteNumber":61,"Velocity":38,"Duration":103308,"SoundDuration":103308,"Delta":12899610},{"NoteNumber":77,"Velocity":42,"Duration":107275,"SoundDuration":107275,"Delta":13002918},{"NoteNumber":55,"Velocity":38,"Duration":107275,"SoundDuration":107275,"Delta":13002918},{"NoteNumber":84,"Velocity":80,"Duration":606018,"SoundDuration":606018,"Delta":13110194},{"NoteNumber":48,"Velocity":50,"Duration":101347,"SoundDuration":101347,"Delta":13110194},{"NoteNumber":72,"Velocity":40,"Duration":101347,"SoundDuration":101347,"Delta":13211542},{"NoteNumber":55,"Velocity":39,"Duration":101347,"SoundDuration":101347,"Delta":13211542},{"NoteNumber":77,"Velocity":40,"Duration":101347,"SoundDuration":101347,"Delta":13312890},{"NoteNumber":60,"Velocity":39,"Duration":101347,"SoundDuration":101347,"Delta":13312890},{"NoteNumber":67,"Velocity":39,"Duration":100755,"SoundDuration":100755,"Delta":13414238},{"NoteNumber":65,"Velocity":38,"Duration":100755,"SoundDuration":100755,"Delta":13414238},{"NoteNumber":72,"Velocity":39,"Duration":100755,"SoundDuration":100755,"Delta":13514993},{"NoteNumber":60,"Velocity":38,"Duration":100755,"SoundDuration":100755,"Delta":13514993},{"NoteNumber":77,"Velocity":39,"Duration":100462,"SoundDuration":100462,"Delta":13615749},{"NoteNumber":55,"Velocity":37,"Duration":100462,"SoundDuration":100462,"Delta":13615749},{"NoteNumber":82,"Velocity":77,"Duration":598216,"SoundDuration":598216,"Delta":13716212},{"NoteNumber":48,"Velocity":37,"Duration":99029,"SoundDuration":99029,"Delta":13716212},{"NoteNumber":72,"Velocity":38,"Duration":99029,"SoundDuration":99029,"Delta":13815242},{"NoteNumber":55,"Velocity":36,"Duration":99029,"SoundDuration":99029,"Delta":13815242},{"NoteNumber":76,"Velocity":38,"Duration":101348,"SoundDuration":101348,"Delta":13914271},{"NoteNumber":60,"Velocity":36,"Duration":101348,"SoundDuration":101348,"Delta":13914271},{"NoteNumber":67,"Velocity":38,"Duration":100463,"SoundDuration":100463,"Delta":14015619},{"NoteNumber":64,"Velocity":36,"Duration":100463,"SoundDuration":100463,"Delta":14015619},{"NoteNumber":72,"Velocity":37,"Duration":98746,"SoundDuration":98746,"Delta":14116082},{"NoteNumber":60,"Velocity":35,"Duration":98746,"SoundDuration":98746,"Delta":14116082},{"NoteNumber":76,"Velocity":37,"Duration":99599,"SoundDuration":99599,"Delta":14214829},{"NoteNumber":55,"Velocity":35,"Duration":99599,"SoundDuration":99599,"Delta":14214829},{"NoteNumber":80,"Velocity":77,"Duration":604303,"SoundDuration":604303,"Delta":14314429},{"NoteNumber":53,"Velocity":34,"Duration":101348,"SoundDuration":101348,"Delta":14314429},{"NoteNumber":72,"Velocity":36,"Duration":100462,"SoundDuration":100462,"Delta":14415777},{"NoteNumber":56,"Velocity":34,"Duration":100462,"SoundDuration":100462,"Delta":14415777},{"NoteNumber":77,"Velocity":35,"Duration":98746,"SoundDuration":98746,"Delta":14516240},{"NoteNumber":60,"Velocity":33,"Duration":98746,"SoundDuration":98746,"Delta":14516240},{"NoteNumber":68,"Velocity":35,"Duration":100463,"SoundDuration":100463,"Delta":14614986},{"NoteNumber":65,"Velocity":33,"Duration":100463,"SoundDuration":100463,"Delta":14614986},{"NoteNumber":72,"Velocity":35,"Duration":101936,"SoundDuration":101936,"Delta":14715449},{"NoteNumber":60,"Velocity":31,"Duration":101936,"SoundDuration":101936,"Delta":14715449},{"NoteNumber":77,"Velocity":34,"Duration":98827,"SoundDuration":98827,"Delta":14817386},{"NoteNumber":56,"Velocity":31,"Duration":101346,"SoundDuration":101346,"Delta":14817386},{"NoteNumber":77,"Velocity":70,"Duration":618800,"SoundDuration":618800,"Delta":14918733},{"NoteNumber":47,"Velocity":41,"Duration":100469,"SoundDuration":100469,"Delta":14918733},{"NoteNumber":71,"Velocity":33,"Duration":101642,"SoundDuration":101642,"Delta":15019202},{"NoteNumber":53,"Velocity":29,"Duration":101642,"SoundDuration":101642,"Delta":15019202},{"NoteNumber":75,"Velocity":33,"Duration":102849,"SoundDuration":102849,"Delta":15120845},{"NoteNumber":56,"Velocity":29,"Duration":102849,"SoundDuration":102849,"Delta":15120845},{"NoteNumber":65,"Velocity":31,"Duration":103461,"SoundDuration":103461,"Delta":15223695},{"NoteNumber":63,"Velocity":29,"Duration":103461,"SoundDuration":103461,"Delta":15223695},{"NoteNumber":71,"Velocity":31,"Duration":104712,"SoundDuration":104712,"Delta":15327156},{"NoteNumber":56,"Velocity":28,"Duration":104712,"SoundDuration":104712,"Delta":15327156},{"NoteNumber":75,"Velocity":31,"Duration":105663,"SoundDuration":105663,"Delta":15431869},{"NoteNumber":53,"Velocity":28,"Duration":105663,"SoundDuration":105663,"Delta":15431869},{"NoteNumber":77,"Velocity":72,"Duration":623023,"SoundDuration":623023,"Delta":15537533},{"NoteNumber":46,"Velocity":47,"Duration":105663,"SoundDuration":105663,"Delta":15537533},{"NoteNumber":70,"Velocity":31,"Duration":105030,"SoundDuration":105030,"Delta":15643196},{"NoteNumber":53,"Velocity":28,"Duration":105030,"SoundDuration":105030,"Delta":15643196},{"NoteNumber":75,"Velocity":31,"Duration":104080,"SoundDuration":104080,"Delta":15748227},{"NoteNumber":56,"Velocity":28,"Duration":104080,"SoundDuration":104080,"Delta":15748227},{"NoteNumber":65,"Velocity":33,"Duration":103461,"SoundDuration":103461,"Delta":15852308},{"NoteNumber":63,"Velocity":29,"Duration":103461,"SoundDuration":103461,"Delta":15852308},{"NoteNumber":70,"Velocity":33,"Duration":102849,"SoundDuration":102849,"Delta":15955770},{"NoteNumber":56,"Velocity":29,"Duration":102849,"SoundDuration":102849,"Delta":15955770},{"NoteNumber":75,"Velocity":34,"Duration":101936,"SoundDuration":101936,"Delta":16058620},{"NoteNumber":53,"Velocity":29,"Duration":101936,"SoundDuration":101936,"Delta":16058620},{"NoteNumber":79,"Velocity":72,"Duration":604830,"SoundDuration":604830,"Delta":16160556},{"NoteNumber":46,"Velocity":31,"Duration":101051,"SoundDuration":101051,"Delta":16160556},{"NoteNumber":70,"Velocity":35,"Duration":100755,"SoundDuration":100755,"Delta":16261608},{"NoteNumber":53,"Velocity":31,"Duration":100755,"SoundDuration":100755,"Delta":16261608},{"NoteNumber":75,"Velocity":35,"Duration":100755,"SoundDuration":100755,"Delta":16362364},{"NoteNumber":56,"Velocity":33,"Duration":100755,"SoundDuration":100755,"Delta":16362364},{"NoteNumber":65,"Velocity":36,"Duration":100755,"SoundDuration":100755,"Delta":16463120},{"NoteNumber":63,"Velocity":33,"Duration":100755,"SoundDuration":100755,"Delta":16463120},{"NoteNumber":70,"Velocity":36,"Duration":100755,"SoundDuration":100755,"Delta":16563875},{"NoteNumber":56,"Velocity":34,"Duration":100755,"SoundDuration":100755,"Delta":16563875},{"NoteNumber":75,"Velocity":37,"Duration":100755,"SoundDuration":100755,"Delta":16664631},{"NoteNumber":53,"Velocity":35,"Duration":100755,"SoundDuration":100755,"Delta":16664631},{"NoteNumber":80,"Velocity":75,"Duration":604534,"SoundDuration":604534,"Delta":16765387},{"NoteNumber":46,"Velocity":34,"Duration":100755,"SoundDuration":100755,"Delta":16765387},{"NoteNumber":70,"Velocity":38,"Duration":100755,"SoundDuration":100755,"Delta":16866142},{"NoteNumber":53,"Velocity":34,"Duration":100755,"SoundDuration":100755,"Delta":16866142},{"NoteNumber":74,"Velocity":38,"Duration":100755,"SoundDuration":100755,"Delta":16966898},{"NoteNumber":56,"Velocity":34,"Duration":100755,"SoundDuration":100755,"Delta":16966898},{"NoteNumber":65,"Velocity":37,"Duration":100755,"SoundDuration":100755,"Delta":17067654},{"NoteNumber":62,"Velocity":33,"Duration":100755,"SoundDuration":100755,"Delta":17067654},{"NoteNumber":68,"Velocity":37,"Duration":100755,"SoundDuration":100755,"Delta":17168409},{"NoteNumber":56,"Velocity":33,"Duration":100755,"SoundDuration":100755,"Delta":17168409},{"NoteNumber":70,"Velocity":36,"Duration":98236,"SoundDuration":98236,"Delta":17269165},{"NoteNumber":53,"Velocity":33,"Duration":100755,"SoundDuration":100755,"Delta":17269165},{"NoteNumber":46,"Velocity":31,"Duration":102543,"SoundDuration":102543,"Delta":17369921},{"NoteNumber":70,"Velocity":68,"Duration":610177,"SoundDuration":610177,"Delta":17382738},{"NoteNumber":65,"Velocity":36,"Duration":102849,"SoundDuration":102849,"Delta":17472464},{"NoteNumber":53,"Velocity":31,"Duration":102849,"SoundDuration":102849,"Delta":17472464},{"NoteNumber":68,"Velocity":35,"Duration":103461,"SoundDuration":103461,"Delta":17575313},{"NoteNumber":56,"Velocity":31,"Duration":103461,"SoundDuration":103461,"Delta":17575313},{"NoteNumber":58,"Velocity":35,"Duration":104080,"SoundDuration":104080,"Delta":17678775},{"NoteNumber":62,"Velocity":29,"Duration":104080,"SoundDuration":104080,"Delta":17678775},{"NoteNumber":65,"Velocity":35,"Duration":104713,"SoundDuration":104713,"Delta":17782856},{"NoteNumber":56,"Velocity":29,"Duration":104713,"SoundDuration":104713,"Delta":17782856},{"NoteNumber":68,"Velocity":37,"Duration":105347,"SoundDuration":105347,"Delta":17887569},{"NoteNumber":53,"Velocity":29,"Duration":105347,"SoundDuration":105347,"Delta":17887569},{"NoteNumber":70,"Velocity":70,"Duration":638922,"SoundDuration":638922,"Delta":17992916},{"NoteNumber":39,"Velocity":51,"Duration":106653,"SoundDuration":106653,"Delta":17992916},{"NoteNumber":65,"Velocity":39,"Duration":107642,"SoundDuration":107642,"Delta":18099569},{"NoteNumber":46,"Velocity":29,"Duration":107642,"SoundDuration":107642,"Delta":18099569},{"NoteNumber":68,"Velocity":39,"Duration":106974,"SoundDuration":106974,"Delta":18207212},{"NoteNumber":51,"Velocity":31,"Duration":106974,"SoundDuration":106974,"Delta":18207212},{"NoteNumber":58,"Velocity":39,"Duration":106315,"SoundDuration":106315,"Delta":18314187},{"NoteNumber":61,"Velocity":31,"Duration":106315,"SoundDuration":106315,"Delta":18314187},{"NoteNumber":65,"Velocity":40,"Duration":105989,"SoundDuration":105989,"Delta":18420502},{"NoteNumber":51,"Velocity":33,"Duration":105989,"SoundDuration":105989,"Delta":18420502},{"NoteNumber":68,"Velocity":42,"Duration":105347,"SoundDuration":105347,"Delta":18526491},{"NoteNumber":46,"Velocity":33,"Duration":105347,"SoundDuration":105347,"Delta":18526491},{"NoteNumber":72,"Velocity":62,"Duration":626688,"SoundDuration":626688,"Delta":18631839},{"NoteNumber":39,"Velocity":27,"Duration":104713,"SoundDuration":104713,"Delta":18631839},{"NoteNumber":63,"Velocity":35,"Duration":104395,"SoundDuration":104395,"Delta":18736552},{"NoteNumber":46,"Velocity":27,"Duration":104395,"SoundDuration":104395,"Delta":18736552},{"NoteNumber":68,"Velocity":36,"Duration":104395,"SoundDuration":104395,"Delta":18840947},{"NoteNumber":51,"Velocity":28,"Duration":104395,"SoundDuration":104395,"Delta":18840947},{"NoteNumber":58,"Velocity":36,"Duration":104395,"SoundDuration":104395,"Delta":18945342},{"NoteNumber":56,"Velocity":28,"Duration":104395,"SoundDuration":104395,"Delta":18945342},{"NoteNumber":63,"Velocity":37,"Duration":104395,"SoundDuration":104395,"Delta":19049737},{"NoteNumber":51,"Velocity":28,"Duration":104395,"SoundDuration":104395,"Delta":19049737},{"NoteNumber":68,"Velocity":37,"Duration":104395,"SoundDuration":104395,"Delta":19154132},{"NoteNumber":46,"Velocity":28,"Duration":104395,"SoundDuration":104395,"Delta":19154132},{"NoteNumber":73,"Velocity":63,"Duration":641259,"SoundDuration":641259,"Delta":19258527},{"NoteNumber":39,"Velocity":28,"Duration":103923,"SoundDuration":103923,"Delta":19258527},{"NoteNumber":63,"Velocity":33,"Duration":105030,"SoundDuration":105030,"Delta":19362450},{"NoteNumber":46,"Velocity":27,"Duration":105030,"SoundDuration":105030,"Delta":19362450},{"NoteNumber":67,"Velocity":32,"Duration":106317,"SoundDuration":106317,"Delta":19467480},{"NoteNumber":51,"Velocity":26,"Duration":106317,"SoundDuration":106317,"Delta":19467480},{"NoteNumber":58,"Velocity":32,"Duration":107308,"SoundDuration":107308,"Delta":19573798},{"NoteNumber":55,"Velocity":26,"Duration":107308,"SoundDuration":107308,"Delta":19573798},{"NoteNumber":61,"Velocity":31,"Duration":108649,"SoundDuration":108649,"Delta":19681106},{"NoteNumber":51,"Velocity":24,"Duration":108649,"SoundDuration":108649,"Delta":19681106},{"NoteNumber":63,"Velocity":29,"Duration":107270,"SoundDuration":107270,"Delta":19789756},{"NoteNumber":46,"Velocity":24,"Duration":110030,"SoundDuration":110030,"Delta":19789756},{"NoteNumber":63,"Velocity":55,"Duration":763849,"SoundDuration":763849,"Delta":19899786},{"NoteNumber":39,"Velocity":29,"Duration":111266,"SoundDuration":111266,"Delta":19899786},{"NoteNumber":58,"Velocity":35,"Duration":115559,"SoundDuration":115559,"Delta":20011053},{"NoteNumber":46,"Velocity":28,"Duration":115559,"SoundDuration":115559,"Delta":20011053},{"NoteNumber":61,"Velocity":34,"Duration":121421,"SoundDuration":121421,"Delta":20126612},{"NoteNumber":49,"Velocity":27,"Duration":121421,"SoundDuration":121421,"Delta":20126612},{"NoteNumber":51,"Velocity":31,"Duration":128156,"SoundDuration":128156,"Delta":20248034},{"NoteNumber":55,"Velocity":27,"Duration":128156,"SoundDuration":128156,"Delta":20248034},{"NoteNumber":58,"Velocity":30,"Duration":135432,"SoundDuration":135432,"Delta":20376191},{"NoteNumber":49,"Velocity":26,"Duration":135432,"SoundDuration":135432,"Delta":20376191},{"NoteNumber":61,"Velocity":29,"Duration":152012,"SoundDuration":152012,"Delta":20511623},{"NoteNumber":46,"Velocity":25,"Duration":152012,"SoundDuration":152012,"Delta":20511623},{"NoteNumber":75,"Velocity":51,"Duration":698717,"SoundDuration":698717,"Delta":20663635},{"NoteNumber":32,"Velocity":41,"Duration":120767,"SoundDuration":120767,"Delta":20663635},{"NoteNumber":68,"Velocity":22,"Duration":119105,"SoundDuration":119105,"Delta":20784403},{"NoteNumber":51,"Velocity":17,"Duration":119105,"SoundDuration":119105,"Delta":20784403},{"NoteNumber":72,"Velocity":22,"Duration":117496,"SoundDuration":117496,"Delta":20903508},{"NoteNumber":56,"Velocity":18,"Duration":117496,"SoundDuration":117496,"Delta":20903508},{"NoteNumber":63,"Velocity":22,"Duration":115538,"SoundDuration":115538,"Delta":21021005},{"NoteNumber":60,"Velocity":18,"Duration":115538,"SoundDuration":115538,"Delta":21021005},{"NoteNumber":68,"Velocity":22,"Duration":113637,"SoundDuration":113637,"Delta":21136543},{"NoteNumber":56,"Velocity":18,"Duration":113637,"SoundDuration":113637,"Delta":21136543},{"NoteNumber":72,"Velocity":23,"Duration":112171,"SoundDuration":112171,"Delta":21250181},{"NoteNumber":51,"Velocity":18,"Duration":112171,"SoundDuration":112171,"Delta":21250181},{"NoteNumber":75,"Velocity":44,"Duration":650302,"SoundDuration":650302,"Delta":21362353},{"NoteNumber":44,"Velocity":36,"Duration":110385,"SoundDuration":110385,"Delta":21362353},{"NoteNumber":68,"Velocity":23,"Duration":109338,"SoundDuration":109338,"Delta":21472738},{"NoteNumber":51,"Velocity":19,"Duration":109338,"SoundDuration":109338,"Delta":21472738},{"NoteNumber":72,"Velocity":24,"Duration":108649,"SoundDuration":108649,"Delta":21582077},{"NoteNumber":56,"Velocity":19,"Duration":108649,"SoundDuration":108649,"Delta":21582077},{"NoteNumber":63,"Velocity":24,"Duration":107974,"SoundDuration":107974,"Delta":21690726},{"NoteNumber":60,"Velocity":19,"Duration":107974,"SoundDuration":107974,"Delta":21690726},{"NoteNumber":68,"Velocity":24,"Duration":107308,"SoundDuration":107308,"Delta":21798701},{"NoteNumber":56,"Velocity":20,"Duration":107308,"SoundDuration":107308,"Delta":21798701},{"NoteNumber":72,"Velocity":24,"Duration":106645,"SoundDuration":106645,"Delta":21906010},{"NoteNumber":51,"Velocity":20,"Duration":106645,"SoundDuration":106645,"Delta":21906010},{"NoteNumber":75,"Velocity":49,"Duration":633980,"SoundDuration":633980,"Delta":22012655},{"NoteNumber":44,"Velocity":20,"Duration":105663,"SoundDuration":105663,"Delta":22012655},{"NoteNumber":68,"Velocity":26,"Duration":105663,"SoundDuration":105663,"Delta":22118319},{"NoteNumber":51,"Velocity":20,"Duration":105663,"SoundDuration":105663,"Delta":22118319},{"NoteNumber":72,"Velocity":26,"Duration":105663,"SoundDuration":105663,"Delta":22223982},{"NoteNumber":56,"Velocity":20,"Duration":105663,"SoundDuration":105663,"Delta":22223982},{"NoteNumber":63,"Velocity":26,"Duration":105663,"SoundDuration":105663,"Delta":22329646},{"NoteNumber":60,"Velocity":20,"Duration":105663,"SoundDuration":105663,"Delta":22329646},{"NoteNumber":68,"Velocity":27,"Duration":105663,"SoundDuration":105663,"Delta":22435309},{"NoteNumber":56,"Velocity":22,"Duration":105663,"SoundDuration":105663,"Delta":22435309},{"NoteNumber":72,"Velocity":27,"Duration":105663,"SoundDuration":105663,"Delta":22540973},{"NoteNumber":51,"Velocity":22,"Duration":105663,"SoundDuration":105663,"Delta":22540973},{"NoteNumber":75,"Velocity":52,"Duration":643928,"SoundDuration":643928,"Delta":22646636},{"NoteNumber":44,"Velocity":23,"Duration":105663,"SoundDuration":105663,"Delta":22646636},{"NoteNumber":68,"Velocity":27,"Duration":105989,"SoundDuration":105989,"Delta":22752300},{"NoteNumber":51,"Velocity":23,"Duration":105989,"SoundDuration":105989,"Delta":22752300},{"NoteNumber":72,"Velocity":28,"Duration":106645,"SoundDuration":106645,"Delta":22858289},{"NoteNumber":56,"Velocity":23,"Duration":106645,"SoundDuration":106645,"Delta":22858289},{"NoteNumber":63,"Velocity":28,"Duration":107642,"SoundDuration":107642,"Delta":22964934},{"NoteNumber":60,"Velocity":24,"Duration":107642,"SoundDuration":107642,"Delta":22964934},{"NoteNumber":68,"Velocity":28,"Duration":108649,"SoundDuration":108649,"Delta":23072577},{"NoteNumber":56,"Velocity":24,"Duration":108649,"SoundDuration":108649,"Delta":23072577},{"NoteNumber":72,"Velocity":28,"Duration":109338,"SoundDuration":109338,"Delta":23181226},{"NoteNumber":51,"Velocity":24,"Duration":109338,"SoundDuration":109338,"Delta":23181226},{"NoteNumber":77,"Velocity":55,"Duration":638196,"SoundDuration":638196,"Delta":23290565},{"NoteNumber":44,"Velocity":26,"Duration":110375,"SoundDuration":110375,"Delta":23290565},{"NoteNumber":68,"Velocity":30,"Duration":108317,"SoundDuration":108317,"Delta":23400940},{"NoteNumber":51,"Velocity":26,"Duration":108317,"SoundDuration":108317,"Delta":23400940},{"NoteNumber":72,"Velocity":29,"Duration":106319,"SoundDuration":106319,"Delta":23509257},{"NoteNumber":56,"Velocity":25,"Duration":106319,"SoundDuration":106319,"Delta":23509257},{"NoteNumber":63,"Velocity":29,"Duration":104395,"SoundDuration":104395,"Delta":23615576},{"NoteNumber":60,"Velocity":25,"Duration":104395,"SoundDuration":104395,"Delta":23615576},{"NoteNumber":68,"Velocity":29,"Duration":104395,"SoundDuration":104395,"Delta":23719971},{"NoteNumber":56,"Velocity":25,"Duration":104395,"SoundDuration":104395,"Delta":23719971},{"NoteNumber":72,"Velocity":29,"Duration":104395,"SoundDuration":104395,"Delta":23824366},{"NoteNumber":51,"Velocity":24,"Duration":104395,"SoundDuration":104395,"Delta":23824366},{"NoteNumber":75,"Velocity":52,"Duration":620463,"SoundDuration":620463,"Delta":23928761},{"NoteNumber":44,"Velocity":24,"Duration":103766,"SoundDuration":103766,"Delta":23928761},{"NoteNumber":68,"Velocity":29,"Duration":103766,"SoundDuration":103766,"Delta":24032528},{"NoteNumber":51,"Velocity":24,"Duration":103766,"SoundDuration":103766,"Delta":24032528},{"NoteNumber":72,"Velocity":29,"Duration":103766,"SoundDuration":103766,"Delta":24136295},{"NoteNumber":56,"Velocity":24,"Duration":103766,"SoundDuration":103766,"Delta":24136295},{"NoteNumber":63,"Velocity":29,"Duration":103156,"SoundDuration":103156,"Delta":24240061},{"NoteNumber":60,"Velocity":24,"Duration":103156,"SoundDuration":103156,"Delta":24240061},{"NoteNumber":68,"Velocity":28,"Duration":103156,"SoundDuration":103156,"Delta":24343218},{"NoteNumber":56,"Velocity":23,"Duration":103156,"SoundDuration":103156,"Delta":24343218},{"NoteNumber":72,"Velocity":28,"Duration":102849,"SoundDuration":102849,"Delta":24446375},{"NoteNumber":51,"Velocity":23,"Duration":102849,"SoundDuration":102849,"Delta":24446375},{"NoteNumber":75,"Velocity":50,"Duration":610804,"SoundDuration":610804,"Delta":24549224},{"NoteNumber":44,"Velocity":23,"Duration":101945,"SoundDuration":101945,"Delta":24549224},{"NoteNumber":68,"Velocity":27,"Duration":101051,"SoundDuration":101051,"Delta":24651170},{"NoteNumber":51,"Velocity":23,"Duration":101051,"SoundDuration":101051,"Delta":24651170},{"NoteNumber":72,"Velocity":27,"Duration":101956,"SoundDuration":101956,"Delta":24752222},{"NoteNumber":56,"Velocity":23,"Duration":101956,"SoundDuration":101956,"Delta":24752222},{"NoteNumber":63,"Velocity":27,"Duration":103156,"SoundDuration":103156,"Delta":24854178},{"NoteNumber":60,"Velocity":23,"Duration":103156,"SoundDuration":103156,"Delta":24854178},{"NoteNumber":68,"Velocity":27,"Duration":101642,"SoundDuration":101642,"Delta":24957335},{"NoteNumber":56,"Velocity":23,"Duration":101642,"SoundDuration":101642,"Delta":24957335},{"NoteNumber":72,"Velocity":27,"Duration":101051,"SoundDuration":101051,"Delta":25058977},{"NoteNumber":51,"Velocity":23,"Duration":101051,"SoundDuration":101051,"Delta":25058977},{"NoteNumber":75,"Velocity":51,"Duration":608408,"SoundDuration":608408,"Delta":25160029},{"NoteNumber":44,"Velocity":23,"Duration":101649,"SoundDuration":101649,"Delta":25160029},{"NoteNumber":68,"Velocity":26,"Duration":102252,"SoundDuration":102252,"Delta":25261678},{"NoteNumber":51,"Velocity":23,"Duration":102252,"SoundDuration":102252,"Delta":25261678},{"NoteNumber":72,"Velocity":26,"Duration":100463,"SoundDuration":100463,"Delta":25363931},{"NoteNumber":56,"Velocity":22,"Duration":100463,"SoundDuration":100463,"Delta":25363931},{"NoteNumber":63,"Velocity":26,"Duration":101348,"SoundDuration":101348,"Delta":25464394},{"NoteNumber":60,"Velocity":22,"Duration":101348,"SoundDuration":101348,"Delta":25464394},{"NoteNumber":68,"Velocity":26,"Duration":101347,"SoundDuration":101347,"Delta":25565742},{"NoteNumber":56,"Velocity":22,"Duration":101347,"SoundDuration":101347,"Delta":25565742},{"NoteNumber":72,"Velocity":26,"Duration":101348,"SoundDuration":101348,"Delta":25667090},{"NoteNumber":51,"Velocity":22,"Duration":101348,"SoundDuration":101348,"Delta":25667090},{"NoteNumber":75,"Velocity":59,"Duration":608382,"SoundDuration":608382,"Delta":25768438},{"NoteNumber":44,"Velocity":25,"Duration":101347,"SoundDuration":101347,"Delta":25768438},{"NoteNumber":70,"Velocity":30,"Duration":101348,"SoundDuration":101348,"Delta":25869786},{"NoteNumber":51,"Velocity":25,"Duration":101348,"SoundDuration":101348,"Delta":25869786},{"NoteNumber":73,"Velocity":31,"Duration":101347,"SoundDuration":101347,"Delta":25971134},{"NoteNumber":55,"Velocity":26,"Duration":101347,"SoundDuration":101347,"Delta":25971134},{"NoteNumber":63,"Velocity":31,"Duration":101348,"SoundDuration":101348,"Delta":26072482},{"NoteNumber":61,"Velocity":26,"Duration":101348,"SoundDuration":101348,"Delta":26072482},{"NoteNumber":70,"Velocity":33,"Duration":101348,"SoundDuration":101348,"Delta":26173830},{"NoteNumber":55,"Velocity":27,"Duration":101348,"SoundDuration":101348,"Delta":26173830},{"NoteNumber":73,"Velocity":34,"Duration":101642,"SoundDuration":101642,"Delta":26275178},{"NoteNumber":51,"Velocity":27,"Duration":101642,"SoundDuration":101642,"Delta":26275178},{"NoteNumber":82,"Velocity":68,"Duration":609263,"SoundDuration":609263,"Delta":26376820},{"NoteNumber":44,"Velocity":28,"Duration":101936,"SoundDuration":101936,"Delta":26376820},{"NoteNumber":70,"Velocity":35,"Duration":101936,"SoundDuration":101936,"Delta":26478757},{"NoteNumber":51,"Velocity":28,"Duration":101936,"SoundDuration":101936,"Delta":26478757},{"NoteNumber":73,"Velocity":35,"Duration":101642,"SoundDuration":101642,"Delta":26580694},{"NoteNumber":55,"Velocity":29,"Duration":101642,"SoundDuration":101642,"Delta":26580694},{"NoteNumber":63,"Velocity":36,"Duration":101347,"SoundDuration":101347,"Delta":26682336},{"NoteNumber":61,"Velocity":29,"Duration":101347,"SoundDuration":101347,"Delta":26682336},{"NoteNumber":70,"Velocity":38,"Duration":101348,"SoundDuration":101348,"Delta":26783684},{"NoteNumber":55,"Velocity":30,"Duration":101348,"SoundDuration":101348,"Delta":26783684},{"NoteNumber":73,"Velocity":38,"Duration":101051,"SoundDuration":101051,"Delta":26885032},{"NoteNumber":51,"Velocity":30,"Duration":101051,"SoundDuration":101051,"Delta":26885032},{"NoteNumber":84,"Velocity":71,"Duration":604241,"SoundDuration":604241,"Delta":26986084},{"NoteNumber":44,"Velocity":31,"Duration":100755,"SoundDuration":100755,"Delta":26986084},{"NoteNumber":70,"Velocity":39,"Duration":100755,"SoundDuration":100755,"Delta":27086840},{"NoteNumber":51,"Velocity":31,"Duration":100755,"SoundDuration":100755,"Delta":27086840},{"NoteNumber":73,"Velocity":40,"Duration":100755,"SoundDuration":100755,"Delta":27187595},{"NoteNumber":55,"Velocity":34,"Duration":100755,"SoundDuration":100755,"Delta":27187595},{"NoteNumber":63,"Velocity":41,"Duration":100755,"SoundDuration":100755,"Delta":27288351},{"NoteNumber":61,"Velocity":34,"Duration":100755,"SoundDuration":100755,"Delta":27288351},{"NoteNumber":70,"Velocity":41,"Duration":100755,"SoundDuration":100755,"Delta":27389107},{"NoteNumber":55,"Velocity":35,"Duration":100755,"SoundDuration":100755,"Delta":27389107},{"NoteNumber":73,"Velocity":42,"Duration":100463,"SoundDuration":100463,"Delta":27489862},{"NoteNumber":51,"Velocity":35,"Duration":100463,"SoundDuration":100463,"Delta":27489862},{"NoteNumber":79,"Velocity":66,"Duration":614699,"SoundDuration":614699,"Delta":27590325},{"NoteNumber":44,"Velocity":35,"Duration":100170,"SoundDuration":100170,"Delta":27590325},{"NoteNumber":70,"Velocity":41,"Duration":100755,"SoundDuration":100755,"Delta":27690496},{"NoteNumber":51,"Velocity":35,"Duration":100755,"SoundDuration":100755,"Delta":27690496},{"NoteNumber":73,"Velocity":40,"Duration":100962,"SoundDuration":100962,"Delta":27791251},{"NoteNumber":55,"Velocity":34,"Duration":100962,"SoundDuration":100962,"Delta":27791251},{"NoteNumber":63,"Velocity":38,"Duration":102575,"SoundDuration":102575,"Delta":27892214},{"NoteNumber":61,"Velocity":33,"Duration":102575,"SoundDuration":102575,"Delta":27892214},{"NoteNumber":70,"Velocity":37,"Duration":104208,"SoundDuration":104208,"Delta":27994790},{"NoteNumber":55,"Velocity":33,"Duration":104208,"SoundDuration":104208,"Delta":27994790},{"NoteNumber":73,"Velocity":36,"Duration":106026,"SoundDuration":106026,"Delta":28098998},{"NoteNumber":51,"Velocity":31,"Duration":106026,"SoundDuration":106026,"Delta":28098998},{"NoteNumber":82,"Velocity":72,"Duration":609875,"SoundDuration":609875,"Delta":28205025},{"NoteNumber":44,"Velocity":31,"Duration":102543,"SoundDuration":102543,"Delta":28205025},{"NoteNumber":72,"Velocity":45,"Duration":102239,"SoundDuration":102239,"Delta":28307568},{"NoteNumber":51,"Velocity":31,"Duration":102239,"SoundDuration":102239,"Delta":28307568},{"NoteNumber":75,"Velocity":44,"Duration":101936,"SoundDuration":101936,"Delta":28409807},{"NoteNumber":56,"Velocity":30,"Duration":101936,"SoundDuration":101936,"Delta":28409807},{"NoteNumber":63,"Velocity":44,"Duration":101348,"SoundDuration":101348,"Delta":28511744},{"NoteNumber":60,"Velocity":30,"Duration":101348,"SoundDuration":101348,"Delta":28511744},{"NoteNumber":72,"Velocity":42,"Duration":101051,"SoundDuration":101051,"Delta":28613092},{"NoteNumber":56,"Velocity":30,"Duration":101051,"SoundDuration":101051,"Delta":28613092},{"NoteNumber":75,"Velocity":42,"Duration":100755,"SoundDuration":100755,"Delta":28714144},{"NoteNumber":51,"Velocity":29,"Duration":100755,"SoundDuration":100755,"Delta":28714144},{"NoteNumber":80,"Velocity":71,"Duration":599074,"SoundDuration":599074,"Delta":28814900},{"NoteNumber":44,"Velocity":35,"Duration":99310,"SoundDuration":99310,"Delta":28814900},{"NoteNumber":72,"Velocity":41,"Duration":98464,"SoundDuration":98464,"Delta":28914210},{"NoteNumber":51,"Velocity":35,"Duration":98464,"SoundDuration":98464,"Delta":28914210},{"NoteNumber":75,"Velocity":41,"Duration":100755,"SoundDuration":100755,"Delta":29012674},{"NoteNumber":56,"Velocity":34,"Duration":100755,"SoundDuration":100755,"Delta":29012674},{"NoteNumber":63,"Velocity":40,"Duration":100462,"SoundDuration":100462,"Delta":29113430},{"NoteNumber":60,"Velocity":34,"Duration":100462,"SoundDuration":100462,"Delta":29113430},{"NoteNumber":72,"Velocity":41,"Duration":99029,"SoundDuration":99029,"Delta":29213893},{"NoteNumber":56,"Velocity":33,"Duration":99029,"SoundDuration":99029,"Delta":29213893},{"NoteNumber":75,"Velocity":39,"Duration":101051,"SoundDuration":101051,"Delta":29312923},{"NoteNumber":51,"Velocity":33,"Duration":101051,"SoundDuration":101051,"Delta":29312923},{"NoteNumber":80,"Velocity":80,"Duration":598449,"SoundDuration":598449,"Delta":29413974},{"NoteNumber":44,"Velocity":31,"Duration":100463,"SoundDuration":100463,"Delta":29413974},{"NoteNumber":72,"Velocity":38,"Duration":99029,"SoundDuration":99029,"Delta":29514437},{"NoteNumber":52,"Velocity":31,"Duration":99029,"SoundDuration":99029,"Delta":29514437},{"NoteNumber":76,"Velocity":39,"Duration":99599,"SoundDuration":99599,"Delta":29613467},{"NoteNumber":56,"Velocity":33,"Duration":99599,"SoundDuration":99599,"Delta":29613467},{"NoteNumber":64,"Velocity":40,"Duration":100173,"SoundDuration":100173,"Delta":29713067},{"NoteNumber":60,"Velocity":33,"Duration":100173,"SoundDuration":100173,"Delta":29713067},{"NoteNumber":72,"Velocity":41,"Duration":99591,"SoundDuration":99591,"Delta":29813240},{"NoteNumber":56,"Velocity":33,"Duration":99591,"SoundDuration":99591,"Delta":29813240},{"NoteNumber":76,"Velocity":42,"Duration":99591,"SoundDuration":99591,"Delta":29912832},{"NoteNumber":52,"Velocity":34,"Duration":99591,"SoundDuration":99591,"Delta":29912832},{"NoteNumber":80,"Velocity":82,"Duration":630701,"SoundDuration":630701,"Delta":30012424},{"NoteNumber":44,"Velocity":35,"Duration":100462,"SoundDuration":100462,"Delta":30012424},{"NoteNumber":72,"Velocity":45,"Duration":101642,"SoundDuration":101642,"Delta":30112887},{"NoteNumber":52,"Velocity":35,"Duration":101642,"SoundDuration":101642,"Delta":30112887},{"NoteNumber":76,"Velocity":46,"Duration":102849,"SoundDuration":102849,"Delta":30214529},{"NoteNumber":56,"Velocity":37,"Duration":102849,"SoundDuration":102849,"Delta":30214529},{"NoteNumber":64,"Velocity":47,"Duration":104398,"SoundDuration":104398,"Delta":30317379},{"NoteNumber":60,"Velocity":38,"Duration":104398,"SoundDuration":104398,"Delta":30317379},{"NoteNumber":72,"Velocity":48,"Duration":111127,"SoundDuration":111127,"Delta":30421778},{"NoteNumber":56,"Velocity":38,"Duration":111127,"SoundDuration":111127,"Delta":30421778},{"NoteNumber":76,"Velocity":49,"Duration":110219,"SoundDuration":110219,"Delta":30532905},{"NoteNumber":52,"Velocity":39,"Duration":110219,"SoundDuration":110219,"Delta":30532905},{"NoteNumber":80,"Velocity":80,"Duration":609579,"SoundDuration":609579,"Delta":30643125},{"NoteNumber":37,"Velocity":48,"Duration":102543,"SoundDuration":102543,"Delta":30643125},{"NoteNumber":73,"Velocity":41,"Duration":102239,"SoundDuration":102239,"Delta":30745668},{"NoteNumber":56,"Velocity":34,"Duration":102239,"SoundDuration":102239,"Delta":30745668},{"NoteNumber":77,"Velocity":41,"Duration":101936,"SoundDuration":101936,"Delta":30847908},{"NoteNumber":61,"Velocity":34,"Duration":101936,"SoundDuration":101936,"Delta":30847908},{"NoteNumber":68,"Velocity":42,"Duration":101051,"SoundDuration":101051,"Delta":30949845},{"NoteNumber":65,"Velocity":34,"Duration":101051,"SoundDuration":101051,"Delta":30949845},{"NoteNumber":73,"Velocity":42,"Duration":100755,"SoundDuration":100755,"Delta":31050897},{"NoteNumber":61,"Velocity":36,"Duration":100755,"SoundDuration":100755,"Delta":31050897},{"NoteNumber":77,"Velocity":42,"Duration":101051,"SoundDuration":101051,"Delta":31151652},{"NoteNumber":56,"Velocity":36,"Duration":101051,"SoundDuration":101051,"Delta":31151652},{"NoteNumber":80,"Velocity":81,"Duration":604548,"SoundDuration":604548,"Delta":31252704},{"NoteNumber":49,"Velocity":40,"Duration":101348,"SoundDuration":101348,"Delta":31252704},{"NoteNumber":73,"Velocity":44,"Duration":101348,"SoundDuration":101348,"Delta":31354052},{"NoteNumber":56,"Velocity":37,"Duration":101348,"SoundDuration":101348,"Delta":31354052},{"NoteNumber":77,"Velocity":44,"Duration":100755,"SoundDuration":100755,"Delta":31455400},{"NoteNumber":61,"Velocity":37,"Duration":100755,"SoundDuration":100755,"Delta":31455400},{"NoteNumber":68,"Velocity":45,"Duration":100755,"SoundDuration":100755,"Delta":31556156},{"NoteNumber":65,"Velocity":37,"Duration":100755,"SoundDuration":100755,"Delta":31556156},{"NoteNumber":73,"Velocity":45,"Duration":100170,"SoundDuration":100170,"Delta":31656912},{"NoteNumber":61,"Velocity":37,"Duration":100170,"SoundDuration":100170,"Delta":31656912},{"NoteNumber":77,"Velocity":45,"Duration":100170,"SoundDuration":100170,"Delta":31757082},{"NoteNumber":56,"Velocity":38,"Duration":100170,"SoundDuration":100170,"Delta":31757082},{"NoteNumber":80,"Velocity":84,"Duration":597549,"SoundDuration":597549,"Delta":31857252},{"NoteNumber":49,"Velocity":38,"Duration":99591,"SoundDuration":99591,"Delta":31857252},{"NoteNumber":73,"Velocity":46,"Duration":99591,"SoundDuration":99591,"Delta":31956844},{"NoteNumber":56,"Velocity":38,"Duration":99591,"SoundDuration":99591,"Delta":31956844},{"NoteNumber":77,"Velocity":46,"Duration":99591,"SoundDuration":99591,"Delta":32056436},{"NoteNumber":61,"Velocity":39,"Duration":99591,"SoundDuration":99591,"Delta":32056436},{"NoteNumber":68,"Velocity":47,"Duration":99591,"SoundDuration":99591,"Delta":32156027},{"NoteNumber":65,"Velocity":39,"Duration":99591,"SoundDuration":99591,"Delta":32156027},{"NoteNumber":73,"Velocity":47,"Duration":99591,"SoundDuration":99591,"Delta":32255619},{"NoteNumber":61,"Velocity":39,"Duration":99591,"SoundDuration":99591,"Delta":32255619},{"NoteNumber":77,"Velocity":47,"Duration":99591,"SoundDuration":99591,"Delta":32355211},{"NoteNumber":56,"Velocity":39,"Duration":99591,"SoundDuration":99591,"Delta":32355211},{"NoteNumber":82,"Velocity":84,"Duration":613034,"SoundDuration":613034,"Delta":32454802},{"NoteNumber":49,"Velocity":41,"Duration":100170,"SoundDuration":100170,"Delta":32454802},{"NoteNumber":73,"Velocity":48,"Duration":100170,"SoundDuration":100170,"Delta":32554973},{"NoteNumber":55,"Velocity":40,"Duration":100170,"SoundDuration":100170,"Delta":32554973},{"NoteNumber":77,"Velocity":48,"Duration":100316,"SoundDuration":100316,"Delta":32655143},{"NoteNumber":61,"Velocity":40,"Duration":100316,"SoundDuration":100316,"Delta":32655143},{"NoteNumber":67,"Velocity":49,"Duration":101793,"SoundDuration":101793,"Delta":32755460},{"NoteNumber":65,"Velocity":41,"Duration":101793,"SoundDuration":101793,"Delta":32755460},{"NoteNumber":73,"Velocity":49,"Duration":103308,"SoundDuration":103308,"Delta":32857254},{"NoteNumber":61,"Velocity":41,"Duration":103308,"SoundDuration":103308,"Delta":32857254},{"NoteNumber":77,"Velocity":49,"Duration":107275,"SoundDuration":107275,"Delta":32960562},{"NoteNumber":55,"Velocity":41,"Duration":107275,"SoundDuration":107275,"Delta":32960562},{"NoteNumber":84,"Velocity":88,"Duration":606018,"SoundDuration":606018,"Delta":33067837},{"NoteNumber":48,"Velocity":55,"Duration":101348,"SoundDuration":101348,"Delta":33067837},{"NoteNumber":72,"Velocity":44,"Duration":101348,"SoundDuration":101348,"Delta":33169185},{"NoteNumber":55,"Velocity":42,"Duration":101348,"SoundDuration":101348,"Delta":33169185},{"NoteNumber":77,"Velocity":44,"Duration":101347,"SoundDuration":101347,"Delta":33270533},{"NoteNumber":60,"Velocity":42,"Duration":101347,"SoundDuration":101347,"Delta":33270533},{"NoteNumber":67,"Velocity":42,"Duration":100755,"SoundDuration":100755,"Delta":33371881},{"NoteNumber":65,"Velocity":41,"Duration":100755,"SoundDuration":100755,"Delta":33371881},{"NoteNumber":72,"Velocity":42,"Duration":100755,"SoundDuration":100755,"Delta":33472637},{"NoteNumber":60,"Velocity":41,"Duration":100755,"SoundDuration":100755,"Delta":33472637},{"NoteNumber":77,"Velocity":41,"Duration":100462,"SoundDuration":100462,"Delta":33573393},{"NoteNumber":55,"Velocity":39,"Duration":100462,"SoundDuration":100462,"Delta":33573393},{"NoteNumber":79,"Velocity":82,"Duration":598216,"SoundDuration":598216,"Delta":33673856},{"NoteNumber":48,"Velocity":39,"Duration":99029,"SoundDuration":99029,"Delta":33673856},{"NoteNumber":72,"Velocity":40,"Duration":99029,"SoundDuration":99029,"Delta":33772885},{"NoteNumber":55,"Velocity":38,"Duration":99029,"SoundDuration":99029,"Delta":33772885},{"NoteNumber":77,"Velocity":40,"Duration":101348,"SoundDuration":101348,"Delta":33871915},{"NoteNumber":60,"Velocity":38,"Duration":101348,"SoundDuration":101348,"Delta":33871915},{"NoteNumber":67,"Velocity":40,"Duration":100462,"SoundDuration":100462,"Delta":33973263},{"NoteNumber":65,"Velocity":38,"Duration":100462,"SoundDuration":100462,"Delta":33973263},{"NoteNumber":72,"Velocity":39,"Duration":98746,"SoundDuration":98746,"Delta":34073726},{"NoteNumber":60,"Velocity":36,"Duration":98746,"SoundDuration":98746,"Delta":34073726},{"NoteNumber":77,"Velocity":39,"Duration":99599,"SoundDuration":99599,"Delta":34172472},{"NoteNumber":55,"Velocity":36,"Duration":99599,"SoundDuration":99599,"Delta":34172472},{"NoteNumber":79,"Velocity":80,"Duration":604303,"SoundDuration":604303,"Delta":34272072},{"NoteNumber":48,"Velocity":35,"Duration":101348,"SoundDuration":101348,"Delta":34272072},{"NoteNumber":72,"Velocity":37,"Duration":100463,"SoundDuration":100463,"Delta":34373420},{"NoteNumber":55,"Velocity":35,"Duration":100463,"SoundDuration":100463,"Delta":34373420},{"NoteNumber":76,"Velocity":36,"Duration":98746,"SoundDuration":98746,"Delta":34473883},{"NoteNumber":60,"Velocity":34,"Duration":98746,"SoundDuration":98746,"Delta":34473883},{"NoteNumber":67,"Velocity":36,"Duration":100462,"SoundDuration":100462,"Delta":34572630},{"NoteNumber":64,"Velocity":34,"Duration":100462,"SoundDuration":100462,"Delta":34572630},{"NoteNumber":72,"Velocity":36,"Duration":101936,"SoundDuration":101936,"Delta":34673093},{"NoteNumber":60,"Velocity":33,"Duration":101936,"SoundDuration":101936,"Delta":34673093},{"NoteNumber":76,"Velocity":34,"Duration":101346,"SoundDuration":101346,"Delta":34775030},{"NoteNumber":55,"Velocity":31,"Duration":101346,"SoundDuration":101346,"Delta":34775030},{"NoteNumber":79,"Velocity":71,"Duration":640414,"SoundDuration":640414,"Delta":34876376},{"NoteNumber":48,"Velocity":36,"Duration":100469,"SoundDuration":100469,"Delta":34876376},{"NoteNumber":72,"Velocity":33,"Duration":101642,"SoundDuration":101642,"Delta":34976846},{"NoteNumber":55,"Velocity":29,"Duration":101642,"SoundDuration":101642,"Delta":34976846},{"NoteNumber":76,"Velocity":33,"Duration":102849,"SoundDuration":102849,"Delta":35078488},{"NoteNumber":60,"Velocity":29,"Duration":102849,"SoundDuration":102849,"Delta":35078488},{"NoteNumber":67,"Velocity":31,"Duration":105704,"SoundDuration":105704,"Delta":35181338},{"NoteNumber":64,"Velocity":29,"Duration":105704,"SoundDuration":105704,"Delta":35181338},{"NoteNumber":72,"Velocity":31,"Duration":114816,"SoundDuration":114816,"Delta":35287043},{"NoteNumber":60,"Velocity":28,"Duration":114816,"SoundDuration":114816,"Delta":35287043},{"NoteNumber":76,"Velocity":31,"Duration":114931,"SoundDuration":114931,"Delta":35401859},{"NoteNumber":55,"Velocity":28,"Duration":114931,"SoundDuration":114931,"Delta":35401859},{"NoteNumber":79,"Velocity":64,"Duration":637465,"SoundDuration":637465,"Delta":35516790},{"NoteNumber":43,"Velocity":41,"Duration":106951,"SoundDuration":106951,"Delta":35516790},{"NoteNumber":71,"Velocity":28,"Duration":106667,"SoundDuration":106667,"Delta":35623742},{"NoteNumber":50,"Velocity":25,"Duration":106667,"SoundDuration":106667,"Delta":35623742},{"NoteNumber":76,"Velocity":28,"Duration":106383,"SoundDuration":106383,"Delta":35730410},{"NoteNumber":55,"Velocity":25,"Duration":106383,"SoundDuration":106383,"Delta":35730410},{"NoteNumber":65,"Velocity":33,"Duration":106101,"SoundDuration":106101,"Delta":35836793},{"NoteNumber":59,"Velocity":26,"Duration":106101,"SoundDuration":106101,"Delta":35836793},{"NoteNumber":71,"Velocity":29,"Duration":105820,"SoundDuration":105820,"Delta":35942894},{"NoteNumber":55,"Velocity":26,"Duration":105820,"SoundDuration":105820,"Delta":35942894},{"NoteNumber":76,"Velocity":29,"Duration":105541,"SoundDuration":105541,"Delta":36048714},{"NoteNumber":50,"Velocity":26,"Duration":105541,"SoundDuration":105541,"Delta":36048714},{"NoteNumber":79,"Velocity":66,"Duration":628367,"SoundDuration":628367,"Delta":36154256},{"NoteNumber":43,"Velocity":28,"Duration":106976,"SoundDuration":106976,"Delta":36154256},{"NoteNumber":71,"Velocity":28,"Duration":105188,"SoundDuration":105188,"Delta":36261233},{"NoteNumber":50,"Velocity":26,"Duration":105188,"SoundDuration":105188,"Delta":36261233},{"NoteNumber":74,"Velocity":28,"Duration":103696,"SoundDuration":103696,"Delta":36366421},{"NoteNumber":55,"Velocity":26,"Duration":103696,"SoundDuration":103696,"Delta":36366421},{"NoteNumber":65,"Velocity":28,"Duration":103626,"SoundDuration":103626,"Delta":36470118},{"NoteNumber":59,"Velocity":27,"Duration":103626,"SoundDuration":103626,"Delta":36470118},{"NoteNumber":71,"Velocity":28,"Duration":104166,"SoundDuration":104166,"Delta":36573745},{"NoteNumber":55,"Velocity":27,"Duration":104166,"SoundDuration":104166,"Delta":36573745},{"NoteNumber":74,"Velocity":28,"Duration":104711,"SoundDuration":104711,"Delta":36677912},{"NoteNumber":50,"Velocity":27,"Duration":104711,"SoundDuration":104711,"Delta":36677912},{"NoteNumber":79,"Velocity":68,"Duration":637361,"SoundDuration":637361,"Delta":36782624},{"NoteNumber":43,"Velocity":27,"Duration":107888,"SoundDuration":107888,"Delta":36782624},{"NoteNumber":71,"Velocity":29,"Duration":106731,"SoundDuration":106731,"Delta":36890512},{"NoteNumber":50,"Velocity":27,"Duration":106731,"SoundDuration":106731,"Delta":36890512},{"NoteNumber":77,"Velocity":29,"Duration":105266,"SoundDuration":105266,"Delta":36997243},{"NoteNumber":55,"Velocity":27,"Duration":105266,"SoundDuration":105266,"Delta":36997243},{"NoteNumber":65,"Velocity":29,"Duration":104987,"SoundDuration":104987,"Delta":37102510},{"NoteNumber":62,"Velocity":27,"Duration":104987,"SoundDuration":104987,"Delta":37102510},{"NoteNumber":71,"Velocity":29,"Duration":105820,"SoundDuration":105820,"Delta":37207497},{"NoteNumber":55,"Velocity":27,"Duration":105820,"SoundDuration":105820,"Delta":37207497},{"NoteNumber":77,"Velocity":28,"Duration":106667,"SoundDuration":106667,"Delta":37313317},{"NoteNumber":50,"Velocity":27,"Duration":106667,"SoundDuration":106667,"Delta":37313317},{"NoteNumber":79,"Velocity":60,"Duration":654960,"SoundDuration":654960,"Delta":37419985},{"NoteNumber":43,"Velocity":27,"Duration":107239,"SoundDuration":107239,"Delta":37419985},{"NoteNumber":71,"Velocity":28,"Duration":107708,"SoundDuration":107708,"Delta":37527224},{"NoteNumber":50,"Velocity":28,"Duration":107708,"SoundDuration":107708,"Delta":37527224},{"NoteNumber":76,"Velocity":28,"Duration":105831,"SoundDuration":105831,"Delta":37634933},{"NoteNumber":55,"Velocity":28,"Duration":105831,"SoundDuration":105831,"Delta":37634933},{"NoteNumber":65,"Velocity":30,"Duration":106201,"SoundDuration":106201,"Delta":37740764},{"NoteNumber":62,"Velocity":26,"Duration":106201,"SoundDuration":106201,"Delta":37740764},{"NoteNumber":71,"Velocity":30,"Duration":111180,"SoundDuration":111180,"Delta":37846965},{"NoteNumber":55,"Velocity":26,"Duration":111180,"SoundDuration":111180,"Delta":37846965},{"NoteNumber":76,"Velocity":33,"Duration":116799,"SoundDuration":116799,"Delta":37958146},{"NoteNumber":50,"Velocity":26,"Duration":116799,"SoundDuration":116799,"Delta":37958146},{"NoteNumber":74,"Velocity":53,"Duration":634088,"SoundDuration":634088,"Delta":38074946},{"NoteNumber":36,"Velocity":44,"Duration":106101,"SoundDuration":106101,"Delta":38074946},{"NoteNumber":65,"Velocity":25,"Duration":105820,"SoundDuration":105820,"Delta":38181047},{"NoteNumber":43,"Velocity":23,"Duration":105820,"SoundDuration":105820,"Delta":38181047},{"NoteNumber":67,"Velocity":25,"Duration":105820,"SoundDuration":105820,"Delta":38286867},{"NoteNumber":48,"Velocity":25,"Duration":105820,"SoundDuration":105820,"Delta":38286867},{"NoteNumber":60,"Velocity":25,"Duration":105820,"SoundDuration":105820,"Delta":38392687},{"NoteNumber":55,"Velocity":25,"Duration":105820,"SoundDuration":105820,"Delta":38392687},{"NoteNumber":65,"Velocity":26,"Duration":105263,"SoundDuration":105263,"Delta":38498508},{"NoteNumber":48,"Velocity":26,"Duration":105263,"SoundDuration":105263,"Delta":38498508},{"NoteNumber":67,"Velocity":27,"Duration":105263,"SoundDuration":105263,"Delta":38603771},{"NoteNumber":43,"Velocity":26,"Duration":105263,"SoundDuration":105263,"Delta":38603771},{"NoteNumber":72,"Velocity":52,"Duration":631869,"SoundDuration":631869,"Delta":38709034},{"NoteNumber":36,"Velocity":24,"Duration":105263,"SoundDuration":105263,"Delta":38709034},{"NoteNumber":64,"Velocity":26,"Duration":104987,"SoundDuration":104987,"Delta":38814297},{"NoteNumber":43,"Velocity":24,"Duration":104987,"SoundDuration":104987,"Delta":38814297},{"NoteNumber":67,"Velocity":26,"Duration":104987,"SoundDuration":104987,"Delta":38919285},{"NoteNumber":48,"Velocity":24,"Duration":104987,"SoundDuration":104987,"Delta":38919285},{"NoteNumber":60,"Velocity":26,"Duration":104987,"SoundDuration":104987,"Delta":39024272},{"NoteNumber":55,"Velocity":25,"Duration":104987,"SoundDuration":104987,"Delta":39024272},{"NoteNumber":64,"Velocity":26,"Duration":105541,"SoundDuration":105541,"Delta":39129260},{"NoteNumber":48,"Velocity":25,"Duration":105541,"SoundDuration":105541,"Delta":39129260},{"NoteNumber":67,"Velocity":26,"Duration":106101,"SoundDuration":106101,"Delta":39234802},{"NoteNumber":43,"Velocity":25,"Duration":106101,"SoundDuration":106101,"Delta":39234802},{"NoteNumber":72,"Velocity":53,"Duration":642223,"SoundDuration":642223,"Delta":39340903},{"NoteNumber":36,"Velocity":26,"Duration":106383,"SoundDuration":106383,"Delta":39340903},{"NoteNumber":62,"Velocity":26,"Duration":105820,"SoundDuration":105820,"Delta":39447286},{"NoteNumber":43,"Velocity":26,"Duration":105820,"SoundDuration":105820,"Delta":39447286},{"NoteNumber":67,"Velocity":26,"Duration":106667,"SoundDuration":106667,"Delta":39553106},{"NoteNumber":48,"Velocity":26,"Duration":106667,"SoundDuration":106667,"Delta":39553106},{"NoteNumber":60,"Velocity":26,"Duration":107239,"SoundDuration":107239,"Delta":39659774},{"NoteNumber":55,"Velocity":26,"Duration":107239,"SoundDuration":107239,"Delta":39659774},{"NoteNumber":62,"Velocity":26,"Duration":108138,"SoundDuration":108138,"Delta":39767013},{"NoteNumber":48,"Velocity":25,"Duration":108138,"SoundDuration":108138,"Delta":39767013},{"NoteNumber":67,"Velocity":25,"Duration":107974,"SoundDuration":107974,"Delta":39875152},{"NoteNumber":43,"Velocity":24,"Duration":107974,"SoundDuration":107974,"Delta":39875152},{"NoteNumber":72,"Velocity":47,"Duration":647752,"SoundDuration":647752,"Delta":39983127},{"NoteNumber":36,"Velocity":24,"Duration":108483,"SoundDuration":108483,"Delta":39983127},{"NoteNumber":64,"Velocity":25,"Duration":106649,"SoundDuration":106649,"Delta":40091610},{"NoteNumber":43,"Velocity":23,"Duration":106649,"SoundDuration":106649,"Delta":40091610},{"NoteNumber":67,"Velocity":25,"Duration":104714,"SoundDuration":104714,"Delta":40198259},{"NoteNumber":48,"Velocity":25,"Duration":104714,"SoundDuration":104714,"Delta":40198259},{"NoteNumber":60,"Velocity":24,"Duration":105679,"SoundDuration":105679,"Delta":40302973},{"NoteNumber":55,"Velocity":23,"Duration":160003,"SoundDuration":160003,"Delta":40302973},{"NoteNumber":64,"Velocity":22,"Duration":109690,"SoundDuration":109690,"Delta":40408652},{"NoteNumber":48,"Velocity":19,"Duration":167901,"SoundDuration":167901,"Delta":40462977},{"NoteNumber":67,"Velocity":20,"Duration":112536,"SoundDuration":112536,"Delta":40518342},{"NoteNumber":72,"Velocity":49,"Duration":698717,"SoundDuration":698717,"Delta":40630879},{"NoteNumber":40,"Velocity":39,"Duration":180525,"SoundDuration":180525,"Delta":40630879},{"NoteNumber":67,"Velocity":22,"Duration":119105,"SoundDuration":119105,"Delta":40751646},{"NoteNumber":48,"Velocity":24,"Duration":176843,"SoundDuration":176843,"Delta":40811404},{"NoteNumber":70,"Velocity":22,"Duration":117496,"SoundDuration":117496,"Delta":40870752},{"NoteNumber":60,"Velocity":22,"Duration":115538,"SoundDuration":115538,"Delta":40988248},{"NoteNumber":58,"Velocity":33,"Duration":172544,"SoundDuration":172544,"Delta":40988248},{"NoteNumber":67,"Velocity":22,"Duration":113637,"SoundDuration":113637,"Delta":41103787},{"NoteNumber":48,"Velocity":24,"Duration":168803,"SoundDuration":168803,"Delta":41160793},{"NoteNumber":70,"Velocity":23,"Duration":112171,"SoundDuration":112171,"Delta":41217424},{"NoteNumber":72,"Velocity":44,"Duration":650302,"SoundDuration":650302,"Delta":41329596},{"NoteNumber":40,"Velocity":26,"Duration":165228,"SoundDuration":165228,"Delta":41329596},{"NoteNumber":67,"Velocity":23,"Duration":109338,"SoundDuration":109338,"Delta":41439982},{"NoteNumber":48,"Velocity":24,"Duration":163145,"SoundDuration":163145,"Delta":41494824},{"NoteNumber":70,"Velocity":24,"Duration":108649,"SoundDuration":108649,"Delta":41549320},{"NoteNumber":60,"Velocity":24,"Duration":107974,"SoundDuration":107974,"Delta":41657970},{"NoteNumber":58,"Velocity":33,"Duration":161796,"SoundDuration":161796,"Delta":41657970},{"NoteNumber":67,"Velocity":24,"Duration":107308,"SoundDuration":107308,"Delta":41765945},{"NoteNumber":48,"Velocity":24,"Duration":160132,"SoundDuration":160132,"Delta":41819766},{"NoteNumber":70,"Velocity":24,"Duration":106645,"SoundDuration":106645,"Delta":41873253},{"NoteNumber":73,"Velocity":51,"Duration":633980,"SoundDuration":633980,"Delta":41979898},{"NoteNumber":40,"Velocity":27,"Duration":158495,"SoundDuration":158495,"Delta":41979898},{"NoteNumber":67,"Velocity":26,"Duration":105663,"SoundDuration":105663,"Delta":42085562},{"NoteNumber":48,"Velocity":24,"Duration":158495,"SoundDuration":158495,"Delta":42138394},{"NoteNumber":70,"Velocity":26,"Duration":105663,"SoundDuration":105663,"Delta":42191225},{"NoteNumber":60,"Velocity":26,"Duration":105663,"SoundDuration":105663,"Delta":42296889},{"NoteNumber":58,"Velocity":33,"Duration":158495,"SoundDuration":158495,"Delta":42296889},{"NoteNumber":67,"Velocity":27,"Duration":105663,"SoundDuration":105663,"Delta":42402552},{"NoteNumber":48,"Velocity":24,"Duration":158495,"SoundDuration":158495,"Delta":42455384},{"NoteNumber":70,"Velocity":27,"Duration":105663,"SoundDuration":105663,"Delta":42508216},{"NoteNumber":72,"Velocity":49,"Duration":643928,"SoundDuration":643928,"Delta":42613879},{"NoteNumber":40,"Velocity":27,"Duration":158495,"SoundDuration":158495,"Delta":42613879},{"NoteNumber":67,"Velocity":27,"Duration":105989,"SoundDuration":105989,"Delta":42719543},{"NoteNumber":48,"Velocity":24,"Duration":159802,"SoundDuration":159802,"Delta":42772375},{"NoteNumber":70,"Velocity":28,"Duration":106645,"SoundDuration":106645,"Delta":42825532},{"NoteNumber":60,"Velocity":28,"Duration":107642,"SoundDuration":107642,"Delta":42932177},{"NoteNumber":58,"Velocity":35,"Duration":161796,"SoundDuration":161796,"Delta":42932177},{"NoteNumber":67,"Velocity":28,"Duration":108649,"SoundDuration":108649,"Delta":43039820},{"NoteNumber":48,"Velocity":24,"Duration":163834,"SoundDuration":163834,"Delta":43093973},{"NoteNumber":70,"Velocity":28,"Duration":109338,"SoundDuration":109338,"Delta":43148469},{"NoteNumber":72,"Velocity":52,"Duration":638196,"SoundDuration":638196,"Delta":43257808},{"NoteNumber":41,"Velocity":34,"Duration":164871,"SoundDuration":164871,"Delta":43257808},{"NoteNumber":65,"Velocity":28,"Duration":108317,"SoundDuration":108317,"Delta":43368183},{"NoteNumber":48,"Velocity":27,"Duration":160140,"SoundDuration":160140,"Delta":43422679},{"NoteNumber":70,"Velocity":28,"Duration":106319,"SoundDuration":106319,"Delta":43476500},{"NoteNumber":60,"Velocity":29,"Duration":104394,"SoundDuration":104394,"Delta":43582820},{"NoteNumber":58,"Velocity":36,"Duration":156592,"SoundDuration":156592,"Delta":43582820},{"NoteNumber":65,"Velocity":29,"Duration":104395,"SoundDuration":104395,"Delta":43687215},{"NoteNumber":48,"Velocity":27,"Duration":156592,"SoundDuration":156592,"Delta":43739412},{"NoteNumber":70,"Velocity":29,"Duration":104394,"SoundDuration":104394,"Delta":43791610},{"NoteNumber":74,"Velocity":55,"Duration":620463,"SoundDuration":620463,"Delta":43896005},{"NoteNumber":41,"Velocity":30,"Duration":155650,"SoundDuration":155650,"Delta":43896005},{"NoteNumber":65,"Velocity":30,"Duration":103766,"SoundDuration":103766,"Delta":43999771},{"NoteNumber":48,"Velocity":28,"Duration":155650,"SoundDuration":155650,"Delta":44051655},{"NoteNumber":68,"Velocity":31,"Duration":103766,"SoundDuration":103766,"Delta":44103538},{"NoteNumber":60,"Velocity":31,"Duration":103156,"SoundDuration":103156,"Delta":44207305},{"NoteNumber":56,"Velocity":37,"Duration":154735,"SoundDuration":154735,"Delta":44207305},{"NoteNumber":65,"Velocity":31,"Duration":103156,"SoundDuration":103156,"Delta":44310461},{"NoteNumber":48,"Velocity":28,"Duration":154428,"SoundDuration":154428,"Delta":44362040},{"NoteNumber":68,"Velocity":33,"Duration":102849,"SoundDuration":102849,"Delta":44413618},{"NoteNumber":76,"Velocity":58,"Duration":610804,"SoundDuration":610804,"Delta":44516468},{"NoteNumber":41,"Velocity":33,"Duration":152619,"SoundDuration":152619,"Delta":44516468},{"NoteNumber":67,"Velocity":34,"Duration":101051,"SoundDuration":101051,"Delta":44618413},{"NoteNumber":48,"Velocity":29,"Duration":152334,"SoundDuration":152334,"Delta":44669087},{"NoteNumber":72,"Velocity":34,"Duration":101956,"SoundDuration":101956,"Delta":44719465},{"NoteNumber":60,"Velocity":34,"Duration":103156,"SoundDuration":103156,"Delta":44821421},{"NoteNumber":55,"Velocity":37,"Duration":154125,"SoundDuration":154125,"Delta":44821421},{"NoteNumber":67,"Velocity":35,"Duration":101642,"SoundDuration":101642,"Delta":44924578},{"NoteNumber":48,"Velocity":29,"Duration":151725,"SoundDuration":151725,"Delta":44975546},{"NoteNumber":72,"Velocity":35,"Duration":101051,"SoundDuration":101051,"Delta":45026220},{"NoteNumber":77,"Velocity":60,"Duration":608408,"SoundDuration":608408,"Delta":45127272},{"NoteNumber":41,"Velocity":34,"Duration":153227,"SoundDuration":153227,"Delta":45127272},{"NoteNumber":68,"Velocity":36,"Duration":102252,"SoundDuration":102252,"Delta":45228922},{"NoteNumber":48,"Velocity":30,"Duration":151136,"SoundDuration":151136,"Delta":45280500},{"NoteNumber":72,"Velocity":36,"Duration":100462,"SoundDuration":100462,"Delta":45331174},{"NoteNumber":60,"Velocity":37,"Duration":101348,"SoundDuration":101348,"Delta":45431637},{"NoteNumber":53,"Velocity":39,"Duration":152022,"SoundDuration":152022,"Delta":45431637},{"NoteNumber":68,"Velocity":37,"Duration":101348,"SoundDuration":101348,"Delta":45532985},{"NoteNumber":48,"Velocity":30,"Duration":152021,"SoundDuration":152021,"Delta":45583659},{"NoteNumber":72,"Velocity":37,"Duration":101347,"SoundDuration":101347,"Delta":45634333},{"NoteNumber":75,"Velocity":59,"Duration":608382,"SoundDuration":608382,"Delta":45735681},{"NoteNumber":43,"Velocity":42,"Duration":152022,"SoundDuration":152022,"Delta":45735681},{"NoteNumber":70,"Velocity":35,"Duration":101348,"SoundDuration":101348,"Delta":45837029},{"NoteNumber":51,"Velocity":30,"Duration":152022,"SoundDuration":152022,"Delta":45887703},{"NoteNumber":73,"Velocity":35,"Duration":101348,"SoundDuration":101348,"Delta":45938377},{"NoteNumber":63,"Velocity":36,"Duration":101347,"SoundDuration":101347,"Delta":46039725},{"NoteNumber":61,"Velocity":40,"Duration":152021,"SoundDuration":152021,"Delta":46039725},{"NoteNumber":70,"Velocity":36,"Duration":101348,"SoundDuration":101348,"Delta":46141073},{"NoteNumber":51,"Velocity":30,"Duration":152316,"SoundDuration":152316,"Delta":46191747},{"NoteNumber":73,"Velocity":37,"Duration":101642,"SoundDuration":101642,"Delta":46242421},{"NoteNumber":75,"Velocity":67,"Duration":609263,"SoundDuration":609263,"Delta":46344063},{"NoteNumber":43,"Velocity":35,"Duration":152905,"SoundDuration":152905,"Delta":46344063},{"NoteNumber":70,"Velocity":38,"Duration":101936,"SoundDuration":101936,"Delta":46446000},{"NoteNumber":51,"Velocity":31,"Duration":152610,"SoundDuration":152610,"Delta":46496969},{"NoteNumber":73,"Velocity":38,"Duration":101642,"SoundDuration":101642,"Delta":46547937},{"NoteNumber":63,"Velocity":38,"Duration":101348,"SoundDuration":101348,"Delta":46649579},{"NoteNumber":61,"Velocity":42,"Duration":152022,"SoundDuration":152022,"Delta":46649579},{"NoteNumber":70,"Velocity":39,"Duration":101347,"SoundDuration":101347,"Delta":46750927},{"NoteNumber":51,"Velocity":33,"Duration":151725,"SoundDuration":151725,"Delta":46801601},{"NoteNumber":73,"Velocity":39,"Duration":101051,"SoundDuration":101051,"Delta":46852275},{"NoteNumber":77,"Velocity":70,"Duration":604241,"SoundDuration":604241,"Delta":46953327},{"NoteNumber":43,"Velocity":38,"Duration":151133,"SoundDuration":151133,"Delta":46953327},{"NoteNumber":70,"Velocity":40,"Duration":100755,"SoundDuration":100755,"Delta":47054083},{"NoteNumber":51,"Velocity":34,"Duration":151133,"SoundDuration":151133,"Delta":47104461},{"NoteNumber":73,"Velocity":41,"Duration":100755,"SoundDuration":100755,"Delta":47154839},{"NoteNumber":63,"Velocity":41,"Duration":100755,"SoundDuration":100755,"Delta":47255594},{"NoteNumber":61,"Velocity":44,"Duration":151133,"SoundDuration":151133,"Delta":47255594},{"NoteNumber":70,"Velocity":42,"Duration":100755,"SoundDuration":100755,"Delta":47356350},{"NoteNumber":51,"Velocity":34,"Duration":150840,"SoundDuration":150840,"Delta":47406728},{"NoteNumber":73,"Velocity":42,"Duration":100463,"SoundDuration":100463,"Delta":47457106},{"NoteNumber":75,"Velocity":66,"Duration":614699,"SoundDuration":614699,"Delta":47557569},{"NoteNumber":43,"Velocity":35,"Duration":150548,"SoundDuration":150548,"Delta":47557569},{"NoteNumber":70,"Velocity":44,"Duration":100755,"SoundDuration":100755,"Delta":47657739},{"NoteNumber":51,"Velocity":30,"Duration":151340,"SoundDuration":151340,"Delta":47708117},{"NoteNumber":73,"Velocity":42,"Duration":100962,"SoundDuration":100962,"Delta":47758495},{"NoteNumber":63,"Velocity":41,"Duration":102575,"SoundDuration":102575,"Delta":47859457},{"NoteNumber":61,"Velocity":39,"Duration":154459,"SoundDuration":154459,"Delta":47859457},{"NoteNumber":70,"Velocity":40,"Duration":104208,"SoundDuration":104208,"Delta":47962033},{"NoteNumber":51,"Velocity":30,"Duration":158351,"SoundDuration":158351,"Delta":48013917},{"NoteNumber":73,"Velocity":39,"Duration":106026,"SoundDuration":106026,"Delta":48066241},{"NoteNumber":75,"Velocity":72,"Duration":609875,"SoundDuration":609875,"Delta":48172268},{"NoteNumber":44,"Velocity":38,"Duration":153814,"SoundDuration":153814,"Delta":48172268},{"NoteNumber":68,"Velocity":36,"Duration":102239,"SoundDuration":102239,"Delta":48274811},{"NoteNumber":51,"Velocity":30,"Duration":152905,"SoundDuration":152905,"Delta":48326082},{"NoteNumber":73,"Velocity":36,"Duration":101936,"SoundDuration":101936,"Delta":48377051},{"NoteNumber":63,"Velocity":37,"Duration":101348,"SoundDuration":101348,"Delta":48478988},{"NoteNumber":61,"Velocity":40,"Duration":152022,"SoundDuration":152022,"Delta":48478988},{"NoteNumber":68,"Velocity":37,"Duration":101051,"SoundDuration":101051,"Delta":48580336},{"NoteNumber":51,"Velocity":31,"Duration":151133,"SoundDuration":151133,"Delta":48631010},{"NoteNumber":73,"Velocity":38,"Duration":100755,"SoundDuration":100755,"Delta":48681387},{"NoteNumber":77,"Velocity":75,"Duration":599074,"SoundDuration":599074,"Delta":48782143},{"NoteNumber":44,"Velocity":35,"Duration":148542,"SoundDuration":148542,"Delta":48782143},{"NoteNumber":68,"Velocity":39,"Duration":98463,"SoundDuration":98463,"Delta":48881454},{"NoteNumber":51,"Velocity":31,"Duration":149987,"SoundDuration":149987,"Delta":48930686},{"NoteNumber":72,"Velocity":39,"Duration":100755,"SoundDuration":100755,"Delta":48979918},{"NoteNumber":63,"Velocity":39,"Duration":100463,"SoundDuration":100463,"Delta":49080673},{"NoteNumber":60,"Velocity":40,"Duration":149977,"SoundDuration":149977,"Delta":49080673},{"NoteNumber":68,"Velocity":40,"Duration":99029,"SoundDuration":99029,"Delta":49181136},{"NoteNumber":51,"Velocity":33,"Duration":150566,"SoundDuration":150566,"Delta":49230651},{"NoteNumber":72,"Velocity":40,"Duration":101051,"SoundDuration":101051,"Delta":49280166},{"NoteNumber":79,"Velocity":80,"Duration":598449,"SoundDuration":598449,"Delta":49381218},{"NoteNumber":44,"Velocity":38,"Duration":149977,"SoundDuration":149977,"Delta":49381218},{"NoteNumber":68,"Velocity":41,"Duration":99029,"SoundDuration":99029,"Delta":49481681},{"NoteNumber":51,"Velocity":34,"Duration":149114,"SoundDuration":149114,"Delta":49531195},{"NoteNumber":72,"Velocity":42,"Duration":99599,"SoundDuration":99599,"Delta":49580710},{"NoteNumber":63,"Velocity":42,"Duration":100173,"SoundDuration":100173,"Delta":49680310},{"NoteNumber":58,"Velocity":42,"Duration":149969,"SoundDuration":149969,"Delta":49680310},{"NoteNumber":68,"Velocity":44,"Duration":99591,"SoundDuration":99591,"Delta":49780484},{"NoteNumber":51,"Velocity":35,"Duration":149387,"SoundDuration":149387,"Delta":49830280},{"NoteNumber":72,"Velocity":44,"Duration":99591,"SoundDuration":99591,"Delta":49880075},{"NoteNumber":80,"Velocity":82,"Duration":630701,"SoundDuration":630701,"Delta":49979667},{"NoteNumber":44,"Velocity":40,"Duration":151136,"SoundDuration":151136,"Delta":49979667},{"NoteNumber":68,"Velocity":44,"Duration":101642,"SoundDuration":101642,"Delta":50080130},{"NoteNumber":51,"Velocity":36,"Duration":153818,"SoundDuration":153818,"Delta":50130804},{"NoteNumber":72,"Velocity":45,"Duration":102849,"SoundDuration":102849,"Delta":50181773},{"NoteNumber":63,"Velocity":46,"Duration":104398,"SoundDuration":104398,"Delta":50284622},{"NoteNumber":56,"Velocity":45,"Duration":158894,"SoundDuration":158894,"Delta":50284622},{"NoteNumber":68,"Velocity":47,"Duration":111127,"SoundDuration":111127,"Delta":50389021},{"NoteNumber":51,"Velocity":37,"Duration":166851,"SoundDuration":166851,"Delta":50443517},{"NoteNumber":72,"Velocity":48,"Duration":110219,"SoundDuration":110219,"Delta":50500149},{"NoteNumber":79,"Velocity":80,"Duration":609579,"SoundDuration":609579,"Delta":50610369},{"NoteNumber":39,"Velocity":47,"Duration":153814,"SoundDuration":153814,"Delta":50610369},{"NoteNumber":72,"Velocity":46,"Duration":102239,"SoundDuration":102239,"Delta":50712912},{"NoteNumber":55,"Velocity":38,"Duration":152905,"SoundDuration":152905,"Delta":50764183},{"NoteNumber":75,"Velocity":47,"Duration":101936,"SoundDuration":101936,"Delta":50815151},{"NoteNumber":67,"Velocity":48,"Duration":101051,"SoundDuration":101051,"Delta":50917088},{"NoteNumber":60,"Velocity":39,"Duration":151429,"SoundDuration":151429,"Delta":50917088},{"NoteNumber":72,"Velocity":48,"Duration":100755,"SoundDuration":100755,"Delta":51018140},{"NoteNumber":55,"Velocity":38,"Duration":151429,"SoundDuration":151429,"Delta":51068518},{"NoteNumber":75,"Velocity":49,"Duration":101051,"SoundDuration":101051,"Delta":51118896},{"NoteNumber":79,"Velocity":81,"Duration":604547,"SoundDuration":604547,"Delta":51219948},{"NoteNumber":48,"Velocity":41,"Duration":152022,"SoundDuration":152022,"Delta":51219948},{"NoteNumber":72,"Velocity":51,"Duration":101347,"SoundDuration":101347,"Delta":51321296},{"NoteNumber":55,"Velocity":38,"Duration":151429,"SoundDuration":151429,"Delta":51371970},{"NoteNumber":75,"Velocity":51,"Duration":100755,"SoundDuration":100755,"Delta":51422644},{"NoteNumber":67,"Velocity":52,"Duration":100755,"SoundDuration":100755,"Delta":51523399},{"NoteNumber":60,"Velocity":44,"Duration":150840,"SoundDuration":150840,"Delta":51523399},{"NoteNumber":72,"Velocity":53,"Duration":100170,"SoundDuration":100170,"Delta":51624155},{"NoteNumber":55,"Velocity":38,"Duration":150255,"SoundDuration":150255,"Delta":51674240},{"NoteNumber":75,"Velocity":53,"Duration":100170,"SoundDuration":100170,"Delta":51724325},{"NoteNumber":80,"Velocity":84,"Duration":597549,"SoundDuration":597549,"Delta":51824496},{"NoteNumber":41,"Velocity":51,"Duration":149387,"SoundDuration":149387,"Delta":51824496},{"NoteNumber":72,"Velocity":50,"Duration":99591,"SoundDuration":99591,"Delta":51924087},{"NoteNumber":50,"Velocity":34,"Duration":149387,"SoundDuration":149387,"Delta":51973883},{"NoteNumber":74,"Velocity":49,"Duration":99591,"SoundDuration":99591,"Delta":52023679},{"NoteNumber":65,"Velocity":48,"Duration":99591,"SoundDuration":99591,"Delta":52123271},{"NoteNumber":60,"Velocity":35,"Duration":149387,"SoundDuration":149387,"Delta":52123271},{"NoteNumber":72,"Velocity":47,"Duration":99591,"SoundDuration":99591,"Delta":52222862},{"NoteNumber":50,"Velocity":30,"Duration":149387,"SoundDuration":149387,"Delta":52272658},{"NoteNumber":74,"Velocity":46,"Duration":99591,"SoundDuration":99591,"Delta":52322454},{"NoteNumber":77,"Velocity":75,"Duration":613034,"SoundDuration":613034,"Delta":52422046},{"NoteNumber":43,"Velocity":39,"Duration":150255,"SoundDuration":150255,"Delta":52422046},{"NoteNumber":71,"Velocity":44,"Duration":100170,"SoundDuration":100170,"Delta":52522216},{"NoteNumber":50,"Velocity":30,"Duration":150401,"SoundDuration":150401,"Delta":52572301},{"NoteNumber":74,"Velocity":42,"Duration":100316,"SoundDuration":100316,"Delta":52622386},{"NoteNumber":65,"Velocity":41,"Duration":101793,"SoundDuration":101793,"Delta":52722703},{"NoteNumber":59,"Velocity":35,"Duration":101793,"SoundDuration":101793,"Delta":52722703},{"NoteNumber":71,"Velocity":40,"Duration":103308,"SoundDuration":103308,"Delta":52824497},{"NoteNumber":55,"Velocity":30,"Duration":103308,"SoundDuration":103308,"Delta":52824497},{"NoteNumber":74,"Velocity":39,"Duration":107275,"SoundDuration":107275,"Delta":52927805},{"NoteNumber":50,"Velocity":30,"Duration":107275,"SoundDuration":107275,"Delta":52927805},{"NoteNumber":76,"Velocity":64,"Duration":606018,"SoundDuration":606018,"Delta":53035081},{"NoteNumber":48,"Velocity":37,"Duration":101348,"SoundDuration":101348,"Delta":53035081},{"NoteNumber":67,"Velocity":28,"Duration":101348,"SoundDuration":101348,"Delta":53136429},{"NoteNumber":52,"Velocity":26,"Duration":101348,"SoundDuration":101348,"Delta":53136429},{"NoteNumber":72,"Velocity":28,"Duration":101347,"SoundDuration":101347,"Delta":53237777},{"NoteNumber":55,"Velocity":25,"Duration":101347,"SoundDuration":101347,"Delta":53237777},{"NoteNumber":64,"Velocity":28,"Duration":100755,"SoundDuration":100755,"Delta":53339125},{"NoteNumber":60,"Velocity":25,"Duration":100755,"SoundDuration":100755,"Delta":53339125},{"NoteNumber":67,"Velocity":29,"Duration":100755,"SoundDuration":100755,"Delta":53439880},{"NoteNumber":55,"Velocity":26,"Duration":100755,"SoundDuration":100755,"Delta":53439880},{"NoteNumber":72,"Velocity":29,"Duration":100462,"SoundDuration":100462,"Delta":53540636},{"NoteNumber":52,"Velocity":26,"Duration":100462,"SoundDuration":100462,"Delta":53540636},{"NoteNumber":74,"Velocity":58,"Duration":598216,"SoundDuration":598216,"Delta":53641099},{"NoteNumber":48,"Velocity":27,"Duration":99029,"SoundDuration":99029,"Delta":53641099},{"NoteNumber":68,"Velocity":30,"Duration":99029,"SoundDuration":99029,"Delta":53740128},{"NoteNumber":53,"Velocity":27,"Duration":99029,"SoundDuration":99029,"Delta":53740128},{"NoteNumber":71,"Velocity":30,"Duration":101348,"SoundDuration":101348,"Delta":53839158},{"NoteNumber":56,"Velocity":28,"Duration":101348,"SoundDuration":101348,"Delta":53839158},{"NoteNumber":62,"Velocity":30,"Duration":100462,"SoundDuration":100462,"Delta":53940506},{"NoteNumber":59,"Velocity":28,"Duration":100462,"SoundDuration":100462,"Delta":53940506},{"NoteNumber":68,"Velocity":31,"Duration":98746,"SoundDuration":98746,"Delta":54040969},{"NoteNumber":56,"Velocity":29,"Duration":98746,"SoundDuration":98746,"Delta":54040969},{"NoteNumber":71,"Velocity":31,"Duration":99599,"SoundDuration":99599,"Delta":54139716},{"NoteNumber":53,"Velocity":29,"Duration":99599,"SoundDuration":99599,"Delta":54139716},{"NoteNumber":77,"Velocity":61,"Duration":604303,"SoundDuration":604303,"Delta":54239316},{"NoteNumber":48,"Velocity":31,"Duration":101348,"SoundDuration":101348,"Delta":54239316},{"NoteNumber":68,"Velocity":33,"Duration":100462,"SoundDuration":100462,"Delta":54340664},{"NoteNumber":53,"Velocity":31,"Duration":100462,"SoundDuration":100462,"Delta":54340664},{"NoteNumber":71,"Velocity":31,"Duration":98746,"SoundDuration":98746,"Delta":54441127},{"NoteNumber":56,"Velocity":31,"Duration":98746,"SoundDuration":98746,"Delta":54441127},{"NoteNumber":65,"Velocity":31,"Duration":100462,"SoundDuration":100462,"Delta":54539873},{"NoteNumber":62,"Velocity":30,"Duration":100462,"SoundDuration":100462,"Delta":54539873},{"NoteNumber":68,"Velocity":31,"Duration":101936,"SoundDuration":101936,"Delta":54640336},{"NoteNumber":56,"Velocity":29,"Duration":101936,"SoundDuration":101936,"Delta":54640336},{"NoteNumber":71,"Velocity":30,"Duration":101346,"SoundDuration":101346,"Delta":54742273},{"NoteNumber":53,"Velocity":29,"Duration":101346,"SoundDuration":101346,"Delta":54742273},{"NoteNumber":76,"Velocity":57,"Duration":651604,"SoundDuration":651604,"Delta":54843619},{"NoteNumber":48,"Velocity":27,"Duration":100469,"SoundDuration":100469,"Delta":54843619},{"NoteNumber":68,"Velocity":29,"Duration":101642,"SoundDuration":101642,"Delta":54944089},{"NoteNumber":52,"Velocity":26,"Duration":101642,"SoundDuration":101642,"Delta":54944089},{"NoteNumber":71,"Velocity":29,"Duration":102849,"SoundDuration":102849,"Delta":55045732},{"NoteNumber":56,"Velocity":26,"Duration":102849,"SoundDuration":102849,"Delta":55045732},{"NoteNumber":64,"Velocity":29,"Duration":105704,"SoundDuration":105704,"Delta":55148581},{"NoteNumber":62,"Velocity":24,"Duration":105704,"SoundDuration":105704,"Delta":55148581},{"NoteNumber":68,"Velocity":28,"Duration":114816,"SoundDuration":114816,"Delta":55254286},{"NoteNumber":56,"Velocity":24,"Duration":114816,"SoundDuration":114816,"Delta":55254286},{"NoteNumber":71,"Velocity":28,"Duration":126121,"SoundDuration":126121,"Delta":55369102},{"NoteNumber":52,"Velocity":28,"Duration":126121,"SoundDuration":126121,"Delta":55369102},{"NoteNumber":76,"Velocity":64,"Duration":606018,"SoundDuration":606018,"Delta":55495224},{"NoteNumber":48,"Velocity":33,"Duration":101348,"SoundDuration":101348,"Delta":55495224},{"NoteNumber":67,"Velocity":29,"Duration":101348,"SoundDuration":101348,"Delta":55596572},{"NoteNumber":52,"Velocity":26,"Duration":101348,"SoundDuration":101348,"Delta":55596572},{"NoteNumber":72,"Velocity":30,"Duration":101347,"SoundDuration":101347,"Delta":55697920},{"NoteNumber":55,"Velocity":27,"Duration":101347,"SoundDuration":101347,"Delta":55697920},{"NoteNumber":64,"Velocity":31,"Duration":100755,"SoundDuration":100755,"Delta":55799268},{"NoteNumber":60,"Velocity":27,"Duration":100755,"SoundDuration":100755,"Delta":55799268},{"NoteNumber":67,"Velocity":31,"Duration":100755,"SoundDuration":100755,"Delta":55900024},{"NoteNumber":55,"Velocity":28,"Duration":100755,"SoundDuration":100755,"Delta":55900024},{"NoteNumber":72,"Velocity":33,"Duration":100462,"SoundDuration":100462,"Delta":56000779},{"NoteNumber":52,"Velocity":28,"Duration":100462,"SoundDuration":100462,"Delta":56000779},{"NoteNumber":74,"Velocity":58,"Duration":598216,"SoundDuration":598216,"Delta":56101242},{"NoteNumber":47,"Velocity":36,"Duration":99029,"SoundDuration":99029,"Delta":56101242},{"NoteNumber":68,"Velocity":34,"Duration":99029,"SoundDuration":99029,"Delta":56200272},{"NoteNumber":53,"Velocity":30,"Duration":99029,"SoundDuration":99029,"Delta":56200272},{"NoteNumber":71,"Velocity":35,"Duration":101348,"SoundDuration":101348,"Delta":56299301},{"NoteNumber":56,"Velocity":30,"Duration":101348,"SoundDuration":101348,"Delta":56299301},{"NoteNumber":62,"Velocity":36,"Duration":100462,"SoundDuration":100462,"Delta":56400649},{"NoteNumber":59,"Velocity":31,"Duration":100462,"SoundDuration":100462,"Delta":56400649},{"NoteNumber":68,"Velocity":36,"Duration":98746,"SoundDuration":98746,"Delta":56501112},{"NoteNumber":56,"Velocity":31,"Duration":98746,"SoundDuration":98746,"Delta":56501112},{"NoteNumber":71,"Velocity":37,"Duration":99599,"SoundDuration":99599,"Delta":56599859},{"NoteNumber":53,"Velocity":33,"Duration":99599,"SoundDuration":99599,"Delta":56599859},{"NoteNumber":77,"Velocity":61,"Duration":604303,"SoundDuration":604303,"Delta":56699459},{"NoteNumber":47,"Velocity":34,"Duration":101348,"SoundDuration":101348,"Delta":56699459},{"NoteNumber":68,"Velocity":37,"Duration":100462,"SoundDuration":100462,"Delta":56800807},{"NoteNumber":53,"Velocity":34,"Duration":100462,"SoundDuration":100462,"Delta":56800807},{"NoteNumber":71,"Velocity":36,"Duration":98746,"SoundDuration":98746,"Delta":56901270},{"NoteNumber":56,"Velocity":33,"Duration":98746,"SoundDuration":98746,"Delta":56901270},{"NoteNumber":65,"Velocity":36,"Duration":100462,"SoundDuration":100462,"Delta":57000017},{"NoteNumber":62,"Velocity":33,"Duration":100462,"SoundDuration":100462,"Delta":57000017},{"NoteNumber":68,"Velocity":36,"Duration":101936,"SoundDuration":101936,"Delta":57100480},{"NoteNumber":56,"Velocity":31,"Duration":101936,"SoundDuration":101936,"Delta":57100480},{"NoteNumber":71,"Velocity":34,"Duration":101346,"SoundDuration":101346,"Delta":57202417},{"NoteNumber":53,"Velocity":30,"Duration":101346,"SoundDuration":101346,"Delta":57202417},{"NoteNumber":76,"Velocity":57,"Duration":636797,"SoundDuration":636797,"Delta":57303763},{"NoteNumber":47,"Velocity":30,"Duration":100469,"SoundDuration":100469,"Delta":57303763},{"NoteNumber":68,"Velocity":33,"Duration":101642,"SoundDuration":101642,"Delta":57404233},{"NoteNumber":52,"Velocity":29,"Duration":101642,"SoundDuration":101642,"Delta":57404233},{"NoteNumber":71,"Velocity":33,"Duration":102849,"SoundDuration":102849,"Delta":57505875},{"NoteNumber":56,"Velocity":28,"Duration":102849,"SoundDuration":102849,"Delta":57505875},{"NoteNumber":64,"Velocity":31,"Duration":105704,"SoundDuration":105704,"Delta":57608725},{"NoteNumber":62,"Velocity":28,"Duration":105704,"SoundDuration":105704,"Delta":57608725},{"NoteNumber":68,"Velocity":31,"Duration":107642,"SoundDuration":107642,"Delta":57714430},{"NoteNumber":56,"Velocity":27,"Duration":107642,"SoundDuration":107642,"Delta":57714430},{"NoteNumber":71,"Velocity":31,"Duration":118487,"SoundDuration":118487,"Delta":57822072},{"NoteNumber":52,"Velocity":28,"Duration":118487,"SoundDuration":118487,"Delta":57822072},{"NoteNumber":76,"Velocity":67,"Duration":606018,"SoundDuration":606018,"Delta":57940560},{"NoteNumber":45,"Velocity":35,"Duration":101348,"SoundDuration":101348,"Delta":57940560},{"NoteNumber":69,"Velocity":29,"Duration":101348,"SoundDuration":101348,"Delta":58041908},{"NoteNumber":52,"Velocity":26,"Duration":101348,"SoundDuration":101348,"Delta":58041908},{"NoteNumber":73,"Velocity":30,"Duration":101347,"SoundDuration":101347,"Delta":58143256},{"NoteNumber":57,"Velocity":27,"Duration":101347,"SoundDuration":101347,"Delta":58143256},{"NoteNumber":64,"Velocity":31,"Duration":100755,"SoundDuration":100755,"Delta":58244604},{"NoteNumber":61,"Velocity":27,"Duration":100755,"SoundDuration":100755,"Delta":58244604},{"NoteNumber":69,"Velocity":31,"Duration":100755,"SoundDuration":100755,"Delta":58345360},{"NoteNumber":57,"Velocity":28,"Duration":100755,"SoundDuration":100755,"Delta":58345360},{"NoteNumber":73,"Velocity":33,"Duration":100462,"SoundDuration":100462,"Delta":58446115},{"NoteNumber":52,"Velocity":28,"Duration":100462,"SoundDuration":100462,"Delta":58446115},{"NoteNumber":74,"Velocity":62,"Duration":598216,"SoundDuration":598216,"Delta":58546578},{"NoteNumber":45,"Velocity":29,"Duration":99029,"SoundDuration":99029,"Delta":58546578},{"NoteNumber":69,"Velocity":34,"Duration":99029,"SoundDuration":99029,"Delta":58645608},{"NoteNumber":54,"Velocity":30,"Duration":99029,"SoundDuration":99029,"Delta":58645608},{"NoteNumber":71,"Velocity":35,"Duration":101348,"SoundDuration":101348,"Delta":58744637},{"NoteNumber":57,"Velocity":30,"Duration":101348,"SoundDuration":101348,"Delta":58744637},{"NoteNumber":62,"Velocity":36,"Duration":100462,"SoundDuration":100462,"Delta":58845985},{"NoteNumber":59,"Velocity":31,"Duration":100462,"SoundDuration":100462,"Delta":58845985},{"NoteNumber":69,"Velocity":36,"Duration":98746,"SoundDuration":98746,"Delta":58946448},{"NoteNumber":57,"Velocity":31,"Duration":98746,"SoundDuration":98746,"Delta":58946448},{"NoteNumber":71,"Velocity":37,"Duration":99599,"SoundDuration":99599,"Delta":59045195},{"NoteNumber":54,"Velocity":33,"Duration":99599,"SoundDuration":99599,"Delta":59045195},{"NoteNumber":78,"Velocity":69,"Duration":604303,"SoundDuration":604303,"Delta":59144795},{"NoteNumber":45,"Velocity":34,"Duration":101348,"SoundDuration":101348,"Delta":59144795},{"NoteNumber":69,"Velocity":37,"Duration":100462,"SoundDuration":100462,"Delta":59246143},{"NoteNumber":54,"Velocity":34,"Duration":100462,"SoundDuration":100462,"Delta":59246143},{"NoteNumber":71,"Velocity":36,"Duration":98746,"SoundDuration":98746,"Delta":59346606},{"NoteNumber":57,"Velocity":33,"Duration":98746,"SoundDuration":98746,"Delta":59346606},{"NoteNumber":66,"Velocity":36,"Duration":100462,"SoundDuration":100462,"Delta":59445353},{"NoteNumber":62,"Velocity":33,"Duration":100462,"SoundDuration":100462,"Delta":59445353},{"NoteNumber":69,"Velocity":36,"Duration":101936,"SoundDuration":101936,"Delta":59545816},{"NoteNumber":57,"Velocity":31,"Duration":101936,"SoundDuration":101936,"Delta":59545816},{"NoteNumber":71,"Velocity":34,"Duration":101346,"SoundDuration":101346,"Delta":59647752},{"NoteNumber":54,"Velocity":30,"Duration":101346,"SoundDuration":101346,"Delta":59647752},{"NoteNumber":76,"Velocity":67,"Duration":616262,"SoundDuration":616262,"Delta":59749099},{"NoteNumber":45,"Velocity":30,"Duration":100469,"SoundDuration":100469,"Delta":59749099},{"NoteNumber":68,"Velocity":33,"Duration":101642,"SoundDuration":101642,"Delta":59849569},{"NoteNumber":52,"Velocity":29,"Duration":101642,"SoundDuration":101642,"Delta":59849569},{"NoteNumber":74,"Velocity":33,"Duration":102849,"SoundDuration":102849,"Delta":59951211},{"NoteNumber":56,"Velocity":28,"Duration":102849,"SoundDuration":102849,"Delta":59951211},{"NoteNumber":64,"Velocity":31,"Duration":103766,"SoundDuration":103766,"Delta":60054061},{"NoteNumber":62,"Velocity":28,"Duration":103766,"SoundDuration":103766,"Delta":60054061},{"NoteNumber":68,"Velocity":31,"Duration":103766,"SoundDuration":103766,"Delta":60157827},{"NoteNumber":56,"Velocity":27,"Duration":103766,"SoundDuration":103766,"Delta":60157827},{"NoteNumber":74,"Velocity":31,"Duration":103766,"SoundDuration":103766,"Delta":60261594},{"NoteNumber":52,"Velocity":28,"Duration":103766,"SoundDuration":103766,"Delta":60261594},{"NoteNumber":76,"Velocity":72,"Duration":606018,"SoundDuration":606018,"Delta":60365361},{"NoteNumber":45,"Velocity":37,"Duration":101348,"SoundDuration":101348,"Delta":60365361},{"NoteNumber":69,"Velocity":36,"Duration":101348,"SoundDuration":101348,"Delta":60466709},{"NoteNumber":52,"Velocity":30,"Duration":101348,"SoundDuration":101348,"Delta":60466709},{"NoteNumber":73,"Velocity":36,"Duration":101347,"SoundDuration":101347,"Delta":60568057},{"NoteNumber":57,"Velocity":31,"Duration":101347,"SoundDuration":101347,"Delta":60568057},{"NoteNumber":64,"Velocity":38,"Duration":100755,"SoundDuration":100755,"Delta":60669405},{"NoteNumber":61,"Velocity":31,"Duration":100755,"SoundDuration":100755,"Delta":60669405},{"NoteNumber":69,"Velocity":38,"Duration":100755,"SoundDuration":100755,"Delta":60770160},{"NoteNumber":57,"Velocity":34,"Duration":100755,"SoundDuration":100755,"Delta":60770160},{"NoteNumber":73,"Velocity":39,"Duration":100462,"SoundDuration":100462,"Delta":60870916},{"NoteNumber":52,"Velocity":34,"Duration":100462,"SoundDuration":100462,"Delta":60870916},{"NoteNumber":81,"Velocity":74,"Duration":598216,"SoundDuration":598216,"Delta":60971379},{"NoteNumber":45,"Velocity":35,"Duration":99029,"SoundDuration":99029,"Delta":60971379},{"NoteNumber":73,"Velocity":40,"Duration":99029,"SoundDuration":99029,"Delta":61070409},{"NoteNumber":52,"Velocity":35,"Duration":99029,"SoundDuration":99029,"Delta":61070409},{"NoteNumber":76,"Velocity":40,"Duration":101348,"SoundDuration":101348,"Delta":61169438},{"NoteNumber":57,"Velocity":36,"Duration":101348,"SoundDuration":101348,"Delta":61169438},{"NoteNumber":69,"Velocity":42,"Duration":100462,"SoundDuration":100462,"Delta":61270786},{"NoteNumber":61,"Velocity":36,"Duration":100462,"SoundDuration":100462,"Delta":61270786},{"NoteNumber":73,"Velocity":42,"Duration":98746,"SoundDuration":98746,"Delta":61371249},{"NoteNumber":57,"Velocity":38,"Duration":98746,"SoundDuration":98746,"Delta":61371249},{"NoteNumber":76,"Velocity":44,"Duration":99599,"SoundDuration":99599,"Delta":61469996},{"NoteNumber":52,"Velocity":38,"Duration":99599,"SoundDuration":99599,"Delta":61469996},{"NoteNumber":83,"Velocity":82,"Duration":604303,"SoundDuration":604303,"Delta":61569596},{"NoteNumber":45,"Velocity":39,"Duration":101348,"SoundDuration":101348,"Delta":61569596},{"NoteNumber":75,"Velocity":45,"Duration":100462,"SoundDuration":100462,"Delta":61670944},{"NoteNumber":51,"Velocity":39,"Duration":100462,"SoundDuration":100462,"Delta":61670944},{"NoteNumber":78,"Velocity":45,"Duration":98746,"SoundDuration":98746,"Delta":61771407},{"NoteNumber":54,"Velocity":40,"Duration":98746,"SoundDuration":98746,"Delta":61771407},{"NoteNumber":69,"Velocity":46,"Duration":100463,"SoundDuration":100463,"Delta":61870154},{"NoteNumber":60,"Velocity":40,"Duration":100463,"SoundDuration":100463,"Delta":61870154},{"NoteNumber":75,"Velocity":46,"Duration":101936,"SoundDuration":101936,"Delta":61970617},{"NoteNumber":54,"Velocity":42,"Duration":101936,"SoundDuration":101936,"Delta":61970617},{"NoteNumber":78,"Velocity":48,"Duration":101346,"SoundDuration":101346,"Delta":62072553},{"NoteNumber":51,"Velocity":42,"Duration":101346,"SoundDuration":101346,"Delta":62072553},{"NoteNumber":84,"Velocity":79,"Duration":601743,"SoundDuration":601743,"Delta":62173900},{"NoteNumber":45,"Velocity":44,"Duration":100469,"SoundDuration":100469,"Delta":62173900},{"NoteNumber":75,"Velocity":49,"Duration":101642,"SoundDuration":101642,"Delta":62274369},{"NoteNumber":51,"Velocity":44,"Duration":101642,"SoundDuration":101642,"Delta":62274369},{"NoteNumber":78,"Velocity":49,"Duration":102542,"SoundDuration":102542,"Delta":62376012},{"NoteNumber":54,"Velocity":45,"Duration":102542,"SoundDuration":102542,"Delta":62376012},{"NoteNumber":68,"Velocity":50,"Duration":99029,"SoundDuration":99029,"Delta":62478555},{"NoteNumber":60,"Velocity":45,"Duration":99029,"SoundDuration":99029,"Delta":62478555},{"NoteNumber":75,"Velocity":50,"Duration":99029,"SoundDuration":99029,"Delta":62577584},{"NoteNumber":54,"Velocity":46,"Duration":99029,"SoundDuration":99029,"Delta":62577584},{"NoteNumber":78,"Velocity":52,"Duration":99029,"SoundDuration":99029,"Delta":62676614},{"NoteNumber":51,"Velocity":46,"Duration":99029,"SoundDuration":99029,"Delta":62676614},{"NoteNumber":84,"Velocity":84,"Duration":606018,"SoundDuration":606018,"Delta":62775643},{"NoteNumber":37,"Velocity":59,"Duration":101348,"SoundDuration":101348,"Delta":62775643},{"NoteNumber":73,"Velocity":52,"Duration":101348,"SoundDuration":101348,"Delta":62876991},{"NoteNumber":56,"Velocity":44,"Duration":101348,"SoundDuration":101348,"Delta":62876991},{"NoteNumber":77,"Velocity":53,"Duration":101348,"SoundDuration":101348,"Delta":62978339},{"NoteNumber":58,"Velocity":45,"Duration":101348,"SoundDuration":101348,"Delta":62978339},{"NoteNumber":65,"Velocity":53,"Duration":100755,"SoundDuration":100755,"Delta":63079687},{"NoteNumber":61,"Velocity":45,"Duration":100755,"SoundDuration":100755,"Delta":63079687},{"NoteNumber":73,"Velocity":53,"Duration":100755,"SoundDuration":100755,"Delta":63180443},{"NoteNumber":58,"Velocity":45,"Duration":100755,"SoundDuration":100755,"Delta":63180443},{"NoteNumber":77,"Velocity":55,"Duration":100463,"SoundDuration":100463,"Delta":63281199},{"NoteNumber":56,"Velocity":46,"Duration":100463,"SoundDuration":100463,"Delta":63281199},{"NoteNumber":82,"Velocity":82,"Duration":598216,"SoundDuration":598216,"Delta":63381662},{"NoteNumber":49,"Velocity":46,"Duration":99029,"SoundDuration":99029,"Delta":63381662},{"NoteNumber":73,"Velocity":57,"Duration":99029,"SoundDuration":99029,"Delta":63480691},{"NoteNumber":56,"Velocity":48,"Duration":99029,"SoundDuration":99029,"Delta":63480691},{"NoteNumber":77,"Velocity":57,"Duration":101348,"SoundDuration":101348,"Delta":63579721},{"NoteNumber":58,"Velocity":48,"Duration":101348,"SoundDuration":101348,"Delta":63579721},{"NoteNumber":65,"Velocity":58,"Duration":100463,"SoundDuration":100463,"Delta":63681069},{"NoteNumber":61,"Velocity":49,"Duration":100463,"SoundDuration":100463,"Delta":63681069},{"NoteNumber":73,"Velocity":58,"Duration":98746,"SoundDuration":98746,"Delta":63781532},{"NoteNumber":58,"Velocity":49,"Duration":98746,"SoundDuration":98746,"Delta":63781532},{"NoteNumber":77,"Velocity":59,"Duration":99599,"SoundDuration":99599,"Delta":63880278},{"NoteNumber":56,"Velocity":49,"Duration":99599,"SoundDuration":99599,"Delta":63880278},{"NoteNumber":85,"Velocity":86,"Duration":604303,"SoundDuration":604303,"Delta":63979878},{"NoteNumber":37,"Velocity":63,"Duration":101348,"SoundDuration":101348,"Delta":63979878},{"NoteNumber":70,"Velocity":59,"Duration":100462,"SoundDuration":100462,"Delta":64081226},{"NoteNumber":56,"Velocity":50,"Duration":100462,"SoundDuration":100462,"Delta":64081226},{"NoteNumber":73,"Velocity":60,"Duration":98746,"SoundDuration":98746,"Delta":64181689},{"NoteNumber":58,"Velocity":52,"Duration":98746,"SoundDuration":98746,"Delta":64181689},{"NoteNumber":65,"Velocity":60,"Duration":100463,"SoundDuration":100463,"Delta":64280436},{"NoteNumber":61,"Velocity":52,"Duration":100463,"SoundDuration":100463,"Delta":64280436},{"NoteNumber":70,"Velocity":62,"Duration":101936,"SoundDuration":101936,"Delta":64380899},{"NoteNumber":58,"Velocity":52,"Duration":101936,"SoundDuration":101936,"Delta":64380899},{"NoteNumber":73,"Velocity":62,"Duration":101346,"SoundDuration":101346,"Delta":64482836},{"NoteNumber":56,"Velocity":53,"Duration":101346,"SoundDuration":101346,"Delta":64482836},{"NoteNumber":77,"Velocity":79,"Duration":625952,"SoundDuration":625952,"Delta":64584182},{"NoteNumber":49,"Velocity":53,"Duration":100469,"SoundDuration":100469,"Delta":64584182},{"NoteNumber":70,"Velocity":53,"Duration":101642,"SoundDuration":101642,"Delta":64684652},{"NoteNumber":56,"Velocity":49,"Duration":101642,"SoundDuration":101642,"Delta":64684652},{"NoteNumber":73,"Velocity":53,"Duration":102849,"SoundDuration":102849,"Delta":64786294},{"NoteNumber":58,"Velocity":48,"Duration":102849,"SoundDuration":102849,"Delta":64786294},{"NoteNumber":65,"Velocity":53,"Duration":105704,"SoundDuration":105704,"Delta":64889144},{"NoteNumber":61,"Velocity":46,"Duration":105704,"SoundDuration":105704,"Delta":64889144},{"NoteNumber":70,"Velocity":52,"Duration":107642,"SoundDuration":107642,"Delta":64994849},{"NoteNumber":58,"Velocity":46,"Duration":107642,"SoundDuration":107642,"Delta":64994849},{"NoteNumber":73,"Velocity":53,"Duration":107642,"SoundDuration":107642,"Delta":65102492},{"NoteNumber":56,"Velocity":46,"Duration":107642,"SoundDuration":107642,"Delta":65102492},{"NoteNumber":82,"Velocity":84,"Duration":606018,"SoundDuration":606018,"Delta":65210134},{"NoteNumber":39,"Velocity":67,"Duration":101348,"SoundDuration":101348,"Delta":65210134},{"NoteNumber":72,"Velocity":52,"Duration":101348,"SoundDuration":101348,"Delta":65311482},{"NoteNumber":51,"Velocity":44,"Duration":101348,"SoundDuration":101348,"Delta":65311482},{"NoteNumber":75,"Velocity":53,"Duration":101348,"SoundDuration":101348,"Delta":65412830},{"NoteNumber":56,"Velocity":45,"Duration":101348,"SoundDuration":101348,"Delta":65412830},{"NoteNumber":63,"Velocity":53,"Duration":100755,"SoundDuration":100755,"Delta":65514178},{"NoteNumber":60,"Velocity":45,"Duration":100755,"SoundDuration":100755,"Delta":65514178},{"NoteNumber":72,"Velocity":53,"Duration":100755,"SoundDuration":100755,"Delta":65614934},{"NoteNumber":56,"Velocity":45,"Duration":100755,"SoundDuration":100755,"Delta":65614934},{"NoteNumber":75,"Velocity":55,"Duration":100463,"SoundDuration":100463,"Delta":65715690},{"NoteNumber":51,"Velocity":46,"Duration":100463,"SoundDuration":100463,"Delta":65715690},{"NoteNumber":80,"Velocity":81,"Duration":598216,"SoundDuration":598216,"Delta":65816153},{"NoteNumber":48,"Velocity":46,"Duration":99029,"SoundDuration":99029,"Delta":65816153},{"NoteNumber":72,"Velocity":57,"Duration":99029,"SoundDuration":99029,"Delta":65915182},{"NoteNumber":51,"Velocity":48,"Duration":99029,"SoundDuration":99029,"Delta":65915182},{"NoteNumber":75,"Velocity":57,"Duration":101348,"SoundDuration":101348,"Delta":66014212},{"NoteNumber":56,"Velocity":48,"Duration":101348,"SoundDuration":101348,"Delta":66014212},{"NoteNumber":63,"Velocity":58,"Duration":100463,"SoundDuration":100463,"Delta":66115560},{"NoteNumber":60,"Velocity":49,"Duration":100463,"SoundDuration":100463,"Delta":66115560},{"NoteNumber":72,"Velocity":58,"Duration":98746,"SoundDuration":98746,"Delta":66216023},{"NoteNumber":56,"Velocity":49,"Duration":98746,"SoundDuration":98746,"Delta":66216023},{"NoteNumber":75,"Velocity":59,"Duration":99599,"SoundDuration":99599,"Delta":66314769},{"NoteNumber":51,"Velocity":49,"Duration":99599,"SoundDuration":99599,"Delta":66314769},{"NoteNumber":84,"Velocity":82,"Duration":604303,"SoundDuration":604303,"Delta":66414369},{"NoteNumber":39,"Velocity":68,"Duration":101348,"SoundDuration":101348,"Delta":66414369},{"NoteNumber":68,"Velocity":59,"Duration":100462,"SoundDuration":100462,"Delta":66515717},{"NoteNumber":51,"Velocity":50,"Duration":100462,"SoundDuration":100462,"Delta":66515717},{"NoteNumber":72,"Velocity":60,"Duration":98746,"SoundDuration":98746,"Delta":66616180},{"NoteNumber":56,"Velocity":52,"Duration":98746,"SoundDuration":98746,"Delta":66616180},{"NoteNumber":63,"Velocity":60,"Duration":100463,"SoundDuration":100463,"Delta":66714927},{"NoteNumber":60,"Velocity":52,"Duration":100463,"SoundDuration":100463,"Delta":66714927},{"NoteNumber":68,"Velocity":62,"Duration":101936,"SoundDuration":101936,"Delta":66815390},{"NoteNumber":56,"Velocity":52,"Duration":101936,"SoundDuration":101936,"Delta":66815390},{"NoteNumber":72,"Velocity":62,"Duration":101346,"SoundDuration":101346,"Delta":66917327},{"NoteNumber":51,"Velocity":53,"Duration":101346,"SoundDuration":101346,"Delta":66917327},{"NoteNumber":75,"Velocity":79,"Duration":625952,"SoundDuration":625952,"Delta":67018673},{"NoteNumber":48,"Velocity":53,"Duration":100469,"SoundDuration":100469,"Delta":67018673},{"NoteNumber":68,"Velocity":57,"Duration":101642,"SoundDuration":101642,"Delta":67119143},{"NoteNumber":51,"Velocity":50,"Duration":101642,"SoundDuration":101642,"Delta":67119143},{"NoteNumber":72,"Velocity":57,"Duration":102849,"SoundDuration":102849,"Delta":67220785},{"NoteNumber":56,"Velocity":49,"Duration":102849,"SoundDuration":102849,"Delta":67220785},{"NoteNumber":63,"Velocity":57,"Duration":105704,"SoundDuration":105704,"Delta":67323635},{"NoteNumber":60,"Velocity":49,"Duration":105704,"SoundDuration":105704,"Delta":67323635},{"NoteNumber":68,"Velocity":57,"Duration":107642,"SoundDuration":107642,"Delta":67429340},{"NoteNumber":56,"Velocity":49,"Duration":107642,"SoundDuration":107642,"Delta":67429340},{"NoteNumber":72,"Velocity":57,"Duration":107642,"SoundDuration":107642,"Delta":67536983},{"NoteNumber":51,"Velocity":49,"Duration":107642,"SoundDuration":107642,"Delta":67536983},{"NoteNumber":75,"Velocity":84,"Duration":606018,"SoundDuration":606018,"Delta":67644625},{"NoteNumber":39,"Velocity":67,"Duration":101348,"SoundDuration":101348,"Delta":67644625},{"NoteNumber":67,"Velocity":52,"Duration":101348,"SoundDuration":101348,"Delta":67745973},{"NoteNumber":51,"Velocity":44,"Duration":101348,"SoundDuration":101348,"Delta":67745973},{"NoteNumber":70,"Velocity":53,"Duration":101348,"SoundDuration":101348,"Delta":67847321},{"NoteNumber":55,"Velocity":45,"Duration":101348,"SoundDuration":101348,"Delta":67847321},{"NoteNumber":61,"Velocity":53,"Duration":100755,"SoundDuration":100755,"Delta":67948669},{"NoteNumber":63,"Velocity":45,"Duration":100755,"SoundDuration":100755,"Delta":67948669},{"NoteNumber":67,"Velocity":53,"Duration":100755,"SoundDuration":100755,"Delta":68049425},{"NoteNumber":55,"Velocity":45,"Duration":100755,"SoundDuration":100755,"Delta":68049425},{"NoteNumber":70,"Velocity":55,"Duration":100463,"SoundDuration":100463,"Delta":68150181},{"NoteNumber":51,"Velocity":46,"Duration":100463,"SoundDuration":100463,"Delta":68150181},{"NoteNumber":76,"Velocity":81,"Duration":598216,"SoundDuration":598216,"Delta":68250644},{"NoteNumber":46,"Velocity":46,"Duration":99029,"SoundDuration":99029,"Delta":68250644},{"NoteNumber":67,"Velocity":57,"Duration":99029,"SoundDuration":99029,"Delta":68349673},{"NoteNumber":51,"Velocity":48,"Duration":99029,"SoundDuration":99029,"Delta":68349673},{"NoteNumber":70,"Velocity":57,"Duration":101348,"SoundDuration":101348,"Delta":68448703},{"NoteNumber":55,"Velocity":48,"Duration":101348,"SoundDuration":101348,"Delta":68448703},{"NoteNumber":61,"Velocity":58,"Duration":100463,"SoundDuration":100463,"Delta":68550051},{"NoteNumber":63,"Velocity":49,"Duration":100463,"SoundDuration":100463,"Delta":68550051},{"NoteNumber":67,"Velocity":58,"Duration":98746,"SoundDuration":98746,"Delta":68650514},{"NoteNumber":55,"Velocity":49,"Duration":98746,"SoundDuration":98746,"Delta":68650514},{"NoteNumber":70,"Velocity":59,"Duration":99599,"SoundDuration":99599,"Delta":68749260},{"NoteNumber":51,"Velocity":49,"Duration":99599,"SoundDuration":99599,"Delta":68749260},{"NoteNumber":77,"Velocity":82,"Duration":604303,"SoundDuration":604303,"Delta":68848860},{"NoteNumber":39,"Velocity":70,"Duration":101348,"SoundDuration":101348,"Delta":68848860},{"NoteNumber":67,"Velocity":59,"Duration":100462,"SoundDuration":100462,"Delta":68950208},{"NoteNumber":51,"Velocity":50,"Duration":100462,"SoundDuration":100462,"Delta":68950208},{"NoteNumber":70,"Velocity":60,"Duration":98746,"SoundDuration":98746,"Delta":69050671},{"NoteNumber":55,"Velocity":52,"Duration":98746,"SoundDuration":98746,"Delta":69050671},{"NoteNumber":61,"Velocity":60,"Duration":100463,"SoundDuration":100463,"Delta":69149418},{"NoteNumber":63,"Velocity":52,"Duration":100463,"SoundDuration":100463,"Delta":69149418},{"NoteNumber":67,"Velocity":62,"Duration":101936,"SoundDuration":101936,"Delta":69249881},{"NoteNumber":55,"Velocity":52,"Duration":101936,"SoundDuration":101936,"Delta":69249881},{"NoteNumber":70,"Velocity":62,"Duration":101346,"SoundDuration":101346,"Delta":69351818},{"NoteNumber":51,"Velocity":53,"Duration":101346,"SoundDuration":101346,"Delta":69351818},{"NoteNumber":75,"Velocity":79,"Duration":625952,"SoundDuration":625952,"Delta":69453164},{"NoteNumber":46,"Velocity":53,"Duration":100469,"SoundDuration":100469,"Delta":69453164},{"NoteNumber":67,"Velocity":57,"Duration":101642,"SoundDuration":101642,"Delta":69553634},{"NoteNumber":51,"Velocity":50,"Duration":101642,"SoundDuration":101642,"Delta":69553634},{"NoteNumber":70,"Velocity":57,"Duration":102849,"SoundDuration":102849,"Delta":69655276},{"NoteNumber":55,"Velocity":49,"Duration":102849,"SoundDuration":102849,"Delta":69655276},{"NoteNumber":61,"Velocity":57,"Duration":105704,"SoundDuration":105704,"Delta":69758126},{"NoteNumber":63,"Velocity":49,"Duration":105704,"SoundDuration":105704,"Delta":69758126},{"NoteNumber":67,"Velocity":57,"Duration":107642,"SoundDuration":107642,"Delta":69863831},{"NoteNumber":55,"Velocity":49,"Duration":107642,"SoundDuration":107642,"Delta":69863831},{"NoteNumber":70,"Velocity":57,"Duration":107642,"SoundDuration":107642,"Delta":69971473},{"NoteNumber":51,"Velocity":49,"Duration":107642,"SoundDuration":107642,"Delta":69971473},{"NoteNumber":73,"Velocity":84,"Duration":606018,"SoundDuration":606018,"Delta":70079116},{"NoteNumber":41,"Velocity":69,"Duration":152022,"SoundDuration":152022,"Delta":70079116},{"NoteNumber":65,"Velocity":50,"Duration":101348,"SoundDuration":101348,"Delta":70180464},{"NoteNumber":53,"Velocity":40,"Duration":152022,"SoundDuration":152022,"Delta":70231138},{"NoteNumber":68,"Velocity":50,"Duration":101348,"SoundDuration":101348,"Delta":70281812},{"NoteNumber":61,"Velocity":50,"Duration":100755,"SoundDuration":100755,"Delta":70383160},{"NoteNumber":56,"Velocity":40,"Duration":151133,"SoundDuration":151133,"Delta":70383160},{"NoteNumber":65,"Velocity":50,"Duration":100755,"SoundDuration":100755,"Delta":70483916},{"NoteNumber":53,"Velocity":40,"Duration":150840,"SoundDuration":150840,"Delta":70534294},{"NoteNumber":68,"Velocity":50,"Duration":100463,"SoundDuration":100463,"Delta":70584671},{"NoteNumber":72,"Velocity":77,"Duration":598216,"SoundDuration":598216,"Delta":70685134},{"NoteNumber":44,"Velocity":40,"Duration":148544,"SoundDuration":148544,"Delta":70685134},{"NoteNumber":65,"Velocity":49,"Duration":99029,"SoundDuration":99029,"Delta":70784164},{"NoteNumber":53,"Velocity":40,"Duration":150862,"SoundDuration":150862,"Delta":70833679},{"NoteNumber":68,"Velocity":49,"Duration":101348,"SoundDuration":101348,"Delta":70883193},{"NoteNumber":60,"Velocity":49,"Duration":100463,"SoundDuration":100463,"Delta":70984541},{"NoteNumber":56,"Velocity":39,"Duration":100463,"SoundDuration":100463,"Delta":70984541},{"NoteNumber":65,"Velocity":49,"Duration":98746,"SoundDuration":98746,"Delta":71085004},{"NoteNumber":53,"Velocity":46,"Duration":98746,"SoundDuration":98746,"Delta":71085004},{"NoteNumber":68,"Velocity":49,"Duration":99599,"SoundDuration":99599,"Delta":71183751},{"NoteNumber":48,"Velocity":39,"Duration":99599,"SoundDuration":99599,"Delta":71183751},{"NoteNumber":72,"Velocity":75,"Duration":604303,"SoundDuration":604303,"Delta":71283351},{"NoteNumber":41,"Velocity":58,"Duration":151725,"SoundDuration":151725,"Delta":71283351},{"NoteNumber":63,"Velocity":48,"Duration":100462,"SoundDuration":100462,"Delta":71384699},{"NoteNumber":53,"Velocity":39,"Duration":148831,"SoundDuration":148831,"Delta":71435077},{"NoteNumber":65,"Velocity":48,"Duration":98746,"SoundDuration":98746,"Delta":71485162},{"NoteNumber":60,"Velocity":48,"Duration":100463,"SoundDuration":100463,"Delta":71583909},{"NoteNumber":57,"Velocity":39,"Duration":151431,"SoundDuration":151431,"Delta":71583909},{"NoteNumber":63,"Velocity":48,"Duration":101936,"SoundDuration":101936,"Delta":71684372},{"NoteNumber":51,"Velocity":39,"Duration":152314,"SoundDuration":152314,"Delta":71735340},{"NoteNumber":65,"Velocity":48,"Duration":101346,"SoundDuration":101346,"Delta":71786309},{"NoteNumber":84,"Velocity":82,"Duration":601743,"SoundDuration":601743,"Delta":71887655},{"NoteNumber":48,"Velocity":44,"Duration":151143,"SoundDuration":151143,"Delta":71887655},{"NoteNumber":75,"Velocity":49,"Duration":101642,"SoundDuration":101642,"Delta":71988125},{"NoteNumber":53,"Velocity":44,"Duration":153511,"SoundDuration":153511,"Delta":72038799},{"NoteNumber":77,"Velocity":49,"Duration":102542,"SoundDuration":102542,"Delta":72089767},{"NoteNumber":72,"Velocity":50,"Duration":99029,"SoundDuration":99029,"Delta":72192310},{"NoteNumber":57,"Velocity":45,"Duration":99029,"SoundDuration":99029,"Delta":72192310},{"NoteNumber":75,"Velocity":50,"Duration":99029,"SoundDuration":99029,"Delta":72291340},{"NoteNumber":53,"Velocity":46,"Duration":99029,"SoundDuration":99029,"Delta":72291340},{"NoteNumber":77,"Velocity":52,"Duration":99029,"SoundDuration":99029,"Delta":72390369},{"NoteNumber":48,"Velocity":46,"Duration":99029,"SoundDuration":99029,"Delta":72390369},{"NoteNumber":84,"Velocity":84,"Duration":606018,"SoundDuration":606018,"Delta":72489399},{"NoteNumber":34,"Velocity":67,"Duration":101348,"SoundDuration":101348,"Delta":72489399},{"NoteNumber":73,"Velocity":52,"Duration":101348,"SoundDuration":101348,"Delta":72590747},{"NoteNumber":53,"Velocity":44,"Duration":101348,"SoundDuration":101348,"Delta":72590747},{"NoteNumber":77,"Velocity":53,"Duration":101348,"SoundDuration":101348,"Delta":72692095},{"NoteNumber":58,"Velocity":45,"Duration":101348,"SoundDuration":101348,"Delta":72692095},{"NoteNumber":65,"Velocity":53,"Duration":100755,"SoundDuration":100755,"Delta":72793443},{"NoteNumber":61,"Velocity":45,"Duration":100755,"SoundDuration":100755,"Delta":72793443},{"NoteNumber":73,"Velocity":53,"Duration":100755,"SoundDuration":100755,"Delta":72894198},{"NoteNumber":58,"Velocity":45,"Duration":100755,"SoundDuration":100755,"Delta":72894198},{"NoteNumber":77,"Velocity":55,"Duration":100463,"SoundDuration":100463,"Delta":72994954},{"NoteNumber":53,"Velocity":46,"Duration":100463,"SoundDuration":100463,"Delta":72994954},{"NoteNumber":82,"Velocity":82,"Duration":598216,"SoundDuration":598216,"Delta":73095417},{"NoteNumber":46,"Velocity":46,"Duration":99029,"SoundDuration":99029,"Delta":73095417},{"NoteNumber":73,"Velocity":57,"Duration":99029,"SoundDuration":99029,"Delta":73194447},{"NoteNumber":53,"Velocity":48,"Duration":99029,"SoundDuration":99029,"Delta":73194447},{"NoteNumber":77,"Velocity":57,"Duration":101348,"SoundDuration":101348,"Delta":73293476},{"NoteNumber":58,"Velocity":48,"Duration":101348,"SoundDuration":101348,"Delta":73293476},{"NoteNumber":65,"Velocity":58,"Duration":100463,"SoundDuration":100463,"Delta":73394824},{"NoteNumber":61,"Velocity":49,"Duration":100463,"SoundDuration":100463,"Delta":73394824},{"NoteNumber":73,"Velocity":58,"Duration":98746,"SoundDuration":98746,"Delta":73495287},{"NoteNumber":58,"Velocity":49,"Duration":98746,"SoundDuration":98746,"Delta":73495287},{"NoteNumber":77,"Velocity":59,"Duration":99599,"SoundDuration":99599,"Delta":73594034},{"NoteNumber":53,"Velocity":49,"Duration":99599,"SoundDuration":99599,"Delta":73594034},{"NoteNumber":85,"Velocity":86,"Duration":604303,"SoundDuration":604303,"Delta":73693634},{"NoteNumber":34,"Velocity":71,"Duration":101348,"SoundDuration":101348,"Delta":73693634},{"NoteNumber":70,"Velocity":57,"Duration":100462,"SoundDuration":100462,"Delta":73794982},{"NoteNumber":52,"Velocity":48,"Duration":100462,"SoundDuration":100462,"Delta":73794982},{"NoteNumber":73,"Velocity":57,"Duration":98746,"SoundDuration":98746,"Delta":73895445},{"NoteNumber":56,"Velocity":48,"Duration":98746,"SoundDuration":98746,"Delta":73895445},{"NoteNumber":64,"Velocity":55,"Duration":100463,"SoundDuration":100463,"Delta":73994191},{"NoteNumber":61,"Velocity":46,"Duration":100463,"SoundDuration":100463,"Delta":73994191},{"NoteNumber":70,"Velocity":55,"Duration":101936,"SoundDuration":101936,"Delta":74094654},{"NoteNumber":56,"Velocity":46,"Duration":101936,"SoundDuration":101936,"Delta":74094654},{"NoteNumber":73,"Velocity":55,"Duration":101346,"SoundDuration":101346,"Delta":74196591},{"NoteNumber":52,"Velocity":46,"Duration":101346,"SoundDuration":101346,"Delta":74196591},{"NoteNumber":76,"Velocity":79,"Duration":625952,"SoundDuration":625952,"Delta":74297938},{"NoteNumber":46,"Velocity":45,"Duration":100469,"SoundDuration":100469,"Delta":74297938},{"NoteNumber":70,"Velocity":53,"Duration":101642,"SoundDuration":101642,"Delta":74398407},{"NoteNumber":52,"Velocity":45,"Duration":101642,"SoundDuration":101642,"Delta":74398407},{"NoteNumber":73,"Velocity":53,"Duration":102849,"SoundDuration":102849,"Delta":74500050},{"NoteNumber":56,"Velocity":45,"Duration":102849,"SoundDuration":102849,"Delta":74500050},{"NoteNumber":64,"Velocity":53,"Duration":105704,"SoundDuration":105704,"Delta":74602900},{"NoteNumber":61,"Velocity":44,"Duration":105704,"SoundDuration":105704,"Delta":74602900},{"NoteNumber":70,"Velocity":52,"Duration":107642,"SoundDuration":107642,"Delta":74708604},{"NoteNumber":56,"Velocity":44,"Duration":107642,"SoundDuration":107642,"Delta":74708604},{"NoteNumber":73,"Velocity":53,"Duration":107642,"SoundDuration":107642,"Delta":74816247},{"NoteNumber":52,"Velocity":44,"Duration":107642,"SoundDuration":107642,"Delta":74816247},{"NoteNumber":82,"Velocity":74,"Duration":606018,"SoundDuration":606018,"Delta":74923890},{"NoteNumber":39,"Velocity":63,"Duration":101348,"SoundDuration":101348,"Delta":74923890},{"NoteNumber":72,"Velocity":52,"Duration":101348,"SoundDuration":101348,"Delta":75025238},{"NoteNumber":51,"Velocity":44,"Duration":101348,"SoundDuration":101348,"Delta":75025238},{"NoteNumber":75,"Velocity":53,"Duration":101348,"SoundDuration":101348,"Delta":75126586},{"NoteNumber":56,"Velocity":45,"Duration":101348,"SoundDuration":101348,"Delta":75126586},{"NoteNumber":63,"Velocity":53,"Duration":100755,"SoundDuration":100755,"Delta":75227934},{"NoteNumber":60,"Velocity":45,"Duration":100755,"SoundDuration":100755,"Delta":75227934},{"NoteNumber":72,"Velocity":53,"Duration":100755,"SoundDuration":100755,"Delta":75328689},{"NoteNumber":56,"Velocity":45,"Duration":100755,"SoundDuration":100755,"Delta":75328689},{"NoteNumber":75,"Velocity":55,"Duration":100463,"SoundDuration":100463,"Delta":75429445},{"NoteNumber":51,"Velocity":46,"Duration":100463,"SoundDuration":100463,"Delta":75429445},{"NoteNumber":80,"Velocity":78,"Duration":598216,"SoundDuration":598216,"Delta":75529908},{"NoteNumber":48,"Velocity":46,"Duration":99029,"SoundDuration":99029,"Delta":75529908},{"NoteNumber":72,"Velocity":52,"Duration":99029,"SoundDuration":99029,"Delta":75628937},{"NoteNumber":51,"Velocity":48,"Duration":99029,"SoundDuration":99029,"Delta":75628937},{"NoteNumber":75,"Velocity":52,"Duration":101348,"SoundDuration":101348,"Delta":75727967},{"NoteNumber":56,"Velocity":48,"Duration":101348,"SoundDuration":101348,"Delta":75727967},{"NoteNumber":63,"Velocity":53,"Duration":100463,"SoundDuration":100463,"Delta":75829315},{"NoteNumber":60,"Velocity":49,"Duration":100463,"SoundDuration":100463,"Delta":75829315},{"NoteNumber":72,"Velocity":53,"Duration":98746,"SoundDuration":98746,"Delta":75929778},{"NoteNumber":56,"Velocity":49,"Duration":98746,"SoundDuration":98746,"Delta":75929778},{"NoteNumber":75,"Velocity":53,"Duration":99599,"SoundDuration":99599,"Delta":76028525},{"NoteNumber":51,"Velocity":49,"Duration":99599,"SoundDuration":99599,"Delta":76028525},{"NoteNumber":84,"Velocity":82,"Duration":604303,"SoundDuration":604303,"Delta":76128125},{"NoteNumber":39,"Velocity":67,"Duration":101348,"SoundDuration":101348,"Delta":76128125},{"NoteNumber":68,"Velocity":55,"Duration":100462,"SoundDuration":100462,"Delta":76229473},{"NoteNumber":51,"Velocity":50,"Duration":100462,"SoundDuration":100462,"Delta":76229473},{"NoteNumber":72,"Velocity":56,"Duration":98746,"SoundDuration":98746,"Delta":76329936},{"NoteNumber":56,"Velocity":52,"Duration":98746,"SoundDuration":98746,"Delta":76329936},{"NoteNumber":63,"Velocity":56,"Duration":100463,"SoundDuration":100463,"Delta":76428682},{"NoteNumber":60,"Velocity":52,"Duration":100463,"SoundDuration":100463,"Delta":76428682},{"NoteNumber":68,"Velocity":56,"Duration":101936,"SoundDuration":101936,"Delta":76529145},{"NoteNumber":56,"Velocity":52,"Duration":101936,"SoundDuration":101936,"Delta":76529145},{"NoteNumber":72,"Velocity":57,"Duration":101346,"SoundDuration":101346,"Delta":76631082},{"NoteNumber":51,"Velocity":53,"Duration":101346,"SoundDuration":101346,"Delta":76631082},{"NoteNumber":75,"Velocity":79,"Duration":614432,"SoundDuration":614432,"Delta":76732428},{"NoteNumber":48,"Velocity":53,"Duration":100469,"SoundDuration":100469,"Delta":76732428},{"NoteNumber":68,"Velocity":58,"Duration":101642,"SoundDuration":101642,"Delta":76832898},{"NoteNumber":51,"Velocity":50,"Duration":101642,"SoundDuration":101642,"Delta":76832898},{"NoteNumber":72,"Velocity":57,"Duration":102849,"SoundDuration":102849,"Delta":76934541},{"NoteNumber":56,"Velocity":49,"Duration":102849,"SoundDuration":102849,"Delta":76934541},{"NoteNumber":63,"Velocity":57,"Duration":103156,"SoundDuration":103156,"Delta":77037391},{"NoteNumber":60,"Velocity":49,"Duration":103156,"SoundDuration":103156,"Delta":77037391},{"NoteNumber":68,"Velocity":57,"Duration":103156,"SoundDuration":103156,"Delta":77140547},{"NoteNumber":56,"Velocity":49,"Duration":103156,"SoundDuration":103156,"Delta":77140547},{"NoteNumber":72,"Velocity":57,"Duration":103156,"SoundDuration":103156,"Delta":77243704},{"NoteNumber":51,"Velocity":49,"Duration":103156,"SoundDuration":103156,"Delta":77243704},{"NoteNumber":75,"Velocity":69,"Duration":604867,"SoundDuration":604867,"Delta":77346861},{"NoteNumber":39,"Velocity":56,"Duration":151451,"SoundDuration":151451,"Delta":77346861},{"NoteNumber":69,"Velocity":40,"Duration":101936,"SoundDuration":101936,"Delta":77447344},{"NoteNumber":57,"Velocity":36,"Duration":152316,"SoundDuration":152316,"Delta":77498312},{"NoteNumber":72,"Velocity":41,"Duration":101347,"SoundDuration":101347,"Delta":77549281},{"NoteNumber":63,"Velocity":41,"Duration":100755,"SoundDuration":100755,"Delta":77650629},{"NoteNumber":60,"Velocity":37,"Duration":151133,"SoundDuration":151133,"Delta":77650629},{"NoteNumber":69,"Velocity":42,"Duration":100462,"SoundDuration":100462,"Delta":77751384},{"NoteNumber":57,"Velocity":38,"Duration":149966,"SoundDuration":149966,"Delta":77801762},{"NoteNumber":72,"Velocity":42,"Duration":99880,"SoundDuration":99880,"Delta":77851847},{"NoteNumber":77,"Velocity":64,"Duration":589990,"SoundDuration":589990,"Delta":77951728},{"NoteNumber":51,"Velocity":39,"Duration":149106,"SoundDuration":149106,"Delta":77951728},{"NoteNumber":69,"Velocity":45,"Duration":99029,"SoundDuration":99029,"Delta":78051320},{"NoteNumber":57,"Velocity":39,"Duration":147978,"SoundDuration":147978,"Delta":78100835},{"NoteNumber":72,"Velocity":45,"Duration":98464,"SoundDuration":98464,"Delta":78150349},{"NoteNumber":63,"Velocity":46,"Duration":98184,"SoundDuration":98184,"Delta":78248813},{"NoteNumber":60,"Velocity":40,"Duration":98184,"SoundDuration":98184,"Delta":78248813},{"NoteNumber":69,"Velocity":46,"Duration":97633,"SoundDuration":97633,"Delta":78346998},{"NoteNumber":57,"Velocity":40,"Duration":97633,"SoundDuration":97633,"Delta":78346998},{"NoteNumber":72,"Velocity":47,"Duration":97088,"SoundDuration":97088,"Delta":78444631},{"NoteNumber":51,"Velocity":41,"Duration":97088,"SoundDuration":97088,"Delta":78444631},{"NoteNumber":78,"Velocity":73,"Duration":594816,"SoundDuration":594816,"Delta":78541719},{"NoteNumber":39,"Velocity":58,"Duration":146040,"SoundDuration":146040,"Delta":78541719},{"NoteNumber":69,"Velocity":48,"Duration":98184,"SoundDuration":98184,"Delta":78638807},{"NoteNumber":57,"Velocity":42,"Duration":148261,"SoundDuration":148261,"Delta":78687760},{"NoteNumber":72,"Velocity":49,"Duration":99029,"SoundDuration":99029,"Delta":78736992},{"NoteNumber":63,"Velocity":49,"Duration":99880,"SoundDuration":99880,"Delta":78836021},{"NoteNumber":60,"Velocity":44,"Duration":150258,"SoundDuration":150258,"Delta":78836021},{"NoteNumber":69,"Velocity":50,"Duration":100463,"SoundDuration":100463,"Delta":78935902},{"NoteNumber":57,"Velocity":44,"Duration":150255,"SoundDuration":150255,"Delta":78986280},{"NoteNumber":72,"Velocity":51,"Duration":100170,"SoundDuration":100170,"Delta":79036365},{"NoteNumber":77,"Velocity":69,"Duration":609875,"SoundDuration":609875,"Delta":79136536},{"NoteNumber":51,"Velocity":46,"Duration":120906,"SoundDuration":120906,"Delta":79136536},{"NoteNumber":69,"Velocity":48,"Duration":101051,"SoundDuration":101051,"Delta":79237291},{"NoteNumber":57,"Velocity":45,"Duration":121617,"SoundDuration":121617,"Delta":79287669},{"NoteNumber":72,"Velocity":47,"Duration":101348,"SoundDuration":101348,"Delta":79338343},{"NoteNumber":63,"Velocity":45,"Duration":101936,"SoundDuration":101936,"Delta":79439691},{"NoteNumber":65,"Velocity":44,"Duration":101936,"SoundDuration":101936,"Delta":79439691},{"NoteNumber":69,"Velocity":44,"Duration":102239,"SoundDuration":102239,"Delta":79541628},{"NoteNumber":57,"Velocity":42,"Duration":102239,"SoundDuration":102239,"Delta":79541628},{"NoteNumber":72,"Velocity":41,"Duration":102542,"SoundDuration":102542,"Delta":79643868},{"NoteNumber":51,"Velocity":41,"Duration":102542,"SoundDuration":102542,"Delta":79643868},{"NoteNumber":77,"Velocity":78,"Duration":618932,"SoundDuration":618932,"Delta":79746411},{"NoteNumber":39,"Velocity":60,"Duration":155649,"SoundDuration":155649,"Delta":79746411},{"NoteNumber":70,"Velocity":47,"Duration":103766,"SoundDuration":103766,"Delta":79850177},{"NoteNumber":58,"Velocity":40,"Duration":155040,"SoundDuration":155040,"Delta":79902061},{"NoteNumber":73,"Velocity":47,"Duration":103156,"SoundDuration":103156,"Delta":79953944},{"NoteNumber":61,"Velocity":48,"Duration":103156,"SoundDuration":103156,"Delta":80057101},{"NoteNumber":65,"Velocity":41,"Duration":154428,"SoundDuration":154428,"Delta":80057101},{"NoteNumber":70,"Velocity":48,"Duration":102542,"SoundDuration":102542,"Delta":80160257},{"NoteNumber":58,"Velocity":42,"Duration":153814,"SoundDuration":153814,"Delta":80211529},{"NoteNumber":73,"Velocity":49,"Duration":102543,"SoundDuration":102543,"Delta":80262800},{"NoteNumber":79,"Velocity":79,"Duration":608080,"SoundDuration":608080,"Delta":80365343},{"NoteNumber":51,"Velocity":44,"Duration":152905,"SoundDuration":152905,"Delta":80365343},{"NoteNumber":70,"Velocity":50,"Duration":101936,"SoundDuration":101936,"Delta":80467280},{"NoteNumber":58,"Velocity":45,"Duration":152316,"SoundDuration":152316,"Delta":80518249},{"NoteNumber":73,"Velocity":51,"Duration":101348,"SoundDuration":101348,"Delta":80569217},{"NoteNumber":65,"Velocity":51,"Duration":101347,"SoundDuration":101347,"Delta":80670565},{"NoteNumber":61,"Velocity":45,"Duration":101347,"SoundDuration":101347,"Delta":80670565},{"NoteNumber":70,"Velocity":52,"Duration":100755,"SoundDuration":100755,"Delta":80771913},{"NoteNumber":58,"Velocity":46,"Duration":100755,"SoundDuration":100755,"Delta":80771913},{"NoteNumber":73,"Velocity":52,"Duration":100755,"SoundDuration":100755,"Delta":80872669},{"NoteNumber":51,"Velocity":47,"Duration":100755,"SoundDuration":100755,"Delta":80872669},{"NoteNumber":80,"Velocity":82,"Duration":597583,"SoundDuration":597583,"Delta":80973424},{"NoteNumber":39,"Velocity":64,"Duration":150255,"SoundDuration":150255,"Delta":80973424},{"NoteNumber":71,"Velocity":53,"Duration":100170,"SoundDuration":100170,"Delta":81073595},{"NoteNumber":59,"Velocity":48,"Duration":149676,"SoundDuration":149676,"Delta":81123680},{"NoteNumber":73,"Velocity":55,"Duration":99591,"SoundDuration":99591,"Delta":81173765},{"NoteNumber":65,"Velocity":56,"Duration":99591,"SoundDuration":99591,"Delta":81273357},{"NoteNumber":62,"Velocity":49,"Duration":149106,"SoundDuration":149106,"Delta":81273357},{"NoteNumber":71,"Velocity":56,"Duration":99029,"SoundDuration":99029,"Delta":81372948},{"NoteNumber":59,"Velocity":50,"Duration":148544,"SoundDuration":148544,"Delta":81422463},{"NoteNumber":73,"Velocity":57,"Duration":99029,"SoundDuration":99029,"Delta":81471978},{"NoteNumber":79,"Velocity":78,"Duration":594490,"SoundDuration":594490,"Delta":81571007},{"NoteNumber":51,"Velocity":48,"Duration":146857,"SoundDuration":146857,"Delta":81571007},{"NoteNumber":71,"Velocity":57,"Duration":98184,"SoundDuration":98184,"Delta":81668912},{"NoteNumber":59,"Velocity":47,"Duration":147978,"SoundDuration":147978,"Delta":81717865},{"NoteNumber":73,"Velocity":55,"Duration":98746,"SoundDuration":98746,"Delta":81767097},{"NoteNumber":65,"Velocity":53,"Duration":99310,"SoundDuration":99310,"Delta":81865843},{"NoteNumber":67,"Velocity":46,"Duration":99310,"SoundDuration":99310,"Delta":81865843},{"NoteNumber":71,"Velocity":52,"Duration":99880,"SoundDuration":99880,"Delta":81965154},{"NoteNumber":59,"Velocity":46,"Duration":99880,"SoundDuration":99880,"Delta":81965154},{"NoteNumber":73,"Velocity":51,"Duration":100463,"SoundDuration":100463,"Delta":82065035},{"NoteNumber":51,"Velocity":45,"Duration":100463,"SoundDuration":100463,"Delta":82065035},{"NoteNumber":79,"Velocity":85,"Duration":618932,"SoundDuration":618932,"Delta":82165498},{"NoteNumber":39,"Velocity":67,"Duration":155649,"SoundDuration":155649,"Delta":82165498},{"NoteNumber":72,"Velocity":52,"Duration":103766,"SoundDuration":103766,"Delta":82269265},{"NoteNumber":60,"Velocity":44,"Duration":155040,"SoundDuration":155040,"Delta":82321148},{"NoteNumber":75,"Velocity":52,"Duration":103156,"SoundDuration":103156,"Delta":82373031},{"NoteNumber":63,"Velocity":52,"Duration":103156,"SoundDuration":103156,"Delta":82476188},{"NoteNumber":67,"Velocity":45,"Duration":154428,"SoundDuration":154428,"Delta":82476188},{"NoteNumber":72,"Velocity":52,"Duration":102542,"SoundDuration":102542,"Delta":82579345},{"NoteNumber":60,"Velocity":48,"Duration":153814,"SoundDuration":153814,"Delta":82630616},{"NoteNumber":75,"Velocity":53,"Duration":102543,"SoundDuration":102543,"Delta":82681888},{"NoteNumber":80,"Velocity":89,"Duration":608080,"SoundDuration":608080,"Delta":82784431},{"NoteNumber":51,"Velocity":49,"Duration":152905,"SoundDuration":152905,"Delta":82784431},{"NoteNumber":72,"Velocity":55,"Duration":101936,"SoundDuration":101936,"Delta":82886368},{"NoteNumber":60,"Velocity":50,"Duration":152316,"SoundDuration":152316,"Delta":82937336},{"NoteNumber":75,"Velocity":55,"Duration":101348,"SoundDuration":101348,"Delta":82988304},{"NoteNumber":68,"Velocity":56,"Duration":101347,"SoundDuration":101347,"Delta":83089652},{"NoteNumber":63,"Velocity":51,"Duration":101347,"SoundDuration":101347,"Delta":83089652},{"NoteNumber":72,"Velocity":56,"Duration":100755,"SoundDuration":100755,"Delta":83191000},{"NoteNumber":60,"Velocity":51,"Duration":100755,"SoundDuration":100755,"Delta":83191000},{"NoteNumber":75,"Velocity":56,"Duration":100755,"SoundDuration":100755,"Delta":83291756},{"NoteNumber":51,"Velocity":51,"Duration":100755,"SoundDuration":100755,"Delta":83291756},{"NoteNumber":81,"Velocity":89,"Duration":597583,"SoundDuration":597583,"Delta":83392512},{"NoteNumber":39,"Velocity":64,"Duration":150255,"SoundDuration":150255,"Delta":83392512},{"NoteNumber":72,"Velocity":58,"Duration":100170,"SoundDuration":100170,"Delta":83492682},{"NoteNumber":60,"Velocity":52,"Duration":149676,"SoundDuration":149676,"Delta":83542767},{"NoteNumber":75,"Velocity":59,"Duration":99591,"SoundDuration":99591,"Delta":83592852},{"NoteNumber":69,"Velocity":60,"Duration":99591,"SoundDuration":99591,"Delta":83692444},{"NoteNumber":66,"Velocity":52,"Duration":149106,"SoundDuration":149106,"Delta":83692444},{"NoteNumber":72,"Velocity":60,"Duration":99029,"SoundDuration":99029,"Delta":83792036},{"NoteNumber":60,"Velocity":53,"Duration":148544,"SoundDuration":148544,"Delta":83841550},{"NoteNumber":75,"Velocity":61,"Duration":99029,"SoundDuration":99029,"Delta":83891065},{"NoteNumber":90,"Velocity":93,"Duration":601743,"SoundDuration":601743,"Delta":83990095},{"NoteNumber":51,"Velocity":46,"Duration":100469,"SoundDuration":100469,"Delta":83990095},{"NoteNumber":81,"Velocity":58,"Duration":101642,"SoundDuration":101642,"Delta":84090565},{"NoteNumber":60,"Velocity":46,"Duration":101642,"SoundDuration":101642,"Delta":84090565},{"NoteNumber":84,"Velocity":59,"Duration":102542,"SoundDuration":102542,"Delta":84192207},{"NoteNumber":63,"Velocity":46,"Duration":102542,"SoundDuration":102542,"Delta":84192207},{"NoteNumber":75,"Velocity":59,"Duration":99029,"SoundDuration":99029,"Delta":84294750},{"NoteNumber":69,"Velocity":46,"Duration":99029,"SoundDuration":99029,"Delta":84294750},{"NoteNumber":81,"Velocity":59,"Duration":99029,"SoundDuration":99029,"Delta":84393779},{"NoteNumber":63,"Velocity":46,"Duration":99029,"SoundDuration":99029,"Delta":84393779},{"NoteNumber":84,"Velocity":60,"Duration":99029,"SoundDuration":99029,"Delta":84492809},{"NoteNumber":60,"Velocity":46,"Duration":99029,"SoundDuration":99029,"Delta":84492809},{"NoteNumber":89,"Velocity":94,"Duration":606018,"SoundDuration":606018,"Delta":84591838},{"NoteNumber":51,"Velocity":70,"Duration":101348,"SoundDuration":101348,"Delta":84591838},{"NoteNumber":77,"Velocity":58,"Duration":101348,"SoundDuration":101348,"Delta":84693186},{"NoteNumber":58,"Velocity":50,"Duration":101348,"SoundDuration":101348,"Delta":84693186},{"NoteNumber":80,"Velocity":58,"Duration":101348,"SoundDuration":101348,"Delta":84794534},{"NoteNumber":62,"Velocity":51,"Duration":101348,"SoundDuration":101348,"Delta":84794534},{"NoteNumber":70,"Velocity":58,"Duration":100755,"SoundDuration":100755,"Delta":84895882},{"NoteNumber":68,"Velocity":50,"Duration":100755,"SoundDuration":100755,"Delta":84895882},{"NoteNumber":77,"Velocity":58,"Duration":100755,"SoundDuration":100755,"Delta":84996638},{"NoteNumber":62,"Velocity":51,"Duration":100755,"SoundDuration":100755,"Delta":84996638},{"NoteNumber":80,"Velocity":58,"Duration":100463,"SoundDuration":100463,"Delta":85097394},{"NoteNumber":58,"Velocity":51,"Duration":100463,"SoundDuration":100463,"Delta":85097394},{"NoteNumber":82,"Velocity":84,"Duration":598216,"SoundDuration":598216,"Delta":85197857},{"NoteNumber":51,"Velocity":51,"Duration":99029,"SoundDuration":99029,"Delta":85197857},{"NoteNumber":77,"Velocity":58,"Duration":99029,"SoundDuration":99029,"Delta":85296886},{"NoteNumber":58,"Velocity":51,"Duration":99029,"SoundDuration":99029,"Delta":85296886},{"NoteNumber":80,"Velocity":58,"Duration":101347,"SoundDuration":101347,"Delta":85395916},{"NoteNumber":62,"Velocity":52,"Duration":101347,"SoundDuration":101347,"Delta":85395916},{"NoteNumber":70,"Velocity":58,"Duration":100463,"SoundDuration":100463,"Delta":85497264},{"NoteNumber":68,"Velocity":52,"Duration":100463,"SoundDuration":100463,"Delta":85497264},{"NoteNumber":77,"Velocity":58,"Duration":98746,"SoundDuration":98746,"Delta":85597727},{"NoteNumber":62,"Velocity":52,"Duration":98746,"SoundDuration":98746,"Delta":85597727},{"NoteNumber":80,"Velocity":58,"Duration":99599,"SoundDuration":99599,"Delta":85696474},{"NoteNumber":58,"Velocity":52,"Duration":99599,"SoundDuration":99599,"Delta":85696474},{"NoteNumber":85,"Velocity":86,"Duration":604303,"SoundDuration":604303,"Delta":85796073},{"NoteNumber":51,"Velocity":52,"Duration":101347,"SoundDuration":101347,"Delta":85796073},{"NoteNumber":76,"Velocity":60,"Duration":100463,"SoundDuration":100463,"Delta":85897421},{"NoteNumber":58,"Velocity":51,"Duration":100463,"SoundDuration":100463,"Delta":85897421},{"NoteNumber":80,"Velocity":61,"Duration":98746,"SoundDuration":98746,"Delta":85997884},{"NoteNumber":61,"Velocity":51,"Duration":98746,"SoundDuration":98746,"Delta":85997884},{"NoteNumber":70,"Velocity":61,"Duration":100463,"SoundDuration":100463,"Delta":86096631},{"NoteNumber":68,"Velocity":51,"Duration":100463,"SoundDuration":100463,"Delta":86096631},{"NoteNumber":76,"Velocity":61,"Duration":101936,"SoundDuration":101936,"Delta":86197094},{"NoteNumber":61,"Velocity":51,"Duration":101936,"SoundDuration":101936,"Delta":86197094},{"NoteNumber":80,"Velocity":61,"Duration":101346,"SoundDuration":101346,"Delta":86299031},{"NoteNumber":58,"Velocity":51,"Duration":101346,"SoundDuration":101346,"Delta":86299031},{"NoteNumber":79,"Velocity":79,"Duration":625952,"SoundDuration":625952,"Delta":86400377},{"NoteNumber":51,"Velocity":51,"Duration":100469,"SoundDuration":100469,"Delta":86400377},{"NoteNumber":73,"Velocity":58,"Duration":101642,"SoundDuration":101642,"Delta":86500847},{"NoteNumber":58,"Velocity":50,"Duration":101642,"SoundDuration":101642,"Delta":86500847},{"NoteNumber":75,"Velocity":57,"Duration":102849,"SoundDuration":102849,"Delta":86602490},{"NoteNumber":61,"Velocity":50,"Duration":102849,"SoundDuration":102849,"Delta":86602490},{"NoteNumber":67,"Velocity":56,"Duration":105704,"SoundDuration":105704,"Delta":86705339},{"NoteNumber":63,"Velocity":49,"Duration":105704,"SoundDuration":105704,"Delta":86705339},{"NoteNumber":73,"Velocity":55,"Duration":107642,"SoundDuration":107642,"Delta":86811044},{"NoteNumber":61,"Velocity":49,"Duration":107642,"SoundDuration":107642,"Delta":86811044},{"NoteNumber":75,"Velocity":55,"Duration":107642,"SoundDuration":107642,"Delta":86918687},{"NoteNumber":58,"Velocity":51,"Duration":107642,"SoundDuration":107642,"Delta":86918687},{"NoteNumber":80,"Velocity":81,"Duration":606018,"SoundDuration":606018,"Delta":87026329},{"NoteNumber":44,"Velocity":68,"Duration":101348,"SoundDuration":101348,"Delta":87026329},{"NoteNumber":68,"Velocity":44,"Duration":101348,"SoundDuration":101348,"Delta":87127677},{"NoteNumber":51,"Velocity":40,"Duration":101348,"SoundDuration":101348,"Delta":87127677},{"NoteNumber":72,"Velocity":41,"Duration":101348,"SoundDuration":101348,"Delta":87229025},{"NoteNumber":56,"Velocity":40,"Duration":101348,"SoundDuration":101348,"Delta":87229025},{"NoteNumber":63,"Velocity":39,"Duration":100755,"SoundDuration":100755,"Delta":87330373},{"NoteNumber":60,"Velocity":40,"Duration":100755,"SoundDuration":100755,"Delta":87330373},{"NoteNumber":68,"Velocity":38,"Duration":100755,"SoundDuration":100755,"Delta":87431129},{"NoteNumber":56,"Velocity":39,"Duration":100755,"SoundDuration":100755,"Delta":87431129},{"NoteNumber":72,"Velocity":36,"Duration":100463,"SoundDuration":100463,"Delta":87531885},{"NoteNumber":51,"Velocity":39,"Duration":100463,"SoundDuration":100463,"Delta":87531885},{"NoteNumber":75,"Velocity":61,"Duration":598216,"SoundDuration":598216,"Delta":87632348},{"NoteNumber":44,"Velocity":39,"Duration":99029,"SoundDuration":99029,"Delta":87632348},{"NoteNumber":68,"Velocity":33,"Duration":99029,"SoundDuration":99029,"Delta":87731377},{"NoteNumber":51,"Velocity":29,"Duration":99029,"SoundDuration":99029,"Delta":87731377},{"NoteNumber":72,"Velocity":34,"Duration":101347,"SoundDuration":101347,"Delta":87830407},{"NoteNumber":56,"Velocity":29,"Duration":101347,"SoundDuration":101347,"Delta":87830407},{"NoteNumber":63,"Velocity":34,"Duration":100463,"SoundDuration":100463,"Delta":87931755},{"NoteNumber":60,"Velocity":29,"Duration":100463,"SoundDuration":100463,"Delta":87931755},{"NoteNumber":68,"Velocity":35,"Duration":98746,"SoundDuration":98746,"Delta":88032218},{"NoteNumber":56,"Velocity":30,"Duration":98746,"SoundDuration":98746,"Delta":88032218},{"NoteNumber":72,"Velocity":35,"Duration":99599,"SoundDuration":99599,"Delta":88130964},{"NoteNumber":51,"Velocity":30,"Duration":99599,"SoundDuration":99599,"Delta":88130964},{"NoteNumber":75,"Velocity":64,"Duration":604303,"SoundDuration":604303,"Delta":88230564},{"NoteNumber":44,"Velocity":31,"Duration":101347,"SoundDuration":101347,"Delta":88230564},{"NoteNumber":68,"Velocity":36,"Duration":100463,"SoundDuration":100463,"Delta":88331912},{"NoteNumber":51,"Velocity":31,"Duration":100463,"SoundDuration":100463,"Delta":88331912},{"NoteNumber":72,"Velocity":37,"Duration":98746,"SoundDuration":98746,"Delta":88432375},{"NoteNumber":56,"Velocity":33,"Duration":98746,"SoundDuration":98746,"Delta":88432375},{"NoteNumber":63,"Velocity":37,"Duration":100463,"SoundDuration":100463,"Delta":88531122},{"NoteNumber":60,"Velocity":33,"Duration":100463,"SoundDuration":100463,"Delta":88531122},{"NoteNumber":68,"Velocity":38,"Duration":101936,"SoundDuration":101936,"Delta":88631585},{"NoteNumber":56,"Velocity":33,"Duration":101936,"SoundDuration":101936,"Delta":88631585},{"NoteNumber":72,"Velocity":38,"Duration":101346,"SoundDuration":101346,"Delta":88733522},{"NoteNumber":51,"Velocity":34,"Duration":101346,"SoundDuration":101346,"Delta":88733522},{"NoteNumber":75,"Velocity":69,"Duration":614432,"SoundDuration":614432,"Delta":88834868},{"NoteNumber":44,"Velocity":34,"Duration":100469,"SoundDuration":100469,"Delta":88834868},{"NoteNumber":68,"Velocity":39,"Duration":101642,"SoundDuration":101642,"Delta":88935338},{"NoteNumber":51,"Velocity":35,"Duration":101642,"SoundDuration":101642,"Delta":88935338},{"NoteNumber":72,"Velocity":40,"Duration":102849,"SoundDuration":102849,"Delta":89036980},{"NoteNumber":56,"Velocity":35,"Duration":102849,"SoundDuration":102849,"Delta":89036980},{"NoteNumber":63,"Velocity":40,"Duration":103156,"SoundDuration":103156,"Delta":89139830},{"NoteNumber":60,"Velocity":35,"Duration":103156,"SoundDuration":103156,"Delta":89139830},{"NoteNumber":68,"Velocity":41,"Duration":103156,"SoundDuration":103156,"Delta":89242987},{"NoteNumber":56,"Velocity":36,"Duration":103156,"SoundDuration":103156,"Delta":89242987},{"NoteNumber":72,"Velocity":41,"Duration":103156,"SoundDuration":103156,"Delta":89346144},{"NoteNumber":51,"Velocity":36,"Duration":103156,"SoundDuration":103156,"Delta":89346144},{"NoteNumber":77,"Velocity":77,"Duration":606018,"SoundDuration":606018,"Delta":89449300},{"NoteNumber":44,"Velocity":39,"Duration":101348,"SoundDuration":101348,"Delta":89449300},{"NoteNumber":70,"Velocity":47,"Duration":101348,"SoundDuration":101348,"Delta":89550648},{"NoteNumber":51,"Velocity":39,"Duration":101348,"SoundDuration":101348,"Delta":89550648},{"NoteNumber":73,"Velocity":41,"Duration":101348,"SoundDuration":101348,"Delta":89651996},{"NoteNumber":55,"Velocity":40,"Duration":101348,"SoundDuration":101348,"Delta":89651996},{"NoteNumber":65,"Velocity":41,"Duration":100755,"SoundDuration":100755,"Delta":89753344},{"NoteNumber":61,"Velocity":41,"Duration":100755,"SoundDuration":100755,"Delta":89753344},{"NoteNumber":70,"Velocity":42,"Duration":100755,"SoundDuration":100755,"Delta":89854100},{"NoteNumber":55,"Velocity":42,"Duration":100755,"SoundDuration":100755,"Delta":89854100},{"NoteNumber":73,"Velocity":44,"Duration":100463,"SoundDuration":100463,"Delta":89954856},{"NoteNumber":51,"Velocity":42,"Duration":100463,"SoundDuration":100463,"Delta":89954856},{"NoteNumber":75,"Velocity":68,"Duration":598216,"SoundDuration":598216,"Delta":90055319},{"NoteNumber":44,"Velocity":44,"Duration":99029,"SoundDuration":99029,"Delta":90055319},{"NoteNumber":70,"Velocity":44,"Duration":99029,"SoundDuration":99029,"Delta":90154348},{"NoteNumber":51,"Velocity":42,"Duration":99029,"SoundDuration":99029,"Delta":90154348},{"NoteNumber":73,"Velocity":44,"Duration":101347,"SoundDuration":101347,"Delta":90253378},{"NoteNumber":55,"Velocity":42,"Duration":101347,"SoundDuration":101347,"Delta":90253378},{"NoteNumber":63,"Velocity":44,"Duration":100463,"SoundDuration":100463,"Delta":90354726},{"NoteNumber":61,"Velocity":40,"Duration":100463,"SoundDuration":100463,"Delta":90354726},{"NoteNumber":70,"Velocity":44,"Duration":98746,"SoundDuration":98746,"Delta":90455189},{"NoteNumber":55,"Velocity":40,"Duration":98746,"SoundDuration":98746,"Delta":90455189},{"NoteNumber":73,"Velocity":44,"Duration":99599,"SoundDuration":99599,"Delta":90553935},{"NoteNumber":51,"Velocity":40,"Duration":99599,"SoundDuration":99599,"Delta":90553935},{"NoteNumber":84,"Velocity":73,"Duration":604303,"SoundDuration":604303,"Delta":90653535},{"NoteNumber":44,"Velocity":40,"Duration":101347,"SoundDuration":101347,"Delta":90653535},{"NoteNumber":70,"Velocity":44,"Duration":100463,"SoundDuration":100463,"Delta":90754883},{"NoteNumber":51,"Velocity":40,"Duration":100463,"SoundDuration":100463,"Delta":90754883},{"NoteNumber":73,"Velocity":44,"Duration":98746,"SoundDuration":98746,"Delta":90855346},{"NoteNumber":55,"Velocity":40,"Duration":98746,"SoundDuration":98746,"Delta":90855346},{"NoteNumber":63,"Velocity":44,"Duration":100463,"SoundDuration":100463,"Delta":90954093},{"NoteNumber":61,"Velocity":40,"Duration":100463,"SoundDuration":100463,"Delta":90954093},{"NoteNumber":70,"Velocity":44,"Duration":101936,"SoundDuration":101936,"Delta":91054556},{"NoteNumber":55,"Velocity":40,"Duration":101936,"SoundDuration":101936,"Delta":91054556},{"NoteNumber":73,"Velocity":44,"Duration":101346,"SoundDuration":101346,"Delta":91156493},{"NoteNumber":51,"Velocity":40,"Duration":101346,"SoundDuration":101346,"Delta":91156493},{"NoteNumber":79,"Velocity":69,"Duration":625952,"SoundDuration":625952,"Delta":91257839},{"NoteNumber":44,"Velocity":40,"Duration":100469,"SoundDuration":100469,"Delta":91257839},{"NoteNumber":70,"Velocity":42,"Duration":101642,"SoundDuration":101642,"Delta":91358309},{"NoteNumber":51,"Velocity":40,"Duration":101642,"SoundDuration":101642,"Delta":91358309},{"NoteNumber":73,"Velocity":40,"Duration":102849,"SoundDuration":102849,"Delta":91459951},{"NoteNumber":55,"Velocity":40,"Duration":102849,"SoundDuration":102849,"Delta":91459951},{"NoteNumber":63,"Velocity":39,"Duration":105704,"SoundDuration":105704,"Delta":91562801},{"NoteNumber":61,"Velocity":41,"Duration":105704,"SoundDuration":105704,"Delta":91562801},{"NoteNumber":70,"Velocity":38,"Duration":107642,"SoundDuration":107642,"Delta":91668506},{"NoteNumber":55,"Velocity":41,"Duration":107642,"SoundDuration":107642,"Delta":91668506},{"NoteNumber":73,"Velocity":37,"Duration":107642,"SoundDuration":107642,"Delta":91776149},{"NoteNumber":51,"Velocity":41,"Duration":107642,"SoundDuration":107642,"Delta":91776149},{"NoteNumber":80,"Velocity":72,"Duration":606018,"SoundDuration":606018,"Delta":91883791},{"NoteNumber":44,"Velocity":49,"Duration":101348,"SoundDuration":101348,"Delta":91883791},{"NoteNumber":68,"Velocity":36,"Duration":101348,"SoundDuration":101348,"Delta":91985139},{"NoteNumber":51,"Velocity":36,"Duration":101348,"SoundDuration":101348,"Delta":91985139},{"NoteNumber":72,"Velocity":36,"Duration":101348,"SoundDuration":101348,"Delta":92086487},{"NoteNumber":56,"Velocity":36,"Duration":101348,"SoundDuration":101348,"Delta":92086487},{"NoteNumber":63,"Velocity":36,"Duration":100755,"SoundDuration":100755,"Delta":92187835},{"NoteNumber":60,"Velocity":36,"Duration":100755,"SoundDuration":100755,"Delta":92187835},{"NoteNumber":68,"Velocity":36,"Duration":100755,"SoundDuration":100755,"Delta":92288591},{"NoteNumber":56,"Velocity":36,"Duration":100755,"SoundDuration":100755,"Delta":92288591},{"NoteNumber":72,"Velocity":37,"Duration":100463,"SoundDuration":100463,"Delta":92389347},{"NoteNumber":51,"Velocity":36,"Duration":100463,"SoundDuration":100463,"Delta":92389347},{"NoteNumber":75,"Velocity":61,"Duration":598216,"SoundDuration":598216,"Delta":92489810},{"NoteNumber":44,"Velocity":36,"Duration":99029,"SoundDuration":99029,"Delta":92489810},{"NoteNumber":68,"Velocity":33,"Duration":99029,"SoundDuration":99029,"Delta":92588839},{"NoteNumber":51,"Velocity":29,"Duration":99029,"SoundDuration":99029,"Delta":92588839},{"NoteNumber":72,"Velocity":34,"Duration":101347,"SoundDuration":101347,"Delta":92687869},{"NoteNumber":56,"Velocity":29,"Duration":101347,"SoundDuration":101347,"Delta":92687869},{"NoteNumber":63,"Velocity":34,"Duration":100463,"SoundDuration":100463,"Delta":92789217},{"NoteNumber":60,"Velocity":29,"Duration":100463,"SoundDuration":100463,"Delta":92789217},{"NoteNumber":68,"Velocity":35,"Duration":98746,"SoundDuration":98746,"Delta":92889680},{"NoteNumber":56,"Velocity":30,"Duration":98746,"SoundDuration":98746,"Delta":92889680},{"NoteNumber":72,"Velocity":35,"Duration":99599,"SoundDuration":99599,"Delta":92988426},{"NoteNumber":51,"Velocity":30,"Duration":99599,"SoundDuration":99599,"Delta":92988426},{"NoteNumber":75,"Velocity":64,"Duration":604303,"SoundDuration":604303,"Delta":93088026},{"NoteNumber":44,"Velocity":31,"Duration":101347,"SoundDuration":101347,"Delta":93088026},{"NoteNumber":68,"Velocity":36,"Duration":100463,"SoundDuration":100463,"Delta":93189374},{"NoteNumber":51,"Velocity":31,"Duration":100463,"SoundDuration":100463,"Delta":93189374},{"NoteNumber":72,"Velocity":37,"Duration":98746,"SoundDuration":98746,"Delta":93289837},{"NoteNumber":56,"Velocity":33,"Duration":98746,"SoundDuration":98746,"Delta":93289837},{"NoteNumber":63,"Velocity":37,"Duration":100463,"SoundDuration":100463,"Delta":93388584},{"NoteNumber":60,"Velocity":33,"Duration":100463,"SoundDuration":100463,"Delta":93388584},{"NoteNumber":68,"Velocity":38,"Duration":101936,"SoundDuration":101936,"Delta":93489047},{"NoteNumber":56,"Velocity":33,"Duration":101936,"SoundDuration":101936,"Delta":93489047},{"NoteNumber":72,"Velocity":38,"Duration":101346,"SoundDuration":101346,"Delta":93590984},{"NoteNumber":51,"Velocity":34,"Duration":101346,"SoundDuration":101346,"Delta":93590984},{"NoteNumber":75,"Velocity":69,"Duration":614432,"SoundDuration":614432,"Delta":93692330},{"NoteNumber":44,"Velocity":34,"Duration":100469,"SoundDuration":100469,"Delta":93692330},{"NoteNumber":68,"Velocity":39,"Duration":101642,"SoundDuration":101642,"Delta":93792800},{"NoteNumber":51,"Velocity":35,"Duration":101642,"SoundDuration":101642,"Delta":93792800},{"NoteNumber":72,"Velocity":40,"Duration":102849,"SoundDuration":102849,"Delta":93894442},{"NoteNumber":56,"Velocity":35,"Duration":102849,"SoundDuration":102849,"Delta":93894442},{"NoteNumber":63,"Velocity":40,"Duration":103156,"SoundDuration":103156,"Delta":93997292},{"NoteNumber":60,"Velocity":35,"Duration":103156,"SoundDuration":103156,"Delta":93997292},{"NoteNumber":68,"Velocity":41,"Duration":103156,"SoundDuration":103156,"Delta":94100449},{"NoteNumber":56,"Velocity":36,"Duration":103156,"SoundDuration":103156,"Delta":94100449},{"NoteNumber":72,"Velocity":41,"Duration":103156,"SoundDuration":103156,"Delta":94203605},{"NoteNumber":51,"Velocity":36,"Duration":103156,"SoundDuration":103156,"Delta":94203605},{"NoteNumber":77,"Velocity":75,"Duration":606018,"SoundDuration":606018,"Delta":94306762},{"NoteNumber":44,"Velocity":39,"Duration":101348,"SoundDuration":101348,"Delta":94306762},{"NoteNumber":70,"Velocity":44,"Duration":101348,"SoundDuration":101348,"Delta":94408110},{"NoteNumber":51,"Velocity":38,"Duration":101348,"SoundDuration":101348,"Delta":94408110},{"NoteNumber":73,"Velocity":42,"Duration":101348,"SoundDuration":101348,"Delta":94509458},{"NoteNumber":55,"Velocity":38,"Duration":101348,"SoundDuration":101348,"Delta":94509458},{"NoteNumber":63,"Velocity":42,"Duration":100755,"SoundDuration":100755,"Delta":94610806},{"NoteNumber":61,"Velocity":37,"Duration":100755,"SoundDuration":100755,"Delta":94610806},{"NoteNumber":70,"Velocity":41,"Duration":100755,"SoundDuration":100755,"Delta":94711562},{"NoteNumber":55,"Velocity":37,"Duration":100755,"SoundDuration":100755,"Delta":94711562},{"NoteNumber":73,"Velocity":40,"Duration":100463,"SoundDuration":100463,"Delta":94812317},{"NoteNumber":51,"Velocity":36,"Duration":100463,"SoundDuration":100463,"Delta":94812317},{"NoteNumber":75,"Velocity":61,"Duration":619653,"SoundDuration":619653,"Delta":94912780},{"NoteNumber":44,"Velocity":36,"Duration":99029,"SoundDuration":99029,"Delta":94912780},{"NoteNumber":70,"Velocity":39,"Duration":99029,"SoundDuration":99029,"Delta":95011810},{"NoteNumber":51,"Velocity":36,"Duration":99029,"SoundDuration":99029,"Delta":95011810},{"NoteNumber":73,"Velocity":39,"Duration":99029,"SoundDuration":99029,"Delta":95110839},{"NoteNumber":55,"Velocity":35,"Duration":99029,"SoundDuration":99029,"Delta":95110839},{"NoteNumber":63,"Velocity":38,"Duration":108991,"SoundDuration":108991,"Delta":95209869},{"NoteNumber":61,"Velocity":35,"Duration":108991,"SoundDuration":108991,"Delta":95209869},{"NoteNumber":70,"Velocity":37,"Duration":108991,"SoundDuration":108991,"Delta":95318861},{"NoteNumber":55,"Velocity":34,"Duration":108991,"SoundDuration":108991,"Delta":95318861},{"NoteNumber":73,"Velocity":37,"Duration":104581,"SoundDuration":104581,"Delta":95427853},{"NoteNumber":51,"Velocity":34,"Duration":104581,"SoundDuration":104581,"Delta":95427853},{"NoteNumber":89,"Velocity":66,"Duration":604303,"SoundDuration":604303,"Delta":95532434},{"NoteNumber":44,"Velocity":26,"Duration":101347,"SoundDuration":101347,"Delta":95532434},{"NoteNumber":70,"Velocity":31,"Duration":100463,"SoundDuration":100463,"Delta":95633782},{"NoteNumber":51,"Velocity":26,"Duration":100463,"SoundDuration":100463,"Delta":95633782},{"NoteNumber":73,"Velocity":31,"Duration":98746,"SoundDuration":98746,"Delta":95734245},{"NoteNumber":55,"Velocity":26,"Duration":98746,"SoundDuration":98746,"Delta":95734245},{"NoteNumber":63,"Velocity":31,"Duration":100463,"SoundDuration":100463,"Delta":95832991},{"NoteNumber":61,"Velocity":27,"Duration":100463,"SoundDuration":100463,"Delta":95832991},{"NoteNumber":70,"Velocity":31,"Duration":101936,"SoundDuration":101936,"Delta":95933454},{"NoteNumber":55,"Velocity":27,"Duration":101936,"SoundDuration":101936,"Delta":95933454},{"NoteNumber":73,"Velocity":31,"Duration":101346,"SoundDuration":101346,"Delta":96035391},{"NoteNumber":51,"Velocity":28,"Duration":101346,"SoundDuration":101346,"Delta":96035391},{"NoteNumber":79,"Velocity":61,"Duration":625952,"SoundDuration":625952,"Delta":96136738},{"NoteNumber":44,"Velocity":28,"Duration":100469,"SoundDuration":100469,"Delta":96136738},{"NoteNumber":70,"Velocity":34,"Duration":101642,"SoundDuration":101642,"Delta":96237207},{"NoteNumber":51,"Velocity":27,"Duration":101642,"SoundDuration":101642,"Delta":96237207},{"NoteNumber":73,"Velocity":34,"Duration":102849,"SoundDuration":102849,"Delta":96338850},{"NoteNumber":55,"Velocity":27,"Duration":102849,"SoundDuration":102849,"Delta":96338850},{"NoteNumber":63,"Velocity":34,"Duration":105704,"SoundDuration":105704,"Delta":96441700},{"NoteNumber":61,"Velocity":27,"Duration":105704,"SoundDuration":105704,"Delta":96441700},{"NoteNumber":70,"Velocity":34,"Duration":107642,"SoundDuration":107642,"Delta":96547404},{"NoteNumber":55,"Velocity":28,"Duration":107642,"SoundDuration":107642,"Delta":96547404},{"NoteNumber":73,"Velocity":34,"Duration":107642,"SoundDuration":107642,"Delta":96655047},{"NoteNumber":51,"Velocity":30,"Duration":107642,"SoundDuration":107642,"Delta":96655047},{"NoteNumber":80,"Velocity":64,"Duration":606018,"SoundDuration":606018,"Delta":96762690},{"NoteNumber":44,"Velocity":37,"Duration":101348,"SoundDuration":101348,"Delta":96762690},{"NoteNumber":68,"Velocity":35,"Duration":101348,"SoundDuration":101348,"Delta":96864038},{"NoteNumber":51,"Velocity":29,"Duration":101348,"SoundDuration":101348,"Delta":96864038},{"NoteNumber":72,"Velocity":35,"Duration":101348,"SoundDuration":101348,"Delta":96965386},{"NoteNumber":56,"Velocity":29,"Duration":101348,"SoundDuration":101348,"Delta":96965386},{"NoteNumber":63,"Velocity":35,"Duration":100755,"SoundDuration":100755,"Delta":97066734},{"NoteNumber":60,"Velocity":29,"Duration":100755,"SoundDuration":100755,"Delta":97066734},{"NoteNumber":68,"Velocity":35,"Duration":100755,"SoundDuration":100755,"Delta":97167489},{"NoteNumber":56,"Velocity":29,"Duration":100755,"SoundDuration":100755,"Delta":97167489},{"NoteNumber":72,"Velocity":34,"Duration":100463,"SoundDuration":100463,"Delta":97268245},{"NoteNumber":51,"Velocity":29,"Duration":100463,"SoundDuration":100463,"Delta":97268245},{"NoteNumber":75,"Velocity":55,"Duration":598216,"SoundDuration":598216,"Delta":97368708},{"NoteNumber":44,"Velocity":29,"Duration":99029,"SoundDuration":99029,"Delta":97368708},{"NoteNumber":68,"Velocity":34,"Duration":99029,"SoundDuration":99029,"Delta":97467737},{"NoteNumber":51,"Velocity":29,"Duration":99029,"SoundDuration":99029,"Delta":97467737},{"NoteNumber":72,"Velocity":34,"Duration":101347,"SoundDuration":101347,"Delta":97566767},{"NoteNumber":56,"Velocity":29,"Duration":101347,"SoundDuration":101347,"Delta":97566767},{"NoteNumber":63,"Velocity":34,"Duration":100463,"SoundDuration":100463,"Delta":97668115},{"NoteNumber":60,"Velocity":29,"Duration":100463,"SoundDuration":100463,"Delta":97668115},{"NoteNumber":68,"Velocity":33,"Duration":98746,"SoundDuration":98746,"Delta":97768578},{"NoteNumber":56,"Velocity":29,"Duration":98746,"SoundDuration":98746,"Delta":97768578},{"NoteNumber":72,"Velocity":33,"Duration":99599,"SoundDuration":99599,"Delta":97867325},{"NoteNumber":51,"Velocity":29,"Duration":99599,"SoundDuration":99599,"Delta":97867325},{"NoteNumber":77,"Velocity":55,"Duration":604303,"SoundDuration":604303,"Delta":97966925},{"NoteNumber":44,"Velocity":28,"Duration":101347,"SoundDuration":101347,"Delta":97966925},{"NoteNumber":68,"Velocity":33,"Duration":100463,"SoundDuration":100463,"Delta":98068273},{"NoteNumber":51,"Velocity":28,"Duration":100463,"SoundDuration":100463,"Delta":98068273},{"NoteNumber":72,"Velocity":31,"Duration":98746,"SoundDuration":98746,"Delta":98168736},{"NoteNumber":56,"Velocity":28,"Duration":98746,"SoundDuration":98746,"Delta":98168736},{"NoteNumber":63,"Velocity":31,"Duration":100463,"SoundDuration":100463,"Delta":98267482},{"NoteNumber":60,"Velocity":28,"Duration":100463,"SoundDuration":100463,"Delta":98267482},{"NoteNumber":68,"Velocity":31,"Duration":101936,"SoundDuration":101936,"Delta":98367945},{"NoteNumber":56,"Velocity":28,"Duration":101936,"SoundDuration":101936,"Delta":98367945},{"NoteNumber":72,"Velocity":31,"Duration":101346,"SoundDuration":101346,"Delta":98469882},{"NoteNumber":51,"Velocity":28,"Duration":101346,"SoundDuration":101346,"Delta":98469882},{"NoteNumber":75,"Velocity":56,"Duration":614432,"SoundDuration":614432,"Delta":98571228},{"NoteNumber":44,"Velocity":28,"Duration":100469,"SoundDuration":100469,"Delta":98571228},{"NoteNumber":68,"Velocity":33,"Duration":101642,"SoundDuration":101642,"Delta":98671698},{"NoteNumber":51,"Velocity":28,"Duration":101642,"SoundDuration":101642,"Delta":98671698},{"NoteNumber":72,"Velocity":33,"Duration":102849,"SoundDuration":102849,"Delta":98773341},{"NoteNumber":56,"Velocity":28,"Duration":102849,"SoundDuration":102849,"Delta":98773341},{"NoteNumber":63,"Velocity":33,"Duration":103156,"SoundDuration":103156,"Delta":98876191},{"NoteNumber":60,"Velocity":28,"Duration":103156,"SoundDuration":103156,"Delta":98876191},{"NoteNumber":68,"Velocity":33,"Duration":103156,"SoundDuration":103156,"Delta":98979347},{"NoteNumber":56,"Velocity":28,"Duration":103156,"SoundDuration":103156,"Delta":98979347},{"NoteNumber":72,"Velocity":33,"Duration":103156,"SoundDuration":103156,"Delta":99082504},{"NoteNumber":51,"Velocity":27,"Duration":103156,"SoundDuration":103156,"Delta":99082504},{"NoteNumber":73,"Velocity":60,"Duration":606018,"SoundDuration":606018,"Delta":99185661},{"NoteNumber":39,"Velocity":37,"Duration":101348,"SoundDuration":101348,"Delta":99185661},{"NoteNumber":63,"Velocity":34,"Duration":101348,"SoundDuration":101348,"Delta":99287009},{"NoteNumber":44,"Velocity":29,"Duration":101348,"SoundDuration":101348,"Delta":99287009},{"NoteNumber":68,"Velocity":34,"Duration":101348,"SoundDuration":101348,"Delta":99388357},{"NoteNumber":51,"Velocity":29,"Duration":101348,"SoundDuration":101348,"Delta":99388357},{"NoteNumber":61,"Velocity":34,"Duration":100755,"SoundDuration":100755,"Delta":99489705},{"NoteNumber":56,"Velocity":29,"Duration":100755,"SoundDuration":100755,"Delta":99489705},{"NoteNumber":63,"Velocity":34,"Duration":100755,"SoundDuration":100755,"Delta":99590460},{"NoteNumber":51,"Velocity":29,"Duration":100755,"SoundDuration":100755,"Delta":99590460},{"NoteNumber":68,"Velocity":34,"Duration":100463,"SoundDuration":100463,"Delta":99691216},{"NoteNumber":44,"Velocity":29,"Duration":100463,"SoundDuration":100463,"Delta":99691216},{"NoteNumber":72,"Velocity":51,"Duration":99029,"SoundDuration":99029,"Delta":99791679},{"NoteNumber":72,"Velocity":33,"Duration":598216,"SoundDuration":598216,"Delta":99791679},{"NoteNumber":39,"Velocity":29,"Duration":99029,"SoundDuration":99029,"Delta":99791679},{"NoteNumber":63,"Velocity":33,"Duration":99029,"SoundDuration":99029,"Delta":99890708},{"NoteNumber":44,"Velocity":28,"Duration":99029,"SoundDuration":99029,"Delta":99890708},{"NoteNumber":68,"Velocity":33,"Duration":101347,"SoundDuration":101347,"Delta":99989738},{"NoteNumber":51,"Velocity":28,"Duration":101347,"SoundDuration":101347,"Delta":99989738},{"NoteNumber":60,"Velocity":33,"Duration":100463,"SoundDuration":100463,"Delta":100091086},{"NoteNumber":56,"Velocity":28,"Duration":100463,"SoundDuration":100463,"Delta":100091086},{"NoteNumber":63,"Velocity":33,"Duration":98746,"SoundDuration":98746,"Delta":100191549},{"NoteNumber":51,"Velocity":28,"Duration":98746,"SoundDuration":98746,"Delta":100191549},{"NoteNumber":68,"Velocity":33,"Duration":99599,"SoundDuration":99599,"Delta":100290296},{"NoteNumber":44,"Velocity":28,"Duration":99599,"SoundDuration":99599,"Delta":100290296},{"NoteNumber":73,"Velocity":57,"Duration":604303,"SoundDuration":604303,"Delta":100389896},{"NoteNumber":39,"Velocity":28,"Duration":101347,"SoundDuration":101347,"Delta":100389896},{"NoteNumber":63,"Velocity":31,"Duration":100463,"SoundDuration":100463,"Delta":100491244},{"NoteNumber":44,"Velocity":27,"Duration":100463,"SoundDuration":100463,"Delta":100491244},{"NoteNumber":68,"Velocity":31,"Duration":98746,"SoundDuration":98746,"Delta":100591707},{"NoteNumber":51,"Velocity":27,"Duration":98746,"SoundDuration":98746,"Delta":100591707},{"NoteNumber":61,"Velocity":30,"Duration":100463,"SoundDuration":100463,"Delta":100690453},{"NoteNumber":56,"Velocity":26,"Duration":100463,"SoundDuration":100463,"Delta":100690453},{"NoteNumber":63,"Velocity":30,"Duration":101936,"SoundDuration":101936,"Delta":100790916},{"NoteNumber":51,"Velocity":26,"Duration":101936,"SoundDuration":101936,"Delta":100790916},{"NoteNumber":68,"Velocity":30,"Duration":101346,"SoundDuration":101346,"Delta":100892853},{"NoteNumber":44,"Velocity":26,"Duration":101346,"SoundDuration":101346,"Delta":100892853},{"NoteNumber":72,"Velocity":51,"Duration":614432,"SoundDuration":614432,"Delta":100994199},{"NoteNumber":39,"Velocity":25,"Duration":100469,"SoundDuration":100469,"Delta":100994199},{"NoteNumber":63,"Velocity":29,"Duration":101642,"SoundDuration":101642,"Delta":101094669},{"NoteNumber":44,"Velocity":25,"Duration":101642,"SoundDuration":101642,"Delta":101094669},{"NoteNumber":68,"Velocity":29,"Duration":102849,"SoundDuration":102849,"Delta":101196312},{"NoteNumber":51,"Velocity":25,"Duration":102849,"SoundDuration":102849,"Delta":101196312},{"NoteNumber":60,"Velocity":29,"Duration":103156,"SoundDuration":103156,"Delta":101299161},{"NoteNumber":56,"Velocity":25,"Duration":103156,"SoundDuration":103156,"Delta":101299161},{"NoteNumber":63,"Velocity":29,"Duration":103156,"SoundDuration":103156,"Delta":101402318},{"NoteNumber":51,"Velocity":25,"Duration":103156,"SoundDuration":103156,"Delta":101402318},{"NoteNumber":68,"Velocity":29,"Duration":103156,"SoundDuration":103156,"Delta":101505475},{"NoteNumber":44,"Velocity":25,"Duration":103156,"SoundDuration":103156,"Delta":101505475},{"NoteNumber":70,"Velocity":61,"Duration":606018,"SoundDuration":606018,"Delta":101608631},{"NoteNumber":32,"Velocity":39,"Duration":101348,"SoundDuration":101348,"Delta":101608631},{"NoteNumber":60,"Velocity":29,"Duration":101348,"SoundDuration":101348,"Delta":101709979},{"NoteNumber":39,"Velocity":27,"Duration":101348,"SoundDuration":101348,"Delta":101709979},{"NoteNumber":63,"Velocity":29,"Duration":101348,"SoundDuration":101348,"Delta":101811327},{"NoteNumber":44,"Velocity":27,"Duration":101348,"SoundDuration":101348,"Delta":101811327},{"NoteNumber":58,"Velocity":29,"Duration":100755,"SoundDuration":100755,"Delta":101912675},{"NoteNumber":51,"Velocity":27,"Duration":100755,"SoundDuration":100755,"Delta":101912675},{"NoteNumber":60,"Velocity":29,"Duration":100755,"SoundDuration":100755,"Delta":102013431},{"NoteNumber":44,"Velocity":27,"Duration":100755,"SoundDuration":100755,"Delta":102013431},{"NoteNumber":63,"Velocity":29,"Duration":100463,"SoundDuration":100463,"Delta":102114187},{"NoteNumber":39,"Velocity":28,"Duration":100463,"SoundDuration":100463,"Delta":102114187},{"NoteNumber":68,"Velocity":49,"Duration":598216,"SoundDuration":598216,"Delta":102214650},{"NoteNumber":32,"Velocity":28,"Duration":99029,"SoundDuration":99029,"Delta":102214650},{"NoteNumber":60,"Velocity":29,"Duration":99029,"SoundDuration":99029,"Delta":102313679},{"NoteNumber":39,"Velocity":27,"Duration":99029,"SoundDuration":99029,"Delta":102313679},{"NoteNumber":63,"Velocity":29,"Duration":101347,"SoundDuration":101347,"Delta":102412709},{"NoteNumber":44,"Velocity":27,"Duration":101347,"SoundDuration":101347,"Delta":102412709},{"NoteNumber":56,"Velocity":29,"Duration":100463,"SoundDuration":100463,"Delta":102514057},{"NoteNumber":51,"Velocity":27,"Duration":100463,"SoundDuration":100463,"Delta":102514057},{"NoteNumber":60,"Velocity":29,"Duration":98746,"SoundDuration":98746,"Delta":102614520},{"NoteNumber":44,"Velocity":27,"Duration":98746,"SoundDuration":98746,"Delta":102614520},{"NoteNumber":63,"Velocity":29,"Duration":99599,"SoundDuration":99599,"Delta":102713267},{"NoteNumber":39,"Velocity":27,"Duration":99599,"SoundDuration":99599,"Delta":102713267},{"NoteNumber":70,"Velocity":52,"Duration":604303,"SoundDuration":604303,"Delta":102812866},{"NoteNumber":32,"Velocity":26,"Duration":101347,"SoundDuration":101347,"Delta":102812866},{"NoteNumber":60,"Velocity":28,"Duration":100463,"SoundDuration":100463,"Delta":102914214},{"NoteNumber":39,"Velocity":26,"Duration":100463,"SoundDuration":100463,"Delta":102914214},{"NoteNumber":63,"Velocity":28,"Duration":98746,"SoundDuration":98746,"Delta":103014677},{"NoteNumber":44,"Velocity":26,"Duration":98746,"SoundDuration":98746,"Delta":103014677},{"NoteNumber":58,"Velocity":28,"Duration":100463,"SoundDuration":100463,"Delta":103113424},{"NoteNumber":51,"Velocity":26,"Duration":100463,"SoundDuration":100463,"Delta":103113424},{"NoteNumber":60,"Velocity":28,"Duration":101936,"SoundDuration":101936,"Delta":103213887},{"NoteNumber":44,"Velocity":26,"Duration":101936,"SoundDuration":101936,"Delta":103213887},{"NoteNumber":63,"Velocity":28,"Duration":101346,"SoundDuration":101346,"Delta":103315824},{"NoteNumber":39,"Velocity":26,"Duration":101346,"SoundDuration":101346,"Delta":103315824},{"NoteNumber":68,"Velocity":49,"Duration":614432,"SoundDuration":614432,"Delta":103417170},{"NoteNumber":32,"Velocity":25,"Duration":100469,"SoundDuration":100469,"Delta":103417170},{"NoteNumber":60,"Velocity":28,"Duration":101642,"SoundDuration":101642,"Delta":103517640},{"NoteNumber":39,"Velocity":25,"Duration":101642,"SoundDuration":101642,"Delta":103517640},{"NoteNumber":63,"Velocity":28,"Duration":102849,"SoundDuration":102849,"Delta":103619283},{"NoteNumber":44,"Velocity":24,"Duration":102849,"SoundDuration":102849,"Delta":103619283},{"NoteNumber":56,"Velocity":28,"Duration":103156,"SoundDuration":103156,"Delta":103722132},{"NoteNumber":51,"Velocity":24,"Duration":103156,"SoundDuration":103156,"Delta":103722132},{"NoteNumber":60,"Velocity":28,"Duration":103156,"SoundDuration":103156,"Delta":103825289},{"NoteNumber":44,"Velocity":24,"Duration":103156,"SoundDuration":103156,"Delta":103825289},{"NoteNumber":63,"Velocity":27,"Duration":103156,"SoundDuration":103156,"Delta":103928446},{"NoteNumber":39,"Velocity":24,"Duration":103156,"SoundDuration":103156,"Delta":103928446},{"NoteNumber":70,"Velocity":55,"Duration":606018,"SoundDuration":606018,"Delta":104031602},{"NoteNumber":32,"Velocity":34,"Duration":101348,"SoundDuration":101348,"Delta":104031602},{"NoteNumber":60,"Velocity":29,"Duration":101348,"SoundDuration":101348,"Delta":104132950},{"NoteNumber":39,"Velocity":26,"Duration":101348,"SoundDuration":101348,"Delta":104132950},{"NoteNumber":63,"Velocity":29,"Duration":101348,"SoundDuration":101348,"Delta":104234298},{"NoteNumber":44,"Velocity":26,"Duration":101348,"SoundDuration":101348,"Delta":104234298},{"NoteNumber":58,"Velocity":29,"Duration":100755,"SoundDuration":100755,"Delta":104335646},{"NoteNumber":51,"Velocity":26,"Duration":100755,"SoundDuration":100755,"Delta":104335646},{"NoteNumber":60,"Velocity":29,"Duration":100755,"SoundDuration":100755,"Delta":104436402},{"NoteNumber":44,"Velocity":26,"Duration":100755,"SoundDuration":100755,"Delta":104436402},{"NoteNumber":63,"Velocity":29,"Duration":100463,"SoundDuration":100463,"Delta":104537158},{"NoteNumber":39,"Velocity":26,"Duration":100463,"SoundDuration":100463,"Delta":104537158},{"NoteNumber":68,"Velocity":40,"Duration":598216,"SoundDuration":598216,"Delta":104637621},{"NoteNumber":32,"Velocity":26,"Duration":99029,"SoundDuration":99029,"Delta":104637621},{"NoteNumber":60,"Velocity":28,"Duration":99029,"SoundDuration":99029,"Delta":104736650},{"NoteNumber":39,"Velocity":26,"Duration":99029,"SoundDuration":99029,"Delta":104736650},{"NoteNumber":63,"Velocity":28,"Duration":101347,"SoundDuration":101347,"Delta":104835680},{"NoteNumber":44,"Velocity":26,"Duration":101347,"SoundDuration":101347,"Delta":104835680},{"NoteNumber":56,"Velocity":28,"Duration":100463,"SoundDuration":100463,"Delta":104937028},{"NoteNumber":51,"Velocity":26,"Duration":100463,"SoundDuration":100463,"Delta":104937028},{"NoteNumber":60,"Velocity":28,"Duration":98746,"SoundDuration":98746,"Delta":105037491},{"NoteNumber":44,"Velocity":25,"Duration":98746,"SoundDuration":98746,"Delta":105037491},{"NoteNumber":63,"Velocity":28,"Duration":99599,"SoundDuration":99599,"Delta":105136237},{"NoteNumber":39,"Velocity":25,"Duration":99599,"SoundDuration":99599,"Delta":105136237},{"NoteNumber":70,"Velocity":50,"Duration":604303,"SoundDuration":604303,"Delta":105235837},{"NoteNumber":32,"Velocity":25,"Duration":101347,"SoundDuration":101347,"Delta":105235837},{"NoteNumber":60,"Velocity":27,"Duration":100463,"SoundDuration":100463,"Delta":105337185},{"NoteNumber":39,"Velocity":25,"Duration":100463,"SoundDuration":100463,"Delta":105337185},{"NoteNumber":63,"Velocity":27,"Duration":98746,"SoundDuration":98746,"Delta":105437648},{"NoteNumber":44,"Velocity":25,"Duration":98746,"SoundDuration":98746,"Delta":105437648},{"NoteNumber":58,"Velocity":27,"Duration":100463,"SoundDuration":100463,"Delta":105536395},{"NoteNumber":51,"Velocity":25,"Duration":100463,"SoundDuration":100463,"Delta":105536395},{"NoteNumber":60,"Velocity":27,"Duration":101936,"SoundDuration":101936,"Delta":105636858},{"NoteNumber":44,"Velocity":25,"Duration":101936,"SoundDuration":101936,"Delta":105636858},{"NoteNumber":63,"Velocity":26,"Duration":101346,"SoundDuration":101346,"Delta":105738795},{"NoteNumber":39,"Velocity":24,"Duration":101346,"SoundDuration":101346,"Delta":105738795},{"NoteNumber":68,"Velocity":42,"Duration":614432,"SoundDuration":614432,"Delta":105840141},{"NoteNumber":32,"Velocity":23,"Duration":100469,"SoundDuration":100469,"Delta":105840141},{"NoteNumber":60,"Velocity":26,"Duration":101642,"SoundDuration":101642,"Delta":105940611},{"NoteNumber":39,"Velocity":23,"Duration":101642,"SoundDuration":101642,"Delta":105940611},{"NoteNumber":63,"Velocity":26,"Duration":102849,"SoundDuration":102849,"Delta":106042253},{"NoteNumber":44,"Velocity":23,"Duration":102849,"SoundDuration":102849,"Delta":106042253},{"NoteNumber":56,"Velocity":26,"Duration":103156,"SoundDuration":103156,"Delta":106145103},{"NoteNumber":51,"Velocity":23,"Duration":103156,"SoundDuration":103156,"Delta":106145103},{"NoteNumber":60,"Velocity":26,"Duration":103156,"SoundDuration":103156,"Delta":106248260},{"NoteNumber":44,"Velocity":23,"Duration":103156,"SoundDuration":103156,"Delta":106248260},{"NoteNumber":63,"Velocity":27,"Duration":103156,"SoundDuration":103156,"Delta":106351417},{"NoteNumber":39,"Velocity":23,"Duration":103156,"SoundDuration":103156,"Delta":106351417},{"NoteNumber":32,"Velocity":35,"Duration":103461,"SoundDuration":103461,"Delta":106454573},{"NoteNumber":48,"Velocity":28,"Duration":103766,"SoundDuration":103766,"Delta":106558035},{"NoteNumber":39,"Velocity":23,"Duration":103766,"SoundDuration":103766,"Delta":106558035},{"NoteNumber":51,"Velocity":28,"Duration":103766,"SoundDuration":103766,"Delta":106661802},{"NoteNumber":44,"Velocity":24,"Duration":103766,"SoundDuration":103766,"Delta":106661802},{"NoteNumber":56,"Velocity":29,"Duration":103156,"SoundDuration":103156,"Delta":106765568},{"NoteNumber":48,"Velocity":24,"Duration":103156,"SoundDuration":103156,"Delta":106765568},{"NoteNumber":60,"Velocity":30,"Duration":103156,"SoundDuration":103156,"Delta":106868725},{"NoteNumber":51,"Velocity":25,"Duration":103156,"SoundDuration":103156,"Delta":106868725},{"NoteNumber":63,"Velocity":30,"Duration":102849,"SoundDuration":102849,"Delta":106971882},{"NoteNumber":56,"Velocity":26,"Duration":102849,"SoundDuration":102849,"Delta":106971882},{"NoteNumber":68,"Velocity":31,"Duration":102542,"SoundDuration":102542,"Delta":107074731},{"NoteNumber":60,"Velocity":26,"Duration":102542,"SoundDuration":102542,"Delta":107074731},{"NoteNumber":72,"Velocity":33,"Duration":102239,"SoundDuration":102239,"Delta":107177274},{"NoteNumber":63,"Velocity":27,"Duration":102239,"SoundDuration":102239,"Delta":107177274},{"NoteNumber":75,"Velocity":33,"Duration":101936,"SoundDuration":101936,"Delta":107279514},{"NoteNumber":68,"Velocity":28,"Duration":101936,"SoundDuration":101936,"Delta":107279514},{"NoteNumber":80,"Velocity":34,"Duration":101936,"SoundDuration":101936,"Delta":107381451},{"NoteNumber":72,"Velocity":28,"Duration":101936,"SoundDuration":101936,"Delta":107381451},{"NoteNumber":84,"Velocity":35,"Duration":101348,"SoundDuration":101348,"Delta":107483388},{"NoteNumber":75,"Velocity":29,"Duration":101348,"SoundDuration":101348,"Delta":107483388},{"NoteNumber":87,"Velocity":36,"Duration":101348,"SoundDuration":101348,"Delta":107584736},{"NoteNumber":80,"Velocity":29,"Duration":101348,"SoundDuration":101348,"Delta":107584736},{"NoteNumber":92,"Velocity":44,"Duration":102542,"SoundDuration":102542,"Delta":107686084},{"NoteNumber":84,"Velocity":35,"Duration":102542,"SoundDuration":102542,"Delta":107686084},{"NoteNumber":87,"Velocity":36,"Duration":102542,"SoundDuration":102542,"Delta":107788627},{"NoteNumber":80,"Velocity":29,"Duration":102542,"SoundDuration":102542,"Delta":107788627},{"NoteNumber":84,"Velocity":35,"Duration":102543,"SoundDuration":102543,"Delta":107891170},{"NoteNumber":75,"Velocity":28,"Duration":102543,"SoundDuration":102543,"Delta":107891170},{"NoteNumber":80,"Velocity":34,"Duration":102542,"SoundDuration":102542,"Delta":107993713},{"NoteNumber":72,"Velocity":28,"Duration":102542,"SoundDuration":102542,"Delta":107993713},{"NoteNumber":75,"Velocity":33,"Duration":102542,"SoundDuration":102542,"Delta":108096256},{"NoteNumber":68,"Velocity":27,"Duration":102542,"SoundDuration":102542,"Delta":108096256},{"NoteNumber":72,"Velocity":31,"Duration":102542,"SoundDuration":102542,"Delta":108198799},{"NoteNumber":63,"Velocity":26,"Duration":102542,"SoundDuration":102542,"Delta":108198799},{"NoteNumber":68,"Velocity":37,"Duration":103461,"SoundDuration":103461,"Delta":108301342},{"NoteNumber":56,"Velocity":30,"Duration":103461,"SoundDuration":103461,"Delta":108301342},{"NoteNumber":72,"Velocity":31,"Duration":103461,"SoundDuration":103461,"Delta":108404804},{"NoteNumber":63,"Velocity":25,"Duration":103461,"SoundDuration":103461,"Delta":108404804},{"NoteNumber":75,"Velocity":33,"Duration":102849,"SoundDuration":102849,"Delta":108508265},{"NoteNumber":68,"Velocity":26,"Duration":102849,"SoundDuration":102849,"Delta":108508265},{"NoteNumber":80,"Velocity":34,"Duration":102239,"SoundDuration":102239,"Delta":108611115},{"NoteNumber":72,"Velocity":27,"Duration":102239,"SoundDuration":102239,"Delta":108611115},{"NoteNumber":84,"Velocity":35,"Duration":101642,"SoundDuration":101642,"Delta":108713355},{"NoteNumber":75,"Velocity":28,"Duration":101642,"SoundDuration":101642,"Delta":108713355},{"NoteNumber":87,"Velocity":36,"Duration":101051,"SoundDuration":101051,"Delta":108814998},{"NoteNumber":80,"Velocity":29,"Duration":101051,"SoundDuration":101051,"Delta":108814998},{"NoteNumber":92,"Velocity":40,"Duration":100170,"SoundDuration":100170,"Delta":108916049},{"NoteNumber":84,"Velocity":36,"Duration":100170,"SoundDuration":100170,"Delta":108916049},{"NoteNumber":87,"Velocity":35,"Duration":100462,"SoundDuration":100462,"Delta":109016220},{"NoteNumber":80,"Velocity":28,"Duration":100462,"SoundDuration":100462,"Delta":109016220},{"NoteNumber":84,"Velocity":34,"Duration":100755,"SoundDuration":100755,"Delta":109116683},{"NoteNumber":75,"Velocity":27,"Duration":100755,"SoundDuration":100755,"Delta":109116683},{"NoteNumber":80,"Velocity":33,"Duration":101348,"SoundDuration":101348,"Delta":109217438},{"NoteNumber":72,"Velocity":26,"Duration":101348,"SoundDuration":101348,"Delta":109217438},{"NoteNumber":75,"Velocity":31,"Duration":101642,"SoundDuration":101642,"Delta":109318786},{"NoteNumber":68,"Velocity":25,"Duration":101642,"SoundDuration":101642,"Delta":109318786},{"NoteNumber":72,"Velocity":30,"Duration":101936,"SoundDuration":101936,"Delta":109420429},{"NoteNumber":63,"Velocity":24,"Duration":101936,"SoundDuration":101936,"Delta":109420429},{"NoteNumber":68,"Velocity":34,"Duration":102542,"SoundDuration":102542,"Delta":109522366},{"NoteNumber":56,"Velocity":29,"Duration":102542,"SoundDuration":102542,"Delta":109522366},{"NoteNumber":72,"Velocity":29,"Duration":103156,"SoundDuration":103156,"Delta":109624909},{"NoteNumber":63,"Velocity":24,"Duration":103156,"SoundDuration":103156,"Delta":109624909},{"NoteNumber":75,"Velocity":30,"Duration":103156,"SoundDuration":103156,"Delta":109728065},{"NoteNumber":68,"Velocity":25,"Duration":103156,"SoundDuration":103156,"Delta":109728065},{"NoteNumber":80,"Velocity":31,"Duration":102849,"SoundDuration":102849,"Delta":109831222},{"NoteNumber":72,"Velocity":27,"Duration":102849,"SoundDuration":102849,"Delta":109831222},{"NoteNumber":84,"Velocity":33,"Duration":102542,"SoundDuration":102542,"Delta":109934072},{"NoteNumber":75,"Velocity":28,"Duration":102542,"SoundDuration":102542,"Delta":109934072},{"NoteNumber":87,"Velocity":35,"Duration":102542,"SoundDuration":102542,"Delta":110036615},{"NoteNumber":80,"Velocity":30,"Duration":102542,"SoundDuration":102542,"Delta":110036615},{"NoteNumber":92,"Velocity":40,"Duration":101936,"SoundDuration":101936,"Delta":110139158},{"NoteNumber":84,"Velocity":37,"Duration":101936,"SoundDuration":101936,"Delta":110139158},{"NoteNumber":87,"Velocity":35,"Duration":101936,"SoundDuration":101936,"Delta":110241095},{"NoteNumber":80,"Velocity":31,"Duration":101936,"SoundDuration":101936,"Delta":110241095},{"NoteNumber":84,"Velocity":34,"Duration":101642,"SoundDuration":101642,"Delta":110343031},{"NoteNumber":75,"Velocity":30,"Duration":101642,"SoundDuration":101642,"Delta":110343031},{"NoteNumber":80,"Velocity":33,"Duration":101348,"SoundDuration":101348,"Delta":110444674},{"NoteNumber":72,"Velocity":29,"Duration":101348,"SoundDuration":101348,"Delta":110444674},{"NoteNumber":75,"Velocity":31,"Duration":101348,"SoundDuration":101348,"Delta":110546022},{"NoteNumber":68,"Velocity":28,"Duration":101348,"SoundDuration":101348,"Delta":110546022},{"NoteNumber":72,"Velocity":31,"Duration":101936,"SoundDuration":101936,"Delta":110647370},{"NoteNumber":63,"Velocity":27,"Duration":101936,"SoundDuration":101936,"Delta":110647370},{"NoteNumber":68,"Velocity":34,"Duration":101936,"SoundDuration":101936,"Delta":110749307},{"NoteNumber":56,"Velocity":30,"Duration":101936,"SoundDuration":101936,"Delta":110749307},{"NoteNumber":72,"Velocity":28,"Duration":102239,"SoundDuration":102239,"Delta":110851244},{"NoteNumber":63,"Velocity":26,"Duration":102239,"SoundDuration":102239,"Delta":110851244},{"NoteNumber":75,"Velocity":30,"Duration":102542,"SoundDuration":102542,"Delta":110953483},{"NoteNumber":68,"Velocity":27,"Duration":102542,"SoundDuration":102542,"Delta":110953483},{"NoteNumber":80,"Velocity":31,"Duration":102542,"SoundDuration":102542,"Delta":111056026},{"NoteNumber":72,"Velocity":28,"Duration":102542,"SoundDuration":102542,"Delta":111056026},{"NoteNumber":84,"Velocity":33,"Duration":103156,"SoundDuration":103156,"Delta":111158569},{"NoteNumber":75,"Velocity":29,"Duration":103156,"SoundDuration":103156,"Delta":111158569},{"NoteNumber":87,"Velocity":34,"Duration":103156,"SoundDuration":103156,"Delta":111261726},{"NoteNumber":80,"Velocity":30,"Duration":103156,"SoundDuration":103156,"Delta":111261726},{"NoteNumber":92,"Velocity":39,"Duration":103766,"SoundDuration":103766,"Delta":111364883},{"NoteNumber":84,"Velocity":31,"Duration":103766,"SoundDuration":103766,"Delta":111364883},{"NoteNumber":87,"Velocity":33,"Duration":103766,"SoundDuration":103766,"Delta":111468649},{"NoteNumber":80,"Velocity":31,"Duration":103766,"SoundDuration":103766,"Delta":111468649},{"NoteNumber":84,"Velocity":33,"Duration":103766,"SoundDuration":103766,"Delta":111572416},{"NoteNumber":75,"Velocity":30,"Duration":103766,"SoundDuration":103766,"Delta":111572416},{"NoteNumber":80,"Velocity":33,"Duration":103766,"SoundDuration":103766,"Delta":111676183},{"NoteNumber":72,"Velocity":29,"Duration":103766,"SoundDuration":103766,"Delta":111676183},{"NoteNumber":75,"Velocity":31,"Duration":102849,"SoundDuration":102849,"Delta":111779949},{"NoteNumber":68,"Velocity":28,"Duration":102849,"SoundDuration":102849,"Delta":111779949},{"NoteNumber":72,"Velocity":31,"Duration":102239,"SoundDuration":102239,"Delta":111882799},{"NoteNumber":63,"Velocity":28,"Duration":102239,"SoundDuration":102239,"Delta":111882799},{"NoteNumber":68,"Velocity":31,"Duration":101348,"SoundDuration":101348,"Delta":111985039},{"NoteNumber":56,"Velocity":35,"Duration":101348,"SoundDuration":101348,"Delta":111985039},{"NoteNumber":72,"Velocity":34,"Duration":101348,"SoundDuration":101348,"Delta":112086387},{"NoteNumber":63,"Velocity":28,"Duration":101348,"SoundDuration":101348,"Delta":112086387},{"NoteNumber":80,"Velocity":35,"Duration":101347,"SoundDuration":101347,"Delta":112187735},{"NoteNumber":68,"Velocity":30,"Duration":101347,"SoundDuration":101347,"Delta":112187735},{"NoteNumber":84,"Velocity":38,"Duration":101051,"SoundDuration":101051,"Delta":112289083},{"NoteNumber":75,"Velocity":34,"Duration":101051,"SoundDuration":101051,"Delta":112289083},{"NoteNumber":80,"Velocity":36,"Duration":102239,"SoundDuration":102239,"Delta":112390135},{"NoteNumber":68,"Velocity":31,"Duration":102239,"SoundDuration":102239,"Delta":112390135},{"NoteNumber":72,"Velocity":35,"Duration":103156,"SoundDuration":103156,"Delta":112492375},{"NoteNumber":63,"Velocity":29,"Duration":103156,"SoundDuration":103156,"Delta":112492375},{"NoteNumber":68,"Velocity":35,"Duration":102849,"SoundDuration":102849,"Delta":112595532},{"NoteNumber":56,"Velocity":30,"Duration":102849,"SoundDuration":102849,"Delta":112595532},{"NoteNumber":72,"Velocity":34,"Duration":102239,"SoundDuration":102239,"Delta":112698381},{"NoteNumber":63,"Velocity":33,"Duration":102239,"SoundDuration":102239,"Delta":112698381},{"NoteNumber":80,"Velocity":37,"Duration":101346,"SoundDuration":101346,"Delta":112800621},{"NoteNumber":68,"Velocity":36,"Duration":101346,"SoundDuration":101346,"Delta":112800621},{"NoteNumber":84,"Velocity":39,"Duration":101642,"SoundDuration":101642,"Delta":112901968},{"NoteNumber":75,"Velocity":38,"Duration":101642,"SoundDuration":101642,"Delta":112901968},{"NoteNumber":80,"Velocity":38,"Duration":102849,"SoundDuration":102849,"Delta":113003610},{"NoteNumber":68,"Velocity":36,"Duration":102849,"SoundDuration":102849,"Delta":113003610},{"NoteNumber":72,"Velocity":37,"Duration":104398,"SoundDuration":104398,"Delta":113106460},{"NoteNumber":63,"Velocity":35,"Duration":104398,"SoundDuration":104398,"Delta":113106460},{"NoteNumber":68,"Velocity":37,"Duration":103766,"SoundDuration":103766,"Delta":113210859},{"NoteNumber":56,"Velocity":34,"Duration":103766,"SoundDuration":103766,"Delta":113210859},{"NoteNumber":72,"Velocity":38,"Duration":102849,"SoundDuration":102849,"Delta":113314625},{"NoteNumber":63,"Velocity":37,"Duration":102849,"SoundDuration":102849,"Delta":113314625},{"NoteNumber":80,"Velocity":41,"Duration":102543,"SoundDuration":102543,"Delta":113417475},{"NoteNumber":68,"Velocity":38,"Duration":102543,"SoundDuration":102543,"Delta":113417475},{"NoteNumber":84,"Velocity":42,"Duration":103461,"SoundDuration":103461,"Delta":113520018},{"NoteNumber":75,"Velocity":41,"Duration":103461,"SoundDuration":103461,"Delta":113520018},{"NoteNumber":80,"Velocity":42,"Duration":104713,"SoundDuration":104713,"Delta":113623480},{"NoteNumber":68,"Velocity":40,"Duration":104713,"SoundDuration":104713,"Delta":113623480},{"NoteNumber":72,"Velocity":39,"Duration":105989,"SoundDuration":105989,"Delta":113728193},{"NoteNumber":63,"Velocity":38,"Duration":105989,"SoundDuration":105989,"Delta":113728193},{"NoteNumber":68,"Velocity":39,"Duration":106974,"SoundDuration":106974,"Delta":113834182},{"NoteNumber":56,"Velocity":33,"Duration":106974,"SoundDuration":106974,"Delta":113834182},{"NoteNumber":72,"Velocity":41,"Duration":106315,"SoundDuration":106315,"Delta":113941157},{"NoteNumber":63,"Velocity":35,"Duration":106315,"SoundDuration":106315,"Delta":113941157},{"NoteNumber":80,"Velocity":42,"Duration":105663,"SoundDuration":105663,"Delta":114047472},{"NoteNumber":68,"Velocity":37,"Duration":105663,"SoundDuration":105663,"Delta":114047472},{"NoteNumber":84,"Velocity":44,"Duration":104712,"SoundDuration":104712,"Delta":114153136},{"NoteNumber":75,"Velocity":39,"Duration":104712,"SoundDuration":104712,"Delta":114153136},{"NoteNumber":80,"Velocity":40,"Duration":106978,"SoundDuration":106978,"Delta":114257849},{"NoteNumber":68,"Velocity":36,"Duration":106978,"SoundDuration":106978,"Delta":114257849},{"NoteNumber":72,"Velocity":38,"Duration":107974,"SoundDuration":107974,"Delta":114364828},{"NoteNumber":63,"Velocity":33,"Duration":107974,"SoundDuration":107974,"Delta":114364828},{"NoteNumber":68,"Velocity":37,"Duration":107642,"SoundDuration":107642,"Delta":114472803},{"NoteNumber":56,"Velocity":31,"Duration":107642,"SoundDuration":107642,"Delta":114472803},{"NoteNumber":72,"Velocity":35,"Duration":106974,"SoundDuration":106974,"Delta":114580445},{"NoteNumber":63,"Velocity":34,"Duration":106974,"SoundDuration":106974,"Delta":114580445},{"NoteNumber":80,"Velocity":37,"Duration":106315,"SoundDuration":106315,"Delta":114687420},{"NoteNumber":68,"Velocity":36,"Duration":106315,"SoundDuration":106315,"Delta":114687420},{"NoteNumber":84,"Velocity":38,"Duration":105989,"SoundDuration":105989,"Delta":114793735},{"NoteNumber":75,"Velocity":37,"Duration":105989,"SoundDuration":105989,"Delta":114793735},{"NoteNumber":80,"Velocity":35,"Duration":107308,"SoundDuration":107308,"Delta":114899725},{"NoteNumber":68,"Velocity":34,"Duration":107308,"SoundDuration":107308,"Delta":114899725},{"NoteNumber":72,"Velocity":34,"Duration":108649,"SoundDuration":108649,"Delta":115007033},{"NoteNumber":63,"Velocity":31,"Duration":108649,"SoundDuration":108649,"Delta":115007033},{"NoteNumber":68,"Velocity":33,"Duration":110375,"SoundDuration":110375,"Delta":115115683},{"NoteNumber":56,"Velocity":29,"Duration":110375,"SoundDuration":110375,"Delta":115115683},{"NoteNumber":72,"Velocity":33,"Duration":109685,"SoundDuration":109685,"Delta":115226058},{"NoteNumber":63,"Velocity":31,"Duration":109685,"SoundDuration":109685,"Delta":115226058},{"NoteNumber":80,"Velocity":34,"Duration":108991,"SoundDuration":108991,"Delta":115335743},{"NoteNumber":68,"Velocity":31,"Duration":108991,"SoundDuration":108991,"Delta":115335743},{"NoteNumber":84,"Velocity":34,"Duration":106974,"SoundDuration":106974,"Delta":115444735},{"NoteNumber":75,"Velocity":33,"Duration":106974,"SoundDuration":106974,"Delta":115444735},{"NoteNumber":80,"Velocity":33,"Duration":107974,"SoundDuration":107974,"Delta":115551710},{"NoteNumber":68,"Velocity":31,"Duration":107974,"SoundDuration":107974,"Delta":115551710},{"NoteNumber":72,"Velocity":29,"Duration":108649,"SoundDuration":108649,"Delta":115659685},{"NoteNumber":63,"Velocity":28,"Duration":108649,"SoundDuration":108649,"Delta":115659685},{"NoteNumber":68,"Velocity":29,"Duration":110375,"SoundDuration":110375,"Delta":115768334},{"NoteNumber":56,"Velocity":26,"Duration":110375,"SoundDuration":110375,"Delta":115768334},{"NoteNumber":72,"Velocity":29,"Duration":110030,"SoundDuration":110030,"Delta":115878710},{"NoteNumber":63,"Velocity":28,"Duration":110030,"SoundDuration":110030,"Delta":115878710},{"NoteNumber":80,"Velocity":30,"Duration":109685,"SoundDuration":109685,"Delta":115988740},{"NoteNumber":68,"Velocity":29,"Duration":109685,"SoundDuration":109685,"Delta":115988740},{"NoteNumber":84,"Velocity":31,"Duration":112648,"SoundDuration":112648,"Delta":116098425},{"NoteNumber":75,"Velocity":30,"Duration":112648,"SoundDuration":112648,"Delta":116098425},{"NoteNumber":80,"Velocity":30,"Duration":118706,"SoundDuration":118706,"Delta":116211074},{"NoteNumber":68,"Velocity":29,"Duration":118706,"SoundDuration":118706,"Delta":116211074},{"NoteNumber":72,"Velocity":29,"Duration":122480,"SoundDuration":122480,"Delta":116329781},{"NoteNumber":63,"Velocity":28,"Duration":122480,"SoundDuration":122480,"Delta":116329781},{"NoteNumber":68,"Velocity":39,"Duration":371333,"SoundDuration":371333,"Delta":116452261},{"NoteNumber":56,"Velocity":34,"Duration":371333,"SoundDuration":371333,"Delta":116452261},{"NoteNumber":92,"Velocity":41,"Duration":371333,"SoundDuration":371333,"Delta":117194927},{"NoteNumber":80,"Velocity":41,"Duration":371333,"SoundDuration":371333,"Delta":117194927},{"NoteNumber":60,"Velocity":33,"Duration":371333,"SoundDuration":371333,"Delta":117194927},{"NoteNumber":51,"Velocity":33,"Duration":371333,"SoundDuration":371333,"Delta":117194927},{"NoteNumber":44,"Velocity":33,"Duration":371333,"SoundDuration":371333,"Delta":117194927},{"NoteNumber":38,"Velocity":26,"Duration":204326,"SoundDuration":204326,"Delta":118332330},{"NoteNumber":39,"Velocity":31,"Duration":166478,"SoundDuration":166478,"Delta":118536656},{"NoteNumber":72,"Velocity":26,"Duration":1013937,"SoundDuration":1013937,"Delta":118761474},{"NoteNumber":63,"Velocity":26,"Duration":1013937,"SoundDuration":1013937,"Delta":118761474},{"NoteNumber":39,"Velocity":33,"Duration":86956,"SoundDuration":86956,"Delta":118761474},{"NoteNumber":41,"Velocity":27,"Duration":85912,"SoundDuration":85912,"Delta":118848430},{"NoteNumber":39,"Velocity":33,"Duration":85180,"SoundDuration":85180,"Delta":118934342},{"NoteNumber":41,"Velocity":27,"Duration":84247,"SoundDuration":84247,"Delta":119019523},{"NoteNumber":39,"Velocity":33,"Duration":83543,"SoundDuration":83543,"Delta":119103770},{"NoteNumber":41,"Velocity":27,"Duration":82373,"SoundDuration":82373,"Delta":119187313},{"NoteNumber":39,"Velocity":30,"Duration":82238,"SoundDuration":82238,"Delta":119269687},{"NoteNumber":41,"Velocity":24,"Duration":83126,"SoundDuration":83126,"Delta":119351925},{"NoteNumber":39,"Velocity":30,"Duration":84318,"SoundDuration":84318,"Delta":119435052},{"NoteNumber":41,"Velocity":26,"Duration":85252,"SoundDuration":85252,"Delta":119519371},{"NoteNumber":39,"Velocity":30,"Duration":86506,"SoundDuration":86506,"Delta":119604623},{"NoteNumber":41,"Velocity":26,"Duration":84281,"SoundDuration":84281,"Delta":119691130},{"NoteNumber":32,"Velocity":28,"Duration":3872628,"SoundDuration":3872628,"Delta":119775411},{"NoteNumber":44,"Velocity":31,"Duration":3643612,"SoundDuration":3643612,"Delta":120004428},{"NoteNumber":51,"Velocity":35,"Duration":3421918,"SoundDuration":3421918,"Delta":120226121},{"NoteNumber":60,"Velocity":33,"Duration":3205570,"SoundDuration":3205570,"Delta":120442470},{"NoteNumber":68,"Velocity":37,"Duration":2975207,"SoundDuration":2975207,"Delta":120672832}],"license":{"name":"Creative Commons Attribution-ShareAlike 3.0 Germany","url":"http://creativecommons.org/licenses/by-sa/3.0/de/deed.en","text":"The MIDI, audio (MP3, OGG) and video files of Bernd Krueger are licensed under the cc-by-sa Germany License. This means that you can use and adapt the files, as long as you attribute the copyright holder.\n\nName: Bernd Krueger\nSource: http://www.piano-midi.de\n\nThe distribution or public playback of the files is only allowed under identical license conditions.\n\nThe scores are open source.","attribution":"MIDI files by Bernd Krueger (piano-midi.de)","attributionUrl":"http://www.piano-midi.de"}}