{"title":"Chopin Prelude No. 18, Opus 28","artist":"Chopin","durationMs":41946,"midiSha256":"a0728e15b049ebe4452961f42a24ad9045362f1f2121d14b852c07d92fbb1d95","midiObject":[{"NoteNumber":60,"Velocity":52,"Duration":128353,"SoundDuration":128353,"Delta":0},{"NoteNumber":61,"Velocity":48,"Duration":129348,"SoundDuration":129348,"Delta":118404},{"NoteNumber":57,"Velocity":53,"Duration":129348,"SoundDuration":129348,"Delta":237802},{"NoteNumber":58,"Velocity":49,"Duration":128942,"SoundDuration":128942,"Delta":357200},{"NoteNumber":55,"Velocity":58,"Duration":124074,"SoundDuration":124074,"Delta":476599},{"NoteNumber":58,"Velocity":62,"Duration":124876,"SoundDuration":124876,"Delta":591129},{"NoteNumber":67,"Velocity":68,"Duration":134508,"SoundDuration":134508,"Delta":705659},{"NoteNumber":65,"Velocity":70,"Duration":124162,"SoundDuration":124162,"Delta":829821},{"NoteNumber":65,"Velocity":73,"Duration":859280,"SoundDuration":859280,"Delta":953983},{"NoteNumber":55,"Velocity":38,"Duration":260060,"SoundDuration":260060,"Delta":1227730},{"NoteNumber":58,"Velocity":46,"Duration":260060,"SoundDuration":260060,"Delta":1227730},{"NoteNumber":36,"Velocity":30,"Duration":260060,"SoundDuration":260060,"Delta":1227730},{"NoteNumber":49,"Velocity":35,"Duration":260060,"SoundDuration":260060,"Delta":1227730},{"NoteNumber":55,"Velocity":38,"Duration":296196,"SoundDuration":296196,"Delta":1501478},{"NoteNumber":58,"Velocity":46,"Duration":296196,"SoundDuration":296196,"Delta":1501478},{"NoteNumber":49,"Velocity":35,"Duration":296196,"SoundDuration":296196,"Delta":1501478},{"NoteNumber":36,"Velocity":30,"Duration":296196,"SoundDuration":296196,"Delta":1501478},{"NoteNumber":64,"Velocity":52,"Duration":280610,"SoundDuration":280610,"Delta":1813263},{"NoteNumber":60,"Velocity":52,"Duration":129348,"SoundDuration":129348,"Delta":2093873},{"NoteNumber":61,"Velocity":48,"Duration":129348,"SoundDuration":129348,"Delta":2213271},{"NoteNumber":57,"Velocity":53,"Duration":129348,"SoundDuration":129348,"Delta":2332670},{"NoteNumber":58,"Velocity":57,"Duration":128942,"SoundDuration":128942,"Delta":2452068},{"NoteNumber":55,"Velocity":57,"Duration":124074,"SoundDuration":124074,"Delta":2571466},{"NoteNumber":58,"Velocity":61,"Duration":124522,"SoundDuration":124522,"Delta":2685996},{"NoteNumber":67,"Velocity":63,"Duration":129906,"SoundDuration":129906,"Delta":2800526},{"NoteNumber":65,"Velocity":64,"Duration":119913,"SoundDuration":119913,"Delta":2920440},{"NoteNumber":65,"Velocity":67,"Duration":857895,"SoundDuration":857895,"Delta":3040354},{"NoteNumber":55,"Velocity":38,"Duration":262624,"SoundDuration":262624,"Delta":3316800},{"NoteNumber":58,"Velocity":46,"Duration":262624,"SoundDuration":262624,"Delta":3316800},{"NoteNumber":36,"Velocity":30,"Duration":262624,"SoundDuration":262624,"Delta":3316800},{"NoteNumber":49,"Velocity":35,"Duration":262624,"SoundDuration":262624,"Delta":3316800},{"NoteNumber":55,"Velocity":38,"Duration":289751,"SoundDuration":289751,"Delta":3593247},{"NoteNumber":58,"Velocity":46,"Duration":289751,"SoundDuration":289751,"Delta":3593247},{"NoteNumber":36,"Velocity":30,"Duration":289751,"SoundDuration":289751,"Delta":3593247},{"NoteNumber":49,"Velocity":35,"Duration":289751,"SoundDuration":289751,"Delta":3593247},{"NoteNumber":64,"Velocity":52,"Duration":280609,"SoundDuration":280609,"Delta":3898249},{"NoteNumber":60,"Velocity":52,"Duration":119398,"SoundDuration":119398,"Delta":4178859},{"NoteNumber":61,"Velocity":48,"Duration":119398,"SoundDuration":119398,"Delta":4298257},{"NoteNumber":57,"Velocity":52,"Duration":119398,"SoundDuration":119398,"Delta":4417655},{"NoteNumber":58,"Velocity":48,"Duration":119398,"SoundDuration":119398,"Delta":4537053},{"NoteNumber":55,"Velocity":49,"Duration":114530,"SoundDuration":114530,"Delta":4656452},{"NoteNumber":58,"Velocity":50,"Duration":114529,"SoundDuration":114529,"Delta":4770982},{"NoteNumber":67,"Velocity":54,"Duration":117896,"SoundDuration":117896,"Delta":4885512},{"NoteNumber":65,"Velocity":55,"Duration":117896,"SoundDuration":117896,"Delta":5003408},{"NoteNumber":63,"Velocity":58,"Duration":119913,"SoundDuration":119913,"Delta":5121305},{"NoteNumber":64,"Velocity":55,"Duration":116324,"SoundDuration":116324,"Delta":5241219},{"NoteNumber":70,"Velocity":59,"Duration":114373,"SoundDuration":114373,"Delta":5357543},{"NoteNumber":58,"Velocity":49,"Duration":114373,"SoundDuration":114373,"Delta":5357543},{"NoteNumber":68,"Velocity":57,"Duration":114059,"SoundDuration":114059,"Delta":5471917},{"NoteNumber":56,"Velocity":47,"Duration":114059,"SoundDuration":114059,"Delta":5471917},{"NoteNumber":66,"Velocity":58,"Duration":113602,"SoundDuration":113602,"Delta":5585976},{"NoteNumber":54,"Velocity":48,"Duration":113602,"SoundDuration":113602,"Delta":5585976},{"NoteNumber":67,"Velocity":62,"Duration":113293,"SoundDuration":113293,"Delta":5699578},{"NoteNumber":55,"Velocity":53,"Duration":113293,"SoundDuration":113293,"Delta":5699578},{"NoteNumber":73,"Velocity":65,"Duration":112989,"SoundDuration":112989,"Delta":5812872},{"NoteNumber":61,"Velocity":56,"Duration":112989,"SoundDuration":112989,"Delta":5812872},{"NoteNumber":72,"Velocity":61,"Duration":112539,"SoundDuration":112539,"Delta":5925861},{"NoteNumber":60,"Velocity":53,"Duration":112539,"SoundDuration":112539,"Delta":5925861},{"NoteNumber":69,"Velocity":67,"Duration":114995,"SoundDuration":114995,"Delta":6038401},{"NoteNumber":57,"Velocity":56,"Duration":114995,"SoundDuration":114995,"Delta":6038401},{"NoteNumber":70,"Velocity":66,"Duration":114995,"SoundDuration":114995,"Delta":6153396},{"NoteNumber":58,"Velocity":54,"Duration":114995,"SoundDuration":114995,"Delta":6153396},{"NoteNumber":85,"Velocity":71,"Duration":121595,"SoundDuration":121595,"Delta":6268392},{"NoteNumber":73,"Velocity":57,"Duration":121595,"SoundDuration":121595,"Delta":6268392},{"NoteNumber":79,"Velocity":67,"Duration":121520,"SoundDuration":121520,"Delta":6380633},{"NoteNumber":67,"Velocity":54,"Duration":121520,"SoundDuration":121520,"Delta":6380633},{"NoteNumber":84,"Velocity":71,"Duration":118720,"SoundDuration":118720,"Delta":6492875},{"NoteNumber":72,"Velocity":53,"Duration":118720,"SoundDuration":118720,"Delta":6492875},{"NoteNumber":82,"Velocity":70,"Duration":118455,"SoundDuration":118455,"Delta":6602498},{"NoteNumber":70,"Velocity":52,"Duration":118455,"SoundDuration":118455,"Delta":6602498},{"NoteNumber":80,"Velocity":68,"Duration":119099,"SoundDuration":119099,"Delta":6711820},{"NoteNumber":68,"Velocity":51,"Duration":119099,"SoundDuration":119099,"Delta":6711820},{"NoteNumber":79,"Velocity":66,"Duration":119859,"SoundDuration":119859,"Delta":6821713},{"NoteNumber":67,"Velocity":50,"Duration":119859,"SoundDuration":119859,"Delta":6821713},{"NoteNumber":77,"Velocity":65,"Duration":120517,"SoundDuration":120517,"Delta":6932330},{"NoteNumber":65,"Velocity":49,"Duration":120517,"SoundDuration":120517,"Delta":6932330},{"NoteNumber":76,"Velocity":63,"Duration":121294,"SoundDuration":121294,"Delta":7043532},{"NoteNumber":64,"Velocity":48,"Duration":121294,"SoundDuration":121294,"Delta":7043532},{"NoteNumber":79,"Velocity":61,"Duration":121968,"SoundDuration":121968,"Delta":7155473},{"NoteNumber":67,"Velocity":47,"Duration":121968,"SoundDuration":121968,"Delta":7155473},{"NoteNumber":70,"Velocity":60,"Duration":122721,"SoundDuration":122721,"Delta":7268012},{"NoteNumber":58,"Velocity":47,"Duration":122721,"SoundDuration":122721,"Delta":7268012},{"NoteNumber":71,"Velocity":61,"Duration":90573,"SoundDuration":90573,"Delta":7381306},{"NoteNumber":59,"Velocity":46,"Duration":90573,"SoundDuration":90573,"Delta":7381306},{"NoteNumber":72,"Velocity":56,"Duration":90881,"SoundDuration":90881,"Delta":7471879},{"NoteNumber":60,"Velocity":42,"Duration":90881,"SoundDuration":90881,"Delta":7471879},{"NoteNumber":73,"Velocity":59,"Duration":96844,"SoundDuration":96844,"Delta":7562761},{"NoteNumber":61,"Velocity":45,"Duration":96844,"SoundDuration":96844,"Delta":7562761},{"NoteNumber":67,"Velocity":56,"Duration":103857,"SoundDuration":103857,"Delta":7659605},{"NoteNumber":55,"Velocity":44,"Duration":103857,"SoundDuration":103857,"Delta":7659605},{"NoteNumber":72,"Velocity":56,"Duration":107923,"SoundDuration":107923,"Delta":7763463},{"NoteNumber":60,"Velocity":43,"Duration":107923,"SoundDuration":107923,"Delta":7763463},{"NoteNumber":70,"Velocity":57,"Duration":129348,"SoundDuration":129348,"Delta":7871387},{"NoteNumber":58,"Velocity":47,"Duration":129348,"SoundDuration":129348,"Delta":7871387},{"NoteNumber":69,"Velocity":53,"Duration":129348,"SoundDuration":129348,"Delta":7990785},{"NoteNumber":57,"Velocity":43,"Duration":129348,"SoundDuration":129348,"Delta":7990785},{"NoteNumber":65,"Velocity":57,"Duration":129609,"SoundDuration":129609,"Delta":8110183},{"NoteNumber":66,"Velocity":59,"Duration":132073,"SoundDuration":132073,"Delta":8229582},{"NoteNumber":62,"Velocity":60,"Duration":124830,"SoundDuration":124830,"Delta":8352111},{"NoteNumber":63,"Velocity":64,"Duration":133559,"SoundDuration":133559,"Delta":8466641},{"NoteNumber":72,"Velocity":69,"Duration":129348,"SoundDuration":129348,"Delta":8590250},{"NoteNumber":70,"Velocity":69,"Duration":119398,"SoundDuration":119398,"Delta":8709648},{"NoteNumber":70,"Velocity":74,"Duration":848713,"SoundDuration":848713,"Delta":8829047},{"NoteNumber":60,"Velocity":42,"Duration":261347,"SoundDuration":261347,"Delta":9104150},{"NoteNumber":63,"Velocity":51,"Duration":261347,"SoundDuration":261347,"Delta":9104150},{"NoteNumber":54,"Velocity":38,"Duration":261347,"SoundDuration":261347,"Delta":9104150},{"NoteNumber":41,"Velocity":33,"Duration":261347,"SoundDuration":261347,"Delta":9104150},{"NoteNumber":60,"Velocity":42,"Duration":283582,"SoundDuration":283582,"Delta":9379253},{"NoteNumber":63,"Velocity":51,"Duration":283582,"SoundDuration":283582,"Delta":9379253},{"NoteNumber":54,"Velocity":38,"Duration":283582,"SoundDuration":283582,"Delta":9379253},{"NoteNumber":41,"Velocity":33,"Duration":283582,"SoundDuration":283582,"Delta":9379253},{"NoteNumber":69,"Velocity":57,"Duration":280609,"SoundDuration":280609,"Delta":9677760},{"NoteNumber":65,"Velocity":57,"Duration":129348,"SoundDuration":129348,"Delta":9958370},{"NoteNumber":66,"Velocity":53,"Duration":129348,"SoundDuration":129348,"Delta":10077768},{"NoteNumber":62,"Velocity":54,"Duration":129348,"SoundDuration":129348,"Delta":10197167},{"NoteNumber":63,"Velocity":54,"Duration":128942,"SoundDuration":128942,"Delta":10316565},{"NoteNumber":60,"Velocity":57,"Duration":124740,"SoundDuration":124740,"Delta":10435963},{"NoteNumber":63,"Velocity":68,"Duration":132395,"SoundDuration":132395,"Delta":10550493},{"NoteNumber":72,"Velocity":70,"Duration":128265,"SoundDuration":128265,"Delta":10673022},{"NoteNumber":70,"Velocity":73,"Duration":118399,"SoundDuration":118399,"Delta":10791421},{"NoteNumber":70,"Velocity":76,"Duration":845176,"SoundDuration":845176,"Delta":10909821},{"NoteNumber":60,"Velocity":42,"Duration":262624,"SoundDuration":262624,"Delta":11186267},{"NoteNumber":63,"Velocity":51,"Duration":262624,"SoundDuration":262624,"Delta":11186267},{"NoteNumber":41,"Velocity":33,"Duration":262624,"SoundDuration":262624,"Delta":11186267},{"NoteNumber":54,"Velocity":38,"Duration":262624,"SoundDuration":262624,"Delta":11186267},{"NoteNumber":60,"Velocity":42,"Duration":277669,"SoundDuration":277669,"Delta":11462714},{"NoteNumber":63,"Velocity":51,"Duration":277669,"SoundDuration":277669,"Delta":11462714},{"NoteNumber":54,"Velocity":38,"Duration":277669,"SoundDuration":277669,"Delta":11462714},{"NoteNumber":41,"Velocity":33,"Duration":277669,"SoundDuration":277669,"Delta":11462714},{"NoteNumber":69,"Velocity":57,"Duration":280609,"SoundDuration":280609,"Delta":11754997},{"NoteNumber":65,"Velocity":57,"Duration":119398,"SoundDuration":119398,"Delta":12035607},{"NoteNumber":66,"Velocity":53,"Duration":119398,"SoundDuration":119398,"Delta":12155005},{"NoteNumber":62,"Velocity":52,"Duration":119398,"SoundDuration":119398,"Delta":12274404},{"NoteNumber":63,"Velocity":50,"Duration":119398,"SoundDuration":119398,"Delta":12393802},{"NoteNumber":60,"Velocity":54,"Duration":114530,"SoundDuration":114530,"Delta":12513200},{"NoteNumber":63,"Velocity":55,"Duration":114530,"SoundDuration":114530,"Delta":12627730},{"NoteNumber":72,"Velocity":57,"Duration":126135,"SoundDuration":126135,"Delta":12742260},{"NoteNumber":60,"Velocity":48,"Duration":126135,"SoundDuration":126135,"Delta":12742260},{"NoteNumber":70,"Velocity":59,"Duration":126425,"SoundDuration":126425,"Delta":12858693},{"NoteNumber":58,"Velocity":50,"Duration":126425,"SoundDuration":126425,"Delta":12858693},{"NoteNumber":68,"Velocity":63,"Duration":129906,"SoundDuration":129906,"Delta":12975125},{"NoteNumber":56,"Velocity":54,"Duration":129906,"SoundDuration":129906,"Delta":12975125},{"NoteNumber":69,"Velocity":57,"Duration":129575,"SoundDuration":129575,"Delta":13095039},{"NoteNumber":57,"Velocity":49,"Duration":129575,"SoundDuration":129575,"Delta":13095039},{"NoteNumber":78,"Velocity":63,"Duration":125608,"SoundDuration":125608,"Delta":13214953},{"NoteNumber":66,"Velocity":53,"Duration":125608,"SoundDuration":125608,"Delta":13214953},{"NoteNumber":77,"Velocity":58,"Duration":125490,"SoundDuration":125490,"Delta":13330899},{"NoteNumber":65,"Velocity":49,"Duration":125490,"SoundDuration":125490,"Delta":13330899},{"NoteNumber":74,"Velocity":60,"Duration":124074,"SoundDuration":124074,"Delta":13446846},{"NoteNumber":62,"Velocity":50,"Duration":124074,"SoundDuration":124074,"Delta":13446846},{"NoteNumber":75,"Velocity":60,"Duration":123809,"SoundDuration":123809,"Delta":13561376},{"NoteNumber":63,"Velocity":54,"Duration":123809,"SoundDuration":123809,"Delta":13561376},{"NoteNumber":85,"Velocity":66,"Duration":120629,"SoundDuration":120629,"Delta":13675906},{"NoteNumber":73,"Velocity":57,"Duration":120629,"SoundDuration":120629,"Delta":13675906},{"NoteNumber":84,"Velocity":64,"Duration":120308,"SoundDuration":120308,"Delta":13787256},{"NoteNumber":72,"Velocity":54,"Duration":120308,"SoundDuration":120308,"Delta":13787256},{"NoteNumber":82,"Velocity":68,"Duration":116857,"SoundDuration":116857,"Delta":13898606},{"NoteNumber":70,"Velocity":57,"Duration":116857,"SoundDuration":116857,"Delta":13898606},{"NoteNumber":81,"Velocity":68,"Duration":121824,"SoundDuration":121824,"Delta":14006110},{"NoteNumber":69,"Velocity":52,"Duration":121824,"SoundDuration":121824,"Delta":14006110},{"NoteNumber":87,"Velocity":72,"Duration":124274,"SoundDuration":124274,"Delta":14118352},{"NoteNumber":75,"Velocity":56,"Duration":124274,"SoundDuration":124274,"Delta":14118352},{"NoteNumber":76,"Velocity":70,"Duration":118058,"SoundDuration":118058,"Delta":14233347},{"NoteNumber":64,"Velocity":53,"Duration":118058,"SoundDuration":118058,"Delta":14233347},{"NoteNumber":77,"Velocity":71,"Duration":113818,"SoundDuration":113818,"Delta":14342549},{"NoteNumber":65,"Velocity":59,"Duration":113818,"SoundDuration":113818,"Delta":14342549},{"NoteNumber":78,"Velocity":73,"Duration":113422,"SoundDuration":113422,"Delta":14447642},{"NoteNumber":66,"Velocity":60,"Duration":113422,"SoundDuration":113422,"Delta":14447642},{"NoteNumber":72,"Velocity":69,"Duration":113422,"SoundDuration":113422,"Delta":14552339},{"NoteNumber":60,"Velocity":57,"Duration":113422,"SoundDuration":113422,"Delta":14552339},{"NoteNumber":73,"Velocity":74,"Duration":113751,"SoundDuration":113751,"Delta":14657037},{"NoteNumber":61,"Velocity":55,"Duration":113751,"SoundDuration":113751,"Delta":14657037},{"NoteNumber":77,"Velocity":76,"Duration":114742,"SoundDuration":114742,"Delta":14761998},{"NoteNumber":65,"Velocity":64,"Duration":114742,"SoundDuration":114742,"Delta":14761998},{"NoteNumber":75,"Velocity":76,"Duration":115650,"SoundDuration":115650,"Delta":14867884},{"NoteNumber":63,"Velocity":62,"Duration":115650,"SoundDuration":115650,"Delta":14867884},{"NoteNumber":73,"Velocity":75,"Duration":116670,"SoundDuration":116670,"Delta":14974576},{"NoteNumber":61,"Velocity":60,"Duration":116670,"SoundDuration":116670,"Delta":14974576},{"NoteNumber":72,"Velocity":72,"Duration":118161,"SoundDuration":118161,"Delta":15082219},{"NoteNumber":60,"Velocity":60,"Duration":118161,"SoundDuration":118161,"Delta":15082219},{"NoteNumber":70,"Velocity":72,"Duration":91686,"SoundDuration":91686,"Delta":15190836},{"NoteNumber":58,"Velocity":68,"Duration":91686,"SoundDuration":91686,"Delta":15190836},{"NoteNumber":69,"Velocity":76,"Duration":92283,"SoundDuration":92283,"Delta":15282522},{"NoteNumber":57,"Velocity":63,"Duration":92283,"SoundDuration":92283,"Delta":15282522},{"NoteNumber":72,"Velocity":79,"Duration":92920,"SoundDuration":92920,"Delta":15374806},{"NoteNumber":60,"Velocity":65,"Duration":92920,"SoundDuration":92920,"Delta":15374806},{"NoteNumber":64,"Velocity":79,"Duration":93501,"SoundDuration":93501,"Delta":15467726},{"NoteNumber":52,"Velocity":66,"Duration":93501,"SoundDuration":93501,"Delta":15467726},{"NoteNumber":65,"Velocity":79,"Duration":94089,"SoundDuration":94089,"Delta":15561227},{"NoteNumber":53,"Velocity":67,"Duration":94089,"SoundDuration":94089,"Delta":15561227},{"NoteNumber":66,"Velocity":83,"Duration":94785,"SoundDuration":94785,"Delta":15655316},{"NoteNumber":54,"Velocity":68,"Duration":94785,"SoundDuration":94785,"Delta":15655316},{"NoteNumber":60,"Velocity":83,"Duration":95418,"SoundDuration":95418,"Delta":15750102},{"NoteNumber":48,"Velocity":68,"Duration":95418,"SoundDuration":95418,"Delta":15750102},{"NoteNumber":65,"Velocity":83,"Duration":96100,"SoundDuration":96100,"Delta":15845520},{"NoteNumber":53,"Velocity":69,"Duration":96100,"SoundDuration":96100,"Delta":15845520},{"NoteNumber":63,"Velocity":85,"Duration":96722,"SoundDuration":96722,"Delta":15941621},{"NoteNumber":51,"Velocity":70,"Duration":96722,"SoundDuration":96722,"Delta":15941621},{"NoteNumber":61,"Velocity":85,"Duration":98241,"SoundDuration":98241,"Delta":16038344},{"NoteNumber":49,"Velocity":71,"Duration":98241,"SoundDuration":98241,"Delta":16038344},{"NoteNumber":60,"Velocity":95,"Duration":247219,"SoundDuration":247219,"Delta":16136585},{"NoteNumber":48,"Velocity":85,"Duration":247219,"SoundDuration":247219,"Delta":16136585},{"NoteNumber":58,"Velocity":89,"Duration":267237,"SoundDuration":267237,"Delta":16383804},{"NoteNumber":46,"Velocity":80,"Duration":267237,"SoundDuration":267237,"Delta":16383804},{"NoteNumber":53,"Velocity":67,"Duration":272429,"SoundDuration":272429,"Delta":16651041},{"NoteNumber":55,"Velocity":68,"Duration":272429,"SoundDuration":272429,"Delta":16651041},{"NoteNumber":58,"Velocity":72,"Duration":272429,"SoundDuration":272429,"Delta":16651041},{"NoteNumber":61,"Velocity":80,"Duration":272429,"SoundDuration":272429,"Delta":16651041},{"NoteNumber":65,"Velocity":85,"Duration":272429,"SoundDuration":272429,"Delta":16651041},{"NoteNumber":34,"Velocity":64,"Duration":272429,"SoundDuration":272429,"Delta":16651041},{"NoteNumber":46,"Velocity":74,"Duration":272429,"SoundDuration":272429,"Delta":16651041},{"NoteNumber":73,"Velocity":66,"Duration":145375,"SoundDuration":145375,"Delta":17161265},{"NoteNumber":61,"Velocity":54,"Duration":145375,"SoundDuration":145375,"Delta":17161265},{"NoteNumber":67,"Velocity":69,"Duration":115946,"SoundDuration":115946,"Delta":17306641},{"NoteNumber":55,"Velocity":56,"Duration":115946,"SoundDuration":115946,"Delta":17306641},{"NoteNumber":68,"Velocity":74,"Duration":109474,"SoundDuration":109474,"Delta":17422587},{"NoteNumber":56,"Velocity":59,"Duration":109474,"SoundDuration":109474,"Delta":17422587},{"NoteNumber":69,"Velocity":76,"Duration":108758,"SoundDuration":108758,"Delta":17532062},{"NoteNumber":57,"Velocity":61,"Duration":108758,"SoundDuration":108758,"Delta":17532062},{"NoteNumber":72,"Velocity":80,"Duration":105093,"SoundDuration":105093,"Delta":17640820},{"NoteNumber":60,"Velocity":66,"Duration":105093,"SoundDuration":105093,"Delta":17640820},{"NoteNumber":70,"Velocity":84,"Duration":105093,"SoundDuration":105093,"Delta":17745914},{"NoteNumber":58,"Velocity":70,"Duration":105093,"SoundDuration":105093,"Delta":17745914},{"NoteNumber":68,"Velocity":88,"Duration":105093,"SoundDuration":105093,"Delta":17851007},{"NoteNumber":56,"Velocity":73,"Duration":105093,"SoundDuration":105093,"Delta":17851007},{"NoteNumber":67,"Velocity":92,"Duration":105093,"SoundDuration":105093,"Delta":17956101},{"NoteNumber":55,"Velocity":77,"Duration":105093,"SoundDuration":105093,"Delta":17956101},{"NoteNumber":65,"Velocity":95,"Duration":105093,"SoundDuration":105093,"Delta":18061194},{"NoteNumber":53,"Velocity":81,"Duration":105093,"SoundDuration":105093,"Delta":18061194},{"NoteNumber":64,"Velocity":93,"Duration":105093,"SoundDuration":105093,"Delta":18166288},{"NoteNumber":52,"Velocity":79,"Duration":105093,"SoundDuration":105093,"Delta":18166288},{"NoteNumber":55,"Velocity":71,"Duration":262238,"SoundDuration":262238,"Delta":18527638},{"NoteNumber":58,"Velocity":76,"Duration":262238,"SoundDuration":262238,"Delta":18527638},{"NoteNumber":61,"Velocity":79,"Duration":262238,"SoundDuration":262238,"Delta":18527638},{"NoteNumber":64,"Velocity":90,"Duration":262238,"SoundDuration":262238,"Delta":18527638},{"NoteNumber":46,"Velocity":78,"Duration":262238,"SoundDuration":262238,"Delta":18527638},{"NoteNumber":34,"Velocity":68,"Duration":262238,"SoundDuration":262238,"Delta":18527638},{"NoteNumber":80,"Velocity":90,"Duration":134252,"SoundDuration":134252,"Delta":19026675},{"NoteNumber":68,"Velocity":74,"Duration":134252,"SoundDuration":134252,"Delta":19026675},{"NoteNumber":70,"Velocity":82,"Duration":120423,"SoundDuration":120423,"Delta":19160927},{"NoteNumber":58,"Velocity":65,"Duration":120423,"SoundDuration":120423,"Delta":19160927},{"NoteNumber":80,"Velocity":86,"Duration":110035,"SoundDuration":110035,"Delta":19281351},{"NoteNumber":68,"Velocity":71,"Duration":110035,"SoundDuration":110035,"Delta":19281351},{"NoteNumber":79,"Velocity":84,"Duration":110035,"SoundDuration":110035,"Delta":19391386},{"NoteNumber":67,"Velocity":68,"Duration":110035,"SoundDuration":110035,"Delta":19391386},{"NoteNumber":76,"Velocity":81,"Duration":102782,"SoundDuration":102782,"Delta":19501422},{"NoteNumber":64,"Velocity":66,"Duration":102782,"SoundDuration":102782,"Delta":19501422},{"NoteNumber":73,"Velocity":78,"Duration":102781,"SoundDuration":102781,"Delta":19604204},{"NoteNumber":61,"Velocity":62,"Duration":102781,"SoundDuration":102781,"Delta":19604204},{"NoteNumber":70,"Velocity":76,"Duration":102782,"SoundDuration":102782,"Delta":19706986},{"NoteNumber":58,"Velocity":60,"Duration":102782,"SoundDuration":102782,"Delta":19706986},{"NoteNumber":67,"Velocity":74,"Duration":102782,"SoundDuration":102782,"Delta":19809768},{"NoteNumber":55,"Velocity":58,"Duration":102782,"SoundDuration":102782,"Delta":19809768},{"NoteNumber":64,"Velocity":71,"Duration":102781,"SoundDuration":102781,"Delta":19912550},{"NoteNumber":52,"Velocity":58,"Duration":102781,"SoundDuration":102781,"Delta":19912550},{"NoteNumber":65,"Velocity":68,"Duration":102782,"SoundDuration":102782,"Delta":20015332},{"NoteNumber":53,"Velocity":57,"Duration":102782,"SoundDuration":102782,"Delta":20015332},{"NoteNumber":53,"Velocity":76,"Duration":261028,"SoundDuration":261028,"Delta":20372050},{"NoteNumber":60,"Velocity":76,"Duration":261028,"SoundDuration":261028,"Delta":20372050},{"NoteNumber":65,"Velocity":90,"Duration":261028,"SoundDuration":261028,"Delta":20372050},{"NoteNumber":44,"Velocity":81,"Duration":261028,"SoundDuration":261028,"Delta":20372050},{"NoteNumber":32,"Velocity":68,"Duration":261028,"SoundDuration":261028,"Delta":20372050},{"NoteNumber":84,"Velocity":88,"Duration":126390,"SoundDuration":126390,"Delta":20869877},{"NoteNumber":72,"Velocity":76,"Duration":126390,"SoundDuration":126390,"Delta":20869877},{"NoteNumber":77,"Velocity":84,"Duration":119913,"SoundDuration":119913,"Delta":20996267},{"NoteNumber":65,"Velocity":72,"Duration":119913,"SoundDuration":119913,"Delta":20996267},{"NoteNumber":78,"Velocity":88,"Duration":113602,"SoundDuration":113602,"Delta":21116181},{"NoteNumber":66,"Velocity":74,"Duration":113602,"SoundDuration":113602,"Delta":21116181},{"NoteNumber":79,"Velocity":86,"Duration":113602,"SoundDuration":113602,"Delta":21229783},{"NoteNumber":67,"Velocity":72,"Duration":113602,"SoundDuration":113602,"Delta":21229783},{"NoteNumber":82,"Velocity":81,"Duration":94719,"SoundDuration":94719,"Delta":21343385},{"NoteNumber":70,"Velocity":67,"Duration":94719,"SoundDuration":94719,"Delta":21343385},{"NoteNumber":80,"Velocity":77,"Duration":88432,"SoundDuration":88432,"Delta":21438104},{"NoteNumber":68,"Velocity":66,"Duration":88432,"SoundDuration":88432,"Delta":21438104},{"NoteNumber":77,"Velocity":75,"Duration":86337,"SoundDuration":86337,"Delta":21526537},{"NoteNumber":65,"Velocity":63,"Duration":86337,"SoundDuration":86337,"Delta":21526537},{"NoteNumber":73,"Velocity":73,"Duration":86337,"SoundDuration":86337,"Delta":21612874},{"NoteNumber":61,"Velocity":60,"Duration":86337,"SoundDuration":86337,"Delta":21612874},{"NoteNumber":72,"Velocity":71,"Duration":86337,"SoundDuration":86337,"Delta":21699211},{"NoteNumber":60,"Velocity":59,"Duration":86337,"SoundDuration":86337,"Delta":21699211},{"NoteNumber":72,"Velocity":70,"Duration":113602,"SoundDuration":113602,"Delta":21785548},{"NoteNumber":60,"Velocity":58,"Duration":113602,"SoundDuration":113602,"Delta":21785548},{"NoteNumber":71,"Velocity":68,"Duration":113602,"SoundDuration":113602,"Delta":21899150},{"NoteNumber":59,"Velocity":57,"Duration":113602,"SoundDuration":113602,"Delta":21899150},{"NoteNumber":56,"Velocity":73,"Duration":253935,"SoundDuration":253935,"Delta":22266688},{"NoteNumber":59,"Velocity":76,"Duration":253935,"SoundDuration":253935,"Delta":22266688},{"NoteNumber":62,"Velocity":77,"Duration":253935,"SoundDuration":253935,"Delta":22266688},{"NoteNumber":68,"Velocity":91,"Duration":253935,"SoundDuration":253935,"Delta":22266688},{"NoteNumber":41,"Velocity":75,"Duration":253935,"SoundDuration":253935,"Delta":22266688},{"NoteNumber":29,"Velocity":68,"Duration":253935,"SoundDuration":253935,"Delta":22266688},{"NoteNumber":92,"Velocity":85,"Duration":152234,"SoundDuration":152234,"Delta":22774560},{"NoteNumber":80,"Velocity":71,"Duration":152234,"SoundDuration":152234,"Delta":22774560},{"NoteNumber":86,"Velocity":84,"Duration":99653,"SoundDuration":99653,"Delta":22926795},{"NoteNumber":74,"Velocity":70,"Duration":99653,"SoundDuration":99653,"Delta":22926795},{"NoteNumber":87,"Velocity":84,"Duration":75221,"SoundDuration":75221,"Delta":23026448},{"NoteNumber":75,"Velocity":70,"Duration":75221,"SoundDuration":75221,"Delta":23026448},{"NoteNumber":88,"Velocity":83,"Duration":69465,"SoundDuration":69465,"Delta":23101669},{"NoteNumber":76,"Velocity":70,"Duration":69465,"SoundDuration":69465,"Delta":23101669},{"NoteNumber":91,"Velocity":81,"Duration":66500,"SoundDuration":66500,"Delta":23171135},{"NoteNumber":79,"Velocity":69,"Duration":66500,"SoundDuration":66500,"Delta":23171135},{"NoteNumber":89,"Velocity":81,"Duration":63874,"SoundDuration":63874,"Delta":23237635},{"NoteNumber":77,"Velocity":69,"Duration":63874,"SoundDuration":63874,"Delta":23237635},{"NoteNumber":86,"Velocity":80,"Duration":63483,"SoundDuration":63483,"Delta":23301510},{"NoteNumber":74,"Velocity":68,"Duration":63483,"SoundDuration":63483,"Delta":23301510},{"NoteNumber":83,"Velocity":79,"Duration":63483,"SoundDuration":63483,"Delta":23364994},{"NoteNumber":71,"Velocity":66,"Duration":63483,"SoundDuration":63483,"Delta":23364994},{"NoteNumber":79,"Velocity":79,"Duration":63579,"SoundDuration":63579,"Delta":23428478},{"NoteNumber":67,"Velocity":66,"Duration":63579,"SoundDuration":63579,"Delta":23428478},{"NoteNumber":80,"Velocity":77,"Duration":63770,"SoundDuration":63770,"Delta":23492057},{"NoteNumber":68,"Velocity":65,"Duration":63770,"SoundDuration":63770,"Delta":23492057},{"NoteNumber":77,"Velocity":76,"Duration":64064,"SoundDuration":64064,"Delta":23555827},{"NoteNumber":65,"Velocity":64,"Duration":64064,"SoundDuration":64064,"Delta":23555827},{"NoteNumber":74,"Velocity":76,"Duration":64064,"SoundDuration":64064,"Delta":23619891},{"NoteNumber":62,"Velocity":63,"Duration":64064,"SoundDuration":64064,"Delta":23619891},{"NoteNumber":71,"Velocity":76,"Duration":51407,"SoundDuration":51407,"Delta":23683956},{"NoteNumber":59,"Velocity":63,"Duration":51407,"SoundDuration":51407,"Delta":23683956},{"NoteNumber":67,"Velocity":75,"Duration":51963,"SoundDuration":51963,"Delta":23735363},{"NoteNumber":55,"Velocity":63,"Duration":51963,"SoundDuration":51963,"Delta":23735363},{"NoteNumber":68,"Velocity":75,"Duration":52551,"SoundDuration":52551,"Delta":23787326},{"NoteNumber":56,"Velocity":63,"Duration":52551,"SoundDuration":52551,"Delta":23787326},{"NoteNumber":65,"Velocity":74,"Duration":53151,"SoundDuration":53151,"Delta":23839878},{"NoteNumber":53,"Velocity":62,"Duration":53151,"SoundDuration":53151,"Delta":23839878},{"NoteNumber":62,"Velocity":74,"Duration":53746,"SoundDuration":53746,"Delta":23893029},{"NoteNumber":50,"Velocity":62,"Duration":53746,"SoundDuration":53746,"Delta":23893029},{"NoteNumber":59,"Velocity":79,"Duration":135550,"SoundDuration":135550,"Delta":23946776},{"NoteNumber":47,"Velocity":67,"Duration":135550,"SoundDuration":135550,"Delta":23946776},{"NoteNumber":60,"Velocity":71,"Duration":130514,"SoundDuration":130514,"Delta":24082326},{"NoteNumber":48,"Velocity":59,"Duration":130514,"SoundDuration":130514,"Delta":24082326},{"NoteNumber":65,"Velocity":74,"Duration":138940,"SoundDuration":138940,"Delta":24212840},{"NoteNumber":53,"Velocity":60,"Duration":138940,"SoundDuration":138940,"Delta":24212840},{"NoteNumber":63,"Velocity":70,"Duration":164545,"SoundDuration":164545,"Delta":24351780},{"NoteNumber":51,"Velocity":58,"Duration":164545,"SoundDuration":164545,"Delta":24351780},{"NoteNumber":60,"Velocity":64,"Duration":255080,"SoundDuration":255080,"Delta":24516326},{"NoteNumber":63,"Velocity":68,"Duration":255080,"SoundDuration":255080,"Delta":24516326},{"NoteNumber":68,"Velocity":69,"Duration":255080,"SoundDuration":255080,"Delta":24516326},{"NoteNumber":72,"Velocity":81,"Duration":255080,"SoundDuration":255080,"Delta":24516326},{"NoteNumber":44,"Velocity":60,"Duration":255080,"SoundDuration":255080,"Delta":24516326},{"NoteNumber":39,"Velocity":60,"Duration":255080,"SoundDuration":255080,"Delta":24516326},{"NoteNumber":51,"Velocity":64,"Duration":255080,"SoundDuration":255080,"Delta":24516326},{"NoteNumber":74,"Velocity":69,"Duration":179681,"SoundDuration":179681,"Delta":25024998},{"NoteNumber":86,"Velocity":83,"Duration":179681,"SoundDuration":179681,"Delta":25024998},{"NoteNumber":50,"Velocity":57,"Duration":179681,"SoundDuration":179681,"Delta":25024998},{"NoteNumber":62,"Velocity":69,"Duration":179681,"SoundDuration":179681,"Delta":25024998},{"NoteNumber":73,"Velocity":57,"Duration":164653,"SoundDuration":164653,"Delta":25204679},{"NoteNumber":85,"Velocity":70,"Duration":164653,"SoundDuration":164653,"Delta":25204679},{"NoteNumber":61,"Velocity":57,"Duration":164653,"SoundDuration":164653,"Delta":25204679},{"NoteNumber":49,"Velocity":49,"Duration":164653,"SoundDuration":164653,"Delta":25204679},{"NoteNumber":72,"Velocity":57,"Duration":142789,"SoundDuration":142789,"Delta":25369333},{"NoteNumber":84,"Velocity":68,"Duration":142789,"SoundDuration":142789,"Delta":25369333},{"NoteNumber":60,"Velocity":57,"Duration":142789,"SoundDuration":142789,"Delta":25369333},{"NoteNumber":48,"Velocity":48,"Duration":142789,"SoundDuration":142789,"Delta":25369333},{"NoteNumber":72,"Velocity":57,"Duration":129004,"SoundDuration":129004,"Delta":25527712},{"NoteNumber":84,"Velocity":67,"Duration":129004,"SoundDuration":129004,"Delta":25527712},{"NoteNumber":48,"Velocity":47,"Duration":129004,"SoundDuration":129004,"Delta":25527712},{"NoteNumber":60,"Velocity":57,"Duration":129004,"SoundDuration":129004,"Delta":25527712},{"NoteNumber":72,"Velocity":55,"Duration":129004,"SoundDuration":129004,"Delta":25671050},{"NoteNumber":84,"Velocity":66,"Duration":129004,"SoundDuration":129004,"Delta":25671050},{"NoteNumber":48,"Velocity":47,"Duration":129004,"SoundDuration":129004,"Delta":25671050},{"NoteNumber":60,"Velocity":55,"Duration":129004,"SoundDuration":129004,"Delta":25671050},{"NoteNumber":72,"Velocity":54,"Duration":180970,"SoundDuration":180970,"Delta":25814388},{"NoteNumber":84,"Velocity":64,"Duration":180970,"SoundDuration":180970,"Delta":25814388},{"NoteNumber":48,"Velocity":45,"Duration":180970,"SoundDuration":180970,"Delta":25814388},{"NoteNumber":60,"Velocity":54,"Duration":180970,"SoundDuration":180970,"Delta":25814388},{"NoteNumber":59,"Velocity":72,"Duration":135550,"SoundDuration":135550,"Delta":26015859},{"NoteNumber":47,"Velocity":59,"Duration":135550,"SoundDuration":135550,"Delta":26015859},{"NoteNumber":60,"Velocity":69,"Duration":125260,"SoundDuration":125260,"Delta":26151409},{"NoteNumber":48,"Velocity":57,"Duration":125260,"SoundDuration":125260,"Delta":26151409},{"NoteNumber":65,"Velocity":72,"Duration":111790,"SoundDuration":111790,"Delta":26276670},{"NoteNumber":53,"Velocity":59,"Duration":111790,"SoundDuration":111790,"Delta":26276670},{"NoteNumber":64,"Velocity":67,"Duration":150860,"SoundDuration":150860,"Delta":26388460},{"NoteNumber":52,"Velocity":56,"Duration":150860,"SoundDuration":150860,"Delta":26388460},{"NoteNumber":60,"Velocity":66,"Duration":255080,"SoundDuration":255080,"Delta":26539320},{"NoteNumber":64,"Velocity":69,"Duration":255080,"SoundDuration":255080,"Delta":26539320},{"NoteNumber":68,"Velocity":69,"Duration":255080,"SoundDuration":255080,"Delta":26539320},{"NoteNumber":72,"Velocity":81,"Duration":255080,"SoundDuration":255080,"Delta":26539320},{"NoteNumber":40,"Velocity":60,"Duration":255080,"SoundDuration":255080,"Delta":26539320},{"NoteNumber":48,"Velocity":60,"Duration":255080,"SoundDuration":255080,"Delta":26539320},{"NoteNumber":52,"Velocity":68,"Duration":255080,"SoundDuration":255080,"Delta":26539320},{"NoteNumber":74,"Velocity":73,"Duration":179003,"SoundDuration":179003,"Delta":27049481},{"NoteNumber":86,"Velocity":88,"Duration":179003,"SoundDuration":179003,"Delta":27049481},{"NoteNumber":50,"Velocity":61,"Duration":179003,"SoundDuration":179003,"Delta":27049481},{"NoteNumber":62,"Velocity":73,"Duration":179003,"SoundDuration":179003,"Delta":27049481},{"NoteNumber":73,"Velocity":65,"Duration":164831,"SoundDuration":164831,"Delta":27228485},{"NoteNumber":85,"Velocity":76,"Duration":164831,"SoundDuration":164831,"Delta":27228485},{"NoteNumber":61,"Velocity":65,"Duration":164831,"SoundDuration":164831,"Delta":27228485},{"NoteNumber":49,"Velocity":54,"Duration":164831,"SoundDuration":164831,"Delta":27228485},{"NoteNumber":72,"Velocity":63,"Duration":143401,"SoundDuration":143401,"Delta":27393317},{"NoteNumber":84,"Velocity":75,"Duration":143401,"SoundDuration":143401,"Delta":27393317},{"NoteNumber":48,"Velocity":53,"Duration":143401,"SoundDuration":143401,"Delta":27393317},{"NoteNumber":60,"Velocity":63,"Duration":143401,"SoundDuration":143401,"Delta":27393317},{"NoteNumber":72,"Velocity":58,"Duration":99425,"SoundDuration":99425,"Delta":27552372},{"NoteNumber":84,"Velocity":71,"Duration":99425,"SoundDuration":99425,"Delta":27552372},{"NoteNumber":60,"Velocity":58,"Duration":99425,"SoundDuration":99425,"Delta":27552372},{"NoteNumber":48,"Velocity":50,"Duration":99425,"SoundDuration":99425,"Delta":27552372},{"NoteNumber":72,"Velocity":58,"Duration":99425,"SoundDuration":99425,"Delta":27662845},{"NoteNumber":84,"Velocity":71,"Duration":99425,"SoundDuration":99425,"Delta":27662845},{"NoteNumber":48,"Velocity":50,"Duration":99425,"SoundDuration":99425,"Delta":27662845},{"NoteNumber":60,"Velocity":58,"Duration":99425,"SoundDuration":99425,"Delta":27662845},{"NoteNumber":72,"Velocity":57,"Duration":99425,"SoundDuration":99425,"Delta":27773318},{"NoteNumber":84,"Velocity":69,"Duration":99425,"SoundDuration":99425,"Delta":27773318},{"NoteNumber":48,"Velocity":48,"Duration":99425,"SoundDuration":99425,"Delta":27773318},{"NoteNumber":60,"Velocity":57,"Duration":99425,"SoundDuration":99425,"Delta":27773318},{"NoteNumber":72,"Velocity":57,"Duration":149402,"SoundDuration":149402,"Delta":27883791},{"NoteNumber":84,"Velocity":69,"Duration":149402,"SoundDuration":149402,"Delta":27883791},{"NoteNumber":60,"Velocity":57,"Duration":149402,"SoundDuration":149402,"Delta":27883791},{"NoteNumber":48,"Velocity":48,"Duration":149402,"SoundDuration":149402,"Delta":27883791},{"NoteNumber":59,"Velocity":76,"Duration":135550,"SoundDuration":135550,"Delta":28049793},{"NoteNumber":47,"Velocity":63,"Duration":135550,"SoundDuration":135550,"Delta":28049793},{"NoteNumber":60,"Velocity":73,"Duration":121467,"SoundDuration":121467,"Delta":28185344},{"NoteNumber":48,"Velocity":60,"Duration":121467,"SoundDuration":121467,"Delta":28185344},{"NoteNumber":67,"Velocity":76,"Duration":107503,"SoundDuration":107503,"Delta":28306811},{"NoteNumber":55,"Velocity":63,"Duration":107503,"SoundDuration":107503,"Delta":28306811},{"NoteNumber":65,"Velocity":71,"Duration":155892,"SoundDuration":155892,"Delta":28414315},{"NoteNumber":53,"Velocity":59,"Duration":155892,"SoundDuration":155892,"Delta":28414315},{"NoteNumber":60,"Velocity":72,"Duration":255080,"SoundDuration":255080,"Delta":28570207},{"NoteNumber":65,"Velocity":73,"Duration":255080,"SoundDuration":255080,"Delta":28570207},{"NoteNumber":68,"Velocity":73,"Duration":255080,"SoundDuration":255080,"Delta":28570207},{"NoteNumber":72,"Velocity":86,"Duration":255080,"SoundDuration":255080,"Delta":28570207},{"NoteNumber":56,"Velocity":74,"Duration":255080,"SoundDuration":255080,"Delta":28570207},{"NoteNumber":41,"Velocity":64,"Duration":255080,"SoundDuration":255080,"Delta":28570207},{"NoteNumber":48,"Velocity":64,"Duration":255080,"SoundDuration":255080,"Delta":28570207},{"NoteNumber":59,"Velocity":76,"Duration":135550,"SoundDuration":135550,"Delta":29080368},{"NoteNumber":47,"Velocity":63,"Duration":135550,"SoundDuration":135550,"Delta":29080368},{"NoteNumber":60,"Velocity":73,"Duration":114529,"SoundDuration":114529,"Delta":29215919},{"NoteNumber":48,"Velocity":60,"Duration":114529,"SoundDuration":114529,"Delta":29215919},{"NoteNumber":70,"Velocity":76,"Duration":99502,"SoundDuration":99502,"Delta":29330449},{"NoteNumber":58,"Velocity":63,"Duration":99502,"SoundDuration":99502,"Delta":29330449},{"NoteNumber":68,"Velocity":71,"Duration":154178,"SoundDuration":154178,"Delta":29429951},{"NoteNumber":56,"Velocity":59,"Duration":154178,"SoundDuration":154178,"Delta":29429951},{"NoteNumber":60,"Velocity":70,"Duration":251656,"SoundDuration":251656,"Delta":29584129},{"NoteNumber":63,"Velocity":73,"Duration":251656,"SoundDuration":251656,"Delta":29584129},{"NoteNumber":68,"Velocity":73,"Duration":251656,"SoundDuration":251656,"Delta":29584129},{"NoteNumber":72,"Velocity":86,"Duration":251656,"SoundDuration":251656,"Delta":29584129},{"NoteNumber":42,"Velocity":62,"Duration":251656,"SoundDuration":251656,"Delta":29584129},{"NoteNumber":54,"Velocity":70,"Duration":251656,"SoundDuration":251656,"Delta":29584129},{"NoteNumber":44,"Velocity":64,"Duration":251656,"SoundDuration":251656,"Delta":29584129},{"NoteNumber":60,"Velocity":65,"Duration":169033,"SoundDuration":169033,"Delta":30087442},{"NoteNumber":63,"Velocity":61,"Duration":169033,"SoundDuration":169033,"Delta":30087442},{"NoteNumber":68,"Velocity":65,"Duration":169033,"SoundDuration":169033,"Delta":30087442},{"NoteNumber":72,"Velocity":77,"Duration":169033,"SoundDuration":169033,"Delta":30087442},{"NoteNumber":42,"Velocity":54,"Duration":169033,"SoundDuration":169033,"Delta":30087442},{"NoteNumber":54,"Velocity":64,"Duration":169033,"SoundDuration":169033,"Delta":30087442},{"NoteNumber":44,"Velocity":54,"Duration":169033,"SoundDuration":169033,"Delta":30087442},{"NoteNumber":72,"Velocity":74,"Duration":233827,"SoundDuration":233827,"Delta":30312820},{"NoteNumber":84,"Velocity":88,"Duration":233827,"SoundDuration":233827,"Delta":30312820},{"NoteNumber":48,"Velocity":57,"Duration":233827,"SoundDuration":233827,"Delta":30312820},{"NoteNumber":60,"Velocity":70,"Duration":233827,"SoundDuration":233827,"Delta":30312820},{"NoteNumber":64,"Velocity":65,"Duration":169708,"SoundDuration":169708,"Delta":30546647},{"NoteNumber":70,"Velocity":65,"Duration":169708,"SoundDuration":169708,"Delta":30546647},{"NoteNumber":73,"Velocity":65,"Duration":169708,"SoundDuration":169708,"Delta":30546647},{"NoteNumber":76,"Velocity":77,"Duration":169708,"SoundDuration":169708,"Delta":30546647},{"NoteNumber":55,"Velocity":64,"Duration":169708,"SoundDuration":169708,"Delta":30546647},{"NoteNumber":43,"Velocity":54,"Duration":169708,"SoundDuration":169708,"Delta":30546647},{"NoteNumber":85,"Velocity":89,"Duration":234815,"SoundDuration":234815,"Delta":30772925},{"NoteNumber":73,"Velocity":76,"Duration":234815,"SoundDuration":234815,"Delta":30772925},{"NoteNumber":61,"Velocity":71,"Duration":234815,"SoundDuration":234815,"Delta":30772925},{"NoteNumber":49,"Velocity":59,"Duration":234815,"SoundDuration":234815,"Delta":30772925},{"NoteNumber":65,"Velocity":65,"Duration":173210,"SoundDuration":173210,"Delta":31007741},{"NoteNumber":68,"Velocity":65,"Duration":173210,"SoundDuration":173210,"Delta":31007741},{"NoteNumber":73,"Velocity":65,"Duration":173210,"SoundDuration":173210,"Delta":31007741},{"NoteNumber":77,"Velocity":77,"Duration":173210,"SoundDuration":173210,"Delta":31007741},{"NoteNumber":44,"Velocity":54,"Duration":173210,"SoundDuration":173210,"Delta":31007741},{"NoteNumber":56,"Velocity":64,"Duration":173210,"SoundDuration":173210,"Delta":31007741},{"NoteNumber":49,"Velocity":54,"Duration":173210,"SoundDuration":173210,"Delta":31007741},{"NoteNumber":92,"Velocity":89,"Duration":248324,"SoundDuration":248324,"Delta":31238688},{"NoteNumber":80,"Velocity":76,"Duration":248324,"SoundDuration":248324,"Delta":31238688},{"NoteNumber":56,"Velocity":71,"Duration":248324,"SoundDuration":248324,"Delta":31238688},{"NoteNumber":68,"Velocity":71,"Duration":248324,"SoundDuration":248324,"Delta":31238688},{"NoteNumber":67,"Velocity":65,"Duration":177598,"SoundDuration":177598,"Delta":31487012},{"NoteNumber":73,"Velocity":65,"Duration":177598,"SoundDuration":177598,"Delta":31487012},{"NoteNumber":77,"Velocity":65,"Duration":177598,"SoundDuration":177598,"Delta":31487012},{"NoteNumber":79,"Velocity":77,"Duration":177598,"SoundDuration":177598,"Delta":31487012},{"NoteNumber":49,"Velocity":54,"Duration":177598,"SoundDuration":177598,"Delta":31487012},{"NoteNumber":46,"Velocity":54,"Duration":177598,"SoundDuration":177598,"Delta":31487012},{"NoteNumber":58,"Velocity":64,"Duration":177598,"SoundDuration":177598,"Delta":31487012},{"NoteNumber":91,"Velocity":89,"Duration":256257,"SoundDuration":256257,"Delta":31724485},{"NoteNumber":79,"Velocity":76,"Duration":256257,"SoundDuration":256257,"Delta":31724485},{"NoteNumber":67,"Velocity":71,"Duration":256257,"SoundDuration":256257,"Delta":31724485},{"NoteNumber":55,"Velocity":59,"Duration":256257,"SoundDuration":256257,"Delta":31724485},{"NoteNumber":59,"Velocity":77,"Duration":265957,"SoundDuration":265957,"Delta":31980742},{"NoteNumber":71,"Velocity":92,"Duration":265957,"SoundDuration":265957,"Delta":31980742},{"NoteNumber":35,"Velocity":65,"Duration":265957,"SoundDuration":265957,"Delta":31980742},{"NoteNumber":47,"Velocity":76,"Duration":265957,"SoundDuration":265957,"Delta":31980742},{"NoteNumber":59,"Velocity":73,"Duration":855171,"SoundDuration":855171,"Delta":32313189},{"NoteNumber":61,"Velocity":76,"Duration":788682,"SoundDuration":788682,"Delta":32379679},{"NoteNumber":53,"Velocity":77,"Duration":722192,"SoundDuration":722192,"Delta":32446168},{"NoteNumber":89,"Velocity":92,"Duration":397215,"SoundDuration":397215,"Delta":32508820},{"NoteNumber":77,"Velocity":92,"Duration":397215,"SoundDuration":397215,"Delta":32508820},{"NoteNumber":61,"Velocity":81,"Duration":659540,"SoundDuration":659540,"Delta":32508820},{"NoteNumber":87,"Velocity":85,"Duration":131087,"SoundDuration":131087,"Delta":32906036},{"NoteNumber":85,"Velocity":85,"Duration":68313,"SoundDuration":68313,"Delta":33037123},{"NoteNumber":80,"Velocity":84,"Duration":62924,"SoundDuration":62924,"Delta":33105436},{"NoteNumber":77,"Velocity":83,"Duration":60560,"SoundDuration":60560,"Delta":33168361},{"NoteNumber":75,"Velocity":83,"Duration":60911,"SoundDuration":60911,"Delta":33228921},{"NoteNumber":73,"Velocity":82,"Duration":61444,"SoundDuration":61444,"Delta":33289833},{"NoteNumber":68,"Velocity":81,"Duration":61804,"SoundDuration":61804,"Delta":33351277},{"NoteNumber":77,"Velocity":81,"Duration":62630,"SoundDuration":62630,"Delta":33413082},{"NoteNumber":75,"Velocity":80,"Duration":62630,"SoundDuration":62630,"Delta":33475713},{"NoteNumber":73,"Velocity":79,"Duration":62914,"SoundDuration":62914,"Delta":33538343},{"NoteNumber":68,"Velocity":79,"Duration":62914,"SoundDuration":62914,"Delta":33601257},{"NoteNumber":65,"Velocity":78,"Duration":63195,"SoundDuration":63195,"Delta":33664171},{"NoteNumber":63,"Velocity":77,"Duration":63387,"SoundDuration":63387,"Delta":33727367},{"NoteNumber":61,"Velocity":77,"Duration":63484,"SoundDuration":63484,"Delta":33790754},{"NoteNumber":56,"Velocity":76,"Duration":63674,"SoundDuration":63674,"Delta":33854238},{"NoteNumber":53,"Velocity":76,"Duration":63770,"SoundDuration":63770,"Delta":33917913},{"NoteNumber":51,"Velocity":76,"Duration":63966,"SoundDuration":63966,"Delta":33981683},{"NoteNumber":49,"Velocity":75,"Duration":64161,"SoundDuration":64161,"Delta":34045649},{"NoteNumber":44,"Velocity":80,"Duration":64355,"SoundDuration":64355,"Delta":34109811},{"NoteNumber":41,"Velocity":88,"Duration":90351,"SoundDuration":90351,"Delta":34174166},{"NoteNumber":29,"Velocity":69,"Duration":90351,"SoundDuration":90351,"Delta":34174166},{"NoteNumber":43,"Velocity":79,"Duration":89455,"SoundDuration":89455,"Delta":34246531},{"NoteNumber":31,"Velocity":55,"Duration":89455,"SoundDuration":89455,"Delta":34246531},{"NoteNumber":41,"Velocity":83,"Duration":88573,"SoundDuration":88573,"Delta":34318204},{"NoteNumber":29,"Velocity":62,"Duration":88573,"SoundDuration":88573,"Delta":34318204},{"NoteNumber":43,"Velocity":76,"Duration":87578,"SoundDuration":87578,"Delta":34389196},{"NoteNumber":31,"Velocity":54,"Duration":87578,"SoundDuration":87578,"Delta":34389196},{"NoteNumber":41,"Velocity":79,"Duration":87447,"SoundDuration":87447,"Delta":34459389},{"NoteNumber":29,"Velocity":60,"Duration":87447,"SoundDuration":87447,"Delta":34459389},{"NoteNumber":43,"Velocity":72,"Duration":87577,"SoundDuration":87577,"Delta":34529321},{"NoteNumber":31,"Velocity":54,"Duration":87577,"SoundDuration":87577,"Delta":34529321},{"NoteNumber":41,"Velocity":79,"Duration":70062,"SoundDuration":70062,"Delta":34599384},{"NoteNumber":29,"Velocity":64,"Duration":70062,"SoundDuration":70062,"Delta":34599384},{"NoteNumber":43,"Velocity":68,"Duration":70062,"SoundDuration":70062,"Delta":34651930},{"NoteNumber":31,"Velocity":56,"Duration":70062,"SoundDuration":70062,"Delta":34651930},{"NoteNumber":41,"Velocity":74,"Duration":70062,"SoundDuration":70062,"Delta":34704477},{"NoteNumber":29,"Velocity":61,"Duration":70062,"SoundDuration":70062,"Delta":34704477},{"NoteNumber":43,"Velocity":68,"Duration":70062,"SoundDuration":70062,"Delta":34757024},{"NoteNumber":31,"Velocity":51,"Duration":70062,"SoundDuration":70062,"Delta":34757024},{"NoteNumber":41,"Velocity":76,"Duration":70062,"SoundDuration":70062,"Delta":34809571},{"NoteNumber":29,"Velocity":57,"Duration":70062,"SoundDuration":70062,"Delta":34809571},{"NoteNumber":43,"Velocity":68,"Duration":70062,"SoundDuration":70062,"Delta":34862117},{"NoteNumber":31,"Velocity":52,"Duration":70062,"SoundDuration":70062,"Delta":34862117},{"NoteNumber":41,"Velocity":75,"Duration":71253,"SoundDuration":71253,"Delta":34914664},{"NoteNumber":29,"Velocity":59,"Duration":71253,"SoundDuration":71253,"Delta":34914664},{"NoteNumber":43,"Velocity":66,"Duration":74976,"SoundDuration":74976,"Delta":34967211},{"NoteNumber":31,"Velocity":50,"Duration":74976,"SoundDuration":74976,"Delta":34967211},{"NoteNumber":40,"Velocity":81,"Duration":37715,"SoundDuration":37715,"Delta":35023406},{"NoteNumber":28,"Velocity":69,"Duration":37715,"SoundDuration":37715,"Delta":35023406},{"NoteNumber":41,"Velocity":76,"Duration":38175,"SoundDuration":38175,"Delta":35099065},{"NoteNumber":29,"Velocity":63,"Duration":38175,"SoundDuration":38175,"Delta":35099065},{"NoteNumber":49,"Velocity":77,"Duration":38651,"SoundDuration":38651,"Delta":35175652},{"NoteNumber":37,"Velocity":65,"Duration":38651,"SoundDuration":38651,"Delta":35175652},{"NoteNumber":48,"Velocity":84,"Duration":39135,"SoundDuration":39135,"Delta":35253194},{"NoteNumber":36,"Velocity":71,"Duration":39135,"SoundDuration":39135,"Delta":35253194},{"NoteNumber":43,"Velocity":79,"Duration":39632,"SoundDuration":39632,"Delta":35331712},{"NoteNumber":31,"Velocity":67,"Duration":39632,"SoundDuration":39632,"Delta":35331712},{"NoteNumber":47,"Velocity":81,"Duration":40143,"SoundDuration":40143,"Delta":35411230},{"NoteNumber":35,"Velocity":68,"Duration":40143,"SoundDuration":40143,"Delta":35411230},{"NoteNumber":42,"Velocity":88,"Duration":40666,"SoundDuration":40666,"Delta":35491777},{"NoteNumber":30,"Velocity":75,"Duration":40666,"SoundDuration":40666,"Delta":35491777},{"NoteNumber":46,"Velocity":84,"Duration":41205,"SoundDuration":41205,"Delta":35573376},{"NoteNumber":34,"Velocity":71,"Duration":41205,"SoundDuration":41205,"Delta":35573376},{"NoteNumber":41,"Velocity":85,"Duration":41756,"SoundDuration":41756,"Delta":35656060},{"NoteNumber":29,"Velocity":71,"Duration":41756,"SoundDuration":41756,"Delta":35656060},{"NoteNumber":45,"Velocity":92,"Duration":42321,"SoundDuration":42321,"Delta":35739853},{"NoteNumber":33,"Velocity":77,"Duration":42321,"SoundDuration":42321,"Delta":35739853},{"NoteNumber":41,"Velocity":89,"Duration":42906,"SoundDuration":42906,"Delta":35824786},{"NoteNumber":29,"Velocity":75,"Duration":42906,"SoundDuration":42906,"Delta":35824786},{"NoteNumber":44,"Velocity":90,"Duration":44564,"SoundDuration":44564,"Delta":35910997},{"NoteNumber":32,"Velocity":76,"Duration":44564,"SoundDuration":44564,"Delta":35910997},{"NoteNumber":36,"Velocity":109,"Duration":258620,"SoundDuration":258620,"Delta":35998665},{"NoteNumber":24,"Velocity":88,"Duration":258620,"SoundDuration":258620,"Delta":35998665},{"NoteNumber":48,"Velocity":86,"Duration":1100411,"SoundDuration":1100411,"Delta":38520181},{"NoteNumber":55,"Velocity":92,"Duration":1100411,"SoundDuration":1100411,"Delta":38520181},{"NoteNumber":60,"Velocity":109,"Duration":1100411,"SoundDuration":1100411,"Delta":38520181},{"NoteNumber":36,"Velocity":71,"Duration":1100411,"SoundDuration":1100411,"Delta":38520181},{"NoteNumber":43,"Velocity":80,"Duration":1100411,"SoundDuration":1100411,"Delta":38520181},{"NoteNumber":48,"Velocity":77,"Duration":2326256,"SoundDuration":2326256,"Delta":39620593},{"NoteNumber":53,"Velocity":81,"Duration":2326256,"SoundDuration":2326256,"Delta":39620593},{"NoteNumber":56,"Velocity":98,"Duration":2326256,"SoundDuration":2326256,"Delta":39620593},{"NoteNumber":60,"Velocity":98,"Duration":2326256,"SoundDuration":2326256,"Delta":39620593},{"NoteNumber":41,"Velocity":73,"Duration":2326256,"SoundDuration":2326256,"Delta":39620593},{"NoteNumber":29,"Velocity":62,"Duration":2326256,"SoundDuration":2326256,"Delta":39620593}],"license":{"name":"Creative Commons Attribution-ShareAlike 3.0 Germany","url":"http://creativecommons.org/licenses/by-sa/3.0/de/deed.en","text":"The MIDI, audio (MP3, OGG) and video files of Bernd Krueger are licensed under the cc-by-sa Germany License. This means that you can use and adapt the files, as long as you attribute the copyright holder.\n\nName: Bernd Krueger\nSource: http://www.piano-midi.de\n\nThe distribution or public playback of the files is only allowed under identical license conditions.\n\nThe scores are open source.","attribution":"MIDI files by Bernd Krueger (piano-midi.de)","attributionUrl":"http://www.piano-midi.de"}}