{"title":"Mazurka Opus 7 No. 2","artist":"Chopin","durationMs":159004,"midiSha256":"caeb996f0af58e1673b3ceb7588c2683d3457ec8fc4a0a29eb2bd8f6144ba4ea","midiObject":[{"NoteNumber":76,"Velocity":45,"Duration":430107,"SoundDuration":430107,"Delta":0},{"NoteNumber":77,"Velocity":46,"Duration":312500,"SoundDuration":312500,"Delta":430108},{"NoteNumber":76,"Velocity":45,"Duration":104166,"SoundDuration":104166,"Delta":742608},{"NoteNumber":74,"Velocity":45,"Duration":421099,"SoundDuration":421099,"Delta":846774},{"NoteNumber":65,"Velocity":27,"Duration":421099,"SoundDuration":421099,"Delta":846774},{"NoteNumber":62,"Velocity":22,"Duration":421099,"SoundDuration":421099,"Delta":846774},{"NoteNumber":57,"Velocity":22,"Duration":421099,"SoundDuration":421099,"Delta":846774},{"NoteNumber":77,"Velocity":48,"Duration":492062,"SoundDuration":492062,"Delta":1267874},{"NoteNumber":65,"Velocity":27,"Duration":496607,"SoundDuration":496607,"Delta":1267874},{"NoteNumber":62,"Velocity":22,"Duration":496607,"SoundDuration":496607,"Delta":1267874},{"NoteNumber":57,"Velocity":22,"Duration":496607,"SoundDuration":496607,"Delta":1267874},{"NoteNumber":77,"Velocity":47,"Duration":848033,"SoundDuration":848033,"Delta":1764482},{"NoteNumber":65,"Velocity":25,"Duration":426354,"SoundDuration":426354,"Delta":2186161},{"NoteNumber":60,"Velocity":21,"Duration":426354,"SoundDuration":426354,"Delta":2186161},{"NoteNumber":57,"Velocity":21,"Duration":426354,"SoundDuration":426354,"Delta":2186161},{"NoteNumber":76,"Velocity":43,"Duration":431654,"SoundDuration":431654,"Delta":2612515},{"NoteNumber":64,"Velocity":25,"Duration":431654,"SoundDuration":431654,"Delta":2612515},{"NoteNumber":60,"Velocity":21,"Duration":431654,"SoundDuration":431654,"Delta":2612515},{"NoteNumber":57,"Velocity":21,"Duration":431654,"SoundDuration":431654,"Delta":2612515},{"NoteNumber":74,"Velocity":42,"Duration":70422,"SoundDuration":70422,"Delta":3044170},{"NoteNumber":76,"Velocity":43,"Duration":70422,"SoundDuration":70422,"Delta":3114593},{"NoteNumber":74,"Velocity":44,"Duration":70422,"SoundDuration":70422,"Delta":3185015},{"NoteNumber":73,"Velocity":45,"Duration":211267,"SoundDuration":211267,"Delta":3255438},{"NoteNumber":74,"Velocity":47,"Duration":215827,"SoundDuration":215827,"Delta":3466705},{"NoteNumber":62,"Velocity":28,"Duration":431655,"SoundDuration":431655,"Delta":3466705},{"NoteNumber":52,"Velocity":23,"Duration":431655,"SoundDuration":431655,"Delta":3466705},{"NoteNumber":56,"Velocity":23,"Duration":431655,"SoundDuration":431655,"Delta":3466705},{"NoteNumber":75,"Velocity":45,"Duration":215827,"SoundDuration":215827,"Delta":3682533},{"NoteNumber":76,"Velocity":50,"Duration":221402,"SoundDuration":221402,"Delta":3898360},{"NoteNumber":62,"Velocity":25,"Duration":463337,"SoundDuration":463337,"Delta":3898360},{"NoteNumber":56,"Velocity":21,"Duration":463337,"SoundDuration":463337,"Delta":3898360},{"NoteNumber":52,"Velocity":21,"Duration":463337,"SoundDuration":463337,"Delta":3898360},{"NoteNumber":71,"Velocity":50,"Duration":241935,"SoundDuration":241935,"Delta":4119763},{"NoteNumber":74,"Velocity":54,"Duration":863310,"SoundDuration":863310,"Delta":4361698},{"NoteNumber":45,"Velocity":30,"Duration":431655,"SoundDuration":431655,"Delta":4793353},{"NoteNumber":72,"Velocity":45,"Duration":431654,"SoundDuration":431654,"Delta":5225008},{"NoteNumber":60,"Velocity":28,"Duration":431654,"SoundDuration":431654,"Delta":5225008},{"NoteNumber":52,"Velocity":22,"Duration":431654,"SoundDuration":431654,"Delta":5225008},{"NoteNumber":69,"Velocity":62,"Duration":138408,"SoundDuration":138408,"Delta":5656663},{"NoteNumber":71,"Velocity":57,"Duration":138408,"SoundDuration":138408,"Delta":5795071},{"NoteNumber":69,"Velocity":57,"Duration":138408,"SoundDuration":138408,"Delta":5933480},{"NoteNumber":68,"Velocity":63,"Duration":207612,"SoundDuration":207612,"Delta":6071888},{"NoteNumber":52,"Velocity":39,"Duration":207612,"SoundDuration":207612,"Delta":6071888},{"NoteNumber":60,"Velocity":46,"Duration":207612,"SoundDuration":207612,"Delta":6071888},{"NoteNumber":69,"Velocity":67,"Duration":207612,"SoundDuration":207612,"Delta":6487113},{"NoteNumber":45,"Velocity":48,"Duration":207612,"SoundDuration":207612,"Delta":6487113},{"NoteNumber":71,"Velocity":70,"Duration":215054,"SoundDuration":215054,"Delta":6902338},{"NoteNumber":76,"Velocity":72,"Duration":845112,"SoundDuration":845112,"Delta":7332446},{"NoteNumber":52,"Velocity":41,"Duration":419579,"SoundDuration":419579,"Delta":7332446},{"NoteNumber":59,"Velocity":49,"Duration":419579,"SoundDuration":419579,"Delta":7332446},{"NoteNumber":55,"Velocity":41,"Duration":419579,"SoundDuration":419579,"Delta":7332446},{"NoteNumber":47,"Velocity":56,"Duration":425532,"SoundDuration":425532,"Delta":7752026},{"NoteNumber":71,"Velocity":76,"Duration":209058,"SoundDuration":209058,"Delta":8177558},{"NoteNumber":67,"Velocity":73,"Duration":209058,"SoundDuration":209058,"Delta":8386617},{"NoteNumber":64,"Velocity":76,"Duration":209058,"SoundDuration":209058,"Delta":8595676},{"NoteNumber":47,"Velocity":45,"Duration":418117,"SoundDuration":418117,"Delta":8595676},{"NoteNumber":55,"Velocity":45,"Duration":418117,"SoundDuration":418117,"Delta":8595676},{"NoteNumber":59,"Velocity":54,"Duration":418117,"SoundDuration":418117,"Delta":8595676},{"NoteNumber":71,"Velocity":71,"Duration":209058,"SoundDuration":209058,"Delta":8804735},{"NoteNumber":63,"Velocity":73,"Duration":433213,"SoundDuration":433213,"Delta":9013794},{"NoteNumber":47,"Velocity":41,"Duration":433213,"SoundDuration":433213,"Delta":9013794},{"NoteNumber":54,"Velocity":41,"Duration":433213,"SoundDuration":433213,"Delta":9013794},{"NoteNumber":59,"Velocity":49,"Duration":433213,"SoundDuration":433213,"Delta":9013794},{"NoteNumber":64,"Velocity":76,"Duration":937414,"SoundDuration":937414,"Delta":9447007},{"NoteNumber":52,"Velocity":45,"Duration":433213,"SoundDuration":433213,"Delta":9447007},{"NoteNumber":55,"Velocity":45,"Duration":433213,"SoundDuration":433213,"Delta":9447007},{"NoteNumber":59,"Velocity":54,"Duration":433213,"SoundDuration":433213,"Delta":9447007},{"NoteNumber":40,"Velocity":50,"Duration":504201,"SoundDuration":504201,"Delta":9880220},{"NoteNumber":76,"Velocity":45,"Duration":430108,"SoundDuration":430108,"Delta":10384422},{"NoteNumber":77,"Velocity":46,"Duration":312500,"SoundDuration":312500,"Delta":10814530},{"NoteNumber":76,"Velocity":45,"Duration":104166,"SoundDuration":104166,"Delta":11127030},{"NoteNumber":74,"Velocity":45,"Duration":427820,"SoundDuration":427820,"Delta":11231197},{"NoteNumber":65,"Velocity":27,"Duration":427820,"SoundDuration":427820,"Delta":11231197},{"NoteNumber":62,"Velocity":22,"Duration":427820,"SoundDuration":427820,"Delta":11231197},{"NoteNumber":57,"Velocity":22,"Duration":427820,"SoundDuration":427820,"Delta":11231197},{"NoteNumber":77,"Velocity":48,"Duration":507439,"SoundDuration":507439,"Delta":11659017},{"NoteNumber":65,"Velocity":27,"Duration":514836,"SoundDuration":514836,"Delta":11659017},{"NoteNumber":62,"Velocity":22,"Duration":514836,"SoundDuration":514836,"Delta":11659017},{"NoteNumber":57,"Velocity":22,"Duration":514836,"SoundDuration":514836,"Delta":11659017},{"NoteNumber":77,"Velocity":47,"Duration":848033,"SoundDuration":848033,"Delta":12173853},{"NoteNumber":65,"Velocity":25,"Duration":426353,"SoundDuration":426353,"Delta":12595533},{"NoteNumber":60,"Velocity":21,"Duration":426353,"SoundDuration":426353,"Delta":12595533},{"NoteNumber":57,"Velocity":21,"Duration":426353,"SoundDuration":426353,"Delta":12595533},{"NoteNumber":76,"Velocity":43,"Duration":431655,"SoundDuration":431655,"Delta":13021887},{"NoteNumber":64,"Velocity":25,"Duration":431655,"SoundDuration":431655,"Delta":13021887},{"NoteNumber":60,"Velocity":21,"Duration":431655,"SoundDuration":431655,"Delta":13021887},{"NoteNumber":57,"Velocity":21,"Duration":431655,"SoundDuration":431655,"Delta":13021887},{"NoteNumber":74,"Velocity":42,"Duration":70422,"SoundDuration":70422,"Delta":13453542},{"NoteNumber":76,"Velocity":43,"Duration":70422,"SoundDuration":70422,"Delta":13523964},{"NoteNumber":74,"Velocity":44,"Duration":70422,"SoundDuration":70422,"Delta":13594387},{"NoteNumber":73,"Velocity":45,"Duration":211267,"SoundDuration":211267,"Delta":13664809},{"NoteNumber":74,"Velocity":47,"Duration":215827,"SoundDuration":215827,"Delta":13876077},{"NoteNumber":62,"Velocity":28,"Duration":431654,"SoundDuration":431654,"Delta":13876077},{"NoteNumber":52,"Velocity":23,"Duration":431654,"SoundDuration":431654,"Delta":13876077},{"NoteNumber":56,"Velocity":23,"Duration":431654,"SoundDuration":431654,"Delta":13876077},{"NoteNumber":75,"Velocity":45,"Duration":215827,"SoundDuration":215827,"Delta":14091904},{"NoteNumber":76,"Velocity":47,"Duration":224719,"SoundDuration":224719,"Delta":14307732},{"NoteNumber":62,"Velocity":25,"Duration":486727,"SoundDuration":486727,"Delta":14307732},{"NoteNumber":56,"Velocity":21,"Duration":486727,"SoundDuration":486727,"Delta":14307732},{"NoteNumber":52,"Velocity":21,"Duration":486727,"SoundDuration":486727,"Delta":14307732},{"NoteNumber":71,"Velocity":42,"Duration":124454,"SoundDuration":124454,"Delta":14532451},{"NoteNumber":71,"Velocity":47,"Duration":131004,"SoundDuration":131004,"Delta":14663455},{"NoteNumber":74,"Velocity":51,"Duration":854189,"SoundDuration":854189,"Delta":14794459},{"NoteNumber":53,"Velocity":21,"Duration":431654,"SoundDuration":431654,"Delta":15216994},{"NoteNumber":57,"Velocity":21,"Duration":431654,"SoundDuration":431654,"Delta":15216994},{"NoteNumber":62,"Velocity":28,"Duration":431654,"SoundDuration":431654,"Delta":15216994},{"NoteNumber":72,"Velocity":45,"Duration":431654,"SoundDuration":431654,"Delta":15648649},{"NoteNumber":57,"Velocity":21,"Duration":431654,"SoundDuration":431654,"Delta":15648649},{"NoteNumber":60,"Velocity":26,"Duration":431654,"SoundDuration":431654,"Delta":15648649},{"NoteNumber":53,"Velocity":21,"Duration":431654,"SoundDuration":431654,"Delta":15648649},{"NoteNumber":69,"Velocity":46,"Duration":138408,"SoundDuration":138408,"Delta":16080304},{"NoteNumber":70,"Velocity":43,"Duration":138408,"SoundDuration":138408,"Delta":16218712},{"NoteNumber":69,"Velocity":43,"Duration":138408,"SoundDuration":138408,"Delta":16357121},{"NoteNumber":67,"Velocity":47,"Duration":452829,"SoundDuration":452829,"Delta":16495529},{"NoteNumber":60,"Velocity":29,"Duration":452829,"SoundDuration":452829,"Delta":16495529},{"NoteNumber":53,"Velocity":29,"Duration":452829,"SoundDuration":452829,"Delta":16495529},{"NoteNumber":63,"Velocity":34,"Duration":452829,"SoundDuration":452829,"Delta":16495529},{"NoteNumber":69,"Velocity":51,"Duration":481927,"SoundDuration":481927,"Delta":16948359},{"NoteNumber":53,"Velocity":29,"Duration":481927,"SoundDuration":481927,"Delta":16948359},{"NoteNumber":60,"Velocity":29,"Duration":481927,"SoundDuration":481927,"Delta":16948359},{"NoteNumber":63,"Velocity":34,"Duration":481927,"SoundDuration":481927,"Delta":16948359},{"NoteNumber":70,"Velocity":53,"Duration":519480,"SoundDuration":519480,"Delta":17430287},{"NoteNumber":58,"Velocity":34,"Duration":1001408,"SoundDuration":1001408,"Delta":17430287},{"NoteNumber":62,"Velocity":37,"Duration":519480,"SoundDuration":519480,"Delta":17430287},{"NoteNumber":74,"Velocity":54,"Duration":481927,"SoundDuration":481927,"Delta":17949768},{"NoteNumber":65,"Velocity":37,"Duration":481927,"SoundDuration":481927,"Delta":17949768},{"NoteNumber":69,"Velocity":48,"Duration":320284,"SoundDuration":320284,"Delta":18967410},{"NoteNumber":68,"Velocity":44,"Duration":106761,"SoundDuration":106761,"Delta":19287694},{"NoteNumber":62,"Velocity":40,"Duration":444444,"SoundDuration":444444,"Delta":19394456},{"NoteNumber":64,"Velocity":48,"Duration":444444,"SoundDuration":444444,"Delta":19394456},{"NoteNumber":52,"Velocity":29,"Duration":444444,"SoundDuration":444444,"Delta":19394456},{"NoteNumber":59,"Velocity":35,"Duration":444444,"SoundDuration":444444,"Delta":19394456},{"NoteNumber":68,"Velocity":45,"Duration":449438,"SoundDuration":449438,"Delta":19838900},{"NoteNumber":62,"Velocity":38,"Duration":449438,"SoundDuration":449438,"Delta":19838900},{"NoteNumber":52,"Velocity":26,"Duration":449438,"SoundDuration":449438,"Delta":19838900},{"NoteNumber":59,"Velocity":31,"Duration":449438,"SoundDuration":449438,"Delta":19838900},{"NoteNumber":60,"Velocity":39,"Duration":449438,"SoundDuration":449438,"Delta":20288338},{"NoteNumber":69,"Velocity":46,"Duration":957913,"SoundDuration":957913,"Delta":20288338},{"NoteNumber":45,"Velocity":29,"Duration":449438,"SoundDuration":449438,"Delta":20288338},{"NoteNumber":52,"Velocity":35,"Duration":449438,"SoundDuration":449438,"Delta":20288338},{"NoteNumber":33,"Velocity":36,"Duration":508475,"SoundDuration":508475,"Delta":20737776},{"NoteNumber":76,"Velocity":45,"Duration":430108,"SoundDuration":430108,"Delta":21246251},{"NoteNumber":77,"Velocity":46,"Duration":312500,"SoundDuration":312500,"Delta":21676359},{"NoteNumber":76,"Velocity":45,"Duration":104166,"SoundDuration":104166,"Delta":21988859},{"NoteNumber":74,"Velocity":45,"Duration":427819,"SoundDuration":427819,"Delta":22093026},{"NoteNumber":65,"Velocity":27,"Duration":427819,"SoundDuration":427819,"Delta":22093026},{"NoteNumber":62,"Velocity":22,"Duration":427819,"SoundDuration":427819,"Delta":22093026},{"NoteNumber":57,"Velocity":22,"Duration":427819,"SoundDuration":427819,"Delta":22093026},{"NoteNumber":77,"Velocity":48,"Duration":526910,"SoundDuration":526910,"Delta":22520846},{"NoteNumber":65,"Velocity":27,"Duration":526910,"SoundDuration":526910,"Delta":22520846},{"NoteNumber":62,"Velocity":22,"Duration":526910,"SoundDuration":526910,"Delta":22520846},{"NoteNumber":57,"Velocity":22,"Duration":526910,"SoundDuration":526910,"Delta":22520846},{"NoteNumber":77,"Velocity":47,"Duration":848033,"SoundDuration":848033,"Delta":23047757},{"NoteNumber":65,"Velocity":25,"Duration":426353,"SoundDuration":426353,"Delta":23469437},{"NoteNumber":60,"Velocity":21,"Duration":426353,"SoundDuration":426353,"Delta":23469437},{"NoteNumber":57,"Velocity":21,"Duration":426353,"SoundDuration":426353,"Delta":23469437},{"NoteNumber":76,"Velocity":43,"Duration":431654,"SoundDuration":431654,"Delta":23895790},{"NoteNumber":64,"Velocity":25,"Duration":431654,"SoundDuration":431654,"Delta":23895790},{"NoteNumber":60,"Velocity":21,"Duration":431654,"SoundDuration":431654,"Delta":23895790},{"NoteNumber":57,"Velocity":21,"Duration":431654,"SoundDuration":431654,"Delta":23895790},{"NoteNumber":74,"Velocity":42,"Duration":70422,"SoundDuration":70422,"Delta":24327445},{"NoteNumber":76,"Velocity":43,"Duration":70422,"SoundDuration":70422,"Delta":24397868},{"NoteNumber":74,"Velocity":44,"Duration":70422,"SoundDuration":70422,"Delta":24468290},{"NoteNumber":73,"Velocity":45,"Duration":211267,"SoundDuration":211267,"Delta":24538713},{"NoteNumber":74,"Velocity":47,"Duration":215827,"SoundDuration":215827,"Delta":24749980},{"NoteNumber":62,"Velocity":28,"Duration":431654,"SoundDuration":431654,"Delta":24749980},{"NoteNumber":52,"Velocity":23,"Duration":431654,"SoundDuration":431654,"Delta":24749980},{"NoteNumber":56,"Velocity":23,"Duration":431654,"SoundDuration":431654,"Delta":24749980},{"NoteNumber":75,"Velocity":45,"Duration":215827,"SoundDuration":215827,"Delta":24965808},{"NoteNumber":76,"Velocity":53,"Duration":221402,"SoundDuration":221402,"Delta":25181635},{"NoteNumber":62,"Velocity":25,"Duration":463337,"SoundDuration":463337,"Delta":25181635},{"NoteNumber":56,"Velocity":21,"Duration":463337,"SoundDuration":463337,"Delta":25181635},{"NoteNumber":52,"Velocity":21,"Duration":463337,"SoundDuration":463337,"Delta":25181635},{"NoteNumber":71,"Velocity":48,"Duration":241935,"SoundDuration":241935,"Delta":25403037},{"NoteNumber":74,"Velocity":58,"Duration":863309,"SoundDuration":863309,"Delta":25644973},{"NoteNumber":45,"Velocity":30,"Duration":431654,"SoundDuration":431654,"Delta":26076628},{"NoteNumber":72,"Velocity":45,"Duration":431655,"SoundDuration":431655,"Delta":26508283},{"NoteNumber":60,"Velocity":28,"Duration":431655,"SoundDuration":431655,"Delta":26508283},{"NoteNumber":52,"Velocity":22,"Duration":431655,"SoundDuration":431655,"Delta":26508283},{"NoteNumber":69,"Velocity":62,"Duration":138408,"SoundDuration":138408,"Delta":26939938},{"NoteNumber":71,"Velocity":57,"Duration":138408,"SoundDuration":138408,"Delta":27078346},{"NoteNumber":69,"Velocity":57,"Duration":138408,"SoundDuration":138408,"Delta":27216755},{"NoteNumber":68,"Velocity":63,"Duration":207612,"SoundDuration":207612,"Delta":27355163},{"NoteNumber":52,"Velocity":39,"Duration":207612,"SoundDuration":207612,"Delta":27355163},{"NoteNumber":60,"Velocity":46,"Duration":207612,"SoundDuration":207612,"Delta":27355163},{"NoteNumber":69,"Velocity":67,"Duration":207612,"SoundDuration":207612,"Delta":27770388},{"NoteNumber":45,"Velocity":48,"Duration":207612,"SoundDuration":207612,"Delta":27770388},{"NoteNumber":71,"Velocity":70,"Duration":215053,"SoundDuration":215053,"Delta":28185613},{"NoteNumber":76,"Velocity":72,"Duration":845112,"SoundDuration":845112,"Delta":28615721},{"NoteNumber":52,"Velocity":41,"Duration":419579,"SoundDuration":419579,"Delta":28615721},{"NoteNumber":59,"Velocity":49,"Duration":419579,"SoundDuration":419579,"Delta":28615721},{"NoteNumber":55,"Velocity":41,"Duration":419579,"SoundDuration":419579,"Delta":28615721},{"NoteNumber":47,"Velocity":56,"Duration":425532,"SoundDuration":425532,"Delta":29035301},{"NoteNumber":71,"Velocity":76,"Duration":209058,"SoundDuration":209058,"Delta":29460833},{"NoteNumber":67,"Velocity":73,"Duration":209058,"SoundDuration":209058,"Delta":29669892},{"NoteNumber":64,"Velocity":76,"Duration":209058,"SoundDuration":209058,"Delta":29878951},{"NoteNumber":47,"Velocity":45,"Duration":418117,"SoundDuration":418117,"Delta":29878951},{"NoteNumber":55,"Velocity":45,"Duration":418117,"SoundDuration":418117,"Delta":29878951},{"NoteNumber":59,"Velocity":54,"Duration":418117,"SoundDuration":418117,"Delta":29878951},{"NoteNumber":71,"Velocity":71,"Duration":209058,"SoundDuration":209058,"Delta":30088010},{"NoteNumber":63,"Velocity":73,"Duration":433212,"SoundDuration":433212,"Delta":30297069},{"NoteNumber":47,"Velocity":41,"Duration":433212,"SoundDuration":433212,"Delta":30297069},{"NoteNumber":54,"Velocity":41,"Duration":433212,"SoundDuration":433212,"Delta":30297069},{"NoteNumber":59,"Velocity":49,"Duration":433212,"SoundDuration":433212,"Delta":30297069},{"NoteNumber":64,"Velocity":76,"Duration":924210,"SoundDuration":924210,"Delta":30730282},{"NoteNumber":52,"Velocity":45,"Duration":433213,"SoundDuration":433213,"Delta":30730282},{"NoteNumber":55,"Velocity":45,"Duration":433213,"SoundDuration":433213,"Delta":30730282},{"NoteNumber":59,"Velocity":54,"Duration":433213,"SoundDuration":433213,"Delta":30730282},{"NoteNumber":40,"Velocity":50,"Duration":490997,"SoundDuration":490997,"Delta":31163495},{"NoteNumber":76,"Velocity":45,"Duration":430107,"SoundDuration":430107,"Delta":31654493},{"NoteNumber":77,"Velocity":46,"Duration":312500,"SoundDuration":312500,"Delta":32084601},{"NoteNumber":76,"Velocity":45,"Duration":104166,"SoundDuration":104166,"Delta":32397101},{"NoteNumber":74,"Velocity":45,"Duration":427820,"SoundDuration":427820,"Delta":32501268},{"NoteNumber":65,"Velocity":27,"Duration":427820,"SoundDuration":427820,"Delta":32501268},{"NoteNumber":62,"Velocity":22,"Duration":427820,"SoundDuration":427820,"Delta":32501268},{"NoteNumber":57,"Velocity":22,"Duration":427820,"SoundDuration":427820,"Delta":32501268},{"NoteNumber":77,"Velocity":48,"Duration":463875,"SoundDuration":463875,"Delta":32929088},{"NoteNumber":65,"Velocity":27,"Duration":463875,"SoundDuration":463875,"Delta":32929088},{"NoteNumber":62,"Velocity":22,"Duration":463875,"SoundDuration":463875,"Delta":32929088},{"NoteNumber":57,"Velocity":22,"Duration":463875,"SoundDuration":463875,"Delta":32929088},{"NoteNumber":77,"Velocity":47,"Duration":848033,"SoundDuration":848033,"Delta":33392964},{"NoteNumber":65,"Velocity":25,"Duration":426354,"SoundDuration":426354,"Delta":33814643},{"NoteNumber":60,"Velocity":21,"Duration":426354,"SoundDuration":426354,"Delta":33814643},{"NoteNumber":57,"Velocity":21,"Duration":426354,"SoundDuration":426354,"Delta":33814643},{"NoteNumber":76,"Velocity":43,"Duration":431654,"SoundDuration":431654,"Delta":34240998},{"NoteNumber":64,"Velocity":25,"Duration":431654,"SoundDuration":431654,"Delta":34240998},{"NoteNumber":60,"Velocity":21,"Duration":431654,"SoundDuration":431654,"Delta":34240998},{"NoteNumber":57,"Velocity":21,"Duration":431654,"SoundDuration":431654,"Delta":34240998},{"NoteNumber":74,"Velocity":42,"Duration":70422,"SoundDuration":70422,"Delta":34672653},{"NoteNumber":76,"Velocity":43,"Duration":70422,"SoundDuration":70422,"Delta":34743075},{"NoteNumber":74,"Velocity":44,"Duration":70422,"SoundDuration":70422,"Delta":34813498},{"NoteNumber":73,"Velocity":45,"Duration":211267,"SoundDuration":211267,"Delta":34883920},{"NoteNumber":74,"Velocity":47,"Duration":215827,"SoundDuration":215827,"Delta":35095188},{"NoteNumber":62,"Velocity":28,"Duration":431654,"SoundDuration":431654,"Delta":35095188},{"NoteNumber":52,"Velocity":23,"Duration":431654,"SoundDuration":431654,"Delta":35095188},{"NoteNumber":56,"Velocity":23,"Duration":431654,"SoundDuration":431654,"Delta":35095188},{"NoteNumber":75,"Velocity":45,"Duration":215827,"SoundDuration":215827,"Delta":35311015},{"NoteNumber":76,"Velocity":47,"Duration":224719,"SoundDuration":224719,"Delta":35526843},{"NoteNumber":62,"Velocity":25,"Duration":501216,"SoundDuration":501216,"Delta":35526843},{"NoteNumber":56,"Velocity":21,"Duration":501216,"SoundDuration":501216,"Delta":35526843},{"NoteNumber":52,"Velocity":21,"Duration":501216,"SoundDuration":501216,"Delta":35526843},{"NoteNumber":71,"Velocity":42,"Duration":131336,"SoundDuration":131336,"Delta":35751562},{"NoteNumber":71,"Velocity":42,"Duration":138248,"SoundDuration":138248,"Delta":35889810},{"NoteNumber":74,"Velocity":46,"Duration":854190,"SoundDuration":854190,"Delta":36028059},{"NoteNumber":53,"Velocity":21,"Duration":431654,"SoundDuration":431654,"Delta":36450594},{"NoteNumber":57,"Velocity":21,"Duration":431654,"SoundDuration":431654,"Delta":36450594},{"NoteNumber":62,"Velocity":28,"Duration":431654,"SoundDuration":431654,"Delta":36450594},{"NoteNumber":72,"Velocity":45,"Duration":431654,"SoundDuration":431654,"Delta":36882249},{"NoteNumber":57,"Velocity":21,"Duration":431654,"SoundDuration":431654,"Delta":36882249},{"NoteNumber":60,"Velocity":26,"Duration":431654,"SoundDuration":431654,"Delta":36882249},{"NoteNumber":53,"Velocity":21,"Duration":431654,"SoundDuration":431654,"Delta":36882249},{"NoteNumber":69,"Velocity":46,"Duration":138408,"SoundDuration":138408,"Delta":37313904},{"NoteNumber":70,"Velocity":43,"Duration":138408,"SoundDuration":138408,"Delta":37452312},{"NoteNumber":69,"Velocity":43,"Duration":138408,"SoundDuration":138408,"Delta":37590721},{"NoteNumber":67,"Velocity":47,"Duration":452829,"SoundDuration":452829,"Delta":37729129},{"NoteNumber":60,"Velocity":29,"Duration":452829,"SoundDuration":452829,"Delta":37729129},{"NoteNumber":53,"Velocity":29,"Duration":452829,"SoundDuration":452829,"Delta":37729129},{"NoteNumber":63,"Velocity":34,"Duration":452829,"SoundDuration":452829,"Delta":37729129},{"NoteNumber":69,"Velocity":54,"Duration":476190,"SoundDuration":476190,"Delta":38181959},{"NoteNumber":53,"Velocity":29,"Duration":476190,"SoundDuration":476190,"Delta":38181959},{"NoteNumber":60,"Velocity":29,"Duration":476190,"SoundDuration":476190,"Delta":38181959},{"NoteNumber":63,"Velocity":34,"Duration":476190,"SoundDuration":476190,"Delta":38181959},{"NoteNumber":70,"Velocity":62,"Duration":517240,"SoundDuration":517240,"Delta":38658149},{"NoteNumber":58,"Velocity":34,"Duration":999169,"SoundDuration":999169,"Delta":38658149},{"NoteNumber":62,"Velocity":37,"Duration":517240,"SoundDuration":517240,"Delta":38658149},{"NoteNumber":74,"Velocity":59,"Duration":481928,"SoundDuration":481928,"Delta":39175390},{"NoteNumber":65,"Velocity":37,"Duration":481928,"SoundDuration":481928,"Delta":39175390},{"NoteNumber":69,"Velocity":48,"Duration":320284,"SoundDuration":320284,"Delta":40193032},{"NoteNumber":68,"Velocity":44,"Duration":106761,"SoundDuration":106761,"Delta":40513317},{"NoteNumber":62,"Velocity":40,"Duration":444443,"SoundDuration":444443,"Delta":40620078},{"NoteNumber":64,"Velocity":48,"Duration":444443,"SoundDuration":444443,"Delta":40620078},{"NoteNumber":52,"Velocity":29,"Duration":444443,"SoundDuration":444443,"Delta":40620078},{"NoteNumber":59,"Velocity":35,"Duration":444443,"SoundDuration":444443,"Delta":40620078},{"NoteNumber":68,"Velocity":45,"Duration":449438,"SoundDuration":449438,"Delta":41064522},{"NoteNumber":62,"Velocity":38,"Duration":449438,"SoundDuration":449438,"Delta":41064522},{"NoteNumber":52,"Velocity":26,"Duration":449438,"SoundDuration":449438,"Delta":41064522},{"NoteNumber":59,"Velocity":31,"Duration":449438,"SoundDuration":449438,"Delta":41064522},{"NoteNumber":60,"Velocity":39,"Duration":449438,"SoundDuration":449438,"Delta":41513960},{"NoteNumber":69,"Velocity":46,"Duration":1010185,"SoundDuration":1010185,"Delta":41513960},{"NoteNumber":45,"Velocity":29,"Duration":449438,"SoundDuration":449438,"Delta":41513960},{"NoteNumber":52,"Velocity":35,"Duration":449438,"SoundDuration":449438,"Delta":41513960},{"NoteNumber":33,"Velocity":30,"Duration":560747,"SoundDuration":560747,"Delta":41963398},{"NoteNumber":71,"Velocity":51,"Duration":444443,"SoundDuration":444443,"Delta":42524146},{"NoteNumber":72,"Velocity":52,"Duration":219780,"SoundDuration":219780,"Delta":42968590},{"NoteNumber":74,"Velocity":53,"Duration":219780,"SoundDuration":219780,"Delta":43188370},{"NoteNumber":75,"Velocity":55,"Duration":428113,"SoundDuration":428113,"Delta":43408150},{"NoteNumber":66,"Velocity":32,"Duration":432546,"SoundDuration":432546,"Delta":43408150},{"NoteNumber":60,"Velocity":27,"Duration":432546,"SoundDuration":432546,"Delta":43408150},{"NoteNumber":56,"Velocity":27,"Duration":432546,"SoundDuration":432546,"Delta":43408150},{"NoteNumber":75,"Velocity":60,"Duration":334012,"SoundDuration":334012,"Delta":43840696},{"NoteNumber":66,"Velocity":32,"Duration":449841,"SoundDuration":449841,"Delta":43840696},{"NoteNumber":60,"Velocity":27,"Duration":449841,"SoundDuration":449841,"Delta":43840696},{"NoteNumber":56,"Velocity":27,"Duration":449841,"SoundDuration":449841,"Delta":43840696},{"NoteNumber":77,"Velocity":55,"Duration":115829,"SoundDuration":115829,"Delta":44174708},{"NoteNumber":75,"Velocity":62,"Duration":852732,"SoundDuration":852732,"Delta":44290538},{"NoteNumber":66,"Velocity":33,"Duration":424161,"SoundDuration":424161,"Delta":44719109},{"NoteNumber":60,"Velocity":27,"Duration":424161,"SoundDuration":424161,"Delta":44719109},{"NoteNumber":55,"Velocity":27,"Duration":424161,"SoundDuration":424161,"Delta":44719109},{"NoteNumber":74,"Velocity":54,"Duration":431654,"SoundDuration":431654,"Delta":45143270},{"NoteNumber":67,"Velocity":33,"Duration":431654,"SoundDuration":431654,"Delta":45143270},{"NoteNumber":59,"Velocity":27,"Duration":431654,"SoundDuration":431654,"Delta":45143270},{"NoteNumber":55,"Velocity":27,"Duration":431654,"SoundDuration":431654,"Delta":45143270},{"NoteNumber":72,"Velocity":52,"Duration":219780,"SoundDuration":219780,"Delta":45574925},{"NoteNumber":74,"Velocity":54,"Duration":219780,"SoundDuration":219780,"Delta":45794705},{"NoteNumber":75,"Velocity":57,"Duration":428999,"SoundDuration":428999,"Delta":46014485},{"NoteNumber":66,"Velocity":36,"Duration":432546,"SoundDuration":432546,"Delta":46014485},{"NoteNumber":60,"Velocity":30,"Duration":432546,"SoundDuration":432546,"Delta":46014485},{"NoteNumber":56,"Velocity":30,"Duration":432546,"SoundDuration":432546,"Delta":46014485},{"NoteNumber":75,"Velocity":66,"Duration":334012,"SoundDuration":334012,"Delta":46447031},{"NoteNumber":66,"Velocity":38,"Duration":449841,"SoundDuration":449841,"Delta":46447031},{"NoteNumber":60,"Velocity":31,"Duration":449841,"SoundDuration":449841,"Delta":46447031},{"NoteNumber":56,"Velocity":31,"Duration":449841,"SoundDuration":449841,"Delta":46447031},{"NoteNumber":77,"Velocity":62,"Duration":115829,"SoundDuration":115829,"Delta":46781043},{"NoteNumber":75,"Velocity":76,"Duration":855816,"SoundDuration":855816,"Delta":46896873},{"NoteNumber":65,"Velocity":48,"Duration":424161,"SoundDuration":424161,"Delta":47328528},{"NoteNumber":59,"Velocity":40,"Duration":424161,"SoundDuration":424161,"Delta":47328528},{"NoteNumber":56,"Velocity":40,"Duration":424161,"SoundDuration":424161,"Delta":47328528},{"NoteNumber":74,"Velocity":67,"Duration":439560,"SoundDuration":439560,"Delta":47752689},{"NoteNumber":65,"Velocity":48,"Duration":439560,"SoundDuration":439560,"Delta":47752689},{"NoteNumber":58,"Velocity":40,"Duration":439560,"SoundDuration":439560,"Delta":47752689},{"NoteNumber":56,"Velocity":40,"Duration":439560,"SoundDuration":439560,"Delta":47752689},{"NoteNumber":82,"Velocity":86,"Duration":836210,"SoundDuration":836210,"Delta":48192249},{"NoteNumber":65,"Velocity":59,"Duration":416630,"SoundDuration":416630,"Delta":48611829},{"NoteNumber":58,"Velocity":48,"Duration":416630,"SoundDuration":416630,"Delta":48611829},{"NoteNumber":55,"Velocity":48,"Duration":416630,"SoundDuration":416630,"Delta":48611829},{"NoteNumber":73,"Velocity":66,"Duration":436363,"SoundDuration":436363,"Delta":49028460},{"NoteNumber":64,"Velocity":55,"Duration":436363,"SoundDuration":436363,"Delta":49028460},{"NoteNumber":58,"Velocity":46,"Duration":436363,"SoundDuration":436363,"Delta":49028460},{"NoteNumber":55,"Velocity":46,"Duration":436363,"SoundDuration":436363,"Delta":49028460},{"NoteNumber":81,"Velocity":76,"Duration":842444,"SoundDuration":842444,"Delta":49464824},{"NoteNumber":64,"Velocity":54,"Duration":419909,"SoundDuration":419909,"Delta":49887359},{"NoteNumber":57,"Velocity":42,"Duration":419909,"SoundDuration":419909,"Delta":49887359},{"NoteNumber":55,"Velocity":42,"Duration":419909,"SoundDuration":419909,"Delta":49887359},{"NoteNumber":72,"Velocity":62,"Duration":437955,"SoundDuration":437955,"Delta":50307268},{"NoteNumber":63,"Velocity":48,"Duration":437955,"SoundDuration":437955,"Delta":50307268},{"NoteNumber":57,"Velocity":40,"Duration":437955,"SoundDuration":437955,"Delta":50307268},{"NoteNumber":54,"Velocity":40,"Duration":437955,"SoundDuration":437955,"Delta":50307268},{"NoteNumber":80,"Velocity":76,"Duration":846183,"SoundDuration":846183,"Delta":50745224},{"NoteNumber":63,"Velocity":44,"Duration":422155,"SoundDuration":422155,"Delta":51169252},{"NoteNumber":56,"Velocity":35,"Duration":422155,"SoundDuration":422155,"Delta":51169252},{"NoteNumber":53,"Velocity":35,"Duration":422155,"SoundDuration":422155,"Delta":51169252},{"NoteNumber":71,"Velocity":56,"Duration":436363,"SoundDuration":436363,"Delta":51591407},{"NoteNumber":62,"Velocity":39,"Duration":436363,"SoundDuration":436363,"Delta":51591407},{"NoteNumber":56,"Velocity":32,"Duration":436363,"SoundDuration":436363,"Delta":51591407},{"NoteNumber":53,"Velocity":32,"Duration":436363,"SoundDuration":436363,"Delta":51591407},{"NoteNumber":79,"Velocity":67,"Duration":651542,"SoundDuration":651542,"Delta":52027771},{"NoteNumber":62,"Velocity":36,"Duration":438049,"SoundDuration":438049,"Delta":52463485},{"NoteNumber":55,"Velocity":29,"Duration":438049,"SoundDuration":438049,"Delta":52463485},{"NoteNumber":52,"Velocity":29,"Duration":438049,"SoundDuration":438049,"Delta":52463485},{"NoteNumber":70,"Velocity":54,"Duration":222222,"SoundDuration":222222,"Delta":52679313},{"NoteNumber":69,"Velocity":45,"Duration":227272,"SoundDuration":227272,"Delta":52901535},{"NoteNumber":61,"Velocity":28,"Duration":456279,"SoundDuration":456279,"Delta":52901535},{"NoteNumber":55,"Velocity":22,"Duration":456279,"SoundDuration":456279,"Delta":52901535},{"NoteNumber":52,"Velocity":22,"Duration":456279,"SoundDuration":456279,"Delta":52901535},{"NoteNumber":76,"Velocity":45,"Duration":229007,"SoundDuration":229007,"Delta":53128807},{"NoteNumber":77,"Velocity":46,"Duration":213523,"SoundDuration":213523,"Delta":53357815},{"NoteNumber":50,"Velocity":22,"Duration":427045,"SoundDuration":427045,"Delta":53357815},{"NoteNumber":53,"Velocity":22,"Duration":427045,"SoundDuration":427045,"Delta":53357815},{"NoteNumber":62,"Velocity":28,"Duration":427045,"SoundDuration":427045,"Delta":53357815},{"NoteNumber":76,"Velocity":45,"Duration":213522,"SoundDuration":213522,"Delta":53571338},{"NoteNumber":74,"Velocity":45,"Duration":431744,"SoundDuration":431744,"Delta":53784861},{"NoteNumber":65,"Velocity":27,"Duration":431744,"SoundDuration":431744,"Delta":53784861},{"NoteNumber":62,"Velocity":22,"Duration":431744,"SoundDuration":431744,"Delta":53784861},{"NoteNumber":57,"Velocity":22,"Duration":431744,"SoundDuration":431744,"Delta":53784861},{"NoteNumber":77,"Velocity":48,"Duration":503607,"SoundDuration":503607,"Delta":54216605},{"NoteNumber":65,"Velocity":27,"Duration":503607,"SoundDuration":503607,"Delta":54216605},{"NoteNumber":62,"Velocity":22,"Duration":503607,"SoundDuration":503607,"Delta":54216605},{"NoteNumber":57,"Velocity":22,"Duration":503607,"SoundDuration":503607,"Delta":54216605},{"NoteNumber":77,"Velocity":47,"Duration":848033,"SoundDuration":848033,"Delta":54720213},{"NoteNumber":65,"Velocity":25,"Duration":426354,"SoundDuration":426354,"Delta":55141892},{"NoteNumber":60,"Velocity":21,"Duration":426354,"SoundDuration":426354,"Delta":55141892},{"NoteNumber":57,"Velocity":21,"Duration":426354,"SoundDuration":426354,"Delta":55141892},{"NoteNumber":76,"Velocity":43,"Duration":431654,"SoundDuration":431654,"Delta":55568246},{"NoteNumber":64,"Velocity":25,"Duration":431654,"SoundDuration":431654,"Delta":55568246},{"NoteNumber":60,"Velocity":21,"Duration":431654,"SoundDuration":431654,"Delta":55568246},{"NoteNumber":57,"Velocity":21,"Duration":431654,"SoundDuration":431654,"Delta":55568246},{"NoteNumber":74,"Velocity":42,"Duration":70422,"SoundDuration":70422,"Delta":55999901},{"NoteNumber":76,"Velocity":43,"Duration":70422,"SoundDuration":70422,"Delta":56070324},{"NoteNumber":74,"Velocity":44,"Duration":70422,"SoundDuration":70422,"Delta":56140746},{"NoteNumber":73,"Velocity":45,"Duration":211267,"SoundDuration":211267,"Delta":56211169},{"NoteNumber":74,"Velocity":47,"Duration":215827,"SoundDuration":215827,"Delta":56422436},{"NoteNumber":62,"Velocity":28,"Duration":431654,"SoundDuration":431654,"Delta":56422436},{"NoteNumber":52,"Velocity":23,"Duration":431654,"SoundDuration":431654,"Delta":56422436},{"NoteNumber":56,"Velocity":23,"Duration":431654,"SoundDuration":431654,"Delta":56422436},{"NoteNumber":75,"Velocity":45,"Duration":215827,"SoundDuration":215827,"Delta":56638264},{"NoteNumber":76,"Velocity":49,"Duration":224719,"SoundDuration":224719,"Delta":56854091},{"NoteNumber":62,"Velocity":25,"Duration":475765,"SoundDuration":475765,"Delta":56854091},{"NoteNumber":56,"Velocity":21,"Duration":475765,"SoundDuration":475765,"Delta":56854091},{"NoteNumber":52,"Velocity":21,"Duration":475765,"SoundDuration":475765,"Delta":56854091},{"NoteNumber":71,"Velocity":46,"Duration":251046,"SoundDuration":251046,"Delta":57078810},{"NoteNumber":74,"Velocity":55,"Duration":854190,"SoundDuration":854190,"Delta":57329856},{"NoteNumber":53,"Velocity":21,"Duration":431654,"SoundDuration":431654,"Delta":57752391},{"NoteNumber":57,"Velocity":21,"Duration":431654,"SoundDuration":431654,"Delta":57752391},{"NoteNumber":62,"Velocity":28,"Duration":431654,"SoundDuration":431654,"Delta":57752391},{"NoteNumber":72,"Velocity":45,"Duration":431654,"SoundDuration":431654,"Delta":58184046},{"NoteNumber":57,"Velocity":21,"Duration":431654,"SoundDuration":431654,"Delta":58184046},{"NoteNumber":60,"Velocity":26,"Duration":431654,"SoundDuration":431654,"Delta":58184046},{"NoteNumber":53,"Velocity":21,"Duration":431654,"SoundDuration":431654,"Delta":58184046},{"NoteNumber":69,"Velocity":46,"Duration":138408,"SoundDuration":138408,"Delta":58615701},{"NoteNumber":70,"Velocity":43,"Duration":138408,"SoundDuration":138408,"Delta":58754109},{"NoteNumber":69,"Velocity":43,"Duration":138408,"SoundDuration":138408,"Delta":58892518},{"NoteNumber":67,"Velocity":47,"Duration":454689,"SoundDuration":454689,"Delta":59030926},{"NoteNumber":60,"Velocity":29,"Duration":454689,"SoundDuration":454689,"Delta":59030926},{"NoteNumber":53,"Velocity":29,"Duration":454689,"SoundDuration":454689,"Delta":59030926},{"NoteNumber":63,"Velocity":34,"Duration":454689,"SoundDuration":454689,"Delta":59030926},{"NoteNumber":69,"Velocity":51,"Duration":481928,"SoundDuration":481928,"Delta":59485615},{"NoteNumber":53,"Velocity":29,"Duration":481928,"SoundDuration":481928,"Delta":59485615},{"NoteNumber":60,"Velocity":29,"Duration":481928,"SoundDuration":481928,"Delta":59485615},{"NoteNumber":63,"Velocity":34,"Duration":481928,"SoundDuration":481928,"Delta":59485615},{"NoteNumber":70,"Velocity":53,"Duration":528633,"SoundDuration":528633,"Delta":59967543},{"NoteNumber":58,"Velocity":34,"Duration":1010562,"SoundDuration":1010562,"Delta":59967543},{"NoteNumber":62,"Velocity":37,"Duration":528633,"SoundDuration":528633,"Delta":59967543},{"NoteNumber":74,"Velocity":54,"Duration":481928,"SoundDuration":481928,"Delta":60496177},{"NoteNumber":65,"Velocity":37,"Duration":481928,"SoundDuration":481928,"Delta":60496177},{"NoteNumber":69,"Velocity":48,"Duration":320284,"SoundDuration":320284,"Delta":61513819},{"NoteNumber":68,"Velocity":44,"Duration":106761,"SoundDuration":106761,"Delta":61834104},{"NoteNumber":62,"Velocity":40,"Duration":444443,"SoundDuration":444443,"Delta":61940865},{"NoteNumber":64,"Velocity":48,"Duration":444443,"SoundDuration":444443,"Delta":61940865},{"NoteNumber":52,"Velocity":29,"Duration":444443,"SoundDuration":444443,"Delta":61940865},{"NoteNumber":59,"Velocity":35,"Duration":444443,"SoundDuration":444443,"Delta":61940865},{"NoteNumber":68,"Velocity":45,"Duration":449438,"SoundDuration":449438,"Delta":62385309},{"NoteNumber":62,"Velocity":38,"Duration":449438,"SoundDuration":449438,"Delta":62385309},{"NoteNumber":52,"Velocity":26,"Duration":449438,"SoundDuration":449438,"Delta":62385309},{"NoteNumber":59,"Velocity":31,"Duration":449438,"SoundDuration":449438,"Delta":62385309},{"NoteNumber":60,"Velocity":39,"Duration":449438,"SoundDuration":449438,"Delta":62834747},{"NoteNumber":69,"Velocity":46,"Duration":1023052,"SoundDuration":1023052,"Delta":62834747},{"NoteNumber":45,"Velocity":29,"Duration":449438,"SoundDuration":449438,"Delta":62834747},{"NoteNumber":52,"Velocity":35,"Duration":449438,"SoundDuration":449438,"Delta":62834747},{"NoteNumber":33,"Velocity":30,"Duration":573614,"SoundDuration":573614,"Delta":63284185},{"NoteNumber":71,"Velocity":51,"Duration":444444,"SoundDuration":444444,"Delta":63857799},{"NoteNumber":72,"Velocity":52,"Duration":219780,"SoundDuration":219780,"Delta":64302243},{"NoteNumber":74,"Velocity":53,"Duration":219780,"SoundDuration":219780,"Delta":64522023},{"NoteNumber":75,"Velocity":55,"Duration":428999,"SoundDuration":428999,"Delta":64741803},{"NoteNumber":66,"Velocity":32,"Duration":432546,"SoundDuration":432546,"Delta":64741803},{"NoteNumber":60,"Velocity":27,"Duration":432546,"SoundDuration":432546,"Delta":64741803},{"NoteNumber":56,"Velocity":27,"Duration":432546,"SoundDuration":432546,"Delta":64741803},{"NoteNumber":75,"Velocity":60,"Duration":334012,"SoundDuration":334012,"Delta":65174349},{"NoteNumber":66,"Velocity":32,"Duration":449842,"SoundDuration":449842,"Delta":65174349},{"NoteNumber":60,"Velocity":27,"Duration":449842,"SoundDuration":449842,"Delta":65174349},{"NoteNumber":56,"Velocity":27,"Duration":449842,"SoundDuration":449842,"Delta":65174349},{"NoteNumber":77,"Velocity":55,"Duration":115830,"SoundDuration":115830,"Delta":65508361},{"NoteNumber":75,"Velocity":62,"Duration":852732,"SoundDuration":852732,"Delta":65624191},{"NoteNumber":66,"Velocity":33,"Duration":424160,"SoundDuration":424160,"Delta":66052762},{"NoteNumber":60,"Velocity":27,"Duration":424160,"SoundDuration":424160,"Delta":66052762},{"NoteNumber":55,"Velocity":27,"Duration":424160,"SoundDuration":424160,"Delta":66052762},{"NoteNumber":74,"Velocity":54,"Duration":431654,"SoundDuration":431654,"Delta":66476923},{"NoteNumber":67,"Velocity":33,"Duration":431654,"SoundDuration":431654,"Delta":66476923},{"NoteNumber":59,"Velocity":27,"Duration":431654,"SoundDuration":431654,"Delta":66476923},{"NoteNumber":55,"Velocity":27,"Duration":431654,"SoundDuration":431654,"Delta":66476923},{"NoteNumber":72,"Velocity":52,"Duration":219780,"SoundDuration":219780,"Delta":66908578},{"NoteNumber":74,"Velocity":54,"Duration":219780,"SoundDuration":219780,"Delta":67128358},{"NoteNumber":75,"Velocity":57,"Duration":428999,"SoundDuration":428999,"Delta":67348138},{"NoteNumber":66,"Velocity":36,"Duration":432546,"SoundDuration":432546,"Delta":67348138},{"NoteNumber":60,"Velocity":30,"Duration":432546,"SoundDuration":432546,"Delta":67348138},{"NoteNumber":56,"Velocity":30,"Duration":432546,"SoundDuration":432546,"Delta":67348138},{"NoteNumber":75,"Velocity":66,"Duration":334012,"SoundDuration":334012,"Delta":67780684},{"NoteNumber":66,"Velocity":38,"Duration":449842,"SoundDuration":449842,"Delta":67780684},{"NoteNumber":60,"Velocity":31,"Duration":449842,"SoundDuration":449842,"Delta":67780684},{"NoteNumber":56,"Velocity":31,"Duration":449842,"SoundDuration":449842,"Delta":67780684},{"NoteNumber":77,"Velocity":62,"Duration":115830,"SoundDuration":115830,"Delta":68114696},{"NoteNumber":75,"Velocity":76,"Duration":855816,"SoundDuration":855816,"Delta":68230526},{"NoteNumber":65,"Velocity":48,"Duration":424160,"SoundDuration":424160,"Delta":68662181},{"NoteNumber":59,"Velocity":40,"Duration":424160,"SoundDuration":424160,"Delta":68662181},{"NoteNumber":56,"Velocity":40,"Duration":424160,"SoundDuration":424160,"Delta":68662181},{"NoteNumber":74,"Velocity":62,"Duration":436363,"SoundDuration":436363,"Delta":69086342},{"NoteNumber":65,"Velocity":48,"Duration":436363,"SoundDuration":436363,"Delta":69086342},{"NoteNumber":58,"Velocity":40,"Duration":436363,"SoundDuration":436363,"Delta":69086342},{"NoteNumber":56,"Velocity":40,"Duration":436363,"SoundDuration":436363,"Delta":69086342},{"NoteNumber":82,"Velocity":81,"Duration":833679,"SoundDuration":833679,"Delta":69522706},{"NoteNumber":65,"Velocity":59,"Duration":415560,"SoundDuration":415560,"Delta":69940824},{"NoteNumber":58,"Velocity":48,"Duration":415560,"SoundDuration":415560,"Delta":69940824},{"NoteNumber":55,"Velocity":48,"Duration":415560,"SoundDuration":415560,"Delta":69940824},{"NoteNumber":73,"Velocity":62,"Duration":436363,"SoundDuration":436363,"Delta":70356385},{"NoteNumber":64,"Velocity":55,"Duration":436363,"SoundDuration":436363,"Delta":70356385},{"NoteNumber":58,"Velocity":46,"Duration":436363,"SoundDuration":436363,"Delta":70356385},{"NoteNumber":55,"Velocity":46,"Duration":436363,"SoundDuration":436363,"Delta":70356385},{"NoteNumber":81,"Velocity":76,"Duration":839165,"SoundDuration":839165,"Delta":70792749},{"NoteNumber":64,"Velocity":54,"Duration":416630,"SoundDuration":416630,"Delta":71215284},{"NoteNumber":57,"Velocity":42,"Duration":416630,"SoundDuration":416630,"Delta":71215284},{"NoteNumber":55,"Velocity":42,"Duration":416630,"SoundDuration":416630,"Delta":71215284},{"NoteNumber":72,"Velocity":55,"Duration":434782,"SoundDuration":434782,"Delta":71631915},{"NoteNumber":63,"Velocity":48,"Duration":434782,"SoundDuration":434782,"Delta":71631915},{"NoteNumber":57,"Velocity":40,"Duration":434782,"SoundDuration":434782,"Delta":71631915},{"NoteNumber":54,"Velocity":40,"Duration":434782,"SoundDuration":434782,"Delta":71631915},{"NoteNumber":80,"Velocity":71,"Duration":845441,"SoundDuration":845441,"Delta":72066698},{"NoteNumber":63,"Velocity":44,"Duration":419909,"SoundDuration":419909,"Delta":72492230},{"NoteNumber":56,"Velocity":35,"Duration":419909,"SoundDuration":419909,"Delta":72492230},{"NoteNumber":53,"Velocity":35,"Duration":419909,"SoundDuration":419909,"Delta":72492230},{"NoteNumber":71,"Velocity":42,"Duration":436363,"SoundDuration":436363,"Delta":72912139},{"NoteNumber":62,"Velocity":39,"Duration":436363,"SoundDuration":436363,"Delta":72912139},{"NoteNumber":56,"Velocity":32,"Duration":436363,"SoundDuration":436363,"Delta":72912139},{"NoteNumber":53,"Velocity":32,"Duration":436363,"SoundDuration":436363,"Delta":72912139},{"NoteNumber":79,"Velocity":56,"Duration":651186,"SoundDuration":651186,"Delta":73348503},{"NoteNumber":62,"Velocity":36,"Duration":436507,"SoundDuration":436507,"Delta":73785403},{"NoteNumber":55,"Velocity":29,"Duration":436507,"SoundDuration":436507,"Delta":73785403},{"NoteNumber":52,"Velocity":29,"Duration":436507,"SoundDuration":436507,"Delta":73785403},{"NoteNumber":70,"Velocity":47,"Duration":222222,"SoundDuration":222222,"Delta":73999689},{"NoteNumber":69,"Velocity":45,"Duration":229884,"SoundDuration":229884,"Delta":74221911},{"NoteNumber":61,"Velocity":28,"Duration":468929,"SoundDuration":468929,"Delta":74221911},{"NoteNumber":55,"Velocity":22,"Duration":468929,"SoundDuration":468929,"Delta":74221911},{"NoteNumber":52,"Velocity":22,"Duration":468929,"SoundDuration":468929,"Delta":74221911},{"NoteNumber":76,"Velocity":45,"Duration":239044,"SoundDuration":239044,"Delta":74451796},{"NoteNumber":77,"Velocity":46,"Duration":215053,"SoundDuration":215053,"Delta":74690840},{"NoteNumber":50,"Velocity":22,"Duration":430108,"SoundDuration":430108,"Delta":74690840},{"NoteNumber":53,"Velocity":22,"Duration":430108,"SoundDuration":430108,"Delta":74690840},{"NoteNumber":62,"Velocity":28,"Duration":430108,"SoundDuration":430108,"Delta":74690840},{"NoteNumber":76,"Velocity":45,"Duration":215054,"SoundDuration":215054,"Delta":74905894},{"NoteNumber":74,"Velocity":45,"Duration":427819,"SoundDuration":427819,"Delta":75120948},{"NoteNumber":65,"Velocity":27,"Duration":427819,"SoundDuration":427819,"Delta":75120948},{"NoteNumber":62,"Velocity":22,"Duration":427819,"SoundDuration":427819,"Delta":75120948},{"NoteNumber":57,"Velocity":22,"Duration":427819,"SoundDuration":427819,"Delta":75120948},{"NoteNumber":77,"Velocity":48,"Duration":505181,"SoundDuration":505181,"Delta":75548768},{"NoteNumber":65,"Velocity":27,"Duration":512520,"SoundDuration":512520,"Delta":75548768},{"NoteNumber":62,"Velocity":22,"Duration":512520,"SoundDuration":512520,"Delta":75548768},{"NoteNumber":57,"Velocity":22,"Duration":512520,"SoundDuration":512520,"Delta":75548768},{"NoteNumber":77,"Velocity":47,"Duration":848033,"SoundDuration":848033,"Delta":76061288},{"NoteNumber":65,"Velocity":25,"Duration":426354,"SoundDuration":426354,"Delta":76482967},{"NoteNumber":60,"Velocity":21,"Duration":426354,"SoundDuration":426354,"Delta":76482967},{"NoteNumber":57,"Velocity":21,"Duration":426354,"SoundDuration":426354,"Delta":76482967},{"NoteNumber":76,"Velocity":43,"Duration":431654,"SoundDuration":431654,"Delta":76909321},{"NoteNumber":64,"Velocity":25,"Duration":431654,"SoundDuration":431654,"Delta":76909321},{"NoteNumber":60,"Velocity":21,"Duration":431654,"SoundDuration":431654,"Delta":76909321},{"NoteNumber":57,"Velocity":21,"Duration":431654,"SoundDuration":431654,"Delta":76909321},{"NoteNumber":74,"Velocity":42,"Duration":70422,"SoundDuration":70422,"Delta":77340976},{"NoteNumber":76,"Velocity":43,"Duration":70422,"SoundDuration":70422,"Delta":77411399},{"NoteNumber":74,"Velocity":44,"Duration":70422,"SoundDuration":70422,"Delta":77481821},{"NoteNumber":73,"Velocity":45,"Duration":211267,"SoundDuration":211267,"Delta":77552244},{"NoteNumber":74,"Velocity":47,"Duration":215827,"SoundDuration":215827,"Delta":77763511},{"NoteNumber":62,"Velocity":28,"Duration":431655,"SoundDuration":431655,"Delta":77763511},{"NoteNumber":52,"Velocity":23,"Duration":431655,"SoundDuration":431655,"Delta":77763511},{"NoteNumber":56,"Velocity":23,"Duration":431655,"SoundDuration":431655,"Delta":77763511},{"NoteNumber":75,"Velocity":45,"Duration":215827,"SoundDuration":215827,"Delta":77979339},{"NoteNumber":76,"Velocity":53,"Duration":224718,"SoundDuration":224718,"Delta":78195166},{"NoteNumber":62,"Velocity":25,"Duration":490205,"SoundDuration":490205,"Delta":78195166},{"NoteNumber":56,"Velocity":21,"Duration":490205,"SoundDuration":490205,"Delta":78195166},{"NoteNumber":52,"Velocity":21,"Duration":490205,"SoundDuration":490205,"Delta":78195166},{"NoteNumber":71,"Velocity":46,"Duration":265486,"SoundDuration":265486,"Delta":78419885},{"NoteNumber":74,"Velocity":54,"Duration":854190,"SoundDuration":854190,"Delta":78685372},{"NoteNumber":53,"Velocity":21,"Duration":431655,"SoundDuration":431655,"Delta":79107907},{"NoteNumber":57,"Velocity":21,"Duration":431655,"SoundDuration":431655,"Delta":79107907},{"NoteNumber":62,"Velocity":28,"Duration":431655,"SoundDuration":431655,"Delta":79107907},{"NoteNumber":72,"Velocity":45,"Duration":431654,"SoundDuration":431654,"Delta":79539562},{"NoteNumber":57,"Velocity":21,"Duration":431654,"SoundDuration":431654,"Delta":79539562},{"NoteNumber":60,"Velocity":26,"Duration":431654,"SoundDuration":431654,"Delta":79539562},{"NoteNumber":53,"Velocity":21,"Duration":431654,"SoundDuration":431654,"Delta":79539562},{"NoteNumber":69,"Velocity":46,"Duration":138408,"SoundDuration":138408,"Delta":79971217},{"NoteNumber":70,"Velocity":43,"Duration":138408,"SoundDuration":138408,"Delta":80109625},{"NoteNumber":69,"Velocity":43,"Duration":138408,"SoundDuration":138408,"Delta":80248034},{"NoteNumber":67,"Velocity":47,"Duration":456273,"SoundDuration":456273,"Delta":80386442},{"NoteNumber":60,"Velocity":29,"Duration":456273,"SoundDuration":456273,"Delta":80386442},{"NoteNumber":53,"Velocity":29,"Duration":456273,"SoundDuration":456273,"Delta":80386442},{"NoteNumber":63,"Velocity":34,"Duration":456273,"SoundDuration":456273,"Delta":80386442},{"NoteNumber":69,"Velocity":51,"Duration":478087,"SoundDuration":478087,"Delta":80842716},{"NoteNumber":53,"Velocity":29,"Duration":478087,"SoundDuration":478087,"Delta":80842716},{"NoteNumber":60,"Velocity":29,"Duration":478087,"SoundDuration":478087,"Delta":80842716},{"NoteNumber":63,"Velocity":34,"Duration":478087,"SoundDuration":478087,"Delta":80842716},{"NoteNumber":70,"Velocity":61,"Duration":560748,"SoundDuration":560748,"Delta":81320804},{"NoteNumber":58,"Velocity":34,"Duration":1042676,"SoundDuration":1042676,"Delta":81320804},{"NoteNumber":62,"Velocity":37,"Duration":560748,"SoundDuration":560748,"Delta":81320804},{"NoteNumber":74,"Velocity":61,"Duration":481927,"SoundDuration":481927,"Delta":81881552},{"NoteNumber":65,"Velocity":37,"Duration":481927,"SoundDuration":481927,"Delta":81881552},{"NoteNumber":69,"Velocity":48,"Duration":320284,"SoundDuration":320284,"Delta":82899194},{"NoteNumber":68,"Velocity":44,"Duration":106761,"SoundDuration":106761,"Delta":83219478},{"NoteNumber":62,"Velocity":40,"Duration":444444,"SoundDuration":444444,"Delta":83326240},{"NoteNumber":64,"Velocity":48,"Duration":444444,"SoundDuration":444444,"Delta":83326240},{"NoteNumber":52,"Velocity":29,"Duration":444444,"SoundDuration":444444,"Delta":83326240},{"NoteNumber":59,"Velocity":35,"Duration":444444,"SoundDuration":444444,"Delta":83326240},{"NoteNumber":68,"Velocity":45,"Duration":449438,"SoundDuration":449438,"Delta":83770684},{"NoteNumber":62,"Velocity":38,"Duration":449438,"SoundDuration":449438,"Delta":83770684},{"NoteNumber":52,"Velocity":26,"Duration":449438,"SoundDuration":449438,"Delta":83770684},{"NoteNumber":59,"Velocity":31,"Duration":449438,"SoundDuration":449438,"Delta":83770684},{"NoteNumber":69,"Velocity":46,"Duration":921879,"SoundDuration":921879,"Delta":84220122},{"NoteNumber":61,"Velocity":25,"Duration":472441,"SoundDuration":472441,"Delta":84669560},{"NoteNumber":64,"Velocity":30,"Duration":472441,"SoundDuration":472441,"Delta":84669560},{"NoteNumber":45,"Velocity":19,"Duration":472441,"SoundDuration":472441,"Delta":84669560},{"NoteNumber":57,"Velocity":22,"Duration":472441,"SoundDuration":472441,"Delta":84669560},{"NoteNumber":61,"Velocity":26,"Duration":472441,"SoundDuration":472441,"Delta":85142001},{"NoteNumber":64,"Velocity":31,"Duration":472441,"SoundDuration":472441,"Delta":85142001},{"NoteNumber":45,"Velocity":20,"Duration":910556,"SoundDuration":910556,"Delta":85142001},{"NoteNumber":57,"Velocity":23,"Duration":910556,"SoundDuration":910556,"Delta":85142001},{"NoteNumber":67,"Velocity":45,"Duration":438115,"SoundDuration":438115,"Delta":85614442},{"NoteNumber":73,"Velocity":54,"Duration":219058,"SoundDuration":219058,"Delta":85614442},{"NoteNumber":73,"Velocity":49,"Duration":109528,"SoundDuration":109528,"Delta":85943029},{"NoteNumber":66,"Velocity":45,"Duration":423669,"SoundDuration":423669,"Delta":86052558},{"NoteNumber":74,"Velocity":54,"Duration":423669,"SoundDuration":423669,"Delta":86052558},{"NoteNumber":50,"Velocity":36,"Duration":423669,"SoundDuration":423669,"Delta":86052558},{"NoteNumber":65,"Velocity":44,"Duration":431593,"SoundDuration":431593,"Delta":86476227},{"NoteNumber":71,"Velocity":53,"Duration":431593,"SoundDuration":431593,"Delta":86476227},{"NoteNumber":38,"Velocity":36,"Duration":431593,"SoundDuration":431593,"Delta":86476227},{"NoteNumber":62,"Velocity":45,"Duration":429984,"SoundDuration":429984,"Delta":86907820},{"NoteNumber":68,"Velocity":54,"Duration":322488,"SoundDuration":322488,"Delta":86907820},{"NoteNumber":40,"Velocity":42,"Duration":429984,"SoundDuration":429984,"Delta":86907820},{"NoteNumber":64,"Velocity":51,"Duration":107495,"SoundDuration":107495,"Delta":87230308},{"NoteNumber":61,"Velocity":45,"Duration":643409,"SoundDuration":643409,"Delta":87337804},{"NoteNumber":69,"Velocity":54,"Duration":643409,"SoundDuration":643409,"Delta":87337804},{"NoteNumber":45,"Velocity":35,"Duration":426803,"SoundDuration":426803,"Delta":87337804},{"NoteNumber":52,"Velocity":39,"Duration":433212,"SoundDuration":433212,"Delta":87764607},{"NoteNumber":68,"Velocity":45,"Duration":216606,"SoundDuration":216606,"Delta":87981213},{"NoteNumber":71,"Velocity":54,"Duration":216606,"SoundDuration":216606,"Delta":87981213},{"NoteNumber":67,"Velocity":45,"Duration":436458,"SoundDuration":436458,"Delta":88197820},{"NoteNumber":73,"Velocity":54,"Duration":327344,"SoundDuration":327344,"Delta":88197820},{"NoteNumber":57,"Velocity":44,"Duration":436458,"SoundDuration":436458,"Delta":88197820},{"NoteNumber":76,"Velocity":54,"Duration":109114,"SoundDuration":109114,"Delta":88525164},{"NoteNumber":66,"Velocity":47,"Duration":321291,"SoundDuration":321291,"Delta":88634279},{"NoteNumber":74,"Velocity":56,"Duration":321291,"SoundDuration":321291,"Delta":88634279},{"NoteNumber":50,"Velocity":41,"Duration":321291,"SoundDuration":321291,"Delta":88634279},{"NoteNumber":65,"Velocity":45,"Duration":433212,"SoundDuration":433212,"Delta":89062667},{"NoteNumber":71,"Velocity":54,"Duration":433212,"SoundDuration":433212,"Delta":89062667},{"NoteNumber":38,"Velocity":36,"Duration":433212,"SoundDuration":433212,"Delta":89062667},{"NoteNumber":62,"Velocity":45,"Duration":426803,"SoundDuration":426803,"Delta":89495880},{"NoteNumber":68,"Velocity":54,"Duration":142267,"SoundDuration":142267,"Delta":89495880},{"NoteNumber":40,"Velocity":41,"Duration":426803,"SoundDuration":426803,"Delta":89495880},{"NoteNumber":66,"Velocity":56,"Duration":142267,"SoundDuration":142267,"Delta":89638148},{"NoteNumber":64,"Velocity":57,"Duration":142267,"SoundDuration":142267,"Delta":89780415},{"NoteNumber":61,"Velocity":52,"Duration":647389,"SoundDuration":647389,"Delta":89922683},{"NoteNumber":69,"Velocity":62,"Duration":647389,"SoundDuration":647389,"Delta":89922683},{"NoteNumber":45,"Velocity":36,"Duration":431593,"SoundDuration":431593,"Delta":89922683},{"NoteNumber":52,"Velocity":41,"Duration":438845,"SoundDuration":438845,"Delta":90354276},{"NoteNumber":68,"Velocity":45,"Duration":223048,"SoundDuration":223048,"Delta":90570072},{"NoteNumber":71,"Velocity":54,"Duration":223048,"SoundDuration":223048,"Delta":90570072},{"NoteNumber":67,"Velocity":44,"Duration":47649,"SoundDuration":47649,"Delta":90793121},{"NoteNumber":73,"Velocity":52,"Duration":47649,"SoundDuration":47649,"Delta":90793121},{"NoteNumber":57,"Velocity":44,"Duration":381193,"SoundDuration":381193,"Delta":90793121},{"NoteNumber":67,"Velocity":45,"Duration":47649,"SoundDuration":47649,"Delta":90920186},{"NoteNumber":73,"Velocity":54,"Duration":47649,"SoundDuration":47649,"Delta":90920186},{"NoteNumber":67,"Velocity":46,"Duration":47649,"SoundDuration":47649,"Delta":91047250},{"NoteNumber":73,"Velocity":55,"Duration":47649,"SoundDuration":47649,"Delta":91047250},{"NoteNumber":66,"Velocity":50,"Duration":211834,"SoundDuration":211834,"Delta":91174315},{"NoteNumber":74,"Velocity":59,"Duration":211834,"SoundDuration":211834,"Delta":91174315},{"NoteNumber":50,"Velocity":36,"Duration":211834,"SoundDuration":211834,"Delta":91174315},{"NoteNumber":65,"Velocity":44,"Duration":431593,"SoundDuration":431593,"Delta":91597984},{"NoteNumber":71,"Velocity":53,"Duration":431593,"SoundDuration":431593,"Delta":91597984},{"NoteNumber":38,"Velocity":36,"Duration":431593,"SoundDuration":431593,"Delta":91597984},{"NoteNumber":62,"Velocity":45,"Duration":50744,"SoundDuration":50744,"Delta":92029577},{"NoteNumber":68,"Velocity":54,"Duration":50744,"SoundDuration":50744,"Delta":92029577},{"NoteNumber":40,"Velocity":42,"Duration":405953,"SoundDuration":405953,"Delta":92029577},{"NoteNumber":62,"Velocity":43,"Duration":50744,"SoundDuration":50744,"Delta":92164895},{"NoteNumber":66,"Velocity":51,"Duration":50744,"SoundDuration":50744,"Delta":92164895},{"NoteNumber":62,"Velocity":43,"Duration":50744,"SoundDuration":50744,"Delta":92300213},{"NoteNumber":64,"Velocity":51,"Duration":50744,"SoundDuration":50744,"Delta":92300213},{"NoteNumber":61,"Velocity":45,"Duration":643409,"SoundDuration":643409,"Delta":92435531},{"NoteNumber":69,"Velocity":54,"Duration":643409,"SoundDuration":643409,"Delta":92435531},{"NoteNumber":45,"Velocity":35,"Duration":426803,"SoundDuration":426803,"Delta":92435531},{"NoteNumber":52,"Velocity":39,"Duration":436530,"SoundDuration":436530,"Delta":92862334},{"NoteNumber":68,"Velocity":45,"Duration":219924,"SoundDuration":219924,"Delta":93078940},{"NoteNumber":71,"Velocity":54,"Duration":219924,"SoundDuration":219924,"Delta":93078940},{"NoteNumber":67,"Velocity":43,"Duration":48138,"SoundDuration":48138,"Delta":93298865},{"NoteNumber":73,"Velocity":51,"Duration":48138,"SoundDuration":48138,"Delta":93298865},{"NoteNumber":57,"Velocity":44,"Duration":385108,"SoundDuration":385108,"Delta":93298865},{"NoteNumber":67,"Velocity":45,"Duration":48138,"SoundDuration":48138,"Delta":93427234},{"NoteNumber":74,"Velocity":54,"Duration":48138,"SoundDuration":48138,"Delta":93427234},{"NoteNumber":67,"Velocity":47,"Duration":48138,"SoundDuration":48138,"Delta":93555604},{"NoteNumber":76,"Velocity":56,"Duration":48138,"SoundDuration":48138,"Delta":93555604},{"NoteNumber":66,"Velocity":51,"Duration":214194,"SoundDuration":214194,"Delta":93683974},{"NoteNumber":74,"Velocity":61,"Duration":214194,"SoundDuration":214194,"Delta":93683974},{"NoteNumber":50,"Velocity":41,"Duration":214194,"SoundDuration":214194,"Delta":93683974},{"NoteNumber":65,"Velocity":45,"Duration":433212,"SoundDuration":433212,"Delta":94112362},{"NoteNumber":71,"Velocity":54,"Duration":433212,"SoundDuration":433212,"Delta":94112362},{"NoteNumber":38,"Velocity":36,"Duration":433212,"SoundDuration":433212,"Delta":94112362},{"NoteNumber":62,"Velocity":45,"Duration":48638,"SoundDuration":48638,"Delta":94545575},{"NoteNumber":68,"Velocity":54,"Duration":48638,"SoundDuration":48638,"Delta":94545575},{"NoteNumber":40,"Velocity":41,"Duration":389105,"SoundDuration":389105,"Delta":94545575},{"NoteNumber":62,"Velocity":45,"Duration":48638,"SoundDuration":48638,"Delta":94675276},{"NoteNumber":66,"Velocity":56,"Duration":48638,"SoundDuration":48638,"Delta":94675276},{"NoteNumber":62,"Velocity":45,"Duration":48638,"SoundDuration":48638,"Delta":94804978},{"NoteNumber":64,"Velocity":57,"Duration":48638,"SoundDuration":48638,"Delta":94804978},{"NoteNumber":61,"Velocity":51,"Duration":863457,"SoundDuration":863457,"Delta":94934680},{"NoteNumber":69,"Velocity":61,"Duration":863457,"SoundDuration":863457,"Delta":94934680},{"NoteNumber":45,"Velocity":36,"Duration":431593,"SoundDuration":431593,"Delta":94934680},{"NoteNumber":57,"Velocity":41,"Duration":431864,"SoundDuration":431864,"Delta":95366273},{"NoteNumber":73,"Velocity":80,"Duration":219058,"SoundDuration":219058,"Delta":95798138},{"NoteNumber":69,"Velocity":68,"Duration":219058,"SoundDuration":219058,"Delta":95798138},{"NoteNumber":54,"Velocity":58,"Duration":1293039,"SoundDuration":1293039,"Delta":95798138},{"NoteNumber":61,"Velocity":70,"Duration":219058,"SoundDuration":219058,"Delta":95798138},{"NoteNumber":73,"Velocity":75,"Duration":108927,"SoundDuration":108927,"Delta":96126725},{"NoteNumber":69,"Velocity":64,"Duration":108927,"SoundDuration":108927,"Delta":96126725},{"NoteNumber":61,"Velocity":63,"Duration":108927,"SoundDuration":108927,"Delta":96126725},{"NoteNumber":74,"Velocity":79,"Duration":317751,"SoundDuration":317751,"Delta":96235652},{"NoteNumber":71,"Velocity":67,"Duration":317751,"SoundDuration":317751,"Delta":96235652},{"NoteNumber":62,"Velocity":69,"Duration":317751,"SoundDuration":317751,"Delta":96235652},{"NoteNumber":71,"Velocity":72,"Duration":323694,"SoundDuration":323694,"Delta":96659651},{"NoteNumber":68,"Velocity":60,"Duration":323694,"SoundDuration":323694,"Delta":96659651},{"NoteNumber":59,"Velocity":63,"Duration":323694,"SoundDuration":323694,"Delta":96659651},{"NoteNumber":69,"Velocity":65,"Duration":131752,"SoundDuration":131752,"Delta":97091177},{"NoteNumber":73,"Velocity":77,"Duration":131752,"SoundDuration":131752,"Delta":97091177},{"NoteNumber":54,"Velocity":55,"Duration":1256854,"SoundDuration":1256854,"Delta":97091177},{"NoteNumber":61,"Velocity":66,"Duration":131752,"SoundDuration":131752,"Delta":97091177},{"NoteNumber":68,"Velocity":60,"Duration":131752,"SoundDuration":131752,"Delta":97222929},{"NoteNumber":71,"Velocity":72,"Duration":131752,"SoundDuration":131752,"Delta":97222929},{"NoteNumber":59,"Velocity":57,"Duration":131752,"SoundDuration":131752,"Delta":97222929},{"NoteNumber":69,"Velocity":72,"Duration":133066,"SoundDuration":133066,"Delta":97354681},{"NoteNumber":66,"Velocity":60,"Duration":133066,"SoundDuration":133066,"Delta":97354681},{"NoteNumber":57,"Velocity":57,"Duration":133066,"SoundDuration":133066,"Delta":97354681},{"NoteNumber":71,"Velocity":66,"Duration":320102,"SoundDuration":320102,"Delta":97487748},{"NoteNumber":74,"Velocity":78,"Duration":320102,"SoundDuration":320102,"Delta":97487748},{"NoteNumber":62,"Velocity":66,"Duration":320102,"SoundDuration":320102,"Delta":97487748},{"NoteNumber":68,"Velocity":61,"Duration":324909,"SoundDuration":324909,"Delta":97914818},{"NoteNumber":71,"Velocity":73,"Duration":324909,"SoundDuration":324909,"Delta":97914818},{"NoteNumber":59,"Velocity":57,"Duration":324909,"SoundDuration":324909,"Delta":97914818},{"NoteNumber":73,"Velocity":80,"Duration":219058,"SoundDuration":219058,"Delta":98348031},{"NoteNumber":69,"Velocity":68,"Duration":219058,"SoundDuration":219058,"Delta":98348031},{"NoteNumber":54,"Velocity":58,"Duration":1293039,"SoundDuration":1293039,"Delta":98348031},{"NoteNumber":61,"Velocity":70,"Duration":219058,"SoundDuration":219058,"Delta":98348031},{"NoteNumber":73,"Velocity":75,"Duration":108927,"SoundDuration":108927,"Delta":98676618},{"NoteNumber":69,"Velocity":64,"Duration":108927,"SoundDuration":108927,"Delta":98676618},{"NoteNumber":61,"Velocity":63,"Duration":108927,"SoundDuration":108927,"Delta":98676618},{"NoteNumber":74,"Velocity":79,"Duration":317751,"SoundDuration":317751,"Delta":98785545},{"NoteNumber":71,"Velocity":67,"Duration":317751,"SoundDuration":317751,"Delta":98785545},{"NoteNumber":62,"Velocity":69,"Duration":317751,"SoundDuration":317751,"Delta":98785545},{"NoteNumber":71,"Velocity":72,"Duration":323694,"SoundDuration":323694,"Delta":99209544},{"NoteNumber":68,"Velocity":60,"Duration":323694,"SoundDuration":323694,"Delta":99209544},{"NoteNumber":59,"Velocity":63,"Duration":323694,"SoundDuration":323694,"Delta":99209544},{"NoteNumber":69,"Velocity":65,"Duration":130377,"SoundDuration":130377,"Delta":99641070},{"NoteNumber":73,"Velocity":77,"Duration":130377,"SoundDuration":130377,"Delta":99641070},{"NoteNumber":54,"Velocity":55,"Duration":392620,"SoundDuration":392620,"Delta":99641070},{"NoteNumber":61,"Velocity":66,"Duration":130377,"SoundDuration":130377,"Delta":99641070},{"NoteNumber":68,"Velocity":60,"Duration":130378,"SoundDuration":130378,"Delta":99771448},{"NoteNumber":71,"Velocity":72,"Duration":130378,"SoundDuration":130378,"Delta":99771448},{"NoteNumber":59,"Velocity":57,"Duration":130378,"SoundDuration":130378,"Delta":99771448},{"NoteNumber":69,"Velocity":72,"Duration":131864,"SoundDuration":131864,"Delta":99901826},{"NoteNumber":66,"Velocity":60,"Duration":131864,"SoundDuration":131864,"Delta":99901826},{"NoteNumber":57,"Velocity":57,"Duration":131864,"SoundDuration":131864,"Delta":99901826},{"NoteNumber":78,"Velocity":75,"Duration":433213,"SoundDuration":433213,"Delta":100033691},{"NoteNumber":90,"Velocity":89,"Duration":433213,"SoundDuration":433213,"Delta":100033691},{"NoteNumber":42,"Velocity":75,"Duration":433213,"SoundDuration":433213,"Delta":100033691},{"NoteNumber":54,"Velocity":75,"Duration":433213,"SoundDuration":433213,"Delta":100033691},{"NoteNumber":78,"Velocity":70,"Duration":433212,"SoundDuration":433212,"Delta":100466904},{"NoteNumber":90,"Velocity":83,"Duration":433212,"SoundDuration":433212,"Delta":100466904},{"NoteNumber":42,"Velocity":65,"Duration":433212,"SoundDuration":433212,"Delta":100466904},{"NoteNumber":54,"Velocity":65,"Duration":433212,"SoundDuration":433212,"Delta":100466904},{"NoteNumber":73,"Velocity":80,"Duration":219058,"SoundDuration":219058,"Delta":100900117},{"NoteNumber":69,"Velocity":68,"Duration":219058,"SoundDuration":219058,"Delta":100900117},{"NoteNumber":54,"Velocity":58,"Duration":1293039,"SoundDuration":1293039,"Delta":100900117},{"NoteNumber":61,"Velocity":70,"Duration":219058,"SoundDuration":219058,"Delta":100900117},{"NoteNumber":73,"Velocity":75,"Duration":108927,"SoundDuration":108927,"Delta":101228704},{"NoteNumber":69,"Velocity":64,"Duration":108927,"SoundDuration":108927,"Delta":101228704},{"NoteNumber":61,"Velocity":63,"Duration":108927,"SoundDuration":108927,"Delta":101228704},{"NoteNumber":74,"Velocity":79,"Duration":317751,"SoundDuration":317751,"Delta":101337631},{"NoteNumber":71,"Velocity":67,"Duration":317751,"SoundDuration":317751,"Delta":101337631},{"NoteNumber":62,"Velocity":69,"Duration":317751,"SoundDuration":317751,"Delta":101337631},{"NoteNumber":71,"Velocity":72,"Duration":323694,"SoundDuration":323694,"Delta":101761630},{"NoteNumber":68,"Velocity":60,"Duration":323694,"SoundDuration":323694,"Delta":101761630},{"NoteNumber":59,"Velocity":63,"Duration":323694,"SoundDuration":323694,"Delta":101761630},{"NoteNumber":69,"Velocity":65,"Duration":130377,"SoundDuration":130377,"Delta":102193156},{"NoteNumber":73,"Velocity":77,"Duration":130377,"SoundDuration":130377,"Delta":102193156},{"NoteNumber":54,"Velocity":55,"Duration":1722098,"SoundDuration":1722098,"Delta":102193156},{"NoteNumber":61,"Velocity":66,"Duration":130377,"SoundDuration":130377,"Delta":102193156},{"NoteNumber":68,"Velocity":60,"Duration":130378,"SoundDuration":130378,"Delta":102323534},{"NoteNumber":71,"Velocity":72,"Duration":130378,"SoundDuration":130378,"Delta":102323534},{"NoteNumber":59,"Velocity":57,"Duration":130378,"SoundDuration":130378,"Delta":102323534},{"NoteNumber":69,"Velocity":72,"Duration":131864,"SoundDuration":131864,"Delta":102453912},{"NoteNumber":66,"Velocity":60,"Duration":131864,"SoundDuration":131864,"Delta":102453912},{"NoteNumber":57,"Velocity":57,"Duration":131864,"SoundDuration":131864,"Delta":102453912},{"NoteNumber":71,"Velocity":66,"Duration":320102,"SoundDuration":320102,"Delta":102585776},{"NoteNumber":74,"Velocity":78,"Duration":320102,"SoundDuration":320102,"Delta":102585776},{"NoteNumber":62,"Velocity":66,"Duration":320102,"SoundDuration":320102,"Delta":102585776},{"NoteNumber":68,"Velocity":61,"Duration":331101,"SoundDuration":331101,"Delta":103012846},{"NoteNumber":71,"Velocity":73,"Duration":331101,"SoundDuration":331101,"Delta":103012846},{"NoteNumber":59,"Velocity":57,"Duration":331101,"SoundDuration":331101,"Delta":103012846},{"NoteNumber":69,"Velocity":57,"Duration":460939,"SoundDuration":460939,"Delta":103454315},{"NoteNumber":73,"Velocity":68,"Duration":224718,"SoundDuration":224718,"Delta":103454315},{"NoteNumber":61,"Velocity":53,"Duration":224718,"SoundDuration":224718,"Delta":103454315},{"NoteNumber":75,"Velocity":71,"Duration":236220,"SoundDuration":236220,"Delta":103679034},{"NoteNumber":59,"Velocity":57,"Duration":1181102,"SoundDuration":1181102,"Delta":103679034},{"NoteNumber":68,"Velocity":62,"Duration":944881,"SoundDuration":944881,"Delta":103915255},{"NoteNumber":76,"Velocity":74,"Duration":944881,"SoundDuration":944881,"Delta":103915255},{"NoteNumber":52,"Velocity":51,"Duration":1445921,"SoundDuration":1445921,"Delta":103915255},{"NoteNumber":69,"Velocity":57,"Duration":501039,"SoundDuration":501039,"Delta":104860137},{"NoteNumber":73,"Velocity":68,"Duration":230768,"SoundDuration":230768,"Delta":104860137},{"NoteNumber":61,"Velocity":53,"Duration":230768,"SoundDuration":230768,"Delta":104860137},{"NoteNumber":75,"Velocity":71,"Duration":135135,"SoundDuration":135135,"Delta":105090906},{"NoteNumber":59,"Velocity":57,"Duration":1211446,"SoundDuration":1211446,"Delta":105090906},{"NoteNumber":78,"Velocity":69,"Duration":135135,"SoundDuration":135135,"Delta":105226041},{"NoteNumber":68,"Velocity":62,"Duration":941175,"SoundDuration":941175,"Delta":105361176},{"NoteNumber":76,"Velocity":74,"Duration":705882,"SoundDuration":705882,"Delta":105361176},{"NoteNumber":52,"Velocity":51,"Duration":941175,"SoundDuration":941175,"Delta":105361176},{"NoteNumber":74,"Velocity":70,"Duration":235293,"SoundDuration":235293,"Delta":106067058},{"NoteNumber":67,"Velocity":50,"Duration":438115,"SoundDuration":438115,"Delta":106302352},{"NoteNumber":73,"Velocity":60,"Duration":219058,"SoundDuration":219058,"Delta":106302352},{"NoteNumber":57,"Velocity":49,"Duration":438115,"SoundDuration":438115,"Delta":106302352},{"NoteNumber":73,"Velocity":55,"Duration":109528,"SoundDuration":109528,"Delta":106630939},{"NoteNumber":66,"Velocity":51,"Duration":423669,"SoundDuration":423669,"Delta":106740468},{"NoteNumber":74,"Velocity":61,"Duration":423669,"SoundDuration":423669,"Delta":106740468},{"NoteNumber":50,"Velocity":40,"Duration":423669,"SoundDuration":423669,"Delta":106740468},{"NoteNumber":65,"Velocity":49,"Duration":431593,"SoundDuration":431593,"Delta":107164137},{"NoteNumber":71,"Velocity":59,"Duration":431593,"SoundDuration":431593,"Delta":107164137},{"NoteNumber":38,"Velocity":40,"Duration":431593,"SoundDuration":431593,"Delta":107164137},{"NoteNumber":62,"Velocity":50,"Duration":429984,"SoundDuration":429984,"Delta":107595730},{"NoteNumber":68,"Velocity":60,"Duration":322488,"SoundDuration":322488,"Delta":107595730},{"NoteNumber":40,"Velocity":47,"Duration":429984,"SoundDuration":429984,"Delta":107595730},{"NoteNumber":64,"Velocity":57,"Duration":107495,"SoundDuration":107495,"Delta":107918218},{"NoteNumber":61,"Velocity":50,"Duration":643409,"SoundDuration":643409,"Delta":108025714},{"NoteNumber":69,"Velocity":60,"Duration":643409,"SoundDuration":643409,"Delta":108025714},{"NoteNumber":45,"Velocity":39,"Duration":426803,"SoundDuration":426803,"Delta":108025714},{"NoteNumber":52,"Velocity":44,"Duration":433212,"SoundDuration":433212,"Delta":108452517},{"NoteNumber":68,"Velocity":50,"Duration":216606,"SoundDuration":216606,"Delta":108669124},{"NoteNumber":71,"Velocity":60,"Duration":216606,"SoundDuration":216606,"Delta":108669124},{"NoteNumber":67,"Velocity":51,"Duration":436458,"SoundDuration":436458,"Delta":108885730},{"NoteNumber":73,"Velocity":61,"Duration":327344,"SoundDuration":327344,"Delta":108885730},{"NoteNumber":57,"Velocity":49,"Duration":436458,"SoundDuration":436458,"Delta":108885730},{"NoteNumber":76,"Velocity":60,"Duration":109114,"SoundDuration":109114,"Delta":109213074},{"NoteNumber":66,"Velocity":53,"Duration":428387,"SoundDuration":428387,"Delta":109322189},{"NoteNumber":74,"Velocity":63,"Duration":428387,"SoundDuration":428387,"Delta":109322189},{"NoteNumber":50,"Velocity":46,"Duration":428387,"SoundDuration":428387,"Delta":109322189},{"NoteNumber":65,"Velocity":50,"Duration":433212,"SoundDuration":433212,"Delta":109750577},{"NoteNumber":71,"Velocity":60,"Duration":433212,"SoundDuration":433212,"Delta":109750577},{"NoteNumber":38,"Velocity":40,"Duration":433212,"SoundDuration":433212,"Delta":109750577},{"NoteNumber":62,"Velocity":51,"Duration":426803,"SoundDuration":426803,"Delta":110183790},{"NoteNumber":68,"Velocity":61,"Duration":142267,"SoundDuration":142267,"Delta":110183790},{"NoteNumber":40,"Velocity":46,"Duration":426803,"SoundDuration":426803,"Delta":110183790},{"NoteNumber":66,"Velocity":63,"Duration":142267,"SoundDuration":142267,"Delta":110326058},{"NoteNumber":64,"Velocity":64,"Duration":142267,"SoundDuration":142267,"Delta":110468325},{"NoteNumber":61,"Velocity":58,"Duration":647389,"SoundDuration":647389,"Delta":110610593},{"NoteNumber":69,"Velocity":69,"Duration":647389,"SoundDuration":647389,"Delta":110610593},{"NoteNumber":45,"Velocity":40,"Duration":431593,"SoundDuration":431593,"Delta":110610593},{"NoteNumber":52,"Velocity":46,"Duration":431592,"SoundDuration":431592,"Delta":111042186},{"NoteNumber":68,"Velocity":50,"Duration":215796,"SoundDuration":215796,"Delta":111257983},{"NoteNumber":71,"Velocity":60,"Duration":215796,"SoundDuration":215796,"Delta":111257983},{"NoteNumber":67,"Velocity":49,"Duration":47408,"SoundDuration":47408,"Delta":111473779},{"NoteNumber":73,"Velocity":58,"Duration":47408,"SoundDuration":47408,"Delta":111473779},{"NoteNumber":57,"Velocity":49,"Duration":379266,"SoundDuration":379266,"Delta":111473779},{"NoteNumber":67,"Velocity":50,"Duration":47408,"SoundDuration":47408,"Delta":111600201},{"NoteNumber":73,"Velocity":60,"Duration":47408,"SoundDuration":47408,"Delta":111600201},{"NoteNumber":67,"Velocity":52,"Duration":47408,"SoundDuration":47408,"Delta":111726624},{"NoteNumber":73,"Velocity":62,"Duration":47408,"SoundDuration":47408,"Delta":111726624},{"NoteNumber":66,"Velocity":56,"Duration":211834,"SoundDuration":211834,"Delta":111853046},{"NoteNumber":74,"Velocity":66,"Duration":211834,"SoundDuration":211834,"Delta":111853046},{"NoteNumber":50,"Velocity":40,"Duration":423669,"SoundDuration":423669,"Delta":111853046},{"NoteNumber":65,"Velocity":49,"Duration":431593,"SoundDuration":431593,"Delta":112276715},{"NoteNumber":71,"Velocity":59,"Duration":431593,"SoundDuration":431593,"Delta":112276715},{"NoteNumber":38,"Velocity":40,"Duration":431593,"SoundDuration":431593,"Delta":112276715},{"NoteNumber":62,"Velocity":51,"Duration":48138,"SoundDuration":48138,"Delta":112708308},{"NoteNumber":68,"Velocity":61,"Duration":48138,"SoundDuration":48138,"Delta":112708308},{"NoteNumber":40,"Velocity":47,"Duration":385108,"SoundDuration":385108,"Delta":112708308},{"NoteNumber":62,"Velocity":48,"Duration":48138,"SoundDuration":48138,"Delta":112836678},{"NoteNumber":66,"Velocity":57,"Duration":48138,"SoundDuration":48138,"Delta":112836678},{"NoteNumber":62,"Velocity":48,"Duration":48138,"SoundDuration":48138,"Delta":112965047},{"NoteNumber":64,"Velocity":57,"Duration":48138,"SoundDuration":48138,"Delta":112965047},{"NoteNumber":61,"Velocity":50,"Duration":643409,"SoundDuration":643409,"Delta":113093417},{"NoteNumber":69,"Velocity":60,"Duration":643409,"SoundDuration":643409,"Delta":113093417},{"NoteNumber":45,"Velocity":39,"Duration":426803,"SoundDuration":426803,"Delta":113093417},{"NoteNumber":52,"Velocity":44,"Duration":433212,"SoundDuration":433212,"Delta":113520220},{"NoteNumber":68,"Velocity":50,"Duration":216606,"SoundDuration":216606,"Delta":113736827},{"NoteNumber":71,"Velocity":60,"Duration":216606,"SoundDuration":216606,"Delta":113736827},{"NoteNumber":67,"Velocity":48,"Duration":47892,"SoundDuration":47892,"Delta":113953433},{"NoteNumber":73,"Velocity":57,"Duration":47892,"SoundDuration":47892,"Delta":113953433},{"NoteNumber":57,"Velocity":49,"Duration":383142,"SoundDuration":383142,"Delta":113953433},{"NoteNumber":67,"Velocity":50,"Duration":47892,"SoundDuration":47892,"Delta":114081147},{"NoteNumber":74,"Velocity":60,"Duration":47892,"SoundDuration":47892,"Delta":114081147},{"NoteNumber":67,"Velocity":53,"Duration":47892,"SoundDuration":47892,"Delta":114208861},{"NoteNumber":76,"Velocity":63,"Duration":47892,"SoundDuration":47892,"Delta":114208861},{"NoteNumber":66,"Velocity":57,"Duration":214194,"SoundDuration":214194,"Delta":114336575},{"NoteNumber":74,"Velocity":68,"Duration":214194,"SoundDuration":214194,"Delta":114336575},{"NoteNumber":50,"Velocity":46,"Duration":428387,"SoundDuration":428387,"Delta":114336575},{"NoteNumber":65,"Velocity":50,"Duration":433212,"SoundDuration":433212,"Delta":114764963},{"NoteNumber":71,"Velocity":60,"Duration":433212,"SoundDuration":433212,"Delta":114764963},{"NoteNumber":38,"Velocity":40,"Duration":433212,"SoundDuration":433212,"Delta":114764963},{"NoteNumber":62,"Velocity":51,"Duration":48387,"SoundDuration":48387,"Delta":115198176},{"NoteNumber":68,"Velocity":61,"Duration":48387,"SoundDuration":48387,"Delta":115198176},{"NoteNumber":40,"Velocity":46,"Duration":387096,"SoundDuration":387096,"Delta":115198176},{"NoteNumber":62,"Velocity":51,"Duration":48387,"SoundDuration":48387,"Delta":115327208},{"NoteNumber":66,"Velocity":63,"Duration":48387,"SoundDuration":48387,"Delta":115327208},{"NoteNumber":62,"Velocity":51,"Duration":48387,"SoundDuration":48387,"Delta":115456241},{"NoteNumber":64,"Velocity":64,"Duration":48387,"SoundDuration":48387,"Delta":115456241},{"NoteNumber":61,"Velocity":57,"Duration":863457,"SoundDuration":863457,"Delta":115585273},{"NoteNumber":69,"Velocity":68,"Duration":863457,"SoundDuration":863457,"Delta":115585273},{"NoteNumber":45,"Velocity":40,"Duration":431593,"SoundDuration":431593,"Delta":115585273},{"NoteNumber":57,"Velocity":46,"Duration":431864,"SoundDuration":431864,"Delta":116016866},{"NoteNumber":73,"Velocity":80,"Duration":219058,"SoundDuration":219058,"Delta":116448731},{"NoteNumber":69,"Velocity":68,"Duration":219058,"SoundDuration":219058,"Delta":116448731},{"NoteNumber":54,"Velocity":58,"Duration":1293039,"SoundDuration":1293039,"Delta":116448731},{"NoteNumber":61,"Velocity":70,"Duration":219058,"SoundDuration":219058,"Delta":116448731},{"NoteNumber":73,"Velocity":75,"Duration":108927,"SoundDuration":108927,"Delta":116777318},{"NoteNumber":69,"Velocity":64,"Duration":108927,"SoundDuration":108927,"Delta":116777318},{"NoteNumber":61,"Velocity":63,"Duration":108927,"SoundDuration":108927,"Delta":116777318},{"NoteNumber":74,"Velocity":79,"Duration":317751,"SoundDuration":317751,"Delta":116886245},{"NoteNumber":71,"Velocity":67,"Duration":317751,"SoundDuration":317751,"Delta":116886245},{"NoteNumber":62,"Velocity":69,"Duration":317751,"SoundDuration":317751,"Delta":116886245},{"NoteNumber":71,"Velocity":72,"Duration":323694,"SoundDuration":323694,"Delta":117310244},{"NoteNumber":68,"Velocity":60,"Duration":323694,"SoundDuration":323694,"Delta":117310244},{"NoteNumber":59,"Velocity":63,"Duration":323694,"SoundDuration":323694,"Delta":117310244},{"NoteNumber":69,"Velocity":65,"Duration":127713,"SoundDuration":127713,"Delta":117741770},{"NoteNumber":73,"Velocity":77,"Duration":127713,"SoundDuration":127713,"Delta":117741770},{"NoteNumber":54,"Velocity":55,"Duration":1245244,"SoundDuration":1245244,"Delta":117741770},{"NoteNumber":61,"Velocity":66,"Duration":127713,"SoundDuration":127713,"Delta":117741770},{"NoteNumber":68,"Velocity":60,"Duration":127713,"SoundDuration":127713,"Delta":117869484},{"NoteNumber":71,"Velocity":72,"Duration":127713,"SoundDuration":127713,"Delta":117869484},{"NoteNumber":59,"Velocity":57,"Duration":127713,"SoundDuration":127713,"Delta":117869484},{"NoteNumber":69,"Velocity":72,"Duration":129533,"SoundDuration":129533,"Delta":117997198},{"NoteNumber":66,"Velocity":60,"Duration":129533,"SoundDuration":129533,"Delta":117997198},{"NoteNumber":57,"Velocity":57,"Duration":129533,"SoundDuration":129533,"Delta":117997198},{"NoteNumber":71,"Velocity":66,"Duration":320102,"SoundDuration":320102,"Delta":118126731},{"NoteNumber":74,"Velocity":78,"Duration":320102,"SoundDuration":320102,"Delta":118126731},{"NoteNumber":62,"Velocity":66,"Duration":320102,"SoundDuration":320102,"Delta":118126731},{"NoteNumber":68,"Velocity":61,"Duration":324909,"SoundDuration":324909,"Delta":118553801},{"NoteNumber":71,"Velocity":73,"Duration":324909,"SoundDuration":324909,"Delta":118553801},{"NoteNumber":59,"Velocity":57,"Duration":324909,"SoundDuration":324909,"Delta":118553801},{"NoteNumber":73,"Velocity":80,"Duration":219058,"SoundDuration":219058,"Delta":118987014},{"NoteNumber":69,"Velocity":68,"Duration":219058,"SoundDuration":219058,"Delta":118987014},{"NoteNumber":54,"Velocity":58,"Duration":1293039,"SoundDuration":1293039,"Delta":118987014},{"NoteNumber":61,"Velocity":70,"Duration":219058,"SoundDuration":219058,"Delta":118987014},{"NoteNumber":73,"Velocity":75,"Duration":108927,"SoundDuration":108927,"Delta":119315601},{"NoteNumber":69,"Velocity":64,"Duration":108927,"SoundDuration":108927,"Delta":119315601},{"NoteNumber":61,"Velocity":63,"Duration":108927,"SoundDuration":108927,"Delta":119315601},{"NoteNumber":74,"Velocity":79,"Duration":317751,"SoundDuration":317751,"Delta":119424528},{"NoteNumber":71,"Velocity":67,"Duration":317751,"SoundDuration":317751,"Delta":119424528},{"NoteNumber":62,"Velocity":69,"Duration":317751,"SoundDuration":317751,"Delta":119424528},{"NoteNumber":71,"Velocity":72,"Duration":323694,"SoundDuration":323694,"Delta":119848528},{"NoteNumber":68,"Velocity":60,"Duration":323694,"SoundDuration":323694,"Delta":119848528},{"NoteNumber":59,"Velocity":63,"Duration":323694,"SoundDuration":323694,"Delta":119848528},{"NoteNumber":69,"Velocity":65,"Duration":129032,"SoundDuration":129032,"Delta":120280053},{"NoteNumber":73,"Velocity":77,"Duration":129032,"SoundDuration":129032,"Delta":120280053},{"NoteNumber":54,"Velocity":55,"Duration":388751,"SoundDuration":388751,"Delta":120280053},{"NoteNumber":61,"Velocity":66,"Duration":129032,"SoundDuration":129032,"Delta":120280053},{"NoteNumber":68,"Velocity":60,"Duration":129032,"SoundDuration":129032,"Delta":120409086},{"NoteNumber":71,"Velocity":72,"Duration":129032,"SoundDuration":129032,"Delta":120409086},{"NoteNumber":59,"Velocity":57,"Duration":129032,"SoundDuration":129032,"Delta":120409086},{"NoteNumber":69,"Velocity":72,"Duration":130686,"SoundDuration":130686,"Delta":120538118},{"NoteNumber":66,"Velocity":60,"Duration":130686,"SoundDuration":130686,"Delta":120538118},{"NoteNumber":57,"Velocity":57,"Duration":130686,"SoundDuration":130686,"Delta":120538118},{"NoteNumber":78,"Velocity":75,"Duration":433212,"SoundDuration":433212,"Delta":120668805},{"NoteNumber":90,"Velocity":89,"Duration":433212,"SoundDuration":433212,"Delta":120668805},{"NoteNumber":42,"Velocity":75,"Duration":433212,"SoundDuration":433212,"Delta":120668805},{"NoteNumber":54,"Velocity":75,"Duration":433212,"SoundDuration":433212,"Delta":120668805},{"NoteNumber":78,"Velocity":70,"Duration":433213,"SoundDuration":433213,"Delta":121102018},{"NoteNumber":90,"Velocity":83,"Duration":433213,"SoundDuration":433213,"Delta":121102018},{"NoteNumber":42,"Velocity":65,"Duration":433213,"SoundDuration":433213,"Delta":121102018},{"NoteNumber":54,"Velocity":65,"Duration":433213,"SoundDuration":433213,"Delta":121102018},{"NoteNumber":73,"Velocity":80,"Duration":219058,"SoundDuration":219058,"Delta":121535231},{"NoteNumber":69,"Velocity":68,"Duration":219058,"SoundDuration":219058,"Delta":121535231},{"NoteNumber":54,"Velocity":58,"Duration":1293039,"SoundDuration":1293039,"Delta":121535231},{"NoteNumber":61,"Velocity":70,"Duration":219058,"SoundDuration":219058,"Delta":121535231},{"NoteNumber":73,"Velocity":75,"Duration":108927,"SoundDuration":108927,"Delta":121863818},{"NoteNumber":69,"Velocity":64,"Duration":108927,"SoundDuration":108927,"Delta":121863818},{"NoteNumber":61,"Velocity":63,"Duration":108927,"SoundDuration":108927,"Delta":121863818},{"NoteNumber":74,"Velocity":79,"Duration":317751,"SoundDuration":317751,"Delta":121972745},{"NoteNumber":71,"Velocity":67,"Duration":317751,"SoundDuration":317751,"Delta":121972745},{"NoteNumber":62,"Velocity":69,"Duration":317751,"SoundDuration":317751,"Delta":121972745},{"NoteNumber":71,"Velocity":72,"Duration":323694,"SoundDuration":323694,"Delta":122396744},{"NoteNumber":68,"Velocity":60,"Duration":323694,"SoundDuration":323694,"Delta":122396744},{"NoteNumber":59,"Velocity":63,"Duration":323694,"SoundDuration":323694,"Delta":122396744},{"NoteNumber":69,"Velocity":65,"Duration":129701,"SoundDuration":129701,"Delta":122828270},{"NoteNumber":73,"Velocity":77,"Duration":129701,"SoundDuration":129701,"Delta":122828270},{"NoteNumber":54,"Velocity":55,"Duration":1722264,"SoundDuration":1722264,"Delta":122828270},{"NoteNumber":61,"Velocity":66,"Duration":129701,"SoundDuration":129701,"Delta":122828270},{"NoteNumber":68,"Velocity":60,"Duration":129701,"SoundDuration":129701,"Delta":122957972},{"NoteNumber":71,"Velocity":72,"Duration":129701,"SoundDuration":129701,"Delta":122957972},{"NoteNumber":59,"Velocity":57,"Duration":129701,"SoundDuration":129701,"Delta":122957972},{"NoteNumber":69,"Velocity":72,"Duration":131272,"SoundDuration":131272,"Delta":123087673},{"NoteNumber":66,"Velocity":60,"Duration":131272,"SoundDuration":131272,"Delta":123087673},{"NoteNumber":57,"Velocity":57,"Duration":131272,"SoundDuration":131272,"Delta":123087673},{"NoteNumber":71,"Velocity":66,"Duration":320102,"SoundDuration":320102,"Delta":123218946},{"NoteNumber":74,"Velocity":78,"Duration":320102,"SoundDuration":320102,"Delta":123218946},{"NoteNumber":62,"Velocity":66,"Duration":320102,"SoundDuration":320102,"Delta":123218946},{"NoteNumber":68,"Velocity":61,"Duration":331101,"SoundDuration":331101,"Delta":123646016},{"NoteNumber":71,"Velocity":73,"Duration":331101,"SoundDuration":331101,"Delta":123646016},{"NoteNumber":59,"Velocity":57,"Duration":331101,"SoundDuration":331101,"Delta":123646016},{"NoteNumber":69,"Velocity":57,"Duration":463049,"SoundDuration":463049,"Delta":124087485},{"NoteNumber":73,"Velocity":68,"Duration":225895,"SoundDuration":225895,"Delta":124087485},{"NoteNumber":61,"Velocity":53,"Duration":225895,"SoundDuration":225895,"Delta":124087485},{"NoteNumber":75,"Velocity":71,"Duration":237154,"SoundDuration":237154,"Delta":124313380},{"NoteNumber":59,"Velocity":57,"Duration":1185770,"SoundDuration":1185770,"Delta":124313380},{"NoteNumber":68,"Velocity":62,"Duration":948616,"SoundDuration":948616,"Delta":124550534},{"NoteNumber":76,"Velocity":74,"Duration":948616,"SoundDuration":948616,"Delta":124550534},{"NoteNumber":52,"Velocity":51,"Duration":1495414,"SoundDuration":1495414,"Delta":124550534},{"NoteNumber":69,"Velocity":57,"Duration":546798,"SoundDuration":546798,"Delta":125499150},{"NoteNumber":73,"Velocity":68,"Duration":255536,"SoundDuration":255536,"Delta":125499150},{"NoteNumber":61,"Velocity":53,"Duration":255536,"SoundDuration":255536,"Delta":125499150},{"NoteNumber":75,"Velocity":71,"Duration":145630,"SoundDuration":145630,"Delta":125754687},{"NoteNumber":59,"Velocity":57,"Duration":1236144,"SoundDuration":1236144,"Delta":125754687},{"NoteNumber":78,"Velocity":69,"Duration":145631,"SoundDuration":145631,"Delta":125900318},{"NoteNumber":68,"Velocity":62,"Duration":944882,"SoundDuration":944882,"Delta":126045949},{"NoteNumber":76,"Velocity":74,"Duration":708661,"SoundDuration":708661,"Delta":126045949},{"NoteNumber":52,"Velocity":51,"Duration":944882,"SoundDuration":944882,"Delta":126045949},{"NoteNumber":74,"Velocity":70,"Duration":236220,"SoundDuration":236220,"Delta":126754610},{"NoteNumber":67,"Velocity":50,"Duration":438116,"SoundDuration":438116,"Delta":126990831},{"NoteNumber":73,"Velocity":60,"Duration":219057,"SoundDuration":219057,"Delta":126990831},{"NoteNumber":57,"Velocity":49,"Duration":438116,"SoundDuration":438116,"Delta":126990831},{"NoteNumber":73,"Velocity":55,"Duration":109529,"SoundDuration":109529,"Delta":127319418},{"NoteNumber":66,"Velocity":51,"Duration":423668,"SoundDuration":423668,"Delta":127428947},{"NoteNumber":74,"Velocity":61,"Duration":423668,"SoundDuration":423668,"Delta":127428947},{"NoteNumber":50,"Velocity":40,"Duration":423668,"SoundDuration":423668,"Delta":127428947},{"NoteNumber":65,"Velocity":49,"Duration":431592,"SoundDuration":431592,"Delta":127852616},{"NoteNumber":71,"Velocity":59,"Duration":431592,"SoundDuration":431592,"Delta":127852616},{"NoteNumber":38,"Velocity":40,"Duration":431592,"SoundDuration":431592,"Delta":127852616},{"NoteNumber":62,"Velocity":50,"Duration":429983,"SoundDuration":429983,"Delta":128284209},{"NoteNumber":68,"Velocity":60,"Duration":322487,"SoundDuration":322487,"Delta":128284209},{"NoteNumber":40,"Velocity":47,"Duration":429983,"SoundDuration":429983,"Delta":128284209},{"NoteNumber":64,"Velocity":57,"Duration":107495,"SoundDuration":107495,"Delta":128606697},{"NoteNumber":61,"Velocity":50,"Duration":643409,"SoundDuration":643409,"Delta":128714193},{"NoteNumber":69,"Velocity":60,"Duration":643409,"SoundDuration":643409,"Delta":128714193},{"NoteNumber":45,"Velocity":39,"Duration":426803,"SoundDuration":426803,"Delta":128714193},{"NoteNumber":52,"Velocity":44,"Duration":433212,"SoundDuration":433212,"Delta":129140996},{"NoteNumber":68,"Velocity":50,"Duration":216606,"SoundDuration":216606,"Delta":129357602},{"NoteNumber":71,"Velocity":60,"Duration":216606,"SoundDuration":216606,"Delta":129357602},{"NoteNumber":67,"Velocity":51,"Duration":436459,"SoundDuration":436459,"Delta":129574209},{"NoteNumber":73,"Velocity":61,"Duration":327344,"SoundDuration":327344,"Delta":129574209},{"NoteNumber":57,"Velocity":49,"Duration":436459,"SoundDuration":436459,"Delta":129574209},{"NoteNumber":76,"Velocity":60,"Duration":109114,"SoundDuration":109114,"Delta":129901553},{"NoteNumber":66,"Velocity":53,"Duration":428388,"SoundDuration":428388,"Delta":130010668},{"NoteNumber":74,"Velocity":63,"Duration":428388,"SoundDuration":428388,"Delta":130010668},{"NoteNumber":50,"Velocity":46,"Duration":428388,"SoundDuration":428388,"Delta":130010668},{"NoteNumber":65,"Velocity":50,"Duration":433212,"SoundDuration":433212,"Delta":130439056},{"NoteNumber":71,"Velocity":60,"Duration":433212,"SoundDuration":433212,"Delta":130439056},{"NoteNumber":38,"Velocity":40,"Duration":433212,"SoundDuration":433212,"Delta":130439056},{"NoteNumber":62,"Velocity":51,"Duration":426803,"SoundDuration":426803,"Delta":130872269},{"NoteNumber":68,"Velocity":61,"Duration":142267,"SoundDuration":142267,"Delta":130872269},{"NoteNumber":40,"Velocity":46,"Duration":426803,"SoundDuration":426803,"Delta":130872269},{"NoteNumber":66,"Velocity":63,"Duration":142267,"SoundDuration":142267,"Delta":131014536},{"NoteNumber":64,"Velocity":64,"Duration":142267,"SoundDuration":142267,"Delta":131156804},{"NoteNumber":61,"Velocity":58,"Duration":647389,"SoundDuration":647389,"Delta":131299072},{"NoteNumber":69,"Velocity":69,"Duration":647389,"SoundDuration":647389,"Delta":131299072},{"NoteNumber":45,"Velocity":40,"Duration":431592,"SoundDuration":431592,"Delta":131299072},{"NoteNumber":52,"Velocity":46,"Duration":431593,"SoundDuration":431593,"Delta":131730665},{"NoteNumber":68,"Velocity":50,"Duration":215796,"SoundDuration":215796,"Delta":131946461},{"NoteNumber":71,"Velocity":60,"Duration":215796,"SoundDuration":215796,"Delta":131946461},{"NoteNumber":67,"Velocity":49,"Duration":47649,"SoundDuration":47649,"Delta":132162258},{"NoteNumber":73,"Velocity":58,"Duration":47649,"SoundDuration":47649,"Delta":132162258},{"NoteNumber":57,"Velocity":49,"Duration":381193,"SoundDuration":381193,"Delta":132162258},{"NoteNumber":67,"Velocity":50,"Duration":47649,"SoundDuration":47649,"Delta":132289322},{"NoteNumber":73,"Velocity":60,"Duration":47649,"SoundDuration":47649,"Delta":132289322},{"NoteNumber":67,"Velocity":52,"Duration":47649,"SoundDuration":47649,"Delta":132416387},{"NoteNumber":73,"Velocity":62,"Duration":47649,"SoundDuration":47649,"Delta":132416387},{"NoteNumber":66,"Velocity":56,"Duration":211834,"SoundDuration":211834,"Delta":132543452},{"NoteNumber":74,"Velocity":66,"Duration":211834,"SoundDuration":211834,"Delta":132543452},{"NoteNumber":50,"Velocity":40,"Duration":423668,"SoundDuration":423668,"Delta":132543452},{"NoteNumber":65,"Velocity":49,"Duration":431592,"SoundDuration":431592,"Delta":132967121},{"NoteNumber":71,"Velocity":59,"Duration":431592,"SoundDuration":431592,"Delta":132967121},{"NoteNumber":38,"Velocity":40,"Duration":431592,"SoundDuration":431592,"Delta":132967121},{"NoteNumber":62,"Velocity":51,"Duration":47649,"SoundDuration":47649,"Delta":133398714},{"NoteNumber":68,"Velocity":61,"Duration":47649,"SoundDuration":47649,"Delta":133398714},{"NoteNumber":40,"Velocity":47,"Duration":381193,"SoundDuration":381193,"Delta":133398714},{"NoteNumber":62,"Velocity":48,"Duration":47649,"SoundDuration":47649,"Delta":133525778},{"NoteNumber":66,"Velocity":57,"Duration":47649,"SoundDuration":47649,"Delta":133525778},{"NoteNumber":62,"Velocity":48,"Duration":47649,"SoundDuration":47649,"Delta":133652843},{"NoteNumber":64,"Velocity":57,"Duration":47649,"SoundDuration":47649,"Delta":133652843},{"NoteNumber":61,"Velocity":50,"Duration":643409,"SoundDuration":643409,"Delta":133779908},{"NoteNumber":69,"Velocity":60,"Duration":643409,"SoundDuration":643409,"Delta":133779908},{"NoteNumber":45,"Velocity":39,"Duration":426803,"SoundDuration":426803,"Delta":133779908},{"NoteNumber":52,"Velocity":44,"Duration":433212,"SoundDuration":433212,"Delta":134206711},{"NoteNumber":68,"Velocity":50,"Duration":216606,"SoundDuration":216606,"Delta":134423317},{"NoteNumber":71,"Velocity":60,"Duration":216606,"SoundDuration":216606,"Delta":134423317},{"NoteNumber":67,"Velocity":48,"Duration":47892,"SoundDuration":47892,"Delta":134639924},{"NoteNumber":73,"Velocity":57,"Duration":47892,"SoundDuration":47892,"Delta":134639924},{"NoteNumber":57,"Velocity":49,"Duration":383141,"SoundDuration":383141,"Delta":134639924},{"NoteNumber":67,"Velocity":50,"Duration":47892,"SoundDuration":47892,"Delta":134767638},{"NoteNumber":74,"Velocity":60,"Duration":47892,"SoundDuration":47892,"Delta":134767638},{"NoteNumber":67,"Velocity":53,"Duration":47892,"SoundDuration":47892,"Delta":134895352},{"NoteNumber":76,"Velocity":63,"Duration":47892,"SoundDuration":47892,"Delta":134895352},{"NoteNumber":66,"Velocity":57,"Duration":214193,"SoundDuration":214193,"Delta":135023066},{"NoteNumber":74,"Velocity":68,"Duration":214193,"SoundDuration":214193,"Delta":135023066},{"NoteNumber":50,"Velocity":46,"Duration":428388,"SoundDuration":428388,"Delta":135023066},{"NoteNumber":65,"Velocity":50,"Duration":433212,"SoundDuration":433212,"Delta":135451454},{"NoteNumber":71,"Velocity":60,"Duration":433212,"SoundDuration":433212,"Delta":135451454},{"NoteNumber":38,"Velocity":40,"Duration":433212,"SoundDuration":433212,"Delta":135451454},{"NoteNumber":62,"Velocity":51,"Duration":55395,"SoundDuration":55395,"Delta":135884667},{"NoteNumber":68,"Velocity":61,"Duration":55395,"SoundDuration":55395,"Delta":135884667},{"NoteNumber":40,"Velocity":46,"Duration":443163,"SoundDuration":443163,"Delta":135884667},{"NoteNumber":62,"Velocity":51,"Duration":55395,"SoundDuration":55395,"Delta":136032388},{"NoteNumber":66,"Velocity":63,"Duration":55395,"SoundDuration":55395,"Delta":136032388},{"NoteNumber":62,"Velocity":51,"Duration":55395,"SoundDuration":55395,"Delta":136180109},{"NoteNumber":64,"Velocity":64,"Duration":55395,"SoundDuration":55395,"Delta":136180109},{"NoteNumber":61,"Velocity":57,"Duration":884955,"SoundDuration":884955,"Delta":136327831},{"NoteNumber":69,"Velocity":68,"Duration":884955,"SoundDuration":884955,"Delta":136327831},{"NoteNumber":33,"Velocity":34,"Duration":884955,"SoundDuration":884955,"Delta":136327831},{"NoteNumber":45,"Velocity":40,"Duration":884955,"SoundDuration":884955,"Delta":136327831},{"NoteNumber":76,"Velocity":45,"Duration":458014,"SoundDuration":458014,"Delta":137212787},{"NoteNumber":77,"Velocity":46,"Duration":312500,"SoundDuration":312500,"Delta":137670802},{"NoteNumber":76,"Velocity":45,"Duration":104166,"SoundDuration":104166,"Delta":137983302},{"NoteNumber":74,"Velocity":45,"Duration":427819,"SoundDuration":427819,"Delta":138087469},{"NoteNumber":65,"Velocity":27,"Duration":427819,"SoundDuration":427819,"Delta":138087469},{"NoteNumber":62,"Velocity":22,"Duration":427819,"SoundDuration":427819,"Delta":138087469},{"NoteNumber":57,"Velocity":22,"Duration":427819,"SoundDuration":427819,"Delta":138087469},{"NoteNumber":77,"Velocity":48,"Duration":523014,"SoundDuration":523014,"Delta":138515289},{"NoteNumber":65,"Velocity":27,"Duration":529379,"SoundDuration":529379,"Delta":138515289},{"NoteNumber":62,"Velocity":22,"Duration":529379,"SoundDuration":529379,"Delta":138515289},{"NoteNumber":57,"Velocity":22,"Duration":529379,"SoundDuration":529379,"Delta":138515289},{"NoteNumber":77,"Velocity":47,"Duration":848033,"SoundDuration":848033,"Delta":139044668},{"NoteNumber":65,"Velocity":25,"Duration":426354,"SoundDuration":426354,"Delta":139466348},{"NoteNumber":60,"Velocity":21,"Duration":426354,"SoundDuration":426354,"Delta":139466348},{"NoteNumber":57,"Velocity":21,"Duration":426354,"SoundDuration":426354,"Delta":139466348},{"NoteNumber":76,"Velocity":43,"Duration":431655,"SoundDuration":431655,"Delta":139892702},{"NoteNumber":64,"Velocity":25,"Duration":431655,"SoundDuration":431655,"Delta":139892702},{"NoteNumber":60,"Velocity":21,"Duration":431655,"SoundDuration":431655,"Delta":139892702},{"NoteNumber":57,"Velocity":21,"Duration":431655,"SoundDuration":431655,"Delta":139892702},{"NoteNumber":74,"Velocity":42,"Duration":70422,"SoundDuration":70422,"Delta":140324357},{"NoteNumber":76,"Velocity":43,"Duration":70422,"SoundDuration":70422,"Delta":140394779},{"NoteNumber":74,"Velocity":44,"Duration":70422,"SoundDuration":70422,"Delta":140465202},{"NoteNumber":73,"Velocity":45,"Duration":211267,"SoundDuration":211267,"Delta":140535624},{"NoteNumber":74,"Velocity":47,"Duration":215827,"SoundDuration":215827,"Delta":140746892},{"NoteNumber":62,"Velocity":28,"Duration":431655,"SoundDuration":431655,"Delta":140746892},{"NoteNumber":52,"Velocity":23,"Duration":431655,"SoundDuration":431655,"Delta":140746892},{"NoteNumber":56,"Velocity":23,"Duration":431655,"SoundDuration":431655,"Delta":140746892},{"NoteNumber":75,"Velocity":45,"Duration":215827,"SoundDuration":215827,"Delta":140962719},{"NoteNumber":76,"Velocity":51,"Duration":221402,"SoundDuration":221402,"Delta":141178547},{"NoteNumber":62,"Velocity":25,"Duration":463337,"SoundDuration":463337,"Delta":141178547},{"NoteNumber":56,"Velocity":21,"Duration":463337,"SoundDuration":463337,"Delta":141178547},{"NoteNumber":52,"Velocity":21,"Duration":463337,"SoundDuration":463337,"Delta":141178547},{"NoteNumber":71,"Velocity":46,"Duration":241935,"SoundDuration":241935,"Delta":141399949},{"NoteNumber":74,"Velocity":54,"Duration":863310,"SoundDuration":863310,"Delta":141641884},{"NoteNumber":45,"Velocity":30,"Duration":431655,"SoundDuration":431655,"Delta":142073539},{"NoteNumber":72,"Velocity":45,"Duration":431654,"SoundDuration":431654,"Delta":142505194},{"NoteNumber":60,"Velocity":28,"Duration":431654,"SoundDuration":431654,"Delta":142505194},{"NoteNumber":52,"Velocity":22,"Duration":431654,"SoundDuration":431654,"Delta":142505194},{"NoteNumber":69,"Velocity":62,"Duration":138408,"SoundDuration":138408,"Delta":142936849},{"NoteNumber":71,"Velocity":57,"Duration":138408,"SoundDuration":138408,"Delta":143075258},{"NoteNumber":69,"Velocity":57,"Duration":138408,"SoundDuration":138408,"Delta":143213666},{"NoteNumber":68,"Velocity":63,"Duration":207612,"SoundDuration":207612,"Delta":143352074},{"NoteNumber":52,"Velocity":39,"Duration":207612,"SoundDuration":207612,"Delta":143352074},{"NoteNumber":60,"Velocity":46,"Duration":207612,"SoundDuration":207612,"Delta":143352074},{"NoteNumber":69,"Velocity":67,"Duration":207612,"SoundDuration":207612,"Delta":143767299},{"NoteNumber":45,"Velocity":48,"Duration":207612,"SoundDuration":207612,"Delta":143767299},{"NoteNumber":71,"Velocity":70,"Duration":215054,"SoundDuration":215054,"Delta":144182524},{"NoteNumber":76,"Velocity":72,"Duration":845112,"SoundDuration":845112,"Delta":144612632},{"NoteNumber":52,"Velocity":41,"Duration":419579,"SoundDuration":419579,"Delta":144612632},{"NoteNumber":59,"Velocity":49,"Duration":419579,"SoundDuration":419579,"Delta":144612632},{"NoteNumber":55,"Velocity":41,"Duration":419579,"SoundDuration":419579,"Delta":144612632},{"NoteNumber":47,"Velocity":56,"Duration":425532,"SoundDuration":425532,"Delta":145032212},{"NoteNumber":71,"Velocity":76,"Duration":209058,"SoundDuration":209058,"Delta":145457744},{"NoteNumber":67,"Velocity":73,"Duration":209058,"SoundDuration":209058,"Delta":145666803},{"NoteNumber":64,"Velocity":76,"Duration":209058,"SoundDuration":209058,"Delta":145875862},{"NoteNumber":47,"Velocity":45,"Duration":418118,"SoundDuration":418118,"Delta":145875862},{"NoteNumber":55,"Velocity":45,"Duration":418118,"SoundDuration":418118,"Delta":145875862},{"NoteNumber":59,"Velocity":54,"Duration":418118,"SoundDuration":418118,"Delta":145875862},{"NoteNumber":71,"Velocity":71,"Duration":209059,"SoundDuration":209059,"Delta":146084921},{"NoteNumber":63,"Velocity":73,"Duration":433212,"SoundDuration":433212,"Delta":146293980},{"NoteNumber":47,"Velocity":41,"Duration":433212,"SoundDuration":433212,"Delta":146293980},{"NoteNumber":54,"Velocity":41,"Duration":433212,"SoundDuration":433212,"Delta":146293980},{"NoteNumber":59,"Velocity":49,"Duration":433212,"SoundDuration":433212,"Delta":146293980},{"NoteNumber":64,"Velocity":76,"Duration":891227,"SoundDuration":891227,"Delta":146727193},{"NoteNumber":52,"Velocity":45,"Duration":433212,"SoundDuration":433212,"Delta":146727193},{"NoteNumber":55,"Velocity":45,"Duration":433212,"SoundDuration":433212,"Delta":146727193},{"NoteNumber":59,"Velocity":54,"Duration":433212,"SoundDuration":433212,"Delta":146727193},{"NoteNumber":40,"Velocity":50,"Duration":458014,"SoundDuration":458014,"Delta":147160406},{"NoteNumber":76,"Velocity":45,"Duration":430107,"SoundDuration":430107,"Delta":147618421},{"NoteNumber":77,"Velocity":46,"Duration":312500,"SoundDuration":312500,"Delta":148048529},{"NoteNumber":76,"Velocity":45,"Duration":104166,"SoundDuration":104166,"Delta":148361030},{"NoteNumber":74,"Velocity":45,"Duration":427819,"SoundDuration":427819,"Delta":148465196},{"NoteNumber":65,"Velocity":27,"Duration":427819,"SoundDuration":427819,"Delta":148465196},{"NoteNumber":62,"Velocity":22,"Duration":427819,"SoundDuration":427819,"Delta":148465196},{"NoteNumber":57,"Velocity":22,"Duration":427819,"SoundDuration":427819,"Delta":148465196},{"NoteNumber":77,"Velocity":48,"Duration":543153,"SoundDuration":543153,"Delta":148893016},{"NoteNumber":65,"Velocity":27,"Duration":548648,"SoundDuration":548648,"Delta":148893016},{"NoteNumber":62,"Velocity":22,"Duration":548648,"SoundDuration":548648,"Delta":148893016},{"NoteNumber":57,"Velocity":22,"Duration":548648,"SoundDuration":548648,"Delta":148893016},{"NoteNumber":77,"Velocity":47,"Duration":848033,"SoundDuration":848033,"Delta":149441665},{"NoteNumber":65,"Velocity":25,"Duration":426354,"SoundDuration":426354,"Delta":149863344},{"NoteNumber":60,"Velocity":21,"Duration":426354,"SoundDuration":426354,"Delta":149863344},{"NoteNumber":57,"Velocity":21,"Duration":426354,"SoundDuration":426354,"Delta":149863344},{"NoteNumber":76,"Velocity":43,"Duration":431655,"SoundDuration":431655,"Delta":150289698},{"NoteNumber":64,"Velocity":25,"Duration":431655,"SoundDuration":431655,"Delta":150289698},{"NoteNumber":60,"Velocity":21,"Duration":431655,"SoundDuration":431655,"Delta":150289698},{"NoteNumber":57,"Velocity":21,"Duration":431655,"SoundDuration":431655,"Delta":150289698},{"NoteNumber":74,"Velocity":42,"Duration":70422,"SoundDuration":70422,"Delta":150721353},{"NoteNumber":76,"Velocity":43,"Duration":70422,"SoundDuration":70422,"Delta":150791776},{"NoteNumber":74,"Velocity":44,"Duration":70422,"SoundDuration":70422,"Delta":150862198},{"NoteNumber":73,"Velocity":45,"Duration":211267,"SoundDuration":211267,"Delta":150932621},{"NoteNumber":74,"Velocity":47,"Duration":215827,"SoundDuration":215827,"Delta":151143888},{"NoteNumber":62,"Velocity":28,"Duration":431655,"SoundDuration":431655,"Delta":151143888},{"NoteNumber":52,"Velocity":23,"Duration":431655,"SoundDuration":431655,"Delta":151143888},{"NoteNumber":56,"Velocity":23,"Duration":431655,"SoundDuration":431655,"Delta":151143888},{"NoteNumber":75,"Velocity":45,"Duration":215827,"SoundDuration":215827,"Delta":151359716},{"NoteNumber":76,"Velocity":47,"Duration":224718,"SoundDuration":224718,"Delta":151575543},{"NoteNumber":62,"Velocity":25,"Duration":485588,"SoundDuration":485588,"Delta":151575543},{"NoteNumber":56,"Velocity":21,"Duration":485588,"SoundDuration":485588,"Delta":151575543},{"NoteNumber":52,"Velocity":21,"Duration":485588,"SoundDuration":485588,"Delta":151575543},{"NoteNumber":71,"Velocity":42,"Duration":124999,"SoundDuration":124999,"Delta":151800262},{"NoteNumber":71,"Velocity":42,"Duration":130434,"SoundDuration":130434,"Delta":151930697},{"NoteNumber":74,"Velocity":53,"Duration":854190,"SoundDuration":854190,"Delta":152061132},{"NoteNumber":53,"Velocity":21,"Duration":431655,"SoundDuration":431655,"Delta":152483667},{"NoteNumber":57,"Velocity":21,"Duration":431655,"SoundDuration":431655,"Delta":152483667},{"NoteNumber":62,"Velocity":28,"Duration":431655,"SoundDuration":431655,"Delta":152483667},{"NoteNumber":72,"Velocity":45,"Duration":431655,"SoundDuration":431655,"Delta":152915322},{"NoteNumber":57,"Velocity":21,"Duration":431655,"SoundDuration":431655,"Delta":152915322},{"NoteNumber":60,"Velocity":26,"Duration":431655,"SoundDuration":431655,"Delta":152915322},{"NoteNumber":53,"Velocity":21,"Duration":431655,"SoundDuration":431655,"Delta":152915322},{"NoteNumber":69,"Velocity":41,"Duration":138408,"SoundDuration":138408,"Delta":153346977},{"NoteNumber":70,"Velocity":38,"Duration":138408,"SoundDuration":138408,"Delta":153485385},{"NoteNumber":69,"Velocity":38,"Duration":138408,"SoundDuration":138408,"Delta":153623793},{"NoteNumber":67,"Velocity":42,"Duration":456274,"SoundDuration":456274,"Delta":153762202},{"NoteNumber":60,"Velocity":26,"Duration":456274,"SoundDuration":456274,"Delta":153762202},{"NoteNumber":53,"Velocity":26,"Duration":456274,"SoundDuration":456274,"Delta":153762202},{"NoteNumber":63,"Velocity":30,"Duration":456274,"SoundDuration":456274,"Delta":153762202},{"NoteNumber":69,"Velocity":45,"Duration":494234,"SoundDuration":494234,"Delta":154218476},{"NoteNumber":53,"Velocity":26,"Duration":494234,"SoundDuration":494234,"Delta":154218476},{"NoteNumber":60,"Velocity":26,"Duration":494234,"SoundDuration":494234,"Delta":154218476},{"NoteNumber":63,"Velocity":30,"Duration":494234,"SoundDuration":494234,"Delta":154218476},{"NoteNumber":70,"Velocity":47,"Duration":582524,"SoundDuration":582524,"Delta":154712710},{"NoteNumber":58,"Velocity":30,"Duration":1111625,"SoundDuration":1111625,"Delta":154712710},{"NoteNumber":62,"Velocity":33,"Duration":582524,"SoundDuration":582524,"Delta":154712710},{"NoteNumber":74,"Velocity":48,"Duration":529100,"SoundDuration":529100,"Delta":155295234},{"NoteNumber":65,"Velocity":33,"Duration":529100,"SoundDuration":529100,"Delta":155295234},{"NoteNumber":69,"Velocity":40,"Duration":358851,"SoundDuration":358851,"Delta":156389307},{"NoteNumber":68,"Velocity":37,"Duration":119617,"SoundDuration":119617,"Delta":156748159},{"NoteNumber":62,"Velocity":34,"Duration":500834,"SoundDuration":500834,"Delta":156867776},{"NoteNumber":64,"Velocity":40,"Duration":500834,"SoundDuration":500834,"Delta":156867776},{"NoteNumber":52,"Velocity":24,"Duration":500834,"SoundDuration":500834,"Delta":156867776},{"NoteNumber":59,"Velocity":29,"Duration":500834,"SoundDuration":500834,"Delta":156867776},{"NoteNumber":68,"Velocity":38,"Duration":525394,"SoundDuration":525394,"Delta":157368611},{"NoteNumber":62,"Velocity":32,"Duration":525394,"SoundDuration":525394,"Delta":157368611},{"NoteNumber":52,"Velocity":22,"Duration":525394,"SoundDuration":525394,"Delta":157368611},{"NoteNumber":59,"Velocity":26,"Duration":525394,"SoundDuration":525394,"Delta":157368611},{"NoteNumber":60,"Velocity":33,"Duration":573613,"SoundDuration":573613,"Delta":157894005},{"NoteNumber":69,"Velocity":39,"Duration":1110286,"SoundDuration":1110286,"Delta":157894005},{"NoteNumber":45,"Velocity":24,"Duration":573613,"SoundDuration":573613,"Delta":157894005},{"NoteNumber":52,"Velocity":29,"Duration":573613,"SoundDuration":573613,"Delta":157894005},{"NoteNumber":33,"Velocity":25,"Duration":536673,"SoundDuration":536673,"Delta":158467619}],"license":{"name":"Creative Commons Attribution-ShareAlike 3.0 Germany","url":"http://creativecommons.org/licenses/by-sa/3.0/de/deed.en","text":"The MIDI, audio (MP3, OGG) and video files of Bernd Krueger are licensed under the cc-by-sa Germany License. This means that you can use and adapt the files, as long as you attribute the copyright holder.\n\nName: Bernd Krueger\nSource: http://www.piano-midi.de\n\nThe distribution or public playback of the files is only allowed under identical license conditions.\n\nThe scores are open source.","attribution":"MIDI files by Bernd Krueger (piano-midi.de)","attributionUrl":"http://www.piano-midi.de"}}