{"title":"Prelude No. 19, Opus 28","artist":"Chopin","durationMs":65688,"midiSha256":"9b66868b282ddbdcaa6dc24a5bcc65fd55804d678bfbfe15f3a82b37518b1cc5","midiObject":[{"NoteNumber":70,"Velocity":49,"Duration":322078,"SoundDuration":322078,"Delta":0},{"NoteNumber":70,"Velocity":48,"Duration":104619,"SoundDuration":104619,"Delta":322077},{"NoteNumber":39,"Velocity":36,"Duration":104619,"SoundDuration":104619,"Delta":322077},{"NoteNumber":58,"Velocity":37,"Duration":104897,"SoundDuration":104897,"Delta":426697},{"NoteNumber":55,"Velocity":28,"Duration":104897,"SoundDuration":104897,"Delta":426697},{"NoteNumber":67,"Velocity":37,"Duration":104534,"SoundDuration":104534,"Delta":531595},{"NoteNumber":46,"Velocity":28,"Duration":104534,"SoundDuration":104534,"Delta":531595},{"NoteNumber":75,"Velocity":52,"Duration":104389,"SoundDuration":104389,"Delta":636129},{"NoteNumber":39,"Velocity":33,"Duration":104389,"SoundDuration":104389,"Delta":636129},{"NoteNumber":63,"Velocity":39,"Duration":103680,"SoundDuration":103680,"Delta":740519},{"NoteNumber":55,"Velocity":29,"Duration":103680,"SoundDuration":103680,"Delta":740519},{"NoteNumber":70,"Velocity":40,"Duration":102830,"SoundDuration":102830,"Delta":844199},{"NoteNumber":46,"Velocity":30,"Duration":102830,"SoundDuration":102830,"Delta":844199},{"NoteNumber":79,"Velocity":56,"Duration":102481,"SoundDuration":102481,"Delta":947029},{"NoteNumber":39,"Velocity":36,"Duration":102481,"SoundDuration":102481,"Delta":947029},{"NoteNumber":67,"Velocity":41,"Duration":102203,"SoundDuration":102203,"Delta":1049511},{"NoteNumber":58,"Velocity":32,"Duration":102203,"SoundDuration":102203,"Delta":1049511},{"NoteNumber":75,"Velocity":44,"Duration":101790,"SoundDuration":101790,"Delta":1151715},{"NoteNumber":46,"Velocity":32,"Duration":101790,"SoundDuration":101790,"Delta":1151715},{"NoteNumber":82,"Velocity":63,"Duration":101448,"SoundDuration":101448,"Delta":1253505},{"NoteNumber":39,"Velocity":41,"Duration":101448,"SoundDuration":101448,"Delta":1253505},{"NoteNumber":70,"Velocity":49,"Duration":101108,"SoundDuration":101108,"Delta":1354953},{"NoteNumber":63,"Velocity":33,"Duration":101108,"SoundDuration":101108,"Delta":1354953},{"NoteNumber":79,"Velocity":50,"Duration":100703,"SoundDuration":100703,"Delta":1456062},{"NoteNumber":55,"Velocity":34,"Duration":100703,"SoundDuration":100703,"Delta":1456062},{"NoteNumber":87,"Velocity":68,"Duration":100371,"SoundDuration":100371,"Delta":1556766},{"NoteNumber":46,"Velocity":42,"Duration":100371,"SoundDuration":100371,"Delta":1556766},{"NoteNumber":75,"Velocity":52,"Duration":100041,"SoundDuration":100041,"Delta":1657138},{"NoteNumber":67,"Velocity":35,"Duration":100041,"SoundDuration":100041,"Delta":1657138},{"NoteNumber":82,"Velocity":55,"Duration":99645,"SoundDuration":99645,"Delta":1757179},{"NoteNumber":58,"Velocity":37,"Duration":99645,"SoundDuration":99645,"Delta":1757179},{"NoteNumber":91,"Velocity":71,"Duration":98603,"SoundDuration":98603,"Delta":1856824},{"NoteNumber":51,"Velocity":47,"Duration":98603,"SoundDuration":98603,"Delta":1856824},{"NoteNumber":79,"Velocity":54,"Duration":99318,"SoundDuration":99318,"Delta":1955428},{"NoteNumber":70,"Velocity":39,"Duration":99318,"SoundDuration":99318,"Delta":1955428},{"NoteNumber":82,"Velocity":57,"Duration":100107,"SoundDuration":100107,"Delta":2054746},{"NoteNumber":58,"Velocity":45,"Duration":100107,"SoundDuration":100107,"Delta":2054746},{"NoteNumber":89,"Velocity":75,"Duration":100502,"SoundDuration":100502,"Delta":2154854},{"NoteNumber":51,"Velocity":55,"Duration":100502,"SoundDuration":100502,"Delta":2154854},{"NoteNumber":74,"Velocity":58,"Duration":101858,"SoundDuration":101858,"Delta":2255356},{"NoteNumber":71,"Velocity":39,"Duration":101858,"SoundDuration":101858,"Delta":2255356},{"NoteNumber":80,"Velocity":56,"Duration":102134,"SoundDuration":102134,"Delta":2357215},{"NoteNumber":59,"Velocity":38,"Duration":102134,"SoundDuration":102134,"Delta":2357215},{"NoteNumber":87,"Velocity":72,"Duration":102411,"SoundDuration":102411,"Delta":2459350},{"NoteNumber":51,"Velocity":49,"Duration":102411,"SoundDuration":102411,"Delta":2459350},{"NoteNumber":75,"Velocity":56,"Duration":102690,"SoundDuration":102690,"Delta":2561762},{"NoteNumber":72,"Velocity":38,"Duration":102690,"SoundDuration":102690,"Delta":2561762},{"NoteNumber":80,"Velocity":55,"Duration":102970,"SoundDuration":102970,"Delta":2664452},{"NoteNumber":60,"Velocity":36,"Duration":102970,"SoundDuration":102970,"Delta":2664452},{"NoteNumber":84,"Velocity":68,"Duration":103252,"SoundDuration":103252,"Delta":2767423},{"NoteNumber":51,"Velocity":41,"Duration":103252,"SoundDuration":103252,"Delta":2767423},{"NoteNumber":72,"Velocity":51,"Duration":103252,"SoundDuration":103252,"Delta":2870675},{"NoteNumber":68,"Velocity":33,"Duration":103252,"SoundDuration":103252,"Delta":2870675},{"NoteNumber":80,"Velocity":49,"Duration":107974,"SoundDuration":107974,"Delta":2973927},{"NoteNumber":62,"Velocity":32,"Duration":107974,"SoundDuration":107974,"Delta":2973927},{"NoteNumber":84,"Velocity":70,"Duration":103252,"SoundDuration":103252,"Delta":3081901},{"NoteNumber":51,"Velocity":46,"Duration":103252,"SoundDuration":103252,"Delta":3081901},{"NoteNumber":72,"Velocity":51,"Duration":103535,"SoundDuration":103535,"Delta":3185154},{"NoteNumber":67,"Velocity":36,"Duration":103535,"SoundDuration":103535,"Delta":3185154},{"NoteNumber":79,"Velocity":46,"Duration":103820,"SoundDuration":103820,"Delta":3288689},{"NoteNumber":63,"Velocity":32,"Duration":103820,"SoundDuration":103820,"Delta":3288689},{"NoteNumber":82,"Velocity":62,"Duration":104173,"SoundDuration":104173,"Delta":3392510},{"NoteNumber":58,"Velocity":39,"Duration":104173,"SoundDuration":104173,"Delta":3392510},{"NoteNumber":70,"Velocity":43,"Duration":104462,"SoundDuration":104462,"Delta":3496684},{"NoteNumber":67,"Velocity":30,"Duration":104462,"SoundDuration":104462,"Delta":3496684},{"NoteNumber":75,"Velocity":43,"Duration":104751,"SoundDuration":104751,"Delta":3601146},{"NoteNumber":63,"Velocity":30,"Duration":104751,"SoundDuration":104751,"Delta":3601146},{"NoteNumber":79,"Velocity":60,"Duration":105043,"SoundDuration":105043,"Delta":3705898},{"NoteNumber":51,"Velocity":35,"Duration":105043,"SoundDuration":105043,"Delta":3705898},{"NoteNumber":67,"Velocity":43,"Duration":105410,"SoundDuration":105410,"Delta":3810941},{"NoteNumber":63,"Velocity":29,"Duration":105410,"SoundDuration":105410,"Delta":3810941},{"NoteNumber":70,"Velocity":41,"Duration":104840,"SoundDuration":104840,"Delta":3916351},{"NoteNumber":55,"Velocity":29,"Duration":104840,"SoundDuration":104840,"Delta":3916351},{"NoteNumber":75,"Velocity":53,"Duration":102690,"SoundDuration":102690,"Delta":4021192},{"NoteNumber":41,"Velocity":36,"Duration":102690,"SoundDuration":102690,"Delta":4021192},{"NoteNumber":63,"Velocity":38,"Duration":102411,"SoundDuration":102411,"Delta":4123883},{"NoteNumber":60,"Velocity":28,"Duration":102411,"SoundDuration":102411,"Delta":4123883},{"NoteNumber":69,"Velocity":38,"Duration":102134,"SoundDuration":102134,"Delta":4226294},{"NoteNumber":53,"Velocity":29,"Duration":102134,"SoundDuration":102134,"Delta":4226294},{"NoteNumber":74,"Velocity":54,"Duration":101858,"SoundDuration":101858,"Delta":4328429},{"NoteNumber":48,"Velocity":34,"Duration":101858,"SoundDuration":101858,"Delta":4328429},{"NoteNumber":62,"Velocity":44,"Duration":101584,"SoundDuration":101584,"Delta":4430288},{"NoteNumber":60,"Velocity":30,"Duration":101584,"SoundDuration":101584,"Delta":4430288},{"NoteNumber":69,"Velocity":48,"Duration":101312,"SoundDuration":101312,"Delta":4531872},{"NoteNumber":53,"Velocity":32,"Duration":101312,"SoundDuration":101312,"Delta":4531872},{"NoteNumber":75,"Velocity":64,"Duration":101040,"SoundDuration":101040,"Delta":4633184},{"NoteNumber":41,"Velocity":41,"Duration":101040,"SoundDuration":101040,"Delta":4633184},{"NoteNumber":63,"Velocity":51,"Duration":100771,"SoundDuration":100771,"Delta":4734225},{"NoteNumber":60,"Velocity":37,"Duration":100771,"SoundDuration":100771,"Delta":4734225},{"NoteNumber":69,"Velocity":55,"Duration":100502,"SoundDuration":100502,"Delta":4834996},{"NoteNumber":53,"Velocity":42,"Duration":100502,"SoundDuration":100502,"Delta":4834996},{"NoteNumber":79,"Velocity":70,"Duration":98474,"SoundDuration":98474,"Delta":4935499},{"NoteNumber":46,"Velocity":50,"Duration":98474,"SoundDuration":98474,"Delta":4935499},{"NoteNumber":67,"Velocity":55,"Duration":98797,"SoundDuration":98797,"Delta":5033974},{"NoteNumber":63,"Velocity":35,"Duration":98797,"SoundDuration":98797,"Delta":5033974},{"NoteNumber":70,"Velocity":53,"Duration":99121,"SoundDuration":99121,"Delta":5132771},{"NoteNumber":53,"Velocity":35,"Duration":99121,"SoundDuration":99121,"Delta":5132771},{"NoteNumber":77,"Velocity":65,"Duration":99513,"SoundDuration":99513,"Delta":5231893},{"NoteNumber":50,"Velocity":43,"Duration":99513,"SoundDuration":99513,"Delta":5231893},{"NoteNumber":65,"Velocity":49,"Duration":99843,"SoundDuration":99843,"Delta":5331407},{"NoteNumber":62,"Velocity":36,"Duration":99843,"SoundDuration":99843,"Delta":5331407},{"NoteNumber":70,"Velocity":47,"Duration":100174,"SoundDuration":100174,"Delta":5431250},{"NoteNumber":53,"Velocity":34,"Duration":100174,"SoundDuration":100174,"Delta":5431250},{"NoteNumber":74,"Velocity":63,"Duration":100569,"SoundDuration":100569,"Delta":5531424},{"NoteNumber":46,"Velocity":39,"Duration":100569,"SoundDuration":100569,"Delta":5531424},{"NoteNumber":62,"Velocity":42,"Duration":100905,"SoundDuration":100905,"Delta":5631994},{"NoteNumber":58,"Velocity":34,"Duration":100905,"SoundDuration":100905,"Delta":5631994},{"NoteNumber":65,"Velocity":41,"Duration":100773,"SoundDuration":100773,"Delta":5732899},{"NoteNumber":53,"Velocity":33,"Duration":100773,"SoundDuration":100773,"Delta":5732899},{"NoteNumber":75,"Velocity":53,"Duration":105540,"SoundDuration":105540,"Delta":5833673},{"NoteNumber":41,"Velocity":36,"Duration":105540,"SoundDuration":105540,"Delta":5833673},{"NoteNumber":63,"Velocity":38,"Duration":103902,"SoundDuration":103902,"Delta":5939214},{"NoteNumber":60,"Velocity":28,"Duration":103902,"SoundDuration":103902,"Delta":5939214},{"NoteNumber":69,"Velocity":38,"Duration":104507,"SoundDuration":104507,"Delta":6043117},{"NoteNumber":53,"Velocity":29,"Duration":104507,"SoundDuration":104507,"Delta":6043117},{"NoteNumber":74,"Velocity":54,"Duration":104031,"SoundDuration":104031,"Delta":6147624},{"NoteNumber":48,"Velocity":34,"Duration":104031,"SoundDuration":104031,"Delta":6147624},{"NoteNumber":62,"Velocity":44,"Duration":103627,"SoundDuration":103627,"Delta":6251655},{"NoteNumber":59,"Velocity":30,"Duration":103627,"SoundDuration":103627,"Delta":6251655},{"NoteNumber":69,"Velocity":47,"Duration":103159,"SoundDuration":103159,"Delta":6355282},{"NoteNumber":53,"Velocity":32,"Duration":103159,"SoundDuration":103159,"Delta":6355282},{"NoteNumber":75,"Velocity":59,"Duration":103493,"SoundDuration":103493,"Delta":6458442},{"NoteNumber":41,"Velocity":38,"Duration":103493,"SoundDuration":103493,"Delta":6458442},{"NoteNumber":63,"Velocity":50,"Duration":104576,"SoundDuration":104576,"Delta":6561936},{"NoteNumber":60,"Velocity":34,"Duration":104576,"SoundDuration":104576,"Delta":6561936},{"NoteNumber":69,"Velocity":54,"Duration":120188,"SoundDuration":120188,"Delta":6666512},{"NoteNumber":53,"Velocity":35,"Duration":120188,"SoundDuration":120188,"Delta":6666512},{"NoteNumber":79,"Velocity":67,"Duration":104305,"SoundDuration":104305,"Delta":6786700},{"NoteNumber":46,"Velocity":49,"Duration":104305,"SoundDuration":104305,"Delta":6786700},{"NoteNumber":67,"Velocity":49,"Duration":104166,"SoundDuration":104166,"Delta":6891006},{"NoteNumber":63,"Velocity":35,"Duration":104166,"SoundDuration":104166,"Delta":6891006},{"NoteNumber":72,"Velocity":48,"Duration":103627,"SoundDuration":103627,"Delta":6995173},{"NoteNumber":56,"Velocity":35,"Duration":103627,"SoundDuration":103627,"Delta":6995173},{"NoteNumber":77,"Velocity":60,"Duration":103092,"SoundDuration":103092,"Delta":7098800},{"NoteNumber":53,"Velocity":43,"Duration":103092,"SoundDuration":103092,"Delta":7098800},{"NoteNumber":65,"Velocity":43,"Duration":103092,"SoundDuration":103092,"Delta":7201893},{"NoteNumber":62,"Velocity":35,"Duration":103092,"SoundDuration":103092,"Delta":7201893},{"NoteNumber":68,"Velocity":42,"Duration":102630,"SoundDuration":102630,"Delta":7304985},{"NoteNumber":53,"Velocity":34,"Duration":102630,"SoundDuration":102630,"Delta":7304985},{"NoteNumber":72,"Velocity":58,"Duration":104237,"SoundDuration":104237,"Delta":7407616},{"NoteNumber":46,"Velocity":39,"Duration":104237,"SoundDuration":104237,"Delta":7407616},{"NoteNumber":60,"Velocity":42,"Duration":106033,"SoundDuration":106033,"Delta":7511853},{"NoteNumber":56,"Velocity":33,"Duration":106033,"SoundDuration":106033,"Delta":7511853},{"NoteNumber":65,"Velocity":41,"Duration":105989,"SoundDuration":105989,"Delta":7617886},{"NoteNumber":50,"Velocity":32,"Duration":105989,"SoundDuration":105989,"Delta":7617886},{"NoteNumber":70,"Velocity":53,"Duration":104619,"SoundDuration":104619,"Delta":7723876},{"NoteNumber":39,"Velocity":36,"Duration":104619,"SoundDuration":104619,"Delta":7723876},{"NoteNumber":58,"Velocity":38,"Duration":104897,"SoundDuration":104897,"Delta":7828496},{"NoteNumber":55,"Velocity":28,"Duration":104897,"SoundDuration":104897,"Delta":7828496},{"NoteNumber":67,"Velocity":37,"Duration":104534,"SoundDuration":104534,"Delta":7933393},{"NoteNumber":46,"Velocity":28,"Duration":104534,"SoundDuration":104534,"Delta":7933393},{"NoteNumber":75,"Velocity":52,"Duration":104389,"SoundDuration":104389,"Delta":8037928},{"NoteNumber":39,"Velocity":33,"Duration":104389,"SoundDuration":104389,"Delta":8037928},{"NoteNumber":63,"Velocity":39,"Duration":103680,"SoundDuration":103680,"Delta":8142317},{"NoteNumber":55,"Velocity":29,"Duration":103680,"SoundDuration":103680,"Delta":8142317},{"NoteNumber":70,"Velocity":40,"Duration":102830,"SoundDuration":102830,"Delta":8245997},{"NoteNumber":46,"Velocity":30,"Duration":102830,"SoundDuration":102830,"Delta":8245997},{"NoteNumber":79,"Velocity":56,"Duration":102481,"SoundDuration":102481,"Delta":8348828},{"NoteNumber":39,"Velocity":36,"Duration":102481,"SoundDuration":102481,"Delta":8348828},{"NoteNumber":67,"Velocity":41,"Duration":102203,"SoundDuration":102203,"Delta":8451309},{"NoteNumber":58,"Velocity":32,"Duration":102203,"SoundDuration":102203,"Delta":8451309},{"NoteNumber":75,"Velocity":44,"Duration":101790,"SoundDuration":101790,"Delta":8553513},{"NoteNumber":46,"Velocity":32,"Duration":101790,"SoundDuration":101790,"Delta":8553513},{"NoteNumber":82,"Velocity":69,"Duration":102001,"SoundDuration":102001,"Delta":8655304},{"NoteNumber":39,"Velocity":40,"Duration":102001,"SoundDuration":102001,"Delta":8655304},{"NoteNumber":70,"Velocity":49,"Duration":101108,"SoundDuration":101108,"Delta":8757305},{"NoteNumber":63,"Velocity":33,"Duration":101108,"SoundDuration":101108,"Delta":8757305},{"NoteNumber":79,"Velocity":50,"Duration":100703,"SoundDuration":100703,"Delta":8858413},{"NoteNumber":55,"Velocity":34,"Duration":100703,"SoundDuration":100703,"Delta":8858413},{"NoteNumber":87,"Velocity":74,"Duration":100371,"SoundDuration":100371,"Delta":8959117},{"NoteNumber":46,"Velocity":42,"Duration":100371,"SoundDuration":100371,"Delta":8959117},{"NoteNumber":75,"Velocity":52,"Duration":100041,"SoundDuration":100041,"Delta":9059489},{"NoteNumber":67,"Velocity":35,"Duration":100041,"SoundDuration":100041,"Delta":9059489},{"NoteNumber":82,"Velocity":55,"Duration":99645,"SoundDuration":99645,"Delta":9159530},{"NoteNumber":58,"Velocity":37,"Duration":99645,"SoundDuration":99645,"Delta":9159530},{"NoteNumber":91,"Velocity":77,"Duration":98603,"SoundDuration":98603,"Delta":9259175},{"NoteNumber":51,"Velocity":50,"Duration":98603,"SoundDuration":98603,"Delta":9259175},{"NoteNumber":79,"Velocity":63,"Duration":99318,"SoundDuration":99318,"Delta":9357779},{"NoteNumber":70,"Velocity":39,"Duration":99318,"SoundDuration":99318,"Delta":9357779},{"NoteNumber":82,"Velocity":68,"Duration":100107,"SoundDuration":100107,"Delta":9457098},{"NoteNumber":58,"Velocity":44,"Duration":100107,"SoundDuration":100107,"Delta":9457098},{"NoteNumber":89,"Velocity":81,"Duration":100502,"SoundDuration":100502,"Delta":9557205},{"NoteNumber":51,"Velocity":54,"Duration":100502,"SoundDuration":100502,"Delta":9557205},{"NoteNumber":74,"Velocity":64,"Duration":101858,"SoundDuration":101858,"Delta":9657708},{"NoteNumber":71,"Velocity":39,"Duration":101858,"SoundDuration":101858,"Delta":9657708},{"NoteNumber":80,"Velocity":61,"Duration":102134,"SoundDuration":102134,"Delta":9759567},{"NoteNumber":59,"Velocity":38,"Duration":102134,"SoundDuration":102134,"Delta":9759567},{"NoteNumber":87,"Velocity":75,"Duration":102411,"SoundDuration":102411,"Delta":9861701},{"NoteNumber":51,"Velocity":49,"Duration":102411,"SoundDuration":102411,"Delta":9861701},{"NoteNumber":75,"Velocity":56,"Duration":102690,"SoundDuration":102690,"Delta":9964113},{"NoteNumber":72,"Velocity":38,"Duration":102690,"SoundDuration":102690,"Delta":9964113},{"NoteNumber":80,"Velocity":55,"Duration":102970,"SoundDuration":102970,"Delta":10066803},{"NoteNumber":60,"Velocity":36,"Duration":102970,"SoundDuration":102970,"Delta":10066803},{"NoteNumber":84,"Velocity":67,"Duration":103252,"SoundDuration":103252,"Delta":10169774},{"NoteNumber":51,"Velocity":41,"Duration":103252,"SoundDuration":103252,"Delta":10169774},{"NoteNumber":72,"Velocity":51,"Duration":103252,"SoundDuration":103252,"Delta":10273026},{"NoteNumber":68,"Velocity":33,"Duration":103252,"SoundDuration":103252,"Delta":10273026},{"NoteNumber":80,"Velocity":49,"Duration":107974,"SoundDuration":107974,"Delta":10376279},{"NoteNumber":62,"Velocity":32,"Duration":107974,"SoundDuration":107974,"Delta":10376279},{"NoteNumber":84,"Velocity":70,"Duration":103252,"SoundDuration":103252,"Delta":10484253},{"NoteNumber":51,"Velocity":46,"Duration":103252,"SoundDuration":103252,"Delta":10484253},{"NoteNumber":72,"Velocity":42,"Duration":103535,"SoundDuration":103535,"Delta":10587505},{"NoteNumber":67,"Velocity":30,"Duration":103535,"SoundDuration":103535,"Delta":10587505},{"NoteNumber":79,"Velocity":43,"Duration":103820,"SoundDuration":103820,"Delta":10691041},{"NoteNumber":63,"Velocity":31,"Duration":103820,"SoundDuration":103820,"Delta":10691041},{"NoteNumber":82,"Velocity":62,"Duration":104173,"SoundDuration":104173,"Delta":10794861},{"NoteNumber":58,"Velocity":39,"Duration":104173,"SoundDuration":104173,"Delta":10794861},{"NoteNumber":70,"Velocity":43,"Duration":104461,"SoundDuration":104461,"Delta":10899035},{"NoteNumber":67,"Velocity":30,"Duration":104461,"SoundDuration":104461,"Delta":10899035},{"NoteNumber":75,"Velocity":43,"Duration":104751,"SoundDuration":104751,"Delta":11003497},{"NoteNumber":63,"Velocity":30,"Duration":104751,"SoundDuration":104751,"Delta":11003497},{"NoteNumber":79,"Velocity":60,"Duration":105043,"SoundDuration":105043,"Delta":11108249},{"NoteNumber":51,"Velocity":35,"Duration":105043,"SoundDuration":105043,"Delta":11108249},{"NoteNumber":67,"Velocity":43,"Duration":105410,"SoundDuration":105410,"Delta":11213292},{"NoteNumber":63,"Velocity":29,"Duration":105410,"SoundDuration":105410,"Delta":11213292},{"NoteNumber":75,"Velocity":41,"Duration":104840,"SoundDuration":104840,"Delta":11318703},{"NoteNumber":55,"Velocity":29,"Duration":104840,"SoundDuration":104840,"Delta":11318703},{"NoteNumber":78,"Velocity":57,"Duration":103820,"SoundDuration":103820,"Delta":11423543},{"NoteNumber":47,"Velocity":36,"Duration":103820,"SoundDuration":103820,"Delta":11423543},{"NoteNumber":66,"Velocity":38,"Duration":102411,"SoundDuration":102411,"Delta":11527364},{"NoteNumber":63,"Velocity":28,"Duration":102411,"SoundDuration":102411,"Delta":11527364},{"NoteNumber":75,"Velocity":37,"Duration":102134,"SoundDuration":102134,"Delta":11629776},{"NoteNumber":57,"Velocity":28,"Duration":102134,"SoundDuration":102134,"Delta":11629776},{"NoteNumber":77,"Velocity":53,"Duration":101859,"SoundDuration":101859,"Delta":11731910},{"NoteNumber":51,"Velocity":33,"Duration":101859,"SoundDuration":101859,"Delta":11731910},{"NoteNumber":65,"Velocity":39,"Duration":101584,"SoundDuration":101584,"Delta":11833769},{"NoteNumber":63,"Velocity":29,"Duration":101584,"SoundDuration":101584,"Delta":11833769},{"NoteNumber":75,"Velocity":40,"Duration":101312,"SoundDuration":101312,"Delta":11935354},{"NoteNumber":57,"Velocity":30,"Duration":101312,"SoundDuration":101312,"Delta":11935354},{"NoteNumber":78,"Velocity":59,"Duration":101040,"SoundDuration":101040,"Delta":12036666},{"NoteNumber":47,"Velocity":36,"Duration":101040,"SoundDuration":101040,"Delta":12036666},{"NoteNumber":66,"Velocity":41,"Duration":100770,"SoundDuration":100770,"Delta":12137707},{"NoteNumber":63,"Velocity":32,"Duration":100770,"SoundDuration":100770,"Delta":12137707},{"NoteNumber":75,"Velocity":44,"Duration":100502,"SoundDuration":100502,"Delta":12238478},{"NoteNumber":57,"Velocity":32,"Duration":100502,"SoundDuration":100502,"Delta":12238478},{"NoteNumber":79,"Velocity":63,"Duration":101040,"SoundDuration":101040,"Delta":12338980},{"NoteNumber":46,"Velocity":40,"Duration":101040,"SoundDuration":101040,"Delta":12338980},{"NoteNumber":67,"Velocity":42,"Duration":100905,"SoundDuration":100905,"Delta":12440021},{"NoteNumber":62,"Velocity":31,"Duration":100905,"SoundDuration":100905,"Delta":12440021},{"NoteNumber":74,"Velocity":42,"Duration":100703,"SoundDuration":100703,"Delta":12540927},{"NoteNumber":55,"Velocity":32,"Duration":100703,"SoundDuration":100703,"Delta":12540927},{"NoteNumber":81,"Velocity":67,"Duration":100502,"SoundDuration":100502,"Delta":12641631},{"NoteNumber":45,"Velocity":38,"Duration":100502,"SoundDuration":100502,"Delta":12641631},{"NoteNumber":69,"Velocity":47,"Duration":100240,"SoundDuration":100240,"Delta":12742133},{"NoteNumber":62,"Velocity":32,"Duration":100240,"SoundDuration":100240,"Delta":12742133},{"NoteNumber":74,"Velocity":52,"Duration":100041,"SoundDuration":100041,"Delta":12842374},{"NoteNumber":54,"Velocity":34,"Duration":100041,"SoundDuration":100041,"Delta":12842374},{"NoteNumber":82,"Velocity":70,"Duration":99842,"SoundDuration":99842,"Delta":12942416},{"NoteNumber":43,"Velocity":45,"Duration":99842,"SoundDuration":99842,"Delta":12942416},{"NoteNumber":70,"Velocity":51,"Duration":99645,"SoundDuration":99645,"Delta":13042259},{"NoteNumber":62,"Velocity":36,"Duration":99645,"SoundDuration":99645,"Delta":13042259},{"NoteNumber":74,"Velocity":55,"Duration":100502,"SoundDuration":100502,"Delta":13141904},{"NoteNumber":55,"Velocity":40,"Duration":100502,"SoundDuration":100502,"Delta":13141904},{"NoteNumber":84,"Velocity":75,"Duration":103820,"SoundDuration":103820,"Delta":13242406},{"NoteNumber":41,"Velocity":54,"Duration":103820,"SoundDuration":103820,"Delta":13242406},{"NoteNumber":72,"Velocity":55,"Duration":102411,"SoundDuration":102411,"Delta":13346227},{"NoteNumber":70,"Velocity":42,"Duration":102411,"SoundDuration":102411,"Delta":13346227},{"NoteNumber":77,"Velocity":55,"Duration":102134,"SoundDuration":102134,"Delta":13448639},{"NoteNumber":63,"Velocity":45,"Duration":102134,"SoundDuration":102134,"Delta":13448639},{"NoteNumber":86,"Velocity":72,"Duration":101859,"SoundDuration":101859,"Delta":13550773},{"NoteNumber":53,"Velocity":52,"Duration":101859,"SoundDuration":101859,"Delta":13550773},{"NoteNumber":74,"Velocity":54,"Duration":101584,"SoundDuration":101584,"Delta":13652632},{"NoteNumber":70,"Velocity":42,"Duration":101584,"SoundDuration":101584,"Delta":13652632},{"NoteNumber":77,"Velocity":48,"Duration":101312,"SoundDuration":101312,"Delta":13754217},{"NoteNumber":63,"Velocity":35,"Duration":101312,"SoundDuration":101312,"Delta":13754217},{"NoteNumber":81,"Velocity":67,"Duration":101040,"SoundDuration":101040,"Delta":13855529},{"NoteNumber":60,"Velocity":42,"Duration":101040,"SoundDuration":101040,"Delta":13855529},{"NoteNumber":69,"Velocity":48,"Duration":100770,"SoundDuration":100770,"Delta":13956570},{"NoteNumber":65,"Velocity":37,"Duration":100770,"SoundDuration":100770,"Delta":13956570},{"NoteNumber":77,"Velocity":50,"Duration":110803,"SoundDuration":110803,"Delta":14057341},{"NoteNumber":63,"Velocity":37,"Duration":110803,"SoundDuration":110803,"Delta":14057341},{"NoteNumber":84,"Velocity":68,"Duration":102367,"SoundDuration":102367,"Delta":14168144},{"NoteNumber":46,"Velocity":50,"Duration":102367,"SoundDuration":102367,"Delta":14168144},{"NoteNumber":72,"Velocity":52,"Duration":102761,"SoundDuration":102761,"Delta":14270511},{"NoteNumber":63,"Velocity":36,"Duration":102761,"SoundDuration":102761,"Delta":14270511},{"NoteNumber":77,"Velocity":48,"Duration":103226,"SoundDuration":103226,"Delta":14373273},{"NoteNumber":53,"Velocity":37,"Duration":103226,"SoundDuration":103226,"Delta":14373273},{"NoteNumber":82,"Velocity":67,"Duration":103694,"SoundDuration":103694,"Delta":14476499},{"NoteNumber":46,"Velocity":43,"Duration":103694,"SoundDuration":103694,"Delta":14476499},{"NoteNumber":70,"Velocity":43,"Duration":104167,"SoundDuration":104167,"Delta":14580193},{"NoteNumber":62,"Velocity":36,"Duration":104167,"SoundDuration":104167,"Delta":14580193},{"NoteNumber":77,"Velocity":42,"Duration":118343,"SoundDuration":118343,"Delta":14684360},{"NoteNumber":53,"Velocity":34,"Duration":118343,"SoundDuration":118343,"Delta":14684360},{"NoteNumber":77,"Velocity":65,"Duration":103092,"SoundDuration":103092,"Delta":14802704},{"NoteNumber":46,"Velocity":39,"Duration":103092,"SoundDuration":103092,"Delta":14802704},{"NoteNumber":65,"Velocity":42,"Duration":103092,"SoundDuration":103092,"Delta":14905796},{"NoteNumber":61,"Velocity":34,"Duration":103092,"SoundDuration":103092,"Delta":14905796},{"NoteNumber":70,"Velocity":41,"Duration":101286,"SoundDuration":101286,"Delta":15008889},{"NoteNumber":53,"Velocity":33,"Duration":101286,"SoundDuration":101286,"Delta":15008889},{"NoteNumber":77,"Velocity":59,"Duration":103252,"SoundDuration":103252,"Delta":15110176},{"NoteNumber":44,"Velocity":36,"Duration":103252,"SoundDuration":103252,"Delta":15110176},{"NoteNumber":65,"Velocity":47,"Duration":104257,"SoundDuration":104257,"Delta":15213428},{"NoteNumber":59,"Velocity":28,"Duration":104257,"SoundDuration":104257,"Delta":15213428},{"NoteNumber":71,"Velocity":41,"Duration":105262,"SoundDuration":105262,"Delta":15317686},{"NoteNumber":53,"Velocity":29,"Duration":105262,"SoundDuration":105262,"Delta":15317686},{"NoteNumber":75,"Velocity":54,"Duration":102040,"SoundDuration":102040,"Delta":15422949},{"NoteNumber":49,"Velocity":34,"Duration":102040,"SoundDuration":102040,"Delta":15422949},{"NoteNumber":63,"Velocity":41,"Duration":101584,"SoundDuration":101584,"Delta":15524990},{"NoteNumber":59,"Velocity":30,"Duration":101584,"SoundDuration":101584,"Delta":15524990},{"NoteNumber":70,"Velocity":43,"Duration":101312,"SoundDuration":101312,"Delta":15626574},{"NoteNumber":53,"Velocity":32,"Duration":101312,"SoundDuration":101312,"Delta":15626574},{"NoteNumber":77,"Velocity":64,"Duration":101040,"SoundDuration":101040,"Delta":15727886},{"NoteNumber":37,"Velocity":38,"Duration":101040,"SoundDuration":101040,"Delta":15727886},{"NoteNumber":61,"Velocity":44,"Duration":100770,"SoundDuration":100770,"Delta":15828927},{"NoteNumber":59,"Velocity":34,"Duration":100770,"SoundDuration":100770,"Delta":15828927},{"NoteNumber":68,"Velocity":47,"Duration":103865,"SoundDuration":103865,"Delta":15929698},{"NoteNumber":53,"Velocity":35,"Duration":103865,"SoundDuration":103865,"Delta":15929698},{"NoteNumber":80,"Velocity":70,"Duration":104242,"SoundDuration":104242,"Delta":16033564},{"NoteNumber":42,"Velocity":49,"Duration":104242,"SoundDuration":104242,"Delta":16033564},{"NoteNumber":61,"Velocity":53,"Duration":98797,"SoundDuration":98797,"Delta":16137806},{"NoteNumber":58,"Velocity":35,"Duration":98797,"SoundDuration":98797,"Delta":16137806},{"NoteNumber":70,"Velocity":52,"Duration":99121,"SoundDuration":99121,"Delta":16236604},{"NoteNumber":54,"Velocity":35,"Duration":99121,"SoundDuration":99121,"Delta":16236604},{"NoteNumber":78,"Velocity":67,"Duration":99513,"SoundDuration":99513,"Delta":16335725},{"NoteNumber":49,"Velocity":43,"Duration":99513,"SoundDuration":99513,"Delta":16335725},{"NoteNumber":61,"Velocity":43,"Duration":99842,"SoundDuration":99842,"Delta":16435239},{"NoteNumber":58,"Velocity":36,"Duration":99842,"SoundDuration":99842,"Delta":16435239},{"NoteNumber":70,"Velocity":42,"Duration":100174,"SoundDuration":100174,"Delta":16535082},{"NoteNumber":54,"Velocity":34,"Duration":100174,"SoundDuration":100174,"Delta":16535082},{"NoteNumber":73,"Velocity":62,"Duration":100569,"SoundDuration":100569,"Delta":16635256},{"NoteNumber":42,"Velocity":39,"Duration":100569,"SoundDuration":100569,"Delta":16635256},{"NoteNumber":61,"Velocity":42,"Duration":100905,"SoundDuration":100905,"Delta":16735826},{"NoteNumber":58,"Velocity":34,"Duration":100905,"SoundDuration":100905,"Delta":16735826},{"NoteNumber":70,"Velocity":41,"Duration":100774,"SoundDuration":100774,"Delta":16836732},{"NoteNumber":49,"Velocity":33,"Duration":100774,"SoundDuration":100774,"Delta":16836732},{"NoteNumber":77,"Velocity":53,"Duration":103252,"SoundDuration":103252,"Delta":16937506},{"NoteNumber":37,"Velocity":36,"Duration":103252,"SoundDuration":103252,"Delta":16937506},{"NoteNumber":61,"Velocity":38,"Duration":102411,"SoundDuration":102411,"Delta":17040758},{"NoteNumber":59,"Velocity":28,"Duration":102411,"SoundDuration":102411,"Delta":17040758},{"NoteNumber":71,"Velocity":38,"Duration":102134,"SoundDuration":102134,"Delta":17143170},{"NoteNumber":53,"Velocity":29,"Duration":102134,"SoundDuration":102134,"Delta":17143170},{"NoteNumber":75,"Velocity":54,"Duration":101859,"SoundDuration":101859,"Delta":17245305},{"NoteNumber":44,"Velocity":34,"Duration":101859,"SoundDuration":101859,"Delta":17245305},{"NoteNumber":61,"Velocity":41,"Duration":101584,"SoundDuration":101584,"Delta":17347164},{"NoteNumber":59,"Velocity":30,"Duration":101584,"SoundDuration":101584,"Delta":17347164},{"NoteNumber":70,"Velocity":43,"Duration":101312,"SoundDuration":101312,"Delta":17448748},{"NoteNumber":53,"Velocity":32,"Duration":101312,"SoundDuration":101312,"Delta":17448748},{"NoteNumber":77,"Velocity":59,"Duration":101040,"SoundDuration":101040,"Delta":17550060},{"NoteNumber":37,"Velocity":38,"Duration":101040,"SoundDuration":101040,"Delta":17550060},{"NoteNumber":61,"Velocity":49,"Duration":100770,"SoundDuration":100770,"Delta":17651101},{"NoteNumber":59,"Velocity":34,"Duration":100770,"SoundDuration":100770,"Delta":17651101},{"NoteNumber":68,"Velocity":47,"Duration":100502,"SoundDuration":100502,"Delta":17751872},{"NoteNumber":53,"Velocity":35,"Duration":100502,"SoundDuration":100502,"Delta":17751872},{"NoteNumber":80,"Velocity":69,"Duration":98475,"SoundDuration":98475,"Delta":17852375},{"NoteNumber":42,"Velocity":50,"Duration":98475,"SoundDuration":98475,"Delta":17852375},{"NoteNumber":61,"Velocity":51,"Duration":98797,"SoundDuration":98797,"Delta":17950850},{"NoteNumber":58,"Velocity":35,"Duration":98797,"SoundDuration":98797,"Delta":17950850},{"NoteNumber":70,"Velocity":50,"Duration":99121,"SoundDuration":99121,"Delta":18049647},{"NoteNumber":54,"Velocity":35,"Duration":99121,"SoundDuration":99121,"Delta":18049647},{"NoteNumber":78,"Velocity":67,"Duration":99513,"SoundDuration":99513,"Delta":18148769},{"NoteNumber":49,"Velocity":43,"Duration":99513,"SoundDuration":99513,"Delta":18148769},{"NoteNumber":61,"Velocity":43,"Duration":99842,"SoundDuration":99842,"Delta":18248282},{"NoteNumber":58,"Velocity":36,"Duration":99842,"SoundDuration":99842,"Delta":18248282},{"NoteNumber":70,"Velocity":42,"Duration":100174,"SoundDuration":100174,"Delta":18348125},{"NoteNumber":54,"Velocity":34,"Duration":100174,"SoundDuration":100174,"Delta":18348125},{"NoteNumber":73,"Velocity":62,"Duration":100569,"SoundDuration":100569,"Delta":18448300},{"NoteNumber":42,"Velocity":39,"Duration":100569,"SoundDuration":100569,"Delta":18448300},{"NoteNumber":61,"Velocity":42,"Duration":100905,"SoundDuration":100905,"Delta":18548869},{"NoteNumber":58,"Velocity":34,"Duration":100905,"SoundDuration":100905,"Delta":18548869},{"NoteNumber":70,"Velocity":41,"Duration":100774,"SoundDuration":100774,"Delta":18649775},{"NoteNumber":49,"Velocity":33,"Duration":100774,"SoundDuration":100774,"Delta":18649775},{"NoteNumber":76,"Velocity":58,"Duration":116279,"SoundDuration":116279,"Delta":18750549},{"NoteNumber":42,"Velocity":36,"Duration":116279,"SoundDuration":116279,"Delta":18750549},{"NoteNumber":64,"Velocity":38,"Duration":102411,"SoundDuration":102411,"Delta":18866828},{"NoteNumber":58,"Velocity":28,"Duration":102411,"SoundDuration":102411,"Delta":18866828},{"NoteNumber":70,"Velocity":38,"Duration":102134,"SoundDuration":102134,"Delta":18969240},{"NoteNumber":49,"Velocity":29,"Duration":102134,"SoundDuration":102134,"Delta":18969240},{"NoteNumber":82,"Velocity":63,"Duration":101858,"SoundDuration":101858,"Delta":19071375},{"NoteNumber":42,"Velocity":38,"Duration":101858,"SoundDuration":101858,"Delta":19071375},{"NoteNumber":64,"Velocity":44,"Duration":101584,"SoundDuration":101584,"Delta":19173234},{"NoteNumber":61,"Velocity":30,"Duration":101584,"SoundDuration":101584,"Delta":19173234},{"NoteNumber":73,"Velocity":45,"Duration":101312,"SoundDuration":101312,"Delta":19274818},{"NoteNumber":54,"Velocity":32,"Duration":101312,"SoundDuration":101312,"Delta":19274818},{"NoteNumber":85,"Velocity":68,"Duration":101040,"SoundDuration":101040,"Delta":19376130},{"NoteNumber":42,"Velocity":42,"Duration":101040,"SoundDuration":101040,"Delta":19376130},{"NoteNumber":70,"Velocity":48,"Duration":100771,"SoundDuration":100771,"Delta":19477171},{"NoteNumber":64,"Velocity":34,"Duration":100771,"SoundDuration":100771,"Delta":19477171},{"NoteNumber":76,"Velocity":51,"Duration":100502,"SoundDuration":100502,"Delta":19577942},{"NoteNumber":58,"Velocity":36,"Duration":100502,"SoundDuration":100502,"Delta":19577942},{"NoteNumber":86,"Velocity":76,"Duration":101040,"SoundDuration":101040,"Delta":19678445},{"NoteNumber":41,"Velocity":49,"Duration":101040,"SoundDuration":101040,"Delta":19678445},{"NoteNumber":70,"Velocity":53,"Duration":100905,"SoundDuration":100905,"Delta":19779485},{"NoteNumber":65,"Velocity":36,"Duration":100905,"SoundDuration":100905,"Delta":19779485},{"NoteNumber":77,"Velocity":52,"Duration":100703,"SoundDuration":100703,"Delta":19880391},{"NoteNumber":58,"Velocity":35,"Duration":100703,"SoundDuration":100703,"Delta":19880391},{"NoteNumber":87,"Velocity":72,"Duration":100502,"SoundDuration":100502,"Delta":19981095},{"NoteNumber":53,"Velocity":38,"Duration":100502,"SoundDuration":100502,"Delta":19981095},{"NoteNumber":70,"Velocity":43,"Duration":100240,"SoundDuration":100240,"Delta":20081598},{"NoteNumber":67,"Velocity":32,"Duration":100240,"SoundDuration":100240,"Delta":20081598},{"NoteNumber":79,"Velocity":43,"Duration":100041,"SoundDuration":100041,"Delta":20181838},{"NoteNumber":58,"Velocity":32,"Duration":100041,"SoundDuration":100041,"Delta":20181838},{"NoteNumber":83,"Velocity":66,"Duration":100107,"SoundDuration":100107,"Delta":20281880},{"NoteNumber":53,"Velocity":39,"Duration":100107,"SoundDuration":100107,"Delta":20281880},{"NoteNumber":68,"Velocity":53,"Duration":101381,"SoundDuration":101381,"Delta":20381987},{"NoteNumber":65,"Velocity":33,"Duration":101381,"SoundDuration":101381,"Delta":20381987},{"NoteNumber":74,"Velocity":54,"Duration":102621,"SoundDuration":102621,"Delta":20483369},{"NoteNumber":59,"Velocity":33,"Duration":102621,"SoundDuration":102621,"Delta":20483369},{"NoteNumber":84,"Velocity":71,"Duration":106666,"SoundDuration":106666,"Delta":20585991},{"NoteNumber":53,"Velocity":48,"Duration":106666,"SoundDuration":106666,"Delta":20585991},{"NoteNumber":69,"Velocity":55,"Duration":104370,"SoundDuration":104370,"Delta":20692657},{"NoteNumber":65,"Velocity":35,"Duration":104370,"SoundDuration":104370,"Delta":20692657},{"NoteNumber":75,"Velocity":52,"Duration":103896,"SoundDuration":103896,"Delta":20797028},{"NoteNumber":60,"Velocity":37,"Duration":103896,"SoundDuration":103896,"Delta":20797028},{"NoteNumber":86,"Velocity":70,"Duration":103359,"SoundDuration":103359,"Delta":20900924},{"NoteNumber":53,"Velocity":45,"Duration":103359,"SoundDuration":103359,"Delta":20900924},{"NoteNumber":69,"Velocity":51,"Duration":104671,"SoundDuration":104671,"Delta":21004284},{"NoteNumber":65,"Velocity":38,"Duration":104671,"SoundDuration":104671,"Delta":21004284},{"NoteNumber":77,"Velocity":47,"Duration":105428,"SoundDuration":105428,"Delta":21108956},{"NoteNumber":63,"Velocity":30,"Duration":105428,"SoundDuration":105428,"Delta":21108956},{"NoteNumber":81,"Velocity":62,"Duration":103895,"SoundDuration":103895,"Delta":21214384},{"NoteNumber":53,"Velocity":37,"Duration":103895,"SoundDuration":103895,"Delta":21214384},{"NoteNumber":69,"Velocity":42,"Duration":103896,"SoundDuration":103896,"Delta":21318280},{"NoteNumber":63,"Velocity":32,"Duration":103896,"SoundDuration":103896,"Delta":21318280},{"NoteNumber":72,"Velocity":43,"Duration":103895,"SoundDuration":103895,"Delta":21422176},{"NoteNumber":57,"Velocity":31,"Duration":103895,"SoundDuration":103895,"Delta":21422176},{"NoteNumber":84,"Velocity":70,"Duration":101781,"SoundDuration":101781,"Delta":21526072},{"NoteNumber":46,"Velocity":50,"Duration":101781,"SoundDuration":101781,"Delta":21526072},{"NoteNumber":65,"Velocity":48,"Duration":101781,"SoundDuration":101781,"Delta":21627853},{"NoteNumber":63,"Velocity":36,"Duration":101781,"SoundDuration":101781,"Delta":21627853},{"NoteNumber":75,"Velocity":47,"Duration":101781,"SoundDuration":101781,"Delta":21729635},{"NoteNumber":53,"Velocity":37,"Duration":101781,"SoundDuration":101781,"Delta":21729635},{"NoteNumber":82,"Velocity":65,"Duration":103626,"SoundDuration":103626,"Delta":21831416},{"NoteNumber":46,"Velocity":43,"Duration":103626,"SoundDuration":103626,"Delta":21831416},{"NoteNumber":65,"Velocity":43,"Duration":103627,"SoundDuration":103627,"Delta":21935043},{"NoteNumber":62,"Velocity":36,"Duration":103627,"SoundDuration":103627,"Delta":21935043},{"NoteNumber":74,"Velocity":42,"Duration":118343,"SoundDuration":118343,"Delta":22038670},{"NoteNumber":53,"Velocity":34,"Duration":118343,"SoundDuration":118343,"Delta":22038670},{"NoteNumber":77,"Velocity":59,"Duration":101781,"SoundDuration":101781,"Delta":22157013},{"NoteNumber":46,"Velocity":39,"Duration":101781,"SoundDuration":101781,"Delta":22157013},{"NoteNumber":65,"Velocity":42,"Duration":101839,"SoundDuration":101839,"Delta":22258795},{"NoteNumber":61,"Velocity":34,"Duration":101839,"SoundDuration":101839,"Delta":22258795},{"NoteNumber":70,"Velocity":41,"Duration":100978,"SoundDuration":100978,"Delta":22360634},{"NoteNumber":53,"Velocity":33,"Duration":100978,"SoundDuration":100978,"Delta":22360634},{"NoteNumber":77,"Velocity":57,"Duration":104101,"SoundDuration":104101,"Delta":22461613},{"NoteNumber":44,"Velocity":43,"Duration":104101,"SoundDuration":104101,"Delta":22461613},{"NoteNumber":65,"Velocity":38,"Duration":102411,"SoundDuration":102411,"Delta":22565714},{"NoteNumber":59,"Velocity":28,"Duration":102411,"SoundDuration":102411,"Delta":22565714},{"NoteNumber":71,"Velocity":38,"Duration":102134,"SoundDuration":102134,"Delta":22668126},{"NoteNumber":53,"Velocity":29,"Duration":102134,"SoundDuration":102134,"Delta":22668126},{"NoteNumber":75,"Velocity":59,"Duration":101858,"SoundDuration":101858,"Delta":22770261},{"NoteNumber":49,"Velocity":40,"Duration":101858,"SoundDuration":101858,"Delta":22770261},{"NoteNumber":63,"Velocity":45,"Duration":101584,"SoundDuration":101584,"Delta":22872120},{"NoteNumber":59,"Velocity":30,"Duration":101584,"SoundDuration":101584,"Delta":22872120},{"NoteNumber":70,"Velocity":47,"Duration":101312,"SoundDuration":101312,"Delta":22973704},{"NoteNumber":53,"Velocity":32,"Duration":101312,"SoundDuration":101312,"Delta":22973704},{"NoteNumber":77,"Velocity":66,"Duration":101040,"SoundDuration":101040,"Delta":23075016},{"NoteNumber":37,"Velocity":42,"Duration":101040,"SoundDuration":101040,"Delta":23075016},{"NoteNumber":61,"Velocity":53,"Duration":100771,"SoundDuration":100771,"Delta":23176057},{"NoteNumber":59,"Velocity":34,"Duration":100771,"SoundDuration":100771,"Delta":23176057},{"NoteNumber":68,"Velocity":56,"Duration":100502,"SoundDuration":100502,"Delta":23276828},{"NoteNumber":53,"Velocity":35,"Duration":100502,"SoundDuration":100502,"Delta":23276828},{"NoteNumber":80,"Velocity":71,"Duration":98475,"SoundDuration":98475,"Delta":23377331},{"NoteNumber":42,"Velocity":47,"Duration":98475,"SoundDuration":98475,"Delta":23377331},{"NoteNumber":61,"Velocity":53,"Duration":98797,"SoundDuration":98797,"Delta":23475806},{"NoteNumber":58,"Velocity":35,"Duration":98797,"SoundDuration":98797,"Delta":23475806},{"NoteNumber":70,"Velocity":52,"Duration":99121,"SoundDuration":99121,"Delta":23574603},{"NoteNumber":54,"Velocity":35,"Duration":99121,"SoundDuration":99121,"Delta":23574603},{"NoteNumber":78,"Velocity":66,"Duration":99513,"SoundDuration":99513,"Delta":23673725},{"NoteNumber":49,"Velocity":43,"Duration":99513,"SoundDuration":99513,"Delta":23673725},{"NoteNumber":61,"Velocity":49,"Duration":99842,"SoundDuration":99842,"Delta":23773238},{"NoteNumber":58,"Velocity":36,"Duration":99842,"SoundDuration":99842,"Delta":23773238},{"NoteNumber":70,"Velocity":46,"Duration":100174,"SoundDuration":100174,"Delta":23873081},{"NoteNumber":54,"Velocity":31,"Duration":100174,"SoundDuration":100174,"Delta":23873081},{"NoteNumber":73,"Velocity":59,"Duration":100569,"SoundDuration":100569,"Delta":23973256},{"NoteNumber":42,"Velocity":39,"Duration":100569,"SoundDuration":100569,"Delta":23973256},{"NoteNumber":61,"Velocity":42,"Duration":100905,"SoundDuration":100905,"Delta":24073825},{"NoteNumber":58,"Velocity":34,"Duration":100905,"SoundDuration":100905,"Delta":24073825},{"NoteNumber":70,"Velocity":41,"Duration":100773,"SoundDuration":100773,"Delta":24174731},{"NoteNumber":49,"Velocity":33,"Duration":100773,"SoundDuration":100773,"Delta":24174731},{"NoteNumber":77,"Velocity":56,"Duration":104101,"SoundDuration":104101,"Delta":24275505},{"NoteNumber":37,"Velocity":36,"Duration":104101,"SoundDuration":104101,"Delta":24275505},{"NoteNumber":61,"Velocity":38,"Duration":102411,"SoundDuration":102411,"Delta":24379607},{"NoteNumber":59,"Velocity":28,"Duration":102411,"SoundDuration":102411,"Delta":24379607},{"NoteNumber":71,"Velocity":38,"Duration":102134,"SoundDuration":102134,"Delta":24482019},{"NoteNumber":53,"Velocity":29,"Duration":102134,"SoundDuration":102134,"Delta":24482019},{"NoteNumber":75,"Velocity":56,"Duration":101858,"SoundDuration":101858,"Delta":24584153},{"NoteNumber":44,"Velocity":34,"Duration":101858,"SoundDuration":101858,"Delta":24584153},{"NoteNumber":61,"Velocity":43,"Duration":101584,"SoundDuration":101584,"Delta":24686012},{"NoteNumber":59,"Velocity":30,"Duration":101584,"SoundDuration":101584,"Delta":24686012},{"NoteNumber":70,"Velocity":47,"Duration":101312,"SoundDuration":101312,"Delta":24787597},{"NoteNumber":53,"Velocity":32,"Duration":101312,"SoundDuration":101312,"Delta":24787597},{"NoteNumber":77,"Velocity":66,"Duration":101040,"SoundDuration":101040,"Delta":24888909},{"NoteNumber":37,"Velocity":38,"Duration":101040,"SoundDuration":101040,"Delta":24888909},{"NoteNumber":61,"Velocity":49,"Duration":100771,"SoundDuration":100771,"Delta":24989950},{"NoteNumber":59,"Velocity":35,"Duration":100771,"SoundDuration":100771,"Delta":24989950},{"NoteNumber":68,"Velocity":54,"Duration":100502,"SoundDuration":100502,"Delta":25090721},{"NoteNumber":53,"Velocity":38,"Duration":100502,"SoundDuration":100502,"Delta":25090721},{"NoteNumber":80,"Velocity":72,"Duration":98475,"SoundDuration":98475,"Delta":25191223},{"NoteNumber":42,"Velocity":47,"Duration":98475,"SoundDuration":98475,"Delta":25191223},{"NoteNumber":61,"Velocity":53,"Duration":98797,"SoundDuration":98797,"Delta":25289698},{"NoteNumber":58,"Velocity":35,"Duration":98797,"SoundDuration":98797,"Delta":25289698},{"NoteNumber":70,"Velocity":52,"Duration":99121,"SoundDuration":99121,"Delta":25388496},{"NoteNumber":54,"Velocity":35,"Duration":99121,"SoundDuration":99121,"Delta":25388496},{"NoteNumber":78,"Velocity":68,"Duration":99513,"SoundDuration":99513,"Delta":25487617},{"NoteNumber":49,"Velocity":43,"Duration":99513,"SoundDuration":99513,"Delta":25487617},{"NoteNumber":61,"Velocity":43,"Duration":99842,"SoundDuration":99842,"Delta":25587131},{"NoteNumber":58,"Velocity":36,"Duration":99842,"SoundDuration":99842,"Delta":25587131},{"NoteNumber":70,"Velocity":42,"Duration":100174,"SoundDuration":100174,"Delta":25686974},{"NoteNumber":54,"Velocity":34,"Duration":100174,"SoundDuration":100174,"Delta":25686974},{"NoteNumber":77,"Velocity":63,"Duration":100569,"SoundDuration":100569,"Delta":25787148},{"NoteNumber":42,"Velocity":39,"Duration":100569,"SoundDuration":100569,"Delta":25787148},{"NoteNumber":61,"Velocity":42,"Duration":100905,"SoundDuration":100905,"Delta":25887718},{"NoteNumber":58,"Velocity":34,"Duration":100905,"SoundDuration":100905,"Delta":25887718},{"NoteNumber":70,"Velocity":41,"Duration":100773,"SoundDuration":100773,"Delta":25988624},{"NoteNumber":49,"Velocity":33,"Duration":100773,"SoundDuration":100773,"Delta":25988624},{"NoteNumber":76,"Velocity":60,"Duration":103820,"SoundDuration":103820,"Delta":26089398},{"NoteNumber":43,"Velocity":40,"Duration":103820,"SoundDuration":103820,"Delta":26089398},{"NoteNumber":61,"Velocity":43,"Duration":102411,"SoundDuration":102411,"Delta":26193218},{"NoteNumber":58,"Velocity":31,"Duration":102411,"SoundDuration":102411,"Delta":26193218},{"NoteNumber":70,"Velocity":43,"Duration":101528,"SoundDuration":101528,"Delta":26295630},{"NoteNumber":52,"Velocity":32,"Duration":101528,"SoundDuration":101528,"Delta":26295630},{"NoteNumber":79,"Velocity":67,"Duration":98928,"SoundDuration":98928,"Delta":26397159},{"NoteNumber":46,"Velocity":43,"Duration":98928,"SoundDuration":98928,"Delta":26397159},{"NoteNumber":64,"Velocity":44,"Duration":98991,"SoundDuration":98991,"Delta":26496088},{"NoteNumber":61,"Velocity":35,"Duration":98991,"SoundDuration":98991,"Delta":26496088},{"NoteNumber":73,"Velocity":46,"Duration":99317,"SoundDuration":99317,"Delta":26595079},{"NoteNumber":52,"Velocity":34,"Duration":99317,"SoundDuration":99317,"Delta":26595079},{"NoteNumber":78,"Velocity":63,"Duration":99645,"SoundDuration":99645,"Delta":26694397},{"NoteNumber":45,"Velocity":39,"Duration":99645,"SoundDuration":99645,"Delta":26694397},{"NoteNumber":63,"Velocity":46,"Duration":100041,"SoundDuration":100041,"Delta":26794042},{"NoteNumber":60,"Velocity":35,"Duration":100041,"SoundDuration":100041,"Delta":26794042},{"NoteNumber":72,"Velocity":49,"Duration":99532,"SoundDuration":99532,"Delta":26894083},{"NoteNumber":51,"Velocity":36,"Duration":99532,"SoundDuration":99532,"Delta":26894083},{"NoteNumber":81,"Velocity":72,"Duration":97269,"SoundDuration":97269,"Delta":26993615},{"NoteNumber":48,"Velocity":48,"Duration":97269,"SoundDuration":97269,"Delta":26993615},{"NoteNumber":66,"Velocity":47,"Duration":97773,"SoundDuration":97773,"Delta":27090885},{"NoteNumber":63,"Velocity":39,"Duration":97773,"SoundDuration":97773,"Delta":27090885},{"NoteNumber":75,"Velocity":46,"Duration":98282,"SoundDuration":98282,"Delta":27188658},{"NoteNumber":54,"Velocity":40,"Duration":98282,"SoundDuration":98282,"Delta":27188658},{"NoteNumber":80,"Velocity":71,"Duration":98797,"SoundDuration":98797,"Delta":27286941},{"NoteNumber":47,"Velocity":44,"Duration":98797,"SoundDuration":98797,"Delta":27286941},{"NoteNumber":65,"Velocity":48,"Duration":99317,"SoundDuration":99317,"Delta":27385738},{"NoteNumber":62,"Velocity":36,"Duration":99317,"SoundDuration":99317,"Delta":27385738},{"NoteNumber":74,"Velocity":49,"Duration":99711,"SoundDuration":99711,"Delta":27485055},{"NoteNumber":53,"Velocity":40,"Duration":99711,"SoundDuration":99711,"Delta":27485055},{"NoteNumber":83,"Velocity":77,"Duration":96527,"SoundDuration":96527,"Delta":27584767},{"NoteNumber":50,"Velocity":55,"Duration":96527,"SoundDuration":96527,"Delta":27584767},{"NoteNumber":68,"Velocity":51,"Duration":97019,"SoundDuration":97019,"Delta":27681294},{"NoteNumber":65,"Velocity":43,"Duration":97019,"SoundDuration":97019,"Delta":27681294},{"NoteNumber":77,"Velocity":53,"Duration":97520,"SoundDuration":97520,"Delta":27778313},{"NoteNumber":56,"Velocity":43,"Duration":97520,"SoundDuration":97520,"Delta":27778313},{"NoteNumber":82,"Velocity":74,"Duration":98027,"SoundDuration":98027,"Delta":27875834},{"NoteNumber":49,"Velocity":54,"Duration":98027,"SoundDuration":98027,"Delta":27875834},{"NoteNumber":67,"Velocity":58,"Duration":98539,"SoundDuration":98539,"Delta":27973861},{"NoteNumber":64,"Velocity":41,"Duration":98539,"SoundDuration":98539,"Delta":27973861},{"NoteNumber":76,"Velocity":63,"Duration":98494,"SoundDuration":98494,"Delta":28072401},{"NoteNumber":55,"Velocity":46,"Duration":98494,"SoundDuration":98494,"Delta":28072401},{"NoteNumber":85,"Velocity":88,"Duration":96281,"SoundDuration":96281,"Delta":28170896},{"NoteNumber":52,"Velocity":60,"Duration":96281,"SoundDuration":96281,"Delta":28170896},{"NoteNumber":70,"Velocity":66,"Duration":96772,"SoundDuration":96772,"Delta":28267177},{"NoteNumber":67,"Velocity":48,"Duration":96772,"SoundDuration":96772,"Delta":28267177},{"NoteNumber":79,"Velocity":68,"Duration":97144,"SoundDuration":97144,"Delta":28363950},{"NoteNumber":58,"Velocity":48,"Duration":97144,"SoundDuration":97144,"Delta":28363950},{"NoteNumber":84,"Velocity":84,"Duration":97583,"SoundDuration":97583,"Delta":28461094},{"NoteNumber":51,"Velocity":58,"Duration":97583,"SoundDuration":97583,"Delta":28461094},{"NoteNumber":69,"Velocity":68,"Duration":98027,"SoundDuration":98027,"Delta":28558678},{"NoteNumber":66,"Velocity":44,"Duration":98027,"SoundDuration":98027,"Delta":28558678},{"NoteNumber":78,"Velocity":66,"Duration":98539,"SoundDuration":98539,"Delta":28656705},{"NoteNumber":57,"Velocity":49,"Duration":98539,"SoundDuration":98539,"Delta":28656705},{"NoteNumber":87,"Velocity":94,"Duration":97269,"SoundDuration":97269,"Delta":28755244},{"NoteNumber":54,"Velocity":69,"Duration":97269,"SoundDuration":97269,"Delta":28755244},{"NoteNumber":72,"Velocity":69,"Duration":97773,"SoundDuration":97773,"Delta":28852514},{"NoteNumber":69,"Velocity":49,"Duration":97773,"SoundDuration":97773,"Delta":28852514},{"NoteNumber":81,"Velocity":70,"Duration":98410,"SoundDuration":98410,"Delta":28950287},{"NoteNumber":60,"Velocity":50,"Duration":98410,"SoundDuration":98410,"Delta":28950287},{"NoteNumber":86,"Velocity":88,"Duration":98926,"SoundDuration":98926,"Delta":29048698},{"NoteNumber":53,"Velocity":62,"Duration":98926,"SoundDuration":98926,"Delta":29048698},{"NoteNumber":71,"Velocity":63,"Duration":99976,"SoundDuration":99976,"Delta":29147625},{"NoteNumber":68,"Velocity":51,"Duration":99976,"SoundDuration":99976,"Delta":29147625},{"NoteNumber":80,"Velocity":64,"Duration":101928,"SoundDuration":101928,"Delta":29247602},{"NoteNumber":59,"Velocity":51,"Duration":101928,"SoundDuration":101928,"Delta":29247602},{"NoteNumber":89,"Velocity":85,"Duration":160000,"SoundDuration":160000,"Delta":29349531},{"NoteNumber":58,"Velocity":67,"Duration":160000,"SoundDuration":160000,"Delta":29349531},{"NoteNumber":70,"Velocity":48,"Duration":104619,"SoundDuration":104619,"Delta":29851997},{"NoteNumber":39,"Velocity":36,"Duration":104619,"SoundDuration":104619,"Delta":29851997},{"NoteNumber":58,"Velocity":37,"Duration":104897,"SoundDuration":104897,"Delta":29956617},{"NoteNumber":55,"Velocity":28,"Duration":104897,"SoundDuration":104897,"Delta":29956617},{"NoteNumber":67,"Velocity":37,"Duration":104534,"SoundDuration":104534,"Delta":30061514},{"NoteNumber":46,"Velocity":31,"Duration":104534,"SoundDuration":104534,"Delta":30061514},{"NoteNumber":75,"Velocity":52,"Duration":104389,"SoundDuration":104389,"Delta":30166049},{"NoteNumber":39,"Velocity":39,"Duration":104389,"SoundDuration":104389,"Delta":30166049},{"NoteNumber":63,"Velocity":42,"Duration":103680,"SoundDuration":103680,"Delta":30270438},{"NoteNumber":55,"Velocity":33,"Duration":103680,"SoundDuration":103680,"Delta":30270438},{"NoteNumber":70,"Velocity":44,"Duration":102830,"SoundDuration":102830,"Delta":30374118},{"NoteNumber":46,"Velocity":36,"Duration":102830,"SoundDuration":102830,"Delta":30374118},{"NoteNumber":79,"Velocity":61,"Duration":102481,"SoundDuration":102481,"Delta":30476949},{"NoteNumber":39,"Velocity":36,"Duration":102481,"SoundDuration":102481,"Delta":30476949},{"NoteNumber":67,"Velocity":51,"Duration":102203,"SoundDuration":102203,"Delta":30579430},{"NoteNumber":58,"Velocity":32,"Duration":102203,"SoundDuration":102203,"Delta":30579430},{"NoteNumber":75,"Velocity":54,"Duration":101790,"SoundDuration":101790,"Delta":30681634},{"NoteNumber":46,"Velocity":32,"Duration":101790,"SoundDuration":101790,"Delta":30681634},{"NoteNumber":82,"Velocity":66,"Duration":102001,"SoundDuration":102001,"Delta":30783425},{"NoteNumber":39,"Velocity":42,"Duration":102001,"SoundDuration":102001,"Delta":30783425},{"NoteNumber":70,"Velocity":57,"Duration":101108,"SoundDuration":101108,"Delta":30885426},{"NoteNumber":63,"Velocity":33,"Duration":101108,"SoundDuration":101108,"Delta":30885426},{"NoteNumber":79,"Velocity":57,"Duration":100703,"SoundDuration":100703,"Delta":30986534},{"NoteNumber":55,"Velocity":34,"Duration":100703,"SoundDuration":100703,"Delta":30986534},{"NoteNumber":87,"Velocity":74,"Duration":100371,"SoundDuration":100371,"Delta":31087238},{"NoteNumber":46,"Velocity":42,"Duration":100371,"SoundDuration":100371,"Delta":31087238},{"NoteNumber":75,"Velocity":59,"Duration":100041,"SoundDuration":100041,"Delta":31187610},{"NoteNumber":67,"Velocity":35,"Duration":100041,"SoundDuration":100041,"Delta":31187610},{"NoteNumber":82,"Velocity":62,"Duration":99645,"SoundDuration":99645,"Delta":31287651},{"NoteNumber":58,"Velocity":37,"Duration":99645,"SoundDuration":99645,"Delta":31287651},{"NoteNumber":91,"Velocity":73,"Duration":98604,"SoundDuration":98604,"Delta":31387296},{"NoteNumber":51,"Velocity":47,"Duration":98604,"SoundDuration":98604,"Delta":31387296},{"NoteNumber":79,"Velocity":60,"Duration":99318,"SoundDuration":99318,"Delta":31485900},{"NoteNumber":70,"Velocity":39,"Duration":99318,"SoundDuration":99318,"Delta":31485900},{"NoteNumber":82,"Velocity":65,"Duration":100107,"SoundDuration":100107,"Delta":31585219},{"NoteNumber":58,"Velocity":41,"Duration":100107,"SoundDuration":100107,"Delta":31585219},{"NoteNumber":89,"Velocity":79,"Duration":100502,"SoundDuration":100502,"Delta":31685326},{"NoteNumber":51,"Velocity":54,"Duration":100502,"SoundDuration":100502,"Delta":31685326},{"NoteNumber":74,"Velocity":58,"Duration":101859,"SoundDuration":101859,"Delta":31785829},{"NoteNumber":71,"Velocity":39,"Duration":101859,"SoundDuration":101859,"Delta":31785829},{"NoteNumber":80,"Velocity":52,"Duration":102134,"SoundDuration":102134,"Delta":31887688},{"NoteNumber":59,"Velocity":36,"Duration":102134,"SoundDuration":102134,"Delta":31887688},{"NoteNumber":87,"Velocity":76,"Duration":102411,"SoundDuration":102411,"Delta":31989822},{"NoteNumber":51,"Velocity":49,"Duration":102411,"SoundDuration":102411,"Delta":31989822},{"NoteNumber":75,"Velocity":56,"Duration":102690,"SoundDuration":102690,"Delta":32092234},{"NoteNumber":72,"Velocity":38,"Duration":102690,"SoundDuration":102690,"Delta":32092234},{"NoteNumber":80,"Velocity":51,"Duration":102970,"SoundDuration":102970,"Delta":32194924},{"NoteNumber":60,"Velocity":33,"Duration":102970,"SoundDuration":102970,"Delta":32194924},{"NoteNumber":84,"Velocity":70,"Duration":103252,"SoundDuration":103252,"Delta":32297895},{"NoteNumber":51,"Velocity":41,"Duration":103252,"SoundDuration":103252,"Delta":32297895},{"NoteNumber":72,"Velocity":51,"Duration":103252,"SoundDuration":103252,"Delta":32401147},{"NoteNumber":68,"Velocity":33,"Duration":103252,"SoundDuration":103252,"Delta":32401147},{"NoteNumber":80,"Velocity":49,"Duration":107973,"SoundDuration":107973,"Delta":32504400},{"NoteNumber":62,"Velocity":32,"Duration":107973,"SoundDuration":107973,"Delta":32504400},{"NoteNumber":84,"Velocity":70,"Duration":103252,"SoundDuration":103252,"Delta":32612374},{"NoteNumber":51,"Velocity":46,"Duration":103252,"SoundDuration":103252,"Delta":32612374},{"NoteNumber":72,"Velocity":42,"Duration":103535,"SoundDuration":103535,"Delta":32715626},{"NoteNumber":67,"Velocity":30,"Duration":103535,"SoundDuration":103535,"Delta":32715626},{"NoteNumber":79,"Velocity":43,"Duration":103820,"SoundDuration":103820,"Delta":32819162},{"NoteNumber":63,"Velocity":31,"Duration":103820,"SoundDuration":103820,"Delta":32819162},{"NoteNumber":82,"Velocity":62,"Duration":104173,"SoundDuration":104173,"Delta":32922982},{"NoteNumber":58,"Velocity":39,"Duration":104173,"SoundDuration":104173,"Delta":32922982},{"NoteNumber":70,"Velocity":43,"Duration":104461,"SoundDuration":104461,"Delta":33027156},{"NoteNumber":67,"Velocity":30,"Duration":104461,"SoundDuration":104461,"Delta":33027156},{"NoteNumber":75,"Velocity":43,"Duration":104751,"SoundDuration":104751,"Delta":33131618},{"NoteNumber":63,"Velocity":30,"Duration":104751,"SoundDuration":104751,"Delta":33131618},{"NoteNumber":79,"Velocity":60,"Duration":105043,"SoundDuration":105043,"Delta":33236370},{"NoteNumber":51,"Velocity":35,"Duration":105043,"SoundDuration":105043,"Delta":33236370},{"NoteNumber":67,"Velocity":43,"Duration":105410,"SoundDuration":105410,"Delta":33341413},{"NoteNumber":63,"Velocity":29,"Duration":105410,"SoundDuration":105410,"Delta":33341413},{"NoteNumber":70,"Velocity":41,"Duration":104840,"SoundDuration":104840,"Delta":33446824},{"NoteNumber":55,"Velocity":29,"Duration":104840,"SoundDuration":104840,"Delta":33446824},{"NoteNumber":75,"Velocity":53,"Duration":102690,"SoundDuration":102690,"Delta":33551664},{"NoteNumber":41,"Velocity":36,"Duration":102690,"SoundDuration":102690,"Delta":33551664},{"NoteNumber":63,"Velocity":38,"Duration":102411,"SoundDuration":102411,"Delta":33654355},{"NoteNumber":60,"Velocity":28,"Duration":102411,"SoundDuration":102411,"Delta":33654355},{"NoteNumber":69,"Velocity":38,"Duration":102134,"SoundDuration":102134,"Delta":33756766},{"NoteNumber":53,"Velocity":29,"Duration":102134,"SoundDuration":102134,"Delta":33756766},{"NoteNumber":74,"Velocity":54,"Duration":101846,"SoundDuration":101846,"Delta":33858901},{"NoteNumber":48,"Velocity":34,"Duration":101846,"SoundDuration":101846,"Delta":33858901},{"NoteNumber":62,"Velocity":41,"Duration":101138,"SoundDuration":101138,"Delta":33960747},{"NoteNumber":60,"Velocity":30,"Duration":101138,"SoundDuration":101138,"Delta":33960747},{"NoteNumber":69,"Velocity":43,"Duration":100439,"SoundDuration":100439,"Delta":34061886},{"NoteNumber":53,"Velocity":32,"Duration":100439,"SoundDuration":100439,"Delta":34061886},{"NoteNumber":75,"Velocity":64,"Duration":99688,"SoundDuration":99688,"Delta":34162326},{"NoteNumber":41,"Velocity":45,"Duration":99688,"SoundDuration":99688,"Delta":34162326},{"NoteNumber":63,"Velocity":51,"Duration":99010,"SoundDuration":99010,"Delta":34262015},{"NoteNumber":60,"Velocity":34,"Duration":99010,"SoundDuration":99010,"Delta":34262015},{"NoteNumber":69,"Velocity":57,"Duration":98340,"SoundDuration":98340,"Delta":34361025},{"NoteNumber":53,"Velocity":40,"Duration":98340,"SoundDuration":98340,"Delta":34361025},{"NoteNumber":79,"Velocity":71,"Duration":98475,"SoundDuration":98475,"Delta":34459366},{"NoteNumber":46,"Velocity":50,"Duration":98475,"SoundDuration":98475,"Delta":34459366},{"NoteNumber":67,"Velocity":51,"Duration":98797,"SoundDuration":98797,"Delta":34557841},{"NoteNumber":63,"Velocity":35,"Duration":98797,"SoundDuration":98797,"Delta":34557841},{"NoteNumber":70,"Velocity":51,"Duration":99121,"SoundDuration":99121,"Delta":34656638},{"NoteNumber":53,"Velocity":35,"Duration":99121,"SoundDuration":99121,"Delta":34656638},{"NoteNumber":77,"Velocity":67,"Duration":99513,"SoundDuration":99513,"Delta":34755760},{"NoteNumber":50,"Velocity":43,"Duration":99513,"SoundDuration":99513,"Delta":34755760},{"NoteNumber":65,"Velocity":43,"Duration":99842,"SoundDuration":99842,"Delta":34855273},{"NoteNumber":62,"Velocity":36,"Duration":99842,"SoundDuration":99842,"Delta":34855273},{"NoteNumber":70,"Velocity":42,"Duration":100174,"SoundDuration":100174,"Delta":34955116},{"NoteNumber":53,"Velocity":34,"Duration":100174,"SoundDuration":100174,"Delta":34955116},{"NoteNumber":74,"Velocity":63,"Duration":100569,"SoundDuration":100569,"Delta":35055291},{"NoteNumber":46,"Velocity":39,"Duration":100569,"SoundDuration":100569,"Delta":35055291},{"NoteNumber":62,"Velocity":42,"Duration":100905,"SoundDuration":100905,"Delta":35155860},{"NoteNumber":58,"Velocity":34,"Duration":100905,"SoundDuration":100905,"Delta":35155860},{"NoteNumber":65,"Velocity":41,"Duration":100774,"SoundDuration":100774,"Delta":35256766},{"NoteNumber":53,"Velocity":33,"Duration":100774,"SoundDuration":100774,"Delta":35256766},{"NoteNumber":75,"Velocity":53,"Duration":106383,"SoundDuration":106383,"Delta":35357540},{"NoteNumber":41,"Velocity":36,"Duration":106383,"SoundDuration":106383,"Delta":35357540},{"NoteNumber":63,"Velocity":38,"Duration":103865,"SoundDuration":103865,"Delta":35463923},{"NoteNumber":60,"Velocity":28,"Duration":103865,"SoundDuration":103865,"Delta":35463923},{"NoteNumber":69,"Velocity":38,"Duration":104438,"SoundDuration":104438,"Delta":35567789},{"NoteNumber":53,"Velocity":29,"Duration":104438,"SoundDuration":104438,"Delta":35567789},{"NoteNumber":74,"Velocity":54,"Duration":104031,"SoundDuration":104031,"Delta":35672228},{"NoteNumber":48,"Velocity":34,"Duration":104031,"SoundDuration":104031,"Delta":35672228},{"NoteNumber":62,"Velocity":41,"Duration":103560,"SoundDuration":103560,"Delta":35776259},{"NoteNumber":59,"Velocity":30,"Duration":103560,"SoundDuration":103560,"Delta":35776259},{"NoteNumber":69,"Velocity":43,"Duration":103093,"SoundDuration":103093,"Delta":35879819},{"NoteNumber":53,"Velocity":32,"Duration":103093,"SoundDuration":103093,"Delta":35879819},{"NoteNumber":75,"Velocity":65,"Duration":102829,"SoundDuration":102829,"Delta":35982912},{"NoteNumber":41,"Velocity":38,"Duration":102829,"SoundDuration":102829,"Delta":35982912},{"NoteNumber":63,"Velocity":51,"Duration":105060,"SoundDuration":105060,"Delta":36085741},{"NoteNumber":60,"Velocity":36,"Duration":105060,"SoundDuration":105060,"Delta":36085741},{"NoteNumber":69,"Velocity":58,"Duration":114344,"SoundDuration":114344,"Delta":36190802},{"NoteNumber":53,"Velocity":35,"Duration":114344,"SoundDuration":114344,"Delta":36190802},{"NoteNumber":79,"Velocity":71,"Duration":102827,"SoundDuration":102827,"Delta":36305146},{"NoteNumber":46,"Velocity":51,"Duration":102827,"SoundDuration":102827,"Delta":36305146},{"NoteNumber":67,"Velocity":54,"Duration":102827,"SoundDuration":102827,"Delta":36407974},{"NoteNumber":63,"Velocity":35,"Duration":102827,"SoundDuration":102827,"Delta":36407974},{"NoteNumber":72,"Velocity":51,"Duration":102827,"SoundDuration":102827,"Delta":36510801},{"NoteNumber":56,"Velocity":35,"Duration":102827,"SoundDuration":102827,"Delta":36510801},{"NoteNumber":77,"Velocity":60,"Duration":104438,"SoundDuration":104438,"Delta":36613629},{"NoteNumber":53,"Velocity":43,"Duration":104438,"SoundDuration":104438,"Delta":36613629},{"NoteNumber":65,"Velocity":43,"Duration":104438,"SoundDuration":104438,"Delta":36718068},{"NoteNumber":62,"Velocity":35,"Duration":104438,"SoundDuration":104438,"Delta":36718068},{"NoteNumber":68,"Velocity":42,"Duration":124610,"SoundDuration":124610,"Delta":36822506},{"NoteNumber":53,"Velocity":34,"Duration":124610,"SoundDuration":124610,"Delta":36822506},{"NoteNumber":72,"Velocity":58,"Duration":102564,"SoundDuration":102564,"Delta":36947117},{"NoteNumber":46,"Velocity":39,"Duration":102564,"SoundDuration":102564,"Delta":36947117},{"NoteNumber":60,"Velocity":42,"Duration":102564,"SoundDuration":102564,"Delta":37049681},{"NoteNumber":56,"Velocity":33,"Duration":102564,"SoundDuration":102564,"Delta":37049681},{"NoteNumber":65,"Velocity":41,"Duration":101154,"SoundDuration":101154,"Delta":37152245},{"NoteNumber":50,"Velocity":32,"Duration":101154,"SoundDuration":101154,"Delta":37152245},{"NoteNumber":70,"Velocity":53,"Duration":104619,"SoundDuration":104619,"Delta":37253400},{"NoteNumber":39,"Velocity":36,"Duration":104619,"SoundDuration":104619,"Delta":37253400},{"NoteNumber":58,"Velocity":38,"Duration":104897,"SoundDuration":104897,"Delta":37358020},{"NoteNumber":55,"Velocity":28,"Duration":104897,"SoundDuration":104897,"Delta":37358020},{"NoteNumber":67,"Velocity":37,"Duration":104534,"SoundDuration":104534,"Delta":37462917},{"NoteNumber":46,"Velocity":28,"Duration":104534,"SoundDuration":104534,"Delta":37462917},{"NoteNumber":75,"Velocity":51,"Duration":104389,"SoundDuration":104389,"Delta":37567452},{"NoteNumber":39,"Velocity":33,"Duration":104389,"SoundDuration":104389,"Delta":37567452},{"NoteNumber":63,"Velocity":38,"Duration":103680,"SoundDuration":103680,"Delta":37671841},{"NoteNumber":55,"Velocity":28,"Duration":103680,"SoundDuration":103680,"Delta":37671841},{"NoteNumber":70,"Velocity":40,"Duration":102830,"SoundDuration":102830,"Delta":37775521},{"NoteNumber":46,"Velocity":29,"Duration":102830,"SoundDuration":102830,"Delta":37775521},{"NoteNumber":79,"Velocity":54,"Duration":102481,"SoundDuration":102481,"Delta":37878352},{"NoteNumber":39,"Velocity":35,"Duration":102481,"SoundDuration":102481,"Delta":37878352},{"NoteNumber":67,"Velocity":40,"Duration":102203,"SoundDuration":102203,"Delta":37980833},{"NoteNumber":58,"Velocity":31,"Duration":102203,"SoundDuration":102203,"Delta":37980833},{"NoteNumber":75,"Velocity":43,"Duration":101790,"SoundDuration":101790,"Delta":38083037},{"NoteNumber":46,"Velocity":31,"Duration":101790,"SoundDuration":101790,"Delta":38083037},{"NoteNumber":82,"Velocity":65,"Duration":102001,"SoundDuration":102001,"Delta":38184828},{"NoteNumber":39,"Velocity":39,"Duration":102001,"SoundDuration":102001,"Delta":38184828},{"NoteNumber":70,"Velocity":47,"Duration":101108,"SoundDuration":101108,"Delta":38286829},{"NoteNumber":63,"Velocity":31,"Duration":101108,"SoundDuration":101108,"Delta":38286829},{"NoteNumber":79,"Velocity":47,"Duration":100703,"SoundDuration":100703,"Delta":38387937},{"NoteNumber":55,"Velocity":32,"Duration":100703,"SoundDuration":100703,"Delta":38387937},{"NoteNumber":87,"Velocity":70,"Duration":100371,"SoundDuration":100371,"Delta":38488641},{"NoteNumber":46,"Velocity":40,"Duration":100371,"SoundDuration":100371,"Delta":38488641},{"NoteNumber":75,"Velocity":49,"Duration":100041,"SoundDuration":100041,"Delta":38589013},{"NoteNumber":67,"Velocity":33,"Duration":100041,"SoundDuration":100041,"Delta":38589013},{"NoteNumber":82,"Velocity":51,"Duration":99645,"SoundDuration":99645,"Delta":38689054},{"NoteNumber":58,"Velocity":35,"Duration":99645,"SoundDuration":99645,"Delta":38689054},{"NoteNumber":91,"Velocity":73,"Duration":98604,"SoundDuration":98604,"Delta":38788700},{"NoteNumber":51,"Velocity":44,"Duration":98604,"SoundDuration":98604,"Delta":38788700},{"NoteNumber":79,"Velocity":51,"Duration":99318,"SoundDuration":99318,"Delta":38887304},{"NoteNumber":70,"Velocity":37,"Duration":99318,"SoundDuration":99318,"Delta":38887304},{"NoteNumber":82,"Velocity":53,"Duration":99648,"SoundDuration":99648,"Delta":38986622},{"NoteNumber":58,"Velocity":38,"Duration":99648,"SoundDuration":99648,"Delta":38986622},{"NoteNumber":90,"Velocity":81,"Duration":98668,"SoundDuration":98668,"Delta":39086270},{"NoteNumber":45,"Velocity":55,"Duration":98668,"SoundDuration":98668,"Delta":39086270},{"NoteNumber":75,"Velocity":57,"Duration":98926,"SoundDuration":98926,"Delta":39184938},{"NoteNumber":60,"Velocity":36,"Duration":98926,"SoundDuration":98926,"Delta":39184938},{"NoteNumber":81,"Velocity":59,"Duration":99121,"SoundDuration":99121,"Delta":39283865},{"NoteNumber":54,"Velocity":36,"Duration":99121,"SoundDuration":99121,"Delta":39283865},{"NoteNumber":89,"Velocity":77,"Duration":99317,"SoundDuration":99317,"Delta":39382987},{"NoteNumber":47,"Velocity":49,"Duration":99317,"SoundDuration":99317,"Delta":39382987},{"NoteNumber":74,"Velocity":57,"Duration":99513,"SoundDuration":99513,"Delta":39482304},{"NoteNumber":62,"Velocity":37,"Duration":99513,"SoundDuration":99513,"Delta":39482304},{"NoteNumber":80,"Velocity":58,"Duration":99710,"SoundDuration":99710,"Delta":39581818},{"NoteNumber":56,"Velocity":36,"Duration":99710,"SoundDuration":99710,"Delta":39581818},{"NoteNumber":88,"Velocity":76,"Duration":99975,"SoundDuration":99975,"Delta":39681529},{"NoteNumber":49,"Velocity":47,"Duration":99975,"SoundDuration":99975,"Delta":39681529},{"NoteNumber":73,"Velocity":52,"Duration":100174,"SoundDuration":100174,"Delta":39781504},{"NoteNumber":64,"Velocity":34,"Duration":100174,"SoundDuration":100174,"Delta":39781504},{"NoteNumber":79,"Velocity":51,"Duration":100371,"SoundDuration":100371,"Delta":39881678},{"NoteNumber":58,"Velocity":33,"Duration":100371,"SoundDuration":100371,"Delta":39881678},{"NoteNumber":87,"Velocity":84,"Duration":101613,"SoundDuration":101613,"Delta":39982050},{"NoteNumber":51,"Velocity":54,"Duration":101613,"SoundDuration":101613,"Delta":39982050},{"NoteNumber":72,"Velocity":53,"Duration":100041,"SoundDuration":100041,"Delta":40083663},{"NoteNumber":66,"Velocity":38,"Duration":100041,"SoundDuration":100041,"Delta":40083663},{"NoteNumber":78,"Velocity":53,"Duration":100306,"SoundDuration":100306,"Delta":40183705},{"NoteNumber":60,"Velocity":35,"Duration":100306,"SoundDuration":100306,"Delta":40183705},{"NoteNumber":86,"Velocity":75,"Duration":100569,"SoundDuration":100569,"Delta":40284011},{"NoteNumber":53,"Velocity":46,"Duration":100569,"SoundDuration":100569,"Delta":40284011},{"NoteNumber":71,"Velocity":52,"Duration":100770,"SoundDuration":100770,"Delta":40384581},{"NoteNumber":68,"Velocity":34,"Duration":100770,"SoundDuration":100770,"Delta":40384581},{"NoteNumber":77,"Velocity":48,"Duration":101040,"SoundDuration":101040,"Delta":40485352},{"NoteNumber":62,"Velocity":34,"Duration":101040,"SoundDuration":101040,"Delta":40485352},{"NoteNumber":85,"Velocity":70,"Duration":101312,"SoundDuration":101312,"Delta":40586392},{"NoteNumber":55,"Velocity":42,"Duration":101312,"SoundDuration":101312,"Delta":40586392},{"NoteNumber":73,"Velocity":52,"Duration":101584,"SoundDuration":101584,"Delta":40687704},{"NoteNumber":70,"Velocity":35,"Duration":101584,"SoundDuration":101584,"Delta":40687704},{"NoteNumber":79,"Velocity":51,"Duration":102066,"SoundDuration":102066,"Delta":40789289},{"NoteNumber":64,"Velocity":35,"Duration":102066,"SoundDuration":102066,"Delta":40789289},{"NoteNumber":84,"Velocity":74,"Duration":103820,"SoundDuration":103820,"Delta":40891356},{"NoteNumber":56,"Velocity":47,"Duration":103820,"SoundDuration":103820,"Delta":40891356},{"NoteNumber":72,"Velocity":50,"Duration":102411,"SoundDuration":102411,"Delta":40995176},{"NoteNumber":68,"Velocity":36,"Duration":102411,"SoundDuration":102411,"Delta":40995176},{"NoteNumber":77,"Velocity":49,"Duration":102134,"SoundDuration":102134,"Delta":41097588},{"NoteNumber":65,"Velocity":43,"Duration":102134,"SoundDuration":102134,"Delta":41097588},{"NoteNumber":86,"Velocity":79,"Duration":101859,"SoundDuration":101859,"Delta":41199723},{"NoteNumber":60,"Velocity":54,"Duration":101859,"SoundDuration":101859,"Delta":41199723},{"NoteNumber":72,"Velocity":56,"Duration":101584,"SoundDuration":101584,"Delta":41301582},{"NoteNumber":68,"Velocity":42,"Duration":101584,"SoundDuration":101584,"Delta":41301582},{"NoteNumber":77,"Velocity":58,"Duration":101312,"SoundDuration":101312,"Delta":41403166},{"NoteNumber":65,"Velocity":42,"Duration":101312,"SoundDuration":101312,"Delta":41403166},{"NoteNumber":87,"Velocity":86,"Duration":101040,"SoundDuration":101040,"Delta":41504478},{"NoteNumber":56,"Velocity":60,"Duration":101040,"SoundDuration":101040,"Delta":41504478},{"NoteNumber":72,"Velocity":61,"Duration":100770,"SoundDuration":100770,"Delta":41605519},{"NoteNumber":68,"Velocity":46,"Duration":100770,"SoundDuration":100770,"Delta":41605519},{"NoteNumber":77,"Velocity":65,"Duration":100502,"SoundDuration":100502,"Delta":41706290},{"NoteNumber":65,"Velocity":49,"Duration":100502,"SoundDuration":100502,"Delta":41706290},{"NoteNumber":89,"Velocity":89,"Duration":101040,"SoundDuration":101040,"Delta":41806793},{"NoteNumber":53,"Velocity":62,"Duration":101040,"SoundDuration":101040,"Delta":41806793},{"NoteNumber":77,"Velocity":62,"Duration":100905,"SoundDuration":100905,"Delta":41907833},{"NoteNumber":75,"Velocity":46,"Duration":100905,"SoundDuration":100905,"Delta":41907833},{"NoteNumber":84,"Velocity":63,"Duration":100703,"SoundDuration":100703,"Delta":42008739},{"NoteNumber":68,"Velocity":46,"Duration":100703,"SoundDuration":100703,"Delta":42008739},{"NoteNumber":91,"Velocity":80,"Duration":100502,"SoundDuration":100502,"Delta":42109443},{"NoteNumber":63,"Velocity":50,"Duration":100502,"SoundDuration":100502,"Delta":42109443},{"NoteNumber":79,"Velocity":50,"Duration":100240,"SoundDuration":100240,"Delta":42209946},{"NoteNumber":75,"Velocity":37,"Duration":100240,"SoundDuration":100240,"Delta":42209946},{"NoteNumber":84,"Velocity":51,"Duration":100041,"SoundDuration":100041,"Delta":42310187},{"NoteNumber":68,"Velocity":38,"Duration":100041,"SoundDuration":100041,"Delta":42310187},{"NoteNumber":89,"Velocity":75,"Duration":99842,"SoundDuration":99842,"Delta":42410228},{"NoteNumber":56,"Velocity":46,"Duration":99842,"SoundDuration":99842,"Delta":42410228},{"NoteNumber":77,"Velocity":47,"Duration":99645,"SoundDuration":99645,"Delta":42510071},{"NoteNumber":75,"Velocity":37,"Duration":99645,"SoundDuration":99645,"Delta":42510071},{"NoteNumber":80,"Velocity":48,"Duration":100502,"SoundDuration":100502,"Delta":42609716},{"NoteNumber":68,"Velocity":35,"Duration":100502,"SoundDuration":100502,"Delta":42609716},{"NoteNumber":84,"Velocity":70,"Duration":109890,"SoundDuration":109890,"Delta":42710219},{"NoteNumber":44,"Velocity":46,"Duration":109890,"SoundDuration":109890,"Delta":42710219},{"NoteNumber":72,"Velocity":51,"Duration":102411,"SoundDuration":102411,"Delta":42820109},{"NoteNumber":68,"Velocity":35,"Duration":102411,"SoundDuration":102411,"Delta":42820109},{"NoteNumber":77,"Velocity":50,"Duration":102134,"SoundDuration":102134,"Delta":42922521},{"NoteNumber":65,"Velocity":38,"Duration":102134,"SoundDuration":102134,"Delta":42922521},{"NoteNumber":86,"Velocity":68,"Duration":101859,"SoundDuration":101859,"Delta":43024655},{"NoteNumber":60,"Velocity":47,"Duration":101859,"SoundDuration":101859,"Delta":43024655},{"NoteNumber":74,"Velocity":53,"Duration":101584,"SoundDuration":101584,"Delta":43126514},{"NoteNumber":68,"Velocity":38,"Duration":101584,"SoundDuration":101584,"Delta":43126514},{"NoteNumber":77,"Velocity":49,"Duration":101312,"SoundDuration":101312,"Delta":43228099},{"NoteNumber":65,"Velocity":32,"Duration":101312,"SoundDuration":101312,"Delta":43228099},{"NoteNumber":84,"Velocity":61,"Duration":101040,"SoundDuration":101040,"Delta":43329411},{"NoteNumber":53,"Velocity":38,"Duration":101040,"SoundDuration":101040,"Delta":43329411},{"NoteNumber":72,"Velocity":44,"Duration":100770,"SoundDuration":100770,"Delta":43430452},{"NoteNumber":68,"Velocity":34,"Duration":100770,"SoundDuration":100770,"Delta":43430452},{"NoteNumber":77,"Velocity":46,"Duration":100502,"SoundDuration":100502,"Delta":43531223},{"NoteNumber":63,"Velocity":34,"Duration":100502,"SoundDuration":100502,"Delta":43531223},{"NoteNumber":77,"Velocity":57,"Duration":103820,"SoundDuration":103820,"Delta":43631725},{"NoteNumber":46,"Velocity":37,"Duration":103820,"SoundDuration":103820,"Delta":43631725},{"NoteNumber":65,"Velocity":42,"Duration":102411,"SoundDuration":102411,"Delta":43735546},{"NoteNumber":63,"Velocity":28,"Duration":102411,"SoundDuration":102411,"Delta":43735546},{"NoteNumber":72,"Velocity":41,"Duration":102134,"SoundDuration":102134,"Delta":43837958},{"NoteNumber":56,"Velocity":31,"Duration":102134,"SoundDuration":102134,"Delta":43837958},{"NoteNumber":79,"Velocity":55,"Duration":101859,"SoundDuration":101859,"Delta":43940092},{"NoteNumber":53,"Velocity":38,"Duration":101859,"SoundDuration":101859,"Delta":43940092},{"NoteNumber":65,"Velocity":44,"Duration":101584,"SoundDuration":101584,"Delta":44041951},{"NoteNumber":62,"Velocity":31,"Duration":101584,"SoundDuration":101584,"Delta":44041951},{"NoteNumber":72,"Velocity":44,"Duration":101242,"SoundDuration":101242,"Delta":44143536},{"NoteNumber":56,"Velocity":32,"Duration":101242,"SoundDuration":101242,"Delta":44143536},{"NoteNumber":74,"Velocity":50,"Duration":101981,"SoundDuration":101981,"Delta":44244778},{"NoteNumber":46,"Velocity":31,"Duration":101981,"SoundDuration":101981,"Delta":44244778},{"NoteNumber":62,"Velocity":36,"Duration":104719,"SoundDuration":104719,"Delta":44346760},{"NoteNumber":58,"Velocity":27,"Duration":104719,"SoundDuration":104719,"Delta":44346760},{"NoteNumber":70,"Velocity":37,"Duration":107643,"SoundDuration":107643,"Delta":44451480},{"NoteNumber":56,"Velocity":27,"Duration":107643,"SoundDuration":107643,"Delta":44451480},{"NoteNumber":75,"Velocity":52,"Duration":102001,"SoundDuration":102001,"Delta":44559124},{"NoteNumber":39,"Velocity":32,"Duration":102001,"SoundDuration":102001,"Delta":44559124},{"NoteNumber":63,"Velocity":40,"Duration":101108,"SoundDuration":101108,"Delta":44661125},{"NoteNumber":55,"Velocity":27,"Duration":101108,"SoundDuration":101108,"Delta":44661125},{"NoteNumber":70,"Velocity":41,"Duration":100703,"SoundDuration":100703,"Delta":44762233},{"NoteNumber":46,"Velocity":28,"Duration":100703,"SoundDuration":100703,"Delta":44762233},{"NoteNumber":82,"Velocity":61,"Duration":100371,"SoundDuration":100371,"Delta":44862937},{"NoteNumber":39,"Velocity":36,"Duration":100371,"SoundDuration":100371,"Delta":44862937},{"NoteNumber":67,"Velocity":44,"Duration":101140,"SoundDuration":101140,"Delta":44963309},{"NoteNumber":58,"Velocity":29,"Duration":101140,"SoundDuration":101140,"Delta":44963309},{"NoteNumber":75,"Velocity":47,"Duration":125000,"SoundDuration":125000,"Delta":45064450},{"NoteNumber":46,"Velocity":32,"Duration":125000,"SoundDuration":125000,"Delta":45064450},{"NoteNumber":83,"Velocity":68,"Duration":98604,"SoundDuration":98604,"Delta":45189450},{"NoteNumber":39,"Velocity":40,"Duration":98604,"SoundDuration":98604,"Delta":45189450},{"NoteNumber":67,"Velocity":48,"Duration":99121,"SoundDuration":99121,"Delta":45288054},{"NoteNumber":58,"Velocity":34,"Duration":99121,"SoundDuration":99121,"Delta":45288054},{"NoteNumber":75,"Velocity":51,"Duration":104101,"SoundDuration":104101,"Delta":45387175},{"NoteNumber":46,"Velocity":36,"Duration":104101,"SoundDuration":104101,"Delta":45387175},{"NoteNumber":82,"Velocity":68,"Duration":98380,"SoundDuration":98380,"Delta":45491277},{"NoteNumber":39,"Velocity":46,"Duration":98380,"SoundDuration":98380,"Delta":45491277},{"NoteNumber":68,"Velocity":51,"Duration":101858,"SoundDuration":101858,"Delta":45589658},{"NoteNumber":56,"Velocity":54,"Duration":101858,"SoundDuration":101858,"Delta":45589658},{"NoteNumber":74,"Velocity":49,"Duration":102134,"SoundDuration":102134,"Delta":45691517},{"NoteNumber":46,"Velocity":33,"Duration":102134,"SoundDuration":102134,"Delta":45691517},{"NoteNumber":81,"Velocity":69,"Duration":102411,"SoundDuration":102411,"Delta":45793652},{"NoteNumber":39,"Velocity":42,"Duration":102411,"SoundDuration":102411,"Delta":45793652},{"NoteNumber":68,"Velocity":49,"Duration":102690,"SoundDuration":102690,"Delta":45896063},{"NoteNumber":58,"Velocity":32,"Duration":102690,"SoundDuration":102690,"Delta":45896063},{"NoteNumber":74,"Velocity":46,"Duration":102970,"SoundDuration":102970,"Delta":45998754},{"NoteNumber":46,"Velocity":30,"Duration":102970,"SoundDuration":102970,"Delta":45998754},{"NoteNumber":80,"Velocity":63,"Duration":103252,"SoundDuration":103252,"Delta":46101724},{"NoteNumber":39,"Velocity":34,"Duration":103252,"SoundDuration":103252,"Delta":46101724},{"NoteNumber":68,"Velocity":45,"Duration":103252,"SoundDuration":103252,"Delta":46204977},{"NoteNumber":58,"Velocity":28,"Duration":103252,"SoundDuration":103252,"Delta":46204977},{"NoteNumber":74,"Velocity":40,"Duration":107974,"SoundDuration":107974,"Delta":46308229},{"NoteNumber":46,"Velocity":26,"Duration":107974,"SoundDuration":107974,"Delta":46308229},{"NoteNumber":79,"Velocity":52,"Duration":102001,"SoundDuration":102001,"Delta":46416203},{"NoteNumber":39,"Velocity":32,"Duration":102001,"SoundDuration":102001,"Delta":46416203},{"NoteNumber":67,"Velocity":40,"Duration":101108,"SoundDuration":101108,"Delta":46518204},{"NoteNumber":58,"Velocity":27,"Duration":101108,"SoundDuration":101108,"Delta":46518204},{"NoteNumber":75,"Velocity":41,"Duration":100703,"SoundDuration":100703,"Delta":46619313},{"NoteNumber":46,"Velocity":28,"Duration":100703,"SoundDuration":100703,"Delta":46619313},{"NoteNumber":82,"Velocity":61,"Duration":100371,"SoundDuration":100371,"Delta":46720016},{"NoteNumber":39,"Velocity":36,"Duration":100371,"SoundDuration":100371,"Delta":46720016},{"NoteNumber":67,"Velocity":44,"Duration":100041,"SoundDuration":100041,"Delta":46820388},{"NoteNumber":58,"Velocity":29,"Duration":100041,"SoundDuration":100041,"Delta":46820388},{"NoteNumber":75,"Velocity":47,"Duration":105655,"SoundDuration":105655,"Delta":46920430},{"NoteNumber":46,"Velocity":32,"Duration":105655,"SoundDuration":105655,"Delta":46920430},{"NoteNumber":84,"Velocity":67,"Duration":100771,"SoundDuration":100771,"Delta":47026085},{"NoteNumber":39,"Velocity":40,"Duration":100771,"SoundDuration":100771,"Delta":47026085},{"NoteNumber":67,"Velocity":48,"Duration":100770,"SoundDuration":100770,"Delta":47126856},{"NoteNumber":58,"Velocity":34,"Duration":100770,"SoundDuration":100770,"Delta":47126856},{"NoteNumber":75,"Velocity":51,"Duration":104101,"SoundDuration":104101,"Delta":47227627},{"NoteNumber":46,"Velocity":36,"Duration":104101,"SoundDuration":104101,"Delta":47227627},{"NoteNumber":82,"Velocity":69,"Duration":99255,"SoundDuration":99255,"Delta":47331729},{"NoteNumber":39,"Velocity":40,"Duration":99255,"SoundDuration":99255,"Delta":47331729},{"NoteNumber":68,"Velocity":51,"Duration":101858,"SoundDuration":101858,"Delta":47430985},{"NoteNumber":56,"Velocity":42,"Duration":101858,"SoundDuration":101858,"Delta":47430985},{"NoteNumber":74,"Velocity":49,"Duration":102134,"SoundDuration":102134,"Delta":47532844},{"NoteNumber":46,"Velocity":33,"Duration":102134,"SoundDuration":102134,"Delta":47532844},{"NoteNumber":81,"Velocity":62,"Duration":102411,"SoundDuration":102411,"Delta":47634978},{"NoteNumber":39,"Velocity":42,"Duration":102411,"SoundDuration":102411,"Delta":47634978},{"NoteNumber":68,"Velocity":49,"Duration":102690,"SoundDuration":102690,"Delta":47737390},{"NoteNumber":58,"Velocity":32,"Duration":102690,"SoundDuration":102690,"Delta":47737390},{"NoteNumber":74,"Velocity":46,"Duration":102970,"SoundDuration":102970,"Delta":47840080},{"NoteNumber":46,"Velocity":30,"Duration":102970,"SoundDuration":102970,"Delta":47840080},{"NoteNumber":80,"Velocity":55,"Duration":103252,"SoundDuration":103252,"Delta":47943051},{"NoteNumber":39,"Velocity":34,"Duration":103252,"SoundDuration":103252,"Delta":47943051},{"NoteNumber":68,"Velocity":45,"Duration":103252,"SoundDuration":103252,"Delta":48046303},{"NoteNumber":58,"Velocity":28,"Duration":103252,"SoundDuration":103252,"Delta":48046303},{"NoteNumber":74,"Velocity":40,"Duration":107974,"SoundDuration":107974,"Delta":48149556},{"NoteNumber":46,"Velocity":26,"Duration":107974,"SoundDuration":107974,"Delta":48149556},{"NoteNumber":79,"Velocity":52,"Duration":102001,"SoundDuration":102001,"Delta":48257530},{"NoteNumber":39,"Velocity":32,"Duration":102001,"SoundDuration":102001,"Delta":48257530},{"NoteNumber":67,"Velocity":40,"Duration":101108,"SoundDuration":101108,"Delta":48359531},{"NoteNumber":58,"Velocity":27,"Duration":101108,"SoundDuration":101108,"Delta":48359531},{"NoteNumber":75,"Velocity":42,"Duration":100703,"SoundDuration":100703,"Delta":48460639},{"NoteNumber":46,"Velocity":28,"Duration":100703,"SoundDuration":100703,"Delta":48460639},{"NoteNumber":82,"Velocity":65,"Duration":100371,"SoundDuration":100371,"Delta":48561343},{"NoteNumber":39,"Velocity":39,"Duration":100371,"SoundDuration":100371,"Delta":48561343},{"NoteNumber":67,"Velocity":48,"Duration":100041,"SoundDuration":100041,"Delta":48661715},{"NoteNumber":58,"Velocity":29,"Duration":100041,"SoundDuration":100041,"Delta":48661715},{"NoteNumber":79,"Velocity":50,"Duration":99645,"SoundDuration":99645,"Delta":48761756},{"NoteNumber":46,"Velocity":32,"Duration":99645,"SoundDuration":99645,"Delta":48761756},{"NoteNumber":87,"Velocity":75,"Duration":98604,"SoundDuration":98604,"Delta":48861402},{"NoteNumber":43,"Velocity":45,"Duration":98604,"SoundDuration":98604,"Delta":48861402},{"NoteNumber":75,"Velocity":54,"Duration":99121,"SoundDuration":99121,"Delta":48960006},{"NoteNumber":58,"Velocity":35,"Duration":99121,"SoundDuration":99121,"Delta":48960006},{"NoteNumber":82,"Velocity":58,"Duration":123456,"SoundDuration":123456,"Delta":49059127},{"NoteNumber":51,"Velocity":37,"Duration":123456,"SoundDuration":123456,"Delta":49059127},{"NoteNumber":91,"Velocity":82,"Duration":99255,"SoundDuration":99255,"Delta":49182584},{"NoteNumber":43,"Velocity":53,"Duration":99255,"SoundDuration":99255,"Delta":49182584},{"NoteNumber":74,"Velocity":59,"Duration":99890,"SoundDuration":99890,"Delta":49281840},{"NoteNumber":65,"Velocity":35,"Duration":99890,"SoundDuration":99890,"Delta":49281840},{"NoteNumber":83,"Velocity":56,"Duration":100094,"SoundDuration":100094,"Delta":49381730},{"NoteNumber":59,"Velocity":35,"Duration":100094,"SoundDuration":100094,"Delta":49381730},{"NoteNumber":89,"Velocity":74,"Duration":100692,"SoundDuration":100692,"Delta":49481824},{"NoteNumber":50,"Velocity":47,"Duration":100692,"SoundDuration":100692,"Delta":49481824},{"NoteNumber":74,"Velocity":55,"Duration":101234,"SoundDuration":101234,"Delta":49582516},{"NoteNumber":65,"Velocity":34,"Duration":101234,"SoundDuration":101234,"Delta":49582516},{"NoteNumber":79,"Velocity":53,"Duration":101814,"SoundDuration":101814,"Delta":49683750},{"NoteNumber":59,"Velocity":33,"Duration":101814,"SoundDuration":101814,"Delta":49683750},{"NoteNumber":87,"Velocity":71,"Duration":102192,"SoundDuration":102192,"Delta":49785564},{"NoteNumber":48,"Velocity":45,"Duration":102192,"SoundDuration":102192,"Delta":49785564},{"NoteNumber":72,"Velocity":52,"Duration":102699,"SoundDuration":102699,"Delta":49887757},{"NoteNumber":63,"Velocity":31,"Duration":102699,"SoundDuration":102699,"Delta":49887757},{"NoteNumber":79,"Velocity":51,"Duration":103359,"SoundDuration":103359,"Delta":49990457},{"NoteNumber":55,"Velocity":29,"Duration":103359,"SoundDuration":103359,"Delta":49990457},{"NoteNumber":87,"Velocity":75,"Duration":99750,"SoundDuration":99750,"Delta":50093816},{"NoteNumber":45,"Velocity":44,"Duration":99750,"SoundDuration":99750,"Delta":50093816},{"NoteNumber":72,"Velocity":57,"Duration":100597,"SoundDuration":100597,"Delta":50193567},{"NoteNumber":63,"Velocity":33,"Duration":100597,"SoundDuration":100597,"Delta":50193567},{"NoteNumber":78,"Velocity":51,"Duration":101010,"SoundDuration":101010,"Delta":50294164},{"NoteNumber":54,"Velocity":33,"Duration":101010,"SoundDuration":101010,"Delta":50294164},{"NoteNumber":86,"Velocity":70,"Duration":101426,"SoundDuration":101426,"Delta":50395174},{"NoteNumber":51,"Velocity":40,"Duration":101426,"SoundDuration":101426,"Delta":50395174},{"NoteNumber":71,"Velocity":51,"Duration":101910,"SoundDuration":101910,"Delta":50496601},{"NoteNumber":63,"Velocity":31,"Duration":101910,"SoundDuration":101910,"Delta":50496601},{"NoteNumber":78,"Velocity":50,"Duration":102367,"SoundDuration":102367,"Delta":50598512},{"NoteNumber":54,"Velocity":29,"Duration":102367,"SoundDuration":102367,"Delta":50598512},{"NoteNumber":84,"Velocity":65,"Duration":103252,"SoundDuration":103252,"Delta":50700879},{"NoteNumber":44,"Velocity":33,"Duration":103252,"SoundDuration":103252,"Delta":50700879},{"NoteNumber":72,"Velocity":45,"Duration":103252,"SoundDuration":103252,"Delta":50804132},{"NoteNumber":63,"Velocity":27,"Duration":103252,"SoundDuration":103252,"Delta":50804132},{"NoteNumber":78,"Velocity":44,"Duration":103252,"SoundDuration":103252,"Delta":50907384},{"NoteNumber":54,"Velocity":26,"Duration":103252,"SoundDuration":103252,"Delta":50907384},{"NoteNumber":84,"Velocity":61,"Duration":100771,"SoundDuration":100771,"Delta":51010636},{"NoteNumber":46,"Velocity":35,"Duration":100771,"SoundDuration":100771,"Delta":51010636},{"NoteNumber":68,"Velocity":46,"Duration":101858,"SoundDuration":101858,"Delta":51111407},{"NoteNumber":62,"Velocity":29,"Duration":101858,"SoundDuration":101858,"Delta":51111407},{"NoteNumber":77,"Velocity":45,"Duration":102134,"SoundDuration":102134,"Delta":51213266},{"NoteNumber":56,"Velocity":29,"Duration":102134,"SoundDuration":102134,"Delta":51213266},{"NoteNumber":82,"Velocity":58,"Duration":102411,"SoundDuration":102411,"Delta":51315401},{"NoteNumber":53,"Velocity":33,"Duration":102411,"SoundDuration":102411,"Delta":51315401},{"NoteNumber":67,"Velocity":44,"Duration":102690,"SoundDuration":102690,"Delta":51417813},{"NoteNumber":62,"Velocity":28,"Duration":102690,"SoundDuration":102690,"Delta":51417813},{"NoteNumber":72,"Velocity":43,"Duration":102970,"SoundDuration":102970,"Delta":51520503},{"NoteNumber":56,"Velocity":28,"Duration":102970,"SoundDuration":102970,"Delta":51520503},{"NoteNumber":80,"Velocity":55,"Duration":103252,"SoundDuration":103252,"Delta":51623474},{"NoteNumber":46,"Velocity":32,"Duration":103252,"SoundDuration":103252,"Delta":51623474},{"NoteNumber":65,"Velocity":43,"Duration":103252,"SoundDuration":103252,"Delta":51726726},{"NoteNumber":58,"Velocity":27,"Duration":103252,"SoundDuration":103252,"Delta":51726726},{"NoteNumber":74,"Velocity":39,"Duration":107974,"SoundDuration":107974,"Delta":51829978},{"NoteNumber":56,"Velocity":26,"Duration":107974,"SoundDuration":107974,"Delta":51829978},{"NoteNumber":79,"Velocity":52,"Duration":102001,"SoundDuration":102001,"Delta":51937952},{"NoteNumber":39,"Velocity":32,"Duration":102001,"SoundDuration":102001,"Delta":51937952},{"NoteNumber":63,"Velocity":40,"Duration":101108,"SoundDuration":101108,"Delta":52039954},{"NoteNumber":55,"Velocity":27,"Duration":101108,"SoundDuration":101108,"Delta":52039954},{"NoteNumber":75,"Velocity":41,"Duration":100703,"SoundDuration":100703,"Delta":52141062},{"NoteNumber":46,"Velocity":28,"Duration":100703,"SoundDuration":100703,"Delta":52141062},{"NoteNumber":82,"Velocity":61,"Duration":100371,"SoundDuration":100371,"Delta":52241766},{"NoteNumber":39,"Velocity":36,"Duration":100371,"SoundDuration":100371,"Delta":52241766},{"NoteNumber":67,"Velocity":49,"Duration":101273,"SoundDuration":101273,"Delta":52342138},{"NoteNumber":58,"Velocity":29,"Duration":101273,"SoundDuration":101273,"Delta":52342138},{"NoteNumber":75,"Velocity":51,"Duration":104411,"SoundDuration":104411,"Delta":52443411},{"NoteNumber":46,"Velocity":32,"Duration":104411,"SoundDuration":104411,"Delta":52443411},{"NoteNumber":83,"Velocity":69,"Duration":99317,"SoundDuration":99317,"Delta":52547823},{"NoteNumber":39,"Velocity":40,"Duration":99317,"SoundDuration":99317,"Delta":52547823},{"NoteNumber":67,"Velocity":55,"Duration":99909,"SoundDuration":99909,"Delta":52647140},{"NoteNumber":58,"Velocity":34,"Duration":99909,"SoundDuration":99909,"Delta":52647140},{"NoteNumber":75,"Velocity":52,"Duration":104101,"SoundDuration":104101,"Delta":52747050},{"NoteNumber":46,"Velocity":33,"Duration":104101,"SoundDuration":104101,"Delta":52747050},{"NoteNumber":82,"Velocity":68,"Duration":99009,"SoundDuration":99009,"Delta":52851151},{"NoteNumber":39,"Velocity":46,"Duration":99009,"SoundDuration":99009,"Delta":52851151},{"NoteNumber":68,"Velocity":51,"Duration":101858,"SoundDuration":101858,"Delta":52950161},{"NoteNumber":56,"Velocity":34,"Duration":101858,"SoundDuration":101858,"Delta":52950161},{"NoteNumber":74,"Velocity":49,"Duration":102134,"SoundDuration":102134,"Delta":53052020},{"NoteNumber":46,"Velocity":33,"Duration":102134,"SoundDuration":102134,"Delta":53052020},{"NoteNumber":81,"Velocity":65,"Duration":102411,"SoundDuration":102411,"Delta":53154155},{"NoteNumber":39,"Velocity":42,"Duration":102411,"SoundDuration":102411,"Delta":53154155},{"NoteNumber":68,"Velocity":49,"Duration":102690,"SoundDuration":102690,"Delta":53256567},{"NoteNumber":58,"Velocity":32,"Duration":102690,"SoundDuration":102690,"Delta":53256567},{"NoteNumber":74,"Velocity":46,"Duration":102970,"SoundDuration":102970,"Delta":53359257},{"NoteNumber":46,"Velocity":30,"Duration":102970,"SoundDuration":102970,"Delta":53359257},{"NoteNumber":80,"Velocity":63,"Duration":103252,"SoundDuration":103252,"Delta":53462228},{"NoteNumber":39,"Velocity":34,"Duration":103252,"SoundDuration":103252,"Delta":53462228},{"NoteNumber":68,"Velocity":45,"Duration":103252,"SoundDuration":103252,"Delta":53565480},{"NoteNumber":58,"Velocity":28,"Duration":103252,"SoundDuration":103252,"Delta":53565480},{"NoteNumber":74,"Velocity":40,"Duration":107974,"SoundDuration":107974,"Delta":53668732},{"NoteNumber":46,"Velocity":26,"Duration":107974,"SoundDuration":107974,"Delta":53668732},{"NoteNumber":79,"Velocity":52,"Duration":102001,"SoundDuration":102001,"Delta":53776706},{"NoteNumber":39,"Velocity":32,"Duration":102001,"SoundDuration":102001,"Delta":53776706},{"NoteNumber":67,"Velocity":40,"Duration":101108,"SoundDuration":101108,"Delta":53878707},{"NoteNumber":58,"Velocity":27,"Duration":101108,"SoundDuration":101108,"Delta":53878707},{"NoteNumber":75,"Velocity":41,"Duration":100703,"SoundDuration":100703,"Delta":53979816},{"NoteNumber":46,"Velocity":28,"Duration":100703,"SoundDuration":100703,"Delta":53979816},{"NoteNumber":82,"Velocity":61,"Duration":100371,"SoundDuration":100371,"Delta":54080520},{"NoteNumber":39,"Velocity":36,"Duration":100371,"SoundDuration":100371,"Delta":54080520},{"NoteNumber":67,"Velocity":44,"Duration":100632,"SoundDuration":100632,"Delta":54180892},{"NoteNumber":58,"Velocity":29,"Duration":100632,"SoundDuration":100632,"Delta":54180892},{"NoteNumber":75,"Velocity":47,"Duration":102997,"SoundDuration":102997,"Delta":54281524},{"NoteNumber":46,"Velocity":32,"Duration":102997,"SoundDuration":102997,"Delta":54281524},{"NoteNumber":84,"Velocity":67,"Duration":98604,"SoundDuration":98604,"Delta":54384521},{"NoteNumber":39,"Velocity":40,"Duration":98604,"SoundDuration":98604,"Delta":54384521},{"NoteNumber":67,"Velocity":48,"Duration":99121,"SoundDuration":99121,"Delta":54483125},{"NoteNumber":58,"Velocity":34,"Duration":99121,"SoundDuration":99121,"Delta":54483125},{"NoteNumber":75,"Velocity":51,"Duration":104101,"SoundDuration":104101,"Delta":54582247},{"NoteNumber":46,"Velocity":36,"Duration":104101,"SoundDuration":104101,"Delta":54582247},{"NoteNumber":82,"Velocity":66,"Duration":99750,"SoundDuration":99750,"Delta":54686349},{"NoteNumber":39,"Velocity":40,"Duration":99750,"SoundDuration":99750,"Delta":54686349},{"NoteNumber":68,"Velocity":51,"Duration":101858,"SoundDuration":101858,"Delta":54786099},{"NoteNumber":56,"Velocity":40,"Duration":101858,"SoundDuration":101858,"Delta":54786099},{"NoteNumber":74,"Velocity":49,"Duration":102134,"SoundDuration":102134,"Delta":54887958},{"NoteNumber":46,"Velocity":33,"Duration":102134,"SoundDuration":102134,"Delta":54887958},{"NoteNumber":81,"Velocity":62,"Duration":102411,"SoundDuration":102411,"Delta":54990093},{"NoteNumber":39,"Velocity":42,"Duration":102411,"SoundDuration":102411,"Delta":54990093},{"NoteNumber":68,"Velocity":49,"Duration":102690,"SoundDuration":102690,"Delta":55092505},{"NoteNumber":58,"Velocity":32,"Duration":102690,"SoundDuration":102690,"Delta":55092505},{"NoteNumber":74,"Velocity":46,"Duration":102970,"SoundDuration":102970,"Delta":55195195},{"NoteNumber":46,"Velocity":30,"Duration":102970,"SoundDuration":102970,"Delta":55195195},{"NoteNumber":80,"Velocity":55,"Duration":103252,"SoundDuration":103252,"Delta":55298166},{"NoteNumber":39,"Velocity":34,"Duration":103252,"SoundDuration":103252,"Delta":55298166},{"NoteNumber":68,"Velocity":45,"Duration":103252,"SoundDuration":103252,"Delta":55401418},{"NoteNumber":58,"Velocity":28,"Duration":103252,"SoundDuration":103252,"Delta":55401418},{"NoteNumber":74,"Velocity":40,"Duration":107974,"SoundDuration":107974,"Delta":55504670},{"NoteNumber":46,"Velocity":26,"Duration":107974,"SoundDuration":107974,"Delta":55504670},{"NoteNumber":79,"Velocity":52,"Duration":102001,"SoundDuration":102001,"Delta":55612644},{"NoteNumber":39,"Velocity":32,"Duration":102001,"SoundDuration":102001,"Delta":55612644},{"NoteNumber":67,"Velocity":40,"Duration":101108,"SoundDuration":101108,"Delta":55714645},{"NoteNumber":58,"Velocity":27,"Duration":101108,"SoundDuration":101108,"Delta":55714645},{"NoteNumber":75,"Velocity":42,"Duration":100703,"SoundDuration":100703,"Delta":55815754},{"NoteNumber":46,"Velocity":28,"Duration":100703,"SoundDuration":100703,"Delta":55815754},{"NoteNumber":82,"Velocity":65,"Duration":100371,"SoundDuration":100371,"Delta":55916458},{"NoteNumber":39,"Velocity":39,"Duration":100371,"SoundDuration":100371,"Delta":55916458},{"NoteNumber":70,"Velocity":48,"Duration":100041,"SoundDuration":100041,"Delta":56016830},{"NoteNumber":58,"Velocity":29,"Duration":100041,"SoundDuration":100041,"Delta":56016830},{"NoteNumber":79,"Velocity":50,"Duration":99645,"SoundDuration":99645,"Delta":56116871},{"NoteNumber":46,"Velocity":32,"Duration":99645,"SoundDuration":99645,"Delta":56116871},{"NoteNumber":87,"Velocity":75,"Duration":98604,"SoundDuration":98604,"Delta":56216516},{"NoteNumber":39,"Velocity":45,"Duration":98604,"SoundDuration":98604,"Delta":56216516},{"NoteNumber":75,"Velocity":54,"Duration":99121,"SoundDuration":99121,"Delta":56315120},{"NoteNumber":58,"Velocity":35,"Duration":99121,"SoundDuration":99121,"Delta":56315120},{"NoteNumber":82,"Velocity":58,"Duration":142857,"SoundDuration":142857,"Delta":56414242},{"NoteNumber":51,"Velocity":37,"Duration":142857,"SoundDuration":142857,"Delta":56414242},{"NoteNumber":91,"Velocity":69,"Duration":104438,"SoundDuration":104438,"Delta":56557099},{"NoteNumber":31,"Velocity":43,"Duration":104438,"SoundDuration":104438,"Delta":56557099},{"NoteNumber":74,"Velocity":54,"Duration":103026,"SoundDuration":103026,"Delta":56661538},{"NoteNumber":59,"Velocity":30,"Duration":103026,"SoundDuration":103026,"Delta":56661538},{"NoteNumber":83,"Velocity":53,"Duration":102893,"SoundDuration":102893,"Delta":56764564},{"NoteNumber":53,"Velocity":30,"Duration":102893,"SoundDuration":102893,"Delta":56764564},{"NoteNumber":89,"Velocity":68,"Duration":102629,"SoundDuration":102629,"Delta":56867458},{"NoteNumber":43,"Velocity":45,"Duration":102629,"SoundDuration":102629,"Delta":56867458},{"NoteNumber":74,"Velocity":55,"Duration":102301,"SoundDuration":102301,"Delta":56970088},{"NoteNumber":59,"Velocity":35,"Duration":102301,"SoundDuration":102301,"Delta":56970088},{"NoteNumber":83,"Velocity":56,"Duration":101975,"SoundDuration":101975,"Delta":57072389},{"NoteNumber":53,"Velocity":33,"Duration":101975,"SoundDuration":101975,"Delta":57072389},{"NoteNumber":88,"Velocity":73,"Duration":101781,"SoundDuration":101781,"Delta":57174365},{"NoteNumber":44,"Velocity":45,"Duration":101781,"SoundDuration":101781,"Delta":57174365},{"NoteNumber":74,"Velocity":59,"Duration":101781,"SoundDuration":101781,"Delta":57276147},{"NoteNumber":59,"Velocity":31,"Duration":101781,"SoundDuration":101781,"Delta":57276147},{"NoteNumber":83,"Velocity":58,"Duration":104438,"SoundDuration":104438,"Delta":57377928},{"NoteNumber":52,"Velocity":30,"Duration":303622,"SoundDuration":303622,"Delta":57377928},{"NoteNumber":88,"Velocity":76,"Duration":101781,"SoundDuration":101781,"Delta":57482367},{"NoteNumber":45,"Velocity":45,"Duration":101781,"SoundDuration":101781,"Delta":57482367},{"NoteNumber":73,"Velocity":54,"Duration":101858,"SoundDuration":101858,"Delta":57584148},{"NoteNumber":61,"Velocity":34,"Duration":101858,"SoundDuration":101858,"Delta":57584148},{"NoteNumber":81,"Velocity":51,"Duration":102134,"SoundDuration":102134,"Delta":57686007},{"NoteNumber":52,"Velocity":34,"Duration":307236,"SoundDuration":307236,"Delta":57686007},{"NoteNumber":87,"Velocity":70,"Duration":102411,"SoundDuration":102411,"Delta":57788142},{"NoteNumber":45,"Velocity":41,"Duration":102411,"SoundDuration":102411,"Delta":57788142},{"NoteNumber":72,"Velocity":53,"Duration":102690,"SoundDuration":102690,"Delta":57890553},{"NoteNumber":60,"Velocity":32,"Duration":102690,"SoundDuration":102690,"Delta":57890553},{"NoteNumber":81,"Velocity":53,"Duration":102970,"SoundDuration":102970,"Delta":57993244},{"NoteNumber":53,"Velocity":31,"Duration":307225,"SoundDuration":307225,"Delta":57993244},{"NoteNumber":84,"Velocity":66,"Duration":101781,"SoundDuration":101781,"Delta":58096214},{"NoteNumber":45,"Velocity":35,"Duration":101781,"SoundDuration":101781,"Delta":58096214},{"NoteNumber":69,"Velocity":47,"Duration":102473,"SoundDuration":102473,"Delta":58197996},{"NoteNumber":63,"Velocity":29,"Duration":102473,"SoundDuration":102473,"Delta":58197996},{"NoteNumber":75,"Velocity":47,"Duration":103627,"SoundDuration":103627,"Delta":58300469},{"NoteNumber":54,"Velocity":28,"Duration":306257,"SoundDuration":306257,"Delta":58300469},{"NoteNumber":84,"Velocity":65,"Duration":100771,"SoundDuration":100771,"Delta":58404096},{"NoteNumber":46,"Velocity":37,"Duration":100771,"SoundDuration":100771,"Delta":58404096},{"NoteNumber":69,"Velocity":48,"Duration":101858,"SoundDuration":101858,"Delta":58504867},{"NoteNumber":63,"Velocity":30,"Duration":101858,"SoundDuration":101858,"Delta":58504867},{"NoteNumber":75,"Velocity":47,"Duration":102134,"SoundDuration":102134,"Delta":58606726},{"NoteNumber":54,"Velocity":30,"Duration":102134,"SoundDuration":102134,"Delta":58606726},{"NoteNumber":82,"Velocity":60,"Duration":102411,"SoundDuration":102411,"Delta":58708861},{"NoteNumber":46,"Velocity":34,"Duration":102411,"SoundDuration":102411,"Delta":58708861},{"NoteNumber":70,"Velocity":45,"Duration":102690,"SoundDuration":102690,"Delta":58811272},{"NoteNumber":63,"Velocity":28,"Duration":102690,"SoundDuration":102690,"Delta":58811272},{"NoteNumber":75,"Velocity":43,"Duration":102970,"SoundDuration":102970,"Delta":58913963},{"NoteNumber":55,"Velocity":28,"Duration":102970,"SoundDuration":102970,"Delta":58913963},{"NoteNumber":74,"Velocity":55,"Duration":103252,"SoundDuration":103252,"Delta":59016933},{"NoteNumber":34,"Velocity":32,"Duration":103252,"SoundDuration":103252,"Delta":59016933},{"NoteNumber":62,"Velocity":43,"Duration":103252,"SoundDuration":103252,"Delta":59120186},{"NoteNumber":56,"Velocity":27,"Duration":103252,"SoundDuration":103252,"Delta":59120186},{"NoteNumber":70,"Velocity":39,"Duration":107974,"SoundDuration":107974,"Delta":59223438},{"NoteNumber":46,"Velocity":26,"Duration":107974,"SoundDuration":107974,"Delta":59223438},{"NoteNumber":75,"Velocity":52,"Duration":100644,"SoundDuration":100644,"Delta":59331412},{"NoteNumber":39,"Velocity":32,"Duration":100644,"SoundDuration":100644,"Delta":59331412},{"NoteNumber":63,"Velocity":40,"Duration":99546,"SoundDuration":99546,"Delta":59432057},{"NoteNumber":55,"Velocity":27,"Duration":99546,"SoundDuration":99546,"Delta":59432057},{"NoteNumber":70,"Velocity":40,"Duration":98700,"SoundDuration":98700,"Delta":59531604},{"NoteNumber":46,"Velocity":27,"Duration":98700,"SoundDuration":98700,"Delta":59531604},{"NoteNumber":82,"Velocity":66,"Duration":97647,"SoundDuration":97647,"Delta":59630305},{"NoteNumber":39,"Velocity":45,"Duration":97647,"SoundDuration":97647,"Delta":59630305},{"NoteNumber":63,"Velocity":45,"Duration":96957,"SoundDuration":96957,"Delta":59727952},{"NoteNumber":58,"Velocity":27,"Duration":96957,"SoundDuration":96957,"Delta":59727952},{"NoteNumber":70,"Velocity":45,"Duration":96373,"SoundDuration":96373,"Delta":59824910},{"NoteNumber":46,"Velocity":29,"Duration":96373,"SoundDuration":96373,"Delta":59824910},{"NoteNumber":75,"Velocity":62,"Duration":96128,"SoundDuration":96128,"Delta":59921284},{"NoteNumber":39,"Velocity":39,"Duration":96128,"SoundDuration":96128,"Delta":59921284},{"NoteNumber":63,"Velocity":44,"Duration":96773,"SoundDuration":96773,"Delta":60017412},{"NoteNumber":55,"Velocity":28,"Duration":96773,"SoundDuration":96773,"Delta":60017412},{"NoteNumber":70,"Velocity":46,"Duration":97457,"SoundDuration":97457,"Delta":60114185},{"NoteNumber":46,"Velocity":28,"Duration":97457,"SoundDuration":97457,"Delta":60114185},{"NoteNumber":81,"Velocity":71,"Duration":97585,"SoundDuration":97585,"Delta":60211643},{"NoteNumber":39,"Velocity":48,"Duration":97585,"SoundDuration":97585,"Delta":60211643},{"NoteNumber":63,"Velocity":52,"Duration":96803,"SoundDuration":96803,"Delta":60309229},{"NoteNumber":58,"Velocity":31,"Duration":96803,"SoundDuration":96803,"Delta":60309229},{"NoteNumber":70,"Velocity":52,"Duration":96189,"SoundDuration":96189,"Delta":60406033},{"NoteNumber":46,"Velocity":31,"Duration":96189,"SoundDuration":96189,"Delta":60406033},{"NoteNumber":75,"Velocity":67,"Duration":96158,"SoundDuration":96158,"Delta":60502222},{"NoteNumber":39,"Velocity":43,"Duration":96158,"SoundDuration":96158,"Delta":60502222},{"NoteNumber":63,"Velocity":49,"Duration":96711,"SoundDuration":96711,"Delta":60598381},{"NoteNumber":55,"Velocity":31,"Duration":96711,"SoundDuration":96711,"Delta":60598381},{"NoteNumber":70,"Velocity":48,"Duration":97206,"SoundDuration":97206,"Delta":60695092},{"NoteNumber":46,"Velocity":30,"Duration":97206,"SoundDuration":97206,"Delta":60695092},{"NoteNumber":80,"Velocity":75,"Duration":97019,"SoundDuration":97019,"Delta":60792299},{"NoteNumber":39,"Velocity":52,"Duration":97019,"SoundDuration":97019,"Delta":60792299},{"NoteNumber":63,"Velocity":55,"Duration":96619,"SoundDuration":96619,"Delta":60889319},{"NoteNumber":58,"Velocity":31,"Duration":96619,"SoundDuration":96619,"Delta":60889319},{"NoteNumber":70,"Velocity":52,"Duration":96219,"SoundDuration":96219,"Delta":60985938},{"NoteNumber":46,"Velocity":30,"Duration":96219,"SoundDuration":96219,"Delta":60985938},{"NoteNumber":75,"Velocity":69,"Duration":96220,"SoundDuration":96220,"Delta":61082158},{"NoteNumber":39,"Velocity":44,"Duration":96220,"SoundDuration":96220,"Delta":61082158},{"NoteNumber":63,"Velocity":49,"Duration":96958,"SoundDuration":96958,"Delta":61178379},{"NoteNumber":55,"Velocity":32,"Duration":96958,"SoundDuration":96958,"Delta":61178379},{"NoteNumber":70,"Velocity":49,"Duration":97710,"SoundDuration":97710,"Delta":61275337},{"NoteNumber":46,"Velocity":32,"Duration":97710,"SoundDuration":97710,"Delta":61275337},{"NoteNumber":79,"Velocity":76,"Duration":98250,"SoundDuration":98250,"Delta":61373048},{"NoteNumber":39,"Velocity":48,"Duration":98250,"SoundDuration":98250,"Delta":61373048},{"NoteNumber":63,"Velocity":52,"Duration":97615,"SoundDuration":97615,"Delta":61471298},{"NoteNumber":58,"Velocity":31,"Duration":97615,"SoundDuration":97615,"Delta":61471298},{"NoteNumber":70,"Velocity":52,"Duration":96865,"SoundDuration":96865,"Delta":61568914},{"NoteNumber":46,"Velocity":33,"Duration":96865,"SoundDuration":96865,"Delta":61568914},{"NoteNumber":75,"Velocity":65,"Duration":96773,"SoundDuration":96773,"Delta":61665779},{"NoteNumber":39,"Velocity":44,"Duration":96773,"SoundDuration":96773,"Delta":61665779},{"NoteNumber":63,"Velocity":49,"Duration":97521,"SoundDuration":97521,"Delta":61762553},{"NoteNumber":55,"Velocity":31,"Duration":97521,"SoundDuration":97521,"Delta":61762553},{"NoteNumber":70,"Velocity":52,"Duration":98283,"SoundDuration":98283,"Delta":61860074},{"NoteNumber":46,"Velocity":36,"Duration":98283,"SoundDuration":98283,"Delta":61860074},{"NoteNumber":78,"Velocity":71,"Duration":98700,"SoundDuration":98700,"Delta":61958357},{"NoteNumber":39,"Velocity":52,"Duration":98700,"SoundDuration":98700,"Delta":61958357},{"NoteNumber":63,"Velocity":53,"Duration":98091,"SoundDuration":98091,"Delta":62057058},{"NoteNumber":58,"Velocity":34,"Duration":98091,"SoundDuration":98091,"Delta":62057058},{"NoteNumber":70,"Velocity":52,"Duration":97426,"SoundDuration":97426,"Delta":62155149},{"NoteNumber":46,"Velocity":33,"Duration":97426,"SoundDuration":97426,"Delta":62155149},{"NoteNumber":75,"Velocity":64,"Duration":97996,"SoundDuration":97996,"Delta":62252575},{"NoteNumber":39,"Velocity":42,"Duration":97996,"SoundDuration":97996,"Delta":62252575},{"NoteNumber":63,"Velocity":45,"Duration":99351,"SoundDuration":99351,"Delta":62350572},{"NoteNumber":55,"Velocity":29,"Duration":99351,"SoundDuration":99351,"Delta":62350572},{"NoteNumber":70,"Velocity":43,"Duration":100773,"SoundDuration":100773,"Delta":62449924},{"NoteNumber":46,"Velocity":29,"Duration":100773,"SoundDuration":100773,"Delta":62449924},{"NoteNumber":79,"Velocity":63,"Duration":101312,"SoundDuration":101312,"Delta":62550698},{"NoteNumber":39,"Velocity":38,"Duration":101312,"SoundDuration":101312,"Delta":62550698},{"NoteNumber":63,"Velocity":46,"Duration":101312,"SoundDuration":101312,"Delta":62652010},{"NoteNumber":58,"Velocity":29,"Duration":101312,"SoundDuration":101312,"Delta":62652010},{"NoteNumber":70,"Velocity":41,"Duration":101312,"SoundDuration":101312,"Delta":62753322},{"NoteNumber":46,"Velocity":27,"Duration":101312,"SoundDuration":101312,"Delta":62753322},{"NoteNumber":75,"Velocity":54,"Duration":314911,"SoundDuration":314911,"Delta":62854634},{"NoteNumber":39,"Velocity":33,"Duration":314911,"SoundDuration":314911,"Delta":62854634},{"NoteNumber":94,"Velocity":87,"Duration":314910,"SoundDuration":314910,"Delta":63799367},{"NoteNumber":99,"Velocity":102,"Duration":314910,"SoundDuration":314910,"Delta":63799367},{"NoteNumber":87,"Velocity":87,"Duration":314910,"SoundDuration":314910,"Delta":63799367},{"NoteNumber":67,"Velocity":69,"Duration":314910,"SoundDuration":314910,"Delta":63799367},{"NoteNumber":70,"Velocity":73,"Duration":314910,"SoundDuration":314910,"Delta":63799367},{"NoteNumber":75,"Velocity":73,"Duration":314910,"SoundDuration":314910,"Delta":63799367},{"NoteNumber":79,"Velocity":88,"Duration":314910,"SoundDuration":314910,"Delta":63799367},{"NoteNumber":67,"Velocity":98,"Duration":944732,"SoundDuration":944732,"Delta":64744100},{"NoteNumber":55,"Velocity":81,"Duration":944732,"SoundDuration":944732,"Delta":64744100},{"NoteNumber":58,"Velocity":81,"Duration":944732,"SoundDuration":944732,"Delta":64744100},{"NoteNumber":63,"Velocity":98,"Duration":944732,"SoundDuration":944732,"Delta":64744100},{"NoteNumber":39,"Velocity":67,"Duration":944732,"SoundDuration":944732,"Delta":64744100},{"NoteNumber":46,"Velocity":67,"Duration":944732,"SoundDuration":944732,"Delta":64744100},{"NoteNumber":51,"Velocity":79,"Duration":944732,"SoundDuration":944732,"Delta":64744100}],"license":{"name":"Creative Commons Attribution-ShareAlike 3.0 Germany","url":"http://creativecommons.org/licenses/by-sa/3.0/de/deed.en","text":"The MIDI, audio (MP3, OGG) and video files of Bernd Krueger are licensed under the cc-by-sa Germany License. This means that you can use and adapt the files, as long as you attribute the copyright holder.\n\nName: Bernd Krueger\nSource: http://www.piano-midi.de\n\nThe distribution or public playback of the files is only allowed under identical license conditions.\n\nThe scores are open source.","attribution":"MIDI files by Bernd Krueger (piano-midi.de)","attributionUrl":"http://www.piano-midi.de"}}