{"title":"Chopin Prelude No. 14, Opus 28","artist":"Chopin","durationMs":27103,"midiSha256":"55b7c360380de799fc203e42bb25c8d552c72dbacd8f443c613939a4c52c9db6","midiObject":[{"NoteNumber":51,"Velocity":29,"Duration":127592,"SoundDuration":127592,"Delta":0},{"NoteNumber":39,"Velocity":24,"Duration":127592,"SoundDuration":127592,"Delta":0},{"NoteNumber":58,"Velocity":26,"Duration":126783,"SoundDuration":126783,"Delta":127592},{"NoteNumber":46,"Velocity":21,"Duration":126783,"SoundDuration":126783,"Delta":127592},{"NoteNumber":54,"Velocity":27,"Duration":126284,"SoundDuration":126284,"Delta":254375},{"NoteNumber":42,"Velocity":22,"Duration":126284,"SoundDuration":126284,"Delta":254375},{"NoteNumber":59,"Velocity":33,"Duration":125301,"SoundDuration":125301,"Delta":380659},{"NoteNumber":47,"Velocity":27,"Duration":125301,"SoundDuration":125301,"Delta":380659},{"NoteNumber":51,"Velocity":30,"Duration":125886,"SoundDuration":125886,"Delta":505960},{"NoteNumber":39,"Velocity":25,"Duration":125886,"SoundDuration":125886,"Delta":505960},{"NoteNumber":59,"Velocity":32,"Duration":129255,"SoundDuration":129255,"Delta":631847},{"NoteNumber":47,"Velocity":26,"Duration":129255,"SoundDuration":129255,"Delta":631847},{"NoteNumber":50,"Velocity":36,"Duration":127623,"SoundDuration":127623,"Delta":761103},{"NoteNumber":38,"Velocity":30,"Duration":127623,"SoundDuration":127623,"Delta":761103},{"NoteNumber":59,"Velocity":29,"Duration":125786,"SoundDuration":125786,"Delta":888726},{"NoteNumber":47,"Velocity":24,"Duration":125786,"SoundDuration":125786,"Delta":888726},{"NoteNumber":53,"Velocity":29,"Duration":125000,"SoundDuration":125000,"Delta":1014513},{"NoteNumber":41,"Velocity":24,"Duration":125000,"SoundDuration":125000,"Delta":1014513},{"NoteNumber":58,"Velocity":32,"Duration":124708,"SoundDuration":124708,"Delta":1139514},{"NoteNumber":46,"Velocity":26,"Duration":124708,"SoundDuration":124708,"Delta":1139514},{"NoteNumber":50,"Velocity":28,"Duration":125294,"SoundDuration":125294,"Delta":1264222},{"NoteNumber":38,"Velocity":23,"Duration":125294,"SoundDuration":125294,"Delta":1264222},{"NoteNumber":58,"Velocity":27,"Duration":127498,"SoundDuration":127498,"Delta":1389516},{"NoteNumber":46,"Velocity":23,"Duration":127498,"SoundDuration":127498,"Delta":1389516},{"NoteNumber":51,"Velocity":33,"Duration":125984,"SoundDuration":125984,"Delta":1517015},{"NoteNumber":39,"Velocity":27,"Duration":125984,"SoundDuration":125984,"Delta":1517015},{"NoteNumber":58,"Velocity":30,"Duration":125000,"SoundDuration":125000,"Delta":1642999},{"NoteNumber":46,"Velocity":24,"Duration":125000,"SoundDuration":125000,"Delta":1642999},{"NoteNumber":54,"Velocity":30,"Duration":123935,"SoundDuration":123935,"Delta":1768000},{"NoteNumber":42,"Velocity":24,"Duration":123935,"SoundDuration":123935,"Delta":1768000},{"NoteNumber":59,"Velocity":37,"Duration":123647,"SoundDuration":123647,"Delta":1891936},{"NoteNumber":47,"Velocity":32,"Duration":123647,"SoundDuration":123647,"Delta":1891936},{"NoteNumber":51,"Velocity":34,"Duration":124223,"SoundDuration":124223,"Delta":2015583},{"NoteNumber":39,"Velocity":28,"Duration":124223,"SoundDuration":124223,"Delta":2015583},{"NoteNumber":59,"Velocity":36,"Duration":126291,"SoundDuration":126291,"Delta":2139807},{"NoteNumber":47,"Velocity":30,"Duration":126291,"SoundDuration":126291,"Delta":2139807},{"NoteNumber":50,"Velocity":41,"Duration":125687,"SoundDuration":125687,"Delta":2266098},{"NoteNumber":38,"Velocity":35,"Duration":125687,"SoundDuration":125687,"Delta":2266098},{"NoteNumber":59,"Velocity":36,"Duration":125098,"SoundDuration":125098,"Delta":2391786},{"NoteNumber":47,"Velocity":28,"Duration":125098,"SoundDuration":125098,"Delta":2391786},{"NoteNumber":53,"Velocity":33,"Duration":124417,"SoundDuration":124417,"Delta":2516884},{"NoteNumber":41,"Velocity":26,"Duration":124417,"SoundDuration":124417,"Delta":2516884},{"NoteNumber":58,"Velocity":38,"Duration":124418,"SoundDuration":124418,"Delta":2641301},{"NoteNumber":46,"Velocity":32,"Duration":124418,"SoundDuration":124418,"Delta":2641301},{"NoteNumber":50,"Velocity":34,"Duration":125985,"SoundDuration":125985,"Delta":2765719},{"NoteNumber":38,"Velocity":28,"Duration":125985,"SoundDuration":125985,"Delta":2765719},{"NoteNumber":58,"Velocity":32,"Duration":127695,"SoundDuration":127695,"Delta":2891705},{"NoteNumber":46,"Velocity":24,"Duration":127695,"SoundDuration":127695,"Delta":2891705},{"NoteNumber":51,"Velocity":37,"Duration":127287,"SoundDuration":127287,"Delta":3019401},{"NoteNumber":39,"Velocity":32,"Duration":127287,"SoundDuration":127287,"Delta":3019401},{"NoteNumber":58,"Velocity":34,"Duration":126582,"SoundDuration":126582,"Delta":3146688},{"NoteNumber":46,"Velocity":28,"Duration":126582,"SoundDuration":126582,"Delta":3146688},{"NoteNumber":54,"Velocity":35,"Duration":125786,"SoundDuration":125786,"Delta":3273271},{"NoteNumber":42,"Velocity":29,"Duration":125786,"SoundDuration":125786,"Delta":3273271},{"NoteNumber":59,"Velocity":44,"Duration":123456,"SoundDuration":123456,"Delta":3399058},{"NoteNumber":47,"Velocity":36,"Duration":123456,"SoundDuration":123456,"Delta":3399058},{"NoteNumber":51,"Velocity":41,"Duration":123171,"SoundDuration":123171,"Delta":3522514},{"NoteNumber":39,"Velocity":34,"Duration":123171,"SoundDuration":123171,"Delta":3522514},{"NoteNumber":60,"Velocity":44,"Duration":122888,"SoundDuration":122888,"Delta":3645686},{"NoteNumber":48,"Velocity":37,"Duration":122888,"SoundDuration":122888,"Delta":3645686},{"NoteNumber":53,"Velocity":48,"Duration":123362,"SoundDuration":123362,"Delta":3768575},{"NoteNumber":41,"Velocity":40,"Duration":123362,"SoundDuration":123362,"Delta":3768575},{"NoteNumber":60,"Velocity":45,"Duration":124514,"SoundDuration":124514,"Delta":3891937},{"NoteNumber":48,"Velocity":36,"Duration":124514,"SoundDuration":124514,"Delta":3891937},{"NoteNumber":56,"Velocity":45,"Duration":127402,"SoundDuration":127402,"Delta":4016451},{"NoteNumber":44,"Velocity":33,"Duration":127402,"SoundDuration":127402,"Delta":4016451},{"NoteNumber":63,"Velocity":49,"Duration":125672,"SoundDuration":125672,"Delta":4148571},{"NoteNumber":51,"Velocity":40,"Duration":125672,"SoundDuration":125672,"Delta":4148571},{"NoteNumber":57,"Velocity":44,"Duration":125000,"SoundDuration":125000,"Delta":4278162},{"NoteNumber":45,"Velocity":33,"Duration":125000,"SoundDuration":125000,"Delta":4278162},{"NoteNumber":61,"Velocity":39,"Duration":126588,"SoundDuration":126588,"Delta":4394542},{"NoteNumber":49,"Velocity":29,"Duration":126588,"SoundDuration":126588,"Delta":4394542},{"NoteNumber":54,"Velocity":42,"Duration":126895,"SoundDuration":126895,"Delta":4521131},{"NoteNumber":42,"Velocity":35,"Duration":126895,"SoundDuration":126895,"Delta":4521131},{"NoteNumber":61,"Velocity":37,"Duration":125786,"SoundDuration":125786,"Delta":4648026},{"NoteNumber":49,"Velocity":31,"Duration":125786,"SoundDuration":125786,"Delta":4648026},{"NoteNumber":58,"Velocity":38,"Duration":125000,"SoundDuration":125000,"Delta":4773813},{"NoteNumber":46,"Velocity":32,"Duration":125000,"SoundDuration":125000,"Delta":4773813},{"NoteNumber":63,"Velocity":49,"Duration":122699,"SoundDuration":122699,"Delta":4898814},{"NoteNumber":51,"Velocity":41,"Duration":122699,"SoundDuration":122699,"Delta":4898814},{"NoteNumber":54,"Velocity":45,"Duration":122699,"SoundDuration":122699,"Delta":5021513},{"NoteNumber":42,"Velocity":38,"Duration":122699,"SoundDuration":122699,"Delta":5021513},{"NoteNumber":64,"Velocity":49,"Duration":122511,"SoundDuration":122511,"Delta":5144212},{"NoteNumber":52,"Velocity":41,"Duration":122511,"SoundDuration":122511,"Delta":5144212},{"NoteNumber":57,"Velocity":54,"Duration":122794,"SoundDuration":122794,"Delta":5266724},{"NoteNumber":45,"Velocity":45,"Duration":122794,"SoundDuration":122794,"Delta":5266724},{"NoteNumber":64,"Velocity":50,"Duration":123839,"SoundDuration":123839,"Delta":5389518},{"NoteNumber":52,"Velocity":38,"Duration":123839,"SoundDuration":123839,"Delta":5389518},{"NoteNumber":60,"Velocity":51,"Duration":126505,"SoundDuration":126505,"Delta":5513358},{"NoteNumber":48,"Velocity":39,"Duration":126505,"SoundDuration":126505,"Delta":5513358},{"NoteNumber":66,"Velocity":54,"Duration":125997,"SoundDuration":125997,"Delta":5639863},{"NoteNumber":54,"Velocity":43,"Duration":125997,"SoundDuration":125997,"Delta":5639863},{"NoteNumber":61,"Velocity":43,"Duration":124611,"SoundDuration":124611,"Delta":5765860},{"NoteNumber":49,"Velocity":36,"Duration":124611,"SoundDuration":124611,"Delta":5765860},{"NoteNumber":65,"Velocity":40,"Duration":123839,"SoundDuration":123839,"Delta":5890472},{"NoteNumber":53,"Velocity":32,"Duration":123839,"SoundDuration":123839,"Delta":5890472},{"NoteNumber":58,"Velocity":47,"Duration":124417,"SoundDuration":124417,"Delta":6014311},{"NoteNumber":46,"Velocity":39,"Duration":124417,"SoundDuration":124417,"Delta":6014311},{"NoteNumber":65,"Velocity":42,"Duration":123647,"SoundDuration":123647,"Delta":6138728},{"NoteNumber":53,"Velocity":36,"Duration":123647,"SoundDuration":123647,"Delta":6138728},{"NoteNumber":61,"Velocity":44,"Duration":122794,"SoundDuration":122794,"Delta":6262376},{"NoteNumber":49,"Velocity":37,"Duration":122794,"SoundDuration":122794,"Delta":6262376},{"NoteNumber":66,"Velocity":45,"Duration":122889,"SoundDuration":122889,"Delta":6385171},{"NoteNumber":54,"Velocity":46,"Duration":122889,"SoundDuration":122889,"Delta":6385171},{"NoteNumber":58,"Velocity":52,"Duration":124418,"SoundDuration":124418,"Delta":6508060},{"NoteNumber":46,"Velocity":43,"Duration":124418,"SoundDuration":124418,"Delta":6508060},{"NoteNumber":66,"Velocity":54,"Duration":125296,"SoundDuration":125296,"Delta":6632478},{"NoteNumber":54,"Velocity":45,"Duration":125296,"SoundDuration":125296,"Delta":6632478},{"NoteNumber":57,"Velocity":56,"Duration":124031,"SoundDuration":124031,"Delta":6757775},{"NoteNumber":45,"Velocity":44,"Duration":124031,"SoundDuration":124031,"Delta":6757775},{"NoteNumber":66,"Velocity":50,"Duration":123552,"SoundDuration":123552,"Delta":6881806},{"NoteNumber":54,"Velocity":40,"Duration":123552,"SoundDuration":123552,"Delta":6881806},{"NoteNumber":60,"Velocity":47,"Duration":122982,"SoundDuration":122982,"Delta":7005359},{"NoteNumber":48,"Velocity":40,"Duration":122982,"SoundDuration":122982,"Delta":7005359},{"NoteNumber":65,"Velocity":48,"Duration":123077,"SoundDuration":123077,"Delta":7128341},{"NoteNumber":53,"Velocity":42,"Duration":123077,"SoundDuration":123077,"Delta":7128341},{"NoteNumber":57,"Velocity":45,"Duration":124128,"SoundDuration":124128,"Delta":7251419},{"NoteNumber":45,"Velocity":37,"Duration":124128,"SoundDuration":124128,"Delta":7251419},{"NoteNumber":65,"Velocity":45,"Duration":125098,"SoundDuration":125098,"Delta":7375547},{"NoteNumber":53,"Velocity":36,"Duration":125098,"SoundDuration":125098,"Delta":7375547},{"NoteNumber":58,"Velocity":48,"Duration":125196,"SoundDuration":125196,"Delta":7500645},{"NoteNumber":46,"Velocity":40,"Duration":125196,"SoundDuration":125196,"Delta":7500645},{"NoteNumber":65,"Velocity":45,"Duration":124514,"SoundDuration":124514,"Delta":7625841},{"NoteNumber":53,"Velocity":37,"Duration":124514,"SoundDuration":124514,"Delta":7625841},{"NoteNumber":61,"Velocity":46,"Duration":123457,"SoundDuration":123457,"Delta":7750356},{"NoteNumber":49,"Velocity":39,"Duration":123457,"SoundDuration":123457,"Delta":7750356},{"NoteNumber":66,"Velocity":57,"Duration":122983,"SoundDuration":122983,"Delta":7873813},{"NoteNumber":54,"Velocity":47,"Duration":122983,"SoundDuration":122983,"Delta":7873813},{"NoteNumber":57,"Velocity":53,"Duration":124418,"SoundDuration":124418,"Delta":7996796},{"NoteNumber":45,"Velocity":44,"Duration":124418,"SoundDuration":124418,"Delta":7996796},{"NoteNumber":66,"Velocity":55,"Duration":125985,"SoundDuration":125985,"Delta":8121215},{"NoteNumber":54,"Velocity":46,"Duration":125985,"SoundDuration":125985,"Delta":8121215},{"NoteNumber":56,"Velocity":65,"Duration":125491,"SoundDuration":125491,"Delta":8247201},{"NoteNumber":44,"Velocity":55,"Duration":125491,"SoundDuration":125491,"Delta":8247201},{"NoteNumber":66,"Velocity":60,"Duration":124514,"SoundDuration":124514,"Delta":8372692},{"NoteNumber":54,"Velocity":50,"Duration":124514,"SoundDuration":124514,"Delta":8372692},{"NoteNumber":62,"Velocity":52,"Duration":123457,"SoundDuration":123457,"Delta":8497206},{"NoteNumber":50,"Velocity":43,"Duration":123457,"SoundDuration":123457,"Delta":8497206},{"NoteNumber":65,"Velocity":54,"Duration":122983,"SoundDuration":122983,"Delta":8620663},{"NoteNumber":53,"Velocity":46,"Duration":122983,"SoundDuration":122983,"Delta":8620663},{"NoteNumber":59,"Velocity":50,"Duration":123935,"SoundDuration":123935,"Delta":8743646},{"NoteNumber":47,"Velocity":42,"Duration":123935,"SoundDuration":123935,"Delta":8743646},{"NoteNumber":65,"Velocity":47,"Duration":124612,"SoundDuration":124612,"Delta":8867582},{"NoteNumber":53,"Velocity":40,"Duration":124612,"SoundDuration":124612,"Delta":8867582},{"NoteNumber":56,"Velocity":69,"Duration":123647,"SoundDuration":123647,"Delta":8992195},{"NoteNumber":44,"Velocity":57,"Duration":123647,"SoundDuration":123647,"Delta":8992195},{"NoteNumber":64,"Velocity":58,"Duration":123077,"SoundDuration":123077,"Delta":9115842},{"NoteNumber":52,"Velocity":48,"Duration":123077,"SoundDuration":123077,"Delta":9115842},{"NoteNumber":59,"Velocity":57,"Duration":122511,"SoundDuration":122511,"Delta":9238920},{"NoteNumber":47,"Velocity":48,"Duration":122511,"SoundDuration":122511,"Delta":9238920},{"NoteNumber":62,"Velocity":62,"Duration":121581,"SoundDuration":121581,"Delta":9361432},{"NoteNumber":50,"Velocity":51,"Duration":121581,"SoundDuration":121581,"Delta":9361432},{"NoteNumber":56,"Velocity":51,"Duration":121766,"SoundDuration":121766,"Delta":9483013},{"NoteNumber":44,"Velocity":42,"Duration":121766,"SoundDuration":121766,"Delta":9483013},{"NoteNumber":62,"Velocity":52,"Duration":122511,"SoundDuration":122511,"Delta":9604779},{"NoteNumber":50,"Velocity":44,"Duration":122511,"SoundDuration":122511,"Delta":9604779},{"NoteNumber":55,"Velocity":55,"Duration":123266,"SoundDuration":123266,"Delta":9727291},{"NoteNumber":43,"Velocity":46,"Duration":123266,"SoundDuration":123266,"Delta":9727291},{"NoteNumber":62,"Velocity":49,"Duration":124031,"SoundDuration":124031,"Delta":9850558},{"NoteNumber":50,"Velocity":41,"Duration":124031,"SoundDuration":124031,"Delta":9850558},{"NoteNumber":58,"Velocity":49,"Duration":124223,"SoundDuration":124223,"Delta":9974589},{"NoteNumber":46,"Velocity":40,"Duration":124223,"SoundDuration":124223,"Delta":9974589},{"NoteNumber":65,"Velocity":50,"Duration":124223,"SoundDuration":124223,"Delta":10098813},{"NoteNumber":53,"Velocity":42,"Duration":124223,"SoundDuration":124223,"Delta":10098813},{"NoteNumber":55,"Velocity":56,"Duration":124223,"SoundDuration":124223,"Delta":10223036},{"NoteNumber":43,"Velocity":47,"Duration":124223,"SoundDuration":124223,"Delta":10223036},{"NoteNumber":63,"Velocity":55,"Duration":124223,"SoundDuration":124223,"Delta":10347260},{"NoteNumber":51,"Velocity":47,"Duration":124223,"SoundDuration":124223,"Delta":10347260},{"NoteNumber":53,"Velocity":67,"Duration":123743,"SoundDuration":123743,"Delta":10471484},{"NoteNumber":41,"Velocity":55,"Duration":123743,"SoundDuration":123743,"Delta":10471484},{"NoteNumber":61,"Velocity":59,"Duration":123171,"SoundDuration":123171,"Delta":10595227},{"NoteNumber":49,"Velocity":49,"Duration":123171,"SoundDuration":123171,"Delta":10595227},{"NoteNumber":55,"Velocity":58,"Duration":122511,"SoundDuration":122511,"Delta":10718399},{"NoteNumber":43,"Velocity":49,"Duration":122511,"SoundDuration":122511,"Delta":10718399},{"NoteNumber":59,"Velocity":63,"Duration":121951,"SoundDuration":121951,"Delta":10840911},{"NoteNumber":47,"Velocity":52,"Duration":121951,"SoundDuration":121951,"Delta":10840911},{"NoteNumber":53,"Velocity":52,"Duration":122417,"SoundDuration":122417,"Delta":10962862},{"NoteNumber":41,"Velocity":43,"Duration":122417,"SoundDuration":122417,"Delta":10962862},{"NoteNumber":59,"Velocity":53,"Duration":122888,"SoundDuration":122888,"Delta":11085280},{"NoteNumber":47,"Velocity":45,"Duration":122888,"SoundDuration":122888,"Delta":11085280},{"NoteNumber":52,"Velocity":56,"Duration":123266,"SoundDuration":123266,"Delta":11208168},{"NoteNumber":40,"Velocity":47,"Duration":123266,"SoundDuration":123266,"Delta":11208168},{"NoteNumber":59,"Velocity":50,"Duration":123743,"SoundDuration":123743,"Delta":11331435},{"NoteNumber":47,"Velocity":42,"Duration":123743,"SoundDuration":123743,"Delta":11331435},{"NoteNumber":55,"Velocity":49,"Duration":124320,"SoundDuration":124320,"Delta":11455178},{"NoteNumber":43,"Velocity":41,"Duration":124320,"SoundDuration":124320,"Delta":11455178},{"NoteNumber":61,"Velocity":51,"Duration":124610,"SoundDuration":124610,"Delta":11579499},{"NoteNumber":49,"Velocity":44,"Duration":124610,"SoundDuration":124610,"Delta":11579499},{"NoteNumber":52,"Velocity":56,"Duration":125199,"SoundDuration":125199,"Delta":11704109},{"NoteNumber":40,"Velocity":48,"Duration":125199,"SoundDuration":125199,"Delta":11704109},{"NoteNumber":60,"Velocity":58,"Duration":128211,"SoundDuration":128211,"Delta":11829309},{"NoteNumber":48,"Velocity":48,"Duration":128211,"SoundDuration":128211,"Delta":11829309},{"NoteNumber":54,"Velocity":70,"Duration":122794,"SoundDuration":122794,"Delta":11957520},{"NoteNumber":42,"Velocity":54,"Duration":122794,"SoundDuration":122794,"Delta":11957520},{"NoteNumber":62,"Velocity":59,"Duration":121859,"SoundDuration":121859,"Delta":12080315},{"NoteNumber":50,"Velocity":49,"Duration":121859,"SoundDuration":121859,"Delta":12080315},{"NoteNumber":57,"Velocity":59,"Duration":120846,"SoundDuration":120846,"Delta":12202174},{"NoteNumber":45,"Velocity":50,"Duration":120846,"SoundDuration":120846,"Delta":12202174},{"NoteNumber":60,"Velocity":63,"Duration":120391,"SoundDuration":120391,"Delta":12323020},{"NoteNumber":48,"Velocity":53,"Duration":120391,"SoundDuration":120391,"Delta":12323020},{"NoteNumber":54,"Velocity":53,"Duration":120937,"SoundDuration":120937,"Delta":12443412},{"NoteNumber":42,"Velocity":44,"Duration":120937,"SoundDuration":120937,"Delta":12443412},{"NoteNumber":60,"Velocity":54,"Duration":121396,"SoundDuration":121396,"Delta":12564349},{"NoteNumber":48,"Velocity":46,"Duration":121396,"SoundDuration":121396,"Delta":12564349},{"NoteNumber":53,"Velocity":57,"Duration":121858,"SoundDuration":121858,"Delta":12685746},{"NoteNumber":41,"Velocity":48,"Duration":121858,"SoundDuration":121858,"Delta":12685746},{"NoteNumber":60,"Velocity":51,"Duration":122417,"SoundDuration":122417,"Delta":12807604},{"NoteNumber":48,"Velocity":43,"Duration":122417,"SoundDuration":122417,"Delta":12807604},{"NoteNumber":56,"Velocity":51,"Duration":122888,"SoundDuration":122888,"Delta":12930022},{"NoteNumber":44,"Velocity":42,"Duration":122888,"SoundDuration":122888,"Delta":12930022},{"NoteNumber":63,"Velocity":53,"Duration":123456,"SoundDuration":123456,"Delta":13052910},{"NoteNumber":51,"Velocity":45,"Duration":123456,"SoundDuration":123456,"Delta":13052910},{"NoteNumber":53,"Velocity":58,"Duration":123745,"SoundDuration":123745,"Delta":13176367},{"NoteNumber":41,"Velocity":48,"Duration":123745,"SoundDuration":123745,"Delta":13176367},{"NoteNumber":61,"Velocity":59,"Duration":126691,"SoundDuration":126691,"Delta":13300113},{"NoteNumber":49,"Velocity":48,"Duration":126691,"SoundDuration":126691,"Delta":13300113},{"NoteNumber":51,"Velocity":71,"Duration":122888,"SoundDuration":122888,"Delta":13426804},{"NoteNumber":39,"Velocity":61,"Duration":122888,"SoundDuration":122888,"Delta":13426804},{"NoteNumber":59,"Velocity":61,"Duration":122137,"SoundDuration":122137,"Delta":13549692},{"NoteNumber":47,"Velocity":51,"Duration":122137,"SoundDuration":122137,"Delta":13549692},{"NoteNumber":53,"Velocity":60,"Duration":121396,"SoundDuration":121396,"Delta":13671830},{"NoteNumber":41,"Velocity":50,"Duration":121396,"SoundDuration":121396,"Delta":13671830},{"NoteNumber":57,"Velocity":61,"Duration":120846,"SoundDuration":120846,"Delta":13793226},{"NoteNumber":45,"Velocity":50,"Duration":120846,"SoundDuration":120846,"Delta":13793226},{"NoteNumber":51,"Velocity":53,"Duration":121211,"SoundDuration":121211,"Delta":13914072},{"NoteNumber":39,"Velocity":45,"Duration":121211,"SoundDuration":121211,"Delta":13914072},{"NoteNumber":57,"Velocity":54,"Duration":121580,"SoundDuration":121580,"Delta":14035284},{"NoteNumber":45,"Velocity":45,"Duration":121580,"SoundDuration":121580,"Delta":14035284},{"NoteNumber":50,"Velocity":56,"Duration":121951,"SoundDuration":121951,"Delta":14156865},{"NoteNumber":38,"Velocity":47,"Duration":121951,"SoundDuration":121951,"Delta":14156865},{"NoteNumber":57,"Velocity":51,"Duration":122323,"SoundDuration":122323,"Delta":14278816},{"NoteNumber":45,"Velocity":44,"Duration":122323,"SoundDuration":122323,"Delta":14278816},{"NoteNumber":53,"Velocity":51,"Duration":122793,"SoundDuration":122793,"Delta":14401140},{"NoteNumber":41,"Velocity":44,"Duration":122793,"SoundDuration":122793,"Delta":14401140},{"NoteNumber":58,"Velocity":66,"Duration":123077,"SoundDuration":123077,"Delta":14523934},{"NoteNumber":46,"Velocity":56,"Duration":123077,"SoundDuration":123077,"Delta":14523934},{"NoteNumber":54,"Velocity":58,"Duration":123076,"SoundDuration":123076,"Delta":14647011},{"NoteNumber":42,"Velocity":50,"Duration":123076,"SoundDuration":123076,"Delta":14647011},{"NoteNumber":58,"Velocity":60,"Duration":122702,"SoundDuration":122702,"Delta":14770088},{"NoteNumber":46,"Velocity":50,"Duration":122702,"SoundDuration":122702,"Delta":14770088},{"NoteNumber":51,"Velocity":75,"Duration":121029,"SoundDuration":121029,"Delta":14892791},{"NoteNumber":39,"Velocity":64,"Duration":121029,"SoundDuration":121029,"Delta":14892791},{"NoteNumber":58,"Velocity":68,"Duration":120572,"SoundDuration":120572,"Delta":15013820},{"NoteNumber":46,"Velocity":57,"Duration":120572,"SoundDuration":120572,"Delta":15013820},{"NoteNumber":54,"Velocity":69,"Duration":120210,"SoundDuration":120210,"Delta":15134393},{"NoteNumber":42,"Velocity":58,"Duration":120210,"SoundDuration":120210,"Delta":15134393},{"NoteNumber":59,"Velocity":78,"Duration":119760,"SoundDuration":119760,"Delta":15254604},{"NoteNumber":47,"Velocity":66,"Duration":119760,"SoundDuration":119760,"Delta":15254604},{"NoteNumber":54,"Velocity":75,"Duration":119402,"SoundDuration":119402,"Delta":15374364},{"NoteNumber":42,"Velocity":63,"Duration":119402,"SoundDuration":119402,"Delta":15374364},{"NoteNumber":59,"Velocity":77,"Duration":118959,"SoundDuration":118959,"Delta":15493767},{"NoteNumber":47,"Velocity":65,"Duration":118959,"SoundDuration":118959,"Delta":15493767},{"NoteNumber":50,"Velocity":80,"Duration":118871,"SoundDuration":118871,"Delta":15612726},{"NoteNumber":38,"Velocity":67,"Duration":118871,"SoundDuration":118871,"Delta":15612726},{"NoteNumber":59,"Velocity":67,"Duration":119492,"SoundDuration":119492,"Delta":15731597},{"NoteNumber":47,"Velocity":54,"Duration":119492,"SoundDuration":119492,"Delta":15731597},{"NoteNumber":53,"Velocity":65,"Duration":120030,"SoundDuration":120030,"Delta":15851090},{"NoteNumber":41,"Velocity":53,"Duration":120030,"SoundDuration":120030,"Delta":15851090},{"NoteNumber":58,"Velocity":67,"Duration":120663,"SoundDuration":120663,"Delta":15971120},{"NoteNumber":46,"Velocity":57,"Duration":120663,"SoundDuration":120663,"Delta":15971120},{"NoteNumber":50,"Velocity":59,"Duration":121304,"SoundDuration":121304,"Delta":16091784},{"NoteNumber":38,"Velocity":50,"Duration":121304,"SoundDuration":121304,"Delta":16091784},{"NoteNumber":58,"Velocity":58,"Duration":122139,"SoundDuration":122139,"Delta":16213088},{"NoteNumber":46,"Velocity":49,"Duration":122139,"SoundDuration":122139,"Delta":16213088},{"NoteNumber":51,"Velocity":67,"Duration":119635,"SoundDuration":119635,"Delta":16335228},{"NoteNumber":39,"Velocity":56,"Duration":119635,"SoundDuration":119635,"Delta":16335228},{"NoteNumber":58,"Velocity":59,"Duration":118700,"SoundDuration":118700,"Delta":16454863},{"NoteNumber":46,"Velocity":49,"Duration":118700,"SoundDuration":118700,"Delta":16454863},{"NoteNumber":54,"Velocity":61,"Duration":117685,"SoundDuration":117685,"Delta":16573564},{"NoteNumber":42,"Velocity":51,"Duration":117685,"SoundDuration":117685,"Delta":16573564},{"NoteNumber":59,"Velocity":80,"Duration":117412,"SoundDuration":117412,"Delta":16691250},{"NoteNumber":47,"Velocity":65,"Duration":117412,"SoundDuration":117412,"Delta":16691250},{"NoteNumber":55,"Velocity":74,"Duration":117959,"SoundDuration":117959,"Delta":16808662},{"NoteNumber":43,"Velocity":57,"Duration":117959,"SoundDuration":117959,"Delta":16808662},{"NoteNumber":59,"Velocity":75,"Duration":119926,"SoundDuration":119926,"Delta":16926621},{"NoteNumber":47,"Velocity":58,"Duration":119926,"SoundDuration":119926,"Delta":16926621},{"NoteNumber":50,"Velocity":83,"Duration":119353,"SoundDuration":119353,"Delta":17046548},{"NoteNumber":38,"Velocity":71,"Duration":119353,"SoundDuration":119353,"Delta":17046548},{"NoteNumber":59,"Velocity":73,"Duration":118794,"SoundDuration":118794,"Delta":17165901},{"NoteNumber":47,"Velocity":62,"Duration":118794,"SoundDuration":118794,"Delta":17165901},{"NoteNumber":54,"Velocity":74,"Duration":118140,"SoundDuration":118140,"Delta":17284696},{"NoteNumber":42,"Velocity":63,"Duration":118140,"SoundDuration":118140,"Delta":17284696},{"NoteNumber":58,"Velocity":80,"Duration":118143,"SoundDuration":118143,"Delta":17402837},{"NoteNumber":46,"Velocity":67,"Duration":118143,"SoundDuration":118143,"Delta":17402837},{"NoteNumber":53,"Velocity":72,"Duration":119638,"SoundDuration":119638,"Delta":17520981},{"NoteNumber":41,"Velocity":61,"Duration":119638,"SoundDuration":119638,"Delta":17520981},{"NoteNumber":58,"Velocity":69,"Duration":121260,"SoundDuration":121260,"Delta":17640619},{"NoteNumber":46,"Velocity":58,"Duration":121260,"SoundDuration":121260,"Delta":17640619},{"NoteNumber":51,"Velocity":71,"Duration":120873,"SoundDuration":120873,"Delta":17761879},{"NoteNumber":39,"Velocity":59,"Duration":120873,"SoundDuration":120873,"Delta":17761879},{"NoteNumber":58,"Velocity":63,"Duration":120205,"SoundDuration":120205,"Delta":17882753},{"NoteNumber":46,"Velocity":54,"Duration":120205,"SoundDuration":120205,"Delta":17882753},{"NoteNumber":54,"Velocity":63,"Duration":119448,"SoundDuration":119448,"Delta":18002958},{"NoteNumber":42,"Velocity":54,"Duration":119448,"SoundDuration":119448,"Delta":18002958},{"NoteNumber":59,"Velocity":78,"Duration":117233,"SoundDuration":117233,"Delta":18122406},{"NoteNumber":47,"Velocity":65,"Duration":117233,"SoundDuration":117233,"Delta":18122406},{"NoteNumber":51,"Velocity":73,"Duration":116961,"SoundDuration":116961,"Delta":18239640},{"NoteNumber":39,"Velocity":60,"Duration":116961,"SoundDuration":116961,"Delta":18239640},{"NoteNumber":59,"Velocity":73,"Duration":116689,"SoundDuration":116689,"Delta":18356601},{"NoteNumber":47,"Velocity":61,"Duration":116689,"SoundDuration":116689,"Delta":18356601},{"NoteNumber":53,"Velocity":85,"Duration":117141,"SoundDuration":117141,"Delta":18473291},{"NoteNumber":41,"Velocity":70,"Duration":117141,"SoundDuration":117141,"Delta":18473291},{"NoteNumber":61,"Velocity":76,"Duration":118235,"SoundDuration":118235,"Delta":18590432},{"NoteNumber":49,"Velocity":66,"Duration":118235,"SoundDuration":118235,"Delta":18590432},{"NoteNumber":57,"Velocity":76,"Duration":120983,"SoundDuration":120983,"Delta":18708668},{"NoteNumber":45,"Velocity":62,"Duration":120983,"SoundDuration":120983,"Delta":18708668},{"NoteNumber":61,"Velocity":86,"Duration":119353,"SoundDuration":119353,"Delta":18829651},{"NoteNumber":49,"Velocity":71,"Duration":119353,"SoundDuration":119353,"Delta":18829651},{"NoteNumber":53,"Velocity":82,"Duration":118700,"SoundDuration":118700,"Delta":18949004},{"NoteNumber":41,"Velocity":69,"Duration":118700,"SoundDuration":118700,"Delta":18949004},{"NoteNumber":61,"Velocity":78,"Duration":119075,"SoundDuration":119075,"Delta":19067705},{"NoteNumber":49,"Velocity":67,"Duration":119075,"SoundDuration":119075,"Delta":19067705},{"NoteNumber":54,"Velocity":78,"Duration":120873,"SoundDuration":120873,"Delta":19186781},{"NoteNumber":42,"Velocity":65,"Duration":120873,"SoundDuration":120873,"Delta":19186781},{"NoteNumber":61,"Velocity":71,"Duration":120205,"SoundDuration":120205,"Delta":19307654},{"NoteNumber":49,"Velocity":59,"Duration":120205,"SoundDuration":120205,"Delta":19307654},{"NoteNumber":57,"Velocity":72,"Duration":119448,"SoundDuration":119448,"Delta":19427860},{"NoteNumber":45,"Velocity":60,"Duration":119448,"SoundDuration":119448,"Delta":19427860},{"NoteNumber":62,"Velocity":83,"Duration":117233,"SoundDuration":117233,"Delta":19547308},{"NoteNumber":50,"Velocity":70,"Duration":117233,"SoundDuration":117233,"Delta":19547308},{"NoteNumber":54,"Velocity":77,"Duration":116961,"SoundDuration":116961,"Delta":19664541},{"NoteNumber":42,"Velocity":66,"Duration":116961,"SoundDuration":116961,"Delta":19664541},{"NoteNumber":62,"Velocity":79,"Duration":116689,"SoundDuration":116689,"Delta":19781502},{"NoteNumber":50,"Velocity":66,"Duration":116689,"SoundDuration":116689,"Delta":19781502},{"NoteNumber":58,"Velocity":90,"Duration":117141,"SoundDuration":117141,"Delta":19898192},{"NoteNumber":46,"Velocity":77,"Duration":117141,"SoundDuration":117141,"Delta":19898192},{"NoteNumber":63,"Velocity":83,"Duration":118235,"SoundDuration":118235,"Delta":20015334},{"NoteNumber":51,"Velocity":70,"Duration":118235,"SoundDuration":118235,"Delta":20015334},{"NoteNumber":54,"Velocity":82,"Duration":120983,"SoundDuration":120983,"Delta":20133569},{"NoteNumber":42,"Velocity":68,"Duration":120983,"SoundDuration":120983,"Delta":20133569},{"NoteNumber":64,"Velocity":97,"Duration":119353,"SoundDuration":119353,"Delta":20254553},{"NoteNumber":52,"Velocity":81,"Duration":119353,"SoundDuration":119353,"Delta":20254553},{"NoteNumber":55,"Velocity":90,"Duration":118700,"SoundDuration":118700,"Delta":20373906},{"NoteNumber":43,"Velocity":77,"Duration":118700,"SoundDuration":118700,"Delta":20373906},{"NoteNumber":65,"Velocity":85,"Duration":125352,"SoundDuration":125352,"Delta":20492606},{"NoteNumber":53,"Velocity":75,"Duration":125352,"SoundDuration":125352,"Delta":20492606},{"NoteNumber":56,"Velocity":84,"Duration":120664,"SoundDuration":120664,"Delta":20617959},{"NoteNumber":44,"Velocity":73,"Duration":120664,"SoundDuration":120664,"Delta":20617959},{"NoteNumber":59,"Velocity":74,"Duration":119760,"SoundDuration":119760,"Delta":20738623},{"NoteNumber":47,"Velocity":63,"Duration":119760,"SoundDuration":119760,"Delta":20738623},{"NoteNumber":54,"Velocity":73,"Duration":118783,"SoundDuration":118783,"Delta":20858384},{"NoteNumber":42,"Velocity":62,"Duration":118783,"SoundDuration":118783,"Delta":20858384},{"NoteNumber":59,"Velocity":80,"Duration":118694,"SoundDuration":118694,"Delta":20977167},{"NoteNumber":47,"Velocity":68,"Duration":118694,"SoundDuration":118694,"Delta":20977167},{"NoteNumber":53,"Velocity":71,"Duration":119403,"SoundDuration":119403,"Delta":21095862},{"NoteNumber":41,"Velocity":60,"Duration":119403,"SoundDuration":119403,"Delta":21095862},{"NoteNumber":59,"Velocity":70,"Duration":121694,"SoundDuration":121694,"Delta":21215265},{"NoteNumber":47,"Velocity":59,"Duration":121694,"SoundDuration":121694,"Delta":21215265},{"NoteNumber":51,"Velocity":79,"Duration":120301,"SoundDuration":120301,"Delta":21336960},{"NoteNumber":39,"Velocity":67,"Duration":120301,"SoundDuration":120301,"Delta":21336960},{"NoteNumber":56,"Velocity":70,"Duration":119671,"SoundDuration":119671,"Delta":21457261},{"NoteNumber":44,"Velocity":59,"Duration":119671,"SoundDuration":119671,"Delta":21457261},{"NoteNumber":50,"Velocity":70,"Duration":119048,"SoundDuration":119048,"Delta":21576932},{"NoteNumber":38,"Velocity":59,"Duration":119048,"SoundDuration":119048,"Delta":21576932},{"NoteNumber":54,"Velocity":73,"Duration":119582,"SoundDuration":119582,"Delta":21695980},{"NoteNumber":42,"Velocity":62,"Duration":119582,"SoundDuration":119582,"Delta":21695980},{"NoteNumber":51,"Velocity":67,"Duration":121030,"SoundDuration":121030,"Delta":21815562},{"NoteNumber":39,"Velocity":56,"Duration":121030,"SoundDuration":121030,"Delta":21815562},{"NoteNumber":54,"Velocity":66,"Duration":122512,"SoundDuration":122512,"Delta":21936593},{"NoteNumber":42,"Velocity":55,"Duration":122512,"SoundDuration":122512,"Delta":21936593},{"NoteNumber":44,"Velocity":75,"Duration":121766,"SoundDuration":121766,"Delta":22059105},{"NoteNumber":32,"Velocity":62,"Duration":121766,"SoundDuration":121766,"Delta":22059105},{"NoteNumber":54,"Velocity":64,"Duration":121029,"SoundDuration":121029,"Delta":22180871},{"NoteNumber":42,"Velocity":53,"Duration":121029,"SoundDuration":121029,"Delta":22180871},{"NoteNumber":51,"Velocity":62,"Duration":120301,"SoundDuration":120301,"Delta":22301900},{"NoteNumber":39,"Velocity":51,"Duration":120301,"SoundDuration":120301,"Delta":22301900},{"NoteNumber":54,"Velocity":65,"Duration":120030,"SoundDuration":120030,"Delta":22422201},{"NoteNumber":42,"Velocity":56,"Duration":120030,"SoundDuration":120030,"Delta":22422201},{"NoteNumber":44,"Velocity":58,"Duration":121397,"SoundDuration":121397,"Delta":22542232},{"NoteNumber":32,"Velocity":49,"Duration":121397,"SoundDuration":121397,"Delta":22542232},{"NoteNumber":54,"Velocity":57,"Duration":122889,"SoundDuration":122889,"Delta":22663629},{"NoteNumber":42,"Velocity":48,"Duration":122889,"SoundDuration":122889,"Delta":22663629},{"NoteNumber":46,"Velocity":64,"Duration":122982,"SoundDuration":122982,"Delta":22786518},{"NoteNumber":34,"Velocity":54,"Duration":122982,"SoundDuration":122982,"Delta":22786518},{"NoteNumber":54,"Velocity":56,"Duration":122417,"SoundDuration":122417,"Delta":22909501},{"NoteNumber":42,"Velocity":47,"Duration":122417,"SoundDuration":122417,"Delta":22909501},{"NoteNumber":51,"Velocity":55,"Duration":121766,"SoundDuration":121766,"Delta":23031919},{"NoteNumber":39,"Velocity":46,"Duration":121766,"SoundDuration":121766,"Delta":23031919},{"NoteNumber":54,"Velocity":58,"Duration":121396,"SoundDuration":121396,"Delta":23153685},{"NoteNumber":42,"Velocity":49,"Duration":121396,"SoundDuration":121396,"Delta":23153685},{"NoteNumber":46,"Velocity":50,"Duration":122137,"SoundDuration":122137,"Delta":23275081},{"NoteNumber":34,"Velocity":42,"Duration":122137,"SoundDuration":122137,"Delta":23275081},{"NoteNumber":54,"Velocity":49,"Duration":122983,"SoundDuration":122983,"Delta":23397219},{"NoteNumber":42,"Velocity":41,"Duration":122983,"SoundDuration":122983,"Delta":23397219},{"NoteNumber":51,"Velocity":56,"Duration":124513,"SoundDuration":124513,"Delta":23520202},{"NoteNumber":39,"Velocity":48,"Duration":124513,"SoundDuration":124513,"Delta":23520202},{"NoteNumber":58,"Velocity":49,"Duration":123839,"SoundDuration":123839,"Delta":23644716},{"NoteNumber":46,"Velocity":41,"Duration":123839,"SoundDuration":123839,"Delta":23644716},{"NoteNumber":51,"Velocity":48,"Duration":123077,"SoundDuration":123077,"Delta":23768555},{"NoteNumber":39,"Velocity":40,"Duration":123077,"SoundDuration":123077,"Delta":23768555},{"NoteNumber":59,"Velocity":51,"Duration":122888,"SoundDuration":122888,"Delta":23891633},{"NoteNumber":47,"Velocity":43,"Duration":122888,"SoundDuration":122888,"Delta":23891633},{"NoteNumber":51,"Velocity":45,"Duration":123552,"SoundDuration":123552,"Delta":24014521},{"NoteNumber":39,"Velocity":38,"Duration":123552,"SoundDuration":123552,"Delta":24014521},{"NoteNumber":61,"Velocity":43,"Duration":124224,"SoundDuration":124224,"Delta":24138073},{"NoteNumber":49,"Velocity":36,"Duration":124224,"SoundDuration":124224,"Delta":24138073},{"NoteNumber":51,"Velocity":48,"Duration":125588,"SoundDuration":125588,"Delta":24262298},{"NoteNumber":39,"Velocity":41,"Duration":125588,"SoundDuration":125588,"Delta":24262298},{"NoteNumber":58,"Velocity":43,"Duration":124708,"SoundDuration":124708,"Delta":24387887},{"NoteNumber":46,"Velocity":36,"Duration":124708,"SoundDuration":124708,"Delta":24387887},{"NoteNumber":51,"Velocity":42,"Duration":123839,"SoundDuration":123839,"Delta":24512595},{"NoteNumber":39,"Velocity":36,"Duration":123839,"SoundDuration":123839,"Delta":24512595},{"NoteNumber":59,"Velocity":45,"Duration":123266,"SoundDuration":123266,"Delta":24636435},{"NoteNumber":47,"Velocity":37,"Duration":123266,"SoundDuration":123266,"Delta":24636435},{"NoteNumber":51,"Velocity":39,"Duration":124224,"SoundDuration":124224,"Delta":24759702},{"NoteNumber":39,"Velocity":32,"Duration":124224,"SoundDuration":124224,"Delta":24759702},{"NoteNumber":61,"Velocity":38,"Duration":125098,"SoundDuration":125098,"Delta":24883926},{"NoteNumber":49,"Velocity":32,"Duration":125098,"SoundDuration":125098,"Delta":24883926},{"NoteNumber":51,"Velocity":43,"Duration":125886,"SoundDuration":125886,"Delta":25009024},{"NoteNumber":39,"Velocity":36,"Duration":125886,"SoundDuration":125886,"Delta":25009024},{"NoteNumber":61,"Velocity":37,"Duration":125392,"SoundDuration":125392,"Delta":25134910},{"NoteNumber":49,"Velocity":32,"Duration":125392,"SoundDuration":125392,"Delta":25134910},{"NoteNumber":51,"Velocity":36,"Duration":124594,"SoundDuration":124594,"Delta":25260303},{"NoteNumber":39,"Velocity":31,"Duration":124594,"SoundDuration":124594,"Delta":25260303},{"NoteNumber":59,"Velocity":39,"Duration":124975,"SoundDuration":124975,"Delta":25384897},{"NoteNumber":47,"Velocity":32,"Duration":124975,"SoundDuration":124975,"Delta":25384897},{"NoteNumber":51,"Velocity":35,"Duration":126793,"SoundDuration":126793,"Delta":25509873},{"NoteNumber":39,"Velocity":28,"Duration":126793,"SoundDuration":126793,"Delta":25509873},{"NoteNumber":58,"Velocity":35,"Duration":128752,"SoundDuration":128752,"Delta":25636666},{"NoteNumber":46,"Velocity":28,"Duration":128752,"SoundDuration":128752,"Delta":25636666},{"NoteNumber":51,"Velocity":37,"Duration":133973,"SoundDuration":133973,"Delta":25765419},{"NoteNumber":39,"Velocity":31,"Duration":133973,"SoundDuration":133973,"Delta":25765419},{"NoteNumber":56,"Velocity":34,"Duration":131795,"SoundDuration":131795,"Delta":25899392},{"NoteNumber":44,"Velocity":28,"Duration":131795,"SoundDuration":131795,"Delta":25899392},{"NoteNumber":51,"Velocity":32,"Duration":129365,"SoundDuration":129365,"Delta":26031187},{"NoteNumber":39,"Velocity":27,"Duration":129365,"SoundDuration":129365,"Delta":26031187},{"NoteNumber":58,"Velocity":34,"Duration":134530,"SoundDuration":134530,"Delta":26160553},{"NoteNumber":46,"Velocity":28,"Duration":134530,"SoundDuration":134530,"Delta":26160553},{"NoteNumber":51,"Velocity":30,"Duration":149324,"SoundDuration":149324,"Delta":26295083},{"NoteNumber":39,"Velocity":25,"Duration":149324,"SoundDuration":149324,"Delta":26295083},{"NoteNumber":58,"Velocity":29,"Duration":216684,"SoundDuration":216684,"Delta":26444408},{"NoteNumber":46,"Velocity":24,"Duration":216684,"SoundDuration":216684,"Delta":26444408},{"NoteNumber":51,"Velocity":36,"Duration":442803,"SoundDuration":442803,"Delta":26661092},{"NoteNumber":27,"Velocity":31,"Duration":442803,"SoundDuration":442803,"Delta":26661092}],"license":{"name":"Creative Commons Attribution-ShareAlike 3.0 Germany","url":"http://creativecommons.org/licenses/by-sa/3.0/de/deed.en","text":"The MIDI, audio (MP3, OGG) and video files of Bernd Krueger are licensed under the cc-by-sa Germany License. This means that you can use and adapt the files, as long as you attribute the copyright holder.\n\nName: Bernd Krueger\nSource: http://www.piano-midi.de\n\nThe distribution or public playback of the files is only allowed under identical license conditions.\n\nThe scores are open source.","attribution":"MIDI files by Bernd Krueger (piano-midi.de)"}}