{"title":"Chopin Prelude No. 3, Opus 28","artist":"Chopin","durationMs":51136,"midiSha256":"8d8bdb3f5de217e1ceccad83eb6f2c20778c2f142c9899c849602e21b28c0212","midiObject":[{"NoteNumber":43,"Velocity":52,"Duration":92679,"SoundDuration":92679,"Delta":0},{"NoteNumber":50,"Velocity":45,"Duration":93361,"SoundDuration":93361,"Delta":92680},{"NoteNumber":55,"Velocity":48,"Duration":93167,"SoundDuration":93167,"Delta":186041},{"NoteNumber":57,"Velocity":40,"Duration":92975,"SoundDuration":92975,"Delta":279209},{"NoteNumber":59,"Velocity":48,"Duration":108215,"SoundDuration":108215,"Delta":372184},{"NoteNumber":57,"Velocity":44,"Duration":108024,"SoundDuration":108024,"Delta":464968},{"NoteNumber":55,"Velocity":44,"Duration":107787,"SoundDuration":107787,"Delta":557560},{"NoteNumber":64,"Velocity":52,"Duration":107410,"SoundDuration":107410,"Delta":649963},{"NoteNumber":62,"Velocity":52,"Duration":107080,"SoundDuration":107080,"Delta":742082},{"NoteNumber":60,"Velocity":45,"Duration":107361,"SoundDuration":107361,"Delta":833825},{"NoteNumber":59,"Velocity":41,"Duration":107597,"SoundDuration":107597,"Delta":925850},{"NoteNumber":57,"Velocity":42,"Duration":107929,"SoundDuration":107929,"Delta":1018063},{"NoteNumber":55,"Velocity":49,"Duration":108167,"SoundDuration":108167,"Delta":1110561},{"NoteNumber":57,"Velocity":41,"Duration":108503,"SoundDuration":108503,"Delta":1203249},{"NoteNumber":59,"Velocity":45,"Duration":108744,"SoundDuration":108744,"Delta":1296224},{"NoteNumber":50,"Velocity":41,"Duration":109034,"SoundDuration":109034,"Delta":1389392},{"NoteNumber":43,"Velocity":52,"Duration":93458,"SoundDuration":93458,"Delta":1482850},{"NoteNumber":50,"Velocity":45,"Duration":93264,"SoundDuration":93264,"Delta":1576308},{"NoteNumber":55,"Velocity":48,"Duration":92975,"SoundDuration":92975,"Delta":1669572},{"NoteNumber":57,"Velocity":40,"Duration":92783,"SoundDuration":92783,"Delta":1762548},{"NoteNumber":59,"Velocity":48,"Duration":107882,"SoundDuration":107882,"Delta":1855332},{"NoteNumber":57,"Velocity":44,"Duration":107645,"SoundDuration":107645,"Delta":1947829},{"NoteNumber":55,"Velocity":44,"Duration":107314,"SoundDuration":107314,"Delta":2040137},{"NoteNumber":64,"Velocity":52,"Duration":106986,"SoundDuration":106986,"Delta":2132161},{"NoteNumber":62,"Velocity":52,"Duration":106754,"SoundDuration":106754,"Delta":2223904},{"NoteNumber":60,"Velocity":45,"Duration":107080,"SoundDuration":107080,"Delta":2315368},{"NoteNumber":59,"Velocity":41,"Duration":107409,"SoundDuration":107409,"Delta":2407111},{"NoteNumber":57,"Velocity":42,"Duration":107739,"SoundDuration":107739,"Delta":2499135},{"NoteNumber":55,"Velocity":49,"Duration":108072,"SoundDuration":108072,"Delta":2591443},{"NoteNumber":57,"Velocity":41,"Duration":108407,"SoundDuration":108407,"Delta":2684036},{"NoteNumber":59,"Velocity":45,"Duration":108744,"SoundDuration":108744,"Delta":2776915},{"NoteNumber":50,"Velocity":41,"Duration":109180,"SoundDuration":109180,"Delta":2870083},{"NoteNumber":62,"Velocity":77,"Duration":559015,"SoundDuration":559015,"Delta":2963638},{"NoteNumber":43,"Velocity":52,"Duration":93750,"SoundDuration":93750,"Delta":2963638},{"NoteNumber":50,"Velocity":45,"Duration":93458,"SoundDuration":93458,"Delta":3057388},{"NoteNumber":55,"Velocity":48,"Duration":93264,"SoundDuration":93264,"Delta":3150846},{"NoteNumber":57,"Velocity":40,"Duration":93071,"SoundDuration":93071,"Delta":3244110},{"NoteNumber":59,"Velocity":48,"Duration":92879,"SoundDuration":92879,"Delta":3337182},{"NoteNumber":57,"Velocity":44,"Duration":92592,"SoundDuration":92592,"Delta":3430061},{"NoteNumber":55,"Velocity":44,"Duration":92402,"SoundDuration":92402,"Delta":3522654},{"NoteNumber":64,"Velocity":52,"Duration":92213,"SoundDuration":92213,"Delta":3615056},{"NoteNumber":71,"Velocity":77,"Duration":553476,"SoundDuration":553476,"Delta":3707270},{"NoteNumber":67,"Velocity":69,"Duration":553476,"SoundDuration":553476,"Delta":3707270},{"NoteNumber":62,"Velocity":52,"Duration":91743,"SoundDuration":91743,"Delta":3707270},{"NoteNumber":60,"Velocity":45,"Duration":91930,"SoundDuration":91930,"Delta":3799013},{"NoteNumber":59,"Velocity":41,"Duration":92118,"SoundDuration":92118,"Delta":3890943},{"NoteNumber":57,"Velocity":42,"Duration":92307,"SoundDuration":92307,"Delta":3983062},{"NoteNumber":55,"Velocity":49,"Duration":92592,"SoundDuration":92592,"Delta":4075370},{"NoteNumber":57,"Velocity":41,"Duration":92783,"SoundDuration":92783,"Delta":4167963},{"NoteNumber":59,"Velocity":45,"Duration":92975,"SoundDuration":92975,"Delta":4260746},{"NoteNumber":72,"Velocity":66,"Duration":93167,"SoundDuration":93167,"Delta":4353722},{"NoteNumber":76,"Velocity":74,"Duration":93167,"SoundDuration":93167,"Delta":4353722},{"NoteNumber":50,"Velocity":41,"Duration":93167,"SoundDuration":93167,"Delta":4353722},{"NoteNumber":71,"Velocity":73,"Duration":1110089,"SoundDuration":1110089,"Delta":4446889},{"NoteNumber":74,"Velocity":82,"Duration":1110089,"SoundDuration":1110089,"Delta":4446889},{"NoteNumber":43,"Velocity":52,"Duration":93167,"SoundDuration":93167,"Delta":4446889},{"NoteNumber":50,"Velocity":46,"Duration":93071,"SoundDuration":93071,"Delta":4540057},{"NoteNumber":55,"Velocity":50,"Duration":92879,"SoundDuration":92879,"Delta":4633129},{"NoteNumber":57,"Velocity":44,"Duration":92592,"SoundDuration":92592,"Delta":4726008},{"NoteNumber":59,"Velocity":55,"Duration":92497,"SoundDuration":92497,"Delta":4818601},{"NoteNumber":57,"Velocity":53,"Duration":92307,"SoundDuration":92307,"Delta":4911098},{"NoteNumber":55,"Velocity":55,"Duration":92024,"SoundDuration":92024,"Delta":5003406},{"NoteNumber":64,"Velocity":68,"Duration":91836,"SoundDuration":91836,"Delta":5095430},{"NoteNumber":62,"Velocity":70,"Duration":91930,"SoundDuration":91930,"Delta":5187267},{"NoteNumber":60,"Velocity":61,"Duration":92213,"SoundDuration":92213,"Delta":5279198},{"NoteNumber":59,"Velocity":55,"Duration":92592,"SoundDuration":92592,"Delta":5371411},{"NoteNumber":57,"Velocity":56,"Duration":92975,"SoundDuration":92975,"Delta":5464004},{"NoteNumber":55,"Velocity":66,"Duration":93264,"SoundDuration":93264,"Delta":5556979},{"NoteNumber":57,"Velocity":55,"Duration":93652,"SoundDuration":93652,"Delta":5650244},{"NoteNumber":59,"Velocity":60,"Duration":96462,"SoundDuration":96462,"Delta":5743896},{"NoteNumber":76,"Velocity":78,"Duration":96462,"SoundDuration":96462,"Delta":5840359},{"NoteNumber":84,"Velocity":92,"Duration":96462,"SoundDuration":96462,"Delta":5840359},{"NoteNumber":50,"Velocity":55,"Duration":96462,"SoundDuration":96462,"Delta":5840359},{"NoteNumber":74,"Velocity":74,"Duration":1488404,"SoundDuration":1488404,"Delta":5936822},{"NoteNumber":83,"Velocity":89,"Duration":1488404,"SoundDuration":1488404,"Delta":5936822},{"NoteNumber":43,"Velocity":68,"Duration":93750,"SoundDuration":93750,"Delta":5936822},{"NoteNumber":50,"Velocity":58,"Duration":93652,"SoundDuration":93652,"Delta":6030572},{"NoteNumber":55,"Velocity":60,"Duration":93458,"SoundDuration":93458,"Delta":6124225},{"NoteNumber":57,"Velocity":49,"Duration":93264,"SoundDuration":93264,"Delta":6217683},{"NoteNumber":59,"Velocity":58,"Duration":93167,"SoundDuration":93167,"Delta":6310947},{"NoteNumber":57,"Velocity":52,"Duration":92879,"SoundDuration":92879,"Delta":6404115},{"NoteNumber":55,"Velocity":52,"Duration":92783,"SoundDuration":92783,"Delta":6496994},{"NoteNumber":64,"Velocity":60,"Duration":92592,"SoundDuration":92592,"Delta":6589778},{"NoteNumber":62,"Velocity":60,"Duration":92307,"SoundDuration":92307,"Delta":6682371},{"NoteNumber":60,"Velocity":50,"Duration":92402,"SoundDuration":92402,"Delta":6774678},{"NoteNumber":59,"Velocity":45,"Duration":92592,"SoundDuration":92592,"Delta":6867081},{"NoteNumber":57,"Velocity":45,"Duration":92783,"SoundDuration":92783,"Delta":6959674},{"NoteNumber":55,"Velocity":52,"Duration":92879,"SoundDuration":92879,"Delta":7052457},{"NoteNumber":57,"Velocity":42,"Duration":93167,"SoundDuration":93167,"Delta":7145336},{"NoteNumber":59,"Velocity":46,"Duration":93264,"SoundDuration":93264,"Delta":7238504},{"NoteNumber":50,"Velocity":41,"Duration":93458,"SoundDuration":93458,"Delta":7331769},{"NoteNumber":79,"Velocity":74,"Duration":744112,"SoundDuration":744112,"Delta":7425227},{"NoteNumber":71,"Velocity":62,"Duration":744112,"SoundDuration":744112,"Delta":7425227},{"NoteNumber":43,"Velocity":46,"Duration":93750,"SoundDuration":93750,"Delta":7425227},{"NoteNumber":50,"Velocity":40,"Duration":93555,"SoundDuration":93555,"Delta":7518977},{"NoteNumber":55,"Velocity":42,"Duration":93361,"SoundDuration":93361,"Delta":7612532},{"NoteNumber":57,"Velocity":38,"Duration":93167,"SoundDuration":93167,"Delta":7705893},{"NoteNumber":59,"Velocity":46,"Duration":92879,"SoundDuration":92879,"Delta":7799061},{"NoteNumber":57,"Velocity":42,"Duration":92688,"SoundDuration":92688,"Delta":7891940},{"NoteNumber":55,"Velocity":44,"Duration":92497,"SoundDuration":92497,"Delta":7984628},{"NoteNumber":64,"Velocity":53,"Duration":92213,"SoundDuration":92213,"Delta":8077126},{"NoteNumber":62,"Velocity":55,"Duration":107361,"SoundDuration":107361,"Delta":8169339},{"NoteNumber":60,"Velocity":48,"Duration":107597,"SoundDuration":107597,"Delta":8261364},{"NoteNumber":59,"Velocity":41,"Duration":107834,"SoundDuration":107834,"Delta":8353577},{"NoteNumber":57,"Velocity":42,"Duration":108072,"SoundDuration":108072,"Delta":8445980},{"NoteNumber":55,"Velocity":48,"Duration":108359,"SoundDuration":108359,"Delta":8538572},{"NoteNumber":57,"Velocity":39,"Duration":108599,"SoundDuration":108599,"Delta":8631452},{"NoteNumber":59,"Velocity":41,"Duration":108840,"SoundDuration":108840,"Delta":8724523},{"NoteNumber":50,"Velocity":37,"Duration":109180,"SoundDuration":109180,"Delta":8817788},{"NoteNumber":67,"Velocity":53,"Duration":1498784,"SoundDuration":1498784,"Delta":8911343},{"NoteNumber":69,"Velocity":53,"Duration":1498784,"SoundDuration":1498784,"Delta":8911343},{"NoteNumber":73,"Velocity":61,"Duration":1498784,"SoundDuration":1498784,"Delta":8911343},{"NoteNumber":78,"Velocity":77,"Duration":1393889,"SoundDuration":1393889,"Delta":8911343},{"NoteNumber":45,"Velocity":46,"Duration":93750,"SoundDuration":93750,"Delta":8911343},{"NoteNumber":52,"Velocity":40,"Duration":93555,"SoundDuration":93555,"Delta":9005093},{"NoteNumber":57,"Velocity":42,"Duration":93458,"SoundDuration":93458,"Delta":9098648},{"NoteNumber":59,"Velocity":34,"Duration":93167,"SoundDuration":93167,"Delta":9192106},{"NoteNumber":61,"Velocity":42,"Duration":93071,"SoundDuration":93071,"Delta":9285274},{"NoteNumber":59,"Velocity":39,"Duration":92879,"SoundDuration":92879,"Delta":9378346},{"NoteNumber":57,"Velocity":39,"Duration":92688,"SoundDuration":92688,"Delta":9471225},{"NoteNumber":66,"Velocity":46,"Duration":92592,"SoundDuration":92592,"Delta":9563913},{"NoteNumber":64,"Velocity":46,"Duration":92307,"SoundDuration":92307,"Delta":9656505},{"NoteNumber":62,"Velocity":40,"Duration":92307,"SoundDuration":92307,"Delta":9748813},{"NoteNumber":61,"Velocity":36,"Duration":92592,"SoundDuration":92592,"Delta":9841121},{"NoteNumber":59,"Velocity":37,"Duration":92592,"SoundDuration":92592,"Delta":9933713},{"NoteNumber":57,"Velocity":44,"Duration":92879,"SoundDuration":92879,"Delta":10026306},{"NoteNumber":59,"Velocity":36,"Duration":92879,"SoundDuration":92879,"Delta":10119185},{"NoteNumber":61,"Velocity":40,"Duration":93167,"SoundDuration":93167,"Delta":10212064},{"NoteNumber":76,"Velocity":67,"Duration":52447,"SoundDuration":52447,"Delta":10305232},{"NoteNumber":52,"Velocity":36,"Duration":104895,"SoundDuration":104895,"Delta":10305232},{"NoteNumber":66,"Velocity":55,"Duration":424733,"SoundDuration":424733,"Delta":10357680},{"NoteNumber":74,"Velocity":60,"Duration":398510,"SoundDuration":398510,"Delta":10383903},{"NoteNumber":81,"Velocity":69,"Duration":743038,"SoundDuration":743038,"Delta":10410127},{"NoteNumber":38,"Velocity":46,"Duration":93167,"SoundDuration":93167,"Delta":10410127},{"NoteNumber":45,"Velocity":40,"Duration":93167,"SoundDuration":93167,"Delta":10503295},{"NoteNumber":50,"Velocity":42,"Duration":93071,"SoundDuration":93071,"Delta":10596463},{"NoteNumber":52,"Velocity":34,"Duration":92879,"SoundDuration":92879,"Delta":10689534},{"NoteNumber":54,"Velocity":42,"Duration":108359,"SoundDuration":108359,"Delta":10782414},{"NoteNumber":52,"Velocity":39,"Duration":108120,"SoundDuration":108120,"Delta":10875293},{"NoteNumber":50,"Velocity":39,"Duration":108024,"SoundDuration":108024,"Delta":10967981},{"NoteNumber":59,"Velocity":46,"Duration":107977,"SoundDuration":107977,"Delta":11060573},{"NoteNumber":57,"Velocity":46,"Duration":107692,"SoundDuration":107692,"Delta":11153166},{"NoteNumber":55,"Velocity":40,"Duration":107929,"SoundDuration":107929,"Delta":11245474},{"NoteNumber":54,"Velocity":36,"Duration":108263,"SoundDuration":108263,"Delta":11337971},{"NoteNumber":52,"Velocity":37,"Duration":108599,"SoundDuration":108599,"Delta":11430755},{"NoteNumber":50,"Velocity":44,"Duration":108937,"SoundDuration":108937,"Delta":11523826},{"NoteNumber":52,"Velocity":36,"Duration":109277,"SoundDuration":109277,"Delta":11617188},{"NoteNumber":54,"Velocity":40,"Duration":109619,"SoundDuration":109619,"Delta":11710840},{"NoteNumber":47,"Velocity":36,"Duration":109767,"SoundDuration":109767,"Delta":11804786},{"NoteNumber":69,"Velocity":55,"Duration":1508726,"SoundDuration":1508726,"Delta":11898830},{"NoteNumber":73,"Velocity":55,"Duration":1508726,"SoundDuration":1508726,"Delta":11898830},{"NoteNumber":67,"Velocity":55,"Duration":1508726,"SoundDuration":1508726,"Delta":11898830},{"NoteNumber":78,"Velocity":69,"Duration":1407375,"SoundDuration":1407375,"Delta":11898830},{"NoteNumber":45,"Velocity":46,"Duration":94339,"SoundDuration":94339,"Delta":11898830},{"NoteNumber":52,"Velocity":40,"Duration":94240,"SoundDuration":94240,"Delta":11993170},{"NoteNumber":57,"Velocity":42,"Duration":94044,"SoundDuration":94044,"Delta":12087411},{"NoteNumber":59,"Velocity":34,"Duration":93848,"SoundDuration":93848,"Delta":12181455},{"NoteNumber":61,"Velocity":44,"Duration":93749,"SoundDuration":93749,"Delta":12275303},{"NoteNumber":59,"Velocity":40,"Duration":93458,"SoundDuration":93458,"Delta":12369053},{"NoteNumber":57,"Velocity":41,"Duration":93361,"SoundDuration":93361,"Delta":12462511},{"NoteNumber":66,"Velocity":49,"Duration":93167,"SoundDuration":93167,"Delta":12555872},{"NoteNumber":64,"Velocity":50,"Duration":92879,"SoundDuration":92879,"Delta":12649040},{"NoteNumber":62,"Velocity":44,"Duration":93167,"SoundDuration":93167,"Delta":12741919},{"NoteNumber":61,"Velocity":40,"Duration":93555,"SoundDuration":93555,"Delta":12835087},{"NoteNumber":59,"Velocity":41,"Duration":93847,"SoundDuration":93847,"Delta":12928642},{"NoteNumber":57,"Velocity":50,"Duration":94241,"SoundDuration":94241,"Delta":13022490},{"NoteNumber":59,"Velocity":41,"Duration":94537,"SoundDuration":94537,"Delta":13116731},{"NoteNumber":61,"Velocity":46,"Duration":94936,"SoundDuration":94936,"Delta":13211269},{"NoteNumber":76,"Velocity":60,"Duration":50675,"SoundDuration":50675,"Delta":13306206},{"NoteNumber":52,"Velocity":42,"Duration":101351,"SoundDuration":101351,"Delta":13306206},{"NoteNumber":66,"Velocity":49,"Duration":426263,"SoundDuration":426263,"Delta":13356882},{"NoteNumber":72,"Velocity":56,"Duration":400925,"SoundDuration":400925,"Delta":13382219},{"NoteNumber":81,"Velocity":72,"Duration":748743,"SoundDuration":748743,"Delta":13407557},{"NoteNumber":38,"Velocity":41,"Duration":94044,"SoundDuration":94044,"Delta":13407557},{"NoteNumber":45,"Velocity":38,"Duration":94044,"SoundDuration":94044,"Delta":13501601},{"NoteNumber":50,"Velocity":38,"Duration":93750,"SoundDuration":93750,"Delta":13595645},{"NoteNumber":52,"Velocity":37,"Duration":93750,"SoundDuration":93750,"Delta":13689395},{"NoteNumber":54,"Velocity":45,"Duration":109034,"SoundDuration":109034,"Delta":13783145},{"NoteNumber":52,"Velocity":41,"Duration":108985,"SoundDuration":108985,"Delta":13876603},{"NoteNumber":50,"Velocity":41,"Duration":108695,"SoundDuration":108695,"Delta":13970061},{"NoteNumber":59,"Velocity":41,"Duration":108551,"SoundDuration":108551,"Delta":14063229},{"NoteNumber":57,"Velocity":46,"Duration":108359,"SoundDuration":108359,"Delta":14156301},{"NoteNumber":55,"Velocity":41,"Duration":108407,"SoundDuration":108407,"Delta":14249180},{"NoteNumber":54,"Velocity":37,"Duration":108695,"SoundDuration":108695,"Delta":14342059},{"NoteNumber":52,"Velocity":39,"Duration":108744,"SoundDuration":108744,"Delta":14435227},{"NoteNumber":50,"Velocity":45,"Duration":109034,"SoundDuration":109034,"Delta":14528395},{"NoteNumber":52,"Velocity":36,"Duration":109083,"SoundDuration":109083,"Delta":14621853},{"NoteNumber":54,"Velocity":40,"Duration":109375,"SoundDuration":109375,"Delta":14715311},{"NoteNumber":45,"Velocity":36,"Duration":109424,"SoundDuration":109424,"Delta":14809061},{"NoteNumber":38,"Velocity":46,"Duration":93848,"SoundDuration":93848,"Delta":14902811},{"NoteNumber":45,"Velocity":40,"Duration":93652,"SoundDuration":93652,"Delta":14996659},{"NoteNumber":50,"Velocity":42,"Duration":93458,"SoundDuration":93458,"Delta":15090311},{"NoteNumber":52,"Velocity":34,"Duration":93167,"SoundDuration":93167,"Delta":15183769},{"NoteNumber":54,"Velocity":42,"Duration":92879,"SoundDuration":92879,"Delta":15276937},{"NoteNumber":52,"Velocity":39,"Duration":92688,"SoundDuration":92688,"Delta":15369816},{"NoteNumber":50,"Velocity":39,"Duration":92497,"SoundDuration":92497,"Delta":15462504},{"NoteNumber":81,"Velocity":55,"Duration":92213,"SoundDuration":92213,"Delta":15555002},{"NoteNumber":84,"Velocity":66,"Duration":92213,"SoundDuration":92213,"Delta":15555002},{"NoteNumber":59,"Velocity":46,"Duration":92213,"SoundDuration":92213,"Delta":15555002},{"NoteNumber":76,"Velocity":70,"Duration":555853,"SoundDuration":555853,"Delta":15647215},{"NoteNumber":72,"Velocity":58,"Duration":555853,"SoundDuration":555853,"Delta":15647215},{"NoteNumber":57,"Velocity":46,"Duration":92024,"SoundDuration":92024,"Delta":15647215},{"NoteNumber":55,"Velocity":40,"Duration":92307,"SoundDuration":92307,"Delta":15739240},{"NoteNumber":54,"Velocity":36,"Duration":92497,"SoundDuration":92497,"Delta":15831547},{"NoteNumber":52,"Velocity":37,"Duration":92783,"SoundDuration":92783,"Delta":15924045},{"NoteNumber":50,"Velocity":44,"Duration":92975,"SoundDuration":92975,"Delta":16016829},{"NoteNumber":52,"Velocity":36,"Duration":93264,"SoundDuration":93264,"Delta":16109804},{"NoteNumber":54,"Velocity":40,"Duration":93458,"SoundDuration":93458,"Delta":16203069},{"NoteNumber":72,"Velocity":55,"Duration":93848,"SoundDuration":93848,"Delta":16296527},{"NoteNumber":74,"Velocity":66,"Duration":93848,"SoundDuration":93848,"Delta":16296527},{"NoteNumber":45,"Velocity":36,"Duration":93848,"SoundDuration":93848,"Delta":16296527},{"NoteNumber":62,"Velocity":77,"Duration":559891,"SoundDuration":559891,"Delta":16390375},{"NoteNumber":43,"Velocity":52,"Duration":94044,"SoundDuration":94044,"Delta":16390375},{"NoteNumber":50,"Velocity":45,"Duration":93750,"SoundDuration":93750,"Delta":16484419},{"NoteNumber":55,"Velocity":48,"Duration":93457,"SoundDuration":93457,"Delta":16578169},{"NoteNumber":57,"Velocity":40,"Duration":93167,"SoundDuration":93167,"Delta":16671627},{"NoteNumber":59,"Velocity":48,"Duration":92879,"SoundDuration":92879,"Delta":16764794},{"NoteNumber":57,"Velocity":44,"Duration":92592,"SoundDuration":92592,"Delta":16857674},{"NoteNumber":55,"Velocity":44,"Duration":92307,"SoundDuration":92307,"Delta":16950266},{"NoteNumber":64,"Velocity":52,"Duration":92024,"SoundDuration":92024,"Delta":17042574},{"NoteNumber":71,"Velocity":77,"Duration":553857,"SoundDuration":553857,"Delta":17134598},{"NoteNumber":67,"Velocity":69,"Duration":553857,"SoundDuration":553857,"Delta":17134598},{"NoteNumber":62,"Velocity":52,"Duration":91743,"SoundDuration":91743,"Delta":17134598},{"NoteNumber":60,"Velocity":45,"Duration":91930,"SoundDuration":91930,"Delta":17226341},{"NoteNumber":59,"Velocity":41,"Duration":92213,"SoundDuration":92213,"Delta":17318272},{"NoteNumber":57,"Velocity":42,"Duration":92402,"SoundDuration":92402,"Delta":17410485},{"NoteNumber":55,"Velocity":49,"Duration":92688,"SoundDuration":92688,"Delta":17502888},{"NoteNumber":57,"Velocity":41,"Duration":92879,"SoundDuration":92879,"Delta":17595576},{"NoteNumber":59,"Velocity":45,"Duration":93167,"SoundDuration":93167,"Delta":17688455},{"NoteNumber":72,"Velocity":66,"Duration":93457,"SoundDuration":93457,"Delta":17781623},{"NoteNumber":76,"Velocity":74,"Duration":93457,"SoundDuration":93457,"Delta":17781623},{"NoteNumber":50,"Velocity":41,"Duration":93457,"SoundDuration":93457,"Delta":17781623},{"NoteNumber":71,"Velocity":73,"Duration":1111550,"SoundDuration":1111550,"Delta":17875081},{"NoteNumber":74,"Velocity":82,"Duration":1111550,"SoundDuration":1111550,"Delta":17875081},{"NoteNumber":43,"Velocity":52,"Duration":93750,"SoundDuration":93750,"Delta":17875081},{"NoteNumber":50,"Velocity":46,"Duration":93652,"SoundDuration":93652,"Delta":17968831},{"NoteNumber":55,"Velocity":50,"Duration":93361,"SoundDuration":93361,"Delta":18062484},{"NoteNumber":57,"Velocity":44,"Duration":93071,"SoundDuration":93071,"Delta":18155845},{"NoteNumber":59,"Velocity":55,"Duration":92783,"SoundDuration":92783,"Delta":18248917},{"NoteNumber":57,"Velocity":53,"Duration":92497,"SoundDuration":92497,"Delta":18341700},{"NoteNumber":55,"Velocity":55,"Duration":92213,"SoundDuration":92213,"Delta":18434198},{"NoteNumber":64,"Velocity":68,"Duration":91930,"SoundDuration":91930,"Delta":18526411},{"NoteNumber":62,"Velocity":70,"Duration":91743,"SoundDuration":91743,"Delta":18618342},{"NoteNumber":60,"Velocity":61,"Duration":91930,"SoundDuration":91930,"Delta":18710085},{"NoteNumber":59,"Velocity":55,"Duration":92213,"SoundDuration":92213,"Delta":18802016},{"NoteNumber":57,"Velocity":56,"Duration":92402,"SoundDuration":92402,"Delta":18894229},{"NoteNumber":55,"Velocity":66,"Duration":92688,"SoundDuration":92688,"Delta":18986631},{"NoteNumber":57,"Velocity":55,"Duration":92879,"SoundDuration":92879,"Delta":19079320},{"NoteNumber":59,"Velocity":60,"Duration":93167,"SoundDuration":93167,"Delta":19172199},{"NoteNumber":76,"Velocity":81,"Duration":93457,"SoundDuration":93457,"Delta":19265367},{"NoteNumber":84,"Velocity":96,"Duration":93457,"SoundDuration":93457,"Delta":19265367},{"NoteNumber":50,"Velocity":55,"Duration":93457,"SoundDuration":93457,"Delta":19265367},{"NoteNumber":74,"Velocity":74,"Duration":1484310,"SoundDuration":1484310,"Delta":19358825},{"NoteNumber":83,"Velocity":89,"Duration":1484310,"SoundDuration":1484310,"Delta":19358825},{"NoteNumber":43,"Velocity":68,"Duration":93555,"SoundDuration":93555,"Delta":19358825},{"NoteNumber":50,"Velocity":58,"Duration":93361,"SoundDuration":93361,"Delta":19452380},{"NoteNumber":55,"Velocity":60,"Duration":93167,"SoundDuration":93167,"Delta":19545741},{"NoteNumber":57,"Velocity":49,"Duration":92879,"SoundDuration":92879,"Delta":19638909},{"NoteNumber":59,"Velocity":58,"Duration":92688,"SoundDuration":92688,"Delta":19731788},{"NoteNumber":57,"Velocity":52,"Duration":92497,"SoundDuration":92497,"Delta":19824476},{"NoteNumber":55,"Velocity":52,"Duration":92307,"SoundDuration":92307,"Delta":19916974},{"NoteNumber":64,"Velocity":60,"Duration":91930,"SoundDuration":91930,"Delta":20009282},{"NoteNumber":62,"Velocity":60,"Duration":91743,"SoundDuration":91743,"Delta":20101212},{"NoteNumber":60,"Velocity":50,"Duration":92024,"SoundDuration":92024,"Delta":20192955},{"NoteNumber":59,"Velocity":45,"Duration":92307,"SoundDuration":92307,"Delta":20284980},{"NoteNumber":57,"Velocity":45,"Duration":92592,"SoundDuration":92592,"Delta":20377287},{"NoteNumber":55,"Velocity":52,"Duration":92879,"SoundDuration":92879,"Delta":20469880},{"NoteNumber":57,"Velocity":42,"Duration":93167,"SoundDuration":93167,"Delta":20562759},{"NoteNumber":59,"Velocity":46,"Duration":93457,"SoundDuration":93457,"Delta":20655927},{"NoteNumber":50,"Velocity":41,"Duration":93750,"SoundDuration":93750,"Delta":20749385},{"NoteNumber":79,"Velocity":74,"Duration":746125,"SoundDuration":746125,"Delta":20843135},{"NoteNumber":71,"Velocity":62,"Duration":746125,"SoundDuration":746125,"Delta":20843135},{"NoteNumber":43,"Velocity":46,"Duration":93750,"SoundDuration":93750,"Delta":20843135},{"NoteNumber":50,"Velocity":40,"Duration":93750,"SoundDuration":93750,"Delta":20936885},{"NoteNumber":55,"Velocity":42,"Duration":93457,"SoundDuration":93457,"Delta":21030635},{"NoteNumber":57,"Velocity":38,"Duration":93361,"SoundDuration":93361,"Delta":21124093},{"NoteNumber":59,"Velocity":46,"Duration":93167,"SoundDuration":93167,"Delta":21217454},{"NoteNumber":57,"Velocity":42,"Duration":93071,"SoundDuration":93071,"Delta":21310622},{"NoteNumber":55,"Velocity":44,"Duration":92879,"SoundDuration":92879,"Delta":21403694},{"NoteNumber":64,"Velocity":53,"Duration":92688,"SoundDuration":92688,"Delta":21496573},{"NoteNumber":62,"Velocity":55,"Duration":108263,"SoundDuration":108263,"Delta":21589261},{"NoteNumber":60,"Velocity":48,"Duration":108647,"SoundDuration":108647,"Delta":21682045},{"NoteNumber":59,"Velocity":41,"Duration":109082,"SoundDuration":109082,"Delta":21775116},{"NoteNumber":57,"Velocity":42,"Duration":109521,"SoundDuration":109521,"Delta":21868574},{"NoteNumber":55,"Velocity":48,"Duration":109865,"SoundDuration":109865,"Delta":21962422},{"NoteNumber":57,"Velocity":39,"Duration":110310,"SoundDuration":110310,"Delta":22056565},{"NoteNumber":59,"Velocity":41,"Duration":110410,"SoundDuration":110410,"Delta":22151103},{"NoteNumber":50,"Velocity":37,"Duration":110113,"SoundDuration":110113,"Delta":22245740},{"NoteNumber":71,"Velocity":61,"Duration":1490045,"SoundDuration":1490045,"Delta":22340179},{"NoteNumber":77,"Velocity":75,"Duration":745943,"SoundDuration":745943,"Delta":22340179},{"NoteNumber":43,"Velocity":41,"Duration":94044,"SoundDuration":94044,"Delta":22340179},{"NoteNumber":50,"Velocity":36,"Duration":93750,"SoundDuration":93750,"Delta":22434223},{"NoteNumber":55,"Velocity":38,"Duration":93555,"SoundDuration":93555,"Delta":22527973},{"NoteNumber":57,"Velocity":30,"Duration":93361,"SoundDuration":93361,"Delta":22621529},{"NoteNumber":59,"Velocity":38,"Duration":93167,"SoundDuration":93167,"Delta":22714890},{"NoteNumber":57,"Velocity":34,"Duration":92879,"SoundDuration":92879,"Delta":22808058},{"NoteNumber":55,"Velocity":34,"Duration":92688,"SoundDuration":92688,"Delta":22900937},{"NoteNumber":64,"Velocity":42,"Duration":92497,"SoundDuration":92497,"Delta":22993625},{"NoteNumber":77,"Velocity":70,"Duration":650546,"SoundDuration":650546,"Delta":23086123},{"NoteNumber":62,"Velocity":42,"Duration":92497,"SoundDuration":92497,"Delta":23086123},{"NoteNumber":60,"Velocity":37,"Duration":92592,"SoundDuration":92592,"Delta":23178620},{"NoteNumber":59,"Velocity":31,"Duration":92783,"SoundDuration":92783,"Delta":23271213},{"NoteNumber":57,"Velocity":34,"Duration":92879,"SoundDuration":92879,"Delta":23363996},{"NoteNumber":55,"Velocity":41,"Duration":93167,"SoundDuration":93167,"Delta":23456876},{"NoteNumber":57,"Velocity":34,"Duration":93167,"SoundDuration":93167,"Delta":23550043},{"NoteNumber":59,"Velocity":38,"Duration":93457,"SoundDuration":93457,"Delta":23643211},{"NoteNumber":77,"Velocity":75,"Duration":93555,"SoundDuration":93555,"Delta":23736669},{"NoteNumber":50,"Velocity":34,"Duration":93555,"SoundDuration":93555,"Delta":23736669},{"NoteNumber":77,"Velocity":75,"Duration":562500,"SoundDuration":562500,"Delta":23830224},{"NoteNumber":71,"Velocity":61,"Duration":1558449,"SoundDuration":1558449,"Delta":23830224},{"NoteNumber":43,"Velocity":44,"Duration":93750,"SoundDuration":93750,"Delta":23830224},{"NoteNumber":50,"Velocity":39,"Duration":93750,"SoundDuration":93750,"Delta":23923974},{"NoteNumber":55,"Velocity":41,"Duration":93750,"SoundDuration":93750,"Delta":24017724},{"NoteNumber":57,"Velocity":31,"Duration":93750,"SoundDuration":93750,"Delta":24111474},{"NoteNumber":59,"Velocity":41,"Duration":93750,"SoundDuration":93750,"Delta":24205224},{"NoteNumber":57,"Velocity":38,"Duration":93750,"SoundDuration":93750,"Delta":24298974},{"NoteNumber":77,"Velocity":64,"Duration":45592,"SoundDuration":45592,"Delta":24392724},{"NoteNumber":55,"Velocity":38,"Duration":91185,"SoundDuration":91185,"Delta":24392724},{"NoteNumber":79,"Velocity":59,"Duration":45592,"SoundDuration":45592,"Delta":24438317},{"NoteNumber":77,"Velocity":62,"Duration":95237,"SoundDuration":95237,"Delta":24483910},{"NoteNumber":64,"Velocity":42,"Duration":95237,"SoundDuration":95237,"Delta":24483910},{"NoteNumber":76,"Velocity":68,"Duration":692216,"SoundDuration":692216,"Delta":24579148},{"NoteNumber":62,"Velocity":45,"Duration":95541,"SoundDuration":95541,"Delta":24579148},{"NoteNumber":60,"Velocity":40,"Duration":95949,"SoundDuration":95949,"Delta":24674689},{"NoteNumber":59,"Velocity":37,"Duration":96256,"SoundDuration":96256,"Delta":24770639},{"NoteNumber":57,"Velocity":38,"Duration":96691,"SoundDuration":96691,"Delta":24866895},{"NoteNumber":55,"Velocity":44,"Duration":98749,"SoundDuration":98749,"Delta":24963587},{"NoteNumber":57,"Velocity":38,"Duration":102505,"SoundDuration":102505,"Delta":25062336},{"NoteNumber":59,"Velocity":41,"Duration":106522,"SoundDuration":106522,"Delta":25164842},{"NoteNumber":75,"Velocity":72,"Duration":58486,"SoundDuration":58486,"Delta":25271364},{"NoteNumber":43,"Velocity":38,"Duration":117309,"SoundDuration":117309,"Delta":25271364},{"NoteNumber":64,"Velocity":46,"Duration":3040099,"SoundDuration":3040099,"Delta":25329850},{"NoteNumber":67,"Velocity":50,"Duration":3020491,"SoundDuration":3020491,"Delta":25349458},{"NoteNumber":72,"Velocity":51,"Duration":3000883,"SoundDuration":3000883,"Delta":25369066},{"NoteNumber":76,"Velocity":66,"Duration":2981275,"SoundDuration":2981275,"Delta":25388674},{"NoteNumber":36,"Velocity":44,"Duration":94044,"SoundDuration":94044,"Delta":25388674},{"NoteNumber":43,"Velocity":39,"Duration":109472,"SoundDuration":109472,"Delta":25482718},{"NoteNumber":48,"Velocity":46,"Duration":109229,"SoundDuration":109229,"Delta":25576566},{"NoteNumber":50,"Velocity":41,"Duration":108985,"SoundDuration":108985,"Delta":25670218},{"NoteNumber":52,"Velocity":49,"Duration":108695,"SoundDuration":108695,"Delta":25763676},{"NoteNumber":50,"Velocity":45,"Duration":108455,"SoundDuration":108455,"Delta":25856844},{"NoteNumber":48,"Velocity":45,"Duration":108215,"SoundDuration":108215,"Delta":25949820},{"NoteNumber":57,"Velocity":53,"Duration":107882,"SoundDuration":107882,"Delta":26042603},{"NoteNumber":55,"Velocity":53,"Duration":107739,"SoundDuration":107739,"Delta":26135101},{"NoteNumber":53,"Velocity":45,"Duration":108024,"SoundDuration":108024,"Delta":26227409},{"NoteNumber":52,"Velocity":40,"Duration":108263,"SoundDuration":108263,"Delta":26320001},{"NoteNumber":50,"Velocity":41,"Duration":108503,"SoundDuration":108503,"Delta":26412785},{"NoteNumber":48,"Velocity":49,"Duration":108744,"SoundDuration":108744,"Delta":26505760},{"NoteNumber":50,"Velocity":40,"Duration":109034,"SoundDuration":109034,"Delta":26598928},{"NoteNumber":52,"Velocity":44,"Duration":109277,"SoundDuration":109277,"Delta":26692386},{"NoteNumber":43,"Velocity":40,"Duration":109969,"SoundDuration":109969,"Delta":26786039},{"NoteNumber":36,"Velocity":50,"Duration":109375,"SoundDuration":109375,"Delta":26880383},{"NoteNumber":43,"Velocity":44,"Duration":109229,"SoundDuration":109229,"Delta":26974133},{"NoteNumber":48,"Velocity":45,"Duration":109034,"SoundDuration":109034,"Delta":27067785},{"NoteNumber":50,"Velocity":37,"Duration":108792,"SoundDuration":108792,"Delta":27161243},{"NoteNumber":52,"Velocity":45,"Duration":108551,"SoundDuration":108551,"Delta":27254508},{"NoteNumber":50,"Velocity":41,"Duration":108359,"SoundDuration":108359,"Delta":27347579},{"NoteNumber":48,"Velocity":40,"Duration":108120,"SoundDuration":108120,"Delta":27440459},{"NoteNumber":57,"Velocity":49,"Duration":107882,"SoundDuration":107882,"Delta":27533147},{"NoteNumber":55,"Velocity":48,"Duration":107692,"SoundDuration":107692,"Delta":27625644},{"NoteNumber":53,"Velocity":41,"Duration":107929,"SoundDuration":107929,"Delta":27717952},{"NoteNumber":52,"Velocity":37,"Duration":108167,"SoundDuration":108167,"Delta":27810450},{"NoteNumber":50,"Velocity":37,"Duration":108407,"SoundDuration":108407,"Delta":27903138},{"NoteNumber":48,"Velocity":44,"Duration":108695,"SoundDuration":108695,"Delta":27996017},{"NoteNumber":50,"Velocity":36,"Duration":108937,"SoundDuration":108937,"Delta":28089185},{"NoteNumber":52,"Velocity":40,"Duration":109180,"SoundDuration":109180,"Delta":28182546},{"NoteNumber":43,"Velocity":36,"Duration":109521,"SoundDuration":109521,"Delta":28276101},{"NoteNumber":64,"Velocity":58,"Duration":1493926,"SoundDuration":1493926,"Delta":28369949},{"NoteNumber":67,"Velocity":60,"Duration":1493926,"SoundDuration":1493926,"Delta":28369949},{"NoteNumber":72,"Velocity":75,"Duration":747388,"SoundDuration":747388,"Delta":28369949},{"NoteNumber":36,"Velocity":46,"Duration":94044,"SoundDuration":94044,"Delta":28369949},{"NoteNumber":43,"Velocity":40,"Duration":93847,"SoundDuration":93847,"Delta":28463993},{"NoteNumber":48,"Velocity":42,"Duration":93750,"SoundDuration":93750,"Delta":28557841},{"NoteNumber":50,"Velocity":34,"Duration":93457,"SoundDuration":93457,"Delta":28651591},{"NoteNumber":52,"Velocity":42,"Duration":93361,"SoundDuration":93361,"Delta":28745049},{"NoteNumber":50,"Velocity":39,"Duration":93167,"SoundDuration":93167,"Delta":28838410},{"NoteNumber":48,"Velocity":39,"Duration":92975,"SoundDuration":92975,"Delta":28931578},{"NoteNumber":57,"Velocity":48,"Duration":92783,"SoundDuration":92783,"Delta":29024554},{"NoteNumber":72,"Velocity":75,"Duration":652199,"SoundDuration":652199,"Delta":29117337},{"NoteNumber":55,"Velocity":48,"Duration":92307,"SoundDuration":92307,"Delta":29117337},{"NoteNumber":53,"Velocity":41,"Duration":92592,"SoundDuration":92592,"Delta":29209645},{"NoteNumber":52,"Velocity":37,"Duration":92879,"SoundDuration":92879,"Delta":29302238},{"NoteNumber":50,"Velocity":39,"Duration":93167,"SoundDuration":93167,"Delta":29395117},{"NoteNumber":48,"Velocity":46,"Duration":93457,"SoundDuration":93457,"Delta":29488285},{"NoteNumber":50,"Velocity":39,"Duration":93750,"SoundDuration":93750,"Delta":29581743},{"NoteNumber":52,"Velocity":42,"Duration":94044,"SoundDuration":94044,"Delta":29675493},{"NoteNumber":72,"Velocity":81,"Duration":94339,"SoundDuration":94339,"Delta":29769537},{"NoteNumber":43,"Velocity":39,"Duration":94339,"SoundDuration":94339,"Delta":29769537},{"NoteNumber":64,"Velocity":53,"Duration":1529411,"SoundDuration":1529411,"Delta":29863876},{"NoteNumber":67,"Velocity":60,"Duration":1529411,"SoundDuration":1529411,"Delta":29863876},{"NoteNumber":72,"Velocity":78,"Duration":1332364,"SoundDuration":1332364,"Delta":29863876},{"NoteNumber":36,"Velocity":50,"Duration":94637,"SoundDuration":94637,"Delta":29863876},{"NoteNumber":43,"Velocity":44,"Duration":94637,"SoundDuration":94637,"Delta":29958513},{"NoteNumber":48,"Velocity":48,"Duration":94936,"SoundDuration":94936,"Delta":30053151},{"NoteNumber":50,"Velocity":40,"Duration":94936,"SoundDuration":94936,"Delta":30148087},{"NoteNumber":52,"Velocity":50,"Duration":94637,"SoundDuration":94637,"Delta":30243024},{"NoteNumber":50,"Velocity":48,"Duration":94637,"SoundDuration":94637,"Delta":30337661},{"NoteNumber":48,"Velocity":49,"Duration":94339,"SoundDuration":94339,"Delta":30432299},{"NoteNumber":57,"Velocity":63,"Duration":94241,"SoundDuration":94241,"Delta":30526638},{"NoteNumber":55,"Velocity":63,"Duration":94340,"SoundDuration":94340,"Delta":30620879},{"NoteNumber":53,"Velocity":52,"Duration":94937,"SoundDuration":94937,"Delta":30715219},{"NoteNumber":52,"Velocity":46,"Duration":95542,"SoundDuration":95542,"Delta":30810157},{"NoteNumber":50,"Velocity":46,"Duration":96154,"SoundDuration":96154,"Delta":30905699},{"NoteNumber":48,"Velocity":55,"Duration":96878,"SoundDuration":96878,"Delta":31001853},{"NoteNumber":50,"Velocity":44,"Duration":97508,"SoundDuration":97508,"Delta":31098732},{"NoteNumber":52,"Velocity":48,"Duration":98146,"SoundDuration":98146,"Delta":31196240},{"NoteNumber":71,"Velocity":75,"Duration":98901,"SoundDuration":98901,"Delta":31294387},{"NoteNumber":43,"Velocity":42,"Duration":98901,"SoundDuration":98901,"Delta":31294387},{"NoteNumber":67,"Velocity":56,"Duration":3056454,"SoundDuration":3056454,"Delta":31393288},{"NoteNumber":64,"Velocity":53,"Duration":3056454,"SoundDuration":3056454,"Delta":31393288},{"NoteNumber":71,"Velocity":74,"Duration":1511576,"SoundDuration":1511576,"Delta":31393288},{"NoteNumber":36,"Velocity":56,"Duration":95541,"SoundDuration":95541,"Delta":31393288},{"NoteNumber":43,"Velocity":48,"Duration":95339,"SoundDuration":95339,"Delta":31488829},{"NoteNumber":48,"Velocity":50,"Duration":95037,"SoundDuration":95037,"Delta":31584169},{"NoteNumber":50,"Velocity":41,"Duration":94836,"SoundDuration":94836,"Delta":31679206},{"NoteNumber":52,"Velocity":49,"Duration":110261,"SoundDuration":110261,"Delta":31774043},{"NoteNumber":50,"Velocity":45,"Duration":110013,"SoundDuration":110013,"Delta":31868581},{"NoteNumber":48,"Velocity":45,"Duration":109668,"SoundDuration":109668,"Delta":31962920},{"NoteNumber":57,"Velocity":53,"Duration":109228,"SoundDuration":109228,"Delta":32056964},{"NoteNumber":55,"Velocity":53,"Duration":109082,"SoundDuration":109082,"Delta":32150617},{"NoteNumber":54,"Velocity":45,"Duration":109375,"SoundDuration":109375,"Delta":32244075},{"NoteNumber":52,"Velocity":40,"Duration":109619,"SoundDuration":109619,"Delta":32337825},{"NoteNumber":50,"Velocity":41,"Duration":109865,"SoundDuration":109865,"Delta":32431771},{"NoteNumber":48,"Velocity":49,"Duration":110112,"SoundDuration":110112,"Delta":32525913},{"NoteNumber":50,"Velocity":40,"Duration":110410,"SoundDuration":110410,"Delta":32620253},{"NoteNumber":52,"Velocity":44,"Duration":110659,"SoundDuration":110659,"Delta":32714890},{"NoteNumber":43,"Velocity":40,"Duration":111163,"SoundDuration":111163,"Delta":32809727},{"NoteNumber":69,"Velocity":72,"Duration":1441784,"SoundDuration":1441784,"Delta":32904865},{"NoteNumber":36,"Velocity":50,"Duration":96153,"SoundDuration":96153,"Delta":32904865},{"NoteNumber":43,"Velocity":44,"Duration":96051,"SoundDuration":96051,"Delta":33001018},{"NoteNumber":48,"Velocity":45,"Duration":95846,"SoundDuration":95846,"Delta":33097070},{"NoteNumber":50,"Velocity":37,"Duration":95643,"SoundDuration":95643,"Delta":33192917},{"NoteNumber":52,"Velocity":45,"Duration":111313,"SoundDuration":111313,"Delta":33288560},{"NoteNumber":50,"Velocity":41,"Duration":111111,"SoundDuration":111111,"Delta":33384000},{"NoteNumber":48,"Velocity":40,"Duration":110859,"SoundDuration":110859,"Delta":33479238},{"NoteNumber":57,"Velocity":49,"Duration":110609,"SoundDuration":110609,"Delta":33574275},{"NoteNumber":55,"Velocity":48,"Duration":110810,"SoundDuration":110810,"Delta":33669112},{"NoteNumber":54,"Velocity":41,"Duration":111516,"SoundDuration":111516,"Delta":33764050},{"NoteNumber":52,"Velocity":37,"Duration":112231,"SoundDuration":112231,"Delta":33859592},{"NoteNumber":50,"Velocity":37,"Duration":112956,"SoundDuration":112956,"Delta":33955746},{"NoteNumber":48,"Velocity":44,"Duration":113689,"SoundDuration":113689,"Delta":34052521},{"NoteNumber":50,"Velocity":36,"Duration":114433,"SoundDuration":114433,"Delta":34149924},{"NoteNumber":52,"Velocity":40,"Duration":115867,"SoundDuration":115867,"Delta":34247964},{"NoteNumber":71,"Velocity":70,"Duration":51546,"SoundDuration":51546,"Delta":34346649},{"NoteNumber":43,"Velocity":36,"Duration":118865,"SoundDuration":118865,"Delta":34346649},{"NoteNumber":57,"Velocity":46,"Duration":428612,"SoundDuration":428612,"Delta":34398196},{"NoteNumber":62,"Velocity":49,"Duration":1527681,"SoundDuration":1527681,"Delta":34423969},{"NoteNumber":67,"Velocity":68,"Duration":1501908,"SoundDuration":1501908,"Delta":34449742},{"NoteNumber":38,"Velocity":50,"Duration":94637,"SoundDuration":94637,"Delta":34449742},{"NoteNumber":45,"Velocity":44,"Duration":94438,"SoundDuration":94438,"Delta":34544379},{"NoteNumber":48,"Velocity":45,"Duration":94142,"SoundDuration":94142,"Delta":34638818},{"NoteNumber":50,"Velocity":37,"Duration":93847,"SoundDuration":93847,"Delta":34732960},{"NoteNumber":52,"Velocity":45,"Duration":93652,"SoundDuration":93652,"Delta":34826808},{"NoteNumber":50,"Velocity":41,"Duration":93361,"SoundDuration":93361,"Delta":34920461},{"NoteNumber":48,"Velocity":40,"Duration":93071,"SoundDuration":93071,"Delta":35013822},{"NoteNumber":59,"Velocity":49,"Duration":93071,"SoundDuration":93071,"Delta":35106894},{"NoteNumber":57,"Velocity":48,"Duration":108744,"SoundDuration":108744,"Delta":35199966},{"NoteNumber":55,"Velocity":41,"Duration":109034,"SoundDuration":109034,"Delta":35293133},{"NoteNumber":52,"Velocity":37,"Duration":109277,"SoundDuration":109277,"Delta":35386591},{"NoteNumber":50,"Velocity":37,"Duration":109521,"SoundDuration":109521,"Delta":35480244},{"NoteNumber":48,"Velocity":44,"Duration":109767,"SoundDuration":109767,"Delta":35574092},{"NoteNumber":50,"Velocity":36,"Duration":110062,"SoundDuration":110062,"Delta":35668136},{"NoteNumber":52,"Velocity":40,"Duration":110310,"SoundDuration":110310,"Delta":35762475},{"NoteNumber":45,"Velocity":36,"Duration":110410,"SoundDuration":110410,"Delta":35857013},{"NoteNumber":66,"Velocity":74,"Duration":1409119,"SoundDuration":1409119,"Delta":35951651},{"NoteNumber":60,"Velocity":49,"Duration":1515502,"SoundDuration":1515502,"Delta":35951651},{"NoteNumber":62,"Velocity":62,"Duration":1515502,"SoundDuration":1515502,"Delta":35951651},{"NoteNumber":38,"Velocity":50,"Duration":94538,"SoundDuration":94538,"Delta":35951651},{"NoteNumber":45,"Velocity":44,"Duration":94339,"SoundDuration":94339,"Delta":36046189},{"NoteNumber":50,"Velocity":45,"Duration":94043,"SoundDuration":94043,"Delta":36140528},{"NoteNumber":52,"Velocity":37,"Duration":93750,"SoundDuration":93750,"Delta":36234572},{"NoteNumber":54,"Velocity":45,"Duration":109131,"SoundDuration":109131,"Delta":36328322},{"NoteNumber":52,"Velocity":41,"Duration":108792,"SoundDuration":108792,"Delta":36421878},{"NoteNumber":50,"Velocity":40,"Duration":108551,"SoundDuration":108551,"Delta":36515142},{"NoteNumber":59,"Velocity":49,"Duration":108215,"SoundDuration":108215,"Delta":36608214},{"NoteNumber":57,"Velocity":48,"Duration":108167,"SoundDuration":108167,"Delta":36700997},{"NoteNumber":55,"Velocity":41,"Duration":108503,"SoundDuration":108503,"Delta":36793685},{"NoteNumber":54,"Velocity":37,"Duration":108840,"SoundDuration":108840,"Delta":36886661},{"NoteNumber":52,"Velocity":37,"Duration":109229,"SoundDuration":109229,"Delta":36979925},{"NoteNumber":50,"Velocity":44,"Duration":110363,"SoundDuration":110363,"Delta":37073481},{"NoteNumber":52,"Velocity":36,"Duration":112390,"SoundDuration":112390,"Delta":37167921},{"NoteNumber":54,"Velocity":40,"Duration":114423,"SoundDuration":114423,"Delta":37264077},{"NoteNumber":67,"Velocity":67,"Duration":106383,"SoundDuration":106383,"Delta":37360770},{"NoteNumber":45,"Velocity":36,"Duration":122155,"SoundDuration":122155,"Delta":37360770},{"NoteNumber":59,"Velocity":49,"Duration":486295,"SoundDuration":486295,"Delta":37467153},{"NoteNumber":62,"Velocity":52,"Duration":857960,"SoundDuration":857960,"Delta":37467153},{"NoteNumber":67,"Velocity":73,"Duration":1495390,"SoundDuration":1495390,"Delta":37467153},{"NoteNumber":43,"Velocity":50,"Duration":94637,"SoundDuration":94637,"Delta":37467153},{"NoteNumber":50,"Velocity":44,"Duration":94438,"SoundDuration":94438,"Delta":37561790},{"NoteNumber":55,"Velocity":45,"Duration":94142,"SoundDuration":94142,"Delta":37656229},{"NoteNumber":57,"Velocity":37,"Duration":93847,"SoundDuration":93847,"Delta":37750372},{"NoteNumber":59,"Velocity":45,"Duration":666508,"SoundDuration":666508,"Delta":37844220},{"NoteNumber":57,"Velocity":41,"Duration":108889,"SoundDuration":108889,"Delta":37937872},{"NoteNumber":55,"Velocity":40,"Duration":108551,"SoundDuration":108551,"Delta":38031234},{"NoteNumber":64,"Velocity":49,"Duration":108215,"SoundDuration":108215,"Delta":38124305},{"NoteNumber":62,"Velocity":48,"Duration":745454,"SoundDuration":745454,"Delta":38217089},{"NoteNumber":60,"Velocity":41,"Duration":108167,"SoundDuration":108167,"Delta":38309681},{"NoteNumber":59,"Velocity":37,"Duration":481951,"SoundDuration":481951,"Delta":38402369},{"NoteNumber":57,"Velocity":37,"Duration":108599,"SoundDuration":108599,"Delta":38495249},{"NoteNumber":55,"Velocity":44,"Duration":108840,"SoundDuration":108840,"Delta":38588320},{"NoteNumber":57,"Velocity":36,"Duration":109034,"SoundDuration":109034,"Delta":38681585},{"NoteNumber":59,"Velocity":40,"Duration":187500,"SoundDuration":187500,"Delta":38775043},{"NoteNumber":50,"Velocity":36,"Duration":109521,"SoundDuration":109521,"Delta":38868695},{"NoteNumber":43,"Velocity":50,"Duration":94240,"SoundDuration":94240,"Delta":38962543},{"NoteNumber":50,"Velocity":44,"Duration":94339,"SoundDuration":94339,"Delta":39056784},{"NoteNumber":55,"Velocity":45,"Duration":94043,"SoundDuration":94043,"Delta":39151124},{"NoteNumber":57,"Velocity":37,"Duration":93946,"SoundDuration":93946,"Delta":39245168},{"NoteNumber":59,"Velocity":45,"Duration":93750,"SoundDuration":93750,"Delta":39339114},{"NoteNumber":57,"Velocity":41,"Duration":93457,"SoundDuration":93457,"Delta":39432864},{"NoteNumber":55,"Velocity":40,"Duration":93361,"SoundDuration":93361,"Delta":39526322},{"NoteNumber":64,"Velocity":49,"Duration":93167,"SoundDuration":93167,"Delta":39619683},{"NoteNumber":62,"Velocity":48,"Duration":92879,"SoundDuration":92879,"Delta":39712851},{"NoteNumber":60,"Velocity":41,"Duration":92879,"SoundDuration":92879,"Delta":39805730},{"NoteNumber":59,"Velocity":37,"Duration":93167,"SoundDuration":93167,"Delta":39898609},{"NoteNumber":57,"Velocity":37,"Duration":93167,"SoundDuration":93167,"Delta":39991777},{"NoteNumber":55,"Velocity":44,"Duration":93457,"SoundDuration":93457,"Delta":40084945},{"NoteNumber":57,"Velocity":36,"Duration":93457,"SoundDuration":93457,"Delta":40178403},{"NoteNumber":59,"Velocity":40,"Duration":93750,"SoundDuration":93750,"Delta":40271861},{"NoteNumber":50,"Velocity":36,"Duration":93848,"SoundDuration":93848,"Delta":40365611},{"NoteNumber":59,"Velocity":46,"Duration":84639,"SoundDuration":84639,"Delta":40459459},{"NoteNumber":43,"Velocity":40,"Duration":84639,"SoundDuration":84639,"Delta":40459459},{"NoteNumber":62,"Velocity":40,"Duration":84571,"SoundDuration":84571,"Delta":40553503},{"NoteNumber":50,"Velocity":34,"Duration":84571,"SoundDuration":84571,"Delta":40553503},{"NoteNumber":67,"Velocity":41,"Duration":84375,"SoundDuration":84375,"Delta":40647449},{"NoteNumber":55,"Velocity":37,"Duration":84375,"SoundDuration":84375,"Delta":40647449},{"NoteNumber":69,"Velocity":34,"Duration":84112,"SoundDuration":84112,"Delta":40741199},{"NoteNumber":57,"Velocity":30,"Duration":84112,"SoundDuration":84112,"Delta":40741199},{"NoteNumber":71,"Velocity":41,"Duration":83947,"SoundDuration":83947,"Delta":40834657},{"NoteNumber":59,"Velocity":37,"Duration":83947,"SoundDuration":83947,"Delta":40834657},{"NoteNumber":69,"Velocity":39,"Duration":83783,"SoundDuration":83783,"Delta":40927921},{"NoteNumber":57,"Velocity":33,"Duration":83783,"SoundDuration":83783,"Delta":40927921},{"NoteNumber":67,"Velocity":39,"Duration":83591,"SoundDuration":83591,"Delta":41020993},{"NoteNumber":55,"Velocity":33,"Duration":83591,"SoundDuration":83591,"Delta":41020993},{"NoteNumber":76,"Velocity":46,"Duration":83333,"SoundDuration":83333,"Delta":41113872},{"NoteNumber":64,"Velocity":40,"Duration":83333,"SoundDuration":83333,"Delta":41113872},{"NoteNumber":74,"Velocity":46,"Duration":83171,"SoundDuration":83171,"Delta":41206465},{"NoteNumber":62,"Velocity":40,"Duration":83171,"SoundDuration":83171,"Delta":41206465},{"NoteNumber":72,"Velocity":40,"Duration":83143,"SoundDuration":83143,"Delta":41298867},{"NoteNumber":60,"Velocity":34,"Duration":83143,"SoundDuration":83143,"Delta":41298867},{"NoteNumber":71,"Velocity":36,"Duration":83400,"SoundDuration":83400,"Delta":41391270},{"NoteNumber":59,"Velocity":31,"Duration":83400,"SoundDuration":83400,"Delta":41391270},{"NoteNumber":69,"Velocity":37,"Duration":83658,"SoundDuration":83658,"Delta":41483958},{"NoteNumber":57,"Velocity":33,"Duration":83658,"SoundDuration":83658,"Delta":41483958},{"NoteNumber":67,"Velocity":42,"Duration":84015,"SoundDuration":84015,"Delta":41576934},{"NoteNumber":55,"Velocity":38,"Duration":84015,"SoundDuration":84015,"Delta":41576934},{"NoteNumber":69,"Velocity":36,"Duration":84277,"SoundDuration":84277,"Delta":41670295},{"NoteNumber":57,"Velocity":31,"Duration":84277,"SoundDuration":84277,"Delta":41670295},{"NoteNumber":71,"Velocity":40,"Duration":84541,"SoundDuration":84541,"Delta":41763948},{"NoteNumber":59,"Velocity":34,"Duration":84541,"SoundDuration":84541,"Delta":41763948},{"NoteNumber":62,"Velocity":36,"Duration":84807,"SoundDuration":84807,"Delta":41857894},{"NoteNumber":50,"Velocity":31,"Duration":84807,"SoundDuration":84807,"Delta":41857894},{"NoteNumber":59,"Velocity":46,"Duration":84639,"SoundDuration":84639,"Delta":41952135},{"NoteNumber":43,"Velocity":40,"Duration":84639,"SoundDuration":84639,"Delta":41952135},{"NoteNumber":62,"Velocity":40,"Duration":84473,"SoundDuration":84473,"Delta":42046179},{"NoteNumber":50,"Velocity":34,"Duration":84473,"SoundDuration":84473,"Delta":42046179},{"NoteNumber":67,"Velocity":41,"Duration":84306,"SoundDuration":84306,"Delta":42140027},{"NoteNumber":55,"Velocity":37,"Duration":84306,"SoundDuration":84306,"Delta":42140027},{"NoteNumber":69,"Velocity":34,"Duration":84112,"SoundDuration":84112,"Delta":42233679},{"NoteNumber":57,"Velocity":30,"Duration":84112,"SoundDuration":84112,"Delta":42233679},{"NoteNumber":71,"Velocity":41,"Duration":83850,"SoundDuration":83850,"Delta":42327137},{"NoteNumber":59,"Velocity":37,"Duration":83850,"SoundDuration":83850,"Delta":42327137},{"NoteNumber":69,"Velocity":39,"Duration":83687,"SoundDuration":83687,"Delta":42420305},{"NoteNumber":57,"Velocity":33,"Duration":83687,"SoundDuration":83687,"Delta":42420305},{"NoteNumber":67,"Velocity":39,"Duration":83524,"SoundDuration":83524,"Delta":42513280},{"NoteNumber":55,"Velocity":33,"Duration":83524,"SoundDuration":83524,"Delta":42513280},{"NoteNumber":76,"Velocity":46,"Duration":83400,"SoundDuration":83400,"Delta":42606064},{"NoteNumber":64,"Velocity":40,"Duration":83400,"SoundDuration":83400,"Delta":42606064},{"NoteNumber":74,"Velocity":46,"Duration":83591,"SoundDuration":83591,"Delta":42698752},{"NoteNumber":62,"Velocity":40,"Duration":83591,"SoundDuration":83591,"Delta":42698752},{"NoteNumber":72,"Velocity":40,"Duration":83754,"SoundDuration":83754,"Delta":42791631},{"NoteNumber":60,"Velocity":34,"Duration":83754,"SoundDuration":83754,"Delta":42791631},{"NoteNumber":71,"Velocity":36,"Duration":83850,"SoundDuration":83850,"Delta":42884703},{"NoteNumber":59,"Velocity":31,"Duration":83850,"SoundDuration":83850,"Delta":42884703},{"NoteNumber":69,"Velocity":37,"Duration":84112,"SoundDuration":84112,"Delta":42977871},{"NoteNumber":57,"Velocity":33,"Duration":84112,"SoundDuration":84112,"Delta":42977871},{"NoteNumber":67,"Velocity":42,"Duration":84180,"SoundDuration":84180,"Delta":43071329},{"NoteNumber":55,"Velocity":38,"Duration":84180,"SoundDuration":84180,"Delta":43071329},{"NoteNumber":69,"Velocity":36,"Duration":84375,"SoundDuration":84375,"Delta":43164884},{"NoteNumber":57,"Velocity":31,"Duration":84375,"SoundDuration":84375,"Delta":43164884},{"NoteNumber":71,"Velocity":40,"Duration":84541,"SoundDuration":84541,"Delta":43258634},{"NoteNumber":59,"Velocity":34,"Duration":84541,"SoundDuration":84541,"Delta":43258634},{"NoteNumber":62,"Velocity":36,"Duration":84639,"SoundDuration":84639,"Delta":43352580},{"NoteNumber":50,"Velocity":31,"Duration":84639,"SoundDuration":84639,"Delta":43352580},{"NoteNumber":59,"Velocity":46,"Duration":84639,"SoundDuration":84639,"Delta":43446624},{"NoteNumber":43,"Velocity":40,"Duration":84639,"SoundDuration":84639,"Delta":43446624},{"NoteNumber":62,"Velocity":40,"Duration":84375,"SoundDuration":84375,"Delta":43540668},{"NoteNumber":50,"Velocity":34,"Duration":84375,"SoundDuration":84375,"Delta":43540668},{"NoteNumber":67,"Velocity":41,"Duration":84209,"SoundDuration":84209,"Delta":43634418},{"NoteNumber":55,"Velocity":37,"Duration":84209,"SoundDuration":84209,"Delta":43634418},{"NoteNumber":69,"Velocity":34,"Duration":84044,"SoundDuration":84044,"Delta":43727973},{"NoteNumber":57,"Velocity":30,"Duration":84044,"SoundDuration":84044,"Delta":43727973},{"NoteNumber":67,"Velocity":41,"Duration":83783,"SoundDuration":83783,"Delta":43821335},{"NoteNumber":55,"Velocity":37,"Duration":83783,"SoundDuration":83783,"Delta":43821335},{"NoteNumber":69,"Velocity":39,"Duration":83591,"SoundDuration":83591,"Delta":43914406},{"NoteNumber":57,"Velocity":33,"Duration":83591,"SoundDuration":83591,"Delta":43914406},{"NoteNumber":71,"Velocity":39,"Duration":83333,"SoundDuration":83333,"Delta":44007285},{"NoteNumber":59,"Velocity":33,"Duration":83333,"SoundDuration":83333,"Delta":44007285},{"NoteNumber":62,"Velocity":46,"Duration":83171,"SoundDuration":83171,"Delta":44099878},{"NoteNumber":50,"Velocity":40,"Duration":83171,"SoundDuration":83171,"Delta":44099878},{"NoteNumber":59,"Velocity":46,"Duration":82916,"SoundDuration":82916,"Delta":44192281},{"NoteNumber":43,"Velocity":40,"Duration":82916,"SoundDuration":82916,"Delta":44192281},{"NoteNumber":62,"Velocity":40,"Duration":82888,"SoundDuration":82888,"Delta":44284400},{"NoteNumber":50,"Velocity":34,"Duration":82888,"SoundDuration":82888,"Delta":44284400},{"NoteNumber":67,"Velocity":36,"Duration":83076,"SoundDuration":83076,"Delta":44376518},{"NoteNumber":55,"Velocity":31,"Duration":83076,"SoundDuration":83076,"Delta":44376518},{"NoteNumber":69,"Velocity":37,"Duration":83333,"SoundDuration":83333,"Delta":44468826},{"NoteNumber":57,"Velocity":33,"Duration":83333,"SoundDuration":83333,"Delta":44468826},{"NoteNumber":67,"Velocity":42,"Duration":83495,"SoundDuration":83495,"Delta":44561419},{"NoteNumber":55,"Velocity":38,"Duration":83495,"SoundDuration":83495,"Delta":44561419},{"NoteNumber":69,"Velocity":36,"Duration":83658,"SoundDuration":83658,"Delta":44654202},{"NoteNumber":57,"Velocity":31,"Duration":83658,"SoundDuration":83658,"Delta":44654202},{"NoteNumber":71,"Velocity":40,"Duration":83850,"SoundDuration":83850,"Delta":44747178},{"NoteNumber":59,"Velocity":34,"Duration":83850,"SoundDuration":83850,"Delta":44747178},{"NoteNumber":62,"Velocity":36,"Duration":84112,"SoundDuration":84112,"Delta":44840346},{"NoteNumber":50,"Velocity":31,"Duration":84112,"SoundDuration":84112,"Delta":44840346},{"NoteNumber":59,"Velocity":46,"Duration":85173,"SoundDuration":85173,"Delta":44933804},{"NoteNumber":43,"Velocity":40,"Duration":85173,"SoundDuration":85173,"Delta":44933804},{"NoteNumber":62,"Velocity":40,"Duration":85004,"SoundDuration":85004,"Delta":45028441},{"NoteNumber":50,"Velocity":34,"Duration":85004,"SoundDuration":85004,"Delta":45028441},{"NoteNumber":67,"Velocity":41,"Duration":84738,"SoundDuration":84738,"Delta":45122880},{"NoteNumber":55,"Velocity":37,"Duration":84738,"SoundDuration":84738,"Delta":45122880},{"NoteNumber":69,"Velocity":34,"Duration":84571,"SoundDuration":84571,"Delta":45217022},{"NoteNumber":57,"Velocity":30,"Duration":84571,"SoundDuration":84571,"Delta":45217022},{"NoteNumber":67,"Velocity":41,"Duration":84306,"SoundDuration":84306,"Delta":45310968},{"NoteNumber":55,"Velocity":37,"Duration":84306,"SoundDuration":84306,"Delta":45310968},{"NoteNumber":69,"Velocity":38,"Duration":84112,"SoundDuration":84112,"Delta":45404621},{"NoteNumber":57,"Velocity":33,"Duration":84112,"SoundDuration":84112,"Delta":45404621},{"NoteNumber":71,"Velocity":37,"Duration":83850,"SoundDuration":83850,"Delta":45498079},{"NoteNumber":59,"Velocity":31,"Duration":83850,"SoundDuration":83850,"Delta":45498079},{"NoteNumber":74,"Velocity":42,"Duration":83591,"SoundDuration":83591,"Delta":45591246},{"NoteNumber":62,"Velocity":38,"Duration":83591,"SoundDuration":83591,"Delta":45591246},{"NoteNumber":79,"Velocity":42,"Duration":92688,"SoundDuration":92688,"Delta":45684126},{"NoteNumber":67,"Velocity":37,"Duration":92688,"SoundDuration":92688,"Delta":45684126},{"NoteNumber":81,"Velocity":38,"Duration":93458,"SoundDuration":93458,"Delta":45776814},{"NoteNumber":69,"Velocity":31,"Duration":93458,"SoundDuration":93458,"Delta":45776814},{"NoteNumber":83,"Velocity":40,"Duration":94340,"SoundDuration":94340,"Delta":45870272},{"NoteNumber":71,"Velocity":38,"Duration":94340,"SoundDuration":94340,"Delta":45870272},{"NoteNumber":86,"Velocity":34,"Duration":95238,"SoundDuration":95238,"Delta":45964613},{"NoteNumber":74,"Velocity":31,"Duration":95238,"SoundDuration":95238,"Delta":45964613},{"NoteNumber":91,"Velocity":39,"Duration":95949,"SoundDuration":95949,"Delta":46059851},{"NoteNumber":79,"Velocity":34,"Duration":95949,"SoundDuration":95949,"Delta":46059851},{"NoteNumber":93,"Velocity":38,"Duration":96774,"SoundDuration":96774,"Delta":46155800},{"NoteNumber":81,"Velocity":33,"Duration":96774,"SoundDuration":96774,"Delta":46155800},{"NoteNumber":95,"Velocity":37,"Duration":97720,"SoundDuration":97720,"Delta":46252575},{"NoteNumber":83,"Velocity":31,"Duration":97720,"SoundDuration":97720,"Delta":46252575},{"NoteNumber":98,"Velocity":37,"Duration":98685,"SoundDuration":98685,"Delta":46350296},{"NoteNumber":86,"Velocity":30,"Duration":98685,"SoundDuration":98685,"Delta":46350296},{"NoteNumber":95,"Velocity":50,"Duration":500000,"SoundDuration":500000,"Delta":46448981},{"NoteNumber":83,"Velocity":40,"Duration":500000,"SoundDuration":500000,"Delta":46448981},{"NoteNumber":43,"Velocity":31,"Duration":1216809,"SoundDuration":1216809,"Delta":47275515},{"NoteNumber":50,"Velocity":33,"Duration":1165272,"SoundDuration":1165272,"Delta":47327053},{"NoteNumber":55,"Velocity":36,"Duration":1114934,"SoundDuration":1114934,"Delta":47377391},{"NoteNumber":59,"Velocity":34,"Duration":1065589,"SoundDuration":1065589,"Delta":47426736},{"NoteNumber":62,"Velocity":37,"Duration":1017261,"SoundDuration":1017261,"Delta":47475063},{"NoteNumber":67,"Velocity":40,"Duration":969951,"SoundDuration":969951,"Delta":47522374},{"NoteNumber":71,"Velocity":44,"Duration":923076,"SoundDuration":923076,"Delta":47569249},{"NoteNumber":43,"Velocity":27,"Duration":2644603,"SoundDuration":2644603,"Delta":48492325},{"NoteNumber":50,"Velocity":30,"Duration":2587168,"SoundDuration":2587168,"Delta":48549760},{"NoteNumber":55,"Velocity":35,"Duration":2531820,"SoundDuration":2531820,"Delta":48605109},{"NoteNumber":59,"Velocity":33,"Duration":2478722,"SoundDuration":2478722,"Delta":48658206},{"NoteNumber":62,"Velocity":35,"Duration":2427650,"SoundDuration":2427650,"Delta":48709278},{"NoteNumber":67,"Velocity":37,"Duration":2378560,"SoundDuration":2378560,"Delta":48758369},{"NoteNumber":71,"Velocity":39,"Duration":2331124,"SoundDuration":2331124,"Delta":48805804}],"license":{"name":"Creative Commons Attribution-ShareAlike 3.0 Germany","url":"http://creativecommons.org/licenses/by-sa/3.0/de/deed.en","text":"The MIDI, audio (MP3, OGG) and video files of Bernd Krueger are licensed under the cc-by-sa Germany License. This means that you can use and adapt the files, as long as you attribute the copyright holder.\n\nName: Bernd Krueger\nSource: http://www.piano-midi.de\n\nThe distribution or public playback of the files is only allowed under identical license conditions.\n\nThe scores are open source.","attribution":"MIDI files by Bernd Krueger (piano-midi.de)","attributionUrl":"http://www.piano-midi.de"}}