{"title":"Etüde Nr. 12","artist":"Chopin","durationMs":138567,"midiSha256":"d9cf5806fdd5c60e94338740c605e6740a1d8125db7c28c4a13cc0539c83d1f9","midiObject":[{"NoteNumber":83,"Velocity":103,"Duration":787734,"SoundDuration":787734,"Delta":0},{"NoteNumber":79,"Velocity":94,"Duration":787734,"SoundDuration":787734,"Delta":0},{"NoteNumber":77,"Velocity":94,"Duration":787734,"SoundDuration":787734,"Delta":0},{"NoteNumber":74,"Velocity":94,"Duration":787734,"SoundDuration":787734,"Delta":0},{"NoteNumber":71,"Velocity":94,"Duration":787734,"SoundDuration":787734,"Delta":0},{"NoteNumber":68,"Velocity":73,"Duration":100203,"SoundDuration":100203,"Delta":237654},{"NoteNumber":67,"Velocity":73,"Duration":99011,"SoundDuration":99011,"Delta":333367},{"NoteNumber":65,"Velocity":79,"Duration":99209,"SoundDuration":99209,"Delta":420366},{"NoteNumber":62,"Velocity":72,"Duration":99477,"SoundDuration":99477,"Delta":515058},{"NoteNumber":63,"Velocity":72,"Duration":99697,"SoundDuration":99697,"Delta":603961},{"NoteNumber":62,"Velocity":71,"Duration":99954,"SoundDuration":99954,"Delta":693840},{"NoteNumber":59,"Velocity":79,"Duration":100161,"SoundDuration":100161,"Delta":783188},{"NoteNumber":55,"Velocity":72,"Duration":100433,"SoundDuration":100433,"Delta":878790},{"NoteNumber":56,"Velocity":72,"Duration":100647,"SoundDuration":100647,"Delta":970078},{"NoteNumber":55,"Velocity":70,"Duration":100917,"SoundDuration":100917,"Delta":1060786},{"NoteNumber":53,"Velocity":79,"Duration":101123,"SoundDuration":101123,"Delta":1147177},{"NoteNumber":50,"Velocity":71,"Duration":101406,"SoundDuration":101406,"Delta":1245234},{"NoteNumber":51,"Velocity":71,"Duration":101619,"SoundDuration":101619,"Delta":1335871},{"NoteNumber":50,"Velocity":68,"Duration":101880,"SoundDuration":101880,"Delta":1426688},{"NoteNumber":47,"Velocity":79,"Duration":102162,"SoundDuration":102162,"Delta":1517737},{"NoteNumber":43,"Velocity":71,"Duration":102167,"SoundDuration":102167,"Delta":1608289},{"NoteNumber":44,"Velocity":71,"Duration":102167,"SoundDuration":102167,"Delta":1701943},{"NoteNumber":43,"Velocity":69,"Duration":102167,"SoundDuration":102167,"Delta":1797144},{"NoteNumber":41,"Velocity":79,"Duration":102167,"SoundDuration":102167,"Delta":1887701},{"NoteNumber":38,"Velocity":71,"Duration":102167,"SoundDuration":102167,"Delta":1980580},{"NoteNumber":39,"Velocity":71,"Duration":102167,"SoundDuration":102167,"Delta":2080425},{"NoteNumber":38,"Velocity":68,"Duration":102439,"SoundDuration":102439,"Delta":2168661},{"NoteNumber":36,"Velocity":76,"Duration":126099,"SoundDuration":126099,"Delta":2259218},{"NoteNumber":31,"Velocity":69,"Duration":126198,"SoundDuration":126198,"Delta":2354167},{"NoteNumber":36,"Velocity":70,"Duration":126198,"SoundDuration":126198,"Delta":2450014},{"NoteNumber":31,"Velocity":68,"Duration":137815,"SoundDuration":137815,"Delta":2549056},{"NoteNumber":80,"Velocity":102,"Duration":381356,"SoundDuration":381356,"Delta":2647676},{"NoteNumber":75,"Velocity":93,"Duration":381356,"SoundDuration":381356,"Delta":2647676},{"NoteNumber":77,"Velocity":93,"Duration":381356,"SoundDuration":381356,"Delta":2647676},{"NoteNumber":68,"Velocity":93,"Duration":381356,"SoundDuration":381356,"Delta":2647676},{"NoteNumber":36,"Velocity":74,"Duration":167373,"SoundDuration":167373,"Delta":2647676},{"NoteNumber":31,"Velocity":71,"Duration":167373,"SoundDuration":167373,"Delta":2775854},{"NoteNumber":36,"Velocity":75,"Duration":186618,"SoundDuration":186618,"Delta":2902973},{"NoteNumber":67,"Velocity":87,"Duration":181062,"SoundDuration":181062,"Delta":3029032},{"NoteNumber":79,"Velocity":95,"Duration":181062,"SoundDuration":181062,"Delta":3029032},{"NoteNumber":31,"Velocity":74,"Duration":191727,"SoundDuration":191727,"Delta":3030585},{"NoteNumber":35,"Velocity":79,"Duration":112597,"SoundDuration":112597,"Delta":3206520},{"NoteNumber":86,"Velocity":106,"Duration":767469,"SoundDuration":767469,"Delta":3210095},{"NoteNumber":77,"Velocity":96,"Duration":767469,"SoundDuration":767469,"Delta":3210095},{"NoteNumber":79,"Velocity":96,"Duration":767469,"SoundDuration":767469,"Delta":3210095},{"NoteNumber":74,"Velocity":96,"Duration":767469,"SoundDuration":767469,"Delta":3210095},{"NoteNumber":68,"Velocity":71,"Duration":98802,"SoundDuration":98802,"Delta":3437156},{"NoteNumber":67,"Velocity":70,"Duration":99006,"SoundDuration":99006,"Delta":3524731},{"NoteNumber":65,"Velocity":79,"Duration":99212,"SoundDuration":99212,"Delta":3613978},{"NoteNumber":62,"Velocity":72,"Duration":99459,"SoundDuration":99459,"Delta":3701895},{"NoteNumber":63,"Velocity":72,"Duration":99697,"SoundDuration":99697,"Delta":3796822},{"NoteNumber":62,"Velocity":70,"Duration":99961,"SoundDuration":99961,"Delta":3888967},{"NoteNumber":59,"Velocity":79,"Duration":100172,"SoundDuration":100172,"Delta":3979837},{"NoteNumber":55,"Velocity":71,"Duration":100424,"SoundDuration":100424,"Delta":4068612},{"NoteNumber":56,"Velocity":71,"Duration":100633,"SoundDuration":100633,"Delta":4158365},{"NoteNumber":55,"Velocity":68,"Duration":100917,"SoundDuration":100917,"Delta":4254411},{"NoteNumber":53,"Velocity":79,"Duration":101137,"SoundDuration":101137,"Delta":4344625},{"NoteNumber":50,"Velocity":72,"Duration":101408,"SoundDuration":101408,"Delta":4438861},{"NoteNumber":51,"Velocity":72,"Duration":101626,"SoundDuration":101626,"Delta":4531039},{"NoteNumber":50,"Velocity":70,"Duration":101880,"SoundDuration":101880,"Delta":4619548},{"NoteNumber":47,"Velocity":79,"Duration":102157,"SoundDuration":102157,"Delta":4709054},{"NoteNumber":43,"Velocity":71,"Duration":102167,"SoundDuration":102167,"Delta":4805020},{"NoteNumber":44,"Velocity":71,"Duration":102167,"SoundDuration":102167,"Delta":4895577},{"NoteNumber":43,"Velocity":70,"Duration":102167,"SoundDuration":102167,"Delta":4993875},{"NoteNumber":41,"Velocity":79,"Duration":102167,"SoundDuration":102167,"Delta":5081336},{"NoteNumber":38,"Velocity":71,"Duration":102654,"SoundDuration":102654,"Delta":5178859},{"NoteNumber":39,"Velocity":71,"Duration":106451,"SoundDuration":106451,"Delta":5272642},{"NoteNumber":38,"Velocity":69,"Duration":106451,"SoundDuration":106451,"Delta":5370223},{"NoteNumber":36,"Velocity":79,"Duration":127419,"SoundDuration":127419,"Delta":5466997},{"NoteNumber":31,"Velocity":72,"Duration":127419,"SoundDuration":127419,"Delta":5560546},{"NoteNumber":36,"Velocity":73,"Duration":127419,"SoundDuration":127419,"Delta":5655707},{"NoteNumber":31,"Velocity":73,"Duration":137010,"SoundDuration":137010,"Delta":5750868},{"NoteNumber":36,"Velocity":76,"Duration":167669,"SoundDuration":167669,"Delta":5848932},{"NoteNumber":80,"Velocity":101,"Duration":382978,"SoundDuration":382978,"Delta":5850645},{"NoteNumber":75,"Velocity":92,"Duration":382978,"SoundDuration":382978,"Delta":5850645},{"NoteNumber":77,"Velocity":92,"Duration":382978,"SoundDuration":382978,"Delta":5850645},{"NoteNumber":68,"Velocity":92,"Duration":382978,"SoundDuration":382978,"Delta":5850645},{"NoteNumber":31,"Velocity":76,"Duration":168085,"SoundDuration":168085,"Delta":5982559},{"NoteNumber":36,"Velocity":79,"Duration":182677,"SoundDuration":182677,"Delta":6100644},{"NoteNumber":31,"Velocity":76,"Duration":182769,"SoundDuration":182769,"Delta":6232559},{"NoteNumber":67,"Velocity":88,"Duration":172288,"SoundDuration":172288,"Delta":6233623},{"NoteNumber":79,"Velocity":95,"Duration":172288,"SoundDuration":172288,"Delta":6233623},{"NoteNumber":35,"Velocity":79,"Duration":103223,"SoundDuration":103223,"Delta":6401996},{"NoteNumber":77,"Velocity":96,"Duration":205465,"SoundDuration":205465,"Delta":6405911},{"NoteNumber":89,"Velocity":106,"Duration":205465,"SoundDuration":205465,"Delta":6405911},{"NoteNumber":79,"Velocity":96,"Duration":205465,"SoundDuration":205465,"Delta":6405911},{"NoteNumber":86,"Velocity":96,"Duration":205465,"SoundDuration":205465,"Delta":6405911},{"NoteNumber":92,"Velocity":87,"Duration":98802,"SoundDuration":98802,"Delta":6612874},{"NoteNumber":80,"Velocity":79,"Duration":98802,"SoundDuration":98802,"Delta":6612874},{"NoteNumber":91,"Velocity":80,"Duration":99042,"SoundDuration":99042,"Delta":6697455},{"NoteNumber":79,"Velocity":71,"Duration":99060,"SoundDuration":99060,"Delta":6703443},{"NoteNumber":89,"Velocity":87,"Duration":99295,"SoundDuration":99295,"Delta":6787488},{"NoteNumber":77,"Velocity":79,"Duration":99311,"SoundDuration":99311,"Delta":6792744},{"NoteNumber":74,"Velocity":71,"Duration":99561,"SoundDuration":99561,"Delta":6881513},{"NoteNumber":86,"Velocity":77,"Duration":99572,"SoundDuration":99572,"Delta":6885278},{"NoteNumber":75,"Velocity":71,"Duration":99807,"SoundDuration":99807,"Delta":6968990},{"NoteNumber":87,"Velocity":77,"Duration":99812,"SoundDuration":99812,"Delta":6970501},{"NoteNumber":86,"Velocity":76,"Duration":100069,"SoundDuration":100069,"Delta":7061222},{"NoteNumber":74,"Velocity":70,"Duration":100071,"SoundDuration":100071,"Delta":7061980},{"NoteNumber":83,"Velocity":87,"Duration":100334,"SoundDuration":100334,"Delta":7154452},{"NoteNumber":71,"Velocity":79,"Duration":100341,"SoundDuration":100341,"Delta":7156732},{"NoteNumber":67,"Velocity":70,"Duration":100598,"SoundDuration":100598,"Delta":7241078},{"NoteNumber":79,"Velocity":77,"Duration":100609,"SoundDuration":100609,"Delta":7246402},{"NoteNumber":68,"Velocity":70,"Duration":100870,"SoundDuration":100870,"Delta":7336341},{"NoteNumber":80,"Velocity":77,"Duration":100880,"SoundDuration":100880,"Delta":7339390},{"NoteNumber":79,"Velocity":76,"Duration":101137,"SoundDuration":101137,"Delta":7429567},{"NoteNumber":67,"Velocity":69,"Duration":101137,"SoundDuration":101137,"Delta":7429567},{"NoteNumber":65,"Velocity":79,"Duration":101394,"SoundDuration":101394,"Delta":7519201},{"NoteNumber":77,"Velocity":87,"Duration":101396,"SoundDuration":101396,"Delta":7519968},{"NoteNumber":62,"Velocity":71,"Duration":101652,"SoundDuration":101652,"Delta":7609058},{"NoteNumber":74,"Velocity":77,"Duration":101654,"SoundDuration":101654,"Delta":7609827},{"NoteNumber":75,"Velocity":77,"Duration":101935,"SoundDuration":101935,"Delta":7706852},{"NoteNumber":63,"Velocity":71,"Duration":101940,"SoundDuration":101940,"Delta":7708395},{"NoteNumber":74,"Velocity":76,"Duration":102196,"SoundDuration":102196,"Delta":7797177},{"NoteNumber":62,"Velocity":69,"Duration":102208,"SoundDuration":102208,"Delta":7801047},{"NoteNumber":71,"Velocity":87,"Duration":102484,"SoundDuration":102484,"Delta":7890057},{"NoteNumber":59,"Velocity":79,"Duration":102484,"SoundDuration":102484,"Delta":7890833},{"NoteNumber":55,"Velocity":71,"Duration":102484,"SoundDuration":102484,"Delta":7981672},{"NoteNumber":67,"Velocity":77,"Duration":102484,"SoundDuration":102484,"Delta":7987106},{"NoteNumber":56,"Velocity":71,"Duration":102484,"SoundDuration":102484,"Delta":8076392},{"NoteNumber":68,"Velocity":77,"Duration":102484,"SoundDuration":102484,"Delta":8078721},{"NoteNumber":67,"Velocity":76,"Duration":102484,"SoundDuration":102484,"Delta":8166454},{"NoteNumber":55,"Velocity":69,"Duration":102484,"SoundDuration":102484,"Delta":8168783},{"NoteNumber":65,"Velocity":87,"Duration":102484,"SoundDuration":102484,"Delta":8263504},{"NoteNumber":53,"Velocity":79,"Duration":102484,"SoundDuration":102484,"Delta":8265833},{"NoteNumber":50,"Velocity":71,"Duration":102484,"SoundDuration":102484,"Delta":8354343},{"NoteNumber":62,"Velocity":77,"Duration":102484,"SoundDuration":102484,"Delta":8355119},{"NoteNumber":51,"Velocity":71,"Duration":102484,"SoundDuration":102484,"Delta":8449063},{"NoteNumber":63,"Velocity":77,"Duration":102484,"SoundDuration":102484,"Delta":8451392},{"NoteNumber":50,"Velocity":69,"Duration":102484,"SoundDuration":102484,"Delta":8539902},{"NoteNumber":62,"Velocity":76,"Duration":102484,"SoundDuration":102484,"Delta":8543007},{"NoteNumber":59,"Velocity":87,"Duration":102484,"SoundDuration":102484,"Delta":8636175},{"NoteNumber":47,"Velocity":79,"Duration":102484,"SoundDuration":102484,"Delta":8639281},{"NoteNumber":55,"Velocity":77,"Duration":102484,"SoundDuration":102484,"Delta":8727014},{"NoteNumber":43,"Velocity":71,"Duration":102484,"SoundDuration":102484,"Delta":8727014},{"NoteNumber":56,"Velocity":77,"Duration":102484,"SoundDuration":102484,"Delta":8818629},{"NoteNumber":44,"Velocity":71,"Duration":102484,"SoundDuration":102484,"Delta":8824063},{"NoteNumber":55,"Velocity":76,"Duration":102484,"SoundDuration":102484,"Delta":8912573},{"NoteNumber":43,"Velocity":69,"Duration":102484,"SoundDuration":102484,"Delta":8915678},{"NoteNumber":41,"Velocity":79,"Duration":102484,"SoundDuration":102484,"Delta":9005740},{"NoteNumber":53,"Velocity":87,"Duration":102484,"SoundDuration":102484,"Delta":9007293},{"NoteNumber":50,"Velocity":77,"Duration":102484,"SoundDuration":102484,"Delta":9103567},{"NoteNumber":38,"Velocity":71,"Duration":102484,"SoundDuration":102484,"Delta":9103567},{"NoteNumber":51,"Velocity":77,"Duration":102484,"SoundDuration":102484,"Delta":9194405},{"NoteNumber":39,"Velocity":71,"Duration":102484,"SoundDuration":102484,"Delta":9197511},{"NoteNumber":38,"Velocity":70,"Duration":102484,"SoundDuration":102484,"Delta":9286796},{"NoteNumber":50,"Velocity":76,"Duration":102484,"SoundDuration":102484,"Delta":9291455},{"NoteNumber":36,"Velocity":62,"Duration":93167,"SoundDuration":93167,"Delta":9380741},{"NoteNumber":48,"Velocity":69,"Duration":93167,"SoundDuration":93167,"Delta":9383070},{"NoteNumber":47,"Velocity":69,"Duration":93167,"SoundDuration":93167,"Delta":9472356},{"NoteNumber":35,"Velocity":62,"Duration":93056,"SoundDuration":93056,"Delta":9477014},{"NoteNumber":43,"Velocity":67,"Duration":90038,"SoundDuration":90038,"Delta":9563194},{"NoteNumber":55,"Velocity":73,"Duration":90012,"SoundDuration":90012,"Delta":9563971},{"NoteNumber":53,"Velocity":72,"Duration":99434,"SoundDuration":99434,"Delta":9658488},{"NoteNumber":41,"Velocity":66,"Duration":99447,"SoundDuration":99447,"Delta":9660740},{"NoteNumber":51,"Velocity":71,"Duration":99936,"SoundDuration":99936,"Delta":9747348},{"NoteNumber":39,"Velocity":65,"Duration":99940,"SoundDuration":99940,"Delta":9748103},{"NoteNumber":50,"Velocity":70,"Duration":100447,"SoundDuration":100447,"Delta":9834378},{"NoteNumber":38,"Velocity":65,"Duration":100447,"SoundDuration":100447,"Delta":9834378},{"NoteNumber":39,"Velocity":64,"Duration":100992,"SoundDuration":100992,"Delta":9929490},{"NoteNumber":51,"Velocity":69,"Duration":101002,"SoundDuration":101002,"Delta":9931014},{"NoteNumber":38,"Velocity":63,"Duration":101962,"SoundDuration":101962,"Delta":10018980},{"NoteNumber":50,"Velocity":69,"Duration":102129,"SoundDuration":102129,"Delta":10021280},{"NoteNumber":48,"Velocity":69,"Duration":108349,"SoundDuration":108349,"Delta":10110455},{"NoteNumber":36,"Velocity":63,"Duration":108552,"SoundDuration":108552,"Delta":10116831},{"NoteNumber":35,"Velocity":62,"Duration":98614,"SoundDuration":98614,"Delta":10213048},{"NoteNumber":47,"Velocity":68,"Duration":98337,"SoundDuration":98337,"Delta":10216337},{"NoteNumber":58,"Velocity":76,"Duration":99784,"SoundDuration":99784,"Delta":10307620},{"NoteNumber":46,"Velocity":70,"Duration":99520,"SoundDuration":99520,"Delta":10312416},{"NoteNumber":44,"Velocity":68,"Duration":99922,"SoundDuration":99922,"Delta":10399096},{"NoteNumber":56,"Velocity":74,"Duration":99954,"SoundDuration":99954,"Delta":10404383},{"NoteNumber":55,"Velocity":76,"Duration":100429,"SoundDuration":100429,"Delta":10493699},{"NoteNumber":43,"Velocity":69,"Duration":100433,"SoundDuration":100433,"Delta":10495219},{"NoteNumber":41,"Velocity":69,"Duration":100833,"SoundDuration":100833,"Delta":10580409},{"NoteNumber":53,"Velocity":74,"Duration":100842,"SoundDuration":100842,"Delta":10581933},{"NoteNumber":43,"Velocity":68,"Duration":101330,"SoundDuration":101330,"Delta":10672049},{"NoteNumber":55,"Velocity":74,"Duration":101344,"SoundDuration":101344,"Delta":10674343},{"NoteNumber":53,"Velocity":73,"Duration":102110,"SoundDuration":102110,"Delta":10763380},{"NoteNumber":41,"Velocity":68,"Duration":102492,"SoundDuration":102492,"Delta":10769534},{"NoteNumber":39,"Velocity":67,"Duration":107757,"SoundDuration":107757,"Delta":10858224},{"NoteNumber":51,"Velocity":73,"Duration":107843,"SoundDuration":107843,"Delta":10863857},{"NoteNumber":50,"Velocity":73,"Duration":97977,"SoundDuration":97977,"Delta":10959445},{"NoteNumber":38,"Velocity":67,"Duration":97885,"SoundDuration":97885,"Delta":10961896},{"NoteNumber":63,"Velocity":82,"Duration":104015,"SoundDuration":104015,"Delta":11052582},{"NoteNumber":51,"Velocity":76,"Duration":103959,"SoundDuration":103959,"Delta":11054216},{"NoteNumber":50,"Velocity":73,"Duration":104350,"SoundDuration":104350,"Delta":11148712},{"NoteNumber":62,"Velocity":83,"Duration":104380,"SoundDuration":104380,"Delta":11153444},{"NoteNumber":48,"Velocity":74,"Duration":104994,"SoundDuration":104994,"Delta":11241961},{"NoteNumber":60,"Velocity":84,"Duration":105045,"SoundDuration":105045,"Delta":11248301},{"NoteNumber":59,"Velocity":85,"Duration":105600,"SoundDuration":105600,"Delta":11341365},{"NoteNumber":47,"Velocity":75,"Duration":105610,"SoundDuration":105610,"Delta":11342963},{"NoteNumber":60,"Velocity":85,"Duration":106228,"SoundDuration":106228,"Delta":11434112},{"NoteNumber":48,"Velocity":76,"Duration":106254,"SoundDuration":106254,"Delta":11439731},{"NoteNumber":59,"Velocity":87,"Duration":106702,"SoundDuration":106702,"Delta":11529856},{"NoteNumber":47,"Velocity":77,"Duration":106733,"SoundDuration":106733,"Delta":11534695},{"NoteNumber":44,"Velocity":79,"Duration":107706,"SoundDuration":107706,"Delta":11630877},{"NoteNumber":56,"Velocity":88,"Duration":107727,"SoundDuration":107727,"Delta":11632500},{"NoteNumber":55,"Velocity":89,"Duration":109284,"SoundDuration":109284,"Delta":11727893},{"NoteNumber":43,"Velocity":80,"Duration":109317,"SoundDuration":109317,"Delta":11730360},{"NoteNumber":56,"Velocity":90,"Duration":110842,"SoundDuration":110842,"Delta":11823844},{"NoteNumber":44,"Velocity":81,"Duration":110856,"SoundDuration":110856,"Delta":11824678},{"NoteNumber":43,"Velocity":83,"Duration":112584,"SoundDuration":112584,"Delta":11924529},{"NoteNumber":55,"Velocity":89,"Duration":112642,"SoundDuration":112642,"Delta":11927907},{"NoteNumber":41,"Velocity":83,"Duration":114282,"SoundDuration":114282,"Delta":12025945},{"NoteNumber":53,"Velocity":92,"Duration":114402,"SoundDuration":114402,"Delta":12032817},{"NoteNumber":39,"Velocity":85,"Duration":116293,"SoundDuration":116293,"Delta":12129753},{"NoteNumber":51,"Velocity":94,"Duration":116445,"SoundDuration":116445,"Delta":12133237},{"NoteNumber":53,"Velocity":97,"Duration":119954,"SoundDuration":119954,"Delta":12237910},{"NoteNumber":41,"Velocity":88,"Duration":120000,"SoundDuration":120000,"Delta":12242410},{"NoteNumber":51,"Velocity":102,"Duration":124513,"SoundDuration":124513,"Delta":12349683},{"NoteNumber":39,"Velocity":90,"Duration":125555,"SoundDuration":125555,"Delta":12352410},{"NoteNumber":36,"Velocity":92,"Duration":149364,"SoundDuration":149364,"Delta":12454228},{"NoteNumber":48,"Velocity":104,"Duration":249382,"SoundDuration":249382,"Delta":12455137},{"NoteNumber":43,"Velocity":49,"Duration":108161,"SoundDuration":108161,"Delta":12609438},{"NoteNumber":48,"Velocity":50,"Duration":107731,"SoundDuration":107731,"Delta":12702881},{"NoteNumber":50,"Velocity":52,"Duration":107238,"SoundDuration":107238,"Delta":12801655},{"NoteNumber":51,"Velocity":54,"Duration":106665,"SoundDuration":106665,"Delta":12901608},{"NoteNumber":55,"Velocity":55,"Duration":106166,"SoundDuration":106166,"Delta":13001823},{"NoteNumber":60,"Velocity":57,"Duration":105769,"SoundDuration":105769,"Delta":13097573},{"NoteNumber":62,"Velocity":59,"Duration":105769,"SoundDuration":105769,"Delta":13192124},{"NoteNumber":63,"Velocity":60,"Duration":105769,"SoundDuration":105769,"Delta":13284271},{"NoteNumber":62,"Velocity":59,"Duration":105769,"SoundDuration":105769,"Delta":13383630},{"NoteNumber":60,"Velocity":57,"Duration":105769,"SoundDuration":105769,"Delta":13478181},{"NoteNumber":55,"Velocity":57,"Duration":105769,"SoundDuration":105769,"Delta":13578341},{"NoteNumber":51,"Velocity":57,"Duration":105769,"SoundDuration":105769,"Delta":13671290},{"NoteNumber":50,"Velocity":56,"Duration":105769,"SoundDuration":105769,"Delta":13768245},{"NoteNumber":48,"Velocity":55,"Duration":105769,"SoundDuration":105769,"Delta":13862796},{"NoteNumber":43,"Velocity":54,"Duration":106059,"SoundDuration":106059,"Delta":13962155},{"NoteNumber":36,"Velocity":56,"Duration":108717,"SoundDuration":108717,"Delta":14057508},{"NoteNumber":43,"Velocity":59,"Duration":108717,"SoundDuration":108717,"Delta":14157165},{"NoteNumber":48,"Velocity":62,"Duration":108717,"SoundDuration":108717,"Delta":14251881},{"NoteNumber":50,"Velocity":63,"Duration":108717,"SoundDuration":108717,"Delta":14354009},{"NoteNumber":51,"Velocity":68,"Duration":108717,"SoundDuration":108717,"Delta":14456961},{"NoteNumber":50,"Velocity":66,"Duration":108717,"SoundDuration":108717,"Delta":14553323},{"NoteNumber":48,"Velocity":63,"Duration":108717,"SoundDuration":108717,"Delta":14654628},{"NoteNumber":43,"Velocity":59,"Duration":98833,"SoundDuration":98833,"Delta":14746873},{"NoteNumber":36,"Velocity":56,"Duration":108717,"SoundDuration":108717,"Delta":14846530},{"NoteNumber":43,"Velocity":59,"Duration":109584,"SoundDuration":109584,"Delta":14943717},{"NoteNumber":48,"Velocity":63,"Duration":124794,"SoundDuration":124794,"Delta":15050505},{"NoteNumber":84,"Velocity":95,"Duration":132514,"SoundDuration":132514,"Delta":15157882},{"NoteNumber":72,"Velocity":87,"Duration":132514,"SoundDuration":132514,"Delta":15157882},{"NoteNumber":50,"Velocity":65,"Duration":134589,"SoundDuration":134589,"Delta":15157882},{"NoteNumber":74,"Velocity":93,"Duration":383384,"SoundDuration":383384,"Delta":15280023},{"NoteNumber":86,"Velocity":102,"Duration":383384,"SoundDuration":383384,"Delta":15280023},{"NoteNumber":51,"Velocity":67,"Duration":136929,"SoundDuration":136929,"Delta":15285209},{"NoteNumber":50,"Velocity":65,"Duration":136929,"SoundDuration":136929,"Delta":15400355},{"NoteNumber":48,"Velocity":63,"Duration":136763,"SoundDuration":136763,"Delta":15530023},{"NoteNumber":43,"Velocity":61,"Duration":134648,"SoundDuration":134648,"Delta":15648129},{"NoteNumber":75,"Velocity":97,"Duration":135135,"SoundDuration":135135,"Delta":15652146},{"NoteNumber":87,"Velocity":107,"Duration":135135,"SoundDuration":135135,"Delta":15652146},{"NoteNumber":36,"Velocity":59,"Duration":111364,"SoundDuration":111364,"Delta":15786155},{"NoteNumber":75,"Velocity":104,"Duration":796532,"SoundDuration":796532,"Delta":15787282},{"NoteNumber":87,"Velocity":114,"Duration":796532,"SoundDuration":796532,"Delta":15787282},{"NoteNumber":43,"Velocity":46,"Duration":110578,"SoundDuration":110578,"Delta":15892486},{"NoteNumber":48,"Velocity":47,"Duration":110236,"SoundDuration":110236,"Delta":15984670},{"NoteNumber":50,"Velocity":49,"Duration":109690,"SoundDuration":109690,"Delta":16092407},{"NoteNumber":51,"Velocity":51,"Duration":109249,"SoundDuration":109249,"Delta":16187191},{"NoteNumber":55,"Velocity":52,"Duration":108786,"SoundDuration":108786,"Delta":16285706},{"NoteNumber":60,"Velocity":54,"Duration":108404,"SoundDuration":108404,"Delta":16389558},{"NoteNumber":62,"Velocity":55,"Duration":107923,"SoundDuration":107923,"Delta":16484848},{"NoteNumber":63,"Velocity":57,"Duration":107499,"SoundDuration":107499,"Delta":16581363},{"NoteNumber":62,"Velocity":55,"Duration":107491,"SoundDuration":107491,"Delta":16682348},{"NoteNumber":60,"Velocity":54,"Duration":109551,"SoundDuration":109551,"Delta":16780068},{"NoteNumber":55,"Velocity":52,"Duration":129399,"SoundDuration":129399,"Delta":16876159},{"NoteNumber":72,"Velocity":47,"Duration":116731,"SoundDuration":116731,"Delta":16876973},{"NoteNumber":67,"Velocity":47,"Duration":116731,"SoundDuration":116731,"Delta":16876973},{"NoteNumber":75,"Velocity":47,"Duration":116731,"SoundDuration":116731,"Delta":16876973},{"NoteNumber":79,"Velocity":47,"Duration":116731,"SoundDuration":116731,"Delta":16876973},{"NoteNumber":67,"Velocity":47,"Duration":387930,"SoundDuration":387930,"Delta":16993705},{"NoteNumber":72,"Velocity":47,"Duration":387930,"SoundDuration":387930,"Delta":16993705},{"NoteNumber":75,"Velocity":47,"Duration":387930,"SoundDuration":387930,"Delta":16993705},{"NoteNumber":79,"Velocity":47,"Duration":387930,"SoundDuration":387930,"Delta":16993705},{"NoteNumber":51,"Velocity":50,"Duration":142241,"SoundDuration":142241,"Delta":16993705},{"NoteNumber":50,"Velocity":49,"Duration":142241,"SoundDuration":142241,"Delta":17124093},{"NoteNumber":48,"Velocity":47,"Duration":143933,"SoundDuration":143933,"Delta":17253403},{"NoteNumber":67,"Velocity":54,"Duration":134699,"SoundDuration":134699,"Delta":17381636},{"NoteNumber":72,"Velocity":54,"Duration":134699,"SoundDuration":134699,"Delta":17381636},{"NoteNumber":75,"Velocity":54,"Duration":134699,"SoundDuration":134699,"Delta":17381636},{"NoteNumber":79,"Velocity":54,"Duration":134699,"SoundDuration":134699,"Delta":17381636},{"NoteNumber":43,"Velocity":43,"Duration":133426,"SoundDuration":133426,"Delta":17386466},{"NoteNumber":80,"Velocity":55,"Duration":854092,"SoundDuration":854092,"Delta":17516335},{"NoteNumber":72,"Velocity":55,"Duration":854092,"SoundDuration":854092,"Delta":17516335},{"NoteNumber":75,"Velocity":55,"Duration":854092,"SoundDuration":854092,"Delta":17516335},{"NoteNumber":68,"Velocity":55,"Duration":854092,"SoundDuration":854092,"Delta":17516335},{"NoteNumber":36,"Velocity":33,"Duration":117437,"SoundDuration":117437,"Delta":17519893},{"NoteNumber":43,"Velocity":36,"Duration":117437,"SoundDuration":117437,"Delta":17623986},{"NoteNumber":48,"Velocity":39,"Duration":117437,"SoundDuration":117437,"Delta":17731637},{"NoteNumber":50,"Velocity":40,"Duration":117437,"SoundDuration":117437,"Delta":17837509},{"NoteNumber":51,"Velocity":45,"Duration":117437,"SoundDuration":117437,"Delta":17942491},{"NoteNumber":50,"Velocity":46,"Duration":117437,"SoundDuration":117437,"Delta":18047473},{"NoteNumber":48,"Velocity":45,"Duration":117437,"SoundDuration":117437,"Delta":18159573},{"NoteNumber":43,"Velocity":43,"Duration":106761,"SoundDuration":106761,"Delta":18264555},{"NoteNumber":67,"Velocity":47,"Duration":213522,"SoundDuration":213522,"Delta":18370427},{"NoteNumber":72,"Velocity":47,"Duration":213522,"SoundDuration":213522,"Delta":18370427},{"NoteNumber":75,"Velocity":47,"Duration":213522,"SoundDuration":213522,"Delta":18370427},{"NoteNumber":79,"Velocity":47,"Duration":213522,"SoundDuration":213522,"Delta":18370427},{"NoteNumber":36,"Velocity":40,"Duration":117437,"SoundDuration":117437,"Delta":18373985},{"NoteNumber":43,"Velocity":45,"Duration":117673,"SoundDuration":117673,"Delta":18474519},{"NoteNumber":48,"Velocity":50,"Duration":121503,"SoundDuration":121503,"Delta":18581281},{"NoteNumber":84,"Velocity":95,"Duration":129420,"SoundDuration":129420,"Delta":18693856},{"NoteNumber":72,"Velocity":87,"Duration":129420,"SoundDuration":129420,"Delta":18693856},{"NoteNumber":50,"Velocity":54,"Duration":131540,"SoundDuration":131540,"Delta":18694848},{"NoteNumber":74,"Velocity":92,"Duration":384456,"SoundDuration":384456,"Delta":18812903},{"NoteNumber":86,"Velocity":101,"Duration":384456,"SoundDuration":384456,"Delta":18812903},{"NoteNumber":51,"Velocity":59,"Duration":136929,"SoundDuration":136929,"Delta":18814978},{"NoteNumber":50,"Velocity":57,"Duration":136929,"SoundDuration":136929,"Delta":18938422},{"NoteNumber":48,"Velocity":57,"Duration":137569,"SoundDuration":137569,"Delta":19059791},{"NoteNumber":75,"Velocity":97,"Duration":132158,"SoundDuration":132158,"Delta":19186347},{"NoteNumber":87,"Velocity":107,"Duration":132158,"SoundDuration":132158,"Delta":19186347},{"NoteNumber":43,"Velocity":55,"Duration":132158,"SoundDuration":132158,"Delta":19186347},{"NoteNumber":36,"Velocity":53,"Duration":112750,"SoundDuration":112750,"Delta":19312999},{"NoteNumber":75,"Velocity":103,"Duration":799185,"SoundDuration":799185,"Delta":19318506},{"NoteNumber":87,"Velocity":113,"Duration":799185,"SoundDuration":799185,"Delta":19318506},{"NoteNumber":43,"Velocity":51,"Duration":110955,"SoundDuration":110955,"Delta":19422382},{"NoteNumber":48,"Velocity":53,"Duration":110589,"SoundDuration":110589,"Delta":19521593},{"NoteNumber":50,"Velocity":54,"Duration":110072,"SoundDuration":110072,"Delta":19622149},{"NoteNumber":51,"Velocity":56,"Duration":109596,"SoundDuration":109596,"Delta":19723086},{"NoteNumber":55,"Velocity":57,"Duration":109121,"SoundDuration":109121,"Delta":19823576},{"NoteNumber":60,"Velocity":60,"Duration":108780,"SoundDuration":108780,"Delta":19917020},{"NoteNumber":62,"Velocity":62,"Duration":108267,"SoundDuration":108267,"Delta":20020044},{"NoteNumber":63,"Velocity":64,"Duration":107843,"SoundDuration":107843,"Delta":20120959},{"NoteNumber":62,"Velocity":61,"Duration":107843,"SoundDuration":107843,"Delta":20219815},{"NoteNumber":60,"Velocity":59,"Duration":110930,"SoundDuration":110930,"Delta":20314586},{"NoteNumber":67,"Velocity":69,"Duration":113002,"SoundDuration":113002,"Delta":20413275},{"NoteNumber":72,"Velocity":69,"Duration":113002,"SoundDuration":113002,"Delta":20413275},{"NoteNumber":75,"Velocity":69,"Duration":113002,"SoundDuration":113002,"Delta":20413275},{"NoteNumber":79,"Velocity":76,"Duration":113002,"SoundDuration":113002,"Delta":20413275},{"NoteNumber":55,"Velocity":57,"Duration":125327,"SoundDuration":125327,"Delta":20416100},{"NoteNumber":51,"Velocity":55,"Duration":132980,"SoundDuration":132980,"Delta":20521569},{"NoteNumber":67,"Velocity":69,"Duration":363606,"SoundDuration":363606,"Delta":20526278},{"NoteNumber":72,"Velocity":69,"Duration":363606,"SoundDuration":363606,"Delta":20526278},{"NoteNumber":75,"Velocity":69,"Duration":363606,"SoundDuration":363606,"Delta":20526278},{"NoteNumber":79,"Velocity":76,"Duration":363606,"SoundDuration":363606,"Delta":20526278},{"NoteNumber":50,"Velocity":52,"Duration":133322,"SoundDuration":133322,"Delta":20649500},{"NoteNumber":48,"Velocity":50,"Duration":134636,"SoundDuration":134636,"Delta":20773733},{"NoteNumber":43,"Velocity":48,"Duration":130325,"SoundDuration":130325,"Delta":20887865},{"NoteNumber":79,"Velocity":82,"Duration":130480,"SoundDuration":130480,"Delta":20889885},{"NoteNumber":72,"Velocity":75,"Duration":130480,"SoundDuration":130480,"Delta":20889885},{"NoteNumber":75,"Velocity":75,"Duration":130480,"SoundDuration":130480,"Delta":20889885},{"NoteNumber":67,"Velocity":75,"Duration":130480,"SoundDuration":130480,"Delta":20889885},{"NoteNumber":69,"Velocity":84,"Duration":1630201,"SoundDuration":1630201,"Delta":21020365},{"NoteNumber":72,"Velocity":84,"Duration":1630201,"SoundDuration":1630201,"Delta":21020365},{"NoteNumber":75,"Velocity":84,"Duration":1630201,"SoundDuration":1630201,"Delta":21020365},{"NoteNumber":81,"Velocity":92,"Duration":1630201,"SoundDuration":1630201,"Delta":21020365},{"NoteNumber":36,"Velocity":77,"Duration":112532,"SoundDuration":112532,"Delta":21021218},{"NoteNumber":42,"Velocity":53,"Duration":112100,"SoundDuration":112100,"Delta":21120995},{"NoteNumber":48,"Velocity":56,"Duration":111669,"SoundDuration":111669,"Delta":21221232},{"NoteNumber":50,"Velocity":54,"Duration":111213,"SoundDuration":111213,"Delta":21322766},{"NoteNumber":51,"Velocity":56,"Duration":110637,"SoundDuration":110637,"Delta":21430624},{"NoteNumber":50,"Velocity":57,"Duration":110211,"SoundDuration":110211,"Delta":21531228},{"NoteNumber":48,"Velocity":57,"Duration":109792,"SoundDuration":109792,"Delta":21630606},{"NoteNumber":42,"Velocity":59,"Duration":99458,"SoundDuration":99458,"Delta":21724618},{"NoteNumber":36,"Velocity":77,"Duration":109109,"SoundDuration":109109,"Delta":21825732},{"NoteNumber":42,"Velocity":56,"Duration":110569,"SoundDuration":110569,"Delta":21922355},{"NoteNumber":48,"Velocity":59,"Duration":112187,"SoundDuration":112187,"Delta":22022804},{"NoteNumber":50,"Velocity":57,"Duration":113933,"SoundDuration":113933,"Delta":22130710},{"NoteNumber":51,"Velocity":57,"Duration":114982,"SoundDuration":114982,"Delta":22235932},{"NoteNumber":50,"Velocity":60,"Duration":114982,"SoundDuration":114982,"Delta":22336978},{"NoteNumber":48,"Velocity":62,"Duration":114982,"SoundDuration":114982,"Delta":22440636},{"NoteNumber":42,"Velocity":60,"Duration":104529,"SoundDuration":104529,"Delta":22545165},{"NoteNumber":35,"Velocity":70,"Duration":133856,"SoundDuration":133856,"Delta":22648824},{"NoteNumber":74,"Velocity":95,"Duration":304878,"SoundDuration":304878,"Delta":22650566},{"NoteNumber":81,"Velocity":95,"Duration":243902,"SoundDuration":243902,"Delta":22650566},{"NoteNumber":86,"Velocity":105,"Duration":304878,"SoundDuration":304878,"Delta":22650566},{"NoteNumber":47,"Velocity":54,"Duration":134146,"SoundDuration":134146,"Delta":22772517},{"NoteNumber":50,"Velocity":57,"Duration":134146,"SoundDuration":134146,"Delta":22894469},{"NoteNumber":55,"Velocity":61,"Duration":132956,"SoundDuration":132956,"Delta":23012355},{"NoteNumber":62,"Velocity":61,"Duration":114817,"SoundDuration":114817,"Delta":23136339},{"NoteNumber":79,"Velocity":91,"Duration":414817,"SoundDuration":414817,"Delta":23138371},{"NoteNumber":67,"Velocity":83,"Duration":414817,"SoundDuration":414817,"Delta":23138371},{"NoteNumber":74,"Velocity":83,"Duration":414817,"SoundDuration":414817,"Delta":23138371},{"NoteNumber":55,"Velocity":60,"Duration":114246,"SoundDuration":114246,"Delta":23245083},{"NoteNumber":50,"Velocity":59,"Duration":113876,"SoundDuration":113876,"Delta":23344629},{"NoteNumber":47,"Velocity":61,"Duration":103290,"SoundDuration":103290,"Delta":23453335},{"NoteNumber":34,"Velocity":57,"Duration":113222,"SoundDuration":113222,"Delta":23557484},{"NoteNumber":46,"Velocity":59,"Duration":112896,"SoundDuration":112896,"Delta":23659576},{"NoteNumber":49,"Velocity":62,"Duration":115880,"SoundDuration":115880,"Delta":23760487},{"NoteNumber":55,"Velocity":64,"Duration":129325,"SoundDuration":129325,"Delta":23860768},{"NoteNumber":67,"Velocity":66,"Duration":117647,"SoundDuration":117647,"Delta":23862643},{"NoteNumber":73,"Velocity":66,"Duration":117647,"SoundDuration":117647,"Delta":23862643},{"NoteNumber":79,"Velocity":72,"Duration":117647,"SoundDuration":117647,"Delta":23862643},{"NoteNumber":73,"Velocity":81,"Duration":352940,"SoundDuration":352940,"Delta":23980290},{"NoteNumber":68,"Velocity":81,"Duration":352940,"SoundDuration":352940,"Delta":23980290},{"NoteNumber":80,"Velocity":89,"Duration":352940,"SoundDuration":352940,"Delta":23980290},{"NoteNumber":61,"Velocity":67,"Duration":129411,"SoundDuration":129411,"Delta":23985192},{"NoteNumber":55,"Velocity":65,"Duration":129411,"SoundDuration":129411,"Delta":24094015},{"NoteNumber":49,"Velocity":66,"Duration":129411,"SoundDuration":129411,"Delta":24210682},{"NoteNumber":73,"Velocity":65,"Duration":117647,"SoundDuration":117647,"Delta":24333231},{"NoteNumber":67,"Velocity":65,"Duration":117647,"SoundDuration":117647,"Delta":24333231},{"NoteNumber":79,"Velocity":71,"Duration":117647,"SoundDuration":117647,"Delta":24333231},{"NoteNumber":46,"Velocity":65,"Duration":117754,"SoundDuration":117754,"Delta":24336172},{"NoteNumber":67,"Velocity":74,"Duration":253408,"SoundDuration":253408,"Delta":24450878},{"NoteNumber":72,"Velocity":74,"Duration":243902,"SoundDuration":243902,"Delta":24450878},{"NoteNumber":79,"Velocity":81,"Duration":253408,"SoundDuration":253408,"Delta":24450878},{"NoteNumber":33,"Velocity":60,"Duration":134146,"SoundDuration":134146,"Delta":24450878},{"NoteNumber":45,"Velocity":62,"Duration":133292,"SoundDuration":133292,"Delta":24573845},{"NoteNumber":72,"Velocity":70,"Duration":114068,"SoundDuration":114068,"Delta":24694780},{"NoteNumber":84,"Velocity":76,"Duration":114068,"SoundDuration":114068,"Delta":24694780},{"NoteNumber":48,"Velocity":63,"Duration":125475,"SoundDuration":125475,"Delta":24699533},{"NoteNumber":53,"Velocity":65,"Duration":124814,"SoundDuration":124814,"Delta":24804096},{"NoteNumber":65,"Velocity":77,"Duration":410931,"SoundDuration":410931,"Delta":24922917},{"NoteNumber":72,"Velocity":77,"Duration":410931,"SoundDuration":410931,"Delta":24922917},{"NoteNumber":77,"Velocity":86,"Duration":410931,"SoundDuration":410931,"Delta":24922917},{"NoteNumber":60,"Velocity":67,"Duration":113006,"SoundDuration":113006,"Delta":24926342},{"NoteNumber":53,"Velocity":60,"Duration":113006,"SoundDuration":113006,"Delta":25027362},{"NoteNumber":48,"Velocity":62,"Duration":113006,"SoundDuration":113006,"Delta":25126670},{"NoteNumber":45,"Velocity":60,"Duration":102732,"SoundDuration":102732,"Delta":25227691},{"NoteNumber":32,"Velocity":57,"Duration":113006,"SoundDuration":113006,"Delta":25333848},{"NoteNumber":44,"Velocity":59,"Duration":113006,"SoundDuration":113006,"Delta":25434013},{"NoteNumber":48,"Velocity":59,"Duration":113986,"SoundDuration":113986,"Delta":25537601},{"NoteNumber":65,"Velocity":63,"Duration":114503,"SoundDuration":114503,"Delta":25642046},{"NoteNumber":72,"Velocity":63,"Duration":114503,"SoundDuration":114503,"Delta":25642046},{"NoteNumber":77,"Velocity":69,"Duration":114503,"SoundDuration":114503,"Delta":25642046},{"NoteNumber":53,"Velocity":56,"Duration":126531,"SoundDuration":126531,"Delta":25646817},{"NoteNumber":67,"Velocity":79,"Duration":355730,"SoundDuration":355730,"Delta":25756550},{"NoteNumber":72,"Velocity":79,"Duration":355730,"SoundDuration":355730,"Delta":25756550},{"NoteNumber":79,"Velocity":87,"Duration":355730,"SoundDuration":355730,"Delta":25756550},{"NoteNumber":60,"Velocity":61,"Duration":130434,"SoundDuration":130434,"Delta":25757538},{"NoteNumber":53,"Velocity":57,"Duration":130434,"SoundDuration":130434,"Delta":25877103},{"NoteNumber":48,"Velocity":55,"Duration":131004,"SoundDuration":131004,"Delta":25989752},{"NoteNumber":65,"Velocity":63,"Duration":127118,"SoundDuration":127118,"Delta":26112281},{"NoteNumber":72,"Velocity":63,"Duration":127118,"SoundDuration":127118,"Delta":26112281},{"NoteNumber":77,"Velocity":69,"Duration":127118,"SoundDuration":127118,"Delta":26112281},{"NoteNumber":44,"Velocity":51,"Duration":127118,"SoundDuration":127118,"Delta":26112281},{"NoteNumber":31,"Velocity":47,"Duration":116392,"SoundDuration":116392,"Delta":26238341},{"NoteNumber":64,"Velocity":76,"Duration":1518914,"SoundDuration":1518914,"Delta":26239400},{"NoteNumber":72,"Velocity":76,"Duration":1518914,"SoundDuration":1518914,"Delta":26239400},{"NoteNumber":76,"Velocity":84,"Duration":1518914,"SoundDuration":1518914,"Delta":26239400},{"NoteNumber":43,"Velocity":47,"Duration":115310,"SoundDuration":115310,"Delta":26345094},{"NoteNumber":48,"Velocity":48,"Duration":114365,"SoundDuration":114365,"Delta":26452570},{"NoteNumber":47,"Velocity":47,"Duration":113461,"SoundDuration":113461,"Delta":26554009},{"NoteNumber":49,"Velocity":51,"Duration":112610,"SoundDuration":112610,"Delta":26656341},{"NoteNumber":48,"Velocity":53,"Duration":111716,"SoundDuration":111716,"Delta":26761297},{"NoteNumber":50,"Velocity":55,"Duration":110846,"SoundDuration":110846,"Delta":26861222},{"NoteNumber":49,"Velocity":54,"Duration":109986,"SoundDuration":109986,"Delta":26962862},{"NoteNumber":51,"Velocity":56,"Duration":109411,"SoundDuration":109411,"Delta":27061242},{"NoteNumber":50,"Velocity":55,"Duration":109409,"SoundDuration":109409,"Delta":27157392},{"NoteNumber":52,"Velocity":57,"Duration":109409,"SoundDuration":109409,"Delta":27262657},{"NoteNumber":51,"Velocity":57,"Duration":109409,"SoundDuration":109409,"Delta":27357147},{"NoteNumber":53,"Velocity":59,"Duration":109409,"SoundDuration":109409,"Delta":27460754},{"NoteNumber":52,"Velocity":60,"Duration":109409,"SoundDuration":109409,"Delta":27562704},{"NoteNumber":54,"Velocity":57,"Duration":110139,"SoundDuration":110139,"Delta":27658851},{"NoteNumber":63,"Velocity":70,"Duration":106761,"SoundDuration":106761,"Delta":27758314},{"NoteNumber":75,"Velocity":70,"Duration":106761,"SoundDuration":106761,"Delta":27758314},{"NoteNumber":53,"Velocity":57,"Duration":118032,"SoundDuration":118032,"Delta":27760983},{"NoteNumber":71,"Velocity":75,"Duration":855082,"SoundDuration":855082,"Delta":27865076},{"NoteNumber":63,"Velocity":75,"Duration":446096,"SoundDuration":446096,"Delta":27865076},{"NoteNumber":75,"Velocity":75,"Duration":446096,"SoundDuration":446096,"Delta":27865076},{"NoteNumber":55,"Velocity":54,"Duration":122676,"SoundDuration":122676,"Delta":27865076},{"NoteNumber":54,"Velocity":54,"Duration":122676,"SoundDuration":122676,"Delta":27975671},{"NoteNumber":56,"Velocity":54,"Duration":122676,"SoundDuration":122676,"Delta":28090913},{"NoteNumber":55,"Velocity":54,"Duration":121873,"SoundDuration":121873,"Delta":28200578},{"NoteNumber":58,"Velocity":54,"Duration":114210,"SoundDuration":114210,"Delta":28309314},{"NoteNumber":62,"Velocity":63,"Duration":408985,"SoundDuration":408985,"Delta":28311173},{"NoteNumber":74,"Velocity":63,"Duration":408985,"SoundDuration":408985,"Delta":28311173},{"NoteNumber":56,"Velocity":54,"Duration":112901,"SoundDuration":112901,"Delta":28419229},{"NoteNumber":55,"Velocity":54,"Duration":111834,"SoundDuration":111834,"Delta":28518523},{"NoteNumber":53,"Velocity":54,"Duration":110804,"SoundDuration":110804,"Delta":28616027},{"NoteNumber":51,"Velocity":54,"Duration":110112,"SoundDuration":110112,"Delta":28719321},{"NoteNumber":50,"Velocity":54,"Duration":110110,"SoundDuration":110110,"Delta":28816921},{"NoteNumber":48,"Velocity":52,"Duration":110109,"SoundDuration":110109,"Delta":28922861},{"NoteNumber":47,"Velocity":51,"Duration":110109,"SoundDuration":110109,"Delta":29024629},{"NoteNumber":44,"Velocity":47,"Duration":110110,"SoundDuration":110110,"Delta":29121392},{"NoteNumber":43,"Velocity":44,"Duration":110110,"SoundDuration":110110,"Delta":29216487},{"NoteNumber":41,"Velocity":40,"Duration":110110,"SoundDuration":110110,"Delta":29319090},{"NoteNumber":38,"Velocity":37,"Duration":100099,"SoundDuration":100099,"Delta":29416687},{"NoteNumber":36,"Velocity":31,"Duration":112628,"SoundDuration":112628,"Delta":29522676},{"NoteNumber":43,"Velocity":32,"Duration":106330,"SoundDuration":106330,"Delta":29620614},{"NoteNumber":48,"Velocity":35,"Duration":106109,"SoundDuration":106109,"Delta":29723729},{"NoteNumber":50,"Velocity":36,"Duration":106109,"SoundDuration":106109,"Delta":29820192},{"NoteNumber":51,"Velocity":39,"Duration":106109,"SoundDuration":106109,"Delta":29914244},{"NoteNumber":55,"Velocity":40,"Duration":106109,"SoundDuration":106109,"Delta":30011511},{"NoteNumber":60,"Velocity":43,"Duration":106109,"SoundDuration":106109,"Delta":30109581},{"NoteNumber":62,"Velocity":44,"Duration":106109,"SoundDuration":106109,"Delta":30198809},{"NoteNumber":63,"Velocity":47,"Duration":106109,"SoundDuration":106109,"Delta":30296076},{"NoteNumber":62,"Velocity":44,"Duration":106109,"SoundDuration":106109,"Delta":30397363},{"NoteNumber":60,"Velocity":43,"Duration":106109,"SoundDuration":106109,"Delta":30493022},{"NoteNumber":55,"Velocity":41,"Duration":106109,"SoundDuration":106109,"Delta":30586269},{"NoteNumber":51,"Velocity":39,"Duration":106109,"SoundDuration":106109,"Delta":30681124},{"NoteNumber":50,"Velocity":37,"Duration":106109,"SoundDuration":106109,"Delta":30778391},{"NoteNumber":48,"Velocity":35,"Duration":106109,"SoundDuration":106109,"Delta":30878874},{"NoteNumber":43,"Velocity":33,"Duration":96462,"SoundDuration":96462,"Delta":30972925},{"NoteNumber":36,"Velocity":31,"Duration":106109,"SoundDuration":106109,"Delta":31069388},{"NoteNumber":43,"Velocity":35,"Duration":106109,"SoundDuration":106109,"Delta":31166655},{"NoteNumber":48,"Velocity":39,"Duration":106109,"SoundDuration":106109,"Delta":31265530},{"NoteNumber":50,"Velocity":43,"Duration":106109,"SoundDuration":106109,"Delta":31362796},{"NoteNumber":51,"Velocity":45,"Duration":106109,"SoundDuration":106109,"Delta":31459259},{"NoteNumber":50,"Velocity":42,"Duration":106109,"SoundDuration":106109,"Delta":31553311},{"NoteNumber":48,"Velocity":39,"Duration":106109,"SoundDuration":106109,"Delta":31650578},{"NoteNumber":43,"Velocity":35,"Duration":96462,"SoundDuration":96462,"Delta":31748648},{"NoteNumber":36,"Velocity":32,"Duration":106109,"SoundDuration":106109,"Delta":31845915},{"NoteNumber":43,"Velocity":34,"Duration":106396,"SoundDuration":106396,"Delta":31935947},{"NoteNumber":48,"Velocity":37,"Duration":112196,"SoundDuration":112196,"Delta":32036466},{"NoteNumber":50,"Velocity":40,"Duration":125226,"SoundDuration":125226,"Delta":32135559},{"NoteNumber":72,"Velocity":61,"Duration":123370,"SoundDuration":123370,"Delta":32136398},{"NoteNumber":84,"Velocity":67,"Duration":123370,"SoundDuration":123370,"Delta":32136398},{"NoteNumber":51,"Velocity":44,"Duration":133927,"SoundDuration":133927,"Delta":32246776},{"NoteNumber":86,"Velocity":67,"Duration":376964,"SoundDuration":376964,"Delta":32249606},{"NoteNumber":74,"Velocity":61,"Duration":376964,"SoundDuration":376964,"Delta":32249606},{"NoteNumber":50,"Velocity":44,"Duration":134146,"SoundDuration":134146,"Delta":32367492},{"NoteNumber":48,"Velocity":42,"Duration":135663,"SoundDuration":135663,"Delta":32497573},{"NoteNumber":43,"Velocity":38,"Duration":132858,"SoundDuration":132858,"Delta":32610378},{"NoteNumber":75,"Velocity":62,"Duration":133333,"SoundDuration":133333,"Delta":32615460},{"NoteNumber":87,"Velocity":68,"Duration":133333,"SoundDuration":133333,"Delta":32615460},{"NoteNumber":36,"Velocity":31,"Duration":112473,"SoundDuration":112473,"Delta":32747682},{"NoteNumber":75,"Velocity":72,"Duration":803326,"SoundDuration":803326,"Delta":32748793},{"NoteNumber":87,"Velocity":79,"Duration":803326,"SoundDuration":803326,"Delta":32748793},{"NoteNumber":43,"Velocity":33,"Duration":111712,"SoundDuration":111712,"Delta":32851681},{"NoteNumber":48,"Velocity":35,"Duration":111202,"SoundDuration":111202,"Delta":32950725},{"NoteNumber":50,"Velocity":36,"Duration":110589,"SoundDuration":110589,"Delta":33054377},{"NoteNumber":51,"Velocity":39,"Duration":110231,"SoundDuration":110231,"Delta":33151588},{"NoteNumber":55,"Velocity":40,"Duration":109723,"SoundDuration":109723,"Delta":33252653},{"NoteNumber":60,"Velocity":42,"Duration":109151,"SoundDuration":109151,"Delta":33350776},{"NoteNumber":62,"Velocity":43,"Duration":108612,"SoundDuration":108612,"Delta":33455802},{"NoteNumber":63,"Velocity":47,"Duration":108207,"SoundDuration":108207,"Delta":33548830},{"NoteNumber":62,"Velocity":46,"Duration":108196,"SoundDuration":108196,"Delta":33648841},{"NoteNumber":60,"Velocity":44,"Duration":109739,"SoundDuration":109739,"Delta":33751300},{"NoteNumber":67,"Velocity":51,"Duration":110700,"SoundDuration":110700,"Delta":33847202},{"NoteNumber":72,"Velocity":51,"Duration":110700,"SoundDuration":110700,"Delta":33847202},{"NoteNumber":75,"Velocity":51,"Duration":110700,"SoundDuration":110700,"Delta":33847202},{"NoteNumber":79,"Velocity":56,"Duration":110700,"SoundDuration":110700,"Delta":33847202},{"NoteNumber":55,"Velocity":43,"Duration":122883,"SoundDuration":122883,"Delta":33850892},{"NoteNumber":67,"Velocity":51,"Duration":357142,"SoundDuration":357142,"Delta":33957903},{"NoteNumber":72,"Velocity":51,"Duration":357142,"SoundDuration":357142,"Delta":33957903},{"NoteNumber":75,"Velocity":51,"Duration":357142,"SoundDuration":357142,"Delta":33957903},{"NoteNumber":79,"Velocity":56,"Duration":357142,"SoundDuration":357142,"Delta":33957903},{"NoteNumber":51,"Velocity":41,"Duration":130952,"SoundDuration":130952,"Delta":33960879},{"NoteNumber":50,"Velocity":39,"Duration":130952,"SoundDuration":130952,"Delta":34079926},{"NoteNumber":48,"Velocity":38,"Duration":131653,"SoundDuration":131653,"Delta":34196990},{"NoteNumber":43,"Velocity":36,"Duration":125415,"SoundDuration":125415,"Delta":34313061},{"NoteNumber":67,"Velocity":51,"Duration":125523,"SoundDuration":125523,"Delta":34315045},{"NoteNumber":72,"Velocity":51,"Duration":125523,"SoundDuration":125523,"Delta":34315045},{"NoteNumber":75,"Velocity":51,"Duration":125523,"SoundDuration":125523,"Delta":34315045},{"NoteNumber":79,"Velocity":56,"Duration":125523,"SoundDuration":125523,"Delta":34315045},{"NoteNumber":68,"Velocity":60,"Duration":842106,"SoundDuration":842106,"Delta":34440568},{"NoteNumber":72,"Velocity":60,"Duration":1052632,"SoundDuration":1052632,"Delta":34440568},{"NoteNumber":75,"Velocity":60,"Duration":1052632,"SoundDuration":1052632,"Delta":34440568},{"NoteNumber":80,"Velocity":66,"Duration":842106,"SoundDuration":842106,"Delta":34440568},{"NoteNumber":36,"Velocity":38,"Duration":115789,"SoundDuration":115789,"Delta":34444077},{"NoteNumber":43,"Velocity":41,"Duration":115789,"SoundDuration":115789,"Delta":34543200},{"NoteNumber":48,"Velocity":43,"Duration":115789,"SoundDuration":115789,"Delta":34654604},{"NoteNumber":50,"Velocity":47,"Duration":115789,"SoundDuration":115789,"Delta":34753726},{"NoteNumber":51,"Velocity":50,"Duration":115789,"SoundDuration":115789,"Delta":34858990},{"NoteNumber":50,"Velocity":47,"Duration":115789,"SoundDuration":115789,"Delta":34966885},{"NoteNumber":48,"Velocity":45,"Duration":115789,"SoundDuration":115789,"Delta":35076534},{"NoteNumber":43,"Velocity":43,"Duration":105263,"SoundDuration":105263,"Delta":35173025},{"NoteNumber":36,"Velocity":41,"Duration":115789,"SoundDuration":115789,"Delta":35278288},{"NoteNumber":79,"Velocity":56,"Duration":210526,"SoundDuration":210526,"Delta":35282674},{"NoteNumber":67,"Velocity":51,"Duration":210526,"SoundDuration":210526,"Delta":35282674},{"NoteNumber":43,"Velocity":43,"Duration":116352,"SoundDuration":116352,"Delta":35387938},{"NoteNumber":48,"Velocity":44,"Duration":121931,"SoundDuration":121931,"Delta":35492324},{"NoteNumber":50,"Velocity":49,"Duration":122472,"SoundDuration":122472,"Delta":35600394},{"NoteNumber":72,"Velocity":72,"Duration":120748,"SoundDuration":120748,"Delta":35604090},{"NoteNumber":84,"Velocity":79,"Duration":120748,"SoundDuration":120748,"Delta":35604090},{"NoteNumber":51,"Velocity":51,"Duration":129950,"SoundDuration":129950,"Delta":35712207},{"NoteNumber":74,"Velocity":84,"Duration":365326,"SoundDuration":365326,"Delta":35714979},{"NoteNumber":86,"Velocity":92,"Duration":365326,"SoundDuration":365326,"Delta":35714979},{"NoteNumber":50,"Velocity":51,"Duration":130136,"SoundDuration":130136,"Delta":35837229},{"NoteNumber":48,"Velocity":49,"Duration":130631,"SoundDuration":130631,"Delta":35948633},{"NoteNumber":43,"Velocity":47,"Duration":124686,"SoundDuration":124686,"Delta":36065953},{"NoteNumber":75,"Velocity":92,"Duration":124906,"SoundDuration":124906,"Delta":36069897},{"NoteNumber":87,"Velocity":101,"Duration":124906,"SoundDuration":124906,"Delta":36069897},{"NoteNumber":36,"Velocity":47,"Duration":112615,"SoundDuration":112615,"Delta":36190639},{"NoteNumber":75,"Velocity":97,"Duration":803070,"SoundDuration":803070,"Delta":36194803},{"NoteNumber":87,"Velocity":107,"Duration":803070,"SoundDuration":803070,"Delta":36194803},{"NoteNumber":43,"Velocity":47,"Duration":111438,"SoundDuration":111438,"Delta":36300721},{"NoteNumber":48,"Velocity":48,"Duration":110992,"SoundDuration":110992,"Delta":36393626},{"NoteNumber":50,"Velocity":50,"Duration":110606,"SoundDuration":110606,"Delta":36494551},{"NoteNumber":51,"Velocity":51,"Duration":110236,"SoundDuration":110236,"Delta":36595125},{"NoteNumber":55,"Velocity":51,"Duration":109750,"SoundDuration":109750,"Delta":36697861},{"NoteNumber":60,"Velocity":54,"Duration":109367,"SoundDuration":109367,"Delta":36803459},{"NoteNumber":62,"Velocity":55,"Duration":108993,"SoundDuration":108993,"Delta":36897927},{"NoteNumber":63,"Velocity":57,"Duration":108555,"SoundDuration":108555,"Delta":36997049},{"NoteNumber":62,"Velocity":55,"Duration":108552,"SoundDuration":108552,"Delta":37100670},{"NoteNumber":60,"Velocity":55,"Duration":109529,"SoundDuration":109529,"Delta":37198532},{"NoteNumber":79,"Velocity":81,"Duration":106006,"SoundDuration":106006,"Delta":37293926},{"NoteNumber":72,"Velocity":74,"Duration":106006,"SoundDuration":106006,"Delta":37293926},{"NoteNumber":75,"Velocity":74,"Duration":106006,"SoundDuration":106006,"Delta":37293926},{"NoteNumber":67,"Velocity":74,"Duration":106006,"SoundDuration":106006,"Delta":37293926},{"NoteNumber":55,"Velocity":53,"Duration":117501,"SoundDuration":117501,"Delta":37293926},{"NoteNumber":67,"Velocity":74,"Duration":344827,"SoundDuration":344827,"Delta":37399933},{"NoteNumber":72,"Velocity":74,"Duration":344827,"SoundDuration":344827,"Delta":37399933},{"NoteNumber":75,"Velocity":74,"Duration":344827,"SoundDuration":344827,"Delta":37399933},{"NoteNumber":79,"Velocity":81,"Duration":344827,"SoundDuration":344827,"Delta":37399933},{"NoteNumber":51,"Velocity":51,"Duration":126436,"SoundDuration":126436,"Delta":37403765},{"NoteNumber":50,"Velocity":50,"Duration":126436,"SoundDuration":126436,"Delta":37516792},{"NoteNumber":48,"Velocity":48,"Duration":126944,"SoundDuration":126944,"Delta":37628861},{"NoteNumber":43,"Velocity":47,"Duration":120343,"SoundDuration":120343,"Delta":37741887},{"NoteNumber":67,"Velocity":76,"Duration":120482,"SoundDuration":120482,"Delta":37744761},{"NoteNumber":72,"Velocity":76,"Duration":120482,"SoundDuration":120482,"Delta":37744761},{"NoteNumber":75,"Velocity":76,"Duration":120482,"SoundDuration":120482,"Delta":37744761},{"NoteNumber":79,"Velocity":83,"Duration":120482,"SoundDuration":120482,"Delta":37744761},{"NoteNumber":36,"Velocity":57,"Duration":117308,"SoundDuration":117308,"Delta":37860223},{"NoteNumber":81,"Velocity":95,"Duration":1643216,"SoundDuration":1643216,"Delta":37865243},{"NoteNumber":75,"Velocity":87,"Duration":1643216,"SoundDuration":1643216,"Delta":37865243},{"NoteNumber":77,"Velocity":87,"Duration":1643216,"SoundDuration":1643216,"Delta":37865243},{"NoteNumber":69,"Velocity":87,"Duration":1643216,"SoundDuration":1643216,"Delta":37865243},{"NoteNumber":41,"Velocity":48,"Duration":116031,"SoundDuration":116031,"Delta":37971355},{"NoteNumber":48,"Velocity":50,"Duration":115340,"SoundDuration":115340,"Delta":38081252},{"NoteNumber":50,"Velocity":51,"Duration":114664,"SoundDuration":114664,"Delta":38180922},{"NoteNumber":51,"Velocity":54,"Duration":114004,"SoundDuration":114004,"Delta":38283472},{"NoteNumber":50,"Velocity":52,"Duration":113344,"SoundDuration":113344,"Delta":38390583},{"NoteNumber":48,"Velocity":51,"Duration":112735,"SoundDuration":112735,"Delta":38490229},{"NoteNumber":41,"Velocity":49,"Duration":101899,"SoundDuration":101899,"Delta":38595310},{"NoteNumber":36,"Velocity":57,"Duration":111546,"SoundDuration":111546,"Delta":38701435},{"NoteNumber":41,"Velocity":49,"Duration":111546,"SoundDuration":111546,"Delta":38798615},{"NoteNumber":48,"Velocity":51,"Duration":111546,"SoundDuration":111546,"Delta":38903402},{"NoteNumber":50,"Velocity":53,"Duration":111546,"SoundDuration":111546,"Delta":38997203},{"NoteNumber":51,"Velocity":55,"Duration":111546,"SoundDuration":111546,"Delta":39107060},{"NoteNumber":50,"Velocity":54,"Duration":111546,"SoundDuration":111546,"Delta":39205086},{"NoteNumber":48,"Velocity":53,"Duration":111546,"SoundDuration":111546,"Delta":39308182},{"NoteNumber":41,"Velocity":51,"Duration":101406,"SoundDuration":101406,"Delta":39407053},{"NoteNumber":38,"Velocity":73,"Duration":112610,"SoundDuration":112610,"Delta":39505079},{"NoteNumber":70,"Velocity":71,"Duration":614418,"SoundDuration":614418,"Delta":39508459},{"NoteNumber":77,"Velocity":71,"Duration":614418,"SoundDuration":614418,"Delta":39508459},{"NoteNumber":82,"Velocity":77,"Duration":614418,"SoundDuration":614418,"Delta":39508459},{"NoteNumber":46,"Velocity":42,"Duration":112643,"SoundDuration":112643,"Delta":39608302},{"NoteNumber":47,"Velocity":42,"Duration":112643,"SoundDuration":112643,"Delta":39712412},{"NoteNumber":46,"Velocity":41,"Duration":102403,"SoundDuration":102403,"Delta":39811401},{"NoteNumber":58,"Velocity":57,"Duration":112643,"SoundDuration":112643,"Delta":39917218},{"NoteNumber":46,"Velocity":44,"Duration":112643,"SoundDuration":112643,"Delta":40016207},{"NoteNumber":70,"Velocity":73,"Duration":409612,"SoundDuration":409612,"Delta":40122877},{"NoteNumber":77,"Velocity":73,"Duration":409612,"SoundDuration":409612,"Delta":40122877},{"NoteNumber":82,"Velocity":80,"Duration":409612,"SoundDuration":409612,"Delta":40122877},{"NoteNumber":47,"Velocity":44,"Duration":112643,"SoundDuration":112643,"Delta":40124584},{"NoteNumber":46,"Velocity":43,"Duration":102403,"SoundDuration":102403,"Delta":40228694},{"NoteNumber":39,"Velocity":72,"Duration":112643,"SoundDuration":112643,"Delta":40323416},{"NoteNumber":46,"Velocity":46,"Duration":112643,"SoundDuration":112643,"Delta":40432646},{"NoteNumber":70,"Velocity":76,"Duration":409611,"SoundDuration":409611,"Delta":40532489},{"NoteNumber":79,"Velocity":76,"Duration":409611,"SoundDuration":409611,"Delta":40532489},{"NoteNumber":82,"Velocity":84,"Duration":409611,"SoundDuration":409611,"Delta":40532489},{"NoteNumber":47,"Velocity":47,"Duration":112643,"SoundDuration":112643,"Delta":40534196},{"NoteNumber":46,"Velocity":47,"Duration":102403,"SoundDuration":102403,"Delta":40636599},{"NoteNumber":58,"Velocity":63,"Duration":112643,"SoundDuration":112643,"Delta":40739855},{"NoteNumber":46,"Velocity":49,"Duration":112643,"SoundDuration":112643,"Delta":40839698},{"NoteNumber":79,"Velocity":79,"Duration":409612,"SoundDuration":409612,"Delta":40942101},{"NoteNumber":71,"Velocity":79,"Duration":409612,"SoundDuration":409612,"Delta":40942101},{"NoteNumber":83,"Velocity":87,"Duration":409612,"SoundDuration":409612,"Delta":40942101},{"NoteNumber":47,"Velocity":49,"Duration":112643,"SoundDuration":112643,"Delta":40943808},{"NoteNumber":46,"Velocity":49,"Duration":102403,"SoundDuration":102403,"Delta":41041091},{"NoteNumber":40,"Velocity":77,"Duration":112643,"SoundDuration":112643,"Delta":41148614},{"NoteNumber":46,"Velocity":52,"Duration":112643,"SoundDuration":112643,"Delta":41251870},{"NoteNumber":79,"Velocity":82,"Duration":409611,"SoundDuration":409611,"Delta":41351713},{"NoteNumber":72,"Velocity":82,"Duration":409611,"SoundDuration":409611,"Delta":41351713},{"NoteNumber":82,"Velocity":82,"Duration":409611,"SoundDuration":409611,"Delta":41351713},{"NoteNumber":84,"Velocity":90,"Duration":409611,"SoundDuration":409611,"Delta":41351713},{"NoteNumber":48,"Velocity":52,"Duration":112643,"SoundDuration":112643,"Delta":41354273},{"NoteNumber":46,"Velocity":51,"Duration":102403,"SoundDuration":102403,"Delta":41449849},{"NoteNumber":58,"Velocity":63,"Duration":112643,"SoundDuration":112643,"Delta":41559933},{"NoteNumber":46,"Velocity":54,"Duration":112643,"SoundDuration":112643,"Delta":41660629},{"NoteNumber":73,"Velocity":85,"Duration":409612,"SoundDuration":409612,"Delta":41761325},{"NoteNumber":85,"Velocity":93,"Duration":409612,"SoundDuration":409612,"Delta":41761325},{"NoteNumber":82,"Velocity":85,"Duration":409612,"SoundDuration":409612,"Delta":41761325},{"NoteNumber":48,"Velocity":54,"Duration":112643,"SoundDuration":112643,"Delta":41763032},{"NoteNumber":46,"Velocity":56,"Duration":102403,"SoundDuration":102403,"Delta":41859461},{"NoteNumber":41,"Velocity":84,"Duration":112643,"SoundDuration":112643,"Delta":41966985},{"NoteNumber":46,"Velocity":57,"Duration":112836,"SoundDuration":112836,"Delta":42072801},{"NoteNumber":58,"Velocity":57,"Duration":114160,"SoundDuration":114160,"Delta":42166670},{"NoteNumber":74,"Velocity":89,"Duration":216804,"SoundDuration":216804,"Delta":42170937},{"NoteNumber":82,"Velocity":89,"Duration":208099,"SoundDuration":208099,"Delta":42170937},{"NoteNumber":86,"Velocity":97,"Duration":216804,"SoundDuration":216804,"Delta":42170937},{"NoteNumber":46,"Velocity":57,"Duration":104273,"SoundDuration":104273,"Delta":42273023},{"NoteNumber":42,"Velocity":73,"Duration":115180,"SoundDuration":115180,"Delta":42375556},{"NoteNumber":75,"Velocity":90,"Duration":218759,"SoundDuration":218759,"Delta":42379037},{"NoteNumber":82,"Velocity":90,"Duration":209966,"SoundDuration":209966,"Delta":42379037},{"NoteNumber":87,"Velocity":99,"Duration":218759,"SoundDuration":218759,"Delta":42379037},{"NoteNumber":46,"Velocity":60,"Duration":115844,"SoundDuration":115844,"Delta":42488107},{"NoteNumber":76,"Velocity":92,"Duration":220747,"SoundDuration":220747,"Delta":42589003},{"NoteNumber":82,"Velocity":92,"Duration":211925,"SoundDuration":211925,"Delta":42589003},{"NoteNumber":88,"Velocity":101,"Duration":220747,"SoundDuration":220747,"Delta":42589003},{"NoteNumber":58,"Velocity":60,"Duration":116283,"SoundDuration":116283,"Delta":42589883},{"NoteNumber":46,"Velocity":59,"Duration":106219,"SoundDuration":106219,"Delta":42692933},{"NoteNumber":82,"Velocity":97,"Duration":860114,"SoundDuration":860114,"Delta":42800929},{"NoteNumber":89,"Velocity":107,"Duration":860114,"SoundDuration":860114,"Delta":42800929},{"NoteNumber":86,"Velocity":97,"Duration":860114,"SoundDuration":860114,"Delta":42800929},{"NoteNumber":77,"Velocity":97,"Duration":860114,"SoundDuration":860114,"Delta":42800929},{"NoteNumber":41,"Velocity":79,"Duration":116349,"SoundDuration":116349,"Delta":42805340},{"NoteNumber":46,"Velocity":63,"Duration":115856,"SoundDuration":115856,"Delta":42905862},{"NoteNumber":50,"Velocity":65,"Duration":115357,"SoundDuration":115357,"Delta":43013831},{"NoteNumber":53,"Velocity":68,"Duration":114714,"SoundDuration":114714,"Delta":43114383},{"NoteNumber":58,"Velocity":71,"Duration":114415,"SoundDuration":114415,"Delta":43217869},{"NoteNumber":62,"Velocity":73,"Duration":105954,"SoundDuration":105954,"Delta":43322654},{"NoteNumber":67,"Velocity":74,"Duration":169035,"SoundDuration":169035,"Delta":43431278},{"NoteNumber":65,"Velocity":76,"Duration":54655,"SoundDuration":54655,"Delta":43600314},{"NoteNumber":82,"Velocity":90,"Duration":408247,"SoundDuration":408247,"Delta":43661043},{"NoteNumber":74,"Velocity":90,"Duration":408247,"SoundDuration":408247,"Delta":43661043},{"NoteNumber":77,"Velocity":90,"Duration":408247,"SoundDuration":408247,"Delta":43661043},{"NoteNumber":86,"Velocity":99,"Duration":714432,"SoundDuration":714432,"Delta":43661043},{"NoteNumber":65,"Velocity":79,"Duration":112267,"SoundDuration":112267,"Delta":43661043},{"NoteNumber":62,"Velocity":76,"Duration":112267,"SoundDuration":112267,"Delta":43766506},{"NoteNumber":58,"Velocity":76,"Duration":112267,"SoundDuration":112267,"Delta":43864316},{"NoteNumber":55,"Velocity":73,"Duration":112267,"SoundDuration":112267,"Delta":43962975},{"NoteNumber":75,"Velocity":84,"Duration":408246,"SoundDuration":408246,"Delta":44069290},{"NoteNumber":77,"Velocity":84,"Duration":408246,"SoundDuration":408246,"Delta":44069290},{"NoteNumber":81,"Velocity":84,"Duration":408246,"SoundDuration":408246,"Delta":44069290},{"NoteNumber":53,"Velocity":71,"Duration":112267,"SoundDuration":112267,"Delta":44071841},{"NoteNumber":51,"Velocity":67,"Duration":112267,"SoundDuration":112267,"Delta":44167949},{"NoteNumber":48,"Velocity":65,"Duration":112267,"SoundDuration":112267,"Delta":44277666},{"NoteNumber":84,"Velocity":85,"Duration":102061,"SoundDuration":102061,"Delta":44375475},{"NoteNumber":41,"Velocity":61,"Duration":112267,"SoundDuration":112267,"Delta":44378026},{"NoteNumber":74,"Velocity":76,"Duration":197332,"SoundDuration":197332,"Delta":44477537},{"NoteNumber":82,"Velocity":83,"Duration":197332,"SoundDuration":197332,"Delta":44477537},{"NoteNumber":34,"Velocity":61,"Duration":101573,"SoundDuration":101573,"Delta":44480939},{"NoteNumber":49,"Velocity":63,"Duration":105250,"SoundDuration":105250,"Delta":44576784},{"NoteNumber":48,"Velocity":62,"Duration":105095,"SoundDuration":105095,"Delta":44674869},{"NoteNumber":47,"Velocity":59,"Duration":105095,"SoundDuration":105095,"Delta":44766429},{"NoteNumber":46,"Velocity":57,"Duration":105095,"SoundDuration":105095,"Delta":44868340},{"NoteNumber":48,"Velocity":63,"Duration":105095,"SoundDuration":105095,"Delta":44958308},{"NoteNumber":47,"Velocity":61,"Duration":105752,"SoundDuration":105752,"Delta":45056238},{"NoteNumber":46,"Velocity":59,"Duration":107191,"SoundDuration":107191,"Delta":45151473},{"NoteNumber":45,"Velocity":56,"Duration":108302,"SoundDuration":108302,"Delta":45254580},{"NoteNumber":47,"Velocity":64,"Duration":109045,"SoundDuration":109045,"Delta":45344744},{"NoteNumber":46,"Velocity":61,"Duration":110034,"SoundDuration":110034,"Delta":45445492},{"NoteNumber":45,"Velocity":59,"Duration":111006,"SoundDuration":111006,"Delta":45545468},{"NoteNumber":44,"Velocity":64,"Duration":111900,"SoundDuration":111900,"Delta":45646348},{"NoteNumber":46,"Velocity":55,"Duration":113014,"SoundDuration":113014,"Delta":45747168},{"NoteNumber":45,"Velocity":61,"Duration":113402,"SoundDuration":113402,"Delta":45854169},{"NoteNumber":44,"Velocity":66,"Duration":103253,"SoundDuration":103253,"Delta":45959839},{"NoteNumber":71,"Velocity":83,"Duration":1170003,"SoundDuration":1170003,"Delta":46059495},{"NoteNumber":75,"Velocity":83,"Duration":1170003,"SoundDuration":1170003,"Delta":46059495},{"NoteNumber":80,"Velocity":83,"Duration":1170003,"SoundDuration":1170003,"Delta":46059495},{"NoteNumber":83,"Velocity":91,"Duration":1170003,"SoundDuration":1170003,"Delta":46059495},{"NoteNumber":32,"Velocity":71,"Duration":107489,"SoundDuration":107489,"Delta":46063991},{"NoteNumber":43,"Velocity":50,"Duration":106998,"SoundDuration":106998,"Delta":46262685},{"NoteNumber":44,"Velocity":52,"Duration":106025,"SoundDuration":106025,"Delta":46364845},{"NoteNumber":47,"Velocity":53,"Duration":105431,"SoundDuration":105431,"Delta":46460487},{"NoteNumber":51,"Velocity":56,"Duration":105431,"SoundDuration":105431,"Delta":46556334},{"NoteNumber":46,"Velocity":52,"Duration":105431,"SoundDuration":105431,"Delta":46654577},{"NoteNumber":47,"Velocity":53,"Duration":105431,"SoundDuration":105431,"Delta":46746430},{"NoteNumber":51,"Velocity":56,"Duration":105577,"SoundDuration":105577,"Delta":46846270},{"NoteNumber":56,"Velocity":57,"Duration":106151,"SoundDuration":106151,"Delta":46939828},{"NoteNumber":50,"Velocity":54,"Duration":106807,"SoundDuration":106807,"Delta":47031464},{"NoteNumber":51,"Velocity":56,"Duration":109266,"SoundDuration":109266,"Delta":47132589},{"NoteNumber":75,"Velocity":72,"Duration":342205,"SoundDuration":342205,"Delta":47229498},{"NoteNumber":68,"Velocity":66,"Duration":342205,"SoundDuration":342205,"Delta":47229498},{"NoteNumber":71,"Velocity":66,"Duration":342205,"SoundDuration":342205,"Delta":47229498},{"NoteNumber":63,"Velocity":66,"Duration":342205,"SoundDuration":342205,"Delta":47229498},{"NoteNumber":56,"Velocity":59,"Duration":125475,"SoundDuration":125475,"Delta":47230448},{"NoteNumber":59,"Velocity":62,"Duration":125475,"SoundDuration":125475,"Delta":47342616},{"NoteNumber":55,"Velocity":61,"Duration":126950,"SoundDuration":126950,"Delta":47462388},{"NoteNumber":65,"Velocity":74,"Duration":124481,"SoundDuration":124481,"Delta":47571703},{"NoteNumber":77,"Velocity":81,"Duration":124481,"SoundDuration":124481,"Delta":47571703},{"NoteNumber":56,"Velocity":65,"Duration":124481,"SoundDuration":124481,"Delta":47571703},{"NoteNumber":78,"Velocity":91,"Duration":1173262,"SoundDuration":1173262,"Delta":47696185},{"NoteNumber":70,"Velocity":83,"Duration":1173262,"SoundDuration":1173262,"Delta":47696185},{"NoteNumber":75,"Velocity":83,"Duration":1173262,"SoundDuration":1173262,"Delta":47696185},{"NoteNumber":66,"Velocity":83,"Duration":1173262,"SoundDuration":1173262,"Delta":47696185},{"NoteNumber":39,"Velocity":71,"Duration":54744,"SoundDuration":54744,"Delta":47697097},{"NoteNumber":63,"Velocity":55,"Duration":107354,"SoundDuration":107354,"Delta":47805674},{"NoteNumber":53,"Velocity":56,"Duration":106885,"SoundDuration":106885,"Delta":47900853},{"NoteNumber":54,"Velocity":55,"Duration":106322,"SoundDuration":106322,"Delta":47999671},{"NoteNumber":58,"Velocity":59,"Duration":105851,"SoundDuration":105851,"Delta":48095543},{"NoteNumber":63,"Velocity":61,"Duration":105222,"SoundDuration":105222,"Delta":48189401},{"NoteNumber":50,"Velocity":51,"Duration":105337,"SoundDuration":105337,"Delta":48291439},{"NoteNumber":51,"Velocity":54,"Duration":105682,"SoundDuration":105682,"Delta":48382400},{"NoteNumber":54,"Velocity":59,"Duration":106114,"SoundDuration":106114,"Delta":48476841},{"NoteNumber":58,"Velocity":61,"Duration":106582,"SoundDuration":106582,"Delta":48576506},{"NoteNumber":45,"Velocity":54,"Duration":106935,"SoundDuration":106935,"Delta":48674998},{"NoteNumber":46,"Velocity":56,"Duration":108727,"SoundDuration":108727,"Delta":48767323},{"NoteNumber":51,"Velocity":57,"Duration":124208,"SoundDuration":124208,"Delta":48866936},{"NoteNumber":66,"Velocity":73,"Duration":339622,"SoundDuration":339622,"Delta":48869447},{"NoteNumber":78,"Velocity":80,"Duration":339622,"SoundDuration":339622,"Delta":48869447},{"NoteNumber":54,"Velocity":61,"Duration":124528,"SoundDuration":124528,"Delta":48978881},{"NoteNumber":41,"Velocity":63,"Duration":125606,"SoundDuration":125606,"Delta":49097749},{"NoteNumber":42,"Velocity":69,"Duration":122371,"SoundDuration":122371,"Delta":49208126},{"NoteNumber":80,"Velocity":85,"Duration":122449,"SoundDuration":122449,"Delta":49209069},{"NoteNumber":68,"Velocity":76,"Duration":122449,"SoundDuration":122449,"Delta":49209069},{"NoteNumber":81,"Velocity":91,"Duration":1169320,"SoundDuration":1169320,"Delta":49331518},{"NoteNumber":69,"Velocity":83,"Duration":1169320,"SoundDuration":1169320,"Delta":49331518},{"NoteNumber":73,"Velocity":83,"Duration":1169320,"SoundDuration":1169320,"Delta":49331518},{"NoteNumber":78,"Velocity":83,"Duration":1169320,"SoundDuration":1169320,"Delta":49331518},{"NoteNumber":30,"Velocity":74,"Duration":111813,"SoundDuration":111813,"Delta":49332451},{"NoteNumber":41,"Velocity":49,"Duration":105970,"SoundDuration":105970,"Delta":49541841},{"NoteNumber":42,"Velocity":50,"Duration":105508,"SoundDuration":105508,"Delta":49635791},{"NoteNumber":45,"Velocity":52,"Duration":105095,"SoundDuration":105095,"Delta":49734134},{"NoteNumber":49,"Velocity":55,"Duration":105095,"SoundDuration":105095,"Delta":49827287},{"NoteNumber":44,"Velocity":51,"Duration":105095,"SoundDuration":105095,"Delta":49926810},{"NoteNumber":45,"Velocity":52,"Duration":105095,"SoundDuration":105095,"Delta":50019962},{"NoteNumber":49,"Velocity":54,"Duration":105220,"SoundDuration":105220,"Delta":50112319},{"NoteNumber":54,"Velocity":56,"Duration":105877,"SoundDuration":105877,"Delta":50214345},{"NoteNumber":48,"Velocity":54,"Duration":106556,"SoundDuration":106556,"Delta":50309772},{"NoteNumber":49,"Velocity":56,"Duration":108086,"SoundDuration":108086,"Delta":50402574},{"NoteNumber":73,"Velocity":76,"Duration":321428,"SoundDuration":321428,"Delta":50500839},{"NoteNumber":66,"Velocity":70,"Duration":321428,"SoundDuration":321428,"Delta":50500839},{"NoteNumber":69,"Velocity":70,"Duration":321428,"SoundDuration":321428,"Delta":50500839},{"NoteNumber":61,"Velocity":70,"Duration":321428,"SoundDuration":321428,"Delta":50500839},{"NoteNumber":54,"Velocity":57,"Duration":117857,"SoundDuration":117857,"Delta":50505304},{"NoteNumber":57,"Velocity":61,"Duration":117857,"SoundDuration":117857,"Delta":50605303},{"NoteNumber":53,"Velocity":65,"Duration":118722,"SoundDuration":118722,"Delta":50718696},{"NoteNumber":63,"Velocity":77,"Duration":113636,"SoundDuration":113636,"Delta":50822267},{"NoteNumber":75,"Velocity":86,"Duration":113636,"SoundDuration":113636,"Delta":50822267},{"NoteNumber":54,"Velocity":67,"Duration":113578,"SoundDuration":113578,"Delta":50823214},{"NoteNumber":37,"Velocity":70,"Duration":53438,"SoundDuration":53438,"Delta":50934957},{"NoteNumber":76,"Velocity":91,"Duration":1168249,"SoundDuration":1168249,"Delta":50935904},{"NoteNumber":68,"Velocity":83,"Duration":1168249,"SoundDuration":1168249,"Delta":50935904},{"NoteNumber":73,"Velocity":83,"Duration":1168249,"SoundDuration":1168249,"Delta":50935904},{"NoteNumber":64,"Velocity":83,"Duration":1168249,"SoundDuration":1168249,"Delta":50935904},{"NoteNumber":61,"Velocity":60,"Duration":106109,"SoundDuration":106109,"Delta":51043469},{"NoteNumber":51,"Velocity":53,"Duration":106109,"SoundDuration":106109,"Delta":51140736},{"NoteNumber":52,"Velocity":56,"Duration":106109,"SoundDuration":106109,"Delta":51231572},{"NoteNumber":56,"Velocity":59,"Duration":106109,"SoundDuration":106109,"Delta":51330447},{"NoteNumber":61,"Velocity":61,"Duration":106109,"SoundDuration":106109,"Delta":51426106},{"NoteNumber":48,"Velocity":54,"Duration":106109,"SoundDuration":106109,"Delta":51524176},{"NoteNumber":49,"Velocity":55,"Duration":106109,"SoundDuration":106109,"Delta":51624659},{"NoteNumber":52,"Velocity":59,"Duration":106109,"SoundDuration":106109,"Delta":51719514},{"NoteNumber":56,"Velocity":62,"Duration":106109,"SoundDuration":106109,"Delta":51816781},{"NoteNumber":43,"Velocity":53,"Duration":106109,"SoundDuration":106109,"Delta":51914048},{"NoteNumber":44,"Velocity":56,"Duration":107379,"SoundDuration":107379,"Delta":52006491},{"NoteNumber":49,"Velocity":57,"Duration":116547,"SoundDuration":116547,"Delta":52103330},{"NoteNumber":64,"Velocity":73,"Duration":318021,"SoundDuration":318021,"Delta":52104153},{"NoteNumber":76,"Velocity":80,"Duration":318021,"SoundDuration":318021,"Delta":52104153},{"NoteNumber":52,"Velocity":61,"Duration":116607,"SoundDuration":116607,"Delta":52213694},{"NoteNumber":39,"Velocity":62,"Duration":117773,"SoundDuration":117773,"Delta":52314401},{"NoteNumber":40,"Velocity":65,"Duration":119883,"SoundDuration":119883,"Delta":52421291},{"NoteNumber":66,"Velocity":77,"Duration":119999,"SoundDuration":119999,"Delta":52422174},{"NoteNumber":78,"Velocity":86,"Duration":119999,"SoundDuration":119999,"Delta":52422174},{"NoteNumber":68,"Velocity":83,"Duration":1197366,"SoundDuration":1197366,"Delta":52542174},{"NoteNumber":75,"Velocity":83,"Duration":1197366,"SoundDuration":1197366,"Delta":52542174},{"NoteNumber":78,"Velocity":83,"Duration":1197366,"SoundDuration":1197366,"Delta":52542174},{"NoteNumber":80,"Velocity":91,"Duration":1197366,"SoundDuration":1197366,"Delta":52542174},{"NoteNumber":36,"Velocity":70,"Duration":49890,"SoundDuration":49890,"Delta":52543006},{"NoteNumber":63,"Velocity":60,"Duration":109758,"SoundDuration":109758,"Delta":52640292},{"NoteNumber":55,"Velocity":57,"Duration":109758,"SoundDuration":109758,"Delta":52744230},{"NoteNumber":56,"Velocity":59,"Duration":109758,"SoundDuration":109758,"Delta":52844010},{"NoteNumber":57,"Velocity":60,"Duration":109758,"SoundDuration":109758,"Delta":52943791},{"NoteNumber":56,"Velocity":61,"Duration":109758,"SoundDuration":109758,"Delta":53043571},{"NoteNumber":54,"Velocity":63,"Duration":109758,"SoundDuration":109758,"Delta":53137531},{"NoteNumber":52,"Velocity":64,"Duration":109758,"SoundDuration":109758,"Delta":53238143},{"NoteNumber":51,"Velocity":66,"Duration":109758,"SoundDuration":109758,"Delta":53337924},{"NoteNumber":49,"Velocity":65,"Duration":109758,"SoundDuration":109758,"Delta":53441862},{"NoteNumber":48,"Velocity":68,"Duration":109758,"SoundDuration":109758,"Delta":53544137},{"NoteNumber":45,"Velocity":70,"Duration":110835,"SoundDuration":110835,"Delta":53638928},{"NoteNumber":80,"Velocity":88,"Duration":334572,"SoundDuration":334572,"Delta":53739540},{"NoteNumber":75,"Velocity":80,"Duration":334572,"SoundDuration":334572,"Delta":53739540},{"NoteNumber":78,"Velocity":80,"Duration":334572,"SoundDuration":334572,"Delta":53739540},{"NoteNumber":68,"Velocity":80,"Duration":334572,"SoundDuration":334572,"Delta":53739540},{"NoteNumber":43,"Velocity":71,"Duration":122676,"SoundDuration":122676,"Delta":53739540},{"NoteNumber":44,"Velocity":71,"Duration":122676,"SoundDuration":122676,"Delta":53847347},{"NoteNumber":39,"Velocity":74,"Duration":123617,"SoundDuration":123617,"Delta":53966306},{"NoteNumber":44,"Velocity":75,"Duration":118400,"SoundDuration":118400,"Delta":54071325},{"NoteNumber":70,"Velocity":84,"Duration":118577,"SoundDuration":118577,"Delta":54074113},{"NoteNumber":82,"Velocity":92,"Duration":118577,"SoundDuration":118577,"Delta":54074113},{"NoteNumber":83,"Velocity":99,"Duration":419580,"SoundDuration":419580,"Delta":54192690},{"NoteNumber":77,"Velocity":91,"Duration":419580,"SoundDuration":419580,"Delta":54192690},{"NoteNumber":80,"Velocity":91,"Duration":419580,"SoundDuration":419580,"Delta":54192690},{"NoteNumber":71,"Velocity":91,"Duration":419580,"SoundDuration":419580,"Delta":54192690},{"NoteNumber":38,"Velocity":77,"Duration":52447,"SoundDuration":52447,"Delta":54192690},{"NoteNumber":65,"Velocity":73,"Duration":115384,"SoundDuration":115384,"Delta":54299333},{"NoteNumber":57,"Velocity":73,"Duration":115384,"SoundDuration":115384,"Delta":54401606},{"NoteNumber":58,"Velocity":71,"Duration":115132,"SoundDuration":115132,"Delta":54509123},{"NoteNumber":59,"Velocity":72,"Duration":113096,"SoundDuration":113096,"Delta":54607899},{"NoteNumber":70,"Velocity":91,"Duration":821862,"SoundDuration":821862,"Delta":54612270},{"NoteNumber":77,"Velocity":91,"Duration":821862,"SoundDuration":821862,"Delta":54612270},{"NoteNumber":80,"Velocity":91,"Duration":821862,"SoundDuration":821862,"Delta":54612270},{"NoteNumber":82,"Velocity":99,"Duration":821862,"SoundDuration":821862,"Delta":54612270},{"NoteNumber":58,"Velocity":69,"Duration":113006,"SoundDuration":113006,"Delta":54710722},{"NoteNumber":56,"Velocity":71,"Duration":113006,"SoundDuration":113006,"Delta":54813455},{"NoteNumber":54,"Velocity":69,"Duration":113006,"SoundDuration":113006,"Delta":54916188},{"NoteNumber":53,"Velocity":68,"Duration":113006,"SoundDuration":113006,"Delta":55021489},{"NoteNumber":51,"Velocity":67,"Duration":113006,"SoundDuration":113006,"Delta":55124222},{"NoteNumber":50,"Velocity":67,"Duration":113006,"SoundDuration":113006,"Delta":55230379},{"NoteNumber":47,"Velocity":66,"Duration":114254,"SoundDuration":114254,"Delta":55327975},{"NoteNumber":45,"Velocity":64,"Duration":133447,"SoundDuration":133447,"Delta":55433276},{"NoteNumber":70,"Velocity":93,"Duration":364372,"SoundDuration":364372,"Delta":55434132},{"NoteNumber":77,"Velocity":93,"Duration":364372,"SoundDuration":364372,"Delta":55434132},{"NoteNumber":80,"Velocity":93,"Duration":364372,"SoundDuration":364372,"Delta":55434132},{"NoteNumber":82,"Velocity":102,"Duration":364372,"SoundDuration":364372,"Delta":55434132},{"NoteNumber":46,"Velocity":63,"Duration":133603,"SoundDuration":133603,"Delta":55550529},{"NoteNumber":41,"Velocity":63,"Duration":134851,"SoundDuration":134851,"Delta":55679071},{"NoteNumber":72,"Velocity":93,"Duration":132158,"SoundDuration":132158,"Delta":55798505},{"NoteNumber":84,"Velocity":102,"Duration":132158,"SoundDuration":132158,"Delta":55798505},{"NoteNumber":46,"Velocity":62,"Duration":131842,"SoundDuration":131842,"Delta":55800707},{"NoteNumber":40,"Velocity":60,"Duration":57077,"SoundDuration":57077,"Delta":55927359},{"NoteNumber":73,"Velocity":95,"Duration":452829,"SoundDuration":452829,"Delta":55930663},{"NoteNumber":79,"Velocity":95,"Duration":452829,"SoundDuration":452829,"Delta":55930663},{"NoteNumber":82,"Velocity":95,"Duration":452829,"SoundDuration":452829,"Delta":55930663},{"NoteNumber":85,"Velocity":106,"Duration":452829,"SoundDuration":452829,"Delta":55930663},{"NoteNumber":67,"Velocity":57,"Duration":124528,"SoundDuration":124528,"Delta":56045757},{"NoteNumber":59,"Velocity":57,"Duration":124528,"SoundDuration":124528,"Delta":56158022},{"NoteNumber":60,"Velocity":56,"Duration":123306,"SoundDuration":123306,"Delta":56272172},{"NoteNumber":82,"Velocity":90,"Duration":409765,"SoundDuration":409765,"Delta":56383493},{"NoteNumber":72,"Velocity":90,"Duration":409765,"SoundDuration":409765,"Delta":56383493},{"NoteNumber":79,"Velocity":90,"Duration":409765,"SoundDuration":409765,"Delta":56383493},{"NoteNumber":84,"Velocity":97,"Duration":409765,"SoundDuration":409765,"Delta":56383493},{"NoteNumber":61,"Velocity":59,"Duration":113006,"SoundDuration":113006,"Delta":56383493},{"NoteNumber":60,"Velocity":59,"Duration":112819,"SoundDuration":112819,"Delta":56482801},{"NoteNumber":58,"Velocity":59,"Duration":112609,"SoundDuration":112609,"Delta":56588794},{"NoteNumber":56,"Velocity":57,"Duration":112282,"SoundDuration":112282,"Delta":56686930},{"NoteNumber":55,"Velocity":57,"Duration":112059,"SoundDuration":112059,"Delta":56797511},{"NoteNumber":53,"Velocity":57,"Duration":111876,"SoundDuration":111876,"Delta":56895157},{"NoteNumber":52,"Velocity":57,"Duration":111546,"SoundDuration":111546,"Delta":57001119},{"NoteNumber":55,"Velocity":55,"Duration":111012,"SoundDuration":111012,"Delta":57100835},{"NoteNumber":53,"Velocity":56,"Duration":110045,"SoundDuration":110045,"Delta":57199277},{"NoteNumber":52,"Velocity":56,"Duration":109053,"SoundDuration":109053,"Delta":57301023},{"NoteNumber":49,"Velocity":55,"Duration":108219,"SoundDuration":108219,"Delta":57400186},{"NoteNumber":48,"Velocity":52,"Duration":107085,"SoundDuration":107085,"Delta":57496161},{"NoteNumber":47,"Velocity":55,"Duration":105441,"SoundDuration":105441,"Delta":57593652},{"NoteNumber":48,"Velocity":55,"Duration":105431,"SoundDuration":105431,"Delta":57686314},{"NoteNumber":49,"Velocity":57,"Duration":105431,"SoundDuration":105431,"Delta":57788550},{"NoteNumber":48,"Velocity":55,"Duration":105431,"SoundDuration":105431,"Delta":57878806},{"NoteNumber":46,"Velocity":57,"Duration":105431,"SoundDuration":105431,"Delta":57973854},{"NoteNumber":44,"Velocity":59,"Duration":105431,"SoundDuration":105431,"Delta":58072097},{"NoteNumber":43,"Velocity":60,"Duration":105431,"SoundDuration":105431,"Delta":58171937},{"NoteNumber":41,"Velocity":62,"Duration":105431,"SoundDuration":105431,"Delta":58262992},{"NoteNumber":40,"Velocity":63,"Duration":115814,"SoundDuration":115814,"Delta":58359637},{"NoteNumber":37,"Velocity":63,"Duration":115814,"SoundDuration":115814,"Delta":58457082},{"NoteNumber":36,"Velocity":67,"Duration":115789,"SoundDuration":115789,"Delta":58548935},{"NoteNumber":35,"Velocity":67,"Duration":115870,"SoundDuration":115870,"Delta":58647976},{"NoteNumber":36,"Velocity":71,"Duration":118584,"SoundDuration":118584,"Delta":58744266},{"NoteNumber":34,"Velocity":70,"Duration":119443,"SoundDuration":119443,"Delta":58843146},{"NoteNumber":32,"Velocity":74,"Duration":120288,"SoundDuration":120288,"Delta":58943586},{"NoteNumber":31,"Velocity":73,"Duration":100150,"SoundDuration":100150,"Delta":59039739},{"NoteNumber":29,"Velocity":76,"Duration":112829,"SoundDuration":112829,"Delta":59139053},{"NoteNumber":92,"Velocity":104,"Duration":806777,"SoundDuration":806777,"Delta":59140727},{"NoteNumber":89,"Velocity":95,"Duration":806777,"SoundDuration":806777,"Delta":59140727},{"NoteNumber":84,"Velocity":95,"Duration":806777,"SoundDuration":806777,"Delta":59140727},{"NoteNumber":80,"Velocity":95,"Duration":806777,"SoundDuration":806777,"Delta":59140727},{"NoteNumber":36,"Velocity":63,"Duration":112303,"SoundDuration":112303,"Delta":59246763},{"NoteNumber":41,"Velocity":63,"Duration":111701,"SoundDuration":111701,"Delta":59349744},{"NoteNumber":43,"Velocity":63,"Duration":111185,"SoundDuration":111185,"Delta":59447931},{"NoteNumber":44,"Velocity":63,"Duration":110578,"SoundDuration":110578,"Delta":59552405},{"NoteNumber":48,"Velocity":64,"Duration":110106,"SoundDuration":110106,"Delta":59644589},{"NoteNumber":53,"Velocity":68,"Duration":109488,"SoundDuration":109488,"Delta":59749712},{"NoteNumber":55,"Velocity":68,"Duration":109642,"SoundDuration":109642,"Delta":59851750},{"NoteNumber":56,"Velocity":72,"Duration":114537,"SoundDuration":114537,"Delta":59946681},{"NoteNumber":89,"Velocity":95,"Duration":416666,"SoundDuration":416666,"Delta":59947504},{"NoteNumber":84,"Velocity":88,"Duration":416666,"SoundDuration":416666,"Delta":59947504},{"NoteNumber":77,"Velocity":88,"Duration":416666,"SoundDuration":416666,"Delta":59947504},{"NoteNumber":60,"Velocity":75,"Duration":114583,"SoundDuration":114583,"Delta":60049934},{"NoteNumber":65,"Velocity":76,"Duration":114583,"SoundDuration":114583,"Delta":60154101},{"NoteNumber":67,"Velocity":77,"Duration":114734,"SoundDuration":114734,"Delta":60255664},{"NoteNumber":72,"Velocity":84,"Duration":427045,"SoundDuration":427045,"Delta":60364171},{"NoteNumber":77,"Velocity":84,"Duration":427045,"SoundDuration":427045,"Delta":60364171},{"NoteNumber":84,"Velocity":92,"Duration":427045,"SoundDuration":427045,"Delta":60364171},{"NoteNumber":68,"Velocity":79,"Duration":117437,"SoundDuration":117437,"Delta":60365060},{"NoteNumber":67,"Velocity":77,"Duration":117437,"SoundDuration":117437,"Delta":60470043},{"NoteNumber":65,"Velocity":71,"Duration":117437,"SoundDuration":117437,"Delta":60573245},{"NoteNumber":60,"Velocity":67,"Duration":106761,"SoundDuration":106761,"Delta":60680007},{"NoteNumber":77,"Velocity":87,"Duration":1222329,"SoundDuration":1222329,"Delta":60791217},{"NoteNumber":70,"Velocity":87,"Duration":821917,"SoundDuration":821917,"Delta":60791217},{"NoteNumber":82,"Velocity":95,"Duration":821917,"SoundDuration":821917,"Delta":60791217},{"NoteNumber":61,"Velocity":64,"Duration":113013,"SoundDuration":113013,"Delta":60791217},{"NoteNumber":65,"Velocity":63,"Duration":113013,"SoundDuration":113013,"Delta":60897381},{"NoteNumber":61,"Velocity":62,"Duration":113013,"SoundDuration":113013,"Delta":61000977},{"NoteNumber":56,"Velocity":61,"Duration":113013,"SoundDuration":113013,"Delta":61098580},{"NoteNumber":53,"Velocity":59,"Duration":113013,"SoundDuration":113013,"Delta":61204744},{"NoteNumber":49,"Velocity":57,"Duration":113013,"SoundDuration":113013,"Delta":61305772},{"NoteNumber":44,"Velocity":57,"Duration":113013,"SoundDuration":113013,"Delta":61410224},{"NoteNumber":41,"Velocity":56,"Duration":102662,"SoundDuration":102662,"Delta":61513820},{"NoteNumber":68,"Velocity":71,"Duration":400412,"SoundDuration":400412,"Delta":61613135},{"NoteNumber":80,"Velocity":77,"Duration":400412,"SoundDuration":400412,"Delta":61613135},{"NoteNumber":37,"Velocity":55,"Duration":132230,"SoundDuration":132230,"Delta":61613972},{"NoteNumber":32,"Velocity":54,"Duration":131905,"SoundDuration":131905,"Delta":61714400},{"NoteNumber":37,"Velocity":55,"Duration":131603,"SoundDuration":131603,"Delta":61809602},{"NoteNumber":41,"Velocity":52,"Duration":119665,"SoundDuration":119665,"Delta":61916261},{"NoteNumber":37,"Velocity":55,"Duration":130959,"SoundDuration":130959,"Delta":62013547},{"NoteNumber":32,"Velocity":54,"Duration":130646,"SoundDuration":130646,"Delta":62113839},{"NoteNumber":37,"Velocity":55,"Duration":130337,"SoundDuration":130337,"Delta":62213089},{"NoteNumber":41,"Velocity":53,"Duration":98797,"SoundDuration":98797,"Delta":62312129},{"NoteNumber":80,"Velocity":84,"Duration":805964,"SoundDuration":805964,"Delta":62410087},{"NoteNumber":89,"Velocity":84,"Duration":805964,"SoundDuration":805964,"Delta":62410087},{"NoteNumber":84,"Velocity":84,"Duration":805964,"SoundDuration":805964,"Delta":62410087},{"NoteNumber":92,"Velocity":92,"Duration":805964,"SoundDuration":805964,"Delta":62410087},{"NoteNumber":29,"Velocity":55,"Duration":110820,"SoundDuration":110820,"Delta":62412606},{"NoteNumber":36,"Velocity":53,"Duration":110820,"SoundDuration":110820,"Delta":62512511},{"NoteNumber":41,"Velocity":55,"Duration":110820,"SoundDuration":110820,"Delta":62609899},{"NoteNumber":43,"Velocity":53,"Duration":110820,"SoundDuration":110820,"Delta":62708126},{"NoteNumber":44,"Velocity":56,"Duration":110820,"SoundDuration":110820,"Delta":62810550},{"NoteNumber":48,"Velocity":57,"Duration":110820,"SoundDuration":110820,"Delta":62912135},{"NoteNumber":53,"Velocity":57,"Duration":110820,"SoundDuration":110820,"Delta":63012041},{"NoteNumber":55,"Velocity":57,"Duration":111384,"SoundDuration":111384,"Delta":63117824},{"NoteNumber":56,"Velocity":59,"Duration":115751,"SoundDuration":115751,"Delta":63215211},{"NoteNumber":89,"Velocity":87,"Duration":421053,"SoundDuration":421053,"Delta":63216051},{"NoteNumber":84,"Velocity":79,"Duration":421053,"SoundDuration":421053,"Delta":63216051},{"NoteNumber":77,"Velocity":79,"Duration":421053,"SoundDuration":421053,"Delta":63216051},{"NoteNumber":60,"Velocity":57,"Duration":115789,"SoundDuration":115789,"Delta":63324823},{"NoteNumber":65,"Velocity":59,"Duration":115789,"SoundDuration":115789,"Delta":63423069},{"NoteNumber":67,"Velocity":57,"Duration":116098,"SoundDuration":116098,"Delta":63533595},{"NoteNumber":72,"Velocity":79,"Duration":431654,"SoundDuration":431654,"Delta":63637104},{"NoteNumber":77,"Velocity":79,"Duration":431654,"SoundDuration":431654,"Delta":63637104},{"NoteNumber":84,"Velocity":87,"Duration":431654,"SoundDuration":431654,"Delta":63637104},{"NoteNumber":68,"Velocity":60,"Duration":118705,"SoundDuration":118705,"Delta":63638003},{"NoteNumber":67,"Velocity":63,"Duration":118705,"SoundDuration":118705,"Delta":63748615},{"NoteNumber":65,"Velocity":60,"Duration":118705,"SoundDuration":118705,"Delta":63850234},{"NoteNumber":60,"Velocity":57,"Duration":107913,"SoundDuration":107913,"Delta":63960845},{"NoteNumber":72,"Velocity":86,"Duration":1192296,"SoundDuration":1192296,"Delta":64068759},{"NoteNumber":77,"Velocity":86,"Duration":1192296,"SoundDuration":1192296,"Delta":64068759},{"NoteNumber":84,"Velocity":94,"Duration":1192296,"SoundDuration":1192296,"Delta":64068759},{"NoteNumber":62,"Velocity":59,"Duration":110820,"SoundDuration":110820,"Delta":64072117},{"NoteNumber":65,"Velocity":57,"Duration":110201,"SoundDuration":110201,"Delta":64172023},{"NoteNumber":62,"Velocity":59,"Duration":109851,"SoundDuration":109851,"Delta":64273883},{"NoteNumber":60,"Velocity":57,"Duration":109575,"SoundDuration":109575,"Delta":64367104},{"NoteNumber":56,"Velocity":59,"Duration":109261,"SoundDuration":109261,"Delta":64472536},{"NoteNumber":53,"Velocity":59,"Duration":108970,"SoundDuration":108970,"Delta":64571057},{"NoteNumber":50,"Velocity":59,"Duration":108672,"SoundDuration":108672,"Delta":64671792},{"NoteNumber":48,"Velocity":57,"Duration":108333,"SoundDuration":108333,"Delta":64769791},{"NoteNumber":44,"Velocity":57,"Duration":108178,"SoundDuration":108178,"Delta":64868303},{"NoteNumber":41,"Velocity":57,"Duration":108649,"SoundDuration":108649,"Delta":64964166},{"NoteNumber":38,"Velocity":57,"Duration":109183,"SoundDuration":109183,"Delta":65059604},{"NoteNumber":36,"Velocity":55,"Duration":110936,"SoundDuration":110936,"Delta":65162156},{"NoteNumber":32,"Velocity":57,"Duration":121946,"SoundDuration":121946,"Delta":65258553},{"NoteNumber":71,"Velocity":75,"Duration":333332,"SoundDuration":333332,"Delta":65261056},{"NoteNumber":77,"Velocity":75,"Duration":333332,"SoundDuration":333332,"Delta":65261056},{"NoteNumber":83,"Velocity":82,"Duration":333332,"SoundDuration":333332,"Delta":65261056},{"NoteNumber":36,"Velocity":61,"Duration":122222,"SoundDuration":122222,"Delta":65369389},{"NoteNumber":38,"Velocity":65,"Duration":123214,"SoundDuration":123214,"Delta":65486055},{"NoteNumber":72,"Velocity":85,"Duration":119047,"SoundDuration":119047,"Delta":65594389},{"NoteNumber":84,"Velocity":93,"Duration":119047,"SoundDuration":119047,"Delta":65594389},{"NoteNumber":44,"Velocity":68,"Duration":119157,"SoundDuration":119157,"Delta":65597365},{"NoteNumber":31,"Velocity":79,"Duration":246766,"SoundDuration":246766,"Delta":65709468},{"NoteNumber":74,"Velocity":93,"Duration":788819,"SoundDuration":788819,"Delta":65713436},{"NoteNumber":83,"Velocity":93,"Duration":788819,"SoundDuration":788819,"Delta":65713436},{"NoteNumber":77,"Velocity":93,"Duration":788819,"SoundDuration":788819,"Delta":65713436},{"NoteNumber":86,"Velocity":102,"Duration":788819,"SoundDuration":788819,"Delta":65713436},{"NoteNumber":43,"Velocity":79,"Duration":246352,"SoundDuration":246352,"Delta":65715494},{"NoteNumber":68,"Velocity":73,"Duration":98802,"SoundDuration":98802,"Delta":65960350},{"NoteNumber":67,"Velocity":72,"Duration":98997,"SoundDuration":98997,"Delta":66046427},{"NoteNumber":65,"Velocity":79,"Duration":99223,"SoundDuration":99223,"Delta":66142422},{"NoteNumber":62,"Velocity":72,"Duration":99479,"SoundDuration":99479,"Delta":66233362},{"NoteNumber":63,"Velocity":72,"Duration":99697,"SoundDuration":99697,"Delta":66317736},{"NoteNumber":62,"Velocity":69,"Duration":99949,"SoundDuration":99949,"Delta":66409881},{"NoteNumber":59,"Velocity":79,"Duration":100168,"SoundDuration":100168,"Delta":66503013},{"NoteNumber":55,"Velocity":72,"Duration":100424,"SoundDuration":100424,"Delta":66593302},{"NoteNumber":56,"Velocity":72,"Duration":100644,"SoundDuration":100644,"Delta":66686867},{"NoteNumber":55,"Velocity":70,"Duration":100910,"SoundDuration":100910,"Delta":66773757},{"NoteNumber":53,"Velocity":79,"Duration":101140,"SoundDuration":101140,"Delta":66870081},{"NoteNumber":50,"Velocity":71,"Duration":101408,"SoundDuration":101408,"Delta":66963552},{"NoteNumber":51,"Velocity":71,"Duration":101602,"SoundDuration":101602,"Delta":67048038},{"NoteNumber":50,"Velocity":70,"Duration":101885,"SoundDuration":101885,"Delta":67145782},{"NoteNumber":47,"Velocity":79,"Duration":102167,"SoundDuration":102167,"Delta":67238380},{"NoteNumber":43,"Velocity":70,"Duration":102167,"SoundDuration":102167,"Delta":67326615},{"NoteNumber":44,"Velocity":71,"Duration":102167,"SoundDuration":102167,"Delta":67418720},{"NoteNumber":43,"Velocity":69,"Duration":102167,"SoundDuration":102167,"Delta":67513921},{"NoteNumber":41,"Velocity":79,"Duration":102167,"SoundDuration":102167,"Delta":67609897},{"NoteNumber":38,"Velocity":70,"Duration":102167,"SoundDuration":102167,"Delta":67704324},{"NoteNumber":39,"Velocity":71,"Duration":102167,"SoundDuration":102167,"Delta":67794881},{"NoteNumber":38,"Velocity":68,"Duration":92879,"SoundDuration":92879,"Delta":67886212},{"NoteNumber":36,"Velocity":79,"Duration":126198,"SoundDuration":126198,"Delta":67982262},{"NoteNumber":31,"Velocity":69,"Duration":126198,"SoundDuration":126198,"Delta":68073316},{"NoteNumber":36,"Velocity":72,"Duration":126198,"SoundDuration":126198,"Delta":68173156},{"NoteNumber":31,"Velocity":71,"Duration":137294,"SoundDuration":137294,"Delta":68265010},{"NoteNumber":36,"Velocity":75,"Duration":166887,"SoundDuration":166887,"Delta":68362535},{"NoteNumber":68,"Velocity":94,"Duration":381356,"SoundDuration":381356,"Delta":68365228},{"NoteNumber":75,"Velocity":94,"Duration":381356,"SoundDuration":381356,"Delta":68365228},{"NoteNumber":77,"Velocity":94,"Duration":381356,"SoundDuration":381356,"Delta":68365228},{"NoteNumber":80,"Velocity":103,"Duration":381356,"SoundDuration":381356,"Delta":68365228},{"NoteNumber":31,"Velocity":76,"Duration":167373,"SoundDuration":167373,"Delta":68497643},{"NoteNumber":36,"Velocity":77,"Duration":185138,"SoundDuration":185138,"Delta":68617346},{"NoteNumber":31,"Velocity":76,"Duration":181890,"SoundDuration":181890,"Delta":68741287},{"NoteNumber":67,"Velocity":89,"Duration":181062,"SoundDuration":181062,"Delta":68746584},{"NoteNumber":79,"Velocity":97,"Duration":181062,"SoundDuration":181062,"Delta":68746584},{"NoteNumber":89,"Velocity":107,"Duration":767469,"SoundDuration":767469,"Delta":68927646},{"NoteNumber":86,"Velocity":97,"Duration":767469,"SoundDuration":767469,"Delta":68927646},{"NoteNumber":77,"Velocity":97,"Duration":767469,"SoundDuration":767469,"Delta":68927646},{"NoteNumber":79,"Velocity":97,"Duration":767469,"SoundDuration":767469,"Delta":68927646},{"NoteNumber":35,"Velocity":79,"Duration":112781,"SoundDuration":112781,"Delta":68930466},{"NoteNumber":68,"Velocity":71,"Duration":99567,"SoundDuration":99567,"Delta":69149451},{"NoteNumber":67,"Velocity":71,"Duration":98997,"SoundDuration":98997,"Delta":69239288},{"NoteNumber":65,"Velocity":79,"Duration":99205,"SoundDuration":99205,"Delta":69329277},{"NoteNumber":62,"Velocity":72,"Duration":99465,"SoundDuration":99465,"Delta":69421705},{"NoteNumber":63,"Velocity":72,"Duration":99697,"SoundDuration":99697,"Delta":69515129},{"NoteNumber":62,"Velocity":71,"Duration":99949,"SoundDuration":99949,"Delta":69602742},{"NoteNumber":59,"Velocity":79,"Duration":100163,"SoundDuration":100163,"Delta":69694358},{"NoteNumber":55,"Velocity":71,"Duration":100422,"SoundDuration":100422,"Delta":69785403},{"NoteNumber":56,"Velocity":71,"Duration":100626,"SoundDuration":100626,"Delta":69873630},{"NoteNumber":55,"Velocity":69,"Duration":100917,"SoundDuration":100917,"Delta":69968905},{"NoteNumber":53,"Velocity":79,"Duration":101137,"SoundDuration":101137,"Delta":70062177},{"NoteNumber":50,"Velocity":72,"Duration":101392,"SoundDuration":101392,"Delta":70151045},{"NoteNumber":51,"Velocity":72,"Duration":101619,"SoundDuration":101619,"Delta":70246283},{"NoteNumber":50,"Velocity":71,"Duration":101889,"SoundDuration":101889,"Delta":70340186},{"NoteNumber":47,"Velocity":79,"Duration":102167,"SoundDuration":102167,"Delta":70429692},{"NoteNumber":43,"Velocity":71,"Duration":102167,"SoundDuration":102167,"Delta":70523346},{"NoteNumber":44,"Velocity":71,"Duration":102167,"SoundDuration":102167,"Delta":70611581},{"NoteNumber":43,"Velocity":70,"Duration":102167,"SoundDuration":102167,"Delta":70708330},{"NoteNumber":41,"Velocity":79,"Duration":102167,"SoundDuration":102167,"Delta":70798887},{"NoteNumber":38,"Velocity":71,"Duration":102524,"SoundDuration":102524,"Delta":70893315},{"NoteNumber":39,"Velocity":71,"Duration":106451,"SoundDuration":106451,"Delta":70990194},{"NoteNumber":38,"Velocity":70,"Duration":106451,"SoundDuration":106451,"Delta":71083742},{"NoteNumber":36,"Velocity":79,"Duration":106451,"SoundDuration":106451,"Delta":71176484},{"NoteNumber":31,"Velocity":71,"Duration":106451,"SoundDuration":106451,"Delta":71278097},{"NoteNumber":36,"Velocity":73,"Duration":106451,"SoundDuration":106451,"Delta":71375678},{"NoteNumber":31,"Velocity":74,"Duration":110894,"SoundDuration":110894,"Delta":71473259},{"NoteNumber":80,"Velocity":95,"Duration":382978,"SoundDuration":382978,"Delta":71568196},{"NoteNumber":75,"Velocity":88,"Duration":382978,"SoundDuration":382978,"Delta":71568196},{"NoteNumber":77,"Velocity":88,"Duration":382978,"SoundDuration":382978,"Delta":71568196},{"NoteNumber":68,"Velocity":88,"Duration":382978,"SoundDuration":382978,"Delta":71568196},{"NoteNumber":36,"Velocity":76,"Duration":140425,"SoundDuration":140425,"Delta":71572451},{"NoteNumber":31,"Velocity":76,"Duration":140425,"SoundDuration":140425,"Delta":71700111},{"NoteNumber":36,"Velocity":79,"Duration":144847,"SoundDuration":144847,"Delta":71821387},{"NoteNumber":67,"Velocity":84,"Duration":172288,"SoundDuration":172288,"Delta":71951175},{"NoteNumber":79,"Velocity":92,"Duration":172288,"SoundDuration":172288,"Delta":71951175},{"NoteNumber":31,"Velocity":79,"Duration":169688,"SoundDuration":169688,"Delta":71957199},{"NoteNumber":77,"Velocity":98,"Duration":205465,"SoundDuration":205465,"Delta":72123463},{"NoteNumber":86,"Velocity":98,"Duration":205465,"SoundDuration":205465,"Delta":72123463},{"NoteNumber":79,"Velocity":98,"Duration":205465,"SoundDuration":205465,"Delta":72123463},{"NoteNumber":91,"Velocity":108,"Duration":205465,"SoundDuration":205465,"Delta":72123463},{"NoteNumber":35,"Velocity":79,"Duration":102732,"SoundDuration":102732,"Delta":72123463},{"NoteNumber":92,"Velocity":87,"Duration":98802,"SoundDuration":98802,"Delta":72330425},{"NoteNumber":80,"Velocity":79,"Duration":98802,"SoundDuration":98802,"Delta":72330425},{"NoteNumber":79,"Velocity":71,"Duration":99049,"SoundDuration":99049,"Delta":72417252},{"NoteNumber":91,"Velocity":80,"Duration":99060,"SoundDuration":99060,"Delta":72420994},{"NoteNumber":77,"Velocity":79,"Duration":99309,"SoundDuration":99309,"Delta":72509544},{"NoteNumber":89,"Velocity":87,"Duration":99316,"SoundDuration":99316,"Delta":72511797},{"NoteNumber":74,"Velocity":71,"Duration":99556,"SoundDuration":99556,"Delta":72597559},{"NoteNumber":86,"Velocity":77,"Duration":99568,"SoundDuration":99568,"Delta":72601324},{"NoteNumber":75,"Velocity":71,"Duration":99819,"SoundDuration":99819,"Delta":72690318},{"NoteNumber":87,"Velocity":77,"Duration":99826,"SoundDuration":99826,"Delta":72692584},{"NoteNumber":74,"Velocity":70,"Duration":100078,"SoundDuration":100078,"Delta":72781804},{"NoteNumber":86,"Velocity":76,"Duration":100082,"SoundDuration":100082,"Delta":72783319},{"NoteNumber":71,"Velocity":79,"Duration":100324,"SoundDuration":100324,"Delta":72868964},{"NoteNumber":83,"Velocity":87,"Duration":100343,"SoundDuration":100343,"Delta":72875043},{"NoteNumber":79,"Velocity":77,"Duration":100609,"SoundDuration":100609,"Delta":72962429},{"NoteNumber":67,"Velocity":70,"Duration":100609,"SoundDuration":100609,"Delta":72963191},{"NoteNumber":80,"Velocity":77,"Duration":100868,"SoundDuration":100868,"Delta":73053131},{"NoteNumber":68,"Velocity":70,"Duration":100870,"SoundDuration":100870,"Delta":73053893},{"NoteNumber":79,"Velocity":76,"Duration":101123,"SoundDuration":101123,"Delta":73142531},{"NoteNumber":67,"Velocity":69,"Duration":101144,"SoundDuration":101144,"Delta":73149412},{"NoteNumber":77,"Velocity":87,"Duration":101392,"SoundDuration":101392,"Delta":73235986},{"NoteNumber":65,"Velocity":79,"Duration":101401,"SoundDuration":101401,"Delta":73239054},{"NoteNumber":62,"Velocity":71,"Duration":101669,"SoundDuration":101669,"Delta":73331994},{"NoteNumber":74,"Velocity":77,"Duration":101671,"SoundDuration":101671,"Delta":73332763},{"NoteNumber":75,"Velocity":77,"Duration":101925,"SoundDuration":101925,"Delta":73421317},{"NoteNumber":63,"Velocity":71,"Duration":101930,"SoundDuration":101930,"Delta":73422860},{"NoteNumber":74,"Velocity":76,"Duration":102186,"SoundDuration":102186,"Delta":73511633},{"NoteNumber":62,"Velocity":69,"Duration":102193,"SoundDuration":102193,"Delta":73513955},{"NoteNumber":71,"Velocity":87,"Duration":102472,"SoundDuration":102472,"Delta":73603738},{"NoteNumber":59,"Velocity":79,"Duration":102484,"SoundDuration":102484,"Delta":73609937},{"NoteNumber":67,"Velocity":77,"Duration":102484,"SoundDuration":102484,"Delta":73702329},{"NoteNumber":55,"Velocity":71,"Duration":102484,"SoundDuration":102484,"Delta":73703105},{"NoteNumber":68,"Velocity":77,"Duration":102484,"SoundDuration":102484,"Delta":73796273},{"NoteNumber":56,"Velocity":71,"Duration":102484,"SoundDuration":102484,"Delta":73797826},{"NoteNumber":67,"Velocity":76,"Duration":102484,"SoundDuration":102484,"Delta":73883229},{"NoteNumber":55,"Velocity":69,"Duration":102484,"SoundDuration":102484,"Delta":73884782},{"NoteNumber":65,"Velocity":87,"Duration":102484,"SoundDuration":102484,"Delta":73976397},{"NoteNumber":53,"Velocity":79,"Duration":102484,"SoundDuration":102484,"Delta":73981056},{"NoteNumber":62,"Velocity":77,"Duration":102484,"SoundDuration":102484,"Delta":74072671},{"NoteNumber":50,"Velocity":71,"Duration":102484,"SoundDuration":102484,"Delta":74077329},{"NoteNumber":51,"Velocity":71,"Duration":102484,"SoundDuration":102484,"Delta":74167391},{"NoteNumber":63,"Velocity":77,"Duration":102484,"SoundDuration":102484,"Delta":74168167},{"NoteNumber":62,"Velocity":76,"Duration":102484,"SoundDuration":102484,"Delta":74262112},{"NoteNumber":50,"Velocity":69,"Duration":102484,"SoundDuration":102484,"Delta":74263664},{"NoteNumber":59,"Velocity":87,"Duration":102484,"SoundDuration":102484,"Delta":74349845},{"NoteNumber":47,"Velocity":79,"Duration":102484,"SoundDuration":102484,"Delta":74352950},{"NoteNumber":55,"Velocity":77,"Duration":102484,"SoundDuration":102484,"Delta":74443012},{"NoteNumber":43,"Velocity":71,"Duration":102484,"SoundDuration":102484,"Delta":74446118},{"NoteNumber":56,"Velocity":77,"Duration":102484,"SoundDuration":102484,"Delta":74535404},{"NoteNumber":44,"Velocity":71,"Duration":102484,"SoundDuration":102484,"Delta":74538509},{"NoteNumber":55,"Velocity":76,"Duration":102484,"SoundDuration":102484,"Delta":74630901},{"NoteNumber":43,"Velocity":69,"Duration":102484,"SoundDuration":102484,"Delta":74635559},{"NoteNumber":53,"Velocity":87,"Duration":102484,"SoundDuration":102484,"Delta":74721739},{"NoteNumber":41,"Velocity":79,"Duration":102484,"SoundDuration":102484,"Delta":74729503},{"NoteNumber":38,"Velocity":71,"Duration":102484,"SoundDuration":102484,"Delta":74816460},{"NoteNumber":50,"Velocity":77,"Duration":102484,"SoundDuration":102484,"Delta":74822671},{"NoteNumber":39,"Velocity":71,"Duration":102484,"SoundDuration":102484,"Delta":74909627},{"NoteNumber":51,"Velocity":76,"Duration":102484,"SoundDuration":102484,"Delta":74913509},{"NoteNumber":50,"Velocity":76,"Duration":102484,"SoundDuration":102484,"Delta":75001242},{"NoteNumber":38,"Velocity":69,"Duration":102484,"SoundDuration":102484,"Delta":75002795},{"NoteNumber":36,"Velocity":69,"Duration":102484,"SoundDuration":102484,"Delta":75100621},{"NoteNumber":48,"Velocity":76,"Duration":102484,"SoundDuration":102484,"Delta":75102174},{"NoteNumber":47,"Velocity":76,"Duration":93111,"SoundDuration":93111,"Delta":75193013},{"NoteNumber":35,"Velocity":65,"Duration":93028,"SoundDuration":93028,"Delta":75195342},{"NoteNumber":55,"Velocity":77,"Duration":98944,"SoundDuration":98944,"Delta":75283851},{"NoteNumber":43,"Velocity":69,"Duration":98921,"SoundDuration":98921,"Delta":75285376},{"NoteNumber":53,"Velocity":76,"Duration":99402,"SoundDuration":99402,"Delta":75370784},{"NoteNumber":41,"Velocity":68,"Duration":99402,"SoundDuration":99402,"Delta":75370784},{"NoteNumber":51,"Velocity":74,"Duration":99922,"SoundDuration":99922,"Delta":75462634},{"NoteNumber":39,"Velocity":67,"Duration":99945,"SoundDuration":99945,"Delta":75466410},{"NoteNumber":38,"Velocity":66,"Duration":100447,"SoundDuration":100447,"Delta":75551929},{"NoteNumber":50,"Velocity":73,"Duration":100466,"SoundDuration":100466,"Delta":75554960},{"NoteNumber":39,"Velocity":65,"Duration":100997,"SoundDuration":100997,"Delta":75647804},{"NoteNumber":51,"Velocity":72,"Duration":101002,"SoundDuration":101002,"Delta":75648566},{"NoteNumber":38,"Velocity":64,"Duration":102129,"SoundDuration":102129,"Delta":75738832},{"NoteNumber":50,"Velocity":71,"Duration":102295,"SoundDuration":102295,"Delta":75741132},{"NoteNumber":48,"Velocity":69,"Duration":108298,"SoundDuration":108298,"Delta":75827235},{"NoteNumber":36,"Velocity":63,"Duration":108501,"SoundDuration":108501,"Delta":75830321},{"NoteNumber":35,"Velocity":62,"Duration":108067,"SoundDuration":108067,"Delta":75925665},{"NoteNumber":47,"Velocity":69,"Duration":98406,"SoundDuration":98406,"Delta":75933066},{"NoteNumber":58,"Velocity":74,"Duration":99784,"SoundDuration":99784,"Delta":76025172},{"NoteNumber":46,"Velocity":68,"Duration":99527,"SoundDuration":99527,"Delta":76032226},{"NoteNumber":44,"Velocity":67,"Duration":99917,"SoundDuration":99917,"Delta":76115892},{"NoteNumber":56,"Velocity":73,"Duration":99940,"SoundDuration":99940,"Delta":76119669},{"NoteNumber":55,"Velocity":73,"Duration":100426,"SoundDuration":100426,"Delta":76210491},{"NoteNumber":43,"Velocity":67,"Duration":100426,"SoundDuration":100426,"Delta":76210491},{"NoteNumber":41,"Velocity":65,"Duration":100828,"SoundDuration":100828,"Delta":76297198},{"NoteNumber":53,"Velocity":72,"Duration":100875,"SoundDuration":100875,"Delta":76304820},{"NoteNumber":43,"Velocity":64,"Duration":101330,"SoundDuration":101330,"Delta":76389601},{"NoteNumber":55,"Velocity":72,"Duration":101349,"SoundDuration":101349,"Delta":76392659},{"NoteNumber":53,"Velocity":71,"Duration":102206,"SoundDuration":102206,"Delta":76482470},{"NoteNumber":41,"Velocity":63,"Duration":102444,"SoundDuration":102444,"Delta":76486317},{"NoteNumber":51,"Velocity":70,"Duration":107757,"SoundDuration":107757,"Delta":76575775},{"NoteNumber":39,"Velocity":62,"Duration":107757,"SoundDuration":107757,"Delta":76575775},{"NoteNumber":38,"Velocity":61,"Duration":107534,"SoundDuration":107534,"Delta":76673729},{"NoteNumber":50,"Velocity":69,"Duration":97946,"SoundDuration":97946,"Delta":76677814},{"NoteNumber":63,"Velocity":76,"Duration":103959,"SoundDuration":103959,"Delta":76771768},{"NoteNumber":51,"Velocity":70,"Duration":103907,"SoundDuration":103907,"Delta":76774974},{"NoteNumber":50,"Velocity":71,"Duration":104355,"SoundDuration":104355,"Delta":76867052},{"NoteNumber":62,"Velocity":77,"Duration":104360,"SoundDuration":104360,"Delta":76867841},{"NoteNumber":48,"Velocity":72,"Duration":115400,"SoundDuration":115400,"Delta":76961886},{"NoteNumber":60,"Velocity":80,"Duration":115413,"SoundDuration":115413,"Delta":76963471},{"NoteNumber":59,"Velocity":81,"Duration":116014,"SoundDuration":116014,"Delta":77054933},{"NoteNumber":47,"Velocity":73,"Duration":116022,"SoundDuration":116022,"Delta":77055729},{"NoteNumber":48,"Velocity":75,"Duration":116733,"SoundDuration":116733,"Delta":77155675},{"NoteNumber":60,"Velocity":82,"Duration":116741,"SoundDuration":116741,"Delta":77158086},{"NoteNumber":47,"Velocity":76,"Duration":117254,"SoundDuration":117254,"Delta":77247408},{"NoteNumber":59,"Velocity":84,"Duration":117290,"SoundDuration":117290,"Delta":77253053},{"NoteNumber":56,"Velocity":87,"Duration":118336,"SoundDuration":118336,"Delta":77344381},{"NoteNumber":44,"Velocity":76,"Duration":118400,"SoundDuration":118400,"Delta":77347617},{"NoteNumber":55,"Velocity":88,"Duration":120132,"SoundDuration":120132,"Delta":77445444},{"NoteNumber":43,"Velocity":77,"Duration":120132,"SoundDuration":120132,"Delta":77445444},{"NoteNumber":56,"Velocity":90,"Duration":121964,"SoundDuration":121964,"Delta":77546396},{"NoteNumber":44,"Velocity":80,"Duration":121981,"SoundDuration":121981,"Delta":77547229},{"NoteNumber":43,"Velocity":82,"Duration":123807,"SoundDuration":123807,"Delta":77644614},{"NoteNumber":55,"Velocity":92,"Duration":123898,"SoundDuration":123898,"Delta":77649696},{"NoteNumber":41,"Velocity":84,"Duration":125646,"SoundDuration":125646,"Delta":77743496},{"NoteNumber":53,"Velocity":94,"Duration":125791,"SoundDuration":125791,"Delta":77750369},{"NoteNumber":39,"Velocity":86,"Duration":128225,"SoundDuration":128225,"Delta":77849918},{"NoteNumber":51,"Velocity":95,"Duration":128371,"SoundDuration":128371,"Delta":77853408},{"NoteNumber":41,"Velocity":88,"Duration":131795,"SoundDuration":131795,"Delta":77956348},{"NoteNumber":53,"Velocity":99,"Duration":131818,"SoundDuration":131818,"Delta":77958143},{"NoteNumber":39,"Velocity":90,"Duration":122777,"SoundDuration":122777,"Delta":78062689},{"NoteNumber":51,"Velocity":101,"Duration":125902,"SoundDuration":125902,"Delta":78070871},{"NoteNumber":36,"Velocity":93,"Duration":159280,"SoundDuration":159280,"Delta":78179185},{"NoteNumber":48,"Velocity":103,"Duration":239171,"SoundDuration":239171,"Delta":78180441},{"NoteNumber":43,"Velocity":51,"Duration":108153,"SoundDuration":108153,"Delta":78329449},{"NoteNumber":48,"Velocity":52,"Duration":107699,"SoundDuration":107699,"Delta":78426165},{"NoteNumber":50,"Velocity":53,"Duration":107206,"SoundDuration":107206,"Delta":78524092},{"NoteNumber":51,"Velocity":54,"Duration":106660,"SoundDuration":106660,"Delta":78619972},{"NoteNumber":55,"Velocity":56,"Duration":106166,"SoundDuration":106166,"Delta":78719374},{"NoteNumber":60,"Velocity":57,"Duration":105769,"SoundDuration":105769,"Delta":78815925},{"NoteNumber":62,"Velocity":57,"Duration":105769,"SoundDuration":105769,"Delta":78913682},{"NoteNumber":63,"Velocity":60,"Duration":105769,"SoundDuration":105769,"Delta":79005829},{"NoteNumber":62,"Velocity":60,"Duration":105769,"SoundDuration":105769,"Delta":79100380},{"NoteNumber":60,"Velocity":59,"Duration":105769,"SoundDuration":105769,"Delta":79194931},{"NoteNumber":55,"Velocity":57,"Duration":105769,"SoundDuration":105769,"Delta":79297495},{"NoteNumber":51,"Velocity":57,"Duration":105769,"SoundDuration":105769,"Delta":79393649},{"NoteNumber":50,"Velocity":57,"Duration":105769,"SoundDuration":105769,"Delta":79486598},{"NoteNumber":48,"Velocity":56,"Duration":105769,"SoundDuration":105769,"Delta":79579546},{"NoteNumber":43,"Velocity":55,"Duration":96153,"SoundDuration":96153,"Delta":79682110},{"NoteNumber":36,"Velocity":53,"Duration":105769,"SoundDuration":105769,"Delta":79777463},{"NoteNumber":43,"Velocity":55,"Duration":105769,"SoundDuration":105769,"Delta":79867206},{"NoteNumber":48,"Velocity":57,"Duration":105769,"SoundDuration":105769,"Delta":79966565},{"NoteNumber":50,"Velocity":59,"Duration":105769,"SoundDuration":105769,"Delta":80067527},{"NoteNumber":51,"Velocity":61,"Duration":105769,"SoundDuration":105769,"Delta":80155668},{"NoteNumber":50,"Velocity":61,"Duration":105769,"SoundDuration":105769,"Delta":80252623},{"NoteNumber":48,"Velocity":60,"Duration":105769,"SoundDuration":105769,"Delta":80349578},{"NoteNumber":43,"Velocity":59,"Duration":96153,"SoundDuration":96153,"Delta":80444930},{"NoteNumber":36,"Velocity":63,"Duration":105769,"SoundDuration":105769,"Delta":80545090},{"NoteNumber":43,"Velocity":59,"Duration":106259,"SoundDuration":106259,"Delta":80637238},{"NoteNumber":48,"Velocity":63,"Duration":115539,"SoundDuration":115539,"Delta":80737459},{"NoteNumber":84,"Velocity":97,"Duration":129731,"SoundDuration":129731,"Delta":80840102},{"NoteNumber":72,"Velocity":89,"Duration":129731,"SoundDuration":129731,"Delta":80840102},{"NoteNumber":50,"Velocity":66,"Duration":131944,"SoundDuration":131944,"Delta":80841094},{"NoteNumber":73,"Velocity":91,"Duration":183378,"SoundDuration":183378,"Delta":80959150},{"NoteNumber":85,"Velocity":100,"Duration":183378,"SoundDuration":183378,"Delta":80959150},{"NoteNumber":51,"Velocity":68,"Duration":141025,"SoundDuration":141025,"Delta":80961286},{"NoteNumber":50,"Velocity":64,"Duration":157689,"SoundDuration":157689,"Delta":81090560},{"NoteNumber":74,"Velocity":96,"Duration":329373,"SoundDuration":329373,"Delta":81130090},{"NoteNumber":86,"Velocity":106,"Duration":329373,"SoundDuration":329373,"Delta":81130090},{"NoteNumber":48,"Velocity":60,"Duration":180706,"SoundDuration":180706,"Delta":81235811},{"NoteNumber":43,"Velocity":56,"Duration":192043,"SoundDuration":192043,"Delta":81393512},{"NoteNumber":75,"Velocity":91,"Duration":115134,"SoundDuration":115134,"Delta":81451794},{"NoteNumber":87,"Velocity":100,"Duration":115134,"SoundDuration":115134,"Delta":81451794},{"NoteNumber":36,"Velocity":52,"Duration":116134,"SoundDuration":116134,"Delta":81580442},{"NoteNumber":75,"Velocity":104,"Duration":823296,"SoundDuration":823296,"Delta":81583820},{"NoteNumber":87,"Velocity":114,"Duration":823296,"SoundDuration":823296,"Delta":81583820},{"NoteNumber":43,"Velocity":46,"Duration":114095,"SoundDuration":114095,"Delta":81690523},{"NoteNumber":48,"Velocity":47,"Duration":113726,"SoundDuration":113726,"Delta":81790828},{"NoteNumber":50,"Velocity":48,"Duration":113337,"SoundDuration":113337,"Delta":81899400},{"NoteNumber":51,"Velocity":49,"Duration":112964,"SoundDuration":112964,"Delta":82000752},{"NoteNumber":55,"Velocity":50,"Duration":112625,"SoundDuration":112625,"Delta":82098348},{"NoteNumber":60,"Velocity":51,"Duration":112257,"SoundDuration":112257,"Delta":82199906},{"NoteNumber":62,"Velocity":52,"Duration":111882,"SoundDuration":111882,"Delta":82304530},{"NoteNumber":63,"Velocity":53,"Duration":111536,"SoundDuration":111536,"Delta":82403726},{"NoteNumber":62,"Velocity":52,"Duration":111186,"SoundDuration":111186,"Delta":82509366},{"NoteNumber":60,"Velocity":51,"Duration":111337,"SoundDuration":111337,"Delta":82607075},{"NoteNumber":79,"Velocity":49,"Duration":102593,"SoundDuration":102593,"Delta":82710680},{"NoteNumber":72,"Velocity":49,"Duration":102593,"SoundDuration":102593,"Delta":82710680},{"NoteNumber":75,"Velocity":49,"Duration":102593,"SoundDuration":102593,"Delta":82710680},{"NoteNumber":67,"Velocity":49,"Duration":102593,"SoundDuration":102593,"Delta":82710680},{"NoteNumber":55,"Velocity":49,"Duration":114899,"SoundDuration":114899,"Delta":82714975},{"NoteNumber":51,"Velocity":48,"Duration":128479,"SoundDuration":128479,"Delta":82810771},{"NoteNumber":67,"Velocity":49,"Duration":351562,"SoundDuration":351562,"Delta":82813274},{"NoteNumber":72,"Velocity":49,"Duration":351562,"SoundDuration":351562,"Delta":82813274},{"NoteNumber":75,"Velocity":49,"Duration":351562,"SoundDuration":351562,"Delta":82813274},{"NoteNumber":79,"Velocity":49,"Duration":351562,"SoundDuration":351562,"Delta":82813274},{"NoteNumber":50,"Velocity":47,"Duration":128906,"SoundDuration":128906,"Delta":82929485},{"NoteNumber":48,"Velocity":45,"Duration":130153,"SoundDuration":130153,"Delta":83045696},{"NoteNumber":43,"Velocity":44,"Duration":131659,"SoundDuration":131659,"Delta":83160930},{"NoteNumber":79,"Velocity":56,"Duration":132158,"SoundDuration":132158,"Delta":83164836},{"NoteNumber":72,"Velocity":56,"Duration":132158,"SoundDuration":132158,"Delta":83164836},{"NoteNumber":75,"Velocity":56,"Duration":132158,"SoundDuration":132158,"Delta":83164836},{"NoteNumber":67,"Velocity":56,"Duration":132158,"SoundDuration":132158,"Delta":83164836},{"NoteNumber":36,"Velocity":43,"Duration":116461,"SoundDuration":116461,"Delta":83293691},{"NoteNumber":80,"Velocity":57,"Duration":842106,"SoundDuration":842106,"Delta":83296995},{"NoteNumber":68,"Velocity":57,"Duration":842106,"SoundDuration":842106,"Delta":83296995},{"NoteNumber":72,"Velocity":57,"Duration":842106,"SoundDuration":842106,"Delta":83296995},{"NoteNumber":75,"Velocity":57,"Duration":842106,"SoundDuration":842106,"Delta":83296995},{"NoteNumber":43,"Velocity":45,"Duration":115789,"SoundDuration":115789,"Delta":83397872},{"NoteNumber":48,"Velocity":47,"Duration":115789,"SoundDuration":115789,"Delta":83510153},{"NoteNumber":50,"Velocity":50,"Duration":115789,"SoundDuration":115789,"Delta":83615416},{"NoteNumber":51,"Velocity":50,"Duration":115789,"SoundDuration":115789,"Delta":83721557},{"NoteNumber":50,"Velocity":50,"Duration":115789,"SoundDuration":115789,"Delta":83818925},{"NoteNumber":48,"Velocity":50,"Duration":115789,"SoundDuration":115789,"Delta":83927697},{"NoteNumber":43,"Velocity":49,"Duration":105263,"SoundDuration":105263,"Delta":84032960},{"NoteNumber":67,"Velocity":63,"Duration":152287,"SoundDuration":152287,"Delta":84139101},{"NoteNumber":72,"Velocity":63,"Duration":152287,"SoundDuration":152287,"Delta":84139101},{"NoteNumber":75,"Velocity":63,"Duration":152287,"SoundDuration":152287,"Delta":84139101},{"NoteNumber":79,"Velocity":69,"Duration":161805,"SoundDuration":161805,"Delta":84139101},{"NoteNumber":36,"Velocity":47,"Duration":125637,"SoundDuration":125637,"Delta":84141956},{"NoteNumber":43,"Velocity":49,"Duration":125842,"SoundDuration":125842,"Delta":84253317},{"NoteNumber":71,"Velocity":75,"Duration":163339,"SoundDuration":163339,"Delta":84291389},{"NoteNumber":83,"Velocity":82,"Duration":153651,"SoundDuration":153651,"Delta":84291389},{"NoteNumber":48,"Velocity":51,"Duration":127887,"SoundDuration":127887,"Delta":84367533},{"NoteNumber":72,"Velocity":79,"Duration":165218,"SoundDuration":165218,"Delta":84445040},{"NoteNumber":84,"Velocity":87,"Duration":165218,"SoundDuration":165218,"Delta":84445040},{"NoteNumber":50,"Velocity":53,"Duration":128660,"SoundDuration":128660,"Delta":84486700},{"NoteNumber":51,"Velocity":55,"Duration":134539,"SoundDuration":134539,"Delta":84597148},{"NoteNumber":73,"Velocity":88,"Duration":173465,"SoundDuration":173465,"Delta":84600055},{"NoteNumber":85,"Velocity":95,"Duration":173465,"SoundDuration":173465,"Delta":84600055},{"NoteNumber":50,"Velocity":55,"Duration":138774,"SoundDuration":138774,"Delta":84723524},{"NoteNumber":74,"Velocity":99,"Duration":188551,"SoundDuration":188551,"Delta":84763320},{"NoteNumber":86,"Velocity":109,"Duration":188551,"SoundDuration":188551,"Delta":84763320},{"NoteNumber":48,"Velocity":55,"Duration":179997,"SoundDuration":179997,"Delta":84840840},{"NoteNumber":43,"Velocity":53,"Duration":170656,"SoundDuration":170656,"Delta":85016527},{"NoteNumber":75,"Velocity":95,"Duration":116031,"SoundDuration":116031,"Delta":85066814},{"NoteNumber":87,"Velocity":104,"Duration":116031,"SoundDuration":116031,"Delta":85066814},{"NoteNumber":75,"Velocity":106,"Duration":819572,"SoundDuration":819572,"Delta":85182845},{"NoteNumber":87,"Velocity":115,"Duration":819572,"SoundDuration":819572,"Delta":85182845},{"NoteNumber":36,"Velocity":54,"Duration":114415,"SoundDuration":114415,"Delta":85186316},{"NoteNumber":43,"Velocity":54,"Duration":113917,"SoundDuration":113917,"Delta":85290355},{"NoteNumber":48,"Velocity":55,"Duration":113491,"SoundDuration":113491,"Delta":85386175},{"NoteNumber":50,"Velocity":57,"Duration":112863,"SoundDuration":112863,"Delta":85493674},{"NoteNumber":51,"Velocity":59,"Duration":112435,"SoundDuration":112435,"Delta":85597150},{"NoteNumber":55,"Velocity":61,"Duration":111859,"SoundDuration":111859,"Delta":85701081},{"NoteNumber":60,"Velocity":63,"Duration":111396,"SoundDuration":111396,"Delta":85802800},{"NoteNumber":62,"Velocity":65,"Duration":110915,"SoundDuration":110915,"Delta":85899035},{"NoteNumber":63,"Velocity":67,"Duration":110471,"SoundDuration":110471,"Delta":86006603},{"NoteNumber":62,"Velocity":63,"Duration":110471,"SoundDuration":110471,"Delta":86105357},{"NoteNumber":60,"Velocity":61,"Duration":110773,"SoundDuration":110773,"Delta":86200765},{"NoteNumber":79,"Velocity":54,"Duration":104456,"SoundDuration":104456,"Delta":86303704},{"NoteNumber":72,"Velocity":49,"Duration":104456,"SoundDuration":104456,"Delta":86303704},{"NoteNumber":75,"Velocity":49,"Duration":104456,"SoundDuration":104456,"Delta":86303704},{"NoteNumber":67,"Velocity":49,"Duration":104456,"SoundDuration":104456,"Delta":86303704},{"NoteNumber":55,"Velocity":59,"Duration":116038,"SoundDuration":116038,"Delta":86304574},{"NoteNumber":51,"Velocity":56,"Duration":125999,"SoundDuration":125999,"Delta":86403808},{"NoteNumber":67,"Velocity":55,"Duration":344827,"SoundDuration":344827,"Delta":86408160},{"NoteNumber":72,"Velocity":55,"Duration":344827,"SoundDuration":344827,"Delta":86408160},{"NoteNumber":75,"Velocity":55,"Duration":344827,"SoundDuration":344827,"Delta":86408160},{"NoteNumber":79,"Velocity":60,"Duration":344827,"SoundDuration":344827,"Delta":86408160},{"NoteNumber":50,"Velocity":53,"Duration":126436,"SoundDuration":126436,"Delta":86523103},{"NoteNumber":48,"Velocity":51,"Duration":127759,"SoundDuration":127759,"Delta":86640919},{"NoteNumber":67,"Velocity":67,"Duration":125523,"SoundDuration":125523,"Delta":86752988},{"NoteNumber":72,"Velocity":67,"Duration":125523,"SoundDuration":125523,"Delta":86752988},{"NoteNumber":75,"Velocity":67,"Duration":125523,"SoundDuration":125523,"Delta":86752988},{"NoteNumber":79,"Velocity":73,"Duration":125523,"SoundDuration":125523,"Delta":86752988},{"NoteNumber":43,"Velocity":49,"Duration":125195,"SoundDuration":125195,"Delta":86755080},{"NoteNumber":36,"Velocity":51,"Duration":117138,"SoundDuration":117138,"Delta":86873281},{"NoteNumber":81,"Velocity":82,"Duration":1333114,"SoundDuration":1333114,"Delta":86878511},{"NoteNumber":72,"Velocity":75,"Duration":1333114,"SoundDuration":1333114,"Delta":86878511},{"NoteNumber":75,"Velocity":75,"Duration":1333114,"SoundDuration":1333114,"Delta":86878511},{"NoteNumber":69,"Velocity":75,"Duration":1333114,"SoundDuration":1333114,"Delta":86878511},{"NoteNumber":42,"Velocity":52,"Duration":115682,"SoundDuration":115682,"Delta":86986902},{"NoteNumber":48,"Velocity":55,"Duration":115070,"SoundDuration":115070,"Delta":87090357},{"NoteNumber":50,"Velocity":56,"Duration":114398,"SoundDuration":114398,"Delta":87198464},{"NoteNumber":51,"Velocity":57,"Duration":113758,"SoundDuration":113758,"Delta":87301621},{"NoteNumber":50,"Velocity":54,"Duration":113170,"SoundDuration":113170,"Delta":87404213},{"NoteNumber":48,"Velocity":55,"Duration":112561,"SoundDuration":112561,"Delta":87502830},{"NoteNumber":42,"Velocity":54,"Duration":101795,"SoundDuration":101795,"Delta":87606036},{"NoteNumber":36,"Velocity":53,"Duration":111459,"SoundDuration":111459,"Delta":87708676},{"NoteNumber":42,"Velocity":54,"Duration":111055,"SoundDuration":111055,"Delta":87805816},{"NoteNumber":48,"Velocity":55,"Duration":110624,"SoundDuration":110624,"Delta":87912674},{"NoteNumber":50,"Velocity":57,"Duration":110233,"SoundDuration":110233,"Delta":88007397},{"NoteNumber":51,"Velocity":59,"Duration":109764,"SoundDuration":109764,"Delta":88114294},{"NoteNumber":50,"Velocity":57,"Duration":110035,"SoundDuration":110035,"Delta":88214112},{"NoteNumber":48,"Velocity":57,"Duration":115240,"SoundDuration":115240,"Delta":88308557},{"NoteNumber":69,"Velocity":85,"Duration":308349,"SoundDuration":308349,"Delta":88363483},{"NoteNumber":42,"Velocity":56,"Duration":104894,"SoundDuration":104894,"Delta":88412434},{"NoteNumber":74,"Velocity":85,"Duration":255901,"SoundDuration":255901,"Delta":88415930},{"NoteNumber":81,"Velocity":87,"Duration":203454,"SoundDuration":203454,"Delta":88468378},{"NoteNumber":35,"Velocity":55,"Duration":110914,"SoundDuration":110914,"Delta":88516455},{"NoteNumber":86,"Velocity":95,"Duration":151006,"SoundDuration":151006,"Delta":88520825},{"NoteNumber":47,"Velocity":55,"Duration":110738,"SoundDuration":110738,"Delta":88623174},{"NoteNumber":50,"Velocity":56,"Duration":110738,"SoundDuration":110738,"Delta":88717973},{"NoteNumber":55,"Velocity":55,"Duration":110799,"SoundDuration":110799,"Delta":88821161},{"NoteNumber":67,"Velocity":95,"Duration":405625,"SoundDuration":405625,"Delta":88923510},{"NoteNumber":74,"Velocity":95,"Duration":405625,"SoundDuration":405625,"Delta":88923510},{"NoteNumber":79,"Velocity":104,"Duration":405625,"SoundDuration":405625,"Delta":88923510},{"NoteNumber":62,"Velocity":57,"Duration":111546,"SoundDuration":111546,"Delta":88925200},{"NoteNumber":55,"Velocity":55,"Duration":111546,"SoundDuration":111546,"Delta":89027452},{"NoteNumber":50,"Velocity":55,"Duration":111546,"SoundDuration":111546,"Delta":89125478},{"NoteNumber":47,"Velocity":54,"Duration":101406,"SoundDuration":101406,"Delta":89231954},{"NoteNumber":34,"Velocity":55,"Duration":111546,"SoundDuration":111546,"Delta":89329980},{"NoteNumber":46,"Velocity":54,"Duration":111546,"SoundDuration":111546,"Delta":89428851},{"NoteNumber":73,"Velocity":69,"Duration":135208,"SoundDuration":135208,"Delta":89464344},{"NoteNumber":67,"Velocity":69,"Duration":135208,"SoundDuration":135208,"Delta":89464344},{"NoteNumber":79,"Velocity":76,"Duration":135208,"SoundDuration":135208,"Delta":89464344},{"NoteNumber":49,"Velocity":55,"Duration":111546,"SoundDuration":111546,"Delta":89531948},{"NoteNumber":73,"Velocity":67,"Duration":135208,"SoundDuration":135208,"Delta":89599552},{"NoteNumber":67,"Velocity":67,"Duration":135208,"SoundDuration":135208,"Delta":89599552},{"NoteNumber":79,"Velocity":73,"Duration":135208,"SoundDuration":135208,"Delta":89599552},{"NoteNumber":55,"Velocity":55,"Duration":111907,"SoundDuration":111907,"Delta":89636734},{"NoteNumber":61,"Velocity":56,"Duration":114407,"SoundDuration":114407,"Delta":89730535},{"NoteNumber":79,"Velocity":76,"Duration":138811,"SoundDuration":138811,"Delta":89734760},{"NoteNumber":73,"Velocity":69,"Duration":138811,"SoundDuration":138811,"Delta":89734760},{"NoteNumber":67,"Velocity":69,"Duration":138811,"SoundDuration":138811,"Delta":89734760},{"NoteNumber":55,"Velocity":53,"Duration":114519,"SoundDuration":114519,"Delta":89835399},{"NoteNumber":80,"Velocity":73,"Duration":138811,"SoundDuration":138811,"Delta":89873572},{"NoteNumber":73,"Velocity":67,"Duration":138811,"SoundDuration":138811,"Delta":89873572},{"NoteNumber":68,"Velocity":67,"Duration":138811,"SoundDuration":138811,"Delta":89873572},{"NoteNumber":49,"Velocity":55,"Duration":114519,"SoundDuration":114519,"Delta":89939508},{"NoteNumber":46,"Velocity":50,"Duration":104108,"SoundDuration":104108,"Delta":90043616},{"NoteNumber":67,"Velocity":69,"Duration":69405,"SoundDuration":69405,"Delta":90081790},{"NoteNumber":73,"Velocity":69,"Duration":69405,"SoundDuration":69405,"Delta":90081790},{"NoteNumber":79,"Velocity":76,"Duration":69405,"SoundDuration":69405,"Delta":90081790},{"NoteNumber":67,"Velocity":72,"Duration":115084,"SoundDuration":115084,"Delta":90151195},{"NoteNumber":72,"Velocity":72,"Duration":106232,"SoundDuration":106232,"Delta":90151195},{"NoteNumber":79,"Velocity":82,"Duration":115084,"SoundDuration":115084,"Delta":90151195},{"NoteNumber":33,"Velocity":55,"Duration":116855,"SoundDuration":116855,"Delta":90155622},{"NoteNumber":45,"Velocity":55,"Duration":116885,"SoundDuration":116885,"Delta":90255657},{"NoteNumber":72,"Velocity":69,"Duration":106232,"SoundDuration":106232,"Delta":90257428},{"NoteNumber":84,"Velocity":76,"Duration":106232,"SoundDuration":106232,"Delta":90257428},{"NoteNumber":48,"Velocity":56,"Duration":117242,"SoundDuration":117242,"Delta":90362775},{"NoteNumber":53,"Velocity":55,"Duration":116763,"SoundDuration":116763,"Delta":90472912},{"NoteNumber":60,"Velocity":57,"Duration":113166,"SoundDuration":113166,"Delta":90572393},{"NoteNumber":65,"Velocity":83,"Duration":410931,"SoundDuration":410931,"Delta":90576834},{"NoteNumber":72,"Velocity":83,"Duration":410931,"SoundDuration":410931,"Delta":90576834},{"NoteNumber":77,"Velocity":91,"Duration":410931,"SoundDuration":410931,"Delta":90576834},{"NoteNumber":53,"Velocity":54,"Duration":113006,"SoundDuration":113006,"Delta":90682135},{"NoteNumber":48,"Velocity":56,"Duration":113006,"SoundDuration":113006,"Delta":90779731},{"NoteNumber":45,"Velocity":55,"Duration":102837,"SoundDuration":102837,"Delta":90888457},{"NoteNumber":32,"Velocity":55,"Duration":116381,"SoundDuration":116381,"Delta":90985197},{"NoteNumber":44,"Velocity":55,"Duration":116680,"SoundDuration":116680,"Delta":91090991},{"NoteNumber":65,"Velocity":68,"Duration":143129,"SoundDuration":143129,"Delta":91128928},{"NoteNumber":72,"Velocity":68,"Duration":143129,"SoundDuration":143129,"Delta":91128928},{"NoteNumber":77,"Velocity":74,"Duration":143129,"SoundDuration":143129,"Delta":91128928},{"NoteNumber":48,"Velocity":56,"Duration":119630,"SoundDuration":119630,"Delta":91196863},{"NoteNumber":65,"Velocity":66,"Duration":145095,"SoundDuration":145095,"Delta":91272058},{"NoteNumber":72,"Velocity":66,"Duration":145095,"SoundDuration":145095,"Delta":91272058},{"NoteNumber":77,"Velocity":72,"Duration":145095,"SoundDuration":145095,"Delta":91272058},{"NoteNumber":53,"Velocity":57,"Duration":120482,"SoundDuration":120482,"Delta":91305611},{"NoteNumber":64,"Velocity":68,"Duration":129142,"SoundDuration":129142,"Delta":91417153},{"NoteNumber":72,"Velocity":68,"Duration":119208,"SoundDuration":119208,"Delta":91417153},{"NoteNumber":76,"Velocity":74,"Duration":129142,"SoundDuration":129142,"Delta":91417153},{"NoteNumber":60,"Velocity":54,"Duration":131129,"SoundDuration":131129,"Delta":91421127},{"NoteNumber":65,"Velocity":71,"Duration":131344,"SoundDuration":131344,"Delta":91536362},{"NoteNumber":72,"Velocity":71,"Duration":119208,"SoundDuration":119208,"Delta":91536362},{"NoteNumber":77,"Velocity":77,"Duration":131344,"SoundDuration":131344,"Delta":91536362},{"NoteNumber":53,"Velocity":51,"Duration":134652,"SoundDuration":134652,"Delta":91540335},{"NoteNumber":67,"Velocity":74,"Duration":109223,"SoundDuration":109223,"Delta":91655570},{"NoteNumber":72,"Velocity":74,"Duration":109223,"SoundDuration":109223,"Delta":91655570},{"NoteNumber":79,"Velocity":81,"Duration":109223,"SoundDuration":109223,"Delta":91655570},{"NoteNumber":48,"Velocity":50,"Duration":160194,"SoundDuration":160194,"Delta":91660425},{"NoteNumber":44,"Velocity":48,"Duration":160548,"SoundDuration":160548,"Delta":91806056},{"NoteNumber":65,"Velocity":72,"Duration":76687,"SoundDuration":76687,"Delta":91870734},{"NoteNumber":72,"Velocity":72,"Duration":76687,"SoundDuration":76687,"Delta":91870734},{"NoteNumber":77,"Velocity":79,"Duration":76687,"SoundDuration":76687,"Delta":91870734},{"NoteNumber":64,"Velocity":79,"Duration":432691,"SoundDuration":432691,"Delta":91962759},{"NoteNumber":72,"Velocity":79,"Duration":432691,"SoundDuration":432691,"Delta":91962759},{"NoteNumber":76,"Velocity":87,"Duration":432691,"SoundDuration":432691,"Delta":91962759},{"NoteNumber":31,"Velocity":46,"Duration":126922,"SoundDuration":126922,"Delta":91963720},{"NoteNumber":43,"Velocity":47,"Duration":126922,"SoundDuration":126922,"Delta":92073335},{"NoteNumber":48,"Velocity":48,"Duration":126922,"SoundDuration":126922,"Delta":92189681},{"NoteNumber":47,"Velocity":49,"Duration":124624,"SoundDuration":124624,"Delta":92306027},{"NoteNumber":49,"Velocity":51,"Duration":116459,"SoundDuration":116459,"Delta":92420947},{"NoteNumber":72,"Velocity":69,"Duration":1249357,"SoundDuration":1249357,"Delta":92422711},{"NoteNumber":63,"Velocity":69,"Duration":1146624,"SoundDuration":1146624,"Delta":92422711},{"NoteNumber":75,"Velocity":76,"Duration":1146624,"SoundDuration":1146624,"Delta":92422711},{"NoteNumber":48,"Velocity":53,"Duration":116129,"SoundDuration":116129,"Delta":92527701},{"NoteNumber":50,"Velocity":55,"Duration":115743,"SoundDuration":115743,"Delta":92631520},{"NoteNumber":49,"Velocity":55,"Duration":115452,"SoundDuration":115452,"Delta":92742883},{"NoteNumber":51,"Velocity":56,"Duration":115070,"SoundDuration":115070,"Delta":92845234},{"NoteNumber":50,"Velocity":55,"Duration":114800,"SoundDuration":114800,"Delta":92949860},{"NoteNumber":52,"Velocity":57,"Duration":114413,"SoundDuration":114413,"Delta":93057720},{"NoteNumber":51,"Velocity":55,"Duration":113978,"SoundDuration":113978,"Delta":93157433},{"NoteNumber":53,"Velocity":59,"Duration":113006,"SoundDuration":113006,"Delta":93263706},{"NoteNumber":52,"Velocity":57,"Duration":113006,"SoundDuration":113006,"Delta":93368151},{"NoteNumber":54,"Velocity":61,"Duration":113006,"SoundDuration":113006,"Delta":93470884},{"NoteNumber":63,"Velocity":67,"Duration":102732,"SoundDuration":102732,"Delta":93569336},{"NoteNumber":75,"Velocity":73,"Duration":102732,"SoundDuration":102732,"Delta":93569336},{"NoteNumber":53,"Velocity":57,"Duration":113006,"SoundDuration":113006,"Delta":93572760},{"NoteNumber":71,"Velocity":71,"Duration":820696,"SoundDuration":820696,"Delta":93672069},{"NoteNumber":63,"Velocity":71,"Duration":410930,"SoundDuration":410930,"Delta":93672069},{"NoteNumber":75,"Velocity":77,"Duration":410930,"SoundDuration":410930,"Delta":93672069},{"NoteNumber":55,"Velocity":64,"Duration":113006,"SoundDuration":113006,"Delta":93675493},{"NoteNumber":54,"Velocity":60,"Duration":113006,"SoundDuration":113006,"Delta":93771377},{"NoteNumber":56,"Velocity":62,"Duration":113006,"SoundDuration":113006,"Delta":93876678},{"NoteNumber":55,"Velocity":60,"Duration":113006,"SoundDuration":113006,"Delta":93978555},{"NoteNumber":58,"Velocity":63,"Duration":113006,"SoundDuration":113006,"Delta":94079575},{"NoteNumber":62,"Velocity":69,"Duration":409765,"SoundDuration":409765,"Delta":94083000},{"NoteNumber":74,"Velocity":76,"Duration":409765,"SoundDuration":409765,"Delta":94083000},{"NoteNumber":56,"Velocity":61,"Duration":112794,"SoundDuration":112794,"Delta":94190013},{"NoteNumber":55,"Velocity":63,"Duration":112600,"SoundDuration":112600,"Delta":94290860},{"NoteNumber":53,"Velocity":60,"Duration":112267,"SoundDuration":112267,"Delta":94392404},{"NoteNumber":51,"Velocity":63,"Duration":112086,"SoundDuration":112086,"Delta":94488513},{"NoteNumber":50,"Velocity":59,"Duration":111871,"SoundDuration":111871,"Delta":94596360},{"NoteNumber":48,"Velocity":60,"Duration":111546,"SoundDuration":111546,"Delta":94698936},{"NoteNumber":47,"Velocity":59,"Duration":111341,"SoundDuration":111341,"Delta":94800342},{"NoteNumber":44,"Velocity":57,"Duration":111141,"SoundDuration":111141,"Delta":94902418},{"NoteNumber":43,"Velocity":53,"Duration":110831,"SoundDuration":110831,"Delta":94996758},{"NoteNumber":41,"Velocity":51,"Duration":110624,"SoundDuration":110624,"Delta":95102552},{"NoteNumber":38,"Velocity":47,"Duration":100428,"SoundDuration":100428,"Delta":95200623},{"NoteNumber":36,"Velocity":41,"Duration":109178,"SoundDuration":109178,"Delta":95303544},{"NoteNumber":43,"Velocity":42,"Duration":108701,"SoundDuration":108701,"Delta":95405297},{"NoteNumber":48,"Velocity":43,"Duration":108251,"SoundDuration":108251,"Delta":95503308},{"NoteNumber":50,"Velocity":44,"Duration":107784,"SoundDuration":107784,"Delta":95594389},{"NoteNumber":51,"Velocity":45,"Duration":107293,"SoundDuration":107293,"Delta":95698916},{"NoteNumber":55,"Velocity":46,"Duration":106875,"SoundDuration":106875,"Delta":95793222},{"NoteNumber":60,"Velocity":47,"Duration":106394,"SoundDuration":106394,"Delta":95887181},{"NoteNumber":62,"Velocity":48,"Duration":105885,"SoundDuration":105885,"Delta":95985537},{"NoteNumber":63,"Velocity":50,"Duration":105100,"SoundDuration":105100,"Delta":96083456},{"NoteNumber":62,"Velocity":49,"Duration":105370,"SoundDuration":105370,"Delta":96176614},{"NoteNumber":60,"Velocity":48,"Duration":105730,"SoundDuration":105730,"Delta":96279588},{"NoteNumber":55,"Velocity":47,"Duration":106057,"SoundDuration":106057,"Delta":96371697},{"NoteNumber":51,"Velocity":47,"Duration":106392,"SoundDuration":106392,"Delta":96465697},{"NoteNumber":50,"Velocity":46,"Duration":106751,"SoundDuration":106751,"Delta":96567250},{"NoteNumber":48,"Velocity":45,"Duration":107100,"SoundDuration":107100,"Delta":96665103},{"NoteNumber":43,"Velocity":44,"Duration":97658,"SoundDuration":97658,"Delta":96756781},{"NoteNumber":36,"Velocity":45,"Duration":107829,"SoundDuration":107829,"Delta":96852812},{"NoteNumber":43,"Velocity":48,"Duration":107843,"SoundDuration":107843,"Delta":96957374},{"NoteNumber":48,"Velocity":51,"Duration":107843,"SoundDuration":107843,"Delta":97050511},{"NoteNumber":50,"Velocity":53,"Duration":107843,"SoundDuration":107843,"Delta":97151818},{"NoteNumber":51,"Velocity":56,"Duration":107843,"SoundDuration":107843,"Delta":97251491},{"NoteNumber":50,"Velocity":53,"Duration":107843,"SoundDuration":107843,"Delta":97350348},{"NoteNumber":48,"Velocity":51,"Duration":107843,"SoundDuration":107843,"Delta":97443485},{"NoteNumber":43,"Velocity":49,"Duration":98039,"SoundDuration":98039,"Delta":97543158},{"NoteNumber":36,"Velocity":47,"Duration":125637,"SoundDuration":125637,"Delta":97645956},{"NoteNumber":43,"Velocity":47,"Duration":125910,"SoundDuration":125910,"Delta":97759220},{"NoteNumber":71,"Velocity":81,"Duration":163339,"SoundDuration":163339,"Delta":97793485},{"NoteNumber":83,"Velocity":89,"Duration":163339,"SoundDuration":163339,"Delta":97793485},{"NoteNumber":48,"Velocity":51,"Duration":127887,"SoundDuration":127887,"Delta":97871567},{"NoteNumber":84,"Velocity":92,"Duration":165607,"SoundDuration":165607,"Delta":97947137},{"NoteNumber":72,"Velocity":84,"Duration":165607,"SoundDuration":165607,"Delta":97947137},{"NoteNumber":50,"Velocity":53,"Duration":128701,"SoundDuration":128701,"Delta":97982984},{"NoteNumber":73,"Velocity":87,"Duration":180084,"SoundDuration":180084,"Delta":98102151},{"NoteNumber":85,"Velocity":95,"Duration":180084,"SoundDuration":180084,"Delta":98102151},{"NoteNumber":51,"Velocity":56,"Duration":139830,"SoundDuration":139830,"Delta":98105329},{"NoteNumber":50,"Velocity":54,"Duration":142500,"SoundDuration":142500,"Delta":98228211},{"NoteNumber":74,"Velocity":95,"Duration":188912,"SoundDuration":188912,"Delta":98271643},{"NoteNumber":86,"Velocity":105,"Duration":188912,"SoundDuration":188912,"Delta":98271643},{"NoteNumber":48,"Velocity":51,"Duration":182969,"SoundDuration":182969,"Delta":98355329},{"NoteNumber":43,"Velocity":48,"Duration":176616,"SoundDuration":176616,"Delta":98513909},{"NoteNumber":75,"Velocity":94,"Duration":116031,"SoundDuration":116031,"Delta":98582507},{"NoteNumber":87,"Velocity":103,"Duration":116031,"SoundDuration":116031,"Delta":98582507},{"NoteNumber":75,"Velocity":107,"Duration":813794,"SoundDuration":813794,"Delta":98698538},{"NoteNumber":87,"Velocity":116,"Duration":813794,"SoundDuration":813794,"Delta":98698538},{"NoteNumber":36,"Velocity":47,"Duration":113363,"SoundDuration":113363,"Delta":98699397},{"NoteNumber":43,"Velocity":43,"Duration":112926,"SoundDuration":112926,"Delta":98800772},{"NoteNumber":48,"Velocity":44,"Duration":112488,"SoundDuration":112488,"Delta":98900899},{"NoteNumber":50,"Velocity":46,"Duration":112100,"SoundDuration":112100,"Delta":99004884},{"NoteNumber":51,"Velocity":47,"Duration":111646,"SoundDuration":111646,"Delta":99111900},{"NoteNumber":55,"Velocity":48,"Duration":111233,"SoundDuration":111233,"Delta":99207500},{"NoteNumber":60,"Velocity":49,"Duration":110837,"SoundDuration":110837,"Delta":99315366},{"NoteNumber":62,"Velocity":50,"Duration":110412,"SoundDuration":110412,"Delta":99408586},{"NoteNumber":63,"Velocity":52,"Duration":109999,"SoundDuration":109999,"Delta":99515666},{"NoteNumber":62,"Velocity":51,"Duration":109999,"SoundDuration":109999,"Delta":99615666},{"NoteNumber":60,"Velocity":51,"Duration":110576,"SoundDuration":110576,"Delta":99711499},{"NoteNumber":55,"Velocity":50,"Duration":117309,"SoundDuration":117309,"Delta":99809832},{"NoteNumber":67,"Velocity":49,"Duration":106284,"SoundDuration":106284,"Delta":99812332},{"NoteNumber":72,"Velocity":49,"Duration":106284,"SoundDuration":106284,"Delta":99812332},{"NoteNumber":75,"Velocity":49,"Duration":106284,"SoundDuration":106284,"Delta":99812332},{"NoteNumber":79,"Velocity":54,"Duration":106284,"SoundDuration":106284,"Delta":99812332},{"NoteNumber":79,"Velocity":54,"Duration":340960,"SoundDuration":340960,"Delta":99918617},{"NoteNumber":67,"Velocity":49,"Duration":340960,"SoundDuration":340960,"Delta":99918617},{"NoteNumber":75,"Velocity":49,"Duration":340960,"SoundDuration":340960,"Delta":99918617},{"NoteNumber":72,"Velocity":49,"Duration":340960,"SoundDuration":340960,"Delta":99918617},{"NoteNumber":51,"Velocity":49,"Duration":125018,"SoundDuration":125018,"Delta":99919564},{"NoteNumber":50,"Velocity":48,"Duration":125018,"SoundDuration":125018,"Delta":100033218},{"NoteNumber":48,"Velocity":47,"Duration":125018,"SoundDuration":125018,"Delta":100146871},{"NoteNumber":43,"Velocity":46,"Duration":113653,"SoundDuration":113653,"Delta":100258631},{"NoteNumber":79,"Velocity":54,"Duration":113653,"SoundDuration":113653,"Delta":100259578},{"NoteNumber":72,"Velocity":49,"Duration":113653,"SoundDuration":113653,"Delta":100259578},{"NoteNumber":75,"Velocity":49,"Duration":113653,"SoundDuration":113653,"Delta":100259578},{"NoteNumber":67,"Velocity":49,"Duration":113653,"SoundDuration":113653,"Delta":100259578},{"NoteNumber":36,"Velocity":44,"Duration":117324,"SoundDuration":117324,"Delta":100368496},{"NoteNumber":68,"Velocity":57,"Duration":851063,"SoundDuration":851063,"Delta":100373231},{"NoteNumber":72,"Velocity":57,"Duration":851063,"SoundDuration":851063,"Delta":100373231},{"NoteNumber":75,"Velocity":57,"Duration":851063,"SoundDuration":851063,"Delta":100373231},{"NoteNumber":80,"Velocity":62,"Duration":851063,"SoundDuration":851063,"Delta":100373231},{"NoteNumber":43,"Velocity":46,"Duration":117021,"SoundDuration":117021,"Delta":100483160},{"NoteNumber":48,"Velocity":47,"Duration":117021,"SoundDuration":117021,"Delta":100582451},{"NoteNumber":50,"Velocity":49,"Duration":117021,"SoundDuration":117021,"Delta":100689721},{"NoteNumber":51,"Velocity":51,"Duration":117021,"SoundDuration":117021,"Delta":100796990},{"NoteNumber":50,"Velocity":50,"Duration":117021,"SoundDuration":117021,"Delta":100906919},{"NoteNumber":48,"Velocity":49,"Duration":117021,"SoundDuration":117021,"Delta":101012416},{"NoteNumber":43,"Velocity":48,"Duration":106689,"SoundDuration":106689,"Delta":101122345},{"NoteNumber":79,"Velocity":77,"Duration":151664,"SoundDuration":151664,"Delta":101224295},{"NoteNumber":72,"Velocity":71,"Duration":151664,"SoundDuration":151664,"Delta":101224295},{"NoteNumber":75,"Velocity":71,"Duration":151664,"SoundDuration":151664,"Delta":101224295},{"NoteNumber":67,"Velocity":71,"Duration":151664,"SoundDuration":151664,"Delta":101224295},{"NoteNumber":36,"Velocity":47,"Duration":125123,"SoundDuration":125123,"Delta":101225243},{"NoteNumber":43,"Velocity":49,"Duration":125518,"SoundDuration":125518,"Delta":101340887},{"NoteNumber":71,"Velocity":71,"Duration":163517,"SoundDuration":163517,"Delta":101375960},{"NoteNumber":83,"Velocity":77,"Duration":163517,"SoundDuration":163517,"Delta":101375960},{"NoteNumber":48,"Velocity":51,"Duration":128578,"SoundDuration":128578,"Delta":101450844},{"NoteNumber":84,"Velocity":79,"Duration":166317,"SoundDuration":166317,"Delta":101529735},{"NoteNumber":72,"Velocity":72,"Duration":166317,"SoundDuration":166317,"Delta":101529735},{"NoteNumber":50,"Velocity":54,"Duration":129709,"SoundDuration":129709,"Delta":101572603},{"NoteNumber":73,"Velocity":81,"Duration":136211,"SoundDuration":136211,"Delta":101685619},{"NoteNumber":85,"Velocity":89,"Duration":136211,"SoundDuration":136211,"Delta":101685619},{"NoteNumber":51,"Velocity":57,"Duration":138588,"SoundDuration":138588,"Delta":101688749},{"NoteNumber":50,"Velocity":54,"Duration":148452,"SoundDuration":148452,"Delta":101806644},{"NoteNumber":74,"Velocity":84,"Duration":132158,"SoundDuration":132158,"Delta":101810817},{"NoteNumber":86,"Velocity":92,"Duration":147310,"SoundDuration":147310,"Delta":101810817},{"NoteNumber":77,"Velocity":94,"Duration":140442,"SoundDuration":140442,"Delta":101942976},{"NoteNumber":89,"Velocity":103,"Duration":140442,"SoundDuration":140442,"Delta":101942976},{"NoteNumber":48,"Velocity":53,"Duration":221212,"SoundDuration":221212,"Delta":101942976},{"NoteNumber":43,"Velocity":51,"Duration":240041,"SoundDuration":240041,"Delta":102131496},{"NoteNumber":87,"Velocity":88,"Duration":119047,"SoundDuration":119047,"Delta":102240585},{"NoteNumber":75,"Velocity":80,"Duration":119047,"SoundDuration":119047,"Delta":102240585},{"NoteNumber":36,"Velocity":45,"Duration":121626,"SoundDuration":121626,"Delta":102371538},{"NoteNumber":75,"Velocity":100,"Duration":814035,"SoundDuration":814035,"Delta":102383442},{"NoteNumber":87,"Velocity":110,"Duration":814035,"SoundDuration":814035,"Delta":102383442},{"NoteNumber":43,"Velocity":47,"Duration":113467,"SoundDuration":113467,"Delta":102489715},{"NoteNumber":48,"Velocity":48,"Duration":112815,"SoundDuration":112815,"Delta":102588622},{"NoteNumber":50,"Velocity":49,"Duration":112187,"SoundDuration":112187,"Delta":102696318},{"NoteNumber":51,"Velocity":52,"Duration":111566,"SoundDuration":111566,"Delta":102794946},{"NoteNumber":55,"Velocity":54,"Duration":110955,"SoundDuration":110955,"Delta":102898937},{"NoteNumber":60,"Velocity":55,"Duration":110362,"SoundDuration":110362,"Delta":102993114},{"NoteNumber":62,"Velocity":57,"Duration":109762,"SoundDuration":109762,"Delta":103098477},{"NoteNumber":63,"Velocity":60,"Duration":109285,"SoundDuration":109285,"Delta":103193325},{"NoteNumber":62,"Velocity":56,"Duration":109271,"SoundDuration":109271,"Delta":103298471},{"NoteNumber":60,"Velocity":57,"Duration":109271,"SoundDuration":109271,"Delta":103400292},{"NoteNumber":79,"Velocity":59,"Duration":99337,"SoundDuration":99337,"Delta":103495491},{"NoteNumber":72,"Velocity":54,"Duration":99337,"SoundDuration":99337,"Delta":103495491},{"NoteNumber":75,"Velocity":54,"Duration":99337,"SoundDuration":99337,"Delta":103495491},{"NoteNumber":67,"Velocity":54,"Duration":99337,"SoundDuration":99337,"Delta":103495491},{"NoteNumber":55,"Velocity":55,"Duration":110326,"SoundDuration":110326,"Delta":103495491},{"NoteNumber":79,"Velocity":61,"Duration":329669,"SoundDuration":329669,"Delta":103594829},{"NoteNumber":67,"Velocity":56,"Duration":329669,"SoundDuration":329669,"Delta":103594829},{"NoteNumber":72,"Velocity":56,"Duration":329669,"SoundDuration":329669,"Delta":103594829},{"NoteNumber":75,"Velocity":56,"Duration":329669,"SoundDuration":329669,"Delta":103594829},{"NoteNumber":51,"Velocity":54,"Duration":120879,"SoundDuration":120879,"Delta":103596660},{"NoteNumber":50,"Velocity":51,"Duration":120879,"SoundDuration":120879,"Delta":103701971},{"NoteNumber":48,"Velocity":51,"Duration":123543,"SoundDuration":123543,"Delta":103818272},{"NoteNumber":67,"Velocity":64,"Duration":129870,"SoundDuration":129870,"Delta":103924499},{"NoteNumber":72,"Velocity":64,"Duration":129870,"SoundDuration":129870,"Delta":103924499},{"NoteNumber":75,"Velocity":64,"Duration":129870,"SoundDuration":129870,"Delta":103924499},{"NoteNumber":79,"Velocity":70,"Duration":129870,"SoundDuration":129870,"Delta":103924499},{"NoteNumber":43,"Velocity":49,"Duration":129453,"SoundDuration":129453,"Delta":103926663},{"NoteNumber":69,"Velocity":75,"Duration":1652093,"SoundDuration":1652093,"Delta":104054369},{"NoteNumber":75,"Velocity":75,"Duration":1652093,"SoundDuration":1652093,"Delta":104054369},{"NoteNumber":81,"Velocity":82,"Duration":1652093,"SoundDuration":1652093,"Delta":104054369},{"NoteNumber":36,"Velocity":60,"Duration":115283,"SoundDuration":115283,"Delta":104055243},{"NoteNumber":42,"Velocity":47,"Duration":114773,"SoundDuration":114773,"Delta":104156590},{"NoteNumber":48,"Velocity":50,"Duration":114247,"SoundDuration":114247,"Delta":104267023},{"NoteNumber":50,"Velocity":52,"Duration":113639,"SoundDuration":113639,"Delta":104367478},{"NoteNumber":51,"Velocity":53,"Duration":113181,"SoundDuration":113181,"Delta":104473385},{"NoteNumber":50,"Velocity":52,"Duration":112605,"SoundDuration":112605,"Delta":104572011},{"NoteNumber":48,"Velocity":51,"Duration":112109,"SoundDuration":112109,"Delta":104671861},{"NoteNumber":42,"Velocity":49,"Duration":101465,"SoundDuration":101465,"Delta":104778039},{"NoteNumber":36,"Velocity":64,"Duration":111110,"SoundDuration":111110,"Delta":104880346},{"NoteNumber":42,"Velocity":55,"Duration":111111,"SoundDuration":111111,"Delta":104979673},{"NoteNumber":48,"Velocity":57,"Duration":111111,"SoundDuration":111111,"Delta":105080683},{"NoteNumber":50,"Velocity":63,"Duration":111110,"SoundDuration":111110,"Delta":105178326},{"NoteNumber":51,"Velocity":64,"Duration":111111,"SoundDuration":111111,"Delta":105281861},{"NoteNumber":50,"Velocity":62,"Duration":111452,"SoundDuration":111452,"Delta":105385396},{"NoteNumber":48,"Velocity":61,"Duration":116258,"SoundDuration":116258,"Delta":105489037},{"NoteNumber":42,"Velocity":59,"Duration":116626,"SoundDuration":116626,"Delta":105588863},{"NoteNumber":70,"Velocity":95,"Duration":876190,"SoundDuration":876190,"Delta":105706463},{"NoteNumber":73,"Velocity":95,"Duration":876190,"SoundDuration":876190,"Delta":105706463},{"NoteNumber":82,"Velocity":106,"Duration":876190,"SoundDuration":876190,"Delta":105706463},{"NoteNumber":37,"Velocity":63,"Duration":122164,"SoundDuration":122164,"Delta":105711092},{"NoteNumber":49,"Velocity":64,"Duration":121669,"SoundDuration":121669,"Delta":105816648},{"NoteNumber":54,"Velocity":69,"Duration":121148,"SoundDuration":121148,"Delta":105928207},{"NoteNumber":56,"Velocity":71,"Duration":120721,"SoundDuration":120721,"Delta":106033787},{"NoteNumber":58,"Velocity":77,"Duration":120182,"SoundDuration":120182,"Delta":106152684},{"NoteNumber":56,"Velocity":74,"Duration":119683,"SoundDuration":119683,"Delta":106261049},{"NoteNumber":54,"Velocity":73,"Duration":119267,"SoundDuration":119267,"Delta":106365334},{"NoteNumber":49,"Velocity":67,"Duration":107965,"SoundDuration":107965,"Delta":106476479},{"NoteNumber":37,"Velocity":62,"Duration":118094,"SoundDuration":118094,"Delta":106580854},{"NoteNumber":80,"Velocity":91,"Duration":434362,"SoundDuration":434362,"Delta":106582653},{"NoteNumber":70,"Velocity":83,"Duration":434362,"SoundDuration":434362,"Delta":106582653},{"NoteNumber":73,"Velocity":83,"Duration":434362,"SoundDuration":434362,"Delta":106582653},{"NoteNumber":68,"Velocity":83,"Duration":434362,"SoundDuration":434362,"Delta":106582653},{"NoteNumber":49,"Velocity":65,"Duration":118923,"SoundDuration":118923,"Delta":106690884},{"NoteNumber":54,"Velocity":69,"Duration":119974,"SoundDuration":119974,"Delta":106798032},{"NoteNumber":56,"Velocity":74,"Duration":121038,"SoundDuration":121038,"Delta":106907970},{"NoteNumber":58,"Velocity":76,"Duration":121754,"SoundDuration":121754,"Delta":107012419},{"NoteNumber":66,"Velocity":83,"Duration":332103,"SoundDuration":332103,"Delta":107017015},{"NoteNumber":70,"Velocity":83,"Duration":332103,"SoundDuration":332103,"Delta":107017015},{"NoteNumber":73,"Velocity":83,"Duration":332103,"SoundDuration":332103,"Delta":107017015},{"NoteNumber":78,"Velocity":91,"Duration":332103,"SoundDuration":332103,"Delta":107017015},{"NoteNumber":56,"Velocity":72,"Duration":121771,"SoundDuration":121771,"Delta":107126793},{"NoteNumber":54,"Velocity":71,"Duration":122652,"SoundDuration":122652,"Delta":107235649},{"NoteNumber":65,"Velocity":83,"Duration":120288,"SoundDuration":120288,"Delta":107349118},{"NoteNumber":70,"Velocity":83,"Duration":120288,"SoundDuration":120288,"Delta":107349118},{"NoteNumber":73,"Velocity":83,"Duration":120288,"SoundDuration":120288,"Delta":107349118},{"NoteNumber":77,"Velocity":91,"Duration":120288,"SoundDuration":120288,"Delta":107349118},{"NoteNumber":49,"Velocity":65,"Duration":119748,"SoundDuration":119748,"Delta":107354220},{"NoteNumber":77,"Velocity":98,"Duration":863639,"SoundDuration":863639,"Delta":107469407},{"NoteNumber":65,"Velocity":89,"Duration":863639,"SoundDuration":863639,"Delta":107469407},{"NoteNumber":73,"Velocity":89,"Duration":863639,"SoundDuration":863639,"Delta":107469407},{"NoteNumber":70,"Velocity":89,"Duration":1290505,"SoundDuration":1290505,"Delta":107469407},{"NoteNumber":37,"Velocity":60,"Duration":120318,"SoundDuration":120318,"Delta":107473057},{"NoteNumber":49,"Velocity":63,"Duration":119878,"SoundDuration":119878,"Delta":107583375},{"NoteNumber":55,"Velocity":66,"Duration":119391,"SoundDuration":119391,"Delta":107688761},{"NoteNumber":58,"Velocity":68,"Duration":118961,"SoundDuration":118961,"Delta":107797322},{"NoteNumber":61,"Velocity":70,"Duration":118489,"SoundDuration":118489,"Delta":107900097},{"NoteNumber":60,"Velocity":70,"Duration":118052,"SoundDuration":118052,"Delta":108011417},{"NoteNumber":58,"Velocity":69,"Duration":117571,"SoundDuration":117571,"Delta":108117863},{"NoteNumber":56,"Velocity":68,"Duration":106509,"SoundDuration":106509,"Delta":108226537},{"NoteNumber":55,"Velocity":68,"Duration":116707,"SoundDuration":116707,"Delta":108328614},{"NoteNumber":64,"Velocity":83,"Duration":426866,"SoundDuration":426866,"Delta":108333046},{"NoteNumber":76,"Velocity":91,"Duration":426866,"SoundDuration":426866,"Delta":108333046},{"NoteNumber":53,"Velocity":68,"Duration":117134,"SoundDuration":117134,"Delta":108442662},{"NoteNumber":52,"Velocity":69,"Duration":117660,"SoundDuration":117660,"Delta":108543783},{"NoteNumber":49,"Velocity":67,"Duration":118209,"SoundDuration":118209,"Delta":108655193},{"NoteNumber":48,"Velocity":66,"Duration":119262,"SoundDuration":119262,"Delta":108764409},{"NoteNumber":46,"Velocity":64,"Duration":120596,"SoundDuration":120596,"Delta":108869126},{"NoteNumber":44,"Velocity":63,"Duration":123640,"SoundDuration":123640,"Delta":108975017},{"NoteNumber":43,"Velocity":62,"Duration":133548,"SoundDuration":133548,"Delta":109086761},{"NoteNumber":80,"Velocity":100,"Duration":863547,"SoundDuration":863547,"Delta":109222541},{"NoteNumber":71,"Velocity":91,"Duration":863547,"SoundDuration":863547,"Delta":109222541},{"NoteNumber":76,"Velocity":91,"Duration":863547,"SoundDuration":863547,"Delta":109222541},{"NoteNumber":68,"Velocity":91,"Duration":863547,"SoundDuration":863547,"Delta":109222541},{"NoteNumber":35,"Velocity":62,"Duration":120000,"SoundDuration":120000,"Delta":109223450},{"NoteNumber":47,"Velocity":65,"Duration":119618,"SoundDuration":119618,"Delta":109335269},{"NoteNumber":52,"Velocity":67,"Duration":119274,"SoundDuration":119274,"Delta":109437676},{"NoteNumber":54,"Velocity":69,"Duration":118906,"SoundDuration":118906,"Delta":109547023},{"NoteNumber":56,"Velocity":72,"Duration":118531,"SoundDuration":118531,"Delta":109658735},{"NoteNumber":54,"Velocity":73,"Duration":118164,"SoundDuration":118164,"Delta":109768305},{"NoteNumber":52,"Velocity":71,"Duration":117828,"SoundDuration":117828,"Delta":109869506},{"NoteNumber":47,"Velocity":67,"Duration":106771,"SoundDuration":106771,"Delta":109976648},{"NoteNumber":35,"Velocity":62,"Duration":117024,"SoundDuration":117024,"Delta":110085199},{"NoteNumber":66,"Velocity":79,"Duration":425532,"SoundDuration":425532,"Delta":110086088},{"NoteNumber":68,"Velocity":79,"Duration":425532,"SoundDuration":425532,"Delta":110086088},{"NoteNumber":71,"Velocity":79,"Duration":425532,"SoundDuration":425532,"Delta":110086088},{"NoteNumber":78,"Velocity":87,"Duration":425532,"SoundDuration":425532,"Delta":110086088},{"NoteNumber":47,"Velocity":67,"Duration":117021,"SoundDuration":117021,"Delta":110196018},{"NoteNumber":52,"Velocity":72,"Duration":117021,"SoundDuration":117021,"Delta":110299741},{"NoteNumber":54,"Velocity":71,"Duration":117297,"SoundDuration":117297,"Delta":110400805},{"NoteNumber":64,"Velocity":79,"Duration":333332,"SoundDuration":333332,"Delta":110511620},{"NoteNumber":68,"Velocity":79,"Duration":333332,"SoundDuration":333332,"Delta":110511620},{"NoteNumber":71,"Velocity":79,"Duration":333332,"SoundDuration":333332,"Delta":110511620},{"NoteNumber":76,"Velocity":87,"Duration":333332,"SoundDuration":333332,"Delta":110511620},{"NoteNumber":56,"Velocity":76,"Duration":122222,"SoundDuration":122222,"Delta":110516250},{"NoteNumber":54,"Velocity":73,"Duration":122222,"SoundDuration":122222,"Delta":110618102},{"NoteNumber":52,"Velocity":74,"Duration":122781,"SoundDuration":122781,"Delta":110734768},{"NoteNumber":47,"Velocity":70,"Duration":116149,"SoundDuration":116149,"Delta":110842176},{"NoteNumber":75,"Velocity":84,"Duration":116279,"SoundDuration":116279,"Delta":110844953},{"NoteNumber":68,"Velocity":76,"Duration":116279,"SoundDuration":116279,"Delta":110844953},{"NoteNumber":71,"Velocity":76,"Duration":116279,"SoundDuration":116279,"Delta":110844953},{"NoteNumber":63,"Velocity":76,"Duration":116279,"SoundDuration":116279,"Delta":110844953},{"NoteNumber":35,"Velocity":64,"Duration":119818,"SoundDuration":119818,"Delta":110957356},{"NoteNumber":68,"Velocity":87,"Duration":1304349,"SoundDuration":1304349,"Delta":110961232},{"NoteNumber":75,"Velocity":95,"Duration":869566,"SoundDuration":869566,"Delta":110961232},{"NoteNumber":63,"Velocity":87,"Duration":869566,"SoundDuration":869566,"Delta":110961232},{"NoteNumber":71,"Velocity":87,"Duration":869566,"SoundDuration":869566,"Delta":110961232},{"NoteNumber":47,"Velocity":65,"Duration":119565,"SoundDuration":119565,"Delta":111066305},{"NoteNumber":53,"Velocity":67,"Duration":119565,"SoundDuration":119565,"Delta":111175907},{"NoteNumber":56,"Velocity":71,"Duration":119565,"SoundDuration":119565,"Delta":111287320},{"NoteNumber":59,"Velocity":73,"Duration":119565,"SoundDuration":119565,"Delta":111400544},{"NoteNumber":58,"Velocity":73,"Duration":119565,"SoundDuration":119565,"Delta":111500182},{"NoteNumber":56,"Velocity":72,"Duration":119565,"SoundDuration":119565,"Delta":111608878},{"NoteNumber":54,"Velocity":71,"Duration":119565,"SoundDuration":119565,"Delta":111720291},{"NoteNumber":53,"Velocity":71,"Duration":119565,"SoundDuration":119565,"Delta":111828987},{"NoteNumber":62,"Velocity":79,"Duration":434782,"SoundDuration":434782,"Delta":111830798},{"NoteNumber":74,"Velocity":87,"Duration":434782,"SoundDuration":434782,"Delta":111830798},{"NoteNumber":51,"Velocity":71,"Duration":119565,"SoundDuration":119565,"Delta":111939494},{"NoteNumber":50,"Velocity":72,"Duration":119565,"SoundDuration":119565,"Delta":112048190},{"NoteNumber":47,"Velocity":71,"Duration":120057,"SoundDuration":120057,"Delta":112155980},{"NoteNumber":46,"Velocity":70,"Duration":126098,"SoundDuration":126098,"Delta":112270334},{"NoteNumber":44,"Velocity":67,"Duration":127665,"SoundDuration":127665,"Delta":112381048},{"NoteNumber":42,"Velocity":64,"Duration":129322,"SoundDuration":129322,"Delta":112494122},{"NoteNumber":41,"Velocity":62,"Duration":119128,"SoundDuration":119128,"Delta":112613563},{"NoteNumber":34,"Velocity":59,"Duration":125524,"SoundDuration":125524,"Delta":112731692},{"NoteNumber":67,"Velocity":77,"Duration":1735907,"SoundDuration":1735907,"Delta":112732692},{"NoteNumber":75,"Velocity":77,"Duration":1735907,"SoundDuration":1735907,"Delta":112732692},{"NoteNumber":79,"Velocity":87,"Duration":1735907,"SoundDuration":1735907,"Delta":112732692},{"NoteNumber":46,"Velocity":54,"Duration":125475,"SoundDuration":125475,"Delta":112851513},{"NoteNumber":51,"Velocity":45,"Duration":125475,"SoundDuration":125475,"Delta":112961779},{"NoteNumber":53,"Velocity":48,"Duration":124240,"SoundDuration":124240,"Delta":113078700},{"NoteNumber":55,"Velocity":50,"Duration":115287,"SoundDuration":115287,"Delta":113191586},{"NoteNumber":53,"Velocity":47,"Duration":115287,"SoundDuration":115287,"Delta":113296393},{"NoteNumber":51,"Velocity":45,"Duration":115287,"SoundDuration":115287,"Delta":113399454},{"NoteNumber":46,"Velocity":43,"Duration":104807,"SoundDuration":104807,"Delta":113506881},{"NoteNumber":34,"Velocity":38,"Duration":115287,"SoundDuration":115287,"Delta":113606448},{"NoteNumber":46,"Velocity":41,"Duration":115287,"SoundDuration":115287,"Delta":113717369},{"NoteNumber":51,"Velocity":44,"Duration":115287,"SoundDuration":115287,"Delta":113815189},{"NoteNumber":53,"Velocity":46,"Duration":116065,"SoundDuration":116065,"Delta":113926984},{"NoteNumber":55,"Velocity":49,"Duration":121323,"SoundDuration":121323,"Delta":114029262},{"NoteNumber":53,"Velocity":48,"Duration":121323,"SoundDuration":121323,"Delta":114134041},{"NoteNumber":51,"Velocity":45,"Duration":121323,"SoundDuration":121323,"Delta":114250769},{"NoteNumber":46,"Velocity":44,"Duration":110293,"SoundDuration":110293,"Delta":114358306},{"NoteNumber":35,"Velocity":31,"Duration":120040,"SoundDuration":120040,"Delta":114464923},{"NoteNumber":79,"Velocity":65,"Duration":1527274,"SoundDuration":1527274,"Delta":114468600},{"NoteNumber":67,"Velocity":53,"Duration":872727,"SoundDuration":872727,"Delta":114468600},{"NoteNumber":74,"Velocity":53,"Duration":1745456,"SoundDuration":1745456,"Delta":114468600},{"NoteNumber":47,"Velocity":33,"Duration":120000,"SoundDuration":120000,"Delta":114573145},{"NoteNumber":50,"Velocity":34,"Duration":120000,"SoundDuration":120000,"Delta":114682236},{"NoteNumber":55,"Velocity":35,"Duration":120000,"SoundDuration":120000,"Delta":114795873},{"NoteNumber":62,"Velocity":36,"Duration":120000,"SoundDuration":120000,"Delta":114908600},{"NoteNumber":55,"Velocity":35,"Duration":120000,"SoundDuration":120000,"Delta":115010419},{"NoteNumber":50,"Velocity":34,"Duration":120000,"SoundDuration":120000,"Delta":115118600},{"NoteNumber":47,"Velocity":32,"Duration":109090,"SoundDuration":109090,"Delta":115229510},{"NoteNumber":67,"Velocity":60,"Duration":872728,"SoundDuration":872728,"Delta":115341328},{"NoteNumber":35,"Velocity":31,"Duration":120000,"SoundDuration":120000,"Delta":115344964},{"NoteNumber":47,"Velocity":31,"Duration":120000,"SoundDuration":120000,"Delta":115453146},{"NoteNumber":50,"Velocity":33,"Duration":120000,"SoundDuration":120000,"Delta":115562237},{"NoteNumber":55,"Velocity":34,"Duration":120000,"SoundDuration":120000,"Delta":115670419},{"NoteNumber":62,"Velocity":35,"Duration":120000,"SoundDuration":120000,"Delta":115775874},{"NoteNumber":55,"Velocity":34,"Duration":120000,"SoundDuration":120000,"Delta":115889510},{"NoteNumber":77,"Velocity":67,"Duration":218181,"SoundDuration":218181,"Delta":115995874},{"NoteNumber":50,"Velocity":34,"Duration":120000,"SoundDuration":120000,"Delta":116000419},{"NoteNumber":47,"Velocity":33,"Duration":109091,"SoundDuration":109091,"Delta":116108601},{"NoteNumber":36,"Velocity":32,"Duration":119970,"SoundDuration":119970,"Delta":116211329},{"NoteNumber":77,"Velocity":74,"Duration":864892,"SoundDuration":864892,"Delta":116214056},{"NoteNumber":67,"Velocity":61,"Duration":1737620,"SoundDuration":1737620,"Delta":116214056},{"NoteNumber":72,"Velocity":61,"Duration":1737620,"SoundDuration":1737620,"Delta":116214056},{"NoteNumber":43,"Velocity":29,"Duration":119395,"SoundDuration":119395,"Delta":116323147},{"NoteNumber":48,"Velocity":30,"Duration":118981,"SoundDuration":118981,"Delta":116427199},{"NoteNumber":50,"Velocity":31,"Duration":118402,"SoundDuration":118402,"Delta":116535389},{"NoteNumber":51,"Velocity":32,"Duration":117895,"SoundDuration":117895,"Delta":116643061},{"NoteNumber":55,"Velocity":33,"Duration":118434,"SoundDuration":118434,"Delta":116752898},{"NoteNumber":60,"Velocity":34,"Duration":118880,"SoundDuration":118880,"Delta":116864138},{"NoteNumber":62,"Velocity":35,"Duration":119467,"SoundDuration":119467,"Delta":116969481},{"NoteNumber":63,"Velocity":35,"Duration":119986,"SoundDuration":119986,"Delta":117075325},{"NoteNumber":75,"Velocity":70,"Duration":872727,"SoundDuration":872727,"Delta":117078948},{"NoteNumber":62,"Velocity":35,"Duration":120000,"SoundDuration":120000,"Delta":117186221},{"NoteNumber":60,"Velocity":35,"Duration":120000,"SoundDuration":120000,"Delta":117294403},{"NoteNumber":55,"Velocity":34,"Duration":120000,"SoundDuration":120000,"Delta":117408949},{"NoteNumber":51,"Velocity":34,"Duration":120000,"SoundDuration":120000,"Delta":117511676},{"NoteNumber":50,"Velocity":33,"Duration":120000,"SoundDuration":120000,"Delta":117619858},{"NoteNumber":48,"Velocity":32,"Duration":120000,"SoundDuration":120000,"Delta":117733494},{"NoteNumber":43,"Velocity":32,"Duration":109091,"SoundDuration":109091,"Delta":117840767},{"NoteNumber":65,"Velocity":48,"Duration":1745456,"SoundDuration":1745456,"Delta":117951676},{"NoteNumber":29,"Velocity":35,"Duration":120000,"SoundDuration":120000,"Delta":117954404},{"NoteNumber":68,"Velocity":48,"Duration":1690910,"SoundDuration":1690910,"Delta":118006222},{"NoteNumber":37,"Velocity":35,"Duration":120000,"SoundDuration":120000,"Delta":118057131},{"NoteNumber":75,"Velocity":57,"Duration":109090,"SoundDuration":109090,"Delta":118060767},{"NoteNumber":77,"Velocity":59,"Duration":109091,"SoundDuration":109091,"Delta":118169858},{"NoteNumber":41,"Velocity":36,"Duration":120000,"SoundDuration":120000,"Delta":118173495},{"NoteNumber":43,"Velocity":38,"Duration":120000,"SoundDuration":120000,"Delta":118275313},{"NoteNumber":75,"Velocity":62,"Duration":109091,"SoundDuration":109091,"Delta":118278949},{"NoteNumber":44,"Velocity":39,"Duration":120000,"SoundDuration":120000,"Delta":118383495},{"NoteNumber":73,"Velocity":66,"Duration":327272,"SoundDuration":327272,"Delta":118388040},{"NoteNumber":49,"Velocity":40,"Duration":120000,"SoundDuration":120000,"Delta":118493495},{"NoteNumber":53,"Velocity":42,"Duration":120000,"SoundDuration":120000,"Delta":118608950},{"NoteNumber":55,"Velocity":43,"Duration":120000,"SoundDuration":120000,"Delta":118712586},{"NoteNumber":75,"Velocity":70,"Duration":109091,"SoundDuration":109091,"Delta":118715313},{"NoteNumber":77,"Velocity":75,"Duration":436363,"SoundDuration":436363,"Delta":118824404},{"NoteNumber":56,"Velocity":44,"Duration":120000,"SoundDuration":120000,"Delta":118825313},{"NoteNumber":55,"Velocity":44,"Duration":120000,"SoundDuration":120000,"Delta":118931677},{"NoteNumber":53,"Velocity":43,"Duration":120000,"SoundDuration":120000,"Delta":119042586},{"NoteNumber":49,"Velocity":42,"Duration":120000,"SoundDuration":120000,"Delta":119153496},{"NoteNumber":68,"Velocity":66,"Duration":436363,"SoundDuration":436363,"Delta":119260768},{"NoteNumber":44,"Velocity":41,"Duration":120000,"SoundDuration":120000,"Delta":119264405},{"NoteNumber":41,"Velocity":40,"Duration":120000,"SoundDuration":120000,"Delta":119374405},{"NoteNumber":37,"Velocity":40,"Duration":120000,"SoundDuration":120000,"Delta":119483496},{"NoteNumber":32,"Velocity":39,"Duration":109090,"SoundDuration":109090,"Delta":119584405},{"NoteNumber":31,"Velocity":38,"Duration":107281,"SoundDuration":107281,"Delta":119693496},{"NoteNumber":63,"Velocity":63,"Duration":3346149,"SoundDuration":3346149,"Delta":119697132},{"NoteNumber":72,"Velocity":68,"Duration":3346149,"SoundDuration":3346149,"Delta":119697132},{"NoteNumber":40,"Velocity":42,"Duration":118705,"SoundDuration":118705,"Delta":119913590},{"NoteNumber":39,"Velocity":43,"Duration":118398,"SoundDuration":118398,"Delta":120023303},{"NoteNumber":41,"Velocity":43,"Duration":118100,"SoundDuration":118100,"Delta":120131845},{"NoteNumber":40,"Velocity":44,"Duration":117857,"SoundDuration":117857,"Delta":120231195},{"NoteNumber":42,"Velocity":44,"Duration":117552,"SoundDuration":117552,"Delta":120346374},{"NoteNumber":41,"Velocity":45,"Duration":117261,"SoundDuration":117261,"Delta":120453250},{"NoteNumber":43,"Velocity":45,"Duration":116986,"SoundDuration":116986,"Delta":120555440},{"NoteNumber":42,"Velocity":45,"Duration":116607,"SoundDuration":116607,"Delta":120663593},{"NoteNumber":44,"Velocity":46,"Duration":116315,"SoundDuration":116315,"Delta":120770483},{"NoteNumber":43,"Velocity":45,"Duration":116163,"SoundDuration":116163,"Delta":120873594},{"NoteNumber":45,"Velocity":47,"Duration":115795,"SoundDuration":115795,"Delta":120978348},{"NoteNumber":44,"Velocity":48,"Duration":115491,"SoundDuration":115491,"Delta":121089757},{"NoteNumber":46,"Velocity":49,"Duration":115210,"SoundDuration":115210,"Delta":121194760},{"NoteNumber":45,"Velocity":48,"Duration":114937,"SoundDuration":114937,"Delta":121297776},{"NoteNumber":47,"Velocity":49,"Duration":114544,"SoundDuration":114544,"Delta":121400560},{"NoteNumber":46,"Velocity":50,"Duration":114049,"SoundDuration":114049,"Delta":121501254},{"NoteNumber":48,"Velocity":50,"Duration":113650,"SoundDuration":113650,"Delta":121604097},{"NoteNumber":47,"Velocity":49,"Duration":113113,"SoundDuration":113113,"Delta":121708298},{"NoteNumber":49,"Velocity":52,"Duration":112590,"SoundDuration":112590,"Delta":121814586},{"NoteNumber":48,"Velocity":53,"Duration":112095,"SoundDuration":112095,"Delta":121916122},{"NoteNumber":50,"Velocity":53,"Duration":111721,"SoundDuration":111721,"Delta":122016352},{"NoteNumber":49,"Velocity":52,"Duration":111207,"SoundDuration":111207,"Delta":122117094},{"NoteNumber":51,"Velocity":53,"Duration":110885,"SoundDuration":110885,"Delta":122220751},{"NoteNumber":50,"Velocity":51,"Duration":111418,"SoundDuration":111418,"Delta":122323219},{"NoteNumber":52,"Velocity":54,"Duration":112193,"SoundDuration":112193,"Delta":122427010},{"NoteNumber":51,"Velocity":55,"Duration":112826,"SoundDuration":112826,"Delta":122526405},{"NoteNumber":53,"Velocity":56,"Duration":113570,"SoundDuration":113570,"Delta":122631500},{"NoteNumber":52,"Velocity":54,"Duration":114233,"SoundDuration":114233,"Delta":122727829},{"NoteNumber":54,"Velocity":56,"Duration":114982,"SoundDuration":114982,"Delta":122834223},{"NoteNumber":53,"Velocity":55,"Duration":114874,"SoundDuration":114874,"Delta":122936139},{"NoteNumber":72,"Velocity":67,"Duration":618556,"SoundDuration":618556,"Delta":123043282},{"NoteNumber":62,"Velocity":60,"Duration":1244718,"SoundDuration":1244718,"Delta":123043282},{"NoteNumber":65,"Velocity":60,"Duration":1244718,"SoundDuration":1244718,"Delta":123043282},{"NoteNumber":55,"Velocity":57,"Duration":113402,"SoundDuration":113402,"Delta":123046718},{"NoteNumber":54,"Velocity":55,"Duration":113402,"SoundDuration":113402,"Delta":123146375},{"NoteNumber":56,"Velocity":57,"Duration":113402,"SoundDuration":113402,"Delta":123247749},{"NoteNumber":55,"Velocity":56,"Duration":113402,"SoundDuration":113402,"Delta":123352560},{"NoteNumber":58,"Velocity":57,"Duration":113402,"SoundDuration":113402,"Delta":123456512},{"NoteNumber":56,"Velocity":54,"Duration":113836,"SoundDuration":113836,"Delta":123557027},{"NoteNumber":55,"Velocity":53,"Duration":119046,"SoundDuration":119046,"Delta":123660120},{"NoteNumber":71,"Velocity":60,"Duration":216606,"SoundDuration":216606,"Delta":123661838},{"NoteNumber":53,"Velocity":50,"Duration":118739,"SoundDuration":118739,"Delta":123766531},{"NoteNumber":51,"Velocity":53,"Duration":112726,"SoundDuration":112726,"Delta":123876640},{"NoteNumber":74,"Velocity":67,"Duration":409555,"SoundDuration":409555,"Delta":123878445},{"NoteNumber":50,"Velocity":48,"Duration":112627,"SoundDuration":112627,"Delta":123978274},{"NoteNumber":53,"Velocity":51,"Duration":112627,"SoundDuration":112627,"Delta":124087489},{"NoteNumber":51,"Velocity":47,"Duration":112627,"SoundDuration":112627,"Delta":124188171},{"NoteNumber":55,"Velocity":52,"Duration":112627,"SoundDuration":112627,"Delta":124290560},{"NoteNumber":53,"Velocity":49,"Duration":112627,"SoundDuration":112627,"Delta":124392096},{"NoteNumber":51,"Velocity":51,"Duration":112627,"SoundDuration":112627,"Delta":124494485},{"NoteNumber":50,"Velocity":47,"Duration":112627,"SoundDuration":112627,"Delta":124592608},{"NoteNumber":48,"Velocity":51,"Duration":112627,"SoundDuration":112627,"Delta":124700116},{"NoteNumber":47,"Velocity":48,"Duration":112375,"SoundDuration":112375,"Delta":124795680},{"NoteNumber":50,"Velocity":53,"Duration":112089,"SoundDuration":112089,"Delta":124903803},{"NoteNumber":48,"Velocity":49,"Duration":111864,"SoundDuration":111864,"Delta":125007418},{"NoteNumber":46,"Velocity":51,"Duration":111606,"SoundDuration":111606,"Delta":125104028},{"NoteNumber":44,"Velocity":50,"Duration":111352,"SoundDuration":111352,"Delta":125202966},{"NoteNumber":43,"Velocity":50,"Duration":111110,"SoundDuration":111110,"Delta":125308426},{"NoteNumber":42,"Velocity":49,"Duration":110865,"SoundDuration":110865,"Delta":125405228},{"NoteNumber":43,"Velocity":49,"Duration":110581,"SoundDuration":110581,"Delta":125513576},{"NoteNumber":44,"Velocity":47,"Duration":110367,"SoundDuration":110367,"Delta":125611616},{"NoteNumber":41,"Velocity":48,"Duration":110111,"SoundDuration":110111,"Delta":125711114},{"NoteNumber":43,"Velocity":46,"Duration":109889,"SoundDuration":109889,"Delta":125812059},{"NoteNumber":39,"Velocity":46,"Duration":110444,"SoundDuration":110444,"Delta":125911948},{"NoteNumber":41,"Velocity":44,"Duration":111581,"SoundDuration":111581,"Delta":126013975},{"NoteNumber":38,"Velocity":44,"Duration":112716,"SoundDuration":112716,"Delta":126114503},{"NoteNumber":39,"Velocity":43,"Duration":103466,"SoundDuration":103466,"Delta":126216910},{"NoteNumber":60,"Velocity":71,"Duration":104166,"SoundDuration":104166,"Delta":126318641},{"NoteNumber":72,"Velocity":71,"Duration":2397863,"SoundDuration":2397863,"Delta":126318641},{"NoteNumber":36,"Velocity":43,"Duration":104166,"SoundDuration":104166,"Delta":126318641},{"NoteNumber":61,"Velocity":49,"Duration":107024,"SoundDuration":107024,"Delta":126529407},{"NoteNumber":60,"Velocity":48,"Duration":107272,"SoundDuration":107272,"Delta":126627513},{"NoteNumber":58,"Velocity":47,"Duration":107485,"SoundDuration":107485,"Delta":126718518},{"NoteNumber":55,"Velocity":46,"Duration":107774,"SoundDuration":107774,"Delta":126818661},{"NoteNumber":56,"Velocity":45,"Duration":108033,"SoundDuration":108033,"Delta":126919889},{"NoteNumber":55,"Velocity":44,"Duration":108309,"SoundDuration":108309,"Delta":127011554},{"NoteNumber":52,"Velocity":44,"Duration":108558,"SoundDuration":108558,"Delta":127113295},{"NoteNumber":48,"Velocity":43,"Duration":108839,"SoundDuration":108839,"Delta":127208676},{"NoteNumber":49,"Velocity":42,"Duration":109093,"SoundDuration":109093,"Delta":127311733},{"NoteNumber":48,"Velocity":41,"Duration":109401,"SoundDuration":109401,"Delta":127408401},{"NoteNumber":46,"Velocity":40,"Duration":109639,"SoundDuration":109639,"Delta":127506199},{"NoteNumber":43,"Velocity":39,"Duration":109942,"SoundDuration":109942,"Delta":127607523},{"NoteNumber":44,"Velocity":38,"Duration":110211,"SoundDuration":110211,"Delta":127714129},{"NoteNumber":43,"Velocity":37,"Duration":110503,"SoundDuration":110503,"Delta":127810113},{"NoteNumber":65,"Velocity":49,"Duration":1606628,"SoundDuration":1606628,"Delta":127910541},{"NoteNumber":68,"Velocity":49,"Duration":1606628,"SoundDuration":1606628,"Delta":127910541},{"NoteNumber":41,"Velocity":35,"Duration":110820,"SoundDuration":110820,"Delta":127911381},{"NoteNumber":36,"Velocity":32,"Duration":110820,"SoundDuration":110820,"Delta":128007089},{"NoteNumber":41,"Velocity":35,"Duration":110820,"SoundDuration":110820,"Delta":128111192},{"NoteNumber":36,"Velocity":28,"Duration":110820,"SoundDuration":110820,"Delta":128216975},{"NoteNumber":41,"Velocity":35,"Duration":110820,"SoundDuration":110820,"Delta":128316881},{"NoteNumber":36,"Velocity":31,"Duration":110820,"SoundDuration":110820,"Delta":128412589},{"NoteNumber":41,"Velocity":35,"Duration":110820,"SoundDuration":110820,"Delta":128512495},{"NoteNumber":36,"Velocity":28,"Duration":110793,"SoundDuration":110793,"Delta":128614080},{"NoteNumber":41,"Velocity":35,"Duration":110484,"SoundDuration":110484,"Delta":128712307},{"NoteNumber":74,"Velocity":55,"Duration":800664,"SoundDuration":800664,"Delta":128716505},{"NoteNumber":36,"Velocity":32,"Duration":110471,"SoundDuration":110471,"Delta":128821118},{"NoteNumber":41,"Velocity":35,"Duration":110339,"SoundDuration":110339,"Delta":128914014},{"NoteNumber":36,"Velocity":30,"Duration":110109,"SoundDuration":110109,"Delta":129013510},{"NoteNumber":41,"Velocity":35,"Duration":110109,"SoundDuration":110109,"Delta":129115279},{"NoteNumber":36,"Velocity":32,"Duration":109817,"SoundDuration":109817,"Delta":129216213},{"NoteNumber":41,"Velocity":35,"Duration":109758,"SoundDuration":109758,"Delta":129320209},{"NoteNumber":36,"Velocity":28,"Duration":109958,"SoundDuration":109958,"Delta":129419158},{"NoteNumber":64,"Velocity":53,"Duration":1587156,"SoundDuration":1587156,"Delta":129517170},{"NoteNumber":67,"Velocity":53,"Duration":1587156,"SoundDuration":1587156,"Delta":129517170},{"NoteNumber":76,"Velocity":56,"Duration":1587156,"SoundDuration":1587156,"Delta":129517170},{"NoteNumber":48,"Velocity":35,"Duration":102403,"SoundDuration":102403,"Delta":129517170},{"NoteNumber":61,"Velocity":47,"Duration":106686,"SoundDuration":106686,"Delta":129717709},{"NoteNumber":60,"Velocity":46,"Duration":106684,"SoundDuration":106684,"Delta":129816331},{"NoteNumber":58,"Velocity":45,"Duration":107027,"SoundDuration":107027,"Delta":129912497},{"NoteNumber":55,"Velocity":44,"Duration":107378,"SoundDuration":107378,"Delta":130010596},{"NoteNumber":56,"Velocity":44,"Duration":107739,"SoundDuration":107739,"Delta":130111459},{"NoteNumber":55,"Velocity":44,"Duration":108078,"SoundDuration":108078,"Delta":130205310},{"NoteNumber":52,"Velocity":43,"Duration":108447,"SoundDuration":108447,"Delta":130307651},{"NoteNumber":48,"Velocity":42,"Duration":108791,"SoundDuration":108791,"Delta":130402118},{"NoteNumber":49,"Velocity":41,"Duration":109159,"SoundDuration":109159,"Delta":130503484},{"NoteNumber":48,"Velocity":40,"Duration":109532,"SoundDuration":109532,"Delta":130606021},{"NoteNumber":46,"Velocity":39,"Duration":109883,"SoundDuration":109883,"Delta":130701434},{"NoteNumber":43,"Velocity":38,"Duration":110131,"SoundDuration":110131,"Delta":130798818},{"NoteNumber":44,"Velocity":37,"Duration":110508,"SoundDuration":110508,"Delta":130901424},{"NoteNumber":43,"Velocity":36,"Duration":110890,"SoundDuration":110890,"Delta":131005221},{"NoteNumber":60,"Velocity":41,"Duration":1689913,"SoundDuration":1689913,"Delta":131104327},{"NoteNumber":67,"Velocity":41,"Duration":818698,"SoundDuration":818698,"Delta":131104327},{"NoteNumber":72,"Velocity":50,"Duration":1250353,"SoundDuration":1250353,"Delta":131104327},{"NoteNumber":68,"Velocity":41,"Duration":1689913,"SoundDuration":1689913,"Delta":131104327},{"NoteNumber":41,"Velocity":35,"Duration":111270,"SoundDuration":111270,"Delta":131107694},{"NoteNumber":36,"Velocity":33,"Duration":111638,"SoundDuration":111638,"Delta":131206295},{"NoteNumber":41,"Velocity":35,"Duration":112025,"SoundDuration":112025,"Delta":131310306},{"NoteNumber":36,"Velocity":30,"Duration":112381,"SoundDuration":112381,"Delta":131404475},{"NoteNumber":41,"Velocity":35,"Duration":112788,"SoundDuration":112788,"Delta":131513443},{"NoteNumber":36,"Velocity":34,"Duration":113181,"SoundDuration":113181,"Delta":131617670},{"NoteNumber":41,"Velocity":35,"Duration":113559,"SoundDuration":113559,"Delta":131717106},{"NoteNumber":36,"Velocity":29,"Duration":114396,"SoundDuration":114396,"Delta":131820320},{"NoteNumber":65,"Velocity":46,"Duration":871215,"SoundDuration":871215,"Delta":131923026},{"NoteNumber":41,"Velocity":35,"Duration":118705,"SoundDuration":118705,"Delta":131923925},{"NoteNumber":36,"Velocity":33,"Duration":118705,"SoundDuration":118705,"Delta":132031839},{"NoteNumber":41,"Velocity":35,"Duration":118705,"SoundDuration":118705,"Delta":132136155},{"NoteNumber":36,"Velocity":31,"Duration":118985,"SoundDuration":118985,"Delta":132251263},{"NoteNumber":41,"Velocity":35,"Duration":120829,"SoundDuration":120829,"Delta":132351983},{"NoteNumber":71,"Velocity":51,"Duration":439560,"SoundDuration":439560,"Delta":132354681},{"NoteNumber":74,"Velocity":55,"Duration":439560,"SoundDuration":439560,"Delta":132354681},{"NoteNumber":36,"Velocity":33,"Duration":120879,"SoundDuration":120879,"Delta":132459992},{"NoteNumber":41,"Velocity":35,"Duration":120879,"SoundDuration":120879,"Delta":132571713},{"NoteNumber":36,"Velocity":32,"Duration":109890,"SoundDuration":109890,"Delta":132681603},{"NoteNumber":64,"Velocity":54,"Duration":109890,"SoundDuration":109890,"Delta":132794241},{"NoteNumber":76,"Velocity":64,"Duration":109890,"SoundDuration":109890,"Delta":132794241},{"NoteNumber":67,"Velocity":54,"Duration":109890,"SoundDuration":109890,"Delta":132794241},{"NoteNumber":72,"Velocity":54,"Duration":109890,"SoundDuration":109890,"Delta":132794241},{"NoteNumber":48,"Velocity":35,"Duration":109890,"SoundDuration":109890,"Delta":132794241},{"NoteNumber":80,"Velocity":81,"Duration":94142,"SoundDuration":94142,"Delta":133009442},{"NoteNumber":92,"Velocity":89,"Duration":93594,"SoundDuration":93594,"Delta":133013105},{"NoteNumber":79,"Velocity":80,"Duration":103252,"SoundDuration":103252,"Delta":133107479},{"NoteNumber":91,"Velocity":88,"Duration":103259,"SoundDuration":103259,"Delta":133109822},{"NoteNumber":88,"Velocity":85,"Duration":103667,"SoundDuration":103667,"Delta":133198976},{"NoteNumber":76,"Velocity":77,"Duration":103677,"SoundDuration":103677,"Delta":133202110},{"NoteNumber":84,"Velocity":84,"Duration":104051,"SoundDuration":104051,"Delta":133298712},{"NoteNumber":72,"Velocity":76,"Duration":104056,"SoundDuration":104056,"Delta":133299498},{"NoteNumber":73,"Velocity":81,"Duration":104550,"SoundDuration":104550,"Delta":133388528},{"NoteNumber":85,"Velocity":91,"Duration":104555,"SoundDuration":104555,"Delta":133389317},{"NoteNumber":72,"Velocity":77,"Duration":104895,"SoundDuration":104895,"Delta":133485936},{"NoteNumber":84,"Velocity":87,"Duration":104900,"SoundDuration":104900,"Delta":133487524},{"NoteNumber":82,"Velocity":89,"Duration":105345,"SoundDuration":105345,"Delta":133578093},{"NoteNumber":70,"Velocity":79,"Duration":105375,"SoundDuration":105375,"Delta":133582871},{"NoteNumber":79,"Velocity":87,"Duration":105774,"SoundDuration":105774,"Delta":133672233},{"NoteNumber":67,"Velocity":77,"Duration":105810,"SoundDuration":105810,"Delta":133679432},{"NoteNumber":80,"Velocity":89,"Duration":106246,"SoundDuration":106246,"Delta":133773185},{"NoteNumber":68,"Velocity":84,"Duration":106257,"SoundDuration":106257,"Delta":133776400},{"NoteNumber":79,"Velocity":88,"Duration":106686,"SoundDuration":106686,"Delta":133867335},{"NoteNumber":67,"Velocity":81,"Duration":106702,"SoundDuration":106702,"Delta":133872173},{"NoteNumber":76,"Velocity":88,"Duration":106796,"SoundDuration":106796,"Delta":133964312},{"NoteNumber":64,"Velocity":81,"Duration":106796,"SoundDuration":106796,"Delta":133966740},{"NoteNumber":60,"Velocity":79,"Duration":106796,"SoundDuration":106796,"Delta":134061400},{"NoteNumber":72,"Velocity":87,"Duration":106796,"SoundDuration":106796,"Delta":134064636},{"NoteNumber":61,"Velocity":84,"Duration":106796,"SoundDuration":106796,"Delta":134162533},{"NoteNumber":73,"Velocity":91,"Duration":106796,"SoundDuration":106796,"Delta":134164151},{"NoteNumber":60,"Velocity":80,"Duration":106796,"SoundDuration":106796,"Delta":134253957},{"NoteNumber":72,"Velocity":88,"Duration":106796,"SoundDuration":106796,"Delta":134254766},{"NoteNumber":58,"Velocity":80,"Duration":106796,"SoundDuration":106796,"Delta":134354281},{"NoteNumber":70,"Velocity":89,"Duration":106796,"SoundDuration":106796,"Delta":134357517},{"NoteNumber":67,"Velocity":88,"Duration":106796,"SoundDuration":106796,"Delta":134449750},{"NoteNumber":55,"Velocity":80,"Duration":106796,"SoundDuration":106796,"Delta":134452986},{"NoteNumber":56,"Velocity":85,"Duration":106796,"SoundDuration":106796,"Delta":134547647},{"NoteNumber":68,"Velocity":95,"Duration":106796,"SoundDuration":106796,"Delta":134552501},{"NoteNumber":67,"Velocity":92,"Duration":106796,"SoundDuration":106796,"Delta":134647161},{"NoteNumber":55,"Velocity":82,"Duration":106796,"SoundDuration":106796,"Delta":134649588},{"NoteNumber":52,"Velocity":83,"Duration":106796,"SoundDuration":106796,"Delta":134739394},{"NoteNumber":64,"Velocity":90,"Duration":106796,"SoundDuration":106796,"Delta":134740203},{"NoteNumber":60,"Velocity":89,"Duration":106796,"SoundDuration":106796,"Delta":134838100},{"NoteNumber":48,"Velocity":81,"Duration":106796,"SoundDuration":106796,"Delta":134838909},{"NoteNumber":49,"Velocity":84,"Duration":106796,"SoundDuration":106796,"Delta":134932760},{"NoteNumber":61,"Velocity":93,"Duration":106796,"SoundDuration":106796,"Delta":134935187},{"NoteNumber":60,"Velocity":92,"Duration":106796,"SoundDuration":106796,"Delta":135033893},{"NoteNumber":48,"Velocity":84,"Duration":106796,"SoundDuration":106796,"Delta":135035511},{"NoteNumber":46,"Velocity":83,"Duration":106796,"SoundDuration":106796,"Delta":135128553},{"NoteNumber":58,"Velocity":91,"Duration":106796,"SoundDuration":106796,"Delta":135129362},{"NoteNumber":43,"Velocity":83,"Duration":106796,"SoundDuration":106796,"Delta":135224832},{"NoteNumber":55,"Velocity":90,"Duration":106796,"SoundDuration":106796,"Delta":135225641},{"NoteNumber":56,"Velocity":94,"Duration":106796,"SoundDuration":106796,"Delta":135321919},{"NoteNumber":44,"Velocity":88,"Duration":106796,"SoundDuration":106796,"Delta":135322728},{"NoteNumber":55,"Velocity":92,"Duration":106796,"SoundDuration":106796,"Delta":135419007},{"NoteNumber":43,"Velocity":84,"Duration":106796,"SoundDuration":106796,"Delta":135419816},{"NoteNumber":52,"Velocity":91,"Duration":106796,"SoundDuration":106796,"Delta":135520949},{"NoteNumber":40,"Velocity":83,"Duration":106796,"SoundDuration":106796,"Delta":135522567},{"NoteNumber":36,"Velocity":83,"Duration":106796,"SoundDuration":106796,"Delta":135618845},{"NoteNumber":48,"Velocity":90,"Duration":106796,"SoundDuration":106796,"Delta":135619654},{"NoteNumber":37,"Velocity":84,"Duration":106796,"SoundDuration":106796,"Delta":135709460},{"NoteNumber":49,"Velocity":94,"Duration":106796,"SoundDuration":106796,"Delta":135715124},{"NoteNumber":36,"Velocity":93,"Duration":96776,"SoundDuration":96776,"Delta":135810593},{"NoteNumber":48,"Velocity":103,"Duration":97461,"SoundDuration":97461,"Delta":135813829},{"NoteNumber":60,"Velocity":110,"Duration":921568,"SoundDuration":921568,"Delta":135907369},{"NoteNumber":53,"Velocity":100,"Duration":921568,"SoundDuration":921568,"Delta":135907369},{"NoteNumber":57,"Velocity":110,"Duration":921568,"SoundDuration":921568,"Delta":135907369},{"NoteNumber":48,"Velocity":100,"Duration":921568,"SoundDuration":921568,"Delta":135907369},{"NoteNumber":29,"Velocity":102,"Duration":921568,"SoundDuration":921568,"Delta":135907369},{"NoteNumber":41,"Velocity":102,"Duration":921568,"SoundDuration":921568,"Delta":135907369},{"NoteNumber":60,"Velocity":108,"Duration":933609,"SoundDuration":933609,"Delta":136848545},{"NoteNumber":53,"Velocity":97,"Duration":933609,"SoundDuration":933609,"Delta":136848545},{"NoteNumber":56,"Velocity":108,"Duration":933609,"SoundDuration":933609,"Delta":136848545},{"NoteNumber":48,"Velocity":97,"Duration":933609,"SoundDuration":933609,"Delta":136848545},{"NoteNumber":29,"Velocity":97,"Duration":933609,"SoundDuration":933609,"Delta":136848545},{"NoteNumber":41,"Velocity":97,"Duration":933609,"SoundDuration":933609,"Delta":136848545},{"NoteNumber":60,"Velocity":109,"Duration":240963,"SoundDuration":240963,"Delta":137844395},{"NoteNumber":48,"Velocity":99,"Duration":240963,"SoundDuration":240963,"Delta":137844395},{"NoteNumber":53,"Velocity":99,"Duration":240963,"SoundDuration":240963,"Delta":137844395},{"NoteNumber":55,"Velocity":109,"Duration":240963,"SoundDuration":240963,"Delta":137844395},{"NoteNumber":24,"Velocity":99,"Duration":240963,"SoundDuration":240963,"Delta":137844395},{"NoteNumber":36,"Velocity":99,"Duration":240963,"SoundDuration":240963,"Delta":137844395},{"NoteNumber":60,"Velocity":102,"Duration":240963,"SoundDuration":240963,"Delta":138326323},{"NoteNumber":52,"Velocity":93,"Duration":240963,"SoundDuration":240963,"Delta":138326323},{"NoteNumber":55,"Velocity":102,"Duration":240963,"SoundDuration":240963,"Delta":138326323},{"NoteNumber":48,"Velocity":93,"Duration":240963,"SoundDuration":240963,"Delta":138326323},{"NoteNumber":24,"Velocity":95,"Duration":240963,"SoundDuration":240963,"Delta":138326323},{"NoteNumber":36,"Velocity":95,"Duration":240963,"SoundDuration":240963,"Delta":138326323}],"license":{"name":"Creative Commons Attribution-ShareAlike 3.0 Germany","url":"http://creativecommons.org/licenses/by-sa/3.0/de/deed.en","text":"The MIDI, audio (MP3, OGG) and video files of Bernd Krueger are licensed under the cc-by-sa Germany License. This means that you can use and adapt the files, as long as you attribute the copyright holder.\n\nName: Bernd Krueger\nSource: http://www.piano-midi.de\n\nThe distribution or public playback of the files is only allowed under identical license conditions.\n\nThe scores are open source.","attribution":"MIDI files by Bernd Krueger (piano-midi.de)"}}