{"title":"Etude in A minor, Op. 25 No. 4","artist":"Chopin","durationMs":80397,"midiSha256":"0d2ce338c02e3dbd2c756dc020c20b90703a95a8486787b26413d18f0e1c2768","midiObject":[{"NoteNumber":52,"Velocity":55,"Duration":306607,"SoundDuration":306607,"Delta":0},{"NoteNumber":45,"Velocity":55,"Duration":75799,"SoundDuration":75799,"Delta":306607},{"NoteNumber":64,"Velocity":48,"Duration":76448,"SoundDuration":76448,"Delta":458855},{"NoteNumber":69,"Velocity":48,"Duration":76448,"SoundDuration":76448,"Delta":458855},{"NoteNumber":76,"Velocity":55,"Duration":76448,"SoundDuration":76448,"Delta":458855},{"NoteNumber":60,"Velocity":38,"Duration":76448,"SoundDuration":76448,"Delta":458855},{"NoteNumber":52,"Velocity":31,"Duration":76448,"SoundDuration":76448,"Delta":458855},{"NoteNumber":48,"Velocity":55,"Duration":76448,"SoundDuration":76448,"Delta":611752},{"NoteNumber":69,"Velocity":48,"Duration":76448,"SoundDuration":76448,"Delta":764650},{"NoteNumber":76,"Velocity":48,"Duration":76448,"SoundDuration":76448,"Delta":764650},{"NoteNumber":81,"Velocity":55,"Duration":76448,"SoundDuration":76448,"Delta":764650},{"NoteNumber":64,"Velocity":38,"Duration":76448,"SoundDuration":76448,"Delta":764650},{"NoteNumber":57,"Velocity":31,"Duration":76448,"SoundDuration":76448,"Delta":764650},{"NoteNumber":47,"Velocity":55,"Duration":74883,"SoundDuration":74883,"Delta":917547},{"NoteNumber":69,"Velocity":48,"Duration":74883,"SoundDuration":74883,"Delta":1067315},{"NoteNumber":74,"Velocity":48,"Duration":74883,"SoundDuration":74883,"Delta":1067315},{"NoteNumber":81,"Velocity":55,"Duration":74883,"SoundDuration":74883,"Delta":1067315},{"NoteNumber":62,"Velocity":38,"Duration":74883,"SoundDuration":74883,"Delta":1067315},{"NoteNumber":53,"Velocity":31,"Duration":74883,"SoundDuration":74883,"Delta":1067315},{"NoteNumber":52,"Velocity":55,"Duration":74883,"SoundDuration":74883,"Delta":1217083},{"NoteNumber":68,"Velocity":48,"Duration":74883,"SoundDuration":74883,"Delta":1366851},{"NoteNumber":76,"Velocity":48,"Duration":74883,"SoundDuration":74883,"Delta":1366851},{"NoteNumber":80,"Velocity":55,"Duration":74883,"SoundDuration":74883,"Delta":1366851},{"NoteNumber":64,"Velocity":38,"Duration":74883,"SoundDuration":74883,"Delta":1366851},{"NoteNumber":59,"Velocity":31,"Duration":74883,"SoundDuration":74883,"Delta":1366851},{"NoteNumber":48,"Velocity":55,"Duration":73753,"SoundDuration":73753,"Delta":1516619},{"NoteNumber":69,"Velocity":48,"Duration":73753,"SoundDuration":73753,"Delta":1664126},{"NoteNumber":76,"Velocity":55,"Duration":73753,"SoundDuration":73753,"Delta":1664126},{"NoteNumber":64,"Velocity":38,"Duration":73753,"SoundDuration":73753,"Delta":1664126},{"NoteNumber":57,"Velocity":31,"Duration":73753,"SoundDuration":73753,"Delta":1664126},{"NoteNumber":45,"Velocity":55,"Duration":73753,"SoundDuration":73753,"Delta":1811633},{"NoteNumber":72,"Velocity":48,"Duration":73753,"SoundDuration":73753,"Delta":1959140},{"NoteNumber":76,"Velocity":48,"Duration":73753,"SoundDuration":73753,"Delta":1959140},{"NoteNumber":84,"Velocity":55,"Duration":73753,"SoundDuration":73753,"Delta":1959140},{"NoteNumber":64,"Velocity":38,"Duration":73753,"SoundDuration":73753,"Delta":1959140},{"NoteNumber":57,"Velocity":31,"Duration":73753,"SoundDuration":73753,"Delta":1959140},{"NoteNumber":50,"Velocity":56,"Duration":72582,"SoundDuration":72582,"Delta":2107950},{"NoteNumber":84,"Velocity":56,"Duration":72949,"SoundDuration":72949,"Delta":2253259},{"NoteNumber":77,"Velocity":49,"Duration":72949,"SoundDuration":72949,"Delta":2253259},{"NoteNumber":72,"Velocity":49,"Duration":72949,"SoundDuration":72949,"Delta":2253259},{"NoteNumber":65,"Velocity":39,"Duration":72949,"SoundDuration":72949,"Delta":2253259},{"NoteNumber":57,"Velocity":33,"Duration":72949,"SoundDuration":72949,"Delta":2253259},{"NoteNumber":50,"Velocity":58,"Duration":73390,"SoundDuration":73390,"Delta":2399378},{"NoteNumber":71,"Velocity":51,"Duration":73838,"SoundDuration":73838,"Delta":2546382},{"NoteNumber":77,"Velocity":51,"Duration":73838,"SoundDuration":73838,"Delta":2546382},{"NoteNumber":83,"Velocity":58,"Duration":73838,"SoundDuration":73838,"Delta":2546382},{"NoteNumber":65,"Velocity":41,"Duration":73838,"SoundDuration":73838,"Delta":2546382},{"NoteNumber":56,"Velocity":35,"Duration":73838,"SoundDuration":73838,"Delta":2546382},{"NoteNumber":48,"Velocity":60,"Duration":73913,"SoundDuration":73913,"Delta":2694285},{"NoteNumber":81,"Velocity":61,"Duration":73688,"SoundDuration":73688,"Delta":2842037},{"NoteNumber":77,"Velocity":53,"Duration":73688,"SoundDuration":73688,"Delta":2842037},{"NoteNumber":69,"Velocity":53,"Duration":73688,"SoundDuration":73688,"Delta":2842037},{"NoteNumber":65,"Velocity":41,"Duration":73688,"SoundDuration":73688,"Delta":2842037},{"NoteNumber":57,"Velocity":35,"Duration":73688,"SoundDuration":73688,"Delta":2842037},{"NoteNumber":48,"Velocity":61,"Duration":73390,"SoundDuration":73390,"Delta":2989264},{"NoteNumber":88,"Velocity":62,"Duration":73242,"SoundDuration":73242,"Delta":3135897},{"NoteNumber":81,"Velocity":55,"Duration":73242,"SoundDuration":73242,"Delta":3135897},{"NoteNumber":76,"Velocity":55,"Duration":73242,"SoundDuration":73242,"Delta":3135897},{"NoteNumber":64,"Velocity":44,"Duration":73242,"SoundDuration":73242,"Delta":3135897},{"NoteNumber":57,"Velocity":37,"Duration":73242,"SoundDuration":73242,"Delta":3135897},{"NoteNumber":47,"Velocity":63,"Duration":74712,"SoundDuration":74712,"Delta":3288111},{"NoteNumber":74,"Velocity":57,"Duration":72873,"SoundDuration":72873,"Delta":3435479},{"NoteNumber":81,"Velocity":57,"Duration":72873,"SoundDuration":72873,"Delta":3435479},{"NoteNumber":86,"Velocity":64,"Duration":72873,"SoundDuration":72873,"Delta":3435479},{"NoteNumber":62,"Velocity":45,"Duration":72873,"SoundDuration":72873,"Delta":3435479},{"NoteNumber":53,"Velocity":37,"Duration":72873,"SoundDuration":72873,"Delta":3435479},{"NoteNumber":40,"Velocity":66,"Duration":73242,"SoundDuration":73242,"Delta":3581449},{"NoteNumber":88,"Velocity":66,"Duration":73688,"SoundDuration":73688,"Delta":3728156},{"NoteNumber":80,"Velocity":58,"Duration":73688,"SoundDuration":73688,"Delta":3728156},{"NoteNumber":76,"Velocity":58,"Duration":73688,"SoundDuration":73688,"Delta":3728156},{"NoteNumber":62,"Velocity":46,"Duration":73688,"SoundDuration":73688,"Delta":3728156},{"NoteNumber":59,"Velocity":38,"Duration":73688,"SoundDuration":73688,"Delta":3728156},{"NoteNumber":52,"Velocity":38,"Duration":73688,"SoundDuration":73688,"Delta":3728156},{"NoteNumber":45,"Velocity":68,"Duration":74139,"SoundDuration":74139,"Delta":3881079},{"NoteNumber":84,"Velocity":66,"Duration":74139,"SoundDuration":74139,"Delta":4029359},{"NoteNumber":76,"Velocity":58,"Duration":74139,"SoundDuration":74139,"Delta":4029359},{"NoteNumber":72,"Velocity":58,"Duration":74139,"SoundDuration":74139,"Delta":4029359},{"NoteNumber":60,"Velocity":46,"Duration":74139,"SoundDuration":74139,"Delta":4029359},{"NoteNumber":52,"Velocity":38,"Duration":74139,"SoundDuration":74139,"Delta":4029359},{"NoteNumber":47,"Velocity":66,"Duration":74139,"SoundDuration":74139,"Delta":4177639},{"NoteNumber":80,"Velocity":63,"Duration":74139,"SoundDuration":74139,"Delta":4325919},{"NoteNumber":76,"Velocity":56,"Duration":74139,"SoundDuration":74139,"Delta":4325919},{"NoteNumber":68,"Velocity":56,"Duration":74139,"SoundDuration":74139,"Delta":4325919},{"NoteNumber":62,"Velocity":44,"Duration":74139,"SoundDuration":74139,"Delta":4325919},{"NoteNumber":52,"Velocity":37,"Duration":74139,"SoundDuration":74139,"Delta":4325919},{"NoteNumber":48,"Velocity":61,"Duration":74139,"SoundDuration":74139,"Delta":4474199},{"NoteNumber":81,"Velocity":58,"Duration":74139,"SoundDuration":74139,"Delta":4622479},{"NoteNumber":76,"Velocity":51,"Duration":74139,"SoundDuration":74139,"Delta":4622479},{"NoteNumber":69,"Velocity":51,"Duration":74139,"SoundDuration":74139,"Delta":4622479},{"NoteNumber":64,"Velocity":41,"Duration":74139,"SoundDuration":74139,"Delta":4622479},{"NoteNumber":52,"Velocity":35,"Duration":74139,"SoundDuration":74139,"Delta":4622479},{"NoteNumber":45,"Velocity":58,"Duration":74139,"SoundDuration":74139,"Delta":4770759},{"NoteNumber":84,"Velocity":55,"Duration":74139,"SoundDuration":74139,"Delta":4919039},{"NoteNumber":76,"Velocity":48,"Duration":74139,"SoundDuration":74139,"Delta":4919039},{"NoteNumber":72,"Velocity":48,"Duration":74139,"SoundDuration":74139,"Delta":4919039},{"NoteNumber":60,"Velocity":38,"Duration":74139,"SoundDuration":74139,"Delta":4919039},{"NoteNumber":52,"Velocity":31,"Duration":74139,"SoundDuration":74139,"Delta":4919039},{"NoteNumber":40,"Velocity":55,"Duration":75259,"SoundDuration":75259,"Delta":5071130},{"NoteNumber":71,"Velocity":48,"Duration":73913,"SoundDuration":73913,"Delta":5220302},{"NoteNumber":76,"Velocity":48,"Duration":73913,"SoundDuration":73913,"Delta":5220302},{"NoteNumber":83,"Velocity":55,"Duration":73913,"SoundDuration":73913,"Delta":5220302},{"NoteNumber":62,"Velocity":38,"Duration":73913,"SoundDuration":73913,"Delta":5220302},{"NoteNumber":52,"Velocity":31,"Duration":73913,"SoundDuration":73913,"Delta":5220302},{"NoteNumber":45,"Velocity":55,"Duration":73763,"SoundDuration":73763,"Delta":5368129},{"NoteNumber":69,"Velocity":48,"Duration":73688,"SoundDuration":73688,"Delta":5515581},{"NoteNumber":76,"Velocity":48,"Duration":73688,"SoundDuration":73688,"Delta":5515581},{"NoteNumber":81,"Velocity":55,"Duration":73688,"SoundDuration":73688,"Delta":5515581},{"NoteNumber":60,"Velocity":38,"Duration":73688,"SoundDuration":73688,"Delta":5515581},{"NoteNumber":52,"Velocity":31,"Duration":73688,"SoundDuration":73688,"Delta":5515581},{"NoteNumber":47,"Velocity":55,"Duration":73539,"SoundDuration":73539,"Delta":5662958},{"NoteNumber":64,"Velocity":48,"Duration":73464,"SoundDuration":73464,"Delta":5809961},{"NoteNumber":71,"Velocity":48,"Duration":73464,"SoundDuration":73464,"Delta":5809961},{"NoteNumber":76,"Velocity":55,"Duration":73464,"SoundDuration":73464,"Delta":5809961},{"NoteNumber":52,"Velocity":31,"Duration":73464,"SoundDuration":73464,"Delta":5809961},{"NoteNumber":62,"Velocity":38,"Duration":73464,"SoundDuration":73464,"Delta":5809961},{"NoteNumber":56,"Velocity":31,"Duration":73464,"SoundDuration":73464,"Delta":5809961},{"NoteNumber":45,"Velocity":55,"Duration":73316,"SoundDuration":73316,"Delta":5956890},{"NoteNumber":69,"Velocity":48,"Duration":73242,"SoundDuration":73242,"Delta":6103449},{"NoteNumber":76,"Velocity":48,"Duration":73242,"SoundDuration":73242,"Delta":6103449},{"NoteNumber":81,"Velocity":55,"Duration":73242,"SoundDuration":73242,"Delta":6103449},{"NoteNumber":52,"Velocity":31,"Duration":73242,"SoundDuration":73242,"Delta":6103449},{"NoteNumber":60,"Velocity":38,"Duration":73242,"SoundDuration":73242,"Delta":6103449},{"NoteNumber":57,"Velocity":31,"Duration":73242,"SoundDuration":73242,"Delta":6103449},{"NoteNumber":40,"Velocity":55,"Duration":73097,"SoundDuration":73097,"Delta":6249933},{"NoteNumber":76,"Velocity":48,"Duration":72730,"SoundDuration":72730,"Delta":6396055},{"NoteNumber":71,"Velocity":48,"Duration":72730,"SoundDuration":72730,"Delta":6396055},{"NoteNumber":83,"Velocity":55,"Duration":72730,"SoundDuration":72730,"Delta":6396055},{"NoteNumber":52,"Velocity":31,"Duration":72730,"SoundDuration":72730,"Delta":6396055},{"NoteNumber":62,"Velocity":38,"Duration":72730,"SoundDuration":72730,"Delta":6396055},{"NoteNumber":56,"Velocity":31,"Duration":72730,"SoundDuration":72730,"Delta":6396055},{"NoteNumber":45,"Velocity":55,"Duration":72582,"SoundDuration":72582,"Delta":6541368},{"NoteNumber":69,"Velocity":48,"Duration":72583,"SoundDuration":72583,"Delta":6686534},{"NoteNumber":76,"Velocity":48,"Duration":72583,"SoundDuration":72583,"Delta":6686534},{"NoteNumber":81,"Velocity":55,"Duration":72583,"SoundDuration":72583,"Delta":6686534},{"NoteNumber":52,"Velocity":31,"Duration":72583,"SoundDuration":72583,"Delta":6686534},{"NoteNumber":60,"Velocity":38,"Duration":72583,"SoundDuration":72583,"Delta":6686534},{"NoteNumber":57,"Velocity":31,"Duration":72583,"SoundDuration":72583,"Delta":6686534},{"NoteNumber":47,"Velocity":56,"Duration":72582,"SoundDuration":72582,"Delta":6831700},{"NoteNumber":76,"Velocity":57,"Duration":72582,"SoundDuration":72582,"Delta":6976866},{"NoteNumber":71,"Velocity":50,"Duration":72582,"SoundDuration":72582,"Delta":6976866},{"NoteNumber":64,"Velocity":50,"Duration":72582,"SoundDuration":72582,"Delta":6976866},{"NoteNumber":52,"Velocity":35,"Duration":72582,"SoundDuration":72582,"Delta":6976866},{"NoteNumber":62,"Velocity":41,"Duration":72582,"SoundDuration":72582,"Delta":6976866},{"NoteNumber":56,"Velocity":35,"Duration":72582,"SoundDuration":72582,"Delta":6976866},{"NoteNumber":45,"Velocity":60,"Duration":72582,"SoundDuration":72582,"Delta":7122032},{"NoteNumber":69,"Velocity":53,"Duration":72583,"SoundDuration":72583,"Delta":7267198},{"NoteNumber":76,"Velocity":53,"Duration":72583,"SoundDuration":72583,"Delta":7267198},{"NoteNumber":81,"Velocity":61,"Duration":72583,"SoundDuration":72583,"Delta":7267198},{"NoteNumber":57,"Velocity":38,"Duration":72583,"SoundDuration":72583,"Delta":7267198},{"NoteNumber":60,"Velocity":46,"Duration":72583,"SoundDuration":72583,"Delta":7267198},{"NoteNumber":52,"Velocity":38,"Duration":72583,"SoundDuration":72583,"Delta":7267198},{"NoteNumber":43,"Velocity":64,"Duration":74364,"SoundDuration":74364,"Delta":7416504},{"NoteNumber":83,"Velocity":66,"Duration":74364,"SoundDuration":74364,"Delta":7565233},{"NoteNumber":76,"Velocity":58,"Duration":74364,"SoundDuration":74364,"Delta":7565233},{"NoteNumber":71,"Velocity":58,"Duration":74364,"SoundDuration":74364,"Delta":7565233},{"NoteNumber":64,"Velocity":46,"Duration":74364,"SoundDuration":74364,"Delta":7565233},{"NoteNumber":55,"Velocity":38,"Duration":74364,"SoundDuration":74364,"Delta":7565233},{"NoteNumber":45,"Velocity":68,"Duration":74364,"SoundDuration":74364,"Delta":7713961},{"NoteNumber":84,"Velocity":72,"Duration":74364,"SoundDuration":74364,"Delta":7862690},{"NoteNumber":76,"Velocity":62,"Duration":74364,"SoundDuration":74364,"Delta":7862690},{"NoteNumber":72,"Velocity":62,"Duration":74364,"SoundDuration":74364,"Delta":7862690},{"NoteNumber":64,"Velocity":44,"Duration":74364,"SoundDuration":74364,"Delta":7862690},{"NoteNumber":57,"Velocity":37,"Duration":74364,"SoundDuration":74364,"Delta":7862690},{"NoteNumber":47,"Velocity":63,"Duration":73464,"SoundDuration":73464,"Delta":8011418},{"NoteNumber":67,"Velocity":56,"Duration":73464,"SoundDuration":73464,"Delta":8158347},{"NoteNumber":71,"Velocity":56,"Duration":73464,"SoundDuration":73464,"Delta":8158347},{"NoteNumber":79,"Velocity":63,"Duration":73464,"SoundDuration":73464,"Delta":8158347},{"NoteNumber":64,"Velocity":45,"Duration":73464,"SoundDuration":73464,"Delta":8158347},{"NoteNumber":59,"Velocity":37,"Duration":73464,"SoundDuration":73464,"Delta":8158347},{"NoteNumber":47,"Velocity":62,"Duration":73464,"SoundDuration":73464,"Delta":8305276},{"NoteNumber":78,"Velocity":62,"Duration":73464,"SoundDuration":73464,"Delta":8452205},{"NoteNumber":71,"Velocity":55,"Duration":73464,"SoundDuration":73464,"Delta":8452205},{"NoteNumber":69,"Velocity":55,"Duration":73464,"SoundDuration":73464,"Delta":8452205},{"NoteNumber":63,"Velocity":44,"Duration":73464,"SoundDuration":73464,"Delta":8452205},{"NoteNumber":59,"Velocity":37,"Duration":73464,"SoundDuration":73464,"Delta":8452205},{"NoteNumber":52,"Velocity":61,"Duration":73017,"SoundDuration":73017,"Delta":8599134},{"NoteNumber":76,"Velocity":62,"Duration":73385,"SoundDuration":73385,"Delta":8745351},{"NoteNumber":71,"Velocity":55,"Duration":73385,"SoundDuration":73385,"Delta":8745351},{"NoteNumber":68,"Velocity":55,"Duration":73385,"SoundDuration":73385,"Delta":8745351},{"NoteNumber":64,"Velocity":44,"Duration":73385,"SoundDuration":73385,"Delta":8745351},{"NoteNumber":59,"Velocity":37,"Duration":73385,"SoundDuration":73385,"Delta":8745351},{"NoteNumber":51,"Velocity":60,"Duration":73753,"SoundDuration":73753,"Delta":8892302},{"NoteNumber":78,"Velocity":61,"Duration":74128,"SoundDuration":74128,"Delta":9039987},{"NoteNumber":72,"Velocity":53,"Duration":74128,"SoundDuration":74128,"Delta":9039987},{"NoteNumber":69,"Velocity":53,"Duration":74128,"SoundDuration":74128,"Delta":9039987},{"NoteNumber":66,"Velocity":44,"Duration":74128,"SoundDuration":74128,"Delta":9039987},{"NoteNumber":60,"Velocity":37,"Duration":74128,"SoundDuration":74128,"Delta":9039987},{"NoteNumber":50,"Velocity":61,"Duration":74500,"SoundDuration":74500,"Delta":9188432},{"NoteNumber":71,"Velocity":51,"Duration":74884,"SoundDuration":74884,"Delta":9337631},{"NoteNumber":79,"Velocity":58,"Duration":74884,"SoundDuration":74884,"Delta":9337631},{"NoteNumber":77,"Velocity":51,"Duration":74884,"SoundDuration":74884,"Delta":9337631},{"NoteNumber":67,"Velocity":51,"Duration":74884,"SoundDuration":74884,"Delta":9337631},{"NoteNumber":65,"Velocity":41,"Duration":74884,"SoundDuration":74884,"Delta":9337631},{"NoteNumber":59,"Velocity":35,"Duration":74884,"SoundDuration":74884,"Delta":9337631},{"NoteNumber":40,"Velocity":58,"Duration":75267,"SoundDuration":75267,"Delta":9487593},{"NoteNumber":74,"Velocity":48,"Duration":75723,"SoundDuration":75723,"Delta":9638325},{"NoteNumber":80,"Velocity":55,"Duration":75723,"SoundDuration":75723,"Delta":9638325},{"NoteNumber":76,"Velocity":48,"Duration":75723,"SoundDuration":75723,"Delta":9638325},{"NoteNumber":68,"Velocity":48,"Duration":75723,"SoundDuration":75723,"Delta":9638325},{"NoteNumber":64,"Velocity":38,"Duration":75723,"SoundDuration":75723,"Delta":9638325},{"NoteNumber":59,"Velocity":31,"Duration":75723,"SoundDuration":75723,"Delta":9638325},{"NoteNumber":45,"Velocity":55,"Duration":75799,"SoundDuration":75799,"Delta":9789777},{"NoteNumber":69,"Velocity":47,"Duration":76448,"SoundDuration":76448,"Delta":9942025},{"NoteNumber":72,"Velocity":47,"Duration":76448,"SoundDuration":76448,"Delta":9942025},{"NoteNumber":76,"Velocity":47,"Duration":76448,"SoundDuration":76448,"Delta":9942025},{"NoteNumber":81,"Velocity":56,"Duration":76448,"SoundDuration":76448,"Delta":9942025},{"NoteNumber":64,"Velocity":38,"Duration":76448,"SoundDuration":76448,"Delta":9942025},{"NoteNumber":57,"Velocity":31,"Duration":76448,"SoundDuration":76448,"Delta":9942025},{"NoteNumber":48,"Velocity":55,"Duration":76448,"SoundDuration":76448,"Delta":10094923},{"NoteNumber":69,"Velocity":51,"Duration":76448,"SoundDuration":76448,"Delta":10247820},{"NoteNumber":76,"Velocity":51,"Duration":76448,"SoundDuration":76448,"Delta":10247820},{"NoteNumber":81,"Velocity":71,"Duration":607867,"SoundDuration":607867,"Delta":10247820},{"NoteNumber":64,"Velocity":38,"Duration":76448,"SoundDuration":76448,"Delta":10247820},{"NoteNumber":57,"Velocity":31,"Duration":76448,"SoundDuration":76448,"Delta":10247820},{"NoteNumber":47,"Velocity":55,"Duration":77724,"SoundDuration":77724,"Delta":10400718},{"NoteNumber":69,"Velocity":48,"Duration":74880,"SoundDuration":74880,"Delta":10556166},{"NoteNumber":74,"Velocity":57,"Duration":74880,"SoundDuration":74880,"Delta":10556166},{"NoteNumber":62,"Velocity":38,"Duration":74880,"SoundDuration":74880,"Delta":10556166},{"NoteNumber":53,"Velocity":31,"Duration":74880,"SoundDuration":74880,"Delta":10556166},{"NoteNumber":52,"Velocity":55,"Duration":74880,"SoundDuration":74880,"Delta":10705927},{"NoteNumber":68,"Velocity":44,"Duration":74880,"SoundDuration":74880,"Delta":10855687},{"NoteNumber":76,"Velocity":44,"Duration":74880,"SoundDuration":74880,"Delta":10855687},{"NoteNumber":80,"Velocity":53,"Duration":74880,"SoundDuration":74880,"Delta":10855687},{"NoteNumber":64,"Velocity":38,"Duration":74880,"SoundDuration":74880,"Delta":10855687},{"NoteNumber":59,"Velocity":31,"Duration":74880,"SoundDuration":74880,"Delta":10855687},{"NoteNumber":48,"Velocity":55,"Duration":73753,"SoundDuration":73753,"Delta":11005448},{"NoteNumber":69,"Velocity":47,"Duration":73753,"SoundDuration":73753,"Delta":11152955},{"NoteNumber":76,"Velocity":56,"Duration":73753,"SoundDuration":73753,"Delta":11152955},{"NoteNumber":64,"Velocity":38,"Duration":73753,"SoundDuration":73753,"Delta":11152955},{"NoteNumber":57,"Velocity":31,"Duration":73753,"SoundDuration":73753,"Delta":11152955},{"NoteNumber":45,"Velocity":55,"Duration":73753,"SoundDuration":73753,"Delta":11300462},{"NoteNumber":72,"Velocity":52,"Duration":73753,"SoundDuration":73753,"Delta":11447969},{"NoteNumber":76,"Velocity":52,"Duration":73753,"SoundDuration":73753,"Delta":11447969},{"NoteNumber":84,"Velocity":71,"Duration":592387,"SoundDuration":592387,"Delta":11447969},{"NoteNumber":64,"Velocity":38,"Duration":73753,"SoundDuration":73753,"Delta":11447969},{"NoteNumber":57,"Velocity":31,"Duration":73753,"SoundDuration":73753,"Delta":11447969},{"NoteNumber":50,"Velocity":56,"Duration":74880,"SoundDuration":74880,"Delta":11596779},{"NoteNumber":77,"Velocity":56,"Duration":73643,"SoundDuration":73643,"Delta":11746539},{"NoteNumber":72,"Velocity":47,"Duration":73643,"SoundDuration":73643,"Delta":11746539},{"NoteNumber":65,"Velocity":39,"Duration":73643,"SoundDuration":73643,"Delta":11746539},{"NoteNumber":57,"Velocity":33,"Duration":73643,"SoundDuration":73643,"Delta":11746539},{"NoteNumber":50,"Velocity":58,"Duration":73390,"SoundDuration":73390,"Delta":11893352},{"NoteNumber":71,"Velocity":47,"Duration":73838,"SoundDuration":73838,"Delta":12040356},{"NoteNumber":77,"Velocity":47,"Duration":73838,"SoundDuration":73838,"Delta":12040356},{"NoteNumber":83,"Velocity":56,"Duration":295654,"SoundDuration":295654,"Delta":12040356},{"NoteNumber":65,"Velocity":41,"Duration":73838,"SoundDuration":73838,"Delta":12040356},{"NoteNumber":56,"Velocity":35,"Duration":73838,"SoundDuration":73838,"Delta":12040356},{"NoteNumber":48,"Velocity":60,"Duration":73913,"SoundDuration":73913,"Delta":12188259},{"NoteNumber":81,"Velocity":58,"Duration":147227,"SoundDuration":147227,"Delta":12336011},{"NoteNumber":77,"Velocity":49,"Duration":73688,"SoundDuration":73688,"Delta":12336011},{"NoteNumber":69,"Velocity":49,"Duration":73688,"SoundDuration":73688,"Delta":12336011},{"NoteNumber":65,"Velocity":41,"Duration":73688,"SoundDuration":73688,"Delta":12336011},{"NoteNumber":57,"Velocity":35,"Duration":73688,"SoundDuration":73688,"Delta":12336011},{"NoteNumber":48,"Velocity":61,"Duration":73390,"SoundDuration":73390,"Delta":12483238},{"NoteNumber":88,"Velocity":75,"Duration":291941,"SoundDuration":291941,"Delta":12629871},{"NoteNumber":81,"Velocity":51,"Duration":73242,"SoundDuration":73242,"Delta":12629871},{"NoteNumber":76,"Velocity":51,"Duration":73242,"SoundDuration":73242,"Delta":12629871},{"NoteNumber":64,"Velocity":44,"Duration":73242,"SoundDuration":73242,"Delta":12629871},{"NoteNumber":57,"Velocity":37,"Duration":73242,"SoundDuration":73242,"Delta":12629871},{"NoteNumber":47,"Velocity":63,"Duration":72802,"SoundDuration":72802,"Delta":12776355},{"NoteNumber":74,"Velocity":55,"Duration":72873,"SoundDuration":72873,"Delta":12921813},{"NoteNumber":81,"Velocity":55,"Duration":72873,"SoundDuration":72873,"Delta":12921813},{"NoteNumber":86,"Velocity":77,"Duration":292677,"SoundDuration":292677,"Delta":12921813},{"NoteNumber":62,"Velocity":45,"Duration":72873,"SoundDuration":72873,"Delta":12921813},{"NoteNumber":53,"Velocity":37,"Duration":72873,"SoundDuration":72873,"Delta":12921813},{"NoteNumber":40,"Velocity":66,"Duration":73242,"SoundDuration":73242,"Delta":13067783},{"NoteNumber":88,"Velocity":82,"Duration":295656,"SoundDuration":295656,"Delta":13214490},{"NoteNumber":80,"Velocity":58,"Duration":73688,"SoundDuration":73688,"Delta":13214490},{"NoteNumber":76,"Velocity":58,"Duration":73688,"SoundDuration":73688,"Delta":13214490},{"NoteNumber":62,"Velocity":46,"Duration":73688,"SoundDuration":73688,"Delta":13214490},{"NoteNumber":59,"Velocity":38,"Duration":73688,"SoundDuration":73688,"Delta":13214490},{"NoteNumber":52,"Velocity":38,"Duration":73688,"SoundDuration":73688,"Delta":13214490},{"NoteNumber":45,"Velocity":68,"Duration":74139,"SoundDuration":74139,"Delta":13361867},{"NoteNumber":84,"Velocity":77,"Duration":148279,"SoundDuration":148279,"Delta":13510147},{"NoteNumber":76,"Velocity":55,"Duration":74139,"SoundDuration":74139,"Delta":13510147},{"NoteNumber":72,"Velocity":55,"Duration":74139,"SoundDuration":74139,"Delta":13510147},{"NoteNumber":60,"Velocity":46,"Duration":74139,"SoundDuration":74139,"Delta":13510147},{"NoteNumber":52,"Velocity":38,"Duration":74139,"SoundDuration":74139,"Delta":13510147},{"NoteNumber":47,"Velocity":66,"Duration":74139,"SoundDuration":74139,"Delta":13658427},{"NoteNumber":83,"Velocity":66,"Duration":296560,"SoundDuration":296560,"Delta":13806707},{"NoteNumber":76,"Velocity":51,"Duration":74139,"SoundDuration":74139,"Delta":13806707},{"NoteNumber":71,"Velocity":51,"Duration":74139,"SoundDuration":74139,"Delta":13806707},{"NoteNumber":56,"Velocity":37,"Duration":74139,"SoundDuration":74139,"Delta":13806707},{"NoteNumber":62,"Velocity":44,"Duration":74139,"SoundDuration":74139,"Delta":13806707},{"NoteNumber":52,"Velocity":37,"Duration":74139,"SoundDuration":74139,"Delta":13806707},{"NoteNumber":48,"Velocity":61,"Duration":74139,"SoundDuration":74139,"Delta":13954987},{"NoteNumber":81,"Velocity":61,"Duration":448650,"SoundDuration":448650,"Delta":14103267},{"NoteNumber":76,"Velocity":47,"Duration":74139,"SoundDuration":74139,"Delta":14103267},{"NoteNumber":69,"Velocity":47,"Duration":74139,"SoundDuration":74139,"Delta":14103267},{"NoteNumber":57,"Velocity":35,"Duration":74139,"SoundDuration":74139,"Delta":14103267},{"NoteNumber":64,"Velocity":41,"Duration":74139,"SoundDuration":74139,"Delta":14103267},{"NoteNumber":52,"Velocity":35,"Duration":74139,"SoundDuration":74139,"Delta":14103267},{"NoteNumber":45,"Velocity":58,"Duration":74139,"SoundDuration":74139,"Delta":14251547},{"NoteNumber":76,"Velocity":52,"Duration":74139,"SoundDuration":74139,"Delta":14399827},{"NoteNumber":72,"Velocity":44,"Duration":74139,"SoundDuration":74139,"Delta":14399827},{"NoteNumber":60,"Velocity":38,"Duration":74139,"SoundDuration":74139,"Delta":14399827},{"NoteNumber":52,"Velocity":31,"Duration":74139,"SoundDuration":74139,"Delta":14399827},{"NoteNumber":40,"Velocity":55,"Duration":73935,"SoundDuration":73935,"Delta":14551917},{"NoteNumber":71,"Velocity":53,"Duration":147827,"SoundDuration":147827,"Delta":14699766},{"NoteNumber":76,"Velocity":53,"Duration":147827,"SoundDuration":147827,"Delta":14699766},{"NoteNumber":83,"Velocity":71,"Duration":295278,"SoundDuration":295278,"Delta":14699766},{"NoteNumber":62,"Velocity":38,"Duration":73913,"SoundDuration":73913,"Delta":14699766},{"NoteNumber":52,"Velocity":31,"Duration":73913,"SoundDuration":73913,"Delta":14699766},{"NoteNumber":45,"Velocity":55,"Duration":73763,"SoundDuration":73763,"Delta":14847593},{"NoteNumber":69,"Velocity":51,"Duration":147376,"SoundDuration":147376,"Delta":14995045},{"NoteNumber":76,"Velocity":51,"Duration":147376,"SoundDuration":147376,"Delta":14995045},{"NoteNumber":81,"Velocity":66,"Duration":294380,"SoundDuration":294380,"Delta":14995045},{"NoteNumber":60,"Velocity":38,"Duration":73688,"SoundDuration":73688,"Delta":14995045},{"NoteNumber":52,"Velocity":31,"Duration":73688,"SoundDuration":73688,"Delta":14995045},{"NoteNumber":47,"Velocity":55,"Duration":73539,"SoundDuration":73539,"Delta":15142421},{"NoteNumber":64,"Velocity":50,"Duration":146929,"SoundDuration":146929,"Delta":15289425},{"NoteNumber":71,"Velocity":50,"Duration":146929,"SoundDuration":146929,"Delta":15289425},{"NoteNumber":76,"Velocity":64,"Duration":293487,"SoundDuration":293487,"Delta":15289425},{"NoteNumber":52,"Velocity":31,"Duration":73464,"SoundDuration":73464,"Delta":15289425},{"NoteNumber":62,"Velocity":38,"Duration":73464,"SoundDuration":73464,"Delta":15289425},{"NoteNumber":56,"Velocity":31,"Duration":73464,"SoundDuration":73464,"Delta":15289425},{"NoteNumber":45,"Velocity":55,"Duration":73316,"SoundDuration":73316,"Delta":15436354},{"NoteNumber":69,"Velocity":46,"Duration":146484,"SoundDuration":146484,"Delta":15582912},{"NoteNumber":76,"Velocity":46,"Duration":146484,"SoundDuration":146484,"Delta":15582912},{"NoteNumber":81,"Velocity":60,"Duration":146484,"SoundDuration":146484,"Delta":15582912},{"NoteNumber":52,"Velocity":31,"Duration":73242,"SoundDuration":73242,"Delta":15582912},{"NoteNumber":60,"Velocity":38,"Duration":73242,"SoundDuration":73242,"Delta":15582912},{"NoteNumber":57,"Velocity":31,"Duration":73242,"SoundDuration":73242,"Delta":15582912},{"NoteNumber":40,"Velocity":55,"Duration":73097,"SoundDuration":73097,"Delta":15729397},{"NoteNumber":76,"Velocity":50,"Duration":72730,"SoundDuration":72730,"Delta":15875519},{"NoteNumber":71,"Velocity":50,"Duration":145313,"SoundDuration":145313,"Delta":15875519},{"NoteNumber":83,"Velocity":67,"Duration":290479,"SoundDuration":290479,"Delta":15875519},{"NoteNumber":52,"Velocity":31,"Duration":72730,"SoundDuration":72730,"Delta":15875519},{"NoteNumber":62,"Velocity":38,"Duration":72730,"SoundDuration":72730,"Delta":15875519},{"NoteNumber":56,"Velocity":31,"Duration":72730,"SoundDuration":72730,"Delta":15875519},{"NoteNumber":45,"Velocity":55,"Duration":72583,"SoundDuration":72583,"Delta":16020832},{"NoteNumber":69,"Velocity":53,"Duration":145165,"SoundDuration":145165,"Delta":16165998},{"NoteNumber":76,"Velocity":53,"Duration":72583,"SoundDuration":72583,"Delta":16165998},{"NoteNumber":81,"Velocity":69,"Duration":290332,"SoundDuration":290332,"Delta":16165998},{"NoteNumber":52,"Velocity":31,"Duration":72583,"SoundDuration":72583,"Delta":16165998},{"NoteNumber":60,"Velocity":38,"Duration":72583,"SoundDuration":72583,"Delta":16165998},{"NoteNumber":57,"Velocity":31,"Duration":72583,"SoundDuration":72583,"Delta":16165998},{"NoteNumber":47,"Velocity":56,"Duration":72583,"SoundDuration":72583,"Delta":16311164},{"NoteNumber":76,"Velocity":75,"Duration":290331,"SoundDuration":290331,"Delta":16456330},{"NoteNumber":71,"Velocity":58,"Duration":145165,"SoundDuration":145165,"Delta":16456330},{"NoteNumber":64,"Velocity":58,"Duration":145165,"SoundDuration":145165,"Delta":16456330},{"NoteNumber":52,"Velocity":35,"Duration":72582,"SoundDuration":72582,"Delta":16456330},{"NoteNumber":62,"Velocity":41,"Duration":72582,"SoundDuration":72582,"Delta":16456330},{"NoteNumber":56,"Velocity":35,"Duration":72582,"SoundDuration":72582,"Delta":16456330},{"NoteNumber":45,"Velocity":60,"Duration":72582,"SoundDuration":72582,"Delta":16601496},{"NoteNumber":69,"Velocity":57,"Duration":149305,"SoundDuration":149305,"Delta":16746662},{"NoteNumber":76,"Velocity":57,"Duration":149305,"SoundDuration":149305,"Delta":16746662},{"NoteNumber":81,"Velocity":67,"Duration":149305,"SoundDuration":149305,"Delta":16746662},{"NoteNumber":57,"Velocity":38,"Duration":72582,"SoundDuration":72582,"Delta":16746662},{"NoteNumber":60,"Velocity":46,"Duration":72582,"SoundDuration":72582,"Delta":16746662},{"NoteNumber":52,"Velocity":38,"Duration":72582,"SoundDuration":72582,"Delta":16746662},{"NoteNumber":43,"Velocity":64,"Duration":74794,"SoundDuration":74794,"Delta":16895968},{"NoteNumber":83,"Velocity":75,"Duration":299177,"SoundDuration":299177,"Delta":17045556},{"NoteNumber":76,"Velocity":61,"Duration":149588,"SoundDuration":149588,"Delta":17045556},{"NoteNumber":71,"Velocity":61,"Duration":149588,"SoundDuration":149588,"Delta":17045556},{"NoteNumber":64,"Velocity":46,"Duration":74794,"SoundDuration":74794,"Delta":17045556},{"NoteNumber":55,"Velocity":38,"Duration":74794,"SoundDuration":74794,"Delta":17045556},{"NoteNumber":45,"Velocity":68,"Duration":74794,"SoundDuration":74794,"Delta":17195145},{"NoteNumber":84,"Velocity":77,"Duration":298435,"SoundDuration":298435,"Delta":17344733},{"NoteNumber":76,"Velocity":63,"Duration":149588,"SoundDuration":149588,"Delta":17344733},{"NoteNumber":72,"Velocity":63,"Duration":149588,"SoundDuration":149588,"Delta":17344733},{"NoteNumber":64,"Velocity":44,"Duration":74794,"SoundDuration":74794,"Delta":17344733},{"NoteNumber":57,"Velocity":37,"Duration":74794,"SoundDuration":74794,"Delta":17344733},{"NoteNumber":47,"Velocity":63,"Duration":74423,"SoundDuration":74423,"Delta":17494322},{"NoteNumber":67,"Velocity":59,"Duration":148846,"SoundDuration":148846,"Delta":17643168},{"NoteNumber":71,"Velocity":59,"Duration":148846,"SoundDuration":148846,"Delta":17643168},{"NoteNumber":79,"Velocity":73,"Duration":297692,"SoundDuration":297692,"Delta":17643168},{"NoteNumber":64,"Velocity":45,"Duration":74423,"SoundDuration":74423,"Delta":17643168},{"NoteNumber":59,"Velocity":37,"Duration":74423,"SoundDuration":74423,"Delta":17643168},{"NoteNumber":47,"Velocity":62,"Duration":74423,"SoundDuration":74423,"Delta":17792015},{"NoteNumber":78,"Velocity":68,"Duration":296027,"SoundDuration":296027,"Delta":17940861},{"NoteNumber":71,"Velocity":56,"Duration":148808,"SoundDuration":148808,"Delta":17940861},{"NoteNumber":69,"Velocity":56,"Duration":148808,"SoundDuration":148808,"Delta":17940861},{"NoteNumber":63,"Velocity":44,"Duration":74423,"SoundDuration":74423,"Delta":17940861},{"NoteNumber":59,"Velocity":37,"Duration":74423,"SoundDuration":74423,"Delta":17940861},{"NoteNumber":52,"Velocity":61,"Duration":73519,"SoundDuration":73519,"Delta":18089670},{"NoteNumber":76,"Velocity":64,"Duration":1062786,"SoundDuration":1062786,"Delta":18236888},{"NoteNumber":71,"Velocity":53,"Duration":148017,"SoundDuration":148017,"Delta":18236888},{"NoteNumber":67,"Velocity":53,"Duration":148017,"SoundDuration":148017,"Delta":18236888},{"NoteNumber":64,"Velocity":44,"Duration":73917,"SoundDuration":73917,"Delta":18236888},{"NoteNumber":59,"Velocity":37,"Duration":73917,"SoundDuration":73917,"Delta":18236888},{"NoteNumber":45,"Velocity":60,"Duration":74283,"SoundDuration":74283,"Delta":18384906},{"NoteNumber":72,"Velocity":53,"Duration":149604,"SoundDuration":149604,"Delta":18533694},{"NoteNumber":69,"Velocity":44,"Duration":149604,"SoundDuration":149604,"Delta":18533694},{"NoteNumber":64,"Velocity":44,"Duration":74690,"SoundDuration":74690,"Delta":18533694},{"NoteNumber":57,"Velocity":37,"Duration":74690,"SoundDuration":74690,"Delta":18533694},{"NoteNumber":52,"Velocity":61,"Duration":75101,"SoundDuration":75101,"Delta":18683299},{"NoteNumber":71,"Velocity":51,"Duration":151233,"SoundDuration":151233,"Delta":18833691},{"NoteNumber":67,"Velocity":42,"Duration":151233,"SoundDuration":151233,"Delta":18833691},{"NoteNumber":64,"Velocity":41,"Duration":75517,"SoundDuration":75517,"Delta":18833691},{"NoteNumber":59,"Velocity":35,"Duration":75517,"SoundDuration":75517,"Delta":18833691},{"NoteNumber":45,"Velocity":58,"Duration":75653,"SoundDuration":75653,"Delta":18984925},{"NoteNumber":72,"Velocity":48,"Duration":161530,"SoundDuration":161530,"Delta":19138144},{"NoteNumber":69,"Velocity":39,"Duration":161530,"SoundDuration":161530,"Delta":19138144},{"NoteNumber":64,"Velocity":38,"Duration":79657,"SoundDuration":79657,"Delta":19138144},{"NoteNumber":57,"Velocity":31,"Duration":79657,"SoundDuration":79657,"Delta":19138144},{"NoteNumber":43,"Velocity":55,"Duration":80623,"SoundDuration":80623,"Delta":19299675},{"NoteNumber":83,"Velocity":61,"Duration":319935,"SoundDuration":319935,"Delta":19460922},{"NoteNumber":76,"Velocity":51,"Duration":161246,"SoundDuration":161246,"Delta":19460922},{"NoteNumber":71,"Velocity":51,"Duration":161246,"SoundDuration":161246,"Delta":19460922},{"NoteNumber":64,"Velocity":38,"Duration":80623,"SoundDuration":80623,"Delta":19460922},{"NoteNumber":55,"Velocity":31,"Duration":80623,"SoundDuration":80623,"Delta":19460922},{"NoteNumber":45,"Velocity":57,"Duration":79343,"SoundDuration":79343,"Delta":19622169},{"NoteNumber":84,"Velocity":64,"Duration":314897,"SoundDuration":314897,"Delta":19780857},{"NoteNumber":76,"Velocity":53,"Duration":158687,"SoundDuration":158687,"Delta":19780857},{"NoteNumber":72,"Velocity":53,"Duration":158687,"SoundDuration":158687,"Delta":19780857},{"NoteNumber":64,"Velocity":37,"Duration":79343,"SoundDuration":79343,"Delta":19780857},{"NoteNumber":57,"Velocity":30,"Duration":79343,"SoundDuration":79343,"Delta":19780857},{"NoteNumber":47,"Velocity":53,"Duration":78104,"SoundDuration":78104,"Delta":19939545},{"NoteNumber":67,"Velocity":49,"Duration":156209,"SoundDuration":156209,"Delta":20095754},{"NoteNumber":71,"Velocity":49,"Duration":156209,"SoundDuration":156209,"Delta":20095754},{"NoteNumber":79,"Velocity":60,"Duration":318766,"SoundDuration":318766,"Delta":20095754},{"NoteNumber":64,"Velocity":37,"Duration":78104,"SoundDuration":78104,"Delta":20095754},{"NoteNumber":59,"Velocity":30,"Duration":78104,"SoundDuration":78104,"Delta":20095754},{"NoteNumber":47,"Velocity":52,"Duration":81278,"SoundDuration":81278,"Delta":20251964},{"NoteNumber":78,"Velocity":56,"Duration":160593,"SoundDuration":160593,"Delta":20414521},{"NoteNumber":71,"Velocity":47,"Duration":160593,"SoundDuration":160593,"Delta":20414521},{"NoteNumber":69,"Velocity":47,"Duration":160593,"SoundDuration":160593,"Delta":20414521},{"NoteNumber":63,"Velocity":37,"Duration":81278,"SoundDuration":81278,"Delta":20414521},{"NoteNumber":59,"Velocity":30,"Duration":81278,"SoundDuration":81278,"Delta":20414521},{"NoteNumber":52,"Velocity":59,"Duration":74222,"SoundDuration":74222,"Delta":20575115},{"NoteNumber":76,"Velocity":63,"Duration":603487,"SoundDuration":603487,"Delta":20723916},{"NoteNumber":71,"Velocity":53,"Duration":149716,"SoundDuration":149716,"Delta":20723916},{"NoteNumber":67,"Velocity":53,"Duration":149716,"SoundDuration":149716,"Delta":20723916},{"NoteNumber":55,"Velocity":36,"Duration":74764,"SoundDuration":74764,"Delta":20723916},{"NoteNumber":64,"Velocity":45,"Duration":74764,"SoundDuration":74764,"Delta":20723916},{"NoteNumber":59,"Velocity":36,"Duration":74764,"SoundDuration":74764,"Delta":20723916},{"NoteNumber":51,"Velocity":63,"Duration":75139,"SoundDuration":75139,"Delta":20873633},{"NoteNumber":71,"Velocity":60,"Duration":151233,"SoundDuration":151233,"Delta":21024100},{"NoteNumber":67,"Velocity":50,"Duration":151233,"SoundDuration":151233,"Delta":21024100},{"NoteNumber":59,"Velocity":40,"Duration":75517,"SoundDuration":75517,"Delta":21024100},{"NoteNumber":64,"Velocity":50,"Duration":75517,"SoundDuration":75517,"Delta":21024100},{"NoteNumber":55,"Velocity":40,"Duration":75517,"SoundDuration":75517,"Delta":21024100},{"NoteNumber":50,"Velocity":72,"Duration":75938,"SoundDuration":75938,"Delta":21175334},{"NoteNumber":77,"Velocity":80,"Duration":460927,"SoundDuration":460927,"Delta":21327403},{"NoteNumber":71,"Velocity":63,"Duration":152843,"SoundDuration":152843,"Delta":21327403},{"NoteNumber":68,"Velocity":53,"Duration":152843,"SoundDuration":152843,"Delta":21327403},{"NoteNumber":56,"Velocity":44,"Duration":76324,"SoundDuration":76324,"Delta":21327403},{"NoteNumber":65,"Velocity":51,"Duration":76324,"SoundDuration":76324,"Delta":21327403},{"NoteNumber":59,"Velocity":44,"Duration":76324,"SoundDuration":76324,"Delta":21327403},{"NoteNumber":49,"Velocity":77,"Duration":76714,"SoundDuration":76714,"Delta":21480247},{"NoteNumber":71,"Velocity":64,"Duration":154457,"SoundDuration":154457,"Delta":21633873},{"NoteNumber":68,"Velocity":52,"Duration":154457,"SoundDuration":154457,"Delta":21633873},{"NoteNumber":56,"Velocity":42,"Duration":77109,"SoundDuration":77109,"Delta":21633873},{"NoteNumber":65,"Velocity":51,"Duration":77109,"SoundDuration":77109,"Delta":21633873},{"NoteNumber":59,"Velocity":42,"Duration":77109,"SoundDuration":77109,"Delta":21633873},{"NoteNumber":48,"Velocity":77,"Duration":73935,"SoundDuration":73935,"Delta":21788331},{"NoteNumber":69,"Velocity":74,"Duration":295278,"SoundDuration":295278,"Delta":21936180},{"NoteNumber":72,"Velocity":74,"Duration":295278,"SoundDuration":295278,"Delta":21936180},{"NoteNumber":81,"Velocity":89,"Duration":295278,"SoundDuration":295278,"Delta":21936180},{"NoteNumber":65,"Velocity":53,"Duration":73913,"SoundDuration":73913,"Delta":21936180},{"NoteNumber":57,"Velocity":44,"Duration":73913,"SoundDuration":73913,"Delta":21936180},{"NoteNumber":48,"Velocity":77,"Duration":73763,"SoundDuration":73763,"Delta":22084007},{"NoteNumber":68,"Velocity":71,"Duration":294380,"SoundDuration":294380,"Delta":22231458},{"NoteNumber":71,"Velocity":71,"Duration":294380,"SoundDuration":294380,"Delta":22231458},{"NoteNumber":80,"Velocity":84,"Duration":294380,"SoundDuration":294380,"Delta":22231458},{"NoteNumber":65,"Velocity":53,"Duration":73688,"SoundDuration":73688,"Delta":22231458},{"NoteNumber":56,"Velocity":44,"Duration":73688,"SoundDuration":73688,"Delta":22231458},{"NoteNumber":48,"Velocity":77,"Duration":73539,"SoundDuration":73539,"Delta":22378835},{"NoteNumber":67,"Velocity":70,"Duration":73464,"SoundDuration":73464,"Delta":22525838},{"NoteNumber":70,"Velocity":70,"Duration":73464,"SoundDuration":73464,"Delta":22525838},{"NoteNumber":79,"Velocity":82,"Duration":73464,"SoundDuration":73464,"Delta":22525838},{"NoteNumber":55,"Velocity":44,"Duration":73464,"SoundDuration":73464,"Delta":22525838},{"NoteNumber":64,"Velocity":53,"Duration":73464,"SoundDuration":73464,"Delta":22525838},{"NoteNumber":48,"Velocity":77,"Duration":72237,"SoundDuration":72237,"Delta":22672767},{"NoteNumber":64,"Velocity":63,"Duration":72237,"SoundDuration":72237,"Delta":22817241},{"NoteNumber":70,"Velocity":63,"Duration":72237,"SoundDuration":72237,"Delta":22817241},{"NoteNumber":72,"Velocity":77,"Duration":72237,"SoundDuration":72237,"Delta":22817241},{"NoteNumber":55,"Velocity":44,"Duration":72237,"SoundDuration":72237,"Delta":22817241},{"NoteNumber":60,"Velocity":53,"Duration":72237,"SoundDuration":72237,"Delta":22817241},{"NoteNumber":48,"Velocity":77,"Duration":72236,"SoundDuration":72236,"Delta":22961715},{"NoteNumber":67,"Velocity":70,"Duration":72237,"SoundDuration":72237,"Delta":23106189},{"NoteNumber":70,"Velocity":70,"Duration":72237,"SoundDuration":72237,"Delta":23106189},{"NoteNumber":79,"Velocity":82,"Duration":72237,"SoundDuration":72237,"Delta":23106189},{"NoteNumber":55,"Velocity":44,"Duration":72237,"SoundDuration":72237,"Delta":23106189},{"NoteNumber":64,"Velocity":53,"Duration":72237,"SoundDuration":72237,"Delta":23106189},{"NoteNumber":48,"Velocity":77,"Duration":72237,"SoundDuration":72237,"Delta":23250663},{"NoteNumber":64,"Velocity":63,"Duration":72236,"SoundDuration":72236,"Delta":23395137},{"NoteNumber":70,"Velocity":63,"Duration":72236,"SoundDuration":72236,"Delta":23395137},{"NoteNumber":72,"Velocity":77,"Duration":72236,"SoundDuration":72236,"Delta":23395137},{"NoteNumber":55,"Velocity":44,"Duration":72236,"SoundDuration":72236,"Delta":23395137},{"NoteNumber":60,"Velocity":53,"Duration":72236,"SoundDuration":72236,"Delta":23395137},{"NoteNumber":48,"Velocity":77,"Duration":72954,"SoundDuration":72954,"Delta":23539611},{"NoteNumber":67,"Velocity":70,"Duration":73313,"SoundDuration":73313,"Delta":23685880},{"NoteNumber":70,"Velocity":70,"Duration":73313,"SoundDuration":73313,"Delta":23685880},{"NoteNumber":79,"Velocity":82,"Duration":73313,"SoundDuration":73313,"Delta":23685880},{"NoteNumber":55,"Velocity":44,"Duration":73313,"SoundDuration":73313,"Delta":23685880},{"NoteNumber":64,"Velocity":53,"Duration":73313,"SoundDuration":73313,"Delta":23685880},{"NoteNumber":53,"Velocity":77,"Duration":73313,"SoundDuration":73313,"Delta":23832507},{"NoteNumber":69,"Velocity":63,"Duration":73313,"SoundDuration":73313,"Delta":23979135},{"NoteNumber":77,"Velocity":77,"Duration":73313,"SoundDuration":73313,"Delta":23979135},{"NoteNumber":57,"Velocity":44,"Duration":73313,"SoundDuration":73313,"Delta":23979135},{"NoteNumber":65,"Velocity":53,"Duration":73313,"SoundDuration":73313,"Delta":23979135},{"NoteNumber":44,"Velocity":61,"Duration":73935,"SoundDuration":73935,"Delta":24125762},{"NoteNumber":65,"Velocity":59,"Duration":295278,"SoundDuration":295278,"Delta":24273611},{"NoteNumber":68,"Velocity":59,"Duration":295278,"SoundDuration":295278,"Delta":24273611},{"NoteNumber":77,"Velocity":70,"Duration":295278,"SoundDuration":295278,"Delta":24273611},{"NoteNumber":61,"Velocity":42,"Duration":73913,"SoundDuration":73913,"Delta":24273611},{"NoteNumber":53,"Velocity":35,"Duration":73913,"SoundDuration":73913,"Delta":24273611},{"NoteNumber":44,"Velocity":61,"Duration":73763,"SoundDuration":73763,"Delta":24421438},{"NoteNumber":64,"Velocity":57,"Duration":294380,"SoundDuration":294380,"Delta":24568890},{"NoteNumber":67,"Velocity":57,"Duration":294380,"SoundDuration":294380,"Delta":24568890},{"NoteNumber":76,"Velocity":67,"Duration":294380,"SoundDuration":294380,"Delta":24568890},{"NoteNumber":61,"Velocity":42,"Duration":73688,"SoundDuration":73688,"Delta":24568890},{"NoteNumber":52,"Velocity":35,"Duration":73688,"SoundDuration":73688,"Delta":24568890},{"NoteNumber":44,"Velocity":61,"Duration":73539,"SoundDuration":73539,"Delta":24716266},{"NoteNumber":63,"Velocity":56,"Duration":73464,"SoundDuration":73464,"Delta":24863270},{"NoteNumber":66,"Velocity":56,"Duration":73464,"SoundDuration":73464,"Delta":24863270},{"NoteNumber":75,"Velocity":66,"Duration":73464,"SoundDuration":73464,"Delta":24863270},{"NoteNumber":51,"Velocity":35,"Duration":73464,"SoundDuration":73464,"Delta":24863270},{"NoteNumber":60,"Velocity":42,"Duration":73464,"SoundDuration":73464,"Delta":24863270},{"NoteNumber":44,"Velocity":61,"Duration":72237,"SoundDuration":72237,"Delta":25010199},{"NoteNumber":60,"Velocity":50,"Duration":72237,"SoundDuration":72237,"Delta":25154673},{"NoteNumber":66,"Velocity":50,"Duration":72237,"SoundDuration":72237,"Delta":25154673},{"NoteNumber":68,"Velocity":61,"Duration":72237,"SoundDuration":72237,"Delta":25154673},{"NoteNumber":51,"Velocity":35,"Duration":72237,"SoundDuration":72237,"Delta":25154673},{"NoteNumber":56,"Velocity":42,"Duration":72237,"SoundDuration":72237,"Delta":25154673},{"NoteNumber":44,"Velocity":61,"Duration":72236,"SoundDuration":72236,"Delta":25299147},{"NoteNumber":66,"Velocity":56,"Duration":72237,"SoundDuration":72237,"Delta":25443621},{"NoteNumber":68,"Velocity":56,"Duration":72237,"SoundDuration":72237,"Delta":25443621},{"NoteNumber":75,"Velocity":66,"Duration":72237,"SoundDuration":72237,"Delta":25443621},{"NoteNumber":51,"Velocity":35,"Duration":72237,"SoundDuration":72237,"Delta":25443621},{"NoteNumber":60,"Velocity":42,"Duration":72237,"SoundDuration":72237,"Delta":25443621},{"NoteNumber":44,"Velocity":61,"Duration":72237,"SoundDuration":72237,"Delta":25588095},{"NoteNumber":60,"Velocity":50,"Duration":73979,"SoundDuration":73979,"Delta":25732569},{"NoteNumber":66,"Velocity":50,"Duration":73979,"SoundDuration":73979,"Delta":25732569},{"NoteNumber":68,"Velocity":61,"Duration":73979,"SoundDuration":73979,"Delta":25732569},{"NoteNumber":51,"Velocity":35,"Duration":73979,"SoundDuration":73979,"Delta":25732569},{"NoteNumber":56,"Velocity":42,"Duration":73979,"SoundDuration":73979,"Delta":25732569},{"NoteNumber":44,"Velocity":61,"Duration":73535,"SoundDuration":73535,"Delta":25880527},{"NoteNumber":66,"Velocity":56,"Duration":73313,"SoundDuration":73313,"Delta":26027376},{"NoteNumber":68,"Velocity":56,"Duration":73313,"SoundDuration":73313,"Delta":26027376},{"NoteNumber":75,"Velocity":66,"Duration":73313,"SoundDuration":73313,"Delta":26027376},{"NoteNumber":51,"Velocity":35,"Duration":73313,"SoundDuration":73313,"Delta":26027376},{"NoteNumber":60,"Velocity":42,"Duration":73313,"SoundDuration":73313,"Delta":26027376},{"NoteNumber":44,"Velocity":61,"Duration":72667,"SoundDuration":72667,"Delta":26174004},{"NoteNumber":68,"Velocity":50,"Duration":145334,"SoundDuration":145334,"Delta":26319339},{"NoteNumber":65,"Velocity":50,"Duration":145334,"SoundDuration":145334,"Delta":26319339},{"NoteNumber":73,"Velocity":61,"Duration":291962,"SoundDuration":291962,"Delta":26319339},{"NoteNumber":53,"Velocity":35,"Duration":72667,"SoundDuration":72667,"Delta":26319339},{"NoteNumber":61,"Velocity":42,"Duration":72667,"SoundDuration":72667,"Delta":26319339},{"NoteNumber":44,"Velocity":61,"Duration":73313,"SoundDuration":73313,"Delta":26464674},{"NoteNumber":63,"Velocity":56,"Duration":146627,"SoundDuration":146627,"Delta":26611301},{"NoteNumber":68,"Velocity":56,"Duration":146627,"SoundDuration":146627,"Delta":26611301},{"NoteNumber":72,"Velocity":66,"Duration":293254,"SoundDuration":293254,"Delta":26611301},{"NoteNumber":51,"Velocity":35,"Duration":73313,"SoundDuration":73313,"Delta":26611301},{"NoteNumber":60,"Velocity":42,"Duration":73313,"SoundDuration":73313,"Delta":26611301},{"NoteNumber":44,"Velocity":61,"Duration":73313,"SoundDuration":73313,"Delta":26757929},{"NoteNumber":61,"Velocity":50,"Duration":146627,"SoundDuration":146627,"Delta":26904556},{"NoteNumber":68,"Velocity":50,"Duration":146627,"SoundDuration":146627,"Delta":26904556},{"NoteNumber":70,"Velocity":62,"Duration":293254,"SoundDuration":293254,"Delta":26904556},{"NoteNumber":49,"Velocity":35,"Duration":73313,"SoundDuration":73313,"Delta":26904556},{"NoteNumber":58,"Velocity":42,"Duration":73313,"SoundDuration":73313,"Delta":26904556},{"NoteNumber":44,"Velocity":62,"Duration":73313,"SoundDuration":73313,"Delta":27051184},{"NoteNumber":60,"Velocity":57,"Duration":146627,"SoundDuration":146627,"Delta":27197811},{"NoteNumber":68,"Velocity":67,"Duration":296853,"SoundDuration":296853,"Delta":27197811},{"NoteNumber":48,"Velocity":35,"Duration":73313,"SoundDuration":73313,"Delta":27197811},{"NoteNumber":56,"Velocity":44,"Duration":73313,"SoundDuration":73313,"Delta":27197811},{"NoteNumber":44,"Velocity":63,"Duration":75112,"SoundDuration":75112,"Delta":27344439},{"NoteNumber":68,"Velocity":52,"Duration":150225,"SoundDuration":150225,"Delta":27494664},{"NoteNumber":66,"Velocity":52,"Duration":150225,"SoundDuration":150225,"Delta":27494664},{"NoteNumber":75,"Velocity":63,"Duration":296852,"SoundDuration":296852,"Delta":27494664},{"NoteNumber":54,"Velocity":36,"Duration":75112,"SoundDuration":75112,"Delta":27494664},{"NoteNumber":63,"Velocity":44,"Duration":75112,"SoundDuration":75112,"Delta":27494664},{"NoteNumber":44,"Velocity":64,"Duration":73313,"SoundDuration":73313,"Delta":27644890},{"NoteNumber":65,"Velocity":59,"Duration":146627,"SoundDuration":146627,"Delta":27791517},{"NoteNumber":68,"Velocity":59,"Duration":146627,"SoundDuration":146627,"Delta":27791517},{"NoteNumber":73,"Velocity":70,"Duration":293254,"SoundDuration":293254,"Delta":27791517},{"NoteNumber":53,"Velocity":37,"Duration":73313,"SoundDuration":73313,"Delta":27791517},{"NoteNumber":61,"Velocity":45,"Duration":73313,"SoundDuration":73313,"Delta":27791517},{"NoteNumber":44,"Velocity":64,"Duration":73313,"SoundDuration":73313,"Delta":27938145},{"NoteNumber":61,"Velocity":53,"Duration":146627,"SoundDuration":146627,"Delta":28084772},{"NoteNumber":68,"Velocity":53,"Duration":146627,"SoundDuration":146627,"Delta":28084772},{"NoteNumber":70,"Velocity":66,"Duration":293254,"SoundDuration":293254,"Delta":28084772},{"NoteNumber":49,"Velocity":37,"Duration":73313,"SoundDuration":73313,"Delta":28084772},{"NoteNumber":58,"Velocity":46,"Duration":73313,"SoundDuration":73313,"Delta":28084772},{"NoteNumber":44,"Velocity":67,"Duration":73313,"SoundDuration":73313,"Delta":28231400},{"NoteNumber":68,"Velocity":61,"Duration":146627,"SoundDuration":146627,"Delta":28378027},{"NoteNumber":65,"Velocity":61,"Duration":146627,"SoundDuration":146627,"Delta":28378027},{"NoteNumber":73,"Velocity":72,"Duration":295032,"SoundDuration":295032,"Delta":28378027},{"NoteNumber":53,"Velocity":38,"Duration":73313,"SoundDuration":73313,"Delta":28378027},{"NoteNumber":61,"Velocity":46,"Duration":73313,"SoundDuration":73313,"Delta":28378027},{"NoteNumber":44,"Velocity":67,"Duration":74202,"SoundDuration":74202,"Delta":28524655},{"NoteNumber":68,"Velocity":56,"Duration":148404,"SoundDuration":148404,"Delta":28673059},{"NoteNumber":63,"Velocity":56,"Duration":148404,"SoundDuration":148404,"Delta":28673059},{"NoteNumber":72,"Velocity":68,"Duration":295031,"SoundDuration":295031,"Delta":28673059},{"NoteNumber":51,"Velocity":38,"Duration":74202,"SoundDuration":74202,"Delta":28673059},{"NoteNumber":60,"Velocity":47,"Duration":74202,"SoundDuration":74202,"Delta":28673059},{"NoteNumber":44,"Velocity":68,"Duration":73313,"SoundDuration":73313,"Delta":28821464},{"NoteNumber":66,"Velocity":62,"Duration":146627,"SoundDuration":146627,"Delta":28968091},{"NoteNumber":68,"Velocity":62,"Duration":146627,"SoundDuration":146627,"Delta":28968091},{"NoteNumber":75,"Velocity":73,"Duration":293254,"SoundDuration":293254,"Delta":28968091},{"NoteNumber":54,"Velocity":39,"Duration":73313,"SoundDuration":73313,"Delta":28968091},{"NoteNumber":63,"Velocity":48,"Duration":73313,"SoundDuration":73313,"Delta":28968091},{"NoteNumber":44,"Velocity":69,"Duration":73313,"SoundDuration":73313,"Delta":29114719},{"NoteNumber":65,"Velocity":57,"Duration":146627,"SoundDuration":146627,"Delta":29261346},{"NoteNumber":68,"Velocity":57,"Duration":146627,"SoundDuration":146627,"Delta":29261346},{"NoteNumber":73,"Velocity":69,"Duration":293254,"SoundDuration":293254,"Delta":29261346},{"NoteNumber":53,"Velocity":39,"Duration":73313,"SoundDuration":73313,"Delta":29261346},{"NoteNumber":61,"Velocity":48,"Duration":73313,"SoundDuration":73313,"Delta":29261346},{"NoteNumber":44,"Velocity":70,"Duration":73313,"SoundDuration":73313,"Delta":29407974},{"NoteNumber":68,"Velocity":64,"Duration":146627,"SoundDuration":146627,"Delta":29554601},{"NoteNumber":63,"Velocity":64,"Duration":146627,"SoundDuration":146627,"Delta":29554601},{"NoteNumber":72,"Velocity":75,"Duration":293254,"SoundDuration":293254,"Delta":29554601},{"NoteNumber":51,"Velocity":40,"Duration":73313,"SoundDuration":73313,"Delta":29554601},{"NoteNumber":60,"Velocity":49,"Duration":73313,"SoundDuration":73313,"Delta":29554601},{"NoteNumber":45,"Velocity":71,"Duration":73313,"SoundDuration":73313,"Delta":29701229},{"NoteNumber":72,"Velocity":58,"Duration":146627,"SoundDuration":146627,"Delta":29847856},{"NoteNumber":66,"Velocity":58,"Duration":146627,"SoundDuration":146627,"Delta":29847856},{"NoteNumber":77,"Velocity":71,"Duration":293255,"SoundDuration":293255,"Delta":29847856},{"NoteNumber":54,"Velocity":40,"Duration":73313,"SoundDuration":73313,"Delta":29847856},{"NoteNumber":65,"Velocity":49,"Duration":73313,"SoundDuration":73313,"Delta":29847856},{"NoteNumber":44,"Velocity":72,"Duration":73313,"SoundDuration":73313,"Delta":29994484},{"NoteNumber":66,"Velocity":66,"Duration":146627,"SoundDuration":146627,"Delta":30141111},{"NoteNumber":72,"Velocity":66,"Duration":146627,"SoundDuration":146627,"Delta":30141111},{"NoteNumber":75,"Velocity":78,"Duration":293254,"SoundDuration":293254,"Delta":30141111},{"NoteNumber":54,"Velocity":41,"Duration":73313,"SoundDuration":73313,"Delta":30141111},{"NoteNumber":63,"Velocity":50,"Duration":73313,"SoundDuration":73313,"Delta":30141111},{"NoteNumber":44,"Velocity":73,"Duration":73313,"SoundDuration":73313,"Delta":30287739},{"NoteNumber":63,"Velocity":60,"Duration":146627,"SoundDuration":146627,"Delta":30434366},{"NoteNumber":66,"Velocity":60,"Duration":146627,"SoundDuration":146627,"Delta":30434366},{"NoteNumber":72,"Velocity":73,"Duration":293254,"SoundDuration":293254,"Delta":30434366},{"NoteNumber":54,"Velocity":41,"Duration":73313,"SoundDuration":73313,"Delta":30434366},{"NoteNumber":60,"Velocity":51,"Duration":73313,"SoundDuration":73313,"Delta":30434366},{"NoteNumber":46,"Velocity":73,"Duration":73313,"SoundDuration":73313,"Delta":30580994},{"NoteNumber":70,"Velocity":68,"Duration":146627,"SoundDuration":146627,"Delta":30727621},{"NoteNumber":66,"Velocity":68,"Duration":146627,"SoundDuration":146627,"Delta":30727621},{"NoteNumber":75,"Velocity":80,"Duration":295032,"SoundDuration":295032,"Delta":30727621},{"NoteNumber":54,"Velocity":42,"Duration":73313,"SoundDuration":73313,"Delta":30727621},{"NoteNumber":63,"Velocity":51,"Duration":73313,"SoundDuration":73313,"Delta":30727621},{"NoteNumber":46,"Velocity":74,"Duration":74202,"SoundDuration":74202,"Delta":30874249},{"NoteNumber":70,"Velocity":62,"Duration":148404,"SoundDuration":148404,"Delta":31022653},{"NoteNumber":65,"Velocity":62,"Duration":148404,"SoundDuration":148404,"Delta":31022653},{"NoteNumber":74,"Velocity":75,"Duration":296253,"SoundDuration":296253,"Delta":31022653},{"NoteNumber":53,"Velocity":42,"Duration":74202,"SoundDuration":74202,"Delta":31022653},{"NoteNumber":62,"Velocity":52,"Duration":74202,"SoundDuration":74202,"Delta":31022653},{"NoteNumber":47,"Velocity":77,"Duration":73935,"SoundDuration":73935,"Delta":31171058},{"NoteNumber":68,"Velocity":71,"Duration":147826,"SoundDuration":147826,"Delta":31318906},{"NoteNumber":74,"Velocity":71,"Duration":147826,"SoundDuration":147826,"Delta":31318906},{"NoteNumber":80,"Velocity":84,"Duration":295278,"SoundDuration":295278,"Delta":31318906},{"NoteNumber":65,"Velocity":53,"Duration":73913,"SoundDuration":73913,"Delta":31318906},{"NoteNumber":56,"Velocity":44,"Duration":73913,"SoundDuration":73913,"Delta":31318906},{"NoteNumber":47,"Velocity":77,"Duration":73763,"SoundDuration":73763,"Delta":31466733},{"NoteNumber":67,"Velocity":71,"Duration":147376,"SoundDuration":147376,"Delta":31614185},{"NoteNumber":74,"Velocity":71,"Duration":147376,"SoundDuration":147376,"Delta":31614185},{"NoteNumber":79,"Velocity":84,"Duration":294380,"SoundDuration":294380,"Delta":31614185},{"NoteNumber":65,"Velocity":53,"Duration":73688,"SoundDuration":73688,"Delta":31614185},{"NoteNumber":55,"Velocity":44,"Duration":73688,"SoundDuration":73688,"Delta":31614185},{"NoteNumber":48,"Velocity":77,"Duration":73539,"SoundDuration":73539,"Delta":31761561},{"NoteNumber":64,"Velocity":70,"Duration":291403,"SoundDuration":291403,"Delta":31908565},{"NoteNumber":70,"Velocity":70,"Duration":291403,"SoundDuration":291403,"Delta":31908565},{"NoteNumber":72,"Velocity":82,"Duration":146929,"SoundDuration":146929,"Delta":31908565},{"NoteNumber":55,"Velocity":44,"Duration":73464,"SoundDuration":73464,"Delta":31908565},{"NoteNumber":60,"Velocity":53,"Duration":73464,"SoundDuration":73464,"Delta":31908565},{"NoteNumber":41,"Velocity":77,"Duration":72237,"SoundDuration":72237,"Delta":32055494},{"NoteNumber":65,"Velocity":63,"Duration":144473,"SoundDuration":144473,"Delta":32199968},{"NoteNumber":68,"Velocity":63,"Duration":144473,"SoundDuration":144473,"Delta":32199968},{"NoteNumber":77,"Velocity":77,"Duration":144473,"SoundDuration":144473,"Delta":32199968},{"NoteNumber":53,"Velocity":44,"Duration":72236,"SoundDuration":72236,"Delta":32199968},{"NoteNumber":60,"Velocity":53,"Duration":72236,"SoundDuration":72236,"Delta":32199968},{"NoteNumber":47,"Velocity":77,"Duration":73935,"SoundDuration":73935,"Delta":32344442},{"NoteNumber":68,"Velocity":70,"Duration":147826,"SoundDuration":147826,"Delta":32492291},{"NoteNumber":74,"Velocity":70,"Duration":147826,"SoundDuration":147826,"Delta":32492291},{"NoteNumber":80,"Velocity":83,"Duration":147826,"SoundDuration":147826,"Delta":32492291},{"NoteNumber":65,"Velocity":53,"Duration":73913,"SoundDuration":73913,"Delta":32492291},{"NoteNumber":56,"Velocity":44,"Duration":73913,"SoundDuration":73913,"Delta":32492291},{"NoteNumber":47,"Velocity":77,"Duration":73763,"SoundDuration":73763,"Delta":32640118},{"NoteNumber":67,"Velocity":71,"Duration":147376,"SoundDuration":147376,"Delta":32787569},{"NoteNumber":74,"Velocity":71,"Duration":147376,"SoundDuration":147376,"Delta":32787569},{"NoteNumber":79,"Velocity":84,"Duration":147376,"SoundDuration":147376,"Delta":32787569},{"NoteNumber":65,"Velocity":53,"Duration":73688,"SoundDuration":73688,"Delta":32787569},{"NoteNumber":55,"Velocity":44,"Duration":73688,"SoundDuration":73688,"Delta":32787569},{"NoteNumber":48,"Velocity":77,"Duration":73539,"SoundDuration":73539,"Delta":32934946},{"NoteNumber":64,"Velocity":70,"Duration":146929,"SoundDuration":146929,"Delta":33081950},{"NoteNumber":70,"Velocity":70,"Duration":146929,"SoundDuration":146929,"Delta":33081950},{"NoteNumber":72,"Velocity":82,"Duration":146929,"SoundDuration":146929,"Delta":33081950},{"NoteNumber":55,"Velocity":44,"Duration":73464,"SoundDuration":73464,"Delta":33081950},{"NoteNumber":60,"Velocity":53,"Duration":73464,"SoundDuration":73464,"Delta":33081950},{"NoteNumber":41,"Velocity":77,"Duration":72237,"SoundDuration":72237,"Delta":33228879},{"NoteNumber":65,"Velocity":63,"Duration":144473,"SoundDuration":144473,"Delta":33373353},{"NoteNumber":68,"Velocity":63,"Duration":144473,"SoundDuration":144473,"Delta":33373353},{"NoteNumber":77,"Velocity":77,"Duration":144473,"SoundDuration":144473,"Delta":33373353},{"NoteNumber":53,"Velocity":44,"Duration":72236,"SoundDuration":72236,"Delta":33373353},{"NoteNumber":60,"Velocity":53,"Duration":72236,"SoundDuration":72236,"Delta":33373353},{"NoteNumber":39,"Velocity":69,"Duration":73935,"SoundDuration":73935,"Delta":33517827},{"NoteNumber":67,"Velocity":62,"Duration":73913,"SoundDuration":73913,"Delta":33665675},{"NoteNumber":72,"Velocity":62,"Duration":73913,"SoundDuration":73913,"Delta":33665675},{"NoteNumber":79,"Velocity":74,"Duration":73913,"SoundDuration":73913,"Delta":33665675},{"NoteNumber":60,"Velocity":48,"Duration":73913,"SoundDuration":73913,"Delta":33665675},{"NoteNumber":51,"Velocity":39,"Duration":73913,"SoundDuration":73913,"Delta":33665675},{"NoteNumber":41,"Velocity":69,"Duration":73913,"SoundDuration":73913,"Delta":33813502},{"NoteNumber":68,"Velocity":63,"Duration":73913,"SoundDuration":73913,"Delta":33961329},{"NoteNumber":72,"Velocity":63,"Duration":73913,"SoundDuration":73913,"Delta":33961329},{"NoteNumber":80,"Velocity":75,"Duration":73913,"SoundDuration":73913,"Delta":33961329},{"NoteNumber":60,"Velocity":48,"Duration":73913,"SoundDuration":73913,"Delta":33961329},{"NoteNumber":53,"Velocity":39,"Duration":73913,"SoundDuration":73913,"Delta":33961329},{"NoteNumber":43,"Velocity":69,"Duration":73913,"SoundDuration":73913,"Delta":34109156},{"NoteNumber":63,"Velocity":62,"Duration":73913,"SoundDuration":73913,"Delta":34256983},{"NoteNumber":67,"Velocity":62,"Duration":73913,"SoundDuration":73913,"Delta":34256983},{"NoteNumber":75,"Velocity":73,"Duration":73913,"SoundDuration":73913,"Delta":34256983},{"NoteNumber":55,"Velocity":39,"Duration":73913,"SoundDuration":73913,"Delta":34256983},{"NoteNumber":60,"Velocity":48,"Duration":73913,"SoundDuration":73913,"Delta":34256983},{"NoteNumber":43,"Velocity":69,"Duration":75112,"SoundDuration":75112,"Delta":34404810},{"NoteNumber":65,"Velocity":57,"Duration":75112,"SoundDuration":75112,"Delta":34555036},{"NoteNumber":67,"Velocity":57,"Duration":75112,"SoundDuration":75112,"Delta":34555036},{"NoteNumber":74,"Velocity":69,"Duration":75112,"SoundDuration":75112,"Delta":34555036},{"NoteNumber":55,"Velocity":39,"Duration":75112,"SoundDuration":75112,"Delta":34555036},{"NoteNumber":59,"Velocity":48,"Duration":75112,"SoundDuration":75112,"Delta":34555036},{"NoteNumber":48,"Velocity":61,"Duration":76903,"SoundDuration":76903,"Delta":34705261},{"NoteNumber":63,"Velocity":56,"Duration":153414,"SoundDuration":153414,"Delta":34859068},{"NoteNumber":67,"Velocity":56,"Duration":153414,"SoundDuration":153414,"Delta":34859068},{"NoteNumber":72,"Velocity":67,"Duration":1082413,"SoundDuration":1082413,"Delta":34859068},{"NoteNumber":60,"Velocity":42,"Duration":76903,"SoundDuration":76903,"Delta":34859068},{"NoteNumber":55,"Velocity":35,"Duration":76903,"SoundDuration":76903,"Delta":34859068},{"NoteNumber":41,"Velocity":61,"Duration":76510,"SoundDuration":76510,"Delta":35012482},{"NoteNumber":65,"Velocity":57,"Duration":153022,"SoundDuration":153022,"Delta":35165504},{"NoteNumber":68,"Velocity":57,"Duration":153022,"SoundDuration":153022,"Delta":35165504},{"NoteNumber":60,"Velocity":42,"Duration":76510,"SoundDuration":76510,"Delta":35165504},{"NoteNumber":53,"Velocity":35,"Duration":76510,"SoundDuration":76510,"Delta":35165504},{"NoteNumber":48,"Velocity":61,"Duration":76510,"SoundDuration":76510,"Delta":35318526},{"NoteNumber":63,"Velocity":56,"Duration":153022,"SoundDuration":153022,"Delta":35471548},{"NoteNumber":67,"Velocity":56,"Duration":153022,"SoundDuration":153022,"Delta":35471548},{"NoteNumber":55,"Velocity":35,"Duration":76510,"SoundDuration":76510,"Delta":35471548},{"NoteNumber":60,"Velocity":42,"Duration":76510,"SoundDuration":76510,"Delta":35471548},{"NoteNumber":41,"Velocity":61,"Duration":76510,"SoundDuration":76510,"Delta":35624570},{"NoteNumber":65,"Velocity":50,"Duration":163889,"SoundDuration":163889,"Delta":35777592},{"NoteNumber":68,"Velocity":50,"Duration":163889,"SoundDuration":163889,"Delta":35777592},{"NoteNumber":53,"Velocity":35,"Duration":81944,"SoundDuration":81944,"Delta":35777592},{"NoteNumber":60,"Velocity":42,"Duration":81944,"SoundDuration":81944,"Delta":35777592},{"NoteNumber":39,"Velocity":55,"Duration":80623,"SoundDuration":80623,"Delta":35941482},{"NoteNumber":67,"Velocity":44,"Duration":322493,"SoundDuration":322493,"Delta":36102729},{"NoteNumber":72,"Velocity":44,"Duration":322493,"SoundDuration":322493,"Delta":36102729},{"NoteNumber":79,"Velocity":52,"Duration":322493,"SoundDuration":322493,"Delta":36102729},{"NoteNumber":60,"Velocity":34,"Duration":80623,"SoundDuration":80623,"Delta":36102729},{"NoteNumber":51,"Velocity":27,"Duration":80623,"SoundDuration":80623,"Delta":36102729},{"NoteNumber":41,"Velocity":49,"Duration":80623,"SoundDuration":80623,"Delta":36263976},{"NoteNumber":68,"Velocity":45,"Duration":318685,"SoundDuration":318685,"Delta":36425223},{"NoteNumber":72,"Velocity":45,"Duration":318685,"SoundDuration":318685,"Delta":36425223},{"NoteNumber":80,"Velocity":53,"Duration":318685,"SoundDuration":318685,"Delta":36425223},{"NoteNumber":53,"Velocity":27,"Duration":80623,"SoundDuration":80623,"Delta":36425223},{"NoteNumber":60,"Velocity":34,"Duration":80623,"SoundDuration":80623,"Delta":36425223},{"NoteNumber":43,"Velocity":49,"Duration":78719,"SoundDuration":78719,"Delta":36586470},{"NoteNumber":63,"Velocity":44,"Duration":320882,"SoundDuration":320882,"Delta":36743909},{"NoteNumber":67,"Velocity":44,"Duration":320882,"SoundDuration":320882,"Delta":36743909},{"NoteNumber":75,"Velocity":51,"Duration":320882,"SoundDuration":320882,"Delta":36743909},{"NoteNumber":60,"Velocity":34,"Duration":78719,"SoundDuration":78719,"Delta":36743909},{"NoteNumber":55,"Velocity":27,"Duration":78719,"SoundDuration":78719,"Delta":36743909},{"NoteNumber":43,"Velocity":49,"Duration":81721,"SoundDuration":81721,"Delta":36901348},{"NoteNumber":65,"Velocity":39,"Duration":163443,"SoundDuration":163443,"Delta":37064791},{"NoteNumber":67,"Velocity":39,"Duration":163443,"SoundDuration":163443,"Delta":37064791},{"NoteNumber":74,"Velocity":49,"Duration":322552,"SoundDuration":322552,"Delta":37064791},{"NoteNumber":59,"Velocity":34,"Duration":81721,"SoundDuration":81721,"Delta":37064791},{"NoteNumber":55,"Velocity":27,"Duration":81721,"SoundDuration":81721,"Delta":37064791},{"NoteNumber":48,"Velocity":42,"Duration":79554,"SoundDuration":79554,"Delta":37228234},{"NoteNumber":63,"Velocity":39,"Duration":159109,"SoundDuration":159109,"Delta":37387343},{"NoteNumber":67,"Velocity":39,"Duration":159109,"SoundDuration":159109,"Delta":37387343},{"NoteNumber":72,"Velocity":47,"Duration":1113762,"SoundDuration":1113762,"Delta":37387343},{"NoteNumber":60,"Velocity":29,"Duration":79554,"SoundDuration":79554,"Delta":37387343},{"NoteNumber":55,"Velocity":24,"Duration":79554,"SoundDuration":79554,"Delta":37387343},{"NoteNumber":41,"Velocity":39,"Duration":79554,"SoundDuration":79554,"Delta":37546452},{"NoteNumber":65,"Velocity":45,"Duration":159109,"SoundDuration":159109,"Delta":37705561},{"NoteNumber":68,"Velocity":45,"Duration":159109,"SoundDuration":159109,"Delta":37705561},{"NoteNumber":60,"Velocity":34,"Duration":79554,"SoundDuration":79554,"Delta":37705561},{"NoteNumber":53,"Velocity":27,"Duration":79554,"SoundDuration":79554,"Delta":37705561},{"NoteNumber":48,"Velocity":41,"Duration":79554,"SoundDuration":79554,"Delta":37864670},{"NoteNumber":63,"Velocity":44,"Duration":159109,"SoundDuration":159109,"Delta":38023779},{"NoteNumber":67,"Velocity":44,"Duration":159109,"SoundDuration":159109,"Delta":38023779},{"NoteNumber":55,"Velocity":27,"Duration":79554,"SoundDuration":79554,"Delta":38023779},{"NoteNumber":60,"Velocity":34,"Duration":79554,"SoundDuration":79554,"Delta":38023779},{"NoteNumber":41,"Velocity":42,"Duration":79554,"SoundDuration":79554,"Delta":38182888},{"NoteNumber":65,"Velocity":39,"Duration":159109,"SoundDuration":159109,"Delta":38341997},{"NoteNumber":68,"Velocity":39,"Duration":159109,"SoundDuration":159109,"Delta":38341997},{"NoteNumber":53,"Velocity":27,"Duration":79554,"SoundDuration":79554,"Delta":38341997},{"NoteNumber":60,"Velocity":34,"Duration":79554,"SoundDuration":79554,"Delta":38341997},{"NoteNumber":39,"Velocity":58,"Duration":78308,"SoundDuration":78308,"Delta":38501106},{"NoteNumber":67,"Velocity":57,"Duration":310423,"SoundDuration":310423,"Delta":38657723},{"NoteNumber":72,"Velocity":57,"Duration":310423,"SoundDuration":310423,"Delta":38657723},{"NoteNumber":79,"Velocity":68,"Duration":310423,"SoundDuration":310423,"Delta":38657723},{"NoteNumber":60,"Velocity":44,"Duration":78308,"SoundDuration":78308,"Delta":38657723},{"NoteNumber":51,"Velocity":35,"Duration":78308,"SoundDuration":78308,"Delta":38657723},{"NoteNumber":41,"Velocity":64,"Duration":76903,"SoundDuration":76903,"Delta":38814340},{"NoteNumber":68,"Velocity":60,"Duration":306048,"SoundDuration":306048,"Delta":38968146},{"NoteNumber":72,"Velocity":60,"Duration":306048,"SoundDuration":306048,"Delta":38968146},{"NoteNumber":80,"Velocity":72,"Duration":306048,"SoundDuration":306048,"Delta":38968146},{"NoteNumber":60,"Velocity":46,"Duration":76903,"SoundDuration":76903,"Delta":38968146},{"NoteNumber":53,"Velocity":36,"Duration":76903,"SoundDuration":76903,"Delta":38968146},{"NoteNumber":44,"Velocity":68,"Duration":76511,"SoundDuration":76511,"Delta":39121172},{"NoteNumber":72,"Velocity":59,"Duration":308422,"SoundDuration":308422,"Delta":39274194},{"NoteNumber":77,"Velocity":59,"Duration":308422,"SoundDuration":308422,"Delta":39274194},{"NoteNumber":84,"Velocity":73,"Duration":308422,"SoundDuration":308422,"Delta":39274194},{"NoteNumber":60,"Velocity":37,"Duration":76511,"SoundDuration":76511,"Delta":39274194},{"NoteNumber":56,"Velocity":37,"Duration":76511,"SoundDuration":76511,"Delta":39274194},{"NoteNumber":65,"Velocity":47,"Duration":76511,"SoundDuration":76511,"Delta":39274194},{"NoteNumber":43,"Velocity":70,"Duration":77700,"SoundDuration":77700,"Delta":39427216},{"NoteNumber":74,"Velocity":53,"Duration":155400,"SoundDuration":155400,"Delta":39582616},{"NoteNumber":79,"Velocity":53,"Duration":155400,"SoundDuration":155400,"Delta":39582616},{"NoteNumber":83,"Velocity":72,"Duration":155400,"SoundDuration":155400,"Delta":39582616},{"NoteNumber":62,"Velocity":39,"Duration":77700,"SoundDuration":77700,"Delta":39582616},{"NoteNumber":55,"Velocity":39,"Duration":77700,"SoundDuration":77700,"Delta":39582616},{"NoteNumber":67,"Velocity":49,"Duration":77700,"SoundDuration":77700,"Delta":39582616},{"NoteNumber":48,"Velocity":71,"Duration":74880,"SoundDuration":74880,"Delta":39738016},{"NoteNumber":82,"Velocity":63,"Duration":299520,"SoundDuration":299520,"Delta":39887777},{"NoteNumber":70,"Velocity":52,"Duration":299520,"SoundDuration":299520,"Delta":39887777},{"NoteNumber":76,"Velocity":52,"Duration":299520,"SoundDuration":299520,"Delta":39887777},{"NoteNumber":67,"Velocity":42,"Duration":74880,"SoundDuration":74880,"Delta":39887777},{"NoteNumber":60,"Velocity":34,"Duration":74880,"SoundDuration":74880,"Delta":39887777},{"NoteNumber":53,"Velocity":60,"Duration":74880,"SoundDuration":74880,"Delta":40037537},{"NoteNumber":68,"Velocity":53,"Duration":299985,"SoundDuration":299985,"Delta":40187298},{"NoteNumber":72,"Velocity":53,"Duration":299985,"SoundDuration":299985,"Delta":40187298},{"NoteNumber":80,"Velocity":64,"Duration":299985,"SoundDuration":299985,"Delta":40187298},{"NoteNumber":65,"Velocity":40,"Duration":74880,"SoundDuration":74880,"Delta":40187298},{"NoteNumber":60,"Velocity":33,"Duration":74880,"SoundDuration":74880,"Delta":40187298},{"NoteNumber":55,"Velocity":57,"Duration":75112,"SoundDuration":75112,"Delta":40337058},{"NoteNumber":67,"Velocity":50,"Duration":302301,"SoundDuration":302301,"Delta":40487284},{"NoteNumber":75,"Velocity":50,"Duration":302301,"SoundDuration":302301,"Delta":40487284},{"NoteNumber":79,"Velocity":59,"Duration":302301,"SoundDuration":302301,"Delta":40487284},{"NoteNumber":60,"Velocity":30,"Duration":75112,"SoundDuration":75112,"Delta":40487284},{"NoteNumber":63,"Velocity":38,"Duration":75112,"SoundDuration":75112,"Delta":40487284},{"NoteNumber":43,"Velocity":55,"Duration":76037,"SoundDuration":76037,"Delta":40637509},{"NoteNumber":65,"Velocity":39,"Duration":152076,"SoundDuration":152076,"Delta":40789585},{"NoteNumber":67,"Velocity":39,"Duration":152076,"SoundDuration":152076,"Delta":40789585},{"NoteNumber":71,"Velocity":50,"Duration":298703,"SoundDuration":298703,"Delta":40789585},{"NoteNumber":55,"Velocity":27,"Duration":76037,"SoundDuration":76037,"Delta":40789585},{"NoteNumber":62,"Velocity":35,"Duration":76037,"SoundDuration":76037,"Delta":40789585},{"NoteNumber":48,"Velocity":49,"Duration":73313,"SoundDuration":73313,"Delta":40941661},{"NoteNumber":64,"Velocity":44,"Duration":146627,"SoundDuration":146627,"Delta":41088289},{"NoteNumber":67,"Velocity":44,"Duration":146627,"SoundDuration":146627,"Delta":41088289},{"NoteNumber":72,"Velocity":52,"Duration":293255,"SoundDuration":293255,"Delta":41088289},{"NoteNumber":55,"Velocity":27,"Duration":73313,"SoundDuration":73313,"Delta":41088289},{"NoteNumber":60,"Velocity":34,"Duration":73313,"SoundDuration":73313,"Delta":41088289},{"NoteNumber":47,"Velocity":49,"Duration":73313,"SoundDuration":73313,"Delta":41234916},{"NoteNumber":65,"Velocity":39,"Duration":146627,"SoundDuration":146627,"Delta":41381544},{"NoteNumber":68,"Velocity":39,"Duration":146627,"SoundDuration":146627,"Delta":41381544},{"NoteNumber":73,"Velocity":49,"Duration":293254,"SoundDuration":293254,"Delta":41381544},{"NoteNumber":56,"Velocity":27,"Duration":73313,"SoundDuration":73313,"Delta":41381544},{"NoteNumber":61,"Velocity":34,"Duration":73313,"SoundDuration":73313,"Delta":41381544},{"NoteNumber":48,"Velocity":49,"Duration":73313,"SoundDuration":73313,"Delta":41528171},{"NoteNumber":67,"Velocity":45,"Duration":146627,"SoundDuration":146627,"Delta":41674799},{"NoteNumber":64,"Velocity":45,"Duration":146627,"SoundDuration":146627,"Delta":41674799},{"NoteNumber":72,"Velocity":52,"Duration":296852,"SoundDuration":296852,"Delta":41674799},{"NoteNumber":55,"Velocity":27,"Duration":73313,"SoundDuration":73313,"Delta":41674799},{"NoteNumber":60,"Velocity":35,"Duration":73313,"SoundDuration":73313,"Delta":41674799},{"NoteNumber":47,"Velocity":50,"Duration":75112,"SoundDuration":75112,"Delta":41821426},{"NoteNumber":68,"Velocity":41,"Duration":150225,"SoundDuration":150225,"Delta":41971652},{"NoteNumber":65,"Velocity":41,"Duration":150225,"SoundDuration":150225,"Delta":41971652},{"NoteNumber":74,"Velocity":50,"Duration":296853,"SoundDuration":296853,"Delta":41971652},{"NoteNumber":56,"Velocity":28,"Duration":75112,"SoundDuration":75112,"Delta":41971652},{"NoteNumber":62,"Velocity":35,"Duration":75112,"SoundDuration":75112,"Delta":41971652},{"NoteNumber":48,"Velocity":51,"Duration":73313,"SoundDuration":73313,"Delta":42121877},{"NoteNumber":64,"Velocity":47,"Duration":146627,"SoundDuration":146627,"Delta":42268505},{"NoteNumber":67,"Velocity":47,"Duration":146627,"SoundDuration":146627,"Delta":42268505},{"NoteNumber":72,"Velocity":56,"Duration":293255,"SoundDuration":293255,"Delta":42268505},{"NoteNumber":55,"Velocity":29,"Duration":73313,"SoundDuration":73313,"Delta":42268505},{"NoteNumber":60,"Velocity":35,"Duration":73313,"SoundDuration":73313,"Delta":42268505},{"NoteNumber":47,"Velocity":51,"Duration":73313,"SoundDuration":73313,"Delta":42415132},{"NoteNumber":65,"Velocity":42,"Duration":146627,"SoundDuration":146627,"Delta":42561760},{"NoteNumber":68,"Velocity":42,"Duration":146627,"SoundDuration":146627,"Delta":42561760},{"NoteNumber":73,"Velocity":52,"Duration":293254,"SoundDuration":293254,"Delta":42561760},{"NoteNumber":56,"Velocity":29,"Duration":73313,"SoundDuration":73313,"Delta":42561760},{"NoteNumber":61,"Velocity":36,"Duration":73313,"SoundDuration":73313,"Delta":42561760},{"NoteNumber":48,"Velocity":52,"Duration":73313,"SoundDuration":73313,"Delta":42708387},{"NoteNumber":67,"Velocity":49,"Duration":146627,"SoundDuration":146627,"Delta":42855015},{"NoteNumber":64,"Velocity":49,"Duration":146627,"SoundDuration":146627,"Delta":42855015},{"NoteNumber":72,"Velocity":58,"Duration":295031,"SoundDuration":295031,"Delta":42855015},{"NoteNumber":55,"Velocity":29,"Duration":73313,"SoundDuration":73313,"Delta":42855015},{"NoteNumber":60,"Velocity":36,"Duration":73313,"SoundDuration":73313,"Delta":42855015},{"NoteNumber":47,"Velocity":52,"Duration":74202,"SoundDuration":74202,"Delta":43001642},{"NoteNumber":68,"Velocity":44,"Duration":148404,"SoundDuration":148404,"Delta":43150047},{"NoteNumber":65,"Velocity":44,"Duration":148404,"SoundDuration":148404,"Delta":43150047},{"NoteNumber":74,"Velocity":53,"Duration":294354,"SoundDuration":294354,"Delta":43150047},{"NoteNumber":56,"Velocity":29,"Duration":74202,"SoundDuration":74202,"Delta":43150047},{"NoteNumber":62,"Velocity":37,"Duration":74202,"SoundDuration":74202,"Delta":43150047},{"NoteNumber":48,"Velocity":53,"Duration":72974,"SoundDuration":72974,"Delta":43298451},{"NoteNumber":64,"Velocity":49,"Duration":145949,"SoundDuration":145949,"Delta":43444401},{"NoteNumber":67,"Velocity":49,"Duration":145949,"SoundDuration":145949,"Delta":43444401},{"NoteNumber":72,"Velocity":58,"Duration":292972,"SoundDuration":292972,"Delta":43444401},{"NoteNumber":55,"Velocity":29,"Duration":72974,"SoundDuration":72974,"Delta":43444401},{"NoteNumber":60,"Velocity":37,"Duration":72974,"SoundDuration":72974,"Delta":43444401},{"NoteNumber":47,"Velocity":52,"Duration":73511,"SoundDuration":73511,"Delta":43590351},{"NoteNumber":65,"Velocity":42,"Duration":147023,"SoundDuration":147023,"Delta":43737374},{"NoteNumber":68,"Velocity":42,"Duration":147023,"SoundDuration":147023,"Delta":43737374},{"NoteNumber":74,"Velocity":52,"Duration":293716,"SoundDuration":293716,"Delta":43737374},{"NoteNumber":56,"Velocity":29,"Duration":73511,"SoundDuration":73511,"Delta":43737374},{"NoteNumber":62,"Velocity":36,"Duration":73511,"SoundDuration":73511,"Delta":43737374},{"NoteNumber":48,"Velocity":52,"Duration":73379,"SoundDuration":73379,"Delta":43884397},{"NoteNumber":67,"Velocity":48,"Duration":146627,"SoundDuration":146627,"Delta":44031091},{"NoteNumber":64,"Velocity":48,"Duration":146627,"SoundDuration":146627,"Delta":44031091},{"NoteNumber":72,"Velocity":57,"Duration":294738,"SoundDuration":294738,"Delta":44031091},{"NoteNumber":55,"Velocity":29,"Duration":73313,"SoundDuration":73313,"Delta":44031091},{"NoteNumber":60,"Velocity":36,"Duration":73313,"SoundDuration":73313,"Delta":44031091},{"NoteNumber":47,"Velocity":51,"Duration":74055,"SoundDuration":74055,"Delta":44177718},{"NoteNumber":68,"Velocity":41,"Duration":148111,"SoundDuration":148111,"Delta":44325830},{"NoteNumber":65,"Velocity":41,"Duration":148111,"SoundDuration":148111,"Delta":44325830},{"NoteNumber":73,"Velocity":51,"Duration":294417,"SoundDuration":294417,"Delta":44325830},{"NoteNumber":56,"Velocity":29,"Duration":74055,"SoundDuration":74055,"Delta":44325830},{"NoteNumber":61,"Velocity":35,"Duration":74055,"SoundDuration":74055,"Delta":44325830},{"NoteNumber":48,"Velocity":51,"Duration":73152,"SoundDuration":73152,"Delta":44473941},{"NoteNumber":64,"Velocity":47,"Duration":146844,"SoundDuration":146844,"Delta":44620247},{"NoteNumber":67,"Velocity":47,"Duration":146844,"SoundDuration":146844,"Delta":44620247},{"NoteNumber":72,"Velocity":55,"Duration":294228,"SoundDuration":294228,"Delta":44620247},{"NoteNumber":55,"Velocity":29,"Duration":73152,"SoundDuration":73152,"Delta":44620247},{"NoteNumber":60,"Velocity":35,"Duration":73152,"SoundDuration":73152,"Delta":44620247},{"NoteNumber":47,"Velocity":50,"Duration":73692,"SoundDuration":73692,"Delta":44767092},{"NoteNumber":65,"Velocity":40,"Duration":147384,"SoundDuration":147384,"Delta":44914476},{"NoteNumber":68,"Velocity":40,"Duration":147384,"SoundDuration":147384,"Delta":44914476},{"NoteNumber":74,"Velocity":50,"Duration":294137,"SoundDuration":294137,"Delta":44914476},{"NoteNumber":56,"Velocity":28,"Duration":73692,"SoundDuration":73692,"Delta":44914476},{"NoteNumber":62,"Velocity":35,"Duration":73692,"SoundDuration":73692,"Delta":44914476},{"NoteNumber":47,"Velocity":49,"Duration":73439,"SoundDuration":73439,"Delta":45061860},{"NoteNumber":69,"Velocity":45,"Duration":146627,"SoundDuration":146627,"Delta":45208614},{"NoteNumber":66,"Velocity":45,"Duration":146627,"SoundDuration":146627,"Delta":45208614},{"NoteNumber":75,"Velocity":52,"Duration":295031,"SoundDuration":295031,"Delta":45208614},{"NoteNumber":57,"Velocity":28,"Duration":73313,"SoundDuration":73313,"Delta":45208614},{"NoteNumber":63,"Velocity":34,"Duration":73313,"SoundDuration":73313,"Delta":45208614},{"NoteNumber":40,"Velocity":49,"Duration":74202,"SoundDuration":74202,"Delta":45355241},{"NoteNumber":68,"Velocity":39,"Duration":148404,"SoundDuration":148404,"Delta":45503646},{"NoteNumber":64,"Velocity":39,"Duration":148404,"SoundDuration":148404,"Delta":45503646},{"NoteNumber":76,"Velocity":49,"Duration":296253,"SoundDuration":296253,"Delta":45503646},{"NoteNumber":59,"Velocity":27,"Duration":74202,"SoundDuration":74202,"Delta":45503646},{"NoteNumber":52,"Velocity":27,"Duration":74202,"SoundDuration":74202,"Delta":45503646},{"NoteNumber":62,"Velocity":34,"Duration":74202,"SoundDuration":74202,"Delta":45503646},{"NoteNumber":45,"Velocity":55,"Duration":73935,"SoundDuration":73935,"Delta":45652050},{"NoteNumber":64,"Velocity":50,"Duration":147826,"SoundDuration":147826,"Delta":45799899},{"NoteNumber":69,"Velocity":50,"Duration":147826,"SoundDuration":147826,"Delta":45799899},{"NoteNumber":76,"Velocity":50,"Duration":295278,"SoundDuration":295278,"Delta":45799899},{"NoteNumber":60,"Velocity":38,"Duration":73913,"SoundDuration":73913,"Delta":45799899},{"NoteNumber":52,"Velocity":30,"Duration":73913,"SoundDuration":73913,"Delta":45799899},{"NoteNumber":48,"Velocity":64,"Duration":73763,"SoundDuration":73763,"Delta":45947726},{"NoteNumber":81,"Velocity":70,"Duration":585783,"SoundDuration":585783,"Delta":46095178},{"NoteNumber":69,"Velocity":60,"Duration":147376,"SoundDuration":147376,"Delta":46095178},{"NoteNumber":76,"Velocity":60,"Duration":147376,"SoundDuration":147376,"Delta":46095178},{"NoteNumber":64,"Velocity":45,"Duration":73688,"SoundDuration":73688,"Delta":46095178},{"NoteNumber":57,"Velocity":37,"Duration":73688,"SoundDuration":73688,"Delta":46095178},{"NoteNumber":47,"Velocity":64,"Duration":73539,"SoundDuration":73539,"Delta":46242554},{"NoteNumber":74,"Velocity":60,"Duration":146928,"SoundDuration":146928,"Delta":46389558},{"NoteNumber":69,"Velocity":59,"Duration":146928,"SoundDuration":146928,"Delta":46389558},{"NoteNumber":53,"Velocity":37,"Duration":73464,"SoundDuration":73464,"Delta":46389558},{"NoteNumber":62,"Velocity":45,"Duration":73464,"SoundDuration":73464,"Delta":46389558},{"NoteNumber":52,"Velocity":64,"Duration":72237,"SoundDuration":72237,"Delta":46536487},{"NoteNumber":68,"Velocity":53,"Duration":144473,"SoundDuration":144473,"Delta":46680961},{"NoteNumber":76,"Velocity":53,"Duration":144473,"SoundDuration":144473,"Delta":46680961},{"NoteNumber":80,"Velocity":64,"Duration":144473,"SoundDuration":144473,"Delta":46680961},{"NoteNumber":59,"Velocity":37,"Duration":72236,"SoundDuration":72236,"Delta":46680961},{"NoteNumber":64,"Velocity":45,"Duration":72236,"SoundDuration":72236,"Delta":46680961},{"NoteNumber":48,"Velocity":55,"Duration":73935,"SoundDuration":73935,"Delta":46825435},{"NoteNumber":64,"Velocity":50,"Duration":147826,"SoundDuration":147826,"Delta":46973283},{"NoteNumber":69,"Velocity":50,"Duration":147826,"SoundDuration":147826,"Delta":46973283},{"NoteNumber":76,"Velocity":50,"Duration":147826,"SoundDuration":147826,"Delta":46973283},{"NoteNumber":64,"Velocity":38,"Duration":73913,"SoundDuration":73913,"Delta":46973283},{"NoteNumber":57,"Velocity":30,"Duration":73913,"SoundDuration":73913,"Delta":46973283},{"NoteNumber":45,"Velocity":64,"Duration":73763,"SoundDuration":73763,"Delta":47121110},{"NoteNumber":84,"Velocity":70,"Duration":585783,"SoundDuration":585783,"Delta":47268562},{"NoteNumber":69,"Velocity":60,"Duration":147376,"SoundDuration":147376,"Delta":47268562},{"NoteNumber":76,"Velocity":60,"Duration":147376,"SoundDuration":147376,"Delta":47268562},{"NoteNumber":57,"Velocity":37,"Duration":73688,"SoundDuration":73688,"Delta":47268562},{"NoteNumber":64,"Velocity":45,"Duration":73688,"SoundDuration":73688,"Delta":47268562},{"NoteNumber":50,"Velocity":64,"Duration":73539,"SoundDuration":73539,"Delta":47415939},{"NoteNumber":77,"Velocity":60,"Duration":146928,"SoundDuration":146928,"Delta":47562942},{"NoteNumber":72,"Velocity":59,"Duration":146928,"SoundDuration":146928,"Delta":47562942},{"NoteNumber":57,"Velocity":37,"Duration":73464,"SoundDuration":73464,"Delta":47562942},{"NoteNumber":65,"Velocity":45,"Duration":73464,"SoundDuration":73464,"Delta":47562942},{"NoteNumber":50,"Velocity":64,"Duration":72237,"SoundDuration":72237,"Delta":47709871},{"NoteNumber":71,"Velocity":53,"Duration":144473,"SoundDuration":144473,"Delta":47854345},{"NoteNumber":83,"Velocity":64,"Duration":288947,"SoundDuration":288947,"Delta":47854345},{"NoteNumber":77,"Velocity":53,"Duration":144473,"SoundDuration":144473,"Delta":47854345},{"NoteNumber":65,"Velocity":45,"Duration":72236,"SoundDuration":72236,"Delta":47854345},{"NoteNumber":56,"Velocity":37,"Duration":72236,"SoundDuration":72236,"Delta":47854345},{"NoteNumber":48,"Velocity":55,"Duration":72237,"SoundDuration":72237,"Delta":47998819},{"NoteNumber":81,"Velocity":64,"Duration":144474,"SoundDuration":144474,"Delta":48143293},{"NoteNumber":69,"Velocity":48,"Duration":72237,"SoundDuration":72237,"Delta":48143293},{"NoteNumber":77,"Velocity":55,"Duration":72237,"SoundDuration":72237,"Delta":48143293},{"NoteNumber":65,"Velocity":38,"Duration":72237,"SoundDuration":72237,"Delta":48143293},{"NoteNumber":57,"Velocity":31,"Duration":72237,"SoundDuration":72237,"Delta":48143293},{"NoteNumber":48,"Velocity":61,"Duration":73289,"SoundDuration":73289,"Delta":48287767},{"NoteNumber":88,"Velocity":68,"Duration":73242,"SoundDuration":73242,"Delta":48434299},{"NoteNumber":81,"Velocity":55,"Duration":73242,"SoundDuration":73242,"Delta":48434299},{"NoteNumber":76,"Velocity":55,"Duration":73242,"SoundDuration":73242,"Delta":48434299},{"NoteNumber":64,"Velocity":44,"Duration":73242,"SoundDuration":73242,"Delta":48434299},{"NoteNumber":57,"Velocity":37,"Duration":73242,"SoundDuration":73242,"Delta":48434299},{"NoteNumber":47,"Velocity":63,"Duration":74712,"SoundDuration":74712,"Delta":48586514},{"NoteNumber":74,"Velocity":57,"Duration":72873,"SoundDuration":72873,"Delta":48733881},{"NoteNumber":81,"Velocity":57,"Duration":72873,"SoundDuration":72873,"Delta":48733881},{"NoteNumber":86,"Velocity":70,"Duration":72873,"SoundDuration":72873,"Delta":48733881},{"NoteNumber":62,"Velocity":45,"Duration":72873,"SoundDuration":72873,"Delta":48733881},{"NoteNumber":53,"Velocity":37,"Duration":72873,"SoundDuration":72873,"Delta":48733881},{"NoteNumber":40,"Velocity":66,"Duration":73242,"SoundDuration":73242,"Delta":48879852},{"NoteNumber":88,"Velocity":72,"Duration":73688,"SoundDuration":73688,"Delta":49026559},{"NoteNumber":80,"Velocity":58,"Duration":73688,"SoundDuration":73688,"Delta":49026559},{"NoteNumber":76,"Velocity":58,"Duration":73688,"SoundDuration":73688,"Delta":49026559},{"NoteNumber":62,"Velocity":46,"Duration":73688,"SoundDuration":73688,"Delta":49026559},{"NoteNumber":59,"Velocity":38,"Duration":73688,"SoundDuration":73688,"Delta":49026559},{"NoteNumber":52,"Velocity":38,"Duration":73688,"SoundDuration":73688,"Delta":49026559},{"NoteNumber":45,"Velocity":68,"Duration":74139,"SoundDuration":74139,"Delta":49179482},{"NoteNumber":84,"Velocity":72,"Duration":74139,"SoundDuration":74139,"Delta":49327762},{"NoteNumber":76,"Velocity":58,"Duration":74139,"SoundDuration":74139,"Delta":49327762},{"NoteNumber":72,"Velocity":58,"Duration":74139,"SoundDuration":74139,"Delta":49327762},{"NoteNumber":60,"Velocity":46,"Duration":74139,"SoundDuration":74139,"Delta":49327762},{"NoteNumber":52,"Velocity":38,"Duration":74139,"SoundDuration":74139,"Delta":49327762},{"NoteNumber":47,"Velocity":66,"Duration":74139,"SoundDuration":74139,"Delta":49476042},{"NoteNumber":80,"Velocity":63,"Duration":74139,"SoundDuration":74139,"Delta":49624322},{"NoteNumber":76,"Velocity":56,"Duration":74139,"SoundDuration":74139,"Delta":49624322},{"NoteNumber":68,"Velocity":56,"Duration":74139,"SoundDuration":74139,"Delta":49624322},{"NoteNumber":62,"Velocity":44,"Duration":74139,"SoundDuration":74139,"Delta":49624322},{"NoteNumber":52,"Velocity":37,"Duration":74139,"SoundDuration":74139,"Delta":49624322},{"NoteNumber":48,"Velocity":61,"Duration":74139,"SoundDuration":74139,"Delta":49772602},{"NoteNumber":81,"Velocity":58,"Duration":74139,"SoundDuration":74139,"Delta":49920882},{"NoteNumber":76,"Velocity":51,"Duration":74139,"SoundDuration":74139,"Delta":49920882},{"NoteNumber":69,"Velocity":51,"Duration":74139,"SoundDuration":74139,"Delta":49920882},{"NoteNumber":64,"Velocity":41,"Duration":74139,"SoundDuration":74139,"Delta":49920882},{"NoteNumber":52,"Velocity":35,"Duration":74139,"SoundDuration":74139,"Delta":49920882},{"NoteNumber":45,"Velocity":58,"Duration":74139,"SoundDuration":74139,"Delta":50069162},{"NoteNumber":84,"Velocity":55,"Duration":74139,"SoundDuration":74139,"Delta":50217442},{"NoteNumber":76,"Velocity":48,"Duration":74139,"SoundDuration":74139,"Delta":50217442},{"NoteNumber":72,"Velocity":48,"Duration":74139,"SoundDuration":74139,"Delta":50217442},{"NoteNumber":60,"Velocity":38,"Duration":74139,"SoundDuration":74139,"Delta":50217442},{"NoteNumber":52,"Velocity":31,"Duration":74139,"SoundDuration":74139,"Delta":50217442},{"NoteNumber":40,"Velocity":55,"Duration":75259,"SoundDuration":75259,"Delta":50369532},{"NoteNumber":71,"Velocity":48,"Duration":73913,"SoundDuration":73913,"Delta":50518705},{"NoteNumber":76,"Velocity":48,"Duration":73913,"SoundDuration":73913,"Delta":50518705},{"NoteNumber":83,"Velocity":55,"Duration":73913,"SoundDuration":73913,"Delta":50518705},{"NoteNumber":62,"Velocity":38,"Duration":73913,"SoundDuration":73913,"Delta":50518705},{"NoteNumber":52,"Velocity":31,"Duration":73913,"SoundDuration":73913,"Delta":50518705},{"NoteNumber":45,"Velocity":55,"Duration":73763,"SoundDuration":73763,"Delta":50666532},{"NoteNumber":69,"Velocity":48,"Duration":73688,"SoundDuration":73688,"Delta":50813984},{"NoteNumber":76,"Velocity":48,"Duration":73688,"SoundDuration":73688,"Delta":50813984},{"NoteNumber":81,"Velocity":55,"Duration":73688,"SoundDuration":73688,"Delta":50813984},{"NoteNumber":60,"Velocity":38,"Duration":73688,"SoundDuration":73688,"Delta":50813984},{"NoteNumber":52,"Velocity":31,"Duration":73688,"SoundDuration":73688,"Delta":50813984},{"NoteNumber":47,"Velocity":55,"Duration":73539,"SoundDuration":73539,"Delta":50961360},{"NoteNumber":64,"Velocity":48,"Duration":73464,"SoundDuration":73464,"Delta":51108364},{"NoteNumber":71,"Velocity":48,"Duration":73464,"SoundDuration":73464,"Delta":51108364},{"NoteNumber":76,"Velocity":55,"Duration":73464,"SoundDuration":73464,"Delta":51108364},{"NoteNumber":52,"Velocity":31,"Duration":73464,"SoundDuration":73464,"Delta":51108364},{"NoteNumber":62,"Velocity":38,"Duration":73464,"SoundDuration":73464,"Delta":51108364},{"NoteNumber":56,"Velocity":31,"Duration":73464,"SoundDuration":73464,"Delta":51108364},{"NoteNumber":45,"Velocity":55,"Duration":73316,"SoundDuration":73316,"Delta":51255293},{"NoteNumber":69,"Velocity":48,"Duration":73242,"SoundDuration":73242,"Delta":51401851},{"NoteNumber":76,"Velocity":48,"Duration":73242,"SoundDuration":73242,"Delta":51401851},{"NoteNumber":81,"Velocity":55,"Duration":73242,"SoundDuration":73242,"Delta":51401851},{"NoteNumber":52,"Velocity":31,"Duration":73242,"SoundDuration":73242,"Delta":51401851},{"NoteNumber":60,"Velocity":38,"Duration":73242,"SoundDuration":73242,"Delta":51401851},{"NoteNumber":57,"Velocity":31,"Duration":73242,"SoundDuration":73242,"Delta":51401851},{"NoteNumber":40,"Velocity":55,"Duration":73097,"SoundDuration":73097,"Delta":51548336},{"NoteNumber":76,"Velocity":48,"Duration":72730,"SoundDuration":72730,"Delta":51694458},{"NoteNumber":71,"Velocity":48,"Duration":72730,"SoundDuration":72730,"Delta":51694458},{"NoteNumber":83,"Velocity":55,"Duration":72730,"SoundDuration":72730,"Delta":51694458},{"NoteNumber":52,"Velocity":31,"Duration":72730,"SoundDuration":72730,"Delta":51694458},{"NoteNumber":62,"Velocity":38,"Duration":72730,"SoundDuration":72730,"Delta":51694458},{"NoteNumber":56,"Velocity":31,"Duration":72730,"SoundDuration":72730,"Delta":51694458},{"NoteNumber":45,"Velocity":55,"Duration":72582,"SoundDuration":72582,"Delta":51839771},{"NoteNumber":69,"Velocity":48,"Duration":72583,"SoundDuration":72583,"Delta":51984937},{"NoteNumber":76,"Velocity":48,"Duration":72583,"SoundDuration":72583,"Delta":51984937},{"NoteNumber":81,"Velocity":55,"Duration":72583,"SoundDuration":72583,"Delta":51984937},{"NoteNumber":52,"Velocity":31,"Duration":72583,"SoundDuration":72583,"Delta":51984937},{"NoteNumber":60,"Velocity":38,"Duration":72583,"SoundDuration":72583,"Delta":51984937},{"NoteNumber":57,"Velocity":31,"Duration":72583,"SoundDuration":72583,"Delta":51984937},{"NoteNumber":47,"Velocity":56,"Duration":73464,"SoundDuration":73464,"Delta":52130691},{"NoteNumber":76,"Velocity":57,"Duration":73464,"SoundDuration":73464,"Delta":52277620},{"NoteNumber":71,"Velocity":50,"Duration":73464,"SoundDuration":73464,"Delta":52277620},{"NoteNumber":64,"Velocity":50,"Duration":73464,"SoundDuration":73464,"Delta":52277620},{"NoteNumber":52,"Velocity":35,"Duration":73464,"SoundDuration":73464,"Delta":52277620},{"NoteNumber":62,"Velocity":41,"Duration":73464,"SoundDuration":73464,"Delta":52277620},{"NoteNumber":56,"Velocity":35,"Duration":73464,"SoundDuration":73464,"Delta":52277620},{"NoteNumber":45,"Velocity":60,"Duration":73464,"SoundDuration":73464,"Delta":52424549},{"NoteNumber":69,"Velocity":53,"Duration":73464,"SoundDuration":73464,"Delta":52571478},{"NoteNumber":76,"Velocity":53,"Duration":73464,"SoundDuration":73464,"Delta":52571478},{"NoteNumber":81,"Velocity":61,"Duration":73464,"SoundDuration":73464,"Delta":52571478},{"NoteNumber":57,"Velocity":38,"Duration":73464,"SoundDuration":73464,"Delta":52571478},{"NoteNumber":60,"Velocity":46,"Duration":73464,"SoundDuration":73464,"Delta":52571478},{"NoteNumber":52,"Velocity":38,"Duration":73464,"SoundDuration":73464,"Delta":52571478},{"NoteNumber":43,"Velocity":64,"Duration":74364,"SoundDuration":74364,"Delta":52721665},{"NoteNumber":83,"Velocity":66,"Duration":74364,"SoundDuration":74364,"Delta":52870393},{"NoteNumber":76,"Velocity":58,"Duration":74364,"SoundDuration":74364,"Delta":52870393},{"NoteNumber":71,"Velocity":58,"Duration":74364,"SoundDuration":74364,"Delta":52870393},{"NoteNumber":64,"Velocity":46,"Duration":74364,"SoundDuration":74364,"Delta":52870393},{"NoteNumber":55,"Velocity":38,"Duration":74364,"SoundDuration":74364,"Delta":52870393},{"NoteNumber":45,"Velocity":68,"Duration":74364,"SoundDuration":74364,"Delta":53019122},{"NoteNumber":84,"Velocity":72,"Duration":74364,"SoundDuration":74364,"Delta":53167850},{"NoteNumber":76,"Velocity":62,"Duration":74364,"SoundDuration":74364,"Delta":53167850},{"NoteNumber":72,"Velocity":62,"Duration":74364,"SoundDuration":74364,"Delta":53167850},{"NoteNumber":64,"Velocity":44,"Duration":74364,"SoundDuration":74364,"Delta":53167850},{"NoteNumber":57,"Velocity":37,"Duration":74364,"SoundDuration":74364,"Delta":53167850},{"NoteNumber":47,"Velocity":63,"Duration":73464,"SoundDuration":73464,"Delta":53316579},{"NoteNumber":67,"Velocity":56,"Duration":73464,"SoundDuration":73464,"Delta":53463508},{"NoteNumber":71,"Velocity":56,"Duration":73464,"SoundDuration":73464,"Delta":53463508},{"NoteNumber":79,"Velocity":63,"Duration":73464,"SoundDuration":73464,"Delta":53463508},{"NoteNumber":64,"Velocity":45,"Duration":73464,"SoundDuration":73464,"Delta":53463508},{"NoteNumber":59,"Velocity":37,"Duration":73464,"SoundDuration":73464,"Delta":53463508},{"NoteNumber":47,"Velocity":62,"Duration":73464,"SoundDuration":73464,"Delta":53610437},{"NoteNumber":78,"Velocity":62,"Duration":73464,"SoundDuration":73464,"Delta":53757366},{"NoteNumber":71,"Velocity":55,"Duration":73464,"SoundDuration":73464,"Delta":53757366},{"NoteNumber":69,"Velocity":55,"Duration":73464,"SoundDuration":73464,"Delta":53757366},{"NoteNumber":63,"Velocity":44,"Duration":73464,"SoundDuration":73464,"Delta":53757366},{"NoteNumber":59,"Velocity":37,"Duration":73464,"SoundDuration":73464,"Delta":53757366},{"NoteNumber":52,"Velocity":61,"Duration":73017,"SoundDuration":73017,"Delta":53904295},{"NoteNumber":76,"Velocity":62,"Duration":73385,"SoundDuration":73385,"Delta":54050511},{"NoteNumber":71,"Velocity":55,"Duration":73385,"SoundDuration":73385,"Delta":54050511},{"NoteNumber":68,"Velocity":55,"Duration":73385,"SoundDuration":73385,"Delta":54050511},{"NoteNumber":64,"Velocity":44,"Duration":73385,"SoundDuration":73385,"Delta":54050511},{"NoteNumber":59,"Velocity":37,"Duration":73385,"SoundDuration":73385,"Delta":54050511},{"NoteNumber":51,"Velocity":60,"Duration":73753,"SoundDuration":73753,"Delta":54197462},{"NoteNumber":78,"Velocity":61,"Duration":74128,"SoundDuration":74128,"Delta":54345148},{"NoteNumber":72,"Velocity":53,"Duration":74128,"SoundDuration":74128,"Delta":54345148},{"NoteNumber":69,"Velocity":53,"Duration":74128,"SoundDuration":74128,"Delta":54345148},{"NoteNumber":66,"Velocity":44,"Duration":74128,"SoundDuration":74128,"Delta":54345148},{"NoteNumber":60,"Velocity":37,"Duration":74128,"SoundDuration":74128,"Delta":54345148},{"NoteNumber":50,"Velocity":61,"Duration":73954,"SoundDuration":73954,"Delta":54493593},{"NoteNumber":71,"Velocity":51,"Duration":75316,"SoundDuration":75316,"Delta":54642197},{"NoteNumber":79,"Velocity":58,"Duration":75316,"SoundDuration":75316,"Delta":54642197},{"NoteNumber":77,"Velocity":51,"Duration":75316,"SoundDuration":75316,"Delta":54642197},{"NoteNumber":67,"Velocity":51,"Duration":75316,"SoundDuration":75316,"Delta":54642197},{"NoteNumber":65,"Velocity":41,"Duration":75316,"SoundDuration":75316,"Delta":54642197},{"NoteNumber":59,"Velocity":35,"Duration":75316,"SoundDuration":75316,"Delta":54642197},{"NoteNumber":40,"Velocity":58,"Duration":76818,"SoundDuration":76818,"Delta":54793596},{"NoteNumber":74,"Velocity":48,"Duration":78336,"SoundDuration":78336,"Delta":54947985},{"NoteNumber":80,"Velocity":55,"Duration":78336,"SoundDuration":78336,"Delta":54947985},{"NoteNumber":76,"Velocity":48,"Duration":78336,"SoundDuration":78336,"Delta":54947985},{"NoteNumber":68,"Velocity":48,"Duration":78336,"SoundDuration":78336,"Delta":54947985},{"NoteNumber":64,"Velocity":38,"Duration":78336,"SoundDuration":78336,"Delta":54947985},{"NoteNumber":59,"Velocity":31,"Duration":78336,"SoundDuration":78336,"Delta":54947985},{"NoteNumber":45,"Velocity":55,"Duration":76528,"SoundDuration":76528,"Delta":55105438},{"NoteNumber":69,"Velocity":47,"Duration":76448,"SoundDuration":76448,"Delta":55258415},{"NoteNumber":72,"Velocity":47,"Duration":76448,"SoundDuration":76448,"Delta":55258415},{"NoteNumber":76,"Velocity":47,"Duration":76448,"SoundDuration":76448,"Delta":55258415},{"NoteNumber":81,"Velocity":56,"Duration":76448,"SoundDuration":76448,"Delta":55258415},{"NoteNumber":64,"Velocity":38,"Duration":76448,"SoundDuration":76448,"Delta":55258415},{"NoteNumber":57,"Velocity":31,"Duration":76448,"SoundDuration":76448,"Delta":55258415},{"NoteNumber":48,"Velocity":55,"Duration":76448,"SoundDuration":76448,"Delta":55411313},{"NoteNumber":69,"Velocity":51,"Duration":76448,"SoundDuration":76448,"Delta":55564210},{"NoteNumber":76,"Velocity":51,"Duration":76448,"SoundDuration":76448,"Delta":55564210},{"NoteNumber":81,"Velocity":71,"Duration":607866,"SoundDuration":607866,"Delta":55564210},{"NoteNumber":64,"Velocity":38,"Duration":76448,"SoundDuration":76448,"Delta":55564210},{"NoteNumber":57,"Velocity":31,"Duration":76448,"SoundDuration":76448,"Delta":55564210},{"NoteNumber":47,"Velocity":55,"Duration":77724,"SoundDuration":77724,"Delta":55717108},{"NoteNumber":69,"Velocity":48,"Duration":74880,"SoundDuration":74880,"Delta":55872556},{"NoteNumber":74,"Velocity":57,"Duration":74880,"SoundDuration":74880,"Delta":55872556},{"NoteNumber":62,"Velocity":38,"Duration":74880,"SoundDuration":74880,"Delta":55872556},{"NoteNumber":53,"Velocity":31,"Duration":74880,"SoundDuration":74880,"Delta":55872556},{"NoteNumber":52,"Velocity":55,"Duration":74880,"SoundDuration":74880,"Delta":56022317},{"NoteNumber":68,"Velocity":44,"Duration":74880,"SoundDuration":74880,"Delta":56172077},{"NoteNumber":76,"Velocity":44,"Duration":74880,"SoundDuration":74880,"Delta":56172077},{"NoteNumber":80,"Velocity":53,"Duration":297267,"SoundDuration":297267,"Delta":56172077},{"NoteNumber":64,"Velocity":38,"Duration":74880,"SoundDuration":74880,"Delta":56172077},{"NoteNumber":59,"Velocity":31,"Duration":74880,"SoundDuration":74880,"Delta":56172077},{"NoteNumber":48,"Velocity":55,"Duration":73753,"SoundDuration":73753,"Delta":56321838},{"NoteNumber":81,"Velocity":58,"Duration":295014,"SoundDuration":295014,"Delta":56469345},{"NoteNumber":69,"Velocity":47,"Duration":73753,"SoundDuration":73753,"Delta":56469345},{"NoteNumber":76,"Velocity":56,"Duration":73753,"SoundDuration":73753,"Delta":56469345},{"NoteNumber":64,"Velocity":38,"Duration":73753,"SoundDuration":73753,"Delta":56469345},{"NoteNumber":57,"Velocity":31,"Duration":73753,"SoundDuration":73753,"Delta":56469345},{"NoteNumber":45,"Velocity":55,"Duration":73753,"SoundDuration":73753,"Delta":56616852},{"NoteNumber":72,"Velocity":52,"Duration":73753,"SoundDuration":73753,"Delta":56764359},{"NoteNumber":76,"Velocity":52,"Duration":73753,"SoundDuration":73753,"Delta":56764359},{"NoteNumber":84,"Velocity":71,"Duration":592387,"SoundDuration":592387,"Delta":56764359},{"NoteNumber":64,"Velocity":38,"Duration":73753,"SoundDuration":73753,"Delta":56764359},{"NoteNumber":57,"Velocity":31,"Duration":73753,"SoundDuration":73753,"Delta":56764359},{"NoteNumber":50,"Velocity":56,"Duration":74880,"SoundDuration":74880,"Delta":56913169},{"NoteNumber":77,"Velocity":56,"Duration":73643,"SoundDuration":73643,"Delta":57062929},{"NoteNumber":72,"Velocity":47,"Duration":73643,"SoundDuration":73643,"Delta":57062929},{"NoteNumber":65,"Velocity":39,"Duration":73643,"SoundDuration":73643,"Delta":57062929},{"NoteNumber":57,"Velocity":33,"Duration":73643,"SoundDuration":73643,"Delta":57062929},{"NoteNumber":50,"Velocity":58,"Duration":73390,"SoundDuration":73390,"Delta":57209742},{"NoteNumber":71,"Velocity":47,"Duration":73838,"SoundDuration":73838,"Delta":57356746},{"NoteNumber":77,"Velocity":47,"Duration":73838,"SoundDuration":73838,"Delta":57356746},{"NoteNumber":83,"Velocity":56,"Duration":295654,"SoundDuration":295654,"Delta":57356746},{"NoteNumber":65,"Velocity":41,"Duration":73838,"SoundDuration":73838,"Delta":57356746},{"NoteNumber":56,"Velocity":35,"Duration":73838,"SoundDuration":73838,"Delta":57356746},{"NoteNumber":48,"Velocity":60,"Duration":73913,"SoundDuration":73913,"Delta":57504649},{"NoteNumber":81,"Velocity":58,"Duration":293860,"SoundDuration":293860,"Delta":57652401},{"NoteNumber":77,"Velocity":49,"Duration":73688,"SoundDuration":73688,"Delta":57652401},{"NoteNumber":69,"Velocity":49,"Duration":73688,"SoundDuration":73688,"Delta":57652401},{"NoteNumber":65,"Velocity":41,"Duration":73688,"SoundDuration":73688,"Delta":57652401},{"NoteNumber":57,"Velocity":35,"Duration":73688,"SoundDuration":73688,"Delta":57652401},{"NoteNumber":48,"Velocity":61,"Duration":73390,"SoundDuration":73390,"Delta":57799628},{"NoteNumber":88,"Velocity":73,"Duration":291941,"SoundDuration":291941,"Delta":57946261},{"NoteNumber":81,"Velocity":51,"Duration":73242,"SoundDuration":73242,"Delta":57946261},{"NoteNumber":76,"Velocity":51,"Duration":73242,"SoundDuration":73242,"Delta":57946261},{"NoteNumber":64,"Velocity":44,"Duration":73242,"SoundDuration":73242,"Delta":57946261},{"NoteNumber":57,"Velocity":37,"Duration":73242,"SoundDuration":73242,"Delta":57946261},{"NoteNumber":47,"Velocity":63,"Duration":72802,"SoundDuration":72802,"Delta":58092745},{"NoteNumber":74,"Velocity":55,"Duration":72873,"SoundDuration":72873,"Delta":58238203},{"NoteNumber":81,"Velocity":55,"Duration":72873,"SoundDuration":72873,"Delta":58238203},{"NoteNumber":86,"Velocity":70,"Duration":292677,"SoundDuration":292677,"Delta":58238203},{"NoteNumber":62,"Velocity":45,"Duration":72873,"SoundDuration":72873,"Delta":58238203},{"NoteNumber":53,"Velocity":37,"Duration":72873,"SoundDuration":72873,"Delta":58238203},{"NoteNumber":40,"Velocity":66,"Duration":73242,"SoundDuration":73242,"Delta":58384173},{"NoteNumber":88,"Velocity":82,"Duration":295656,"SoundDuration":295656,"Delta":58530880},{"NoteNumber":80,"Velocity":58,"Duration":73688,"SoundDuration":73688,"Delta":58530880},{"NoteNumber":76,"Velocity":58,"Duration":73688,"SoundDuration":73688,"Delta":58530880},{"NoteNumber":62,"Velocity":46,"Duration":73688,"SoundDuration":73688,"Delta":58530880},{"NoteNumber":59,"Velocity":38,"Duration":73688,"SoundDuration":73688,"Delta":58530880},{"NoteNumber":52,"Velocity":38,"Duration":73688,"SoundDuration":73688,"Delta":58530880},{"NoteNumber":45,"Velocity":68,"Duration":74139,"SoundDuration":74139,"Delta":58678257},{"NoteNumber":84,"Velocity":70,"Duration":148279,"SoundDuration":148279,"Delta":58826537},{"NoteNumber":76,"Velocity":55,"Duration":148279,"SoundDuration":148279,"Delta":58826537},{"NoteNumber":72,"Velocity":55,"Duration":148279,"SoundDuration":148279,"Delta":58826537},{"NoteNumber":57,"Velocity":38,"Duration":74139,"SoundDuration":74139,"Delta":58826537},{"NoteNumber":60,"Velocity":46,"Duration":74139,"SoundDuration":74139,"Delta":58826537},{"NoteNumber":52,"Velocity":38,"Duration":74139,"SoundDuration":74139,"Delta":58826537},{"NoteNumber":47,"Velocity":66,"Duration":74139,"SoundDuration":74139,"Delta":58974817},{"NoteNumber":83,"Velocity":66,"Duration":296559,"SoundDuration":296559,"Delta":59123097},{"NoteNumber":76,"Velocity":51,"Duration":148279,"SoundDuration":148279,"Delta":59123097},{"NoteNumber":71,"Velocity":51,"Duration":148279,"SoundDuration":148279,"Delta":59123097},{"NoteNumber":56,"Velocity":37,"Duration":74139,"SoundDuration":74139,"Delta":59123097},{"NoteNumber":62,"Velocity":44,"Duration":74139,"SoundDuration":74139,"Delta":59123097},{"NoteNumber":52,"Velocity":37,"Duration":74139,"SoundDuration":74139,"Delta":59123097},{"NoteNumber":48,"Velocity":61,"Duration":74139,"SoundDuration":74139,"Delta":59271377},{"NoteNumber":81,"Velocity":61,"Duration":448650,"SoundDuration":448650,"Delta":59419657},{"NoteNumber":76,"Velocity":47,"Duration":148279,"SoundDuration":148279,"Delta":59419657},{"NoteNumber":69,"Velocity":47,"Duration":148279,"SoundDuration":148279,"Delta":59419657},{"NoteNumber":57,"Velocity":35,"Duration":74139,"SoundDuration":74139,"Delta":59419657},{"NoteNumber":64,"Velocity":41,"Duration":74139,"SoundDuration":74139,"Delta":59419657},{"NoteNumber":52,"Velocity":35,"Duration":74139,"SoundDuration":74139,"Delta":59419657},{"NoteNumber":45,"Velocity":58,"Duration":74139,"SoundDuration":74139,"Delta":59567937},{"NoteNumber":76,"Velocity":52,"Duration":152090,"SoundDuration":152090,"Delta":59716217},{"NoteNumber":72,"Velocity":44,"Duration":152090,"SoundDuration":152090,"Delta":59716217},{"NoteNumber":57,"Velocity":31,"Duration":74139,"SoundDuration":74139,"Delta":59716217},{"NoteNumber":60,"Velocity":38,"Duration":74139,"SoundDuration":74139,"Delta":59716217},{"NoteNumber":52,"Velocity":31,"Duration":74139,"SoundDuration":74139,"Delta":59716217},{"NoteNumber":40,"Velocity":55,"Duration":73935,"SoundDuration":73935,"Delta":59868307},{"NoteNumber":71,"Velocity":53,"Duration":147826,"SoundDuration":147826,"Delta":60016156},{"NoteNumber":76,"Velocity":53,"Duration":147826,"SoundDuration":147826,"Delta":60016156},{"NoteNumber":83,"Velocity":69,"Duration":295278,"SoundDuration":295278,"Delta":60016156},{"NoteNumber":62,"Velocity":38,"Duration":73913,"SoundDuration":73913,"Delta":60016156},{"NoteNumber":52,"Velocity":31,"Duration":73913,"SoundDuration":73913,"Delta":60016156},{"NoteNumber":45,"Velocity":55,"Duration":73763,"SoundDuration":73763,"Delta":60163983},{"NoteNumber":69,"Velocity":51,"Duration":147376,"SoundDuration":147376,"Delta":60311435},{"NoteNumber":76,"Velocity":51,"Duration":147376,"SoundDuration":147376,"Delta":60311435},{"NoteNumber":81,"Velocity":66,"Duration":294380,"SoundDuration":294380,"Delta":60311435},{"NoteNumber":60,"Velocity":38,"Duration":73688,"SoundDuration":73688,"Delta":60311435},{"NoteNumber":52,"Velocity":31,"Duration":73688,"SoundDuration":73688,"Delta":60311435},{"NoteNumber":47,"Velocity":55,"Duration":73539,"SoundDuration":73539,"Delta":60458811},{"NoteNumber":64,"Velocity":50,"Duration":146929,"SoundDuration":146929,"Delta":60605815},{"NoteNumber":71,"Velocity":50,"Duration":146929,"SoundDuration":146929,"Delta":60605815},{"NoteNumber":76,"Velocity":64,"Duration":293487,"SoundDuration":293487,"Delta":60605815},{"NoteNumber":52,"Velocity":31,"Duration":73464,"SoundDuration":73464,"Delta":60605815},{"NoteNumber":62,"Velocity":38,"Duration":73464,"SoundDuration":73464,"Delta":60605815},{"NoteNumber":56,"Velocity":31,"Duration":73464,"SoundDuration":73464,"Delta":60605815},{"NoteNumber":45,"Velocity":55,"Duration":73316,"SoundDuration":73316,"Delta":60752744},{"NoteNumber":69,"Velocity":46,"Duration":146484,"SoundDuration":146484,"Delta":60899302},{"NoteNumber":76,"Velocity":46,"Duration":146484,"SoundDuration":146484,"Delta":60899302},{"NoteNumber":81,"Velocity":60,"Duration":292606,"SoundDuration":292606,"Delta":60899302},{"NoteNumber":52,"Velocity":31,"Duration":73242,"SoundDuration":73242,"Delta":60899302},{"NoteNumber":60,"Velocity":38,"Duration":73242,"SoundDuration":73242,"Delta":60899302},{"NoteNumber":57,"Velocity":31,"Duration":73242,"SoundDuration":73242,"Delta":60899302},{"NoteNumber":40,"Velocity":55,"Duration":73097,"SoundDuration":73097,"Delta":61045787},{"NoteNumber":76,"Velocity":50,"Duration":145313,"SoundDuration":145313,"Delta":61191909},{"NoteNumber":71,"Velocity":50,"Duration":145313,"SoundDuration":145313,"Delta":61191909},{"NoteNumber":83,"Velocity":64,"Duration":290479,"SoundDuration":290479,"Delta":61191909},{"NoteNumber":52,"Velocity":31,"Duration":72730,"SoundDuration":72730,"Delta":61191909},{"NoteNumber":62,"Velocity":38,"Duration":72730,"SoundDuration":72730,"Delta":61191909},{"NoteNumber":45,"Velocity":55,"Duration":72582,"SoundDuration":72582,"Delta":61337222},{"NoteNumber":69,"Velocity":53,"Duration":145166,"SoundDuration":145166,"Delta":61482388},{"NoteNumber":76,"Velocity":53,"Duration":145166,"SoundDuration":145166,"Delta":61482388},{"NoteNumber":81,"Velocity":69,"Duration":290331,"SoundDuration":290331,"Delta":61482388},{"NoteNumber":52,"Velocity":31,"Duration":72583,"SoundDuration":72583,"Delta":61482388},{"NoteNumber":60,"Velocity":38,"Duration":72583,"SoundDuration":72583,"Delta":61482388},{"NoteNumber":47,"Velocity":56,"Duration":72582,"SoundDuration":72582,"Delta":61627554},{"NoteNumber":76,"Velocity":75,"Duration":290331,"SoundDuration":290331,"Delta":61772720},{"NoteNumber":71,"Velocity":58,"Duration":145166,"SoundDuration":145166,"Delta":61772720},{"NoteNumber":64,"Velocity":58,"Duration":145166,"SoundDuration":145166,"Delta":61772720},{"NoteNumber":52,"Velocity":35,"Duration":72583,"SoundDuration":72583,"Delta":61772720},{"NoteNumber":62,"Velocity":41,"Duration":72583,"SoundDuration":72583,"Delta":61772720},{"NoteNumber":49,"Velocity":60,"Duration":72583,"SoundDuration":72583,"Delta":61917886},{"NoteNumber":67,"Velocity":57,"Duration":149305,"SoundDuration":149305,"Delta":62063052},{"NoteNumber":70,"Velocity":57,"Duration":149305,"SoundDuration":149305,"Delta":62063052},{"NoteNumber":79,"Velocity":67,"Duration":149305,"SoundDuration":149305,"Delta":62063052},{"NoteNumber":58,"Velocity":38,"Duration":72583,"SoundDuration":72583,"Delta":62063052},{"NoteNumber":64,"Velocity":46,"Duration":72583,"SoundDuration":72583,"Delta":62063052},{"NoteNumber":50,"Velocity":64,"Duration":600901,"SoundDuration":600901,"Delta":62212358},{"NoteNumber":78,"Velocity":75,"Duration":150225,"SoundDuration":150225,"Delta":62362583},{"NoteNumber":70,"Velocity":61,"Duration":150225,"SoundDuration":150225,"Delta":62362583},{"NoteNumber":66,"Velocity":61,"Duration":150225,"SoundDuration":150225,"Delta":62362583},{"NoteNumber":62,"Velocity":46,"Duration":75112,"SoundDuration":75112,"Delta":62362583},{"NoteNumber":58,"Velocity":38,"Duration":75112,"SoundDuration":75112,"Delta":62362583},{"NoteNumber":53,"Velocity":68,"Duration":75112,"SoundDuration":75112,"Delta":62512809},{"NoteNumber":77,"Velocity":77,"Duration":150225,"SoundDuration":150225,"Delta":62663034},{"NoteNumber":70,"Velocity":63,"Duration":150225,"SoundDuration":150225,"Delta":62663034},{"NoteNumber":65,"Velocity":63,"Duration":150225,"SoundDuration":150225,"Delta":62663034},{"NoteNumber":62,"Velocity":44,"Duration":75112,"SoundDuration":75112,"Delta":62663034},{"NoteNumber":58,"Velocity":37,"Duration":75112,"SoundDuration":75112,"Delta":62663034},{"NoteNumber":38,"Velocity":63,"Duration":74427,"SoundDuration":74427,"Delta":62813260},{"NoteNumber":65,"Velocity":59,"Duration":148854,"SoundDuration":148854,"Delta":62962114},{"NoteNumber":70,"Velocity":59,"Duration":148854,"SoundDuration":148854,"Delta":62962114},{"NoteNumber":74,"Velocity":73,"Duration":148854,"SoundDuration":148854,"Delta":62962114},{"NoteNumber":58,"Velocity":45,"Duration":74427,"SoundDuration":74427,"Delta":62962114},{"NoteNumber":53,"Velocity":37,"Duration":74427,"SoundDuration":74427,"Delta":62962114},{"NoteNumber":40,"Velocity":62,"Duration":75612,"SoundDuration":75612,"Delta":63110968},{"NoteNumber":71,"Velocity":63,"Duration":151224,"SoundDuration":151224,"Delta":63262193},{"NoteNumber":68,"Velocity":52,"Duration":151224,"SoundDuration":151224,"Delta":63262193},{"NoteNumber":62,"Velocity":52,"Duration":151224,"SoundDuration":151224,"Delta":63262193},{"NoteNumber":59,"Velocity":41,"Duration":75612,"SoundDuration":75612,"Delta":63262193},{"NoteNumber":52,"Velocity":35,"Duration":75612,"SoundDuration":75612,"Delta":63262193},{"NoteNumber":45,"Velocity":58,"Duration":76687,"SoundDuration":76687,"Delta":63413418},{"NoteNumber":69,"Velocity":61,"Duration":1079431,"SoundDuration":1079431,"Delta":63566792},{"NoteNumber":60,"Velocity":50,"Duration":151173,"SoundDuration":151173,"Delta":63566792},{"NoteNumber":57,"Velocity":41,"Duration":75771,"SoundDuration":75771,"Delta":63566792},{"NoteNumber":52,"Velocity":35,"Duration":75771,"SoundDuration":75771,"Delta":63566792},{"NoteNumber":50,"Velocity":57,"Duration":75612,"SoundDuration":75612,"Delta":63717965},{"NoteNumber":65,"Velocity":50,"Duration":151866,"SoundDuration":151866,"Delta":63869277},{"NoteNumber":62,"Velocity":41,"Duration":151866,"SoundDuration":151866,"Delta":63869277},{"NoteNumber":57,"Velocity":41,"Duration":75828,"SoundDuration":75828,"Delta":63869277},{"NoteNumber":53,"Velocity":35,"Duration":75828,"SoundDuration":75828,"Delta":63869277},{"NoteNumber":45,"Velocity":58,"Duration":76126,"SoundDuration":76126,"Delta":64021143},{"NoteNumber":64,"Velocity":48,"Duration":152768,"SoundDuration":152768,"Delta":64173524},{"NoteNumber":60,"Velocity":40,"Duration":152768,"SoundDuration":152768,"Delta":64173524},{"NoteNumber":57,"Velocity":39,"Duration":76427,"SoundDuration":76427,"Delta":64173524},{"NoteNumber":52,"Velocity":33,"Duration":76427,"SoundDuration":76427,"Delta":64173524},{"NoteNumber":50,"Velocity":55,"Duration":77318,"SoundDuration":77318,"Delta":64326293},{"NoteNumber":65,"Velocity":45,"Duration":163568,"SoundDuration":163568,"Delta":64482655},{"NoteNumber":62,"Velocity":37,"Duration":163568,"SoundDuration":163568,"Delta":64482655},{"NoteNumber":57,"Velocity":36,"Duration":80891,"SoundDuration":80891,"Delta":64482655},{"NoteNumber":53,"Velocity":29,"Duration":80891,"SoundDuration":80891,"Delta":64482655},{"NoteNumber":45,"Velocity":51,"Duration":83775,"SoundDuration":83775,"Delta":64646223},{"NoteNumber":64,"Velocity":38,"Duration":330550,"SoundDuration":330550,"Delta":64813774},{"NoteNumber":60,"Velocity":38,"Duration":330550,"SoundDuration":330550,"Delta":64813774},{"NoteNumber":57,"Velocity":28,"Duration":83775,"SoundDuration":83775,"Delta":64813774},{"NoteNumber":52,"Velocity":23,"Duration":83775,"SoundDuration":83775,"Delta":64813774},{"NoteNumber":36,"Velocity":45,"Duration":81499,"SoundDuration":81499,"Delta":64981325},{"NoteNumber":76,"Velocity":51,"Duration":324246,"SoundDuration":324246,"Delta":65144324},{"NoteNumber":69,"Velocity":42,"Duration":324246,"SoundDuration":324246,"Delta":65144324},{"NoteNumber":64,"Velocity":42,"Duration":324246,"SoundDuration":324246,"Delta":65144324},{"NoteNumber":57,"Velocity":29,"Duration":81499,"SoundDuration":81499,"Delta":65144324},{"NoteNumber":52,"Velocity":24,"Duration":81499,"SoundDuration":81499,"Delta":65144324},{"NoteNumber":38,"Velocity":42,"Duration":80623,"SoundDuration":80623,"Delta":65307323},{"NoteNumber":65,"Velocity":39,"Duration":161247,"SoundDuration":161247,"Delta":65468570},{"NoteNumber":70,"Velocity":39,"Duration":161247,"SoundDuration":161247,"Delta":65468570},{"NoteNumber":74,"Velocity":50,"Duration":327867,"SoundDuration":327867,"Delta":65468570},{"NoteNumber":58,"Velocity":29,"Duration":80623,"SoundDuration":80623,"Delta":65468570},{"NoteNumber":53,"Velocity":24,"Duration":80623,"SoundDuration":80623,"Delta":65468570},{"NoteNumber":40,"Velocity":41,"Duration":83310,"SoundDuration":83310,"Delta":65629817},{"NoteNumber":71,"Velocity":44,"Duration":317066,"SoundDuration":317066,"Delta":65796438},{"NoteNumber":68,"Velocity":37,"Duration":317066,"SoundDuration":317066,"Delta":65796438},{"NoteNumber":62,"Velocity":37,"Duration":317066,"SoundDuration":317066,"Delta":65796438},{"NoteNumber":59,"Velocity":29,"Duration":83310,"SoundDuration":83310,"Delta":65796438},{"NoteNumber":52,"Velocity":24,"Duration":83310,"SoundDuration":83310,"Delta":65796438},{"NoteNumber":45,"Velocity":44,"Duration":76244,"SoundDuration":76244,"Delta":65960537},{"NoteNumber":69,"Velocity":50,"Duration":1571088,"SoundDuration":1571088,"Delta":66113504},{"NoteNumber":60,"Velocity":42,"Duration":154873,"SoundDuration":154873,"Delta":66113504},{"NoteNumber":52,"Velocity":25,"Duration":77225,"SoundDuration":77225,"Delta":66113504},{"NoteNumber":57,"Velocity":30,"Duration":77225,"SoundDuration":77225,"Delta":66113504},{"NoteNumber":50,"Velocity":41,"Duration":77768,"SoundDuration":77768,"Delta":66268378},{"NoteNumber":65,"Velocity":45,"Duration":156593,"SoundDuration":156593,"Delta":66424118},{"NoteNumber":62,"Velocity":37,"Duration":156593,"SoundDuration":156593,"Delta":66424118},{"NoteNumber":57,"Velocity":28,"Duration":78174,"SoundDuration":78174,"Delta":66424118},{"NoteNumber":53,"Velocity":23,"Duration":78174,"SoundDuration":78174,"Delta":66424118},{"NoteNumber":45,"Velocity":39,"Duration":78625,"SoundDuration":78625,"Delta":66580711},{"NoteNumber":64,"Velocity":47,"Duration":158370,"SoundDuration":158370,"Delta":66738168},{"NoteNumber":60,"Velocity":40,"Duration":158370,"SoundDuration":158370,"Delta":66738168},{"NoteNumber":52,"Velocity":25,"Duration":79080,"SoundDuration":79080,"Delta":66738168},{"NoteNumber":57,"Velocity":30,"Duration":79080,"SoundDuration":79080,"Delta":66738168},{"NoteNumber":50,"Velocity":38,"Duration":79500,"SoundDuration":79500,"Delta":66896539},{"NoteNumber":65,"Velocity":48,"Duration":160146,"SoundDuration":160146,"Delta":67055793},{"NoteNumber":62,"Velocity":39,"Duration":160146,"SoundDuration":160146,"Delta":67055793},{"NoteNumber":53,"Velocity":27,"Duration":79966,"SoundDuration":79966,"Delta":67055793},{"NoteNumber":57,"Velocity":33,"Duration":79966,"SoundDuration":79966,"Delta":67055793},{"NoteNumber":45,"Velocity":40,"Duration":78513,"SoundDuration":78513,"Delta":67215939},{"NoteNumber":60,"Velocity":41,"Duration":157026,"SoundDuration":157026,"Delta":67372966},{"NoteNumber":64,"Velocity":50,"Duration":157026,"SoundDuration":157026,"Delta":67372966},{"NoteNumber":57,"Velocity":34,"Duration":78513,"SoundDuration":78513,"Delta":67372966},{"NoteNumber":52,"Velocity":28,"Duration":78513,"SoundDuration":78513,"Delta":67372966},{"NoteNumber":48,"Velocity":64,"Duration":77299,"SoundDuration":77299,"Delta":67529993},{"NoteNumber":64,"Velocity":63,"Duration":154599,"SoundDuration":154599,"Delta":67684593},{"NoteNumber":69,"Velocity":63,"Duration":154599,"SoundDuration":154599,"Delta":67684593},{"NoteNumber":76,"Velocity":75,"Duration":304148,"SoundDuration":304148,"Delta":67684593},{"NoteNumber":60,"Velocity":48,"Duration":77299,"SoundDuration":77299,"Delta":67684593},{"NoteNumber":52,"Velocity":39,"Duration":77299,"SoundDuration":77299,"Delta":67684593},{"NoteNumber":47,"Velocity":62,"Duration":74981,"SoundDuration":74981,"Delta":67839192},{"NoteNumber":69,"Velocity":62,"Duration":149135,"SoundDuration":149135,"Delta":67988741},{"NoteNumber":75,"Velocity":62,"Duration":149135,"SoundDuration":149135,"Delta":67988741},{"NoteNumber":81,"Velocity":73,"Duration":304133,"SoundDuration":304133,"Delta":67988741},{"NoteNumber":59,"Velocity":39,"Duration":74567,"SoundDuration":74567,"Delta":67988741},{"NoteNumber":65,"Velocity":48,"Duration":74567,"SoundDuration":74567,"Delta":67988741},{"NoteNumber":52,"Velocity":62,"Duration":77499,"SoundDuration":77499,"Delta":68137876},{"NoteNumber":68,"Velocity":57,"Duration":154998,"SoundDuration":154998,"Delta":68292874},{"NoteNumber":76,"Velocity":57,"Duration":154998,"SoundDuration":154998,"Delta":68292874},{"NoteNumber":80,"Velocity":69,"Duration":305336,"SoundDuration":305336,"Delta":68292874},{"NoteNumber":59,"Velocity":39,"Duration":77499,"SoundDuration":77499,"Delta":68292874},{"NoteNumber":64,"Velocity":48,"Duration":77499,"SoundDuration":77499,"Delta":68292874},{"NoteNumber":45,"Velocity":69,"Duration":75169,"SoundDuration":75169,"Delta":68447873},{"NoteNumber":67,"Velocity":62,"Duration":150338,"SoundDuration":150338,"Delta":68598211},{"NoteNumber":73,"Velocity":62,"Duration":150338,"SoundDuration":150338,"Delta":68598211},{"NoteNumber":79,"Velocity":73,"Duration":305336,"SoundDuration":305336,"Delta":68598211},{"NoteNumber":57,"Velocity":39,"Duration":75169,"SoundDuration":75169,"Delta":68598211},{"NoteNumber":64,"Velocity":48,"Duration":75169,"SoundDuration":75169,"Delta":68598211},{"NoteNumber":50,"Velocity":59,"Duration":77499,"SoundDuration":77499,"Delta":68748550},{"NoteNumber":66,"Velocity":57,"Duration":154998,"SoundDuration":154998,"Delta":68903548},{"NoteNumber":74,"Velocity":57,"Duration":154998,"SoundDuration":154998,"Delta":68903548},{"NoteNumber":78,"Velocity":69,"Duration":304528,"SoundDuration":304528,"Delta":68903548},{"NoteNumber":57,"Velocity":39,"Duration":77499,"SoundDuration":77499,"Delta":68903548},{"NoteNumber":62,"Velocity":48,"Duration":77499,"SoundDuration":77499,"Delta":68903548},{"NoteNumber":38,"Velocity":59,"Duration":75169,"SoundDuration":75169,"Delta":69058547},{"NoteNumber":65,"Velocity":52,"Duration":148721,"SoundDuration":148721,"Delta":69208077},{"NoteNumber":70,"Velocity":52,"Duration":148721,"SoundDuration":148721,"Delta":69208077},{"NoteNumber":77,"Velocity":62,"Duration":304306,"SoundDuration":304306,"Delta":69208077},{"NoteNumber":53,"Velocity":33,"Duration":74360,"SoundDuration":74360,"Delta":69208077},{"NoteNumber":58,"Velocity":40,"Duration":74360,"SoundDuration":74360,"Delta":69208077},{"NoteNumber":40,"Velocity":41,"Duration":77792,"SoundDuration":77792,"Delta":69356798},{"NoteNumber":71,"Velocity":44,"Duration":302385,"SoundDuration":302385,"Delta":69512383},{"NoteNumber":68,"Velocity":37,"Duration":302385,"SoundDuration":302385,"Delta":69512383},{"NoteNumber":62,"Velocity":37,"Duration":302385,"SoundDuration":302385,"Delta":69512383},{"NoteNumber":59,"Velocity":29,"Duration":77792,"SoundDuration":77792,"Delta":69512383},{"NoteNumber":52,"Velocity":24,"Duration":77792,"SoundDuration":77792,"Delta":69512383},{"NoteNumber":45,"Velocity":44,"Duration":73286,"SoundDuration":73286,"Delta":69667969},{"NoteNumber":64,"Velocity":42,"Duration":147829,"SoundDuration":147829,"Delta":69814769},{"NoteNumber":69,"Velocity":50,"Duration":446316,"SoundDuration":446316,"Delta":69814769},{"NoteNumber":60,"Velocity":42,"Duration":147829,"SoundDuration":147829,"Delta":69814769},{"NoteNumber":52,"Velocity":25,"Duration":73792,"SoundDuration":73792,"Delta":69814769},{"NoteNumber":57,"Velocity":30,"Duration":73792,"SoundDuration":73792,"Delta":69814769},{"NoteNumber":50,"Velocity":41,"Duration":74240,"SoundDuration":74240,"Delta":69962598},{"NoteNumber":65,"Velocity":48,"Duration":452221,"SoundDuration":452221,"Delta":70111326},{"NoteNumber":62,"Velocity":39,"Duration":149759,"SoundDuration":149759,"Delta":70111326},{"NoteNumber":57,"Velocity":30,"Duration":74734,"SoundDuration":74734,"Delta":70111326},{"NoteNumber":53,"Velocity":25,"Duration":74734,"SoundDuration":74734,"Delta":70111326},{"NoteNumber":38,"Velocity":39,"Duration":75235,"SoundDuration":75235,"Delta":70261085},{"NoteNumber":74,"Velocity":47,"Duration":304468,"SoundDuration":304468,"Delta":70411807},{"NoteNumber":70,"Velocity":40,"Duration":304468,"SoundDuration":304468,"Delta":70411807},{"NoteNumber":53,"Velocity":25,"Duration":75742,"SoundDuration":75742,"Delta":70411807},{"NoteNumber":58,"Velocity":30,"Duration":75742,"SoundDuration":75742,"Delta":70411807},{"NoteNumber":40,"Velocity":38,"Duration":76214,"SoundDuration":76214,"Delta":70563547},{"NoteNumber":62,"Velocity":35,"Duration":304615,"SoundDuration":304615,"Delta":70716276},{"NoteNumber":71,"Velocity":42,"Duration":304615,"SoundDuration":304615,"Delta":70716276},{"NoteNumber":68,"Velocity":35,"Duration":304615,"SoundDuration":304615,"Delta":70716276},{"NoteNumber":52,"Velocity":24,"Duration":76776,"SoundDuration":76776,"Delta":70716276},{"NoteNumber":59,"Velocity":28,"Duration":76776,"SoundDuration":76776,"Delta":70716276},{"NoteNumber":41,"Velocity":36,"Duration":75399,"SoundDuration":75399,"Delta":70870092},{"NoteNumber":60,"Velocity":37,"Duration":302874,"SoundDuration":302874,"Delta":71020891},{"NoteNumber":69,"Velocity":45,"Duration":302874,"SoundDuration":302874,"Delta":71020891},{"NoteNumber":57,"Velocity":29,"Duration":75399,"SoundDuration":75399,"Delta":71020891},{"NoteNumber":53,"Velocity":25,"Duration":75399,"SoundDuration":75399,"Delta":71020891},{"NoteNumber":36,"Velocity":55,"Duration":76037,"SoundDuration":76037,"Delta":71171690},{"NoteNumber":64,"Velocity":50,"Duration":301836,"SoundDuration":301836,"Delta":71323766},{"NoteNumber":69,"Velocity":50,"Duration":301836,"SoundDuration":301836,"Delta":71323766},{"NoteNumber":76,"Velocity":60,"Duration":301836,"SoundDuration":301836,"Delta":71323766},{"NoteNumber":57,"Velocity":38,"Duration":76038,"SoundDuration":76038,"Delta":71323766},{"NoteNumber":48,"Velocity":30,"Duration":76038,"SoundDuration":76038,"Delta":71323766},{"NoteNumber":38,"Velocity":55,"Duration":74880,"SoundDuration":74880,"Delta":71475842},{"NoteNumber":65,"Velocity":49,"Duration":299520,"SoundDuration":299520,"Delta":71625603},{"NoteNumber":70,"Velocity":49,"Duration":299520,"SoundDuration":299520,"Delta":71625603},{"NoteNumber":74,"Velocity":58,"Duration":299520,"SoundDuration":299520,"Delta":71625603},{"NoteNumber":50,"Velocity":30,"Duration":74880,"SoundDuration":74880,"Delta":71625603},{"NoteNumber":58,"Velocity":38,"Duration":74880,"SoundDuration":74880,"Delta":71625603},{"NoteNumber":40,"Velocity":55,"Duration":74880,"SoundDuration":74880,"Delta":71775363},{"NoteNumber":62,"Velocity":45,"Duration":299370,"SoundDuration":299370,"Delta":71925124},{"NoteNumber":68,"Velocity":55,"Duration":299370,"SoundDuration":299370,"Delta":71925124},{"NoteNumber":52,"Velocity":30,"Duration":74880,"SoundDuration":74880,"Delta":71925124},{"NoteNumber":59,"Velocity":38,"Duration":74880,"SoundDuration":74880,"Delta":71925124},{"NoteNumber":45,"Velocity":41,"Duration":74542,"SoundDuration":74542,"Delta":72074884},{"NoteNumber":69,"Velocity":47,"Duration":610306,"SoundDuration":610306,"Delta":72224494},{"NoteNumber":60,"Velocity":40,"Duration":150891,"SoundDuration":150891,"Delta":72224494},{"NoteNumber":52,"Velocity":23,"Duration":75318,"SoundDuration":75318,"Delta":72224494},{"NoteNumber":57,"Velocity":28,"Duration":75318,"SoundDuration":75318,"Delta":72224494},{"NoteNumber":50,"Velocity":39,"Duration":75870,"SoundDuration":75870,"Delta":72375385},{"NoteNumber":65,"Velocity":45,"Duration":153161,"SoundDuration":153161,"Delta":72527382},{"NoteNumber":62,"Velocity":37,"Duration":153161,"SoundDuration":153161,"Delta":72527382},{"NoteNumber":57,"Velocity":28,"Duration":76429,"SoundDuration":76429,"Delta":72527382},{"NoteNumber":53,"Velocity":23,"Duration":76429,"SoundDuration":76429,"Delta":72527382},{"NoteNumber":45,"Velocity":38,"Duration":76996,"SoundDuration":76996,"Delta":72680544},{"NoteNumber":72,"Velocity":46,"Duration":311998,"SoundDuration":311998,"Delta":72834801},{"NoteNumber":64,"Velocity":46,"Duration":155412,"SoundDuration":155412,"Delta":72834801},{"NoteNumber":60,"Velocity":39,"Duration":155412,"SoundDuration":155412,"Delta":72834801},{"NoteNumber":52,"Velocity":24,"Duration":77527,"SoundDuration":77527,"Delta":72834801},{"NoteNumber":57,"Velocity":29,"Duration":77527,"SoundDuration":77527,"Delta":72834801},{"NoteNumber":50,"Velocity":36,"Duration":78155,"SoundDuration":78155,"Delta":72990213},{"NoteNumber":70,"Velocity":42,"Duration":316521,"SoundDuration":316521,"Delta":73146799},{"NoteNumber":65,"Velocity":38,"Duration":157776,"SoundDuration":157776,"Delta":73146799},{"NoteNumber":62,"Velocity":37,"Duration":157776,"SoundDuration":157776,"Delta":73146799},{"NoteNumber":53,"Velocity":26,"Duration":78750,"SoundDuration":78750,"Delta":73146799},{"NoteNumber":57,"Velocity":30,"Duration":78750,"SoundDuration":78750,"Delta":73146799},{"NoteNumber":45,"Velocity":39,"Duration":79350,"SoundDuration":79350,"Delta":73304575},{"NoteNumber":64,"Velocity":37,"Duration":158788,"SoundDuration":158788,"Delta":73463320},{"NoteNumber":69,"Velocity":42,"Duration":649175,"SoundDuration":649175,"Delta":73463320},{"NoteNumber":60,"Velocity":37,"Duration":158788,"SoundDuration":158788,"Delta":73463320},{"NoteNumber":52,"Velocity":20,"Duration":79394,"SoundDuration":79394,"Delta":73463320},{"NoteNumber":57,"Velocity":26,"Duration":79394,"SoundDuration":79394,"Delta":73463320},{"NoteNumber":50,"Velocity":36,"Duration":81597,"SoundDuration":81597,"Delta":73622109},{"NoteNumber":65,"Velocity":40,"Duration":158974,"SoundDuration":158974,"Delta":73785304},{"NoteNumber":62,"Velocity":33,"Duration":158974,"SoundDuration":158974,"Delta":73785304},{"NoteNumber":57,"Velocity":25,"Duration":79487,"SoundDuration":79487,"Delta":73785304},{"NoteNumber":53,"Velocity":20,"Duration":79487,"SoundDuration":79487,"Delta":73785304},{"NoteNumber":45,"Velocity":35,"Duration":84108,"SoundDuration":84108,"Delta":73944278},{"NoteNumber":72,"Velocity":41,"Duration":350876,"SoundDuration":350876,"Delta":74112496},{"NoteNumber":64,"Velocity":41,"Duration":175438,"SoundDuration":175438,"Delta":74112496},{"NoteNumber":60,"Velocity":35,"Duration":175438,"SoundDuration":175438,"Delta":74112496},{"NoteNumber":52,"Velocity":22,"Duration":87719,"SoundDuration":87719,"Delta":74112496},{"NoteNumber":57,"Velocity":26,"Duration":87719,"SoundDuration":87719,"Delta":74112496},{"NoteNumber":45,"Velocity":33,"Duration":175438,"SoundDuration":175438,"Delta":74287934},{"NoteNumber":70,"Velocity":38,"Duration":175438,"SoundDuration":175438,"Delta":74463373},{"NoteNumber":65,"Velocity":35,"Duration":175438,"SoundDuration":175438,"Delta":74463373},{"NoteNumber":62,"Velocity":34,"Duration":175438,"SoundDuration":175438,"Delta":74463373},{"NoteNumber":50,"Velocity":23,"Duration":175438,"SoundDuration":175438,"Delta":74463373},{"NoteNumber":58,"Velocity":28,"Duration":175438,"SoundDuration":175438,"Delta":74463373},{"NoteNumber":45,"Velocity":27,"Duration":3885629,"SoundDuration":3885629,"Delta":74638811},{"NoteNumber":50,"Velocity":27,"Duration":1328413,"SoundDuration":1328413,"Delta":74715565},{"NoteNumber":53,"Velocity":33,"Duration":3732121,"SoundDuration":3732121,"Delta":74792319},{"NoteNumber":58,"Velocity":33,"Duration":1174906,"SoundDuration":1174906,"Delta":74869073},{"NoteNumber":62,"Velocity":35,"Duration":3578614,"SoundDuration":3578614,"Delta":74945826},{"NoteNumber":65,"Velocity":40,"Duration":3501860,"SoundDuration":3501860,"Delta":75022580},{"NoteNumber":70,"Velocity":49,"Duration":1826672,"SoundDuration":1826672,"Delta":75099334},{"NoteNumber":74,"Velocity":41,"Duration":735744,"SoundDuration":735744,"Delta":76926007},{"NoteNumber":73,"Velocity":41,"Duration":862689,"SoundDuration":862689,"Delta":77661752},{"NoteNumber":45,"Velocity":27,"Duration":1872789,"SoundDuration":1872789,"Delta":78524441},{"NoteNumber":52,"Velocity":27,"Duration":1788096,"SoundDuration":1788096,"Delta":78609134},{"NoteNumber":57,"Velocity":33,"Duration":1703403,"SoundDuration":1703403,"Delta":78693827},{"NoteNumber":61,"Velocity":35,"Duration":1618709,"SoundDuration":1618709,"Delta":78778521},{"NoteNumber":64,"Velocity":35,"Duration":1534016,"SoundDuration":1534016,"Delta":78863214},{"NoteNumber":69,"Velocity":41,"Duration":1449323,"SoundDuration":1449323,"Delta":78947907}],"license":{"name":"Creative Commons Attribution-ShareAlike 3.0 Germany","url":"http://creativecommons.org/licenses/by-sa/3.0/de/deed.en","text":"The MIDI files in this folder were downloaded from http://www.piano-midi.de and are licensed under the Creative Commons Attribution-ShareAlike 3.0 Germany license by Bernd Krueger.\n\nThe MIDI, audio(MP3, OGG) and video files of Bernd Krueger are licensed under the cc-by-sa Germany License . This means, that you can use and adapt the files, as long as you attribute to the copyright holder Name: Bernd Krueger Source: http://www.piano-midi.de The distribution or public playback of the files is only allowed under identical license conditions . The scores are open source.","attribution":"Bernd Krueger","attributionUrl":"http://www.piano-midi.de"}}