{"title":"Etude in F major, Op. 25 No. 3","artist":"Chopin","durationMs":100216,"midiSha256":"87a7c529b61a0d1741fbeaf4d2d906c65aaf7d88b1eca1551c23baf59a5f99f7","midiObject":[{"NoteNumber":72,"Velocity":61,"Duration":414507,"SoundDuration":414507,"Delta":0},{"NoteNumber":65,"Velocity":50,"Duration":208665,"SoundDuration":208665,"Delta":414507},{"NoteNumber":74,"Velocity":73,"Duration":97049,"SoundDuration":97049,"Delta":414507},{"NoteNumber":57,"Velocity":38,"Duration":97049,"SoundDuration":97049,"Delta":414507},{"NoteNumber":48,"Velocity":31,"Duration":208665,"SoundDuration":208665,"Delta":414507},{"NoteNumber":72,"Velocity":52,"Duration":223230,"SoundDuration":223230,"Delta":511557},{"NoteNumber":53,"Velocity":35,"Duration":111615,"SoundDuration":111615,"Delta":511557},{"NoteNumber":77,"Velocity":64,"Duration":111615,"SoundDuration":111615,"Delta":623173},{"NoteNumber":41,"Velocity":31,"Duration":111615,"SoundDuration":111615,"Delta":623173},{"NoteNumber":60,"Velocity":46,"Duration":206666,"SoundDuration":206666,"Delta":855270},{"NoteNumber":67,"Velocity":67,"Duration":97049,"SoundDuration":97049,"Delta":855270},{"NoteNumber":57,"Velocity":36,"Duration":97049,"SoundDuration":97049,"Delta":855270},{"NoteNumber":48,"Velocity":29,"Duration":206666,"SoundDuration":206666,"Delta":855270},{"NoteNumber":65,"Velocity":47,"Duration":219233,"SoundDuration":219233,"Delta":952320},{"NoteNumber":53,"Velocity":33,"Duration":109617,"SoundDuration":109617,"Delta":952320},{"NoteNumber":72,"Velocity":63,"Duration":109616,"SoundDuration":109616,"Delta":1061937},{"NoteNumber":41,"Velocity":29,"Duration":109616,"SoundDuration":109616,"Delta":1061937},{"NoteNumber":65,"Velocity":48,"Duration":205824,"SoundDuration":205824,"Delta":1286912},{"NoteNumber":74,"Velocity":69,"Duration":97049,"SoundDuration":97049,"Delta":1286912},{"NoteNumber":57,"Velocity":36,"Duration":97049,"SoundDuration":97049,"Delta":1286912},{"NoteNumber":48,"Velocity":29,"Duration":205824,"SoundDuration":205824,"Delta":1286912},{"NoteNumber":72,"Velocity":49,"Duration":217549,"SoundDuration":217549,"Delta":1383962},{"NoteNumber":53,"Velocity":33,"Duration":108774,"SoundDuration":108774,"Delta":1383962},{"NoteNumber":77,"Velocity":63,"Duration":108774,"SoundDuration":108774,"Delta":1492736},{"NoteNumber":41,"Velocity":28,"Duration":108774,"SoundDuration":108774,"Delta":1492736},{"NoteNumber":67,"Velocity":50,"Duration":206151,"SoundDuration":206151,"Delta":1717038},{"NoteNumber":74,"Velocity":73,"Duration":97377,"SoundDuration":97377,"Delta":1717038},{"NoteNumber":58,"Velocity":38,"Duration":97377,"SoundDuration":97377,"Delta":1717038},{"NoteNumber":48,"Velocity":31,"Duration":206151,"SoundDuration":206151,"Delta":1717038},{"NoteNumber":72,"Velocity":51,"Duration":217549,"SoundDuration":217549,"Delta":1814415},{"NoteNumber":52,"Velocity":35,"Duration":108774,"SoundDuration":108774,"Delta":1814415},{"NoteNumber":79,"Velocity":61,"Duration":108774,"SoundDuration":108774,"Delta":1923189},{"NoteNumber":41,"Velocity":30,"Duration":108774,"SoundDuration":108774,"Delta":1923189},{"NoteNumber":60,"Velocity":44,"Duration":205415,"SoundDuration":205415,"Delta":2147491},{"NoteNumber":69,"Velocity":64,"Duration":97049,"SoundDuration":97049,"Delta":2147491},{"NoteNumber":58,"Velocity":32,"Duration":97049,"SoundDuration":97049,"Delta":2147491},{"NoteNumber":48,"Velocity":29,"Duration":205415,"SoundDuration":205415,"Delta":2147491},{"NoteNumber":67,"Velocity":47,"Duration":216731,"SoundDuration":216731,"Delta":2244540},{"NoteNumber":52,"Velocity":33,"Duration":108365,"SoundDuration":108365,"Delta":2244540},{"NoteNumber":72,"Velocity":59,"Duration":108365,"SoundDuration":108365,"Delta":2352906},{"NoteNumber":41,"Velocity":28,"Duration":108365,"SoundDuration":108365,"Delta":2352906},{"NoteNumber":67,"Velocity":48,"Duration":205329,"SoundDuration":205329,"Delta":2576435},{"NoteNumber":74,"Velocity":69,"Duration":97377,"SoundDuration":97377,"Delta":2576435},{"NoteNumber":58,"Velocity":36,"Duration":97377,"SoundDuration":97377,"Delta":2576435},{"NoteNumber":48,"Velocity":29,"Duration":205329,"SoundDuration":205329,"Delta":2576435},{"NoteNumber":72,"Velocity":52,"Duration":215904,"SoundDuration":215904,"Delta":2673812},{"NoteNumber":52,"Velocity":33,"Duration":107952,"SoundDuration":107952,"Delta":2673812},{"NoteNumber":79,"Velocity":66,"Duration":107952,"SoundDuration":107952,"Delta":2781765},{"NoteNumber":41,"Velocity":28,"Duration":107952,"SoundDuration":107952,"Delta":2781765},{"NoteNumber":69,"Velocity":52,"Duration":205002,"SoundDuration":205002,"Delta":3002797},{"NoteNumber":74,"Velocity":76,"Duration":97049,"SoundDuration":97049,"Delta":3002797},{"NoteNumber":57,"Velocity":39,"Duration":97049,"SoundDuration":97049,"Delta":3002797},{"NoteNumber":48,"Velocity":32,"Duration":205002,"SoundDuration":205002,"Delta":3002797},{"NoteNumber":72,"Velocity":53,"Duration":215905,"SoundDuration":215905,"Delta":3099847},{"NoteNumber":53,"Velocity":36,"Duration":107952,"SoundDuration":107952,"Delta":3099847},{"NoteNumber":81,"Velocity":65,"Duration":107952,"SoundDuration":107952,"Delta":3207799},{"NoteNumber":41,"Velocity":32,"Duration":107952,"SoundDuration":107952,"Delta":3207799},{"NoteNumber":65,"Velocity":49,"Duration":205498,"SoundDuration":205498,"Delta":3428831},{"NoteNumber":74,"Velocity":71,"Duration":96724,"SoundDuration":96724,"Delta":3428831},{"NoteNumber":57,"Velocity":37,"Duration":96724,"SoundDuration":96724,"Delta":3428831},{"NoteNumber":50,"Velocity":30,"Duration":205498,"SoundDuration":205498,"Delta":3428831},{"NoteNumber":72,"Velocity":49,"Duration":217549,"SoundDuration":217549,"Delta":3525555},{"NoteNumber":53,"Velocity":34,"Duration":108774,"SoundDuration":108774,"Delta":3525555},{"NoteNumber":77,"Velocity":63,"Duration":108774,"SoundDuration":108774,"Delta":3634330},{"NoteNumber":41,"Velocity":29,"Duration":108774,"SoundDuration":108774,"Delta":3634330},{"NoteNumber":74,"Velocity":50,"Duration":206243,"SoundDuration":206243,"Delta":3858631},{"NoteNumber":81,"Velocity":72,"Duration":97049,"SoundDuration":97049,"Delta":3858631},{"NoteNumber":59,"Velocity":37,"Duration":97049,"SoundDuration":97049,"Delta":3858631},{"NoteNumber":50,"Velocity":30,"Duration":206243,"SoundDuration":206243,"Delta":3858631},{"NoteNumber":79,"Velocity":54,"Duration":218388,"SoundDuration":218388,"Delta":3955681},{"NoteNumber":53,"Velocity":34,"Duration":109194,"SoundDuration":109194,"Delta":3955681},{"NoteNumber":86,"Velocity":66,"Duration":109194,"SoundDuration":109194,"Delta":4064875},{"NoteNumber":43,"Velocity":30,"Duration":109194,"SoundDuration":109194,"Delta":4064875},{"NoteNumber":67,"Velocity":52,"Duration":206243,"SoundDuration":206243,"Delta":4291358},{"NoteNumber":74,"Velocity":76,"Duration":97049,"SoundDuration":97049,"Delta":4291358},{"NoteNumber":64,"Velocity":40,"Duration":97049,"SoundDuration":97049,"Delta":4291358},{"NoteNumber":55,"Velocity":33,"Duration":206243,"SoundDuration":206243,"Delta":4291358},{"NoteNumber":72,"Velocity":57,"Duration":218388,"SoundDuration":218388,"Delta":4388407},{"NoteNumber":58,"Velocity":37,"Duration":109194,"SoundDuration":109194,"Delta":4388407},{"NoteNumber":79,"Velocity":66,"Duration":109194,"SoundDuration":109194,"Delta":4497602},{"NoteNumber":48,"Velocity":32,"Duration":109194,"SoundDuration":109194,"Delta":4497602},{"NoteNumber":72,"Velocity":51,"Duration":208501,"SoundDuration":208501,"Delta":4721959},{"NoteNumber":81,"Velocity":72,"Duration":98045,"SoundDuration":98045,"Delta":4721959},{"NoteNumber":70,"Velocity":38,"Duration":98045,"SoundDuration":98045,"Delta":4721959},{"NoteNumber":60,"Velocity":31,"Duration":208501,"SoundDuration":208501,"Delta":4721959},{"NoteNumber":79,"Velocity":51,"Duration":220913,"SoundDuration":220913,"Delta":4820004},{"NoteNumber":64,"Velocity":35,"Duration":110456,"SoundDuration":110456,"Delta":4820004},{"NoteNumber":84,"Velocity":64,"Duration":110456,"SoundDuration":110456,"Delta":4930461},{"NoteNumber":55,"Velocity":28,"Duration":110456,"SoundDuration":110456,"Delta":4930461},{"NoteNumber":84,"Velocity":51,"Duration":222372,"SoundDuration":222372,"Delta":5157215},{"NoteNumber":93,"Velocity":75,"Duration":106300,"SoundDuration":106300,"Delta":5157215},{"NoteNumber":76,"Velocity":38,"Duration":106300,"SoundDuration":106300,"Delta":5157215},{"NoteNumber":67,"Velocity":31,"Duration":222372,"SoundDuration":222372,"Delta":5157215},{"NoteNumber":91,"Velocity":53,"Duration":255632,"SoundDuration":255632,"Delta":5263515},{"NoteNumber":70,"Velocity":35,"Duration":116071,"SoundDuration":116071,"Delta":5263515},{"NoteNumber":96,"Velocity":69,"Duration":139560,"SoundDuration":139560,"Delta":5379587},{"NoteNumber":60,"Velocity":30,"Duration":139560,"SoundDuration":139560,"Delta":5379587},{"NoteNumber":65,"Velocity":50,"Duration":208665,"SoundDuration":208665,"Delta":5658708},{"NoteNumber":74,"Velocity":73,"Duration":97049,"SoundDuration":97049,"Delta":5658708},{"NoteNumber":57,"Velocity":38,"Duration":97049,"SoundDuration":97049,"Delta":5658708},{"NoteNumber":48,"Velocity":31,"Duration":208665,"SoundDuration":208665,"Delta":5658708},{"NoteNumber":72,"Velocity":51,"Duration":223231,"SoundDuration":223231,"Delta":5755758},{"NoteNumber":53,"Velocity":35,"Duration":111615,"SoundDuration":111615,"Delta":5755758},{"NoteNumber":77,"Velocity":69,"Duration":111615,"SoundDuration":111615,"Delta":5867373},{"NoteNumber":41,"Velocity":31,"Duration":111615,"SoundDuration":111615,"Delta":5867373},{"NoteNumber":60,"Velocity":46,"Duration":207085,"SoundDuration":207085,"Delta":6104891},{"NoteNumber":67,"Velocity":67,"Duration":97049,"SoundDuration":97049,"Delta":6104891},{"NoteNumber":57,"Velocity":36,"Duration":97049,"SoundDuration":97049,"Delta":6104891},{"NoteNumber":48,"Velocity":29,"Duration":207085,"SoundDuration":207085,"Delta":6104891},{"NoteNumber":65,"Velocity":47,"Duration":220070,"SoundDuration":220070,"Delta":6201941},{"NoteNumber":53,"Velocity":33,"Duration":110035,"SoundDuration":110035,"Delta":6201941},{"NoteNumber":72,"Velocity":65,"Duration":110035,"SoundDuration":110035,"Delta":6311976},{"NoteNumber":41,"Velocity":29,"Duration":110035,"SoundDuration":110035,"Delta":6311976},{"NoteNumber":65,"Velocity":48,"Duration":208226,"SoundDuration":208226,"Delta":6542213},{"NoteNumber":74,"Velocity":69,"Duration":97049,"SoundDuration":97049,"Delta":6542213},{"NoteNumber":57,"Velocity":36,"Duration":97049,"SoundDuration":97049,"Delta":6542213},{"NoteNumber":48,"Velocity":29,"Duration":208226,"SoundDuration":208226,"Delta":6542213},{"NoteNumber":72,"Velocity":53,"Duration":222354,"SoundDuration":222354,"Delta":6639263},{"NoteNumber":53,"Velocity":33,"Duration":111176,"SoundDuration":111176,"Delta":6639263},{"NoteNumber":77,"Velocity":67,"Duration":111177,"SoundDuration":111177,"Delta":6750440},{"NoteNumber":41,"Velocity":28,"Duration":111177,"SoundDuration":111177,"Delta":6750440},{"NoteNumber":67,"Velocity":50,"Duration":206994,"SoundDuration":206994,"Delta":6976507},{"NoteNumber":74,"Velocity":73,"Duration":97377,"SoundDuration":97377,"Delta":6976507},{"NoteNumber":58,"Velocity":38,"Duration":97377,"SoundDuration":97377,"Delta":6976507},{"NoteNumber":48,"Velocity":31,"Duration":206994,"SoundDuration":206994,"Delta":6976507},{"NoteNumber":72,"Velocity":51,"Duration":219234,"SoundDuration":219234,"Delta":7073884},{"NoteNumber":52,"Velocity":35,"Duration":109617,"SoundDuration":109617,"Delta":7073884},{"NoteNumber":79,"Velocity":65,"Duration":109617,"SoundDuration":109617,"Delta":7183501},{"NoteNumber":41,"Velocity":30,"Duration":109617,"SoundDuration":109617,"Delta":7183501},{"NoteNumber":60,"Velocity":40,"Duration":206243,"SoundDuration":206243,"Delta":7409514},{"NoteNumber":69,"Velocity":64,"Duration":97049,"SoundDuration":97049,"Delta":7409514},{"NoteNumber":58,"Velocity":32,"Duration":97049,"SoundDuration":97049,"Delta":7409514},{"NoteNumber":48,"Velocity":29,"Duration":206243,"SoundDuration":206243,"Delta":7409514},{"NoteNumber":67,"Velocity":47,"Duration":218388,"SoundDuration":218388,"Delta":7506564},{"NoteNumber":52,"Velocity":33,"Duration":109194,"SoundDuration":109194,"Delta":7506564},{"NoteNumber":72,"Velocity":63,"Duration":109194,"SoundDuration":109194,"Delta":7615758},{"NoteNumber":41,"Velocity":28,"Duration":109194,"SoundDuration":109194,"Delta":7615758},{"NoteNumber":67,"Velocity":48,"Duration":206151,"SoundDuration":206151,"Delta":7840311},{"NoteNumber":74,"Velocity":69,"Duration":97377,"SoundDuration":97377,"Delta":7840311},{"NoteNumber":58,"Velocity":36,"Duration":97377,"SoundDuration":97377,"Delta":7840311},{"NoteNumber":48,"Velocity":29,"Duration":206151,"SoundDuration":206151,"Delta":7840311},{"NoteNumber":72,"Velocity":49,"Duration":217549,"SoundDuration":217549,"Delta":7937688},{"NoteNumber":52,"Velocity":33,"Duration":108774,"SoundDuration":108774,"Delta":7937688},{"NoteNumber":79,"Velocity":66,"Duration":108774,"SoundDuration":108774,"Delta":8046462},{"NoteNumber":41,"Velocity":28,"Duration":108774,"SoundDuration":108774,"Delta":8046462},{"NoteNumber":69,"Velocity":52,"Duration":206243,"SoundDuration":206243,"Delta":8271633},{"NoteNumber":74,"Velocity":76,"Duration":97049,"SoundDuration":97049,"Delta":8271633},{"NoteNumber":57,"Velocity":39,"Duration":97049,"SoundDuration":97049,"Delta":8271633},{"NoteNumber":48,"Velocity":32,"Duration":206243,"SoundDuration":206243,"Delta":8271633},{"NoteNumber":72,"Velocity":53,"Duration":218388,"SoundDuration":218388,"Delta":8368683},{"NoteNumber":53,"Velocity":36,"Duration":109194,"SoundDuration":109194,"Delta":8368683},{"NoteNumber":81,"Velocity":70,"Duration":109194,"SoundDuration":109194,"Delta":8477877},{"NoteNumber":41,"Velocity":32,"Duration":109194,"SoundDuration":109194,"Delta":8477877},{"NoteNumber":69,"Velocity":49,"Duration":205918,"SoundDuration":205918,"Delta":8702235},{"NoteNumber":76,"Velocity":71,"Duration":96724,"SoundDuration":96724,"Delta":8702235},{"NoteNumber":59,"Velocity":37,"Duration":96724,"SoundDuration":96724,"Delta":8702235},{"NoteNumber":50,"Velocity":30,"Duration":205918,"SoundDuration":205918,"Delta":8702235},{"NoteNumber":74,"Velocity":49,"Duration":218388,"SoundDuration":218388,"Delta":8798959},{"NoteNumber":53,"Velocity":34,"Duration":109194,"SoundDuration":109194,"Delta":8798959},{"NoteNumber":81,"Velocity":66,"Duration":109194,"SoundDuration":109194,"Delta":8908153},{"NoteNumber":43,"Velocity":29,"Duration":109194,"SoundDuration":109194,"Delta":8908153},{"NoteNumber":67,"Velocity":50,"Duration":209090,"SoundDuration":209090,"Delta":9133743},{"NoteNumber":74,"Velocity":72,"Duration":97049,"SoundDuration":97049,"Delta":9133743},{"NoteNumber":64,"Velocity":37,"Duration":97049,"SoundDuration":97049,"Delta":9133743},{"NoteNumber":55,"Velocity":30,"Duration":209090,"SoundDuration":209090,"Delta":9133743},{"NoteNumber":72,"Velocity":53,"Duration":224081,"SoundDuration":224081,"Delta":9230793},{"NoteNumber":58,"Velocity":34,"Duration":112040,"SoundDuration":112040,"Delta":9230793},{"NoteNumber":79,"Velocity":65,"Duration":112040,"SoundDuration":112040,"Delta":9342834},{"NoteNumber":48,"Velocity":30,"Duration":112040,"SoundDuration":112040,"Delta":9342834},{"NoteNumber":65,"Velocity":54,"Duration":209090,"SoundDuration":209090,"Delta":9572163},{"NoteNumber":74,"Velocity":80,"Duration":97049,"SoundDuration":97049,"Delta":9572163},{"NoteNumber":57,"Velocity":40,"Duration":97049,"SoundDuration":97049,"Delta":9572163},{"NoteNumber":48,"Velocity":33,"Duration":209090,"SoundDuration":209090,"Delta":9572163},{"NoteNumber":72,"Velocity":57,"Duration":224081,"SoundDuration":224081,"Delta":9669213},{"NoteNumber":53,"Velocity":37,"Duration":112040,"SoundDuration":112040,"Delta":9669213},{"NoteNumber":77,"Velocity":71,"Duration":112040,"SoundDuration":112040,"Delta":9781253},{"NoteNumber":41,"Velocity":32,"Duration":112040,"SoundDuration":112040,"Delta":9781253},{"NoteNumber":77,"Velocity":51,"Duration":212750,"SoundDuration":212750,"Delta":10011469},{"NoteNumber":86,"Velocity":72,"Duration":98045,"SoundDuration":98045,"Delta":10011469},{"NoteNumber":69,"Velocity":38,"Duration":98045,"SoundDuration":98045,"Delta":10011469},{"NoteNumber":60,"Velocity":31,"Duration":212750,"SoundDuration":212750,"Delta":10011469},{"NoteNumber":84,"Velocity":51,"Duration":229410,"SoundDuration":229410,"Delta":10109515},{"NoteNumber":65,"Velocity":35,"Duration":114705,"SoundDuration":114705,"Delta":10109515},{"NoteNumber":89,"Velocity":65,"Duration":114705,"SoundDuration":114705,"Delta":10224220},{"NoteNumber":53,"Velocity":28,"Duration":114705,"SoundDuration":114705,"Delta":10224220},{"NoteNumber":89,"Velocity":51,"Duration":222372,"SoundDuration":222372,"Delta":10461886},{"NoteNumber":98,"Velocity":75,"Duration":106299,"SoundDuration":106299,"Delta":10461886},{"NoteNumber":81,"Velocity":38,"Duration":106299,"SoundDuration":106299,"Delta":10461886},{"NoteNumber":72,"Velocity":31,"Duration":222372,"SoundDuration":222372,"Delta":10461886},{"NoteNumber":96,"Velocity":58,"Duration":253623,"SoundDuration":253623,"Delta":10568186},{"NoteNumber":77,"Velocity":35,"Duration":116072,"SoundDuration":116072,"Delta":10568186},{"NoteNumber":101,"Velocity":71,"Duration":137551,"SoundDuration":137551,"Delta":10684258},{"NoteNumber":65,"Velocity":30,"Duration":137551,"SoundDuration":137551,"Delta":10684258},{"NoteNumber":65,"Velocity":50,"Duration":208665,"SoundDuration":208665,"Delta":10959361},{"NoteNumber":74,"Velocity":73,"Duration":48524,"SoundDuration":48524,"Delta":10959361},{"NoteNumber":57,"Velocity":38,"Duration":97049,"SoundDuration":97049,"Delta":10959361},{"NoteNumber":48,"Velocity":31,"Duration":208665,"SoundDuration":208665,"Delta":10959361},{"NoteNumber":72,"Velocity":58,"Duration":48524,"SoundDuration":48524,"Delta":11007886},{"NoteNumber":74,"Velocity":63,"Duration":55807,"SoundDuration":55807,"Delta":11056411},{"NoteNumber":53,"Velocity":35,"Duration":111615,"SoundDuration":111615,"Delta":11056411},{"NoteNumber":72,"Velocity":52,"Duration":167423,"SoundDuration":167423,"Delta":11112219},{"NoteNumber":77,"Velocity":67,"Duration":111615,"SoundDuration":111615,"Delta":11168027},{"NoteNumber":41,"Velocity":31,"Duration":111615,"SoundDuration":111615,"Delta":11168027},{"NoteNumber":60,"Velocity":46,"Duration":206666,"SoundDuration":206666,"Delta":11400124},{"NoteNumber":67,"Velocity":67,"Duration":48524,"SoundDuration":48524,"Delta":11400124},{"NoteNumber":57,"Velocity":36,"Duration":97049,"SoundDuration":97049,"Delta":11400124},{"NoteNumber":48,"Velocity":29,"Duration":206666,"SoundDuration":206666,"Delta":11400124},{"NoteNumber":65,"Velocity":53,"Duration":48524,"SoundDuration":48524,"Delta":11448649},{"NoteNumber":67,"Velocity":57,"Duration":54808,"SoundDuration":54808,"Delta":11497174},{"NoteNumber":53,"Velocity":33,"Duration":109617,"SoundDuration":109617,"Delta":11497174},{"NoteNumber":65,"Velocity":47,"Duration":164425,"SoundDuration":164425,"Delta":11551983},{"NoteNumber":72,"Velocity":66,"Duration":109617,"SoundDuration":109617,"Delta":11606791},{"NoteNumber":41,"Velocity":29,"Duration":109617,"SoundDuration":109617,"Delta":11606791},{"NoteNumber":65,"Velocity":48,"Duration":205824,"SoundDuration":205824,"Delta":11831766},{"NoteNumber":74,"Velocity":69,"Duration":48524,"SoundDuration":48524,"Delta":11831766},{"NoteNumber":57,"Velocity":36,"Duration":97049,"SoundDuration":97049,"Delta":11831766},{"NoteNumber":48,"Velocity":29,"Duration":205824,"SoundDuration":205824,"Delta":11831766},{"NoteNumber":72,"Velocity":55,"Duration":48524,"SoundDuration":48524,"Delta":11880291},{"NoteNumber":74,"Velocity":59,"Duration":54387,"SoundDuration":54387,"Delta":11928816},{"NoteNumber":53,"Velocity":33,"Duration":108774,"SoundDuration":108774,"Delta":11928816},{"NoteNumber":72,"Velocity":49,"Duration":163161,"SoundDuration":163161,"Delta":11983203},{"NoteNumber":77,"Velocity":66,"Duration":108774,"SoundDuration":108774,"Delta":12037590},{"NoteNumber":41,"Velocity":28,"Duration":108774,"SoundDuration":108774,"Delta":12037590},{"NoteNumber":67,"Velocity":50,"Duration":206151,"SoundDuration":206151,"Delta":12261892},{"NoteNumber":74,"Velocity":73,"Duration":48688,"SoundDuration":48688,"Delta":12261892},{"NoteNumber":58,"Velocity":38,"Duration":97377,"SoundDuration":97377,"Delta":12261892},{"NoteNumber":48,"Velocity":31,"Duration":206151,"SoundDuration":206151,"Delta":12261892},{"NoteNumber":72,"Velocity":57,"Duration":48688,"SoundDuration":48688,"Delta":12310580},{"NoteNumber":74,"Velocity":63,"Duration":54387,"SoundDuration":54387,"Delta":12359269},{"NoteNumber":52,"Velocity":35,"Duration":108774,"SoundDuration":108774,"Delta":12359269},{"NoteNumber":72,"Velocity":51,"Duration":163161,"SoundDuration":163161,"Delta":12413656},{"NoteNumber":79,"Velocity":66,"Duration":108774,"SoundDuration":108774,"Delta":12468043},{"NoteNumber":41,"Velocity":30,"Duration":108774,"SoundDuration":108774,"Delta":12468043},{"NoteNumber":60,"Velocity":40,"Duration":205415,"SoundDuration":205415,"Delta":12692345},{"NoteNumber":69,"Velocity":64,"Duration":48524,"SoundDuration":48524,"Delta":12692345},{"NoteNumber":58,"Velocity":32,"Duration":97049,"SoundDuration":97049,"Delta":12692345},{"NoteNumber":48,"Velocity":29,"Duration":205415,"SoundDuration":205415,"Delta":12692345},{"NoteNumber":67,"Velocity":53,"Duration":48524,"SoundDuration":48524,"Delta":12740869},{"NoteNumber":69,"Velocity":57,"Duration":54182,"SoundDuration":54182,"Delta":12789394},{"NoteNumber":52,"Velocity":33,"Duration":108365,"SoundDuration":108365,"Delta":12789394},{"NoteNumber":67,"Velocity":57,"Duration":162548,"SoundDuration":162548,"Delta":12843577},{"NoteNumber":72,"Velocity":64,"Duration":108365,"SoundDuration":108365,"Delta":12897760},{"NoteNumber":41,"Velocity":28,"Duration":108365,"SoundDuration":108365,"Delta":12897760},{"NoteNumber":67,"Velocity":48,"Duration":205329,"SoundDuration":205329,"Delta":13121289},{"NoteNumber":74,"Velocity":69,"Duration":48688,"SoundDuration":48688,"Delta":13121289},{"NoteNumber":58,"Velocity":36,"Duration":97377,"SoundDuration":97377,"Delta":13121289},{"NoteNumber":48,"Velocity":29,"Duration":205329,"SoundDuration":205329,"Delta":13121289},{"NoteNumber":72,"Velocity":59,"Duration":48688,"SoundDuration":48688,"Delta":13169978},{"NoteNumber":74,"Velocity":61,"Duration":53976,"SoundDuration":53976,"Delta":13218666},{"NoteNumber":52,"Velocity":33,"Duration":107952,"SoundDuration":107952,"Delta":13218666},{"NoteNumber":72,"Velocity":52,"Duration":161928,"SoundDuration":161928,"Delta":13272643},{"NoteNumber":79,"Velocity":65,"Duration":107952,"SoundDuration":107952,"Delta":13326619},{"NoteNumber":41,"Velocity":28,"Duration":107952,"SoundDuration":107952,"Delta":13326619},{"NoteNumber":69,"Velocity":52,"Duration":205002,"SoundDuration":205002,"Delta":13547651},{"NoteNumber":74,"Velocity":76,"Duration":48524,"SoundDuration":48524,"Delta":13547651},{"NoteNumber":57,"Velocity":39,"Duration":97049,"SoundDuration":97049,"Delta":13547651},{"NoteNumber":48,"Velocity":32,"Duration":205002,"SoundDuration":205002,"Delta":13547651},{"NoteNumber":72,"Velocity":57,"Duration":48524,"SoundDuration":48524,"Delta":13596176},{"NoteNumber":74,"Velocity":64,"Duration":53976,"SoundDuration":53976,"Delta":13644700},{"NoteNumber":53,"Velocity":36,"Duration":107952,"SoundDuration":107952,"Delta":13644700},{"NoteNumber":72,"Velocity":53,"Duration":161928,"SoundDuration":161928,"Delta":13698677},{"NoteNumber":81,"Velocity":66,"Duration":107952,"SoundDuration":107952,"Delta":13752653},{"NoteNumber":41,"Velocity":32,"Duration":107952,"SoundDuration":107952,"Delta":13752653},{"NoteNumber":65,"Velocity":49,"Duration":205498,"SoundDuration":205498,"Delta":13973685},{"NoteNumber":74,"Velocity":71,"Duration":48362,"SoundDuration":48362,"Delta":13973685},{"NoteNumber":57,"Velocity":37,"Duration":96724,"SoundDuration":96724,"Delta":13973685},{"NoteNumber":50,"Velocity":30,"Duration":205498,"SoundDuration":205498,"Delta":13973685},{"NoteNumber":72,"Velocity":57,"Duration":48362,"SoundDuration":48362,"Delta":14022047},{"NoteNumber":74,"Velocity":63,"Duration":54387,"SoundDuration":54387,"Delta":14070409},{"NoteNumber":53,"Velocity":34,"Duration":108774,"SoundDuration":108774,"Delta":14070409},{"NoteNumber":72,"Velocity":49,"Duration":163161,"SoundDuration":163161,"Delta":14124796},{"NoteNumber":77,"Velocity":67,"Duration":108774,"SoundDuration":108774,"Delta":14179184},{"NoteNumber":41,"Velocity":29,"Duration":108774,"SoundDuration":108774,"Delta":14179184},{"NoteNumber":74,"Velocity":50,"Duration":206243,"SoundDuration":206243,"Delta":14403485},{"NoteNumber":81,"Velocity":72,"Duration":48524,"SoundDuration":48524,"Delta":14403485},{"NoteNumber":59,"Velocity":37,"Duration":97049,"SoundDuration":97049,"Delta":14403485},{"NoteNumber":50,"Velocity":30,"Duration":206243,"SoundDuration":206243,"Delta":14403485},{"NoteNumber":79,"Velocity":58,"Duration":48524,"SoundDuration":48524,"Delta":14452010},{"NoteNumber":81,"Velocity":64,"Duration":54597,"SoundDuration":54597,"Delta":14500535},{"NoteNumber":53,"Velocity":34,"Duration":109194,"SoundDuration":109194,"Delta":14500535},{"NoteNumber":79,"Velocity":54,"Duration":163791,"SoundDuration":163791,"Delta":14555132},{"NoteNumber":86,"Velocity":71,"Duration":109194,"SoundDuration":109194,"Delta":14609729},{"NoteNumber":43,"Velocity":30,"Duration":109194,"SoundDuration":109194,"Delta":14609729},{"NoteNumber":67,"Velocity":52,"Duration":206243,"SoundDuration":206243,"Delta":14836211},{"NoteNumber":74,"Velocity":76,"Duration":48524,"SoundDuration":48524,"Delta":14836211},{"NoteNumber":64,"Velocity":40,"Duration":97049,"SoundDuration":97049,"Delta":14836211},{"NoteNumber":55,"Velocity":33,"Duration":206243,"SoundDuration":206243,"Delta":14836211},{"NoteNumber":72,"Velocity":57,"Duration":48524,"SoundDuration":48524,"Delta":14884736},{"NoteNumber":74,"Velocity":65,"Duration":54597,"SoundDuration":54597,"Delta":14933261},{"NoteNumber":58,"Velocity":37,"Duration":109194,"SoundDuration":109194,"Delta":14933261},{"NoteNumber":72,"Velocity":57,"Duration":163791,"SoundDuration":163791,"Delta":14987858},{"NoteNumber":79,"Velocity":70,"Duration":109194,"SoundDuration":109194,"Delta":15042455},{"NoteNumber":48,"Velocity":32,"Duration":109194,"SoundDuration":109194,"Delta":15042455},{"NoteNumber":72,"Velocity":51,"Duration":208502,"SoundDuration":208502,"Delta":15266813},{"NoteNumber":81,"Velocity":72,"Duration":49022,"SoundDuration":49022,"Delta":15266813},{"NoteNumber":70,"Velocity":38,"Duration":98045,"SoundDuration":98045,"Delta":15266813},{"NoteNumber":60,"Velocity":31,"Duration":208502,"SoundDuration":208502,"Delta":15266813},{"NoteNumber":79,"Velocity":55,"Duration":49022,"SoundDuration":49022,"Delta":15315836},{"NoteNumber":81,"Velocity":61,"Duration":55228,"SoundDuration":55228,"Delta":15364858},{"NoteNumber":64,"Velocity":35,"Duration":110456,"SoundDuration":110456,"Delta":15364858},{"NoteNumber":79,"Velocity":51,"Duration":165684,"SoundDuration":165684,"Delta":15420087},{"NoteNumber":84,"Velocity":64,"Duration":110456,"SoundDuration":110456,"Delta":15475315},{"NoteNumber":55,"Velocity":28,"Duration":110456,"SoundDuration":110456,"Delta":15475315},{"NoteNumber":84,"Velocity":51,"Duration":222372,"SoundDuration":222372,"Delta":15702068},{"NoteNumber":93,"Velocity":75,"Duration":53149,"SoundDuration":53149,"Delta":15702068},{"NoteNumber":76,"Velocity":38,"Duration":106300,"SoundDuration":106300,"Delta":15702068},{"NoteNumber":67,"Velocity":31,"Duration":222372,"SoundDuration":222372,"Delta":15702068},{"NoteNumber":91,"Velocity":59,"Duration":53150,"SoundDuration":53150,"Delta":15755218},{"NoteNumber":93,"Velocity":63,"Duration":58036,"SoundDuration":58036,"Delta":15808368},{"NoteNumber":70,"Velocity":35,"Duration":116071,"SoundDuration":116071,"Delta":15808368},{"NoteNumber":91,"Velocity":53,"Duration":197596,"SoundDuration":197596,"Delta":15866405},{"NoteNumber":96,"Velocity":72,"Duration":139560,"SoundDuration":139560,"Delta":15924440},{"NoteNumber":60,"Velocity":30,"Duration":139560,"SoundDuration":139560,"Delta":15924440},{"NoteNumber":65,"Velocity":50,"Duration":208665,"SoundDuration":208665,"Delta":16203562},{"NoteNumber":74,"Velocity":73,"Duration":48524,"SoundDuration":48524,"Delta":16203562},{"NoteNumber":57,"Velocity":38,"Duration":97049,"SoundDuration":97049,"Delta":16203562},{"NoteNumber":48,"Velocity":31,"Duration":208665,"SoundDuration":208665,"Delta":16203562},{"NoteNumber":72,"Velocity":53,"Duration":48524,"SoundDuration":48524,"Delta":16252087},{"NoteNumber":74,"Velocity":61,"Duration":55807,"SoundDuration":55807,"Delta":16300612},{"NoteNumber":53,"Velocity":35,"Duration":111615,"SoundDuration":111615,"Delta":16300612},{"NoteNumber":72,"Velocity":51,"Duration":167423,"SoundDuration":167423,"Delta":16356419},{"NoteNumber":77,"Velocity":69,"Duration":111615,"SoundDuration":111615,"Delta":16412227},{"NoteNumber":41,"Velocity":31,"Duration":111615,"SoundDuration":111615,"Delta":16412227},{"NoteNumber":60,"Velocity":46,"Duration":207084,"SoundDuration":207084,"Delta":16649745},{"NoteNumber":67,"Velocity":67,"Duration":48524,"SoundDuration":48524,"Delta":16649745},{"NoteNumber":57,"Velocity":36,"Duration":97049,"SoundDuration":97049,"Delta":16649745},{"NoteNumber":48,"Velocity":29,"Duration":207084,"SoundDuration":207084,"Delta":16649745},{"NoteNumber":65,"Velocity":51,"Duration":48524,"SoundDuration":48524,"Delta":16698270},{"NoteNumber":67,"Velocity":59,"Duration":55017,"SoundDuration":55017,"Delta":16746795},{"NoteNumber":53,"Velocity":33,"Duration":110035,"SoundDuration":110035,"Delta":16746795},{"NoteNumber":65,"Velocity":47,"Duration":165052,"SoundDuration":165052,"Delta":16801812},{"NoteNumber":72,"Velocity":65,"Duration":110035,"SoundDuration":110035,"Delta":16856830},{"NoteNumber":41,"Velocity":29,"Duration":110035,"SoundDuration":110035,"Delta":16856830},{"NoteNumber":65,"Velocity":48,"Duration":208226,"SoundDuration":208226,"Delta":17087067},{"NoteNumber":74,"Velocity":69,"Duration":48524,"SoundDuration":48524,"Delta":17087067},{"NoteNumber":57,"Velocity":36,"Duration":97049,"SoundDuration":97049,"Delta":17087067},{"NoteNumber":48,"Velocity":29,"Duration":208226,"SoundDuration":208226,"Delta":17087067},{"NoteNumber":72,"Velocity":54,"Duration":48524,"SoundDuration":48524,"Delta":17135592},{"NoteNumber":74,"Velocity":61,"Duration":55588,"SoundDuration":55588,"Delta":17184117},{"NoteNumber":53,"Velocity":33,"Duration":111177,"SoundDuration":111177,"Delta":17184117},{"NoteNumber":72,"Velocity":53,"Duration":166765,"SoundDuration":166765,"Delta":17239705},{"NoteNumber":77,"Velocity":67,"Duration":111176,"SoundDuration":111176,"Delta":17295294},{"NoteNumber":41,"Velocity":28,"Duration":111176,"SoundDuration":111176,"Delta":17295294},{"NoteNumber":67,"Velocity":50,"Duration":206994,"SoundDuration":206994,"Delta":17521361},{"NoteNumber":74,"Velocity":73,"Duration":48688,"SoundDuration":48688,"Delta":17521361},{"NoteNumber":58,"Velocity":38,"Duration":97377,"SoundDuration":97377,"Delta":17521361},{"NoteNumber":48,"Velocity":31,"Duration":206994,"SoundDuration":206994,"Delta":17521361},{"NoteNumber":72,"Velocity":58,"Duration":48688,"SoundDuration":48688,"Delta":17570049},{"NoteNumber":74,"Velocity":65,"Duration":54808,"SoundDuration":54808,"Delta":17618738},{"NoteNumber":52,"Velocity":35,"Duration":109617,"SoundDuration":109617,"Delta":17618738},{"NoteNumber":72,"Velocity":51,"Duration":164425,"SoundDuration":164425,"Delta":17673546},{"NoteNumber":79,"Velocity":65,"Duration":109617,"SoundDuration":109617,"Delta":17728355},{"NoteNumber":41,"Velocity":30,"Duration":109617,"SoundDuration":109617,"Delta":17728355},{"NoteNumber":60,"Velocity":40,"Duration":206244,"SoundDuration":206244,"Delta":17954368},{"NoteNumber":69,"Velocity":64,"Duration":48524,"SoundDuration":48524,"Delta":17954368},{"NoteNumber":58,"Velocity":32,"Duration":97049,"SoundDuration":97049,"Delta":17954368},{"NoteNumber":48,"Velocity":29,"Duration":206244,"SoundDuration":206244,"Delta":17954368},{"NoteNumber":67,"Velocity":51,"Duration":48524,"SoundDuration":48524,"Delta":18002893},{"NoteNumber":69,"Velocity":57,"Duration":54597,"SoundDuration":54597,"Delta":18051418},{"NoteNumber":52,"Velocity":33,"Duration":109194,"SoundDuration":109194,"Delta":18051418},{"NoteNumber":67,"Velocity":47,"Duration":163791,"SoundDuration":163791,"Delta":18106015},{"NoteNumber":72,"Velocity":63,"Duration":109194,"SoundDuration":109194,"Delta":18160612},{"NoteNumber":41,"Velocity":28,"Duration":109194,"SoundDuration":109194,"Delta":18160612},{"NoteNumber":67,"Velocity":48,"Duration":206151,"SoundDuration":206151,"Delta":18385164},{"NoteNumber":74,"Velocity":69,"Duration":48688,"SoundDuration":48688,"Delta":18385164},{"NoteNumber":58,"Velocity":36,"Duration":97377,"SoundDuration":97377,"Delta":18385164},{"NoteNumber":48,"Velocity":29,"Duration":206151,"SoundDuration":206151,"Delta":18385164},{"NoteNumber":72,"Velocity":54,"Duration":48688,"SoundDuration":48688,"Delta":18433853},{"NoteNumber":74,"Velocity":61,"Duration":54387,"SoundDuration":54387,"Delta":18482542},{"NoteNumber":52,"Velocity":33,"Duration":108774,"SoundDuration":108774,"Delta":18482542},{"NoteNumber":72,"Velocity":49,"Duration":163161,"SoundDuration":163161,"Delta":18536929},{"NoteNumber":79,"Velocity":66,"Duration":108774,"SoundDuration":108774,"Delta":18591316},{"NoteNumber":41,"Velocity":28,"Duration":108774,"SoundDuration":108774,"Delta":18591316},{"NoteNumber":69,"Velocity":52,"Duration":206244,"SoundDuration":206244,"Delta":18816487},{"NoteNumber":74,"Velocity":76,"Duration":48524,"SoundDuration":48524,"Delta":18816487},{"NoteNumber":57,"Velocity":39,"Duration":97049,"SoundDuration":97049,"Delta":18816487},{"NoteNumber":48,"Velocity":32,"Duration":206244,"SoundDuration":206244,"Delta":18816487},{"NoteNumber":72,"Velocity":59,"Duration":48524,"SoundDuration":48524,"Delta":18865012},{"NoteNumber":74,"Velocity":67,"Duration":54597,"SoundDuration":54597,"Delta":18913537},{"NoteNumber":53,"Velocity":36,"Duration":109194,"SoundDuration":109194,"Delta":18913537},{"NoteNumber":72,"Velocity":53,"Duration":163791,"SoundDuration":163791,"Delta":18968134},{"NoteNumber":81,"Velocity":70,"Duration":109194,"SoundDuration":109194,"Delta":19022731},{"NoteNumber":41,"Velocity":32,"Duration":109194,"SoundDuration":109194,"Delta":19022731},{"NoteNumber":69,"Velocity":49,"Duration":205918,"SoundDuration":205918,"Delta":19247088},{"NoteNumber":76,"Velocity":71,"Duration":48362,"SoundDuration":48362,"Delta":19247088},{"NoteNumber":59,"Velocity":37,"Duration":96724,"SoundDuration":96724,"Delta":19247088},{"NoteNumber":50,"Velocity":30,"Duration":205918,"SoundDuration":205918,"Delta":19247088},{"NoteNumber":74,"Velocity":58,"Duration":48362,"SoundDuration":48362,"Delta":19295451},{"NoteNumber":76,"Velocity":65,"Duration":54597,"SoundDuration":54597,"Delta":19343813},{"NoteNumber":53,"Velocity":34,"Duration":109194,"SoundDuration":109194,"Delta":19343813},{"NoteNumber":74,"Velocity":49,"Duration":163791,"SoundDuration":163791,"Delta":19398410},{"NoteNumber":81,"Velocity":66,"Duration":109194,"SoundDuration":109194,"Delta":19453007},{"NoteNumber":43,"Velocity":29,"Duration":109194,"SoundDuration":109194,"Delta":19453007},{"NoteNumber":67,"Velocity":50,"Duration":209090,"SoundDuration":209090,"Delta":19678597},{"NoteNumber":74,"Velocity":72,"Duration":48524,"SoundDuration":48524,"Delta":19678597},{"NoteNumber":58,"Velocity":37,"Duration":97049,"SoundDuration":97049,"Delta":19678597},{"NoteNumber":48,"Velocity":30,"Duration":209090,"SoundDuration":209090,"Delta":19678597},{"NoteNumber":72,"Velocity":58,"Duration":48524,"SoundDuration":48524,"Delta":19727122},{"NoteNumber":74,"Velocity":64,"Duration":56020,"SoundDuration":56020,"Delta":19775647},{"NoteNumber":52,"Velocity":34,"Duration":112040,"SoundDuration":112040,"Delta":19775647},{"NoteNumber":72,"Velocity":53,"Duration":168061,"SoundDuration":168061,"Delta":19831668},{"NoteNumber":79,"Velocity":65,"Duration":112040,"SoundDuration":112040,"Delta":19887688},{"NoteNumber":36,"Velocity":30,"Duration":112040,"SoundDuration":112040,"Delta":19887688},{"NoteNumber":65,"Velocity":54,"Duration":215613,"SoundDuration":215613,"Delta":20117017},{"NoteNumber":74,"Velocity":80,"Duration":50335,"SoundDuration":50335,"Delta":20117017},{"NoteNumber":57,"Velocity":40,"Duration":100671,"SoundDuration":100671,"Delta":20117017},{"NoteNumber":48,"Velocity":33,"Duration":215613,"SoundDuration":215613,"Delta":20117017},{"NoteNumber":72,"Velocity":59,"Duration":50335,"SoundDuration":50335,"Delta":20167353},{"NoteNumber":74,"Velocity":66,"Duration":57471,"SoundDuration":57471,"Delta":20217688},{"NoteNumber":53,"Velocity":37,"Duration":114942,"SoundDuration":114942,"Delta":20217688},{"NoteNumber":72,"Velocity":57,"Duration":172413,"SoundDuration":172413,"Delta":20275160},{"NoteNumber":77,"Velocity":71,"Duration":114942,"SoundDuration":114942,"Delta":20332631},{"NoteNumber":41,"Velocity":32,"Duration":114942,"SoundDuration":114942,"Delta":20332631},{"NoteNumber":77,"Velocity":51,"Duration":223448,"SoundDuration":223448,"Delta":20570022},{"NoteNumber":86,"Velocity":72,"Duration":51724,"SoundDuration":51724,"Delta":20570022},{"NoteNumber":69,"Velocity":38,"Duration":103448,"SoundDuration":103448,"Delta":20570022},{"NoteNumber":60,"Velocity":31,"Duration":223448,"SoundDuration":223448,"Delta":20570022},{"NoteNumber":84,"Velocity":55,"Duration":51724,"SoundDuration":51724,"Delta":20621746},{"NoteNumber":86,"Velocity":61,"Duration":59999,"SoundDuration":59999,"Delta":20673471},{"NoteNumber":65,"Velocity":35,"Duration":120000,"SoundDuration":120000,"Delta":20673471},{"NoteNumber":84,"Velocity":51,"Duration":179999,"SoundDuration":179999,"Delta":20733470},{"NoteNumber":89,"Velocity":65,"Duration":119999,"SoundDuration":119999,"Delta":20793471},{"NoteNumber":53,"Velocity":28,"Duration":119999,"SoundDuration":119999,"Delta":20793471},{"NoteNumber":89,"Velocity":51,"Duration":222372,"SoundDuration":222372,"Delta":21042781},{"NoteNumber":98,"Velocity":75,"Duration":53149,"SoundDuration":53149,"Delta":21042781},{"NoteNumber":81,"Velocity":38,"Duration":106300,"SoundDuration":106300,"Delta":21042781},{"NoteNumber":72,"Velocity":31,"Duration":222372,"SoundDuration":222372,"Delta":21042781},{"NoteNumber":96,"Velocity":60,"Duration":53150,"SoundDuration":53150,"Delta":21095931},{"NoteNumber":98,"Velocity":66,"Duration":58036,"SoundDuration":58036,"Delta":21149081},{"NoteNumber":77,"Velocity":35,"Duration":116071,"SoundDuration":116071,"Delta":21149081},{"NoteNumber":96,"Velocity":58,"Duration":205819,"SoundDuration":205819,"Delta":21207117},{"NoteNumber":101,"Velocity":71,"Duration":147783,"SoundDuration":147783,"Delta":21265153},{"NoteNumber":65,"Velocity":30,"Duration":147783,"SoundDuration":147783,"Delta":21265153},{"NoteNumber":67,"Velocity":39,"Duration":210514,"SoundDuration":210514,"Delta":21560719},{"NoteNumber":74,"Velocity":58,"Duration":97049,"SoundDuration":97049,"Delta":21560719},{"NoteNumber":64,"Velocity":30,"Duration":97049,"SoundDuration":97049,"Delta":21560719},{"NoteNumber":55,"Velocity":25,"Duration":210514,"SoundDuration":210514,"Delta":21560719},{"NoteNumber":72,"Velocity":47,"Duration":347410,"SoundDuration":347410,"Delta":21657769},{"NoteNumber":60,"Velocity":31,"Duration":113464,"SoundDuration":113464,"Delta":21657769},{"NoteNumber":79,"Velocity":65,"Duration":233946,"SoundDuration":233946,"Delta":21771233},{"NoteNumber":48,"Velocity":31,"Duration":233946,"SoundDuration":233946,"Delta":21771233},{"NoteNumber":67,"Velocity":37,"Duration":207587,"SoundDuration":207587,"Delta":22005180},{"NoteNumber":74,"Velocity":56,"Duration":97049,"SoundDuration":97049,"Delta":22005180},{"NoteNumber":63,"Velocity":29,"Duration":97049,"SoundDuration":97049,"Delta":22005180},{"NoteNumber":55,"Velocity":24,"Duration":207587,"SoundDuration":207587,"Delta":22005180},{"NoteNumber":72,"Velocity":44,"Duration":336434,"SoundDuration":336434,"Delta":22102230},{"NoteNumber":60,"Velocity":30,"Duration":110537,"SoundDuration":110537,"Delta":22102230},{"NoteNumber":79,"Velocity":66,"Duration":225896,"SoundDuration":225896,"Delta":22212768},{"NoteNumber":48,"Velocity":30,"Duration":225896,"SoundDuration":225896,"Delta":22212768},{"NoteNumber":69,"Velocity":38,"Duration":205824,"SoundDuration":205824,"Delta":22438664},{"NoteNumber":74,"Velocity":58,"Duration":97049,"SoundDuration":97049,"Delta":22438664},{"NoteNumber":65,"Velocity":31,"Duration":97049,"SoundDuration":97049,"Delta":22438664},{"NoteNumber":60,"Velocity":25,"Duration":205824,"SoundDuration":205824,"Delta":22438664},{"NoteNumber":72,"Velocity":47,"Duration":333075,"SoundDuration":333075,"Delta":22535713},{"NoteNumber":63,"Velocity":32,"Duration":108774,"SoundDuration":108774,"Delta":22535713},{"NoteNumber":81,"Velocity":70,"Duration":224301,"SoundDuration":224301,"Delta":22644488},{"NoteNumber":53,"Velocity":31,"Duration":224301,"SoundDuration":224301,"Delta":22644488},{"NoteNumber":65,"Velocity":42,"Duration":208078,"SoundDuration":208078,"Delta":22868789},{"NoteNumber":72,"Velocity":61,"Duration":97377,"SoundDuration":97377,"Delta":22868789},{"NoteNumber":63,"Velocity":31,"Duration":97377,"SoundDuration":97377,"Delta":22868789},{"NoteNumber":53,"Velocity":26,"Duration":208078,"SoundDuration":208078,"Delta":22868789},{"NoteNumber":70,"Velocity":47,"Duration":336928,"SoundDuration":336928,"Delta":22966166},{"NoteNumber":58,"Velocity":32,"Duration":110700,"SoundDuration":110700,"Delta":22966166},{"NoteNumber":82,"Velocity":64,"Duration":226227,"SoundDuration":226227,"Delta":23076867},{"NoteNumber":46,"Velocity":31,"Duration":226227,"SoundDuration":226227,"Delta":23076867},{"NoteNumber":65,"Velocity":34,"Duration":208160,"SoundDuration":208160,"Delta":23303095},{"NoteNumber":72,"Velocity":52,"Duration":97049,"SoundDuration":97049,"Delta":23303095},{"NoteNumber":62,"Velocity":29,"Duration":97049,"SoundDuration":97049,"Delta":23303095},{"NoteNumber":53,"Velocity":23,"Duration":208160,"SoundDuration":208160,"Delta":23303095},{"NoteNumber":70,"Velocity":44,"Duration":337385,"SoundDuration":337385,"Delta":23400145},{"NoteNumber":58,"Velocity":30,"Duration":111111,"SoundDuration":111111,"Delta":23400145},{"NoteNumber":77,"Velocity":59,"Duration":226274,"SoundDuration":226274,"Delta":23511256},{"NoteNumber":46,"Velocity":29,"Duration":226274,"SoundDuration":226274,"Delta":23511256},{"NoteNumber":65,"Velocity":32,"Duration":209317,"SoundDuration":209317,"Delta":23737530},{"NoteNumber":72,"Velocity":50,"Duration":97377,"SoundDuration":97377,"Delta":23737530},{"NoteNumber":62,"Velocity":29,"Duration":97377,"SoundDuration":97377,"Delta":23737530},{"NoteNumber":53,"Velocity":24,"Duration":209317,"SoundDuration":209317,"Delta":23737530},{"NoteNumber":70,"Velocity":44,"Duration":336960,"SoundDuration":336960,"Delta":23834907},{"NoteNumber":58,"Velocity":30,"Duration":111940,"SoundDuration":111940,"Delta":23834907},{"NoteNumber":77,"Velocity":59,"Duration":225019,"SoundDuration":225019,"Delta":23946848},{"NoteNumber":46,"Velocity":29,"Duration":225019,"SoundDuration":225019,"Delta":23946848},{"NoteNumber":65,"Velocity":38,"Duration":208665,"SoundDuration":208665,"Delta":24171867},{"NoteNumber":72,"Velocity":56,"Duration":97049,"SoundDuration":97049,"Delta":24171867},{"NoteNumber":61,"Velocity":30,"Duration":97049,"SoundDuration":97049,"Delta":24171867},{"NoteNumber":53,"Velocity":24,"Duration":208665,"SoundDuration":208665,"Delta":24171867},{"NoteNumber":70,"Velocity":47,"Duration":343712,"SoundDuration":343712,"Delta":24268917},{"NoteNumber":58,"Velocity":31,"Duration":111615,"SoundDuration":111615,"Delta":24268917},{"NoteNumber":77,"Velocity":65,"Duration":232097,"SoundDuration":232097,"Delta":24380533},{"NoteNumber":46,"Velocity":31,"Duration":232097,"SoundDuration":232097,"Delta":24380533},{"NoteNumber":65,"Velocity":37,"Duration":206666,"SoundDuration":206666,"Delta":24612630},{"NoteNumber":72,"Velocity":56,"Duration":97049,"SoundDuration":97049,"Delta":24612630},{"NoteNumber":61,"Velocity":29,"Duration":97049,"SoundDuration":97049,"Delta":24612630},{"NoteNumber":53,"Velocity":24,"Duration":206666,"SoundDuration":206666,"Delta":24612630},{"NoteNumber":70,"Velocity":44,"Duration":334592,"SoundDuration":334592,"Delta":24709680},{"NoteNumber":58,"Velocity":30,"Duration":109617,"SoundDuration":109617,"Delta":24709680},{"NoteNumber":77,"Velocity":66,"Duration":224975,"SoundDuration":224975,"Delta":24819297},{"NoteNumber":46,"Velocity":30,"Duration":224975,"SoundDuration":224975,"Delta":24819297},{"NoteNumber":67,"Velocity":38,"Duration":205824,"SoundDuration":205824,"Delta":25044272},{"NoteNumber":72,"Velocity":58,"Duration":97049,"SoundDuration":97049,"Delta":25044272},{"NoteNumber":61,"Velocity":31,"Duration":97049,"SoundDuration":97049,"Delta":25044272},{"NoteNumber":51,"Velocity":25,"Duration":205824,"SoundDuration":205824,"Delta":25044272},{"NoteNumber":70,"Velocity":47,"Duration":333075,"SoundDuration":333075,"Delta":25141322},{"NoteNumber":58,"Velocity":32,"Duration":108774,"SoundDuration":108774,"Delta":25141322},{"NoteNumber":79,"Velocity":70,"Duration":224301,"SoundDuration":224301,"Delta":25250096},{"NoteNumber":39,"Velocity":31,"Duration":224301,"SoundDuration":224301,"Delta":25250096},{"NoteNumber":63,"Velocity":42,"Duration":208078,"SoundDuration":208078,"Delta":25474397},{"NoteNumber":70,"Velocity":61,"Duration":97377,"SoundDuration":97377,"Delta":25474397},{"NoteNumber":61,"Velocity":31,"Duration":97377,"SoundDuration":97377,"Delta":25474397},{"NoteNumber":51,"Velocity":26,"Duration":208078,"SoundDuration":208078,"Delta":25474397},{"NoteNumber":68,"Velocity":47,"Duration":336928,"SoundDuration":336928,"Delta":25571775},{"NoteNumber":56,"Velocity":32,"Duration":110700,"SoundDuration":110700,"Delta":25571775},{"NoteNumber":80,"Velocity":64,"Duration":226227,"SoundDuration":226227,"Delta":25682476},{"NoteNumber":44,"Velocity":31,"Duration":226227,"SoundDuration":226227,"Delta":25682476},{"NoteNumber":63,"Velocity":34,"Duration":208573,"SoundDuration":208573,"Delta":25908704},{"NoteNumber":70,"Velocity":52,"Duration":97049,"SoundDuration":97049,"Delta":25908704},{"NoteNumber":60,"Velocity":29,"Duration":97049,"SoundDuration":97049,"Delta":25908704},{"NoteNumber":51,"Velocity":23,"Duration":208573,"SoundDuration":208573,"Delta":25908704},{"NoteNumber":68,"Velocity":44,"Duration":338211,"SoundDuration":338211,"Delta":26005753},{"NoteNumber":56,"Velocity":30,"Duration":111524,"SoundDuration":111524,"Delta":26005753},{"NoteNumber":75,"Velocity":59,"Duration":226687,"SoundDuration":226687,"Delta":26117278},{"NoteNumber":44,"Velocity":29,"Duration":226687,"SoundDuration":226687,"Delta":26117278},{"NoteNumber":63,"Velocity":32,"Duration":209317,"SoundDuration":209317,"Delta":26343965},{"NoteNumber":70,"Velocity":50,"Duration":97377,"SoundDuration":97377,"Delta":26343965},{"NoteNumber":60,"Velocity":29,"Duration":97377,"SoundDuration":97377,"Delta":26343965},{"NoteNumber":51,"Velocity":24,"Duration":209317,"SoundDuration":209317,"Delta":26343965},{"NoteNumber":68,"Velocity":44,"Duration":336960,"SoundDuration":336960,"Delta":26441342},{"NoteNumber":56,"Velocity":30,"Duration":111940,"SoundDuration":111940,"Delta":26441342},{"NoteNumber":75,"Velocity":59,"Duration":225019,"SoundDuration":225019,"Delta":26553283},{"NoteNumber":44,"Velocity":29,"Duration":225019,"SoundDuration":225019,"Delta":26553283},{"NoteNumber":63,"Velocity":38,"Duration":208665,"SoundDuration":208665,"Delta":26778302},{"NoteNumber":70,"Velocity":56,"Duration":97049,"SoundDuration":97049,"Delta":26778302},{"NoteNumber":60,"Velocity":30,"Duration":97049,"SoundDuration":97049,"Delta":26778302},{"NoteNumber":51,"Velocity":24,"Duration":208665,"SoundDuration":208665,"Delta":26778302},{"NoteNumber":68,"Velocity":47,"Duration":343712,"SoundDuration":343712,"Delta":26875352},{"NoteNumber":56,"Velocity":31,"Duration":111615,"SoundDuration":111615,"Delta":26875352},{"NoteNumber":75,"Velocity":65,"Duration":232097,"SoundDuration":232097,"Delta":26986968},{"NoteNumber":43,"Velocity":31,"Duration":232097,"SoundDuration":232097,"Delta":26986968},{"NoteNumber":63,"Velocity":37,"Duration":206666,"SoundDuration":206666,"Delta":27219065},{"NoteNumber":70,"Velocity":56,"Duration":97049,"SoundDuration":97049,"Delta":27219065},{"NoteNumber":60,"Velocity":29,"Duration":97049,"SoundDuration":97049,"Delta":27219065},{"NoteNumber":51,"Velocity":24,"Duration":206666,"SoundDuration":206666,"Delta":27219065},{"NoteNumber":68,"Velocity":44,"Duration":334592,"SoundDuration":334592,"Delta":27316115},{"NoteNumber":56,"Velocity":30,"Duration":109617,"SoundDuration":109617,"Delta":27316115},{"NoteNumber":75,"Velocity":66,"Duration":224975,"SoundDuration":224975,"Delta":27425732},{"NoteNumber":43,"Velocity":30,"Duration":224975,"SoundDuration":224975,"Delta":27425732},{"NoteNumber":63,"Velocity":40,"Duration":209409,"SoundDuration":209409,"Delta":27650707},{"NoteNumber":70,"Velocity":59,"Duration":97049,"SoundDuration":97049,"Delta":27650707},{"NoteNumber":60,"Velocity":31,"Duration":97049,"SoundDuration":97049,"Delta":27650707},{"NoteNumber":51,"Velocity":25,"Duration":209409,"SoundDuration":209409,"Delta":27650707},{"NoteNumber":68,"Velocity":47,"Duration":340245,"SoundDuration":340245,"Delta":27747757},{"NoteNumber":56,"Velocity":32,"Duration":112359,"SoundDuration":112359,"Delta":27747757},{"NoteNumber":77,"Velocity":68,"Duration":227886,"SoundDuration":227886,"Delta":27860116},{"NoteNumber":43,"Velocity":31,"Duration":227886,"SoundDuration":227886,"Delta":27860116},{"NoteNumber":63,"Velocity":33,"Duration":211881,"SoundDuration":211881,"Delta":28088002},{"NoteNumber":68,"Velocity":58,"Duration":97377,"SoundDuration":97377,"Delta":28088002},{"NoteNumber":60,"Velocity":27,"Duration":97377,"SoundDuration":97377,"Delta":28088002},{"NoteNumber":50,"Velocity":23,"Duration":211881,"SoundDuration":211881,"Delta":28088002},{"NoteNumber":67,"Velocity":46,"Duration":348529,"SoundDuration":348529,"Delta":28185380},{"NoteNumber":55,"Velocity":31,"Duration":114503,"SoundDuration":114503,"Delta":28185380},{"NoteNumber":75,"Velocity":61,"Duration":234025,"SoundDuration":234025,"Delta":28299883},{"NoteNumber":43,"Velocity":30,"Duration":234025,"SoundDuration":234025,"Delta":28299883},{"NoteNumber":62,"Velocity":30,"Duration":210257,"SoundDuration":210257,"Delta":28533909},{"NoteNumber":68,"Velocity":52,"Duration":97049,"SoundDuration":97049,"Delta":28533909},{"NoteNumber":59,"Velocity":29,"Duration":97049,"SoundDuration":97049,"Delta":28533909},{"NoteNumber":50,"Velocity":23,"Duration":210257,"SoundDuration":210257,"Delta":28533909},{"NoteNumber":67,"Velocity":44,"Duration":341578,"SoundDuration":341578,"Delta":28630959},{"NoteNumber":55,"Velocity":30,"Duration":113207,"SoundDuration":113207,"Delta":28630959},{"NoteNumber":74,"Velocity":59,"Duration":228370,"SoundDuration":228370,"Delta":28744166},{"NoteNumber":43,"Velocity":29,"Duration":228370,"SoundDuration":228370,"Delta":28744166},{"NoteNumber":62,"Velocity":27,"Duration":211445,"SoundDuration":211445,"Delta":28972537},{"NoteNumber":68,"Velocity":50,"Duration":97377,"SoundDuration":97377,"Delta":28972537},{"NoteNumber":59,"Velocity":29,"Duration":97377,"SoundDuration":97377,"Delta":28972537},{"NoteNumber":50,"Velocity":24,"Duration":211445,"SoundDuration":211445,"Delta":28972537},{"NoteNumber":67,"Velocity":44,"Duration":347659,"SoundDuration":347659,"Delta":29069914},{"NoteNumber":55,"Velocity":30,"Duration":114068,"SoundDuration":114068,"Delta":29069914},{"NoteNumber":74,"Velocity":59,"Duration":233590,"SoundDuration":233590,"Delta":29183983},{"NoteNumber":43,"Velocity":29,"Duration":233590,"SoundDuration":233590,"Delta":29183983},{"NoteNumber":63,"Velocity":28,"Duration":208665,"SoundDuration":208665,"Delta":29417573},{"NoteNumber":70,"Velocity":48,"Duration":97049,"SoundDuration":97049,"Delta":29417573},{"NoteNumber":60,"Velocity":25,"Duration":97049,"SoundDuration":97049,"Delta":29417573},{"NoteNumber":51,"Velocity":18,"Duration":208665,"SoundDuration":208665,"Delta":29417573},{"NoteNumber":68,"Velocity":38,"Duration":343712,"SoundDuration":343712,"Delta":29514623},{"NoteNumber":56,"Velocity":26,"Duration":111615,"SoundDuration":111615,"Delta":29514623},{"NoteNumber":75,"Velocity":55,"Duration":232097,"SoundDuration":232097,"Delta":29626239},{"NoteNumber":43,"Velocity":26,"Duration":232097,"SoundDuration":232097,"Delta":29626239},{"NoteNumber":75,"Velocity":34,"Duration":206666,"SoundDuration":206666,"Delta":29858336},{"NoteNumber":82,"Velocity":52,"Duration":97049,"SoundDuration":97049,"Delta":29858336},{"NoteNumber":72,"Velocity":28,"Duration":97049,"SoundDuration":97049,"Delta":29858336},{"NoteNumber":63,"Velocity":22,"Duration":206666,"SoundDuration":206666,"Delta":29858336},{"NoteNumber":80,"Velocity":42,"Duration":334592,"SoundDuration":334592,"Delta":29955386},{"NoteNumber":68,"Velocity":29,"Duration":109617,"SoundDuration":109617,"Delta":29955386},{"NoteNumber":87,"Velocity":64,"Duration":224975,"SoundDuration":224975,"Delta":30065003},{"NoteNumber":55,"Velocity":28,"Duration":224975,"SoundDuration":224975,"Delta":30065003},{"NoteNumber":75,"Velocity":38,"Duration":209409,"SoundDuration":209409,"Delta":30289978},{"NoteNumber":82,"Velocity":58,"Duration":97049,"SoundDuration":97049,"Delta":30289978},{"NoteNumber":72,"Velocity":29,"Duration":97049,"SoundDuration":97049,"Delta":30289978},{"NoteNumber":63,"Velocity":23,"Duration":209409,"SoundDuration":209409,"Delta":30289978},{"NoteNumber":80,"Velocity":45,"Duration":340245,"SoundDuration":340245,"Delta":30387028},{"NoteNumber":68,"Velocity":30,"Duration":112359,"SoundDuration":112359,"Delta":30387028},{"NoteNumber":89,"Velocity":66,"Duration":227886,"SoundDuration":227886,"Delta":30499387},{"NoteNumber":55,"Velocity":29,"Duration":227886,"SoundDuration":227886,"Delta":30499387},{"NoteNumber":75,"Velocity":37,"Duration":208488,"SoundDuration":208488,"Delta":30727273},{"NoteNumber":80,"Velocity":56,"Duration":97377,"SoundDuration":97377,"Delta":30727273},{"NoteNumber":72,"Velocity":28,"Duration":97377,"SoundDuration":97377,"Delta":30727273},{"NoteNumber":62,"Velocity":23,"Duration":208488,"SoundDuration":208488,"Delta":30727273},{"NoteNumber":79,"Velocity":44,"Duration":337748,"SoundDuration":337748,"Delta":30824651},{"NoteNumber":67,"Velocity":29,"Duration":111111,"SoundDuration":111111,"Delta":30824651},{"NoteNumber":87,"Velocity":58,"Duration":226637,"SoundDuration":226637,"Delta":30935762},{"NoteNumber":55,"Velocity":28,"Duration":226637,"SoundDuration":226637,"Delta":30935762},{"NoteNumber":74,"Velocity":33,"Duration":212701,"SoundDuration":212701,"Delta":31162399},{"NoteNumber":80,"Velocity":50,"Duration":97049,"SoundDuration":97049,"Delta":31162399},{"NoteNumber":71,"Velocity":28,"Duration":97049,"SoundDuration":97049,"Delta":31162399},{"NoteNumber":62,"Velocity":21,"Duration":212701,"SoundDuration":212701,"Delta":31162399},{"NoteNumber":79,"Velocity":42,"Duration":346466,"SoundDuration":346466,"Delta":31259449},{"NoteNumber":67,"Velocity":29,"Duration":115651,"SoundDuration":115651,"Delta":31259449},{"NoteNumber":86,"Velocity":57,"Duration":230814,"SoundDuration":230814,"Delta":31375100},{"NoteNumber":55,"Velocity":27,"Duration":230814,"SoundDuration":230814,"Delta":31375100},{"NoteNumber":74,"Velocity":29,"Duration":214382,"SoundDuration":214382,"Delta":31605915},{"NoteNumber":80,"Velocity":49,"Duration":97377,"SoundDuration":97377,"Delta":31605915},{"NoteNumber":71,"Velocity":28,"Duration":97377,"SoundDuration":97377,"Delta":31605915},{"NoteNumber":62,"Velocity":22,"Duration":214382,"SoundDuration":214382,"Delta":31605915},{"NoteNumber":79,"Velocity":42,"Duration":347088,"SoundDuration":347088,"Delta":31703292},{"NoteNumber":67,"Velocity":29,"Duration":117004,"SoundDuration":117004,"Delta":31703292},{"NoteNumber":86,"Velocity":57,"Duration":230084,"SoundDuration":230084,"Delta":31820297},{"NoteNumber":55,"Velocity":27,"Duration":230084,"SoundDuration":230084,"Delta":31820297},{"NoteNumber":74,"Velocity":34,"Duration":208665,"SoundDuration":208665,"Delta":32050381},{"NoteNumber":79,"Velocity":50,"Duration":97049,"SoundDuration":97049,"Delta":32050381},{"NoteNumber":71,"Velocity":27,"Duration":97049,"SoundDuration":97049,"Delta":32050381},{"NoteNumber":62,"Velocity":19,"Duration":208665,"SoundDuration":208665,"Delta":32050381},{"NoteNumber":78,"Velocity":42,"Duration":343713,"SoundDuration":343713,"Delta":32147431},{"NoteNumber":66,"Velocity":28,"Duration":111615,"SoundDuration":111615,"Delta":32147431},{"NoteNumber":86,"Velocity":59,"Duration":232097,"SoundDuration":232097,"Delta":32259047},{"NoteNumber":54,"Velocity":27,"Duration":232097,"SoundDuration":232097,"Delta":32259047},{"NoteNumber":62,"Velocity":30,"Duration":206666,"SoundDuration":206666,"Delta":32491144},{"NoteNumber":67,"Velocity":47,"Duration":97049,"SoundDuration":97049,"Delta":32491144},{"NoteNumber":59,"Velocity":25,"Duration":97049,"SoundDuration":97049,"Delta":32491144},{"NoteNumber":50,"Velocity":18,"Duration":206666,"SoundDuration":206666,"Delta":32491144},{"NoteNumber":66,"Velocity":36,"Duration":334592,"SoundDuration":334592,"Delta":32588194},{"NoteNumber":54,"Velocity":26,"Duration":109617,"SoundDuration":109617,"Delta":32588194},{"NoteNumber":74,"Velocity":57,"Duration":224975,"SoundDuration":224975,"Delta":32697811},{"NoteNumber":42,"Velocity":25,"Duration":224975,"SoundDuration":224975,"Delta":32697811},{"NoteNumber":64,"Velocity":33,"Duration":205824,"SoundDuration":205824,"Delta":32922786},{"NoteNumber":67,"Velocity":51,"Duration":97049,"SoundDuration":97049,"Delta":32922786},{"NoteNumber":61,"Velocity":26,"Duration":97049,"SoundDuration":97049,"Delta":32922786},{"NoteNumber":50,"Velocity":19,"Duration":205824,"SoundDuration":205824,"Delta":32922786},{"NoteNumber":66,"Velocity":38,"Duration":333075,"SoundDuration":333075,"Delta":33019836},{"NoteNumber":54,"Velocity":27,"Duration":108774,"SoundDuration":108774,"Delta":33019836},{"NoteNumber":76,"Velocity":59,"Duration":224301,"SoundDuration":224301,"Delta":33128610},{"NoteNumber":42,"Velocity":26,"Duration":224301,"SoundDuration":224301,"Delta":33128610},{"NoteNumber":62,"Velocity":33,"Duration":208488,"SoundDuration":208488,"Delta":33352911},{"NoteNumber":67,"Velocity":50,"Duration":97377,"SoundDuration":97377,"Delta":33352911},{"NoteNumber":59,"Velocity":25,"Duration":97377,"SoundDuration":97377,"Delta":33352911},{"NoteNumber":49,"Velocity":19,"Duration":208488,"SoundDuration":208488,"Delta":33352911},{"NoteNumber":66,"Velocity":37,"Duration":337748,"SoundDuration":337748,"Delta":33450289},{"NoteNumber":54,"Velocity":26,"Duration":111111,"SoundDuration":111111,"Delta":33450289},{"NoteNumber":74,"Velocity":51,"Duration":226637,"SoundDuration":226637,"Delta":33561400},{"NoteNumber":42,"Velocity":25,"Duration":226637,"SoundDuration":226637,"Delta":33561400},{"NoteNumber":61,"Velocity":29,"Duration":208573,"SoundDuration":208573,"Delta":33788037},{"NoteNumber":67,"Velocity":46,"Duration":97049,"SoundDuration":97049,"Delta":33788037},{"NoteNumber":58,"Velocity":25,"Duration":97049,"SoundDuration":97049,"Delta":33788037},{"NoteNumber":49,"Velocity":18,"Duration":208573,"SoundDuration":208573,"Delta":33788037},{"NoteNumber":66,"Velocity":36,"Duration":338211,"SoundDuration":338211,"Delta":33885087},{"NoteNumber":54,"Velocity":26,"Duration":111524,"SoundDuration":111524,"Delta":33885087},{"NoteNumber":73,"Velocity":51,"Duration":226687,"SoundDuration":226687,"Delta":33996611},{"NoteNumber":42,"Velocity":24,"Duration":226687,"SoundDuration":226687,"Delta":33996611},{"NoteNumber":61,"Velocity":27,"Duration":209317,"SoundDuration":209317,"Delta":34223299},{"NoteNumber":67,"Velocity":43,"Duration":97377,"SoundDuration":97377,"Delta":34223299},{"NoteNumber":58,"Velocity":25,"Duration":97377,"SoundDuration":97377,"Delta":34223299},{"NoteNumber":49,"Velocity":18,"Duration":209317,"SoundDuration":209317,"Delta":34223299},{"NoteNumber":66,"Velocity":36,"Duration":344082,"SoundDuration":344082,"Delta":34320676},{"NoteNumber":54,"Velocity":26,"Duration":111940,"SoundDuration":111940,"Delta":34320676},{"NoteNumber":73,"Velocity":51,"Duration":232142,"SoundDuration":232142,"Delta":34432616},{"NoteNumber":42,"Velocity":24,"Duration":232142,"SoundDuration":232142,"Delta":34432616},{"NoteNumber":59,"Velocity":37,"Duration":210299,"SoundDuration":210299,"Delta":34664759},{"NoteNumber":67,"Velocity":56,"Duration":98684,"SoundDuration":98684,"Delta":34664759},{"NoteNumber":55,"Velocity":29,"Duration":98684,"SoundDuration":98684,"Delta":34664759},{"NoteNumber":50,"Velocity":23,"Duration":210299,"SoundDuration":210299,"Delta":34664759},{"NoteNumber":66,"Velocity":47,"Duration":343713,"SoundDuration":343713,"Delta":34763443},{"NoteNumber":54,"Velocity":30,"Duration":111615,"SoundDuration":111615,"Delta":34763443},{"NoteNumber":71,"Velocity":65,"Duration":232097,"SoundDuration":232097,"Delta":34875058},{"NoteNumber":42,"Velocity":30,"Duration":232097,"SoundDuration":232097,"Delta":34875058},{"NoteNumber":59,"Velocity":36,"Duration":212191,"SoundDuration":212191,"Delta":35107156},{"NoteNumber":67,"Velocity":56,"Duration":100000,"SoundDuration":100000,"Delta":35107156},{"NoteNumber":55,"Velocity":29,"Duration":100000,"SoundDuration":100000,"Delta":35107156},{"NoteNumber":50,"Velocity":23,"Duration":212191,"SoundDuration":212191,"Delta":35107156},{"NoteNumber":66,"Velocity":44,"Duration":339741,"SoundDuration":339741,"Delta":35207156},{"NoteNumber":54,"Velocity":31,"Duration":112191,"SoundDuration":112191,"Delta":35207156},{"NoteNumber":71,"Velocity":67,"Duration":227549,"SoundDuration":227549,"Delta":35319347},{"NoteNumber":42,"Velocity":29,"Duration":227549,"SoundDuration":227549,"Delta":35319347},{"NoteNumber":61,"Velocity":38,"Duration":220889,"SoundDuration":220889,"Delta":35546897},{"NoteNumber":67,"Velocity":60,"Duration":104529,"SoundDuration":104529,"Delta":35546897},{"NoteNumber":55,"Velocity":31,"Duration":104529,"SoundDuration":104529,"Delta":35546897},{"NoteNumber":52,"Velocity":25,"Duration":220889,"SoundDuration":220889,"Delta":35546897},{"NoteNumber":66,"Velocity":47,"Duration":354549,"SoundDuration":354549,"Delta":35651426},{"NoteNumber":54,"Velocity":32,"Duration":116360,"SoundDuration":116360,"Delta":35651426},{"NoteNumber":73,"Velocity":72,"Duration":238188,"SoundDuration":238188,"Delta":35767787},{"NoteNumber":42,"Velocity":31,"Duration":238188,"SoundDuration":238188,"Delta":35767787},{"NoteNumber":59,"Velocity":40,"Duration":228895,"SoundDuration":228895,"Delta":36005976},{"NoteNumber":67,"Velocity":61,"Duration":107142,"SoundDuration":107142,"Delta":36005976},{"NoteNumber":55,"Velocity":31,"Duration":107142,"SoundDuration":107142,"Delta":36005976},{"NoteNumber":50,"Velocity":25,"Duration":228895,"SoundDuration":228895,"Delta":36005976},{"NoteNumber":66,"Velocity":47,"Duration":368506,"SoundDuration":368506,"Delta":36113118},{"NoteNumber":54,"Velocity":32,"Duration":121753,"SoundDuration":121753,"Delta":36113118},{"NoteNumber":71,"Velocity":63,"Duration":246753,"SoundDuration":246753,"Delta":36234872},{"NoteNumber":42,"Velocity":29,"Duration":246753,"SoundDuration":246753,"Delta":36234872},{"NoteNumber":58,"Velocity":35,"Duration":244130,"SoundDuration":244130,"Delta":36481625},{"NoteNumber":67,"Velocity":54,"Duration":112782,"SoundDuration":112782,"Delta":36481625},{"NoteNumber":55,"Velocity":29,"Duration":112782,"SoundDuration":112782,"Delta":36481625},{"NoteNumber":49,"Velocity":22,"Duration":244130,"SoundDuration":244130,"Delta":36481625},{"NoteNumber":66,"Velocity":44,"Duration":396625,"SoundDuration":396625,"Delta":36594407},{"NoteNumber":54,"Velocity":30,"Duration":131348,"SoundDuration":131348,"Delta":36594407},{"NoteNumber":70,"Velocity":59,"Duration":265277,"SoundDuration":265277,"Delta":36725755},{"NoteNumber":42,"Velocity":28,"Duration":265277,"SoundDuration":265277,"Delta":36725755},{"NoteNumber":58,"Velocity":31,"Duration":256463,"SoundDuration":256463,"Delta":36991032},{"NoteNumber":68,"Velocity":50,"Duration":117187,"SoundDuration":117187,"Delta":36991032},{"NoteNumber":54,"Velocity":29,"Duration":117187,"SoundDuration":117187,"Delta":36991032},{"NoteNumber":49,"Velocity":23,"Duration":256463,"SoundDuration":256463,"Delta":36991032},{"NoteNumber":66,"Velocity":43,"Duration":422782,"SoundDuration":422782,"Delta":37108220},{"NoteNumber":52,"Velocity":30,"Duration":139275,"SoundDuration":139275,"Delta":37108220},{"NoteNumber":70,"Velocity":59,"Duration":283506,"SoundDuration":283506,"Delta":37247496},{"NoteNumber":42,"Velocity":27,"Duration":283506,"SoundDuration":283506,"Delta":37247496},{"NoteNumber":59,"Velocity":48,"Duration":208665,"SoundDuration":208665,"Delta":37531002},{"NoteNumber":68,"Velocity":72,"Duration":97049,"SoundDuration":97049,"Delta":37531002},{"NoteNumber":51,"Velocity":42,"Duration":97049,"SoundDuration":97049,"Delta":37531002},{"NoteNumber":66,"Velocity":57,"Duration":343713,"SoundDuration":343713,"Delta":37628052},{"NoteNumber":42,"Velocity":38,"Duration":111615,"SoundDuration":111615,"Delta":37628052},{"NoteNumber":71,"Velocity":78,"Duration":232097,"SoundDuration":232097,"Delta":37739667},{"NoteNumber":35,"Velocity":34,"Duration":232097,"SoundDuration":232097,"Delta":37739667},{"NoteNumber":54,"Velocity":45,"Duration":206666,"SoundDuration":206666,"Delta":37971765},{"NoteNumber":61,"Velocity":66,"Duration":97049,"SoundDuration":97049,"Delta":37971765},{"NoteNumber":51,"Velocity":39,"Duration":97049,"SoundDuration":97049,"Delta":37971765},{"NoteNumber":59,"Velocity":51,"Duration":334592,"SoundDuration":334592,"Delta":38068815},{"NoteNumber":42,"Velocity":36,"Duration":109617,"SoundDuration":109617,"Delta":38068815},{"NoteNumber":66,"Velocity":74,"Duration":224975,"SoundDuration":224975,"Delta":38178432},{"NoteNumber":35,"Velocity":31,"Duration":224975,"SoundDuration":224975,"Delta":38178432},{"NoteNumber":59,"Velocity":46,"Duration":205824,"SoundDuration":205824,"Delta":38403407},{"NoteNumber":68,"Velocity":67,"Duration":97049,"SoundDuration":97049,"Delta":38403407},{"NoteNumber":51,"Velocity":39,"Duration":97049,"SoundDuration":97049,"Delta":38403407},{"NoteNumber":66,"Velocity":53,"Duration":333075,"SoundDuration":333075,"Delta":38500456},{"NoteNumber":42,"Velocity":36,"Duration":108774,"SoundDuration":108774,"Delta":38500456},{"NoteNumber":71,"Velocity":78,"Duration":224301,"SoundDuration":224301,"Delta":38609231},{"NoteNumber":35,"Velocity":30,"Duration":224301,"SoundDuration":224301,"Delta":38609231},{"NoteNumber":61,"Velocity":48,"Duration":206151,"SoundDuration":206151,"Delta":38833532},{"NoteNumber":68,"Velocity":72,"Duration":97377,"SoundDuration":97377,"Delta":38833532},{"NoteNumber":52,"Velocity":42,"Duration":97377,"SoundDuration":97377,"Delta":38833532},{"NoteNumber":66,"Velocity":55,"Duration":333075,"SoundDuration":333075,"Delta":38930909},{"NoteNumber":42,"Velocity":38,"Duration":108774,"SoundDuration":108774,"Delta":38930909},{"NoteNumber":73,"Velocity":81,"Duration":224301,"SoundDuration":224301,"Delta":39039684},{"NoteNumber":35,"Velocity":32,"Duration":224301,"SoundDuration":224301,"Delta":39039684},{"NoteNumber":54,"Velocity":47,"Duration":205415,"SoundDuration":205415,"Delta":39263985},{"NoteNumber":63,"Velocity":66,"Duration":97049,"SoundDuration":97049,"Delta":39263985},{"NoteNumber":52,"Velocity":40,"Duration":97049,"SoundDuration":97049,"Delta":39263985},{"NoteNumber":61,"Velocity":53,"Duration":331894,"SoundDuration":331894,"Delta":39361035},{"NoteNumber":42,"Velocity":37,"Duration":108365,"SoundDuration":108365,"Delta":39361035},{"NoteNumber":66,"Velocity":75,"Duration":223529,"SoundDuration":223529,"Delta":39469401},{"NoteNumber":35,"Velocity":31,"Duration":223529,"SoundDuration":223529,"Delta":39469401},{"NoteNumber":61,"Velocity":46,"Duration":205329,"SoundDuration":205329,"Delta":39692930},{"NoteNumber":68,"Velocity":67,"Duration":97377,"SoundDuration":97377,"Delta":39692930},{"NoteNumber":52,"Velocity":39,"Duration":97377,"SoundDuration":97377,"Delta":39692930},{"NoteNumber":66,"Velocity":57,"Duration":328984,"SoundDuration":328984,"Delta":39790307},{"NoteNumber":42,"Velocity":36,"Duration":107952,"SoundDuration":107952,"Delta":39790307},{"NoteNumber":73,"Velocity":76,"Duration":221031,"SoundDuration":221031,"Delta":39898259},{"NoteNumber":35,"Velocity":30,"Duration":221031,"SoundDuration":221031,"Delta":39898259},{"NoteNumber":63,"Velocity":51,"Duration":205002,"SoundDuration":205002,"Delta":40119291},{"NoteNumber":68,"Velocity":75,"Duration":97049,"SoundDuration":97049,"Delta":40119291},{"NoteNumber":51,"Velocity":43,"Duration":97049,"SoundDuration":97049,"Delta":40119291},{"NoteNumber":66,"Velocity":58,"Duration":328984,"SoundDuration":328984,"Delta":40216341},{"NoteNumber":42,"Velocity":39,"Duration":107952,"SoundDuration":107952,"Delta":40216341},{"NoteNumber":75,"Velocity":78,"Duration":221031,"SoundDuration":221031,"Delta":40324294},{"NoteNumber":35,"Velocity":35,"Duration":221031,"SoundDuration":221031,"Delta":40324294},{"NoteNumber":59,"Velocity":47,"Duration":205498,"SoundDuration":205498,"Delta":40545326},{"NoteNumber":68,"Velocity":69,"Duration":96724,"SoundDuration":96724,"Delta":40545326},{"NoteNumber":51,"Velocity":40,"Duration":96724,"SoundDuration":96724,"Delta":40545326},{"NoteNumber":66,"Velocity":53,"Duration":333075,"SoundDuration":333075,"Delta":40642050},{"NoteNumber":42,"Velocity":37,"Duration":108774,"SoundDuration":108774,"Delta":40642050},{"NoteNumber":71,"Velocity":76,"Duration":224301,"SoundDuration":224301,"Delta":40750824},{"NoteNumber":35,"Velocity":31,"Duration":224301,"SoundDuration":224301,"Delta":40750824},{"NoteNumber":68,"Velocity":48,"Duration":206243,"SoundDuration":206243,"Delta":40975126},{"NoteNumber":75,"Velocity":70,"Duration":97049,"SoundDuration":97049,"Delta":40975126},{"NoteNumber":53,"Velocity":40,"Duration":97049,"SoundDuration":97049,"Delta":40975126},{"NoteNumber":73,"Velocity":59,"Duration":335676,"SoundDuration":335676,"Delta":41072175},{"NoteNumber":47,"Velocity":37,"Duration":109194,"SoundDuration":109194,"Delta":41072175},{"NoteNumber":80,"Velocity":76,"Duration":226482,"SoundDuration":226482,"Delta":41181370},{"NoteNumber":37,"Velocity":32,"Duration":226482,"SoundDuration":226482,"Delta":41181370},{"NoteNumber":61,"Velocity":51,"Duration":206243,"SoundDuration":206243,"Delta":41407852},{"NoteNumber":68,"Velocity":75,"Duration":97049,"SoundDuration":97049,"Delta":41407852},{"NoteNumber":58,"Velocity":44,"Duration":97049,"SoundDuration":97049,"Delta":41407852},{"NoteNumber":49,"Velocity":36,"Duration":206243,"SoundDuration":206243,"Delta":41407852},{"NoteNumber":66,"Velocity":63,"Duration":333551,"SoundDuration":333551,"Delta":41504902},{"NoteNumber":52,"Velocity":40,"Duration":109194,"SoundDuration":109194,"Delta":41504902},{"NoteNumber":73,"Velocity":81,"Duration":224357,"SoundDuration":224357,"Delta":41614096},{"NoteNumber":42,"Velocity":35,"Duration":224357,"SoundDuration":224357,"Delta":41614096},{"NoteNumber":66,"Velocity":49,"Duration":208501,"SoundDuration":208501,"Delta":41838454},{"NoteNumber":75,"Velocity":70,"Duration":98045,"SoundDuration":98045,"Delta":41838454},{"NoteNumber":64,"Velocity":42,"Duration":98045,"SoundDuration":98045,"Delta":41838454},{"NoteNumber":54,"Velocity":34,"Duration":208501,"SoundDuration":208501,"Delta":41838454},{"NoteNumber":73,"Velocity":55,"Duration":337210,"SoundDuration":337210,"Delta":41936499},{"NoteNumber":58,"Velocity":38,"Duration":110456,"SoundDuration":110456,"Delta":41936499},{"NoteNumber":78,"Velocity":76,"Duration":226753,"SoundDuration":226753,"Delta":42046956},{"NoteNumber":49,"Velocity":30,"Duration":226753,"SoundDuration":226753,"Delta":42046956},{"NoteNumber":78,"Velocity":49,"Duration":222372,"SoundDuration":222372,"Delta":42273709},{"NoteNumber":87,"Velocity":74,"Duration":106299,"SoundDuration":106299,"Delta":42273709},{"NoteNumber":70,"Velocity":42,"Duration":106299,"SoundDuration":106299,"Delta":42273709},{"NoteNumber":61,"Velocity":34,"Duration":222372,"SoundDuration":222372,"Delta":42273709},{"NoteNumber":85,"Velocity":58,"Duration":395193,"SoundDuration":395193,"Delta":42380009},{"NoteNumber":64,"Velocity":38,"Duration":116072,"SoundDuration":116072,"Delta":42380009},{"NoteNumber":90,"Velocity":82,"Duration":244231,"SoundDuration":244231,"Delta":42496081},{"NoteNumber":54,"Velocity":32,"Duration":244231,"SoundDuration":244231,"Delta":42496081},{"NoteNumber":59,"Velocity":48,"Duration":208665,"SoundDuration":208665,"Delta":42775203},{"NoteNumber":68,"Velocity":72,"Duration":97049,"SoundDuration":97049,"Delta":42775203},{"NoteNumber":51,"Velocity":42,"Duration":97049,"SoundDuration":97049,"Delta":42775203},{"NoteNumber":66,"Velocity":57,"Duration":343713,"SoundDuration":343713,"Delta":42872252},{"NoteNumber":42,"Velocity":38,"Duration":111615,"SoundDuration":111615,"Delta":42872252},{"NoteNumber":71,"Velocity":78,"Duration":232097,"SoundDuration":232097,"Delta":42983868},{"NoteNumber":35,"Velocity":34,"Duration":232097,"SoundDuration":232097,"Delta":42983868},{"NoteNumber":54,"Velocity":45,"Duration":206666,"SoundDuration":206666,"Delta":43215965},{"NoteNumber":61,"Velocity":66,"Duration":97049,"SoundDuration":97049,"Delta":43215965},{"NoteNumber":51,"Velocity":39,"Duration":97049,"SoundDuration":97049,"Delta":43215965},{"NoteNumber":59,"Velocity":46,"Duration":334592,"SoundDuration":334592,"Delta":43313015},{"NoteNumber":42,"Velocity":36,"Duration":109617,"SoundDuration":109617,"Delta":43313015},{"NoteNumber":66,"Velocity":74,"Duration":224975,"SoundDuration":224975,"Delta":43422632},{"NoteNumber":35,"Velocity":31,"Duration":224975,"SoundDuration":224975,"Delta":43422632},{"NoteNumber":59,"Velocity":46,"Duration":205824,"SoundDuration":205824,"Delta":43647607},{"NoteNumber":68,"Velocity":67,"Duration":97049,"SoundDuration":97049,"Delta":43647607},{"NoteNumber":51,"Velocity":39,"Duration":97049,"SoundDuration":97049,"Delta":43647607},{"NoteNumber":66,"Velocity":53,"Duration":333075,"SoundDuration":333075,"Delta":43744657},{"NoteNumber":42,"Velocity":36,"Duration":108774,"SoundDuration":108774,"Delta":43744657},{"NoteNumber":71,"Velocity":78,"Duration":224301,"SoundDuration":224301,"Delta":43853431},{"NoteNumber":35,"Velocity":30,"Duration":224301,"SoundDuration":224301,"Delta":43853431},{"NoteNumber":61,"Velocity":48,"Duration":206151,"SoundDuration":206151,"Delta":44077733},{"NoteNumber":68,"Velocity":72,"Duration":97377,"SoundDuration":97377,"Delta":44077733},{"NoteNumber":52,"Velocity":42,"Duration":97377,"SoundDuration":97377,"Delta":44077733},{"NoteNumber":66,"Velocity":55,"Duration":333075,"SoundDuration":333075,"Delta":44175110},{"NoteNumber":42,"Velocity":38,"Duration":108774,"SoundDuration":108774,"Delta":44175110},{"NoteNumber":73,"Velocity":81,"Duration":224301,"SoundDuration":224301,"Delta":44283884},{"NoteNumber":35,"Velocity":32,"Duration":224301,"SoundDuration":224301,"Delta":44283884},{"NoteNumber":54,"Velocity":47,"Duration":205415,"SoundDuration":205415,"Delta":44508186},{"NoteNumber":63,"Velocity":66,"Duration":97049,"SoundDuration":97049,"Delta":44508186},{"NoteNumber":52,"Velocity":40,"Duration":97049,"SoundDuration":97049,"Delta":44508186},{"NoteNumber":61,"Velocity":53,"Duration":331894,"SoundDuration":331894,"Delta":44605235},{"NoteNumber":42,"Velocity":37,"Duration":108365,"SoundDuration":108365,"Delta":44605235},{"NoteNumber":66,"Velocity":75,"Duration":223529,"SoundDuration":223529,"Delta":44713601},{"NoteNumber":35,"Velocity":31,"Duration":223529,"SoundDuration":223529,"Delta":44713601},{"NoteNumber":61,"Velocity":46,"Duration":205329,"SoundDuration":205329,"Delta":44937130},{"NoteNumber":68,"Velocity":67,"Duration":97377,"SoundDuration":97377,"Delta":44937130},{"NoteNumber":52,"Velocity":39,"Duration":97377,"SoundDuration":97377,"Delta":44937130},{"NoteNumber":66,"Velocity":57,"Duration":328984,"SoundDuration":328984,"Delta":45034507},{"NoteNumber":42,"Velocity":36,"Duration":107952,"SoundDuration":107952,"Delta":45034507},{"NoteNumber":73,"Velocity":76,"Duration":221031,"SoundDuration":221031,"Delta":45142460},{"NoteNumber":35,"Velocity":30,"Duration":221031,"SoundDuration":221031,"Delta":45142460},{"NoteNumber":63,"Velocity":51,"Duration":205002,"SoundDuration":205002,"Delta":45363492},{"NoteNumber":68,"Velocity":75,"Duration":97049,"SoundDuration":97049,"Delta":45363492},{"NoteNumber":51,"Velocity":43,"Duration":97049,"SoundDuration":97049,"Delta":45363492},{"NoteNumber":66,"Velocity":58,"Duration":328984,"SoundDuration":328984,"Delta":45460542},{"NoteNumber":42,"Velocity":39,"Duration":107952,"SoundDuration":107952,"Delta":45460542},{"NoteNumber":75,"Velocity":78,"Duration":221031,"SoundDuration":221031,"Delta":45568494},{"NoteNumber":35,"Velocity":35,"Duration":221031,"SoundDuration":221031,"Delta":45568494},{"NoteNumber":63,"Velocity":47,"Duration":205498,"SoundDuration":205498,"Delta":45789526},{"NoteNumber":70,"Velocity":69,"Duration":96724,"SoundDuration":96724,"Delta":45789526},{"NoteNumber":53,"Velocity":40,"Duration":96724,"SoundDuration":96724,"Delta":45789526},{"NoteNumber":68,"Velocity":53,"Duration":333075,"SoundDuration":333075,"Delta":45886250},{"NoteNumber":47,"Velocity":37,"Duration":108774,"SoundDuration":108774,"Delta":45886250},{"NoteNumber":75,"Velocity":76,"Duration":224301,"SoundDuration":224301,"Delta":45995025},{"NoteNumber":37,"Velocity":31,"Duration":224301,"SoundDuration":224301,"Delta":45995025},{"NoteNumber":61,"Velocity":48,"Duration":206243,"SoundDuration":206243,"Delta":46219326},{"NoteNumber":68,"Velocity":70,"Duration":97049,"SoundDuration":97049,"Delta":46219326},{"NoteNumber":58,"Velocity":40,"Duration":97049,"SoundDuration":97049,"Delta":46219326},{"NoteNumber":66,"Velocity":59,"Duration":335676,"SoundDuration":335676,"Delta":46316376},{"NoteNumber":52,"Velocity":37,"Duration":109194,"SoundDuration":109194,"Delta":46316376},{"NoteNumber":73,"Velocity":76,"Duration":226482,"SoundDuration":226482,"Delta":46425570},{"NoteNumber":42,"Velocity":32,"Duration":226482,"SoundDuration":226482,"Delta":46425570},{"NoteNumber":59,"Velocity":51,"Duration":206243,"SoundDuration":206243,"Delta":46652053},{"NoteNumber":68,"Velocity":75,"Duration":97049,"SoundDuration":97049,"Delta":46652053},{"NoteNumber":51,"Velocity":44,"Duration":97049,"SoundDuration":97049,"Delta":46652053},{"NoteNumber":66,"Velocity":63,"Duration":333551,"SoundDuration":333551,"Delta":46749102},{"NoteNumber":42,"Velocity":40,"Duration":109194,"SoundDuration":109194,"Delta":46749102},{"NoteNumber":71,"Velocity":81,"Duration":224357,"SoundDuration":224357,"Delta":46858297},{"NoteNumber":35,"Velocity":35,"Duration":224357,"SoundDuration":224357,"Delta":46858297},{"NoteNumber":71,"Velocity":49,"Duration":208501,"SoundDuration":208501,"Delta":47082654},{"NoteNumber":80,"Velocity":70,"Duration":98045,"SoundDuration":98045,"Delta":47082654},{"NoteNumber":63,"Velocity":42,"Duration":98045,"SoundDuration":98045,"Delta":47082654},{"NoteNumber":78,"Velocity":55,"Duration":337210,"SoundDuration":337210,"Delta":47180700},{"NoteNumber":54,"Velocity":38,"Duration":110456,"SoundDuration":110456,"Delta":47180700},{"NoteNumber":83,"Velocity":76,"Duration":226753,"SoundDuration":226753,"Delta":47291156},{"NoteNumber":47,"Velocity":30,"Duration":226753,"SoundDuration":226753,"Delta":47291156},{"NoteNumber":83,"Velocity":49,"Duration":222372,"SoundDuration":222372,"Delta":47517910},{"NoteNumber":92,"Velocity":74,"Duration":106299,"SoundDuration":106299,"Delta":47517910},{"NoteNumber":75,"Velocity":42,"Duration":106299,"SoundDuration":106299,"Delta":47517910},{"NoteNumber":90,"Velocity":58,"Duration":395193,"SoundDuration":395193,"Delta":47624210},{"NoteNumber":66,"Velocity":38,"Duration":116072,"SoundDuration":116072,"Delta":47624210},{"NoteNumber":95,"Velocity":82,"Duration":244231,"SoundDuration":244231,"Delta":47740282},{"NoteNumber":59,"Velocity":32,"Duration":244231,"SoundDuration":244231,"Delta":47740282},{"NoteNumber":61,"Velocity":44,"Duration":211378,"SoundDuration":211378,"Delta":48019403},{"NoteNumber":68,"Velocity":65,"Duration":97049,"SoundDuration":97049,"Delta":48019403},{"NoteNumber":58,"Velocity":33,"Duration":97049,"SoundDuration":97049,"Delta":48019403},{"NoteNumber":66,"Velocity":51,"Duration":349140,"SoundDuration":349140,"Delta":48116453},{"NoteNumber":49,"Velocity":34,"Duration":114329,"SoundDuration":114329,"Delta":48116453},{"NoteNumber":73,"Velocity":71,"Duration":234811,"SoundDuration":234811,"Delta":48230782},{"NoteNumber":42,"Velocity":31,"Duration":234811,"SoundDuration":234811,"Delta":48230782},{"NoteNumber":61,"Velocity":40,"Duration":209662,"SoundDuration":209662,"Delta":48465593},{"NoteNumber":68,"Velocity":59,"Duration":97049,"SoundDuration":97049,"Delta":48465593},{"NoteNumber":57,"Velocity":32,"Duration":97049,"SoundDuration":97049,"Delta":48465593},{"NoteNumber":66,"Velocity":48,"Duration":340583,"SoundDuration":340583,"Delta":48562643},{"NoteNumber":49,"Velocity":33,"Duration":112612,"SoundDuration":112612,"Delta":48562643},{"NoteNumber":73,"Velocity":70,"Duration":227970,"SoundDuration":227970,"Delta":48675256},{"NoteNumber":42,"Velocity":29,"Duration":227970,"SoundDuration":227970,"Delta":48675256},{"NoteNumber":63,"Velocity":44,"Duration":207343,"SoundDuration":207343,"Delta":48903226},{"NoteNumber":68,"Velocity":65,"Duration":97049,"SoundDuration":97049,"Delta":48903226},{"NoteNumber":57,"Velocity":33,"Duration":97049,"SoundDuration":97049,"Delta":48903226},{"NoteNumber":66,"Velocity":51,"Duration":336114,"SoundDuration":336114,"Delta":49000276},{"NoteNumber":47,"Velocity":34,"Duration":110294,"SoundDuration":110294,"Delta":49000276},{"NoteNumber":75,"Velocity":76,"Duration":225820,"SoundDuration":225820,"Delta":49110570},{"NoteNumber":42,"Velocity":29,"Duration":225820,"SoundDuration":225820,"Delta":49110570},{"NoteNumber":64,"Velocity":46,"Duration":208078,"SoundDuration":208078,"Delta":49336391},{"NoteNumber":69,"Velocity":68,"Duration":97377,"SoundDuration":97377,"Delta":49336391},{"NoteNumber":57,"Velocity":35,"Duration":97377,"SoundDuration":97377,"Delta":49336391},{"NoteNumber":68,"Velocity":52,"Duration":336928,"SoundDuration":336928,"Delta":49433768},{"NoteNumber":47,"Velocity":36,"Duration":110700,"SoundDuration":110700,"Delta":49433768},{"NoteNumber":76,"Velocity":76,"Duration":226227,"SoundDuration":226227,"Delta":49544469},{"NoteNumber":40,"Velocity":29,"Duration":226227,"SoundDuration":226227,"Delta":49544469},{"NoteNumber":59,"Velocity":39,"Duration":208573,"SoundDuration":208573,"Delta":49770697},{"NoteNumber":66,"Velocity":56,"Duration":97049,"SoundDuration":97049,"Delta":49770697},{"NoteNumber":56,"Velocity":31,"Duration":97049,"SoundDuration":97049,"Delta":49770697},{"NoteNumber":64,"Velocity":46,"Duration":338211,"SoundDuration":338211,"Delta":49867746},{"NoteNumber":47,"Velocity":32,"Duration":111524,"SoundDuration":111524,"Delta":49867746},{"NoteNumber":71,"Velocity":63,"Duration":226687,"SoundDuration":226687,"Delta":49979271},{"NoteNumber":40,"Velocity":26,"Duration":226687,"SoundDuration":226687,"Delta":49979271},{"NoteNumber":59,"Velocity":39,"Duration":208078,"SoundDuration":208078,"Delta":50205958},{"NoteNumber":66,"Velocity":59,"Duration":97377,"SoundDuration":97377,"Delta":50205958},{"NoteNumber":56,"Velocity":30,"Duration":97377,"SoundDuration":97377,"Delta":50205958},{"NoteNumber":64,"Velocity":49,"Duration":334481,"SoundDuration":334481,"Delta":50303335},{"NoteNumber":47,"Velocity":31,"Duration":110700,"SoundDuration":110700,"Delta":50303335},{"NoteNumber":71,"Velocity":66,"Duration":223780,"SoundDuration":223780,"Delta":50414036},{"NoteNumber":40,"Velocity":25,"Duration":223780,"SoundDuration":223780,"Delta":50414036},{"NoteNumber":59,"Velocity":44,"Duration":213599,"SoundDuration":213599,"Delta":50637817},{"NoteNumber":66,"Velocity":65,"Duration":97049,"SoundDuration":97049,"Delta":50637817},{"NoteNumber":55,"Velocity":33,"Duration":97049,"SoundDuration":97049,"Delta":50637817},{"NoteNumber":64,"Velocity":51,"Duration":353582,"SoundDuration":353582,"Delta":50734867},{"NoteNumber":47,"Velocity":34,"Duration":116549,"SoundDuration":116549,"Delta":50734867},{"NoteNumber":71,"Velocity":71,"Duration":237032,"SoundDuration":237032,"Delta":50851417},{"NoteNumber":40,"Velocity":31,"Duration":237032,"SoundDuration":237032,"Delta":50851417},{"NoteNumber":59,"Velocity":40,"Duration":210944,"SoundDuration":210944,"Delta":51088449},{"NoteNumber":66,"Velocity":59,"Duration":97049,"SoundDuration":97049,"Delta":51088449},{"NoteNumber":55,"Velocity":32,"Duration":97049,"SoundDuration":97049,"Delta":51088449},{"NoteNumber":64,"Velocity":48,"Duration":343148,"SoundDuration":343148,"Delta":51185498},{"NoteNumber":47,"Velocity":33,"Duration":113895,"SoundDuration":113895,"Delta":51185498},{"NoteNumber":71,"Velocity":70,"Duration":229253,"SoundDuration":229253,"Delta":51299394},{"NoteNumber":40,"Velocity":29,"Duration":229253,"SoundDuration":229253,"Delta":51299394},{"NoteNumber":61,"Velocity":44,"Duration":207750,"SoundDuration":207750,"Delta":51528647},{"NoteNumber":66,"Velocity":65,"Duration":97049,"SoundDuration":97049,"Delta":51528647},{"NoteNumber":55,"Velocity":33,"Duration":97049,"SoundDuration":97049,"Delta":51528647},{"NoteNumber":64,"Velocity":51,"Duration":336928,"SoundDuration":336928,"Delta":51625697},{"NoteNumber":45,"Velocity":34,"Duration":110700,"SoundDuration":110700,"Delta":51625697},{"NoteNumber":73,"Velocity":76,"Duration":226227,"SoundDuration":226227,"Delta":51736398},{"NoteNumber":40,"Velocity":29,"Duration":226227,"SoundDuration":226227,"Delta":51736398},{"NoteNumber":62,"Velocity":46,"Duration":208078,"SoundDuration":208078,"Delta":51962625},{"NoteNumber":67,"Velocity":68,"Duration":97377,"SoundDuration":97377,"Delta":51962625},{"NoteNumber":55,"Velocity":35,"Duration":97377,"SoundDuration":97377,"Delta":51962625},{"NoteNumber":66,"Velocity":52,"Duration":336928,"SoundDuration":336928,"Delta":52060003},{"NoteNumber":45,"Velocity":36,"Duration":110700,"SoundDuration":110700,"Delta":52060003},{"NoteNumber":74,"Velocity":76,"Duration":226227,"SoundDuration":226227,"Delta":52170704},{"NoteNumber":38,"Velocity":29,"Duration":226227,"SoundDuration":226227,"Delta":52170704},{"NoteNumber":57,"Velocity":39,"Duration":208573,"SoundDuration":208573,"Delta":52396931},{"NoteNumber":64,"Velocity":56,"Duration":97049,"SoundDuration":97049,"Delta":52396931},{"NoteNumber":54,"Velocity":31,"Duration":97049,"SoundDuration":97049,"Delta":52396931},{"NoteNumber":62,"Velocity":46,"Duration":338211,"SoundDuration":338211,"Delta":52493981},{"NoteNumber":45,"Velocity":32,"Duration":111524,"SoundDuration":111524,"Delta":52493981},{"NoteNumber":69,"Velocity":63,"Duration":226687,"SoundDuration":226687,"Delta":52605505},{"NoteNumber":38,"Velocity":26,"Duration":226687,"SoundDuration":226687,"Delta":52605505},{"NoteNumber":57,"Velocity":39,"Duration":208078,"SoundDuration":208078,"Delta":52832193},{"NoteNumber":64,"Velocity":59,"Duration":97377,"SoundDuration":97377,"Delta":52832193},{"NoteNumber":54,"Velocity":30,"Duration":97377,"SoundDuration":97377,"Delta":52832193},{"NoteNumber":62,"Velocity":49,"Duration":334481,"SoundDuration":334481,"Delta":52929570},{"NoteNumber":45,"Velocity":31,"Duration":110700,"SoundDuration":110700,"Delta":52929570},{"NoteNumber":69,"Velocity":66,"Duration":223780,"SoundDuration":223780,"Delta":53040271},{"NoteNumber":38,"Velocity":25,"Duration":223780,"SoundDuration":223780,"Delta":53040271},{"NoteNumber":57,"Velocity":40,"Duration":208665,"SoundDuration":208665,"Delta":53264052},{"NoteNumber":62,"Velocity":60,"Duration":97049,"SoundDuration":97049,"Delta":53264052},{"NoteNumber":54,"Velocity":31,"Duration":97049,"SoundDuration":97049,"Delta":53264052},{"NoteNumber":61,"Velocity":48,"Duration":343713,"SoundDuration":343713,"Delta":53361101},{"NoteNumber":45,"Velocity":32,"Duration":111615,"SoundDuration":111615,"Delta":53361101},{"NoteNumber":69,"Velocity":67,"Duration":232097,"SoundDuration":232097,"Delta":53472717},{"NoteNumber":37,"Velocity":29,"Duration":232097,"SoundDuration":232097,"Delta":53472717},{"NoteNumber":69,"Velocity":37,"Duration":206666,"SoundDuration":206666,"Delta":53704814},{"NoteNumber":74,"Velocity":56,"Duration":97049,"SoundDuration":97049,"Delta":53704814},{"NoteNumber":57,"Velocity":24,"Duration":206666,"SoundDuration":206666,"Delta":53704814},{"NoteNumber":66,"Velocity":30,"Duration":97049,"SoundDuration":97049,"Delta":53704814},{"NoteNumber":73,"Velocity":45,"Duration":334592,"SoundDuration":334592,"Delta":53801864},{"NoteNumber":61,"Velocity":31,"Duration":109617,"SoundDuration":109617,"Delta":53801864},{"NoteNumber":81,"Velocity":66,"Duration":224975,"SoundDuration":224975,"Delta":53911481},{"NoteNumber":49,"Velocity":27,"Duration":224975,"SoundDuration":224975,"Delta":53911481},{"NoteNumber":71,"Velocity":40,"Duration":205824,"SoundDuration":205824,"Delta":54136456},{"NoteNumber":74,"Velocity":60,"Duration":97049,"SoundDuration":97049,"Delta":54136456},{"NoteNumber":57,"Velocity":24,"Duration":205824,"SoundDuration":205824,"Delta":54136456},{"NoteNumber":68,"Velocity":31,"Duration":97049,"SoundDuration":97049,"Delta":54136456},{"NoteNumber":73,"Velocity":48,"Duration":333075,"SoundDuration":333075,"Delta":54233506},{"NoteNumber":61,"Velocity":32,"Duration":108774,"SoundDuration":108774,"Delta":54233506},{"NoteNumber":83,"Velocity":70,"Duration":224301,"SoundDuration":224301,"Delta":54342280},{"NoteNumber":49,"Velocity":27,"Duration":224301,"SoundDuration":224301,"Delta":54342280},{"NoteNumber":69,"Velocity":46,"Duration":207671,"SoundDuration":207671,"Delta":54566582},{"NoteNumber":74,"Velocity":68,"Duration":97377,"SoundDuration":97377,"Delta":54566582},{"NoteNumber":56,"Velocity":24,"Duration":207671,"SoundDuration":207671,"Delta":54566582},{"NoteNumber":66,"Velocity":35,"Duration":97377,"SoundDuration":97377,"Delta":54566582},{"NoteNumber":73,"Velocity":52,"Duration":336114,"SoundDuration":336114,"Delta":54663959},{"NoteNumber":61,"Velocity":36,"Duration":110294,"SoundDuration":110294,"Delta":54663959},{"NoteNumber":81,"Velocity":72,"Duration":225820,"SoundDuration":225820,"Delta":54774253},{"NoteNumber":49,"Velocity":29,"Duration":225820,"SoundDuration":225820,"Delta":54774253},{"NoteNumber":68,"Velocity":39,"Duration":207750,"SoundDuration":207750,"Delta":55000074},{"NoteNumber":74,"Velocity":52,"Duration":97049,"SoundDuration":97049,"Delta":55000074},{"NoteNumber":56,"Velocity":24,"Duration":207750,"SoundDuration":207750,"Delta":55000074},{"NoteNumber":65,"Velocity":31,"Duration":97049,"SoundDuration":97049,"Delta":55000074},{"NoteNumber":73,"Velocity":46,"Duration":336565,"SoundDuration":336565,"Delta":55097123},{"NoteNumber":61,"Velocity":32,"Duration":110700,"SoundDuration":110700,"Delta":55097123},{"NoteNumber":80,"Velocity":63,"Duration":225864,"SoundDuration":225864,"Delta":55207824},{"NoteNumber":49,"Velocity":26,"Duration":225864,"SoundDuration":225864,"Delta":55207824},{"NoteNumber":68,"Velocity":39,"Duration":208078,"SoundDuration":208078,"Delta":55433689},{"NoteNumber":74,"Velocity":55,"Duration":97377,"SoundDuration":97377,"Delta":55433689},{"NoteNumber":56,"Velocity":24,"Duration":208078,"SoundDuration":208078,"Delta":55433689},{"NoteNumber":65,"Velocity":30,"Duration":97377,"SoundDuration":97377,"Delta":55433689},{"NoteNumber":73,"Velocity":49,"Duration":334481,"SoundDuration":334481,"Delta":55531066},{"NoteNumber":61,"Velocity":31,"Duration":110700,"SoundDuration":110700,"Delta":55531066},{"NoteNumber":80,"Velocity":66,"Duration":223780,"SoundDuration":223780,"Delta":55641767},{"NoteNumber":49,"Velocity":25,"Duration":223780,"SoundDuration":223780,"Delta":55641767},{"NoteNumber":69,"Velocity":34,"Duration":208665,"SoundDuration":208665,"Delta":55865547},{"NoteNumber":74,"Velocity":51,"Duration":97049,"SoundDuration":97049,"Delta":55865547},{"NoteNumber":57,"Velocity":19,"Duration":208665,"SoundDuration":208665,"Delta":55865547},{"NoteNumber":66,"Velocity":26,"Duration":97049,"SoundDuration":97049,"Delta":55865547},{"NoteNumber":73,"Velocity":40,"Duration":343713,"SoundDuration":343713,"Delta":55962597},{"NoteNumber":61,"Velocity":27,"Duration":111615,"SoundDuration":111615,"Delta":55962597},{"NoteNumber":81,"Velocity":55,"Duration":232097,"SoundDuration":232097,"Delta":56074213},{"NoteNumber":49,"Velocity":25,"Duration":232097,"SoundDuration":232097,"Delta":56074213},{"NoteNumber":81,"Velocity":36,"Duration":206666,"SoundDuration":206666,"Delta":56306310},{"NoteNumber":86,"Velocity":53,"Duration":97049,"SoundDuration":97049,"Delta":56306310},{"NoteNumber":69,"Velocity":23,"Duration":206666,"SoundDuration":206666,"Delta":56306310},{"NoteNumber":78,"Velocity":29,"Duration":97049,"SoundDuration":97049,"Delta":56306310},{"NoteNumber":85,"Velocity":37,"Duration":334592,"SoundDuration":334592,"Delta":56403360},{"NoteNumber":73,"Velocity":26,"Duration":109617,"SoundDuration":109617,"Delta":56403360},{"NoteNumber":93,"Velocity":54,"Duration":224975,"SoundDuration":224975,"Delta":56512977},{"NoteNumber":61,"Velocity":23,"Duration":224975,"SoundDuration":224975,"Delta":56512977},{"NoteNumber":83,"Velocity":38,"Duration":205824,"SoundDuration":205824,"Delta":56737952},{"NoteNumber":86,"Velocity":57,"Duration":97049,"SoundDuration":97049,"Delta":56737952},{"NoteNumber":69,"Velocity":23,"Duration":205824,"SoundDuration":205824,"Delta":56737952},{"NoteNumber":80,"Velocity":29,"Duration":97049,"SoundDuration":97049,"Delta":56737952},{"NoteNumber":85,"Velocity":40,"Duration":333075,"SoundDuration":333075,"Delta":56835002},{"NoteNumber":73,"Velocity":27,"Duration":108774,"SoundDuration":108774,"Delta":56835002},{"NoteNumber":95,"Velocity":60,"Duration":224301,"SoundDuration":224301,"Delta":56943776},{"NoteNumber":61,"Velocity":23,"Duration":224301,"SoundDuration":224301,"Delta":56943776},{"NoteNumber":81,"Velocity":43,"Duration":208078,"SoundDuration":208078,"Delta":57168077},{"NoteNumber":86,"Velocity":64,"Duration":97377,"SoundDuration":97377,"Delta":57168077},{"NoteNumber":68,"Velocity":23,"Duration":208078,"SoundDuration":208078,"Delta":57168077},{"NoteNumber":78,"Velocity":33,"Duration":97377,"SoundDuration":97377,"Delta":57168077},{"NoteNumber":85,"Velocity":44,"Duration":336928,"SoundDuration":336928,"Delta":57265455},{"NoteNumber":73,"Velocity":30,"Duration":110700,"SoundDuration":110700,"Delta":57265455},{"NoteNumber":93,"Velocity":64,"Duration":226227,"SoundDuration":226227,"Delta":57376156},{"NoteNumber":61,"Velocity":25,"Duration":226227,"SoundDuration":226227,"Delta":57376156},{"NoteNumber":80,"Velocity":37,"Duration":209662,"SoundDuration":209662,"Delta":57602383},{"NoteNumber":86,"Velocity":53,"Duration":97049,"SoundDuration":97049,"Delta":57602383},{"NoteNumber":68,"Velocity":23,"Duration":209662,"SoundDuration":209662,"Delta":57602383},{"NoteNumber":77,"Velocity":29,"Duration":97049,"SoundDuration":97049,"Delta":57602383},{"NoteNumber":85,"Velocity":38,"Duration":340388,"SoundDuration":340388,"Delta":57699433},{"NoteNumber":73,"Velocity":27,"Duration":112612,"SoundDuration":112612,"Delta":57699433},{"NoteNumber":92,"Velocity":53,"Duration":227775,"SoundDuration":227775,"Delta":57812046},{"NoteNumber":61,"Velocity":22,"Duration":227775,"SoundDuration":227775,"Delta":57812046},{"NoteNumber":80,"Velocity":37,"Duration":211706,"SoundDuration":211706,"Delta":58039821},{"NoteNumber":86,"Velocity":55,"Duration":97377,"SoundDuration":97377,"Delta":58039821},{"NoteNumber":68,"Velocity":23,"Duration":211706,"SoundDuration":211706,"Delta":58039821},{"NoteNumber":77,"Velocity":29,"Duration":97377,"SoundDuration":97377,"Delta":58039821},{"NoteNumber":85,"Velocity":40,"Duration":347517,"SoundDuration":347517,"Delta":58137199},{"NoteNumber":73,"Velocity":26,"Duration":114329,"SoundDuration":114329,"Delta":58137199},{"NoteNumber":92,"Velocity":54,"Duration":233188,"SoundDuration":233188,"Delta":58251528},{"NoteNumber":61,"Velocity":21,"Duration":233188,"SoundDuration":233188,"Delta":58251528},{"NoteNumber":80,"Velocity":38,"Duration":208665,"SoundDuration":208665,"Delta":58484716},{"NoteNumber":85,"Velocity":57,"Duration":97049,"SoundDuration":97049,"Delta":58484716},{"NoteNumber":68,"Velocity":23,"Duration":208665,"SoundDuration":208665,"Delta":58484716},{"NoteNumber":77,"Velocity":29,"Duration":97049,"SoundDuration":97049,"Delta":58484716},{"NoteNumber":84,"Velocity":40,"Duration":343713,"SoundDuration":343713,"Delta":58581766},{"NoteNumber":72,"Velocity":27,"Duration":111615,"SoundDuration":111615,"Delta":58581766},{"NoteNumber":92,"Velocity":55,"Duration":232097,"SoundDuration":232097,"Delta":58693381},{"NoteNumber":60,"Velocity":25,"Duration":232097,"SoundDuration":232097,"Delta":58693381},{"NoteNumber":68,"Velocity":35,"Duration":206666,"SoundDuration":206666,"Delta":58925479},{"NoteNumber":73,"Velocity":52,"Duration":97049,"SoundDuration":97049,"Delta":58925479},{"NoteNumber":56,"Velocity":22,"Duration":206666,"SoundDuration":206666,"Delta":58925479},{"NoteNumber":65,"Velocity":28,"Duration":97049,"SoundDuration":97049,"Delta":58925479},{"NoteNumber":72,"Velocity":36,"Duration":334592,"SoundDuration":334592,"Delta":59022529},{"NoteNumber":60,"Velocity":25,"Duration":109617,"SoundDuration":109617,"Delta":59022529},{"NoteNumber":80,"Velocity":53,"Duration":224975,"SoundDuration":224975,"Delta":59132146},{"NoteNumber":48,"Velocity":22,"Duration":224975,"SoundDuration":224975,"Delta":59132146},{"NoteNumber":70,"Velocity":37,"Duration":205824,"SoundDuration":205824,"Delta":59357121},{"NoteNumber":73,"Velocity":55,"Duration":97049,"SoundDuration":97049,"Delta":59357121},{"NoteNumber":56,"Velocity":22,"Duration":205824,"SoundDuration":205824,"Delta":59357121},{"NoteNumber":67,"Velocity":28,"Duration":97049,"SoundDuration":97049,"Delta":59357121},{"NoteNumber":72,"Velocity":39,"Duration":333075,"SoundDuration":333075,"Delta":59454170},{"NoteNumber":60,"Velocity":26,"Duration":108774,"SoundDuration":108774,"Delta":59454170},{"NoteNumber":82,"Velocity":58,"Duration":224301,"SoundDuration":224301,"Delta":59562945},{"NoteNumber":48,"Velocity":22,"Duration":224301,"SoundDuration":224301,"Delta":59562945},{"NoteNumber":68,"Velocity":40,"Duration":208488,"SoundDuration":208488,"Delta":59787246},{"NoteNumber":73,"Velocity":61,"Duration":97377,"SoundDuration":97377,"Delta":59787246},{"NoteNumber":55,"Velocity":22,"Duration":208488,"SoundDuration":208488,"Delta":59787246},{"NoteNumber":65,"Velocity":32,"Duration":97377,"SoundDuration":97377,"Delta":59787246},{"NoteNumber":72,"Velocity":42,"Duration":337748,"SoundDuration":337748,"Delta":59884623},{"NoteNumber":60,"Velocity":28,"Duration":111111,"SoundDuration":111111,"Delta":59884623},{"NoteNumber":80,"Velocity":60,"Duration":226637,"SoundDuration":226637,"Delta":59995734},{"NoteNumber":48,"Velocity":24,"Duration":226637,"SoundDuration":226637,"Delta":59995734},{"NoteNumber":67,"Velocity":35,"Duration":208573,"SoundDuration":208573,"Delta":60222372},{"NoteNumber":73,"Velocity":50,"Duration":97049,"SoundDuration":97049,"Delta":60222372},{"NoteNumber":55,"Velocity":21,"Duration":208573,"SoundDuration":208573,"Delta":60222372},{"NoteNumber":64,"Velocity":27,"Duration":97049,"SoundDuration":97049,"Delta":60222372},{"NoteNumber":72,"Velocity":36,"Duration":338211,"SoundDuration":338211,"Delta":60319422},{"NoteNumber":60,"Velocity":25,"Duration":111524,"SoundDuration":111524,"Delta":60319422},{"NoteNumber":79,"Velocity":50,"Duration":226687,"SoundDuration":226687,"Delta":60430946},{"NoteNumber":48,"Velocity":19,"Duration":226687,"SoundDuration":226687,"Delta":60430946},{"NoteNumber":67,"Velocity":35,"Duration":205329,"SoundDuration":205329,"Delta":60657634},{"NoteNumber":73,"Velocity":52,"Duration":97377,"SoundDuration":97377,"Delta":60657634},{"NoteNumber":55,"Velocity":21,"Duration":205329,"SoundDuration":205329,"Delta":60657634},{"NoteNumber":64,"Velocity":27,"Duration":97377,"SoundDuration":97377,"Delta":60657634},{"NoteNumber":72,"Velocity":37,"Duration":337127,"SoundDuration":337127,"Delta":60755011},{"NoteNumber":60,"Velocity":24,"Duration":107952,"SoundDuration":107952,"Delta":60755011},{"NoteNumber":79,"Velocity":51,"Duration":229174,"SoundDuration":229174,"Delta":60862963},{"NoteNumber":48,"Velocity":18,"Duration":229174,"SoundDuration":229174,"Delta":60862963},{"NoteNumber":65,"Velocity":35,"Duration":215339,"SoundDuration":215339,"Delta":61092138},{"NoteNumber":74,"Velocity":52,"Duration":99687,"SoundDuration":99687,"Delta":61092138},{"NoteNumber":55,"Velocity":21,"Duration":215339,"SoundDuration":215339,"Delta":61092138},{"NoteNumber":62,"Velocity":27,"Duration":99687,"SoundDuration":99687,"Delta":61092138},{"NoteNumber":72,"Velocity":37,"Duration":351784,"SoundDuration":351784,"Delta":61191826},{"NoteNumber":60,"Velocity":25,"Duration":115651,"SoundDuration":115651,"Delta":61191826},{"NoteNumber":77,"Velocity":51,"Duration":236133,"SoundDuration":236133,"Delta":61307477},{"NoteNumber":48,"Velocity":23,"Duration":236133,"SoundDuration":236133,"Delta":61307477},{"NoteNumber":65,"Velocity":32,"Duration":217281,"SoundDuration":217281,"Delta":61543611},{"NoteNumber":74,"Velocity":49,"Duration":100732,"SoundDuration":100732,"Delta":61543611},{"NoteNumber":55,"Velocity":21,"Duration":217281,"SoundDuration":217281,"Delta":61543611},{"NoteNumber":62,"Velocity":26,"Duration":100732,"SoundDuration":100732,"Delta":61543611},{"NoteNumber":72,"Velocity":34,"Duration":352803,"SoundDuration":352803,"Delta":61644343},{"NoteNumber":60,"Velocity":23,"Duration":116549,"SoundDuration":116549,"Delta":61644343},{"NoteNumber":77,"Velocity":49,"Duration":236253,"SoundDuration":236253,"Delta":61760893},{"NoteNumber":48,"Velocity":21,"Duration":236253,"SoundDuration":236253,"Delta":61760893},{"NoteNumber":67,"Velocity":34,"Duration":224203,"SoundDuration":224203,"Delta":61997146},{"NoteNumber":74,"Velocity":51,"Duration":101454,"SoundDuration":101454,"Delta":61997146},{"NoteNumber":55,"Velocity":19,"Duration":224203,"SoundDuration":224203,"Delta":61997146},{"NoteNumber":64,"Velocity":26,"Duration":101454,"SoundDuration":101454,"Delta":61997146},{"NoteNumber":72,"Velocity":36,"Duration":369980,"SoundDuration":369980,"Delta":62098600},{"NoteNumber":60,"Velocity":24,"Duration":122749,"SoundDuration":122749,"Delta":62098600},{"NoteNumber":79,"Velocity":53,"Duration":247230,"SoundDuration":247230,"Delta":62221350},{"NoteNumber":48,"Velocity":19,"Duration":247230,"SoundDuration":247230,"Delta":62221350},{"NoteNumber":65,"Velocity":37,"Duration":230495,"SoundDuration":230495,"Delta":62468580},{"NoteNumber":74,"Velocity":55,"Duration":105181,"SoundDuration":105181,"Delta":62468580},{"NoteNumber":55,"Velocity":19,"Duration":230495,"SoundDuration":230495,"Delta":62468580},{"NoteNumber":62,"Velocity":29,"Duration":105181,"SoundDuration":105181,"Delta":62468580},{"NoteNumber":72,"Velocity":38,"Duration":381061,"SoundDuration":381061,"Delta":62573762},{"NoteNumber":60,"Velocity":26,"Duration":125313,"SoundDuration":125313,"Delta":62573762},{"NoteNumber":77,"Velocity":55,"Duration":255748,"SoundDuration":255748,"Delta":62699076},{"NoteNumber":48,"Velocity":22,"Duration":255748,"SoundDuration":255748,"Delta":62699076},{"NoteNumber":64,"Velocity":32,"Duration":239939,"SoundDuration":239939,"Delta":62954824},{"NoteNumber":74,"Velocity":47,"Duration":110294,"SoundDuration":110294,"Delta":62954824},{"NoteNumber":55,"Velocity":19,"Duration":239939,"SoundDuration":239939,"Delta":62954824},{"NoteNumber":62,"Velocity":25,"Duration":110294,"SoundDuration":110294,"Delta":62954824},{"NoteNumber":72,"Velocity":32,"Duration":392034,"SoundDuration":392034,"Delta":63065118},{"NoteNumber":60,"Velocity":23,"Duration":129645,"SoundDuration":129645,"Delta":63065118},{"NoteNumber":76,"Velocity":46,"Duration":262388,"SoundDuration":262388,"Delta":63194763},{"NoteNumber":48,"Velocity":18,"Duration":262388,"SoundDuration":262388,"Delta":63194763},{"NoteNumber":64,"Velocity":31,"Duration":239531,"SoundDuration":239531,"Delta":63457152},{"NoteNumber":74,"Velocity":48,"Duration":114503,"SoundDuration":114503,"Delta":63457152},{"NoteNumber":55,"Velocity":19,"Duration":239531,"SoundDuration":239531,"Delta":63457152},{"NoteNumber":60,"Velocity":25,"Duration":114503,"SoundDuration":114503,"Delta":63457152},{"NoteNumber":72,"Velocity":34,"Duration":432090,"SoundDuration":432090,"Delta":63571656},{"NoteNumber":58,"Velocity":22,"Duration":125028,"SoundDuration":125028,"Delta":63571656},{"NoteNumber":76,"Velocity":47,"Duration":268679,"SoundDuration":268679,"Delta":63696684},{"NoteNumber":48,"Velocity":17,"Duration":268679,"SoundDuration":268679,"Delta":63696684},{"NoteNumber":65,"Velocity":59,"Duration":208665,"SoundDuration":208665,"Delta":64003747},{"NoteNumber":74,"Velocity":87,"Duration":97049,"SoundDuration":97049,"Delta":64003747},{"NoteNumber":57,"Velocity":46,"Duration":97049,"SoundDuration":97049,"Delta":64003747},{"NoteNumber":48,"Velocity":37,"Duration":208665,"SoundDuration":208665,"Delta":64003747},{"NoteNumber":72,"Velocity":63,"Duration":111615,"SoundDuration":111615,"Delta":64100797},{"NoteNumber":53,"Velocity":42,"Duration":111615,"SoundDuration":111615,"Delta":64100797},{"NoteNumber":77,"Velocity":76,"Duration":55807,"SoundDuration":55807,"Delta":64212412},{"NoteNumber":41,"Velocity":37,"Duration":55807,"SoundDuration":55807,"Delta":64212412},{"NoteNumber":60,"Velocity":54,"Duration":206666,"SoundDuration":206666,"Delta":64444510},{"NoteNumber":67,"Velocity":80,"Duration":97049,"SoundDuration":97049,"Delta":64444510},{"NoteNumber":57,"Velocity":44,"Duration":97049,"SoundDuration":97049,"Delta":64444510},{"NoteNumber":48,"Velocity":34,"Duration":206666,"SoundDuration":206666,"Delta":64444510},{"NoteNumber":65,"Velocity":55,"Duration":109617,"SoundDuration":109617,"Delta":64541559},{"NoteNumber":53,"Velocity":39,"Duration":109617,"SoundDuration":109617,"Delta":64541559},{"NoteNumber":72,"Velocity":75,"Duration":54808,"SoundDuration":54808,"Delta":64651176},{"NoteNumber":41,"Velocity":34,"Duration":54808,"SoundDuration":54808,"Delta":64651176},{"NoteNumber":65,"Velocity":57,"Duration":205824,"SoundDuration":205824,"Delta":64876151},{"NoteNumber":74,"Velocity":82,"Duration":97049,"SoundDuration":97049,"Delta":64876151},{"NoteNumber":57,"Velocity":44,"Duration":97049,"SoundDuration":97049,"Delta":64876151},{"NoteNumber":48,"Velocity":34,"Duration":205824,"SoundDuration":205824,"Delta":64876151},{"NoteNumber":72,"Velocity":58,"Duration":108774,"SoundDuration":108774,"Delta":64973201},{"NoteNumber":53,"Velocity":39,"Duration":108774,"SoundDuration":108774,"Delta":64973201},{"NoteNumber":77,"Velocity":75,"Duration":54387,"SoundDuration":54387,"Delta":65081976},{"NoteNumber":41,"Velocity":33,"Duration":54387,"SoundDuration":54387,"Delta":65081976},{"NoteNumber":67,"Velocity":59,"Duration":206151,"SoundDuration":206151,"Delta":65306277},{"NoteNumber":74,"Velocity":87,"Duration":97377,"SoundDuration":97377,"Delta":65306277},{"NoteNumber":58,"Velocity":46,"Duration":97377,"SoundDuration":97377,"Delta":65306277},{"NoteNumber":48,"Velocity":37,"Duration":206151,"SoundDuration":206151,"Delta":65306277},{"NoteNumber":72,"Velocity":61,"Duration":108774,"SoundDuration":108774,"Delta":65403654},{"NoteNumber":52,"Velocity":42,"Duration":108774,"SoundDuration":108774,"Delta":65403654},{"NoteNumber":79,"Velocity":73,"Duration":54387,"SoundDuration":54387,"Delta":65512429},{"NoteNumber":41,"Velocity":35,"Duration":54387,"SoundDuration":54387,"Delta":65512429},{"NoteNumber":60,"Velocity":54,"Duration":205415,"SoundDuration":205415,"Delta":65736730},{"NoteNumber":69,"Velocity":76,"Duration":97049,"SoundDuration":97049,"Delta":65736730},{"NoteNumber":58,"Velocity":44,"Duration":97049,"SoundDuration":97049,"Delta":65736730},{"NoteNumber":48,"Velocity":34,"Duration":205415,"SoundDuration":205415,"Delta":65736730},{"NoteNumber":67,"Velocity":55,"Duration":108365,"SoundDuration":108365,"Delta":65833780},{"NoteNumber":52,"Velocity":39,"Duration":108365,"SoundDuration":108365,"Delta":65833780},{"NoteNumber":72,"Velocity":71,"Duration":54182,"SoundDuration":54182,"Delta":65942145},{"NoteNumber":41,"Velocity":33,"Duration":54182,"SoundDuration":54182,"Delta":65942145},{"NoteNumber":67,"Velocity":57,"Duration":205329,"SoundDuration":205329,"Delta":66165674},{"NoteNumber":74,"Velocity":82,"Duration":97377,"SoundDuration":97377,"Delta":66165674},{"NoteNumber":58,"Velocity":44,"Duration":97377,"SoundDuration":97377,"Delta":66165674},{"NoteNumber":48,"Velocity":34,"Duration":205329,"SoundDuration":205329,"Delta":66165674},{"NoteNumber":72,"Velocity":63,"Duration":107952,"SoundDuration":107952,"Delta":66263052},{"NoteNumber":52,"Velocity":39,"Duration":107952,"SoundDuration":107952,"Delta":66263052},{"NoteNumber":79,"Velocity":78,"Duration":53976,"SoundDuration":53976,"Delta":66371004},{"NoteNumber":41,"Velocity":33,"Duration":53976,"SoundDuration":53976,"Delta":66371004},{"NoteNumber":69,"Velocity":63,"Duration":205002,"SoundDuration":205002,"Delta":66592036},{"NoteNumber":74,"Velocity":92,"Duration":97049,"SoundDuration":97049,"Delta":66592036},{"NoteNumber":57,"Velocity":47,"Duration":97049,"SoundDuration":97049,"Delta":66592036},{"NoteNumber":48,"Velocity":38,"Duration":205002,"SoundDuration":205002,"Delta":66592036},{"NoteNumber":72,"Velocity":64,"Duration":107952,"SoundDuration":107952,"Delta":66689086},{"NoteNumber":53,"Velocity":44,"Duration":107952,"SoundDuration":107952,"Delta":66689086},{"NoteNumber":81,"Velocity":77,"Duration":53976,"SoundDuration":53976,"Delta":66797038},{"NoteNumber":41,"Velocity":38,"Duration":53976,"SoundDuration":53976,"Delta":66797038},{"NoteNumber":65,"Velocity":58,"Duration":205498,"SoundDuration":205498,"Delta":67018070},{"NoteNumber":74,"Velocity":85,"Duration":96724,"SoundDuration":96724,"Delta":67018070},{"NoteNumber":57,"Velocity":45,"Duration":96724,"SoundDuration":96724,"Delta":67018070},{"NoteNumber":50,"Velocity":35,"Duration":205498,"SoundDuration":205498,"Delta":67018070},{"NoteNumber":72,"Velocity":58,"Duration":108774,"SoundDuration":108774,"Delta":67114795},{"NoteNumber":53,"Velocity":40,"Duration":108774,"SoundDuration":108774,"Delta":67114795},{"NoteNumber":77,"Velocity":75,"Duration":54387,"SoundDuration":54387,"Delta":67223569},{"NoteNumber":41,"Velocity":34,"Duration":54387,"SoundDuration":54387,"Delta":67223569},{"NoteNumber":74,"Velocity":59,"Duration":206243,"SoundDuration":206243,"Delta":67447870},{"NoteNumber":81,"Velocity":86,"Duration":97049,"SoundDuration":97049,"Delta":67447870},{"NoteNumber":59,"Velocity":45,"Duration":97049,"SoundDuration":97049,"Delta":67447870},{"NoteNumber":50,"Velocity":35,"Duration":206243,"SoundDuration":206243,"Delta":67447870},{"NoteNumber":79,"Velocity":65,"Duration":109194,"SoundDuration":109194,"Delta":67544920},{"NoteNumber":53,"Velocity":40,"Duration":109194,"SoundDuration":109194,"Delta":67544920},{"NoteNumber":86,"Velocity":78,"Duration":54597,"SoundDuration":54597,"Delta":67654114},{"NoteNumber":43,"Velocity":35,"Duration":54597,"SoundDuration":54597,"Delta":67654114},{"NoteNumber":67,"Velocity":63,"Duration":206243,"SoundDuration":206243,"Delta":67880597},{"NoteNumber":74,"Velocity":92,"Duration":97049,"SoundDuration":97049,"Delta":67880597},{"NoteNumber":64,"Velocity":48,"Duration":97049,"SoundDuration":97049,"Delta":67880597},{"NoteNumber":55,"Velocity":39,"Duration":206243,"SoundDuration":206243,"Delta":67880597},{"NoteNumber":72,"Velocity":69,"Duration":163791,"SoundDuration":163791,"Delta":67977647},{"NoteNumber":58,"Velocity":45,"Duration":109194,"SoundDuration":109194,"Delta":67977647},{"NoteNumber":79,"Velocity":78,"Duration":54597,"SoundDuration":54597,"Delta":68086841},{"NoteNumber":48,"Velocity":38,"Duration":54597,"SoundDuration":54597,"Delta":68086841},{"NoteNumber":72,"Velocity":61,"Duration":208501,"SoundDuration":208501,"Delta":68311198},{"NoteNumber":81,"Velocity":86,"Duration":98045,"SoundDuration":98045,"Delta":68311198},{"NoteNumber":70,"Velocity":46,"Duration":98045,"SoundDuration":98045,"Delta":68311198},{"NoteNumber":60,"Velocity":37,"Duration":208501,"SoundDuration":208501,"Delta":68311198},{"NoteNumber":79,"Velocity":61,"Duration":110456,"SoundDuration":110456,"Delta":68409244},{"NoteNumber":64,"Velocity":42,"Duration":110456,"SoundDuration":110456,"Delta":68409244},{"NoteNumber":84,"Velocity":76,"Duration":55228,"SoundDuration":55228,"Delta":68519700},{"NoteNumber":55,"Velocity":33,"Duration":55228,"SoundDuration":55228,"Delta":68519700},{"NoteNumber":84,"Velocity":61,"Duration":222372,"SoundDuration":222372,"Delta":68746454},{"NoteNumber":93,"Velocity":90,"Duration":106300,"SoundDuration":106300,"Delta":68746454},{"NoteNumber":76,"Velocity":46,"Duration":106300,"SoundDuration":106300,"Delta":68746454},{"NoteNumber":67,"Velocity":37,"Duration":222372,"SoundDuration":222372,"Delta":68746454},{"NoteNumber":91,"Velocity":64,"Duration":116072,"SoundDuration":116072,"Delta":68852754},{"NoteNumber":70,"Velocity":42,"Duration":116072,"SoundDuration":116072,"Delta":68852754},{"NoteNumber":96,"Velocity":82,"Duration":69780,"SoundDuration":69780,"Delta":68968826},{"NoteNumber":60,"Velocity":35,"Duration":69780,"SoundDuration":69780,"Delta":68968826},{"NoteNumber":65,"Velocity":59,"Duration":208665,"SoundDuration":208665,"Delta":69247947},{"NoteNumber":74,"Velocity":87,"Duration":97049,"SoundDuration":97049,"Delta":69247947},{"NoteNumber":57,"Velocity":46,"Duration":97049,"SoundDuration":97049,"Delta":69247947},{"NoteNumber":48,"Velocity":37,"Duration":208665,"SoundDuration":208665,"Delta":69247947},{"NoteNumber":72,"Velocity":61,"Duration":111615,"SoundDuration":111615,"Delta":69344997},{"NoteNumber":53,"Velocity":42,"Duration":111615,"SoundDuration":111615,"Delta":69344997},{"NoteNumber":77,"Velocity":82,"Duration":55807,"SoundDuration":55807,"Delta":69456613},{"NoteNumber":41,"Velocity":37,"Duration":55807,"SoundDuration":55807,"Delta":69456613},{"NoteNumber":60,"Velocity":54,"Duration":207084,"SoundDuration":207084,"Delta":69694130},{"NoteNumber":67,"Velocity":80,"Duration":97049,"SoundDuration":97049,"Delta":69694130},{"NoteNumber":57,"Velocity":44,"Duration":97049,"SoundDuration":97049,"Delta":69694130},{"NoteNumber":48,"Velocity":34,"Duration":207084,"SoundDuration":207084,"Delta":69694130},{"NoteNumber":65,"Velocity":55,"Duration":110035,"SoundDuration":110035,"Delta":69791180},{"NoteNumber":53,"Velocity":39,"Duration":110035,"SoundDuration":110035,"Delta":69791180},{"NoteNumber":72,"Velocity":77,"Duration":55017,"SoundDuration":55017,"Delta":69901215},{"NoteNumber":41,"Velocity":34,"Duration":55017,"SoundDuration":55017,"Delta":69901215},{"NoteNumber":65,"Velocity":57,"Duration":208226,"SoundDuration":208226,"Delta":70131453},{"NoteNumber":74,"Velocity":82,"Duration":97049,"SoundDuration":97049,"Delta":70131453},{"NoteNumber":57,"Velocity":44,"Duration":97049,"SoundDuration":97049,"Delta":70131453},{"NoteNumber":48,"Velocity":34,"Duration":208226,"SoundDuration":208226,"Delta":70131453},{"NoteNumber":72,"Velocity":64,"Duration":111176,"SoundDuration":111176,"Delta":70228502},{"NoteNumber":53,"Velocity":39,"Duration":111176,"SoundDuration":111176,"Delta":70228502},{"NoteNumber":77,"Velocity":80,"Duration":55588,"SoundDuration":55588,"Delta":70339679},{"NoteNumber":41,"Velocity":33,"Duration":55588,"SoundDuration":55588,"Delta":70339679},{"NoteNumber":67,"Velocity":59,"Duration":206994,"SoundDuration":206994,"Delta":70565746},{"NoteNumber":74,"Velocity":87,"Duration":97377,"SoundDuration":97377,"Delta":70565746},{"NoteNumber":58,"Velocity":46,"Duration":97377,"SoundDuration":97377,"Delta":70565746},{"NoteNumber":48,"Velocity":37,"Duration":206994,"SoundDuration":206994,"Delta":70565746},{"NoteNumber":72,"Velocity":61,"Duration":109617,"SoundDuration":109617,"Delta":70663123},{"NoteNumber":52,"Velocity":42,"Duration":109617,"SoundDuration":109617,"Delta":70663123},{"NoteNumber":79,"Velocity":77,"Duration":54808,"SoundDuration":54808,"Delta":70772740},{"NoteNumber":41,"Velocity":35,"Duration":54808,"SoundDuration":54808,"Delta":70772740},{"NoteNumber":60,"Velocity":54,"Duration":206243,"SoundDuration":206243,"Delta":70998754},{"NoteNumber":69,"Velocity":76,"Duration":97049,"SoundDuration":97049,"Delta":70998754},{"NoteNumber":58,"Velocity":44,"Duration":97049,"SoundDuration":97049,"Delta":70998754},{"NoteNumber":48,"Velocity":34,"Duration":206243,"SoundDuration":206243,"Delta":70998754},{"NoteNumber":67,"Velocity":55,"Duration":109194,"SoundDuration":109194,"Delta":71095803},{"NoteNumber":52,"Velocity":39,"Duration":109194,"SoundDuration":109194,"Delta":71095803},{"NoteNumber":72,"Velocity":75,"Duration":54597,"SoundDuration":54597,"Delta":71204998},{"NoteNumber":41,"Velocity":33,"Duration":54597,"SoundDuration":54597,"Delta":71204998},{"NoteNumber":67,"Velocity":57,"Duration":206151,"SoundDuration":206151,"Delta":71429550},{"NoteNumber":74,"Velocity":82,"Duration":97377,"SoundDuration":97377,"Delta":71429550},{"NoteNumber":58,"Velocity":44,"Duration":97377,"SoundDuration":97377,"Delta":71429550},{"NoteNumber":48,"Velocity":34,"Duration":206151,"SoundDuration":206151,"Delta":71429550},{"NoteNumber":72,"Velocity":58,"Duration":108774,"SoundDuration":108774,"Delta":71526927},{"NoteNumber":52,"Velocity":39,"Duration":108774,"SoundDuration":108774,"Delta":71526927},{"NoteNumber":79,"Velocity":78,"Duration":54387,"SoundDuration":54387,"Delta":71635702},{"NoteNumber":41,"Velocity":33,"Duration":54387,"SoundDuration":54387,"Delta":71635702},{"NoteNumber":69,"Velocity":63,"Duration":206243,"SoundDuration":206243,"Delta":71860872},{"NoteNumber":74,"Velocity":92,"Duration":97049,"SoundDuration":97049,"Delta":71860872},{"NoteNumber":57,"Velocity":47,"Duration":97049,"SoundDuration":97049,"Delta":71860872},{"NoteNumber":48,"Velocity":38,"Duration":206243,"SoundDuration":206243,"Delta":71860872},{"NoteNumber":72,"Velocity":64,"Duration":109194,"SoundDuration":109194,"Delta":71957922},{"NoteNumber":53,"Velocity":44,"Duration":109194,"SoundDuration":109194,"Delta":71957922},{"NoteNumber":81,"Velocity":84,"Duration":54597,"SoundDuration":54597,"Delta":72067116},{"NoteNumber":41,"Velocity":38,"Duration":54597,"SoundDuration":54597,"Delta":72067116},{"NoteNumber":69,"Velocity":58,"Duration":205918,"SoundDuration":205918,"Delta":72291474},{"NoteNumber":76,"Velocity":85,"Duration":96724,"SoundDuration":96724,"Delta":72291474},{"NoteNumber":59,"Velocity":45,"Duration":96724,"SoundDuration":96724,"Delta":72291474},{"NoteNumber":50,"Velocity":35,"Duration":205918,"SoundDuration":205918,"Delta":72291474},{"NoteNumber":74,"Velocity":58,"Duration":109194,"SoundDuration":109194,"Delta":72388198},{"NoteNumber":53,"Velocity":40,"Duration":109194,"SoundDuration":109194,"Delta":72388198},{"NoteNumber":81,"Velocity":78,"Duration":54597,"SoundDuration":54597,"Delta":72497392},{"NoteNumber":43,"Velocity":34,"Duration":54597,"SoundDuration":54597,"Delta":72497392},{"NoteNumber":67,"Velocity":59,"Duration":209090,"SoundDuration":209090,"Delta":72722983},{"NoteNumber":74,"Velocity":86,"Duration":97049,"SoundDuration":97049,"Delta":72722983},{"NoteNumber":64,"Velocity":45,"Duration":97049,"SoundDuration":97049,"Delta":72722983},{"NoteNumber":55,"Velocity":35,"Duration":209090,"SoundDuration":209090,"Delta":72722983},{"NoteNumber":72,"Velocity":64,"Duration":112040,"SoundDuration":112040,"Delta":72820033},{"NoteNumber":58,"Velocity":40,"Duration":112040,"SoundDuration":112040,"Delta":72820033},{"NoteNumber":79,"Velocity":77,"Duration":56020,"SoundDuration":56020,"Delta":72932073},{"NoteNumber":48,"Velocity":35,"Duration":56020,"SoundDuration":56020,"Delta":72932073},{"NoteNumber":65,"Velocity":65,"Duration":209090,"SoundDuration":209090,"Delta":73161402},{"NoteNumber":74,"Velocity":96,"Duration":97049,"SoundDuration":97049,"Delta":73161402},{"NoteNumber":57,"Velocity":48,"Duration":97049,"SoundDuration":97049,"Delta":73161402},{"NoteNumber":48,"Velocity":35,"Duration":209090,"SoundDuration":209090,"Delta":73161402},{"NoteNumber":72,"Velocity":69,"Duration":112040,"SoundDuration":112040,"Delta":73258452},{"NoteNumber":53,"Velocity":45,"Duration":112040,"SoundDuration":112040,"Delta":73258452},{"NoteNumber":77,"Velocity":85,"Duration":56020,"SoundDuration":56020,"Delta":73370493},{"NoteNumber":41,"Velocity":38,"Duration":56020,"SoundDuration":56020,"Delta":73370493},{"NoteNumber":72,"Velocity":61,"Duration":209362,"SoundDuration":209362,"Delta":73600709},{"NoteNumber":79,"Velocity":86,"Duration":98045,"SoundDuration":98045,"Delta":73600709},{"NoteNumber":69,"Velocity":46,"Duration":98045,"SoundDuration":98045,"Delta":73600709},{"NoteNumber":60,"Velocity":33,"Duration":209362,"SoundDuration":209362,"Delta":73600709},{"NoteNumber":77,"Velocity":61,"Duration":111317,"SoundDuration":111317,"Delta":73698754},{"NoteNumber":65,"Velocity":42,"Duration":111317,"SoundDuration":111317,"Delta":73698754},{"NoteNumber":84,"Velocity":77,"Duration":55658,"SoundDuration":55658,"Delta":73810072},{"NoteNumber":53,"Velocity":33,"Duration":55658,"SoundDuration":55658,"Delta":73810072},{"NoteNumber":72,"Velocity":55,"Duration":211636,"SoundDuration":211636,"Delta":74040097},{"NoteNumber":81,"Velocity":80,"Duration":97307,"SoundDuration":97307,"Delta":74040097},{"NoteNumber":70,"Velocity":37,"Duration":97307,"SoundDuration":97307,"Delta":74040097},{"NoteNumber":60,"Velocity":30,"Duration":211636,"SoundDuration":211636,"Delta":74040097},{"NoteNumber":79,"Velocity":63,"Duration":114329,"SoundDuration":114329,"Delta":74137405},{"NoteNumber":64,"Velocity":37,"Duration":114329,"SoundDuration":114329,"Delta":74137405},{"NoteNumber":84,"Velocity":73,"Duration":57164,"SoundDuration":57164,"Delta":74251734},{"NoteNumber":53,"Velocity":29,"Duration":57164,"SoundDuration":57164,"Delta":74251734},{"NoteNumber":65,"Velocity":57,"Duration":209090,"SoundDuration":209090,"Delta":74485272},{"NoteNumber":79,"Velocity":86,"Duration":97049,"SoundDuration":97049,"Delta":74485272},{"NoteNumber":69,"Velocity":43,"Duration":97049,"SoundDuration":97049,"Delta":74485272},{"NoteNumber":60,"Velocity":32,"Duration":209090,"SoundDuration":209090,"Delta":74485272},{"NoteNumber":77,"Velocity":61,"Duration":112040,"SoundDuration":112040,"Delta":74582322},{"NoteNumber":65,"Velocity":39,"Duration":112040,"SoundDuration":112040,"Delta":74582322},{"NoteNumber":84,"Velocity":75,"Duration":56020,"SoundDuration":56020,"Delta":74694363},{"NoteNumber":53,"Velocity":34,"Duration":56020,"SoundDuration":56020,"Delta":74694363},{"NoteNumber":84,"Velocity":54,"Duration":208934,"SoundDuration":208934,"Delta":74924579},{"NoteNumber":91,"Velocity":76,"Duration":98045,"SoundDuration":98045,"Delta":74924579},{"NoteNumber":81,"Velocity":40,"Duration":98045,"SoundDuration":98045,"Delta":74924579},{"NoteNumber":72,"Velocity":28,"Duration":208934,"SoundDuration":208934,"Delta":74924579},{"NoteNumber":89,"Velocity":54,"Duration":110889,"SoundDuration":110889,"Delta":75022624},{"NoteNumber":77,"Velocity":37,"Duration":110889,"SoundDuration":110889,"Delta":75022624},{"NoteNumber":96,"Velocity":70,"Duration":55444,"SoundDuration":55444,"Delta":75133513},{"NoteNumber":65,"Velocity":29,"Duration":55444,"SoundDuration":55444,"Delta":75133513},{"NoteNumber":84,"Velocity":49,"Duration":208431,"SoundDuration":208431,"Delta":75360700},{"NoteNumber":93,"Velocity":77,"Duration":97975,"SoundDuration":97975,"Delta":75360700},{"NoteNumber":82,"Velocity":36,"Duration":97975,"SoundDuration":97975,"Delta":75360700},{"NoteNumber":72,"Velocity":24,"Duration":208431,"SoundDuration":208431,"Delta":75360700},{"NoteNumber":91,"Velocity":58,"Duration":110456,"SoundDuration":110456,"Delta":75458675},{"NoteNumber":76,"Velocity":35,"Duration":110456,"SoundDuration":110456,"Delta":75458675},{"NoteNumber":96,"Velocity":69,"Duration":55228,"SoundDuration":55228,"Delta":75569131},{"NoteNumber":65,"Velocity":27,"Duration":55228,"SoundDuration":55228,"Delta":75569131},{"NoteNumber":84,"Velocity":58,"Duration":209090,"SoundDuration":209090,"Delta":75798796},{"NoteNumber":91,"Velocity":86,"Duration":97049,"SoundDuration":97049,"Delta":75798796},{"NoteNumber":81,"Velocity":43,"Duration":97049,"SoundDuration":97049,"Delta":75798796},{"NoteNumber":72,"Velocity":35,"Duration":209090,"SoundDuration":209090,"Delta":75798796},{"NoteNumber":89,"Velocity":61,"Duration":112040,"SoundDuration":112040,"Delta":75895846},{"NoteNumber":77,"Velocity":39,"Duration":112040,"SoundDuration":112040,"Delta":75895846},{"NoteNumber":96,"Velocity":75,"Duration":56020,"SoundDuration":56020,"Delta":76007887},{"NoteNumber":65,"Velocity":34,"Duration":56020,"SoundDuration":56020,"Delta":76007887},{"NoteNumber":72,"Velocity":44,"Duration":208934,"SoundDuration":208934,"Delta":76238103},{"NoteNumber":79,"Velocity":61,"Duration":98045,"SoundDuration":98045,"Delta":76238103},{"NoteNumber":69,"Velocity":36,"Duration":98045,"SoundDuration":98045,"Delta":76238103},{"NoteNumber":60,"Velocity":29,"Duration":208934,"SoundDuration":208934,"Delta":76238103},{"NoteNumber":77,"Velocity":49,"Duration":110889,"SoundDuration":110889,"Delta":76336148},{"NoteNumber":65,"Velocity":33,"Duration":110889,"SoundDuration":110889,"Delta":76336148},{"NoteNumber":84,"Velocity":61,"Duration":227186,"SoundDuration":227186,"Delta":76447038},{"NoteNumber":53,"Velocity":26,"Duration":227186,"SoundDuration":227186,"Delta":76447038},{"NoteNumber":72,"Velocity":44,"Duration":208431,"SoundDuration":208431,"Delta":76674224},{"NoteNumber":81,"Velocity":65,"Duration":97975,"SoundDuration":97975,"Delta":76674224},{"NoteNumber":70,"Velocity":36,"Duration":97975,"SoundDuration":97975,"Delta":76674224},{"NoteNumber":60,"Velocity":29,"Duration":208431,"SoundDuration":208431,"Delta":76674224},{"NoteNumber":79,"Velocity":54,"Duration":110456,"SoundDuration":110456,"Delta":76772199},{"NoteNumber":64,"Velocity":33,"Duration":110456,"SoundDuration":110456,"Delta":76772199},{"NoteNumber":84,"Velocity":65,"Duration":229664,"SoundDuration":229664,"Delta":76882656},{"NoteNumber":53,"Velocity":26,"Duration":229664,"SoundDuration":229664,"Delta":76882656},{"NoteNumber":65,"Velocity":46,"Duration":209090,"SoundDuration":209090,"Delta":77112321},{"NoteNumber":79,"Velocity":68,"Duration":97049,"SoundDuration":97049,"Delta":77112321},{"NoteNumber":69,"Velocity":37,"Duration":97049,"SoundDuration":97049,"Delta":77112321},{"NoteNumber":60,"Velocity":31,"Duration":209090,"SoundDuration":209090,"Delta":77112321},{"NoteNumber":77,"Velocity":54,"Duration":112040,"SoundDuration":112040,"Delta":77209370},{"NoteNumber":65,"Velocity":35,"Duration":112040,"SoundDuration":112040,"Delta":77209370},{"NoteNumber":84,"Velocity":67,"Duration":230215,"SoundDuration":230215,"Delta":77321411},{"NoteNumber":53,"Velocity":30,"Duration":230215,"SoundDuration":230215,"Delta":77321411},{"NoteNumber":84,"Velocity":44,"Duration":211940,"SoundDuration":211940,"Delta":77551627},{"NoteNumber":91,"Velocity":61,"Duration":98045,"SoundDuration":98045,"Delta":77551627},{"NoteNumber":81,"Velocity":36,"Duration":98045,"SoundDuration":98045,"Delta":77551627},{"NoteNumber":72,"Velocity":29,"Duration":211940,"SoundDuration":211940,"Delta":77551627},{"NoteNumber":89,"Velocity":49,"Duration":113895,"SoundDuration":113895,"Delta":77649673},{"NoteNumber":77,"Velocity":33,"Duration":113895,"SoundDuration":113895,"Delta":77649673},{"NoteNumber":96,"Velocity":61,"Duration":230192,"SoundDuration":230192,"Delta":77763568},{"NoteNumber":65,"Velocity":26,"Duration":230192,"SoundDuration":230192,"Delta":77763568},{"NoteNumber":84,"Velocity":42,"Duration":215438,"SoundDuration":215438,"Delta":77993760},{"NoteNumber":93,"Velocity":65,"Duration":97975,"SoundDuration":97975,"Delta":77993760},{"NoteNumber":82,"Velocity":33,"Duration":97975,"SoundDuration":97975,"Delta":77993760},{"NoteNumber":72,"Velocity":27,"Duration":215438,"SoundDuration":215438,"Delta":77993760},{"NoteNumber":91,"Velocity":54,"Duration":117462,"SoundDuration":117462,"Delta":78091735},{"NoteNumber":76,"Velocity":33,"Duration":117462,"SoundDuration":117462,"Delta":78091735},{"NoteNumber":96,"Velocity":65,"Duration":240212,"SoundDuration":240212,"Delta":78209198},{"NoteNumber":65,"Velocity":26,"Duration":240212,"SoundDuration":240212,"Delta":78209198},{"NoteNumber":84,"Velocity":46,"Duration":209090,"SoundDuration":209090,"Delta":78449410},{"NoteNumber":91,"Velocity":68,"Duration":97049,"SoundDuration":97049,"Delta":78449410},{"NoteNumber":81,"Velocity":37,"Duration":97049,"SoundDuration":97049,"Delta":78449410},{"NoteNumber":72,"Velocity":31,"Duration":209090,"SoundDuration":209090,"Delta":78449410},{"NoteNumber":89,"Velocity":54,"Duration":112040,"SoundDuration":112040,"Delta":78546460},{"NoteNumber":77,"Velocity":35,"Duration":112040,"SoundDuration":112040,"Delta":78546460},{"NoteNumber":96,"Velocity":67,"Duration":230215,"SoundDuration":230215,"Delta":78658501},{"NoteNumber":65,"Velocity":30,"Duration":56020,"SoundDuration":56020,"Delta":78658501},{"NoteNumber":83,"Velocity":46,"Duration":208934,"SoundDuration":208934,"Delta":78888717},{"NoteNumber":91,"Velocity":65,"Duration":98045,"SoundDuration":98045,"Delta":78888717},{"NoteNumber":81,"Velocity":37,"Duration":98045,"SoundDuration":98045,"Delta":78888717},{"NoteNumber":71,"Velocity":30,"Duration":208934,"SoundDuration":208934,"Delta":78888717},{"NoteNumber":90,"Velocity":46,"Duration":110889,"SoundDuration":110889,"Delta":78986762},{"NoteNumber":75,"Velocity":34,"Duration":110889,"SoundDuration":110889,"Delta":78986762},{"NoteNumber":95,"Velocity":56,"Duration":55444,"SoundDuration":55444,"Delta":79097652},{"NoteNumber":59,"Velocity":27,"Duration":55444,"SoundDuration":55444,"Delta":79097652},{"NoteNumber":83,"Velocity":45,"Duration":208431,"SoundDuration":208431,"Delta":79324838},{"NoteNumber":89,"Velocity":66,"Duration":97975,"SoundDuration":97975,"Delta":79324838},{"NoteNumber":80,"Velocity":37,"Duration":97975,"SoundDuration":97975,"Delta":79324838},{"NoteNumber":71,"Velocity":29,"Duration":208431,"SoundDuration":208431,"Delta":79324838},{"NoteNumber":88,"Velocity":49,"Duration":110456,"SoundDuration":110456,"Delta":79422813},{"NoteNumber":74,"Velocity":33,"Duration":110456,"SoundDuration":110456,"Delta":79422813},{"NoteNumber":95,"Velocity":61,"Duration":55228,"SoundDuration":55228,"Delta":79533270},{"NoteNumber":64,"Velocity":28,"Duration":55228,"SoundDuration":55228,"Delta":79533270},{"NoteNumber":81,"Velocity":46,"Duration":209090,"SoundDuration":209090,"Delta":79762935},{"NoteNumber":89,"Velocity":68,"Duration":97049,"SoundDuration":97049,"Delta":79762935},{"NoteNumber":79,"Velocity":37,"Duration":97049,"SoundDuration":97049,"Delta":79762935},{"NoteNumber":69,"Velocity":31,"Duration":209090,"SoundDuration":209090,"Delta":79762935},{"NoteNumber":88,"Velocity":48,"Duration":112040,"SoundDuration":112040,"Delta":79859984},{"NoteNumber":73,"Velocity":35,"Duration":112040,"SoundDuration":112040,"Delta":79859984},{"NoteNumber":93,"Velocity":59,"Duration":56020,"SoundDuration":56020,"Delta":79972025},{"NoteNumber":57,"Velocity":30,"Duration":56020,"SoundDuration":56020,"Delta":79972025},{"NoteNumber":81,"Velocity":45,"Duration":208934,"SoundDuration":208934,"Delta":80202241},{"NoteNumber":88,"Velocity":61,"Duration":98045,"SoundDuration":98045,"Delta":80202241},{"NoteNumber":74,"Velocity":36,"Duration":98045,"SoundDuration":98045,"Delta":80202241},{"NoteNumber":67,"Velocity":29,"Duration":208934,"SoundDuration":208934,"Delta":80202241},{"NoteNumber":86,"Velocity":45,"Duration":110889,"SoundDuration":110889,"Delta":80300287},{"NoteNumber":70,"Velocity":33,"Duration":110889,"SoundDuration":110889,"Delta":80300287},{"NoteNumber":93,"Velocity":55,"Duration":55444,"SoundDuration":55444,"Delta":80411176},{"NoteNumber":58,"Velocity":26,"Duration":55444,"SoundDuration":55444,"Delta":80411176},{"NoteNumber":79,"Velocity":42,"Duration":208431,"SoundDuration":208431,"Delta":80638362},{"NoteNumber":86,"Velocity":63,"Duration":97975,"SoundDuration":97975,"Delta":80638362},{"NoteNumber":76,"Velocity":34,"Duration":97975,"SoundDuration":97975,"Delta":80638362},{"NoteNumber":67,"Velocity":28,"Duration":208431,"SoundDuration":208431,"Delta":80638362},{"NoteNumber":84,"Velocity":47,"Duration":110456,"SoundDuration":110456,"Delta":80736337},{"NoteNumber":70,"Velocity":32,"Duration":110456,"SoundDuration":110456,"Delta":80736337},{"NoteNumber":91,"Velocity":56,"Duration":55228,"SoundDuration":55228,"Delta":80846794},{"NoteNumber":60,"Velocity":26,"Duration":55228,"SoundDuration":55228,"Delta":80846794},{"NoteNumber":77,"Velocity":43,"Duration":209090,"SoundDuration":209090,"Delta":81076459},{"NoteNumber":86,"Velocity":65,"Duration":97049,"SoundDuration":97049,"Delta":81076459},{"NoteNumber":69,"Velocity":35,"Duration":97049,"SoundDuration":97049,"Delta":81076459},{"NoteNumber":60,"Velocity":29,"Duration":209090,"SoundDuration":209090,"Delta":81076459},{"NoteNumber":84,"Velocity":46,"Duration":112040,"SoundDuration":112040,"Delta":81173509},{"NoteNumber":65,"Velocity":33,"Duration":112040,"SoundDuration":112040,"Delta":81173509},{"NoteNumber":89,"Velocity":56,"Duration":56020,"SoundDuration":56020,"Delta":81285549},{"NoteNumber":53,"Velocity":28,"Duration":56020,"SoundDuration":56020,"Delta":81285549},{"NoteNumber":71,"Velocity":43,"Duration":208934,"SoundDuration":208934,"Delta":81515765},{"NoteNumber":79,"Velocity":59,"Duration":98045,"SoundDuration":98045,"Delta":81515765},{"NoteNumber":69,"Velocity":35,"Duration":98045,"SoundDuration":98045,"Delta":81515765},{"NoteNumber":59,"Velocity":28,"Duration":208934,"SoundDuration":208934,"Delta":81515765},{"NoteNumber":78,"Velocity":43,"Duration":110889,"SoundDuration":110889,"Delta":81613811},{"NoteNumber":63,"Velocity":32,"Duration":110889,"SoundDuration":110889,"Delta":81613811},{"NoteNumber":83,"Velocity":54,"Duration":55444,"SoundDuration":55444,"Delta":81724700},{"NoteNumber":47,"Velocity":25,"Duration":55444,"SoundDuration":55444,"Delta":81724700},{"NoteNumber":71,"Velocity":39,"Duration":208431,"SoundDuration":208431,"Delta":81951886},{"NoteNumber":77,"Velocity":58,"Duration":97975,"SoundDuration":97975,"Delta":81951886},{"NoteNumber":68,"Velocity":33,"Duration":97975,"SoundDuration":97975,"Delta":81951886},{"NoteNumber":59,"Velocity":25,"Duration":208431,"SoundDuration":208431,"Delta":81951886},{"NoteNumber":76,"Velocity":44,"Duration":110456,"SoundDuration":110456,"Delta":82049862},{"NoteNumber":62,"Velocity":29,"Duration":110456,"SoundDuration":110456,"Delta":82049862},{"NoteNumber":83,"Velocity":54,"Duration":55228,"SoundDuration":55228,"Delta":82160318},{"NoteNumber":52,"Velocity":24,"Duration":55228,"SoundDuration":55228,"Delta":82160318},{"NoteNumber":69,"Velocity":39,"Duration":209090,"SoundDuration":209090,"Delta":82389983},{"NoteNumber":77,"Velocity":60,"Duration":97049,"SoundDuration":97049,"Delta":82389983},{"NoteNumber":67,"Velocity":33,"Duration":97049,"SoundDuration":97049,"Delta":82389983},{"NoteNumber":57,"Velocity":27,"Duration":209090,"SoundDuration":209090,"Delta":82389983},{"NoteNumber":76,"Velocity":43,"Duration":112040,"SoundDuration":112040,"Delta":82487033},{"NoteNumber":61,"Velocity":31,"Duration":112040,"SoundDuration":112040,"Delta":82487033},{"NoteNumber":81,"Velocity":53,"Duration":56020,"SoundDuration":56020,"Delta":82599074},{"NoteNumber":45,"Velocity":26,"Duration":56020,"SoundDuration":56020,"Delta":82599074},{"NoteNumber":69,"Velocity":39,"Duration":208934,"SoundDuration":208934,"Delta":82829290},{"NoteNumber":76,"Velocity":58,"Duration":98045,"SoundDuration":98045,"Delta":82829290},{"NoteNumber":62,"Velocity":34,"Duration":98045,"SoundDuration":98045,"Delta":82829290},{"NoteNumber":55,"Velocity":27,"Duration":208934,"SoundDuration":208934,"Delta":82829290},{"NoteNumber":74,"Velocity":39,"Duration":110889,"SoundDuration":110889,"Delta":82927335},{"NoteNumber":58,"Velocity":31,"Duration":110889,"SoundDuration":110889,"Delta":82927335},{"NoteNumber":81,"Velocity":51,"Duration":55444,"SoundDuration":55444,"Delta":83038224},{"NoteNumber":46,"Velocity":24,"Duration":55444,"SoundDuration":55444,"Delta":83038224},{"NoteNumber":67,"Velocity":37,"Duration":208431,"SoundDuration":208431,"Delta":83265411},{"NoteNumber":74,"Velocity":57,"Duration":97975,"SoundDuration":97975,"Delta":83265411},{"NoteNumber":64,"Velocity":32,"Duration":97975,"SoundDuration":97975,"Delta":83265411},{"NoteNumber":55,"Velocity":26,"Duration":208431,"SoundDuration":208431,"Delta":83265411},{"NoteNumber":72,"Velocity":44,"Duration":110456,"SoundDuration":110456,"Delta":83363386},{"NoteNumber":58,"Velocity":30,"Duration":110456,"SoundDuration":110456,"Delta":83363386},{"NoteNumber":79,"Velocity":54,"Duration":55228,"SoundDuration":55228,"Delta":83473842},{"NoteNumber":48,"Velocity":24,"Duration":55228,"SoundDuration":55228,"Delta":83473842},{"NoteNumber":65,"Velocity":39,"Duration":209090,"SoundDuration":209090,"Delta":83703507},{"NoteNumber":74,"Velocity":60,"Duration":97049,"SoundDuration":97049,"Delta":83703507},{"NoteNumber":57,"Velocity":33,"Duration":97049,"SoundDuration":97049,"Delta":83703507},{"NoteNumber":48,"Velocity":27,"Duration":209090,"SoundDuration":209090,"Delta":83703507},{"NoteNumber":72,"Velocity":43,"Duration":112040,"SoundDuration":112040,"Delta":83800557},{"NoteNumber":53,"Velocity":31,"Duration":112040,"SoundDuration":112040,"Delta":83800557},{"NoteNumber":77,"Velocity":54,"Duration":230215,"SoundDuration":230215,"Delta":83912598},{"NoteNumber":41,"Velocity":26,"Duration":230215,"SoundDuration":230215,"Delta":83912598},{"NoteNumber":72,"Velocity":43,"Duration":208934,"SoundDuration":208934,"Delta":84142814},{"NoteNumber":79,"Velocity":61,"Duration":98045,"SoundDuration":98045,"Delta":84142814},{"NoteNumber":57,"Velocity":35,"Duration":98045,"SoundDuration":98045,"Delta":84142814},{"NoteNumber":48,"Velocity":27,"Duration":208934,"SoundDuration":208934,"Delta":84142814},{"NoteNumber":77,"Velocity":44,"Duration":110889,"SoundDuration":110889,"Delta":84240859},{"NoteNumber":53,"Velocity":33,"Duration":110889,"SoundDuration":110889,"Delta":84240859},{"NoteNumber":84,"Velocity":55,"Duration":227186,"SoundDuration":227186,"Delta":84351749},{"NoteNumber":41,"Velocity":25,"Duration":227186,"SoundDuration":227186,"Delta":84351749},{"NoteNumber":72,"Velocity":39,"Duration":208431,"SoundDuration":208431,"Delta":84578935},{"NoteNumber":81,"Velocity":61,"Duration":97975,"SoundDuration":97975,"Delta":84578935},{"NoteNumber":58,"Velocity":34,"Duration":97975,"SoundDuration":97975,"Delta":84578935},{"NoteNumber":48,"Velocity":27,"Duration":208431,"SoundDuration":208431,"Delta":84578935},{"NoteNumber":79,"Velocity":46,"Duration":110456,"SoundDuration":110456,"Delta":84676910},{"NoteNumber":52,"Velocity":32,"Duration":110456,"SoundDuration":110456,"Delta":84676910},{"NoteNumber":84,"Velocity":59,"Duration":229664,"SoundDuration":229664,"Delta":84787367},{"NoteNumber":41,"Velocity":25,"Duration":229664,"SoundDuration":229664,"Delta":84787367},{"NoteNumber":72,"Velocity":43,"Duration":209090,"SoundDuration":209090,"Delta":85017032},{"NoteNumber":79,"Velocity":63,"Duration":97049,"SoundDuration":97049,"Delta":85017032},{"NoteNumber":57,"Velocity":35,"Duration":97049,"SoundDuration":97049,"Delta":85017032},{"NoteNumber":48,"Velocity":29,"Duration":209090,"SoundDuration":209090,"Delta":85017032},{"NoteNumber":77,"Velocity":46,"Duration":112040,"SoundDuration":112040,"Delta":85114081},{"NoteNumber":53,"Velocity":33,"Duration":112040,"SoundDuration":112040,"Delta":85114081},{"NoteNumber":84,"Velocity":56,"Duration":230215,"SoundDuration":230215,"Delta":85226122},{"NoteNumber":41,"Velocity":27,"Duration":230215,"SoundDuration":230215,"Delta":85226122},{"NoteNumber":72,"Velocity":43,"Duration":208934,"SoundDuration":208934,"Delta":85456338},{"NoteNumber":79,"Velocity":63,"Duration":98045,"SoundDuration":98045,"Delta":85456338},{"NoteNumber":57,"Velocity":34,"Duration":98045,"SoundDuration":98045,"Delta":85456338},{"NoteNumber":48,"Velocity":27,"Duration":208934,"SoundDuration":208934,"Delta":85456338},{"NoteNumber":77,"Velocity":44,"Duration":110889,"SoundDuration":110889,"Delta":85554384},{"NoteNumber":53,"Velocity":32,"Duration":110889,"SoundDuration":110889,"Delta":85554384},{"NoteNumber":84,"Velocity":54,"Duration":227186,"SoundDuration":227186,"Delta":85665273},{"NoteNumber":41,"Velocity":24,"Duration":227186,"SoundDuration":227186,"Delta":85665273},{"NoteNumber":72,"Velocity":37,"Duration":208431,"SoundDuration":208431,"Delta":85892459},{"NoteNumber":81,"Velocity":58,"Duration":97975,"SoundDuration":97975,"Delta":85892459},{"NoteNumber":58,"Velocity":32,"Duration":97975,"SoundDuration":97975,"Delta":85892459},{"NoteNumber":48,"Velocity":26,"Duration":208431,"SoundDuration":208431,"Delta":85892459},{"NoteNumber":79,"Velocity":44,"Duration":110456,"SoundDuration":110456,"Delta":85990434},{"NoteNumber":52,"Velocity":30,"Duration":110456,"SoundDuration":110456,"Delta":85990434},{"NoteNumber":84,"Velocity":54,"Duration":229664,"SoundDuration":229664,"Delta":86100891},{"NoteNumber":41,"Velocity":23,"Duration":229664,"SoundDuration":229664,"Delta":86100891},{"NoteNumber":72,"Velocity":38,"Duration":209090,"SoundDuration":209090,"Delta":86330556},{"NoteNumber":79,"Velocity":59,"Duration":97049,"SoundDuration":97049,"Delta":86330556},{"NoteNumber":57,"Velocity":33,"Duration":97049,"SoundDuration":97049,"Delta":86330556},{"NoteNumber":48,"Velocity":27,"Duration":209090,"SoundDuration":209090,"Delta":86330556},{"NoteNumber":77,"Velocity":43,"Duration":112040,"SoundDuration":112040,"Delta":86427606},{"NoteNumber":53,"Velocity":31,"Duration":112040,"SoundDuration":112040,"Delta":86427606},{"NoteNumber":84,"Velocity":54,"Duration":230215,"SoundDuration":230215,"Delta":86539646},{"NoteNumber":41,"Velocity":25,"Duration":230215,"SoundDuration":230215,"Delta":86539646},{"NoteNumber":72,"Velocity":40,"Duration":208934,"SoundDuration":208934,"Delta":86769862},{"NoteNumber":79,"Velocity":58,"Duration":98045,"SoundDuration":98045,"Delta":86769862},{"NoteNumber":29,"Velocity":27,"Duration":208934,"SoundDuration":208934,"Delta":86769862},{"NoteNumber":77,"Velocity":40,"Duration":110889,"SoundDuration":110889,"Delta":86867908},{"NoteNumber":84,"Velocity":52,"Duration":227186,"SoundDuration":227186,"Delta":86978797},{"NoteNumber":72,"Velocity":35,"Duration":208431,"SoundDuration":208431,"Delta":87205983},{"NoteNumber":79,"Velocity":56,"Duration":97975,"SoundDuration":97975,"Delta":87205983},{"NoteNumber":41,"Velocity":22,"Duration":438096,"SoundDuration":438096,"Delta":87205983},{"NoteNumber":48,"Velocity":22,"Duration":438096,"SoundDuration":438096,"Delta":87205983},{"NoteNumber":57,"Velocity":26,"Duration":438096,"SoundDuration":438096,"Delta":87205983},{"NoteNumber":77,"Velocity":42,"Duration":110456,"SoundDuration":110456,"Delta":87303959},{"NoteNumber":84,"Velocity":51,"Duration":229664,"SoundDuration":229664,"Delta":87414415},{"NoteNumber":72,"Velocity":37,"Duration":209090,"SoundDuration":209090,"Delta":87644080},{"NoteNumber":79,"Velocity":56,"Duration":48524,"SoundDuration":48524,"Delta":87644080},{"NoteNumber":53,"Velocity":21,"Duration":439306,"SoundDuration":439306,"Delta":87644080},{"NoteNumber":60,"Velocity":21,"Duration":439306,"SoundDuration":439306,"Delta":87644080},{"NoteNumber":69,"Velocity":26,"Duration":439306,"SoundDuration":439306,"Delta":87644080},{"NoteNumber":77,"Velocity":40,"Duration":48524,"SoundDuration":48524,"Delta":87692605},{"NoteNumber":79,"Velocity":46,"Duration":56020,"SoundDuration":56020,"Delta":87741130},{"NoteNumber":77,"Velocity":38,"Duration":56020,"SoundDuration":56020,"Delta":87797150},{"NoteNumber":84,"Velocity":49,"Duration":230215,"SoundDuration":230215,"Delta":87853171},{"NoteNumber":72,"Velocity":37,"Duration":208934,"SoundDuration":208934,"Delta":88083387},{"NoteNumber":79,"Velocity":54,"Duration":49022,"SoundDuration":49022,"Delta":88083387},{"NoteNumber":29,"Velocity":25,"Duration":208934,"SoundDuration":208934,"Delta":88083387},{"NoteNumber":77,"Velocity":37,"Duration":49022,"SoundDuration":49022,"Delta":88132409},{"NoteNumber":79,"Velocity":40,"Duration":55444,"SoundDuration":55444,"Delta":88181432},{"NoteNumber":77,"Velocity":37,"Duration":55444,"SoundDuration":55444,"Delta":88236877},{"NoteNumber":84,"Velocity":47,"Duration":227186,"SoundDuration":227186,"Delta":88292321},{"NoteNumber":72,"Velocity":32,"Duration":208431,"SoundDuration":208431,"Delta":88519508},{"NoteNumber":79,"Velocity":51,"Duration":48987,"SoundDuration":48987,"Delta":88519508},{"NoteNumber":41,"Velocity":19,"Duration":445470,"SoundDuration":445470,"Delta":88519508},{"NoteNumber":48,"Velocity":19,"Duration":445470,"SoundDuration":445470,"Delta":88519508},{"NoteNumber":57,"Velocity":24,"Duration":445470,"SoundDuration":445470,"Delta":88519508},{"NoteNumber":77,"Velocity":37,"Duration":48987,"SoundDuration":48987,"Delta":88568495},{"NoteNumber":79,"Velocity":38,"Duration":55228,"SoundDuration":55228,"Delta":88617483},{"NoteNumber":77,"Velocity":37,"Duration":55228,"SoundDuration":55228,"Delta":88672711},{"NoteNumber":84,"Velocity":46,"Duration":237038,"SoundDuration":237038,"Delta":88727939},{"NoteNumber":72,"Velocity":33,"Duration":216823,"SoundDuration":216823,"Delta":88964978},{"NoteNumber":79,"Velocity":51,"Duration":52510,"SoundDuration":52510,"Delta":88964978},{"NoteNumber":53,"Velocity":18,"Duration":443974,"SoundDuration":443974,"Delta":88964978},{"NoteNumber":60,"Velocity":18,"Duration":443974,"SoundDuration":443974,"Delta":88964978},{"NoteNumber":69,"Velocity":23,"Duration":443974,"SoundDuration":443974,"Delta":88964978},{"NoteNumber":77,"Velocity":36,"Duration":52966,"SoundDuration":52966,"Delta":89017488},{"NoteNumber":79,"Velocity":40,"Duration":55744,"SoundDuration":55744,"Delta":89070454},{"NoteNumber":77,"Velocity":34,"Duration":55602,"SoundDuration":55602,"Delta":89126199},{"NoteNumber":79,"Velocity":48,"Duration":55612,"SoundDuration":55612,"Delta":89181801},{"NoteNumber":84,"Velocity":45,"Duration":227151,"SoundDuration":227151,"Delta":89181801},{"NoteNumber":77,"Velocity":34,"Duration":56139,"SoundDuration":56139,"Delta":89237414},{"NoteNumber":79,"Velocity":48,"Duration":57017,"SoundDuration":57017,"Delta":89293553},{"NoteNumber":77,"Velocity":34,"Duration":58382,"SoundDuration":58382,"Delta":89350570},{"NoteNumber":72,"Velocity":33,"Duration":212265,"SoundDuration":212265,"Delta":89408953},{"NoteNumber":79,"Velocity":47,"Duration":52001,"SoundDuration":52001,"Delta":89408953},{"NoteNumber":77,"Velocity":33,"Duration":52583,"SoundDuration":52583,"Delta":89460954},{"NoteNumber":79,"Velocity":35,"Duration":52816,"SoundDuration":52816,"Delta":89513537},{"NoteNumber":77,"Velocity":33,"Duration":54864,"SoundDuration":54864,"Delta":89566354},{"NoteNumber":79,"Velocity":35,"Duration":55585,"SoundDuration":55585,"Delta":89621218},{"NoteNumber":84,"Velocity":42,"Duration":223319,"SoundDuration":223319,"Delta":89621218},{"NoteNumber":77,"Velocity":33,"Duration":55639,"SoundDuration":55639,"Delta":89676803},{"NoteNumber":79,"Velocity":35,"Duration":56012,"SoundDuration":56012,"Delta":89732442},{"NoteNumber":77,"Velocity":32,"Duration":56082,"SoundDuration":56082,"Delta":89788455},{"NoteNumber":72,"Velocity":28,"Duration":214549,"SoundDuration":214549,"Delta":89844538},{"NoteNumber":79,"Velocity":45,"Duration":51951,"SoundDuration":51951,"Delta":89844538},{"NoteNumber":77,"Velocity":32,"Duration":53033,"SoundDuration":53033,"Delta":89896489},{"NoteNumber":79,"Velocity":34,"Duration":54415,"SoundDuration":54415,"Delta":89949522},{"NoteNumber":77,"Velocity":32,"Duration":55149,"SoundDuration":55149,"Delta":90003938},{"NoteNumber":79,"Velocity":33,"Duration":55030,"SoundDuration":55030,"Delta":90059087},{"NoteNumber":84,"Velocity":40,"Duration":221671,"SoundDuration":221671,"Delta":90059087},{"NoteNumber":77,"Velocity":32,"Duration":55477,"SoundDuration":55477,"Delta":90114117},{"NoteNumber":79,"Velocity":33,"Duration":55433,"SoundDuration":55433,"Delta":90169595},{"NoteNumber":77,"Velocity":31,"Duration":55730,"SoundDuration":55730,"Delta":90225028},{"NoteNumber":72,"Velocity":28,"Duration":216305,"SoundDuration":216305,"Delta":90280758},{"NoteNumber":77,"Velocity":45,"Duration":53808,"SoundDuration":53808,"Delta":90280758},{"NoteNumber":79,"Velocity":32,"Duration":53881,"SoundDuration":53881,"Delta":90334567},{"NoteNumber":77,"Velocity":34,"Duration":54113,"SoundDuration":54113,"Delta":90388449},{"NoteNumber":79,"Velocity":32,"Duration":54500,"SoundDuration":54500,"Delta":90442563},{"NoteNumber":77,"Velocity":33,"Duration":54973,"SoundDuration":54973,"Delta":90497063},{"NoteNumber":79,"Velocity":32,"Duration":55679,"SoundDuration":55679,"Delta":90552037},{"NoteNumber":76,"Velocity":33,"Duration":119208,"SoundDuration":119208,"Delta":90607716},{"NoteNumber":77,"Velocity":44,"Duration":59437,"SoundDuration":59437,"Delta":90726925},{"NoteNumber":80,"Velocity":44,"Duration":59437,"SoundDuration":59437,"Delta":90786362},{"NoteNumber":82,"Velocity":45,"Duration":59686,"SoundDuration":59686,"Delta":90845800},{"NoteNumber":81,"Velocity":46,"Duration":59934,"SoundDuration":59934,"Delta":90905487},{"NoteNumber":83,"Velocity":46,"Duration":60186,"SoundDuration":60186,"Delta":90965422},{"NoteNumber":86,"Velocity":47,"Duration":60357,"SoundDuration":60357,"Delta":91025608},{"NoteNumber":84,"Velocity":48,"Duration":60610,"SoundDuration":60610,"Delta":91085965},{"NoteNumber":88,"Velocity":48,"Duration":60784,"SoundDuration":60784,"Delta":91146576},{"NoteNumber":91,"Velocity":49,"Duration":60870,"SoundDuration":60870,"Delta":91207361},{"NoteNumber":89,"Velocity":50,"Duration":61658,"SoundDuration":61658,"Delta":91268232},{"NoteNumber":92,"Velocity":50,"Duration":62467,"SoundDuration":62467,"Delta":91329890},{"NoteNumber":94,"Velocity":51,"Duration":63293,"SoundDuration":63293,"Delta":91392358},{"NoteNumber":93,"Velocity":51,"Duration":63861,"SoundDuration":63861,"Delta":91455652},{"NoteNumber":95,"Velocity":52,"Duration":64726,"SoundDuration":64726,"Delta":91519513},{"NoteNumber":98,"Velocity":53,"Duration":65619,"SoundDuration":65619,"Delta":91584240},{"NoteNumber":96,"Velocity":53,"Duration":66533,"SoundDuration":66533,"Delta":91649859},{"NoteNumber":101,"Velocity":60,"Duration":750000,"SoundDuration":750000,"Delta":91716393},{"NoteNumber":57,"Velocity":31,"Duration":750000,"SoundDuration":750000,"Delta":93216393},{"NoteNumber":60,"Velocity":31,"Duration":750000,"SoundDuration":750000,"Delta":93216393},{"NoteNumber":69,"Velocity":36,"Duration":750000,"SoundDuration":750000,"Delta":93216393},{"NoteNumber":36,"Velocity":23,"Duration":750000,"SoundDuration":750000,"Delta":93216393},{"NoteNumber":48,"Velocity":29,"Duration":750000,"SoundDuration":750000,"Delta":93216393},{"NoteNumber":57,"Velocity":31,"Duration":2250000,"SoundDuration":2250000,"Delta":93966393},{"NoteNumber":65,"Velocity":31,"Duration":2250000,"SoundDuration":2250000,"Delta":93966393},{"NoteNumber":69,"Velocity":36,"Duration":2250000,"SoundDuration":2250000,"Delta":93966393},{"NoteNumber":29,"Velocity":23,"Duration":2250000,"SoundDuration":2250000,"Delta":93966393},{"NoteNumber":41,"Velocity":29,"Duration":2250000,"SoundDuration":2250000,"Delta":93966393},{"NoteNumber":57,"Velocity":31,"Duration":4000000,"SoundDuration":4000000,"Delta":96216393},{"NoteNumber":65,"Velocity":31,"Duration":4000000,"SoundDuration":4000000,"Delta":96216393},{"NoteNumber":69,"Velocity":36,"Duration":4000000,"SoundDuration":4000000,"Delta":96216393},{"NoteNumber":41,"Velocity":23,"Duration":4000000,"SoundDuration":4000000,"Delta":96216393},{"NoteNumber":48,"Velocity":29,"Duration":4000000,"SoundDuration":4000000,"Delta":96216393}],"license":{"name":"Creative Commons Attribution-ShareAlike 3.0 Germany","url":"http://creativecommons.org/licenses/by-sa/3.0/de/deed.en","text":"The MIDI files in this folder were downloaded from http://www.piano-midi.de and are licensed under the Creative Commons Attribution-ShareAlike 3.0 Germany license by Bernd Krueger.\n\nThe MIDI, audio(MP3, OGG) and video files of Bernd Krueger are licensed under the cc-by-sa Germany License . This means, that you can use and adapt the files, as long as you attribute to the copyright holder Name: Bernd Krueger Source: http://www.piano-midi.de The distribution or public playback of the files is only allowed under identical license conditions . The scores are open source.","attribution":"Bernd Krueger","attributionUrl":"http://www.piano-midi.de"}}