{"title":"Étude in G-flat major, Op. 10 No. 5","artist":"Chopin","durationMs":110468,"midiSha256":"415d891c1ef4692db18c4d062cb1e51c70bec59d792993bbc43e92a6347f9fa2","midiObject":[{"NoteNumber":36,"Velocity":86,"Duration":2807511,"SoundDuration":2807511,"Delta":0},{"NoteNumber":48,"Velocity":103,"Duration":82615,"SoundDuration":82615,"Delta":0},{"NoteNumber":48,"Velocity":77,"Duration":2721304,"SoundDuration":2721304,"Delta":86206},{"NoteNumber":55,"Velocity":80,"Duration":86207,"SoundDuration":86207,"Delta":172413},{"NoteNumber":60,"Velocity":77,"Duration":86206,"SoundDuration":86206,"Delta":258621},{"NoteNumber":64,"Velocity":90,"Duration":86206,"SoundDuration":86206,"Delta":344827},{"NoteNumber":60,"Velocity":77,"Duration":86207,"SoundDuration":86207,"Delta":431034},{"NoteNumber":67,"Velocity":80,"Duration":86206,"SoundDuration":86206,"Delta":517242},{"NoteNumber":72,"Velocity":78,"Duration":86207,"SoundDuration":86207,"Delta":603448},{"NoteNumber":76,"Velocity":93,"Duration":86207,"SoundDuration":86207,"Delta":689655},{"NoteNumber":72,"Velocity":79,"Duration":86206,"SoundDuration":86206,"Delta":775863},{"NoteNumber":79,"Velocity":82,"Duration":86207,"SoundDuration":86207,"Delta":862069},{"NoteNumber":84,"Velocity":80,"Duration":86207,"SoundDuration":86207,"Delta":948276},{"NoteNumber":88,"Velocity":93,"Duration":86206,"SoundDuration":86206,"Delta":1034484},{"NoteNumber":84,"Velocity":80,"Duration":86206,"SoundDuration":86206,"Delta":1120690},{"NoteNumber":91,"Velocity":83,"Duration":86207,"SoundDuration":86207,"Delta":1206897},{"NoteNumber":96,"Velocity":81,"Duration":86206,"SoundDuration":86206,"Delta":1293105},{"NoteNumber":100,"Velocity":95,"Duration":86206,"SoundDuration":86206,"Delta":1379311},{"NoteNumber":96,"Velocity":80,"Duration":86207,"SoundDuration":86207,"Delta":1465518},{"NoteNumber":91,"Velocity":84,"Duration":86206,"SoundDuration":86206,"Delta":1551726},{"NoteNumber":84,"Velocity":80,"Duration":86206,"SoundDuration":86206,"Delta":1637932},{"NoteNumber":88,"Velocity":94,"Duration":86207,"SoundDuration":86207,"Delta":1724139},{"NoteNumber":84,"Velocity":80,"Duration":86206,"SoundDuration":86206,"Delta":1810347},{"NoteNumber":79,"Velocity":83,"Duration":86206,"SoundDuration":86206,"Delta":1896553},{"NoteNumber":72,"Velocity":79,"Duration":86207,"SoundDuration":86207,"Delta":1982760},{"NoteNumber":76,"Velocity":93,"Duration":90090,"SoundDuration":90090,"Delta":2068968},{"NoteNumber":72,"Velocity":79,"Duration":90090,"SoundDuration":90090,"Delta":2159058},{"NoteNumber":67,"Velocity":81,"Duration":90090,"SoundDuration":90090,"Delta":2249148},{"NoteNumber":60,"Velocity":78,"Duration":90090,"SoundDuration":90090,"Delta":2339238},{"NoteNumber":64,"Velocity":92,"Duration":90090,"SoundDuration":90090,"Delta":2429328},{"NoteNumber":60,"Velocity":76,"Duration":90090,"SoundDuration":90090,"Delta":2519418},{"NoteNumber":55,"Velocity":80,"Duration":90090,"SoundDuration":90090,"Delta":2609508},{"NoteNumber":48,"Velocity":77,"Duration":107913,"SoundDuration":107913,"Delta":2699598},{"NoteNumber":29,"Velocity":88,"Duration":1420081,"SoundDuration":1420081,"Delta":2807511},{"NoteNumber":41,"Velocity":104,"Duration":1420081,"SoundDuration":1420081,"Delta":2807511},{"NoteNumber":48,"Velocity":80,"Duration":87209,"SoundDuration":87209,"Delta":2894720},{"NoteNumber":57,"Velocity":80,"Duration":87209,"SoundDuration":87209,"Delta":2981930},{"NoteNumber":60,"Velocity":77,"Duration":87209,"SoundDuration":87209,"Delta":3069139},{"NoteNumber":65,"Velocity":91,"Duration":87209,"SoundDuration":87209,"Delta":3156348},{"NoteNumber":60,"Velocity":77,"Duration":87209,"SoundDuration":87209,"Delta":3243557},{"NoteNumber":69,"Velocity":80,"Duration":87209,"SoundDuration":87209,"Delta":3330767},{"NoteNumber":72,"Velocity":78,"Duration":87209,"SoundDuration":87209,"Delta":3417976},{"NoteNumber":77,"Velocity":93,"Duration":89552,"SoundDuration":89552,"Delta":3505185},{"NoteNumber":72,"Velocity":78,"Duration":89552,"SoundDuration":89552,"Delta":3594738},{"NoteNumber":81,"Velocity":82,"Duration":89552,"SoundDuration":89552,"Delta":3684290},{"NoteNumber":84,"Velocity":80,"Duration":89552,"SoundDuration":89552,"Delta":3773842},{"NoteNumber":89,"Velocity":94,"Duration":89552,"SoundDuration":89552,"Delta":3863394},{"NoteNumber":84,"Velocity":81,"Duration":89552,"SoundDuration":89552,"Delta":3952947},{"NoteNumber":93,"Velocity":83,"Duration":89552,"SoundDuration":89552,"Delta":4042499},{"NoteNumber":96,"Velocity":80,"Duration":95541,"SoundDuration":95541,"Delta":4132051},{"NoteNumber":100,"Velocity":96,"Duration":87209,"SoundDuration":87209,"Delta":4227593},{"NoteNumber":30,"Velocity":85,"Duration":1417229,"SoundDuration":1417229,"Delta":4227593},{"NoteNumber":42,"Velocity":101,"Duration":1417229,"SoundDuration":1417229,"Delta":4227593},{"NoteNumber":96,"Velocity":80,"Duration":87209,"SoundDuration":87209,"Delta":4314802},{"NoteNumber":93,"Velocity":84,"Duration":87209,"SoundDuration":87209,"Delta":4402011},{"NoteNumber":84,"Velocity":80,"Duration":87209,"SoundDuration":87209,"Delta":4489220},{"NoteNumber":88,"Velocity":95,"Duration":87209,"SoundDuration":87209,"Delta":4576430},{"NoteNumber":84,"Velocity":80,"Duration":87209,"SoundDuration":87209,"Delta":4663639},{"NoteNumber":81,"Velocity":83,"Duration":87209,"SoundDuration":87209,"Delta":4750848},{"NoteNumber":72,"Velocity":79,"Duration":87209,"SoundDuration":87209,"Delta":4838057},{"NoteNumber":76,"Velocity":93,"Duration":87209,"SoundDuration":87209,"Delta":4925267},{"NoteNumber":72,"Velocity":78,"Duration":87209,"SoundDuration":87209,"Delta":5012476},{"NoteNumber":69,"Velocity":81,"Duration":87209,"SoundDuration":87209,"Delta":5099685},{"NoteNumber":60,"Velocity":77,"Duration":87209,"SoundDuration":87209,"Delta":5186894},{"NoteNumber":62,"Velocity":92,"Duration":87209,"SoundDuration":87209,"Delta":5274104},{"NoteNumber":60,"Velocity":76,"Duration":87209,"SoundDuration":87209,"Delta":5361313},{"NoteNumber":57,"Velocity":80,"Duration":87209,"SoundDuration":87209,"Delta":5448522},{"NoteNumber":48,"Velocity":77,"Duration":109091,"SoundDuration":109091,"Delta":5535731},{"NoteNumber":31,"Velocity":85,"Duration":707963,"SoundDuration":707963,"Delta":5644822},{"NoteNumber":43,"Velocity":101,"Duration":707963,"SoundDuration":707963,"Delta":5644822},{"NoteNumber":47,"Velocity":80,"Duration":88495,"SoundDuration":88495,"Delta":5733318},{"NoteNumber":55,"Velocity":77,"Duration":88495,"SoundDuration":88495,"Delta":5821813},{"NoteNumber":59,"Velocity":80,"Duration":88495,"SoundDuration":88495,"Delta":5910309},{"NoteNumber":62,"Velocity":90,"Duration":88495,"SoundDuration":88495,"Delta":5998804},{"NoteNumber":59,"Velocity":77,"Duration":88495,"SoundDuration":88495,"Delta":6087300},{"NoteNumber":67,"Velocity":80,"Duration":88495,"SoundDuration":88495,"Delta":6175795},{"NoteNumber":71,"Velocity":78,"Duration":88495,"SoundDuration":88495,"Delta":6264291},{"NoteNumber":74,"Velocity":93,"Duration":92307,"SoundDuration":92307,"Delta":6352786},{"NoteNumber":30,"Velocity":86,"Duration":369231,"SoundDuration":369231,"Delta":6352786},{"NoteNumber":42,"Velocity":102,"Duration":369231,"SoundDuration":369231,"Delta":6352786},{"NoteNumber":71,"Velocity":79,"Duration":92307,"SoundDuration":92307,"Delta":6445094},{"NoteNumber":79,"Velocity":82,"Duration":92307,"SoundDuration":92307,"Delta":6537402},{"NoteNumber":83,"Velocity":80,"Duration":92307,"SoundDuration":92307,"Delta":6629710},{"NoteNumber":86,"Velocity":94,"Duration":94339,"SoundDuration":94339,"Delta":6722017},{"NoteNumber":28,"Velocity":82,"Duration":377358,"SoundDuration":377358,"Delta":6722017},{"NoteNumber":40,"Velocity":97,"Duration":377358,"SoundDuration":377358,"Delta":6722017},{"NoteNumber":83,"Velocity":80,"Duration":94339,"SoundDuration":94339,"Delta":6816357},{"NoteNumber":91,"Velocity":83,"Duration":94339,"SoundDuration":94339,"Delta":6910696},{"NoteNumber":93,"Velocity":79,"Duration":94339,"SoundDuration":94339,"Delta":7005036},{"NoteNumber":98,"Velocity":97,"Duration":90090,"SoundDuration":90090,"Delta":7099375},{"NoteNumber":26,"Velocity":86,"Duration":1449389,"SoundDuration":1449389,"Delta":7099375},{"NoteNumber":38,"Velocity":102,"Duration":1449389,"SoundDuration":1449389,"Delta":7099375},{"NoteNumber":93,"Velocity":80,"Duration":90090,"SoundDuration":90090,"Delta":7189465},{"NoteNumber":90,"Velocity":84,"Duration":90090,"SoundDuration":90090,"Delta":7279555},{"NoteNumber":84,"Velocity":80,"Duration":90090,"SoundDuration":90090,"Delta":7369645},{"NoteNumber":86,"Velocity":95,"Duration":90090,"SoundDuration":90090,"Delta":7459735},{"NoteNumber":81,"Velocity":80,"Duration":90090,"SoundDuration":90090,"Delta":7549825},{"NoteNumber":78,"Velocity":82,"Duration":90090,"SoundDuration":90090,"Delta":7639915},{"NoteNumber":72,"Velocity":79,"Duration":90090,"SoundDuration":90090,"Delta":7730005},{"NoteNumber":74,"Velocity":94,"Duration":90090,"SoundDuration":90090,"Delta":7820095},{"NoteNumber":69,"Velocity":77,"Duration":90089,"SoundDuration":90089,"Delta":7910185},{"NoteNumber":66,"Velocity":81,"Duration":90090,"SoundDuration":90090,"Delta":8000275},{"NoteNumber":60,"Velocity":77,"Duration":90090,"SoundDuration":90090,"Delta":8090365},{"NoteNumber":62,"Velocity":80,"Duration":90090,"SoundDuration":90090,"Delta":8180455},{"NoteNumber":57,"Velocity":80,"Duration":90090,"SoundDuration":90090,"Delta":8270545},{"NoteNumber":54,"Velocity":80,"Duration":90090,"SoundDuration":90090,"Delta":8360635},{"NoteNumber":48,"Velocity":80,"Duration":98039,"SoundDuration":98039,"Delta":8450725},{"NoteNumber":31,"Velocity":85,"Duration":2798391,"SoundDuration":2798391,"Delta":8548765},{"NoteNumber":43,"Velocity":101,"Duration":2798391,"SoundDuration":2798391,"Delta":8548765},{"NoteNumber":48,"Velocity":77,"Duration":86956,"SoundDuration":86956,"Delta":8635721},{"NoteNumber":53,"Velocity":80,"Duration":86956,"SoundDuration":86956,"Delta":8722678},{"NoteNumber":56,"Velocity":77,"Duration":86956,"SoundDuration":86956,"Delta":8809634},{"NoteNumber":62,"Velocity":91,"Duration":86956,"SoundDuration":86956,"Delta":8896590},{"NoteNumber":60,"Velocity":76,"Duration":86956,"SoundDuration":86956,"Delta":8983547},{"NoteNumber":65,"Velocity":80,"Duration":86956,"SoundDuration":86956,"Delta":9070504},{"NoteNumber":68,"Velocity":77,"Duration":86956,"SoundDuration":86956,"Delta":9157460},{"NoteNumber":74,"Velocity":92,"Duration":86956,"SoundDuration":86956,"Delta":9244416},{"NoteNumber":72,"Velocity":78,"Duration":86956,"SoundDuration":86956,"Delta":9331373},{"NoteNumber":77,"Velocity":82,"Duration":86956,"SoundDuration":86956,"Delta":9418330},{"NoteNumber":80,"Velocity":79,"Duration":86956,"SoundDuration":86956,"Delta":9505286},{"NoteNumber":86,"Velocity":93,"Duration":86956,"SoundDuration":86956,"Delta":9592243},{"NoteNumber":84,"Velocity":80,"Duration":86956,"SoundDuration":86956,"Delta":9679199},{"NoteNumber":89,"Velocity":83,"Duration":86956,"SoundDuration":86956,"Delta":9766155},{"NoteNumber":92,"Velocity":80,"Duration":86956,"SoundDuration":86956,"Delta":9853112},{"NoteNumber":98,"Velocity":95,"Duration":86956,"SoundDuration":86956,"Delta":9940069},{"NoteNumber":91,"Velocity":79,"Duration":86956,"SoundDuration":86956,"Delta":10027025},{"NoteNumber":89,"Velocity":84,"Duration":86956,"SoundDuration":86956,"Delta":10113982},{"NoteNumber":83,"Velocity":79,"Duration":86956,"SoundDuration":86956,"Delta":10200938},{"NoteNumber":86,"Velocity":94,"Duration":86956,"SoundDuration":86956,"Delta":10287894},{"NoteNumber":79,"Velocity":79,"Duration":86956,"SoundDuration":86956,"Delta":10374851},{"NoteNumber":77,"Velocity":83,"Duration":86956,"SoundDuration":86956,"Delta":10461808},{"NoteNumber":71,"Velocity":78,"Duration":86956,"SoundDuration":86956,"Delta":10548764},{"NoteNumber":74,"Velocity":93,"Duration":86956,"SoundDuration":86956,"Delta":10635721},{"NoteNumber":67,"Velocity":77,"Duration":86956,"SoundDuration":86956,"Delta":10722677},{"NoteNumber":65,"Velocity":81,"Duration":86956,"SoundDuration":86956,"Delta":10809634},{"NoteNumber":59,"Velocity":77,"Duration":86956,"SoundDuration":86956,"Delta":10896590},{"NoteNumber":63,"Velocity":95,"Duration":86956,"SoundDuration":86956,"Delta":10983547},{"NoteNumber":55,"Velocity":77,"Duration":86956,"SoundDuration":86956,"Delta":11070503},{"NoteNumber":53,"Velocity":80,"Duration":86956,"SoundDuration":86956,"Delta":11157460},{"NoteNumber":47,"Velocity":77,"Duration":102739,"SoundDuration":102739,"Delta":11244416},{"NoteNumber":36,"Velocity":85,"Duration":2776753,"SoundDuration":2776753,"Delta":11347156},{"NoteNumber":48,"Velocity":101,"Duration":82615,"SoundDuration":82615,"Delta":11347156},{"NoteNumber":48,"Velocity":76,"Duration":2690546,"SoundDuration":2690546,"Delta":11433363},{"NoteNumber":55,"Velocity":80,"Duration":86206,"SoundDuration":86206,"Delta":11519570},{"NoteNumber":60,"Velocity":76,"Duration":86206,"SoundDuration":86206,"Delta":11605777},{"NoteNumber":64,"Velocity":85,"Duration":86206,"SoundDuration":86206,"Delta":11691984},{"NoteNumber":60,"Velocity":76,"Duration":86206,"SoundDuration":86206,"Delta":11778191},{"NoteNumber":67,"Velocity":80,"Duration":86206,"SoundDuration":86206,"Delta":11864398},{"NoteNumber":72,"Velocity":78,"Duration":86206,"SoundDuration":86206,"Delta":11950605},{"NoteNumber":76,"Velocity":89,"Duration":86206,"SoundDuration":86206,"Delta":12036812},{"NoteNumber":72,"Velocity":78,"Duration":86206,"SoundDuration":86206,"Delta":12123019},{"NoteNumber":79,"Velocity":82,"Duration":86206,"SoundDuration":86206,"Delta":12209226},{"NoteNumber":84,"Velocity":79,"Duration":86207,"SoundDuration":86207,"Delta":12295433},{"NoteNumber":88,"Velocity":90,"Duration":86206,"SoundDuration":86206,"Delta":12381640},{"NoteNumber":84,"Velocity":80,"Duration":86207,"SoundDuration":86207,"Delta":12467847},{"NoteNumber":91,"Velocity":83,"Duration":86206,"SoundDuration":86206,"Delta":12554054},{"NoteNumber":96,"Velocity":80,"Duration":86206,"SoundDuration":86206,"Delta":12640261},{"NoteNumber":100,"Velocity":92,"Duration":86206,"SoundDuration":86206,"Delta":12726468},{"NoteNumber":96,"Velocity":80,"Duration":86206,"SoundDuration":86206,"Delta":12812675},{"NoteNumber":91,"Velocity":84,"Duration":86206,"SoundDuration":86206,"Delta":12898882},{"NoteNumber":84,"Velocity":80,"Duration":86206,"SoundDuration":86206,"Delta":12985089},{"NoteNumber":88,"Velocity":92,"Duration":86206,"SoundDuration":86206,"Delta":13071296},{"NoteNumber":84,"Velocity":81,"Duration":86206,"SoundDuration":86206,"Delta":13157503},{"NoteNumber":79,"Velocity":83,"Duration":86206,"SoundDuration":86206,"Delta":13243710},{"NoteNumber":72,"Velocity":79,"Duration":86206,"SoundDuration":86206,"Delta":13329917},{"NoteNumber":76,"Velocity":90,"Duration":87463,"SoundDuration":87463,"Delta":13416124},{"NoteNumber":72,"Velocity":78,"Duration":87463,"SoundDuration":87463,"Delta":13503587},{"NoteNumber":67,"Velocity":81,"Duration":87463,"SoundDuration":87463,"Delta":13591051},{"NoteNumber":60,"Velocity":77,"Duration":87463,"SoundDuration":87463,"Delta":13678514},{"NoteNumber":64,"Velocity":89,"Duration":87463,"SoundDuration":87463,"Delta":13765978},{"NoteNumber":60,"Velocity":77,"Duration":87463,"SoundDuration":87463,"Delta":13853441},{"NoteNumber":55,"Velocity":80,"Duration":87463,"SoundDuration":87463,"Delta":13940905},{"NoteNumber":48,"Velocity":77,"Duration":95541,"SoundDuration":95541,"Delta":14028368},{"NoteNumber":33,"Velocity":86,"Duration":2792115,"SoundDuration":2792115,"Delta":14123910},{"NoteNumber":45,"Velocity":103,"Duration":2792115,"SoundDuration":2792115,"Delta":14123910},{"NoteNumber":48,"Velocity":77,"Duration":86705,"SoundDuration":86705,"Delta":14210615},{"NoteNumber":53,"Velocity":80,"Duration":86705,"SoundDuration":86705,"Delta":14297320},{"NoteNumber":60,"Velocity":77,"Duration":86705,"SoundDuration":86705,"Delta":14384025},{"NoteNumber":65,"Velocity":87,"Duration":86705,"SoundDuration":86705,"Delta":14470731},{"NoteNumber":60,"Velocity":76,"Duration":86705,"SoundDuration":86705,"Delta":14557436},{"NoteNumber":65,"Velocity":80,"Duration":86705,"SoundDuration":86705,"Delta":14644141},{"NoteNumber":72,"Velocity":77,"Duration":86705,"SoundDuration":86705,"Delta":14730846},{"NoteNumber":77,"Velocity":89,"Duration":86705,"SoundDuration":86705,"Delta":14817552},{"NoteNumber":72,"Velocity":77,"Duration":86705,"SoundDuration":86705,"Delta":14904257},{"NoteNumber":77,"Velocity":82,"Duration":86705,"SoundDuration":86705,"Delta":14990962},{"NoteNumber":84,"Velocity":79,"Duration":86705,"SoundDuration":86705,"Delta":15077667},{"NoteNumber":89,"Velocity":92,"Duration":86705,"SoundDuration":86705,"Delta":15164373},{"NoteNumber":84,"Velocity":80,"Duration":86705,"SoundDuration":86705,"Delta":15251078},{"NoteNumber":89,"Velocity":83,"Duration":86705,"SoundDuration":86705,"Delta":15337783},{"NoteNumber":96,"Velocity":80,"Duration":86705,"SoundDuration":86705,"Delta":15424488},{"NoteNumber":100,"Velocity":93,"Duration":87463,"SoundDuration":87463,"Delta":15511194},{"NoteNumber":96,"Velocity":80,"Duration":87463,"SoundDuration":87463,"Delta":15598657},{"NoteNumber":90,"Velocity":84,"Duration":87463,"SoundDuration":87463,"Delta":15686121},{"NoteNumber":84,"Velocity":79,"Duration":87463,"SoundDuration":87463,"Delta":15773584},{"NoteNumber":88,"Velocity":93,"Duration":87463,"SoundDuration":87463,"Delta":15861048},{"NoteNumber":84,"Velocity":80,"Duration":87463,"SoundDuration":87463,"Delta":15948511},{"NoteNumber":78,"Velocity":83,"Duration":87463,"SoundDuration":87463,"Delta":16035975},{"NoteNumber":72,"Velocity":79,"Duration":87463,"SoundDuration":87463,"Delta":16123438},{"NoteNumber":76,"Velocity":90,"Duration":87463,"SoundDuration":87463,"Delta":16210902},{"NoteNumber":72,"Velocity":79,"Duration":87463,"SoundDuration":87463,"Delta":16298365},{"NoteNumber":66,"Velocity":81,"Duration":87463,"SoundDuration":87463,"Delta":16385829},{"NoteNumber":60,"Velocity":78,"Duration":87463,"SoundDuration":87463,"Delta":16473292},{"NoteNumber":64,"Velocity":89,"Duration":87463,"SoundDuration":87463,"Delta":16560756},{"NoteNumber":60,"Velocity":77,"Duration":87463,"SoundDuration":87463,"Delta":16648219},{"NoteNumber":54,"Velocity":80,"Duration":87463,"SoundDuration":87463,"Delta":16735683},{"NoteNumber":48,"Velocity":77,"Duration":92879,"SoundDuration":92879,"Delta":16823146},{"NoteNumber":31,"Velocity":81,"Duration":2812082,"SoundDuration":2812082,"Delta":16916025},{"NoteNumber":43,"Velocity":96,"Duration":2812082,"SoundDuration":2812082,"Delta":16916025},{"NoteNumber":48,"Velocity":73,"Duration":87209,"SoundDuration":87209,"Delta":17003235},{"NoteNumber":55,"Velocity":76,"Duration":87209,"SoundDuration":87209,"Delta":17090444},{"NoteNumber":60,"Velocity":74,"Duration":87209,"SoundDuration":87209,"Delta":17177653},{"NoteNumber":62,"Velocity":81,"Duration":87209,"SoundDuration":87209,"Delta":17264862},{"NoteNumber":60,"Velocity":73,"Duration":87209,"SoundDuration":87209,"Delta":17352072},{"NoteNumber":67,"Velocity":76,"Duration":87209,"SoundDuration":87209,"Delta":17439281},{"NoteNumber":72,"Velocity":74,"Duration":87209,"SoundDuration":87209,"Delta":17526490},{"NoteNumber":74,"Velocity":86,"Duration":87209,"SoundDuration":87209,"Delta":17613699},{"NoteNumber":72,"Velocity":74,"Duration":87209,"SoundDuration":87209,"Delta":17700909},{"NoteNumber":79,"Velocity":77,"Duration":87209,"SoundDuration":87209,"Delta":17788118},{"NoteNumber":84,"Velocity":75,"Duration":87209,"SoundDuration":87209,"Delta":17875327},{"NoteNumber":86,"Velocity":88,"Duration":87209,"SoundDuration":87209,"Delta":17962536},{"NoteNumber":84,"Velocity":76,"Duration":87209,"SoundDuration":87209,"Delta":18049746},{"NoteNumber":91,"Velocity":78,"Duration":87209,"SoundDuration":87209,"Delta":18136955},{"NoteNumber":96,"Velocity":76,"Duration":87209,"SoundDuration":87209,"Delta":18224164},{"NoteNumber":98,"Velocity":89,"Duration":87976,"SoundDuration":87976,"Delta":18311373},{"NoteNumber":95,"Velocity":76,"Duration":87976,"SoundDuration":87976,"Delta":18399350},{"NoteNumber":91,"Velocity":79,"Duration":87976,"SoundDuration":87976,"Delta":18487326},{"NoteNumber":83,"Velocity":75,"Duration":87976,"SoundDuration":87976,"Delta":18575303},{"NoteNumber":86,"Velocity":87,"Duration":87976,"SoundDuration":87976,"Delta":18663279},{"NoteNumber":83,"Velocity":75,"Duration":87976,"SoundDuration":87976,"Delta":18751256},{"NoteNumber":79,"Velocity":78,"Duration":87976,"SoundDuration":87976,"Delta":18839232},{"NoteNumber":71,"Velocity":74,"Duration":87976,"SoundDuration":87976,"Delta":18927209},{"NoteNumber":74,"Velocity":86,"Duration":87976,"SoundDuration":87976,"Delta":19015185},{"NoteNumber":71,"Velocity":75,"Duration":87976,"SoundDuration":87976,"Delta":19103162},{"NoteNumber":67,"Velocity":76,"Duration":87976,"SoundDuration":87976,"Delta":19191138},{"NoteNumber":59,"Velocity":74,"Duration":87976,"SoundDuration":87976,"Delta":19279115},{"NoteNumber":62,"Velocity":83,"Duration":87976,"SoundDuration":87976,"Delta":19367091},{"NoteNumber":59,"Velocity":73,"Duration":87976,"SoundDuration":87976,"Delta":19455068},{"NoteNumber":55,"Velocity":76,"Duration":87976,"SoundDuration":87976,"Delta":19543044},{"NoteNumber":47,"Velocity":71,"Duration":97087,"SoundDuration":97087,"Delta":19631021},{"NoteNumber":36,"Velocity":81,"Duration":2779122,"SoundDuration":2779122,"Delta":19728108},{"NoteNumber":48,"Velocity":96,"Duration":2779122,"SoundDuration":2779122,"Delta":19728108},{"NoteNumber":50,"Velocity":76,"Duration":86455,"SoundDuration":86455,"Delta":19814564},{"NoteNumber":55,"Velocity":73,"Duration":86455,"SoundDuration":86455,"Delta":19901019},{"NoteNumber":62,"Velocity":76,"Duration":86455,"SoundDuration":86455,"Delta":19987474},{"NoteNumber":64,"Velocity":77,"Duration":86455,"SoundDuration":86455,"Delta":20073929},{"NoteNumber":62,"Velocity":70,"Duration":86455,"SoundDuration":86455,"Delta":20160385},{"NoteNumber":67,"Velocity":75,"Duration":86455,"SoundDuration":86455,"Delta":20246840},{"NoteNumber":74,"Velocity":72,"Duration":86455,"SoundDuration":86455,"Delta":20333295},{"NoteNumber":76,"Velocity":77,"Duration":86455,"SoundDuration":86455,"Delta":20419750},{"NoteNumber":74,"Velocity":72,"Duration":86455,"SoundDuration":86455,"Delta":20506206},{"NoteNumber":79,"Velocity":74,"Duration":86455,"SoundDuration":86455,"Delta":20592661},{"NoteNumber":86,"Velocity":72,"Duration":86455,"SoundDuration":86455,"Delta":20679116},{"NoteNumber":88,"Velocity":80,"Duration":86455,"SoundDuration":86455,"Delta":20765571},{"NoteNumber":86,"Velocity":72,"Duration":86455,"SoundDuration":86455,"Delta":20852027},{"NoteNumber":91,"Velocity":74,"Duration":86455,"SoundDuration":86455,"Delta":20938482},{"NoteNumber":98,"Velocity":72,"Duration":86455,"SoundDuration":86455,"Delta":21024937},{"NoteNumber":100,"Velocity":78,"Duration":86455,"SoundDuration":86455,"Delta":21111392},{"NoteNumber":96,"Velocity":69,"Duration":86455,"SoundDuration":86455,"Delta":21197848},{"NoteNumber":91,"Velocity":73,"Duration":86455,"SoundDuration":86455,"Delta":21284303},{"NoteNumber":84,"Velocity":69,"Duration":86455,"SoundDuration":86455,"Delta":21370758},{"NoteNumber":88,"Velocity":78,"Duration":86455,"SoundDuration":86455,"Delta":21457213},{"NoteNumber":84,"Velocity":68,"Duration":86455,"SoundDuration":86455,"Delta":21543669},{"NoteNumber":79,"Velocity":71,"Duration":86455,"SoundDuration":86455,"Delta":21630124},{"NoteNumber":72,"Velocity":65,"Duration":86455,"SoundDuration":86455,"Delta":21716579},{"NoteNumber":76,"Velocity":75,"Duration":86455,"SoundDuration":86455,"Delta":21803034},{"NoteNumber":72,"Velocity":66,"Duration":86455,"SoundDuration":86455,"Delta":21889490},{"NoteNumber":67,"Velocity":69,"Duration":86455,"SoundDuration":86455,"Delta":21975945},{"NoteNumber":60,"Velocity":64,"Duration":86455,"SoundDuration":86455,"Delta":22062400},{"NoteNumber":64,"Velocity":71,"Duration":86455,"SoundDuration":86455,"Delta":22148855},{"NoteNumber":60,"Velocity":64,"Duration":86455,"SoundDuration":86455,"Delta":22235311},{"NoteNumber":55,"Velocity":67,"Duration":86455,"SoundDuration":86455,"Delta":22321766},{"NoteNumber":48,"Velocity":60,"Duration":99009,"SoundDuration":99009,"Delta":22408221},{"NoteNumber":33,"Velocity":58,"Duration":1385129,"SoundDuration":1385129,"Delta":22507231},{"NoteNumber":45,"Velocity":69,"Duration":1385129,"SoundDuration":1385129,"Delta":22507231},{"NoteNumber":52,"Velocity":50,"Duration":86206,"SoundDuration":86206,"Delta":22593438},{"NoteNumber":60,"Velocity":54,"Duration":86207,"SoundDuration":86207,"Delta":22679645},{"NoteNumber":64,"Velocity":53,"Duration":86206,"SoundDuration":86206,"Delta":22765852},{"NoteNumber":65,"Velocity":59,"Duration":86207,"SoundDuration":86207,"Delta":22852059},{"NoteNumber":64,"Velocity":51,"Duration":86206,"SoundDuration":86206,"Delta":22938266},{"NoteNumber":72,"Velocity":54,"Duration":86207,"SoundDuration":86207,"Delta":23024473},{"NoteNumber":76,"Velocity":52,"Duration":86206,"SoundDuration":86206,"Delta":23110680},{"NoteNumber":77,"Velocity":61,"Duration":86207,"SoundDuration":86207,"Delta":23196887},{"NoteNumber":76,"Velocity":51,"Duration":86206,"SoundDuration":86206,"Delta":23283094},{"NoteNumber":84,"Velocity":56,"Duration":86207,"SoundDuration":86207,"Delta":23369301},{"NoteNumber":88,"Velocity":52,"Duration":86206,"SoundDuration":86206,"Delta":23455508},{"NoteNumber":89,"Velocity":62,"Duration":86207,"SoundDuration":86207,"Delta":23541715},{"NoteNumber":88,"Velocity":54,"Duration":86206,"SoundDuration":86206,"Delta":23627922},{"NoteNumber":96,"Velocity":56,"Duration":86207,"SoundDuration":86207,"Delta":23714129},{"NoteNumber":100,"Velocity":52,"Duration":92024,"SoundDuration":92024,"Delta":23800336},{"NoteNumber":101,"Velocity":63,"Duration":87463,"SoundDuration":87463,"Delta":23892361},{"NoteNumber":35,"Velocity":58,"Duration":699708,"SoundDuration":699708,"Delta":23892361},{"NoteNumber":47,"Velocity":69,"Duration":699708,"SoundDuration":699708,"Delta":23892361},{"NoteNumber":98,"Velocity":53,"Duration":87463,"SoundDuration":87463,"Delta":23979824},{"NoteNumber":95,"Velocity":56,"Duration":87463,"SoundDuration":87463,"Delta":24067288},{"NoteNumber":86,"Velocity":53,"Duration":87463,"SoundDuration":87463,"Delta":24154751},{"NoteNumber":89,"Velocity":62,"Duration":87463,"SoundDuration":87463,"Delta":24242215},{"NoteNumber":86,"Velocity":53,"Duration":87463,"SoundDuration":87463,"Delta":24329678},{"NoteNumber":83,"Velocity":56,"Duration":87463,"SoundDuration":87463,"Delta":24417142},{"NoteNumber":74,"Velocity":52,"Duration":87463,"SoundDuration":87463,"Delta":24504605},{"NoteNumber":77,"Velocity":61,"Duration":89285,"SoundDuration":89285,"Delta":24592069},{"NoteNumber":33,"Velocity":58,"Duration":719936,"SoundDuration":719936,"Delta":24592069},{"NoteNumber":45,"Velocity":69,"Duration":719936,"SoundDuration":719936,"Delta":24592069},{"NoteNumber":74,"Velocity":51,"Duration":89285,"SoundDuration":89285,"Delta":24681354},{"NoteNumber":71,"Velocity":55,"Duration":89285,"SoundDuration":89285,"Delta":24770640},{"NoteNumber":62,"Velocity":51,"Duration":89285,"SoundDuration":89285,"Delta":24859926},{"NoteNumber":65,"Velocity":60,"Duration":89285,"SoundDuration":89285,"Delta":24949212},{"NoteNumber":62,"Velocity":50,"Duration":89285,"SoundDuration":89285,"Delta":25038497},{"NoteNumber":59,"Velocity":54,"Duration":89285,"SoundDuration":89285,"Delta":25127783},{"NoteNumber":50,"Velocity":51,"Duration":94936,"SoundDuration":94936,"Delta":25217069},{"NoteNumber":32,"Velocity":58,"Duration":1379311,"SoundDuration":1379311,"Delta":25312006},{"NoteNumber":44,"Velocity":69,"Duration":1379311,"SoundDuration":1379311,"Delta":25312006},{"NoteNumber":50,"Velocity":51,"Duration":86206,"SoundDuration":86206,"Delta":25398213},{"NoteNumber":59,"Velocity":54,"Duration":86207,"SoundDuration":86207,"Delta":25484420},{"NoteNumber":62,"Velocity":51,"Duration":86206,"SoundDuration":86206,"Delta":25570627},{"NoteNumber":64,"Velocity":64,"Duration":86207,"SoundDuration":86207,"Delta":25656834},{"NoteNumber":62,"Velocity":51,"Duration":86206,"SoundDuration":86206,"Delta":25743041},{"NoteNumber":71,"Velocity":55,"Duration":86207,"SoundDuration":86207,"Delta":25829248},{"NoteNumber":74,"Velocity":53,"Duration":86206,"SoundDuration":86206,"Delta":25915455},{"NoteNumber":76,"Velocity":66,"Duration":86207,"SoundDuration":86207,"Delta":26001662},{"NoteNumber":74,"Velocity":52,"Duration":86206,"SoundDuration":86206,"Delta":26087869},{"NoteNumber":83,"Velocity":58,"Duration":86207,"SoundDuration":86207,"Delta":26174076},{"NoteNumber":86,"Velocity":53,"Duration":86206,"SoundDuration":86206,"Delta":26260283},{"NoteNumber":88,"Velocity":66,"Duration":86207,"SoundDuration":86207,"Delta":26346490},{"NoteNumber":86,"Velocity":54,"Duration":86206,"SoundDuration":86206,"Delta":26432697},{"NoteNumber":95,"Velocity":59,"Duration":86207,"SoundDuration":86207,"Delta":26518904},{"NoteNumber":98,"Velocity":55,"Duration":86206,"SoundDuration":86206,"Delta":26605111},{"NoteNumber":100,"Velocity":68,"Duration":87209,"SoundDuration":87209,"Delta":26691318},{"NoteNumber":33,"Velocity":60,"Duration":697673,"SoundDuration":697673,"Delta":26691318},{"NoteNumber":45,"Velocity":72,"Duration":697673,"SoundDuration":697673,"Delta":26691318},{"NoteNumber":96,"Velocity":57,"Duration":87209,"SoundDuration":87209,"Delta":26778527},{"NoteNumber":93,"Velocity":59,"Duration":87209,"SoundDuration":87209,"Delta":26865736},{"NoteNumber":84,"Velocity":57,"Duration":87209,"SoundDuration":87209,"Delta":26952945},{"NoteNumber":88,"Velocity":71,"Duration":87209,"SoundDuration":87209,"Delta":27040155},{"NoteNumber":84,"Velocity":58,"Duration":87209,"SoundDuration":87209,"Delta":27127364},{"NoteNumber":81,"Velocity":63,"Duration":87209,"SoundDuration":87209,"Delta":27214573},{"NoteNumber":72,"Velocity":61,"Duration":87209,"SoundDuration":87209,"Delta":27301782},{"NoteNumber":76,"Velocity":74,"Duration":87209,"SoundDuration":87209,"Delta":27388992},{"NoteNumber":31,"Velocity":67,"Duration":697673,"SoundDuration":697673,"Delta":27388992},{"NoteNumber":43,"Velocity":79,"Duration":697673,"SoundDuration":697673,"Delta":27388992},{"NoteNumber":72,"Velocity":61,"Duration":87209,"SoundDuration":87209,"Delta":27476201},{"NoteNumber":69,"Velocity":66,"Duration":87209,"SoundDuration":87209,"Delta":27563410},{"NoteNumber":60,"Velocity":61,"Duration":87209,"SoundDuration":87209,"Delta":27650619},{"NoteNumber":64,"Velocity":77,"Duration":87209,"SoundDuration":87209,"Delta":27737829},{"NoteNumber":60,"Velocity":63,"Duration":87209,"SoundDuration":87209,"Delta":27825038},{"NoteNumber":57,"Velocity":69,"Duration":87209,"SoundDuration":87209,"Delta":27912247},{"NoteNumber":48,"Velocity":64,"Duration":87209,"SoundDuration":87209,"Delta":27999456},{"NoteNumber":29,"Velocity":76,"Duration":2806067,"SoundDuration":2806067,"Delta":28086666},{"NoteNumber":41,"Velocity":90,"Duration":2806067,"SoundDuration":2806067,"Delta":28086666},{"NoteNumber":48,"Velocity":65,"Duration":87209,"SoundDuration":87209,"Delta":28173875},{"NoteNumber":57,"Velocity":72,"Duration":87209,"SoundDuration":87209,"Delta":28261084},{"NoteNumber":60,"Velocity":66,"Duration":87209,"SoundDuration":87209,"Delta":28348293},{"NoteNumber":64,"Velocity":82,"Duration":87209,"SoundDuration":87209,"Delta":28435503},{"NoteNumber":60,"Velocity":67,"Duration":87209,"SoundDuration":87209,"Delta":28522712},{"NoteNumber":69,"Velocity":72,"Duration":87209,"SoundDuration":87209,"Delta":28609921},{"NoteNumber":72,"Velocity":68,"Duration":87209,"SoundDuration":87209,"Delta":28697130},{"NoteNumber":76,"Velocity":82,"Duration":87209,"SoundDuration":87209,"Delta":28784340},{"NoteNumber":72,"Velocity":69,"Duration":87209,"SoundDuration":87209,"Delta":28871549},{"NoteNumber":81,"Velocity":73,"Duration":87209,"SoundDuration":87209,"Delta":28958758},{"NoteNumber":84,"Velocity":70,"Duration":87209,"SoundDuration":87209,"Delta":29045967},{"NoteNumber":88,"Velocity":83,"Duration":87209,"SoundDuration":87209,"Delta":29133177},{"NoteNumber":84,"Velocity":71,"Duration":87209,"SoundDuration":87209,"Delta":29220386},{"NoteNumber":93,"Velocity":74,"Duration":87209,"SoundDuration":87209,"Delta":29307595},{"NoteNumber":96,"Velocity":71,"Duration":87209,"SoundDuration":87209,"Delta":29394804},{"NoteNumber":99,"Velocity":86,"Duration":87209,"SoundDuration":87209,"Delta":29482014},{"NoteNumber":95,"Velocity":71,"Duration":87209,"SoundDuration":87209,"Delta":29569223},{"NoteNumber":93,"Velocity":75,"Duration":87209,"SoundDuration":87209,"Delta":29656432},{"NoteNumber":83,"Velocity":68,"Duration":87209,"SoundDuration":87209,"Delta":29743641},{"NoteNumber":87,"Velocity":78,"Duration":87209,"SoundDuration":87209,"Delta":29830851},{"NoteNumber":83,"Velocity":63,"Duration":87209,"SoundDuration":87209,"Delta":29918060},{"NoteNumber":81,"Velocity":67,"Duration":87209,"SoundDuration":87209,"Delta":30005269},{"NoteNumber":71,"Velocity":62,"Duration":87209,"SoundDuration":87209,"Delta":30092478},{"NoteNumber":75,"Velocity":72,"Duration":88757,"SoundDuration":88757,"Delta":30179688},{"NoteNumber":71,"Velocity":59,"Duration":88757,"SoundDuration":88757,"Delta":30268445},{"NoteNumber":69,"Velocity":63,"Duration":88757,"SoundDuration":88757,"Delta":30357203},{"NoteNumber":59,"Velocity":55,"Duration":88757,"SoundDuration":88757,"Delta":30445960},{"NoteNumber":63,"Velocity":61,"Duration":88757,"SoundDuration":88757,"Delta":30534718},{"NoteNumber":59,"Velocity":57,"Duration":88757,"SoundDuration":88757,"Delta":30623475},{"NoteNumber":57,"Velocity":56,"Duration":88757,"SoundDuration":88757,"Delta":30712233},{"NoteNumber":47,"Velocity":52,"Duration":91743,"SoundDuration":91743,"Delta":30800990},{"NoteNumber":28,"Velocity":57,"Duration":2802832,"SoundDuration":2802832,"Delta":30892733},{"NoteNumber":40,"Velocity":68,"Duration":2802832,"SoundDuration":2802832,"Delta":30892733},{"NoteNumber":47,"Velocity":50,"Duration":87463,"SoundDuration":87463,"Delta":30980197},{"NoteNumber":57,"Velocity":54,"Duration":87463,"SoundDuration":87463,"Delta":31067660},{"NoteNumber":59,"Velocity":50,"Duration":87463,"SoundDuration":87463,"Delta":31155124},{"NoteNumber":64,"Velocity":61,"Duration":87463,"SoundDuration":87463,"Delta":31242587},{"NoteNumber":59,"Velocity":50,"Duration":87463,"SoundDuration":87463,"Delta":31330051},{"NoteNumber":69,"Velocity":54,"Duration":87463,"SoundDuration":87463,"Delta":31417514},{"NoteNumber":71,"Velocity":49,"Duration":87463,"SoundDuration":87463,"Delta":31504978},{"NoteNumber":76,"Velocity":62,"Duration":87463,"SoundDuration":87463,"Delta":31592441},{"NoteNumber":71,"Velocity":50,"Duration":87463,"SoundDuration":87463,"Delta":31679905},{"NoteNumber":81,"Velocity":54,"Duration":87463,"SoundDuration":87463,"Delta":31767368},{"NoteNumber":83,"Velocity":50,"Duration":87463,"SoundDuration":87463,"Delta":31854832},{"NoteNumber":88,"Velocity":62,"Duration":87463,"SoundDuration":87463,"Delta":31942295},{"NoteNumber":83,"Velocity":50,"Duration":87463,"SoundDuration":87463,"Delta":32029759},{"NoteNumber":93,"Velocity":54,"Duration":87463,"SoundDuration":87463,"Delta":32117222},{"NoteNumber":95,"Velocity":50,"Duration":87463,"SoundDuration":87463,"Delta":32204686},{"NoteNumber":100,"Velocity":62,"Duration":87463,"SoundDuration":87463,"Delta":32292149},{"NoteNumber":95,"Velocity":49,"Duration":87463,"SoundDuration":87463,"Delta":32379613},{"NoteNumber":92,"Velocity":54,"Duration":87463,"SoundDuration":87463,"Delta":32467076},{"NoteNumber":83,"Velocity":49,"Duration":87463,"SoundDuration":87463,"Delta":32554540},{"NoteNumber":88,"Velocity":61,"Duration":87463,"SoundDuration":87463,"Delta":32642003},{"NoteNumber":83,"Velocity":50,"Duration":87463,"SoundDuration":87463,"Delta":32729467},{"NoteNumber":80,"Velocity":54,"Duration":87463,"SoundDuration":87463,"Delta":32816930},{"NoteNumber":71,"Velocity":50,"Duration":87463,"SoundDuration":87463,"Delta":32904394},{"NoteNumber":76,"Velocity":61,"Duration":87463,"SoundDuration":87463,"Delta":32991857},{"NoteNumber":71,"Velocity":50,"Duration":87463,"SoundDuration":87463,"Delta":33079321},{"NoteNumber":68,"Velocity":54,"Duration":87463,"SoundDuration":87463,"Delta":33166784},{"NoteNumber":59,"Velocity":50,"Duration":87463,"SoundDuration":87463,"Delta":33254248},{"NoteNumber":64,"Velocity":53,"Duration":87463,"SoundDuration":87463,"Delta":33341711},{"NoteNumber":59,"Velocity":50,"Duration":87463,"SoundDuration":87463,"Delta":33429175},{"NoteNumber":56,"Velocity":54,"Duration":87463,"SoundDuration":87463,"Delta":33516638},{"NoteNumber":47,"Velocity":49,"Duration":91463,"SoundDuration":91463,"Delta":33604102},{"NoteNumber":33,"Velocity":57,"Duration":1379311,"SoundDuration":1379311,"Delta":33695565},{"NoteNumber":45,"Velocity":68,"Duration":1379311,"SoundDuration":1379311,"Delta":33695565},{"NoteNumber":52,"Velocity":50,"Duration":86207,"SoundDuration":86207,"Delta":33781772},{"NoteNumber":57,"Velocity":54,"Duration":86206,"SoundDuration":86206,"Delta":33867979},{"NoteNumber":61,"Velocity":50,"Duration":86207,"SoundDuration":86207,"Delta":33954186},{"NoteNumber":67,"Velocity":61,"Duration":86207,"SoundDuration":86207,"Delta":34040393},{"NoteNumber":64,"Velocity":50,"Duration":86207,"SoundDuration":86207,"Delta":34126600},{"NoteNumber":69,"Velocity":54,"Duration":86206,"SoundDuration":86206,"Delta":34212807},{"NoteNumber":73,"Velocity":51,"Duration":86207,"SoundDuration":86207,"Delta":34299014},{"NoteNumber":79,"Velocity":62,"Duration":86207,"SoundDuration":86207,"Delta":34385221},{"NoteNumber":76,"Velocity":50,"Duration":86207,"SoundDuration":86207,"Delta":34471428},{"NoteNumber":81,"Velocity":55,"Duration":86206,"SoundDuration":86206,"Delta":34557635},{"NoteNumber":85,"Velocity":50,"Duration":86207,"SoundDuration":86207,"Delta":34643842},{"NoteNumber":91,"Velocity":63,"Duration":86207,"SoundDuration":86207,"Delta":34730049},{"NoteNumber":85,"Velocity":52,"Duration":86207,"SoundDuration":86207,"Delta":34816256},{"NoteNumber":81,"Velocity":57,"Duration":86206,"SoundDuration":86206,"Delta":34902463},{"NoteNumber":76,"Velocity":52,"Duration":86207,"SoundDuration":86207,"Delta":34988670},{"NoteNumber":91,"Velocity":65,"Duration":86705,"SoundDuration":86705,"Delta":35074877},{"NoteNumber":38,"Velocity":58,"Duration":1391315,"SoundDuration":1391315,"Delta":35074877},{"NoteNumber":50,"Velocity":69,"Duration":1391315,"SoundDuration":1391315,"Delta":35074877},{"NoteNumber":84,"Velocity":52,"Duration":86705,"SoundDuration":86705,"Delta":35161582},{"NoteNumber":81,"Velocity":57,"Duration":86705,"SoundDuration":86705,"Delta":35248288},{"NoteNumber":76,"Velocity":52,"Duration":86705,"SoundDuration":86705,"Delta":35334993},{"NoteNumber":79,"Velocity":65,"Duration":86705,"SoundDuration":86705,"Delta":35421698},{"NoteNumber":72,"Velocity":53,"Duration":86705,"SoundDuration":86705,"Delta":35508403},{"NoteNumber":69,"Velocity":57,"Duration":86705,"SoundDuration":86705,"Delta":35595109},{"NoteNumber":64,"Velocity":53,"Duration":86705,"SoundDuration":86705,"Delta":35681814},{"NoteNumber":67,"Velocity":65,"Duration":87209,"SoundDuration":87209,"Delta":35768519},{"NoteNumber":60,"Velocity":53,"Duration":87209,"SoundDuration":87209,"Delta":35855728},{"NoteNumber":57,"Velocity":57,"Duration":87209,"SoundDuration":87209,"Delta":35942938},{"NoteNumber":52,"Velocity":53,"Duration":87209,"SoundDuration":87209,"Delta":36030147},{"NoteNumber":66,"Velocity":64,"Duration":87209,"SoundDuration":87209,"Delta":36117356},{"NoteNumber":60,"Velocity":56,"Duration":87209,"SoundDuration":87209,"Delta":36204565},{"NoteNumber":57,"Velocity":56,"Duration":87209,"SoundDuration":87209,"Delta":36291775},{"NoteNumber":50,"Velocity":52,"Duration":87209,"SoundDuration":87209,"Delta":36378984},{"NoteNumber":31,"Velocity":67,"Duration":2762237,"SoundDuration":2762237,"Delta":36466193},{"NoteNumber":43,"Velocity":80,"Duration":2762237,"SoundDuration":2762237,"Delta":36466193},{"NoteNumber":50,"Velocity":59,"Duration":86207,"SoundDuration":86207,"Delta":36552400},{"NoteNumber":55,"Velocity":64,"Duration":86206,"SoundDuration":86206,"Delta":36638607},{"NoteNumber":60,"Velocity":60,"Duration":86207,"SoundDuration":86207,"Delta":36724814},{"NoteNumber":65,"Velocity":72,"Duration":86207,"SoundDuration":86207,"Delta":36811021},{"NoteNumber":62,"Velocity":59,"Duration":86207,"SoundDuration":86207,"Delta":36897228},{"NoteNumber":67,"Velocity":64,"Duration":86206,"SoundDuration":86206,"Delta":36983435},{"NoteNumber":72,"Velocity":62,"Duration":86207,"SoundDuration":86207,"Delta":37069642},{"NoteNumber":77,"Velocity":73,"Duration":86207,"SoundDuration":86207,"Delta":37155849},{"NoteNumber":74,"Velocity":63,"Duration":86207,"SoundDuration":86207,"Delta":37242056},{"NoteNumber":79,"Velocity":67,"Duration":86206,"SoundDuration":86206,"Delta":37328263},{"NoteNumber":84,"Velocity":62,"Duration":86207,"SoundDuration":86207,"Delta":37414470},{"NoteNumber":89,"Velocity":72,"Duration":86207,"SoundDuration":86207,"Delta":37500677},{"NoteNumber":86,"Velocity":64,"Duration":86207,"SoundDuration":86207,"Delta":37586884},{"NoteNumber":91,"Velocity":67,"Duration":86206,"SoundDuration":86206,"Delta":37673091},{"NoteNumber":96,"Velocity":64,"Duration":86207,"SoundDuration":86207,"Delta":37759298},{"NoteNumber":101,"Velocity":74,"Duration":86207,"SoundDuration":86207,"Delta":37845505},{"NoteNumber":95,"Velocity":64,"Duration":86207,"SoundDuration":86207,"Delta":37931712},{"NoteNumber":91,"Velocity":68,"Duration":86206,"SoundDuration":86206,"Delta":38017919},{"NoteNumber":86,"Velocity":64,"Duration":86207,"SoundDuration":86207,"Delta":38104126},{"NoteNumber":89,"Velocity":74,"Duration":86207,"SoundDuration":86207,"Delta":38190333},{"NoteNumber":83,"Velocity":65,"Duration":86207,"SoundDuration":86207,"Delta":38276540},{"NoteNumber":79,"Velocity":68,"Duration":86206,"SoundDuration":86206,"Delta":38362747},{"NoteNumber":74,"Velocity":64,"Duration":86207,"SoundDuration":86207,"Delta":38448954},{"NoteNumber":77,"Velocity":72,"Duration":86207,"SoundDuration":86207,"Delta":38535161},{"NoteNumber":71,"Velocity":64,"Duration":86207,"SoundDuration":86207,"Delta":38621368},{"NoteNumber":67,"Velocity":68,"Duration":86207,"SoundDuration":86207,"Delta":38707575},{"NoteNumber":62,"Velocity":68,"Duration":86206,"SoundDuration":86206,"Delta":38793782},{"NoteNumber":65,"Velocity":72,"Duration":86207,"SoundDuration":86207,"Delta":38879989},{"NoteNumber":59,"Velocity":62,"Duration":86207,"SoundDuration":86207,"Delta":38966196},{"NoteNumber":55,"Velocity":67,"Duration":86207,"SoundDuration":86207,"Delta":39052403},{"NoteNumber":50,"Velocity":64,"Duration":89820,"SoundDuration":89820,"Delta":39138610},{"NoteNumber":36,"Velocity":80,"Duration":1386562,"SoundDuration":1386562,"Delta":39228430},{"NoteNumber":48,"Velocity":95,"Duration":82615,"SoundDuration":82615,"Delta":39228430},{"NoteNumber":48,"Velocity":71,"Duration":1300355,"SoundDuration":1300355,"Delta":39314637},{"NoteNumber":55,"Velocity":76,"Duration":86206,"SoundDuration":86206,"Delta":39400845},{"NoteNumber":58,"Velocity":72,"Duration":86207,"SoundDuration":86207,"Delta":39487051},{"NoteNumber":64,"Velocity":80,"Duration":86207,"SoundDuration":86207,"Delta":39573258},{"NoteNumber":60,"Velocity":72,"Duration":86207,"SoundDuration":86207,"Delta":39659465},{"NoteNumber":67,"Velocity":76,"Duration":86206,"SoundDuration":86206,"Delta":39745673},{"NoteNumber":70,"Velocity":73,"Duration":86207,"SoundDuration":86207,"Delta":39831879},{"NoteNumber":76,"Velocity":85,"Duration":86207,"SoundDuration":86207,"Delta":39918086},{"NoteNumber":72,"Velocity":73,"Duration":86207,"SoundDuration":86207,"Delta":40004293},{"NoteNumber":79,"Velocity":77,"Duration":86206,"SoundDuration":86206,"Delta":40090500},{"NoteNumber":82,"Velocity":73,"Duration":86207,"SoundDuration":86207,"Delta":40176707},{"NoteNumber":88,"Velocity":86,"Duration":86207,"SoundDuration":86207,"Delta":40262914},{"NoteNumber":84,"Velocity":75,"Duration":86207,"SoundDuration":86207,"Delta":40349121},{"NoteNumber":91,"Velocity":78,"Duration":86206,"SoundDuration":86206,"Delta":40435328},{"NoteNumber":96,"Velocity":75,"Duration":93457,"SoundDuration":93457,"Delta":40521535},{"NoteNumber":99,"Velocity":89,"Duration":86705,"SoundDuration":86705,"Delta":40614993},{"NoteNumber":30,"Velocity":81,"Duration":1387284,"SoundDuration":1387284,"Delta":40614993},{"NoteNumber":42,"Velocity":96,"Duration":1387284,"SoundDuration":1387284,"Delta":40614993},{"NoteNumber":94,"Velocity":75,"Duration":86705,"SoundDuration":86705,"Delta":40701699},{"NoteNumber":87,"Velocity":79,"Duration":86705,"SoundDuration":86705,"Delta":40788404},{"NoteNumber":84,"Velocity":74,"Duration":86705,"SoundDuration":86705,"Delta":40875109},{"NoteNumber":87,"Velocity":87,"Duration":86705,"SoundDuration":86705,"Delta":40961814},{"NoteNumber":82,"Velocity":74,"Duration":86705,"SoundDuration":86705,"Delta":41048520},{"NoteNumber":75,"Velocity":78,"Duration":86705,"SoundDuration":86705,"Delta":41135225},{"NoteNumber":72,"Velocity":73,"Duration":86705,"SoundDuration":86705,"Delta":41221930},{"NoteNumber":75,"Velocity":85,"Duration":86705,"SoundDuration":86705,"Delta":41308635},{"NoteNumber":70,"Velocity":74,"Duration":86705,"SoundDuration":86705,"Delta":41395341},{"NoteNumber":63,"Velocity":76,"Duration":86705,"SoundDuration":86705,"Delta":41482046},{"NoteNumber":60,"Velocity":73,"Duration":86705,"SoundDuration":86705,"Delta":41568751},{"NoteNumber":63,"Velocity":83,"Duration":86705,"SoundDuration":86705,"Delta":41655456},{"NoteNumber":58,"Velocity":72,"Duration":86705,"SoundDuration":86705,"Delta":41742162},{"NoteNumber":51,"Velocity":76,"Duration":86705,"SoundDuration":86705,"Delta":41828867},{"NoteNumber":48,"Velocity":72,"Duration":86705,"SoundDuration":86705,"Delta":41915572},{"NoteNumber":29,"Velocity":81,"Duration":1387284,"SoundDuration":1387284,"Delta":42002277},{"NoteNumber":41,"Velocity":97,"Duration":1387284,"SoundDuration":1387284,"Delta":42002277},{"NoteNumber":48,"Velocity":72,"Duration":86705,"SoundDuration":86705,"Delta":42088983},{"NoteNumber":51,"Velocity":76,"Duration":86705,"SoundDuration":86705,"Delta":42175688},{"NoteNumber":57,"Velocity":73,"Duration":86705,"SoundDuration":86705,"Delta":42262393},{"NoteNumber":63,"Velocity":79,"Duration":86705,"SoundDuration":86705,"Delta":42349098},{"NoteNumber":60,"Velocity":71,"Duration":86705,"SoundDuration":86705,"Delta":42435804},{"NoteNumber":63,"Velocity":76,"Duration":86705,"SoundDuration":86705,"Delta":42522509},{"NoteNumber":69,"Velocity":73,"Duration":86705,"SoundDuration":86705,"Delta":42609214},{"NoteNumber":75,"Velocity":82,"Duration":86705,"SoundDuration":86705,"Delta":42695919},{"NoteNumber":72,"Velocity":75,"Duration":86705,"SoundDuration":86705,"Delta":42782625},{"NoteNumber":75,"Velocity":77,"Duration":86705,"SoundDuration":86705,"Delta":42869330},{"NoteNumber":81,"Velocity":74,"Duration":86705,"SoundDuration":86705,"Delta":42956035},{"NoteNumber":87,"Velocity":85,"Duration":86705,"SoundDuration":86705,"Delta":43042740},{"NoteNumber":84,"Velocity":75,"Duration":86705,"SoundDuration":86705,"Delta":43129446},{"NoteNumber":87,"Velocity":78,"Duration":86705,"SoundDuration":86705,"Delta":43216151},{"NoteNumber":93,"Velocity":75,"Duration":86705,"SoundDuration":86705,"Delta":43302856},{"NoteNumber":99,"Velocity":86,"Duration":86705,"SoundDuration":86705,"Delta":43389561},{"NoteNumber":35,"Velocity":85,"Duration":1393349,"SoundDuration":1393349,"Delta":43389561},{"NoteNumber":47,"Velocity":100,"Duration":1393349,"SoundDuration":1393349,"Delta":43389561},{"NoteNumber":92,"Velocity":73,"Duration":86705,"SoundDuration":86705,"Delta":43476267},{"NoteNumber":87,"Velocity":77,"Duration":86705,"SoundDuration":86705,"Delta":43562972},{"NoteNumber":83,"Velocity":73,"Duration":86705,"SoundDuration":86705,"Delta":43649677},{"NoteNumber":87,"Velocity":85,"Duration":86705,"SoundDuration":86705,"Delta":43736382},{"NoteNumber":80,"Velocity":71,"Duration":86705,"SoundDuration":86705,"Delta":43823088},{"NoteNumber":75,"Velocity":76,"Duration":86705,"SoundDuration":86705,"Delta":43909793},{"NoteNumber":71,"Velocity":71,"Duration":86705,"SoundDuration":86705,"Delta":43996498},{"NoteNumber":75,"Velocity":80,"Duration":87463,"SoundDuration":87463,"Delta":44083203},{"NoteNumber":68,"Velocity":70,"Duration":87463,"SoundDuration":87463,"Delta":44170667},{"NoteNumber":63,"Velocity":72,"Duration":87463,"SoundDuration":87463,"Delta":44258130},{"NoteNumber":59,"Velocity":67,"Duration":87463,"SoundDuration":87463,"Delta":44345594},{"NoteNumber":63,"Velocity":71,"Duration":87463,"SoundDuration":87463,"Delta":44433057},{"NoteNumber":56,"Velocity":65,"Duration":87463,"SoundDuration":87463,"Delta":44520521},{"NoteNumber":51,"Velocity":69,"Duration":87463,"SoundDuration":87463,"Delta":44607984},{"NoteNumber":47,"Velocity":66,"Duration":87463,"SoundDuration":87463,"Delta":44695448},{"NoteNumber":34,"Velocity":84,"Duration":2798831,"SoundDuration":2798831,"Delta":44782911},{"NoteNumber":46,"Velocity":66,"Duration":87463,"SoundDuration":87463,"Delta":44870375},{"NoteNumber":53,"Velocity":70,"Duration":87463,"SoundDuration":87463,"Delta":44957838},{"NoteNumber":56,"Velocity":67,"Duration":87463,"SoundDuration":87463,"Delta":45045302},{"NoteNumber":62,"Velocity":76,"Duration":87463,"SoundDuration":87463,"Delta":45132765},{"NoteNumber":58,"Velocity":64,"Duration":87463,"SoundDuration":87463,"Delta":45220229},{"NoteNumber":65,"Velocity":69,"Duration":87463,"SoundDuration":87463,"Delta":45307692},{"NoteNumber":68,"Velocity":65,"Duration":87463,"SoundDuration":87463,"Delta":45395156},{"NoteNumber":74,"Velocity":76,"Duration":87463,"SoundDuration":87463,"Delta":45482619},{"NoteNumber":70,"Velocity":66,"Duration":87463,"SoundDuration":87463,"Delta":45570083},{"NoteNumber":77,"Velocity":71,"Duration":87463,"SoundDuration":87463,"Delta":45657546},{"NoteNumber":80,"Velocity":67,"Duration":87463,"SoundDuration":87463,"Delta":45745010},{"NoteNumber":86,"Velocity":76,"Duration":87463,"SoundDuration":87463,"Delta":45832473},{"NoteNumber":82,"Velocity":65,"Duration":87463,"SoundDuration":87463,"Delta":45919937},{"NoteNumber":89,"Velocity":71,"Duration":87463,"SoundDuration":87463,"Delta":46007400},{"NoteNumber":92,"Velocity":67,"Duration":87463,"SoundDuration":87463,"Delta":46094864},{"NoteNumber":98,"Velocity":83,"Duration":87463,"SoundDuration":87463,"Delta":46182327},{"NoteNumber":46,"Velocity":87,"Duration":1399416,"SoundDuration":1399416,"Delta":46182327},{"NoteNumber":92,"Velocity":70,"Duration":87463,"SoundDuration":87463,"Delta":46269791},{"NoteNumber":88,"Velocity":74,"Duration":87463,"SoundDuration":87463,"Delta":46357254},{"NoteNumber":82,"Velocity":70,"Duration":87463,"SoundDuration":87463,"Delta":46444718},{"NoteNumber":86,"Velocity":84,"Duration":87463,"SoundDuration":87463,"Delta":46532181},{"NoteNumber":80,"Velocity":71,"Duration":87463,"SoundDuration":87463,"Delta":46619645},{"NoteNumber":76,"Velocity":76,"Duration":87463,"SoundDuration":87463,"Delta":46707108},{"NoteNumber":70,"Velocity":71,"Duration":87463,"SoundDuration":87463,"Delta":46794572},{"NoteNumber":74,"Velocity":87,"Duration":87463,"SoundDuration":87463,"Delta":46882035},{"NoteNumber":68,"Velocity":72,"Duration":87463,"SoundDuration":87463,"Delta":46969499},{"NoteNumber":64,"Velocity":76,"Duration":87463,"SoundDuration":87463,"Delta":47056962},{"NoteNumber":58,"Velocity":70,"Duration":87463,"SoundDuration":87463,"Delta":47144426},{"NoteNumber":62,"Velocity":86,"Duration":87463,"SoundDuration":87463,"Delta":47231889},{"NoteNumber":56,"Velocity":71,"Duration":87463,"SoundDuration":87463,"Delta":47319353},{"NoteNumber":52,"Velocity":76,"Duration":87463,"SoundDuration":87463,"Delta":47406816},{"NoteNumber":46,"Velocity":72,"Duration":87463,"SoundDuration":87463,"Delta":47494280},{"NoteNumber":33,"Velocity":78,"Duration":2771754,"SoundDuration":2771754,"Delta":47581743},{"NoteNumber":45,"Velocity":94,"Duration":82615,"SoundDuration":82615,"Delta":47581743},{"NoteNumber":45,"Velocity":72,"Duration":2685547,"SoundDuration":2685547,"Delta":47667950},{"NoteNumber":52,"Velocity":76,"Duration":86206,"SoundDuration":86206,"Delta":47754157},{"NoteNumber":57,"Velocity":72,"Duration":86207,"SoundDuration":86207,"Delta":47840364},{"NoteNumber":61,"Velocity":81,"Duration":86207,"SoundDuration":86207,"Delta":47926571},{"NoteNumber":57,"Velocity":70,"Duration":86207,"SoundDuration":86207,"Delta":48012778},{"NoteNumber":64,"Velocity":76,"Duration":86206,"SoundDuration":86206,"Delta":48098985},{"NoteNumber":69,"Velocity":74,"Duration":86207,"SoundDuration":86207,"Delta":48185192},{"NoteNumber":73,"Velocity":83,"Duration":86207,"SoundDuration":86207,"Delta":48271399},{"NoteNumber":69,"Velocity":74,"Duration":86207,"SoundDuration":86207,"Delta":48357606},{"NoteNumber":76,"Velocity":77,"Duration":86206,"SoundDuration":86206,"Delta":48443813},{"NoteNumber":81,"Velocity":73,"Duration":86207,"SoundDuration":86207,"Delta":48530020},{"NoteNumber":85,"Velocity":85,"Duration":86207,"SoundDuration":86207,"Delta":48616227},{"NoteNumber":81,"Velocity":74,"Duration":86207,"SoundDuration":86207,"Delta":48702434},{"NoteNumber":88,"Velocity":78,"Duration":86206,"SoundDuration":86206,"Delta":48788641},{"NoteNumber":93,"Velocity":74,"Duration":86207,"SoundDuration":86207,"Delta":48874848},{"NoteNumber":97,"Velocity":87,"Duration":86207,"SoundDuration":86207,"Delta":48961055},{"NoteNumber":93,"Velocity":74,"Duration":86207,"SoundDuration":86207,"Delta":49047262},{"NoteNumber":88,"Velocity":79,"Duration":86206,"SoundDuration":86206,"Delta":49133469},{"NoteNumber":81,"Velocity":74,"Duration":86207,"SoundDuration":86207,"Delta":49219676},{"NoteNumber":85,"Velocity":85,"Duration":86207,"SoundDuration":86207,"Delta":49305883},{"NoteNumber":81,"Velocity":72,"Duration":86207,"SoundDuration":86207,"Delta":49392090},{"NoteNumber":76,"Velocity":77,"Duration":86206,"SoundDuration":86206,"Delta":49478297},{"NoteNumber":69,"Velocity":72,"Duration":86207,"SoundDuration":86207,"Delta":49564504},{"NoteNumber":73,"Velocity":86,"Duration":86207,"SoundDuration":86207,"Delta":49650711},{"NoteNumber":69,"Velocity":72,"Duration":86207,"SoundDuration":86207,"Delta":49736918},{"NoteNumber":64,"Velocity":74,"Duration":86207,"SoundDuration":86207,"Delta":49823125},{"NoteNumber":57,"Velocity":69,"Duration":86206,"SoundDuration":86206,"Delta":49909332},{"NoteNumber":61,"Velocity":84,"Duration":86207,"SoundDuration":86207,"Delta":49995539},{"NoteNumber":57,"Velocity":68,"Duration":86207,"SoundDuration":86207,"Delta":50081746},{"NoteNumber":52,"Velocity":72,"Duration":86207,"SoundDuration":86207,"Delta":50167953},{"NoteNumber":45,"Velocity":68,"Duration":99337,"SoundDuration":99337,"Delta":50254160},{"NoteNumber":38,"Velocity":90,"Duration":1391303,"SoundDuration":1391303,"Delta":50353498},{"NoteNumber":45,"Velocity":69,"Duration":86956,"SoundDuration":86956,"Delta":50440455},{"NoteNumber":50,"Velocity":72,"Duration":86956,"SoundDuration":86956,"Delta":50527411},{"NoteNumber":54,"Velocity":69,"Duration":86956,"SoundDuration":86956,"Delta":50614368},{"NoteNumber":60,"Velocity":74,"Duration":86956,"SoundDuration":86956,"Delta":50701324},{"NoteNumber":57,"Velocity":68,"Duration":86956,"SoundDuration":86956,"Delta":50788281},{"NoteNumber":62,"Velocity":71,"Duration":86956,"SoundDuration":86956,"Delta":50875237},{"NoteNumber":66,"Velocity":66,"Duration":86956,"SoundDuration":86956,"Delta":50962194},{"NoteNumber":72,"Velocity":74,"Duration":86956,"SoundDuration":86956,"Delta":51049150},{"NoteNumber":69,"Velocity":66,"Duration":86956,"SoundDuration":86956,"Delta":51136107},{"NoteNumber":74,"Velocity":71,"Duration":86956,"SoundDuration":86956,"Delta":51223063},{"NoteNumber":78,"Velocity":68,"Duration":86956,"SoundDuration":86956,"Delta":51310020},{"NoteNumber":84,"Velocity":75,"Duration":86956,"SoundDuration":86956,"Delta":51396976},{"NoteNumber":81,"Velocity":67,"Duration":86956,"SoundDuration":86956,"Delta":51483933},{"NoteNumber":86,"Velocity":70,"Duration":86956,"SoundDuration":86956,"Delta":51570889},{"NoteNumber":90,"Velocity":67,"Duration":86956,"SoundDuration":86956,"Delta":51657846},{"NoteNumber":96,"Velocity":76,"Duration":87463,"SoundDuration":87463,"Delta":51744802},{"NoteNumber":31,"Velocity":75,"Duration":1405120,"SoundDuration":1405120,"Delta":51744802},{"NoteNumber":43,"Velocity":84,"Duration":1405120,"SoundDuration":1405120,"Delta":51744802},{"NoteNumber":89,"Velocity":68,"Duration":87463,"SoundDuration":87463,"Delta":51832266},{"NoteNumber":86,"Velocity":71,"Duration":87463,"SoundDuration":87463,"Delta":51919729},{"NoteNumber":79,"Velocity":68,"Duration":87463,"SoundDuration":87463,"Delta":52007193},{"NoteNumber":84,"Velocity":73,"Duration":87463,"SoundDuration":87463,"Delta":52094656},{"NoteNumber":77,"Velocity":66,"Duration":87463,"SoundDuration":87463,"Delta":52182120},{"NoteNumber":74,"Velocity":69,"Duration":87463,"SoundDuration":87463,"Delta":52269583},{"NoteNumber":67,"Velocity":63,"Duration":87463,"SoundDuration":87463,"Delta":52357047},{"NoteNumber":72,"Velocity":74,"Duration":87463,"SoundDuration":87463,"Delta":52444510},{"NoteNumber":65,"Velocity":63,"Duration":87463,"SoundDuration":87463,"Delta":52531974},{"NoteNumber":62,"Velocity":66,"Duration":87463,"SoundDuration":87463,"Delta":52619437},{"NoteNumber":55,"Velocity":62,"Duration":87463,"SoundDuration":87463,"Delta":52706901},{"NoteNumber":59,"Velocity":76,"Duration":87463,"SoundDuration":87463,"Delta":52794364},{"NoteNumber":53,"Velocity":64,"Duration":87463,"SoundDuration":87463,"Delta":52881828},{"NoteNumber":50,"Velocity":61,"Duration":87463,"SoundDuration":87463,"Delta":52969291},{"NoteNumber":43,"Velocity":64,"Duration":93167,"SoundDuration":93167,"Delta":53056755},{"NoteNumber":36,"Velocity":79,"Duration":1387284,"SoundDuration":1387284,"Delta":53149922},{"NoteNumber":43,"Velocity":64,"Duration":86705,"SoundDuration":86705,"Delta":53236628},{"NoteNumber":48,"Velocity":61,"Duration":86705,"SoundDuration":86705,"Delta":53323333},{"NoteNumber":52,"Velocity":64,"Duration":86705,"SoundDuration":86705,"Delta":53410038},{"NoteNumber":59,"Velocity":74,"Duration":86705,"SoundDuration":86705,"Delta":53496743},{"NoteNumber":55,"Velocity":61,"Duration":86705,"SoundDuration":86705,"Delta":53583449},{"NoteNumber":60,"Velocity":61,"Duration":86705,"SoundDuration":86705,"Delta":53670154},{"NoteNumber":64,"Velocity":65,"Duration":86705,"SoundDuration":86705,"Delta":53756859},{"NoteNumber":71,"Velocity":72,"Duration":86705,"SoundDuration":86705,"Delta":53843564},{"NoteNumber":67,"Velocity":61,"Duration":86705,"SoundDuration":86705,"Delta":53930270},{"NoteNumber":72,"Velocity":66,"Duration":86705,"SoundDuration":86705,"Delta":54016975},{"NoteNumber":76,"Velocity":61,"Duration":86705,"SoundDuration":86705,"Delta":54103680},{"NoteNumber":83,"Velocity":73,"Duration":86705,"SoundDuration":86705,"Delta":54190385},{"NoteNumber":79,"Velocity":64,"Duration":86705,"SoundDuration":86705,"Delta":54277091},{"NoteNumber":84,"Velocity":66,"Duration":86705,"SoundDuration":86705,"Delta":54363796},{"NoteNumber":88,"Velocity":63,"Duration":86705,"SoundDuration":86705,"Delta":54450501},{"NoteNumber":95,"Velocity":75,"Duration":87209,"SoundDuration":87209,"Delta":54537206},{"NoteNumber":29,"Velocity":66,"Duration":1395347,"SoundDuration":1395347,"Delta":54537206},{"NoteNumber":41,"Velocity":78,"Duration":1395347,"SoundDuration":1395347,"Delta":54537206},{"NoteNumber":88,"Velocity":65,"Duration":87209,"SoundDuration":87209,"Delta":54624416},{"NoteNumber":84,"Velocity":67,"Duration":87209,"SoundDuration":87209,"Delta":54711625},{"NoteNumber":77,"Velocity":67,"Duration":87209,"SoundDuration":87209,"Delta":54798834},{"NoteNumber":83,"Velocity":74,"Duration":87209,"SoundDuration":87209,"Delta":54886043},{"NoteNumber":76,"Velocity":64,"Duration":87209,"SoundDuration":87209,"Delta":54973253},{"NoteNumber":72,"Velocity":66,"Duration":87209,"SoundDuration":87209,"Delta":55060462},{"NoteNumber":65,"Velocity":61,"Duration":87209,"SoundDuration":87209,"Delta":55147671},{"NoteNumber":71,"Velocity":73,"Duration":87209,"SoundDuration":87209,"Delta":55234880},{"NoteNumber":64,"Velocity":66,"Duration":87209,"SoundDuration":87209,"Delta":55322090},{"NoteNumber":60,"Velocity":61,"Duration":87209,"SoundDuration":87209,"Delta":55409299},{"NoteNumber":53,"Velocity":62,"Duration":87209,"SoundDuration":87209,"Delta":55496508},{"NoteNumber":57,"Velocity":74,"Duration":87209,"SoundDuration":87209,"Delta":55583717},{"NoteNumber":52,"Velocity":60,"Duration":87209,"SoundDuration":87209,"Delta":55670927},{"NoteNumber":48,"Velocity":64,"Duration":87209,"SoundDuration":87209,"Delta":55758136},{"NoteNumber":41,"Velocity":61,"Duration":87209,"SoundDuration":87209,"Delta":55845345},{"NoteNumber":35,"Velocity":84,"Duration":1395347,"SoundDuration":1395347,"Delta":55932554},{"NoteNumber":41,"Velocity":65,"Duration":87209,"SoundDuration":87209,"Delta":56019764},{"NoteNumber":47,"Velocity":68,"Duration":87209,"SoundDuration":87209,"Delta":56106973},{"NoteNumber":50,"Velocity":64,"Duration":87209,"SoundDuration":87209,"Delta":56194182},{"NoteNumber":57,"Velocity":77,"Duration":87209,"SoundDuration":87209,"Delta":56281391},{"NoteNumber":53,"Velocity":63,"Duration":87209,"SoundDuration":87209,"Delta":56368601},{"NoteNumber":59,"Velocity":68,"Duration":87209,"SoundDuration":87209,"Delta":56455810},{"NoteNumber":62,"Velocity":66,"Duration":87209,"SoundDuration":87209,"Delta":56543019},{"NoteNumber":69,"Velocity":74,"Duration":87209,"SoundDuration":87209,"Delta":56630228},{"NoteNumber":65,"Velocity":64,"Duration":87209,"SoundDuration":87209,"Delta":56717438},{"NoteNumber":71,"Velocity":68,"Duration":87209,"SoundDuration":87209,"Delta":56804647},{"NoteNumber":74,"Velocity":63,"Duration":87209,"SoundDuration":87209,"Delta":56891856},{"NoteNumber":81,"Velocity":74,"Duration":87209,"SoundDuration":87209,"Delta":56979065},{"NoteNumber":77,"Velocity":64,"Duration":87209,"SoundDuration":87209,"Delta":57066275},{"NoteNumber":83,"Velocity":68,"Duration":87209,"SoundDuration":87209,"Delta":57153484},{"NoteNumber":86,"Velocity":64,"Duration":87209,"SoundDuration":87209,"Delta":57240693},{"NoteNumber":91,"Velocity":75,"Duration":86455,"SoundDuration":86455,"Delta":57327902},{"NoteNumber":28,"Velocity":72,"Duration":691642,"SoundDuration":691642,"Delta":57327902},{"NoteNumber":40,"Velocity":85,"Duration":691642,"SoundDuration":691642,"Delta":57327902},{"NoteNumber":86,"Velocity":65,"Duration":86455,"SoundDuration":86455,"Delta":57414358},{"NoteNumber":83,"Velocity":68,"Duration":86455,"SoundDuration":86455,"Delta":57500813},{"NoteNumber":76,"Velocity":65,"Duration":86455,"SoundDuration":86455,"Delta":57587268},{"NoteNumber":79,"Velocity":75,"Duration":86455,"SoundDuration":86455,"Delta":57673723},{"NoteNumber":74,"Velocity":65,"Duration":86455,"SoundDuration":86455,"Delta":57760179},{"NoteNumber":71,"Velocity":68,"Duration":86455,"SoundDuration":86455,"Delta":57846634},{"NoteNumber":64,"Velocity":64,"Duration":86455,"SoundDuration":86455,"Delta":57933089},{"NoteNumber":69,"Velocity":75,"Duration":87463,"SoundDuration":87463,"Delta":58019544},{"NoteNumber":33,"Velocity":72,"Duration":704837,"SoundDuration":704837,"Delta":58019544},{"NoteNumber":45,"Velocity":85,"Duration":704837,"SoundDuration":704837,"Delta":58019544},{"NoteNumber":72,"Velocity":64,"Duration":87463,"SoundDuration":87463,"Delta":58107008},{"NoteNumber":79,"Velocity":68,"Duration":87463,"SoundDuration":87463,"Delta":58194471},{"NoteNumber":76,"Velocity":64,"Duration":87463,"SoundDuration":87463,"Delta":58281935},{"NoteNumber":81,"Velocity":75,"Duration":87463,"SoundDuration":87463,"Delta":58369398},{"NoteNumber":84,"Velocity":65,"Duration":87463,"SoundDuration":87463,"Delta":58456862},{"NoteNumber":91,"Velocity":69,"Duration":87463,"SoundDuration":87463,"Delta":58544325},{"NoteNumber":88,"Velocity":65,"Duration":92592,"SoundDuration":92592,"Delta":58631789},{"NoteNumber":89,"Velocity":76,"Duration":86455,"SoundDuration":86455,"Delta":58724381},{"NoteNumber":26,"Velocity":74,"Duration":691642,"SoundDuration":691642,"Delta":58724381},{"NoteNumber":38,"Velocity":88,"Duration":691642,"SoundDuration":691642,"Delta":58724381},{"NoteNumber":84,"Velocity":67,"Duration":86455,"SoundDuration":86455,"Delta":58810837},{"NoteNumber":81,"Velocity":70,"Duration":86455,"SoundDuration":86455,"Delta":58897292},{"NoteNumber":74,"Velocity":66,"Duration":86455,"SoundDuration":86455,"Delta":58983747},{"NoteNumber":77,"Velocity":77,"Duration":86455,"SoundDuration":86455,"Delta":59070202},{"NoteNumber":72,"Velocity":67,"Duration":86455,"SoundDuration":86455,"Delta":59156658},{"NoteNumber":69,"Velocity":72,"Duration":86455,"SoundDuration":86455,"Delta":59243113},{"NoteNumber":62,"Velocity":67,"Duration":86455,"SoundDuration":86455,"Delta":59329568},{"NoteNumber":67,"Velocity":78,"Duration":87463,"SoundDuration":87463,"Delta":59416023},{"NoteNumber":31,"Velocity":74,"Duration":703708,"SoundDuration":703708,"Delta":59416023},{"NoteNumber":43,"Velocity":88,"Duration":703708,"SoundDuration":703708,"Delta":59416023},{"NoteNumber":71,"Velocity":66,"Duration":87463,"SoundDuration":87463,"Delta":59503487},{"NoteNumber":77,"Velocity":72,"Duration":87463,"SoundDuration":87463,"Delta":59590950},{"NoteNumber":74,"Velocity":68,"Duration":87463,"SoundDuration":87463,"Delta":59678414},{"NoteNumber":79,"Velocity":78,"Duration":87463,"SoundDuration":87463,"Delta":59765877},{"NoteNumber":83,"Velocity":68,"Duration":87463,"SoundDuration":87463,"Delta":59853341},{"NoteNumber":89,"Velocity":74,"Duration":87463,"SoundDuration":87463,"Delta":59940804},{"NoteNumber":86,"Velocity":68,"Duration":91463,"SoundDuration":91463,"Delta":60028268},{"NoteNumber":88,"Velocity":80,"Duration":86455,"SoundDuration":86455,"Delta":60119731},{"NoteNumber":24,"Velocity":80,"Duration":691642,"SoundDuration":691642,"Delta":60119731},{"NoteNumber":36,"Velocity":94,"Duration":691642,"SoundDuration":691642,"Delta":60119731},{"NoteNumber":83,"Velocity":70,"Duration":86455,"SoundDuration":86455,"Delta":60206187},{"NoteNumber":79,"Velocity":75,"Duration":86455,"SoundDuration":86455,"Delta":60292642},{"NoteNumber":72,"Velocity":70,"Duration":86455,"SoundDuration":86455,"Delta":60379097},{"NoteNumber":76,"Velocity":83,"Duration":86455,"SoundDuration":86455,"Delta":60465552},{"NoteNumber":71,"Velocity":70,"Duration":86455,"SoundDuration":86455,"Delta":60552008},{"NoteNumber":67,"Velocity":76,"Duration":86455,"SoundDuration":86455,"Delta":60638463},{"NoteNumber":60,"Velocity":70,"Duration":86455,"SoundDuration":86455,"Delta":60724918},{"NoteNumber":65,"Velocity":86,"Duration":87463,"SoundDuration":87463,"Delta":60811373},{"NoteNumber":29,"Velocity":82,"Duration":699708,"SoundDuration":699708,"Delta":60811373},{"NoteNumber":41,"Velocity":97,"Duration":699708,"SoundDuration":699708,"Delta":60811373},{"NoteNumber":69,"Velocity":71,"Duration":87463,"SoundDuration":87463,"Delta":60898837},{"NoteNumber":76,"Velocity":77,"Duration":87463,"SoundDuration":87463,"Delta":60986300},{"NoteNumber":72,"Velocity":71,"Duration":87463,"SoundDuration":87463,"Delta":61073764},{"NoteNumber":77,"Velocity":86,"Duration":87463,"SoundDuration":87463,"Delta":61161227},{"NoteNumber":81,"Velocity":73,"Duration":87463,"SoundDuration":87463,"Delta":61248691},{"NoteNumber":88,"Velocity":79,"Duration":87463,"SoundDuration":87463,"Delta":61336154},{"NoteNumber":84,"Velocity":75,"Duration":87463,"SoundDuration":87463,"Delta":61423618},{"NoteNumber":86,"Velocity":90,"Duration":86207,"SoundDuration":86207,"Delta":61511081},{"NoteNumber":35,"Velocity":85,"Duration":1034483,"SoundDuration":1034483,"Delta":61511081},{"NoteNumber":47,"Velocity":101,"Duration":1034483,"SoundDuration":1034483,"Delta":61511081},{"NoteNumber":81,"Velocity":76,"Duration":86207,"SoundDuration":86207,"Delta":61597289},{"NoteNumber":77,"Velocity":80,"Duration":86206,"SoundDuration":86206,"Delta":61683496},{"NoteNumber":71,"Velocity":75,"Duration":86207,"SoundDuration":86207,"Delta":61769702},{"NoteNumber":74,"Velocity":90,"Duration":86207,"SoundDuration":86207,"Delta":61855909},{"NoteNumber":69,"Velocity":76,"Duration":86207,"SoundDuration":86207,"Delta":61942116},{"NoteNumber":65,"Velocity":80,"Duration":86206,"SoundDuration":86206,"Delta":62028324},{"NoteNumber":59,"Velocity":74,"Duration":86207,"SoundDuration":86207,"Delta":62114530},{"NoteNumber":62,"Velocity":90,"Duration":86207,"SoundDuration":86207,"Delta":62200737},{"NoteNumber":57,"Velocity":75,"Duration":86207,"SoundDuration":86207,"Delta":62286944},{"NoteNumber":53,"Velocity":80,"Duration":86206,"SoundDuration":86206,"Delta":62373152},{"NoteNumber":47,"Velocity":75,"Duration":86207,"SoundDuration":86207,"Delta":62459358},{"NoteNumber":35,"Velocity":102,"Duration":1394843,"SoundDuration":1394843,"Delta":62545565},{"NoteNumber":87,"Velocity":91,"Duration":86207,"SoundDuration":86207,"Delta":62905925},{"NoteNumber":47,"Velocity":100,"Duration":1034483,"SoundDuration":1034483,"Delta":62905925},{"NoteNumber":81,"Velocity":75,"Duration":86207,"SoundDuration":86207,"Delta":62992132},{"NoteNumber":78,"Velocity":80,"Duration":86206,"SoundDuration":86206,"Delta":63078340},{"NoteNumber":71,"Velocity":75,"Duration":86207,"SoundDuration":86207,"Delta":63164546},{"NoteNumber":75,"Velocity":91,"Duration":86207,"SoundDuration":86207,"Delta":63250753},{"NoteNumber":69,"Velocity":76,"Duration":86207,"SoundDuration":86207,"Delta":63336960},{"NoteNumber":66,"Velocity":80,"Duration":86206,"SoundDuration":86206,"Delta":63423168},{"NoteNumber":59,"Velocity":74,"Duration":86207,"SoundDuration":86207,"Delta":63509374},{"NoteNumber":63,"Velocity":91,"Duration":86207,"SoundDuration":86207,"Delta":63595581},{"NoteNumber":57,"Velocity":75,"Duration":86207,"SoundDuration":86207,"Delta":63681788},{"NoteNumber":54,"Velocity":80,"Duration":86206,"SoundDuration":86206,"Delta":63767996},{"NoteNumber":47,"Velocity":76,"Duration":86207,"SoundDuration":86207,"Delta":63854202},{"NoteNumber":35,"Velocity":93,"Duration":363636,"SoundDuration":363636,"Delta":63940409},{"NoteNumber":28,"Velocity":84,"Duration":2422789,"SoundDuration":2422789,"Delta":64304046},{"NoteNumber":40,"Velocity":100,"Duration":2422789,"SoundDuration":2422789,"Delta":64304046},{"NoteNumber":47,"Velocity":76,"Duration":86207,"SoundDuration":86207,"Delta":64390253},{"NoteNumber":52,"Velocity":80,"Duration":86207,"SoundDuration":86207,"Delta":64476460},{"NoteNumber":56,"Velocity":76,"Duration":86207,"SoundDuration":86207,"Delta":64562667},{"NoteNumber":64,"Velocity":91,"Duration":86206,"SoundDuration":86206,"Delta":64648874},{"NoteNumber":59,"Velocity":76,"Duration":86207,"SoundDuration":86207,"Delta":64735080},{"NoteNumber":64,"Velocity":80,"Duration":86207,"SoundDuration":86207,"Delta":64821287},{"NoteNumber":68,"Velocity":77,"Duration":86207,"SoundDuration":86207,"Delta":64907495},{"NoteNumber":76,"Velocity":91,"Duration":86207,"SoundDuration":86207,"Delta":64993702},{"NoteNumber":71,"Velocity":76,"Duration":86207,"SoundDuration":86207,"Delta":65079909},{"NoteNumber":76,"Velocity":80,"Duration":86207,"SoundDuration":86207,"Delta":65166116},{"NoteNumber":80,"Velocity":76,"Duration":86207,"SoundDuration":86207,"Delta":65252323},{"NoteNumber":88,"Velocity":91,"Duration":86206,"SoundDuration":86206,"Delta":65338530},{"NoteNumber":83,"Velocity":75,"Duration":86207,"SoundDuration":86207,"Delta":65424736},{"NoteNumber":88,"Velocity":80,"Duration":86207,"SoundDuration":86207,"Delta":65510943},{"NoteNumber":92,"Velocity":75,"Duration":86207,"SoundDuration":86207,"Delta":65597151},{"NoteNumber":100,"Velocity":91,"Duration":86956,"SoundDuration":86956,"Delta":65683358},{"NoteNumber":92,"Velocity":77,"Duration":86956,"SoundDuration":86956,"Delta":65770314},{"NoteNumber":88,"Velocity":79,"Duration":86956,"SoundDuration":86956,"Delta":65857271},{"NoteNumber":83,"Velocity":74,"Duration":86956,"SoundDuration":86956,"Delta":65944227},{"NoteNumber":88,"Velocity":88,"Duration":86956,"SoundDuration":86956,"Delta":66031183},{"NoteNumber":80,"Velocity":72,"Duration":86956,"SoundDuration":86956,"Delta":66118140},{"NoteNumber":76,"Velocity":76,"Duration":86956,"SoundDuration":86956,"Delta":66205096},{"NoteNumber":71,"Velocity":69,"Duration":86956,"SoundDuration":86956,"Delta":66292053},{"NoteNumber":76,"Velocity":85,"Duration":86956,"SoundDuration":86956,"Delta":66379009},{"NoteNumber":68,"Velocity":69,"Duration":86956,"SoundDuration":86956,"Delta":66465966},{"NoteNumber":64,"Velocity":72,"Duration":86956,"SoundDuration":86956,"Delta":66552922},{"NoteNumber":59,"Velocity":67,"Duration":86956,"SoundDuration":86956,"Delta":66639879},{"NoteNumber":65,"Velocity":80,"Duration":90090,"SoundDuration":90090,"Delta":66726835},{"NoteNumber":26,"Velocity":74,"Duration":360360,"SoundDuration":360360,"Delta":66726835},{"NoteNumber":38,"Velocity":88,"Duration":360360,"SoundDuration":360360,"Delta":66726835},{"NoteNumber":59,"Velocity":65,"Duration":90090,"SoundDuration":90090,"Delta":66816925},{"NoteNumber":55,"Velocity":69,"Duration":90089,"SoundDuration":90089,"Delta":66907016},{"NoteNumber":50,"Velocity":64,"Duration":90090,"SoundDuration":90090,"Delta":66997105},{"NoteNumber":24,"Velocity":72,"Duration":1379311,"SoundDuration":1379311,"Delta":67087195},{"NoteNumber":36,"Velocity":85,"Duration":2807511,"SoundDuration":2807511,"Delta":67087195},{"NoteNumber":48,"Velocity":64,"Duration":86207,"SoundDuration":86207,"Delta":67173403},{"NoteNumber":55,"Velocity":68,"Duration":86207,"SoundDuration":86207,"Delta":67259610},{"NoteNumber":60,"Velocity":63,"Duration":86207,"SoundDuration":86207,"Delta":67345817},{"NoteNumber":64,"Velocity":72,"Duration":86206,"SoundDuration":86206,"Delta":67432024},{"NoteNumber":60,"Velocity":63,"Duration":86207,"SoundDuration":86207,"Delta":67518230},{"NoteNumber":67,"Velocity":68,"Duration":86207,"SoundDuration":86207,"Delta":67604437},{"NoteNumber":72,"Velocity":65,"Duration":86207,"SoundDuration":86207,"Delta":67690644},{"NoteNumber":76,"Velocity":76,"Duration":86207,"SoundDuration":86207,"Delta":67776851},{"NoteNumber":72,"Velocity":64,"Duration":86207,"SoundDuration":86207,"Delta":67863059},{"NoteNumber":79,"Velocity":70,"Duration":86207,"SoundDuration":86207,"Delta":67949266},{"NoteNumber":84,"Velocity":64,"Duration":86207,"SoundDuration":86207,"Delta":68035473},{"NoteNumber":88,"Velocity":77,"Duration":86206,"SoundDuration":86206,"Delta":68121680},{"NoteNumber":84,"Velocity":65,"Duration":86207,"SoundDuration":86207,"Delta":68207886},{"NoteNumber":91,"Velocity":70,"Duration":86207,"SoundDuration":86207,"Delta":68294093},{"NoteNumber":96,"Velocity":65,"Duration":86207,"SoundDuration":86207,"Delta":68380300},{"NoteNumber":100,"Velocity":77,"Duration":86207,"SoundDuration":86207,"Delta":68466507},{"NoteNumber":48,"Velocity":78,"Duration":1428199,"SoundDuration":1428199,"Delta":68466507},{"NoteNumber":96,"Velocity":66,"Duration":86207,"SoundDuration":86207,"Delta":68552714},{"NoteNumber":91,"Velocity":71,"Duration":86207,"SoundDuration":86207,"Delta":68638922},{"NoteNumber":84,"Velocity":68,"Duration":86207,"SoundDuration":86207,"Delta":68725129},{"NoteNumber":88,"Velocity":77,"Duration":86206,"SoundDuration":86206,"Delta":68811336},{"NoteNumber":84,"Velocity":66,"Duration":86207,"SoundDuration":86207,"Delta":68897542},{"NoteNumber":79,"Velocity":70,"Duration":86207,"SoundDuration":86207,"Delta":68983749},{"NoteNumber":72,"Velocity":65,"Duration":86207,"SoundDuration":86207,"Delta":69069956},{"NoteNumber":76,"Velocity":76,"Duration":90090,"SoundDuration":90090,"Delta":69156163},{"NoteNumber":72,"Velocity":65,"Duration":90090,"SoundDuration":90090,"Delta":69246254},{"NoteNumber":67,"Velocity":69,"Duration":90089,"SoundDuration":90089,"Delta":69336344},{"NoteNumber":60,"Velocity":63,"Duration":90090,"SoundDuration":90090,"Delta":69426433},{"NoteNumber":64,"Velocity":75,"Duration":90090,"SoundDuration":90090,"Delta":69516523},{"NoteNumber":60,"Velocity":63,"Duration":90089,"SoundDuration":90089,"Delta":69606614},{"NoteNumber":55,"Velocity":68,"Duration":90090,"SoundDuration":90090,"Delta":69696703},{"NoteNumber":48,"Velocity":63,"Duration":107913,"SoundDuration":107913,"Delta":69786793},{"NoteNumber":29,"Velocity":72,"Duration":1420081,"SoundDuration":1420081,"Delta":69894707},{"NoteNumber":41,"Velocity":85,"Duration":1420081,"SoundDuration":1420081,"Delta":69894707},{"NoteNumber":48,"Velocity":64,"Duration":87209,"SoundDuration":87209,"Delta":69981916},{"NoteNumber":57,"Velocity":68,"Duration":87209,"SoundDuration":87209,"Delta":70069126},{"NoteNumber":60,"Velocity":64,"Duration":87209,"SoundDuration":87209,"Delta":70156335},{"NoteNumber":65,"Velocity":78,"Duration":87209,"SoundDuration":87209,"Delta":70243544},{"NoteNumber":60,"Velocity":64,"Duration":87209,"SoundDuration":87209,"Delta":70330753},{"NoteNumber":69,"Velocity":69,"Duration":87209,"SoundDuration":87209,"Delta":70417963},{"NoteNumber":72,"Velocity":67,"Duration":87209,"SoundDuration":87209,"Delta":70505172},{"NoteNumber":77,"Velocity":82,"Duration":89552,"SoundDuration":89552,"Delta":70592381},{"NoteNumber":72,"Velocity":68,"Duration":89552,"SoundDuration":89552,"Delta":70681933},{"NoteNumber":81,"Velocity":73,"Duration":89552,"SoundDuration":89552,"Delta":70771486},{"NoteNumber":84,"Velocity":69,"Duration":89552,"SoundDuration":89552,"Delta":70861038},{"NoteNumber":89,"Velocity":83,"Duration":89552,"SoundDuration":89552,"Delta":70950590},{"NoteNumber":84,"Velocity":69,"Duration":89552,"SoundDuration":89552,"Delta":71040142},{"NoteNumber":93,"Velocity":74,"Duration":89552,"SoundDuration":89552,"Delta":71129695},{"NoteNumber":96,"Velocity":70,"Duration":95541,"SoundDuration":95541,"Delta":71219247},{"NoteNumber":100,"Velocity":88,"Duration":87209,"SoundDuration":87209,"Delta":71314788},{"NoteNumber":30,"Velocity":77,"Duration":1417229,"SoundDuration":1417229,"Delta":71314788},{"NoteNumber":42,"Velocity":91,"Duration":1417229,"SoundDuration":1417229,"Delta":71314788},{"NoteNumber":96,"Velocity":70,"Duration":87209,"SoundDuration":87209,"Delta":71401998},{"NoteNumber":93,"Velocity":77,"Duration":87209,"SoundDuration":87209,"Delta":71489207},{"NoteNumber":84,"Velocity":71,"Duration":87209,"SoundDuration":87209,"Delta":71576416},{"NoteNumber":88,"Velocity":89,"Duration":87209,"SoundDuration":87209,"Delta":71663625},{"NoteNumber":84,"Velocity":72,"Duration":87209,"SoundDuration":87209,"Delta":71750835},{"NoteNumber":81,"Velocity":79,"Duration":87209,"SoundDuration":87209,"Delta":71838044},{"NoteNumber":72,"Velocity":73,"Duration":87209,"SoundDuration":87209,"Delta":71925253},{"NoteNumber":76,"Velocity":89,"Duration":87209,"SoundDuration":87209,"Delta":72012462},{"NoteNumber":72,"Velocity":73,"Duration":87209,"SoundDuration":87209,"Delta":72099672},{"NoteNumber":69,"Velocity":78,"Duration":87209,"SoundDuration":87209,"Delta":72186881},{"NoteNumber":60,"Velocity":72,"Duration":87209,"SoundDuration":87209,"Delta":72274090},{"NoteNumber":62,"Velocity":90,"Duration":87209,"SoundDuration":87209,"Delta":72361299},{"NoteNumber":60,"Velocity":72,"Duration":87209,"SoundDuration":87209,"Delta":72448509},{"NoteNumber":57,"Velocity":79,"Duration":87209,"SoundDuration":87209,"Delta":72535718},{"NoteNumber":48,"Velocity":71,"Duration":109091,"SoundDuration":109091,"Delta":72622927},{"NoteNumber":31,"Velocity":85,"Duration":707964,"SoundDuration":707964,"Delta":72732018},{"NoteNumber":43,"Velocity":101,"Duration":707964,"SoundDuration":707964,"Delta":72732018},{"NoteNumber":47,"Velocity":75,"Duration":88495,"SoundDuration":88495,"Delta":72820514},{"NoteNumber":55,"Velocity":80,"Duration":88495,"SoundDuration":88495,"Delta":72909009},{"NoteNumber":59,"Velocity":75,"Duration":88495,"SoundDuration":88495,"Delta":72997505},{"NoteNumber":62,"Velocity":91,"Duration":88495,"SoundDuration":88495,"Delta":73086000},{"NoteNumber":59,"Velocity":75,"Duration":88495,"SoundDuration":88495,"Delta":73174496},{"NoteNumber":67,"Velocity":80,"Duration":88495,"SoundDuration":88495,"Delta":73262991},{"NoteNumber":71,"Velocity":76,"Duration":88495,"SoundDuration":88495,"Delta":73351487},{"NoteNumber":74,"Velocity":93,"Duration":92307,"SoundDuration":92307,"Delta":73439982},{"NoteNumber":30,"Velocity":86,"Duration":369230,"SoundDuration":369230,"Delta":73439982},{"NoteNumber":42,"Velocity":102,"Duration":369230,"SoundDuration":369230,"Delta":73439982},{"NoteNumber":71,"Velocity":76,"Duration":92307,"SoundDuration":92307,"Delta":73532290},{"NoteNumber":79,"Velocity":82,"Duration":92307,"SoundDuration":92307,"Delta":73624598},{"NoteNumber":83,"Velocity":76,"Duration":92307,"SoundDuration":92307,"Delta":73716905},{"NoteNumber":86,"Velocity":94,"Duration":94339,"SoundDuration":94339,"Delta":73809213},{"NoteNumber":28,"Velocity":86,"Duration":377358,"SoundDuration":377358,"Delta":73809213},{"NoteNumber":40,"Velocity":103,"Duration":377358,"SoundDuration":377358,"Delta":73809213},{"NoteNumber":83,"Velocity":76,"Duration":94339,"SoundDuration":94339,"Delta":73903553},{"NoteNumber":91,"Velocity":83,"Duration":94339,"SoundDuration":94339,"Delta":73997892},{"NoteNumber":93,"Velocity":76,"Duration":94339,"SoundDuration":94339,"Delta":74092232},{"NoteNumber":98,"Velocity":96,"Duration":90090,"SoundDuration":90090,"Delta":74186571},{"NoteNumber":26,"Velocity":85,"Duration":1449389,"SoundDuration":1449389,"Delta":74186571},{"NoteNumber":38,"Velocity":101,"Duration":1449389,"SoundDuration":1449389,"Delta":74186571},{"NoteNumber":93,"Velocity":77,"Duration":90090,"SoundDuration":90090,"Delta":74276661},{"NoteNumber":90,"Velocity":84,"Duration":90089,"SoundDuration":90089,"Delta":74366751},{"NoteNumber":84,"Velocity":76,"Duration":90090,"SoundDuration":90090,"Delta":74456841},{"NoteNumber":86,"Velocity":95,"Duration":90090,"SoundDuration":90090,"Delta":74546931},{"NoteNumber":81,"Velocity":76,"Duration":90089,"SoundDuration":90089,"Delta":74637021},{"NoteNumber":78,"Velocity":83,"Duration":90090,"SoundDuration":90090,"Delta":74727111},{"NoteNumber":72,"Velocity":77,"Duration":90090,"SoundDuration":90090,"Delta":74817201},{"NoteNumber":74,"Velocity":93,"Duration":90090,"SoundDuration":90090,"Delta":74907291},{"NoteNumber":69,"Velocity":77,"Duration":90090,"SoundDuration":90090,"Delta":74997381},{"NoteNumber":66,"Velocity":81,"Duration":90089,"SoundDuration":90089,"Delta":75087471},{"NoteNumber":60,"Velocity":76,"Duration":90090,"SoundDuration":90090,"Delta":75177561},{"NoteNumber":62,"Velocity":91,"Duration":90090,"SoundDuration":90090,"Delta":75267651},{"NoteNumber":57,"Velocity":75,"Duration":90089,"SoundDuration":90089,"Delta":75357741},{"NoteNumber":54,"Velocity":80,"Duration":90090,"SoundDuration":90090,"Delta":75447831},{"NoteNumber":48,"Velocity":74,"Duration":98039,"SoundDuration":98039,"Delta":75537921},{"NoteNumber":31,"Velocity":86,"Duration":2798391,"SoundDuration":2798391,"Delta":75635960},{"NoteNumber":43,"Velocity":102,"Duration":2798391,"SoundDuration":2798391,"Delta":75635960},{"NoteNumber":48,"Velocity":75,"Duration":86956,"SoundDuration":86956,"Delta":75722917},{"NoteNumber":53,"Velocity":80,"Duration":86956,"SoundDuration":86956,"Delta":75809873},{"NoteNumber":56,"Velocity":74,"Duration":86956,"SoundDuration":86956,"Delta":75896830},{"NoteNumber":62,"Velocity":91,"Duration":86956,"SoundDuration":86956,"Delta":75983786},{"NoteNumber":60,"Velocity":74,"Duration":86956,"SoundDuration":86956,"Delta":76070743},{"NoteNumber":65,"Velocity":80,"Duration":86956,"SoundDuration":86956,"Delta":76157699},{"NoteNumber":68,"Velocity":76,"Duration":86956,"SoundDuration":86956,"Delta":76244656},{"NoteNumber":74,"Velocity":93,"Duration":86956,"SoundDuration":86956,"Delta":76331612},{"NoteNumber":72,"Velocity":76,"Duration":86956,"SoundDuration":86956,"Delta":76418569},{"NoteNumber":77,"Velocity":82,"Duration":86956,"SoundDuration":86956,"Delta":76505525},{"NoteNumber":80,"Velocity":77,"Duration":86956,"SoundDuration":86956,"Delta":76592482},{"NoteNumber":86,"Velocity":94,"Duration":86956,"SoundDuration":86956,"Delta":76679438},{"NoteNumber":84,"Velocity":78,"Duration":86956,"SoundDuration":86956,"Delta":76766395},{"NoteNumber":89,"Velocity":83,"Duration":86956,"SoundDuration":86956,"Delta":76853351},{"NoteNumber":92,"Velocity":76,"Duration":86956,"SoundDuration":86956,"Delta":76940308},{"NoteNumber":98,"Velocity":95,"Duration":86956,"SoundDuration":86956,"Delta":77027264},{"NoteNumber":91,"Velocity":78,"Duration":86956,"SoundDuration":86956,"Delta":77114221},{"NoteNumber":89,"Velocity":84,"Duration":86956,"SoundDuration":86956,"Delta":77201177},{"NoteNumber":83,"Velocity":77,"Duration":86956,"SoundDuration":86956,"Delta":77288134},{"NoteNumber":86,"Velocity":94,"Duration":86956,"SoundDuration":86956,"Delta":77375090},{"NoteNumber":79,"Velocity":78,"Duration":86956,"SoundDuration":86956,"Delta":77462047},{"NoteNumber":77,"Velocity":83,"Duration":86956,"SoundDuration":86956,"Delta":77549003},{"NoteNumber":71,"Velocity":77,"Duration":86956,"SoundDuration":86956,"Delta":77635960},{"NoteNumber":74,"Velocity":92,"Duration":86956,"SoundDuration":86956,"Delta":77722916},{"NoteNumber":67,"Velocity":77,"Duration":86956,"SoundDuration":86956,"Delta":77809873},{"NoteNumber":65,"Velocity":81,"Duration":86956,"SoundDuration":86956,"Delta":77896829},{"NoteNumber":59,"Velocity":75,"Duration":86956,"SoundDuration":86956,"Delta":77983786},{"NoteNumber":63,"Velocity":91,"Duration":86956,"SoundDuration":86956,"Delta":78070742},{"NoteNumber":55,"Velocity":74,"Duration":86956,"SoundDuration":86956,"Delta":78157699},{"NoteNumber":53,"Velocity":80,"Duration":86956,"SoundDuration":86956,"Delta":78244655},{"NoteNumber":47,"Velocity":75,"Duration":102739,"SoundDuration":102739,"Delta":78331612},{"NoteNumber":36,"Velocity":79,"Duration":2776753,"SoundDuration":2776753,"Delta":78434352},{"NoteNumber":48,"Velocity":95,"Duration":82615,"SoundDuration":82615,"Delta":78434352},{"NoteNumber":48,"Velocity":75,"Duration":2690546,"SoundDuration":2690546,"Delta":78520559},{"NoteNumber":55,"Velocity":80,"Duration":86207,"SoundDuration":86207,"Delta":78606766},{"NoteNumber":60,"Velocity":75,"Duration":86207,"SoundDuration":86207,"Delta":78692973},{"NoteNumber":64,"Velocity":92,"Duration":86206,"SoundDuration":86206,"Delta":78779180},{"NoteNumber":60,"Velocity":75,"Duration":86207,"SoundDuration":86207,"Delta":78865387},{"NoteNumber":67,"Velocity":80,"Duration":86207,"SoundDuration":86207,"Delta":78951594},{"NoteNumber":72,"Velocity":76,"Duration":86207,"SoundDuration":86207,"Delta":79037801},{"NoteNumber":76,"Velocity":93,"Duration":86207,"SoundDuration":86207,"Delta":79124008},{"NoteNumber":72,"Velocity":76,"Duration":86207,"SoundDuration":86207,"Delta":79210215},{"NoteNumber":79,"Velocity":82,"Duration":86207,"SoundDuration":86207,"Delta":79296422},{"NoteNumber":84,"Velocity":76,"Duration":86207,"SoundDuration":86207,"Delta":79382629},{"NoteNumber":88,"Velocity":94,"Duration":86206,"SoundDuration":86206,"Delta":79468836},{"NoteNumber":84,"Velocity":78,"Duration":86207,"SoundDuration":86207,"Delta":79555043},{"NoteNumber":91,"Velocity":83,"Duration":86207,"SoundDuration":86207,"Delta":79641250},{"NoteNumber":96,"Velocity":78,"Duration":86207,"SoundDuration":86207,"Delta":79727457},{"NoteNumber":100,"Velocity":96,"Duration":86207,"SoundDuration":86207,"Delta":79813664},{"NoteNumber":96,"Velocity":77,"Duration":86207,"SoundDuration":86207,"Delta":79899871},{"NoteNumber":91,"Velocity":84,"Duration":86207,"SoundDuration":86207,"Delta":79986078},{"NoteNumber":84,"Velocity":77,"Duration":86207,"SoundDuration":86207,"Delta":80072285},{"NoteNumber":88,"Velocity":95,"Duration":86206,"SoundDuration":86206,"Delta":80158492},{"NoteNumber":84,"Velocity":76,"Duration":86207,"SoundDuration":86207,"Delta":80244699},{"NoteNumber":79,"Velocity":83,"Duration":86207,"SoundDuration":86207,"Delta":80330906},{"NoteNumber":72,"Velocity":76,"Duration":86207,"SoundDuration":86207,"Delta":80417113},{"NoteNumber":76,"Velocity":94,"Duration":87463,"SoundDuration":87463,"Delta":80503320},{"NoteNumber":72,"Velocity":77,"Duration":87463,"SoundDuration":87463,"Delta":80590783},{"NoteNumber":67,"Velocity":81,"Duration":87463,"SoundDuration":87463,"Delta":80678247},{"NoteNumber":60,"Velocity":77,"Duration":87463,"SoundDuration":87463,"Delta":80765710},{"NoteNumber":64,"Velocity":92,"Duration":87463,"SoundDuration":87463,"Delta":80853174},{"NoteNumber":60,"Velocity":76,"Duration":87463,"SoundDuration":87463,"Delta":80940637},{"NoteNumber":55,"Velocity":80,"Duration":87463,"SoundDuration":87463,"Delta":81028101},{"NoteNumber":48,"Velocity":74,"Duration":95541,"SoundDuration":95541,"Delta":81115564},{"NoteNumber":33,"Velocity":84,"Duration":2436845,"SoundDuration":2436845,"Delta":81211106},{"NoteNumber":45,"Velocity":100,"Duration":2436845,"SoundDuration":2436845,"Delta":81211106},{"NoteNumber":48,"Velocity":75,"Duration":86705,"SoundDuration":86705,"Delta":81297811},{"NoteNumber":53,"Velocity":80,"Duration":86705,"SoundDuration":86705,"Delta":81384516},{"NoteNumber":60,"Velocity":75,"Duration":86705,"SoundDuration":86705,"Delta":81471221},{"NoteNumber":65,"Velocity":85,"Duration":86705,"SoundDuration":86705,"Delta":81557927},{"NoteNumber":60,"Velocity":75,"Duration":86705,"SoundDuration":86705,"Delta":81644632},{"NoteNumber":65,"Velocity":80,"Duration":86705,"SoundDuration":86705,"Delta":81731337},{"NoteNumber":72,"Velocity":76,"Duration":86705,"SoundDuration":86705,"Delta":81818042},{"NoteNumber":77,"Velocity":88,"Duration":86705,"SoundDuration":86705,"Delta":81904748},{"NoteNumber":72,"Velocity":76,"Duration":86705,"SoundDuration":86705,"Delta":81991453},{"NoteNumber":77,"Velocity":82,"Duration":86705,"SoundDuration":86705,"Delta":82078158},{"NoteNumber":84,"Velocity":77,"Duration":86705,"SoundDuration":86705,"Delta":82164863},{"NoteNumber":89,"Velocity":90,"Duration":86705,"SoundDuration":86705,"Delta":82251569},{"NoteNumber":84,"Velocity":78,"Duration":86705,"SoundDuration":86705,"Delta":82338274},{"NoteNumber":89,"Velocity":83,"Duration":86705,"SoundDuration":86705,"Delta":82424979},{"NoteNumber":96,"Velocity":78,"Duration":86705,"SoundDuration":86705,"Delta":82511684},{"NoteNumber":100,"Velocity":92,"Duration":87463,"SoundDuration":87463,"Delta":82598390},{"NoteNumber":96,"Velocity":78,"Duration":87463,"SoundDuration":87463,"Delta":82685853},{"NoteNumber":90,"Velocity":84,"Duration":87463,"SoundDuration":87463,"Delta":82773317},{"NoteNumber":84,"Velocity":78,"Duration":87463,"SoundDuration":87463,"Delta":82860780},{"NoteNumber":88,"Velocity":91,"Duration":87463,"SoundDuration":87463,"Delta":82948244},{"NoteNumber":84,"Velocity":79,"Duration":87463,"SoundDuration":87463,"Delta":83035707},{"NoteNumber":78,"Velocity":83,"Duration":87463,"SoundDuration":87463,"Delta":83123171},{"NoteNumber":72,"Velocity":76,"Duration":87463,"SoundDuration":87463,"Delta":83210634},{"NoteNumber":75,"Velocity":90,"Duration":87463,"SoundDuration":87463,"Delta":83298098},{"NoteNumber":72,"Velocity":78,"Duration":87463,"SoundDuration":87463,"Delta":83385561},{"NoteNumber":66,"Velocity":81,"Duration":87463,"SoundDuration":87463,"Delta":83473025},{"NoteNumber":60,"Velocity":75,"Duration":87463,"SoundDuration":87463,"Delta":83560488},{"NoteNumber":63,"Velocity":86,"Duration":89285,"SoundDuration":89285,"Delta":83647952},{"NoteNumber":32,"Velocity":85,"Duration":360736,"SoundDuration":360736,"Delta":83647952},{"NoteNumber":44,"Velocity":101,"Duration":360736,"SoundDuration":360736,"Delta":83647952},{"NoteNumber":60,"Velocity":74,"Duration":89285,"SoundDuration":89285,"Delta":83737237},{"NoteNumber":54,"Velocity":80,"Duration":89285,"SoundDuration":89285,"Delta":83826523},{"NoteNumber":48,"Velocity":73,"Duration":92879,"SoundDuration":92879,"Delta":83915809},{"NoteNumber":31,"Velocity":80,"Duration":2812083,"SoundDuration":2812083,"Delta":84008688},{"NoteNumber":43,"Velocity":95,"Duration":2812083,"SoundDuration":2812083,"Delta":84008688},{"NoteNumber":48,"Velocity":70,"Duration":87209,"SoundDuration":87209,"Delta":84095897},{"NoteNumber":55,"Velocity":76,"Duration":87209,"SoundDuration":87209,"Delta":84183107},{"NoteNumber":60,"Velocity":71,"Duration":87209,"SoundDuration":87209,"Delta":84270316},{"NoteNumber":62,"Velocity":78,"Duration":87209,"SoundDuration":87209,"Delta":84357525},{"NoteNumber":60,"Velocity":71,"Duration":87209,"SoundDuration":87209,"Delta":84444734},{"NoteNumber":67,"Velocity":76,"Duration":87209,"SoundDuration":87209,"Delta":84531944},{"NoteNumber":72,"Velocity":73,"Duration":87209,"SoundDuration":87209,"Delta":84619153},{"NoteNumber":74,"Velocity":83,"Duration":87209,"SoundDuration":87209,"Delta":84706362},{"NoteNumber":72,"Velocity":74,"Duration":87209,"SoundDuration":87209,"Delta":84793571},{"NoteNumber":79,"Velocity":76,"Duration":87209,"SoundDuration":87209,"Delta":84880781},{"NoteNumber":84,"Velocity":72,"Duration":87209,"SoundDuration":87209,"Delta":84967990},{"NoteNumber":86,"Velocity":85,"Duration":87209,"SoundDuration":87209,"Delta":85055199},{"NoteNumber":84,"Velocity":75,"Duration":87209,"SoundDuration":87209,"Delta":85142408},{"NoteNumber":91,"Velocity":77,"Duration":87209,"SoundDuration":87209,"Delta":85229618},{"NoteNumber":96,"Velocity":71,"Duration":87209,"SoundDuration":87209,"Delta":85316827},{"NoteNumber":98,"Velocity":87,"Duration":87976,"SoundDuration":87976,"Delta":85404036},{"NoteNumber":95,"Velocity":73,"Duration":87976,"SoundDuration":87976,"Delta":85492013},{"NoteNumber":91,"Velocity":78,"Duration":87976,"SoundDuration":87976,"Delta":85579989},{"NoteNumber":83,"Velocity":73,"Duration":87976,"SoundDuration":87976,"Delta":85667966},{"NoteNumber":86,"Velocity":83,"Duration":87976,"SoundDuration":87976,"Delta":85755942},{"NoteNumber":83,"Velocity":73,"Duration":87976,"SoundDuration":87976,"Delta":85843919},{"NoteNumber":79,"Velocity":76,"Duration":87976,"SoundDuration":87976,"Delta":85931895},{"NoteNumber":71,"Velocity":71,"Duration":87976,"SoundDuration":87976,"Delta":86019872},{"NoteNumber":74,"Velocity":82,"Duration":87976,"SoundDuration":87976,"Delta":86107848},{"NoteNumber":71,"Velocity":70,"Duration":87976,"SoundDuration":87976,"Delta":86195825},{"NoteNumber":67,"Velocity":74,"Duration":87976,"SoundDuration":87976,"Delta":86283801},{"NoteNumber":59,"Velocity":70,"Duration":87976,"SoundDuration":87976,"Delta":86371778},{"NoteNumber":62,"Velocity":80,"Duration":87976,"SoundDuration":87976,"Delta":86459754},{"NoteNumber":59,"Velocity":68,"Duration":87976,"SoundDuration":87976,"Delta":86547731},{"NoteNumber":55,"Velocity":73,"Duration":87976,"SoundDuration":87976,"Delta":86635707},{"NoteNumber":47,"Velocity":68,"Duration":97087,"SoundDuration":97087,"Delta":86723684},{"NoteNumber":30,"Velocity":77,"Duration":1390659,"SoundDuration":1390659,"Delta":86820771},{"NoteNumber":42,"Velocity":92,"Duration":1390659,"SoundDuration":1390659,"Delta":86820771},{"NoteNumber":48,"Velocity":69,"Duration":86207,"SoundDuration":86207,"Delta":86906978},{"NoteNumber":57,"Velocity":73,"Duration":86207,"SoundDuration":86207,"Delta":86993185},{"NoteNumber":60,"Velocity":69,"Duration":86207,"SoundDuration":86207,"Delta":87079392},{"NoteNumber":62,"Velocity":75,"Duration":86206,"SoundDuration":86206,"Delta":87165599},{"NoteNumber":60,"Velocity":68,"Duration":86207,"SoundDuration":86207,"Delta":87251806},{"NoteNumber":69,"Velocity":73,"Duration":86207,"SoundDuration":86207,"Delta":87338013},{"NoteNumber":72,"Velocity":69,"Duration":86207,"SoundDuration":86207,"Delta":87424220},{"NoteNumber":74,"Velocity":77,"Duration":86956,"SoundDuration":86956,"Delta":87510427},{"NoteNumber":72,"Velocity":70,"Duration":86956,"SoundDuration":86956,"Delta":87597384},{"NoteNumber":81,"Velocity":73,"Duration":86956,"SoundDuration":86956,"Delta":87684340},{"NoteNumber":84,"Velocity":72,"Duration":86956,"SoundDuration":86956,"Delta":87771297},{"NoteNumber":86,"Velocity":81,"Duration":86956,"SoundDuration":86956,"Delta":87858253},{"NoteNumber":84,"Velocity":72,"Duration":86956,"SoundDuration":86956,"Delta":87945210},{"NoteNumber":93,"Velocity":74,"Duration":86956,"SoundDuration":86956,"Delta":88032166},{"NoteNumber":96,"Velocity":69,"Duration":92307,"SoundDuration":92307,"Delta":88119123},{"NoteNumber":99,"Velocity":82,"Duration":86207,"SoundDuration":86207,"Delta":88211430},{"NoteNumber":29,"Velocity":75,"Duration":1391306,"SoundDuration":1391306,"Delta":88211430},{"NoteNumber":41,"Velocity":90,"Duration":1391306,"SoundDuration":1391306,"Delta":88211430},{"NoteNumber":96,"Velocity":70,"Duration":86207,"SoundDuration":86207,"Delta":88297637},{"NoteNumber":93,"Velocity":75,"Duration":86207,"SoundDuration":86207,"Delta":88383844},{"NoteNumber":84,"Velocity":69,"Duration":86207,"SoundDuration":86207,"Delta":88470051},{"NoteNumber":87,"Velocity":81,"Duration":86206,"SoundDuration":86206,"Delta":88556258},{"NoteNumber":84,"Velocity":70,"Duration":86207,"SoundDuration":86207,"Delta":88642465},{"NoteNumber":81,"Velocity":74,"Duration":86207,"SoundDuration":86207,"Delta":88728672},{"NoteNumber":72,"Velocity":70,"Duration":86207,"SoundDuration":86207,"Delta":88814879},{"NoteNumber":75,"Velocity":79,"Duration":87209,"SoundDuration":87209,"Delta":88901086},{"NoteNumber":71,"Velocity":70,"Duration":87209,"SoundDuration":87209,"Delta":88988296},{"NoteNumber":69,"Velocity":71,"Duration":87209,"SoundDuration":87209,"Delta":89075505},{"NoteNumber":59,"Velocity":67,"Duration":87209,"SoundDuration":87209,"Delta":89162714},{"NoteNumber":63,"Velocity":78,"Duration":87209,"SoundDuration":87209,"Delta":89249923},{"NoteNumber":59,"Velocity":67,"Duration":87209,"SoundDuration":87209,"Delta":89337133},{"NoteNumber":57,"Velocity":71,"Duration":87209,"SoundDuration":87209,"Delta":89424342},{"NoteNumber":47,"Velocity":66,"Duration":91185,"SoundDuration":91185,"Delta":89511551},{"NoteNumber":28,"Velocity":76,"Duration":1379311,"SoundDuration":1379311,"Delta":89602737},{"NoteNumber":40,"Velocity":90,"Duration":2771354,"SoundDuration":2771354,"Delta":89602737},{"NoteNumber":47,"Velocity":66,"Duration":86207,"SoundDuration":86207,"Delta":89688944},{"NoteNumber":56,"Velocity":71,"Duration":86207,"SoundDuration":86207,"Delta":89775151},{"NoteNumber":59,"Velocity":66,"Duration":86207,"SoundDuration":86207,"Delta":89861358},{"NoteNumber":64,"Velocity":74,"Duration":86206,"SoundDuration":86206,"Delta":89947565},{"NoteNumber":59,"Velocity":66,"Duration":86207,"SoundDuration":86207,"Delta":90033772},{"NoteNumber":68,"Velocity":70,"Duration":86207,"SoundDuration":86207,"Delta":90119979},{"NoteNumber":71,"Velocity":66,"Duration":86207,"SoundDuration":86207,"Delta":90206186},{"NoteNumber":76,"Velocity":78,"Duration":86207,"SoundDuration":86207,"Delta":90292393},{"NoteNumber":71,"Velocity":66,"Duration":86207,"SoundDuration":86207,"Delta":90378600},{"NoteNumber":80,"Velocity":71,"Duration":86207,"SoundDuration":86207,"Delta":90464807},{"NoteNumber":83,"Velocity":67,"Duration":86207,"SoundDuration":86207,"Delta":90551014},{"NoteNumber":88,"Velocity":80,"Duration":86206,"SoundDuration":86206,"Delta":90637221},{"NoteNumber":83,"Velocity":68,"Duration":86207,"SoundDuration":86207,"Delta":90723428},{"NoteNumber":92,"Velocity":71,"Duration":86207,"SoundDuration":86207,"Delta":90809635},{"NoteNumber":95,"Velocity":68,"Duration":86207,"SoundDuration":86207,"Delta":90895842},{"NoteNumber":100,"Velocity":81,"Duration":86705,"SoundDuration":86705,"Delta":90982049},{"NoteNumber":52,"Velocity":88,"Duration":1392042,"SoundDuration":1392042,"Delta":90982049},{"NoteNumber":95,"Velocity":69,"Duration":86705,"SoundDuration":86705,"Delta":91068754},{"NoteNumber":92,"Velocity":71,"Duration":86705,"SoundDuration":86705,"Delta":91155459},{"NoteNumber":83,"Velocity":65,"Duration":86705,"SoundDuration":86705,"Delta":91242164},{"NoteNumber":88,"Velocity":79,"Duration":86705,"SoundDuration":86705,"Delta":91328870},{"NoteNumber":83,"Velocity":66,"Duration":86705,"SoundDuration":86705,"Delta":91415575},{"NoteNumber":80,"Velocity":69,"Duration":86705,"SoundDuration":86705,"Delta":91502280},{"NoteNumber":71,"Velocity":62,"Duration":86705,"SoundDuration":86705,"Delta":91588985},{"NoteNumber":76,"Velocity":75,"Duration":86705,"SoundDuration":86705,"Delta":91675691},{"NoteNumber":71,"Velocity":62,"Duration":86705,"SoundDuration":86705,"Delta":91762396},{"NoteNumber":68,"Velocity":65,"Duration":86705,"SoundDuration":86705,"Delta":91849101},{"NoteNumber":59,"Velocity":60,"Duration":86705,"SoundDuration":86705,"Delta":91935806},{"NoteNumber":64,"Velocity":70,"Duration":86705,"SoundDuration":86705,"Delta":92022512},{"NoteNumber":59,"Velocity":59,"Duration":86705,"SoundDuration":86705,"Delta":92109217},{"NoteNumber":56,"Velocity":62,"Duration":86705,"SoundDuration":86705,"Delta":92195922},{"NoteNumber":47,"Velocity":55,"Duration":91463,"SoundDuration":91463,"Delta":92282627},{"NoteNumber":38,"Velocity":65,"Duration":1379311,"SoundDuration":1379311,"Delta":92374091},{"NoteNumber":50,"Velocity":50,"Duration":86207,"SoundDuration":86207,"Delta":92460298},{"NoteNumber":57,"Velocity":54,"Duration":86207,"SoundDuration":86207,"Delta":92546505},{"NoteNumber":60,"Velocity":49,"Duration":86207,"SoundDuration":86207,"Delta":92632712},{"NoteNumber":65,"Velocity":62,"Duration":86206,"SoundDuration":86206,"Delta":92718919},{"NoteNumber":62,"Velocity":50,"Duration":86207,"SoundDuration":86207,"Delta":92805126},{"NoteNumber":69,"Velocity":54,"Duration":86207,"SoundDuration":86207,"Delta":92891333},{"NoteNumber":72,"Velocity":52,"Duration":86207,"SoundDuration":86207,"Delta":92977540},{"NoteNumber":77,"Velocity":63,"Duration":86207,"SoundDuration":86207,"Delta":93063747},{"NoteNumber":74,"Velocity":51,"Duration":86207,"SoundDuration":86207,"Delta":93149954},{"NoteNumber":81,"Velocity":55,"Duration":86207,"SoundDuration":86207,"Delta":93236161},{"NoteNumber":84,"Velocity":52,"Duration":86207,"SoundDuration":86207,"Delta":93322368},{"NoteNumber":89,"Velocity":63,"Duration":86206,"SoundDuration":86206,"Delta":93408575},{"NoteNumber":86,"Velocity":53,"Duration":86207,"SoundDuration":86207,"Delta":93494782},{"NoteNumber":93,"Velocity":56,"Duration":86207,"SoundDuration":86207,"Delta":93580989},{"NoteNumber":96,"Velocity":53,"Duration":86207,"SoundDuration":86207,"Delta":93667196},{"NoteNumber":101,"Velocity":64,"Duration":86207,"SoundDuration":86207,"Delta":93753403},{"NoteNumber":31,"Velocity":56,"Duration":1382925,"SoundDuration":1382925,"Delta":93753403},{"NoteNumber":43,"Velocity":67,"Duration":1382925,"SoundDuration":1382925,"Delta":93753403},{"NoteNumber":95,"Velocity":53,"Duration":86207,"SoundDuration":86207,"Delta":93839610},{"NoteNumber":91,"Velocity":57,"Duration":86207,"SoundDuration":86207,"Delta":93925817},{"NoteNumber":86,"Velocity":52,"Duration":86207,"SoundDuration":86207,"Delta":94012024},{"NoteNumber":89,"Velocity":63,"Duration":86206,"SoundDuration":86206,"Delta":94098231},{"NoteNumber":83,"Velocity":50,"Duration":86207,"SoundDuration":86207,"Delta":94184438},{"NoteNumber":79,"Velocity":56,"Duration":86207,"SoundDuration":86207,"Delta":94270645},{"NoteNumber":74,"Velocity":51,"Duration":86207,"SoundDuration":86207,"Delta":94356852},{"NoteNumber":77,"Velocity":62,"Duration":86207,"SoundDuration":86207,"Delta":94443059},{"NoteNumber":71,"Velocity":52,"Duration":86207,"SoundDuration":86207,"Delta":94529266},{"NoteNumber":67,"Velocity":55,"Duration":86207,"SoundDuration":86207,"Delta":94615473},{"NoteNumber":62,"Velocity":52,"Duration":86207,"SoundDuration":86207,"Delta":94701680},{"NoteNumber":65,"Velocity":62,"Duration":86207,"SoundDuration":86207,"Delta":94787887},{"NoteNumber":59,"Velocity":50,"Duration":86206,"SoundDuration":86206,"Delta":94874094},{"NoteNumber":55,"Velocity":54,"Duration":86207,"SoundDuration":86207,"Delta":94960301},{"NoteNumber":50,"Velocity":50,"Duration":89820,"SoundDuration":89820,"Delta":95046508},{"NoteNumber":36,"Velocity":70,"Duration":2783007,"SoundDuration":2783007,"Delta":95136328},{"NoteNumber":48,"Velocity":52,"Duration":86207,"SoundDuration":86207,"Delta":95222535},{"NoteNumber":55,"Velocity":56,"Duration":86207,"SoundDuration":86207,"Delta":95308742},{"NoteNumber":60,"Velocity":51,"Duration":86207,"SoundDuration":86207,"Delta":95394949},{"NoteNumber":64,"Velocity":63,"Duration":86206,"SoundDuration":86206,"Delta":95481156},{"NoteNumber":60,"Velocity":53,"Duration":86207,"SoundDuration":86207,"Delta":95567363},{"NoteNumber":67,"Velocity":57,"Duration":86207,"SoundDuration":86207,"Delta":95653570},{"NoteNumber":72,"Velocity":52,"Duration":86207,"SoundDuration":86207,"Delta":95739777},{"NoteNumber":76,"Velocity":65,"Duration":86207,"SoundDuration":86207,"Delta":95825984},{"NoteNumber":72,"Velocity":52,"Duration":86207,"SoundDuration":86207,"Delta":95912191},{"NoteNumber":82,"Velocity":58,"Duration":86207,"SoundDuration":86207,"Delta":95998398},{"NoteNumber":84,"Velocity":53,"Duration":86207,"SoundDuration":86207,"Delta":96084605},{"NoteNumber":91,"Velocity":70,"Duration":86206,"SoundDuration":86206,"Delta":96170812},{"NoteNumber":84,"Velocity":61,"Duration":86207,"SoundDuration":86207,"Delta":96257019},{"NoteNumber":82,"Velocity":63,"Duration":86207,"SoundDuration":86207,"Delta":96343226},{"NoteNumber":76,"Velocity":63,"Duration":86207,"SoundDuration":86207,"Delta":96429433},{"NoteNumber":90,"Velocity":70,"Duration":87463,"SoundDuration":87463,"Delta":96515640},{"NoteNumber":48,"Velocity":75,"Duration":1403695,"SoundDuration":1403695,"Delta":96515640},{"NoteNumber":84,"Velocity":61,"Duration":87463,"SoundDuration":87463,"Delta":96603104},{"NoteNumber":81,"Velocity":63,"Duration":87463,"SoundDuration":87463,"Delta":96690567},{"NoteNumber":75,"Velocity":61,"Duration":87463,"SoundDuration":87463,"Delta":96778031},{"NoteNumber":78,"Velocity":68,"Duration":87463,"SoundDuration":87463,"Delta":96865494},{"NoteNumber":72,"Velocity":62,"Duration":87463,"SoundDuration":87463,"Delta":96952958},{"NoteNumber":69,"Velocity":63,"Duration":87463,"SoundDuration":87463,"Delta":97040421},{"NoteNumber":63,"Velocity":61,"Duration":87463,"SoundDuration":87463,"Delta":97127885},{"NoteNumber":77,"Velocity":68,"Duration":87463,"SoundDuration":87463,"Delta":97215348},{"NoteNumber":71,"Velocity":60,"Duration":87463,"SoundDuration":87463,"Delta":97302812},{"NoteNumber":68,"Velocity":60,"Duration":87463,"SoundDuration":87463,"Delta":97390275},{"NoteNumber":62,"Velocity":58,"Duration":87463,"SoundDuration":87463,"Delta":97477739},{"NoteNumber":65,"Velocity":70,"Duration":87463,"SoundDuration":87463,"Delta":97565202},{"NoteNumber":59,"Velocity":61,"Duration":87463,"SoundDuration":87463,"Delta":97652666},{"NoteNumber":56,"Velocity":61,"Duration":87463,"SoundDuration":87463,"Delta":97740129},{"NoteNumber":50,"Velocity":57,"Duration":91742,"SoundDuration":91742,"Delta":97827593},{"NoteNumber":36,"Velocity":79,"Duration":1379311,"SoundDuration":1379311,"Delta":97919336},{"NoteNumber":48,"Velocity":60,"Duration":86207,"SoundDuration":86207,"Delta":98005543},{"NoteNumber":55,"Velocity":64,"Duration":86207,"SoundDuration":86207,"Delta":98091750},{"NoteNumber":60,"Velocity":60,"Duration":86207,"SoundDuration":86207,"Delta":98177957},{"NoteNumber":64,"Velocity":71,"Duration":86206,"SoundDuration":86206,"Delta":98264164},{"NoteNumber":60,"Velocity":65,"Duration":86207,"SoundDuration":86207,"Delta":98350371},{"NoteNumber":67,"Velocity":69,"Duration":86207,"SoundDuration":86207,"Delta":98436578},{"NoteNumber":72,"Velocity":65,"Duration":86207,"SoundDuration":86207,"Delta":98522785},{"NoteNumber":79,"Velocity":75,"Duration":86207,"SoundDuration":86207,"Delta":98608992},{"NoteNumber":76,"Velocity":67,"Duration":86207,"SoundDuration":86207,"Delta":98695199},{"NoteNumber":79,"Velocity":73,"Duration":86207,"SoundDuration":86207,"Delta":98781406},{"NoteNumber":84,"Velocity":68,"Duration":86207,"SoundDuration":86207,"Delta":98867613},{"NoteNumber":88,"Velocity":80,"Duration":86206,"SoundDuration":86206,"Delta":98953820},{"NoteNumber":84,"Velocity":72,"Duration":86207,"SoundDuration":86207,"Delta":99040027},{"NoteNumber":79,"Velocity":77,"Duration":86207,"SoundDuration":86207,"Delta":99126234},{"NoteNumber":72,"Velocity":73,"Duration":86207,"SoundDuration":86207,"Delta":99212441},{"NoteNumber":87,"Velocity":86,"Duration":86207,"SoundDuration":86207,"Delta":99298648},{"NoteNumber":31,"Velocity":80,"Duration":1390482,"SoundDuration":1390482,"Delta":99298648},{"NoteNumber":43,"Velocity":95,"Duration":1390482,"SoundDuration":1390482,"Delta":99298648},{"NoteNumber":81,"Velocity":75,"Duration":86207,"SoundDuration":86207,"Delta":99384855},{"NoteNumber":78,"Velocity":79,"Duration":86207,"SoundDuration":86207,"Delta":99471062},{"NoteNumber":72,"Velocity":73,"Duration":86207,"SoundDuration":86207,"Delta":99557269},{"NoteNumber":75,"Velocity":84,"Duration":86206,"SoundDuration":86206,"Delta":99643476},{"NoteNumber":69,"Velocity":70,"Duration":86207,"SoundDuration":86207,"Delta":99729683},{"NoteNumber":66,"Velocity":76,"Duration":86207,"SoundDuration":86207,"Delta":99815890},{"NoteNumber":60,"Velocity":71,"Duration":86207,"SoundDuration":86207,"Delta":99902097},{"NoteNumber":74,"Velocity":80,"Duration":87209,"SoundDuration":87209,"Delta":99988304},{"NoteNumber":68,"Velocity":70,"Duration":87209,"SoundDuration":87209,"Delta":100075513},{"NoteNumber":65,"Velocity":72,"Duration":87209,"SoundDuration":87209,"Delta":100162722},{"NoteNumber":59,"Velocity":68,"Duration":87209,"SoundDuration":87209,"Delta":100249931},{"NoteNumber":62,"Velocity":80,"Duration":87209,"SoundDuration":87209,"Delta":100337141},{"NoteNumber":56,"Velocity":66,"Duration":87209,"SoundDuration":87209,"Delta":100424350},{"NoteNumber":53,"Velocity":69,"Duration":87209,"SoundDuration":87209,"Delta":100511559},{"NoteNumber":47,"Velocity":64,"Duration":90361,"SoundDuration":90361,"Delta":100598768},{"NoteNumber":31,"Velocity":74,"Duration":2768774,"SoundDuration":2768774,"Delta":100689130},{"NoteNumber":43,"Velocity":88,"Duration":2768774,"SoundDuration":2768774,"Delta":100689130},{"NoteNumber":46,"Velocity":60,"Duration":86207,"SoundDuration":86207,"Delta":100775337},{"NoteNumber":52,"Velocity":64,"Duration":86207,"SoundDuration":86207,"Delta":100861544},{"NoteNumber":55,"Velocity":61,"Duration":86207,"SoundDuration":86207,"Delta":100947751},{"NoteNumber":61,"Velocity":76,"Duration":86206,"SoundDuration":86206,"Delta":101033958},{"NoteNumber":58,"Velocity":64,"Duration":86207,"SoundDuration":86207,"Delta":101120165},{"NoteNumber":64,"Velocity":69,"Duration":86207,"SoundDuration":86207,"Delta":101206372},{"NoteNumber":67,"Velocity":64,"Duration":86207,"SoundDuration":86207,"Delta":101292579},{"NoteNumber":73,"Velocity":75,"Duration":86207,"SoundDuration":86207,"Delta":101378786},{"NoteNumber":70,"Velocity":66,"Duration":86207,"SoundDuration":86207,"Delta":101464993},{"NoteNumber":76,"Velocity":73,"Duration":86207,"SoundDuration":86207,"Delta":101551200},{"NoteNumber":79,"Velocity":69,"Duration":86207,"SoundDuration":86207,"Delta":101637407},{"NoteNumber":85,"Velocity":80,"Duration":86206,"SoundDuration":86206,"Delta":101723614},{"NoteNumber":82,"Velocity":71,"Duration":86207,"SoundDuration":86207,"Delta":101809821},{"NoteNumber":88,"Velocity":77,"Duration":86207,"SoundDuration":86207,"Delta":101896028},{"NoteNumber":91,"Velocity":73,"Duration":90361,"SoundDuration":90361,"Delta":101982235},{"NoteNumber":97,"Velocity":84,"Duration":86207,"SoundDuration":86207,"Delta":102072596},{"NoteNumber":90,"Velocity":75,"Duration":86207,"SoundDuration":86207,"Delta":102158803},{"NoteNumber":87,"Velocity":79,"Duration":86207,"SoundDuration":86207,"Delta":102245010},{"NoteNumber":81,"Velocity":72,"Duration":86207,"SoundDuration":86207,"Delta":102331217},{"NoteNumber":85,"Velocity":82,"Duration":86206,"SoundDuration":86206,"Delta":102417424},{"NoteNumber":78,"Velocity":71,"Duration":86207,"SoundDuration":86207,"Delta":102503631},{"NoteNumber":75,"Velocity":76,"Duration":86207,"SoundDuration":86207,"Delta":102589838},{"NoteNumber":69,"Velocity":69,"Duration":86207,"SoundDuration":86207,"Delta":102676045},{"NoteNumber":73,"Velocity":81,"Duration":86956,"SoundDuration":86956,"Delta":102762252},{"NoteNumber":66,"Velocity":68,"Duration":86956,"SoundDuration":86956,"Delta":102849209},{"NoteNumber":63,"Velocity":72,"Duration":86956,"SoundDuration":86956,"Delta":102936165},{"NoteNumber":57,"Velocity":68,"Duration":86956,"SoundDuration":86956,"Delta":103023122},{"NoteNumber":72,"Velocity":78,"Duration":86956,"SoundDuration":86956,"Delta":103110078},{"NoteNumber":66,"Velocity":65,"Duration":86956,"SoundDuration":86956,"Delta":103197035},{"NoteNumber":63,"Velocity":69,"Duration":86956,"SoundDuration":86956,"Delta":103283991},{"NoteNumber":57,"Velocity":64,"Duration":86956,"SoundDuration":86956,"Delta":103370948},{"NoteNumber":31,"Velocity":75,"Duration":2781986,"SoundDuration":2781986,"Delta":103457904},{"NoteNumber":43,"Velocity":89,"Duration":2781986,"SoundDuration":2781986,"Delta":103457904},{"NoteNumber":56,"Velocity":68,"Duration":86207,"SoundDuration":86207,"Delta":103544111},{"NoteNumber":62,"Velocity":64,"Duration":86207,"SoundDuration":86207,"Delta":103630318},{"NoteNumber":65,"Velocity":69,"Duration":86207,"SoundDuration":86207,"Delta":103716525},{"NoteNumber":72,"Velocity":76,"Duration":86206,"SoundDuration":86206,"Delta":103802732},{"NoteNumber":68,"Velocity":68,"Duration":86207,"SoundDuration":86207,"Delta":103888939},{"NoteNumber":74,"Velocity":72,"Duration":86207,"SoundDuration":86207,"Delta":103975146},{"NoteNumber":77,"Velocity":69,"Duration":86207,"SoundDuration":86207,"Delta":104061353},{"NoteNumber":84,"Velocity":78,"Duration":86207,"SoundDuration":86207,"Delta":104147560},{"NoteNumber":80,"Velocity":71,"Duration":86207,"SoundDuration":86207,"Delta":104233767},{"NoteNumber":86,"Velocity":75,"Duration":86207,"SoundDuration":86207,"Delta":104319974},{"NoteNumber":89,"Velocity":72,"Duration":86207,"SoundDuration":86207,"Delta":104406181},{"NoteNumber":96,"Velocity":81,"Duration":86206,"SoundDuration":86206,"Delta":104492388},{"NoteNumber":89,"Velocity":74,"Duration":86207,"SoundDuration":86207,"Delta":104578595},{"NoteNumber":86,"Velocity":78,"Duration":86207,"SoundDuration":86207,"Delta":104664802},{"NoteNumber":80,"Velocity":74,"Duration":86207,"SoundDuration":86207,"Delta":104751009},{"NoteNumber":95,"Velocity":86,"Duration":86207,"SoundDuration":86207,"Delta":104837216},{"NoteNumber":89,"Velocity":74,"Duration":86207,"SoundDuration":86207,"Delta":104923423},{"NoteNumber":86,"Velocity":79,"Duration":86207,"SoundDuration":86207,"Delta":105009630},{"NoteNumber":79,"Velocity":74,"Duration":86207,"SoundDuration":86207,"Delta":105095837},{"NoteNumber":83,"Velocity":81,"Duration":86455,"SoundDuration":86455,"Delta":105182044},{"NoteNumber":77,"Velocity":73,"Duration":86455,"SoundDuration":86455,"Delta":105268500},{"NoteNumber":74,"Velocity":76,"Duration":86455,"SoundDuration":86455,"Delta":105354955},{"NoteNumber":67,"Velocity":71,"Duration":86538,"SoundDuration":86538,"Delta":105441410},{"NoteNumber":71,"Velocity":77,"Duration":86705,"SoundDuration":86705,"Delta":105527949},{"NoteNumber":65,"Velocity":69,"Duration":86705,"SoundDuration":86705,"Delta":105614654},{"NoteNumber":62,"Velocity":73,"Duration":86705,"SoundDuration":86705,"Delta":105701359},{"NoteNumber":55,"Velocity":69,"Duration":88190,"SoundDuration":88190,"Delta":105788065},{"NoteNumber":59,"Velocity":80,"Duration":90908,"SoundDuration":90908,"Delta":105876255},{"NoteNumber":53,"Velocity":66,"Duration":90908,"SoundDuration":90908,"Delta":105967164},{"NoteNumber":50,"Velocity":69,"Duration":90909,"SoundDuration":90909,"Delta":106058073},{"NoteNumber":43,"Velocity":68,"Duration":90908,"SoundDuration":90908,"Delta":106148982},{"NoteNumber":24,"Velocity":85,"Duration":2803814,"SoundDuration":2803814,"Delta":106239891},{"NoteNumber":36,"Velocity":102,"Duration":2803814,"SoundDuration":2803814,"Delta":106239891},{"NoteNumber":43,"Velocity":66,"Duration":86705,"SoundDuration":86705,"Delta":106326596},{"NoteNumber":52,"Velocity":68,"Duration":86705,"SoundDuration":86705,"Delta":106413301},{"NoteNumber":55,"Velocity":65,"Duration":86705,"SoundDuration":86705,"Delta":106500007},{"NoteNumber":60,"Velocity":78,"Duration":86705,"SoundDuration":86705,"Delta":106586712},{"NoteNumber":55,"Velocity":71,"Duration":86705,"SoundDuration":86705,"Delta":106673417},{"NoteNumber":64,"Velocity":72,"Duration":86455,"SoundDuration":86455,"Delta":106760122},{"NoteNumber":67,"Velocity":68,"Duration":86455,"SoundDuration":86455,"Delta":106846578},{"NoteNumber":72,"Velocity":83,"Duration":86455,"SoundDuration":86455,"Delta":106933033},{"NoteNumber":67,"Velocity":70,"Duration":86455,"SoundDuration":86455,"Delta":107019488},{"NoteNumber":76,"Velocity":75,"Duration":86455,"SoundDuration":86455,"Delta":107105943},{"NoteNumber":79,"Velocity":72,"Duration":86455,"SoundDuration":86455,"Delta":107192399},{"NoteNumber":84,"Velocity":87,"Duration":86207,"SoundDuration":86207,"Delta":107278854},{"NoteNumber":79,"Velocity":72,"Duration":86207,"SoundDuration":86207,"Delta":107365061},{"NoteNumber":88,"Velocity":78,"Duration":90908,"SoundDuration":90908,"Delta":107451268},{"NoteNumber":91,"Velocity":75,"Duration":90909,"SoundDuration":90909,"Delta":107542177},{"NoteNumber":96,"Velocity":91,"Duration":86956,"SoundDuration":86956,"Delta":107633086},{"NoteNumber":91,"Velocity":75,"Duration":86956,"SoundDuration":86956,"Delta":107720042},{"NoteNumber":88,"Velocity":80,"Duration":87209,"SoundDuration":87209,"Delta":107806999},{"NoteNumber":79,"Velocity":75,"Duration":87209,"SoundDuration":87209,"Delta":107894208},{"NoteNumber":84,"Velocity":91,"Duration":87463,"SoundDuration":87463,"Delta":107981417},{"NoteNumber":79,"Velocity":73,"Duration":87463,"SoundDuration":87463,"Delta":108068881},{"NoteNumber":76,"Velocity":78,"Duration":87719,"SoundDuration":87719,"Delta":108156344},{"NoteNumber":67,"Velocity":74,"Duration":87719,"SoundDuration":87719,"Delta":108244064},{"NoteNumber":72,"Velocity":89,"Duration":87976,"SoundDuration":87976,"Delta":108331783},{"NoteNumber":67,"Velocity":77,"Duration":87976,"SoundDuration":87976,"Delta":108419759},{"NoteNumber":64,"Velocity":71,"Duration":88235,"SoundDuration":88235,"Delta":108507736},{"NoteNumber":55,"Velocity":73,"Duration":88235,"SoundDuration":88235,"Delta":108595971},{"NoteNumber":60,"Velocity":86,"Duration":88495,"SoundDuration":88495,"Delta":108684206},{"NoteNumber":55,"Velocity":73,"Duration":88495,"SoundDuration":88495,"Delta":108772702},{"NoteNumber":52,"Velocity":76,"Duration":88757,"SoundDuration":88757,"Delta":108861197},{"NoteNumber":43,"Velocity":70,"Duration":93750,"SoundDuration":93750,"Delta":108949955},{"NoteNumber":24,"Velocity":85,"Duration":1424332,"SoundDuration":1424332,"Delta":109043705},{"NoteNumber":36,"Velocity":102,"Duration":1424332,"SoundDuration":1424332,"Delta":109043705}],"license":{"name":"Creative Commons Attribution-ShareAlike 3.0 Germany","url":"http://creativecommons.org/licenses/by-sa/3.0/de/deed.en","text":"The MIDI files in this folder were downloaded from http://www.piano-midi.de and are licensed under the Creative Commons Attribution-ShareAlike 3.0 Germany license by Bernd Krueger.\n\nThe MIDI, audio(MP3, OGG) and video files of Bernd Krueger are licensed under the cc-by-sa Germany License . This means, that you can use and adapt the files, as long as you attribute to the copyright holder Name: Bernd Krueger Source: http://www.piano-midi.de The distribution or public playback of the files is only allowed under identical license conditions . The scores are open source.","attribution":"Bernd Krueger","attributionUrl":"http://www.piano-midi.de"}}