{"title":"Impromptu in C# minor Opus 66","artist":"Chopin","durationMs":270396,"midiSha256":"4f88281bca1917af6519a842d216308646d67845212e296760764ba0cb3947af","midiObject":[{"NoteNumber":44,"Velocity":79,"Duration":2730375,"SoundDuration":2730375,"Delta":0},{"NoteNumber":56,"Velocity":79,"Duration":2730375,"SoundDuration":2730375,"Delta":0},{"NoteNumber":37,"Velocity":75,"Duration":174074,"SoundDuration":174074,"Delta":2730375},{"NoteNumber":49,"Velocity":75,"Duration":174074,"SoundDuration":174074,"Delta":2730375},{"NoteNumber":56,"Velocity":60,"Duration":125235,"SoundDuration":125235,"Delta":2904450},{"NoteNumber":61,"Velocity":64,"Duration":122511,"SoundDuration":122511,"Delta":3029685},{"NoteNumber":64,"Velocity":65,"Duration":121766,"SoundDuration":121766,"Delta":3152197},{"NoteNumber":61,"Velocity":62,"Duration":121028,"SoundDuration":121028,"Delta":3273963},{"NoteNumber":56,"Velocity":61,"Duration":120301,"SoundDuration":120301,"Delta":3394992},{"NoteNumber":49,"Velocity":57,"Duration":119581,"SoundDuration":119581,"Delta":3515293},{"NoteNumber":56,"Velocity":58,"Duration":118870,"SoundDuration":118870,"Delta":3634874},{"NoteNumber":61,"Velocity":60,"Duration":118081,"SoundDuration":118081,"Delta":3753745},{"NoteNumber":64,"Velocity":60,"Duration":115275,"SoundDuration":115275,"Delta":3871827},{"NoteNumber":61,"Velocity":58,"Duration":117479,"SoundDuration":117479,"Delta":3987102},{"NoteNumber":56,"Velocity":57,"Duration":117995,"SoundDuration":117995,"Delta":4104582},{"NoteNumber":49,"Velocity":53,"Duration":116788,"SoundDuration":116788,"Delta":4222578},{"NoteNumber":56,"Velocity":54,"Duration":117562,"SoundDuration":117562,"Delta":4339366},{"NoteNumber":61,"Velocity":55,"Duration":118171,"SoundDuration":118171,"Delta":4456929},{"NoteNumber":64,"Velocity":54,"Duration":116703,"SoundDuration":116703,"Delta":4575100},{"NoteNumber":61,"Velocity":52,"Duration":117303,"SoundDuration":117303,"Delta":4691803},{"NoteNumber":56,"Velocity":50,"Duration":117301,"SoundDuration":117301,"Delta":4809107},{"NoteNumber":49,"Velocity":45,"Duration":117908,"SoundDuration":117908,"Delta":4926409},{"NoteNumber":56,"Velocity":47,"Duration":120125,"SoundDuration":120125,"Delta":5044317},{"NoteNumber":61,"Velocity":49,"Duration":122705,"SoundDuration":122705,"Delta":5164443},{"NoteNumber":64,"Velocity":46,"Duration":126197,"SoundDuration":126197,"Delta":5287148},{"NoteNumber":61,"Velocity":43,"Duration":133269,"SoundDuration":133269,"Delta":5413345},{"NoteNumber":56,"Velocity":38,"Duration":142048,"SoundDuration":142048,"Delta":5546615},{"NoteNumber":49,"Velocity":22,"Duration":117820,"SoundDuration":117820,"Delta":5688663},{"NoteNumber":68,"Velocity":37,"Duration":87804,"SoundDuration":87804,"Delta":5777158},{"NoteNumber":56,"Velocity":25,"Duration":117044,"SoundDuration":117044,"Delta":5806484},{"NoteNumber":69,"Velocity":41,"Duration":87977,"SoundDuration":87977,"Delta":5864963},{"NoteNumber":61,"Velocity":28,"Duration":118875,"SoundDuration":118875,"Delta":5923529},{"NoteNumber":68,"Velocity":38,"Duration":89463,"SoundDuration":89463,"Delta":5952940},{"NoteNumber":67,"Velocity":39,"Duration":88758,"SoundDuration":88758,"Delta":6042404},{"NoteNumber":64,"Velocity":30,"Duration":118170,"SoundDuration":118170,"Delta":6042404},{"NoteNumber":68,"Velocity":40,"Duration":88149,"SoundDuration":88149,"Delta":6131163},{"NoteNumber":61,"Velocity":28,"Duration":117734,"SoundDuration":117734,"Delta":6160575},{"NoteNumber":73,"Velocity":42,"Duration":88671,"SoundDuration":88671,"Delta":6219312},{"NoteNumber":56,"Velocity":27,"Duration":118606,"SoundDuration":118606,"Delta":6278310},{"NoteNumber":76,"Velocity":43,"Duration":88932,"SoundDuration":88932,"Delta":6307983},{"NoteNumber":75,"Velocity":45,"Duration":88323,"SoundDuration":88323,"Delta":6396916},{"NoteNumber":52,"Velocity":26,"Duration":117562,"SoundDuration":117562,"Delta":6396916},{"NoteNumber":73,"Velocity":43,"Duration":87719,"SoundDuration":87719,"Delta":6485240},{"NoteNumber":56,"Velocity":28,"Duration":117044,"SoundDuration":117044,"Delta":6514479},{"NoteNumber":75,"Velocity":45,"Duration":87976,"SoundDuration":87976,"Delta":6572959},{"NoteNumber":61,"Velocity":30,"Duration":118256,"SoundDuration":118256,"Delta":6631524},{"NoteNumber":73,"Velocity":43,"Duration":88845,"SoundDuration":88845,"Delta":6660936},{"NoteNumber":72,"Velocity":44,"Duration":88063,"SoundDuration":88063,"Delta":6749781},{"NoteNumber":64,"Velocity":31,"Duration":117389,"SoundDuration":117389,"Delta":6749781},{"NoteNumber":73,"Velocity":46,"Duration":88235,"SoundDuration":88235,"Delta":6837845},{"NoteNumber":61,"Velocity":28,"Duration":117907,"SoundDuration":117907,"Delta":6867170},{"NoteNumber":76,"Velocity":49,"Duration":88495,"SoundDuration":88495,"Delta":6926081},{"NoteNumber":56,"Velocity":27,"Duration":134349,"SoundDuration":134349,"Delta":6985078},{"NoteNumber":80,"Velocity":47,"Duration":104851,"SoundDuration":104851,"Delta":7014576},{"NoteNumber":49,"Velocity":27,"Duration":130426,"SoundDuration":130426,"Delta":7119427},{"NoteNumber":68,"Velocity":45,"Duration":88852,"SoundDuration":88852,"Delta":7220173},{"NoteNumber":56,"Velocity":30,"Duration":118081,"SoundDuration":118081,"Delta":7249853},{"NoteNumber":69,"Velocity":49,"Duration":88235,"SoundDuration":88235,"Delta":7309025},{"NoteNumber":61,"Velocity":34,"Duration":117132,"SoundDuration":117132,"Delta":7367935},{"NoteNumber":68,"Velocity":45,"Duration":87807,"SoundDuration":87807,"Delta":7397261},{"NoteNumber":67,"Velocity":46,"Duration":88495,"SoundDuration":88495,"Delta":7485068},{"NoteNumber":64,"Velocity":36,"Duration":117993,"SoundDuration":117993,"Delta":7485068},{"NoteNumber":68,"Velocity":48,"Duration":88149,"SoundDuration":88149,"Delta":7573564},{"NoteNumber":61,"Velocity":34,"Duration":117131,"SoundDuration":117131,"Delta":7603062},{"NoteNumber":73,"Velocity":50,"Duration":87633,"SoundDuration":87633,"Delta":7661714},{"NoteNumber":56,"Velocity":33,"Duration":117476,"SoundDuration":117476,"Delta":7720193},{"NoteNumber":76,"Velocity":51,"Duration":88322,"SoundDuration":88322,"Delta":7749348},{"NoteNumber":75,"Velocity":54,"Duration":88846,"SoundDuration":88846,"Delta":7837670},{"NoteNumber":52,"Velocity":31,"Duration":118696,"SoundDuration":118696,"Delta":7837670},{"NoteNumber":73,"Velocity":51,"Duration":89286,"SoundDuration":89286,"Delta":7926516},{"NoteNumber":56,"Velocity":33,"Duration":118607,"SoundDuration":118607,"Delta":7956367},{"NoteNumber":75,"Velocity":53,"Duration":88583,"SoundDuration":88583,"Delta":8015803},{"NoteNumber":61,"Velocity":36,"Duration":117216,"SoundDuration":117216,"Delta":8074974},{"NoteNumber":73,"Velocity":51,"Duration":87804,"SoundDuration":87804,"Delta":8104386},{"NoteNumber":72,"Velocity":52,"Duration":88410,"SoundDuration":88410,"Delta":8192191},{"NoteNumber":64,"Velocity":37,"Duration":118261,"SoundDuration":118261,"Delta":8192191},{"NoteNumber":73,"Velocity":54,"Duration":89463,"SoundDuration":89463,"Delta":8280602},{"NoteNumber":61,"Velocity":34,"Duration":118872,"SoundDuration":118872,"Delta":8310453},{"NoteNumber":76,"Velocity":57,"Duration":88757,"SoundDuration":88757,"Delta":8370065},{"NoteNumber":56,"Velocity":32,"Duration":133991,"SoundDuration":133991,"Delta":8429325},{"NoteNumber":80,"Velocity":55,"Duration":104493,"SoundDuration":104493,"Delta":8458823},{"NoteNumber":51,"Velocity":31,"Duration":131218,"SoundDuration":131218,"Delta":8563316},{"NoteNumber":69,"Velocity":55,"Duration":90328,"SoundDuration":90328,"Delta":8664395},{"NoteNumber":57,"Velocity":35,"Duration":120097,"SoundDuration":120097,"Delta":8694535},{"NoteNumber":73,"Velocity":55,"Duration":89772,"SoundDuration":89772,"Delta":8754724},{"NoteNumber":61,"Velocity":39,"Duration":119177,"SoundDuration":119177,"Delta":8814633},{"NoteNumber":75,"Velocity":58,"Duration":89314,"SoundDuration":89314,"Delta":8844496},{"NoteNumber":78,"Velocity":61,"Duration":89497,"SoundDuration":89497,"Delta":8933811},{"NoteNumber":66,"Velocity":45,"Duration":119267,"SoundDuration":119267,"Delta":8933811},{"NoteNumber":81,"Velocity":64,"Duration":89222,"SoundDuration":89222,"Delta":9023308},{"NoteNumber":61,"Velocity":39,"Duration":118812,"SoundDuration":118812,"Delta":9053079},{"NoteNumber":85,"Velocity":67,"Duration":88950,"SoundDuration":88950,"Delta":9112530},{"NoteNumber":57,"Velocity":37,"Duration":118268,"SoundDuration":118268,"Delta":9171891},{"NoteNumber":87,"Velocity":70,"Duration":88678,"SoundDuration":88678,"Delta":9201481},{"NoteNumber":95,"Velocity":74,"Duration":87719,"SoundDuration":87719,"Delta":9290160},{"NoteNumber":54,"Velocity":37,"Duration":116874,"SoundDuration":116874,"Delta":9290160},{"NoteNumber":93,"Velocity":72,"Duration":87463,"SoundDuration":87463,"Delta":9377879},{"NoteNumber":61,"Velocity":40,"Duration":116960,"SoundDuration":116960,"Delta":9407034},{"NoteNumber":92,"Velocity":71,"Duration":88063,"SoundDuration":88063,"Delta":9465343},{"NoteNumber":63,"Velocity":44,"Duration":117907,"SoundDuration":117907,"Delta":9523994},{"NoteNumber":90,"Velocity":70,"Duration":88495,"SoundDuration":88495,"Delta":9553406},{"NoteNumber":88,"Velocity":69,"Duration":88495,"SoundDuration":88495,"Delta":9641902},{"NoteNumber":69,"Velocity":46,"Duration":117565,"SoundDuration":117565,"Delta":9641902},{"NoteNumber":87,"Velocity":68,"Duration":87293,"SoundDuration":87293,"Delta":9730397},{"NoteNumber":63,"Velocity":44,"Duration":116961,"SoundDuration":116961,"Delta":9759467},{"NoteNumber":90,"Velocity":67,"Duration":88235,"SoundDuration":88235,"Delta":9817691},{"NoteNumber":61,"Velocity":41,"Duration":117993,"SoundDuration":117993,"Delta":9876428},{"NoteNumber":85,"Velocity":66,"Duration":88495,"SoundDuration":88495,"Delta":9905927},{"NoteNumber":84,"Velocity":68,"Duration":87890,"SoundDuration":87890,"Delta":9994422},{"NoteNumber":44,"Velocity":33,"Duration":117045,"SoundDuration":117045,"Delta":9994422},{"NoteNumber":87,"Velocity":63,"Duration":87892,"SoundDuration":87892,"Delta":10082313},{"NoteNumber":51,"Velocity":35,"Duration":117735,"SoundDuration":117735,"Delta":10111468},{"NoteNumber":81,"Velocity":63,"Duration":88495,"SoundDuration":88495,"Delta":10170206},{"NoteNumber":54,"Velocity":38,"Duration":117647,"SoundDuration":117647,"Delta":10229203},{"NoteNumber":80,"Velocity":63,"Duration":88148,"SoundDuration":88148,"Delta":10258701},{"NoteNumber":78,"Velocity":60,"Duration":87719,"SoundDuration":87719,"Delta":10346850},{"NoteNumber":60,"Velocity":39,"Duration":116958,"SoundDuration":116958,"Delta":10346850},{"NoteNumber":81,"Velocity":58,"Duration":87719,"SoundDuration":87719,"Delta":10434570},{"NoteNumber":54,"Velocity":36,"Duration":116958,"SoundDuration":116958,"Delta":10463809},{"NoteNumber":76,"Velocity":54,"Duration":87719,"SoundDuration":87719,"Delta":10522289},{"NoteNumber":51,"Velocity":34,"Duration":116959,"SoundDuration":116959,"Delta":10580768},{"NoteNumber":75,"Velocity":54,"Duration":87719,"SoundDuration":87719,"Delta":10610008},{"NoteNumber":78,"Velocity":53,"Duration":88229,"SoundDuration":88229,"Delta":10697727},{"NoteNumber":44,"Velocity":29,"Duration":117730,"SoundDuration":117730,"Delta":10697727},{"NoteNumber":73,"Velocity":48,"Duration":88589,"SoundDuration":88589,"Delta":10785957},{"NoteNumber":51,"Velocity":31,"Duration":118268,"SoundDuration":118268,"Delta":10815458},{"NoteNumber":72,"Velocity":48,"Duration":88859,"SoundDuration":88859,"Delta":10874547},{"NoteNumber":54,"Velocity":33,"Duration":119086,"SoundDuration":119086,"Delta":10933726},{"NoteNumber":75,"Velocity":47,"Duration":89405,"SoundDuration":89405,"Delta":10963406},{"NoteNumber":69,"Velocity":45,"Duration":91078,"SoundDuration":91078,"Delta":11052812},{"NoteNumber":60,"Velocity":33,"Duration":121885,"SoundDuration":121885,"Delta":11052812},{"NoteNumber":68,"Velocity":42,"Duration":93014,"SoundDuration":93014,"Delta":11143891},{"NoteNumber":54,"Velocity":29,"Duration":125422,"SoundDuration":125422,"Delta":11174698},{"NoteNumber":71,"Velocity":42,"Duration":94925,"SoundDuration":94925,"Delta":11236905},{"NoteNumber":51,"Velocity":26,"Duration":145847,"SoundDuration":145847,"Delta":11300121},{"NoteNumber":69,"Velocity":41,"Duration":202721,"SoundDuration":202721,"Delta":11331831},{"NoteNumber":49,"Velocity":22,"Duration":117908,"SoundDuration":117908,"Delta":11445969},{"NoteNumber":68,"Velocity":37,"Duration":87890,"SoundDuration":87890,"Delta":11534552},{"NoteNumber":56,"Velocity":25,"Duration":117044,"SoundDuration":117044,"Delta":11563878},{"NoteNumber":69,"Velocity":41,"Duration":87977,"SoundDuration":87977,"Delta":11622443},{"NoteNumber":61,"Velocity":28,"Duration":118784,"SoundDuration":118784,"Delta":11680922},{"NoteNumber":68,"Velocity":38,"Duration":89286,"SoundDuration":89286,"Delta":11710421},{"NoteNumber":67,"Velocity":39,"Duration":89552,"SoundDuration":89552,"Delta":11799707},{"NoteNumber":64,"Velocity":30,"Duration":119403,"SoundDuration":119403,"Delta":11799707},{"NoteNumber":68,"Velocity":40,"Duration":88935,"SoundDuration":88935,"Delta":11889259},{"NoteNumber":61,"Velocity":28,"Duration":117821,"SoundDuration":117821,"Delta":11919110},{"NoteNumber":73,"Velocity":42,"Duration":88062,"SoundDuration":88062,"Delta":11978194},{"NoteNumber":56,"Velocity":27,"Duration":117301,"SoundDuration":117301,"Delta":12036932},{"NoteNumber":76,"Velocity":43,"Duration":87976,"SoundDuration":87976,"Delta":12066257},{"NoteNumber":75,"Velocity":45,"Duration":88845,"SoundDuration":88845,"Delta":12154234},{"NoteNumber":52,"Velocity":26,"Duration":118519,"SoundDuration":118519,"Delta":12154234},{"NoteNumber":73,"Velocity":43,"Duration":89197,"SoundDuration":89197,"Delta":12243079},{"NoteNumber":56,"Velocity":28,"Duration":118783,"SoundDuration":118783,"Delta":12272753},{"NoteNumber":75,"Velocity":45,"Duration":88757,"SoundDuration":88757,"Delta":12332277},{"NoteNumber":61,"Velocity":30,"Duration":117561,"SoundDuration":117561,"Delta":12391536},{"NoteNumber":73,"Velocity":43,"Duration":88062,"SoundDuration":88062,"Delta":12421035},{"NoteNumber":72,"Velocity":44,"Duration":88235,"SoundDuration":88235,"Delta":12509097},{"NoteNumber":64,"Velocity":31,"Duration":117734,"SoundDuration":117734,"Delta":12509097},{"NoteNumber":73,"Velocity":46,"Duration":88670,"SoundDuration":88670,"Delta":12597333},{"NoteNumber":61,"Velocity":28,"Duration":118343,"SoundDuration":118343,"Delta":12626832},{"NoteNumber":76,"Velocity":49,"Duration":88757,"SoundDuration":88757,"Delta":12686003},{"NoteNumber":56,"Velocity":27,"Duration":135878,"SoundDuration":135878,"Delta":12745175},{"NoteNumber":80,"Velocity":47,"Duration":106292,"SoundDuration":106292,"Delta":12774761},{"NoteNumber":49,"Velocity":27,"Duration":130331,"SoundDuration":130331,"Delta":12881053},{"NoteNumber":68,"Velocity":45,"Duration":88757,"SoundDuration":88757,"Delta":12981799},{"NoteNumber":56,"Velocity":30,"Duration":118343,"SoundDuration":118343,"Delta":13011385},{"NoteNumber":70,"Velocity":49,"Duration":88670,"SoundDuration":88670,"Delta":13070556},{"NoteNumber":58,"Velocity":34,"Duration":118082,"SoundDuration":118082,"Delta":13129728},{"NoteNumber":68,"Velocity":45,"Duration":88583,"SoundDuration":88583,"Delta":13159226},{"NoteNumber":67,"Velocity":46,"Duration":89109,"SoundDuration":89109,"Delta":13247810},{"NoteNumber":64,"Velocity":36,"Duration":118694,"SoundDuration":118694,"Delta":13247810},{"NoteNumber":68,"Velocity":48,"Duration":88496,"SoundDuration":88496,"Delta":13336919},{"NoteNumber":58,"Velocity":34,"Duration":117561,"SoundDuration":117561,"Delta":13366505},{"NoteNumber":73,"Velocity":50,"Duration":88149,"SoundDuration":88149,"Delta":13425415},{"NoteNumber":56,"Velocity":33,"Duration":118695,"SoundDuration":118695,"Delta":13484066},{"NoteNumber":76,"Velocity":51,"Duration":89197,"SoundDuration":89197,"Delta":13513565},{"NoteNumber":75,"Velocity":54,"Duration":89286,"SoundDuration":89286,"Delta":13602762},{"NoteNumber":52,"Velocity":31,"Duration":118872,"SoundDuration":118872,"Delta":13602762},{"NoteNumber":73,"Velocity":51,"Duration":88670,"SoundDuration":88670,"Delta":13692049},{"NoteNumber":56,"Velocity":33,"Duration":117994,"SoundDuration":117994,"Delta":13721634},{"NoteNumber":75,"Velocity":53,"Duration":88235,"SoundDuration":88235,"Delta":13780719},{"NoteNumber":58,"Velocity":36,"Duration":117388,"SoundDuration":117388,"Delta":13839629},{"NoteNumber":73,"Velocity":51,"Duration":88062,"SoundDuration":88062,"Delta":13868955},{"NoteNumber":72,"Velocity":52,"Duration":88933,"SoundDuration":88933,"Delta":13957017},{"NoteNumber":61,"Velocity":37,"Duration":118695,"SoundDuration":118695,"Delta":13957017},{"NoteNumber":73,"Velocity":54,"Duration":89022,"SoundDuration":89022,"Delta":14045951},{"NoteNumber":58,"Velocity":34,"Duration":118344,"SoundDuration":118344,"Delta":14075713},{"NoteNumber":76,"Velocity":57,"Duration":88582,"SoundDuration":88582,"Delta":14134974},{"NoteNumber":56,"Velocity":32,"Duration":135790,"SoundDuration":135790,"Delta":14194058},{"NoteNumber":80,"Velocity":55,"Duration":106292,"SoundDuration":106292,"Delta":14223556},{"NoteNumber":75,"Velocity":64,"Duration":100421,"SoundDuration":100421,"Delta":14329849},{"NoteNumber":51,"Velocity":30,"Duration":130562,"SoundDuration":130562,"Delta":14329849},{"NoteNumber":76,"Velocity":58,"Duration":90328,"SoundDuration":90328,"Delta":14430271},{"NoteNumber":56,"Velocity":34,"Duration":120097,"SoundDuration":120097,"Delta":14460411},{"NoteNumber":75,"Velocity":61,"Duration":89772,"SoundDuration":89772,"Delta":14520600},{"NoteNumber":59,"Velocity":37,"Duration":119177,"SoundDuration":119177,"Delta":14580509},{"NoteNumber":74,"Velocity":50,"Duration":89314,"SoundDuration":89314,"Delta":14610372},{"NoteNumber":75,"Velocity":56,"Duration":89497,"SoundDuration":89497,"Delta":14699687},{"NoteNumber":63,"Velocity":39,"Duration":119267,"SoundDuration":119267,"Delta":14699687},{"NoteNumber":83,"Velocity":68,"Duration":89222,"SoundDuration":89222,"Delta":14789184},{"NoteNumber":59,"Velocity":38,"Duration":118812,"SoundDuration":118812,"Delta":14818955},{"NoteNumber":82,"Velocity":62,"Duration":88950,"SoundDuration":88950,"Delta":14878406},{"NoteNumber":56,"Velocity":35,"Duration":118268,"SoundDuration":118268,"Delta":14937767},{"NoteNumber":80,"Velocity":65,"Duration":88678,"SoundDuration":88678,"Delta":14967357},{"NoteNumber":79,"Velocity":69,"Duration":87724,"SoundDuration":87724,"Delta":15056036},{"NoteNumber":51,"Velocity":38,"Duration":116879,"SoundDuration":116879,"Delta":15056036},{"NoteNumber":88,"Velocity":73,"Duration":88064,"SoundDuration":88064,"Delta":15143760},{"NoteNumber":58,"Velocity":41,"Duration":117907,"SoundDuration":117907,"Delta":15172915},{"NoteNumber":87,"Velocity":72,"Duration":88495,"SoundDuration":88495,"Delta":15231825},{"NoteNumber":61,"Velocity":45,"Duration":117907,"SoundDuration":117907,"Delta":15290822},{"NoteNumber":85,"Velocity":72,"Duration":88408,"SoundDuration":88408,"Delta":15320320},{"NoteNumber":83,"Velocity":75,"Duration":87464,"SoundDuration":87464,"Delta":15408729},{"NoteNumber":67,"Velocity":46,"Duration":116789,"SoundDuration":116789,"Delta":15408729},{"NoteNumber":82,"Velocity":69,"Duration":88322,"SoundDuration":88322,"Delta":15496193},{"NoteNumber":61,"Velocity":44,"Duration":117993,"SoundDuration":117993,"Delta":15525519},{"NoteNumber":80,"Velocity":68,"Duration":88495,"SoundDuration":88495,"Delta":15584516},{"NoteNumber":58,"Velocity":41,"Duration":117994,"SoundDuration":117994,"Delta":15643513},{"NoteNumber":79,"Velocity":68,"Duration":88495,"SoundDuration":88495,"Delta":15673011},{"NoteNumber":82,"Velocity":72,"Duration":88495,"SoundDuration":88495,"Delta":15761507},{"NoteNumber":44,"Velocity":33,"Duration":117993,"SoundDuration":117993,"Delta":15761507},{"NoteNumber":80,"Velocity":70,"Duration":87892,"SoundDuration":87892,"Delta":15850002},{"NoteNumber":51,"Velocity":35,"Duration":116788,"SoundDuration":116788,"Delta":15879501},{"NoteNumber":83,"Velocity":64,"Duration":87719,"SoundDuration":87719,"Delta":15937895},{"NoteNumber":56,"Velocity":37,"Duration":117734,"SoundDuration":117734,"Delta":15996289},{"NoteNumber":74,"Velocity":57,"Duration":88408,"SoundDuration":88408,"Delta":16025615},{"NoteNumber":76,"Velocity":65,"Duration":88495,"SoundDuration":88495,"Delta":16114023},{"NoteNumber":59,"Velocity":39,"Duration":117993,"SoundDuration":117993,"Delta":16114023},{"NoteNumber":75,"Velocity":57,"Duration":87385,"SoundDuration":87385,"Delta":16202519},{"NoteNumber":56,"Velocity":39,"Duration":115775,"SoundDuration":115775,"Delta":16232017},{"NoteNumber":80,"Velocity":63,"Duration":87042,"SoundDuration":87042,"Delta":16289905},{"NoteNumber":51,"Velocity":37,"Duration":116873,"SoundDuration":116873,"Delta":16347793},{"NoteNumber":70,"Velocity":57,"Duration":87719,"SoundDuration":87719,"Delta":16376947},{"NoteNumber":73,"Velocity":61,"Duration":88229,"SoundDuration":88229,"Delta":16464666},{"NoteNumber":44,"Velocity":33,"Duration":117730,"SoundDuration":117730,"Delta":16464666},{"NoteNumber":71,"Velocity":59,"Duration":88589,"SoundDuration":88589,"Delta":16552896},{"NoteNumber":51,"Velocity":35,"Duration":118268,"SoundDuration":118268,"Delta":16582397},{"NoteNumber":75,"Velocity":58,"Duration":88859,"SoundDuration":88859,"Delta":16641486},{"NoteNumber":56,"Velocity":38,"Duration":119086,"SoundDuration":119086,"Delta":16700665},{"NoteNumber":67,"Velocity":56,"Duration":89405,"SoundDuration":89405,"Delta":16730346},{"NoteNumber":70,"Velocity":60,"Duration":91507,"SoundDuration":91507,"Delta":16819752},{"NoteNumber":59,"Velocity":39,"Duration":122559,"SoundDuration":122559,"Delta":16819752},{"NoteNumber":68,"Velocity":51,"Duration":93916,"SoundDuration":93916,"Delta":16911259},{"NoteNumber":56,"Velocity":35,"Duration":126903,"SoundDuration":126903,"Delta":16942311},{"NoteNumber":67,"Velocity":55,"Duration":96768,"SoundDuration":96768,"Delta":17005175},{"NoteNumber":51,"Velocity":33,"Duration":134155,"SoundDuration":134155,"Delta":17069215},{"NoteNumber":68,"Velocity":50,"Duration":101426,"SoundDuration":101426,"Delta":17101943},{"NoteNumber":68,"Velocity":72,"Duration":104851,"SoundDuration":104851,"Delta":17203370},{"NoteNumber":45,"Velocity":39,"Duration":139448,"SoundDuration":139448,"Delta":17203370},{"NoteNumber":80,"Velocity":58,"Duration":103674,"SoundDuration":103674,"Delta":17308221},{"NoteNumber":49,"Velocity":41,"Duration":137810,"SoundDuration":137810,"Delta":17342818},{"NoteNumber":72,"Velocity":59,"Duration":102984,"SoundDuration":102984,"Delta":17411896},{"NoteNumber":54,"Velocity":43,"Duration":136554,"SoundDuration":136554,"Delta":17480629},{"NoteNumber":73,"Velocity":59,"Duration":102303,"SoundDuration":102303,"Delta":17514880},{"NoteNumber":66,"Velocity":71,"Duration":101518,"SoundDuration":101518,"Delta":17617184},{"NoteNumber":57,"Velocity":45,"Duration":135320,"SoundDuration":135320,"Delta":17617184},{"NoteNumber":78,"Velocity":60,"Duration":101069,"SoundDuration":101069,"Delta":17718702},{"NoteNumber":54,"Velocity":44,"Duration":134535,"SoundDuration":134535,"Delta":17752504},{"NoteNumber":72,"Velocity":60,"Duration":100901,"SoundDuration":100901,"Delta":17819772},{"NoteNumber":49,"Velocity":42,"Duration":134429,"SoundDuration":134429,"Delta":17887040},{"NoteNumber":73,"Velocity":61,"Duration":100795,"SoundDuration":100795,"Delta":17920673},{"NoteNumber":65,"Velocity":75,"Duration":100583,"SoundDuration":100583,"Delta":18021469},{"NoteNumber":45,"Velocity":42,"Duration":134111,"SoundDuration":134111,"Delta":18021469},{"NoteNumber":77,"Velocity":62,"Duration":100689,"SoundDuration":100689,"Delta":18122052},{"NoteNumber":49,"Velocity":44,"Duration":134429,"SoundDuration":134429,"Delta":18155580},{"NoteNumber":72,"Velocity":63,"Duration":100901,"SoundDuration":100901,"Delta":18222742},{"NoteNumber":54,"Velocity":45,"Duration":134753,"SoundDuration":134753,"Delta":18290010},{"NoteNumber":73,"Velocity":63,"Duration":101119,"SoundDuration":101119,"Delta":18323643},{"NoteNumber":66,"Velocity":74,"Duration":101228,"SoundDuration":101228,"Delta":18424763},{"NoteNumber":57,"Velocity":45,"Duration":135078,"SoundDuration":135078,"Delta":18424763},{"NoteNumber":78,"Velocity":65,"Duration":101875,"SoundDuration":101875,"Delta":18525991},{"NoteNumber":54,"Velocity":45,"Duration":136605,"SoundDuration":136605,"Delta":18559841},{"NoteNumber":72,"Velocity":64,"Duration":103094,"SoundDuration":103094,"Delta":18627866},{"NoteNumber":49,"Velocity":44,"Duration":138848,"SoundDuration":138848,"Delta":18696447},{"NoteNumber":73,"Velocity":64,"Duration":104334,"SoundDuration":104334,"Delta":18730961},{"NoteNumber":61,"Velocity":77,"Duration":103208,"SoundDuration":103208,"Delta":18835296},{"NoteNumber":47,"Velocity":44,"Duration":136950,"SoundDuration":136950,"Delta":18835296},{"NoteNumber":73,"Velocity":65,"Duration":100905,"SoundDuration":100905,"Delta":18938504},{"NoteNumber":54,"Velocity":46,"Duration":134430,"SoundDuration":134430,"Delta":18972246},{"NoteNumber":66,"Velocity":65,"Duration":100901,"SoundDuration":100901,"Delta":19039409},{"NoteNumber":57,"Velocity":48,"Duration":134535,"SoundDuration":134535,"Delta":19106677},{"NoteNumber":69,"Velocity":65,"Duration":100901,"SoundDuration":100901,"Delta":19140311},{"NoteNumber":63,"Velocity":75,"Duration":100901,"SoundDuration":100901,"Delta":19241212},{"NoteNumber":59,"Velocity":49,"Duration":134535,"SoundDuration":134535,"Delta":19241212},{"NoteNumber":75,"Velocity":65,"Duration":100901,"SoundDuration":100901,"Delta":19342114},{"NoteNumber":57,"Velocity":47,"Duration":134535,"SoundDuration":134535,"Delta":19375748},{"NoteNumber":66,"Velocity":65,"Duration":100795,"SoundDuration":100795,"Delta":19443015},{"NoteNumber":54,"Velocity":45,"Duration":134111,"SoundDuration":134111,"Delta":19510283},{"NoteNumber":69,"Velocity":65,"Duration":100583,"SoundDuration":100583,"Delta":19543811},{"NoteNumber":64,"Velocity":79,"Duration":100795,"SoundDuration":100795,"Delta":19644394},{"NoteNumber":40,"Velocity":45,"Duration":134429,"SoundDuration":134429,"Delta":19644394},{"NoteNumber":76,"Velocity":66,"Duration":101010,"SoundDuration":101010,"Delta":19745190},{"NoteNumber":47,"Velocity":46,"Duration":134862,"SoundDuration":134862,"Delta":19778824},{"NoteNumber":68,"Velocity":66,"Duration":101228,"SoundDuration":101228,"Delta":19846200},{"NoteNumber":52,"Velocity":48,"Duration":135293,"SoundDuration":135293,"Delta":19913686},{"NoteNumber":71,"Velocity":66,"Duration":101550,"SoundDuration":101550,"Delta":19947429},{"NoteNumber":68,"Velocity":77,"Duration":101766,"SoundDuration":101766,"Delta":20048979},{"NoteNumber":56,"Velocity":47,"Duration":135833,"SoundDuration":135833,"Delta":20048979},{"NoteNumber":80,"Velocity":67,"Duration":102534,"SoundDuration":102534,"Delta":20150745},{"NoteNumber":52,"Velocity":46,"Duration":137383,"SoundDuration":137383,"Delta":20184812},{"NoteNumber":71,"Velocity":66,"Duration":103541,"SoundDuration":103541,"Delta":20253280},{"NoteNumber":47,"Velocity":45,"Duration":138504,"SoundDuration":138504,"Delta":20322195},{"NoteNumber":76,"Velocity":65,"Duration":103878,"SoundDuration":103878,"Delta":20356821},{"NoteNumber":68,"Velocity":81,"Duration":101550,"SoundDuration":101550,"Delta":20460699},{"NoteNumber":45,"Velocity":44,"Duration":135400,"SoundDuration":135400,"Delta":20460699},{"NoteNumber":80,"Velocity":65,"Duration":101550,"SoundDuration":101550,"Delta":20562250},{"NoteNumber":49,"Velocity":46,"Duration":135400,"SoundDuration":135400,"Delta":20596100},{"NoteNumber":72,"Velocity":65,"Duration":101442,"SoundDuration":101442,"Delta":20663800},{"NoteNumber":54,"Velocity":48,"Duration":134971,"SoundDuration":134971,"Delta":20731500},{"NoteNumber":73,"Velocity":65,"Duration":101228,"SoundDuration":101228,"Delta":20765243},{"NoteNumber":66,"Velocity":78,"Duration":101228,"SoundDuration":101228,"Delta":20866471},{"NoteNumber":57,"Velocity":49,"Duration":134971,"SoundDuration":134971,"Delta":20866471},{"NoteNumber":78,"Velocity":65,"Duration":101010,"SoundDuration":101010,"Delta":20967699},{"NoteNumber":54,"Velocity":47,"Duration":134535,"SoundDuration":134535,"Delta":21001442},{"NoteNumber":72,"Velocity":65,"Duration":100901,"SoundDuration":100901,"Delta":21068710},{"NoteNumber":49,"Velocity":45,"Duration":134429,"SoundDuration":134429,"Delta":21135977},{"NoteNumber":73,"Velocity":65,"Duration":100795,"SoundDuration":100795,"Delta":21169611},{"NoteNumber":65,"Velocity":79,"Duration":100583,"SoundDuration":100583,"Delta":21270407},{"NoteNumber":45,"Velocity":45,"Duration":134111,"SoundDuration":134111,"Delta":21270407},{"NoteNumber":77,"Velocity":66,"Duration":100689,"SoundDuration":100689,"Delta":21370990},{"NoteNumber":49,"Velocity":46,"Duration":134429,"SoundDuration":134429,"Delta":21404518},{"NoteNumber":72,"Velocity":66,"Duration":100901,"SoundDuration":100901,"Delta":21471680},{"NoteNumber":54,"Velocity":48,"Duration":134753,"SoundDuration":134753,"Delta":21538947},{"NoteNumber":73,"Velocity":66,"Duration":101119,"SoundDuration":101119,"Delta":21572581},{"NoteNumber":66,"Velocity":77,"Duration":101228,"SoundDuration":101228,"Delta":21673701},{"NoteNumber":57,"Velocity":47,"Duration":135078,"SoundDuration":135078,"Delta":21673701},{"NoteNumber":78,"Velocity":67,"Duration":101875,"SoundDuration":101875,"Delta":21774929},{"NoteNumber":54,"Velocity":46,"Duration":136605,"SoundDuration":136605,"Delta":21808779},{"NoteNumber":72,"Velocity":66,"Duration":103094,"SoundDuration":103094,"Delta":21876804},{"NoteNumber":49,"Velocity":45,"Duration":138848,"SoundDuration":138848,"Delta":21945385},{"NoteNumber":73,"Velocity":65,"Duration":104334,"SoundDuration":104334,"Delta":21979898},{"NoteNumber":65,"Velocity":81,"Duration":102866,"SoundDuration":102866,"Delta":22084233},{"NoteNumber":47,"Velocity":44,"Duration":137155,"SoundDuration":137155,"Delta":22084233},{"NoteNumber":77,"Velocity":65,"Duration":102866,"SoundDuration":102866,"Delta":22187100},{"NoteNumber":51,"Velocity":46,"Duration":137155,"SoundDuration":137155,"Delta":22221389},{"NoteNumber":71,"Velocity":65,"Duration":102756,"SoundDuration":102756,"Delta":22289966},{"NoteNumber":57,"Velocity":48,"Duration":137391,"SoundDuration":137391,"Delta":22358544},{"NoteNumber":75,"Velocity":65,"Duration":103212,"SoundDuration":103212,"Delta":22392723},{"NoteNumber":66,"Velocity":78,"Duration":105378,"SoundDuration":105378,"Delta":22495935},{"NoteNumber":59,"Velocity":49,"Duration":140819,"SoundDuration":140819,"Delta":22495935},{"NoteNumber":78,"Velocity":65,"Duration":106923,"SoundDuration":106923,"Delta":22601314},{"NoteNumber":57,"Velocity":47,"Duration":144067,"SoundDuration":144067,"Delta":22636755},{"NoteNumber":71,"Velocity":65,"Duration":109771,"SoundDuration":109771,"Delta":22708237},{"NoteNumber":51,"Velocity":45,"Duration":152424,"SoundDuration":152424,"Delta":22780823},{"NoteNumber":75,"Velocity":65,"Duration":115238,"SoundDuration":115238,"Delta":22818008},{"NoteNumber":69,"Velocity":79,"Duration":105027,"SoundDuration":105027,"Delta":22933247},{"NoteNumber":40,"Velocity":45,"Duration":140231,"SoundDuration":140231,"Delta":22933247},{"NoteNumber":81,"Velocity":66,"Duration":105728,"SoundDuration":105728,"Delta":23038275},{"NoteNumber":47,"Velocity":46,"Duration":141406,"SoundDuration":141406,"Delta":23073478},{"NoteNumber":71,"Velocity":66,"Duration":106441,"SoundDuration":106441,"Delta":23144003},{"NoteNumber":52,"Velocity":48,"Duration":142722,"SoundDuration":142722,"Delta":23214885},{"NoteNumber":76,"Velocity":66,"Duration":107163,"SoundDuration":107163,"Delta":23250444},{"NoteNumber":68,"Velocity":77,"Duration":107766,"SoundDuration":107766,"Delta":23357608},{"NoteNumber":56,"Velocity":47,"Duration":143810,"SoundDuration":143810,"Delta":23357608},{"NoteNumber":80,"Velocity":67,"Duration":108256,"SoundDuration":108256,"Delta":23465374},{"NoteNumber":52,"Velocity":46,"Duration":144550,"SoundDuration":144550,"Delta":23501418},{"NoteNumber":71,"Velocity":66,"Duration":108630,"SoundDuration":108630,"Delta":23573631},{"NoteNumber":47,"Velocity":45,"Duration":144685,"SoundDuration":144685,"Delta":23645969},{"NoteNumber":76,"Velocity":65,"Duration":108392,"SoundDuration":108392,"Delta":23682261},{"NoteNumber":68,"Velocity":52,"Duration":101550,"SoundDuration":101550,"Delta":23790654},{"NoteNumber":45,"Velocity":30,"Duration":135400,"SoundDuration":135400,"Delta":23790654},{"NoteNumber":80,"Velocity":57,"Duration":101550,"SoundDuration":101550,"Delta":23892204},{"NoteNumber":49,"Velocity":33,"Duration":135400,"SoundDuration":135400,"Delta":23926054},{"NoteNumber":72,"Velocity":47,"Duration":101442,"SoundDuration":101442,"Delta":23993754},{"NoteNumber":54,"Velocity":34,"Duration":134971,"SoundDuration":134971,"Delta":24061454},{"NoteNumber":73,"Velocity":47,"Duration":101228,"SoundDuration":101228,"Delta":24095197},{"NoteNumber":66,"Velocity":49,"Duration":101228,"SoundDuration":101228,"Delta":24196425},{"NoteNumber":57,"Velocity":35,"Duration":134970,"SoundDuration":134970,"Delta":24196425},{"NoteNumber":78,"Velocity":54,"Duration":101010,"SoundDuration":101010,"Delta":24297654},{"NoteNumber":54,"Velocity":34,"Duration":134535,"SoundDuration":134535,"Delta":24331396},{"NoteNumber":72,"Velocity":48,"Duration":100901,"SoundDuration":100901,"Delta":24398664},{"NoteNumber":49,"Velocity":34,"Duration":134429,"SoundDuration":134429,"Delta":24465932},{"NoteNumber":73,"Velocity":48,"Duration":100795,"SoundDuration":100795,"Delta":24499566},{"NoteNumber":65,"Velocity":51,"Duration":100583,"SoundDuration":100583,"Delta":24600361},{"NoteNumber":45,"Velocity":34,"Duration":134111,"SoundDuration":134111,"Delta":24600361},{"NoteNumber":77,"Velocity":56,"Duration":100689,"SoundDuration":100689,"Delta":24700945},{"NoteNumber":49,"Velocity":34,"Duration":134429,"SoundDuration":134429,"Delta":24734472},{"NoteNumber":72,"Velocity":50,"Duration":100901,"SoundDuration":100901,"Delta":24801634},{"NoteNumber":54,"Velocity":36,"Duration":134753,"SoundDuration":134753,"Delta":24868902},{"NoteNumber":73,"Velocity":50,"Duration":101119,"SoundDuration":101119,"Delta":24902536},{"NoteNumber":66,"Velocity":53,"Duration":101228,"SoundDuration":101228,"Delta":25003655},{"NoteNumber":57,"Velocity":36,"Duration":135078,"SoundDuration":135078,"Delta":25003655},{"NoteNumber":78,"Velocity":58,"Duration":101875,"SoundDuration":101875,"Delta":25104883},{"NoteNumber":54,"Velocity":35,"Duration":136605,"SoundDuration":136605,"Delta":25138733},{"NoteNumber":72,"Velocity":51,"Duration":103094,"SoundDuration":103094,"Delta":25206758},{"NoteNumber":49,"Velocity":34,"Duration":138848,"SoundDuration":138848,"Delta":25275339},{"NoteNumber":73,"Velocity":51,"Duration":104335,"SoundDuration":104335,"Delta":25309853},{"NoteNumber":61,"Velocity":55,"Duration":103208,"SoundDuration":103208,"Delta":25414188},{"NoteNumber":47,"Velocity":34,"Duration":136950,"SoundDuration":136950,"Delta":25414188},{"NoteNumber":73,"Velocity":60,"Duration":100905,"SoundDuration":100905,"Delta":25517396},{"NoteNumber":54,"Velocity":37,"Duration":134430,"SoundDuration":134430,"Delta":25551139},{"NoteNumber":66,"Velocity":52,"Duration":100901,"SoundDuration":100901,"Delta":25618302},{"NoteNumber":57,"Velocity":38,"Duration":134535,"SoundDuration":134535,"Delta":25685569},{"NoteNumber":69,"Velocity":53,"Duration":100901,"SoundDuration":100901,"Delta":25719203},{"NoteNumber":63,"Velocity":55,"Duration":100901,"SoundDuration":100901,"Delta":25820105},{"NoteNumber":59,"Velocity":39,"Duration":134535,"SoundDuration":134535,"Delta":25820105},{"NoteNumber":75,"Velocity":62,"Duration":100901,"SoundDuration":100901,"Delta":25921006},{"NoteNumber":57,"Velocity":38,"Duration":134535,"SoundDuration":134535,"Delta":25954640},{"NoteNumber":66,"Velocity":54,"Duration":100795,"SoundDuration":100795,"Delta":26021908},{"NoteNumber":54,"Velocity":38,"Duration":134111,"SoundDuration":134111,"Delta":26089175},{"NoteNumber":69,"Velocity":54,"Duration":100583,"SoundDuration":100583,"Delta":26122703},{"NoteNumber":64,"Velocity":57,"Duration":100795,"SoundDuration":100795,"Delta":26223287},{"NoteNumber":40,"Velocity":37,"Duration":134429,"SoundDuration":134429,"Delta":26223287},{"NoteNumber":76,"Velocity":65,"Duration":101010,"SoundDuration":101010,"Delta":26324082},{"NoteNumber":47,"Velocity":39,"Duration":134862,"SoundDuration":134862,"Delta":26357716},{"NoteNumber":68,"Velocity":56,"Duration":101228,"SoundDuration":101228,"Delta":26425092},{"NoteNumber":52,"Velocity":40,"Duration":135292,"SoundDuration":135292,"Delta":26492578},{"NoteNumber":71,"Velocity":56,"Duration":101550,"SoundDuration":101550,"Delta":26526321},{"NoteNumber":68,"Velocity":60,"Duration":101766,"SoundDuration":101766,"Delta":26627871},{"NoteNumber":56,"Velocity":40,"Duration":135833,"SoundDuration":135833,"Delta":26627871},{"NoteNumber":80,"Velocity":68,"Duration":102534,"SoundDuration":102534,"Delta":26729637},{"NoteNumber":52,"Velocity":40,"Duration":137383,"SoundDuration":137383,"Delta":26763704},{"NoteNumber":71,"Velocity":57,"Duration":103541,"SoundDuration":103541,"Delta":26832172},{"NoteNumber":47,"Velocity":39,"Duration":137609,"SoundDuration":137609,"Delta":26901088},{"NoteNumber":76,"Velocity":58,"Duration":102983,"SoundDuration":102983,"Delta":26935714},{"NoteNumber":68,"Velocity":62,"Duration":102424,"SoundDuration":102424,"Delta":27038697},{"NoteNumber":45,"Velocity":39,"Duration":136491,"SoundDuration":136491,"Delta":27038697},{"NoteNumber":80,"Velocity":68,"Duration":102092,"SoundDuration":102092,"Delta":27141121},{"NoteNumber":49,"Velocity":42,"Duration":135941,"SoundDuration":135941,"Delta":27175188},{"NoteNumber":72,"Velocity":59,"Duration":101766,"SoundDuration":101766,"Delta":27243213},{"NoteNumber":54,"Velocity":43,"Duration":135400,"SoundDuration":135400,"Delta":27311129},{"NoteNumber":73,"Velocity":59,"Duration":101550,"SoundDuration":101550,"Delta":27344980},{"NoteNumber":66,"Velocity":62,"Duration":101228,"SoundDuration":101228,"Delta":27446530},{"NoteNumber":57,"Velocity":45,"Duration":134862,"SoundDuration":134862,"Delta":27446530},{"NoteNumber":78,"Velocity":70,"Duration":100901,"SoundDuration":100901,"Delta":27547758},{"NoteNumber":54,"Velocity":43,"Duration":134323,"SoundDuration":134323,"Delta":27581392},{"NoteNumber":72,"Velocity":61,"Duration":100583,"SoundDuration":100583,"Delta":27648660},{"NoteNumber":49,"Velocity":42,"Duration":133788,"SoundDuration":133788,"Delta":27715715},{"NoteNumber":73,"Velocity":61,"Duration":100260,"SoundDuration":100260,"Delta":27749243},{"NoteNumber":75,"Velocity":64,"Duration":100687,"SoundDuration":100687,"Delta":27849504},{"NoteNumber":45,"Velocity":42,"Duration":134321,"SoundDuration":134321,"Delta":27849504},{"NoteNumber":87,"Velocity":73,"Duration":101010,"SoundDuration":101010,"Delta":27950192},{"NoteNumber":51,"Velocity":44,"Duration":134862,"SoundDuration":134862,"Delta":27983826},{"NoteNumber":78,"Velocity":62,"Duration":101228,"SoundDuration":101228,"Delta":28051202},{"NoteNumber":54,"Velocity":45,"Duration":135292,"SoundDuration":135292,"Delta":28118688},{"NoteNumber":81,"Velocity":62,"Duration":101550,"SoundDuration":101550,"Delta":28152430},{"NoteNumber":73,"Velocity":66,"Duration":101766,"SoundDuration":101766,"Delta":28253981},{"NoteNumber":57,"Velocity":44,"Duration":135833,"SoundDuration":135833,"Delta":28253981},{"NoteNumber":85,"Velocity":74,"Duration":102534,"SoundDuration":102534,"Delta":28355747},{"NoteNumber":54,"Velocity":44,"Duration":137383,"SoundDuration":137383,"Delta":28389814},{"NoteNumber":78,"Velocity":62,"Duration":103541,"SoundDuration":103541,"Delta":28458281},{"NoteNumber":51,"Velocity":42,"Duration":138056,"SoundDuration":138056,"Delta":28527197},{"NoteNumber":81,"Velocity":62,"Duration":103430,"SoundDuration":103430,"Delta":28561823},{"NoteNumber":73,"Velocity":64,"Duration":102536,"SoundDuration":102536,"Delta":28665254},{"NoteNumber":44,"Velocity":42,"Duration":136602,"SoundDuration":136602,"Delta":28665254},{"NoteNumber":85,"Velocity":73,"Duration":102200,"SoundDuration":102200,"Delta":28767790},{"NoteNumber":51,"Velocity":44,"Duration":136158,"SoundDuration":136158,"Delta":28801857},{"NoteNumber":75,"Velocity":61,"Duration":101983,"SoundDuration":101983,"Delta":28869991},{"NoteNumber":54,"Velocity":45,"Duration":135724,"SoundDuration":135724,"Delta":28938016},{"NoteNumber":78,"Velocity":61,"Duration":101766,"SoundDuration":101766,"Delta":28971974},{"NoteNumber":72,"Velocity":64,"Duration":101442,"SoundDuration":101442,"Delta":29073740},{"NoteNumber":60,"Velocity":42,"Duration":135185,"SoundDuration":135185,"Delta":29073740},{"NoteNumber":84,"Velocity":71,"Duration":101228,"SoundDuration":101228,"Delta":29175183},{"NoteNumber":54,"Velocity":42,"Duration":134753,"SoundDuration":134753,"Delta":29208926},{"NoteNumber":75,"Velocity":60,"Duration":100901,"SoundDuration":100901,"Delta":29276411},{"NoteNumber":51,"Velocity":40,"Duration":134323,"SoundDuration":134323,"Delta":29343679},{"NoteNumber":78,"Velocity":59,"Duration":100689,"SoundDuration":100689,"Delta":29377313},{"NoteNumber":72,"Velocity":60,"Duration":100260,"SoundDuration":100260,"Delta":29478002},{"NoteNumber":44,"Velocity":39,"Duration":133788,"SoundDuration":133788,"Delta":29478002},{"NoteNumber":84,"Velocity":69,"Duration":100583,"SoundDuration":100583,"Delta":29578263},{"NoteNumber":51,"Velocity":41,"Duration":134323,"SoundDuration":134323,"Delta":29611791},{"NoteNumber":75,"Velocity":58,"Duration":100901,"SoundDuration":100901,"Delta":29678847},{"NoteNumber":54,"Velocity":42,"Duration":134862,"SoundDuration":134862,"Delta":29746114},{"NoteNumber":78,"Velocity":58,"Duration":101228,"SoundDuration":101228,"Delta":29779748},{"NoteNumber":72,"Velocity":61,"Duration":101550,"SoundDuration":101550,"Delta":29880976},{"NoteNumber":60,"Velocity":40,"Duration":135508,"SoundDuration":135508,"Delta":29880976},{"NoteNumber":84,"Velocity":68,"Duration":101874,"SoundDuration":101874,"Delta":29982527},{"NoteNumber":54,"Velocity":39,"Duration":136050,"SoundDuration":136050,"Delta":30016485},{"NoteNumber":75,"Velocity":57,"Duration":102200,"SoundDuration":102200,"Delta":30084401},{"NoteNumber":51,"Velocity":38,"Duration":136602,"SoundDuration":136602,"Delta":30152535},{"NoteNumber":78,"Velocity":56,"Duration":102536,"SoundDuration":102536,"Delta":30186602},{"NoteNumber":72,"Velocity":57,"Duration":102813,"SoundDuration":102813,"Delta":30289138},{"NoteNumber":45,"Velocity":38,"Duration":136880,"SoundDuration":136880,"Delta":30289138},{"NoteNumber":84,"Velocity":65,"Duration":102200,"SoundDuration":102200,"Delta":30391952},{"NoteNumber":51,"Velocity":39,"Duration":136158,"SoundDuration":136158,"Delta":30426019},{"NoteNumber":75,"Velocity":55,"Duration":101983,"SoundDuration":101983,"Delta":30494152},{"NoteNumber":54,"Velocity":40,"Duration":135724,"SoundDuration":135724,"Delta":30562177},{"NoteNumber":78,"Velocity":55,"Duration":101766,"SoundDuration":101766,"Delta":30596136},{"NoteNumber":71,"Velocity":58,"Duration":101442,"SoundDuration":101442,"Delta":30697902},{"NoteNumber":59,"Velocity":38,"Duration":135185,"SoundDuration":135185,"Delta":30697902},{"NoteNumber":83,"Velocity":64,"Duration":101228,"SoundDuration":101228,"Delta":30799345},{"NoteNumber":54,"Velocity":38,"Duration":134753,"SoundDuration":134753,"Delta":30833088},{"NoteNumber":75,"Velocity":53,"Duration":100901,"SoundDuration":100901,"Delta":30900573},{"NoteNumber":51,"Velocity":36,"Duration":134323,"SoundDuration":134323,"Delta":30967841},{"NoteNumber":78,"Velocity":53,"Duration":100689,"SoundDuration":100689,"Delta":31001475},{"NoteNumber":71,"Velocity":54,"Duration":100260,"SoundDuration":100260,"Delta":31102164},{"NoteNumber":46,"Velocity":35,"Duration":133788,"SoundDuration":133788,"Delta":31102164},{"NoteNumber":83,"Velocity":62,"Duration":100583,"SoundDuration":100583,"Delta":31202425},{"NoteNumber":51,"Velocity":37,"Duration":134323,"SoundDuration":134323,"Delta":31235953},{"NoteNumber":75,"Velocity":52,"Duration":100901,"SoundDuration":100901,"Delta":31303008},{"NoteNumber":54,"Velocity":38,"Duration":134862,"SoundDuration":134862,"Delta":31370276},{"NoteNumber":78,"Velocity":52,"Duration":101228,"SoundDuration":101228,"Delta":31403910},{"NoteNumber":70,"Velocity":54,"Duration":101550,"SoundDuration":101550,"Delta":31505138},{"NoteNumber":58,"Velocity":36,"Duration":135508,"SoundDuration":135508,"Delta":31505138},{"NoteNumber":82,"Velocity":60,"Duration":101874,"SoundDuration":101874,"Delta":31606688},{"NoteNumber":54,"Velocity":35,"Duration":136050,"SoundDuration":136050,"Delta":31640647},{"NoteNumber":75,"Velocity":50,"Duration":102200,"SoundDuration":102200,"Delta":31708563},{"NoteNumber":51,"Velocity":34,"Duration":136602,"SoundDuration":136602,"Delta":31776697},{"NoteNumber":78,"Velocity":50,"Duration":102536,"SoundDuration":102536,"Delta":31810764},{"NoteNumber":70,"Velocity":55,"Duration":103038,"SoundDuration":103038,"Delta":31913300},{"NoteNumber":48,"Velocity":34,"Duration":137105,"SoundDuration":137105,"Delta":31913300},{"NoteNumber":82,"Velocity":49,"Duration":102200,"SoundDuration":102200,"Delta":32021448},{"NoteNumber":51,"Velocity":34,"Duration":136158,"SoundDuration":136158,"Delta":32050405},{"NoteNumber":75,"Velocity":48,"Duration":101983,"SoundDuration":101983,"Delta":32118539},{"NoteNumber":54,"Velocity":35,"Duration":135724,"SoundDuration":135724,"Delta":32186564},{"NoteNumber":78,"Velocity":48,"Duration":101766,"SoundDuration":101766,"Delta":32220522},{"NoteNumber":69,"Velocity":53,"Duration":101442,"SoundDuration":101442,"Delta":32322288},{"NoteNumber":57,"Velocity":34,"Duration":135185,"SoundDuration":135185,"Delta":32322288},{"NoteNumber":81,"Velocity":48,"Duration":101211,"SoundDuration":101211,"Delta":32428793},{"NoteNumber":54,"Velocity":34,"Duration":134753,"SoundDuration":134753,"Delta":32457474},{"NoteNumber":75,"Velocity":47,"Duration":100901,"SoundDuration":100901,"Delta":32524959},{"NoteNumber":51,"Velocity":32,"Duration":134323,"SoundDuration":134323,"Delta":32592227},{"NoteNumber":78,"Velocity":47,"Duration":100689,"SoundDuration":100689,"Delta":32625861},{"NoteNumber":69,"Velocity":52,"Duration":100260,"SoundDuration":100260,"Delta":32726550},{"NoteNumber":48,"Velocity":31,"Duration":133788,"SoundDuration":133788,"Delta":32726550},{"NoteNumber":81,"Velocity":49,"Duration":100583,"SoundDuration":100583,"Delta":32826811},{"NoteNumber":51,"Velocity":33,"Duration":134323,"SoundDuration":134323,"Delta":32860339},{"NoteNumber":75,"Velocity":45,"Duration":100901,"SoundDuration":100901,"Delta":32927395},{"NoteNumber":54,"Velocity":33,"Duration":134812,"SoundDuration":134812,"Delta":32994662},{"NoteNumber":78,"Velocity":45,"Duration":101178,"SoundDuration":101178,"Delta":33028296},{"NoteNumber":69,"Velocity":51,"Duration":102078,"SoundDuration":102078,"Delta":33129474},{"NoteNumber":57,"Velocity":31,"Duration":136558,"SoundDuration":136558,"Delta":33129474},{"NoteNumber":81,"Velocity":47,"Duration":103908,"SoundDuration":103908,"Delta":33231553},{"NoteNumber":54,"Velocity":31,"Duration":139804,"SoundDuration":139804,"Delta":33266033},{"NoteNumber":75,"Velocity":44,"Duration":105927,"SoundDuration":105927,"Delta":33335462},{"NoteNumber":51,"Velocity":29,"Duration":143329,"SoundDuration":143329,"Delta":33405838},{"NoteNumber":78,"Velocity":44,"Duration":107777,"SoundDuration":107777,"Delta":33441390},{"NoteNumber":72,"Velocity":52,"Duration":108402,"SoundDuration":108402,"Delta":33549167},{"NoteNumber":45,"Velocity":28,"Duration":144451,"SoundDuration":144451,"Delta":33549167},{"NoteNumber":84,"Velocity":47,"Duration":107860,"SoundDuration":107860,"Delta":33662977},{"NoteNumber":51,"Velocity":29,"Duration":143446,"SoundDuration":143446,"Delta":33693619},{"NoteNumber":75,"Velocity":46,"Duration":107273,"SoundDuration":107273,"Delta":33765468},{"NoteNumber":54,"Velocity":29,"Duration":142455,"SoundDuration":142455,"Delta":33837066},{"NoteNumber":78,"Velocity":46,"Duration":106779,"SoundDuration":106779,"Delta":33872742},{"NoteNumber":71,"Velocity":49,"Duration":106169,"SoundDuration":106169,"Delta":33979521},{"NoteNumber":59,"Velocity":31,"Duration":141478,"SoundDuration":141478,"Delta":33979521},{"NoteNumber":83,"Velocity":44,"Duration":105686,"SoundDuration":105686,"Delta":34085691},{"NoteNumber":54,"Velocity":29,"Duration":140514,"SoundDuration":140514,"Delta":34120999},{"NoteNumber":75,"Velocity":44,"Duration":105086,"SoundDuration":105086,"Delta":34191377},{"NoteNumber":51,"Velocity":28,"Duration":139562,"SoundDuration":139562,"Delta":34261513},{"NoteNumber":78,"Velocity":44,"Duration":104612,"SoundDuration":104612,"Delta":34296464},{"NoteNumber":71,"Velocity":48,"Duration":104261,"SoundDuration":104261,"Delta":34401076},{"NoteNumber":46,"Velocity":25,"Duration":139092,"SoundDuration":139092,"Delta":34401076},{"NoteNumber":83,"Velocity":45,"Duration":104731,"SoundDuration":104731,"Delta":34505337},{"NoteNumber":51,"Velocity":26,"Duration":140157,"SoundDuration":140157,"Delta":34540168},{"NoteNumber":75,"Velocity":42,"Duration":105446,"SoundDuration":105446,"Delta":34610069},{"NoteNumber":54,"Velocity":27,"Duration":141236,"SoundDuration":141236,"Delta":34680326},{"NoteNumber":78,"Velocity":42,"Duration":106047,"SoundDuration":106047,"Delta":34715515},{"NoteNumber":70,"Velocity":47,"Duration":106779,"SoundDuration":106779,"Delta":34821562},{"NoteNumber":58,"Velocity":28,"Duration":142455,"SoundDuration":142455,"Delta":34821562},{"NoteNumber":82,"Velocity":43,"Duration":107399,"SoundDuration":107399,"Delta":34928342},{"NoteNumber":54,"Velocity":27,"Duration":143697,"SoundDuration":143697,"Delta":34964018},{"NoteNumber":75,"Velocity":40,"Duration":108022,"SoundDuration":108022,"Delta":35035741},{"NoteNumber":51,"Velocity":25,"Duration":145609,"SoundDuration":145609,"Delta":35107715},{"NoteNumber":78,"Velocity":40,"Duration":109560,"SoundDuration":109560,"Delta":35143764},{"NoteNumber":70,"Velocity":46,"Duration":109812,"SoundDuration":109812,"Delta":35253325},{"NoteNumber":47,"Velocity":24,"Duration":146373,"SoundDuration":146373,"Delta":35253325},{"NoteNumber":82,"Velocity":42,"Duration":109425,"SoundDuration":109425,"Delta":35363137},{"NoteNumber":51,"Velocity":26,"Duration":145600,"SoundDuration":145600,"Delta":35399698},{"NoteNumber":75,"Velocity":41,"Duration":109038,"SoundDuration":109038,"Delta":35472563},{"NoteNumber":54,"Velocity":27,"Duration":144959,"SoundDuration":144959,"Delta":35545298},{"NoteNumber":78,"Velocity":41,"Duration":108656,"SoundDuration":108656,"Delta":35581601},{"NoteNumber":69,"Velocity":44,"Duration":108274,"SoundDuration":108274,"Delta":35690258},{"NoteNumber":57,"Velocity":28,"Duration":144323,"SoundDuration":144323,"Delta":35690258},{"NoteNumber":81,"Velocity":40,"Duration":107898,"SoundDuration":107898,"Delta":35798532},{"NoteNumber":54,"Velocity":27,"Duration":143572,"SoundDuration":143572,"Delta":35834581},{"NoteNumber":75,"Velocity":40,"Duration":107522,"SoundDuration":107522,"Delta":35906431},{"NoteNumber":51,"Velocity":25,"Duration":142949,"SoundDuration":142949,"Delta":35978154},{"NoteNumber":78,"Velocity":39,"Duration":107150,"SoundDuration":107150,"Delta":36013953},{"NoteNumber":69,"Velocity":43,"Duration":107152,"SoundDuration":107152,"Delta":36121104},{"NoteNumber":48,"Velocity":22,"Duration":143201,"SoundDuration":143201,"Delta":36121104},{"NoteNumber":81,"Velocity":40,"Duration":108912,"SoundDuration":108912,"Delta":36228256},{"NoteNumber":51,"Velocity":23,"Duration":146510,"SoundDuration":146510,"Delta":36264305},{"NoteNumber":75,"Velocity":37,"Duration":110868,"SoundDuration":110868,"Delta":36337168},{"NoteNumber":54,"Velocity":24,"Duration":150109,"SoundDuration":150109,"Delta":36410815},{"NoteNumber":78,"Velocity":37,"Duration":112887,"SoundDuration":112887,"Delta":36448037},{"NoteNumber":68,"Velocity":42,"Duration":114845,"SoundDuration":114845,"Delta":36560925},{"NoteNumber":56,"Velocity":24,"Duration":153604,"SoundDuration":153604,"Delta":36560925},{"NoteNumber":80,"Velocity":38,"Duration":117016,"SoundDuration":117016,"Delta":36675770},{"NoteNumber":54,"Velocity":23,"Duration":157569,"SoundDuration":157569,"Delta":36714530},{"NoteNumber":75,"Velocity":36,"Duration":119277,"SoundDuration":119277,"Delta":36792786},{"NoteNumber":51,"Velocity":22,"Duration":161430,"SoundDuration":161430,"Delta":36872099},{"NoteNumber":78,"Velocity":35,"Duration":121465,"SoundDuration":121465,"Delta":36912064},{"NoteNumber":49,"Velocity":22,"Duration":131699,"SoundDuration":131699,"Delta":37033530},{"NoteNumber":68,"Velocity":37,"Duration":88448,"SoundDuration":88448,"Delta":37135605},{"NoteNumber":56,"Velocity":25,"Duration":117303,"SoundDuration":117303,"Delta":37165230},{"NoteNumber":69,"Velocity":41,"Duration":87719,"SoundDuration":87719,"Delta":37224054},{"NoteNumber":61,"Velocity":28,"Duration":117044,"SoundDuration":117044,"Delta":37282533},{"NoteNumber":68,"Velocity":38,"Duration":87805,"SoundDuration":87805,"Delta":37311773},{"NoteNumber":67,"Velocity":39,"Duration":88496,"SoundDuration":88496,"Delta":37399578},{"NoteNumber":64,"Velocity":30,"Duration":117735,"SoundDuration":117735,"Delta":37399578},{"NoteNumber":68,"Velocity":40,"Duration":87548,"SoundDuration":87548,"Delta":37488074},{"NoteNumber":61,"Velocity":28,"Duration":116618,"SoundDuration":116618,"Delta":37517314},{"NoteNumber":73,"Velocity":42,"Duration":87634,"SoundDuration":87634,"Delta":37575623},{"NoteNumber":56,"Velocity":27,"Duration":117734,"SoundDuration":117734,"Delta":37633932},{"NoteNumber":76,"Velocity":43,"Duration":88408,"SoundDuration":88408,"Delta":37663257},{"NoteNumber":75,"Velocity":45,"Duration":87634,"SoundDuration":87634,"Delta":37751666},{"NoteNumber":52,"Velocity":26,"Duration":116704,"SoundDuration":116704,"Delta":37751666},{"NoteNumber":73,"Velocity":43,"Duration":87549,"SoundDuration":87549,"Delta":37839301},{"NoteNumber":56,"Velocity":28,"Duration":117390,"SoundDuration":117390,"Delta":37868371},{"NoteNumber":75,"Velocity":45,"Duration":88583,"SoundDuration":88583,"Delta":37926851},{"NoteNumber":61,"Velocity":30,"Duration":117737,"SoundDuration":117737,"Delta":37985761},{"NoteNumber":73,"Velocity":43,"Duration":88063,"SoundDuration":88063,"Delta":38015434},{"NoteNumber":72,"Velocity":44,"Duration":87891,"SoundDuration":87891,"Delta":38103498},{"NoteNumber":64,"Velocity":31,"Duration":117389,"SoundDuration":117389,"Delta":38103498},{"NoteNumber":73,"Velocity":46,"Duration":88408,"SoundDuration":88408,"Delta":38191389},{"NoteNumber":61,"Velocity":28,"Duration":117561,"SoundDuration":117561,"Delta":38220888},{"NoteNumber":76,"Velocity":49,"Duration":87976,"SoundDuration":87976,"Delta":38279798},{"NoteNumber":56,"Velocity":27,"Duration":139006,"SoundDuration":139006,"Delta":38338449},{"NoteNumber":80,"Velocity":47,"Duration":109681,"SoundDuration":109681,"Delta":38367775},{"NoteNumber":49,"Velocity":27,"Duration":130244,"SoundDuration":130244,"Delta":38477456},{"NoteNumber":68,"Velocity":45,"Duration":88495,"SoundDuration":88495,"Delta":38578201},{"NoteNumber":56,"Velocity":30,"Duration":117993,"SoundDuration":117993,"Delta":38607700},{"NoteNumber":69,"Velocity":49,"Duration":88495,"SoundDuration":88495,"Delta":38666697},{"NoteNumber":61,"Velocity":34,"Duration":117561,"SoundDuration":117561,"Delta":38725694},{"NoteNumber":68,"Velocity":45,"Duration":88062,"SoundDuration":88062,"Delta":38755192},{"NoteNumber":67,"Velocity":46,"Duration":88932,"SoundDuration":88932,"Delta":38843255},{"NoteNumber":64,"Velocity":36,"Duration":118518,"SoundDuration":118518,"Delta":38843255},{"NoteNumber":68,"Velocity":48,"Duration":88496,"SoundDuration":88496,"Delta":38932188},{"NoteNumber":61,"Velocity":34,"Duration":117733,"SoundDuration":117733,"Delta":38961774},{"NoteNumber":73,"Velocity":50,"Duration":88321,"SoundDuration":88321,"Delta":39020684},{"NoteNumber":56,"Velocity":33,"Duration":117820,"SoundDuration":117820,"Delta":39079508},{"NoteNumber":76,"Velocity":51,"Duration":88322,"SoundDuration":88322,"Delta":39109006},{"NoteNumber":75,"Velocity":54,"Duration":87977,"SoundDuration":87977,"Delta":39197329},{"NoteNumber":52,"Velocity":31,"Duration":117475,"SoundDuration":117475,"Delta":39197329},{"NoteNumber":73,"Velocity":51,"Duration":88322,"SoundDuration":88322,"Delta":39285306},{"NoteNumber":56,"Velocity":33,"Duration":117303,"SoundDuration":117303,"Delta":39314804},{"NoteNumber":75,"Velocity":53,"Duration":87891,"SoundDuration":87891,"Delta":39373628},{"NoteNumber":61,"Velocity":36,"Duration":118081,"SoundDuration":118081,"Delta":39432108},{"NoteNumber":73,"Velocity":51,"Duration":88670,"SoundDuration":88670,"Delta":39461520},{"NoteNumber":72,"Velocity":52,"Duration":87890,"SoundDuration":87890,"Delta":39550190},{"NoteNumber":64,"Velocity":37,"Duration":117130,"SoundDuration":117130,"Delta":39550190},{"NoteNumber":73,"Velocity":54,"Duration":88063,"SoundDuration":88063,"Delta":39638080},{"NoteNumber":61,"Velocity":34,"Duration":117646,"SoundDuration":117646,"Delta":39667320},{"NoteNumber":76,"Velocity":57,"Duration":88235,"SoundDuration":88235,"Delta":39726144},{"NoteNumber":56,"Velocity":32,"Duration":136807,"SoundDuration":136807,"Delta":39784967},{"NoteNumber":80,"Velocity":55,"Duration":107396,"SoundDuration":107396,"Delta":39814379},{"NoteNumber":51,"Velocity":31,"Duration":130885,"SoundDuration":130885,"Delta":39921775},{"NoteNumber":69,"Velocity":56,"Duration":90328,"SoundDuration":90328,"Delta":40022520},{"NoteNumber":57,"Velocity":35,"Duration":120097,"SoundDuration":120097,"Delta":40052661},{"NoteNumber":73,"Velocity":57,"Duration":89772,"SoundDuration":89772,"Delta":40112849},{"NoteNumber":61,"Velocity":39,"Duration":119177,"SoundDuration":119177,"Delta":40172758},{"NoteNumber":75,"Velocity":59,"Duration":89314,"SoundDuration":89314,"Delta":40202622},{"NoteNumber":78,"Velocity":61,"Duration":89497,"SoundDuration":89497,"Delta":40291936},{"NoteNumber":66,"Velocity":45,"Duration":119268,"SoundDuration":119268,"Delta":40291936},{"NoteNumber":81,"Velocity":66,"Duration":89222,"SoundDuration":89222,"Delta":40381434},{"NoteNumber":61,"Velocity":39,"Duration":118812,"SoundDuration":118812,"Delta":40411204},{"NoteNumber":85,"Velocity":69,"Duration":88950,"SoundDuration":88950,"Delta":40470656},{"NoteNumber":57,"Velocity":37,"Duration":118179,"SoundDuration":118179,"Delta":40530017},{"NoteNumber":87,"Velocity":71,"Duration":88590,"SoundDuration":88590,"Delta":40559606},{"NoteNumber":95,"Velocity":73,"Duration":87719,"SoundDuration":87719,"Delta":40648197},{"NoteNumber":54,"Velocity":37,"Duration":117217,"SoundDuration":117217,"Delta":40648197},{"NoteNumber":93,"Velocity":71,"Duration":88845,"SoundDuration":88845,"Delta":40735916},{"NoteNumber":61,"Velocity":40,"Duration":118606,"SoundDuration":118606,"Delta":40765415},{"NoteNumber":92,"Velocity":71,"Duration":88671,"SoundDuration":88671,"Delta":40824762},{"NoteNumber":63,"Velocity":44,"Duration":117474,"SoundDuration":117474,"Delta":40884021},{"NoteNumber":90,"Velocity":70,"Duration":88062,"SoundDuration":88062,"Delta":40913433},{"NoteNumber":88,"Velocity":69,"Duration":88584,"SoundDuration":88584,"Delta":41001496},{"NoteNumber":69,"Velocity":46,"Duration":118258,"SoundDuration":118258,"Delta":41001496},{"NoteNumber":87,"Velocity":68,"Duration":88845,"SoundDuration":88845,"Delta":41090081},{"NoteNumber":63,"Velocity":44,"Duration":117909,"SoundDuration":117909,"Delta":41119754},{"NoteNumber":90,"Velocity":67,"Duration":88062,"SoundDuration":88062,"Delta":41178926},{"NoteNumber":61,"Velocity":41,"Duration":117996,"SoundDuration":117996,"Delta":41237663},{"NoteNumber":85,"Velocity":67,"Duration":88670,"SoundDuration":88670,"Delta":41266989},{"NoteNumber":84,"Velocity":68,"Duration":88323,"SoundDuration":88323,"Delta":41355660},{"NoteNumber":44,"Velocity":33,"Duration":117648,"SoundDuration":117648,"Delta":41355660},{"NoteNumber":87,"Velocity":64,"Duration":87805,"SoundDuration":87805,"Delta":41443983},{"NoteNumber":51,"Velocity":36,"Duration":117477,"SoundDuration":117477,"Delta":41473308},{"NoteNumber":81,"Velocity":65,"Duration":88496,"SoundDuration":88496,"Delta":41531788},{"NoteNumber":54,"Velocity":39,"Duration":117561,"SoundDuration":117561,"Delta":41590785},{"NoteNumber":80,"Velocity":65,"Duration":88062,"SoundDuration":88062,"Delta":41620284},{"NoteNumber":78,"Velocity":64,"Duration":88065,"SoundDuration":88065,"Delta":41708346},{"NoteNumber":60,"Velocity":41,"Duration":117738,"SoundDuration":117738,"Delta":41708346},{"NoteNumber":81,"Velocity":62,"Duration":88757,"SoundDuration":88757,"Delta":41796412},{"NoteNumber":54,"Velocity":39,"Duration":117994,"SoundDuration":117994,"Delta":41826085},{"NoteNumber":76,"Velocity":59,"Duration":88235,"SoundDuration":88235,"Delta":41885170},{"NoteNumber":51,"Velocity":37,"Duration":117301,"SoundDuration":117301,"Delta":41944080},{"NoteNumber":75,"Velocity":59,"Duration":87976,"SoundDuration":87976,"Delta":41973405},{"NoteNumber":78,"Velocity":59,"Duration":88230,"SoundDuration":88230,"Delta":42061382},{"NoteNumber":44,"Velocity":33,"Duration":117730,"SoundDuration":117730,"Delta":42061382},{"NoteNumber":73,"Velocity":55,"Duration":88589,"SoundDuration":88589,"Delta":42149612},{"NoteNumber":51,"Velocity":35,"Duration":118268,"SoundDuration":118268,"Delta":42179112},{"NoteNumber":72,"Velocity":55,"Duration":88859,"SoundDuration":88859,"Delta":42238202},{"NoteNumber":54,"Velocity":38,"Duration":119086,"SoundDuration":119086,"Delta":42297380},{"NoteNumber":75,"Velocity":55,"Duration":89405,"SoundDuration":89405,"Delta":42327061},{"NoteNumber":69,"Velocity":54,"Duration":91078,"SoundDuration":91078,"Delta":42416467},{"NoteNumber":60,"Velocity":39,"Duration":121885,"SoundDuration":121885,"Delta":42416467},{"NoteNumber":68,"Velocity":51,"Duration":93014,"SoundDuration":93014,"Delta":42507545},{"NoteNumber":54,"Velocity":35,"Duration":125422,"SoundDuration":125422,"Delta":42538353},{"NoteNumber":71,"Velocity":51,"Duration":95134,"SoundDuration":95134,"Delta":42600560},{"NoteNumber":51,"Velocity":33,"Duration":138909,"SoundDuration":138909,"Delta":42663775},{"NoteNumber":69,"Velocity":50,"Duration":198598,"SoundDuration":198598,"Delta":42695694},{"NoteNumber":49,"Velocity":28,"Duration":121105,"SoundDuration":121105,"Delta":42802685},{"NoteNumber":68,"Velocity":47,"Duration":88321,"SoundDuration":88321,"Delta":42894292},{"NoteNumber":56,"Velocity":32,"Duration":117217,"SoundDuration":117217,"Delta":42923790},{"NoteNumber":69,"Velocity":51,"Duration":87719,"SoundDuration":87719,"Delta":42982614},{"NoteNumber":61,"Velocity":34,"Duration":117908,"SoundDuration":117908,"Delta":43041008},{"NoteNumber":68,"Velocity":47,"Duration":88583,"SoundDuration":88583,"Delta":43070334},{"NoteNumber":67,"Velocity":48,"Duration":88496,"SoundDuration":88496,"Delta":43158917},{"NoteNumber":64,"Velocity":37,"Duration":117735,"SoundDuration":117735,"Delta":43158917},{"NoteNumber":68,"Velocity":49,"Duration":87719,"SoundDuration":87719,"Delta":43247413},{"NoteNumber":61,"Velocity":35,"Duration":117131,"SoundDuration":117131,"Delta":43276653},{"NoteNumber":73,"Velocity":51,"Duration":88150,"SoundDuration":88150,"Delta":43335132},{"NoteNumber":56,"Velocity":33,"Duration":117994,"SoundDuration":117994,"Delta":43393784},{"NoteNumber":76,"Velocity":52,"Duration":88495,"SoundDuration":88495,"Delta":43423282},{"NoteNumber":75,"Velocity":54,"Duration":88149,"SoundDuration":88149,"Delta":43511778},{"NoteNumber":52,"Velocity":31,"Duration":117561,"SoundDuration":117561,"Delta":43511778},{"NoteNumber":73,"Velocity":51,"Duration":88496,"SoundDuration":88496,"Delta":43599927},{"NoteNumber":56,"Velocity":33,"Duration":118081,"SoundDuration":118081,"Delta":43629339},{"NoteNumber":75,"Velocity":53,"Duration":88323,"SoundDuration":88323,"Delta":43688424},{"NoteNumber":61,"Velocity":35,"Duration":117388,"SoundDuration":117388,"Delta":43747421},{"NoteNumber":73,"Velocity":51,"Duration":88062,"SoundDuration":88062,"Delta":43776747},{"NoteNumber":72,"Velocity":51,"Duration":88845,"SoundDuration":88845,"Delta":43864809},{"NoteNumber":64,"Velocity":36,"Duration":118343,"SoundDuration":118343,"Delta":43864809},{"NoteNumber":73,"Velocity":53,"Duration":88495,"SoundDuration":88495,"Delta":43953655},{"NoteNumber":61,"Velocity":33,"Duration":117993,"SoundDuration":117993,"Delta":43983153},{"NoteNumber":76,"Velocity":57,"Duration":88495,"SoundDuration":88495,"Delta":44042150},{"NoteNumber":56,"Velocity":31,"Duration":140470,"SoundDuration":140470,"Delta":44101147},{"NoteNumber":80,"Velocity":54,"Duration":110972,"SoundDuration":110972,"Delta":44130646},{"NoteNumber":76,"Velocity":52,"Duration":92928,"SoundDuration":92928,"Delta":44241618},{"NoteNumber":54,"Velocity":28,"Duration":122470,"SoundDuration":122470,"Delta":44241618},{"NoteNumber":75,"Velocity":48,"Duration":88279,"SoundDuration":88279,"Delta":44334546},{"NoteNumber":61,"Velocity":33,"Duration":117388,"SoundDuration":117388,"Delta":44364088},{"NoteNumber":76,"Velocity":52,"Duration":87976,"SoundDuration":87976,"Delta":44422825},{"NoteNumber":63,"Velocity":35,"Duration":118258,"SoundDuration":118258,"Delta":44481476},{"NoteNumber":75,"Velocity":48,"Duration":88932,"SoundDuration":88932,"Delta":44510802},{"NoteNumber":74,"Velocity":49,"Duration":88583,"SoundDuration":88583,"Delta":44599735},{"NoteNumber":69,"Velocity":38,"Duration":117995,"SoundDuration":117995,"Delta":44599735},{"NoteNumber":75,"Velocity":50,"Duration":88062,"SoundDuration":88062,"Delta":44688318},{"NoteNumber":63,"Velocity":36,"Duration":117735,"SoundDuration":117735,"Delta":44717730},{"NoteNumber":78,"Velocity":53,"Duration":88670,"SoundDuration":88670,"Delta":44776381},{"NoteNumber":61,"Velocity":34,"Duration":118255,"SoundDuration":118255,"Delta":44835465},{"NoteNumber":81,"Velocity":54,"Duration":88670,"SoundDuration":88670,"Delta":44865051},{"NoteNumber":78,"Velocity":56,"Duration":87804,"SoundDuration":87804,"Delta":44953721},{"NoteNumber":56,"Velocity":32,"Duration":117044,"SoundDuration":117044,"Delta":44953721},{"NoteNumber":77,"Velocity":54,"Duration":88063,"SoundDuration":88063,"Delta":45041526},{"NoteNumber":61,"Velocity":34,"Duration":117995,"SoundDuration":117995,"Delta":45070766},{"NoteNumber":78,"Velocity":56,"Duration":88757,"SoundDuration":88757,"Delta":45129590},{"NoteNumber":65,"Velocity":37,"Duration":117821,"SoundDuration":117821,"Delta":45188762},{"NoteNumber":77,"Velocity":54,"Duration":88235,"SoundDuration":88235,"Delta":45218348},{"NoteNumber":76,"Velocity":54,"Duration":87805,"SoundDuration":87805,"Delta":45306583},{"NoteNumber":71,"Velocity":39,"Duration":117303,"SoundDuration":117303,"Delta":45306583},{"NoteNumber":77,"Velocity":56,"Duration":88495,"SoundDuration":88495,"Delta":45394388},{"NoteNumber":65,"Velocity":34,"Duration":117993,"SoundDuration":117993,"Delta":45423887},{"NoteNumber":80,"Velocity":59,"Duration":88495,"SoundDuration":88495,"Delta":45482884},{"NoteNumber":61,"Velocity":33,"Duration":142800,"SoundDuration":142800,"Delta":45541881},{"NoteNumber":85,"Velocity":57,"Duration":113301,"SoundDuration":113301,"Delta":45571379},{"NoteNumber":57,"Velocity":30,"Duration":123291,"SoundDuration":123291,"Delta":45684681},{"NoteNumber":73,"Velocity":50,"Duration":88408,"SoundDuration":88408,"Delta":45778474},{"NoteNumber":61,"Velocity":34,"Duration":117561,"SoundDuration":117561,"Delta":45807972},{"NoteNumber":74,"Velocity":55,"Duration":87976,"SoundDuration":87976,"Delta":45866883},{"NoteNumber":66,"Velocity":37,"Duration":117474,"SoundDuration":117474,"Delta":45925534},{"NoteNumber":73,"Velocity":51,"Duration":88149,"SoundDuration":88149,"Delta":45954859},{"NoteNumber":72,"Velocity":52,"Duration":88583,"SoundDuration":88583,"Delta":46043009},{"NoteNumber":69,"Velocity":40,"Duration":117908,"SoundDuration":117908,"Delta":46043009},{"NoteNumber":73,"Velocity":53,"Duration":87976,"SoundDuration":87976,"Delta":46131592},{"NoteNumber":66,"Velocity":39,"Duration":117735,"SoundDuration":117735,"Delta":46160918},{"NoteNumber":78,"Velocity":56,"Duration":88757,"SoundDuration":88757,"Delta":46219569},{"NoteNumber":61,"Velocity":35,"Duration":117910,"SoundDuration":117910,"Delta":46278653},{"NoteNumber":81,"Velocity":57,"Duration":88236,"SoundDuration":88236,"Delta":46308327},{"NoteNumber":78,"Velocity":59,"Duration":88062,"SoundDuration":88062,"Delta":46396563},{"NoteNumber":56,"Velocity":34,"Duration":117474,"SoundDuration":117474,"Delta":46396563},{"NoteNumber":77,"Velocity":56,"Duration":88583,"SoundDuration":88583,"Delta":46484626},{"NoteNumber":61,"Velocity":36,"Duration":118169,"SoundDuration":118169,"Delta":46514038},{"NoteNumber":78,"Velocity":59,"Duration":88323,"SoundDuration":88323,"Delta":46573210},{"NoteNumber":65,"Velocity":39,"Duration":117130,"SoundDuration":117130,"Delta":46632207},{"NoteNumber":77,"Velocity":57,"Duration":87805,"SoundDuration":87805,"Delta":46661533},{"NoteNumber":76,"Velocity":57,"Duration":88149,"SoundDuration":88149,"Delta":46749338},{"NoteNumber":71,"Velocity":40,"Duration":117560,"SoundDuration":117560,"Delta":46749338},{"NoteNumber":77,"Velocity":59,"Duration":88235,"SoundDuration":88235,"Delta":46837487},{"NoteNumber":65,"Velocity":37,"Duration":117647,"SoundDuration":117647,"Delta":46866898},{"NoteNumber":80,"Velocity":63,"Duration":88235,"SoundDuration":88235,"Delta":46925722},{"NoteNumber":61,"Velocity":34,"Duration":139487,"SoundDuration":139487,"Delta":46984545},{"NoteNumber":85,"Velocity":59,"Duration":110075,"SoundDuration":110075,"Delta":47013957},{"NoteNumber":80,"Velocity":58,"Duration":92928,"SoundDuration":92928,"Delta":47124033},{"NoteNumber":57,"Velocity":32,"Duration":122470,"SoundDuration":122470,"Delta":47124033},{"NoteNumber":78,"Velocity":53,"Duration":88713,"SoundDuration":88713,"Delta":47216961},{"NoteNumber":61,"Velocity":36,"Duration":118256,"SoundDuration":118256,"Delta":47246503},{"NoteNumber":80,"Velocity":58,"Duration":88496,"SoundDuration":88496,"Delta":47305674},{"NoteNumber":66,"Velocity":39,"Duration":117560,"SoundDuration":117560,"Delta":47364759},{"NoteNumber":78,"Velocity":54,"Duration":88148,"SoundDuration":88148,"Delta":47394170},{"NoteNumber":77,"Velocity":55,"Duration":87634,"SoundDuration":87634,"Delta":47482319},{"NoteNumber":69,"Velocity":42,"Duration":116788,"SoundDuration":116788,"Delta":47482319},{"NoteNumber":78,"Velocity":56,"Duration":87634,"SoundDuration":87634,"Delta":47569953},{"NoteNumber":66,"Velocity":40,"Duration":117651,"SoundDuration":117651,"Delta":47599108},{"NoteNumber":81,"Velocity":59,"Duration":88583,"SoundDuration":88583,"Delta":47657588},{"NoteNumber":61,"Velocity":38,"Duration":117131,"SoundDuration":117131,"Delta":47716760},{"NoteNumber":85,"Velocity":60,"Duration":87719,"SoundDuration":87719,"Delta":47746171},{"NoteNumber":81,"Velocity":63,"Duration":88063,"SoundDuration":88063,"Delta":47833891},{"NoteNumber":48,"Velocity":36,"Duration":117649,"SoundDuration":117649,"Delta":47833891},{"NoteNumber":80,"Velocity":59,"Duration":88845,"SoundDuration":88845,"Delta":47921954},{"NoteNumber":54,"Velocity":38,"Duration":118083,"SoundDuration":118083,"Delta":47951540},{"NoteNumber":81,"Velocity":62,"Duration":88063,"SoundDuration":88063,"Delta":48010800},{"NoteNumber":56,"Velocity":41,"Duration":117475,"SoundDuration":117475,"Delta":48069624},{"NoteNumber":80,"Velocity":60,"Duration":88235,"SoundDuration":88235,"Delta":48098863},{"NoteNumber":79,"Velocity":60,"Duration":88235,"SoundDuration":88235,"Delta":48187099},{"NoteNumber":63,"Velocity":42,"Duration":117475,"SoundDuration":117475,"Delta":48187099},{"NoteNumber":80,"Velocity":62,"Duration":88063,"SoundDuration":88063,"Delta":48275335},{"NoteNumber":56,"Velocity":39,"Duration":117646,"SoundDuration":117646,"Delta":48304575},{"NoteNumber":84,"Velocity":66,"Duration":88235,"SoundDuration":88235,"Delta":48363398},{"NoteNumber":54,"Velocity":37,"Duration":148383,"SoundDuration":148383,"Delta":48422222},{"NoteNumber":87,"Velocity":63,"Duration":118971,"SoundDuration":118971,"Delta":48451633},{"NoteNumber":80,"Velocity":69,"Duration":91778,"SoundDuration":91778,"Delta":48570605},{"NoteNumber":49,"Velocity":35,"Duration":121922,"SoundDuration":121922,"Delta":48570605},{"NoteNumber":81,"Velocity":64,"Duration":90336,"SoundDuration":90336,"Delta":48662384},{"NoteNumber":56,"Velocity":39,"Duration":120101,"SoundDuration":120101,"Delta":48692528},{"NoteNumber":80,"Velocity":67,"Duration":89772,"SoundDuration":89772,"Delta":48752720},{"NoteNumber":61,"Velocity":43,"Duration":119177,"SoundDuration":119177,"Delta":48812629},{"NoteNumber":79,"Velocity":58,"Duration":89314,"SoundDuration":89314,"Delta":48842493},{"NoteNumber":80,"Velocity":62,"Duration":89497,"SoundDuration":89497,"Delta":48931807},{"NoteNumber":64,"Velocity":45,"Duration":119268,"SoundDuration":119268,"Delta":48931807},{"NoteNumber":88,"Velocity":71,"Duration":89222,"SoundDuration":89222,"Delta":49021304},{"NoteNumber":61,"Velocity":44,"Duration":118812,"SoundDuration":118812,"Delta":49051075},{"NoteNumber":87,"Velocity":71,"Duration":88950,"SoundDuration":88950,"Delta":49110527},{"NoteNumber":56,"Velocity":42,"Duration":118289,"SoundDuration":118289,"Delta":49169888},{"NoteNumber":86,"Velocity":70,"Duration":88699,"SoundDuration":88699,"Delta":49199477},{"NoteNumber":85,"Velocity":69,"Duration":88626,"SoundDuration":88626,"Delta":49288177},{"NoteNumber":51,"Velocity":44,"Duration":118168,"SoundDuration":118168,"Delta":49288177},{"NoteNumber":84,"Velocity":69,"Duration":88667,"SoundDuration":88667,"Delta":49376803},{"NoteNumber":56,"Velocity":41,"Duration":118373,"SoundDuration":118373,"Delta":49406345},{"NoteNumber":83,"Velocity":68,"Duration":88872,"SoundDuration":88872,"Delta":49465471},{"NoteNumber":60,"Velocity":45,"Duration":118583,"SoundDuration":118583,"Delta":49524719},{"NoteNumber":82,"Velocity":67,"Duration":88959,"SoundDuration":88959,"Delta":49554344},{"NoteNumber":81,"Velocity":67,"Duration":89131,"SoundDuration":89131,"Delta":49643303},{"NoteNumber":66,"Velocity":46,"Duration":118842,"SoundDuration":118842,"Delta":49643303},{"NoteNumber":80,"Velocity":66,"Duration":89259,"SoundDuration":89259,"Delta":49732435},{"NoteNumber":60,"Velocity":44,"Duration":119139,"SoundDuration":119139,"Delta":49762145},{"NoteNumber":79,"Velocity":65,"Duration":89386,"SoundDuration":89386,"Delta":49821694},{"NoteNumber":56,"Velocity":41,"Duration":119711,"SoundDuration":119711,"Delta":49881285},{"NoteNumber":78,"Velocity":64,"Duration":89915,"SoundDuration":89915,"Delta":49911081},{"NoteNumber":76,"Velocity":69,"Duration":90834,"SoundDuration":90834,"Delta":50000997},{"NoteNumber":52,"Velocity":35,"Duration":120803,"SoundDuration":120803,"Delta":50000997},{"NoteNumber":78,"Velocity":64,"Duration":89985,"SoundDuration":89985,"Delta":50091831},{"NoteNumber":56,"Velocity":39,"Duration":119925,"SoundDuration":119925,"Delta":50121800},{"NoteNumber":76,"Velocity":67,"Duration":89772,"SoundDuration":89772,"Delta":50181817},{"NoteNumber":61,"Velocity":43,"Duration":119177,"SoundDuration":119177,"Delta":50241726},{"NoteNumber":75,"Velocity":58,"Duration":89314,"SoundDuration":89314,"Delta":50271589},{"NoteNumber":76,"Velocity":62,"Duration":89497,"SoundDuration":89497,"Delta":50360904},{"NoteNumber":64,"Velocity":45,"Duration":119268,"SoundDuration":119268,"Delta":50360904},{"NoteNumber":88,"Velocity":71,"Duration":89222,"SoundDuration":89222,"Delta":50450401},{"NoteNumber":61,"Velocity":44,"Duration":118812,"SoundDuration":118812,"Delta":50480172},{"NoteNumber":87,"Velocity":71,"Duration":88950,"SoundDuration":88950,"Delta":50539623},{"NoteNumber":56,"Velocity":42,"Duration":118268,"SoundDuration":118268,"Delta":50598984},{"NoteNumber":86,"Velocity":70,"Duration":88678,"SoundDuration":88678,"Delta":50628574},{"NoteNumber":85,"Velocity":70,"Duration":88121,"SoundDuration":88121,"Delta":50717253},{"NoteNumber":54,"Velocity":44,"Duration":117578,"SoundDuration":117578,"Delta":50717253},{"NoteNumber":84,"Velocity":71,"Duration":88370,"SoundDuration":88370,"Delta":50805374},{"NoteNumber":61,"Velocity":41,"Duration":117997,"SoundDuration":117997,"Delta":50834831},{"NoteNumber":83,"Velocity":71,"Duration":88626,"SoundDuration":88626,"Delta":50893744},{"NoteNumber":63,"Velocity":45,"Duration":118672,"SoundDuration":118672,"Delta":50952829},{"NoteNumber":82,"Velocity":72,"Duration":89130,"SoundDuration":89130,"Delta":50982371},{"NoteNumber":81,"Velocity":73,"Duration":89908,"SoundDuration":89908,"Delta":51071501},{"NoteNumber":69,"Velocity":46,"Duration":120052,"SoundDuration":120052,"Delta":51071501},{"NoteNumber":80,"Velocity":74,"Duration":90698,"SoundDuration":90698,"Delta":51161410},{"NoteNumber":63,"Velocity":48,"Duration":121467,"SoundDuration":121467,"Delta":51191554},{"NoteNumber":79,"Velocity":75,"Duration":91504,"SoundDuration":91504,"Delta":51252109},{"NoteNumber":61,"Velocity":51,"Duration":122824,"SoundDuration":122824,"Delta":51313021},{"NoteNumber":78,"Velocity":76,"Duration":92232,"SoundDuration":92232,"Delta":51343614},{"NoteNumber":80,"Velocity":76,"Duration":46162,"SoundDuration":46162,"Delta":51435846},{"NoteNumber":68,"Velocity":71,"Duration":184649,"SoundDuration":184649,"Delta":51435846},{"NoteNumber":64,"Velocity":71,"Duration":184649,"SoundDuration":184649,"Delta":51435846},{"NoteNumber":61,"Velocity":71,"Duration":184649,"SoundDuration":184649,"Delta":51435846},{"NoteNumber":56,"Velocity":71,"Duration":184649,"SoundDuration":184649,"Delta":51435846},{"NoteNumber":92,"Velocity":85,"Duration":92324,"SoundDuration":92324,"Delta":51620495},{"NoteNumber":91,"Velocity":85,"Duration":92324,"SoundDuration":92324,"Delta":51712820},{"NoteNumber":90,"Velocity":84,"Duration":89386,"SoundDuration":89386,"Delta":51805145},{"NoteNumber":89,"Velocity":84,"Duration":89386,"SoundDuration":89386,"Delta":51894532},{"NoteNumber":88,"Velocity":83,"Duration":89386,"SoundDuration":89386,"Delta":51983918},{"NoteNumber":87,"Velocity":83,"Duration":89386,"SoundDuration":89386,"Delta":52073305},{"NoteNumber":86,"Velocity":82,"Duration":89648,"SoundDuration":89648,"Delta":52162692},{"NoteNumber":69,"Velocity":71,"Duration":358593,"SoundDuration":358593,"Delta":52162692},{"NoteNumber":64,"Velocity":71,"Duration":358593,"SoundDuration":358593,"Delta":52162692},{"NoteNumber":61,"Velocity":71,"Duration":358593,"SoundDuration":358593,"Delta":52162692},{"NoteNumber":55,"Velocity":71,"Duration":358593,"SoundDuration":358593,"Delta":52162692},{"NoteNumber":85,"Velocity":81,"Duration":89648,"SoundDuration":89648,"Delta":52252340},{"NoteNumber":84,"Velocity":81,"Duration":89648,"SoundDuration":89648,"Delta":52341989},{"NoteNumber":83,"Velocity":80,"Duration":89648,"SoundDuration":89648,"Delta":52431637},{"NoteNumber":82,"Velocity":80,"Duration":89906,"SoundDuration":89906,"Delta":52521286},{"NoteNumber":81,"Velocity":79,"Duration":89906,"SoundDuration":89906,"Delta":52611192},{"NoteNumber":80,"Velocity":79,"Duration":89906,"SoundDuration":89906,"Delta":52701099},{"NoteNumber":79,"Velocity":78,"Duration":89994,"SoundDuration":89994,"Delta":52791005},{"NoteNumber":78,"Velocity":77,"Duration":90171,"SoundDuration":90171,"Delta":52881000},{"NoteNumber":77,"Velocity":77,"Duration":90171,"SoundDuration":90171,"Delta":52971171},{"NoteNumber":76,"Velocity":77,"Duration":90171,"SoundDuration":90171,"Delta":53061343},{"NoteNumber":75,"Velocity":77,"Duration":90171,"SoundDuration":90171,"Delta":53151514},{"NoteNumber":74,"Velocity":77,"Duration":90171,"SoundDuration":90171,"Delta":53241685},{"NoteNumber":73,"Velocity":77,"Duration":90171,"SoundDuration":90171,"Delta":53331856},{"NoteNumber":72,"Velocity":77,"Duration":90171,"SoundDuration":90171,"Delta":53422028},{"NoteNumber":71,"Velocity":77,"Duration":90171,"SoundDuration":90171,"Delta":53512199},{"NoteNumber":70,"Velocity":77,"Duration":90171,"SoundDuration":90171,"Delta":53602370},{"NoteNumber":69,"Velocity":78,"Duration":90171,"SoundDuration":90171,"Delta":53692541},{"NoteNumber":68,"Velocity":80,"Duration":90171,"SoundDuration":90171,"Delta":53782713},{"NoteNumber":67,"Velocity":82,"Duration":90258,"SoundDuration":90258,"Delta":53872884},{"NoteNumber":66,"Velocity":85,"Duration":90698,"SoundDuration":90698,"Delta":53963142},{"NoteNumber":64,"Velocity":87,"Duration":91504,"SoundDuration":91504,"Delta":54053841},{"NoteNumber":63,"Velocity":90,"Duration":92323,"SoundDuration":92323,"Delta":54145346},{"NoteNumber":61,"Velocity":92,"Duration":93158,"SoundDuration":93158,"Delta":54237669},{"NoteNumber":56,"Velocity":94,"Duration":98814,"SoundDuration":98814,"Delta":54330828},{"NoteNumber":32,"Velocity":78,"Duration":98814,"SoundDuration":98814,"Delta":54330828},{"NoteNumber":44,"Velocity":78,"Duration":98814,"SoundDuration":98814,"Delta":54330828},{"NoteNumber":93,"Velocity":90,"Duration":98502,"SoundDuration":98502,"Delta":54726085},{"NoteNumber":76,"Velocity":75,"Duration":391620,"SoundDuration":391620,"Delta":54726085},{"NoteNumber":64,"Velocity":75,"Duration":391620,"SoundDuration":391620,"Delta":54726085},{"NoteNumber":92,"Velocity":81,"Duration":97879,"SoundDuration":97879,"Delta":54824588},{"NoteNumber":100,"Velocity":77,"Duration":97671,"SoundDuration":97671,"Delta":54922467},{"NoteNumber":88,"Velocity":77,"Duration":97567,"SoundDuration":97567,"Delta":55020138},{"NoteNumber":90,"Velocity":90,"Duration":97263,"SoundDuration":97263,"Delta":55117705},{"NoteNumber":61,"Velocity":78,"Duration":388135,"SoundDuration":388135,"Delta":55117705},{"NoteNumber":73,"Velocity":78,"Duration":388135,"SoundDuration":388135,"Delta":55117705},{"NoteNumber":88,"Velocity":77,"Duration":97160,"SoundDuration":97160,"Delta":55214969},{"NoteNumber":97,"Velocity":77,"Duration":96955,"SoundDuration":96955,"Delta":55312130},{"NoteNumber":85,"Velocity":77,"Duration":96755,"SoundDuration":96755,"Delta":55409086},{"NoteNumber":87,"Velocity":89,"Duration":96655,"SoundDuration":96655,"Delta":55505841},{"NoteNumber":56,"Velocity":78,"Duration":385315,"SoundDuration":385315,"Delta":55505841},{"NoteNumber":68,"Velocity":78,"Duration":385315,"SoundDuration":385315,"Delta":55505841},{"NoteNumber":85,"Velocity":77,"Duration":96351,"SoundDuration":96351,"Delta":55602497},{"NoteNumber":92,"Velocity":77,"Duration":96252,"SoundDuration":96252,"Delta":55698849},{"NoteNumber":80,"Velocity":77,"Duration":96055,"SoundDuration":96055,"Delta":55795101},{"NoteNumber":81,"Velocity":89,"Duration":94583,"SoundDuration":94583,"Delta":55891157},{"NoteNumber":52,"Velocity":78,"Duration":378334,"SoundDuration":378334,"Delta":55891157},{"NoteNumber":64,"Velocity":78,"Duration":378334,"SoundDuration":378334,"Delta":55891157},{"NoteNumber":80,"Velocity":77,"Duration":94583,"SoundDuration":94583,"Delta":55985740},{"NoteNumber":88,"Velocity":77,"Duration":94583,"SoundDuration":94583,"Delta":56080324},{"NoteNumber":76,"Velocity":77,"Duration":94583,"SoundDuration":94583,"Delta":56174907},{"NoteNumber":78,"Velocity":88,"Duration":94583,"SoundDuration":94583,"Delta":56269491},{"NoteNumber":49,"Velocity":74,"Duration":378333,"SoundDuration":378333,"Delta":56269491},{"NoteNumber":61,"Velocity":74,"Duration":378333,"SoundDuration":378333,"Delta":56269491},{"NoteNumber":76,"Velocity":77,"Duration":94583,"SoundDuration":94583,"Delta":56364074},{"NoteNumber":85,"Velocity":77,"Duration":94583,"SoundDuration":94583,"Delta":56458658},{"NoteNumber":73,"Velocity":77,"Duration":94583,"SoundDuration":94583,"Delta":56553241},{"NoteNumber":75,"Velocity":89,"Duration":94583,"SoundDuration":94583,"Delta":56647825},{"NoteNumber":44,"Velocity":78,"Duration":378334,"SoundDuration":378334,"Delta":56647825},{"NoteNumber":56,"Velocity":78,"Duration":378334,"SoundDuration":378334,"Delta":56647825},{"NoteNumber":73,"Velocity":77,"Duration":94583,"SoundDuration":94583,"Delta":56742408},{"NoteNumber":80,"Velocity":77,"Duration":94583,"SoundDuration":94583,"Delta":56836992},{"NoteNumber":68,"Velocity":77,"Duration":94583,"SoundDuration":94583,"Delta":56931575},{"NoteNumber":69,"Velocity":90,"Duration":94583,"SoundDuration":94583,"Delta":57026159},{"NoteNumber":40,"Velocity":74,"Duration":378334,"SoundDuration":378334,"Delta":57026159},{"NoteNumber":52,"Velocity":74,"Duration":378334,"SoundDuration":378334,"Delta":57026159},{"NoteNumber":68,"Velocity":77,"Duration":94583,"SoundDuration":94583,"Delta":57120742},{"NoteNumber":76,"Velocity":77,"Duration":94583,"SoundDuration":94583,"Delta":57215326},{"NoteNumber":64,"Velocity":77,"Duration":94583,"SoundDuration":94583,"Delta":57309909},{"NoteNumber":66,"Velocity":88,"Duration":97567,"SoundDuration":97567,"Delta":57404493},{"NoteNumber":37,"Velocity":78,"Duration":390269,"SoundDuration":390269,"Delta":57404493},{"NoteNumber":49,"Velocity":78,"Duration":390269,"SoundDuration":390269,"Delta":57404493},{"NoteNumber":64,"Velocity":77,"Duration":97567,"SoundDuration":97567,"Delta":57502060},{"NoteNumber":73,"Velocity":77,"Duration":97567,"SoundDuration":97567,"Delta":57599627},{"NoteNumber":61,"Velocity":77,"Duration":97567,"SoundDuration":97567,"Delta":57697194},{"NoteNumber":63,"Velocity":89,"Duration":95462,"SoundDuration":95462,"Delta":57794762},{"NoteNumber":32,"Velocity":73,"Duration":381849,"SoundDuration":381849,"Delta":57794762},{"NoteNumber":44,"Velocity":73,"Duration":381849,"SoundDuration":381849,"Delta":57794762},{"NoteNumber":61,"Velocity":77,"Duration":95462,"SoundDuration":95462,"Delta":57890224},{"NoteNumber":68,"Velocity":77,"Duration":95462,"SoundDuration":95462,"Delta":57985686},{"NoteNumber":56,"Velocity":77,"Duration":95462,"SoundDuration":95462,"Delta":58081148},{"NoteNumber":63,"Velocity":89,"Duration":96955,"SoundDuration":96955,"Delta":58176611},{"NoteNumber":32,"Velocity":78,"Duration":387821,"SoundDuration":387821,"Delta":58176611},{"NoteNumber":44,"Velocity":78,"Duration":387821,"SoundDuration":387821,"Delta":58176611},{"NoteNumber":61,"Velocity":77,"Duration":96955,"SoundDuration":96955,"Delta":58273566},{"NoteNumber":68,"Velocity":77,"Duration":96955,"SoundDuration":96955,"Delta":58370522},{"NoteNumber":56,"Velocity":77,"Duration":96955,"SoundDuration":96955,"Delta":58467477},{"NoteNumber":63,"Velocity":89,"Duration":96955,"SoundDuration":96955,"Delta":58564433},{"NoteNumber":33,"Velocity":74,"Duration":387031,"SoundDuration":387031,"Delta":58564433},{"NoteNumber":45,"Velocity":74,"Duration":387031,"SoundDuration":387031,"Delta":58564433},{"NoteNumber":61,"Velocity":77,"Duration":96955,"SoundDuration":96955,"Delta":58661388},{"NoteNumber":69,"Velocity":77,"Duration":96955,"SoundDuration":96955,"Delta":58758344},{"NoteNumber":57,"Velocity":77,"Duration":96164,"SoundDuration":96164,"Delta":58855299},{"NoteNumber":63,"Velocity":89,"Duration":97567,"SoundDuration":97567,"Delta":58951464},{"NoteNumber":32,"Velocity":78,"Duration":392345,"SoundDuration":392345,"Delta":58951464},{"NoteNumber":44,"Velocity":78,"Duration":392345,"SoundDuration":392345,"Delta":58951464},{"NoteNumber":61,"Velocity":75,"Duration":97879,"SoundDuration":97879,"Delta":59049031},{"NoteNumber":68,"Velocity":74,"Duration":98292,"SoundDuration":98292,"Delta":59146910},{"NoteNumber":56,"Velocity":73,"Duration":98606,"SoundDuration":98606,"Delta":59245202},{"NoteNumber":63,"Velocity":83,"Duration":99027,"SoundDuration":99027,"Delta":59343809},{"NoteNumber":31,"Velocity":72,"Duration":398456,"SoundDuration":398456,"Delta":59343809},{"NoteNumber":43,"Velocity":72,"Duration":398456,"SoundDuration":398456,"Delta":59343809},{"NoteNumber":61,"Velocity":71,"Duration":99344,"SoundDuration":99344,"Delta":59442837},{"NoteNumber":67,"Velocity":71,"Duration":99773,"SoundDuration":99773,"Delta":59542181},{"NoteNumber":55,"Velocity":70,"Duration":100310,"SoundDuration":100310,"Delta":59641955},{"NoteNumber":63,"Velocity":79,"Duration":102078,"SoundDuration":102078,"Delta":59742266},{"NoteNumber":32,"Velocity":69,"Duration":899400,"SoundDuration":899400,"Delta":59742266},{"NoteNumber":44,"Velocity":69,"Duration":899400,"SoundDuration":899400,"Delta":59742266},{"NoteNumber":61,"Velocity":68,"Duration":104145,"SoundDuration":104145,"Delta":59844344},{"NoteNumber":68,"Velocity":67,"Duration":106295,"SoundDuration":106295,"Delta":59948490},{"NoteNumber":56,"Velocity":66,"Duration":108530,"SoundDuration":108530,"Delta":60054786},{"NoteNumber":63,"Velocity":75,"Duration":111680,"SoundDuration":111680,"Delta":60163316},{"NoteNumber":60,"Velocity":63,"Duration":116740,"SoundDuration":116740,"Delta":60274997},{"NoteNumber":68,"Velocity":63,"Duration":122279,"SoundDuration":122279,"Delta":60391737},{"NoteNumber":56,"Velocity":62,"Duration":127649,"SoundDuration":127649,"Delta":60514017},{"NoteNumber":37,"Velocity":95,"Duration":251601,"SoundDuration":251601,"Delta":60641666},{"NoteNumber":44,"Velocity":55,"Duration":229599,"SoundDuration":229599,"Delta":60893267},{"NoteNumber":49,"Velocity":56,"Duration":226470,"SoundDuration":226470,"Delta":61122867},{"NoteNumber":53,"Velocity":56,"Duration":224406,"SoundDuration":224406,"Delta":61349337},{"NoteNumber":56,"Velocity":58,"Duration":222534,"SoundDuration":222534,"Delta":61573744},{"NoteNumber":61,"Velocity":59,"Duration":220539,"SoundDuration":220539,"Delta":61796278},{"NoteNumber":65,"Velocity":59,"Duration":218729,"SoundDuration":218729,"Delta":62016817},{"NoteNumber":61,"Velocity":57,"Duration":219781,"SoundDuration":219781,"Delta":62235547},{"NoteNumber":56,"Velocity":52,"Duration":221454,"SoundDuration":221454,"Delta":62455329},{"NoteNumber":53,"Velocity":49,"Duration":222998,"SoundDuration":222998,"Delta":62676784},{"NoteNumber":49,"Velocity":46,"Duration":224720,"SoundDuration":224720,"Delta":62899782},{"NoteNumber":44,"Velocity":41,"Duration":226791,"SoundDuration":226791,"Delta":63124503},{"NoteNumber":37,"Velocity":40,"Duration":226470,"SoundDuration":226470,"Delta":63351294},{"NoteNumber":44,"Velocity":41,"Duration":225195,"SoundDuration":225195,"Delta":63577764},{"NoteNumber":49,"Velocity":42,"Duration":223934,"SoundDuration":223934,"Delta":63802959},{"NoteNumber":53,"Velocity":43,"Duration":222687,"SoundDuration":222687,"Delta":64026894},{"NoteNumber":56,"Velocity":44,"Duration":221454,"SoundDuration":221454,"Delta":64249581},{"NoteNumber":61,"Velocity":45,"Duration":220235,"SoundDuration":220235,"Delta":64471036},{"NoteNumber":65,"Velocity":45,"Duration":220539,"SoundDuration":220539,"Delta":64691272},{"NoteNumber":61,"Velocity":45,"Duration":222068,"SoundDuration":222068,"Delta":64911811},{"NoteNumber":56,"Velocity":44,"Duration":223465,"SoundDuration":223465,"Delta":65133880},{"NoteNumber":53,"Velocity":43,"Duration":224877,"SoundDuration":224877,"Delta":65357345},{"NoteNumber":49,"Velocity":42,"Duration":226470,"SoundDuration":226470,"Delta":65582223},{"NoteNumber":44,"Velocity":41,"Duration":459639,"SoundDuration":459639,"Delta":65808693},{"NoteNumber":68,"Velocity":45,"Duration":1385597,"SoundDuration":1385597,"Delta":66033658},{"NoteNumber":37,"Velocity":25,"Duration":234674,"SoundDuration":234674,"Delta":66033658},{"NoteNumber":56,"Velocity":26,"Duration":233020,"SoundDuration":233020,"Delta":66268333},{"NoteNumber":60,"Velocity":27,"Duration":231081,"SoundDuration":231081,"Delta":66501353},{"NoteNumber":63,"Velocity":28,"Duration":229155,"SoundDuration":229155,"Delta":66732434},{"NoteNumber":60,"Velocity":28,"Duration":228832,"SoundDuration":228832,"Delta":66961590},{"NoteNumber":56,"Velocity":27,"Duration":228832,"SoundDuration":228832,"Delta":67190423},{"NoteNumber":70,"Velocity":42,"Duration":84411,"SoundDuration":84411,"Delta":67419256},{"NoteNumber":49,"Velocity":27,"Duration":231206,"SoundDuration":231206,"Delta":67419256},{"NoteNumber":72,"Velocity":42,"Duration":84411,"SoundDuration":84411,"Delta":67503667},{"NoteNumber":70,"Velocity":46,"Duration":187149,"SoundDuration":187149,"Delta":67588079},{"NoteNumber":56,"Velocity":27,"Duration":237315,"SoundDuration":237315,"Delta":67650462},{"NoteNumber":68,"Velocity":45,"Duration":337647,"SoundDuration":337647,"Delta":67775228},{"NoteNumber":60,"Velocity":28,"Duration":225098,"SoundDuration":225098,"Delta":67887778},{"NoteNumber":73,"Velocity":45,"Duration":337647,"SoundDuration":337647,"Delta":68112876},{"NoteNumber":66,"Velocity":28,"Duration":225098,"SoundDuration":225098,"Delta":68112876},{"NoteNumber":60,"Velocity":27,"Duration":232266,"SoundDuration":232266,"Delta":68337974},{"NoteNumber":75,"Velocity":48,"Duration":359152,"SoundDuration":359152,"Delta":68450523},{"NoteNumber":56,"Velocity":26,"Duration":239435,"SoundDuration":239435,"Delta":68570241},{"NoteNumber":77,"Velocity":51,"Duration":1388406,"SoundDuration":1388406,"Delta":68809676},{"NoteNumber":49,"Velocity":27,"Duration":231401,"SoundDuration":231401,"Delta":68809676},{"NoteNumber":56,"Velocity":28,"Duration":231400,"SoundDuration":231400,"Delta":69041077},{"NoteNumber":61,"Velocity":28,"Duration":231401,"SoundDuration":231401,"Delta":69272478},{"NoteNumber":65,"Velocity":29,"Duration":231401,"SoundDuration":231401,"Delta":69503879},{"NoteNumber":61,"Velocity":30,"Duration":231400,"SoundDuration":231400,"Delta":69735280},{"NoteNumber":56,"Velocity":28,"Duration":231401,"SoundDuration":231401,"Delta":69966681},{"NoteNumber":80,"Velocity":56,"Duration":1377147,"SoundDuration":1377147,"Delta":70198082},{"NoteNumber":49,"Velocity":27,"Duration":227582,"SoundDuration":227582,"Delta":70198082},{"NoteNumber":56,"Velocity":28,"Duration":227583,"SoundDuration":227583,"Delta":70425665},{"NoteNumber":65,"Velocity":29,"Duration":227582,"SoundDuration":227582,"Delta":70653248},{"NoteNumber":68,"Velocity":49,"Duration":694398,"SoundDuration":694398,"Delta":70880831},{"NoteNumber":65,"Velocity":30,"Duration":231466,"SoundDuration":231466,"Delta":71108414},{"NoteNumber":56,"Velocity":29,"Duration":235349,"SoundDuration":235349,"Delta":71339880},{"NoteNumber":78,"Velocity":53,"Duration":706047,"SoundDuration":706047,"Delta":71575229},{"NoteNumber":66,"Velocity":30,"Duration":235349,"SoundDuration":235349,"Delta":71575229},{"NoteNumber":63,"Velocity":26,"Duration":235349,"SoundDuration":235349,"Delta":71810579},{"NoteNumber":56,"Velocity":26,"Duration":235349,"SoundDuration":235349,"Delta":72045928},{"NoteNumber":77,"Velocity":51,"Duration":698080,"SoundDuration":698080,"Delta":72281277},{"NoteNumber":65,"Velocity":30,"Duration":232693,"SoundDuration":232693,"Delta":72281277},{"NoteNumber":61,"Velocity":26,"Duration":232693,"SoundDuration":232693,"Delta":72513971},{"NoteNumber":56,"Velocity":26,"Duration":232693,"SoundDuration":232693,"Delta":72746664},{"NoteNumber":75,"Velocity":49,"Duration":690369,"SoundDuration":690369,"Delta":72979357},{"NoteNumber":63,"Velocity":30,"Duration":230123,"SoundDuration":230123,"Delta":72979357},{"NoteNumber":60,"Velocity":23,"Duration":230122,"SoundDuration":230122,"Delta":73209480},{"NoteNumber":56,"Velocity":23,"Duration":230123,"SoundDuration":230123,"Delta":73439603},{"NoteNumber":77,"Velocity":51,"Duration":538922,"SoundDuration":538922,"Delta":73669726},{"NoteNumber":61,"Velocity":29,"Duration":239520,"SoundDuration":239520,"Delta":73669726},{"NoteNumber":56,"Velocity":24,"Duration":239521,"SoundDuration":239521,"Delta":73909247},{"NoteNumber":53,"Velocity":24,"Duration":294255,"SoundDuration":294255,"Delta":74148768},{"NoteNumber":73,"Velocity":47,"Duration":234375,"SoundDuration":234375,"Delta":74208649},{"NoteNumber":68,"Velocity":48,"Duration":1453159,"SoundDuration":1453159,"Delta":74443024},{"NoteNumber":44,"Velocity":26,"Duration":257765,"SoundDuration":257765,"Delta":74443024},{"NoteNumber":51,"Velocity":27,"Duration":239520,"SoundDuration":239520,"Delta":74700789},{"NoteNumber":56,"Velocity":27,"Duration":239520,"SoundDuration":239520,"Delta":74940310},{"NoteNumber":60,"Velocity":28,"Duration":235349,"SoundDuration":235349,"Delta":75179831},{"NoteNumber":56,"Velocity":27,"Duration":238784,"SoundDuration":238784,"Delta":75415181},{"NoteNumber":51,"Velocity":27,"Duration":242218,"SoundDuration":242218,"Delta":75653965},{"NoteNumber":70,"Velocity":48,"Duration":2840236,"SoundDuration":2840236,"Delta":75896183},{"NoteNumber":42,"Velocity":27,"Duration":236686,"SoundDuration":236686,"Delta":75896183},{"NoteNumber":54,"Velocity":27,"Duration":236686,"SoundDuration":236686,"Delta":76132870},{"NoteNumber":58,"Velocity":28,"Duration":236686,"SoundDuration":236686,"Delta":76369556},{"NoteNumber":61,"Velocity":29,"Duration":236686,"SoundDuration":236686,"Delta":76606242},{"NoteNumber":58,"Velocity":28,"Duration":236686,"SoundDuration":236686,"Delta":76842929},{"NoteNumber":54,"Velocity":28,"Duration":236686,"SoundDuration":236686,"Delta":77079615},{"NoteNumber":46,"Velocity":27,"Duration":236686,"SoundDuration":236686,"Delta":77316301},{"NoteNumber":53,"Velocity":27,"Duration":236686,"SoundDuration":236686,"Delta":77552988},{"NoteNumber":58,"Velocity":28,"Duration":236686,"SoundDuration":236686,"Delta":77789674},{"NoteNumber":62,"Velocity":28,"Duration":236686,"SoundDuration":236686,"Delta":78026360},{"NoteNumber":58,"Velocity":28,"Duration":236686,"SoundDuration":236686,"Delta":78263047},{"NoteNumber":53,"Velocity":27,"Duration":236686,"SoundDuration":236686,"Delta":78499733},{"NoteNumber":71,"Velocity":42,"Duration":84411,"SoundDuration":84411,"Delta":78736419},{"NoteNumber":46,"Velocity":28,"Duration":231206,"SoundDuration":231206,"Delta":78736419},{"NoteNumber":73,"Velocity":42,"Duration":84411,"SoundDuration":84411,"Delta":78820831},{"NoteNumber":71,"Velocity":46,"Duration":187149,"SoundDuration":187149,"Delta":78905243},{"NoteNumber":58,"Velocity":29,"Duration":240373,"SoundDuration":240373,"Delta":78967626},{"NoteNumber":70,"Velocity":45,"Duration":346821,"SoundDuration":346821,"Delta":79092392},{"NoteNumber":62,"Velocity":30,"Duration":231214,"SoundDuration":231214,"Delta":79207999},{"NoteNumber":75,"Velocity":45,"Duration":346820,"SoundDuration":346820,"Delta":79439213},{"NoteNumber":68,"Velocity":33,"Duration":231213,"SoundDuration":231213,"Delta":79439213},{"NoteNumber":62,"Velocity":31,"Duration":235324,"SoundDuration":235324,"Delta":79670427},{"NoteNumber":77,"Velocity":48,"Duration":359152,"SoundDuration":359152,"Delta":79786034},{"NoteNumber":58,"Velocity":29,"Duration":239435,"SoundDuration":239435,"Delta":79905752},{"NoteNumber":78,"Velocity":51,"Duration":694203,"SoundDuration":694203,"Delta":80145187},{"NoteNumber":51,"Velocity":34,"Duration":231401,"SoundDuration":231401,"Delta":80145187},{"NoteNumber":66,"Velocity":31,"Duration":231400,"SoundDuration":231400,"Delta":80376588},{"NoteNumber":58,"Velocity":28,"Duration":231401,"SoundDuration":231401,"Delta":80607989},{"NoteNumber":77,"Velocity":50,"Duration":694203,"SoundDuration":694203,"Delta":80839390},{"NoteNumber":53,"Velocity":32,"Duration":231401,"SoundDuration":231401,"Delta":80839390},{"NoteNumber":65,"Velocity":30,"Duration":231400,"SoundDuration":231400,"Delta":81070791},{"NoteNumber":57,"Velocity":28,"Duration":231401,"SoundDuration":231401,"Delta":81302192},{"NoteNumber":75,"Velocity":51,"Duration":682749,"SoundDuration":682749,"Delta":81533593},{"NoteNumber":54,"Velocity":31,"Duration":227582,"SoundDuration":227582,"Delta":81533593},{"NoteNumber":63,"Velocity":28,"Duration":227583,"SoundDuration":227583,"Delta":81761176},{"NoteNumber":58,"Velocity":29,"Duration":227582,"SoundDuration":227582,"Delta":81988759},{"NoteNumber":77,"Velocity":49,"Duration":694398,"SoundDuration":694398,"Delta":82216342},{"NoteNumber":56,"Velocity":30,"Duration":227582,"SoundDuration":227582,"Delta":82216342},{"NoteNumber":66,"Velocity":27,"Duration":231466,"SoundDuration":231466,"Delta":82443925},{"NoteNumber":60,"Velocity":27,"Duration":235349,"SoundDuration":235349,"Delta":82675391},{"NoteNumber":73,"Velocity":48,"Duration":1059072,"SoundDuration":1059072,"Delta":82910740},{"NoteNumber":49,"Velocity":25,"Duration":235349,"SoundDuration":235349,"Delta":82910740},{"NoteNumber":56,"Velocity":27,"Duration":235349,"SoundDuration":235349,"Delta":83146089},{"NoteNumber":61,"Velocity":29,"Duration":235349,"SoundDuration":235349,"Delta":83381439},{"NoteNumber":65,"Velocity":30,"Duration":235349,"SoundDuration":235349,"Delta":83616788},{"NoteNumber":61,"Velocity":29,"Duration":246707,"SoundDuration":246707,"Delta":83852137},{"NoteNumber":72,"Velocity":49,"Duration":96774,"SoundDuration":96774,"Delta":83969812},{"NoteNumber":73,"Velocity":45,"Duration":96774,"SoundDuration":96774,"Delta":84066586},{"NoteNumber":56,"Velocity":27,"Duration":258064,"SoundDuration":258064,"Delta":84098844},{"NoteNumber":75,"Velocity":45,"Duration":96774,"SoundDuration":96774,"Delta":84163361},{"NoteNumber":73,"Velocity":45,"Duration":96774,"SoundDuration":96774,"Delta":84260135},{"NoteNumber":77,"Velocity":50,"Duration":1084338,"SoundDuration":1084338,"Delta":84356909},{"NoteNumber":51,"Velocity":27,"Duration":240964,"SoundDuration":240964,"Delta":84356909},{"NoteNumber":55,"Velocity":28,"Duration":240963,"SoundDuration":240963,"Delta":84597873},{"NoteNumber":61,"Velocity":29,"Duration":240964,"SoundDuration":240964,"Delta":84838837},{"NoteNumber":63,"Velocity":30,"Duration":240964,"SoundDuration":240964,"Delta":85079801},{"NoteNumber":61,"Velocity":29,"Duration":264366,"SoundDuration":264366,"Delta":85320765},{"NoteNumber":75,"Velocity":49,"Duration":431654,"SoundDuration":431654,"Delta":85441247},{"NoteNumber":55,"Velocity":27,"Duration":287769,"SoundDuration":287769,"Delta":85585132},{"NoteNumber":75,"Velocity":47,"Duration":2944219,"SoundDuration":2944219,"Delta":85872902},{"NoteNumber":44,"Velocity":23,"Duration":236686,"SoundDuration":236686,"Delta":85872902},{"NoteNumber":51,"Velocity":25,"Duration":236686,"SoundDuration":236686,"Delta":86109588},{"NoteNumber":56,"Velocity":27,"Duration":236686,"SoundDuration":236686,"Delta":86346274},{"NoteNumber":60,"Velocity":28,"Duration":236686,"SoundDuration":236686,"Delta":86582961},{"NoteNumber":56,"Velocity":27,"Duration":236686,"SoundDuration":236686,"Delta":86819647},{"NoteNumber":51,"Velocity":27,"Duration":238069,"SoundDuration":238069,"Delta":87056333},{"NoteNumber":44,"Velocity":25,"Duration":237379,"SoundDuration":237379,"Delta":87294403},{"NoteNumber":51,"Velocity":25,"Duration":244366,"SoundDuration":244366,"Delta":87531782},{"NoteNumber":54,"Velocity":27,"Duration":245173,"SoundDuration":245173,"Delta":87776148},{"NoteNumber":58,"Velocity":28,"Duration":249233,"SoundDuration":249233,"Delta":88021322},{"NoteNumber":54,"Velocity":26,"Duration":266845,"SoundDuration":266845,"Delta":88270555},{"NoteNumber":51,"Velocity":25,"Duration":279720,"SoundDuration":279720,"Delta":88537401},{"NoteNumber":68,"Velocity":45,"Duration":1431808,"SoundDuration":1431808,"Delta":88817121},{"NoteNumber":44,"Velocity":24,"Duration":265186,"SoundDuration":265186,"Delta":88817121},{"NoteNumber":51,"Velocity":26,"Duration":240062,"SoundDuration":240062,"Delta":89082308},{"NoteNumber":56,"Velocity":27,"Duration":238097,"SoundDuration":238097,"Delta":89322370},{"NoteNumber":60,"Velocity":28,"Duration":230796,"SoundDuration":230796,"Delta":89560467},{"NoteNumber":56,"Velocity":28,"Duration":228832,"SoundDuration":228832,"Delta":89791263},{"NoteNumber":51,"Velocity":27,"Duration":228832,"SoundDuration":228832,"Delta":90020096},{"NoteNumber":70,"Velocity":42,"Duration":84411,"SoundDuration":84411,"Delta":90248929},{"NoteNumber":44,"Velocity":27,"Duration":231206,"SoundDuration":231206,"Delta":90248929},{"NoteNumber":72,"Velocity":42,"Duration":84411,"SoundDuration":84411,"Delta":90333341},{"NoteNumber":70,"Velocity":46,"Duration":187149,"SoundDuration":187149,"Delta":90417753},{"NoteNumber":56,"Velocity":27,"Duration":239051,"SoundDuration":239051,"Delta":90480136},{"NoteNumber":68,"Velocity":45,"Duration":342856,"SoundDuration":342856,"Delta":90604902},{"NoteNumber":60,"Velocity":28,"Duration":228571,"SoundDuration":228571,"Delta":90719188},{"NoteNumber":73,"Velocity":45,"Duration":342857,"SoundDuration":342857,"Delta":90947759},{"NoteNumber":66,"Velocity":28,"Duration":228571,"SoundDuration":228571,"Delta":90947759},{"NoteNumber":60,"Velocity":27,"Duration":234003,"SoundDuration":234003,"Delta":91176331},{"NoteNumber":75,"Velocity":48,"Duration":359152,"SoundDuration":359152,"Delta":91290616},{"NoteNumber":58,"Velocity":26,"Duration":239435,"SoundDuration":239435,"Delta":91410334},{"NoteNumber":77,"Velocity":51,"Duration":1388406,"SoundDuration":1388406,"Delta":91649769},{"NoteNumber":49,"Velocity":27,"Duration":231401,"SoundDuration":231401,"Delta":91649769},{"NoteNumber":56,"Velocity":28,"Duration":231400,"SoundDuration":231400,"Delta":91881170},{"NoteNumber":61,"Velocity":28,"Duration":231401,"SoundDuration":231401,"Delta":92112571},{"NoteNumber":65,"Velocity":29,"Duration":231401,"SoundDuration":231401,"Delta":92343972},{"NoteNumber":61,"Velocity":30,"Duration":231400,"SoundDuration":231400,"Delta":92575373},{"NoteNumber":56,"Velocity":28,"Duration":231401,"SoundDuration":231401,"Delta":92806774},{"NoteNumber":80,"Velocity":56,"Duration":1377147,"SoundDuration":1377147,"Delta":93038175},{"NoteNumber":49,"Velocity":27,"Duration":227582,"SoundDuration":227582,"Delta":93038175},{"NoteNumber":56,"Velocity":28,"Duration":227583,"SoundDuration":227583,"Delta":93265758},{"NoteNumber":65,"Velocity":29,"Duration":227582,"SoundDuration":227582,"Delta":93493341},{"NoteNumber":68,"Velocity":49,"Duration":694398,"SoundDuration":694398,"Delta":93720924},{"NoteNumber":65,"Velocity":30,"Duration":231466,"SoundDuration":231466,"Delta":93948507},{"NoteNumber":56,"Velocity":29,"Duration":235349,"SoundDuration":235349,"Delta":94179973},{"NoteNumber":78,"Velocity":53,"Duration":706047,"SoundDuration":706047,"Delta":94415322},{"NoteNumber":66,"Velocity":30,"Duration":235349,"SoundDuration":235349,"Delta":94415322},{"NoteNumber":63,"Velocity":26,"Duration":235349,"SoundDuration":235349,"Delta":94650672},{"NoteNumber":56,"Velocity":26,"Duration":235349,"SoundDuration":235349,"Delta":94886021},{"NoteNumber":77,"Velocity":51,"Duration":698080,"SoundDuration":698080,"Delta":95121370},{"NoteNumber":65,"Velocity":30,"Duration":232693,"SoundDuration":232693,"Delta":95121370},{"NoteNumber":61,"Velocity":26,"Duration":232693,"SoundDuration":232693,"Delta":95354064},{"NoteNumber":56,"Velocity":26,"Duration":232693,"SoundDuration":232693,"Delta":95586757},{"NoteNumber":75,"Velocity":49,"Duration":345184,"SoundDuration":345184,"Delta":95819450},{"NoteNumber":63,"Velocity":30,"Duration":230123,"SoundDuration":230123,"Delta":95819450},{"NoteNumber":60,"Velocity":23,"Duration":244931,"SoundDuration":244931,"Delta":96049573},{"NoteNumber":77,"Velocity":47,"Duration":97402,"SoundDuration":97402,"Delta":96164635},{"NoteNumber":75,"Velocity":47,"Duration":97402,"SoundDuration":97402,"Delta":96262037},{"NoteNumber":56,"Velocity":23,"Duration":259740,"SoundDuration":259740,"Delta":96294505},{"NoteNumber":73,"Velocity":47,"Duration":97402,"SoundDuration":97402,"Delta":96359440},{"NoteNumber":75,"Velocity":47,"Duration":97402,"SoundDuration":97402,"Delta":96456843},{"NoteNumber":77,"Velocity":51,"Duration":566037,"SoundDuration":566037,"Delta":96554245},{"NoteNumber":61,"Velocity":29,"Duration":251572,"SoundDuration":251572,"Delta":96554245},{"NoteNumber":56,"Velocity":24,"Duration":251572,"SoundDuration":251572,"Delta":96805818},{"NoteNumber":53,"Velocity":24,"Duration":300988,"SoundDuration":300988,"Delta":97057390},{"NoteNumber":73,"Velocity":47,"Duration":238095,"SoundDuration":238095,"Delta":97120283},{"NoteNumber":68,"Velocity":48,"Duration":1434915,"SoundDuration":1434915,"Delta":97358378},{"NoteNumber":44,"Velocity":26,"Duration":239520,"SoundDuration":239520,"Delta":97358378},{"NoteNumber":51,"Velocity":27,"Duration":239521,"SoundDuration":239521,"Delta":97597899},{"NoteNumber":56,"Velocity":27,"Duration":239520,"SoundDuration":239520,"Delta":97837420},{"NoteNumber":60,"Velocity":28,"Duration":235349,"SoundDuration":235349,"Delta":98076941},{"NoteNumber":56,"Velocity":27,"Duration":238784,"SoundDuration":238784,"Delta":98312291},{"NoteNumber":51,"Velocity":27,"Duration":242218,"SoundDuration":242218,"Delta":98551075},{"NoteNumber":70,"Velocity":48,"Duration":2840236,"SoundDuration":2840236,"Delta":98793293},{"NoteNumber":42,"Velocity":27,"Duration":236686,"SoundDuration":236686,"Delta":98793293},{"NoteNumber":54,"Velocity":27,"Duration":236686,"SoundDuration":236686,"Delta":99029980},{"NoteNumber":58,"Velocity":28,"Duration":236686,"SoundDuration":236686,"Delta":99266666},{"NoteNumber":61,"Velocity":29,"Duration":236686,"SoundDuration":236686,"Delta":99503352},{"NoteNumber":58,"Velocity":28,"Duration":236686,"SoundDuration":236686,"Delta":99740039},{"NoteNumber":54,"Velocity":28,"Duration":236686,"SoundDuration":236686,"Delta":99976725},{"NoteNumber":46,"Velocity":27,"Duration":236686,"SoundDuration":236686,"Delta":100213411},{"NoteNumber":53,"Velocity":27,"Duration":236686,"SoundDuration":236686,"Delta":100450098},{"NoteNumber":58,"Velocity":28,"Duration":236686,"SoundDuration":236686,"Delta":100686784},{"NoteNumber":62,"Velocity":28,"Duration":236686,"SoundDuration":236686,"Delta":100923470},{"NoteNumber":58,"Velocity":28,"Duration":236686,"SoundDuration":236686,"Delta":101160157},{"NoteNumber":53,"Velocity":27,"Duration":236686,"SoundDuration":236686,"Delta":101396843},{"NoteNumber":71,"Velocity":42,"Duration":84411,"SoundDuration":84411,"Delta":101633529},{"NoteNumber":46,"Velocity":28,"Duration":231206,"SoundDuration":231206,"Delta":101633529},{"NoteNumber":73,"Velocity":42,"Duration":84411,"SoundDuration":84411,"Delta":101717941},{"NoteNumber":71,"Velocity":46,"Duration":187149,"SoundDuration":187149,"Delta":101802353},{"NoteNumber":58,"Velocity":29,"Duration":239051,"SoundDuration":239051,"Delta":101864736},{"NoteNumber":70,"Velocity":45,"Duration":342856,"SoundDuration":342856,"Delta":101989502},{"NoteNumber":62,"Velocity":30,"Duration":228571,"SoundDuration":228571,"Delta":102103788},{"NoteNumber":75,"Velocity":45,"Duration":342857,"SoundDuration":342857,"Delta":102332359},{"NoteNumber":68,"Velocity":33,"Duration":228571,"SoundDuration":228571,"Delta":102332359},{"NoteNumber":62,"Velocity":31,"Duration":234003,"SoundDuration":234003,"Delta":102560930},{"NoteNumber":77,"Velocity":48,"Duration":359152,"SoundDuration":359152,"Delta":102675216},{"NoteNumber":58,"Velocity":29,"Duration":239435,"SoundDuration":239435,"Delta":102794933},{"NoteNumber":78,"Velocity":51,"Duration":694203,"SoundDuration":694203,"Delta":103034368},{"NoteNumber":51,"Velocity":34,"Duration":231401,"SoundDuration":231401,"Delta":103034368},{"NoteNumber":66,"Velocity":31,"Duration":231400,"SoundDuration":231400,"Delta":103265769},{"NoteNumber":58,"Velocity":28,"Duration":231401,"SoundDuration":231401,"Delta":103497170},{"NoteNumber":77,"Velocity":50,"Duration":694203,"SoundDuration":694203,"Delta":103728571},{"NoteNumber":53,"Velocity":32,"Duration":231401,"SoundDuration":231401,"Delta":103728571},{"NoteNumber":65,"Velocity":30,"Duration":231400,"SoundDuration":231400,"Delta":103959972},{"NoteNumber":57,"Velocity":28,"Duration":231401,"SoundDuration":231401,"Delta":104191373},{"NoteNumber":75,"Velocity":51,"Duration":682749,"SoundDuration":682749,"Delta":104422774},{"NoteNumber":54,"Velocity":31,"Duration":227582,"SoundDuration":227582,"Delta":104422774},{"NoteNumber":63,"Velocity":28,"Duration":227583,"SoundDuration":227583,"Delta":104650357},{"NoteNumber":58,"Velocity":29,"Duration":227582,"SoundDuration":227582,"Delta":104877940},{"NoteNumber":77,"Velocity":49,"Duration":694398,"SoundDuration":694398,"Delta":105105523},{"NoteNumber":56,"Velocity":30,"Duration":227582,"SoundDuration":227582,"Delta":105105523},{"NoteNumber":66,"Velocity":27,"Duration":231466,"SoundDuration":231466,"Delta":105333106},{"NoteNumber":60,"Velocity":27,"Duration":235349,"SoundDuration":235349,"Delta":105564573},{"NoteNumber":73,"Velocity":48,"Duration":1059072,"SoundDuration":1059072,"Delta":105799922},{"NoteNumber":49,"Velocity":25,"Duration":235349,"SoundDuration":235349,"Delta":105799922},{"NoteNumber":56,"Velocity":27,"Duration":235349,"SoundDuration":235349,"Delta":106035271},{"NoteNumber":61,"Velocity":29,"Duration":235349,"SoundDuration":235349,"Delta":106270621},{"NoteNumber":65,"Velocity":30,"Duration":235349,"SoundDuration":235349,"Delta":106505970},{"NoteNumber":61,"Velocity":29,"Duration":251008,"SoundDuration":251008,"Delta":106741319},{"NoteNumber":67,"Velocity":49,"Duration":99999,"SoundDuration":99999,"Delta":106858994},{"NoteNumber":68,"Velocity":45,"Duration":100000,"SoundDuration":100000,"Delta":106958994},{"NoteNumber":56,"Velocity":27,"Duration":266666,"SoundDuration":266666,"Delta":106992327},{"NoteNumber":70,"Velocity":45,"Duration":99999,"SoundDuration":99999,"Delta":107058994},{"NoteNumber":68,"Velocity":45,"Duration":100000,"SoundDuration":100000,"Delta":107158994},{"NoteNumber":77,"Velocity":50,"Duration":1111111,"SoundDuration":1111111,"Delta":107258994},{"NoteNumber":49,"Velocity":27,"Duration":246913,"SoundDuration":246913,"Delta":107258994},{"NoteNumber":56,"Velocity":28,"Duration":246913,"SoundDuration":246913,"Delta":107505908},{"NoteNumber":60,"Velocity":29,"Duration":246913,"SoundDuration":246913,"Delta":107752821},{"NoteNumber":66,"Velocity":30,"Duration":246913,"SoundDuration":246913,"Delta":107999735},{"NoteNumber":60,"Velocity":29,"Duration":268384,"SoundDuration":268384,"Delta":108246649},{"NoteNumber":75,"Velocity":49,"Duration":434782,"SoundDuration":434782,"Delta":108370105},{"NoteNumber":56,"Velocity":27,"Duration":289855,"SoundDuration":289855,"Delta":108515033},{"NoteNumber":75,"Velocity":52,"Duration":1446097,"SoundDuration":1446097,"Delta":108804888},{"NoteNumber":49,"Velocity":27,"Duration":240964,"SoundDuration":240964,"Delta":108804888},{"NoteNumber":56,"Velocity":28,"Duration":240963,"SoundDuration":240963,"Delta":109045852},{"NoteNumber":60,"Velocity":30,"Duration":240964,"SoundDuration":240964,"Delta":109286816},{"NoteNumber":66,"Velocity":31,"Duration":240964,"SoundDuration":240964,"Delta":109527780},{"NoteNumber":60,"Velocity":30,"Duration":240963,"SoundDuration":240963,"Delta":109768744},{"NoteNumber":56,"Velocity":28,"Duration":241277,"SoundDuration":241277,"Delta":110009708},{"NoteNumber":73,"Velocity":52,"Duration":733125,"SoundDuration":733125,"Delta":110250986},{"NoteNumber":49,"Velocity":27,"Duration":242572,"SoundDuration":242572,"Delta":110250986},{"NoteNumber":56,"Velocity":27,"Duration":244366,"SoundDuration":244366,"Delta":110493558},{"NoteNumber":61,"Velocity":28,"Duration":246185,"SoundDuration":246185,"Delta":110737925},{"NoteNumber":65,"Velocity":30,"Duration":247649,"SoundDuration":247649,"Delta":110984111},{"NoteNumber":61,"Velocity":28,"Duration":243109,"SoundDuration":243109,"Delta":111231760},{"NoteNumber":80,"Velocity":60,"Duration":355029,"SoundDuration":355029,"Delta":111356526},{"NoteNumber":56,"Velocity":27,"Duration":236686,"SoundDuration":236686,"Delta":111474869},{"NoteNumber":68,"Velocity":65,"Duration":1453311,"SoundDuration":1453311,"Delta":111711555},{"NoteNumber":44,"Velocity":34,"Duration":242218,"SoundDuration":242218,"Delta":111711555},{"NoteNumber":51,"Velocity":33,"Duration":242218,"SoundDuration":242218,"Delta":111953774},{"NoteNumber":56,"Velocity":34,"Duration":242218,"SoundDuration":242218,"Delta":112195993},{"NoteNumber":60,"Velocity":34,"Duration":242218,"SoundDuration":242218,"Delta":112438211},{"NoteNumber":56,"Velocity":33,"Duration":242218,"SoundDuration":242218,"Delta":112680430},{"NoteNumber":51,"Velocity":32,"Duration":242218,"SoundDuration":242218,"Delta":112922649},{"NoteNumber":70,"Velocity":65,"Duration":89264,"SoundDuration":89264,"Delta":113164867},{"NoteNumber":44,"Velocity":31,"Duration":238038,"SoundDuration":238038,"Delta":113164867},{"NoteNumber":72,"Velocity":59,"Duration":89264,"SoundDuration":89264,"Delta":113254132},{"NoteNumber":70,"Velocity":60,"Duration":89264,"SoundDuration":89264,"Delta":113343396},{"NoteNumber":51,"Velocity":33,"Duration":238038,"SoundDuration":238038,"Delta":113402906},{"NoteNumber":72,"Velocity":59,"Duration":89264,"SoundDuration":89264,"Delta":113432661},{"NoteNumber":70,"Velocity":56,"Duration":59509,"SoundDuration":59509,"Delta":113521925},{"NoteNumber":72,"Velocity":56,"Duration":59509,"SoundDuration":59509,"Delta":113581435},{"NoteNumber":70,"Velocity":56,"Duration":59509,"SoundDuration":59509,"Delta":113640945},{"NoteNumber":55,"Velocity":34,"Duration":238038,"SoundDuration":238038,"Delta":113640945},{"NoteNumber":69,"Velocity":62,"Duration":178528,"SoundDuration":178528,"Delta":113700454},{"NoteNumber":70,"Velocity":64,"Duration":543070,"SoundDuration":543070,"Delta":113878983},{"NoteNumber":61,"Velocity":34,"Duration":238038,"SoundDuration":238038,"Delta":113878983},{"NoteNumber":55,"Velocity":33,"Duration":243027,"SoundDuration":243027,"Delta":114117022},{"NoteNumber":51,"Velocity":30,"Duration":248015,"SoundDuration":248015,"Delta":114360049},{"NoteNumber":72,"Velocity":62,"Duration":186011,"SoundDuration":186011,"Delta":114422053},{"NoteNumber":68,"Velocity":66,"Duration":351000,"SoundDuration":351000,"Delta":114608065},{"NoteNumber":44,"Velocity":36,"Duration":234000,"SoundDuration":234000,"Delta":114608065},{"NoteNumber":51,"Velocity":30,"Duration":234000,"SoundDuration":234000,"Delta":114842066},{"NoteNumber":56,"Velocity":32,"Duration":234000,"SoundDuration":234000,"Delta":115076066},{"NoteNumber":84,"Velocity":66,"Duration":926276,"SoundDuration":926276,"Delta":115310066},{"NoteNumber":60,"Velocity":33,"Duration":240818,"SoundDuration":240818,"Delta":115310066},{"NoteNumber":56,"Velocity":32,"Duration":240818,"SoundDuration":240818,"Delta":115550885},{"NoteNumber":51,"Velocity":30,"Duration":240818,"SoundDuration":240818,"Delta":115791704},{"NoteNumber":49,"Velocity":27,"Duration":238038,"SoundDuration":238038,"Delta":116032522},{"NoteNumber":82,"Velocity":63,"Duration":203820,"SoundDuration":203820,"Delta":116236343},{"NoteNumber":56,"Velocity":29,"Duration":238038,"SoundDuration":238038,"Delta":116270561},{"NoteNumber":80,"Velocity":62,"Duration":203820,"SoundDuration":203820,"Delta":116440163},{"NoteNumber":61,"Velocity":30,"Duration":238038,"SoundDuration":238038,"Delta":116508600},{"NoteNumber":76,"Velocity":61,"Duration":203820,"SoundDuration":203820,"Delta":116643984},{"NoteNumber":64,"Velocity":31,"Duration":238736,"SoundDuration":238736,"Delta":116746638},{"NoteNumber":73,"Velocity":59,"Duration":205300,"SoundDuration":205300,"Delta":116847805},{"NoteNumber":61,"Velocity":30,"Duration":241168,"SoundDuration":241168,"Delta":116985375},{"NoteNumber":70,"Velocity":58,"Duration":334704,"SoundDuration":334704,"Delta":117053105},{"NoteNumber":56,"Velocity":29,"Duration":341704,"SoundDuration":341704,"Delta":117226544},{"NoteNumber":80,"Velocity":55,"Duration":180439,"SoundDuration":180439,"Delta":117387809},{"NoteNumber":63,"Velocity":66,"Duration":1362480,"SoundDuration":1362480,"Delta":117568249},{"NoteNumber":39,"Velocity":34,"Duration":242218,"SoundDuration":242218,"Delta":117568249},{"NoteNumber":51,"Velocity":33,"Duration":242218,"SoundDuration":242218,"Delta":117810467},{"NoteNumber":56,"Velocity":34,"Duration":242218,"SoundDuration":242218,"Delta":118052686},{"NoteNumber":60,"Velocity":34,"Duration":242218,"SoundDuration":242218,"Delta":118294905},{"NoteNumber":56,"Velocity":33,"Duration":242218,"SoundDuration":242218,"Delta":118537123},{"NoteNumber":51,"Velocity":32,"Duration":242218,"SoundDuration":242218,"Delta":118779342},{"NoteNumber":72,"Velocity":59,"Duration":90831,"SoundDuration":90831,"Delta":118930729},{"NoteNumber":70,"Velocity":64,"Duration":535587,"SoundDuration":535587,"Delta":119021561},{"NoteNumber":39,"Velocity":31,"Duration":238038,"SoundDuration":238038,"Delta":119021561},{"NoteNumber":51,"Velocity":33,"Duration":238038,"SoundDuration":238038,"Delta":119259599},{"NoteNumber":55,"Velocity":34,"Duration":238038,"SoundDuration":238038,"Delta":119497638},{"NoteNumber":69,"Velocity":57,"Duration":178528,"SoundDuration":178528,"Delta":119557148},{"NoteNumber":70,"Velocity":64,"Duration":543070,"SoundDuration":543070,"Delta":119735677},{"NoteNumber":61,"Velocity":34,"Duration":238038,"SoundDuration":238038,"Delta":119735677},{"NoteNumber":55,"Velocity":33,"Duration":243027,"SoundDuration":243027,"Delta":119973715},{"NoteNumber":51,"Velocity":30,"Duration":248015,"SoundDuration":248015,"Delta":120216743},{"NoteNumber":75,"Velocity":62,"Duration":186011,"SoundDuration":186011,"Delta":120278747},{"NoteNumber":68,"Velocity":65,"Duration":702000,"SoundDuration":702000,"Delta":120464759},{"NoteNumber":44,"Velocity":34,"Duration":234000,"SoundDuration":234000,"Delta":120464759},{"NoteNumber":51,"Velocity":30,"Duration":234000,"SoundDuration":234000,"Delta":120698759},{"NoteNumber":56,"Velocity":32,"Duration":234000,"SoundDuration":234000,"Delta":120932759},{"NoteNumber":60,"Velocity":33,"Duration":233346,"SoundDuration":233346,"Delta":121166760},{"NoteNumber":56,"Velocity":32,"Duration":237028,"SoundDuration":237028,"Delta":121400106},{"NoteNumber":51,"Velocity":30,"Duration":241526,"SoundDuration":241526,"Delta":121637135},{"NoteNumber":70,"Velocity":39,"Duration":747463,"SoundDuration":747463,"Delta":121878662},{"NoteNumber":42,"Velocity":19,"Duration":245097,"SoundDuration":245097,"Delta":121878662},{"NoteNumber":54,"Velocity":20,"Duration":245097,"SoundDuration":245097,"Delta":122123760},{"NoteNumber":58,"Velocity":22,"Duration":257267,"SoundDuration":257267,"Delta":122368858},{"NoteNumber":73,"Velocity":44,"Duration":245029,"SoundDuration":245029,"Delta":122626125},{"NoteNumber":61,"Velocity":22,"Duration":245029,"SoundDuration":245029,"Delta":122626125},{"NoteNumber":72,"Velocity":39,"Duration":249616,"SoundDuration":249616,"Delta":122871154},{"NoteNumber":58,"Velocity":20,"Duration":249616,"SoundDuration":249616,"Delta":122871154},{"NoteNumber":70,"Velocity":39,"Duration":254373,"SoundDuration":254373,"Delta":123120771},{"NoteNumber":54,"Velocity":20,"Duration":254373,"SoundDuration":254373,"Delta":123120771},{"NoteNumber":68,"Velocity":43,"Duration":1408498,"SoundDuration":1408498,"Delta":123375145},{"NoteNumber":44,"Velocity":21,"Duration":241876,"SoundDuration":241876,"Delta":123375145},{"NoteNumber":56,"Velocity":22,"Duration":240062,"SoundDuration":240062,"Delta":123617022},{"NoteNumber":60,"Velocity":22,"Duration":238097,"SoundDuration":238097,"Delta":123857084},{"NoteNumber":63,"Velocity":23,"Duration":230796,"SoundDuration":230796,"Delta":124095181},{"NoteNumber":60,"Velocity":23,"Duration":228832,"SoundDuration":228832,"Delta":124325978},{"NoteNumber":56,"Velocity":22,"Duration":228832,"SoundDuration":228832,"Delta":124554811},{"NoteNumber":70,"Velocity":46,"Duration":70588,"SoundDuration":70588,"Delta":124783644},{"NoteNumber":49,"Velocity":22,"Duration":233755,"SoundDuration":233755,"Delta":124783644},{"NoteNumber":72,"Velocity":42,"Duration":70278,"SoundDuration":70278,"Delta":124854232},{"NoteNumber":70,"Velocity":42,"Duration":69767,"SoundDuration":69767,"Delta":124924511},{"NoteNumber":72,"Velocity":44,"Duration":69264,"SoundDuration":69264,"Delta":124994278},{"NoteNumber":56,"Velocity":23,"Duration":229230,"SoundDuration":229230,"Delta":125017400},{"NoteNumber":70,"Velocity":42,"Duration":68801,"SoundDuration":68801,"Delta":125063543},{"NoteNumber":68,"Velocity":41,"Duration":342856,"SoundDuration":342856,"Delta":125132344},{"NoteNumber":60,"Velocity":25,"Duration":228571,"SoundDuration":228571,"Delta":125246630},{"NoteNumber":73,"Velocity":45,"Duration":342857,"SoundDuration":342857,"Delta":125475201},{"NoteNumber":66,"Velocity":27,"Duration":228571,"SoundDuration":228571,"Delta":125475201},{"NoteNumber":60,"Velocity":26,"Duration":234003,"SoundDuration":234003,"Delta":125703772},{"NoteNumber":75,"Velocity":48,"Duration":359152,"SoundDuration":359152,"Delta":125818058},{"NoteNumber":56,"Velocity":25,"Duration":239435,"SoundDuration":239435,"Delta":125937776},{"NoteNumber":77,"Velocity":51,"Duration":1388406,"SoundDuration":1388406,"Delta":126177211},{"NoteNumber":49,"Velocity":27,"Duration":231401,"SoundDuration":231401,"Delta":126177211},{"NoteNumber":56,"Velocity":28,"Duration":231400,"SoundDuration":231400,"Delta":126408612},{"NoteNumber":61,"Velocity":28,"Duration":231401,"SoundDuration":231401,"Delta":126640013},{"NoteNumber":65,"Velocity":29,"Duration":231401,"SoundDuration":231401,"Delta":126871414},{"NoteNumber":61,"Velocity":30,"Duration":231400,"SoundDuration":231400,"Delta":127102815},{"NoteNumber":56,"Velocity":28,"Duration":231401,"SoundDuration":231401,"Delta":127334216},{"NoteNumber":80,"Velocity":56,"Duration":1377147,"SoundDuration":1377147,"Delta":127565617},{"NoteNumber":49,"Velocity":27,"Duration":227582,"SoundDuration":227582,"Delta":127565617},{"NoteNumber":56,"Velocity":28,"Duration":227583,"SoundDuration":227583,"Delta":127793200},{"NoteNumber":65,"Velocity":29,"Duration":227582,"SoundDuration":227582,"Delta":128020783},{"NoteNumber":68,"Velocity":49,"Duration":694398,"SoundDuration":694398,"Delta":128248366},{"NoteNumber":65,"Velocity":30,"Duration":231466,"SoundDuration":231466,"Delta":128475949},{"NoteNumber":56,"Velocity":29,"Duration":235349,"SoundDuration":235349,"Delta":128707415},{"NoteNumber":78,"Velocity":53,"Duration":706047,"SoundDuration":706047,"Delta":128942764},{"NoteNumber":66,"Velocity":30,"Duration":235349,"SoundDuration":235349,"Delta":128942764},{"NoteNumber":63,"Velocity":26,"Duration":235349,"SoundDuration":235349,"Delta":129178113},{"NoteNumber":56,"Velocity":26,"Duration":235349,"SoundDuration":235349,"Delta":129413463},{"NoteNumber":77,"Velocity":51,"Duration":698080,"SoundDuration":698080,"Delta":129648812},{"NoteNumber":65,"Velocity":30,"Duration":232693,"SoundDuration":232693,"Delta":129648812},{"NoteNumber":61,"Velocity":26,"Duration":232693,"SoundDuration":232693,"Delta":129881505},{"NoteNumber":56,"Velocity":26,"Duration":232693,"SoundDuration":232693,"Delta":130114199},{"NoteNumber":75,"Velocity":49,"Duration":345184,"SoundDuration":345184,"Delta":130346892},{"NoteNumber":63,"Velocity":30,"Duration":230122,"SoundDuration":230122,"Delta":130346892},{"NoteNumber":60,"Velocity":23,"Duration":230123,"SoundDuration":230123,"Delta":130577015},{"NoteNumber":77,"Velocity":47,"Duration":86296,"SoundDuration":86296,"Delta":130692077},{"NoteNumber":75,"Velocity":47,"Duration":86296,"SoundDuration":86296,"Delta":130778373},{"NoteNumber":56,"Velocity":23,"Duration":230122,"SoundDuration":230122,"Delta":130807138},{"NoteNumber":73,"Velocity":47,"Duration":86296,"SoundDuration":86296,"Delta":130864669},{"NoteNumber":75,"Velocity":47,"Duration":86296,"SoundDuration":86296,"Delta":130950965},{"NoteNumber":77,"Velocity":51,"Duration":345184,"SoundDuration":345184,"Delta":131037261},{"NoteNumber":61,"Velocity":29,"Duration":230122,"SoundDuration":230122,"Delta":131037261},{"NoteNumber":56,"Velocity":24,"Duration":235543,"SoundDuration":235543,"Delta":131267384},{"NoteNumber":73,"Velocity":47,"Duration":361446,"SoundDuration":361446,"Delta":131382446},{"NoteNumber":53,"Velocity":24,"Duration":240963,"SoundDuration":240963,"Delta":131502928},{"NoteNumber":68,"Velocity":48,"Duration":1434914,"SoundDuration":1434914,"Delta":131743892},{"NoteNumber":44,"Velocity":26,"Duration":239520,"SoundDuration":239520,"Delta":131743892},{"NoteNumber":51,"Velocity":27,"Duration":239520,"SoundDuration":239520,"Delta":131983413},{"NoteNumber":56,"Velocity":27,"Duration":239520,"SoundDuration":239520,"Delta":132222934},{"NoteNumber":60,"Velocity":28,"Duration":235349,"SoundDuration":235349,"Delta":132462455},{"NoteNumber":56,"Velocity":27,"Duration":238783,"SoundDuration":238783,"Delta":132697804},{"NoteNumber":51,"Velocity":27,"Duration":242218,"SoundDuration":242218,"Delta":132936588},{"NoteNumber":70,"Velocity":48,"Duration":2840236,"SoundDuration":2840236,"Delta":133178807},{"NoteNumber":42,"Velocity":27,"Duration":236686,"SoundDuration":236686,"Delta":133178807},{"NoteNumber":54,"Velocity":27,"Duration":236686,"SoundDuration":236686,"Delta":133415493},{"NoteNumber":58,"Velocity":28,"Duration":236686,"SoundDuration":236686,"Delta":133652179},{"NoteNumber":61,"Velocity":29,"Duration":236686,"SoundDuration":236686,"Delta":133888866},{"NoteNumber":58,"Velocity":28,"Duration":236686,"SoundDuration":236686,"Delta":134125552},{"NoteNumber":54,"Velocity":28,"Duration":236686,"SoundDuration":236686,"Delta":134362238},{"NoteNumber":46,"Velocity":27,"Duration":236686,"SoundDuration":236686,"Delta":134598925},{"NoteNumber":53,"Velocity":27,"Duration":236686,"SoundDuration":236686,"Delta":134835611},{"NoteNumber":58,"Velocity":28,"Duration":236686,"SoundDuration":236686,"Delta":135072297},{"NoteNumber":62,"Velocity":28,"Duration":236686,"SoundDuration":236686,"Delta":135308984},{"NoteNumber":58,"Velocity":28,"Duration":236686,"SoundDuration":236686,"Delta":135545670},{"NoteNumber":53,"Velocity":27,"Duration":236686,"SoundDuration":236686,"Delta":135782356},{"NoteNumber":71,"Velocity":45,"Duration":71358,"SoundDuration":71358,"Delta":136019043},{"NoteNumber":46,"Velocity":28,"Duration":235998,"SoundDuration":235998,"Delta":136019043},{"NoteNumber":73,"Velocity":42,"Duration":70866,"SoundDuration":70866,"Delta":136090401},{"NoteNumber":71,"Velocity":41,"Duration":70381,"SoundDuration":70381,"Delta":136161267},{"NoteNumber":73,"Velocity":42,"Duration":69903,"SoundDuration":69903,"Delta":136231649},{"NoteNumber":58,"Velocity":29,"Duration":230062,"SoundDuration":230062,"Delta":136255041},{"NoteNumber":71,"Velocity":42,"Duration":69165,"SoundDuration":69165,"Delta":136307367},{"NoteNumber":70,"Velocity":45,"Duration":342857,"SoundDuration":342857,"Delta":136370818},{"NoteNumber":62,"Velocity":30,"Duration":228571,"SoundDuration":228571,"Delta":136485104},{"NoteNumber":75,"Velocity":45,"Duration":342856,"SoundDuration":342856,"Delta":136713675},{"NoteNumber":68,"Velocity":33,"Duration":228571,"SoundDuration":228571,"Delta":136713675},{"NoteNumber":62,"Velocity":31,"Duration":234003,"SoundDuration":234003,"Delta":136942246},{"NoteNumber":77,"Velocity":48,"Duration":359152,"SoundDuration":359152,"Delta":137056532},{"NoteNumber":58,"Velocity":29,"Duration":239434,"SoundDuration":239434,"Delta":137176249},{"NoteNumber":78,"Velocity":51,"Duration":694202,"SoundDuration":694202,"Delta":137415684},{"NoteNumber":51,"Velocity":34,"Duration":231401,"SoundDuration":231401,"Delta":137415684},{"NoteNumber":66,"Velocity":31,"Duration":231401,"SoundDuration":231401,"Delta":137647085},{"NoteNumber":58,"Velocity":28,"Duration":231400,"SoundDuration":231400,"Delta":137878486},{"NoteNumber":77,"Velocity":50,"Duration":694203,"SoundDuration":694203,"Delta":138109887},{"NoteNumber":53,"Velocity":32,"Duration":231401,"SoundDuration":231401,"Delta":138109887},{"NoteNumber":65,"Velocity":30,"Duration":231401,"SoundDuration":231401,"Delta":138341288},{"NoteNumber":57,"Velocity":28,"Duration":231401,"SoundDuration":231401,"Delta":138572689},{"NoteNumber":75,"Velocity":51,"Duration":682749,"SoundDuration":682749,"Delta":138804090},{"NoteNumber":54,"Velocity":31,"Duration":227583,"SoundDuration":227583,"Delta":138804090},{"NoteNumber":63,"Velocity":28,"Duration":227582,"SoundDuration":227582,"Delta":139031673},{"NoteNumber":58,"Velocity":29,"Duration":227583,"SoundDuration":227583,"Delta":139259256},{"NoteNumber":77,"Velocity":49,"Duration":694398,"SoundDuration":694398,"Delta":139486839},{"NoteNumber":56,"Velocity":30,"Duration":227583,"SoundDuration":227583,"Delta":139486839},{"NoteNumber":66,"Velocity":27,"Duration":231466,"SoundDuration":231466,"Delta":139714422},{"NoteNumber":60,"Velocity":27,"Duration":235349,"SoundDuration":235349,"Delta":139945889},{"NoteNumber":73,"Velocity":48,"Duration":1059071,"SoundDuration":1059071,"Delta":140181238},{"NoteNumber":49,"Velocity":25,"Duration":235349,"SoundDuration":235349,"Delta":140181238},{"NoteNumber":56,"Velocity":27,"Duration":235349,"SoundDuration":235349,"Delta":140416587},{"NoteNumber":61,"Velocity":29,"Duration":235349,"SoundDuration":235349,"Delta":140651937},{"NoteNumber":65,"Velocity":30,"Duration":235349,"SoundDuration":235349,"Delta":140887286},{"NoteNumber":61,"Velocity":29,"Duration":246706,"SoundDuration":246706,"Delta":141122635},{"NoteNumber":67,"Velocity":49,"Duration":96774,"SoundDuration":96774,"Delta":141240310},{"NoteNumber":68,"Velocity":45,"Duration":96774,"SoundDuration":96774,"Delta":141337084},{"NoteNumber":56,"Velocity":27,"Duration":258064,"SoundDuration":258064,"Delta":141369342},{"NoteNumber":70,"Velocity":45,"Duration":96774,"SoundDuration":96774,"Delta":141433858},{"NoteNumber":68,"Velocity":45,"Duration":96774,"SoundDuration":96774,"Delta":141530633},{"NoteNumber":77,"Velocity":50,"Duration":1077844,"SoundDuration":1077844,"Delta":141627407},{"NoteNumber":49,"Velocity":27,"Duration":239520,"SoundDuration":239520,"Delta":141627407},{"NoteNumber":56,"Velocity":28,"Duration":239520,"SoundDuration":239520,"Delta":141866928},{"NoteNumber":60,"Velocity":29,"Duration":239520,"SoundDuration":239520,"Delta":142106449},{"NoteNumber":66,"Velocity":30,"Duration":239521,"SoundDuration":239521,"Delta":142345970},{"NoteNumber":60,"Velocity":29,"Duration":257691,"SoundDuration":257691,"Delta":142585491},{"NoteNumber":75,"Velocity":49,"Duration":413792,"SoundDuration":413792,"Delta":142705251},{"NoteNumber":56,"Velocity":27,"Duration":275861,"SoundDuration":275861,"Delta":142843182},{"NoteNumber":75,"Velocity":52,"Duration":1446097,"SoundDuration":1446097,"Delta":143119044},{"NoteNumber":49,"Velocity":27,"Duration":240963,"SoundDuration":240963,"Delta":143119044},{"NoteNumber":56,"Velocity":28,"Duration":240964,"SoundDuration":240964,"Delta":143360008},{"NoteNumber":60,"Velocity":30,"Duration":240963,"SoundDuration":240963,"Delta":143600972},{"NoteNumber":66,"Velocity":31,"Duration":240963,"SoundDuration":240963,"Delta":143841936},{"NoteNumber":60,"Velocity":30,"Duration":240964,"SoundDuration":240964,"Delta":144082900},{"NoteNumber":56,"Velocity":28,"Duration":241277,"SoundDuration":241277,"Delta":144323864},{"NoteNumber":73,"Velocity":52,"Duration":733124,"SoundDuration":733124,"Delta":144565142},{"NoteNumber":49,"Velocity":27,"Duration":242572,"SoundDuration":242572,"Delta":144565142},{"NoteNumber":56,"Velocity":27,"Duration":244366,"SoundDuration":244366,"Delta":144807715},{"NoteNumber":61,"Velocity":28,"Duration":246185,"SoundDuration":246185,"Delta":145052081},{"NoteNumber":65,"Velocity":30,"Duration":247649,"SoundDuration":247649,"Delta":145298267},{"NoteNumber":61,"Velocity":28,"Duration":243109,"SoundDuration":243109,"Delta":145545916},{"NoteNumber":80,"Velocity":60,"Duration":355029,"SoundDuration":355029,"Delta":145670682},{"NoteNumber":56,"Velocity":27,"Duration":236686,"SoundDuration":236686,"Delta":145789025},{"NoteNumber":68,"Velocity":65,"Duration":1453312,"SoundDuration":1453312,"Delta":146025712},{"NoteNumber":44,"Velocity":34,"Duration":242218,"SoundDuration":242218,"Delta":146025712},{"NoteNumber":51,"Velocity":33,"Duration":242218,"SoundDuration":242218,"Delta":146267930},{"NoteNumber":56,"Velocity":34,"Duration":242218,"SoundDuration":242218,"Delta":146510149},{"NoteNumber":60,"Velocity":34,"Duration":242218,"SoundDuration":242218,"Delta":146752368},{"NoteNumber":56,"Velocity":33,"Duration":242218,"SoundDuration":242218,"Delta":146994586},{"NoteNumber":51,"Velocity":32,"Duration":242218,"SoundDuration":242218,"Delta":147236805},{"NoteNumber":70,"Velocity":65,"Duration":85551,"SoundDuration":85551,"Delta":147479024},{"NoteNumber":44,"Velocity":31,"Duration":225849,"SoundDuration":225849,"Delta":147479024},{"NoteNumber":72,"Velocity":59,"Duration":84587,"SoundDuration":84587,"Delta":147564576},{"NoteNumber":70,"Velocity":60,"Duration":83488,"SoundDuration":83488,"Delta":147649163},{"NoteNumber":51,"Velocity":33,"Duration":234420,"SoundDuration":234420,"Delta":147704873},{"NoteNumber":72,"Velocity":59,"Duration":82419,"SoundDuration":82419,"Delta":147732651},{"NoteNumber":70,"Velocity":56,"Duration":62111,"SoundDuration":62111,"Delta":147815070},{"NoteNumber":72,"Velocity":56,"Duration":62111,"SoundDuration":62111,"Delta":147877182},{"NoteNumber":70,"Velocity":56,"Duration":62111,"SoundDuration":62111,"Delta":147939294},{"NoteNumber":55,"Velocity":34,"Duration":238582,"SoundDuration":238582,"Delta":147939294},{"NoteNumber":69,"Velocity":62,"Duration":176470,"SoundDuration":176470,"Delta":148001406},{"NoteNumber":70,"Velocity":64,"Duration":538953,"SoundDuration":538953,"Delta":148177876},{"NoteNumber":61,"Velocity":34,"Duration":235294,"SoundDuration":235294,"Delta":148177876},{"NoteNumber":55,"Velocity":33,"Duration":241655,"SoundDuration":241655,"Delta":148413170},{"NoteNumber":51,"Velocity":30,"Duration":248016,"SoundDuration":248016,"Delta":148654825},{"NoteNumber":72,"Velocity":62,"Duration":186012,"SoundDuration":186012,"Delta":148716829},{"NoteNumber":68,"Velocity":66,"Duration":351000,"SoundDuration":351000,"Delta":148902841},{"NoteNumber":44,"Velocity":36,"Duration":234000,"SoundDuration":234000,"Delta":148902841},{"NoteNumber":51,"Velocity":30,"Duration":234000,"SoundDuration":234000,"Delta":149136842},{"NoteNumber":56,"Velocity":32,"Duration":234000,"SoundDuration":234000,"Delta":149370842},{"NoteNumber":84,"Velocity":66,"Duration":926276,"SoundDuration":926276,"Delta":149604842},{"NoteNumber":60,"Velocity":33,"Duration":240818,"SoundDuration":240818,"Delta":149604842},{"NoteNumber":56,"Velocity":32,"Duration":240818,"SoundDuration":240818,"Delta":149845661},{"NoteNumber":51,"Velocity":30,"Duration":240818,"SoundDuration":240818,"Delta":150086480},{"NoteNumber":49,"Velocity":27,"Duration":238038,"SoundDuration":238038,"Delta":150327298},{"NoteNumber":82,"Velocity":63,"Duration":203820,"SoundDuration":203820,"Delta":150531119},{"NoteNumber":56,"Velocity":29,"Duration":238038,"SoundDuration":238038,"Delta":150565337},{"NoteNumber":80,"Velocity":62,"Duration":203820,"SoundDuration":203820,"Delta":150734940},{"NoteNumber":61,"Velocity":30,"Duration":238038,"SoundDuration":238038,"Delta":150803376},{"NoteNumber":76,"Velocity":61,"Duration":203820,"SoundDuration":203820,"Delta":150938760},{"NoteNumber":64,"Velocity":31,"Duration":238736,"SoundDuration":238736,"Delta":151041414},{"NoteNumber":73,"Velocity":59,"Duration":205300,"SoundDuration":205300,"Delta":151142581},{"NoteNumber":61,"Velocity":30,"Duration":241168,"SoundDuration":241168,"Delta":151280151},{"NoteNumber":70,"Velocity":58,"Duration":334704,"SoundDuration":334704,"Delta":151347881},{"NoteNumber":56,"Velocity":29,"Duration":341704,"SoundDuration":341704,"Delta":151521320},{"NoteNumber":80,"Velocity":55,"Duration":180439,"SoundDuration":180439,"Delta":151682586},{"NoteNumber":63,"Velocity":66,"Duration":1362480,"SoundDuration":1362480,"Delta":151863025},{"NoteNumber":39,"Velocity":34,"Duration":242218,"SoundDuration":242218,"Delta":151863025},{"NoteNumber":51,"Velocity":33,"Duration":242218,"SoundDuration":242218,"Delta":152105243},{"NoteNumber":56,"Velocity":34,"Duration":242218,"SoundDuration":242218,"Delta":152347462},{"NoteNumber":60,"Velocity":34,"Duration":242218,"SoundDuration":242218,"Delta":152589681},{"NoteNumber":56,"Velocity":33,"Duration":242218,"SoundDuration":242218,"Delta":152831899},{"NoteNumber":51,"Velocity":32,"Duration":242218,"SoundDuration":242218,"Delta":153074118},{"NoteNumber":72,"Velocity":59,"Duration":90832,"SoundDuration":90832,"Delta":153225505},{"NoteNumber":70,"Velocity":64,"Duration":535586,"SoundDuration":535586,"Delta":153316337},{"NoteNumber":39,"Velocity":31,"Duration":238038,"SoundDuration":238038,"Delta":153316337},{"NoteNumber":51,"Velocity":33,"Duration":238038,"SoundDuration":238038,"Delta":153554375},{"NoteNumber":55,"Velocity":34,"Duration":238038,"SoundDuration":238038,"Delta":153792414},{"NoteNumber":69,"Velocity":57,"Duration":178528,"SoundDuration":178528,"Delta":153851924},{"NoteNumber":70,"Velocity":64,"Duration":543070,"SoundDuration":543070,"Delta":154030453},{"NoteNumber":61,"Velocity":34,"Duration":238038,"SoundDuration":238038,"Delta":154030453},{"NoteNumber":55,"Velocity":33,"Duration":243027,"SoundDuration":243027,"Delta":154268491},{"NoteNumber":51,"Velocity":30,"Duration":248016,"SoundDuration":248016,"Delta":154511519},{"NoteNumber":75,"Velocity":62,"Duration":186012,"SoundDuration":186012,"Delta":154573523},{"NoteNumber":68,"Velocity":65,"Duration":702000,"SoundDuration":702000,"Delta":154759535},{"NoteNumber":44,"Velocity":34,"Duration":234000,"SoundDuration":234000,"Delta":154759535},{"NoteNumber":51,"Velocity":30,"Duration":234000,"SoundDuration":234000,"Delta":154993535},{"NoteNumber":56,"Velocity":32,"Duration":234000,"SoundDuration":234000,"Delta":155227535},{"NoteNumber":60,"Velocity":33,"Duration":233346,"SoundDuration":233346,"Delta":155461536},{"NoteNumber":56,"Velocity":32,"Duration":237028,"SoundDuration":237028,"Delta":155694883},{"NoteNumber":51,"Velocity":30,"Duration":241526,"SoundDuration":241526,"Delta":155931911},{"NoteNumber":70,"Velocity":39,"Duration":747463,"SoundDuration":747463,"Delta":156173438},{"NoteNumber":42,"Velocity":19,"Duration":245098,"SoundDuration":245098,"Delta":156173438},{"NoteNumber":54,"Velocity":20,"Duration":245098,"SoundDuration":245098,"Delta":156418536},{"NoteNumber":58,"Velocity":22,"Duration":257267,"SoundDuration":257267,"Delta":156663634},{"NoteNumber":73,"Velocity":44,"Duration":245098,"SoundDuration":245098,"Delta":156920901},{"NoteNumber":61,"Velocity":22,"Duration":245098,"SoundDuration":245098,"Delta":156920901},{"NoteNumber":72,"Velocity":39,"Duration":245097,"SoundDuration":245097,"Delta":157165999},{"NoteNumber":58,"Velocity":20,"Duration":245097,"SoundDuration":245097,"Delta":157165999},{"NoteNumber":70,"Velocity":39,"Duration":245098,"SoundDuration":245098,"Delta":157411097},{"NoteNumber":54,"Velocity":20,"Duration":245098,"SoundDuration":245098,"Delta":157411097},{"NoteNumber":68,"Velocity":43,"Duration":1406318,"SoundDuration":1406318,"Delta":157656195},{"NoteNumber":44,"Velocity":21,"Duration":239696,"SoundDuration":239696,"Delta":157656195},{"NoteNumber":51,"Velocity":22,"Duration":240062,"SoundDuration":240062,"Delta":157895892},{"NoteNumber":56,"Velocity":22,"Duration":238097,"SoundDuration":238097,"Delta":158135954},{"NoteNumber":60,"Velocity":23,"Duration":230796,"SoundDuration":230796,"Delta":158374051},{"NoteNumber":56,"Velocity":23,"Duration":228832,"SoundDuration":228832,"Delta":158604848},{"NoteNumber":51,"Velocity":22,"Duration":228833,"SoundDuration":228833,"Delta":158833681},{"NoteNumber":70,"Velocity":47,"Duration":70936,"SoundDuration":70936,"Delta":159062514},{"NoteNumber":44,"Velocity":22,"Duration":234614,"SoundDuration":234614,"Delta":159062514},{"NoteNumber":72,"Velocity":43,"Duration":70450,"SoundDuration":70450,"Delta":159133450},{"NoteNumber":70,"Velocity":43,"Duration":69971,"SoundDuration":69971,"Delta":159203900},{"NoteNumber":72,"Velocity":43,"Duration":69498,"SoundDuration":69498,"Delta":159273872},{"NoteNumber":56,"Velocity":23,"Duration":229560,"SoundDuration":229560,"Delta":159297128},{"NoteNumber":70,"Velocity":43,"Duration":69031,"SoundDuration":69031,"Delta":159343370},{"NoteNumber":68,"Velocity":45,"Duration":342857,"SoundDuration":342857,"Delta":159412402},{"NoteNumber":60,"Velocity":25,"Duration":228571,"SoundDuration":228571,"Delta":159526688},{"NoteNumber":73,"Velocity":45,"Duration":342856,"SoundDuration":342856,"Delta":159755259},{"NoteNumber":66,"Velocity":27,"Duration":228571,"SoundDuration":228571,"Delta":159755259},{"NoteNumber":60,"Velocity":26,"Duration":234003,"SoundDuration":234003,"Delta":159983831},{"NoteNumber":75,"Velocity":48,"Duration":359152,"SoundDuration":359152,"Delta":160098116},{"NoteNumber":58,"Velocity":25,"Duration":239434,"SoundDuration":239434,"Delta":160217834},{"NoteNumber":77,"Velocity":51,"Duration":1388406,"SoundDuration":1388406,"Delta":160457269},{"NoteNumber":49,"Velocity":27,"Duration":231401,"SoundDuration":231401,"Delta":160457269},{"NoteNumber":56,"Velocity":28,"Duration":231401,"SoundDuration":231401,"Delta":160688670},{"NoteNumber":61,"Velocity":28,"Duration":231400,"SoundDuration":231400,"Delta":160920071},{"NoteNumber":65,"Velocity":29,"Duration":231401,"SoundDuration":231401,"Delta":161151472},{"NoteNumber":61,"Velocity":30,"Duration":231401,"SoundDuration":231401,"Delta":161382873},{"NoteNumber":56,"Velocity":28,"Duration":231401,"SoundDuration":231401,"Delta":161614274},{"NoteNumber":80,"Velocity":56,"Duration":1377147,"SoundDuration":1377147,"Delta":161845675},{"NoteNumber":49,"Velocity":27,"Duration":227583,"SoundDuration":227583,"Delta":161845675},{"NoteNumber":56,"Velocity":28,"Duration":227582,"SoundDuration":227582,"Delta":162073258},{"NoteNumber":65,"Velocity":29,"Duration":227583,"SoundDuration":227583,"Delta":162300841},{"NoteNumber":68,"Velocity":49,"Duration":694398,"SoundDuration":694398,"Delta":162528424},{"NoteNumber":65,"Velocity":30,"Duration":231466,"SoundDuration":231466,"Delta":162756007},{"NoteNumber":56,"Velocity":29,"Duration":235349,"SoundDuration":235349,"Delta":162987473},{"NoteNumber":78,"Velocity":53,"Duration":706047,"SoundDuration":706047,"Delta":163222822},{"NoteNumber":66,"Velocity":30,"Duration":235349,"SoundDuration":235349,"Delta":163222822},{"NoteNumber":63,"Velocity":26,"Duration":235349,"SoundDuration":235349,"Delta":163458172},{"NoteNumber":56,"Velocity":26,"Duration":235349,"SoundDuration":235349,"Delta":163693521},{"NoteNumber":77,"Velocity":51,"Duration":698080,"SoundDuration":698080,"Delta":163928870},{"NoteNumber":65,"Velocity":30,"Duration":232693,"SoundDuration":232693,"Delta":163928870},{"NoteNumber":61,"Velocity":26,"Duration":232693,"SoundDuration":232693,"Delta":164161564},{"NoteNumber":56,"Velocity":26,"Duration":232693,"SoundDuration":232693,"Delta":164394257},{"NoteNumber":75,"Velocity":49,"Duration":345184,"SoundDuration":345184,"Delta":164626950},{"NoteNumber":63,"Velocity":30,"Duration":230122,"SoundDuration":230122,"Delta":164626950},{"NoteNumber":60,"Velocity":23,"Duration":233404,"SoundDuration":233404,"Delta":164857073},{"NoteNumber":77,"Velocity":47,"Duration":88757,"SoundDuration":88757,"Delta":164972135},{"NoteNumber":75,"Velocity":47,"Duration":88757,"SoundDuration":88757,"Delta":165060892},{"NoteNumber":56,"Velocity":23,"Duration":236686,"SoundDuration":236686,"Delta":165090478},{"NoteNumber":73,"Velocity":47,"Duration":88757,"SoundDuration":88757,"Delta":165149650},{"NoteNumber":75,"Velocity":47,"Duration":88757,"SoundDuration":88757,"Delta":165238407},{"NoteNumber":77,"Velocity":51,"Duration":355029,"SoundDuration":355029,"Delta":165327164},{"NoteNumber":61,"Velocity":29,"Duration":236686,"SoundDuration":236686,"Delta":165327164},{"NoteNumber":56,"Velocity":24,"Duration":245731,"SoundDuration":245731,"Delta":165563851},{"NoteNumber":73,"Velocity":47,"Duration":382165,"SoundDuration":382165,"Delta":165682194},{"NoteNumber":53,"Velocity":24,"Duration":254777,"SoundDuration":254777,"Delta":165809582},{"NoteNumber":68,"Velocity":48,"Duration":1439244,"SoundDuration":1439244,"Delta":166064359},{"NoteNumber":44,"Velocity":26,"Duration":240963,"SoundDuration":240963,"Delta":166064359},{"NoteNumber":51,"Velocity":27,"Duration":240964,"SoundDuration":240964,"Delta":166305323},{"NoteNumber":56,"Velocity":27,"Duration":240963,"SoundDuration":240963,"Delta":166546287},{"NoteNumber":60,"Velocity":28,"Duration":235349,"SoundDuration":235349,"Delta":166787251},{"NoteNumber":56,"Velocity":27,"Duration":238783,"SoundDuration":238783,"Delta":167022601},{"NoteNumber":51,"Velocity":27,"Duration":242218,"SoundDuration":242218,"Delta":167261385},{"NoteNumber":70,"Velocity":48,"Duration":2840236,"SoundDuration":2840236,"Delta":167503603},{"NoteNumber":42,"Velocity":27,"Duration":236686,"SoundDuration":236686,"Delta":167503603},{"NoteNumber":54,"Velocity":27,"Duration":236686,"SoundDuration":236686,"Delta":167740290},{"NoteNumber":58,"Velocity":28,"Duration":236686,"SoundDuration":236686,"Delta":167976976},{"NoteNumber":61,"Velocity":29,"Duration":236686,"SoundDuration":236686,"Delta":168213662},{"NoteNumber":58,"Velocity":28,"Duration":236686,"SoundDuration":236686,"Delta":168450349},{"NoteNumber":54,"Velocity":28,"Duration":236686,"SoundDuration":236686,"Delta":168687035},{"NoteNumber":46,"Velocity":27,"Duration":236686,"SoundDuration":236686,"Delta":168923721},{"NoteNumber":53,"Velocity":27,"Duration":236686,"SoundDuration":236686,"Delta":169160408},{"NoteNumber":58,"Velocity":28,"Duration":236686,"SoundDuration":236686,"Delta":169397094},{"NoteNumber":62,"Velocity":28,"Duration":236686,"SoundDuration":236686,"Delta":169633780},{"NoteNumber":58,"Velocity":28,"Duration":236686,"SoundDuration":236686,"Delta":169870467},{"NoteNumber":53,"Velocity":27,"Duration":236686,"SoundDuration":236686,"Delta":170107153},{"NoteNumber":71,"Velocity":48,"Duration":70936,"SoundDuration":70936,"Delta":170343839},{"NoteNumber":46,"Velocity":28,"Duration":234614,"SoundDuration":234614,"Delta":170343839},{"NoteNumber":73,"Velocity":42,"Duration":70450,"SoundDuration":70450,"Delta":170414776},{"NoteNumber":71,"Velocity":43,"Duration":69971,"SoundDuration":69971,"Delta":170485226},{"NoteNumber":73,"Velocity":42,"Duration":69498,"SoundDuration":69498,"Delta":170555198},{"NoteNumber":58,"Velocity":29,"Duration":229396,"SoundDuration":229396,"Delta":170578453},{"NoteNumber":71,"Velocity":42,"Duration":68867,"SoundDuration":68867,"Delta":170624696},{"NoteNumber":70,"Velocity":45,"Duration":342857,"SoundDuration":342857,"Delta":170693564},{"NoteNumber":62,"Velocity":30,"Duration":228571,"SoundDuration":228571,"Delta":170807850},{"NoteNumber":75,"Velocity":45,"Duration":342856,"SoundDuration":342856,"Delta":171036421},{"NoteNumber":68,"Velocity":33,"Duration":228571,"SoundDuration":228571,"Delta":171036421},{"NoteNumber":62,"Velocity":31,"Duration":234003,"SoundDuration":234003,"Delta":171264992},{"NoteNumber":77,"Velocity":48,"Duration":359152,"SoundDuration":359152,"Delta":171379278},{"NoteNumber":58,"Velocity":29,"Duration":239434,"SoundDuration":239434,"Delta":171498996},{"NoteNumber":78,"Velocity":51,"Duration":694202,"SoundDuration":694202,"Delta":171738431},{"NoteNumber":51,"Velocity":34,"Duration":231401,"SoundDuration":231401,"Delta":171738431},{"NoteNumber":66,"Velocity":31,"Duration":231401,"SoundDuration":231401,"Delta":171969832},{"NoteNumber":58,"Velocity":28,"Duration":231400,"SoundDuration":231400,"Delta":172201233},{"NoteNumber":77,"Velocity":47,"Duration":694203,"SoundDuration":694203,"Delta":172432634},{"NoteNumber":53,"Velocity":31,"Duration":231401,"SoundDuration":231401,"Delta":172432634},{"NoteNumber":65,"Velocity":28,"Duration":231401,"SoundDuration":231401,"Delta":172664035},{"NoteNumber":57,"Velocity":28,"Duration":231401,"SoundDuration":231401,"Delta":172895436},{"NoteNumber":75,"Velocity":49,"Duration":682749,"SoundDuration":682749,"Delta":173126837},{"NoteNumber":54,"Velocity":30,"Duration":227583,"SoundDuration":227583,"Delta":173126837},{"NoteNumber":63,"Velocity":25,"Duration":227582,"SoundDuration":227582,"Delta":173354420},{"NoteNumber":58,"Velocity":25,"Duration":227583,"SoundDuration":227583,"Delta":173582003},{"NoteNumber":77,"Velocity":45,"Duration":705011,"SoundDuration":705011,"Delta":173809586},{"NoteNumber":56,"Velocity":30,"Duration":227583,"SoundDuration":227583,"Delta":173809586},{"NoteNumber":66,"Velocity":27,"Duration":235003,"SoundDuration":235003,"Delta":174037169},{"NoteNumber":60,"Velocity":27,"Duration":242424,"SoundDuration":242424,"Delta":174272172},{"NoteNumber":73,"Velocity":43,"Duration":1090909,"SoundDuration":1090909,"Delta":174514597},{"NoteNumber":49,"Velocity":22,"Duration":242424,"SoundDuration":242424,"Delta":174514597},{"NoteNumber":56,"Velocity":23,"Duration":242424,"SoundDuration":242424,"Delta":174757021},{"NoteNumber":61,"Velocity":26,"Duration":242424,"SoundDuration":242424,"Delta":174999445},{"NoteNumber":65,"Velocity":27,"Duration":242424,"SoundDuration":242424,"Delta":175241870},{"NoteNumber":61,"Velocity":26,"Duration":260100,"SoundDuration":260100,"Delta":175484294},{"NoteNumber":67,"Velocity":44,"Duration":104166,"SoundDuration":104166,"Delta":175605506},{"NoteNumber":68,"Velocity":40,"Duration":104166,"SoundDuration":104166,"Delta":175709673},{"NoteNumber":56,"Velocity":23,"Duration":277777,"SoundDuration":277777,"Delta":175744395},{"NoteNumber":70,"Velocity":40,"Duration":104166,"SoundDuration":104166,"Delta":175813839},{"NoteNumber":68,"Velocity":40,"Duration":104166,"SoundDuration":104166,"Delta":175918006},{"NoteNumber":77,"Velocity":45,"Duration":1132075,"SoundDuration":1132075,"Delta":176022173},{"NoteNumber":49,"Velocity":23,"Duration":251572,"SoundDuration":251572,"Delta":176022173},{"NoteNumber":56,"Velocity":24,"Duration":251572,"SoundDuration":251572,"Delta":176273745},{"NoteNumber":60,"Velocity":26,"Duration":251572,"SoundDuration":251572,"Delta":176525317},{"NoteNumber":66,"Velocity":27,"Duration":251572,"SoundDuration":251572,"Delta":176776890},{"NoteNumber":60,"Velocity":26,"Duration":262772,"SoundDuration":262772,"Delta":177028462},{"NoteNumber":75,"Velocity":44,"Duration":410958,"SoundDuration":410958,"Delta":177154248},{"NoteNumber":56,"Velocity":23,"Duration":273972,"SoundDuration":273972,"Delta":177291234},{"NoteNumber":75,"Velocity":44,"Duration":3120332,"SoundDuration":3120332,"Delta":177565207},{"NoteNumber":49,"Velocity":20,"Duration":256410,"SoundDuration":256410,"Delta":177565207},{"NoteNumber":56,"Velocity":21,"Duration":256410,"SoundDuration":256410,"Delta":177821617},{"NoteNumber":60,"Velocity":22,"Duration":256410,"SoundDuration":256410,"Delta":178078028},{"NoteNumber":66,"Velocity":24,"Duration":256410,"SoundDuration":256410,"Delta":178334438},{"NoteNumber":60,"Velocity":22,"Duration":256410,"SoundDuration":256410,"Delta":178590848},{"NoteNumber":56,"Velocity":22,"Duration":256002,"SoundDuration":256002,"Delta":178847259},{"NoteNumber":49,"Velocity":20,"Duration":255593,"SoundDuration":255593,"Delta":179103261},{"NoteNumber":56,"Velocity":21,"Duration":258902,"SoundDuration":258902,"Delta":179358854},{"NoteNumber":60,"Velocity":22,"Duration":262297,"SoundDuration":262297,"Delta":179617757},{"NoteNumber":66,"Velocity":22,"Duration":264906,"SoundDuration":264906,"Delta":179880055},{"NoteNumber":60,"Velocity":22,"Duration":268462,"SoundDuration":268462,"Delta":180144961},{"NoteNumber":56,"Velocity":21,"Duration":272115,"SoundDuration":272115,"Delta":180413424},{"NoteNumber":49,"Velocity":22,"Duration":117733,"SoundDuration":117733,"Delta":180685539},{"NoteNumber":68,"Velocity":37,"Duration":88496,"SoundDuration":88496,"Delta":180773861},{"NoteNumber":56,"Velocity":25,"Duration":118431,"SoundDuration":118431,"Delta":180803273},{"NoteNumber":69,"Velocity":41,"Duration":89020,"SoundDuration":89020,"Delta":180862357},{"NoteNumber":61,"Velocity":28,"Duration":118169,"SoundDuration":118169,"Delta":180921704},{"NoteNumber":68,"Velocity":38,"Duration":88496,"SoundDuration":88496,"Delta":180951378},{"NoteNumber":67,"Velocity":39,"Duration":87806,"SoundDuration":87806,"Delta":181039874},{"NoteNumber":64,"Velocity":30,"Duration":117304,"SoundDuration":117304,"Delta":181039874},{"NoteNumber":68,"Velocity":40,"Duration":88582,"SoundDuration":88582,"Delta":181127680},{"NoteNumber":61,"Velocity":28,"Duration":118431,"SoundDuration":118431,"Delta":181157178},{"NoteNumber":73,"Velocity":42,"Duration":89020,"SoundDuration":89020,"Delta":181216263},{"NoteNumber":56,"Velocity":27,"Duration":118431,"SoundDuration":118431,"Delta":181275610},{"NoteNumber":76,"Velocity":43,"Duration":88757,"SoundDuration":88757,"Delta":181305284},{"NoteNumber":75,"Velocity":45,"Duration":88062,"SoundDuration":88062,"Delta":181394041},{"NoteNumber":52,"Velocity":26,"Duration":117474,"SoundDuration":117474,"Delta":181394041},{"NoteNumber":73,"Velocity":43,"Duration":88758,"SoundDuration":88758,"Delta":181482104},{"NoteNumber":56,"Velocity":28,"Duration":118694,"SoundDuration":118694,"Delta":181511516},{"NoteNumber":75,"Velocity":45,"Duration":88845,"SoundDuration":88845,"Delta":181570863},{"NoteNumber":61,"Velocity":30,"Duration":118608,"SoundDuration":118608,"Delta":181630210},{"NoteNumber":73,"Velocity":43,"Duration":89110,"SoundDuration":89110,"Delta":181659709},{"NoteNumber":72,"Velocity":44,"Duration":89463,"SoundDuration":89463,"Delta":181748819},{"NoteNumber":64,"Velocity":31,"Duration":119049,"SoundDuration":119049,"Delta":181748819},{"NoteNumber":73,"Velocity":46,"Duration":88582,"SoundDuration":88582,"Delta":181838282},{"NoteNumber":61,"Velocity":28,"Duration":117994,"SoundDuration":117994,"Delta":181867868},{"NoteNumber":76,"Velocity":49,"Duration":88495,"SoundDuration":88495,"Delta":181926865},{"NoteNumber":56,"Velocity":27,"Duration":134518,"SoundDuration":134518,"Delta":181985862},{"NoteNumber":80,"Velocity":47,"Duration":105019,"SoundDuration":105019,"Delta":182015361},{"NoteNumber":49,"Velocity":27,"Duration":130636,"SoundDuration":130636,"Delta":182120381},{"NoteNumber":68,"Velocity":45,"Duration":88812,"SoundDuration":88812,"Delta":182221289},{"NoteNumber":56,"Velocity":30,"Duration":117821,"SoundDuration":117821,"Delta":182251017},{"NoteNumber":69,"Velocity":49,"Duration":88062,"SoundDuration":88062,"Delta":182310102},{"NoteNumber":61,"Velocity":34,"Duration":117996,"SoundDuration":117996,"Delta":182368839},{"NoteNumber":68,"Velocity":45,"Duration":88670,"SoundDuration":88670,"Delta":182398164},{"NoteNumber":67,"Velocity":46,"Duration":88757,"SoundDuration":88757,"Delta":182486835},{"NoteNumber":64,"Velocity":36,"Duration":118256,"SoundDuration":118256,"Delta":182486835},{"NoteNumber":68,"Velocity":48,"Duration":88670,"SoundDuration":88670,"Delta":182575593},{"NoteNumber":61,"Velocity":34,"Duration":118695,"SoundDuration":118695,"Delta":182605091},{"NoteNumber":73,"Velocity":50,"Duration":89109,"SoundDuration":89109,"Delta":182664263},{"NoteNumber":56,"Velocity":33,"Duration":117735,"SoundDuration":117735,"Delta":182723787},{"NoteNumber":76,"Velocity":51,"Duration":88149,"SoundDuration":88149,"Delta":182753373},{"NoteNumber":75,"Velocity":54,"Duration":88408,"SoundDuration":88408,"Delta":182841523},{"NoteNumber":52,"Velocity":31,"Duration":117994,"SoundDuration":117994,"Delta":182841523},{"NoteNumber":73,"Velocity":51,"Duration":88757,"SoundDuration":88757,"Delta":182929931},{"NoteNumber":56,"Velocity":33,"Duration":118082,"SoundDuration":118082,"Delta":182959517},{"NoteNumber":75,"Velocity":53,"Duration":88235,"SoundDuration":88235,"Delta":183018689},{"NoteNumber":61,"Velocity":36,"Duration":117301,"SoundDuration":117301,"Delta":183077599},{"NoteNumber":73,"Velocity":51,"Duration":87976,"SoundDuration":87976,"Delta":183106925},{"NoteNumber":72,"Velocity":52,"Duration":88149,"SoundDuration":88149,"Delta":183194901},{"NoteNumber":64,"Velocity":37,"Duration":117647,"SoundDuration":117647,"Delta":183194901},{"NoteNumber":73,"Velocity":54,"Duration":88670,"SoundDuration":88670,"Delta":183283051},{"NoteNumber":61,"Velocity":34,"Duration":118343,"SoundDuration":118343,"Delta":183312549},{"NoteNumber":76,"Velocity":57,"Duration":88757,"SoundDuration":88757,"Delta":183371721},{"NoteNumber":56,"Velocity":32,"Duration":134246,"SoundDuration":134246,"Delta":183430893},{"NoteNumber":80,"Velocity":55,"Duration":104660,"SoundDuration":104660,"Delta":183460479},{"NoteNumber":51,"Velocity":31,"Duration":131431,"SoundDuration":131431,"Delta":183565140},{"NoteNumber":69,"Velocity":56,"Duration":90476,"SoundDuration":90476,"Delta":183666382},{"NoteNumber":57,"Velocity":35,"Duration":120292,"SoundDuration":120292,"Delta":183696571},{"NoteNumber":73,"Velocity":58,"Duration":89917,"SoundDuration":89917,"Delta":183756858},{"NoteNumber":61,"Velocity":39,"Duration":119369,"SoundDuration":119369,"Delta":183816864},{"NoteNumber":75,"Velocity":60,"Duration":89458,"SoundDuration":89458,"Delta":183846775},{"NoteNumber":78,"Velocity":63,"Duration":89641,"SoundDuration":89641,"Delta":183936234},{"NoteNumber":66,"Velocity":45,"Duration":119460,"SoundDuration":119460,"Delta":183936234},{"NoteNumber":81,"Velocity":63,"Duration":89365,"SoundDuration":89365,"Delta":184025875},{"NoteNumber":61,"Velocity":39,"Duration":119003,"SoundDuration":119003,"Delta":184055694},{"NoteNumber":85,"Velocity":66,"Duration":89093,"SoundDuration":89093,"Delta":184115241},{"NoteNumber":57,"Velocity":37,"Duration":118457,"SoundDuration":118457,"Delta":184174697},{"NoteNumber":87,"Velocity":72,"Duration":88820,"SoundDuration":88820,"Delta":184204334},{"NoteNumber":95,"Velocity":76,"Duration":88112,"SoundDuration":88112,"Delta":184293155},{"NoteNumber":54,"Velocity":37,"Duration":117352,"SoundDuration":117352,"Delta":184293155},{"NoteNumber":93,"Velocity":75,"Duration":87719,"SoundDuration":87719,"Delta":184381267},{"NoteNumber":61,"Velocity":40,"Duration":117216,"SoundDuration":117216,"Delta":184410507},{"NoteNumber":92,"Velocity":70,"Duration":88235,"SoundDuration":88235,"Delta":184468987},{"NoteNumber":63,"Velocity":44,"Duration":118081,"SoundDuration":118081,"Delta":184527724},{"NoteNumber":90,"Velocity":69,"Duration":88583,"SoundDuration":88583,"Delta":184557222},{"NoteNumber":88,"Velocity":68,"Duration":87805,"SoundDuration":87805,"Delta":184645806},{"NoteNumber":69,"Velocity":46,"Duration":117303,"SoundDuration":117303,"Delta":184645806},{"NoteNumber":87,"Velocity":67,"Duration":88757,"SoundDuration":88757,"Delta":184733611},{"NoteNumber":63,"Velocity":44,"Duration":118431,"SoundDuration":118431,"Delta":184763109},{"NoteNumber":90,"Velocity":66,"Duration":88583,"SoundDuration":88583,"Delta":184822369},{"NoteNumber":61,"Velocity":41,"Duration":117046,"SoundDuration":117046,"Delta":184881541},{"NoteNumber":85,"Velocity":67,"Duration":87634,"SoundDuration":87634,"Delta":184910952},{"NoteNumber":84,"Velocity":68,"Duration":88153,"SoundDuration":88153,"Delta":184998587},{"NoteNumber":44,"Velocity":33,"Duration":117915,"SoundDuration":117915,"Delta":184998587},{"NoteNumber":87,"Velocity":63,"Duration":88413,"SoundDuration":88413,"Delta":185086741},{"NoteNumber":51,"Velocity":35,"Duration":117045,"SoundDuration":117045,"Delta":185116502},{"NoteNumber":81,"Velocity":63,"Duration":87806,"SoundDuration":87806,"Delta":185175154},{"NoteNumber":54,"Velocity":38,"Duration":117995,"SoundDuration":117995,"Delta":185233548},{"NoteNumber":80,"Velocity":63,"Duration":88583,"SoundDuration":88583,"Delta":185262960},{"NoteNumber":78,"Velocity":60,"Duration":88670,"SoundDuration":88670,"Delta":185351543},{"NoteNumber":60,"Velocity":39,"Duration":118081,"SoundDuration":118081,"Delta":185351543},{"NoteNumber":81,"Velocity":58,"Duration":88062,"SoundDuration":88062,"Delta":185440214},{"NoteNumber":54,"Velocity":36,"Duration":117474,"SoundDuration":117474,"Delta":185469625},{"NoteNumber":76,"Velocity":54,"Duration":88322,"SoundDuration":88322,"Delta":185528276},{"NoteNumber":51,"Velocity":34,"Duration":117820,"SoundDuration":117820,"Delta":185587100},{"NoteNumber":75,"Velocity":54,"Duration":88322,"SoundDuration":88322,"Delta":185616598},{"NoteNumber":78,"Velocity":53,"Duration":88375,"SoundDuration":88375,"Delta":185704920},{"NoteNumber":44,"Velocity":29,"Duration":117923,"SoundDuration":117923,"Delta":185704920},{"NoteNumber":73,"Velocity":48,"Duration":88731,"SoundDuration":88731,"Delta":185793296},{"NoteNumber":51,"Velocity":31,"Duration":118457,"SoundDuration":118457,"Delta":185822843},{"NoteNumber":72,"Velocity":48,"Duration":89001,"SoundDuration":89001,"Delta":185882027},{"NoteNumber":54,"Velocity":33,"Duration":119278,"SoundDuration":119278,"Delta":185941301},{"NoteNumber":75,"Velocity":47,"Duration":89549,"SoundDuration":89549,"Delta":185971029},{"NoteNumber":69,"Velocity":45,"Duration":91226,"SoundDuration":91226,"Delta":186060579},{"NoteNumber":60,"Velocity":33,"Duration":122082,"SoundDuration":122082,"Delta":186060579},{"NoteNumber":68,"Velocity":42,"Duration":93162,"SoundDuration":93162,"Delta":186151805},{"NoteNumber":54,"Velocity":29,"Duration":125623,"SoundDuration":125623,"Delta":186182662},{"NoteNumber":71,"Velocity":42,"Duration":95079,"SoundDuration":95079,"Delta":186244967},{"NoteNumber":51,"Velocity":26,"Duration":146073,"SoundDuration":146073,"Delta":186308285},{"NoteNumber":69,"Velocity":41,"Duration":203037,"SoundDuration":203037,"Delta":186340047},{"NoteNumber":49,"Velocity":22,"Duration":118137,"SoundDuration":118137,"Delta":186454359},{"NoteNumber":68,"Velocity":37,"Duration":88063,"SoundDuration":88063,"Delta":186543084},{"NoteNumber":56,"Velocity":25,"Duration":117217,"SoundDuration":117217,"Delta":186572496},{"NoteNumber":69,"Velocity":41,"Duration":88239,"SoundDuration":88239,"Delta":186631148},{"NoteNumber":61,"Velocity":28,"Duration":118782,"SoundDuration":118782,"Delta":186689714},{"NoteNumber":68,"Velocity":38,"Duration":89109,"SoundDuration":89109,"Delta":186719388},{"NoteNumber":67,"Velocity":39,"Duration":88321,"SoundDuration":88321,"Delta":186808497},{"NoteNumber":64,"Velocity":30,"Duration":117733,"SoundDuration":117733,"Delta":186808497},{"NoteNumber":68,"Velocity":40,"Duration":88235,"SoundDuration":88235,"Delta":186896819},{"NoteNumber":61,"Velocity":28,"Duration":117820,"SoundDuration":117820,"Delta":186926230},{"NoteNumber":73,"Velocity":42,"Duration":88582,"SoundDuration":88582,"Delta":186985054},{"NoteNumber":56,"Velocity":27,"Duration":118783,"SoundDuration":118783,"Delta":187044051},{"NoteNumber":76,"Velocity":43,"Duration":89197,"SoundDuration":89197,"Delta":187073637},{"NoteNumber":75,"Velocity":45,"Duration":88757,"SoundDuration":88757,"Delta":187162834},{"NoteNumber":52,"Velocity":26,"Duration":118256,"SoundDuration":118256,"Delta":187162834},{"NoteNumber":73,"Velocity":43,"Duration":88063,"SoundDuration":88063,"Delta":187251592},{"NoteNumber":56,"Velocity":28,"Duration":117216,"SoundDuration":117216,"Delta":187281091},{"NoteNumber":75,"Velocity":45,"Duration":88062,"SoundDuration":88062,"Delta":187339656},{"NoteNumber":61,"Velocity":30,"Duration":118170,"SoundDuration":118170,"Delta":187398307},{"NoteNumber":73,"Velocity":43,"Duration":88758,"SoundDuration":88758,"Delta":187427719},{"NoteNumber":72,"Velocity":44,"Duration":88496,"SoundDuration":88496,"Delta":187516477},{"NoteNumber":64,"Velocity":31,"Duration":117821,"SoundDuration":117821,"Delta":187516477},{"NoteNumber":73,"Velocity":46,"Duration":88497,"SoundDuration":88497,"Delta":187604974},{"NoteNumber":61,"Velocity":28,"Duration":118343,"SoundDuration":118343,"Delta":187634299},{"NoteNumber":76,"Velocity":49,"Duration":88757,"SoundDuration":88757,"Delta":187693471},{"NoteNumber":56,"Velocity":27,"Duration":136044,"SoundDuration":136044,"Delta":187752642},{"NoteNumber":80,"Velocity":47,"Duration":106458,"SoundDuration":106458,"Delta":187782228},{"NoteNumber":49,"Velocity":27,"Duration":130636,"SoundDuration":130636,"Delta":187888687},{"NoteNumber":68,"Velocity":45,"Duration":89075,"SoundDuration":89075,"Delta":187989595},{"NoteNumber":56,"Velocity":30,"Duration":118431,"SoundDuration":118431,"Delta":188019323},{"NoteNumber":70,"Velocity":49,"Duration":88409,"SoundDuration":88409,"Delta":188078670},{"NoteNumber":58,"Velocity":34,"Duration":117388,"SoundDuration":117388,"Delta":188137755},{"NoteNumber":68,"Velocity":45,"Duration":88062,"SoundDuration":88062,"Delta":188167080},{"NoteNumber":67,"Velocity":46,"Duration":89200,"SoundDuration":89200,"Delta":188255143},{"NoteNumber":64,"Velocity":36,"Duration":118873,"SoundDuration":118873,"Delta":188255143},{"NoteNumber":68,"Velocity":48,"Duration":88845,"SoundDuration":88845,"Delta":188344343},{"NoteNumber":58,"Velocity":34,"Duration":118168,"SoundDuration":118168,"Delta":188374017},{"NoteNumber":73,"Velocity":50,"Duration":88408,"SoundDuration":88408,"Delta":188433188},{"NoteNumber":56,"Velocity":33,"Duration":117733,"SoundDuration":117733,"Delta":188492185},{"NoteNumber":76,"Velocity":51,"Duration":88321,"SoundDuration":88321,"Delta":188521597},{"NoteNumber":75,"Velocity":54,"Duration":89022,"SoundDuration":89022,"Delta":188609919},{"NoteNumber":52,"Velocity":31,"Duration":118873,"SoundDuration":118873,"Delta":188609919},{"NoteNumber":73,"Velocity":51,"Duration":89110,"SoundDuration":89110,"Delta":188698941},{"NoteNumber":56,"Velocity":33,"Duration":118169,"SoundDuration":118169,"Delta":188728792},{"NoteNumber":75,"Velocity":53,"Duration":88235,"SoundDuration":88235,"Delta":188788052},{"NoteNumber":58,"Velocity":36,"Duration":118083,"SoundDuration":118083,"Delta":188846962},{"NoteNumber":73,"Velocity":51,"Duration":88757,"SoundDuration":88757,"Delta":188876287},{"NoteNumber":72,"Velocity":52,"Duration":89020,"SoundDuration":89020,"Delta":188965045},{"NoteNumber":61,"Velocity":37,"Duration":118694,"SoundDuration":118694,"Delta":188965045},{"NoteNumber":73,"Velocity":54,"Duration":88757,"SoundDuration":88757,"Delta":189054066},{"NoteNumber":58,"Velocity":34,"Duration":118081,"SoundDuration":118081,"Delta":189083740},{"NoteNumber":76,"Velocity":57,"Duration":88495,"SoundDuration":88495,"Delta":189142824},{"NoteNumber":56,"Velocity":32,"Duration":135956,"SoundDuration":135956,"Delta":189201821},{"NoteNumber":80,"Velocity":55,"Duration":106458,"SoundDuration":106458,"Delta":189231319},{"NoteNumber":75,"Velocity":64,"Duration":100583,"SoundDuration":100583,"Delta":189337778},{"NoteNumber":51,"Velocity":30,"Duration":130773,"SoundDuration":130773,"Delta":189337778},{"NoteNumber":76,"Velocity":58,"Duration":90476,"SoundDuration":90476,"Delta":189438361},{"NoteNumber":56,"Velocity":34,"Duration":120292,"SoundDuration":120292,"Delta":189468551},{"NoteNumber":75,"Velocity":61,"Duration":89917,"SoundDuration":89917,"Delta":189528837},{"NoteNumber":59,"Velocity":37,"Duration":119369,"SoundDuration":119369,"Delta":189588843},{"NoteNumber":74,"Velocity":50,"Duration":89458,"SoundDuration":89458,"Delta":189618755},{"NoteNumber":75,"Velocity":56,"Duration":89641,"SoundDuration":89641,"Delta":189708213},{"NoteNumber":63,"Velocity":39,"Duration":119460,"SoundDuration":119460,"Delta":189708213},{"NoteNumber":83,"Velocity":68,"Duration":89365,"SoundDuration":89365,"Delta":189797855},{"NoteNumber":59,"Velocity":38,"Duration":119003,"SoundDuration":119003,"Delta":189827674},{"NoteNumber":82,"Velocity":62,"Duration":89093,"SoundDuration":89093,"Delta":189887221},{"NoteNumber":56,"Velocity":35,"Duration":117753,"SoundDuration":117753,"Delta":189946677},{"NoteNumber":80,"Velocity":65,"Duration":88116,"SoundDuration":88116,"Delta":189976314},{"NoteNumber":79,"Velocity":68,"Duration":87209,"SoundDuration":87209,"Delta":190064430},{"NoteNumber":51,"Velocity":38,"Duration":116363,"SoundDuration":116363,"Delta":190064430},{"NoteNumber":88,"Velocity":72,"Duration":87634,"SoundDuration":87634,"Delta":190151640},{"NoteNumber":58,"Velocity":41,"Duration":117651,"SoundDuration":117651,"Delta":190180794},{"NoteNumber":87,"Velocity":69,"Duration":88757,"SoundDuration":88757,"Delta":190239274},{"NoteNumber":61,"Velocity":45,"Duration":117649,"SoundDuration":117649,"Delta":190298445},{"NoteNumber":85,"Velocity":69,"Duration":88063,"SoundDuration":88063,"Delta":190328031},{"NoteNumber":83,"Velocity":74,"Duration":87464,"SoundDuration":87464,"Delta":190416095},{"NoteNumber":67,"Velocity":46,"Duration":116789,"SoundDuration":116789,"Delta":190416095},{"NoteNumber":82,"Velocity":69,"Duration":88062,"SoundDuration":88062,"Delta":190503559},{"NoteNumber":61,"Velocity":44,"Duration":117560,"SoundDuration":117560,"Delta":190532884},{"NoteNumber":80,"Velocity":69,"Duration":88409,"SoundDuration":88409,"Delta":190591622},{"NoteNumber":58,"Velocity":41,"Duration":117478,"SoundDuration":117478,"Delta":190650445},{"NoteNumber":79,"Velocity":69,"Duration":87892,"SoundDuration":87892,"Delta":190680031},{"NoteNumber":82,"Velocity":72,"Duration":87891,"SoundDuration":87891,"Delta":190767924},{"NoteNumber":44,"Velocity":33,"Duration":117302,"SoundDuration":117302,"Delta":190767924},{"NoteNumber":80,"Velocity":70,"Duration":88235,"SoundDuration":88235,"Delta":190855815},{"NoteNumber":51,"Velocity":35,"Duration":117303,"SoundDuration":117303,"Delta":190885227},{"NoteNumber":83,"Velocity":64,"Duration":87634,"SoundDuration":87634,"Delta":190944050},{"NoteNumber":56,"Velocity":37,"Duration":116533,"SoundDuration":116533,"Delta":191002530},{"NoteNumber":74,"Velocity":57,"Duration":87378,"SoundDuration":87378,"Delta":191031684},{"NoteNumber":76,"Velocity":65,"Duration":87892,"SoundDuration":87892,"Delta":191119063},{"NoteNumber":59,"Velocity":39,"Duration":117478,"SoundDuration":117478,"Delta":191119063},{"NoteNumber":75,"Velocity":57,"Duration":88670,"SoundDuration":88670,"Delta":191206956},{"NoteNumber":56,"Velocity":39,"Duration":117994,"SoundDuration":117994,"Delta":191236542},{"NoteNumber":80,"Velocity":63,"Duration":88321,"SoundDuration":88321,"Delta":191295626},{"NoteNumber":51,"Velocity":37,"Duration":117647,"SoundDuration":117647,"Delta":191354536},{"NoteNumber":70,"Velocity":57,"Duration":88235,"SoundDuration":88235,"Delta":191383948},{"NoteNumber":73,"Velocity":61,"Duration":88375,"SoundDuration":88375,"Delta":191472183},{"NoteNumber":44,"Velocity":33,"Duration":117923,"SoundDuration":117923,"Delta":191472183},{"NoteNumber":71,"Velocity":59,"Duration":88731,"SoundDuration":88731,"Delta":191560559},{"NoteNumber":51,"Velocity":35,"Duration":118457,"SoundDuration":118457,"Delta":191590106},{"NoteNumber":75,"Velocity":58,"Duration":89001,"SoundDuration":89001,"Delta":191649290},{"NoteNumber":56,"Velocity":38,"Duration":119278,"SoundDuration":119278,"Delta":191708564},{"NoteNumber":67,"Velocity":56,"Duration":89549,"SoundDuration":89549,"Delta":191738292},{"NoteNumber":70,"Velocity":60,"Duration":91656,"SoundDuration":91656,"Delta":191827842},{"NoteNumber":59,"Velocity":39,"Duration":122760,"SoundDuration":122760,"Delta":191827842},{"NoteNumber":68,"Velocity":51,"Duration":94073,"SoundDuration":94073,"Delta":191919499},{"NoteNumber":56,"Velocity":35,"Duration":127112,"SoundDuration":127112,"Delta":191950603},{"NoteNumber":67,"Velocity":55,"Duration":96926,"SoundDuration":96926,"Delta":192013572},{"NoteNumber":51,"Velocity":33,"Duration":134374,"SoundDuration":134374,"Delta":192077716},{"NoteNumber":68,"Velocity":50,"Duration":101591,"SoundDuration":101591,"Delta":192110498},{"NoteNumber":68,"Velocity":72,"Duration":105017,"SoundDuration":105017,"Delta":192212090},{"NoteNumber":45,"Velocity":39,"Duration":139669,"SoundDuration":139669,"Delta":192212090},{"NoteNumber":80,"Velocity":58,"Duration":103842,"SoundDuration":103842,"Delta":192317107},{"NoteNumber":49,"Velocity":41,"Duration":138036,"SoundDuration":138036,"Delta":192351760},{"NoteNumber":72,"Velocity":59,"Duration":103154,"SoundDuration":103154,"Delta":192420950},{"NoteNumber":54,"Velocity":43,"Duration":136773,"SoundDuration":136773,"Delta":192489796},{"NoteNumber":73,"Velocity":59,"Duration":102466,"SoundDuration":102466,"Delta":192524104},{"NoteNumber":66,"Velocity":71,"Duration":101683,"SoundDuration":101683,"Delta":192626570},{"NoteNumber":57,"Velocity":45,"Duration":135540,"SoundDuration":135540,"Delta":192626570},{"NoteNumber":78,"Velocity":60,"Duration":101228,"SoundDuration":101228,"Delta":192728254},{"NoteNumber":54,"Velocity":44,"Duration":134743,"SoundDuration":134743,"Delta":192762111},{"NoteNumber":72,"Velocity":60,"Duration":101057,"SoundDuration":101057,"Delta":192829483},{"NoteNumber":49,"Velocity":42,"Duration":134637,"SoundDuration":134637,"Delta":192896855},{"NoteNumber":73,"Velocity":61,"Duration":100951,"SoundDuration":100951,"Delta":192930541},{"NoteNumber":65,"Velocity":75,"Duration":100738,"SoundDuration":100738,"Delta":193031492},{"NoteNumber":45,"Velocity":42,"Duration":134318,"SoundDuration":134318,"Delta":193031492},{"NoteNumber":77,"Velocity":62,"Duration":100845,"SoundDuration":100845,"Delta":193132231},{"NoteNumber":49,"Velocity":44,"Duration":134637,"SoundDuration":134637,"Delta":193165810},{"NoteNumber":72,"Velocity":63,"Duration":101057,"SoundDuration":101057,"Delta":193233076},{"NoteNumber":54,"Velocity":45,"Duration":134962,"SoundDuration":134962,"Delta":193300448},{"NoteNumber":73,"Velocity":63,"Duration":101276,"SoundDuration":101276,"Delta":193334134},{"NoteNumber":66,"Velocity":74,"Duration":101385,"SoundDuration":101385,"Delta":193435410},{"NoteNumber":57,"Velocity":45,"Duration":135290,"SoundDuration":135290,"Delta":193435410},{"NoteNumber":78,"Velocity":65,"Duration":102039,"SoundDuration":102039,"Delta":193536795},{"NoteNumber":54,"Velocity":45,"Duration":136823,"SoundDuration":136823,"Delta":193570701},{"NoteNumber":72,"Velocity":64,"Duration":103260,"SoundDuration":103260,"Delta":193638835},{"NoteNumber":49,"Velocity":44,"Duration":139075,"SoundDuration":139075,"Delta":193707524},{"NoteNumber":73,"Velocity":64,"Duration":104504,"SoundDuration":104504,"Delta":193742095},{"NoteNumber":61,"Velocity":77,"Duration":103374,"SoundDuration":103374,"Delta":193846599},{"NoteNumber":51,"Velocity":44,"Duration":137169,"SoundDuration":137169,"Delta":193846599},{"NoteNumber":73,"Velocity":65,"Duration":101064,"SoundDuration":101064,"Delta":193949973},{"NoteNumber":54,"Velocity":46,"Duration":134640,"SoundDuration":134640,"Delta":193983769},{"NoteNumber":66,"Velocity":65,"Duration":101057,"SoundDuration":101057,"Delta":194051038},{"NoteNumber":57,"Velocity":48,"Duration":134743,"SoundDuration":134743,"Delta":194118410},{"NoteNumber":69,"Velocity":65,"Duration":101057,"SoundDuration":101057,"Delta":194152095},{"NoteNumber":63,"Velocity":75,"Duration":101057,"SoundDuration":101057,"Delta":194253153},{"NoteNumber":59,"Velocity":49,"Duration":134743,"SoundDuration":134743,"Delta":194253153},{"NoteNumber":75,"Velocity":65,"Duration":101057,"SoundDuration":101057,"Delta":194354211},{"NoteNumber":57,"Velocity":47,"Duration":134743,"SoundDuration":134743,"Delta":194387897},{"NoteNumber":66,"Velocity":65,"Duration":100951,"SoundDuration":100951,"Delta":194455269},{"NoteNumber":54,"Velocity":45,"Duration":134318,"SoundDuration":134318,"Delta":194522641},{"NoteNumber":69,"Velocity":65,"Duration":100738,"SoundDuration":100738,"Delta":194556220},{"NoteNumber":64,"Velocity":79,"Duration":100951,"SoundDuration":100951,"Delta":194656959},{"NoteNumber":40,"Velocity":45,"Duration":134637,"SoundDuration":134637,"Delta":194656959},{"NoteNumber":76,"Velocity":66,"Duration":101167,"SoundDuration":101167,"Delta":194757910},{"NoteNumber":47,"Velocity":46,"Duration":135071,"SoundDuration":135071,"Delta":194791596},{"NoteNumber":68,"Velocity":66,"Duration":101385,"SoundDuration":101385,"Delta":194859077},{"NoteNumber":52,"Velocity":48,"Duration":135510,"SoundDuration":135510,"Delta":194926668},{"NoteNumber":71,"Velocity":66,"Duration":101715,"SoundDuration":101715,"Delta":194960463},{"NoteNumber":68,"Velocity":77,"Duration":101927,"SoundDuration":101927,"Delta":195062178},{"NoteNumber":56,"Velocity":47,"Duration":136050,"SoundDuration":136050,"Delta":195062178},{"NoteNumber":80,"Velocity":67,"Duration":102698,"SoundDuration":102698,"Delta":195164106},{"NoteNumber":52,"Velocity":46,"Duration":137603,"SoundDuration":137603,"Delta":195198229},{"NoteNumber":71,"Velocity":66,"Duration":103708,"SoundDuration":103708,"Delta":195266804},{"NoteNumber":47,"Velocity":45,"Duration":138724,"SoundDuration":138724,"Delta":195335832},{"NoteNumber":76,"Velocity":65,"Duration":104043,"SoundDuration":104043,"Delta":195370513},{"NoteNumber":68,"Velocity":81,"Duration":101715,"SoundDuration":101715,"Delta":195474557},{"NoteNumber":45,"Velocity":44,"Duration":135620,"SoundDuration":135620,"Delta":195474557},{"NoteNumber":80,"Velocity":65,"Duration":101715,"SoundDuration":101715,"Delta":195576272},{"NoteNumber":49,"Velocity":46,"Duration":135620,"SoundDuration":135620,"Delta":195610178},{"NoteNumber":72,"Velocity":65,"Duration":101605,"SoundDuration":101605,"Delta":195677988},{"NoteNumber":54,"Velocity":48,"Duration":135180,"SoundDuration":135180,"Delta":195745798},{"NoteNumber":73,"Velocity":65,"Duration":101385,"SoundDuration":101385,"Delta":195779593},{"NoteNumber":66,"Velocity":78,"Duration":101385,"SoundDuration":101385,"Delta":195880979},{"NoteNumber":57,"Velocity":49,"Duration":135180,"SoundDuration":135180,"Delta":195880979},{"NoteNumber":78,"Velocity":65,"Duration":101166,"SoundDuration":101166,"Delta":195982364},{"NoteNumber":54,"Velocity":47,"Duration":134743,"SoundDuration":134743,"Delta":196016160},{"NoteNumber":72,"Velocity":65,"Duration":101057,"SoundDuration":101057,"Delta":196083531},{"NoteNumber":49,"Velocity":45,"Duration":134637,"SoundDuration":134637,"Delta":196150903},{"NoteNumber":73,"Velocity":65,"Duration":100951,"SoundDuration":100951,"Delta":196184589},{"NoteNumber":65,"Velocity":79,"Duration":100738,"SoundDuration":100738,"Delta":196285541},{"NoteNumber":45,"Velocity":45,"Duration":134318,"SoundDuration":134318,"Delta":196285541},{"NoteNumber":77,"Velocity":66,"Duration":100845,"SoundDuration":100845,"Delta":196386279},{"NoteNumber":49,"Velocity":46,"Duration":134637,"SoundDuration":134637,"Delta":196419859},{"NoteNumber":72,"Velocity":66,"Duration":101057,"SoundDuration":101057,"Delta":196487124},{"NoteNumber":54,"Velocity":48,"Duration":134962,"SoundDuration":134962,"Delta":196554496},{"NoteNumber":73,"Velocity":66,"Duration":101276,"SoundDuration":101276,"Delta":196588182},{"NoteNumber":66,"Velocity":77,"Duration":101385,"SoundDuration":101385,"Delta":196689458},{"NoteNumber":57,"Velocity":47,"Duration":135290,"SoundDuration":135290,"Delta":196689458},{"NoteNumber":78,"Velocity":67,"Duration":102039,"SoundDuration":102039,"Delta":196790844},{"NoteNumber":54,"Velocity":46,"Duration":136823,"SoundDuration":136823,"Delta":196824749},{"NoteNumber":72,"Velocity":66,"Duration":103260,"SoundDuration":103260,"Delta":196892883},{"NoteNumber":49,"Velocity":45,"Duration":139075,"SoundDuration":139075,"Delta":196961572},{"NoteNumber":73,"Velocity":65,"Duration":104504,"SoundDuration":104504,"Delta":196996143},{"NoteNumber":65,"Velocity":81,"Duration":103028,"SoundDuration":103028,"Delta":197100648},{"NoteNumber":47,"Velocity":44,"Duration":137371,"SoundDuration":137371,"Delta":197100648},{"NoteNumber":77,"Velocity":65,"Duration":103029,"SoundDuration":103029,"Delta":197203677},{"NoteNumber":51,"Velocity":46,"Duration":137371,"SoundDuration":137371,"Delta":197238020},{"NoteNumber":71,"Velocity":65,"Duration":102918,"SoundDuration":102918,"Delta":197306706},{"NoteNumber":57,"Velocity":48,"Duration":137606,"SoundDuration":137606,"Delta":197375392},{"NoteNumber":75,"Velocity":65,"Duration":103373,"SoundDuration":103373,"Delta":197409624},{"NoteNumber":66,"Velocity":78,"Duration":105548,"SoundDuration":105548,"Delta":197512998},{"NoteNumber":59,"Velocity":49,"Duration":141045,"SoundDuration":141045,"Delta":197512998},{"NoteNumber":78,"Velocity":65,"Duration":107091,"SoundDuration":107091,"Delta":197618547},{"NoteNumber":57,"Velocity":47,"Duration":144296,"SoundDuration":144296,"Delta":197654043},{"NoteNumber":71,"Velocity":65,"Duration":109945,"SoundDuration":109945,"Delta":197725638},{"NoteNumber":51,"Velocity":45,"Duration":152668,"SoundDuration":152668,"Delta":197798340},{"NoteNumber":75,"Velocity":65,"Duration":115424,"SoundDuration":115424,"Delta":197835584},{"NoteNumber":69,"Velocity":79,"Duration":105201,"SoundDuration":105201,"Delta":197951009},{"NoteNumber":40,"Velocity":45,"Duration":140460,"SoundDuration":140460,"Delta":197951009},{"NoteNumber":81,"Velocity":66,"Duration":105892,"SoundDuration":105892,"Delta":198056211},{"NoteNumber":47,"Velocity":46,"Duration":141626,"SoundDuration":141626,"Delta":198091469},{"NoteNumber":71,"Velocity":66,"Duration":106610,"SoundDuration":106610,"Delta":198162103},{"NoteNumber":52,"Velocity":48,"Duration":142949,"SoundDuration":142949,"Delta":198233096},{"NoteNumber":76,"Velocity":66,"Duration":107332,"SoundDuration":107332,"Delta":198268713},{"NoteNumber":68,"Velocity":77,"Duration":107936,"SoundDuration":107936,"Delta":198376046},{"NoteNumber":56,"Velocity":47,"Duration":144038,"SoundDuration":144038,"Delta":198376046},{"NoteNumber":80,"Velocity":67,"Duration":108428,"SoundDuration":108428,"Delta":198483983},{"NoteNumber":52,"Velocity":46,"Duration":144781,"SoundDuration":144781,"Delta":198520084},{"NoteNumber":71,"Velocity":66,"Duration":108803,"SoundDuration":108803,"Delta":198592411},{"NoteNumber":47,"Velocity":45,"Duration":144915,"SoundDuration":144915,"Delta":198664865},{"NoteNumber":76,"Velocity":65,"Duration":108565,"SoundDuration":108565,"Delta":198701215},{"NoteNumber":68,"Velocity":52,"Duration":101715,"SoundDuration":101715,"Delta":198809781},{"NoteNumber":45,"Velocity":30,"Duration":135620,"SoundDuration":135620,"Delta":198809781},{"NoteNumber":80,"Velocity":57,"Duration":101715,"SoundDuration":101715,"Delta":198911496},{"NoteNumber":49,"Velocity":33,"Duration":135620,"SoundDuration":135620,"Delta":198945401},{"NoteNumber":72,"Velocity":47,"Duration":101605,"SoundDuration":101605,"Delta":199013212},{"NoteNumber":54,"Velocity":34,"Duration":135180,"SoundDuration":135180,"Delta":199081022},{"NoteNumber":73,"Velocity":47,"Duration":101385,"SoundDuration":101385,"Delta":199114817},{"NoteNumber":66,"Velocity":49,"Duration":101385,"SoundDuration":101385,"Delta":199216203},{"NoteNumber":57,"Velocity":35,"Duration":135180,"SoundDuration":135180,"Delta":199216203},{"NoteNumber":78,"Velocity":54,"Duration":101166,"SoundDuration":101166,"Delta":199317588},{"NoteNumber":54,"Velocity":34,"Duration":134743,"SoundDuration":134743,"Delta":199351383},{"NoteNumber":72,"Velocity":48,"Duration":101057,"SoundDuration":101057,"Delta":199418755},{"NoteNumber":49,"Velocity":34,"Duration":134637,"SoundDuration":134637,"Delta":199486127},{"NoteNumber":73,"Velocity":48,"Duration":100951,"SoundDuration":100951,"Delta":199519813},{"NoteNumber":65,"Velocity":51,"Duration":100738,"SoundDuration":100738,"Delta":199620764},{"NoteNumber":45,"Velocity":34,"Duration":134318,"SoundDuration":134318,"Delta":199620764},{"NoteNumber":77,"Velocity":56,"Duration":100845,"SoundDuration":100845,"Delta":199721503},{"NoteNumber":49,"Velocity":34,"Duration":134637,"SoundDuration":134637,"Delta":199755083},{"NoteNumber":72,"Velocity":50,"Duration":101057,"SoundDuration":101057,"Delta":199822348},{"NoteNumber":54,"Velocity":36,"Duration":134962,"SoundDuration":134962,"Delta":199889720},{"NoteNumber":73,"Velocity":50,"Duration":101276,"SoundDuration":101276,"Delta":199923406},{"NoteNumber":66,"Velocity":53,"Duration":101385,"SoundDuration":101385,"Delta":200024682},{"NoteNumber":57,"Velocity":36,"Duration":135290,"SoundDuration":135290,"Delta":200024682},{"NoteNumber":78,"Velocity":58,"Duration":102039,"SoundDuration":102039,"Delta":200126068},{"NoteNumber":54,"Velocity":35,"Duration":136823,"SoundDuration":136823,"Delta":200159973},{"NoteNumber":72,"Velocity":51,"Duration":103260,"SoundDuration":103260,"Delta":200228107},{"NoteNumber":49,"Velocity":34,"Duration":139075,"SoundDuration":139075,"Delta":200296796},{"NoteNumber":73,"Velocity":51,"Duration":104504,"SoundDuration":104504,"Delta":200331367},{"NoteNumber":61,"Velocity":55,"Duration":103374,"SoundDuration":103374,"Delta":200435872},{"NoteNumber":47,"Velocity":34,"Duration":137169,"SoundDuration":137169,"Delta":200435872},{"NoteNumber":73,"Velocity":60,"Duration":101064,"SoundDuration":101064,"Delta":200539246},{"NoteNumber":54,"Velocity":37,"Duration":134640,"SoundDuration":134640,"Delta":200573041},{"NoteNumber":66,"Velocity":52,"Duration":101057,"SoundDuration":101057,"Delta":200640310},{"NoteNumber":57,"Velocity":38,"Duration":134743,"SoundDuration":134743,"Delta":200707682},{"NoteNumber":69,"Velocity":53,"Duration":101057,"SoundDuration":101057,"Delta":200741368},{"NoteNumber":63,"Velocity":55,"Duration":101057,"SoundDuration":101057,"Delta":200842425},{"NoteNumber":59,"Velocity":39,"Duration":134743,"SoundDuration":134743,"Delta":200842425},{"NoteNumber":75,"Velocity":62,"Duration":101057,"SoundDuration":101057,"Delta":200943483},{"NoteNumber":57,"Velocity":38,"Duration":134743,"SoundDuration":134743,"Delta":200977169},{"NoteNumber":66,"Velocity":54,"Duration":100951,"SoundDuration":100951,"Delta":201044541},{"NoteNumber":54,"Velocity":38,"Duration":134318,"SoundDuration":134318,"Delta":201111913},{"NoteNumber":69,"Velocity":54,"Duration":100738,"SoundDuration":100738,"Delta":201145492},{"NoteNumber":64,"Velocity":57,"Duration":100951,"SoundDuration":100951,"Delta":201246231},{"NoteNumber":40,"Velocity":37,"Duration":134637,"SoundDuration":134637,"Delta":201246231},{"NoteNumber":76,"Velocity":65,"Duration":101167,"SoundDuration":101167,"Delta":201347182},{"NoteNumber":47,"Velocity":39,"Duration":135071,"SoundDuration":135071,"Delta":201380868},{"NoteNumber":68,"Velocity":56,"Duration":101385,"SoundDuration":101385,"Delta":201448349},{"NoteNumber":52,"Velocity":40,"Duration":135510,"SoundDuration":135510,"Delta":201515940},{"NoteNumber":71,"Velocity":56,"Duration":101715,"SoundDuration":101715,"Delta":201549735},{"NoteNumber":68,"Velocity":60,"Duration":101927,"SoundDuration":101927,"Delta":201651450},{"NoteNumber":56,"Velocity":40,"Duration":136050,"SoundDuration":136050,"Delta":201651450},{"NoteNumber":80,"Velocity":68,"Duration":102698,"SoundDuration":102698,"Delta":201753378},{"NoteNumber":52,"Velocity":40,"Duration":137603,"SoundDuration":137603,"Delta":201787501},{"NoteNumber":71,"Velocity":57,"Duration":103708,"SoundDuration":103708,"Delta":201856076},{"NoteNumber":47,"Velocity":39,"Duration":137827,"SoundDuration":137827,"Delta":201925104},{"NoteNumber":76,"Velocity":58,"Duration":103146,"SoundDuration":103146,"Delta":201959785},{"NoteNumber":68,"Velocity":62,"Duration":102587,"SoundDuration":102587,"Delta":202062931},{"NoteNumber":45,"Velocity":39,"Duration":136710,"SoundDuration":136710,"Delta":202062931},{"NoteNumber":80,"Velocity":68,"Duration":102256,"SoundDuration":102256,"Delta":202165519},{"NoteNumber":49,"Velocity":42,"Duration":136156,"SoundDuration":136156,"Delta":202199642},{"NoteNumber":72,"Velocity":59,"Duration":101927,"SoundDuration":101927,"Delta":202267776},{"NoteNumber":54,"Velocity":43,"Duration":135620,"SoundDuration":135620,"Delta":202335798},{"NoteNumber":73,"Velocity":59,"Duration":101715,"SoundDuration":101715,"Delta":202369704},{"NoteNumber":66,"Velocity":62,"Duration":101385,"SoundDuration":101385,"Delta":202471419},{"NoteNumber":57,"Velocity":45,"Duration":135071,"SoundDuration":135071,"Delta":202471419},{"NoteNumber":78,"Velocity":70,"Duration":101057,"SoundDuration":101057,"Delta":202572805},{"NoteNumber":54,"Velocity":43,"Duration":134531,"SoundDuration":134531,"Delta":202606491},{"NoteNumber":72,"Velocity":61,"Duration":100738,"SoundDuration":100738,"Delta":202673862},{"NoteNumber":49,"Velocity":42,"Duration":134001,"SoundDuration":134001,"Delta":202741022},{"NoteNumber":73,"Velocity":61,"Duration":100421,"SoundDuration":100421,"Delta":202774601},{"NoteNumber":75,"Velocity":64,"Duration":100845,"SoundDuration":100845,"Delta":202875023},{"NoteNumber":45,"Velocity":42,"Duration":134531,"SoundDuration":134531,"Delta":202875023},{"NoteNumber":87,"Velocity":73,"Duration":101167,"SoundDuration":101167,"Delta":202975869},{"NoteNumber":51,"Velocity":44,"Duration":135071,"SoundDuration":135071,"Delta":203009555},{"NoteNumber":78,"Velocity":62,"Duration":101385,"SoundDuration":101385,"Delta":203077036},{"NoteNumber":54,"Velocity":45,"Duration":135510,"SoundDuration":135510,"Delta":203144626},{"NoteNumber":81,"Velocity":62,"Duration":101715,"SoundDuration":101715,"Delta":203178421},{"NoteNumber":73,"Velocity":66,"Duration":101927,"SoundDuration":101927,"Delta":203280137},{"NoteNumber":57,"Velocity":44,"Duration":136050,"SoundDuration":136050,"Delta":203280137},{"NoteNumber":85,"Velocity":74,"Duration":102698,"SoundDuration":102698,"Delta":203382064},{"NoteNumber":54,"Velocity":44,"Duration":137603,"SoundDuration":137603,"Delta":203416187},{"NoteNumber":78,"Velocity":62,"Duration":103708,"SoundDuration":103708,"Delta":203484763},{"NoteNumber":51,"Velocity":42,"Duration":138276,"SoundDuration":138276,"Delta":203553790},{"NoteNumber":81,"Velocity":62,"Duration":103594,"SoundDuration":103594,"Delta":203588471},{"NoteNumber":73,"Velocity":64,"Duration":102697,"SoundDuration":102697,"Delta":203692066},{"NoteNumber":44,"Velocity":42,"Duration":136820,"SoundDuration":136820,"Delta":203692066},{"NoteNumber":85,"Velocity":73,"Duration":102368,"SoundDuration":102368,"Delta":203794764},{"NoteNumber":51,"Velocity":44,"Duration":136379,"SoundDuration":136379,"Delta":203828887},{"NoteNumber":75,"Velocity":61,"Duration":102145,"SoundDuration":102145,"Delta":203897132},{"NoteNumber":54,"Velocity":45,"Duration":135939,"SoundDuration":135939,"Delta":203965266},{"NoteNumber":78,"Velocity":61,"Duration":101927,"SoundDuration":101927,"Delta":203999277},{"NoteNumber":72,"Velocity":64,"Duration":101605,"SoundDuration":101605,"Delta":204101205},{"NoteNumber":60,"Velocity":42,"Duration":135400,"SoundDuration":135400,"Delta":204101205},{"NoteNumber":84,"Velocity":71,"Duration":101385,"SoundDuration":101385,"Delta":204202811},{"NoteNumber":54,"Velocity":42,"Duration":134962,"SoundDuration":134962,"Delta":204236606},{"NoteNumber":75,"Velocity":60,"Duration":101057,"SoundDuration":101057,"Delta":204304196},{"NoteNumber":51,"Velocity":40,"Duration":134530,"SoundDuration":134530,"Delta":204371568},{"NoteNumber":78,"Velocity":59,"Duration":100845,"SoundDuration":100845,"Delta":204405254},{"NoteNumber":72,"Velocity":60,"Duration":100421,"SoundDuration":100421,"Delta":204506099},{"NoteNumber":44,"Velocity":39,"Duration":134001,"SoundDuration":134001,"Delta":204506099},{"NoteNumber":84,"Velocity":69,"Duration":100738,"SoundDuration":100738,"Delta":204606521},{"NoteNumber":51,"Velocity":41,"Duration":134531,"SoundDuration":134531,"Delta":204640100},{"NoteNumber":75,"Velocity":58,"Duration":101057,"SoundDuration":101057,"Delta":204707259},{"NoteNumber":54,"Velocity":42,"Duration":135071,"SoundDuration":135071,"Delta":204774631},{"NoteNumber":78,"Velocity":58,"Duration":101385,"SoundDuration":101385,"Delta":204808317},{"NoteNumber":72,"Velocity":61,"Duration":101715,"SoundDuration":101715,"Delta":204909703},{"NoteNumber":60,"Velocity":40,"Duration":135726,"SoundDuration":135726,"Delta":204909703},{"NoteNumber":84,"Velocity":68,"Duration":102034,"SoundDuration":102034,"Delta":205011418},{"NoteNumber":54,"Velocity":39,"Duration":136268,"SoundDuration":136268,"Delta":205045430},{"NoteNumber":75,"Velocity":57,"Duration":102368,"SoundDuration":102368,"Delta":205113452},{"NoteNumber":51,"Velocity":38,"Duration":136820,"SoundDuration":136820,"Delta":205181698},{"NoteNumber":78,"Velocity":56,"Duration":102697,"SoundDuration":102697,"Delta":205215820},{"NoteNumber":72,"Velocity":57,"Duration":102977,"SoundDuration":102977,"Delta":205318518},{"NoteNumber":45,"Velocity":38,"Duration":137099,"SoundDuration":137099,"Delta":205318518},{"NoteNumber":84,"Velocity":65,"Duration":102368,"SoundDuration":102368,"Delta":205421495},{"NoteNumber":51,"Velocity":39,"Duration":136379,"SoundDuration":136379,"Delta":205455618},{"NoteNumber":75,"Velocity":55,"Duration":102145,"SoundDuration":102145,"Delta":205523863},{"NoteNumber":54,"Velocity":40,"Duration":135939,"SoundDuration":135939,"Delta":205591997},{"NoteNumber":78,"Velocity":55,"Duration":101927,"SoundDuration":101927,"Delta":205626008},{"NoteNumber":71,"Velocity":58,"Duration":101605,"SoundDuration":101605,"Delta":205727936},{"NoteNumber":59,"Velocity":38,"Duration":135400,"SoundDuration":135400,"Delta":205727936},{"NoteNumber":83,"Velocity":64,"Duration":101385,"SoundDuration":101385,"Delta":205829542},{"NoteNumber":54,"Velocity":38,"Duration":134962,"SoundDuration":134962,"Delta":205863337},{"NoteNumber":75,"Velocity":53,"Duration":101057,"SoundDuration":101057,"Delta":205930927},{"NoteNumber":51,"Velocity":36,"Duration":134530,"SoundDuration":134530,"Delta":205998299},{"NoteNumber":78,"Velocity":53,"Duration":100845,"SoundDuration":100845,"Delta":206031985},{"NoteNumber":71,"Velocity":54,"Duration":100421,"SoundDuration":100421,"Delta":206132830},{"NoteNumber":46,"Velocity":35,"Duration":134001,"SoundDuration":134001,"Delta":206132830},{"NoteNumber":83,"Velocity":62,"Duration":100738,"SoundDuration":100738,"Delta":206233252},{"NoteNumber":51,"Velocity":37,"Duration":134531,"SoundDuration":134531,"Delta":206266831},{"NoteNumber":75,"Velocity":52,"Duration":101057,"SoundDuration":101057,"Delta":206333990},{"NoteNumber":54,"Velocity":38,"Duration":135071,"SoundDuration":135071,"Delta":206401362},{"NoteNumber":78,"Velocity":52,"Duration":101385,"SoundDuration":101385,"Delta":206435048},{"NoteNumber":70,"Velocity":54,"Duration":101715,"SoundDuration":101715,"Delta":206536434},{"NoteNumber":58,"Velocity":36,"Duration":135726,"SoundDuration":135726,"Delta":206536434},{"NoteNumber":82,"Velocity":60,"Duration":102034,"SoundDuration":102034,"Delta":206638149},{"NoteNumber":54,"Velocity":35,"Duration":136268,"SoundDuration":136268,"Delta":206672160},{"NoteNumber":75,"Velocity":50,"Duration":102368,"SoundDuration":102368,"Delta":206740183},{"NoteNumber":51,"Velocity":34,"Duration":136820,"SoundDuration":136820,"Delta":206808428},{"NoteNumber":78,"Velocity":50,"Duration":102697,"SoundDuration":102697,"Delta":206842551},{"NoteNumber":70,"Velocity":55,"Duration":103203,"SoundDuration":103203,"Delta":206945249},{"NoteNumber":48,"Velocity":34,"Duration":137326,"SoundDuration":137326,"Delta":206945249},{"NoteNumber":82,"Velocity":49,"Duration":102368,"SoundDuration":102368,"Delta":207053571},{"NoteNumber":51,"Velocity":34,"Duration":136379,"SoundDuration":136379,"Delta":207082575},{"NoteNumber":75,"Velocity":48,"Duration":102145,"SoundDuration":102145,"Delta":207150820},{"NoteNumber":54,"Velocity":35,"Duration":135939,"SoundDuration":135939,"Delta":207218954},{"NoteNumber":78,"Velocity":48,"Duration":101927,"SoundDuration":101927,"Delta":207252965},{"NoteNumber":69,"Velocity":53,"Duration":101605,"SoundDuration":101605,"Delta":207354893},{"NoteNumber":57,"Velocity":34,"Duration":135400,"SoundDuration":135400,"Delta":207354893},{"NoteNumber":81,"Velocity":48,"Duration":101369,"SoundDuration":101369,"Delta":207461568},{"NoteNumber":54,"Velocity":34,"Duration":134962,"SoundDuration":134962,"Delta":207490294},{"NoteNumber":75,"Velocity":47,"Duration":101057,"SoundDuration":101057,"Delta":207557884},{"NoteNumber":51,"Velocity":32,"Duration":134530,"SoundDuration":134530,"Delta":207625256},{"NoteNumber":78,"Velocity":47,"Duration":100845,"SoundDuration":100845,"Delta":207658942},{"NoteNumber":69,"Velocity":52,"Duration":100421,"SoundDuration":100421,"Delta":207759787},{"NoteNumber":48,"Velocity":31,"Duration":134001,"SoundDuration":134001,"Delta":207759787},{"NoteNumber":81,"Velocity":49,"Duration":100738,"SoundDuration":100738,"Delta":207860209},{"NoteNumber":51,"Velocity":33,"Duration":134531,"SoundDuration":134531,"Delta":207893788},{"NoteNumber":75,"Velocity":45,"Duration":101057,"SoundDuration":101057,"Delta":207960948},{"NoteNumber":54,"Velocity":33,"Duration":135023,"SoundDuration":135023,"Delta":208028319},{"NoteNumber":78,"Velocity":45,"Duration":101337,"SoundDuration":101337,"Delta":208062005},{"NoteNumber":69,"Velocity":51,"Duration":102245,"SoundDuration":102245,"Delta":208163343},{"NoteNumber":57,"Velocity":31,"Duration":136783,"SoundDuration":136783,"Delta":208163343},{"NoteNumber":81,"Velocity":47,"Duration":104077,"SoundDuration":104077,"Delta":208265589},{"NoteNumber":54,"Velocity":31,"Duration":140029,"SoundDuration":140029,"Delta":208300126},{"NoteNumber":75,"Velocity":44,"Duration":106100,"SoundDuration":106100,"Delta":208369666},{"NoteNumber":51,"Velocity":29,"Duration":143558,"SoundDuration":143558,"Delta":208440156},{"NoteNumber":78,"Velocity":44,"Duration":107948,"SoundDuration":107948,"Delta":208475766},{"NoteNumber":72,"Velocity":52,"Duration":108575,"SoundDuration":108575,"Delta":208583714},{"NoteNumber":45,"Velocity":28,"Duration":144681,"SoundDuration":144681,"Delta":208583714},{"NoteNumber":84,"Velocity":47,"Duration":108031,"SoundDuration":108031,"Delta":208697705},{"NoteNumber":51,"Velocity":29,"Duration":143673,"SoundDuration":143673,"Delta":208728396},{"NoteNumber":75,"Velocity":47,"Duration":107442,"SoundDuration":107442,"Delta":208800359},{"NoteNumber":54,"Velocity":30,"Duration":142684,"SoundDuration":142684,"Delta":208872069},{"NoteNumber":78,"Velocity":47,"Duration":106952,"SoundDuration":106952,"Delta":208907801},{"NoteNumber":71,"Velocity":51,"Duration":106338,"SoundDuration":106338,"Delta":209014754},{"NoteNumber":59,"Velocity":32,"Duration":141703,"SoundDuration":141703,"Delta":209014754},{"NoteNumber":83,"Velocity":46,"Duration":105852,"SoundDuration":105852,"Delta":209121092},{"NoteNumber":54,"Velocity":31,"Duration":140736,"SoundDuration":140736,"Delta":209156457},{"NoteNumber":75,"Velocity":46,"Duration":105256,"SoundDuration":105256,"Delta":209226944},{"NoteNumber":51,"Velocity":29,"Duration":139787,"SoundDuration":139787,"Delta":209297194},{"NoteNumber":78,"Velocity":46,"Duration":104780,"SoundDuration":104780,"Delta":209332200},{"NoteNumber":71,"Velocity":51,"Duration":104423,"SoundDuration":104423,"Delta":209436981},{"NoteNumber":46,"Velocity":27,"Duration":139310,"SoundDuration":139310,"Delta":209436981},{"NoteNumber":83,"Velocity":48,"Duration":104900,"SoundDuration":104900,"Delta":209541404},{"NoteNumber":51,"Velocity":28,"Duration":140381,"SoundDuration":140381,"Delta":209576291},{"NoteNumber":75,"Velocity":45,"Duration":105611,"SoundDuration":105611,"Delta":209646304},{"NoteNumber":54,"Velocity":29,"Duration":141460,"SoundDuration":141460,"Delta":209716673},{"NoteNumber":78,"Velocity":45,"Duration":106217,"SoundDuration":106217,"Delta":209751916},{"NoteNumber":70,"Velocity":51,"Duration":106952,"SoundDuration":106952,"Delta":209858134},{"NoteNumber":58,"Velocity":30,"Duration":142684,"SoundDuration":142684,"Delta":209858134},{"NoteNumber":82,"Velocity":47,"Duration":107568,"SoundDuration":107568,"Delta":209965086},{"NoteNumber":54,"Velocity":29,"Duration":143924,"SoundDuration":143924,"Delta":210000818},{"NoteNumber":75,"Velocity":44,"Duration":108194,"SoundDuration":108194,"Delta":210072655},{"NoteNumber":51,"Velocity":28,"Duration":145837,"SoundDuration":145837,"Delta":210144743},{"NoteNumber":78,"Velocity":44,"Duration":109731,"SoundDuration":109731,"Delta":210180849},{"NoteNumber":70,"Velocity":52,"Duration":109987,"SoundDuration":109987,"Delta":210290580},{"NoteNumber":47,"Velocity":28,"Duration":146606,"SoundDuration":146606,"Delta":210290580},{"NoteNumber":82,"Velocity":46,"Duration":109596,"SoundDuration":109596,"Delta":210400568},{"NoteNumber":51,"Velocity":28,"Duration":145825,"SoundDuration":145825,"Delta":210437187},{"NoteNumber":75,"Velocity":46,"Duration":109210,"SoundDuration":109210,"Delta":210510164},{"NoteNumber":54,"Velocity":28,"Duration":145191,"SoundDuration":145191,"Delta":210583013},{"NoteNumber":78,"Velocity":45,"Duration":108830,"SoundDuration":108830,"Delta":210619374},{"NoteNumber":69,"Velocity":48,"Duration":108447,"SoundDuration":108447,"Delta":210728204},{"NoteNumber":57,"Velocity":30,"Duration":144553,"SoundDuration":144553,"Delta":210728204},{"NoteNumber":81,"Velocity":43,"Duration":108069,"SoundDuration":108069,"Delta":210836651},{"NoteNumber":54,"Velocity":28,"Duration":143799,"SoundDuration":143799,"Delta":210872757},{"NoteNumber":75,"Velocity":42,"Duration":107691,"SoundDuration":107691,"Delta":210944721},{"NoteNumber":51,"Velocity":27,"Duration":143174,"SoundDuration":143174,"Delta":211016557},{"NoteNumber":78,"Velocity":42,"Duration":107319,"SoundDuration":107319,"Delta":211052413},{"NoteNumber":69,"Velocity":45,"Duration":107323,"SoundDuration":107323,"Delta":211159732},{"NoteNumber":48,"Velocity":23,"Duration":143430,"SoundDuration":143430,"Delta":211159732},{"NoteNumber":81,"Velocity":42,"Duration":109086,"SoundDuration":109086,"Delta":211267056},{"NoteNumber":51,"Velocity":24,"Duration":146741,"SoundDuration":146741,"Delta":211303162},{"NoteNumber":75,"Velocity":39,"Duration":111040,"SoundDuration":111040,"Delta":211376142},{"NoteNumber":54,"Velocity":25,"Duration":150346,"SoundDuration":150346,"Delta":211449903},{"NoteNumber":78,"Velocity":39,"Duration":113066,"SoundDuration":113066,"Delta":211487183},{"NoteNumber":68,"Velocity":43,"Duration":115027,"SoundDuration":115027,"Delta":211600250},{"NoteNumber":56,"Velocity":25,"Duration":153850,"SoundDuration":153850,"Delta":211600250},{"NoteNumber":80,"Velocity":39,"Duration":117205,"SoundDuration":117205,"Delta":211715277},{"NoteNumber":54,"Velocity":24,"Duration":157821,"SoundDuration":157821,"Delta":211754100},{"NoteNumber":75,"Velocity":36,"Duration":119464,"SoundDuration":119464,"Delta":211832483},{"NoteNumber":51,"Velocity":22,"Duration":161678,"SoundDuration":161678,"Delta":211911921},{"NoteNumber":78,"Velocity":36,"Duration":121652,"SoundDuration":121652,"Delta":211951947},{"NoteNumber":49,"Velocity":22,"Duration":131916,"SoundDuration":131916,"Delta":212073600},{"NoteNumber":68,"Velocity":37,"Duration":88672,"SoundDuration":88672,"Delta":212175842},{"NoteNumber":56,"Velocity":25,"Duration":117478,"SoundDuration":117478,"Delta":212205516},{"NoteNumber":69,"Velocity":41,"Duration":87719,"SoundDuration":87719,"Delta":212264515},{"NoteNumber":61,"Velocity":28,"Duration":118971,"SoundDuration":118971,"Delta":212322994},{"NoteNumber":68,"Velocity":38,"Duration":89731,"SoundDuration":89731,"Delta":212352234},{"NoteNumber":67,"Velocity":39,"Duration":90271,"SoundDuration":90271,"Delta":212441966},{"NoteNumber":64,"Velocity":30,"Duration":120211,"SoundDuration":120211,"Delta":212441966},{"NoteNumber":68,"Velocity":40,"Duration":89464,"SoundDuration":89464,"Delta":212532237},{"NoteNumber":61,"Velocity":28,"Duration":118348,"SoundDuration":118348,"Delta":212562177},{"NoteNumber":73,"Velocity":42,"Duration":88063,"SoundDuration":88063,"Delta":212621702},{"NoteNumber":56,"Velocity":27,"Duration":117563,"SoundDuration":117563,"Delta":212680526},{"NoteNumber":76,"Velocity":43,"Duration":88324,"SoundDuration":88324,"Delta":212709765},{"NoteNumber":75,"Velocity":45,"Duration":88757,"SoundDuration":88757,"Delta":212798089},{"NoteNumber":52,"Velocity":26,"Duration":118343,"SoundDuration":118343,"Delta":212798089},{"NoteNumber":73,"Velocity":43,"Duration":88409,"SoundDuration":88409,"Delta":212886847},{"NoteNumber":56,"Velocity":28,"Duration":117562,"SoundDuration":117562,"Delta":212916433},{"NoteNumber":75,"Velocity":45,"Duration":88324,"SoundDuration":88324,"Delta":212975257},{"NoteNumber":61,"Velocity":30,"Duration":118695,"SoundDuration":118695,"Delta":213033995},{"NoteNumber":73,"Velocity":43,"Duration":89109,"SoundDuration":89109,"Delta":213063581},{"NoteNumber":72,"Velocity":44,"Duration":88409,"SoundDuration":88409,"Delta":213152690},{"NoteNumber":64,"Velocity":31,"Duration":117907,"SoundDuration":117907,"Delta":213152690},{"NoteNumber":73,"Velocity":46,"Duration":88495,"SoundDuration":88495,"Delta":213241100},{"NoteNumber":61,"Velocity":28,"Duration":118168,"SoundDuration":118168,"Delta":213270598},{"NoteNumber":76,"Velocity":49,"Duration":88757,"SoundDuration":88757,"Delta":213329595},{"NoteNumber":56,"Velocity":27,"Duration":139443,"SoundDuration":139443,"Delta":213388767},{"NoteNumber":80,"Velocity":47,"Duration":109858,"SoundDuration":109858,"Delta":213418353},{"NoteNumber":49,"Velocity":27,"Duration":130636,"SoundDuration":130636,"Delta":213528211},{"NoteNumber":68,"Velocity":45,"Duration":89075,"SoundDuration":89075,"Delta":213629119},{"NoteNumber":56,"Velocity":30,"Duration":118344,"SoundDuration":118344,"Delta":213658847},{"NoteNumber":69,"Velocity":49,"Duration":88495,"SoundDuration":88495,"Delta":213718194},{"NoteNumber":61,"Velocity":34,"Duration":116540,"SoundDuration":116540,"Delta":213777191},{"NoteNumber":68,"Velocity":45,"Duration":87041,"SoundDuration":87041,"Delta":213806690},{"NoteNumber":67,"Velocity":46,"Duration":89024,"SoundDuration":89024,"Delta":213893732},{"NoteNumber":64,"Velocity":36,"Duration":118875,"SoundDuration":118875,"Delta":213893732},{"NoteNumber":68,"Velocity":48,"Duration":89198,"SoundDuration":89198,"Delta":213982756},{"NoteNumber":61,"Velocity":34,"Duration":117998,"SoundDuration":117998,"Delta":214012607},{"NoteNumber":73,"Velocity":50,"Duration":88062,"SoundDuration":88062,"Delta":214071955},{"NoteNumber":56,"Velocity":33,"Duration":117995,"SoundDuration":117995,"Delta":214130606},{"NoteNumber":76,"Velocity":51,"Duration":88583,"SoundDuration":88583,"Delta":214160017},{"NoteNumber":75,"Velocity":54,"Duration":88149,"SoundDuration":88149,"Delta":214248601},{"NoteNumber":52,"Velocity":31,"Duration":117648,"SoundDuration":117648,"Delta":214248601},{"NoteNumber":73,"Velocity":51,"Duration":88933,"SoundDuration":88933,"Delta":214336751},{"NoteNumber":56,"Velocity":33,"Duration":119226,"SoundDuration":119226,"Delta":214366249},{"NoteNumber":75,"Velocity":53,"Duration":89641,"SoundDuration":89641,"Delta":214425685},{"NoteNumber":61,"Velocity":36,"Duration":118175,"SoundDuration":118175,"Delta":214485476},{"NoteNumber":73,"Velocity":51,"Duration":88325,"SoundDuration":88325,"Delta":214515326},{"NoteNumber":72,"Velocity":52,"Duration":87805,"SoundDuration":87805,"Delta":214603651},{"NoteNumber":64,"Velocity":37,"Duration":117303,"SoundDuration":117303,"Delta":214603651},{"NoteNumber":73,"Velocity":54,"Duration":88495,"SoundDuration":88495,"Delta":214691456},{"NoteNumber":61,"Velocity":34,"Duration":117994,"SoundDuration":117994,"Delta":214720955},{"NoteNumber":76,"Velocity":57,"Duration":88495,"SoundDuration":88495,"Delta":214779952},{"NoteNumber":56,"Velocity":32,"Duration":137063,"SoundDuration":137063,"Delta":214838949},{"NoteNumber":80,"Velocity":55,"Duration":107565,"SoundDuration":107565,"Delta":214868447},{"NoteNumber":51,"Velocity":31,"Duration":131097,"SoundDuration":131097,"Delta":214976013},{"NoteNumber":69,"Velocity":56,"Duration":90476,"SoundDuration":90476,"Delta":215076921},{"NoteNumber":57,"Velocity":35,"Duration":120292,"SoundDuration":120292,"Delta":215107111},{"NoteNumber":73,"Velocity":59,"Duration":89917,"SoundDuration":89917,"Delta":215167397},{"NoteNumber":61,"Velocity":39,"Duration":119369,"SoundDuration":119369,"Delta":215227403},{"NoteNumber":75,"Velocity":62,"Duration":89458,"SoundDuration":89458,"Delta":215257315},{"NoteNumber":78,"Velocity":63,"Duration":89641,"SoundDuration":89641,"Delta":215346773},{"NoteNumber":66,"Velocity":45,"Duration":119460,"SoundDuration":119460,"Delta":215346773},{"NoteNumber":81,"Velocity":66,"Duration":89365,"SoundDuration":89365,"Delta":215436415},{"NoteNumber":61,"Velocity":39,"Duration":119003,"SoundDuration":119003,"Delta":215466234},{"NoteNumber":85,"Velocity":69,"Duration":89093,"SoundDuration":89093,"Delta":215525780},{"NoteNumber":57,"Velocity":37,"Duration":118321,"SoundDuration":118321,"Delta":215585237},{"NoteNumber":87,"Velocity":72,"Duration":88685,"SoundDuration":88685,"Delta":215614874},{"NoteNumber":95,"Velocity":75,"Duration":87294,"SoundDuration":87294,"Delta":215703559},{"NoteNumber":54,"Velocity":37,"Duration":116363,"SoundDuration":116363,"Delta":215703559},{"NoteNumber":93,"Velocity":73,"Duration":87635,"SoundDuration":87635,"Delta":215790853},{"NoteNumber":61,"Velocity":40,"Duration":117738,"SoundDuration":117738,"Delta":215819922},{"NoteNumber":92,"Velocity":72,"Duration":88757,"SoundDuration":88757,"Delta":215878489},{"NoteNumber":63,"Velocity":44,"Duration":117821,"SoundDuration":117821,"Delta":215937661},{"NoteNumber":90,"Velocity":71,"Duration":88235,"SoundDuration":88235,"Delta":215967247},{"NoteNumber":88,"Velocity":71,"Duration":87379,"SoundDuration":87379,"Delta":216055482},{"NoteNumber":69,"Velocity":46,"Duration":116448,"SoundDuration":116448,"Delta":216055482},{"NoteNumber":87,"Velocity":70,"Duration":87979,"SoundDuration":87979,"Delta":216142862},{"NoteNumber":63,"Velocity":44,"Duration":117907,"SoundDuration":117907,"Delta":216171931},{"NoteNumber":90,"Velocity":68,"Duration":88495,"SoundDuration":88495,"Delta":216230842},{"NoteNumber":61,"Velocity":41,"Duration":118169,"SoundDuration":118169,"Delta":216289839},{"NoteNumber":85,"Velocity":67,"Duration":88670,"SoundDuration":88670,"Delta":216319337},{"NoteNumber":84,"Velocity":68,"Duration":88235,"SoundDuration":88235,"Delta":216408008},{"NoteNumber":44,"Velocity":33,"Duration":117821,"SoundDuration":117821,"Delta":216408008},{"NoteNumber":87,"Velocity":63,"Duration":88670,"SoundDuration":88670,"Delta":216496243},{"NoteNumber":51,"Velocity":35,"Duration":117650,"SoundDuration":117650,"Delta":216525829},{"NoteNumber":81,"Velocity":63,"Duration":87720,"SoundDuration":87720,"Delta":216584914},{"NoteNumber":54,"Velocity":38,"Duration":117219,"SoundDuration":117219,"Delta":216643480},{"NoteNumber":80,"Velocity":63,"Duration":88064,"SoundDuration":88064,"Delta":216672634},{"NoteNumber":78,"Velocity":60,"Duration":88757,"SoundDuration":88757,"Delta":216760699},{"NoteNumber":60,"Velocity":39,"Duration":118083,"SoundDuration":118083,"Delta":216760699},{"NoteNumber":81,"Velocity":58,"Duration":87805,"SoundDuration":87805,"Delta":216849457},{"NoteNumber":54,"Velocity":36,"Duration":116959,"SoundDuration":116959,"Delta":216878783},{"NoteNumber":76,"Velocity":54,"Duration":87719,"SoundDuration":87719,"Delta":216937262},{"NoteNumber":51,"Velocity":34,"Duration":116959,"SoundDuration":116959,"Delta":216995742},{"NoteNumber":75,"Velocity":54,"Duration":87719,"SoundDuration":87719,"Delta":217024981},{"NoteNumber":78,"Velocity":53,"Duration":88375,"SoundDuration":88375,"Delta":217112701},{"NoteNumber":44,"Velocity":29,"Duration":117923,"SoundDuration":117923,"Delta":217112701},{"NoteNumber":73,"Velocity":48,"Duration":88731,"SoundDuration":88731,"Delta":217201076},{"NoteNumber":51,"Velocity":31,"Duration":118457,"SoundDuration":118457,"Delta":217230624},{"NoteNumber":72,"Velocity":48,"Duration":89001,"SoundDuration":89001,"Delta":217289808},{"NoteNumber":54,"Velocity":33,"Duration":119278,"SoundDuration":119278,"Delta":217349081},{"NoteNumber":75,"Velocity":47,"Duration":89549,"SoundDuration":89549,"Delta":217378809},{"NoteNumber":69,"Velocity":45,"Duration":91226,"SoundDuration":91226,"Delta":217468359},{"NoteNumber":60,"Velocity":33,"Duration":122082,"SoundDuration":122082,"Delta":217468359},{"NoteNumber":68,"Velocity":42,"Duration":93162,"SoundDuration":93162,"Delta":217559585},{"NoteNumber":54,"Velocity":29,"Duration":125623,"SoundDuration":125623,"Delta":217590442},{"NoteNumber":71,"Velocity":42,"Duration":95289,"SoundDuration":95289,"Delta":217652748},{"NoteNumber":51,"Velocity":26,"Duration":139128,"SoundDuration":139128,"Delta":217716066},{"NoteNumber":69,"Velocity":41,"Duration":199387,"SoundDuration":199387,"Delta":217748037},{"NoteNumber":49,"Velocity":22,"Duration":121817,"SoundDuration":121817,"Delta":217855194},{"NoteNumber":68,"Velocity":37,"Duration":88671,"SoundDuration":88671,"Delta":217947424},{"NoteNumber":56,"Velocity":25,"Duration":117649,"SoundDuration":117649,"Delta":217977012},{"NoteNumber":69,"Velocity":41,"Duration":87719,"SoundDuration":87719,"Delta":218036096},{"NoteNumber":61,"Velocity":28,"Duration":116960,"SoundDuration":116960,"Delta":218094661},{"NoteNumber":68,"Velocity":38,"Duration":87806,"SoundDuration":87806,"Delta":218123816},{"NoteNumber":67,"Velocity":39,"Duration":88583,"SoundDuration":88583,"Delta":218211622},{"NoteNumber":64,"Velocity":30,"Duration":118169,"SoundDuration":118169,"Delta":218211622},{"NoteNumber":68,"Velocity":40,"Duration":88496,"SoundDuration":88496,"Delta":218300205},{"NoteNumber":61,"Velocity":28,"Duration":117390,"SoundDuration":117390,"Delta":218329791},{"NoteNumber":73,"Velocity":42,"Duration":87634,"SoundDuration":87634,"Delta":218388701},{"NoteNumber":56,"Velocity":27,"Duration":117476,"SoundDuration":117476,"Delta":218447181},{"NoteNumber":76,"Velocity":43,"Duration":88322,"SoundDuration":88322,"Delta":218476336},{"NoteNumber":75,"Velocity":45,"Duration":88757,"SoundDuration":88757,"Delta":218564658},{"NoteNumber":52,"Velocity":26,"Duration":118169,"SoundDuration":118169,"Delta":218564658},{"NoteNumber":73,"Velocity":43,"Duration":88063,"SoundDuration":88063,"Delta":218653415},{"NoteNumber":56,"Velocity":28,"Duration":117131,"SoundDuration":117131,"Delta":218682827},{"NoteNumber":75,"Velocity":45,"Duration":87805,"SoundDuration":87805,"Delta":218741479},{"NoteNumber":61,"Velocity":30,"Duration":117995,"SoundDuration":117995,"Delta":218799958},{"NoteNumber":73,"Velocity":43,"Duration":88670,"SoundDuration":88670,"Delta":218829284},{"NoteNumber":72,"Velocity":44,"Duration":88757,"SoundDuration":88757,"Delta":218917954},{"NoteNumber":64,"Velocity":31,"Duration":118343,"SoundDuration":118343,"Delta":218917954},{"NoteNumber":73,"Velocity":46,"Duration":88757,"SoundDuration":88757,"Delta":219006711},{"NoteNumber":61,"Velocity":28,"Duration":118343,"SoundDuration":118343,"Delta":219036297},{"NoteNumber":76,"Velocity":50,"Duration":88757,"SoundDuration":88757,"Delta":219095469},{"NoteNumber":56,"Velocity":27,"Duration":140735,"SoundDuration":140735,"Delta":219154641},{"NoteNumber":80,"Velocity":48,"Duration":111149,"SoundDuration":111149,"Delta":219184226},{"NoteNumber":76,"Velocity":46,"Duration":93077,"SoundDuration":93077,"Delta":219295376},{"NoteNumber":54,"Velocity":25,"Duration":122665,"SoundDuration":122665,"Delta":219295376},{"NoteNumber":75,"Velocity":43,"Duration":88584,"SoundDuration":88584,"Delta":219388454},{"NoteNumber":61,"Velocity":29,"Duration":117907,"SoundDuration":117907,"Delta":219418041},{"NoteNumber":76,"Velocity":47,"Duration":88235,"SoundDuration":88235,"Delta":219477038},{"NoteNumber":63,"Velocity":32,"Duration":116959,"SoundDuration":116959,"Delta":219535949},{"NoteNumber":75,"Velocity":43,"Duration":87633,"SoundDuration":87633,"Delta":219565274},{"NoteNumber":74,"Velocity":45,"Duration":88322,"SoundDuration":88322,"Delta":219652908},{"NoteNumber":69,"Velocity":34,"Duration":117995,"SoundDuration":117995,"Delta":219652908},{"NoteNumber":75,"Velocity":46,"Duration":88932,"SoundDuration":88932,"Delta":219741230},{"NoteNumber":63,"Velocity":33,"Duration":118169,"SoundDuration":118169,"Delta":219770904},{"NoteNumber":78,"Velocity":49,"Duration":88235,"SoundDuration":88235,"Delta":219830163},{"NoteNumber":61,"Velocity":31,"Duration":117044,"SoundDuration":117044,"Delta":219889073},{"NoteNumber":81,"Velocity":50,"Duration":87719,"SoundDuration":87719,"Delta":219918399},{"NoteNumber":78,"Velocity":53,"Duration":87719,"SoundDuration":87719,"Delta":220006118},{"NoteNumber":56,"Velocity":30,"Duration":117481,"SoundDuration":117481,"Delta":220006118},{"NoteNumber":77,"Velocity":51,"Duration":89286,"SoundDuration":89286,"Delta":220093837},{"NoteNumber":61,"Velocity":32,"Duration":118348,"SoundDuration":118348,"Delta":220123599},{"NoteNumber":78,"Velocity":53,"Duration":88063,"SoundDuration":88063,"Delta":220183124},{"NoteNumber":65,"Velocity":35,"Duration":117217,"SoundDuration":117217,"Delta":220241948},{"NoteNumber":77,"Velocity":51,"Duration":87977,"SoundDuration":87977,"Delta":220271187},{"NoteNumber":76,"Velocity":52,"Duration":88670,"SoundDuration":88670,"Delta":220359165},{"NoteNumber":71,"Velocity":37,"Duration":118168,"SoundDuration":118168,"Delta":220359165},{"NoteNumber":77,"Velocity":54,"Duration":88321,"SoundDuration":88321,"Delta":220447836},{"NoteNumber":65,"Velocity":34,"Duration":117647,"SoundDuration":117647,"Delta":220477334},{"NoteNumber":80,"Velocity":57,"Duration":88235,"SoundDuration":88235,"Delta":220536158},{"NoteNumber":61,"Velocity":32,"Duration":142893,"SoundDuration":142893,"Delta":220594981},{"NoteNumber":85,"Velocity":56,"Duration":113481,"SoundDuration":113481,"Delta":220624393},{"NoteNumber":57,"Velocity":30,"Duration":123536,"SoundDuration":123536,"Delta":220737874},{"NoteNumber":73,"Velocity":50,"Duration":88759,"SoundDuration":88759,"Delta":220831823},{"NoteNumber":61,"Velocity":34,"Duration":118081,"SoundDuration":118081,"Delta":220861410},{"NoteNumber":74,"Velocity":55,"Duration":88322,"SoundDuration":88322,"Delta":220920582},{"NoteNumber":66,"Velocity":37,"Duration":117388,"SoundDuration":117388,"Delta":220979492},{"NoteNumber":73,"Velocity":51,"Duration":87976,"SoundDuration":87976,"Delta":221008904},{"NoteNumber":72,"Velocity":52,"Duration":88932,"SoundDuration":88932,"Delta":221096881},{"NoteNumber":69,"Velocity":40,"Duration":118606,"SoundDuration":118606,"Delta":221096881},{"NoteNumber":73,"Velocity":53,"Duration":89020,"SoundDuration":89020,"Delta":221185814},{"NoteNumber":66,"Velocity":39,"Duration":118171,"SoundDuration":118171,"Delta":221215488},{"NoteNumber":78,"Velocity":56,"Duration":88063,"SoundDuration":88063,"Delta":221274835},{"NoteNumber":61,"Velocity":35,"Duration":117045,"SoundDuration":117045,"Delta":221333659},{"NoteNumber":81,"Velocity":57,"Duration":87806,"SoundDuration":87806,"Delta":221362899},{"NoteNumber":78,"Velocity":59,"Duration":88496,"SoundDuration":88496,"Delta":221450705},{"NoteNumber":56,"Velocity":34,"Duration":118169,"SoundDuration":118169,"Delta":221450705},{"NoteNumber":77,"Velocity":56,"Duration":88845,"SoundDuration":88845,"Delta":221539201},{"NoteNumber":61,"Velocity":36,"Duration":117737,"SoundDuration":117737,"Delta":221568874},{"NoteNumber":78,"Velocity":59,"Duration":87805,"SoundDuration":87805,"Delta":221628046},{"NoteNumber":65,"Velocity":39,"Duration":117045,"SoundDuration":117045,"Delta":221686612},{"NoteNumber":77,"Velocity":57,"Duration":87806,"SoundDuration":87806,"Delta":221715851},{"NoteNumber":76,"Velocity":57,"Duration":88582,"SoundDuration":88582,"Delta":221803657},{"NoteNumber":71,"Velocity":40,"Duration":118081,"SoundDuration":118081,"Delta":221803657},{"NoteNumber":77,"Velocity":59,"Duration":88495,"SoundDuration":88495,"Delta":221892240},{"NoteNumber":65,"Velocity":37,"Duration":117994,"SoundDuration":117994,"Delta":221921739},{"NoteNumber":80,"Velocity":63,"Duration":88495,"SoundDuration":88495,"Delta":221980736},{"NoteNumber":61,"Velocity":34,"Duration":139744,"SoundDuration":139744,"Delta":222039733},{"NoteNumber":85,"Velocity":59,"Duration":110245,"SoundDuration":110245,"Delta":222069231},{"NoteNumber":80,"Velocity":58,"Duration":93077,"SoundDuration":93077,"Delta":222179477},{"NoteNumber":57,"Velocity":32,"Duration":122317,"SoundDuration":122317,"Delta":222179477},{"NoteNumber":78,"Velocity":53,"Duration":87548,"SoundDuration":87548,"Delta":222272554},{"NoteNumber":61,"Velocity":36,"Duration":116703,"SoundDuration":116703,"Delta":222301794},{"NoteNumber":80,"Velocity":58,"Duration":87806,"SoundDuration":87806,"Delta":222360103},{"NoteNumber":66,"Velocity":39,"Duration":118438,"SoundDuration":118438,"Delta":222418497},{"NoteNumber":78,"Velocity":54,"Duration":89027,"SoundDuration":89027,"Delta":222447909},{"NoteNumber":77,"Velocity":55,"Duration":89465,"SoundDuration":89465,"Delta":222536936},{"NoteNumber":69,"Velocity":42,"Duration":118963,"SoundDuration":118963,"Delta":222536936},{"NoteNumber":78,"Velocity":56,"Duration":88235,"SoundDuration":88235,"Delta":222626402},{"NoteNumber":66,"Velocity":40,"Duration":117388,"SoundDuration":117388,"Delta":222655900},{"NoteNumber":81,"Velocity":59,"Duration":88236,"SoundDuration":88236,"Delta":222714637},{"NoteNumber":61,"Velocity":38,"Duration":118783,"SoundDuration":118783,"Delta":222773288},{"NoteNumber":85,"Velocity":60,"Duration":89197,"SoundDuration":89197,"Delta":222802874},{"NoteNumber":81,"Velocity":63,"Duration":88585,"SoundDuration":88585,"Delta":222892072},{"NoteNumber":48,"Velocity":36,"Duration":117911,"SoundDuration":117911,"Delta":222892072},{"NoteNumber":80,"Velocity":59,"Duration":87976,"SoundDuration":87976,"Delta":222980658},{"NoteNumber":54,"Velocity":38,"Duration":117131,"SoundDuration":117131,"Delta":223009983},{"NoteNumber":81,"Velocity":62,"Duration":87634,"SoundDuration":87634,"Delta":223068634},{"NoteNumber":56,"Velocity":41,"Duration":117303,"SoundDuration":117303,"Delta":223127114},{"NoteNumber":80,"Velocity":60,"Duration":88148,"SoundDuration":88148,"Delta":223156269},{"NoteNumber":79,"Velocity":60,"Duration":88235,"SoundDuration":88235,"Delta":223244418},{"NoteNumber":63,"Velocity":42,"Duration":117647,"SoundDuration":117647,"Delta":223244418},{"NoteNumber":80,"Velocity":62,"Duration":88235,"SoundDuration":88235,"Delta":223332653},{"NoteNumber":56,"Velocity":39,"Duration":117647,"SoundDuration":117647,"Delta":223362065},{"NoteNumber":84,"Velocity":66,"Duration":88235,"SoundDuration":88235,"Delta":223420888},{"NoteNumber":54,"Velocity":37,"Duration":148563,"SoundDuration":148563,"Delta":223479712},{"NoteNumber":87,"Velocity":63,"Duration":119151,"SoundDuration":119151,"Delta":223509123},{"NoteNumber":80,"Velocity":69,"Duration":91928,"SoundDuration":91928,"Delta":223628275},{"NoteNumber":49,"Velocity":35,"Duration":122123,"SoundDuration":122123,"Delta":223628275},{"NoteNumber":81,"Velocity":64,"Duration":90487,"SoundDuration":90487,"Delta":223720204},{"NoteNumber":56,"Velocity":39,"Duration":120298,"SoundDuration":120298,"Delta":223750399},{"NoteNumber":80,"Velocity":67,"Duration":89917,"SoundDuration":89917,"Delta":223810691},{"NoteNumber":61,"Velocity":43,"Duration":119369,"SoundDuration":119369,"Delta":223870697},{"NoteNumber":79,"Velocity":58,"Duration":89458,"SoundDuration":89458,"Delta":223900608},{"NoteNumber":80,"Velocity":62,"Duration":89641,"SoundDuration":89641,"Delta":223990067},{"NoteNumber":64,"Velocity":45,"Duration":119460,"SoundDuration":119460,"Delta":223990067},{"NoteNumber":88,"Velocity":71,"Duration":89365,"SoundDuration":89365,"Delta":224079708},{"NoteNumber":61,"Velocity":44,"Duration":119003,"SoundDuration":119003,"Delta":224109527},{"NoteNumber":87,"Velocity":71,"Duration":89093,"SoundDuration":89093,"Delta":224169074},{"NoteNumber":56,"Velocity":42,"Duration":118477,"SoundDuration":118477,"Delta":224228531},{"NoteNumber":86,"Velocity":70,"Duration":88840,"SoundDuration":88840,"Delta":224258167},{"NoteNumber":85,"Velocity":69,"Duration":88762,"SoundDuration":88762,"Delta":224347008},{"NoteNumber":51,"Velocity":44,"Duration":118350,"SoundDuration":118350,"Delta":224347008},{"NoteNumber":84,"Velocity":69,"Duration":88805,"SoundDuration":88805,"Delta":224435771},{"NoteNumber":56,"Velocity":41,"Duration":118565,"SoundDuration":118565,"Delta":224465358},{"NoteNumber":83,"Velocity":68,"Duration":89020,"SoundDuration":89020,"Delta":224524577},{"NoteNumber":60,"Velocity":45,"Duration":118780,"SoundDuration":118780,"Delta":224583924},{"NoteNumber":82,"Velocity":67,"Duration":89107,"SoundDuration":89107,"Delta":224613597},{"NoteNumber":81,"Velocity":67,"Duration":89280,"SoundDuration":89280,"Delta":224702705},{"NoteNumber":66,"Velocity":46,"Duration":119040,"SoundDuration":119040,"Delta":224702705},{"NoteNumber":80,"Velocity":66,"Duration":89408,"SoundDuration":89408,"Delta":224791985},{"NoteNumber":60,"Velocity":44,"Duration":119339,"SoundDuration":119339,"Delta":224821745},{"NoteNumber":79,"Velocity":65,"Duration":89536,"SoundDuration":89536,"Delta":224881393},{"NoteNumber":56,"Velocity":41,"Duration":119909,"SoundDuration":119909,"Delta":224941084},{"NoteNumber":78,"Velocity":64,"Duration":90063,"SoundDuration":90063,"Delta":224970930},{"NoteNumber":76,"Velocity":69,"Duration":90984,"SoundDuration":90984,"Delta":225060993},{"NoteNumber":52,"Velocity":35,"Duration":121002,"SoundDuration":121002,"Delta":225060993},{"NoteNumber":78,"Velocity":64,"Duration":90131,"SoundDuration":90131,"Delta":225151978},{"NoteNumber":56,"Velocity":39,"Duration":120120,"SoundDuration":120120,"Delta":225181996},{"NoteNumber":76,"Velocity":67,"Duration":89917,"SoundDuration":89917,"Delta":225242110},{"NoteNumber":61,"Velocity":43,"Duration":119369,"SoundDuration":119369,"Delta":225302116},{"NoteNumber":75,"Velocity":58,"Duration":89458,"SoundDuration":89458,"Delta":225332027},{"NoteNumber":76,"Velocity":62,"Duration":89641,"SoundDuration":89641,"Delta":225421486},{"NoteNumber":64,"Velocity":45,"Duration":119460,"SoundDuration":119460,"Delta":225421486},{"NoteNumber":88,"Velocity":71,"Duration":89365,"SoundDuration":89365,"Delta":225511128},{"NoteNumber":61,"Velocity":44,"Duration":119003,"SoundDuration":119003,"Delta":225540946},{"NoteNumber":87,"Velocity":71,"Duration":89093,"SoundDuration":89093,"Delta":225600493},{"NoteNumber":56,"Velocity":42,"Duration":118457,"SoundDuration":118457,"Delta":225659950},{"NoteNumber":86,"Velocity":70,"Duration":88820,"SoundDuration":88820,"Delta":225689586},{"NoteNumber":85,"Velocity":70,"Duration":88261,"SoundDuration":88261,"Delta":225778407},{"NoteNumber":54,"Velocity":44,"Duration":117764,"SoundDuration":117764,"Delta":225778407},{"NoteNumber":84,"Velocity":71,"Duration":88511,"SoundDuration":88511,"Delta":225866668},{"NoteNumber":61,"Velocity":41,"Duration":118182,"SoundDuration":118182,"Delta":225896172},{"NoteNumber":83,"Velocity":71,"Duration":88762,"SoundDuration":88762,"Delta":225955179},{"NoteNumber":63,"Velocity":45,"Duration":118866,"SoundDuration":118866,"Delta":226014355},{"NoteNumber":82,"Velocity":72,"Duration":89279,"SoundDuration":89279,"Delta":226043942},{"NoteNumber":81,"Velocity":73,"Duration":90056,"SoundDuration":90056,"Delta":226133221},{"NoteNumber":69,"Velocity":46,"Duration":120251,"SoundDuration":120251,"Delta":226133221},{"NoteNumber":80,"Velocity":74,"Duration":90849,"SoundDuration":90849,"Delta":226223278},{"NoteNumber":63,"Velocity":48,"Duration":121666,"SoundDuration":121666,"Delta":226253473},{"NoteNumber":79,"Velocity":75,"Duration":91655,"SoundDuration":91655,"Delta":226314127},{"NoteNumber":61,"Velocity":51,"Duration":123024,"SoundDuration":123024,"Delta":226375140},{"NoteNumber":78,"Velocity":76,"Duration":92381,"SoundDuration":92381,"Delta":226405783},{"NoteNumber":80,"Velocity":76,"Duration":46236,"SoundDuration":46236,"Delta":226498164},{"NoteNumber":68,"Velocity":71,"Duration":184945,"SoundDuration":184945,"Delta":226498164},{"NoteNumber":64,"Velocity":71,"Duration":184945,"SoundDuration":184945,"Delta":226498164},{"NoteNumber":61,"Velocity":71,"Duration":184945,"SoundDuration":184945,"Delta":226498164},{"NoteNumber":56,"Velocity":71,"Duration":184945,"SoundDuration":184945,"Delta":226498164},{"NoteNumber":92,"Velocity":85,"Duration":92472,"SoundDuration":92472,"Delta":226683110},{"NoteNumber":91,"Velocity":85,"Duration":92472,"SoundDuration":92472,"Delta":226775583},{"NoteNumber":90,"Velocity":84,"Duration":89536,"SoundDuration":89536,"Delta":226868055},{"NoteNumber":89,"Velocity":84,"Duration":89536,"SoundDuration":89536,"Delta":226957592},{"NoteNumber":88,"Velocity":83,"Duration":89536,"SoundDuration":89536,"Delta":227047128},{"NoteNumber":87,"Velocity":83,"Duration":89536,"SoundDuration":89536,"Delta":227136664},{"NoteNumber":86,"Velocity":82,"Duration":89793,"SoundDuration":89793,"Delta":227226200},{"NoteNumber":69,"Velocity":71,"Duration":359173,"SoundDuration":359173,"Delta":227226200},{"NoteNumber":64,"Velocity":71,"Duration":359173,"SoundDuration":359173,"Delta":227226200},{"NoteNumber":61,"Velocity":71,"Duration":359173,"SoundDuration":359173,"Delta":227226200},{"NoteNumber":55,"Velocity":71,"Duration":359173,"SoundDuration":359173,"Delta":227226200},{"NoteNumber":85,"Velocity":81,"Duration":89793,"SoundDuration":89793,"Delta":227315994},{"NoteNumber":84,"Velocity":81,"Duration":89793,"SoundDuration":89793,"Delta":227405787},{"NoteNumber":83,"Velocity":80,"Duration":89793,"SoundDuration":89793,"Delta":227495581},{"NoteNumber":82,"Velocity":80,"Duration":90052,"SoundDuration":90052,"Delta":227585374},{"NoteNumber":81,"Velocity":79,"Duration":90052,"SoundDuration":90052,"Delta":227675427},{"NoteNumber":80,"Velocity":79,"Duration":90052,"SoundDuration":90052,"Delta":227765479},{"NoteNumber":79,"Velocity":78,"Duration":90142,"SoundDuration":90142,"Delta":227855531},{"NoteNumber":78,"Velocity":77,"Duration":90323,"SoundDuration":90323,"Delta":227945674},{"NoteNumber":77,"Velocity":77,"Duration":90323,"SoundDuration":90323,"Delta":228035997},{"NoteNumber":76,"Velocity":77,"Duration":90323,"SoundDuration":90323,"Delta":228126320},{"NoteNumber":75,"Velocity":77,"Duration":90323,"SoundDuration":90323,"Delta":228216644},{"NoteNumber":74,"Velocity":77,"Duration":90323,"SoundDuration":90323,"Delta":228306967},{"NoteNumber":73,"Velocity":77,"Duration":90323,"SoundDuration":90323,"Delta":228397290},{"NoteNumber":72,"Velocity":77,"Duration":90323,"SoundDuration":90323,"Delta":228487613},{"NoteNumber":71,"Velocity":77,"Duration":90323,"SoundDuration":90323,"Delta":228577937},{"NoteNumber":70,"Velocity":77,"Duration":90323,"SoundDuration":90323,"Delta":228668260},{"NoteNumber":69,"Velocity":80,"Duration":90323,"SoundDuration":90323,"Delta":228758583},{"NoteNumber":68,"Velocity":83,"Duration":90323,"SoundDuration":90323,"Delta":228848906},{"NoteNumber":67,"Velocity":85,"Duration":90410,"SoundDuration":90410,"Delta":228939230},{"NoteNumber":66,"Velocity":87,"Duration":90849,"SoundDuration":90849,"Delta":229029640},{"NoteNumber":64,"Velocity":89,"Duration":91655,"SoundDuration":91655,"Delta":229120489},{"NoteNumber":63,"Velocity":92,"Duration":92473,"SoundDuration":92473,"Delta":229212145},{"NoteNumber":61,"Velocity":94,"Duration":93313,"SoundDuration":93313,"Delta":229304618},{"NoteNumber":56,"Velocity":96,"Duration":98977,"SoundDuration":98977,"Delta":229397931},{"NoteNumber":32,"Velocity":78,"Duration":98977,"SoundDuration":98977,"Delta":229397931},{"NoteNumber":44,"Velocity":78,"Duration":98977,"SoundDuration":98977,"Delta":229397931},{"NoteNumber":93,"Velocity":90,"Duration":98662,"SoundDuration":98662,"Delta":229793840},{"NoteNumber":76,"Velocity":75,"Duration":392249,"SoundDuration":392249,"Delta":229793840},{"NoteNumber":64,"Velocity":75,"Duration":392249,"SoundDuration":392249,"Delta":229793840},{"NoteNumber":92,"Velocity":81,"Duration":98032,"SoundDuration":98032,"Delta":229892503},{"NoteNumber":100,"Velocity":77,"Duration":97828,"SoundDuration":97828,"Delta":229990536},{"NoteNumber":88,"Velocity":77,"Duration":97726,"SoundDuration":97726,"Delta":230088364},{"NoteNumber":90,"Velocity":90,"Duration":97421,"SoundDuration":97421,"Delta":230186090},{"NoteNumber":61,"Velocity":78,"Duration":388774,"SoundDuration":388774,"Delta":230186090},{"NoteNumber":73,"Velocity":78,"Duration":388774,"SoundDuration":388774,"Delta":230186090},{"NoteNumber":88,"Velocity":77,"Duration":97320,"SoundDuration":97320,"Delta":230283512},{"NoteNumber":97,"Velocity":77,"Duration":97118,"SoundDuration":97118,"Delta":230380832},{"NoteNumber":85,"Velocity":77,"Duration":96914,"SoundDuration":96914,"Delta":230477951},{"NoteNumber":87,"Velocity":89,"Duration":96811,"SoundDuration":96811,"Delta":230574865},{"NoteNumber":56,"Velocity":78,"Duration":385934,"SoundDuration":385934,"Delta":230574865},{"NoteNumber":68,"Velocity":78,"Duration":385934,"SoundDuration":385934,"Delta":230574865},{"NoteNumber":85,"Velocity":77,"Duration":96506,"SoundDuration":96506,"Delta":230671677},{"NoteNumber":92,"Velocity":77,"Duration":96407,"SoundDuration":96407,"Delta":230768183},{"NoteNumber":80,"Velocity":77,"Duration":96209,"SoundDuration":96209,"Delta":230864591},{"NoteNumber":81,"Velocity":89,"Duration":94738,"SoundDuration":94738,"Delta":230960800},{"NoteNumber":52,"Velocity":78,"Duration":378954,"SoundDuration":378954,"Delta":230960800},{"NoteNumber":64,"Velocity":78,"Duration":378954,"SoundDuration":378954,"Delta":230960800},{"NoteNumber":80,"Velocity":77,"Duration":94738,"SoundDuration":94738,"Delta":231055539},{"NoteNumber":88,"Velocity":77,"Duration":94738,"SoundDuration":94738,"Delta":231150278},{"NoteNumber":76,"Velocity":77,"Duration":94738,"SoundDuration":94738,"Delta":231245016},{"NoteNumber":78,"Velocity":88,"Duration":94738,"SoundDuration":94738,"Delta":231339755},{"NoteNumber":49,"Velocity":74,"Duration":378955,"SoundDuration":378955,"Delta":231339755},{"NoteNumber":61,"Velocity":74,"Duration":378955,"SoundDuration":378955,"Delta":231339755},{"NoteNumber":76,"Velocity":77,"Duration":94738,"SoundDuration":94738,"Delta":231434494},{"NoteNumber":85,"Velocity":77,"Duration":94738,"SoundDuration":94738,"Delta":231529233},{"NoteNumber":73,"Velocity":77,"Duration":94738,"SoundDuration":94738,"Delta":231623971},{"NoteNumber":75,"Velocity":89,"Duration":94738,"SoundDuration":94738,"Delta":231718710},{"NoteNumber":44,"Velocity":78,"Duration":378954,"SoundDuration":378954,"Delta":231718710},{"NoteNumber":56,"Velocity":78,"Duration":378954,"SoundDuration":378954,"Delta":231718710},{"NoteNumber":73,"Velocity":77,"Duration":94738,"SoundDuration":94738,"Delta":231813449},{"NoteNumber":80,"Velocity":77,"Duration":94738,"SoundDuration":94738,"Delta":231908188},{"NoteNumber":68,"Velocity":77,"Duration":94738,"SoundDuration":94738,"Delta":232002926},{"NoteNumber":69,"Velocity":90,"Duration":94738,"SoundDuration":94738,"Delta":232097665},{"NoteNumber":40,"Velocity":74,"Duration":378954,"SoundDuration":378954,"Delta":232097665},{"NoteNumber":52,"Velocity":74,"Duration":378954,"SoundDuration":378954,"Delta":232097665},{"NoteNumber":68,"Velocity":77,"Duration":94738,"SoundDuration":94738,"Delta":232192404},{"NoteNumber":76,"Velocity":77,"Duration":94738,"SoundDuration":94738,"Delta":232287143},{"NoteNumber":64,"Velocity":77,"Duration":94738,"SoundDuration":94738,"Delta":232381881},{"NoteNumber":66,"Velocity":88,"Duration":97726,"SoundDuration":97726,"Delta":232476620},{"NoteNumber":37,"Velocity":78,"Duration":390905,"SoundDuration":390905,"Delta":232476620},{"NoteNumber":49,"Velocity":78,"Duration":390905,"SoundDuration":390905,"Delta":232476620},{"NoteNumber":64,"Velocity":77,"Duration":97726,"SoundDuration":97726,"Delta":232574346},{"NoteNumber":73,"Velocity":77,"Duration":97726,"SoundDuration":97726,"Delta":232672073},{"NoteNumber":61,"Velocity":77,"Duration":97726,"SoundDuration":97726,"Delta":232769799},{"NoteNumber":63,"Velocity":89,"Duration":95620,"SoundDuration":95620,"Delta":232867525},{"NoteNumber":32,"Velocity":73,"Duration":382482,"SoundDuration":382482,"Delta":232867525},{"NoteNumber":44,"Velocity":73,"Duration":382482,"SoundDuration":382482,"Delta":232867525},{"NoteNumber":61,"Velocity":77,"Duration":95620,"SoundDuration":95620,"Delta":232963146},{"NoteNumber":68,"Velocity":77,"Duration":95620,"SoundDuration":95620,"Delta":233058766},{"NoteNumber":56,"Velocity":77,"Duration":95620,"SoundDuration":95620,"Delta":233154387},{"NoteNumber":63,"Velocity":89,"Duration":97118,"SoundDuration":97118,"Delta":233250007},{"NoteNumber":32,"Velocity":78,"Duration":388474,"SoundDuration":388474,"Delta":233250007},{"NoteNumber":44,"Velocity":78,"Duration":388474,"SoundDuration":388474,"Delta":233250007},{"NoteNumber":61,"Velocity":77,"Duration":97118,"SoundDuration":97118,"Delta":233347126},{"NoteNumber":68,"Velocity":77,"Duration":97118,"SoundDuration":97118,"Delta":233444245},{"NoteNumber":56,"Velocity":77,"Duration":97118,"SoundDuration":97118,"Delta":233541363},{"NoteNumber":63,"Velocity":89,"Duration":97118,"SoundDuration":97118,"Delta":233638482},{"NoteNumber":33,"Velocity":74,"Duration":387681,"SoundDuration":387681,"Delta":233638482},{"NoteNumber":45,"Velocity":74,"Duration":387681,"SoundDuration":387681,"Delta":233638482},{"NoteNumber":61,"Velocity":77,"Duration":97118,"SoundDuration":97118,"Delta":233735601},{"NoteNumber":69,"Velocity":77,"Duration":97118,"SoundDuration":97118,"Delta":233832720},{"NoteNumber":57,"Velocity":77,"Duration":96325,"SoundDuration":96325,"Delta":233929838},{"NoteNumber":63,"Velocity":89,"Duration":97726,"SoundDuration":97726,"Delta":234026164},{"NoteNumber":32,"Velocity":78,"Duration":392981,"SoundDuration":392981,"Delta":234026164},{"NoteNumber":44,"Velocity":78,"Duration":392981,"SoundDuration":392981,"Delta":234026164},{"NoteNumber":61,"Velocity":75,"Duration":98032,"SoundDuration":98032,"Delta":234123890},{"NoteNumber":68,"Velocity":74,"Duration":98453,"SoundDuration":98453,"Delta":234221923},{"NoteNumber":56,"Velocity":73,"Duration":98768,"SoundDuration":98768,"Delta":234320376},{"NoteNumber":63,"Velocity":83,"Duration":99186,"SoundDuration":99186,"Delta":234419145},{"NoteNumber":31,"Velocity":72,"Duration":399099,"SoundDuration":399099,"Delta":234419145},{"NoteNumber":43,"Velocity":72,"Duration":399099,"SoundDuration":399099,"Delta":234419145},{"NoteNumber":61,"Velocity":71,"Duration":99502,"SoundDuration":99502,"Delta":234518332},{"NoteNumber":67,"Velocity":71,"Duration":99933,"SoundDuration":99933,"Delta":234617835},{"NoteNumber":55,"Velocity":70,"Duration":100476,"SoundDuration":100476,"Delta":234717768},{"NoteNumber":63,"Velocity":79,"Duration":102245,"SoundDuration":102245,"Delta":234818245},{"NoteNumber":32,"Velocity":69,"Duration":900829,"SoundDuration":900829,"Delta":234818245},{"NoteNumber":44,"Velocity":69,"Duration":900829,"SoundDuration":900829,"Delta":234818245},{"NoteNumber":61,"Velocity":68,"Duration":104312,"SoundDuration":104312,"Delta":234920490},{"NoteNumber":68,"Velocity":67,"Duration":106461,"SoundDuration":106461,"Delta":235024803},{"NoteNumber":56,"Velocity":66,"Duration":108703,"SoundDuration":108703,"Delta":235131265},{"NoteNumber":63,"Velocity":75,"Duration":111855,"SoundDuration":111855,"Delta":235239968},{"NoteNumber":60,"Velocity":63,"Duration":116925,"SoundDuration":116925,"Delta":235351824},{"NoteNumber":68,"Velocity":63,"Duration":122469,"SoundDuration":122469,"Delta":235468749},{"NoteNumber":56,"Velocity":62,"Duration":127855,"SoundDuration":127855,"Delta":235591218},{"NoteNumber":63,"Velocity":73,"Duration":96924,"SoundDuration":96924,"Delta":235719074},{"NoteNumber":37,"Velocity":93,"Duration":194156,"SoundDuration":194156,"Delta":235719074},{"NoteNumber":61,"Velocity":65,"Duration":97232,"SoundDuration":97232,"Delta":235815999},{"NoteNumber":68,"Velocity":65,"Duration":97535,"SoundDuration":97535,"Delta":235913231},{"NoteNumber":52,"Velocity":56,"Duration":194718,"SoundDuration":194718,"Delta":235913231},{"NoteNumber":56,"Velocity":65,"Duration":97182,"SoundDuration":97182,"Delta":236010766},{"NoteNumber":69,"Velocity":69,"Duration":95419,"SoundDuration":95419,"Delta":236107949},{"NoteNumber":49,"Velocity":58,"Duration":190839,"SoundDuration":190839,"Delta":236107949},{"NoteNumber":68,"Velocity":65,"Duration":95419,"SoundDuration":95419,"Delta":236203369},{"NoteNumber":76,"Velocity":83,"Duration":95419,"SoundDuration":95419,"Delta":236298789},{"NoteNumber":44,"Velocity":58,"Duration":190839,"SoundDuration":190839,"Delta":236298789},{"NoteNumber":64,"Velocity":64,"Duration":95419,"SoundDuration":95419,"Delta":236394209},{"NoteNumber":69,"Velocity":70,"Duration":95237,"SoundDuration":95237,"Delta":236489628},{"NoteNumber":37,"Velocity":63,"Duration":190475,"SoundDuration":190475,"Delta":236489628},{"NoteNumber":68,"Velocity":66,"Duration":95237,"SoundDuration":95237,"Delta":236584866},{"NoteNumber":76,"Velocity":83,"Duration":95238,"SoundDuration":95238,"Delta":236680104},{"NoteNumber":54,"Velocity":58,"Duration":190476,"SoundDuration":190476,"Delta":236680104},{"NoteNumber":64,"Velocity":60,"Duration":95237,"SoundDuration":95237,"Delta":236775342},{"NoteNumber":69,"Velocity":68,"Duration":97535,"SoundDuration":97535,"Delta":236870580},{"NoteNumber":48,"Velocity":58,"Duration":195071,"SoundDuration":195071,"Delta":236870580},{"NoteNumber":68,"Velocity":62,"Duration":97535,"SoundDuration":97535,"Delta":236968116},{"NoteNumber":75,"Velocity":79,"Duration":97535,"SoundDuration":97535,"Delta":237065651},{"NoteNumber":44,"Velocity":58,"Duration":195070,"SoundDuration":195070,"Delta":237065651},{"NoteNumber":63,"Velocity":71,"Duration":97535,"SoundDuration":97535,"Delta":237163187},{"NoteNumber":69,"Velocity":68,"Duration":96125,"SoundDuration":96125,"Delta":237260722},{"NoteNumber":37,"Velocity":63,"Duration":191544,"SoundDuration":191544,"Delta":237260722},{"NoteNumber":68,"Velocity":66,"Duration":95419,"SoundDuration":95419,"Delta":237356847},{"NoteNumber":75,"Velocity":83,"Duration":95419,"SoundDuration":95419,"Delta":237452267},{"NoteNumber":52,"Velocity":58,"Duration":190839,"SoundDuration":190839,"Delta":237452267},{"NoteNumber":64,"Velocity":60,"Duration":95419,"SoundDuration":95419,"Delta":237547687},{"NoteNumber":69,"Velocity":68,"Duration":97535,"SoundDuration":97535,"Delta":237643107},{"NoteNumber":49,"Velocity":58,"Duration":195071,"SoundDuration":195071,"Delta":237643107},{"NoteNumber":68,"Velocity":62,"Duration":97535,"SoundDuration":97535,"Delta":237740642},{"NoteNumber":73,"Velocity":79,"Duration":97535,"SoundDuration":97535,"Delta":237838178},{"NoteNumber":44,"Velocity":58,"Duration":195070,"SoundDuration":195070,"Delta":237838178},{"NoteNumber":61,"Velocity":71,"Duration":97535,"SoundDuration":97535,"Delta":237935713},{"NoteNumber":64,"Velocity":54,"Duration":95123,"SoundDuration":95123,"Delta":238033249},{"NoteNumber":37,"Velocity":47,"Duration":190246,"SoundDuration":190246,"Delta":238033249},{"NoteNumber":63,"Velocity":49,"Duration":95123,"SoundDuration":95123,"Delta":238128372},{"NoteNumber":68,"Velocity":62,"Duration":95123,"SoundDuration":95123,"Delta":238223495},{"NoteNumber":54,"Velocity":43,"Duration":190246,"SoundDuration":190246,"Delta":238223495},{"NoteNumber":56,"Velocity":45,"Duration":95123,"SoundDuration":95123,"Delta":238318618},{"NoteNumber":64,"Velocity":51,"Duration":97535,"SoundDuration":97535,"Delta":238413742},{"NoteNumber":48,"Velocity":43,"Duration":195071,"SoundDuration":195071,"Delta":238413742},{"NoteNumber":63,"Velocity":46,"Duration":97535,"SoundDuration":97535,"Delta":238511277},{"NoteNumber":68,"Velocity":59,"Duration":97535,"SoundDuration":97535,"Delta":238608813},{"NoteNumber":44,"Velocity":43,"Duration":195070,"SoundDuration":195070,"Delta":238608813},{"NoteNumber":56,"Velocity":53,"Duration":97535,"SoundDuration":97535,"Delta":238706348},{"NoteNumber":63,"Velocity":54,"Duration":98477,"SoundDuration":98477,"Delta":238803884},{"NoteNumber":37,"Velocity":47,"Duration":196954,"SoundDuration":196954,"Delta":238803884},{"NoteNumber":61,"Velocity":49,"Duration":98477,"SoundDuration":98477,"Delta":238902361},{"NoteNumber":68,"Velocity":62,"Duration":98477,"SoundDuration":98477,"Delta":239000838},{"NoteNumber":52,"Velocity":43,"Duration":196954,"SoundDuration":196954,"Delta":239000838},{"NoteNumber":56,"Velocity":45,"Duration":98477,"SoundDuration":98477,"Delta":239099315},{"NoteNumber":69,"Velocity":67,"Duration":95717,"SoundDuration":95717,"Delta":239197792},{"NoteNumber":49,"Velocity":58,"Duration":191137,"SoundDuration":191137,"Delta":239197792},{"NoteNumber":68,"Velocity":65,"Duration":95419,"SoundDuration":95419,"Delta":239293509},{"NoteNumber":76,"Velocity":83,"Duration":95419,"SoundDuration":95419,"Delta":239388929},{"NoteNumber":44,"Velocity":58,"Duration":190839,"SoundDuration":190839,"Delta":239388929},{"NoteNumber":64,"Velocity":64,"Duration":95419,"SoundDuration":95419,"Delta":239484349},{"NoteNumber":69,"Velocity":68,"Duration":95419,"SoundDuration":95419,"Delta":239579769},{"NoteNumber":37,"Velocity":63,"Duration":190839,"SoundDuration":190839,"Delta":239579769},{"NoteNumber":68,"Velocity":66,"Duration":95419,"SoundDuration":95419,"Delta":239675188},{"NoteNumber":76,"Velocity":83,"Duration":95419,"SoundDuration":95419,"Delta":239770608},{"NoteNumber":54,"Velocity":58,"Duration":190839,"SoundDuration":190839,"Delta":239770608},{"NoteNumber":64,"Velocity":60,"Duration":95419,"SoundDuration":95419,"Delta":239866028},{"NoteNumber":69,"Velocity":65,"Duration":97535,"SoundDuration":97535,"Delta":239961448},{"NoteNumber":48,"Velocity":58,"Duration":195071,"SoundDuration":195071,"Delta":239961448},{"NoteNumber":68,"Velocity":62,"Duration":97535,"SoundDuration":97535,"Delta":240058983},{"NoteNumber":75,"Velocity":79,"Duration":97535,"SoundDuration":97535,"Delta":240156519},{"NoteNumber":44,"Velocity":58,"Duration":195070,"SoundDuration":195070,"Delta":240156519},{"NoteNumber":63,"Velocity":66,"Duration":97535,"SoundDuration":97535,"Delta":240254054},{"NoteNumber":69,"Velocity":66,"Duration":96125,"SoundDuration":96125,"Delta":240351590},{"NoteNumber":37,"Velocity":63,"Duration":191544,"SoundDuration":191544,"Delta":240351590},{"NoteNumber":68,"Velocity":66,"Duration":95419,"SoundDuration":95419,"Delta":240447715},{"NoteNumber":75,"Velocity":83,"Duration":95419,"SoundDuration":95419,"Delta":240543134},{"NoteNumber":52,"Velocity":58,"Duration":190839,"SoundDuration":190839,"Delta":240543134},{"NoteNumber":64,"Velocity":60,"Duration":95419,"SoundDuration":95419,"Delta":240638554},{"NoteNumber":69,"Velocity":67,"Duration":97535,"SoundDuration":97535,"Delta":240733974},{"NoteNumber":49,"Velocity":58,"Duration":195071,"SoundDuration":195071,"Delta":240733974},{"NoteNumber":68,"Velocity":62,"Duration":97535,"SoundDuration":97535,"Delta":240831509},{"NoteNumber":73,"Velocity":79,"Duration":97535,"SoundDuration":97535,"Delta":240929045},{"NoteNumber":44,"Velocity":58,"Duration":195070,"SoundDuration":195070,"Delta":240929045},{"NoteNumber":61,"Velocity":71,"Duration":97535,"SoundDuration":97535,"Delta":241026580},{"NoteNumber":64,"Velocity":54,"Duration":95123,"SoundDuration":95123,"Delta":241124116},{"NoteNumber":37,"Velocity":47,"Duration":190246,"SoundDuration":190246,"Delta":241124116},{"NoteNumber":63,"Velocity":49,"Duration":95123,"SoundDuration":95123,"Delta":241219239},{"NoteNumber":68,"Velocity":62,"Duration":95123,"SoundDuration":95123,"Delta":241314362},{"NoteNumber":54,"Velocity":36,"Duration":190246,"SoundDuration":190246,"Delta":241314362},{"NoteNumber":56,"Velocity":45,"Duration":95123,"SoundDuration":95123,"Delta":241409486},{"NoteNumber":64,"Velocity":51,"Duration":97535,"SoundDuration":97535,"Delta":241504609},{"NoteNumber":48,"Velocity":36,"Duration":195071,"SoundDuration":195071,"Delta":241504609},{"NoteNumber":63,"Velocity":46,"Duration":97535,"SoundDuration":97535,"Delta":241602144},{"NoteNumber":68,"Velocity":59,"Duration":97535,"SoundDuration":97535,"Delta":241699680},{"NoteNumber":44,"Velocity":36,"Duration":195070,"SoundDuration":195070,"Delta":241699680},{"NoteNumber":56,"Velocity":53,"Duration":97535,"SoundDuration":97535,"Delta":241797215},{"NoteNumber":63,"Velocity":54,"Duration":96924,"SoundDuration":96924,"Delta":241894751},{"NoteNumber":37,"Velocity":39,"Duration":193848,"SoundDuration":193848,"Delta":241894751},{"NoteNumber":61,"Velocity":49,"Duration":96924,"SoundDuration":96924,"Delta":241991675},{"NoteNumber":68,"Velocity":62,"Duration":96924,"SoundDuration":96924,"Delta":242088599},{"NoteNumber":52,"Velocity":36,"Duration":193848,"SoundDuration":193848,"Delta":242088599},{"NoteNumber":56,"Velocity":45,"Duration":96924,"SoundDuration":96924,"Delta":242185524},{"NoteNumber":69,"Velocity":55,"Duration":95717,"SoundDuration":95717,"Delta":242282448},{"NoteNumber":49,"Velocity":36,"Duration":191137,"SoundDuration":191137,"Delta":242282448},{"NoteNumber":68,"Velocity":48,"Duration":95419,"SoundDuration":95419,"Delta":242378166},{"NoteNumber":76,"Velocity":62,"Duration":95419,"SoundDuration":95419,"Delta":242473586},{"NoteNumber":44,"Velocity":36,"Duration":190839,"SoundDuration":190839,"Delta":242473586},{"NoteNumber":64,"Velocity":48,"Duration":95419,"SoundDuration":95419,"Delta":242569005},{"NoteNumber":66,"Velocity":54,"Duration":95419,"SoundDuration":95419,"Delta":242664425},{"NoteNumber":37,"Velocity":39,"Duration":190839,"SoundDuration":190839,"Delta":242664425},{"NoteNumber":64,"Velocity":49,"Duration":95419,"SoundDuration":95419,"Delta":242759845},{"NoteNumber":73,"Velocity":62,"Duration":95419,"SoundDuration":95419,"Delta":242855265},{"NoteNumber":56,"Velocity":36,"Duration":190839,"SoundDuration":190839,"Delta":242855265},{"NoteNumber":61,"Velocity":45,"Duration":95419,"SoundDuration":95419,"Delta":242950684},{"NoteNumber":69,"Velocity":51,"Duration":97535,"SoundDuration":97535,"Delta":243046104},{"NoteNumber":49,"Velocity":36,"Duration":195071,"SoundDuration":195071,"Delta":243046104},{"NoteNumber":68,"Velocity":46,"Duration":97535,"SoundDuration":97535,"Delta":243143640},{"NoteNumber":76,"Velocity":59,"Duration":97535,"SoundDuration":97535,"Delta":243241175},{"NoteNumber":44,"Velocity":36,"Duration":195070,"SoundDuration":195070,"Delta":243241175},{"NoteNumber":64,"Velocity":53,"Duration":97535,"SoundDuration":97535,"Delta":243338711},{"NoteNumber":63,"Velocity":54,"Duration":96924,"SoundDuration":96924,"Delta":243436246},{"NoteNumber":37,"Velocity":39,"Duration":193848,"SoundDuration":193848,"Delta":243436246},{"NoteNumber":61,"Velocity":49,"Duration":96924,"SoundDuration":96924,"Delta":243533170},{"NoteNumber":68,"Velocity":62,"Duration":96924,"SoundDuration":96924,"Delta":243630095},{"NoteNumber":52,"Velocity":36,"Duration":193848,"SoundDuration":193848,"Delta":243630095},{"NoteNumber":56,"Velocity":45,"Duration":96924,"SoundDuration":96924,"Delta":243727019},{"NoteNumber":69,"Velocity":55,"Duration":95717,"SoundDuration":95717,"Delta":243823943},{"NoteNumber":49,"Velocity":36,"Duration":191137,"SoundDuration":191137,"Delta":243823943},{"NoteNumber":68,"Velocity":48,"Duration":95419,"SoundDuration":95419,"Delta":243919661},{"NoteNumber":76,"Velocity":62,"Duration":95419,"SoundDuration":95419,"Delta":244015081},{"NoteNumber":44,"Velocity":36,"Duration":190839,"SoundDuration":190839,"Delta":244015081},{"NoteNumber":64,"Velocity":48,"Duration":95419,"SoundDuration":95419,"Delta":244110501},{"NoteNumber":66,"Velocity":54,"Duration":95419,"SoundDuration":95419,"Delta":244205920},{"NoteNumber":37,"Velocity":39,"Duration":190839,"SoundDuration":190839,"Delta":244205920},{"NoteNumber":64,"Velocity":49,"Duration":95419,"SoundDuration":95419,"Delta":244301340},{"NoteNumber":73,"Velocity":62,"Duration":95419,"SoundDuration":95419,"Delta":244396760},{"NoteNumber":56,"Velocity":36,"Duration":190839,"SoundDuration":190839,"Delta":244396760},{"NoteNumber":61,"Velocity":45,"Duration":95419,"SoundDuration":95419,"Delta":244492180},{"NoteNumber":69,"Velocity":51,"Duration":97535,"SoundDuration":97535,"Delta":244587599},{"NoteNumber":49,"Velocity":36,"Duration":195071,"SoundDuration":195071,"Delta":244587599},{"NoteNumber":68,"Velocity":46,"Duration":97535,"SoundDuration":97535,"Delta":244685135},{"NoteNumber":76,"Velocity":59,"Duration":97535,"SoundDuration":97535,"Delta":244782670},{"NoteNumber":44,"Velocity":36,"Duration":195238,"SoundDuration":195238,"Delta":244782670},{"NoteNumber":64,"Velocity":53,"Duration":97703,"SoundDuration":97703,"Delta":244880206},{"NoteNumber":66,"Velocity":54,"Duration":98039,"SoundDuration":98039,"Delta":244977909},{"NoteNumber":37,"Velocity":39,"Duration":196078,"SoundDuration":196078,"Delta":244977909},{"NoteNumber":64,"Velocity":49,"Duration":98039,"SoundDuration":98039,"Delta":245075948},{"NoteNumber":73,"Velocity":61,"Duration":98039,"SoundDuration":98039,"Delta":245173988},{"NoteNumber":52,"Velocity":35,"Duration":196078,"SoundDuration":196078,"Delta":245173988},{"NoteNumber":61,"Velocity":44,"Duration":98039,"SoundDuration":98039,"Delta":245272027},{"NoteNumber":69,"Velocity":53,"Duration":95541,"SoundDuration":95541,"Delta":245370066},{"NoteNumber":49,"Velocity":35,"Duration":191082,"SoundDuration":191082,"Delta":245370066},{"NoteNumber":68,"Velocity":46,"Duration":95541,"SoundDuration":95541,"Delta":245465608},{"NoteNumber":73,"Velocity":60,"Duration":95541,"SoundDuration":95541,"Delta":245561149},{"NoteNumber":44,"Velocity":34,"Duration":191083,"SoundDuration":191083,"Delta":245561149},{"NoteNumber":61,"Velocity":46,"Duration":95541,"SoundDuration":95541,"Delta":245656691},{"NoteNumber":66,"Velocity":51,"Duration":95541,"SoundDuration":95541,"Delta":245752232},{"NoteNumber":37,"Velocity":38,"Duration":191082,"SoundDuration":191082,"Delta":245752232},{"NoteNumber":64,"Velocity":46,"Duration":95541,"SoundDuration":95541,"Delta":245847774},{"NoteNumber":73,"Velocity":58,"Duration":95541,"SoundDuration":95541,"Delta":245943315},{"NoteNumber":52,"Velocity":34,"Duration":191082,"SoundDuration":191082,"Delta":245943315},{"NoteNumber":61,"Velocity":42,"Duration":95541,"SoundDuration":95541,"Delta":246038857},{"NoteNumber":69,"Velocity":47,"Duration":97535,"SoundDuration":97535,"Delta":246134398},{"NoteNumber":49,"Velocity":33,"Duration":195071,"SoundDuration":195071,"Delta":246134398},{"NoteNumber":68,"Velocity":42,"Duration":97535,"SoundDuration":97535,"Delta":246231934},{"NoteNumber":73,"Velocity":54,"Duration":97535,"SoundDuration":97535,"Delta":246329469},{"NoteNumber":44,"Velocity":33,"Duration":195070,"SoundDuration":195070,"Delta":246329469},{"NoteNumber":61,"Velocity":48,"Duration":97535,"SoundDuration":97535,"Delta":246427005},{"NoteNumber":66,"Velocity":48,"Duration":97719,"SoundDuration":97719,"Delta":246524540},{"NoteNumber":37,"Velocity":35,"Duration":195439,"SoundDuration":195439,"Delta":246524540},{"NoteNumber":64,"Velocity":44,"Duration":97719,"SoundDuration":97719,"Delta":246622260},{"NoteNumber":73,"Velocity":55,"Duration":97719,"SoundDuration":97719,"Delta":246719980},{"NoteNumber":52,"Velocity":31,"Duration":195439,"SoundDuration":195439,"Delta":246719980},{"NoteNumber":61,"Velocity":40,"Duration":97719,"SoundDuration":97719,"Delta":246817699},{"NoteNumber":69,"Velocity":48,"Duration":95541,"SoundDuration":95541,"Delta":246915419},{"NoteNumber":49,"Velocity":31,"Duration":191082,"SoundDuration":191082,"Delta":246915419},{"NoteNumber":68,"Velocity":41,"Duration":95541,"SoundDuration":95541,"Delta":247010961},{"NoteNumber":73,"Velocity":53,"Duration":95541,"SoundDuration":95541,"Delta":247106502},{"NoteNumber":44,"Velocity":30,"Duration":191083,"SoundDuration":191083,"Delta":247106502},{"NoteNumber":61,"Velocity":41,"Duration":95541,"SoundDuration":95541,"Delta":247202044},{"NoteNumber":66,"Velocity":45,"Duration":95541,"SoundDuration":95541,"Delta":247297585},{"NoteNumber":37,"Velocity":34,"Duration":191082,"SoundDuration":191082,"Delta":247297585},{"NoteNumber":64,"Velocity":41,"Duration":95541,"SoundDuration":95541,"Delta":247393127},{"NoteNumber":73,"Velocity":52,"Duration":95541,"SoundDuration":95541,"Delta":247488668},{"NoteNumber":52,"Velocity":30,"Duration":191082,"SoundDuration":191082,"Delta":247488668},{"NoteNumber":61,"Velocity":37,"Duration":95541,"SoundDuration":95541,"Delta":247584210},{"NoteNumber":69,"Velocity":42,"Duration":97535,"SoundDuration":97535,"Delta":247679751},{"NoteNumber":49,"Velocity":29,"Duration":195071,"SoundDuration":195071,"Delta":247679751},{"NoteNumber":68,"Velocity":37,"Duration":97535,"SoundDuration":97535,"Delta":247777287},{"NoteNumber":73,"Velocity":48,"Duration":97535,"SoundDuration":97535,"Delta":247874822},{"NoteNumber":44,"Velocity":29,"Duration":195070,"SoundDuration":195070,"Delta":247874822},{"NoteNumber":61,"Velocity":42,"Duration":97535,"SoundDuration":97535,"Delta":247972358},{"NoteNumber":63,"Velocity":43,"Duration":98039,"SoundDuration":98039,"Delta":248069893},{"NoteNumber":37,"Velocity":31,"Duration":392156,"SoundDuration":392156,"Delta":248069893},{"NoteNumber":61,"Velocity":39,"Duration":98039,"SoundDuration":98039,"Delta":248167932},{"NoteNumber":68,"Velocity":49,"Duration":98039,"SoundDuration":98039,"Delta":248265972},{"NoteNumber":56,"Velocity":36,"Duration":98039,"SoundDuration":98039,"Delta":248364011},{"NoteNumber":63,"Velocity":44,"Duration":96462,"SoundDuration":96462,"Delta":248462050},{"NoteNumber":61,"Velocity":38,"Duration":96462,"SoundDuration":96462,"Delta":248558513},{"NoteNumber":68,"Velocity":49,"Duration":96462,"SoundDuration":96462,"Delta":248654976},{"NoteNumber":56,"Velocity":38,"Duration":96462,"SoundDuration":96462,"Delta":248751439},{"NoteNumber":63,"Velocity":43,"Duration":96462,"SoundDuration":96462,"Delta":248847902},{"NoteNumber":61,"Velocity":39,"Duration":96462,"SoundDuration":96462,"Delta":248944365},{"NoteNumber":68,"Velocity":49,"Duration":96462,"SoundDuration":96462,"Delta":249040828},{"NoteNumber":56,"Velocity":36,"Duration":96462,"SoundDuration":96462,"Delta":249137291},{"NoteNumber":63,"Velocity":40,"Duration":99337,"SoundDuration":99337,"Delta":249233754},{"NoteNumber":61,"Velocity":36,"Duration":99337,"SoundDuration":99337,"Delta":249333092},{"NoteNumber":68,"Velocity":47,"Duration":99337,"SoundDuration":99337,"Delta":249432430},{"NoteNumber":56,"Velocity":42,"Duration":99337,"SoundDuration":99337,"Delta":249531767},{"NoteNumber":63,"Velocity":43,"Duration":97719,"SoundDuration":97719,"Delta":249631105},{"NoteNumber":61,"Velocity":39,"Duration":97719,"SoundDuration":97719,"Delta":249728825},{"NoteNumber":68,"Velocity":48,"Duration":97719,"SoundDuration":97719,"Delta":249826545},{"NoteNumber":56,"Velocity":35,"Duration":97719,"SoundDuration":97719,"Delta":249924264},{"NoteNumber":63,"Velocity":42,"Duration":96462,"SoundDuration":96462,"Delta":250021984},{"NoteNumber":61,"Velocity":36,"Duration":96462,"SoundDuration":96462,"Delta":250118447},{"NoteNumber":68,"Velocity":46,"Duration":96462,"SoundDuration":96462,"Delta":250214910},{"NoteNumber":56,"Velocity":35,"Duration":96462,"SoundDuration":96462,"Delta":250311373},{"NoteNumber":63,"Velocity":39,"Duration":96462,"SoundDuration":96462,"Delta":250407836},{"NoteNumber":61,"Velocity":35,"Duration":96462,"SoundDuration":96462,"Delta":250504299},{"NoteNumber":68,"Velocity":44,"Duration":96462,"SoundDuration":96462,"Delta":250600762},{"NoteNumber":56,"Velocity":32,"Duration":96462,"SoundDuration":96462,"Delta":250697225},{"NoteNumber":63,"Velocity":35,"Duration":98147,"SoundDuration":98147,"Delta":250793688},{"NoteNumber":61,"Velocity":31,"Duration":99670,"SoundDuration":99670,"Delta":250891836},{"NoteNumber":68,"Velocity":40,"Duration":101354,"SoundDuration":101354,"Delta":250991507},{"NoteNumber":56,"Velocity":36,"Duration":103095,"SoundDuration":103095,"Delta":251092861},{"NoteNumber":63,"Velocity":36,"Duration":96924,"SoundDuration":96924,"Delta":251195957},{"NoteNumber":37,"Velocity":39,"Duration":1541495,"SoundDuration":1541495,"Delta":251195957},{"NoteNumber":44,"Velocity":48,"Duration":1541495,"SoundDuration":1541495,"Delta":251195957},{"NoteNumber":61,"Velocity":33,"Duration":96924,"SoundDuration":96924,"Delta":251292881},{"NoteNumber":68,"Velocity":41,"Duration":96924,"SoundDuration":96924,"Delta":251389806},{"NoteNumber":56,"Velocity":30,"Duration":96924,"SoundDuration":96924,"Delta":251486730},{"NoteNumber":63,"Velocity":37,"Duration":95717,"SoundDuration":95717,"Delta":251583654},{"NoteNumber":61,"Velocity":32,"Duration":95419,"SoundDuration":95419,"Delta":251679372},{"NoteNumber":68,"Velocity":41,"Duration":95419,"SoundDuration":95419,"Delta":251774792},{"NoteNumber":56,"Velocity":32,"Duration":95419,"SoundDuration":95419,"Delta":251870212},{"NoteNumber":63,"Velocity":36,"Duration":95419,"SoundDuration":95419,"Delta":251965631},{"NoteNumber":61,"Velocity":33,"Duration":95419,"SoundDuration":95419,"Delta":252061051},{"NoteNumber":68,"Velocity":41,"Duration":95419,"SoundDuration":95419,"Delta":252156471},{"NoteNumber":56,"Velocity":30,"Duration":95419,"SoundDuration":95419,"Delta":252251891},{"NoteNumber":63,"Velocity":34,"Duration":97535,"SoundDuration":97535,"Delta":252347310},{"NoteNumber":61,"Velocity":30,"Duration":97535,"SoundDuration":97535,"Delta":252444846},{"NoteNumber":68,"Velocity":39,"Duration":97535,"SoundDuration":97535,"Delta":252542381},{"NoteNumber":56,"Velocity":35,"Duration":97535,"SoundDuration":97535,"Delta":252639917},{"NoteNumber":63,"Velocity":36,"Duration":96924,"SoundDuration":96924,"Delta":252737452},{"NoteNumber":46,"Velocity":47,"Duration":387697,"SoundDuration":387697,"Delta":252737452},{"NoteNumber":61,"Velocity":33,"Duration":96924,"SoundDuration":96924,"Delta":252834377},{"NoteNumber":68,"Velocity":41,"Duration":96924,"SoundDuration":96924,"Delta":252931301},{"NoteNumber":56,"Velocity":30,"Duration":96924,"SoundDuration":96924,"Delta":253028225},{"NoteNumber":63,"Velocity":37,"Duration":95717,"SoundDuration":95717,"Delta":253125149},{"NoteNumber":44,"Velocity":50,"Duration":381977,"SoundDuration":381977,"Delta":253125149},{"NoteNumber":61,"Velocity":32,"Duration":95419,"SoundDuration":95419,"Delta":253220867},{"NoteNumber":68,"Velocity":41,"Duration":95419,"SoundDuration":95419,"Delta":253316287},{"NoteNumber":56,"Velocity":32,"Duration":95419,"SoundDuration":95419,"Delta":253411707},{"NoteNumber":63,"Velocity":36,"Duration":95419,"SoundDuration":95419,"Delta":253507126},{"NoteNumber":49,"Velocity":52,"Duration":381678,"SoundDuration":381678,"Delta":253507126},{"NoteNumber":61,"Velocity":33,"Duration":95419,"SoundDuration":95419,"Delta":253602546},{"NoteNumber":68,"Velocity":41,"Duration":95419,"SoundDuration":95419,"Delta":253697966},{"NoteNumber":56,"Velocity":30,"Duration":95419,"SoundDuration":95419,"Delta":253793386},{"NoteNumber":63,"Velocity":34,"Duration":97535,"SoundDuration":97535,"Delta":253888805},{"NoteNumber":51,"Velocity":56,"Duration":390141,"SoundDuration":390141,"Delta":253888805},{"NoteNumber":61,"Velocity":30,"Duration":97535,"SoundDuration":97535,"Delta":253986341},{"NoteNumber":68,"Velocity":39,"Duration":97535,"SoundDuration":97535,"Delta":254083876},{"NoteNumber":56,"Velocity":35,"Duration":97535,"SoundDuration":97535,"Delta":254181412},{"NoteNumber":63,"Velocity":36,"Duration":96924,"SoundDuration":96924,"Delta":254278947},{"NoteNumber":53,"Velocity":58,"Duration":1541495,"SoundDuration":1541495,"Delta":254278947},{"NoteNumber":61,"Velocity":33,"Duration":96924,"SoundDuration":96924,"Delta":254375872},{"NoteNumber":68,"Velocity":41,"Duration":96924,"SoundDuration":96924,"Delta":254472796},{"NoteNumber":56,"Velocity":30,"Duration":96924,"SoundDuration":96924,"Delta":254569720},{"NoteNumber":63,"Velocity":37,"Duration":95717,"SoundDuration":95717,"Delta":254666644},{"NoteNumber":61,"Velocity":32,"Duration":95419,"SoundDuration":95419,"Delta":254762362},{"NoteNumber":68,"Velocity":41,"Duration":95419,"SoundDuration":95419,"Delta":254857782},{"NoteNumber":56,"Velocity":32,"Duration":95419,"SoundDuration":95419,"Delta":254953202},{"NoteNumber":63,"Velocity":36,"Duration":95419,"SoundDuration":95419,"Delta":255048622},{"NoteNumber":61,"Velocity":33,"Duration":95419,"SoundDuration":95419,"Delta":255144041},{"NoteNumber":68,"Velocity":41,"Duration":95419,"SoundDuration":95419,"Delta":255239461},{"NoteNumber":56,"Velocity":30,"Duration":95419,"SoundDuration":95419,"Delta":255334881},{"NoteNumber":63,"Velocity":34,"Duration":97535,"SoundDuration":97535,"Delta":255430301},{"NoteNumber":61,"Velocity":30,"Duration":97535,"SoundDuration":97535,"Delta":255527836},{"NoteNumber":68,"Velocity":39,"Duration":97535,"SoundDuration":97535,"Delta":255625372},{"NoteNumber":56,"Velocity":35,"Duration":97535,"SoundDuration":97535,"Delta":255722907},{"NoteNumber":63,"Velocity":36,"Duration":96924,"SoundDuration":96924,"Delta":255820443},{"NoteNumber":56,"Velocity":60,"Duration":1541495,"SoundDuration":1541495,"Delta":255820443},{"NoteNumber":61,"Velocity":33,"Duration":96924,"SoundDuration":96924,"Delta":255917367},{"NoteNumber":68,"Velocity":41,"Duration":96924,"SoundDuration":96924,"Delta":256014291},{"NoteNumber":56,"Velocity":30,"Duration":96924,"SoundDuration":96924,"Delta":256111215},{"NoteNumber":63,"Velocity":37,"Duration":95717,"SoundDuration":95717,"Delta":256208140},{"NoteNumber":61,"Velocity":32,"Duration":95419,"SoundDuration":95419,"Delta":256303858},{"NoteNumber":68,"Velocity":41,"Duration":95419,"SoundDuration":95419,"Delta":256399277},{"NoteNumber":56,"Velocity":32,"Duration":95419,"SoundDuration":95419,"Delta":256494697},{"NoteNumber":63,"Velocity":36,"Duration":95419,"SoundDuration":95419,"Delta":256590117},{"NoteNumber":61,"Velocity":33,"Duration":95419,"SoundDuration":95419,"Delta":256685537},{"NoteNumber":68,"Velocity":41,"Duration":95419,"SoundDuration":95419,"Delta":256780956},{"NoteNumber":56,"Velocity":30,"Duration":95419,"SoundDuration":95419,"Delta":256876376},{"NoteNumber":63,"Velocity":34,"Duration":97535,"SoundDuration":97535,"Delta":256971796},{"NoteNumber":61,"Velocity":30,"Duration":97535,"SoundDuration":97535,"Delta":257069331},{"NoteNumber":68,"Velocity":39,"Duration":97535,"SoundDuration":97535,"Delta":257166867},{"NoteNumber":56,"Velocity":35,"Duration":97535,"SoundDuration":97535,"Delta":257264402},{"NoteNumber":63,"Velocity":36,"Duration":96924,"SoundDuration":96924,"Delta":257361938},{"NoteNumber":54,"Velocity":56,"Duration":769674,"SoundDuration":769674,"Delta":257361938},{"NoteNumber":61,"Velocity":33,"Duration":96924,"SoundDuration":96924,"Delta":257458862},{"NoteNumber":68,"Velocity":41,"Duration":96924,"SoundDuration":96924,"Delta":257555786},{"NoteNumber":56,"Velocity":30,"Duration":96924,"SoundDuration":96924,"Delta":257652711},{"NoteNumber":63,"Velocity":37,"Duration":95717,"SoundDuration":95717,"Delta":257749635},{"NoteNumber":61,"Velocity":32,"Duration":95419,"SoundDuration":95419,"Delta":257845353},{"NoteNumber":68,"Velocity":41,"Duration":95419,"SoundDuration":95419,"Delta":257940772},{"NoteNumber":56,"Velocity":32,"Duration":95419,"SoundDuration":95419,"Delta":258036192},{"NoteNumber":63,"Velocity":36,"Duration":95419,"SoundDuration":95419,"Delta":258131612},{"NoteNumber":53,"Velocity":56,"Duration":771821,"SoundDuration":771821,"Delta":258131612},{"NoteNumber":61,"Velocity":33,"Duration":95419,"SoundDuration":95419,"Delta":258227032},{"NoteNumber":68,"Velocity":41,"Duration":95419,"SoundDuration":95419,"Delta":258322451},{"NoteNumber":56,"Velocity":30,"Duration":95419,"SoundDuration":95419,"Delta":258417871},{"NoteNumber":63,"Velocity":34,"Duration":97535,"SoundDuration":97535,"Delta":258513291},{"NoteNumber":61,"Velocity":30,"Duration":97535,"SoundDuration":97535,"Delta":258610826},{"NoteNumber":68,"Velocity":39,"Duration":97535,"SoundDuration":97535,"Delta":258708362},{"NoteNumber":56,"Velocity":35,"Duration":97535,"SoundDuration":97535,"Delta":258805897},{"NoteNumber":63,"Velocity":36,"Duration":96924,"SoundDuration":96924,"Delta":258903433},{"NoteNumber":51,"Velocity":57,"Duration":769674,"SoundDuration":769674,"Delta":258903433},{"NoteNumber":61,"Velocity":33,"Duration":96924,"SoundDuration":96924,"Delta":259000357},{"NoteNumber":68,"Velocity":41,"Duration":96924,"SoundDuration":96924,"Delta":259097281},{"NoteNumber":56,"Velocity":30,"Duration":96924,"SoundDuration":96924,"Delta":259194206},{"NoteNumber":63,"Velocity":37,"Duration":95717,"SoundDuration":95717,"Delta":259291130},{"NoteNumber":61,"Velocity":32,"Duration":95419,"SoundDuration":95419,"Delta":259386848},{"NoteNumber":68,"Velocity":41,"Duration":95419,"SoundDuration":95419,"Delta":259482268},{"NoteNumber":56,"Velocity":32,"Duration":95419,"SoundDuration":95419,"Delta":259577687},{"NoteNumber":63,"Velocity":36,"Duration":96774,"SoundDuration":96774,"Delta":259673107},{"NoteNumber":53,"Velocity":56,"Duration":387096,"SoundDuration":387096,"Delta":259673107},{"NoteNumber":61,"Velocity":33,"Duration":96774,"SoundDuration":96774,"Delta":259769881},{"NoteNumber":68,"Velocity":41,"Duration":96774,"SoundDuration":96774,"Delta":259866656},{"NoteNumber":56,"Velocity":30,"Duration":96774,"SoundDuration":96774,"Delta":259963430},{"NoteNumber":63,"Velocity":34,"Duration":100671,"SoundDuration":100671,"Delta":260060204},{"NoteNumber":49,"Velocity":48,"Duration":402685,"SoundDuration":402685,"Delta":260060204},{"NoteNumber":61,"Velocity":30,"Duration":100671,"SoundDuration":100671,"Delta":260160875},{"NoteNumber":68,"Velocity":39,"Duration":100671,"SoundDuration":100671,"Delta":260261547},{"NoteNumber":56,"Velocity":35,"Duration":100671,"SoundDuration":100671,"Delta":260362218},{"NoteNumber":63,"Velocity":36,"Duration":104529,"SoundDuration":104529,"Delta":260462889},{"NoteNumber":44,"Velocity":53,"Duration":1659214,"SoundDuration":1659214,"Delta":260462889},{"NoteNumber":61,"Velocity":29,"Duration":104529,"SoundDuration":104529,"Delta":260567419},{"NoteNumber":68,"Velocity":35,"Duration":104529,"SoundDuration":104529,"Delta":260671948},{"NoteNumber":53,"Velocity":37,"Duration":104529,"SoundDuration":104529,"Delta":260776478},{"NoteNumber":63,"Velocity":44,"Duration":101715,"SoundDuration":101715,"Delta":260881007},{"NoteNumber":61,"Velocity":28,"Duration":102739,"SoundDuration":102739,"Delta":260982723},{"NoteNumber":68,"Velocity":36,"Duration":102739,"SoundDuration":102739,"Delta":261085463},{"NoteNumber":53,"Velocity":37,"Duration":102739,"SoundDuration":102739,"Delta":261188202},{"NoteNumber":63,"Velocity":43,"Duration":102739,"SoundDuration":102739,"Delta":261290942},{"NoteNumber":61,"Velocity":29,"Duration":102739,"SoundDuration":102739,"Delta":261393682},{"NoteNumber":68,"Velocity":37,"Duration":102739,"SoundDuration":102739,"Delta":261496422},{"NoteNumber":53,"Velocity":37,"Duration":102739,"SoundDuration":102739,"Delta":261599161},{"NoteNumber":63,"Velocity":45,"Duration":105517,"SoundDuration":105517,"Delta":261701901},{"NoteNumber":61,"Velocity":27,"Duration":104894,"SoundDuration":104894,"Delta":261807418},{"NoteNumber":68,"Velocity":36,"Duration":104894,"SoundDuration":104894,"Delta":261912313},{"NoteNumber":53,"Velocity":31,"Duration":104894,"SoundDuration":104894,"Delta":262017208},{"NoteNumber":65,"Velocity":32,"Duration":106761,"SoundDuration":106761,"Delta":262122103},{"NoteNumber":32,"Velocity":50,"Duration":1857811,"SoundDuration":1857811,"Delta":262122103},{"NoteNumber":44,"Velocity":50,"Duration":1857811,"SoundDuration":1857811,"Delta":262122103},{"NoteNumber":63,"Velocity":29,"Duration":106761,"SoundDuration":106761,"Delta":262234203},{"NoteNumber":68,"Velocity":35,"Duration":106761,"SoundDuration":106761,"Delta":262335626},{"NoteNumber":54,"Velocity":38,"Duration":106761,"SoundDuration":106761,"Delta":262442388},{"NoteNumber":65,"Velocity":44,"Duration":115831,"SoundDuration":115831,"Delta":262549149},{"NoteNumber":63,"Velocity":28,"Duration":117035,"SoundDuration":117035,"Delta":262664980},{"NoteNumber":68,"Velocity":35,"Duration":117802,"SoundDuration":117802,"Delta":262782016},{"NoteNumber":54,"Velocity":38,"Duration":118265,"SoundDuration":118265,"Delta":262899819},{"NoteNumber":65,"Velocity":42,"Duration":118757,"SoundDuration":118757,"Delta":263024013},{"NoteNumber":63,"Velocity":29,"Duration":119229,"SoundDuration":119229,"Delta":263142771},{"NoteNumber":68,"Velocity":37,"Duration":119522,"SoundDuration":119522,"Delta":263256024},{"NoteNumber":54,"Velocity":37,"Duration":120000,"SoundDuration":120000,"Delta":263375546},{"NoteNumber":65,"Velocity":40,"Duration":120481,"SoundDuration":120481,"Delta":263495546},{"NoteNumber":63,"Velocity":27,"Duration":120805,"SoundDuration":120805,"Delta":263616028},{"NoteNumber":68,"Velocity":35,"Duration":121294,"SoundDuration":121294,"Delta":263736834},{"NoteNumber":54,"Velocity":38,"Duration":121786,"SoundDuration":121786,"Delta":263858128},{"NoteNumber":37,"Velocity":33,"Duration":2540814,"SoundDuration":2540814,"Delta":263979915},{"NoteNumber":44,"Velocity":36,"Duration":2422896,"SoundDuration":2422896,"Delta":264097833},{"NoteNumber":54,"Velocity":38,"Duration":2289722,"SoundDuration":2289722,"Delta":264231007},{"NoteNumber":56,"Velocity":40,"Duration":6039658,"SoundDuration":6039658,"Delta":264356736},{"NoteNumber":60,"Velocity":43,"Duration":2044269,"SoundDuration":2044269,"Delta":264476460},{"NoteNumber":63,"Velocity":48,"Duration":1822430,"SoundDuration":1822430,"Delta":264698299},{"NoteNumber":37,"Velocity":31,"Duration":3875665,"SoundDuration":3875665,"Delta":266520730},{"NoteNumber":44,"Velocity":37,"Duration":3596077,"SoundDuration":3596077,"Delta":266800318},{"NoteNumber":53,"Velocity":35,"Duration":3329729,"SoundDuration":3329729,"Delta":267066666},{"NoteNumber":61,"Velocity":42,"Duration":3082417,"SoundDuration":3082417,"Delta":267313977}],"license":{"name":"Creative Commons Attribution-ShareAlike 3.0 Germany","url":"http://creativecommons.org/licenses/by-sa/3.0/de/deed.en","text":"The MIDI files in this folder were downloaded from http://www.piano-midi.de and are licensed under the Creative Commons Attribution-ShareAlike 3.0 Germany license by Bernd Krueger.\n\nThe MIDI, audio(MP3, OGG) and video files of Bernd Krueger are licensed under the cc-by-sa Germany License . This means, that you can use and adapt the files, as long as you attribute to the copyright holder Name: Bernd Krueger Source: http://www.piano-midi.de The distribution or public playback of the files is only allowed under identical license conditions . The scores are open source.","attribution":"Bernd Krueger","attributionUrl":"http://www.piano-midi.de"}}