{"title":"Chopin Mazurka Opus 7 No. 1","artist":"Chopin","durationMs":135871,"midiSha256":"66a87ceca9e434ac58532b70131a93711d93afb8ee99dbf7de63a7ab39fb1a41","midiObject":[{"NoteNumber":65,"Velocity":70,"Duration":208333,"SoundDuration":208333,"Delta":0},{"NoteNumber":41,"Velocity":70,"Duration":208333,"SoundDuration":208333,"Delta":0},{"NoteNumber":65,"Velocity":66,"Duration":104166,"SoundDuration":104166,"Delta":312500},{"NoteNumber":67,"Velocity":70,"Duration":401338,"SoundDuration":401338,"Delta":416667},{"NoteNumber":63,"Velocity":59,"Duration":401338,"SoundDuration":401338,"Delta":416667},{"NoteNumber":60,"Velocity":50,"Duration":401338,"SoundDuration":401338,"Delta":416667},{"NoteNumber":53,"Velocity":50,"Duration":401338,"SoundDuration":401338,"Delta":416667},{"NoteNumber":69,"Velocity":70,"Duration":407565,"SoundDuration":407565,"Delta":818005},{"NoteNumber":63,"Velocity":60,"Duration":407565,"SoundDuration":407565,"Delta":818005},{"NoteNumber":60,"Velocity":51,"Duration":407565,"SoundDuration":407565,"Delta":818005},{"NoteNumber":53,"Velocity":51,"Duration":407565,"SoundDuration":407565,"Delta":818005},{"NoteNumber":70,"Velocity":71,"Duration":201149,"SoundDuration":201149,"Delta":1225570},{"NoteNumber":46,"Velocity":70,"Duration":201149,"SoundDuration":201149,"Delta":1225570},{"NoteNumber":72,"Velocity":66,"Duration":100000,"SoundDuration":100000,"Delta":1526719},{"NoteNumber":74,"Velocity":70,"Duration":400000,"SoundDuration":400000,"Delta":1626719},{"NoteNumber":62,"Velocity":52,"Duration":400000,"SoundDuration":400000,"Delta":1626719},{"NoteNumber":58,"Velocity":52,"Duration":400000,"SoundDuration":400000,"Delta":1626719},{"NoteNumber":53,"Velocity":52,"Duration":400000,"SoundDuration":400000,"Delta":1626719},{"NoteNumber":75,"Velocity":75,"Duration":199999,"SoundDuration":199999,"Delta":2026719},{"NoteNumber":46,"Velocity":62,"Duration":199999,"SoundDuration":199999,"Delta":2026719},{"NoteNumber":77,"Velocity":79,"Duration":209789,"SoundDuration":209789,"Delta":2226719},{"NoteNumber":79,"Velocity":83,"Duration":101694,"SoundDuration":101694,"Delta":2436509},{"NoteNumber":39,"Velocity":68,"Duration":333820,"SoundDuration":333820,"Delta":2436509},{"NoteNumber":51,"Velocity":80,"Duration":333820,"SoundDuration":333820,"Delta":2436509},{"NoteNumber":81,"Velocity":75,"Duration":114942,"SoundDuration":114942,"Delta":2741594},{"NoteNumber":55,"Velocity":59,"Duration":499437,"SoundDuration":499437,"Delta":2770330},{"NoteNumber":58,"Velocity":59,"Duration":470701,"SoundDuration":470701,"Delta":2799066},{"NoteNumber":63,"Velocity":59,"Duration":441966,"SoundDuration":441966,"Delta":2827801},{"NoteNumber":82,"Velocity":76,"Duration":52570,"SoundDuration":52570,"Delta":2856537},{"NoteNumber":67,"Velocity":70,"Duration":413230,"SoundDuration":413230,"Delta":2856537},{"NoteNumber":84,"Velocity":67,"Duration":52204,"SoundDuration":52204,"Delta":2909107},{"NoteNumber":82,"Velocity":73,"Duration":51606,"SoundDuration":51606,"Delta":2961312},{"NoteNumber":84,"Velocity":66,"Duration":51369,"SoundDuration":51369,"Delta":3012918},{"NoteNumber":82,"Velocity":70,"Duration":51369,"SoundDuration":51369,"Delta":3064288},{"NoteNumber":84,"Velocity":64,"Duration":51369,"SoundDuration":51369,"Delta":3115658},{"NoteNumber":82,"Velocity":70,"Duration":51369,"SoundDuration":51369,"Delta":3167028},{"NoteNumber":84,"Velocity":64,"Duration":51369,"SoundDuration":51369,"Delta":3218397},{"NoteNumber":81,"Velocity":70,"Duration":207256,"SoundDuration":207256,"Delta":3269767},{"NoteNumber":79,"Velocity":56,"Duration":166420,"SoundDuration":166420,"Delta":3477023},{"NoteNumber":77,"Velocity":46,"Duration":53702,"SoundDuration":53702,"Delta":3643444},{"NoteNumber":82,"Velocity":53,"Duration":132042,"SoundDuration":132042,"Delta":3697146},{"NoteNumber":46,"Velocity":43,"Duration":264084,"SoundDuration":264084,"Delta":3697146},{"NoteNumber":82,"Velocity":49,"Duration":81168,"SoundDuration":81168,"Delta":4093273},{"NoteNumber":74,"Velocity":44,"Duration":787462,"SoundDuration":787462,"Delta":4174441},{"NoteNumber":62,"Velocity":28,"Duration":421052,"SoundDuration":421052,"Delta":4174441},{"NoteNumber":58,"Velocity":23,"Duration":421052,"SoundDuration":421052,"Delta":4174441},{"NoteNumber":53,"Velocity":23,"Duration":421052,"SoundDuration":421052,"Delta":4174441},{"NoteNumber":62,"Velocity":26,"Duration":418133,"SoundDuration":418133,"Delta":4595494},{"NoteNumber":58,"Velocity":22,"Duration":418133,"SoundDuration":418133,"Delta":4595494},{"NoteNumber":53,"Velocity":22,"Duration":418133,"SoundDuration":418133,"Delta":4595494},{"NoteNumber":75,"Velocity":45,"Duration":51724,"SoundDuration":51724,"Delta":4961904},{"NoteNumber":79,"Velocity":51,"Duration":123355,"SoundDuration":123355,"Delta":5013628},{"NoteNumber":41,"Velocity":40,"Duration":246710,"SoundDuration":246710,"Delta":5013628},{"NoteNumber":79,"Velocity":46,"Duration":85227,"SoundDuration":85227,"Delta":5383693},{"NoteNumber":69,"Velocity":44,"Duration":785220,"SoundDuration":785220,"Delta":5468921},{"NoteNumber":63,"Velocity":27,"Duration":417101,"SoundDuration":417101,"Delta":5468921},{"NoteNumber":60,"Velocity":22,"Duration":417101,"SoundDuration":417101,"Delta":5468921},{"NoteNumber":53,"Velocity":22,"Duration":417101,"SoundDuration":417101,"Delta":5468921},{"NoteNumber":63,"Velocity":25,"Duration":419843,"SoundDuration":419843,"Delta":5886022},{"NoteNumber":60,"Velocity":21,"Duration":419843,"SoundDuration":419843,"Delta":5886022},{"NoteNumber":53,"Velocity":21,"Duration":419843,"SoundDuration":419843,"Delta":5886022},{"NoteNumber":70,"Velocity":45,"Duration":51724,"SoundDuration":51724,"Delta":6254141},{"NoteNumber":74,"Velocity":49,"Duration":108695,"SoundDuration":108695,"Delta":6305865},{"NoteNumber":46,"Velocity":43,"Duration":217391,"SoundDuration":217391,"Delta":6305865},{"NoteNumber":74,"Velocity":47,"Duration":91019,"SoundDuration":91019,"Delta":6631952},{"NoteNumber":64,"Velocity":44,"Duration":846610,"SoundDuration":846610,"Delta":6722972},{"NoteNumber":62,"Velocity":28,"Duration":422534,"SoundDuration":422534,"Delta":6722972},{"NoteNumber":58,"Velocity":23,"Duration":422534,"SoundDuration":422534,"Delta":6722972},{"NoteNumber":53,"Velocity":23,"Duration":422534,"SoundDuration":422534,"Delta":6722972},{"NoteNumber":62,"Velocity":26,"Duration":424075,"SoundDuration":424075,"Delta":7145507},{"NoteNumber":58,"Velocity":22,"Duration":424075,"SoundDuration":424075,"Delta":7145507},{"NoteNumber":53,"Velocity":22,"Duration":424075,"SoundDuration":424075,"Delta":7145507},{"NoteNumber":65,"Velocity":55,"Duration":104408,"SoundDuration":104408,"Delta":7569582},{"NoteNumber":41,"Velocity":57,"Duration":208938,"SoundDuration":208938,"Delta":7569582},{"NoteNumber":69,"Velocity":58,"Duration":104166,"SoundDuration":104166,"Delta":7882808},{"NoteNumber":72,"Velocity":59,"Duration":207732,"SoundDuration":207732,"Delta":7986975},{"NoteNumber":53,"Velocity":39,"Duration":414748,"SoundDuration":414748,"Delta":7986975},{"NoteNumber":63,"Velocity":47,"Duration":414748,"SoundDuration":414748,"Delta":7986975},{"NoteNumber":75,"Velocity":60,"Duration":207015,"SoundDuration":207015,"Delta":8194708},{"NoteNumber":79,"Velocity":67,"Duration":335614,"SoundDuration":335614,"Delta":8401723},{"NoteNumber":53,"Velocity":39,"Duration":464924,"SoundDuration":464924,"Delta":8401723},{"NoteNumber":57,"Velocity":39,"Duration":464924,"SoundDuration":464924,"Delta":8401723},{"NoteNumber":63,"Velocity":46,"Duration":464924,"SoundDuration":464924,"Delta":8401723},{"NoteNumber":77,"Velocity":63,"Duration":62499,"SoundDuration":62499,"Delta":8737338},{"NoteNumber":77,"Velocity":55,"Duration":64655,"SoundDuration":64655,"Delta":8801993},{"NoteNumber":86,"Velocity":75,"Duration":107913,"SoundDuration":107913,"Delta":8866648},{"NoteNumber":46,"Velocity":57,"Duration":215827,"SoundDuration":215827,"Delta":8866648},{"NoteNumber":84,"Velocity":64,"Duration":104529,"SoundDuration":104529,"Delta":9187005},{"NoteNumber":82,"Velocity":55,"Duration":52264,"SoundDuration":52264,"Delta":9291534},{"NoteNumber":53,"Velocity":39,"Duration":418117,"SoundDuration":418117,"Delta":9291534},{"NoteNumber":58,"Velocity":39,"Duration":418117,"SoundDuration":418117,"Delta":9291534},{"NoteNumber":62,"Velocity":47,"Duration":418117,"SoundDuration":418117,"Delta":9291534},{"NoteNumber":84,"Velocity":54,"Duration":52264,"SoundDuration":52264,"Delta":9343799},{"NoteNumber":82,"Velocity":60,"Duration":104529,"SoundDuration":104529,"Delta":9396064},{"NoteNumber":79,"Velocity":58,"Duration":209058,"SoundDuration":209058,"Delta":9500593},{"NoteNumber":77,"Velocity":55,"Duration":450202,"SoundDuration":450202,"Delta":9709652},{"NoteNumber":53,"Velocity":39,"Duration":450202,"SoundDuration":450202,"Delta":9709652},{"NoteNumber":58,"Velocity":39,"Duration":450202,"SoundDuration":450202,"Delta":9709652},{"NoteNumber":62,"Velocity":46,"Duration":450202,"SoundDuration":450202,"Delta":9709652},{"NoteNumber":79,"Velocity":45,"Duration":58593,"SoundDuration":58593,"Delta":10101261},{"NoteNumber":82,"Velocity":51,"Duration":139925,"SoundDuration":139925,"Delta":10159855},{"NoteNumber":46,"Velocity":36,"Duration":279850,"SoundDuration":279850,"Delta":10159855},{"NoteNumber":82,"Velocity":46,"Duration":86405,"SoundDuration":86405,"Delta":10579631},{"NoteNumber":69,"Velocity":44,"Duration":733283,"SoundDuration":733283,"Delta":10666036},{"NoteNumber":63,"Velocity":27,"Duration":417494,"SoundDuration":417494,"Delta":10666036},{"NoteNumber":60,"Velocity":22,"Duration":417494,"SoundDuration":417494,"Delta":10666036},{"NoteNumber":53,"Velocity":22,"Duration":417494,"SoundDuration":417494,"Delta":10666036},{"NoteNumber":63,"Velocity":25,"Duration":419843,"SoundDuration":419843,"Delta":11083530},{"NoteNumber":60,"Velocity":21,"Duration":419843,"SoundDuration":419843,"Delta":11083530},{"NoteNumber":53,"Velocity":21,"Duration":419843,"SoundDuration":419843,"Delta":11083530},{"NoteNumber":70,"Velocity":42,"Duration":52329,"SoundDuration":52329,"Delta":11399320},{"NoteNumber":74,"Velocity":41,"Duration":51724,"SoundDuration":51724,"Delta":11451649},{"NoteNumber":77,"Velocity":49,"Duration":120967,"SoundDuration":120967,"Delta":11503373},{"NoteNumber":46,"Velocity":38,"Duration":241935,"SoundDuration":241935,"Delta":11503373},{"NoteNumber":77,"Velocity":47,"Duration":90579,"SoundDuration":90579,"Delta":11866277},{"NoteNumber":64,"Velocity":44,"Duration":842114,"SoundDuration":842114,"Delta":11956856},{"NoteNumber":62,"Velocity":28,"Duration":422534,"SoundDuration":422534,"Delta":11956856},{"NoteNumber":58,"Velocity":23,"Duration":422534,"SoundDuration":422534,"Delta":11956856},{"NoteNumber":53,"Velocity":23,"Duration":422534,"SoundDuration":422534,"Delta":11956856},{"NoteNumber":62,"Velocity":26,"Duration":419579,"SoundDuration":419579,"Delta":12379391},{"NoteNumber":58,"Velocity":22,"Duration":419579,"SoundDuration":419579,"Delta":12379391},{"NoteNumber":53,"Velocity":22,"Duration":419579,"SoundDuration":419579,"Delta":12379391},{"NoteNumber":65,"Velocity":55,"Duration":104408,"SoundDuration":104408,"Delta":12798971},{"NoteNumber":41,"Velocity":57,"Duration":208938,"SoundDuration":208938,"Delta":12798971},{"NoteNumber":69,"Velocity":58,"Duration":104166,"SoundDuration":104166,"Delta":13112197},{"NoteNumber":72,"Velocity":59,"Duration":207732,"SoundDuration":207732,"Delta":13216364},{"NoteNumber":53,"Velocity":39,"Duration":414748,"SoundDuration":414748,"Delta":13216364},{"NoteNumber":63,"Velocity":47,"Duration":414748,"SoundDuration":414748,"Delta":13216364},{"NoteNumber":75,"Velocity":60,"Duration":207015,"SoundDuration":207015,"Delta":13424096},{"NoteNumber":74,"Velocity":56,"Duration":51664,"SoundDuration":51664,"Delta":13631112},{"NoteNumber":53,"Velocity":39,"Duration":419069,"SoundDuration":419069,"Delta":13631112},{"NoteNumber":57,"Velocity":39,"Duration":419069,"SoundDuration":419069,"Delta":13631112},{"NoteNumber":63,"Velocity":46,"Duration":419069,"SoundDuration":419069,"Delta":13631112},{"NoteNumber":75,"Velocity":56,"Duration":51546,"SoundDuration":51546,"Delta":13682777},{"NoteNumber":74,"Velocity":61,"Duration":103092,"SoundDuration":103092,"Delta":13734324},{"NoteNumber":72,"Velocity":56,"Duration":212766,"SoundDuration":212766,"Delta":13837416},{"NoteNumber":74,"Velocity":64,"Duration":104895,"SoundDuration":104895,"Delta":14050182},{"NoteNumber":46,"Velocity":57,"Duration":209789,"SoundDuration":209789,"Delta":14050182},{"NoteNumber":65,"Velocity":57,"Duration":104894,"SoundDuration":104894,"Delta":14364867},{"NoteNumber":70,"Velocity":59,"Duration":433516,"SoundDuration":433516,"Delta":14469762},{"NoteNumber":53,"Velocity":39,"Duration":433516,"SoundDuration":433516,"Delta":14469762},{"NoteNumber":58,"Velocity":39,"Duration":433516,"SoundDuration":433516,"Delta":14469762},{"NoteNumber":62,"Velocity":47,"Duration":433516,"SoundDuration":433516,"Delta":14469762},{"NoteNumber":69,"Velocity":64,"Duration":221401,"SoundDuration":221401,"Delta":14903278},{"NoteNumber":67,"Velocity":61,"Duration":230769,"SoundDuration":230769,"Delta":15124680},{"NoteNumber":65,"Velocity":70,"Duration":212766,"SoundDuration":212766,"Delta":15355449},{"NoteNumber":41,"Velocity":70,"Duration":212766,"SoundDuration":212766,"Delta":15355449},{"NoteNumber":65,"Velocity":66,"Duration":106383,"SoundDuration":106383,"Delta":15674598},{"NoteNumber":67,"Velocity":70,"Duration":405405,"SoundDuration":405405,"Delta":15780981},{"NoteNumber":63,"Velocity":59,"Duration":405405,"SoundDuration":405405,"Delta":15780981},{"NoteNumber":60,"Velocity":50,"Duration":405405,"SoundDuration":405405,"Delta":15780981},{"NoteNumber":53,"Velocity":50,"Duration":405405,"SoundDuration":405405,"Delta":15780981},{"NoteNumber":69,"Velocity":70,"Duration":409598,"SoundDuration":409598,"Delta":16186386},{"NoteNumber":63,"Velocity":60,"Duration":409598,"SoundDuration":409598,"Delta":16186386},{"NoteNumber":60,"Velocity":51,"Duration":409598,"SoundDuration":409598,"Delta":16186386},{"NoteNumber":53,"Velocity":51,"Duration":409598,"SoundDuration":409598,"Delta":16186386},{"NoteNumber":70,"Velocity":71,"Duration":201149,"SoundDuration":201149,"Delta":16595985},{"NoteNumber":46,"Velocity":70,"Duration":201149,"SoundDuration":201149,"Delta":16595985},{"NoteNumber":72,"Velocity":66,"Duration":100000,"SoundDuration":100000,"Delta":16897135},{"NoteNumber":74,"Velocity":70,"Duration":399999,"SoundDuration":399999,"Delta":16997135},{"NoteNumber":62,"Velocity":52,"Duration":399999,"SoundDuration":399999,"Delta":16997135},{"NoteNumber":58,"Velocity":52,"Duration":399999,"SoundDuration":399999,"Delta":16997135},{"NoteNumber":53,"Velocity":52,"Duration":399999,"SoundDuration":399999,"Delta":16997135},{"NoteNumber":75,"Velocity":75,"Duration":199999,"SoundDuration":199999,"Delta":17397135},{"NoteNumber":46,"Velocity":62,"Duration":199999,"SoundDuration":199999,"Delta":17397135},{"NoteNumber":77,"Velocity":79,"Duration":209790,"SoundDuration":209790,"Delta":17597135},{"NoteNumber":79,"Velocity":83,"Duration":101694,"SoundDuration":101694,"Delta":17806925},{"NoteNumber":39,"Velocity":68,"Duration":333820,"SoundDuration":333820,"Delta":17806925},{"NoteNumber":51,"Velocity":80,"Duration":333820,"SoundDuration":333820,"Delta":17806925},{"NoteNumber":81,"Velocity":75,"Duration":114942,"SoundDuration":114942,"Delta":18112010},{"NoteNumber":55,"Velocity":59,"Duration":499437,"SoundDuration":499437,"Delta":18140745},{"NoteNumber":58,"Velocity":59,"Duration":470701,"SoundDuration":470701,"Delta":18169481},{"NoteNumber":63,"Velocity":59,"Duration":441966,"SoundDuration":441966,"Delta":18198217},{"NoteNumber":82,"Velocity":76,"Duration":52570,"SoundDuration":52570,"Delta":18226952},{"NoteNumber":67,"Velocity":70,"Duration":413230,"SoundDuration":413230,"Delta":18226952},{"NoteNumber":84,"Velocity":67,"Duration":52204,"SoundDuration":52204,"Delta":18279523},{"NoteNumber":82,"Velocity":73,"Duration":51606,"SoundDuration":51606,"Delta":18331727},{"NoteNumber":84,"Velocity":66,"Duration":51369,"SoundDuration":51369,"Delta":18383333},{"NoteNumber":82,"Velocity":70,"Duration":51369,"SoundDuration":51369,"Delta":18434703},{"NoteNumber":84,"Velocity":64,"Duration":51369,"SoundDuration":51369,"Delta":18486073},{"NoteNumber":82,"Velocity":70,"Duration":51369,"SoundDuration":51369,"Delta":18537443},{"NoteNumber":84,"Velocity":64,"Duration":51369,"SoundDuration":51369,"Delta":18588813},{"NoteNumber":81,"Velocity":70,"Duration":207256,"SoundDuration":207256,"Delta":18640183},{"NoteNumber":79,"Velocity":56,"Duration":211466,"SoundDuration":211466,"Delta":18847439},{"NoteNumber":77,"Velocity":46,"Duration":70488,"SoundDuration":70488,"Delta":19058905},{"NoteNumber":82,"Velocity":53,"Duration":130208,"SoundDuration":130208,"Delta":19129394},{"NoteNumber":46,"Velocity":43,"Duration":260416,"SoundDuration":260416,"Delta":19129394},{"NoteNumber":82,"Velocity":49,"Duration":88028,"SoundDuration":88028,"Delta":19520019},{"NoteNumber":74,"Velocity":44,"Duration":787462,"SoundDuration":787462,"Delta":19608047},{"NoteNumber":62,"Velocity":28,"Duration":421053,"SoundDuration":421053,"Delta":19608047},{"NoteNumber":58,"Velocity":23,"Duration":421053,"SoundDuration":421053,"Delta":19608047},{"NoteNumber":53,"Velocity":23,"Duration":421053,"SoundDuration":421053,"Delta":19608047},{"NoteNumber":62,"Velocity":26,"Duration":418133,"SoundDuration":418133,"Delta":20029100},{"NoteNumber":58,"Velocity":22,"Duration":418133,"SoundDuration":418133,"Delta":20029100},{"NoteNumber":53,"Velocity":22,"Duration":418133,"SoundDuration":418133,"Delta":20029100},{"NoteNumber":75,"Velocity":45,"Duration":51724,"SoundDuration":51724,"Delta":20395509},{"NoteNumber":79,"Velocity":51,"Duration":122548,"SoundDuration":122548,"Delta":20447233},{"NoteNumber":41,"Velocity":40,"Duration":245097,"SoundDuration":245097,"Delta":20447233},{"NoteNumber":79,"Velocity":46,"Duration":88862,"SoundDuration":88862,"Delta":20814880},{"NoteNumber":69,"Velocity":44,"Duration":794891,"SoundDuration":794891,"Delta":20903743},{"NoteNumber":63,"Velocity":27,"Duration":418313,"SoundDuration":418313,"Delta":20903743},{"NoteNumber":60,"Velocity":22,"Duration":418313,"SoundDuration":418313,"Delta":20903743},{"NoteNumber":53,"Velocity":22,"Duration":418313,"SoundDuration":418313,"Delta":20903743},{"NoteNumber":63,"Velocity":25,"Duration":431928,"SoundDuration":431928,"Delta":21322056},{"NoteNumber":60,"Velocity":21,"Duration":431928,"SoundDuration":431928,"Delta":21322056},{"NoteNumber":53,"Velocity":21,"Duration":431928,"SoundDuration":431928,"Delta":21322056},{"NoteNumber":70,"Velocity":45,"Duration":55350,"SoundDuration":55350,"Delta":21698634},{"NoteNumber":74,"Velocity":49,"Duration":117924,"SoundDuration":117924,"Delta":21753984},{"NoteNumber":46,"Velocity":43,"Duration":235849,"SoundDuration":235849,"Delta":21753984},{"NoteNumber":74,"Velocity":47,"Duration":89712,"SoundDuration":89712,"Delta":22107758},{"NoteNumber":64,"Velocity":44,"Duration":846610,"SoundDuration":846610,"Delta":22197471},{"NoteNumber":62,"Velocity":28,"Duration":422534,"SoundDuration":422534,"Delta":22197471},{"NoteNumber":58,"Velocity":23,"Duration":422534,"SoundDuration":422534,"Delta":22197471},{"NoteNumber":53,"Velocity":23,"Duration":422534,"SoundDuration":422534,"Delta":22197471},{"NoteNumber":62,"Velocity":26,"Duration":424075,"SoundDuration":424075,"Delta":22620006},{"NoteNumber":58,"Velocity":22,"Duration":424075,"SoundDuration":424075,"Delta":22620006},{"NoteNumber":53,"Velocity":22,"Duration":424075,"SoundDuration":424075,"Delta":22620006},{"NoteNumber":65,"Velocity":55,"Duration":104408,"SoundDuration":104408,"Delta":23044081},{"NoteNumber":41,"Velocity":57,"Duration":208938,"SoundDuration":208938,"Delta":23044081},{"NoteNumber":69,"Velocity":58,"Duration":104166,"SoundDuration":104166,"Delta":23357307},{"NoteNumber":72,"Velocity":59,"Duration":207732,"SoundDuration":207732,"Delta":23461474},{"NoteNumber":53,"Velocity":39,"Duration":414748,"SoundDuration":414748,"Delta":23461474},{"NoteNumber":63,"Velocity":47,"Duration":414748,"SoundDuration":414748,"Delta":23461474},{"NoteNumber":75,"Velocity":60,"Duration":207015,"SoundDuration":207015,"Delta":23669207},{"NoteNumber":79,"Velocity":67,"Duration":339047,"SoundDuration":339047,"Delta":23876222},{"NoteNumber":53,"Velocity":39,"Duration":471790,"SoundDuration":471790,"Delta":23876222},{"NoteNumber":57,"Velocity":39,"Duration":471790,"SoundDuration":471790,"Delta":23876222},{"NoteNumber":63,"Velocity":46,"Duration":471790,"SoundDuration":471790,"Delta":23876222},{"NoteNumber":77,"Velocity":63,"Duration":63053,"SoundDuration":63053,"Delta":24215270},{"NoteNumber":77,"Velocity":49,"Duration":66371,"SoundDuration":66371,"Delta":24281641},{"NoteNumber":86,"Velocity":67,"Duration":109890,"SoundDuration":109890,"Delta":24348013},{"NoteNumber":46,"Velocity":51,"Duration":219780,"SoundDuration":219780,"Delta":24348013},{"NoteNumber":84,"Velocity":61,"Duration":106007,"SoundDuration":106007,"Delta":24673429},{"NoteNumber":82,"Velocity":50,"Duration":53003,"SoundDuration":53003,"Delta":24779436},{"NoteNumber":53,"Velocity":31,"Duration":424027,"SoundDuration":424027,"Delta":24779436},{"NoteNumber":58,"Velocity":31,"Duration":424027,"SoundDuration":424027,"Delta":24779436},{"NoteNumber":62,"Velocity":37,"Duration":424027,"SoundDuration":424027,"Delta":24779436},{"NoteNumber":84,"Velocity":49,"Duration":53003,"SoundDuration":53003,"Delta":24832440},{"NoteNumber":82,"Velocity":57,"Duration":106007,"SoundDuration":106007,"Delta":24885443},{"NoteNumber":79,"Velocity":52,"Duration":212013,"SoundDuration":212013,"Delta":24991450},{"NoteNumber":77,"Velocity":49,"Duration":465827,"SoundDuration":465827,"Delta":25203464},{"NoteNumber":53,"Velocity":31,"Duration":465827,"SoundDuration":465827,"Delta":25203464},{"NoteNumber":58,"Velocity":31,"Duration":465827,"SoundDuration":465827,"Delta":25203464},{"NoteNumber":62,"Velocity":36,"Duration":465827,"SoundDuration":465827,"Delta":25203464},{"NoteNumber":79,"Velocity":45,"Duration":62500,"SoundDuration":62500,"Delta":25606792},{"NoteNumber":82,"Velocity":51,"Duration":131119,"SoundDuration":131119,"Delta":25669292},{"NoteNumber":46,"Velocity":40,"Duration":262238,"SoundDuration":262238,"Delta":25669292},{"NoteNumber":82,"Velocity":46,"Duration":93283,"SoundDuration":93283,"Delta":26062649},{"NoteNumber":69,"Velocity":44,"Duration":735576,"SoundDuration":735576,"Delta":26155932},{"NoteNumber":63,"Velocity":27,"Duration":419786,"SoundDuration":419786,"Delta":26155932},{"NoteNumber":60,"Velocity":22,"Duration":419786,"SoundDuration":419786,"Delta":26155932},{"NoteNumber":53,"Velocity":22,"Duration":419786,"SoundDuration":419786,"Delta":26155932},{"NoteNumber":63,"Velocity":25,"Duration":419842,"SoundDuration":419842,"Delta":26575719},{"NoteNumber":60,"Velocity":21,"Duration":419842,"SoundDuration":419842,"Delta":26575719},{"NoteNumber":53,"Velocity":21,"Duration":419842,"SoundDuration":419842,"Delta":26575719},{"NoteNumber":70,"Velocity":42,"Duration":52329,"SoundDuration":52329,"Delta":26891509},{"NoteNumber":74,"Velocity":41,"Duration":51724,"SoundDuration":51724,"Delta":26943838},{"NoteNumber":77,"Velocity":49,"Duration":129310,"SoundDuration":129310,"Delta":26995562},{"NoteNumber":46,"Velocity":43,"Duration":258620,"SoundDuration":258620,"Delta":26995562},{"NoteNumber":77,"Velocity":47,"Duration":93283,"SoundDuration":93283,"Delta":27383493},{"NoteNumber":64,"Velocity":44,"Duration":863842,"SoundDuration":863842,"Delta":27476776},{"NoteNumber":62,"Velocity":28,"Duration":422534,"SoundDuration":422534,"Delta":27476776},{"NoteNumber":58,"Velocity":23,"Duration":422534,"SoundDuration":422534,"Delta":27476776},{"NoteNumber":53,"Velocity":23,"Duration":422534,"SoundDuration":422534,"Delta":27476776},{"NoteNumber":62,"Velocity":26,"Duration":441307,"SoundDuration":441307,"Delta":27899311},{"NoteNumber":58,"Velocity":22,"Duration":441307,"SoundDuration":441307,"Delta":27899311},{"NoteNumber":53,"Velocity":22,"Duration":441307,"SoundDuration":441307,"Delta":27899311},{"NoteNumber":65,"Velocity":55,"Duration":109890,"SoundDuration":109890,"Delta":28340619},{"NoteNumber":41,"Velocity":57,"Duration":219512,"SoundDuration":219512,"Delta":28340619},{"NoteNumber":69,"Velocity":58,"Duration":109090,"SoundDuration":109090,"Delta":28669488},{"NoteNumber":72,"Velocity":59,"Duration":217129,"SoundDuration":217129,"Delta":28778579},{"NoteNumber":53,"Velocity":39,"Duration":433216,"SoundDuration":433216,"Delta":28778579},{"NoteNumber":63,"Velocity":47,"Duration":433216,"SoundDuration":433216,"Delta":28778579},{"NoteNumber":75,"Velocity":60,"Duration":216087,"SoundDuration":216087,"Delta":28995708},{"NoteNumber":74,"Velocity":56,"Duration":54151,"SoundDuration":54151,"Delta":29211796},{"NoteNumber":53,"Velocity":39,"Duration":449164,"SoundDuration":449164,"Delta":29211796},{"NoteNumber":57,"Velocity":39,"Duration":449164,"SoundDuration":449164,"Delta":29211796},{"NoteNumber":63,"Velocity":46,"Duration":449164,"SoundDuration":449164,"Delta":29211796},{"NoteNumber":75,"Velocity":56,"Duration":54151,"SoundDuration":54151,"Delta":29265947},{"NoteNumber":74,"Velocity":61,"Duration":108303,"SoundDuration":108303,"Delta":29320099},{"NoteNumber":72,"Velocity":56,"Duration":232558,"SoundDuration":232558,"Delta":29428402},{"NoteNumber":74,"Velocity":64,"Duration":111123,"SoundDuration":111123,"Delta":29660960},{"NoteNumber":46,"Velocity":57,"Duration":223063,"SoundDuration":223063,"Delta":29660960},{"NoteNumber":65,"Velocity":57,"Duration":111940,"SoundDuration":111940,"Delta":29995964},{"NoteNumber":70,"Velocity":59,"Duration":447761,"SoundDuration":447761,"Delta":30107904},{"NoteNumber":53,"Velocity":39,"Duration":447761,"SoundDuration":447761,"Delta":30107904},{"NoteNumber":58,"Velocity":39,"Duration":447761,"SoundDuration":447761,"Delta":30107904},{"NoteNumber":62,"Velocity":47,"Duration":447761,"SoundDuration":447761,"Delta":30107904},{"NoteNumber":69,"Velocity":44,"Duration":216481,"SoundDuration":216481,"Delta":30555665},{"NoteNumber":70,"Velocity":44,"Duration":221003,"SoundDuration":221003,"Delta":30772147},{"NoteNumber":72,"Velocity":46,"Duration":337227,"SoundDuration":337227,"Delta":30993150},{"NoteNumber":41,"Velocity":37,"Duration":446318,"SoundDuration":446318,"Delta":30993150},{"NoteNumber":74,"Velocity":42,"Duration":109090,"SoundDuration":109090,"Delta":31330378},{"NoteNumber":72,"Velocity":46,"Duration":436364,"SoundDuration":436364,"Delta":31439469},{"NoteNumber":48,"Velocity":25,"Duration":436364,"SoundDuration":436364,"Delta":31439469},{"NoteNumber":57,"Velocity":30,"Duration":436364,"SoundDuration":436364,"Delta":31439469},{"NoteNumber":76,"Velocity":49,"Duration":209789,"SoundDuration":209789,"Delta":31875833},{"NoteNumber":48,"Velocity":28,"Duration":419580,"SoundDuration":419580,"Delta":31875833},{"NoteNumber":57,"Velocity":34,"Duration":419580,"SoundDuration":419580,"Delta":31875833},{"NoteNumber":77,"Velocity":51,"Duration":209790,"SoundDuration":209790,"Delta":32085623},{"NoteNumber":79,"Velocity":55,"Duration":335506,"SoundDuration":335506,"Delta":32295413},{"NoteNumber":41,"Velocity":42,"Duration":444597,"SoundDuration":444597,"Delta":32295413},{"NoteNumber":81,"Velocity":52,"Duration":109090,"SoundDuration":109090,"Delta":32630919},{"NoteNumber":79,"Velocity":56,"Duration":436364,"SoundDuration":436364,"Delta":32740010},{"NoteNumber":50,"Velocity":32,"Duration":436364,"SoundDuration":436364,"Delta":32740010},{"NoteNumber":58,"Velocity":38,"Duration":436364,"SoundDuration":436364,"Delta":32740010},{"NoteNumber":77,"Velocity":52,"Duration":210526,"SoundDuration":210526,"Delta":33176374},{"NoteNumber":50,"Velocity":33,"Duration":419585,"SoundDuration":419585,"Delta":33176374},{"NoteNumber":58,"Velocity":39,"Duration":419585,"SoundDuration":419585,"Delta":33176374},{"NoteNumber":74,"Velocity":49,"Duration":209059,"SoundDuration":209059,"Delta":33386900},{"NoteNumber":72,"Velocity":56,"Duration":204081,"SoundDuration":204081,"Delta":33595959},{"NoteNumber":41,"Velocity":42,"Duration":419135,"SoundDuration":419135,"Delta":33595959},{"NoteNumber":74,"Velocity":51,"Duration":215054,"SoundDuration":215054,"Delta":33800041},{"NoteNumber":72,"Velocity":56,"Duration":430107,"SoundDuration":430107,"Delta":34015095},{"NoteNumber":48,"Velocity":32,"Duration":430107,"SoundDuration":430107,"Delta":34015095},{"NoteNumber":57,"Velocity":38,"Duration":430107,"SoundDuration":430107,"Delta":34015095},{"NoteNumber":76,"Velocity":50,"Duration":212014,"SoundDuration":212014,"Delta":34445203},{"NoteNumber":48,"Velocity":32,"Duration":436733,"SoundDuration":436733,"Delta":34445203},{"NoteNumber":57,"Velocity":38,"Duration":436733,"SoundDuration":436733,"Delta":34445203},{"NoteNumber":77,"Velocity":55,"Duration":112359,"SoundDuration":112359,"Delta":34769576},{"NoteNumber":79,"Velocity":59,"Duration":141342,"SoundDuration":141342,"Delta":34881936},{"NoteNumber":41,"Velocity":39,"Duration":212014,"SoundDuration":212014,"Delta":34881936},{"NoteNumber":81,"Velocity":56,"Duration":143664,"SoundDuration":143664,"Delta":35023278},{"NoteNumber":79,"Velocity":56,"Duration":145985,"SoundDuration":145985,"Delta":35166942},{"NoteNumber":77,"Velocity":53,"Duration":656933,"SoundDuration":656933,"Delta":35312928},{"NoteNumber":50,"Velocity":28,"Duration":218977,"SoundDuration":218977,"Delta":35312928},{"NoteNumber":58,"Velocity":34,"Duration":218977,"SoundDuration":218977,"Delta":35312928},{"NoteNumber":41,"Velocity":34,"Duration":218977,"SoundDuration":218977,"Delta":35750884},{"NoteNumber":74,"Velocity":50,"Duration":213523,"SoundDuration":213523,"Delta":35969862},{"NoteNumber":72,"Velocity":51,"Duration":206896,"SoundDuration":206896,"Delta":36183385},{"NoteNumber":48,"Velocity":31,"Duration":206896,"SoundDuration":206896,"Delta":36183385},{"NoteNumber":57,"Velocity":37,"Duration":206896,"SoundDuration":206896,"Delta":36183385},{"NoteNumber":74,"Velocity":49,"Duration":218181,"SoundDuration":218181,"Delta":36390281},{"NoteNumber":72,"Velocity":51,"Duration":436364,"SoundDuration":436364,"Delta":36608463},{"NoteNumber":41,"Velocity":34,"Duration":218181,"SoundDuration":218181,"Delta":36608463},{"NoteNumber":76,"Velocity":49,"Duration":209789,"SoundDuration":209789,"Delta":37044827},{"NoteNumber":48,"Velocity":28,"Duration":209789,"SoundDuration":209789,"Delta":37044827},{"NoteNumber":57,"Velocity":34,"Duration":209789,"SoundDuration":209789,"Delta":37044827},{"NoteNumber":77,"Velocity":51,"Duration":215054,"SoundDuration":215054,"Delta":37254617},{"NoteNumber":79,"Velocity":55,"Duration":218181,"SoundDuration":218181,"Delta":37469671},{"NoteNumber":41,"Velocity":42,"Duration":218181,"SoundDuration":218181,"Delta":37469671},{"NoteNumber":81,"Velocity":52,"Duration":221221,"SoundDuration":221221,"Delta":37687853},{"NoteNumber":79,"Velocity":50,"Duration":53508,"SoundDuration":53508,"Delta":37909074},{"NoteNumber":50,"Velocity":32,"Duration":209601,"SoundDuration":209601,"Delta":37909074},{"NoteNumber":58,"Velocity":38,"Duration":209601,"SoundDuration":209601,"Delta":37909074},{"NoteNumber":81,"Velocity":47,"Duration":52755,"SoundDuration":52755,"Delta":37962583},{"NoteNumber":79,"Velocity":52,"Duration":52024,"SoundDuration":52024,"Delta":38015339},{"NoteNumber":81,"Velocity":49,"Duration":51312,"SoundDuration":51312,"Delta":38067363},{"NoteNumber":79,"Velocity":56,"Duration":51136,"SoundDuration":51136,"Delta":38118675},{"NoteNumber":81,"Velocity":49,"Duration":51428,"SoundDuration":51428,"Delta":38169812},{"NoteNumber":79,"Velocity":51,"Duration":51664,"SoundDuration":51664,"Delta":38221240},{"NoteNumber":81,"Velocity":49,"Duration":51903,"SoundDuration":51903,"Delta":38272905},{"NoteNumber":77,"Velocity":52,"Duration":210526,"SoundDuration":210526,"Delta":38324808},{"NoteNumber":41,"Velocity":34,"Duration":210526,"SoundDuration":210526,"Delta":38324808},{"NoteNumber":74,"Velocity":49,"Duration":215827,"SoundDuration":215827,"Delta":38535335},{"NoteNumber":72,"Velocity":56,"Duration":205479,"SoundDuration":205479,"Delta":38751162},{"NoteNumber":48,"Velocity":32,"Duration":205479,"SoundDuration":205479,"Delta":38751162},{"NoteNumber":57,"Velocity":38,"Duration":205479,"SoundDuration":205479,"Delta":38751162},{"NoteNumber":74,"Velocity":51,"Duration":215054,"SoundDuration":215054,"Delta":38956642},{"NoteNumber":72,"Velocity":56,"Duration":430107,"SoundDuration":430107,"Delta":39171696},{"NoteNumber":41,"Velocity":34,"Duration":215053,"SoundDuration":215053,"Delta":39171696},{"NoteNumber":76,"Velocity":55,"Duration":212014,"SoundDuration":212014,"Delta":39601804},{"NoteNumber":48,"Velocity":38,"Duration":869234,"SoundDuration":869234,"Delta":39601804},{"NoteNumber":57,"Velocity":45,"Duration":436733,"SoundDuration":436733,"Delta":39601804},{"NoteNumber":77,"Velocity":59,"Duration":224719,"SoundDuration":224719,"Delta":39813818},{"NoteNumber":79,"Velocity":64,"Duration":142348,"SoundDuration":142348,"Delta":40038537},{"NoteNumber":52,"Velocity":38,"Duration":432501,"SoundDuration":432501,"Delta":40038537},{"NoteNumber":58,"Velocity":45,"Duration":432501,"SoundDuration":432501,"Delta":40038537},{"NoteNumber":81,"Velocity":61,"Duration":144167,"SoundDuration":144167,"Delta":40180886},{"NoteNumber":79,"Velocity":61,"Duration":145985,"SoundDuration":145985,"Delta":40325053},{"NoteNumber":77,"Velocity":66,"Duration":356261,"SoundDuration":356261,"Delta":40471038},{"NoteNumber":53,"Velocity":38,"Duration":476099,"SoundDuration":476099,"Delta":40471038},{"NoteNumber":57,"Velocity":45,"Duration":476099,"SoundDuration":476099,"Delta":40471038},{"NoteNumber":67,"Velocity":62,"Duration":119837,"SoundDuration":119837,"Delta":40827300},{"NoteNumber":77,"Velocity":68,"Duration":162099,"SoundDuration":162099,"Delta":40947137},{"NoteNumber":66,"Velocity":62,"Duration":170219,"SoundDuration":170219,"Delta":41109236},{"NoteNumber":77,"Velocity":69,"Duration":113471,"SoundDuration":113471,"Delta":41279456},{"NoteNumber":77,"Velocity":66,"Duration":73242,"SoundDuration":73242,"Delta":41396589},{"NoteNumber":65,"Velocity":70,"Duration":212766,"SoundDuration":212766,"Delta":41469831},{"NoteNumber":41,"Velocity":70,"Duration":212766,"SoundDuration":212766,"Delta":41469831},{"NoteNumber":65,"Velocity":66,"Duration":106382,"SoundDuration":106382,"Delta":41788980},{"NoteNumber":67,"Velocity":70,"Duration":405405,"SoundDuration":405405,"Delta":41895363},{"NoteNumber":63,"Velocity":59,"Duration":405405,"SoundDuration":405405,"Delta":41895363},{"NoteNumber":60,"Velocity":50,"Duration":405405,"SoundDuration":405405,"Delta":41895363},{"NoteNumber":53,"Velocity":50,"Duration":405405,"SoundDuration":405405,"Delta":41895363},{"NoteNumber":69,"Velocity":70,"Duration":409599,"SoundDuration":409599,"Delta":42300768},{"NoteNumber":63,"Velocity":60,"Duration":409599,"SoundDuration":409599,"Delta":42300768},{"NoteNumber":60,"Velocity":51,"Duration":409599,"SoundDuration":409599,"Delta":42300768},{"NoteNumber":53,"Velocity":51,"Duration":409599,"SoundDuration":409599,"Delta":42300768},{"NoteNumber":70,"Velocity":71,"Duration":201149,"SoundDuration":201149,"Delta":42710367},{"NoteNumber":46,"Velocity":70,"Duration":201149,"SoundDuration":201149,"Delta":42710367},{"NoteNumber":72,"Velocity":66,"Duration":100000,"SoundDuration":100000,"Delta":43011517},{"NoteNumber":74,"Velocity":70,"Duration":399999,"SoundDuration":399999,"Delta":43111517},{"NoteNumber":62,"Velocity":52,"Duration":399999,"SoundDuration":399999,"Delta":43111517},{"NoteNumber":58,"Velocity":52,"Duration":399999,"SoundDuration":399999,"Delta":43111517},{"NoteNumber":53,"Velocity":52,"Duration":399999,"SoundDuration":399999,"Delta":43111517},{"NoteNumber":75,"Velocity":75,"Duration":200000,"SoundDuration":200000,"Delta":43511517},{"NoteNumber":46,"Velocity":62,"Duration":200000,"SoundDuration":200000,"Delta":43511517},{"NoteNumber":77,"Velocity":79,"Duration":209789,"SoundDuration":209789,"Delta":43711517},{"NoteNumber":79,"Velocity":83,"Duration":101694,"SoundDuration":101694,"Delta":43921307},{"NoteNumber":39,"Velocity":68,"Duration":333820,"SoundDuration":333820,"Delta":43921307},{"NoteNumber":51,"Velocity":80,"Duration":333820,"SoundDuration":333820,"Delta":43921307},{"NoteNumber":81,"Velocity":75,"Duration":114942,"SoundDuration":114942,"Delta":44226392},{"NoteNumber":55,"Velocity":59,"Duration":499437,"SoundDuration":499437,"Delta":44255128},{"NoteNumber":58,"Velocity":59,"Duration":470701,"SoundDuration":470701,"Delta":44283863},{"NoteNumber":63,"Velocity":59,"Duration":441966,"SoundDuration":441966,"Delta":44312599},{"NoteNumber":82,"Velocity":76,"Duration":52570,"SoundDuration":52570,"Delta":44341334},{"NoteNumber":67,"Velocity":70,"Duration":413230,"SoundDuration":413230,"Delta":44341334},{"NoteNumber":84,"Velocity":67,"Duration":52204,"SoundDuration":52204,"Delta":44393905},{"NoteNumber":82,"Velocity":73,"Duration":51606,"SoundDuration":51606,"Delta":44446109},{"NoteNumber":84,"Velocity":66,"Duration":51369,"SoundDuration":51369,"Delta":44497715},{"NoteNumber":82,"Velocity":70,"Duration":51369,"SoundDuration":51369,"Delta":44549085},{"NoteNumber":84,"Velocity":64,"Duration":51369,"SoundDuration":51369,"Delta":44600455},{"NoteNumber":82,"Velocity":70,"Duration":51369,"SoundDuration":51369,"Delta":44651825},{"NoteNumber":84,"Velocity":64,"Duration":51369,"SoundDuration":51369,"Delta":44703195},{"NoteNumber":81,"Velocity":70,"Duration":207256,"SoundDuration":207256,"Delta":44754565},{"NoteNumber":79,"Velocity":56,"Duration":165441,"SoundDuration":165441,"Delta":44961821},{"NoteNumber":77,"Velocity":51,"Duration":55146,"SoundDuration":55146,"Delta":45127262},{"NoteNumber":82,"Velocity":60,"Duration":135869,"SoundDuration":135869,"Delta":45182409},{"NoteNumber":46,"Velocity":48,"Duration":271738,"SoundDuration":271738,"Delta":45182409},{"NoteNumber":82,"Velocity":55,"Duration":84459,"SoundDuration":84459,"Delta":45590017},{"NoteNumber":74,"Velocity":49,"Duration":787462,"SoundDuration":787462,"Delta":45674477},{"NoteNumber":62,"Velocity":31,"Duration":421053,"SoundDuration":421053,"Delta":45674477},{"NoteNumber":58,"Velocity":27,"Duration":421053,"SoundDuration":421053,"Delta":45674477},{"NoteNumber":53,"Velocity":27,"Duration":421053,"SoundDuration":421053,"Delta":45674477},{"NoteNumber":62,"Velocity":29,"Duration":418133,"SoundDuration":418133,"Delta":46095530},{"NoteNumber":58,"Velocity":24,"Duration":418133,"SoundDuration":418133,"Delta":46095530},{"NoteNumber":53,"Velocity":24,"Duration":418133,"SoundDuration":418133,"Delta":46095530},{"NoteNumber":75,"Velocity":50,"Duration":51724,"SoundDuration":51724,"Delta":46461939},{"NoteNumber":79,"Velocity":58,"Duration":131118,"SoundDuration":131118,"Delta":46513663},{"NoteNumber":41,"Velocity":45,"Duration":262238,"SoundDuration":262238,"Delta":46513663},{"NoteNumber":79,"Velocity":51,"Duration":88443,"SoundDuration":88443,"Delta":46907020},{"NoteNumber":69,"Velocity":49,"Duration":786292,"SoundDuration":786292,"Delta":46995464},{"NoteNumber":63,"Velocity":30,"Duration":418173,"SoundDuration":418173,"Delta":46995464},{"NoteNumber":60,"Velocity":26,"Duration":418173,"SoundDuration":418173,"Delta":46995464},{"NoteNumber":53,"Velocity":26,"Duration":418173,"SoundDuration":418173,"Delta":46995464},{"NoteNumber":63,"Velocity":28,"Duration":419843,"SoundDuration":419843,"Delta":47413637},{"NoteNumber":60,"Velocity":23,"Duration":419843,"SoundDuration":419843,"Delta":47413637},{"NoteNumber":53,"Velocity":23,"Duration":419843,"SoundDuration":419843,"Delta":47413637},{"NoteNumber":70,"Velocity":50,"Duration":51724,"SoundDuration":51724,"Delta":47781756},{"NoteNumber":74,"Velocity":56,"Duration":125838,"SoundDuration":125838,"Delta":47833480},{"NoteNumber":46,"Velocity":48,"Duration":251677,"SoundDuration":251677,"Delta":47833480},{"NoteNumber":74,"Velocity":52,"Duration":88862,"SoundDuration":88862,"Delta":48210997},{"NoteNumber":64,"Velocity":49,"Duration":846610,"SoundDuration":846610,"Delta":48299860},{"NoteNumber":62,"Velocity":31,"Duration":422535,"SoundDuration":422535,"Delta":48299860},{"NoteNumber":58,"Velocity":27,"Duration":422535,"SoundDuration":422535,"Delta":48299860},{"NoteNumber":53,"Velocity":27,"Duration":422535,"SoundDuration":422535,"Delta":48299860},{"NoteNumber":62,"Velocity":29,"Duration":424075,"SoundDuration":424075,"Delta":48722395},{"NoteNumber":58,"Velocity":24,"Duration":424075,"SoundDuration":424075,"Delta":48722395},{"NoteNumber":53,"Velocity":24,"Duration":424075,"SoundDuration":424075,"Delta":48722395},{"NoteNumber":65,"Velocity":55,"Duration":104408,"SoundDuration":104408,"Delta":49146470},{"NoteNumber":41,"Velocity":57,"Duration":208938,"SoundDuration":208938,"Delta":49146470},{"NoteNumber":69,"Velocity":58,"Duration":104166,"SoundDuration":104166,"Delta":49459696},{"NoteNumber":72,"Velocity":59,"Duration":207732,"SoundDuration":207732,"Delta":49563863},{"NoteNumber":53,"Velocity":39,"Duration":414748,"SoundDuration":414748,"Delta":49563863},{"NoteNumber":63,"Velocity":47,"Duration":414748,"SoundDuration":414748,"Delta":49563863},{"NoteNumber":75,"Velocity":60,"Duration":207015,"SoundDuration":207015,"Delta":49771595},{"NoteNumber":79,"Velocity":67,"Duration":319086,"SoundDuration":319086,"Delta":49978611},{"NoteNumber":53,"Velocity":39,"Duration":431868,"SoundDuration":431868,"Delta":49978611},{"NoteNumber":57,"Velocity":39,"Duration":431868,"SoundDuration":431868,"Delta":49978611},{"NoteNumber":63,"Velocity":46,"Duration":431868,"SoundDuration":431868,"Delta":49978611},{"NoteNumber":77,"Velocity":63,"Duration":53571,"SoundDuration":53571,"Delta":50297697},{"NoteNumber":77,"Velocity":55,"Duration":56390,"SoundDuration":56390,"Delta":50354088},{"NoteNumber":86,"Velocity":75,"Duration":109890,"SoundDuration":109890,"Delta":50410479},{"NoteNumber":46,"Velocity":57,"Duration":219780,"SoundDuration":219780,"Delta":50410479},{"NoteNumber":84,"Velocity":68,"Duration":104894,"SoundDuration":104894,"Delta":50735154},{"NoteNumber":82,"Velocity":56,"Duration":52447,"SoundDuration":52447,"Delta":50840049},{"NoteNumber":53,"Velocity":39,"Duration":419580,"SoundDuration":419580,"Delta":50840049},{"NoteNumber":58,"Velocity":39,"Duration":419580,"SoundDuration":419580,"Delta":50840049},{"NoteNumber":62,"Velocity":47,"Duration":419580,"SoundDuration":419580,"Delta":50840049},{"NoteNumber":84,"Velocity":55,"Duration":52447,"SoundDuration":52447,"Delta":50892497},{"NoteNumber":82,"Velocity":64,"Duration":104895,"SoundDuration":104895,"Delta":50944944},{"NoteNumber":79,"Velocity":58,"Duration":209789,"SoundDuration":209789,"Delta":51049839},{"NoteNumber":77,"Velocity":55,"Duration":431654,"SoundDuration":431654,"Delta":51259629},{"NoteNumber":53,"Velocity":39,"Duration":431654,"SoundDuration":431654,"Delta":51259629},{"NoteNumber":58,"Velocity":39,"Duration":431654,"SoundDuration":431654,"Delta":51259629},{"NoteNumber":62,"Velocity":46,"Duration":431654,"SoundDuration":431654,"Delta":51259629},{"NoteNumber":79,"Velocity":45,"Duration":53956,"SoundDuration":53956,"Delta":51637327},{"NoteNumber":82,"Velocity":51,"Duration":135869,"SoundDuration":135869,"Delta":51691284},{"NoteNumber":46,"Velocity":40,"Duration":271738,"SoundDuration":271738,"Delta":51691284},{"NoteNumber":82,"Velocity":46,"Duration":88028,"SoundDuration":88028,"Delta":52098893},{"NoteNumber":69,"Velocity":44,"Duration":733824,"SoundDuration":733824,"Delta":52186921},{"NoteNumber":63,"Velocity":27,"Duration":418035,"SoundDuration":418035,"Delta":52186921},{"NoteNumber":60,"Velocity":22,"Duration":418035,"SoundDuration":418035,"Delta":52186921},{"NoteNumber":53,"Velocity":22,"Duration":418035,"SoundDuration":418035,"Delta":52186921},{"NoteNumber":63,"Velocity":25,"Duration":419843,"SoundDuration":419843,"Delta":52604956},{"NoteNumber":60,"Velocity":21,"Duration":419843,"SoundDuration":419843,"Delta":52604956},{"NoteNumber":53,"Velocity":21,"Duration":419843,"SoundDuration":419843,"Delta":52604956},{"NoteNumber":70,"Velocity":42,"Duration":52329,"SoundDuration":52329,"Delta":52920746},{"NoteNumber":74,"Velocity":41,"Duration":51724,"SoundDuration":51724,"Delta":52973075},{"NoteNumber":77,"Velocity":49,"Duration":132978,"SoundDuration":132978,"Delta":53024799},{"NoteNumber":46,"Velocity":43,"Duration":265957,"SoundDuration":265957,"Delta":53024799},{"NoteNumber":77,"Velocity":47,"Duration":89020,"SoundDuration":89020,"Delta":53423735},{"NoteNumber":64,"Velocity":44,"Duration":842115,"SoundDuration":842115,"Delta":53512756},{"NoteNumber":62,"Velocity":28,"Duration":422535,"SoundDuration":422535,"Delta":53512756},{"NoteNumber":58,"Velocity":23,"Duration":422535,"SoundDuration":422535,"Delta":53512756},{"NoteNumber":53,"Velocity":23,"Duration":422535,"SoundDuration":422535,"Delta":53512756},{"NoteNumber":62,"Velocity":26,"Duration":419580,"SoundDuration":419580,"Delta":53935291},{"NoteNumber":58,"Velocity":22,"Duration":419580,"SoundDuration":419580,"Delta":53935291},{"NoteNumber":53,"Velocity":22,"Duration":419580,"SoundDuration":419580,"Delta":53935291},{"NoteNumber":65,"Velocity":55,"Duration":104408,"SoundDuration":104408,"Delta":54354871},{"NoteNumber":41,"Velocity":57,"Duration":208938,"SoundDuration":208938,"Delta":54354871},{"NoteNumber":69,"Velocity":58,"Duration":104166,"SoundDuration":104166,"Delta":54668097},{"NoteNumber":72,"Velocity":59,"Duration":207732,"SoundDuration":207732,"Delta":54772264},{"NoteNumber":53,"Velocity":39,"Duration":414748,"SoundDuration":414748,"Delta":54772264},{"NoteNumber":63,"Velocity":47,"Duration":414748,"SoundDuration":414748,"Delta":54772264},{"NoteNumber":75,"Velocity":60,"Duration":207015,"SoundDuration":207015,"Delta":54979996},{"NoteNumber":74,"Velocity":56,"Duration":51664,"SoundDuration":51664,"Delta":55187012},{"NoteNumber":53,"Velocity":39,"Duration":419070,"SoundDuration":419070,"Delta":55187012},{"NoteNumber":57,"Velocity":39,"Duration":419070,"SoundDuration":419070,"Delta":55187012},{"NoteNumber":63,"Velocity":46,"Duration":419070,"SoundDuration":419070,"Delta":55187012},{"NoteNumber":75,"Velocity":56,"Duration":51546,"SoundDuration":51546,"Delta":55238677},{"NoteNumber":74,"Velocity":61,"Duration":103092,"SoundDuration":103092,"Delta":55290223},{"NoteNumber":72,"Velocity":56,"Duration":212766,"SoundDuration":212766,"Delta":55393316},{"NoteNumber":74,"Velocity":64,"Duration":104894,"SoundDuration":104894,"Delta":55606082},{"NoteNumber":46,"Velocity":57,"Duration":209789,"SoundDuration":209789,"Delta":55606082},{"NoteNumber":65,"Velocity":57,"Duration":104895,"SoundDuration":104895,"Delta":55920767},{"NoteNumber":70,"Velocity":59,"Duration":419579,"SoundDuration":419579,"Delta":56025662},{"NoteNumber":53,"Velocity":39,"Duration":419579,"SoundDuration":419579,"Delta":56025662},{"NoteNumber":58,"Velocity":39,"Duration":419579,"SoundDuration":419579,"Delta":56025662},{"NoteNumber":62,"Velocity":47,"Duration":419579,"SoundDuration":419579,"Delta":56025662},{"NoteNumber":69,"Velocity":44,"Duration":216481,"SoundDuration":216481,"Delta":56445242},{"NoteNumber":70,"Velocity":44,"Duration":221003,"SoundDuration":221003,"Delta":56661724},{"NoteNumber":72,"Velocity":46,"Duration":337227,"SoundDuration":337227,"Delta":56882727},{"NoteNumber":41,"Velocity":37,"Duration":446318,"SoundDuration":446318,"Delta":56882727},{"NoteNumber":74,"Velocity":42,"Duration":109090,"SoundDuration":109090,"Delta":57219955},{"NoteNumber":72,"Velocity":46,"Duration":436364,"SoundDuration":436364,"Delta":57329046},{"NoteNumber":48,"Velocity":25,"Duration":436364,"SoundDuration":436364,"Delta":57329046},{"NoteNumber":57,"Velocity":30,"Duration":436364,"SoundDuration":436364,"Delta":57329046},{"NoteNumber":76,"Velocity":49,"Duration":209789,"SoundDuration":209789,"Delta":57765410},{"NoteNumber":48,"Velocity":28,"Duration":419580,"SoundDuration":419580,"Delta":57765410},{"NoteNumber":57,"Velocity":34,"Duration":419580,"SoundDuration":419580,"Delta":57765410},{"NoteNumber":77,"Velocity":51,"Duration":209790,"SoundDuration":209790,"Delta":57975200},{"NoteNumber":79,"Velocity":55,"Duration":335506,"SoundDuration":335506,"Delta":58184990},{"NoteNumber":41,"Velocity":42,"Duration":444597,"SoundDuration":444597,"Delta":58184990},{"NoteNumber":81,"Velocity":52,"Duration":109090,"SoundDuration":109090,"Delta":58520496},{"NoteNumber":79,"Velocity":56,"Duration":436364,"SoundDuration":436364,"Delta":58629587},{"NoteNumber":50,"Velocity":32,"Duration":436364,"SoundDuration":436364,"Delta":58629587},{"NoteNumber":58,"Velocity":38,"Duration":436364,"SoundDuration":436364,"Delta":58629587},{"NoteNumber":77,"Velocity":52,"Duration":210526,"SoundDuration":210526,"Delta":59065951},{"NoteNumber":50,"Velocity":33,"Duration":419585,"SoundDuration":419585,"Delta":59065951},{"NoteNumber":58,"Velocity":39,"Duration":419585,"SoundDuration":419585,"Delta":59065951},{"NoteNumber":74,"Velocity":49,"Duration":209059,"SoundDuration":209059,"Delta":59276477},{"NoteNumber":72,"Velocity":56,"Duration":204777,"SoundDuration":204777,"Delta":59485536},{"NoteNumber":41,"Velocity":42,"Duration":419831,"SoundDuration":419831,"Delta":59485536},{"NoteNumber":74,"Velocity":51,"Duration":215054,"SoundDuration":215054,"Delta":59690314},{"NoteNumber":72,"Velocity":56,"Duration":430107,"SoundDuration":430107,"Delta":59905368},{"NoteNumber":48,"Velocity":32,"Duration":430107,"SoundDuration":430107,"Delta":59905368},{"NoteNumber":57,"Velocity":38,"Duration":430107,"SoundDuration":430107,"Delta":59905368},{"NoteNumber":76,"Velocity":50,"Duration":212014,"SoundDuration":212014,"Delta":60335476},{"NoteNumber":48,"Velocity":32,"Duration":436733,"SoundDuration":436733,"Delta":60335476},{"NoteNumber":57,"Velocity":38,"Duration":436733,"SoundDuration":436733,"Delta":60335476},{"NoteNumber":77,"Velocity":55,"Duration":112359,"SoundDuration":112359,"Delta":60659850},{"NoteNumber":79,"Velocity":59,"Duration":141342,"SoundDuration":141342,"Delta":60772209},{"NoteNumber":41,"Velocity":39,"Duration":212014,"SoundDuration":212014,"Delta":60772209},{"NoteNumber":81,"Velocity":56,"Duration":143664,"SoundDuration":143664,"Delta":60913552},{"NoteNumber":79,"Velocity":56,"Duration":145985,"SoundDuration":145985,"Delta":61057216},{"NoteNumber":77,"Velocity":53,"Duration":656933,"SoundDuration":656933,"Delta":61203201},{"NoteNumber":50,"Velocity":28,"Duration":218977,"SoundDuration":218977,"Delta":61203201},{"NoteNumber":58,"Velocity":34,"Duration":218977,"SoundDuration":218977,"Delta":61203201},{"NoteNumber":41,"Velocity":34,"Duration":218977,"SoundDuration":218977,"Delta":61641157},{"NoteNumber":74,"Velocity":50,"Duration":213523,"SoundDuration":213523,"Delta":61860135},{"NoteNumber":72,"Velocity":51,"Duration":207749,"SoundDuration":207749,"Delta":62073658},{"NoteNumber":48,"Velocity":31,"Duration":207749,"SoundDuration":207749,"Delta":62073658},{"NoteNumber":57,"Velocity":37,"Duration":207749,"SoundDuration":207749,"Delta":62073658},{"NoteNumber":74,"Velocity":49,"Duration":218181,"SoundDuration":218181,"Delta":62281408},{"NoteNumber":72,"Velocity":51,"Duration":436364,"SoundDuration":436364,"Delta":62499590},{"NoteNumber":41,"Velocity":34,"Duration":218181,"SoundDuration":218181,"Delta":62499590},{"NoteNumber":76,"Velocity":49,"Duration":209789,"SoundDuration":209789,"Delta":62935954},{"NoteNumber":48,"Velocity":28,"Duration":209789,"SoundDuration":209789,"Delta":62935954},{"NoteNumber":57,"Velocity":34,"Duration":209789,"SoundDuration":209789,"Delta":62935954},{"NoteNumber":77,"Velocity":51,"Duration":215054,"SoundDuration":215054,"Delta":63145744},{"NoteNumber":79,"Velocity":55,"Duration":218181,"SoundDuration":218181,"Delta":63360798},{"NoteNumber":41,"Velocity":42,"Duration":218181,"SoundDuration":218181,"Delta":63360798},{"NoteNumber":81,"Velocity":52,"Duration":218181,"SoundDuration":218181,"Delta":63578980},{"NoteNumber":79,"Velocity":50,"Duration":54348,"SoundDuration":54348,"Delta":63797162},{"NoteNumber":50,"Velocity":32,"Duration":212395,"SoundDuration":212395,"Delta":63797162},{"NoteNumber":58,"Velocity":38,"Duration":212395,"SoundDuration":212395,"Delta":63797162},{"NoteNumber":81,"Velocity":47,"Duration":53508,"SoundDuration":53508,"Delta":63851510},{"NoteNumber":79,"Velocity":52,"Duration":52694,"SoundDuration":52694,"Delta":63905019},{"NoteNumber":81,"Velocity":49,"Duration":51844,"SoundDuration":51844,"Delta":63957713},{"NoteNumber":79,"Velocity":56,"Duration":51429,"SoundDuration":51429,"Delta":64009557},{"NoteNumber":81,"Velocity":49,"Duration":51370,"SoundDuration":51370,"Delta":64060986},{"NoteNumber":79,"Velocity":51,"Duration":51903,"SoundDuration":51903,"Delta":64112357},{"NoteNumber":81,"Velocity":49,"Duration":52386,"SoundDuration":52386,"Delta":64164260},{"NoteNumber":77,"Velocity":52,"Duration":210526,"SoundDuration":210526,"Delta":64216647},{"NoteNumber":41,"Velocity":34,"Duration":210526,"SoundDuration":210526,"Delta":64216647},{"NoteNumber":74,"Velocity":49,"Duration":215827,"SoundDuration":215827,"Delta":64427173},{"NoteNumber":72,"Velocity":56,"Duration":206185,"SoundDuration":206185,"Delta":64643001},{"NoteNumber":48,"Velocity":32,"Duration":206185,"SoundDuration":206185,"Delta":64643001},{"NoteNumber":57,"Velocity":38,"Duration":206185,"SoundDuration":206185,"Delta":64643001},{"NoteNumber":74,"Velocity":51,"Duration":215053,"SoundDuration":215053,"Delta":64849186},{"NoteNumber":72,"Velocity":56,"Duration":430108,"SoundDuration":430108,"Delta":65064240},{"NoteNumber":41,"Velocity":34,"Duration":215054,"SoundDuration":215054,"Delta":65064240},{"NoteNumber":76,"Velocity":55,"Duration":212013,"SoundDuration":212013,"Delta":65494348},{"NoteNumber":48,"Velocity":38,"Duration":869233,"SoundDuration":869233,"Delta":65494348},{"NoteNumber":57,"Velocity":45,"Duration":436732,"SoundDuration":436732,"Delta":65494348},{"NoteNumber":77,"Velocity":59,"Duration":224718,"SoundDuration":224718,"Delta":65706362},{"NoteNumber":79,"Velocity":64,"Duration":142348,"SoundDuration":142348,"Delta":65931081},{"NoteNumber":52,"Velocity":38,"Duration":432501,"SoundDuration":432501,"Delta":65931081},{"NoteNumber":58,"Velocity":45,"Duration":432501,"SoundDuration":432501,"Delta":65931081},{"NoteNumber":81,"Velocity":61,"Duration":144166,"SoundDuration":144166,"Delta":66073430},{"NoteNumber":79,"Velocity":61,"Duration":145985,"SoundDuration":145985,"Delta":66217597},{"NoteNumber":77,"Velocity":66,"Duration":357039,"SoundDuration":357039,"Delta":66363582},{"NoteNumber":53,"Velocity":38,"Duration":481520,"SoundDuration":481520,"Delta":66363582},{"NoteNumber":57,"Velocity":45,"Duration":481520,"SoundDuration":481520,"Delta":66363582},{"NoteNumber":67,"Velocity":62,"Duration":124481,"SoundDuration":124481,"Delta":66720621},{"NoteNumber":77,"Velocity":68,"Duration":162818,"SoundDuration":162818,"Delta":66845103},{"NoteNumber":66,"Velocity":62,"Duration":172136,"SoundDuration":172136,"Delta":67007921},{"NoteNumber":77,"Velocity":69,"Duration":117768,"SoundDuration":117768,"Delta":67180058},{"NoteNumber":77,"Velocity":66,"Duration":78125,"SoundDuration":78125,"Delta":67303034},{"NoteNumber":65,"Velocity":70,"Duration":212766,"SoundDuration":212766,"Delta":67381159},{"NoteNumber":41,"Velocity":70,"Duration":212766,"SoundDuration":212766,"Delta":67381159},{"NoteNumber":65,"Velocity":66,"Duration":106383,"SoundDuration":106383,"Delta":67700308},{"NoteNumber":67,"Velocity":70,"Duration":405405,"SoundDuration":405405,"Delta":67806691},{"NoteNumber":63,"Velocity":59,"Duration":405405,"SoundDuration":405405,"Delta":67806691},{"NoteNumber":60,"Velocity":50,"Duration":405405,"SoundDuration":405405,"Delta":67806691},{"NoteNumber":53,"Velocity":50,"Duration":405405,"SoundDuration":405405,"Delta":67806691},{"NoteNumber":69,"Velocity":70,"Duration":409599,"SoundDuration":409599,"Delta":68212096},{"NoteNumber":63,"Velocity":60,"Duration":409599,"SoundDuration":409599,"Delta":68212096},{"NoteNumber":60,"Velocity":51,"Duration":409599,"SoundDuration":409599,"Delta":68212096},{"NoteNumber":53,"Velocity":51,"Duration":409599,"SoundDuration":409599,"Delta":68212096},{"NoteNumber":70,"Velocity":71,"Duration":201149,"SoundDuration":201149,"Delta":68621695},{"NoteNumber":46,"Velocity":70,"Duration":201149,"SoundDuration":201149,"Delta":68621695},{"NoteNumber":72,"Velocity":66,"Duration":99999,"SoundDuration":99999,"Delta":68922845},{"NoteNumber":74,"Velocity":70,"Duration":400000,"SoundDuration":400000,"Delta":69022845},{"NoteNumber":62,"Velocity":52,"Duration":400000,"SoundDuration":400000,"Delta":69022845},{"NoteNumber":58,"Velocity":52,"Duration":400000,"SoundDuration":400000,"Delta":69022845},{"NoteNumber":53,"Velocity":52,"Duration":400000,"SoundDuration":400000,"Delta":69022845},{"NoteNumber":75,"Velocity":75,"Duration":200000,"SoundDuration":200000,"Delta":69422845},{"NoteNumber":46,"Velocity":62,"Duration":200000,"SoundDuration":200000,"Delta":69422845},{"NoteNumber":77,"Velocity":79,"Duration":209789,"SoundDuration":209789,"Delta":69622845},{"NoteNumber":79,"Velocity":83,"Duration":101695,"SoundDuration":101695,"Delta":69832635},{"NoteNumber":39,"Velocity":68,"Duration":333820,"SoundDuration":333820,"Delta":69832635},{"NoteNumber":51,"Velocity":80,"Duration":333820,"SoundDuration":333820,"Delta":69832635},{"NoteNumber":81,"Velocity":75,"Duration":114942,"SoundDuration":114942,"Delta":70137720},{"NoteNumber":55,"Velocity":59,"Duration":499437,"SoundDuration":499437,"Delta":70166455},{"NoteNumber":58,"Velocity":59,"Duration":470701,"SoundDuration":470701,"Delta":70195191},{"NoteNumber":63,"Velocity":59,"Duration":441966,"SoundDuration":441966,"Delta":70223927},{"NoteNumber":82,"Velocity":76,"Duration":52570,"SoundDuration":52570,"Delta":70252662},{"NoteNumber":67,"Velocity":70,"Duration":413230,"SoundDuration":413230,"Delta":70252662},{"NoteNumber":84,"Velocity":67,"Duration":52204,"SoundDuration":52204,"Delta":70305233},{"NoteNumber":82,"Velocity":73,"Duration":51606,"SoundDuration":51606,"Delta":70357437},{"NoteNumber":84,"Velocity":66,"Duration":51369,"SoundDuration":51369,"Delta":70409043},{"NoteNumber":82,"Velocity":70,"Duration":51369,"SoundDuration":51369,"Delta":70460413},{"NoteNumber":84,"Velocity":64,"Duration":51369,"SoundDuration":51369,"Delta":70511783},{"NoteNumber":82,"Velocity":70,"Duration":51369,"SoundDuration":51369,"Delta":70563153},{"NoteNumber":84,"Velocity":64,"Duration":51369,"SoundDuration":51369,"Delta":70614523},{"NoteNumber":81,"Velocity":70,"Duration":207256,"SoundDuration":207256,"Delta":70665893},{"NoteNumber":79,"Velocity":56,"Duration":182629,"SoundDuration":182629,"Delta":70873149},{"NoteNumber":77,"Velocity":51,"Duration":60876,"SoundDuration":60876,"Delta":71055779},{"NoteNumber":82,"Velocity":60,"Duration":128424,"SoundDuration":128424,"Delta":71116655},{"NoteNumber":46,"Velocity":48,"Duration":256849,"SoundDuration":256849,"Delta":71116655},{"NoteNumber":82,"Velocity":55,"Duration":92879,"SoundDuration":92879,"Delta":71501930},{"NoteNumber":74,"Velocity":49,"Duration":787462,"SoundDuration":787462,"Delta":71594809},{"NoteNumber":62,"Velocity":31,"Duration":421053,"SoundDuration":421053,"Delta":71594809},{"NoteNumber":58,"Velocity":27,"Duration":421053,"SoundDuration":421053,"Delta":71594809},{"NoteNumber":53,"Velocity":27,"Duration":421053,"SoundDuration":421053,"Delta":71594809},{"NoteNumber":62,"Velocity":29,"Duration":418133,"SoundDuration":418133,"Delta":72015862},{"NoteNumber":58,"Velocity":24,"Duration":418133,"SoundDuration":418133,"Delta":72015862},{"NoteNumber":53,"Velocity":24,"Duration":418133,"SoundDuration":418133,"Delta":72015862},{"NoteNumber":75,"Velocity":50,"Duration":51724,"SoundDuration":51724,"Delta":72382271},{"NoteNumber":79,"Velocity":58,"Duration":124172,"SoundDuration":124172,"Delta":72433995},{"NoteNumber":41,"Velocity":45,"Duration":248344,"SoundDuration":248344,"Delta":72433995},{"NoteNumber":79,"Velocity":51,"Duration":89285,"SoundDuration":89285,"Delta":72806512},{"NoteNumber":69,"Velocity":49,"Duration":786573,"SoundDuration":786573,"Delta":72895798},{"NoteNumber":63,"Velocity":30,"Duration":418454,"SoundDuration":418454,"Delta":72895798},{"NoteNumber":60,"Velocity":26,"Duration":418454,"SoundDuration":418454,"Delta":72895798},{"NoteNumber":53,"Velocity":26,"Duration":418454,"SoundDuration":418454,"Delta":72895798},{"NoteNumber":63,"Velocity":28,"Duration":419843,"SoundDuration":419843,"Delta":73314252},{"NoteNumber":60,"Velocity":23,"Duration":419843,"SoundDuration":419843,"Delta":73314252},{"NoteNumber":53,"Velocity":23,"Duration":419843,"SoundDuration":419843,"Delta":73314252},{"NoteNumber":70,"Velocity":50,"Duration":51724,"SoundDuration":51724,"Delta":73682371},{"NoteNumber":74,"Velocity":56,"Duration":130208,"SoundDuration":130208,"Delta":73734095},{"NoteNumber":46,"Velocity":48,"Duration":260416,"SoundDuration":260416,"Delta":73734095},{"NoteNumber":74,"Velocity":52,"Duration":90634,"SoundDuration":90634,"Delta":74124720},{"NoteNumber":64,"Velocity":49,"Duration":846610,"SoundDuration":846610,"Delta":74215354},{"NoteNumber":62,"Velocity":31,"Duration":422534,"SoundDuration":422534,"Delta":74215354},{"NoteNumber":58,"Velocity":27,"Duration":422534,"SoundDuration":422534,"Delta":74215354},{"NoteNumber":53,"Velocity":27,"Duration":422534,"SoundDuration":422534,"Delta":74215354},{"NoteNumber":62,"Velocity":29,"Duration":424075,"SoundDuration":424075,"Delta":74637889},{"NoteNumber":58,"Velocity":24,"Duration":424075,"SoundDuration":424075,"Delta":74637889},{"NoteNumber":53,"Velocity":24,"Duration":424075,"SoundDuration":424075,"Delta":74637889},{"NoteNumber":65,"Velocity":55,"Duration":104408,"SoundDuration":104408,"Delta":75061965},{"NoteNumber":41,"Velocity":57,"Duration":208938,"SoundDuration":208938,"Delta":75061965},{"NoteNumber":69,"Velocity":58,"Duration":104166,"SoundDuration":104166,"Delta":75375190},{"NoteNumber":72,"Velocity":59,"Duration":207732,"SoundDuration":207732,"Delta":75479357},{"NoteNumber":53,"Velocity":39,"Duration":414748,"SoundDuration":414748,"Delta":75479357},{"NoteNumber":63,"Velocity":47,"Duration":414748,"SoundDuration":414748,"Delta":75479357},{"NoteNumber":75,"Velocity":60,"Duration":207015,"SoundDuration":207015,"Delta":75687090},{"NoteNumber":79,"Velocity":67,"Duration":337308,"SoundDuration":337308,"Delta":75894106},{"NoteNumber":53,"Velocity":39,"Duration":468312,"SoundDuration":468312,"Delta":75894106},{"NoteNumber":57,"Velocity":39,"Duration":468312,"SoundDuration":468312,"Delta":75894106},{"NoteNumber":63,"Velocity":46,"Duration":468312,"SoundDuration":468312,"Delta":75894106},{"NoteNumber":77,"Velocity":63,"Duration":62227,"SoundDuration":62227,"Delta":76231414},{"NoteNumber":77,"Velocity":49,"Duration":65502,"SoundDuration":65502,"Delta":76296916},{"NoteNumber":86,"Velocity":67,"Duration":109889,"SoundDuration":109889,"Delta":76362418},{"NoteNumber":46,"Velocity":51,"Duration":219780,"SoundDuration":219780,"Delta":76362418},{"NoteNumber":84,"Velocity":61,"Duration":104894,"SoundDuration":104894,"Delta":76687093},{"NoteNumber":82,"Velocity":50,"Duration":52447,"SoundDuration":52447,"Delta":76791988},{"NoteNumber":53,"Velocity":31,"Duration":419579,"SoundDuration":419579,"Delta":76791988},{"NoteNumber":58,"Velocity":31,"Duration":419579,"SoundDuration":419579,"Delta":76791988},{"NoteNumber":62,"Velocity":37,"Duration":419579,"SoundDuration":419579,"Delta":76791988},{"NoteNumber":84,"Velocity":49,"Duration":52447,"SoundDuration":52447,"Delta":76844436},{"NoteNumber":82,"Velocity":57,"Duration":104894,"SoundDuration":104894,"Delta":76896883},{"NoteNumber":79,"Velocity":52,"Duration":209789,"SoundDuration":209789,"Delta":77001778},{"NoteNumber":77,"Velocity":49,"Duration":464172,"SoundDuration":464172,"Delta":77211568},{"NoteNumber":53,"Velocity":31,"Duration":464172,"SoundDuration":464172,"Delta":77211568},{"NoteNumber":58,"Velocity":31,"Duration":464172,"SoundDuration":464172,"Delta":77211568},{"NoteNumber":62,"Velocity":36,"Duration":464172,"SoundDuration":464172,"Delta":77211568},{"NoteNumber":79,"Velocity":45,"Duration":62086,"SoundDuration":62086,"Delta":77613654},{"NoteNumber":82,"Velocity":51,"Duration":131118,"SoundDuration":131118,"Delta":77675740},{"NoteNumber":46,"Velocity":40,"Duration":262237,"SoundDuration":262237,"Delta":77675740},{"NoteNumber":82,"Velocity":46,"Duration":88495,"SoundDuration":88495,"Delta":78069097},{"NoteNumber":69,"Velocity":44,"Duration":733980,"SoundDuration":733980,"Delta":78157593},{"NoteNumber":63,"Velocity":27,"Duration":418190,"SoundDuration":418190,"Delta":78157593},{"NoteNumber":60,"Velocity":22,"Duration":418190,"SoundDuration":418190,"Delta":78157593},{"NoteNumber":53,"Velocity":22,"Duration":418190,"SoundDuration":418190,"Delta":78157593},{"NoteNumber":63,"Velocity":25,"Duration":419843,"SoundDuration":419843,"Delta":78575783},{"NoteNumber":60,"Velocity":21,"Duration":419843,"SoundDuration":419843,"Delta":78575783},{"NoteNumber":53,"Velocity":21,"Duration":419843,"SoundDuration":419843,"Delta":78575783},{"NoteNumber":70,"Velocity":42,"Duration":52329,"SoundDuration":52329,"Delta":78891573},{"NoteNumber":74,"Velocity":41,"Duration":51724,"SoundDuration":51724,"Delta":78943902},{"NoteNumber":77,"Velocity":49,"Duration":125838,"SoundDuration":125838,"Delta":78995626},{"NoteNumber":46,"Velocity":43,"Duration":251677,"SoundDuration":251677,"Delta":78995626},{"NoteNumber":77,"Velocity":47,"Duration":88862,"SoundDuration":88862,"Delta":79373143},{"NoteNumber":64,"Velocity":44,"Duration":842114,"SoundDuration":842114,"Delta":79462006},{"NoteNumber":62,"Velocity":28,"Duration":422534,"SoundDuration":422534,"Delta":79462006},{"NoteNumber":58,"Velocity":23,"Duration":422534,"SoundDuration":422534,"Delta":79462006},{"NoteNumber":53,"Velocity":23,"Duration":422534,"SoundDuration":422534,"Delta":79462006},{"NoteNumber":62,"Velocity":26,"Duration":419579,"SoundDuration":419579,"Delta":79884541},{"NoteNumber":58,"Velocity":22,"Duration":419579,"SoundDuration":419579,"Delta":79884541},{"NoteNumber":53,"Velocity":22,"Duration":419579,"SoundDuration":419579,"Delta":79884541},{"NoteNumber":65,"Velocity":55,"Duration":104408,"SoundDuration":104408,"Delta":80304121},{"NoteNumber":41,"Velocity":57,"Duration":208938,"SoundDuration":208938,"Delta":80304121},{"NoteNumber":69,"Velocity":58,"Duration":104166,"SoundDuration":104166,"Delta":80617347},{"NoteNumber":72,"Velocity":59,"Duration":207732,"SoundDuration":207732,"Delta":80721513},{"NoteNumber":53,"Velocity":39,"Duration":414748,"SoundDuration":414748,"Delta":80721513},{"NoteNumber":63,"Velocity":47,"Duration":414748,"SoundDuration":414748,"Delta":80721513},{"NoteNumber":75,"Velocity":60,"Duration":207015,"SoundDuration":207015,"Delta":80929246},{"NoteNumber":74,"Velocity":56,"Duration":51664,"SoundDuration":51664,"Delta":81136262},{"NoteNumber":53,"Velocity":39,"Duration":427705,"SoundDuration":427705,"Delta":81136262},{"NoteNumber":57,"Velocity":39,"Duration":427705,"SoundDuration":427705,"Delta":81136262},{"NoteNumber":63,"Velocity":46,"Duration":427705,"SoundDuration":427705,"Delta":81136262},{"NoteNumber":75,"Velocity":56,"Duration":51546,"SoundDuration":51546,"Delta":81187927},{"NoteNumber":74,"Velocity":61,"Duration":103092,"SoundDuration":103092,"Delta":81239473},{"NoteNumber":72,"Velocity":56,"Duration":221401,"SoundDuration":221401,"Delta":81342566},{"NoteNumber":74,"Velocity":64,"Duration":107527,"SoundDuration":107527,"Delta":81563968},{"NoteNumber":46,"Velocity":57,"Duration":215053,"SoundDuration":215053,"Delta":81563968},{"NoteNumber":65,"Velocity":57,"Duration":108056,"SoundDuration":108056,"Delta":81886549},{"NoteNumber":70,"Velocity":59,"Duration":442803,"SoundDuration":442803,"Delta":81994605},{"NoteNumber":53,"Velocity":39,"Duration":442803,"SoundDuration":442803,"Delta":81994605},{"NoteNumber":58,"Velocity":39,"Duration":442803,"SoundDuration":442803,"Delta":81994605},{"NoteNumber":62,"Velocity":47,"Duration":442803,"SoundDuration":442803,"Delta":81994605},{"NoteNumber":46,"Velocity":49,"Duration":442803,"SoundDuration":442803,"Delta":82437409},{"NoteNumber":77,"Velocity":46,"Duration":111110,"SoundDuration":111110,"Delta":82880213},{"NoteNumber":42,"Velocity":22,"Duration":444444,"SoundDuration":444444,"Delta":82880213},{"NoteNumber":49,"Velocity":26,"Duration":444444,"SoundDuration":444444,"Delta":82880213},{"NoteNumber":77,"Velocity":37,"Duration":111111,"SoundDuration":111111,"Delta":83213546},{"NoteNumber":76,"Velocity":41,"Duration":444443,"SoundDuration":444443,"Delta":83324657},{"NoteNumber":42,"Velocity":20,"Duration":444443,"SoundDuration":444443,"Delta":83324657},{"NoteNumber":49,"Velocity":23,"Duration":444443,"SoundDuration":444443,"Delta":83324657},{"NoteNumber":73,"Velocity":37,"Duration":222222,"SoundDuration":222222,"Delta":83769101},{"NoteNumber":42,"Velocity":20,"Duration":444444,"SoundDuration":444444,"Delta":83769101},{"NoteNumber":49,"Velocity":23,"Duration":444444,"SoundDuration":444444,"Delta":83769101},{"NoteNumber":72,"Velocity":37,"Duration":222222,"SoundDuration":222222,"Delta":83991323},{"NoteNumber":70,"Velocity":42,"Duration":225564,"SoundDuration":225564,"Delta":84213545},{"NoteNumber":42,"Velocity":22,"Duration":451127,"SoundDuration":451127,"Delta":84213545},{"NoteNumber":49,"Velocity":26,"Duration":451127,"SoundDuration":451127,"Delta":84213545},{"NoteNumber":73,"Velocity":37,"Duration":112781,"SoundDuration":112781,"Delta":84551891},{"NoteNumber":72,"Velocity":37,"Duration":55147,"SoundDuration":55147,"Delta":84664673},{"NoteNumber":42,"Velocity":20,"Duration":441175,"SoundDuration":441175,"Delta":84664673},{"NoteNumber":49,"Velocity":23,"Duration":441175,"SoundDuration":441175,"Delta":84664673},{"NoteNumber":73,"Velocity":37,"Duration":55146,"SoundDuration":55146,"Delta":84719820},{"NoteNumber":72,"Velocity":40,"Duration":330882,"SoundDuration":330882,"Delta":84774967},{"NoteNumber":70,"Velocity":37,"Duration":225564,"SoundDuration":225564,"Delta":85105849},{"NoteNumber":42,"Velocity":20,"Duration":463659,"SoundDuration":463659,"Delta":85105849},{"NoteNumber":49,"Velocity":23,"Duration":463659,"SoundDuration":463659,"Delta":85105849},{"NoteNumber":64,"Velocity":41,"Duration":119047,"SoundDuration":119047,"Delta":85450460},{"NoteNumber":77,"Velocity":46,"Duration":112781,"SoundDuration":112781,"Delta":85569508},{"NoteNumber":42,"Velocity":22,"Duration":451127,"SoundDuration":451127,"Delta":85569508},{"NoteNumber":49,"Velocity":26,"Duration":451127,"SoundDuration":451127,"Delta":85569508},{"NoteNumber":77,"Velocity":37,"Duration":112781,"SoundDuration":112781,"Delta":85907854},{"NoteNumber":76,"Velocity":41,"Duration":444444,"SoundDuration":444444,"Delta":86020636},{"NoteNumber":42,"Velocity":20,"Duration":444444,"SoundDuration":444444,"Delta":86020636},{"NoteNumber":49,"Velocity":23,"Duration":444444,"SoundDuration":444444,"Delta":86020636},{"NoteNumber":73,"Velocity":37,"Duration":226415,"SoundDuration":226415,"Delta":86465080},{"NoteNumber":42,"Velocity":20,"Duration":452830,"SoundDuration":452830,"Delta":86465080},{"NoteNumber":49,"Velocity":23,"Duration":452830,"SoundDuration":452830,"Delta":86465080},{"NoteNumber":72,"Velocity":37,"Duration":226415,"SoundDuration":226415,"Delta":86691495},{"NoteNumber":70,"Velocity":45,"Duration":155038,"SoundDuration":155038,"Delta":86917910},{"NoteNumber":42,"Velocity":22,"Duration":465115,"SoundDuration":465115,"Delta":86917910},{"NoteNumber":49,"Velocity":26,"Duration":465115,"SoundDuration":465115,"Delta":86917910},{"NoteNumber":72,"Velocity":40,"Duration":155038,"SoundDuration":155038,"Delta":87072949},{"NoteNumber":70,"Velocity":39,"Duration":155038,"SoundDuration":155038,"Delta":87227987},{"NoteNumber":64,"Velocity":42,"Duration":930232,"SoundDuration":930232,"Delta":87383026},{"NoteNumber":42,"Velocity":20,"Duration":465116,"SoundDuration":465116,"Delta":87383026},{"NoteNumber":49,"Velocity":23,"Duration":465116,"SoundDuration":465116,"Delta":87383026},{"NoteNumber":42,"Velocity":20,"Duration":465115,"SoundDuration":465115,"Delta":87848142},{"NoteNumber":49,"Velocity":23,"Duration":465115,"SoundDuration":465115,"Delta":87848142},{"NoteNumber":77,"Velocity":46,"Duration":111110,"SoundDuration":111110,"Delta":88313258},{"NoteNumber":42,"Velocity":22,"Duration":444444,"SoundDuration":444444,"Delta":88313258},{"NoteNumber":49,"Velocity":26,"Duration":444444,"SoundDuration":444444,"Delta":88313258},{"NoteNumber":77,"Velocity":37,"Duration":111111,"SoundDuration":111111,"Delta":88646591},{"NoteNumber":76,"Velocity":41,"Duration":444443,"SoundDuration":444443,"Delta":88757702},{"NoteNumber":42,"Velocity":20,"Duration":444443,"SoundDuration":444443,"Delta":88757702},{"NoteNumber":49,"Velocity":23,"Duration":444443,"SoundDuration":444443,"Delta":88757702},{"NoteNumber":73,"Velocity":37,"Duration":222222,"SoundDuration":222222,"Delta":89202146},{"NoteNumber":42,"Velocity":20,"Duration":444444,"SoundDuration":444444,"Delta":89202146},{"NoteNumber":49,"Velocity":23,"Duration":444444,"SoundDuration":444444,"Delta":89202146},{"NoteNumber":72,"Velocity":37,"Duration":222222,"SoundDuration":222222,"Delta":89424368},{"NoteNumber":70,"Velocity":42,"Duration":225564,"SoundDuration":225564,"Delta":89646590},{"NoteNumber":42,"Velocity":22,"Duration":451127,"SoundDuration":451127,"Delta":89646590},{"NoteNumber":49,"Velocity":26,"Duration":451127,"SoundDuration":451127,"Delta":89646590},{"NoteNumber":73,"Velocity":37,"Duration":112781,"SoundDuration":112781,"Delta":89984936},{"NoteNumber":72,"Velocity":37,"Duration":56320,"SoundDuration":56320,"Delta":90097718},{"NoteNumber":42,"Velocity":20,"Duration":443934,"SoundDuration":443934,"Delta":90097718},{"NoteNumber":49,"Velocity":23,"Duration":443934,"SoundDuration":443934,"Delta":90097718},{"NoteNumber":73,"Velocity":33,"Duration":56039,"SoundDuration":56039,"Delta":90154039},{"NoteNumber":72,"Velocity":37,"Duration":55487,"SoundDuration":55487,"Delta":90210079},{"NoteNumber":73,"Velocity":35,"Duration":55080,"SoundDuration":55080,"Delta":90265566},{"NoteNumber":72,"Velocity":37,"Duration":54878,"SoundDuration":54878,"Delta":90320646},{"NoteNumber":73,"Velocity":34,"Duration":54878,"SoundDuration":54878,"Delta":90375524},{"NoteNumber":72,"Velocity":37,"Duration":55418,"SoundDuration":55418,"Delta":90430402},{"NoteNumber":73,"Velocity":37,"Duration":55831,"SoundDuration":55831,"Delta":90485821},{"NoteNumber":70,"Velocity":37,"Duration":225564,"SoundDuration":225564,"Delta":90541653},{"NoteNumber":42,"Velocity":20,"Duration":463659,"SoundDuration":463659,"Delta":90541653},{"NoteNumber":49,"Velocity":23,"Duration":463659,"SoundDuration":463659,"Delta":90541653},{"NoteNumber":64,"Velocity":41,"Duration":119047,"SoundDuration":119047,"Delta":90886264},{"NoteNumber":77,"Velocity":46,"Duration":112781,"SoundDuration":112781,"Delta":91005312},{"NoteNumber":42,"Velocity":22,"Duration":451127,"SoundDuration":451127,"Delta":91005312},{"NoteNumber":49,"Velocity":26,"Duration":451127,"SoundDuration":451127,"Delta":91005312},{"NoteNumber":77,"Velocity":37,"Duration":112781,"SoundDuration":112781,"Delta":91343658},{"NoteNumber":76,"Velocity":41,"Duration":444444,"SoundDuration":444444,"Delta":91456440},{"NoteNumber":42,"Velocity":20,"Duration":444444,"SoundDuration":444444,"Delta":91456440},{"NoteNumber":49,"Velocity":23,"Duration":444444,"SoundDuration":444444,"Delta":91456440},{"NoteNumber":73,"Velocity":37,"Duration":339622,"SoundDuration":339622,"Delta":91900884},{"NoteNumber":42,"Velocity":20,"Duration":452830,"SoundDuration":452830,"Delta":91900884},{"NoteNumber":49,"Velocity":23,"Duration":452830,"SoundDuration":452830,"Delta":91900884},{"NoteNumber":72,"Velocity":37,"Duration":113207,"SoundDuration":113207,"Delta":92240506},{"NoteNumber":70,"Velocity":45,"Duration":155038,"SoundDuration":155038,"Delta":92353714},{"NoteNumber":41,"Velocity":22,"Duration":1395347,"SoundDuration":1395347,"Delta":92353714},{"NoteNumber":49,"Velocity":26,"Duration":465115,"SoundDuration":465115,"Delta":92353714},{"NoteNumber":72,"Velocity":40,"Duration":155038,"SoundDuration":155038,"Delta":92508753},{"NoteNumber":70,"Velocity":39,"Duration":155038,"SoundDuration":155038,"Delta":92663791},{"NoteNumber":69,"Velocity":42,"Duration":697674,"SoundDuration":697674,"Delta":92818830},{"NoteNumber":48,"Velocity":23,"Duration":930232,"SoundDuration":930232,"Delta":92818830},{"NoteNumber":67,"Velocity":53,"Duration":232557,"SoundDuration":232557,"Delta":93516504},{"NoteNumber":65,"Velocity":70,"Duration":212766,"SoundDuration":212766,"Delta":93749062},{"NoteNumber":41,"Velocity":70,"Duration":212766,"SoundDuration":212766,"Delta":93749062},{"NoteNumber":65,"Velocity":66,"Duration":106383,"SoundDuration":106383,"Delta":94068211},{"NoteNumber":67,"Velocity":70,"Duration":405405,"SoundDuration":405405,"Delta":94174594},{"NoteNumber":63,"Velocity":59,"Duration":405405,"SoundDuration":405405,"Delta":94174594},{"NoteNumber":60,"Velocity":50,"Duration":405405,"SoundDuration":405405,"Delta":94174594},{"NoteNumber":53,"Velocity":50,"Duration":405405,"SoundDuration":405405,"Delta":94174594},{"NoteNumber":69,"Velocity":70,"Duration":409599,"SoundDuration":409599,"Delta":94579999},{"NoteNumber":63,"Velocity":60,"Duration":409599,"SoundDuration":409599,"Delta":94579999},{"NoteNumber":60,"Velocity":51,"Duration":409599,"SoundDuration":409599,"Delta":94579999},{"NoteNumber":53,"Velocity":51,"Duration":409599,"SoundDuration":409599,"Delta":94579999},{"NoteNumber":70,"Velocity":71,"Duration":201149,"SoundDuration":201149,"Delta":94989598},{"NoteNumber":46,"Velocity":70,"Duration":201149,"SoundDuration":201149,"Delta":94989598},{"NoteNumber":72,"Velocity":66,"Duration":99999,"SoundDuration":99999,"Delta":95290747},{"NoteNumber":74,"Velocity":70,"Duration":400000,"SoundDuration":400000,"Delta":95390747},{"NoteNumber":62,"Velocity":52,"Duration":400000,"SoundDuration":400000,"Delta":95390747},{"NoteNumber":58,"Velocity":52,"Duration":400000,"SoundDuration":400000,"Delta":95390747},{"NoteNumber":53,"Velocity":52,"Duration":400000,"SoundDuration":400000,"Delta":95390747},{"NoteNumber":75,"Velocity":75,"Duration":200000,"SoundDuration":200000,"Delta":95790747},{"NoteNumber":46,"Velocity":62,"Duration":200000,"SoundDuration":200000,"Delta":95790747},{"NoteNumber":77,"Velocity":79,"Duration":209789,"SoundDuration":209789,"Delta":95990747},{"NoteNumber":79,"Velocity":83,"Duration":101695,"SoundDuration":101695,"Delta":96200537},{"NoteNumber":39,"Velocity":68,"Duration":333820,"SoundDuration":333820,"Delta":96200537},{"NoteNumber":51,"Velocity":80,"Duration":333820,"SoundDuration":333820,"Delta":96200537},{"NoteNumber":81,"Velocity":75,"Duration":114942,"SoundDuration":114942,"Delta":96505622},{"NoteNumber":55,"Velocity":59,"Duration":499437,"SoundDuration":499437,"Delta":96534358},{"NoteNumber":58,"Velocity":59,"Duration":470701,"SoundDuration":470701,"Delta":96563094},{"NoteNumber":63,"Velocity":59,"Duration":441966,"SoundDuration":441966,"Delta":96591829},{"NoteNumber":82,"Velocity":76,"Duration":52570,"SoundDuration":52570,"Delta":96620565},{"NoteNumber":67,"Velocity":70,"Duration":413230,"SoundDuration":413230,"Delta":96620565},{"NoteNumber":84,"Velocity":67,"Duration":52204,"SoundDuration":52204,"Delta":96673135},{"NoteNumber":82,"Velocity":73,"Duration":51606,"SoundDuration":51606,"Delta":96725340},{"NoteNumber":84,"Velocity":66,"Duration":51369,"SoundDuration":51369,"Delta":96776946},{"NoteNumber":82,"Velocity":70,"Duration":51369,"SoundDuration":51369,"Delta":96828316},{"NoteNumber":84,"Velocity":64,"Duration":51369,"SoundDuration":51369,"Delta":96879686},{"NoteNumber":82,"Velocity":70,"Duration":51369,"SoundDuration":51369,"Delta":96931056},{"NoteNumber":84,"Velocity":64,"Duration":51369,"SoundDuration":51369,"Delta":96982425},{"NoteNumber":81,"Velocity":70,"Duration":207256,"SoundDuration":207256,"Delta":97033795},{"NoteNumber":79,"Velocity":56,"Duration":175781,"SoundDuration":175781,"Delta":97241051},{"NoteNumber":77,"Velocity":51,"Duration":58593,"SoundDuration":58593,"Delta":97416833},{"NoteNumber":82,"Velocity":60,"Duration":137867,"SoundDuration":137867,"Delta":97475426},{"NoteNumber":46,"Velocity":48,"Duration":275735,"SoundDuration":275735,"Delta":97475426},{"NoteNumber":82,"Velocity":55,"Duration":83705,"SoundDuration":83705,"Delta":97889030},{"NoteNumber":74,"Velocity":49,"Duration":797509,"SoundDuration":797509,"Delta":97972735},{"NoteNumber":62,"Velocity":31,"Duration":421053,"SoundDuration":421053,"Delta":97972735},{"NoteNumber":58,"Velocity":27,"Duration":421053,"SoundDuration":421053,"Delta":97972735},{"NoteNumber":53,"Velocity":27,"Duration":421053,"SoundDuration":421053,"Delta":97972735},{"NoteNumber":62,"Velocity":29,"Duration":432012,"SoundDuration":432012,"Delta":98393788},{"NoteNumber":58,"Velocity":24,"Duration":432012,"SoundDuration":432012,"Delta":98393788},{"NoteNumber":53,"Velocity":24,"Duration":432012,"SoundDuration":432012,"Delta":98393788},{"NoteNumber":75,"Velocity":50,"Duration":55555,"SoundDuration":55555,"Delta":98770244},{"NoteNumber":79,"Velocity":58,"Duration":132978,"SoundDuration":132978,"Delta":98825800},{"NoteNumber":41,"Velocity":45,"Duration":265957,"SoundDuration":265957,"Delta":98825800},{"NoteNumber":79,"Velocity":51,"Duration":88028,"SoundDuration":88028,"Delta":99224736},{"NoteNumber":69,"Velocity":49,"Duration":786153,"SoundDuration":786153,"Delta":99312764},{"NoteNumber":63,"Velocity":30,"Duration":418035,"SoundDuration":418035,"Delta":99312764},{"NoteNumber":60,"Velocity":26,"Duration":418035,"SoundDuration":418035,"Delta":99312764},{"NoteNumber":53,"Velocity":26,"Duration":418035,"SoundDuration":418035,"Delta":99312764},{"NoteNumber":63,"Velocity":28,"Duration":419843,"SoundDuration":419843,"Delta":99730800},{"NoteNumber":60,"Velocity":23,"Duration":419843,"SoundDuration":419843,"Delta":99730800},{"NoteNumber":53,"Velocity":23,"Duration":419843,"SoundDuration":419843,"Delta":99730800},{"NoteNumber":70,"Velocity":50,"Duration":51724,"SoundDuration":51724,"Delta":100098918},{"NoteNumber":74,"Velocity":56,"Duration":126689,"SoundDuration":126689,"Delta":100150643},{"NoteNumber":46,"Velocity":48,"Duration":253378,"SoundDuration":253378,"Delta":100150643},{"NoteNumber":74,"Velocity":52,"Duration":86405,"SoundDuration":86405,"Delta":100530710},{"NoteNumber":64,"Velocity":49,"Duration":846610,"SoundDuration":846610,"Delta":100617116},{"NoteNumber":62,"Velocity":31,"Duration":422534,"SoundDuration":422534,"Delta":100617116},{"NoteNumber":58,"Velocity":27,"Duration":422534,"SoundDuration":422534,"Delta":100617116},{"NoteNumber":53,"Velocity":27,"Duration":422534,"SoundDuration":422534,"Delta":100617116},{"NoteNumber":62,"Velocity":29,"Duration":424075,"SoundDuration":424075,"Delta":101039651},{"NoteNumber":58,"Velocity":24,"Duration":424075,"SoundDuration":424075,"Delta":101039651},{"NoteNumber":53,"Velocity":24,"Duration":424075,"SoundDuration":424075,"Delta":101039651},{"NoteNumber":65,"Velocity":55,"Duration":104408,"SoundDuration":104408,"Delta":101463726},{"NoteNumber":41,"Velocity":57,"Duration":208938,"SoundDuration":208938,"Delta":101463726},{"NoteNumber":69,"Velocity":58,"Duration":104166,"SoundDuration":104166,"Delta":101776952},{"NoteNumber":72,"Velocity":59,"Duration":207732,"SoundDuration":207732,"Delta":101881119},{"NoteNumber":53,"Velocity":39,"Duration":414748,"SoundDuration":414748,"Delta":101881119},{"NoteNumber":63,"Velocity":47,"Duration":414748,"SoundDuration":414748,"Delta":101881119},{"NoteNumber":75,"Velocity":60,"Duration":207015,"SoundDuration":207015,"Delta":102088851},{"NoteNumber":79,"Velocity":67,"Duration":335059,"SoundDuration":335059,"Delta":102295867},{"NoteNumber":53,"Velocity":39,"Duration":463814,"SoundDuration":463814,"Delta":102295867},{"NoteNumber":57,"Velocity":39,"Duration":463814,"SoundDuration":463814,"Delta":102295867},{"NoteNumber":63,"Velocity":46,"Duration":463814,"SoundDuration":463814,"Delta":102295867},{"NoteNumber":77,"Velocity":63,"Duration":62231,"SoundDuration":62231,"Delta":102630927},{"NoteNumber":77,"Velocity":55,"Duration":64377,"SoundDuration":64377,"Delta":102695304},{"NoteNumber":86,"Velocity":75,"Duration":109889,"SoundDuration":109889,"Delta":102759682},{"NoteNumber":46,"Velocity":57,"Duration":219780,"SoundDuration":219780,"Delta":102759682},{"NoteNumber":84,"Velocity":68,"Duration":104894,"SoundDuration":104894,"Delta":103084357},{"NoteNumber":82,"Velocity":56,"Duration":52447,"SoundDuration":52447,"Delta":103189252},{"NoteNumber":53,"Velocity":39,"Duration":419579,"SoundDuration":419579,"Delta":103189252},{"NoteNumber":58,"Velocity":39,"Duration":419579,"SoundDuration":419579,"Delta":103189252},{"NoteNumber":62,"Velocity":47,"Duration":419579,"SoundDuration":419579,"Delta":103189252},{"NoteNumber":84,"Velocity":55,"Duration":52447,"SoundDuration":52447,"Delta":103241699},{"NoteNumber":82,"Velocity":64,"Duration":104894,"SoundDuration":104894,"Delta":103294147},{"NoteNumber":79,"Velocity":58,"Duration":209789,"SoundDuration":209789,"Delta":103399042},{"NoteNumber":77,"Velocity":55,"Duration":447309,"SoundDuration":447309,"Delta":103608832},{"NoteNumber":53,"Velocity":39,"Duration":447309,"SoundDuration":447309,"Delta":103608832},{"NoteNumber":58,"Velocity":39,"Duration":447309,"SoundDuration":447309,"Delta":103608832},{"NoteNumber":62,"Velocity":46,"Duration":447309,"SoundDuration":447309,"Delta":103608832},{"NoteNumber":79,"Velocity":45,"Duration":57870,"SoundDuration":57870,"Delta":103998270},{"NoteNumber":82,"Velocity":51,"Duration":127550,"SoundDuration":127550,"Delta":104056141},{"NoteNumber":46,"Velocity":40,"Duration":255101,"SoundDuration":255101,"Delta":104056141},{"NoteNumber":82,"Velocity":46,"Duration":87209,"SoundDuration":87209,"Delta":104438794},{"NoteNumber":69,"Velocity":44,"Duration":733551,"SoundDuration":733551,"Delta":104526003},{"NoteNumber":63,"Velocity":27,"Duration":417762,"SoundDuration":417762,"Delta":104526003},{"NoteNumber":60,"Velocity":22,"Duration":417762,"SoundDuration":417762,"Delta":104526003},{"NoteNumber":53,"Velocity":22,"Duration":417762,"SoundDuration":417762,"Delta":104526003},{"NoteNumber":63,"Velocity":25,"Duration":419843,"SoundDuration":419843,"Delta":104943765},{"NoteNumber":60,"Velocity":21,"Duration":419843,"SoundDuration":419843,"Delta":104943765},{"NoteNumber":53,"Velocity":21,"Duration":419843,"SoundDuration":419843,"Delta":104943765},{"NoteNumber":70,"Velocity":42,"Duration":52329,"SoundDuration":52329,"Delta":105259555},{"NoteNumber":74,"Velocity":41,"Duration":51724,"SoundDuration":51724,"Delta":105311884},{"NoteNumber":77,"Velocity":49,"Duration":126689,"SoundDuration":126689,"Delta":105363608},{"NoteNumber":46,"Velocity":43,"Duration":253378,"SoundDuration":253378,"Delta":105363608},{"NoteNumber":77,"Velocity":47,"Duration":90579,"SoundDuration":90579,"Delta":105743676},{"NoteNumber":64,"Velocity":44,"Duration":842114,"SoundDuration":842114,"Delta":105834256},{"NoteNumber":62,"Velocity":28,"Duration":422534,"SoundDuration":422534,"Delta":105834256},{"NoteNumber":58,"Velocity":23,"Duration":422534,"SoundDuration":422534,"Delta":105834256},{"NoteNumber":53,"Velocity":23,"Duration":422534,"SoundDuration":422534,"Delta":105834256},{"NoteNumber":62,"Velocity":26,"Duration":419579,"SoundDuration":419579,"Delta":106256791},{"NoteNumber":58,"Velocity":22,"Duration":419579,"SoundDuration":419579,"Delta":106256791},{"NoteNumber":53,"Velocity":22,"Duration":419579,"SoundDuration":419579,"Delta":106256791},{"NoteNumber":65,"Velocity":55,"Duration":104408,"SoundDuration":104408,"Delta":106676371},{"NoteNumber":41,"Velocity":57,"Duration":208938,"SoundDuration":208938,"Delta":106676371},{"NoteNumber":69,"Velocity":58,"Duration":104166,"SoundDuration":104166,"Delta":106989596},{"NoteNumber":72,"Velocity":59,"Duration":207732,"SoundDuration":207732,"Delta":107093763},{"NoteNumber":53,"Velocity":39,"Duration":414748,"SoundDuration":414748,"Delta":107093763},{"NoteNumber":63,"Velocity":47,"Duration":414748,"SoundDuration":414748,"Delta":107093763},{"NoteNumber":75,"Velocity":60,"Duration":207015,"SoundDuration":207015,"Delta":107301496},{"NoteNumber":74,"Velocity":56,"Duration":51664,"SoundDuration":51664,"Delta":107508512},{"NoteNumber":53,"Velocity":39,"Duration":419069,"SoundDuration":419069,"Delta":107508512},{"NoteNumber":57,"Velocity":39,"Duration":419069,"SoundDuration":419069,"Delta":107508512},{"NoteNumber":63,"Velocity":46,"Duration":419069,"SoundDuration":419069,"Delta":107508512},{"NoteNumber":75,"Velocity":56,"Duration":51546,"SoundDuration":51546,"Delta":107560176},{"NoteNumber":74,"Velocity":61,"Duration":209475,"SoundDuration":209475,"Delta":107611723},{"NoteNumber":72,"Velocity":56,"Duration":106383,"SoundDuration":106383,"Delta":107821199},{"NoteNumber":74,"Velocity":64,"Duration":104894,"SoundDuration":104894,"Delta":107927582},{"NoteNumber":46,"Velocity":57,"Duration":209789,"SoundDuration":209789,"Delta":107927582},{"NoteNumber":65,"Velocity":57,"Duration":104894,"SoundDuration":104894,"Delta":108242267},{"NoteNumber":70,"Velocity":59,"Duration":439560,"SoundDuration":439560,"Delta":108347162},{"NoteNumber":53,"Velocity":39,"Duration":439560,"SoundDuration":439560,"Delta":108347162},{"NoteNumber":58,"Velocity":39,"Duration":439560,"SoundDuration":439560,"Delta":108347162},{"NoteNumber":62,"Velocity":47,"Duration":439560,"SoundDuration":439560,"Delta":108347162},{"NoteNumber":46,"Velocity":48,"Duration":442803,"SoundDuration":442803,"Delta":108786722},{"NoteNumber":77,"Velocity":46,"Duration":111110,"SoundDuration":111110,"Delta":109229526},{"NoteNumber":42,"Velocity":22,"Duration":444444,"SoundDuration":444444,"Delta":109229526},{"NoteNumber":49,"Velocity":26,"Duration":444444,"SoundDuration":444444,"Delta":109229526},{"NoteNumber":77,"Velocity":37,"Duration":111111,"SoundDuration":111111,"Delta":109562859},{"NoteNumber":76,"Velocity":41,"Duration":444443,"SoundDuration":444443,"Delta":109673970},{"NoteNumber":42,"Velocity":20,"Duration":444443,"SoundDuration":444443,"Delta":109673970},{"NoteNumber":49,"Velocity":23,"Duration":444443,"SoundDuration":444443,"Delta":109673970},{"NoteNumber":73,"Velocity":37,"Duration":222222,"SoundDuration":222222,"Delta":110118414},{"NoteNumber":42,"Velocity":20,"Duration":444444,"SoundDuration":444444,"Delta":110118414},{"NoteNumber":49,"Velocity":23,"Duration":444444,"SoundDuration":444444,"Delta":110118414},{"NoteNumber":72,"Velocity":37,"Duration":222222,"SoundDuration":222222,"Delta":110340636},{"NoteNumber":70,"Velocity":42,"Duration":225564,"SoundDuration":225564,"Delta":110562858},{"NoteNumber":42,"Velocity":22,"Duration":451127,"SoundDuration":451127,"Delta":110562858},{"NoteNumber":49,"Velocity":26,"Duration":451127,"SoundDuration":451127,"Delta":110562858},{"NoteNumber":73,"Velocity":37,"Duration":112781,"SoundDuration":112781,"Delta":110901204},{"NoteNumber":72,"Velocity":37,"Duration":55147,"SoundDuration":55147,"Delta":111013986},{"NoteNumber":42,"Velocity":20,"Duration":441175,"SoundDuration":441175,"Delta":111013986},{"NoteNumber":49,"Velocity":23,"Duration":441175,"SoundDuration":441175,"Delta":111013986},{"NoteNumber":73,"Velocity":37,"Duration":55146,"SoundDuration":55146,"Delta":111069133},{"NoteNumber":72,"Velocity":40,"Duration":330882,"SoundDuration":330882,"Delta":111124280},{"NoteNumber":70,"Velocity":37,"Duration":225564,"SoundDuration":225564,"Delta":111455162},{"NoteNumber":42,"Velocity":20,"Duration":463659,"SoundDuration":463659,"Delta":111455162},{"NoteNumber":49,"Velocity":23,"Duration":463659,"SoundDuration":463659,"Delta":111455162},{"NoteNumber":64,"Velocity":41,"Duration":119047,"SoundDuration":119047,"Delta":111799773},{"NoteNumber":77,"Velocity":46,"Duration":112781,"SoundDuration":112781,"Delta":111918821},{"NoteNumber":42,"Velocity":22,"Duration":451127,"SoundDuration":451127,"Delta":111918821},{"NoteNumber":49,"Velocity":26,"Duration":451127,"SoundDuration":451127,"Delta":111918821},{"NoteNumber":77,"Velocity":37,"Duration":112781,"SoundDuration":112781,"Delta":112257167},{"NoteNumber":76,"Velocity":41,"Duration":444444,"SoundDuration":444444,"Delta":112369949},{"NoteNumber":42,"Velocity":20,"Duration":444444,"SoundDuration":444444,"Delta":112369949},{"NoteNumber":49,"Velocity":23,"Duration":444444,"SoundDuration":444444,"Delta":112369949},{"NoteNumber":73,"Velocity":37,"Duration":226415,"SoundDuration":226415,"Delta":112814393},{"NoteNumber":42,"Velocity":20,"Duration":452830,"SoundDuration":452830,"Delta":112814393},{"NoteNumber":49,"Velocity":23,"Duration":452830,"SoundDuration":452830,"Delta":112814393},{"NoteNumber":72,"Velocity":37,"Duration":226415,"SoundDuration":226415,"Delta":113040808},{"NoteNumber":70,"Velocity":45,"Duration":155038,"SoundDuration":155038,"Delta":113267223},{"NoteNumber":42,"Velocity":22,"Duration":465115,"SoundDuration":465115,"Delta":113267223},{"NoteNumber":49,"Velocity":26,"Duration":465115,"SoundDuration":465115,"Delta":113267223},{"NoteNumber":72,"Velocity":40,"Duration":155038,"SoundDuration":155038,"Delta":113422261},{"NoteNumber":70,"Velocity":39,"Duration":155038,"SoundDuration":155038,"Delta":113577300},{"NoteNumber":64,"Velocity":42,"Duration":930232,"SoundDuration":930232,"Delta":113732339},{"NoteNumber":42,"Velocity":20,"Duration":465116,"SoundDuration":465116,"Delta":113732339},{"NoteNumber":49,"Velocity":23,"Duration":465116,"SoundDuration":465116,"Delta":113732339},{"NoteNumber":42,"Velocity":20,"Duration":465115,"SoundDuration":465115,"Delta":114197455},{"NoteNumber":49,"Velocity":23,"Duration":465115,"SoundDuration":465115,"Delta":114197455},{"NoteNumber":77,"Velocity":46,"Duration":111110,"SoundDuration":111110,"Delta":114662571},{"NoteNumber":42,"Velocity":22,"Duration":444444,"SoundDuration":444444,"Delta":114662571},{"NoteNumber":49,"Velocity":26,"Duration":444444,"SoundDuration":444444,"Delta":114662571},{"NoteNumber":77,"Velocity":37,"Duration":111111,"SoundDuration":111111,"Delta":114995904},{"NoteNumber":76,"Velocity":41,"Duration":444443,"SoundDuration":444443,"Delta":115107015},{"NoteNumber":42,"Velocity":20,"Duration":444443,"SoundDuration":444443,"Delta":115107015},{"NoteNumber":49,"Velocity":23,"Duration":444443,"SoundDuration":444443,"Delta":115107015},{"NoteNumber":73,"Velocity":37,"Duration":222222,"SoundDuration":222222,"Delta":115551459},{"NoteNumber":42,"Velocity":20,"Duration":444444,"SoundDuration":444444,"Delta":115551459},{"NoteNumber":49,"Velocity":23,"Duration":444444,"SoundDuration":444444,"Delta":115551459},{"NoteNumber":72,"Velocity":37,"Duration":222222,"SoundDuration":222222,"Delta":115773681},{"NoteNumber":70,"Velocity":42,"Duration":225564,"SoundDuration":225564,"Delta":115995903},{"NoteNumber":42,"Velocity":22,"Duration":451127,"SoundDuration":451127,"Delta":115995903},{"NoteNumber":49,"Velocity":26,"Duration":451127,"SoundDuration":451127,"Delta":115995903},{"NoteNumber":73,"Velocity":37,"Duration":112781,"SoundDuration":112781,"Delta":116334249},{"NoteNumber":72,"Velocity":37,"Duration":56320,"SoundDuration":56320,"Delta":116447031},{"NoteNumber":42,"Velocity":20,"Duration":443658,"SoundDuration":443658,"Delta":116447031},{"NoteNumber":49,"Velocity":23,"Duration":443658,"SoundDuration":443658,"Delta":116447031},{"NoteNumber":73,"Velocity":33,"Duration":56040,"SoundDuration":56040,"Delta":116503351},{"NoteNumber":72,"Velocity":37,"Duration":55487,"SoundDuration":55487,"Delta":116559391},{"NoteNumber":73,"Velocity":35,"Duration":55080,"SoundDuration":55080,"Delta":116614878},{"NoteNumber":72,"Velocity":37,"Duration":54878,"SoundDuration":54878,"Delta":116669959},{"NoteNumber":73,"Velocity":34,"Duration":54878,"SoundDuration":54878,"Delta":116724837},{"NoteNumber":72,"Velocity":37,"Duration":55418,"SoundDuration":55418,"Delta":116779715},{"NoteNumber":73,"Velocity":37,"Duration":55555,"SoundDuration":55555,"Delta":116835134},{"NoteNumber":70,"Velocity":37,"Duration":222222,"SoundDuration":222222,"Delta":116890689},{"NoteNumber":42,"Velocity":20,"Duration":444444,"SoundDuration":444444,"Delta":116890689},{"NoteNumber":49,"Velocity":23,"Duration":444444,"SoundDuration":444444,"Delta":116890689},{"NoteNumber":64,"Velocity":41,"Duration":111110,"SoundDuration":111110,"Delta":117224022},{"NoteNumber":77,"Velocity":46,"Duration":111110,"SoundDuration":111110,"Delta":117335133},{"NoteNumber":42,"Velocity":22,"Duration":444444,"SoundDuration":444444,"Delta":117335133},{"NoteNumber":49,"Velocity":26,"Duration":444444,"SoundDuration":444444,"Delta":117335133},{"NoteNumber":77,"Velocity":37,"Duration":111111,"SoundDuration":111111,"Delta":117668466},{"NoteNumber":76,"Velocity":41,"Duration":444444,"SoundDuration":444444,"Delta":117779577},{"NoteNumber":42,"Velocity":20,"Duration":444444,"SoundDuration":444444,"Delta":117779577},{"NoteNumber":49,"Velocity":23,"Duration":444444,"SoundDuration":444444,"Delta":117779577},{"NoteNumber":73,"Velocity":37,"Duration":339622,"SoundDuration":339622,"Delta":118224021},{"NoteNumber":42,"Velocity":20,"Duration":452830,"SoundDuration":452830,"Delta":118224021},{"NoteNumber":49,"Velocity":23,"Duration":452830,"SoundDuration":452830,"Delta":118224021},{"NoteNumber":72,"Velocity":37,"Duration":113207,"SoundDuration":113207,"Delta":118563644},{"NoteNumber":70,"Velocity":45,"Duration":155038,"SoundDuration":155038,"Delta":118676851},{"NoteNumber":41,"Velocity":22,"Duration":1395347,"SoundDuration":1395347,"Delta":118676851},{"NoteNumber":49,"Velocity":26,"Duration":465115,"SoundDuration":465115,"Delta":118676851},{"NoteNumber":72,"Velocity":40,"Duration":155038,"SoundDuration":155038,"Delta":118831890},{"NoteNumber":70,"Velocity":39,"Duration":155038,"SoundDuration":155038,"Delta":118986929},{"NoteNumber":69,"Velocity":42,"Duration":697674,"SoundDuration":697674,"Delta":119141967},{"NoteNumber":48,"Velocity":23,"Duration":930232,"SoundDuration":930232,"Delta":119141967},{"NoteNumber":67,"Velocity":53,"Duration":232557,"SoundDuration":232557,"Delta":119839641},{"NoteNumber":65,"Velocity":70,"Duration":212766,"SoundDuration":212766,"Delta":120072199},{"NoteNumber":41,"Velocity":70,"Duration":212766,"SoundDuration":212766,"Delta":120072199},{"NoteNumber":65,"Velocity":66,"Duration":106383,"SoundDuration":106383,"Delta":120391348},{"NoteNumber":67,"Velocity":70,"Duration":405405,"SoundDuration":405405,"Delta":120497731},{"NoteNumber":63,"Velocity":59,"Duration":405405,"SoundDuration":405405,"Delta":120497731},{"NoteNumber":60,"Velocity":50,"Duration":405405,"SoundDuration":405405,"Delta":120497731},{"NoteNumber":53,"Velocity":50,"Duration":405405,"SoundDuration":405405,"Delta":120497731},{"NoteNumber":69,"Velocity":70,"Duration":409599,"SoundDuration":409599,"Delta":120903136},{"NoteNumber":63,"Velocity":60,"Duration":409599,"SoundDuration":409599,"Delta":120903136},{"NoteNumber":60,"Velocity":51,"Duration":409599,"SoundDuration":409599,"Delta":120903136},{"NoteNumber":53,"Velocity":51,"Duration":409599,"SoundDuration":409599,"Delta":120903136},{"NoteNumber":70,"Velocity":71,"Duration":201149,"SoundDuration":201149,"Delta":121312735},{"NoteNumber":46,"Velocity":70,"Duration":201149,"SoundDuration":201149,"Delta":121312735},{"NoteNumber":72,"Velocity":66,"Duration":99999,"SoundDuration":99999,"Delta":121613885},{"NoteNumber":74,"Velocity":70,"Duration":400000,"SoundDuration":400000,"Delta":121713885},{"NoteNumber":62,"Velocity":52,"Duration":400000,"SoundDuration":400000,"Delta":121713885},{"NoteNumber":58,"Velocity":52,"Duration":400000,"SoundDuration":400000,"Delta":121713885},{"NoteNumber":53,"Velocity":52,"Duration":400000,"SoundDuration":400000,"Delta":121713885},{"NoteNumber":75,"Velocity":75,"Duration":200000,"SoundDuration":200000,"Delta":122113885},{"NoteNumber":46,"Velocity":62,"Duration":200000,"SoundDuration":200000,"Delta":122113885},{"NoteNumber":77,"Velocity":79,"Duration":209789,"SoundDuration":209789,"Delta":122313885},{"NoteNumber":79,"Velocity":83,"Duration":101695,"SoundDuration":101695,"Delta":122523675},{"NoteNumber":39,"Velocity":68,"Duration":333820,"SoundDuration":333820,"Delta":122523675},{"NoteNumber":51,"Velocity":80,"Duration":333820,"SoundDuration":333820,"Delta":122523675},{"NoteNumber":81,"Velocity":75,"Duration":114942,"SoundDuration":114942,"Delta":122828760},{"NoteNumber":55,"Velocity":59,"Duration":499437,"SoundDuration":499437,"Delta":122857495},{"NoteNumber":58,"Velocity":59,"Duration":470701,"SoundDuration":470701,"Delta":122886231},{"NoteNumber":63,"Velocity":59,"Duration":441966,"SoundDuration":441966,"Delta":122914966},{"NoteNumber":82,"Velocity":76,"Duration":52570,"SoundDuration":52570,"Delta":122943702},{"NoteNumber":67,"Velocity":70,"Duration":413230,"SoundDuration":413230,"Delta":122943702},{"NoteNumber":84,"Velocity":67,"Duration":52204,"SoundDuration":52204,"Delta":122996272},{"NoteNumber":82,"Velocity":73,"Duration":51606,"SoundDuration":51606,"Delta":123048477},{"NoteNumber":84,"Velocity":66,"Duration":51369,"SoundDuration":51369,"Delta":123100083},{"NoteNumber":82,"Velocity":70,"Duration":51369,"SoundDuration":51369,"Delta":123151453},{"NoteNumber":84,"Velocity":64,"Duration":51369,"SoundDuration":51369,"Delta":123202823},{"NoteNumber":82,"Velocity":70,"Duration":51369,"SoundDuration":51369,"Delta":123254193},{"NoteNumber":84,"Velocity":64,"Duration":51369,"SoundDuration":51369,"Delta":123305563},{"NoteNumber":81,"Velocity":70,"Duration":207136,"SoundDuration":207136,"Delta":123356933},{"NoteNumber":79,"Velocity":56,"Duration":216346,"SoundDuration":216346,"Delta":123564069},{"NoteNumber":77,"Velocity":51,"Duration":72115,"SoundDuration":72115,"Delta":123780415},{"NoteNumber":82,"Velocity":60,"Duration":127550,"SoundDuration":127550,"Delta":123852530},{"NoteNumber":46,"Velocity":48,"Duration":255101,"SoundDuration":255101,"Delta":123852530},{"NoteNumber":82,"Velocity":55,"Duration":86009,"SoundDuration":86009,"Delta":124235183},{"NoteNumber":74,"Velocity":49,"Duration":787462,"SoundDuration":787462,"Delta":124321192},{"NoteNumber":62,"Velocity":31,"Duration":421053,"SoundDuration":421053,"Delta":124321192},{"NoteNumber":58,"Velocity":27,"Duration":421053,"SoundDuration":421053,"Delta":124321192},{"NoteNumber":53,"Velocity":27,"Duration":421053,"SoundDuration":421053,"Delta":124321192},{"NoteNumber":62,"Velocity":29,"Duration":418133,"SoundDuration":418133,"Delta":124742245},{"NoteNumber":58,"Velocity":24,"Duration":418133,"SoundDuration":418133,"Delta":124742245},{"NoteNumber":53,"Velocity":24,"Duration":418133,"SoundDuration":418133,"Delta":124742245},{"NoteNumber":75,"Velocity":50,"Duration":51724,"SoundDuration":51724,"Delta":125108654},{"NoteNumber":79,"Velocity":58,"Duration":123355,"SoundDuration":123355,"Delta":125160379},{"NoteNumber":41,"Velocity":45,"Duration":246710,"SoundDuration":246710,"Delta":125160379},{"NoteNumber":79,"Velocity":51,"Duration":88862,"SoundDuration":88862,"Delta":125530444},{"NoteNumber":69,"Velocity":49,"Duration":786432,"SoundDuration":786432,"Delta":125619307},{"NoteNumber":63,"Velocity":30,"Duration":418313,"SoundDuration":418313,"Delta":125619307},{"NoteNumber":60,"Velocity":26,"Duration":418313,"SoundDuration":418313,"Delta":125619307},{"NoteNumber":53,"Velocity":26,"Duration":418313,"SoundDuration":418313,"Delta":125619307},{"NoteNumber":63,"Velocity":28,"Duration":419843,"SoundDuration":419843,"Delta":126037620},{"NoteNumber":60,"Velocity":23,"Duration":419843,"SoundDuration":419843,"Delta":126037620},{"NoteNumber":53,"Velocity":23,"Duration":419843,"SoundDuration":419843,"Delta":126037620},{"NoteNumber":70,"Velocity":50,"Duration":51724,"SoundDuration":51724,"Delta":126405739},{"NoteNumber":74,"Velocity":56,"Duration":123355,"SoundDuration":123355,"Delta":126457463},{"NoteNumber":46,"Velocity":48,"Duration":246710,"SoundDuration":246710,"Delta":126457463},{"NoteNumber":74,"Velocity":52,"Duration":88443,"SoundDuration":88443,"Delta":126827529},{"NoteNumber":64,"Velocity":49,"Duration":858858,"SoundDuration":858858,"Delta":126915972},{"NoteNumber":62,"Velocity":31,"Duration":434782,"SoundDuration":434782,"Delta":126915972},{"NoteNumber":58,"Velocity":27,"Duration":434782,"SoundDuration":434782,"Delta":126915972},{"NoteNumber":53,"Velocity":27,"Duration":434782,"SoundDuration":434782,"Delta":126915972},{"NoteNumber":62,"Velocity":29,"Duration":424075,"SoundDuration":424075,"Delta":127350755},{"NoteNumber":58,"Velocity":24,"Duration":424075,"SoundDuration":424075,"Delta":127350755},{"NoteNumber":53,"Velocity":24,"Duration":424075,"SoundDuration":424075,"Delta":127350755},{"NoteNumber":65,"Velocity":55,"Duration":104408,"SoundDuration":104408,"Delta":127774831},{"NoteNumber":41,"Velocity":57,"Duration":208938,"SoundDuration":208938,"Delta":127774831},{"NoteNumber":69,"Velocity":58,"Duration":104166,"SoundDuration":104166,"Delta":128088056},{"NoteNumber":72,"Velocity":59,"Duration":207732,"SoundDuration":207732,"Delta":128192223},{"NoteNumber":53,"Velocity":39,"Duration":414748,"SoundDuration":414748,"Delta":128192223},{"NoteNumber":63,"Velocity":47,"Duration":414748,"SoundDuration":414748,"Delta":128192223},{"NoteNumber":75,"Velocity":60,"Duration":207015,"SoundDuration":207015,"Delta":128399956},{"NoteNumber":79,"Velocity":67,"Duration":343918,"SoundDuration":343918,"Delta":128606972},{"NoteNumber":53,"Velocity":39,"Duration":481533,"SoundDuration":481533,"Delta":128606972},{"NoteNumber":57,"Velocity":39,"Duration":481533,"SoundDuration":481533,"Delta":128606972},{"NoteNumber":63,"Velocity":46,"Duration":481533,"SoundDuration":481533,"Delta":128606972},{"NoteNumber":77,"Velocity":63,"Duration":68807,"SoundDuration":68807,"Delta":128950890},{"NoteNumber":77,"Velocity":49,"Duration":68807,"SoundDuration":68807,"Delta":129019698},{"NoteNumber":86,"Velocity":67,"Duration":112782,"SoundDuration":112782,"Delta":129088505},{"NoteNumber":46,"Velocity":51,"Duration":225563,"SoundDuration":225563,"Delta":129088505},{"NoteNumber":84,"Velocity":61,"Duration":104894,"SoundDuration":104894,"Delta":129418964},{"NoteNumber":82,"Velocity":50,"Duration":52447,"SoundDuration":52447,"Delta":129523859},{"NoteNumber":53,"Velocity":31,"Duration":419579,"SoundDuration":419579,"Delta":129523859},{"NoteNumber":58,"Velocity":31,"Duration":419579,"SoundDuration":419579,"Delta":129523859},{"NoteNumber":62,"Velocity":37,"Duration":419579,"SoundDuration":419579,"Delta":129523859},{"NoteNumber":84,"Velocity":49,"Duration":52447,"SoundDuration":52447,"Delta":129576307},{"NoteNumber":82,"Velocity":57,"Duration":104894,"SoundDuration":104894,"Delta":129628754},{"NoteNumber":79,"Velocity":52,"Duration":209789,"SoundDuration":209789,"Delta":129733649},{"NoteNumber":77,"Velocity":49,"Duration":456211,"SoundDuration":456211,"Delta":129943439},{"NoteNumber":53,"Velocity":31,"Duration":456211,"SoundDuration":456211,"Delta":129943439},{"NoteNumber":58,"Velocity":31,"Duration":456211,"SoundDuration":456211,"Delta":129943439},{"NoteNumber":62,"Velocity":36,"Duration":456211,"SoundDuration":456211,"Delta":129943439},{"NoteNumber":79,"Velocity":45,"Duration":60096,"SoundDuration":60096,"Delta":130339555},{"NoteNumber":82,"Velocity":51,"Duration":132978,"SoundDuration":132978,"Delta":130399651},{"NoteNumber":46,"Velocity":40,"Duration":265957,"SoundDuration":265957,"Delta":130399651},{"NoteNumber":82,"Velocity":46,"Duration":89712,"SoundDuration":89712,"Delta":130798587},{"NoteNumber":69,"Velocity":44,"Duration":734386,"SoundDuration":734386,"Delta":130888300},{"NoteNumber":63,"Velocity":27,"Duration":418596,"SoundDuration":418596,"Delta":130888300},{"NoteNumber":60,"Velocity":22,"Duration":418596,"SoundDuration":418596,"Delta":130888300},{"NoteNumber":53,"Velocity":22,"Duration":418596,"SoundDuration":418596,"Delta":130888300},{"NoteNumber":63,"Velocity":25,"Duration":419843,"SoundDuration":419843,"Delta":131306897},{"NoteNumber":60,"Velocity":21,"Duration":419843,"SoundDuration":419843,"Delta":131306897},{"NoteNumber":53,"Velocity":21,"Duration":419843,"SoundDuration":419843,"Delta":131306897},{"NoteNumber":70,"Velocity":42,"Duration":52329,"SoundDuration":52329,"Delta":131622687},{"NoteNumber":74,"Velocity":41,"Duration":51724,"SoundDuration":51724,"Delta":131675016},{"NoteNumber":77,"Velocity":49,"Duration":134892,"SoundDuration":134892,"Delta":131726740},{"NoteNumber":46,"Velocity":43,"Duration":269783,"SoundDuration":269783,"Delta":131726740},{"NoteNumber":77,"Velocity":47,"Duration":93750,"SoundDuration":93750,"Delta":132131416},{"NoteNumber":64,"Velocity":44,"Duration":880549,"SoundDuration":880549,"Delta":132225166},{"NoteNumber":62,"Velocity":28,"Duration":422535,"SoundDuration":422535,"Delta":132225166},{"NoteNumber":58,"Velocity":23,"Duration":422535,"SoundDuration":422535,"Delta":132225166},{"NoteNumber":53,"Velocity":23,"Duration":422535,"SoundDuration":422535,"Delta":132225166},{"NoteNumber":62,"Velocity":26,"Duration":458014,"SoundDuration":458014,"Delta":132647701},{"NoteNumber":58,"Velocity":22,"Duration":458014,"SoundDuration":458014,"Delta":132647701},{"NoteNumber":53,"Velocity":22,"Duration":458014,"SoundDuration":458014,"Delta":132647701},{"NoteNumber":65,"Velocity":55,"Duration":106382,"SoundDuration":106382,"Delta":133105716},{"NoteNumber":41,"Velocity":57,"Duration":212640,"SoundDuration":212640,"Delta":133105716},{"NoteNumber":69,"Velocity":60,"Duration":105758,"SoundDuration":105758,"Delta":133424364},{"NoteNumber":72,"Velocity":62,"Duration":210897,"SoundDuration":210897,"Delta":133530122},{"NoteNumber":53,"Velocity":41,"Duration":420932,"SoundDuration":420932,"Delta":133530122},{"NoteNumber":63,"Velocity":49,"Duration":420932,"SoundDuration":420932,"Delta":133530122},{"NoteNumber":75,"Velocity":66,"Duration":210035,"SoundDuration":210035,"Delta":133741019},{"NoteNumber":74,"Velocity":63,"Duration":51903,"SoundDuration":51903,"Delta":133951054},{"NoteNumber":53,"Velocity":44,"Duration":429834,"SoundDuration":429834,"Delta":133951054},{"NoteNumber":57,"Velocity":44,"Duration":429834,"SoundDuration":429834,"Delta":133951054},{"NoteNumber":63,"Velocity":51,"Duration":429834,"SoundDuration":429834,"Delta":133951054},{"NoteNumber":75,"Velocity":63,"Duration":51903,"SoundDuration":51903,"Delta":134002958},{"NoteNumber":74,"Velocity":70,"Duration":214917,"SoundDuration":214917,"Delta":134054861},{"NoteNumber":72,"Velocity":64,"Duration":111110,"SoundDuration":111110,"Delta":134269778},{"NoteNumber":74,"Velocity":76,"Duration":235294,"SoundDuration":235294,"Delta":134380889},{"NoteNumber":46,"Velocity":68,"Duration":486340,"SoundDuration":486340,"Delta":134380889},{"NoteNumber":65,"Velocity":68,"Duration":251046,"SoundDuration":251046,"Delta":134616183},{"NoteNumber":70,"Velocity":68,"Duration":1004184,"SoundDuration":1004184,"Delta":134867229},{"NoteNumber":82,"Velocity":70,"Duration":1004184,"SoundDuration":1004184,"Delta":134867229},{"NoteNumber":46,"Velocity":46,"Duration":1004184,"SoundDuration":1004184,"Delta":134867229},{"NoteNumber":53,"Velocity":46,"Duration":1004184,"SoundDuration":1004184,"Delta":134867229},{"NoteNumber":62,"Velocity":56,"Duration":1004184,"SoundDuration":1004184,"Delta":134867229}],"license":{"name":"Creative Commons Attribution-ShareAlike 3.0 Germany","url":"http://creativecommons.org/licenses/by-sa/3.0/de/deed.en","text":"The MIDI, audio (MP3, OGG) and video files of Bernd Krueger are licensed under the cc-by-sa Germany License. This means that you can use and adapt the files, as long as you attribute the copyright holder.\n\nName: Bernd Krueger\nSource: http://www.piano-midi.de\n\nThe distribution or public playback of the files is only allowed under identical license conditions.\n\nThe scores are open source.","attribution":"MIDI files by Bernd Krueger (piano-midi.de)","attributionUrl":"http://www.piano-midi.de"}}