{"title":"Nocturne in C-sharp minor, Op. 27 No. 1","artist":"Chopin","durationMs":280901,"midiSha256":"32a428c01cd10c842ff7dfeb19dc9bd9a1724ecb0d5f135e284362f5a8c9ccb4","midiObject":[{"NoteNumber":37,"Velocity":20,"Duration":370370,"SoundDuration":370370,"Delta":0},{"NoteNumber":44,"Velocity":21,"Duration":333333,"SoundDuration":333333,"Delta":370370},{"NoteNumber":56,"Velocity":22,"Duration":333333,"SoundDuration":333333,"Delta":703703},{"NoteNumber":49,"Velocity":23,"Duration":331070,"SoundDuration":331070,"Delta":1037037},{"NoteNumber":44,"Velocity":24,"Duration":331071,"SoundDuration":331071,"Delta":1368107},{"NoteNumber":37,"Velocity":26,"Duration":331071,"SoundDuration":331071,"Delta":1699179},{"NoteNumber":44,"Velocity":27,"Duration":317460,"SoundDuration":317460,"Delta":2030250},{"NoteNumber":49,"Velocity":28,"Duration":317460,"SoundDuration":317460,"Delta":2347710},{"NoteNumber":56,"Velocity":29,"Duration":316835,"SoundDuration":316835,"Delta":2665170},{"NoteNumber":49,"Velocity":31,"Duration":316210,"SoundDuration":316210,"Delta":2982006},{"NoteNumber":44,"Velocity":32,"Duration":319365,"SoundDuration":319365,"Delta":3298216},{"NoteNumber":37,"Velocity":33,"Duration":322580,"SoundDuration":322580,"Delta":3617581},{"NoteNumber":44,"Velocity":34,"Duration":324939,"SoundDuration":324939,"Delta":3940162},{"NoteNumber":49,"Velocity":34,"Duration":324938,"SoundDuration":324938,"Delta":4265101},{"NoteNumber":56,"Velocity":33,"Duration":325948,"SoundDuration":325948,"Delta":4590040},{"NoteNumber":49,"Velocity":32,"Duration":326957,"SoundDuration":326957,"Delta":4915988},{"NoteNumber":44,"Velocity":31,"Duration":326957,"SoundDuration":326957,"Delta":5242946},{"NoteNumber":37,"Velocity":30,"Duration":329001,"SoundDuration":329001,"Delta":5569904},{"NoteNumber":44,"Velocity":30,"Duration":317460,"SoundDuration":317460,"Delta":5898905},{"NoteNumber":49,"Velocity":29,"Duration":317460,"SoundDuration":317460,"Delta":6216365},{"NoteNumber":56,"Velocity":28,"Duration":317460,"SoundDuration":317460,"Delta":6533826},{"NoteNumber":49,"Velocity":27,"Duration":337727,"SoundDuration":337727,"Delta":6851286},{"NoteNumber":44,"Velocity":26,"Duration":370640,"SoundDuration":370640,"Delta":7189013},{"NoteNumber":37,"Velocity":25,"Duration":396039,"SoundDuration":396039,"Delta":7559654},{"NoteNumber":76,"Velocity":52,"Duration":2049762,"SoundDuration":2049762,"Delta":7955693},{"NoteNumber":44,"Velocity":26,"Duration":378324,"SoundDuration":378324,"Delta":7955693},{"NoteNumber":49,"Velocity":25,"Duration":359614,"SoundDuration":359614,"Delta":8334017},{"NoteNumber":56,"Velocity":26,"Duration":342654,"SoundDuration":342654,"Delta":8693632},{"NoteNumber":49,"Velocity":27,"Duration":327202,"SoundDuration":327202,"Delta":9036287},{"NoteNumber":44,"Velocity":28,"Duration":323236,"SoundDuration":323236,"Delta":9363489},{"NoteNumber":37,"Velocity":29,"Duration":318730,"SoundDuration":318730,"Delta":9686726},{"NoteNumber":77,"Velocity":51,"Duration":952381,"SoundDuration":952381,"Delta":10005456},{"NoteNumber":44,"Velocity":28,"Duration":317460,"SoundDuration":317460,"Delta":10005456},{"NoteNumber":49,"Velocity":29,"Duration":317460,"SoundDuration":317460,"Delta":10322916},{"NoteNumber":59,"Velocity":30,"Duration":317460,"SoundDuration":317460,"Delta":10640376},{"NoteNumber":77,"Velocity":54,"Duration":1005799,"SoundDuration":1005799,"Delta":10957837},{"NoteNumber":49,"Velocity":30,"Duration":323913,"SoundDuration":323913,"Delta":10957837},{"NoteNumber":44,"Velocity":31,"Duration":334757,"SoundDuration":334757,"Delta":11281750},{"NoteNumber":37,"Velocity":32,"Duration":347129,"SoundDuration":347129,"Delta":11616507},{"NoteNumber":77,"Velocity":56,"Duration":1965668,"SoundDuration":1965668,"Delta":11963636},{"NoteNumber":44,"Velocity":33,"Duration":346352,"SoundDuration":346352,"Delta":11963636},{"NoteNumber":49,"Velocity":31,"Duration":334757,"SoundDuration":334757,"Delta":12309989},{"NoteNumber":59,"Velocity":30,"Duration":324558,"SoundDuration":324558,"Delta":12644747},{"NoteNumber":49,"Velocity":30,"Duration":320000,"SoundDuration":320000,"Delta":12969305},{"NoteNumber":44,"Velocity":29,"Duration":320000,"SoundDuration":320000,"Delta":13289305},{"NoteNumber":37,"Velocity":28,"Duration":320000,"SoundDuration":320000,"Delta":13609305},{"NoteNumber":78,"Velocity":55,"Duration":2990250,"SoundDuration":2990250,"Delta":13929305},{"NoteNumber":45,"Velocity":28,"Duration":320000,"SoundDuration":320000,"Delta":13929305},{"NoteNumber":49,"Velocity":28,"Duration":320000,"SoundDuration":320000,"Delta":14249305},{"NoteNumber":57,"Velocity":28,"Duration":320000,"SoundDuration":320000,"Delta":14569305},{"NoteNumber":49,"Velocity":28,"Duration":325203,"SoundDuration":325203,"Delta":14889305},{"NoteNumber":45,"Velocity":28,"Duration":325203,"SoundDuration":325203,"Delta":15214508},{"NoteNumber":37,"Velocity":28,"Duration":354028,"SoundDuration":354028,"Delta":15539712},{"NoteNumber":45,"Velocity":32,"Duration":341938,"SoundDuration":341938,"Delta":15893740},{"NoteNumber":50,"Velocity":29,"Duration":341938,"SoundDuration":341938,"Delta":16235678},{"NoteNumber":57,"Velocity":29,"Duration":341938,"SoundDuration":341938,"Delta":16577617},{"NoteNumber":76,"Velocity":55,"Duration":740252,"SoundDuration":740252,"Delta":16919556},{"NoteNumber":50,"Velocity":28,"Duration":329001,"SoundDuration":329001,"Delta":16919556},{"NoteNumber":45,"Velocity":27,"Duration":329001,"SoundDuration":329001,"Delta":17248557},{"NoteNumber":37,"Velocity":26,"Duration":329001,"SoundDuration":329001,"Delta":17577558},{"NoteNumber":74,"Velocity":51,"Duration":246750,"SoundDuration":246750,"Delta":17659809},{"NoteNumber":73,"Velocity":51,"Duration":1004450,"SoundDuration":1004450,"Delta":17906560},{"NoteNumber":45,"Velocity":25,"Duration":333759,"SoundDuration":333759,"Delta":17906560},{"NoteNumber":50,"Velocity":24,"Duration":335345,"SoundDuration":335345,"Delta":18240319},{"NoteNumber":57,"Velocity":24,"Duration":335345,"SoundDuration":335345,"Delta":18575664},{"NoteNumber":72,"Velocity":51,"Duration":1081776,"SoundDuration":1081776,"Delta":18911010},{"NoteNumber":50,"Velocity":24,"Duration":349378,"SoundDuration":349378,"Delta":18911010},{"NoteNumber":45,"Velocity":24,"Duration":362028,"SoundDuration":362028,"Delta":19260388},{"NoteNumber":37,"Velocity":24,"Duration":370370,"SoundDuration":370370,"Delta":19622416},{"NoteNumber":73,"Velocity":53,"Duration":1025641,"SoundDuration":1025641,"Delta":19992787},{"NoteNumber":44,"Velocity":26,"Duration":341880,"SoundDuration":341880,"Delta":19992787},{"NoteNumber":52,"Velocity":24,"Duration":341880,"SoundDuration":341880,"Delta":20334667},{"NoteNumber":61,"Velocity":23,"Duration":341880,"SoundDuration":341880,"Delta":20676547},{"NoteNumber":80,"Velocity":56,"Duration":2037536,"SoundDuration":2037536,"Delta":21018428},{"NoteNumber":52,"Velocity":23,"Duration":333222,"SoundDuration":333222,"Delta":21018428},{"NoteNumber":44,"Velocity":23,"Duration":333222,"SoundDuration":333222,"Delta":21351650},{"NoteNumber":37,"Velocity":23,"Duration":333222,"SoundDuration":333222,"Delta":21684872},{"NoteNumber":35,"Velocity":26,"Duration":338283,"SoundDuration":338283,"Delta":22018095},{"NoteNumber":47,"Velocity":24,"Duration":345590,"SoundDuration":345590,"Delta":22356378},{"NoteNumber":63,"Velocity":24,"Duration":353996,"SoundDuration":353996,"Delta":22701968},{"NoteNumber":80,"Velocity":54,"Duration":360374,"SoundDuration":360374,"Delta":23055964},{"NoteNumber":57,"Velocity":24,"Duration":360374,"SoundDuration":360374,"Delta":23055964},{"NoteNumber":78,"Velocity":51,"Duration":603938,"SoundDuration":603938,"Delta":23416339},{"NoteNumber":47,"Velocity":24,"Duration":388661,"SoundDuration":388661,"Delta":23416339},{"NoteNumber":35,"Velocity":24,"Duration":437499,"SoundDuration":437499,"Delta":23805000},{"NoteNumber":76,"Velocity":49,"Duration":222222,"SoundDuration":222222,"Delta":24020278},{"NoteNumber":76,"Velocity":53,"Duration":1990140,"SoundDuration":1990140,"Delta":24242500},{"NoteNumber":40,"Velocity":26,"Duration":346352,"SoundDuration":346352,"Delta":24242500},{"NoteNumber":47,"Velocity":27,"Duration":335446,"SoundDuration":335446,"Delta":24588853},{"NoteNumber":64,"Velocity":28,"Duration":333333,"SoundDuration":333333,"Delta":24924299},{"NoteNumber":56,"Velocity":28,"Duration":327868,"SoundDuration":327868,"Delta":25257632},{"NoteNumber":47,"Velocity":29,"Duration":325203,"SoundDuration":325203,"Delta":25585501},{"NoteNumber":39,"Velocity":30,"Duration":321935,"SoundDuration":321935,"Delta":25910704},{"NoteNumber":76,"Velocity":52,"Duration":936942,"SoundDuration":936942,"Delta":26232640},{"NoteNumber":37,"Velocity":31,"Duration":314960,"SoundDuration":314960,"Delta":26232640},{"NoteNumber":44,"Velocity":32,"Duration":312500,"SoundDuration":312500,"Delta":26547600},{"NoteNumber":56,"Velocity":33,"Duration":309481,"SoundDuration":309481,"Delta":26860100},{"NoteNumber":76,"Velocity":56,"Duration":960219,"SoundDuration":960219,"Delta":27169582},{"NoteNumber":49,"Velocity":34,"Duration":307728,"SoundDuration":307728,"Delta":27169582},{"NoteNumber":44,"Velocity":35,"Duration":323944,"SoundDuration":323944,"Delta":27477311},{"NoteNumber":37,"Velocity":36,"Duration":328546,"SoundDuration":328546,"Delta":27801255},{"NoteNumber":77,"Velocity":63,"Duration":1957304,"SoundDuration":1957304,"Delta":28129802},{"NoteNumber":44,"Velocity":39,"Duration":329901,"SoundDuration":329901,"Delta":28129802},{"NoteNumber":49,"Velocity":39,"Duration":327202,"SoundDuration":327202,"Delta":28459703},{"NoteNumber":59,"Velocity":38,"Duration":324547,"SoundDuration":324547,"Delta":28786906},{"NoteNumber":49,"Velocity":38,"Duration":322580,"SoundDuration":322580,"Delta":29111453},{"NoteNumber":44,"Velocity":37,"Duration":325203,"SoundDuration":325203,"Delta":29434034},{"NoteNumber":37,"Velocity":37,"Duration":327868,"SoundDuration":327868,"Delta":29759237},{"NoteNumber":78,"Velocity":63,"Duration":2975291,"SoundDuration":2975291,"Delta":30087106},{"NoteNumber":45,"Velocity":36,"Duration":325203,"SoundDuration":325203,"Delta":30087106},{"NoteNumber":49,"Velocity":36,"Duration":321935,"SoundDuration":321935,"Delta":30412309},{"NoteNumber":57,"Velocity":35,"Duration":318730,"SoundDuration":318730,"Delta":30734245},{"NoteNumber":49,"Velocity":34,"Duration":327868,"SoundDuration":327868,"Delta":31052975},{"NoteNumber":45,"Velocity":34,"Duration":327868,"SoundDuration":327868,"Delta":31380844},{"NoteNumber":37,"Velocity":33,"Duration":327869,"SoundDuration":327869,"Delta":31708713},{"NoteNumber":45,"Velocity":30,"Duration":341938,"SoundDuration":341938,"Delta":32036582},{"NoteNumber":50,"Velocity":28,"Duration":341938,"SoundDuration":341938,"Delta":32378521},{"NoteNumber":57,"Velocity":26,"Duration":341938,"SoundDuration":341938,"Delta":32720460},{"NoteNumber":76,"Velocity":48,"Duration":740253,"SoundDuration":740253,"Delta":33062398},{"NoteNumber":50,"Velocity":27,"Duration":329001,"SoundDuration":329001,"Delta":33062398},{"NoteNumber":45,"Velocity":25,"Duration":329001,"SoundDuration":329001,"Delta":33391399},{"NoteNumber":37,"Velocity":25,"Duration":329001,"SoundDuration":329001,"Delta":33720401},{"NoteNumber":74,"Velocity":45,"Duration":246750,"SoundDuration":246750,"Delta":33802651},{"NoteNumber":73,"Velocity":43,"Duration":983606,"SoundDuration":983606,"Delta":34049402},{"NoteNumber":45,"Velocity":25,"Duration":327868,"SoundDuration":327868,"Delta":34049402},{"NoteNumber":50,"Velocity":24,"Duration":327868,"SoundDuration":327868,"Delta":34377271},{"NoteNumber":57,"Velocity":24,"Duration":327868,"SoundDuration":327868,"Delta":34705140},{"NoteNumber":72,"Velocity":42,"Duration":1040288,"SoundDuration":1040288,"Delta":35033009},{"NoteNumber":50,"Velocity":24,"Duration":344174,"SoundDuration":344174,"Delta":35033009},{"NoteNumber":45,"Velocity":24,"Duration":343601,"SoundDuration":343601,"Delta":35377184},{"NoteNumber":37,"Velocity":24,"Duration":352511,"SoundDuration":352511,"Delta":35720786},{"NoteNumber":45,"Velocity":26,"Duration":359743,"SoundDuration":359743,"Delta":36073297},{"NoteNumber":50,"Velocity":24,"Duration":333438,"SoundDuration":333438,"Delta":36433041},{"NoteNumber":57,"Velocity":23,"Duration":329223,"SoundDuration":329223,"Delta":36766479},{"NoteNumber":50,"Velocity":23,"Duration":325869,"SoundDuration":325869,"Delta":37095703},{"NoteNumber":45,"Velocity":23,"Duration":325203,"SoundDuration":325203,"Delta":37421573},{"NoteNumber":37,"Velocity":23,"Duration":325203,"SoundDuration":325203,"Delta":37746776},{"NoteNumber":45,"Velocity":26,"Duration":339674,"SoundDuration":339674,"Delta":38071980},{"NoteNumber":50,"Velocity":24,"Duration":339673,"SoundDuration":339673,"Delta":38411654},{"NoteNumber":57,"Velocity":24,"Duration":339674,"SoundDuration":339674,"Delta":38751328},{"NoteNumber":50,"Velocity":24,"Duration":354676,"SoundDuration":354676,"Delta":39091002},{"NoteNumber":45,"Velocity":24,"Duration":362772,"SoundDuration":362772,"Delta":39445679},{"NoteNumber":37,"Velocity":24,"Duration":441970,"SoundDuration":441970,"Delta":39808451},{"NoteNumber":73,"Velocity":57,"Duration":1004166,"SoundDuration":1004166,"Delta":40250422},{"NoteNumber":85,"Velocity":57,"Duration":1004166,"SoundDuration":1004166,"Delta":40250422},{"NoteNumber":44,"Velocity":34,"Duration":335345,"SoundDuration":335345,"Delta":40250422},{"NoteNumber":56,"Velocity":28,"Duration":335345,"SoundDuration":335345,"Delta":40585767},{"NoteNumber":61,"Velocity":28,"Duration":333476,"SoundDuration":333476,"Delta":40921112},{"NoteNumber":80,"Velocity":60,"Duration":965942,"SoundDuration":965942,"Delta":41254589},{"NoteNumber":52,"Velocity":28,"Duration":326536,"SoundDuration":326536,"Delta":41254589},{"NoteNumber":44,"Velocity":29,"Duration":321935,"SoundDuration":321935,"Delta":41581125},{"NoteNumber":37,"Velocity":29,"Duration":317470,"SoundDuration":317470,"Delta":41903060},{"NoteNumber":78,"Velocity":59,"Duration":338982,"SoundDuration":338982,"Delta":42220531},{"NoteNumber":37,"Velocity":31,"Duration":338982,"SoundDuration":338982,"Delta":42220531},{"NoteNumber":80,"Velocity":52,"Duration":317460,"SoundDuration":317460,"Delta":42559514},{"NoteNumber":44,"Velocity":24,"Duration":317460,"SoundDuration":317460,"Delta":42559514},{"NoteNumber":78,"Velocity":52,"Duration":317460,"SoundDuration":317460,"Delta":42876974},{"NoteNumber":60,"Velocity":24,"Duration":317460,"SoundDuration":317460,"Delta":42876974},{"NoteNumber":76,"Velocity":56,"Duration":754527,"SoundDuration":754527,"Delta":43194434},{"NoteNumber":54,"Velocity":24,"Duration":335345,"SoundDuration":335345,"Delta":43194434},{"NoteNumber":44,"Velocity":24,"Duration":335345,"SoundDuration":335345,"Delta":43529780},{"NoteNumber":37,"Velocity":24,"Duration":351693,"SoundDuration":351693,"Delta":43865125},{"NoteNumber":75,"Velocity":54,"Duration":267857,"SoundDuration":267857,"Delta":43948961},{"NoteNumber":73,"Velocity":62,"Duration":1975176,"SoundDuration":1975176,"Delta":44216819},{"NoteNumber":37,"Velocity":27,"Duration":335345,"SoundDuration":335345,"Delta":44216819},{"NoteNumber":44,"Velocity":27,"Duration":335345,"SoundDuration":335345,"Delta":44552164},{"NoteNumber":61,"Velocity":28,"Duration":332809,"SoundDuration":332809,"Delta":44887509},{"NoteNumber":52,"Velocity":29,"Duration":325203,"SoundDuration":325203,"Delta":45220319},{"NoteNumber":44,"Velocity":29,"Duration":323892,"SoundDuration":323892,"Delta":45545522},{"NoteNumber":37,"Velocity":30,"Duration":322580,"SoundDuration":322580,"Delta":45869415},{"NoteNumber":75,"Velocity":57,"Duration":1945923,"SoundDuration":1945923,"Delta":46191995},{"NoteNumber":37,"Velocity":30,"Duration":320000,"SoundDuration":320000,"Delta":46191995},{"NoteNumber":44,"Velocity":31,"Duration":320000,"SoundDuration":320000,"Delta":46511995},{"NoteNumber":60,"Velocity":32,"Duration":320000,"SoundDuration":320000,"Delta":46831995},{"NoteNumber":54,"Velocity":32,"Duration":321311,"SoundDuration":321311,"Delta":47151995},{"NoteNumber":44,"Velocity":33,"Duration":331278,"SoundDuration":331278,"Delta":47473306},{"NoteNumber":37,"Velocity":33,"Duration":333333,"SoundDuration":333333,"Delta":47804585},{"NoteNumber":76,"Velocity":62,"Duration":754527,"SoundDuration":754527,"Delta":48137918},{"NoteNumber":37,"Velocity":34,"Duration":335345,"SoundDuration":335345,"Delta":48137918},{"NoteNumber":44,"Velocity":29,"Duration":335345,"SoundDuration":335345,"Delta":48473264},{"NoteNumber":61,"Velocity":30,"Duration":323836,"SoundDuration":323836,"Delta":48808609},{"NoteNumber":78,"Velocity":63,"Duration":240000,"SoundDuration":240000,"Delta":48892445},{"NoteNumber":80,"Velocity":65,"Duration":960000,"SoundDuration":960000,"Delta":49132445},{"NoteNumber":52,"Velocity":30,"Duration":320000,"SoundDuration":320000,"Delta":49132445},{"NoteNumber":44,"Velocity":30,"Duration":320000,"SoundDuration":320000,"Delta":49452445},{"NoteNumber":37,"Velocity":30,"Duration":320000,"SoundDuration":320000,"Delta":49772445},{"NoteNumber":78,"Velocity":58,"Duration":1019021,"SoundDuration":1019021,"Delta":50092445},{"NoteNumber":32,"Velocity":26,"Duration":339674,"SoundDuration":339674,"Delta":50092445},{"NoteNumber":44,"Velocity":24,"Duration":339673,"SoundDuration":339673,"Delta":50432119},{"NoteNumber":60,"Velocity":24,"Duration":339674,"SoundDuration":339674,"Delta":50771793},{"NoteNumber":74,"Velocity":56,"Duration":1094278,"SoundDuration":1094278,"Delta":51111467},{"NoteNumber":54,"Velocity":24,"Duration":344891,"SoundDuration":344891,"Delta":51111467},{"NoteNumber":44,"Velocity":24,"Duration":363711,"SoundDuration":363711,"Delta":51456359},{"NoteNumber":32,"Velocity":24,"Duration":385674,"SoundDuration":385674,"Delta":51820070},{"NoteNumber":73,"Velocity":59,"Duration":2022200,"SoundDuration":2022200,"Delta":52205745},{"NoteNumber":37,"Velocity":26,"Duration":354121,"SoundDuration":354121,"Delta":52205745},{"NoteNumber":44,"Velocity":23,"Duration":334745,"SoundDuration":334745,"Delta":52559866},{"NoteNumber":61,"Velocity":24,"Duration":333333,"SoundDuration":333333,"Delta":52894612},{"NoteNumber":52,"Velocity":24,"Duration":333333,"SoundDuration":333333,"Delta":53227945},{"NoteNumber":44,"Velocity":24,"Duration":333333,"SoundDuration":333333,"Delta":53561279},{"NoteNumber":37,"Velocity":24,"Duration":333333,"SoundDuration":333333,"Delta":53894612},{"NoteNumber":68,"Velocity":51,"Duration":1051656,"SoundDuration":1051656,"Delta":54227945},{"NoteNumber":37,"Velocity":26,"Duration":344174,"SoundDuration":344174,"Delta":54227945},{"NoteNumber":44,"Velocity":24,"Duration":344174,"SoundDuration":344174,"Delta":54572120},{"NoteNumber":60,"Velocity":24,"Duration":363306,"SoundDuration":363306,"Delta":54916295},{"NoteNumber":80,"Velocity":59,"Duration":1059658,"SoundDuration":1059658,"Delta":55279602},{"NoteNumber":54,"Velocity":24,"Duration":335345,"SoundDuration":335345,"Delta":55279602},{"NoteNumber":44,"Velocity":24,"Duration":335345,"SoundDuration":335345,"Delta":55614947},{"NoteNumber":37,"Velocity":24,"Duration":388967,"SoundDuration":388967,"Delta":55950292},{"NoteNumber":85,"Velocity":60,"Duration":1006036,"SoundDuration":1006036,"Delta":56339260},{"NoteNumber":37,"Velocity":34,"Duration":335345,"SoundDuration":335345,"Delta":56339260},{"NoteNumber":44,"Velocity":32,"Duration":335345,"SoundDuration":335345,"Delta":56674606},{"NoteNumber":61,"Velocity":32,"Duration":335345,"SoundDuration":335345,"Delta":57009951},{"NoteNumber":80,"Velocity":59,"Duration":982864,"SoundDuration":982864,"Delta":57345296},{"NoteNumber":52,"Velocity":32,"Duration":331770,"SoundDuration":331770,"Delta":57345296},{"NoteNumber":44,"Velocity":31,"Duration":327202,"SoundDuration":327202,"Delta":57677066},{"NoteNumber":37,"Velocity":31,"Duration":323892,"SoundDuration":323892,"Delta":58004269},{"NoteNumber":78,"Velocity":58,"Duration":320000,"SoundDuration":320000,"Delta":58328161},{"NoteNumber":37,"Velocity":26,"Duration":320000,"SoundDuration":320000,"Delta":58328161},{"NoteNumber":80,"Velocity":52,"Duration":320000,"SoundDuration":320000,"Delta":58648161},{"NoteNumber":44,"Velocity":24,"Duration":320000,"SoundDuration":320000,"Delta":58648161},{"NoteNumber":78,"Velocity":52,"Duration":320000,"SoundDuration":320000,"Delta":58968161},{"NoteNumber":60,"Velocity":24,"Duration":320000,"SoundDuration":320000,"Delta":58968161},{"NoteNumber":76,"Velocity":56,"Duration":754527,"SoundDuration":754527,"Delta":59288161},{"NoteNumber":54,"Velocity":24,"Duration":335345,"SoundDuration":335345,"Delta":59288161},{"NoteNumber":44,"Velocity":24,"Duration":335345,"SoundDuration":335345,"Delta":59623506},{"NoteNumber":37,"Velocity":24,"Duration":356563,"SoundDuration":356563,"Delta":59958852},{"NoteNumber":75,"Velocity":54,"Duration":272727,"SoundDuration":272727,"Delta":60042688},{"NoteNumber":73,"Velocity":62,"Duration":1977257,"SoundDuration":1977257,"Delta":60315415},{"NoteNumber":37,"Velocity":26,"Duration":335345,"SoundDuration":335345,"Delta":60315415},{"NoteNumber":44,"Velocity":26,"Duration":335345,"SoundDuration":335345,"Delta":60650761},{"NoteNumber":61,"Velocity":27,"Duration":335345,"SoundDuration":335345,"Delta":60986106},{"NoteNumber":52,"Velocity":27,"Duration":329223,"SoundDuration":329223,"Delta":61321451},{"NoteNumber":44,"Velocity":28,"Duration":323892,"SoundDuration":323892,"Delta":61650675},{"NoteNumber":37,"Velocity":29,"Duration":318105,"SoundDuration":318105,"Delta":61974567},{"NoteNumber":75,"Velocity":57,"Duration":1925282,"SoundDuration":1925282,"Delta":62292672},{"NoteNumber":32,"Velocity":29,"Duration":321935,"SoundDuration":321935,"Delta":62292672},{"NoteNumber":44,"Velocity":30,"Duration":317470,"SoundDuration":317470,"Delta":62614608},{"NoteNumber":60,"Velocity":30,"Duration":312509,"SoundDuration":312509,"Delta":62932078},{"NoteNumber":54,"Velocity":31,"Duration":316230,"SoundDuration":316230,"Delta":63244588},{"NoteNumber":44,"Velocity":32,"Duration":326557,"SoundDuration":326557,"Delta":63560818},{"NoteNumber":32,"Velocity":32,"Duration":330578,"SoundDuration":330578,"Delta":63887376},{"NoteNumber":76,"Velocity":62,"Duration":754526,"SoundDuration":754526,"Delta":64217955},{"NoteNumber":37,"Velocity":35,"Duration":335345,"SoundDuration":335345,"Delta":64217955},{"NoteNumber":44,"Velocity":34,"Duration":335345,"SoundDuration":335345,"Delta":64553300},{"NoteNumber":61,"Velocity":33,"Duration":335345,"SoundDuration":335345,"Delta":64888645},{"NoteNumber":78,"Velocity":63,"Duration":251508,"SoundDuration":251508,"Delta":64972482},{"NoteNumber":80,"Velocity":65,"Duration":975610,"SoundDuration":975610,"Delta":65223991},{"NoteNumber":52,"Velocity":32,"Duration":325203,"SoundDuration":325203,"Delta":65223991},{"NoteNumber":44,"Velocity":31,"Duration":325203,"SoundDuration":325203,"Delta":65549194},{"NoteNumber":37,"Velocity":29,"Duration":325203,"SoundDuration":325203,"Delta":65874397},{"NoteNumber":78,"Velocity":58,"Duration":1019022,"SoundDuration":1019022,"Delta":66199601},{"NoteNumber":42,"Velocity":26,"Duration":339674,"SoundDuration":339674,"Delta":66199601},{"NoteNumber":50,"Velocity":24,"Duration":339674,"SoundDuration":339674,"Delta":66539275},{"NoteNumber":57,"Velocity":24,"Duration":339674,"SoundDuration":339674,"Delta":66878949},{"NoteNumber":74,"Velocity":56,"Duration":1099115,"SoundDuration":1099115,"Delta":67218623},{"NoteNumber":44,"Velocity":24,"Duration":347129,"SoundDuration":347129,"Delta":67218623},{"NoteNumber":54,"Velocity":24,"Duration":365395,"SoundDuration":365395,"Delta":67565752},{"NoteNumber":60,"Velocity":24,"Duration":386590,"SoundDuration":386590,"Delta":67931148},{"NoteNumber":73,"Velocity":62,"Duration":4210487,"SoundDuration":4210487,"Delta":68317738},{"NoteNumber":37,"Velocity":26,"Duration":345628,"SoundDuration":345628,"Delta":68317738},{"NoteNumber":44,"Velocity":23,"Duration":331967,"SoundDuration":331967,"Delta":68663367},{"NoteNumber":61,"Velocity":24,"Duration":330578,"SoundDuration":330578,"Delta":68995334},{"NoteNumber":52,"Velocity":24,"Duration":330578,"SoundDuration":330578,"Delta":69325913},{"NoteNumber":44,"Velocity":24,"Duration":330578,"SoundDuration":330578,"Delta":69656492},{"NoteNumber":37,"Velocity":24,"Duration":324380,"SoundDuration":324380,"Delta":69987070},{"NoteNumber":37,"Velocity":26,"Duration":344175,"SoundDuration":344175,"Delta":70317649},{"NoteNumber":44,"Velocity":24,"Duration":344174,"SoundDuration":344174,"Delta":70661824},{"NoteNumber":56,"Velocity":24,"Duration":344338,"SoundDuration":344338,"Delta":71005999},{"NoteNumber":49,"Velocity":24,"Duration":353261,"SoundDuration":353261,"Delta":71350337},{"NoteNumber":44,"Velocity":24,"Duration":386880,"SoundDuration":386880,"Delta":71703599},{"NoteNumber":37,"Velocity":24,"Duration":437747,"SoundDuration":437747,"Delta":72090479},{"NoteNumber":76,"Velocity":54,"Duration":2032342,"SoundDuration":2032342,"Delta":72528226},{"NoteNumber":44,"Velocity":26,"Duration":407406,"SoundDuration":407406,"Delta":72528226},{"NoteNumber":49,"Velocity":26,"Duration":338306,"SoundDuration":338306,"Delta":72935632},{"NoteNumber":56,"Velocity":26,"Duration":317460,"SoundDuration":317460,"Delta":73273939},{"NoteNumber":49,"Velocity":27,"Duration":327202,"SoundDuration":327202,"Delta":73591399},{"NoteNumber":44,"Velocity":28,"Duration":323236,"SoundDuration":323236,"Delta":73918602},{"NoteNumber":37,"Velocity":28,"Duration":318730,"SoundDuration":318730,"Delta":74241838},{"NoteNumber":76,"Velocity":51,"Duration":952381,"SoundDuration":952381,"Delta":74560568},{"NoteNumber":44,"Velocity":29,"Duration":317460,"SoundDuration":317460,"Delta":74560568},{"NoteNumber":49,"Velocity":29,"Duration":317460,"SoundDuration":317460,"Delta":74878029},{"NoteNumber":56,"Velocity":30,"Duration":317460,"SoundDuration":317460,"Delta":75195489},{"NoteNumber":76,"Velocity":54,"Duration":966670,"SoundDuration":966670,"Delta":75512949},{"NoteNumber":49,"Velocity":30,"Duration":316210,"SoundDuration":316210,"Delta":75512949},{"NoteNumber":44,"Velocity":31,"Duration":322591,"SoundDuration":322591,"Delta":75829160},{"NoteNumber":37,"Velocity":32,"Duration":327868,"SoundDuration":327868,"Delta":76151751},{"NoteNumber":71,"Velocity":48,"Duration":969941,"SoundDuration":969941,"Delta":76479620},{"NoteNumber":77,"Velocity":56,"Duration":1936224,"SoundDuration":1936224,"Delta":76479620},{"NoteNumber":44,"Velocity":32,"Duration":329223,"SoundDuration":329223,"Delta":76479620},{"NoteNumber":49,"Velocity":32,"Duration":323246,"SoundDuration":323246,"Delta":76808844},{"NoteNumber":56,"Velocity":31,"Duration":317470,"SoundDuration":317470,"Delta":77132091},{"NoteNumber":73,"Velocity":53,"Duration":703125,"SoundDuration":703125,"Delta":77449561},{"NoteNumber":49,"Velocity":30,"Duration":312500,"SoundDuration":312500,"Delta":77449561},{"NoteNumber":44,"Velocity":30,"Duration":312500,"SoundDuration":312500,"Delta":77762061},{"NoteNumber":37,"Velocity":29,"Duration":341283,"SoundDuration":341283,"Delta":78074561},{"NoteNumber":71,"Velocity":49,"Duration":263158,"SoundDuration":263158,"Delta":78152686},{"NoteNumber":71,"Velocity":50,"Duration":987003,"SoundDuration":987003,"Delta":78415844},{"NoteNumber":78,"Velocity":55,"Duration":2995389,"SoundDuration":2995389,"Delta":78415844},{"NoteNumber":42,"Velocity":28,"Duration":329001,"SoundDuration":329001,"Delta":78415844},{"NoteNumber":49,"Velocity":27,"Duration":329001,"SoundDuration":329001,"Delta":78744845},{"NoteNumber":61,"Velocity":27,"Duration":329001,"SoundDuration":329001,"Delta":79073847},{"NoteNumber":69,"Velocity":51,"Duration":742637,"SoundDuration":742637,"Delta":79402848},{"NoteNumber":54,"Velocity":26,"Duration":324558,"SoundDuration":324558,"Delta":79402848},{"NoteNumber":49,"Velocity":25,"Duration":334045,"SoundDuration":334045,"Delta":79727406},{"NoteNumber":42,"Velocity":23,"Duration":349520,"SoundDuration":349520,"Delta":80061452},{"NoteNumber":68,"Velocity":48,"Duration":265486,"SoundDuration":265486,"Delta":80145485},{"NoteNumber":66,"Velocity":50,"Duration":4091563,"SoundDuration":4091563,"Delta":80410972},{"NoteNumber":30,"Velocity":26,"Duration":339036,"SoundDuration":339036,"Delta":80410972},{"NoteNumber":42,"Velocity":24,"Duration":333344,"SoundDuration":333344,"Delta":80750008},{"NoteNumber":57,"Velocity":24,"Duration":327880,"SoundDuration":327880,"Delta":81083353},{"NoteNumber":76,"Velocity":56,"Duration":740252,"SoundDuration":740252,"Delta":81411233},{"NoteNumber":50,"Velocity":24,"Duration":329001,"SoundDuration":329001,"Delta":81411233},{"NoteNumber":42,"Velocity":24,"Duration":329001,"SoundDuration":329001,"Delta":81740235},{"NoteNumber":30,"Velocity":24,"Duration":343119,"SoundDuration":343119,"Delta":82069236},{"NoteNumber":74,"Velocity":55,"Duration":260869,"SoundDuration":260869,"Delta":82151486},{"NoteNumber":73,"Velocity":54,"Duration":1008403,"SoundDuration":1008403,"Delta":82412356},{"NoteNumber":32,"Velocity":26,"Duration":336134,"SoundDuration":336134,"Delta":82412356},{"NoteNumber":44,"Velocity":24,"Duration":336134,"SoundDuration":336134,"Delta":82748490},{"NoteNumber":56,"Velocity":24,"Duration":336134,"SoundDuration":336134,"Delta":83084625},{"NoteNumber":72,"Velocity":51,"Duration":1081776,"SoundDuration":1081776,"Delta":83420759},{"NoteNumber":51,"Velocity":24,"Duration":349378,"SoundDuration":349378,"Delta":83420759},{"NoteNumber":44,"Velocity":24,"Duration":362028,"SoundDuration":362028,"Delta":83770137},{"NoteNumber":32,"Velocity":24,"Duration":370370,"SoundDuration":370370,"Delta":84132165},{"NoteNumber":64,"Velocity":45,"Duration":1025640,"SoundDuration":1025640,"Delta":84502536},{"NoteNumber":73,"Velocity":54,"Duration":1025640,"SoundDuration":1025640,"Delta":84502536},{"NoteNumber":37,"Velocity":26,"Duration":341880,"SoundDuration":341880,"Delta":84511083},{"NoteNumber":44,"Velocity":24,"Duration":341880,"SoundDuration":341880,"Delta":84848689},{"NoteNumber":61,"Velocity":23,"Duration":341880,"SoundDuration":341880,"Delta":85186296},{"NoteNumber":80,"Velocity":60,"Duration":2096648,"SoundDuration":2096648,"Delta":85528177},{"NoteNumber":52,"Velocity":23,"Duration":333222,"SoundDuration":333222,"Delta":85528177},{"NoteNumber":44,"Velocity":23,"Duration":333222,"SoundDuration":333222,"Delta":85861399},{"NoteNumber":37,"Velocity":23,"Duration":333222,"SoundDuration":333222,"Delta":86194621},{"NoteNumber":69,"Velocity":41,"Duration":174675,"SoundDuration":174675,"Delta":86527844},{"NoteNumber":35,"Velocity":26,"Duration":352457,"SoundDuration":352457,"Delta":86527844},{"NoteNumber":71,"Velocity":39,"Duration":178419,"SoundDuration":178419,"Delta":86737918},{"NoteNumber":47,"Velocity":24,"Duration":365334,"SoundDuration":365334,"Delta":86880301},{"NoteNumber":69,"Velocity":39,"Duration":182321,"SoundDuration":182321,"Delta":86952373},{"NoteNumber":68,"Velocity":41,"Duration":186399,"SoundDuration":186399,"Delta":87171561},{"NoteNumber":63,"Velocity":24,"Duration":379189,"SoundDuration":379189,"Delta":87245636},{"NoteNumber":69,"Velocity":39,"Duration":190666,"SoundDuration":190666,"Delta":87395697},{"NoteNumber":78,"Velocity":54,"Duration":1251041,"SoundDuration":1251041,"Delta":87624825},{"NoteNumber":71,"Velocity":42,"Duration":926123,"SoundDuration":926123,"Delta":87624825},{"NoteNumber":57,"Velocity":24,"Duration":403050,"SoundDuration":403050,"Delta":87624825},{"NoteNumber":47,"Velocity":24,"Duration":416689,"SoundDuration":416689,"Delta":88027876},{"NoteNumber":35,"Velocity":24,"Duration":431301,"SoundDuration":431301,"Delta":88444565},{"NoteNumber":66,"Velocity":40,"Duration":324918,"SoundDuration":324918,"Delta":88550948},{"NoteNumber":68,"Velocity":46,"Duration":3964567,"SoundDuration":3964567,"Delta":88875866},{"NoteNumber":76,"Velocity":54,"Duration":2022140,"SoundDuration":2022140,"Delta":88875866},{"NoteNumber":40,"Velocity":30,"Duration":378560,"SoundDuration":378560,"Delta":88875866},{"NoteNumber":47,"Velocity":31,"Duration":340703,"SoundDuration":340703,"Delta":89254426},{"NoteNumber":64,"Velocity":31,"Duration":327868,"SoundDuration":327868,"Delta":89595130},{"NoteNumber":56,"Velocity":32,"Duration":327868,"SoundDuration":327868,"Delta":89922999},{"NoteNumber":47,"Velocity":32,"Duration":325203,"SoundDuration":325203,"Delta":90250868},{"NoteNumber":39,"Velocity":33,"Duration":321935,"SoundDuration":321935,"Delta":90576071},{"NoteNumber":76,"Velocity":54,"Duration":960000,"SoundDuration":960000,"Delta":90898007},{"NoteNumber":37,"Velocity":34,"Duration":319999,"SoundDuration":319999,"Delta":90898007},{"NoteNumber":44,"Velocity":34,"Duration":320000,"SoundDuration":320000,"Delta":91218007},{"NoteNumber":56,"Velocity":35,"Duration":320000,"SoundDuration":320000,"Delta":91538007},{"NoteNumber":76,"Velocity":58,"Duration":982427,"SoundDuration":982427,"Delta":91858007},{"NoteNumber":49,"Velocity":35,"Duration":322591,"SoundDuration":322591,"Delta":91858007},{"NoteNumber":44,"Velocity":36,"Duration":327880,"SoundDuration":327880,"Delta":92180598},{"NoteNumber":37,"Velocity":36,"Duration":331956,"SoundDuration":331956,"Delta":92508478},{"NoteNumber":71,"Velocity":55,"Duration":975125,"SoundDuration":975125,"Delta":92840434},{"NoteNumber":77,"Velocity":62,"Duration":1965243,"SoundDuration":1965243,"Delta":92840434},{"NoteNumber":37,"Velocity":37,"Duration":329901,"SoundDuration":329901,"Delta":92840434},{"NoteNumber":44,"Velocity":37,"Duration":325214,"SoundDuration":325214,"Delta":93170335},{"NoteNumber":61,"Velocity":36,"Duration":320010,"SoundDuration":320010,"Delta":93495549},{"NoteNumber":73,"Velocity":56,"Duration":724630,"SoundDuration":724630,"Delta":93815559},{"NoteNumber":53,"Velocity":35,"Duration":317460,"SoundDuration":317460,"Delta":93815559},{"NoteNumber":44,"Velocity":34,"Duration":325203,"SoundDuration":325203,"Delta":94133020},{"NoteNumber":37,"Velocity":33,"Duration":347453,"SoundDuration":347453,"Delta":94458223},{"NoteNumber":71,"Velocity":51,"Duration":265486,"SoundDuration":265486,"Delta":94540190},{"NoteNumber":71,"Velocity":54,"Duration":965868,"SoundDuration":965868,"Delta":94805677},{"NoteNumber":78,"Velocity":60,"Duration":2966840,"SoundDuration":2966840,"Delta":94805677},{"NoteNumber":37,"Velocity":32,"Duration":325203,"SoundDuration":325203,"Delta":94805677},{"NoteNumber":45,"Velocity":31,"Duration":321935,"SoundDuration":321935,"Delta":95130880},{"NoteNumber":61,"Velocity":30,"Duration":318730,"SoundDuration":318730,"Delta":95452816},{"NoteNumber":69,"Velocity":57,"Duration":714285,"SoundDuration":714285,"Delta":95771546},{"NoteNumber":54,"Velocity":29,"Duration":317460,"SoundDuration":317460,"Delta":95771546},{"NoteNumber":45,"Velocity":29,"Duration":317460,"SoundDuration":317460,"Delta":96089006},{"NoteNumber":37,"Velocity":28,"Duration":340234,"SoundDuration":340234,"Delta":96406467},{"NoteNumber":68,"Velocity":52,"Duration":260869,"SoundDuration":260869,"Delta":96485832},{"NoteNumber":66,"Velocity":53,"Duration":3995556,"SoundDuration":3995556,"Delta":96746701},{"NoteNumber":37,"Velocity":26,"Duration":341938,"SoundDuration":341938,"Delta":96746701},{"NoteNumber":45,"Velocity":24,"Duration":341938,"SoundDuration":341938,"Delta":97088640},{"NoteNumber":57,"Velocity":24,"Duration":341938,"SoundDuration":341938,"Delta":97430579},{"NoteNumber":76,"Velocity":56,"Duration":740252,"SoundDuration":740252,"Delta":97772517},{"NoteNumber":50,"Velocity":24,"Duration":329001,"SoundDuration":329001,"Delta":97772517},{"NoteNumber":45,"Velocity":24,"Duration":329001,"SoundDuration":329001,"Delta":98101519},{"NoteNumber":37,"Velocity":24,"Duration":352520,"SoundDuration":352520,"Delta":98430520},{"NoteNumber":74,"Velocity":55,"Duration":270270,"SoundDuration":270270,"Delta":98512770},{"NoteNumber":73,"Velocity":54,"Duration":975610,"SoundDuration":975610,"Delta":98783041},{"NoteNumber":37,"Velocity":26,"Duration":325203,"SoundDuration":325203,"Delta":98783041},{"NoteNumber":45,"Velocity":24,"Duration":325203,"SoundDuration":325203,"Delta":99108244},{"NoteNumber":57,"Velocity":24,"Duration":325203,"SoundDuration":325203,"Delta":99433447},{"NoteNumber":72,"Velocity":52,"Duration":3016588,"SoundDuration":3016588,"Delta":99758651},{"NoteNumber":50,"Velocity":24,"Duration":327869,"SoundDuration":327869,"Delta":99758651},{"NoteNumber":45,"Velocity":24,"Duration":327868,"SoundDuration":327868,"Delta":100086520},{"NoteNumber":37,"Velocity":24,"Duration":327869,"SoundDuration":327869,"Delta":100414389},{"NoteNumber":66,"Velocity":41,"Duration":1000000,"SoundDuration":1000000,"Delta":100742258},{"NoteNumber":37,"Velocity":26,"Duration":333333,"SoundDuration":333333,"Delta":100742258},{"NoteNumber":45,"Velocity":22,"Duration":333333,"SoundDuration":333333,"Delta":101075591},{"NoteNumber":57,"Velocity":24,"Duration":333333,"SoundDuration":333333,"Delta":101408924},{"NoteNumber":64,"Velocity":45,"Duration":762711,"SoundDuration":762711,"Delta":101742258},{"NoteNumber":50,"Velocity":27,"Duration":338982,"SoundDuration":338982,"Delta":101742258},{"NoteNumber":45,"Velocity":23,"Duration":338982,"SoundDuration":338982,"Delta":102081241},{"NoteNumber":37,"Velocity":23,"Duration":355015,"SoundDuration":355015,"Delta":102420224},{"NoteNumber":62,"Velocity":34,"Duration":270270,"SoundDuration":270270,"Delta":102504969},{"NoteNumber":61,"Velocity":40,"Duration":1019022,"SoundDuration":1019022,"Delta":102775240},{"NoteNumber":37,"Velocity":26,"Duration":339674,"SoundDuration":339674,"Delta":102775240},{"NoteNumber":45,"Velocity":24,"Duration":339674,"SoundDuration":339674,"Delta":103114914},{"NoteNumber":57,"Velocity":24,"Duration":339674,"SoundDuration":339674,"Delta":103454588},{"NoteNumber":60,"Velocity":36,"Duration":1153882,"SoundDuration":1153882,"Delta":103794262},{"NoteNumber":50,"Velocity":24,"Duration":356284,"SoundDuration":356284,"Delta":103794262},{"NoteNumber":45,"Velocity":24,"Duration":384019,"SoundDuration":384019,"Delta":104150546},{"NoteNumber":37,"Velocity":24,"Duration":413578,"SoundDuration":413578,"Delta":104534566},{"NoteNumber":45,"Velocity":26,"Duration":384793,"SoundDuration":384793,"Delta":104948144},{"NoteNumber":50,"Velocity":22,"Duration":357285,"SoundDuration":357285,"Delta":105332938},{"NoteNumber":57,"Velocity":24,"Duration":341880,"SoundDuration":341880,"Delta":105690223},{"NoteNumber":62,"Velocity":27,"Duration":339707,"SoundDuration":339707,"Delta":106032103},{"NoteNumber":57,"Velocity":23,"Duration":338270,"SoundDuration":338270,"Delta":106371811},{"NoteNumber":50,"Velocity":23,"Duration":336134,"SoundDuration":336134,"Delta":106710081},{"NoteNumber":45,"Velocity":26,"Duration":333333,"SoundDuration":333333,"Delta":107046216},{"NoteNumber":50,"Velocity":24,"Duration":333333,"SoundDuration":333333,"Delta":107379549},{"NoteNumber":57,"Velocity":25,"Duration":331967,"SoundDuration":331967,"Delta":107712882},{"NoteNumber":50,"Velocity":24,"Duration":331278,"SoundDuration":331278,"Delta":108044850},{"NoteNumber":45,"Velocity":24,"Duration":339719,"SoundDuration":339719,"Delta":108376128},{"NoteNumber":37,"Velocity":24,"Duration":347839,"SoundDuration":347839,"Delta":108715848},{"NoteNumber":50,"Velocity":26,"Duration":356352,"SoundDuration":356352,"Delta":109063687},{"NoteNumber":57,"Velocity":23,"Duration":353206,"SoundDuration":353206,"Delta":109420040},{"NoteNumber":62,"Velocity":25,"Duration":349351,"SoundDuration":349351,"Delta":109773246},{"NoteNumber":66,"Velocity":27,"Duration":344090,"SoundDuration":344090,"Delta":110122598},{"NoteNumber":62,"Velocity":23,"Duration":340431,"SoundDuration":340431,"Delta":110466688},{"NoteNumber":57,"Velocity":23,"Duration":335445,"SoundDuration":335445,"Delta":110807120},{"NoteNumber":45,"Velocity":26,"Duration":335434,"SoundDuration":335434,"Delta":111142566},{"NoteNumber":50,"Velocity":24,"Duration":339707,"SoundDuration":339707,"Delta":111478000},{"NoteNumber":57,"Velocity":24,"Duration":343354,"SoundDuration":343354,"Delta":111817707},{"NoteNumber":50,"Velocity":26,"Duration":351848,"SoundDuration":351848,"Delta":112161061},{"NoteNumber":45,"Velocity":24,"Duration":362772,"SoundDuration":362772,"Delta":112512910},{"NoteNumber":37,"Velocity":24,"Duration":349999,"SoundDuration":349999,"Delta":112875683},{"NoteNumber":56,"Velocity":32,"Duration":768408,"SoundDuration":768408,"Delta":113225683},{"NoteNumber":63,"Velocity":32,"Duration":1517652,"SoundDuration":1517652,"Delta":113225683},{"NoteNumber":66,"Velocity":32,"Duration":1517652,"SoundDuration":1517652,"Delta":113225683},{"NoteNumber":68,"Velocity":38,"Duration":768408,"SoundDuration":768408,"Delta":113225683},{"NoteNumber":36,"Velocity":31,"Duration":1517652,"SoundDuration":1517652,"Delta":113225683},{"NoteNumber":43,"Velocity":26,"Duration":185487,"SoundDuration":185487,"Delta":113409416},{"NoteNumber":44,"Velocity":26,"Duration":176988,"SoundDuration":176988,"Delta":113584310},{"NoteNumber":45,"Velocity":26,"Duration":172064,"SoundDuration":172064,"Delta":113751177},{"NoteNumber":44,"Velocity":26,"Duration":172064,"SoundDuration":172064,"Delta":113913120},{"NoteNumber":56,"Velocity":33,"Duration":242915,"SoundDuration":242915,"Delta":113994092},{"NoteNumber":68,"Velocity":38,"Duration":242915,"SoundDuration":242915,"Delta":113994092},{"NoteNumber":45,"Velocity":26,"Duration":172491,"SoundDuration":172491,"Delta":114075063},{"NoteNumber":56,"Velocity":34,"Duration":506328,"SoundDuration":506328,"Delta":114237007},{"NoteNumber":68,"Velocity":41,"Duration":506328,"SoundDuration":506328,"Delta":114237007},{"NoteNumber":44,"Velocity":26,"Duration":179324,"SoundDuration":179324,"Delta":114237007},{"NoteNumber":45,"Velocity":26,"Duration":179324,"SoundDuration":179324,"Delta":114405783},{"NoteNumber":44,"Velocity":26,"Duration":168776,"SoundDuration":168776,"Delta":114574559},{"NoteNumber":56,"Velocity":34,"Duration":1445877,"SoundDuration":1445877,"Delta":114743336},{"NoteNumber":61,"Velocity":41,"Duration":717132,"SoundDuration":717132,"Delta":114743336},{"NoteNumber":68,"Velocity":41,"Duration":1445877,"SoundDuration":1445877,"Delta":114743336},{"NoteNumber":37,"Velocity":30,"Duration":1445877,"SoundDuration":1445877,"Delta":114743336},{"NoteNumber":43,"Velocity":26,"Duration":169322,"SoundDuration":169322,"Delta":114902698},{"NoteNumber":44,"Velocity":27,"Duration":169322,"SoundDuration":169322,"Delta":115062061},{"NoteNumber":45,"Velocity":27,"Duration":169322,"SoundDuration":169322,"Delta":115221424},{"NoteNumber":44,"Velocity":27,"Duration":170774,"SoundDuration":170774,"Delta":115380786},{"NoteNumber":64,"Velocity":38,"Duration":242914,"SoundDuration":242914,"Delta":115460468},{"NoteNumber":45,"Velocity":27,"Duration":172064,"SoundDuration":172064,"Delta":115541439},{"NoteNumber":61,"Velocity":39,"Duration":485830,"SoundDuration":485830,"Delta":115703383},{"NoteNumber":44,"Velocity":27,"Duration":172064,"SoundDuration":172064,"Delta":115703383},{"NoteNumber":45,"Velocity":27,"Duration":172064,"SoundDuration":172064,"Delta":115865326},{"NoteNumber":44,"Velocity":27,"Duration":161943,"SoundDuration":161943,"Delta":116027269},{"NoteNumber":56,"Velocity":39,"Duration":705778,"SoundDuration":705778,"Delta":116189213},{"NoteNumber":60,"Velocity":39,"Duration":1414785,"SoundDuration":1414785,"Delta":116189213},{"NoteNumber":68,"Velocity":47,"Duration":705778,"SoundDuration":705778,"Delta":116189213},{"NoteNumber":39,"Velocity":33,"Duration":1414785,"SoundDuration":1414785,"Delta":116189213},{"NoteNumber":43,"Velocity":33,"Duration":168279,"SoundDuration":168279,"Delta":116353836},{"NoteNumber":44,"Velocity":29,"Duration":163100,"SoundDuration":163100,"Delta":116512425},{"NoteNumber":45,"Velocity":29,"Duration":162213,"SoundDuration":162213,"Delta":116665983},{"NoteNumber":44,"Velocity":29,"Duration":162213,"SoundDuration":162213,"Delta":116818655},{"NoteNumber":56,"Velocity":38,"Duration":229007,"SoundDuration":229007,"Delta":116894991},{"NoteNumber":68,"Velocity":45,"Duration":229007,"SoundDuration":229007,"Delta":116894991},{"NoteNumber":45,"Velocity":29,"Duration":162671,"SoundDuration":162671,"Delta":116971327},{"NoteNumber":56,"Velocity":40,"Duration":480000,"SoundDuration":480000,"Delta":117123998},{"NoteNumber":68,"Velocity":48,"Duration":480000,"SoundDuration":480000,"Delta":117123998},{"NoteNumber":44,"Velocity":30,"Duration":170000,"SoundDuration":170000,"Delta":117123998},{"NoteNumber":45,"Velocity":30,"Duration":170000,"SoundDuration":170000,"Delta":117283998},{"NoteNumber":44,"Velocity":29,"Duration":160000,"SoundDuration":160000,"Delta":117443998},{"NoteNumber":56,"Velocity":40,"Duration":1379310,"SoundDuration":1379310,"Delta":117603998},{"NoteNumber":61,"Velocity":48,"Duration":689655,"SoundDuration":689655,"Delta":117603998},{"NoteNumber":68,"Velocity":48,"Duration":1379310,"SoundDuration":1379310,"Delta":117603998},{"NoteNumber":40,"Velocity":34,"Duration":1379310,"SoundDuration":1379310,"Delta":117603998},{"NoteNumber":43,"Velocity":30,"Duration":162835,"SoundDuration":162835,"Delta":117757255},{"NoteNumber":44,"Velocity":30,"Duration":162835,"SoundDuration":162835,"Delta":117910512},{"NoteNumber":45,"Velocity":30,"Duration":162835,"SoundDuration":162835,"Delta":118063768},{"NoteNumber":44,"Velocity":30,"Duration":162835,"SoundDuration":162835,"Delta":118217025},{"NoteNumber":64,"Velocity":45,"Duration":229884,"SoundDuration":229884,"Delta":118293653},{"NoteNumber":45,"Velocity":30,"Duration":162835,"SoundDuration":162835,"Delta":118370282},{"NoteNumber":61,"Velocity":45,"Duration":459770,"SoundDuration":459770,"Delta":118523538},{"NoteNumber":44,"Velocity":30,"Duration":162835,"SoundDuration":162835,"Delta":118523538},{"NoteNumber":45,"Velocity":30,"Duration":162835,"SoundDuration":162835,"Delta":118676795},{"NoteNumber":44,"Velocity":30,"Duration":153256,"SoundDuration":153256,"Delta":118830052},{"NoteNumber":61,"Velocity":45,"Duration":679200,"SoundDuration":679200,"Delta":118983308},{"NoteNumber":68,"Velocity":45,"Duration":1343479,"SoundDuration":1343479,"Delta":118983308},{"NoteNumber":71,"Velocity":45,"Duration":1343479,"SoundDuration":1343479,"Delta":118983308},{"NoteNumber":73,"Velocity":55,"Duration":679200,"SoundDuration":679200,"Delta":118983308},{"NoteNumber":41,"Velocity":45,"Duration":1343479,"SoundDuration":1343479,"Delta":118983308},{"NoteNumber":48,"Velocity":45,"Duration":162965,"SoundDuration":162965,"Delta":119142051},{"NoteNumber":49,"Velocity":40,"Duration":157799,"SoundDuration":157799,"Delta":119295618},{"NoteNumber":50,"Velocity":41,"Duration":154545,"SoundDuration":154545,"Delta":119444327},{"NoteNumber":49,"Velocity":41,"Duration":154545,"SoundDuration":154545,"Delta":119589782},{"NoteNumber":61,"Velocity":45,"Duration":218181,"SoundDuration":218181,"Delta":119662509},{"NoteNumber":73,"Velocity":53,"Duration":218181,"SoundDuration":218181,"Delta":119662509},{"NoteNumber":50,"Velocity":41,"Duration":154748,"SoundDuration":154748,"Delta":119735237},{"NoteNumber":61,"Velocity":46,"Duration":446096,"SoundDuration":446096,"Delta":119880691},{"NoteNumber":73,"Velocity":55,"Duration":446096,"SoundDuration":446096,"Delta":119880691},{"NoteNumber":49,"Velocity":41,"Duration":157992,"SoundDuration":157992,"Delta":119880691},{"NoteNumber":50,"Velocity":41,"Duration":157992,"SoundDuration":157992,"Delta":120029390},{"NoteNumber":49,"Velocity":40,"Duration":148698,"SoundDuration":148698,"Delta":120178089},{"NoteNumber":61,"Velocity":46,"Duration":1323672,"SoundDuration":1323672,"Delta":120326788},{"NoteNumber":66,"Velocity":57,"Duration":656934,"SoundDuration":656934,"Delta":120326788},{"NoteNumber":73,"Velocity":57,"Duration":1323672,"SoundDuration":1323672,"Delta":120326788},{"NoteNumber":42,"Velocity":46,"Duration":1323672,"SoundDuration":1323672,"Delta":120326788},{"NoteNumber":48,"Velocity":41,"Duration":155109,"SoundDuration":155109,"Delta":120472774},{"NoteNumber":49,"Velocity":43,"Duration":155109,"SoundDuration":155109,"Delta":120618759},{"NoteNumber":50,"Velocity":44,"Duration":155109,"SoundDuration":155109,"Delta":120764744},{"NoteNumber":49,"Velocity":44,"Duration":155109,"SoundDuration":155109,"Delta":120910730},{"NoteNumber":69,"Velocity":56,"Duration":218977,"SoundDuration":218977,"Delta":120983722},{"NoteNumber":50,"Velocity":44,"Duration":155313,"SoundDuration":155313,"Delta":121056715},{"NoteNumber":66,"Velocity":57,"Duration":447760,"SoundDuration":447760,"Delta":121202700},{"NoteNumber":49,"Velocity":44,"Duration":158582,"SoundDuration":158582,"Delta":121202700},{"NoteNumber":50,"Velocity":44,"Duration":158582,"SoundDuration":158582,"Delta":121351954},{"NoteNumber":49,"Velocity":44,"Duration":149253,"SoundDuration":149253,"Delta":121501208},{"NoteNumber":61,"Velocity":56,"Duration":656002,"SoundDuration":656002,"Delta":121650461},{"NoteNumber":65,"Velocity":56,"Duration":1302053,"SoundDuration":1302053,"Delta":121650461},{"NoteNumber":73,"Velocity":66,"Duration":656002,"SoundDuration":656002,"Delta":121650461},{"NoteNumber":44,"Velocity":55,"Duration":1302053,"SoundDuration":1302053,"Delta":121650461},{"NoteNumber":48,"Velocity":55,"Duration":157249,"SoundDuration":157249,"Delta":121803144},{"NoteNumber":49,"Velocity":49,"Duration":152697,"SoundDuration":152697,"Delta":121951302},{"NoteNumber":50,"Velocity":49,"Duration":149647,"SoundDuration":149647,"Delta":122095197},{"NoteNumber":49,"Velocity":50,"Duration":149647,"SoundDuration":149647,"Delta":122236042},{"NoteNumber":61,"Velocity":54,"Duration":211267,"SoundDuration":211267,"Delta":122306464},{"NoteNumber":73,"Velocity":65,"Duration":211267,"SoundDuration":211267,"Delta":122306464},{"NoteNumber":50,"Velocity":50,"Duration":149902,"SoundDuration":149902,"Delta":122376887},{"NoteNumber":61,"Velocity":57,"Duration":434782,"SoundDuration":434782,"Delta":122517732},{"NoteNumber":73,"Velocity":67,"Duration":434782,"SoundDuration":434782,"Delta":122517732},{"NoteNumber":49,"Velocity":50,"Duration":153985,"SoundDuration":153985,"Delta":122517732},{"NoteNumber":50,"Velocity":50,"Duration":153985,"SoundDuration":153985,"Delta":122662659},{"NoteNumber":49,"Velocity":50,"Duration":144927,"SoundDuration":144927,"Delta":122807587},{"NoteNumber":61,"Velocity":58,"Duration":1339518,"SoundDuration":1339518,"Delta":122952515},{"NoteNumber":66,"Velocity":69,"Duration":633802,"SoundDuration":633802,"Delta":122952515},{"NoteNumber":73,"Velocity":69,"Duration":1339518,"SoundDuration":1339518,"Delta":122952515},{"NoteNumber":45,"Velocity":58,"Duration":1339518,"SoundDuration":1339518,"Delta":122952515},{"NoteNumber":48,"Velocity":51,"Duration":149647,"SoundDuration":149647,"Delta":123093360},{"NoteNumber":49,"Velocity":52,"Duration":149647,"SoundDuration":149647,"Delta":123234205},{"NoteNumber":50,"Velocity":52,"Duration":149647,"SoundDuration":149647,"Delta":123375050},{"NoteNumber":49,"Velocity":52,"Duration":149647,"SoundDuration":149647,"Delta":123515895},{"NoteNumber":69,"Velocity":71,"Duration":211267,"SoundDuration":211267,"Delta":123586317},{"NoteNumber":50,"Velocity":53,"Duration":149647,"SoundDuration":149647,"Delta":123656740},{"NoteNumber":66,"Velocity":73,"Duration":494448,"SoundDuration":494448,"Delta":123797585},{"NoteNumber":49,"Velocity":54,"Duration":150783,"SoundDuration":150783,"Delta":123797585},{"NoteNumber":50,"Velocity":54,"Duration":158781,"SoundDuration":158781,"Delta":123939310},{"NoteNumber":49,"Velocity":54,"Duration":204062,"SoundDuration":204062,"Delta":124087971},{"NoteNumber":68,"Velocity":66,"Duration":791429,"SoundDuration":791429,"Delta":124292033},{"NoteNumber":75,"Velocity":66,"Duration":1345425,"SoundDuration":1345425,"Delta":124292033},{"NoteNumber":78,"Velocity":66,"Duration":1345425,"SoundDuration":1345425,"Delta":124292033},{"NoteNumber":80,"Velocity":78,"Duration":791429,"SoundDuration":791429,"Delta":124292033},{"NoteNumber":36,"Velocity":65,"Duration":183880,"SoundDuration":183880,"Delta":124292033},{"NoteNumber":48,"Velocity":65,"Duration":183880,"SoundDuration":183880,"Delta":124292033},{"NoteNumber":55,"Velocity":65,"Duration":146844,"SoundDuration":146844,"Delta":124475914},{"NoteNumber":56,"Velocity":58,"Duration":142571,"SoundDuration":142571,"Delta":124622758},{"NoteNumber":57,"Velocity":58,"Duration":141392,"SoundDuration":141392,"Delta":124765329},{"NoteNumber":56,"Velocity":58,"Duration":141392,"SoundDuration":141392,"Delta":124906722},{"NoteNumber":57,"Velocity":58,"Duration":146147,"SoundDuration":146147,"Delta":125048115},{"NoteNumber":68,"Velocity":61,"Duration":110799,"SoundDuration":110799,"Delta":125083463},{"NoteNumber":80,"Velocity":74,"Duration":110799,"SoundDuration":110799,"Delta":125083463},{"NoteNumber":68,"Velocity":66,"Duration":443196,"SoundDuration":443196,"Delta":125194262},{"NoteNumber":80,"Velocity":78,"Duration":443196,"SoundDuration":443196,"Delta":125194262},{"NoteNumber":56,"Velocity":58,"Duration":147732,"SoundDuration":147732,"Delta":125194262},{"NoteNumber":63,"Velocity":58,"Duration":147732,"SoundDuration":147732,"Delta":125341994},{"NoteNumber":56,"Velocity":56,"Duration":147732,"SoundDuration":147732,"Delta":125489727},{"NoteNumber":68,"Velocity":66,"Duration":1291480,"SoundDuration":1291480,"Delta":125637459},{"NoteNumber":73,"Velocity":66,"Duration":749731,"SoundDuration":749731,"Delta":125637459},{"NoteNumber":80,"Velocity":78,"Duration":1291480,"SoundDuration":1291480,"Delta":125637459},{"NoteNumber":37,"Velocity":66,"Duration":142805,"SoundDuration":142805,"Delta":125637459},{"NoteNumber":49,"Velocity":66,"Duration":142805,"SoundDuration":142805,"Delta":125637459},{"NoteNumber":55,"Velocity":58,"Duration":142806,"SoundDuration":142806,"Delta":125780265},{"NoteNumber":56,"Velocity":59,"Duration":142805,"SoundDuration":142805,"Delta":125923071},{"NoteNumber":57,"Velocity":59,"Duration":142806,"SoundDuration":142806,"Delta":126065877},{"NoteNumber":56,"Velocity":59,"Duration":142805,"SoundDuration":142805,"Delta":126208683},{"NoteNumber":57,"Velocity":59,"Duration":148052,"SoundDuration":148052,"Delta":126351489},{"NoteNumber":76,"Velocity":79,"Duration":112351,"SoundDuration":112351,"Delta":126387191},{"NoteNumber":73,"Velocity":79,"Duration":429397,"SoundDuration":429397,"Delta":126499542},{"NoteNumber":56,"Velocity":59,"Duration":142805,"SoundDuration":142805,"Delta":126499542},{"NoteNumber":64,"Velocity":59,"Duration":142806,"SoundDuration":142806,"Delta":126642348},{"NoteNumber":56,"Velocity":59,"Duration":143785,"SoundDuration":143785,"Delta":126785154},{"NoteNumber":68,"Velocity":66,"Duration":742197,"SoundDuration":742197,"Delta":126928939},{"NoteNumber":72,"Velocity":66,"Duration":1280944,"SoundDuration":1280944,"Delta":126928939},{"NoteNumber":80,"Velocity":78,"Duration":742197,"SoundDuration":742197,"Delta":126928939},{"NoteNumber":39,"Velocity":65,"Duration":145475,"SoundDuration":145475,"Delta":126928939},{"NoteNumber":51,"Velocity":65,"Duration":145475,"SoundDuration":145475,"Delta":126928939},{"NoteNumber":55,"Velocity":65,"Duration":143045,"SoundDuration":143045,"Delta":127074415},{"NoteNumber":56,"Velocity":58,"Duration":140698,"SoundDuration":140698,"Delta":127217460},{"NoteNumber":57,"Velocity":58,"Duration":139101,"SoundDuration":139101,"Delta":127358158},{"NoteNumber":56,"Velocity":58,"Duration":139101,"SoundDuration":139101,"Delta":127497260},{"NoteNumber":57,"Velocity":58,"Duration":142240,"SoundDuration":142240,"Delta":127636361},{"NoteNumber":68,"Velocity":61,"Duration":107465,"SoundDuration":107465,"Delta":127671136},{"NoteNumber":80,"Velocity":74,"Duration":107465,"SoundDuration":107465,"Delta":127671136},{"NoteNumber":68,"Velocity":66,"Duration":431281,"SoundDuration":431281,"Delta":127778602},{"NoteNumber":80,"Velocity":78,"Duration":431281,"SoundDuration":431281,"Delta":127778602},{"NoteNumber":56,"Velocity":58,"Duration":143760,"SoundDuration":143760,"Delta":127778602},{"NoteNumber":66,"Velocity":58,"Duration":143760,"SoundDuration":143760,"Delta":127922362},{"NoteNumber":56,"Velocity":56,"Duration":143760,"SoundDuration":143760,"Delta":128066123},{"NoteNumber":68,"Velocity":66,"Duration":1150685,"SoundDuration":1150685,"Delta":128209884},{"NoteNumber":73,"Velocity":78,"Duration":744786,"SoundDuration":744786,"Delta":128209884},{"NoteNumber":80,"Velocity":78,"Duration":1314792,"SoundDuration":1314792,"Delta":128209884},{"NoteNumber":40,"Velocity":66,"Duration":141863,"SoundDuration":141863,"Delta":128209884},{"NoteNumber":52,"Velocity":66,"Duration":141863,"SoundDuration":141863,"Delta":128209884},{"NoteNumber":55,"Velocity":58,"Duration":141863,"SoundDuration":141863,"Delta":128351748},{"NoteNumber":56,"Velocity":59,"Duration":141863,"SoundDuration":141863,"Delta":128493612},{"NoteNumber":57,"Velocity":59,"Duration":141863,"SoundDuration":141863,"Delta":128635476},{"NoteNumber":56,"Velocity":59,"Duration":141863,"SoundDuration":141863,"Delta":128777340},{"NoteNumber":57,"Velocity":59,"Duration":146265,"SoundDuration":146265,"Delta":128919204},{"NoteNumber":76,"Velocity":79,"Duration":110799,"SoundDuration":110799,"Delta":128954670},{"NoteNumber":73,"Velocity":79,"Duration":459207,"SoundDuration":459207,"Delta":129065469},{"NoteNumber":56,"Velocity":59,"Duration":141863,"SoundDuration":141863,"Delta":129065469},{"NoteNumber":68,"Velocity":59,"Duration":317343,"SoundDuration":317343,"Delta":129207333},{"NoteNumber":56,"Velocity":59,"Duration":164107,"SoundDuration":164107,"Delta":129360569},{"NoteNumber":73,"Velocity":69,"Duration":747133,"SoundDuration":747133,"Delta":129524677},{"NoteNumber":80,"Velocity":69,"Duration":1304880,"SoundDuration":1304880,"Delta":129524677},{"NoteNumber":83,"Velocity":69,"Duration":1304880,"SoundDuration":1304880,"Delta":129524677},{"NoteNumber":85,"Velocity":80,"Duration":747133,"SoundDuration":747133,"Delta":129524677},{"NoteNumber":41,"Velocity":68,"Duration":151385,"SoundDuration":151385,"Delta":129524677},{"NoteNumber":53,"Velocity":68,"Duration":151385,"SoundDuration":151385,"Delta":129524677},{"NoteNumber":60,"Velocity":68,"Duration":141960,"SoundDuration":141960,"Delta":129676062},{"NoteNumber":61,"Velocity":59,"Duration":140698,"SoundDuration":140698,"Delta":129818023},{"NoteNumber":62,"Velocity":59,"Duration":139212,"SoundDuration":139212,"Delta":129958721},{"NoteNumber":61,"Velocity":60,"Duration":139101,"SoundDuration":139101,"Delta":130097934},{"NoteNumber":62,"Velocity":60,"Duration":149717,"SoundDuration":149717,"Delta":130237035},{"NoteNumber":73,"Velocity":53,"Duration":114942,"SoundDuration":114942,"Delta":130271811},{"NoteNumber":85,"Velocity":78,"Duration":114942,"SoundDuration":114942,"Delta":130271811},{"NoteNumber":73,"Velocity":59,"Duration":129151,"SoundDuration":129151,"Delta":130386753},{"NoteNumber":85,"Velocity":71,"Duration":129151,"SoundDuration":129151,"Delta":130386753},{"NoteNumber":61,"Velocity":60,"Duration":147601,"SoundDuration":147601,"Delta":130386753},{"NoteNumber":73,"Velocity":62,"Duration":129151,"SoundDuration":129151,"Delta":130534354},{"NoteNumber":85,"Velocity":73,"Duration":129151,"SoundDuration":129151,"Delta":130534354},{"NoteNumber":71,"Velocity":60,"Duration":147601,"SoundDuration":147601,"Delta":130534354},{"NoteNumber":73,"Velocity":68,"Duration":129151,"SoundDuration":129151,"Delta":130681956},{"NoteNumber":85,"Velocity":80,"Duration":129151,"SoundDuration":129151,"Delta":130681956},{"NoteNumber":61,"Velocity":59,"Duration":147601,"SoundDuration":147601,"Delta":130681956},{"NoteNumber":73,"Velocity":71,"Duration":1303812,"SoundDuration":1303812,"Delta":130829557},{"NoteNumber":78,"Velocity":75,"Duration":749731,"SoundDuration":749731,"Delta":130829557},{"NoteNumber":85,"Velocity":82,"Duration":1303812,"SoundDuration":1303812,"Delta":130829557},{"NoteNumber":42,"Velocity":72,"Duration":142806,"SoundDuration":142806,"Delta":130829557},{"NoteNumber":54,"Velocity":72,"Duration":142806,"SoundDuration":142806,"Delta":130829557},{"NoteNumber":60,"Velocity":61,"Duration":142805,"SoundDuration":142805,"Delta":130972363},{"NoteNumber":61,"Velocity":65,"Duration":142806,"SoundDuration":142806,"Delta":131115169},{"NoteNumber":62,"Velocity":65,"Duration":142806,"SoundDuration":142806,"Delta":131257975},{"NoteNumber":61,"Velocity":65,"Duration":142806,"SoundDuration":142806,"Delta":131400781},{"NoteNumber":62,"Velocity":65,"Duration":148052,"SoundDuration":148052,"Delta":131543587},{"NoteNumber":81,"Velocity":84,"Duration":112351,"SoundDuration":112351,"Delta":131579289},{"NoteNumber":78,"Velocity":84,"Duration":441729,"SoundDuration":441729,"Delta":131691640},{"NoteNumber":61,"Velocity":66,"Duration":142806,"SoundDuration":142806,"Delta":131691640},{"NoteNumber":69,"Velocity":66,"Duration":147738,"SoundDuration":147738,"Delta":131834446},{"NoteNumber":61,"Velocity":66,"Duration":151184,"SoundDuration":151184,"Delta":131982185},{"NoteNumber":73,"Velocity":79,"Duration":568320,"SoundDuration":568320,"Delta":132133369},{"NoteNumber":77,"Velocity":79,"Duration":1302317,"SoundDuration":1302317,"Delta":132133369},{"NoteNumber":85,"Velocity":93,"Duration":568320,"SoundDuration":568320,"Delta":132133369},{"NoteNumber":44,"Velocity":74,"Duration":145475,"SoundDuration":145475,"Delta":132133369},{"NoteNumber":56,"Velocity":74,"Duration":145475,"SoundDuration":145475,"Delta":132133369},{"NoteNumber":60,"Velocity":74,"Duration":143045,"SoundDuration":143045,"Delta":132278845},{"NoteNumber":61,"Velocity":66,"Duration":140698,"SoundDuration":140698,"Delta":132421890},{"NoteNumber":62,"Velocity":66,"Duration":139101,"SoundDuration":139101,"Delta":132562588},{"NoteNumber":73,"Velocity":59,"Duration":69550,"SoundDuration":69550,"Delta":132701690},{"NoteNumber":85,"Velocity":71,"Duration":69550,"SoundDuration":69550,"Delta":132701690},{"NoteNumber":61,"Velocity":68,"Duration":139101,"SoundDuration":139101,"Delta":132701690},{"NoteNumber":73,"Velocity":61,"Duration":72228,"SoundDuration":72228,"Delta":132840791},{"NoteNumber":85,"Velocity":71,"Duration":72228,"SoundDuration":72228,"Delta":132840791},{"NoteNumber":62,"Velocity":68,"Duration":147134,"SoundDuration":147134,"Delta":132840791},{"NoteNumber":73,"Velocity":63,"Duration":74626,"SoundDuration":74626,"Delta":132987926},{"NoteNumber":85,"Velocity":73,"Duration":74626,"SoundDuration":74626,"Delta":132987926},{"NoteNumber":61,"Velocity":69,"Duration":149253,"SoundDuration":149253,"Delta":132987926},{"NoteNumber":73,"Velocity":63,"Duration":74626,"SoundDuration":74626,"Delta":133137180},{"NoteNumber":85,"Velocity":75,"Duration":74626,"SoundDuration":74626,"Delta":133137180},{"NoteNumber":68,"Velocity":69,"Duration":149253,"SoundDuration":149253,"Delta":133137180},{"NoteNumber":73,"Velocity":64,"Duration":74626,"SoundDuration":74626,"Delta":133286433},{"NoteNumber":85,"Velocity":78,"Duration":74626,"SoundDuration":74626,"Delta":133286433},{"NoteNumber":61,"Velocity":66,"Duration":149253,"SoundDuration":149253,"Delta":133286433},{"NoteNumber":73,"Velocity":79,"Duration":1150013,"SoundDuration":1150013,"Delta":133435687},{"NoteNumber":78,"Velocity":93,"Duration":744786,"SoundDuration":744786,"Delta":133435687},{"NoteNumber":85,"Velocity":93,"Duration":1313279,"SoundDuration":1313279,"Delta":133435687},{"NoteNumber":45,"Velocity":79,"Duration":141863,"SoundDuration":141863,"Delta":133435687},{"NoteNumber":57,"Velocity":79,"Duration":141863,"SoundDuration":141863,"Delta":133435687},{"NoteNumber":60,"Velocity":70,"Duration":141863,"SoundDuration":141863,"Delta":133577551},{"NoteNumber":61,"Velocity":71,"Duration":141863,"SoundDuration":141863,"Delta":133719415},{"NoteNumber":62,"Velocity":71,"Duration":141863,"SoundDuration":141863,"Delta":133861279},{"NoteNumber":61,"Velocity":72,"Duration":141863,"SoundDuration":141863,"Delta":134003143},{"NoteNumber":62,"Velocity":72,"Duration":146265,"SoundDuration":146265,"Delta":134145007},{"NoteNumber":81,"Velocity":90,"Duration":110799,"SoundDuration":110799,"Delta":134180473},{"NoteNumber":78,"Velocity":90,"Duration":457694,"SoundDuration":457694,"Delta":134291272},{"NoteNumber":61,"Velocity":72,"Duration":141863,"SoundDuration":141863,"Delta":134291272},{"NoteNumber":73,"Velocity":72,"Duration":315830,"SoundDuration":315830,"Delta":134433136},{"NoteNumber":61,"Velocity":73,"Duration":163265,"SoundDuration":163265,"Delta":134585701},{"NoteNumber":79,"Velocity":88,"Duration":826307,"SoundDuration":826307,"Delta":134748966},{"NoteNumber":76,"Velocity":88,"Duration":826307,"SoundDuration":826307,"Delta":134748966},{"NoteNumber":85,"Velocity":88,"Duration":826307,"SoundDuration":826307,"Delta":134748966},{"NoteNumber":88,"Velocity":103,"Duration":826307,"SoundDuration":826307,"Delta":134748966},{"NoteNumber":34,"Velocity":79,"Duration":82737,"SoundDuration":82737,"Delta":134748966},{"NoteNumber":49,"Velocity":69,"Duration":80516,"SoundDuration":80516,"Delta":134913231},{"NoteNumber":37,"Velocity":69,"Duration":78254,"SoundDuration":78254,"Delta":135073116},{"NoteNumber":52,"Velocity":69,"Duration":77017,"SoundDuration":77017,"Delta":135228694},{"NoteNumber":40,"Velocity":69,"Duration":77017,"SoundDuration":77017,"Delta":135401984},{"NoteNumber":55,"Velocity":69,"Duration":77017,"SoundDuration":77017,"Delta":135536765},{"NoteNumber":76,"Velocity":81,"Duration":115526,"SoundDuration":115526,"Delta":135575274},{"NoteNumber":79,"Velocity":81,"Duration":115526,"SoundDuration":115526,"Delta":135575274},{"NoteNumber":85,"Velocity":84,"Duration":115526,"SoundDuration":115526,"Delta":135575274},{"NoteNumber":88,"Velocity":99,"Duration":115526,"SoundDuration":115526,"Delta":135575274},{"NoteNumber":76,"Velocity":87,"Duration":461953,"SoundDuration":461953,"Delta":135690801},{"NoteNumber":79,"Velocity":87,"Duration":461953,"SoundDuration":461953,"Delta":135690801},{"NoteNumber":85,"Velocity":87,"Duration":461953,"SoundDuration":461953,"Delta":135690801},{"NoteNumber":88,"Velocity":102,"Duration":461953,"SoundDuration":461953,"Delta":135690801},{"NoteNumber":43,"Velocity":70,"Duration":77017,"SoundDuration":77017,"Delta":135690801},{"NoteNumber":58,"Velocity":69,"Duration":77017,"SoundDuration":77017,"Delta":135844836},{"NoteNumber":46,"Velocity":69,"Duration":77017,"SoundDuration":77017,"Delta":135998872},{"NoteNumber":76,"Velocity":80,"Duration":421053,"SoundDuration":421053,"Delta":136152754},{"NoteNumber":80,"Velocity":95,"Duration":421053,"SoundDuration":421053,"Delta":136152754},{"NoteNumber":88,"Velocity":95,"Duration":421053,"SoundDuration":421053,"Delta":136152754},{"NoteNumber":47,"Velocity":72,"Duration":70175,"SoundDuration":70175,"Delta":136152754},{"NoteNumber":59,"Velocity":70,"Duration":140350,"SoundDuration":140350,"Delta":136293105},{"NoteNumber":56,"Velocity":69,"Duration":140351,"SoundDuration":140351,"Delta":136433456},{"NoteNumber":83,"Velocity":91,"Duration":436363,"SoundDuration":436363,"Delta":136573807},{"NoteNumber":80,"Velocity":91,"Duration":436363,"SoundDuration":436363,"Delta":136573807},{"NoteNumber":76,"Velocity":76,"Duration":436363,"SoundDuration":436363,"Delta":136573807},{"NoteNumber":64,"Velocity":68,"Duration":145454,"SoundDuration":145454,"Delta":136573807},{"NoteNumber":59,"Velocity":66,"Duration":145454,"SoundDuration":145454,"Delta":136719262},{"NoteNumber":68,"Velocity":65,"Duration":145454,"SoundDuration":145454,"Delta":136864716},{"NoteNumber":71,"Velocity":73,"Duration":391349,"SoundDuration":391349,"Delta":137010171},{"NoteNumber":76,"Velocity":86,"Duration":391349,"SoundDuration":391349,"Delta":137010171},{"NoteNumber":80,"Velocity":86,"Duration":391349,"SoundDuration":391349,"Delta":137010171},{"NoteNumber":64,"Velocity":63,"Duration":150375,"SoundDuration":150375,"Delta":137010171},{"NoteNumber":59,"Velocity":60,"Duration":150375,"SoundDuration":150375,"Delta":137160547},{"NoteNumber":56,"Velocity":59,"Duration":143601,"SoundDuration":143601,"Delta":137310923},{"NoteNumber":80,"Velocity":79,"Duration":53003,"SoundDuration":53003,"Delta":137401521},{"NoteNumber":69,"Velocity":74,"Duration":431655,"SoundDuration":431655,"Delta":137454524},{"NoteNumber":71,"Velocity":74,"Duration":431655,"SoundDuration":431655,"Delta":137454524},{"NoteNumber":75,"Velocity":87,"Duration":431655,"SoundDuration":431655,"Delta":137454524},{"NoteNumber":78,"Velocity":87,"Duration":431655,"SoundDuration":431655,"Delta":137454524},{"NoteNumber":35,"Velocity":60,"Duration":71942,"SoundDuration":71942,"Delta":137454524},{"NoteNumber":47,"Velocity":61,"Duration":143884,"SoundDuration":143884,"Delta":137598409},{"NoteNumber":54,"Velocity":63,"Duration":143885,"SoundDuration":143885,"Delta":137742294},{"NoteNumber":71,"Velocity":75,"Duration":441176,"SoundDuration":441176,"Delta":137886179},{"NoteNumber":69,"Velocity":75,"Duration":441176,"SoundDuration":441176,"Delta":137886179},{"NoteNumber":73,"Velocity":75,"Duration":441176,"SoundDuration":441176,"Delta":137886179},{"NoteNumber":76,"Velocity":88,"Duration":441176,"SoundDuration":441176,"Delta":137886179},{"NoteNumber":59,"Velocity":65,"Duration":147058,"SoundDuration":147058,"Delta":137886179},{"NoteNumber":54,"Velocity":66,"Duration":147058,"SoundDuration":147058,"Delta":138033238},{"NoteNumber":63,"Velocity":67,"Duration":147058,"SoundDuration":147058,"Delta":138180296},{"NoteNumber":69,"Velocity":75,"Duration":463929,"SoundDuration":463929,"Delta":138327355},{"NoteNumber":71,"Velocity":75,"Duration":463929,"SoundDuration":463929,"Delta":138327355},{"NoteNumber":75,"Velocity":89,"Duration":463929,"SoundDuration":463929,"Delta":138327355},{"NoteNumber":78,"Velocity":89,"Duration":463929,"SoundDuration":463929,"Delta":138327355},{"NoteNumber":59,"Velocity":68,"Duration":154642,"SoundDuration":154642,"Delta":138327355},{"NoteNumber":54,"Velocity":69,"Duration":154642,"SoundDuration":154642,"Delta":138481998},{"NoteNumber":47,"Velocity":70,"Duration":154643,"SoundDuration":154643,"Delta":138636641},{"NoteNumber":76,"Velocity":90,"Duration":694337,"SoundDuration":694337,"Delta":138791284},{"NoteNumber":68,"Velocity":75,"Duration":1445796,"SoundDuration":1445796,"Delta":138791284},{"NoteNumber":80,"Velocity":90,"Duration":1445796,"SoundDuration":1445796,"Delta":138791284},{"NoteNumber":40,"Velocity":71,"Duration":152091,"SoundDuration":152091,"Delta":138791284},{"NoteNumber":52,"Velocity":66,"Duration":152676,"SoundDuration":152676,"Delta":138943375},{"NoteNumber":47,"Velocity":66,"Duration":154492,"SoundDuration":154492,"Delta":139096052},{"NoteNumber":40,"Velocity":74,"Duration":156352,"SoundDuration":156352,"Delta":139250544},{"NoteNumber":56,"Velocity":68,"Duration":158093,"SoundDuration":158093,"Delta":139406897},{"NoteNumber":75,"Velocity":91,"Duration":240304,"SoundDuration":240304,"Delta":139485622},{"NoteNumber":47,"Velocity":70,"Duration":160936,"SoundDuration":160936,"Delta":139564990},{"NoteNumber":74,"Velocity":94,"Duration":511154,"SoundDuration":511154,"Delta":139725927},{"NoteNumber":40,"Velocity":78,"Duration":165470,"SoundDuration":165470,"Delta":139725927},{"NoteNumber":59,"Velocity":71,"Duration":170228,"SoundDuration":170228,"Delta":139891397},{"NoteNumber":47,"Velocity":73,"Duration":175455,"SoundDuration":175455,"Delta":140061625},{"NoteNumber":72,"Velocity":88,"Duration":810290,"SoundDuration":810290,"Delta":140237081},{"NoteNumber":68,"Velocity":88,"Duration":810290,"SoundDuration":810290,"Delta":140237081},{"NoteNumber":75,"Velocity":88,"Duration":810290,"SoundDuration":810290,"Delta":140237081},{"NoteNumber":80,"Velocity":103,"Duration":810290,"SoundDuration":810290,"Delta":140237081},{"NoteNumber":39,"Velocity":79,"Duration":76429,"SoundDuration":76429,"Delta":140237081},{"NoteNumber":51,"Velocity":69,"Duration":76172,"SoundDuration":76172,"Delta":140389683},{"NoteNumber":39,"Velocity":69,"Duration":76172,"SoundDuration":76172,"Delta":140542029},{"NoteNumber":56,"Velocity":69,"Duration":78443,"SoundDuration":78443,"Delta":140694375},{"NoteNumber":39,"Velocity":69,"Duration":78443,"SoundDuration":78443,"Delta":140851262},{"NoteNumber":60,"Velocity":69,"Duration":78443,"SoundDuration":78443,"Delta":141008150},{"NoteNumber":68,"Velocity":81,"Duration":117665,"SoundDuration":117665,"Delta":141047371},{"NoteNumber":72,"Velocity":81,"Duration":117665,"SoundDuration":117665,"Delta":141047371},{"NoteNumber":75,"Velocity":84,"Duration":117665,"SoundDuration":117665,"Delta":141047371},{"NoteNumber":80,"Velocity":99,"Duration":117665,"SoundDuration":117665,"Delta":141047371},{"NoteNumber":68,"Velocity":87,"Duration":470662,"SoundDuration":470662,"Delta":141165037},{"NoteNumber":72,"Velocity":87,"Duration":470662,"SoundDuration":470662,"Delta":141165037},{"NoteNumber":75,"Velocity":87,"Duration":470662,"SoundDuration":470662,"Delta":141165037},{"NoteNumber":80,"Velocity":102,"Duration":470662,"SoundDuration":470662,"Delta":141165037},{"NoteNumber":39,"Velocity":70,"Duration":78443,"SoundDuration":78443,"Delta":141165037},{"NoteNumber":63,"Velocity":69,"Duration":78443,"SoundDuration":78443,"Delta":141321924},{"NoteNumber":39,"Velocity":69,"Duration":78443,"SoundDuration":78443,"Delta":141478812},{"NoteNumber":72,"Velocity":85,"Duration":366246,"SoundDuration":366246,"Delta":141635699},{"NoteNumber":75,"Velocity":85,"Duration":666940,"SoundDuration":666940,"Delta":141635699},{"NoteNumber":80,"Velocity":100,"Duration":666940,"SoundDuration":666940,"Delta":141635699},{"NoteNumber":68,"Velocity":72,"Duration":73249,"SoundDuration":73249,"Delta":141635699},{"NoteNumber":63,"Velocity":70,"Duration":73249,"SoundDuration":73249,"Delta":141782198},{"NoteNumber":72,"Velocity":69,"Duration":373943,"SoundDuration":373943,"Delta":141928696},{"NoteNumber":68,"Velocity":68,"Duration":75815,"SoundDuration":75815,"Delta":142075195},{"NoteNumber":63,"Velocity":66,"Duration":75814,"SoundDuration":75814,"Delta":142226825},{"NoteNumber":68,"Velocity":72,"Duration":227445,"SoundDuration":227445,"Delta":142302640},{"NoteNumber":72,"Velocity":86,"Duration":227445,"SoundDuration":227445,"Delta":142302640},{"NoteNumber":75,"Velocity":86,"Duration":227445,"SoundDuration":227445,"Delta":142302640},{"NoteNumber":60,"Velocity":65,"Duration":75815,"SoundDuration":75815,"Delta":142378455},{"NoteNumber":63,"Velocity":69,"Duration":488639,"SoundDuration":488639,"Delta":142530085},{"NoteNumber":68,"Velocity":81,"Duration":488639,"SoundDuration":488639,"Delta":142530085},{"NoteNumber":72,"Velocity":81,"Duration":488639,"SoundDuration":488639,"Delta":142530085},{"NoteNumber":56,"Velocity":63,"Duration":81439,"SoundDuration":81439,"Delta":142530085},{"NoteNumber":51,"Velocity":60,"Duration":81439,"SoundDuration":81439,"Delta":142692965},{"NoteNumber":39,"Velocity":59,"Duration":162879,"SoundDuration":162879,"Delta":142855844},{"NoteNumber":72,"Velocity":85,"Duration":690714,"SoundDuration":690714,"Delta":143018724},{"NoteNumber":61,"Velocity":72,"Duration":947761,"SoundDuration":947761,"Delta":143018724},{"NoteNumber":63,"Velocity":72,"Duration":947761,"SoundDuration":947761,"Delta":143018724},{"NoteNumber":67,"Velocity":85,"Duration":947761,"SoundDuration":947761,"Delta":143018724},{"NoteNumber":75,"Velocity":85,"Duration":947761,"SoundDuration":947761,"Delta":143018724},{"NoteNumber":27,"Velocity":57,"Duration":153491,"SoundDuration":153491,"Delta":143018724},{"NoteNumber":39,"Velocity":56,"Duration":153491,"SoundDuration":153491,"Delta":143172216},{"NoteNumber":46,"Velocity":56,"Duration":153491,"SoundDuration":153491,"Delta":143325708},{"NoteNumber":55,"Velocity":56,"Duration":153491,"SoundDuration":153491,"Delta":143479200},{"NoteNumber":51,"Velocity":56,"Duration":162428,"SoundDuration":162428,"Delta":143632692},{"NoteNumber":70,"Velocity":76,"Duration":257047,"SoundDuration":257047,"Delta":143709438},{"NoteNumber":46,"Velocity":55,"Duration":171365,"SoundDuration":171365,"Delta":143795120},{"NoteNumber":67,"Velocity":63,"Duration":529098,"SoundDuration":529098,"Delta":143966485},{"NoteNumber":61,"Velocity":63,"Duration":529098,"SoundDuration":529098,"Delta":143966485},{"NoteNumber":73,"Velocity":75,"Duration":385571,"SoundDuration":385571,"Delta":143966485},{"NoteNumber":39,"Velocity":54,"Duration":171365,"SoundDuration":171365,"Delta":143966485},{"NoteNumber":51,"Velocity":54,"Duration":171364,"SoundDuration":171364,"Delta":144137850},{"NoteNumber":63,"Velocity":53,"Duration":186368,"SoundDuration":186368,"Delta":144309215},{"NoteNumber":72,"Velocity":71,"Duration":143527,"SoundDuration":143527,"Delta":144352057},{"NoteNumber":68,"Velocity":59,"Duration":1429257,"SoundDuration":1429257,"Delta":144495584},{"NoteNumber":60,"Velocity":50,"Duration":1429257,"SoundDuration":1429257,"Delta":144495584},{"NoteNumber":32,"Velocity":52,"Duration":163299,"SoundDuration":163299,"Delta":144495584},{"NoteNumber":51,"Velocity":47,"Duration":153552,"SoundDuration":153552,"Delta":144658883},{"NoteNumber":44,"Velocity":46,"Duration":154907,"SoundDuration":154907,"Delta":144812435},{"NoteNumber":51,"Velocity":45,"Duration":156569,"SoundDuration":156569,"Delta":144967343},{"NoteNumber":44,"Velocity":44,"Duration":158125,"SoundDuration":158125,"Delta":145123913},{"NoteNumber":51,"Velocity":42,"Duration":159710,"SoundDuration":159710,"Delta":145282038},{"NoteNumber":44,"Velocity":46,"Duration":161030,"SoundDuration":161030,"Delta":145441749},{"NoteNumber":51,"Velocity":40,"Duration":161030,"SoundDuration":161030,"Delta":145602780},{"NoteNumber":44,"Velocity":39,"Duration":161030,"SoundDuration":161030,"Delta":145763810},{"NoteNumber":61,"Velocity":44,"Duration":1321091,"SoundDuration":1321091,"Delta":145924841},{"NoteNumber":69,"Velocity":54,"Duration":667332,"SoundDuration":667332,"Delta":145924841},{"NoteNumber":52,"Velocity":52,"Duration":151087,"SoundDuration":151087,"Delta":145924841},{"NoteNumber":44,"Velocity":35,"Duration":149394,"SoundDuration":149394,"Delta":146075928},{"NoteNumber":52,"Velocity":35,"Duration":147739,"SoundDuration":147739,"Delta":146225323},{"NoteNumber":44,"Velocity":35,"Duration":146118,"SoundDuration":146118,"Delta":146373062},{"NoteNumber":52,"Velocity":35,"Duration":145985,"SoundDuration":145985,"Delta":146519181},{"NoteNumber":69,"Velocity":53,"Duration":218580,"SoundDuration":218580,"Delta":146592173},{"NoteNumber":44,"Velocity":35,"Duration":145587,"SoundDuration":145587,"Delta":146665166},{"NoteNumber":69,"Velocity":53,"Duration":435179,"SoundDuration":435179,"Delta":146810753},{"NoteNumber":52,"Velocity":36,"Duration":145454,"SoundDuration":145454,"Delta":146810753},{"NoteNumber":44,"Velocity":36,"Duration":144927,"SoundDuration":144927,"Delta":146956208},{"NoteNumber":52,"Velocity":36,"Duration":144796,"SoundDuration":144796,"Delta":147101136},{"NoteNumber":60,"Velocity":45,"Duration":1338536,"SoundDuration":1338536,"Delta":147245933},{"NoteNumber":69,"Velocity":56,"Duration":653765,"SoundDuration":653765,"Delta":147245933},{"NoteNumber":44,"Velocity":44,"Duration":144404,"SoundDuration":144404,"Delta":147245933},{"NoteNumber":51,"Velocity":48,"Duration":144927,"SoundDuration":144927,"Delta":147390337},{"NoteNumber":44,"Velocity":37,"Duration":145454,"SoundDuration":145454,"Delta":147535265},{"NoteNumber":51,"Velocity":37,"Duration":145852,"SoundDuration":145852,"Delta":147680719},{"NoteNumber":44,"Velocity":37,"Duration":146386,"SoundDuration":146386,"Delta":147826572},{"NoteNumber":68,"Velocity":55,"Duration":219780,"SoundDuration":219780,"Delta":147899698},{"NoteNumber":51,"Velocity":37,"Duration":146520,"SoundDuration":146520,"Delta":147972958},{"NoteNumber":63,"Velocity":56,"Duration":464990,"SoundDuration":464990,"Delta":148119478},{"NoteNumber":44,"Velocity":37,"Duration":148579,"SoundDuration":148579,"Delta":148119478},{"NoteNumber":51,"Velocity":37,"Duration":154764,"SoundDuration":154764,"Delta":148268058},{"NoteNumber":44,"Velocity":38,"Duration":161645,"SoundDuration":161645,"Delta":148422823},{"NoteNumber":62,"Velocity":48,"Duration":1279439,"SoundDuration":1279439,"Delta":148584469},{"NoteNumber":71,"Velocity":59,"Duration":645014,"SoundDuration":645014,"Delta":148584469},{"NoteNumber":53,"Velocity":56,"Duration":146119,"SoundDuration":146119,"Delta":148584469},{"NoteNumber":44,"Velocity":38,"Duration":144275,"SoundDuration":144275,"Delta":148730589},{"NoteNumber":53,"Velocity":38,"Duration":142604,"SoundDuration":142604,"Delta":148874864},{"NoteNumber":44,"Velocity":38,"Duration":141342,"SoundDuration":141342,"Delta":149017469},{"NoteNumber":53,"Velocity":39,"Duration":141342,"SoundDuration":141342,"Delta":149158812},{"NoteNumber":71,"Velocity":58,"Duration":212013,"SoundDuration":212013,"Delta":149229483},{"NoteNumber":44,"Velocity":39,"Duration":141342,"SoundDuration":141342,"Delta":149300154},{"NoteNumber":71,"Velocity":58,"Duration":422411,"SoundDuration":422411,"Delta":149441497},{"NoteNumber":53,"Velocity":39,"Duration":140845,"SoundDuration":140845,"Delta":149441497},{"NoteNumber":44,"Velocity":39,"Duration":140844,"SoundDuration":140844,"Delta":149582342},{"NoteNumber":53,"Velocity":39,"Duration":140721,"SoundDuration":140721,"Delta":149723187},{"NoteNumber":63,"Velocity":50,"Duration":1300130,"SoundDuration":1300130,"Delta":149863908},{"NoteNumber":71,"Velocity":61,"Duration":635054,"SoundDuration":635054,"Delta":149863908},{"NoteNumber":44,"Velocity":48,"Duration":140351,"SoundDuration":140351,"Delta":149863908},{"NoteNumber":54,"Velocity":50,"Duration":140845,"SoundDuration":140845,"Delta":150004259},{"NoteNumber":44,"Velocity":40,"Duration":141218,"SoundDuration":141218,"Delta":150145104},{"NoteNumber":54,"Velocity":40,"Duration":141718,"SoundDuration":141718,"Delta":150286323},{"NoteNumber":44,"Velocity":40,"Duration":142096,"SoundDuration":142096,"Delta":150428041},{"NoteNumber":70,"Velocity":60,"Duration":213398,"SoundDuration":213398,"Delta":150498963},{"NoteNumber":54,"Velocity":40,"Duration":142224,"SoundDuration":142224,"Delta":150570138},{"NoteNumber":75,"Velocity":61,"Duration":451677,"SoundDuration":451677,"Delta":150712362},{"NoteNumber":44,"Velocity":41,"Duration":144552,"SoundDuration":144552,"Delta":150712362},{"NoteNumber":54,"Velocity":41,"Duration":150393,"SoundDuration":150393,"Delta":150856914},{"NoteNumber":44,"Velocity":41,"Duration":156731,"SoundDuration":156731,"Delta":151007308},{"NoteNumber":62,"Velocity":52,"Duration":1247035,"SoundDuration":1247035,"Delta":151164039},{"NoteNumber":71,"Velocity":65,"Duration":630239,"SoundDuration":630239,"Delta":151164039},{"NoteNumber":53,"Velocity":55,"Duration":143115,"SoundDuration":143115,"Delta":151164039},{"NoteNumber":44,"Velocity":42,"Duration":141095,"SoundDuration":141095,"Delta":151307154},{"NoteNumber":53,"Velocity":42,"Duration":139132,"SoundDuration":139132,"Delta":151448250},{"NoteNumber":44,"Velocity":42,"Duration":137931,"SoundDuration":137931,"Delta":151587382},{"NoteNumber":53,"Velocity":42,"Duration":137812,"SoundDuration":137812,"Delta":151725313},{"NoteNumber":71,"Velocity":63,"Duration":206303,"SoundDuration":206303,"Delta":151794279},{"NoteNumber":44,"Velocity":42,"Duration":137456,"SoundDuration":137456,"Delta":151863126},{"NoteNumber":71,"Velocity":63,"Duration":410492,"SoundDuration":410492,"Delta":152000583},{"NoteNumber":53,"Velocity":43,"Duration":137104,"SoundDuration":137104,"Delta":152000583},{"NoteNumber":44,"Velocity":43,"Duration":136869,"SoundDuration":136869,"Delta":152137687},{"NoteNumber":53,"Velocity":43,"Duration":136518,"SoundDuration":136518,"Delta":152274556},{"NoteNumber":63,"Velocity":56,"Duration":820642,"SoundDuration":820642,"Delta":152411075},{"NoteNumber":71,"Velocity":69,"Duration":614339,"SoundDuration":614339,"Delta":152411075},{"NoteNumber":44,"Velocity":46,"Duration":136170,"SoundDuration":136170,"Delta":152411075},{"NoteNumber":54,"Velocity":55,"Duration":136170,"SoundDuration":136170,"Delta":152547245},{"NoteNumber":44,"Velocity":44,"Duration":136518,"SoundDuration":136518,"Delta":152683416},{"NoteNumber":54,"Velocity":44,"Duration":136986,"SoundDuration":136986,"Delta":152819934},{"NoteNumber":44,"Velocity":44,"Duration":137221,"SoundDuration":137221,"Delta":152956921},{"NoteNumber":70,"Velocity":67,"Duration":206303,"SoundDuration":206303,"Delta":153025414},{"NoteNumber":54,"Velocity":44,"Duration":137575,"SoundDuration":137575,"Delta":153094142},{"NoteNumber":63,"Velocity":67,"Duration":427401,"SoundDuration":427401,"Delta":153231718},{"NoteNumber":44,"Velocity":44,"Duration":139139,"SoundDuration":139139,"Delta":153231718},{"NoteNumber":54,"Velocity":44,"Duration":143900,"SoundDuration":143900,"Delta":153370857},{"NoteNumber":44,"Velocity":45,"Duration":144361,"SoundDuration":144361,"Delta":153514758},{"NoteNumber":64,"Velocity":57,"Duration":1214241,"SoundDuration":1214241,"Delta":153659120},{"NoteNumber":73,"Velocity":71,"Duration":618306,"SoundDuration":618306,"Delta":153659120},{"NoteNumber":55,"Velocity":59,"Duration":139860,"SoundDuration":139860,"Delta":153659120},{"NoteNumber":44,"Velocity":45,"Duration":138409,"SoundDuration":138409,"Delta":153798981},{"NoteNumber":55,"Velocity":45,"Duration":136987,"SoundDuration":136987,"Delta":153937390},{"NoteNumber":44,"Velocity":45,"Duration":135709,"SoundDuration":135709,"Delta":154074377},{"NoteNumber":55,"Velocity":46,"Duration":134341,"SoundDuration":134341,"Delta":154210086},{"NoteNumber":73,"Velocity":69,"Duration":200003,"SoundDuration":200003,"Delta":154277426},{"NoteNumber":44,"Velocity":46,"Duration":133001,"SoundDuration":133001,"Delta":154344428},{"NoteNumber":73,"Velocity":70,"Duration":395931,"SoundDuration":395931,"Delta":154477430},{"NoteNumber":55,"Velocity":46,"Duration":132013,"SoundDuration":132013,"Delta":154477430},{"NoteNumber":44,"Velocity":46,"Duration":132013,"SoundDuration":132013,"Delta":154609443},{"NoteNumber":55,"Velocity":46,"Duration":131904,"SoundDuration":131904,"Delta":154741457},{"NoteNumber":65,"Velocity":60,"Duration":1209115,"SoundDuration":1209115,"Delta":154873361},{"NoteNumber":73,"Velocity":74,"Duration":594391,"SoundDuration":594391,"Delta":154873361},{"NoteNumber":44,"Velocity":51,"Duration":131579,"SoundDuration":131579,"Delta":154873361},{"NoteNumber":56,"Velocity":62,"Duration":131904,"SoundDuration":131904,"Delta":155004940},{"NoteNumber":44,"Velocity":49,"Duration":132122,"SoundDuration":132122,"Delta":155136845},{"NoteNumber":56,"Velocity":48,"Duration":132450,"SoundDuration":132450,"Delta":155268968},{"NoteNumber":44,"Velocity":48,"Duration":132780,"SoundDuration":132780,"Delta":155401418},{"NoteNumber":72,"Velocity":73,"Duration":199446,"SoundDuration":199446,"Delta":155467753},{"NoteNumber":56,"Velocity":48,"Duration":133001,"SoundDuration":133001,"Delta":155534198},{"NoteNumber":77,"Velocity":73,"Duration":415277,"SoundDuration":415277,"Delta":155667199},{"NoteNumber":44,"Velocity":49,"Duration":134235,"SoundDuration":134235,"Delta":155667199},{"NoteNumber":56,"Velocity":49,"Duration":138299,"SoundDuration":138299,"Delta":155801435},{"NoteNumber":44,"Velocity":49,"Duration":142741,"SoundDuration":142741,"Delta":155939735},{"NoteNumber":64,"Velocity":62,"Duration":1182887,"SoundDuration":1182887,"Delta":156082477},{"NoteNumber":73,"Velocity":77,"Duration":607478,"SoundDuration":607478,"Delta":156082477},{"NoteNumber":55,"Velocity":67,"Duration":141504,"SoundDuration":141504,"Delta":156082477},{"NoteNumber":44,"Velocity":50,"Duration":135365,"SoundDuration":135365,"Delta":156223981},{"NoteNumber":55,"Velocity":50,"Duration":133557,"SoundDuration":133557,"Delta":156359347},{"NoteNumber":44,"Velocity":50,"Duration":131797,"SoundDuration":131797,"Delta":156492905},{"NoteNumber":55,"Velocity":50,"Duration":130083,"SoundDuration":130083,"Delta":156624702},{"NoteNumber":73,"Velocity":75,"Duration":193140,"SoundDuration":193140,"Delta":156689955},{"NoteNumber":44,"Velocity":50,"Duration":128310,"SoundDuration":128310,"Delta":156754785},{"NoteNumber":73,"Velocity":76,"Duration":382267,"SoundDuration":382267,"Delta":156883096},{"NoteNumber":55,"Velocity":51,"Duration":127490,"SoundDuration":127490,"Delta":156883096},{"NoteNumber":44,"Velocity":51,"Duration":127388,"SoundDuration":127388,"Delta":157010587},{"NoteNumber":55,"Velocity":51,"Duration":127388,"SoundDuration":127388,"Delta":157137975},{"NoteNumber":65,"Velocity":64,"Duration":764331,"SoundDuration":764331,"Delta":157265364},{"NoteNumber":73,"Velocity":80,"Duration":573248,"SoundDuration":573248,"Delta":157265364},{"NoteNumber":44,"Velocity":58,"Duration":127388,"SoundDuration":127388,"Delta":157265364},{"NoteNumber":56,"Velocity":69,"Duration":127388,"SoundDuration":127388,"Delta":157392753},{"NoteNumber":44,"Velocity":52,"Duration":127388,"SoundDuration":127388,"Delta":157520141},{"NoteNumber":56,"Velocity":52,"Duration":127388,"SoundDuration":127388,"Delta":157647530},{"NoteNumber":44,"Velocity":52,"Duration":127388,"SoundDuration":127388,"Delta":157774919},{"NoteNumber":72,"Velocity":78,"Duration":191083,"SoundDuration":191083,"Delta":157838613},{"NoteNumber":56,"Velocity":52,"Duration":127388,"SoundDuration":127388,"Delta":157902307},{"NoteNumber":65,"Velocity":79,"Duration":410031,"SoundDuration":410031,"Delta":158029696},{"NoteNumber":44,"Velocity":53,"Duration":132184,"SoundDuration":132184,"Delta":158029696},{"NoteNumber":56,"Velocity":53,"Duration":136994,"SoundDuration":136994,"Delta":158161881},{"NoteNumber":44,"Velocity":54,"Duration":140852,"SoundDuration":140852,"Delta":158298875},{"NoteNumber":66,"Velocity":67,"Duration":383594,"SoundDuration":383594,"Delta":158439728},{"NoteNumber":72,"Velocity":67,"Duration":383594,"SoundDuration":383594,"Delta":158439728},{"NoteNumber":75,"Velocity":80,"Duration":383594,"SoundDuration":383594,"Delta":158439728},{"NoteNumber":57,"Velocity":64,"Duration":127388,"SoundDuration":127388,"Delta":158439728},{"NoteNumber":44,"Velocity":60,"Duration":127897,"SoundDuration":127897,"Delta":158567116},{"NoteNumber":57,"Velocity":60,"Duration":128308,"SoundDuration":128308,"Delta":158695014},{"NoteNumber":66,"Velocity":67,"Duration":387830,"SoundDuration":387830,"Delta":158823323},{"NoteNumber":72,"Velocity":67,"Duration":387830,"SoundDuration":387830,"Delta":158823323},{"NoteNumber":75,"Velocity":80,"Duration":387830,"SoundDuration":387830,"Delta":158823323},{"NoteNumber":44,"Velocity":60,"Duration":128824,"SoundDuration":128824,"Delta":158823323},{"NoteNumber":57,"Velocity":61,"Duration":129241,"SoundDuration":129241,"Delta":158952147},{"NoteNumber":44,"Velocity":61,"Duration":129764,"SoundDuration":129764,"Delta":159081389},{"NoteNumber":66,"Velocity":68,"Duration":396811,"SoundDuration":396811,"Delta":159211154},{"NoteNumber":72,"Velocity":68,"Duration":396811,"SoundDuration":396811,"Delta":159211154},{"NoteNumber":75,"Velocity":82,"Duration":396811,"SoundDuration":396811,"Delta":159211154},{"NoteNumber":57,"Velocity":61,"Duration":131911,"SoundDuration":131911,"Delta":159211154},{"NoteNumber":44,"Velocity":61,"Duration":132450,"SoundDuration":132450,"Delta":159343065},{"NoteNumber":57,"Velocity":62,"Duration":132450,"SoundDuration":132450,"Delta":159475515},{"NoteNumber":66,"Velocity":70,"Duration":398490,"SoundDuration":398490,"Delta":159607965},{"NoteNumber":72,"Velocity":70,"Duration":398490,"SoundDuration":398490,"Delta":159607965},{"NoteNumber":75,"Velocity":83,"Duration":398490,"SoundDuration":398490,"Delta":159607965},{"NoteNumber":44,"Velocity":56,"Duration":398490,"SoundDuration":398490,"Delta":159607965},{"NoteNumber":57,"Velocity":67,"Duration":398490,"SoundDuration":398490,"Delta":159607965},{"NoteNumber":66,"Velocity":73,"Duration":418133,"SoundDuration":418133,"Delta":160010650},{"NoteNumber":72,"Velocity":73,"Duration":418133,"SoundDuration":418133,"Delta":160010650},{"NoteNumber":75,"Velocity":86,"Duration":418133,"SoundDuration":418133,"Delta":160010650},{"NoteNumber":44,"Velocity":58,"Duration":418133,"SoundDuration":418133,"Delta":160010650},{"NoteNumber":57,"Velocity":68,"Duration":418133,"SoundDuration":418133,"Delta":160010650},{"NoteNumber":66,"Velocity":76,"Duration":512821,"SoundDuration":512821,"Delta":160433185},{"NoteNumber":72,"Velocity":76,"Duration":512821,"SoundDuration":512821,"Delta":160433185},{"NoteNumber":76,"Velocity":91,"Duration":512821,"SoundDuration":512821,"Delta":160433185},{"NoteNumber":44,"Velocity":60,"Duration":512821,"SoundDuration":512821,"Delta":160433185},{"NoteNumber":56,"Velocity":71,"Duration":512821,"SoundDuration":512821,"Delta":160433185},{"NoteNumber":68,"Velocity":73,"Duration":356606,"SoundDuration":356606,"Delta":160946006},{"NoteNumber":73,"Velocity":78,"Duration":356606,"SoundDuration":356606,"Delta":160946006},{"NoteNumber":77,"Velocity":92,"Duration":356606,"SoundDuration":356606,"Delta":160946006},{"NoteNumber":49,"Velocity":59,"Duration":356606,"SoundDuration":356606,"Delta":160946006},{"NoteNumber":56,"Velocity":59,"Duration":356606,"SoundDuration":356606,"Delta":160946006},{"NoteNumber":61,"Velocity":72,"Duration":356606,"SoundDuration":356606,"Delta":160946006},{"NoteNumber":65,"Velocity":71,"Duration":308441,"SoundDuration":308441,"Delta":161306366},{"NoteNumber":73,"Velocity":85,"Duration":308441,"SoundDuration":308441,"Delta":161306366},{"NoteNumber":49,"Velocity":47,"Duration":308441,"SoundDuration":308441,"Delta":161306366},{"NoteNumber":56,"Velocity":47,"Duration":308441,"SoundDuration":308441,"Delta":161306366},{"NoteNumber":61,"Velocity":57,"Duration":308441,"SoundDuration":308441,"Delta":161306366},{"NoteNumber":65,"Velocity":68,"Duration":320945,"SoundDuration":320945,"Delta":161618054},{"NoteNumber":68,"Velocity":80,"Duration":320945,"SoundDuration":320945,"Delta":161618054},{"NoteNumber":49,"Velocity":47,"Duration":320945,"SoundDuration":320945,"Delta":161618054},{"NoteNumber":56,"Velocity":47,"Duration":320945,"SoundDuration":320945,"Delta":161618054},{"NoteNumber":61,"Velocity":57,"Duration":320945,"SoundDuration":320945,"Delta":161618054},{"NoteNumber":66,"Velocity":71,"Duration":955585,"SoundDuration":955585,"Delta":161942378},{"NoteNumber":70,"Velocity":85,"Duration":955585,"SoundDuration":955585,"Delta":161942378},{"NoteNumber":54,"Velocity":54,"Duration":955585,"SoundDuration":955585,"Delta":161942378},{"NoteNumber":61,"Velocity":64,"Duration":955585,"SoundDuration":955585,"Delta":161942378},{"NoteNumber":42,"Velocity":62,"Duration":154751,"SoundDuration":154751,"Delta":162260090},{"NoteNumber":30,"Velocity":62,"Duration":164185,"SoundDuration":164185,"Delta":162569592},{"NoteNumber":65,"Velocity":59,"Duration":322476,"SoundDuration":322476,"Delta":162897963},{"NoteNumber":68,"Velocity":66,"Duration":40309,"SoundDuration":40309,"Delta":162897963},{"NoteNumber":37,"Velocity":62,"Duration":161238,"SoundDuration":161238,"Delta":162897963},{"NoteNumber":70,"Velocity":66,"Duration":40309,"SoundDuration":40309,"Delta":162938273},{"NoteNumber":68,"Velocity":65,"Duration":80619,"SoundDuration":80619,"Delta":162978582},{"NoteNumber":67,"Velocity":69,"Duration":161238,"SoundDuration":161238,"Delta":163059202},{"NoteNumber":65,"Velocity":58,"Duration":73568,"SoundDuration":73568,"Delta":163220440},{"NoteNumber":68,"Velocity":70,"Duration":73568,"SoundDuration":73568,"Delta":163220440},{"NoteNumber":49,"Velocity":46,"Duration":73568,"SoundDuration":73568,"Delta":163220440},{"NoteNumber":56,"Velocity":46,"Duration":73568,"SoundDuration":73568,"Delta":163220440},{"NoteNumber":61,"Velocity":55,"Duration":73568,"SoundDuration":73568,"Delta":163220440},{"NoteNumber":65,"Velocity":60,"Duration":73104,"SoundDuration":73104,"Delta":163367377},{"NoteNumber":70,"Velocity":73,"Duration":73104,"SoundDuration":73104,"Delta":163367377},{"NoteNumber":49,"Velocity":46,"Duration":73104,"SoundDuration":73104,"Delta":163367377},{"NoteNumber":56,"Velocity":46,"Duration":73104,"SoundDuration":73104,"Delta":163367377},{"NoteNumber":61,"Velocity":55,"Duration":73104,"SoundDuration":73104,"Delta":163367377},{"NoteNumber":65,"Velocity":62,"Duration":72644,"SoundDuration":72644,"Delta":163513386},{"NoteNumber":72,"Velocity":74,"Duration":72644,"SoundDuration":72644,"Delta":163513386},{"NoteNumber":49,"Velocity":46,"Duration":72644,"SoundDuration":72644,"Delta":163513386},{"NoteNumber":56,"Velocity":46,"Duration":72644,"SoundDuration":72644,"Delta":163513386},{"NoteNumber":61,"Velocity":56,"Duration":72644,"SoundDuration":72644,"Delta":163513386},{"NoteNumber":65,"Velocity":64,"Duration":77120,"SoundDuration":77120,"Delta":163658479},{"NoteNumber":73,"Velocity":76,"Duration":77120,"SoundDuration":77120,"Delta":163658479},{"NoteNumber":49,"Velocity":47,"Duration":77120,"SoundDuration":77120,"Delta":163658479},{"NoteNumber":56,"Velocity":47,"Duration":77120,"SoundDuration":77120,"Delta":163658479},{"NoteNumber":61,"Velocity":57,"Duration":77120,"SoundDuration":77120,"Delta":163658479},{"NoteNumber":66,"Velocity":67,"Duration":296357,"SoundDuration":296357,"Delta":163812721},{"NoteNumber":74,"Velocity":80,"Duration":296357,"SoundDuration":296357,"Delta":163812721},{"NoteNumber":49,"Velocity":49,"Duration":296357,"SoundDuration":296357,"Delta":163812721},{"NoteNumber":57,"Velocity":49,"Duration":296357,"SoundDuration":296357,"Delta":163812721},{"NoteNumber":60,"Velocity":59,"Duration":296357,"SoundDuration":296357,"Delta":163812721},{"NoteNumber":66,"Velocity":70,"Duration":314135,"SoundDuration":314135,"Delta":164109078},{"NoteNumber":75,"Velocity":83,"Duration":314135,"SoundDuration":314135,"Delta":164109078},{"NoteNumber":49,"Velocity":51,"Duration":314135,"SoundDuration":314135,"Delta":164109078},{"NoteNumber":57,"Velocity":51,"Duration":314135,"SoundDuration":314135,"Delta":164109078},{"NoteNumber":60,"Velocity":61,"Duration":314135,"SoundDuration":314135,"Delta":164109078},{"NoteNumber":66,"Velocity":73,"Duration":352019,"SoundDuration":352019,"Delta":164423214},{"NoteNumber":76,"Velocity":87,"Duration":352019,"SoundDuration":352019,"Delta":164423214},{"NoteNumber":49,"Velocity":52,"Duration":352019,"SoundDuration":352019,"Delta":164423214},{"NoteNumber":56,"Velocity":52,"Duration":352019,"SoundDuration":352019,"Delta":164423214},{"NoteNumber":60,"Velocity":62,"Duration":352019,"SoundDuration":352019,"Delta":164423214},{"NoteNumber":68,"Velocity":76,"Duration":345203,"SoundDuration":345203,"Delta":164775233},{"NoteNumber":73,"Velocity":76,"Duration":345203,"SoundDuration":345203,"Delta":164775233},{"NoteNumber":77,"Velocity":89,"Duration":345203,"SoundDuration":345203,"Delta":164775233},{"NoteNumber":49,"Velocity":57,"Duration":345203,"SoundDuration":345203,"Delta":164775233},{"NoteNumber":56,"Velocity":57,"Duration":345203,"SoundDuration":345203,"Delta":164775233},{"NoteNumber":61,"Velocity":69,"Duration":345203,"SoundDuration":345203,"Delta":164775233},{"NoteNumber":65,"Velocity":71,"Duration":302933,"SoundDuration":302933,"Delta":165124070},{"NoteNumber":73,"Velocity":85,"Duration":302933,"SoundDuration":302933,"Delta":165124070},{"NoteNumber":49,"Velocity":47,"Duration":302933,"SoundDuration":302933,"Delta":165124070},{"NoteNumber":56,"Velocity":47,"Duration":302933,"SoundDuration":302933,"Delta":165124070},{"NoteNumber":61,"Velocity":57,"Duration":302933,"SoundDuration":302933,"Delta":165124070},{"NoteNumber":65,"Velocity":68,"Duration":311647,"SoundDuration":311647,"Delta":165430192},{"NoteNumber":68,"Velocity":80,"Duration":311647,"SoundDuration":311647,"Delta":165430192},{"NoteNumber":49,"Velocity":47,"Duration":311647,"SoundDuration":311647,"Delta":165430192},{"NoteNumber":56,"Velocity":47,"Duration":311647,"SoundDuration":311647,"Delta":165430192},{"NoteNumber":61,"Velocity":57,"Duration":311647,"SoundDuration":311647,"Delta":165430192},{"NoteNumber":66,"Velocity":71,"Duration":955585,"SoundDuration":955585,"Delta":165745120},{"NoteNumber":70,"Velocity":85,"Duration":955585,"SoundDuration":955585,"Delta":165745120},{"NoteNumber":54,"Velocity":54,"Duration":955585,"SoundDuration":955585,"Delta":165745120},{"NoteNumber":61,"Velocity":64,"Duration":955585,"SoundDuration":955585,"Delta":165745120},{"NoteNumber":42,"Velocity":62,"Duration":154751,"SoundDuration":154751,"Delta":166062832},{"NoteNumber":30,"Velocity":62,"Duration":164185,"SoundDuration":164185,"Delta":166372334},{"NoteNumber":65,"Velocity":59,"Duration":322476,"SoundDuration":322476,"Delta":166700705},{"NoteNumber":68,"Velocity":66,"Duration":40309,"SoundDuration":40309,"Delta":166700705},{"NoteNumber":37,"Velocity":62,"Duration":161238,"SoundDuration":161238,"Delta":166700705},{"NoteNumber":70,"Velocity":66,"Duration":40309,"SoundDuration":40309,"Delta":166741015},{"NoteNumber":68,"Velocity":65,"Duration":80619,"SoundDuration":80619,"Delta":166781324},{"NoteNumber":67,"Velocity":61,"Duration":161238,"SoundDuration":161238,"Delta":166861944},{"NoteNumber":65,"Velocity":58,"Duration":73170,"SoundDuration":73170,"Delta":167023182},{"NoteNumber":68,"Velocity":70,"Duration":73170,"SoundDuration":73170,"Delta":167023182},{"NoteNumber":49,"Velocity":46,"Duration":73170,"SoundDuration":73170,"Delta":167023182},{"NoteNumber":56,"Velocity":46,"Duration":73170,"SoundDuration":73170,"Delta":167023182},{"NoteNumber":61,"Velocity":55,"Duration":73170,"SoundDuration":73170,"Delta":167023182},{"NoteNumber":65,"Velocity":60,"Duration":72839,"SoundDuration":72839,"Delta":167169391},{"NoteNumber":70,"Velocity":73,"Duration":72839,"SoundDuration":72839,"Delta":167169391},{"NoteNumber":49,"Velocity":46,"Duration":72839,"SoundDuration":72839,"Delta":167169391},{"NoteNumber":56,"Velocity":46,"Duration":72839,"SoundDuration":72839,"Delta":167169391},{"NoteNumber":61,"Velocity":55,"Duration":72839,"SoundDuration":72839,"Delta":167169391},{"NoteNumber":65,"Velocity":62,"Duration":72448,"SoundDuration":72448,"Delta":167314874},{"NoteNumber":72,"Velocity":74,"Duration":72448,"SoundDuration":72448,"Delta":167314874},{"NoteNumber":49,"Velocity":46,"Duration":72448,"SoundDuration":72448,"Delta":167314874},{"NoteNumber":56,"Velocity":46,"Duration":72448,"SoundDuration":72448,"Delta":167314874},{"NoteNumber":61,"Velocity":56,"Duration":72448,"SoundDuration":72448,"Delta":167314874},{"NoteNumber":65,"Velocity":64,"Duration":83365,"SoundDuration":83365,"Delta":167459706},{"NoteNumber":73,"Velocity":76,"Duration":83365,"SoundDuration":83365,"Delta":167459706},{"NoteNumber":49,"Velocity":47,"Duration":83365,"SoundDuration":83365,"Delta":167459706},{"NoteNumber":56,"Velocity":47,"Duration":83365,"SoundDuration":83365,"Delta":167459706},{"NoteNumber":61,"Velocity":57,"Duration":83365,"SoundDuration":83365,"Delta":167459706},{"NoteNumber":65,"Velocity":55,"Duration":303797,"SoundDuration":303797,"Delta":167626438},{"NoteNumber":71,"Velocity":67,"Duration":303797,"SoundDuration":303797,"Delta":167626438},{"NoteNumber":49,"Velocity":39,"Duration":303797,"SoundDuration":303797,"Delta":167626438},{"NoteNumber":55,"Velocity":49,"Duration":303797,"SoundDuration":303797,"Delta":167626438},{"NoteNumber":64,"Velocity":58,"Duration":327368,"SoundDuration":327368,"Delta":167930235},{"NoteNumber":72,"Velocity":69,"Duration":327368,"SoundDuration":327368,"Delta":167930235},{"NoteNumber":48,"Velocity":41,"Duration":327368,"SoundDuration":327368,"Delta":167930235},{"NoteNumber":55,"Velocity":50,"Duration":327368,"SoundDuration":327368,"Delta":167930235},{"NoteNumber":65,"Velocity":53,"Duration":373568,"SoundDuration":373568,"Delta":168257603},{"NoteNumber":74,"Velocity":63,"Duration":373568,"SoundDuration":373568,"Delta":168257603},{"NoteNumber":48,"Velocity":37,"Duration":373568,"SoundDuration":373568,"Delta":168257603},{"NoteNumber":55,"Velocity":37,"Duration":373568,"SoundDuration":373568,"Delta":168257603},{"NoteNumber":59,"Velocity":45,"Duration":373568,"SoundDuration":373568,"Delta":168257603},{"NoteNumber":64,"Velocity":35,"Duration":352918,"SoundDuration":352918,"Delta":168631171},{"NoteNumber":76,"Velocity":42,"Duration":352918,"SoundDuration":352918,"Delta":168631171},{"NoteNumber":48,"Velocity":26,"Duration":352918,"SoundDuration":352918,"Delta":168631171},{"NoteNumber":55,"Velocity":26,"Duration":352918,"SoundDuration":352918,"Delta":168631171},{"NoteNumber":60,"Velocity":32,"Duration":352918,"SoundDuration":352918,"Delta":168631171},{"NoteNumber":64,"Velocity":33,"Duration":330780,"SoundDuration":330780,"Delta":168987804},{"NoteNumber":72,"Velocity":39,"Duration":330780,"SoundDuration":330780,"Delta":168987804},{"NoteNumber":48,"Velocity":22,"Duration":330780,"SoundDuration":330780,"Delta":168987804},{"NoteNumber":55,"Velocity":22,"Duration":330780,"SoundDuration":330780,"Delta":168987804},{"NoteNumber":60,"Velocity":26,"Duration":330780,"SoundDuration":330780,"Delta":168987804},{"NoteNumber":64,"Velocity":31,"Duration":337683,"SoundDuration":337683,"Delta":169322066},{"NoteNumber":67,"Velocity":37,"Duration":337683,"SoundDuration":337683,"Delta":169322066},{"NoteNumber":48,"Velocity":22,"Duration":337683,"SoundDuration":337683,"Delta":169322066},{"NoteNumber":55,"Velocity":22,"Duration":337683,"SoundDuration":337683,"Delta":169322066},{"NoteNumber":60,"Velocity":26,"Duration":337683,"SoundDuration":337683,"Delta":169322066},{"NoteNumber":65,"Velocity":33,"Duration":998666,"SoundDuration":998666,"Delta":169663311},{"NoteNumber":69,"Velocity":39,"Duration":998666,"SoundDuration":998666,"Delta":169663311},{"NoteNumber":53,"Velocity":25,"Duration":998666,"SoundDuration":998666,"Delta":169663311},{"NoteNumber":60,"Velocity":30,"Duration":998666,"SoundDuration":998666,"Delta":169663311},{"NoteNumber":41,"Velocity":28,"Duration":162205,"SoundDuration":162205,"Delta":169997796},{"NoteNumber":29,"Velocity":28,"Duration":169884,"SoundDuration":169884,"Delta":170322208},{"NoteNumber":64,"Velocity":35,"Duration":322476,"SoundDuration":322476,"Delta":170661978},{"NoteNumber":67,"Velocity":39,"Duration":40309,"SoundDuration":40309,"Delta":170661978},{"NoteNumber":36,"Velocity":37,"Duration":161238,"SoundDuration":161238,"Delta":170661978},{"NoteNumber":69,"Velocity":39,"Duration":40309,"SoundDuration":40309,"Delta":170702288},{"NoteNumber":67,"Velocity":38,"Duration":80619,"SoundDuration":80619,"Delta":170742598},{"NoteNumber":66,"Velocity":37,"Duration":161238,"SoundDuration":161238,"Delta":170823217},{"NoteNumber":64,"Velocity":35,"Duration":73907,"SoundDuration":73907,"Delta":170984455},{"NoteNumber":67,"Velocity":42,"Duration":73907,"SoundDuration":73907,"Delta":170984455},{"NoteNumber":48,"Velocity":27,"Duration":73907,"SoundDuration":73907,"Delta":170984455},{"NoteNumber":55,"Velocity":27,"Duration":73907,"SoundDuration":73907,"Delta":170984455},{"NoteNumber":60,"Velocity":32,"Duration":73907,"SoundDuration":73907,"Delta":170984455},{"NoteNumber":64,"Velocity":36,"Duration":73301,"SoundDuration":73301,"Delta":171132000},{"NoteNumber":69,"Velocity":44,"Duration":73301,"SoundDuration":73301,"Delta":171132000},{"NoteNumber":48,"Velocity":28,"Duration":73301,"SoundDuration":73301,"Delta":171132000},{"NoteNumber":55,"Velocity":28,"Duration":73301,"SoundDuration":73301,"Delta":171132000},{"NoteNumber":60,"Velocity":33,"Duration":73301,"SoundDuration":73301,"Delta":171132000},{"NoteNumber":64,"Velocity":37,"Duration":72708,"SoundDuration":72708,"Delta":171278339},{"NoteNumber":71,"Velocity":44,"Duration":72708,"SoundDuration":72708,"Delta":171278339},{"NoteNumber":48,"Velocity":28,"Duration":72708,"SoundDuration":72708,"Delta":171278339},{"NoteNumber":55,"Velocity":28,"Duration":72708,"SoundDuration":72708,"Delta":171278339},{"NoteNumber":60,"Velocity":33,"Duration":72708,"SoundDuration":72708,"Delta":171278339},{"NoteNumber":64,"Velocity":39,"Duration":79787,"SoundDuration":79787,"Delta":171423497},{"NoteNumber":72,"Velocity":46,"Duration":79787,"SoundDuration":79787,"Delta":171423497},{"NoteNumber":48,"Velocity":29,"Duration":79787,"SoundDuration":79787,"Delta":171423497},{"NoteNumber":55,"Velocity":29,"Duration":79787,"SoundDuration":79787,"Delta":171423497},{"NoteNumber":60,"Velocity":34,"Duration":79787,"SoundDuration":79787,"Delta":171423497},{"NoteNumber":65,"Velocity":39,"Duration":301704,"SoundDuration":301704,"Delta":171583071},{"NoteNumber":73,"Velocity":47,"Duration":301704,"SoundDuration":301704,"Delta":171583071},{"NoteNumber":48,"Velocity":28,"Duration":301704,"SoundDuration":301704,"Delta":171583071},{"NoteNumber":56,"Velocity":28,"Duration":301704,"SoundDuration":301704,"Delta":171583071},{"NoteNumber":59,"Velocity":35,"Duration":301704,"SoundDuration":301704,"Delta":171583071},{"NoteNumber":65,"Velocity":42,"Duration":319607,"SoundDuration":319607,"Delta":171884776},{"NoteNumber":74,"Velocity":50,"Duration":319607,"SoundDuration":319607,"Delta":171884776},{"NoteNumber":48,"Velocity":30,"Duration":319607,"SoundDuration":319607,"Delta":171884776},{"NoteNumber":56,"Velocity":30,"Duration":319607,"SoundDuration":319607,"Delta":171884776},{"NoteNumber":59,"Velocity":37,"Duration":319607,"SoundDuration":319607,"Delta":171884776},{"NoteNumber":65,"Velocity":45,"Duration":331343,"SoundDuration":331343,"Delta":172204384},{"NoteNumber":75,"Velocity":54,"Duration":331343,"SoundDuration":331343,"Delta":172204384},{"NoteNumber":48,"Velocity":31,"Duration":331343,"SoundDuration":331343,"Delta":172204384},{"NoteNumber":55,"Velocity":31,"Duration":331343,"SoundDuration":331343,"Delta":172204384},{"NoteNumber":59,"Velocity":39,"Duration":331343,"SoundDuration":331343,"Delta":172204384},{"NoteNumber":64,"Velocity":48,"Duration":328965,"SoundDuration":328965,"Delta":172535727},{"NoteNumber":76,"Velocity":57,"Duration":328965,"SoundDuration":328965,"Delta":172535727},{"NoteNumber":48,"Velocity":36,"Duration":328965,"SoundDuration":328965,"Delta":172535727},{"NoteNumber":55,"Velocity":36,"Duration":328965,"SoundDuration":328965,"Delta":172535727},{"NoteNumber":60,"Velocity":44,"Duration":328965,"SoundDuration":328965,"Delta":172535727},{"NoteNumber":64,"Velocity":46,"Duration":312499,"SoundDuration":312499,"Delta":172868155},{"NoteNumber":72,"Velocity":55,"Duration":312499,"SoundDuration":312499,"Delta":172868155},{"NoteNumber":48,"Velocity":30,"Duration":312499,"SoundDuration":312499,"Delta":172868155},{"NoteNumber":55,"Velocity":30,"Duration":312499,"SoundDuration":312499,"Delta":172868155},{"NoteNumber":60,"Velocity":36,"Duration":312499,"SoundDuration":312499,"Delta":172868155},{"NoteNumber":64,"Velocity":42,"Duration":299873,"SoundDuration":299873,"Delta":173183944},{"NoteNumber":67,"Velocity":51,"Duration":299873,"SoundDuration":299873,"Delta":173183944},{"NoteNumber":48,"Velocity":30,"Duration":299873,"SoundDuration":299873,"Delta":173183944},{"NoteNumber":55,"Velocity":30,"Duration":299873,"SoundDuration":299873,"Delta":173183944},{"NoteNumber":60,"Velocity":36,"Duration":299873,"SoundDuration":299873,"Delta":173183944},{"NoteNumber":65,"Velocity":48,"Duration":285554,"SoundDuration":285554,"Delta":173486974},{"NoteNumber":74,"Velocity":59,"Duration":285554,"SoundDuration":285554,"Delta":173486974},{"NoteNumber":56,"Velocity":36,"Duration":285554,"SoundDuration":285554,"Delta":173486974},{"NoteNumber":59,"Velocity":44,"Duration":285554,"SoundDuration":285554,"Delta":173486974},{"NoteNumber":66,"Velocity":52,"Duration":291970,"SoundDuration":291970,"Delta":173772529},{"NoteNumber":75,"Velocity":63,"Duration":291970,"SoundDuration":291970,"Delta":173772529},{"NoteNumber":57,"Velocity":38,"Duration":291970,"SoundDuration":291970,"Delta":173772529},{"NoteNumber":60,"Velocity":46,"Duration":291970,"SoundDuration":291970,"Delta":173772529},{"NoteNumber":68,"Velocity":57,"Duration":291971,"SoundDuration":291971,"Delta":174064500},{"NoteNumber":77,"Velocity":68,"Duration":291971,"SoundDuration":291971,"Delta":174064500},{"NoteNumber":59,"Velocity":40,"Duration":291971,"SoundDuration":291971,"Delta":174064500},{"NoteNumber":62,"Velocity":49,"Duration":291971,"SoundDuration":291971,"Delta":174064500},{"NoteNumber":69,"Velocity":61,"Duration":296134,"SoundDuration":296134,"Delta":174356471},{"NoteNumber":78,"Velocity":72,"Duration":296134,"SoundDuration":296134,"Delta":174356471},{"NoteNumber":60,"Velocity":45,"Duration":296134,"SoundDuration":296134,"Delta":174356471},{"NoteNumber":63,"Velocity":55,"Duration":296134,"SoundDuration":296134,"Delta":174356471},{"NoteNumber":69,"Velocity":59,"Duration":290830,"SoundDuration":290830,"Delta":174655723},{"NoteNumber":75,"Velocity":72,"Duration":290830,"SoundDuration":290830,"Delta":174655723},{"NoteNumber":60,"Velocity":39,"Duration":290830,"SoundDuration":290830,"Delta":174655723},{"NoteNumber":63,"Velocity":47,"Duration":290830,"SoundDuration":290830,"Delta":174655723},{"NoteNumber":69,"Velocity":77,"Duration":286498,"SoundDuration":286498,"Delta":174949610},{"NoteNumber":60,"Velocity":41,"Duration":286498,"SoundDuration":286498,"Delta":174949610},{"NoteNumber":63,"Velocity":49,"Duration":286498,"SoundDuration":286498,"Delta":174949610},{"NoteNumber":68,"Velocity":66,"Duration":279719,"SoundDuration":279719,"Delta":175239121},{"NoteNumber":77,"Velocity":78,"Duration":279719,"SoundDuration":279719,"Delta":175239121},{"NoteNumber":59,"Velocity":46,"Duration":279719,"SoundDuration":279719,"Delta":175239121},{"NoteNumber":62,"Velocity":55,"Duration":279719,"SoundDuration":279719,"Delta":175239121},{"NoteNumber":69,"Velocity":69,"Duration":288462,"SoundDuration":288462,"Delta":175518841},{"NoteNumber":78,"Velocity":82,"Duration":288462,"SoundDuration":288462,"Delta":175518841},{"NoteNumber":60,"Velocity":48,"Duration":288462,"SoundDuration":288462,"Delta":175518841},{"NoteNumber":63,"Velocity":57,"Duration":288462,"SoundDuration":288462,"Delta":175518841},{"NoteNumber":71,"Velocity":73,"Duration":297766,"SoundDuration":297766,"Delta":175807303},{"NoteNumber":80,"Velocity":86,"Duration":297766,"SoundDuration":297766,"Delta":175807303},{"NoteNumber":62,"Velocity":51,"Duration":297766,"SoundDuration":297766,"Delta":175807303},{"NoteNumber":65,"Velocity":60,"Duration":297766,"SoundDuration":297766,"Delta":175807303},{"NoteNumber":72,"Velocity":74,"Duration":303708,"SoundDuration":303708,"Delta":176105070},{"NoteNumber":81,"Velocity":87,"Duration":303708,"SoundDuration":303708,"Delta":176105070},{"NoteNumber":63,"Velocity":48,"Duration":303708,"SoundDuration":303708,"Delta":176105070},{"NoteNumber":66,"Velocity":57,"Duration":303708,"SoundDuration":303708,"Delta":176105070},{"NoteNumber":69,"Velocity":75,"Duration":296486,"SoundDuration":296486,"Delta":176411975},{"NoteNumber":72,"Velocity":75,"Duration":296486,"SoundDuration":296486,"Delta":176411975},{"NoteNumber":81,"Velocity":89,"Duration":296486,"SoundDuration":296486,"Delta":176411975},{"NoteNumber":63,"Velocity":51,"Duration":296486,"SoundDuration":296486,"Delta":176411975},{"NoteNumber":66,"Velocity":60,"Duration":296486,"SoundDuration":296486,"Delta":176411975},{"NoteNumber":69,"Velocity":76,"Duration":307098,"SoundDuration":307098,"Delta":176711633},{"NoteNumber":72,"Velocity":76,"Duration":307098,"SoundDuration":307098,"Delta":176711633},{"NoteNumber":81,"Velocity":91,"Duration":307098,"SoundDuration":307098,"Delta":176711633},{"NoteNumber":63,"Velocity":53,"Duration":307098,"SoundDuration":307098,"Delta":176711633},{"NoteNumber":66,"Velocity":63,"Duration":307098,"SoundDuration":307098,"Delta":176711633},{"NoteNumber":69,"Velocity":78,"Duration":312137,"SoundDuration":312137,"Delta":177021987},{"NoteNumber":72,"Velocity":78,"Duration":312137,"SoundDuration":312137,"Delta":177021987},{"NoteNumber":81,"Velocity":93,"Duration":312137,"SoundDuration":312137,"Delta":177021987},{"NoteNumber":63,"Velocity":56,"Duration":312137,"SoundDuration":312137,"Delta":177021987},{"NoteNumber":66,"Velocity":66,"Duration":312137,"SoundDuration":312137,"Delta":177021987},{"NoteNumber":69,"Velocity":80,"Duration":317844,"SoundDuration":317844,"Delta":177337440},{"NoteNumber":72,"Velocity":80,"Duration":317844,"SoundDuration":317844,"Delta":177337440},{"NoteNumber":81,"Velocity":95,"Duration":317844,"SoundDuration":317844,"Delta":177337440},{"NoteNumber":63,"Velocity":58,"Duration":317844,"SoundDuration":317844,"Delta":177337440},{"NoteNumber":66,"Velocity":69,"Duration":317844,"SoundDuration":317844,"Delta":177337440},{"NoteNumber":69,"Velocity":81,"Duration":323839,"SoundDuration":323839,"Delta":177658663},{"NoteNumber":73,"Velocity":81,"Duration":323839,"SoundDuration":323839,"Delta":177658663},{"NoteNumber":81,"Velocity":96,"Duration":323839,"SoundDuration":323839,"Delta":177658663},{"NoteNumber":61,"Velocity":61,"Duration":323839,"SoundDuration":323839,"Delta":177658663},{"NoteNumber":66,"Velocity":73,"Duration":323839,"SoundDuration":323839,"Delta":177658663},{"NoteNumber":76,"Velocity":84,"Duration":357143,"SoundDuration":357143,"Delta":177985947},{"NoteNumber":69,"Velocity":84,"Duration":827731,"SoundDuration":827731,"Delta":177985947},{"NoteNumber":81,"Velocity":99,"Duration":827731,"SoundDuration":827731,"Delta":177985947},{"NoteNumber":60,"Velocity":64,"Duration":1462651,"SoundDuration":1462651,"Delta":177985947},{"NoteNumber":66,"Velocity":76,"Duration":1462651,"SoundDuration":1462651,"Delta":177985947},{"NoteNumber":75,"Velocity":89,"Duration":1105508,"SoundDuration":1105508,"Delta":178343090},{"NoteNumber":68,"Velocity":59,"Duration":634920,"SoundDuration":634920,"Delta":178813678},{"NoteNumber":78,"Velocity":85,"Duration":634920,"SoundDuration":634920,"Delta":178813678},{"NoteNumber":80,"Velocity":85,"Duration":634920,"SoundDuration":634920,"Delta":178813678},{"NoteNumber":48,"Velocity":73,"Duration":368228,"SoundDuration":368228,"Delta":179448599},{"NoteNumber":60,"Velocity":86,"Duration":368228,"SoundDuration":368228,"Delta":179448599},{"NoteNumber":49,"Velocity":77,"Duration":303797,"SoundDuration":303797,"Delta":179816827},{"NoteNumber":61,"Velocity":91,"Duration":303797,"SoundDuration":303797,"Delta":179816827},{"NoteNumber":50,"Velocity":81,"Duration":309278,"SoundDuration":309278,"Delta":180120624},{"NoteNumber":62,"Velocity":96,"Duration":309278,"SoundDuration":309278,"Delta":180120624},{"NoteNumber":52,"Velocity":84,"Duration":510861,"SoundDuration":510861,"Delta":180429902},{"NoteNumber":64,"Velocity":99,"Duration":510861,"SoundDuration":510861,"Delta":180429902},{"NoteNumber":51,"Velocity":79,"Duration":192441,"SoundDuration":192441,"Delta":180940764},{"NoteNumber":63,"Velocity":94,"Duration":192441,"SoundDuration":192441,"Delta":180940764},{"NoteNumber":49,"Velocity":79,"Duration":181557,"SoundDuration":181557,"Delta":181133205},{"NoteNumber":61,"Velocity":93,"Duration":181557,"SoundDuration":181557,"Delta":181133205},{"NoteNumber":48,"Velocity":78,"Duration":175966,"SoundDuration":175966,"Delta":181314763},{"NoteNumber":60,"Velocity":92,"Duration":175966,"SoundDuration":175966,"Delta":181314763},{"NoteNumber":45,"Velocity":77,"Duration":170709,"SoundDuration":170709,"Delta":181490729},{"NoteNumber":57,"Velocity":91,"Duration":170709,"SoundDuration":170709,"Delta":181490729},{"NoteNumber":44,"Velocity":77,"Duration":165604,"SoundDuration":165604,"Delta":181661438},{"NoteNumber":56,"Velocity":91,"Duration":165604,"SoundDuration":165604,"Delta":181661438},{"NoteNumber":43,"Velocity":76,"Duration":164532,"SoundDuration":164532,"Delta":181827043},{"NoteNumber":55,"Velocity":90,"Duration":164532,"SoundDuration":164532,"Delta":181827043},{"NoteNumber":44,"Velocity":71,"Duration":185600,"SoundDuration":185600,"Delta":181991575},{"NoteNumber":56,"Velocity":84,"Duration":185600,"SoundDuration":185600,"Delta":181991575},{"NoteNumber":47,"Velocity":74,"Duration":87893,"SoundDuration":87893,"Delta":182177175},{"NoteNumber":59,"Velocity":88,"Duration":87893,"SoundDuration":87893,"Delta":182177175},{"NoteNumber":45,"Velocity":74,"Duration":86621,"SoundDuration":86621,"Delta":182352109},{"NoteNumber":57,"Velocity":88,"Duration":86621,"SoundDuration":86621,"Delta":182352109},{"NoteNumber":44,"Velocity":74,"Duration":85796,"SoundDuration":85796,"Delta":182525021},{"NoteNumber":56,"Velocity":88,"Duration":85796,"SoundDuration":85796,"Delta":182525021},{"NoteNumber":42,"Velocity":73,"Duration":85066,"SoundDuration":85066,"Delta":182696206},{"NoteNumber":54,"Velocity":87,"Duration":85066,"SoundDuration":85066,"Delta":182696206},{"NoteNumber":40,"Velocity":73,"Duration":84112,"SoundDuration":84112,"Delta":182865859},{"NoteNumber":52,"Velocity":87,"Duration":84112,"SoundDuration":84112,"Delta":182865859},{"NoteNumber":39,"Velocity":73,"Duration":84986,"SoundDuration":84986,"Delta":183034479},{"NoteNumber":51,"Velocity":87,"Duration":84986,"SoundDuration":84986,"Delta":183034479},{"NoteNumber":37,"Velocity":73,"Duration":85878,"SoundDuration":85878,"Delta":183204854},{"NoteNumber":49,"Velocity":86,"Duration":85878,"SoundDuration":85878,"Delta":183204854},{"NoteNumber":36,"Velocity":73,"Duration":93404,"SoundDuration":93404,"Delta":183377785},{"NoteNumber":48,"Velocity":86,"Duration":93404,"SoundDuration":93404,"Delta":183377785},{"NoteNumber":39,"Velocity":73,"Duration":118139,"SoundDuration":118139,"Delta":183573502},{"NoteNumber":51,"Velocity":86,"Duration":118139,"SoundDuration":118139,"Delta":183573502},{"NoteNumber":33,"Velocity":86,"Duration":860216,"SoundDuration":860216,"Delta":183833399},{"NoteNumber":45,"Velocity":102,"Duration":860216,"SoundDuration":860216,"Delta":183833399},{"NoteNumber":32,"Velocity":78,"Duration":417787,"SoundDuration":417787,"Delta":184693615},{"NoteNumber":44,"Velocity":92,"Duration":417787,"SoundDuration":417787,"Delta":184693615},{"NoteNumber":31,"Velocity":82,"Duration":416666,"SoundDuration":416666,"Delta":185111402},{"NoteNumber":43,"Velocity":97,"Duration":416666,"SoundDuration":416666,"Delta":185111402},{"NoteNumber":32,"Velocity":82,"Duration":416667,"SoundDuration":416667,"Delta":185528069},{"NoteNumber":44,"Velocity":97,"Duration":416667,"SoundDuration":416667,"Delta":185528069},{"NoteNumber":27,"Velocity":83,"Duration":406779,"SoundDuration":406779,"Delta":185944736},{"NoteNumber":39,"Velocity":98,"Duration":406779,"SoundDuration":406779,"Delta":185944736},{"NoteNumber":30,"Velocity":79,"Duration":596026,"SoundDuration":596026,"Delta":186351516},{"NoteNumber":42,"Velocity":94,"Duration":596026,"SoundDuration":596026,"Delta":186351516},{"NoteNumber":28,"Velocity":76,"Duration":230769,"SoundDuration":230769,"Delta":186947543},{"NoteNumber":40,"Velocity":90,"Duration":230769,"SoundDuration":230769,"Delta":186947543},{"NoteNumber":37,"Velocity":102,"Duration":370370,"SoundDuration":370370,"Delta":187178312},{"NoteNumber":44,"Velocity":38,"Duration":333333,"SoundDuration":333333,"Delta":187548682},{"NoteNumber":56,"Velocity":39,"Duration":333333,"SoundDuration":333333,"Delta":187882015},{"NoteNumber":49,"Velocity":41,"Duration":331071,"SoundDuration":331071,"Delta":188215349},{"NoteNumber":44,"Velocity":43,"Duration":331070,"SoundDuration":331070,"Delta":188546420},{"NoteNumber":37,"Velocity":45,"Duration":331071,"SoundDuration":331071,"Delta":188877491},{"NoteNumber":44,"Velocity":47,"Duration":317460,"SoundDuration":317460,"Delta":189208562},{"NoteNumber":49,"Velocity":46,"Duration":317460,"SoundDuration":317460,"Delta":189526022},{"NoteNumber":56,"Velocity":44,"Duration":316835,"SoundDuration":316835,"Delta":189843482},{"NoteNumber":49,"Velocity":43,"Duration":316210,"SoundDuration":316210,"Delta":190160318},{"NoteNumber":44,"Velocity":42,"Duration":319365,"SoundDuration":319365,"Delta":190476528},{"NoteNumber":37,"Velocity":40,"Duration":322580,"SoundDuration":322580,"Delta":190795893},{"NoteNumber":44,"Velocity":42,"Duration":324939,"SoundDuration":324939,"Delta":191118474},{"NoteNumber":49,"Velocity":40,"Duration":324939,"SoundDuration":324939,"Delta":191443413},{"NoteNumber":56,"Velocity":38,"Duration":325948,"SoundDuration":325948,"Delta":191768352},{"NoteNumber":49,"Velocity":36,"Duration":326957,"SoundDuration":326957,"Delta":192094300},{"NoteNumber":44,"Velocity":34,"Duration":326957,"SoundDuration":326957,"Delta":192421258},{"NoteNumber":37,"Velocity":31,"Duration":329001,"SoundDuration":329001,"Delta":192748216},{"NoteNumber":44,"Velocity":30,"Duration":317460,"SoundDuration":317460,"Delta":193077217},{"NoteNumber":49,"Velocity":29,"Duration":317460,"SoundDuration":317460,"Delta":193394677},{"NoteNumber":56,"Velocity":28,"Duration":317460,"SoundDuration":317460,"Delta":193712138},{"NoteNumber":49,"Velocity":27,"Duration":337727,"SoundDuration":337727,"Delta":194029598},{"NoteNumber":44,"Velocity":26,"Duration":370640,"SoundDuration":370640,"Delta":194367325},{"NoteNumber":37,"Velocity":25,"Duration":394611,"SoundDuration":394611,"Delta":194737966},{"NoteNumber":76,"Velocity":52,"Duration":2001315,"SoundDuration":2001315,"Delta":195132577},{"NoteNumber":44,"Velocity":26,"Duration":364042,"SoundDuration":364042,"Delta":195132577},{"NoteNumber":49,"Velocity":25,"Duration":334770,"SoundDuration":334770,"Delta":195496620},{"NoteNumber":56,"Velocity":26,"Duration":333333,"SoundDuration":333333,"Delta":195831390},{"NoteNumber":49,"Velocity":27,"Duration":327202,"SoundDuration":327202,"Delta":196164724},{"NoteNumber":44,"Velocity":28,"Duration":323236,"SoundDuration":323236,"Delta":196491926},{"NoteNumber":37,"Velocity":29,"Duration":318730,"SoundDuration":318730,"Delta":196815163},{"NoteNumber":77,"Velocity":51,"Duration":952381,"SoundDuration":952381,"Delta":197133893},{"NoteNumber":44,"Velocity":28,"Duration":317460,"SoundDuration":317460,"Delta":197133893},{"NoteNumber":49,"Velocity":29,"Duration":317460,"SoundDuration":317460,"Delta":197451353},{"NoteNumber":59,"Velocity":30,"Duration":317460,"SoundDuration":317460,"Delta":197768814},{"NoteNumber":77,"Velocity":54,"Duration":979082,"SoundDuration":979082,"Delta":198086274},{"NoteNumber":49,"Velocity":30,"Duration":321290,"SoundDuration":321290,"Delta":198086274},{"NoteNumber":44,"Velocity":31,"Duration":327213,"SoundDuration":327213,"Delta":198407564},{"NoteNumber":37,"Velocity":32,"Duration":330578,"SoundDuration":330578,"Delta":198734778},{"NoteNumber":77,"Velocity":56,"Duration":1939608,"SoundDuration":1939608,"Delta":199065356},{"NoteNumber":44,"Velocity":33,"Duration":327868,"SoundDuration":327868,"Delta":199065356},{"NoteNumber":49,"Velocity":31,"Duration":326536,"SoundDuration":326536,"Delta":199393225},{"NoteNumber":59,"Velocity":30,"Duration":325203,"SoundDuration":325203,"Delta":199719762},{"NoteNumber":49,"Velocity":30,"Duration":319999,"SoundDuration":319999,"Delta":200044965},{"NoteNumber":44,"Velocity":29,"Duration":319999,"SoundDuration":319999,"Delta":200364965},{"NoteNumber":37,"Velocity":28,"Duration":320000,"SoundDuration":320000,"Delta":200684965},{"NoteNumber":78,"Velocity":55,"Duration":2961425,"SoundDuration":2961425,"Delta":201004965},{"NoteNumber":45,"Velocity":28,"Duration":319999,"SoundDuration":319999,"Delta":201004965},{"NoteNumber":49,"Velocity":28,"Duration":319999,"SoundDuration":319999,"Delta":201324965},{"NoteNumber":57,"Velocity":28,"Duration":320000,"SoundDuration":320000,"Delta":201644965},{"NoteNumber":49,"Velocity":28,"Duration":325203,"SoundDuration":325203,"Delta":201964965},{"NoteNumber":45,"Velocity":28,"Duration":325203,"SoundDuration":325203,"Delta":202290168},{"NoteNumber":37,"Velocity":28,"Duration":325203,"SoundDuration":325203,"Delta":202615372},{"NoteNumber":45,"Velocity":32,"Duration":341938,"SoundDuration":341938,"Delta":202940575},{"NoteNumber":50,"Velocity":29,"Duration":341938,"SoundDuration":341938,"Delta":203282514},{"NoteNumber":57,"Velocity":29,"Duration":341938,"SoundDuration":341938,"Delta":203624452},{"NoteNumber":76,"Velocity":55,"Duration":740252,"SoundDuration":740252,"Delta":203966391},{"NoteNumber":50,"Velocity":28,"Duration":329001,"SoundDuration":329001,"Delta":203966391},{"NoteNumber":45,"Velocity":27,"Duration":329001,"SoundDuration":329001,"Delta":204295392},{"NoteNumber":37,"Velocity":26,"Duration":329001,"SoundDuration":329001,"Delta":204624394},{"NoteNumber":74,"Velocity":51,"Duration":246751,"SoundDuration":246751,"Delta":204706644},{"NoteNumber":73,"Velocity":51,"Duration":1004449,"SoundDuration":1004449,"Delta":204953395},{"NoteNumber":45,"Velocity":25,"Duration":333759,"SoundDuration":333759,"Delta":204953395},{"NoteNumber":50,"Velocity":24,"Duration":335345,"SoundDuration":335345,"Delta":205287154},{"NoteNumber":57,"Velocity":24,"Duration":335345,"SoundDuration":335345,"Delta":205622500},{"NoteNumber":72,"Velocity":51,"Duration":1130691,"SoundDuration":1130691,"Delta":205957845},{"NoteNumber":50,"Velocity":24,"Duration":349385,"SoundDuration":349385,"Delta":205957845},{"NoteNumber":45,"Velocity":24,"Duration":372791,"SoundDuration":372791,"Delta":206307230},{"NoteNumber":37,"Velocity":24,"Duration":408514,"SoundDuration":408514,"Delta":206680022},{"NoteNumber":73,"Velocity":54,"Duration":1057354,"SoundDuration":1057354,"Delta":207088537},{"NoteNumber":44,"Velocity":26,"Duration":388494,"SoundDuration":388494,"Delta":207088537},{"NoteNumber":52,"Velocity":24,"Duration":335526,"SoundDuration":335526,"Delta":207477031},{"NoteNumber":61,"Velocity":23,"Duration":333333,"SoundDuration":333333,"Delta":207812557},{"NoteNumber":80,"Velocity":60,"Duration":2145763,"SoundDuration":2145763,"Delta":208145891},{"NoteNumber":52,"Velocity":23,"Duration":333222,"SoundDuration":333222,"Delta":208145891},{"NoteNumber":44,"Velocity":23,"Duration":333222,"SoundDuration":333222,"Delta":208479113},{"NoteNumber":37,"Velocity":23,"Duration":358155,"SoundDuration":358155,"Delta":208812335},{"NoteNumber":69,"Velocity":36,"Duration":274850,"SoundDuration":274850,"Delta":208895641},{"NoteNumber":69,"Velocity":41,"Duration":178973,"SoundDuration":178973,"Delta":209170491},{"NoteNumber":35,"Velocity":26,"Duration":360799,"SoundDuration":360799,"Delta":209170491},{"NoteNumber":71,"Velocity":39,"Duration":182486,"SoundDuration":182486,"Delta":209385501},{"NoteNumber":47,"Velocity":24,"Duration":370834,"SoundDuration":370834,"Delta":209531290},{"NoteNumber":69,"Velocity":39,"Duration":184850,"SoundDuration":184850,"Delta":209604685},{"NoteNumber":68,"Velocity":41,"Duration":188414,"SoundDuration":188414,"Delta":209826918},{"NoteNumber":63,"Velocity":24,"Duration":389529,"SoundDuration":389529,"Delta":209902125},{"NoteNumber":69,"Velocity":39,"Duration":198118,"SoundDuration":198118,"Delta":210053536},{"NoteNumber":78,"Velocity":54,"Duration":1251513,"SoundDuration":1251513,"Delta":210291655},{"NoteNumber":71,"Velocity":40,"Duration":936923,"SoundDuration":936923,"Delta":210291655},{"NoteNumber":57,"Velocity":24,"Duration":407690,"SoundDuration":407690,"Delta":210291655},{"NoteNumber":47,"Velocity":24,"Duration":421122,"SoundDuration":421122,"Delta":210699345},{"NoteNumber":35,"Velocity":24,"Duration":422700,"SoundDuration":422700,"Delta":211120467},{"NoteNumber":66,"Velocity":40,"Duration":314589,"SoundDuration":314589,"Delta":211228579},{"NoteNumber":68,"Velocity":46,"Duration":3957021,"SoundDuration":3957021,"Delta":211543168},{"NoteNumber":76,"Velocity":54,"Duration":2014594,"SoundDuration":2014594,"Delta":211543168},{"NoteNumber":40,"Velocity":30,"Duration":373066,"SoundDuration":373066,"Delta":211543168},{"NoteNumber":47,"Velocity":31,"Duration":335941,"SoundDuration":335941,"Delta":211916234},{"NoteNumber":64,"Velocity":31,"Duration":330578,"SoundDuration":330578,"Delta":212252176},{"NoteNumber":56,"Velocity":32,"Duration":327868,"SoundDuration":327868,"Delta":212582754},{"NoteNumber":47,"Velocity":32,"Duration":325203,"SoundDuration":325203,"Delta":212910623},{"NoteNumber":39,"Velocity":33,"Duration":321935,"SoundDuration":321935,"Delta":213235827},{"NoteNumber":76,"Velocity":54,"Duration":960000,"SoundDuration":960000,"Delta":213557762},{"NoteNumber":37,"Velocity":34,"Duration":319999,"SoundDuration":319999,"Delta":213557762},{"NoteNumber":44,"Velocity":34,"Duration":319999,"SoundDuration":319999,"Delta":213877762},{"NoteNumber":56,"Velocity":35,"Duration":320000,"SoundDuration":320000,"Delta":214197762},{"NoteNumber":76,"Velocity":58,"Duration":982427,"SoundDuration":982427,"Delta":214517762},{"NoteNumber":49,"Velocity":35,"Duration":322591,"SoundDuration":322591,"Delta":214517762},{"NoteNumber":44,"Velocity":36,"Duration":327879,"SoundDuration":327879,"Delta":214840353},{"NoteNumber":37,"Velocity":36,"Duration":331956,"SoundDuration":331956,"Delta":215168233},{"NoteNumber":71,"Velocity":55,"Duration":975125,"SoundDuration":975125,"Delta":215500189},{"NoteNumber":77,"Velocity":62,"Duration":1965243,"SoundDuration":1965243,"Delta":215500189},{"NoteNumber":37,"Velocity":37,"Duration":329901,"SoundDuration":329901,"Delta":215500189},{"NoteNumber":44,"Velocity":37,"Duration":325214,"SoundDuration":325214,"Delta":215830091},{"NoteNumber":61,"Velocity":36,"Duration":320010,"SoundDuration":320010,"Delta":216155305},{"NoteNumber":73,"Velocity":56,"Duration":724630,"SoundDuration":724630,"Delta":216475315},{"NoteNumber":53,"Velocity":35,"Duration":317460,"SoundDuration":317460,"Delta":216475315},{"NoteNumber":44,"Velocity":34,"Duration":325203,"SoundDuration":325203,"Delta":216792775},{"NoteNumber":37,"Velocity":33,"Duration":347453,"SoundDuration":347453,"Delta":217117979},{"NoteNumber":71,"Velocity":51,"Duration":265486,"SoundDuration":265486,"Delta":217199946},{"NoteNumber":71,"Velocity":55,"Duration":965869,"SoundDuration":965869,"Delta":217465433},{"NoteNumber":78,"Velocity":60,"Duration":2966840,"SoundDuration":2966840,"Delta":217465433},{"NoteNumber":37,"Velocity":32,"Duration":325203,"SoundDuration":325203,"Delta":217465433},{"NoteNumber":45,"Velocity":31,"Duration":321935,"SoundDuration":321935,"Delta":217790636},{"NoteNumber":61,"Velocity":30,"Duration":318730,"SoundDuration":318730,"Delta":218112571},{"NoteNumber":69,"Velocity":57,"Duration":714285,"SoundDuration":714285,"Delta":218431302},{"NoteNumber":54,"Velocity":29,"Duration":317460,"SoundDuration":317460,"Delta":218431302},{"NoteNumber":45,"Velocity":29,"Duration":317460,"SoundDuration":317460,"Delta":218748762},{"NoteNumber":37,"Velocity":28,"Duration":340234,"SoundDuration":340234,"Delta":219066222},{"NoteNumber":68,"Velocity":52,"Duration":260869,"SoundDuration":260869,"Delta":219145587},{"NoteNumber":66,"Velocity":53,"Duration":3995556,"SoundDuration":3995556,"Delta":219406457},{"NoteNumber":37,"Velocity":26,"Duration":341938,"SoundDuration":341938,"Delta":219406457},{"NoteNumber":45,"Velocity":24,"Duration":341938,"SoundDuration":341938,"Delta":219748396},{"NoteNumber":57,"Velocity":24,"Duration":341938,"SoundDuration":341938,"Delta":220090334},{"NoteNumber":76,"Velocity":56,"Duration":740252,"SoundDuration":740252,"Delta":220432273},{"NoteNumber":50,"Velocity":24,"Duration":329001,"SoundDuration":329001,"Delta":220432273},{"NoteNumber":45,"Velocity":24,"Duration":329001,"SoundDuration":329001,"Delta":220761274},{"NoteNumber":37,"Velocity":24,"Duration":352520,"SoundDuration":352520,"Delta":221090276},{"NoteNumber":74,"Velocity":55,"Duration":270270,"SoundDuration":270270,"Delta":221172526},{"NoteNumber":73,"Velocity":54,"Duration":975609,"SoundDuration":975609,"Delta":221442796},{"NoteNumber":37,"Velocity":26,"Duration":325203,"SoundDuration":325203,"Delta":221442796},{"NoteNumber":45,"Velocity":24,"Duration":325203,"SoundDuration":325203,"Delta":221767999},{"NoteNumber":57,"Velocity":24,"Duration":325203,"SoundDuration":325203,"Delta":222093203},{"NoteNumber":72,"Velocity":52,"Duration":3016589,"SoundDuration":3016589,"Delta":222418406},{"NoteNumber":50,"Velocity":24,"Duration":327868,"SoundDuration":327868,"Delta":222418406},{"NoteNumber":45,"Velocity":24,"Duration":327869,"SoundDuration":327869,"Delta":222746275},{"NoteNumber":37,"Velocity":24,"Duration":327868,"SoundDuration":327868,"Delta":223074144},{"NoteNumber":66,"Velocity":60,"Duration":1000000,"SoundDuration":1000000,"Delta":223402013},{"NoteNumber":37,"Velocity":31,"Duration":333333,"SoundDuration":333333,"Delta":223402013},{"NoteNumber":45,"Velocity":26,"Duration":333333,"SoundDuration":333333,"Delta":223735346},{"NoteNumber":57,"Velocity":28,"Duration":333333,"SoundDuration":333333,"Delta":224068680},{"NoteNumber":64,"Velocity":58,"Duration":762711,"SoundDuration":762711,"Delta":224402013},{"NoteNumber":50,"Velocity":32,"Duration":338983,"SoundDuration":338983,"Delta":224402013},{"NoteNumber":45,"Velocity":27,"Duration":338982,"SoundDuration":338982,"Delta":224740996},{"NoteNumber":37,"Velocity":27,"Duration":355016,"SoundDuration":355016,"Delta":225079979},{"NoteNumber":62,"Velocity":47,"Duration":270270,"SoundDuration":270270,"Delta":225164725},{"NoteNumber":61,"Velocity":57,"Duration":1019022,"SoundDuration":1019022,"Delta":225434995},{"NoteNumber":37,"Velocity":31,"Duration":339674,"SoundDuration":339674,"Delta":225434995},{"NoteNumber":45,"Velocity":28,"Duration":339674,"SoundDuration":339674,"Delta":225774669},{"NoteNumber":57,"Velocity":28,"Duration":339674,"SoundDuration":339674,"Delta":226114343},{"NoteNumber":60,"Velocity":56,"Duration":1098199,"SoundDuration":1098199,"Delta":226454017},{"NoteNumber":50,"Velocity":28,"Duration":354676,"SoundDuration":354676,"Delta":226454017},{"NoteNumber":45,"Velocity":28,"Duration":360563,"SoundDuration":360563,"Delta":226808694},{"NoteNumber":37,"Velocity":28,"Duration":382959,"SoundDuration":382959,"Delta":227169257},{"NoteNumber":61,"Velocity":61,"Duration":1117432,"SoundDuration":1117432,"Delta":227552217},{"NoteNumber":37,"Velocity":35,"Duration":386518,"SoundDuration":386518,"Delta":227552217},{"NoteNumber":44,"Velocity":25,"Duration":372133,"SoundDuration":372133,"Delta":227938735},{"NoteNumber":61,"Velocity":30,"Duration":358780,"SoundDuration":358780,"Delta":228310868},{"NoteNumber":73,"Velocity":45,"Duration":1052631,"SoundDuration":1052631,"Delta":228669649},{"NoteNumber":77,"Velocity":54,"Duration":1052631,"SoundDuration":1052631,"Delta":228669649},{"NoteNumber":53,"Velocity":27,"Duration":350877,"SoundDuration":350877,"Delta":228669649},{"NoteNumber":44,"Velocity":27,"Duration":350877,"SoundDuration":350877,"Delta":229020526},{"NoteNumber":37,"Velocity":27,"Duration":350877,"SoundDuration":350877,"Delta":229371404},{"NoteNumber":66,"Velocity":40,"Duration":1052632,"SoundDuration":1052632,"Delta":229722281},{"NoteNumber":70,"Velocity":48,"Duration":1052632,"SoundDuration":1052632,"Delta":229722281},{"NoteNumber":37,"Velocity":31,"Duration":350877,"SoundDuration":350877,"Delta":229722281},{"NoteNumber":44,"Velocity":28,"Duration":350877,"SoundDuration":350877,"Delta":230073158},{"NoteNumber":60,"Velocity":32,"Duration":350877,"SoundDuration":350877,"Delta":230424036},{"NoteNumber":72,"Velocity":54,"Duration":762711,"SoundDuration":762711,"Delta":230774913},{"NoteNumber":75,"Velocity":54,"Duration":1045730,"SoundDuration":1045730,"Delta":230774913},{"NoteNumber":51,"Velocity":28,"Duration":338983,"SoundDuration":338983,"Delta":230774913},{"NoteNumber":44,"Velocity":27,"Duration":338982,"SoundDuration":338982,"Delta":231113896},{"NoteNumber":37,"Velocity":27,"Duration":367764,"SoundDuration":367764,"Delta":231452879},{"NoteNumber":70,"Velocity":47,"Duration":283018,"SoundDuration":283018,"Delta":231537625},{"NoteNumber":65,"Velocity":42,"Duration":1063680,"SoundDuration":1063680,"Delta":231820643},{"NoteNumber":68,"Velocity":50,"Duration":1063680,"SoundDuration":1063680,"Delta":231820643},{"NoteNumber":37,"Velocity":37,"Duration":359555,"SoundDuration":359555,"Delta":231820643},{"NoteNumber":44,"Velocity":26,"Duration":354772,"SoundDuration":354772,"Delta":232180199},{"NoteNumber":58,"Velocity":34,"Duration":349351,"SoundDuration":349351,"Delta":232534972},{"NoteNumber":70,"Velocity":43,"Duration":1034482,"SoundDuration":1034482,"Delta":232884324},{"NoteNumber":73,"Velocity":51,"Duration":1034482,"SoundDuration":1034482,"Delta":232884324},{"NoteNumber":49,"Velocity":26,"Duration":344827,"SoundDuration":344827,"Delta":232884324},{"NoteNumber":44,"Velocity":26,"Duration":344827,"SoundDuration":344827,"Delta":233229151},{"NoteNumber":37,"Velocity":26,"Duration":344827,"SoundDuration":344827,"Delta":233573979},{"NoteNumber":63,"Velocity":40,"Duration":1034482,"SoundDuration":1034482,"Delta":233918807},{"NoteNumber":66,"Velocity":48,"Duration":1034482,"SoundDuration":1034482,"Delta":233918807},{"NoteNumber":37,"Velocity":29,"Duration":344827,"SoundDuration":344827,"Delta":233918807},{"NoteNumber":44,"Velocity":26,"Duration":344827,"SoundDuration":344827,"Delta":234263634},{"NoteNumber":56,"Velocity":33,"Duration":344827,"SoundDuration":344827,"Delta":234608462},{"NoteNumber":68,"Velocity":42,"Duration":756302,"SoundDuration":756302,"Delta":234953290},{"NoteNumber":72,"Velocity":50,"Duration":756302,"SoundDuration":756302,"Delta":234953290},{"NoteNumber":48,"Velocity":26,"Duration":336134,"SoundDuration":336134,"Delta":234953290},{"NoteNumber":44,"Velocity":26,"Duration":336134,"SoundDuration":336134,"Delta":235289424},{"NoteNumber":37,"Velocity":26,"Duration":413703,"SoundDuration":413703,"Delta":235625558},{"NoteNumber":66,"Velocity":35,"Duration":329670,"SoundDuration":329670,"Delta":235709592},{"NoteNumber":70,"Velocity":42,"Duration":329670,"SoundDuration":329670,"Delta":235709592},{"NoteNumber":65,"Velocity":40,"Duration":2255019,"SoundDuration":2255019,"Delta":236039262},{"NoteNumber":68,"Velocity":47,"Duration":2255019,"SoundDuration":2255019,"Delta":236039262},{"NoteNumber":37,"Velocity":35,"Duration":373831,"SoundDuration":373831,"Delta":236039262},{"NoteNumber":44,"Velocity":25,"Duration":373831,"SoundDuration":373831,"Delta":236413094},{"NoteNumber":61,"Velocity":30,"Duration":371920,"SoundDuration":371920,"Delta":236786925},{"NoteNumber":73,"Velocity":40,"Duration":2226344,"SoundDuration":2226344,"Delta":237158846},{"NoteNumber":77,"Velocity":47,"Duration":2226344,"SoundDuration":2226344,"Delta":237158846},{"NoteNumber":53,"Velocity":25,"Duration":408163,"SoundDuration":408163,"Delta":237158846},{"NoteNumber":44,"Velocity":25,"Duration":363636,"SoundDuration":363636,"Delta":237567009},{"NoteNumber":37,"Velocity":25,"Duration":363636,"SoundDuration":363636,"Delta":237930645},{"NoteNumber":66,"Velocity":36,"Duration":2257831,"SoundDuration":2257831,"Delta":238294282},{"NoteNumber":70,"Velocity":44,"Duration":2257831,"SoundDuration":2257831,"Delta":238294282},{"NoteNumber":37,"Velocity":28,"Duration":363636,"SoundDuration":363636,"Delta":238294282},{"NoteNumber":44,"Velocity":25,"Duration":363636,"SoundDuration":363636,"Delta":238657918},{"NoteNumber":60,"Velocity":31,"Duration":363636,"SoundDuration":363636,"Delta":239021554},{"NoteNumber":72,"Velocity":38,"Duration":2366922,"SoundDuration":2366922,"Delta":239385191},{"NoteNumber":75,"Velocity":45,"Duration":2366922,"SoundDuration":2366922,"Delta":239385191},{"NoteNumber":51,"Velocity":25,"Duration":376493,"SoundDuration":376493,"Delta":239385191},{"NoteNumber":44,"Velocity":25,"Duration":388367,"SoundDuration":388367,"Delta":239761684},{"NoteNumber":37,"Velocity":25,"Duration":402060,"SoundDuration":402060,"Delta":240150052},{"NoteNumber":65,"Velocity":36,"Duration":2338735,"SoundDuration":2338735,"Delta":240552113},{"NoteNumber":68,"Velocity":43,"Duration":2338735,"SoundDuration":2338735,"Delta":240552113},{"NoteNumber":37,"Velocity":33,"Duration":400000,"SoundDuration":400000,"Delta":240552113},{"NoteNumber":44,"Velocity":24,"Duration":400000,"SoundDuration":400000,"Delta":240952113},{"NoteNumber":58,"Velocity":29,"Duration":399999,"SoundDuration":399999,"Delta":241352113},{"NoteNumber":70,"Velocity":37,"Duration":2277471,"SoundDuration":2277471,"Delta":241752113},{"NoteNumber":73,"Velocity":45,"Duration":2277471,"SoundDuration":2277471,"Delta":241752113},{"NoteNumber":49,"Velocity":23,"Duration":379578,"SoundDuration":379578,"Delta":241752113},{"NoteNumber":44,"Velocity":23,"Duration":379578,"SoundDuration":379578,"Delta":242131691},{"NoteNumber":37,"Velocity":23,"Duration":379578,"SoundDuration":379578,"Delta":242511270},{"NoteNumber":66,"Velocity":42,"Duration":1138735,"SoundDuration":1138735,"Delta":242890849},{"NoteNumber":63,"Velocity":35,"Duration":2378663,"SoundDuration":2378663,"Delta":242890849},{"NoteNumber":37,"Velocity":26,"Duration":379578,"SoundDuration":379578,"Delta":242890849},{"NoteNumber":44,"Velocity":24,"Duration":379578,"SoundDuration":379578,"Delta":243270427},{"NoteNumber":56,"Velocity":28,"Duration":379578,"SoundDuration":379578,"Delta":243650006},{"NoteNumber":68,"Velocity":36,"Duration":885652,"SoundDuration":885652,"Delta":244029585},{"NoteNumber":72,"Velocity":43,"Duration":885652,"SoundDuration":885652,"Delta":244029585},{"NoteNumber":48,"Velocity":23,"Duration":393623,"SoundDuration":393623,"Delta":244029585},{"NoteNumber":44,"Velocity":23,"Duration":393623,"SoundDuration":393623,"Delta":244423208},{"NoteNumber":37,"Velocity":23,"Duration":452680,"SoundDuration":452680,"Delta":244816831},{"NoteNumber":66,"Velocity":34,"Duration":354275,"SoundDuration":354275,"Delta":244915237},{"NoteNumber":70,"Velocity":40,"Duration":354275,"SoundDuration":354275,"Delta":244915237},{"NoteNumber":65,"Velocity":35,"Duration":5344209,"SoundDuration":5344209,"Delta":245269512},{"NoteNumber":68,"Velocity":42,"Duration":5344209,"SoundDuration":5344209,"Delta":245269512},{"NoteNumber":37,"Velocity":31,"Duration":476190,"SoundDuration":476190,"Delta":245269512},{"NoteNumber":44,"Velocity":22,"Duration":412371,"SoundDuration":412371,"Delta":245745703},{"NoteNumber":56,"Velocity":27,"Duration":412370,"SoundDuration":412370,"Delta":246158074},{"NoteNumber":49,"Velocity":22,"Duration":412371,"SoundDuration":412371,"Delta":246570445},{"NoteNumber":44,"Velocity":22,"Duration":412371,"SoundDuration":412371,"Delta":246982816},{"NoteNumber":37,"Velocity":22,"Duration":411465,"SoundDuration":411465,"Delta":247395187},{"NoteNumber":44,"Velocity":31,"Duration":437747,"SoundDuration":437747,"Delta":247806652},{"NoteNumber":49,"Velocity":26,"Duration":436119,"SoundDuration":436119,"Delta":248244399},{"NoteNumber":56,"Velocity":28,"Duration":454765,"SoundDuration":454765,"Delta":248680518},{"NoteNumber":49,"Velocity":30,"Duration":475076,"SoundDuration":475076,"Delta":249135284},{"NoteNumber":44,"Velocity":32,"Duration":497288,"SoundDuration":497288,"Delta":249610361},{"NoteNumber":37,"Velocity":35,"Duration":506073,"SoundDuration":506073,"Delta":250107649},{"NoteNumber":61,"Velocity":50,"Duration":1591149,"SoundDuration":1591149,"Delta":250613722},{"NoteNumber":68,"Velocity":50,"Duration":3153368,"SoundDuration":3153368,"Delta":250613722},{"NoteNumber":70,"Velocity":59,"Duration":3153368,"SoundDuration":3153368,"Delta":250613722},{"NoteNumber":42,"Velocity":42,"Duration":597014,"SoundDuration":597014,"Delta":250613722},{"NoteNumber":49,"Velocity":30,"Duration":487805,"SoundDuration":487805,"Delta":251210737},{"NoteNumber":61,"Velocity":31,"Duration":2068548,"SoundDuration":2068548,"Delta":251698542},{"NoteNumber":54,"Velocity":33,"Duration":506328,"SoundDuration":506328,"Delta":252204871},{"NoteNumber":49,"Velocity":35,"Duration":500334,"SoundDuration":500334,"Delta":252711200},{"NoteNumber":42,"Velocity":36,"Duration":555555,"SoundDuration":555555,"Delta":253211535},{"NoteNumber":61,"Velocity":56,"Duration":1677931,"SoundDuration":1677931,"Delta":253767090},{"NoteNumber":66,"Velocity":56,"Duration":4177931,"SoundDuration":4177931,"Delta":253767090},{"NoteNumber":70,"Velocity":66,"Duration":4177931,"SoundDuration":4177931,"Delta":253767090},{"NoteNumber":30,"Velocity":44,"Duration":588235,"SoundDuration":588235,"Delta":253767090},{"NoteNumber":49,"Velocity":37,"Duration":526315,"SoundDuration":526315,"Delta":254355326},{"NoteNumber":61,"Velocity":37,"Duration":3063380,"SoundDuration":3063380,"Delta":254881641},{"NoteNumber":54,"Velocity":37,"Duration":666666,"SoundDuration":666666,"Delta":255445022},{"NoteNumber":49,"Velocity":37,"Duration":833333,"SoundDuration":833333,"Delta":256111688},{"NoteNumber":42,"Velocity":37,"Duration":1000000,"SoundDuration":1000000,"Delta":256945022},{"NoteNumber":66,"Velocity":56,"Duration":4763155,"SoundDuration":4763155,"Delta":257945022},{"NoteNumber":68,"Velocity":56,"Duration":8006398,"SoundDuration":8006398,"Delta":257945022},{"NoteNumber":73,"Velocity":66,"Duration":8006398,"SoundDuration":8006398,"Delta":257945022},{"NoteNumber":25,"Velocity":55,"Duration":454545,"SoundDuration":454545,"Delta":257945022},{"NoteNumber":37,"Velocity":44,"Duration":344827,"SoundDuration":344827,"Delta":258854113},{"NoteNumber":44,"Velocity":46,"Duration":344827,"SoundDuration":344827,"Delta":259543768},{"NoteNumber":49,"Velocity":48,"Duration":337619,"SoundDuration":337619,"Delta":260233423},{"NoteNumber":56,"Velocity":50,"Duration":388532,"SoundDuration":388532,"Delta":260931549},{"NoteNumber":61,"Velocity":51,"Duration":460074,"SoundDuration":460074,"Delta":261741368},{"NoteNumber":65,"Velocity":58,"Duration":3243243,"SoundDuration":3243243,"Delta":262708177},{"NoteNumber":44,"Velocity":22,"Duration":14950558,"SoundDuration":14950558,"Delta":265951420},{"NoteNumber":49,"Velocity":22,"Duration":14950558,"SoundDuration":14950558,"Delta":265951420},{"NoteNumber":53,"Velocity":22,"Duration":14950558,"SoundDuration":14950558,"Delta":265951420},{"NoteNumber":56,"Velocity":27,"Duration":14950558,"SoundDuration":14950558,"Delta":265951420},{"NoteNumber":65,"Velocity":33,"Duration":11707315,"SoundDuration":11707315,"Delta":269194663},{"NoteNumber":61,"Velocity":27,"Duration":11707315,"SoundDuration":11707315,"Delta":269194663},{"NoteNumber":37,"Velocity":25,"Duration":11707315,"SoundDuration":11707315,"Delta":269194663}],"license":{"name":"Creative Commons Attribution-ShareAlike 3.0 Germany","url":"http://creativecommons.org/licenses/by-sa/3.0/de/deed.en","text":"The MIDI files in this folder were downloaded from http://www.piano-midi.de and are licensed under the Creative Commons Attribution-ShareAlike 3.0 Germany license by Bernd Krueger.\n\nThe MIDI, audio(MP3, OGG) and video files of Bernd Krueger are licensed under the cc-by-sa Germany License . This means, that you can use and adapt the files, as long as you attribute to the copyright holder Name: Bernd Krueger Source: http://www.piano-midi.de The distribution or public playback of the files is only allowed under identical license conditions . The scores are open source.","attribution":"Bernd Krueger","attributionUrl":"http://www.piano-midi.de"}}