{"title":"Prelude in F-sharp minor, Op. 28 No. 8","artist":"Chopin","durationMs":88651,"midiSha256":"ad6515abdff082f095bdea13cc93c6ab1ac426d45fb41b6f7d59f1f7012d76be","midiObject":[{"NoteNumber":61,"Velocity":77,"Duration":494537,"SoundDuration":494537,"Delta":0},{"NoteNumber":57,"Velocity":44,"Duration":111111,"SoundDuration":111111,"Delta":0},{"NoteNumber":73,"Velocity":53,"Duration":83026,"SoundDuration":83026,"Delta":83333},{"NoteNumber":49,"Velocity":37,"Duration":110345,"SoundDuration":110345,"Delta":111111},{"NoteNumber":68,"Velocity":61,"Duration":82569,"SoundDuration":82569,"Delta":166359},{"NoteNumber":54,"Velocity":39,"Duration":109740,"SoundDuration":109740,"Delta":221456},{"NoteNumber":71,"Velocity":51,"Duration":82267,"SoundDuration":82267,"Delta":248929},{"NoteNumber":69,"Velocity":55,"Duration":81818,"SoundDuration":81818,"Delta":331196},{"NoteNumber":42,"Velocity":34,"Duration":325066,"SoundDuration":325066,"Delta":331196},{"NoteNumber":66,"Velocity":46,"Duration":81521,"SoundDuration":81521,"Delta":413015},{"NoteNumber":62,"Velocity":59,"Duration":161726,"SoundDuration":161726,"Delta":494537},{"NoteNumber":74,"Velocity":48,"Duration":80645,"SoundDuration":80645,"Delta":575618},{"NoteNumber":61,"Velocity":73,"Duration":476218,"SoundDuration":476218,"Delta":656263},{"NoteNumber":57,"Velocity":47,"Duration":106951,"SoundDuration":106951,"Delta":656263},{"NoteNumber":73,"Velocity":50,"Duration":79929,"SoundDuration":79929,"Delta":736477},{"NoteNumber":49,"Velocity":40,"Duration":106242,"SoundDuration":106242,"Delta":763215},{"NoteNumber":68,"Velocity":63,"Duration":79505,"SoundDuration":79505,"Delta":816406},{"NoteNumber":54,"Velocity":44,"Duration":105680,"SoundDuration":105680,"Delta":869457},{"NoteNumber":71,"Velocity":53,"Duration":79225,"SoundDuration":79225,"Delta":895912},{"NoteNumber":69,"Velocity":57,"Duration":78809,"SoundDuration":78809,"Delta":975138},{"NoteNumber":45,"Velocity":37,"Duration":313188,"SoundDuration":313188,"Delta":975138},{"NoteNumber":68,"Velocity":44,"Duration":78534,"SoundDuration":78534,"Delta":1053948},{"NoteNumber":66,"Velocity":74,"Duration":155845,"SoundDuration":155845,"Delta":1132482},{"NoteNumber":78,"Velocity":53,"Duration":77720,"SoundDuration":77720,"Delta":1210607},{"NoteNumber":66,"Velocity":89,"Duration":464864,"SoundDuration":464864,"Delta":1288327},{"NoteNumber":62,"Velocity":57,"Duration":102564,"SoundDuration":102564,"Delta":1288327},{"NoteNumber":78,"Velocity":53,"Duration":77055,"SoundDuration":77055,"Delta":1365250},{"NoteNumber":56,"Velocity":49,"Duration":102960,"SoundDuration":102960,"Delta":1390891},{"NoteNumber":70,"Velocity":64,"Duration":77319,"SoundDuration":77319,"Delta":1442305},{"NoteNumber":59,"Velocity":52,"Duration":103359,"SoundDuration":103359,"Delta":1493852},{"NoteNumber":73,"Velocity":52,"Duration":77586,"SoundDuration":77586,"Delta":1519625},{"NoteNumber":71,"Velocity":58,"Duration":77855,"SoundDuration":77855,"Delta":1597211},{"NoteNumber":50,"Velocity":45,"Duration":313187,"SoundDuration":313187,"Delta":1597211},{"NoteNumber":68,"Velocity":46,"Duration":78125,"SoundDuration":78125,"Delta":1675067},{"NoteNumber":65,"Velocity":62,"Duration":157207,"SoundDuration":157207,"Delta":1753192},{"NoteNumber":77,"Velocity":50,"Duration":78809,"SoundDuration":78809,"Delta":1831589},{"NoteNumber":69,"Velocity":82,"Duration":480898,"SoundDuration":480898,"Delta":1910399},{"NoteNumber":61,"Velocity":53,"Duration":105541,"SoundDuration":105541,"Delta":1910399},{"NoteNumber":81,"Velocity":45,"Duration":79505,"SoundDuration":79505,"Delta":1989486},{"NoteNumber":53,"Velocity":42,"Duration":106242,"SoundDuration":106242,"Delta":2015941},{"NoteNumber":72,"Velocity":60,"Duration":79929,"SoundDuration":79929,"Delta":2068991},{"NoteNumber":59,"Velocity":50,"Duration":107095,"SoundDuration":107095,"Delta":2122183},{"NoteNumber":74,"Velocity":45,"Duration":80357,"SoundDuration":80357,"Delta":2148921},{"NoteNumber":73,"Velocity":52,"Duration":80790,"SoundDuration":80790,"Delta":2229278},{"NoteNumber":49,"Velocity":39,"Duration":324929,"SoundDuration":324929,"Delta":2229278},{"NoteNumber":71,"Velocity":44,"Duration":81227,"SoundDuration":81227,"Delta":2310069},{"NoteNumber":68,"Velocity":52,"Duration":162910,"SoundDuration":162910,"Delta":2391297},{"NoteNumber":80,"Velocity":48,"Duration":81240,"SoundDuration":81240,"Delta":2472967},{"NoteNumber":61,"Velocity":80,"Duration":476199,"SoundDuration":476199,"Delta":2554208},{"NoteNumber":57,"Velocity":53,"Duration":106383,"SoundDuration":106383,"Delta":2554208},{"NoteNumber":73,"Velocity":56,"Duration":79787,"SoundDuration":79787,"Delta":2633995},{"NoteNumber":49,"Velocity":39,"Duration":106101,"SoundDuration":106101,"Delta":2660591},{"NoteNumber":68,"Velocity":65,"Duration":79365,"SoundDuration":79365,"Delta":2713782},{"NoteNumber":54,"Velocity":48,"Duration":105820,"SoundDuration":105820,"Delta":2766692},{"NoteNumber":71,"Velocity":44,"Duration":79365,"SoundDuration":79365,"Delta":2793147},{"NoteNumber":69,"Velocity":56,"Duration":78947,"SoundDuration":78947,"Delta":2872512},{"NoteNumber":42,"Velocity":36,"Duration":314962,"SoundDuration":314962,"Delta":2872512},{"NoteNumber":66,"Velocity":45,"Duration":78947,"SoundDuration":78947,"Delta":2951460},{"NoteNumber":62,"Velocity":52,"Duration":157068,"SoundDuration":157068,"Delta":3030407},{"NoteNumber":74,"Velocity":48,"Duration":78534,"SoundDuration":78534,"Delta":3108941},{"NoteNumber":61,"Velocity":75,"Duration":466329,"SoundDuration":466329,"Delta":3187475},{"NoteNumber":57,"Velocity":51,"Duration":104166,"SoundDuration":104166,"Delta":3187475},{"NoteNumber":73,"Velocity":53,"Duration":78125,"SoundDuration":78125,"Delta":3265600},{"NoteNumber":49,"Velocity":38,"Duration":103896,"SoundDuration":103896,"Delta":3291642},{"NoteNumber":68,"Velocity":65,"Duration":77720,"SoundDuration":77720,"Delta":3343725},{"NoteNumber":54,"Velocity":46,"Duration":103626,"SoundDuration":103626,"Delta":3395539},{"NoteNumber":71,"Velocity":52,"Duration":77720,"SoundDuration":77720,"Delta":3421446},{"NoteNumber":69,"Velocity":59,"Duration":77319,"SoundDuration":77319,"Delta":3499166},{"NoteNumber":45,"Velocity":36,"Duration":308485,"SoundDuration":308485,"Delta":3499166},{"NoteNumber":68,"Velocity":52,"Duration":77319,"SoundDuration":77319,"Delta":3576485},{"NoteNumber":66,"Velocity":73,"Duration":153846,"SoundDuration":153846,"Delta":3653805},{"NoteNumber":78,"Velocity":52,"Duration":76923,"SoundDuration":76923,"Delta":3730728},{"NoteNumber":66,"Velocity":83,"Duration":459848,"SoundDuration":459848,"Delta":3807651},{"NoteNumber":62,"Velocity":57,"Duration":101781,"SoundDuration":101781,"Delta":3807651},{"NoteNumber":78,"Velocity":60,"Duration":76142,"SoundDuration":76142,"Delta":3884052},{"NoteNumber":56,"Velocity":45,"Duration":101652,"SoundDuration":101652,"Delta":3909433},{"NoteNumber":70,"Velocity":69,"Duration":76401,"SoundDuration":76401,"Delta":3960194},{"NoteNumber":59,"Velocity":51,"Duration":102171,"SoundDuration":102171,"Delta":4011085},{"NoteNumber":73,"Velocity":48,"Duration":76661,"SoundDuration":76661,"Delta":4036596},{"NoteNumber":71,"Velocity":62,"Duration":76923,"SoundDuration":76923,"Delta":4113257},{"NoteNumber":50,"Velocity":41,"Duration":309684,"SoundDuration":309684,"Delta":4113257},{"NoteNumber":68,"Velocity":46,"Duration":77319,"SoundDuration":77319,"Delta":4190180},{"NoteNumber":65,"Velocity":73,"Duration":155441,"SoundDuration":155441,"Delta":4267500},{"NoteNumber":77,"Velocity":55,"Duration":77855,"SoundDuration":77855,"Delta":4345087},{"NoteNumber":69,"Velocity":83,"Duration":473707,"SoundDuration":473707,"Delta":4422942},{"NoteNumber":61,"Velocity":50,"Duration":104302,"SoundDuration":104302,"Delta":4422942},{"NoteNumber":81,"Velocity":55,"Duration":78534,"SoundDuration":78534,"Delta":4501067},{"NoteNumber":53,"Velocity":41,"Duration":104849,"SoundDuration":104849,"Delta":4527245},{"NoteNumber":72,"Velocity":65,"Duration":78809,"SoundDuration":78809,"Delta":4579601},{"NoteNumber":59,"Velocity":44,"Duration":105402,"SoundDuration":105402,"Delta":4632095},{"NoteNumber":74,"Velocity":53,"Duration":79086,"SoundDuration":79086,"Delta":4658410},{"NoteNumber":73,"Velocity":60,"Duration":79365,"SoundDuration":79365,"Delta":4737497},{"NoteNumber":49,"Velocity":37,"Duration":317952,"SoundDuration":317952,"Delta":4737497},{"NoteNumber":71,"Velocity":46,"Duration":79787,"SoundDuration":79787,"Delta":4816862},{"NoteNumber":68,"Velocity":55,"Duration":158800,"SoundDuration":158800,"Delta":4896649},{"NoteNumber":80,"Velocity":52,"Duration":78728,"SoundDuration":78728,"Delta":4976721},{"NoteNumber":73,"Velocity":83,"Duration":456490,"SoundDuration":456490,"Delta":5055449},{"NoteNumber":69,"Velocity":57,"Duration":101957,"SoundDuration":101957,"Delta":5055449},{"NoteNumber":85,"Velocity":55,"Duration":76468,"SoundDuration":76468,"Delta":5131918},{"NoteNumber":63,"Velocity":46,"Duration":101699,"SoundDuration":101699,"Delta":5157407},{"NoteNumber":80,"Velocity":63,"Duration":76080,"SoundDuration":76080,"Delta":5208386},{"NoteNumber":66,"Velocity":55,"Duration":101440,"SoundDuration":101440,"Delta":5259106},{"NoteNumber":83,"Velocity":53,"Duration":76080,"SoundDuration":76080,"Delta":5284466},{"NoteNumber":81,"Velocity":62,"Duration":75696,"SoundDuration":75696,"Delta":5360547},{"NoteNumber":57,"Velocity":49,"Duration":302025,"SoundDuration":302025,"Delta":5360547},{"NoteNumber":78,"Velocity":53,"Duration":75696,"SoundDuration":75696,"Delta":5436243},{"NoteNumber":75,"Velocity":62,"Duration":150632,"SoundDuration":150632,"Delta":5511939},{"NoteNumber":87,"Velocity":57,"Duration":75316,"SoundDuration":75316,"Delta":5587256},{"NoteNumber":73,"Velocity":80,"Duration":447412,"SoundDuration":447412,"Delta":5662572},{"NoteNumber":68,"Velocity":57,"Duration":99920,"SoundDuration":99920,"Delta":5662572},{"NoteNumber":85,"Velocity":51,"Duration":74939,"SoundDuration":74939,"Delta":5737512},{"NoteNumber":63,"Velocity":50,"Duration":99671,"SoundDuration":99671,"Delta":5762492},{"NoteNumber":77,"Velocity":60,"Duration":74567,"SoundDuration":74567,"Delta":5812452},{"NoteNumber":66,"Velocity":57,"Duration":99423,"SoundDuration":99423,"Delta":5862164},{"NoteNumber":80,"Velocity":52,"Duration":74567,"SoundDuration":74567,"Delta":5887020},{"NoteNumber":78,"Velocity":59,"Duration":74198,"SoundDuration":74198,"Delta":5961587},{"NoteNumber":56,"Velocity":46,"Duration":296064,"SoundDuration":296064,"Delta":5961587},{"NoteNumber":74,"Velocity":48,"Duration":74198,"SoundDuration":74198,"Delta":6035786},{"NoteNumber":72,"Velocity":60,"Duration":147666,"SoundDuration":147666,"Delta":6109984},{"NoteNumber":84,"Velocity":55,"Duration":73833,"SoundDuration":73833,"Delta":6183818},{"NoteNumber":71,"Velocity":77,"Duration":443966,"SoundDuration":443966,"Delta":6257651},{"NoteNumber":67,"Velocity":59,"Duration":97661,"SoundDuration":97661,"Delta":6257651},{"NoteNumber":83,"Velocity":46,"Duration":73409,"SoundDuration":73409,"Delta":6330922},{"NoteNumber":61,"Velocity":49,"Duration":98159,"SoundDuration":98159,"Delta":6355312},{"NoteNumber":78,"Velocity":60,"Duration":73770,"SoundDuration":73770,"Delta":6404332},{"NoteNumber":64,"Velocity":57,"Duration":98766,"SoundDuration":98766,"Delta":6453472},{"NoteNumber":81,"Velocity":47,"Duration":74135,"SoundDuration":74135,"Delta":6478103},{"NoteNumber":79,"Velocity":56,"Duration":74503,"SoundDuration":74503,"Delta":6552238},{"NoteNumber":55,"Velocity":44,"Duration":300513,"SoundDuration":300513,"Delta":6552238},{"NoteNumber":76,"Velocity":47,"Duration":74875,"SoundDuration":74875,"Delta":6626742},{"NoteNumber":73,"Velocity":57,"Duration":151134,"SoundDuration":151134,"Delta":6701618},{"NoteNumber":85,"Velocity":55,"Duration":75757,"SoundDuration":75757,"Delta":6776995},{"NoteNumber":71,"Velocity":73,"Duration":463297,"SoundDuration":463297,"Delta":6852752},{"NoteNumber":66,"Velocity":57,"Duration":101652,"SoundDuration":101652,"Delta":6852752},{"NoteNumber":83,"Velocity":45,"Duration":76530,"SoundDuration":76530,"Delta":6928894},{"NoteNumber":61,"Velocity":47,"Duration":102302,"SoundDuration":102302,"Delta":6954405},{"NoteNumber":75,"Velocity":51,"Duration":77055,"SoundDuration":77055,"Delta":7005425},{"NoteNumber":64,"Velocity":53,"Duration":103226,"SoundDuration":103226,"Delta":7056707},{"NoteNumber":78,"Velocity":45,"Duration":77453,"SoundDuration":77453,"Delta":7082480},{"NoteNumber":76,"Velocity":52,"Duration":77855,"SoundDuration":77855,"Delta":7159933},{"NoteNumber":54,"Velocity":46,"Duration":313332,"SoundDuration":313332,"Delta":7159933},{"NoteNumber":73,"Velocity":47,"Duration":78261,"SoundDuration":78261,"Delta":7237789},{"NoteNumber":70,"Velocity":57,"Duration":157215,"SoundDuration":157215,"Delta":7316050},{"NoteNumber":82,"Velocity":50,"Duration":78544,"SoundDuration":78544,"Delta":7394722},{"NoteNumber":69,"Velocity":75,"Duration":479576,"SoundDuration":479576,"Delta":7473266},{"NoteNumber":65,"Velocity":58,"Duration":106383,"SoundDuration":106383,"Delta":7473266},{"NoteNumber":81,"Velocity":51,"Duration":79787,"SoundDuration":79787,"Delta":7553053},{"NoteNumber":60,"Velocity":49,"Duration":106383,"SoundDuration":106383,"Delta":7579649},{"NoteNumber":74,"Velocity":60,"Duration":79787,"SoundDuration":79787,"Delta":7632840},{"NoteNumber":63,"Velocity":55,"Duration":106383,"SoundDuration":106383,"Delta":7686032},{"NoteNumber":77,"Velocity":44,"Duration":79787,"SoundDuration":79787,"Delta":7712628},{"NoteNumber":75,"Velocity":51,"Duration":80213,"SoundDuration":80213,"Delta":7792415},{"NoteNumber":53,"Velocity":45,"Duration":320855,"SoundDuration":320855,"Delta":7792415},{"NoteNumber":72,"Velocity":44,"Duration":80213,"SoundDuration":80213,"Delta":7872629},{"NoteNumber":71,"Velocity":59,"Duration":160427,"SoundDuration":160427,"Delta":7952843},{"NoteNumber":83,"Velocity":48,"Duration":80213,"SoundDuration":80213,"Delta":8033056},{"NoteNumber":69,"Velocity":73,"Duration":484742,"SoundDuration":484742,"Delta":8113270},{"NoteNumber":65,"Velocity":55,"Duration":107526,"SoundDuration":107526,"Delta":8113270},{"NoteNumber":81,"Velocity":45,"Duration":80645,"SoundDuration":80645,"Delta":8193915},{"NoteNumber":59,"Velocity":48,"Duration":107526,"SoundDuration":107526,"Delta":8220797},{"NoteNumber":73,"Velocity":50,"Duration":80645,"SoundDuration":80645,"Delta":8274561},{"NoteNumber":62,"Velocity":52,"Duration":107526,"SoundDuration":107526,"Delta":8328324},{"NoteNumber":76,"Velocity":42,"Duration":80645,"SoundDuration":80645,"Delta":8355206},{"NoteNumber":74,"Velocity":48,"Duration":81081,"SoundDuration":81081,"Delta":8435851},{"NoteNumber":53,"Velocity":46,"Duration":324179,"SoundDuration":324179,"Delta":8435851},{"NoteNumber":71,"Velocity":42,"Duration":81081,"SoundDuration":81081,"Delta":8516932},{"NoteNumber":68,"Velocity":59,"Duration":162016,"SoundDuration":162016,"Delta":8598013},{"NoteNumber":80,"Velocity":47,"Duration":80935,"SoundDuration":80935,"Delta":8679094},{"NoteNumber":66,"Velocity":74,"Duration":507476,"SoundDuration":507476,"Delta":8760030},{"NoteNumber":62,"Velocity":57,"Duration":108405,"SoundDuration":108405,"Delta":8760030},{"NoteNumber":78,"Velocity":42,"Duration":82419,"SoundDuration":82419,"Delta":8841113},{"NoteNumber":56,"Velocity":51,"Duration":110807,"SoundDuration":110807,"Delta":8868435},{"NoteNumber":70,"Velocity":48,"Duration":83800,"SoundDuration":83800,"Delta":8923532},{"NoteNumber":59,"Velocity":53,"Duration":113318,"SoundDuration":113318,"Delta":8979243},{"NoteNumber":73,"Velocity":42,"Duration":85229,"SoundDuration":85229,"Delta":9007333},{"NoteNumber":71,"Velocity":47,"Duration":86707,"SoundDuration":86707,"Delta":9092562},{"NoteNumber":50,"Velocity":48,"Duration":356232,"SoundDuration":356232,"Delta":9092562},{"NoteNumber":68,"Velocity":38,"Duration":88237,"SoundDuration":88237,"Delta":9179269},{"NoteNumber":65,"Velocity":57,"Duration":181288,"SoundDuration":181288,"Delta":9267506},{"NoteNumber":77,"Velocity":45,"Duration":91465,"SoundDuration":91465,"Delta":9357329},{"NoteNumber":62,"Velocity":72,"Duration":586990,"SoundDuration":586990,"Delta":9448794},{"NoteNumber":59,"Velocity":58,"Duration":124616,"SoundDuration":124616,"Delta":9448794},{"NoteNumber":74,"Velocity":37,"Duration":94939,"SoundDuration":94939,"Delta":9541964},{"NoteNumber":49,"Velocity":46,"Duration":127802,"SoundDuration":127802,"Delta":9573411},{"NoteNumber":67,"Velocity":47,"Duration":96776,"SoundDuration":96776,"Delta":9636904},{"NoteNumber":53,"Velocity":51,"Duration":131154,"SoundDuration":131154,"Delta":9701213},{"NoteNumber":69,"Velocity":37,"Duration":98687,"SoundDuration":98687,"Delta":9733681},{"NoteNumber":68,"Velocity":46,"Duration":100674,"SoundDuration":100674,"Delta":9832368},{"NoteNumber":37,"Velocity":42,"Duration":413274,"SoundDuration":413274,"Delta":9832368},{"NoteNumber":65,"Velocity":36,"Duration":102742,"SoundDuration":102742,"Delta":9933042},{"NoteNumber":61,"Velocity":63,"Duration":209857,"SoundDuration":209857,"Delta":10035785},{"NoteNumber":73,"Velocity":42,"Duration":104959,"SoundDuration":104959,"Delta":10140683},{"NoteNumber":61,"Velocity":84,"Duration":437871,"SoundDuration":437871,"Delta":10245642},{"NoteNumber":57,"Velocity":56,"Duration":98401,"SoundDuration":98401,"Delta":10245642},{"NoteNumber":73,"Velocity":54,"Duration":73529,"SoundDuration":73529,"Delta":10319534},{"NoteNumber":49,"Velocity":44,"Duration":97800,"SoundDuration":97800,"Delta":10344044},{"NoteNumber":68,"Velocity":62,"Duration":73170,"SoundDuration":73170,"Delta":10393063},{"NoteNumber":54,"Velocity":50,"Duration":97205,"SoundDuration":97205,"Delta":10441844},{"NoteNumber":71,"Velocity":46,"Duration":72815,"SoundDuration":72815,"Delta":10466234},{"NoteNumber":69,"Velocity":53,"Duration":72463,"SoundDuration":72463,"Delta":10539050},{"NoteNumber":42,"Velocity":38,"Duration":287436,"SoundDuration":287436,"Delta":10539050},{"NoteNumber":66,"Velocity":37,"Duration":72000,"SoundDuration":72000,"Delta":10611513},{"NoteNumber":62,"Velocity":63,"Duration":142972,"SoundDuration":142972,"Delta":10683514},{"NoteNumber":74,"Velocity":40,"Duration":71315,"SoundDuration":71315,"Delta":10755170},{"NoteNumber":61,"Velocity":75,"Duration":420594,"SoundDuration":420594,"Delta":10826486},{"NoteNumber":57,"Velocity":59,"Duration":94563,"SoundDuration":94563,"Delta":10826486},{"NoteNumber":73,"Velocity":46,"Duration":70643,"SoundDuration":70643,"Delta":10897464},{"NoteNumber":49,"Velocity":49,"Duration":94007,"SoundDuration":94007,"Delta":10921049},{"NoteNumber":68,"Velocity":57,"Duration":70312,"SoundDuration":70312,"Delta":10968108},{"NoteNumber":54,"Velocity":53,"Duration":93240,"SoundDuration":93240,"Delta":11015056},{"NoteNumber":71,"Velocity":38,"Duration":69876,"SoundDuration":69876,"Delta":11038421},{"NoteNumber":69,"Velocity":47,"Duration":69552,"SoundDuration":69552,"Delta":11108297},{"NoteNumber":45,"Velocity":45,"Duration":276398,"SoundDuration":276398,"Delta":11108297},{"NoteNumber":68,"Velocity":38,"Duration":69231,"SoundDuration":69231,"Delta":11177849},{"NoteNumber":66,"Velocity":71,"Duration":137615,"SoundDuration":137615,"Delta":11247080},{"NoteNumber":78,"Velocity":46,"Duration":68702,"SoundDuration":68702,"Delta":11315993},{"NoteNumber":66,"Velocity":84,"Duration":425447,"SoundDuration":425447,"Delta":11384696},{"NoteNumber":62,"Velocity":60,"Duration":92273,"SoundDuration":92273,"Delta":11384696},{"NoteNumber":78,"Velocity":55,"Duration":69768,"SoundDuration":69768,"Delta":11453821},{"NoteNumber":56,"Velocity":49,"Duration":93568,"SoundDuration":93568,"Delta":11476970},{"NoteNumber":70,"Velocity":64,"Duration":70533,"SoundDuration":70533,"Delta":11523590},{"NoteNumber":59,"Velocity":55,"Duration":94787,"SoundDuration":94787,"Delta":11570538},{"NoteNumber":73,"Velocity":44,"Duration":71202,"SoundDuration":71202,"Delta":11594123},{"NoteNumber":71,"Velocity":51,"Duration":72000,"SoundDuration":72000,"Delta":11665326},{"NoteNumber":50,"Velocity":44,"Duration":292606,"SoundDuration":292606,"Delta":11665326},{"NoteNumber":68,"Velocity":42,"Duration":72816,"SoundDuration":72816,"Delta":11737326},{"NoteNumber":65,"Velocity":59,"Duration":147789,"SoundDuration":147789,"Delta":11810143},{"NoteNumber":77,"Velocity":48,"Duration":74258,"SoundDuration":74258,"Delta":11883674},{"NoteNumber":69,"Velocity":77,"Duration":463427,"SoundDuration":463427,"Delta":11957932},{"NoteNumber":61,"Velocity":56,"Duration":100378,"SoundDuration":100378,"Delta":11957932},{"NoteNumber":81,"Velocity":49,"Duration":75885,"SoundDuration":75885,"Delta":12033058},{"NoteNumber":53,"Velocity":39,"Duration":101784,"SoundDuration":101784,"Delta":12058311},{"NoteNumber":72,"Velocity":56,"Duration":76792,"SoundDuration":76792,"Delta":12108944},{"NoteNumber":59,"Velocity":48,"Duration":103362,"SoundDuration":103362,"Delta":12160095},{"NoteNumber":74,"Velocity":44,"Duration":77721,"SoundDuration":77721,"Delta":12185736},{"NoteNumber":73,"Velocity":48,"Duration":78535,"SoundDuration":78535,"Delta":12263458},{"NoteNumber":49,"Velocity":37,"Duration":319634,"SoundDuration":319634,"Delta":12263458},{"NoteNumber":71,"Velocity":38,"Duration":79366,"SoundDuration":79366,"Delta":12341993},{"NoteNumber":68,"Velocity":56,"Duration":161732,"SoundDuration":161732,"Delta":12421360},{"NoteNumber":80,"Velocity":45,"Duration":81374,"SoundDuration":81374,"Delta":12501717},{"NoteNumber":61,"Velocity":81,"Duration":420150,"SoundDuration":420150,"Delta":12583092},{"NoteNumber":57,"Velocity":58,"Duration":93252,"SoundDuration":93252,"Delta":12583092},{"NoteNumber":73,"Velocity":52,"Duration":70754,"SoundDuration":70754,"Delta":12652760},{"NoteNumber":49,"Velocity":40,"Duration":94118,"SoundDuration":94118,"Delta":12676345},{"NoteNumber":68,"Velocity":59,"Duration":70422,"SoundDuration":70422,"Delta":12723515},{"NoteNumber":54,"Velocity":50,"Duration":93567,"SoundDuration":93567,"Delta":12770463},{"NoteNumber":71,"Velocity":37,"Duration":70093,"SoundDuration":70093,"Delta":12793937},{"NoteNumber":69,"Velocity":53,"Duration":69767,"SoundDuration":69767,"Delta":12864031},{"NoteNumber":42,"Velocity":40,"Duration":277143,"SoundDuration":277143,"Delta":12864031},{"NoteNumber":66,"Velocity":40,"Duration":69444,"SoundDuration":69444,"Delta":12933798},{"NoteNumber":62,"Velocity":58,"Duration":137931,"SoundDuration":137931,"Delta":13003243},{"NoteNumber":74,"Velocity":45,"Duration":68807,"SoundDuration":68807,"Delta":13072367},{"NoteNumber":61,"Velocity":75,"Duration":406344,"SoundDuration":406344,"Delta":13141175},{"NoteNumber":57,"Velocity":57,"Duration":91220,"SoundDuration":91220,"Delta":13141175},{"NoteNumber":73,"Velocity":42,"Duration":68181,"SoundDuration":68181,"Delta":13209668},{"NoteNumber":49,"Velocity":40,"Duration":90703,"SoundDuration":90703,"Delta":13232395},{"NoteNumber":68,"Velocity":48,"Duration":67873,"SoundDuration":67873,"Delta":13277850},{"NoteNumber":54,"Velocity":48,"Duration":90192,"SoundDuration":90192,"Delta":13323098},{"NoteNumber":71,"Velocity":42,"Duration":67567,"SoundDuration":67567,"Delta":13345723},{"NoteNumber":69,"Velocity":48,"Duration":67264,"SoundDuration":67264,"Delta":13413290},{"NoteNumber":45,"Velocity":39,"Duration":267169,"SoundDuration":267169,"Delta":13413290},{"NoteNumber":68,"Velocity":42,"Duration":66964,"SoundDuration":66964,"Delta":13480555},{"NoteNumber":66,"Velocity":71,"Duration":132940,"SoundDuration":132940,"Delta":13547519},{"NoteNumber":81,"Velocity":48,"Duration":66274,"SoundDuration":66274,"Delta":13614186},{"NoteNumber":69,"Velocity":85,"Duration":412206,"SoundDuration":412206,"Delta":13680460},{"NoteNumber":65,"Velocity":60,"Duration":88302,"SoundDuration":88302,"Delta":13680460},{"NoteNumber":81,"Velocity":50,"Duration":66965,"SoundDuration":66965,"Delta":13746540},{"NoteNumber":59,"Velocity":42,"Duration":90094,"SoundDuration":90094,"Delta":13768762},{"NoteNumber":73,"Velocity":59,"Duration":68182,"SoundDuration":68182,"Delta":13813505},{"NoteNumber":62,"Velocity":49,"Duration":91956,"SoundDuration":91956,"Delta":13858857},{"NoteNumber":76,"Velocity":46,"Duration":69125,"SoundDuration":69125,"Delta":13881688},{"NoteNumber":74,"Velocity":51,"Duration":70423,"SoundDuration":70423,"Delta":13950814},{"NoteNumber":53,"Velocity":41,"Duration":288685,"SoundDuration":288685,"Delta":13950814},{"NoteNumber":71,"Velocity":42,"Duration":71429,"SoundDuration":71429,"Delta":14021237},{"NoteNumber":68,"Velocity":58,"Duration":146832,"SoundDuration":146832,"Delta":14092667},{"NoteNumber":80,"Velocity":48,"Duration":74015,"SoundDuration":74015,"Delta":14165483},{"NoteNumber":73,"Velocity":83,"Duration":473332,"SoundDuration":473332,"Delta":14239499},{"NoteNumber":64,"Velocity":58,"Duration":100758,"SoundDuration":100758,"Delta":14239499},{"NoteNumber":85,"Velocity":46,"Duration":76664,"SoundDuration":76664,"Delta":14314878},{"NoteNumber":56,"Velocity":44,"Duration":103231,"SoundDuration":103231,"Delta":14340258},{"NoteNumber":75,"Velocity":55,"Duration":78126,"SoundDuration":78126,"Delta":14391542},{"NoteNumber":62,"Velocity":50,"Duration":105686,"SoundDuration":105686,"Delta":14443490},{"NoteNumber":78,"Velocity":47,"Duration":79508,"SoundDuration":79508,"Delta":14469668},{"NoteNumber":76,"Velocity":55,"Duration":81082,"SoundDuration":81082,"Delta":14549177},{"NoteNumber":52,"Velocity":42,"Duration":331809,"SoundDuration":331809,"Delta":14549177},{"NoteNumber":74,"Velocity":47,"Duration":82572,"SoundDuration":82572,"Delta":14630260},{"NoteNumber":71,"Velocity":66,"Duration":168154,"SoundDuration":168154,"Delta":14712832},{"NoteNumber":83,"Velocity":51,"Duration":83882,"SoundDuration":83882,"Delta":14797104},{"NoteNumber":76,"Velocity":79,"Duration":435267,"SoundDuration":435267,"Delta":14880986},{"NoteNumber":72,"Velocity":58,"Duration":97561,"SoundDuration":97561,"Delta":14880986},{"NoteNumber":88,"Velocity":56,"Duration":72933,"SoundDuration":72933,"Delta":14954157},{"NoteNumber":66,"Velocity":46,"Duration":97087,"SoundDuration":97087,"Delta":14978547},{"NoteNumber":83,"Velocity":62,"Duration":72698,"SoundDuration":72698,"Delta":15027091},{"NoteNumber":69,"Velocity":50,"Duration":96618,"SoundDuration":96618,"Delta":15075635},{"NoteNumber":86,"Velocity":47,"Duration":72463,"SoundDuration":72463,"Delta":15099789},{"NoteNumber":84,"Velocity":55,"Duration":72115,"SoundDuration":72115,"Delta":15172253},{"NoteNumber":60,"Velocity":42,"Duration":287085,"SoundDuration":287085,"Delta":15172253},{"NoteNumber":81,"Velocity":47,"Duration":71885,"SoundDuration":71885,"Delta":15244368},{"NoteNumber":78,"Velocity":59,"Duration":143085,"SoundDuration":143085,"Delta":15316254},{"NoteNumber":90,"Velocity":51,"Duration":71428,"SoundDuration":71428,"Delta":15387910},{"NoteNumber":76,"Velocity":75,"Duration":422992,"SoundDuration":422992,"Delta":15459339},{"NoteNumber":71,"Velocity":59,"Duration":94786,"SoundDuration":94786,"Delta":15459339},{"NoteNumber":88,"Velocity":51,"Duration":70866,"SoundDuration":70866,"Delta":15530429},{"NoteNumber":66,"Velocity":46,"Duration":94339,"SoundDuration":94339,"Delta":15554126},{"NoteNumber":80,"Velocity":57,"Duration":70643,"SoundDuration":70643,"Delta":15601295},{"NoteNumber":69,"Velocity":50,"Duration":93896,"SoundDuration":93896,"Delta":15648465},{"NoteNumber":83,"Velocity":44,"Duration":70422,"SoundDuration":70422,"Delta":15671939},{"NoteNumber":81,"Velocity":52,"Duration":70093,"SoundDuration":70093,"Delta":15742362},{"NoteNumber":59,"Velocity":41,"Duration":278967,"SoundDuration":278967,"Delta":15742362},{"NoteNumber":78,"Velocity":46,"Duration":69876,"SoundDuration":69876,"Delta":15812455},{"NoteNumber":75,"Velocity":60,"Duration":138997,"SoundDuration":138997,"Delta":15882332},{"NoteNumber":87,"Velocity":50,"Duration":69337,"SoundDuration":69337,"Delta":15951991},{"NoteNumber":74,"Velocity":75,"Duration":421014,"SoundDuration":421014,"Delta":16021329},{"NoteNumber":70,"Velocity":57,"Duration":92808,"SoundDuration":92808,"Delta":16021329},{"NoteNumber":86,"Velocity":44,"Duration":69767,"SoundDuration":69767,"Delta":16090882},{"NoteNumber":65,"Velocity":46,"Duration":93240,"SoundDuration":93240,"Delta":16114138},{"NoteNumber":79,"Velocity":53,"Duration":70093,"SoundDuration":70093,"Delta":16160650},{"NoteNumber":68,"Velocity":51,"Duration":93677,"SoundDuration":93677,"Delta":16207379},{"NoteNumber":82,"Velocity":48,"Duration":70312,"SoundDuration":70312,"Delta":16230743},{"NoteNumber":80,"Velocity":50,"Duration":70533,"SoundDuration":70533,"Delta":16301056},{"NoteNumber":58,"Velocity":44,"Duration":283469,"SoundDuration":283469,"Delta":16301056},{"NoteNumber":77,"Velocity":47,"Duration":70754,"SoundDuration":70754,"Delta":16371589},{"NoteNumber":76,"Velocity":55,"Duration":142181,"SoundDuration":142181,"Delta":16442344},{"NoteNumber":88,"Velocity":47,"Duration":71202,"SoundDuration":71202,"Delta":16513322},{"NoteNumber":74,"Velocity":73,"Duration":432476,"SoundDuration":432476,"Delta":16584525},{"NoteNumber":69,"Velocity":57,"Duration":95352,"SoundDuration":95352,"Delta":16584525},{"NoteNumber":86,"Velocity":42,"Duration":71770,"SoundDuration":71770,"Delta":16655954},{"NoteNumber":64,"Velocity":45,"Duration":95808,"SoundDuration":95808,"Delta":16679877},{"NoteNumber":78,"Velocity":47,"Duration":72000,"SoundDuration":72000,"Delta":16727724},{"NoteNumber":67,"Velocity":51,"Duration":96153,"SoundDuration":96153,"Delta":16775686},{"NoteNumber":81,"Velocity":42,"Duration":72115,"SoundDuration":72115,"Delta":16799725},{"NoteNumber":79,"Velocity":47,"Duration":72463,"SoundDuration":72463,"Delta":16871840},{"NoteNumber":57,"Velocity":40,"Duration":291266,"SoundDuration":291266,"Delta":16871840},{"NoteNumber":76,"Velocity":40,"Duration":72698,"SoundDuration":72698,"Delta":16944304},{"NoteNumber":73,"Velocity":55,"Duration":146104,"SoundDuration":146104,"Delta":17017002},{"NoteNumber":85,"Velocity":45,"Duration":73170,"SoundDuration":73170,"Delta":17089936},{"NoteNumber":72,"Velocity":76,"Duration":452245,"SoundDuration":452245,"Delta":17163107},{"NoteNumber":68,"Velocity":52,"Duration":98039,"SoundDuration":98039,"Delta":17163107},{"NoteNumber":84,"Velocity":44,"Duration":74272,"SoundDuration":74272,"Delta":17236636},{"NoteNumber":63,"Velocity":46,"Duration":100267,"SoundDuration":100267,"Delta":17261146},{"NoteNumber":77,"Velocity":52,"Duration":75757,"SoundDuration":75757,"Delta":17310908},{"NoteNumber":66,"Velocity":51,"Duration":101266,"SoundDuration":101266,"Delta":17361413},{"NoteNumber":80,"Velocity":42,"Duration":76013,"SoundDuration":76013,"Delta":17386666},{"NoteNumber":78,"Velocity":48,"Duration":76142,"SoundDuration":76142,"Delta":17462680},{"NoteNumber":56,"Velocity":42,"Duration":306389,"SoundDuration":306389,"Delta":17462680},{"NoteNumber":75,"Velocity":40,"Duration":76530,"SoundDuration":76530,"Delta":17538822},{"NoteNumber":74,"Velocity":55,"Duration":153716,"SoundDuration":153716,"Delta":17615353},{"NoteNumber":86,"Velocity":40,"Duration":77055,"SoundDuration":77055,"Delta":17692014},{"NoteNumber":72,"Velocity":73,"Duration":471113,"SoundDuration":471113,"Delta":17769069},{"NoteNumber":67,"Velocity":55,"Duration":103359,"SoundDuration":103359,"Delta":17769069},{"NoteNumber":84,"Velocity":42,"Duration":77855,"SoundDuration":77855,"Delta":17846522},{"NoteNumber":62,"Velocity":45,"Duration":104031,"SoundDuration":104031,"Delta":17872429},{"NoteNumber":76,"Velocity":47,"Duration":78261,"SoundDuration":78261,"Delta":17924378},{"NoteNumber":65,"Velocity":49,"Duration":104849,"SoundDuration":104849,"Delta":17976461},{"NoteNumber":79,"Velocity":40,"Duration":78671,"SoundDuration":78671,"Delta":18002639},{"NoteNumber":77,"Velocity":47,"Duration":79225,"SoundDuration":79225,"Delta":18081311},{"NoteNumber":55,"Velocity":40,"Duration":319445,"SoundDuration":319445,"Delta":18081311},{"NoteNumber":74,"Velocity":40,"Duration":79646,"SoundDuration":79646,"Delta":18160537},{"NoteNumber":71,"Velocity":55,"Duration":160573,"SoundDuration":160573,"Delta":18240183},{"NoteNumber":83,"Velocity":40,"Duration":80501,"SoundDuration":80501,"Delta":18320255},{"NoteNumber":71,"Velocity":73,"Duration":507799,"SoundDuration":507799,"Delta":18400756},{"NoteNumber":67,"Velocity":55,"Duration":108936,"SoundDuration":108936,"Delta":18400756},{"NoteNumber":83,"Velocity":37,"Duration":82906,"SoundDuration":82906,"Delta":18482220},{"NoteNumber":61,"Velocity":42,"Duration":111613,"SoundDuration":111613,"Delta":18509693},{"NoteNumber":75,"Velocity":46,"Duration":84588,"SoundDuration":84588,"Delta":18565126},{"NoteNumber":64,"Velocity":49,"Duration":113766,"SoundDuration":113766,"Delta":18621306},{"NoteNumber":78,"Velocity":36,"Duration":85357,"SoundDuration":85357,"Delta":18649715},{"NoteNumber":76,"Velocity":45,"Duration":86273,"SoundDuration":86273,"Delta":18735073},{"NoteNumber":55,"Velocity":42,"Duration":349406,"SoundDuration":349406,"Delta":18735073},{"NoteNumber":73,"Velocity":37,"Duration":87209,"SoundDuration":87209,"Delta":18821347},{"NoteNumber":70,"Velocity":53,"Duration":175923,"SoundDuration":175923,"Delta":18908556},{"NoteNumber":82,"Velocity":42,"Duration":88235,"SoundDuration":88235,"Delta":18996244},{"NoteNumber":70,"Velocity":67,"Duration":546597,"SoundDuration":546597,"Delta":19084479},{"NoteNumber":66,"Velocity":53,"Duration":118067,"SoundDuration":118067,"Delta":19084479},{"NoteNumber":82,"Velocity":37,"Duration":89285,"SoundDuration":89285,"Delta":19172784},{"NoteNumber":61,"Velocity":40,"Duration":119477,"SoundDuration":119477,"Delta":19202546},{"NoteNumber":75,"Velocity":44,"Duration":90074,"SoundDuration":90074,"Delta":19262070},{"NoteNumber":64,"Velocity":47,"Duration":121220,"SoundDuration":121220,"Delta":19322024},{"NoteNumber":78,"Velocity":37,"Duration":91099,"SoundDuration":91099,"Delta":19352145},{"NoteNumber":76,"Velocity":44,"Duration":93132,"SoundDuration":93132,"Delta":19443245},{"NoteNumber":54,"Velocity":40,"Duration":382830,"SoundDuration":382830,"Delta":19443245},{"NoteNumber":73,"Velocity":37,"Duration":94699,"SoundDuration":94699,"Delta":19536377},{"NoteNumber":70,"Velocity":58,"Duration":194998,"SoundDuration":194998,"Delta":19631077},{"NoteNumber":82,"Velocity":42,"Duration":98427,"SoundDuration":98427,"Delta":19727647},{"NoteNumber":70,"Velocity":81,"Duration":368604,"SoundDuration":368604,"Delta":19826075},{"NoteNumber":65,"Velocity":52,"Duration":81632,"SoundDuration":81632,"Delta":19826075},{"NoteNumber":83,"Velocity":54,"Duration":61224,"SoundDuration":61224,"Delta":19887299},{"NoteNumber":58,"Velocity":40,"Duration":81716,"SoundDuration":81716,"Delta":19907707},{"NoteNumber":76,"Velocity":59,"Duration":61391,"SoundDuration":61391,"Delta":19948524},{"NoteNumber":62,"Velocity":49,"Duration":81967,"SoundDuration":81967,"Delta":19989424},{"NoteNumber":79,"Velocity":38,"Duration":61475,"SoundDuration":61475,"Delta":20009915},{"NoteNumber":77,"Velocity":54,"Duration":61559,"SoundDuration":61559,"Delta":20071391},{"NoteNumber":53,"Velocity":39,"Duration":247085,"SoundDuration":247085,"Delta":20071391},{"NoteNumber":74,"Velocity":44,"Duration":61728,"SoundDuration":61728,"Delta":20132951},{"NoteNumber":69,"Velocity":58,"Duration":123796,"SoundDuration":123796,"Delta":20194679},{"NoteNumber":81,"Velocity":44,"Duration":61983,"SoundDuration":61983,"Delta":20256492},{"NoteNumber":69,"Velocity":78,"Duration":374139,"SoundDuration":374139,"Delta":20318476},{"NoteNumber":65,"Velocity":51,"Duration":82730,"SoundDuration":82730,"Delta":20318476},{"NoteNumber":81,"Velocity":46,"Duration":62240,"SoundDuration":62240,"Delta":20380459},{"NoteNumber":59,"Velocity":41,"Duration":82987,"SoundDuration":82987,"Delta":20401206},{"NoteNumber":73,"Velocity":56,"Duration":62240,"SoundDuration":62240,"Delta":20442700},{"NoteNumber":62,"Velocity":48,"Duration":83246,"SoundDuration":83246,"Delta":20484194},{"NoteNumber":76,"Velocity":37,"Duration":62500,"SoundDuration":62500,"Delta":20504941},{"NoteNumber":74,"Velocity":50,"Duration":62500,"SoundDuration":62500,"Delta":20567441},{"NoteNumber":53,"Velocity":41,"Duration":250873,"SoundDuration":250873,"Delta":20567441},{"NoteNumber":71,"Velocity":44,"Duration":62674,"SoundDuration":62674,"Delta":20629941},{"NoteNumber":68,"Velocity":58,"Duration":125698,"SoundDuration":125698,"Delta":20692615},{"NoteNumber":80,"Velocity":44,"Duration":62937,"SoundDuration":62937,"Delta":20755376},{"NoteNumber":68,"Velocity":83,"Duration":379929,"SoundDuration":379929,"Delta":20818314},{"NoteNumber":65,"Velocity":53,"Duration":84033,"SoundDuration":84033,"Delta":20818314},{"NoteNumber":80,"Velocity":38,"Duration":63113,"SoundDuration":63113,"Delta":20881339},{"NoteNumber":55,"Velocity":42,"Duration":84299,"SoundDuration":84299,"Delta":20902347},{"NoteNumber":73,"Velocity":50,"Duration":63291,"SoundDuration":63291,"Delta":20944453},{"NoteNumber":59,"Velocity":49,"Duration":84477,"SoundDuration":84477,"Delta":20986647},{"NoteNumber":75,"Velocity":38,"Duration":63380,"SoundDuration":63380,"Delta":21007744},{"NoteNumber":74,"Velocity":45,"Duration":63559,"SoundDuration":63559,"Delta":21071125},{"NoteNumber":53,"Velocity":41,"Duration":254778,"SoundDuration":254778,"Delta":21071125},{"NoteNumber":71,"Velocity":40,"Duration":63559,"SoundDuration":63559,"Delta":21134684},{"NoteNumber":67,"Velocity":62,"Duration":127659,"SoundDuration":127659,"Delta":21198243},{"NoteNumber":79,"Velocity":46,"Duration":63829,"SoundDuration":63829,"Delta":21262073},{"NoteNumber":67,"Velocity":80,"Duration":419995,"SoundDuration":419995,"Delta":21325903},{"NoteNumber":63,"Velocity":53,"Duration":91790,"SoundDuration":91790,"Delta":21325903},{"NoteNumber":79,"Velocity":42,"Duration":70422,"SoundDuration":70422,"Delta":21394219},{"NoteNumber":55,"Velocity":45,"Duration":93896,"SoundDuration":93896,"Delta":21417693},{"NoteNumber":74,"Velocity":46,"Duration":70422,"SoundDuration":70422,"Delta":21464641},{"NoteNumber":60,"Velocity":50,"Duration":93896,"SoundDuration":93896,"Delta":21511590},{"NoteNumber":76,"Velocity":42,"Duration":70422,"SoundDuration":70422,"Delta":21535064},{"NoteNumber":75,"Velocity":47,"Duration":70422,"SoundDuration":70422,"Delta":21605486},{"NoteNumber":53,"Velocity":41,"Duration":278981,"SoundDuration":278981,"Delta":21605486},{"NoteNumber":74,"Velocity":46,"Duration":69989,"SoundDuration":69989,"Delta":21675909},{"NoteNumber":72,"Velocity":62,"Duration":138568,"SoundDuration":138568,"Delta":21745898},{"NoteNumber":84,"Velocity":46,"Duration":69444,"SoundDuration":69444,"Delta":21815023},{"NoteNumber":72,"Velocity":85,"Duration":394920,"SoundDuration":394920,"Delta":21884467},{"NoteNumber":67,"Velocity":56,"Duration":89237,"SoundDuration":89237,"Delta":21884467},{"NoteNumber":84,"Velocity":53,"Duration":65029,"SoundDuration":65029,"Delta":21952060},{"NoteNumber":60,"Velocity":46,"Duration":86862,"SoundDuration":86862,"Delta":21973705},{"NoteNumber":78,"Velocity":61,"Duration":65217,"SoundDuration":65217,"Delta":22017089},{"NoteNumber":63,"Velocity":50,"Duration":87241,"SoundDuration":87241,"Delta":22060567},{"NoteNumber":80,"Velocity":42,"Duration":65502,"SoundDuration":65502,"Delta":22082306},{"NoteNumber":79,"Velocity":48,"Duration":65693,"SoundDuration":65693,"Delta":22147808},{"NoteNumber":53,"Velocity":40,"Duration":264030,"SoundDuration":264030,"Delta":22147808},{"NoteNumber":75,"Velocity":44,"Duration":65886,"SoundDuration":65886,"Delta":22213502},{"NoteNumber":71,"Velocity":66,"Duration":132450,"SoundDuration":132450,"Delta":22279388},{"NoteNumber":83,"Velocity":48,"Duration":66371,"SoundDuration":66371,"Delta":22345468},{"NoteNumber":71,"Velocity":82,"Duration":402410,"SoundDuration":402410,"Delta":22411839},{"NoteNumber":67,"Velocity":55,"Duration":88495,"SoundDuration":88495,"Delta":22411839},{"NoteNumber":83,"Velocity":51,"Duration":66568,"SoundDuration":66568,"Delta":22478211},{"NoteNumber":61,"Velocity":45,"Duration":88988,"SoundDuration":88988,"Delta":22500335},{"NoteNumber":75,"Velocity":62,"Duration":66865,"SoundDuration":66865,"Delta":22544779},{"NoteNumber":64,"Velocity":51,"Duration":89485,"SoundDuration":89485,"Delta":22589323},{"NoteNumber":78,"Velocity":45,"Duration":67164,"SoundDuration":67164,"Delta":22611644},{"NoteNumber":76,"Velocity":52,"Duration":67567,"SoundDuration":67567,"Delta":22678809},{"NoteNumber":53,"Velocity":39,"Duration":272324,"SoundDuration":272324,"Delta":22678809},{"NoteNumber":73,"Velocity":45,"Duration":67873,"SoundDuration":67873,"Delta":22746376},{"NoteNumber":70,"Velocity":61,"Duration":136883,"SoundDuration":136883,"Delta":22814249},{"NoteNumber":82,"Velocity":50,"Duration":68597,"SoundDuration":68597,"Delta":22882535},{"NoteNumber":70,"Velocity":84,"Duration":418856,"SoundDuration":418856,"Delta":22951133},{"NoteNumber":67,"Velocity":55,"Duration":91954,"SoundDuration":91954,"Delta":22951133},{"NoteNumber":82,"Velocity":46,"Duration":69231,"SoundDuration":69231,"Delta":23020046},{"NoteNumber":57,"Velocity":48,"Duration":92593,"SoundDuration":92593,"Delta":23043087},{"NoteNumber":75,"Velocity":55,"Duration":69659,"SoundDuration":69659,"Delta":23089277},{"NoteNumber":61,"Velocity":52,"Duration":93240,"SoundDuration":93240,"Delta":23135681},{"NoteNumber":77,"Velocity":48,"Duration":69984,"SoundDuration":69984,"Delta":23158937},{"NoteNumber":76,"Velocity":55,"Duration":70312,"SoundDuration":70312,"Delta":23228922},{"NoteNumber":53,"Velocity":40,"Duration":283700,"SoundDuration":283700,"Delta":23228922},{"NoteNumber":73,"Velocity":47,"Duration":70754,"SoundDuration":70754,"Delta":23299235},{"NoteNumber":69,"Velocity":62,"Duration":142632,"SoundDuration":142632,"Delta":23369989},{"NoteNumber":81,"Velocity":51,"Duration":71542,"SoundDuration":71542,"Delta":23441079},{"NoteNumber":69,"Velocity":82,"Duration":523117,"SoundDuration":523117,"Delta":23512622},{"NoteNumber":65,"Velocity":56,"Duration":113760,"SoundDuration":113760,"Delta":23512622},{"NoteNumber":81,"Velocity":47,"Duration":87719,"SoundDuration":87719,"Delta":23597143},{"NoteNumber":57,"Velocity":50,"Duration":116959,"SoundDuration":116959,"Delta":23626383},{"NoteNumber":76,"Velocity":59,"Duration":87719,"SoundDuration":87719,"Delta":23684862},{"NoteNumber":62,"Velocity":52,"Duration":116958,"SoundDuration":116958,"Delta":23743342},{"NoteNumber":79,"Velocity":50,"Duration":87719,"SoundDuration":87719,"Delta":23772582},{"NoteNumber":77,"Velocity":56,"Duration":87719,"SoundDuration":87719,"Delta":23860301},{"NoteNumber":53,"Velocity":47,"Duration":350877,"SoundDuration":350877,"Delta":23860301},{"NoteNumber":76,"Velocity":48,"Duration":87719,"SoundDuration":87719,"Delta":23948020},{"NoteNumber":74,"Velocity":70,"Duration":175438,"SoundDuration":175438,"Delta":24035739},{"NoteNumber":86,"Velocity":52,"Duration":87719,"SoundDuration":87719,"Delta":24123459},{"NoteNumber":74,"Velocity":90,"Duration":451256,"SoundDuration":451256,"Delta":24211178},{"NoteNumber":65,"Velocity":61,"Duration":100502,"SoundDuration":100502,"Delta":24211178},{"NoteNumber":86,"Velocity":58,"Duration":75376,"SoundDuration":75376,"Delta":24286555},{"NoteNumber":57,"Velocity":51,"Duration":100502,"SoundDuration":100502,"Delta":24311680},{"NoteNumber":76,"Velocity":68,"Duration":75251,"SoundDuration":75251,"Delta":24361932},{"NoteNumber":63,"Velocity":57,"Duration":100000,"SoundDuration":100000,"Delta":24412183},{"NoteNumber":79,"Velocity":47,"Duration":75000,"SoundDuration":75000,"Delta":24437183},{"NoteNumber":77,"Velocity":56,"Duration":74999,"SoundDuration":74999,"Delta":24512183},{"NoteNumber":53,"Velocity":48,"Duration":301004,"SoundDuration":301004,"Delta":24512183},{"NoteNumber":75,"Velocity":47,"Duration":75251,"SoundDuration":75251,"Delta":24587183},{"NoteNumber":72,"Velocity":70,"Duration":150753,"SoundDuration":150753,"Delta":24662434},{"NoteNumber":84,"Velocity":55,"Duration":75376,"SoundDuration":75376,"Delta":24737811},{"NoteNumber":72,"Velocity":83,"Duration":456086,"SoundDuration":456086,"Delta":24813188},{"NoteNumber":62,"Velocity":62,"Duration":101010,"SoundDuration":101010,"Delta":24813188},{"NoteNumber":84,"Velocity":55,"Duration":75757,"SoundDuration":75757,"Delta":24888945},{"NoteNumber":53,"Velocity":49,"Duration":101010,"SoundDuration":101010,"Delta":24914198},{"NoteNumber":76,"Velocity":66,"Duration":75885,"SoundDuration":75885,"Delta":24964703},{"NoteNumber":58,"Velocity":57,"Duration":101522,"SoundDuration":101522,"Delta":25015208},{"NoteNumber":79,"Velocity":50,"Duration":76142,"SoundDuration":76142,"Delta":25040589},{"NoteNumber":77,"Velocity":56,"Duration":76142,"SoundDuration":76142,"Delta":25116731},{"NoteNumber":46,"Velocity":47,"Duration":305604,"SoundDuration":305604,"Delta":25116731},{"NoteNumber":74,"Velocity":47,"Duration":76401,"SoundDuration":76401,"Delta":25192873},{"NoteNumber":70,"Velocity":66,"Duration":153061,"SoundDuration":153061,"Delta":25269274},{"NoteNumber":82,"Velocity":55,"Duration":76530,"SoundDuration":76530,"Delta":25345805},{"NoteNumber":70,"Velocity":93,"Duration":466367,"SoundDuration":466367,"Delta":25422335},{"NoteNumber":62,"Velocity":58,"Duration":102302,"SoundDuration":102302,"Delta":25422335},{"NoteNumber":82,"Velocity":50,"Duration":77055,"SoundDuration":77055,"Delta":25498997},{"NoteNumber":54,"Velocity":51,"Duration":102960,"SoundDuration":102960,"Delta":25524638},{"NoteNumber":73,"Velocity":60,"Duration":77453,"SoundDuration":77453,"Delta":25576052},{"NoteNumber":60,"Velocity":58,"Duration":103896,"SoundDuration":103896,"Delta":25627599},{"NoteNumber":75,"Velocity":48,"Duration":77990,"SoundDuration":77990,"Delta":25653505},{"NoteNumber":74,"Velocity":57,"Duration":78397,"SoundDuration":78397,"Delta":25731495},{"NoteNumber":50,"Velocity":49,"Duration":316220,"SoundDuration":316220,"Delta":25731495},{"NoteNumber":72,"Velocity":46,"Duration":78809,"SoundDuration":78809,"Delta":25809893},{"NoteNumber":69,"Velocity":70,"Duration":159013,"SoundDuration":159013,"Delta":25888703},{"NoteNumber":81,"Velocity":55,"Duration":79787,"SoundDuration":79787,"Delta":25967929},{"NoteNumber":69,"Velocity":88,"Duration":488741,"SoundDuration":488741,"Delta":26047716},{"NoteNumber":58,"Velocity":61,"Duration":107095,"SoundDuration":107095,"Delta":26047716},{"NoteNumber":81,"Velocity":50,"Duration":80790,"SoundDuration":80790,"Delta":26127930},{"NoteNumber":50,"Velocity":50,"Duration":107962,"SoundDuration":107962,"Delta":26154811},{"NoteNumber":73,"Velocity":59,"Duration":81227,"SoundDuration":81227,"Delta":26208720},{"NoteNumber":55,"Velocity":56,"Duration":108844,"SoundDuration":108844,"Delta":26262774},{"NoteNumber":75,"Velocity":50,"Duration":81670,"SoundDuration":81670,"Delta":26289948},{"NoteNumber":74,"Velocity":60,"Duration":82117,"SoundDuration":82117,"Delta":26371618},{"NoteNumber":43,"Velocity":45,"Duration":325658,"SoundDuration":325658,"Delta":26371618},{"NoteNumber":71,"Velocity":50,"Duration":82721,"SoundDuration":82721,"Delta":26453736},{"NoteNumber":67,"Velocity":72,"Duration":160820,"SoundDuration":160820,"Delta":26536457},{"NoteNumber":79,"Velocity":57,"Duration":77640,"SoundDuration":77640,"Delta":26619637},{"NoteNumber":67,"Velocity":93,"Duration":399999,"SoundDuration":399999,"Delta":26697277},{"NoteNumber":58,"Velocity":62,"Duration":88888,"SoundDuration":88888,"Delta":26697277},{"NoteNumber":79,"Velocity":51,"Duration":66666,"SoundDuration":66666,"Delta":26763944},{"NoteNumber":50,"Velocity":56,"Duration":88888,"SoundDuration":88888,"Delta":26786166},{"NoteNumber":69,"Velocity":68,"Duration":66666,"SoundDuration":66666,"Delta":26830611},{"NoteNumber":56,"Velocity":63,"Duration":88888,"SoundDuration":88888,"Delta":26875055},{"NoteNumber":72,"Velocity":51,"Duration":66666,"SoundDuration":66666,"Delta":26897277},{"NoteNumber":70,"Velocity":60,"Duration":66666,"SoundDuration":66666,"Delta":26963944},{"NoteNumber":46,"Velocity":53,"Duration":268140,"SoundDuration":268140,"Delta":26963944},{"NoteNumber":68,"Velocity":51,"Duration":66666,"SoundDuration":66666,"Delta":27030611},{"NoteNumber":65,"Velocity":77,"Duration":134807,"SoundDuration":134807,"Delta":27097277},{"NoteNumber":77,"Velocity":59,"Duration":68141,"SoundDuration":68141,"Delta":27163944},{"NoteNumber":64,"Velocity":90,"Duration":426539,"SoundDuration":426539,"Delta":27232085},{"NoteNumber":58,"Velocity":62,"Duration":94786,"SoundDuration":94786,"Delta":27232085},{"NoteNumber":76,"Velocity":50,"Duration":71089,"SoundDuration":71089,"Delta":27303175},{"NoteNumber":50,"Velocity":58,"Duration":94786,"SoundDuration":94786,"Delta":27326872},{"NoteNumber":69,"Velocity":67,"Duration":71090,"SoundDuration":71090,"Delta":27374265},{"NoteNumber":56,"Velocity":63,"Duration":94786,"SoundDuration":94786,"Delta":27421658},{"NoteNumber":72,"Velocity":52,"Duration":71089,"SoundDuration":71089,"Delta":27445355},{"NoteNumber":70,"Velocity":61,"Duration":71090,"SoundDuration":71090,"Delta":27516445},{"NoteNumber":46,"Velocity":56,"Duration":284935,"SoundDuration":284935,"Delta":27516445},{"NoteNumber":68,"Velocity":52,"Duration":71089,"SoundDuration":71089,"Delta":27587535},{"NoteNumber":65,"Velocity":78,"Duration":142755,"SoundDuration":142755,"Delta":27658625},{"NoteNumber":77,"Velocity":60,"Duration":71665,"SoundDuration":71665,"Delta":27729715},{"NoteNumber":65,"Velocity":97,"Duration":435605,"SoundDuration":435605,"Delta":27801380},{"NoteNumber":56,"Velocity":64,"Duration":94676,"SoundDuration":94676,"Delta":27801380},{"NoteNumber":77,"Velocity":55,"Duration":71542,"SoundDuration":71542,"Delta":27872247},{"NoteNumber":46,"Velocity":58,"Duration":95809,"SoundDuration":95809,"Delta":27896056},{"NoteNumber":69,"Velocity":62,"Duration":72231,"SoundDuration":72231,"Delta":27943789},{"NoteNumber":50,"Velocity":64,"Duration":97088,"SoundDuration":97088,"Delta":27991866},{"NoteNumber":71,"Velocity":52,"Duration":72933,"SoundDuration":72933,"Delta":28016021},{"NoteNumber":70,"Velocity":63,"Duration":73650,"SoundDuration":73650,"Delta":28088954},{"NoteNumber":39,"Velocity":58,"Duration":299042,"SoundDuration":299042,"Delta":28088954},{"NoteNumber":68,"Velocity":52,"Duration":74380,"SoundDuration":74380,"Delta":28162605},{"NoteNumber":65,"Velocity":78,"Duration":151011,"SoundDuration":151011,"Delta":28236985},{"NoteNumber":77,"Velocity":61,"Duration":75885,"SoundDuration":75885,"Delta":28312111},{"NoteNumber":66,"Velocity":93,"Duration":459183,"SoundDuration":459183,"Delta":28387997},{"NoteNumber":54,"Velocity":67,"Duration":102040,"SoundDuration":102040,"Delta":28387997},{"NoteNumber":78,"Velocity":56,"Duration":76530,"SoundDuration":76530,"Delta":28464527},{"NoteNumber":46,"Velocity":60,"Duration":102040,"SoundDuration":102040,"Delta":28490037},{"NoteNumber":74,"Velocity":64,"Duration":76530,"SoundDuration":76530,"Delta":28541058},{"NoteNumber":51,"Velocity":63,"Duration":102040,"SoundDuration":102040,"Delta":28592078},{"NoteNumber":77,"Velocity":57,"Duration":76530,"SoundDuration":76530,"Delta":28617588},{"NoteNumber":75,"Velocity":64,"Duration":76530,"SoundDuration":76530,"Delta":28694119},{"NoteNumber":39,"Velocity":57,"Duration":313489,"SoundDuration":313489,"Delta":28694119},{"NoteNumber":70,"Velocity":55,"Duration":76530,"SoundDuration":76530,"Delta":28770650},{"NoteNumber":66,"Velocity":77,"Duration":160427,"SoundDuration":160427,"Delta":28847180},{"NoteNumber":78,"Velocity":62,"Duration":80213,"SoundDuration":80213,"Delta":28927394},{"NoteNumber":66,"Velocity":99,"Duration":432692,"SoundDuration":432692,"Delta":29007608},{"NoteNumber":56,"Velocity":65,"Duration":96153,"SoundDuration":96153,"Delta":29007608},{"NoteNumber":78,"Velocity":62,"Duration":72115,"SoundDuration":72115,"Delta":29079723},{"NoteNumber":44,"Velocity":56,"Duration":96153,"SoundDuration":96153,"Delta":29103762},{"NoteNumber":67,"Velocity":79,"Duration":72115,"SoundDuration":72115,"Delta":29151839},{"NoteNumber":49,"Velocity":64,"Duration":96153,"SoundDuration":96153,"Delta":29199916},{"NoteNumber":70,"Velocity":66,"Duration":72115,"SoundDuration":72115,"Delta":29223954},{"NoteNumber":68,"Velocity":73,"Duration":72115,"SoundDuration":72115,"Delta":29296070},{"NoteNumber":40,"Velocity":56,"Duration":288461,"SoundDuration":288461,"Delta":29296070},{"NoteNumber":66,"Velocity":71,"Duration":72115,"SoundDuration":72115,"Delta":29368185},{"NoteNumber":64,"Velocity":78,"Duration":144230,"SoundDuration":144230,"Delta":29440300},{"NoteNumber":76,"Velocity":64,"Duration":72115,"SoundDuration":72115,"Delta":29512416},{"NoteNumber":64,"Velocity":93,"Duration":432692,"SoundDuration":432692,"Delta":29584531},{"NoteNumber":56,"Velocity":65,"Duration":96153,"SoundDuration":96153,"Delta":29584531},{"NoteNumber":76,"Velocity":59,"Duration":72115,"SoundDuration":72115,"Delta":29656646},{"NoteNumber":44,"Velocity":63,"Duration":96153,"SoundDuration":96153,"Delta":29680685},{"NoteNumber":67,"Velocity":66,"Duration":72115,"SoundDuration":72115,"Delta":29728762},{"NoteNumber":49,"Velocity":66,"Duration":96153,"SoundDuration":96153,"Delta":29776839},{"NoteNumber":70,"Velocity":61,"Duration":72115,"SoundDuration":72115,"Delta":29800877},{"NoteNumber":68,"Velocity":70,"Duration":72115,"SoundDuration":72115,"Delta":29872993},{"NoteNumber":40,"Velocity":60,"Duration":288693,"SoundDuration":288693,"Delta":29872993},{"NoteNumber":64,"Velocity":62,"Duration":72115,"SoundDuration":72115,"Delta":29945108},{"NoteNumber":56,"Velocity":78,"Duration":144462,"SoundDuration":144462,"Delta":30017223},{"NoteNumber":68,"Velocity":64,"Duration":72347,"SoundDuration":72347,"Delta":30089339},{"NoteNumber":59,"Velocity":94,"Duration":436781,"SoundDuration":436781,"Delta":30161686},{"NoteNumber":54,"Velocity":69,"Duration":96618,"SoundDuration":96618,"Delta":30161686},{"NoteNumber":71,"Velocity":61,"Duration":72463,"SoundDuration":72463,"Delta":30234150},{"NoteNumber":47,"Velocity":63,"Duration":96852,"SoundDuration":96852,"Delta":30258305},{"NoteNumber":65,"Velocity":66,"Duration":72815,"SoundDuration":72815,"Delta":30306614},{"NoteNumber":51,"Velocity":66,"Duration":97087,"SoundDuration":97087,"Delta":30355157},{"NoteNumber":68,"Velocity":63,"Duration":72815,"SoundDuration":72815,"Delta":30379429},{"NoteNumber":66,"Velocity":71,"Duration":73052,"SoundDuration":73052,"Delta":30452245},{"NoteNumber":42,"Velocity":57,"Duration":293042,"SoundDuration":293042,"Delta":30452245},{"NoteNumber":63,"Velocity":62,"Duration":73170,"SoundDuration":73170,"Delta":30525297},{"NoteNumber":59,"Velocity":73,"Duration":146819,"SoundDuration":146819,"Delta":30598468},{"NoteNumber":71,"Velocity":66,"Duration":73529,"SoundDuration":73529,"Delta":30671758},{"NoteNumber":58,"Velocity":92,"Duration":444086,"SoundDuration":444086,"Delta":30745288},{"NoteNumber":54,"Velocity":70,"Duration":98159,"SoundDuration":98159,"Delta":30745288},{"NoteNumber":70,"Velocity":62,"Duration":73891,"SoundDuration":73891,"Delta":30818817},{"NoteNumber":47,"Velocity":63,"Duration":98522,"SoundDuration":98522,"Delta":30843447},{"NoteNumber":65,"Velocity":69,"Duration":73891,"SoundDuration":73891,"Delta":30892709},{"NoteNumber":51,"Velocity":69,"Duration":98766,"SoundDuration":98766,"Delta":30941970},{"NoteNumber":68,"Velocity":61,"Duration":74135,"SoundDuration":74135,"Delta":30966600},{"NoteNumber":66,"Velocity":71,"Duration":74257,"SoundDuration":74257,"Delta":31040736},{"NoteNumber":42,"Velocity":63,"Duration":297891,"SoundDuration":297891,"Delta":31040736},{"NoteNumber":63,"Velocity":63,"Duration":74380,"SoundDuration":74380,"Delta":31114993},{"NoteNumber":59,"Velocity":72,"Duration":149253,"SoundDuration":149253,"Delta":31189374},{"NoteNumber":71,"Velocity":69,"Duration":74626,"SoundDuration":74626,"Delta":31264000},{"NoteNumber":60,"Velocity":96,"Duration":452414,"SoundDuration":452414,"Delta":31338627},{"NoteNumber":54,"Velocity":77,"Duration":99502,"SoundDuration":99502,"Delta":31338627},{"NoteNumber":72,"Velocity":66,"Duration":74875,"SoundDuration":74875,"Delta":31413254},{"NoteNumber":46,"Velocity":65,"Duration":100125,"SoundDuration":100125,"Delta":31438130},{"NoteNumber":65,"Velocity":73,"Duration":75251,"SoundDuration":75251,"Delta":31488130},{"NoteNumber":52,"Velocity":72,"Duration":100629,"SoundDuration":100629,"Delta":31538255},{"NoteNumber":68,"Velocity":70,"Duration":75503,"SoundDuration":75503,"Delta":31563381},{"NoteNumber":66,"Velocity":78,"Duration":75885,"SoundDuration":75885,"Delta":31638885},{"NoteNumber":42,"Velocity":64,"Duration":305611,"SoundDuration":305611,"Delta":31638885},{"NoteNumber":64,"Velocity":77,"Duration":76271,"SoundDuration":76271,"Delta":31714771},{"NoteNumber":60,"Velocity":78,"Duration":153453,"SoundDuration":153453,"Delta":31791042},{"NoteNumber":72,"Velocity":70,"Duration":76923,"SoundDuration":76923,"Delta":31867573},{"NoteNumber":61,"Velocity":92,"Duration":469323,"SoundDuration":469323,"Delta":31944496},{"NoteNumber":54,"Velocity":75,"Duration":103226,"SoundDuration":103226,"Delta":31944496},{"NoteNumber":73,"Velocity":64,"Duration":77720,"SoundDuration":77720,"Delta":32021816},{"NoteNumber":46,"Velocity":63,"Duration":103761,"SoundDuration":103761,"Delta":32047722},{"NoteNumber":65,"Velocity":73,"Duration":77990,"SoundDuration":77990,"Delta":32099536},{"NoteNumber":52,"Velocity":72,"Duration":104439,"SoundDuration":104439,"Delta":32151484},{"NoteNumber":68,"Velocity":64,"Duration":78397,"SoundDuration":78397,"Delta":32177526},{"NoteNumber":66,"Velocity":72,"Duration":78809,"SoundDuration":78809,"Delta":32255924},{"NoteNumber":42,"Velocity":64,"Duration":317331,"SoundDuration":317331,"Delta":32255924},{"NoteNumber":64,"Velocity":63,"Duration":79086,"SoundDuration":79086,"Delta":32334733},{"NoteNumber":62,"Velocity":84,"Duration":159435,"SoundDuration":159435,"Delta":32413820},{"NoteNumber":74,"Velocity":71,"Duration":79929,"SoundDuration":79929,"Delta":32493326},{"NoteNumber":62,"Velocity":96,"Duration":512870,"SoundDuration":512870,"Delta":32573255},{"NoteNumber":52,"Velocity":81,"Duration":108405,"SoundDuration":108405,"Delta":32573255},{"NoteNumber":74,"Velocity":69,"Duration":82724,"SoundDuration":82724,"Delta":32654338},{"NoteNumber":42,"Velocity":65,"Duration":111424,"SoundDuration":111424,"Delta":32681660},{"NoteNumber":65,"Velocity":77,"Duration":84431,"SoundDuration":84431,"Delta":32737062},{"NoteNumber":46,"Velocity":72,"Duration":114617,"SoundDuration":114617,"Delta":32793085},{"NoteNumber":68,"Velocity":71,"Duration":86208,"SoundDuration":86208,"Delta":32821494},{"NoteNumber":66,"Velocity":77,"Duration":88237,"SoundDuration":88237,"Delta":32907703},{"NoteNumber":35,"Velocity":65,"Duration":364983,"SoundDuration":364983,"Delta":32907703},{"NoteNumber":64,"Velocity":69,"Duration":90185,"SoundDuration":90185,"Delta":32995940},{"NoteNumber":62,"Velocity":82,"Duration":186560,"SoundDuration":186560,"Delta":33086126},{"NoteNumber":74,"Velocity":72,"Duration":94342,"SoundDuration":94342,"Delta":33178344},{"NoteNumber":63,"Velocity":98,"Duration":576923,"SoundDuration":576923,"Delta":33272686},{"NoteNumber":51,"Velocity":75,"Duration":128205,"SoundDuration":128205,"Delta":33272686},{"NoteNumber":75,"Velocity":69,"Duration":96153,"SoundDuration":96153,"Delta":33368840},{"NoteNumber":42,"Velocity":64,"Duration":128205,"SoundDuration":128205,"Delta":33400892},{"NoteNumber":70,"Velocity":77,"Duration":96153,"SoundDuration":96153,"Delta":33464994},{"NoteNumber":47,"Velocity":70,"Duration":128205,"SoundDuration":128205,"Delta":33529097},{"NoteNumber":73,"Velocity":71,"Duration":96153,"SoundDuration":96153,"Delta":33561148},{"NoteNumber":71,"Velocity":77,"Duration":96153,"SoundDuration":96153,"Delta":33657302},{"NoteNumber":35,"Velocity":61,"Duration":376038,"SoundDuration":376038,"Delta":33657302},{"NoteNumber":66,"Velocity":72,"Duration":96153,"SoundDuration":96153,"Delta":33753456},{"NoteNumber":63,"Velocity":80,"Duration":183730,"SoundDuration":183730,"Delta":33849610},{"NoteNumber":75,"Velocity":73,"Duration":87576,"SoundDuration":87576,"Delta":33945764},{"NoteNumber":63,"Velocity":103,"Duration":419590,"SoundDuration":419590,"Delta":34033340},{"NoteNumber":56,"Velocity":77,"Duration":93896,"SoundDuration":93896,"Delta":34033340},{"NoteNumber":75,"Velocity":66,"Duration":70203,"SoundDuration":70203,"Delta":34103763},{"NoteNumber":47,"Velocity":66,"Duration":93457,"SoundDuration":93457,"Delta":34127237},{"NoteNumber":68,"Velocity":73,"Duration":70093,"SoundDuration":70093,"Delta":34173966},{"NoteNumber":51,"Velocity":73,"Duration":93131,"SoundDuration":93131,"Delta":34220695},{"NoteNumber":73,"Velocity":70,"Duration":69767,"SoundDuration":69767,"Delta":34244059},{"NoteNumber":71,"Velocity":77,"Duration":69659,"SoundDuration":69659,"Delta":34313827},{"NoteNumber":41,"Velocity":67,"Duration":277459,"SoundDuration":277459,"Delta":34313827},{"NoteNumber":68,"Velocity":66,"Duration":69444,"SoundDuration":69444,"Delta":34383487},{"NoteNumber":63,"Velocity":85,"Duration":138355,"SoundDuration":138355,"Delta":34452931},{"NoteNumber":75,"Velocity":70,"Duration":69124,"SoundDuration":69124,"Delta":34522162},{"NoteNumber":62,"Velocity":97,"Duration":410343,"SoundDuration":410343,"Delta":34591287},{"NoteNumber":56,"Velocity":76,"Duration":91743,"SoundDuration":91743,"Delta":34591287},{"NoteNumber":74,"Velocity":66,"Duration":68702,"SoundDuration":68702,"Delta":34660094},{"NoteNumber":47,"Velocity":70,"Duration":91428,"SoundDuration":91428,"Delta":34683030},{"NoteNumber":68,"Velocity":75,"Duration":68493,"SoundDuration":68493,"Delta":34728797},{"NoteNumber":51,"Velocity":77,"Duration":91116,"SoundDuration":91116,"Delta":34774459},{"NoteNumber":73,"Velocity":71,"Duration":68285,"SoundDuration":68285,"Delta":34797290},{"NoteNumber":71,"Velocity":77,"Duration":68181,"SoundDuration":68181,"Delta":34865576},{"NoteNumber":41,"Velocity":72,"Duration":271394,"SoundDuration":271394,"Delta":34865576},{"NoteNumber":68,"Velocity":71,"Duration":67873,"SoundDuration":67873,"Delta":34933757},{"NoteNumber":63,"Velocity":78,"Duration":135339,"SoundDuration":135339,"Delta":35001631},{"NoteNumber":75,"Velocity":72,"Duration":67567,"SoundDuration":67567,"Delta":35069402},{"NoteNumber":65,"Velocity":100,"Duration":410684,"SoundDuration":410684,"Delta":35136970},{"NoteNumber":62,"Velocity":83,"Duration":90090,"SoundDuration":90090,"Delta":35136970},{"NoteNumber":77,"Velocity":72,"Duration":67567,"SoundDuration":67567,"Delta":35204537},{"NoteNumber":53,"Velocity":71,"Duration":90090,"SoundDuration":90090,"Delta":35227060},{"NoteNumber":70,"Velocity":80,"Duration":67567,"SoundDuration":67567,"Delta":35272105},{"NoteNumber":58,"Velocity":77,"Duration":90295,"SoundDuration":90295,"Delta":35317150},{"NoteNumber":75,"Velocity":70,"Duration":67773,"SoundDuration":67773,"Delta":35339673},{"NoteNumber":74,"Velocity":77,"Duration":69339,"SoundDuration":69339,"Delta":35407446},{"NoteNumber":46,"Velocity":71,"Duration":286814,"SoundDuration":286814,"Delta":35407446},{"NoteNumber":70,"Velocity":71,"Duration":70868,"SoundDuration":70868,"Delta":35476786},{"NoteNumber":65,"Velocity":82,"Duration":146606,"SoundDuration":146606,"Delta":35547654},{"NoteNumber":77,"Velocity":75,"Duration":74137,"SoundDuration":74137,"Delta":35620122},{"NoteNumber":66,"Velocity":95,"Duration":485391,"SoundDuration":485391,"Delta":35694260},{"NoteNumber":62,"Velocity":79,"Duration":101661,"SoundDuration":101661,"Delta":35694260},{"NoteNumber":78,"Velocity":69,"Duration":77857,"SoundDuration":77857,"Delta":35770149},{"NoteNumber":53,"Velocity":72,"Duration":104996,"SoundDuration":104996,"Delta":35795922},{"NoteNumber":70,"Velocity":73,"Duration":79649,"SoundDuration":79649,"Delta":35848007},{"NoteNumber":58,"Velocity":76,"Duration":108559,"SoundDuration":108559,"Delta":35900918},{"NoteNumber":75,"Velocity":66,"Duration":81822,"SoundDuration":81822,"Delta":35927656},{"NoteNumber":74,"Velocity":72,"Duration":83959,"SoundDuration":83959,"Delta":36009478},{"NoteNumber":46,"Velocity":71,"Duration":335830,"SoundDuration":335830,"Delta":36009478},{"NoteNumber":70,"Velocity":66,"Duration":86214,"SoundDuration":86214,"Delta":36093438},{"NoteNumber":65,"Velocity":80,"Duration":165656,"SoundDuration":165656,"Delta":36179652},{"NoteNumber":77,"Velocity":71,"Duration":77068,"SoundDuration":77068,"Delta":36268239},{"NoteNumber":63,"Velocity":102,"Duration":420566,"SoundDuration":420566,"Delta":36345308},{"NoteNumber":56,"Velocity":82,"Duration":93896,"SoundDuration":93896,"Delta":36345308},{"NoteNumber":75,"Velocity":71,"Duration":70422,"SoundDuration":70422,"Delta":36415731},{"NoteNumber":47,"Velocity":72,"Duration":93677,"SoundDuration":93677,"Delta":36439205},{"NoteNumber":68,"Velocity":80,"Duration":70093,"SoundDuration":70093,"Delta":36486153},{"NoteNumber":51,"Velocity":76,"Duration":93457,"SoundDuration":93457,"Delta":36532882},{"NoteNumber":73,"Velocity":64,"Duration":70093,"SoundDuration":70093,"Delta":36556247},{"NoteNumber":71,"Velocity":71,"Duration":69767,"SoundDuration":69767,"Delta":36626340},{"NoteNumber":41,"Velocity":72,"Duration":278424,"SoundDuration":278424,"Delta":36626340},{"NoteNumber":68,"Velocity":63,"Duration":69767,"SoundDuration":69767,"Delta":36696108},{"NoteNumber":63,"Velocity":83,"Duration":138888,"SoundDuration":138888,"Delta":36765875},{"NoteNumber":75,"Velocity":70,"Duration":69444,"SoundDuration":69444,"Delta":36835320},{"NoteNumber":62,"Velocity":96,"Duration":413270,"SoundDuration":413270,"Delta":36904764},{"NoteNumber":56,"Velocity":77,"Duration":92165,"SoundDuration":92165,"Delta":36904764},{"NoteNumber":74,"Velocity":64,"Duration":69124,"SoundDuration":69124,"Delta":36973889},{"NoteNumber":47,"Velocity":68,"Duration":92165,"SoundDuration":92165,"Delta":36996930},{"NoteNumber":68,"Velocity":71,"Duration":69018,"SoundDuration":69018,"Delta":37043013},{"NoteNumber":51,"Velocity":73,"Duration":91743,"SoundDuration":91743,"Delta":37089096},{"NoteNumber":73,"Velocity":63,"Duration":68807,"SoundDuration":68807,"Delta":37112032},{"NoteNumber":71,"Velocity":71,"Duration":68702,"SoundDuration":68702,"Delta":37180839},{"NoteNumber":41,"Velocity":65,"Duration":273766,"SoundDuration":273766,"Delta":37180839},{"NoteNumber":68,"Velocity":66,"Duration":68493,"SoundDuration":68493,"Delta":37249542},{"NoteNumber":63,"Velocity":84,"Duration":136571,"SoundDuration":136571,"Delta":37318035},{"NoteNumber":75,"Velocity":71,"Duration":68181,"SoundDuration":68181,"Delta":37386424},{"NoteNumber":65,"Velocity":97,"Duration":410338,"SoundDuration":410338,"Delta":37454606},{"NoteNumber":62,"Velocity":82,"Duration":90703,"SoundDuration":90703,"Delta":37454606},{"NoteNumber":77,"Velocity":69,"Duration":67873,"SoundDuration":67873,"Delta":37522685},{"NoteNumber":53,"Velocity":71,"Duration":90497,"SoundDuration":90497,"Delta":37545310},{"NoteNumber":70,"Velocity":73,"Duration":67771,"SoundDuration":67771,"Delta":37590558},{"NoteNumber":58,"Velocity":77,"Duration":89790,"SoundDuration":89790,"Delta":37635807},{"NoteNumber":75,"Velocity":66,"Duration":67268,"SoundDuration":67268,"Delta":37658330},{"NoteNumber":74,"Velocity":75,"Duration":68811,"SoundDuration":68811,"Delta":37725598},{"NoteNumber":46,"Velocity":70,"Duration":285718,"SoundDuration":285718,"Delta":37725598},{"NoteNumber":70,"Velocity":69,"Duration":70535,"SoundDuration":70535,"Delta":37794409},{"NoteNumber":65,"Velocity":79,"Duration":146371,"SoundDuration":146371,"Delta":37864944},{"NoteNumber":77,"Velocity":72,"Duration":74137,"SoundDuration":74137,"Delta":37937178},{"NoteNumber":70,"Velocity":93,"Duration":490009,"SoundDuration":490009,"Delta":38011316},{"NoteNumber":62,"Velocity":75,"Duration":101920,"SoundDuration":101920,"Delta":38011316},{"NoteNumber":82,"Velocity":57,"Duration":78130,"SoundDuration":78130,"Delta":38087463},{"NoteNumber":53,"Velocity":66,"Duration":105691,"SoundDuration":105691,"Delta":38113237},{"NoteNumber":76,"Velocity":64,"Duration":80360,"SoundDuration":80360,"Delta":38165594},{"NoteNumber":58,"Velocity":72,"Duration":109599,"SoundDuration":109599,"Delta":38218928},{"NoteNumber":78,"Velocity":60,"Duration":82572,"SoundDuration":82572,"Delta":38245955},{"NoteNumber":77,"Velocity":57,"Duration":85070,"SoundDuration":85070,"Delta":38328528},{"NoteNumber":46,"Velocity":66,"Duration":355760,"SoundDuration":355760,"Delta":38328528},{"NoteNumber":74,"Velocity":52,"Duration":87727,"SoundDuration":87727,"Delta":38413598},{"NoteNumber":70,"Velocity":81,"Duration":182962,"SoundDuration":182962,"Delta":38501325},{"NoteNumber":82,"Velocity":45,"Duration":92592,"SoundDuration":92592,"Delta":38591696},{"NoteNumber":63,"Velocity":80,"Duration":448386,"SoundDuration":448386,"Delta":38684288},{"NoteNumber":56,"Velocity":59,"Duration":100000,"SoundDuration":100000,"Delta":38684288},{"NoteNumber":75,"Velocity":38,"Duration":74999,"SoundDuration":74999,"Delta":38759288},{"NoteNumber":47,"Velocity":48,"Duration":99999,"SoundDuration":99999,"Delta":38784288},{"NoteNumber":68,"Velocity":47,"Duration":74875,"SoundDuration":74875,"Delta":38834288},{"NoteNumber":51,"Velocity":55,"Duration":99502,"SoundDuration":99502,"Delta":38884288},{"NoteNumber":73,"Velocity":40,"Duration":74626,"SoundDuration":74626,"Delta":38909164},{"NoteNumber":71,"Velocity":47,"Duration":74626,"SoundDuration":74626,"Delta":38983791},{"NoteNumber":41,"Velocity":42,"Duration":297155,"SoundDuration":297155,"Delta":38983791},{"NoteNumber":68,"Velocity":40,"Duration":74257,"SoundDuration":74257,"Delta":39058418},{"NoteNumber":63,"Velocity":62,"Duration":148270,"SoundDuration":148270,"Delta":39132675},{"NoteNumber":75,"Velocity":44,"Duration":74013,"SoundDuration":74013,"Delta":39206932},{"NoteNumber":62,"Velocity":77,"Duration":441062,"SoundDuration":441062,"Delta":39280946},{"NoteNumber":56,"Velocity":56,"Duration":98522,"SoundDuration":98522,"Delta":39280946},{"NoteNumber":74,"Velocity":40,"Duration":73770,"SoundDuration":73770,"Delta":39354837},{"NoteNumber":47,"Velocity":48,"Duration":98159,"SoundDuration":98159,"Delta":39379468},{"NoteNumber":68,"Velocity":48,"Duration":73529,"SoundDuration":73529,"Delta":39428608},{"NoteNumber":51,"Velocity":53,"Duration":98039,"SoundDuration":98039,"Delta":39477628},{"NoteNumber":73,"Velocity":40,"Duration":73529,"SoundDuration":73529,"Delta":39502138},{"NoteNumber":71,"Velocity":46,"Duration":73170,"SoundDuration":73170,"Delta":39575667},{"NoteNumber":41,"Velocity":41,"Duration":292209,"SoundDuration":292209,"Delta":39575667},{"NoteNumber":68,"Velocity":37,"Duration":73170,"SoundDuration":73170,"Delta":39648838},{"NoteNumber":63,"Velocity":64,"Duration":145867,"SoundDuration":145867,"Delta":39722009},{"NoteNumber":75,"Velocity":44,"Duration":72815,"SoundDuration":72815,"Delta":39795061},{"NoteNumber":65,"Velocity":81,"Duration":434090,"SoundDuration":434090,"Delta":39867876},{"NoteNumber":62,"Velocity":56,"Duration":96970,"SoundDuration":96970,"Delta":39867876},{"NoteNumber":77,"Velocity":38,"Duration":72463,"SoundDuration":72463,"Delta":39940692},{"NoteNumber":53,"Velocity":44,"Duration":96618,"SoundDuration":96618,"Delta":39964846},{"NoteNumber":70,"Velocity":45,"Duration":72463,"SoundDuration":72463,"Delta":40013156},{"NoteNumber":58,"Velocity":52,"Duration":96386,"SoundDuration":96386,"Delta":40061465},{"NoteNumber":75,"Velocity":38,"Duration":72231,"SoundDuration":72231,"Delta":40085619},{"NoteNumber":74,"Velocity":47,"Duration":72115,"SoundDuration":72115,"Delta":40157851},{"NoteNumber":46,"Velocity":42,"Duration":287542,"SoundDuration":287542,"Delta":40157851},{"NoteNumber":70,"Velocity":38,"Duration":72000,"SoundDuration":72000,"Delta":40229966},{"NoteNumber":65,"Velocity":67,"Duration":143426,"SoundDuration":143426,"Delta":40301967},{"NoteNumber":77,"Velocity":44,"Duration":71656,"SoundDuration":71656,"Delta":40373737},{"NoteNumber":66,"Velocity":85,"Duration":441556,"SoundDuration":441556,"Delta":40445393},{"NoteNumber":62,"Velocity":56,"Duration":95809,"SoundDuration":95809,"Delta":40445393},{"NoteNumber":78,"Velocity":38,"Duration":72464,"SoundDuration":72464,"Delta":40517165},{"NoteNumber":53,"Velocity":48,"Duration":97088,"SoundDuration":97088,"Delta":40541203},{"NoteNumber":70,"Velocity":47,"Duration":73171,"SoundDuration":73171,"Delta":40589630},{"NoteNumber":58,"Velocity":53,"Duration":98402,"SoundDuration":98402,"Delta":40638292},{"NoteNumber":75,"Velocity":38,"Duration":73892,"SoundDuration":73892,"Delta":40662802},{"NoteNumber":74,"Velocity":46,"Duration":74751,"SoundDuration":74751,"Delta":40736694},{"NoteNumber":46,"Velocity":45,"Duration":303581,"SoundDuration":303581,"Delta":40736694},{"NoteNumber":70,"Velocity":38,"Duration":75503,"SoundDuration":75503,"Delta":40811446},{"NoteNumber":65,"Velocity":62,"Duration":153326,"SoundDuration":153326,"Delta":40886950},{"NoteNumber":77,"Velocity":44,"Duration":77055,"SoundDuration":77055,"Delta":40963221},{"NoteNumber":63,"Velocity":81,"Duration":441557,"SoundDuration":441557,"Delta":41040276},{"NoteNumber":56,"Velocity":58,"Duration":99009,"SoundDuration":99009,"Delta":41040276},{"NoteNumber":75,"Velocity":40,"Duration":74013,"SoundDuration":74013,"Delta":41114534},{"NoteNumber":47,"Velocity":49,"Duration":98522,"SoundDuration":98522,"Delta":41139286},{"NoteNumber":68,"Velocity":46,"Duration":73770,"SoundDuration":73770,"Delta":41188547},{"NoteNumber":51,"Velocity":52,"Duration":98039,"SoundDuration":98039,"Delta":41237808},{"NoteNumber":73,"Velocity":40,"Duration":73529,"SoundDuration":73529,"Delta":41262318},{"NoteNumber":71,"Velocity":47,"Duration":73170,"SoundDuration":73170,"Delta":41335848},{"NoteNumber":41,"Velocity":45,"Duration":290914,"SoundDuration":290914,"Delta":41335848},{"NoteNumber":68,"Velocity":40,"Duration":72815,"SoundDuration":72815,"Delta":41409018},{"NoteNumber":63,"Velocity":66,"Duration":144928,"SoundDuration":144928,"Delta":41481834},{"NoteNumber":75,"Velocity":46,"Duration":72347,"SoundDuration":72347,"Delta":41554415},{"NoteNumber":62,"Velocity":78,"Duration":427912,"SoundDuration":427912,"Delta":41626762},{"NoteNumber":56,"Velocity":57,"Duration":95923,"SoundDuration":95923,"Delta":41626762},{"NoteNumber":74,"Velocity":40,"Duration":71770,"SoundDuration":71770,"Delta":41698763},{"NoteNumber":47,"Velocity":47,"Duration":95466,"SoundDuration":95466,"Delta":41722686},{"NoteNumber":68,"Velocity":46,"Duration":71428,"SoundDuration":71428,"Delta":41770533},{"NoteNumber":51,"Velocity":53,"Duration":95012,"SoundDuration":95012,"Delta":41818152},{"NoteNumber":73,"Velocity":40,"Duration":71202,"SoundDuration":71202,"Delta":41841962},{"NoteNumber":71,"Velocity":48,"Duration":70866,"SoundDuration":70866,"Delta":41913165},{"NoteNumber":41,"Velocity":47,"Duration":282026,"SoundDuration":282026,"Delta":41913165},{"NoteNumber":68,"Velocity":40,"Duration":70643,"SoundDuration":70643,"Delta":41984031},{"NoteNumber":63,"Velocity":66,"Duration":140515,"SoundDuration":140515,"Delta":42054675},{"NoteNumber":75,"Velocity":47,"Duration":70093,"SoundDuration":70093,"Delta":42125098},{"NoteNumber":65,"Velocity":84,"Duration":456981,"SoundDuration":456981,"Delta":42195191},{"NoteNumber":62,"Velocity":60,"Duration":93907,"SoundDuration":93907,"Delta":42195191},{"NoteNumber":77,"Velocity":44,"Duration":72238,"SoundDuration":72238,"Delta":42265289},{"NoteNumber":53,"Velocity":53,"Duration":97934,"SoundDuration":97934,"Delta":42289098},{"NoteNumber":70,"Velocity":48,"Duration":74631,"SoundDuration":74631,"Delta":42337527},{"NoteNumber":58,"Velocity":58,"Duration":102321,"SoundDuration":102321,"Delta":42387033},{"NoteNumber":75,"Velocity":45,"Duration":77195,"SoundDuration":77195,"Delta":42412159},{"NoteNumber":74,"Velocity":50,"Duration":79938,"SoundDuration":79938,"Delta":42489354},{"NoteNumber":46,"Velocity":50,"Duration":337807,"SoundDuration":337807,"Delta":42489354},{"NoteNumber":70,"Velocity":45,"Duration":82879,"SoundDuration":82879,"Delta":42569293},{"NoteNumber":65,"Velocity":67,"Duration":174989,"SoundDuration":174989,"Delta":42652173},{"NoteNumber":77,"Velocity":48,"Duration":88935,"SoundDuration":88935,"Delta":42738227},{"NoteNumber":65,"Velocity":86,"Duration":592105,"SoundDuration":592105,"Delta":42827162},{"NoteNumber":59,"Velocity":61,"Duration":131579,"SoundDuration":131579,"Delta":42827162},{"NoteNumber":77,"Velocity":44,"Duration":98684,"SoundDuration":98684,"Delta":42925846},{"NoteNumber":49,"Velocity":53,"Duration":131578,"SoundDuration":131578,"Delta":42958741},{"NoteNumber":72,"Velocity":51,"Duration":98684,"SoundDuration":98684,"Delta":43024531},{"NoteNumber":53,"Velocity":62,"Duration":131579,"SoundDuration":131579,"Delta":43090320},{"NoteNumber":74,"Velocity":45,"Duration":98684,"SoundDuration":98684,"Delta":43123215},{"NoteNumber":73,"Velocity":51,"Duration":98684,"SoundDuration":98684,"Delta":43221899},{"NoteNumber":44,"Velocity":55,"Duration":386998,"SoundDuration":386998,"Delta":43221899},{"NoteNumber":71,"Velocity":45,"Duration":98684,"SoundDuration":98684,"Delta":43320583},{"NoteNumber":61,"Velocity":77,"Duration":189629,"SoundDuration":189629,"Delta":43419268},{"NoteNumber":73,"Velocity":46,"Duration":92784,"SoundDuration":92784,"Delta":43516113},{"NoteNumber":61,"Velocity":92,"Duration":514039,"SoundDuration":514039,"Delta":43608897},{"NoteNumber":57,"Velocity":64,"Duration":116111,"SoundDuration":116111,"Delta":43608897},{"NoteNumber":73,"Velocity":47,"Duration":86539,"SoundDuration":86539,"Delta":43696107},{"NoteNumber":49,"Velocity":55,"Duration":115108,"SoundDuration":115108,"Delta":43725008},{"NoteNumber":68,"Velocity":57,"Duration":86042,"SoundDuration":86042,"Delta":43782646},{"NoteNumber":54,"Velocity":59,"Duration":113961,"SoundDuration":113961,"Delta":43840117},{"NoteNumber":71,"Velocity":50,"Duration":85389,"SoundDuration":85389,"Delta":43868689},{"NoteNumber":69,"Velocity":59,"Duration":84745,"SoundDuration":84745,"Delta":43954078},{"NoteNumber":42,"Velocity":57,"Duration":335373,"SoundDuration":335373,"Delta":43954078},{"NoteNumber":66,"Velocity":50,"Duration":84112,"SoundDuration":84112,"Delta":44038824},{"NoteNumber":62,"Velocity":71,"Duration":166514,"SoundDuration":166514,"Delta":44122937},{"NoteNumber":74,"Velocity":55,"Duration":83026,"SoundDuration":83026,"Delta":44206425},{"NoteNumber":61,"Velocity":83,"Duration":485536,"SoundDuration":485536,"Delta":44289451},{"NoteNumber":57,"Velocity":66,"Duration":109589,"SoundDuration":109589,"Delta":44289451},{"NoteNumber":73,"Velocity":47,"Duration":81818,"SoundDuration":81818,"Delta":44371719},{"NoteNumber":49,"Velocity":55,"Duration":108697,"SoundDuration":108697,"Delta":44399041},{"NoteNumber":68,"Velocity":56,"Duration":81227,"SoundDuration":81227,"Delta":44453538},{"NoteNumber":54,"Velocity":61,"Duration":107672,"SoundDuration":107672,"Delta":44507739},{"NoteNumber":71,"Velocity":48,"Duration":80645,"SoundDuration":80645,"Delta":44534766},{"NoteNumber":69,"Velocity":57,"Duration":80071,"SoundDuration":80071,"Delta":44615411},{"NoteNumber":45,"Velocity":56,"Duration":316926,"SoundDuration":316926,"Delta":44615411},{"NoteNumber":68,"Velocity":47,"Duration":79505,"SoundDuration":79505,"Delta":44695483},{"NoteNumber":66,"Velocity":75,"Duration":157349,"SoundDuration":157349,"Delta":44774988},{"NoteNumber":78,"Velocity":56,"Duration":78262,"SoundDuration":78262,"Delta":44854075},{"NoteNumber":66,"Velocity":93,"Duration":469167,"SoundDuration":469167,"Delta":44932338},{"NoteNumber":62,"Velocity":70,"Duration":103627,"SoundDuration":103627,"Delta":44932338},{"NoteNumber":78,"Velocity":48,"Duration":77855,"SoundDuration":77855,"Delta":45010058},{"NoteNumber":56,"Velocity":59,"Duration":104031,"SoundDuration":104031,"Delta":45035965},{"NoteNumber":70,"Velocity":60,"Duration":78125,"SoundDuration":78125,"Delta":45087913},{"NoteNumber":59,"Velocity":64,"Duration":104303,"SoundDuration":104303,"Delta":45139996},{"NoteNumber":73,"Velocity":48,"Duration":78261,"SoundDuration":78261,"Delta":45166038},{"NoteNumber":71,"Velocity":61,"Duration":78533,"SoundDuration":78533,"Delta":45244299},{"NoteNumber":54,"Velocity":59,"Duration":315239,"SoundDuration":315239,"Delta":45244299},{"NoteNumber":68,"Velocity":51,"Duration":78671,"SoundDuration":78671,"Delta":45322833},{"NoteNumber":65,"Velocity":70,"Duration":158033,"SoundDuration":158033,"Delta":45401505},{"NoteNumber":77,"Velocity":59,"Duration":79086,"SoundDuration":79086,"Delta":45480453},{"NoteNumber":69,"Velocity":84,"Duration":479159,"SoundDuration":479159,"Delta":45559539},{"NoteNumber":61,"Velocity":70,"Duration":105820,"SoundDuration":105820,"Delta":45559539},{"NoteNumber":81,"Velocity":51,"Duration":79505,"SoundDuration":79505,"Delta":45638904},{"NoteNumber":53,"Velocity":59,"Duration":106242,"SoundDuration":106242,"Delta":45665359},{"NoteNumber":72,"Velocity":63,"Duration":79787,"SoundDuration":79787,"Delta":45718410},{"NoteNumber":59,"Velocity":66,"Duration":106525,"SoundDuration":106525,"Delta":45771602},{"NoteNumber":74,"Velocity":55,"Duration":79929,"SoundDuration":79929,"Delta":45798197},{"NoteNumber":73,"Velocity":63,"Duration":80213,"SoundDuration":80213,"Delta":45878127},{"NoteNumber":49,"Velocity":58,"Duration":319370,"SoundDuration":319370,"Delta":45878127},{"NoteNumber":71,"Velocity":60,"Duration":80357,"SoundDuration":80357,"Delta":45958341},{"NoteNumber":68,"Velocity":67,"Duration":158798,"SoundDuration":158798,"Delta":46038698},{"NoteNumber":80,"Velocity":60,"Duration":78153,"SoundDuration":78153,"Delta":46119344},{"NoteNumber":61,"Velocity":93,"Duration":432274,"SoundDuration":432274,"Delta":46197497},{"NoteNumber":57,"Velocity":73,"Duration":97324,"SoundDuration":97324,"Delta":46197497},{"NoteNumber":73,"Velocity":52,"Duration":72698,"SoundDuration":72698,"Delta":46270550},{"NoteNumber":49,"Velocity":60,"Duration":96619,"SoundDuration":96619,"Delta":46294821},{"NoteNumber":68,"Velocity":60,"Duration":72231,"SoundDuration":72231,"Delta":46343248},{"NoteNumber":54,"Velocity":68,"Duration":95923,"SoundDuration":95923,"Delta":46391441},{"NoteNumber":71,"Velocity":51,"Duration":71885,"SoundDuration":71885,"Delta":46415479},{"NoteNumber":69,"Velocity":61,"Duration":71428,"SoundDuration":71428,"Delta":46487365},{"NoteNumber":42,"Velocity":58,"Duration":283254,"SoundDuration":283254,"Delta":46487365},{"NoteNumber":66,"Velocity":51,"Duration":70978,"SoundDuration":70978,"Delta":46558793},{"NoteNumber":62,"Velocity":70,"Duration":140847,"SoundDuration":140847,"Delta":46629772},{"NoteNumber":74,"Velocity":60,"Duration":70203,"SoundDuration":70203,"Delta":46700416},{"NoteNumber":61,"Velocity":86,"Duration":413303,"SoundDuration":413303,"Delta":46770619},{"NoteNumber":57,"Velocity":73,"Duration":93024,"SoundDuration":93024,"Delta":46770619},{"NoteNumber":73,"Velocity":55,"Duration":69444,"SoundDuration":69444,"Delta":46840495},{"NoteNumber":49,"Velocity":60,"Duration":92379,"SoundDuration":92379,"Delta":46863643},{"NoteNumber":68,"Velocity":63,"Duration":69018,"SoundDuration":69018,"Delta":46909939},{"NoteNumber":54,"Velocity":64,"Duration":91638,"SoundDuration":91638,"Delta":46956022},{"NoteNumber":71,"Velocity":52,"Duration":68702,"SoundDuration":68702,"Delta":46978958},{"NoteNumber":69,"Velocity":63,"Duration":68285,"SoundDuration":68285,"Delta":47047661},{"NoteNumber":45,"Velocity":58,"Duration":270993,"SoundDuration":270993,"Delta":47047661},{"NoteNumber":68,"Velocity":52,"Duration":67976,"SoundDuration":67976,"Delta":47115946},{"NoteNumber":66,"Velocity":79,"Duration":134732,"SoundDuration":134732,"Delta":47183922},{"NoteNumber":81,"Velocity":62,"Duration":67164,"SoundDuration":67164,"Delta":47251490},{"NoteNumber":69,"Velocity":91,"Duration":405624,"SoundDuration":405624,"Delta":47318655},{"NoteNumber":65,"Velocity":72,"Duration":89385,"SoundDuration":89385,"Delta":47318655},{"NoteNumber":81,"Velocity":56,"Duration":67264,"SoundDuration":67264,"Delta":47385619},{"NoteNumber":59,"Velocity":60,"Duration":89787,"SoundDuration":89787,"Delta":47408040},{"NoteNumber":73,"Velocity":64,"Duration":67466,"SoundDuration":67466,"Delta":47452883},{"NoteNumber":62,"Velocity":66,"Duration":90293,"SoundDuration":90293,"Delta":47497828},{"NoteNumber":76,"Velocity":52,"Duration":67771,"SoundDuration":67771,"Delta":47520350},{"NoteNumber":74,"Velocity":64,"Duration":67976,"SoundDuration":67976,"Delta":47588121},{"NoteNumber":53,"Velocity":58,"Duration":273458,"SoundDuration":273458,"Delta":47588121},{"NoteNumber":71,"Velocity":55,"Duration":68181,"SoundDuration":68181,"Delta":47656098},{"NoteNumber":68,"Velocity":75,"Duration":137300,"SoundDuration":137300,"Delta":47724279},{"NoteNumber":80,"Velocity":62,"Duration":68807,"SoundDuration":68807,"Delta":47792773},{"NoteNumber":73,"Velocity":100,"Duration":418192,"SoundDuration":418192,"Delta":47861580},{"NoteNumber":64,"Velocity":74,"Duration":92060,"SoundDuration":92060,"Delta":47861580},{"NoteNumber":85,"Velocity":56,"Duration":69337,"SoundDuration":69337,"Delta":47930599},{"NoteNumber":56,"Velocity":59,"Duration":92592,"SoundDuration":92592,"Delta":47953640},{"NoteNumber":75,"Velocity":66,"Duration":69552,"SoundDuration":69552,"Delta":47999936},{"NoteNumber":62,"Velocity":66,"Duration":93023,"SoundDuration":93023,"Delta":48046233},{"NoteNumber":78,"Velocity":59,"Duration":69767,"SoundDuration":69767,"Delta":48069489},{"NoteNumber":76,"Velocity":69,"Duration":70093,"SoundDuration":70093,"Delta":48139256},{"NoteNumber":52,"Velocity":60,"Duration":282138,"SoundDuration":282138,"Delta":48139256},{"NoteNumber":74,"Velocity":59,"Duration":70422,"SoundDuration":70422,"Delta":48209350},{"NoteNumber":71,"Velocity":78,"Duration":141622,"SoundDuration":141622,"Delta":48279772},{"NoteNumber":83,"Velocity":69,"Duration":70978,"SoundDuration":70978,"Delta":48350416},{"NoteNumber":71,"Velocity":101,"Duration":426540,"SoundDuration":426540,"Delta":48421394},{"NoteNumber":67,"Velocity":78,"Duration":94786,"SoundDuration":94786,"Delta":48421394},{"NoteNumber":83,"Velocity":61,"Duration":71090,"SoundDuration":71090,"Delta":48492484},{"NoteNumber":61,"Velocity":66,"Duration":94786,"SoundDuration":94786,"Delta":48516181},{"NoteNumber":75,"Velocity":70,"Duration":71089,"SoundDuration":71089,"Delta":48563574},{"NoteNumber":64,"Velocity":73,"Duration":94786,"SoundDuration":94786,"Delta":48610968},{"NoteNumber":78,"Velocity":60,"Duration":71089,"SoundDuration":71089,"Delta":48634664},{"NoteNumber":76,"Velocity":70,"Duration":71090,"SoundDuration":71090,"Delta":48705754},{"NoteNumber":55,"Velocity":62,"Duration":284359,"SoundDuration":284359,"Delta":48705754},{"NoteNumber":73,"Velocity":60,"Duration":71089,"SoundDuration":71089,"Delta":48776844},{"NoteNumber":70,"Velocity":84,"Duration":142179,"SoundDuration":142179,"Delta":48847934},{"NoteNumber":82,"Velocity":71,"Duration":71089,"SoundDuration":71089,"Delta":48919024},{"NoteNumber":74,"Velocity":98,"Duration":426540,"SoundDuration":426540,"Delta":48990114},{"NoteNumber":66,"Velocity":82,"Duration":94786,"SoundDuration":94786,"Delta":48990114},{"NoteNumber":86,"Velocity":62,"Duration":71089,"SoundDuration":71089,"Delta":49061204},{"NoteNumber":58,"Velocity":70,"Duration":94786,"SoundDuration":94786,"Delta":49084901},{"NoteNumber":77,"Velocity":71,"Duration":71089,"SoundDuration":71089,"Delta":49132294},{"NoteNumber":64,"Velocity":77,"Duration":94786,"SoundDuration":94786,"Delta":49179688},{"NoteNumber":79,"Velocity":63,"Duration":71089,"SoundDuration":71089,"Delta":49203384},{"NoteNumber":78,"Velocity":71,"Duration":71090,"SoundDuration":71090,"Delta":49274474},{"NoteNumber":54,"Velocity":68,"Duration":284359,"SoundDuration":284359,"Delta":49274474},{"NoteNumber":76,"Velocity":63,"Duration":71089,"SoundDuration":71089,"Delta":49345564},{"NoteNumber":73,"Velocity":79,"Duration":142179,"SoundDuration":142179,"Delta":49416654},{"NoteNumber":85,"Velocity":72,"Duration":71089,"SoundDuration":71089,"Delta":49487744},{"NoteNumber":73,"Velocity":107,"Duration":430318,"SoundDuration":430318,"Delta":49558834},{"NoteNumber":69,"Velocity":86,"Duration":94451,"SoundDuration":94451,"Delta":49558834},{"NoteNumber":85,"Velocity":63,"Duration":71089,"SoundDuration":71089,"Delta":49629589},{"NoteNumber":63,"Velocity":72,"Duration":95012,"SoundDuration":95012,"Delta":49653286},{"NoteNumber":77,"Velocity":73,"Duration":71542,"SoundDuration":71542,"Delta":49700679},{"NoteNumber":66,"Velocity":79,"Duration":95808,"SoundDuration":95808,"Delta":49748298},{"NoteNumber":80,"Velocity":66,"Duration":71885,"SoundDuration":71885,"Delta":49772222},{"NoteNumber":78,"Velocity":73,"Duration":72347,"SoundDuration":72347,"Delta":49844107},{"NoteNumber":57,"Velocity":73,"Duration":291866,"SoundDuration":291866,"Delta":49844107},{"NoteNumber":75,"Velocity":63,"Duration":72698,"SoundDuration":72698,"Delta":49916455},{"NoteNumber":72,"Velocity":84,"Duration":146820,"SoundDuration":146820,"Delta":49989153},{"NoteNumber":84,"Velocity":73,"Duration":73650,"SoundDuration":73650,"Delta":50062324},{"NoteNumber":77,"Velocity":105,"Duration":495593,"SoundDuration":495593,"Delta":50135974},{"NoteNumber":72,"Velocity":86,"Duration":102777,"SoundDuration":102777,"Delta":50135974},{"NoteNumber":89,"Velocity":64,"Duration":77970,"SoundDuration":77970,"Delta":50212978},{"NoteNumber":66,"Velocity":74,"Duration":106202,"SoundDuration":106202,"Delta":50238751},{"NoteNumber":80,"Velocity":75,"Duration":81299,"SoundDuration":81299,"Delta":50290949},{"NoteNumber":69,"Velocity":79,"Duration":111760,"SoundDuration":111760,"Delta":50344953},{"NoteNumber":83,"Velocity":69,"Duration":84465,"SoundDuration":84465,"Delta":50372248},{"NoteNumber":81,"Velocity":75,"Duration":86540,"SoundDuration":86540,"Delta":50456713},{"NoteNumber":60,"Velocity":74,"Duration":356939,"SoundDuration":356939,"Delta":50456713},{"NoteNumber":80,"Velocity":69,"Duration":88313,"SoundDuration":88313,"Delta":50543254},{"NoteNumber":78,"Velocity":84,"Duration":182084,"SoundDuration":182084,"Delta":50631568},{"NoteNumber":90,"Velocity":77,"Duration":92223,"SoundDuration":92223,"Delta":50721429},{"NoteNumber":80,"Velocity":108,"Duration":450000,"SoundDuration":450000,"Delta":50813653},{"NoteNumber":78,"Velocity":89,"Duration":100000,"SoundDuration":100000,"Delta":50813653},{"NoteNumber":92,"Velocity":70,"Duration":74999,"SoundDuration":74999,"Delta":50888653},{"NoteNumber":69,"Velocity":76,"Duration":100000,"SoundDuration":100000,"Delta":50913653},{"NoteNumber":86,"Velocity":81,"Duration":75000,"SoundDuration":75000,"Delta":50963653},{"NoteNumber":72,"Velocity":84,"Duration":99999,"SoundDuration":99999,"Delta":51013653},{"NoteNumber":89,"Velocity":71,"Duration":74999,"SoundDuration":74999,"Delta":51038653},{"NoteNumber":87,"Velocity":78,"Duration":75000,"SoundDuration":75000,"Delta":51113653},{"NoteNumber":63,"Velocity":76,"Duration":300000,"SoundDuration":300000,"Delta":51113653},{"NoteNumber":84,"Velocity":72,"Duration":75000,"SoundDuration":75000,"Delta":51188653},{"NoteNumber":81,"Velocity":95,"Duration":149999,"SoundDuration":149999,"Delta":51263653},{"NoteNumber":93,"Velocity":77,"Duration":75000,"SoundDuration":75000,"Delta":51338653},{"NoteNumber":80,"Velocity":106,"Duration":449999,"SoundDuration":449999,"Delta":51413653},{"NoteNumber":78,"Velocity":85,"Duration":100000,"SoundDuration":100000,"Delta":51413653},{"NoteNumber":92,"Velocity":71,"Duration":75000,"SoundDuration":75000,"Delta":51488653},{"NoteNumber":69,"Velocity":78,"Duration":99999,"SoundDuration":99999,"Delta":51513653},{"NoteNumber":86,"Velocity":77,"Duration":75000,"SoundDuration":75000,"Delta":51563653},{"NoteNumber":72,"Velocity":87,"Duration":100000,"SoundDuration":100000,"Delta":51613653},{"NoteNumber":89,"Velocity":75,"Duration":74999,"SoundDuration":74999,"Delta":51638653},{"NoteNumber":87,"Velocity":71,"Duration":75000,"SoundDuration":75000,"Delta":51713653},{"NoteNumber":63,"Velocity":78,"Duration":300000,"SoundDuration":300000,"Delta":51713653},{"NoteNumber":84,"Velocity":69,"Duration":74999,"SoundDuration":74999,"Delta":51788653},{"NoteNumber":81,"Velocity":89,"Duration":150000,"SoundDuration":150000,"Delta":51863653},{"NoteNumber":93,"Velocity":77,"Duration":75000,"SoundDuration":75000,"Delta":51938653},{"NoteNumber":80,"Velocity":109,"Duration":461619,"SoundDuration":461619,"Delta":52013653},{"NoteNumber":78,"Velocity":88,"Duration":100756,"SoundDuration":100756,"Delta":52013653},{"NoteNumber":92,"Velocity":70,"Duration":76013,"SoundDuration":76013,"Delta":52089157},{"NoteNumber":69,"Velocity":78,"Duration":101781,"SoundDuration":101781,"Delta":52114409},{"NoteNumber":85,"Velocity":77,"Duration":76661,"SoundDuration":76661,"Delta":52165170},{"NoteNumber":72,"Velocity":87,"Duration":102828,"SoundDuration":102828,"Delta":52216191},{"NoteNumber":88,"Velocity":72,"Duration":77187,"SoundDuration":77187,"Delta":52241832},{"NoteNumber":86,"Velocity":78,"Duration":77855,"SoundDuration":77855,"Delta":52319019},{"NoteNumber":62,"Velocity":77,"Duration":315128,"SoundDuration":315128,"Delta":52319019},{"NoteNumber":84,"Velocity":71,"Duration":78397,"SoundDuration":78397,"Delta":52396875},{"NoteNumber":81,"Velocity":92,"Duration":158875,"SoundDuration":158875,"Delta":52475272},{"NoteNumber":93,"Velocity":77,"Duration":79788,"SoundDuration":79788,"Delta":52554359},{"NoteNumber":80,"Velocity":104,"Duration":518037,"SoundDuration":518037,"Delta":52634148},{"NoteNumber":78,"Velocity":90,"Duration":107620,"SoundDuration":107620,"Delta":52634148},{"NoteNumber":92,"Velocity":75,"Duration":84224,"SoundDuration":84224,"Delta":52714361},{"NoteNumber":69,"Velocity":81,"Duration":114161,"SoundDuration":114161,"Delta":52741768},{"NoteNumber":85,"Velocity":82,"Duration":86413,"SoundDuration":86413,"Delta":52798586},{"NoteNumber":72,"Velocity":87,"Duration":117099,"SoundDuration":117099,"Delta":52855930},{"NoteNumber":88,"Velocity":75,"Duration":88030,"SoundDuration":88030,"Delta":52884999},{"NoteNumber":86,"Velocity":78,"Duration":88865,"SoundDuration":88865,"Delta":52973030},{"NoteNumber":62,"Velocity":77,"Duration":361641,"SoundDuration":361641,"Delta":52973030},{"NoteNumber":84,"Velocity":71,"Duration":90289,"SoundDuration":90289,"Delta":53061895},{"NoteNumber":81,"Velocity":86,"Duration":182485,"SoundDuration":182485,"Delta":53152185},{"NoteNumber":93,"Velocity":77,"Duration":91463,"SoundDuration":91463,"Delta":53243207},{"NoteNumber":81,"Velocity":109,"Duration":476190,"SoundDuration":476190,"Delta":53334671},{"NoteNumber":78,"Velocity":89,"Duration":105820,"SoundDuration":105820,"Delta":53334671},{"NoteNumber":93,"Velocity":70,"Duration":79365,"SoundDuration":79365,"Delta":53414036},{"NoteNumber":69,"Velocity":76,"Duration":105820,"SoundDuration":105820,"Delta":53440491},{"NoteNumber":89,"Velocity":77,"Duration":79365,"SoundDuration":79365,"Delta":53493401},{"NoteNumber":73,"Velocity":83,"Duration":105820,"SoundDuration":105820,"Delta":53546311},{"NoteNumber":92,"Velocity":70,"Duration":79365,"SoundDuration":79365,"Delta":53572766},{"NoteNumber":90,"Velocity":77,"Duration":79365,"SoundDuration":79365,"Delta":53652131},{"NoteNumber":61,"Velocity":75,"Duration":317460,"SoundDuration":317460,"Delta":53652131},{"NoteNumber":85,"Velocity":66,"Duration":79365,"SoundDuration":79365,"Delta":53731496},{"NoteNumber":81,"Velocity":90,"Duration":158730,"SoundDuration":158730,"Delta":53810862},{"NoteNumber":93,"Velocity":70,"Duration":79365,"SoundDuration":79365,"Delta":53890227},{"NoteNumber":80,"Velocity":105,"Duration":476190,"SoundDuration":476190,"Delta":53969592},{"NoteNumber":76,"Velocity":87,"Duration":105820,"SoundDuration":105820,"Delta":53969592},{"NoteNumber":92,"Velocity":69,"Duration":79365,"SoundDuration":79365,"Delta":54048957},{"NoteNumber":68,"Velocity":77,"Duration":105820,"SoundDuration":105820,"Delta":54075412},{"NoteNumber":87,"Velocity":78,"Duration":79365,"SoundDuration":79365,"Delta":54128322},{"NoteNumber":73,"Velocity":83,"Duration":105820,"SoundDuration":105820,"Delta":54181232},{"NoteNumber":90,"Velocity":71,"Duration":79365,"SoundDuration":79365,"Delta":54207687},{"NoteNumber":88,"Velocity":77,"Duration":79365,"SoundDuration":79365,"Delta":54287052},{"NoteNumber":61,"Velocity":74,"Duration":317460,"SoundDuration":317460,"Delta":54287052},{"NoteNumber":85,"Velocity":69,"Duration":79365,"SoundDuration":79365,"Delta":54366417},{"NoteNumber":80,"Velocity":86,"Duration":158730,"SoundDuration":158730,"Delta":54445783},{"NoteNumber":92,"Velocity":72,"Duration":79365,"SoundDuration":79365,"Delta":54525148},{"NoteNumber":76,"Velocity":106,"Duration":436892,"SoundDuration":436892,"Delta":54604513},{"NoteNumber":73,"Velocity":87,"Duration":97087,"SoundDuration":97087,"Delta":54604513},{"NoteNumber":88,"Velocity":64,"Duration":72815,"SoundDuration":72815,"Delta":54677328},{"NoteNumber":64,"Velocity":77,"Duration":97087,"SoundDuration":97087,"Delta":54701600},{"NoteNumber":83,"Velocity":73,"Duration":72815,"SoundDuration":72815,"Delta":54750144},{"NoteNumber":69,"Velocity":84,"Duration":97087,"SoundDuration":97087,"Delta":54798688},{"NoteNumber":86,"Velocity":66,"Duration":72815,"SoundDuration":72815,"Delta":54822959},{"NoteNumber":85,"Velocity":71,"Duration":72815,"SoundDuration":72815,"Delta":54895775},{"NoteNumber":57,"Velocity":76,"Duration":291261,"SoundDuration":291261,"Delta":54895775},{"NoteNumber":81,"Velocity":63,"Duration":72815,"SoundDuration":72815,"Delta":54968590},{"NoteNumber":76,"Velocity":94,"Duration":145631,"SoundDuration":145631,"Delta":55041406},{"NoteNumber":88,"Velocity":71,"Duration":72815,"SoundDuration":72815,"Delta":55114221},{"NoteNumber":73,"Velocity":100,"Duration":436892,"SoundDuration":436892,"Delta":55187037},{"NoteNumber":69,"Velocity":80,"Duration":97087,"SoundDuration":97087,"Delta":55187037},{"NoteNumber":85,"Velocity":64,"Duration":72815,"SoundDuration":72815,"Delta":55259852},{"NoteNumber":61,"Velocity":73,"Duration":97087,"SoundDuration":97087,"Delta":55284124},{"NoteNumber":80,"Velocity":71,"Duration":72815,"SoundDuration":72815,"Delta":55332668},{"NoteNumber":66,"Velocity":79,"Duration":97087,"SoundDuration":97087,"Delta":55381212},{"NoteNumber":83,"Velocity":64,"Duration":72815,"SoundDuration":72815,"Delta":55405483},{"NoteNumber":81,"Velocity":70,"Duration":72815,"SoundDuration":72815,"Delta":55478299},{"NoteNumber":54,"Velocity":74,"Duration":291261,"SoundDuration":291261,"Delta":55478299},{"NoteNumber":78,"Velocity":62,"Duration":72815,"SoundDuration":72815,"Delta":55551114},{"NoteNumber":73,"Velocity":86,"Duration":145631,"SoundDuration":145631,"Delta":55623930},{"NoteNumber":85,"Velocity":63,"Duration":72815,"SoundDuration":72815,"Delta":55696745},{"NoteNumber":68,"Velocity":100,"Duration":439152,"SoundDuration":439152,"Delta":55769561},{"NoteNumber":64,"Velocity":84,"Duration":97087,"SoundDuration":97087,"Delta":55769561},{"NoteNumber":80,"Velocity":59,"Duration":72815,"SoundDuration":72815,"Delta":55842376},{"NoteNumber":56,"Velocity":68,"Duration":97324,"SoundDuration":97324,"Delta":55866648},{"NoteNumber":75,"Velocity":69,"Duration":73170,"SoundDuration":73170,"Delta":55915192},{"NoteNumber":61,"Velocity":78,"Duration":97560,"SoundDuration":97560,"Delta":55963972},{"NoteNumber":78,"Velocity":61,"Duration":73170,"SoundDuration":73170,"Delta":55988363},{"NoteNumber":76,"Velocity":66,"Duration":73529,"SoundDuration":73529,"Delta":56061533},{"NoteNumber":49,"Velocity":67,"Duration":295084,"SoundDuration":295084,"Delta":56061533},{"NoteNumber":73,"Velocity":62,"Duration":73650,"SoundDuration":73650,"Delta":56135063},{"NoteNumber":68,"Velocity":84,"Duration":147905,"SoundDuration":147905,"Delta":56208713},{"NoteNumber":80,"Velocity":62,"Duration":74013,"SoundDuration":74013,"Delta":56282604},{"NoteNumber":66,"Velocity":96,"Duration":448640,"SoundDuration":448640,"Delta":56356618},{"NoteNumber":62,"Velocity":78,"Duration":99009,"SoundDuration":99009,"Delta":56356618},{"NoteNumber":78,"Velocity":57,"Duration":74503,"SoundDuration":74503,"Delta":56430875},{"NoteNumber":54,"Velocity":67,"Duration":99502,"SoundDuration":99502,"Delta":56455628},{"NoteNumber":73,"Velocity":64,"Duration":74626,"SoundDuration":74626,"Delta":56505379},{"NoteNumber":57,"Velocity":74,"Duration":99751,"SoundDuration":99751,"Delta":56555130},{"NoteNumber":76,"Velocity":57,"Duration":74875,"SoundDuration":74875,"Delta":56580006},{"NoteNumber":74,"Velocity":64,"Duration":75000,"SoundDuration":75000,"Delta":56654882},{"NoteNumber":50,"Velocity":68,"Duration":301511,"SoundDuration":301511,"Delta":56654882},{"NoteNumber":69,"Velocity":52,"Duration":75376,"SoundDuration":75376,"Delta":56729882},{"NoteNumber":66,"Velocity":83,"Duration":151134,"SoundDuration":151134,"Delta":56805258},{"NoteNumber":78,"Velocity":61,"Duration":75757,"SoundDuration":75757,"Delta":56880635},{"NoteNumber":64,"Velocity":100,"Duration":458545,"SoundDuration":458545,"Delta":56956393},{"NoteNumber":61,"Velocity":78,"Duration":101266,"SoundDuration":101266,"Delta":56956393},{"NoteNumber":76,"Velocity":55,"Duration":76142,"SoundDuration":76142,"Delta":57032279},{"NoteNumber":52,"Velocity":70,"Duration":101522,"SoundDuration":101522,"Delta":57057659},{"NoteNumber":71,"Velocity":64,"Duration":76271,"SoundDuration":76271,"Delta":57108421},{"NoteNumber":57,"Velocity":79,"Duration":102040,"SoundDuration":102040,"Delta":57159182},{"NoteNumber":74,"Velocity":59,"Duration":76530,"SoundDuration":76530,"Delta":57184693},{"NoteNumber":73,"Velocity":63,"Duration":76792,"SoundDuration":76792,"Delta":57261223},{"NoteNumber":45,"Velocity":67,"Duration":308222,"SoundDuration":308222,"Delta":57261223},{"NoteNumber":69,"Velocity":56,"Duration":76923,"SoundDuration":76923,"Delta":57338015},{"NoteNumber":64,"Velocity":79,"Duration":154507,"SoundDuration":154507,"Delta":57414939},{"NoteNumber":76,"Velocity":60,"Duration":77319,"SoundDuration":77319,"Delta":57492126},{"NoteNumber":62,"Velocity":90,"Duration":466321,"SoundDuration":466321,"Delta":57569446},{"NoteNumber":59,"Velocity":77,"Duration":103627,"SoundDuration":103627,"Delta":57569446},{"NoteNumber":74,"Velocity":52,"Duration":77720,"SoundDuration":77720,"Delta":57647166},{"NoteNumber":50,"Velocity":67,"Duration":103626,"SoundDuration":103626,"Delta":57673073},{"NoteNumber":69,"Velocity":62,"Duration":77720,"SoundDuration":77720,"Delta":57724886},{"NoteNumber":55,"Velocity":77,"Duration":103627,"SoundDuration":103627,"Delta":57776700},{"NoteNumber":73,"Velocity":52,"Duration":77720,"SoundDuration":77720,"Delta":57802606},{"NoteNumber":71,"Velocity":61,"Duration":77720,"SoundDuration":77720,"Delta":57880327},{"NoteNumber":47,"Velocity":69,"Duration":310880,"SoundDuration":310880,"Delta":57880327},{"NoteNumber":67,"Velocity":55,"Duration":77720,"SoundDuration":77720,"Delta":57958047},{"NoteNumber":62,"Velocity":76,"Duration":155440,"SoundDuration":155440,"Delta":58035767},{"NoteNumber":74,"Velocity":60,"Duration":77720,"SoundDuration":77720,"Delta":58113487},{"NoteNumber":61,"Velocity":89,"Duration":466321,"SoundDuration":466321,"Delta":58191208},{"NoteNumber":57,"Velocity":81,"Duration":103627,"SoundDuration":103627,"Delta":58191208},{"NoteNumber":73,"Velocity":60,"Duration":77720,"SoundDuration":77720,"Delta":58268928},{"NoteNumber":45,"Velocity":67,"Duration":103627,"SoundDuration":103627,"Delta":58294835},{"NoteNumber":68,"Velocity":70,"Duration":77720,"SoundDuration":77720,"Delta":58346648},{"NoteNumber":49,"Velocity":75,"Duration":103626,"SoundDuration":103626,"Delta":58398462},{"NoteNumber":71,"Velocity":59,"Duration":77720,"SoundDuration":77720,"Delta":58424368},{"NoteNumber":69,"Velocity":64,"Duration":77720,"SoundDuration":77720,"Delta":58502089},{"NoteNumber":37,"Velocity":66,"Duration":310881,"SoundDuration":310881,"Delta":58502089},{"NoteNumber":66,"Velocity":61,"Duration":77720,"SoundDuration":77720,"Delta":58579809},{"NoteNumber":61,"Velocity":73,"Duration":155440,"SoundDuration":155440,"Delta":58657529},{"NoteNumber":73,"Velocity":60,"Duration":77720,"SoundDuration":77720,"Delta":58735249},{"NoteNumber":61,"Velocity":87,"Duration":466321,"SoundDuration":466321,"Delta":58812970},{"NoteNumber":57,"Velocity":82,"Duration":103626,"SoundDuration":103626,"Delta":58812970},{"NoteNumber":73,"Velocity":51,"Duration":77720,"SoundDuration":77720,"Delta":58890690},{"NoteNumber":45,"Velocity":66,"Duration":103627,"SoundDuration":103627,"Delta":58916597},{"NoteNumber":68,"Velocity":60,"Duration":77720,"SoundDuration":77720,"Delta":58968410},{"NoteNumber":49,"Velocity":76,"Duration":103627,"SoundDuration":103627,"Delta":59020224},{"NoteNumber":71,"Velocity":51,"Duration":77720,"SoundDuration":77720,"Delta":59046130},{"NoteNumber":69,"Velocity":59,"Duration":77720,"SoundDuration":77720,"Delta":59123851},{"NoteNumber":37,"Velocity":68,"Duration":310880,"SoundDuration":310880,"Delta":59123851},{"NoteNumber":66,"Velocity":51,"Duration":77720,"SoundDuration":77720,"Delta":59201571},{"NoteNumber":61,"Velocity":73,"Duration":155440,"SoundDuration":155440,"Delta":59279291},{"NoteNumber":73,"Velocity":57,"Duration":77720,"SoundDuration":77720,"Delta":59357011},{"NoteNumber":61,"Velocity":89,"Duration":466321,"SoundDuration":466321,"Delta":59434732},{"NoteNumber":56,"Velocity":80,"Duration":103627,"SoundDuration":103627,"Delta":59434732},{"NoteNumber":73,"Velocity":52,"Duration":77720,"SoundDuration":77720,"Delta":59512452},{"NoteNumber":45,"Velocity":67,"Duration":103627,"SoundDuration":103627,"Delta":59538359},{"NoteNumber":68,"Velocity":62,"Duration":77720,"SoundDuration":77720,"Delta":59590172},{"NoteNumber":49,"Velocity":73,"Duration":103626,"SoundDuration":103626,"Delta":59641986},{"NoteNumber":71,"Velocity":52,"Duration":77720,"SoundDuration":77720,"Delta":59667892},{"NoteNumber":69,"Velocity":60,"Duration":77720,"SoundDuration":77720,"Delta":59745613},{"NoteNumber":37,"Velocity":68,"Duration":310881,"SoundDuration":310881,"Delta":59745613},{"NoteNumber":66,"Velocity":52,"Duration":77720,"SoundDuration":77720,"Delta":59823333},{"NoteNumber":61,"Velocity":72,"Duration":155440,"SoundDuration":155440,"Delta":59901053},{"NoteNumber":73,"Velocity":56,"Duration":77720,"SoundDuration":77720,"Delta":59978773},{"NoteNumber":61,"Velocity":85,"Duration":466321,"SoundDuration":466321,"Delta":60056494},{"NoteNumber":54,"Velocity":78,"Duration":103626,"SoundDuration":103626,"Delta":60056494},{"NoteNumber":73,"Velocity":51,"Duration":77720,"SoundDuration":77720,"Delta":60134214},{"NoteNumber":45,"Velocity":68,"Duration":103627,"SoundDuration":103627,"Delta":60160121},{"NoteNumber":68,"Velocity":60,"Duration":77720,"SoundDuration":77720,"Delta":60211934},{"NoteNumber":49,"Velocity":77,"Duration":103627,"SoundDuration":103627,"Delta":60263748},{"NoteNumber":71,"Velocity":52,"Duration":77720,"SoundDuration":77720,"Delta":60289654},{"NoteNumber":69,"Velocity":59,"Duration":77720,"SoundDuration":77720,"Delta":60367375},{"NoteNumber":37,"Velocity":70,"Duration":310880,"SoundDuration":310880,"Delta":60367375},{"NoteNumber":66,"Velocity":48,"Duration":77720,"SoundDuration":77720,"Delta":60445095},{"NoteNumber":61,"Velocity":61,"Duration":155440,"SoundDuration":155440,"Delta":60522815},{"NoteNumber":73,"Velocity":55,"Duration":77720,"SoundDuration":77720,"Delta":60600535},{"NoteNumber":61,"Velocity":89,"Duration":466321,"SoundDuration":466321,"Delta":60678256},{"NoteNumber":54,"Velocity":75,"Duration":103627,"SoundDuration":103627,"Delta":60678256},{"NoteNumber":73,"Velocity":48,"Duration":77720,"SoundDuration":77720,"Delta":60755976},{"NoteNumber":44,"Velocity":63,"Duration":103626,"SoundDuration":103626,"Delta":60781883},{"NoteNumber":67,"Velocity":60,"Duration":77720,"SoundDuration":77720,"Delta":60833696},{"NoteNumber":49,"Velocity":64,"Duration":103627,"SoundDuration":103627,"Delta":60885510},{"NoteNumber":69,"Velocity":47,"Duration":77720,"SoundDuration":77720,"Delta":60911416},{"NoteNumber":68,"Velocity":55,"Duration":77720,"SoundDuration":77720,"Delta":60989137},{"NoteNumber":37,"Velocity":57,"Duration":310881,"SoundDuration":310881,"Delta":60989137},{"NoteNumber":66,"Velocity":47,"Duration":77720,"SoundDuration":77720,"Delta":61066857},{"NoteNumber":61,"Velocity":58,"Duration":155440,"SoundDuration":155440,"Delta":61144577},{"NoteNumber":73,"Velocity":51,"Duration":77720,"SoundDuration":77720,"Delta":61222297},{"NoteNumber":61,"Velocity":79,"Duration":466321,"SoundDuration":466321,"Delta":61300018},{"NoteNumber":54,"Velocity":73,"Duration":103626,"SoundDuration":103626,"Delta":61300018},{"NoteNumber":73,"Velocity":50,"Duration":77720,"SoundDuration":77720,"Delta":61377738},{"NoteNumber":44,"Velocity":61,"Duration":103627,"SoundDuration":103627,"Delta":61403645},{"NoteNumber":67,"Velocity":57,"Duration":77720,"SoundDuration":77720,"Delta":61455458},{"NoteNumber":49,"Velocity":66,"Duration":103627,"SoundDuration":103627,"Delta":61507272},{"NoteNumber":69,"Velocity":48,"Duration":77720,"SoundDuration":77720,"Delta":61533178},{"NoteNumber":68,"Velocity":55,"Duration":77720,"SoundDuration":77720,"Delta":61610899},{"NoteNumber":37,"Velocity":58,"Duration":310747,"SoundDuration":310747,"Delta":61610899},{"NoteNumber":66,"Velocity":46,"Duration":77720,"SoundDuration":77720,"Delta":61688619},{"NoteNumber":61,"Velocity":58,"Duration":155306,"SoundDuration":155306,"Delta":61766339},{"NoteNumber":73,"Velocity":50,"Duration":77586,"SoundDuration":77586,"Delta":61844059},{"NoteNumber":61,"Velocity":79,"Duration":498069,"SoundDuration":498069,"Delta":61921646},{"NoteNumber":53,"Velocity":75,"Duration":104719,"SoundDuration":104719,"Delta":61921646},{"NoteNumber":73,"Velocity":45,"Duration":80074,"SoundDuration":80074,"Delta":61999910},{"NoteNumber":44,"Velocity":64,"Duration":107969,"SoundDuration":107969,"Delta":62026365},{"NoteNumber":67,"Velocity":50,"Duration":81822,"SoundDuration":81822,"Delta":62079985},{"NoteNumber":49,"Velocity":69,"Duration":111431,"SoundDuration":111431,"Delta":62134334},{"NoteNumber":69,"Velocity":42,"Duration":83959,"SoundDuration":83959,"Delta":62161807},{"NoteNumber":68,"Velocity":48,"Duration":85882,"SoundDuration":85882,"Delta":62245766},{"NoteNumber":37,"Velocity":56,"Duration":356538,"SoundDuration":356538,"Delta":62245766},{"NoteNumber":65,"Velocity":42,"Duration":88067,"SoundDuration":88067,"Delta":62331649},{"NoteNumber":61,"Velocity":55,"Duration":182588,"SoundDuration":182588,"Delta":62419716},{"NoteNumber":73,"Velocity":46,"Duration":92403,"SoundDuration":92403,"Delta":62509901},{"NoteNumber":61,"Velocity":73,"Duration":613917,"SoundDuration":613917,"Delta":62602305},{"NoteNumber":53,"Velocity":74,"Duration":123456,"SoundDuration":123456,"Delta":62602305},{"NoteNumber":73,"Velocity":38,"Duration":92592,"SoundDuration":92592,"Delta":62694897},{"NoteNumber":44,"Velocity":54,"Duration":123456,"SoundDuration":123456,"Delta":62725761},{"NoteNumber":67,"Velocity":44,"Duration":92592,"SoundDuration":92592,"Delta":62787490},{"NoteNumber":49,"Velocity":60,"Duration":123456,"SoundDuration":123456,"Delta":62849218},{"NoteNumber":69,"Velocity":36,"Duration":92592,"SoundDuration":92592,"Delta":62880082},{"NoteNumber":68,"Velocity":44,"Duration":107182,"SoundDuration":107182,"Delta":62972675},{"NoteNumber":37,"Velocity":49,"Duration":516273,"SoundDuration":516273,"Delta":62972675},{"NoteNumber":65,"Velocity":38,"Duration":136363,"SoundDuration":136363,"Delta":63079858},{"NoteNumber":61,"Velocity":50,"Duration":272727,"SoundDuration":272727,"Delta":63216222},{"NoteNumber":73,"Velocity":38,"Duration":136363,"SoundDuration":136363,"Delta":63352585},{"NoteNumber":61,"Velocity":69,"Duration":605420,"SoundDuration":605420,"Delta":63488949},{"NoteNumber":57,"Velocity":49,"Duration":140116,"SoundDuration":140116,"Delta":63488949},{"NoteNumber":73,"Velocity":35,"Duration":102975,"SoundDuration":102975,"Delta":63594583},{"NoteNumber":49,"Velocity":39,"Duration":136290,"SoundDuration":136290,"Delta":63629065},{"NoteNumber":68,"Velocity":40,"Duration":101354,"SoundDuration":101354,"Delta":63697559},{"NoteNumber":54,"Velocity":45,"Duration":133560,"SoundDuration":133560,"Delta":63765356},{"NoteNumber":71,"Velocity":35,"Duration":100002,"SoundDuration":100002,"Delta":63798913},{"NoteNumber":69,"Velocity":40,"Duration":98469,"SoundDuration":98469,"Delta":63898916},{"NoteNumber":42,"Velocity":38,"Duration":385339,"SoundDuration":385339,"Delta":63898916},{"NoteNumber":66,"Velocity":35,"Duration":96983,"SoundDuration":96983,"Delta":63997385},{"NoteNumber":61,"Velocity":52,"Duration":189886,"SoundDuration":189886,"Delta":64094369},{"NoteNumber":73,"Velocity":38,"Duration":94342,"SoundDuration":94342,"Delta":64189913},{"NoteNumber":61,"Velocity":68,"Duration":539214,"SoundDuration":539214,"Delta":64284255},{"NoteNumber":57,"Velocity":49,"Duration":123650,"SoundDuration":123650,"Delta":64284255},{"NoteNumber":73,"Velocity":34,"Duration":91650,"SoundDuration":91650,"Delta":64377231},{"NoteNumber":49,"Velocity":39,"Duration":121399,"SoundDuration":121399,"Delta":64407906},{"NoteNumber":68,"Velocity":37,"Duration":90363,"SoundDuration":90363,"Delta":64468882},{"NoteNumber":54,"Velocity":44,"Duration":119227,"SoundDuration":119227,"Delta":64529305},{"NoteNumber":71,"Velocity":31,"Duration":89287,"SoundDuration":89287,"Delta":64559245},{"NoteNumber":69,"Velocity":37,"Duration":88063,"SoundDuration":88063,"Delta":64648533},{"NoteNumber":42,"Velocity":37,"Duration":345400,"SoundDuration":345400,"Delta":64648533},{"NoteNumber":66,"Velocity":30,"Duration":86873,"SoundDuration":86873,"Delta":64736596},{"NoteNumber":61,"Velocity":50,"Duration":170463,"SoundDuration":170463,"Delta":64823470},{"NoteNumber":73,"Velocity":37,"Duration":84747,"SoundDuration":84747,"Delta":64909186},{"NoteNumber":61,"Velocity":69,"Duration":500155,"SoundDuration":500155,"Delta":64993933},{"NoteNumber":57,"Velocity":49,"Duration":111266,"SoundDuration":111266,"Delta":64993933},{"NoteNumber":73,"Velocity":31,"Duration":83333,"SoundDuration":83333,"Delta":65077422},{"NoteNumber":49,"Velocity":39,"Duration":111111,"SoundDuration":111111,"Delta":65105200},{"NoteNumber":68,"Velocity":37,"Duration":83333,"SoundDuration":83333,"Delta":65160755},{"NoteNumber":54,"Velocity":45,"Duration":111111,"SoundDuration":111111,"Delta":65216311},{"NoteNumber":71,"Velocity":31,"Duration":83333,"SoundDuration":83333,"Delta":65244089},{"NoteNumber":69,"Velocity":37,"Duration":83333,"SoundDuration":83333,"Delta":65327422},{"NoteNumber":42,"Velocity":38,"Duration":333179,"SoundDuration":333179,"Delta":65327422},{"NoteNumber":66,"Velocity":36,"Duration":83333,"SoundDuration":83333,"Delta":65410755},{"NoteNumber":61,"Velocity":49,"Duration":166513,"SoundDuration":166513,"Delta":65494089},{"NoteNumber":73,"Velocity":38,"Duration":83179,"SoundDuration":83179,"Delta":65577422},{"NoteNumber":61,"Velocity":71,"Duration":502196,"SoundDuration":502196,"Delta":65660602},{"NoteNumber":57,"Velocity":49,"Duration":110497,"SoundDuration":110497,"Delta":65660602},{"NoteNumber":73,"Velocity":34,"Duration":83179,"SoundDuration":83179,"Delta":65743475},{"NoteNumber":49,"Velocity":39,"Duration":111111,"SoundDuration":111111,"Delta":65771099},{"NoteNumber":68,"Velocity":38,"Duration":83488,"SoundDuration":83488,"Delta":65826655},{"NoteNumber":54,"Velocity":49,"Duration":111731,"SoundDuration":111731,"Delta":65882210},{"NoteNumber":71,"Velocity":34,"Duration":83798,"SoundDuration":83798,"Delta":65910143},{"NoteNumber":69,"Velocity":38,"Duration":84269,"SoundDuration":84269,"Delta":65993942},{"NoteNumber":42,"Velocity":45,"Duration":338990,"SoundDuration":338990,"Delta":65993942},{"NoteNumber":66,"Velocity":34,"Duration":84587,"SoundDuration":84587,"Delta":66078212},{"NoteNumber":61,"Velocity":49,"Duration":170133,"SoundDuration":170133,"Delta":66162799},{"NoteNumber":73,"Velocity":38,"Duration":85227,"SoundDuration":85227,"Delta":66247705},{"NoteNumber":62,"Velocity":66,"Duration":509812,"SoundDuration":509812,"Delta":66332932},{"NoteNumber":54,"Velocity":49,"Duration":114778,"SoundDuration":114778,"Delta":66332932},{"NoteNumber":74,"Velocity":34,"Duration":85878,"SoundDuration":85878,"Delta":66418975},{"NoteNumber":42,"Velocity":41,"Duration":114123,"SoundDuration":114123,"Delta":66447711},{"NoteNumber":70,"Velocity":37,"Duration":85389,"SoundDuration":85389,"Delta":66504853},{"NoteNumber":47,"Velocity":49,"Duration":113154,"SoundDuration":113154,"Delta":66561834},{"NoteNumber":73,"Velocity":31,"Duration":84745,"SoundDuration":84745,"Delta":66590243},{"NoteNumber":71,"Velocity":37,"Duration":84112,"SoundDuration":84112,"Delta":66674989},{"NoteNumber":35,"Velocity":39,"Duration":333505,"SoundDuration":333505,"Delta":66674989},{"NoteNumber":66,"Velocity":31,"Duration":83643,"SoundDuration":83643,"Delta":66759101},{"NoteNumber":62,"Velocity":49,"Duration":165749,"SoundDuration":165749,"Delta":66842745},{"NoteNumber":74,"Velocity":38,"Duration":82569,"SoundDuration":82569,"Delta":66925925},{"NoteNumber":62,"Velocity":63,"Duration":484799,"SoundDuration":484799,"Delta":67008494},{"NoteNumber":54,"Velocity":49,"Duration":109291,"SoundDuration":109291,"Delta":67008494},{"NoteNumber":74,"Velocity":34,"Duration":81521,"SoundDuration":81521,"Delta":67090612},{"NoteNumber":42,"Velocity":40,"Duration":108401,"SoundDuration":108401,"Delta":67117786},{"NoteNumber":70,"Velocity":38,"Duration":81081,"SoundDuration":81081,"Delta":67172133},{"NoteNumber":47,"Velocity":45,"Duration":107528,"SoundDuration":107528,"Delta":67226188},{"NoteNumber":73,"Velocity":34,"Duration":80501,"SoundDuration":80501,"Delta":67253215},{"NoteNumber":71,"Velocity":40,"Duration":80071,"SoundDuration":80071,"Delta":67333716},{"NoteNumber":35,"Velocity":39,"Duration":317335,"SoundDuration":317335,"Delta":67333716},{"NoteNumber":66,"Velocity":35,"Duration":79505,"SoundDuration":79505,"Delta":67413788},{"NoteNumber":62,"Velocity":49,"Duration":157758,"SoundDuration":157758,"Delta":67493293},{"NoteNumber":74,"Velocity":42,"Duration":78671,"SoundDuration":78671,"Delta":67572380},{"NoteNumber":62,"Velocity":69,"Duration":490171,"SoundDuration":490171,"Delta":67651052},{"NoteNumber":54,"Velocity":49,"Duration":104031,"SoundDuration":104031,"Delta":67651052},{"NoteNumber":74,"Velocity":37,"Duration":77586,"SoundDuration":77586,"Delta":67729177},{"NoteNumber":42,"Velocity":41,"Duration":103669,"SoundDuration":103669,"Delta":67755084},{"NoteNumber":70,"Velocity":44,"Duration":78871,"SoundDuration":78871,"Delta":67806764},{"NoteNumber":47,"Velocity":49,"Duration":108586,"SoundDuration":108586,"Delta":67858753},{"NoteNumber":73,"Velocity":36,"Duration":81704,"SoundDuration":81704,"Delta":67885635},{"NoteNumber":71,"Velocity":44,"Duration":84862,"SoundDuration":84862,"Delta":67967340},{"NoteNumber":35,"Velocity":39,"Duration":364246,"SoundDuration":364246,"Delta":67967340},{"NoteNumber":66,"Velocity":35,"Duration":89020,"SoundDuration":89020,"Delta":68052203},{"NoteNumber":62,"Velocity":50,"Duration":190362,"SoundDuration":190362,"Delta":68141223},{"NoteNumber":74,"Velocity":44,"Duration":97278,"SoundDuration":97278,"Delta":68234308},{"NoteNumber":66,"Velocity":71,"Duration":608108,"SoundDuration":608108,"Delta":68331586},{"NoteNumber":54,"Velocity":50,"Duration":135135,"SoundDuration":135135,"Delta":68331586},{"NoteNumber":78,"Velocity":46,"Duration":101351,"SoundDuration":101351,"Delta":68432937},{"NoteNumber":42,"Velocity":41,"Duration":135135,"SoundDuration":135135,"Delta":68466721},{"NoteNumber":70,"Velocity":51,"Duration":101351,"SoundDuration":101351,"Delta":68534289},{"NoteNumber":47,"Velocity":46,"Duration":135135,"SoundDuration":135135,"Delta":68601856},{"NoteNumber":73,"Velocity":45,"Duration":101351,"SoundDuration":101351,"Delta":68635640},{"NoteNumber":71,"Velocity":48,"Duration":101351,"SoundDuration":101351,"Delta":68736992},{"NoteNumber":35,"Velocity":40,"Duration":405405,"SoundDuration":405405,"Delta":68736992},{"NoteNumber":66,"Velocity":42,"Duration":101351,"SoundDuration":101351,"Delta":68838343},{"NoteNumber":62,"Velocity":47,"Duration":202702,"SoundDuration":202702,"Delta":68939694},{"NoteNumber":74,"Velocity":36,"Duration":101351,"SoundDuration":101351,"Delta":69041046},{"NoteNumber":61,"Velocity":59,"Duration":473684,"SoundDuration":473684,"Delta":69142397},{"NoteNumber":58,"Velocity":39,"Duration":105263,"SoundDuration":105263,"Delta":69142397},{"NoteNumber":73,"Velocity":28,"Duration":78947,"SoundDuration":78947,"Delta":69221344},{"NoteNumber":49,"Velocity":36,"Duration":105263,"SoundDuration":105263,"Delta":69247660},{"NoteNumber":68,"Velocity":36,"Duration":78947,"SoundDuration":78947,"Delta":69300292},{"NoteNumber":54,"Velocity":37,"Duration":105263,"SoundDuration":105263,"Delta":69352923},{"NoteNumber":71,"Velocity":29,"Duration":78947,"SoundDuration":78947,"Delta":69379239},{"NoteNumber":70,"Velocity":35,"Duration":78947,"SoundDuration":78947,"Delta":69458187},{"NoteNumber":42,"Velocity":35,"Duration":315789,"SoundDuration":315789,"Delta":69458187},{"NoteNumber":66,"Velocity":30,"Duration":78947,"SoundDuration":78947,"Delta":69537134},{"NoteNumber":61,"Velocity":41,"Duration":157894,"SoundDuration":157894,"Delta":69616081},{"NoteNumber":73,"Velocity":35,"Duration":78947,"SoundDuration":78947,"Delta":69695029},{"NoteNumber":61,"Velocity":58,"Duration":473684,"SoundDuration":473684,"Delta":69773976},{"NoteNumber":58,"Velocity":39,"Duration":105263,"SoundDuration":105263,"Delta":69773976},{"NoteNumber":73,"Velocity":27,"Duration":78947,"SoundDuration":78947,"Delta":69852923},{"NoteNumber":49,"Velocity":35,"Duration":105263,"SoundDuration":105263,"Delta":69879239},{"NoteNumber":68,"Velocity":34,"Duration":78947,"SoundDuration":78947,"Delta":69931871},{"NoteNumber":54,"Velocity":36,"Duration":105263,"SoundDuration":105263,"Delta":69984502},{"NoteNumber":71,"Velocity":27,"Duration":78947,"SoundDuration":78947,"Delta":70010818},{"NoteNumber":70,"Velocity":34,"Duration":78947,"SoundDuration":78947,"Delta":70089766},{"NoteNumber":42,"Velocity":34,"Duration":315789,"SoundDuration":315789,"Delta":70089766},{"NoteNumber":66,"Velocity":28,"Duration":78947,"SoundDuration":78947,"Delta":70168713},{"NoteNumber":61,"Velocity":41,"Duration":157894,"SoundDuration":157894,"Delta":70247660},{"NoteNumber":73,"Velocity":34,"Duration":78947,"SoundDuration":78947,"Delta":70326608},{"NoteNumber":61,"Velocity":58,"Duration":473684,"SoundDuration":473684,"Delta":70405555},{"NoteNumber":58,"Velocity":39,"Duration":105263,"SoundDuration":105263,"Delta":70405555},{"NoteNumber":73,"Velocity":28,"Duration":78947,"SoundDuration":78947,"Delta":70484502},{"NoteNumber":49,"Velocity":34,"Duration":105263,"SoundDuration":105263,"Delta":70510818},{"NoteNumber":68,"Velocity":34,"Duration":78947,"SoundDuration":78947,"Delta":70563450},{"NoteNumber":54,"Velocity":37,"Duration":105263,"SoundDuration":105263,"Delta":70616081},{"NoteNumber":71,"Velocity":28,"Duration":78947,"SoundDuration":78947,"Delta":70642397},{"NoteNumber":70,"Velocity":34,"Duration":78947,"SoundDuration":78947,"Delta":70721345},{"NoteNumber":42,"Velocity":31,"Duration":315789,"SoundDuration":315789,"Delta":70721345},{"NoteNumber":66,"Velocity":28,"Duration":78947,"SoundDuration":78947,"Delta":70800292},{"NoteNumber":61,"Velocity":40,"Duration":157894,"SoundDuration":157894,"Delta":70879239},{"NoteNumber":73,"Velocity":31,"Duration":78947,"SoundDuration":78947,"Delta":70958187},{"NoteNumber":61,"Velocity":58,"Duration":473684,"SoundDuration":473684,"Delta":71037134},{"NoteNumber":58,"Velocity":39,"Duration":105263,"SoundDuration":105263,"Delta":71037134},{"NoteNumber":73,"Velocity":28,"Duration":78947,"SoundDuration":78947,"Delta":71116081},{"NoteNumber":49,"Velocity":31,"Duration":105263,"SoundDuration":105263,"Delta":71142397},{"NoteNumber":68,"Velocity":31,"Duration":78947,"SoundDuration":78947,"Delta":71195029},{"NoteNumber":54,"Velocity":38,"Duration":105263,"SoundDuration":105263,"Delta":71247660},{"NoteNumber":71,"Velocity":27,"Duration":78947,"SoundDuration":78947,"Delta":71273976},{"NoteNumber":70,"Velocity":31,"Duration":78947,"SoundDuration":78947,"Delta":71352924},{"NoteNumber":42,"Velocity":33,"Duration":315789,"SoundDuration":315789,"Delta":71352924},{"NoteNumber":66,"Velocity":25,"Duration":78947,"SoundDuration":78947,"Delta":71431871},{"NoteNumber":61,"Velocity":36,"Duration":157894,"SoundDuration":157894,"Delta":71510818},{"NoteNumber":73,"Velocity":31,"Duration":78947,"SoundDuration":78947,"Delta":71589766},{"NoteNumber":63,"Velocity":56,"Duration":473684,"SoundDuration":473684,"Delta":71668713},{"NoteNumber":54,"Velocity":39,"Duration":105263,"SoundDuration":105263,"Delta":71668713},{"NoteNumber":75,"Velocity":22,"Duration":78947,"SoundDuration":78947,"Delta":71747660},{"NoteNumber":42,"Velocity":34,"Duration":105263,"SoundDuration":105263,"Delta":71773976},{"NoteNumber":70,"Velocity":28,"Duration":78947,"SoundDuration":78947,"Delta":71826608},{"NoteNumber":47,"Velocity":36,"Duration":105263,"SoundDuration":105263,"Delta":71879239},{"NoteNumber":73,"Velocity":22,"Duration":78947,"SoundDuration":78947,"Delta":71905555},{"NoteNumber":71,"Velocity":29,"Duration":78947,"SoundDuration":78947,"Delta":71984503},{"NoteNumber":35,"Velocity":33,"Duration":315789,"SoundDuration":315789,"Delta":71984503},{"NoteNumber":66,"Velocity":23,"Duration":78947,"SoundDuration":78947,"Delta":72063450},{"NoteNumber":63,"Velocity":38,"Duration":157894,"SoundDuration":157894,"Delta":72142397},{"NoteNumber":75,"Velocity":29,"Duration":78947,"SoundDuration":78947,"Delta":72221345},{"NoteNumber":63,"Velocity":58,"Duration":473684,"SoundDuration":473684,"Delta":72300292},{"NoteNumber":54,"Velocity":39,"Duration":105263,"SoundDuration":105263,"Delta":72300292},{"NoteNumber":75,"Velocity":23,"Duration":78947,"SoundDuration":78947,"Delta":72379239},{"NoteNumber":42,"Velocity":34,"Duration":105263,"SoundDuration":105263,"Delta":72405555},{"NoteNumber":70,"Velocity":29,"Duration":78947,"SoundDuration":78947,"Delta":72458187},{"NoteNumber":47,"Velocity":37,"Duration":105263,"SoundDuration":105263,"Delta":72510818},{"NoteNumber":73,"Velocity":23,"Duration":78947,"SoundDuration":78947,"Delta":72537134},{"NoteNumber":71,"Velocity":30,"Duration":78947,"SoundDuration":78947,"Delta":72616082},{"NoteNumber":35,"Velocity":33,"Duration":315789,"SoundDuration":315789,"Delta":72616082},{"NoteNumber":66,"Velocity":23,"Duration":78947,"SoundDuration":78947,"Delta":72695029},{"NoteNumber":63,"Velocity":40,"Duration":157894,"SoundDuration":157894,"Delta":72773976},{"NoteNumber":75,"Velocity":30,"Duration":78947,"SoundDuration":78947,"Delta":72852924},{"NoteNumber":63,"Velocity":61,"Duration":478032,"SoundDuration":478032,"Delta":72931871},{"NoteNumber":54,"Velocity":38,"Duration":105263,"SoundDuration":105263,"Delta":72931871},{"NoteNumber":75,"Velocity":27,"Duration":78947,"SoundDuration":78947,"Delta":73010818},{"NoteNumber":42,"Velocity":36,"Duration":105263,"SoundDuration":105263,"Delta":73037134},{"NoteNumber":70,"Velocity":31,"Duration":78947,"SoundDuration":78947,"Delta":73089766},{"NoteNumber":47,"Velocity":38,"Duration":105375,"SoundDuration":105375,"Delta":73142397},{"NoteNumber":73,"Velocity":27,"Duration":79059,"SoundDuration":79059,"Delta":73168713},{"NoteNumber":71,"Velocity":31,"Duration":80131,"SoundDuration":80131,"Delta":73247773},{"NoteNumber":35,"Velocity":34,"Duration":334209,"SoundDuration":334209,"Delta":73247773},{"NoteNumber":66,"Velocity":30,"Duration":81999,"SoundDuration":81999,"Delta":73327904},{"NoteNumber":63,"Velocity":41,"Duration":172078,"SoundDuration":172078,"Delta":73409904},{"NoteNumber":75,"Velocity":34,"Duration":87346,"SoundDuration":87346,"Delta":73494636},{"NoteNumber":66,"Velocity":63,"Duration":566037,"SoundDuration":566037,"Delta":73581982},{"NoteNumber":54,"Velocity":40,"Duration":125786,"SoundDuration":125786,"Delta":73581982},{"NoteNumber":78,"Velocity":37,"Duration":94339,"SoundDuration":94339,"Delta":73676322},{"NoteNumber":42,"Velocity":34,"Duration":125786,"SoundDuration":125786,"Delta":73707768},{"NoteNumber":70,"Velocity":38,"Duration":94339,"SoundDuration":94339,"Delta":73770661},{"NoteNumber":47,"Velocity":39,"Duration":125786,"SoundDuration":125786,"Delta":73833554},{"NoteNumber":73,"Velocity":36,"Duration":94339,"SoundDuration":94339,"Delta":73865001},{"NoteNumber":71,"Velocity":36,"Duration":94339,"SoundDuration":94339,"Delta":73959341},{"NoteNumber":35,"Velocity":36,"Duration":377358,"SoundDuration":377358,"Delta":73959341},{"NoteNumber":66,"Velocity":34,"Duration":94339,"SoundDuration":94339,"Delta":74053680},{"NoteNumber":63,"Velocity":37,"Duration":188679,"SoundDuration":188679,"Delta":74148020},{"NoteNumber":75,"Velocity":27,"Duration":94339,"SoundDuration":94339,"Delta":74242359},{"NoteNumber":61,"Velocity":57,"Duration":476190,"SoundDuration":476190,"Delta":74336699},{"NoteNumber":58,"Velocity":39,"Duration":105820,"SoundDuration":105820,"Delta":74336699},{"NoteNumber":73,"Velocity":20,"Duration":79365,"SoundDuration":79365,"Delta":74416064},{"NoteNumber":49,"Velocity":34,"Duration":105820,"SoundDuration":105820,"Delta":74442519},{"NoteNumber":68,"Velocity":27,"Duration":79365,"SoundDuration":79365,"Delta":74495429},{"NoteNumber":54,"Velocity":38,"Duration":105820,"SoundDuration":105820,"Delta":74548339},{"NoteNumber":71,"Velocity":22,"Duration":79365,"SoundDuration":79365,"Delta":74574794},{"NoteNumber":70,"Velocity":27,"Duration":79365,"SoundDuration":79365,"Delta":74654160},{"NoteNumber":42,"Velocity":34,"Duration":317460,"SoundDuration":317460,"Delta":74654160},{"NoteNumber":66,"Velocity":23,"Duration":79365,"SoundDuration":79365,"Delta":74733525},{"NoteNumber":61,"Velocity":37,"Duration":158730,"SoundDuration":158730,"Delta":74812890},{"NoteNumber":73,"Velocity":27,"Duration":79365,"SoundDuration":79365,"Delta":74892255},{"NoteNumber":61,"Velocity":56,"Duration":476190,"SoundDuration":476190,"Delta":74971620},{"NoteNumber":58,"Velocity":39,"Duration":105820,"SoundDuration":105820,"Delta":74971620},{"NoteNumber":73,"Velocity":23,"Duration":79365,"SoundDuration":79365,"Delta":75050985},{"NoteNumber":49,"Velocity":31,"Duration":105820,"SoundDuration":105820,"Delta":75077440},{"NoteNumber":68,"Velocity":28,"Duration":79365,"SoundDuration":79365,"Delta":75130350},{"NoteNumber":54,"Velocity":37,"Duration":105820,"SoundDuration":105820,"Delta":75183260},{"NoteNumber":71,"Velocity":23,"Duration":79365,"SoundDuration":79365,"Delta":75209715},{"NoteNumber":70,"Velocity":28,"Duration":79365,"SoundDuration":79365,"Delta":75289081},{"NoteNumber":42,"Velocity":31,"Duration":317460,"SoundDuration":317460,"Delta":75289081},{"NoteNumber":66,"Velocity":22,"Duration":79365,"SoundDuration":79365,"Delta":75368446},{"NoteNumber":61,"Velocity":37,"Duration":158730,"SoundDuration":158730,"Delta":75447811},{"NoteNumber":73,"Velocity":29,"Duration":79365,"SoundDuration":79365,"Delta":75527176},{"NoteNumber":61,"Velocity":57,"Duration":476190,"SoundDuration":476190,"Delta":75606541},{"NoteNumber":58,"Velocity":39,"Duration":105820,"SoundDuration":105820,"Delta":75606541},{"NoteNumber":73,"Velocity":25,"Duration":79365,"SoundDuration":79365,"Delta":75685906},{"NoteNumber":49,"Velocity":34,"Duration":105820,"SoundDuration":105820,"Delta":75712361},{"NoteNumber":68,"Velocity":29,"Duration":79365,"SoundDuration":79365,"Delta":75765271},{"NoteNumber":54,"Velocity":39,"Duration":105820,"SoundDuration":105820,"Delta":75818181},{"NoteNumber":71,"Velocity":23,"Duration":79365,"SoundDuration":79365,"Delta":75844636},{"NoteNumber":70,"Velocity":29,"Duration":79365,"SoundDuration":79365,"Delta":75924002},{"NoteNumber":42,"Velocity":35,"Duration":317460,"SoundDuration":317460,"Delta":75924002},{"NoteNumber":66,"Velocity":23,"Duration":79365,"SoundDuration":79365,"Delta":76003367},{"NoteNumber":61,"Velocity":41,"Duration":158730,"SoundDuration":158730,"Delta":76082732},{"NoteNumber":73,"Velocity":29,"Duration":79365,"SoundDuration":79365,"Delta":76162097},{"NoteNumber":61,"Velocity":61,"Duration":476190,"SoundDuration":476190,"Delta":76241462},{"NoteNumber":58,"Velocity":39,"Duration":105820,"SoundDuration":105820,"Delta":76241462},{"NoteNumber":73,"Velocity":23,"Duration":79365,"SoundDuration":79365,"Delta":76320827},{"NoteNumber":49,"Velocity":34,"Duration":105820,"SoundDuration":105820,"Delta":76347282},{"NoteNumber":68,"Velocity":30,"Duration":79365,"SoundDuration":79365,"Delta":76400192},{"NoteNumber":54,"Velocity":38,"Duration":105820,"SoundDuration":105820,"Delta":76453102},{"NoteNumber":71,"Velocity":23,"Duration":79365,"SoundDuration":79365,"Delta":76479557},{"NoteNumber":70,"Velocity":30,"Duration":79365,"SoundDuration":79365,"Delta":76558923},{"NoteNumber":42,"Velocity":34,"Duration":317460,"SoundDuration":317460,"Delta":76558923},{"NoteNumber":66,"Velocity":23,"Duration":79365,"SoundDuration":79365,"Delta":76638288},{"NoteNumber":61,"Velocity":38,"Duration":158730,"SoundDuration":158730,"Delta":76717653},{"NoteNumber":73,"Velocity":29,"Duration":79365,"SoundDuration":79365,"Delta":76797018},{"NoteNumber":61,"Velocity":58,"Duration":478667,"SoundDuration":478667,"Delta":76876383},{"NoteNumber":57,"Velocity":39,"Duration":106326,"SoundDuration":106326,"Delta":76876383},{"NoteNumber":73,"Velocity":23,"Duration":79787,"SoundDuration":79787,"Delta":76956114},{"NoteNumber":49,"Velocity":33,"Duration":106383,"SoundDuration":106383,"Delta":76982710},{"NoteNumber":68,"Velocity":29,"Duration":79787,"SoundDuration":79787,"Delta":77035901},{"NoteNumber":54,"Velocity":37,"Duration":106382,"SoundDuration":106382,"Delta":77089093},{"NoteNumber":71,"Velocity":23,"Duration":79787,"SoundDuration":79787,"Delta":77115689},{"NoteNumber":69,"Velocity":29,"Duration":79787,"SoundDuration":79787,"Delta":77195476},{"NoteNumber":42,"Velocity":35,"Duration":319148,"SoundDuration":319148,"Delta":77195476},{"NoteNumber":66,"Velocity":25,"Duration":79787,"SoundDuration":79787,"Delta":77275263},{"NoteNumber":61,"Velocity":38,"Duration":159574,"SoundDuration":159574,"Delta":77355050},{"NoteNumber":73,"Velocity":29,"Duration":79787,"SoundDuration":79787,"Delta":77434838},{"NoteNumber":61,"Velocity":55,"Duration":491794,"SoundDuration":491794,"Delta":77514625},{"NoteNumber":57,"Velocity":39,"Duration":107417,"SoundDuration":107417,"Delta":77514625},{"NoteNumber":73,"Velocity":22,"Duration":81821,"SoundDuration":81821,"Delta":77594927},{"NoteNumber":49,"Velocity":35,"Duration":109651,"SoundDuration":109651,"Delta":77622042},{"NoteNumber":68,"Velocity":29,"Duration":82417,"SoundDuration":82417,"Delta":77676748},{"NoteNumber":54,"Velocity":39,"Duration":109890,"SoundDuration":109890,"Delta":77731694},{"NoteNumber":71,"Velocity":23,"Duration":82417,"SoundDuration":82417,"Delta":77759166},{"NoteNumber":69,"Velocity":28,"Duration":82417,"SoundDuration":82417,"Delta":77841584},{"NoteNumber":42,"Velocity":36,"Duration":329670,"SoundDuration":329670,"Delta":77841584},{"NoteNumber":66,"Velocity":23,"Duration":82417,"SoundDuration":82417,"Delta":77924001},{"NoteNumber":61,"Velocity":34,"Duration":164835,"SoundDuration":164835,"Delta":78006419},{"NoteNumber":73,"Velocity":28,"Duration":82417,"SoundDuration":82417,"Delta":78088837},{"NoteNumber":61,"Velocity":49,"Duration":495976,"SoundDuration":495976,"Delta":78171254},{"NoteNumber":57,"Velocity":37,"Duration":109890,"SoundDuration":109890,"Delta":78171254},{"NoteNumber":73,"Velocity":22,"Duration":82417,"SoundDuration":82417,"Delta":78253672},{"NoteNumber":49,"Velocity":34,"Duration":109890,"SoundDuration":109890,"Delta":78281144},{"NoteNumber":68,"Velocity":28,"Duration":82417,"SoundDuration":82417,"Delta":78336089},{"NoteNumber":54,"Velocity":37,"Duration":109890,"SoundDuration":109890,"Delta":78391035},{"NoteNumber":71,"Velocity":23,"Duration":82417,"SoundDuration":82417,"Delta":78418507},{"NoteNumber":69,"Velocity":27,"Duration":82722,"SoundDuration":82722,"Delta":78500925},{"NoteNumber":42,"Velocity":33,"Duration":340879,"SoundDuration":340879,"Delta":78500925},{"NoteNumber":66,"Velocity":22,"Duration":83583,"SoundDuration":83583,"Delta":78583648},{"NoteNumber":61,"Velocity":34,"Duration":174574,"SoundDuration":174574,"Delta":78667231},{"NoteNumber":73,"Velocity":27,"Duration":88030,"SoundDuration":88030,"Delta":78753775},{"NoteNumber":61,"Velocity":44,"Duration":538012,"SoundDuration":538012,"Delta":78841805},{"NoteNumber":57,"Velocity":35,"Duration":118907,"SoundDuration":118907,"Delta":78841805},{"NoteNumber":73,"Velocity":22,"Duration":89285,"SoundDuration":89285,"Delta":78930950},{"NoteNumber":49,"Velocity":30,"Duration":119047,"SoundDuration":119047,"Delta":78960712},{"NoteNumber":68,"Velocity":27,"Duration":89285,"SoundDuration":89285,"Delta":79020236},{"NoteNumber":54,"Velocity":34,"Duration":119334,"SoundDuration":119334,"Delta":79079760},{"NoteNumber":71,"Velocity":22,"Duration":89572,"SoundDuration":89572,"Delta":79109522},{"NoteNumber":69,"Velocity":27,"Duration":90361,"SoundDuration":90361,"Delta":79199095},{"NoteNumber":42,"Velocity":31,"Duration":361592,"SoundDuration":361592,"Delta":79199095},{"NoteNumber":66,"Velocity":23,"Duration":90361,"SoundDuration":90361,"Delta":79289456},{"NoteNumber":61,"Velocity":36,"Duration":180869,"SoundDuration":180869,"Delta":79379818},{"NoteNumber":73,"Velocity":27,"Duration":90508,"SoundDuration":90508,"Delta":79470179},{"NoteNumber":73,"Velocity":46,"Duration":1463414,"SoundDuration":1463414,"Delta":79560687},{"NoteNumber":64,"Velocity":39,"Duration":1463414,"SoundDuration":1463414,"Delta":79560687},{"NoteNumber":61,"Velocity":39,"Duration":1463414,"SoundDuration":1463414,"Delta":79560687},{"NoteNumber":45,"Velocity":31,"Duration":1463414,"SoundDuration":1463414,"Delta":79560687},{"NoteNumber":52,"Velocity":31,"Duration":1463414,"SoundDuration":1463414,"Delta":79560687},{"NoteNumber":57,"Velocity":37,"Duration":1463414,"SoundDuration":1463414,"Delta":79560687},{"NoteNumber":62,"Velocity":36,"Duration":842679,"SoundDuration":842679,"Delta":81024101},{"NoteNumber":67,"Velocity":36,"Duration":842679,"SoundDuration":842679,"Delta":81024101},{"NoteNumber":71,"Velocity":43,"Duration":842679,"SoundDuration":842679,"Delta":81024101},{"NoteNumber":47,"Velocity":27,"Duration":842679,"SoundDuration":842679,"Delta":81024101},{"NoteNumber":55,"Velocity":32,"Duration":842679,"SoundDuration":842679,"Delta":81024101},{"NoteNumber":59,"Velocity":33,"Duration":1263158,"SoundDuration":1263158,"Delta":81866781},{"NoteNumber":61,"Velocity":33,"Duration":1263158,"SoundDuration":1263158,"Delta":81866781},{"NoteNumber":65,"Velocity":39,"Duration":1263158,"SoundDuration":1263158,"Delta":81866781},{"NoteNumber":49,"Velocity":23,"Duration":1263158,"SoundDuration":1263158,"Delta":81866781},{"NoteNumber":56,"Velocity":28,"Duration":1263158,"SoundDuration":1263158,"Delta":81866781},{"NoteNumber":65,"Velocity":29,"Duration":361445,"SoundDuration":361445,"Delta":83129939},{"NoteNumber":42,"Velocity":31,"Duration":5159737,"SoundDuration":5159737,"Delta":83491385},{"NoteNumber":49,"Velocity":31,"Duration":4798292,"SoundDuration":4798292,"Delta":83852831},{"NoteNumber":57,"Velocity":31,"Duration":4492169,"SoundDuration":4492169,"Delta":84158953},{"NoteNumber":61,"Velocity":25,"Duration":4186047,"SoundDuration":4186047,"Delta":84465076},{"NoteNumber":66,"Velocity":22,"Duration":3837209,"SoundDuration":3837209,"Delta":84813913}],"license":{"name":"Creative Commons Attribution-ShareAlike 3.0 Germany","url":"http://creativecommons.org/licenses/by-sa/3.0/de/deed.en","text":"The MIDI files in this folder were downloaded from http://www.piano-midi.de and are licensed under the Creative Commons Attribution-ShareAlike 3.0 Germany license by Bernd Krueger.\n\nThe MIDI, audio(MP3, OGG) and video files of Bernd Krueger are licensed under the cc-by-sa Germany License . This means, that you can use and adapt the files, as long as you attribute to the copyright holder Name: Bernd Krueger Source: http://www.piano-midi.de The distribution or public playback of the files is only allowed under identical license conditions . The scores are open source.","attribution":"Bernd Krueger","attributionUrl":"http://www.piano-midi.de"}}