{"title":"Prelude in C minor, Op. 28, No. 20","artist":"Chopin","durationMs":82900,"midiSha256":"a062acd4f7ef790125635896c95e33eecac609a5025d0c3cc574dc3f1ae68f2f","midiObject":[{"NoteNumber":55,"Velocity":76,"Duration":1432323,"SoundDuration":1432323,"Delta":0},{"NoteNumber":67,"Velocity":91,"Duration":1432323,"SoundDuration":1432323,"Delta":0},{"NoteNumber":63,"Velocity":91,"Duration":1432323,"SoundDuration":1432323,"Delta":0},{"NoteNumber":60,"Velocity":76,"Duration":1432323,"SoundDuration":1432323,"Delta":0},{"NoteNumber":36,"Velocity":66,"Duration":1432323,"SoundDuration":1432323,"Delta":0},{"NoteNumber":48,"Velocity":79,"Duration":1432323,"SoundDuration":1432323,"Delta":0},{"NoteNumber":60,"Velocity":74,"Duration":1432323,"SoundDuration":1432323,"Delta":1432323},{"NoteNumber":56,"Velocity":74,"Duration":1432323,"SoundDuration":1432323,"Delta":1432323},{"NoteNumber":63,"Velocity":87,"Duration":1432323,"SoundDuration":1432323,"Delta":1432323},{"NoteNumber":68,"Velocity":87,"Duration":1432323,"SoundDuration":1432323,"Delta":1432323},{"NoteNumber":29,"Velocity":64,"Duration":1432323,"SoundDuration":1432323,"Delta":1432323},{"NoteNumber":41,"Velocity":78,"Duration":1432323,"SoundDuration":1432323,"Delta":1432323},{"NoteNumber":67,"Velocity":89,"Duration":1074242,"SoundDuration":1074242,"Delta":2864646},{"NoteNumber":55,"Velocity":75,"Duration":1432322,"SoundDuration":1432322,"Delta":2864646},{"NoteNumber":63,"Velocity":89,"Duration":1074242,"SoundDuration":1074242,"Delta":2864646},{"NoteNumber":59,"Velocity":75,"Duration":1432322,"SoundDuration":1432322,"Delta":2864646},{"NoteNumber":31,"Velocity":64,"Duration":1432322,"SoundDuration":1432322,"Delta":2864646},{"NoteNumber":43,"Velocity":77,"Duration":1432322,"SoundDuration":1432322,"Delta":2864646},{"NoteNumber":65,"Velocity":79,"Duration":358080,"SoundDuration":358080,"Delta":3938888},{"NoteNumber":62,"Velocity":79,"Duration":358080,"SoundDuration":358080,"Delta":3938888},{"NoteNumber":55,"Velocity":69,"Duration":1439827,"SoundDuration":1439827,"Delta":4296969},{"NoteNumber":63,"Velocity":82,"Duration":1439827,"SoundDuration":1439827,"Delta":4296969},{"NoteNumber":51,"Velocity":69,"Duration":1439827,"SoundDuration":1439827,"Delta":4296969},{"NoteNumber":60,"Velocity":82,"Duration":1439827,"SoundDuration":1439827,"Delta":4296969},{"NoteNumber":36,"Velocity":56,"Duration":1439827,"SoundDuration":1439827,"Delta":4296969},{"NoteNumber":43,"Velocity":56,"Duration":1439827,"SoundDuration":1439827,"Delta":4296969},{"NoteNumber":48,"Velocity":66,"Duration":1439827,"SoundDuration":1439827,"Delta":4296969},{"NoteNumber":56,"Velocity":76,"Duration":1439930,"SoundDuration":1439930,"Delta":5812977},{"NoteNumber":60,"Velocity":91,"Duration":1439930,"SoundDuration":1439930,"Delta":5812977},{"NoteNumber":51,"Velocity":76,"Duration":1439930,"SoundDuration":1439930,"Delta":5812977},{"NoteNumber":63,"Velocity":91,"Duration":1439930,"SoundDuration":1439930,"Delta":5812977},{"NoteNumber":32,"Velocity":66,"Duration":1439930,"SoundDuration":1439930,"Delta":5812977},{"NoteNumber":44,"Velocity":79,"Duration":1439930,"SoundDuration":1439930,"Delta":5812977},{"NoteNumber":65,"Velocity":89,"Duration":1432323,"SoundDuration":1432323,"Delta":7252908},{"NoteNumber":61,"Velocity":89,"Duration":1432323,"SoundDuration":1432323,"Delta":7252908},{"NoteNumber":53,"Velocity":76,"Duration":1432323,"SoundDuration":1432323,"Delta":7252908},{"NoteNumber":56,"Velocity":76,"Duration":1432323,"SoundDuration":1432323,"Delta":7252908},{"NoteNumber":25,"Velocity":66,"Duration":1432323,"SoundDuration":1432323,"Delta":7252908},{"NoteNumber":37,"Velocity":80,"Duration":1432323,"SoundDuration":1432323,"Delta":7252908},{"NoteNumber":60,"Velocity":89,"Duration":1074242,"SoundDuration":1074242,"Delta":8685231},{"NoteNumber":63,"Velocity":89,"Duration":1074242,"SoundDuration":1074242,"Delta":8685231},{"NoteNumber":49,"Velocity":68,"Duration":1455146,"SoundDuration":1455146,"Delta":8685231},{"NoteNumber":51,"Velocity":75,"Duration":1455146,"SoundDuration":1455146,"Delta":8685231},{"NoteNumber":55,"Velocity":75,"Duration":1455146,"SoundDuration":1455146,"Delta":8685231},{"NoteNumber":27,"Velocity":64,"Duration":1455146,"SoundDuration":1455146,"Delta":8685231},{"NoteNumber":39,"Velocity":77,"Duration":1455146,"SoundDuration":1455146,"Delta":8685231},{"NoteNumber":61,"Velocity":82,"Duration":380903,"SoundDuration":380903,"Delta":9759473},{"NoteNumber":58,"Velocity":82,"Duration":380903,"SoundDuration":380903,"Delta":9759473},{"NoteNumber":48,"Velocity":72,"Duration":1447435,"SoundDuration":1447435,"Delta":10140377},{"NoteNumber":56,"Velocity":85,"Duration":1447435,"SoundDuration":1447435,"Delta":10140377},{"NoteNumber":51,"Velocity":72,"Duration":1447435,"SoundDuration":1447435,"Delta":10140377},{"NoteNumber":60,"Velocity":85,"Duration":1447435,"SoundDuration":1447435,"Delta":10140377},{"NoteNumber":32,"Velocity":57,"Duration":1447435,"SoundDuration":1447435,"Delta":10140377},{"NoteNumber":44,"Velocity":69,"Duration":1447435,"SoundDuration":1447435,"Delta":10140377},{"NoteNumber":62,"Velocity":86,"Duration":1418103,"SoundDuration":1418103,"Delta":11663993},{"NoteNumber":59,"Velocity":86,"Duration":1418103,"SoundDuration":1418103,"Delta":11663993},{"NoteNumber":50,"Velocity":72,"Duration":1418103,"SoundDuration":1418103,"Delta":11663993},{"NoteNumber":53,"Velocity":72,"Duration":1418103,"SoundDuration":1418103,"Delta":11663993},{"NoteNumber":31,"Velocity":62,"Duration":1418103,"SoundDuration":1418103,"Delta":11663993},{"NoteNumber":43,"Velocity":75,"Duration":1418103,"SoundDuration":1418103,"Delta":11663993},{"NoteNumber":60,"Velocity":87,"Duration":1471521,"SoundDuration":1471521,"Delta":13082097},{"NoteNumber":55,"Velocity":73,"Duration":1471521,"SoundDuration":1471521,"Delta":13082097},{"NoteNumber":58,"Velocity":73,"Duration":1471521,"SoundDuration":1471521,"Delta":13082097},{"NoteNumber":52,"Velocity":73,"Duration":1471521,"SoundDuration":1471521,"Delta":13082097},{"NoteNumber":64,"Velocity":87,"Duration":1471521,"SoundDuration":1471521,"Delta":13082097},{"NoteNumber":24,"Velocity":64,"Duration":1471521,"SoundDuration":1471521,"Delta":13082097},{"NoteNumber":36,"Velocity":78,"Duration":1471521,"SoundDuration":1471521,"Delta":13082097},{"NoteNumber":67,"Velocity":90,"Duration":1063577,"SoundDuration":1063577,"Delta":14553619},{"NoteNumber":60,"Velocity":79,"Duration":1418103,"SoundDuration":1418103,"Delta":14553619},{"NoteNumber":56,"Velocity":72,"Duration":1418103,"SoundDuration":1418103,"Delta":14553619},{"NoteNumber":29,"Velocity":66,"Duration":1418103,"SoundDuration":1418103,"Delta":14553619},{"NoteNumber":41,"Velocity":79,"Duration":1418103,"SoundDuration":1418103,"Delta":14553619},{"NoteNumber":65,"Velocity":80,"Duration":354525,"SoundDuration":354525,"Delta":15617197},{"NoteNumber":63,"Velocity":90,"Duration":1418104,"SoundDuration":1418104,"Delta":15971723},{"NoteNumber":60,"Velocity":90,"Duration":1418104,"SoundDuration":1418104,"Delta":15971723},{"NoteNumber":55,"Velocity":76,"Duration":1418104,"SoundDuration":1418104,"Delta":15971723},{"NoteNumber":36,"Velocity":61,"Duration":1418104,"SoundDuration":1418104,"Delta":15971723},{"NoteNumber":48,"Velocity":73,"Duration":1418104,"SoundDuration":1418104,"Delta":15971723},{"NoteNumber":62,"Velocity":92,"Duration":1418103,"SoundDuration":1418103,"Delta":17389827},{"NoteNumber":60,"Velocity":92,"Duration":1418103,"SoundDuration":1418103,"Delta":17389827},{"NoteNumber":54,"Velocity":76,"Duration":1418103,"SoundDuration":1418103,"Delta":17389827},{"NoteNumber":45,"Velocity":66,"Duration":1418103,"SoundDuration":1418103,"Delta":17389827},{"NoteNumber":38,"Velocity":66,"Duration":1418103,"SoundDuration":1418103,"Delta":17389827},{"NoteNumber":50,"Velocity":79,"Duration":1418103,"SoundDuration":1418103,"Delta":17389827},{"NoteNumber":59,"Velocity":76,"Duration":1523616,"SoundDuration":1523616,"Delta":18807931},{"NoteNumber":55,"Velocity":76,"Duration":1523616,"SoundDuration":1523616,"Delta":18807931},{"NoteNumber":67,"Velocity":93,"Duration":1523616,"SoundDuration":1523616,"Delta":18807931},{"NoteNumber":62,"Velocity":93,"Duration":1523616,"SoundDuration":1523616,"Delta":18807931},{"NoteNumber":31,"Velocity":69,"Duration":1523616,"SoundDuration":1523616,"Delta":18807931},{"NoteNumber":43,"Velocity":83,"Duration":1523616,"SoundDuration":1523616,"Delta":18807931},{"NoteNumber":66,"Velocity":81,"Duration":1446829,"SoundDuration":1446829,"Delta":20331547},{"NoteNumber":71,"Velocity":90,"Duration":1085121,"SoundDuration":1085121,"Delta":20331547},{"NoteNumber":60,"Velocity":70,"Duration":1446829,"SoundDuration":1446829,"Delta":20331547},{"NoteNumber":62,"Velocity":70,"Duration":1446829,"SoundDuration":1446829,"Delta":20331547},{"NoteNumber":26,"Velocity":60,"Duration":1446829,"SoundDuration":1446829,"Delta":20331547},{"NoteNumber":38,"Velocity":73,"Duration":1446829,"SoundDuration":1446829,"Delta":20331547},{"NoteNumber":69,"Velocity":76,"Duration":361707,"SoundDuration":361707,"Delta":21416668},{"NoteNumber":59,"Velocity":68,"Duration":1576763,"SoundDuration":1576763,"Delta":21778376},{"NoteNumber":62,"Velocity":80,"Duration":1576763,"SoundDuration":1576763,"Delta":21778376},{"NoteNumber":67,"Velocity":80,"Duration":1576763,"SoundDuration":1576763,"Delta":21778376},{"NoteNumber":31,"Velocity":54,"Duration":1576763,"SoundDuration":1576763,"Delta":21778376},{"NoteNumber":43,"Velocity":66,"Duration":1576763,"SoundDuration":1576763,"Delta":21778376},{"NoteNumber":63,"Velocity":37,"Duration":1478197,"SoundDuration":1478197,"Delta":23438127},{"NoteNumber":75,"Velocity":45,"Duration":1478197,"SoundDuration":1478197,"Delta":23438127},{"NoteNumber":67,"Velocity":45,"Duration":1478197,"SoundDuration":1478197,"Delta":23438127},{"NoteNumber":36,"Velocity":30,"Duration":1478197,"SoundDuration":1478197,"Delta":23438127},{"NoteNumber":48,"Velocity":36,"Duration":1478197,"SoundDuration":1478197,"Delta":23438127},{"NoteNumber":75,"Velocity":45,"Duration":1478196,"SoundDuration":1478196,"Delta":24916324},{"NoteNumber":68,"Velocity":45,"Duration":1478196,"SoundDuration":1478196,"Delta":24916324},{"NoteNumber":63,"Velocity":37,"Duration":1478196,"SoundDuration":1478196,"Delta":24916324},{"NoteNumber":48,"Velocity":27,"Duration":1478196,"SoundDuration":1478196,"Delta":24916324},{"NoteNumber":60,"Velocity":32,"Duration":1478196,"SoundDuration":1478196,"Delta":24916324},{"NoteNumber":62,"Velocity":37,"Duration":1478197,"SoundDuration":1478197,"Delta":26394521},{"NoteNumber":68,"Velocity":45,"Duration":1108647,"SoundDuration":1108647,"Delta":26394521},{"NoteNumber":74,"Velocity":45,"Duration":1478197,"SoundDuration":1478197,"Delta":26394521},{"NoteNumber":47,"Velocity":30,"Duration":1478197,"SoundDuration":1478197,"Delta":26394521},{"NoteNumber":59,"Velocity":36,"Duration":1478197,"SoundDuration":1478197,"Delta":26394521},{"NoteNumber":66,"Velocity":41,"Duration":369549,"SoundDuration":369549,"Delta":27503168},{"NoteNumber":67,"Velocity":45,"Duration":1478598,"SoundDuration":1478598,"Delta":27872718},{"NoteNumber":74,"Velocity":45,"Duration":1478598,"SoundDuration":1478598,"Delta":27872718},{"NoteNumber":62,"Velocity":37,"Duration":1478598,"SoundDuration":1478598,"Delta":27872718},{"NoteNumber":46,"Velocity":28,"Duration":1478598,"SoundDuration":1478598,"Delta":27872718},{"NoteNumber":58,"Velocity":34,"Duration":1478598,"SoundDuration":1478598,"Delta":27872718},{"NoteNumber":72,"Velocity":45,"Duration":1478197,"SoundDuration":1478197,"Delta":29429138},{"NoteNumber":60,"Velocity":37,"Duration":1478197,"SoundDuration":1478197,"Delta":29429138},{"NoteNumber":67,"Velocity":45,"Duration":1478197,"SoundDuration":1478197,"Delta":29429138},{"NoteNumber":45,"Velocity":30,"Duration":1478197,"SoundDuration":1478197,"Delta":29429138},{"NoteNumber":57,"Velocity":36,"Duration":1478197,"SoundDuration":1478197,"Delta":29429138},{"NoteNumber":62,"Velocity":45,"Duration":1478197,"SoundDuration":1478197,"Delta":30907335},{"NoteNumber":66,"Velocity":45,"Duration":1478197,"SoundDuration":1478197,"Delta":30907335},{"NoteNumber":60,"Velocity":38,"Duration":1478197,"SoundDuration":1478197,"Delta":30907335},{"NoteNumber":74,"Velocity":45,"Duration":1478197,"SoundDuration":1478197,"Delta":30907335},{"NoteNumber":44,"Velocity":28,"Duration":1478197,"SoundDuration":1478197,"Delta":30907335},{"NoteNumber":56,"Velocity":34,"Duration":1478197,"SoundDuration":1478197,"Delta":30907335},{"NoteNumber":62,"Velocity":39,"Duration":1108647,"SoundDuration":1108647,"Delta":32385532},{"NoteNumber":71,"Velocity":46,"Duration":1108647,"SoundDuration":1108647,"Delta":32385532},{"NoteNumber":67,"Velocity":46,"Duration":1108647,"SoundDuration":1108647,"Delta":32385532},{"NoteNumber":43,"Velocity":31,"Duration":1514601,"SoundDuration":1514601,"Delta":32385532},{"NoteNumber":55,"Velocity":37,"Duration":1514601,"SoundDuration":1514601,"Delta":32385532},{"NoteNumber":60,"Velocity":36,"Duration":405954,"SoundDuration":405954,"Delta":33494179},{"NoteNumber":69,"Velocity":44,"Duration":405954,"SoundDuration":405954,"Delta":33494179},{"NoteNumber":62,"Velocity":46,"Duration":1478599,"SoundDuration":1478599,"Delta":33900133},{"NoteNumber":59,"Velocity":39,"Duration":1478599,"SoundDuration":1478599,"Delta":33900133},{"NoteNumber":67,"Velocity":46,"Duration":1478599,"SoundDuration":1478599,"Delta":33900133},{"NoteNumber":41,"Velocity":28,"Duration":1478599,"SoundDuration":1478599,"Delta":33900133},{"NoteNumber":53,"Velocity":34,"Duration":1478599,"SoundDuration":1478599,"Delta":33900133},{"NoteNumber":67,"Velocity":49,"Duration":1556419,"SoundDuration":1556419,"Delta":35456553},{"NoteNumber":72,"Velocity":49,"Duration":1556419,"SoundDuration":1556419,"Delta":35456553},{"NoteNumber":60,"Velocity":41,"Duration":1556419,"SoundDuration":1556419,"Delta":35456553},{"NoteNumber":39,"Velocity":33,"Duration":1556419,"SoundDuration":1556419,"Delta":35456553},{"NoteNumber":51,"Velocity":39,"Duration":1556419,"SoundDuration":1556419,"Delta":35456553},{"NoteNumber":56,"Velocity":41,"Duration":1478197,"SoundDuration":1478197,"Delta":37012973},{"NoteNumber":60,"Velocity":49,"Duration":1478197,"SoundDuration":1478197,"Delta":37012973},{"NoteNumber":68,"Velocity":49,"Duration":1478197,"SoundDuration":1478197,"Delta":37012973},{"NoteNumber":41,"Velocity":36,"Duration":1478197,"SoundDuration":1478197,"Delta":37012973},{"NoteNumber":53,"Velocity":43,"Duration":1478197,"SoundDuration":1478197,"Delta":37012973},{"NoteNumber":55,"Velocity":45,"Duration":1589404,"SoundDuration":1589404,"Delta":38491170},{"NoteNumber":62,"Velocity":53,"Duration":1589404,"SoundDuration":1589404,"Delta":38491170},{"NoteNumber":67,"Velocity":53,"Duration":1192053,"SoundDuration":1192053,"Delta":38491170},{"NoteNumber":35,"Velocity":36,"Duration":1589404,"SoundDuration":1589404,"Delta":38491170},{"NoteNumber":47,"Velocity":44,"Duration":1589404,"SoundDuration":1589404,"Delta":38491170},{"NoteNumber":65,"Velocity":45,"Duration":397351,"SoundDuration":397351,"Delta":39683223},{"NoteNumber":63,"Velocity":49,"Duration":1649783,"SoundDuration":1649783,"Delta":40080574},{"NoteNumber":55,"Velocity":41,"Duration":1649783,"SoundDuration":1649783,"Delta":40080574},{"NoteNumber":60,"Velocity":49,"Duration":1649783,"SoundDuration":1649783,"Delta":40080574},{"NoteNumber":36,"Velocity":33,"Duration":1649783,"SoundDuration":1649783,"Delta":40080574},{"NoteNumber":48,"Velocity":39,"Duration":1649783,"SoundDuration":1649783,"Delta":40080574},{"NoteNumber":60,"Velocity":48,"Duration":1589824,"SoundDuration":1589824,"Delta":41817188},{"NoteNumber":63,"Velocity":48,"Duration":1589824,"SoundDuration":1589824,"Delta":41817188},{"NoteNumber":56,"Velocity":40,"Duration":1589824,"SoundDuration":1589824,"Delta":41817188},{"NoteNumber":51,"Velocity":40,"Duration":1589824,"SoundDuration":1589824,"Delta":41817188},{"NoteNumber":32,"Velocity":33,"Duration":1589824,"SoundDuration":1589824,"Delta":41817188},{"NoteNumber":44,"Velocity":39,"Duration":1589824,"SoundDuration":1589824,"Delta":41817188},{"NoteNumber":56,"Velocity":39,"Duration":1529052,"SoundDuration":1529052,"Delta":43407013},{"NoteNumber":61,"Velocity":46,"Duration":1529052,"SoundDuration":1529052,"Delta":43407013},{"NoteNumber":53,"Velocity":39,"Duration":1529052,"SoundDuration":1529052,"Delta":43407013},{"NoteNumber":65,"Velocity":46,"Duration":1529052,"SoundDuration":1529052,"Delta":43407013},{"NoteNumber":25,"Velocity":28,"Duration":1529052,"SoundDuration":1529052,"Delta":43407013},{"NoteNumber":37,"Velocity":34,"Duration":1529052,"SoundDuration":1529052,"Delta":43407013},{"NoteNumber":59,"Velocity":48,"Duration":1614326,"SoundDuration":1614326,"Delta":44936065},{"NoteNumber":55,"Velocity":40,"Duration":1614326,"SoundDuration":1614326,"Delta":44936065},{"NoteNumber":63,"Velocity":48,"Duration":1180173,"SoundDuration":1180173,"Delta":44936065},{"NoteNumber":53,"Velocity":40,"Duration":1614326,"SoundDuration":1614326,"Delta":44936065},{"NoteNumber":31,"Velocity":33,"Duration":1614326,"SoundDuration":1614326,"Delta":44936065},{"NoteNumber":43,"Velocity":39,"Duration":1614326,"SoundDuration":1614326,"Delta":44936065},{"NoteNumber":62,"Velocity":44,"Duration":434153,"SoundDuration":434153,"Delta":46116238},{"NoteNumber":51,"Velocity":36,"Duration":1876852,"SoundDuration":1876852,"Delta":46550392},{"NoteNumber":55,"Velocity":44,"Duration":1876852,"SoundDuration":1876852,"Delta":46550392},{"NoteNumber":60,"Velocity":44,"Duration":1876852,"SoundDuration":1876852,"Delta":46550392},{"NoteNumber":24,"Velocity":27,"Duration":1876852,"SoundDuration":1876852,"Delta":46550392},{"NoteNumber":36,"Velocity":32,"Duration":1876852,"SoundDuration":1876852,"Delta":46550392},{"NoteNumber":67,"Velocity":29,"Duration":1478197,"SoundDuration":1478197,"Delta":48526026},{"NoteNumber":75,"Velocity":29,"Duration":1478197,"SoundDuration":1478197,"Delta":48526026},{"NoteNumber":63,"Velocity":24,"Duration":1478197,"SoundDuration":1478197,"Delta":48526026},{"NoteNumber":36,"Velocity":19,"Duration":1478197,"SoundDuration":1478197,"Delta":48526026},{"NoteNumber":48,"Velocity":24,"Duration":1478197,"SoundDuration":1478197,"Delta":48526026},{"NoteNumber":75,"Velocity":29,"Duration":1478197,"SoundDuration":1478197,"Delta":50004223},{"NoteNumber":63,"Velocity":24,"Duration":1478197,"SoundDuration":1478197,"Delta":50004223},{"NoteNumber":68,"Velocity":29,"Duration":1478197,"SoundDuration":1478197,"Delta":50004223},{"NoteNumber":48,"Velocity":17,"Duration":1478197,"SoundDuration":1478197,"Delta":50004223},{"NoteNumber":60,"Velocity":21,"Duration":1478197,"SoundDuration":1478197,"Delta":50004223},{"NoteNumber":62,"Velocity":24,"Duration":1518148,"SoundDuration":1518148,"Delta":51482420},{"NoteNumber":74,"Velocity":29,"Duration":1518148,"SoundDuration":1518148,"Delta":51482420},{"NoteNumber":68,"Velocity":29,"Duration":1120797,"SoundDuration":1120797,"Delta":51482420},{"NoteNumber":47,"Velocity":19,"Duration":1518148,"SoundDuration":1518148,"Delta":51482420},{"NoteNumber":59,"Velocity":24,"Duration":1518148,"SoundDuration":1518148,"Delta":51482420},{"NoteNumber":66,"Velocity":27,"Duration":397351,"SoundDuration":397351,"Delta":52603217},{"NoteNumber":62,"Velocity":24,"Duration":1478599,"SoundDuration":1478599,"Delta":53000568},{"NoteNumber":74,"Velocity":29,"Duration":1478599,"SoundDuration":1478599,"Delta":53000568},{"NoteNumber":67,"Velocity":29,"Duration":1478599,"SoundDuration":1478599,"Delta":53000568},{"NoteNumber":46,"Velocity":18,"Duration":1478599,"SoundDuration":1478599,"Delta":53000568},{"NoteNumber":58,"Velocity":22,"Duration":1478599,"SoundDuration":1478599,"Delta":53000568},{"NoteNumber":60,"Velocity":24,"Duration":1478197,"SoundDuration":1478197,"Delta":54556988},{"NoteNumber":72,"Velocity":29,"Duration":1478197,"SoundDuration":1478197,"Delta":54556988},{"NoteNumber":67,"Velocity":29,"Duration":1478197,"SoundDuration":1478197,"Delta":54556988},{"NoteNumber":45,"Velocity":19,"Duration":1478197,"SoundDuration":1478197,"Delta":54556988},{"NoteNumber":57,"Velocity":24,"Duration":1478197,"SoundDuration":1478197,"Delta":54556988},{"NoteNumber":74,"Velocity":30,"Duration":1478197,"SoundDuration":1478197,"Delta":56035185},{"NoteNumber":66,"Velocity":30,"Duration":1478197,"SoundDuration":1478197,"Delta":56035185},{"NoteNumber":62,"Velocity":30,"Duration":1478197,"SoundDuration":1478197,"Delta":56035185},{"NoteNumber":60,"Velocity":25,"Duration":1478197,"SoundDuration":1478197,"Delta":56035185},{"NoteNumber":44,"Velocity":18,"Duration":1478197,"SoundDuration":1478197,"Delta":56035185},{"NoteNumber":56,"Velocity":22,"Duration":1478197,"SoundDuration":1478197,"Delta":56035185},{"NoteNumber":67,"Velocity":31,"Duration":1154036,"SoundDuration":1154036,"Delta":57513382},{"NoteNumber":62,"Velocity":26,"Duration":1154036,"SoundDuration":1154036,"Delta":57513382},{"NoteNumber":71,"Velocity":31,"Duration":1154036,"SoundDuration":1154036,"Delta":57513382},{"NoteNumber":43,"Velocity":20,"Duration":1568973,"SoundDuration":1568973,"Delta":57513382},{"NoteNumber":55,"Velocity":24,"Duration":1568973,"SoundDuration":1568973,"Delta":57513382},{"NoteNumber":60,"Velocity":24,"Duration":414937,"SoundDuration":414937,"Delta":58667418},{"NoteNumber":69,"Velocity":28,"Duration":414937,"SoundDuration":414937,"Delta":58667418},{"NoteNumber":62,"Velocity":31,"Duration":1478599,"SoundDuration":1478599,"Delta":59082356},{"NoteNumber":59,"Velocity":26,"Duration":1478599,"SoundDuration":1478599,"Delta":59082356},{"NoteNumber":67,"Velocity":31,"Duration":1478599,"SoundDuration":1478599,"Delta":59082356},{"NoteNumber":41,"Velocity":18,"Duration":1478599,"SoundDuration":1478599,"Delta":59082356},{"NoteNumber":53,"Velocity":22,"Duration":1478599,"SoundDuration":1478599,"Delta":59082356},{"NoteNumber":72,"Velocity":41,"Duration":1589404,"SoundDuration":1589404,"Delta":60638776},{"NoteNumber":60,"Velocity":35,"Duration":1589404,"SoundDuration":1589404,"Delta":60638776},{"NoteNumber":67,"Velocity":41,"Duration":1589404,"SoundDuration":1589404,"Delta":60638776},{"NoteNumber":39,"Velocity":27,"Duration":1589404,"SoundDuration":1589404,"Delta":60638776},{"NoteNumber":51,"Velocity":33,"Duration":1589404,"SoundDuration":1589404,"Delta":60638776},{"NoteNumber":60,"Velocity":41,"Duration":1697313,"SoundDuration":1697313,"Delta":62228180},{"NoteNumber":56,"Velocity":35,"Duration":1697313,"SoundDuration":1697313,"Delta":62228180},{"NoteNumber":68,"Velocity":41,"Duration":1697313,"SoundDuration":1697313,"Delta":62228180},{"NoteNumber":41,"Velocity":30,"Duration":1697313,"SoundDuration":1697313,"Delta":62228180},{"NoteNumber":53,"Velocity":36,"Duration":1697313,"SoundDuration":1697313,"Delta":62228180},{"NoteNumber":67,"Velocity":45,"Duration":1238645,"SoundDuration":1238645,"Delta":63925493},{"NoteNumber":62,"Velocity":45,"Duration":1717114,"SoundDuration":1717114,"Delta":63925493},{"NoteNumber":55,"Velocity":37,"Duration":1717114,"SoundDuration":1717114,"Delta":63925493},{"NoteNumber":35,"Velocity":30,"Duration":1717114,"SoundDuration":1717114,"Delta":63925493},{"NoteNumber":47,"Velocity":36,"Duration":1717114,"SoundDuration":1717114,"Delta":63925493},{"NoteNumber":65,"Velocity":38,"Duration":478469,"SoundDuration":478469,"Delta":65164139},{"NoteNumber":63,"Velocity":41,"Duration":1900337,"SoundDuration":1900337,"Delta":65642608},{"NoteNumber":60,"Velocity":41,"Duration":1900337,"SoundDuration":1900337,"Delta":65642608},{"NoteNumber":55,"Velocity":35,"Duration":1900337,"SoundDuration":1900337,"Delta":65642608},{"NoteNumber":36,"Velocity":27,"Duration":1900337,"SoundDuration":1900337,"Delta":65642608},{"NoteNumber":48,"Velocity":33,"Duration":1900337,"SoundDuration":1900337,"Delta":65642608},{"NoteNumber":60,"Velocity":40,"Duration":1777777,"SoundDuration":1777777,"Delta":67669635},{"NoteNumber":56,"Velocity":34,"Duration":1777777,"SoundDuration":1777777,"Delta":67669635},{"NoteNumber":51,"Velocity":34,"Duration":1777777,"SoundDuration":1777777,"Delta":67669635},{"NoteNumber":63,"Velocity":40,"Duration":1777777,"SoundDuration":1777777,"Delta":67669635},{"NoteNumber":32,"Velocity":27,"Duration":1777777,"SoundDuration":1777777,"Delta":67669635},{"NoteNumber":44,"Velocity":33,"Duration":1777777,"SoundDuration":1777777,"Delta":67669635},{"NoteNumber":65,"Velocity":39,"Duration":1777777,"SoundDuration":1777777,"Delta":69447413},{"NoteNumber":56,"Velocity":33,"Duration":1777777,"SoundDuration":1777777,"Delta":69447413},{"NoteNumber":53,"Velocity":33,"Duration":1777777,"SoundDuration":1777777,"Delta":69447413},{"NoteNumber":61,"Velocity":39,"Duration":1777777,"SoundDuration":1777777,"Delta":69447413},{"NoteNumber":25,"Velocity":24,"Duration":1777777,"SoundDuration":1777777,"Delta":69447413},{"NoteNumber":37,"Velocity":28,"Duration":1777777,"SoundDuration":1777777,"Delta":69447413},{"NoteNumber":63,"Velocity":40,"Duration":1399688,"SoundDuration":1399688,"Delta":71225191},{"NoteNumber":59,"Velocity":40,"Duration":1948134,"SoundDuration":1948134,"Delta":71225191},{"NoteNumber":53,"Velocity":34,"Duration":1948134,"SoundDuration":1948134,"Delta":71225191},{"NoteNumber":55,"Velocity":34,"Duration":1948134,"SoundDuration":1948134,"Delta":71225191},{"NoteNumber":31,"Velocity":27,"Duration":1948134,"SoundDuration":1948134,"Delta":71225191},{"NoteNumber":43,"Velocity":33,"Duration":1948134,"SoundDuration":1948134,"Delta":71225191},{"NoteNumber":62,"Velocity":36,"Duration":548445,"SoundDuration":548445,"Delta":72624880},{"NoteNumber":55,"Velocity":36,"Duration":1945525,"SoundDuration":1945525,"Delta":73173326},{"NoteNumber":51,"Velocity":30,"Duration":1945525,"SoundDuration":1945525,"Delta":73173326},{"NoteNumber":60,"Velocity":36,"Duration":1945525,"SoundDuration":1945525,"Delta":73173326},{"NoteNumber":24,"Velocity":22,"Duration":1945525,"SoundDuration":1945525,"Delta":73173326},{"NoteNumber":36,"Velocity":27,"Duration":1945525,"SoundDuration":1945525,"Delta":73173326},{"NoteNumber":72,"Velocity":63,"Duration":7782100,"SoundDuration":7782100,"Delta":75118851},{"NoteNumber":67,"Velocity":52,"Duration":7782100,"SoundDuration":7782100,"Delta":75118851},{"NoteNumber":60,"Velocity":52,"Duration":7782100,"SoundDuration":7782100,"Delta":75118851},{"NoteNumber":63,"Velocity":52,"Duration":7782100,"SoundDuration":7782100,"Delta":75118851},{"NoteNumber":48,"Velocity":37,"Duration":7782100,"SoundDuration":7782100,"Delta":75118851},{"NoteNumber":55,"Velocity":47,"Duration":7782100,"SoundDuration":7782100,"Delta":75118851}],"license":{"name":"Creative Commons Attribution-ShareAlike 3.0 Germany","url":"http://creativecommons.org/licenses/by-sa/3.0/de/deed.en","text":"The MIDI files in this folder were downloaded from http://www.piano-midi.de and are licensed under the Creative Commons Attribution-ShareAlike 3.0 Germany license by Bernd Krueger.\n\nThe MIDI, audio(MP3, OGG) and video files of Bernd Krueger are licensed under the cc-by-sa Germany License . This means, that you can use and adapt the files, as long as you attribute to the copyright holder Name: Bernd Krueger Source: http://www.piano-midi.de The distribution or public playback of the files is only allowed under identical license conditions . The scores are open source.","attribution":"Bernd Krueger","attributionUrl":"http://www.piano-midi.de"}}