{"title":"Prelude in E major, Op. 28, No. 9","artist":"Chopin","durationMs":89077,"midiSha256":"6221b438a8e02221d091ee43f0dcbf54390d1ba10294b2b48e6ed37a0c921622","midiObject":[{"NoteNumber":59,"Velocity":80,"Duration":1710714,"SoundDuration":1710714,"Delta":0},{"NoteNumber":52,"Velocity":49,"Duration":571428,"SoundDuration":571428,"Delta":10714},{"NoteNumber":56,"Velocity":58,"Duration":571428,"SoundDuration":571428,"Delta":10714},{"NoteNumber":40,"Velocity":61,"Duration":1714286,"SoundDuration":1714286,"Delta":10714},{"NoteNumber":47,"Velocity":52,"Duration":571428,"SoundDuration":571428,"Delta":567857},{"NoteNumber":52,"Velocity":39,"Duration":571428,"SoundDuration":571428,"Delta":1139286},{"NoteNumber":56,"Velocity":48,"Duration":571428,"SoundDuration":571428,"Delta":1139286},{"NoteNumber":59,"Velocity":74,"Duration":1428571,"SoundDuration":1428571,"Delta":1710715},{"NoteNumber":51,"Velocity":45,"Duration":571428,"SoundDuration":571428,"Delta":1710715},{"NoteNumber":54,"Velocity":54,"Duration":571428,"SoundDuration":571428,"Delta":1710715},{"NoteNumber":35,"Velocity":55,"Duration":1714286,"SoundDuration":1714286,"Delta":1710715},{"NoteNumber":47,"Velocity":51,"Duration":571428,"SoundDuration":571428,"Delta":2282143},{"NoteNumber":51,"Velocity":38,"Duration":571428,"SoundDuration":571428,"Delta":2853572},{"NoteNumber":54,"Velocity":45,"Duration":571428,"SoundDuration":571428,"Delta":2853572},{"NoteNumber":59,"Velocity":77,"Duration":285714,"SoundDuration":285714,"Delta":3139286},{"NoteNumber":59,"Velocity":80,"Duration":1714286,"SoundDuration":1714286,"Delta":3425001},{"NoteNumber":52,"Velocity":50,"Duration":571428,"SoundDuration":571428,"Delta":3425001},{"NoteNumber":56,"Velocity":60,"Duration":571428,"SoundDuration":571428,"Delta":3425001},{"NoteNumber":40,"Velocity":66,"Duration":1714286,"SoundDuration":1714286,"Delta":3425001},{"NoteNumber":47,"Velocity":46,"Duration":571428,"SoundDuration":571428,"Delta":3996429},{"NoteNumber":52,"Velocity":33,"Duration":571428,"SoundDuration":571428,"Delta":4567858},{"NoteNumber":56,"Velocity":40,"Duration":571428,"SoundDuration":571428,"Delta":4567858},{"NoteNumber":61,"Velocity":75,"Duration":1784714,"SoundDuration":1784714,"Delta":5139287},{"NoteNumber":52,"Velocity":50,"Duration":575569,"SoundDuration":575569,"Delta":5139287},{"NoteNumber":57,"Velocity":59,"Duration":575569,"SoundDuration":575569,"Delta":5139287},{"NoteNumber":45,"Velocity":64,"Duration":1551541,"SoundDuration":1551541,"Delta":5139287},{"NoteNumber":49,"Velocity":46,"Duration":594853,"SoundDuration":594853,"Delta":5714856},{"NoteNumber":52,"Velocity":34,"Duration":614291,"SoundDuration":614291,"Delta":6309709},{"NoteNumber":57,"Velocity":42,"Duration":614291,"SoundDuration":614291,"Delta":6309709},{"NoteNumber":44,"Velocity":64,"Duration":233173,"SoundDuration":233173,"Delta":6690828},{"NoteNumber":61,"Velocity":76,"Duration":1791044,"SoundDuration":1791044,"Delta":6924001},{"NoteNumber":54,"Velocity":54,"Duration":597014,"SoundDuration":597014,"Delta":6924001},{"NoteNumber":57,"Velocity":64,"Duration":597014,"SoundDuration":597014,"Delta":6924001},{"NoteNumber":42,"Velocity":63,"Duration":3505330,"SoundDuration":3505330,"Delta":6924001},{"NoteNumber":49,"Velocity":45,"Duration":597015,"SoundDuration":597015,"Delta":7521016},{"NoteNumber":54,"Velocity":36,"Duration":597014,"SoundDuration":597014,"Delta":8118031},{"NoteNumber":57,"Velocity":43,"Duration":597014,"SoundDuration":597014,"Delta":8118031},{"NoteNumber":63,"Velocity":78,"Duration":1428571,"SoundDuration":1428571,"Delta":8715046},{"NoteNumber":54,"Velocity":52,"Duration":571428,"SoundDuration":571428,"Delta":8715046},{"NoteNumber":57,"Velocity":61,"Duration":571428,"SoundDuration":571428,"Delta":8715046},{"NoteNumber":49,"Velocity":42,"Duration":571428,"SoundDuration":571428,"Delta":9286475},{"NoteNumber":54,"Velocity":31,"Duration":571428,"SoundDuration":571428,"Delta":9857903},{"NoteNumber":57,"Velocity":37,"Duration":571428,"SoundDuration":571428,"Delta":9857903},{"NoteNumber":63,"Velocity":75,"Duration":285714,"SoundDuration":285714,"Delta":10143618},{"NoteNumber":63,"Velocity":75,"Duration":1764706,"SoundDuration":1764706,"Delta":10429332},{"NoteNumber":54,"Velocity":50,"Duration":588235,"SoundDuration":588235,"Delta":10429332},{"NoteNumber":59,"Velocity":60,"Duration":588235,"SoundDuration":588235,"Delta":10429332},{"NoteNumber":35,"Velocity":60,"Duration":1764706,"SoundDuration":1764706,"Delta":10429332},{"NoteNumber":51,"Velocity":42,"Duration":588235,"SoundDuration":588235,"Delta":11017567},{"NoteNumber":54,"Velocity":34,"Duration":588235,"SoundDuration":588235,"Delta":11605803},{"NoteNumber":59,"Velocity":42,"Duration":588235,"SoundDuration":588235,"Delta":11605803},{"NoteNumber":63,"Velocity":73,"Duration":1666667,"SoundDuration":1666667,"Delta":12194038},{"NoteNumber":56,"Velocity":50,"Duration":555555,"SoundDuration":555555,"Delta":12194038},{"NoteNumber":59,"Velocity":60,"Duration":555555,"SoundDuration":555555,"Delta":12194038},{"NoteNumber":47,"Velocity":58,"Duration":1458333,"SoundDuration":1458333,"Delta":12194038},{"NoteNumber":51,"Velocity":44,"Duration":555555,"SoundDuration":555555,"Delta":12749594},{"NoteNumber":56,"Velocity":37,"Duration":555555,"SoundDuration":555555,"Delta":13305149},{"NoteNumber":59,"Velocity":44,"Duration":555555,"SoundDuration":555555,"Delta":13305149},{"NoteNumber":47,"Velocity":62,"Duration":208333,"SoundDuration":208333,"Delta":13652372},{"NoteNumber":64,"Velocity":75,"Duration":1739129,"SoundDuration":1739129,"Delta":13860705},{"NoteNumber":56,"Velocity":48,"Duration":579710,"SoundDuration":579710,"Delta":13860705},{"NoteNumber":59,"Velocity":57,"Duration":579710,"SoundDuration":579710,"Delta":13860705},{"NoteNumber":37,"Velocity":64,"Duration":1739129,"SoundDuration":1739129,"Delta":13860705},{"NoteNumber":52,"Velocity":48,"Duration":579710,"SoundDuration":579710,"Delta":14440415},{"NoteNumber":56,"Velocity":37,"Duration":579709,"SoundDuration":579709,"Delta":15020125},{"NoteNumber":59,"Velocity":44,"Duration":579709,"SoundDuration":579709,"Delta":15020125},{"NoteNumber":64,"Velocity":76,"Duration":1449275,"SoundDuration":1449275,"Delta":15599835},{"NoteNumber":61,"Velocity":60,"Duration":579709,"SoundDuration":579709,"Delta":15599835},{"NoteNumber":54,"Velocity":51,"Duration":579709,"SoundDuration":579709,"Delta":15599835},{"NoteNumber":45,"Velocity":64,"Duration":1521738,"SoundDuration":1521738,"Delta":15599835},{"NoteNumber":52,"Velocity":45,"Duration":579710,"SoundDuration":579710,"Delta":16179545},{"NoteNumber":61,"Velocity":43,"Duration":579709,"SoundDuration":579709,"Delta":16759255},{"NoteNumber":54,"Velocity":36,"Duration":579709,"SoundDuration":579709,"Delta":16759255},{"NoteNumber":64,"Velocity":80,"Duration":289854,"SoundDuration":289854,"Delta":17049110},{"NoteNumber":45,"Velocity":68,"Duration":217391,"SoundDuration":217391,"Delta":17121574},{"NoteNumber":64,"Velocity":80,"Duration":1818182,"SoundDuration":1818182,"Delta":17338965},{"NoteNumber":59,"Velocity":64,"Duration":606060,"SoundDuration":606060,"Delta":17338965},{"NoteNumber":54,"Velocity":54,"Duration":606060,"SoundDuration":606060,"Delta":17338965},{"NoteNumber":35,"Velocity":68,"Duration":1636363,"SoundDuration":1636363,"Delta":17338965},{"NoteNumber":52,"Velocity":45,"Duration":606060,"SoundDuration":606060,"Delta":17945026},{"NoteNumber":59,"Velocity":43,"Duration":606060,"SoundDuration":606060,"Delta":18551086},{"NoteNumber":54,"Velocity":37,"Duration":606060,"SoundDuration":606060,"Delta":18551086},{"NoteNumber":34,"Velocity":40,"Duration":90909,"SoundDuration":90909,"Delta":18975329},{"NoteNumber":35,"Velocity":40,"Duration":90909,"SoundDuration":90909,"Delta":19066238},{"NoteNumber":63,"Velocity":85,"Duration":1515151,"SoundDuration":1515151,"Delta":19157147},{"NoteNumber":59,"Velocity":64,"Duration":606060,"SoundDuration":606060,"Delta":19157147},{"NoteNumber":54,"Velocity":54,"Duration":606060,"SoundDuration":606060,"Delta":19157147},{"NoteNumber":37,"Velocity":40,"Duration":90909,"SoundDuration":90909,"Delta":19157147},{"NoteNumber":35,"Velocity":40,"Duration":90909,"SoundDuration":90909,"Delta":19248056},{"NoteNumber":37,"Velocity":40,"Duration":90909,"SoundDuration":90909,"Delta":19338965},{"NoteNumber":35,"Velocity":40,"Duration":90909,"SoundDuration":90909,"Delta":19429874},{"NoteNumber":37,"Velocity":40,"Duration":90909,"SoundDuration":90909,"Delta":19520784},{"NoteNumber":35,"Velocity":40,"Duration":90909,"SoundDuration":90909,"Delta":19611693},{"NoteNumber":37,"Velocity":40,"Duration":90909,"SoundDuration":90909,"Delta":19702602},{"NoteNumber":51,"Velocity":45,"Duration":606060,"SoundDuration":606060,"Delta":19763208},{"NoteNumber":35,"Velocity":40,"Duration":90909,"SoundDuration":90909,"Delta":19793511},{"NoteNumber":37,"Velocity":39,"Duration":90909,"SoundDuration":90909,"Delta":19884420},{"NoteNumber":35,"Velocity":41,"Duration":90909,"SoundDuration":90909,"Delta":19975329},{"NoteNumber":37,"Velocity":44,"Duration":90909,"SoundDuration":90909,"Delta":20066238},{"NoteNumber":35,"Velocity":45,"Duration":90909,"SoundDuration":90909,"Delta":20157147},{"NoteNumber":37,"Velocity":47,"Duration":90909,"SoundDuration":90909,"Delta":20248056},{"NoteNumber":35,"Velocity":49,"Duration":90909,"SoundDuration":90909,"Delta":20338965},{"NoteNumber":59,"Velocity":49,"Duration":606060,"SoundDuration":606060,"Delta":20369268},{"NoteNumber":54,"Velocity":42,"Duration":606060,"SoundDuration":606060,"Delta":20369268},{"NoteNumber":37,"Velocity":51,"Duration":90909,"SoundDuration":90909,"Delta":20429875},{"NoteNumber":35,"Velocity":53,"Duration":90909,"SoundDuration":90909,"Delta":20520784},{"NoteNumber":37,"Velocity":54,"Duration":90909,"SoundDuration":90909,"Delta":20611693},{"NoteNumber":63,"Velocity":85,"Duration":303030,"SoundDuration":303030,"Delta":20672299},{"NoteNumber":35,"Velocity":56,"Duration":90909,"SoundDuration":90909,"Delta":20702602},{"NoteNumber":34,"Velocity":58,"Duration":90909,"SoundDuration":90909,"Delta":20793511},{"NoteNumber":35,"Velocity":61,"Duration":90909,"SoundDuration":90909,"Delta":20884420},{"NoteNumber":63,"Velocity":90,"Duration":1818182,"SoundDuration":1818182,"Delta":20975329},{"NoteNumber":56,"Velocity":59,"Duration":606060,"SoundDuration":606060,"Delta":20975329},{"NoteNumber":59,"Velocity":70,"Duration":606060,"SoundDuration":606060,"Delta":20975329},{"NoteNumber":37,"Velocity":62,"Duration":1818182,"SoundDuration":1818182,"Delta":20975329},{"NoteNumber":52,"Velocity":49,"Duration":606060,"SoundDuration":606060,"Delta":21581390},{"NoteNumber":56,"Velocity":38,"Duration":606060,"SoundDuration":606060,"Delta":22187450},{"NoteNumber":59,"Velocity":46,"Duration":606060,"SoundDuration":606060,"Delta":22187450},{"NoteNumber":63,"Velocity":80,"Duration":1519886,"SoundDuration":1519886,"Delta":22793511},{"NoteNumber":54,"Velocity":54,"Duration":606060,"SoundDuration":606060,"Delta":22793511},{"NoteNumber":58,"Velocity":64,"Duration":606060,"SoundDuration":606060,"Delta":22793511},{"NoteNumber":42,"Velocity":68,"Duration":1598011,"SoundDuration":1598011,"Delta":22793511},{"NoteNumber":52,"Velocity":45,"Duration":606060,"SoundDuration":606060,"Delta":23399572},{"NoteNumber":54,"Velocity":34,"Duration":639453,"SoundDuration":639453,"Delta":24005632},{"NoteNumber":58,"Velocity":42,"Duration":639453,"SoundDuration":639453,"Delta":24005632},{"NoteNumber":61,"Velocity":64,"Duration":331688,"SoundDuration":331688,"Delta":24313398},{"NoteNumber":42,"Velocity":54,"Duration":253563,"SoundDuration":253563,"Delta":24391523},{"NoteNumber":61,"Velocity":64,"Duration":1789947,"SoundDuration":1789947,"Delta":24645086},{"NoteNumber":54,"Velocity":42,"Duration":597014,"SoundDuration":597014,"Delta":24645086},{"NoteNumber":57,"Velocity":50,"Duration":597014,"SoundDuration":597014,"Delta":24645086},{"NoteNumber":39,"Velocity":54,"Duration":1611940,"SoundDuration":1611940,"Delta":24645086},{"NoteNumber":49,"Velocity":42,"Duration":597015,"SoundDuration":597015,"Delta":25242101},{"NoteNumber":54,"Velocity":34,"Duration":595917,"SoundDuration":595917,"Delta":25839116},{"NoteNumber":57,"Velocity":42,"Duration":595917,"SoundDuration":595917,"Delta":25839116},{"NoteNumber":38,"Velocity":44,"Duration":89552,"SoundDuration":89552,"Delta":26257027},{"NoteNumber":39,"Velocity":44,"Duration":88454,"SoundDuration":88454,"Delta":26346579},{"NoteNumber":61,"Velocity":64,"Duration":1596984,"SoundDuration":1596984,"Delta":26435034},{"NoteNumber":54,"Velocity":43,"Duration":606269,"SoundDuration":606269,"Delta":26435034},{"NoteNumber":57,"Velocity":51,"Duration":606269,"SoundDuration":606269,"Delta":26435034},{"NoteNumber":40,"Velocity":44,"Duration":88454,"SoundDuration":88454,"Delta":26435034},{"NoteNumber":39,"Velocity":43,"Duration":89552,"SoundDuration":89552,"Delta":26523489},{"NoteNumber":40,"Velocity":43,"Duration":90230,"SoundDuration":90230,"Delta":26613041},{"NoteNumber":39,"Velocity":43,"Duration":90909,"SoundDuration":90909,"Delta":26703272},{"NoteNumber":40,"Velocity":42,"Duration":92074,"SoundDuration":92074,"Delta":26794181},{"NoteNumber":39,"Velocity":42,"Duration":92548,"SoundDuration":92548,"Delta":26886255},{"NoteNumber":40,"Velocity":42,"Duration":93750,"SoundDuration":93750,"Delta":26978803},{"NoteNumber":47,"Velocity":42,"Duration":645413,"SoundDuration":645413,"Delta":27041303},{"NoteNumber":39,"Velocity":40,"Duration":94494,"SoundDuration":94494,"Delta":27072553},{"NoteNumber":40,"Velocity":41,"Duration":95238,"SoundDuration":95238,"Delta":27167047},{"NoteNumber":39,"Velocity":40,"Duration":96518,"SoundDuration":96518,"Delta":27262285},{"NoteNumber":40,"Velocity":41,"Duration":97038,"SoundDuration":97038,"Delta":27358804},{"NoteNumber":39,"Velocity":42,"Duration":98360,"SoundDuration":98360,"Delta":27455842},{"NoteNumber":40,"Velocity":42,"Duration":99180,"SoundDuration":99180,"Delta":27554203},{"NoteNumber":39,"Velocity":43,"Duration":99999,"SoundDuration":99999,"Delta":27653383},{"NoteNumber":54,"Velocity":28,"Duration":795369,"SoundDuration":795369,"Delta":27686717},{"NoteNumber":57,"Velocity":33,"Duration":795369,"SoundDuration":795369,"Delta":27686717},{"NoteNumber":40,"Velocity":43,"Duration":207181,"SoundDuration":207181,"Delta":27753383},{"NoteNumber":39,"Velocity":43,"Duration":214362,"SoundDuration":214362,"Delta":27853383},{"NoteNumber":37,"Velocity":44,"Duration":107181,"SoundDuration":107181,"Delta":27960564},{"NoteNumber":59,"Velocity":46,"Duration":450067,"SoundDuration":450067,"Delta":28032018},{"NoteNumber":39,"Velocity":44,"Duration":125740,"SoundDuration":125740,"Delta":28067746},{"NoteNumber":40,"Velocity":43,"Duration":144300,"SoundDuration":144300,"Delta":28193486},{"NoteNumber":42,"Velocity":51,"Duration":144300,"SoundDuration":144300,"Delta":28337786},{"NoteNumber":59,"Velocity":41,"Duration":1875000,"SoundDuration":1875000,"Delta":28482086},{"NoteNumber":52,"Velocity":27,"Duration":625000,"SoundDuration":625000,"Delta":28482086},{"NoteNumber":56,"Velocity":32,"Duration":625000,"SoundDuration":625000,"Delta":28482086},{"NoteNumber":40,"Velocity":34,"Duration":1875000,"SoundDuration":1875000,"Delta":28482086},{"NoteNumber":47,"Velocity":25,"Duration":625000,"SoundDuration":625000,"Delta":29107086},{"NoteNumber":52,"Velocity":21,"Duration":625000,"SoundDuration":625000,"Delta":29732086},{"NoteNumber":56,"Velocity":25,"Duration":625000,"SoundDuration":625000,"Delta":29732086},{"NoteNumber":59,"Velocity":44,"Duration":1492537,"SoundDuration":1492537,"Delta":30357086},{"NoteNumber":51,"Velocity":28,"Duration":597014,"SoundDuration":597014,"Delta":30357086},{"NoteNumber":54,"Velocity":34,"Duration":597014,"SoundDuration":597014,"Delta":30357086},{"NoteNumber":35,"Velocity":36,"Duration":1791045,"SoundDuration":1791045,"Delta":30357086},{"NoteNumber":47,"Velocity":27,"Duration":597015,"SoundDuration":597015,"Delta":30954101},{"NoteNumber":51,"Velocity":22,"Duration":597014,"SoundDuration":597014,"Delta":31551116},{"NoteNumber":54,"Velocity":27,"Duration":597014,"SoundDuration":597014,"Delta":31551116},{"NoteNumber":59,"Velocity":47,"Duration":298507,"SoundDuration":298507,"Delta":31849624},{"NoteNumber":59,"Velocity":47,"Duration":1666666,"SoundDuration":1666666,"Delta":32148131},{"NoteNumber":50,"Velocity":29,"Duration":555555,"SoundDuration":555555,"Delta":32148131},{"NoteNumber":55,"Velocity":34,"Duration":555555,"SoundDuration":555555,"Delta":32148131},{"NoteNumber":31,"Velocity":39,"Duration":1666666,"SoundDuration":1666666,"Delta":32148131},{"NoteNumber":47,"Velocity":28,"Duration":555555,"SoundDuration":555555,"Delta":32703687},{"NoteNumber":50,"Velocity":22,"Duration":555555,"SoundDuration":555555,"Delta":33259243},{"NoteNumber":55,"Velocity":27,"Duration":555555,"SoundDuration":555555,"Delta":33259243},{"NoteNumber":59,"Velocity":51,"Duration":1428571,"SoundDuration":1428571,"Delta":33814798},{"NoteNumber":50,"Velocity":34,"Duration":571428,"SoundDuration":571428,"Delta":33814798},{"NoteNumber":55,"Velocity":40,"Duration":571428,"SoundDuration":571428,"Delta":33814798},{"NoteNumber":43,"Velocity":42,"Duration":1500000,"SoundDuration":1500000,"Delta":33814798},{"NoteNumber":47,"Velocity":30,"Duration":571428,"SoundDuration":571428,"Delta":34386227},{"NoteNumber":50,"Velocity":24,"Duration":571428,"SoundDuration":571428,"Delta":34957656},{"NoteNumber":55,"Velocity":30,"Duration":571428,"SoundDuration":571428,"Delta":34957656},{"NoteNumber":59,"Velocity":61,"Duration":285714,"SoundDuration":285714,"Delta":35243370},{"NoteNumber":41,"Velocity":52,"Duration":214285,"SoundDuration":214285,"Delta":35314799},{"NoteNumber":60,"Velocity":62,"Duration":1714286,"SoundDuration":1714286,"Delta":35529084},{"NoteNumber":55,"Velocity":49,"Duration":571428,"SoundDuration":571428,"Delta":35529084},{"NoteNumber":48,"Velocity":40,"Duration":571428,"SoundDuration":571428,"Delta":36100513},{"NoteNumber":55,"Velocity":40,"Duration":571428,"SoundDuration":571428,"Delta":36671942},{"NoteNumber":62,"Velocity":66,"Duration":1714286,"SoundDuration":1714286,"Delta":37243370},{"NoteNumber":58,"Velocity":52,"Duration":571428,"SoundDuration":571428,"Delta":37243370},{"NoteNumber":55,"Velocity":44,"Duration":571428,"SoundDuration":571428,"Delta":37243370},{"NoteNumber":38,"Velocity":53,"Duration":1714286,"SoundDuration":1714286,"Delta":37243370},{"NoteNumber":50,"Velocity":43,"Duration":571428,"SoundDuration":571428,"Delta":37814799},{"NoteNumber":58,"Velocity":43,"Duration":571428,"SoundDuration":571428,"Delta":38386228},{"NoteNumber":55,"Velocity":37,"Duration":571428,"SoundDuration":571428,"Delta":38386228},{"NoteNumber":64,"Velocity":72,"Duration":1643836,"SoundDuration":1643836,"Delta":38957656},{"NoteNumber":58,"Velocity":56,"Duration":547945,"SoundDuration":547945,"Delta":38957656},{"NoteNumber":55,"Velocity":47,"Duration":547945,"SoundDuration":547945,"Delta":38957656},{"NoteNumber":36,"Velocity":56,"Duration":1643836,"SoundDuration":1643836,"Delta":38957656},{"NoteNumber":52,"Velocity":46,"Duration":547945,"SoundDuration":547945,"Delta":39505602},{"NoteNumber":58,"Velocity":48,"Duration":547945,"SoundDuration":547945,"Delta":40053547},{"NoteNumber":55,"Velocity":39,"Duration":547945,"SoundDuration":547945,"Delta":40053547},{"NoteNumber":64,"Velocity":76,"Duration":1388889,"SoundDuration":1388889,"Delta":40601492},{"NoteNumber":60,"Velocity":58,"Duration":555555,"SoundDuration":555555,"Delta":40601492},{"NoteNumber":55,"Velocity":49,"Duration":555555,"SoundDuration":555555,"Delta":40601492},{"NoteNumber":36,"Velocity":48,"Duration":1458333,"SoundDuration":1458333,"Delta":40601492},{"NoteNumber":48,"Velocity":57,"Duration":1458333,"SoundDuration":1458333,"Delta":40601492},{"NoteNumber":52,"Velocity":52,"Duration":555555,"SoundDuration":555555,"Delta":41157048},{"NoteNumber":60,"Velocity":50,"Duration":555555,"SoundDuration":555555,"Delta":41712604},{"NoteNumber":55,"Velocity":42,"Duration":555555,"SoundDuration":555555,"Delta":41712604},{"NoteNumber":64,"Velocity":80,"Duration":277777,"SoundDuration":277777,"Delta":41990382},{"NoteNumber":35,"Velocity":43,"Duration":208333,"SoundDuration":208333,"Delta":42059826},{"NoteNumber":47,"Velocity":52,"Duration":208333,"SoundDuration":208333,"Delta":42059826},{"NoteNumber":64,"Velocity":83,"Duration":1739130,"SoundDuration":1739130,"Delta":42268159},{"NoteNumber":57,"Velocity":54,"Duration":579709,"SoundDuration":579709,"Delta":42268159},{"NoteNumber":61,"Velocity":65,"Duration":579709,"SoundDuration":579709,"Delta":42268159},{"NoteNumber":33,"Velocity":43,"Duration":1739130,"SoundDuration":1739130,"Delta":42268159},{"NoteNumber":45,"Velocity":52,"Duration":1739130,"SoundDuration":1739130,"Delta":42268159},{"NoteNumber":52,"Velocity":58,"Duration":579709,"SoundDuration":579709,"Delta":42847869},{"NoteNumber":61,"Velocity":53,"Duration":579710,"SoundDuration":579710,"Delta":43427579},{"NoteNumber":57,"Velocity":45,"Duration":579710,"SoundDuration":579710,"Delta":43427579},{"NoteNumber":64,"Velocity":86,"Duration":1369863,"SoundDuration":1369863,"Delta":44007289},{"NoteNumber":58,"Velocity":56,"Duration":547945,"SoundDuration":547945,"Delta":44007289},{"NoteNumber":61,"Velocity":66,"Duration":547945,"SoundDuration":547945,"Delta":44007289},{"NoteNumber":31,"Velocity":48,"Duration":1438356,"SoundDuration":1438356,"Delta":44007289},{"NoteNumber":43,"Velocity":57,"Duration":1438356,"SoundDuration":1438356,"Delta":44007289},{"NoteNumber":52,"Velocity":58,"Duration":547945,"SoundDuration":547945,"Delta":44555235},{"NoteNumber":58,"Velocity":46,"Duration":547945,"SoundDuration":547945,"Delta":45103180},{"NoteNumber":61,"Velocity":54,"Duration":547945,"SoundDuration":547945,"Delta":45103180},{"NoteNumber":64,"Velocity":87,"Duration":273972,"SoundDuration":273972,"Delta":45377153},{"NoteNumber":31,"Velocity":48,"Duration":205479,"SoundDuration":205479,"Delta":45445646},{"NoteNumber":43,"Velocity":56,"Duration":205479,"SoundDuration":205479,"Delta":45445646},{"NoteNumber":65,"Velocity":89,"Duration":1643836,"SoundDuration":1643836,"Delta":45651125},{"NoteNumber":58,"Velocity":59,"Duration":547945,"SoundDuration":547945,"Delta":45651125},{"NoteNumber":61,"Velocity":70,"Duration":547945,"SoundDuration":547945,"Delta":45651125},{"NoteNumber":29,"Velocity":48,"Duration":1643836,"SoundDuration":1643836,"Delta":45651125},{"NoteNumber":41,"Velocity":56,"Duration":1643836,"SoundDuration":1643836,"Delta":45651125},{"NoteNumber":53,"Velocity":59,"Duration":547945,"SoundDuration":547945,"Delta":46199071},{"NoteNumber":58,"Velocity":46,"Duration":547945,"SoundDuration":547945,"Delta":46747016},{"NoteNumber":61,"Velocity":55,"Duration":547945,"SoundDuration":547945,"Delta":46747016},{"NoteNumber":67,"Velocity":91,"Duration":1788018,"SoundDuration":1788018,"Delta":47294961},{"NoteNumber":58,"Velocity":60,"Duration":571428,"SoundDuration":571428,"Delta":47294961},{"NoteNumber":61,"Velocity":71,"Duration":571428,"SoundDuration":571428,"Delta":47294961},{"NoteNumber":28,"Velocity":49,"Duration":1788018,"SoundDuration":1788018,"Delta":47294961},{"NoteNumber":40,"Velocity":57,"Duration":1788018,"SoundDuration":1788018,"Delta":47294961},{"NoteNumber":55,"Velocity":61,"Duration":571428,"SoundDuration":571428,"Delta":47866390},{"NoteNumber":58,"Velocity":47,"Duration":645161,"SoundDuration":645161,"Delta":48437819},{"NoteNumber":61,"Velocity":56,"Duration":645161,"SoundDuration":645161,"Delta":48437819},{"NoteNumber":68,"Velocity":96,"Duration":1159419,"SoundDuration":1159419,"Delta":49082980},{"NoteNumber":56,"Velocity":60,"Duration":579709,"SoundDuration":579709,"Delta":49082980},{"NoteNumber":60,"Velocity":72,"Duration":579709,"SoundDuration":579709,"Delta":49082980},{"NoteNumber":27,"Velocity":52,"Duration":3519668,"SoundDuration":3519668,"Delta":49082980},{"NoteNumber":39,"Velocity":62,"Duration":3519668,"SoundDuration":3519668,"Delta":49082980},{"NoteNumber":51,"Velocity":62,"Duration":579709,"SoundDuration":579709,"Delta":49662690},{"NoteNumber":63,"Velocity":91,"Duration":621118,"SoundDuration":621118,"Delta":50242400},{"NoteNumber":56,"Velocity":48,"Duration":621118,"SoundDuration":621118,"Delta":50242400},{"NoteNumber":60,"Velocity":57,"Duration":621118,"SoundDuration":621118,"Delta":50242400},{"NoteNumber":63,"Velocity":88,"Duration":1449275,"SoundDuration":1449275,"Delta":50863518},{"NoteNumber":55,"Velocity":60,"Duration":579709,"SoundDuration":579709,"Delta":50863518},{"NoteNumber":60,"Velocity":72,"Duration":579709,"SoundDuration":579709,"Delta":50863518},{"NoteNumber":51,"Velocity":57,"Duration":579709,"SoundDuration":579709,"Delta":51443228},{"NoteNumber":55,"Velocity":48,"Duration":579710,"SoundDuration":579710,"Delta":52022938},{"NoteNumber":58,"Velocity":57,"Duration":579710,"SoundDuration":579710,"Delta":52022938},{"NoteNumber":61,"Velocity":78,"Duration":289855,"SoundDuration":289855,"Delta":52312793},{"NoteNumber":60,"Velocity":75,"Duration":1449274,"SoundDuration":1449274,"Delta":52602648},{"NoteNumber":56,"Velocity":63,"Duration":579709,"SoundDuration":579709,"Delta":52602648},{"NoteNumber":32,"Velocity":61,"Duration":1739129,"SoundDuration":1739129,"Delta":52602648},{"NoteNumber":51,"Velocity":45,"Duration":579709,"SoundDuration":579709,"Delta":53182358},{"NoteNumber":56,"Velocity":45,"Duration":579709,"SoundDuration":579709,"Delta":53762068},{"NoteNumber":59,"Velocity":71,"Duration":289855,"SoundDuration":289855,"Delta":54051923},{"NoteNumber":59,"Velocity":69,"Duration":1888052,"SoundDuration":1888052,"Delta":54341778},{"NoteNumber":51,"Velocity":45,"Duration":669521,"SoundDuration":669521,"Delta":54341778},{"NoteNumber":56,"Velocity":54,"Duration":669521,"SoundDuration":669521,"Delta":54341778},{"NoteNumber":35,"Velocity":53,"Duration":2378488,"SoundDuration":2378488,"Delta":54341778},{"NoteNumber":47,"Velocity":39,"Duration":769230,"SoundDuration":769230,"Delta":55011300},{"NoteNumber":51,"Velocity":33,"Duration":939736,"SoundDuration":939736,"Delta":55780530},{"NoteNumber":57,"Velocity":39,"Duration":939736,"SoundDuration":939736,"Delta":55780530},{"NoteNumber":59,"Velocity":44,"Duration":490436,"SoundDuration":490436,"Delta":56229830},{"NoteNumber":59,"Velocity":36,"Duration":1836922,"SoundDuration":1836922,"Delta":56720267},{"NoteNumber":52,"Velocity":24,"Duration":624801,"SoundDuration":624801,"Delta":56720267},{"NoteNumber":56,"Velocity":28,"Duration":624801,"SoundDuration":624801,"Delta":56720267},{"NoteNumber":28,"Velocity":18,"Duration":1836922,"SoundDuration":1836922,"Delta":56720267},{"NoteNumber":40,"Velocity":22,"Duration":1836922,"SoundDuration":1836922,"Delta":56720267},{"NoteNumber":47,"Velocity":21,"Duration":606060,"SoundDuration":606060,"Delta":57345068},{"NoteNumber":52,"Velocity":19,"Duration":606060,"SoundDuration":606060,"Delta":57951129},{"NoteNumber":56,"Velocity":22,"Duration":606060,"SoundDuration":606060,"Delta":57951129},{"NoteNumber":59,"Velocity":39,"Duration":1590909,"SoundDuration":1590909,"Delta":58557189},{"NoteNumber":51,"Velocity":24,"Duration":606060,"SoundDuration":606060,"Delta":58557189},{"NoteNumber":54,"Velocity":30,"Duration":606060,"SoundDuration":606060,"Delta":58557189},{"NoteNumber":35,"Velocity":27,"Duration":1818182,"SoundDuration":1818182,"Delta":58557189},{"NoteNumber":47,"Velocity":24,"Duration":606060,"SoundDuration":606060,"Delta":59163250},{"NoteNumber":51,"Velocity":19,"Duration":606060,"SoundDuration":606060,"Delta":59769311},{"NoteNumber":54,"Velocity":24,"Duration":606060,"SoundDuration":606060,"Delta":59769311},{"NoteNumber":59,"Velocity":40,"Duration":227272,"SoundDuration":227272,"Delta":60148099},{"NoteNumber":59,"Velocity":42,"Duration":1739130,"SoundDuration":1739130,"Delta":60375371},{"NoteNumber":52,"Velocity":29,"Duration":579709,"SoundDuration":579709,"Delta":60375371},{"NoteNumber":56,"Velocity":34,"Duration":579709,"SoundDuration":579709,"Delta":60375371},{"NoteNumber":40,"Velocity":30,"Duration":1739130,"SoundDuration":1739130,"Delta":60375371},{"NoteNumber":47,"Velocity":25,"Duration":579709,"SoundDuration":579709,"Delta":60955081},{"NoteNumber":52,"Velocity":21,"Duration":579710,"SoundDuration":579710,"Delta":61534791},{"NoteNumber":56,"Velocity":25,"Duration":579710,"SoundDuration":579710,"Delta":61534791},{"NoteNumber":60,"Velocity":45,"Duration":1818182,"SoundDuration":1818182,"Delta":62114501},{"NoteNumber":52,"Velocity":30,"Duration":606060,"SoundDuration":606060,"Delta":62114501},{"NoteNumber":57,"Velocity":36,"Duration":606060,"SoundDuration":606060,"Delta":62114501},{"NoteNumber":33,"Velocity":28,"Duration":1590909,"SoundDuration":1590909,"Delta":62114501},{"NoteNumber":45,"Velocity":33,"Duration":1590909,"SoundDuration":1590909,"Delta":62114501},{"NoteNumber":48,"Velocity":31,"Duration":606060,"SoundDuration":606060,"Delta":62720562},{"NoteNumber":52,"Velocity":25,"Duration":606060,"SoundDuration":606060,"Delta":63326623},{"NoteNumber":57,"Velocity":31,"Duration":606060,"SoundDuration":606060,"Delta":63326623},{"NoteNumber":33,"Velocity":33,"Duration":227272,"SoundDuration":227272,"Delta":63705411},{"NoteNumber":45,"Velocity":39,"Duration":227272,"SoundDuration":227272,"Delta":63705411},{"NoteNumber":60,"Velocity":49,"Duration":1818182,"SoundDuration":1818182,"Delta":63932683},{"NoteNumber":53,"Velocity":33,"Duration":606060,"SoundDuration":606060,"Delta":63932683},{"NoteNumber":57,"Velocity":39,"Duration":606060,"SoundDuration":606060,"Delta":63932683},{"NoteNumber":29,"Velocity":33,"Duration":1818182,"SoundDuration":1818182,"Delta":63932683},{"NoteNumber":41,"Velocity":40,"Duration":1818182,"SoundDuration":1818182,"Delta":63932683},{"NoteNumber":48,"Velocity":27,"Duration":606060,"SoundDuration":606060,"Delta":64538744},{"NoteNumber":53,"Velocity":24,"Duration":606060,"SoundDuration":606060,"Delta":65144805},{"NoteNumber":57,"Velocity":28,"Duration":606060,"SoundDuration":606060,"Delta":65144805},{"NoteNumber":60,"Velocity":42,"Duration":1590909,"SoundDuration":1590909,"Delta":65750865},{"NoteNumber":52,"Velocity":25,"Duration":606060,"SoundDuration":606060,"Delta":65750865},{"NoteNumber":55,"Velocity":29,"Duration":606060,"SoundDuration":606060,"Delta":65750865},{"NoteNumber":24,"Velocity":27,"Duration":1818181,"SoundDuration":1818181,"Delta":65750865},{"NoteNumber":36,"Velocity":32,"Duration":1818181,"SoundDuration":1818181,"Delta":65750865},{"NoteNumber":48,"Velocity":24,"Duration":606060,"SoundDuration":606060,"Delta":66356926},{"NoteNumber":52,"Velocity":20,"Duration":606060,"SoundDuration":606060,"Delta":66962987},{"NoteNumber":55,"Velocity":25,"Duration":606060,"SoundDuration":606060,"Delta":66962987},{"NoteNumber":60,"Velocity":45,"Duration":227272,"SoundDuration":227272,"Delta":67341775},{"NoteNumber":60,"Velocity":46,"Duration":1739130,"SoundDuration":1739130,"Delta":67569047},{"NoteNumber":53,"Velocity":31,"Duration":579710,"SoundDuration":579710,"Delta":67569047},{"NoteNumber":57,"Velocity":37,"Duration":579710,"SoundDuration":579710,"Delta":67569047},{"NoteNumber":29,"Velocity":33,"Duration":1739130,"SoundDuration":1739130,"Delta":67569047},{"NoteNumber":41,"Velocity":39,"Duration":1739130,"SoundDuration":1739130,"Delta":67569047},{"NoteNumber":48,"Velocity":28,"Duration":579709,"SoundDuration":579709,"Delta":68148757},{"NoteNumber":53,"Velocity":25,"Duration":579710,"SoundDuration":579710,"Delta":68728467},{"NoteNumber":57,"Velocity":30,"Duration":579710,"SoundDuration":579710,"Delta":68728467},{"NoteNumber":62,"Velocity":62,"Duration":1492537,"SoundDuration":1492537,"Delta":69308177},{"NoteNumber":53,"Velocity":39,"Duration":597014,"SoundDuration":597014,"Delta":69308177},{"NoteNumber":58,"Velocity":47,"Duration":597014,"SoundDuration":597014,"Delta":69308177},{"NoteNumber":34,"Velocity":39,"Duration":1567164,"SoundDuration":1567164,"Delta":69308177},{"NoteNumber":46,"Velocity":47,"Duration":1567164,"SoundDuration":1567164,"Delta":69308177},{"NoteNumber":50,"Velocity":39,"Duration":597014,"SoundDuration":597014,"Delta":69905192},{"NoteNumber":53,"Velocity":30,"Duration":597014,"SoundDuration":597014,"Delta":70502207},{"NoteNumber":58,"Velocity":36,"Duration":597014,"SoundDuration":597014,"Delta":70502207},{"NoteNumber":62,"Velocity":70,"Duration":298507,"SoundDuration":298507,"Delta":70800715},{"NoteNumber":34,"Velocity":46,"Duration":223880,"SoundDuration":223880,"Delta":70875342},{"NoteNumber":46,"Velocity":55,"Duration":223880,"SoundDuration":223880,"Delta":70875342},{"NoteNumber":62,"Velocity":61,"Duration":1791044,"SoundDuration":1791044,"Delta":71099222},{"NoteNumber":55,"Velocity":34,"Duration":597014,"SoundDuration":597014,"Delta":71099222},{"NoteNumber":58,"Velocity":56,"Duration":597014,"SoundDuration":597014,"Delta":71099222},{"NoteNumber":31,"Velocity":48,"Duration":1791044,"SoundDuration":1791044,"Delta":71099222},{"NoteNumber":43,"Velocity":57,"Duration":1791044,"SoundDuration":1791044,"Delta":71099222},{"NoteNumber":50,"Velocity":46,"Duration":597014,"SoundDuration":597014,"Delta":71696237},{"NoteNumber":55,"Velocity":36,"Duration":597014,"SoundDuration":597014,"Delta":72293252},{"NoteNumber":58,"Velocity":51,"Duration":597014,"SoundDuration":597014,"Delta":72293252},{"NoteNumber":62,"Velocity":74,"Duration":1567164,"SoundDuration":1567164,"Delta":72890267},{"NoteNumber":54,"Velocity":51,"Duration":597014,"SoundDuration":597014,"Delta":72890267},{"NoteNumber":57,"Velocity":60,"Duration":597014,"SoundDuration":597014,"Delta":72890267},{"NoteNumber":26,"Velocity":57,"Duration":1791045,"SoundDuration":1791045,"Delta":72890267},{"NoteNumber":38,"Velocity":68,"Duration":1791045,"SoundDuration":1791045,"Delta":72890267},{"NoteNumber":50,"Velocity":55,"Duration":597015,"SoundDuration":597015,"Delta":73487282},{"NoteNumber":54,"Velocity":52,"Duration":597014,"SoundDuration":597014,"Delta":74084297},{"NoteNumber":57,"Velocity":52,"Duration":597014,"SoundDuration":597014,"Delta":74084297},{"NoteNumber":62,"Velocity":73,"Duration":223880,"SoundDuration":223880,"Delta":74457432},{"NoteNumber":62,"Velocity":73,"Duration":1880115,"SoundDuration":1880115,"Delta":74681312},{"NoteNumber":55,"Velocity":51,"Duration":597014,"SoundDuration":597014,"Delta":74681312},{"NoteNumber":59,"Velocity":60,"Duration":597014,"SoundDuration":597014,"Delta":74681312},{"NoteNumber":31,"Velocity":54,"Duration":1880115,"SoundDuration":1880115,"Delta":74681312},{"NoteNumber":43,"Velocity":64,"Duration":1880115,"SoundDuration":1880115,"Delta":74681312},{"NoteNumber":50,"Velocity":55,"Duration":637939,"SoundDuration":637939,"Delta":75278327},{"NoteNumber":55,"Velocity":39,"Duration":645161,"SoundDuration":645161,"Delta":75916267},{"NoteNumber":59,"Velocity":55,"Duration":645161,"SoundDuration":645161,"Delta":75916267},{"NoteNumber":63,"Velocity":84,"Duration":1777085,"SoundDuration":1777085,"Delta":76561428},{"NoteNumber":54,"Velocity":42,"Duration":665591,"SoundDuration":665591,"Delta":76561428},{"NoteNumber":59,"Velocity":70,"Duration":665591,"SoundDuration":665591,"Delta":76561428},{"NoteNumber":35,"Velocity":56,"Duration":1777085,"SoundDuration":1777085,"Delta":76561428},{"NoteNumber":47,"Velocity":67,"Duration":1777085,"SoundDuration":1777085,"Delta":76561428},{"NoteNumber":51,"Velocity":64,"Duration":680459,"SoundDuration":680459,"Delta":77227019},{"NoteNumber":54,"Velocity":42,"Duration":689655,"SoundDuration":689655,"Delta":77907479},{"NoteNumber":59,"Velocity":59,"Duration":689655,"SoundDuration":689655,"Delta":77907479},{"NoteNumber":64,"Velocity":82,"Duration":258620,"SoundDuration":258620,"Delta":78338514},{"NoteNumber":35,"Velocity":56,"Duration":129310,"SoundDuration":129310,"Delta":78338514},{"NoteNumber":47,"Velocity":67,"Duration":129310,"SoundDuration":129310,"Delta":78338514},{"NoteNumber":28,"Velocity":67,"Duration":4300588,"SoundDuration":4300588,"Delta":78467824},{"NoteNumber":64,"Velocity":89,"Duration":1935484,"SoundDuration":1935484,"Delta":78597135},{"NoteNumber":56,"Velocity":54,"Duration":645161,"SoundDuration":645161,"Delta":78597135},{"NoteNumber":59,"Velocity":76,"Duration":645161,"SoundDuration":645161,"Delta":78597135},{"NoteNumber":40,"Velocity":74,"Duration":10480754,"SoundDuration":10480754,"Delta":78597135},{"NoteNumber":52,"Velocity":66,"Duration":645161,"SoundDuration":645161,"Delta":79242296},{"NoteNumber":56,"Velocity":50,"Duration":645161,"SoundDuration":645161,"Delta":79887457},{"NoteNumber":59,"Velocity":59,"Duration":645161,"SoundDuration":645161,"Delta":79887457},{"NoteNumber":64,"Velocity":88,"Duration":1860606,"SoundDuration":1860606,"Delta":80532619},{"NoteNumber":56,"Velocity":54,"Duration":714285,"SoundDuration":714285,"Delta":80532619},{"NoteNumber":59,"Velocity":76,"Duration":714285,"SoundDuration":714285,"Delta":80532619},{"NoteNumber":35,"Velocity":74,"Duration":8545270,"SoundDuration":8545270,"Delta":80532619},{"NoteNumber":52,"Velocity":67,"Duration":714285,"SoundDuration":714285,"Delta":81246904},{"NoteNumber":59,"Velocity":57,"Duration":7116699,"SoundDuration":7116699,"Delta":81961190},{"NoteNumber":56,"Velocity":48,"Duration":807223,"SoundDuration":807223,"Delta":81961190},{"NoteNumber":64,"Velocity":87,"Duration":375187,"SoundDuration":375187,"Delta":82393225},{"NoteNumber":64,"Velocity":94,"Duration":6309476,"SoundDuration":6309476,"Delta":82768413},{"NoteNumber":56,"Velocity":54,"Duration":6309476,"SoundDuration":6309476,"Delta":82768413},{"NoteNumber":52,"Velocity":54,"Duration":6309476,"SoundDuration":6309476,"Delta":82768413},{"NoteNumber":28,"Velocity":74,"Duration":6309476,"SoundDuration":6309476,"Delta":82768413}],"license":{"name":"Creative Commons Attribution-ShareAlike 3.0 Germany","url":"http://creativecommons.org/licenses/by-sa/3.0/de/deed.en","text":"The MIDI files in this folder were downloaded from http://www.piano-midi.de and are licensed under the Creative Commons Attribution-ShareAlike 3.0 Germany license by Bernd Krueger.\n\nThe MIDI, audio(MP3, OGG) and video files of Bernd Krueger are licensed under the cc-by-sa Germany License . This means, that you can use and adapt the files, as long as you attribute to the copyright holder Name: Bernd Krueger Source: http://www.piano-midi.de The distribution or public playback of the files is only allowed under identical license conditions . The scores are open source.","attribution":"Bernd Krueger","attributionUrl":"http://www.piano-midi.de"}}