{"title":"Prelude No. 13 in F-sharp major, Op. 28","artist":"Chopin","durationMs":150083,"midiSha256":"2c6c3faafa3d2f746594a3af22849dce7ebe75373e1d28efe7af52898007936c","midiObject":[{"NoteNumber":61,"Velocity":34,"Duration":1887204,"SoundDuration":1887204,"Delta":0},{"NoteNumber":66,"Velocity":41,"Duration":1887204,"SoundDuration":1887204,"Delta":0},{"NoteNumber":70,"Velocity":55,"Duration":1887204,"SoundDuration":1887204,"Delta":0},{"NoteNumber":42,"Velocity":39,"Duration":346821,"SoundDuration":346821,"Delta":0},{"NoteNumber":53,"Velocity":20,"Duration":331491,"SoundDuration":331491,"Delta":346821},{"NoteNumber":56,"Velocity":25,"Duration":294117,"SoundDuration":294117,"Delta":678312},{"NoteNumber":54,"Velocity":21,"Duration":294117,"SoundDuration":294117,"Delta":972430},{"NoteNumber":58,"Velocity":28,"Duration":301507,"SoundDuration":301507,"Delta":1266547},{"NoteNumber":49,"Velocity":25,"Duration":319148,"SoundDuration":319148,"Delta":1568055},{"NoteNumber":66,"Velocity":41,"Duration":1825684,"SoundDuration":1825684,"Delta":1887204},{"NoteNumber":61,"Velocity":34,"Duration":1825684,"SoundDuration":1825684,"Delta":1887204},{"NoteNumber":70,"Velocity":55,"Duration":1825684,"SoundDuration":1825684,"Delta":1887204},{"NoteNumber":42,"Velocity":39,"Duration":335195,"SoundDuration":335195,"Delta":1887204},{"NoteNumber":53,"Velocity":22,"Duration":297029,"SoundDuration":297029,"Delta":2222399},{"NoteNumber":56,"Velocity":29,"Duration":287081,"SoundDuration":287081,"Delta":2519429},{"NoteNumber":54,"Velocity":23,"Duration":294117,"SoundDuration":294117,"Delta":2806510},{"NoteNumber":58,"Velocity":31,"Duration":304568,"SoundDuration":304568,"Delta":3100628},{"NoteNumber":49,"Velocity":27,"Duration":307692,"SoundDuration":307692,"Delta":3405196},{"NoteNumber":61,"Velocity":34,"Duration":1832383,"SoundDuration":1832383,"Delta":3712888},{"NoteNumber":70,"Velocity":55,"Duration":1832383,"SoundDuration":1832383,"Delta":3712888},{"NoteNumber":66,"Velocity":41,"Duration":1832383,"SoundDuration":1832383,"Delta":3712888},{"NoteNumber":42,"Velocity":39,"Duration":317460,"SoundDuration":317460,"Delta":3712888},{"NoteNumber":53,"Velocity":25,"Duration":307692,"SoundDuration":307692,"Delta":4030349},{"NoteNumber":56,"Velocity":28,"Duration":291261,"SoundDuration":291261,"Delta":4338042},{"NoteNumber":54,"Velocity":25,"Duration":299999,"SoundDuration":299999,"Delta":4629303},{"NoteNumber":58,"Velocity":32,"Duration":298507,"SoundDuration":298507,"Delta":4929303},{"NoteNumber":49,"Velocity":28,"Duration":317460,"SoundDuration":317460,"Delta":5227811},{"NoteNumber":65,"Velocity":41,"Duration":1882449,"SoundDuration":1882449,"Delta":5545272},{"NoteNumber":71,"Velocity":55,"Duration":1246426,"SoundDuration":1246426,"Delta":5545272},{"NoteNumber":37,"Velocity":39,"Duration":327868,"SoundDuration":327868,"Delta":5545272},{"NoteNumber":55,"Velocity":29,"Duration":309278,"SoundDuration":309278,"Delta":5873140},{"NoteNumber":58,"Velocity":32,"Duration":299999,"SoundDuration":299999,"Delta":6182419},{"NoteNumber":56,"Velocity":28,"Duration":309278,"SoundDuration":309278,"Delta":6482419},{"NoteNumber":68,"Velocity":49,"Duration":636023,"SoundDuration":636023,"Delta":6791698},{"NoteNumber":59,"Velocity":32,"Duration":311698,"SoundDuration":311698,"Delta":6791698},{"NoteNumber":49,"Velocity":27,"Duration":324324,"SoundDuration":324324,"Delta":7103396},{"NoteNumber":66,"Velocity":37,"Duration":1858682,"SoundDuration":1858682,"Delta":7427721},{"NoteNumber":70,"Velocity":51,"Duration":1858682,"SoundDuration":1858682,"Delta":7427721},{"NoteNumber":61,"Velocity":32,"Duration":1858682,"SoundDuration":1858682,"Delta":7427721},{"NoteNumber":42,"Velocity":39,"Duration":320855,"SoundDuration":320855,"Delta":7427721},{"NoteNumber":53,"Velocity":25,"Duration":309278,"SoundDuration":309278,"Delta":7748576},{"NoteNumber":56,"Velocity":28,"Duration":300000,"SoundDuration":300000,"Delta":8057855},{"NoteNumber":54,"Velocity":26,"Duration":299999,"SoundDuration":299999,"Delta":8357855},{"NoteNumber":58,"Velocity":28,"Duration":307692,"SoundDuration":307692,"Delta":8657855},{"NoteNumber":49,"Velocity":27,"Duration":320855,"SoundDuration":320855,"Delta":8965547},{"NoteNumber":61,"Velocity":35,"Duration":1848347,"SoundDuration":1848347,"Delta":9286403},{"NoteNumber":66,"Velocity":43,"Duration":1227691,"SoundDuration":1227691,"Delta":9286403},{"NoteNumber":70,"Velocity":57,"Duration":1227691,"SoundDuration":1227691,"Delta":9286403},{"NoteNumber":42,"Velocity":40,"Duration":333333,"SoundDuration":333333,"Delta":9286403},{"NoteNumber":53,"Velocity":33,"Duration":306122,"SoundDuration":306122,"Delta":9619736},{"NoteNumber":56,"Velocity":38,"Duration":294117,"SoundDuration":294117,"Delta":9925859},{"NoteNumber":54,"Velocity":33,"Duration":294117,"SoundDuration":294117,"Delta":10219976},{"NoteNumber":70,"Velocity":59,"Duration":620656,"SoundDuration":620656,"Delta":10514094},{"NoteNumber":66,"Velocity":44,"Duration":620656,"SoundDuration":620656,"Delta":10514094},{"NoteNumber":58,"Velocity":38,"Duration":301507,"SoundDuration":301507,"Delta":10514094},{"NoteNumber":49,"Velocity":33,"Duration":319148,"SoundDuration":319148,"Delta":10815601},{"NoteNumber":61,"Velocity":33,"Duration":1789172,"SoundDuration":1789172,"Delta":11134750},{"NoteNumber":70,"Velocity":66,"Duration":342052,"SoundDuration":342052,"Delta":11134750},{"NoteNumber":66,"Velocity":49,"Duration":342052,"SoundDuration":342052,"Delta":11134750},{"NoteNumber":42,"Velocity":44,"Duration":284359,"SoundDuration":284359,"Delta":11134750},{"NoteNumber":53,"Velocity":33,"Duration":288461,"SoundDuration":288461,"Delta":11419110},{"NoteNumber":71,"Velocity":49,"Duration":348995,"SoundDuration":348995,"Delta":11476803},{"NoteNumber":68,"Velocity":36,"Duration":348995,"SoundDuration":348995,"Delta":11476803},{"NoteNumber":56,"Velocity":37,"Duration":295566,"SoundDuration":295566,"Delta":11707572},{"NoteNumber":70,"Velocity":49,"Duration":349588,"SoundDuration":349588,"Delta":11825798},{"NoteNumber":66,"Velocity":36,"Duration":349588,"SoundDuration":349588,"Delta":11825798},{"NoteNumber":54,"Velocity":30,"Duration":287081,"SoundDuration":287081,"Delta":12003138},{"NoteNumber":65,"Velocity":36,"Duration":353638,"SoundDuration":353638,"Delta":12175387},{"NoteNumber":68,"Velocity":49,"Duration":353638,"SoundDuration":353638,"Delta":12175387},{"NoteNumber":58,"Velocity":38,"Duration":298507,"SoundDuration":298507,"Delta":12290220},{"NoteNumber":70,"Velocity":47,"Duration":394896,"SoundDuration":394896,"Delta":12529026},{"NoteNumber":66,"Velocity":36,"Duration":394896,"SoundDuration":394896,"Delta":12529026},{"NoteNumber":49,"Velocity":33,"Duration":335195,"SoundDuration":335195,"Delta":12588727},{"NoteNumber":65,"Velocity":32,"Duration":1229376,"SoundDuration":1229376,"Delta":12923923},{"NoteNumber":73,"Velocity":66,"Duration":629376,"SoundDuration":629376,"Delta":12923923},{"NoteNumber":70,"Velocity":49,"Duration":629376,"SoundDuration":629376,"Delta":12923923},{"NoteNumber":37,"Velocity":39,"Duration":327868,"SoundDuration":327868,"Delta":12923923},{"NoteNumber":55,"Velocity":28,"Duration":301507,"SoundDuration":301507,"Delta":13251792},{"NoteNumber":71,"Velocity":49,"Duration":599999,"SoundDuration":599999,"Delta":13553299},{"NoteNumber":68,"Velocity":36,"Duration":599999,"SoundDuration":599999,"Delta":13553299},{"NoteNumber":58,"Velocity":33,"Duration":300000,"SoundDuration":300000,"Delta":13553299},{"NoteNumber":56,"Velocity":28,"Duration":299999,"SoundDuration":299999,"Delta":13853299},{"NoteNumber":59,"Velocity":32,"Duration":300000,"SoundDuration":300000,"Delta":14153299},{"NoteNumber":68,"Velocity":50,"Duration":324324,"SoundDuration":324324,"Delta":14453299},{"NoteNumber":61,"Velocity":32,"Duration":324324,"SoundDuration":324324,"Delta":14453299},{"NoteNumber":49,"Velocity":29,"Duration":324324,"SoundDuration":324324,"Delta":14453299},{"NoteNumber":61,"Velocity":34,"Duration":1848347,"SoundDuration":1848347,"Delta":14777624},{"NoteNumber":66,"Velocity":46,"Duration":1848347,"SoundDuration":1848347,"Delta":14777624},{"NoteNumber":70,"Velocity":55,"Duration":1848347,"SoundDuration":1848347,"Delta":14777624},{"NoteNumber":42,"Velocity":39,"Duration":333333,"SoundDuration":333333,"Delta":14777624},{"NoteNumber":53,"Velocity":26,"Duration":306122,"SoundDuration":306122,"Delta":15110957},{"NoteNumber":56,"Velocity":31,"Duration":294117,"SoundDuration":294117,"Delta":15417080},{"NoteNumber":54,"Velocity":30,"Duration":294117,"SoundDuration":294117,"Delta":15711197},{"NoteNumber":58,"Velocity":35,"Duration":301507,"SoundDuration":301507,"Delta":16005315},{"NoteNumber":49,"Velocity":33,"Duration":319148,"SoundDuration":319148,"Delta":16306822},{"NoteNumber":70,"Velocity":55,"Duration":1815945,"SoundDuration":1815945,"Delta":16625971},{"NoteNumber":61,"Velocity":41,"Duration":1815945,"SoundDuration":1815945,"Delta":16625971},{"NoteNumber":73,"Velocity":66,"Duration":1815945,"SoundDuration":1815945,"Delta":16625971},{"NoteNumber":42,"Velocity":46,"Duration":322580,"SoundDuration":322580,"Delta":16625971},{"NoteNumber":53,"Velocity":30,"Duration":300000,"SoundDuration":300000,"Delta":16948552},{"NoteNumber":56,"Velocity":43,"Duration":294117,"SoundDuration":294117,"Delta":17248552},{"NoteNumber":54,"Velocity":37,"Duration":288461,"SoundDuration":288461,"Delta":17542669},{"NoteNumber":58,"Velocity":46,"Duration":301507,"SoundDuration":301507,"Delta":17831131},{"NoteNumber":49,"Velocity":41,"Duration":309278,"SoundDuration":309278,"Delta":18132638},{"NoteNumber":70,"Velocity":62,"Duration":1794496,"SoundDuration":1794496,"Delta":18441917},{"NoteNumber":78,"Velocity":72,"Duration":1794496,"SoundDuration":1794496,"Delta":18441917},{"NoteNumber":66,"Velocity":46,"Duration":1794496,"SoundDuration":1794496,"Delta":18441917},{"NoteNumber":39,"Velocity":53,"Duration":314136,"SoundDuration":314136,"Delta":18441917},{"NoteNumber":57,"Velocity":39,"Duration":298507,"SoundDuration":298507,"Delta":18756053},{"NoteNumber":60,"Velocity":46,"Duration":289854,"SoundDuration":289854,"Delta":19054560},{"NoteNumber":58,"Velocity":38,"Duration":289854,"SoundDuration":289854,"Delta":19344415},{"NoteNumber":63,"Velocity":43,"Duration":291261,"SoundDuration":291261,"Delta":19634270},{"NoteNumber":54,"Velocity":34,"Duration":310880,"SoundDuration":310880,"Delta":19925532},{"NoteNumber":73,"Velocity":50,"Duration":1892054,"SoundDuration":1892054,"Delta":20236413},{"NoteNumber":77,"Velocity":60,"Duration":1676627,"SoundDuration":1676627,"Delta":20236413},{"NoteNumber":68,"Velocity":37,"Duration":1892054,"SoundDuration":1892054,"Delta":20236413},{"NoteNumber":44,"Velocity":42,"Duration":310880,"SoundDuration":310880,"Delta":20236413},{"NoteNumber":55,"Velocity":28,"Duration":297029,"SoundDuration":297029,"Delta":20547294},{"NoteNumber":58,"Velocity":33,"Duration":289854,"SoundDuration":289854,"Delta":20844324},{"NoteNumber":56,"Velocity":28,"Duration":289854,"SoundDuration":289854,"Delta":21134179},{"NoteNumber":61,"Velocity":31,"Duration":301507,"SoundDuration":301507,"Delta":21424034},{"NoteNumber":53,"Velocity":27,"Duration":276257,"SoundDuration":276257,"Delta":21725541},{"NoteNumber":66,"Velocity":36,"Duration":2058309,"SoundDuration":2058309,"Delta":21913041},{"NoteNumber":68,"Velocity":42,"Duration":1999137,"SoundDuration":1999137,"Delta":21972213},{"NoteNumber":77,"Velocity":44,"Duration":97082,"SoundDuration":97082,"Delta":22031384},{"NoteNumber":75,"Velocity":56,"Duration":1842883,"SoundDuration":1842883,"Delta":22128467},{"NoteNumber":44,"Velocity":39,"Duration":327868,"SoundDuration":327868,"Delta":22128467},{"NoteNumber":55,"Velocity":26,"Duration":306122,"SoundDuration":306122,"Delta":22456336},{"NoteNumber":58,"Velocity":29,"Duration":294117,"SoundDuration":294117,"Delta":22762459},{"NoteNumber":56,"Velocity":26,"Duration":294117,"SoundDuration":294117,"Delta":23056576},{"NoteNumber":60,"Velocity":29,"Duration":301507,"SoundDuration":301507,"Delta":23350694},{"NoteNumber":51,"Velocity":25,"Duration":319148,"SoundDuration":319148,"Delta":23652201},{"NoteNumber":65,"Velocity":28,"Duration":1848347,"SoundDuration":1848347,"Delta":23971350},{"NoteNumber":73,"Velocity":45,"Duration":1848347,"SoundDuration":1848347,"Delta":23971350},{"NoteNumber":68,"Velocity":37,"Duration":1848347,"SoundDuration":1848347,"Delta":23971350},{"NoteNumber":49,"Velocity":36,"Duration":333333,"SoundDuration":333333,"Delta":23971350},{"NoteNumber":55,"Velocity":26,"Duration":306122,"SoundDuration":306122,"Delta":24304684},{"NoteNumber":58,"Velocity":29,"Duration":294117,"SoundDuration":294117,"Delta":24610806},{"NoteNumber":56,"Velocity":26,"Duration":294117,"SoundDuration":294117,"Delta":24904924},{"NoteNumber":61,"Velocity":29,"Duration":301507,"SoundDuration":301507,"Delta":25199041},{"NoteNumber":53,"Velocity":25,"Duration":319148,"SoundDuration":319148,"Delta":25500549},{"NoteNumber":56,"Velocity":33,"Duration":309278,"SoundDuration":309278,"Delta":25819698},{"NoteNumber":54,"Velocity":26,"Duration":300000,"SoundDuration":300000,"Delta":26128976},{"NoteNumber":59,"Velocity":30,"Duration":298017,"SoundDuration":298017,"Delta":26428976},{"NoteNumber":51,"Velocity":27,"Duration":301512,"SoundDuration":301512,"Delta":26726994},{"NoteNumber":54,"Velocity":31,"Duration":305089,"SoundDuration":305089,"Delta":27028506},{"NoteNumber":53,"Velocity":27,"Duration":309283,"SoundDuration":309283,"Delta":27333595},{"NoteNumber":58,"Velocity":30,"Duration":312500,"SoundDuration":312500,"Delta":27642879},{"NoteNumber":49,"Velocity":28,"Duration":324324,"SoundDuration":324324,"Delta":27955379},{"NoteNumber":58,"Velocity":31,"Duration":317460,"SoundDuration":317460,"Delta":28279704},{"NoteNumber":47,"Velocity":28,"Duration":340908,"SoundDuration":340908,"Delta":28597164},{"NoteNumber":58,"Velocity":33,"Duration":331491,"SoundDuration":331491,"Delta":28938073},{"NoteNumber":56,"Velocity":28,"Duration":230769,"SoundDuration":230769,"Delta":29269565},{"NoteNumber":58,"Velocity":27,"Duration":135304,"SoundDuration":135304,"Delta":29500334},{"NoteNumber":66,"Velocity":36,"Duration":1848347,"SoundDuration":1848347,"Delta":29607861},{"NoteNumber":70,"Velocity":49,"Duration":1848347,"SoundDuration":1848347,"Delta":29607861},{"NoteNumber":61,"Velocity":27,"Duration":1848347,"SoundDuration":1848347,"Delta":29607861},{"NoteNumber":42,"Velocity":39,"Duration":333333,"SoundDuration":333333,"Delta":29607861},{"NoteNumber":53,"Velocity":21,"Duration":306122,"SoundDuration":306122,"Delta":29941195},{"NoteNumber":56,"Velocity":27,"Duration":294117,"SoundDuration":294117,"Delta":30247317},{"NoteNumber":54,"Velocity":26,"Duration":294117,"SoundDuration":294117,"Delta":30541435},{"NoteNumber":58,"Velocity":29,"Duration":301507,"SoundDuration":301507,"Delta":30835552},{"NoteNumber":49,"Velocity":25,"Duration":319148,"SoundDuration":319148,"Delta":31137060},{"NoteNumber":61,"Velocity":34,"Duration":1799562,"SoundDuration":1799562,"Delta":31456209},{"NoteNumber":66,"Velocity":41,"Duration":1799562,"SoundDuration":1799562,"Delta":31456209},{"NoteNumber":70,"Velocity":55,"Duration":1799562,"SoundDuration":1799562,"Delta":31456209},{"NoteNumber":42,"Velocity":39,"Duration":319148,"SoundDuration":319148,"Delta":31456209},{"NoteNumber":53,"Velocity":23,"Duration":297029,"SoundDuration":297029,"Delta":31775358},{"NoteNumber":56,"Velocity":27,"Duration":294117,"SoundDuration":294117,"Delta":32072387},{"NoteNumber":54,"Velocity":26,"Duration":285714,"SoundDuration":285714,"Delta":32366505},{"NoteNumber":58,"Velocity":31,"Duration":295859,"SoundDuration":295859,"Delta":32652219},{"NoteNumber":49,"Velocity":28,"Duration":307692,"SoundDuration":307692,"Delta":32948078},{"NoteNumber":66,"Velocity":41,"Duration":1835180,"SoundDuration":1835180,"Delta":33255771},{"NoteNumber":61,"Velocity":34,"Duration":3708350,"SoundDuration":3708350,"Delta":33255771},{"NoteNumber":70,"Velocity":55,"Duration":1835180,"SoundDuration":1835180,"Delta":33255771},{"NoteNumber":42,"Velocity":39,"Duration":317460,"SoundDuration":317460,"Delta":33255771},{"NoteNumber":53,"Velocity":25,"Duration":307692,"SoundDuration":307692,"Delta":33573231},{"NoteNumber":56,"Velocity":28,"Duration":297029,"SoundDuration":297029,"Delta":33880924},{"NoteNumber":54,"Velocity":25,"Duration":297029,"SoundDuration":297029,"Delta":34177953},{"NoteNumber":58,"Velocity":33,"Duration":298507,"SoundDuration":298507,"Delta":34474983},{"NoteNumber":49,"Velocity":29,"Duration":317460,"SoundDuration":317460,"Delta":34773490},{"NoteNumber":71,"Velocity":55,"Duration":1711008,"SoundDuration":1711008,"Delta":35090951},{"NoteNumber":65,"Velocity":46,"Duration":1873170,"SoundDuration":1873170,"Delta":35090951},{"NoteNumber":37,"Velocity":39,"Duration":327868,"SoundDuration":327868,"Delta":35090951},{"NoteNumber":55,"Velocity":25,"Duration":309278,"SoundDuration":309278,"Delta":35418820},{"NoteNumber":58,"Velocity":28,"Duration":299999,"SoundDuration":299999,"Delta":35728098},{"NoteNumber":56,"Velocity":25,"Duration":300000,"SoundDuration":300000,"Delta":36028098},{"NoteNumber":59,"Velocity":28,"Duration":311698,"SoundDuration":311698,"Delta":36328098},{"NoteNumber":49,"Velocity":25,"Duration":324324,"SoundDuration":324324,"Delta":36639797},{"NoteNumber":68,"Velocity":46,"Duration":162162,"SoundDuration":162162,"Delta":36801959},{"NoteNumber":66,"Velocity":37,"Duration":1858682,"SoundDuration":1858682,"Delta":36964122},{"NoteNumber":61,"Velocity":32,"Duration":1858682,"SoundDuration":1858682,"Delta":36964122},{"NoteNumber":70,"Velocity":51,"Duration":1858682,"SoundDuration":1858682,"Delta":36964122},{"NoteNumber":42,"Velocity":39,"Duration":320855,"SoundDuration":320855,"Delta":36964122},{"NoteNumber":53,"Velocity":25,"Duration":309278,"SoundDuration":309278,"Delta":37284977},{"NoteNumber":56,"Velocity":28,"Duration":299999,"SoundDuration":299999,"Delta":37594256},{"NoteNumber":54,"Velocity":26,"Duration":300000,"SoundDuration":300000,"Delta":37894256},{"NoteNumber":58,"Velocity":28,"Duration":307692,"SoundDuration":307692,"Delta":38194256},{"NoteNumber":49,"Velocity":26,"Duration":320855,"SoundDuration":320855,"Delta":38501948},{"NoteNumber":61,"Velocity":41,"Duration":835534,"SoundDuration":835534,"Delta":38822804},{"NoteNumber":70,"Velocity":55,"Duration":835534,"SoundDuration":835534,"Delta":38822804},{"NoteNumber":66,"Velocity":41,"Duration":639456,"SoundDuration":639456,"Delta":38822804},{"NoteNumber":42,"Velocity":39,"Duration":333333,"SoundDuration":333333,"Delta":38822804},{"NoteNumber":53,"Velocity":32,"Duration":306122,"SoundDuration":306122,"Delta":39156137},{"NoteNumber":56,"Velocity":36,"Duration":303042,"SoundDuration":303042,"Delta":39462260},{"NoteNumber":61,"Velocity":26,"Duration":203508,"SoundDuration":203508,"Delta":39658338},{"NoteNumber":70,"Velocity":48,"Duration":203508,"SoundDuration":203508,"Delta":39658338},{"NoteNumber":66,"Velocity":35,"Duration":203508,"SoundDuration":203508,"Delta":39658338},{"NoteNumber":54,"Velocity":30,"Duration":316677,"SoundDuration":316677,"Delta":39765302},{"NoteNumber":66,"Velocity":36,"Duration":199075,"SoundDuration":199075,"Delta":39872542},{"NoteNumber":70,"Velocity":49,"Duration":199075,"SoundDuration":199075,"Delta":39872542},{"NoteNumber":61,"Velocity":27,"Duration":199075,"SoundDuration":199075,"Delta":39872542},{"NoteNumber":61,"Velocity":28,"Duration":189054,"SoundDuration":189054,"Delta":40081980},{"NoteNumber":66,"Velocity":36,"Duration":189054,"SoundDuration":189054,"Delta":40081980},{"NoteNumber":70,"Velocity":51,"Duration":189054,"SoundDuration":189054,"Delta":40081980},{"NoteNumber":58,"Velocity":35,"Duration":298507,"SoundDuration":298507,"Delta":40081980},{"NoteNumber":66,"Velocity":39,"Duration":195247,"SoundDuration":195247,"Delta":40280985},{"NoteNumber":70,"Velocity":52,"Duration":195247,"SoundDuration":195247,"Delta":40280985},{"NoteNumber":61,"Velocity":29,"Duration":195247,"SoundDuration":195247,"Delta":40280985},{"NoteNumber":49,"Velocity":31,"Duration":319149,"SoundDuration":319149,"Delta":40380488},{"NoteNumber":70,"Velocity":56,"Duration":202127,"SoundDuration":202127,"Delta":40486871},{"NoteNumber":66,"Velocity":41,"Duration":202127,"SoundDuration":202127,"Delta":40486871},{"NoteNumber":61,"Velocity":31,"Duration":202127,"SoundDuration":202127,"Delta":40486871},{"NoteNumber":66,"Velocity":49,"Duration":586968,"SoundDuration":586968,"Delta":40699637},{"NoteNumber":70,"Velocity":66,"Duration":586968,"SoundDuration":586968,"Delta":40699637},{"NoteNumber":61,"Velocity":36,"Duration":1794211,"SoundDuration":1794211,"Delta":40699637},{"NoteNumber":42,"Velocity":39,"Duration":298507,"SoundDuration":298507,"Delta":40699637},{"NoteNumber":53,"Velocity":32,"Duration":288461,"SoundDuration":288461,"Delta":40998144},{"NoteNumber":68,"Velocity":41,"Duration":295566,"SoundDuration":295566,"Delta":41286606},{"NoteNumber":71,"Velocity":57,"Duration":295566,"SoundDuration":295566,"Delta":41286606},{"NoteNumber":56,"Velocity":36,"Duration":295566,"SoundDuration":295566,"Delta":41286606},{"NoteNumber":66,"Velocity":43,"Duration":287081,"SoundDuration":287081,"Delta":41582172},{"NoteNumber":70,"Velocity":58,"Duration":287081,"SoundDuration":287081,"Delta":41582172},{"NoteNumber":54,"Velocity":31,"Duration":287081,"SoundDuration":287081,"Delta":41582172},{"NoteNumber":68,"Velocity":60,"Duration":298507,"SoundDuration":298507,"Delta":41869254},{"NoteNumber":65,"Velocity":44,"Duration":298507,"SoundDuration":298507,"Delta":41869254},{"NoteNumber":58,"Velocity":36,"Duration":298507,"SoundDuration":298507,"Delta":41869254},{"NoteNumber":70,"Velocity":60,"Duration":326087,"SoundDuration":326087,"Delta":42167761},{"NoteNumber":66,"Velocity":45,"Duration":326087,"SoundDuration":326087,"Delta":42167761},{"NoteNumber":49,"Velocity":31,"Duration":326087,"SoundDuration":326087,"Delta":42167761},{"NoteNumber":70,"Velocity":49,"Duration":629376,"SoundDuration":629376,"Delta":42493848},{"NoteNumber":73,"Velocity":66,"Duration":629376,"SoundDuration":629376,"Delta":42493848},{"NoteNumber":65,"Velocity":36,"Duration":1229376,"SoundDuration":1229376,"Delta":42493848},{"NoteNumber":37,"Velocity":39,"Duration":327868,"SoundDuration":327868,"Delta":42493848},{"NoteNumber":55,"Velocity":30,"Duration":301507,"SoundDuration":301507,"Delta":42821717},{"NoteNumber":68,"Velocity":34,"Duration":600000,"SoundDuration":600000,"Delta":43123225},{"NoteNumber":71,"Velocity":46,"Duration":600000,"SoundDuration":600000,"Delta":43123225},{"NoteNumber":58,"Velocity":34,"Duration":299999,"SoundDuration":299999,"Delta":43123225},{"NoteNumber":56,"Velocity":28,"Duration":300000,"SoundDuration":300000,"Delta":43423225},{"NoteNumber":59,"Velocity":34,"Duration":299999,"SoundDuration":299999,"Delta":43723225},{"NoteNumber":61,"Velocity":32,"Duration":324324,"SoundDuration":324324,"Delta":44023225},{"NoteNumber":68,"Velocity":50,"Duration":324324,"SoundDuration":324324,"Delta":44023225},{"NoteNumber":49,"Velocity":31,"Duration":324324,"SoundDuration":324324,"Delta":44023225},{"NoteNumber":64,"Velocity":46,"Duration":1848347,"SoundDuration":1848347,"Delta":44347549},{"NoteNumber":61,"Velocity":34,"Duration":1848347,"SoundDuration":1848347,"Delta":44347549},{"NoteNumber":70,"Velocity":55,"Duration":1848347,"SoundDuration":1848347,"Delta":44347549},{"NoteNumber":42,"Velocity":39,"Duration":333333,"SoundDuration":333333,"Delta":44347549},{"NoteNumber":53,"Velocity":26,"Duration":306122,"SoundDuration":306122,"Delta":44680883},{"NoteNumber":56,"Velocity":31,"Duration":294117,"SoundDuration":294117,"Delta":44987005},{"NoteNumber":54,"Velocity":30,"Duration":294117,"SoundDuration":294117,"Delta":45281123},{"NoteNumber":58,"Velocity":35,"Duration":301507,"SoundDuration":301507,"Delta":45575240},{"NoteNumber":49,"Velocity":33,"Duration":319149,"SoundDuration":319149,"Delta":45876748},{"NoteNumber":70,"Velocity":66,"Duration":1661306,"SoundDuration":1661306,"Delta":46195897},{"NoteNumber":64,"Velocity":55,"Duration":1815945,"SoundDuration":1815945,"Delta":46195897},{"NoteNumber":42,"Velocity":46,"Duration":322580,"SoundDuration":322580,"Delta":46195897},{"NoteNumber":53,"Velocity":30,"Duration":299999,"SoundDuration":299999,"Delta":46518477},{"NoteNumber":56,"Velocity":40,"Duration":294117,"SoundDuration":294117,"Delta":46818477},{"NoteNumber":54,"Velocity":35,"Duration":288461,"SoundDuration":288461,"Delta":47112595},{"NoteNumber":58,"Velocity":42,"Duration":301507,"SoundDuration":301507,"Delta":47401056},{"NoteNumber":49,"Velocity":37,"Duration":309278,"SoundDuration":309278,"Delta":47702564},{"NoteNumber":71,"Velocity":62,"Duration":154639,"SoundDuration":154639,"Delta":47857203},{"NoteNumber":70,"Velocity":59,"Duration":1806196,"SoundDuration":1806196,"Delta":48011842},{"NoteNumber":64,"Velocity":44,"Duration":1806196,"SoundDuration":1806196,"Delta":48011842},{"NoteNumber":73,"Velocity":71,"Duration":1806196,"SoundDuration":1806196,"Delta":48011842},{"NoteNumber":42,"Velocity":47,"Duration":314135,"SoundDuration":314135,"Delta":48011842},{"NoteNumber":53,"Velocity":34,"Duration":298507,"SoundDuration":298507,"Delta":48325978},{"NoteNumber":56,"Velocity":45,"Duration":289855,"SoundDuration":289855,"Delta":48624486},{"NoteNumber":54,"Velocity":37,"Duration":289854,"SoundDuration":289854,"Delta":48914341},{"NoteNumber":58,"Velocity":44,"Duration":291262,"SoundDuration":291262,"Delta":49204196},{"NoteNumber":49,"Velocity":29,"Duration":322580,"SoundDuration":322580,"Delta":49495458},{"NoteNumber":64,"Velocity":45,"Duration":1801172,"SoundDuration":1801172,"Delta":49818038},{"NoteNumber":75,"Velocity":72,"Duration":1639881,"SoundDuration":1639881,"Delta":49818038},{"NoteNumber":70,"Velocity":60,"Duration":1801172,"SoundDuration":1801172,"Delta":49818038},{"NoteNumber":42,"Velocity":51,"Duration":310881,"SoundDuration":310881,"Delta":49818038},{"NoteNumber":53,"Velocity":38,"Duration":297029,"SoundDuration":297029,"Delta":50128919},{"NoteNumber":56,"Velocity":46,"Duration":289855,"SoundDuration":289855,"Delta":50425949},{"NoteNumber":54,"Velocity":37,"Duration":289854,"SoundDuration":289854,"Delta":50715804},{"NoteNumber":58,"Velocity":44,"Duration":301507,"SoundDuration":301507,"Delta":51005659},{"NoteNumber":49,"Velocity":34,"Duration":312044,"SoundDuration":312044,"Delta":51307166},{"NoteNumber":73,"Velocity":60,"Duration":161290,"SoundDuration":161290,"Delta":51457920},{"NoteNumber":73,"Velocity":62,"Duration":1842883,"SoundDuration":1842883,"Delta":51619210},{"NoteNumber":64,"Velocity":34,"Duration":1842883,"SoundDuration":1842883,"Delta":51619210},{"NoteNumber":70,"Velocity":42,"Duration":1842883,"SoundDuration":1842883,"Delta":51619210},{"NoteNumber":47,"Velocity":39,"Duration":327868,"SoundDuration":327868,"Delta":51619210},{"NoteNumber":54,"Velocity":29,"Duration":306122,"SoundDuration":306122,"Delta":51947079},{"NoteNumber":56,"Velocity":34,"Duration":294117,"SoundDuration":294117,"Delta":52253202},{"NoteNumber":55,"Velocity":29,"Duration":294117,"SoundDuration":294117,"Delta":52547319},{"NoteNumber":58,"Velocity":29,"Duration":301507,"SoundDuration":301507,"Delta":52841437},{"NoteNumber":49,"Velocity":25,"Duration":319149,"SoundDuration":319149,"Delta":53142944},{"NoteNumber":68,"Velocity":42,"Duration":1848347,"SoundDuration":1848347,"Delta":53462093},{"NoteNumber":71,"Velocity":51,"Duration":1848347,"SoundDuration":1848347,"Delta":53462093},{"NoteNumber":63,"Velocity":32,"Duration":1848347,"SoundDuration":1848347,"Delta":53462093},{"NoteNumber":47,"Velocity":36,"Duration":333333,"SoundDuration":333333,"Delta":53462093},{"NoteNumber":55,"Velocity":26,"Duration":306122,"SoundDuration":306122,"Delta":53795427},{"NoteNumber":58,"Velocity":29,"Duration":294117,"SoundDuration":294117,"Delta":54101549},{"NoteNumber":56,"Velocity":26,"Duration":294117,"SoundDuration":294117,"Delta":54395667},{"NoteNumber":59,"Velocity":29,"Duration":301507,"SoundDuration":301507,"Delta":54689784},{"NoteNumber":51,"Velocity":25,"Duration":319149,"SoundDuration":319149,"Delta":54991292},{"NoteNumber":61,"Velocity":50,"Duration":1806196,"SoundDuration":1806196,"Delta":55310441},{"NoteNumber":67,"Velocity":56,"Duration":1806196,"SoundDuration":1806196,"Delta":55310441},{"NoteNumber":70,"Velocity":56,"Duration":1806196,"SoundDuration":1806196,"Delta":55310441},{"NoteNumber":39,"Velocity":41,"Duration":314135,"SoundDuration":314135,"Delta":55310441},{"NoteNumber":50,"Velocity":30,"Duration":298507,"SoundDuration":298507,"Delta":55624577},{"NoteNumber":52,"Velocity":38,"Duration":289855,"SoundDuration":289855,"Delta":55923084},{"NoteNumber":51,"Velocity":30,"Duration":289854,"SoundDuration":289854,"Delta":56212939},{"NoteNumber":55,"Velocity":36,"Duration":291262,"SoundDuration":291262,"Delta":56502794},{"NoteNumber":46,"Velocity":29,"Duration":322580,"SoundDuration":322580,"Delta":56794056},{"NoteNumber":68,"Velocity":50,"Duration":1801172,"SoundDuration":1801172,"Delta":57116637},{"NoteNumber":59,"Velocity":45,"Duration":1801172,"SoundDuration":1801172,"Delta":57116637},{"NoteNumber":71,"Velocity":60,"Duration":1639881,"SoundDuration":1639881,"Delta":57116637},{"NoteNumber":44,"Velocity":38,"Duration":310881,"SoundDuration":310881,"Delta":57116637},{"NoteNumber":50,"Velocity":33,"Duration":297029,"SoundDuration":297029,"Delta":57427518},{"NoteNumber":52,"Velocity":37,"Duration":289855,"SoundDuration":289855,"Delta":57724547},{"NoteNumber":51,"Velocity":29,"Duration":289854,"SoundDuration":289854,"Delta":58014402},{"NoteNumber":56,"Velocity":34,"Duration":301507,"SoundDuration":301507,"Delta":58304257},{"NoteNumber":44,"Velocity":28,"Duration":312044,"SoundDuration":312044,"Delta":58605765},{"NoteNumber":63,"Velocity":49,"Duration":161290,"SoundDuration":161290,"Delta":58756518},{"NoteNumber":68,"Velocity":57,"Duration":1842883,"SoundDuration":1842883,"Delta":58917809},{"NoteNumber":65,"Velocity":31,"Duration":3691230,"SoundDuration":3691230,"Delta":58917809},{"NoteNumber":59,"Velocity":37,"Duration":1842883,"SoundDuration":1842883,"Delta":58917809},{"NoteNumber":37,"Velocity":39,"Duration":327868,"SoundDuration":327868,"Delta":58917809},{"NoteNumber":48,"Velocity":26,"Duration":306122,"SoundDuration":306122,"Delta":59245678},{"NoteNumber":51,"Velocity":29,"Duration":294117,"SoundDuration":294117,"Delta":59551800},{"NoteNumber":49,"Velocity":26,"Duration":294117,"SoundDuration":294117,"Delta":59845918},{"NoteNumber":53,"Velocity":29,"Duration":301507,"SoundDuration":301507,"Delta":60140035},{"NoteNumber":44,"Velocity":25,"Duration":319149,"SoundDuration":319149,"Delta":60441543},{"NoteNumber":70,"Velocity":51,"Duration":1848347,"SoundDuration":1848347,"Delta":60760692},{"NoteNumber":61,"Velocity":33,"Duration":1848347,"SoundDuration":1848347,"Delta":60760692},{"NoteNumber":37,"Velocity":36,"Duration":333333,"SoundDuration":333333,"Delta":60760692},{"NoteNumber":48,"Velocity":26,"Duration":306122,"SoundDuration":306122,"Delta":61094025},{"NoteNumber":51,"Velocity":29,"Duration":294117,"SoundDuration":294117,"Delta":61400148},{"NoteNumber":49,"Velocity":26,"Duration":294117,"SoundDuration":294117,"Delta":61694265},{"NoteNumber":53,"Velocity":29,"Duration":301507,"SoundDuration":301507,"Delta":61988383},{"NoteNumber":44,"Velocity":25,"Duration":319149,"SoundDuration":319149,"Delta":62289890},{"NoteNumber":58,"Velocity":33,"Duration":1227691,"SoundDuration":1227691,"Delta":62609039},{"NoteNumber":66,"Velocity":51,"Duration":1227691,"SoundDuration":1227691,"Delta":62609039},{"NoteNumber":42,"Velocity":36,"Duration":333333,"SoundDuration":333333,"Delta":62609039},{"NoteNumber":48,"Velocity":26,"Duration":306122,"SoundDuration":306122,"Delta":62942373},{"NoteNumber":51,"Velocity":29,"Duration":294117,"SoundDuration":294117,"Delta":63248495},{"NoteNumber":49,"Velocity":26,"Duration":294117,"SoundDuration":294117,"Delta":63542613},{"NoteNumber":54,"Velocity":29,"Duration":301507,"SoundDuration":301507,"Delta":63836730},{"NoteNumber":42,"Velocity":25,"Duration":335195,"SoundDuration":335195,"Delta":64138238},{"NoteNumber":71,"Velocity":53,"Duration":1801171,"SoundDuration":1801171,"Delta":64473433},{"NoteNumber":63,"Velocity":36,"Duration":1801171,"SoundDuration":1801171,"Delta":64473433},{"NoteNumber":35,"Velocity":34,"Duration":310880,"SoundDuration":310880,"Delta":64473433},{"NoteNumber":53,"Velocity":29,"Duration":297029,"SoundDuration":297029,"Delta":64784314},{"NoteNumber":56,"Velocity":33,"Duration":289855,"SoundDuration":289855,"Delta":65081344},{"NoteNumber":54,"Velocity":26,"Duration":289855,"SoundDuration":289855,"Delta":65371199},{"NoteNumber":59,"Velocity":29,"Duration":301507,"SoundDuration":301507,"Delta":65661054},{"NoteNumber":47,"Velocity":25,"Duration":312044,"SoundDuration":312044,"Delta":65962561},{"NoteNumber":59,"Velocity":32,"Duration":1875154,"SoundDuration":1875154,"Delta":66274605},{"NoteNumber":68,"Velocity":50,"Duration":1875154,"SoundDuration":1875154,"Delta":66274605},{"NoteNumber":65,"Velocity":41,"Duration":3777180,"SoundDuration":3777180,"Delta":66274605},{"NoteNumber":37,"Velocity":35,"Duration":338982,"SoundDuration":338982,"Delta":66274605},{"NoteNumber":48,"Velocity":23,"Duration":312500,"SoundDuration":312500,"Delta":66613588},{"NoteNumber":51,"Velocity":25,"Duration":301507,"SoundDuration":301507,"Delta":66926088},{"NoteNumber":49,"Velocity":22,"Duration":301507,"SoundDuration":301507,"Delta":67227596},{"NoteNumber":53,"Velocity":24,"Duration":301507,"SoundDuration":301507,"Delta":67529103},{"NoteNumber":44,"Velocity":20,"Duration":319148,"SoundDuration":319148,"Delta":67830611},{"NoteNumber":70,"Velocity":42,"Duration":1902025,"SoundDuration":1902025,"Delta":68149760},{"NoteNumber":61,"Velocity":35,"Duration":1270376,"SoundDuration":1270376,"Delta":68149760},{"NoteNumber":37,"Velocity":29,"Duration":338982,"SoundDuration":338982,"Delta":68149760},{"NoteNumber":48,"Velocity":20,"Duration":319148,"SoundDuration":319148,"Delta":68488743},{"NoteNumber":51,"Velocity":23,"Duration":306122,"SoundDuration":306122,"Delta":68807892},{"NoteNumber":49,"Velocity":19,"Duration":306122,"SoundDuration":306122,"Delta":69114014},{"NoteNumber":59,"Velocity":39,"Duration":631648,"SoundDuration":631648,"Delta":69420137},{"NoteNumber":53,"Velocity":23,"Duration":312500,"SoundDuration":312500,"Delta":69420137},{"NoteNumber":44,"Velocity":18,"Duration":319148,"SoundDuration":319148,"Delta":69732637},{"NoteNumber":58,"Velocity":24,"Duration":2602080,"SoundDuration":2602080,"Delta":70051786},{"NoteNumber":66,"Velocity":38,"Duration":2602080,"SoundDuration":2602080,"Delta":70051786},{"NoteNumber":42,"Velocity":26,"Duration":344827,"SoundDuration":344827,"Delta":70051786},{"NoteNumber":48,"Velocity":19,"Duration":320855,"SoundDuration":320855,"Delta":70396613},{"NoteNumber":51,"Velocity":22,"Duration":307692,"SoundDuration":307692,"Delta":70717469},{"NoteNumber":49,"Velocity":19,"Duration":307692,"SoundDuration":307692,"Delta":71025161},{"NoteNumber":54,"Velocity":22,"Duration":319148,"SoundDuration":319148,"Delta":71332854},{"NoteNumber":37,"Velocity":18,"Duration":327869,"SoundDuration":327869,"Delta":71652003},{"NoteNumber":42,"Velocity":26,"Duration":351413,"SoundDuration":351413,"Delta":71979872},{"NoteNumber":48,"Velocity":19,"Duration":322580,"SoundDuration":322580,"Delta":72331285},{"NoteNumber":51,"Velocity":22,"Duration":310880,"SoundDuration":310880,"Delta":72653866},{"NoteNumber":49,"Velocity":19,"Duration":310881,"SoundDuration":310881,"Delta":72964747},{"NoteNumber":54,"Velocity":22,"Duration":326087,"SoundDuration":326087,"Delta":73275628},{"NoteNumber":41,"Velocity":18,"Duration":357142,"SoundDuration":357142,"Delta":73601715},{"NoteNumber":78,"Velocity":60,"Duration":2325458,"SoundDuration":2325458,"Delta":73958858},{"NoteNumber":39,"Velocity":31,"Duration":402684,"SoundDuration":402684,"Delta":73958858},{"NoteNumber":66,"Velocity":24,"Duration":370129,"SoundDuration":370129,"Delta":74361542},{"NoteNumber":51,"Velocity":20,"Duration":370129,"SoundDuration":370129,"Delta":74361542},{"NoteNumber":58,"Velocity":30,"Duration":370129,"SoundDuration":370129,"Delta":74361542},{"NoteNumber":66,"Velocity":26,"Duration":356250,"SoundDuration":356250,"Delta":74751153},{"NoteNumber":51,"Velocity":22,"Duration":356250,"SoundDuration":356250,"Delta":74751153},{"NoteNumber":58,"Velocity":33,"Duration":356250,"SoundDuration":356250,"Delta":74751153},{"NoteNumber":66,"Velocity":28,"Duration":356250,"SoundDuration":356250,"Delta":75126153},{"NoteNumber":51,"Velocity":23,"Duration":356250,"SoundDuration":356250,"Delta":75126153},{"NoteNumber":58,"Velocity":36,"Duration":356250,"SoundDuration":356250,"Delta":75126153},{"NoteNumber":66,"Velocity":31,"Duration":356250,"SoundDuration":356250,"Delta":75501153},{"NoteNumber":51,"Velocity":26,"Duration":356250,"SoundDuration":356250,"Delta":75501153},{"NoteNumber":63,"Velocity":40,"Duration":356250,"SoundDuration":356250,"Delta":75501153},{"NoteNumber":66,"Velocity":28,"Duration":387755,"SoundDuration":387755,"Delta":75876153},{"NoteNumber":51,"Velocity":23,"Duration":387755,"SoundDuration":387755,"Delta":75876153},{"NoteNumber":58,"Velocity":36,"Duration":387755,"SoundDuration":387755,"Delta":75876153},{"NoteNumber":70,"Velocity":57,"Duration":1538653,"SoundDuration":1538653,"Delta":76284316},{"NoteNumber":66,"Velocity":29,"Duration":372549,"SoundDuration":372549,"Delta":76284316},{"NoteNumber":51,"Velocity":24,"Duration":372549,"SoundDuration":372549,"Delta":76284316},{"NoteNumber":58,"Velocity":37,"Duration":372549,"SoundDuration":372549,"Delta":76284316},{"NoteNumber":66,"Velocity":29,"Duration":363057,"SoundDuration":363057,"Delta":76676473},{"NoteNumber":51,"Velocity":24,"Duration":363057,"SoundDuration":363057,"Delta":76676473},{"NoteNumber":61,"Velocity":37,"Duration":363057,"SoundDuration":363057,"Delta":76676473},{"NoteNumber":66,"Velocity":28,"Duration":363057,"SoundDuration":363057,"Delta":77058639},{"NoteNumber":51,"Velocity":23,"Duration":363057,"SoundDuration":363057,"Delta":77058639},{"NoteNumber":60,"Velocity":36,"Duration":363057,"SoundDuration":363057,"Delta":77058639},{"NoteNumber":66,"Velocity":27,"Duration":363057,"SoundDuration":363057,"Delta":77440804},{"NoteNumber":51,"Velocity":22,"Duration":363057,"SoundDuration":363057,"Delta":77440804},{"NoteNumber":58,"Velocity":34,"Duration":363057,"SoundDuration":363057,"Delta":77440804},{"NoteNumber":66,"Velocity":26,"Duration":375000,"SoundDuration":375000,"Delta":77822970},{"NoteNumber":72,"Velocity":58,"Duration":789473,"SoundDuration":789473,"Delta":77822970},{"NoteNumber":44,"Velocity":22,"Duration":375000,"SoundDuration":375000,"Delta":77822970},{"NoteNumber":58,"Velocity":33,"Duration":375000,"SoundDuration":375000,"Delta":77822970},{"NoteNumber":66,"Velocity":26,"Duration":375000,"SoundDuration":375000,"Delta":78217707},{"NoteNumber":44,"Velocity":22,"Duration":375000,"SoundDuration":375000,"Delta":78217707},{"NoteNumber":56,"Velocity":33,"Duration":375000,"SoundDuration":375000,"Delta":78217707},{"NoteNumber":65,"Velocity":30,"Duration":375000,"SoundDuration":375000,"Delta":78612444},{"NoteNumber":72,"Velocity":60,"Duration":1725230,"SoundDuration":1725230,"Delta":78612444},{"NoteNumber":37,"Velocity":30,"Duration":394737,"SoundDuration":394737,"Delta":78612444},{"NoteNumber":65,"Velocity":27,"Duration":367742,"SoundDuration":367742,"Delta":79007181},{"NoteNumber":56,"Velocity":27,"Duration":367742,"SoundDuration":367742,"Delta":79007181},{"NoteNumber":44,"Velocity":28,"Duration":367742,"SoundDuration":367742,"Delta":79007181},{"NoteNumber":65,"Velocity":31,"Duration":358490,"SoundDuration":358490,"Delta":79394278},{"NoteNumber":49,"Velocity":33,"Duration":358490,"SoundDuration":358490,"Delta":79394278},{"NoteNumber":56,"Velocity":31,"Duration":358490,"SoundDuration":358490,"Delta":79394278},{"NoteNumber":65,"Velocity":30,"Duration":358490,"SoundDuration":358490,"Delta":79771636},{"NoteNumber":51,"Velocity":31,"Duration":358490,"SoundDuration":358490,"Delta":79771636},{"NoteNumber":56,"Velocity":30,"Duration":358490,"SoundDuration":358490,"Delta":79771636},{"NoteNumber":65,"Velocity":26,"Duration":352315,"SoundDuration":352315,"Delta":80148995},{"NoteNumber":49,"Velocity":28,"Duration":352315,"SoundDuration":352315,"Delta":80148995},{"NoteNumber":56,"Velocity":26,"Duration":352315,"SoundDuration":352315,"Delta":80148995},{"NoteNumber":73,"Velocity":43,"Duration":181818,"SoundDuration":181818,"Delta":80337674},{"NoteNumber":65,"Velocity":26,"Duration":337278,"SoundDuration":337278,"Delta":80519492},{"NoteNumber":77,"Velocity":42,"Duration":177514,"SoundDuration":177514,"Delta":80519492},{"NoteNumber":44,"Velocity":28,"Duration":337278,"SoundDuration":337278,"Delta":80519492},{"NoteNumber":56,"Velocity":26,"Duration":337278,"SoundDuration":337278,"Delta":80519492},{"NoteNumber":75,"Velocity":40,"Duration":177514,"SoundDuration":177514,"Delta":80697007},{"NoteNumber":73,"Velocity":52,"Duration":2280854,"SoundDuration":2280854,"Delta":80874522},{"NoteNumber":65,"Velocity":26,"Duration":354037,"SoundDuration":354037,"Delta":80874522},{"NoteNumber":49,"Velocity":28,"Duration":354037,"SoundDuration":354037,"Delta":80874522},{"NoteNumber":56,"Velocity":26,"Duration":354037,"SoundDuration":354037,"Delta":80874522},{"NoteNumber":65,"Velocity":26,"Duration":352983,"SoundDuration":352983,"Delta":81247193},{"NoteNumber":51,"Velocity":28,"Duration":352983,"SoundDuration":352983,"Delta":81247193},{"NoteNumber":56,"Velocity":26,"Duration":352983,"SoundDuration":352983,"Delta":81247193},{"NoteNumber":65,"Velocity":26,"Duration":350521,"SoundDuration":350521,"Delta":81618358},{"NoteNumber":49,"Velocity":28,"Duration":350521,"SoundDuration":350521,"Delta":81618358},{"NoteNumber":56,"Velocity":26,"Duration":350521,"SoundDuration":350521,"Delta":81618358},{"NoteNumber":65,"Velocity":26,"Duration":363951,"SoundDuration":363951,"Delta":81987629},{"NoteNumber":54,"Velocity":28,"Duration":363951,"SoundDuration":363951,"Delta":81987629},{"NoteNumber":56,"Velocity":26,"Duration":363951,"SoundDuration":363951,"Delta":81987629},{"NoteNumber":65,"Velocity":26,"Duration":372549,"SoundDuration":372549,"Delta":82371062},{"NoteNumber":53,"Velocity":28,"Duration":372549,"SoundDuration":372549,"Delta":82371062},{"NoteNumber":56,"Velocity":26,"Duration":372549,"SoundDuration":372549,"Delta":82371062},{"NoteNumber":65,"Velocity":26,"Duration":372549,"SoundDuration":372549,"Delta":82763219},{"NoteNumber":44,"Velocity":28,"Duration":372549,"SoundDuration":372549,"Delta":82763219},{"NoteNumber":56,"Velocity":26,"Duration":372549,"SoundDuration":372549,"Delta":82763219},{"NoteNumber":76,"Velocity":60,"Duration":2325458,"SoundDuration":2325458,"Delta":83155376},{"NoteNumber":37,"Velocity":31,"Duration":402684,"SoundDuration":402684,"Delta":83155376},{"NoteNumber":64,"Velocity":24,"Duration":370129,"SoundDuration":370129,"Delta":83558060},{"NoteNumber":49,"Velocity":20,"Duration":370129,"SoundDuration":370129,"Delta":83558060},{"NoteNumber":56,"Velocity":30,"Duration":370129,"SoundDuration":370129,"Delta":83558060},{"NoteNumber":64,"Velocity":26,"Duration":356250,"SoundDuration":356250,"Delta":83947671},{"NoteNumber":49,"Velocity":22,"Duration":356250,"SoundDuration":356250,"Delta":83947671},{"NoteNumber":56,"Velocity":33,"Duration":356250,"SoundDuration":356250,"Delta":83947671},{"NoteNumber":64,"Velocity":28,"Duration":356250,"SoundDuration":356250,"Delta":84322671},{"NoteNumber":49,"Velocity":23,"Duration":356250,"SoundDuration":356250,"Delta":84322671},{"NoteNumber":56,"Velocity":36,"Duration":356250,"SoundDuration":356250,"Delta":84322671},{"NoteNumber":64,"Velocity":31,"Duration":356250,"SoundDuration":356250,"Delta":84697671},{"NoteNumber":49,"Velocity":26,"Duration":356250,"SoundDuration":356250,"Delta":84697671},{"NoteNumber":61,"Velocity":40,"Duration":356250,"SoundDuration":356250,"Delta":84697671},{"NoteNumber":64,"Velocity":28,"Duration":387755,"SoundDuration":387755,"Delta":85072671},{"NoteNumber":49,"Velocity":23,"Duration":387755,"SoundDuration":387755,"Delta":85072671},{"NoteNumber":56,"Velocity":36,"Duration":387755,"SoundDuration":387755,"Delta":85072671},{"NoteNumber":64,"Velocity":29,"Duration":372549,"SoundDuration":372549,"Delta":85480834},{"NoteNumber":68,"Velocity":57,"Duration":1538653,"SoundDuration":1538653,"Delta":85480834},{"NoteNumber":49,"Velocity":24,"Duration":372549,"SoundDuration":372549,"Delta":85480834},{"NoteNumber":56,"Velocity":37,"Duration":372549,"SoundDuration":372549,"Delta":85480834},{"NoteNumber":64,"Velocity":29,"Duration":363057,"SoundDuration":363057,"Delta":85872991},{"NoteNumber":49,"Velocity":24,"Duration":363057,"SoundDuration":363057,"Delta":85872991},{"NoteNumber":59,"Velocity":37,"Duration":363057,"SoundDuration":363057,"Delta":85872991},{"NoteNumber":64,"Velocity":28,"Duration":363057,"SoundDuration":363057,"Delta":86255157},{"NoteNumber":49,"Velocity":23,"Duration":363057,"SoundDuration":363057,"Delta":86255157},{"NoteNumber":58,"Velocity":36,"Duration":363057,"SoundDuration":363057,"Delta":86255157},{"NoteNumber":64,"Velocity":27,"Duration":363057,"SoundDuration":363057,"Delta":86637322},{"NoteNumber":49,"Velocity":22,"Duration":363057,"SoundDuration":363057,"Delta":86637322},{"NoteNumber":56,"Velocity":34,"Duration":363057,"SoundDuration":363057,"Delta":86637322},{"NoteNumber":70,"Velocity":58,"Duration":789473,"SoundDuration":789473,"Delta":87019488},{"NoteNumber":64,"Velocity":26,"Duration":375000,"SoundDuration":375000,"Delta":87019488},{"NoteNumber":42,"Velocity":22,"Duration":375000,"SoundDuration":375000,"Delta":87019488},{"NoteNumber":56,"Velocity":33,"Duration":375000,"SoundDuration":375000,"Delta":87019488},{"NoteNumber":64,"Velocity":26,"Duration":375000,"SoundDuration":375000,"Delta":87414225},{"NoteNumber":42,"Velocity":22,"Duration":375000,"SoundDuration":375000,"Delta":87414225},{"NoteNumber":54,"Velocity":33,"Duration":375000,"SoundDuration":375000,"Delta":87414225},{"NoteNumber":63,"Velocity":30,"Duration":375000,"SoundDuration":375000,"Delta":87808962},{"NoteNumber":70,"Velocity":60,"Duration":1715760,"SoundDuration":1715760,"Delta":87808962},{"NoteNumber":35,"Velocity":30,"Duration":394737,"SoundDuration":394737,"Delta":87808962},{"NoteNumber":63,"Velocity":27,"Duration":367742,"SoundDuration":367742,"Delta":88203699},{"NoteNumber":54,"Velocity":27,"Duration":367742,"SoundDuration":367742,"Delta":88203699},{"NoteNumber":42,"Velocity":28,"Duration":367742,"SoundDuration":367742,"Delta":88203699},{"NoteNumber":63,"Velocity":31,"Duration":358490,"SoundDuration":358490,"Delta":88590796},{"NoteNumber":47,"Velocity":33,"Duration":358490,"SoundDuration":358490,"Delta":88590796},{"NoteNumber":54,"Velocity":31,"Duration":358490,"SoundDuration":358490,"Delta":88590796},{"NoteNumber":63,"Velocity":30,"Duration":358490,"SoundDuration":358490,"Delta":88968154},{"NoteNumber":49,"Velocity":31,"Duration":358490,"SoundDuration":358490,"Delta":88968154},{"NoteNumber":54,"Velocity":30,"Duration":358490,"SoundDuration":358490,"Delta":88968154},{"NoteNumber":63,"Velocity":26,"Duration":341317,"SoundDuration":341317,"Delta":89345081},{"NoteNumber":47,"Velocity":28,"Duration":341317,"SoundDuration":341317,"Delta":89345081},{"NoteNumber":54,"Velocity":26,"Duration":341317,"SoundDuration":341317,"Delta":89345081},{"NoteNumber":71,"Velocity":43,"Duration":179640,"SoundDuration":179640,"Delta":89524722},{"NoteNumber":75,"Velocity":42,"Duration":175438,"SoundDuration":175438,"Delta":89704363},{"NoteNumber":63,"Velocity":26,"Duration":333333,"SoundDuration":333333,"Delta":89704363},{"NoteNumber":42,"Velocity":28,"Duration":333333,"SoundDuration":333333,"Delta":89704363},{"NoteNumber":54,"Velocity":26,"Duration":333333,"SoundDuration":333333,"Delta":89704363},{"NoteNumber":73,"Velocity":40,"Duration":175438,"SoundDuration":175438,"Delta":89879801},{"NoteNumber":63,"Velocity":24,"Duration":367742,"SoundDuration":367742,"Delta":90055240},{"NoteNumber":71,"Velocity":45,"Duration":1537942,"SoundDuration":1537942,"Delta":90055240},{"NoteNumber":47,"Velocity":28,"Duration":367742,"SoundDuration":367742,"Delta":90055240},{"NoteNumber":54,"Velocity":26,"Duration":367742,"SoundDuration":367742,"Delta":90055240},{"NoteNumber":63,"Velocity":26,"Duration":365263,"SoundDuration":365263,"Delta":90442337},{"NoteNumber":49,"Velocity":28,"Duration":365263,"SoundDuration":365263,"Delta":90442337},{"NoteNumber":54,"Velocity":26,"Duration":365263,"SoundDuration":365263,"Delta":90442337},{"NoteNumber":63,"Velocity":26,"Duration":360648,"SoundDuration":360648,"Delta":90825893},{"NoteNumber":47,"Velocity":28,"Duration":360648,"SoundDuration":360648,"Delta":90825893},{"NoteNumber":54,"Velocity":26,"Duration":360648,"SoundDuration":360648,"Delta":90825893},{"NoteNumber":63,"Velocity":26,"Duration":367924,"SoundDuration":367924,"Delta":91205650},{"NoteNumber":42,"Velocity":28,"Duration":367924,"SoundDuration":367924,"Delta":91205650},{"NoteNumber":54,"Velocity":26,"Duration":367924,"SoundDuration":367924,"Delta":91205650},{"NoteNumber":63,"Velocity":26,"Duration":372549,"SoundDuration":372549,"Delta":91593182},{"NoteNumber":70,"Velocity":56,"Duration":784313,"SoundDuration":784313,"Delta":91593182},{"NoteNumber":47,"Velocity":28,"Duration":372549,"SoundDuration":372549,"Delta":91593182},{"NoteNumber":54,"Velocity":26,"Duration":372549,"SoundDuration":372549,"Delta":91593182},{"NoteNumber":61,"Velocity":26,"Duration":372549,"SoundDuration":372549,"Delta":91985339},{"NoteNumber":49,"Velocity":28,"Duration":372549,"SoundDuration":372549,"Delta":91985339},{"NoteNumber":54,"Velocity":26,"Duration":372549,"SoundDuration":372549,"Delta":91985339},{"NoteNumber":59,"Velocity":30,"Duration":349693,"SoundDuration":349693,"Delta":92377496},{"NoteNumber":70,"Velocity":60,"Duration":755195,"SoundDuration":755195,"Delta":92377496},{"NoteNumber":51,"Velocity":22,"Duration":349693,"SoundDuration":349693,"Delta":92377496},{"NoteNumber":54,"Velocity":30,"Duration":349693,"SoundDuration":349693,"Delta":92377496},{"NoteNumber":59,"Velocity":27,"Duration":367742,"SoundDuration":367742,"Delta":92745594},{"NoteNumber":54,"Velocity":27,"Duration":367742,"SoundDuration":367742,"Delta":92745594},{"NoteNumber":51,"Velocity":22,"Duration":367742,"SoundDuration":367742,"Delta":92745594},{"NoteNumber":68,"Velocity":55,"Duration":904705,"SoundDuration":904705,"Delta":93132691},{"NoteNumber":59,"Velocity":21,"Duration":358490,"SoundDuration":358490,"Delta":93132691},{"NoteNumber":51,"Velocity":26,"Duration":358490,"SoundDuration":358490,"Delta":93132691},{"NoteNumber":54,"Velocity":31,"Duration":358490,"SoundDuration":358490,"Delta":93132691},{"NoteNumber":59,"Velocity":30,"Duration":333333,"SoundDuration":333333,"Delta":93510050},{"NoteNumber":51,"Velocity":25,"Duration":333333,"SoundDuration":333333,"Delta":93510050},{"NoteNumber":54,"Velocity":30,"Duration":333333,"SoundDuration":333333,"Delta":93510050},{"NoteNumber":61,"Velocity":26,"Duration":335293,"SoundDuration":335293,"Delta":93860927},{"NoteNumber":49,"Velocity":22,"Duration":335293,"SoundDuration":335293,"Delta":93860927},{"NoteNumber":54,"Velocity":26,"Duration":335293,"SoundDuration":335293,"Delta":93860927},{"NoteNumber":70,"Velocity":43,"Duration":176470,"SoundDuration":176470,"Delta":94037397},{"NoteNumber":73,"Velocity":42,"Duration":171428,"SoundDuration":171428,"Delta":94213868},{"NoteNumber":61,"Velocity":26,"Duration":325714,"SoundDuration":325714,"Delta":94213868},{"NoteNumber":49,"Velocity":22,"Duration":325714,"SoundDuration":325714,"Delta":94213868},{"NoteNumber":54,"Velocity":26,"Duration":325714,"SoundDuration":325714,"Delta":94213868},{"NoteNumber":71,"Velocity":40,"Duration":171428,"SoundDuration":171428,"Delta":94385296},{"NoteNumber":63,"Velocity":30,"Duration":349693,"SoundDuration":349693,"Delta":94556725},{"NoteNumber":70,"Velocity":60,"Duration":755195,"SoundDuration":755195,"Delta":94556725},{"NoteNumber":47,"Velocity":22,"Duration":349693,"SoundDuration":349693,"Delta":94556725},{"NoteNumber":54,"Velocity":30,"Duration":349693,"SoundDuration":349693,"Delta":94556725},{"NoteNumber":63,"Velocity":27,"Duration":367742,"SoundDuration":367742,"Delta":94924823},{"NoteNumber":54,"Velocity":27,"Duration":367742,"SoundDuration":367742,"Delta":94924823},{"NoteNumber":47,"Velocity":22,"Duration":367742,"SoundDuration":367742,"Delta":94924823},{"NoteNumber":68,"Velocity":54,"Duration":922971,"SoundDuration":922971,"Delta":95311920},{"NoteNumber":63,"Velocity":21,"Duration":358490,"SoundDuration":358490,"Delta":95311920},{"NoteNumber":47,"Velocity":26,"Duration":358490,"SoundDuration":358490,"Delta":95311920},{"NoteNumber":54,"Velocity":31,"Duration":358490,"SoundDuration":358490,"Delta":95311920},{"NoteNumber":63,"Velocity":30,"Duration":349693,"SoundDuration":349693,"Delta":95689278},{"NoteNumber":47,"Velocity":25,"Duration":349693,"SoundDuration":349693,"Delta":95689278},{"NoteNumber":54,"Velocity":30,"Duration":349693,"SoundDuration":349693,"Delta":95689278},{"NoteNumber":61,"Velocity":26,"Duration":337278,"SoundDuration":337278,"Delta":96057376},{"NoteNumber":49,"Velocity":22,"Duration":337278,"SoundDuration":337278,"Delta":96057376},{"NoteNumber":54,"Velocity":26,"Duration":337278,"SoundDuration":337278,"Delta":96057376},{"NoteNumber":70,"Velocity":40,"Duration":177514,"SoundDuration":177514,"Delta":96234891},{"NoteNumber":61,"Velocity":26,"Duration":327586,"SoundDuration":327586,"Delta":96412406},{"NoteNumber":73,"Velocity":39,"Duration":172413,"SoundDuration":172413,"Delta":96412406},{"NoteNumber":49,"Velocity":22,"Duration":327586,"SoundDuration":327586,"Delta":96412406},{"NoteNumber":54,"Velocity":26,"Duration":327586,"SoundDuration":327586,"Delta":96412406},{"NoteNumber":71,"Velocity":38,"Duration":172413,"SoundDuration":172413,"Delta":96584820},{"NoteNumber":59,"Velocity":33,"Duration":349693,"SoundDuration":349693,"Delta":96757233},{"NoteNumber":70,"Velocity":57,"Duration":755195,"SoundDuration":755195,"Delta":96757233},{"NoteNumber":51,"Velocity":22,"Duration":349693,"SoundDuration":349693,"Delta":96757233},{"NoteNumber":54,"Velocity":30,"Duration":349693,"SoundDuration":349693,"Delta":96757233},{"NoteNumber":59,"Velocity":29,"Duration":367742,"SoundDuration":367742,"Delta":97125331},{"NoteNumber":54,"Velocity":27,"Duration":367742,"SoundDuration":367742,"Delta":97125331},{"NoteNumber":51,"Velocity":22,"Duration":367742,"SoundDuration":367742,"Delta":97125331},{"NoteNumber":68,"Velocity":53,"Duration":2610817,"SoundDuration":2610817,"Delta":97512428},{"NoteNumber":63,"Velocity":40,"Duration":354037,"SoundDuration":354037,"Delta":97512428},{"NoteNumber":47,"Velocity":26,"Duration":354037,"SoundDuration":354037,"Delta":97512428},{"NoteNumber":54,"Velocity":31,"Duration":354037,"SoundDuration":354037,"Delta":97512428},{"NoteNumber":63,"Velocity":44,"Duration":354037,"SoundDuration":354037,"Delta":97885099},{"NoteNumber":47,"Velocity":25,"Duration":354037,"SoundDuration":354037,"Delta":97885099},{"NoteNumber":54,"Velocity":30,"Duration":354037,"SoundDuration":354037,"Delta":97885099},{"NoteNumber":65,"Velocity":53,"Duration":349971,"SoundDuration":349971,"Delta":98257770},{"NoteNumber":47,"Velocity":29,"Duration":349971,"SoundDuration":349971,"Delta":98257770},{"NoteNumber":56,"Velocity":35,"Duration":349971,"SoundDuration":349971,"Delta":98257770},{"NoteNumber":63,"Velocity":42,"Duration":337278,"SoundDuration":337278,"Delta":98625924},{"NoteNumber":47,"Velocity":24,"Duration":337278,"SoundDuration":337278,"Delta":98625924},{"NoteNumber":56,"Velocity":29,"Duration":337278,"SoundDuration":337278,"Delta":98625924},{"NoteNumber":65,"Velocity":48,"Duration":368098,"SoundDuration":368098,"Delta":98980954},{"NoteNumber":47,"Velocity":22,"Duration":349693,"SoundDuration":349693,"Delta":98980954},{"NoteNumber":56,"Velocity":30,"Duration":349693,"SoundDuration":349693,"Delta":98980954},{"NoteNumber":63,"Velocity":42,"Duration":387096,"SoundDuration":387096,"Delta":99349052},{"NoteNumber":54,"Velocity":27,"Duration":367742,"SoundDuration":367742,"Delta":99349052},{"NoteNumber":47,"Velocity":22,"Duration":367742,"SoundDuration":367742,"Delta":99349052},{"NoteNumber":65,"Velocity":40,"Duration":387096,"SoundDuration":387096,"Delta":99736149},{"NoteNumber":47,"Velocity":26,"Duration":367742,"SoundDuration":367742,"Delta":99736149},{"NoteNumber":56,"Velocity":31,"Duration":367742,"SoundDuration":367742,"Delta":99736149},{"NoteNumber":63,"Velocity":46,"Duration":387097,"SoundDuration":387097,"Delta":100123246},{"NoteNumber":70,"Velocity":55,"Duration":387097,"SoundDuration":387097,"Delta":100123246},{"NoteNumber":47,"Velocity":27,"Duration":367742,"SoundDuration":367742,"Delta":100123246},{"NoteNumber":54,"Velocity":32,"Duration":367742,"SoundDuration":367742,"Delta":100123246},{"NoteNumber":61,"Velocity":51,"Duration":375366,"SoundDuration":375366,"Delta":100510343},{"NoteNumber":73,"Velocity":61,"Duration":375366,"SoundDuration":375366,"Delta":100510343},{"NoteNumber":46,"Velocity":28,"Duration":357184,"SoundDuration":357184,"Delta":100510343},{"NoteNumber":54,"Velocity":34,"Duration":357184,"SoundDuration":357184,"Delta":100510343},{"NoteNumber":70,"Velocity":55,"Duration":365853,"SoundDuration":365853,"Delta":100885709},{"NoteNumber":61,"Velocity":46,"Duration":365853,"SoundDuration":365853,"Delta":100885709},{"NoteNumber":49,"Velocity":29,"Duration":347560,"SoundDuration":347560,"Delta":100885709},{"NoteNumber":54,"Velocity":35,"Duration":347560,"SoundDuration":347560,"Delta":100885709},{"NoteNumber":58,"Velocity":30,"Duration":358490,"SoundDuration":358490,"Delta":101251563},{"NoteNumber":66,"Velocity":60,"Duration":777358,"SoundDuration":777358,"Delta":101251563},{"NoteNumber":51,"Velocity":22,"Duration":358490,"SoundDuration":358490,"Delta":101251563},{"NoteNumber":54,"Velocity":30,"Duration":358490,"SoundDuration":358490,"Delta":101251563},{"NoteNumber":58,"Velocity":34,"Duration":379999,"SoundDuration":379999,"Delta":101628921},{"NoteNumber":54,"Velocity":27,"Duration":379999,"SoundDuration":379999,"Delta":101628921},{"NoteNumber":51,"Velocity":22,"Duration":379999,"SoundDuration":379999,"Delta":101628921},{"NoteNumber":63,"Velocity":46,"Duration":365384,"SoundDuration":365384,"Delta":102028921},{"NoteNumber":66,"Velocity":58,"Duration":769231,"SoundDuration":769231,"Delta":102028921},{"NoteNumber":51,"Velocity":26,"Duration":365384,"SoundDuration":365384,"Delta":102028921},{"NoteNumber":58,"Velocity":31,"Duration":365384,"SoundDuration":365384,"Delta":102028921},{"NoteNumber":63,"Velocity":34,"Duration":365384,"SoundDuration":365384,"Delta":102413537},{"NoteNumber":51,"Velocity":25,"Duration":365384,"SoundDuration":365384,"Delta":102413537},{"NoteNumber":58,"Velocity":30,"Duration":365384,"SoundDuration":365384,"Delta":102413537},{"NoteNumber":66,"Velocity":57,"Duration":767721,"SoundDuration":767721,"Delta":102798152},{"NoteNumber":60,"Velocity":48,"Duration":351851,"SoundDuration":351851,"Delta":102798152},{"NoteNumber":63,"Velocity":48,"Duration":767721,"SoundDuration":767721,"Delta":102798152},{"NoteNumber":44,"Velocity":24,"Duration":351851,"SoundDuration":351851,"Delta":102798152},{"NoteNumber":51,"Velocity":29,"Duration":351851,"SoundDuration":351851,"Delta":102798152},{"NoteNumber":56,"Velocity":35,"Duration":351851,"SoundDuration":351851,"Delta":102798152},{"NoteNumber":60,"Velocity":37,"Duration":377483,"SoundDuration":377483,"Delta":103168523},{"NoteNumber":44,"Velocity":24,"Duration":377483,"SoundDuration":377483,"Delta":103168523},{"NoteNumber":51,"Velocity":24,"Duration":377483,"SoundDuration":377483,"Delta":103168523},{"NoteNumber":56,"Velocity":29,"Duration":377483,"SoundDuration":377483,"Delta":103168523},{"NoteNumber":68,"Velocity":54,"Duration":1557850,"SoundDuration":1557850,"Delta":103565874},{"NoteNumber":66,"Velocity":60,"Duration":783656,"SoundDuration":783656,"Delta":103565874},{"NoteNumber":59,"Velocity":34,"Duration":361984,"SoundDuration":361984,"Delta":103565874},{"NoteNumber":63,"Velocity":51,"Duration":783656,"SoundDuration":783656,"Delta":103565874},{"NoteNumber":49,"Velocity":33,"Duration":361984,"SoundDuration":361984,"Delta":103565874},{"NoteNumber":56,"Velocity":39,"Duration":361984,"SoundDuration":361984,"Delta":103565874},{"NoteNumber":59,"Velocity":41,"Duration":382550,"SoundDuration":382550,"Delta":103946846},{"NoteNumber":56,"Velocity":34,"Duration":382550,"SoundDuration":382550,"Delta":103946846},{"NoteNumber":49,"Velocity":28,"Duration":382550,"SoundDuration":382550,"Delta":103946846},{"NoteNumber":61,"Velocity":42,"Duration":774193,"SoundDuration":774193,"Delta":104349530},{"NoteNumber":65,"Velocity":56,"Duration":774193,"SoundDuration":774193,"Delta":104349530},{"NoteNumber":59,"Velocity":50,"Duration":367742,"SoundDuration":367742,"Delta":104349530},{"NoteNumber":49,"Velocity":31,"Duration":367742,"SoundDuration":367742,"Delta":104349530},{"NoteNumber":56,"Velocity":37,"Duration":367742,"SoundDuration":367742,"Delta":104349530},{"NoteNumber":59,"Velocity":41,"Duration":367742,"SoundDuration":367742,"Delta":104736627},{"NoteNumber":49,"Velocity":27,"Duration":367742,"SoundDuration":367742,"Delta":104736627},{"NoteNumber":56,"Velocity":32,"Duration":367742,"SoundDuration":367742,"Delta":104736627},{"NoteNumber":63,"Velocity":42,"Duration":784313,"SoundDuration":784313,"Delta":105123724},{"NoteNumber":59,"Velocity":50,"Duration":372549,"SoundDuration":372549,"Delta":105123724},{"NoteNumber":68,"Velocity":56,"Duration":784313,"SoundDuration":784313,"Delta":105123724},{"NoteNumber":49,"Velocity":30,"Duration":372549,"SoundDuration":372549,"Delta":105123724},{"NoteNumber":56,"Velocity":36,"Duration":372549,"SoundDuration":372549,"Delta":105123724},{"NoteNumber":59,"Velocity":41,"Duration":372549,"SoundDuration":372549,"Delta":105515881},{"NoteNumber":49,"Velocity":27,"Duration":372549,"SoundDuration":372549,"Delta":105515881},{"NoteNumber":56,"Velocity":32,"Duration":372549,"SoundDuration":372549,"Delta":105515881},{"NoteNumber":63,"Velocity":42,"Duration":784547,"SoundDuration":784547,"Delta":105908038},{"NoteNumber":68,"Velocity":56,"Duration":784547,"SoundDuration":784547,"Delta":105908038},{"NoteNumber":59,"Velocity":42,"Duration":784547,"SoundDuration":784547,"Delta":105908038},{"NoteNumber":49,"Velocity":22,"Duration":362631,"SoundDuration":362631,"Delta":105908038},{"NoteNumber":56,"Velocity":30,"Duration":362631,"SoundDuration":362631,"Delta":105908038},{"NoteNumber":49,"Velocity":27,"Duration":382550,"SoundDuration":382550,"Delta":106289901},{"NoteNumber":42,"Velocity":19,"Duration":382550,"SoundDuration":382550,"Delta":106289901},{"NoteNumber":70,"Velocity":52,"Duration":779221,"SoundDuration":779221,"Delta":106692585},{"NoteNumber":58,"Velocity":39,"Duration":779221,"SoundDuration":779221,"Delta":106692585},{"NoteNumber":61,"Velocity":39,"Duration":779221,"SoundDuration":779221,"Delta":106692585},{"NoteNumber":42,"Velocity":23,"Duration":370129,"SoundDuration":370129,"Delta":106692585},{"NoteNumber":49,"Velocity":31,"Duration":370129,"SoundDuration":370129,"Delta":106692585},{"NoteNumber":42,"Velocity":22,"Duration":370129,"SoundDuration":370129,"Delta":107082196},{"NoteNumber":49,"Velocity":30,"Duration":370129,"SoundDuration":370129,"Delta":107082196},{"NoteNumber":63,"Velocity":37,"Duration":779220,"SoundDuration":779220,"Delta":107471806},{"NoteNumber":68,"Velocity":50,"Duration":779220,"SoundDuration":779220,"Delta":107471806},{"NoteNumber":59,"Velocity":32,"Duration":779220,"SoundDuration":779220,"Delta":107471806},{"NoteNumber":42,"Velocity":21,"Duration":370129,"SoundDuration":370129,"Delta":107471806},{"NoteNumber":49,"Velocity":35,"Duration":370129,"SoundDuration":370129,"Delta":107471806},{"NoteNumber":42,"Velocity":21,"Duration":370129,"SoundDuration":370129,"Delta":107861417},{"NoteNumber":53,"Velocity":29,"Duration":370129,"SoundDuration":370129,"Delta":107861417},{"NoteNumber":58,"Velocity":38,"Duration":2241439,"SoundDuration":2241439,"Delta":108251027},{"NoteNumber":61,"Velocity":38,"Duration":2241439,"SoundDuration":2241439,"Delta":108251027},{"NoteNumber":70,"Velocity":51,"Duration":2241439,"SoundDuration":2241439,"Delta":108251027},{"NoteNumber":42,"Velocity":34,"Duration":372549,"SoundDuration":372549,"Delta":108251027},{"NoteNumber":54,"Velocity":34,"Duration":372549,"SoundDuration":372549,"Delta":108251027},{"NoteNumber":41,"Velocity":29,"Duration":363636,"SoundDuration":363636,"Delta":108643184},{"NoteNumber":44,"Velocity":32,"Duration":363636,"SoundDuration":363636,"Delta":109006821},{"NoteNumber":42,"Velocity":29,"Duration":363636,"SoundDuration":363636,"Delta":109370457},{"NoteNumber":46,"Velocity":32,"Duration":363636,"SoundDuration":363636,"Delta":109734094},{"NoteNumber":37,"Velocity":29,"Duration":394737,"SoundDuration":394737,"Delta":110097730},{"NoteNumber":70,"Velocity":55,"Duration":1861834,"SoundDuration":1861834,"Delta":110492467},{"NoteNumber":64,"Velocity":46,"Duration":1861834,"SoundDuration":1861834,"Delta":110492467},{"NoteNumber":30,"Velocity":39,"Duration":346821,"SoundDuration":346821,"Delta":110492467},{"NoteNumber":53,"Velocity":26,"Duration":306122,"SoundDuration":306122,"Delta":110839288},{"NoteNumber":56,"Velocity":31,"Duration":294117,"SoundDuration":294117,"Delta":111145411},{"NoteNumber":54,"Velocity":30,"Duration":294117,"SoundDuration":294117,"Delta":111439528},{"NoteNumber":58,"Velocity":35,"Duration":301507,"SoundDuration":301507,"Delta":111733646},{"NoteNumber":49,"Velocity":33,"Duration":319148,"SoundDuration":319148,"Delta":112035153},{"NoteNumber":70,"Velocity":66,"Duration":1661306,"SoundDuration":1661306,"Delta":112354302},{"NoteNumber":64,"Velocity":55,"Duration":1815945,"SoundDuration":1815945,"Delta":112354302},{"NoteNumber":42,"Velocity":46,"Duration":322580,"SoundDuration":322580,"Delta":112354302},{"NoteNumber":53,"Velocity":30,"Duration":299999,"SoundDuration":299999,"Delta":112676883},{"NoteNumber":56,"Velocity":40,"Duration":294117,"SoundDuration":294117,"Delta":112976883},{"NoteNumber":54,"Velocity":35,"Duration":288461,"SoundDuration":288461,"Delta":113271000},{"NoteNumber":58,"Velocity":42,"Duration":301507,"SoundDuration":301507,"Delta":113559462},{"NoteNumber":49,"Velocity":37,"Duration":309278,"SoundDuration":309278,"Delta":113860969},{"NoteNumber":71,"Velocity":62,"Duration":154639,"SoundDuration":154639,"Delta":114015609},{"NoteNumber":70,"Velocity":59,"Duration":1806196,"SoundDuration":1806196,"Delta":114170248},{"NoteNumber":73,"Velocity":71,"Duration":1806196,"SoundDuration":1806196,"Delta":114170248},{"NoteNumber":64,"Velocity":44,"Duration":1806196,"SoundDuration":1806196,"Delta":114170248},{"NoteNumber":42,"Velocity":47,"Duration":314136,"SoundDuration":314136,"Delta":114170248},{"NoteNumber":53,"Velocity":34,"Duration":298507,"SoundDuration":298507,"Delta":114484384},{"NoteNumber":56,"Velocity":45,"Duration":289855,"SoundDuration":289855,"Delta":114782891},{"NoteNumber":54,"Velocity":37,"Duration":289855,"SoundDuration":289855,"Delta":115072746},{"NoteNumber":58,"Velocity":44,"Duration":291262,"SoundDuration":291262,"Delta":115362601},{"NoteNumber":49,"Velocity":29,"Duration":322580,"SoundDuration":322580,"Delta":115653863},{"NoteNumber":75,"Velocity":67,"Duration":1639881,"SoundDuration":1639881,"Delta":115976444},{"NoteNumber":64,"Velocity":30,"Duration":1801171,"SoundDuration":1801171,"Delta":115976444},{"NoteNumber":78,"Velocity":67,"Duration":1801171,"SoundDuration":1801171,"Delta":115976444},{"NoteNumber":70,"Velocity":45,"Duration":1801171,"SoundDuration":1801171,"Delta":115976444},{"NoteNumber":42,"Velocity":48,"Duration":310880,"SoundDuration":310880,"Delta":115976444},{"NoteNumber":53,"Velocity":33,"Duration":297029,"SoundDuration":297029,"Delta":116287325},{"NoteNumber":56,"Velocity":39,"Duration":289855,"SoundDuration":289855,"Delta":116584354},{"NoteNumber":54,"Velocity":34,"Duration":289855,"SoundDuration":289855,"Delta":116874209},{"NoteNumber":58,"Velocity":38,"Duration":301507,"SoundDuration":301507,"Delta":117164064},{"NoteNumber":49,"Velocity":34,"Duration":312044,"SoundDuration":312044,"Delta":117465572},{"NoteNumber":73,"Velocity":66,"Duration":161290,"SoundDuration":161290,"Delta":117616326},{"NoteNumber":78,"Velocity":69,"Duration":1842883,"SoundDuration":1842883,"Delta":117777616},{"NoteNumber":64,"Velocity":30,"Duration":1842883,"SoundDuration":1842883,"Delta":117777616},{"NoteNumber":73,"Velocity":48,"Duration":1842883,"SoundDuration":1842883,"Delta":117777616},{"NoteNumber":47,"Velocity":44,"Duration":327869,"SoundDuration":327869,"Delta":117777616},{"NoteNumber":53,"Velocity":29,"Duration":306122,"SoundDuration":306122,"Delta":118105485},{"NoteNumber":56,"Velocity":33,"Duration":294117,"SoundDuration":294117,"Delta":118411607},{"NoteNumber":54,"Velocity":29,"Duration":294117,"SoundDuration":294117,"Delta":118705725},{"NoteNumber":58,"Velocity":32,"Duration":301507,"SoundDuration":301507,"Delta":118999842},{"NoteNumber":49,"Velocity":27,"Duration":319148,"SoundDuration":319148,"Delta":119301350},{"NoteNumber":71,"Velocity":50,"Duration":1848347,"SoundDuration":1848347,"Delta":119620499},{"NoteNumber":75,"Velocity":61,"Duration":3654543,"SoundDuration":3654543,"Delta":119620499},{"NoteNumber":63,"Velocity":37,"Duration":1848347,"SoundDuration":1848347,"Delta":119620499},{"NoteNumber":47,"Velocity":39,"Duration":333333,"SoundDuration":333333,"Delta":119620499},{"NoteNumber":53,"Velocity":28,"Duration":306122,"SoundDuration":306122,"Delta":119953832},{"NoteNumber":56,"Velocity":31,"Duration":294117,"SoundDuration":294117,"Delta":120259955},{"NoteNumber":54,"Velocity":28,"Duration":294117,"SoundDuration":294117,"Delta":120554072},{"NoteNumber":59,"Velocity":31,"Duration":301507,"SoundDuration":301507,"Delta":120848190},{"NoteNumber":47,"Velocity":26,"Duration":319148,"SoundDuration":319148,"Delta":121149697},{"NoteNumber":61,"Velocity":50,"Duration":1806196,"SoundDuration":1806196,"Delta":121468846},{"NoteNumber":67,"Velocity":50,"Duration":1806196,"SoundDuration":1806196,"Delta":121468846},{"NoteNumber":71,"Velocity":56,"Duration":1806196,"SoundDuration":1806196,"Delta":121468846},{"NoteNumber":39,"Velocity":41,"Duration":314136,"SoundDuration":314136,"Delta":121468846},{"NoteNumber":50,"Velocity":30,"Duration":298507,"SoundDuration":298507,"Delta":121782982},{"NoteNumber":52,"Velocity":38,"Duration":289855,"SoundDuration":289855,"Delta":122081490},{"NoteNumber":51,"Velocity":30,"Duration":289855,"SoundDuration":289855,"Delta":122371345},{"NoteNumber":55,"Velocity":36,"Duration":291262,"SoundDuration":291262,"Delta":122661200},{"NoteNumber":46,"Velocity":29,"Duration":322580,"SoundDuration":322580,"Delta":122952462},{"NoteNumber":68,"Velocity":47,"Duration":1801171,"SoundDuration":1801171,"Delta":123275042},{"NoteNumber":59,"Velocity":42,"Duration":1801171,"SoundDuration":1801171,"Delta":123275042},{"NoteNumber":71,"Velocity":57,"Duration":1639881,"SoundDuration":1639881,"Delta":123275042},{"NoteNumber":44,"Velocity":38,"Duration":310880,"SoundDuration":310880,"Delta":123275042},{"NoteNumber":50,"Velocity":33,"Duration":297029,"SoundDuration":297029,"Delta":123585923},{"NoteNumber":52,"Velocity":37,"Duration":289855,"SoundDuration":289855,"Delta":123882953},{"NoteNumber":51,"Velocity":29,"Duration":289855,"SoundDuration":289855,"Delta":124172808},{"NoteNumber":56,"Velocity":34,"Duration":301507,"SoundDuration":301507,"Delta":124462663},{"NoteNumber":44,"Velocity":28,"Duration":312044,"SoundDuration":312044,"Delta":124764170},{"NoteNumber":63,"Velocity":49,"Duration":161290,"SoundDuration":161290,"Delta":124914924},{"NoteNumber":68,"Velocity":59,"Duration":1807696,"SoundDuration":1807696,"Delta":125076214},{"NoteNumber":65,"Velocity":47,"Duration":1807696,"SoundDuration":1807696,"Delta":125076214},{"NoteNumber":59,"Velocity":42,"Duration":1807696,"SoundDuration":1807696,"Delta":125076214},{"NoteNumber":37,"Velocity":39,"Duration":292682,"SoundDuration":292682,"Delta":125076214},{"NoteNumber":77,"Velocity":54,"Duration":3363361,"SoundDuration":3363361,"Delta":125368897},{"NoteNumber":48,"Velocity":26,"Duration":306122,"SoundDuration":306122,"Delta":125368897},{"NoteNumber":51,"Velocity":29,"Duration":294117,"SoundDuration":294117,"Delta":125675020},{"NoteNumber":49,"Velocity":26,"Duration":294117,"SoundDuration":294117,"Delta":125969137},{"NoteNumber":53,"Velocity":29,"Duration":301507,"SoundDuration":301507,"Delta":126263255},{"NoteNumber":44,"Velocity":25,"Duration":319148,"SoundDuration":319148,"Delta":126564762},{"NoteNumber":65,"Velocity":42,"Duration":1227691,"SoundDuration":1227691,"Delta":126883911},{"NoteNumber":59,"Velocity":37,"Duration":1227691,"SoundDuration":1227691,"Delta":126883911},{"NoteNumber":68,"Velocity":51,"Duration":1227691,"SoundDuration":1227691,"Delta":126883911},{"NoteNumber":37,"Velocity":36,"Duration":333333,"SoundDuration":333333,"Delta":126883911},{"NoteNumber":48,"Velocity":26,"Duration":306122,"SoundDuration":306122,"Delta":127217245},{"NoteNumber":51,"Velocity":29,"Duration":294117,"SoundDuration":294117,"Delta":127523367},{"NoteNumber":49,"Velocity":26,"Duration":294117,"SoundDuration":294117,"Delta":127817485},{"NoteNumber":70,"Velocity":51,"Duration":620656,"SoundDuration":620656,"Delta":128111602},{"NoteNumber":61,"Velocity":42,"Duration":620656,"SoundDuration":620656,"Delta":128111602},{"NoteNumber":53,"Velocity":29,"Duration":301507,"SoundDuration":301507,"Delta":128111602},{"NoteNumber":44,"Velocity":25,"Duration":319149,"SoundDuration":319149,"Delta":128413110},{"NoteNumber":58,"Velocity":42,"Duration":1192864,"SoundDuration":1192864,"Delta":128732259},{"NoteNumber":66,"Velocity":54,"Duration":1192864,"SoundDuration":1192864,"Delta":128732259},{"NoteNumber":42,"Velocity":36,"Duration":298507,"SoundDuration":298507,"Delta":128732259},{"NoteNumber":78,"Velocity":59,"Duration":1515014,"SoundDuration":1515014,"Delta":129030766},{"NoteNumber":48,"Velocity":26,"Duration":306122,"SoundDuration":306122,"Delta":129030766},{"NoteNumber":51,"Velocity":29,"Duration":294117,"SoundDuration":294117,"Delta":129336889},{"NoteNumber":49,"Velocity":26,"Duration":294117,"SoundDuration":294117,"Delta":129631006},{"NoteNumber":54,"Velocity":29,"Duration":301507,"SoundDuration":301507,"Delta":129925124},{"NoteNumber":42,"Velocity":25,"Duration":319149,"SoundDuration":319149,"Delta":130226631},{"NoteNumber":63,"Velocity":40,"Duration":1782974,"SoundDuration":1782974,"Delta":130545780},{"NoteNumber":71,"Velocity":57,"Duration":1782974,"SoundDuration":1782974,"Delta":130545780},{"NoteNumber":68,"Velocity":45,"Duration":1782974,"SoundDuration":1782974,"Delta":130545780},{"NoteNumber":35,"Velocity":34,"Duration":292683,"SoundDuration":292683,"Delta":130545780},{"NoteNumber":80,"Velocity":61,"Duration":1490291,"SoundDuration":1490291,"Delta":130838463},{"NoteNumber":50,"Velocity":29,"Duration":297029,"SoundDuration":297029,"Delta":130838463},{"NoteNumber":53,"Velocity":33,"Duration":289854,"SoundDuration":289854,"Delta":131135493},{"NoteNumber":51,"Velocity":26,"Duration":289855,"SoundDuration":289855,"Delta":131425348},{"NoteNumber":59,"Velocity":29,"Duration":301507,"SoundDuration":301507,"Delta":131715203},{"NoteNumber":44,"Velocity":25,"Duration":312043,"SoundDuration":312043,"Delta":132016710},{"NoteNumber":59,"Velocity":34,"Duration":3761599,"SoundDuration":3761599,"Delta":132328754},{"NoteNumber":65,"Velocity":38,"Duration":3761599,"SoundDuration":3761599,"Delta":132328754},{"NoteNumber":68,"Velocity":51,"Duration":1855066,"SoundDuration":1855066,"Delta":132328754},{"NoteNumber":37,"Velocity":35,"Duration":307692,"SoundDuration":307692,"Delta":132328754},{"NoteNumber":77,"Velocity":58,"Duration":3289973,"SoundDuration":3289973,"Delta":132636447},{"NoteNumber":48,"Velocity":23,"Duration":312500,"SoundDuration":312500,"Delta":132636447},{"NoteNumber":51,"Velocity":25,"Duration":301507,"SoundDuration":301507,"Delta":132948947},{"NoteNumber":49,"Velocity":22,"Duration":301507,"SoundDuration":301507,"Delta":133250454},{"NoteNumber":53,"Velocity":24,"Duration":309278,"SoundDuration":309278,"Delta":133551962},{"NoteNumber":44,"Velocity":20,"Duration":322580,"SoundDuration":322580,"Delta":133861240},{"NoteNumber":70,"Velocity":56,"Duration":1906533,"SoundDuration":1906533,"Delta":134183821},{"NoteNumber":37,"Velocity":29,"Duration":342857,"SoundDuration":342857,"Delta":134183821},{"NoteNumber":48,"Velocity":20,"Duration":315789,"SoundDuration":315789,"Delta":134526678},{"NoteNumber":51,"Velocity":23,"Duration":304568,"SoundDuration":304568,"Delta":134842467},{"NoteNumber":49,"Velocity":19,"Duration":304568,"SoundDuration":304568,"Delta":135147036},{"NoteNumber":56,"Velocity":23,"Duration":310880,"SoundDuration":310880,"Delta":135451604},{"NoteNumber":37,"Velocity":18,"Duration":327868,"SoundDuration":327868,"Delta":135762485},{"NoteNumber":78,"Velocity":54,"Duration":163934,"SoundDuration":163934,"Delta":135926420},{"NoteNumber":66,"Velocity":42,"Duration":3811859,"SoundDuration":3811859,"Delta":136090354},{"NoteNumber":58,"Velocity":27,"Duration":3811859,"SoundDuration":3811859,"Delta":136090354},{"NoteNumber":30,"Velocity":26,"Duration":310880,"SoundDuration":310880,"Delta":136090354},{"NoteNumber":78,"Velocity":57,"Duration":3500978,"SoundDuration":3500978,"Delta":136401235},{"NoteNumber":48,"Velocity":19,"Duration":315789,"SoundDuration":315789,"Delta":136401235},{"NoteNumber":51,"Velocity":22,"Duration":304568,"SoundDuration":304568,"Delta":136717025},{"NoteNumber":49,"Velocity":19,"Duration":304568,"SoundDuration":304568,"Delta":137021593},{"NoteNumber":54,"Velocity":22,"Duration":310880,"SoundDuration":310880,"Delta":137326162},{"NoteNumber":37,"Velocity":18,"Duration":326087,"SoundDuration":326087,"Delta":137637043},{"NoteNumber":42,"Velocity":26,"Duration":340909,"SoundDuration":340909,"Delta":137963130},{"NoteNumber":48,"Velocity":19,"Duration":333333,"SoundDuration":333333,"Delta":138304039},{"NoteNumber":51,"Velocity":22,"Duration":310880,"SoundDuration":310880,"Delta":138637372},{"NoteNumber":49,"Velocity":19,"Duration":310880,"SoundDuration":310880,"Delta":138948253},{"NoteNumber":54,"Velocity":22,"Duration":313409,"SoundDuration":313409,"Delta":139259134},{"NoteNumber":37,"Velocity":18,"Duration":329670,"SoundDuration":329670,"Delta":139572544},{"NoteNumber":30,"Velocity":33,"Duration":370370,"SoundDuration":370370,"Delta":139902214},{"NoteNumber":58,"Velocity":30,"Duration":339690,"SoundDuration":339690,"Delta":140272585},{"NoteNumber":42,"Velocity":25,"Duration":339690,"SoundDuration":339690,"Delta":140272585},{"NoteNumber":51,"Velocity":25,"Duration":339690,"SoundDuration":339690,"Delta":140272585},{"NoteNumber":58,"Velocity":33,"Duration":339690,"SoundDuration":339690,"Delta":140630153},{"NoteNumber":42,"Velocity":27,"Duration":339690,"SoundDuration":339690,"Delta":140630153},{"NoteNumber":51,"Velocity":27,"Duration":339690,"SoundDuration":339690,"Delta":140630153},{"NoteNumber":58,"Velocity":34,"Duration":339690,"SoundDuration":339690,"Delta":140987722},{"NoteNumber":42,"Velocity":28,"Duration":339690,"SoundDuration":339690,"Delta":140987722},{"NoteNumber":51,"Velocity":28,"Duration":339690,"SoundDuration":339690,"Delta":140987722},{"NoteNumber":63,"Velocity":37,"Duration":341446,"SoundDuration":341446,"Delta":141345290},{"NoteNumber":42,"Velocity":30,"Duration":341446,"SoundDuration":341446,"Delta":141345290},{"NoteNumber":51,"Velocity":30,"Duration":341446,"SoundDuration":341446,"Delta":141345290},{"NoteNumber":58,"Velocity":40,"Duration":377398,"SoundDuration":377398,"Delta":141705368},{"NoteNumber":42,"Velocity":26,"Duration":377398,"SoundDuration":377398,"Delta":141705368},{"NoteNumber":51,"Velocity":26,"Duration":377398,"SoundDuration":377398,"Delta":141705368},{"NoteNumber":58,"Velocity":25,"Duration":354344,"SoundDuration":354344,"Delta":142101104},{"NoteNumber":70,"Velocity":52,"Duration":1689687,"SoundDuration":1689687,"Delta":142101104},{"NoteNumber":42,"Velocity":26,"Duration":354344,"SoundDuration":354344,"Delta":142101104},{"NoteNumber":51,"Velocity":26,"Duration":354344,"SoundDuration":354344,"Delta":142101104},{"NoteNumber":61,"Velocity":38,"Duration":367926,"SoundDuration":367926,"Delta":142474500},{"NoteNumber":42,"Velocity":26,"Duration":367926,"SoundDuration":367926,"Delta":142474500},{"NoteNumber":51,"Velocity":26,"Duration":367926,"SoundDuration":367926,"Delta":142474500},{"NoteNumber":59,"Velocity":37,"Duration":400932,"SoundDuration":400932,"Delta":142862286},{"NoteNumber":42,"Velocity":25,"Duration":400932,"SoundDuration":400932,"Delta":142862286},{"NoteNumber":51,"Velocity":25,"Duration":400932,"SoundDuration":400932,"Delta":142862286},{"NoteNumber":58,"Velocity":30,"Duration":479797,"SoundDuration":479797,"Delta":143285741},{"NoteNumber":42,"Velocity":25,"Duration":479797,"SoundDuration":479797,"Delta":143285741},{"NoteNumber":49,"Velocity":25,"Duration":479797,"SoundDuration":479797,"Delta":143285741},{"NoteNumber":58,"Velocity":18,"Duration":427927,"SoundDuration":427927,"Delta":143790791},{"NoteNumber":69,"Velocity":40,"Duration":225225,"SoundDuration":225225,"Delta":143790791},{"NoteNumber":42,"Velocity":21,"Duration":427927,"SoundDuration":427927,"Delta":143790791},{"NoteNumber":49,"Velocity":21,"Duration":427927,"SoundDuration":427927,"Delta":143790791},{"NoteNumber":70,"Velocity":35,"Duration":225225,"SoundDuration":225225,"Delta":144016016},{"NoteNumber":73,"Velocity":40,"Duration":255972,"SoundDuration":255972,"Delta":144241242},{"NoteNumber":58,"Velocity":18,"Duration":655381,"SoundDuration":655381,"Delta":144241242},{"NoteNumber":42,"Velocity":17,"Duration":655381,"SoundDuration":655381,"Delta":144241242},{"NoteNumber":49,"Velocity":17,"Duration":655381,"SoundDuration":655381,"Delta":144241242},{"NoteNumber":71,"Velocity":35,"Duration":443786,"SoundDuration":443786,"Delta":144497214},{"NoteNumber":70,"Velocity":33,"Duration":5142857,"SoundDuration":5142857,"Delta":144941001},{"NoteNumber":58,"Velocity":30,"Duration":5142857,"SoundDuration":5142857,"Delta":144941001},{"NoteNumber":42,"Velocity":20,"Duration":5142857,"SoundDuration":5142857,"Delta":144941001},{"NoteNumber":49,"Velocity":25,"Duration":5142857,"SoundDuration":5142857,"Delta":144941001}],"license":{"name":"Creative Commons Attribution-ShareAlike 3.0 Germany","url":"http://creativecommons.org/licenses/by-sa/3.0/de/deed.en","text":"The MIDI files in this folder were downloaded from http://www.piano-midi.de and are licensed under the Creative Commons Attribution-ShareAlike 3.0 Germany license by Bernd Krueger.\n\nThe MIDI, audio(MP3, OGG) and video files of Bernd Krueger are licensed under the cc-by-sa Germany License . This means, that you can use and adapt the files, as long as you attribute to the copyright holder Name: Bernd Krueger Source: http://www.piano-midi.de The distribution or public playback of the files is only allowed under identical license conditions . The scores are open source.","attribution":"Bernd Krueger","attributionUrl":"http://www.piano-midi.de"}}