{"title":"Prelude in D major, Op. 28 No. 5","artist":"Chopin","durationMs":29708,"midiSha256":"a12d7365d9e00fb89a29e0a22e98d60118401f82f4490159bbb0ab1d32a05edc","midiObject":[{"NoteNumber":71,"Velocity":45,"Duration":143472,"SoundDuration":143472,"Delta":0},{"NoteNumber":69,"Velocity":40,"Duration":143472,"SoundDuration":143472,"Delta":143472},{"NoteNumber":61,"Velocity":30,"Duration":140450,"SoundDuration":140450,"Delta":286944},{"NoteNumber":55,"Velocity":38,"Duration":140450,"SoundDuration":140450,"Delta":286944},{"NoteNumber":71,"Velocity":53,"Duration":277015,"SoundDuration":277015,"Delta":427394},{"NoteNumber":45,"Velocity":34,"Duration":139147,"SoundDuration":139147,"Delta":427394},{"NoteNumber":76,"Velocity":51,"Duration":137868,"SoundDuration":137868,"Delta":566541},{"NoteNumber":55,"Velocity":32,"Duration":137868,"SoundDuration":137868,"Delta":566541},{"NoteNumber":69,"Velocity":42,"Duration":136510,"SoundDuration":136510,"Delta":704409},{"NoteNumber":64,"Velocity":31,"Duration":136510,"SoundDuration":136510,"Delta":704409},{"NoteNumber":61,"Velocity":46,"Duration":131894,"SoundDuration":131894,"Delta":840919},{"NoteNumber":55,"Velocity":45,"Duration":131894,"SoundDuration":131894,"Delta":840919},{"NoteNumber":70,"Velocity":65,"Duration":259354,"SoundDuration":259354,"Delta":972814},{"NoteNumber":45,"Velocity":39,"Duration":130427,"SoundDuration":130427,"Delta":972814},{"NoteNumber":76,"Velocity":57,"Duration":128926,"SoundDuration":128926,"Delta":1103242},{"NoteNumber":55,"Velocity":43,"Duration":128926,"SoundDuration":128926,"Delta":1103242},{"NoteNumber":69,"Velocity":50,"Duration":127397,"SoundDuration":127397,"Delta":1232168},{"NoteNumber":64,"Velocity":41,"Duration":63920,"SoundDuration":63920,"Delta":1232168},{"NoteNumber":61,"Velocity":59,"Duration":126026,"SoundDuration":126026,"Delta":1359565},{"NoteNumber":55,"Velocity":50,"Duration":126026,"SoundDuration":126026,"Delta":1359565},{"NoteNumber":71,"Velocity":67,"Duration":247005,"SoundDuration":247005,"Delta":1485592},{"NoteNumber":45,"Velocity":39,"Duration":124564,"SoundDuration":124564,"Delta":1485592},{"NoteNumber":76,"Velocity":69,"Duration":122441,"SoundDuration":122441,"Delta":1610156},{"NoteNumber":55,"Velocity":49,"Duration":122441,"SoundDuration":122441,"Delta":1610156},{"NoteNumber":69,"Velocity":60,"Duration":120266,"SoundDuration":120266,"Delta":1732598},{"NoteNumber":64,"Velocity":42,"Duration":60359,"SoundDuration":60359,"Delta":1732598},{"NoteNumber":61,"Velocity":63,"Duration":118821,"SoundDuration":118821,"Delta":1852865},{"NoteNumber":55,"Velocity":50,"Duration":118821,"SoundDuration":118821,"Delta":1852865},{"NoteNumber":70,"Velocity":72,"Duration":237642,"SoundDuration":237642,"Delta":1971686},{"NoteNumber":45,"Velocity":44,"Duration":118821,"SoundDuration":118821,"Delta":1971686},{"NoteNumber":76,"Velocity":62,"Duration":118821,"SoundDuration":118821,"Delta":2090507},{"NoteNumber":55,"Velocity":49,"Duration":118821,"SoundDuration":118821,"Delta":2090507},{"NoteNumber":69,"Velocity":58,"Duration":118821,"SoundDuration":118821,"Delta":2209328},{"NoteNumber":64,"Velocity":44,"Duration":59410,"SoundDuration":59410,"Delta":2209328},{"NoteNumber":61,"Velocity":63,"Duration":119755,"SoundDuration":119755,"Delta":2328150},{"NoteNumber":57,"Velocity":50,"Duration":119755,"SoundDuration":119755,"Delta":2328150},{"NoteNumber":71,"Velocity":67,"Duration":245756,"SoundDuration":245756,"Delta":2447905},{"NoteNumber":45,"Velocity":41,"Duration":121793,"SoundDuration":121793,"Delta":2447905},{"NoteNumber":76,"Velocity":61,"Duration":123962,"SoundDuration":123962,"Delta":2569699},{"NoteNumber":55,"Velocity":44,"Duration":123962,"SoundDuration":123962,"Delta":2569699},{"NoteNumber":69,"Velocity":50,"Duration":126148,"SoundDuration":126148,"Delta":2693661},{"NoteNumber":64,"Velocity":35,"Duration":62763,"SoundDuration":62763,"Delta":2693661},{"NoteNumber":61,"Velocity":48,"Duration":131279,"SoundDuration":131279,"Delta":2819809},{"NoteNumber":55,"Velocity":35,"Duration":131279,"SoundDuration":131279,"Delta":2819809},{"NoteNumber":66,"Velocity":46,"Duration":133845,"SoundDuration":133845,"Delta":2951089},{"NoteNumber":57,"Velocity":30,"Duration":133845,"SoundDuration":133845,"Delta":2951089},{"NoteNumber":62,"Velocity":49,"Duration":135379,"SoundDuration":135379,"Delta":3084934},{"NoteNumber":38,"Velocity":38,"Duration":135379,"SoundDuration":135379,"Delta":3084934},{"NoteNumber":57,"Velocity":45,"Duration":133963,"SoundDuration":133963,"Delta":3220314},{"NoteNumber":54,"Velocity":34,"Duration":133963,"SoundDuration":133963,"Delta":3220314},{"NoteNumber":58,"Velocity":45,"Duration":132782,"SoundDuration":132782,"Delta":3354278},{"NoteNumber":55,"Velocity":35,"Duration":132782,"SoundDuration":132782,"Delta":3354278},{"NoteNumber":59,"Velocity":44,"Duration":132684,"SoundDuration":132684,"Delta":3487061},{"NoteNumber":43,"Velocity":32,"Duration":132684,"SoundDuration":132684,"Delta":3487061},{"NoteNumber":61,"Velocity":40,"Duration":126518,"SoundDuration":126518,"Delta":3619745},{"NoteNumber":66,"Velocity":48,"Duration":126518,"SoundDuration":126518,"Delta":3619745},{"NoteNumber":45,"Velocity":37,"Duration":126518,"SoundDuration":126518,"Delta":3619745},{"NoteNumber":64,"Velocity":49,"Duration":100392,"SoundDuration":100392,"Delta":3746264},{"NoteNumber":55,"Velocity":37,"Duration":100392,"SoundDuration":100392,"Delta":3746264},{"NoteNumber":62,"Velocity":56,"Duration":132490,"SoundDuration":132490,"Delta":3879635},{"NoteNumber":54,"Velocity":41,"Duration":132490,"SoundDuration":132490,"Delta":3879635},{"NoteNumber":74,"Velocity":51,"Duration":131618,"SoundDuration":131618,"Delta":4012125},{"NoteNumber":47,"Velocity":36,"Duration":131618,"SoundDuration":131618,"Delta":4012125},{"NoteNumber":66,"Velocity":51,"Duration":129802,"SoundDuration":129802,"Delta":4143744},{"NoteNumber":62,"Velocity":36,"Duration":129802,"SoundDuration":129802,"Delta":4143744},{"NoteNumber":69,"Velocity":51,"Duration":129802,"SoundDuration":129802,"Delta":4273547},{"NoteNumber":54,"Velocity":36,"Duration":129802,"SoundDuration":129802,"Delta":4273547},{"NoteNumber":68,"Velocity":48,"Duration":123041,"SoundDuration":123041,"Delta":4403350},{"NoteNumber":73,"Velocity":57,"Duration":123041,"SoundDuration":123041,"Delta":4403350},{"NoteNumber":52,"Velocity":42,"Duration":123041,"SoundDuration":123041,"Delta":4403350},{"NoteNumber":71,"Velocity":55,"Duration":99075,"SoundDuration":99075,"Delta":4526391},{"NoteNumber":62,"Velocity":36,"Duration":99075,"SoundDuration":99075,"Delta":4526391},{"NoteNumber":64,"Velocity":58,"Duration":130255,"SoundDuration":130255,"Delta":4658492},{"NoteNumber":61,"Velocity":48,"Duration":130255,"SoundDuration":130255,"Delta":4658492},{"NoteNumber":69,"Velocity":54,"Duration":128308,"SoundDuration":128308,"Delta":4788747},{"NoteNumber":57,"Velocity":41,"Duration":128308,"SoundDuration":128308,"Delta":4788747},{"NoteNumber":65,"Velocity":54,"Duration":126893,"SoundDuration":126893,"Delta":4917056},{"NoteNumber":62,"Velocity":39,"Duration":126893,"SoundDuration":126893,"Delta":4917056},{"NoteNumber":66,"Velocity":54,"Duration":126774,"SoundDuration":126774,"Delta":5043949},{"NoteNumber":50,"Velocity":39,"Duration":126774,"SoundDuration":126774,"Delta":5043949},{"NoteNumber":73,"Velocity":59,"Duration":121260,"SoundDuration":121260,"Delta":5170724},{"NoteNumber":68,"Velocity":50,"Duration":121260,"SoundDuration":121260,"Delta":5170724},{"NoteNumber":52,"Velocity":42,"Duration":121260,"SoundDuration":121260,"Delta":5170724},{"NoteNumber":71,"Velocity":56,"Duration":98210,"SoundDuration":98210,"Delta":5291985},{"NoteNumber":62,"Velocity":37,"Duration":98210,"SoundDuration":98210,"Delta":5291985},{"NoteNumber":69,"Velocity":62,"Duration":127407,"SoundDuration":127407,"Delta":5422698},{"NoteNumber":61,"Velocity":49,"Duration":127407,"SoundDuration":127407,"Delta":5422698},{"NoteNumber":76,"Velocity":52,"Duration":125228,"SoundDuration":125228,"Delta":5550106},{"NoteNumber":60,"Velocity":39,"Duration":125228,"SoundDuration":125228,"Delta":5550106},{"NoteNumber":64,"Velocity":60,"Duration":123377,"SoundDuration":123377,"Delta":5675335},{"NoteNumber":54,"Velocity":41,"Duration":123377,"SoundDuration":123377,"Delta":5675335},{"NoteNumber":69,"Velocity":57,"Duration":123041,"SoundDuration":123041,"Delta":5798712},{"NoteNumber":45,"Velocity":41,"Duration":123041,"SoundDuration":123041,"Delta":5798712},{"NoteNumber":63,"Velocity":50,"Duration":120096,"SoundDuration":120096,"Delta":5921753},{"NoteNumber":72,"Velocity":59,"Duration":120096,"SoundDuration":120096,"Delta":5921753},{"NoteNumber":47,"Velocity":46,"Duration":120096,"SoundDuration":120096,"Delta":5921753},{"NoteNumber":71,"Velocity":60,"Duration":100851,"SoundDuration":100851,"Delta":6041849},{"NoteNumber":57,"Velocity":40,"Duration":100851,"SoundDuration":100851,"Delta":6041849},{"NoteNumber":59,"Velocity":66,"Duration":132296,"SoundDuration":132296,"Delta":6176318},{"NoteNumber":55,"Velocity":49,"Duration":132296,"SoundDuration":132296,"Delta":6176318},{"NoteNumber":64,"Velocity":57,"Duration":130948,"SoundDuration":130948,"Delta":6308614},{"NoteNumber":40,"Velocity":45,"Duration":130948,"SoundDuration":130948,"Delta":6308614},{"NoteNumber":60,"Velocity":58,"Duration":129802,"SoundDuration":129802,"Delta":6439563},{"NoteNumber":45,"Velocity":48,"Duration":129802,"SoundDuration":129802,"Delta":6439563},{"NoteNumber":64,"Velocity":57,"Duration":129166,"SoundDuration":129166,"Delta":6569366},{"NoteNumber":57,"Velocity":44,"Duration":129166,"SoundDuration":129166,"Delta":6569366},{"NoteNumber":67,"Velocity":64,"Duration":125987,"SoundDuration":125987,"Delta":6698533},{"NoteNumber":63,"Velocity":54,"Duration":125987,"SoundDuration":125987,"Delta":6698533},{"NoteNumber":47,"Velocity":49,"Duration":125987,"SoundDuration":125987,"Delta":6698533},{"NoteNumber":66,"Velocity":63,"Duration":97783,"SoundDuration":97783,"Delta":6824520},{"NoteNumber":57,"Velocity":47,"Duration":97783,"SoundDuration":97783,"Delta":6824520},{"NoteNumber":64,"Velocity":69,"Duration":127773,"SoundDuration":127773,"Delta":6954898},{"NoteNumber":55,"Velocity":51,"Duration":127773,"SoundDuration":127773,"Delta":6954898},{"NoteNumber":76,"Velocity":61,"Duration":126487,"SoundDuration":126487,"Delta":7082672},{"NoteNumber":52,"Velocity":46,"Duration":126487,"SoundDuration":126487,"Delta":7082672},{"NoteNumber":67,"Velocity":64,"Duration":125167,"SoundDuration":125167,"Delta":7209159},{"NoteNumber":64,"Velocity":46,"Duration":125167,"SoundDuration":125167,"Delta":7209159},{"NoteNumber":71,"Velocity":64,"Duration":128550,"SoundDuration":128550,"Delta":7334327},{"NoteNumber":55,"Velocity":46,"Duration":128550,"SoundDuration":128550,"Delta":7334327},{"NoteNumber":70,"Velocity":58,"Duration":120675,"SoundDuration":120675,"Delta":7462877},{"NoteNumber":74,"Velocity":70,"Duration":120675,"SoundDuration":120675,"Delta":7462877},{"NoteNumber":54,"Velocity":51,"Duration":120675,"SoundDuration":120675,"Delta":7462877},{"NoteNumber":73,"Velocity":64,"Duration":95695,"SoundDuration":95695,"Delta":7583553},{"NoteNumber":64,"Velocity":46,"Duration":95695,"SoundDuration":95695,"Delta":7583553},{"NoteNumber":71,"Velocity":73,"Duration":127050,"SoundDuration":127050,"Delta":7711147},{"NoteNumber":62,"Velocity":54,"Duration":127050,"SoundDuration":127050,"Delta":7711147},{"NoteNumber":66,"Velocity":63,"Duration":124832,"SoundDuration":124832,"Delta":7838197},{"NoteNumber":47,"Velocity":56,"Duration":124832,"SoundDuration":124832,"Delta":7838197},{"NoteNumber":67,"Velocity":70,"Duration":122993,"SoundDuration":122993,"Delta":7963030},{"NoteNumber":52,"Velocity":49,"Duration":122993,"SoundDuration":122993,"Delta":7963030},{"NoteNumber":71,"Velocity":72,"Duration":128347,"SoundDuration":128347,"Delta":8086024},{"NoteNumber":64,"Velocity":52,"Duration":128347,"SoundDuration":128347,"Delta":8086024},{"NoteNumber":70,"Velocity":64,"Duration":120333,"SoundDuration":120333,"Delta":8214371},{"NoteNumber":74,"Velocity":76,"Duration":120333,"SoundDuration":120333,"Delta":8214371},{"NoteNumber":54,"Velocity":55,"Duration":120333,"SoundDuration":120333,"Delta":8214371},{"NoteNumber":73,"Velocity":77,"Duration":95298,"SoundDuration":95298,"Delta":8334705},{"NoteNumber":64,"Velocity":52,"Duration":95298,"SoundDuration":95298,"Delta":8334705},{"NoteNumber":71,"Velocity":86,"Duration":126200,"SoundDuration":126200,"Delta":8462286},{"NoteNumber":62,"Velocity":59,"Duration":126200,"SoundDuration":126200,"Delta":8462286},{"NoteNumber":83,"Velocity":75,"Duration":124271,"SoundDuration":124271,"Delta":8588487},{"NoteNumber":53,"Velocity":52,"Duration":124271,"SoundDuration":124271,"Delta":8588487},{"NoteNumber":80,"Velocity":82,"Duration":122231,"SoundDuration":122231,"Delta":8712759},{"NoteNumber":59,"Velocity":54,"Duration":122231,"SoundDuration":122231,"Delta":8712759},{"NoteNumber":74,"Velocity":83,"Duration":122499,"SoundDuration":122499,"Delta":8834990},{"NoteNumber":68,"Velocity":55,"Duration":122499,"SoundDuration":122499,"Delta":8834990},{"NoteNumber":73,"Velocity":90,"Duration":121482,"SoundDuration":121482,"Delta":8957490},{"NoteNumber":61,"Velocity":62,"Duration":121482,"SoundDuration":121482,"Delta":8957490},{"NoteNumber":71,"Velocity":85,"Duration":132100,"SoundDuration":132100,"Delta":9078972},{"NoteNumber":62,"Velocity":54,"Duration":132100,"SoundDuration":132100,"Delta":9078972},{"NoteNumber":70,"Velocity":91,"Duration":129957,"SoundDuration":129957,"Delta":9211072},{"NoteNumber":61,"Velocity":62,"Duration":129957,"SoundDuration":129957,"Delta":9211072},{"NoteNumber":78,"Velocity":77,"Duration":64672,"SoundDuration":64672,"Delta":9341029},{"NoteNumber":54,"Velocity":44,"Duration":64672,"SoundDuration":64672,"Delta":9341029},{"NoteNumber":71,"Velocity":84,"Duration":128347,"SoundDuration":128347,"Delta":9470074},{"NoteNumber":62,"Velocity":53,"Duration":128347,"SoundDuration":128347,"Delta":9470074},{"NoteNumber":80,"Velocity":73,"Duration":64173,"SoundDuration":64173,"Delta":9598422},{"NoteNumber":50,"Velocity":42,"Duration":64173,"SoundDuration":64173,"Delta":9598422},{"NoteNumber":65,"Velocity":80,"Duration":128645,"SoundDuration":128645,"Delta":9726769},{"NoteNumber":61,"Velocity":53,"Duration":128645,"SoundDuration":128645,"Delta":9726769},{"NoteNumber":82,"Velocity":71,"Duration":64672,"SoundDuration":64672,"Delta":9855415},{"NoteNumber":49,"Velocity":42,"Duration":64672,"SoundDuration":64672,"Delta":9855415},{"NoteNumber":70,"Velocity":89,"Duration":132813,"SoundDuration":132813,"Delta":9984963},{"NoteNumber":42,"Velocity":57,"Duration":132813,"SoundDuration":132813,"Delta":9984963},{"NoteNumber":78,"Velocity":73,"Duration":66120,"SoundDuration":66120,"Delta":10117777},{"NoteNumber":61,"Velocity":42,"Duration":66120,"SoundDuration":66120,"Delta":10117777},{"NoteNumber":71,"Velocity":79,"Duration":131417,"SoundDuration":131417,"Delta":10249953},{"NoteNumber":62,"Velocity":50,"Duration":131417,"SoundDuration":131417,"Delta":10249953},{"NoteNumber":80,"Velocity":70,"Duration":65428,"SoundDuration":65428,"Delta":10381371},{"NoteNumber":47,"Velocity":40,"Duration":65428,"SoundDuration":65428,"Delta":10381371},{"NoteNumber":65,"Velocity":75,"Duration":130857,"SoundDuration":130857,"Delta":10512164},{"NoteNumber":61,"Velocity":48,"Duration":130857,"SoundDuration":130857,"Delta":10512164},{"NoteNumber":82,"Velocity":64,"Duration":66371,"SoundDuration":66371,"Delta":10643022},{"NoteNumber":49,"Velocity":38,"Duration":66371,"SoundDuration":66371,"Delta":10643022},{"NoteNumber":70,"Velocity":74,"Duration":138842,"SoundDuration":138842,"Delta":10776539},{"NoteNumber":42,"Velocity":52,"Duration":138842,"SoundDuration":138842,"Delta":10776539},{"NoteNumber":78,"Velocity":60,"Duration":69138,"SoundDuration":69138,"Delta":10915381},{"NoteNumber":61,"Velocity":38,"Duration":69138,"SoundDuration":69138,"Delta":10915381},{"NoteNumber":71,"Velocity":69,"Duration":135357,"SoundDuration":135357,"Delta":11052965},{"NoteNumber":62,"Velocity":46,"Duration":135357,"SoundDuration":135357,"Delta":11052965},{"NoteNumber":80,"Velocity":55,"Duration":67476,"SoundDuration":67476,"Delta":11188322},{"NoteNumber":47,"Velocity":36,"Duration":67476,"SoundDuration":67476,"Delta":11188322},{"NoteNumber":65,"Velocity":64,"Duration":136085,"SoundDuration":136085,"Delta":11323275},{"NoteNumber":61,"Velocity":42,"Duration":136085,"SoundDuration":136085,"Delta":11323275},{"NoteNumber":82,"Velocity":57,"Duration":70041,"SoundDuration":70041,"Delta":11459361},{"NoteNumber":49,"Velocity":32,"Duration":70041,"SoundDuration":70041,"Delta":11459361},{"NoteNumber":70,"Velocity":63,"Duration":149483,"SoundDuration":149483,"Delta":11601041},{"NoteNumber":42,"Velocity":43,"Duration":149483,"SoundDuration":149483,"Delta":11601041},{"NoteNumber":78,"Velocity":54,"Duration":76491,"SoundDuration":76491,"Delta":11750525},{"NoteNumber":61,"Velocity":36,"Duration":76491,"SoundDuration":76491,"Delta":11750525},{"NoteNumber":71,"Velocity":55,"Duration":150240,"SoundDuration":150240,"Delta":11902913},{"NoteNumber":62,"Velocity":38,"Duration":150240,"SoundDuration":150240,"Delta":11902913},{"NoteNumber":80,"Velocity":48,"Duration":74309,"SoundDuration":74309,"Delta":12053153},{"NoteNumber":47,"Velocity":32,"Duration":74309,"SoundDuration":74309,"Delta":12053153},{"NoteNumber":65,"Velocity":49,"Duration":149354,"SoundDuration":149354,"Delta":12201289},{"NoteNumber":61,"Velocity":36,"Duration":149354,"SoundDuration":149354,"Delta":12201289},{"NoteNumber":81,"Velocity":43,"Duration":78306,"SoundDuration":78306,"Delta":12350644},{"NoteNumber":49,"Velocity":29,"Duration":78306,"SoundDuration":78306,"Delta":12350644},{"NoteNumber":78,"Velocity":45,"Duration":141057,"SoundDuration":141057,"Delta":12506977},{"NoteNumber":42,"Velocity":41,"Duration":141057,"SoundDuration":141057,"Delta":12506977},{"NoteNumber":66,"Velocity":40,"Duration":141057,"SoundDuration":141057,"Delta":12648034},{"NoteNumber":57,"Velocity":33,"Duration":141057,"SoundDuration":141057,"Delta":12648034},{"NoteNumber":61,"Velocity":30,"Duration":135528,"SoundDuration":135528,"Delta":12789091},{"NoteNumber":55,"Velocity":38,"Duration":135528,"SoundDuration":135528,"Delta":12789091},{"NoteNumber":71,"Velocity":53,"Duration":268701,"SoundDuration":268701,"Delta":12924619},{"NoteNumber":45,"Velocity":34,"Duration":134775,"SoundDuration":134775,"Delta":12924619},{"NoteNumber":76,"Velocity":49,"Duration":133925,"SoundDuration":133925,"Delta":13059395},{"NoteNumber":55,"Velocity":36,"Duration":133925,"SoundDuration":133925,"Delta":13059395},{"NoteNumber":69,"Velocity":42,"Duration":133084,"SoundDuration":133084,"Delta":13193320},{"NoteNumber":64,"Velocity":31,"Duration":133084,"SoundDuration":133084,"Delta":13193320},{"NoteNumber":61,"Velocity":46,"Duration":129245,"SoundDuration":129245,"Delta":13326404},{"NoteNumber":55,"Velocity":45,"Duration":129245,"SoundDuration":129245,"Delta":13326404},{"NoteNumber":70,"Velocity":65,"Duration":255808,"SoundDuration":255808,"Delta":13455650},{"NoteNumber":45,"Velocity":39,"Duration":128349,"SoundDuration":128349,"Delta":13455650},{"NoteNumber":76,"Velocity":57,"Duration":127459,"SoundDuration":127459,"Delta":13583999},{"NoteNumber":55,"Velocity":44,"Duration":127459,"SoundDuration":127459,"Delta":13583999},{"NoteNumber":69,"Velocity":50,"Duration":126456,"SoundDuration":126456,"Delta":13711458},{"NoteNumber":64,"Velocity":41,"Duration":63322,"SoundDuration":63322,"Delta":13711458},{"NoteNumber":61,"Velocity":59,"Duration":125536,"SoundDuration":125536,"Delta":13837915},{"NoteNumber":55,"Velocity":50,"Duration":125536,"SoundDuration":125536,"Delta":13837915},{"NoteNumber":71,"Velocity":67,"Duration":245851,"SoundDuration":245851,"Delta":13963452},{"NoteNumber":45,"Velocity":39,"Duration":124329,"SoundDuration":124329,"Delta":13963452},{"NoteNumber":76,"Velocity":67,"Duration":121521,"SoundDuration":121521,"Delta":14087781},{"NoteNumber":55,"Velocity":50,"Duration":121521,"SoundDuration":121521,"Delta":14087781},{"NoteNumber":69,"Velocity":61,"Duration":118831,"SoundDuration":118831,"Delta":14209303},{"NoteNumber":64,"Velocity":42,"Duration":59744,"SoundDuration":59744,"Delta":14209303},{"NoteNumber":61,"Velocity":63,"Duration":116566,"SoundDuration":116566,"Delta":14328134},{"NoteNumber":55,"Velocity":50,"Duration":116566,"SoundDuration":116566,"Delta":14328134},{"NoteNumber":70,"Velocity":70,"Duration":233500,"SoundDuration":233500,"Delta":14444700},{"NoteNumber":45,"Velocity":44,"Duration":116459,"SoundDuration":116459,"Delta":14444700},{"NoteNumber":76,"Velocity":64,"Duration":117041,"SoundDuration":117041,"Delta":14561160},{"NoteNumber":55,"Velocity":48,"Duration":117041,"SoundDuration":117041,"Delta":14561160},{"NoteNumber":69,"Velocity":58,"Duration":117148,"SoundDuration":117148,"Delta":14678201},{"NoteNumber":64,"Velocity":44,"Duration":58520,"SoundDuration":58520,"Delta":14678201},{"NoteNumber":61,"Velocity":65,"Duration":118544,"SoundDuration":118544,"Delta":14795350},{"NoteNumber":55,"Velocity":50,"Duration":118544,"SoundDuration":118544,"Delta":14795350},{"NoteNumber":57,"Velocity":50,"Duration":118544,"SoundDuration":118544,"Delta":14795350},{"NoteNumber":71,"Velocity":58,"Duration":243843,"SoundDuration":243843,"Delta":14913895},{"NoteNumber":45,"Velocity":41,"Duration":120769,"SoundDuration":120769,"Delta":14913895},{"NoteNumber":76,"Velocity":61,"Duration":123073,"SoundDuration":123073,"Delta":15034664},{"NoteNumber":55,"Velocity":44,"Duration":123073,"SoundDuration":123073,"Delta":15034664},{"NoteNumber":69,"Velocity":50,"Duration":125472,"SoundDuration":125472,"Delta":15157738},{"NoteNumber":64,"Velocity":35,"Duration":62428,"SoundDuration":62428,"Delta":15157738},{"NoteNumber":61,"Velocity":48,"Duration":128025,"SoundDuration":128025,"Delta":15283211},{"NoteNumber":55,"Velocity":35,"Duration":128025,"SoundDuration":128025,"Delta":15283211},{"NoteNumber":66,"Velocity":46,"Duration":133574,"SoundDuration":133574,"Delta":15411236},{"NoteNumber":57,"Velocity":30,"Duration":133574,"SoundDuration":133574,"Delta":15411236},{"NoteNumber":62,"Velocity":49,"Duration":134669,"SoundDuration":134669,"Delta":15544811},{"NoteNumber":38,"Velocity":38,"Duration":134669,"SoundDuration":134669,"Delta":15544811},{"NoteNumber":57,"Velocity":45,"Duration":132492,"SoundDuration":132492,"Delta":15679481},{"NoteNumber":54,"Velocity":34,"Duration":132492,"SoundDuration":132492,"Delta":15679481},{"NoteNumber":58,"Velocity":45,"Duration":130947,"SoundDuration":130947,"Delta":15811973},{"NoteNumber":55,"Velocity":35,"Duration":130947,"SoundDuration":130947,"Delta":15811973},{"NoteNumber":59,"Velocity":44,"Duration":130947,"SoundDuration":130947,"Delta":15942920},{"NoteNumber":43,"Velocity":32,"Duration":130947,"SoundDuration":130947,"Delta":15942920},{"NoteNumber":67,"Velocity":47,"Duration":127064,"SoundDuration":127064,"Delta":16073868},{"NoteNumber":61,"Velocity":39,"Duration":127064,"SoundDuration":127064,"Delta":16073868},{"NoteNumber":45,"Velocity":37,"Duration":127064,"SoundDuration":127064,"Delta":16073868},{"NoteNumber":66,"Velocity":46,"Duration":98640,"SoundDuration":98640,"Delta":16200932},{"NoteNumber":57,"Velocity":37,"Duration":98640,"SoundDuration":98640,"Delta":16200932},{"NoteNumber":62,"Velocity":56,"Duration":133076,"SoundDuration":133076,"Delta":16332454},{"NoteNumber":54,"Velocity":41,"Duration":133076,"SoundDuration":133076,"Delta":16332454},{"NoteNumber":74,"Velocity":51,"Duration":130758,"SoundDuration":130758,"Delta":16465530},{"NoteNumber":47,"Velocity":36,"Duration":130758,"SoundDuration":130758,"Delta":16465530},{"NoteNumber":66,"Velocity":51,"Duration":129254,"SoundDuration":129254,"Delta":16596288},{"NoteNumber":62,"Velocity":36,"Duration":129254,"SoundDuration":129254,"Delta":16596288},{"NoteNumber":69,"Velocity":51,"Duration":129254,"SoundDuration":129254,"Delta":16725543},{"NoteNumber":53,"Velocity":36,"Duration":129254,"SoundDuration":129254,"Delta":16725543},{"NoteNumber":68,"Velocity":45,"Duration":125986,"SoundDuration":125986,"Delta":16854797},{"NoteNumber":72,"Velocity":53,"Duration":125986,"SoundDuration":125986,"Delta":16854797},{"NoteNumber":52,"Velocity":42,"Duration":125986,"SoundDuration":125986,"Delta":16854797},{"NoteNumber":71,"Velocity":51,"Duration":99075,"SoundDuration":99075,"Delta":16980784},{"NoteNumber":62,"Velocity":36,"Duration":99075,"SoundDuration":99075,"Delta":16980784},{"NoteNumber":64,"Velocity":58,"Duration":127396,"SoundDuration":127396,"Delta":17112115},{"NoteNumber":60,"Velocity":48,"Duration":127396,"SoundDuration":127396,"Delta":17112115},{"NoteNumber":69,"Velocity":54,"Duration":126150,"SoundDuration":126150,"Delta":17239511},{"NoteNumber":57,"Velocity":41,"Duration":126150,"SoundDuration":126150,"Delta":17239511},{"NoteNumber":65,"Velocity":54,"Duration":124867,"SoundDuration":124867,"Delta":17365661},{"NoteNumber":62,"Velocity":39,"Duration":124867,"SoundDuration":124867,"Delta":17365661},{"NoteNumber":69,"Velocity":54,"Duration":123904,"SoundDuration":123904,"Delta":17490529},{"NoteNumber":50,"Velocity":39,"Duration":123904,"SoundDuration":123904,"Delta":17490529},{"NoteNumber":68,"Velocity":50,"Duration":122438,"SoundDuration":122438,"Delta":17614433},{"NoteNumber":72,"Velocity":59,"Duration":122438,"SoundDuration":122438,"Delta":17614433},{"NoteNumber":52,"Velocity":42,"Duration":122438,"SoundDuration":122438,"Delta":17614433},{"NoteNumber":71,"Velocity":56,"Duration":99513,"SoundDuration":99513,"Delta":17736872},{"NoteNumber":62,"Velocity":37,"Duration":99513,"SoundDuration":99513,"Delta":17736872},{"NoteNumber":69,"Velocity":62,"Duration":125337,"SoundDuration":125337,"Delta":17868240},{"NoteNumber":61,"Velocity":49,"Duration":125337,"SoundDuration":125337,"Delta":17868240},{"NoteNumber":76,"Velocity":52,"Duration":124663,"SoundDuration":124663,"Delta":17993578},{"NoteNumber":60,"Velocity":39,"Duration":124663,"SoundDuration":124663,"Delta":17993578},{"NoteNumber":64,"Velocity":60,"Duration":123988,"SoundDuration":123988,"Delta":18118241},{"NoteNumber":54,"Velocity":41,"Duration":123988,"SoundDuration":123988,"Delta":18118241},{"NoteNumber":69,"Velocity":57,"Duration":123208,"SoundDuration":123208,"Delta":18242229},{"NoteNumber":45,"Velocity":41,"Duration":123208,"SoundDuration":123208,"Delta":18242229},{"NoteNumber":63,"Velocity":50,"Duration":120147,"SoundDuration":120147,"Delta":18365438},{"NoteNumber":72,"Velocity":59,"Duration":120147,"SoundDuration":120147,"Delta":18365438},{"NoteNumber":47,"Velocity":46,"Duration":120147,"SoundDuration":120147,"Delta":18365438},{"NoteNumber":71,"Velocity":60,"Duration":100229,"SoundDuration":100229,"Delta":18485585},{"NoteNumber":57,"Velocity":40,"Duration":100229,"SoundDuration":100229,"Delta":18485585},{"NoteNumber":59,"Velocity":66,"Duration":126092,"SoundDuration":126092,"Delta":18617995},{"NoteNumber":55,"Velocity":49,"Duration":126092,"SoundDuration":126092,"Delta":18617995},{"NoteNumber":64,"Velocity":57,"Duration":125055,"SoundDuration":125055,"Delta":18744087},{"NoteNumber":40,"Velocity":45,"Duration":125055,"SoundDuration":125055,"Delta":18744087},{"NoteNumber":60,"Velocity":58,"Duration":124378,"SoundDuration":124378,"Delta":18869143},{"NoteNumber":45,"Velocity":48,"Duration":124378,"SoundDuration":124378,"Delta":18869143},{"NoteNumber":64,"Velocity":57,"Duration":123706,"SoundDuration":123706,"Delta":18993521},{"NoteNumber":57,"Velocity":44,"Duration":123706,"SoundDuration":123706,"Delta":18993521},{"NoteNumber":67,"Velocity":64,"Duration":120818,"SoundDuration":120818,"Delta":19117228},{"NoteNumber":63,"Velocity":54,"Duration":120818,"SoundDuration":120818,"Delta":19117228},{"NoteNumber":47,"Velocity":49,"Duration":120818,"SoundDuration":120818,"Delta":19117228},{"NoteNumber":66,"Velocity":63,"Duration":97352,"SoundDuration":97352,"Delta":19238046},{"NoteNumber":57,"Velocity":47,"Duration":97352,"SoundDuration":97352,"Delta":19238046},{"NoteNumber":64,"Velocity":69,"Duration":125224,"SoundDuration":125224,"Delta":19367060},{"NoteNumber":55,"Velocity":51,"Duration":125224,"SoundDuration":125224,"Delta":19367060},{"NoteNumber":76,"Velocity":61,"Duration":124208,"SoundDuration":124208,"Delta":19492285},{"NoteNumber":52,"Velocity":46,"Duration":124208,"SoundDuration":124208,"Delta":19492285},{"NoteNumber":67,"Velocity":64,"Duration":123209,"SoundDuration":123209,"Delta":19616494},{"NoteNumber":64,"Velocity":46,"Duration":123209,"SoundDuration":123209,"Delta":19616494},{"NoteNumber":71,"Velocity":64,"Duration":127471,"SoundDuration":127471,"Delta":19739703},{"NoteNumber":55,"Velocity":46,"Duration":127471,"SoundDuration":127471,"Delta":19739703},{"NoteNumber":70,"Velocity":58,"Duration":121852,"SoundDuration":121852,"Delta":19867175},{"NoteNumber":74,"Velocity":70,"Duration":121852,"SoundDuration":121852,"Delta":19867175},{"NoteNumber":54,"Velocity":51,"Duration":121852,"SoundDuration":121852,"Delta":19867175},{"NoteNumber":73,"Velocity":64,"Duration":96112,"SoundDuration":96112,"Delta":19989027},{"NoteNumber":64,"Velocity":46,"Duration":96112,"SoundDuration":96112,"Delta":19989027},{"NoteNumber":71,"Velocity":77,"Duration":127404,"SoundDuration":127404,"Delta":20117177},{"NoteNumber":62,"Velocity":55,"Duration":127404,"SoundDuration":127404,"Delta":20117177},{"NoteNumber":66,"Velocity":63,"Duration":124273,"SoundDuration":124273,"Delta":20244582},{"NoteNumber":47,"Velocity":56,"Duration":124273,"SoundDuration":124273,"Delta":20244582},{"NoteNumber":67,"Velocity":70,"Duration":122438,"SoundDuration":122438,"Delta":20368855},{"NoteNumber":52,"Velocity":49,"Duration":122438,"SoundDuration":122438,"Delta":20368855},{"NoteNumber":71,"Velocity":72,"Duration":128347,"SoundDuration":128347,"Delta":20491294},{"NoteNumber":64,"Velocity":52,"Duration":128347,"SoundDuration":128347,"Delta":20491294},{"NoteNumber":70,"Velocity":64,"Duration":121745,"SoundDuration":121745,"Delta":20619642},{"NoteNumber":74,"Velocity":76,"Duration":121745,"SoundDuration":121745,"Delta":20619642},{"NoteNumber":54,"Velocity":55,"Duration":121745,"SoundDuration":121745,"Delta":20619642},{"NoteNumber":73,"Velocity":77,"Duration":96516,"SoundDuration":96516,"Delta":20741388},{"NoteNumber":64,"Velocity":52,"Duration":96516,"SoundDuration":96516,"Delta":20741388},{"NoteNumber":71,"Velocity":86,"Duration":126428,"SoundDuration":126428,"Delta":20870323},{"NoteNumber":62,"Velocity":59,"Duration":126428,"SoundDuration":126428,"Delta":20870323},{"NoteNumber":83,"Velocity":80,"Duration":124832,"SoundDuration":124832,"Delta":20996752},{"NoteNumber":53,"Velocity":52,"Duration":124832,"SoundDuration":124832,"Delta":20996752},{"NoteNumber":80,"Velocity":82,"Duration":123104,"SoundDuration":123104,"Delta":21121584},{"NoteNumber":59,"Velocity":54,"Duration":123104,"SoundDuration":123104,"Delta":21121584},{"NoteNumber":74,"Velocity":83,"Duration":127957,"SoundDuration":127957,"Delta":21244688},{"NoteNumber":68,"Velocity":55,"Duration":127957,"SoundDuration":127957,"Delta":21244688},{"NoteNumber":73,"Velocity":92,"Duration":122206,"SoundDuration":122206,"Delta":21372646},{"NoteNumber":61,"Velocity":62,"Duration":122206,"SoundDuration":122206,"Delta":21372646},{"NoteNumber":71,"Velocity":85,"Duration":132100,"SoundDuration":132100,"Delta":21494853},{"NoteNumber":62,"Velocity":54,"Duration":132100,"SoundDuration":132100,"Delta":21494853},{"NoteNumber":69,"Velocity":92,"Duration":129957,"SoundDuration":129957,"Delta":21626954},{"NoteNumber":54,"Velocity":62,"Duration":129957,"SoundDuration":129957,"Delta":21626954},{"NoteNumber":74,"Velocity":77,"Duration":64672,"SoundDuration":64672,"Delta":21756911},{"NoteNumber":62,"Velocity":44,"Duration":64672,"SoundDuration":64672,"Delta":21756911},{"NoteNumber":67,"Velocity":86,"Duration":128347,"SoundDuration":128347,"Delta":21885955},{"NoteNumber":58,"Velocity":53,"Duration":128347,"SoundDuration":128347,"Delta":21885955},{"NoteNumber":76,"Velocity":76,"Duration":64173,"SoundDuration":64173,"Delta":22014303},{"NoteNumber":43,"Velocity":42,"Duration":64173,"SoundDuration":64173,"Delta":22014303},{"NoteNumber":61,"Velocity":83,"Duration":128645,"SoundDuration":128645,"Delta":22142651},{"NoteNumber":57,"Velocity":53,"Duration":128645,"SoundDuration":128645,"Delta":22142651},{"NoteNumber":78,"Velocity":75,"Duration":64672,"SoundDuration":64672,"Delta":22271297},{"NoteNumber":45,"Velocity":42,"Duration":64672,"SoundDuration":64672,"Delta":22271297},{"NoteNumber":66,"Velocity":91,"Duration":130163,"SoundDuration":130163,"Delta":22400844},{"NoteNumber":38,"Velocity":57,"Duration":130163,"SoundDuration":130163,"Delta":22400844},{"NoteNumber":74,"Velocity":73,"Duration":64875,"SoundDuration":64875,"Delta":22531007},{"NoteNumber":57,"Velocity":42,"Duration":64875,"SoundDuration":64875,"Delta":22531007},{"NoteNumber":67,"Velocity":80,"Duration":129043,"SoundDuration":129043,"Delta":22660655},{"NoteNumber":58,"Velocity":51,"Duration":129043,"SoundDuration":129043,"Delta":22660655},{"NoteNumber":76,"Velocity":72,"Duration":64471,"SoundDuration":64471,"Delta":22789699},{"NoteNumber":43,"Velocity":41,"Duration":64471,"SoundDuration":64471,"Delta":22789699},{"NoteNumber":61,"Velocity":78,"Duration":129550,"SoundDuration":129550,"Delta":22918643},{"NoteNumber":57,"Velocity":50,"Duration":129550,"SoundDuration":129550,"Delta":22918643},{"NoteNumber":78,"Velocity":67,"Duration":65489,"SoundDuration":65489,"Delta":23048193},{"NoteNumber":45,"Velocity":40,"Duration":65489,"SoundDuration":65489,"Delta":23048193},{"NoteNumber":66,"Velocity":78,"Duration":139880,"SoundDuration":139880,"Delta":23181090},{"NoteNumber":38,"Velocity":55,"Duration":139880,"SoundDuration":139880,"Delta":23181090},{"NoteNumber":74,"Velocity":63,"Duration":69412,"SoundDuration":69412,"Delta":23320970},{"NoteNumber":57,"Velocity":40,"Duration":69412,"SoundDuration":69412,"Delta":23320970},{"NoteNumber":67,"Velocity":72,"Duration":137371,"SoundDuration":137371,"Delta":23459451},{"NoteNumber":58,"Velocity":48,"Duration":137371,"SoundDuration":137371,"Delta":23459451},{"NoteNumber":76,"Velocity":58,"Duration":68182,"SoundDuration":68182,"Delta":23596822},{"NoteNumber":43,"Velocity":37,"Duration":68182,"SoundDuration":68182,"Delta":23596822},{"NoteNumber":61,"Velocity":66,"Duration":138056,"SoundDuration":138056,"Delta":23732847},{"NoteNumber":57,"Velocity":43,"Duration":138056,"SoundDuration":138056,"Delta":23732847},{"NoteNumber":78,"Velocity":59,"Duration":70253,"SoundDuration":70253,"Delta":23870903},{"NoteNumber":45,"Velocity":33,"Duration":70253,"SoundDuration":70253,"Delta":23870903},{"NoteNumber":66,"Velocity":65,"Duration":146492,"SoundDuration":146492,"Delta":24012503},{"NoteNumber":38,"Velocity":44,"Duration":146492,"SoundDuration":146492,"Delta":24012503},{"NoteNumber":74,"Velocity":55,"Duration":72359,"SoundDuration":72359,"Delta":24158996},{"NoteNumber":57,"Velocity":36,"Duration":72359,"SoundDuration":72359,"Delta":24158996},{"NoteNumber":67,"Velocity":55,"Duration":142181,"SoundDuration":142181,"Delta":24303188},{"NoteNumber":58,"Velocity":38,"Duration":142181,"SoundDuration":142181,"Delta":24303188},{"NoteNumber":76,"Velocity":48,"Duration":71494,"SoundDuration":71494,"Delta":24445370},{"NoteNumber":43,"Velocity":32,"Duration":71494,"SoundDuration":71494,"Delta":24445370},{"NoteNumber":61,"Velocity":50,"Duration":145168,"SoundDuration":145168,"Delta":24588876},{"NoteNumber":57,"Velocity":36,"Duration":145168,"SoundDuration":145168,"Delta":24588876},{"NoteNumber":78,"Velocity":43,"Duration":73321,"SoundDuration":73321,"Delta":24734044},{"NoteNumber":45,"Velocity":29,"Duration":73321,"SoundDuration":73321,"Delta":24734044},{"NoteNumber":66,"Velocity":45,"Duration":139863,"SoundDuration":139863,"Delta":24881071},{"NoteNumber":38,"Velocity":33,"Duration":139863,"SoundDuration":139863,"Delta":24881071},{"NoteNumber":74,"Velocity":39,"Duration":137918,"SoundDuration":137918,"Delta":25020934},{"NoteNumber":45,"Velocity":33,"Duration":137918,"SoundDuration":137918,"Delta":25020934},{"NoteNumber":62,"Velocity":30,"Duration":135528,"SoundDuration":135528,"Delta":25158852},{"NoteNumber":57,"Velocity":37,"Duration":135528,"SoundDuration":135528,"Delta":25158852},{"NoteNumber":70,"Velocity":49,"Duration":268701,"SoundDuration":268701,"Delta":25294381},{"NoteNumber":45,"Velocity":33,"Duration":134775,"SoundDuration":134775,"Delta":25294381},{"NoteNumber":76,"Velocity":42,"Duration":133925,"SoundDuration":133925,"Delta":25429156},{"NoteNumber":38,"Velocity":35,"Duration":133925,"SoundDuration":133925,"Delta":25429156},{"NoteNumber":69,"Velocity":44,"Duration":133083,"SoundDuration":133083,"Delta":25563082},{"NoteNumber":45,"Velocity":31,"Duration":133083,"SoundDuration":133083,"Delta":25563082},{"NoteNumber":62,"Velocity":38,"Duration":125792,"SoundDuration":125792,"Delta":25696166},{"NoteNumber":57,"Velocity":41,"Duration":125792,"SoundDuration":125792,"Delta":25696166},{"NoteNumber":67,"Velocity":56,"Duration":249433,"SoundDuration":249433,"Delta":25821958},{"NoteNumber":45,"Velocity":35,"Duration":125055,"SoundDuration":125055,"Delta":25821958},{"NoteNumber":74,"Velocity":45,"Duration":62246,"SoundDuration":62246,"Delta":25947013},{"NoteNumber":38,"Velocity":41,"Duration":62246,"SoundDuration":62246,"Delta":25947013},{"NoteNumber":66,"Velocity":52,"Duration":252251,"SoundDuration":252251,"Delta":26071392},{"NoteNumber":45,"Velocity":37,"Duration":124100,"SoundDuration":124100,"Delta":26071392},{"NoteNumber":62,"Velocity":50,"Duration":128150,"SoundDuration":128150,"Delta":26195493},{"NoteNumber":57,"Velocity":46,"Duration":128150,"SoundDuration":128150,"Delta":26195493},{"NoteNumber":70,"Velocity":60,"Duration":246343,"SoundDuration":246343,"Delta":26323643},{"NoteNumber":45,"Velocity":36,"Duration":123904,"SoundDuration":123904,"Delta":26323643},{"NoteNumber":74,"Velocity":51,"Duration":61219,"SoundDuration":61219,"Delta":26447548},{"NoteNumber":38,"Velocity":46,"Duration":122438,"SoundDuration":122438,"Delta":26447548},{"NoteNumber":69,"Velocity":58,"Duration":244398,"SoundDuration":244398,"Delta":26569987},{"NoteNumber":45,"Velocity":39,"Duration":61219,"SoundDuration":61219,"Delta":26569987},{"NoteNumber":62,"Velocity":57,"Duration":121959,"SoundDuration":121959,"Delta":26692426},{"NoteNumber":57,"Velocity":49,"Duration":121959,"SoundDuration":121959,"Delta":26692426},{"NoteNumber":67,"Velocity":70,"Duration":243221,"SoundDuration":243221,"Delta":26814386},{"NoteNumber":45,"Velocity":43,"Duration":121852,"SoundDuration":121852,"Delta":26814386},{"NoteNumber":74,"Velocity":57,"Duration":60738,"SoundDuration":60738,"Delta":26936238},{"NoteNumber":38,"Velocity":50,"Duration":60738,"SoundDuration":60738,"Delta":26936238},{"NoteNumber":66,"Velocity":63,"Duration":121260,"SoundDuration":121260,"Delta":27057607},{"NoteNumber":45,"Velocity":45,"Duration":121260,"SoundDuration":121260,"Delta":27057607},{"NoteNumber":62,"Velocity":69,"Duration":123004,"SoundDuration":123004,"Delta":27178868},{"NoteNumber":57,"Velocity":53,"Duration":123004,"SoundDuration":123004,"Delta":27178868},{"NoteNumber":70,"Velocity":77,"Duration":253231,"SoundDuration":253231,"Delta":27301873},{"NoteNumber":45,"Velocity":45,"Duration":125668,"SoundDuration":125668,"Delta":27301873},{"NoteNumber":74,"Velocity":70,"Duration":63544,"SoundDuration":63544,"Delta":27427542},{"NoteNumber":38,"Velocity":45,"Duration":63544,"SoundDuration":63544,"Delta":27427542},{"NoteNumber":69,"Velocity":83,"Duration":261245,"SoundDuration":261245,"Delta":27555105},{"NoteNumber":45,"Velocity":46,"Duration":129719,"SoundDuration":129719,"Delta":27555105},{"NoteNumber":62,"Velocity":91,"Duration":131526,"SoundDuration":131526,"Delta":27684824},{"NoteNumber":57,"Velocity":63,"Duration":131526,"SoundDuration":131526,"Delta":27684824},{"NoteNumber":74,"Velocity":96,"Duration":144175,"SoundDuration":144175,"Delta":27816351},{"NoteNumber":45,"Velocity":58,"Duration":144175,"SoundDuration":144175,"Delta":27816351},{"NoteNumber":90,"Velocity":108,"Duration":134468,"SoundDuration":134468,"Delta":27960526},{"NoteNumber":38,"Velocity":79,"Duration":134468,"SoundDuration":134468,"Delta":27960526},{"NoteNumber":45,"Velocity":46,"Duration":235320,"SoundDuration":235320,"Delta":28599253},{"NoteNumber":52,"Velocity":51,"Duration":201703,"SoundDuration":201703,"Delta":28632870},{"NoteNumber":61,"Velocity":60,"Duration":168085,"SoundDuration":168085,"Delta":28666487},{"NoteNumber":67,"Velocity":79,"Duration":201703,"SoundDuration":201703,"Delta":28700104},{"NoteNumber":76,"Velocity":86,"Duration":168085,"SoundDuration":168085,"Delta":28733721},{"NoteNumber":81,"Velocity":93,"Duration":134468,"SoundDuration":134468,"Delta":28767339},{"NoteNumber":38,"Velocity":58,"Duration":67234,"SoundDuration":67234,"Delta":29506917},{"NoteNumber":66,"Velocity":86,"Duration":134468,"SoundDuration":134468,"Delta":29574151},{"NoteNumber":74,"Velocity":86,"Duration":134468,"SoundDuration":134468,"Delta":29574151},{"NoteNumber":78,"Velocity":101,"Duration":134468,"SoundDuration":134468,"Delta":29574151},{"NoteNumber":57,"Velocity":51,"Duration":67234,"SoundDuration":67234,"Delta":29574151},{"NoteNumber":50,"Velocity":51,"Duration":67234,"SoundDuration":67234,"Delta":29574151},{"NoteNumber":62,"Velocity":60,"Duration":67234,"SoundDuration":67234,"Delta":29574151}],"license":{"name":"Creative Commons Attribution-ShareAlike 3.0 Germany","url":"http://creativecommons.org/licenses/by-sa/3.0/de/deed.en","text":"The MIDI files in this folder were downloaded from http://www.piano-midi.de and are licensed under the Creative Commons Attribution-ShareAlike 3.0 Germany license by Bernd Krueger.\n\nThe MIDI, audio(MP3, OGG) and video files of Bernd Krueger are licensed under the cc-by-sa Germany License . This means, that you can use and adapt the files, as long as you attribute to the copyright holder Name: Bernd Krueger Source: http://www.piano-midi.de The distribution or public playback of the files is only allowed under identical license conditions . The scores are open source.","attribution":"Bernd Krueger","attributionUrl":"http://www.piano-midi.de"}}