{"title":"Prelude No. 11","artist":"Chopin","durationMs":30241,"midiSha256":"dac2e74b0e9383c4d3efdad7f44a2545ceb180a5d8ef0d8cabe632c29e8dc916","midiObject":[{"NoteNumber":78,"Velocity":55,"Duration":1627558,"SoundDuration":1627558,"Delta":0},{"NoteNumber":77,"Velocity":48,"Duration":187500,"SoundDuration":187500,"Delta":1624434},{"NoteNumber":78,"Velocity":53,"Duration":183967,"SoundDuration":183967,"Delta":1811934},{"NoteNumber":80,"Velocity":57,"Duration":166571,"SoundDuration":166571,"Delta":1995901},{"NoteNumber":78,"Velocity":55,"Duration":163987,"SoundDuration":163987,"Delta":2162473},{"NoteNumber":76,"Velocity":52,"Duration":161548,"SoundDuration":161548,"Delta":2326461},{"NoteNumber":75,"Velocity":49,"Duration":186532,"SoundDuration":186532,"Delta":2488009},{"NoteNumber":64,"Velocity":39,"Duration":180722,"SoundDuration":180722,"Delta":2674541},{"NoteNumber":73,"Velocity":47,"Duration":180722,"SoundDuration":180722,"Delta":2674541},{"NoteNumber":58,"Velocity":33,"Duration":180722,"SoundDuration":180722,"Delta":2674541},{"NoteNumber":66,"Velocity":40,"Duration":90361,"SoundDuration":90361,"Delta":2855264},{"NoteNumber":54,"Velocity":31,"Duration":180722,"SoundDuration":180722,"Delta":2855264},{"NoteNumber":70,"Velocity":36,"Duration":90361,"SoundDuration":90361,"Delta":2945626},{"NoteNumber":68,"Velocity":46,"Duration":175234,"SoundDuration":175234,"Delta":3035987},{"NoteNumber":49,"Velocity":34,"Duration":175234,"SoundDuration":175234,"Delta":3035987},{"NoteNumber":66,"Velocity":42,"Duration":161693,"SoundDuration":161693,"Delta":3211222},{"NoteNumber":42,"Velocity":31,"Duration":179921,"SoundDuration":179921,"Delta":3211222},{"NoteNumber":66,"Velocity":41,"Duration":160599,"SoundDuration":160599,"Delta":3391144},{"NoteNumber":49,"Velocity":33,"Duration":160599,"SoundDuration":160599,"Delta":3391144},{"NoteNumber":75,"Velocity":41,"Duration":160599,"SoundDuration":160599,"Delta":3551744},{"NoteNumber":54,"Velocity":33,"Duration":160599,"SoundDuration":160599,"Delta":3551744},{"NoteNumber":64,"Velocity":39,"Duration":172910,"SoundDuration":172910,"Delta":3712343},{"NoteNumber":73,"Velocity":47,"Duration":172910,"SoundDuration":172910,"Delta":3712343},{"NoteNumber":58,"Velocity":36,"Duration":172910,"SoundDuration":172910,"Delta":3712343},{"NoteNumber":66,"Velocity":44,"Duration":86455,"SoundDuration":86455,"Delta":3885254},{"NoteNumber":54,"Velocity":33,"Duration":172910,"SoundDuration":172910,"Delta":3885254},{"NoteNumber":70,"Velocity":33,"Duration":86455,"SoundDuration":86455,"Delta":3971709},{"NoteNumber":68,"Velocity":45,"Duration":165231,"SoundDuration":165231,"Delta":4058164},{"NoteNumber":49,"Velocity":33,"Duration":165231,"SoundDuration":165231,"Delta":4058164},{"NoteNumber":66,"Velocity":43,"Duration":154171,"SoundDuration":154171,"Delta":4223396},{"NoteNumber":42,"Velocity":33,"Duration":172093,"SoundDuration":172093,"Delta":4223396},{"NoteNumber":66,"Velocity":43,"Duration":162162,"SoundDuration":162162,"Delta":4395490},{"NoteNumber":49,"Velocity":33,"Duration":162162,"SoundDuration":162162,"Delta":4395490},{"NoteNumber":75,"Velocity":43,"Duration":162161,"SoundDuration":162161,"Delta":4557652},{"NoteNumber":54,"Velocity":33,"Duration":162161,"SoundDuration":162161,"Delta":4557652},{"NoteNumber":64,"Velocity":40,"Duration":159939,"SoundDuration":159939,"Delta":4719814},{"NoteNumber":73,"Velocity":48,"Duration":159939,"SoundDuration":159939,"Delta":4719814},{"NoteNumber":47,"Velocity":39,"Duration":159939,"SoundDuration":159939,"Delta":4719814},{"NoteNumber":66,"Velocity":52,"Duration":158443,"SoundDuration":158443,"Delta":4879753},{"NoteNumber":54,"Velocity":35,"Duration":158443,"SoundDuration":158443,"Delta":4879753},{"NoteNumber":63,"Velocity":59,"Duration":157115,"SoundDuration":157115,"Delta":5038197},{"NoteNumber":71,"Velocity":59,"Duration":157115,"SoundDuration":157115,"Delta":5038197},{"NoteNumber":47,"Velocity":43,"Duration":157115,"SoundDuration":157115,"Delta":5038197},{"NoteNumber":66,"Velocity":56,"Duration":155691,"SoundDuration":155691,"Delta":5195313},{"NoteNumber":54,"Velocity":38,"Duration":155691,"SoundDuration":155691,"Delta":5195313},{"NoteNumber":71,"Velocity":51,"Duration":154409,"SoundDuration":154409,"Delta":5351004},{"NoteNumber":75,"Velocity":60,"Duration":154409,"SoundDuration":154409,"Delta":5351004},{"NoteNumber":51,"Velocity":44,"Duration":154409,"SoundDuration":154409,"Delta":5351004},{"NoteNumber":66,"Velocity":56,"Duration":156658,"SoundDuration":156658,"Delta":5505414},{"NoteNumber":59,"Velocity":40,"Duration":156658,"SoundDuration":156658,"Delta":5505414},{"NoteNumber":71,"Velocity":45,"Duration":150884,"SoundDuration":150884,"Delta":5662072},{"NoteNumber":77,"Velocity":53,"Duration":150884,"SoundDuration":150884,"Delta":5662072},{"NoteNumber":63,"Velocity":32,"Duration":150884,"SoundDuration":150884,"Delta":5662072},{"NoteNumber":66,"Velocity":47,"Duration":152185,"SoundDuration":152185,"Delta":5812956},{"NoteNumber":78,"Velocity":56,"Duration":152185,"SoundDuration":152185,"Delta":5812956},{"NoteNumber":54,"Velocity":33,"Duration":152185,"SoundDuration":152185,"Delta":5812956},{"NoteNumber":80,"Velocity":62,"Duration":153831,"SoundDuration":153831,"Delta":5965142},{"NoteNumber":71,"Velocity":52,"Duration":153831,"SoundDuration":153831,"Delta":5965142},{"NoteNumber":59,"Velocity":39,"Duration":153831,"SoundDuration":153831,"Delta":5965142},{"NoteNumber":66,"Velocity":48,"Duration":155514,"SoundDuration":155514,"Delta":6118973},{"NoteNumber":78,"Velocity":57,"Duration":155514,"SoundDuration":155514,"Delta":6118973},{"NoteNumber":51,"Velocity":33,"Duration":155514,"SoundDuration":155514,"Delta":6118973},{"NoteNumber":71,"Velocity":46,"Duration":157171,"SoundDuration":157171,"Delta":6274488},{"NoteNumber":76,"Velocity":55,"Duration":157171,"SoundDuration":157171,"Delta":6274488},{"NoteNumber":54,"Velocity":36,"Duration":157171,"SoundDuration":157171,"Delta":6274488},{"NoteNumber":66,"Velocity":45,"Duration":158113,"SoundDuration":158113,"Delta":6431659},{"NoteNumber":75,"Velocity":53,"Duration":158113,"SoundDuration":158113,"Delta":6431659},{"NoteNumber":47,"Velocity":33,"Duration":158113,"SoundDuration":158113,"Delta":6431659},{"NoteNumber":64,"Velocity":48,"Duration":169013,"SoundDuration":169013,"Delta":6589773},{"NoteNumber":73,"Velocity":57,"Duration":169013,"SoundDuration":169013,"Delta":6589773},{"NoteNumber":58,"Velocity":40,"Duration":169013,"SoundDuration":169013,"Delta":6589773},{"NoteNumber":66,"Velocity":56,"Duration":84507,"SoundDuration":84507,"Delta":6758787},{"NoteNumber":54,"Velocity":37,"Duration":169014,"SoundDuration":169014,"Delta":6758787},{"NoteNumber":70,"Velocity":43,"Duration":84507,"SoundDuration":84507,"Delta":6843294},{"NoteNumber":68,"Velocity":55,"Duration":162162,"SoundDuration":162162,"Delta":6927801},{"NoteNumber":49,"Velocity":40,"Duration":162162,"SoundDuration":162162,"Delta":6927801},{"NoteNumber":66,"Velocity":52,"Duration":145945,"SoundDuration":145945,"Delta":7089963},{"NoteNumber":42,"Velocity":36,"Duration":162161,"SoundDuration":162161,"Delta":7089963},{"NoteNumber":66,"Velocity":52,"Duration":159235,"SoundDuration":159235,"Delta":7252125},{"NoteNumber":49,"Velocity":36,"Duration":159235,"SoundDuration":159235,"Delta":7252125},{"NoteNumber":75,"Velocity":52,"Duration":159235,"SoundDuration":159235,"Delta":7411361},{"NoteNumber":54,"Velocity":36,"Duration":159235,"SoundDuration":159235,"Delta":7411361},{"NoteNumber":64,"Velocity":49,"Duration":161290,"SoundDuration":161290,"Delta":7570596},{"NoteNumber":73,"Velocity":58,"Duration":161290,"SoundDuration":161290,"Delta":7570596},{"NoteNumber":58,"Velocity":40,"Duration":161290,"SoundDuration":161290,"Delta":7570596},{"NoteNumber":66,"Velocity":55,"Duration":80645,"SoundDuration":80645,"Delta":7731887},{"NoteNumber":54,"Velocity":34,"Duration":161290,"SoundDuration":161290,"Delta":7731887},{"NoteNumber":70,"Velocity":41,"Duration":80645,"SoundDuration":80645,"Delta":7812532},{"NoteNumber":68,"Velocity":52,"Duration":161290,"SoundDuration":161290,"Delta":7893177},{"NoteNumber":49,"Velocity":38,"Duration":161290,"SoundDuration":161290,"Delta":7893177},{"NoteNumber":66,"Velocity":51,"Duration":145161,"SoundDuration":145161,"Delta":8054468},{"NoteNumber":42,"Velocity":35,"Duration":161290,"SoundDuration":161290,"Delta":8054468},{"NoteNumber":66,"Velocity":51,"Duration":159235,"SoundDuration":159235,"Delta":8215758},{"NoteNumber":49,"Velocity":38,"Duration":159235,"SoundDuration":159235,"Delta":8215758},{"NoteNumber":75,"Velocity":51,"Duration":159235,"SoundDuration":159235,"Delta":8374994},{"NoteNumber":54,"Velocity":32,"Duration":159235,"SoundDuration":159235,"Delta":8374994},{"NoteNumber":64,"Velocity":51,"Duration":161290,"SoundDuration":161290,"Delta":8534229},{"NoteNumber":73,"Velocity":61,"Duration":161290,"SoundDuration":161290,"Delta":8534229},{"NoteNumber":47,"Velocity":41,"Duration":161290,"SoundDuration":161290,"Delta":8534229},{"NoteNumber":66,"Velocity":56,"Duration":161290,"SoundDuration":161290,"Delta":8695520},{"NoteNumber":54,"Velocity":37,"Duration":161290,"SoundDuration":161290,"Delta":8695520},{"NoteNumber":63,"Velocity":54,"Duration":160857,"SoundDuration":160857,"Delta":8856810},{"NoteNumber":71,"Velocity":64,"Duration":160857,"SoundDuration":160857,"Delta":8856810},{"NoteNumber":47,"Velocity":45,"Duration":160857,"SoundDuration":160857,"Delta":8856810},{"NoteNumber":66,"Velocity":59,"Duration":160392,"SoundDuration":160392,"Delta":9017668},{"NoteNumber":54,"Velocity":36,"Duration":160392,"SoundDuration":160392,"Delta":9017668},{"NoteNumber":71,"Velocity":56,"Duration":159964,"SoundDuration":159964,"Delta":9178060},{"NoteNumber":75,"Velocity":67,"Duration":159964,"SoundDuration":159964,"Delta":9178060},{"NoteNumber":51,"Velocity":48,"Duration":159964,"SoundDuration":159964,"Delta":9178060},{"NoteNumber":66,"Velocity":62,"Duration":159539,"SoundDuration":159539,"Delta":9338025},{"NoteNumber":59,"Velocity":39,"Duration":159539,"SoundDuration":159539,"Delta":9338025},{"NoteNumber":71,"Velocity":59,"Duration":159115,"SoundDuration":159115,"Delta":9497564},{"NoteNumber":78,"Velocity":70,"Duration":159115,"SoundDuration":159115,"Delta":9497564},{"NoteNumber":63,"Velocity":48,"Duration":159115,"SoundDuration":159115,"Delta":9497564},{"NoteNumber":66,"Velocity":66,"Duration":158660,"SoundDuration":158660,"Delta":9656680},{"NoteNumber":54,"Velocity":39,"Duration":158660,"SoundDuration":158660,"Delta":9656680},{"NoteNumber":79,"Velocity":74,"Duration":159574,"SoundDuration":159574,"Delta":9815340},{"NoteNumber":71,"Velocity":62,"Duration":159574,"SoundDuration":159574,"Delta":9815340},{"NoteNumber":61,"Velocity":52,"Duration":159574,"SoundDuration":159574,"Delta":9815340},{"NoteNumber":67,"Velocity":69,"Duration":159574,"SoundDuration":159574,"Delta":9974915},{"NoteNumber":52,"Velocity":48,"Duration":159574,"SoundDuration":159574,"Delta":9974915},{"NoteNumber":80,"Velocity":76,"Duration":162162,"SoundDuration":162162,"Delta":10134489},{"NoteNumber":71,"Velocity":64,"Duration":162162,"SoundDuration":162162,"Delta":10134489},{"NoteNumber":59,"Velocity":53,"Duration":162162,"SoundDuration":162162,"Delta":10134489},{"NoteNumber":68,"Velocity":70,"Duration":162162,"SoundDuration":162162,"Delta":10296651},{"NoteNumber":51,"Velocity":49,"Duration":162162,"SoundDuration":162162,"Delta":10296651},{"NoteNumber":75,"Velocity":64,"Duration":155039,"SoundDuration":155039,"Delta":10458813},{"NoteNumber":83,"Velocity":76,"Duration":155039,"SoundDuration":155039,"Delta":10458813},{"NoteNumber":44,"Velocity":54,"Duration":155039,"SoundDuration":155039,"Delta":10458813},{"NoteNumber":75,"Velocity":66,"Duration":77519,"SoundDuration":77519,"Delta":10613852},{"NoteNumber":51,"Velocity":47,"Duration":155039,"SoundDuration":155039,"Delta":10613852},{"NoteNumber":78,"Velocity":46,"Duration":77519,"SoundDuration":77519,"Delta":10691372},{"NoteNumber":76,"Velocity":70,"Duration":148148,"SoundDuration":148148,"Delta":10768891},{"NoteNumber":63,"Velocity":54,"Duration":148148,"SoundDuration":148148,"Delta":10768891},{"NoteNumber":75,"Velocity":66,"Duration":148147,"SoundDuration":148147,"Delta":10917039},{"NoteNumber":56,"Velocity":47,"Duration":148147,"SoundDuration":148147,"Delta":10917039},{"NoteNumber":71,"Velocity":69,"Duration":148148,"SoundDuration":148148,"Delta":11065187},{"NoteNumber":63,"Velocity":52,"Duration":148148,"SoundDuration":148148,"Delta":11065187},{"NoteNumber":83,"Velocity":57,"Duration":150870,"SoundDuration":150870,"Delta":11213335},{"NoteNumber":80,"Velocity":48,"Duration":150870,"SoundDuration":150870,"Delta":11213335},{"NoteNumber":59,"Velocity":35,"Duration":150870,"SoundDuration":150870,"Delta":11213335},{"NoteNumber":78,"Velocity":54,"Duration":152510,"SoundDuration":152510,"Delta":11364206},{"NoteNumber":82,"Velocity":64,"Duration":152510,"SoundDuration":152510,"Delta":11364206},{"NoteNumber":51,"Velocity":39,"Duration":152510,"SoundDuration":152510,"Delta":11364206},{"NoteNumber":75,"Velocity":65,"Duration":148148,"SoundDuration":148148,"Delta":11516716},{"NoteNumber":66,"Velocity":44,"Duration":148148,"SoundDuration":148148,"Delta":11516716},{"NoteNumber":70,"Velocity":65,"Duration":74073,"SoundDuration":74073,"Delta":11664864},{"NoteNumber":58,"Velocity":49,"Duration":148147,"SoundDuration":148147,"Delta":11664864},{"NoteNumber":73,"Velocity":47,"Duration":74073,"SoundDuration":74073,"Delta":11738938},{"NoteNumber":71,"Velocity":65,"Duration":148148,"SoundDuration":148148,"Delta":11813012},{"NoteNumber":54,"Velocity":40,"Duration":148148,"SoundDuration":148148,"Delta":11813012},{"NoteNumber":70,"Velocity":63,"Duration":152284,"SoundDuration":152284,"Delta":11961160},{"NoteNumber":63,"Velocity":47,"Duration":152284,"SoundDuration":152284,"Delta":11961160},{"NoteNumber":78,"Velocity":57,"Duration":152284,"SoundDuration":152284,"Delta":12113445},{"NoteNumber":75,"Velocity":48,"Duration":152284,"SoundDuration":152284,"Delta":12113445},{"NoteNumber":58,"Velocity":49,"Duration":152284,"SoundDuration":152284,"Delta":12113445},{"NoteNumber":71,"Velocity":60,"Duration":853557,"SoundDuration":853557,"Delta":12265729},{"NoteNumber":68,"Velocity":60,"Duration":152284,"SoundDuration":152284,"Delta":12265729},{"NoteNumber":40,"Velocity":53,"Duration":152284,"SoundDuration":152284,"Delta":12265729},{"NoteNumber":64,"Velocity":58,"Duration":85960,"SoundDuration":85960,"Delta":12418014},{"NoteNumber":59,"Velocity":38,"Duration":171920,"SoundDuration":171920,"Delta":12418014},{"NoteNumber":68,"Velocity":48,"Duration":85960,"SoundDuration":85960,"Delta":12503974},{"NoteNumber":66,"Velocity":63,"Duration":171920,"SoundDuration":171920,"Delta":12589934},{"NoteNumber":47,"Velocity":36,"Duration":171920,"SoundDuration":171920,"Delta":12589934},{"NoteNumber":64,"Velocity":54,"Duration":178147,"SoundDuration":178147,"Delta":12761854},{"NoteNumber":56,"Velocity":35,"Duration":178147,"SoundDuration":178147,"Delta":12761854},{"NoteNumber":68,"Velocity":57,"Duration":341272,"SoundDuration":341272,"Delta":12940001},{"NoteNumber":59,"Velocity":37,"Duration":179285,"SoundDuration":179285,"Delta":12940001},{"NoteNumber":73,"Velocity":59,"Duration":161986,"SoundDuration":161986,"Delta":13119287},{"NoteNumber":52,"Velocity":42,"Duration":161986,"SoundDuration":161986,"Delta":13119287},{"NoteNumber":71,"Velocity":61,"Duration":165570,"SoundDuration":165570,"Delta":13281274},{"NoteNumber":75,"Velocity":61,"Duration":1058432,"SoundDuration":1058432,"Delta":13281274},{"NoteNumber":47,"Velocity":40,"Duration":165570,"SoundDuration":165570,"Delta":13281274},{"NoteNumber":63,"Velocity":51,"Duration":171135,"SoundDuration":171135,"Delta":13446845},{"NoteNumber":53,"Velocity":40,"Duration":171135,"SoundDuration":171135,"Delta":13446845},{"NoteNumber":66,"Velocity":51,"Duration":177012,"SoundDuration":177012,"Delta":13617980},{"NoteNumber":54,"Velocity":47,"Duration":177012,"SoundDuration":177012,"Delta":13617980},{"NoteNumber":63,"Velocity":55,"Duration":181517,"SoundDuration":181517,"Delta":13794993},{"NoteNumber":61,"Velocity":48,"Duration":181517,"SoundDuration":181517,"Delta":13794993},{"NoteNumber":66,"Velocity":51,"Duration":181597,"SoundDuration":181597,"Delta":13976510},{"NoteNumber":59,"Velocity":43,"Duration":181597,"SoundDuration":181597,"Delta":13976510},{"NoteNumber":68,"Velocity":49,"Duration":181597,"SoundDuration":181597,"Delta":14158108},{"NoteNumber":56,"Velocity":35,"Duration":181597,"SoundDuration":181597,"Delta":14158108},{"NoteNumber":64,"Velocity":48,"Duration":176470,"SoundDuration":176470,"Delta":14339706},{"NoteNumber":73,"Velocity":57,"Duration":176470,"SoundDuration":176470,"Delta":14339706},{"NoteNumber":58,"Velocity":38,"Duration":176470,"SoundDuration":176470,"Delta":14339706},{"NoteNumber":66,"Velocity":52,"Duration":88235,"SoundDuration":88235,"Delta":14516177},{"NoteNumber":54,"Velocity":31,"Duration":176470,"SoundDuration":176470,"Delta":14516177},{"NoteNumber":68,"Velocity":40,"Duration":44117,"SoundDuration":44117,"Delta":14604412},{"NoteNumber":70,"Velocity":40,"Duration":44117,"SoundDuration":44117,"Delta":14648530},{"NoteNumber":68,"Velocity":50,"Duration":176470,"SoundDuration":176470,"Delta":14692647},{"NoteNumber":49,"Velocity":36,"Duration":176470,"SoundDuration":176470,"Delta":14692647},{"NoteNumber":66,"Velocity":49,"Duration":158823,"SoundDuration":158823,"Delta":14869118},{"NoteNumber":42,"Velocity":30,"Duration":176470,"SoundDuration":176470,"Delta":14869118},{"NoteNumber":66,"Velocity":49,"Duration":178147,"SoundDuration":178147,"Delta":15045588},{"NoteNumber":49,"Velocity":34,"Duration":178147,"SoundDuration":178147,"Delta":15045588},{"NoteNumber":75,"Velocity":49,"Duration":178147,"SoundDuration":178147,"Delta":15223736},{"NoteNumber":54,"Velocity":34,"Duration":178147,"SoundDuration":178147,"Delta":15223736},{"NoteNumber":64,"Velocity":45,"Duration":175644,"SoundDuration":175644,"Delta":15401883},{"NoteNumber":73,"Velocity":54,"Duration":175644,"SoundDuration":175644,"Delta":15401883},{"NoteNumber":58,"Velocity":36,"Duration":175644,"SoundDuration":175644,"Delta":15401883},{"NoteNumber":66,"Velocity":51,"Duration":87821,"SoundDuration":87821,"Delta":15577527},{"NoteNumber":54,"Velocity":33,"Duration":175644,"SoundDuration":175644,"Delta":15577527},{"NoteNumber":68,"Velocity":40,"Duration":43911,"SoundDuration":43911,"Delta":15665349},{"NoteNumber":70,"Velocity":40,"Duration":43910,"SoundDuration":43910,"Delta":15709260},{"NoteNumber":68,"Velocity":48,"Duration":175644,"SoundDuration":175644,"Delta":15753171},{"NoteNumber":49,"Velocity":35,"Duration":175644,"SoundDuration":175644,"Delta":15753171},{"NoteNumber":66,"Velocity":47,"Duration":158079,"SoundDuration":158079,"Delta":15928815},{"NoteNumber":42,"Velocity":31,"Duration":175644,"SoundDuration":175644,"Delta":15928815},{"NoteNumber":66,"Velocity":47,"Duration":180723,"SoundDuration":180723,"Delta":16104459},{"NoteNumber":49,"Velocity":32,"Duration":180723,"SoundDuration":180723,"Delta":16104459},{"NoteNumber":75,"Velocity":47,"Duration":180850,"SoundDuration":180850,"Delta":16285182},{"NoteNumber":54,"Velocity":30,"Duration":180850,"SoundDuration":180850,"Delta":16285182},{"NoteNumber":64,"Velocity":43,"Duration":180946,"SoundDuration":180946,"Delta":16466033},{"NoteNumber":73,"Velocity":51,"Duration":180946,"SoundDuration":180946,"Delta":16466033},{"NoteNumber":35,"Velocity":35,"Duration":180946,"SoundDuration":180946,"Delta":16466033},{"NoteNumber":66,"Velocity":45,"Duration":179138,"SoundDuration":179138,"Delta":16646980},{"NoteNumber":42,"Velocity":32,"Duration":179138,"SoundDuration":179138,"Delta":16646980},{"NoteNumber":63,"Velocity":44,"Duration":177366,"SoundDuration":177366,"Delta":16826118},{"NoteNumber":71,"Velocity":52,"Duration":177366,"SoundDuration":177366,"Delta":16826118},{"NoteNumber":47,"Velocity":36,"Duration":177366,"SoundDuration":177366,"Delta":16826118},{"NoteNumber":66,"Velocity":47,"Duration":175704,"SoundDuration":175704,"Delta":17003484},{"NoteNumber":54,"Velocity":31,"Duration":175704,"SoundDuration":175704,"Delta":17003484},{"NoteNumber":71,"Velocity":44,"Duration":173282,"SoundDuration":173282,"Delta":17179189},{"NoteNumber":75,"Velocity":52,"Duration":173282,"SoundDuration":173282,"Delta":17179189},{"NoteNumber":51,"Velocity":37,"Duration":173282,"SoundDuration":173282,"Delta":17179189},{"NoteNumber":66,"Velocity":48,"Duration":187550,"SoundDuration":187550,"Delta":17352471},{"NoteNumber":59,"Velocity":33,"Duration":187550,"SoundDuration":187550,"Delta":17352471},{"NoteNumber":71,"Velocity":44,"Duration":175719,"SoundDuration":175719,"Delta":17540022},{"NoteNumber":77,"Velocity":44,"Duration":175719,"SoundDuration":175719,"Delta":17540022},{"NoteNumber":62,"Velocity":27,"Duration":175719,"SoundDuration":175719,"Delta":17540022},{"NoteNumber":66,"Velocity":34,"Duration":179781,"SoundDuration":179781,"Delta":17715742},{"NoteNumber":78,"Velocity":40,"Duration":179781,"SoundDuration":179781,"Delta":17715742},{"NoteNumber":63,"Velocity":27,"Duration":179781,"SoundDuration":179781,"Delta":17715742},{"NoteNumber":71,"Velocity":37,"Duration":183870,"SoundDuration":183870,"Delta":17895524},{"NoteNumber":80,"Velocity":44,"Duration":183870,"SoundDuration":183870,"Delta":17895524},{"NoteNumber":64,"Velocity":29,"Duration":183870,"SoundDuration":183870,"Delta":17895524},{"NoteNumber":66,"Velocity":34,"Duration":188318,"SoundDuration":188318,"Delta":18079394},{"NoteNumber":78,"Velocity":40,"Duration":188318,"SoundDuration":188318,"Delta":18079394},{"NoteNumber":63,"Velocity":27,"Duration":188318,"SoundDuration":188318,"Delta":18079394},{"NoteNumber":71,"Velocity":32,"Duration":193548,"SoundDuration":193548,"Delta":18267713},{"NoteNumber":76,"Velocity":38,"Duration":193548,"SoundDuration":193548,"Delta":18267713},{"NoteNumber":61,"Velocity":30,"Duration":193548,"SoundDuration":193548,"Delta":18267713},{"NoteNumber":66,"Velocity":32,"Duration":193548,"SoundDuration":193548,"Delta":18461261},{"NoteNumber":75,"Velocity":38,"Duration":193548,"SoundDuration":193548,"Delta":18461261},{"NoteNumber":59,"Velocity":29,"Duration":193548,"SoundDuration":193548,"Delta":18461261},{"NoteNumber":64,"Velocity":39,"Duration":189717,"SoundDuration":189717,"Delta":18654810},{"NoteNumber":73,"Velocity":46,"Duration":189717,"SoundDuration":189717,"Delta":18654810},{"NoteNumber":58,"Velocity":36,"Duration":189717,"SoundDuration":189717,"Delta":18654810},{"NoteNumber":66,"Velocity":47,"Duration":94858,"SoundDuration":94858,"Delta":18844527},{"NoteNumber":68,"Velocity":32,"Duration":47429,"SoundDuration":47429,"Delta":18939386},{"NoteNumber":70,"Velocity":32,"Duration":47429,"SoundDuration":47429,"Delta":18986815},{"NoteNumber":68,"Velocity":44,"Duration":189717,"SoundDuration":189717,"Delta":19034245},{"NoteNumber":49,"Velocity":30,"Duration":189717,"SoundDuration":189717,"Delta":19034245},{"NoteNumber":66,"Velocity":44,"Duration":170745,"SoundDuration":170745,"Delta":19223962},{"NoteNumber":42,"Velocity":30,"Duration":189717,"SoundDuration":189717,"Delta":19223962},{"NoteNumber":66,"Velocity":44,"Duration":186335,"SoundDuration":186335,"Delta":19413680},{"NoteNumber":49,"Velocity":30,"Duration":186335,"SoundDuration":186335,"Delta":19413680},{"NoteNumber":75,"Velocity":44,"Duration":186335,"SoundDuration":186335,"Delta":19600015},{"NoteNumber":54,"Velocity":30,"Duration":186335,"SoundDuration":186335,"Delta":19600015},{"NoteNumber":64,"Velocity":42,"Duration":189873,"SoundDuration":189873,"Delta":19786351},{"NoteNumber":73,"Velocity":50,"Duration":189873,"SoundDuration":189873,"Delta":19786351},{"NoteNumber":58,"Velocity":35,"Duration":189873,"SoundDuration":189873,"Delta":19786351},{"NoteNumber":66,"Velocity":47,"Duration":94936,"SoundDuration":94936,"Delta":19976224},{"NoteNumber":54,"Velocity":29,"Duration":189873,"SoundDuration":189873,"Delta":19976224},{"NoteNumber":68,"Velocity":31,"Duration":47468,"SoundDuration":47468,"Delta":20071161},{"NoteNumber":70,"Velocity":31,"Duration":47468,"SoundDuration":47468,"Delta":20118629},{"NoteNumber":68,"Velocity":43,"Duration":189873,"SoundDuration":189873,"Delta":20166098},{"NoteNumber":49,"Velocity":34,"Duration":189873,"SoundDuration":189873,"Delta":20166098},{"NoteNumber":66,"Velocity":43,"Duration":172594,"SoundDuration":172594,"Delta":20355971},{"NoteNumber":42,"Velocity":31,"Duration":192064,"SoundDuration":192064,"Delta":20355971},{"NoteNumber":66,"Velocity":43,"Duration":197709,"SoundDuration":197709,"Delta":20548035},{"NoteNumber":49,"Velocity":31,"Duration":197709,"SoundDuration":197709,"Delta":20548035},{"NoteNumber":78,"Velocity":43,"Duration":250000,"SoundDuration":250000,"Delta":20745744},{"NoteNumber":58,"Velocity":34,"Duration":250000,"SoundDuration":250000,"Delta":20745744},{"NoteNumber":63,"Velocity":50,"Duration":1357465,"SoundDuration":1357465,"Delta":20933244},{"NoteNumber":78,"Velocity":53,"Duration":1294965,"SoundDuration":1294965,"Delta":20995744},{"NoteNumber":47,"Velocity":33,"Duration":1294965,"SoundDuration":1294965,"Delta":20995744},{"NoteNumber":54,"Velocity":33,"Duration":1294965,"SoundDuration":1294965,"Delta":20995744},{"NoteNumber":77,"Velocity":58,"Duration":205011,"SoundDuration":205011,"Delta":22290709},{"NoteNumber":78,"Velocity":60,"Duration":206068,"SoundDuration":206068,"Delta":22495721},{"NoteNumber":80,"Velocity":63,"Duration":207254,"SoundDuration":207254,"Delta":22701790},{"NoteNumber":78,"Velocity":60,"Duration":208454,"SoundDuration":208454,"Delta":22909044},{"NoteNumber":76,"Velocity":58,"Duration":191082,"SoundDuration":191082,"Delta":23117499},{"NoteNumber":75,"Velocity":54,"Duration":191083,"SoundDuration":191083,"Delta":23308582},{"NoteNumber":75,"Velocity":51,"Duration":627176,"SoundDuration":627176,"Delta":23499665},{"NoteNumber":67,"Velocity":38,"Duration":184274,"SoundDuration":184274,"Delta":24126842},{"NoteNumber":74,"Velocity":45,"Duration":184274,"SoundDuration":184274,"Delta":24126842},{"NoteNumber":58,"Velocity":32,"Duration":562108,"SoundDuration":562108,"Delta":24126842},{"NoteNumber":51,"Velocity":27,"Duration":562108,"SoundDuration":562108,"Delta":24126842},{"NoteNumber":75,"Velocity":50,"Duration":188917,"SoundDuration":188917,"Delta":24311117},{"NoteNumber":76,"Velocity":50,"Duration":188917,"SoundDuration":188917,"Delta":24500034},{"NoteNumber":68,"Velocity":37,"Duration":583512,"SoundDuration":583512,"Delta":24688951},{"NoteNumber":75,"Velocity":44,"Duration":184274,"SoundDuration":184274,"Delta":24688951},{"NoteNumber":56,"Velocity":29,"Duration":583512,"SoundDuration":583512,"Delta":24688951},{"NoteNumber":59,"Velocity":35,"Duration":583512,"SoundDuration":583512,"Delta":24688951},{"NoteNumber":73,"Velocity":51,"Duration":187969,"SoundDuration":187969,"Delta":24873226},{"NoteNumber":71,"Velocity":49,"Duration":211267,"SoundDuration":211267,"Delta":25061196},{"NoteNumber":75,"Velocity":46,"Duration":209058,"SoundDuration":209058,"Delta":25272463},{"NoteNumber":64,"Velocity":39,"Duration":640670,"SoundDuration":640670,"Delta":25272463},{"NoteNumber":54,"Velocity":29,"Duration":640670,"SoundDuration":640670,"Delta":25272463},{"NoteNumber":58,"Velocity":35,"Duration":640670,"SoundDuration":640670,"Delta":25272463},{"NoteNumber":73,"Velocity":52,"Duration":209058,"SoundDuration":209058,"Delta":25481522},{"NoteNumber":71,"Velocity":49,"Duration":222552,"SoundDuration":222552,"Delta":25690581},{"NoteNumber":63,"Velocity":39,"Duration":1246535,"SoundDuration":1246535,"Delta":25913133},{"NoteNumber":71,"Velocity":46,"Duration":1246535,"SoundDuration":1246535,"Delta":25913133},{"NoteNumber":54,"Velocity":32,"Duration":1246535,"SoundDuration":1246535,"Delta":25913133},{"NoteNumber":47,"Velocity":27,"Duration":1246535,"SoundDuration":1246535,"Delta":25913133},{"NoteNumber":63,"Velocity":32,"Duration":1445359,"SoundDuration":1445359,"Delta":27159669},{"NoteNumber":66,"Velocity":38,"Duration":1445359,"SoundDuration":1445359,"Delta":27159669},{"NoteNumber":35,"Velocity":22,"Duration":627176,"SoundDuration":627176,"Delta":27159669},{"NoteNumber":47,"Velocity":26,"Duration":627176,"SoundDuration":627176,"Delta":27159669},{"NoteNumber":54,"Velocity":26,"Duration":1445359,"SoundDuration":1445359,"Delta":27159669},{"NoteNumber":42,"Velocity":26,"Duration":818182,"SoundDuration":818182,"Delta":27786846},{"NoteNumber":30,"Velocity":22,"Duration":818182,"SoundDuration":818182,"Delta":27786846},{"NoteNumber":63,"Velocity":38,"Duration":1636365,"SoundDuration":1636365,"Delta":28605029},{"NoteNumber":59,"Velocity":26,"Duration":1636365,"SoundDuration":1636365,"Delta":28605029},{"NoteNumber":47,"Velocity":22,"Duration":1636365,"SoundDuration":1636365,"Delta":28605029},{"NoteNumber":35,"Velocity":22,"Duration":1636365,"SoundDuration":1636365,"Delta":28605029},{"NoteNumber":54,"Velocity":26,"Duration":1636365,"SoundDuration":1636365,"Delta":28605029}],"license":{"name":"Creative Commons Attribution-ShareAlike 3.0 Germany","url":"http://creativecommons.org/licenses/by-sa/3.0/de/deed.en","text":"The MIDI, audio (MP3, OGG) and video files of Bernd Krueger are licensed under the cc-by-sa Germany License. This means that you can use and adapt the files, as long as you attribute the copyright holder.\n\nName: Bernd Krueger\nSource: http://www.piano-midi.de\n\nThe distribution or public playback of the files is only allowed under identical license conditions.\n\nThe scores are open source.","attribution":"MIDI files by Bernd Krueger (piano-midi.de)"}}